<svg version="1.1" width="105" height="105" xmlns="http://www.w3.org/2000/svg"><path d="M23.6,64.4L23.6,65.4L24.1,65.4L24.1,67.4L24.6,67.4L24.6,67.9L25.1,67.9L25.1,68.4L25.6,68.4L25.6,69.9L27.1,69.9L27.1,70.5L26.9,70.5L26.9,70.1L25.4,70.1L25.4,68.6L24.9,68.6L24.9,68.1L24.4,68.1L24.4,67.6L23.9,67.6L23.9,65.6L23.4,65.6L23.4,64.6L16.6,64.6L16.6,65.1L13.4,65.1L13.4,64.6L12,64.6L12,64.4L13.6,64.4L13.6,64.9L16.4,64.9L16.4,64.6L15,64.6L15,64.4z" stroke="none"/><path d="M44.9,17.4L45.9,17.4L45.9,15.6L44.9,15.6L44.9,15L45.1,15L45.1,15.4L46.1,15.4L46.1,17.6L45.1,17.6L45.1,17.9L46.5,17.9L46.5,18.1L45.1,18.1L45.1,18.4L45.6,18.4L45.6,18.9L46.1,18.9L46.1,19.9L47.6,19.9L47.6,20.4L49.1,20.4L49.1,23.4L49.6,23.4L49.6,25.5L49.4,25.5L49.4,23.6L48.9,23.6L48.9,20.6L47.4,20.6L47.4,20.1L45.9,20.1L45.9,19.1L45.4,19.1L45.4,18.6L44.9,18.6z" stroke="none"/><path d="M78,97.4L78,97.6L76.6,97.6L76.6,97.9L78.1,97.9L78.1,98.4L79.1,98.4L79.1,98.9L79.5,98.9L79.5,99.1L78.9,99.1L78.9,98.6L77.9,98.6L77.9,98.1L76.4,98.1L76.4,97.6L76.1,97.6L76.1,99.9L76.6,99.9L76.6,100.4L77.1,100.4L77.1,101.4L77.6,101.4L77.6,101.9L79.5,101.9L79.5,102.1L77.4,102.1L77.4,101.6L76.9,101.6L76.9,100.6L76.4,100.6L76.4,100.1L75.9,100.1L75.9,97.4z" stroke="none"/><path d="M64.9,13.9L64.9,13.1L62.9,13.1L62.9,12.1L62.4,12.1L62.4,10.6L60.9,10.6L60.9,9.1L59.9,9.1L59.9,7.5L60.1,7.5L60.1,8.9L61.1,8.9L61.1,10.4L62.6,10.4L62.6,11.9L63.1,11.9L63.1,12.9L65.1,12.9L65.1,13.9L66.6,13.9L66.6,15.9L67.1,15.9L67.1,16.9L67.6,16.9L67.6,19.9L70.6,19.9L70.6,20.4L71.6,20.4L71.6,20.9L72.6,20.9L72.6,22.9L74.1,22.9L74.1,24.4L74.6,24.4L74.6,25.4L75.6,25.4L75.6,26.4L76.1,26.4L76.1,26.9L78,26.9L78,27.1L75.9,27.1L75.9,26.6L75.4,26.6L75.4,25.6L74.4,25.6L74.4,24.6L73.9,24.6L73.9,23.1L72.4,23.1L72.4,21.1L71.4,21.1L71.4,20.6L70.4,20.6L70.4,20.1L67.4,20.1L67.4,17.1L66.9,17.1L66.9,16.1L66.4,16.1L66.4,14.1L62.9,14.1L62.9,13.5L63.1,13.5L63.1,13.9z" stroke="none"/><path d="M41.4,71.4L41.4,70.9L42.9,70.9L42.9,69.9L43.4,69.9L43.4,68.9L44.9,68.9L44.9,67.4L45.9,67.4L45.9,66.9L48.9,66.9L48.9,66.4L49.9,66.4L49.9,65.9L50.4,65.9L50.4,65.4L51.4,65.4L51.4,64.9L51.9,64.9L51.9,64.4L52.5,64.4L52.5,64.6L52.1,64.6L52.1,65.1L51.6,65.1L51.6,65.6L50.6,65.6L50.6,66.1L50.1,66.1L50.1,66.6L49.1,66.6L49.1,67.1L46.1,67.1L46.1,67.6L45.1,67.6L45.1,69.1L43.6,69.1L43.6,70.1L43.1,70.1L43.1,71.1L41.6,71.1L41.6,71.6L41.1,71.6L41.1,82.1L40.6,82.1L40.6,83.1L40.1,83.1L40.1,83.6L39.6,83.6L39.6,84.1L37.5,84.1L37.5,83.9L39.4,83.9L39.4,83.4L39.9,83.4L39.9,82.9L40.4,82.9L40.4,81.9L40.9,81.9L40.9,71.6L39.1,71.6L39.1,72L38.9,72L38.9,71.4z" stroke="none"/><path d="M9.9,61.4L9.9,60.4L10.4,60.4L10.4,60L10.6,60L10.6,60.6L10.1,60.6L10.1,61.6L9.1,61.6L9.1,64.4L10.1,64.4L10.1,65.4L15.1,65.4L15.1,67.4L15.6,67.4L15.6,67.9L16.1,67.9L16.1,68.4L16.6,68.4L16.6,69L16.4,69L16.4,68.6L15.9,68.6L15.9,68.1L15.4,68.1L15.4,67.6L14.9,67.6L14.9,65.6L9.9,65.6L9.9,64.6L8.9,64.6L8.9,61.6L6,61.6L6,61.4z" stroke="none"/><path d="M89.4,30.4L89.4,28.9L90.4,28.9L90.4,27.4L91.4,27.4L91.4,27L91.6,27L91.6,27.6L90.6,27.6L90.6,29.1L89.6,29.1L89.6,30.6L86.6,30.6L86.6,32.4L87.1,32.4L87.1,33L86.9,33L86.9,32.6L86.4,32.6L86.4,30.6L86.1,30.6L86.1,35.9L86.6,35.9L86.6,36.4L87.1,36.4L87.1,37.5L86.9,37.5L86.9,36.6L86.4,36.6L86.4,36.1L85.9,36.1L85.9,30.4z" stroke="none"/><path d="M20.9,35.9L20.9,34.9L21.4,34.9L21.4,34.4L22.5,34.4L22.5,34.6L21.6,34.6L21.6,35.1L21.1,35.1L21.1,36.1L16.1,36.1L16.1,41.4L16.6,41.4L16.6,41.9L17.1,41.9L17.1,42.9L18.1,42.9L18.1,45L17.9,45L17.9,43.1L16.9,43.1L16.9,42.1L16.4,42.1L16.4,41.6L15.9,41.6L15.9,36.1L14.4,36.1L14.4,35.6L13.9,35.6L13.9,35.1L13.4,35.1L13.4,34.5L13.6,34.5L13.6,34.9L14.1,34.9L14.1,35.4L14.6,35.4L14.6,35.9z" stroke="none"/><path d="M60.9,43.9L61.4,43.9L61.4,43.5L61.6,43.5L61.6,44.1L61.1,44.1L61.1,47.9L61.6,47.9L61.6,51.4L62.6,51.4L62.6,51.9L64.6,51.9L64.6,52.9L65.1,52.9L65.1,53.9L66.1,53.9L66.1,54.4L66.6,54.4L66.6,54.9L67.6,54.9L67.6,55.5L67.4,55.5L67.4,55.1L66.4,55.1L66.4,54.6L65.9,54.6L65.9,54.1L64.9,54.1L64.9,53.1L64.4,53.1L64.4,52.1L62.4,52.1L62.4,51.6L61.4,51.6L61.4,48.1L61.1,48.1L61.1,48.6L60.6,48.6L60.6,49.6L60.1,49.6L60.1,51L59.9,51L59.9,49.4L60.4,49.4L60.4,48.4L60.9,48.4z" stroke="none"/><path d="M92.4,8.9L93,8.9L93,9.1L92.6,9.1L92.6,12.4L93.1,12.4L93.1,13.4L93.6,13.4L93.6,13.9L94.1,13.9L94.1,14.4L94.6,14.4L94.6,14.9L95.1,14.9L95.1,17.4L95.6,17.4L95.6,17.9L96,17.9L96,18.1L95.4,18.1L95.4,17.6L94.9,17.6L94.9,15.1L94.4,15.1L94.4,14.6L93.9,14.6L93.9,14.1L93.4,14.1L93.4,13.6L92.9,13.6L92.9,12.6L92.6,12.6L92.6,13.9L93.1,13.9L93.1,14.9L93.6,14.9L93.6,15.4L94.6,15.4L94.6,16.5L94.4,16.5L94.4,15.6L93.4,15.6L93.4,15.1L92.9,15.1L92.9,14.1L92.4,14.1z" stroke="none"/><path d="M14.4,10.9L14.4,10.4L14.9,10.4L14.9,9.4L15.4,9.4L15.4,8.9L15.9,8.9L15.9,8.4L16.9,8.4L16.9,7.9L17.4,7.9L17.4,7.1L16.9,7.1L16.9,6.6L16.4,6.6L16.4,6L16.6,6L16.6,6.4L17.1,6.4L17.1,6.9L17.6,6.9L17.6,8.1L17.1,8.1L17.1,8.6L16.1,8.6L16.1,9.1L15.6,9.1L15.6,9.6L15.1,9.6L15.1,10.6L14.6,10.6L14.6,19.4L17.1,19.4L17.1,19.9L18.6,19.9L18.6,20.4L19.1,20.4L19.1,21.9L19.6,21.9L19.6,22.4L20.1,22.4L20.1,23.4L20.6,23.4L20.6,23.9L21,23.9L21,24.1L20.4,24.1L20.4,23.6L19.9,23.6L19.9,22.6L19.4,22.6L19.4,22.1L18.9,22.1L18.9,20.6L18.4,20.6L18.4,20.1L16.9,20.1L16.9,19.6L14.4,19.6L14.4,11.1L10.9,11.1L10.9,10.6L10.5,10.6L10.5,10.4L11.1,10.4L11.1,10.9z" stroke="none"/><path d="M81.6,18.9L81.6,19.9L82.6,19.9L82.6,20.4L83.1,20.4L83.1,20.9L83.6,20.9L83.6,21.4L84.1,21.4L84.1,22.4L85.6,22.4L85.6,22.9L87.1,22.9L87.1,23.9L87.6,23.9L87.6,25.4L88.5,25.4L88.5,25.6L87.4,25.6L87.4,24.1L86.9,24.1L86.9,23.1L85.4,23.1L85.4,22.6L83.9,22.6L83.9,21.6L83.4,21.6L83.4,21.1L82.9,21.1L82.9,20.6L82.4,20.6L82.4,20.1L81.4,20.1L81.4,19.1L78.6,19.1L78.6,21.9L79.1,21.9L79.1,22.4L81,22.4L81,22.6L78.9,22.6L78.9,22.1L78.4,22.1L78.4,19.1L72.9,19.1L72.9,16.1L71.9,16.1L71.9,15L72.1,15L72.1,15.9L73.1,15.9L73.1,18.9z" stroke="none"/><path d="M23.9,69.9L23.9,69.6L23.4,69.6L23.4,69.1L22.4,69.1L22.4,68.6L21.9,68.6L21.9,68.1L21.4,68.1L21.4,67.6L19.5,67.6L19.5,67.4L21.6,67.4L21.6,67.9L22.1,67.9L22.1,68.4L22.6,68.4L22.6,68.9L23.6,68.9L23.6,69.4L24.1,69.4L24.1,69.9L24.6,69.9L24.6,71.9L25.6,71.9L25.6,72.4L26.1,72.4L26.1,72.9L37.1,72.9L37.1,74.4L37.6,74.4L37.6,76.4L39,76.4L39,76.6L37.4,76.6L37.4,74.6L36.9,74.6L36.9,73.1L25.9,73.1L25.9,72.6L25.4,72.6L25.4,72.1L24.4,72.1L24.4,70.1L23.6,70.1L23.6,71.1L22.6,71.1L22.6,71.6L21.6,71.6L21.6,72.1L19.5,72.1L19.5,71.9L21.4,71.9L21.4,71.4L22.4,71.4L22.4,70.9L23.4,70.9L23.4,69.9z" stroke="none"/><path d="M92.4,53.9L92.4,47.9L93,47.9L93,48.1L92.6,48.1L92.6,53.9L94.1,53.9L94.1,54.9L95.6,54.9L95.6,55.4L96.6,55.4L96.6,56.9L99.1,56.9L99.1,58.4L100.6,58.4L100.6,60.4L101.1,60.4L101.1,60.9L102.1,60.9L102.1,61.5L101.9,61.5L101.9,61.1L100.9,61.1L100.9,60.6L100.4,60.6L100.4,58.6L98.9,58.6L98.9,57.1L96.4,57.1L96.4,55.6L95.4,55.6L95.4,55.1L93.9,55.1L93.9,54.1L91.6,54.1L91.6,55.1L91.1,55.1L91.1,55.6L89.6,55.6L89.6,56.1L89.1,56.1L89.1,58.1L88.6,58.1L88.6,58.5L88.4,58.5L88.4,57.9L88.9,57.9L88.9,55.9L89.4,55.9L89.4,55.4L90.9,55.4L90.9,54.9L91.4,54.9L91.4,53.9z" stroke="none"/><path d="M95.1,87.9L95.1,88.9L95.6,88.9L95.6,89.4L99.1,89.4L99.1,90L98.9,90L98.9,89.6L95.4,89.6L95.4,89.1L94.9,89.1L94.9,88.1L93.1,88.1L93.1,88.4L94.1,88.4L94.1,88.9L94.6,88.9L94.6,89.9L98.6,89.9L98.6,90.4L101.6,90.4L101.6,91.4L102,91.4L102,91.6L101.4,91.6L101.4,90.6L98.4,90.6L98.4,90.1L94.4,90.1L94.4,89.1L93.9,89.1L93.9,88.6L92.9,88.6L92.9,88.1L84.1,88.1L84.1,88.5L83.9,88.5L83.9,87.9z" stroke="none"/><path d="M85.9,61.4L85.9,57.4L86.4,57.4L86.4,56.9L86.9,56.9L86.9,56.4L87.9,56.4L87.9,54.9L89.4,54.9L89.4,51.9L89.9,51.9L89.9,50.9L90.4,50.9L90.4,49.4L90.9,49.4L90.9,48.4L91.9,48.4L91.9,46.9L94.1,46.9L94.1,50.4L95.1,50.4L95.1,50.9L96.6,50.9L96.6,51.9L97.6,51.9L97.6,52.5L97.4,52.5L97.4,52.1L96.4,52.1L96.4,51.1L94.9,51.1L94.9,50.6L93.9,50.6L93.9,47.1L92.1,47.1L92.1,48.6L91.1,48.6L91.1,49.6L90.6,49.6L90.6,51.1L90.1,51.1L90.1,52.1L89.6,52.1L89.6,55.1L88.1,55.1L88.1,56.6L87.1,56.6L87.1,57.1L86.6,57.1L86.6,57.6L86.1,57.6L86.1,64.9L86.6,64.9L86.6,65.4L87.1,65.4L87.1,65.9L87.6,65.9L87.6,66.4L88.6,66.4L88.6,67.5L88.4,67.5L88.4,66.6L87.4,66.6L87.4,66.1L86.9,66.1L86.9,65.6L86.4,65.6L86.4,65.1L85.9,65.1L85.9,61.6L85.6,61.6L85.6,66.6L83.1,66.6L83.1,69.1L79.6,69.1L79.6,70.6L78,70.6L78,70.4L79.4,70.4L79.4,68.9L82.9,68.9L82.9,66.4L85.4,66.4L85.4,61.4z" stroke="none"/><path d="M9.4,16.9L10.9,16.9L10.9,14.4L11.9,14.4L11.9,13.4L12.4,13.4L12.4,12.9L12.9,12.9L12.9,12.4L13.4,12.4L13.4,12L13.6,12L13.6,12.6L13.1,12.6L13.1,13.1L12.6,13.1L12.6,13.6L12.1,13.6L12.1,14.6L11.1,14.6L11.1,17.1L9.6,17.1L9.6,19.4L10.1,19.4L10.1,22.4L10.6,22.4L10.6,22.9L11.1,22.9L11.1,23.9L12.1,23.9L12.1,24.4L13.1,24.4L13.1,24.9L13.6,24.9L13.6,26.9L14.6,26.9L14.6,27.9L15.6,27.9L15.6,28.4L16.5,28.4L16.5,28.6L15.4,28.6L15.4,28.1L14.4,28.1L14.4,27.1L13.4,27.1L13.4,25.1L12.9,25.1L12.9,24.6L11.9,24.6L11.9,24.1L10.9,24.1L10.9,23.1L10.4,23.1L10.4,22.6L9.9,22.6L9.9,19.6L9.6,19.6L9.6,21.6L8.1,21.6L8.1,22.6L6.1,22.6L6.1,23.1L5.6,23.1L5.6,24.1L4.5,24.1L4.5,23.9L5.4,23.9L5.4,22.9L5.9,22.9L5.9,22.4L7.9,22.4L7.9,21.4L9.4,21.4z" stroke="none"/><path d="M25.9,30.9L25.9,30.4L26.4,30.4L26.4,29.9L26.9,29.9L26.9,29.4L27.9,29.4L27.9,28.9L29.4,28.9L29.4,26.9L30,26.9L30,27.1L29.6,27.1L29.6,29.1L28.1,29.1L28.1,29.6L27.1,29.6L27.1,30.1L26.6,30.1L26.6,30.6L26.1,30.6L26.1,31.1L24.6,31.1L24.6,31.4L31.5,31.4L31.5,31.6L24.4,31.6L24.4,31.1L24.1,31.1L24.1,38.6L23.6,38.6L23.6,39.1L20.1,39.1L20.1,40.6L19.5,40.6L19.5,40.4L19.9,40.4L19.9,38.9L23.4,38.9L23.4,38.4L23.9,38.4L23.9,30.9z" stroke="none"/><path d="M64.1,5.9L64.1,6.4L65.1,6.4L65.1,6.9L66.6,6.9L66.6,7.4L67.1,7.4L67.1,7.9L68.6,7.9L68.6,8.4L69.1,8.4L69.1,8.9L69.6,8.9L69.6,9.4L72.1,9.4L72.1,10.5L71.9,10.5L71.9,9.6L69.4,9.6L69.4,9.1L68.9,9.1L68.9,8.6L68.4,8.6L68.4,8.1L66.9,8.1L66.9,7.6L66.4,7.6L66.4,7.1L64.9,7.1L64.9,6.6L63.9,6.6L63.9,6.1L60.1,6.1L60.1,6.6L59.6,6.6L59.6,7.1L59.1,7.1L59.1,12.9L60.6,12.9L60.6,13.4L61.5,13.4L61.5,13.6L60.4,13.6L60.4,13.1L58.9,13.1L58.9,6.9L59.4,6.9L59.4,6.4L59.9,6.4L59.9,6.1L56.9,6.1L56.9,5.6L56.4,5.6L56.4,5.1L55.9,5.1L55.9,4.1L54.4,4.1L54.4,3.6L53.9,3.6L53.9,3.1L52.5,3.1L52.5,2.9L54.1,2.9L54.1,3.4L54.6,3.4L54.6,3.9L56.1,3.9L56.1,4.9L56.6,4.9L56.6,5.4L57.1,5.4L57.1,5.9z" stroke="none"/><path d="M13.4,61.4L13.4,59.9L13.9,59.9L13.9,59.4L14.9,59.4L14.9,58.9L17.4,58.9L17.4,58.4L17.9,58.4L17.9,56.9L21,56.9L21,57.1L18.1,57.1L18.1,58.6L17.6,58.6L17.6,59.1L15.1,59.1L15.1,59.6L14.1,59.6L14.1,60.1L13.6,60.1L13.6,61.4L17.9,61.4L17.9,60.9L18.9,60.9L18.9,60.4L20.4,60.4L20.4,59.9L22.5,59.9L22.5,60.1L20.6,60.1L20.6,60.6L19.1,60.6L19.1,61.1L18.1,61.1L18.1,61.6L12.9,61.6L12.9,59.1L9.1,59.1L9.1,60.1L7.6,60.1L7.6,60.6L5.1,60.6L5.1,73.1L3.6,73.1L3.6,73.6L3,73.6L3,73.4L3.4,73.4L3.4,72.9L4.9,72.9L4.9,60.4L7.4,60.4L7.4,59.9L8.9,59.9L8.9,58.9L13.1,58.9L13.1,61.4z" stroke="none"/><path d="M11.4,78.9L11.4,76.9L11.9,76.9L11.9,76.5L12.1,76.5L12.1,77.1L11.6,77.1L11.6,78.9L17.1,78.9L17.1,80.4L18.1,80.4L18.1,80.9L18.6,80.9L18.6,81.9L20.6,81.9L20.6,82.4L22.5,82.4L22.5,82.6L20.4,82.6L20.4,82.1L18.4,82.1L18.4,81.1L17.9,81.1L17.9,80.6L16.9,80.6L16.9,79.1L11.6,79.1L11.6,82.9L12.1,82.9L12.1,83.4L12.6,83.4L12.6,84.4L13.1,84.4L13.1,84.9L14.6,84.9L14.6,85.9L15.1,85.9L15.1,86.4L17.1,86.4L17.1,86.9L17.6,86.9L17.6,87.9L18.1,87.9L18.1,88.5L17.9,88.5L17.9,88.1L17.4,88.1L17.4,87.1L16.9,87.1L16.9,86.6L14.9,86.6L14.9,86.1L14.4,86.1L14.4,85.1L12.9,85.1L12.9,84.6L12.4,84.6L12.4,83.6L11.9,83.6L11.9,83.1L11.4,83.1L11.4,79.1L10.9,79.1L10.9,77.6L10.4,77.6L10.4,77.1L6.4,77.1L6.4,76.6L3,76.6L3,76.4L6.6,76.4L6.6,76.9L10.6,76.9L10.6,77.4L11.1,77.4L11.1,78.9z" stroke="none"/><path d="M58.9,88.4L58.9,88.1L55.1,88.1L55.1,95.6L54.6,95.6L54.6,96.1L54.1,96.1L54.1,96.6L52.6,96.6L52.6,97.1L52.1,97.1L52.1,97.6L51.6,97.6L51.6,98.1L51.1,98.1L51.1,99L50.9,99L50.9,97.9L51.4,97.9L51.4,97.4L51.9,97.4L51.9,96.9L52.4,96.9L52.4,96.4L53.9,96.4L53.9,95.9L54.4,95.9L54.4,95.4L54.9,95.4L54.9,87.9L59.1,87.9L59.1,88.4L59.4,88.4L59.4,87.9L61.9,87.9L61.9,86.9L62.4,86.9L62.4,85.4L64.4,85.4L64.4,84.4L64.9,84.4L64.9,83.9L65.4,83.9L65.4,81.9L66.9,81.9L66.9,80.9L68.4,80.9L68.4,79.4L69,79.4L69,79.6L68.6,79.6L68.6,81.1L67.1,81.1L67.1,82.1L65.6,82.1L65.6,84.1L65.1,84.1L65.1,84.6L64.6,84.6L64.6,85.6L62.6,85.6L62.6,87.1L62.1,87.1L62.1,88.1L59.6,88.1L59.6,88.6L59.1,88.6L59.1,95.6L58.6,95.6L58.6,96.1L58.1,96.1L58.1,97.1L57.6,97.1L57.6,97.9L58.1,97.9L58.1,98.4L67.9,98.4L67.9,96.9L68.9,96.9L68.9,96L69.1,96L69.1,97.1L68.1,97.1L68.1,98.6L57.9,98.6L57.9,98.1L57.4,98.1L57.4,96.9L57.9,96.9L57.9,95.9L58.4,95.9L58.4,95.4L58.9,95.4L58.9,88.6L55.5,88.6L55.5,88.4z" stroke="none"/><path d="M21.9,7.9L21.9,6.6L21.4,6.6L21.4,5.1L20.9,5.1L20.9,4.5L21.1,4.5L21.1,4.9L21.6,4.9L21.6,6.4L22.1,6.4L22.1,7.9L22.6,7.9L22.6,16.4L24.1,16.4L24.1,18L23.9,18L23.9,16.6L22.4,16.6L22.4,8.1L22.1,8.1L22.1,9.6L21.6,9.6L21.6,10.1L18.6,10.1L18.6,11.6L17.6,11.6L17.6,12.1L17.1,12.1L17.1,13.6L16.5,13.6L16.5,13.4L16.9,13.4L16.9,11.9L17.4,11.9L17.4,11.4L18.4,11.4L18.4,9.9L21.4,9.9L21.4,9.4L21.9,9.4L21.9,8.1L21.4,8.1L21.4,7.1L20.9,7.1L20.9,5.6L20.4,5.6L20.4,2.9L20.9,2.9L20.9,2.4L24.4,2.4L24.4,1.9L33.6,1.9L33.6,2.9L34.6,2.9L34.6,3.4L35.1,3.4L35.1,3.9L36.1,3.9L36.1,4.5L35.9,4.5L35.9,4.1L34.9,4.1L34.9,3.6L34.4,3.6L34.4,3.1L33.4,3.1L33.4,2.1L24.6,2.1L24.6,2.6L21.1,2.6L21.1,3.1L20.6,3.1L20.6,5.4L21.1,5.4L21.1,6.9L21.6,6.9L21.6,7.9z" stroke="none"/><path d="M61.4,68.4L61.4,65.4L61.9,65.4L61.9,64.9L62.4,64.9L62.4,62.9L63,62.9L63,63.1L62.6,63.1L62.6,65.1L62.1,65.1L62.1,65.6L61.6,65.6L61.6,68.4L65.6,68.4L65.6,70.4L66.1,70.4L66.1,70.9L66.6,70.9L66.6,72.4L67.6,72.4L67.6,73.5L67.4,73.5L67.4,72.6L66.4,72.6L66.4,71.1L65.9,71.1L65.9,70.6L65.4,70.6L65.4,68.6L61.6,68.6L61.6,70.4L62.1,70.4L62.1,71.9L63,71.9L63,72.1L61.9,72.1L61.9,70.6L61.4,70.6L61.4,68.6L61.1,68.6L61.1,73.4L61.5,73.4L61.5,73.6L60.9,73.6L60.9,68.4z" stroke="none"/><path d="M8.9,94.9L8.9,93.6L2.9,93.6L2.9,91.5L3.1,91.5L3.1,93.4L9.1,93.4L9.1,94.9L9.6,94.9L9.6,96.9L11.6,96.9L11.6,97.4L12.1,97.4L12.1,98.4L12.6,98.4L12.6,98.9L13.1,98.9L13.1,99.4L13.6,99.4L13.6,100.5L13.4,100.5L13.4,99.6L12.9,99.6L12.9,99.1L12.4,99.1L12.4,98.6L11.9,98.6L11.9,97.6L11.4,97.6L11.4,97.1L9.4,97.1L9.4,95.1L9.1,95.1L9.1,97.9L9.6,97.9L9.6,98.9L10.5,98.9L10.5,99.1L9.4,99.1L9.4,98.1L8.9,98.1L8.9,95.1L8.6,95.1L8.6,98.9L9.1,98.9L9.1,99.4L12.6,99.4L12.6,99.9L13.1,99.9L13.1,100.9L13.9,100.9L13.9,100.4L14.4,100.4L14.4,99.9L14.9,99.9L14.9,99.4L15.4,99.4L15.4,97.4L16.5,97.4L16.5,97.6L15.6,97.6L15.6,99.6L15.1,99.6L15.1,100.1L14.6,100.1L14.6,100.6L14.1,100.6L14.1,101.1L12.9,101.1L12.9,100.1L12.4,100.1L12.4,99.6L8.9,99.6L8.9,99.1L8.4,99.1L8.4,94.9z" stroke="none"/><path d="M63.9,91.9L63.9,90.9L64.4,90.9L64.4,89.9L65.9,89.9L65.9,89.4L66.4,89.4L66.4,88.9L66.9,88.9L66.9,88.4L67.4,88.4L67.4,87.9L67.9,87.9L67.9,87.4L69.4,87.4L69.4,86.9L70.9,86.9L70.9,86.4L72.6,86.4L72.6,95.4L73.1,95.4L73.1,96.4L74.6,96.4L74.6,101.9L75,101.9L75,102.1L74.4,102.1L74.4,96.6L72.9,96.6L72.9,95.6L72.4,95.6L72.4,86.6L71.1,86.6L71.1,87.1L69.6,87.1L69.6,87.6L68.1,87.6L68.1,88.1L67.6,88.1L67.6,88.6L67.1,88.6L67.1,89.1L66.6,89.1L66.6,89.6L66.1,89.6L66.1,90.1L64.6,90.1L64.6,91.1L64.1,91.1L64.1,91.9L67.9,91.9L67.9,90.9L69.9,90.9L69.9,88.9L70.4,88.9L70.4,87.4L71.4,87.4L71.4,86.9L72,86.9L72,87.1L71.6,87.1L71.6,87.6L70.6,87.6L70.6,89.1L70.1,89.1L70.1,91.1L68.1,91.1L68.1,92.1L64.1,92.1L64.1,92.6L62.1,92.6L62.1,94.1L60.6,94.1L60.6,95.1L60.1,95.1L60.1,95.6L59.6,95.6L59.6,96.6L59.1,96.6L59.1,97.1L58.6,97.1L58.6,97.5L58.4,97.5L58.4,96.9L58.9,96.9L58.9,96.4L59.4,96.4L59.4,95.4L59.9,95.4L59.9,94.9L60.4,94.9L60.4,93.9L61.9,93.9L61.9,92.4L63.9,92.4L63.9,92.1L63.4,92.1L63.4,91.6L62.4,91.6L62.4,91.1L61.4,91.1L61.4,90.6L59.9,90.6L59.9,90L60.1,90L60.1,90.4L61.6,90.4L61.6,90.9L62.6,90.9L62.6,91.4L63.6,91.4L63.6,91.9z" stroke="none"/><path d="M10.4,71.4L10.4,70.9L14.4,70.9L14.4,70.4L16.9,70.4L16.9,69.4L17.4,69.4L17.4,68.6L16.9,68.6L16.9,68.1L16.4,68.1L16.4,67.5L16.6,67.5L16.6,67.9L17.1,67.9L17.1,68.4L17.6,68.4L17.6,69.6L17.1,69.6L17.1,70.6L14.6,70.6L14.6,71.1L10.6,71.1L10.6,71.4L14.6,71.4L14.6,71.9L15,71.9L15,72.1L14.4,72.1L14.4,71.6L10.6,71.6L10.6,71.9L14.1,71.9L14.1,72.4L15.1,72.4L15.1,72.9L15.6,72.9L15.6,73.4L16.1,73.4L16.1,73.9L16.6,73.9L16.6,74.4L17.1,74.4L17.1,74.9L17.6,74.9L17.6,75.9L18.1,75.9L18.1,76.4L20.6,76.4L20.6,76.9L21.6,76.9L21.6,77.9L22.1,77.9L22.1,79.9L23.6,79.9L23.6,84.6L23.1,84.6L23.1,85.1L18.4,85.1L18.4,84.6L16.4,84.6L16.4,84L16.6,84L16.6,84.4L18.6,84.4L18.6,84.9L22.9,84.9L22.9,84.4L23.4,84.4L23.4,80.1L21.9,80.1L21.9,78.1L21.4,78.1L21.4,77.1L20.4,77.1L20.4,76.6L17.9,76.6L17.9,76.1L17.4,76.1L17.4,75.1L16.9,75.1L16.9,74.6L16.4,74.6L16.4,74.1L15.9,74.1L15.9,73.6L15.4,73.6L15.4,73.1L14.9,73.1L14.9,72.6L13.9,72.6L13.9,72.1L10.4,72.1L10.4,71.6L6.1,71.6L6.1,73.1L5.6,73.1L5.6,73.6L4.6,73.6L4.6,74.1L3.6,74.1L3.6,74.6L1.9,74.6L1.9,72.9L2.4,72.9L2.4,72.4L2.9,72.4L2.9,72L3.1,72L3.1,72.6L2.6,72.6L2.6,73.1L2.1,73.1L2.1,74.4L3.4,74.4L3.4,73.9L4.4,73.9L4.4,73.4L5.4,73.4L5.4,72.9L5.9,72.9L5.9,71.4z" stroke="none"/><path d="M35.9,10.9L35.9,8.6L32.9,8.6L32.9,7.1L31.9,7.1L31.9,6.1L31.4,6.1L31.4,4.5L31.6,4.5L31.6,5.9L32.1,5.9L32.1,6.9L33.1,6.9L33.1,8.4L36.1,8.4L36.1,10.9L39.9,10.9L39.9,10.4L40.5,10.4L40.5,10.6L40.1,10.6L40.1,11.1L36.1,11.1L36.1,11.4L42.6,11.4L42.6,11.9L43.6,11.9L43.6,12.4L44.1,12.4L44.1,13.4L45,13.4L45,13.6L43.9,13.6L43.9,12.6L43.4,12.6L43.4,12.1L42.4,12.1L42.4,11.6L35.9,11.6L35.9,11.1L35.6,11.1L35.6,23.9L36,23.9L36,24.1L35.4,24.1L35.4,10.9z" stroke="none"/><path d="M20.4,94.9L20.4,94.4L21.9,94.4L21.9,91.9L22.4,91.9L22.4,91.4L22.9,91.4L22.9,90.9L24.6,90.9L24.6,93.4L25.1,93.4L25.1,93.9L25.6,93.9L25.6,94.4L26.1,94.4L26.1,95.9L26.6,95.9L26.6,96.4L27.1,96.4L27.1,96.9L29.1,96.9L29.1,97.4L29.6,97.4L29.6,98.4L30.1,98.4L30.1,99L29.9,99L29.9,98.6L29.4,98.6L29.4,97.6L28.9,97.6L28.9,97.1L26.9,97.1L26.9,96.6L26.4,96.6L26.4,96.1L25.9,96.1L25.9,94.6L25.4,94.6L25.4,94.1L24.9,94.1L24.9,93.6L24.4,93.6L24.4,91.1L23.1,91.1L23.1,91.6L22.6,91.6L22.6,92.1L22.1,92.1L22.1,94.6L20.6,94.6L20.6,94.9L22.4,94.9L22.4,94.4L22.9,94.4L22.9,93.4L23.9,93.4L23.9,91.5L24.1,91.5L24.1,93.6L23.1,93.6L23.1,94.6L22.6,94.6L22.6,95.1L20.6,95.1L20.6,95.4L25.1,95.4L25.1,95.9L25.6,95.9L25.6,96.9L26.1,96.9L26.1,100.4L27.1,100.4L27.1,102L26.9,102L26.9,100.6L25.9,100.6L25.9,97.1L25.4,97.1L25.4,96.1L24.9,96.1L24.9,95.6L20.4,95.6L20.4,95.1L17.1,95.1L17.1,95.6L12.1,95.6L12.1,96.1L10.5,96.1L10.5,95.9L11.9,95.9L11.9,95.4L16.9,95.4L16.9,94.9z" stroke="none"/><path d="M84.9,37.4L84.9,28.9L85.4,28.9L85.4,28.4L87,28.4L87,28.6L85.6,28.6L85.6,29.1L85.1,29.1L85.1,37.4L85.6,37.4L85.6,45.6L84.1,45.6L84.1,46.1L82.6,46.1L82.6,46.5L82.4,46.5L82.4,45.9L83.9,45.9L83.9,45.4L85.4,45.4L85.4,37.6L85.1,37.6L85.1,38.1L84.1,38.1L84.1,39.6L81.6,39.6L81.6,40.6L81,40.6L81,40.4L81.4,40.4L81.4,39.4L83.9,39.4L83.9,37.9L84.9,37.9L84.9,37.6L84.4,37.6L84.4,28.4L84.9,28.4L84.9,27.9L89.4,27.9L89.4,26.9L89.9,26.9L89.9,26.4L90.4,26.4L90.4,25.9L92.1,25.9L92.1,26.4L92.6,26.4L92.6,30.4L94.1,30.4L94.1,35.9L94.6,35.9L94.6,37.4L95.1,37.4L95.1,37.9L95.6,37.9L95.6,41.9L96.1,41.9L96.1,42.4L96.6,42.4L96.6,42.9L97.6,42.9L97.6,43.5L97.4,43.5L97.4,43.1L96.4,43.1L96.4,42.6L95.9,42.6L95.9,42.1L95.4,42.1L95.4,38.1L94.9,38.1L94.9,37.6L94.4,37.6L94.4,36.1L93.9,36.1L93.9,30.6L92.4,30.6L92.4,26.6L91.9,26.6L91.9,26.1L90.6,26.1L90.6,26.6L90.1,26.6L90.1,27.1L89.6,27.1L89.6,28.1L85.1,28.1L85.1,28.6L84.6,28.6L84.6,37.4z" stroke="none"/><path d="M58.4,38.4L58.4,37.9L61.4,37.9L61.4,36.4L61.9,36.4L61.9,35.4L63.4,35.4L63.4,34.9L63.9,34.9L63.9,33.9L64.4,33.9L64.4,33.4L65.4,33.4L65.4,32.9L66,32.9L66,33.1L65.6,33.1L65.6,33.6L64.6,33.6L64.6,34.1L64.1,34.1L64.1,35.1L63.6,35.1L63.6,35.6L62.1,35.6L62.1,36.6L61.6,36.6L61.6,38.1L58.6,38.1L58.6,38.4L62.4,38.4L62.4,36.4L62.9,36.4L62.9,36L63.1,36L63.1,36.6L62.6,36.6L62.6,38.6L58.6,38.6L58.6,38.9L59.1,38.9L59.1,39.4L60.1,39.4L60.1,39.9L60.6,39.9L60.6,41.4L61.6,41.4L61.6,42.4L62.1,42.4L62.1,42.9L62.6,42.9L62.6,45.9L63.1,45.9L63.1,46.9L63.6,46.9L63.6,47.4L64.1,47.4L64.1,47.9L64.5,47.9L64.5,48.1L63.9,48.1L63.9,47.6L63.4,47.6L63.4,47.1L62.9,47.1L62.9,46.1L62.4,46.1L62.4,43.1L61.9,43.1L61.9,42.6L61.4,42.6L61.4,41.6L60.4,41.6L60.4,40.1L59.9,40.1L59.9,39.6L58.9,39.6L58.9,39.1L58.4,39.1L58.4,38.6L58.1,38.6L58.1,39.6L57.6,39.6L57.6,40.6L56.1,40.6L56.1,41.1L53.1,41.1L53.1,41.6L52.6,41.6L52.6,44.1L52.1,44.1L52.1,44.6L51.6,44.6L51.6,45.6L51.1,45.6L51.1,46.1L50.6,46.1L50.6,46.6L48,46.6L48,46.4L50.4,46.4L50.4,45.9L50.9,45.9L50.9,45.4L51.4,45.4L51.4,44.4L51.9,44.4L51.9,43.9L52.4,43.9L52.4,41.4L52.9,41.4L52.9,40.9L55.9,40.9L55.9,40.4L57.4,40.4L57.4,39.4L57.9,39.4L57.9,38.4z" stroke="none"/><path d="M61.9,27.4L61.9,23.1L60.9,23.1L60.9,22.6L60,22.6L60,22.4L61.1,22.4L61.1,22.9L62.1,22.9L62.1,27.4L70.1,27.4L70.1,27.9L78.9,27.9L78.9,25.1L78.4,25.1L78.4,24.6L76.9,24.6L76.9,24.1L76.5,24.1L76.5,23.9L77.1,23.9L77.1,24.4L78.6,24.4L78.6,24.9L79.1,24.9L79.1,28.1L69.9,28.1L69.9,27.6L62.1,27.6L62.1,32.4L63.1,32.4L63.1,33L62.9,33L62.9,32.6L61.9,32.6L61.9,27.6L61.6,27.6L61.6,35.1L60.6,35.1L60.6,35.6L59.6,35.6L59.6,36.1L58.6,36.1L58.6,37.6L58.1,37.6L58.1,38.1L57.6,38.1L57.6,39.1L57,39.1L57,38.9L57.4,38.9L57.4,37.9L57.9,37.9L57.9,37.4L58.4,37.4L58.4,35.9L59.4,35.9L59.4,35.4L60.4,35.4L60.4,34.9L61.4,34.9L61.4,27.4z" stroke="none"/><path d="M85.4,79.4L85.4,78.9L87.4,78.9L87.4,78.4L87.9,78.4L87.9,77.4L89.4,77.4L89.4,75.4L90.4,75.4L90.4,74.4L91.4,74.4L91.4,72.9L91.9,72.9L91.9,72.4L92.4,72.4L92.4,71.9L93.9,71.9L93.9,70.9L94.4,70.9L94.4,70.5L94.6,70.5L94.6,71.1L94.1,71.1L94.1,72.1L92.6,72.1L92.6,72.6L92.1,72.6L92.1,73.1L91.6,73.1L91.6,74.6L90.6,74.6L90.6,75.6L89.6,75.6L89.6,77.6L88.1,77.6L88.1,78.6L87.6,78.6L87.6,79.1L85.6,79.1L85.6,79.4L89.6,79.4L89.6,79.9L90.1,79.9L90.1,80.4L90.6,80.4L90.6,80.9L91.5,80.9L91.5,81.1L90.4,81.1L90.4,80.6L89.9,80.6L89.9,80.1L89.4,80.1L89.4,79.6L85.6,79.6L85.6,85.5L85.4,85.5L85.4,79.6L85.1,79.6L85.1,85.1L84.1,85.1L84.1,85.6L83.6,85.6L83.6,87.1L83.1,87.1L83.1,90.1L79.5,90.1L79.5,89.9L82.9,89.9L82.9,86.9L83.4,86.9L83.4,85.4L83.9,85.4L83.9,84.9L84.9,84.9L84.9,79.4z" stroke="none"/><path d="M25.9,8.9L25.9,3.1L25.5,3.1L25.5,2.9L26.1,2.9L26.1,8.9L26.4,8.9L26.4,7.4L27.4,7.4L27.4,6.9L27.9,6.9L27.9,4.9L28.9,4.9L28.9,4.4L29.4,4.4L29.4,2.9L30,2.9L30,3.1L29.6,3.1L29.6,4.6L29.1,4.6L29.1,5.1L28.1,5.1L28.1,7.1L27.6,7.1L27.6,7.6L26.6,7.6L26.6,9.1L26.1,9.1L26.1,11.4L26.6,11.4L26.6,14.9L27.6,14.9L27.6,16.4L29.1,16.4L29.1,17.4L30.1,17.4L30.1,18L29.9,18L29.9,17.6L28.9,17.6L28.9,16.6L27.4,16.6L27.4,15.1L26.4,15.1L26.4,11.6L25.9,11.6L25.9,9.1L25.4,9.1L25.4,3.6L24.9,3.6L24.9,2.4L30.6,2.4L30.6,19.1L28.6,19.1L28.6,19.6L28.1,19.6L28.1,20.6L27.6,20.6L27.6,21.1L27,21.1L27,20.9L27.4,20.9L27.4,20.4L27.9,20.4L27.9,19.4L28.4,19.4L28.4,18.9L30.4,18.9L30.4,2.6L25.1,2.6L25.1,3.4L25.6,3.4L25.6,8.9z" stroke="none"/><path d="M50.9,29.9L50.9,29.4L51.4,29.4L51.4,28.9L52.4,28.9L52.4,28.4L52.9,28.4L52.9,27.4L53.9,27.4L53.9,26.4L57.6,26.4L57.6,28.9L58.1,28.9L58.1,30.9L59.6,30.9L59.6,31.4L60,31.4L60,31.6L59.4,31.6L59.4,31.1L57.9,31.1L57.9,29.1L57.4,29.1L57.4,26.6L54.1,26.6L54.1,27.6L53.1,27.6L53.1,28.6L52.6,28.6L52.6,29.1L51.6,29.1L51.6,29.6L51.1,29.6L51.1,29.9L51.9,29.9L51.9,29.4L52.9,29.4L52.9,28.9L55.9,28.9L55.9,28.4L56.4,28.4L56.4,26.9L57,26.9L57,27.1L56.6,27.1L56.6,28.6L56.1,28.6L56.1,29.1L53.1,29.1L53.1,29.6L52.1,29.6L52.1,30.1L51.1,30.1L51.1,30.9L51.6,30.9L51.6,31.9L52.1,31.9L52.1,32.4L53.1,32.4L53.1,33.4L54.1,33.4L54.1,36L53.9,36L53.9,33.6L52.9,33.6L52.9,32.6L51.9,32.6L51.9,32.1L51.4,32.1L51.4,31.1L50.9,31.1L50.9,30.1L47.1,30.1L47.1,32.1L46.1,32.1L46.1,32.6L44.6,32.6L44.6,33.6L43.1,33.6L43.1,34.1L42.6,34.1L42.6,34.6L42,34.6L42,34.4L42.4,34.4L42.4,33.9L42.9,33.9L42.9,33.4L44.4,33.4L44.4,32.4L45.9,32.4L45.9,31.9L46.9,31.9L46.9,29.9z" stroke="none"/><path d="M34.9,46.4L34.9,45.9L37.4,45.9L37.4,42.9L39.4,42.9L39.4,41.9L39.9,41.9L39.9,41.4L41.1,41.4L41.1,51.9L41.6,51.9L41.6,52.4L42.1,52.4L42.1,52.9L42.6,52.9L42.6,53.4L44.1,53.4L44.1,53.9L44.6,53.9L44.6,54.9L45.1,54.9L45.1,55.5L44.9,55.5L44.9,55.1L44.4,55.1L44.4,54.1L43.9,54.1L43.9,53.6L42.4,53.6L42.4,53.1L41.9,53.1L41.9,52.6L41.4,52.6L41.4,52.1L40.9,52.1L40.9,41.6L40.1,41.6L40.1,42.1L39.6,42.1L39.6,43.1L37.6,43.1L37.6,46.1L35.1,46.1L35.1,46.4L37.9,46.4L37.9,44.9L38.4,44.9L38.4,44.4L38.9,44.4L38.9,43.4L39.9,43.4L39.9,42.4L40.4,42.4L40.4,42L40.6,42L40.6,42.6L40.1,42.6L40.1,43.6L39.1,43.6L39.1,44.6L38.6,44.6L38.6,45.1L38.1,45.1L38.1,46.6L35.1,46.6L35.1,50.9L36.1,50.9L36.1,51.4L36.6,51.4L36.6,51.9L37.1,51.9L37.1,56.4L37.6,56.4L37.6,57L37.4,57L37.4,56.6L36.9,56.6L36.9,52.1L36.4,52.1L36.4,51.6L35.9,51.6L35.9,51.1L34.9,51.1L34.9,46.6L29.9,46.6L29.9,46.1L28.9,46.1L28.9,44.6L28.4,44.6L28.4,43.1L26.9,43.1L26.9,42.6L25.9,42.6L25.9,40.6L25.5,40.6L25.5,40.4L26.1,40.4L26.1,42.4L27.1,42.4L27.1,42.9L28.6,42.9L28.6,44.4L29.1,44.4L29.1,45.9L30.1,45.9L30.1,46.4z" stroke="none"/><path d="M40.4,21.9L40.4,20.9L41.4,20.9L41.4,19.4L41.9,19.4L41.9,18.4L42.4,18.4L42.4,17.9L42.9,17.9L42.9,17.4L43.9,17.4L43.9,16.4L45,16.4L45,16.6L44.1,16.6L44.1,17.6L43.1,17.6L43.1,18.1L42.6,18.1L42.6,18.6L42.1,18.6L42.1,19.6L41.6,19.6L41.6,21.1L40.6,21.1L40.6,21.9L41.1,21.9L41.1,34.9L41.6,34.9L41.6,35.4L46.9,35.4L46.9,34.9L47.4,34.9L47.4,34.4L48,34.4L48,34.6L47.6,34.6L47.6,35.1L47.1,35.1L47.1,35.6L41.4,35.6L41.4,35.1L40.9,35.1L40.9,22.1L40.6,22.1L40.6,29.6L39.1,29.6L39.1,30L38.9,30L38.9,29.4L40.4,29.4L40.4,22.1L39.9,22.1L39.9,19.6L39.4,19.6L39.4,16.6L38.9,16.6L38.9,15L39.1,15L39.1,16.4L39.6,16.4L39.6,19.4L40.1,19.4L40.1,21.9z" stroke="none"/><path d="M92.4,45.9L92.4,41.4L93.4,41.4L93.4,40.4L93.9,40.4L93.9,39.4L94.4,39.4L94.4,39L94.6,39L94.6,39.6L94.1,39.6L94.1,40.6L93.6,40.6L93.6,41.6L92.6,41.6L92.6,45.9L100.6,45.9L100.6,46.5L100.4,46.5L100.4,46.1L92.6,46.1L92.6,46.4L94.6,46.4L94.6,49.4L95.1,49.4L95.1,49.9L95.6,49.9L95.6,50.4L99.1,50.4L99.1,51L98.9,51L98.9,50.6L95.4,50.6L95.4,50.1L94.9,50.1L94.9,49.6L94.4,49.6L94.4,46.6L92.4,46.6L92.4,46.1L92.1,46.1L92.1,46.6L91.1,46.6L91.1,48.1L90.6,48.1L90.6,49.1L90.1,49.1L90.1,50.6L89.6,50.6L89.6,51.6L89.1,51.6L89.1,54.1L88.6,54.1L88.6,54.6L87.6,54.6L87.6,56.1L86.6,56.1L86.6,56.6L85.6,56.6L85.6,57L85.4,57L85.4,56.4L86.4,56.4L86.4,55.9L87.4,55.9L87.4,54.4L88.4,54.4L88.4,53.9L88.9,53.9L88.9,51.4L89.4,51.4L89.4,50.4L89.9,50.4L89.9,48.9L90.4,48.9L90.4,47.9L90.9,47.9L90.9,46.4L91.9,46.4L91.9,45.9z" stroke="none"/><path d="M81.9,59.4L81.9,59.1L78.4,59.1L78.4,58.1L77.9,58.1L77.9,57.6L76.4,57.6L76.4,57.1L75.4,57.1L75.4,56.6L74.6,56.6L74.6,69.4L75.6,69.4L75.6,71.9L87.9,71.9L87.9,70.9L88.9,70.9L88.9,69.9L89.9,69.9L89.9,69.4L90.4,69.4L90.4,67.4L91.4,67.4L91.4,65.9L91.9,65.9L91.9,63.4L93.4,63.4L93.4,61.4L93.9,61.4L93.9,60.4L94.4,60.4L94.4,60L94.6,60L94.6,60.6L94.1,60.6L94.1,61.6L93.6,61.6L93.6,63.6L92.1,63.6L92.1,66.1L91.6,66.1L91.6,67.6L90.6,67.6L90.6,69.6L90.1,69.6L90.1,70.1L89.1,70.1L89.1,71.1L88.1,71.1L88.1,72.1L75.4,72.1L75.4,69.6L74.4,69.6L74.4,56.4L75.6,56.4L75.6,56.9L76.6,56.9L76.6,57.4L78.1,57.4L78.1,57.9L78.6,57.9L78.6,58.9L82.1,58.9L82.1,59.4L82.6,59.4L82.6,65.6L82.1,65.6L82.1,66.1L79.1,66.1L79.1,66.6L77.6,66.6L77.6,70.1L77.1,70.1L77.1,71.4L85.9,71.4L85.9,70.9L87.4,70.9L87.4,68.9L88.4,68.9L88.4,68.4L89.4,68.4L89.4,63.9L89.9,63.9L89.9,63L90.1,63L90.1,64.1L89.6,64.1L89.6,68.6L88.6,68.6L88.6,69.1L87.6,69.1L87.6,71.1L86.1,71.1L86.1,71.6L76.9,71.6L76.9,69.9L77.4,69.9L77.4,66.4L78.9,66.4L78.9,65.9L81.9,65.9L81.9,65.4L82.4,65.4L82.4,59.6L82.1,59.6L82.1,65.1L80.6,65.1L80.6,65.6L78.6,65.6L78.6,66.1L78,66.1L78,65.9L78.4,65.9L78.4,65.4L80.4,65.4L80.4,64.9L81.9,64.9L81.9,59.6L75.4,59.6L75.4,58.1L74.9,58.1L74.9,57L75.1,57L75.1,57.9L75.6,57.9L75.6,59.4z" stroke="none"/><path d="M24.9,21.9L24.9,12.4L25.4,12.4L25.4,12L25.6,12L25.6,12.6L25.1,12.6L25.1,21.9L30.6,21.9L30.6,22.4L31.1,22.4L31.1,22.9L32.1,22.9L32.1,24.4L35.1,24.4L35.1,24.9L38.4,24.9L38.4,24.4L38.9,24.4L38.9,24L39.1,24L39.1,24.6L38.6,24.6L38.6,25.1L34.9,25.1L34.9,24.6L31.9,24.6L31.9,23.1L30.9,23.1L30.9,22.6L30.4,22.6L30.4,22.1L25.1,22.1L25.1,25.1L24.6,25.1L24.6,27.6L23.6,27.6L23.6,28.6L22.6,28.6L22.6,30L22.4,30L22.4,28.4L23.4,28.4L23.4,27.4L24.4,27.4L24.4,24.9L24.9,24.9L24.9,22.1L24.6,22.1L24.6,23.1L24.1,23.1L24.1,26.6L23.1,26.6L23.1,27.6L22.6,27.6L22.6,28.1L22.1,28.1L22.1,30.9L22.6,30.9L22.6,31.5L22.4,31.5L22.4,31.1L21.9,31.1L21.9,27.9L22.4,27.9L22.4,27.4L22.9,27.4L22.9,26.4L23.9,26.4L23.9,22.9L24.4,22.9L24.4,21.9z" stroke="none"/><path d="M7.6,12L7.4,12L7.4,10.5L7.6,10.5z" stroke="none"/><path d="M78,25.4L78,25.6L76.5,25.6L76.5,25.4z" stroke="none"/><path d="M76.5,37.6L76.5,37.4L78,37.4L78,37.6z" stroke="none"/><path d="M49.4,69L49.6,69L49.6,70.5L49.4,70.5z" stroke="none"/><path d="M21.1,16.5L20.9,16.5L20.9,15L21.1,15z" stroke="none"/><path d="M61.5,61.6L61.5,61.4L63,61.4L63,61.6z" stroke="none"/><path d="M99.1,102L98.9,102L98.9,100.5L99.1,100.5z" stroke="none"/><path d="M15,20.9L15,21.1L14.6,21.1L14.6,22.1L14.1,22.1L14.1,22.6L13.5,22.6L13.5,22.4L13.9,22.4L13.9,21.9L14.4,21.9L14.4,20.9z" stroke="none"/><path d="M21,19.6L21,19.4L22.1,19.4L22.1,20.4L22.6,20.4L22.6,21L22.4,21L22.4,20.6L21.9,20.6L21.9,19.6z" stroke="none"/><path d="M58.5,20.9L58.5,21.1L58.1,21.1L58.1,22.1L57.6,22.1L57.6,22.6L57,22.6L57,22.4L57.4,22.4L57.4,21.9L57.9,21.9L57.9,20.9z" stroke="none"/><path d="M78,29.9L78,30.1L77.6,30.1L77.6,31.1L77.1,31.1L77.1,31.6L76.5,31.6L76.5,31.4L76.9,31.4L76.9,30.9L77.4,30.9L77.4,29.9z" stroke="none"/><path d="M78,85.6L78,85.4L81,85.4L81,85.6z" stroke="none"/><path d="M49.5,59.9L49.5,60.1L46.5,60.1L46.5,59.9z" stroke="none"/><path d="M65.9,55.5L66.1,55.5L66.1,58.5L65.9,58.5z" stroke="none"/><path d="M66.1,100.5L65.9,100.5L65.9,100.1L65.4,100.1L65.4,99.6L64.1,99.6L64.1,100.1L63.6,100.1L63.6,100.6L63,100.6L63,100.4L63.4,100.4L63.4,99.9L63.9,99.9L63.9,99.4L65.6,99.4L65.6,99.9L66.1,99.9z" stroke="none"/><path d="M72.1,96L71.9,96L71.9,95.6L71.4,95.6L71.4,93.6L70.9,93.6L70.9,93.1L70.5,93.1L70.5,92.9L71.1,92.9L71.1,93.4L71.6,93.4L71.6,95.4L72.1,95.4z" stroke="none"/><path d="M48,55.4L48,55.6L47.6,55.6L47.6,56.1L46.1,56.1L46.1,56.6L45.1,56.6L45.1,57L44.9,57L44.9,56.4L45.9,56.4L45.9,55.9L47.4,55.9L47.4,55.4z" stroke="none"/><path d="M94.5,94.6L94.5,94.4L96.9,94.4L96.9,93.9L97.4,93.9L97.4,93L97.6,93L97.6,94.1L97.1,94.1L97.1,94.6z" stroke="none"/><path d="M57,52.6L57,52.4L57.6,52.4L57.6,52.9L58.6,52.9L58.6,53.4L59.1,53.4L59.1,53.9L60,53.9L60,54.1L58.9,54.1L58.9,53.6L58.4,53.6L58.4,53.1L57.4,53.1L57.4,52.6z" stroke="none"/><path d="M18,5.9L18,6.1L17.4,6.1L17.4,5.1L15.4,5.1L15.4,4.6L15,4.6L15,4.4L15.6,4.4L15.6,4.9L17.6,4.9L17.6,5.9z" stroke="none"/><path d="M10.6,33L10.4,33L10.4,32.4L10.9,32.4L10.9,30.9L11.9,30.9L11.9,30L12.1,30L12.1,31.1L11.1,31.1L11.1,32.6L10.6,32.6z" stroke="none"/><path d="M96.1,13.5L95.9,13.5L95.9,12.9L96.4,12.9L96.4,11.4L96.9,11.4L96.9,10.4L97.5,10.4L97.5,10.6L97.1,10.6L97.1,11.6L96.6,11.6L96.6,13.1L96.1,13.1z" stroke="none"/><path d="M7.4,82.5L7.6,82.5L7.6,84.9L9.1,84.9L9.1,85.5L8.9,85.5L8.9,85.1L7.4,85.1z" stroke="none"/><path d="M13.6,37.5L13.4,37.5L13.4,37.1L12.9,37.1L12.9,35.1L12.4,35.1L12.4,34.6L12,34.6L12,34.4L12.6,34.4L12.6,34.9L13.1,34.9L13.1,36.9L13.6,36.9z" stroke="none"/><path d="M5.9,12L6.1,12L6.1,14.4L6.6,14.4L6.6,14.9L7.5,14.9L7.5,15.1L6.4,15.1L6.4,14.6L5.9,14.6z" stroke="none"/><path d="M73.4,97.5L73.6,97.5L73.6,98.1L73.1,98.1L73.1,98.6L71.1,98.6L71.1,100.1L70.6,100.1L70.6,100.5L70.4,100.5L70.4,99.9L70.9,99.9L70.9,98.4L72.9,98.4L72.9,97.9L73.4,97.9z" stroke="none"/><path d="M38.9,51L39.1,51L39.1,51.4L39.6,51.4L39.6,51.9L40.1,51.9L40.1,52.9L40.6,52.9L40.6,53.9L42,53.9L42,54.1L40.4,54.1L40.4,53.1L39.9,53.1L39.9,52.1L39.4,52.1L39.4,51.6L38.9,51.6z" stroke="none"/><path d="M31.6,16.5L31.4,16.5L31.4,12L31.6,12z" stroke="none"/><path d="M91.5,14.9L91.5,15.1L87,15.1L87,14.9z" stroke="none"/><path d="M79.5,9.1L79.5,8.9L84,8.9L84,9.1z" stroke="none"/><path d="M66,6.1L66,5.9L69.6,5.9L69.6,6.4L70.1,6.4L70.1,6.9L70.6,6.9L70.6,7.4L71.6,7.4L71.6,8.4L72.6,8.4L72.6,9.4L73.1,9.4L73.1,11.1L72.6,11.1L72.6,11.6L64.4,11.6L64.4,10.6L62.9,10.6L62.9,10.1L61.9,10.1L61.9,8.6L61.4,8.6L61.4,7.5L61.6,7.5L61.6,8.4L62.1,8.4L62.1,9.9L63.1,9.9L63.1,10.4L64.6,10.4L64.6,11.4L72.4,11.4L72.4,10.9L72.9,10.9L72.9,9.6L72.4,9.6L72.4,8.6L71.4,8.6L71.4,7.6L70.4,7.6L70.4,7.1L69.9,7.1L69.9,6.6L69.4,6.6L69.4,6.1z" stroke="none"/><path d="M91.5,87.1L91.5,86.9L95.1,86.9L95.1,87.4L95.6,87.4L95.6,87.9L96.1,87.9L96.1,88.5L95.9,88.5L95.9,88.1L95.4,88.1L95.4,87.6L94.9,87.6L94.9,87.1z" stroke="none"/><path d="M100.4,73.5L100.6,73.5L100.6,76.4L101.1,76.4L101.1,76.9L101.6,76.9L101.6,77.4L102.1,77.4L102.1,78L101.9,78L101.9,77.6L101.4,77.6L101.4,77.1L100.9,77.1L100.9,76.6L100.4,76.6z" stroke="none"/><path d="M27,59.9L27,60.1L25.1,60.1L25.1,61.1L23.6,61.1L23.6,61.6L22.5,61.6L22.5,61.4L23.4,61.4L23.4,60.9L24.9,60.9L24.9,59.9z" stroke="none"/><path d="M4.5,13.4L4.5,13.6L3.9,13.6L3.9,13.1L3.4,13.1L3.4,10.9L3.9,10.9L3.9,10.4L4.4,10.4L4.4,8.9L6,8.9L6,9.1L4.6,9.1L4.6,10.6L4.1,10.6L4.1,11.1L3.6,11.1L3.6,12.9L4.1,12.9L4.1,13.4z" stroke="none"/><path d="M24.1,60L23.9,60L23.9,59.4L26.4,59.4L26.4,58.9L27.6,58.9L27.6,59.4L28.1,59.4L28.1,61.1L26.6,61.1L26.6,61.6L25.1,61.6L25.1,62.6L21.9,62.6L21.9,62.1L20.9,62.1L20.9,61.6L19.5,61.6L19.5,61.4L21.1,61.4L21.1,61.9L22.1,61.9L22.1,62.4L24.9,62.4L24.9,61.4L26.4,61.4L26.4,60.9L27.9,60.9L27.9,59.6L27.4,59.6L27.4,59.1L26.6,59.1L26.6,59.6L24.1,59.6z" stroke="none"/><path d="M13.4,39L13.6,39L13.6,41.1L12.6,41.1L12.6,41.6L12.1,41.6L12.1,43.5L11.9,43.5L11.9,41.4L12.4,41.4L12.4,40.9L13.4,40.9z" stroke="none"/><path d="M16.5,53.9L16.5,54.1L15.9,54.1L15.9,53.1L15.4,53.1L15.4,52.1L14.9,52.1L14.9,49.5L15.1,49.5L15.1,51.9L15.6,51.9L15.6,52.9L16.1,52.9L16.1,53.9z" stroke="none"/><path d="M81,45.1L81,44.9L82.4,44.9L82.4,43.9L82.9,43.9L82.9,43.4L83.4,43.4L83.4,42.9L83.9,42.9L83.9,40.5L84.1,40.5L84.1,43.1L83.6,43.1L83.6,43.6L83.1,43.6L83.1,44.1L82.6,44.1L82.6,45.1z" stroke="none"/><path d="M69,83.9L69,84.1L66.6,84.1L66.6,87.1L66.1,87.1L66.1,88.5L65.9,88.5L65.9,86.9L66.4,86.9L66.4,83.9z" stroke="none"/><path d="M94.5,92.9L94.5,93.1L94.1,93.1L94.1,93.6L93.6,93.6L93.6,97.6L91.5,97.6L91.5,97.4L93.4,97.4L93.4,93.4L93.9,93.4L93.9,92.9z" stroke="none"/><path d="M36,68.9L36,69.1L32.9,69.1L32.9,68.6L31.9,68.6L31.9,68.1L31.4,68.1L31.4,66L31.6,66L31.6,67.9L32.1,67.9L32.1,68.4L33.1,68.4L33.1,68.9z" stroke="none"/><path d="M101.9,34.5L102.1,34.5L102.1,36.6L101.6,36.6L101.6,37.1L101.1,37.1L101.1,37.9L101.6,37.9L101.6,38.9L102.1,38.9L102.1,40.5L101.9,40.5L101.9,39.1L101.4,39.1L101.4,38.1L100.9,38.1L100.9,36.9L101.4,36.9L101.4,36.4L101.9,36.4z" stroke="none"/><path d="M63,16.4L63,16.6L57,16.6L57,16.4z" stroke="none"/><path d="M36.1,72L35.9,72L35.9,69.9L36.9,69.9L36.9,66.6L36.4,66.6L36.4,66.1L36,66.1L36,65.9L36.6,65.9L36.6,66.4L37.1,66.4L37.1,70.1L36.1,70.1z" stroke="none"/><path d="M40.5,35.9L40.5,36.1L34.5,36.1L34.5,35.9z" stroke="none"/><path d="M66.1,79.5L65.9,79.5L65.9,78.9L66.4,78.9L66.4,78.4L66.9,78.4L66.9,77.9L67.4,77.9L67.4,77.4L67.9,77.4L67.9,76.9L69.6,76.9L69.6,77.4L70.1,77.4L70.1,79.4L70.6,79.4L70.6,80.4L71.1,80.4L71.1,80.9L72,80.9L72,81.1L70.9,81.1L70.9,80.6L70.4,80.6L70.4,79.6L69.9,79.6L69.9,77.6L69.4,77.6L69.4,77.1L68.1,77.1L68.1,77.6L67.6,77.6L67.6,78.1L67.1,78.1L67.1,78.6L66.6,78.6L66.6,79.1L66.1,79.1z" stroke="none"/><path d="M72,68.9L72,69.1L69.9,69.1L69.9,68.6L69.4,68.6L69.4,67.6L68.9,67.6L68.9,66.6L68.4,66.6L68.4,66.1L67.4,66.1L67.4,64.5L67.6,64.5L67.6,65.9L68.6,65.9L68.6,66.4L69.1,66.4L69.1,67.4L69.6,67.4L69.6,68.4L70.1,68.4L70.1,68.9z" stroke="none"/><path d="M79.5,100.6L79.5,100.4L80.9,100.4L80.9,99.9L81.9,99.9L81.9,98.9L82.4,98.9L82.4,98.4L82.9,98.4L82.9,95.9L84,95.9L84,96.1L83.1,96.1L83.1,98.6L82.6,98.6L82.6,99.1L82.1,99.1L82.1,100.1L81.1,100.1L81.1,100.6z" stroke="none"/><path d="M55.5,77.9L55.5,78.1L48,78.1L48,77.9z" stroke="none"/><path d="M46.5,81.1L46.5,80.9L49.1,80.9L49.1,81.4L49.6,81.4L49.6,81.9L50.1,81.9L50.1,84.4L52.1,84.4L52.1,84.9L52.6,84.9L52.6,85.5L52.4,85.5L52.4,85.1L51.9,85.1L51.9,84.6L49.9,84.6L49.9,82.1L49.4,82.1L49.4,81.6L48.9,81.6L48.9,81.1z" stroke="none"/><path d="M12,100.4L12,100.6L8.9,100.6L8.9,100.1L8.4,100.1L8.4,99.6L7.9,99.6L7.9,95.1L7.4,95.1L7.4,94.5L7.6,94.5L7.6,94.9L8.1,94.9L8.1,99.4L8.6,99.4L8.6,99.9L9.1,99.9L9.1,100.4z" stroke="none"/><path d="M51,13.6L51,13.4L53.6,13.4L53.6,13.9L54.1,13.9L54.1,14.4L57.4,14.4L57.4,13.4L58.5,13.4L58.5,13.6L57.6,13.6L57.6,14.6L53.9,14.6L53.9,14.1L53.4,14.1L53.4,13.6z" stroke="none"/><path d="M78.1,96L77.9,96L77.9,95.4L78.4,95.4L78.4,94.9L78.9,94.9L78.9,91.1L78.4,91.1L78.4,88.9L79.4,88.9L79.4,88.5L79.6,88.5L79.6,89.1L78.6,89.1L78.6,90.9L79.1,90.9L79.1,95.1L78.6,95.1L78.6,95.6L78.1,95.6z" stroke="none"/><path d="M52.5,45.1L52.5,44.9L57.4,44.9L57.4,43.4L60,43.4L60,43.6L57.6,43.6L57.6,45.1z" stroke="none"/><path d="M99.1,22.5L98.9,22.5L98.9,17.6L97.9,17.6L97.9,16.1L97.4,16.1L97.4,15L97.6,15L97.6,15.9L98.1,15.9L98.1,17.4L99.1,17.4z" stroke="none"/><path d="M46.5,89.9L46.5,90.1L45.9,90.1L45.9,89.1L39.4,89.1L39.4,88.6L39,88.6L39,88.4L39.6,88.4L39.6,88.9L46.1,88.9L46.1,89.9z" stroke="none"/><path d="M10.5,2.9L10.5,3.1L8.1,3.1L8.1,3.6L7.6,3.6L7.6,4.6L5.6,4.6L5.6,5.6L3.4,5.6L3.4,4.6L3,4.6L3,4.4L3.6,4.4L3.6,5.4L5.4,5.4L5.4,4.4L7.4,4.4L7.4,3.4L7.9,3.4L7.9,2.9z" stroke="none"/><path d="M33.1,87L32.9,87L32.9,79.4L34.5,79.4L34.5,79.6L33.1,79.6z" stroke="none"/><path d="M46.5,86.9L46.5,87.1L38.6,87.1L38.6,88.1L38.1,88.1L38.1,88.9L38.6,88.9L38.6,89.9L39,89.9L39,90.1L38.4,90.1L38.4,89.1L37.9,89.1L37.9,87.9L38.4,87.9L38.4,86.9z" stroke="none"/><path d="M87,6.1L87,5.9L87.4,5.9L87.4,5.4L87.9,5.4L87.9,4.9L91.9,4.9L91.9,3.4L93.4,3.4L93.4,2.9L94.5,2.9L94.5,3.1L93.6,3.1L93.6,3.6L92.1,3.6L92.1,5.1L88.1,5.1L88.1,5.6L87.6,5.6L87.6,6.1z" stroke="none"/><path d="M100.5,92.9L100.5,93.1L99.9,93.1L99.9,91.1L97.9,91.1L97.9,90.6L92.9,90.6L92.9,90L93.1,90L93.1,90.4L98.1,90.4L98.1,90.9L100.1,90.9L100.1,92.9z" stroke="none"/><path d="M10.4,30L10.6,30L10.6,32.1L10.1,32.1L10.1,32.6L6.6,32.6L6.6,33.1L6.1,33.1L6.1,34.6L5.6,34.6L5.6,35.1L5.1,35.1L5.1,35.6L4.6,35.6L4.6,36L4.4,36L4.4,35.4L4.9,35.4L4.9,34.9L5.4,34.9L5.4,34.4L5.9,34.4L5.9,32.9L6.4,32.9L6.4,32.4L9.9,32.4L9.9,31.9L10.4,31.9z" stroke="none"/><path d="M93,22.6L93,22.4L97.1,22.4L97.1,22.9L98.6,22.9L98.6,23.4L99.4,23.4L99.4,22.9L99.9,22.9L99.9,18.6L99.4,18.6L99.4,17.1L98.9,17.1L98.9,16.5L99.1,16.5L99.1,16.9L99.6,16.9L99.6,18.4L100.1,18.4L100.1,23.1L99.6,23.1L99.6,23.6L98.4,23.6L98.4,23.1L96.9,23.1L96.9,22.6z" stroke="none"/><path d="M96,2.9L96,3.1L95.6,3.1L95.6,4.1L92.6,4.1L92.6,5.6L91.6,5.6L91.6,6.1L90.1,6.1L90.1,7.1L88.6,7.1L88.6,7.5L88.4,7.5L88.4,6.9L89.9,6.9L89.9,5.9L91.4,5.9L91.4,5.4L92.4,5.4L92.4,3.9L95.4,3.9L95.4,2.9z" stroke="none"/><path d="M46.6,102L46.4,102L46.4,93L46.6,93z" stroke="none"/><path d="M89.9,93L90.1,93L90.1,96.9L90.6,96.9L90.6,97.9L91.1,97.9L91.1,98.4L95.9,98.4L95.9,97.9L96.4,97.9L96.4,96.9L96.9,96.9L96.9,96.4L97.4,96.4L97.4,95.4L98.4,95.4L98.4,94.9L98.9,94.9L98.9,94.5L99.1,94.5L99.1,95.1L98.6,95.1L98.6,95.6L97.6,95.6L97.6,96.6L97.1,96.6L97.1,97.1L96.6,97.1L96.6,98.1L96.1,98.1L96.1,98.6L90.9,98.6L90.9,98.1L90.4,98.1L90.4,97.1L89.9,97.1z" stroke="none"/><path d="M69,77.9L69,78.1L68.6,78.1L68.6,78.6L68.1,78.6L68.1,80.6L64.9,80.6L64.9,77.9L65.9,77.9L65.9,77.4L66.9,77.4L66.9,76.9L67.4,76.9L67.4,76.4L70.6,76.4L70.6,77.9L71.1,77.9L71.1,78.4L71.6,78.4L71.6,78.9L72.1,78.9L72.1,79.9L72.6,79.9L72.6,80.4L73.1,80.4L73.1,82.6L72.1,82.6L72.1,83.1L71.1,83.1L71.1,83.6L70.1,83.6L70.1,84.6L69.6,84.6L69.6,85.1L68.1,85.1L68.1,86.6L67.6,86.6L67.6,87L67.4,87L67.4,86.4L67.9,86.4L67.9,84.9L69.4,84.9L69.4,84.4L69.9,84.4L69.9,83.4L70.9,83.4L70.9,82.9L71.9,82.9L71.9,82.4L72.9,82.4L72.9,80.6L72.4,80.6L72.4,80.1L71.9,80.1L71.9,79.1L71.4,79.1L71.4,78.6L70.9,78.6L70.9,78.1L70.4,78.1L70.4,76.6L67.6,76.6L67.6,77.1L67.1,77.1L67.1,77.6L66.1,77.6L66.1,78.1L65.1,78.1L65.1,80.4L67.9,80.4L67.9,78.4L68.4,78.4L68.4,77.9z" stroke="none"/><path d="M64.5,100.6L64.5,100.4L65.1,100.4L65.1,101.4L72.1,101.4L72.1,101.9L73.5,101.9L73.5,102.1L71.9,102.1L71.9,101.6L64.9,101.6L64.9,100.6z" stroke="none"/><path d="M57.1,72L56.9,72L56.9,63.4L59.4,63.4L59.4,62.9L60,62.9L60,63.1L59.6,63.1L59.6,63.6L57.1,63.6z" stroke="none"/><path d="M54,92.9L54,93.1L47.4,93.1L47.4,92.1L46.4,92.1L46.4,91.6L45.9,91.6L45.9,90.6L45.4,90.6L45.4,90.1L45,90.1L45,89.9L45.6,89.9L45.6,90.4L46.1,90.4L46.1,91.4L46.6,91.4L46.6,91.9L47.6,91.9L47.6,92.9z" stroke="none"/><path d="M99.1,42L98.9,42L98.9,31.6L98.4,31.6L98.4,31.1L96.4,31.1L96.4,29.6L95.9,29.6L95.9,29.1L94.9,29.1L94.9,28.6L93.9,28.6L93.9,27.6L93.4,27.6L93.4,26.6L92.9,26.6L92.9,25.6L90.1,25.6L90.1,26.1L89.6,26.1L89.6,26.6L85.1,26.6L85.1,27.1L84.6,27.1L84.6,27.6L84.1,27.6L84.1,34.1L83.6,34.1L83.6,35.1L82.1,35.1L82.1,36.6L81.6,36.6L81.6,39.1L81.1,39.1L81.1,39.6L80.1,39.6L80.1,45.4L80.6,45.4L80.6,45.9L81.1,45.9L81.1,46.4L81.6,46.4L81.6,47.4L84.4,47.4L84.4,46.9L84.9,46.9L84.9,46.4L86.4,46.4L86.4,44.9L87.4,44.9L87.4,43.9L87.9,43.9L87.9,41.9L88.4,41.9L88.4,40.9L89.4,40.9L89.4,38.9L90,38.9L90,39.1L89.6,39.1L89.6,41.1L88.6,41.1L88.6,42.1L88.1,42.1L88.1,44.1L87.6,44.1L87.6,45.1L86.6,45.1L86.6,46.6L85.1,46.6L85.1,47.1L84.6,47.1L84.6,47.6L81.4,47.6L81.4,46.6L80.9,46.6L80.9,46.1L80.4,46.1L80.4,45.6L79.9,45.6L79.9,39.4L80.9,39.4L80.9,38.9L81.4,38.9L81.4,36.4L81.9,36.4L81.9,34.9L83.4,34.9L83.4,33.9L83.9,33.9L83.9,27.4L84.4,27.4L84.4,26.9L84.9,26.9L84.9,26.4L89.4,26.4L89.4,25.9L89.9,25.9L89.9,25.4L93.1,25.4L93.1,26.4L93.6,26.4L93.6,27.4L94.1,27.4L94.1,28.4L95.1,28.4L95.1,28.9L96.1,28.9L96.1,29.4L96.6,29.4L96.6,30.9L98.6,30.9L98.6,31.4L99.1,31.4z" stroke="none"/><path d="M93.1,16.5L92.9,16.5L92.9,15.6L92.4,15.6L92.4,14.6L91.9,14.6L91.9,8.4L92.4,8.4L92.4,7.9L99.6,7.9L99.6,8.4L100.1,8.4L100.1,9.9L100.6,9.9L100.6,10.5L100.4,10.5L100.4,10.1L99.9,10.1L99.9,8.6L99.4,8.6L99.4,8.1L92.6,8.1L92.6,8.6L92.1,8.6L92.1,14.4L92.6,14.4L92.6,15.4L93.1,15.4z" stroke="none"/><path d="M2.9,78L3.1,78L3.1,81.4L3.6,81.4L3.6,82.9L4.1,82.9L4.1,83.4L5.6,83.4L5.6,84.4L6.1,84.4L6.1,84.9L6.6,84.9L6.6,85.4L7.1,85.4L7.1,86.4L7.6,86.4L7.6,87L7.4,87L7.4,86.6L6.9,86.6L6.9,85.6L6.4,85.6L6.4,85.1L5.9,85.1L5.9,84.6L5.4,84.6L5.4,83.6L3.9,83.6L3.9,83.1L3.4,83.1L3.4,81.6L2.9,81.6z" stroke="none"/><path d="M78.1,93L77.9,93L77.9,87.1L76.9,87.1L76.9,84.6L76.4,84.6L76.4,82.5L76.6,82.5L76.6,84.4L77.1,84.4L77.1,86.9L78.1,86.9z" stroke="none"/><path d="M94.5,19.6L94.5,19.4L96.4,19.4L96.4,18.9L96.9,18.9L96.9,17.1L96.4,17.1L96.4,13.9L101.4,13.9L101.4,12.9L101.9,12.9L101.9,12L102.1,12L102.1,13.1L101.6,13.1L101.6,14.1L96.6,14.1L96.6,16.9L97.1,16.9L97.1,19.1L96.6,19.1L96.6,19.6z" stroke="none"/><path d="M4.5,4.6L4.5,4.4L4.9,4.4L4.9,3.9L5.4,3.9L5.4,2.9L5.9,2.9L5.9,2.4L9.9,2.4L9.9,1.9L11.1,1.9L11.1,2.4L11.6,2.4L11.6,3.9L13.6,3.9L13.6,4.4L14.1,4.4L14.1,4.9L14.6,4.9L14.6,5.9L15,5.9L15,6.1L14.4,6.1L14.4,5.1L13.9,5.1L13.9,4.6L13.4,4.6L13.4,4.1L11.4,4.1L11.4,2.6L10.9,2.6L10.9,2.1L10.1,2.1L10.1,2.6L6.1,2.6L6.1,3.1L5.6,3.1L5.6,4.1L5.1,4.1L5.1,4.6z" stroke="none"/><path d="M97.5,91.4L97.5,91.6L90.4,91.6L90.4,91.1L86.9,91.1L86.9,90L87.1,90L87.1,90.9L90.6,90.9L90.6,91.4z" stroke="none"/><path d="M36,34.4L36,34.6L34.1,34.6L34.1,35.1L33.6,35.1L33.6,36.4L34.1,36.4L34.1,36.9L47.9,36.9L47.9,35.4L48.4,35.4L48.4,34.9L48.9,34.9L48.9,33.6L46.4,33.6L46.4,33L46.6,33L46.6,33.4L49.1,33.4L49.1,35.1L48.6,35.1L48.6,35.6L48.1,35.6L48.1,37.1L33.9,37.1L33.9,36.6L33.4,36.6L33.4,34.9L33.9,34.9L33.9,34.4z" stroke="none"/><path d="M93.1,84L92.9,84L92.9,72.9L93.4,72.9L93.4,72.4L94.4,72.4L94.4,71.4L95.4,71.4L95.4,69.6L94.1,69.6L94.1,70.1L92.6,70.1L92.6,71.1L91.6,71.1L91.6,72.6L91.1,72.6L91.1,73.1L90.6,73.1L90.6,73.6L90,73.6L90,73.4L90.4,73.4L90.4,72.9L90.9,72.9L90.9,72.4L91.4,72.4L91.4,70.9L92.4,70.9L92.4,69.9L93.9,69.9L93.9,69.4L95.6,69.4L95.6,71.6L94.6,71.6L94.6,72.6L93.6,72.6L93.6,73.1L93.1,73.1z" stroke="none"/><path d="M78.1,94.5L77.9,94.5L77.9,94.1L76.9,94.1L76.9,87.6L76.4,87.6L76.4,85.1L75.9,85.1L75.9,84.6L74.9,84.6L74.9,84L75.1,84L75.1,84.4L76.1,84.4L76.1,84.9L76.6,84.9L76.6,87.4L77.1,87.4L77.1,93.9L78.1,93.9z" stroke="none"/><path d="M76.4,42L76.6,42L76.6,44.9L78.6,44.9L78.6,46.9L79.6,46.9L79.6,47.4L80.1,47.4L80.1,47.9L85.4,47.9L85.4,46.9L86.9,46.9L86.9,45.9L87.4,45.9L87.4,45.4L87.9,45.4L87.9,44.9L88.9,44.9L88.9,41.4L90.4,41.4L90.4,40.9L90.9,40.9L90.9,38.6L90.4,38.6L90.4,38.1L87.6,38.1L87.6,38.6L87.1,38.6L87.1,39L86.9,39L86.9,38.4L87.4,38.4L87.4,37.9L90.6,37.9L90.6,38.4L91.1,38.4L91.1,41.1L90.6,41.1L90.6,41.6L89.1,41.6L89.1,45.1L88.1,45.1L88.1,45.6L87.6,45.6L87.6,46.1L87.1,46.1L87.1,47.1L85.6,47.1L85.6,48.1L79.9,48.1L79.9,47.6L79.4,47.6L79.4,47.1L78.4,47.1L78.4,45.1L76.4,45.1z" stroke="none"/><path d="M76.4,7.5L76.6,7.5L76.6,8.9L77.1,8.9L77.1,9.4L77.6,9.4L77.6,9.9L83.6,9.9L83.6,11.4L86.6,11.4L86.6,11.9L87,11.9L87,12.1L86.4,12.1L86.4,11.6L83.4,11.6L83.4,10.1L77.4,10.1L77.4,9.6L76.9,9.6L76.9,9.1L76.4,9.1z" stroke="none"/><path d="M35.9,52.5L36.1,52.5L36.1,54.6L35.6,54.6L35.6,55.1L27.6,55.1L27.6,55.6L26.6,55.6L26.6,56.1L25.6,56.1L25.6,57L25.4,57L25.4,55.9L26.4,55.9L26.4,55.4L27.4,55.4L27.4,54.9L35.4,54.9L35.4,54.4L35.9,54.4z" stroke="none"/><path d="M64.5,2.9L64.5,3.1L55.4,3.1L55.4,2.6L52.9,2.6L52.9,2.1L51.6,2.1L51.6,6.9L53.1,6.9L53.1,7.4L53.6,7.4L53.6,7.9L54.1,7.9L54.1,8.9L54.6,8.9L54.6,9.4L55.6,9.4L55.6,10.5L55.4,10.5L55.4,9.6L54.4,9.6L54.4,9.1L53.9,9.1L53.9,8.1L53.4,8.1L53.4,7.6L52.9,7.6L52.9,7.1L51.4,7.1L51.4,1.9L53.1,1.9L53.1,2.4L55.6,2.4L55.6,2.9z" stroke="none"/><path d="M85.4,7.5L85.6,7.5L85.6,9.4L86.1,9.4L86.1,9.9L86.6,9.9L86.6,10.9L88.1,10.9L88.1,12.6L87.6,12.6L87.6,13.1L79.1,13.1L79.1,14.6L78.6,14.6L78.6,16.6L78,16.6L78,16.4L78.4,16.4L78.4,14.4L78.9,14.4L78.9,12.9L87.4,12.9L87.4,12.4L87.9,12.4L87.9,11.1L86.4,11.1L86.4,10.1L85.9,10.1L85.9,9.6L85.4,9.6z" stroke="none"/><path d="M83.9,91.5L84.1,91.5L84.1,92.9L85.1,92.9L85.1,93.4L85.6,93.4L85.6,94.9L86.6,94.9L86.6,95.4L87.1,95.4L87.1,97.9L88.1,97.9L88.1,98.9L88.6,98.9L88.6,99.4L89.1,99.4L89.1,99.9L91.1,99.9L91.1,100.4L91.5,100.4L91.5,100.6L90.9,100.6L90.9,100.1L88.9,100.1L88.9,99.6L88.4,99.6L88.4,99.1L87.9,99.1L87.9,98.1L86.9,98.1L86.9,95.6L86.4,95.6L86.4,95.1L85.4,95.1L85.4,93.6L84.9,93.6L84.9,93.1L83.9,93.1z" stroke="none"/><path d="M21,41.9L21,42.1L18.4,42.1L18.4,37.9L18.9,37.9L18.9,37.4L20.4,37.4L20.4,36.9L20.9,36.9L20.9,36.4L21.4,36.4L21.4,35.9L21.9,35.9L21.9,35.4L22.9,35.4L22.9,34.9L23.4,34.9L23.4,33.6L21.9,33.6L21.9,32.1L21.4,32.1L21.4,30.6L20.9,30.6L20.9,30L21.1,30L21.1,30.4L21.6,30.4L21.6,31.9L22.1,31.9L22.1,33.4L23.6,33.4L23.6,35.1L23.1,35.1L23.1,35.6L22.1,35.6L22.1,36.1L21.6,36.1L21.6,36.6L21.1,36.6L21.1,37.1L20.6,37.1L20.6,37.6L19.1,37.6L19.1,38.1L18.6,38.1L18.6,41.9z" stroke="none"/><path d="M98.9,93L99.1,93L99.1,93.4L100.1,93.4L100.1,98.6L99.6,98.6L99.6,99.1L89.9,99.1L89.9,98.6L89.4,98.6L89.4,95.1L87.9,95.1L87.9,93.6L87.4,93.6L87.4,93.1L87,93.1L87,92.9L87.6,92.9L87.6,93.4L88.1,93.4L88.1,94.9L89.6,94.9L89.6,98.4L90.1,98.4L90.1,98.9L99.4,98.9L99.4,98.4L99.9,98.4L99.9,93.6L98.9,93.6z" stroke="none"/><path d="M15,7.4L15,7.6L3,7.6L3,7.4z" stroke="none"/><path d="M90,84.1L90,83.9L91.1,83.9L91.1,84.4L92.1,84.4L92.1,84.9L93.9,84.9L93.9,82.9L94.9,82.9L94.9,82.4L95.9,82.4L95.9,81.9L96.4,81.9L96.4,80.9L99.4,80.9L99.4,80.4L99.9,80.4L99.9,78.4L100.4,78.4L100.4,78L100.6,78L100.6,78.6L100.1,78.6L100.1,80.6L99.6,80.6L99.6,81.1L96.6,81.1L96.6,82.1L96.1,82.1L96.1,82.6L95.1,82.6L95.1,83.1L94.1,83.1L94.1,85.1L91.9,85.1L91.9,84.6L90.9,84.6L90.9,84.1z" stroke="none"/><path d="M49.4,72L49.6,72L49.6,76.6L48.6,76.6L48.6,77.1L47.6,77.1L47.6,77.6L47.1,77.6L47.1,79.1L46.1,79.1L46.1,80.1L45.6,80.1L45.6,81.4L46.1,81.4L46.1,82.4L46.6,82.4L46.6,82.9L47.1,82.9L47.1,83.4L48.1,83.4L48.1,84L47.9,84L47.9,83.6L46.9,83.6L46.9,83.1L46.4,83.1L46.4,82.6L45.9,82.6L45.9,81.6L45.4,81.6L45.4,79.9L45.9,79.9L45.9,78.9L46.9,78.9L46.9,77.4L47.4,77.4L47.4,76.9L48.4,76.9L48.4,76.4L49.4,76.4z" stroke="none"/><path d="M28.6,72L28.4,72L28.4,62.9L29.9,62.9L29.9,61.9L30.4,61.9L30.4,60.9L30.9,60.9L30.9,60.4L31.4,60.4L31.4,60L31.6,60L31.6,60.6L31.1,60.6L31.1,61.1L30.6,61.1L30.6,62.1L30.1,62.1L30.1,63.1L28.6,63.1z" stroke="none"/><path d="M37.6,33L37.4,33L37.4,29.1L32.4,29.1L32.4,27.6L31.9,27.6L31.9,27.1L31.4,27.1L31.4,26.1L28.6,26.1L28.6,26.6L27.6,26.6L27.6,27.1L27.1,27.1L27.1,28.1L26.6,28.1L26.6,28.6L26.1,28.6L26.1,29.6L25.6,29.6L25.6,30L25.4,30L25.4,29.4L25.9,29.4L25.9,28.4L26.4,28.4L26.4,27.9L26.9,27.9L26.9,26.9L27.4,26.9L27.4,26.4L28.4,26.4L28.4,25.9L31.6,25.9L31.6,26.9L32.1,26.9L32.1,27.4L32.6,27.4L32.6,28.9L37.6,28.9z" stroke="none"/><path d="M99,49.6L99,49.4L99.4,49.4L99.4,48.9L99.9,48.9L99.9,47.4L100.9,47.4L100.9,46.9L101.4,46.9L101.4,42.4L101.9,42.4L101.9,41.9L102.4,41.9L102.4,41.4L102.9,41.4L102.9,38.6L101.9,38.6L101.9,37.5L102.1,37.5L102.1,38.4L103.1,38.4L103.1,41.6L102.6,41.6L102.6,42.1L102.1,42.1L102.1,42.6L101.6,42.6L101.6,47.1L101.1,47.1L101.1,47.6L100.1,47.6L100.1,49.1L99.6,49.1L99.6,49.6z" stroke="none"/><path d="M57,55.6L57,55.4L60.1,55.4L60.1,55.9L62.1,55.9L62.1,56.4L62.6,56.4L62.6,57.4L63.1,57.4L63.1,58.4L64.1,58.4L64.1,58.9L65.1,58.9L65.1,59.4L68.4,59.4L68.4,58.4L69,58.4L69,58.6L68.6,58.6L68.6,59.6L64.9,59.6L64.9,59.1L63.9,59.1L63.9,58.6L62.9,58.6L62.9,57.6L62.4,57.6L62.4,56.6L61.9,56.6L61.9,56.1L59.9,56.1L59.9,55.6z" stroke="none"/><path d="M80.9,28.5L81.1,28.5L81.1,37.6L80.6,37.6L80.6,38.1L80.1,38.1L80.1,38.6L77.1,38.6L77.1,39.1L76.1,39.1L76.1,40.6L75.6,40.6L75.6,47.4L76.6,47.4L76.6,47.9L79.6,47.9L79.6,48.4L86.4,48.4L86.4,47.9L86.9,47.9L86.9,47.4L87.4,47.4L87.4,46.4L88.4,46.4L88.4,45.9L88.9,45.9L88.9,45.4L89.4,45.4L89.4,44.9L89.9,44.9L89.9,43.9L90.4,43.9L90.4,41.9L90.9,41.9L90.9,41.4L91.4,41.4L91.4,32.4L91.9,32.4L91.9,31.9L92.4,31.9L92.4,31.4L93,31.4L93,31.6L92.6,31.6L92.6,32.1L92.1,32.1L92.1,32.6L91.6,32.6L91.6,41.6L91.1,41.6L91.1,42.1L90.6,42.1L90.6,44.1L90.1,44.1L90.1,45.1L89.6,45.1L89.6,45.6L89.1,45.6L89.1,46.1L88.6,46.1L88.6,46.6L87.6,46.6L87.6,47.6L87.1,47.6L87.1,48.1L86.6,48.1L86.6,48.6L79.4,48.6L79.4,48.1L76.4,48.1L76.4,47.6L75.4,47.6L75.4,40.4L75.9,40.4L75.9,38.9L76.9,38.9L76.9,38.4L79.9,38.4L79.9,37.9L80.4,37.9L80.4,37.4L80.9,37.4z" stroke="none"/><path d="M65.9,34.5L66.1,34.5L66.1,42.4L66.6,42.4L66.6,42.9L67.1,42.9L67.1,43.4L67.6,43.4L67.6,44.9L68.1,44.9L68.1,45.4L68.6,45.4L68.6,45.9L70.1,45.9L70.1,46.4L70.5,46.4L70.5,46.6L69.9,46.6L69.9,46.1L68.4,46.1L68.4,45.6L67.9,45.6L67.9,45.1L67.4,45.1L67.4,43.6L66.9,43.6L66.9,43.1L66.4,43.1L66.4,42.6L65.9,42.6z" stroke="none"/><path d="M43.6,100.5L43.4,100.5L43.4,95.6L42.9,95.6L42.9,94.1L42.4,94.1L42.4,92.1L41.9,92.1L41.9,91.6L39.9,91.6L39.9,91.1L38.4,91.1L38.4,90.6L37.4,90.6L37.4,86.4L45.9,86.4L45.9,85.9L49.6,85.9L49.6,86.4L50.1,86.4L50.1,88.9L51.1,88.9L51.1,90L50.9,90L50.9,89.1L49.9,89.1L49.9,86.6L49.4,86.6L49.4,86.1L46.1,86.1L46.1,86.6L37.6,86.6L37.6,90.4L38.6,90.4L38.6,90.9L40.1,90.9L40.1,91.4L42.1,91.4L42.1,91.9L42.6,91.9L42.6,93.9L43.1,93.9L43.1,95.4L43.6,95.4z" stroke="none"/><path d="M36,39.1L36,38.9L38.1,38.9L38.1,39.4L40.6,39.4L40.6,40.4L41.1,40.4L41.1,40.9L41.6,40.9L41.6,47.9L43.1,47.9L43.1,49.4L43.5,49.4L43.5,49.6L42.9,49.6L42.9,48.1L41.4,48.1L41.4,41.1L40.9,41.1L40.9,40.6L40.4,40.6L40.4,39.6L37.9,39.6L37.9,39.1z" stroke="none"/><path d="M82.5,23.9L82.5,24.1L77.4,24.1L77.4,23.1L76.4,23.1L76.4,22.6L75.9,22.6L75.9,22.1L75.4,22.1L75.4,21.6L73.9,21.6L73.9,21.1L73.4,21.1L73.4,19.6L72.4,19.6L72.4,18.1L71.9,18.1L71.9,16.6L71.4,16.6L71.4,15.6L70.9,15.6L70.9,14.4L71.4,14.4L71.4,13.9L73.6,13.9L73.6,14.4L76.1,14.4L76.1,14.9L76.6,14.9L76.6,15.4L77.1,15.4L77.1,16.9L77.6,16.9L77.6,17.4L91.6,17.4L91.6,17.9L94.5,17.9L94.5,18.1L91.4,18.1L91.4,17.6L77.4,17.6L77.4,17.1L76.9,17.1L76.9,15.6L76.4,15.6L76.4,15.1L75.9,15.1L75.9,14.6L73.4,14.6L73.4,14.1L71.6,14.1L71.6,14.6L71.1,14.6L71.1,15.4L71.6,15.4L71.6,16.4L72.1,16.4L72.1,17.9L72.6,17.9L72.6,19.4L73.6,19.4L73.6,20.9L74.1,20.9L74.1,21.4L75.6,21.4L75.6,21.9L76.1,21.9L76.1,22.4L76.6,22.4L76.6,22.9L77.6,22.9L77.6,23.9z" stroke="none"/><path d="M96,20.9L96,21.1L92.1,21.1L92.1,23.4L96.6,23.4L96.6,23.9L99.9,23.9L99.9,23.4L100.4,23.4L100.4,15.4L100.9,15.4L100.9,14.9L101.9,14.9L101.9,13.4L102.4,13.4L102.4,12.4L102.9,12.4L102.9,8.1L100.9,8.1L100.9,7.6L92.1,7.6L92.1,8.1L91.6,8.1L91.6,13.1L91.1,13.1L91.1,13.6L88.6,13.6L88.6,14.1L86.1,14.1L86.1,14.6L84.1,14.6L84.1,15L83.9,15L83.9,14.4L85.9,14.4L85.9,13.9L88.4,13.9L88.4,13.4L90.9,13.4L90.9,12.9L91.4,12.9L91.4,7.9L91.9,7.9L91.9,7.4L101.1,7.4L101.1,7.9L103.1,7.9L103.1,12.6L102.6,12.6L102.6,13.6L102.1,13.6L102.1,15.1L101.1,15.1L101.1,15.6L100.6,15.6L100.6,23.6L100.1,23.6L100.1,24.1L96.4,24.1L96.4,23.6L91.9,23.6L91.9,20.9z" stroke="none"/><path d="M76.6,12L76.4,12L76.4,9.6L75.9,9.6L75.9,8.1L75.4,8.1L75.4,6.9L75.9,6.9L75.9,6.4L86.1,6.4L86.1,6.9L87.4,6.9L87.4,6.4L88.4,6.4L88.4,6L88.6,6L88.6,6.6L87.6,6.6L87.6,7.1L85.9,7.1L85.9,6.6L76.1,6.6L76.1,7.1L75.6,7.1L75.6,7.9L76.1,7.9L76.1,9.4L76.6,9.4z" stroke="none"/><path d="M88.5,87.1L88.5,86.9L90.4,86.9L90.4,86.4L90.9,86.4L90.9,85.9L96.6,85.9L96.6,86.4L100.6,86.4L100.6,86.9L102,86.9L102,87.1L100.4,87.1L100.4,86.6L96.4,86.6L96.4,86.1L91.1,86.1L91.1,86.6L90.6,86.6L90.6,87.1z" stroke="none"/><path d="M31.5,49.4L31.5,49.6L18,49.6L18,49.4z" stroke="none"/><path d="M69,45.1L69,44.9L71.1,44.9L71.1,45.4L71.6,45.4L71.6,48.6L71.1,48.6L71.1,53.1L70.6,53.1L70.6,58.5L70.4,58.5L70.4,52.9L70.9,52.9L70.9,48.4L71.4,48.4L71.4,45.6L70.9,45.6L70.9,45.1z" stroke="none"/><path d="M55.4,97.5L55.6,97.5L55.6,99.6L54.6,99.6L54.6,100.1L50.6,100.1L50.6,100.6L49.6,100.6L49.6,101.6L49.1,101.6L49.1,102.1L48.1,102.1L48.1,102.6L47.6,102.6L47.6,103.1L40.9,103.1L40.9,99.9L41.4,99.9L41.4,98.9L42,98.9L42,99.1L41.6,99.1L41.6,100.1L41.1,100.1L41.1,102.9L47.4,102.9L47.4,102.4L47.9,102.4L47.9,101.9L48.9,101.9L48.9,101.4L49.4,101.4L49.4,100.4L50.4,100.4L50.4,99.9L54.4,99.9L54.4,99.4L55.4,99.4z" stroke="none"/><path d="M39,52.6L39,52.4L39.6,52.4L39.6,53.4L40.1,53.4L40.1,54.4L41.6,54.4L41.6,54.9L42.6,54.9L42.6,56.4L43.1,56.4L43.1,56.9L44.1,56.9L44.1,57.4L44.6,57.4L44.6,57.9L50.4,57.9L50.4,55.9L51.4,55.9L51.4,54.9L51.9,54.9L51.9,53.9L52.5,53.9L52.5,54.1L52.1,54.1L52.1,55.1L51.6,55.1L51.6,56.1L50.6,56.1L50.6,58.1L44.4,58.1L44.4,57.6L43.9,57.6L43.9,57.1L42.9,57.1L42.9,56.6L42.4,56.6L42.4,55.1L41.4,55.1L41.4,54.6L39.9,54.6L39.9,53.6L39.4,53.6L39.4,52.6z" stroke="none"/><path d="M43.6,76.5L43.4,76.5L43.4,73.9L43.9,73.9L43.9,72.4L44.4,72.4L44.4,71.4L44.9,71.4L44.9,70.9L46.9,70.9L46.9,69.9L47.4,69.9L47.4,68.4L47.9,68.4L47.9,67.9L50.1,67.9L50.1,68.4L50.6,68.4L50.6,72.4L52.1,72.4L52.1,72.9L52.6,72.9L52.6,73.4L53.1,73.4L53.1,73.9L54.1,73.9L54.1,76.4L56.1,76.4L56.1,76.9L56.6,76.9L56.6,77.4L57.1,77.4L57.1,78L56.9,78L56.9,77.6L56.4,77.6L56.4,77.1L55.9,77.1L55.9,76.6L53.9,76.6L53.9,74.1L52.9,74.1L52.9,73.6L52.4,73.6L52.4,73.1L51.9,73.1L51.9,72.6L50.4,72.6L50.4,68.6L49.9,68.6L49.9,68.1L48.1,68.1L48.1,68.6L47.6,68.6L47.6,70.1L47.1,70.1L47.1,71.1L45.1,71.1L45.1,71.6L44.6,71.6L44.6,72.6L44.1,72.6L44.1,74.1L43.6,74.1z" stroke="none"/><path d="M56.9,30L57.1,30L57.1,31.9L59.6,31.9L59.6,32.4L60.9,32.4L60.9,24.6L59.4,24.6L59.4,23.6L58.9,23.6L58.9,21.9L59.4,21.9L59.4,21.4L65.6,21.4L65.6,21.9L66.1,21.9L66.1,23.4L67.6,23.4L67.6,23.9L68.1,23.9L68.1,24.4L70.1,24.4L70.1,26.4L70.6,26.4L70.6,27L70.4,27L70.4,26.6L69.9,26.6L69.9,24.6L67.9,24.6L67.9,24.1L67.4,24.1L67.4,23.6L65.9,23.6L65.9,22.1L65.4,22.1L65.4,21.6L59.6,21.6L59.6,22.1L59.1,22.1L59.1,23.4L59.6,23.4L59.6,24.4L61.1,24.4L61.1,32.6L59.4,32.6L59.4,32.1L56.9,32.1z" stroke="none"/><path d="M91.5,102.1L91.5,101.9L96.4,101.9L96.4,100.9L97.9,100.9L97.9,99.9L98.4,99.9L98.4,99.4L99.9,99.4L99.9,98.9L100.4,98.9L100.4,94.4L100.9,94.4L100.9,93.9L101.4,93.9L101.4,93.4L101.9,93.4L101.9,93L102.1,93L102.1,93.6L101.6,93.6L101.6,94.1L101.1,94.1L101.1,94.6L100.6,94.6L100.6,99.1L100.1,99.1L100.1,99.6L98.6,99.6L98.6,100.1L98.1,100.1L98.1,101.1L96.6,101.1L96.6,102.1z" stroke="none"/><path d="M34.5,53.9L34.5,54.1L28.4,54.1L28.4,53.6L27.9,53.6L27.9,53.1L27.4,53.1L27.4,52.6L23.4,52.6L23.4,52.1L21.9,52.1L21.9,51.1L21,51.1L21,50.9L22.1,50.9L22.1,51.9L23.6,51.9L23.6,52.4L27.6,52.4L27.6,52.9L28.1,52.9L28.1,53.4L28.6,53.4L28.6,53.9z" stroke="none"/><path d="M16.5,31.4L16.5,31.6L13.9,31.6L13.9,31.1L13.4,31.1L13.4,29.6L12.9,29.6L12.9,29.1L8.4,29.1L8.4,28.1L3.4,28.1L3.4,27.1L3,27.1L3,26.9L3.6,26.9L3.6,27.9L8.6,27.9L8.6,28.9L13.1,28.9L13.1,29.4L13.6,29.4L13.6,30.9L14.1,30.9L14.1,31.4z" stroke="none"/><path d="M64.6,76.5L64.4,76.5L64.4,76.1L62.4,76.1L62.4,75.6L57.4,75.6L57.4,75.1L56.4,75.1L56.4,72.6L55.9,72.6L55.9,65.1L55.4,65.1L55.4,64.5L55.6,64.5L55.6,64.9L56.1,64.9L56.1,72.4L56.6,72.4L56.6,74.9L57.6,74.9L57.6,75.4L62.6,75.4L62.6,75.9L64.6,75.9z" stroke="none"/><path d="M87,94.4L87,94.6L86.4,94.6L86.4,94.1L85.9,94.1L85.9,91.6L84.9,91.6L84.9,90.6L83.6,90.6L83.6,91.1L83.1,91.1L83.1,93.4L83.6,93.4L83.6,93.9L84.6,93.9L84.6,95.4L85.1,95.4L85.1,95.9L85.6,95.9L85.6,96.9L86.6,96.9L86.6,98.4L87.1,98.4L87.1,99.4L87.6,99.4L87.6,99.9L88.1,99.9L88.1,100.9L88.6,100.9L88.6,101.9L90.1,101.9L90.1,102.9L99.4,102.9L99.4,102.4L99.9,102.4L99.9,99.9L100.4,99.9L100.4,99.4L100.9,99.4L100.9,94.9L101.9,94.9L101.9,94.5L102.1,94.5L102.1,95.1L101.1,95.1L101.1,99.6L100.6,99.6L100.6,100.1L100.1,100.1L100.1,102.6L99.6,102.6L99.6,103.1L89.9,103.1L89.9,102.1L88.4,102.1L88.4,101.1L87.9,101.1L87.9,100.1L87.4,100.1L87.4,99.6L86.9,99.6L86.9,98.6L86.4,98.6L86.4,97.1L85.4,97.1L85.4,96.1L84.9,96.1L84.9,95.6L84.4,95.6L84.4,94.1L83.4,94.1L83.4,93.6L82.9,93.6L82.9,90.9L83.4,90.9L83.4,90.4L85.1,90.4L85.1,91.4L86.1,91.4L86.1,93.9L86.6,93.9L86.6,94.4z" stroke="none"/><path d="M90,85.6L90,85.4L94.9,85.4L94.9,84.9L96.9,84.9L96.9,84.4L98.4,84.4L98.4,83.9L99.4,83.9L99.4,81.9L100.4,81.9L100.4,80.4L100.9,80.4L100.9,79.9L101.4,79.9L101.4,78.9L102.9,78.9L102.9,77.6L102.4,77.6L102.4,77.1L101.9,77.1L101.9,76.5L102.1,76.5L102.1,76.9L102.6,76.9L102.6,77.4L103.1,77.4L103.1,79.1L101.6,79.1L101.6,80.1L101.1,80.1L101.1,80.6L100.6,80.6L100.6,82.1L99.6,82.1L99.6,84.1L98.6,84.1L98.6,84.6L97.1,84.6L97.1,85.1L95.1,85.1L95.1,85.6z" stroke="none"/><path d="M2.9,15L3.1,15L3.1,25.1L2.6,25.1L2.6,25.6L2.1,25.6L2.1,28.4L2.6,28.4L2.6,28.9L3.1,28.9L3.1,29.9L4.5,29.9L4.5,30.1L2.9,30.1L2.9,29.1L2.4,29.1L2.4,28.6L1.9,28.6L1.9,25.4L2.4,25.4L2.4,24.9L2.9,24.9z" stroke="none"/><path d="M69,22.4L69,22.6L68.4,22.6L68.4,21.6L65.9,21.6L65.9,21.1L60.4,21.1L60.4,20.6L58.9,20.6L58.9,20.1L54.4,20.1L54.4,19.6L54,19.6L54,19.4L54.6,19.4L54.6,19.9L59.1,19.9L59.1,20.4L60.6,20.4L60.6,20.9L66.1,20.9L66.1,21.4L68.6,21.4L68.6,22.4z" stroke="none"/><path d="M13.5,55.6L13.5,55.4L16.4,55.4L16.4,54.9L16.9,54.9L16.9,54.4L17.4,54.4L17.4,53.4L17.9,53.4L17.9,52.4L18.4,52.4L18.4,51.9L18.9,51.9L18.9,51.4L19.9,51.4L19.9,50.4L20.4,50.4L20.4,49.9L25.1,49.9L25.1,50.4L25.6,50.4L25.6,50.9L26.1,50.9L26.1,51.9L28.6,51.9L28.6,52.5L28.4,52.5L28.4,52.1L25.9,52.1L25.9,51.1L25.4,51.1L25.4,50.6L24.9,50.6L24.9,50.1L20.6,50.1L20.6,50.6L20.1,50.6L20.1,51.6L19.1,51.6L19.1,52.1L18.6,52.1L18.6,52.6L18.1,52.6L18.1,53.6L17.6,53.6L17.6,54.6L17.1,54.6L17.1,55.1L16.6,55.1L16.6,55.6z" stroke="none"/><path d="M18,99.1L18,98.9L23.6,98.9L23.6,101.9L24.6,101.9L24.6,102.4L26.6,102.4L26.6,102.9L27.4,102.9L27.4,102.4L27.9,102.4L27.9,100.9L29.9,100.9L29.9,99.9L30.4,99.9L30.4,99.4L30.9,99.4L30.9,98.6L30.4,98.6L30.4,97.6L29.9,97.6L29.9,97.1L29.4,97.1L29.4,96.6L27.9,96.6L27.9,95.1L27.4,95.1L27.4,94.1L26.4,94.1L26.4,93.1L25.9,93.1L25.9,92.1L24.9,92.1L24.9,90.6L20.9,90.6L20.9,90.1L20.4,90.1L20.4,88.6L19.9,88.6L19.9,87.1L18.4,87.1L18.4,86.6L17.4,86.6L17.4,86.1L16.4,86.1L16.4,85.1L15.4,85.1L15.4,83.4L15.9,83.4L15.9,82.9L20.6,82.9L20.6,83.4L22.1,83.4L22.1,83.9L22.5,83.9L22.5,84.1L21.9,84.1L21.9,83.6L20.4,83.6L20.4,83.1L16.1,83.1L16.1,83.6L15.6,83.6L15.6,84.9L16.6,84.9L16.6,85.9L17.6,85.9L17.6,86.4L18.6,86.4L18.6,86.9L20.1,86.9L20.1,88.4L20.6,88.4L20.6,89.9L21.1,89.9L21.1,90.4L25.1,90.4L25.1,91.9L26.1,91.9L26.1,92.9L26.6,92.9L26.6,93.9L27.6,93.9L27.6,94.9L28.1,94.9L28.1,96.4L29.6,96.4L29.6,96.9L30.1,96.9L30.1,97.4L30.6,97.4L30.6,98.4L31.1,98.4L31.1,99.6L30.6,99.6L30.6,100.1L30.1,100.1L30.1,101.1L28.1,101.1L28.1,102.6L27.6,102.6L27.6,103.1L26.4,103.1L26.4,102.6L24.4,102.6L24.4,102.1L23.4,102.1L23.4,99.1z" stroke="none"/><path d="M72.1,55.5L71.9,55.5L71.9,44.6L69.4,44.6L69.4,44.1L68.4,44.1L68.4,43.6L67.9,43.6L67.9,40.6L67.5,40.6L67.5,40.4L68.1,40.4L68.1,43.4L68.6,43.4L68.6,43.9L69.6,43.9L69.6,44.4L72.1,44.4z" stroke="none"/><path d="M6.1,39L5.9,39L5.9,37.9L7.9,37.9L7.9,36.9L8.4,36.9L8.4,34.9L9.4,34.9L9.4,34.4L10.9,34.4L10.9,33.4L15.9,33.4L15.9,32.4L17.4,32.4L17.4,28.1L16.9,28.1L16.9,27.1L16.5,27.1L16.5,26.9L17.1,26.9L17.1,27.9L17.6,27.9L17.6,32.6L16.1,32.6L16.1,33.6L11.1,33.6L11.1,34.6L9.6,34.6L9.6,35.1L8.6,35.1L8.6,37.1L8.1,37.1L8.1,38.1L6.1,38.1z" stroke="none"/><path d="M34.4,57L34.6,57L34.6,57.6L34.1,57.6L34.1,58.1L33.6,58.1L33.6,58.6L33.1,58.6L33.1,59.1L30.6,59.1L30.6,59.6L30.1,59.6L30.1,61.1L28.6,61.1L28.6,61.6L28.1,61.6L28.1,62.1L27.6,62.1L27.6,62.6L27.1,62.6L27.1,63.1L19.5,63.1L19.5,62.9L26.9,62.9L26.9,62.4L27.4,62.4L27.4,61.9L27.9,61.9L27.9,61.4L28.4,61.4L28.4,60.9L29.9,60.9L29.9,59.4L30.4,59.4L30.4,58.9L32.9,58.9L32.9,58.4L33.4,58.4L33.4,57.9L33.9,57.9L33.9,57.4L34.4,57.4z" stroke="none"/><path d="M13.5,28.4L13.5,28.6L9.9,28.6L9.9,28.1L8.9,28.1L8.9,27.6L7.4,27.6L7.4,27.1L6.4,27.1L6.4,26.6L5.9,26.6L5.9,26.1L4.9,26.1L4.9,25.6L3.9,25.6L3.9,25.1L3.4,25.1L3.4,21.9L3.9,21.9L3.9,21.4L5.9,21.4L5.9,20.9L6.9,20.9L6.9,18.4L7.9,18.4L7.9,15.9L8.4,15.9L8.4,14.1L7.4,14.1L7.4,13.5L7.6,13.5L7.6,13.9L8.6,13.9L8.6,16.1L8.1,16.1L8.1,18.6L7.1,18.6L7.1,21.1L6.1,21.1L6.1,21.6L4.1,21.6L4.1,22.1L3.6,22.1L3.6,24.9L4.1,24.9L4.1,25.4L5.1,25.4L5.1,25.9L6.1,25.9L6.1,26.4L6.6,26.4L6.6,26.9L7.6,26.9L7.6,27.4L9.1,27.4L9.1,27.9L10.1,27.9L10.1,28.4z" stroke="none"/><path d="M4.5,3.1L4.5,2.9L4.9,2.9L4.9,2.4L5.4,2.4L5.4,1.9L8.9,1.9L8.9,1.4L15.1,1.4L15.1,2.4L17.1,2.4L17.1,3.9L18.1,3.9L18.1,4.4L18.6,4.4L18.6,5.4L19.1,5.4L19.1,7.9L19.6,7.9L19.6,9L19.4,9L19.4,8.1L18.9,8.1L18.9,5.6L18.4,5.6L18.4,4.6L17.9,4.6L17.9,4.1L16.9,4.1L16.9,2.6L14.9,2.6L14.9,1.6L9.1,1.6L9.1,2.1L5.6,2.1L5.6,2.6L5.1,2.6L5.1,3.1z" stroke="none"/><path d="M63,82.4L63,82.6L55.6,82.6L55.6,83.6L55.1,83.6L55.1,84.1L54.6,84.1L54.6,85.6L54.1,85.6L54.1,87.1L53.6,87.1L53.6,88.1L53.1,88.1L53.1,90.1L52.6,90.1L52.6,90.6L52.1,90.6L52.1,91.1L49.6,91.1L49.6,91.5L49.4,91.5L49.4,90.9L51.9,90.9L51.9,90.4L52.4,90.4L52.4,89.9L52.9,89.9L52.9,87.9L53.4,87.9L53.4,86.9L53.9,86.9L53.9,85.4L54.4,85.4L54.4,83.9L54.9,83.9L54.9,83.4L55.4,83.4L55.4,82.4z" stroke="none"/><path d="M58.5,46.4L58.5,46.6L58.1,46.6L58.1,47.6L57.6,47.6L57.6,49.6L57.1,49.6L57.1,50.6L56.6,50.6L56.6,52.1L56.1,52.1L56.1,55.9L56.6,55.9L56.6,56.4L58.1,56.4L58.1,56.9L59.6,56.9L59.6,57.4L61.1,57.4L61.1,57.9L62.1,57.9L62.1,58.9L63.6,58.9L63.6,59.4L64.6,59.4L64.6,59.9L70.4,59.9L70.4,59.4L70.9,59.4L70.9,58.9L71.4,58.9L71.4,58.4L71.9,58.4L71.9,57.4L72.4,57.4L72.4,56.9L72.9,56.9L72.9,39.1L72.4,39.1L72.4,37.6L72,37.6L72,37.4L72.6,37.4L72.6,38.9L73.1,38.9L73.1,57.1L72.6,57.1L72.6,57.6L72.1,57.6L72.1,58.6L71.6,58.6L71.6,59.1L71.1,59.1L71.1,59.6L70.6,59.6L70.6,60.1L64.4,60.1L64.4,59.6L63.4,59.6L63.4,59.1L61.9,59.1L61.9,58.1L60.9,58.1L60.9,57.6L59.4,57.6L59.4,57.1L57.9,57.1L57.9,56.6L56.4,56.6L56.4,56.1L55.9,56.1L55.9,51.9L56.4,51.9L56.4,50.4L56.9,50.4L56.9,49.4L57.4,49.4L57.4,47.4L57.9,47.4L57.9,46.4z" stroke="none"/><path d="M24,58.6L24,58.4L31.9,58.4L31.9,56.4L33.4,56.4L33.4,55.9L35.1,55.9L35.1,56.4L35.6,56.4L35.6,62.4L36.1,62.4L36.1,63.9L36.6,63.9L36.6,64.4L38.1,64.4L38.1,65.4L38.6,65.4L38.6,65.9L39,65.9L39,66.1L38.4,66.1L38.4,65.6L37.9,65.6L37.9,64.6L36.4,64.6L36.4,64.1L35.9,64.1L35.9,62.6L35.4,62.6L35.4,56.6L34.9,56.6L34.9,56.1L33.6,56.1L33.6,56.6L32.1,56.6L32.1,58.6z" stroke="none"/><path d="M4.5,12.1L4.5,11.9L4.9,11.9L4.9,11.4L5.4,11.4L5.4,10.9L5.9,10.9L5.9,9.9L6.4,9.9L6.4,9.4L6.9,9.4L6.9,8.6L6.4,8.6L6.4,8.1L3.6,8.1L3.6,8.6L2.4,8.6L2.4,8.1L1.9,8.1L1.9,2.9L2.4,2.9L2.4,1.9L2.9,1.9L2.9,1.4L7.9,1.4L7.9,0.9L17.1,0.9L17.1,1.4L17.6,1.4L17.6,2.4L18.1,2.4L18.1,2.9L18.6,2.9L18.6,3.9L19.1,3.9L19.1,4.9L19.6,4.9L19.6,6.9L20.1,6.9L20.1,8.4L21.1,8.4L21.1,9L20.9,9L20.9,8.6L19.9,8.6L19.9,7.1L19.4,7.1L19.4,5.1L18.9,5.1L18.9,4.1L18.4,4.1L18.4,3.1L17.9,3.1L17.9,2.6L17.4,2.6L17.4,1.6L16.9,1.6L16.9,1.1L8.1,1.1L8.1,1.6L3.1,1.6L3.1,2.1L2.6,2.1L2.6,3.1L2.1,3.1L2.1,7.9L2.6,7.9L2.6,8.4L3.4,8.4L3.4,7.9L6.6,7.9L6.6,8.4L7.1,8.4L7.1,9.6L6.6,9.6L6.6,10.1L6.1,10.1L6.1,11.1L5.6,11.1L5.6,11.6L5.1,11.6L5.1,12.1z" stroke="none"/><path d="M42.1,100.5L41.9,100.5L41.9,99.9L42.9,99.9L42.9,96.6L42.4,96.6L42.4,95.1L40.4,95.1L40.4,94.1L39.4,94.1L39.4,93.6L38.4,93.6L38.4,93.1L37.9,93.1L37.9,92.6L37.4,92.6L37.4,91.6L36.9,91.6L36.9,85.9L45.4,85.9L45.4,85.4L50.1,85.4L50.1,85.9L52.1,85.9L52.1,86.4L52.9,86.4L52.9,85.9L53.4,85.9L53.4,82.9L53.9,82.9L53.9,82.4L54.9,82.4L54.9,81.9L62.4,81.9L62.4,81.4L64.1,81.4L64.1,83.6L58.1,83.6L58.1,84.6L57.6,84.6L57.6,85.6L57.1,85.6L57.1,86.6L54.6,86.6L54.6,88.1L54.1,88.1L54.1,88.5L53.9,88.5L53.9,87.9L54.4,87.9L54.4,86.4L56.9,86.4L56.9,85.4L57.4,85.4L57.4,84.4L57.9,84.4L57.9,83.4L63.9,83.4L63.9,81.6L62.6,81.6L62.6,82.1L55.1,82.1L55.1,82.6L54.1,82.6L54.1,83.1L53.6,83.1L53.6,86.1L53.1,86.1L53.1,86.6L51.9,86.6L51.9,86.1L49.9,86.1L49.9,85.6L45.6,85.6L45.6,86.1L37.1,86.1L37.1,91.4L37.6,91.4L37.6,92.4L38.1,92.4L38.1,92.9L38.6,92.9L38.6,93.4L39.6,93.4L39.6,93.9L40.6,93.9L40.6,94.9L42.6,94.9L42.6,96.4L43.1,96.4L43.1,100.1L42.1,100.1z" stroke="none"/><path d="M6.1,91.5L5.9,91.5L5.9,88.1L5.4,88.1L5.4,87.6L4.9,87.6L4.9,87.1L3.9,87.1L3.9,85.1L3.4,85.1L3.4,83.6L2.9,83.6L2.9,82.1L2.4,82.1L2.4,79.6L1.9,79.6L1.9,75.9L2.4,75.9L2.4,75.4L12.6,75.4L12.6,75.9L14.1,75.9L14.1,76.9L14.6,76.9L14.6,77.4L15.6,77.4L15.6,77.9L17.1,77.9L17.1,78.4L17.6,78.4L17.6,78.9L18.1,78.9L18.1,79.4L18.6,79.4L18.6,80.4L19.6,80.4L19.6,81L19.4,81L19.4,80.6L18.4,80.6L18.4,79.6L17.9,79.6L17.9,79.1L17.4,79.1L17.4,78.6L16.9,78.6L16.9,78.1L15.4,78.1L15.4,77.6L14.4,77.6L14.4,77.1L13.9,77.1L13.9,76.1L12.4,76.1L12.4,75.6L2.6,75.6L2.6,76.1L2.1,76.1L2.1,79.4L2.6,79.4L2.6,81.9L3.1,81.9L3.1,83.4L3.6,83.4L3.6,84.9L4.1,84.9L4.1,86.9L5.1,86.9L5.1,87.4L5.6,87.4L5.6,87.9L6.1,87.9z" stroke="none"/><path d="M19.6,91.5L19.4,91.5L19.4,89.6L17.4,89.6L17.4,89.1L15.9,89.1L15.9,88.6L14.4,88.6L14.4,88.1L13.4,88.1L13.4,87.1L12.9,87.1L12.9,86.1L12.4,86.1L12.4,85.6L11.4,85.6L11.4,83.6L10.9,83.6L10.9,82.6L9.4,82.6L9.4,82.1L8.9,82.1L8.9,81.6L5.1,81.6L5.1,82.1L4.6,82.1L4.6,82.5L4.4,82.5L4.4,81.9L4.9,81.9L4.9,81.4L9.1,81.4L9.1,81.9L9.6,81.9L9.6,82.4L11.1,82.4L11.1,83.4L11.6,83.4L11.6,85.4L12.6,85.4L12.6,85.9L13.1,85.9L13.1,86.9L13.6,86.9L13.6,87.9L14.6,87.9L14.6,88.4L16.1,88.4L16.1,88.9L17.6,88.9L17.6,89.4L19.6,89.4z" stroke="none"/><path d="M55.5,100.4L55.5,100.6L54.1,100.6L54.1,101.1L52.1,101.1L52.1,101.6L51.6,101.6L51.6,102.6L49.6,102.6L49.6,103.6L40.4,103.6L40.4,96.1L39.4,96.1L39.4,95.6L38.9,95.6L38.9,94.5L39.1,94.5L39.1,95.4L39.6,95.4L39.6,95.9L40.6,95.9L40.6,103.4L49.4,103.4L49.4,102.4L51.4,102.4L51.4,101.4L51.9,101.4L51.9,100.9L53.9,100.9L53.9,100.4z" stroke="none"/><path d="M84,80.9L84,81.1L77.9,81.1L77.9,80.6L77.4,80.6L77.4,80.1L76.9,80.1L76.9,78.6L76.4,78.6L76.4,76.1L75.9,76.1L75.9,75.6L75.4,75.6L75.4,74.6L74.9,74.6L74.9,71.1L74.4,71.1L74.4,70.6L70.9,70.6L70.9,70.1L69.4,70.1L69.4,69.6L68.9,69.6L68.9,68.1L68.4,68.1L68.4,67.6L67.9,67.6L67.9,66.6L66.9,66.6L66.9,65.6L66.4,65.6L66.4,63.9L66.9,63.9L66.9,63.4L68.1,63.4L68.1,63.9L68.6,63.9L68.6,64.4L69.1,64.4L69.1,64.9L70.6,64.9L70.6,66.4L71.6,66.4L71.6,66.9L72.1,66.9L72.1,67.5L71.9,67.5L71.9,67.1L71.4,67.1L71.4,66.6L70.4,66.6L70.4,65.1L68.9,65.1L68.9,64.6L68.4,64.6L68.4,64.1L67.9,64.1L67.9,63.6L67.1,63.6L67.1,64.1L66.6,64.1L66.6,65.4L67.1,65.4L67.1,66.4L68.1,66.4L68.1,67.4L68.6,67.4L68.6,67.9L69.1,67.9L69.1,69.4L69.6,69.4L69.6,69.9L71.1,69.9L71.1,70.4L74.6,70.4L74.6,70.9L75.1,70.9L75.1,74.4L75.6,74.4L75.6,75.4L76.1,75.4L76.1,75.9L76.6,75.9L76.6,78.4L77.1,78.4L77.1,79.9L77.6,79.9L77.6,80.4L78.1,80.4L78.1,80.9z" stroke="none"/><path d="M88.5,61.6L88.5,61.4L92.4,61.4L92.4,59.9L93.4,59.9L93.4,59.4L93.9,59.4L93.9,58.9L95.6,58.9L95.6,65.6L93.6,65.6L93.6,66.6L92.6,66.6L92.6,68.6L92.1,68.6L92.1,70.6L89.6,70.6L89.6,71.6L88.6,71.6L88.6,72.6L78.6,72.6L78.6,73.1L77.6,73.1L77.6,74.6L76.6,74.6L76.6,75L76.4,75L76.4,74.4L77.4,74.4L77.4,72.9L78.4,72.9L78.4,72.4L88.4,72.4L88.4,71.4L89.4,71.4L89.4,70.4L91.9,70.4L91.9,68.4L92.4,68.4L92.4,66.4L93.4,66.4L93.4,65.4L95.4,65.4L95.4,59.1L94.1,59.1L94.1,59.6L93.6,59.6L93.6,60.1L92.6,60.1L92.6,61.6z" stroke="none"/><path d="M11.9,18L12.1,18L12.1,22.9L12.6,22.9L12.6,23.4L13.6,23.4L13.6,24.4L14.1,24.4L14.1,25.4L16.1,25.4L16.1,25.9L17.1,25.9L17.1,26.4L17.6,26.4L17.6,27.4L18.1,27.4L18.1,32.9L19.1,32.9L19.1,34.4L19.5,34.4L19.5,34.6L18.9,34.6L18.9,33.1L17.9,33.1L17.9,27.6L17.4,27.6L17.4,26.6L16.9,26.6L16.9,26.1L15.9,26.1L15.9,25.6L13.9,25.6L13.9,24.6L13.4,24.6L13.4,23.6L12.4,23.6L12.4,23.1L11.9,23.1z" stroke="none"/><path d="M16.5,94.4L16.5,94.6L10.9,94.6L10.9,94.1L10.4,94.1L10.4,93.6L9.9,93.6L9.9,93.1L3.9,93.1L3.9,90.6L2.6,90.6L2.6,91.1L2.1,91.1L2.1,96.9L3.6,96.9L3.6,97.4L4.6,97.4L4.6,97.9L5.1,97.9L5.1,98.4L6.1,98.4L6.1,99.4L7.6,99.4L7.6,100.4L8.6,100.4L8.6,100.9L11.1,100.9L11.1,101.4L22.6,101.4L22.6,101.9L23.1,101.9L23.1,102.4L24.1,102.4L24.1,102.9L25.6,102.9L25.6,103.4L28.9,103.4L28.9,102.9L29.4,102.9L29.4,102.4L29.9,102.4L29.9,101.9L30.4,101.9L30.4,101.4L31.4,101.4L31.4,83.6L30.4,83.6L30.4,83.1L29.9,83.1L29.9,82.6L29.4,82.6L29.4,82.1L28.4,82.1L28.4,81.6L27.4,81.6L27.4,80.1L26.9,80.1L26.9,79.5L27.1,79.5L27.1,79.9L27.6,79.9L27.6,81.4L28.6,81.4L28.6,81.9L29.6,81.9L29.6,82.4L30.1,82.4L30.1,82.9L30.6,82.9L30.6,83.4L31.6,83.4L31.6,101.6L30.6,101.6L30.6,102.1L30.1,102.1L30.1,102.6L29.6,102.6L29.6,103.1L29.1,103.1L29.1,103.6L25.4,103.6L25.4,103.1L23.9,103.1L23.9,102.6L22.9,102.6L22.9,102.1L22.4,102.1L22.4,101.6L10.9,101.6L10.9,101.1L8.4,101.1L8.4,100.6L7.4,100.6L7.4,99.6L5.9,99.6L5.9,98.6L4.9,98.6L4.9,98.1L4.4,98.1L4.4,97.6L3.4,97.6L3.4,97.1L1.9,97.1L1.9,90.9L2.4,90.9L2.4,90.4L4.1,90.4L4.1,92.9L10.1,92.9L10.1,93.4L10.6,93.4L10.6,93.9L11.1,93.9L11.1,94.4z" stroke="none"/><path d="M10.4,40.5L10.6,40.5L10.6,48.4L11.6,48.4L11.6,49.4L12.1,49.4L12.1,50.4L12.6,50.4L12.6,56.4L20.4,56.4L20.4,55.9L20.9,55.9L20.9,55.5L21.1,55.5L21.1,56.1L20.6,56.1L20.6,56.6L12.4,56.6L12.4,50.6L11.9,50.6L11.9,49.6L11.4,49.6L11.4,48.6L10.4,48.6z" stroke="none"/><path d="M58.5,64.6L58.5,64.4L60.4,64.4L60.4,63.4L60.9,63.4L60.9,62.1L57.6,62.1L57.6,62.6L56.1,62.6L56.1,63.1L55.1,63.1L55.1,64.1L54.6,64.1L54.6,65.1L53.1,65.1L53.1,65.6L52.6,65.6L52.6,66.1L52.1,66.1L52.1,66.6L50.6,66.6L50.6,67.1L49.6,67.1L49.6,67.6L46.6,67.6L46.6,68.1L46.1,68.1L46.1,68.6L45.6,68.6L45.6,70.1L45.1,70.1L45.1,70.6L44.6,70.6L44.6,71.1L44.1,71.1L44.1,72.1L43.6,72.1L43.6,73.1L42.6,73.1L42.6,73.6L42,73.6L42,73.4L42.4,73.4L42.4,72.9L43.4,72.9L43.4,71.9L43.9,71.9L43.9,70.9L44.4,70.9L44.4,70.4L44.9,70.4L44.9,69.9L45.4,69.9L45.4,68.4L45.9,68.4L45.9,67.9L46.4,67.9L46.4,67.4L49.4,67.4L49.4,66.9L50.4,66.9L50.4,66.4L51.9,66.4L51.9,65.9L52.4,65.9L52.4,65.4L52.9,65.4L52.9,64.9L54.4,64.9L54.4,63.9L54.9,63.9L54.9,62.9L55.9,62.9L55.9,62.4L57.4,62.4L57.4,61.9L61.1,61.9L61.1,63.6L60.6,63.6L60.6,64.6z" stroke="none"/><path d="M69.1,34.5L68.9,34.5L68.9,33.9L69.4,33.9L69.4,31.9L71.9,31.9L71.9,31.4L72.4,31.4L72.4,30.4L72.9,30.4L72.9,29.9L73.4,29.9L73.4,29.4L75.9,29.4L75.9,28.9L79.4,28.9L79.4,27.9L80.4,27.9L80.4,27.4L81.9,27.4L81.9,26.9L82.4,26.9L82.4,26.4L84.4,26.4L84.4,25.9L85.4,25.9L85.4,25.5L85.6,25.5L85.6,26.1L84.6,26.1L84.6,26.6L82.6,26.6L82.6,27.1L82.1,27.1L82.1,27.6L80.6,27.6L80.6,28.1L79.6,28.1L79.6,29.1L76.1,29.1L76.1,29.6L73.6,29.6L73.6,30.1L73.1,30.1L73.1,30.6L72.6,30.6L72.6,31.6L72.1,31.6L72.1,32.1L69.6,32.1L69.6,34.1L69.1,34.1z" stroke="none"/><path d="M4.6,22.5L4.4,22.5L4.4,21.9L6.4,21.9L6.4,21.4L7.4,21.4L7.4,20.9L8.4,20.9L8.4,16.4L8.9,16.4L8.9,10.9L9.4,10.9L9.4,9.9L9.9,9.9L9.9,9.4L13.4,9.4L13.4,8.9L14.9,8.9L14.9,8.4L15.4,8.4L15.4,7.9L16.4,7.9L16.4,7.5L16.6,7.5L16.6,8.1L15.6,8.1L15.6,8.6L15.1,8.6L15.1,9.1L13.6,9.1L13.6,9.6L10.1,9.6L10.1,10.1L9.6,10.1L9.6,11.1L9.1,11.1L9.1,16.6L8.6,16.6L8.6,21.1L7.6,21.1L7.6,21.6L6.6,21.6L6.6,22.1L4.6,22.1z" stroke="none"/><path d="M6,87.1L6,86.9L6.6,86.9L6.6,90.9L7.1,90.9L7.1,92.1L6.6,92.1L6.6,92.6L4.9,92.6L4.9,90.6L4.4,90.6L4.4,90.1L2.1,90.1L2.1,90.6L1.6,90.6L1.6,97.9L3.6,97.9L3.6,98.4L4.6,98.4L4.6,98.9L5.1,98.9L5.1,99.9L6.6,99.9L6.6,100.9L8.1,100.9L8.1,101.4L10.6,101.4L10.6,101.9L20.6,101.9L20.6,102.4L22.6,102.4L22.6,103.4L25.1,103.4L25.1,103.9L31.9,103.9L31.9,82.1L30.9,82.1L30.9,81.1L30.4,81.1L30.4,80.6L28.9,80.6L28.9,80.1L28.4,80.1L28.4,79.1L27.9,79.1L27.9,78.6L25.6,78.6L25.6,79.1L24.6,79.1L24.6,79.6L24,79.6L24,79.4L24.4,79.4L24.4,78.9L25.4,78.9L25.4,78.4L28.1,78.4L28.1,78.9L28.6,78.9L28.6,79.9L29.1,79.9L29.1,80.4L30.6,80.4L30.6,80.9L31.1,80.9L31.1,81.9L32.1,81.9L32.1,104.1L24.9,104.1L24.9,103.6L22.4,103.6L22.4,102.6L20.4,102.6L20.4,102.1L10.4,102.1L10.4,101.6L7.9,101.6L7.9,101.1L6.4,101.1L6.4,100.1L4.9,100.1L4.9,99.1L4.4,99.1L4.4,98.6L3.4,98.6L3.4,98.1L1.4,98.1L1.4,90.4L1.9,90.4L1.9,89.9L4.6,89.9L4.6,90.4L5.1,90.4L5.1,92.4L6.4,92.4L6.4,91.9L6.9,91.9L6.9,91.1L6.4,91.1L6.4,87.1z" stroke="none"/><path d="M72,97.4L72,97.6L70.6,97.6L70.6,98.1L69.1,98.1L69.1,98.6L68.6,98.6L68.6,99.1L56.4,99.1L56.4,97.1L55.9,97.1L55.9,96.6L55.1,96.6L55.1,97.1L53.6,97.1L53.6,98.1L52.6,98.1L52.6,99L52.4,99L52.4,97.9L53.4,97.9L53.4,96.9L54.9,96.9L54.9,96.4L56.1,96.4L56.1,96.9L56.6,96.9L56.6,98.9L68.4,98.9L68.4,98.4L68.9,98.4L68.9,97.9L70.4,97.9L70.4,97.4z" stroke="none"/><path d="M4.6,16.5L4.4,16.5L4.4,16.1L3.9,16.1L3.9,14.6L3.4,14.6L3.4,14.1L2.6,14.1L2.6,14.6L2.1,14.6L2.1,25.1L1.6,25.1L1.6,35.9L3.1,35.9L3.1,36.4L4.1,36.4L4.1,36.9L4.9,36.9L4.9,36.4L5.4,36.4L5.4,35.9L6,35.9L6,36.1L5.6,36.1L5.6,36.6L5.1,36.6L5.1,37.1L3.9,37.1L3.9,36.6L2.9,36.6L2.9,36.1L1.4,36.1L1.4,24.9L1.9,24.9L1.9,14.4L2.4,14.4L2.4,13.9L3.6,13.9L3.6,14.4L4.1,14.4L4.1,15.9L4.6,15.9z" stroke="none"/><path d="M45,61.6L45,61.4L59.9,61.4L59.9,60.4L63.6,60.4L63.6,60.9L64.1,60.9L64.1,61.9L64.6,61.9L64.6,63L64.4,63L64.4,62.1L63.9,62.1L63.9,61.1L63.4,61.1L63.4,60.6L60.1,60.6L60.1,61.6z" stroke="none"/><path d="M96,25.6L96,25.4L100.9,25.4L100.9,18.4L101.4,18.4L101.4,17.9L102.9,17.9L102.9,12.9L103.4,12.9L103.4,7.6L102.4,7.6L102.4,7.1L94.9,7.1L94.9,6.1L94.5,6.1L94.5,5.9L95.1,5.9L95.1,6.9L102.6,6.9L102.6,7.4L103.6,7.4L103.6,13.1L103.1,13.1L103.1,18.1L101.6,18.1L101.6,18.6L101.1,18.6L101.1,25.6z" stroke="none"/><path d="M27.1,46.5L26.9,46.5L26.9,44.1L26.4,44.1L26.4,43.6L25.9,43.6L25.9,43.1L25.4,43.1L25.4,41.6L24.9,41.6L24.9,41.1L24.4,41.1L24.4,39.9L24.9,39.9L24.9,39.4L33.9,39.4L33.9,38.9L34.9,38.9L34.9,38.4L35.4,38.4L35.4,37.9L43.6,37.9L43.6,38.4L44.1,38.4L44.1,39.4L44.6,39.4L44.6,39.9L45.1,39.9L45.1,41.4L45.6,41.4L45.6,41.9L46.1,41.9L46.1,43.4L46.5,43.4L46.5,43.6L45.9,43.6L45.9,42.1L45.4,42.1L45.4,41.6L44.9,41.6L44.9,40.1L44.4,40.1L44.4,39.6L43.9,39.6L43.9,38.6L43.4,38.6L43.4,38.1L35.6,38.1L35.6,38.6L35.1,38.6L35.1,39.1L34.1,39.1L34.1,39.6L25.1,39.6L25.1,40.1L24.6,40.1L24.6,40.9L25.1,40.9L25.1,41.4L25.6,41.4L25.6,42.9L26.1,42.9L26.1,43.4L26.6,43.4L26.6,43.9L27.1,43.9z" stroke="none"/><path d="M55.5,13.4L55.5,13.6L54.9,13.6L54.9,13.1L54.4,13.1L54.4,10.6L52.4,10.6L52.4,8.1L51.9,8.1L51.9,7.6L50.9,7.6L50.9,1.4L101.1,1.4L101.1,1.9L101.6,1.9L101.6,3.9L102.6,3.9L102.6,5.9L104.1,5.9L104.1,22.1L103.6,22.1L103.6,24.6L103.1,24.6L103.1,25.1L102.6,25.1L102.6,26.1L97.1,26.1L97.1,26.6L94.4,26.6L94.4,25.6L93.9,25.6L93.9,24.1L91.4,24.1L91.4,21.6L89.9,21.6L89.9,20.6L88.9,20.6L88.9,20.1L87.4,20.1L87.4,19.6L83.9,19.6L83.9,18.6L75.4,18.6L75.4,17.1L74.9,17.1L74.9,16.5L75.1,16.5L75.1,16.9L75.6,16.9L75.6,18.4L84.1,18.4L84.1,19.4L87.6,19.4L87.6,19.9L89.1,19.9L89.1,20.4L90.1,20.4L90.1,21.4L91.6,21.4L91.6,23.9L94.1,23.9L94.1,25.4L94.6,25.4L94.6,26.4L96.9,26.4L96.9,25.9L102.4,25.9L102.4,24.9L102.9,24.9L102.9,24.4L103.4,24.4L103.4,21.9L103.9,21.9L103.9,6.1L102.4,6.1L102.4,4.1L101.4,4.1L101.4,2.1L100.9,2.1L100.9,1.6L51.1,1.6L51.1,7.4L52.1,7.4L52.1,7.9L52.6,7.9L52.6,10.4L54.6,10.4L54.6,12.9L55.1,12.9L55.1,13.4z" stroke="none"/><path d="M48.1,51L47.9,51L47.9,48.1L47.4,48.1L47.4,47.1L46.9,47.1L46.9,45.9L47.4,45.9L47.4,38.4L49.9,38.4L49.9,37.9L53.4,37.9L53.4,37.4L53.9,37.4L53.9,36.9L54.4,36.9L54.4,36.4L54.9,36.4L54.9,34.1L54.4,34.1L54.4,33.1L53.9,33.1L53.9,32.1L52.4,32.1L52.4,31.5L52.6,31.5L52.6,31.9L54.1,31.9L54.1,32.9L54.6,32.9L54.6,33.9L55.1,33.9L55.1,36.6L54.6,36.6L54.6,37.1L54.1,37.1L54.1,37.6L53.6,37.6L53.6,38.1L50.1,38.1L50.1,38.6L47.6,38.6L47.6,46.1L47.1,46.1L47.1,46.9L47.6,46.9L47.6,47.9L48.1,47.9z" stroke="none"/><path d="M25.5,25.6L25.5,25.4L32.1,25.4L32.1,26.4L32.6,26.4L32.6,26.9L34.6,26.9L34.6,27.4L36.1,27.4L36.1,27.9L37.1,27.9L37.1,28.4L38.1,28.4L38.1,32.4L38.6,32.4L38.6,33.6L38.1,33.6L38.1,34.1L36.4,34.1L36.4,33.6L34.1,33.6L34.1,34.1L32.6,34.1L32.6,34.6L28.1,34.6L28.1,35.1L26.1,35.1L26.1,39.1L24.6,39.1L24.6,39.6L24.1,39.6L24.1,42.6L23.6,42.6L23.6,43.1L23.1,43.1L23.1,44.1L22.6,44.1L22.6,44.6L22.1,44.6L22.1,45.6L18.6,45.6L18.6,46.1L17.4,46.1L17.4,45.6L16.9,45.6L16.9,44.1L16.4,44.1L16.4,43.5L16.6,43.5L16.6,43.9L17.1,43.9L17.1,45.4L17.6,45.4L17.6,45.9L18.4,45.9L18.4,45.4L21.9,45.4L21.9,44.4L22.4,44.4L22.4,43.9L22.9,43.9L22.9,42.9L23.4,42.9L23.4,42.4L23.9,42.4L23.9,39.4L24.4,39.4L24.4,38.9L25.9,38.9L25.9,34.9L27.9,34.9L27.9,34.4L32.4,34.4L32.4,33.9L33.9,33.9L33.9,33.4L36.6,33.4L36.6,33.9L37.9,33.9L37.9,33.4L38.4,33.4L38.4,32.6L37.9,32.6L37.9,28.6L36.9,28.6L36.9,28.1L35.9,28.1L35.9,27.6L34.4,27.6L34.4,27.1L32.4,27.1L32.4,26.6L31.9,26.6L31.9,25.6z" stroke="none"/><path d="M33,6.1L33,5.9L39.1,5.9L39.1,6.4L39.6,6.4L39.6,6.9L40.1,6.9L40.1,7.9L41.6,7.9L41.6,9.4L42.1,9.4L42.1,9.9L42.6,9.9L42.6,10.9L43.1,10.9L43.1,11.4L45.1,11.4L45.1,12.4L45.6,12.4L45.6,12.9L46.1,12.9L46.1,13.9L46.6,13.9L46.6,16.9L47.6,16.9L47.6,19.4L48,19.4L48,19.6L47.4,19.6L47.4,17.1L46.4,17.1L46.4,14.1L45.9,14.1L45.9,13.1L45.4,13.1L45.4,12.6L44.9,12.6L44.9,11.6L42.9,11.6L42.9,11.1L42.4,11.1L42.4,10.1L41.9,10.1L41.9,9.6L41.4,9.6L41.4,8.1L39.9,8.1L39.9,7.1L39.4,7.1L39.4,6.6L38.9,6.6L38.9,6.1z" stroke="none"/><path d="M61.5,76.6L61.5,76.4L63.1,76.4L63.1,76.9L64.1,76.9L64.1,77.4L64.9,77.4L64.9,76.9L65.9,76.9L65.9,76.4L66.4,76.4L66.4,75.9L71.6,75.9L71.6,76.4L72.1,76.4L72.1,76.9L73.1,76.9L73.1,79.9L73.6,79.9L73.6,93L73.4,93L73.4,80.1L72.9,80.1L72.9,77.1L71.9,77.1L71.9,76.6L71.4,76.6L71.4,76.1L66.6,76.1L66.6,76.6L66.1,76.6L66.1,77.1L65.1,77.1L65.1,77.6L63.9,77.6L63.9,77.1L62.9,77.1L62.9,76.6z" stroke="none"/><path d="M93,69.1L93,68.9L97.1,68.9L97.1,69.4L97.6,69.4L97.6,69.9L98.1,69.9L98.1,70.9L98.6,70.9L98.6,71.4L99.1,71.4L99.1,71.9L100.6,71.9L100.6,72.4L101.1,72.4L101.1,72.9L101.6,72.9L101.6,74.4L102.6,74.4L102.6,75.9L103.1,75.9L103.1,76.9L103.6,76.9L103.6,88.1L101.6,88.1L101.6,88.6L100.5,88.6L100.5,88.4L101.4,88.4L101.4,87.9L103.4,87.9L103.4,77.1L102.9,77.1L102.9,76.1L102.4,76.1L102.4,74.6L101.4,74.6L101.4,73.1L100.9,73.1L100.9,72.6L100.4,72.6L100.4,72.1L98.9,72.1L98.9,71.6L98.4,71.6L98.4,71.1L97.9,71.1L97.9,70.1L97.4,70.1L97.4,69.6L96.9,69.6L96.9,69.1z" stroke="none"/><path d="M61.5,4.6L61.5,4.4L69.6,4.4L69.6,4.9L70.1,4.9L70.1,5.4L70.6,5.4L70.6,5.9L71.1,5.9L71.1,6.4L71.6,6.4L71.6,6.9L72.1,6.9L72.1,7.4L72.6,7.4L72.6,7.9L73.1,7.9L73.1,8.4L73.6,8.4L73.6,11.6L73.1,11.6L73.1,12.1L72.1,12.1L72.1,12.6L71.6,12.6L71.6,13.1L71.1,13.1L71.1,14.1L70.6,14.1L70.6,18.4L71.1,18.4L71.1,18.9L71.6,18.9L71.6,19.4L72.1,19.4L72.1,19.9L73.1,19.9L73.1,21.4L73.6,21.4L73.6,22.4L75,22.4L75,22.6L73.4,22.6L73.4,21.6L72.9,21.6L72.9,20.1L71.9,20.1L71.9,19.6L71.4,19.6L71.4,19.1L70.9,19.1L70.9,18.6L70.4,18.6L70.4,13.9L70.9,13.9L70.9,12.9L71.4,12.9L71.4,12.4L71.9,12.4L71.9,11.9L72.9,11.9L72.9,11.4L73.4,11.4L73.4,8.6L72.9,8.6L72.9,8.1L72.4,8.1L72.4,7.6L71.9,7.6L71.9,7.1L71.4,7.1L71.4,6.6L70.9,6.6L70.9,6.1L70.4,6.1L70.4,5.6L69.9,5.6L69.9,5.1L69.4,5.1L69.4,4.6z" stroke="none"/><path d="M93,57.1L93,56.9L95.1,56.9L95.1,57.9L95.6,57.9L95.6,58.4L96.1,58.4L96.1,65.4L97.6,65.4L97.6,67.4L99.1,67.4L99.1,67.9L100.1,67.9L100.1,69.4L100.6,69.4L100.6,69.9L101.1,69.9L101.1,71.9L101.6,71.9L101.6,72.4L102.1,72.4L102.1,73.4L102.6,73.4L102.6,73.9L103.1,73.9L103.1,74.9L103.6,74.9L103.6,76.4L104.1,76.4L104.1,98.1L102.6,98.1L102.6,99.6L102.1,99.6L102.1,102.1L101.6,102.1L101.6,102.6L101.1,102.6L101.1,103.1L100.6,103.1L100.6,103.6L79.9,103.6L79.9,103.1L76.9,103.1L76.9,102.6L76.4,102.6L76.4,101.6L75.9,101.6L75.9,100.6L75.4,100.6L75.4,88.1L74.9,88.1L74.9,85.1L73.9,85.1L73.9,78.6L73.4,78.6L73.4,76.1L71.9,76.1L71.9,75.6L70.4,75.6L70.4,71.6L68.9,71.6L68.9,70.1L68.4,70.1L68.4,69.1L67.4,69.1L67.4,68.6L66.9,68.6L66.9,68.1L66.4,68.1L66.4,66.1L65.9,66.1L65.9,62.9L71.1,62.9L71.1,63.9L72.6,63.9L72.6,64.4L73.1,64.4L73.1,64.9L73.6,64.9L73.6,69L73.4,69L73.4,65.1L72.9,65.1L72.9,64.6L72.4,64.6L72.4,64.1L70.9,64.1L70.9,63.1L66.1,63.1L66.1,65.9L66.6,65.9L66.6,67.9L67.1,67.9L67.1,68.4L67.6,68.4L67.6,68.9L68.6,68.9L68.6,69.9L69.1,69.9L69.1,71.4L70.6,71.4L70.6,75.4L72.1,75.4L72.1,75.9L73.6,75.9L73.6,78.4L74.1,78.4L74.1,84.9L75.1,84.9L75.1,87.9L75.6,87.9L75.6,100.4L76.1,100.4L76.1,101.4L76.6,101.4L76.6,102.4L77.1,102.4L77.1,102.9L80.1,102.9L80.1,103.4L100.4,103.4L100.4,102.9L100.9,102.9L100.9,102.4L101.4,102.4L101.4,101.9L101.9,101.9L101.9,99.4L102.4,99.4L102.4,97.9L103.9,97.9L103.9,76.6L103.4,76.6L103.4,75.1L102.9,75.1L102.9,74.1L102.4,74.1L102.4,73.6L101.9,73.6L101.9,72.6L101.4,72.6L101.4,72.1L100.9,72.1L100.9,70.1L100.4,70.1L100.4,69.6L99.9,69.6L99.9,68.1L98.9,68.1L98.9,67.6L97.4,67.6L97.4,65.6L95.9,65.6L95.9,58.6L95.4,58.6L95.4,58.1L94.9,58.1L94.9,57.1z" stroke="none"/><path d="M61.5,19.4L61.5,19.6L54.9,19.6L54.9,18.6L53.9,18.6L53.9,18.1L52.9,18.1L52.9,16.6L51.4,16.6L51.4,16.1L49.9,16.1L49.9,15.6L48.4,15.6L48.4,14.1L47.4,14.1L47.4,13.6L46.9,13.6L46.9,12.6L45.9,12.6L45.9,11.6L45.4,11.6L45.4,11.1L43.9,11.1L43.9,10.6L43.4,10.6L43.4,8.6L41.9,8.6L41.9,7.5L42.1,7.5L42.1,8.4L43.6,8.4L43.6,10.4L44.1,10.4L44.1,10.9L45.6,10.9L45.6,11.4L46.1,11.4L46.1,12.4L47.1,12.4L47.1,13.4L47.6,13.4L47.6,13.9L48.6,13.9L48.6,15.4L50.1,15.4L50.1,15.9L51.6,15.9L51.6,16.4L53.1,16.4L53.1,17.9L54.1,17.9L54.1,18.4L55.1,18.4L55.1,19.4z" stroke="none"/><path d="M47.9,72L48.1,72L48.1,74.6L47.1,74.6L47.1,76.1L46.1,76.1L46.1,76.6L45.1,76.6L45.1,77.1L44.6,77.1L44.6,77.6L44.1,77.6L44.1,79.6L43.6,79.6L43.6,81.1L41.6,81.1L41.6,83.1L41.1,83.1L41.1,83.6L40.6,83.6L40.6,84.6L38.1,84.6L38.1,85.1L36.6,85.1L36.6,97.6L35.1,97.6L35.1,98.6L34.6,98.6L34.6,99.1L34.1,99.1L34.1,101.1L33.6,101.1L33.6,103.6L33.1,103.6L33.1,104.6L5.4,104.6L5.4,104.1L4.9,104.1L4.9,103.1L4.4,103.1L4.4,101.1L3.4,101.1L3.4,100.6L2.4,100.6L2.4,98.6L0.9,98.6L0.9,48.9L1.4,48.9L1.4,48.4L1.9,48.4L1.9,47.9L2.4,47.9L2.4,46.9L3.9,46.9L3.9,45.9L4.4,45.9L4.4,44.9L5.4,44.9L5.4,43.9L5.9,43.9L5.9,43.4L6.4,43.4L6.4,42.9L7.4,42.9L7.4,42.4L7.9,42.4L7.9,40.9L8.9,40.9L8.9,39.9L9.9,39.9L9.9,39.4L11.6,39.4L11.6,42.6L11.1,42.6L11.1,43.9L11.6,43.9L11.6,44.4L15.1,44.4L15.1,44.9L15.6,44.9L15.6,45.4L16.6,45.4L16.6,46.4L25.6,46.4L25.6,46.9L26.6,46.9L26.6,47.4L31.1,47.4L31.1,47.9L31.6,47.9L31.6,48.4L32.1,48.4L32.1,48.9L32.6,48.9L32.6,50.4L33.1,50.4L33.1,50.9L34.1,50.9L34.1,52.4L34.5,52.4L34.5,52.6L33.9,52.6L33.9,51.1L32.9,51.1L32.9,50.6L32.4,50.6L32.4,49.1L31.9,49.1L31.9,48.6L31.4,48.6L31.4,48.1L30.9,48.1L30.9,47.6L26.4,47.6L26.4,47.1L25.4,47.1L25.4,46.6L16.4,46.6L16.4,45.6L15.4,45.6L15.4,45.1L14.9,45.1L14.9,44.6L11.4,44.6L11.4,44.1L10.9,44.1L10.9,42.4L11.4,42.4L11.4,39.6L10.1,39.6L10.1,40.1L9.1,40.1L9.1,41.1L8.1,41.1L8.1,42.6L7.6,42.6L7.6,43.1L6.6,43.1L6.6,43.6L6.1,43.6L6.1,44.1L5.6,44.1L5.6,45.1L4.6,45.1L4.6,46.1L4.1,46.1L4.1,47.1L2.6,47.1L2.6,48.1L2.1,48.1L2.1,48.6L1.6,48.6L1.6,49.1L1.1,49.1L1.1,98.4L2.6,98.4L2.6,100.4L3.6,100.4L3.6,100.9L4.6,100.9L4.6,102.9L5.1,102.9L5.1,103.9L5.6,103.9L5.6,104.4L32.9,104.4L32.9,103.4L33.4,103.4L33.4,100.9L33.9,100.9L33.9,98.9L34.4,98.9L34.4,98.4L34.9,98.4L34.9,97.4L36.4,97.4L36.4,84.9L37.9,84.9L37.9,84.4L40.4,84.4L40.4,83.4L40.9,83.4L40.9,82.9L41.4,82.9L41.4,80.9L43.4,80.9L43.4,79.4L43.9,79.4L43.9,77.4L44.4,77.4L44.4,76.9L44.9,76.9L44.9,76.4L45.9,76.4L45.9,75.9L46.9,75.9L46.9,74.4L47.9,74.4z" stroke="none"/><path d="M44.9,43.5L45.1,43.5L45.1,49.9L45.6,49.9L45.6,51.9L53.1,51.9L53.1,52.4L53.6,52.4L53.6,53.9L54.1,53.9L54.1,54.9L54.6,54.9L54.6,55.9L55.6,55.9L55.6,56.4L56.1,56.4L56.1,56.9L57.1,56.9L57.1,57.4L58.6,57.4L58.6,57.9L60.1,57.9L60.1,58.4L61.6,58.4L61.6,59.9L64.1,59.9L64.1,60.4L70.9,60.4L70.9,59.9L71.4,59.9L71.4,59.4L72.9,59.4L72.9,57.9L73.4,57.9L73.4,37.1L72.4,37.1L72.4,36.6L71.4,36.6L71.4,36.1L69.9,36.1L69.9,35.6L68.4,35.6L68.4,35.1L67.9,35.1L67.9,29.6L66.9,29.6L66.9,28.6L64.5,28.6L64.5,28.4L67.1,28.4L67.1,29.4L68.1,29.4L68.1,34.9L68.6,34.9L68.6,35.4L70.1,35.4L70.1,35.9L71.6,35.9L71.6,36.4L72.6,36.4L72.6,36.9L73.6,36.9L73.6,58.1L73.1,58.1L73.1,59.6L71.6,59.6L71.6,60.1L71.1,60.1L71.1,60.6L63.9,60.6L63.9,60.1L61.4,60.1L61.4,58.6L59.9,58.6L59.9,58.1L58.4,58.1L58.4,57.6L56.9,57.6L56.9,57.1L55.9,57.1L55.9,56.6L55.4,56.6L55.4,56.1L54.4,56.1L54.4,55.1L53.9,55.1L53.9,54.1L53.4,54.1L53.4,52.6L52.9,52.6L52.9,52.1L45.4,52.1L45.4,50.1L44.9,50.1z" stroke="none"/><path d="M49.4,4.5L49.6,4.5L49.6,13.9L50.1,13.9L50.1,14.4L53.1,14.4L53.1,14.9L63.6,14.9L63.6,15.9L66.1,15.9L66.1,19.9L66.6,19.9L66.6,20.4L68.6,20.4L68.6,20.9L69.6,20.9L69.6,21.9L70.1,21.9L70.1,23.6L68.4,23.6L68.4,23.1L67.9,23.1L67.9,22.6L67.5,22.6L67.5,22.4L68.1,22.4L68.1,22.9L68.6,22.9L68.6,23.4L69.9,23.4L69.9,22.1L69.4,22.1L69.4,21.1L68.4,21.1L68.4,20.6L66.4,20.6L66.4,20.1L65.9,20.1L65.9,16.1L63.4,16.1L63.4,15.1L52.9,15.1L52.9,14.6L49.9,14.6L49.9,14.1L49.4,14.1z" stroke="none"/><path d="M39.1,70.5L38.9,70.5L38.9,67.4L39.4,67.4L39.4,66.4L39.9,66.4L39.9,60.1L38.4,60.1L38.4,59.1L37.9,59.1L37.9,58.6L36.9,58.6L36.9,58.1L36.4,58.1L36.4,57.6L35.9,57.6L35.9,56.1L35.4,56.1L35.4,55.6L30.1,55.6L30.1,56.6L29.1,56.6L29.1,57.6L28.6,57.6L28.6,58.1L24.9,58.1L24.9,57.6L24.4,57.6L24.4,57.1L23.9,57.1L23.9,55.6L23.4,55.6L23.4,55.1L22.9,55.1L22.9,54.6L20.9,54.6L20.9,54.1L20.4,54.1L20.4,53.6L19.4,53.6L19.4,52.5L19.6,52.5L19.6,53.4L20.6,53.4L20.6,53.9L21.1,53.9L21.1,54.4L23.1,54.4L23.1,54.9L23.6,54.9L23.6,55.4L24.1,55.4L24.1,56.9L24.6,56.9L24.6,57.4L25.1,57.4L25.1,57.9L28.4,57.9L28.4,57.4L28.9,57.4L28.9,56.4L29.9,56.4L29.9,55.4L35.6,55.4L35.6,55.9L36.1,55.9L36.1,57.4L36.6,57.4L36.6,57.9L37.1,57.9L37.1,58.4L38.1,58.4L38.1,58.9L38.6,58.9L38.6,59.9L40.1,59.9L40.1,66.6L39.6,66.6L39.6,67.6L39.1,67.6z" stroke="none"/></svg>