<svg version="1.1" width="105" height="105" xmlns="http://www.w3.org/2000/svg"><path d="M52.9,10.4L52.9,9.9L53.4,9.9L53.4,8.9L54,8.9L54,9.1L53.6,9.1L53.6,10.1L53.1,10.1L53.1,10.4L54.4,10.4L54.4,8.9L54.9,8.9L54.9,8.4L55.9,8.4L55.9,7.4L56.4,7.4L56.4,6.4L58.9,6.4L58.9,5.4L59.4,5.4L59.4,4.4L60,4.4L60,4.6L59.6,4.6L59.6,5.6L59.1,5.6L59.1,6.6L56.6,6.6L56.6,7.6L56.1,7.6L56.1,8.6L55.1,8.6L55.1,9.1L54.6,9.1L54.6,10.6L52.4,10.6L52.4,8.1L51.9,8.1L51.9,6.6L50.6,6.6L50.6,7.1L50.1,7.1L50.1,11.1L49.6,11.1L49.6,12.1L49.1,12.1L49.1,12.6L48.6,12.6L48.6,13.1L48.1,13.1L48.1,13.6L47.1,13.6L47.1,15.1L46.6,15.1L46.6,16.1L46.1,16.1L46.1,16.6L45.6,16.6L45.6,17.6L45.1,17.6L45.1,18L44.9,18L44.9,17.4L45.4,17.4L45.4,16.4L45.9,16.4L45.9,15.9L46.4,15.9L46.4,14.9L46.9,14.9L46.9,13.4L47.9,13.4L47.9,12.9L48.4,12.9L48.4,12.4L48.9,12.4L48.9,11.9L49.4,11.9L49.4,10.9L49.9,10.9L49.9,6.9L50.4,6.9L50.4,6.4L52.1,6.4L52.1,7.9L52.6,7.9L52.6,10.4z" stroke="none"/><path d="M6.9,81.4L6.9,80.9L7.4,80.9L7.4,79.9L7.9,79.9L7.9,79.4L8.4,79.4L8.4,75.4L8.9,75.4L8.9,75L9.1,75L9.1,75.6L8.6,75.6L8.6,79.6L8.1,79.6L8.1,80.1L7.6,80.1L7.6,81.1L7.1,81.1L7.1,81.6L6.1,81.6L6.1,84L5.9,84L5.9,81.6L5.6,81.6L5.6,82.1L5.1,82.1L5.1,82.6L3.6,82.6L3.6,83.6L3.1,83.6L3.1,85.5L2.9,85.5L2.9,83.4L3.4,83.4L3.4,82.4L4.9,82.4L4.9,81.9L5.4,81.9L5.4,81.4z" stroke="none"/><path d="M52.4,53.4L52.4,51.9L52.9,51.9L52.9,48.9L53.9,48.9L53.9,48.4L54.4,48.4L54.4,47.4L54.9,47.4L54.9,46.9L55.4,46.9L55.4,46.4L56.4,46.4L56.4,45.9L56.9,45.9L56.9,45.4L57.4,45.4L57.4,44.9L58.5,44.9L58.5,45.1L57.6,45.1L57.6,45.6L57.1,45.6L57.1,46.1L56.6,46.1L56.6,46.6L55.6,46.6L55.6,47.1L55.1,47.1L55.1,47.6L54.6,47.6L54.6,48.6L54.1,48.6L54.1,49.1L53.1,49.1L53.1,52.1L52.6,52.1L52.6,57L52.4,57L52.4,53.6L52.1,53.6L52.1,54.1L51.6,54.1L51.6,55.6L50.6,55.6L50.6,56.6L50.1,56.6L50.1,57.1L48.6,57.1L48.6,57.6L47.6,57.6L47.6,58.1L47.1,58.1L47.1,58.6L46.5,58.6L46.5,58.4L46.9,58.4L46.9,57.9L47.4,57.9L47.4,57.4L48.4,57.4L48.4,56.9L49.9,56.9L49.9,56.4L50.4,56.4L50.4,55.4L51.4,55.4L51.4,53.9L51.9,53.9L51.9,53.4z" stroke="none"/><path d="M86.9,27.4L86.9,24L87.1,24L87.1,28.1L85.9,28.1L85.9,27.1L85.4,27.1L85.4,26.6L84.4,26.6L84.4,26.1L83.6,26.1L83.6,26.6L83.1,26.6L83.1,37.6L82.6,37.6L82.6,38.1L82.1,38.1L82.1,38.6L80.1,38.6L80.1,39.1L79.5,39.1L79.5,38.9L79.9,38.9L79.9,38.4L81.9,38.4L81.9,37.9L82.4,37.9L82.4,37.4L82.9,37.4L82.9,26.4L83.4,26.4L83.4,25.9L84.6,25.9L84.6,26.4L85.6,26.4L85.6,26.9L86.1,26.9L86.1,27.9L86.9,27.9L86.9,27.6L86.4,27.6L86.4,22.4L86.9,22.4L86.9,21.4L87.4,21.4L87.4,20.4L87.9,20.4L87.9,19.9L90.6,19.9L90.6,20.4L93.9,20.4L93.9,19.4L94.5,19.4L94.5,19.6L94.1,19.6L94.1,20.6L90.4,20.6L90.4,20.1L88.1,20.1L88.1,20.6L87.6,20.6L87.6,21.6L87.1,21.6L87.1,22.6L86.6,22.6L86.6,27.4z" stroke="none"/><path d="M88.9,101.4L88.9,100.9L89.4,100.9L89.4,100.4L90,100.4L90,100.6L89.6,100.6L89.6,101.1L89.1,101.1L89.1,101.6L81.6,101.6L81.6,102.1L79.1,102.1L79.1,102.6L76.9,102.6L76.9,102.1L76.5,102.1L76.5,101.9L77.1,101.9L77.1,102.4L78.9,102.4L78.9,101.9L81.4,101.9L81.4,101.6L78.6,101.6L78.6,102.1L78,102.1L78,101.9L78.4,101.9L78.4,101.4z" stroke="none"/><path d="M38.9,4.4L38.9,3.9L39.9,3.9L39.9,3.4L40.4,3.4L40.4,3L40.6,3L40.6,3.6L40.1,3.6L40.1,4.1L39.1,4.1L39.1,4.6L32.1,4.6L32.1,4.9L32.6,4.9L32.6,5.9L33.1,5.9L33.1,6.4L33.6,6.4L33.6,6.9L34.6,6.9L34.6,7.5L34.4,7.5L34.4,7.1L33.4,7.1L33.4,6.6L32.9,6.6L32.9,6.1L32.4,6.1L32.4,5.1L31.9,5.1L31.9,4.6L21.9,4.6L21.9,3.6L21.4,3.6L21.4,3.1L21,3.1L21,2.9L21.6,2.9L21.6,3.4L22.1,3.4L22.1,4.4z" stroke="none"/><path d="M86.9,29.1L85.4,29.1L85.4,28.1L84.9,28.1L84.9,27.1L84,27.1L84,26.9L85.1,26.9L85.1,27.9L85.6,27.9L85.6,28.9L87.1,28.9L87.1,29.4L87.4,29.4L87.4,25.4L87.9,25.4L87.9,24.4L88.4,24.4L88.4,21L88.6,21L88.6,24.6L88.1,24.6L88.1,25.6L87.6,25.6L87.6,29.6L87.1,29.6L87.1,40.4L88.5,40.4L88.5,40.6L86.9,40.6z" stroke="none"/><path d="M52.5,62.9L52.5,63.1L48.1,63.1L48.1,65.4L48.6,65.4L48.6,66.9L49.1,66.9L49.1,68.6L48.6,68.6L48.6,69.1L48,69.1L48,68.9L48.4,68.9L48.4,68.4L48.9,68.4L48.9,67.1L48.4,67.1L48.4,65.6L47.9,65.6L47.9,63.1L46.4,63.1L46.4,62.6L45.9,62.6L45.9,62.1L45.4,62.1L45.4,61.6L44.9,61.6L44.9,61.1L43.4,61.1L43.4,57L43.6,57L43.6,60.9L45.1,60.9L45.1,61.4L45.6,61.4L45.6,61.9L46.1,61.9L46.1,62.4L46.6,62.4L46.6,62.9z" stroke="none"/><path d="M54.4,29.9L54.4,29.4L54.9,29.4L54.9,28.4L55.4,28.4L55.4,26.9L55.9,26.9L55.9,26.4L56.4,26.4L56.4,24.4L56.9,24.4L56.9,21.4L57.4,21.4L57.4,20.9L57.9,20.9L57.9,20.4L59.4,20.4L59.4,19.4L59.9,19.4L59.9,18L60.1,18L60.1,19.6L59.6,19.6L59.6,20.6L58.1,20.6L58.1,21.1L57.6,21.1L57.6,21.6L57.1,21.6L57.1,24.6L56.6,24.6L56.6,26.6L56.1,26.6L56.1,27.1L55.6,27.1L55.6,28.6L55.1,28.6L55.1,29.6L54.6,29.6L54.6,30.1L53.1,30.1L53.1,34.1L51.1,34.1L51.1,34.5L50.9,34.5L50.9,33.9L52.9,33.9L52.9,30.1L52.6,30.1L52.6,33.1L51.6,33.1L51.6,33.6L50.6,33.6L50.6,36.1L49.6,36.1L49.6,36.6L49.1,36.6L49.1,37.1L48.1,37.1L48.1,37.5L47.9,37.5L47.9,36.9L48.9,36.9L48.9,36.4L49.4,36.4L49.4,35.9L50.4,35.9L50.4,33.4L51.4,33.4L51.4,32.9L52.4,32.9L52.4,29.9z" stroke="none"/><path d="M42.4,24.9L42.4,23.4L42.9,23.4L42.9,22.9L44.9,22.9L44.9,22.4L45.9,22.4L45.9,21.4L46.4,21.4L46.4,21L46.6,21L46.6,21.6L46.1,21.6L46.1,22.6L45.1,22.6L45.1,23.1L43.1,23.1L43.1,23.6L42.6,23.6L42.6,28.4L43.6,28.4L43.6,28.9L45.1,28.9L45.1,30L44.9,30L44.9,29.1L43.4,29.1L43.4,28.6L42.4,28.6L42.4,25.1L40.4,25.1L40.4,24.6L39.4,24.6L39.4,24.1L38.9,24.1L38.9,23.6L37.9,23.6L37.9,22.6L37.5,22.6L37.5,22.4L38.1,22.4L38.1,23.4L39.1,23.4L39.1,23.9L39.6,23.9L39.6,24.4L40.6,24.4L40.6,24.9z" stroke="none"/><path d="M58.4,25.4L58.9,25.4L58.9,24.4L59.4,24.4L59.4,21.9L59.9,21.9L59.9,21L60.1,21L60.1,22.1L59.6,22.1L59.6,24.6L59.1,24.6L59.1,25.6L58.6,25.6L58.6,26.4L58.9,26.4L58.9,25.9L59.4,25.9L59.4,24.9L59.9,24.9L59.9,23.4L60.4,23.4L60.4,21.9L60.9,21.9L60.9,20.9L61.4,20.9L61.4,19.5L61.6,19.5L61.6,21.1L61.1,21.1L61.1,22.1L60.6,22.1L60.6,23.6L60.1,23.6L60.1,25.1L59.6,25.1L59.6,26.1L59.1,26.1L59.1,26.6L58.6,26.6L58.6,31.6L58.1,31.6L58.1,32.1L57.1,32.1L57.1,33.6L56.6,33.6L56.6,34.6L56.1,34.6L56.1,35.1L55.1,35.1L55.1,36.1L54.6,36.1L54.6,36.6L53.6,36.6L53.6,38.1L53.1,38.1L53.1,38.6L52.6,38.6L52.6,39L52.4,39L52.4,38.4L52.9,38.4L52.9,37.9L53.4,37.9L53.4,36.4L54.4,36.4L54.4,35.9L54.9,35.9L54.9,34.9L55.9,34.9L55.9,34.4L56.4,34.4L56.4,33.4L56.9,33.4L56.9,31.9L57.9,31.9L57.9,31.4L58.4,31.4z" stroke="none"/><path d="M56.9,94.4L56.9,93.9L58.9,93.9L58.9,93.4L60.4,93.4L60.4,92.4L60.9,92.4L60.9,91.4L61.5,91.4L61.5,91.6L61.1,91.6L61.1,92.6L60.6,92.6L60.6,93.6L59.1,93.6L59.1,94.1L57.1,94.1L57.1,94.6L56.6,94.6L56.6,94.9L59.1,94.9L59.1,95.9L59.6,95.9L59.6,96.4L60.1,96.4L60.1,96.9L60.6,96.9L60.6,98.4L61.1,98.4L61.1,98.9L61.6,98.9L61.6,100.5L61.4,100.5L61.4,99.1L60.9,99.1L60.9,98.6L60.4,98.6L60.4,97.1L59.9,97.1L59.9,96.6L59.4,96.6L59.4,96.1L58.9,96.1L58.9,95.1L56.4,95.1L56.4,94.6L48.9,94.6L48.9,93.6L48.4,93.6L48.4,92.6L46.9,92.6L46.9,91.6L46.5,91.6L46.5,91.4L47.1,91.4L47.1,92.4L48.6,92.4L48.6,93.4L49.1,93.4L49.1,94.4z" stroke="none"/><path d="M62.9,55.9L62.9,54.1L60.9,54.1L60.9,53.6L59.4,53.6L59.4,51.6L58.4,51.6L58.4,51.1L56.9,51.1L56.9,48.6L56.4,48.6L56.4,48.1L55.5,48.1L55.5,47.9L56.6,47.9L56.6,48.4L57.1,48.4L57.1,50.9L58.6,50.9L58.6,51.4L59.6,51.4L59.6,53.4L61.1,53.4L61.1,53.9L63.1,53.9L63.1,55.9L68.6,55.9L68.6,56.4L69.1,56.4L69.1,58.9L69.6,58.9L69.6,59.4L70.1,59.4L70.1,65.4L71.6,65.4L71.6,65.9L72,65.9L72,66.1L71.4,66.1L71.4,65.6L69.9,65.6L69.9,59.6L69.4,59.6L69.4,59.1L68.9,59.1L68.9,56.6L68.4,56.6L68.4,56.1L62.4,56.1L62.4,54.6L57.9,54.6L57.9,54.1L57,54.1L57,53.9L58.1,53.9L58.1,54.4L62.6,54.4L62.6,55.9z" stroke="none"/><path d="M62.1,41.9L62.1,43.4L64.5,43.4L64.5,43.6L61.9,43.6L61.9,42.1L58.1,42.1L58.1,42.4L59.1,42.4L59.1,42.9L59.6,42.9L59.6,46.4L60.6,46.4L60.6,46.9L61.6,46.9L61.6,48.9L62.1,48.9L62.1,49.4L63,49.4L63,49.6L61.9,49.6L61.9,49.1L61.4,49.1L61.4,47.1L60.4,47.1L60.4,46.6L59.4,46.6L59.4,43.1L58.9,43.1L58.9,42.6L57.9,42.6L57.9,42.1L50.4,42.1L50.4,41.6L49.4,41.6L49.4,40.6L48.9,40.6L48.9,40.1L48.4,40.1L48.4,38.6L47.4,38.6L47.4,38.1L46.9,38.1L46.9,36.9L47.4,36.9L47.4,35.1L46.4,35.1L46.4,34.5L46.6,34.5L46.6,34.9L47.6,34.9L47.6,37.1L47.1,37.1L47.1,37.9L47.6,37.9L47.6,38.4L48.6,38.4L48.6,39.9L49.1,39.9L49.1,40.4L49.6,40.4L49.6,41.4L50.6,41.4L50.6,41.9z" stroke="none"/><path d="M72.4,86.4L72.4,81.4L73.4,81.4L73.4,79.5L73.6,79.5L73.6,81.6L72.6,81.6L72.6,90.4L75.6,90.4L75.6,90.9L76.6,90.9L76.6,91.4L77.1,91.4L77.1,92.4L77.6,92.4L77.6,93.4L79.1,93.4L79.1,93.9L79.6,93.9L79.6,94.5L79.4,94.5L79.4,94.1L78.9,94.1L78.9,93.6L77.4,93.6L77.4,92.6L76.9,92.6L76.9,91.6L76.4,91.6L76.4,91.1L75.4,91.1L75.4,90.6L72.4,90.6L72.4,86.6L65.4,86.6L65.4,85.6L64.5,85.6L64.5,85.4L65.6,85.4L65.6,86.4z" stroke="none"/><path d="M80.4,46.6L79.4,46.6L79.4,46.1L77.9,46.1L77.9,44.6L76.9,44.6L76.9,44.1L75.9,44.1L75.9,43.1L75.4,43.1L75.4,42.6L74.9,42.6L74.9,42L75.1,42L75.1,42.4L75.6,42.4L75.6,42.9L76.1,42.9L76.1,43.9L77.1,43.9L77.1,44.4L78.1,44.4L78.1,45.9L79.6,45.9L79.6,46.4L80.6,46.4L80.6,52.4L81.1,52.4L81.1,52.9L82.1,52.9L82.1,53.9L84.6,53.9L84.6,54.4L85.6,54.4L85.6,54.9L86.1,54.9L86.1,56.9L87,56.9L87,57.1L85.9,57.1L85.9,55.1L85.4,55.1L85.4,54.6L84.4,54.6L84.4,54.1L81.9,54.1L81.9,53.1L80.9,53.1L80.9,52.6L80.6,52.6L80.6,53.6L80.1,53.6L80.1,60.1L79.5,60.1L79.5,59.9L79.9,59.9L79.9,53.4L80.4,53.4z" stroke="none"/><path d="M52.4,11.1L51.4,11.1L51.4,10.6L50.9,10.6L50.9,7.5L51.1,7.5L51.1,10.4L51.6,10.4L51.6,10.9L52.6,10.9L52.6,14.9L59.9,14.9L59.9,14.4L61.9,14.4L61.9,13.9L62.9,13.9L62.9,13.5L63.1,13.5L63.1,14.1L62.1,14.1L62.1,14.6L60.1,14.6L60.1,15.1L52.6,15.1L52.6,19.1L50.6,19.1L50.6,20.1L50.1,20.1L50.1,20.6L48.6,20.6L48.6,22.6L47.6,22.6L47.6,23.1L45.6,23.1L45.6,24.1L43.5,24.1L43.5,23.9L45.4,23.9L45.4,22.9L47.4,22.9L47.4,22.4L48.4,22.4L48.4,20.4L49.9,20.4L49.9,19.9L50.4,19.9L50.4,18.9L52.4,18.9z" stroke="none"/><path d="M72.4,32.4L72.4,30.4L74.4,30.4L74.4,29.9L74.9,29.9L74.9,29.4L75.4,29.4L75.4,28.9L76.4,28.9L76.4,27.9L76.9,27.9L76.9,26.9L77.4,26.9L77.4,26.4L77.9,26.4L77.9,25.4L80.4,25.4L80.4,24.4L80.9,24.4L80.9,24L81.1,24L81.1,24.6L80.6,24.6L80.6,25.6L78.1,25.6L78.1,26.6L77.6,26.6L77.6,27.1L77.1,27.1L77.1,28.1L76.6,28.1L76.6,29.1L75.6,29.1L75.6,29.6L75.1,29.6L75.1,30.1L74.6,30.1L74.6,30.6L72.6,30.6L72.6,40.4L73.1,40.4L73.1,41.4L73.6,41.4L73.6,43.5L73.4,43.5L73.4,41.6L72.9,41.6L72.9,40.6L72.4,40.6L72.4,32.6L63.9,32.6L63.9,32.1L63.4,32.1L63.4,30.6L62.9,30.6L62.9,30L63.1,30L63.1,30.4L63.6,30.4L63.6,31.9L64.1,31.9L64.1,32.4z" stroke="none"/><path d="M64.9,70.9L64.9,62.4L65.9,62.4L65.9,61.9L67.9,61.9L67.9,60.9L68.4,60.9L68.4,59.9L69,59.9L69,60.1L68.6,60.1L68.6,61.1L68.1,61.1L68.1,62.1L66.1,62.1L66.1,62.6L65.1,62.6L65.1,72.4L65.6,72.4L65.6,72.9L66.1,72.9L66.1,73.4L68.6,73.4L68.6,73.9L69.6,73.9L69.6,74.4L70.1,74.4L70.1,75.9L70.6,75.9L70.6,76.9L71.6,76.9L71.6,77.4L72.1,77.4L72.1,78L71.9,78L71.9,77.6L71.4,77.6L71.4,77.1L70.4,77.1L70.4,76.1L69.9,76.1L69.9,74.6L69.4,74.6L69.4,74.1L68.4,74.1L68.4,73.6L65.9,73.6L65.9,73.1L65.4,73.1L65.4,72.6L64.9,72.6L64.9,71.1L63.6,71.1L63.6,71.6L57.1,71.6L57.1,72.6L56.6,72.6L56.6,73.1L56.1,73.1L56.1,73.6L55.1,73.6L55.1,74.1L54.6,74.1L54.6,75.1L54,75.1L54,74.9L54.4,74.9L54.4,73.9L54.9,73.9L54.9,73.4L55.9,73.4L55.9,72.9L56.4,72.9L56.4,72.4L56.9,72.4L56.9,71.4L63.4,71.4L63.4,70.9z" stroke="none"/><path d="M27.4,38.6L21.4,38.6L21.4,38.1L20.9,38.1L20.9,37.5L21.1,37.5L21.1,37.9L21.6,37.9L21.6,38.4L27.6,38.4L27.6,45.4L32.9,45.4L32.9,43.9L34.9,43.9L34.9,43.4L35.4,43.4L35.4,42.9L36.4,42.9L36.4,42.4L36.9,42.4L36.9,41.9L37.5,41.9L37.5,42.1L37.1,42.1L37.1,42.6L36.6,42.6L36.6,43.1L35.6,43.1L35.6,43.6L35.1,43.6L35.1,44.1L33.1,44.1L33.1,45.6L27.6,45.6L27.6,53.6L27.1,53.6L27.1,54.6L26.1,54.6L26.1,56.6L24.6,56.6L24.6,57.1L24,57.1L24,56.9L24.4,56.9L24.4,56.4L25.9,56.4L25.9,54.4L26.9,54.4L26.9,53.4L27.4,53.4z" stroke="none"/><path d="M74.9,20.9L74.9,20.4L75.4,20.4L75.4,19.9L75.9,19.9L75.9,17.6L75.4,17.6L75.4,15.9L75.9,15.9L75.9,15.4L79.6,15.4L79.6,16.4L81,16.4L81,16.6L79.4,16.6L79.4,15.6L76.1,15.6L76.1,16.1L75.6,16.1L75.6,17.4L76.1,17.4L76.1,20.1L75.6,20.1L75.6,20.6L75.1,20.6L75.1,20.9L75.6,20.9L75.6,21.4L76.1,21.4L76.1,23.6L75.6,23.6L75.6,26.4L76.9,26.4L76.9,25.9L77.4,25.9L77.4,24.9L78.9,24.9L78.9,22.9L81.6,22.9L81.6,23.4L82.1,23.4L82.1,31.6L81.1,31.6L81.1,34.1L80.6,34.1L80.6,34.6L78,34.6L78,34.4L80.4,34.4L80.4,33.9L80.9,33.9L80.9,31.4L81.9,31.4L81.9,23.6L81.4,23.6L81.4,23.1L79.1,23.1L79.1,25.1L77.6,25.1L77.6,26.1L77.1,26.1L77.1,26.6L75.4,26.6L75.4,23.4L75.9,23.4L75.9,21.6L75.4,21.6L75.4,21.1L75.1,21.1L75.1,21.6L74.1,21.6L74.1,24.6L73.1,24.6L73.1,25.1L72.6,25.1L72.6,25.6L71.6,25.6L71.6,26.1L71.1,26.1L71.1,26.6L70.6,26.6L70.6,27.1L69.6,27.1L69.6,28.6L69.1,28.6L69.1,29.6L66.9,29.6L66.9,29.1L66.4,29.1L66.4,25.6L65.9,25.6L65.9,22.6L65.4,22.6L65.4,22.1L64.9,22.1L64.9,15.9L65.4,15.9L65.4,14.9L66,14.9L66,15.1L65.6,15.1L65.6,16.1L65.1,16.1L65.1,21.9L65.6,21.9L65.6,22.4L66.1,22.4L66.1,25.4L66.6,25.4L66.6,28.9L67.1,28.9L67.1,29.4L68.9,29.4L68.9,28.4L69.4,28.4L69.4,26.9L70.4,26.9L70.4,26.4L70.9,26.4L70.9,25.9L71.4,25.9L71.4,25.4L72.4,25.4L72.4,24.9L72.9,24.9L72.9,24.4L73.9,24.4L73.9,21.4L74.9,21.4L74.9,21.1L73.5,21.1L73.5,20.9z" stroke="none"/><path d="M77.9,17.9L77.9,17.4L81.4,17.4L81.4,16.9L81.9,16.9L81.9,9.6L81.4,9.6L81.4,6.4L82.4,6.4L82.4,6L82.6,6L82.6,6.6L81.6,6.6L81.6,9.4L82.1,9.4L82.1,17.1L81.6,17.1L81.6,17.6L78.1,17.6L78.1,17.9L78.6,17.9L78.6,24.6L76.6,24.6L76.6,25.5L76.4,25.5L76.4,24.4L78.4,24.4L78.4,18.1L78.1,18.1L78.1,24.1L76.5,24.1L76.5,23.9L77.9,23.9L77.9,18.1L77.4,18.1L77.4,17.1L76.4,17.1L76.4,16.5L76.6,16.5L76.6,16.9L77.6,16.9L77.6,17.9z" stroke="none"/><path d="M46.4,71.9L46.4,70.6L45.4,70.6L45.4,70.1L43.9,70.1L43.9,69.6L43.4,69.6L43.4,68.6L42.4,68.6L42.4,68.1L41.9,68.1L41.9,66L42.1,66L42.1,67.9L42.6,67.9L42.6,68.4L43.6,68.4L43.6,69.4L44.1,69.4L44.1,69.9L45.6,69.9L45.6,70.4L46.6,70.4L46.6,71.9L47.6,71.9L47.6,73.4L48.1,73.4L48.1,74.4L48.6,74.4L48.6,75.4L51.1,75.4L51.1,75.9L52.1,75.9L52.1,76.4L54.1,76.4L54.1,76.9L54.6,76.9L54.6,77.4L55.1,77.4L55.1,78.4L55.6,78.4L55.6,81.9L57.1,81.9L57.1,82.4L57.6,82.4L57.6,82.9L58.6,82.9L58.6,85.5L58.4,85.5L58.4,83.1L57.4,83.1L57.4,82.6L56.9,82.6L56.9,82.1L55.4,82.1L55.4,78.6L54.9,78.6L54.9,77.6L54.4,77.6L54.4,77.1L53.9,77.1L53.9,76.6L51.9,76.6L51.9,76.1L50.9,76.1L50.9,75.6L48.4,75.6L48.4,74.6L47.9,74.6L47.9,73.6L47.4,73.6L47.4,72.1L46.6,72.1L46.6,72.6L44.9,72.6L44.9,71.6L43.9,71.6L43.9,70.6L43.4,70.6L43.4,70.1L41.4,70.1L41.4,69.6L40.9,69.6L40.9,68.6L40.4,68.6L40.4,67.5L40.6,67.5L40.6,68.4L41.1,68.4L41.1,69.4L41.6,69.4L41.6,69.9L43.6,69.9L43.6,70.4L44.1,70.4L44.1,71.4L45.1,71.4L45.1,72.4L46.4,72.4L46.4,72.1L45.9,72.1L45.9,71.1L44.9,71.1L44.9,70.5L45.1,70.5L45.1,70.9L46.1,70.9L46.1,71.9z" stroke="none"/><path d="M91.9,51.4L91.9,48.4L92.9,48.4L92.9,47.9L93.9,47.9L93.9,47.4L94.4,47.4L94.4,46.9L95.4,46.9L95.4,46.4L97.4,46.4L97.4,45L97.6,45L97.6,46.6L95.6,46.6L95.6,47.1L94.6,47.1L94.6,47.6L94.1,47.6L94.1,48.1L93.1,48.1L93.1,48.6L92.1,48.6L92.1,51.4L96.6,51.4L96.6,51.9L97.1,51.9L97.1,52.9L97.6,52.9L97.6,53.9L98.1,53.9L98.1,54.4L98.6,54.4L98.6,54.9L99.1,54.9L99.1,55.5L98.9,55.5L98.9,55.1L98.4,55.1L98.4,54.6L97.9,54.6L97.9,54.1L97.4,54.1L97.4,53.1L96.9,53.1L96.9,52.1L96.4,52.1L96.4,51.6L92.1,51.6L92.1,55.6L91.6,55.6L91.6,56.1L90.6,56.1L90.6,56.6L88.1,56.6L88.1,57.6L87.6,57.6L87.6,58.1L83.4,58.1L83.4,57.6L82.9,57.6L82.9,57.1L82.5,57.1L82.5,56.9L83.1,56.9L83.1,57.4L83.6,57.4L83.6,57.9L87.4,57.9L87.4,57.4L87.9,57.4L87.9,56.4L90.4,56.4L90.4,55.9L91.4,55.9L91.4,55.4L91.9,55.4L91.9,51.6L90.4,51.6L90.4,51.1L89.9,51.1L89.9,49.5L90.1,49.5L90.1,50.9L90.6,50.9L90.6,51.4z" stroke="none"/><path d="M85.4,81.4L85.4,80.1L82.9,80.1L82.9,79.1L82.4,79.1L82.4,78L82.6,78L82.6,78.9L83.1,78.9L83.1,79.9L85.6,79.9L85.6,81.4L87.4,81.4L87.4,80.9L88.5,80.9L88.5,81.1L87.6,81.1L87.6,81.6L85.6,81.6L85.6,81.9L87.6,81.9L87.6,82.4L89.1,82.4L89.1,82.9L90.1,82.9L90.1,84L89.9,84L89.9,83.1L88.9,83.1L88.9,82.6L87.4,82.6L87.4,82.1L85.4,82.1L85.4,81.6L84.6,81.6L84.6,82.1L82.1,82.1L82.1,82.6L80.1,82.6L80.1,83.1L79.6,83.1L79.6,84L79.4,84L79.4,82.9L79.9,82.9L79.9,82.4L81.9,82.4L81.9,81.9L84.4,81.9L84.4,81.4z" stroke="none"/><path d="M68.9,19.4L68.9,14.6L67.9,14.6L67.9,11.1L67.4,11.1L67.4,10.5L67.6,10.5L67.6,10.9L68.1,10.9L68.1,14.4L69.1,14.4L69.1,19.4L75,19.4L75,19.6L69.1,19.6L69.1,27.6L68.6,27.6L68.6,28.6L67.5,28.6L67.5,28.4L68.4,28.4L68.4,27.4L68.9,27.4L68.9,19.6L68.6,19.6L68.6,20.1L67.6,20.1L67.6,20.6L67.1,20.6L67.1,21.1L66,21.1L66,20.9L66.9,20.9L66.9,20.4L67.4,20.4L67.4,19.9L68.4,19.9L68.4,19.4z" stroke="none"/><path d="M91.4,91.4L91.4,90.9L92.4,90.9L92.4,90.4L99.4,90.4L99.4,88.4L100.5,88.4L100.5,88.6L99.6,88.6L99.6,90.6L92.6,90.6L92.6,91.1L91.6,91.1L91.6,91.4L92.1,91.4L92.1,95.1L91.1,95.1L91.1,95.6L90.6,95.6L90.6,96.1L90,96.1L90,95.9L90.4,95.9L90.4,95.4L90.9,95.4L90.9,94.9L91.9,94.9L91.9,91.6L91.6,91.6L91.6,94.1L90.1,94.1L90.1,94.5L89.9,94.5L89.9,93.9L91.4,93.9L91.4,91.6L86.9,91.6L86.9,91.1L85.9,91.1L85.9,88.6L85.5,88.6L85.5,88.4L86.1,88.4L86.1,90.9L87.1,90.9L87.1,91.4z" stroke="none"/><path d="M40.4,39.4L40.4,36L40.6,36L40.6,39.4L40.9,39.4L40.9,33.4L48.1,33.4L48.1,33.9L49.6,33.9L49.6,34.5L49.4,34.5L49.4,34.1L47.9,34.1L47.9,33.6L41.1,33.6L41.1,39.6L40.6,39.6L40.6,42.6L39.1,42.6L39.1,44.1L38.6,44.1L38.6,45.6L38.1,45.6L38.1,46.1L37.6,46.1L37.6,46.5L37.4,46.5L37.4,45.9L37.9,45.9L37.9,45.4L38.4,45.4L38.4,43.9L38.9,43.9L38.9,42.4L40.4,42.4L40.4,39.6L35.6,39.6L35.6,40.1L35.1,40.1L35.1,40.6L34.6,40.6L34.6,42L34.4,42L34.4,40.4L34.9,40.4L34.9,39.9L35.4,39.9L35.4,39.4z" stroke="none"/><path d="M22.9,33.9L22.9,30.1L22.5,30.1L22.5,29.9L23.1,29.9L23.1,33.9L27.9,33.9L27.9,32.9L28.5,32.9L28.5,33.1L28.1,33.1L28.1,34.1L23.1,34.1L23.1,34.6L21.1,34.6L21.1,36.1L20.6,36.1L20.6,37.1L20.1,37.1L20.1,38.9L20.6,38.9L20.6,39.9L22.1,39.9L22.1,40.4L22.5,40.4L22.5,40.6L21.9,40.6L21.9,40.1L20.4,40.1L20.4,39.1L19.9,39.1L19.9,36.9L20.4,36.9L20.4,35.9L20.9,35.9L20.9,34.4L22.9,34.4L22.9,34.1L22.4,34.1L22.4,33.6L20.9,33.6L20.9,33.1L19.5,33.1L19.5,32.9L21.1,32.9L21.1,33.4L22.6,33.4L22.6,33.9z" stroke="none"/><path d="M22.4,91.4L22.4,91.1L19.4,91.1L19.4,90.1L18.9,90.1L18.9,88.6L18.4,88.6L18.4,88.1L17.4,88.1L17.4,87.6L16.9,87.6L16.9,85.6L13.5,85.6L13.5,85.4L17.1,85.4L17.1,87.4L17.6,87.4L17.6,87.9L18.6,87.9L18.6,88.4L19.1,88.4L19.1,89.9L19.6,89.9L19.6,90.9L22.6,90.9L22.6,91.4L26.4,91.4L26.4,90.4L26.9,90.4L26.9,88.5L27.1,88.5L27.1,90.6L26.6,90.6L26.6,91.6L22.6,91.6L22.6,96L22.4,96L22.4,91.6L22.1,91.6L22.1,96.4L24.6,96.4L24.6,96.9L25.1,96.9L25.1,97.4L27,97.4L27,97.6L24.9,97.6L24.9,97.1L24.4,97.1L24.4,96.6L21.9,96.6L21.9,91.4z" stroke="none"/><path d="M70.9,74.9L70.9,71.1L70.4,71.1L70.4,70.5L70.6,70.5L70.6,70.9L71.1,70.9L71.1,74.9L73.6,74.9L73.6,75.4L74.6,75.4L74.6,75.9L76.1,75.9L76.1,76.4L76.5,76.4L76.5,76.6L75.9,76.6L75.9,76.1L74.4,76.1L74.4,75.6L73.4,75.6L73.4,75.1L71.1,75.1L71.1,75.4L71.6,75.4L71.6,75.9L72.1,75.9L72.1,76.9L72.6,76.9L72.6,77.4L73.1,77.4L73.1,79.1L65.1,79.1L65.1,80.1L64.6,80.1L64.6,81.1L63.6,81.1L63.6,81.6L63.1,81.6L63.1,83.1L62.6,83.1L62.6,83.6L62.1,83.6L62.1,85.6L61.5,85.6L61.5,85.4L61.9,85.4L61.9,83.4L62.4,83.4L62.4,82.9L62.9,82.9L62.9,81.4L63.4,81.4L63.4,80.9L64.4,80.9L64.4,79.9L64.9,79.9L64.9,78.9L72.9,78.9L72.9,77.6L72.4,77.6L72.4,77.1L71.9,77.1L71.9,76.1L71.4,76.1L71.4,75.6L70.9,75.6L70.9,75.1L70.4,75.1L70.4,71.6L69.9,71.6L69.9,69.9L74.9,69.9L74.9,69.4L75.9,69.4L75.9,68.9L76.4,68.9L76.4,67.5L76.6,67.5L76.6,69.1L76.1,69.1L76.1,69.6L75.1,69.6L75.1,70.1L70.1,70.1L70.1,71.4L70.6,71.4L70.6,74.9z" stroke="none"/><path d="M68.4,37.4L68.4,37.1L67.9,37.1L67.9,36.6L66.4,36.6L66.4,35.1L65.4,35.1L65.4,34.6L64.9,34.6L64.9,34.1L63.9,34.1L63.9,33.1L63.4,33.1L63.4,32.6L62.9,32.6L62.9,31.1L62.4,31.1L62.4,30.6L61.9,30.6L61.9,27.1L61.5,27.1L61.5,26.9L62.1,26.9L62.1,30.4L62.6,30.4L62.6,30.9L63.1,30.9L63.1,32.4L63.6,32.4L63.6,32.9L64.1,32.9L64.1,33.9L65.1,33.9L65.1,34.4L65.6,34.4L65.6,34.9L66.6,34.9L66.6,36.4L68.1,36.4L68.1,36.9L68.6,36.9L68.6,37.4L69.6,37.4L69.6,37.9L70.1,37.9L70.1,38.9L70.6,38.9L70.6,39.9L71.1,39.9L71.1,40.9L71.6,40.9L71.6,41.4L72.1,41.4L72.1,41.9L72.6,41.9L72.6,43.9L73.1,43.9L73.1,44.4L73.9,44.4L73.9,43.9L74.4,43.9L74.4,42.6L73.9,42.6L73.9,41.4L74.4,41.4L74.4,40.9L81.1,40.9L81.1,42L80.9,42L80.9,41.1L74.6,41.1L74.6,41.6L74.1,41.6L74.1,42.4L74.6,42.4L74.6,44.1L74.1,44.1L74.1,44.6L72.9,44.6L72.9,44.1L72.4,44.1L72.4,42.1L71.9,42.1L71.9,41.6L71.4,41.6L71.4,41.1L70.9,41.1L70.9,40.1L70.4,40.1L70.4,39.1L69.9,39.1L69.9,38.1L69.4,38.1L69.4,37.6L68.6,37.6L68.6,46.1L67.6,46.1L67.6,46.5L67.4,46.5L67.4,45.9L68.4,45.9L68.4,37.6L66.4,37.6L66.4,37.1L65.9,37.1L65.9,36.6L64.9,36.6L64.9,35.1L64.4,35.1L64.4,34.5L64.6,34.5L64.6,34.9L65.1,34.9L65.1,36.4L66.1,36.4L66.1,36.9L66.6,36.9L66.6,37.4z" stroke="none"/><path d="M21.9,55.4L21.9,46.1L20.9,46.1L20.9,45.6L19.9,45.6L19.9,45.1L19.5,45.1L19.5,44.9L20.1,44.9L20.1,45.4L21.1,45.4L21.1,45.9L22.1,45.9L22.1,55.4L22.4,55.4L22.4,46.4L23.4,46.4L23.4,45.4L23.9,45.4L23.9,42.4L24.9,42.4L24.9,41.4L25.9,41.4L25.9,40.9L26.4,40.9L26.4,39.6L24.1,39.6L24.1,40.1L23.6,40.1L23.6,41.1L23.1,41.1L23.1,41.6L12.9,41.6L12.9,41.1L11.6,41.1L11.6,41.6L11.1,41.6L11.1,42.1L10.6,42.1L10.6,42.6L9.6,42.6L9.6,44.1L8.6,44.1L8.6,44.6L8.1,44.6L8.1,54.9L8.6,54.9L8.6,55.4L12.6,55.4L12.6,55.9L13.1,55.9L13.1,57.4L20.1,57.4L20.1,57.9L22.6,57.9L22.6,58.4L24.1,58.4L24.1,58.9L24.6,58.9L24.6,59.4L26.1,59.4L26.1,61.4L27.1,61.4L27.1,62.4L28.1,62.4L28.1,64.4L28.5,64.4L28.5,64.6L27.9,64.6L27.9,62.6L26.9,62.6L26.9,61.6L25.9,61.6L25.9,59.6L24.4,59.6L24.4,59.1L23.9,59.1L23.9,58.6L22.4,58.6L22.4,58.1L19.9,58.1L19.9,57.6L12.9,57.6L12.9,56.1L12.4,56.1L12.4,55.6L8.4,55.6L8.4,55.1L7.9,55.1L7.9,44.4L8.4,44.4L8.4,43.9L9.4,43.9L9.4,42.4L10.4,42.4L10.4,41.9L10.9,41.9L10.9,41.4L11.4,41.4L11.4,40.9L13.1,40.9L13.1,41.4L22.9,41.4L22.9,40.9L23.4,40.9L23.4,39.9L23.9,39.9L23.9,39.4L26.6,39.4L26.6,41.1L26.1,41.1L26.1,41.6L25.1,41.6L25.1,42.6L24.1,42.6L24.1,45.6L23.6,45.6L23.6,46.6L22.6,46.6L22.6,55.6L22.1,55.6L22.1,57.4L23.6,57.4L23.6,57.9L26.4,57.9L26.4,57.4L26.9,57.4L26.9,57L27.1,57L27.1,57.6L26.6,57.6L26.6,58.1L23.4,58.1L23.4,57.6L21.9,57.6L21.9,55.6L21.6,55.6L21.6,56.1L20.6,56.1L20.6,56.6L17.1,56.6L17.1,57.1L13.5,57.1L13.5,56.9L16.9,56.9L16.9,56.4L20.4,56.4L20.4,55.9L21.4,55.9L21.4,55.4z" stroke="none"/><path d="M16.4,45.9L16.4,45.4L17.9,45.4L17.9,44.9L18.4,44.9L18.4,44.4L18.9,44.4L18.9,43.9L23.4,43.9L23.4,41.4L23.9,41.4L23.9,40.9L24.9,40.9L24.9,40.4L25.5,40.4L25.5,40.6L25.1,40.6L25.1,41.1L24.1,41.1L24.1,41.6L23.6,41.6L23.6,44.1L19.1,44.1L19.1,44.6L18.6,44.6L18.6,45.1L18.1,45.1L18.1,45.6L16.6,45.6L16.6,45.9L17.1,45.9L17.1,51.4L17.6,51.4L17.6,51.9L18.6,51.9L18.6,52.4L19.1,52.4L19.1,53.4L19.6,53.4L19.6,55.5L19.4,55.5L19.4,53.6L18.9,53.6L18.9,52.6L18.4,52.6L18.4,52.1L17.4,52.1L17.4,51.6L16.9,51.6L16.9,46.1L16.6,46.1L16.6,46.6L9,46.6L9,46.4L16.4,46.4L16.4,46.1L14.4,46.1L14.4,44.1L13.4,44.1L13.4,43.1L12.4,43.1L12.4,42.6L11.9,42.6L11.9,42L12.1,42L12.1,42.4L12.6,42.4L12.6,42.9L13.6,42.9L13.6,43.9L14.6,43.9L14.6,45.9z" stroke="none"/><path d="M54.9,82.4L54.9,79.1L53.9,79.1L53.9,78.6L52.4,78.6L52.4,77.6L48.4,77.6L48.4,76.1L47.9,76.1L47.9,75.6L46.4,75.6L46.4,75L46.6,75L46.6,75.4L48.1,75.4L48.1,75.9L48.6,75.9L48.6,77.4L52.6,77.4L52.6,78.4L54.1,78.4L54.1,78.9L55.1,78.9L55.1,82.4L55.6,82.4L55.6,83.4L57.1,83.4L57.1,83.9L57.6,83.9L57.6,86.4L58.1,86.4L58.1,86.9L60,86.9L60,87.1L57.9,87.1L57.9,86.6L57.4,86.6L57.4,84.1L56.9,84.1L56.9,83.6L55.4,83.6L55.4,82.6L55.1,82.6L55.1,85.9L56.1,85.9L56.1,86.4L56.6,86.4L56.6,86.9L57.6,86.9L57.6,87.4L62.1,87.4L62.1,88.4L63.1,88.4L63.1,88.9L64.1,88.9L64.1,89.9L64.5,89.9L64.5,90.1L63.9,90.1L63.9,89.1L62.9,89.1L62.9,88.6L61.9,88.6L61.9,87.6L57.4,87.6L57.4,87.1L56.4,87.1L56.4,86.6L55.9,86.6L55.9,86.1L54.9,86.1L54.9,82.6L51.9,82.6L51.9,81.6L51.4,81.6L51.4,80.6L49.9,80.6L49.9,80.1L49.4,80.1L49.4,79.5L49.6,79.5L49.6,79.9L50.1,79.9L50.1,80.4L51.6,80.4L51.6,81.4L52.1,81.4L52.1,82.4z" stroke="none"/><path d="M39.9,83.4L39.9,82.4L40.9,82.4L40.9,81.4L44.4,81.4L44.4,80.9L46.9,80.9L46.9,78.9L47.4,78.9L47.4,78.4L47.9,78.4L47.9,78L48.1,78L48.1,78.6L47.6,78.6L47.6,79.1L47.1,79.1L47.1,81.1L44.6,81.1L44.6,81.6L41.1,81.6L41.1,82.6L40.1,82.6L40.1,83.4L45.9,83.4L45.9,82.9L46.4,82.9L46.4,82.4L48,82.4L48,82.6L46.6,82.6L46.6,83.1L46.1,83.1L46.1,83.6L40.1,83.6L40.1,86.1L39.1,86.1L39.1,86.6L38.1,86.6L38.1,88.1L37.6,88.1L37.6,88.6L36,88.6L36,88.4L37.4,88.4L37.4,87.9L37.9,87.9L37.9,86.4L38.9,86.4L38.9,85.9L39.9,85.9L39.9,83.6L38.6,83.6L38.6,84.1L38.1,84.1L38.1,84.6L35.1,84.6L35.1,85.1L34.6,85.1L34.6,85.6L28.5,85.6L28.5,85.4L34.4,85.4L34.4,84.9L34.9,84.9L34.9,84.4L37.9,84.4L37.9,83.9L38.4,83.9L38.4,83.4z" stroke="none"/><path d="M50.4,95.4L50.4,95.1L47.9,95.1L47.9,93.6L46.4,93.6L46.4,92.6L45.9,92.6L45.9,92.1L45.4,92.1L45.4,88.9L45.9,88.9L45.9,84.4L47.4,84.4L47.4,83.9L48.9,83.9L48.9,81.6L46.1,81.6L46.1,82.1L44.1,82.1L44.1,82.6L43.5,82.6L43.5,82.4L43.9,82.4L43.9,81.9L45.9,81.9L45.9,81.4L49.1,81.4L49.1,84.1L47.6,84.1L47.6,84.6L46.1,84.6L46.1,89.1L45.6,89.1L45.6,91.9L46.1,91.9L46.1,92.4L46.6,92.4L46.6,93.4L48.1,93.4L48.1,94.9L50.6,94.9L50.6,95.4L53.6,95.4L53.6,95.9L54.6,95.9L54.6,96.9L55.6,96.9L55.6,97.4L57,97.4L57,97.6L55.4,97.6L55.4,97.1L54.4,97.1L54.4,96.1L53.4,96.1L53.4,95.6L50.6,95.6L50.6,95.9L51.6,95.9L51.6,96.4L52.6,96.4L52.6,96.9L54.1,96.9L54.1,97.4L55.1,97.4L55.1,97.9L56.6,97.9L56.6,98.4L57.1,98.4L57.1,99.4L57.6,99.4L57.6,100.4L58.1,100.4L58.1,101.4L58.6,101.4L58.6,102L58.4,102L58.4,101.6L57.9,101.6L57.9,100.6L57.4,100.6L57.4,99.6L56.9,99.6L56.9,98.6L56.4,98.6L56.4,98.1L54.9,98.1L54.9,97.6L53.9,97.6L53.9,97.1L52.4,97.1L52.4,96.6L51.4,96.6L51.4,96.1L50.4,96.1L50.4,95.6L47.6,95.6L47.6,97.1L47.1,97.1L47.1,98.1L46.6,98.1L46.6,99.6L45.6,99.6L45.6,100.1L43.6,100.1L43.6,100.5L43.4,100.5L43.4,99.9L45.4,99.9L45.4,99.4L46.4,99.4L46.4,97.9L46.9,97.9L46.9,96.9L47.4,96.9L47.4,95.4z" stroke="none"/><path d="M53.4,63.9L53.4,62.6L52.9,62.6L52.9,62.1L48.4,62.1L48.4,61.6L46.5,61.6L46.5,61.4L48.6,61.4L48.6,61.9L53.1,61.9L53.1,62.4L53.6,62.4L53.6,63.9L55.9,63.9L55.9,63.4L58.9,63.4L58.9,62.9L59.4,62.9L59.4,60.9L60.9,60.9L60.9,59.9L61.5,59.9L61.5,60.1L61.1,60.1L61.1,61.1L59.6,61.1L59.6,63.1L59.1,63.1L59.1,63.6L56.1,63.6L56.1,64.1L53.6,64.1L53.6,66.9L55.1,66.9L55.1,67.4L55.6,67.4L55.6,67.9L57.1,67.9L57.1,68.4L58.1,68.4L58.1,68.9L58.5,68.9L58.5,69.1L57.9,69.1L57.9,68.6L56.9,68.6L56.9,68.1L55.4,68.1L55.4,67.6L54.9,67.6L54.9,67.1L53.4,67.1L53.4,64.1L53.1,64.1L53.1,64.6L52.1,64.6L52.1,65.1L51.6,65.1L51.6,66.6L51.1,66.6L51.1,67.1L50.6,67.1L50.6,67.6L50.1,67.6L50.1,69.1L49.1,69.1L49.1,69.6L48.6,69.6L48.6,70.1L46.9,70.1L46.9,65.6L45.9,65.6L45.9,64.6L45,64.6L45,64.4L46.1,64.4L46.1,65.4L47.1,65.4L47.1,69.9L48.4,69.9L48.4,69.4L48.9,69.4L48.9,68.9L49.9,68.9L49.9,67.4L50.4,67.4L50.4,66.9L50.9,66.9L50.9,66.4L51.4,66.4L51.4,64.9L51.9,64.9L51.9,64.4L52.9,64.4L52.9,63.9z" stroke="none"/><path d="M94.9,65.9L94.9,60.4L95.4,60.4L95.4,59.9L96.9,59.9L96.9,59.4L98.4,59.4L98.4,58.4L99,58.4L99,58.6L98.6,58.6L98.6,59.6L97.1,59.6L97.1,60.1L95.6,60.1L95.6,60.6L95.1,60.6L95.1,65.9L101.9,65.9L101.9,64.5L102.1,64.5L102.1,66.1L95.1,66.1L95.1,76.1L94.6,76.1L94.6,76.5L94.4,76.5L94.4,75.9L94.9,75.9L94.9,66.1L85.5,66.1L85.5,65.9z" stroke="none"/><path d="M17.4,16.4L17.4,14.6L14.9,14.6L14.9,14.1L14.4,14.1L14.4,12.6L13.9,12.6L13.9,10.1L12.9,10.1L12.9,9.1L12,9.1L12,8.9L13.1,8.9L13.1,9.9L14.1,9.9L14.1,12.4L14.6,12.4L14.6,13.9L15.1,13.9L15.1,14.4L17.6,14.4L17.6,16.4L18.1,16.4L18.1,23.4L18.6,23.4L18.6,23.9L19.1,23.9L19.1,24.4L19.6,24.4L19.6,25.5L19.4,25.5L19.4,24.6L18.9,24.6L18.9,24.1L18.4,24.1L18.4,23.6L17.9,23.6L17.9,16.6L17.6,16.6L17.6,17.6L17.1,17.6L17.1,18.6L15.6,18.6L15.6,19.1L15.1,19.1L15.1,20.6L14.1,20.6L14.1,21.1L12.6,21.1L12.6,22.6L12,22.6L12,22.4L12.4,22.4L12.4,20.9L13.9,20.9L13.9,20.4L14.9,20.4L14.9,18.9L15.4,18.9L15.4,18.4L16.9,18.4L16.9,17.4L17.4,17.4L17.4,16.6L13.9,16.6L13.9,13.1L13.4,13.1L13.4,11.1L12.4,11.1L12.4,10.1L11.9,10.1L11.9,9.6L11.4,9.6L11.4,8.4L13.6,8.4L13.6,8.9L14.1,8.9L14.1,9.4L17.6,9.4L17.6,9.9L24.6,9.9L24.6,10.4L27,10.4L27,10.6L24.4,10.6L24.4,10.1L17.4,10.1L17.4,9.6L13.9,9.6L13.9,9.1L13.4,9.1L13.4,8.6L11.6,8.6L11.6,9.4L12.1,9.4L12.1,9.9L12.6,9.9L12.6,10.9L13.6,10.9L13.6,12.9L14.1,12.9L14.1,16.4z" stroke="none"/><path d="M90,76.6L90,76.4L91.5,76.4L91.5,76.6z" stroke="none"/><path d="M94.5,94.6L94.5,94.4L96,94.4L96,94.6z" stroke="none"/><path d="M24.1,52.5L23.9,52.5L23.9,51L24.1,51z" stroke="none"/><path d="M93,17.9L93,18.1L92.6,18.1L92.6,19.1L92.1,19.1L92.1,19.6L91.5,19.6L91.5,19.4L91.9,19.4L91.9,18.9L92.4,18.9L92.4,17.9z" stroke="none"/><path d="M94.5,92.9L94.5,93.1L93.9,93.1L93.9,92.1L92.9,92.1L92.9,91.5L93.1,91.5L93.1,91.9L94.1,91.9L94.1,92.9z" stroke="none"/><path d="M42,68.9L42,69.1L41.4,69.1L41.4,66.6L40.1,66.6L40.1,67.1L39.6,67.1L39.6,68.6L39.1,68.6L39.1,69L38.9,69L38.9,68.4L39.4,68.4L39.4,66.9L39.9,66.9L39.9,66.4L41.6,66.4L41.6,68.9z" stroke="none"/><path d="M11.9,99L12.1,99L12.1,102L11.9,102z" stroke="none"/><path d="M23.9,81L24.1,81L24.1,83.4L25.6,83.4L25.6,84L25.4,84L25.4,83.6L23.9,83.6z" stroke="none"/><path d="M44.9,99L45.1,99L45.1,99.6L43.1,99.6L43.1,100.1L42.6,100.1L42.6,100.9L43.1,100.9L43.1,101.4L46.4,101.4L46.4,100.9L46.9,100.9L46.9,98.4L47.4,98.4L47.4,97.4L48,97.4L48,97.6L47.6,97.6L47.6,98.6L47.1,98.6L47.1,101.1L46.6,101.1L46.6,101.6L42.9,101.6L42.9,101.1L42.4,101.1L42.4,99.9L42.9,99.9L42.9,99.4L44.9,99.4z" stroke="none"/><path d="M36,17.9L36,18.1L35.6,18.1L35.6,18.6L35.1,18.6L35.1,20.6L34.6,20.6L34.6,21L34.4,21L34.4,20.4L34.9,20.4L34.9,18.4L35.4,18.4L35.4,17.9z" stroke="none"/><path d="M16.5,94.6L16.5,94.4L17.6,94.4L17.6,94.9L18.6,94.9L18.6,95.4L19.6,95.4L19.6,97.5L19.4,97.5L19.4,95.6L18.4,95.6L18.4,95.1L17.4,95.1L17.4,94.6z" stroke="none"/><path d="M31.5,2.9L31.5,3.1L29.4,3.1L29.4,2.1L20.1,2.1L20.1,3.9L21.6,3.9L21.6,4.9L26.6,4.9L26.6,5.4L27.1,5.4L27.1,5.9L28.5,5.9L28.5,6.1L26.9,6.1L26.9,5.6L26.4,5.6L26.4,5.1L21.4,5.1L21.4,4.1L19.9,4.1L19.9,1.9L29.6,1.9L29.6,2.9z" stroke="none"/><path d="M73.4,61.5L73.6,61.5L73.6,66.6L72.6,66.6L72.6,67.1L70.9,67.1L70.9,66.6L70.4,66.6L70.4,66.1L69.4,66.1L69.4,62.1L68.9,62.1L68.9,61.5L69.1,61.5L69.1,61.9L69.6,61.9L69.6,65.9L70.6,65.9L70.6,66.4L71.1,66.4L71.1,66.9L72.4,66.9L72.4,66.4L73.4,66.4z" stroke="none"/><path d="M99,40.4L99,40.6L94.5,40.6L94.5,40.4z" stroke="none"/><path d="M34.6,79.5L34.4,79.5L34.4,75L34.6,75z" stroke="none"/><path d="M21,97.4L21,97.6L20.6,97.6L20.6,98.1L20.1,98.1L20.1,98.6L18.9,98.6L18.9,98.1L18.4,98.1L18.4,97.6L16.5,97.6L16.5,97.4L18.6,97.4L18.6,97.9L19.1,97.9L19.1,98.4L19.9,98.4L19.9,97.9L20.4,97.9L20.4,97.4z" stroke="none"/><path d="M9,28.4L9,28.6L4.5,28.6L4.5,28.4z" stroke="none"/><path d="M5.9,91.5L6.1,91.5L6.1,96L5.9,96z" stroke="none"/><path d="M69,5.9L69,6.1L66.6,6.1L66.6,7.1L65.6,7.1L65.6,7.6L64.5,7.6L64.5,7.4L65.4,7.4L65.4,6.9L66.4,6.9L66.4,5.9z" stroke="none"/><path d="M25.5,25.4L25.5,25.6L24.9,25.6L24.9,24.6L24.4,24.6L24.4,23.6L23.9,23.6L23.9,21L24.1,21L24.1,23.4L24.6,23.4L24.6,24.4L25.1,24.4L25.1,25.4z" stroke="none"/><path d="M74.9,66L75.1,66L75.1,66.6L74.1,66.6L74.1,67.1L73.1,67.1L73.1,67.6L70.5,67.6L70.5,67.4L72.9,67.4L72.9,66.9L73.9,66.9L73.9,66.4L74.9,66.4z" stroke="none"/><path d="M94.5,86.9L94.5,87.1L93.9,87.1L93.9,86.1L91.9,86.1L91.9,85.1L91.4,85.1L91.4,82.5L91.6,82.5L91.6,84.9L92.1,84.9L92.1,85.9L94.1,85.9L94.1,86.9z" stroke="none"/><path d="M67.4,81L67.6,81L67.6,84.4L68.1,84.4L68.1,84.9L68.6,84.9L68.6,85.4L70.5,85.4L70.5,85.6L68.4,85.6L68.4,85.1L67.9,85.1L67.9,84.6L67.4,84.6z" stroke="none"/><path d="M51,58.4L51,58.6L47.6,58.6L47.6,59.1L47.1,59.1L47.1,59.6L45.4,59.6L45.4,55.9L46.9,55.9L46.9,55.4L47.9,55.4L47.9,54L48.1,54L48.1,55.6L47.1,55.6L47.1,56.1L45.6,56.1L45.6,59.4L46.9,59.4L46.9,58.9L47.4,58.9L47.4,58.4z" stroke="none"/><path d="M102,26.9L102,27.1L101.6,27.1L101.6,27.6L101.1,27.6L101.1,28.1L99.6,28.1L99.6,28.6L99.1,28.6L99.1,31.5L98.9,31.5L98.9,28.4L99.4,28.4L99.4,27.9L100.9,27.9L100.9,27.4L101.4,27.4L101.4,26.9z" stroke="none"/><path d="M57,64.6L57,64.4L59.4,64.4L59.4,63.9L59.9,63.9L59.9,63.4L60.4,63.4L60.4,62.9L60.9,62.9L60.9,61.9L61.4,61.9L61.4,61.5L61.6,61.5L61.6,62.1L61.1,62.1L61.1,63.1L60.6,63.1L60.6,63.6L60.1,63.6L60.1,64.1L59.6,64.1L59.6,64.6z" stroke="none"/><path d="M97.5,4.4L97.5,4.6L97.1,4.6L97.1,5.6L91.6,5.6L91.6,6L91.4,6L91.4,5.4L96.9,5.4L96.9,4.4z" stroke="none"/><path d="M93,61.4L93,61.6L88.1,61.6L88.1,62.1L87.6,62.1L87.6,63.1L87,63.1L87,62.9L87.4,62.9L87.4,61.9L87.9,61.9L87.9,61.4z" stroke="none"/><path d="M94.5,49.6L94.5,49.4L95.9,49.4L95.9,48.4L97.4,48.4L97.4,47.9L97.9,47.9L97.9,45.9L98.4,45.9L98.4,44.6L97.9,44.6L97.9,44.1L90.6,44.1L90.6,44.6L90.1,44.6L90.1,47.1L89.6,47.1L89.6,47.6L89.1,47.6L89.1,48.1L88.5,48.1L88.5,47.9L88.9,47.9L88.9,47.4L89.4,47.4L89.4,46.9L89.9,46.9L89.9,44.4L90.4,44.4L90.4,43.9L98.1,43.9L98.1,44.4L98.6,44.4L98.6,46.1L98.1,46.1L98.1,48.1L97.6,48.1L97.6,48.6L96.1,48.6L96.1,49.6z" stroke="none"/><path d="M55.5,54.1L55.5,53.9L56.1,53.9L56.1,54.9L61.1,54.9L61.1,55.4L61.5,55.4L61.5,55.6L60.9,55.6L60.9,55.1L55.9,55.1L55.9,54.1z" stroke="none"/><path d="M28.6,52.5L28.4,52.5L28.4,47.4L29.4,47.4L29.4,46.4L30,46.4L30,46.6L29.6,46.6L29.6,47.6L28.6,47.6z" stroke="none"/><path d="M85.5,42.1L85.5,41.9L85.9,41.9L85.9,40.9L88.1,40.9L88.1,41.4L89.4,41.4L89.4,40.4L91.5,40.4L91.5,40.6L89.6,40.6L89.6,41.6L87.9,41.6L87.9,41.1L86.1,41.1L86.1,42.1z" stroke="none"/><path d="M61.5,10.4L61.5,10.6L60.6,10.6L60.6,11.1L59.1,11.1L59.1,11.6L58.6,11.6L58.6,12.1L55.5,12.1L55.5,11.9L58.4,11.9L58.4,11.4L58.9,11.4L58.9,10.9L60.4,10.9L60.4,10.4z" stroke="none"/><path d="M5.9,21L6.1,21L6.1,22.1L5.6,22.1L5.6,22.6L5.1,22.6L5.1,24.1L4.6,24.1L4.6,27L4.4,27L4.4,23.9L4.9,23.9L4.9,22.4L5.4,22.4L5.4,21.9L5.9,21.9z" stroke="none"/><path d="M62.9,93L63.1,93L63.1,95.4L63.6,95.4L63.6,95.9L64.6,95.9L64.6,96.4L65.6,96.4L65.6,96.9L66.6,96.9L66.6,97.4L67.5,97.4L67.5,97.6L66.4,97.6L66.4,97.1L65.4,97.1L65.4,96.6L64.4,96.6L64.4,96.1L63.4,96.1L63.4,95.6L62.9,95.6z" stroke="none"/><path d="M24.1,30L23.9,30L23.9,29.6L22.9,29.6L22.9,29.1L22.1,29.1L22.1,29.6L21.6,29.6L21.6,30.6L19.6,30.6L19.6,31.1L18.6,31.1L18.6,33.4L19.1,33.4L19.1,33.9L19.6,33.9L19.6,34.5L19.4,34.5L19.4,34.1L18.9,34.1L18.9,33.6L18.4,33.6L18.4,30.9L19.4,30.9L19.4,30.4L21.4,30.4L21.4,29.4L21.9,29.4L21.9,28.9L23.1,28.9L23.1,29.4L24.1,29.4z" stroke="none"/><path d="M56.9,27L57.1,27L57.1,29.1L56.1,29.1L56.1,29.6L55.6,29.6L55.6,30.1L55.1,30.1L55.1,30.6L54.6,30.6L54.6,32.6L54.1,32.6L54.1,33L53.9,33L53.9,32.4L54.4,32.4L54.4,30.4L54.9,30.4L54.9,29.9L55.4,29.9L55.4,29.4L55.9,29.4L55.9,28.9L56.9,28.9z" stroke="none"/><path d="M84,80.9L84,81.1L82.1,81.1L82.1,81.6L81.6,81.6L81.6,82.1L79.6,82.1L79.6,82.6L79.1,82.6L79.1,83.6L78.6,83.6L78.6,84.4L79.1,84.4L79.1,85.4L79.6,85.4L79.6,86.9L81,86.9L81,87.1L79.4,87.1L79.4,85.6L78.9,85.6L78.9,84.6L78.4,84.6L78.4,83.4L78.9,83.4L78.9,82.4L79.4,82.4L79.4,81.9L81.4,81.9L81.4,81.4L81.9,81.4L81.9,80.9z" stroke="none"/><path d="M73.6,39L73.4,39L73.4,33.9L74.4,33.9L74.4,33.4L75.4,33.4L75.4,32.9L76.5,32.9L76.5,33.1L75.6,33.1L75.6,33.6L74.6,33.6L74.6,34.1L73.6,34.1z" stroke="none"/><path d="M4.4,42L4.6,42L4.6,49.5L4.4,49.5z" stroke="none"/><path d="M25.4,72L25.6,72L25.6,75.6L24.6,75.6L24.6,77.1L24.1,77.1L24.1,77.6L21.1,77.6L21.1,78L20.9,78L20.9,77.4L23.9,77.4L23.9,76.9L24.4,76.9L24.4,75.4L25.4,75.4z" stroke="none"/><path d="M91.5,11.9L91.5,12.1L91.1,12.1L91.1,13.1L88.9,13.1L88.9,12.6L85.4,12.6L85.4,12.1L84,12.1L84,11.9L85.6,11.9L85.6,12.4L89.1,12.4L89.1,12.9L90.9,12.9L90.9,11.9z" stroke="none"/><path d="M87.1,15L86.9,15L86.9,14.6L85.9,14.6L85.9,13.6L83.9,13.6L83.9,13.1L82.9,13.1L82.9,9.6L82.4,9.6L82.4,9L82.6,9L82.6,9.4L83.1,9.4L83.1,12.9L84.1,12.9L84.1,13.4L86.1,13.4L86.1,14.4L87.1,14.4z" stroke="none"/><path d="M61.4,57L61.6,57L61.6,58.1L58.6,58.1L58.6,59.6L56.6,59.6L56.6,60.1L56.1,60.1L56.1,61.1L55.6,61.1L55.6,61.5L55.4,61.5L55.4,60.9L55.9,60.9L55.9,59.9L56.4,59.9L56.4,59.4L58.4,59.4L58.4,57.9L61.4,57.9z" stroke="none"/><path d="M91.4,3L91.6,3L91.6,3.6L91.1,3.6L91.1,4.1L90.6,4.1L90.6,6.4L91.1,6.4L91.1,6.9L97.6,6.9L97.6,7.5L97.4,7.5L97.4,7.1L90.9,7.1L90.9,6.6L90.4,6.6L90.4,3.9L90.9,3.9L90.9,3.4L91.4,3.4z" stroke="none"/><path d="M37.4,9L37.6,9L37.6,9.6L34.6,9.6L34.6,10.1L34.1,10.1L34.1,10.6L33.1,10.6L33.1,11.6L32.6,11.6L32.6,12.6L31.6,12.6L31.6,13.5L31.4,13.5L31.4,12.4L32.4,12.4L32.4,11.4L32.9,11.4L32.9,10.4L33.9,10.4L33.9,9.9L34.4,9.9L34.4,9.4L37.4,9.4z" stroke="none"/><path d="M88.6,100.5L88.4,100.5L88.4,99.1L86.4,99.1L86.4,97.1L84.9,97.1L84.9,94.6L84,94.6L84,94.4L85.1,94.4L85.1,96.9L86.6,96.9L86.6,98.9L88.6,98.9z" stroke="none"/><path d="M66.1,46.5L65.9,46.5L65.9,43.9L66.4,43.9L66.4,41.4L67.4,41.4L67.4,39L67.6,39L67.6,41.6L66.6,41.6L66.6,44.1L66.1,44.1z" stroke="none"/><path d="M90.1,18L89.9,18L89.9,14.4L90.9,14.4L90.9,13.9L91.4,13.9L91.4,12.9L92.4,12.9L92.4,11.1L91.4,11.1L91.4,10.5L91.6,10.5L91.6,10.9L92.6,10.9L92.6,13.1L91.6,13.1L91.6,14.1L91.1,14.1L91.1,14.6L90.1,14.6z" stroke="none"/><path d="M87,42.1L87,41.9L91.9,41.9L91.9,40.9L92.4,40.9L92.4,37.6L90.4,37.6L90.4,36.1L88.9,36.1L88.9,35.1L88.4,35.1L88.4,34.5L88.6,34.5L88.6,34.9L89.1,34.9L89.1,35.9L90.6,35.9L90.6,37.4L92.6,37.4L92.6,41.1L92.1,41.1L92.1,42.1z" stroke="none"/><path d="M3.1,93L2.9,93L2.9,89.9L3.4,89.9L3.4,88.9L7.1,88.9L7.1,89.4L7.6,89.4L7.6,89.9L9.6,89.9L9.6,90.9L10.1,90.9L10.1,91.4L10.5,91.4L10.5,91.6L9.9,91.6L9.9,91.1L9.4,91.1L9.4,90.1L7.4,90.1L7.4,89.6L6.9,89.6L6.9,89.1L3.6,89.1L3.6,90.1L3.1,90.1z" stroke="none"/><path d="M41.9,13.5L42.1,13.5L42.1,16.9L42.6,16.9L42.6,18.9L46.9,18.9L46.9,17.4L48.4,17.4L48.4,16.9L48.9,16.9L48.9,16.4L49.5,16.4L49.5,16.6L49.1,16.6L49.1,17.1L48.6,17.1L48.6,17.6L47.1,17.6L47.1,19.1L42.4,19.1L42.4,17.1L41.9,17.1z" stroke="none"/><path d="M39,34.4L39,34.6L33.6,34.6L33.6,35.1L32.6,35.1L32.6,35.6L32.1,35.6L32.1,37.6L31.5,37.6L31.5,37.4L31.9,37.4L31.9,35.4L32.4,35.4L32.4,34.9L33.4,34.9L33.4,34.4z" stroke="none"/><path d="M11.9,3L12.1,3L12.1,5.4L13.1,5.4L13.1,5.9L14.6,5.9L14.6,6.9L15.1,6.9L15.1,7.4L17.6,7.4L17.6,8.4L18.1,8.4L18.1,9L17.9,9L17.9,8.6L17.4,8.6L17.4,7.6L14.9,7.6L14.9,7.1L14.4,7.1L14.4,6.1L12.9,6.1L12.9,5.6L11.9,5.6z" stroke="none"/><path d="M30.1,99L29.9,99L29.9,96.4L30.4,96.4L30.4,95.9L30.9,95.9L30.9,94.9L31.4,94.9L31.4,94.4L31.9,94.4L31.9,93.4L32.4,93.4L32.4,91.9L33.4,91.9L33.4,91.4L34.5,91.4L34.5,91.6L33.6,91.6L33.6,92.1L32.6,92.1L32.6,93.6L32.1,93.6L32.1,94.6L31.6,94.6L31.6,95.1L31.1,95.1L31.1,96.1L30.6,96.1L30.6,96.6L30.1,96.6z" stroke="none"/><path d="M97.5,94.6L97.5,94.4L98.4,94.4L98.4,92.9L98.9,92.9L98.9,92.4L99.4,92.4L99.4,90.9L99.9,90.9L99.9,90.4L100.9,90.4L100.9,88.9L101.4,88.9L101.4,88.1L100.9,88.1L100.9,87.6L98.6,87.6L98.6,88.1L93.6,88.1L93.6,89.1L92.6,89.1L92.6,89.6L91.1,89.6L91.1,90.1L90,90.1L90,89.9L90.9,89.9L90.9,89.4L92.4,89.4L92.4,88.9L93.4,88.9L93.4,87.9L98.4,87.9L98.4,87.4L101.1,87.4L101.1,87.9L101.6,87.9L101.6,89.1L101.1,89.1L101.1,90.6L100.1,90.6L100.1,91.1L99.6,91.1L99.6,92.6L99.1,92.6L99.1,93.1L98.6,93.1L98.6,94.6z" stroke="none"/><path d="M100.6,85.5L100.4,85.5L100.4,79.1L96.9,79.1L96.9,78.6L95.9,78.6L95.9,78L96.1,78L96.1,78.4L97.1,78.4L97.1,78.9L100.6,78.9z" stroke="none"/><path d="M11.9,16.5L12.1,16.5L12.1,21.1L11.6,21.1L11.6,21.6L11.1,21.6L11.1,22.9L11.6,22.9L11.6,23.4L16.6,23.4L16.6,24L16.4,24L16.4,23.6L11.4,23.6L11.4,23.1L10.9,23.1L10.9,21.4L11.4,21.4L11.4,20.9L11.9,20.9z" stroke="none"/><path d="M55.5,37.6L55.5,37.4L64.5,37.4L64.5,37.6z" stroke="none"/><path d="M60,49.6L60,49.4L60.6,49.4L60.6,49.9L62.6,49.9L62.6,50.4L66.4,50.4L66.4,49.4L69,49.4L69,49.6L66.6,49.6L66.6,50.6L62.4,50.6L62.4,50.1L60.4,50.1L60.4,49.6z" stroke="none"/><path d="M36.1,66L35.9,66L35.9,59.4L36.4,59.4L36.4,57.4L37.4,57.4L37.4,57L37.6,57L37.6,57.6L36.6,57.6L36.6,59.6L36.1,59.6z" stroke="none"/><path d="M96.1,4.5L95.9,4.5L95.9,3.4L98.1,3.4L98.1,3.9L98.6,3.9L98.6,13.1L98.1,13.1L98.1,13.6L97.5,13.6L97.5,13.4L97.9,13.4L97.9,12.9L98.4,12.9L98.4,4.1L97.9,4.1L97.9,3.6L96.1,3.6z" stroke="none"/><path d="M97.5,49.6L97.5,49.4L97.9,49.4L97.9,48.9L98.4,48.9L98.4,46.4L98.9,46.4L98.9,43.6L90.1,43.6L90.1,44.1L89.6,44.1L89.6,46.1L87.6,46.1L87.6,48.9L88.1,48.9L88.1,49.9L88.6,49.9L88.6,52.5L88.4,52.5L88.4,50.1L87.9,50.1L87.9,49.1L87.4,49.1L87.4,45.9L89.4,45.9L89.4,43.9L89.9,43.9L89.9,43.4L99.1,43.4L99.1,46.6L98.6,46.6L98.6,49.1L98.1,49.1L98.1,49.6z" stroke="none"/><path d="M96,44.9L96,45.1L95.1,45.1L95.1,46.1L94.1,46.1L94.1,47.1L93.1,47.1L93.1,47.6L90.1,47.6L90.1,48.6L89.1,48.6L89.1,50.9L89.6,50.9L89.6,53.6L87.4,53.6L87.4,50.1L86.9,50.1L86.9,49.5L87.1,49.5L87.1,49.9L87.6,49.9L87.6,53.4L89.4,53.4L89.4,51.1L88.9,51.1L88.9,48.4L89.9,48.4L89.9,47.4L92.9,47.4L92.9,46.9L93.9,46.9L93.9,45.9L94.9,45.9L94.9,44.9z" stroke="none"/><path d="M4.5,72.1L4.5,71.9L7.1,71.9L7.1,73.9L9.6,73.9L9.6,74.4L10.1,74.4L10.1,80.6L9.1,80.6L9.1,81L8.9,81L8.9,80.4L9.9,80.4L9.9,74.6L9.4,74.6L9.4,74.1L6.9,74.1L6.9,72.1z" stroke="none"/><path d="M34.5,96.1L34.5,95.9L37.1,95.9L37.1,96.4L37.6,96.4L37.6,96.9L39.4,96.9L39.4,96.4L43.9,96.4L43.9,95.9L45,95.9L45,96.1L44.1,96.1L44.1,96.6L39.6,96.6L39.6,97.1L37.4,97.1L37.4,96.6L36.9,96.6L36.9,96.1z" stroke="none"/><path d="M4.4,90L4.6,90L4.6,93.1L4.1,93.1L4.1,94.1L2.4,94.1L2.4,93.6L1.9,93.6L1.9,90.9L2.4,90.9L2.4,89.4L2.9,89.4L2.9,88.4L15,88.4L15,88.6L3.1,88.6L3.1,89.6L2.6,89.6L2.6,91.1L2.1,91.1L2.1,93.4L2.6,93.4L2.6,93.9L3.9,93.9L3.9,92.9L4.4,92.9z" stroke="none"/><path d="M49.5,97.6L49.5,97.4L50.1,97.4L50.1,97.9L50.6,97.9L50.6,98.4L51.6,98.4L51.6,98.9L54.6,98.9L54.6,99.9L56.1,99.9L56.1,100.9L56.6,100.9L56.6,101.4L57.1,101.4L57.1,102.4L58.1,102.4L58.1,102.9L58.9,102.9L58.9,102.4L59.4,102.4L59.4,98.9L60,98.9L60,99.1L59.6,99.1L59.6,102.6L59.1,102.6L59.1,103.1L57.9,103.1L57.9,102.6L56.9,102.6L56.9,101.6L56.4,101.6L56.4,101.1L55.9,101.1L55.9,100.1L54.4,100.1L54.4,99.1L51.4,99.1L51.4,98.6L50.4,98.6L50.4,98.1L49.9,98.1L49.9,97.6z" stroke="none"/><path d="M76.5,50.9L76.5,51.1L73.1,51.1L73.1,51.6L72.6,51.6L72.6,52.1L71.4,52.1L71.4,51.6L67.1,51.6L67.1,52.1L66.1,52.1L66.1,52.5L65.9,52.5L65.9,51.9L66.9,51.9L66.9,51.4L71.6,51.4L71.6,51.9L72.4,51.9L72.4,51.4L72.9,51.4L72.9,50.9z" stroke="none"/><path d="M67.4,91.5L67.6,91.5L67.6,93.9L70.6,93.9L70.6,94.4L71.6,94.4L71.6,95.4L72.1,95.4L72.1,96.9L72.6,96.9L72.6,97.9L73.6,97.9L73.6,98.4L75.1,98.4L75.1,99L74.9,99L74.9,98.6L73.4,98.6L73.4,98.1L72.4,98.1L72.4,97.1L71.9,97.1L71.9,95.6L71.4,95.6L71.4,94.6L70.4,94.6L70.4,94.1L67.4,94.1z" stroke="none"/><path d="M67.5,52.6L67.5,52.4L76.4,52.4L76.4,51.9L76.9,51.9L76.9,51.4L77.9,51.4L77.9,51L78.1,51L78.1,51.6L77.1,51.6L77.1,52.1L76.6,52.1L76.6,52.6z" stroke="none"/><path d="M96,67.6L96,67.4L100.4,67.4L100.4,66.9L101.4,66.9L101.4,66.4L102.4,66.4L102.4,64.9L102.9,64.9L102.9,59.6L102.4,59.6L102.4,59.1L101.4,59.1L101.4,58.6L99.9,58.6L99.9,58.1L99.4,58.1L99.4,57.6L90.6,57.6L90.6,58.1L90.1,58.1L90.1,58.5L89.9,58.5L89.9,57.9L90.4,57.9L90.4,57.4L99.6,57.4L99.6,57.9L100.1,57.9L100.1,58.4L101.6,58.4L101.6,58.9L102.6,58.9L102.6,59.4L103.1,59.4L103.1,65.1L102.6,65.1L102.6,66.6L101.6,66.6L101.6,67.1L100.6,67.1L100.6,67.6z" stroke="none"/><path d="M40.6,60L40.4,60L40.4,57.1L39.9,57.1L39.9,56.1L39.4,56.1L39.4,55.6L38.4,55.6L38.4,55.1L36.9,55.1L36.9,54.6L31.9,54.6L31.9,54.1L31.5,54.1L31.5,53.9L32.1,53.9L32.1,54.4L37.1,54.4L37.1,54.9L38.6,54.9L38.6,55.4L39.6,55.4L39.6,55.9L40.1,55.9L40.1,56.9L40.6,56.9z" stroke="none"/><path d="M85.5,40.4L85.5,40.6L79.9,40.6L79.9,40.1L78.9,40.1L78.9,39.6L78.4,39.6L78.4,37.6L77.9,37.6L77.9,36.6L77.4,36.6L77.4,35.1L76.9,35.1L76.9,33.4L77.4,33.4L77.4,32.9L77.9,32.9L77.9,31.9L79.4,31.9L79.4,31.5L79.6,31.5L79.6,32.1L78.1,32.1L78.1,33.1L77.6,33.1L77.6,33.6L77.1,33.6L77.1,34.9L77.6,34.9L77.6,36.4L78.1,36.4L78.1,37.4L78.6,37.4L78.6,39.4L79.1,39.4L79.1,39.9L80.1,39.9L80.1,40.4z" stroke="none"/><path d="M16.6,84L16.4,84L16.4,73.9L18.9,73.9L18.9,73.4L19.5,73.4L19.5,73.6L19.1,73.6L19.1,74.1L16.6,74.1z" stroke="none"/><path d="M100.4,9L100.6,9L100.6,12.6L99.6,12.6L99.6,13.6L98.6,13.6L98.6,14.1L98.1,14.1L98.1,14.6L96.9,14.6L96.9,14.1L96.4,14.1L96.4,11.1L95.9,11.1L95.9,10.6L92.9,10.6L92.9,9.6L91.1,9.6L91.1,10.1L90.6,10.1L90.6,11.6L90.1,11.6L90.1,12L89.9,12L89.9,11.4L90.4,11.4L90.4,9.9L90.9,9.9L90.9,9.4L93.1,9.4L93.1,10.4L96.1,10.4L96.1,10.9L96.6,10.9L96.6,13.9L97.1,13.9L97.1,14.4L97.9,14.4L97.9,13.9L98.4,13.9L98.4,13.4L99.4,13.4L99.4,12.4L100.4,12.4z" stroke="none"/><path d="M90.1,39L89.9,39L89.9,37.1L88.4,37.1L88.4,35.6L87.4,35.6L87.4,33.9L87.9,33.9L87.9,33.4L95.6,33.4L95.6,33.9L96.1,33.9L96.1,34.4L97.6,34.4L97.6,35.4L98.6,35.4L98.6,37.9L99.1,37.9L99.1,38.4L99.6,38.4L99.6,38.9L100.1,38.9L100.1,39.9L100.6,39.9L100.6,42L100.4,42L100.4,40.1L99.9,40.1L99.9,39.1L99.4,39.1L99.4,38.6L98.9,38.6L98.9,38.1L98.4,38.1L98.4,35.6L97.4,35.6L97.4,34.6L95.9,34.6L95.9,34.1L95.4,34.1L95.4,33.6L88.1,33.6L88.1,34.1L87.6,34.1L87.6,35.4L88.6,35.4L88.6,36.9L90.1,36.9z" stroke="none"/><path d="M15,28.6L15,28.4L19.9,28.4L19.9,27.9L20.4,27.9L20.4,26.9L20.9,26.9L20.9,26.4L21.4,26.4L21.4,25.9L21.9,25.9L21.9,20.1L21.4,20.1L21.4,19.6L20.4,19.6L20.4,18.6L19.4,18.6L19.4,18L19.6,18L19.6,18.4L20.6,18.4L20.6,19.4L21.6,19.4L21.6,19.9L22.1,19.9L22.1,26.1L21.6,26.1L21.6,26.6L21.1,26.6L21.1,27.1L20.6,27.1L20.6,28.1L20.1,28.1L20.1,28.6z" stroke="none"/><path d="M95.9,69L96.1,69L96.1,77.1L95.6,77.1L95.6,77.6L95.1,77.6L95.1,78.6L94.6,78.6L94.6,79.1L91.6,79.1L91.6,79.5L91.4,79.5L91.4,78.9L94.4,78.9L94.4,78.4L94.9,78.4L94.9,77.4L95.4,77.4L95.4,76.9L95.9,76.9z" stroke="none"/><path d="M58.4,24L58.6,24L58.6,25.1L58.1,25.1L58.1,29.6L56.6,29.6L56.6,30.1L56.1,30.1L56.1,33.6L55.1,33.6L55.1,34.1L53.6,34.1L53.6,35.1L53.1,35.1L53.1,35.6L52.6,35.6L52.6,37.6L52.1,37.6L52.1,38.6L51.6,38.6L51.6,39.4L52.1,39.4L52.1,39.9L52.9,39.9L52.9,39.4L53.4,39.4L53.4,38.4L53.9,38.4L53.9,37.9L54.4,37.9L54.4,36.9L54.9,36.9L54.9,36.4L59.4,36.4L59.4,35.9L59.9,35.9L59.9,35.4L61.4,35.4L61.4,34.9L62.4,34.9L62.4,34.4L63,34.4L63,34.6L62.6,34.6L62.6,35.1L61.6,35.1L61.6,35.6L60.1,35.6L60.1,36.1L59.6,36.1L59.6,36.6L55.1,36.6L55.1,37.1L54.6,37.1L54.6,38.1L54.1,38.1L54.1,38.6L53.6,38.6L53.6,39.6L53.1,39.6L53.1,40.1L51.9,40.1L51.9,39.6L51.4,39.6L51.4,38.4L51.9,38.4L51.9,37.4L52.4,37.4L52.4,35.4L52.9,35.4L52.9,34.9L53.4,34.9L53.4,33.9L54.9,33.9L54.9,33.4L55.9,33.4L55.9,29.9L56.4,29.9L56.4,29.4L57.9,29.4L57.9,24.9L58.4,24.9z" stroke="none"/><path d="M48,49.4L48,49.6L38.4,49.6L38.4,49.1L37.9,49.1L37.9,48.6L37.4,48.6L37.4,48.1L36.9,48.1L36.9,47.1L36.4,47.1L36.4,45.9L36.9,45.9L36.9,45.4L37.4,45.4L37.4,45L37.6,45L37.6,45.6L37.1,45.6L37.1,46.1L36.6,46.1L36.6,46.9L37.1,46.9L37.1,47.9L37.6,47.9L37.6,48.4L38.1,48.4L38.1,48.9L38.6,48.9L38.6,49.4z" stroke="none"/><path d="M88.4,63L88.6,63L88.6,64.1L86.4,64.1L86.4,63.6L84.9,63.6L84.9,61.6L83.9,61.6L83.9,60.1L83.4,60.1L83.4,59.6L82.9,59.6L82.9,59.1L81.9,59.1L81.9,57.6L81.4,57.6L81.4,54.1L81,54.1L81,53.9L81.6,53.9L81.6,57.4L82.1,57.4L82.1,58.9L83.1,58.9L83.1,59.4L83.6,59.4L83.6,59.9L84.1,59.9L84.1,61.4L85.1,61.4L85.1,63.4L86.6,63.4L86.6,63.9L88.4,63.9z" stroke="none"/><path d="M40.6,21L40.4,21L40.4,9L40.6,9z" stroke="none"/><path d="M101.9,57L102.1,57L102.1,58.4L103.1,58.4L103.1,58.9L103.6,58.9L103.6,68.1L103.1,68.1L103.1,68.6L102.6,68.6L102.6,69.1L102,69.1L102,68.9L102.4,68.9L102.4,68.4L102.9,68.4L102.9,67.9L103.4,67.9L103.4,59.1L102.9,59.1L102.9,58.6L101.9,58.6z" stroke="none"/><path d="M77.9,52.5L78.1,52.5L78.1,64.4L79.5,64.4L79.5,64.6L77.9,64.6z" stroke="none"/><path d="M10.5,97.4L10.5,97.6L3.4,97.6L3.4,97.1L2.4,97.1L2.4,95.6L1.4,95.6L1.4,88.4L1.9,88.4L1.9,87.9L2.9,87.9L2.9,87.4L3.4,87.4L3.4,86.9L4.5,86.9L4.5,87.1L3.6,87.1L3.6,87.6L3.1,87.6L3.1,88.1L2.1,88.1L2.1,88.6L1.6,88.6L1.6,95.4L2.6,95.4L2.6,96.9L3.6,96.9L3.6,97.4z" stroke="none"/><path d="M61.5,40.4L61.5,40.6L51.4,40.6L51.4,40.1L50.9,40.1L50.9,39.6L49.4,39.6L49.4,39L49.6,39L49.6,39.4L51.1,39.4L51.1,39.9L51.6,39.9L51.6,40.4z" stroke="none"/><path d="M69,13.6L69,13.4L79.4,13.4L79.4,12.9L79.9,12.9L79.9,12.4L80.4,12.4L80.4,10.9L80.9,10.9L80.9,10.5L81.1,10.5L81.1,11.1L80.6,11.1L80.6,12.6L80.1,12.6L80.1,13.1L79.6,13.1L79.6,13.6z" stroke="none"/><path d="M6.1,15L5.9,15L5.9,8.4L6.4,8.4L6.4,7.9L6.9,7.9L6.9,5.9L8.4,5.9L8.4,4.4L8.9,4.4L8.9,3L9.1,3L9.1,4.6L8.6,4.6L8.6,6.1L7.1,6.1L7.1,8.1L6.6,8.1L6.6,8.6L6.1,8.6z" stroke="none"/><path d="M13.6,39L13.4,39L13.4,27.9L13.9,27.9L13.9,27.4L16.4,27.4L16.4,27L16.6,27L16.6,27.6L14.1,27.6L14.1,28.1L13.6,28.1z" stroke="none"/><path d="M97.5,83.9L97.5,84.1L93.4,84.1L93.4,83.6L92.9,83.6L92.9,82.1L92.4,82.1L92.4,81.6L91.1,81.6L91.1,82.1L90.6,82.1L90.6,83.4L91.1,83.4L91.1,84.6L90.6,84.6L90.6,85.1L87.1,85.1L87.1,85.6L86.6,85.6L86.6,86.1L86.1,86.1L86.1,86.6L85.6,86.6L85.6,87.1L85.1,87.1L85.1,87.6L84.6,87.6L84.6,89.4L85.1,89.4L85.1,91.4L85.6,91.4L85.6,92.4L88.1,92.4L88.1,92.9L88.5,92.9L88.5,93.1L87.9,93.1L87.9,92.6L85.4,92.6L85.4,91.6L84.9,91.6L84.9,89.6L84.4,89.6L84.4,87.4L84.9,87.4L84.9,86.9L85.4,86.9L85.4,86.4L85.9,86.4L85.9,85.9L86.4,85.9L86.4,85.4L86.9,85.4L86.9,84.9L90.4,84.9L90.4,84.4L90.9,84.4L90.9,83.6L90.4,83.6L90.4,81.9L90.9,81.9L90.9,81.4L92.6,81.4L92.6,81.9L93.1,81.9L93.1,83.4L93.6,83.4L93.6,83.9z" stroke="none"/><path d="M29.9,27L30.1,27L30.1,37.4L30.6,37.4L30.6,37.9L31.1,37.9L31.1,38.4L32.1,38.4L32.1,38.9L34.5,38.9L34.5,39.1L31.9,39.1L31.9,38.6L30.9,38.6L30.9,38.1L30.4,38.1L30.4,37.6L29.9,37.6z" stroke="none"/><path d="M10.4,7.5L10.6,7.5L10.6,12.1L9.6,12.1L9.6,12.6L9.1,12.6L9.1,13.1L8.1,13.1L8.1,17.1L7.6,17.1L7.6,17.6L7.1,17.6L7.1,18.1L6.1,18.1L6.1,18.6L4.6,18.6L4.6,19.5L4.4,19.5L4.4,18.4L5.9,18.4L5.9,17.9L6.9,17.9L6.9,17.4L7.4,17.4L7.4,16.9L7.9,16.9L7.9,12.9L8.9,12.9L8.9,12.4L9.4,12.4L9.4,11.9L10.4,11.9z" stroke="none"/><path d="M7.4,24L7.6,24L7.6,24.4L8.1,24.4L8.1,24.9L8.6,24.9L8.6,25.4L9.1,25.4L9.1,26.9L10.1,26.9L10.1,37.1L9.6,37.1L9.6,37.6L9,37.6L9,37.4L9.4,37.4L9.4,36.9L9.9,36.9L9.9,27.1L8.9,27.1L8.9,25.6L8.4,25.6L8.4,25.1L7.9,25.1L7.9,24.6L7.4,24.6z" stroke="none"/><path d="M4.6,16.5L4.4,16.5L4.4,8.4L4.9,8.4L4.9,6.4L5.4,6.4L5.4,3.9L6.9,3.9L6.9,2.9L7.5,2.9L7.5,3.1L7.1,3.1L7.1,4.1L5.6,4.1L5.6,6.6L5.1,6.6L5.1,8.6L4.6,8.6z" stroke="none"/><path d="M84,89.9L84,90.1L82.9,90.1L82.9,89.6L81.9,89.6L81.9,89.1L80.9,89.1L80.9,88.6L80.4,88.6L80.4,87.6L78.9,87.6L78.9,86.1L78.4,86.1L78.4,85.1L77.9,85.1L77.9,80.4L78.4,80.4L78.4,79.4L79.4,79.4L79.4,77.9L80.9,77.9L80.9,76.5L81.1,76.5L81.1,78.1L79.6,78.1L79.6,79.6L78.6,79.6L78.6,80.6L78.1,80.6L78.1,84.9L78.6,84.9L78.6,85.9L79.1,85.9L79.1,87.4L80.6,87.4L80.6,88.4L81.1,88.4L81.1,88.9L82.1,88.9L82.1,89.4L83.1,89.4L83.1,89.9z" stroke="none"/><path d="M72,51.1L72,50.9L72.4,50.9L72.4,50.4L75.4,50.4L75.4,49.9L79.1,49.9L79.1,59.1L78.6,59.1L78.6,60.4L79.1,60.4L79.1,60.9L81.9,60.9L81.9,60.4L82.4,60.4L82.4,60L82.6,60L82.6,60.6L82.1,60.6L82.1,61.1L78.9,61.1L78.9,60.6L78.4,60.6L78.4,58.9L78.9,58.9L78.9,50.1L75.6,50.1L75.6,50.6L72.6,50.6L72.6,51.1z" stroke="none"/><path d="M42,46.6L42,46.4L45.1,46.4L45.1,46.9L46.6,46.9L46.6,47.4L48.1,47.4L48.1,48.4L48.6,48.4L48.6,48.9L49.1,48.9L49.1,51.1L46.6,51.1L46.6,51.6L46.1,51.6L46.1,52.1L45.6,52.1L45.6,52.6L45.1,52.6L45.1,60L44.9,60L44.9,52.4L45.4,52.4L45.4,51.9L45.9,51.9L45.9,51.4L46.4,51.4L46.4,50.9L48.9,50.9L48.9,49.1L48.4,49.1L48.4,48.6L47.9,48.6L47.9,47.6L46.4,47.6L46.4,47.1L44.9,47.1L44.9,46.6z" stroke="none"/><path d="M70.6,69L70.4,69L70.4,68.4L71.4,68.4L71.4,67.9L74.4,67.9L74.4,66.9L75.4,66.9L75.4,66.4L75.9,66.4L75.9,59.1L74.9,59.1L74.9,58.6L74.4,58.6L74.4,57.6L73.9,57.6L73.9,56.6L73.4,56.6L73.4,55.5L73.6,55.5L73.6,56.4L74.1,56.4L74.1,57.4L74.6,57.4L74.6,58.4L75.1,58.4L75.1,58.9L76.1,58.9L76.1,66.6L75.6,66.6L75.6,67.1L74.6,67.1L74.6,68.1L71.6,68.1L71.6,68.6L70.6,68.6z" stroke="none"/><path d="M3.1,12L2.9,12L2.9,4.9L3.4,4.9L3.4,4.4L3.9,4.4L3.9,3.9L4.4,3.9L4.4,3.4L5.4,3.4L5.4,2.9L5.9,2.9L5.9,2.4L6.9,2.4L6.9,1.9L12.6,1.9L12.6,2.4L13.1,2.4L13.1,3.9L15.1,3.9L15.1,4.5L14.9,4.5L14.9,4.1L12.9,4.1L12.9,2.6L12.4,2.6L12.4,2.1L7.1,2.1L7.1,2.6L6.1,2.6L6.1,3.1L5.6,3.1L5.6,3.6L4.6,3.6L4.6,4.1L4.1,4.1L4.1,4.6L3.6,4.6L3.6,5.1L3.1,5.1z" stroke="none"/><path d="M48.1,67.5L47.9,67.5L47.9,66.1L47.4,66.1L47.4,64.6L46.9,64.6L46.9,64.1L45.9,64.1L45.9,63.6L45.4,63.6L45.4,62.6L44.9,62.6L44.9,62.1L43.9,62.1L43.9,61.6L42.9,61.6L42.9,58.1L42.4,58.1L42.4,56.1L40.4,56.1L40.4,55.5L40.6,55.5L40.6,55.9L42.6,55.9L42.6,57.9L43.1,57.9L43.1,61.4L44.1,61.4L44.1,61.9L45.1,61.9L45.1,62.4L45.6,62.4L45.6,63.4L46.1,63.4L46.1,63.9L47.1,63.9L47.1,64.4L47.6,64.4L47.6,65.9L48.1,65.9z" stroke="none"/><path d="M27.1,18L26.9,18L26.9,14.1L16.4,14.1L16.4,13.1L15.9,13.1L15.9,12.6L15.4,12.6L15.4,11.1L14.9,11.1L14.9,10.5L15.1,10.5L15.1,10.9L15.6,10.9L15.6,12.4L16.1,12.4L16.1,12.9L16.6,12.9L16.6,13.9L27.1,13.9z" stroke="none"/><path d="M46.4,36L46.6,36L46.6,39.4L47.1,39.4L47.1,39.9L47.6,39.9L47.6,40.4L48.6,40.4L48.6,41.4L49.1,41.4L49.1,41.9L50.1,41.9L50.1,42.4L57.6,42.4L57.6,42.9L58.6,42.9L58.6,43.5L58.4,43.5L58.4,43.1L57.4,43.1L57.4,42.6L49.9,42.6L49.9,42.1L48.9,42.1L48.9,41.6L48.4,41.6L48.4,40.6L47.4,40.6L47.4,40.1L46.9,40.1L46.9,39.6L46.4,39.6z" stroke="none"/><path d="M72,3.1L72,2.9L81.1,2.9L81.1,3.4L81.6,3.4L81.6,3.9L83.1,3.9L83.1,4.4L83.6,4.4L83.6,4.9L84.1,4.9L84.1,5.4L84.6,5.4L84.6,6.9L85.1,6.9L85.1,7.4L85.5,7.4L85.5,7.6L84.9,7.6L84.9,7.1L84.4,7.1L84.4,5.6L83.9,5.6L83.9,5.1L83.4,5.1L83.4,4.6L82.9,4.6L82.9,4.1L81.4,4.1L81.4,3.6L80.9,3.6L80.9,3.1z" stroke="none"/><path d="M43.5,4.4L43.5,4.6L41.1,4.6L41.1,5.1L40.1,5.1L40.1,8.6L39.6,8.6L39.6,18.1L39,18.1L39,17.9L39.4,17.9L39.4,8.4L39.9,8.4L39.9,4.9L40.9,4.9L40.9,4.4z" stroke="none"/><path d="M76.4,96L76.6,96L76.6,99.6L75.6,99.6L75.6,100.1L66.1,100.1L66.1,100.6L65.1,100.6L65.1,101.1L64.6,101.1L64.6,101.6L63.1,101.6L63.1,102L62.9,102L62.9,101.4L64.4,101.4L64.4,100.9L64.9,100.9L64.9,100.4L65.9,100.4L65.9,99.9L75.4,99.9L75.4,99.4L76.4,99.4z" stroke="none"/><path d="M11.9,63L12.1,63L12.1,66.9L15.6,66.9L15.6,67.4L16.6,67.4L16.6,67.9L17.1,67.9L17.1,68.9L17.6,68.9L17.6,69.9L19.6,69.9L19.6,70.4L20.6,70.4L20.6,74.6L18.6,74.6L18.6,76.1L18.1,76.1L18.1,76.5L17.9,76.5L17.9,75.9L18.4,75.9L18.4,74.4L20.4,74.4L20.4,70.6L19.4,70.6L19.4,70.1L17.4,70.1L17.4,69.1L16.9,69.1L16.9,68.1L16.4,68.1L16.4,67.6L15.4,67.6L15.4,67.1L11.9,67.1z" stroke="none"/><path d="M39,96.1L39,95.9L41.9,95.9L41.9,94.9L46.1,94.9L46.1,96.6L45.6,96.6L45.6,97.1L44.6,97.1L44.6,97.6L44.1,97.6L44.1,98.1L43.6,98.1L43.6,98.6L43.1,98.6L43.1,99.1L42.6,99.1L42.6,99.6L42.1,99.6L42.1,101.4L42.6,101.4L42.6,101.9L52.5,101.9L52.5,102.1L42.4,102.1L42.4,101.6L41.9,101.6L41.9,99.4L42.4,99.4L42.4,98.9L42.9,98.9L42.9,98.4L43.4,98.4L43.4,97.9L43.9,97.9L43.9,97.4L44.4,97.4L44.4,96.9L45.4,96.9L45.4,96.4L45.9,96.4L45.9,95.1L42.1,95.1L42.1,96.1z" stroke="none"/><path d="M33,7.6L33,7.4L33.6,7.4L33.6,7.9L34.1,7.9L34.1,8.4L36.4,8.4L36.4,7.9L38.1,7.9L38.1,8.4L38.6,8.4L38.6,17.1L38.1,17.1L38.1,20.4L39.1,20.4L39.1,20.9L39.6,20.9L39.6,21.4L40.1,21.4L40.1,21.9L42.4,21.9L42.4,21.4L42.9,21.4L42.9,19.6L42,19.6L42,19.4L43.1,19.4L43.1,21.6L42.6,21.6L42.6,22.1L39.9,22.1L39.9,21.6L39.4,21.6L39.4,21.1L38.9,21.1L38.9,20.6L37.9,20.6L37.9,16.9L38.4,16.9L38.4,8.6L37.9,8.6L37.9,8.1L36.6,8.1L36.6,8.6L33.9,8.6L33.9,8.1L33.4,8.1L33.4,7.6z" stroke="none"/><path d="M36,100.4L36,100.6L35.4,100.6L35.4,99.1L34.9,99.1L34.9,98.1L33.9,98.1L33.9,96.6L33.4,96.6L33.4,94.9L37.4,94.9L37.4,92.4L38.9,92.4L38.9,91.4L39.4,91.4L39.4,90.9L40.4,90.9L40.4,90.4L42.9,90.4L42.9,89.4L43.4,89.4L43.4,88.9L44.4,88.9L44.4,88.4L45,88.4L45,88.6L44.6,88.6L44.6,89.1L43.6,89.1L43.6,89.6L43.1,89.6L43.1,90.6L40.6,90.6L40.6,91.1L39.6,91.1L39.6,91.6L39.1,91.6L39.1,92.6L37.6,92.6L37.6,95.1L33.6,95.1L33.6,96.4L34.1,96.4L34.1,97.9L35.1,97.9L35.1,98.9L35.6,98.9L35.6,100.4z" stroke="none"/><path d="M93.1,30L92.9,30L92.9,26.9L93.4,26.9L93.4,25.9L93.9,25.9L93.9,25.4L95.4,25.4L95.4,24.9L95.9,24.9L95.9,24.4L96.4,24.4L96.4,23.9L96.9,23.9L96.9,22.4L97.9,22.4L97.9,21.4L98.4,21.4L98.4,20.4L99.9,20.4L99.9,19.9L100.9,19.9L100.9,18.9L101.9,18.9L101.9,18L102.1,18L102.1,19.1L101.1,19.1L101.1,20.1L100.1,20.1L100.1,20.6L98.6,20.6L98.6,21.6L98.1,21.6L98.1,22.6L97.1,22.6L97.1,24.1L96.6,24.1L96.6,24.6L96.1,24.6L96.1,25.1L95.6,25.1L95.6,25.6L94.1,25.6L94.1,26.1L93.6,26.1L93.6,27.1L93.1,27.1z" stroke="none"/><path d="M6.1,31.5L5.9,31.5L5.9,31.1L5.4,31.1L5.4,30.6L4.9,30.6L4.9,30.1L4.4,30.1L4.4,29.6L3.9,29.6L3.9,29.1L3.4,29.1L3.4,21.9L3.9,21.9L3.9,21.4L4.9,21.4L4.9,19.9L5.9,19.9L5.9,18.9L7.9,18.9L7.9,17.4L8.4,17.4L8.4,16.9L8.9,16.9L8.9,16.5L9.1,16.5L9.1,17.1L8.6,17.1L8.6,17.6L8.1,17.6L8.1,19.1L6.1,19.1L6.1,20.1L5.1,20.1L5.1,21.6L4.1,21.6L4.1,22.1L3.6,22.1L3.6,28.9L4.1,28.9L4.1,29.4L4.6,29.4L4.6,29.9L5.1,29.9L5.1,30.4L5.6,30.4L5.6,30.9L6.1,30.9z" stroke="none"/><path d="M53.9,51L54.1,51L54.1,62.4L55.9,62.4L55.9,61.9L57.4,61.9L57.4,61.4L57.9,61.4L57.9,60.9L58.4,60.9L58.4,59.9L59.4,59.9L59.4,59.4L60.9,59.4L60.9,58.9L62.6,58.9L62.6,64.6L60.1,64.6L60.1,65.1L57.6,65.1L57.6,65.6L57.1,65.6L57.1,66L56.9,66L56.9,65.4L57.4,65.4L57.4,64.9L59.9,64.9L59.9,64.4L62.4,64.4L62.4,59.1L61.1,59.1L61.1,59.6L59.6,59.6L59.6,60.1L58.6,60.1L58.6,61.1L58.1,61.1L58.1,61.6L57.6,61.6L57.6,62.1L56.1,62.1L56.1,62.6L53.9,62.6z" stroke="none"/><path d="M31.5,79.4L31.5,79.6L24.6,79.6L24.6,80.1L23.1,80.1L23.1,83.1L22.1,83.1L22.1,83.6L21.6,83.6L21.6,86.1L19.6,86.1L19.6,86.6L18.6,86.6L18.6,87.1L18,87.1L18,86.9L18.4,86.9L18.4,86.4L19.4,86.4L19.4,85.9L21.4,85.9L21.4,83.4L21.9,83.4L21.9,82.9L22.9,82.9L22.9,79.9L24.4,79.9L24.4,79.4z" stroke="none"/><path d="M41.9,87L42.1,87L42.1,88.1L41.1,88.1L41.1,88.6L40.6,88.6L40.6,89.1L39.6,89.1L39.6,89.6L39.1,89.6L39.1,90.6L38.1,90.6L38.1,91.1L37.6,91.1L37.6,92.1L37.1,92.1L37.1,93.1L36.1,93.1L36.1,93.6L34.1,93.6L34.1,94.1L33.6,94.1L33.6,94.6L33.1,94.6L33.1,99.4L34.1,99.4L34.1,99.9L34.6,99.9L34.6,100.5L34.4,100.5L34.4,100.1L33.9,100.1L33.9,99.6L32.9,99.6L32.9,94.4L33.4,94.4L33.4,93.9L33.9,93.9L33.9,93.4L35.9,93.4L35.9,92.9L36.9,92.9L36.9,91.9L37.4,91.9L37.4,90.9L37.9,90.9L37.9,90.4L38.9,90.4L38.9,89.4L39.4,89.4L39.4,88.9L40.4,88.9L40.4,88.4L40.9,88.4L40.9,87.9L41.9,87.9z" stroke="none"/><path d="M46.6,12L46.4,12L46.4,11.4L46.9,11.4L46.9,10.9L47.9,10.9L47.9,9.4L48.4,9.4L48.4,8.9L48.9,8.9L48.9,7.4L49.4,7.4L49.4,6.4L49.9,6.4L49.9,5.9L50.4,5.9L50.4,5.4L54.4,5.4L54.4,4.4L56.4,4.4L56.4,3.9L58.4,3.9L58.4,3.4L60.6,3.4L60.6,3.9L61.1,3.9L61.1,7.4L61.5,7.4L61.5,7.6L60.9,7.6L60.9,4.1L60.4,4.1L60.4,3.6L58.6,3.6L58.6,4.1L56.6,4.1L56.6,4.6L54.6,4.6L54.6,5.6L50.6,5.6L50.6,6.1L50.1,6.1L50.1,6.6L49.6,6.6L49.6,7.6L49.1,7.6L49.1,9.1L48.6,9.1L48.6,9.6L48.1,9.6L48.1,11.1L47.1,11.1L47.1,11.6L46.6,11.6z" stroke="none"/><path d="M94.5,13.6L94.5,13.4L96.1,13.4L96.1,14.9L98.4,14.9L98.4,14.4L98.9,14.4L98.9,13.9L99.9,13.9L99.9,12.9L100.9,12.9L100.9,9.9L101.4,9.9L101.4,8.6L100.9,8.6L100.9,6.1L100.4,6.1L100.4,5.6L99.9,5.6L99.9,4.6L99.4,4.6L99.4,3.1L94.4,3.1L94.4,2.6L93.9,2.6L93.9,2.1L85.1,2.1L85.1,2.6L83.1,2.6L83.1,3.1L82.5,3.1L82.5,2.9L82.9,2.9L82.9,2.4L84.9,2.4L84.9,1.9L94.1,1.9L94.1,2.4L94.6,2.4L94.6,2.9L99.6,2.9L99.6,4.4L100.1,4.4L100.1,5.4L100.6,5.4L100.6,5.9L101.1,5.9L101.1,8.4L101.6,8.4L101.6,10.1L101.1,10.1L101.1,13.1L100.1,13.1L100.1,14.1L99.1,14.1L99.1,14.6L98.6,14.6L98.6,15.1L95.9,15.1L95.9,13.6z" stroke="none"/><path d="M43.6,73.5L43.4,73.5L43.4,72.1L42.9,72.1L42.9,71.6L41.9,71.6L41.9,71.1L40.9,71.1L40.9,70.6L39.9,70.6L39.9,70.1L38.4,70.1L38.4,69.6L37.9,69.6L37.9,58.6L37.5,58.6L37.5,58.4L38.1,58.4L38.1,69.4L38.6,69.4L38.6,69.9L40.1,69.9L40.1,70.4L41.1,70.4L41.1,70.9L42.1,70.9L42.1,71.4L43.1,71.4L43.1,71.9L43.6,71.9z" stroke="none"/><path d="M19.5,12.1L19.5,11.9L26.4,11.9L26.4,11.4L27.4,11.4L27.4,10.9L27.9,10.9L27.9,9.6L24.9,9.6L24.9,9.1L23.9,9.1L23.9,8.6L23.4,8.6L23.4,8.1L20.9,8.1L20.9,7.6L20.4,7.6L20.4,6.6L19.9,6.6L19.9,6.1L17.4,6.1L17.4,4.6L16.9,4.6L16.9,3.6L14.4,3.6L14.4,2.1L13.9,2.1L13.9,1.6L6.1,1.6L6.1,2.1L5.6,2.1L5.6,2.6L4.1,2.6L4.1,3.1L3.6,3.1L3.6,4.1L3.1,4.1L3.1,4.6L2.6,4.6L2.6,11.6L2.1,11.6L2.1,12.4L2.6,12.4L2.6,12.9L3.9,12.9L3.9,5.9L4.5,5.9L4.5,6.1L4.1,6.1L4.1,13.1L2.4,13.1L2.4,12.6L1.9,12.6L1.9,11.4L2.4,11.4L2.4,4.4L2.9,4.4L2.9,3.9L3.4,3.9L3.4,2.9L3.9,2.9L3.9,2.4L5.4,2.4L5.4,1.9L5.9,1.9L5.9,1.4L14.1,1.4L14.1,1.9L14.6,1.9L14.6,3.4L17.1,3.4L17.1,4.4L17.6,4.4L17.6,5.9L20.1,5.9L20.1,6.4L20.6,6.4L20.6,7.4L21.1,7.4L21.1,7.9L23.6,7.9L23.6,8.4L24.1,8.4L24.1,8.9L25.1,8.9L25.1,9.4L28.1,9.4L28.1,11.1L27.6,11.1L27.6,11.6L26.6,11.6L26.6,12.1z" stroke="none"/><path d="M101.9,4.5L102.1,4.5L102.1,6.4L103.1,6.4L103.1,13.6L102.6,13.6L102.6,14.1L101.6,14.1L101.6,14.6L101.1,14.6L101.1,15.1L100.6,15.1L100.6,15.6L99.6,15.6L99.6,16.1L92.1,16.1L92.1,16.6L91.6,16.6L91.6,18.1L91.1,18.1L91.1,19.1L89.4,19.1L89.4,18.6L88.9,18.6L88.9,13.6L88.5,13.6L88.5,13.4L89.1,13.4L89.1,18.4L89.6,18.4L89.6,18.9L90.9,18.9L90.9,17.9L91.4,17.9L91.4,16.4L91.9,16.4L91.9,15.9L99.4,15.9L99.4,15.4L100.4,15.4L100.4,14.9L100.9,14.9L100.9,14.4L101.4,14.4L101.4,13.9L102.4,13.9L102.4,13.4L102.9,13.4L102.9,6.6L101.9,6.6z" stroke="none"/><path d="M100.4,31.5L100.6,31.5L100.6,39.4L101.1,39.4L101.1,41.4L101.6,41.4L101.6,47.4L102.1,47.4L102.1,48L101.9,48L101.9,47.6L101.4,47.6L101.4,41.6L100.9,41.6L100.9,39.6L100.4,39.6z" stroke="none"/><path d="M31.6,19.5L31.4,19.5L31.4,14.6L30.4,14.6L30.4,10.1L29.4,10.1L29.4,9.6L28.9,9.6L28.9,9.1L27.4,9.1L27.4,8.6L26.4,8.6L26.4,8.1L25.9,8.1L25.9,7.6L21.4,7.6L21.4,7.1L20.9,7.1L20.9,5.6L20.4,5.6L20.4,5.1L19.4,5.1L19.4,1.4L32.1,1.4L32.1,2.4L32.6,2.4L32.6,3.6L32.1,3.6L32.1,4.1L30.4,4.1L30.4,3.6L28.9,3.6L28.9,3.1L28.5,3.1L28.5,2.9L29.1,2.9L29.1,3.4L30.6,3.4L30.6,3.9L31.9,3.9L31.9,3.4L32.4,3.4L32.4,2.6L31.9,2.6L31.9,1.6L19.6,1.6L19.6,4.9L20.6,4.9L20.6,5.4L21.1,5.4L21.1,6.9L21.6,6.9L21.6,7.4L26.1,7.4L26.1,7.9L26.6,7.9L26.6,8.4L27.6,8.4L27.6,8.9L29.1,8.9L29.1,9.4L29.6,9.4L29.6,9.9L30.6,9.9L30.6,14.4L31.6,14.4z" stroke="none"/><path d="M79.5,81.1L79.5,80.9L79.9,80.9L79.9,78.9L80.9,78.9L80.9,78.4L81.4,78.4L81.4,77.4L81.9,77.4L81.9,76.1L81.4,76.1L81.4,75.6L80.6,75.6L80.6,76.1L80.1,76.1L80.1,76.6L79.6,76.6L79.6,77.1L78.1,77.1L78.1,80.1L77.6,80.1L77.6,89.4L78.1,89.4L78.1,90.4L78.6,90.4L78.6,90.9L79.1,90.9L79.1,92.9L79.6,92.9L79.6,93.4L80.6,93.4L80.6,95.4L81.1,95.4L81.1,96.9L82.6,96.9L82.6,97.5L82.4,97.5L82.4,97.1L80.9,97.1L80.9,95.6L80.4,95.6L80.4,93.6L79.4,93.6L79.4,93.1L78.9,93.1L78.9,91.1L78.4,91.1L78.4,90.6L77.9,90.6L77.9,89.6L77.4,89.6L77.4,79.9L77.9,79.9L77.9,76.9L79.4,76.9L79.4,76.4L79.9,76.4L79.9,75.9L80.4,75.9L80.4,75.4L81.6,75.4L81.6,75.9L82.1,75.9L82.1,77.6L81.6,77.6L81.6,78.6L81.1,78.6L81.1,79.1L80.1,79.1L80.1,81.1z" stroke="none"/><path d="M78.1,91.5L77.9,91.5L77.9,91.1L77.4,91.1L77.4,90.6L76.9,90.6L76.9,76.9L77.4,76.9L77.4,76.4L78.4,76.4L78.4,75.9L79.4,75.9L79.4,75.4L79.9,75.4L79.9,74.9L85.1,74.9L85.1,75.9L85.6,75.9L85.6,76.5L85.4,76.5L85.4,76.1L84.9,76.1L84.9,75.1L80.1,75.1L80.1,75.6L79.6,75.6L79.6,76.1L78.6,76.1L78.6,76.6L77.6,76.6L77.6,77.1L77.1,77.1L77.1,90.4L77.6,90.4L77.6,90.9L78.1,90.9z" stroke="none"/><path d="M13.4,94.5L13.6,94.5L13.6,98.4L16.6,98.4L16.6,98.9L27.4,98.9L27.4,97.9L27.9,97.9L27.9,90.4L28.9,90.4L28.9,89.9L30,89.9L30,90.1L29.1,90.1L29.1,90.6L28.1,90.6L28.1,98.1L27.6,98.1L27.6,99.1L16.4,99.1L16.4,98.6L13.4,98.6z" stroke="none"/><path d="M5.9,7.5L6.1,7.5L6.1,8.1L5.6,8.1L5.6,14.1L5.1,14.1L5.1,15.4L5.6,15.4L5.6,15.9L6.9,15.9L6.9,8.4L7.4,8.4L7.4,6.9L9.4,6.9L9.4,6.4L11.1,6.4L11.1,6.9L11.6,6.9L11.6,8.1L11.1,8.1L11.1,18.9L11.6,18.9L11.6,20.1L11.1,20.1L11.1,21.1L10.6,21.1L10.6,23.9L13.6,23.9L13.6,24.4L16.1,24.4L16.1,24.9L16.9,24.9L16.9,24.4L17.4,24.4L17.4,23.1L16.9,23.1L16.9,22.6L15,22.6L15,22.4L17.1,22.4L17.1,22.9L17.6,22.9L17.6,24.6L17.1,24.6L17.1,25.1L15.9,25.1L15.9,24.6L13.4,24.6L13.4,24.1L10.4,24.1L10.4,20.9L10.9,20.9L10.9,19.9L11.4,19.9L11.4,19.1L10.9,19.1L10.9,7.9L11.4,7.9L11.4,7.1L10.9,7.1L10.9,6.6L9.6,6.6L9.6,7.1L7.6,7.1L7.6,8.6L7.1,8.6L7.1,16.1L5.4,16.1L5.4,15.6L4.9,15.6L4.9,13.9L5.4,13.9L5.4,7.9L5.9,7.9z" stroke="none"/><path d="M84.1,49.5L83.9,49.5L83.9,45.4L85.4,45.4L85.4,44.9L87.9,44.9L87.9,43.4L88.4,43.4L88.4,42.9L99.6,42.9L99.6,54.9L100.1,54.9L100.1,56.1L99.6,56.1L99.6,56.6L91.1,56.6L91.1,57.1L90.1,57.1L90.1,57.6L89.6,57.6L89.6,58.1L89.1,58.1L89.1,59.4L91.6,59.4L91.6,59.9L94.1,59.9L94.1,62.6L91.1,62.6L91.1,63.6L90.6,63.6L90.6,64.1L90.1,64.1L90.1,64.6L82.6,64.6L82.6,65.6L77.9,65.6L77.9,65.1L77.4,65.1L77.4,55.6L75.4,55.6L75.4,55.1L74.9,55.1L74.9,54.6L68.9,54.6L68.9,54.1L67.4,54.1L67.4,53.6L65.4,53.6L65.4,53.1L64.9,53.1L64.9,51.4L66.4,51.4L66.4,50.9L69.4,50.9L69.4,50.4L69.9,50.4L69.9,49.1L69.4,49.1L69.4,48.6L66.9,48.6L66.9,48.1L66,48.1L66,47.9L67.1,47.9L67.1,48.4L69.6,48.4L69.6,48.9L70.1,48.9L70.1,50.6L69.6,50.6L69.6,51.1L66.6,51.1L66.6,51.6L65.1,51.6L65.1,52.9L65.6,52.9L65.6,53.4L67.6,53.4L67.6,53.9L69.1,53.9L69.1,54.4L75.1,54.4L75.1,54.9L75.6,54.9L75.6,55.4L77.6,55.4L77.6,64.9L78.1,64.9L78.1,65.4L82.4,65.4L82.4,64.4L89.9,64.4L89.9,63.9L90.4,63.9L90.4,63.4L90.9,63.4L90.9,62.4L93.9,62.4L93.9,60.1L91.4,60.1L91.4,59.6L88.9,59.6L88.9,57.9L89.4,57.9L89.4,57.4L89.9,57.4L89.9,56.9L90.9,56.9L90.9,56.4L99.4,56.4L99.4,55.9L99.9,55.9L99.9,55.1L99.4,55.1L99.4,43.1L88.6,43.1L88.6,43.6L88.1,43.6L88.1,45.1L85.6,45.1L85.6,45.6L84.1,45.6z" stroke="none"/><path d="M51.1,30L50.9,30L50.9,26.9L51.4,26.9L51.4,25.9L51.9,25.9L51.9,23.9L52.4,23.9L52.4,23.4L54.4,23.4L54.4,22.4L54.9,22.4L54.9,19.9L55.9,19.9L55.9,19.4L56.4,19.4L56.4,18.9L56.9,18.9L56.9,18.4L57.4,18.4L57.4,17.9L58.9,17.9L58.9,17.4L59.4,17.4L59.4,16.9L62.4,16.9L62.4,16.4L63.4,16.4L63.4,15.4L63.9,15.4L63.9,12.6L62.1,12.6L62.1,13.1L59.1,13.1L59.1,13.6L58.5,13.6L58.5,13.4L58.9,13.4L58.9,12.9L61.9,12.9L61.9,12.4L64.1,12.4L64.1,15.6L63.6,15.6L63.6,16.6L62.6,16.6L62.6,17.1L59.6,17.1L59.6,17.6L59.1,17.6L59.1,18.1L57.6,18.1L57.6,18.6L57.1,18.6L57.1,19.1L56.6,19.1L56.6,19.6L56.1,19.6L56.1,20.1L55.1,20.1L55.1,22.6L54.6,22.6L54.6,23.6L52.6,23.6L52.6,24.1L52.1,24.1L52.1,26.1L51.6,26.1L51.6,27.1L51.1,27.1z" stroke="none"/><path d="M102.1,7.5L101.9,7.5L101.9,7.1L101.4,7.1L101.4,5.1L100.9,5.1L100.9,3.4L102.6,3.4L102.6,3.9L103.1,3.9L103.1,5.9L103.6,5.9L103.6,15.1L102.6,15.1L102.6,15.6L101.6,15.6L101.6,16.6L99.6,16.6L99.6,17.1L99.1,17.1L99.1,18.6L97.6,18.6L97.6,19.1L96.1,19.1L96.1,21.6L95.6,21.6L95.6,22.6L95.1,22.6L95.1,23.1L94.6,23.1L94.6,24L94.4,24L94.4,22.9L94.9,22.9L94.9,22.4L95.4,22.4L95.4,21.4L95.9,21.4L95.9,18.9L97.4,18.9L97.4,18.4L98.9,18.4L98.9,16.9L99.4,16.9L99.4,16.4L101.4,16.4L101.4,15.4L102.4,15.4L102.4,14.9L103.4,14.9L103.4,6.1L102.9,6.1L102.9,4.1L102.4,4.1L102.4,3.6L101.1,3.6L101.1,4.9L101.6,4.9L101.6,6.9L102.1,6.9z" stroke="none"/><path d="M91.5,64.4L91.5,64.6L90.6,64.6L90.6,65.1L85.1,65.1L85.1,65.6L84.6,65.6L84.6,67.1L84.1,67.1L84.1,68.1L83.6,68.1L83.6,68.6L83.1,68.6L83.1,70.6L82.6,70.6L82.6,72.6L81.6,72.6L81.6,73.6L79.6,73.6L79.6,74.1L78.6,74.1L78.6,74.6L78.1,74.6L78.1,75.1L76.5,75.1L76.5,74.9L77.9,74.9L77.9,74.4L78.4,74.4L78.4,73.9L79.4,73.9L79.4,73.4L81.4,73.4L81.4,72.4L82.4,72.4L82.4,70.4L82.9,70.4L82.9,68.4L83.4,68.4L83.4,67.9L83.9,67.9L83.9,66.9L84.4,66.9L84.4,65.4L84.9,65.4L84.9,64.9L90.4,64.9L90.4,64.4z" stroke="none"/><path d="M6,67.6L6,67.4L6.4,67.4L6.4,66.4L8.4,66.4L8.4,65.9L9.4,65.9L9.4,62.9L10.4,62.9L10.4,62.4L11.4,62.4L11.4,61.9L20.6,61.9L20.6,62.4L22.6,62.4L22.6,62.9L24,62.9L24,63.1L22.4,63.1L22.4,62.6L20.4,62.6L20.4,62.1L11.6,62.1L11.6,62.6L10.6,62.6L10.6,63.1L9.6,63.1L9.6,66.1L8.6,66.1L8.6,66.6L6.6,66.6L6.6,67.6z" stroke="none"/><path d="M61.6,12L61.4,12L61.4,11.4L61.9,11.4L61.9,10.9L62.4,10.9L62.4,7.1L61.9,7.1L61.9,6.6L61.4,6.6L61.4,3.1L56.1,3.1L56.1,4.1L51.1,4.1L51.1,4.6L49.6,4.6L49.6,5.1L46.6,5.1L46.6,5.6L45.6,5.6L45.6,7.1L44.6,7.1L44.6,7.6L43.5,7.6L43.5,7.4L44.4,7.4L44.4,6.9L45.4,6.9L45.4,5.4L46.4,5.4L46.4,4.9L49.4,4.9L49.4,4.4L50.9,4.4L50.9,3.9L55.9,3.9L55.9,2.9L61.6,2.9L61.6,6.4L62.1,6.4L62.1,6.9L62.6,6.9L62.6,11.1L62.1,11.1L62.1,11.6L61.6,11.6z" stroke="none"/><path d="M48,3.1L48,2.9L51.4,2.9L51.4,1.9L61.6,1.9L61.6,2.4L62.1,2.4L62.1,5.4L62.6,5.4L62.6,5.9L63.1,5.9L63.1,10.9L64.6,10.9L64.6,12L64.4,12L64.4,11.1L62.9,11.1L62.9,6.1L62.4,6.1L62.4,5.6L61.9,5.6L61.9,2.6L61.4,2.6L61.4,2.1L51.6,2.1L51.6,3.1z" stroke="none"/><path d="M61.6,93L61.4,93L61.4,92.4L62.4,92.4L62.4,91.9L65.9,91.9L65.9,91.4L66.4,91.4L66.4,90.4L68.6,90.4L68.6,90.9L70.6,90.9L70.6,91.4L72.1,91.4L72.1,91.9L74.1,91.9L74.1,92.4L75.1,92.4L75.1,93.4L75.6,93.4L75.6,93.9L76.6,93.9L76.6,94.4L77.1,94.4L77.1,94.9L77.6,94.9L77.6,96.4L78.6,96.4L78.6,97.9L79.6,97.9L79.6,99L79.4,99L79.4,98.1L78.4,98.1L78.4,96.6L77.4,96.6L77.4,95.1L76.9,95.1L76.9,94.6L76.4,94.6L76.4,94.1L75.4,94.1L75.4,93.6L74.9,93.6L74.9,92.6L73.9,92.6L73.9,92.1L71.9,92.1L71.9,91.6L70.4,91.6L70.4,91.1L68.4,91.1L68.4,90.6L66.6,90.6L66.6,91.6L66.1,91.6L66.1,92.1L62.6,92.1L62.6,92.6L61.6,92.6z" stroke="none"/><path d="M63,14.9L63,15.1L60.6,15.1L60.6,15.6L58.6,15.6L58.6,16.1L58.1,16.1L58.1,16.6L57.1,16.6L57.1,17.6L56.1,17.6L56.1,18.6L55.6,18.6L55.6,19.6L54.6,19.6L54.6,21.1L54.1,21.1L54.1,22.1L52.6,22.1L52.6,23.1L51.6,23.1L51.6,25.6L51.1,25.6L51.1,26.1L49.1,26.1L49.1,26.6L48.6,26.6L48.6,27.1L48,27.1L48,26.9L48.4,26.9L48.4,26.4L48.9,26.4L48.9,25.9L50.9,25.9L50.9,25.4L51.4,25.4L51.4,22.9L52.4,22.9L52.4,21.9L53.9,21.9L53.9,20.9L54.4,20.9L54.4,19.4L55.4,19.4L55.4,18.4L55.9,18.4L55.9,17.4L56.9,17.4L56.9,16.4L57.9,16.4L57.9,15.9L58.4,15.9L58.4,15.4L60.4,15.4L60.4,14.9z" stroke="none"/><path d="M97.6,25.5L97.4,25.5L97.4,24.9L97.9,24.9L97.9,24.4L98.4,24.4L98.4,22.4L99.4,22.4L99.4,21.9L101.9,21.9L101.9,19.4L102.4,19.4L102.4,18.4L102.9,18.4L102.9,15.4L103.9,15.4L103.9,5.1L103.4,5.1L103.4,3.6L102.9,3.6L102.9,3.1L102.4,3.1L102.4,2.6L95.9,2.6L95.9,2.1L94.9,2.1L94.9,1.6L72.1,1.6L72.1,2.1L71.6,2.1L71.6,2.6L71.1,2.6L71.1,3.4L71.6,3.4L71.6,3.9L80.1,3.9L80.1,4.4L82.1,4.4L82.1,4.9L83.1,4.9L83.1,5.4L83.6,5.4L83.6,9.9L84.1,9.9L84.1,10.4L85.5,10.4L85.5,10.6L83.9,10.6L83.9,10.1L83.4,10.1L83.4,5.6L82.9,5.6L82.9,5.1L81.9,5.1L81.9,4.6L79.9,4.6L79.9,4.1L71.4,4.1L71.4,3.6L70.9,3.6L70.9,2.4L71.4,2.4L71.4,1.9L71.9,1.9L71.9,1.4L95.1,1.4L95.1,1.9L96.1,1.9L96.1,2.4L102.6,2.4L102.6,2.9L103.1,2.9L103.1,3.4L103.6,3.4L103.6,4.9L104.1,4.9L104.1,15.6L103.1,15.6L103.1,18.6L102.6,18.6L102.6,19.6L102.1,19.6L102.1,22.1L99.6,22.1L99.6,22.6L98.6,22.6L98.6,24.6L98.1,24.6L98.1,25.1L97.6,25.1z" stroke="none"/><path d="M33.1,25.5L32.9,25.5L32.9,23.9L33.4,23.9L33.4,23.4L33.9,23.4L33.9,22.9L34.4,22.9L34.4,22.4L36.4,22.4L36.4,21.4L39.1,21.4L39.1,22.4L44.4,22.4L44.4,21.4L44.9,21.4L44.9,20.9L45.4,20.9L45.4,20.4L45.9,20.4L45.9,19.9L48.9,19.9L48.9,17.9L51,17.9L51,18.1L49.1,18.1L49.1,20.1L46.1,20.1L46.1,20.6L45.6,20.6L45.6,21.1L45.1,21.1L45.1,21.6L44.6,21.6L44.6,22.6L38.9,22.6L38.9,21.6L36.6,21.6L36.6,22.6L34.6,22.6L34.6,23.1L34.1,23.1L34.1,23.6L33.6,23.6L33.6,24.1L33.1,24.1z" stroke="none"/><path d="M4.6,69L4.4,69L4.4,67.4L4.9,67.4L4.9,66.9L5.4,66.9L5.4,66.4L5.9,66.4L5.9,64.9L8.9,64.9L8.9,62.4L9.4,62.4L9.4,61.4L22.5,61.4L22.5,61.6L9.6,61.6L9.6,62.6L9.1,62.6L9.1,65.1L6.1,65.1L6.1,66.6L5.6,66.6L5.6,67.1L5.1,67.1L5.1,67.6L4.6,67.6z" stroke="none"/><path d="M37.5,14.9L37.5,15.1L36.1,15.1L36.1,15.6L35.6,15.6L35.6,17.6L33.6,17.6L33.6,19.6L32.6,19.6L32.6,20.6L25.9,20.6L25.9,20.1L24.9,20.1L24.9,19.6L24.4,19.6L24.4,18.6L22.9,18.6L22.9,17.6L22.4,17.6L22.4,17.1L19.1,17.1L19.1,17.6L18.6,17.6L18.6,22.9L19.1,22.9L19.1,23.4L19.6,23.4L19.6,23.9L20.1,23.9L20.1,24.9L20.6,24.9L20.6,25.4L21,25.4L21,25.6L20.4,25.6L20.4,25.1L19.9,25.1L19.9,24.1L19.4,24.1L19.4,23.6L18.9,23.6L18.9,23.1L18.4,23.1L18.4,17.4L18.9,17.4L18.9,16.9L22.6,16.9L22.6,17.4L23.1,17.4L23.1,18.4L24.6,18.4L24.6,19.4L25.1,19.4L25.1,19.9L26.1,19.9L26.1,20.4L32.4,20.4L32.4,19.4L33.4,19.4L33.4,17.4L35.4,17.4L35.4,15.4L35.9,15.4L35.9,14.9z" stroke="none"/><path d="M40.5,50.9L40.5,51.1L32.6,51.1L32.6,52.6L31.1,52.6L31.1,53.1L30.6,53.1L30.6,67.1L30.1,67.1L30.1,67.5L29.9,67.5L29.9,66.9L30.4,66.9L30.4,52.9L30.9,52.9L30.9,52.4L32.4,52.4L32.4,50.9z" stroke="none"/><path d="M35.9,55.5L36.1,55.5L36.1,58.6L35.6,58.6L35.6,63.1L35.1,63.1L35.1,63.6L34.1,63.6L34.1,64.1L33.6,64.1L33.6,65.6L32.6,65.6L32.6,67.1L31.1,67.1L31.1,68.1L30.6,68.1L30.6,68.6L29.4,68.6L29.4,68.1L28.9,68.1L28.9,65.4L29.4,65.4L29.4,52.4L29.9,52.4L29.9,51.9L30.9,51.9L30.9,51.4L31.4,51.4L31.4,50.9L31.9,50.9L31.9,48.9L32.4,48.9L32.4,48.4L32.9,48.4L32.9,47.9L33.4,47.9L33.4,47.4L34.4,47.4L34.4,46.9L34.9,46.9L34.9,45.4L35.4,45.4L35.4,44.4L36.4,44.4L36.4,43.9L36.9,43.9L36.9,43.4L38.4,43.4L38.4,41.6L37.9,41.6L37.9,41.1L36.6,41.1L36.6,41.6L35.6,41.6L35.6,42.6L35.1,42.6L35.1,43.1L33.4,43.1L33.4,41.6L31.9,41.6L31.9,40.6L31.4,40.6L31.4,40.1L30.9,40.1L30.9,39.1L29.9,39.1L29.9,38.6L29.4,38.6L29.4,27.6L28.9,27.6L28.9,25.9L32.6,25.9L32.6,26.4L34.1,26.4L34.1,26.9L35.6,26.9L35.6,27.4L36.1,27.4L36.1,27.9L36.6,27.9L36.6,28.4L37.1,28.4L37.1,29.4L37.6,29.4L37.6,32.4L39.6,32.4L39.6,33.9L40.1,33.9L40.1,35.1L39.6,35.1L39.6,35.6L33.6,35.6L33.6,36.1L33,36.1L33,35.9L33.4,35.9L33.4,35.4L39.4,35.4L39.4,34.9L39.9,34.9L39.9,34.1L39.4,34.1L39.4,32.6L37.4,32.6L37.4,29.6L36.9,29.6L36.9,28.6L36.4,28.6L36.4,28.1L35.9,28.1L35.9,27.6L35.4,27.6L35.4,27.1L33.9,27.1L33.9,26.6L32.4,26.6L32.4,26.1L29.1,26.1L29.1,27.4L29.6,27.4L29.6,38.4L30.1,38.4L30.1,38.9L31.1,38.9L31.1,39.9L31.6,39.9L31.6,40.4L32.1,40.4L32.1,41.4L33.6,41.4L33.6,42.9L34.9,42.9L34.9,42.4L35.4,42.4L35.4,41.4L36.4,41.4L36.4,40.9L38.1,40.9L38.1,41.4L38.6,41.4L38.6,43.6L37.1,43.6L37.1,44.1L36.6,44.1L36.6,44.6L35.6,44.6L35.6,45.6L35.1,45.6L35.1,47.1L34.6,47.1L34.6,47.6L33.6,47.6L33.6,48.1L33.1,48.1L33.1,48.6L32.6,48.6L32.6,49.1L32.1,49.1L32.1,51.1L31.6,51.1L31.6,51.6L31.1,51.6L31.1,52.1L30.1,52.1L30.1,52.6L29.6,52.6L29.6,65.6L29.1,65.6L29.1,67.9L29.6,67.9L29.6,68.4L30.4,68.4L30.4,67.9L30.9,67.9L30.9,66.9L32.4,66.9L32.4,65.4L33.4,65.4L33.4,63.9L33.9,63.9L33.9,63.4L34.9,63.4L34.9,62.9L35.4,62.9L35.4,58.4L35.9,58.4z" stroke="none"/><path d="M10.4,19.5L10.6,19.5L10.6,20.6L10.1,20.6L10.1,26.4L10.6,26.4L10.6,38.6L8.6,38.6L8.6,39.1L7.5,39.1L7.5,38.9L8.4,38.9L8.4,38.4L10.4,38.4L10.4,26.6L9.9,26.6L9.9,20.4L10.4,20.4z" stroke="none"/><path d="M70.5,102.1L70.5,101.9L71.6,101.9L71.6,102.9L88.4,102.9L88.4,102.4L89.4,102.4L89.4,101.9L90.9,101.9L90.9,99.6L90.4,99.6L90.4,99.1L89.9,99.1L89.9,97.5L90.1,97.5L90.1,98.9L90.6,98.9L90.6,99.4L91.1,99.4L91.1,102.1L89.6,102.1L89.6,102.6L88.6,102.6L88.6,103.1L71.4,103.1L71.4,102.1z" stroke="none"/><path d="M22.5,76.4L22.5,76.6L20.6,76.6L20.6,77.1L20.1,77.1L20.1,78.9L30.9,78.9L30.9,78.4L32.6,78.4L32.6,80.1L32.1,80.1L32.1,82.1L31.6,82.1L31.6,82.6L29.1,82.6L29.1,83.1L28.6,83.1L28.6,84.1L27.6,84.1L27.6,85.9L28.1,85.9L28.1,86.4L34.1,86.4L34.1,87.9L35.1,87.9L35.1,89.4L37.1,89.4L37.1,89.9L37.5,89.9L37.5,90.1L36.9,90.1L36.9,89.6L34.9,89.6L34.9,88.1L33.9,88.1L33.9,86.6L27.9,86.6L27.9,86.1L27.4,86.1L27.4,83.9L28.4,83.9L28.4,82.9L28.9,82.9L28.9,82.4L31.4,82.4L31.4,81.9L31.9,81.9L31.9,79.9L32.4,79.9L32.4,78.6L31.1,78.6L31.1,79.1L19.9,79.1L19.9,76.9L20.4,76.9L20.4,76.4z" stroke="none"/><path d="M13.6,87L13.4,87L13.4,86.6L12.9,86.6L12.9,86.1L12.4,86.1L12.4,75.6L11.4,75.6L11.4,75.1L10.9,75.1L10.9,73.6L10.4,73.6L10.4,72.6L8.9,72.6L8.9,70.6L8.4,70.6L8.4,70.1L7.9,70.1L7.9,68.1L7.4,68.1L7.4,67.5L7.6,67.5L7.6,67.9L8.1,67.9L8.1,69.9L8.6,69.9L8.6,70.4L9.1,70.4L9.1,72.4L10.6,72.4L10.6,73.4L11.1,73.4L11.1,74.9L11.6,74.9L11.6,75.4L12.6,75.4L12.6,85.9L13.1,85.9L13.1,86.4L13.6,86.4z" stroke="none"/><path d="M101.9,87L102.1,87L102.1,94.6L101.1,94.6L101.1,95.1L100.1,95.1L100.1,95.6L99.6,95.6L99.6,97.1L99.1,97.1L99.1,98.1L98.6,98.1L98.6,98.6L98.1,98.6L98.1,99.1L96.1,99.1L96.1,99.6L95.6,99.6L95.6,100.1L94.1,100.1L94.1,101.6L93.1,101.6L93.1,102.6L90.1,102.6L90.1,103.1L89.1,103.1L89.1,103.6L70.4,103.6L70.4,103.1L69.9,103.1L69.9,102.6L69.4,102.6L69.4,101.4L69.9,101.4L69.9,100.9L84.9,100.9L84.9,98.9L85.5,98.9L85.5,99.1L85.1,99.1L85.1,101.1L70.1,101.1L70.1,101.6L69.6,101.6L69.6,102.4L70.1,102.4L70.1,102.9L70.6,102.9L70.6,103.4L88.9,103.4L88.9,102.9L89.9,102.9L89.9,102.4L92.9,102.4L92.9,101.4L93.9,101.4L93.9,99.9L95.4,99.9L95.4,99.4L95.9,99.4L95.9,98.9L97.9,98.9L97.9,98.4L98.4,98.4L98.4,97.9L98.9,97.9L98.9,96.9L99.4,96.9L99.4,95.4L99.9,95.4L99.9,94.9L100.9,94.9L100.9,94.4L101.9,94.4z" stroke="none"/><path d="M6,90.1L6,89.9L7.1,89.9L7.1,90.4L8.6,90.4L8.6,90.9L9.1,90.9L9.1,91.4L9.6,91.4L9.6,92.4L10.1,92.4L10.1,92.9L10.6,92.9L10.6,93.9L11.6,93.9L11.6,94.9L12.1,94.9L12.1,95.4L12.6,95.4L12.6,96.4L13.1,96.4L13.1,98.9L15.6,98.9L15.6,99.4L27.9,99.4L27.9,98.4L28.4,98.4L28.4,92.9L28.9,92.9L28.9,91.4L29.9,91.4L29.9,90.9L30.4,90.9L30.4,90.4L30.9,90.4L30.9,89.6L30.4,89.6L30.4,89.1L28.6,89.1L28.6,90.1L27.6,90.1L27.6,91.6L27.1,91.6L27.1,94.1L26.6,94.1L26.6,96.1L25.5,96.1L25.5,95.9L26.4,95.9L26.4,93.9L26.9,93.9L26.9,91.4L27.4,91.4L27.4,89.9L28.4,89.9L28.4,88.9L30.6,88.9L30.6,89.4L31.1,89.4L31.1,90.6L30.6,90.6L30.6,91.1L30.1,91.1L30.1,91.6L29.1,91.6L29.1,93.1L28.6,93.1L28.6,98.6L28.1,98.6L28.1,99.6L15.4,99.6L15.4,99.1L12.9,99.1L12.9,96.6L12.4,96.6L12.4,95.6L11.9,95.6L11.9,95.1L11.4,95.1L11.4,94.1L10.4,94.1L10.4,93.1L9.9,93.1L9.9,92.6L9.4,92.6L9.4,91.6L8.9,91.6L8.9,91.1L8.4,91.1L8.4,90.6L6.9,90.6L6.9,90.1z" stroke="none"/><path d="M74.9,22.5L75.1,22.5L75.1,24.1L74.6,24.1L74.6,25.1L74.1,25.1L74.1,26.1L73.1,26.1L73.1,26.6L72.1,26.6L72.1,27.1L71.6,27.1L71.6,27.6L70.1,27.6L70.1,29.1L69.6,29.1L69.6,30.1L66.4,30.1L66.4,29.6L65.9,29.6L65.9,26.1L65.4,26.1L65.4,23.1L64.4,23.1L64.4,13.4L64.9,13.4L64.9,12.4L65.4,12.4L65.4,9.4L67.9,9.4L67.9,8.9L68.4,8.9L68.4,8.4L69.4,8.4L69.4,7.9L69.9,7.9L69.9,5.6L69.4,5.6L69.4,3.6L68.9,3.6L68.9,3L69.1,3L69.1,3.4L69.6,3.4L69.6,5.4L70.1,5.4L70.1,8.1L69.6,8.1L69.6,8.6L68.6,8.6L68.6,9.1L68.1,9.1L68.1,9.6L65.6,9.6L65.6,12.6L65.1,12.6L65.1,13.6L64.6,13.6L64.6,22.9L65.6,22.9L65.6,25.9L66.1,25.9L66.1,29.4L66.6,29.4L66.6,29.9L69.4,29.9L69.4,28.9L69.9,28.9L69.9,27.4L71.4,27.4L71.4,26.9L71.9,26.9L71.9,26.4L72.9,26.4L72.9,25.9L73.9,25.9L73.9,24.9L74.4,24.9L74.4,23.9L74.9,23.9z" stroke="none"/><path d="M63,70.4L63,70.6L57.1,70.6L57.1,71.1L56.6,71.1L56.6,71.6L56.1,71.6L56.1,72.6L55.1,72.6L55.1,73.1L54.1,73.1L54.1,73.6L53.6,73.6L53.6,74.6L53.1,74.6L53.1,75.9L54.6,75.9L54.6,76.4L55.1,76.4L55.1,76.9L55.6,76.9L55.6,77.9L56.1,77.9L56.1,80.9L56.6,80.9L56.6,81.4L57.6,81.4L57.6,81.9L59.1,81.9L59.1,84.9L59.6,84.9L59.6,85.4L60.6,85.4L60.6,86.4L62.1,86.4L62.1,86.9L63.1,86.9L63.1,87.9L63.6,87.9L63.6,88.4L64.6,88.4L64.6,88.9L65.6,88.9L65.6,90.6L65.1,90.6L65.1,91.1L61.9,91.1L61.9,90.6L52.9,90.6L52.9,90.1L52.4,90.1L52.4,88.5L52.6,88.5L52.6,89.9L53.1,89.9L53.1,90.4L62.1,90.4L62.1,90.9L64.9,90.9L64.9,90.4L65.4,90.4L65.4,89.1L64.4,89.1L64.4,88.6L63.4,88.6L63.4,88.1L62.9,88.1L62.9,87.1L61.9,87.1L61.9,86.6L60.4,86.6L60.4,85.6L59.4,85.6L59.4,85.1L58.9,85.1L58.9,82.1L57.4,82.1L57.4,81.6L56.4,81.6L56.4,81.1L55.9,81.1L55.9,78.1L55.4,78.1L55.4,77.1L54.9,77.1L54.9,76.6L54.4,76.6L54.4,76.1L52.9,76.1L52.9,74.4L53.4,74.4L53.4,73.4L53.9,73.4L53.9,72.9L54.9,72.9L54.9,72.4L55.9,72.4L55.9,71.4L56.4,71.4L56.4,70.9L56.9,70.9L56.9,70.4z" stroke="none"/><path d="M42.1,21L41.9,21L41.9,20.6L40.9,20.6L40.9,9.4L41.4,9.4L41.4,8.4L41.9,8.4L41.9,7.9L42.4,7.9L42.4,6.4L43.9,6.4L43.9,5.9L44.4,5.9L44.4,5.4L44.9,5.4L44.9,4.9L45.9,4.9L45.9,4.4L48.9,4.4L48.9,3.9L49.4,3.9L49.4,3.4L52.4,3.4L52.4,3L52.6,3L52.6,3.6L49.6,3.6L49.6,4.1L49.1,4.1L49.1,4.6L46.1,4.6L46.1,5.1L45.1,5.1L45.1,5.6L44.6,5.6L44.6,6.1L44.1,6.1L44.1,6.6L42.6,6.6L42.6,8.1L42.1,8.1L42.1,8.6L41.6,8.6L41.6,9.6L41.1,9.6L41.1,20.4L42.1,20.4z" stroke="none"/><path d="M69,88.6L69,88.4L69.6,88.4L69.6,88.9L70.6,88.9L70.6,89.4L71.6,89.4L71.6,89.9L72.1,89.9L72.1,90.9L75.1,90.9L75.1,91.4L76.1,91.4L76.1,91.9L76.6,91.9L76.6,92.9L77.1,92.9L77.1,93.9L77.6,93.9L77.6,94.4L78.1,94.4L78.1,95.4L78.6,95.4L78.6,95.9L80.6,95.9L80.6,97.4L81.1,97.4L81.1,97.9L82.1,97.9L82.1,98.4L82.9,98.4L82.9,97.9L83.4,97.9L83.4,95.1L82.9,95.1L82.9,93.4L86.1,93.4L86.1,94.4L87.6,94.4L87.6,95.4L88.6,95.4L88.6,96L88.4,96L88.4,95.6L87.4,95.6L87.4,94.6L85.9,94.6L85.9,93.6L83.1,93.6L83.1,94.9L83.6,94.9L83.6,98.1L83.1,98.1L83.1,98.6L81.9,98.6L81.9,98.1L80.9,98.1L80.9,97.6L80.4,97.6L80.4,96.1L78.4,96.1L78.4,95.6L77.9,95.6L77.9,94.6L77.4,94.6L77.4,94.1L76.9,94.1L76.9,93.1L76.4,93.1L76.4,92.1L75.9,92.1L75.9,91.6L74.9,91.6L74.9,91.1L71.9,91.1L71.9,90.1L71.4,90.1L71.4,89.6L70.4,89.6L70.4,89.1L69.4,89.1L69.4,88.6z" stroke="none"/><path d="M8.9,30L9.1,30L9.1,34.1L8.6,34.1L8.6,36.1L8.1,36.1L8.1,37.1L7.1,37.1L7.1,38.6L6.6,38.6L6.6,39.9L14.4,39.9L14.4,32.9L14.9,32.9L14.9,31.4L15.4,31.4L15.4,29.9L17.9,29.9L17.9,29.4L18.9,29.4L18.9,28.9L21.4,28.9L21.4,28.4L23.4,28.4L23.4,27.4L27.4,27.4L27.4,26.9L27.9,26.9L27.9,24.4L28.4,24.4L28.4,22.5L28.6,22.5L28.6,24.6L28.1,24.6L28.1,27.1L27.6,27.1L27.6,27.6L23.6,27.6L23.6,28.6L21.6,28.6L21.6,29.1L19.1,29.1L19.1,29.6L18.1,29.6L18.1,30.1L15.6,30.1L15.6,31.6L15.1,31.6L15.1,33.1L14.6,33.1L14.6,40.1L6.4,40.1L6.4,38.4L6.9,38.4L6.9,36.9L7.9,36.9L7.9,35.9L8.4,35.9L8.4,33.9L8.9,33.9z" stroke="none"/><path d="M33,84.1L33,83.9L33.9,83.9L33.9,80.6L33.4,80.6L33.4,73.6L30.4,73.6L30.4,71.6L28.4,71.6L28.4,70.6L26.4,70.6L26.4,70.1L24.9,70.1L24.9,69.6L23.9,69.6L23.9,69.1L20.4,69.1L20.4,68.6L19.9,68.6L19.9,68.1L19.4,68.1L19.4,67.5L19.6,67.5L19.6,67.9L20.1,67.9L20.1,68.4L20.6,68.4L20.6,68.9L24.1,68.9L24.1,69.4L25.1,69.4L25.1,69.9L26.6,69.9L26.6,70.4L28.6,70.4L28.6,71.4L30.6,71.4L30.6,73.4L33.6,73.4L33.6,80.4L34.1,80.4L34.1,84.1z" stroke="none"/><path d="M28.4,81L28.6,81L28.6,82.1L28.1,82.1L28.1,83.1L27.1,83.1L27.1,86.9L30.6,86.9L30.6,87.9L31.1,87.9L31.1,88.4L31.6,88.4L31.6,93.6L30.6,93.6L30.6,94.1L30.1,94.1L30.1,95.6L29.6,95.6L29.6,98.1L29.1,98.1L29.1,99.4L29.6,99.4L29.6,99.9L33.1,99.9L33.1,100.9L34.1,100.9L34.1,101.4L41.4,101.4L41.4,98.4L41.9,98.4L41.9,97.5L42.1,97.5L42.1,98.6L41.6,98.6L41.6,101.6L33.9,101.6L33.9,101.1L32.9,101.1L32.9,100.1L29.4,100.1L29.4,99.6L28.9,99.6L28.9,97.9L29.4,97.9L29.4,95.4L29.9,95.4L29.9,93.9L30.4,93.9L30.4,93.4L31.4,93.4L31.4,88.6L30.9,88.6L30.9,88.1L30.4,88.1L30.4,87.1L26.9,87.1L26.9,82.9L27.9,82.9L27.9,81.9L28.4,81.9z" stroke="none"/><path d="M4.6,99L4.4,99L4.4,98.6L3.9,98.6L3.9,98.1L0.9,98.1L0.9,67.4L1.9,67.4L1.9,66.9L2.4,66.9L2.4,65.9L3.4,65.9L3.4,65.4L3.9,65.4L3.9,64.9L4.9,64.9L4.9,64.4L5.4,64.4L5.4,63.9L5.9,63.9L5.9,63.4L6.4,63.4L6.4,61.9L6.9,61.9L6.9,61.4L8.4,61.4L8.4,60.9L21.9,60.9L21.9,60.4L23.1,60.4L23.1,60.9L23.6,60.9L23.6,61.4L24.1,61.4L24.1,61.9L24.6,61.9L24.6,62.4L25.1,62.4L25.1,64.1L22.6,64.1L22.6,64.6L22.1,64.6L22.1,65.1L21.1,65.1L21.1,65.6L20.6,65.6L20.6,66.1L20.1,66.1L20.1,66.6L19.1,66.6L19.1,67.1L18.6,67.1L18.6,68.9L19.1,68.9L19.1,69.4L20.6,69.4L20.6,69.9L21.1,69.9L21.1,76.1L20.1,76.1L20.1,76.6L19.6,76.6L19.6,77.6L19.1,77.6L19.1,78.6L18.6,78.6L18.6,82.6L18,82.6L18,82.4L18.4,82.4L18.4,78.4L18.9,78.4L18.9,77.4L19.4,77.4L19.4,76.4L19.9,76.4L19.9,75.9L20.9,75.9L20.9,70.1L20.4,70.1L20.4,69.6L18.9,69.6L18.9,69.1L18.4,69.1L18.4,66.9L18.9,66.9L18.9,66.4L19.9,66.4L19.9,65.9L20.4,65.9L20.4,65.4L20.9,65.4L20.9,64.9L21.9,64.9L21.9,64.4L22.4,64.4L22.4,63.9L24.9,63.9L24.9,62.6L24.4,62.6L24.4,62.1L23.9,62.1L23.9,61.6L23.4,61.6L23.4,61.1L22.9,61.1L22.9,60.6L22.1,60.6L22.1,61.1L8.6,61.1L8.6,61.6L7.1,61.6L7.1,62.1L6.6,62.1L6.6,63.6L6.1,63.6L6.1,64.1L5.6,64.1L5.6,64.6L5.1,64.6L5.1,65.1L4.1,65.1L4.1,65.6L3.6,65.6L3.6,66.1L2.6,66.1L2.6,67.1L2.1,67.1L2.1,67.6L1.1,67.6L1.1,97.9L4.1,97.9L4.1,98.4L4.6,98.4z" stroke="none"/><path d="M3.1,72L2.9,72L2.9,71.4L3.9,71.4L3.9,70.9L6.6,70.9L6.6,71.4L7.6,71.4L7.6,71.9L8.1,71.9L8.1,72.4L8.6,72.4L8.6,72.9L9.1,72.9L9.1,73.4L10.1,73.4L10.1,73.9L10.6,73.9L10.6,85.9L11.1,85.9L11.1,86.4L11.6,86.4L11.6,86.9L12.6,86.9L12.6,87.4L13.1,87.4L13.1,87.9L13.9,87.9L13.9,87.4L16.1,87.4L16.1,89.6L13.6,89.6L13.6,90.6L13.1,90.6L13.1,91.1L12.1,91.1L12.1,91.5L11.9,91.5L11.9,90.9L12.9,90.9L12.9,90.4L13.4,90.4L13.4,89.4L15.9,89.4L15.9,87.6L14.1,87.6L14.1,88.1L12.9,88.1L12.9,87.6L12.4,87.6L12.4,87.1L11.4,87.1L11.4,86.6L10.9,86.6L10.9,86.1L10.4,86.1L10.4,74.1L9.9,74.1L9.9,73.6L8.9,73.6L8.9,73.1L8.4,73.1L8.4,72.6L7.9,72.6L7.9,72.1L7.4,72.1L7.4,71.6L6.4,71.6L6.4,71.1L4.1,71.1L4.1,71.6L3.1,71.6z" stroke="none"/><path d="M102,67.4L102,67.6L101.1,67.6L101.1,69.4L101.6,69.4L101.6,69.9L102.9,69.9L102.9,69.4L103.4,69.4L103.4,68.4L103.9,68.4L103.9,54.1L103.4,54.1L103.4,53.6L102.9,53.6L102.9,53.1L102.4,53.1L102.4,52.6L101.9,52.6L101.9,50.6L101.4,50.6L101.4,50.1L100.9,50.1L100.9,43.6L99.9,43.6L99.9,42.6L88.1,42.6L88.1,43.1L87.6,43.1L87.6,43.6L85.1,43.6L85.1,44.1L84.6,44.1L84.6,44.6L84.1,44.6L84.1,45.1L83.6,45.1L83.6,47.6L83.1,47.6L83.1,50.4L84.9,50.4L84.9,49.4L85.5,49.4L85.5,49.6L85.1,49.6L85.1,50.6L82.9,50.6L82.9,47.4L83.4,47.4L83.4,44.9L83.9,44.9L83.9,44.4L84.4,44.4L84.4,43.9L84.9,43.9L84.9,43.4L87.4,43.4L87.4,42.9L87.9,42.9L87.9,42.4L100.1,42.4L100.1,43.4L101.1,43.4L101.1,49.9L101.6,49.9L101.6,50.4L102.1,50.4L102.1,52.4L102.6,52.4L102.6,52.9L103.1,52.9L103.1,53.4L103.6,53.4L103.6,53.9L104.1,53.9L104.1,68.6L103.6,68.6L103.6,69.6L103.1,69.6L103.1,70.1L101.4,70.1L101.4,69.6L100.9,69.6L100.9,67.4z" stroke="none"/><path d="M83.9,76.5L84.1,76.5L84.1,76.9L84.6,76.9L84.6,77.4L89.1,77.4L89.1,77.9L89.6,77.9L89.6,78.9L90.6,78.9L90.6,80.4L95.6,80.4L95.6,80.9L96.1,80.9L96.1,81.4L97.1,81.4L97.1,81.9L98.1,81.9L98.1,83.4L98.6,83.4L98.6,85.4L99.1,85.4L99.1,85.9L100.1,85.9L100.1,86.4L101.4,86.4L101.4,85.9L102.6,85.9L102.6,86.4L103.1,86.4L103.1,93.6L102.6,93.6L102.6,95.1L101.6,95.1L101.6,96.6L100.1,96.6L100.1,97.6L99.6,97.6L99.6,98.6L99.1,98.6L99.1,99.1L98.6,99.1L98.6,99.6L96.6,99.6L96.6,100.1L96.1,100.1L96.1,101.1L95.6,101.1L95.6,101.6L95.1,101.6L95.1,102.1L94.6,102.1L94.6,103.1L93.1,103.1L93.1,103.6L92.1,103.6L92.1,104.1L61.9,104.1L61.9,100.9L62.4,100.9L62.4,100.4L63.9,100.4L63.9,99.9L64.9,99.9L64.9,99.4L68.4,99.4L68.4,96.6L67.9,96.6L67.9,96.1L67.5,96.1L67.5,95.9L68.1,95.9L68.1,96.4L68.6,96.4L68.6,99.6L65.1,99.6L65.1,100.1L64.1,100.1L64.1,100.6L62.6,100.6L62.6,101.1L62.1,101.1L62.1,103.9L91.9,103.9L91.9,103.4L92.9,103.4L92.9,102.9L94.4,102.9L94.4,101.9L94.9,101.9L94.9,101.4L95.4,101.4L95.4,100.9L95.9,100.9L95.9,99.9L96.4,99.9L96.4,99.4L98.4,99.4L98.4,98.9L98.9,98.9L98.9,98.4L99.4,98.4L99.4,97.4L99.9,97.4L99.9,96.4L101.4,96.4L101.4,94.9L102.4,94.9L102.4,93.4L102.9,93.4L102.9,86.6L102.4,86.6L102.4,86.1L101.6,86.1L101.6,86.6L99.9,86.6L99.9,86.1L98.9,86.1L98.9,85.6L98.4,85.6L98.4,83.6L97.9,83.6L97.9,82.1L96.9,82.1L96.9,81.6L95.9,81.6L95.9,81.1L95.4,81.1L95.4,80.6L90.4,80.6L90.4,79.1L89.4,79.1L89.4,78.1L88.9,78.1L88.9,77.6L84.4,77.6L84.4,77.1L83.9,77.1z" stroke="none"/><path d="M15,100.4L15,100.6L14.1,100.6L14.1,102.1L13.6,102.1L13.6,102.6L13.1,102.6L13.1,103.1L0.9,103.1L0.9,99.6L0.4,99.6L0.4,64.9L0.9,64.9L0.9,64.4L1.4,64.4L1.4,62.9L2.4,62.9L2.4,62.4L3.4,62.4L3.4,61.9L3.9,61.9L3.9,61.4L4.4,61.4L4.4,60.9L7.9,60.9L7.9,60.4L21.4,60.4L21.4,59.9L24.1,59.9L24.1,60.4L24.6,60.4L24.6,61.4L25.1,61.4L25.1,61.9L25.6,61.9L25.6,65.9L26.6,65.9L26.6,66.4L27.6,66.4L27.6,66.9L28.6,66.9L28.6,68.4L29.1,68.4L29.1,69.9L29.6,69.9L29.6,70.4L30.1,70.4L30.1,70.9L31.1,70.9L31.1,72.4L32.1,72.4L32.1,72.9L34.1,72.9L34.1,73.9L35.1,73.9L35.1,74.4L35.6,74.4L35.6,80.6L35.1,80.6L35.1,84.1L34.6,84.1L34.6,84.6L33.6,84.6L33.6,85.1L31.9,85.1L31.9,82.9L32.4,82.9L32.4,81.4L32.9,81.4L32.9,81L33.1,81L33.1,81.6L32.6,81.6L32.6,83.1L32.1,83.1L32.1,84.9L33.4,84.9L33.4,84.4L34.4,84.4L34.4,83.9L34.9,83.9L34.9,80.4L35.4,80.4L35.4,74.6L34.9,74.6L34.9,74.1L33.9,74.1L33.9,73.1L31.9,73.1L31.9,72.6L30.9,72.6L30.9,71.1L29.9,71.1L29.9,70.6L29.4,70.6L29.4,70.1L28.9,70.1L28.9,68.6L28.4,68.6L28.4,67.1L27.4,67.1L27.4,66.6L26.4,66.6L26.4,66.1L25.4,66.1L25.4,62.1L24.9,62.1L24.9,61.6L24.4,61.6L24.4,60.6L23.9,60.6L23.9,60.1L21.6,60.1L21.6,60.6L8.1,60.6L8.1,61.1L4.6,61.1L4.6,61.6L4.1,61.6L4.1,62.1L3.6,62.1L3.6,62.6L2.6,62.6L2.6,63.1L1.6,63.1L1.6,64.6L1.1,64.6L1.1,65.1L0.6,65.1L0.6,99.4L1.1,99.4L1.1,102.9L12.9,102.9L12.9,102.4L13.4,102.4L13.4,101.9L13.9,101.9L13.9,100.4z" stroke="none"/><path d="M91.4,27L91.6,27L91.6,30.4L92.6,30.4L92.6,30.9L93.4,30.9L93.4,30.4L93.9,30.4L93.9,28.4L94.9,28.4L94.9,27.9L96.9,27.9L96.9,26.9L97.9,26.9L97.9,26.4L98.4,26.4L98.4,25.9L98.9,25.9L98.9,24.4L99.9,24.4L99.9,23.4L100.4,23.4L100.4,22.9L101.9,22.9L101.9,22.4L102.4,22.4L102.4,19.9L102.9,19.9L102.9,18.9L103.4,18.9L103.4,15.9L104.4,15.9L104.4,3.6L103.9,3.6L103.9,3.1L103.4,3.1L103.4,2.6L102.9,2.6L102.9,2.1L97.4,2.1L97.4,1.6L95.4,1.6L95.4,1.1L71.1,1.1L71.1,1.6L70.6,1.6L70.6,6.9L71.1,6.9L71.1,7.9L72.1,7.9L72.1,9L71.9,9L71.9,8.1L70.9,8.1L70.9,7.1L70.4,7.1L70.4,1.4L70.9,1.4L70.9,0.9L95.6,0.9L95.6,1.4L97.6,1.4L97.6,1.9L103.1,1.9L103.1,2.4L103.6,2.4L103.6,2.9L104.1,2.9L104.1,3.4L104.6,3.4L104.6,16.1L103.6,16.1L103.6,19.1L103.1,19.1L103.1,20.1L102.6,20.1L102.6,22.6L102.1,22.6L102.1,23.1L100.6,23.1L100.6,23.6L100.1,23.6L100.1,24.6L99.1,24.6L99.1,26.1L98.6,26.1L98.6,26.6L98.1,26.6L98.1,27.1L97.1,27.1L97.1,28.1L95.1,28.1L95.1,28.6L94.1,28.6L94.1,30.6L93.6,30.6L93.6,31.1L92.4,31.1L92.4,30.6L91.4,30.6z" stroke="none"/></svg>