<svg version="1.1" width="105" height="105" xmlns="http://www.w3.org/2000/svg"><path d="M54.9,97.9L54.9,96.4L55.4,96.4L55.4,95.9L57,95.9L57,96.1L55.6,96.1L55.6,96.6L55.1,96.6L55.1,98.1L49.6,98.1L49.6,98.6L43.1,98.6L43.1,99.1L42.6,99.1L42.6,100.6L42,100.6L42,100.4L42.4,100.4L42.4,98.9L42.9,98.9L42.9,98.4L49.4,98.4L49.4,98.1L47.9,98.1L47.9,97.5L48.1,97.5L48.1,97.9z" stroke="none"/><path d="M24.9,38.9L24.9,37.9L25.4,37.9L25.4,37.5L25.6,37.5L25.6,38.1L25.1,38.1L25.1,39.1L20.6,39.1L20.6,39.6L19.6,39.6L19.6,40.1L18.6,40.1L18.6,40.6L18,40.6L18,40.4L18.4,40.4L18.4,39.9L19.4,39.9L19.4,39.4L20.4,39.4L20.4,39.1L18,39.1L18,38.9z" stroke="none"/><path d="M68.4,95.4L68.4,95.1L62.9,95.1L62.9,94.5L63.1,94.5L63.1,94.9L68.6,94.9L68.6,95.4L75.6,95.4L75.6,95.9L76.5,95.9L76.5,96.1L75.4,96.1L75.4,95.6L66.1,95.6L66.1,96L65.9,96L65.9,95.4z" stroke="none"/><path d="M69.4,44.9L69.4,41.9L70.5,41.9L70.5,42.1L69.6,42.1L69.6,44.9L69.9,44.9L69.9,44.4L71.4,44.4L71.4,43.9L72.9,43.9L72.9,43.4L73.4,43.4L73.4,42.9L74.4,42.9L74.4,42.4L75.6,42.4L75.6,42.9L76.1,42.9L76.1,44.4L76.6,44.4L76.6,44.9L77.1,44.9L77.1,45.4L77.6,45.4L77.6,45.9L78.1,45.9L78.1,51L77.9,51L77.9,46.1L77.4,46.1L77.4,45.6L76.9,45.6L76.9,45.1L76.4,45.1L76.4,44.6L75.9,44.6L75.9,43.1L75.4,43.1L75.4,42.6L74.6,42.6L74.6,43.1L73.6,43.1L73.6,43.6L73.1,43.6L73.1,44.1L71.6,44.1L71.6,44.6L70.1,44.6L70.1,45.1L64.9,45.1L64.9,44.1L60.9,44.1L60.9,42.1L60,42.1L60,41.9L61.1,41.9L61.1,43.9L65.1,43.9L65.1,44.9z" stroke="none"/><path d="M30.9,76.4L30.9,73.9L31.4,73.9L31.4,73.4L33,73.4L33,73.6L31.6,73.6L31.6,74.1L31.1,74.1L31.1,79.1L30.6,79.1L30.6,86.4L31.6,86.4L31.6,87L31.4,87L31.4,86.6L30.4,86.6L30.4,78.9L30.9,78.9L30.9,76.6L30.4,76.6L30.4,71.6L28.9,71.6L28.9,70.1L28.4,70.1L28.4,69L28.6,69L28.6,69.9L29.1,69.9L29.1,71.4L30.6,71.4L30.6,76.4z" stroke="none"/><path d="M28.4,31.1L27.9,31.1L27.9,30.6L27.4,30.6L27.4,29.1L26.9,29.1L26.9,28.5L27.1,28.5L27.1,28.9L27.6,28.9L27.6,30.4L28.1,30.4L28.1,30.9L28.6,30.9L28.6,34.9L32.4,34.9L32.4,34.4L33,34.4L33,34.6L32.6,34.6L32.6,35.1L28.6,35.1L28.6,41.1L27.1,41.1L27.1,41.6L26.6,41.6L26.6,42.1L25.5,42.1L25.5,41.9L26.4,41.9L26.4,41.4L26.9,41.4L26.9,40.9L28.4,40.9z" stroke="none"/><path d="M36.9,47.4L36.9,46.9L37.4,46.9L37.4,46.4L39,46.4L39,46.6L37.6,46.6L37.6,47.1L37.1,47.1L37.1,47.6L30.1,47.6L30.1,49.6L29.1,49.6L29.1,50.1L27.1,50.1L27.1,51L26.9,51L26.9,49.9L28.9,49.9L28.9,49.4L29.9,49.4L29.9,47.6L25.4,47.6L25.4,45.6L23.9,45.6L23.9,45L24.1,45L24.1,45.4L25.6,45.4L25.6,47.4z" stroke="none"/><path d="M19.4,14.6L17.9,14.6L17.9,14.1L16.9,14.1L16.9,10.6L15.9,10.6L15.9,10.1L15.4,10.1L15.4,9.6L12.4,9.6L12.4,9.1L12,9.1L12,8.9L12.6,8.9L12.6,9.4L15.6,9.4L15.6,9.9L16.1,9.9L16.1,10.4L17.1,10.4L17.1,13.9L18.1,13.9L18.1,14.4L19.6,14.4L19.6,17.4L23.1,17.4L23.1,19.4L24,19.4L24,19.6L22.9,19.6L22.9,17.6L19.6,17.6L19.6,21.4L21.1,21.4L21.1,22.9L21.6,22.9L21.6,23.4L22.1,23.4L22.1,23.9L22.5,23.9L22.5,24.1L21.9,24.1L21.9,23.6L21.4,23.6L21.4,23.1L20.9,23.1L20.9,21.6L19.4,21.6z" stroke="none"/><path d="M35.9,37.5L36.1,37.5L36.1,42.4L36.4,42.4L36.4,39.9L36.9,39.9L36.9,39.4L37.4,39.4L37.4,38.9L37.9,38.9L37.9,38.4L38.4,38.4L38.4,37.9L40.6,37.9L40.6,38.4L41.1,38.4L41.1,38.9L42,38.9L42,39.1L40.9,39.1L40.9,38.6L40.4,38.6L40.4,38.1L38.6,38.1L38.6,38.6L38.1,38.6L38.1,39.1L37.6,39.1L37.6,39.6L37.1,39.6L37.1,40.1L36.6,40.1L36.6,42.6L36.1,42.6L36.1,42.9L38.1,42.9L38.1,43.4L39.1,43.4L39.1,43.9L39.6,43.9L39.6,44.4L40.1,44.4L40.1,48.1L34.1,48.1L34.1,50.1L33.1,50.1L33.1,50.6L31.6,50.6L31.6,51L31.4,51L31.4,50.4L32.9,50.4L32.9,49.9L33.9,49.9L33.9,47.9L39.9,47.9L39.9,44.6L39.4,44.6L39.4,44.1L38.9,44.1L38.9,43.6L37.9,43.6L37.9,43.1L35.9,43.1z" stroke="none"/><path d="M39.9,65.9L40.5,65.9L40.5,66.1L40.1,66.1L40.1,70.9L40.4,70.9L40.4,66.9L40.9,66.9L40.9,65.6L40.4,65.6L40.4,64.5L40.6,64.5L40.6,65.4L41.1,65.4L41.1,67.1L40.6,67.1L40.6,71.1L40.1,71.1L40.1,78.6L39.1,78.6L39.1,82.5L38.9,82.5L38.9,78.4L39.9,78.4z" stroke="none"/><path d="M43.9,39.4L43.9,35.9L44.4,35.9L44.4,34.4L45,34.4L45,34.6L44.6,34.6L44.6,36.1L44.1,36.1L44.1,39.4L44.6,39.4L44.6,39.9L45.1,39.9L45.1,41.9L45.6,41.9L45.6,42.4L46.1,42.4L46.1,42.9L46.6,42.9L46.6,43.4L47.1,43.4L47.1,43.9L47.6,43.9L47.6,44.4L48.1,44.4L48.1,45L47.9,45L47.9,44.6L47.4,44.6L47.4,44.1L46.9,44.1L46.9,43.6L46.4,43.6L46.4,43.1L45.9,43.1L45.9,42.6L45.4,42.6L45.4,42.1L44.9,42.1L44.9,40.1L44.4,40.1L44.4,39.6L43.6,39.6L43.6,40.1L40.9,40.1L40.9,39.6L40.4,39.6L40.4,39.1L39,39.1L39,38.9L40.6,38.9L40.6,39.4L41.1,39.4L41.1,39.9L43.4,39.9L43.4,39.4z" stroke="none"/><path d="M70.4,96.6L67.1,96.6L67.1,97.1L65.4,97.1L65.4,96.6L64.9,96.6L64.9,96.1L63.9,96.1L63.9,95.6L61.9,95.6L61.9,91.9L62.9,91.9L62.9,91.5L63.1,91.5L63.1,92.1L62.1,92.1L62.1,95.4L64.1,95.4L64.1,95.9L65.1,95.9L65.1,96.4L65.6,96.4L65.6,96.9L66.9,96.9L66.9,96.4L70.6,96.4L70.6,97.4L72.1,97.4L72.1,97.9L73.1,97.9L73.1,98.4L73.6,98.4L73.6,98.9L74.1,98.9L74.1,99.9L78.6,99.9L78.6,100.4L79.5,100.4L79.5,100.6L78.4,100.6L78.4,100.1L73.9,100.1L73.9,99.1L73.4,99.1L73.4,98.6L72.9,98.6L72.9,98.1L71.9,98.1L71.9,97.6L70.6,97.6L70.6,98.6L70.1,98.6L70.1,99.6L69.6,99.6L69.6,100.1L68.6,100.1L68.6,100.6L66,100.6L66,100.4L68.4,100.4L68.4,99.9L69.4,99.9L69.4,99.4L69.9,99.4L69.9,98.4L70.4,98.4z" stroke="none"/><path d="M84.4,48.9L84.4,43.6L84,43.6L84,43.4L84.6,43.4L84.6,58.4L85.1,58.4L85.1,59.4L86.1,59.4L86.1,59.9L88.5,59.9L88.5,60.1L85.9,60.1L85.9,59.6L84.9,59.6L84.9,58.6L84.4,58.6L84.4,49.1L83.9,49.1L83.9,44.1L83.4,44.1L83.4,42.4L83.9,42.4L83.9,42L84.1,42L84.1,42.6L83.6,42.6L83.6,43.9L84.1,43.9L84.1,48.9z" stroke="none"/><path d="M71.9,46.9L71.9,46.4L73.4,46.4L73.4,43.9L73.9,43.9L73.9,43.4L75,43.4L75,43.6L74.1,43.6L74.1,44.1L73.6,44.1L73.6,46.6L72.1,46.6L72.1,47.1L68.6,47.1L68.6,52.6L67.5,52.6L67.5,52.4L68.4,52.4L68.4,47.1L63.9,47.1L63.9,46.6L63.4,46.6L63.4,45.6L62.9,45.6L62.9,45L63.1,45L63.1,45.4L63.6,45.4L63.6,46.4L64.1,46.4L64.1,46.9z" stroke="none"/><path d="M20.4,29.4L20.4,25.1L19.9,25.1L19.9,24.6L19.4,24.6L19.4,24.1L18,24.1L18,23.9L19.6,23.9L19.6,24.4L20.1,24.4L20.1,24.9L20.6,24.9L20.6,29.4L22.4,29.4L22.4,28.9L22.9,28.9L22.9,28.4L23.9,28.4L23.9,27.4L24.4,27.4L24.4,26.9L24.9,26.9L24.9,26.4L25.4,26.4L25.4,25.4L25.9,25.4L25.9,24.4L26.9,24.4L26.9,23.9L28.5,23.9L28.5,24.1L27.1,24.1L27.1,24.6L26.1,24.6L26.1,25.6L25.6,25.6L25.6,26.6L25.1,26.6L25.1,27.1L24.6,27.1L24.6,27.6L24.1,27.6L24.1,28.6L23.1,28.6L23.1,29.1L22.6,29.1L22.6,29.6L16.6,29.6L16.6,32.6L16.1,32.6L16.1,33.1L15.6,33.1L15.6,35.6L15.1,35.6L15.1,40.5L14.9,40.5L14.9,35.4L15.4,35.4L15.4,32.9L15.9,32.9L15.9,32.4L16.4,32.4L16.4,29.4z" stroke="none"/><path d="M7.4,7.1L6.9,7.1L6.9,5.6L6.4,5.6L6.4,4.6L4.9,4.6L4.9,3.6L4.4,3.6L4.4,3L4.6,3L4.6,3.4L5.1,3.4L5.1,4.4L6.6,4.4L6.6,5.4L7.1,5.4L7.1,6.9L7.6,6.9L7.6,8.9L11.1,8.9L11.1,9.4L11.6,9.4L11.6,9.9L14.6,9.9L14.6,10.4L15,10.4L15,10.6L14.4,10.6L14.4,10.1L11.4,10.1L11.4,9.6L10.9,9.6L10.9,9.1L7.6,9.1L7.6,11.1L5.1,11.1L5.1,11.6L4.6,11.6L4.6,12.1L4.1,12.1L4.1,13.1L3.1,13.1L3.1,13.5L2.9,13.5L2.9,12.9L3.9,12.9L3.9,11.9L4.4,11.9L4.4,11.4L4.9,11.4L4.9,10.9L7.4,10.9z" stroke="none"/><path d="M16.9,88.4L16.9,87.9L17.4,87.9L17.4,87.4L21.9,87.4L21.9,85.9L23.9,85.9L23.9,85.4L25.5,85.4L25.5,85.6L24.1,85.6L24.1,86.1L22.1,86.1L22.1,87.6L17.6,87.6L17.6,88.1L17.1,88.1L17.1,88.6L13.6,88.6L13.6,91.6L10.6,91.6L10.6,92.1L10.1,92.1L10.1,93.1L9,93.1L9,92.9L9.9,92.9L9.9,91.9L10.4,91.9L10.4,91.4L13.4,91.4L13.4,88.6L9.9,88.6L9.9,88.1L9.4,88.1L9.4,87.6L5.9,87.6L5.9,87L6.1,87L6.1,87.4L9.6,87.4L9.6,87.9L10.1,87.9L10.1,88.4z" stroke="none"/><path d="M11.9,64.4L11.9,61.4L13.4,61.4L13.4,60.9L16.4,60.9L16.4,60L16.6,60L16.6,61.1L13.6,61.1L13.6,61.6L12.1,61.6L12.1,69.9L12.6,69.9L12.6,70.4L13.1,70.4L13.1,71.4L14.6,71.4L14.6,71.9L15,71.9L15,72.1L14.4,72.1L14.4,71.6L12.9,71.6L12.9,70.6L12.4,70.6L12.4,70.1L11.9,70.1L11.9,64.6L6.4,64.6L6.4,63.1L4.9,63.1L4.9,61.6L4.5,61.6L4.5,61.4L5.1,61.4L5.1,62.9L6.6,62.9L6.6,64.4z" stroke="none"/><path d="M8.9,85.4L8.9,85.1L6.9,85.1L6.9,83.6L6.4,83.6L6.4,83.1L5.9,83.1L5.9,81.6L5.4,81.6L5.4,80.6L4.9,80.6L4.9,79.1L4.4,79.1L4.4,78L4.6,78L4.6,78.9L5.1,78.9L5.1,80.4L5.6,80.4L5.6,81.4L6.1,81.4L6.1,82.9L6.6,82.9L6.6,83.4L7.1,83.4L7.1,84.9L9.1,84.9L9.1,85.4L18,85.4L18,85.6L6.1,85.6L6.1,86.1L5.6,86.1L5.6,86.6L5.1,86.6L5.1,87.9L5.6,87.9L5.6,90.6L5.1,90.6L5.1,92.1L4.6,92.1L4.6,93L4.4,93L4.4,91.9L4.9,91.9L4.9,90.4L5.4,90.4L5.4,88.1L4.9,88.1L4.9,86.4L5.4,86.4L5.4,85.9L5.9,85.9L5.9,85.4z" stroke="none"/><path d="M57.9,17.6L56.9,17.6L56.9,17.1L55.9,17.1L55.9,16.6L54.4,16.6L54.4,14.1L53.9,14.1L53.9,13.5L54.1,13.5L54.1,13.9L54.6,13.9L54.6,16.4L56.1,16.4L56.1,16.9L57.1,16.9L57.1,17.4L58.1,17.4L58.1,21.4L65.9,21.4L65.9,20.9L66.4,20.9L66.4,19.4L67.5,19.4L67.5,19.6L66.6,19.6L66.6,21.1L66.1,21.1L66.1,21.6L58.1,21.6L58.1,28.6L55.6,28.6L55.6,29.6L53.1,29.6L53.1,30.1L52.6,30.1L52.6,31.1L52.1,31.1L52.1,32.1L51.6,32.1L51.6,32.6L51.1,32.6L51.1,33L50.9,33L50.9,32.4L51.4,32.4L51.4,31.9L51.9,31.9L51.9,30.9L52.4,30.9L52.4,29.9L52.9,29.9L52.9,29.4L55.4,29.4L55.4,28.4L57.9,28.4z" stroke="none"/><path d="M74.9,67.4L74.9,67.1L73.1,67.1L73.1,67.6L72.6,67.6L72.6,68.1L71.6,68.1L71.6,74.4L72.1,74.4L72.1,75L71.9,75L71.9,74.6L71.4,74.6L71.4,67.9L72.4,67.9L72.4,67.4L72.9,67.4L72.9,66.9L75.1,66.9L75.1,67.4L76.9,67.4L76.9,66.4L77.4,66.4L77.4,64.4L78.4,64.4L78.4,63.9L80.4,63.9L80.4,62.4L81.4,62.4L81.4,60.4L81.9,60.4L81.9,59.9L82.5,59.9L82.5,60.1L82.1,60.1L82.1,60.6L81.6,60.6L81.6,62.6L80.6,62.6L80.6,64.1L78.6,64.1L78.6,64.6L77.6,64.6L77.6,66.6L77.1,66.6L77.1,67.6L75.1,67.6L75.1,68.1L73.6,68.1L73.6,68.6L72.1,68.6L72.1,69L71.9,69L71.9,68.4L73.4,68.4L73.4,67.9L74.9,67.9L74.9,67.6L73.5,67.6L73.5,67.4z" stroke="none"/><path d="M73.4,81.9L73.4,81.6L69.6,81.6L69.6,82.1L66.6,82.1L66.6,82.6L63.1,82.6L63.1,84.6L62.1,84.6L62.1,85.1L61.6,85.1L61.6,85.5L61.4,85.5L61.4,84.9L61.9,84.9L61.9,84.4L62.9,84.4L62.9,82.4L66.4,82.4L66.4,81.9L69.4,81.9L69.4,81.4L73.6,81.4L73.6,81.9L73.9,81.9L73.9,81.4L74.4,81.4L74.4,80.9L75.4,80.9L75.4,80.4L76.4,80.4L76.4,79.9L76.9,79.9L76.9,78.9L77.4,78.9L77.4,78.4L77.9,78.4L77.9,77.9L78.4,77.9L78.4,76.4L78.9,76.4L78.9,75.9L79.4,75.9L79.4,74.9L79.9,74.9L79.9,73.9L80.4,73.9L80.4,72.4L80.9,72.4L80.9,72L81.1,72L81.1,72.6L80.6,72.6L80.6,74.1L80.1,74.1L80.1,75.1L79.6,75.1L79.6,76.1L79.1,76.1L79.1,76.6L78.6,76.6L78.6,78.1L78.1,78.1L78.1,78.6L77.6,78.6L77.6,79.1L77.1,79.1L77.1,80.1L76.6,80.1L76.6,80.6L75.6,80.6L75.6,81.1L74.6,81.1L74.6,81.6L74.1,81.6L74.1,82.1L73.6,82.1L73.6,85.4L78.1,85.4L78.1,86.9L79.1,86.9L79.1,87.4L79.6,87.4L79.6,87.9L80.6,87.9L80.6,88.4L81,88.4L81,88.6L80.4,88.6L80.4,88.1L79.4,88.1L79.4,87.6L78.9,87.6L78.9,87.1L77.9,87.1L77.9,85.6L73.4,85.6L73.4,82.1L72.1,82.1L72.1,82.5L71.9,82.5L71.9,81.9z" stroke="none"/><path d="M90.4,97.4L90.4,96.9L98.4,96.9L98.4,96.4L99.9,96.4L99.9,95.4L100.4,95.4L100.4,94.9L100.9,94.9L100.9,93.4L101.4,93.4L101.4,92.9L102,92.9L102,93.1L101.6,93.1L101.6,93.6L101.1,93.6L101.1,95.1L100.6,95.1L100.6,95.6L100.1,95.6L100.1,96.6L98.6,96.6L98.6,97.1L90.6,97.1L90.6,97.4L91.1,97.4L91.1,101.1L87.6,101.1L87.6,102.1L82.5,102.1L82.5,101.9L87.4,101.9L87.4,100.9L90.9,100.9L90.9,97.6L90.6,97.6L90.6,100.6L90,100.6L90,100.4L90.4,100.4L90.4,97.6L88.9,97.6L88.9,96.6L88.4,96.6L88.4,96L88.6,96L88.6,96.4L89.1,96.4L89.1,97.4z" stroke="none"/><path d="M72.9,22.9L72.9,22.6L72.4,22.6L72.4,15.1L71.4,15.1L71.4,14.6L70.9,14.6L70.9,13.6L70.4,13.6L70.4,13.1L67.9,13.1L67.9,12.6L67.4,12.6L67.4,11.1L66.9,11.1L66.9,10.1L66.4,10.1L66.4,8.4L66.9,8.4L66.9,7.9L71.6,7.9L71.6,8.4L73.1,8.4L73.1,8.9L74.6,8.9L74.6,9.9L77.6,9.9L77.6,10.4L79.5,10.4L79.5,10.6L77.4,10.6L77.4,10.1L74.4,10.1L74.4,9.1L72.9,9.1L72.9,8.6L71.4,8.6L71.4,8.1L67.1,8.1L67.1,8.6L66.6,8.6L66.6,9.9L67.1,9.9L67.1,10.9L67.6,10.9L67.6,12.4L68.1,12.4L68.1,12.9L70.6,12.9L70.6,13.4L71.1,13.4L71.1,14.4L71.6,14.4L71.6,14.9L72.6,14.9L72.6,22.4L73.1,22.4L73.1,22.9L73.6,22.9L73.6,24.4L74.1,24.4L74.1,26.6L73.6,26.6L73.6,28.5L73.4,28.5L73.4,26.4L73.9,26.4L73.9,24.6L73.4,24.6L73.4,23.1L73.1,23.1L73.1,24.9L73.6,24.9L73.6,25.5L73.4,25.5L73.4,25.1L72.9,25.1L72.9,23.1L71.1,23.1L71.1,24.6L70.1,24.6L70.1,25.1L69.1,25.1L69.1,25.6L68.6,25.6L68.6,26.1L68.1,26.1L68.1,26.6L67.6,26.6L67.6,27.1L67.1,27.1L67.1,27.6L66.6,27.6L66.6,28.6L66,28.6L66,28.4L66.4,28.4L66.4,27.4L66.9,27.4L66.9,26.9L67.4,26.9L67.4,26.4L67.9,26.4L67.9,25.9L68.4,25.9L68.4,25.4L68.9,25.4L68.9,24.9L69.9,24.9L69.9,24.4L70.9,24.4L70.9,22.9z" stroke="none"/><path d="M65.9,57.4L65.9,55.1L64.9,55.1L64.9,54.1L64.4,54.1L64.4,53.1L62.9,53.1L62.9,52.6L59.9,52.6L59.9,51.1L59.4,51.1L59.4,50.1L57.9,50.1L57.9,49.6L57,49.6L57,49.4L58.1,49.4L58.1,49.9L59.6,49.9L59.6,50.9L60.1,50.9L60.1,52.4L63.1,52.4L63.1,52.9L64.6,52.9L64.6,53.9L65.1,53.9L65.1,54.9L66.1,54.9L66.1,57.4L69.1,57.4L69.1,58.5L68.9,58.5L68.9,57.6L66.1,57.6L66.1,60.4L66.6,60.4L66.6,60.9L67.1,60.9L67.1,72.9L67.6,72.9L67.6,74.4L69.1,74.4L69.1,74.9L70.6,74.9L70.6,75.9L71.1,75.9L71.1,76.4L77.4,76.4L77.4,73.6L76.9,73.6L76.9,70.1L75.9,70.1L75.9,69.6L74.9,69.6L74.9,69L75.1,69L75.1,69.4L76.1,69.4L76.1,69.9L77.1,69.9L77.1,73.4L77.6,73.4L77.6,76.6L70.9,76.6L70.9,76.1L70.4,76.1L70.4,75.1L68.9,75.1L68.9,74.6L67.4,74.6L67.4,73.1L66.9,73.1L66.9,61.1L66.4,61.1L66.4,60.6L65.9,60.6L65.9,57.6L65.4,57.6L65.4,57.1L63.9,57.1L63.9,56.6L63.4,56.6L63.4,54.6L62.9,54.6L62.9,54L63.1,54L63.1,54.4L63.6,54.4L63.6,56.4L64.1,56.4L64.1,56.9L65.6,56.9L65.6,57.4z" stroke="none"/><path d="M39.4,12.4L39.4,11.4L39.9,11.4L39.9,10.9L40.4,10.9L40.4,9.9L42.6,9.9L42.6,12.4L43.1,12.4L43.1,12.9L44.1,12.9L44.1,13.4L44.6,13.4L44.6,13.9L49.1,13.9L49.1,14.4L49.9,14.4L49.9,13.9L50.4,13.9L50.4,5.6L49.9,5.6L49.9,5.1L49.4,5.1L49.4,3L49.6,3L49.6,4.9L50.1,4.9L50.1,5.4L50.6,5.4L50.6,14.1L50.1,14.1L50.1,14.6L48.9,14.6L48.9,14.1L44.4,14.1L44.4,13.6L43.9,13.6L43.9,13.1L42.9,13.1L42.9,12.6L42.4,12.6L42.4,10.1L40.6,10.1L40.6,11.1L40.1,11.1L40.1,11.6L39.6,11.6L39.6,12.4L39.9,12.4L39.9,11.9L40.4,11.9L40.4,11.4L41.4,11.4L41.4,10.4L42,10.4L42,10.6L41.6,10.6L41.6,11.6L40.6,11.6L40.6,12.1L40.1,12.1L40.1,12.6L39.6,12.6L39.6,13.6L39.1,13.6L39.1,14.1L38.1,14.1L38.1,15.6L37.6,15.6L37.6,16.5L37.4,16.5L37.4,15.4L37.9,15.4L37.9,13.9L38.9,13.9L38.9,13.4L39.4,13.4L39.4,12.6L38.1,12.6L38.1,13.6L37.6,13.6L37.6,15.1L37.1,15.1L37.1,15.6L36.1,15.6L36.1,18.6L33.6,18.6L33.6,19.1L32.6,19.1L32.6,20.1L30.6,20.1L30.6,20.6L30.1,20.6L30.1,21L29.9,21L29.9,20.4L30.4,20.4L30.4,19.9L32.4,19.9L32.4,18.9L33.4,18.9L33.4,18.4L35.9,18.4L35.9,15.4L36.9,15.4L36.9,14.9L37.4,14.9L37.4,13.4L37.9,13.4L37.9,12.4z" stroke="none"/><path d="M82.4,97.4L82.4,96.9L83.4,96.9L83.4,96.4L83.9,96.4L83.9,95.9L84.4,95.9L84.4,95.4L87.9,95.4L87.9,94.9L88.4,94.9L88.4,94.4L93,94.4L93,94.6L88.6,94.6L88.6,95.1L88.1,95.1L88.1,95.6L84.6,95.6L84.6,96.1L84.1,96.1L84.1,96.6L83.6,96.6L83.6,97.1L82.6,97.1L82.6,97.4L84.9,97.4L84.9,95.9L85.5,95.9L85.5,96.1L85.1,96.1L85.1,97.6L82.6,97.6L82.6,99.1L81.6,99.1L81.6,100.1L81.1,100.1L81.1,100.6L80.6,100.6L80.6,101.6L75.6,101.6L75.6,102.1L75,102.1L75,101.9L75.4,101.9L75.4,101.4L80.4,101.4L80.4,100.4L80.9,100.4L80.9,99.9L81.4,99.9L81.4,98.9L82.4,98.9L82.4,97.6L78.6,97.6L78.6,98.1L77.6,98.1L77.6,98.6L77.1,98.6L77.1,99.1L76.5,99.1L76.5,98.9L76.9,98.9L76.9,98.4L77.4,98.4L77.4,97.9L78.4,97.9L78.4,97.4z" stroke="none"/><path d="M35.9,62.9L35.9,58.9L36.9,58.9L36.9,55.9L38.4,55.9L38.4,54.9L39.9,54.9L39.9,54.4L40.9,54.4L40.9,53.9L43.4,53.9L43.4,53.4L44.9,53.4L44.9,52.4L46.5,52.4L46.5,52.6L45.1,52.6L45.1,53.6L43.6,53.6L43.6,54.1L41.1,54.1L41.1,54.6L40.1,54.6L40.1,55.1L38.6,55.1L38.6,56.1L37.1,56.1L37.1,59.1L36.1,59.1L36.1,62.9L36.6,62.9L36.6,68.1L28.1,68.1L28.1,68.6L27.6,68.6L27.6,70.4L28.1,70.4L28.1,71.9L28.5,71.9L28.5,72.1L27.9,72.1L27.9,70.6L27.4,70.6L27.4,68.4L27.9,68.4L27.9,67.9L36.4,67.9L36.4,63.1L36.1,63.1L36.1,67.5L35.9,67.5L35.9,63.1L33.4,63.1L33.4,62.6L32.9,62.6L32.9,61.5L33.1,61.5L33.1,62.4L33.6,62.4L33.6,62.9z" stroke="none"/><path d="M93.9,81.9L93.9,81.4L98.4,81.4L98.4,80.9L99,80.9L99,81.1L98.6,81.1L98.6,81.6L94.1,81.6L94.1,81.9L97.1,81.9L97.1,82.4L97.5,82.4L97.5,82.6L96.9,82.6L96.9,82.1L94.1,82.1L94.1,87.9L95.1,87.9L95.1,88.9L96.1,88.9L96.1,91.5L95.9,91.5L95.9,89.1L94.9,89.1L94.9,88.1L93.9,88.1L93.9,82.1L88.4,82.1L88.4,81.1L87.9,81.1L87.9,80.6L86.4,80.6L86.4,80.1L85.9,80.1L85.9,77.1L84.9,77.1L84.9,75.6L84.4,75.6L84.4,75.1L83.4,75.1L83.4,73.1L82.4,73.1L82.4,72L82.6,72L82.6,72.9L83.6,72.9L83.6,74.9L84.6,74.9L84.6,75.4L85.1,75.4L85.1,76.9L86.1,76.9L86.1,79.9L86.6,79.9L86.6,80.4L88.1,80.4L88.1,80.9L88.6,80.9L88.6,81.9z" stroke="none"/><path d="M85.4,7.9L85.4,5.4L85.9,5.4L85.9,4.9L86.4,4.9L86.4,4.4L87,4.4L87,4.6L86.6,4.6L86.6,5.1L86.1,5.1L86.1,5.6L85.6,5.6L85.6,7.9L89.4,7.9L89.4,7.4L90.4,7.4L90.4,6.9L90.9,6.9L90.9,6.4L92.4,6.4L92.4,5.9L93,5.9L93,6.1L92.6,6.1L92.6,6.6L91.1,6.6L91.1,7.1L90.6,7.1L90.6,7.6L89.6,7.6L89.6,8.1L85.6,8.1L85.6,13.5L85.4,13.5L85.4,8.1L77.1,8.1L77.1,9.1L76.5,9.1L76.5,8.9L76.9,8.9L76.9,7.9z" stroke="none"/><path d="M78.4,62.4L78.4,58.6L78,58.6L78,58.4L78.6,58.4L78.6,62.4L78.9,62.4L78.9,60.9L79.4,60.9L79.4,60.4L80.9,60.4L80.9,59.9L81.4,59.9L81.4,59.4L81.9,59.4L81.9,58.9L83.6,58.9L83.6,59.4L84.1,59.4L84.1,59.9L85.6,59.9L85.6,60.4L86.6,60.4L86.6,60.9L89.4,60.9L89.4,60.4L89.9,60.4L89.9,60L90.1,60L90.1,60.6L89.6,60.6L89.6,61.1L86.4,61.1L86.4,60.6L85.4,60.6L85.4,60.1L83.9,60.1L83.9,59.6L83.4,59.6L83.4,59.1L82.1,59.1L82.1,59.6L81.6,59.6L81.6,60.1L81.1,60.1L81.1,60.6L79.6,60.6L79.6,61.1L79.1,61.1L79.1,62.6L78.6,62.6L78.6,63.1L74.6,63.1L74.6,63.6L74.1,63.6L74.1,64.6L73.1,64.6L73.1,65.1L72.1,65.1L72.1,66.6L71.6,66.6L71.6,67.1L71.1,67.1L71.1,75.4L71.6,75.4L71.6,75.9L74.9,75.9L74.9,74.9L76.5,74.9L76.5,75.1L75.1,75.1L75.1,76.1L71.4,76.1L71.4,75.6L70.9,75.6L70.9,66.9L71.4,66.9L71.4,66.4L71.9,66.4L71.9,64.9L72.9,64.9L72.9,64.4L73.9,64.4L73.9,63.4L74.4,63.4L74.4,62.9L78.4,62.9L78.4,62.6L77.9,62.6L77.9,60.6L77.4,60.6L77.4,59.6L76.9,59.6L76.9,59.1L76.4,59.1L76.4,58.6L75.4,58.6L75.4,57.6L71.9,57.6L71.9,57.1L70.5,57.1L70.5,56.9L72.1,56.9L72.1,57.4L75.6,57.4L75.6,58.4L76.6,58.4L76.6,58.9L77.1,58.9L77.1,59.4L77.6,59.4L77.6,60.4L78.1,60.4L78.1,62.4z" stroke="none"/><path d="M60.9,38.4L60.9,34.9L61.9,34.9L61.9,33.9L62.9,33.9L62.9,33.4L63.4,33.4L63.4,32.4L64.4,32.4L64.4,31.9L65.4,31.9L65.4,31.4L66.4,31.4L66.4,30.9L67.4,30.9L67.4,30L67.6,30L67.6,31.1L66.6,31.1L66.6,31.6L65.6,31.6L65.6,32.1L64.6,32.1L64.6,32.6L63.6,32.6L63.6,33.6L63.1,33.6L63.1,34.1L62.1,34.1L62.1,35.1L61.1,35.1L61.1,38.4L67.9,38.4L67.9,37.9L68.4,37.9L68.4,37.4L69,37.4L69,37.6L68.6,37.6L68.6,38.1L68.1,38.1L68.1,38.6L61.1,38.6L61.1,38.9L75.6,38.9L75.6,40.9L76.1,40.9L76.1,42.4L76.6,42.4L76.6,43.9L77.1,43.9L77.1,44.4L78.1,44.4L78.1,44.9L78.6,44.9L78.6,50.4L79.1,50.4L79.1,52.1L69.1,52.1L69.1,53.1L68.6,53.1L68.6,53.6L64.9,53.6L64.9,52.6L63.4,52.6L63.4,52.1L61.9,52.1L61.9,51.6L60.4,51.6L60.4,50.6L59.9,50.6L59.9,49.6L58.9,49.6L58.9,49.1L57.9,49.1L57.9,48.6L51.1,48.6L51.1,49.5L50.9,49.5L50.9,48.4L58.1,48.4L58.1,48.9L59.1,48.9L59.1,49.4L60.1,49.4L60.1,50.4L60.6,50.4L60.6,51.4L62.1,51.4L62.1,51.9L63.6,51.9L63.6,52.4L65.1,52.4L65.1,53.4L68.4,53.4L68.4,52.9L68.9,52.9L68.9,51.9L78.9,51.9L78.9,50.6L78.4,50.6L78.4,45.1L77.9,45.1L77.9,44.6L76.9,44.6L76.9,44.1L76.4,44.1L76.4,42.6L75.9,42.6L75.9,41.1L75.4,41.1L75.4,39.1L60.9,39.1L60.9,38.6L59.4,38.6L59.4,38.1L58.9,38.1L58.9,37.6L57,37.6L57,37.4L59.1,37.4L59.1,37.9L59.6,37.9L59.6,38.4z" stroke="none"/><path d="M50.4,80.9L50.4,78.1L49.9,78.1L49.9,77.1L49.4,77.1L49.4,76.5L49.6,76.5L49.6,76.9L50.1,76.9L50.1,77.9L50.6,77.9L50.6,80.9L52.6,80.9L52.6,81.4L53.1,81.4L53.1,81.9L56.1,81.9L56.1,82.4L57.1,82.4L57.1,83.9L59.6,83.9L59.6,84.9L60.1,84.9L60.1,85.4L60.6,85.4L60.6,86.4L61.9,86.4L61.9,85.9L62.9,85.9L62.9,85.5L63.1,85.5L63.1,86.1L62.1,86.1L62.1,86.6L60.4,86.6L60.4,85.6L59.9,85.6L59.9,85.1L59.4,85.1L59.4,84.1L56.9,84.1L56.9,82.6L55.9,82.6L55.9,82.1L52.9,82.1L52.9,81.6L52.4,81.6L52.4,81.1L50.6,81.1L50.6,81.6L44.6,81.6L44.6,82.1L44.1,82.1L44.1,82.6L43.6,82.6L43.6,84L43.4,84L43.4,82.4L43.9,82.4L43.9,81.9L44.4,81.9L44.4,81.4L50.4,81.4L50.4,81.1L49.9,81.1L49.9,79.1L49.4,79.1L49.4,78.6L48.9,78.6L48.9,78.1L46.5,78.1L46.5,77.9L49.1,77.9L49.1,78.4L49.6,78.4L49.6,78.9L50.1,78.9L50.1,80.9z" stroke="none"/><path d="M50.4,47.9L50.4,40.4L51,40.4L51,40.6L50.6,40.6L50.6,47.9L54.9,47.9L54.9,46.9L55.9,46.9L55.9,45.9L57.4,45.9L57.4,43.9L59.4,43.9L59.4,43.4L60,43.4L60,43.6L59.6,43.6L59.6,44.1L57.6,44.1L57.6,46.1L56.1,46.1L56.1,47.1L55.1,47.1L55.1,48.1L50.6,48.1L50.6,49.1L50.1,49.1L50.1,51.6L49.6,51.6L49.6,54L49.4,54L49.4,51.4L49.9,51.4L49.9,48.9L50.4,48.9L50.4,48.1L50.1,48.1L50.1,48.6L49.6,48.6L49.6,51.1L49.1,51.1L49.1,53.6L46.1,53.6L46.1,54.1L44.1,54.1L44.1,54.6L42.6,54.6L42.6,55.1L42.1,55.1L42.1,55.5L41.9,55.5L41.9,54.9L42.4,54.9L42.4,54.4L43.9,54.4L43.9,53.9L45.9,53.9L45.9,53.4L48.9,53.4L48.9,50.9L49.4,50.9L49.4,48.4L49.9,48.4L49.9,47.9z" stroke="none"/><path d="M77.9,12.4L77.9,11.9L84.1,11.9L84.1,12.4L84.6,12.4L84.6,14.4L85.9,14.4L85.9,13.9L86.4,13.9L86.4,13.1L85.9,13.1L85.9,8.9L87,8.9L87,9.1L86.1,9.1L86.1,12.9L86.6,12.9L86.6,14.1L86.1,14.1L86.1,14.6L84.4,14.6L84.4,12.6L83.9,12.6L83.9,12.1L78.1,12.1L78.1,12.4L83.1,12.4L83.1,12.9L84.1,12.9L84.1,15L83.9,15L83.9,13.1L82.9,13.1L82.9,12.6L78.1,12.6L78.1,14.1L77.6,14.1L77.6,14.6L76.6,14.6L76.6,16.1L76.1,16.1L76.1,16.6L75.6,16.6L75.6,18.1L75,18.1L75,17.9L75.4,17.9L75.4,16.4L75.9,16.4L75.9,15.9L76.4,15.9L76.4,14.4L77.4,14.4L77.4,13.9L77.9,13.9L77.9,12.6L69.4,12.6L69.4,11.6L68.9,11.6L68.9,10.6L68.4,10.6L68.4,9.1L67.5,9.1L67.5,8.9L68.6,8.9L68.6,10.4L69.1,10.4L69.1,11.4L69.6,11.4L69.6,12.4z" stroke="none"/><path d="M8.9,33.9L8.9,30.6L8.4,30.6L8.4,30.1L7.9,30.1L7.9,26.1L6.4,26.1L6.4,25.6L6,25.6L6,25.4L6.6,25.4L6.6,25.9L8.1,25.9L8.1,29.9L8.6,29.9L8.6,30.4L9.1,30.4L9.1,33.9L10.9,33.9L10.9,32.9L11.9,32.9L11.9,31.9L12.4,31.9L12.4,29.9L13.9,29.9L13.9,27.9L14.4,27.9L14.4,27.4L16.9,27.4L16.9,25.4L18,25.4L18,25.6L17.1,25.6L17.1,27.6L14.6,27.6L14.6,28.1L14.1,28.1L14.1,30.1L12.6,30.1L12.6,32.1L12.1,32.1L12.1,33.1L11.1,33.1L11.1,34.1L9.1,34.1L9.1,38.1L8.6,38.1L8.6,38.6L7.1,38.6L7.1,39.6L6.6,39.6L6.6,40.1L6.1,40.1L6.1,40.5L5.9,40.5L5.9,39.9L6.4,39.9L6.4,39.4L6.9,39.4L6.9,38.4L8.4,38.4L8.4,37.9L8.9,37.9L8.9,34.1L8.6,34.1L8.6,37.6L8.1,37.6L8.1,38.1L6.6,38.1L6.6,38.6L6.1,38.6L6.1,39.6L5.6,39.6L5.6,44.9L6,44.9L6,45.1L5.4,45.1L5.4,39.4L5.9,39.4L5.9,38.4L6.4,38.4L6.4,37.9L7.9,37.9L7.9,37.4L8.4,37.4L8.4,33.9z" stroke="none"/><path d="M42.9,9.4L42.9,3.4L43.9,3.4L43.9,2.9L46.5,2.9L46.5,3.1L44.1,3.1L44.1,3.6L43.1,3.6L43.1,9.4L43.4,9.4L43.4,8.4L44.4,8.4L44.4,6.4L45.4,6.4L45.4,5.4L46.9,5.4L46.9,3.9L48.4,3.9L48.4,2.4L48.9,2.4L48.9,1.9L50.6,1.9L50.6,4.9L51.1,4.9L51.1,15.1L50.6,15.1L50.6,16.6L50.1,16.6L50.1,17.1L48.1,17.1L48.1,17.6L47.1,17.6L47.1,18.1L45.1,18.1L45.1,18.6L44.6,18.6L44.6,19.1L42.1,19.1L42.1,21.6L41.6,21.6L41.6,22.1L39.6,22.1L39.6,22.6L37.5,22.6L37.5,22.4L39.4,22.4L39.4,21.9L41.4,21.9L41.4,21.4L41.9,21.4L41.9,18.9L44.4,18.9L44.4,18.4L44.9,18.4L44.9,17.9L46.9,17.9L46.9,17.4L47.9,17.4L47.9,16.9L49.9,16.9L49.9,16.4L50.4,16.4L50.4,14.9L50.9,14.9L50.9,5.1L50.4,5.1L50.4,2.1L49.1,2.1L49.1,2.6L48.6,2.6L48.6,4.1L47.1,4.1L47.1,5.6L45.6,5.6L45.6,6.6L44.6,6.6L44.6,8.6L43.6,8.6L43.6,9.6L43.1,9.6L43.1,11.9L43.6,11.9L43.6,12.4L44.6,12.4L44.6,12.9L45.1,12.9L45.1,13.4L49.5,13.4L49.5,13.6L44.9,13.6L44.9,13.1L44.4,13.1L44.4,12.6L43.4,12.6L43.4,12.1L42.9,12.1L42.9,9.6L42.4,9.6L42.4,9.1L41.9,9.1L41.9,8.6L40.9,8.6L40.9,8.1L35.4,8.1L35.4,5.6L34.4,5.6L34.4,4.5L34.6,4.5L34.6,5.4L35.6,5.4L35.6,7.9L41.1,7.9L41.1,8.4L42.1,8.4L42.1,8.9L42.6,8.9L42.6,9.4z" stroke="none"/><path d="M91.9,22.4L91.9,16.9L92.4,16.9L92.4,15.9L92.9,15.9L92.9,14.4L98.1,14.4L98.1,28.4L98.6,28.4L98.6,29.9L99.1,29.9L99.1,30.4L100.6,30.4L100.6,31.5L100.4,31.5L100.4,30.6L98.9,30.6L98.9,30.1L98.4,30.1L98.4,28.6L97.9,28.6L97.9,14.6L93.1,14.6L93.1,16.1L92.6,16.1L92.6,17.1L92.1,17.1L92.1,22.4L92.4,22.4L92.4,21.4L92.9,21.4L92.9,18.9L93.9,18.9L93.9,18.4L94.4,18.4L94.4,16.4L94.9,16.4L94.9,15.4L95.4,15.4L95.4,14.9L97.5,14.9L97.5,15.1L95.6,15.1L95.6,15.6L95.1,15.6L95.1,16.6L94.6,16.6L94.6,18.6L94.1,18.6L94.1,19.1L93.1,19.1L93.1,21.6L92.6,21.6L92.6,22.6L92.1,22.6L92.1,23.1L91.1,23.1L91.1,24.1L87.6,24.1L87.6,24.6L87.1,24.6L87.1,25.6L86.6,25.6L86.6,26.1L86.1,26.1L86.1,27.1L85.5,27.1L85.5,26.9L85.9,26.9L85.9,25.9L86.4,25.9L86.4,25.4L86.9,25.4L86.9,24.4L87.4,24.4L87.4,23.9L90.9,23.9L90.9,22.9L91.9,22.9L91.9,22.6L86.9,22.6L86.9,22.1L85.9,22.1L85.9,17.6L85.4,17.6L85.4,16.5L85.6,16.5L85.6,17.4L86.1,17.4L86.1,21.9L87.1,21.9L87.1,22.4z" stroke="none"/><path d="M25.4,40.4L25.4,38.4L25.9,38.4L25.9,37.9L26.4,37.9L26.4,36.6L23.9,36.6L23.9,35.6L17.9,35.6L17.9,34.6L16.5,34.6L16.5,34.4L18.1,34.4L18.1,35.4L24.1,35.4L24.1,36.4L26.6,36.4L26.6,38.1L26.1,38.1L26.1,38.6L25.6,38.6L25.6,40.4L25.9,40.4L25.9,39.4L26.4,39.4L26.4,38.4L26.9,38.4L26.9,29.6L26.4,29.6L26.4,29.1L25.9,29.1L25.9,27.9L26.4,27.9L26.4,27.4L27.6,27.4L27.6,27.9L28.1,27.9L28.1,29.4L28.6,29.4L28.6,30L28.4,30L28.4,29.6L27.9,29.6L27.9,28.1L27.4,28.1L27.4,27.6L26.6,27.6L26.6,28.1L26.1,28.1L26.1,28.9L26.6,28.9L26.6,29.4L27.1,29.4L27.1,38.6L26.6,38.6L26.6,39.6L26.1,39.6L26.1,40.6L25.6,40.6L25.6,41.1L23.6,41.1L23.6,41.6L23.1,41.6L23.1,48.9L25.6,48.9L25.6,49.5L25.4,49.5L25.4,49.1L22.9,49.1L22.9,41.4L23.4,41.4L23.4,40.9L25.4,40.9L25.4,40.6L22.6,40.6L22.6,50.9L26.1,50.9L26.1,51.4L26.6,51.4L26.6,51.9L27.9,51.9L27.9,51.4L29.4,51.4L29.4,50.9L29.9,50.9L29.9,50.4L30.4,50.4L30.4,49.4L31.5,49.4L31.5,49.6L30.6,49.6L30.6,50.6L30.1,50.6L30.1,51.1L29.6,51.1L29.6,51.6L28.1,51.6L28.1,52.1L26.4,52.1L26.4,51.6L25.9,51.6L25.9,51.1L22.4,51.1L22.4,40.4z" stroke="none"/><path d="M49.9,93.4L49.9,90.9L50.4,90.9L50.4,90.4L50.9,90.4L50.9,89.9L53.9,89.9L53.9,88.4L54.4,88.4L54.4,87.9L55.4,87.9L55.4,87.4L55.9,87.4L55.9,86.4L57.4,86.4L57.4,85.9L58.4,85.9L58.4,85.5L58.6,85.5L58.6,86.1L57.6,86.1L57.6,86.6L56.1,86.6L56.1,87.6L55.6,87.6L55.6,88.1L54.6,88.1L54.6,88.6L54.1,88.6L54.1,90.1L51.1,90.1L51.1,90.6L50.6,90.6L50.6,91.1L50.1,91.1L50.1,93.4L51.9,93.4L51.9,91.9L53.4,91.9L53.4,90.9L53.9,90.9L53.9,90.4L54.9,90.4L54.9,88.4L55.9,88.4L55.9,87.9L56.4,87.9L56.4,87.4L56.9,87.4L56.9,87L57.1,87L57.1,87.6L56.6,87.6L56.6,88.1L56.1,88.1L56.1,88.6L55.1,88.6L55.1,90.6L54.1,90.6L54.1,91.1L53.6,91.1L53.6,92.1L52.1,92.1L52.1,93.6L50.1,93.6L50.1,93.9L57.6,93.9L57.6,94.4L58.1,94.4L58.1,96.6L57.6,96.6L57.6,97.1L55.6,97.1L55.6,98.6L52.1,98.6L52.1,99.6L51.6,99.6L51.6,100.1L50.6,100.1L50.6,100.6L46.6,100.6L46.6,101.1L45.6,101.1L45.6,102.6L44.4,102.6L44.4,102.1L40.4,102.1L40.4,100.5L40.6,100.5L40.6,101.9L44.6,101.9L44.6,102.4L45.4,102.4L45.4,100.9L46.4,100.9L46.4,100.4L50.4,100.4L50.4,99.9L51.4,99.9L51.4,99.4L51.9,99.4L51.9,98.4L55.4,98.4L55.4,96.9L57.4,96.9L57.4,96.4L57.9,96.4L57.9,94.6L57.4,94.6L57.4,94.1L49.9,94.1L49.9,93.6L46.1,93.6L46.1,95.1L45.6,95.1L45.6,96.1L45.1,96.1L45.1,97.6L44.6,97.6L44.6,98.1L42.6,98.1L42.6,98.6L42.1,98.6L42.1,99.6L41.6,99.6L41.6,100.1L41.1,100.1L41.1,100.9L41.6,100.9L41.6,101.4L45.1,101.4L45.1,102L44.9,102L44.9,101.6L41.4,101.6L41.4,101.1L40.9,101.1L40.9,99.9L41.4,99.9L41.4,99.4L41.9,99.4L41.9,98.4L42.4,98.4L42.4,97.9L44.4,97.9L44.4,97.4L44.9,97.4L44.9,95.9L45.4,95.9L45.4,94.9L45.9,94.9L45.9,93.4z" stroke="none"/><path d="M39,15.1L39,14.9L40.5,14.9L40.5,15.1z" stroke="none"/><path d="M87,43.4L87,43.6L85.5,43.6L85.5,43.4z" stroke="none"/><path d="M19.5,100.6L19.5,100.4L21,100.4L21,100.6z" stroke="none"/><path d="M9,50.9L9,51.1L8.6,51.1L8.6,52.1L8.1,52.1L8.1,52.6L7.5,52.6L7.5,52.4L7.9,52.4L7.9,51.9L8.4,51.9L8.4,50.9z" stroke="none"/><path d="M29.9,40.5L30.1,40.5L30.1,41.6L29.6,41.6L29.6,42.1L28.5,42.1L28.5,41.9L29.4,41.9L29.4,41.4L29.9,41.4z" stroke="none"/><path d="M13.5,94.6L13.5,94.4L14.4,94.4L14.4,93.4L14.9,93.4L14.9,93L15.1,93L15.1,93.6L14.6,93.6L14.6,94.6z" stroke="none"/><path d="M81,51.1L81,50.9L81.9,50.9L81.9,49.9L82.4,49.9L82.4,49.5L82.6,49.5L82.6,50.1L82.1,50.1L82.1,51.1z" stroke="none"/><path d="M12,89.9L12,90.1L10.6,90.1L10.6,90.6L10.1,90.6L10.1,91.1L8.6,91.1L8.6,92.6L8.1,92.6L8.1,93.4L8.6,93.4L8.6,93.9L10.9,93.9L10.9,93.4L11.9,93.4L11.9,93L12.1,93L12.1,93.6L11.1,93.6L11.1,94.1L8.4,94.1L8.4,93.6L7.9,93.6L7.9,92.4L8.4,92.4L8.4,90.9L9.9,90.9L9.9,90.4L10.4,90.4L10.4,89.9z" stroke="none"/><path d="M33.1,97.5L32.9,97.5L32.9,94.5L33.1,94.5z" stroke="none"/><path d="M61.6,13.5L61.4,13.5L61.4,10.9L61.9,10.9L61.9,10.4L63,10.4L63,10.6L62.1,10.6L62.1,11.1L61.6,11.1z" stroke="none"/><path d="M28.4,55.5L28.6,55.5L28.6,57.9L30.1,57.9L30.1,58.5L29.9,58.5L29.9,58.1L28.4,58.1z" stroke="none"/><path d="M93,73.6L93,73.4L93.4,73.4L93.4,72.9L93.9,72.9L93.9,70.9L94.4,70.9L94.4,70.5L94.6,70.5L94.6,71.1L94.1,71.1L94.1,73.1L93.6,73.1L93.6,73.6z" stroke="none"/><path d="M88.4,9L88.6,9L88.6,10.6L88.1,10.6L88.1,11.1L87.6,11.1L87.6,11.6L87.1,11.6L87.1,12L86.9,12L86.9,11.4L87.4,11.4L87.4,10.9L87.9,10.9L87.9,10.4L88.4,10.4z" stroke="none"/><path d="M26.9,84L27.1,84L27.1,86.1L26.1,86.1L26.1,86.6L25.6,86.6L25.6,87.1L24,87.1L24,86.9L25.4,86.9L25.4,86.4L25.9,86.4L25.9,85.9L26.9,85.9z" stroke="none"/><path d="M95.9,27L96.1,27L96.1,27.6L95.6,27.6L95.6,28.1L94.1,28.1L94.1,28.6L93.1,28.6L93.1,30L92.9,30L92.9,28.4L93.9,28.4L93.9,27.9L95.4,27.9L95.4,27.4L95.9,27.4z" stroke="none"/><path d="M55.5,13.6L55.5,13.4L56.6,13.4L56.6,15.4L57.1,15.4L57.1,16.4L58.5,16.4L58.5,16.6L56.9,16.6L56.9,15.6L56.4,15.6L56.4,13.6z" stroke="none"/><path d="M85.6,66L85.4,66L85.4,61.5L85.6,61.5z" stroke="none"/><path d="M19.6,9L19.4,9L19.4,4.5L19.6,4.5z" stroke="none"/><path d="M33,40.6L33,40.4L33.9,40.4L33.9,39.9L34.4,39.9L34.4,36.9L35.4,36.9L35.4,36.4L41.9,36.4L41.9,35.4L43.4,35.4L43.4,34.9L43.9,34.9L43.9,33.9L44.4,33.9L44.4,33.4L45.6,33.4L45.6,33.9L46.1,33.9L46.1,40.4L46.6,40.4L46.6,40.9L47.1,40.9L47.1,42.9L47.6,42.9L47.6,43.4L48.6,43.4L48.6,44.4L49.1,44.4L49.1,45.6L48.6,45.6L48.6,46.1L45.4,46.1L45.4,44.6L44.9,44.6L44.9,44.1L43.4,44.1L43.4,43.6L42.4,43.6L42.4,43.1L40.9,43.1L40.9,42.6L37.9,42.6L37.9,42.1L37.5,42.1L37.5,41.9L38.1,41.9L38.1,42.4L41.1,42.4L41.1,42.9L42.6,42.9L42.6,43.4L43.6,43.4L43.6,43.9L45.1,43.9L45.1,44.4L45.6,44.4L45.6,45.9L48.4,45.9L48.4,45.4L48.9,45.4L48.9,44.6L48.4,44.6L48.4,43.6L47.4,43.6L47.4,43.1L46.9,43.1L46.9,41.1L46.4,41.1L46.4,40.6L45.9,40.6L45.9,34.1L45.4,34.1L45.4,33.6L44.6,33.6L44.6,34.1L44.1,34.1L44.1,35.1L43.6,35.1L43.6,35.6L42.1,35.6L42.1,36.6L35.6,36.6L35.6,37.1L34.6,37.1L34.6,40.1L34.1,40.1L34.1,40.6z" stroke="none"/><path d="M22.5,64.4L22.5,64.6L19.4,64.6L19.4,63.1L18,63.1L18,62.9L19.6,62.9L19.6,64.4z" stroke="none"/><path d="M78.1,72L77.9,72L77.9,68.4L78.4,68.4L78.4,67.9L78.9,67.9L78.9,67.4L79.5,67.4L79.5,67.6L79.1,67.6L79.1,68.1L78.6,68.1L78.6,68.6L78.1,68.6z" stroke="none"/><path d="M96,46.4L96,46.6L92.9,46.6L92.9,45.1L91.5,45.1L91.5,44.9L93.1,44.9L93.1,46.4z" stroke="none"/><path d="M15,58.6L15,58.4L16.1,58.4L16.1,58.9L17.1,58.9L17.1,59.4L17.6,59.4L17.6,62.6L17.1,62.6L17.1,63.1L16.5,63.1L16.5,62.9L16.9,62.9L16.9,62.4L17.4,62.4L17.4,59.6L16.9,59.6L16.9,59.1L15.9,59.1L15.9,58.6z" stroke="none"/><path d="M7.6,63L7.4,63L7.4,61.6L5.4,61.6L5.4,61.1L4.9,61.1L4.9,60.6L3.6,60.6L3.6,64.1L3.1,64.1L3.1,64.5L2.9,64.5L2.9,63.9L3.4,63.9L3.4,60.4L5.1,60.4L5.1,60.9L5.6,60.9L5.6,61.4L7.6,61.4z" stroke="none"/><path d="M81.1,43.5L80.9,43.5L80.9,42.9L81.4,42.9L81.4,42.4L81.9,42.4L81.9,41.9L82.4,41.9L82.4,41.4L83.4,41.4L83.4,40.9L87.1,40.9L87.1,42.4L87.6,42.4L87.6,42.9L88.1,42.9L88.1,44.1L87.6,44.1L87.6,44.6L85.6,44.6L85.6,45L85.4,45L85.4,44.4L87.4,44.4L87.4,43.9L87.9,43.9L87.9,43.1L87.4,43.1L87.4,42.6L86.9,42.6L86.9,41.1L83.6,41.1L83.6,41.6L82.6,41.6L82.6,42.1L82.1,42.1L82.1,42.6L81.6,42.6L81.6,43.1L81.1,43.1z" stroke="none"/><path d="M26.9,93L27.1,93L27.1,93.4L27.6,93.4L27.6,93.9L28.1,93.9L28.1,94.9L28.6,94.9L28.6,97.5L28.4,97.5L28.4,95.1L27.9,95.1L27.9,94.1L27.4,94.1L27.4,93.6L26.9,93.6z" stroke="none"/><path d="M49.5,25.6L49.5,25.4L53.6,25.4L53.6,25.9L54.1,25.9L54.1,28.5L53.9,28.5L53.9,26.1L53.4,26.1L53.4,25.6z" stroke="none"/><path d="M37.5,97.4L37.5,97.6L36.9,97.6L36.9,96.6L34.9,96.6L34.9,95.6L34.4,95.6L34.4,93L34.6,93L34.6,95.4L35.1,95.4L35.1,96.4L37.1,96.4L37.1,97.4z" stroke="none"/><path d="M67.5,3.1L67.5,2.9L73.5,2.9L73.5,3.1z" stroke="none"/><path d="M96,76.4L96,76.6L90,76.6L90,76.4z" stroke="none"/><path d="M54,81.1L54,80.9L60,80.9L60,81.1z" stroke="none"/><path d="M25.6,18L25.4,18L25.4,12L25.6,12z" stroke="none"/><path d="M24.1,18L23.9,18L23.9,16.1L23.4,16.1L23.4,15.6L22.9,15.6L22.9,12.1L22.5,12.1L22.5,11.9L23.1,11.9L23.1,15.4L23.6,15.4L23.6,15.9L24.1,15.9z" stroke="none"/><path d="M12,57.1L12,56.9L16.1,56.9L16.1,57.9L16.6,57.9L16.6,58.4L18,58.4L18,58.6L16.4,58.6L16.4,58.1L15.9,58.1L15.9,57.1z" stroke="none"/><path d="M58.5,58.4L58.5,58.6L55.6,58.6L55.6,59.1L53.6,59.1L53.6,60.1L52.5,60.1L52.5,59.9L53.4,59.9L53.4,58.9L55.4,58.9L55.4,58.4z" stroke="none"/><path d="M37.4,25.5L37.6,25.5L37.6,28.6L37.1,28.6L37.1,29.1L36.6,29.1L36.6,29.6L36.1,29.6L36.1,31.5L35.9,31.5L35.9,29.4L36.4,29.4L36.4,28.9L36.9,28.9L36.9,28.4L37.4,28.4z" stroke="none"/><path d="M37.5,85.6L37.5,85.4L38.6,85.4L38.6,85.9L40.1,85.9L40.1,86.4L40.6,86.4L40.6,86.9L43.5,86.9L43.5,87.1L40.4,87.1L40.4,86.6L39.9,86.6L39.9,86.1L38.4,86.1L38.4,85.6z" stroke="none"/><path d="M4.6,10.5L4.4,10.5L4.4,4.1L3.9,4.1L3.9,3.6L3.4,3.6L3.4,1.9L6.6,1.9L6.6,2.4L7.1,2.4L7.1,4.4L7.6,4.4L7.6,5.4L9.1,5.4L9.1,6L8.9,6L8.9,5.6L7.4,5.6L7.4,4.6L6.9,4.6L6.9,2.6L6.4,2.6L6.4,2.1L3.6,2.1L3.6,3.4L4.1,3.4L4.1,3.9L4.6,3.9z" stroke="none"/><path d="M13.4,39L13.6,39L13.6,40.9L14.1,40.9L14.1,41.4L17.6,41.4L17.6,42.9L18.1,42.9L18.1,43.5L17.9,43.5L17.9,43.1L17.4,43.1L17.4,41.6L13.9,41.6L13.9,41.1L13.4,41.1z" stroke="none"/><path d="M46.4,58.5L46.6,58.5L46.6,64.1L44.6,64.1L44.6,64.6L43.5,64.6L43.5,64.4L44.4,64.4L44.4,63.9L46.4,63.9z" stroke="none"/><path d="M63,12.1L63,11.9L63.9,11.9L63.9,10.1L63.4,10.1L63.4,9.6L61.4,9.6L61.4,9.1L60.9,9.1L60.9,8.1L60.4,8.1L60.4,6.6L59.9,6.6L59.9,6L60.1,6L60.1,6.4L60.6,6.4L60.6,7.9L61.1,7.9L61.1,8.9L61.6,8.9L61.6,9.4L63.6,9.4L63.6,9.9L64.1,9.9L64.1,12.1z" stroke="none"/><path d="M7.5,16.6L7.5,16.4L8.1,16.4L8.1,17.4L8.6,17.4L8.6,17.9L10.1,17.9L10.1,18.4L11.6,18.4L11.6,18.9L13.1,18.9L13.1,19.4L13.5,19.4L13.5,19.6L12.9,19.6L12.9,19.1L11.4,19.1L11.4,18.6L9.9,18.6L9.9,18.1L8.4,18.1L8.4,17.6L7.9,17.6L7.9,16.6z" stroke="none"/><path d="M91.5,7.6L91.5,7.4L93.4,7.4L93.4,6.4L93.9,6.4L93.9,5.1L90.4,5.1L90.4,4.1L87.9,4.1L87.9,3.6L86.6,3.6L86.6,4.1L85.6,4.1L85.6,4.5L85.4,4.5L85.4,3.9L86.4,3.9L86.4,3.4L88.1,3.4L88.1,3.9L90.6,3.9L90.6,4.9L94.1,4.9L94.1,6.6L93.6,6.6L93.6,7.6z" stroke="none"/><path d="M95.9,6L96.1,6L96.1,7.1L95.1,7.1L95.1,7.6L94.1,7.6L94.1,8.1L92.1,8.1L92.1,8.6L90.1,8.6L90.1,9L89.9,9L89.9,8.4L91.9,8.4L91.9,7.9L93.9,7.9L93.9,7.4L94.9,7.4L94.9,6.9L95.9,6.9z" stroke="none"/><path d="M57.1,19.5L56.9,19.5L56.9,19.1L55.4,19.1L55.4,18.6L54.9,18.6L54.9,18.1L54.4,18.1L54.4,17.1L53.9,17.1L53.9,14.6L53.4,14.6L53.4,14.1L52.9,14.1L52.9,12.4L58.1,12.4L58.1,12.9L59.1,12.9L59.1,13.9L59.6,13.9L59.6,14.4L64.1,14.4L64.1,16.4L64.6,16.4L64.6,16.9L65.6,16.9L65.6,17.4L67.1,17.4L67.1,17.9L68.1,17.9L68.1,18.4L68.6,18.4L68.6,20.6L67.6,20.6L67.6,21.1L67.1,21.1L67.1,21.6L66.6,21.6L66.6,22.1L63.6,22.1L63.6,22.6L63.1,22.6L63.1,24L62.9,24L62.9,22.4L63.4,22.4L63.4,21.9L66.4,21.9L66.4,21.4L66.9,21.4L66.9,20.9L67.4,20.9L67.4,20.4L68.4,20.4L68.4,18.6L67.9,18.6L67.9,18.1L66.9,18.1L66.9,17.6L65.4,17.6L65.4,17.1L64.4,17.1L64.4,16.6L63.9,16.6L63.9,14.6L59.4,14.6L59.4,14.1L58.9,14.1L58.9,13.1L57.9,13.1L57.9,12.6L53.1,12.6L53.1,13.9L53.6,13.9L53.6,14.4L54.1,14.4L54.1,16.9L54.6,16.9L54.6,17.9L55.1,17.9L55.1,18.4L55.6,18.4L55.6,18.9L57.1,18.9z" stroke="none"/><path d="M40.5,91.4L40.5,91.6L36.4,91.6L36.4,88.1L34.9,88.1L34.9,87.6L34.4,87.6L34.4,87L34.6,87L34.6,87.4L35.1,87.4L35.1,87.9L36.6,87.9L36.6,91.4z" stroke="none"/><path d="M35.9,75L36.1,75L36.1,79.9L37.1,79.9L37.1,80.9L37.6,80.9L37.6,82.9L38.6,82.9L38.6,83.4L39.9,83.4L39.9,82.9L40.4,82.9L40.4,72.9L40.9,72.9L40.9,71.9L41.4,71.9L41.4,70.9L41.9,70.9L41.9,70.5L42.1,70.5L42.1,71.1L41.6,71.1L41.6,72.1L41.1,72.1L41.1,73.1L40.6,73.1L40.6,83.1L40.1,83.1L40.1,83.6L38.4,83.6L38.4,83.1L37.4,83.1L37.4,81.1L36.9,81.1L36.9,80.1L35.9,80.1z" stroke="none"/><path d="M98.9,4.5L99.1,4.5L99.1,12L98.9,12z" stroke="none"/><path d="M94.5,52.4L94.5,52.6L87,52.6L87,52.4z" stroke="none"/><path d="M96.1,57L95.9,57L95.9,53.9L96.9,53.9L96.9,53.4L97.4,53.4L97.4,52.4L99.9,52.4L99.9,50.9L100.5,50.9L100.5,51.1L100.1,51.1L100.1,52.6L97.6,52.6L97.6,53.6L97.1,53.6L97.1,54.1L96.1,54.1z" stroke="none"/><path d="M38.9,9L39.1,9L39.1,9.6L37.6,9.6L37.6,10.6L37.1,10.6L37.1,11.1L35.1,11.1L35.1,11.6L34.1,11.6L34.1,12.1L33.6,12.1L33.6,12.6L33.1,12.6L33.1,13.5L32.9,13.5L32.9,12.4L33.4,12.4L33.4,11.9L33.9,11.9L33.9,11.4L34.9,11.4L34.9,10.9L36.9,10.9L36.9,10.4L37.4,10.4L37.4,9.4L38.9,9.4z" stroke="none"/><path d="M4.6,27L4.4,27L4.4,19.4L6,19.4L6,19.6L4.6,19.6z" stroke="none"/><path d="M51,76.6L51,76.4L58.4,76.4L58.4,75L58.6,75L58.6,76.6z" stroke="none"/><path d="M73.5,100.4L73.5,100.6L70.1,100.6L70.1,101.1L66.6,101.1L66.6,101.6L64.9,101.6L64.9,99.4L65.9,99.4L65.9,99L66.1,99L66.1,99.6L65.1,99.6L65.1,101.4L66.4,101.4L66.4,100.9L69.9,100.9L69.9,100.4z" stroke="none"/><path d="M76.5,94.4L76.5,94.6L68.9,94.6L68.9,93L69.1,93L69.1,94.4z" stroke="none"/><path d="M63,65.9L63,66.1L60.4,66.1L60.4,65.6L57.4,65.6L57.4,65.1L56.9,65.1L56.9,64.6L55.5,64.6L55.5,64.4L57.1,64.4L57.1,64.9L57.6,64.9L57.6,65.4L60.6,65.4L60.6,65.9z" stroke="none"/><path d="M7.5,53.9L7.5,54.1L6.4,54.1L6.4,53.6L4.9,53.6L4.9,47.1L4.4,47.1L4.4,46.5L4.6,46.5L4.6,46.9L5.1,46.9L5.1,53.4L6.6,53.4L6.6,53.9z" stroke="none"/><path d="M37.6,90L37.4,90L37.4,88.6L36.9,88.6L36.9,87.6L35.9,87.6L35.9,86.1L34.1,86.1L34.1,86.6L33.6,86.6L33.6,92.1L32.1,92.1L32.1,92.6L30.6,92.6L30.6,93.1L30,93.1L30,92.9L30.4,92.9L30.4,92.4L31.9,92.4L31.9,91.9L33.4,91.9L33.4,86.4L33.9,86.4L33.9,85.9L36.1,85.9L36.1,87.4L37.1,87.4L37.1,88.4L37.6,88.4z" stroke="none"/><path d="M64.5,28.4L64.5,28.6L59.6,28.6L59.6,29.6L59.1,29.6L59.1,30.6L58.6,30.6L58.6,31.1L58.1,31.1L58.1,31.6L57.6,31.6L57.6,33.1L57,33.1L57,32.9L57.4,32.9L57.4,31.4L57.9,31.4L57.9,30.9L58.4,30.9L58.4,30.4L58.9,30.4L58.9,29.4L59.4,29.4L59.4,28.4z" stroke="none"/><path d="M8.9,88.5L9.1,88.5L9.1,90.6L8.1,90.6L8.1,92.1L7.6,92.1L7.6,94.4L11.9,94.4L11.9,93.9L12.9,93.9L12.9,92.4L13.9,92.4L13.9,89.9L15.9,89.9L15.9,89.4L16.9,89.4L16.9,88.9L17.9,88.9L17.9,88.5L18.1,88.5L18.1,89.1L17.1,89.1L17.1,89.6L16.1,89.6L16.1,90.1L14.1,90.1L14.1,92.6L13.1,92.6L13.1,94.1L12.1,94.1L12.1,94.6L7.4,94.6L7.4,91.9L7.9,91.9L7.9,90.4L8.9,90.4z" stroke="none"/><path d="M51,60.1L51,59.9L51.6,59.9L51.6,60.9L57.4,60.9L57.4,60.4L58.4,60.4L58.4,59.9L60,59.9L60,60.1L58.6,60.1L58.6,60.6L57.6,60.6L57.6,61.1L51.4,61.1L51.4,60.1z" stroke="none"/><path d="M57,63.1L57,62.9L65.6,62.9L65.6,63.9L66.1,63.9L66.1,64.5L65.9,64.5L65.9,64.1L65.4,64.1L65.4,63.1z" stroke="none"/><path d="M12,20.9L12,21.1L6.9,21.1L6.9,18.6L4.1,18.6L4.1,22.6L3,22.6L3,22.4L3.9,22.4L3.9,18.4L7.1,18.4L7.1,20.9z" stroke="none"/><path d="M69,97.4L69,97.6L62.9,97.6L62.9,96.6L61.9,96.6L61.9,96.1L61.4,96.1L61.4,90.9L61.9,90.9L61.9,90.4L68.4,90.4L68.4,89.9L68.9,89.9L68.9,89.4L69.9,89.4L69.9,88.4L70.5,88.4L70.5,88.6L70.1,88.6L70.1,89.6L69.1,89.6L69.1,90.1L68.6,90.1L68.6,90.6L62.1,90.6L62.1,91.1L61.6,91.1L61.6,95.9L62.1,95.9L62.1,96.4L63.1,96.4L63.1,97.4z" stroke="none"/><path d="M69,98.9L69,99.1L67.4,99.1L67.4,98.6L66.4,98.6L66.4,98.1L60.4,98.1L60.4,97.6L60,97.6L60,97.4L60.6,97.4L60.6,97.9L66.6,97.9L66.6,98.4L67.6,98.4L67.6,98.9z" stroke="none"/><path d="M97.5,34.4L97.5,34.6L90.4,34.6L90.4,34.1L89.9,34.1L89.9,33.6L89.4,33.6L89.4,33.1L88.9,33.1L88.9,32.1L88.4,32.1L88.4,31.5L88.6,31.5L88.6,31.9L89.1,31.9L89.1,32.9L89.6,32.9L89.6,33.4L90.1,33.4L90.1,33.9L90.6,33.9L90.6,34.4z" stroke="none"/><path d="M48.1,67.5L47.9,67.5L47.9,60.4L49.9,60.4L49.9,59.4L50.4,59.4L50.4,58.4L51,58.4L51,58.6L50.6,58.6L50.6,59.6L50.1,59.6L50.1,60.6L48.1,60.6z" stroke="none"/><path d="M3.1,10.5L2.9,10.5L2.9,1.4L7.6,1.4L7.6,2.9L9,2.9L9,3.1L7.4,3.1L7.4,1.6L3.1,1.6z" stroke="none"/><path d="M28.6,64.5L28.4,64.5L28.4,58.6L27.9,58.6L27.9,58.1L26.9,58.1L26.9,57.6L25.4,57.6L25.4,57.1L24.9,57.1L24.9,56.1L24.4,56.1L24.4,55.6L24,55.6L24,55.4L24.6,55.4L24.6,55.9L25.1,55.9L25.1,56.9L25.6,56.9L25.6,57.4L27.1,57.4L27.1,57.9L28.1,57.9L28.1,58.4L28.6,58.4z" stroke="none"/><path d="M70.5,36.1L70.5,35.9L74.4,35.9L74.4,34.4L74.9,34.4L74.9,32.9L75.9,32.9L75.9,31.9L76.4,31.9L76.4,31.4L76.9,31.4L76.9,30.9L77.4,30.9L77.4,28.4L78,28.4L78,28.6L77.6,28.6L77.6,31.1L77.1,31.1L77.1,31.6L76.6,31.6L76.6,32.1L76.1,32.1L76.1,33.1L75.1,33.1L75.1,34.6L74.6,34.6L74.6,36.1z" stroke="none"/><path d="M60.1,94.5L59.9,94.5L59.9,90.4L61.4,90.4L61.4,89.9L66.4,89.9L66.4,88.4L66.9,88.4L66.9,87.4L67.4,87.4L67.4,87L67.6,87L67.6,87.6L67.1,87.6L67.1,88.6L66.6,88.6L66.6,90.1L61.6,90.1L61.6,90.6L60.1,90.6z" stroke="none"/><path d="M4.4,57L4.6,57L4.6,58.1L4.1,58.1L4.1,59.6L3.6,59.6L3.6,60.1L3.1,60.1L3.1,63.6L2.6,63.6L2.6,64.1L2.1,64.1L2.1,64.9L2.6,64.9L2.6,65.4L3.6,65.4L3.6,65.9L4.1,65.9L4.1,66.9L4.6,66.9L4.6,67.4L6,67.4L6,67.6L4.4,67.6L4.4,67.1L3.9,67.1L3.9,66.1L3.4,66.1L3.4,65.6L2.4,65.6L2.4,65.1L1.9,65.1L1.9,63.9L2.4,63.9L2.4,63.4L2.9,63.4L2.9,59.9L3.4,59.9L3.4,59.4L3.9,59.4L3.9,57.9L4.4,57.9z" stroke="none"/><path d="M81,53.9L81,54.1L70.6,54.1L70.6,55.5L70.4,55.5L70.4,53.9z" stroke="none"/><path d="M22.5,6.1L22.5,5.9L32.9,5.9L32.9,4.5L33.1,4.5L33.1,6.1z" stroke="none"/><path d="M64.6,78L64.4,78L64.4,73.6L61.9,73.6L61.9,72.6L61.4,72.6L61.4,71.1L60.4,71.1L60.4,70.1L59.9,70.1L59.9,69.6L58.4,69.6L58.4,69L58.6,69L58.6,69.4L60.1,69.4L60.1,69.9L60.6,69.9L60.6,70.9L61.6,70.9L61.6,72.4L62.1,72.4L62.1,73.4L64.6,73.4z" stroke="none"/><path d="M100.4,10.5L100.6,10.5L100.6,12.1L100.1,12.1L100.1,13.1L93.1,13.1L93.1,13.6L92.6,13.6L92.6,15.6L92.1,15.6L92.1,16.6L91.5,16.6L91.5,16.4L91.9,16.4L91.9,15.4L92.4,15.4L92.4,13.4L92.9,13.4L92.9,12.9L99.9,12.9L99.9,11.9L100.4,11.9z" stroke="none"/><path d="M31.4,79.5L31.6,79.5L31.6,85.9L32.1,85.9L32.1,86.4L32.6,86.4L32.6,88.1L28.6,88.1L28.6,90L28.4,90L28.4,87.9L32.4,87.9L32.4,86.6L31.9,86.6L31.9,86.1L31.4,86.1z" stroke="none"/><path d="M70.5,82.4L70.5,82.6L67.6,82.6L67.6,83.6L66.6,83.6L66.6,84.1L66.1,84.1L66.1,85.6L65.6,85.6L65.6,86.1L65.1,86.1L65.1,86.6L64.6,86.6L64.6,87.1L60,87.1L60,86.9L64.4,86.9L64.4,86.4L64.9,86.4L64.9,85.9L65.4,85.9L65.4,85.4L65.9,85.4L65.9,83.9L66.4,83.9L66.4,83.4L67.4,83.4L67.4,82.4z" stroke="none"/><path d="M84,4.6L84,4.4L84.4,4.4L84.4,3.9L84.9,3.9L84.9,3.4L85.4,3.4L85.4,2.9L95.6,2.9L95.6,3.9L96.1,3.9L96.1,4.9L96.6,4.9L96.6,5.4L97.1,5.4L97.1,7.6L95.6,7.6L95.6,8.1L95.1,8.1L95.1,8.6L94.6,8.6L94.6,9L94.4,9L94.4,8.4L94.9,8.4L94.9,7.9L95.4,7.9L95.4,7.4L96.9,7.4L96.9,5.6L96.4,5.6L96.4,5.1L95.9,5.1L95.9,4.1L95.4,4.1L95.4,3.1L85.6,3.1L85.6,3.6L85.1,3.6L85.1,4.1L84.6,4.1L84.6,4.6z" stroke="none"/><path d="M21,77.9L21,78.1L10.6,78.1L10.6,82.5L10.4,82.5L10.4,77.9z" stroke="none"/><path d="M82.4,13.5L82.6,13.5L82.6,14.1L80.6,14.1L80.6,14.6L78.1,14.6L78.1,15.6L77.6,15.6L77.6,16.6L77.1,16.6L77.1,17.6L76.1,17.6L76.1,19.6L75.6,19.6L75.6,20.1L74.6,20.1L74.6,20.6L73.6,20.6L73.6,21L73.4,21L73.4,20.4L74.4,20.4L74.4,19.9L75.4,19.9L75.4,19.4L75.9,19.4L75.9,17.4L76.9,17.4L76.9,16.4L77.4,16.4L77.4,15.4L77.9,15.4L77.9,14.4L80.4,14.4L80.4,13.9L82.4,13.9z" stroke="none"/><path d="M49.5,61.6L49.5,61.4L60.4,61.4L60.4,60.4L60.9,60.4L60.9,59.1L59.4,59.1L59.4,58.1L58.9,58.1L58.9,55.1L58.4,55.1L58.4,54L58.6,54L58.6,54.9L59.1,54.9L59.1,57.9L59.6,57.9L59.6,58.9L61.1,58.9L61.1,60.6L60.6,60.6L60.6,61.6z" stroke="none"/><path d="M60.1,13.5L59.9,13.5L59.9,7.1L59.4,7.1L59.4,6.6L58.9,6.6L58.9,5.4L59.4,5.4L59.4,4.9L68.1,4.9L68.1,5.4L68.6,5.4L68.6,5.9L69,5.9L69,6.1L68.4,6.1L68.4,5.6L67.9,5.6L67.9,5.1L59.6,5.1L59.6,5.6L59.1,5.6L59.1,6.4L59.6,6.4L59.6,6.9L60.1,6.9z" stroke="none"/><path d="M52.5,69.1L52.5,68.9L54.1,68.9L54.1,69.4L54.6,69.4L54.6,70.4L55.1,70.4L55.1,70.9L55.6,70.9L55.6,71.9L58.1,71.9L58.1,72.9L58.6,72.9L58.6,73.4L59.1,73.4L59.1,73.9L59.6,73.9L59.6,76.4L60.1,76.4L60.1,78L59.9,78L59.9,76.6L59.4,76.6L59.4,74.1L58.9,74.1L58.9,73.6L58.4,73.6L58.4,73.1L57.9,73.1L57.9,72.1L55.4,72.1L55.4,71.1L54.9,71.1L54.9,70.6L54.4,70.6L54.4,69.6L53.9,69.6L53.9,69.1z" stroke="none"/><path d="M92.9,84L93.1,84L93.1,90.9L93.6,90.9L93.6,91.4L94.1,91.4L94.1,91.9L95.6,91.9L95.6,92.4L96.4,92.4L96.4,91.9L96.9,91.9L96.9,86.4L98.4,86.4L98.4,85.4L98.9,85.4L98.9,82.9L99.4,82.9L99.4,82.4L99.9,82.4L99.9,79.1L98.9,79.1L98.9,78.6L97.4,78.6L97.4,77.6L96.9,77.6L96.9,75.6L93.9,75.6L93.9,75.1L92.9,75.1L92.9,74.6L92.4,74.6L92.4,74.1L91.9,74.1L91.9,72.4L92.4,72.4L92.4,71.9L93,71.9L93,72.1L92.6,72.1L92.6,72.6L92.1,72.6L92.1,73.9L92.6,73.9L92.6,74.4L93.1,74.4L93.1,74.9L94.1,74.9L94.1,75.4L97.1,75.4L97.1,77.4L97.6,77.4L97.6,78.4L99.1,78.4L99.1,78.9L100.1,78.9L100.1,82.6L99.6,82.6L99.6,83.1L99.1,83.1L99.1,85.6L98.6,85.6L98.6,86.6L97.1,86.6L97.1,92.1L96.6,92.1L96.6,92.6L95.4,92.6L95.4,92.1L93.9,92.1L93.9,91.6L93.4,91.6L93.4,91.1L92.9,91.1z" stroke="none"/><path d="M45.1,63L44.9,63L44.9,59.9L45.4,59.9L45.4,57.9L45.9,57.9L45.9,57.4L55.4,57.4L55.4,57L55.6,57L55.6,57.6L46.1,57.6L46.1,58.1L45.6,58.1L45.6,60.1L45.1,60.1z" stroke="none"/><path d="M66,91.6L66,91.4L66.6,91.4L66.6,92.4L68.4,92.4L68.4,91.9L70.6,91.9L70.6,92.4L71.1,92.4L71.1,92.9L75.1,92.9L75.1,93.4L77.1,93.4L77.1,93.9L77.6,93.9L77.6,97.6L76.5,97.6L76.5,97.4L77.4,97.4L77.4,94.1L76.9,94.1L76.9,93.6L74.9,93.6L74.9,93.1L70.9,93.1L70.9,92.6L70.4,92.6L70.4,92.1L68.6,92.1L68.6,92.6L66.4,92.6L66.4,91.6z" stroke="none"/><path d="M73.5,90.1L73.5,89.9L84.1,89.9L84.1,90.4L84.6,90.4L84.6,90.9L85.6,90.9L85.6,91.5L85.4,91.5L85.4,91.1L84.4,91.1L84.4,90.6L83.9,90.6L83.9,90.1z" stroke="none"/><path d="M12,96.1L12,95.9L19.1,95.9L19.1,96.4L22.6,96.4L22.6,97.4L24,97.4L24,97.6L22.4,97.6L22.4,96.6L18.9,96.6L18.9,96.1z" stroke="none"/><path d="M18,10.4L18,10.6L17.4,10.6L17.4,10.1L16.9,10.1L16.9,9.6L15.9,9.6L15.9,9.1L14.4,9.1L14.4,8.1L12.9,8.1L12.9,6.6L12.4,6.6L12.4,5.6L11.9,5.6L11.9,5.1L11.4,5.1L11.4,4.6L10.4,4.6L10.4,3.1L9.9,3.1L9.9,1.6L7.9,1.6L7.9,1.1L2.6,1.1L2.6,10.1L2.1,10.1L2.1,14.4L5.4,14.4L5.4,13.9L5.9,13.9L5.9,13.5L6.1,13.5L6.1,14.1L5.6,14.1L5.6,14.6L1.9,14.6L1.9,9.9L2.4,9.9L2.4,0.9L8.1,0.9L8.1,1.4L10.1,1.4L10.1,2.9L10.6,2.9L10.6,4.4L11.6,4.4L11.6,4.9L12.1,4.9L12.1,5.4L12.6,5.4L12.6,6.4L13.1,6.4L13.1,7.9L14.6,7.9L14.6,8.9L16.1,8.9L16.1,9.4L17.1,9.4L17.1,9.9L17.6,9.9L17.6,10.4z" stroke="none"/><path d="M60,79.6L60,79.4L60.4,79.4L60.4,78.9L60.9,78.9L60.9,75.1L60.4,75.1L60.4,74.6L59.9,74.6L59.9,73.1L59.4,73.1L59.4,72.6L58.9,72.6L58.9,72.1L58.4,72.1L58.4,71.6L56.4,71.6L56.4,71.1L55.9,71.1L55.9,69.1L55.4,69.1L55.4,68.6L53.4,68.6L53.4,68.1L52.1,68.1L52.1,68.6L51.6,68.6L51.6,72.1L50.6,72.1L50.6,74.1L50.1,74.1L50.1,75.1L49.1,75.1L49.1,76.1L48.1,76.1L48.1,76.5L47.9,76.5L47.9,75.9L48.9,75.9L48.9,74.9L49.9,74.9L49.9,73.9L50.4,73.9L50.4,71.9L51.4,71.9L51.4,68.4L51.9,68.4L51.9,67.9L53.6,67.9L53.6,68.4L55.6,68.4L55.6,68.9L56.1,68.9L56.1,70.9L56.6,70.9L56.6,71.4L58.6,71.4L58.6,71.9L59.1,71.9L59.1,72.4L59.6,72.4L59.6,72.9L60.1,72.9L60.1,74.4L60.6,74.4L60.6,74.9L61.1,74.9L61.1,79.1L60.6,79.1L60.6,79.6z" stroke="none"/><path d="M43.5,94.4L43.5,94.6L38.9,94.6L38.9,94.1L36.4,94.1L36.4,92.6L34.9,92.6L34.9,92.1L34.1,92.1L34.1,92.6L32.6,92.6L32.6,93.1L31.6,93.1L31.6,93.6L30.6,93.6L30.6,94.1L29.4,94.1L29.4,93.6L28.9,93.6L28.9,92.4L29.4,92.4L29.4,91.9L29.9,91.9L29.9,90.9L30.9,90.9L30.9,89.9L31.5,89.9L31.5,90.1L31.1,90.1L31.1,91.1L30.1,91.1L30.1,92.1L29.6,92.1L29.6,92.6L29.1,92.6L29.1,93.4L29.6,93.4L29.6,93.9L30.4,93.9L30.4,93.4L31.4,93.4L31.4,92.9L32.4,92.9L32.4,92.4L33.9,92.4L33.9,91.9L35.1,91.9L35.1,92.4L36.6,92.4L36.6,93.9L39.1,93.9L39.1,94.4z" stroke="none"/><path d="M76.6,40.5L76.4,40.5L76.4,37.4L77.4,37.4L77.4,35.9L77.9,35.9L77.9,34.9L79.4,34.9L79.4,32.4L79.9,32.4L79.9,30.9L80.4,30.9L80.4,30.4L81.9,30.4L81.9,29.9L84,29.9L84,30.1L82.1,30.1L82.1,30.6L80.6,30.6L80.6,31.1L80.1,31.1L80.1,32.6L79.6,32.6L79.6,35.1L78.1,35.1L78.1,36.1L77.6,36.1L77.6,37.6L76.6,37.6z" stroke="none"/><path d="M18,22.4L18,22.6L12.9,22.6L12.9,20.1L7.9,20.1L7.9,18.1L6.9,18.1L6.9,17.1L6.4,17.1L6.4,16.6L6,16.6L6,16.4L6.6,16.4L6.6,16.9L7.1,16.9L7.1,17.9L8.1,17.9L8.1,19.9L13.1,19.9L13.1,22.4z" stroke="none"/><path d="M57.1,70.5L56.9,70.5L56.9,67.6L51.1,67.6L51.1,71.6L49.6,71.6L49.6,73.1L49.1,73.1L49.1,73.6L48.6,73.6L48.6,74.1L47.1,74.1L47.1,74.6L46.6,74.6L46.6,75.1L45.6,75.1L45.6,76.6L45,76.6L45,76.4L45.4,76.4L45.4,74.9L46.4,74.9L46.4,74.4L46.9,74.4L46.9,73.9L48.4,73.9L48.4,73.4L48.9,73.4L48.9,72.9L49.4,72.9L49.4,71.4L50.9,71.4L50.9,67.4L57.1,67.4z" stroke="none"/><path d="M54,55.6L54,55.4L54.4,55.4L54.4,54.9L56.4,54.9L56.4,54.4L56.9,54.4L56.9,53.9L57.4,53.9L57.4,53.4L57.9,53.4L57.9,52.9L60.6,52.9L60.6,53.4L61.1,53.4L61.1,55.4L61.6,55.4L61.6,55.9L62.1,55.9L62.1,56.4L63.1,56.4L63.1,57.9L65.1,57.9L65.1,59.4L65.6,59.4L65.6,60.9L66.1,60.9L66.1,61.5L65.9,61.5L65.9,61.1L65.4,61.1L65.4,59.6L64.9,59.6L64.9,58.1L62.9,58.1L62.9,56.6L61.9,56.6L61.9,56.1L61.4,56.1L61.4,55.6L60.9,55.6L60.9,53.6L60.4,53.6L60.4,53.1L58.1,53.1L58.1,53.6L57.6,53.6L57.6,54.1L57.1,54.1L57.1,54.6L56.6,54.6L56.6,55.1L54.6,55.1L54.6,55.6z" stroke="none"/><path d="M69.1,73.5L68.9,73.5L68.9,60L69.1,60z" stroke="none"/><path d="M102,58.4L102,58.6L88.5,58.6L88.5,58.4z" stroke="none"/><path d="M3,75.1L3,74.9L13.4,74.9L13.4,73.9L13.9,73.9L13.9,73.4L16.5,73.4L16.5,73.6L14.1,73.6L14.1,74.1L13.6,74.1L13.6,75.1z" stroke="none"/><path d="M71.9,24L72.1,24L72.1,30.6L71.6,30.6L71.6,32.1L71.1,32.1L71.1,33.6L70.6,33.6L70.6,34.6L69.6,34.6L69.6,36.4L70.1,36.4L70.1,36.9L75.1,36.9L75.1,37.5L74.9,37.5L74.9,37.1L69.9,37.1L69.9,36.6L69.4,36.6L69.4,34.4L70.4,34.4L70.4,33.4L70.9,33.4L70.9,31.9L71.4,31.9L71.4,30.4L71.9,30.4z" stroke="none"/><path d="M100.5,28.6L100.5,28.4L102.1,28.4L102.1,29.4L102.6,29.4L102.6,30.9L103.1,30.9L103.1,33.1L102.6,33.1L102.6,34.6L102.1,34.6L102.1,35.1L98.1,35.1L98.1,35.6L94.1,35.6L94.1,36.1L93.1,36.1L93.1,36.6L91.6,36.6L91.6,37.1L91.1,37.1L91.1,37.6L90,37.6L90,37.4L90.9,37.4L90.9,36.9L91.4,36.9L91.4,36.4L92.9,36.4L92.9,35.9L93.9,35.9L93.9,35.4L97.9,35.4L97.9,34.9L101.9,34.9L101.9,34.4L102.4,34.4L102.4,32.9L102.9,32.9L102.9,31.1L102.4,31.1L102.4,29.6L101.9,29.6L101.9,28.6z" stroke="none"/><path d="M91.6,40.5L91.4,40.5L91.4,39.6L89.9,39.6L89.9,39.1L89.4,39.1L89.4,38.1L88.9,38.1L88.9,34.1L88.4,34.1L88.4,33.1L87.9,33.1L87.9,32.1L87.4,32.1L87.4,29.9L88.4,29.9L88.4,29.4L88.9,29.4L88.9,28.9L91.9,28.9L91.9,28.4L92.4,28.4L92.4,27.9L93.4,27.9L93.4,27.4L93.9,27.4L93.9,26.9L94.5,26.9L94.5,27.1L94.1,27.1L94.1,27.6L93.6,27.6L93.6,28.1L92.6,28.1L92.6,28.6L92.1,28.6L92.1,29.1L89.1,29.1L89.1,29.6L88.6,29.6L88.6,30.1L87.6,30.1L87.6,31.9L88.1,31.9L88.1,32.9L88.6,32.9L88.6,33.9L89.1,33.9L89.1,37.9L89.6,37.9L89.6,38.9L90.1,38.9L90.1,39.4L91.6,39.4z" stroke="none"/><path d="M36,50.9L36,51.1L32.6,51.1L32.6,52.1L31.6,52.1L31.6,52.6L31.1,52.6L31.1,53.6L26.1,53.6L26.1,54.1L25.6,54.1L25.6,54.6L23.6,54.6L23.6,55.1L23.1,55.1L23.1,56.9L23.6,56.9L23.6,58.9L24.1,58.9L24.1,59.4L24.6,59.4L24.6,60.4L26.1,60.4L26.1,60.9L26.6,60.9L26.6,61.4L27,61.4L27,61.6L26.4,61.6L26.4,61.1L25.9,61.1L25.9,60.6L24.4,60.6L24.4,59.6L23.9,59.6L23.9,59.1L23.4,59.1L23.4,57.1L22.9,57.1L22.9,54.9L23.4,54.9L23.4,54.4L25.4,54.4L25.4,53.9L25.9,53.9L25.9,53.4L30.9,53.4L30.9,52.4L31.4,52.4L31.4,51.9L32.4,51.9L32.4,50.9z" stroke="none"/><path d="M100.5,62.9L100.5,63.1L90.6,63.1L90.6,63.6L89.6,63.6L89.6,64.1L89.1,64.1L89.1,64.6L88.6,64.6L88.6,65.6L87.6,65.6L87.6,66.1L87,66.1L87,65.9L87.4,65.9L87.4,65.4L88.4,65.4L88.4,64.4L88.9,64.4L88.9,63.9L89.4,63.9L89.4,63.4L90.4,63.4L90.4,62.9z" stroke="none"/><path d="M95.9,39L96.1,39L96.1,42.6L93.6,42.6L93.6,43.1L92.1,43.1L92.1,43.6L91.6,43.6L91.6,44.1L90.6,44.1L90.6,50.6L90.1,50.6L90.1,51.1L88.5,51.1L88.5,50.9L89.9,50.9L89.9,50.4L90.4,50.4L90.4,43.9L91.4,43.9L91.4,43.4L91.9,43.4L91.9,42.9L93.4,42.9L93.4,42.4L95.9,42.4z" stroke="none"/><path d="M83.9,27L84.1,27L84.1,27.4L84.6,27.4L84.6,27.9L90.4,27.9L90.4,26.4L91.4,26.4L91.4,24.9L91.9,24.9L91.9,24.4L92.4,24.4L92.4,22.9L92.9,22.9L92.9,21.9L93.4,21.9L93.4,21.4L94.4,21.4L94.4,19.4L96,19.4L96,19.6L94.6,19.6L94.6,21.6L93.6,21.6L93.6,22.1L93.1,22.1L93.1,23.1L92.6,23.1L92.6,24.6L92.1,24.6L92.1,25.1L91.6,25.1L91.6,26.6L90.6,26.6L90.6,28.1L84.4,28.1L84.4,27.6L83.9,27.6z" stroke="none"/><path d="M96.1,72L95.9,72L95.9,71.1L95.4,71.1L95.4,70.1L94.9,70.1L94.9,69.6L83.9,69.6L83.9,68.1L82.4,68.1L82.4,67.5L82.6,67.5L82.6,67.9L84.1,67.9L84.1,69.4L95.1,69.4L95.1,69.9L95.6,69.9L95.6,70.9L96.1,70.9z" stroke="none"/><path d="M64.4,7.5L64.6,7.5L64.6,7.9L65.1,7.9L65.1,8.4L65.6,8.4L65.6,14.9L66.6,14.9L66.6,15.4L67.1,15.4L67.1,16.4L67.6,16.4L67.6,16.9L68.1,16.9L68.1,17.4L68.6,17.4L68.6,17.9L69.1,17.9L69.1,21L68.9,21L68.9,18.1L68.4,18.1L68.4,17.6L67.9,17.6L67.9,17.1L67.4,17.1L67.4,16.6L66.9,16.6L66.9,15.6L66.4,15.6L66.4,15.1L65.4,15.1L65.4,8.6L64.9,8.6L64.9,8.1L64.4,8.1z" stroke="none"/><path d="M100.4,45L100.6,45L100.6,48.6L100.1,48.6L100.1,49.1L98.1,49.1L98.1,49.6L97.6,49.6L97.6,50.1L96.6,50.1L96.6,51.6L96.1,51.6L96.1,52.1L95.6,52.1L95.6,53.6L85.9,53.6L85.9,49.9L86.9,49.9L86.9,49.5L87.1,49.5L87.1,50.1L86.1,50.1L86.1,53.4L95.4,53.4L95.4,51.9L95.9,51.9L95.9,51.4L96.4,51.4L96.4,49.9L97.4,49.9L97.4,49.4L97.9,49.4L97.9,48.9L99.9,48.9L99.9,48.4L100.4,48.4z" stroke="none"/><path d="M9.1,27L8.9,27L8.9,25.1L6.4,25.1L6.4,24.6L5.1,24.6L5.1,25.9L5.6,25.9L5.6,27.6L5.1,27.6L5.1,28.1L3.4,28.1L3.4,24.1L2.9,24.1L2.9,23.6L2.4,23.6L2.4,23.1L1.9,23.1L1.9,18.9L3.4,18.9L3.4,17.9L4.4,17.9L4.4,16.9L4.9,16.9L4.9,15.9L5.4,15.9L5.4,15.4L5.9,15.4L5.9,14.9L6.4,14.9L6.4,14.4L6.9,14.4L6.9,12.6L5.6,12.6L5.6,13.1L4.6,13.1L4.6,13.5L4.4,13.5L4.4,12.9L5.4,12.9L5.4,12.4L7.1,12.4L7.1,14.6L6.6,14.6L6.6,15.1L6.1,15.1L6.1,15.6L5.6,15.6L5.6,16.1L5.1,16.1L5.1,17.1L4.6,17.1L4.6,18.1L3.6,18.1L3.6,19.1L2.1,19.1L2.1,22.9L2.6,22.9L2.6,23.4L3.1,23.4L3.1,23.9L3.6,23.9L3.6,27.9L4.9,27.9L4.9,27.4L5.4,27.4L5.4,26.1L4.9,26.1L4.9,24.4L6.6,24.4L6.6,24.9L9.1,24.9z" stroke="none"/><path d="M18,55.6L18,55.4L19.6,55.4L19.6,55.9L20.1,55.9L20.1,58.9L20.6,58.9L20.6,59.9L21.6,59.9L21.6,60.4L22.6,60.4L22.6,61.9L23.1,61.9L23.1,62.4L24.1,62.4L24.1,62.9L24.6,62.9L24.6,63.4L25.6,63.4L25.6,63.9L26.1,63.9L26.1,64.4L27.1,64.4L27.1,64.9L28.1,64.9L28.1,65.4L28.9,65.4L28.9,64.9L29.4,64.9L29.4,61.9L29.9,61.9L29.9,60.9L30.4,60.9L30.4,60.4L30.9,60.4L30.9,58.9L31.4,58.9L31.4,58.4L31.9,58.4L31.9,57.9L33.4,57.9L33.4,56.9L34.4,56.9L34.4,56.4L35.4,56.4L35.4,55.9L36.4,55.9L36.4,55.4L37.9,55.4L37.9,54.4L38.4,54.4L38.4,53.9L40.4,53.9L40.4,53.4L42.9,53.4L42.9,52.9L43.4,52.9L43.4,52.4L43.9,52.4L43.9,51.9L45.4,51.9L45.4,50.4L45.9,50.4L45.9,49.9L47.9,49.9L47.9,49.4L48.4,49.4L48.4,46.9L48.9,46.9L48.9,45.9L49.4,45.9L49.4,35.6L48.9,35.6L48.9,34.6L46.9,34.6L46.9,33.6L45.9,33.6L45.9,33.1L38.6,33.1L38.6,33.6L38.1,33.6L38.1,34.6L36.1,34.6L36.1,35.1L35.6,35.1L35.6,35.6L35.1,35.6L35.1,36.6L34.1,36.6L34.1,38.6L33.1,38.6L33.1,39.6L32.6,39.6L32.6,40.1L32.1,40.1L32.1,43.1L24.9,43.1L24.9,42.6L23.9,42.6L23.9,42L24.1,42L24.1,42.4L25.1,42.4L25.1,42.9L31.9,42.9L31.9,39.9L32.4,39.9L32.4,39.4L32.9,39.4L32.9,38.4L33.9,38.4L33.9,36.4L34.9,36.4L34.9,35.4L35.4,35.4L35.4,34.9L35.9,34.9L35.9,34.4L37.9,34.4L37.9,33.4L38.4,33.4L38.4,32.9L46.1,32.9L46.1,33.4L47.1,33.4L47.1,34.4L49.1,34.4L49.1,35.4L49.6,35.4L49.6,46.1L49.1,46.1L49.1,47.1L48.6,47.1L48.6,49.6L48.1,49.6L48.1,50.1L46.1,50.1L46.1,50.6L45.6,50.6L45.6,52.1L44.1,52.1L44.1,52.6L43.6,52.6L43.6,53.1L43.1,53.1L43.1,53.6L40.6,53.6L40.6,54.1L38.6,54.1L38.6,54.6L38.1,54.6L38.1,55.6L36.6,55.6L36.6,56.1L35.6,56.1L35.6,56.6L34.6,56.6L34.6,57.1L33.6,57.1L33.6,58.1L32.1,58.1L32.1,58.6L31.6,58.6L31.6,59.1L31.1,59.1L31.1,60.6L30.6,60.6L30.6,61.1L30.1,61.1L30.1,62.1L29.6,62.1L29.6,65.1L29.1,65.1L29.1,65.6L27.9,65.6L27.9,65.1L26.9,65.1L26.9,64.6L25.9,64.6L25.9,64.1L25.4,64.1L25.4,63.6L24.4,63.6L24.4,63.1L23.9,63.1L23.9,62.6L22.9,62.6L22.9,62.1L22.4,62.1L22.4,60.6L21.4,60.6L21.4,60.1L20.4,60.1L20.4,59.1L19.9,59.1L19.9,56.1L19.4,56.1L19.4,55.6z" stroke="none"/><path d="M10.5,16.6L10.5,16.4L16.1,16.4L16.1,18.4L16.6,18.4L16.6,18.9L17.1,18.9L17.1,19.9L18.6,19.9L18.6,20.9L19.1,20.9L19.1,21.9L20.1,21.9L20.1,23.9L20.6,23.9L20.6,24.4L21.1,24.4L21.1,24.9L22.9,24.9L22.9,24.4L23.4,24.4L23.4,23.4L23.9,23.4L23.9,22.4L24.4,22.4L24.4,20.4L24.9,20.4L24.9,19.4L25.4,19.4L25.4,18.9L25.9,18.9L25.9,18.4L26.4,18.4L26.4,11.6L25.9,11.6L25.9,11.1L24.4,11.1L24.4,10.6L24,10.6L24,10.4L24.6,10.4L24.6,10.9L26.1,10.9L26.1,11.4L26.6,11.4L26.6,18.6L26.1,18.6L26.1,19.1L25.6,19.1L25.6,19.6L25.1,19.6L25.1,20.6L24.6,20.6L24.6,22.6L24.1,22.6L24.1,23.6L23.6,23.6L23.6,24.6L23.1,24.6L23.1,25.1L20.9,25.1L20.9,24.6L20.4,24.6L20.4,24.1L19.9,24.1L19.9,22.1L18.9,22.1L18.9,21.1L18.4,21.1L18.4,20.1L16.9,20.1L16.9,19.1L16.4,19.1L16.4,18.6L15.9,18.6L15.9,16.6z" stroke="none"/><path d="M6,96.1L6,95.9L9.9,95.9L9.9,95.4L10.9,95.4L10.9,94.9L13.1,94.9L13.1,95.4L14.9,95.4L14.9,94.4L15.4,94.4L15.4,93.4L15.9,93.4L15.9,91.9L16.9,91.9L16.9,91.4L18.4,91.4L18.4,90.4L19.4,90.4L19.4,90L19.6,90L19.6,90.6L18.6,90.6L18.6,91.6L17.1,91.6L17.1,92.1L16.1,92.1L16.1,93.6L15.6,93.6L15.6,94.6L15.1,94.6L15.1,95.6L12.9,95.6L12.9,95.1L11.1,95.1L11.1,95.6L10.1,95.6L10.1,96.1z" stroke="none"/><path d="M51,66.1L51,65.9L58.1,65.9L58.1,66.4L61.1,66.4L61.1,68.4L61.6,68.4L61.6,70.4L62.1,70.4L62.1,71.4L63.6,71.4L63.6,71.9L64.5,71.9L64.5,72.1L63.4,72.1L63.4,71.6L61.9,71.6L61.9,70.6L61.4,70.6L61.4,68.6L60.9,68.6L60.9,66.6L57.9,66.6L57.9,66.1z" stroke="none"/><path d="M90.1,96L89.9,96L89.9,95.4L90.9,95.4L90.9,94.9L92.6,94.9L92.6,95.4L93.9,95.4L93.9,93.6L91.4,93.6L91.4,92.6L90.9,92.6L90.9,91.6L89.4,91.6L89.4,91.1L87.9,91.1L87.9,90.6L87.4,90.6L87.4,90.1L86.4,90.1L86.4,89.6L85.9,89.6L85.9,88.6L85.4,88.6L85.4,88.1L83.9,88.1L83.9,87.6L80.9,87.6L80.9,86.6L80.4,86.6L80.4,85.6L79.5,85.6L79.5,85.4L80.6,85.4L80.6,86.4L81.1,86.4L81.1,87.4L84.1,87.4L84.1,87.9L85.6,87.9L85.6,88.4L86.1,88.4L86.1,89.4L86.6,89.4L86.6,89.9L87.6,89.9L87.6,90.4L88.1,90.4L88.1,90.9L89.6,90.9L89.6,91.4L91.1,91.4L91.1,92.4L91.6,92.4L91.6,93.4L94.1,93.4L94.1,95.6L92.4,95.6L92.4,95.1L91.1,95.1L91.1,95.6L90.1,95.6z" stroke="none"/><path d="M102,68.9L102,69.1L97.4,69.1L97.4,68.1L85.4,68.1L85.4,67.6L83.4,67.6L83.4,67.1L82.9,67.1L82.9,66.6L81.6,66.6L81.6,68.9L83.1,68.9L83.1,69.9L84.1,69.9L84.1,70.9L84.6,70.9L84.6,71.9L85.1,71.9L85.1,72.4L85.6,72.4L85.6,72.9L86.1,72.9L86.1,73.9L87.1,73.9L87.1,74.9L87.6,74.9L87.6,75.4L88.1,75.4L88.1,75.9L88.6,75.9L88.6,76.9L89.1,76.9L89.1,77.4L90.6,77.4L90.6,78.9L91.6,78.9L91.6,79.4L92.1,79.4L92.1,79.9L92.6,79.9L92.6,80.4L93.1,80.4L93.1,81L92.9,81L92.9,80.6L92.4,80.6L92.4,80.1L91.9,80.1L91.9,79.6L91.4,79.6L91.4,79.1L90.4,79.1L90.4,77.6L88.9,77.6L88.9,77.1L88.4,77.1L88.4,76.1L87.9,76.1L87.9,75.6L87.4,75.6L87.4,75.1L86.9,75.1L86.9,74.1L85.9,74.1L85.9,73.1L85.4,73.1L85.4,72.6L84.9,72.6L84.9,72.1L84.4,72.1L84.4,71.1L83.9,71.1L83.9,70.1L82.9,70.1L82.9,69.1L81.4,69.1L81.4,66.4L83.1,66.4L83.1,66.9L83.6,66.9L83.6,67.4L85.6,67.4L85.6,67.9L97.6,67.9L97.6,68.9z" stroke="none"/><path d="M3,102.1L3,101.9L18,101.9L18,102.1z" stroke="none"/><path d="M94.5,25.4L94.5,25.6L93.6,25.6L93.6,26.1L93.1,26.1L93.1,26.6L92.6,26.6L92.6,27.1L91.6,27.1L91.6,28.6L88.6,28.6L88.6,29.1L88.1,29.1L88.1,29.6L87.1,29.6L87.1,37.9L88.1,37.9L88.1,38.9L88.6,38.9L88.6,39.4L89.1,39.4L89.1,40.4L89.6,40.4L89.6,40.9L90.6,40.9L90.6,41.4L92.4,41.4L92.4,40.9L92.9,40.9L92.9,40.5L93.1,40.5L93.1,41.1L92.6,41.1L92.6,41.6L90.4,41.6L90.4,41.1L89.4,41.1L89.4,40.6L88.9,40.6L88.9,39.6L88.4,39.6L88.4,39.1L87.9,39.1L87.9,38.1L86.9,38.1L86.9,29.4L87.9,29.4L87.9,28.9L88.4,28.9L88.4,28.4L91.4,28.4L91.4,26.9L92.4,26.9L92.4,26.4L92.9,26.4L92.9,25.9L93.4,25.9L93.4,25.4z" stroke="none"/><path d="M4.5,97.6L4.5,97.4L11.6,97.4L11.6,97.9L16.1,97.9L16.1,98.4L19.6,98.4L19.6,99L19.4,99L19.4,98.6L15.9,98.6L15.9,98.1L11.4,98.1L11.4,97.6z" stroke="none"/><path d="M59.9,54L60.1,54L60.1,57.9L60.6,57.9L60.6,58.4L61.6,58.4L61.6,61.6L61.1,61.6L61.1,62.1L56.1,62.1L56.1,63.4L56.6,63.4L56.6,63.9L62.6,63.9L62.6,64.4L63.1,64.4L63.1,64.9L63.6,64.9L63.6,65.4L64.1,65.4L64.1,68.6L63.6,68.6L63.6,69.1L63,69.1L63,68.9L63.4,68.9L63.4,68.4L63.9,68.4L63.9,65.6L63.4,65.6L63.4,65.1L62.9,65.1L62.9,64.6L62.4,64.6L62.4,64.1L56.4,64.1L56.4,63.6L55.9,63.6L55.9,61.9L60.9,61.9L60.9,61.4L61.4,61.4L61.4,58.6L60.4,58.6L60.4,58.1L59.9,58.1z" stroke="none"/><path d="M79.5,5.9L79.5,6.1L72.6,6.1L72.6,6.6L70.1,6.6L70.1,7.1L65.4,7.1L65.4,6.6L64.1,6.6L64.1,7.1L63.6,7.1L63.6,8.9L64.5,8.9L64.5,9.1L63.4,9.1L63.4,6.9L63.9,6.9L63.9,6.4L65.6,6.4L65.6,6.9L69.9,6.9L69.9,6.4L72.4,6.4L72.4,5.9z" stroke="none"/><path d="M99.1,45L98.9,45L98.9,44.4L99.9,44.4L99.9,43.9L101.1,43.9L101.1,44.4L101.6,44.4L101.6,56.9L102.6,56.9L102.6,57.9L103.1,57.9L103.1,59.1L102.6,59.1L102.6,59.6L100.9,59.6L100.9,59.1L99.6,59.1L99.6,59.6L97.6,59.6L97.6,60.1L96,60.1L96,59.9L97.4,59.9L97.4,59.4L99.4,59.4L99.4,58.9L101.1,58.9L101.1,59.4L102.4,59.4L102.4,58.9L102.9,58.9L102.9,58.1L102.4,58.1L102.4,57.1L101.4,57.1L101.4,44.6L100.9,44.6L100.9,44.1L100.1,44.1L100.1,44.6L99.1,44.6z" stroke="none"/><path d="M48,14.9L48,15.1L42.6,15.1L42.6,16.1L40.6,16.1L40.6,16.6L39.1,16.6L39.1,17.1L38.1,17.1L38.1,17.6L36.6,17.6L36.6,19.6L36.1,19.6L36.1,20.1L34.6,20.1L34.6,20.6L33.1,20.6L33.1,21.1L31.6,21.1L31.6,22.1L28.9,22.1L28.9,19.4L31.4,19.4L31.4,18.4L31.9,18.4L31.9,17.9L33,17.9L33,18.1L32.1,18.1L32.1,18.6L31.6,18.6L31.6,19.6L29.1,19.6L29.1,21.9L31.4,21.9L31.4,20.9L32.9,20.9L32.9,20.4L34.4,20.4L34.4,19.9L35.9,19.9L35.9,19.4L36.4,19.4L36.4,17.4L37.9,17.4L37.9,16.9L38.9,16.9L38.9,16.4L40.4,16.4L40.4,15.9L42.4,15.9L42.4,14.9z" stroke="none"/><path d="M97.6,45L97.4,45L97.4,43.9L98.9,43.9L98.9,43.4L101.6,43.4L101.6,43.9L102.1,43.9L102.1,56.4L103.1,56.4L103.1,56.9L103.6,56.9L103.6,60.1L100.5,60.1L100.5,59.9L103.4,59.9L103.4,57.1L102.9,57.1L102.9,56.6L101.9,56.6L101.9,44.1L101.4,44.1L101.4,43.6L99.1,43.6L99.1,44.1L97.6,44.1z" stroke="none"/><path d="M85.4,48L85.6,48L85.6,53.9L94.1,53.9L94.1,54.9L94.6,54.9L94.6,55.4L95.1,55.4L95.1,57.9L97.9,57.9L97.9,57.4L98.4,57.4L98.4,55.4L99,55.4L99,55.6L98.6,55.6L98.6,57.6L98.1,57.6L98.1,58.1L94.9,58.1L94.9,55.6L94.4,55.6L94.4,55.1L93.9,55.1L93.9,54.1L85.4,54.1z" stroke="none"/><path d="M102.1,84L101.9,84L101.9,76.6L100.4,76.6L100.4,76.1L99.9,76.1L99.9,74.6L99.4,74.6L99.4,74.1L97.9,74.1L97.9,71.6L97.4,71.6L97.4,70.1L96.4,70.1L96.4,69.6L95.9,69.6L95.9,69L96.1,69L96.1,69.4L96.6,69.4L96.6,69.9L97.6,69.9L97.6,71.4L98.1,71.4L98.1,73.9L99.6,73.9L99.6,74.4L100.1,74.4L100.1,75.9L100.6,75.9L100.6,76.4L102.1,76.4z" stroke="none"/><path d="M20.9,69L21.1,69L21.1,76.4L21.6,76.4L21.6,76.9L22.1,76.9L22.1,79.1L13.6,79.1L13.6,80.1L12.6,80.1L12.6,81.6L12.1,81.6L12.1,82.5L11.9,82.5L11.9,81.4L12.4,81.4L12.4,79.9L13.4,79.9L13.4,78.9L21.9,78.9L21.9,77.1L21.4,77.1L21.4,76.6L20.9,76.6z" stroke="none"/><path d="M84,91.4L84,91.6L67.5,91.6L67.5,91.4z" stroke="none"/><path d="M96,49.6L96,49.4L96.4,49.4L96.4,46.9L96.9,46.9L96.9,45.6L96.4,45.6L96.4,43.4L98.4,43.4L98.4,42.9L102.1,42.9L102.1,43.4L102.6,43.4L102.6,54.9L103.1,54.9L103.1,55.9L103.6,55.9L103.6,56.4L104.1,56.4L104.1,63.6L102.1,63.6L102.1,64.1L101.1,64.1L101.1,64.6L100.6,64.6L100.6,65.1L100.1,65.1L100.1,65.6L97.6,65.6L97.6,66L97.4,66L97.4,65.4L99.9,65.4L99.9,64.9L100.4,64.9L100.4,64.4L100.9,64.4L100.9,63.9L101.9,63.9L101.9,63.4L103.9,63.4L103.9,56.6L103.4,56.6L103.4,56.1L102.9,56.1L102.9,55.1L102.4,55.1L102.4,43.6L101.9,43.6L101.9,43.1L98.6,43.1L98.6,43.6L96.6,43.6L96.6,45.4L97.1,45.4L97.1,47.1L96.6,47.1L96.6,49.6z" stroke="none"/><path d="M85.4,34.5L85.6,34.5L85.6,39.4L86.1,39.4L86.1,40.4L87.6,40.4L87.6,40.9L88.1,40.9L88.1,41.9L88.6,41.9L88.6,50.1L88.1,50.1L88.1,50.6L87.1,50.6L87.1,51L86.9,51L86.9,50.4L87.9,50.4L87.9,49.9L88.4,49.9L88.4,42.1L87.9,42.1L87.9,41.1L87.4,41.1L87.4,40.6L85.9,40.6L85.9,39.6L85.4,39.6z" stroke="none"/><path d="M31.5,2.9L31.5,3.1L24.1,3.1L24.1,3.6L23.1,3.6L23.1,4.1L19.9,4.1L19.9,3.6L17.1,3.6L17.1,4.1L16.1,4.1L16.1,4.6L15.6,4.6L15.6,5.6L15.1,5.6L15.1,6L14.9,6L14.9,5.4L15.4,5.4L15.4,4.4L15.9,4.4L15.9,3.9L16.9,3.9L16.9,3.4L20.1,3.4L20.1,3.9L22.9,3.9L22.9,3.4L23.9,3.4L23.9,2.9z" stroke="none"/><path d="M99,74.9L99,75.1L98.6,75.1L98.6,75.6L98.1,75.6L98.1,77.4L100.1,77.4L100.1,78.4L100.6,78.4L100.6,89.1L100.1,89.1L100.1,89.6L99.6,89.6L99.6,90.6L99.1,90.6L99.1,91.6L98.6,91.6L98.6,92.6L98.1,92.6L98.1,93.1L92.9,93.1L92.9,91.6L92.4,91.6L92.4,91.1L91.4,91.1L91.4,90.6L89.9,90.6L89.9,90L90.1,90L90.1,90.4L91.6,90.4L91.6,90.9L92.6,90.9L92.6,91.4L93.1,91.4L93.1,92.9L97.9,92.9L97.9,92.4L98.4,92.4L98.4,91.4L98.9,91.4L98.9,90.4L99.4,90.4L99.4,89.4L99.9,89.4L99.9,88.9L100.4,88.9L100.4,78.6L99.9,78.6L99.9,77.6L97.9,77.6L97.9,75.4L98.4,75.4L98.4,74.9z" stroke="none"/><path d="M4.6,88.5L4.4,88.5L4.4,80.6L3.9,80.6L3.9,78.6L3.4,78.6L3.4,77.4L3.9,77.4L3.9,76.9L17.4,76.9L17.4,76.4L18,76.4L18,76.6L17.6,76.6L17.6,77.1L4.1,77.1L4.1,77.6L3.6,77.6L3.6,78.4L4.1,78.4L4.1,80.4L4.6,80.4z" stroke="none"/><path d="M39,24.1L39,23.9L56.4,23.9L56.4,22.9L56.9,22.9L56.9,22.5L57.1,22.5L57.1,23.1L56.6,23.1L56.6,24.1z" stroke="none"/><path d="M41.9,67.5L42.1,67.5L42.1,68.9L42.6,68.9L42.6,69.4L43.1,69.4L43.1,80.1L42.6,80.1L42.6,81.6L42.1,81.6L42.1,82.1L41.6,82.1L41.6,82.6L41.1,82.6L41.1,83.6L40.6,83.6L40.6,84.1L34.5,84.1L34.5,83.9L40.4,83.9L40.4,83.4L40.9,83.4L40.9,82.4L41.4,82.4L41.4,81.9L41.9,81.9L41.9,81.4L42.4,81.4L42.4,79.9L42.9,79.9L42.9,69.6L42.4,69.6L42.4,69.1L41.9,69.1z" stroke="none"/><path d="M42,17.9L42,18.1L37.6,18.1L37.6,18.6L37.1,18.6L37.1,21.1L34.1,21.1L34.1,22.6L28.4,22.6L28.4,10.1L27.9,10.1L27.9,9.6L23.6,9.6L23.6,10.1L23.1,10.1L23.1,10.9L23.6,10.9L23.6,11.4L24.1,11.4L24.1,15L23.9,15L23.9,11.6L23.4,11.6L23.4,11.1L22.9,11.1L22.9,9.9L23.4,9.9L23.4,9.4L28.1,9.4L28.1,9.9L28.6,9.9L28.6,22.4L33.9,22.4L33.9,20.9L36.9,20.9L36.9,18.4L37.4,18.4L37.4,17.9z" stroke="none"/><path d="M40.6,6L40.4,6L40.4,5.1L39.9,5.1L39.9,4.1L34.9,4.1L34.9,3.6L33.9,3.6L33.9,3.1L32.4,3.1L32.4,2.6L31.9,2.6L31.9,2.1L25.6,2.1L25.6,2.6L23.6,2.6L23.6,3.1L22.5,3.1L22.5,2.9L23.4,2.9L23.4,2.4L25.4,2.4L25.4,1.9L32.1,1.9L32.1,2.4L32.6,2.4L32.6,2.9L34.1,2.9L34.1,3.4L35.1,3.4L35.1,3.9L40.1,3.9L40.1,4.9L40.6,4.9z" stroke="none"/><path d="M55.5,6.1L55.5,5.9L57.9,5.9L57.9,5.4L58.4,5.4L58.4,4.9L58.9,4.9L58.9,4.4L79.6,4.4L79.6,4.9L80.1,4.9L80.1,5.4L80.6,5.4L80.6,7.1L70.6,7.1L70.6,7.6L66.6,7.6L66.6,8.1L66.1,8.1L66.1,13.9L67.6,13.9L67.6,14.4L68.1,14.4L68.1,15.4L70.1,15.4L70.1,15.9L70.6,15.9L70.6,16.5L70.4,16.5L70.4,16.1L69.9,16.1L69.9,15.6L67.9,15.6L67.9,14.6L67.4,14.6L67.4,14.1L65.9,14.1L65.9,7.9L66.4,7.9L66.4,7.4L70.4,7.4L70.4,6.9L80.4,6.9L80.4,5.6L79.9,5.6L79.9,5.1L79.4,5.1L79.4,4.6L59.1,4.6L59.1,5.1L58.6,5.1L58.6,5.6L58.1,5.6L58.1,6.1z" stroke="none"/><path d="M33,64.4L33,64.6L32.6,64.6L32.6,65.1L31.1,65.1L31.1,66.1L18.1,66.1L18.1,67.6L17.6,67.6L17.6,68.6L16.1,68.6L16.1,69.1L15,69.1L15,68.9L15.9,68.9L15.9,68.4L17.4,68.4L17.4,67.4L17.9,67.4L17.9,65.9L30.9,65.9L30.9,64.9L32.4,64.9L32.4,64.4z" stroke="none"/><path d="M58.5,38.9L58.5,39.1L57.9,39.1L57.9,38.6L56.4,38.6L56.4,38.1L55.9,38.1L55.9,34.6L49.4,34.6L49.4,34.1L47.4,34.1L47.4,32.6L42.9,32.6L42.9,30.6L41.9,30.6L41.9,30L42.1,30L42.1,30.4L43.1,30.4L43.1,32.4L47.6,32.4L47.6,33.9L49.6,33.9L49.6,34.4L56.1,34.4L56.1,37.9L56.6,37.9L56.6,38.4L58.1,38.4L58.1,38.9z" stroke="none"/><path d="M39.1,64.5L38.9,64.5L38.9,63.9L39.9,63.9L39.9,62.4L40.9,62.4L40.9,60.9L41.9,60.9L41.9,58.9L42.4,58.9L42.4,58.4L42.9,58.4L42.9,57.9L44.9,57.9L44.9,56.9L48.9,56.9L48.9,55.9L49.4,55.9L49.4,55.4L50.4,55.4L50.4,54.4L51.4,54.4L51.4,52.4L51.9,52.4L51.9,51.4L52.4,51.4L52.4,51L52.6,51L52.6,51.6L52.1,51.6L52.1,52.6L51.6,52.6L51.6,54.6L50.6,54.6L50.6,55.6L49.6,55.6L49.6,56.1L49.1,56.1L49.1,57.1L45.1,57.1L45.1,58.1L43.1,58.1L43.1,58.6L42.6,58.6L42.6,59.1L42.1,59.1L42.1,61.1L41.1,61.1L41.1,62.6L40.1,62.6L40.1,64.1L39.1,64.1z" stroke="none"/><path d="M24,99.1L24,98.9L24.4,98.9L24.4,98.4L24.9,98.4L24.9,87.9L25.4,87.9L25.4,87.4L26.4,87.4L26.4,86.9L26.9,86.9L26.9,86.4L27.4,86.4L27.4,85.4L27.9,85.4L27.9,83.1L15.6,83.1L15.6,83.6L12.6,83.6L12.6,84.1L12,84.1L12,83.9L12.4,83.9L12.4,83.4L15.4,83.4L15.4,82.9L28.1,82.9L28.1,85.6L27.6,85.6L27.6,86.6L27.1,86.6L27.1,87.1L26.6,87.1L26.6,87.6L25.6,87.6L25.6,88.1L25.1,88.1L25.1,98.6L24.6,98.6L24.6,99.1z" stroke="none"/><path d="M35.9,57L36.1,57L36.1,58.6L35.1,58.6L35.1,59.1L34.1,59.1L34.1,59.6L32.6,59.6L32.6,60.6L32.1,60.6L32.1,63.4L34.1,63.4L34.1,65.6L33.6,65.6L33.6,66.1L32.6,66.1L32.6,66.6L28.1,66.6L28.1,67.1L27.6,67.1L27.6,67.6L27.1,67.6L27.1,70.6L26.6,70.6L26.6,71.1L25.6,71.1L25.6,71.6L24.1,71.6L24.1,72L23.9,72L23.9,71.4L25.4,71.4L25.4,70.9L26.4,70.9L26.4,70.4L26.9,70.4L26.9,67.4L27.4,67.4L27.4,66.9L27.9,66.9L27.9,66.4L32.4,66.4L32.4,65.9L33.4,65.9L33.4,65.4L33.9,65.4L33.9,63.6L31.9,63.6L31.9,60.4L32.4,60.4L32.4,59.4L33.9,59.4L33.9,58.9L34.9,58.9L34.9,58.4L35.9,58.4z" stroke="none"/><path d="M81,102.1L81,101.9L81.6,101.9L81.6,102.4L82.1,102.4L82.1,102.9L97.9,102.9L97.9,102.4L98.4,102.4L98.4,101.9L100.5,101.9L100.5,102.1L98.6,102.1L98.6,102.6L98.1,102.6L98.1,103.1L81.9,103.1L81.9,102.6L81.4,102.6L81.4,102.1z" stroke="none"/><path d="M101.9,21L102.1,21L102.1,27.4L102.6,27.4L102.6,28.9L103.1,28.9L103.1,30.4L103.6,30.4L103.6,38.6L102.6,38.6L102.6,40.1L101.6,40.1L101.6,40.6L100.5,40.6L100.5,40.4L101.4,40.4L101.4,39.9L102.4,39.9L102.4,38.4L103.4,38.4L103.4,30.6L102.9,30.6L102.9,29.1L102.4,29.1L102.4,27.6L101.9,27.6z" stroke="none"/><path d="M68.9,16.5L69.1,16.5L69.1,17.4L69.6,17.4L69.6,19.9L70.1,19.9L70.1,21.6L69.6,21.6L69.6,22.1L67.1,22.1L67.1,22.6L65.6,22.6L65.6,23.1L65.1,23.1L65.1,23.6L64.6,23.6L64.6,24.6L63.6,24.6L63.6,25.1L62.6,25.1L62.6,25.6L62.1,25.6L62.1,26.1L61.6,26.1L61.6,26.6L61.1,26.6L61.1,27.6L60.1,27.6L60.1,28.1L59.1,28.1L59.1,28.6L58.6,28.6L58.6,29.6L58.1,29.6L58.1,30.6L57.6,30.6L57.6,31.1L57.1,31.1L57.1,31.6L56.6,31.6L56.6,32.6L56.1,32.6L56.1,33.9L61.4,33.9L61.4,32.9L61.9,32.9L61.9,31.9L63.9,31.9L63.9,31.4L64.4,31.4L64.4,30.9L65.4,30.9L65.4,30.4L66.4,30.4L66.4,28.9L68.1,28.9L68.1,29.4L68.6,29.4L68.6,32.6L68.1,32.6L68.1,33.1L67.1,33.1L67.1,33.6L66.6,33.6L66.6,35.6L65.6,35.6L65.6,36.1L64.5,36.1L64.5,35.9L65.4,35.9L65.4,35.4L66.4,35.4L66.4,33.4L66.9,33.4L66.9,32.9L67.9,32.9L67.9,32.4L68.4,32.4L68.4,29.6L67.9,29.6L67.9,29.1L66.6,29.1L66.6,30.6L65.6,30.6L65.6,31.1L64.6,31.1L64.6,31.6L64.1,31.6L64.1,32.1L62.1,32.1L62.1,33.1L61.6,33.1L61.6,34.1L55.9,34.1L55.9,32.4L56.4,32.4L56.4,31.4L56.9,31.4L56.9,30.9L57.4,30.9L57.4,30.4L57.9,30.4L57.9,29.4L58.4,29.4L58.4,28.4L58.9,28.4L58.9,27.9L59.9,27.9L59.9,27.4L60.9,27.4L60.9,26.4L61.4,26.4L61.4,25.9L61.9,25.9L61.9,25.4L62.4,25.4L62.4,24.9L63.4,24.9L63.4,24.4L64.4,24.4L64.4,23.4L64.9,23.4L64.9,22.9L65.4,22.9L65.4,22.4L66.9,22.4L66.9,21.9L69.4,21.9L69.4,21.4L69.9,21.4L69.9,20.1L69.4,20.1L69.4,17.6L68.9,17.6z" stroke="none"/><path d="M43.6,30L43.4,30L43.4,29.6L42.4,29.6L42.4,29.1L40.9,29.1L40.9,28.1L39.4,28.1L39.4,27.1L38.4,27.1L38.4,24.6L37.9,24.6L37.9,22.9L39.9,22.9L39.9,22.4L42.9,22.4L42.9,19.9L47.4,19.9L47.4,19.4L48.9,19.4L48.9,17.4L50.4,17.4L50.4,16.9L50.9,16.9L50.9,16.4L51.4,16.4L51.4,15.9L51.9,15.9L51.9,12.9L52.4,12.9L52.4,12L52.6,12L52.6,13.1L52.1,13.1L52.1,16.1L51.6,16.1L51.6,16.6L51.1,16.6L51.1,17.1L50.6,17.1L50.6,17.6L49.1,17.6L49.1,19.6L47.6,19.6L47.6,20.1L43.1,20.1L43.1,22.6L40.1,22.6L40.1,23.1L38.1,23.1L38.1,24.4L38.6,24.4L38.6,26.9L39.6,26.9L39.6,27.9L41.1,27.9L41.1,28.9L42.6,28.9L42.6,29.4L43.6,29.4z" stroke="none"/><path d="M7.4,67.5L7.6,67.5L7.6,68.1L6.6,68.1L6.6,68.6L2.4,68.6L2.4,67.6L1.9,67.6L1.9,67.1L1.4,67.1L1.4,57.9L1.9,57.9L1.9,57.4L2.9,57.4L2.9,56.9L3.4,56.9L3.4,55.9L14.4,55.9L14.4,54.9L14.9,54.9L14.9,54.4L15.4,54.4L15.4,53.9L22.5,53.9L22.5,54.1L15.6,54.1L15.6,54.6L15.1,54.6L15.1,55.1L14.6,55.1L14.6,56.1L3.6,56.1L3.6,57.1L3.1,57.1L3.1,57.6L2.1,57.6L2.1,58.1L1.6,58.1L1.6,66.9L2.1,66.9L2.1,67.4L2.6,67.4L2.6,68.4L6.4,68.4L6.4,67.9L7.4,67.9z" stroke="none"/><path d="M34.5,99.1L34.5,98.9L36.1,98.9L36.1,99.9L38.6,99.9L38.6,100.4L39.1,100.4L39.1,101.9L40.1,101.9L40.1,102.4L43.6,102.4L43.6,102.9L53.9,102.9L53.9,102.4L54.4,102.4L54.4,99.9L54.9,99.9L54.9,99.4L57.9,99.4L57.9,96.9L58.4,96.9L58.4,94.1L57.9,94.1L57.9,93.6L55.4,93.6L55.4,93.1L54,93.1L54,92.9L55.6,92.9L55.6,93.4L58.1,93.4L58.1,93.9L58.6,93.9L58.6,97.1L58.1,97.1L58.1,99.6L55.1,99.6L55.1,100.1L54.6,100.1L54.6,102.6L54.1,102.6L54.1,103.1L43.4,103.1L43.4,102.6L39.9,102.6L39.9,102.1L38.9,102.1L38.9,100.6L38.4,100.6L38.4,100.1L35.9,100.1L35.9,99.1z" stroke="none"/><path d="M99,76.6L99,76.4L100.1,76.4L100.1,76.9L100.6,76.9L100.6,77.9L101.1,77.9L101.1,93.1L100.6,93.1L100.6,94.1L99.6,94.1L99.6,94.6L96.6,94.6L96.6,95.6L96.1,95.6L96.1,96.1L91.5,96.1L91.5,95.9L95.9,95.9L95.9,95.4L96.4,95.4L96.4,94.4L99.4,94.4L99.4,93.9L100.4,93.9L100.4,92.9L100.9,92.9L100.9,78.1L100.4,78.1L100.4,77.1L99.9,77.1L99.9,76.6z" stroke="none"/><path d="M80.9,15L81.1,15L81.1,26.1L80.6,26.1L80.6,26.6L79.1,26.6L79.1,27.1L78.6,27.1L78.6,27.6L77.6,27.6L77.6,28.1L77.1,28.1L77.1,28.6L76.6,28.6L76.6,29.1L75.6,29.1L75.6,29.6L75.1,29.6L75.1,32.1L74.6,32.1L74.6,33.1L73.6,33.1L73.6,34.5L73.4,34.5L73.4,32.9L74.4,32.9L74.4,31.9L74.9,31.9L74.9,29.4L75.4,29.4L75.4,28.9L76.4,28.9L76.4,28.4L76.9,28.4L76.9,27.9L77.4,27.9L77.4,27.4L78.4,27.4L78.4,26.9L78.9,26.9L78.9,26.4L80.4,26.4L80.4,25.9L80.9,25.9z" stroke="none"/><path d="M35.9,12L36.1,12L36.1,13.1L35.6,13.1L35.6,13.6L35.1,13.6L35.1,14.6L31.9,14.6L31.9,12.6L31.4,12.6L31.4,10.1L29.4,10.1L29.4,9.6L28.4,9.6L28.4,9.1L23.1,9.1L23.1,9.6L22.1,9.6L22.1,10.1L18.4,10.1L18.4,9.6L17.4,9.6L17.4,9.1L16.9,9.1L16.9,8.1L16.4,8.1L16.4,7.6L14.9,7.6L14.9,7.1L14.4,7.1L14.4,6.6L13.9,6.6L13.9,3.6L13.4,3.6L13.4,3.1L11.4,3.1L11.4,2.6L10.4,2.6L10.4,0.6L2.1,0.6L2.1,9.1L1.6,9.1L1.6,41.9L2.1,41.9L2.1,43.4L2.6,43.4L2.6,44.4L3.6,44.4L3.6,44.9L4.1,44.9L4.1,45.4L5.6,45.4L5.6,45.9L6.9,45.9L6.9,39.9L7.4,39.9L7.4,39.4L7.9,39.4L7.9,38.9L8.9,38.9L8.9,38.4L9.4,38.4L9.4,34.9L11.4,34.9L11.4,33.4L12.4,33.4L12.4,32.4L12.9,32.4L12.9,31.9L13.4,31.9L13.4,31.4L13.9,31.4L13.9,30.9L14.4,30.9L14.4,28.9L15.4,28.9L15.4,28.4L16.9,28.4L16.9,27.9L18.9,27.9L18.9,26.4L19.4,26.4L19.4,25.5L19.6,25.5L19.6,26.6L19.1,26.6L19.1,28.1L17.1,28.1L17.1,28.6L15.6,28.6L15.6,29.1L14.6,29.1L14.6,31.1L14.1,31.1L14.1,31.6L13.6,31.6L13.6,32.1L13.1,32.1L13.1,32.6L12.6,32.6L12.6,33.6L11.6,33.6L11.6,35.1L9.6,35.1L9.6,38.6L9.1,38.6L9.1,39.1L8.1,39.1L8.1,39.6L7.6,39.6L7.6,40.1L7.1,40.1L7.1,46.1L5.4,46.1L5.4,45.6L3.9,45.6L3.9,45.1L3.4,45.1L3.4,44.6L2.4,44.6L2.4,43.6L1.9,43.6L1.9,42.1L1.4,42.1L1.4,8.9L1.9,8.9L1.9,0.4L10.6,0.4L10.6,2.4L11.6,2.4L11.6,2.9L13.6,2.9L13.6,3.4L14.1,3.4L14.1,6.4L14.6,6.4L14.6,6.9L15.1,6.9L15.1,7.4L16.6,7.4L16.6,7.9L17.1,7.9L17.1,8.9L17.6,8.9L17.6,9.4L18.6,9.4L18.6,9.9L21.9,9.9L21.9,9.4L22.9,9.4L22.9,8.9L28.6,8.9L28.6,9.4L29.6,9.4L29.6,9.9L31.6,9.9L31.6,12.4L32.1,12.4L32.1,14.4L34.9,14.4L34.9,13.4L35.4,13.4L35.4,12.9L35.9,12.9z" stroke="none"/><path d="M67.5,76.6L67.5,76.4L70.6,76.4L70.6,76.9L77.9,76.9L77.9,72.9L78.9,72.9L78.9,70.4L79.4,70.4L79.4,69.4L79.9,69.4L79.9,68.9L80.4,68.9L80.4,66.4L80.9,66.4L80.9,65.9L83.6,65.9L83.6,66.4L84.6,66.4L84.6,66.9L101.6,66.9L101.6,67.4L102.6,67.4L102.6,67.9L103.1,67.9L103.1,103.1L100.1,103.1L100.1,103.6L63.9,103.6L63.9,102.6L63.4,102.6L63.4,100.1L62.9,100.1L62.9,99.6L60.9,99.6L60.9,99.1L60.4,99.1L60.4,98.6L59.4,98.6L59.4,98.1L58.9,98.1L58.9,91.4L59.4,91.4L59.4,89.9L60.9,89.9L60.9,89.4L64.4,89.4L64.4,88.9L64.9,88.9L64.9,88.4L65.9,88.4L65.9,85.9L76.6,85.9L76.6,86.9L77.1,86.9L77.1,87.4L77.6,87.4L77.6,87.9L78.6,87.9L78.6,88.4L79.6,88.4L79.6,88.9L80.1,88.9L80.1,89.4L85.6,89.4L85.6,90.4L86.1,90.4L86.1,90.9L86.6,90.9L86.6,92.1L86.1,92.1L86.1,93.6L85.6,93.6L85.6,94.1L80.1,94.1L80.1,94.6L79.5,94.6L79.5,94.4L79.9,94.4L79.9,93.9L85.4,93.9L85.4,93.4L85.9,93.4L85.9,91.9L86.4,91.9L86.4,91.1L85.9,91.1L85.9,90.6L85.4,90.6L85.4,89.6L79.9,89.6L79.9,89.1L79.4,89.1L79.4,88.6L78.4,88.6L78.4,88.1L77.4,88.1L77.4,87.6L76.9,87.6L76.9,87.1L76.4,87.1L76.4,86.1L66.1,86.1L66.1,88.6L65.1,88.6L65.1,89.1L64.6,89.1L64.6,89.6L61.1,89.6L61.1,90.1L59.6,90.1L59.6,91.6L59.1,91.6L59.1,97.9L59.6,97.9L59.6,98.4L60.6,98.4L60.6,98.9L61.1,98.9L61.1,99.4L63.1,99.4L63.1,99.9L63.6,99.9L63.6,102.4L64.1,102.4L64.1,103.4L99.9,103.4L99.9,102.9L102.9,102.9L102.9,68.1L102.4,68.1L102.4,67.6L101.4,67.6L101.4,67.1L84.4,67.1L84.4,66.6L83.4,66.6L83.4,66.1L81.1,66.1L81.1,66.6L80.6,66.6L80.6,69.1L80.1,69.1L80.1,69.6L79.6,69.6L79.6,70.6L79.1,70.6L79.1,73.1L78.1,73.1L78.1,77.1L70.4,77.1L70.4,76.6z" stroke="none"/><path d="M82.5,44.9L82.5,45.1L81.4,45.1L81.4,44.6L79.9,44.6L79.9,39.9L80.4,39.9L80.4,38.4L81.4,38.4L81.4,37.9L81.9,37.9L81.9,37.4L82.4,37.4L82.4,36.9L83.4,36.9L83.4,35.9L83.9,35.9L83.9,34.4L84.4,34.4L84.4,33.9L84.9,33.9L84.9,33.4L86.1,33.4L86.1,33.9L86.6,33.9L86.6,38.4L87.1,38.4L87.1,38.9L87.6,38.9L87.6,39.4L88.1,39.4L88.1,40.4L88.6,40.4L88.6,41.4L90.1,41.4L90.1,41.9L93.4,41.9L93.4,40.9L93.9,40.9L93.9,38.4L95.4,38.4L95.4,37.9L97.1,37.9L97.1,40.4L99.6,40.4L99.6,40.9L100.1,40.9L100.1,41.4L101.4,41.4L101.4,40.9L101.9,40.9L101.9,40.4L102.9,40.4L102.9,39.4L103.4,39.4L103.4,38.9L103.9,38.9L103.9,21.6L103.4,21.6L103.4,20.6L102.4,20.6L102.4,20.1L101.6,20.1L101.6,20.6L101.1,20.6L101.1,27.1L100.6,27.1L100.6,27.6L100.1,27.6L100.1,28.1L99.6,28.1L99.6,29.9L101.1,29.9L101.1,30.9L102.1,30.9L102.1,31.5L101.9,31.5L101.9,31.1L100.9,31.1L100.9,30.1L99.4,30.1L99.4,27.9L99.9,27.9L99.9,27.4L100.4,27.4L100.4,26.9L100.9,26.9L100.9,20.4L101.4,20.4L101.4,19.9L102.6,19.9L102.6,20.4L103.6,20.4L103.6,21.4L104.1,21.4L104.1,39.1L103.6,39.1L103.6,39.6L103.1,39.6L103.1,40.6L102.1,40.6L102.1,41.1L101.6,41.1L101.6,41.6L99.9,41.6L99.9,41.1L99.4,41.1L99.4,40.6L96.9,40.6L96.9,38.1L95.6,38.1L95.6,38.6L94.1,38.6L94.1,41.1L93.6,41.1L93.6,42.1L89.9,42.1L89.9,41.6L88.4,41.6L88.4,40.6L87.9,40.6L87.9,39.6L87.4,39.6L87.4,39.1L86.9,39.1L86.9,38.6L86.4,38.6L86.4,34.1L85.9,34.1L85.9,33.6L85.1,33.6L85.1,34.1L84.6,34.1L84.6,34.6L84.1,34.6L84.1,36.1L83.6,36.1L83.6,37.1L82.6,37.1L82.6,37.6L82.1,37.6L82.1,38.1L81.6,38.1L81.6,38.6L80.6,38.6L80.6,40.1L80.1,40.1L80.1,44.4L81.6,44.4L81.6,44.9z" stroke="none"/><path d="M78,57.1L78,56.9L80.9,56.9L80.9,56.4L81.4,56.4L81.4,54.4L81.9,54.4L81.9,53.6L81.4,53.6L81.4,52.6L79.9,52.6L79.9,46.6L79.4,46.6L79.4,37.9L79.9,37.9L79.9,35.4L81.4,35.4L81.4,34.4L81.9,34.4L81.9,33.4L82.9,33.4L82.9,32.4L83.4,32.4L83.4,31.4L83.9,31.4L83.9,30.9L84.9,30.9L84.9,28.6L83.9,28.6L83.9,28.1L83.4,28.1L83.4,27.6L82.9,27.6L82.9,16.9L83.9,16.9L83.9,16.4L84.4,16.4L84.4,15.4L87.4,15.4L87.4,14.9L87.9,14.9L87.9,14.4L90.9,14.4L90.9,13.4L91.4,13.4L91.4,12.4L94.9,12.4L94.9,10.9L96.4,10.9L96.4,8.9L96.9,8.9L96.9,8.4L97.4,8.4L97.4,3.4L99.6,3.4L99.6,3.9L100.1,3.9L100.1,8.4L100.6,8.4L100.6,9.4L101.1,9.4L101.1,9.9L101.6,9.9L101.6,17.4L102.1,17.4L102.1,18.9L102.6,18.9L102.6,19.4L103.1,19.4L103.1,19.9L104.1,19.9L104.1,20.9L104.6,20.9L104.6,103.6L101.6,103.6L101.6,104.1L35.9,104.1L35.9,101.6L34.4,101.6L34.4,100.6L33.4,100.6L33.4,97.9L37.1,97.9L37.1,98.4L41.4,98.4L41.4,97.9L41.9,97.9L41.9,97.4L42.4,97.4L42.4,96.9L42.9,96.9L42.9,95.9L43.9,95.9L43.9,94.9L44.4,94.9L44.4,86.1L43.4,86.1L43.4,85.6L42.9,85.6L42.9,85.1L42.4,85.1L42.4,81.9L43.4,81.9L43.4,76.4L43.9,76.4L43.9,75.9L44.4,75.9L44.4,73.4L44.9,73.4L44.9,71.4L45.4,71.4L45.4,70.4L47.4,70.4L47.4,69.9L48.4,69.9L48.4,69.4L48.9,69.4L48.9,66.9L57.6,66.9L57.6,69.4L58.1,69.4L58.1,70.4L58.5,70.4L58.5,70.6L57.9,70.6L57.9,69.6L57.4,69.6L57.4,67.1L49.1,67.1L49.1,69.6L48.6,69.6L48.6,70.1L47.6,70.1L47.6,70.6L45.6,70.6L45.6,71.6L45.1,71.6L45.1,73.6L44.6,73.6L44.6,76.1L44.1,76.1L44.1,76.6L43.6,76.6L43.6,82.1L42.6,82.1L42.6,84.9L43.1,84.9L43.1,85.4L43.6,85.4L43.6,85.9L44.6,85.9L44.6,95.1L44.1,95.1L44.1,96.1L43.1,96.1L43.1,97.1L42.6,97.1L42.6,97.6L42.1,97.6L42.1,98.1L41.6,98.1L41.6,98.6L36.9,98.6L36.9,98.1L33.6,98.1L33.6,100.4L34.6,100.4L34.6,101.4L36.1,101.4L36.1,103.9L101.4,103.9L101.4,103.4L104.4,103.4L104.4,21.1L103.9,21.1L103.9,20.1L102.9,20.1L102.9,19.6L102.4,19.6L102.4,19.1L101.9,19.1L101.9,17.6L101.4,17.6L101.4,10.1L100.9,10.1L100.9,9.6L100.4,9.6L100.4,8.6L99.9,8.6L99.9,4.1L99.4,4.1L99.4,3.6L97.6,3.6L97.6,8.6L97.1,8.6L97.1,9.1L96.6,9.1L96.6,11.1L95.1,11.1L95.1,12.6L91.6,12.6L91.6,13.6L91.1,13.6L91.1,14.6L88.1,14.6L88.1,15.1L87.6,15.1L87.6,15.6L84.6,15.6L84.6,16.6L84.1,16.6L84.1,17.1L83.1,17.1L83.1,27.4L83.6,27.4L83.6,27.9L84.1,27.9L84.1,28.4L85.1,28.4L85.1,31.1L84.1,31.1L84.1,31.6L83.6,31.6L83.6,32.6L83.1,32.6L83.1,33.6L82.1,33.6L82.1,34.6L81.6,34.6L81.6,35.6L80.1,35.6L80.1,38.1L79.6,38.1L79.6,46.4L80.1,46.4L80.1,52.4L81.6,52.4L81.6,53.4L82.1,53.4L82.1,54.6L81.6,54.6L81.6,56.6L81.1,56.6L81.1,57.1z" stroke="none"/><path d="M29.9,78L30.1,78L30.1,84.6L29.6,84.6L29.6,85.6L28.6,85.6L28.6,87.1L27.6,87.1L27.6,91.6L27.1,91.6L27.1,92.1L26.1,92.1L26.1,99.1L25.1,99.1L25.1,99.6L24.6,99.6L24.6,100.1L21.4,100.1L21.4,99.6L20.4,99.6L20.4,98.6L19.9,98.6L19.9,98.1L16.4,98.1L16.4,97.5L16.6,97.5L16.6,97.9L20.1,97.9L20.1,98.4L20.6,98.4L20.6,99.4L21.6,99.4L21.6,99.9L24.4,99.9L24.4,99.4L24.9,99.4L24.9,98.9L25.9,98.9L25.9,91.9L26.9,91.9L26.9,91.4L27.4,91.4L27.4,86.9L28.4,86.9L28.4,85.4L29.4,85.4L29.4,84.4L29.9,84.4z" stroke="none"/><path d="M8.9,66L9.1,66L9.1,66.6L8.6,66.6L8.6,68.1L8.1,68.1L8.1,68.6L7.1,68.6L7.1,69.1L1.9,69.1L1.9,68.1L1.4,68.1L1.4,67.6L0.9,67.6L0.9,56.9L1.4,56.9L1.4,55.9L1.9,55.9L1.9,55.4L13.4,55.4L13.4,54.9L13.9,54.9L13.9,54.4L14.4,54.4L14.4,53.9L14.9,53.9L14.9,53.4L21.9,53.4L21.9,52.9L26.4,52.9L26.4,52.4L28.5,52.4L28.5,52.6L26.6,52.6L26.6,53.1L22.1,53.1L22.1,53.6L15.1,53.6L15.1,54.1L14.6,54.1L14.6,54.6L14.1,54.6L14.1,55.1L13.6,55.1L13.6,55.6L2.1,55.6L2.1,56.1L1.6,56.1L1.6,57.1L1.1,57.1L1.1,67.4L1.6,67.4L1.6,67.9L2.1,67.9L2.1,68.9L6.9,68.9L6.9,68.4L7.9,68.4L7.9,67.9L8.4,67.9L8.4,66.4L8.9,66.4z" stroke="none"/><path d="M37.4,67.5L37.6,67.5L37.6,72.1L35.1,72.1L35.1,82.6L34.1,82.6L34.1,83.1L33.6,83.1L33.6,85.1L33.1,85.1L33.1,88.6L32.6,88.6L32.6,89.1L31.1,89.1L31.1,89.6L30.1,89.6L30.1,90.6L29.6,90.6L29.6,91.6L29.1,91.6L29.1,92.1L28.6,92.1L28.6,94.4L29.1,94.4L29.1,96.9L29.6,96.9L29.6,98.6L28.1,98.6L28.1,99.1L27.6,99.1L27.6,99.6L27.1,99.6L27.1,100.1L25.6,100.1L25.6,100.6L22.1,100.6L22.1,101.1L21.6,101.1L21.6,101.6L18.9,101.6L18.9,101.1L14.9,101.1L14.9,100.6L14.4,100.6L14.4,100.1L13.4,100.1L13.4,99.6L3.9,99.6L3.9,98.1L3.4,98.1L3.4,79.1L2.9,79.1L2.9,76.4L14.4,76.4L14.4,75.9L16.9,75.9L16.9,75.4L18.6,75.4L18.6,75.9L19.1,75.9L19.1,77.6L10.1,77.6L10.1,82.1L9.6,82.1L9.6,83.9L10.1,83.9L10.1,84.4L11.6,84.4L11.6,84.9L16.9,84.9L16.9,84.4L18.6,84.4L18.6,84.9L19.6,84.9L19.6,85.5L19.4,85.5L19.4,85.1L18.4,85.1L18.4,84.6L17.1,84.6L17.1,85.1L11.4,85.1L11.4,84.6L9.9,84.6L9.9,84.1L9.4,84.1L9.4,81.9L9.9,81.9L9.9,77.4L18.9,77.4L18.9,76.1L18.4,76.1L18.4,75.6L17.1,75.6L17.1,76.1L14.6,76.1L14.6,76.6L3.1,76.6L3.1,78.9L3.6,78.9L3.6,97.9L4.1,97.9L4.1,99.4L13.6,99.4L13.6,99.9L14.6,99.9L14.6,100.4L15.1,100.4L15.1,100.9L19.1,100.9L19.1,101.4L21.4,101.4L21.4,100.9L21.9,100.9L21.9,100.4L25.4,100.4L25.4,99.9L26.9,99.9L26.9,99.4L27.4,99.4L27.4,98.9L27.9,98.9L27.9,98.4L29.4,98.4L29.4,97.1L28.9,97.1L28.9,94.6L28.4,94.6L28.4,91.9L28.9,91.9L28.9,91.4L29.4,91.4L29.4,90.4L29.9,90.4L29.9,89.4L30.9,89.4L30.9,88.9L32.4,88.9L32.4,88.4L32.9,88.4L32.9,84.9L33.4,84.9L33.4,82.9L33.9,82.9L33.9,82.4L34.9,82.4L34.9,71.9L37.4,71.9z" stroke="none"/><path d="M28.6,81L28.4,81L28.4,80.6L27.9,80.6L27.9,80.1L27.4,80.1L27.4,79.6L26.9,79.6L26.9,78.1L26.4,78.1L26.4,76.6L25.4,76.6L25.4,76.1L24.9,76.1L24.9,75.6L24.4,75.6L24.4,74.1L23.9,74.1L23.9,73.1L23.4,73.1L23.4,72.6L22.9,72.6L22.9,68.6L21.9,68.6L21.9,68.1L20.6,68.1L20.6,68.6L20.1,68.6L20.1,72.1L19.6,72.1L19.6,73.1L19.1,73.1L19.1,73.6L17.6,73.6L17.6,74.6L14.6,74.6L14.6,75.1L14.1,75.1L14.1,75.6L3.6,75.6L3.6,76.1L2.6,76.1L2.6,99.4L3.6,99.4L3.6,99.9L11.6,99.9L11.6,100.4L12,100.4L12,100.6L11.4,100.6L11.4,100.1L3.4,100.1L3.4,99.6L2.4,99.6L2.4,75.9L3.4,75.9L3.4,75.4L13.9,75.4L13.9,74.9L14.4,74.9L14.4,74.4L17.4,74.4L17.4,73.4L18.9,73.4L18.9,72.9L19.4,72.9L19.4,71.9L19.9,71.9L19.9,68.4L20.4,68.4L20.4,67.9L22.1,67.9L22.1,68.4L23.1,68.4L23.1,72.4L23.6,72.4L23.6,72.9L24.1,72.9L24.1,73.9L24.6,73.9L24.6,75.4L25.1,75.4L25.1,75.9L25.6,75.9L25.6,76.4L26.6,76.4L26.6,77.9L27.1,77.9L27.1,79.4L27.6,79.4L27.6,79.9L28.1,79.9L28.1,80.4L28.6,80.4z" stroke="none"/><path d="M6.1,52.5L5.9,52.5L5.9,51.9L6.4,51.9L6.4,51.4L6.9,51.4L6.9,50.4L8.4,50.4L8.4,49.9L10.1,49.9L10.1,52.6L9.6,52.6L9.6,54.1L8.6,54.1L8.6,54.6L8.1,54.6L8.1,55.1L1.6,55.1L1.6,55.6L1.1,55.6L1.1,56.1L0.6,56.1L0.6,68.9L1.1,68.9L1.1,69.4L11.1,69.4L11.1,69.9L11.6,69.9L11.6,70.4L12.1,70.4L12.1,70.9L12.6,70.9L12.6,71.9L13.6,71.9L13.6,72.4L14.6,72.4L14.6,72.9L15.4,72.9L15.4,72.4L15.9,72.4L15.9,69.9L16.4,69.9L16.4,68.9L17.9,68.9L17.9,67.9L18.4,67.9L18.4,67.4L25.1,67.4L25.1,68.4L25.6,68.4L25.6,69L25.4,69L25.4,68.6L24.9,68.6L24.9,67.6L18.6,67.6L18.6,68.1L18.1,68.1L18.1,69.1L16.6,69.1L16.6,70.1L16.1,70.1L16.1,72.6L15.6,72.6L15.6,73.1L14.4,73.1L14.4,72.6L13.4,72.6L13.4,72.1L12.4,72.1L12.4,71.1L11.9,71.1L11.9,70.6L11.4,70.6L11.4,70.1L10.9,70.1L10.9,69.6L0.9,69.6L0.9,69.1L0.4,69.1L0.4,55.9L0.9,55.9L0.9,55.4L1.4,55.4L1.4,54.9L7.9,54.9L7.9,54.4L8.4,54.4L8.4,53.9L9.4,53.9L9.4,52.4L9.9,52.4L9.9,50.1L8.6,50.1L8.6,50.6L7.1,50.6L7.1,51.6L6.6,51.6L6.6,52.1L6.1,52.1z" stroke="none"/></svg>