<svg version="1.1" width="105" height="105" xmlns="http://www.w3.org/2000/svg"><path d="M22.9,87.9L22.9,87.4L23.4,87.4L23.4,86.9L25.5,86.9L25.5,87.1L23.6,87.1L23.6,87.6L23.1,87.6L23.1,88.1L19.6,88.1L19.6,88.6L19.1,88.6L19.1,89.1L15.9,89.1L15.9,88.6L15,88.6L15,88.4L16.1,88.4L16.1,88.9L18.9,88.9L18.9,88.4L19.4,88.4L19.4,88.1L18.1,88.1L18.1,88.5L17.9,88.5L17.9,87.9z" stroke="none"/><path d="M72.4,14.9L72.4,14.1L71.9,14.1L71.9,13.5L72.1,13.5L72.1,13.9L72.6,13.9L72.6,16.4L73.1,16.4L73.1,17.4L73.6,17.4L73.6,17.9L74.1,17.9L74.1,18.4L74.6,18.4L74.6,18.9L75.1,18.9L75.1,19.4L75.6,19.4L75.6,19.9L76.1,19.9L76.1,25.4L76.5,25.4L76.5,25.6L75.9,25.6L75.9,20.1L75.4,20.1L75.4,19.6L74.9,19.6L74.9,19.1L74.4,19.1L74.4,18.6L73.9,18.6L73.9,18.1L73.4,18.1L73.4,17.6L72.9,17.6L72.9,16.6L72.4,16.6L72.4,15.1L71.9,15.1L71.9,14.6L71.4,14.6L71.4,8.6L69.4,8.6L69.4,8.1L68.9,8.1L68.9,6L69.1,6L69.1,7.9L69.6,7.9L69.6,8.4L71.6,8.4L71.6,14.4L72.1,14.4L72.1,14.9z" stroke="none"/><path d="M96.4,78.9L96.4,77.4L96.9,77.4L96.9,76.4L97.4,76.4L97.4,75.4L97.9,75.4L97.9,71.9L100.5,71.9L100.5,72.1L98.1,72.1L98.1,75.6L97.6,75.6L97.6,76.6L97.1,76.6L97.1,77.6L96.6,77.6L96.6,79.1L93.1,79.1L93.1,81L92.9,81L92.9,79.1L92.6,79.1L92.6,79.6L92.1,79.6L92.1,80.1L91.1,80.1L91.1,81.6L89.6,81.6L89.6,82.6L86.1,82.6L86.1,83.6L85.6,83.6L85.6,84L85.4,84L85.4,83.4L85.9,83.4L85.9,82.4L89.4,82.4L89.4,81.4L90.9,81.4L90.9,79.9L91.9,79.9L91.9,79.4L92.4,79.4L92.4,78.9z" stroke="none"/><path d="M13.4,14.9L13.4,13.1L9.4,13.1L9.4,12.1L8.9,12.1L8.9,11.1L8.4,11.1L8.4,10.1L6.9,10.1L6.9,9.6L5.4,9.6L5.4,9.1L4.5,9.1L4.5,8.9L5.6,8.9L5.6,9.4L7.1,9.4L7.1,9.9L8.6,9.9L8.6,10.9L9.1,10.9L9.1,11.9L9.6,11.9L9.6,12.9L13.6,12.9L13.6,14.9L14.1,14.9L14.1,15.4L14.6,15.4L14.6,16.4L15.1,16.4L15.1,16.9L16.6,16.9L16.6,18.9L17.1,18.9L17.1,19.4L17.6,19.4L17.6,20.4L23.6,20.4L23.6,22.4L24,22.4L24,22.6L23.4,22.6L23.4,20.6L17.4,20.6L17.4,19.6L16.9,19.6L16.9,19.1L16.4,19.1L16.4,17.1L14.9,17.1L14.9,16.6L14.4,16.6L14.4,15.6L13.9,15.6L13.9,15.1L12.9,15.1L12.9,14.1L11.9,14.1L11.9,13.5L12.1,13.5L12.1,13.9L13.1,13.9L13.1,14.9z" stroke="none"/><path d="M38.9,28.1L38.4,28.1L38.4,27.6L34.4,27.6L34.4,27.1L33.9,27.1L33.9,26.6L31.9,26.6L31.9,25.6L30.9,25.6L30.9,24.6L29.9,24.6L29.9,24L30.1,24L30.1,24.4L31.1,24.4L31.1,25.4L32.1,25.4L32.1,26.4L34.1,26.4L34.1,26.9L34.6,26.9L34.6,27.4L38.6,27.4L38.6,27.9L39.1,27.9L39.1,33.9L39.6,33.9L39.6,37.4L42.1,37.4L42.1,39.4L44.6,39.4L44.6,39.9L46.6,39.9L46.6,40.4L47.6,40.4L47.6,41.9L49.5,41.9L49.5,42.1L47.4,42.1L47.4,40.6L46.4,40.6L46.4,40.1L44.4,40.1L44.4,39.6L41.9,39.6L41.9,37.6L39.4,37.6L39.4,34.1L39.1,34.1L39.1,34.6L38.1,34.6L38.1,35.1L37.6,35.1L37.6,36L37.4,36L37.4,34.9L37.9,34.9L37.9,34.4L38.9,34.4z" stroke="none"/><path d="M65.4,35.9L65.4,28.4L66,28.4L66,28.6L65.6,28.6L65.6,36.1L58.1,36.1L58.1,39.1L56.1,39.1L56.1,39.6L55.1,39.6L55.1,40.1L54.1,40.1L54.1,40.6L53.6,40.6L53.6,41.6L52.6,41.6L52.6,42L52.4,42L52.4,41.4L53.4,41.4L53.4,40.4L53.9,40.4L53.9,39.9L54.9,39.9L54.9,39.4L55.9,39.4L55.9,38.9L57.9,38.9L57.9,36.1L57.1,36.1L57.1,37.6L55.5,37.6L55.5,37.4L56.9,37.4L56.9,35.9z" stroke="none"/><path d="M46.4,85.4L46.4,80.9L48.4,80.9L48.4,79.9L48.9,79.9L48.9,79.4L49.4,79.4L49.4,78.9L50.4,78.9L50.4,76.4L50.9,76.4L50.9,75.4L52.4,75.4L52.4,75L52.6,75L52.6,75.6L51.1,75.6L51.1,76.6L50.6,76.6L50.6,79.1L49.6,79.1L49.6,79.6L49.1,79.6L49.1,80.1L48.6,80.1L48.6,81.1L46.6,81.1L46.6,88.5L46.4,88.5L46.4,85.6L46.1,85.6L46.1,88.1L45.6,88.1L45.6,88.6L44.6,88.6L44.6,89.6L43.1,89.6L43.1,90.1L42.1,90.1L42.1,91.1L41.1,91.1L41.1,91.6L40.6,91.6L40.6,93L40.4,93L40.4,91.4L40.9,91.4L40.9,90.9L41.9,90.9L41.9,89.9L42.9,89.9L42.9,89.4L44.4,89.4L44.4,88.4L45.4,88.4L45.4,87.9L45.9,87.9L45.9,85.4z" stroke="none"/><path d="M21.4,48.4L21.4,46.1L20.9,46.1L20.9,45L21.1,45L21.1,45.9L21.6,45.9L21.6,48.4L24.6,48.4L24.6,48.9L25.1,48.9L25.1,49.4L25.6,49.4L25.6,51L25.4,51L25.4,49.6L24.9,49.6L24.9,49.1L24.4,49.1L24.4,48.6L19.1,48.6L19.1,49.1L18.1,49.1L18.1,49.5L17.9,49.5L17.9,48.9L18.9,48.9L18.9,48.4z" stroke="none"/><path d="M54.9,72.4L55.9,72.4L55.9,71.9L57,71.9L57,72.1L56.1,72.1L56.1,72.6L55.1,72.6L55.1,76.9L57.4,76.9L57.4,76.4L57.9,76.4L57.9,75.4L58.4,75.4L58.4,75L58.6,75L58.6,75.6L58.1,75.6L58.1,76.6L57.6,76.6L57.6,77.1L55.1,77.1L55.1,78.6L54.6,78.6L54.6,79.1L54.1,79.1L54.1,79.6L52.1,79.6L52.1,80.1L51.6,80.1L51.6,80.6L51.1,80.6L51.1,81.1L50.6,81.1L50.6,82.6L49.6,82.6L49.6,84L49.4,84L49.4,82.4L50.4,82.4L50.4,80.9L50.9,80.9L50.9,80.4L51.4,80.4L51.4,79.9L51.9,79.9L51.9,79.4L53.9,79.4L53.9,78.9L54.4,78.9L54.4,78.4L54.9,78.4z" stroke="none"/><path d="M93.4,9.9L93.4,7.6L92.9,7.6L92.9,7.1L91.4,7.1L91.4,6.1L89.9,6.1L89.9,4.5L90.1,4.5L90.1,5.9L91.6,5.9L91.6,6.9L93.1,6.9L93.1,7.4L93.6,7.4L93.6,9.9L94.1,9.9L94.1,10.9L95.1,10.9L95.1,11.4L96.1,11.4L96.1,11.9L96.6,11.9L96.6,12.4L97.1,12.4L97.1,13.4L97.6,13.4L97.6,13.9L98.1,13.9L98.1,14.9L99.1,14.9L99.1,15.4L100.1,15.4L100.1,17.4L100.6,17.4L100.6,18L100.4,18L100.4,17.6L99.9,17.6L99.9,15.6L98.9,15.6L98.9,15.1L97.9,15.1L97.9,14.1L97.4,14.1L97.4,13.6L96.9,13.6L96.9,12.6L96.4,12.6L96.4,12.1L95.9,12.1L95.9,11.6L94.9,11.6L94.9,11.1L93.9,11.1L93.9,10.1L92.9,10.1L92.9,8.1L92.4,8.1L92.4,7.6L90,7.6L90,7.4L92.6,7.4L92.6,7.9L93.1,7.9L93.1,9.9z" stroke="none"/><path d="M73.9,22.4L73.9,21.4L74.9,21.4L74.9,21L75.1,21L75.1,21.6L74.1,21.6L74.1,22.6L69.6,22.6L69.6,26.6L69.1,26.6L69.1,27L68.9,27L68.9,26.4L69.4,26.4L69.4,22.6L65.4,22.6L65.4,20.6L64.9,20.6L64.9,20.1L64.4,20.1L64.4,19.5L64.6,19.5L64.6,19.9L65.1,19.9L65.1,20.4L65.6,20.4L65.6,22.4z" stroke="none"/><path d="M86.9,60.9L87.4,60.9L87.4,60.4L87.9,60.4L87.9,59.4L88.4,59.4L88.4,57L88.6,57L88.6,59.6L88.1,59.6L88.1,60.6L87.6,60.6L87.6,61.1L87.1,61.1L87.1,61.4L87.9,61.4L87.9,60.9L88.4,60.9L88.4,60.4L88.9,60.4L88.9,55.4L89.9,55.4L89.9,54.9L93.4,54.9L93.4,54.4L95.9,54.4L95.9,54L96.1,54L96.1,54.6L93.6,54.6L93.6,55.1L90.1,55.1L90.1,55.6L89.1,55.6L89.1,60.6L88.6,60.6L88.6,61.1L88.1,61.1L88.1,61.6L87.1,61.6L87.1,69.6L84.6,69.6L84.6,70.1L83.6,70.1L83.6,71.1L81.6,71.1L81.6,72.1L79.6,72.1L79.6,73.1L78.6,73.1L78.6,73.6L76.5,73.6L76.5,73.4L78.4,73.4L78.4,72.9L79.4,72.9L79.4,71.9L81.4,71.9L81.4,70.9L83.4,70.9L83.4,69.9L84.4,69.9L84.4,69.4L86.9,69.4z" stroke="none"/><path d="M28.4,13.4L28.4,11.4L30.9,11.4L30.9,9.9L31.9,9.9L31.9,9.4L32.9,9.4L32.9,9L33.1,9L33.1,9.6L32.1,9.6L32.1,10.1L31.1,10.1L31.1,11.6L28.6,11.6L28.6,13.4L30.9,13.4L30.9,11.9L33,11.9L33,12.1L31.1,12.1L31.1,13.6L21.1,13.6L21.1,15.1L20.1,15.1L20.1,15.6L19.6,15.6L19.6,19.5L19.4,19.5L19.4,15.4L19.9,15.4L19.9,14.9L20.9,14.9L20.9,13.4z" stroke="none"/><path d="M48.9,6.1L45.4,6.1L45.4,5.6L44.9,5.6L44.9,3L45.1,3L45.1,5.4L45.6,5.4L45.6,5.9L49.1,5.9L49.1,6.4L54.4,6.4L54.4,4.9L55.4,4.9L55.4,4.5L55.6,4.5L55.6,5.1L54.6,5.1L54.6,6.6L49.1,6.6L49.1,10.1L48.6,10.1L48.6,11.1L46.6,11.1L46.6,12L46.4,12L46.4,10.9L48.4,10.9L48.4,9.9L48.9,9.9z" stroke="none"/><path d="M17.9,28.9L17.9,28.6L16.1,28.6L16.1,29.1L15.6,29.1L15.6,29.6L14.6,29.6L14.6,31.6L13.6,31.6L13.6,32.1L13.1,32.1L13.1,32.6L12.6,32.6L12.6,33.1L12,33.1L12,32.9L12.4,32.9L12.4,32.4L12.9,32.4L12.9,31.9L13.4,31.9L13.4,31.4L14.4,31.4L14.4,29.4L15.4,29.4L15.4,28.9L15.9,28.9L15.9,28.4L18.1,28.4L18.1,28.9L20.9,28.9L20.9,27.9L22.9,27.9L22.9,26.4L24.9,26.4L24.9,25.4L25.4,25.4L25.4,24.9L26.4,24.9L26.4,22.4L26.9,22.4L26.9,21.4L27.9,21.4L27.9,20.9L28.5,20.9L28.5,21.1L28.1,21.1L28.1,21.6L27.1,21.6L27.1,22.6L26.6,22.6L26.6,25.1L25.6,25.1L25.6,25.6L25.1,25.6L25.1,26.6L23.1,26.6L23.1,28.1L21.1,28.1L21.1,29.1L16.6,29.1L16.6,29.6L16.1,29.6L16.1,30.1L15.1,30.1L15.1,32.1L14.1,32.1L14.1,32.6L13.6,32.6L13.6,33L13.4,33L13.4,32.4L13.9,32.4L13.9,31.9L14.9,31.9L14.9,29.9L15.9,29.9L15.9,29.4L16.4,29.4L16.4,28.9z" stroke="none"/><path d="M57.4,17.1L56.4,17.1L56.4,15.1L54.9,15.1L54.9,13.6L54.4,13.6L54.4,12.6L53.9,12.6L53.9,12L54.1,12L54.1,12.4L54.6,12.4L54.6,13.4L55.1,13.4L55.1,14.9L56.6,14.9L56.6,16.9L57.6,16.9L57.6,19.4L58.9,19.4L58.9,18.4L60.9,18.4L60.9,17.9L61.9,17.9L61.9,17.4L62.4,17.4L62.4,16.4L63,16.4L63,16.6L62.6,16.6L62.6,17.6L62.1,17.6L62.1,18.1L61.1,18.1L61.1,18.6L59.1,18.6L59.1,19.6L57.6,19.6L57.6,27.1L56.6,27.1L56.6,27.6L55.6,27.6L55.6,30L55.4,30L55.4,27.4L56.4,27.4L56.4,26.9L57.4,26.9z" stroke="none"/><path d="M13.9,46.1L11.4,46.1L11.4,45.1L10.4,45.1L10.4,42.6L9.9,42.6L9.9,42.1L9.4,42.1L9.4,41.1L8.9,41.1L8.9,40.5L9.1,40.5L9.1,40.9L9.6,40.9L9.6,41.9L10.1,41.9L10.1,42.4L10.6,42.4L10.6,44.9L11.6,44.9L11.6,45.9L14.1,45.9L14.1,50.9L15.1,50.9L15.1,51.9L18.1,51.9L18.1,52.4L20.1,52.4L20.1,53.9L21,53.9L21,54.1L19.9,54.1L19.9,52.6L17.9,52.6L17.9,52.1L14.9,52.1L14.9,51.1L14.1,51.1L14.1,57.6L13.6,57.6L13.6,58.1L12.1,58.1L12.1,58.5L11.9,58.5L11.9,57.9L13.4,57.9L13.4,57.4L13.9,57.4z" stroke="none"/><path d="M12.4,73.6L10.9,73.6L10.9,73.1L9.4,73.1L9.4,72.6L8.9,72.6L8.9,72.1L8.4,72.1L8.4,71.1L7.9,71.1L7.9,70.6L7.5,70.6L7.5,70.4L8.1,70.4L8.1,70.9L8.6,70.9L8.6,71.9L9.1,71.9L9.1,72.4L9.6,72.4L9.6,72.9L11.1,72.9L11.1,73.4L12.6,73.4L12.6,76.4L12.9,76.4L12.9,73.9L16.9,73.9L16.9,72.9L17.4,72.9L17.4,70.9L17.9,70.9L17.9,70.5L18.1,70.5L18.1,71.1L17.6,71.1L17.6,73.1L17.1,73.1L17.1,74.1L13.1,74.1L13.1,76.6L12.6,76.6L12.6,77.4L13.1,77.4L13.1,86.6L12.6,86.6L12.6,87.1L12.1,87.1L12.1,88.5L11.9,88.5L11.9,86.9L12.4,86.9L12.4,86.4L12.9,86.4L12.9,77.6L12.4,77.6z" stroke="none"/><path d="M69.9,29.6L68.9,29.6L68.9,29.1L67.9,29.1L67.9,26.6L67.4,26.6L67.4,26.1L62.6,26.1L62.6,26.6L61.6,26.6L61.6,27.1L61.1,27.1L61.1,28.1L60.1,28.1L60.1,28.5L59.9,28.5L59.9,27.9L60.9,27.9L60.9,26.9L61.4,26.9L61.4,26.4L62.4,26.4L62.4,25.9L67.6,25.9L67.6,26.4L68.1,26.4L68.1,28.9L69.1,28.9L69.1,29.4L70.1,29.4L70.1,33.4L70.9,33.4L70.9,32.9L71.4,32.9L71.4,31.4L72.4,31.4L72.4,30.9L72.9,30.9L72.9,29.9L73.9,29.9L73.9,28.4L74.4,28.4L74.4,27.9L74.9,27.9L74.9,27L75.1,27L75.1,28.1L74.6,28.1L74.6,28.6L74.1,28.6L74.1,30.1L73.1,30.1L73.1,31.1L72.6,31.1L72.6,31.6L71.6,31.6L71.6,33.1L71.1,33.1L71.1,33.6L70.1,33.6L70.1,38.4L70.6,38.4L70.6,40.9L71.1,40.9L71.1,41.4L72.1,41.4L72.1,42.9L73.1,42.9L73.1,43.4L73.6,43.4L73.6,43.9L74.1,43.9L74.1,44.4L74.6,44.4L74.6,44.9L75,44.9L75,45.1L74.4,45.1L74.4,44.6L73.9,44.6L73.9,44.1L73.4,44.1L73.4,43.6L72.9,43.6L72.9,43.1L71.9,43.1L71.9,41.6L70.9,41.6L70.9,41.1L70.4,41.1L70.4,38.6L69.9,38.6z" stroke="none"/><path d="M88.4,15.4L88.4,14.9L88.9,14.9L88.9,14.4L89.4,14.4L89.4,11.1L88.9,11.1L88.9,3.9L89.4,3.9L89.4,3.4L93.1,3.4L93.1,4.4L94.6,4.4L94.6,4.9L95.6,4.9L95.6,5.4L96.1,5.4L96.1,6L95.9,6L95.9,5.6L95.4,5.6L95.4,5.1L94.4,5.1L94.4,4.6L92.9,4.6L92.9,3.6L89.6,3.6L89.6,4.1L89.1,4.1L89.1,10.9L89.6,10.9L89.6,14.6L89.1,14.6L89.1,15.1L88.6,15.1L88.6,20.4L89.1,20.4L89.1,20.9L89.6,20.9L89.6,21.4L90.1,21.4L90.1,22.9L90.6,22.9L90.6,23.4L92.1,23.4L92.1,23.9L92.6,23.9L92.6,24.4L93.1,24.4L93.1,25.5L92.9,25.5L92.9,24.6L92.4,24.6L92.4,24.1L91.9,24.1L91.9,23.6L90.4,23.6L90.4,23.1L89.9,23.1L89.9,21.6L89.4,21.6L89.4,21.1L88.9,21.1L88.9,20.6L88.4,20.6L88.4,15.6L76.4,15.6L76.4,15L76.6,15L76.6,15.4z" stroke="none"/><path d="M54.4,91.9L54.4,86.1L53.4,86.1L53.4,85.6L52.9,85.6L52.9,83.6L52.4,83.6L52.4,81L52.6,81L52.6,83.4L53.1,83.4L53.1,85.4L53.6,85.4L53.6,85.9L54.6,85.9L54.6,91.9L55.1,91.9L55.1,92.4L55.6,92.4L55.6,93L55.4,93L55.4,92.6L54.9,92.6L54.9,92.1L54.6,92.1L54.6,93.4L55.1,93.4L55.1,95.4L56.6,95.4L56.6,95.9L57,95.9L57,96.1L56.4,96.1L56.4,95.6L54.9,95.6L54.9,93.6L54.4,93.6L54.4,92.1L53.6,92.1L53.6,92.6L53.1,92.6L53.1,97.9L55.1,97.9L55.1,99.4L55.6,99.4L55.6,100.5L55.4,100.5L55.4,99.6L54.9,99.6L54.9,98.1L52.9,98.1L52.9,92.4L53.4,92.4L53.4,91.9z" stroke="none"/><path d="M62.4,87.4L62.4,82.6L61.5,82.6L61.5,82.4L62.6,82.4L62.6,87.4L68.4,87.4L68.4,86.9L69,86.9L69,87.1L68.6,87.1L68.6,87.6L62.6,87.6L62.6,88.1L61.6,88.1L61.6,88.5L61.4,88.5L61.4,87.9L62.4,87.9L62.4,87.6L61.1,87.6L61.1,90.6L60.6,90.6L60.6,94.1L60.1,94.1L60.1,94.6L59.6,94.6L59.6,96.6L58.6,96.6L58.6,97.1L54.9,97.1L54.9,96.6L54.4,96.6L54.4,96.1L53.9,96.1L53.9,94.5L54.1,94.5L54.1,95.9L54.6,95.9L54.6,96.4L55.1,96.4L55.1,96.9L58.4,96.9L58.4,96.4L59.4,96.4L59.4,94.4L59.9,94.4L59.9,93.9L60.4,93.9L60.4,90.4L60.9,90.4L60.9,87.4z" stroke="none"/><path d="M34.4,50.9L34.4,49.5L34.6,49.5L34.6,50.9L37.4,50.9L37.4,50.4L38.4,50.4L38.4,48.9L40.9,48.9L40.9,47.9L41.4,47.9L41.4,47.4L41.9,47.4L41.9,46.9L42.4,46.9L42.4,46.4L42.9,46.4L42.9,45.9L43.4,45.9L43.4,45.4L43.9,45.4L43.9,44.9L45,44.9L45,45.1L44.1,45.1L44.1,45.6L43.6,45.6L43.6,46.1L43.1,46.1L43.1,46.6L42.6,46.6L42.6,47.1L42.1,47.1L42.1,47.6L41.6,47.6L41.6,48.1L41.1,48.1L41.1,49.1L38.6,49.1L38.6,50.6L37.6,50.6L37.6,51.1L34.6,51.1L34.6,54L34.4,54L34.4,51.1L33.1,51.1L33.1,51.6L32.6,51.6L32.6,52.6L30.6,52.6L30.6,53.1L29.6,53.1L29.6,53.6L29.1,53.6L29.1,54.6L28.1,54.6L28.1,55.1L27.1,55.1L27.1,55.6L26.6,55.6L26.6,57.1L25.5,57.1L25.5,56.9L26.4,56.9L26.4,55.4L26.9,55.4L26.9,54.9L27.9,54.9L27.9,54.4L28.9,54.4L28.9,53.4L29.4,53.4L29.4,52.9L30.4,52.9L30.4,52.4L32.4,52.4L32.4,51.4L32.9,51.4L32.9,50.9z" stroke="none"/><path d="M12.4,11.9L12.4,11.4L12.9,11.4L12.9,10.4L13.5,10.4L13.5,10.6L13.1,10.6L13.1,11.6L12.6,11.6L12.6,11.9L19.6,11.9L19.6,13.5L19.4,13.5L19.4,12.1L12.6,12.1L12.6,12.4L14.6,12.4L14.6,13.4L15.1,13.4L15.1,15L14.9,15L14.9,13.6L14.4,13.6L14.4,12.6L12.4,12.6L12.4,12.1L11.4,12.1L11.4,11.6L10.9,11.6L10.9,10.6L8.9,10.6L8.9,9.6L8.4,9.6L8.4,9.1L6.9,9.1L6.9,8.6L4.9,8.6L4.9,8.1L4.1,8.1L4.1,8.6L3.6,8.6L3.6,9.6L3.1,9.6L3.1,10.5L2.9,10.5L2.9,9.4L3.4,9.4L3.4,8.4L3.9,8.4L3.9,7.9L5.1,7.9L5.1,8.4L7.1,8.4L7.1,8.9L8.6,8.9L8.6,9.4L9.1,9.4L9.1,10.4L11.1,10.4L11.1,11.4L11.6,11.4L11.6,11.9z" stroke="none"/><path d="M92.9,64.4L92.9,61.4L93.4,61.4L93.4,60.9L93.9,60.9L93.9,60.4L94.4,60.4L94.4,59.9L95.4,59.9L95.4,58.4L96.4,58.4L96.4,57.9L96.9,57.9L96.9,55.4L97.4,55.4L97.4,53.1L96.9,53.1L96.9,52.1L96.4,52.1L96.4,51.6L94.4,51.6L94.4,51L94.6,51L94.6,51.4L96.6,51.4L96.6,51.9L97.1,51.9L97.1,52.9L97.6,52.9L97.6,55.6L97.1,55.6L97.1,58.1L96.6,58.1L96.6,58.6L95.6,58.6L95.6,60.1L94.6,60.1L94.6,60.6L94.1,60.6L94.1,61.1L93.6,61.1L93.6,61.6L93.1,61.6L93.1,64.4L94.1,64.4L94.1,65.4L94.6,65.4L94.6,66L94.4,66L94.4,65.6L93.9,65.6L93.9,64.6L93.1,64.6L93.1,70.5L92.9,70.5L92.9,64.6L92.6,64.6L92.6,66.1L92.1,66.1L92.1,67.1L90.1,67.1L90.1,70.5L89.9,70.5L89.9,66.9L91.9,66.9L91.9,65.9L92.4,65.9L92.4,64.4z" stroke="none"/><path d="M10.9,70.4L10.9,68.6L10.4,68.6L10.4,67.5L10.6,67.5L10.6,68.4L11.1,68.4L11.1,70.4L11.9,70.4L11.9,69.9L12.4,69.9L12.4,68.4L13.4,68.4L13.4,67.4L13.9,67.4L13.9,64.9L14.4,64.9L14.4,64.4L15,64.4L15,64.6L14.6,64.6L14.6,65.1L14.1,65.1L14.1,67.6L13.6,67.6L13.6,68.6L12.6,68.6L12.6,70.1L12.1,70.1L12.1,70.6L11.1,70.6L11.1,70.9L12.4,70.9L12.4,70.4L12.9,70.4L12.9,68.9L13.9,68.9L13.9,67.9L14.4,67.9L14.4,66.4L14.9,66.4L14.9,65.9L15.4,65.9L15.4,64.1L11.1,64.1L11.1,66.6L9.6,66.6L9.6,67.1L8.6,67.1L8.6,67.6L8.1,67.6L8.1,68.1L6.6,68.1L6.6,69.1L6.1,69.1L6.1,71.9L6.6,71.9L6.6,72.4L8.1,72.4L8.1,72.9L9.1,72.9L9.1,73.4L10.1,73.4L10.1,74.9L10.6,74.9L10.6,75.4L11.1,75.4L11.1,76.9L12.1,76.9L12.1,78L11.9,78L11.9,77.1L10.9,77.1L10.9,75.6L10.4,75.6L10.4,75.1L9.9,75.1L9.9,73.6L8.9,73.6L8.9,73.1L7.9,73.1L7.9,72.6L6.4,72.6L6.4,72.1L5.9,72.1L5.9,68.9L6.4,68.9L6.4,67.9L7.9,67.9L7.9,67.4L8.4,67.4L8.4,66.9L9.4,66.9L9.4,66.4L10.9,66.4L10.9,63.9L15.6,63.9L15.6,66.1L15.1,66.1L15.1,66.6L14.6,66.6L14.6,68.1L14.1,68.1L14.1,69.1L13.1,69.1L13.1,70.6L12.6,70.6L12.6,71.1L10.9,71.1L10.9,70.6L8.4,70.6L8.4,70.1L7.9,70.1L7.9,69.6L6.6,69.6L6.6,71.4L7.1,71.4L7.1,71.9L7.5,71.9L7.5,72.1L6.9,72.1L6.9,71.6L6.4,71.6L6.4,69.4L8.1,69.4L8.1,69.9L8.6,69.9L8.6,70.4z" stroke="none"/><path d="M28.4,34.9L28.4,34.4L28.9,34.4L28.9,33.9L29.4,33.9L29.4,30.9L30.4,30.9L30.4,30.4L31.4,30.4L31.4,29.9L31.9,29.9L31.9,28.9L33.4,28.9L33.4,28.4L34.5,28.4L34.5,28.6L33.6,28.6L33.6,29.1L32.1,29.1L32.1,30.1L31.6,30.1L31.6,30.6L30.6,30.6L30.6,31.1L29.6,31.1L29.6,34.1L29.1,34.1L29.1,34.6L28.6,34.6L28.6,34.9L30.4,34.9L30.4,34.4L31.5,34.4L31.5,34.6L30.6,34.6L30.6,35.1L28.6,35.1L28.6,43.6L26.6,43.6L26.6,44.6L26.1,44.6L26.1,45.6L23.6,45.6L23.6,46.1L22.6,46.1L22.6,46.5L22.4,46.5L22.4,45.9L23.4,45.9L23.4,45.4L25.9,45.4L25.9,44.4L26.4,44.4L26.4,43.4L28.4,43.4L28.4,35.1L27.9,35.1L27.9,34.6L26.4,34.6L26.4,34.1L25.9,34.1L25.9,32.1L25.4,32.1L25.4,31.5L25.6,31.5L25.6,31.9L26.1,31.9L26.1,33.9L26.6,33.9L26.6,34.4L28.1,34.4L28.1,34.9z" stroke="none"/><path d="M92.9,84.4L92.9,83.9L94.9,83.9L94.9,83.4L96.6,83.4L96.6,84.4L97.1,84.4L97.1,84.9L99.6,84.9L99.6,85.4L100.5,85.4L100.5,85.6L99.4,85.6L99.4,85.1L96.9,85.1L96.9,84.6L96.4,84.6L96.4,83.6L95.1,83.6L95.1,84.1L93.1,84.1L93.1,84.4L95.9,84.4L95.9,84L96.1,84L96.1,84.6L93.1,84.6L93.1,87.9L93.6,87.9L93.6,88.4L94.5,88.4L94.5,88.6L93.4,88.6L93.4,88.1L92.9,88.1L92.9,84.6L86.6,84.6L86.6,85.1L84.4,85.1L84.4,82.1L83.4,82.1L83.4,81.6L82.4,81.6L82.4,81.1L81,81.1L81,80.9L82.6,80.9L82.6,81.4L83.6,81.4L83.6,81.9L84.6,81.9L84.6,84.9L86.4,84.9L86.4,84.4z" stroke="none"/><path d="M38.4,85.4L38.4,73.4L39.4,73.4L39.4,72.9L39.9,72.9L39.9,71.6L39.4,71.6L39.4,71.1L28.6,71.1L28.6,72.1L28.1,72.1L28.1,72.6L27.6,72.6L27.6,73.1L27.1,73.1L27.1,73.6L26.6,73.6L26.6,74.6L26.1,74.6L26.1,75.1L25.5,75.1L25.5,74.9L25.9,74.9L25.9,74.4L26.4,74.4L26.4,73.4L26.9,73.4L26.9,72.9L27.4,72.9L27.4,72.4L27.9,72.4L27.9,71.9L28.4,71.9L28.4,70.9L39.6,70.9L39.6,71.4L40.1,71.4L40.1,73.1L39.6,73.1L39.6,73.6L38.6,73.6L38.6,85.4L45.1,85.4L45.1,87L44.9,87L44.9,85.6L38.6,85.6L38.6,89.9L39,89.9L39,90.1L38.4,90.1L38.4,85.6L38.1,85.6L38.1,90.9L38.6,90.9L38.6,91.9L39.6,91.9L39.6,93.4L40.1,93.4L40.1,93.9L42.9,93.9L42.9,92.4L43.9,92.4L43.9,91.4L45,91.4L45,91.6L44.1,91.6L44.1,92.6L43.1,92.6L43.1,94.1L39.9,94.1L39.9,93.6L39.4,93.6L39.4,92.1L38.4,92.1L38.4,91.1L37.9,91.1L37.9,85.4z" stroke="none"/><path d="M21.4,76.4L21.4,69.4L23.4,69.4L23.4,68.9L25.4,68.9L25.4,68.4L25.9,68.4L25.9,67.4L26.4,67.4L26.4,66.4L27.4,66.4L27.4,65.9L28.5,65.9L28.5,66.1L27.6,66.1L27.6,66.6L26.6,66.6L26.6,67.6L26.1,67.6L26.1,68.6L25.6,68.6L25.6,69.1L23.6,69.1L23.6,69.6L21.6,69.6L21.6,76.4L23.6,76.4L23.6,77.4L24.1,77.4L24.1,77.9L25.6,77.9L25.6,78.4L26.1,78.4L26.1,78.9L30.1,78.9L30.1,79.5L29.9,79.5L29.9,79.1L25.9,79.1L25.9,78.6L25.4,78.6L25.4,78.1L23.9,78.1L23.9,77.6L23.4,77.6L23.4,76.6L21.6,76.6L21.6,83.6L21.1,83.6L21.1,84.6L16.6,84.6L16.6,86.6L14.1,86.6L14.1,87.1L13.6,87.1L13.6,89.6L11.4,89.6L11.4,89.1L10.9,89.1L10.9,84.9L11.9,84.9L11.9,84L12.1,84L12.1,85.1L11.1,85.1L11.1,88.9L11.6,88.9L11.6,89.4L13.4,89.4L13.4,86.9L13.9,86.9L13.9,86.4L16.4,86.4L16.4,84.4L20.9,84.4L20.9,83.4L21.4,83.4L21.4,76.6L16.5,76.6L16.5,76.4z" stroke="none"/><path d="M68.9,82.9L68.9,80.1L66.9,80.1L66.9,79.6L66.4,79.6L66.4,79.1L64.9,79.1L64.9,72.6L64.4,72.6L64.4,72L64.6,72L64.6,72.4L65.1,72.4L65.1,78.9L66.6,78.9L66.6,79.4L67.1,79.4L67.1,79.9L69.1,79.9L69.1,82.9L81.1,82.9L81.1,83.4L81.6,83.4L81.6,84.4L82.1,84.4L82.1,85.4L82.5,85.4L82.5,85.6L81.9,85.6L81.9,84.6L81.4,84.6L81.4,83.6L80.9,83.6L80.9,83.1L69.1,83.1L69.1,84.9L69.6,84.9L69.6,86.4L70.1,86.4L70.1,88.6L69.6,88.6L69.6,89.1L67.6,89.1L67.6,89.6L67.1,89.6L67.1,90.1L66,90.1L66,89.9L66.9,89.9L66.9,89.4L67.4,89.4L67.4,88.9L69.4,88.9L69.4,88.4L69.9,88.4L69.9,86.6L69.4,86.6L69.4,85.1L68.9,85.1L68.9,83.1L67.6,83.1L67.6,83.6L66.6,83.6L66.6,84.1L66.1,84.1L66.1,85.1L64.6,85.1L64.6,85.5L64.4,85.5L64.4,84.9L65.9,84.9L65.9,83.9L66.4,83.9L66.4,83.4L67.4,83.4L67.4,82.9z" stroke="none"/><path d="M8.9,56.9L8.9,51L9.1,51L9.1,56.9L9.4,56.9L9.4,50.6L8.6,50.6L8.6,51.1L7.6,51.1L7.6,52.1L7.1,52.1L7.1,52.6L6.1,52.6L6.1,53.6L5.6,53.6L5.6,54.1L5.1,54.1L5.1,54.6L4.6,54.6L4.6,55.1L4.1,55.1L4.1,55.6L3.1,55.6L3.1,56.6L2.6,56.6L2.6,58.4L3.6,58.4L3.6,59.4L4.1,59.4L4.1,59.9L5.6,59.9L5.6,61.9L6.1,61.9L6.1,62.9L6.6,62.9L6.6,63.9L7.6,63.9L7.6,64.5L7.4,64.5L7.4,64.1L6.4,64.1L6.4,63.1L5.9,63.1L5.9,62.1L5.4,62.1L5.4,60.1L3.9,60.1L3.9,59.6L3.4,59.6L3.4,58.6L2.4,58.6L2.4,56.4L2.9,56.4L2.9,55.4L3.9,55.4L3.9,54.9L4.4,54.9L4.4,54.4L4.9,54.4L4.9,53.9L5.4,53.9L5.4,53.4L5.9,53.4L5.9,52.4L6.9,52.4L6.9,51.9L7.4,51.9L7.4,50.9L8.4,50.9L8.4,50.4L9.6,50.4L9.6,57.1L9.1,57.1L9.1,57.9L10.6,57.9L10.6,58.9L11.6,58.9L11.6,59.4L12.9,59.4L12.9,58.4L13.9,58.4L13.9,57.9L14.4,57.9L14.4,57.4L14.9,57.4L14.9,55.5L15.1,55.5L15.1,57.6L14.6,57.6L14.6,58.1L14.1,58.1L14.1,58.6L13.1,58.6L13.1,59.6L11.4,59.6L11.4,59.1L10.4,59.1L10.4,58.1L8.9,58.1L8.9,57.1L8.4,57.1L8.4,56.1L3.6,56.1L3.6,57.1L3,57.1L3,56.9L3.4,56.9L3.4,55.9L8.6,55.9L8.6,56.9z" stroke="none"/><path d="M52.4,10.9L52.4,10.4L57.9,10.4L57.9,9.9L58.4,9.9L58.4,9.4L58.9,9.4L58.9,8.4L59.9,8.4L59.9,7.5L60.1,7.5L60.1,8.6L59.1,8.6L59.1,9.6L58.6,9.6L58.6,10.1L58.1,10.1L58.1,10.6L52.6,10.6L52.6,10.9L58.4,10.9L58.4,10.5L58.6,10.5L58.6,11.1L52.6,11.1L52.6,12.6L51.6,12.6L51.6,13.6L50.6,13.6L50.6,14.1L49.1,14.1L49.1,14.6L48.6,14.6L48.6,15.1L48.1,15.1L48.1,16.1L47.1,16.1L47.1,16.6L45.6,16.6L45.6,18.1L45,18.1L45,17.9L45.4,17.9L45.4,16.4L46.9,16.4L46.9,15.9L47.9,15.9L47.9,14.9L48.4,14.9L48.4,14.4L48.9,14.4L48.9,13.9L50.4,13.9L50.4,13.4L51.4,13.4L51.4,12.4L52.4,12.4L52.4,11.1L49.6,11.1L49.6,11.6L49.1,11.6L49.1,12.1L47.6,12.1L47.6,12.6L47.1,12.6L47.1,13.1L45.9,13.1L45.9,12.6L45.4,12.6L45.4,10.4L45.9,10.4L45.9,9.9L46.4,9.9L46.4,9L46.6,9L46.6,10.1L46.1,10.1L46.1,10.6L45.6,10.6L45.6,12.4L46.1,12.4L46.1,12.9L46.9,12.9L46.9,12.4L47.4,12.4L47.4,11.9L48.9,11.9L48.9,11.4L49.4,11.4L49.4,10.9z" stroke="none"/><path d="M88.4,24.9L88.4,24.6L80.4,24.6L80.4,23.6L77.6,23.6L77.6,29.9L79.1,29.9L79.1,31.4L80.1,31.4L80.1,34.4L83.6,34.4L83.6,34.9L84.1,34.9L84.1,36L83.9,36L83.9,35.1L83.4,35.1L83.4,34.6L79.9,34.6L79.9,31.6L78.9,31.6L78.9,30.1L77.4,30.1L77.4,23.4L80.6,23.4L80.6,24.4L88.6,24.4L88.6,24.9L91.1,24.9L91.1,26.4L93.4,26.4L93.4,25.9L93.9,25.9L93.9,23.9L94.4,23.9L94.4,22.5L94.6,22.5L94.6,24.1L94.1,24.1L94.1,26.1L93.6,26.1L93.6,26.6L90.9,26.6L90.9,25.1L88.6,25.1L88.6,25.4L90.1,25.4L90.1,25.9L90.6,25.9L90.6,26.9L94.9,26.9L94.9,26.4L95.4,26.4L95.4,19.9L95.9,19.9L95.9,18.9L96.9,18.9L96.9,18.4L97.4,18.4L97.4,18L97.6,18L97.6,18.6L97.1,18.6L97.1,19.1L96.1,19.1L96.1,20.1L95.6,20.1L95.6,26.6L95.1,26.6L95.1,27.1L90.4,27.1L90.4,26.1L89.9,26.1L89.9,25.6L88.4,25.6L88.4,25.1L79.4,25.1L79.4,24.1L78,24.1L78,23.9L79.6,23.9L79.6,24.9z" stroke="none"/><path d="M88.4,47.9L88.4,47.4L96.4,47.4L96.4,46.4L98.4,46.4L98.4,45.9L98.9,45.9L98.9,42.4L99.9,42.4L99.9,41.9L100.4,41.9L100.4,41.4L100.9,41.4L100.9,40.9L101.4,40.9L101.4,40.1L100.9,40.1L100.9,39.6L99.9,39.6L99.9,38.1L98.9,38.1L98.9,37.5L99.1,37.5L99.1,37.9L100.1,37.9L100.1,39.4L101.1,39.4L101.1,39.9L101.6,39.9L101.6,41.1L101.1,41.1L101.1,41.6L100.6,41.6L100.6,42.1L100.1,42.1L100.1,42.6L99.1,42.6L99.1,46.1L98.6,46.1L98.6,46.6L96.6,46.6L96.6,47.6L88.6,47.6L88.6,47.9L89.1,47.9L89.1,48.4L89.6,48.4L89.6,48.9L91.1,48.9L91.1,49.9L91.6,49.9L91.6,50.9L92.6,50.9L92.6,51.4L93.6,51.4L93.6,51.9L95.1,51.9L95.1,52.4L96.1,52.4L96.1,52.9L96.6,52.9L96.6,53.4L97.1,53.4L97.1,55.1L96.1,55.1L96.1,56.1L95.6,56.1L95.6,56.6L94.6,56.6L94.6,57L94.4,57L94.4,56.4L95.4,56.4L95.4,55.9L95.9,55.9L95.9,54.9L96.9,54.9L96.9,53.6L96.4,53.6L96.4,53.1L95.9,53.1L95.9,52.6L94.9,52.6L94.9,52.1L93.4,52.1L93.4,51.6L92.4,51.6L92.4,51.1L91.4,51.1L91.4,50.1L90.9,50.1L90.9,49.1L89.4,49.1L89.4,48.6L88.9,48.6L88.9,48.1L88.6,48.1L88.6,49.1L83.6,49.1L83.6,50.1L83.1,50.1L83.1,50.6L82.6,50.6L82.6,51.1L81,51.1L81,50.9L82.4,50.9L82.4,50.4L82.9,50.4L82.9,49.9L83.4,49.9L83.4,48.9L88.4,48.9L88.4,48.1L81,48.1L81,47.9z" stroke="none"/><path d="M16.9,45.9L16.9,41.1L15.4,41.1L15.4,38.6L13.4,38.6L13.4,38.1L12.4,38.1L12.4,37.6L10.5,37.6L10.5,37.4L12.6,37.4L12.6,37.9L13.6,37.9L13.6,38.4L15.6,38.4L15.6,40.9L17.1,40.9L17.1,45.9L17.4,45.9L17.4,45.4L19.4,45.4L19.4,43.9L21.9,43.9L21.9,42.9L23.4,42.9L23.4,42.4L25.4,42.4L25.4,41.4L25.9,41.4L25.9,40.4L27,40.4L27,40.6L26.1,40.6L26.1,41.6L25.6,41.6L25.6,42.6L23.6,42.6L23.6,43.1L22.1,43.1L22.1,44.1L19.6,44.1L19.6,45.6L17.6,45.6L17.6,46.1L17.1,46.1L17.1,50.4L22.9,50.4L22.9,49.9L23.9,49.9L23.9,49.5L24.1,49.5L24.1,50.1L23.1,50.1L23.1,50.6L16.9,50.6L16.9,46.1L14.9,46.1L14.9,45.6L13.4,45.6L13.4,44.6L12.4,44.6L12.4,44.1L11.4,44.1L11.4,42.6L10.9,42.6L10.9,40.1L9.9,40.1L9.9,39.6L8.6,39.6L8.6,40.1L8.1,40.1L8.1,50.1L7.6,50.1L7.6,50.6L7.1,50.6L7.1,51.6L6.6,51.6L6.6,52.1L5.6,52.1L5.6,52.6L5.1,52.6L5.1,53.1L3.6,53.1L3.6,53.6L3.1,53.6L3.1,55.1L2.6,55.1L2.6,56.1L2.1,56.1L2.1,61.9L2.6,61.9L2.6,62.9L3.6,62.9L3.6,63.4L6.1,63.4L6.1,64.9L7.1,64.9L7.1,65.4L7.9,65.4L7.9,64.9L8.4,64.9L8.4,60.6L7.9,60.6L7.9,57.1L7.5,57.1L7.5,56.9L8.1,56.9L8.1,60.4L8.6,60.4L8.6,65.1L8.1,65.1L8.1,65.6L6.9,65.6L6.9,65.1L5.9,65.1L5.9,63.6L3.4,63.6L3.4,63.1L2.4,63.1L2.4,62.1L1.9,62.1L1.9,55.9L2.4,55.9L2.4,54.9L2.9,54.9L2.9,53.4L3.4,53.4L3.4,52.9L4.9,52.9L4.9,52.4L5.4,52.4L5.4,51.9L6.4,51.9L6.4,51.4L6.9,51.4L6.9,50.4L7.4,50.4L7.4,49.9L7.9,49.9L7.9,39.9L8.4,39.9L8.4,39.4L10.1,39.4L10.1,39.9L11.1,39.9L11.1,42.4L11.6,42.4L11.6,43.9L12.6,43.9L12.6,44.4L13.6,44.4L13.6,45.4L15.1,45.4L15.1,45.9z" stroke="none"/><path d="M58.9,22.4L58.9,22.1L58.1,22.1L58.1,29.1L57.6,29.1L57.6,31.1L54.4,31.1L54.4,20.1L53.9,20.1L53.9,19.6L49.5,19.6L49.5,19.4L54.1,19.4L54.1,19.9L54.6,19.9L54.6,30.9L57.4,30.9L57.4,28.9L57.9,28.9L57.9,21.9L59.1,21.9L59.1,22.4L59.4,22.4L59.4,19.9L59.9,19.9L59.9,19.4L60.4,19.4L60.4,18.9L61.4,18.9L61.4,18.4L62.9,18.4L62.9,17.9L63.9,17.9L63.9,15.6L61.4,15.6L61.4,14.1L60.4,14.1L60.4,13.1L59.9,13.1L59.9,12.6L58.9,12.6L58.9,12.1L58.5,12.1L58.5,11.9L59.1,11.9L59.1,12.4L60.1,12.4L60.1,12.9L60.6,12.9L60.6,13.9L61.6,13.9L61.6,15.4L64.1,15.4L64.1,18.1L63.1,18.1L63.1,18.6L61.6,18.6L61.6,19.1L60.6,19.1L60.6,19.6L60.1,19.6L60.1,20.1L59.6,20.1L59.6,22.6L59.1,22.6L59.1,29.4L61.9,29.4L61.9,28.4L63.9,28.4L63.9,27.9L65.4,27.9L65.4,27.4L65.9,27.4L65.9,27L66.1,27L66.1,27.6L65.6,27.6L65.6,28.1L64.1,28.1L64.1,28.6L62.1,28.6L62.1,29.6L58.9,29.6L58.9,22.6L58.6,22.6L58.6,29.9L59.1,29.9L59.1,30.4L62.6,30.4L62.6,31.4L63,31.4L63,31.6L62.4,31.6L62.4,30.6L58.9,30.6L58.9,30.1L58.4,30.1L58.4,22.4z" stroke="none"/><path d="M30.9,78.4L30.9,77.9L33.4,77.9L33.4,75.4L33.9,75.4L33.9,74.9L34.4,74.9L34.4,74.4L34.9,74.4L34.9,73.9L36.9,73.9L36.9,72.4L38.4,72.4L38.4,71.9L39,71.9L39,72.1L38.6,72.1L38.6,72.6L37.1,72.6L37.1,74.1L35.1,74.1L35.1,74.6L34.6,74.6L34.6,75.1L34.1,75.1L34.1,75.6L33.6,75.6L33.6,78.1L31.1,78.1L31.1,78.4L31.6,78.4L31.6,85.9L32.1,85.9L32.1,87.6L30.4,87.6L30.4,87.1L29.4,87.1L29.4,86.6L28.9,86.6L28.9,86.1L26.9,86.1L26.9,85.6L25.5,85.6L25.5,85.4L27.1,85.4L27.1,85.9L29.1,85.9L29.1,86.4L29.6,86.4L29.6,86.9L30.6,86.9L30.6,87.4L31.9,87.4L31.9,86.1L31.4,86.1L31.4,78.6L31.1,78.6L31.1,86.4L31.6,86.4L31.6,87L31.4,87L31.4,86.6L30.9,86.6L30.9,78.6L26.4,78.6L26.4,78.1L25.9,78.1L25.9,76.1L24.4,76.1L24.4,74.1L23.9,74.1L23.9,73.5L24.1,73.5L24.1,73.9L24.6,73.9L24.6,75.9L26.1,75.9L26.1,77.9L26.6,77.9L26.6,78.4z" stroke="none"/><path d="M46.4,21.9L46.4,18.4L47.4,18.4L47.4,17.9L50.4,17.9L50.4,15.4L51.9,15.4L51.9,13.4L52.5,13.4L52.5,13.6L52.1,13.6L52.1,15.6L50.6,15.6L50.6,18.1L47.6,18.1L47.6,18.6L46.6,18.6L46.6,21.9L48.1,21.9L48.1,22.4L48.6,22.4L48.6,24.4L49.1,24.4L49.1,25.4L50.1,25.4L50.1,26.4L51.1,26.4L51.1,26.9L51.6,26.9L51.6,27.9L52.6,27.9L52.6,28.5L52.4,28.5L52.4,28.1L51.4,28.1L51.4,27.1L50.9,27.1L50.9,26.6L49.9,26.6L49.9,25.6L48.9,25.6L48.9,24.6L48.4,24.6L48.4,22.6L47.9,22.6L47.9,22.1L46.6,22.1L46.6,29.1L45.6,29.1L45.6,29.6L44.6,29.6L44.6,30.1L43.5,30.1L43.5,29.9L44.4,29.9L44.4,29.4L45.4,29.4L45.4,28.9L46.4,28.9L46.4,22.1L44.4,22.1L44.4,20.1L41.4,20.1L41.4,19.1L40.9,19.1L40.9,18.1L39.9,18.1L39.9,17.1L38.4,17.1L38.4,16.6L37.5,16.6L37.5,16.4L38.6,16.4L38.6,16.9L40.1,16.9L40.1,17.9L41.1,17.9L41.1,18.9L41.6,18.9L41.6,19.9L44.6,19.9L44.6,21.9z" stroke="none"/><path d="M89.9,36.9L89.9,36.4L90.9,36.4L90.9,33.9L91.9,33.9L91.9,33.4L92.4,33.4L92.4,32.9L93.4,32.9L93.4,31.9L94.9,31.9L94.9,30.9L95.4,30.9L95.4,30.4L95.9,30.4L95.9,28.9L96.4,28.9L96.4,27.9L97.4,27.9L97.4,27.4L98.9,27.4L98.9,27L99.1,27L99.1,27.6L97.6,27.6L97.6,28.1L96.6,28.1L96.6,29.1L96.1,29.1L96.1,30.6L95.6,30.6L95.6,31.1L95.1,31.1L95.1,32.1L93.6,32.1L93.6,33.1L92.6,33.1L92.6,33.6L92.1,33.6L92.1,34.1L91.1,34.1L91.1,36.6L90.1,36.6L90.1,36.9L92.6,36.9L92.6,37.4L93.1,37.4L93.1,37.9L93.6,37.9L93.6,38.4L94.1,38.4L94.1,38.9L96.1,38.9L96.1,39.4L98.1,39.4L98.1,40.4L99,40.4L99,40.6L97.9,40.6L97.9,39.6L95.9,39.6L95.9,39.1L93.9,39.1L93.9,38.6L93.4,38.6L93.4,38.1L92.9,38.1L92.9,37.6L92.4,37.6L92.4,37.1L90.1,37.1L90.1,38.1L87.6,38.1L87.6,38.6L87.1,38.6L87.1,39.1L86.1,39.1L86.1,39.6L85.6,39.6L85.6,40.1L85.1,40.1L85.1,40.6L83.6,40.6L83.6,41.1L82.1,41.1L82.1,41.6L81.1,41.6L81.1,42L80.9,42L80.9,41.4L81.9,41.4L81.9,40.9L83.4,40.9L83.4,40.4L84.9,40.4L84.9,39.9L85.4,39.9L85.4,39.4L85.9,39.4L85.9,38.9L86.9,38.9L86.9,38.4L87.4,38.4L87.4,37.9L89.9,37.9L89.9,37.1L85.1,37.1L85.1,38.1L84.6,38.1L84.6,38.6L82.6,38.6L82.6,39.1L81,39.1L81,38.9L82.4,38.9L82.4,38.4L84.4,38.4L84.4,37.9L84.9,37.9L84.9,36.9z" stroke="none"/><path d="M28.4,81L28.6,81L28.6,82.5L28.4,82.5z" stroke="none"/><path d="M85.5,60.1L85.5,59.9L87,59.9L87,60.1z" stroke="none"/><path d="M63,98.9L63,99.1L61.5,99.1L61.5,98.9z" stroke="none"/><path d="M26.9,45L27.1,45L27.1,46.5L26.9,46.5z" stroke="none"/><path d="M45,38.9L45,39.1L43.9,39.1L43.9,37.6L43.5,37.6L43.5,37.4L44.1,37.4L44.1,38.9z" stroke="none"/><path d="M30,43.4L30,43.6L29.6,43.6L29.6,44.6L29.1,44.6L29.1,45.1L28.5,45.1L28.5,44.9L28.9,44.9L28.9,44.4L29.4,44.4L29.4,43.4z" stroke="none"/><path d="M53.9,57L54.1,57L54.1,58.1L53.6,58.1L53.6,58.6L52.5,58.6L52.5,58.4L53.4,58.4L53.4,57.9L53.9,57.9z" stroke="none"/><path d="M79.5,99.1L79.5,98.9L82.5,98.9L82.5,99.1z" stroke="none"/><path d="M70.5,14.9L70.5,15.1L67.5,15.1L67.5,14.9z" stroke="none"/><path d="M48,35.9L48,36.1L45,36.1L45,35.9z" stroke="none"/><path d="M4.5,6.1L4.5,5.9L7.5,5.9L7.5,6.1z" stroke="none"/><path d="M39.1,12L38.9,12L38.9,9L39.1,9z" stroke="none"/><path d="M6,50.9L6,51.1L3,51.1L3,50.9z" stroke="none"/><path d="M56.9,88.5L57.1,88.5L57.1,90.9L58.6,90.9L58.6,91.5L58.4,91.5L58.4,91.1L56.9,91.1z" stroke="none"/><path d="M78,65.9L78,66.1L77.4,66.1L77.4,65.6L76.9,65.6L76.9,63.1L76.5,63.1L76.5,62.9L77.1,62.9L77.1,65.4L77.6,65.4L77.6,65.9z" stroke="none"/><path d="M10.5,62.9L10.5,63.1L9.9,63.1L9.9,62.6L9.4,62.6L9.4,60.1L9,60.1L9,59.9L9.6,59.9L9.6,62.4L10.1,62.4L10.1,62.9z" stroke="none"/><path d="M96,76.4L96,76.6L95.4,76.6L95.4,76.1L94.9,76.1L94.9,74.1L94.4,74.1L94.4,73.5L94.6,73.5L94.6,73.9L95.1,73.9L95.1,75.9L95.6,75.9L95.6,76.4z" stroke="none"/><path d="M73.6,21L73.4,21L73.4,20.6L72.9,20.6L72.9,19.6L72.4,19.6L72.4,18.6L71.9,18.6L71.9,18L72.1,18L72.1,18.4L72.6,18.4L72.6,19.4L73.1,19.4L73.1,20.4L73.6,20.4z" stroke="none"/><path d="M96,94.4L96,94.6L93.4,94.6L93.4,93.6L92.9,93.6L92.9,93L93.1,93L93.1,93.4L93.6,93.4L93.6,94.4z" stroke="none"/><path d="M97.6,88.5L97.4,88.5L97.4,86.6L96.9,86.6L96.9,86.1L95.9,86.1L95.9,85.6L94.5,85.6L94.5,85.4L96.1,85.4L96.1,85.9L97.1,85.9L97.1,86.4L97.6,86.4z" stroke="none"/><path d="M4.6,102L4.4,102L4.4,99.4L4.9,99.4L4.9,98.9L7.5,98.9L7.5,99.1L5.1,99.1L5.1,99.6L4.6,99.6z" stroke="none"/><path d="M8.9,3L9.1,3L9.1,6.1L8.6,6.1L8.6,6.6L8.1,6.6L8.1,7.1L7.6,7.1L7.6,7.5L7.4,7.5L7.4,6.9L7.9,6.9L7.9,6.4L8.4,6.4L8.4,5.9L8.9,5.9z" stroke="none"/><path d="M97.5,100.6L97.5,100.4L97.9,100.4L97.9,99.9L98.4,99.9L98.4,99.4L99.4,99.4L99.4,98.9L102,98.9L102,99.1L99.6,99.1L99.6,99.6L98.6,99.6L98.6,100.1L98.1,100.1L98.1,100.6z" stroke="none"/><path d="M76.5,86.9L76.5,87.1L74.1,87.1L74.1,88.1L73.1,88.1L73.1,88.6L72,88.6L72,88.4L72.9,88.4L72.9,87.9L73.9,87.9L73.9,86.9z" stroke="none"/><path d="M22.4,58.5L22.6,58.5L22.6,61.6L22.1,61.6L22.1,62.1L21.6,62.1L21.6,62.6L21.1,62.6L21.1,63L20.9,63L20.9,62.4L21.4,62.4L21.4,61.9L21.9,61.9L21.9,61.4L22.4,61.4z" stroke="none"/><path d="M40.5,61.4L40.5,61.6L39.9,61.6L39.9,60.6L37.9,60.6L37.9,59.6L37.4,59.6L37.4,57L37.6,57L37.6,59.4L38.1,59.4L38.1,60.4L40.1,60.4L40.1,61.4z" stroke="none"/><path d="M85.6,30L85.4,30L85.4,29.6L84.9,29.6L84.9,29.1L83.4,29.1L83.4,28.1L80.9,28.1L80.9,27L81.1,27L81.1,27.9L83.6,27.9L83.6,28.9L85.1,28.9L85.1,29.4L85.6,29.4z" stroke="none"/><path d="M102,94.4L102,94.6L98.4,94.6L98.4,94.1L97.9,94.1L97.9,92.1L97.4,92.1L97.4,91.5L97.6,91.5L97.6,91.9L98.1,91.9L98.1,93.9L98.6,93.9L98.6,94.4z" stroke="none"/><path d="M65.9,40.5L66.1,40.5L66.1,46.5L65.9,46.5z" stroke="none"/><path d="M31.6,22.5L31.4,22.5L31.4,16.5L31.6,16.5z" stroke="none"/><path d="M12.1,42L11.9,42L11.9,39.6L10.9,39.6L10.9,39.1L9.9,39.1L9.9,38.6L9.4,38.6L9.4,36.9L9.9,36.9L9.9,36.4L12.1,36.4L12.1,36.9L14.6,36.9L14.6,37.4L15.1,37.4L15.1,37.9L16.1,37.9L16.1,39.9L18.1,39.9L18.1,40.5L17.9,40.5L17.9,40.1L15.9,40.1L15.9,38.1L14.9,38.1L14.9,37.6L14.4,37.6L14.4,37.1L11.9,37.1L11.9,36.6L10.1,36.6L10.1,37.1L9.6,37.1L9.6,38.4L10.1,38.4L10.1,38.9L11.1,38.9L11.1,39.4L12.1,39.4z" stroke="none"/><path d="M3,96.1L3,95.9L6.6,95.9L6.6,96.4L7.1,96.4L7.1,96.9L7.6,96.9L7.6,97.4L9,97.4L9,97.6L7.4,97.6L7.4,97.1L6.9,97.1L6.9,96.6L6.4,96.6L6.4,96.1z" stroke="none"/><path d="M61.5,54.1L61.5,53.9L64.9,53.9L64.9,52.9L65.4,52.9L65.4,52.4L67.5,52.4L67.5,52.6L65.6,52.6L65.6,53.1L65.1,53.1L65.1,54.1z" stroke="none"/><path d="M94.6,100.5L94.4,100.5L94.4,98.4L94.9,98.4L94.9,97.9L95.9,97.9L95.9,96.9L96.4,96.9L96.4,96.4L98.9,96.4L98.9,96L99.1,96L99.1,96.6L96.6,96.6L96.6,97.1L96.1,97.1L96.1,98.1L95.1,98.1L95.1,98.6L94.6,98.6z" stroke="none"/><path d="M70.6,10.5L70.4,10.5L70.4,10.1L69.4,10.1L69.4,9.1L68.9,9.1L68.9,8.6L68.4,8.6L68.4,7.6L67.4,7.6L67.4,7.1L66.4,7.1L66.4,6.6L65.9,6.6L65.9,6L66.1,6L66.1,6.4L66.6,6.4L66.6,6.9L67.6,6.9L67.6,7.4L68.6,7.4L68.6,8.4L69.1,8.4L69.1,8.9L69.6,8.9L69.6,9.9L70.6,9.9z" stroke="none"/><path d="M55.6,7.5L55.4,7.5L55.4,5.9L55.9,5.9L55.9,5.4L56.4,5.4L56.4,3.6L55.4,3.6L55.4,3.1L51,3.1L51,2.9L55.6,2.9L55.6,3.4L56.6,3.4L56.6,5.6L56.1,5.6L56.1,6.1L55.6,6.1z" stroke="none"/><path d="M55.5,59.9L55.5,60.1L51.9,60.1L51.9,59.6L51.4,59.6L51.4,57.1L50.9,57.1L50.9,55.5L51.1,55.5L51.1,56.9L51.6,56.9L51.6,59.4L52.1,59.4L52.1,59.9z" stroke="none"/><path d="M9.1,87L8.9,87L8.9,86.6L7.9,86.6L7.9,85.6L5.4,85.6L5.4,85.1L3.9,85.1L3.9,84.6L3.4,84.6L3.4,82.6L3,82.6L3,82.4L3.6,82.4L3.6,84.4L4.1,84.4L4.1,84.9L5.6,84.9L5.6,85.4L8.1,85.4L8.1,86.4L9.1,86.4z" stroke="none"/><path d="M7.6,96L7.4,96L7.4,94.6L6.4,94.6L6.4,93.1L5.9,93.1L5.9,91.6L4.9,91.6L4.9,91.1L4.4,91.1L4.4,90.6L3.9,90.6L3.9,90.1L3,90.1L3,89.9L4.1,89.9L4.1,90.4L4.6,90.4L4.6,90.9L5.1,90.9L5.1,91.4L6.1,91.4L6.1,92.9L6.6,92.9L6.6,94.4L7.6,94.4z" stroke="none"/><path d="M25.4,94.5L25.6,94.5L25.6,102L25.4,102z" stroke="none"/><path d="M8.9,78L9.1,78L9.1,79.1L8.1,79.1L8.1,80.1L7.6,80.1L7.6,81.1L6.1,81.1L6.1,82.6L5.6,82.6L5.6,83.1L5.1,83.1L5.1,84.1L4.5,84.1L4.5,83.9L4.9,83.9L4.9,82.9L5.4,82.9L5.4,82.4L5.9,82.4L5.9,80.9L7.4,80.9L7.4,79.9L7.9,79.9L7.9,78.9L8.9,78.9z" stroke="none"/><path d="M51.1,4.5L50.9,4.5L50.9,4.1L49.4,4.1L49.4,3.1L48.4,3.1L48.4,2.6L46.4,2.6L46.4,2.1L44.6,2.1L44.6,2.6L44.1,2.6L44.1,3.6L43.6,3.6L43.6,4.5L43.4,4.5L43.4,3.4L43.9,3.4L43.9,2.4L44.4,2.4L44.4,1.9L46.6,1.9L46.6,2.4L48.6,2.4L48.6,2.9L49.6,2.9L49.6,3.9L51.1,3.9z" stroke="none"/><path d="M22.4,3L22.6,3L22.6,10.5L22.4,10.5z" stroke="none"/><path d="M76.5,102.1L76.5,101.9L84,101.9L84,102.1z" stroke="none"/><path d="M85.5,11.9L85.5,12.1L84.4,12.1L84.4,11.6L83.4,11.6L83.4,9.6L82.4,9.6L82.4,8.1L81.9,8.1L81.9,6.6L81.4,6.6L81.4,6.1L81,6.1L81,5.9L81.6,5.9L81.6,6.4L82.1,6.4L82.1,7.9L82.6,7.9L82.6,9.4L83.6,9.4L83.6,11.4L84.6,11.4L84.6,11.9z" stroke="none"/><path d="M77.9,31.5L78.1,31.5L78.1,33.6L76.1,33.6L76.1,37.1L73.6,37.1L73.6,37.5L73.4,37.5L73.4,36.9L75.9,36.9L75.9,33.4L77.9,33.4z" stroke="none"/><path d="M32.9,88.5L33.1,88.5L33.1,89.1L32.6,89.1L32.6,90.6L30.6,90.6L30.6,92.1L30.1,92.1L30.1,92.6L29.6,92.6L29.6,93.6L29.1,93.6L29.1,94.1L28.6,94.1L28.6,94.5L28.4,94.5L28.4,93.9L28.9,93.9L28.9,93.4L29.4,93.4L29.4,92.4L29.9,92.4L29.9,91.9L30.4,91.9L30.4,90.4L32.4,90.4L32.4,88.9L32.9,88.9z" stroke="none"/><path d="M100.5,40.4L100.5,40.6L100.1,40.6L100.1,41.6L97.9,41.6L97.9,41.1L93.4,41.1L93.4,39.6L92.9,39.6L92.9,39L93.1,39L93.1,39.4L93.6,39.4L93.6,40.9L98.1,40.9L98.1,41.4L99.9,41.4L99.9,40.4z" stroke="none"/><path d="M9,22.6L9,22.4L12.1,22.4L12.1,22.9L14.1,22.9L14.1,23.4L14.6,23.4L14.6,23.9L16.5,23.9L16.5,24.1L14.4,24.1L14.4,23.6L13.9,23.6L13.9,23.1L11.9,23.1L11.9,22.6z" stroke="none"/><path d="M80.9,67.5L81.1,67.5L81.1,69.1L80.1,69.1L80.1,69.6L79.6,69.6L79.6,70.6L77.6,70.6L77.6,71.1L77.1,71.1L77.1,71.6L76.1,71.6L76.1,73.1L75.6,73.1L75.6,73.9L76.1,73.9L76.1,74.4L80.4,74.4L80.4,73.9L85.9,73.9L85.9,73.4L86.4,73.4L86.4,71.9L86.9,71.9L86.9,71.4L87.4,71.4L87.4,70.9L88.4,70.9L88.4,70.5L88.6,70.5L88.6,71.1L87.6,71.1L87.6,71.6L87.1,71.6L87.1,72.1L86.6,72.1L86.6,73.6L86.1,73.6L86.1,74.1L80.6,74.1L80.6,74.6L75.9,74.6L75.9,74.1L75.4,74.1L75.4,72.9L75.9,72.9L75.9,71.4L76.9,71.4L76.9,70.9L77.4,70.9L77.4,70.4L79.4,70.4L79.4,69.4L79.9,69.4L79.9,68.9L80.9,68.9z" stroke="none"/><path d="M34.4,16.5L34.6,16.5L34.6,21.6L33.6,21.6L33.6,23.1L33.1,23.1L33.1,23.6L31.6,23.6L31.6,24L31.4,24L31.4,23.4L32.9,23.4L32.9,22.9L33.4,22.9L33.4,21.4L34.4,21.4z" stroke="none"/><path d="M97.5,24.1L97.5,23.9L98.1,23.9L98.1,24.4L99.1,24.4L99.1,24.9L99.6,24.9L99.6,26.4L100.1,26.4L100.1,30.4L100.6,30.4L100.6,31.5L100.4,31.5L100.4,30.6L99.9,30.6L99.9,26.6L99.4,26.6L99.4,25.1L98.9,25.1L98.9,24.6L97.9,24.6L97.9,24.1z" stroke="none"/><path d="M52.5,57.1L52.5,56.9L52.9,56.9L52.9,56.4L53.4,56.4L53.4,55.9L54.6,55.9L54.6,56.4L55.1,56.4L55.1,57.4L56.1,57.4L56.1,57.9L57.1,57.9L57.1,58.9L58.1,58.9L58.1,62.9L58.5,62.9L58.5,63.1L57.9,63.1L57.9,59.1L56.9,59.1L56.9,58.1L55.9,58.1L55.9,57.6L54.9,57.6L54.9,56.6L54.4,56.6L54.4,56.1L53.6,56.1L53.6,56.6L53.1,56.6L53.1,57.1z" stroke="none"/><path d="M96,101.9L96,102.1L93.4,102.1L93.4,100.1L91.9,100.1L91.9,98.6L91.4,98.6L91.4,96.6L90.4,96.6L90.4,96.1L90,96.1L90,95.9L90.6,95.9L90.6,96.4L91.6,96.4L91.6,98.4L92.1,98.4L92.1,99.9L93.6,99.9L93.6,101.9z" stroke="none"/><path d="M76.5,91.6L76.5,91.4L81.4,91.4L81.4,89.4L82.4,89.4L82.4,88.4L82.9,88.4L82.9,86.9L84,86.9L84,87.1L83.1,87.1L83.1,88.6L82.6,88.6L82.6,89.6L81.6,89.6L81.6,91.6z" stroke="none"/><path d="M24,93.1L24,92.9L26.9,92.9L26.9,91.9L29.4,91.9L29.4,89.9L29.9,89.9L29.9,89.4L30.4,89.4L30.4,88.9L31.4,88.9L31.4,88.5L31.6,88.5L31.6,89.1L30.6,89.1L30.6,89.6L30.1,89.6L30.1,90.1L29.6,90.1L29.6,92.1L27.1,92.1L27.1,93.1z" stroke="none"/><path d="M95.9,91.5L96.1,91.5L96.1,91.9L97.1,91.9L97.1,94.4L97.6,94.4L97.6,94.9L100.1,94.9L100.1,97.1L99.6,97.1L99.6,98.1L99.1,98.1L99.1,98.6L98.1,98.6L98.1,99.6L97.1,99.6L97.1,100.1L96.6,100.1L96.6,100.6L96,100.6L96,100.4L96.4,100.4L96.4,99.9L96.9,99.9L96.9,99.4L97.9,99.4L97.9,98.4L98.9,98.4L98.9,97.9L99.4,97.9L99.4,96.9L99.9,96.9L99.9,95.1L97.4,95.1L97.4,94.6L96.9,94.6L96.9,92.1L95.9,92.1z" stroke="none"/><path d="M61.5,100.6L61.5,100.4L70.5,100.4L70.5,100.6z" stroke="none"/><path d="M75.1,33L74.9,33L74.9,28.4L75.4,28.4L75.4,27.4L75.9,27.4L75.9,26.1L75.4,26.1L75.4,24.6L74.9,24.6L74.9,24L75.1,24L75.1,24.4L75.6,24.4L75.6,25.9L76.1,25.9L76.1,27.6L75.6,27.6L75.6,28.6L75.1,28.6z" stroke="none"/><path d="M79.4,36L79.6,36L79.6,39.6L78.6,39.6L78.6,40.1L78.1,40.1L78.1,45L77.9,45L77.9,39.9L78.4,39.9L78.4,39.4L79.4,39.4z" stroke="none"/><path d="M6,7.4L6,7.6L3.4,7.6L3.4,5.4L3.9,5.4L3.9,4.9L5.4,4.9L5.4,4.4L5.9,4.4L5.9,3.9L6.4,3.9L6.4,2.9L7.4,2.9L7.4,2.4L8.4,2.4L8.4,1.9L10.1,1.9L10.1,2.4L11.6,2.4L11.6,2.9L12.1,2.9L12.1,3.4L13.1,3.4L13.1,4.4L13.6,4.4L13.6,5.4L15.1,5.4L15.1,6L14.9,6L14.9,5.6L13.4,5.6L13.4,4.6L12.9,4.6L12.9,3.6L11.9,3.6L11.9,3.1L11.4,3.1L11.4,2.6L9.9,2.6L9.9,2.1L8.6,2.1L8.6,2.6L7.6,2.6L7.6,3.1L6.6,3.1L6.6,4.1L6.1,4.1L6.1,4.6L5.6,4.6L5.6,5.1L4.1,5.1L4.1,5.6L3.6,5.6L3.6,7.4z" stroke="none"/><path d="M37.4,82.5L37.6,82.5L37.6,89.6L37.1,89.6L37.1,90.1L36.1,90.1L36.1,91.5L35.9,91.5L35.9,89.9L36.9,89.9L36.9,89.4L37.4,89.4z" stroke="none"/><path d="M72,73.6L72,73.4L72.6,73.4L72.6,73.9L74.1,73.9L74.1,74.9L81,74.9L81,75.1L73.9,75.1L73.9,74.1L72.4,74.1L72.4,73.6z" stroke="none"/><path d="M77.9,6L78.1,6L78.1,13.1L77.6,13.1L77.6,13.6L76.6,13.6L76.6,14.1L76.1,14.1L76.1,14.6L75.6,14.6L75.6,15.1L75,15.1L75,14.9L75.4,14.9L75.4,14.4L75.9,14.4L75.9,13.9L76.4,13.9L76.4,13.4L77.4,13.4L77.4,12.9L77.9,12.9z" stroke="none"/><path d="M39.1,13.5L38.9,13.5L38.9,12.9L39.4,12.9L39.4,12.4L39.9,12.4L39.9,10.4L40.9,10.4L40.9,9.9L41.4,9.9L41.4,4.9L41.9,4.9L41.9,4.5L42.1,4.5L42.1,5.1L41.6,5.1L41.6,10.1L41.1,10.1L41.1,10.6L40.1,10.6L40.1,12.6L39.6,12.6L39.6,13.1L39.1,13.1z" stroke="none"/><path d="M15,28.6L15,28.4L15.4,28.4L15.4,27.9L18.4,27.9L18.4,27.4L22.4,27.4L22.4,25.9L23.4,25.9L23.4,25.4L24,25.4L24,25.6L23.6,25.6L23.6,26.1L22.6,26.1L22.6,27.6L18.6,27.6L18.6,28.1L15.6,28.1L15.6,28.6z" stroke="none"/><path d="M8.9,21L9.1,21L9.1,21.6L8.6,21.6L8.6,22.1L8.1,22.1L8.1,25.6L6.6,25.6L6.6,26.6L6.1,26.6L6.1,27.1L5.1,27.1L5.1,27.6L4.1,27.6L4.1,28.1L3.1,28.1L3.1,28.5L2.9,28.5L2.9,27.9L3.9,27.9L3.9,27.4L4.9,27.4L4.9,26.9L5.9,26.9L5.9,26.4L6.4,26.4L6.4,25.4L7.9,25.4L7.9,21.9L8.4,21.9L8.4,21.4L8.9,21.4z" stroke="none"/><path d="M28.5,9.1L28.5,8.9L30.9,8.9L30.9,8.4L31.4,8.4L31.4,7.9L33.6,7.9L33.6,8.4L34.1,8.4L34.1,13.1L31.6,13.1L31.6,14.1L29.6,14.1L29.6,14.6L27.1,14.6L27.1,15.1L25.1,15.1L25.1,15.6L24.6,15.6L24.6,16.1L23.1,16.1L23.1,16.6L22.5,16.6L22.5,16.4L22.9,16.4L22.9,15.9L24.4,15.9L24.4,15.4L24.9,15.4L24.9,14.9L26.9,14.9L26.9,14.4L29.4,14.4L29.4,13.9L31.4,13.9L31.4,12.9L33.9,12.9L33.9,8.6L33.4,8.6L33.4,8.1L31.6,8.1L31.6,8.6L31.1,8.6L31.1,9.1z" stroke="none"/><path d="M96,4.6L96,4.4L96.6,4.4L96.6,4.9L97.1,4.9L97.1,9.9L97.6,9.9L97.6,10.4L98.1,10.4L98.1,11.4L98.6,11.4L98.6,11.9L99.1,11.9L99.1,12.4L100.1,12.4L100.1,12.9L100.6,12.9L100.6,13.5L100.4,13.5L100.4,13.1L99.9,13.1L99.9,12.6L98.9,12.6L98.9,12.1L98.4,12.1L98.4,11.6L97.9,11.6L97.9,10.6L97.4,10.6L97.4,10.1L96.9,10.1L96.9,5.1L96.4,5.1L96.4,4.6z" stroke="none"/><path d="M45,68.9L45,69.1L34.5,69.1L34.5,68.9z" stroke="none"/><path d="M4.6,45L4.4,45L4.4,34.5L4.6,34.5z" stroke="none"/><path d="M6,32.9L6,33.1L5.4,33.1L5.4,32.6L4.9,32.6L4.9,31.6L3.9,31.6L3.9,31.1L2.9,31.1L2.9,30.1L2.4,30.1L2.4,29.6L1.9,29.6L1.9,27.9L2.4,27.9L2.4,24.9L3.4,24.9L3.4,23.4L3.9,23.4L3.9,22.9L5.4,22.9L5.4,22.4L6,22.4L6,22.6L5.6,22.6L5.6,23.1L4.1,23.1L4.1,23.6L3.6,23.6L3.6,25.1L2.6,25.1L2.6,28.1L2.1,28.1L2.1,29.4L2.6,29.4L2.6,29.9L3.1,29.9L3.1,30.9L4.1,30.9L4.1,31.4L5.1,31.4L5.1,32.4L5.6,32.4L5.6,32.9z" stroke="none"/><path d="M43.4,60L43.6,60L43.6,61.1L43.1,61.1L43.1,61.6L42.6,61.6L42.6,62.6L38.4,62.6L38.4,62.1L36.9,62.1L36.9,61.6L34.9,61.6L34.9,61.1L33.9,61.1L33.9,60.1L33,60.1L33,59.9L34.1,59.9L34.1,60.9L35.1,60.9L35.1,61.4L37.1,61.4L37.1,61.9L38.6,61.9L38.6,62.4L42.4,62.4L42.4,61.4L42.9,61.4L42.9,60.9L43.4,60.9z" stroke="none"/><path d="M97.6,84L97.4,84L97.4,76.9L97.9,76.9L97.9,75.9L98.4,75.9L98.4,74.9L98.9,74.9L98.9,73.5L99.1,73.5L99.1,75.1L98.6,75.1L98.6,76.1L98.1,76.1L98.1,77.1L97.6,77.1z" stroke="none"/><path d="M101.9,34.5L102.1,34.5L102.1,43.6L101.1,43.6L101.1,45.1L100.5,45.1L100.5,44.9L100.9,44.9L100.9,43.4L101.9,43.4z" stroke="none"/><path d="M85.6,64.5L85.4,64.5L85.4,61.1L84.9,61.1L84.9,60.6L84.4,60.6L84.4,54.1L84,54.1L84,53.9L84.6,53.9L84.6,60.4L85.1,60.4L85.1,60.9L85.6,60.9z" stroke="none"/><path d="M13.5,93.1L13.5,92.9L15.6,92.9L15.6,93.4L16.1,93.4L16.1,93.9L17.1,93.9L17.1,94.9L18.6,94.9L18.6,95.9L19.1,95.9L19.1,96.4L19.6,96.4L19.6,97.9L20.6,97.9L20.6,99.4L21.1,99.4L21.1,100.5L20.9,100.5L20.9,99.6L20.4,99.6L20.4,98.1L19.4,98.1L19.4,96.6L18.9,96.6L18.9,96.1L18.4,96.1L18.4,95.1L16.9,95.1L16.9,94.1L15.9,94.1L15.9,93.6L15.4,93.6L15.4,93.1z" stroke="none"/><path d="M58.4,64.5L58.6,64.5L58.6,67.1L57.1,67.1L57.1,68.1L56.6,68.1L56.6,69.1L56.1,69.1L56.1,71.6L55.6,71.6L55.6,72.1L53.6,72.1L53.6,72.6L52.6,72.6L52.6,73.5L52.4,73.5L52.4,72.4L53.4,72.4L53.4,71.9L55.4,71.9L55.4,71.4L55.9,71.4L55.9,68.9L56.4,68.9L56.4,67.9L56.9,67.9L56.9,66.9L58.4,66.9z" stroke="none"/><path d="M12,96.1L12,95.9L14.1,95.9L14.1,96.9L14.6,96.9L14.6,97.4L15.1,97.4L15.1,97.9L17.1,97.9L17.1,98.4L17.6,98.4L17.6,99.4L18.6,99.4L18.6,100.4L19.1,100.4L19.1,100.9L20.6,100.9L20.6,101.4L21.1,101.4L21.1,102L20.9,102L20.9,101.6L20.4,101.6L20.4,101.1L18.9,101.1L18.9,100.6L18.4,100.6L18.4,99.6L17.4,99.6L17.4,98.6L16.9,98.6L16.9,98.1L14.9,98.1L14.9,97.6L14.4,97.6L14.4,97.1L13.9,97.1L13.9,96.1z" stroke="none"/><path d="M87,94.4L87,94.6L79.6,94.6L79.6,96.1L78.6,96.1L78.6,97.6L78.1,97.6L78.1,100.5L77.9,100.5L77.9,97.4L78.4,97.4L78.4,95.9L79.4,95.9L79.4,94.4z" stroke="none"/><path d="M70.6,70.5L70.4,70.5L70.4,69.6L69.9,69.6L69.9,69.1L68.9,69.1L68.9,68.6L67.4,68.6L67.4,68.1L66.4,68.1L66.4,67.6L63.9,67.6L63.9,67.1L62.9,67.1L62.9,64.6L61.5,64.6L61.5,64.4L63.1,64.4L63.1,66.9L64.1,66.9L64.1,67.4L66.6,67.4L66.6,67.9L67.6,67.9L67.6,68.4L69.1,68.4L69.1,68.9L70.1,68.9L70.1,69.4L70.6,69.4z" stroke="none"/><path d="M31.5,98.9L31.5,99.1L31.1,99.1L31.1,100.1L29.6,100.1L29.6,102.1L27.6,102.1L27.6,102.6L26.1,102.6L26.1,103.1L24.4,103.1L24.4,97.1L22.9,97.1L22.9,92.4L23.4,92.4L23.4,91.4L23.9,91.4L23.9,90.9L24.4,90.9L24.4,90.4L25.4,90.4L25.4,90L25.6,90L25.6,90.6L24.6,90.6L24.6,91.1L24.1,91.1L24.1,91.6L23.6,91.6L23.6,92.6L23.1,92.6L23.1,96.9L24.6,96.9L24.6,102.9L25.9,102.9L25.9,102.4L27.4,102.4L27.4,101.9L29.4,101.9L29.4,99.9L30.9,99.9L30.9,98.9z" stroke="none"/><path d="M51.1,94.5L50.9,94.5L50.9,86.1L50.4,86.1L50.4,85.1L48.9,85.1L48.9,84.6L47.9,84.6L47.9,84L48.1,84L48.1,84.4L49.1,84.4L49.1,84.9L50.6,84.9L50.6,85.9L51.1,85.9z" stroke="none"/><path d="M84,4.4L84,4.6L75.1,4.6L75.1,5.1L74.6,5.1L74.6,7.6L73.5,7.6L73.5,7.4L74.4,7.4L74.4,4.9L74.9,4.9L74.9,4.4z" stroke="none"/><path d="M102.1,73.5L101.9,73.5L101.9,72.6L101.4,72.6L101.4,71.6L100.9,71.6L100.9,71.1L93.6,71.1L93.6,71.6L91.9,71.6L91.9,70.1L91.4,70.1L91.4,69L91.6,69L91.6,69.9L92.1,69.9L92.1,71.4L93.4,71.4L93.4,70.9L101.1,70.9L101.1,71.4L101.6,71.4L101.6,72.4L102.1,72.4z" stroke="none"/><path d="M9.1,90L8.9,90L8.9,89.6L7.9,89.6L7.9,88.1L7.4,88.1L7.4,87.1L6.4,87.1L6.4,86.6L5.4,86.6L5.4,86.1L4.9,86.1L4.9,85.6L3.4,85.6L3.4,85.1L1.9,85.1L1.9,81.9L2.4,81.9L2.4,81.4L3.9,81.4L3.9,79.9L4.4,79.9L4.4,79.5L4.6,79.5L4.6,80.1L4.1,80.1L4.1,81.6L2.6,81.6L2.6,82.1L2.1,82.1L2.1,84.9L3.6,84.9L3.6,85.4L5.1,85.4L5.1,85.9L5.6,85.9L5.6,86.4L6.6,86.4L6.6,86.9L7.6,86.9L7.6,87.9L8.1,87.9L8.1,89.4L9.1,89.4z" stroke="none"/><path d="M3.1,102L2.9,102L2.9,100.4L3.4,100.4L3.4,99.4L3.9,99.4L3.9,98.9L4.4,98.9L4.4,98.4L6.9,98.4L6.9,97.9L8.6,97.9L8.6,98.4L11.4,98.4L11.4,97.9L11.9,97.9L11.9,97.4L13.5,97.4L13.5,97.6L12.1,97.6L12.1,98.1L11.6,98.1L11.6,98.6L8.4,98.6L8.4,98.1L7.1,98.1L7.1,98.6L4.6,98.6L4.6,99.1L4.1,99.1L4.1,99.6L3.6,99.6L3.6,100.6L3.1,100.6z" stroke="none"/><path d="M43.6,102L43.4,102L43.4,98.9L43.9,98.9L43.9,96.9L44.4,96.9L44.4,95.9L45.9,95.9L45.9,94.9L46.4,94.9L46.4,93.4L46.9,93.4L46.9,92.9L47.4,92.9L47.4,91.9L47.9,91.9L47.9,91.5L48.1,91.5L48.1,92.1L47.6,92.1L47.6,93.1L47.1,93.1L47.1,93.6L46.6,93.6L46.6,95.1L46.1,95.1L46.1,96.1L44.6,96.1L44.6,97.1L44.1,97.1L44.1,99.1L43.6,99.1z" stroke="none"/><path d="M17.9,13.5L18.1,13.5L18.1,14.4L20.4,14.4L20.4,12.6L19.9,12.6L19.9,11.6L16.9,11.6L16.9,11.1L15.4,11.1L15.4,10.6L14.9,10.6L14.9,9.1L14.4,9.1L14.4,8.6L13.9,8.6L13.9,7.6L12.4,7.6L12.4,7.1L10.9,7.1L10.9,4.6L10.5,4.6L10.5,4.4L11.1,4.4L11.1,6.9L12.6,6.9L12.6,7.4L14.1,7.4L14.1,8.4L14.6,8.4L14.6,8.9L15.1,8.9L15.1,10.4L15.6,10.4L15.6,10.9L17.1,10.9L17.1,11.4L20.1,11.4L20.1,12.4L20.6,12.4L20.6,14.6L17.9,14.6z" stroke="none"/><path d="M52.5,100.4L52.5,100.6L45.6,100.6L45.6,101.1L44.6,101.1L44.6,102.6L44.1,102.6L44.1,103.1L41.4,103.1L41.4,102.6L40.9,102.6L40.9,102.1L40.4,102.1L40.4,100.5L40.6,100.5L40.6,101.9L41.1,101.9L41.1,102.4L41.6,102.4L41.6,102.9L43.9,102.9L43.9,102.4L44.4,102.4L44.4,100.9L45.4,100.9L45.4,100.4z" stroke="none"/><path d="M2.9,36L3.1,36L3.1,46.9L3.6,46.9L3.6,47.4L5.6,47.4L5.6,47.9L6,47.9L6,48.1L5.4,48.1L5.4,47.6L3.4,47.6L3.4,47.1L2.9,47.1z" stroke="none"/><path d="M25.6,73.5L25.4,73.5L25.4,72.4L25.9,72.4L25.9,70.9L26.4,70.9L26.4,69.9L27.4,69.9L27.4,68.4L27.9,68.4L27.9,67.4L28.9,67.4L28.9,66.9L29.4,66.9L29.4,65.1L20.4,65.1L20.4,63.6L19.9,63.6L19.9,62.4L20.4,62.4L20.4,61.9L20.9,61.9L20.9,61.5L21.1,61.5L21.1,62.1L20.6,62.1L20.6,62.6L20.1,62.6L20.1,63.4L20.6,63.4L20.6,64.9L29.6,64.9L29.6,67.1L29.1,67.1L29.1,67.6L28.1,67.6L28.1,68.6L27.6,68.6L27.6,70.1L26.6,70.1L26.6,71.1L26.1,71.1L26.1,72.6L25.6,72.6z" stroke="none"/><path d="M100.4,81L100.6,81L100.6,84.4L101.1,84.4L101.1,84.9L101.6,84.9L101.6,87.1L100.6,87.1L100.6,87.6L100.1,87.6L100.1,88.6L99.6,88.6L99.6,89.1L99.1,89.1L99.1,89.6L96.6,89.6L96.6,90.1L96.1,90.1L96.1,90.6L95.6,90.6L95.6,91.1L95.1,91.1L95.1,91.9L95.6,91.9L95.6,92.9L96,92.9L96,93.1L95.4,93.1L95.4,92.1L94.9,92.1L94.9,90.9L95.4,90.9L95.4,90.4L95.9,90.4L95.9,89.9L96.4,89.9L96.4,89.4L98.9,89.4L98.9,88.9L99.4,88.9L99.4,88.4L99.9,88.4L99.9,87.4L100.4,87.4L100.4,86.9L101.4,86.9L101.4,85.1L100.9,85.1L100.9,84.6L100.4,84.6z" stroke="none"/><path d="M76.4,7.5L76.6,7.5L76.6,12.1L74.1,12.1L74.1,15.9L81.6,15.9L81.6,16.4L82.1,16.4L82.1,17.4L83.6,17.4L83.6,17.9L84,17.9L84,18.1L83.4,18.1L83.4,17.6L81.9,17.6L81.9,16.6L81.4,16.6L81.4,16.1L73.9,16.1L73.9,11.9L76.4,11.9z" stroke="none"/><path d="M73.6,49.5L73.4,49.5L73.4,45.6L71.9,45.6L71.9,44.6L71.4,44.6L71.4,42.6L69.4,42.6L69.4,41.6L68.9,41.6L68.9,41.1L67.9,41.1L67.9,40.6L67.4,40.6L67.4,40.1L66.9,40.1L66.9,39.1L66,39.1L66,38.9L67.1,38.9L67.1,39.9L67.6,39.9L67.6,40.4L68.1,40.4L68.1,40.9L69.1,40.9L69.1,41.4L69.6,41.4L69.6,42.4L71.6,42.4L71.6,44.4L72.1,44.4L72.1,45.4L73.6,45.4z" stroke="none"/><path d="M91.5,100.6L91.5,100.4L92.1,100.4L92.1,101.4L92.6,101.4L92.6,101.9L93.1,101.9L93.1,102.4L95.6,102.4L95.6,102.9L100.9,102.9L100.9,101.4L101.9,101.4L101.9,100.4L102.4,100.4L102.4,99.9L102.9,99.9L102.9,94.1L102.4,94.1L102.4,93.1L102,93.1L102,92.9L102.6,92.9L102.6,93.9L103.1,93.9L103.1,100.1L102.6,100.1L102.6,100.6L102.1,100.6L102.1,101.6L101.1,101.6L101.1,103.1L95.4,103.1L95.4,102.6L92.9,102.6L92.9,102.1L92.4,102.1L92.4,101.6L91.9,101.6L91.9,100.6z" stroke="none"/><path d="M44.9,49.5L45.1,49.5L45.1,51.6L44.1,51.6L44.1,52.1L40.1,52.1L40.1,52.6L39.6,52.6L39.6,53.1L37.6,53.1L37.6,54.1L35.6,54.1L35.6,55.1L34.6,55.1L34.6,55.6L33,55.6L33,55.4L34.4,55.4L34.4,54.9L35.4,54.9L35.4,53.9L37.4,53.9L37.4,52.9L39.4,52.9L39.4,52.4L39.9,52.4L39.9,51.9L43.9,51.9L43.9,51.4L44.9,51.4z" stroke="none"/><path d="M88.6,102L88.4,102L88.4,92.4L88.9,92.4L88.9,91.9L91.4,91.9L91.4,90.4L93.9,90.4L93.9,89.9L94.5,89.9L94.5,90.1L94.1,90.1L94.1,90.6L91.6,90.6L91.6,92.1L89.1,92.1L89.1,92.6L88.6,92.6z" stroke="none"/><path d="M46.5,43.6L46.5,43.4L53.4,43.4L53.4,42.9L56.9,42.9L56.9,42.4L58.9,42.4L58.9,41.9L60,41.9L60,42.1L59.1,42.1L59.1,42.6L57.1,42.6L57.1,43.1L53.6,43.1L53.6,43.6z" stroke="none"/><path d="M4.5,25.6L4.5,25.4L4.9,25.4L4.9,24.9L5.4,24.9L5.4,24.4L5.9,24.4L5.9,23.4L6.4,23.4L6.4,22.9L6.9,22.9L6.9,17.6L6.4,17.6L6.4,14.1L5.9,14.1L5.9,12.6L3.4,12.6L3.4,12.1L3,12.1L3,11.9L3.6,11.9L3.6,12.4L6.1,12.4L6.1,13.9L6.6,13.9L6.6,17.4L7.1,17.4L7.1,23.1L6.6,23.1L6.6,23.6L6.1,23.6L6.1,24.6L5.6,24.6L5.6,25.1L5.1,25.1L5.1,25.6z" stroke="none"/><path d="M25.5,83.9L25.5,84.1L21.6,84.1L21.6,85.1L19.6,85.1L19.6,85.6L17.6,85.6L17.6,87.1L14.6,87.1L14.6,87.6L14.1,87.6L14.1,90.1L10.9,90.1L10.9,89.6L10.4,89.6L10.4,83.4L10.9,83.4L10.9,81.4L11.4,81.4L11.4,80.9L12,80.9L12,81.1L11.6,81.1L11.6,81.6L11.1,81.6L11.1,83.6L10.6,83.6L10.6,89.4L11.1,89.4L11.1,89.9L13.9,89.9L13.9,87.4L14.4,87.4L14.4,86.9L17.4,86.9L17.4,85.4L19.4,85.4L19.4,84.9L21.4,84.9L21.4,83.9z" stroke="none"/><path d="M21,32.9L21,33.1L14.6,33.1L14.6,34.1L11.4,34.1L11.4,33.6L10.9,33.6L10.9,24.1L10.5,24.1L10.5,23.9L11.1,23.9L11.1,33.4L11.6,33.4L11.6,33.9L14.4,33.9L14.4,32.9z" stroke="none"/><path d="M53.9,81L54.1,81L54.1,84.4L54.6,84.4L54.6,84.9L55.1,84.9L55.1,90.9L55.6,90.9L55.6,91.9L56.6,91.9L56.6,94.4L57,94.4L57,94.6L56.4,94.6L56.4,92.1L55.4,92.1L55.4,91.1L54.9,91.1L54.9,85.1L54.4,85.1L54.4,84.6L53.9,84.6z" stroke="none"/><path d="M70.6,72L70.4,72L70.4,71.4L70.9,71.4L70.9,70.9L71.4,70.9L71.4,59.6L68.9,59.6L68.9,59.1L67.4,59.1L67.4,58.5L67.6,58.5L67.6,58.9L69.1,58.9L69.1,59.4L71.6,59.4L71.6,71.1L71.1,71.1L71.1,71.6L70.6,71.6z" stroke="none"/><path d="M49.4,49.5L49.6,49.5L49.6,51.9L50.1,51.9L50.1,53.4L50.6,53.4L50.6,55.1L50.1,55.1L50.1,59.4L50.6,59.4L50.6,59.9L51.1,59.9L51.1,60.4L54.6,60.4L54.6,61.4L57,61.4L57,61.6L54.4,61.6L54.4,60.6L50.9,60.6L50.9,60.1L50.4,60.1L50.4,59.6L49.9,59.6L49.9,54.9L50.4,54.9L50.4,53.6L49.9,53.6L49.9,52.1L49.4,52.1z" stroke="none"/><path d="M42,67.4L42,67.6L41.4,67.6L41.4,67.1L40.9,67.1L40.9,66.6L40.4,66.6L40.4,66.1L39.9,66.1L39.9,64.1L37.4,64.1L37.4,63.1L34.9,63.1L34.9,62.6L33.9,62.6L33.9,61.6L33.4,61.6L33.4,61.1L31.9,61.1L31.9,60.6L30.4,60.6L30.4,60.1L30,60.1L30,59.9L30.6,59.9L30.6,60.4L32.1,60.4L32.1,60.9L33.6,60.9L33.6,61.4L34.1,61.4L34.1,62.4L35.1,62.4L35.1,62.9L37.6,62.9L37.6,63.9L40.1,63.9L40.1,65.9L40.6,65.9L40.6,66.4L41.1,66.4L41.1,66.9L41.6,66.9L41.6,67.4z" stroke="none"/><path d="M100.6,21L100.4,21L100.4,18.9L100.9,18.9L100.9,18.4L101.4,18.4L101.4,7.1L100.9,7.1L100.9,6.6L100.4,6.6L100.4,6.1L99.4,6.1L99.4,5.6L98.9,5.6L98.9,5.1L97.9,5.1L97.9,4.6L97.4,4.6L97.4,4.1L96.9,4.1L96.9,3.6L95.1,3.6L95.1,4.1L93.4,4.1L93.4,3.1L88.6,3.1L88.6,13.5L88.4,13.5L88.4,2.9L93.6,2.9L93.6,3.9L94.9,3.9L94.9,3.4L97.1,3.4L97.1,3.9L97.6,3.9L97.6,4.4L98.1,4.4L98.1,4.9L99.1,4.9L99.1,5.4L99.6,5.4L99.6,5.9L100.6,5.9L100.6,6.4L101.1,6.4L101.1,6.9L101.6,6.9L101.6,18.6L101.1,18.6L101.1,19.1L100.6,19.1z" stroke="none"/><path d="M101.9,90L102.1,90L102.1,90.9L102.6,90.9L102.6,91.4L103.1,91.4L103.1,93.4L103.6,93.4L103.6,102.6L102.6,102.6L102.6,103.6L93.4,103.6L93.4,103.1L91.9,103.1L91.9,102.6L91.4,102.6L91.4,102.1L90.9,102.1L90.9,101.1L90.4,101.1L90.4,98.1L89.9,98.1L89.9,97.5L90.1,97.5L90.1,97.9L90.6,97.9L90.6,100.9L91.1,100.9L91.1,101.9L91.6,101.9L91.6,102.4L92.1,102.4L92.1,102.9L93.6,102.9L93.6,103.4L102.4,103.4L102.4,102.4L103.4,102.4L103.4,93.6L102.9,93.6L102.9,91.6L102.4,91.6L102.4,91.1L101.9,91.1z" stroke="none"/><path d="M10.5,34.6L10.5,34.4L21.9,34.4L21.9,30.9L22.4,30.9L22.4,30.4L23.9,30.4L23.9,30L24.1,30L24.1,30.6L22.6,30.6L22.6,31.1L22.1,31.1L22.1,34.6z" stroke="none"/><path d="M58.6,73.5L58.4,73.5L58.4,67.4L58.9,67.4L58.9,66.4L59.4,66.4L59.4,60.1L58.4,60.1L58.4,58.6L57.9,58.6L57.9,58.1L57.4,58.1L57.4,57.6L56.9,57.6L56.9,57.1L55.4,57.1L55.4,56.1L54.9,56.1L54.9,55.1L54.4,55.1L54.4,54.6L53.4,54.6L53.4,52.6L52.9,52.6L52.9,51.6L52.4,51.6L52.4,51.1L51.4,51.1L51.4,50.1L50.9,50.1L50.9,49.1L50.4,49.1L50.4,48.6L49.1,48.6L49.1,49.1L48.6,49.1L48.6,72.1L48.1,72.1L48.1,72.6L47.6,72.6L47.6,73.6L46.6,73.6L46.6,74.6L46.1,74.6L46.1,75.1L45.1,75.1L45.1,78L44.9,78L44.9,74.9L45.9,74.9L45.9,74.4L46.4,74.4L46.4,73.4L47.4,73.4L47.4,72.4L47.9,72.4L47.9,71.9L48.4,71.9L48.4,48.9L48.9,48.9L48.9,48.4L50.6,48.4L50.6,48.9L51.1,48.9L51.1,49.9L51.6,49.9L51.6,50.9L52.6,50.9L52.6,51.4L53.1,51.4L53.1,52.4L53.6,52.4L53.6,54.4L54.6,54.4L54.6,54.9L55.1,54.9L55.1,55.9L55.6,55.9L55.6,56.9L57.1,56.9L57.1,57.4L57.6,57.4L57.6,57.9L58.1,57.9L58.1,58.4L58.6,58.4L58.6,59.9L59.6,59.9L59.6,66.6L59.1,66.6L59.1,67.6L58.6,67.6z" stroke="none"/><path d="M29.9,54L30.1,54L30.1,58.6L29.6,58.6L29.6,59.1L29.1,59.1L29.1,63.4L30.6,63.4L30.6,63.9L31.6,63.9L31.6,64.9L32.1,64.9L32.1,65.4L32.6,65.4L32.6,65.9L34.6,65.9L34.6,66.4L35.1,66.4L35.1,67.4L36,67.4L36,67.6L34.9,67.6L34.9,66.6L34.4,66.6L34.4,66.1L32.4,66.1L32.4,65.6L31.9,65.6L31.9,65.1L31.4,65.1L31.4,64.1L30.4,64.1L30.4,63.6L28.9,63.6L28.9,58.9L29.4,58.9L29.4,58.4L29.9,58.4z" stroke="none"/><path d="M45,97.6L45,97.4L45.9,97.4L45.9,96.4L46.4,96.4L46.4,95.4L46.9,95.4L46.9,94.9L47.9,94.9L47.9,92.4L48.4,92.4L48.4,91.9L48.9,91.9L48.9,90.6L47.1,90.6L47.1,92.6L46.6,92.6L46.6,93.1L46.1,93.1L46.1,94.1L44.1,94.1L44.1,94.6L36.4,94.6L36.4,93.6L35.9,93.6L35.9,92.6L35.4,92.6L35.4,92.1L34.9,92.1L34.9,88.1L34.4,88.1L34.4,87L34.6,87L34.6,87.9L35.1,87.9L35.1,91.9L35.6,91.9L35.6,92.4L36.1,92.4L36.1,93.4L36.6,93.4L36.6,94.4L43.9,94.4L43.9,93.9L45.9,93.9L45.9,92.9L46.4,92.9L46.4,92.4L46.9,92.4L46.9,90.4L49.1,90.4L49.1,92.1L48.6,92.1L48.6,92.6L48.1,92.6L48.1,95.1L47.1,95.1L47.1,95.6L46.6,95.6L46.6,96.6L46.1,96.6L46.1,97.6z" stroke="none"/><path d="M77.9,55.5L78.1,55.5L78.1,64.9L78.6,64.9L78.6,65.4L79.1,65.4L79.1,69.1L78.1,69.1L78.1,70.1L77.1,70.1L77.1,70.6L76.5,70.6L76.5,70.4L76.9,70.4L76.9,69.9L77.9,69.9L77.9,68.9L78.9,68.9L78.9,65.6L78.4,65.6L78.4,65.1L77.9,65.1z" stroke="none"/><path d="M36,4.4L36,4.6L25.9,4.6L25.9,3.6L25.4,3.6L25.4,3.1L23.9,3.1L23.9,2.1L22.1,2.1L22.1,2.6L21.6,2.6L21.6,5.1L21.1,5.1L21.1,7.5L20.9,7.5L20.9,4.9L21.4,4.9L21.4,2.4L21.9,2.4L21.9,1.9L24.1,1.9L24.1,2.9L25.6,2.9L25.6,3.4L26.1,3.4L26.1,4.4z" stroke="none"/><path d="M61.4,3L61.6,3L61.6,10.4L62.1,10.4L62.1,11.9L63.6,11.9L63.6,12.9L65.1,12.9L65.1,14.4L66.6,14.4L66.6,15.4L67.1,15.4L67.1,15.9L68.6,15.9L68.6,16.4L69,16.4L69,16.6L68.4,16.6L68.4,16.1L66.9,16.1L66.9,15.6L66.4,15.6L66.4,14.6L64.9,14.6L64.9,13.1L63.4,13.1L63.4,12.1L61.9,12.1L61.9,10.6L61.4,10.6z" stroke="none"/><path d="M30.1,67.5L29.9,67.5L29.9,64.1L28.4,64.1L28.4,61.1L27.4,61.1L27.4,60.6L26.9,60.6L26.9,60.1L24.4,60.1L24.4,56.6L23.4,56.6L23.4,54.6L22.9,54.6L22.9,54.1L22.5,54.1L22.5,53.9L23.1,53.9L23.1,54.4L23.6,54.4L23.6,56.4L24.6,56.4L24.6,59.9L27.1,59.9L27.1,60.4L27.6,60.4L27.6,60.9L28.6,60.9L28.6,63.9L30.1,63.9z" stroke="none"/><path d="M63,101.9L63,102.1L54.9,102.1L54.9,101.1L54.4,101.1L54.4,99.1L51.9,99.1L51.9,98.1L51.4,98.1L51.4,97.1L50.9,97.1L50.9,96.1L50.4,96.1L50.4,95.1L49.4,95.1L49.4,94.5L49.6,94.5L49.6,94.9L50.6,94.9L50.6,95.9L51.1,95.9L51.1,96.9L51.6,96.9L51.6,97.9L52.1,97.9L52.1,98.9L54.6,98.9L54.6,100.9L55.1,100.9L55.1,101.9z" stroke="none"/><path d="M75.1,69L74.9,69L74.9,62.6L74.4,62.6L74.4,61.1L73.9,61.1L73.9,60.6L73.4,60.6L73.4,59.6L72.9,59.6L72.9,58.6L71.9,58.6L71.9,58.1L68.9,58.1L68.9,57.6L64.1,57.6L64.1,58.1L63.1,58.1L63.1,58.5L62.9,58.5L62.9,57.9L63.9,57.9L63.9,57.4L69.1,57.4L69.1,57.9L72.1,57.9L72.1,58.4L73.1,58.4L73.1,59.4L73.6,59.4L73.6,60.4L74.1,60.4L74.1,60.9L74.6,60.9L74.6,62.4L75.1,62.4z" stroke="none"/><path d="M79.4,85.5L79.6,85.5L79.6,89.6L74.6,89.6L74.6,90.6L73.6,90.6L73.6,91.1L73.1,91.1L73.1,91.6L72.6,91.6L72.6,93.1L72.1,93.1L72.1,94.1L71.1,94.1L71.1,94.6L70.6,94.6L70.6,96.1L70.1,96.1L70.1,97.6L69,97.6L69,97.4L69.9,97.4L69.9,95.9L70.4,95.9L70.4,94.4L70.9,94.4L70.9,93.9L71.9,93.9L71.9,92.9L72.4,92.9L72.4,91.4L72.9,91.4L72.9,90.9L73.4,90.9L73.4,90.4L74.4,90.4L74.4,89.4L79.4,89.4z" stroke="none"/><path d="M84,50.9L84,51.1L83.6,51.1L83.6,51.6L83.1,51.6L83.1,52.1L79.9,52.1L79.9,46.9L90.4,46.9L90.4,46.4L91.4,46.4L91.4,45.4L93.9,45.4L93.9,44.9L94.9,44.9L94.9,43.9L95.9,43.9L95.9,42.4L96.9,42.4L96.9,41.9L97.5,41.9L97.5,42.1L97.1,42.1L97.1,42.6L96.1,42.6L96.1,44.1L95.1,44.1L95.1,45.1L94.1,45.1L94.1,45.6L91.6,45.6L91.6,46.6L90.6,46.6L90.6,47.1L80.1,47.1L80.1,51.9L82.9,51.9L82.9,51.4L83.4,51.4L83.4,50.9z" stroke="none"/><path d="M7.5,16.6L7.5,16.4L13.1,16.4L13.1,16.9L13.6,16.9L13.6,17.4L14.1,17.4L14.1,18.4L15.1,18.4L15.1,18.9L15.6,18.9L15.6,19.4L16.1,19.4L16.1,19.9L16.6,19.9L16.6,20.9L18.6,20.9L18.6,21.4L20.1,21.4L20.1,22.4L20.6,22.4L20.6,22.9L21.6,22.9L21.6,23.4L24.4,23.4L24.4,22.9L24.9,22.9L24.9,19.6L23.9,19.6L23.9,18L24.1,18L24.1,19.4L25.1,19.4L25.1,23.1L24.6,23.1L24.6,23.6L21.4,23.6L21.4,23.1L20.4,23.1L20.4,22.6L19.9,22.6L19.9,21.6L18.4,21.6L18.4,21.1L16.4,21.1L16.4,20.1L15.9,20.1L15.9,19.6L15.4,19.6L15.4,19.1L14.9,19.1L14.9,18.6L13.9,18.6L13.9,17.6L13.4,17.6L13.4,17.1L12.9,17.1L12.9,16.6z" stroke="none"/><path d="M7.6,36L7.4,36L7.4,35.6L6.9,35.6L6.9,35.1L6.4,35.1L6.4,34.6L5.9,34.6L5.9,34.1L4.9,34.1L4.9,33.6L4.4,33.6L4.4,33.1L3.9,33.1L3.9,32.1L2.9,32.1L2.9,31.6L2.4,31.6L2.4,30.6L1.9,30.6L1.9,30.1L1.4,30.1L1.4,22.9L1.9,22.9L1.9,21.9L2.4,21.9L2.4,21.4L3.4,21.4L3.4,20.9L3.9,20.9L3.9,19.9L5.9,19.9L5.9,19.5L6.1,19.5L6.1,20.1L4.1,20.1L4.1,21.1L3.6,21.1L3.6,21.6L2.6,21.6L2.6,22.1L2.1,22.1L2.1,23.1L1.6,23.1L1.6,29.9L2.1,29.9L2.1,30.4L2.6,30.4L2.6,31.4L3.1,31.4L3.1,31.9L4.1,31.9L4.1,32.9L4.6,32.9L4.6,33.4L5.1,33.4L5.1,33.9L6.1,33.9L6.1,34.4L6.6,34.4L6.6,34.9L7.1,34.9L7.1,35.4L7.6,35.4z" stroke="none"/><path d="M85.5,77.9L85.5,78.1L77.9,78.1L77.9,77.6L76.9,77.6L76.9,77.1L70.9,77.1L70.9,76.6L69,76.6L69,76.4L71.1,76.4L71.1,76.9L77.1,76.9L77.1,77.4L78.1,77.4L78.1,77.9z" stroke="none"/><path d="M61.4,91.5L61.6,91.5L61.6,96.1L61.1,96.1L61.1,96.6L60.6,96.6L60.6,97.6L60.1,97.6L60.1,98.1L59.1,98.1L59.1,99.4L59.6,99.4L59.6,99.9L60.1,99.9L60.1,100.4L60.6,100.4L60.6,100.9L61.1,100.9L61.1,101.4L61.9,101.4L61.9,100.9L63.6,100.9L63.6,101.4L64.1,101.4L64.1,103.1L55.9,103.1L55.9,102.6L54.4,102.6L54.4,102.1L53.9,102.1L53.9,99.6L48.9,99.6L48.9,99.1L48.4,99.1L48.4,92.9L49.4,92.9L49.4,90.1L46.6,90.1L46.6,91.1L46.1,91.1L46.1,92.1L45.6,92.1L45.6,93.1L45,93.1L45,92.9L45.4,92.9L45.4,91.9L45.9,91.9L45.9,90.9L46.4,90.9L46.4,89.9L49.6,89.9L49.6,93.1L48.6,93.1L48.6,98.9L49.1,98.9L49.1,99.4L54.1,99.4L54.1,101.9L54.6,101.9L54.6,102.4L56.1,102.4L56.1,102.9L63.9,102.9L63.9,101.6L63.4,101.6L63.4,101.1L62.1,101.1L62.1,101.6L60.9,101.6L60.9,101.1L60.4,101.1L60.4,100.6L59.9,100.6L59.9,100.1L59.4,100.1L59.4,99.6L58.9,99.6L58.9,97.9L59.9,97.9L59.9,97.4L60.4,97.4L60.4,96.4L60.9,96.4L60.9,95.9L61.4,95.9z" stroke="none"/><path d="M76.4,78L76.6,78L76.6,79.9L77.6,79.9L77.6,81.4L78.6,81.4L78.6,81.9L82.1,81.9L82.1,82.4L82.6,82.4L82.6,82.9L83.6,82.9L83.6,83.9L84.1,83.9L84.1,85.4L84.6,85.4L84.6,86.4L85.1,86.4L85.1,92.1L84.1,92.1L84.1,93L83.9,93L83.9,91.9L84.9,91.9L84.9,86.6L84.4,86.6L84.4,85.6L83.9,85.6L83.9,84.1L83.4,84.1L83.4,83.1L82.4,83.1L82.4,82.6L81.9,82.6L81.9,82.1L78.4,82.1L78.4,81.6L77.4,81.6L77.4,80.1L76.4,80.1z" stroke="none"/><path d="M63,55.4L63,55.6L60.4,55.6L60.4,55.1L59.9,55.1L59.9,53.1L56.4,53.1L56.4,51.6L55.9,51.6L55.9,50.6L53.9,50.6L53.9,49.1L53.4,49.1L53.4,48.6L51.4,48.6L51.4,48.1L49.4,48.1L49.4,47.6L48.4,47.6L48.4,47.1L47.6,47.1L47.6,47.6L47.1,47.6L47.1,59.6L46.6,59.6L46.6,60L46.4,60L46.4,59.4L46.9,59.4L46.9,47.4L47.4,47.4L47.4,46.9L48.6,46.9L48.6,47.4L49.6,47.4L49.6,47.9L51.6,47.9L51.6,48.4L53.6,48.4L53.6,48.9L54.1,48.9L54.1,50.4L56.1,50.4L56.1,51.4L56.6,51.4L56.6,52.9L60.1,52.9L60.1,54.9L60.6,54.9L60.6,55.4z" stroke="none"/><path d="M101.9,49.5L102.1,49.5L102.1,63.6L100.6,63.6L100.6,64.1L100.1,64.1L100.1,64.6L99.1,64.6L99.1,65.1L98.1,65.1L98.1,65.6L96.6,65.6L96.6,66.1L96,66.1L96,65.9L96.4,65.9L96.4,65.4L97.9,65.4L97.9,64.9L98.9,64.9L98.9,64.4L99.9,64.4L99.9,63.9L100.4,63.9L100.4,63.4L101.9,63.4z" stroke="none"/><path d="M74.9,43.5L75.1,43.5L75.1,43.9L76.1,43.9L76.1,47.6L75.6,47.6L75.6,48.6L75.1,48.6L75.1,49.1L74.6,49.1L74.6,50.6L68.9,50.6L68.9,50.1L68.4,50.1L68.4,49.6L67.9,49.6L67.9,48.6L67.4,48.6L67.4,47.6L65.4,47.6L65.4,47.1L64.9,47.1L64.9,45.1L63.4,45.1L63.4,44.6L62.9,44.6L62.9,44.1L62.4,44.1L62.4,42.6L61.9,42.6L61.9,41.6L60.4,41.6L60.4,41.1L55.6,41.1L55.6,41.6L54.1,41.6L54.1,42.6L53.1,42.6L53.1,43.1L51.9,43.1L51.9,42.6L51.4,42.6L51.4,38.9L52.4,38.9L52.4,37.9L52.9,37.9L52.9,37.4L54.4,37.4L54.4,36.9L54.9,36.9L54.9,36.4L55.9,36.4L55.9,34.9L56.4,34.9L56.4,34.4L57.4,34.4L57.4,33.4L58.4,33.4L58.4,32.9L59.4,32.9L59.4,32.4L59.9,32.4L59.9,31.9L60.9,31.9L60.9,31.4L61.5,31.4L61.5,31.6L61.1,31.6L61.1,32.1L60.1,32.1L60.1,32.6L59.6,32.6L59.6,33.1L58.6,33.1L58.6,33.6L57.6,33.6L57.6,34.6L56.6,34.6L56.6,35.1L56.1,35.1L56.1,36.6L55.1,36.6L55.1,37.1L54.6,37.1L54.6,37.6L53.1,37.6L53.1,38.1L52.6,38.1L52.6,39.1L51.6,39.1L51.6,42.4L52.1,42.4L52.1,42.9L52.9,42.9L52.9,42.4L53.9,42.4L53.9,41.4L55.4,41.4L55.4,40.9L60.6,40.9L60.6,41.4L62.1,41.4L62.1,42.4L62.6,42.4L62.6,43.9L63.1,43.9L63.1,44.4L63.6,44.4L63.6,44.9L65.1,44.9L65.1,46.9L65.6,46.9L65.6,47.4L67.6,47.4L67.6,48.4L68.1,48.4L68.1,49.4L68.6,49.4L68.6,49.9L69.1,49.9L69.1,50.4L74.4,50.4L74.4,48.9L74.9,48.9L74.9,48.4L75.4,48.4L75.4,47.4L75.9,47.4L75.9,44.1L74.9,44.1z" stroke="none"/><path d="M18,102.1L18,101.9L20.1,101.9L20.1,102.9L21.9,102.9L21.9,92.1L21.4,92.1L21.4,90.4L21.9,90.4L21.9,89.9L22.4,89.9L22.4,89.4L24.9,89.4L24.9,88.9L29.4,88.9L29.4,88.4L30,88.4L30,88.6L29.6,88.6L29.6,89.1L25.1,89.1L25.1,89.6L22.6,89.6L22.6,90.1L22.1,90.1L22.1,90.6L21.6,90.6L21.6,91.9L22.1,91.9L22.1,103.1L19.9,103.1L19.9,102.1z" stroke="none"/><path d="M66,49.4L66,49.6L55.9,49.6L55.9,48.1L51.9,48.1L51.9,47.1L48.9,47.1L48.9,46.6L47.1,46.6L47.1,47.1L46.6,47.1L46.6,58.6L45.6,58.6L45.6,60.9L47.4,60.9L47.4,48.4L47.9,48.4L47.9,48L48.1,48L48.1,48.6L47.6,48.6L47.6,61.1L45.4,61.1L45.4,58.4L46.4,58.4L46.4,46.9L46.9,46.9L46.9,46.4L49.1,46.4L49.1,46.9L52.1,46.9L52.1,47.9L56.1,47.9L56.1,49.4z" stroke="none"/><path d="M28.6,28.5L28.4,28.5L28.4,23.4L29.4,23.4L29.4,20.1L27.1,20.1L27.1,20.6L26.6,20.6L26.6,21.6L26.1,21.6L26.1,24.1L19.9,24.1L19.9,23.6L18.9,23.6L18.9,23.1L16.4,23.1L16.4,22.6L12.4,22.6L12.4,21.6L11.9,21.6L11.9,21L12.1,21L12.1,21.4L12.6,21.4L12.6,22.4L16.6,22.4L16.6,22.9L19.1,22.9L19.1,23.4L20.1,23.4L20.1,23.9L25.9,23.9L25.9,21.4L26.4,21.4L26.4,20.4L26.9,20.4L26.9,19.9L29.6,19.9L29.6,23.6L28.6,23.6z" stroke="none"/><path d="M49.4,54L49.6,54L49.6,75.1L48.1,75.1L48.1,75.6L47.6,75.6L47.6,77.1L46.6,77.1L46.6,79.1L43.9,79.1L43.9,76.4L44.4,76.4L44.4,70.4L45.4,70.4L45.4,69.9L45.9,69.9L45.9,63.1L45.4,63.1L45.4,62.1L44.9,62.1L44.9,52.4L45.4,52.4L45.4,49.9L45.9,49.9L45.9,44.6L45.4,44.6L45.4,44.1L36.1,44.1L36.1,44.6L35.1,44.6L35.1,45.6L34.6,45.6L34.6,46.1L33.6,46.1L33.6,48.1L33.1,48.1L33.1,48.6L32.6,48.6L32.6,49.6L32.1,49.6L32.1,50.6L31.6,50.6L31.6,51L31.4,51L31.4,50.4L31.9,50.4L31.9,49.4L32.4,49.4L32.4,48.4L32.9,48.4L32.9,47.9L33.4,47.9L33.4,45.9L34.4,45.9L34.4,45.4L34.9,45.4L34.9,44.4L35.9,44.4L35.9,43.9L45.6,43.9L45.6,44.4L46.1,44.4L46.1,50.1L45.6,50.1L45.6,52.6L45.1,52.6L45.1,61.9L45.6,61.9L45.6,62.9L46.1,62.9L46.1,70.1L45.6,70.1L45.6,70.6L44.6,70.6L44.6,76.6L44.1,76.6L44.1,78.9L46.4,78.9L46.4,76.9L47.4,76.9L47.4,75.4L47.9,75.4L47.9,74.9L49.4,74.9z" stroke="none"/><path d="M4.4,87L4.6,87L4.6,88.6L4.1,88.6L4.1,89.1L2.6,89.1L2.6,89.6L2.1,89.6L2.1,102.9L14.4,102.9L14.4,101.9L15,101.9L15,102.1L14.6,102.1L14.6,103.1L1.9,103.1L1.9,89.4L2.4,89.4L2.4,88.9L3.9,88.9L3.9,88.4L4.4,88.4z" stroke="none"/><path d="M82.5,58.4L82.5,58.6L80.4,58.6L80.4,58.1L79.9,58.1L79.9,55.1L78.4,55.1L78.4,54.6L77.6,54.6L77.6,55.1L77.1,55.1L77.1,61.1L76.6,61.1L76.6,62.1L76.1,62.1L76.1,62.6L75.6,62.6L75.6,68.4L76.1,68.4L76.1,69.6L75.6,69.6L75.6,70.1L72.6,70.1L72.6,71.6L71.6,71.6L71.6,73.1L71.1,73.1L71.1,73.9L71.6,73.9L71.6,74.4L73.1,74.4L73.1,74.9L73.6,74.9L73.6,75.4L80.1,75.4L80.1,75.9L86.1,75.9L86.1,76.4L88.5,76.4L88.5,76.6L85.9,76.6L85.9,76.1L79.9,76.1L79.9,75.6L73.4,75.6L73.4,75.1L72.9,75.1L72.9,74.6L71.4,74.6L71.4,74.1L70.9,74.1L70.9,72.9L71.4,72.9L71.4,71.4L72.4,71.4L72.4,69.9L75.4,69.9L75.4,69.4L75.9,69.4L75.9,68.6L75.4,68.6L75.4,62.4L75.9,62.4L75.9,61.9L76.4,61.9L76.4,60.9L76.9,60.9L76.9,54.9L77.4,54.9L77.4,54.4L78.6,54.4L78.6,54.9L80.1,54.9L80.1,57.9L80.6,57.9L80.6,58.4z" stroke="none"/><path d="M40.6,9L40.4,9L40.4,2.4L43.4,2.4L43.4,1.9L43.9,1.9L43.9,1.4L56.6,1.4L56.6,1.9L58.6,1.9L58.6,3L58.4,3L58.4,2.1L56.4,2.1L56.4,1.6L44.1,1.6L44.1,2.1L43.6,2.1L43.6,2.6L40.6,2.6z" stroke="none"/><path d="M28.5,86.9L28.5,87.1L27.6,87.1L27.6,87.6L26.1,87.6L26.1,88.1L25.6,88.1L25.6,88.6L24.6,88.6L24.6,89.1L20.6,89.1L20.6,89.6L16.6,89.6L16.6,90.1L14.6,90.1L14.6,90.6L10.4,90.6L10.4,90.1L9.9,90.1L9.9,81.4L10.4,81.4L10.4,81L10.6,81L10.6,81.6L10.1,81.6L10.1,89.9L10.6,89.9L10.6,90.4L14.4,90.4L14.4,89.9L16.4,89.9L16.4,89.4L20.4,89.4L20.4,88.9L24.4,88.9L24.4,88.4L25.4,88.4L25.4,87.9L25.9,87.9L25.9,87.4L27.4,87.4L27.4,86.9z" stroke="none"/><path d="M66,3.1L66,2.9L72.1,2.9L72.1,3.4L73.1,3.4L73.1,3.9L82.4,3.9L82.4,3.4L84.6,3.4L84.6,3.9L85.1,3.9L85.1,7.1L84.6,7.1L84.6,8.1L84.1,8.1L84.1,9L83.9,9L83.9,7.9L84.4,7.9L84.4,6.9L84.9,6.9L84.9,4.1L84.4,4.1L84.4,3.6L82.6,3.6L82.6,4.1L72.9,4.1L72.9,3.6L71.9,3.6L71.9,3.1z" stroke="none"/><path d="M76.4,48L76.6,48L76.6,49.1L76.1,49.1L76.1,49.6L75.6,49.6L75.6,50.6L75.1,50.6L75.1,51.6L73.6,51.6L73.6,52.1L71.6,52.1L71.6,52.6L70.6,52.6L70.6,53.1L68.1,53.1L68.1,53.6L65.6,53.6L65.6,55.6L65.1,55.6L65.1,56.1L64.1,56.1L64.1,56.6L63.6,56.6L63.6,57.1L62.6,57.1L62.6,58.1L61.6,58.1L61.6,60L61.4,60L61.4,57.9L62.4,57.9L62.4,56.9L63.4,56.9L63.4,56.4L63.9,56.4L63.9,55.9L64.9,55.9L64.9,55.4L65.4,55.4L65.4,53.4L67.9,53.4L67.9,52.9L70.4,52.9L70.4,52.4L71.4,52.4L71.4,51.9L73.4,51.9L73.4,51.4L74.9,51.4L74.9,50.4L75.4,50.4L75.4,49.4L75.9,49.4L75.9,48.9L76.4,48.9z" stroke="none"/><path d="M39.1,27L38.9,27L38.9,22.1L38.4,22.1L38.4,21.6L37.9,21.6L37.9,20.6L37.4,20.6L37.4,20.1L36.9,20.1L36.9,19.6L36.4,19.6L36.4,17.6L35.9,17.6L35.9,17.1L35.4,17.1L35.4,16.1L34.9,16.1L34.9,15.6L26.6,15.6L26.6,16.6L26.1,16.6L26.1,17.1L23.1,17.1L23.1,18.6L22.6,18.6L22.6,19.6L21,19.6L21,19.4L22.4,19.4L22.4,18.4L22.9,18.4L22.9,16.9L25.9,16.9L25.9,16.4L26.4,16.4L26.4,15.4L35.1,15.4L35.1,15.9L35.6,15.9L35.6,16.9L36.1,16.9L36.1,17.4L36.6,17.4L36.6,19.4L37.1,19.4L37.1,19.9L37.6,19.9L37.6,20.4L38.1,20.4L38.1,21.4L38.6,21.4L38.6,21.9L39.1,21.9z" stroke="none"/><path d="M94.6,3L94.4,3L94.4,2.6L75.1,2.6L75.1,3L74.9,3L74.9,2.4L94.6,2.4z" stroke="none"/><path d="M54,7.6L54,7.4L54.6,7.4L54.6,7.9L55.1,7.9L55.1,8.4L56.4,8.4L56.4,7.4L56.9,7.4L56.9,6.9L58.9,6.9L58.9,6.4L60.6,6.4L60.6,6.9L61.1,6.9L61.1,10.9L61.6,10.9L61.6,12.4L62.6,12.4L62.6,12.9L63.1,12.9L63.1,13.4L63.6,13.4L63.6,13.9L64.1,13.9L64.1,14.9L64.6,14.9L64.6,18.6L64.1,18.6L64.1,19.1L63.6,19.1L63.6,23.4L64.6,23.4L64.6,24L64.4,24L64.4,23.6L63.4,23.6L63.4,18.9L63.9,18.9L63.9,18.4L64.4,18.4L64.4,15.1L63.9,15.1L63.9,14.1L63.4,14.1L63.4,13.6L62.9,13.6L62.9,13.1L62.4,13.1L62.4,12.6L61.4,12.6L61.4,11.1L60.9,11.1L60.9,7.1L60.4,7.1L60.4,6.6L59.1,6.6L59.1,7.1L57.1,7.1L57.1,7.6L56.6,7.6L56.6,8.6L54.9,8.6L54.9,8.1L54.4,8.1L54.4,7.6z" stroke="none"/><path d="M35.9,28.5L36.1,28.5L36.1,36.9L38.1,36.9L38.1,37.4L38.6,37.4L38.6,37.9L40.6,37.9L40.6,39.4L41.1,39.4L41.1,39.9L42.1,39.9L42.1,41.4L43.1,41.4L43.1,41.9L44.6,41.9L44.6,42.4L48.6,42.4L48.6,42.9L49.9,42.9L49.9,42.4L50.4,42.4L50.4,30.9L50.9,30.9L50.9,30.4L51.4,30.4L51.4,29.4L52.9,29.4L52.9,28.9L53.4,28.9L53.4,25.1L51.9,25.1L51.9,24.6L51.4,24.6L51.4,24.1L50.9,24.1L50.9,23.6L49.9,23.6L49.9,21.6L48.9,21.6L48.9,20.1L48.4,20.1L48.4,18.9L48.9,18.9L48.9,18.4L52.4,18.4L52.4,18L52.6,18L52.6,18.6L49.1,18.6L49.1,19.1L48.6,19.1L48.6,19.9L49.1,19.9L49.1,21.4L50.1,21.4L50.1,23.4L51.1,23.4L51.1,23.9L51.6,23.9L51.6,24.4L52.1,24.4L52.1,24.9L53.6,24.9L53.6,29.1L53.1,29.1L53.1,29.6L51.6,29.6L51.6,30.6L51.1,30.6L51.1,31.1L50.6,31.1L50.6,42.6L50.1,42.6L50.1,43.1L48.4,43.1L48.4,42.6L44.4,42.6L44.4,42.1L42.9,42.1L42.9,41.6L41.9,41.6L41.9,40.1L40.9,40.1L40.9,39.6L40.4,39.6L40.4,38.1L38.4,38.1L38.4,37.6L37.9,37.6L37.9,37.1L35.9,37.1z" stroke="none"/><path d="M60,99.1L60,98.9L60.4,98.9L60.4,98.4L60.9,98.4L60.9,97.9L67.9,97.9L67.9,96.9L68.4,96.9L68.4,96.4L68.9,96.4L68.9,95.9L69.4,95.9L69.4,95.4L69.9,95.4L69.9,93.9L70.4,93.9L70.4,93.4L71.4,93.4L71.4,90.9L72.4,90.9L72.4,90.4L72.9,90.4L72.9,88.9L74.4,88.9L74.4,88.4L76.5,88.4L76.5,88.6L74.6,88.6L74.6,89.1L73.1,89.1L73.1,90.6L72.6,90.6L72.6,91.1L71.6,91.1L71.6,93.6L70.6,93.6L70.6,94.1L70.1,94.1L70.1,95.6L69.6,95.6L69.6,96.1L69.1,96.1L69.1,96.6L68.6,96.6L68.6,97.1L68.1,97.1L68.1,98.1L61.1,98.1L61.1,98.6L60.6,98.6L60.6,99.1z" stroke="none"/><path d="M4.4,13.5L4.6,13.5L4.6,19.1L3.6,19.1L3.6,20.1L2.6,20.1L2.6,20.6L1.6,20.6L1.6,22.6L1.1,22.6L1.1,31.9L2.6,31.9L2.6,32.4L3.1,32.4L3.1,33L2.9,33L2.9,32.6L2.4,32.6L2.4,32.1L0.9,32.1L0.9,22.4L1.4,22.4L1.4,20.4L2.4,20.4L2.4,19.9L3.4,19.9L3.4,18.9L4.4,18.9z" stroke="none"/><path d="M33.1,94.5L32.9,94.5L32.9,90.9L33.4,90.9L33.4,89.9L33.9,89.9L33.9,87.6L33.4,87.6L33.4,79.4L33.9,79.4L33.9,75.9L34.4,75.9L34.4,75.4L35.4,75.4L35.4,74.9L36,74.9L36,75.1L35.6,75.1L35.6,75.6L34.6,75.6L34.6,76.1L34.1,76.1L34.1,79.6L33.6,79.6L33.6,87.4L34.1,87.4L34.1,90.1L33.6,90.1L33.6,91.1L33.1,91.1z" stroke="none"/><path d="M42,95.9L42,96.1L41.1,96.1L41.1,97.1L40.6,97.1L40.6,98.1L40.1,98.1L40.1,98.6L37.1,98.6L37.1,100.1L34.6,100.1L34.6,101.6L32.1,101.6L32.1,102.1L30.6,102.1L30.6,102.6L28.6,102.6L28.6,103.1L26.6,103.1L26.6,103.6L23.9,103.6L23.9,98.6L23.4,98.6L23.4,98.1L22.4,98.1L22.4,91.5L22.6,91.5L22.6,97.9L23.6,97.9L23.6,98.4L24.1,98.4L24.1,103.4L26.4,103.4L26.4,102.9L28.4,102.9L28.4,102.4L30.4,102.4L30.4,101.9L31.9,101.9L31.9,101.4L34.4,101.4L34.4,99.9L36.9,99.9L36.9,98.4L39.9,98.4L39.9,97.9L40.4,97.9L40.4,96.9L40.9,96.9L40.9,95.9z" stroke="none"/><path d="M43.6,73.5L43.4,73.5L43.4,71.1L42.9,71.1L42.9,70.6L34.4,70.6L34.4,70.1L33.9,70.1L33.9,69.6L33.4,69.6L33.4,67.9L35.6,67.9L35.6,68.4L42.9,68.4L42.9,64.4L43.9,64.4L43.9,62.9L44.4,62.9L44.4,56.6L43.9,56.6L43.9,56.1L42.4,56.1L42.4,54.6L39.9,54.6L39.9,54.1L39,54.1L39,53.9L40.1,53.9L40.1,54.4L42.6,54.4L42.6,55.9L44.1,55.9L44.1,56.4L44.6,56.4L44.6,63.1L44.1,63.1L44.1,64.6L43.1,64.6L43.1,68.6L35.4,68.6L35.4,68.1L33.6,68.1L33.6,69.4L34.1,69.4L34.1,69.9L34.6,69.9L34.6,70.4L43.1,70.4L43.1,70.9L43.6,70.9z" stroke="none"/><path d="M94.5,33.1L94.5,32.9L95.1,32.9L95.1,33.4L95.6,33.4L95.6,33.9L100.4,33.9L100.4,33.4L102.6,33.4L102.6,33.9L103.1,33.9L103.1,47.1L102.6,47.1L102.6,47.6L102.1,47.6L102.1,48.6L101.1,48.6L101.1,51.6L100.1,51.6L100.1,52.1L99.1,52.1L99.1,52.5L98.9,52.5L98.9,51.9L99.9,51.9L99.9,51.4L100.9,51.4L100.9,48.4L101.9,48.4L101.9,47.4L102.4,47.4L102.4,46.9L102.9,46.9L102.9,34.1L102.4,34.1L102.4,33.6L100.6,33.6L100.6,34.1L95.4,34.1L95.4,33.6L94.9,33.6L94.9,33.1z" stroke="none"/><path d="M69,54.1L69,53.9L79.6,53.9L79.6,54.4L80.6,54.4L80.6,55.9L81.1,55.9L81.1,56.4L81.6,56.4L81.6,56.9L82.6,56.9L82.6,57.4L83.1,57.4L83.1,57.9L83.6,57.9L83.6,64.9L84.1,64.9L84.1,65.4L85.1,65.4L85.1,65.9L85.5,65.9L85.5,66.1L84.9,66.1L84.9,65.6L83.9,65.6L83.9,65.1L83.4,65.1L83.4,58.1L82.9,58.1L82.9,57.6L82.4,57.6L82.4,57.1L81.4,57.1L81.4,56.6L80.9,56.6L80.9,56.1L80.4,56.1L80.4,54.6L79.4,54.6L79.4,54.1z" stroke="none"/><path d="M76.6,39L76.4,39L76.4,38.4L76.9,38.4L76.9,37.9L77.4,37.9L77.4,36.9L78.4,36.9L78.4,35.4L78.9,35.4L78.9,34.9L82.1,34.9L82.1,35.4L82.6,35.4L82.6,36.4L83.6,36.4L83.6,36.9L84.4,36.9L84.4,36.4L89.4,36.4L89.4,35.4L89.9,35.4L89.9,34.4L90.4,34.4L90.4,33.4L91.4,33.4L91.4,32.4L91.9,32.4L91.9,31.4L92.9,31.4L92.9,28.4L93.9,28.4L93.9,27.9L94.9,27.9L94.9,27.4L95.4,27.4L95.4,26.9L95.9,26.9L95.9,23.4L96.4,23.4L96.4,22.9L98.1,22.9L98.1,23.4L99.1,23.4L99.1,23.9L99.6,23.9L99.6,24.4L100.1,24.4L100.1,25.4L100.6,25.4L100.6,29.4L101.1,29.4L101.1,30.9L101.6,30.9L101.6,32.1L101.1,32.1L101.1,32.6L96.1,32.6L96.1,33L95.9,33L95.9,32.4L100.9,32.4L100.9,31.9L101.4,31.9L101.4,31.1L100.9,31.1L100.9,29.6L100.4,29.6L100.4,25.6L99.9,25.6L99.9,24.6L99.4,24.6L99.4,24.1L98.9,24.1L98.9,23.6L97.9,23.6L97.9,23.1L96.6,23.1L96.6,23.6L96.1,23.6L96.1,27.1L95.6,27.1L95.6,27.6L95.1,27.6L95.1,28.1L94.1,28.1L94.1,28.6L93.1,28.6L93.1,31.6L92.1,31.6L92.1,32.6L91.6,32.6L91.6,33.6L90.6,33.6L90.6,34.6L90.1,34.6L90.1,35.6L89.6,35.6L89.6,36.6L84.6,36.6L84.6,37.1L83.4,37.1L83.4,36.6L82.4,36.6L82.4,35.6L81.9,35.6L81.9,35.1L79.1,35.1L79.1,35.6L78.6,35.6L78.6,37.1L77.6,37.1L77.6,38.1L77.1,38.1L77.1,38.6L76.6,38.6z" stroke="none"/><path d="M18,3.1L18,2.9L18.9,2.9L18.9,1.9L21.4,1.9L21.4,1.4L34.6,1.4L34.6,1.9L35.6,1.9L35.6,2.9L36.6,2.9L36.6,3.9L37.1,3.9L37.1,13.1L36.1,13.1L36.1,13.5L35.9,13.5L35.9,12.9L36.9,12.9L36.9,4.1L36.4,4.1L36.4,3.1L35.4,3.1L35.4,2.1L34.4,2.1L34.4,1.6L21.6,1.6L21.6,2.1L19.1,2.1L19.1,3.1z" stroke="none"/><path d="M75,13.6L75,13.4L75.9,13.4L75.9,12.9L76.4,12.9L76.4,12.4L76.9,12.4L76.9,7.9L77.4,7.9L77.4,6.6L76.1,6.6L76.1,7.1L75.6,7.1L75.6,8.1L74.6,8.1L74.6,8.6L72.4,8.6L72.4,6.6L71.9,6.6L71.9,6.1L70.9,6.1L70.9,5.1L65.4,5.1L65.4,3.6L64.9,3.6L64.9,2.4L65.4,2.4L65.4,1.9L96.1,1.9L96.1,2.4L98.6,2.4L98.6,2.9L99.1,2.9L99.1,3.4L100.1,3.4L100.1,4.9L102.1,4.9L102.1,19.6L101.6,19.6L101.6,21.6L101.1,21.6L101.1,22.1L99.9,22.1L99.9,21.6L99.4,21.6L99.4,17.6L97.9,17.6L97.9,17.1L97.1,17.1L97.1,17.6L96.6,17.6L96.6,18.1L95.6,18.1L95.6,19.1L95.1,19.1L95.1,21.1L94.5,21.1L94.5,20.9L94.9,20.9L94.9,18.9L95.4,18.9L95.4,17.9L96.4,17.9L96.4,17.4L96.9,17.4L96.9,16.9L98.1,16.9L98.1,17.4L99.6,17.4L99.6,21.4L100.1,21.4L100.1,21.9L100.9,21.9L100.9,21.4L101.4,21.4L101.4,19.4L101.9,19.4L101.9,5.1L99.9,5.1L99.9,3.6L98.9,3.6L98.9,3.1L98.4,3.1L98.4,2.6L95.9,2.6L95.9,2.1L65.6,2.1L65.6,2.6L65.1,2.6L65.1,3.4L65.6,3.4L65.6,4.9L71.1,4.9L71.1,5.9L72.1,5.9L72.1,6.4L72.6,6.4L72.6,8.4L74.4,8.4L74.4,7.9L75.4,7.9L75.4,6.9L75.9,6.9L75.9,6.4L77.6,6.4L77.6,8.1L77.1,8.1L77.1,12.6L76.6,12.6L76.6,13.1L76.1,13.1L76.1,13.6z" stroke="none"/><path d="M70.5,99.1L70.5,98.9L73.4,98.9L73.4,98.4L74.4,98.4L74.4,97.9L74.9,97.9L74.9,96.9L75.9,96.9L75.9,95.4L77.4,95.4L77.4,94.4L78.9,94.4L78.9,93.9L84.4,93.9L84.4,93.4L84.9,93.4L84.9,92.4L85.4,92.4L85.4,86.9L85.9,86.9L85.9,86.4L86.4,86.4L86.4,85.4L87,85.4L87,85.6L86.6,85.6L86.6,86.6L86.1,86.6L86.1,87.1L85.6,87.1L85.6,92.6L85.1,92.6L85.1,93.6L84.6,93.6L84.6,94.1L79.1,94.1L79.1,94.6L77.6,94.6L77.6,95.6L76.1,95.6L76.1,97.1L75.1,97.1L75.1,98.1L74.6,98.1L74.6,98.6L73.6,98.6L73.6,99.1z" stroke="none"/><path d="M16.6,9L16.4,9L16.4,3.1L12.9,3.1L12.9,2.6L11.9,2.6L11.9,2.1L10.4,2.1L10.4,1.6L3.6,1.6L3.6,4.1L3.1,4.1L3.1,7.1L2.6,7.1L2.6,9.6L2.1,9.6L2.1,19.1L1.6,19.1L1.6,19.6L1.1,19.6L1.1,22.1L0.6,22.1L0.6,32.4L2.1,32.4L2.1,33.4L2.6,33.4L2.6,33.9L3.6,33.9L3.6,35.4L4.1,35.4L4.1,43.6L3.6,43.6L3.6,45.4L4.1,45.4L4.1,45.9L5.4,45.9L5.4,39.9L7.4,39.9L7.4,39.4L7.9,39.4L7.9,38.9L8.4,38.9L8.4,35.9L21.9,35.9L21.9,35.4L22.4,35.4L22.4,32.9L23.9,32.9L23.9,30.9L24.4,30.9L24.4,30.4L27.4,30.4L27.4,29.4L28.9,29.4L28.9,28.9L29.4,28.9L29.4,25.9L29.9,25.9L29.9,25.5L30.1,25.5L30.1,26.1L29.6,26.1L29.6,29.1L29.1,29.1L29.1,29.6L27.6,29.6L27.6,30.6L24.6,30.6L24.6,31.1L24.1,31.1L24.1,33.1L22.6,33.1L22.6,35.6L22.1,35.6L22.1,36.1L8.6,36.1L8.6,39.1L8.1,39.1L8.1,39.6L7.6,39.6L7.6,40.1L5.6,40.1L5.6,46.1L3.9,46.1L3.9,45.6L3.4,45.6L3.4,43.4L3.9,43.4L3.9,35.6L3.4,35.6L3.4,34.1L2.4,34.1L2.4,33.6L1.9,33.6L1.9,32.6L0.4,32.6L0.4,21.9L0.9,21.9L0.9,19.4L1.4,19.4L1.4,18.9L1.9,18.9L1.9,9.4L2.4,9.4L2.4,6.9L2.9,6.9L2.9,3.9L3.4,3.9L3.4,1.4L10.6,1.4L10.6,1.9L12.1,1.9L12.1,2.4L13.1,2.4L13.1,2.9L16.6,2.9z" stroke="none"/><path d="M73.4,100.5L73.6,100.5L73.6,102.4L74.1,102.4L74.1,102.9L88.9,102.9L88.9,102.4L89.4,102.4L89.4,98.1L88.9,98.1L88.9,94.4L89.4,94.4L89.4,93.4L91.4,93.4L91.4,92.9L91.9,92.9L91.9,91.9L92.4,91.9L92.4,91.4L93,91.4L93,91.6L92.6,91.6L92.6,92.1L92.1,92.1L92.1,93.1L91.6,93.1L91.6,93.6L89.6,93.6L89.6,94.6L89.1,94.6L89.1,97.9L89.6,97.9L89.6,102.6L89.1,102.6L89.1,103.1L73.9,103.1L73.9,102.6L73.4,102.6z" stroke="none"/><path d="M55.6,82.5L55.4,82.5L55.4,81.4L55.9,81.4L55.9,79.4L57.4,79.4L57.4,78.4L58.4,78.4L58.4,76.9L58.9,76.9L58.9,75.4L59.4,75.4L59.4,74.9L60.9,74.9L60.9,73.9L61.4,73.9L61.4,72.9L62.4,72.9L62.4,70.9L65.1,70.9L65.1,71.4L65.6,71.4L65.6,73.9L66.1,73.9L66.1,75.9L66.6,75.9L66.6,76.4L67.6,76.4L67.6,76.9L68.6,76.9L68.6,77.4L72.1,77.4L72.1,77.9L72.6,77.9L72.6,78.4L73.1,78.4L73.1,78.9L73.6,78.9L73.6,79.4L74.6,79.4L74.6,79.9L75.1,79.9L75.1,80.4L75.6,80.4L75.6,80.9L76.6,80.9L76.6,81.4L77.1,81.4L77.1,81.9L78.1,81.9L78.1,82.4L81.6,82.4L81.6,82.9L82.1,82.9L82.1,83.4L82.6,83.4L82.6,84.4L83.6,84.4L83.6,86.6L82.6,86.6L82.6,88.1L82.1,88.1L82.1,89.1L81.1,89.1L81.1,90.1L75.6,90.1L75.6,96.6L73.6,96.6L73.6,97.6L72,97.6L72,97.4L73.4,97.4L73.4,96.4L75.4,96.4L75.4,89.9L80.9,89.9L80.9,88.9L81.9,88.9L81.9,87.9L82.4,87.9L82.4,86.4L83.4,86.4L83.4,84.6L82.4,84.6L82.4,83.6L81.9,83.6L81.9,83.1L81.4,83.1L81.4,82.6L77.9,82.6L77.9,82.1L76.9,82.1L76.9,81.6L76.4,81.6L76.4,81.1L75.4,81.1L75.4,80.6L74.9,80.6L74.9,80.1L74.4,80.1L74.4,79.6L73.4,79.6L73.4,79.1L72.9,79.1L72.9,78.6L72.4,78.6L72.4,78.1L71.9,78.1L71.9,77.6L68.4,77.6L68.4,77.1L67.4,77.1L67.4,76.6L66.4,76.6L66.4,76.1L65.9,76.1L65.9,74.1L65.4,74.1L65.4,71.6L64.9,71.6L64.9,71.1L62.6,71.1L62.6,73.1L61.6,73.1L61.6,74.1L61.1,74.1L61.1,75.1L59.6,75.1L59.6,75.6L59.1,75.6L59.1,77.1L58.6,77.1L58.6,78.6L57.6,78.6L57.6,79.6L56.1,79.6L56.1,81.6L55.6,81.6z" stroke="none"/><path d="M40.6,25.5L40.4,25.5L40.4,18.6L39.4,18.6L39.4,18.1L38.4,18.1L38.4,17.6L36.9,17.6L36.9,17.1L36.4,17.1L36.4,15.6L35.9,15.6L35.9,15.1L35.4,15.1L35.4,14.6L34.9,14.6L34.9,10.1L34.4,10.1L34.4,8.1L33.9,8.1L33.9,7.6L26.9,7.6L26.9,7.1L25.9,7.1L25.9,6.1L25.5,6.1L25.5,5.9L26.1,5.9L26.1,6.9L27.1,6.9L27.1,7.4L34.1,7.4L34.1,7.9L34.6,7.9L34.6,9.9L35.1,9.9L35.1,14.4L35.6,14.4L35.6,14.9L36.1,14.9L36.1,15.4L36.6,15.4L36.6,16.9L37.1,16.9L37.1,17.4L38.6,17.4L38.6,17.9L39.6,17.9L39.6,18.4L40.6,18.4z" stroke="none"/><path d="M34.4,33L34.6,33L34.6,43.6L33.6,43.6L33.6,45.6L33.1,45.6L33.1,46.1L31.6,46.1L31.6,46.6L31.1,46.6L31.1,47.6L30.1,47.6L30.1,48.1L29.6,48.1L29.6,49.1L29.1,49.1L29.1,50.1L28.6,50.1L28.6,50.6L28.1,50.6L28.1,51.1L27.6,51.1L27.6,51.6L26.1,51.6L26.1,52.1L18.4,52.1L18.4,51.6L16.4,51.6L16.4,51L16.6,51L16.6,51.4L18.6,51.4L18.6,51.9L25.9,51.9L25.9,51.4L27.4,51.4L27.4,50.9L27.9,50.9L27.9,50.4L28.4,50.4L28.4,49.9L28.9,49.9L28.9,48.9L29.4,48.9L29.4,47.9L29.9,47.9L29.9,47.4L30.9,47.4L30.9,46.4L31.4,46.4L31.4,45.9L32.9,45.9L32.9,45.4L33.4,45.4L33.4,43.4L34.4,43.4z" stroke="none"/><path d="M7.4,75L7.6,75L7.6,77.1L7.1,77.1L7.1,77.6L5.6,77.6L5.6,78.6L4.1,78.6L4.1,79.1L3.6,79.1L3.6,79.6L2.6,79.6L2.6,81.1L2.1,81.1L2.1,81.6L1.6,81.6L1.6,103.4L23.1,103.4L23.1,103.9L35.9,103.9L35.9,102.4L36.4,102.4L36.4,101.9L37.9,101.9L37.9,99.9L39.9,99.9L39.9,98.9L40.9,98.9L40.9,97.9L42.4,97.9L42.4,96.4L42.9,96.4L42.9,95.6L42.4,95.6L42.4,95.1L34.6,95.1L34.6,95.6L27.9,95.6L27.9,95.1L27.4,95.1L27.4,94.1L25.9,94.1L25.9,93.6L25.1,93.6L25.1,94.1L24.6,94.1L24.6,94.6L24,94.6L24,94.4L24.4,94.4L24.4,93.9L24.9,93.9L24.9,93.4L26.1,93.4L26.1,93.9L27.6,93.9L27.6,94.9L28.1,94.9L28.1,95.4L34.4,95.4L34.4,94.9L42.6,94.9L42.6,95.4L43.1,95.4L43.1,96.6L42.6,96.6L42.6,98.1L41.1,98.1L41.1,99.1L40.1,99.1L40.1,100.1L38.1,100.1L38.1,102.1L36.6,102.1L36.6,102.6L36.1,102.6L36.1,104.1L22.9,104.1L22.9,103.6L1.4,103.6L1.4,81.4L1.9,81.4L1.9,80.9L2.4,80.9L2.4,79.4L3.4,79.4L3.4,78.9L3.9,78.9L3.9,78.4L5.4,78.4L5.4,77.4L6.9,77.4L6.9,76.9L7.4,76.9z" stroke="none"/><path d="M62.9,60L63.1,60L63.1,61.6L62.6,61.6L62.6,62.1L62.1,62.1L62.1,63.1L61.6,63.1L61.6,63.6L60.6,63.6L60.6,65.9L61.1,65.9L61.1,66.9L61.6,66.9L61.6,67.9L65.6,67.9L65.6,69.4L66.1,69.4L66.1,70.9L67.6,70.9L67.6,71.9L68.1,71.9L68.1,72.9L68.6,72.9L68.6,73.9L69.1,73.9L69.1,74.4L69.6,74.4L69.6,74.9L70.1,74.9L70.1,75.4L70.6,75.4L70.6,75.9L78.6,75.9L78.6,76.4L85.6,76.4L85.6,76.9L86.1,76.9L86.1,77.4L86.6,77.4L86.6,78.6L86.1,78.6L86.1,79.1L83.6,79.1L83.6,79.6L81,79.6L81,79.4L83.4,79.4L83.4,78.9L85.9,78.9L85.9,78.4L86.4,78.4L86.4,77.6L85.9,77.6L85.9,77.1L85.4,77.1L85.4,76.6L78.4,76.6L78.4,76.1L70.4,76.1L70.4,75.6L69.9,75.6L69.9,75.1L69.4,75.1L69.4,74.6L68.9,74.6L68.9,74.1L68.4,74.1L68.4,73.1L67.9,73.1L67.9,72.1L67.4,72.1L67.4,71.1L65.9,71.1L65.9,69.6L65.4,69.6L65.4,68.1L61.4,68.1L61.4,67.1L60.9,67.1L60.9,66.1L60.4,66.1L60.4,63.4L61.4,63.4L61.4,62.9L61.9,62.9L61.9,61.9L62.4,61.9L62.4,61.4L62.9,61.4z" stroke="none"/></svg>