<svg version="1.1" width="105" height="105" xmlns="http://www.w3.org/2000/svg"><path d="M11.9,70.4L11.9,70.1L7.9,70.1L7.9,69.1L7.5,69.1L7.5,68.9L8.1,68.9L8.1,69.9L12.1,69.9L12.1,70.4L12.6,70.4L12.6,71.4L13.1,71.4L13.1,77.6L12.6,77.6L12.6,78.4L13.1,78.4L13.1,78.9L17.6,78.9L17.6,82.4L18.6,82.4L18.6,83.9L19.1,83.9L19.1,85.9L20.1,85.9L20.1,86.4L21.6,86.4L21.6,87.4L22.1,87.4L22.1,87.9L23.4,87.9L23.4,80.4L23.9,80.4L23.9,79.5L24.1,79.5L24.1,80.6L23.6,80.6L23.6,88.1L21.9,88.1L21.9,87.6L21.4,87.6L21.4,86.6L19.9,86.6L19.9,86.1L18.9,86.1L18.9,84.1L18.4,84.1L18.4,82.6L17.4,82.6L17.4,79.1L12.9,79.1L12.9,78.6L12.4,78.6L12.4,77.4L12.9,77.4L12.9,71.6L12.4,71.6L12.4,70.6L10.5,70.6L10.5,70.4z" stroke="none"/><path d="M54,22.4L54,22.6L49.1,22.6L49.1,23.9L49.5,23.9L49.5,24.1L48.9,24.1L48.9,22.6L48.6,22.6L48.6,26.9L49.1,26.9L49.1,27.4L49.6,27.4L49.6,28.5L49.4,28.5L49.4,27.6L48.9,27.6L48.9,27.1L48.4,27.1L48.4,22.4z" stroke="none"/><path d="M45.1,76.4L45.1,76.9L45.6,76.9L45.6,77.4L46.6,77.4L46.6,78L46.4,78L46.4,77.6L45.4,77.6L45.4,77.1L44.9,77.1L44.9,76.6L44.6,76.6L44.6,79.9L45.1,79.9L45.1,80.4L51.4,80.4L51.4,78.9L52.4,78.9L52.4,77.9L54.4,77.9L54.4,77.4L54.9,77.4L54.9,76.9L55.4,76.9L55.4,76.5L55.6,76.5L55.6,77.1L55.1,77.1L55.1,77.6L54.6,77.6L54.6,78.1L52.6,78.1L52.6,79.1L51.6,79.1L51.6,80.6L44.9,80.6L44.9,80.1L44.4,80.1L44.4,76.6L43.1,76.6L43.1,77.1L41.1,77.1L41.1,77.6L40.1,77.6L40.1,78.1L39.6,78.1L39.6,79.1L39.1,79.1L39.1,80.1L38.6,80.1L38.6,80.6L37.6,80.6L37.6,81L37.4,81L37.4,80.4L38.4,80.4L38.4,79.9L38.9,79.9L38.9,78.9L39.4,78.9L39.4,77.9L39.9,77.9L39.9,77.4L40.9,77.4L40.9,76.9L42.9,76.9L42.9,76.4z" stroke="none"/><path d="M29.6,33.4L29.6,33.9L30.1,33.9L30.1,34.4L30.6,34.4L30.6,35.4L32.6,35.4L32.6,35.9L33.1,35.9L33.1,37.5L32.9,37.5L32.9,36.1L32.4,36.1L32.4,35.6L30.4,35.6L30.4,34.6L29.9,34.6L29.9,34.1L29.4,34.1L29.4,33.6L23.6,33.6L23.6,35.4L24.1,35.4L24.1,36L23.9,36L23.9,35.6L23.4,35.6L23.4,33.6L19.9,33.6L19.9,33.1L19.5,33.1L19.5,32.9L20.1,32.9L20.1,33.4z" stroke="none"/><path d="M26.9,39.9L26.9,34.5L27.1,34.5L27.1,44.4L28.1,44.4L28.1,46.9L29.1,46.9L29.1,47.4L29.6,47.4L29.6,48.4L31.1,48.4L31.1,49.4L32.1,49.4L32.1,51.4L32.6,51.4L32.6,52.4L36,52.4L36,52.6L32.4,52.6L32.4,51.6L31.9,51.6L31.9,49.6L30.9,49.6L30.9,48.6L29.4,48.6L29.4,47.6L28.9,47.6L28.9,47.1L27.9,47.1L27.9,44.6L26.9,44.6L26.9,40.1L25.4,40.1L25.4,39.1L24,39.1L24,38.9L25.6,38.9L25.6,39.9z" stroke="none"/><path d="M73.4,24.9L73.4,22.4L73.9,22.4L73.9,20.9L75,20.9L75,21.1L74.1,21.1L74.1,22.6L73.6,22.6L73.6,25.1L66.6,25.1L66.6,34.4L67.5,34.4L67.5,34.6L66.4,34.6L66.4,25.1L63.6,25.1L63.6,25.6L63,25.6L63,25.4L63.4,25.4L63.4,24.9z" stroke="none"/><path d="M92.4,96.4L92.4,95.6L91.9,95.6L91.9,93.6L91.4,93.6L91.4,93L91.6,93L91.6,93.4L92.1,93.4L92.1,95.4L92.6,95.4L92.6,96.9L93.1,96.9L93.1,98.4L94.6,98.4L94.6,99.4L95.1,99.4L95.1,99.9L95.6,99.9L95.6,100.4L96,100.4L96,100.6L95.4,100.6L95.4,100.1L94.9,100.1L94.9,99.6L94.4,99.6L94.4,98.6L92.9,98.6L92.9,97.1L92.4,97.1L92.4,96.6L92.1,96.6L92.1,99.4L93.6,99.4L93.6,99.9L94.1,99.9L94.1,100.4L94.6,100.4L94.6,100.9L95.1,100.9L95.1,101.4L95.6,101.4L95.6,101.9L96,101.9L96,102.1L95.4,102.1L95.4,101.6L94.9,101.6L94.9,101.1L94.4,101.1L94.4,100.6L93.9,100.6L93.9,100.1L93.4,100.1L93.4,99.6L91.9,99.6L91.9,96.4z" stroke="none"/><path d="M5.4,23.9L5.9,23.9L5.9,23.4L6.9,23.4L6.9,22.4L9,22.4L9,22.6L7.1,22.6L7.1,23.6L6.1,23.6L6.1,24.1L5.6,24.1L5.6,29.9L6.1,29.9L6.1,36.4L6.6,36.4L6.6,36.9L8.1,36.9L8.1,38.9L8.6,38.9L8.6,39.4L9.1,39.4L9.1,39.9L9.6,39.9L9.6,40.4L10.5,40.4L10.5,40.6L9.4,40.6L9.4,40.1L8.9,40.1L8.9,39.6L8.4,39.6L8.4,39.1L7.9,39.1L7.9,37.1L6.4,37.1L6.4,36.6L5.9,36.6L5.9,30.1L5.6,30.1L5.6,32.1L5.1,32.1L5.1,32.6L4.6,32.6L4.6,33.1L3,33.1L3,32.9L4.4,32.9L4.4,32.4L4.9,32.4L4.9,31.9L5.4,31.9z" stroke="none"/><path d="M45.6,88.4L45.6,89.4L47.9,89.4L47.9,88.5L48.1,88.5L48.1,89.6L45.4,89.6L45.4,88.6L42.1,88.6L42.1,88.9L42.6,88.9L42.6,89.4L43.1,89.4L43.1,89.9L43.6,89.9L43.6,90.9L44.1,90.9L44.1,91.4L44.6,91.4L44.6,94.4L45.1,94.4L45.1,97.5L44.9,97.5L44.9,94.6L44.4,94.6L44.4,91.6L43.9,91.6L43.9,91.1L43.4,91.1L43.4,90.1L42.9,90.1L42.9,89.6L42.4,89.6L42.4,89.1L41.9,89.1L41.9,88.6L39.9,88.6L39.9,87.1L38.9,87.1L38.9,85.5L39.1,85.5L39.1,86.9L40.1,86.9L40.1,88.4z" stroke="none"/><path d="M38.9,30.1L38.4,30.1L38.4,29.1L37.4,29.1L37.4,28.6L36.9,28.6L36.9,27.6L35.4,27.6L35.4,27.1L34.9,27.1L34.9,26.1L34.4,26.1L34.4,25.6L33.4,25.6L33.4,25.1L32.9,25.1L32.9,24.6L31.9,24.6L31.9,24.1L31.5,24.1L31.5,23.9L32.1,23.9L32.1,24.4L33.1,24.4L33.1,24.9L33.6,24.9L33.6,25.4L34.6,25.4L34.6,25.9L35.1,25.9L35.1,26.9L35.6,26.9L35.6,27.4L37.1,27.4L37.1,28.4L37.6,28.4L37.6,28.9L38.6,28.9L38.6,29.9L39.1,29.9L39.1,30.4L40.1,30.4L40.1,30.9L41.6,30.9L41.6,31.9L42.1,31.9L42.1,32.9L44.6,32.9L44.6,34.4L45.6,34.4L45.6,34.9L46.1,34.9L46.1,35.9L47.1,35.9L47.1,37.4L47.6,37.4L47.6,38.4L48.1,38.4L48.1,38.9L51,38.9L51,39.1L47.9,39.1L47.9,38.6L47.4,38.6L47.4,37.6L46.9,37.6L46.9,36.1L45.9,36.1L45.9,35.1L45.4,35.1L45.4,34.6L44.4,34.6L44.4,33.1L41.9,33.1L41.9,32.1L41.4,32.1L41.4,31.1L39.9,31.1L39.9,30.6L39.1,30.6L39.1,33.4L40.6,33.4L40.6,34.5L40.4,34.5L40.4,33.6L38.9,33.6z" stroke="none"/><path d="M92.9,31.4L92.9,30.9L93.4,30.9L93.4,29.4L93.9,29.4L93.9,28.4L95.4,28.4L95.4,24.9L95.9,24.9L95.9,23.4L96.4,23.4L96.4,22.9L96.9,22.9L96.9,22.4L97.5,22.4L97.5,22.6L97.1,22.6L97.1,23.1L96.6,23.1L96.6,23.6L96.1,23.6L96.1,25.1L95.6,25.1L95.6,28.6L94.1,28.6L94.1,29.6L93.6,29.6L93.6,31.1L93.1,31.1L93.1,31.6L86.1,31.6L86.1,35.6L85.6,35.6L85.6,36L85.4,36L85.4,35.4L85.9,35.4L85.9,31.6L85.6,31.6L85.6,35.1L85.1,35.1L85.1,38.6L84.6,38.6L84.6,39.6L83.1,39.6L83.1,41.1L82.1,41.1L82.1,41.6L81.6,41.6L81.6,42.1L81,42.1L81,41.9L81.4,41.9L81.4,41.4L81.9,41.4L81.9,40.9L82.9,40.9L82.9,39.4L84.4,39.4L84.4,38.4L84.9,38.4L84.9,34.9L85.4,34.9L85.4,31.4z" stroke="none"/><path d="M3.9,87.1L3.4,87.1L3.4,85.6L3,85.6L3,85.4L3.6,85.4L3.6,86.9L4.1,86.9L4.1,89.9L5.1,89.9L5.1,90.4L5.6,90.4L5.6,91.9L6.1,91.9L6.1,92.9L8.1,92.9L8.1,93.4L8.6,93.4L8.6,93.9L10.1,93.9L10.1,94.4L10.5,94.4L10.5,94.6L9.9,94.6L9.9,94.1L8.4,94.1L8.4,93.6L7.9,93.6L7.9,93.1L5.9,93.1L5.9,92.1L5.4,92.1L5.4,90.6L4.9,90.6L4.9,90.1L4.1,90.1L4.1,95.4L4.6,95.4L4.6,96L4.4,96L4.4,95.6L3.9,95.6z" stroke="none"/><path d="M64.4,83.9L64.4,83.4L67.6,83.4L67.6,83.9L68.1,83.9L68.1,84.4L69.1,84.4L69.1,84.9L71.1,84.9L71.1,85.4L75,85.4L75,85.6L70.9,85.6L70.9,85.1L68.9,85.1L68.9,84.6L67.9,84.6L67.9,84.1L67.4,84.1L67.4,83.6L64.6,83.6L64.6,83.9L65.1,83.9L65.1,84.4L65.6,84.4L65.6,86.9L66.1,86.9L66.1,87.4L67.1,87.4L67.1,88.4L67.6,88.4L67.6,90L67.4,90L67.4,88.6L66.9,88.6L66.9,87.6L65.9,87.6L65.9,87.1L65.4,87.1L65.4,84.6L64.9,84.6L64.9,84.1L63.9,84.1L63.9,83.6L63.4,83.6L63.4,83.1L61.4,83.1L61.4,82.6L57,82.6L57,82.4L61.6,82.4L61.6,82.9L63.6,82.9L63.6,83.4L64.1,83.4L64.1,83.9z" stroke="none"/><path d="M27.4,18.9L27.4,18.4L27.9,18.4L27.9,17.9L28.4,17.9L28.4,17.4L29.9,17.4L29.9,15.4L30.4,15.4L30.4,14.9L31.5,14.9L31.5,15.1L30.6,15.1L30.6,15.6L30.1,15.6L30.1,17.6L28.6,17.6L28.6,18.1L28.1,18.1L28.1,18.6L27.6,18.6L27.6,19.1L26.1,19.1L26.1,19.4L26.6,19.4L26.6,20.9L27.1,20.9L27.1,22.4L27.6,22.4L27.6,23.9L28.1,23.9L28.1,24.4L30.1,24.4L30.1,24.9L31.1,24.9L31.1,25.4L33.1,25.4L33.1,25.9L34.1,25.9L34.1,26.9L34.6,26.9L34.6,27.9L36.1,27.9L36.1,28.5L35.9,28.5L35.9,28.1L34.4,28.1L34.4,27.1L33.9,27.1L33.9,26.1L32.9,26.1L32.9,25.6L30.9,25.6L30.9,25.1L29.9,25.1L29.9,24.6L27.9,24.6L27.9,24.1L27.4,24.1L27.4,22.6L26.9,22.6L26.9,21.1L26.4,21.1L26.4,19.6L25.9,19.6L25.9,19.1L16.6,19.1L16.6,19.5L16.4,19.5L16.4,18.9z" stroke="none"/><path d="M54.9,84.4L54.9,82.4L55.9,82.4L55.9,81.9L56.4,81.9L56.4,81.4L58.1,81.4L58.1,81.9L62.4,81.9L62.4,79.9L63.4,79.9L63.4,77.9L64.5,77.9L64.5,78.1L63.6,78.1L63.6,80.1L62.6,80.1L62.6,82.1L57.9,82.1L57.9,81.6L56.6,81.6L56.6,82.1L56.1,82.1L56.1,82.6L55.1,82.6L55.1,90.6L54.6,90.6L54.6,91.9L55.1,91.9L55.1,92.4L57.1,92.4L57.1,93L56.9,93L56.9,92.6L54.9,92.6L54.9,92.1L54.4,92.1L54.4,90.4L54.9,90.4L54.9,84.6L53.1,84.6L53.1,87.1L52.6,87.1L52.6,87.6L51.1,87.6L51.1,88.1L49.6,88.1L49.6,88.5L49.4,88.5L49.4,87.9L50.9,87.9L50.9,87.4L52.4,87.4L52.4,86.9L52.9,86.9L52.9,84.4z" stroke="none"/><path d="M27.4,76.4L27.4,74.9L27.9,74.9L27.9,74.4L28.4,74.4L28.4,73.4L30.4,73.4L30.4,71.9L30.9,71.9L30.9,71.4L31.4,71.4L31.4,70.5L31.6,70.5L31.6,71.6L31.1,71.6L31.1,72.1L30.6,72.1L30.6,73.6L28.6,73.6L28.6,74.6L28.1,74.6L28.1,75.1L27.6,75.1L27.6,76.6L20.6,76.6L20.6,83.9L21.6,83.9L21.6,84.4L22.1,84.4L22.1,84.9L22.6,84.9L22.6,87L22.4,87L22.4,85.1L21.9,85.1L21.9,84.6L21.4,84.6L21.4,84.1L20.4,84.1L20.4,76.6L18.6,76.6L18.6,77.1L18.1,77.1L18.1,78.1L13.5,78.1L13.5,77.9L17.9,77.9L17.9,76.9L18.4,76.9L18.4,76.4z" stroke="none"/><path d="M82.9,14.9L82.9,14.4L83.4,14.4L83.4,13.9L84.4,13.9L84.4,12.9L84.9,12.9L84.9,12.4L85.4,12.4L85.4,11.4L87.9,11.4L87.9,10.4L88.5,10.4L88.5,10.6L88.1,10.6L88.1,11.6L85.6,11.6L85.6,12.6L85.1,12.6L85.1,13.1L84.6,13.1L84.6,14.1L83.6,14.1L83.6,14.6L83.1,14.6L83.1,15.1L82.6,15.1L82.6,15.4L83.6,15.4L83.6,15.9L86.1,15.9L86.1,16.4L86.6,16.4L86.6,16.9L87.1,16.9L87.1,17.9L89.6,17.9L89.6,18.4L90.6,18.4L90.6,19.4L92.1,19.4L92.1,19.9L92.6,19.9L92.6,20.4L93.1,20.4L93.1,21L92.9,21L92.9,20.6L92.4,20.6L92.4,20.1L91.9,20.1L91.9,19.6L90.4,19.6L90.4,18.6L89.4,18.6L89.4,18.1L86.9,18.1L86.9,17.1L86.4,17.1L86.4,16.6L85.9,16.6L85.9,16.1L83.4,16.1L83.4,15.6L82.4,15.6L82.4,15.1L78.1,15.1L78.1,15.6L77.6,15.6L77.6,17.1L76.6,17.1L76.6,18.6L76.1,18.6L76.1,19.1L75.6,19.1L75.6,19.6L75,19.6L75,19.4L75.4,19.4L75.4,18.9L75.9,18.9L75.9,18.4L76.4,18.4L76.4,16.9L77.4,16.9L77.4,15.4L77.9,15.4L77.9,14.9z" stroke="none"/><path d="M85.9,67.4L85.9,64.9L86.4,64.9L86.4,64.4L88.9,64.4L88.9,63.9L89.4,63.9L89.4,63.4L92.4,63.4L92.4,62.9L93,62.9L93,63.1L92.6,63.1L92.6,63.6L89.6,63.6L89.6,64.1L89.1,64.1L89.1,64.6L86.6,64.6L86.6,65.1L86.1,65.1L86.1,69.9L87.6,69.9L87.6,70.4L88.1,70.4L88.1,71.9L88.6,71.9L88.6,72.9L89.1,72.9L89.1,73.4L89.6,73.4L89.6,74.4L90.1,74.4L90.1,74.9L90.6,74.9L90.6,75.9L91.1,75.9L91.1,76.4L93,76.4L93,76.6L90.9,76.6L90.9,76.1L90.4,76.1L90.4,75.1L89.9,75.1L89.9,74.6L89.4,74.6L89.4,73.6L88.9,73.6L88.9,73.1L88.4,73.1L88.4,72.1L87.9,72.1L87.9,70.6L87.4,70.6L87.4,70.1L85.9,70.1L85.9,67.6L80.6,67.6L80.6,68.1L80.1,68.1L80.1,68.6L79.6,68.6L79.6,69.1L78,69.1L78,68.9L79.4,68.9L79.4,68.4L79.9,68.4L79.9,67.9L80.4,67.9L80.4,67.4z" stroke="none"/><path d="M54.4,73.4L54.4,72.9L55.9,72.9L55.9,72.4L57.9,72.4L57.9,71.4L60.9,71.4L60.9,70.4L61.4,70.4L61.4,67.9L61.9,67.9L61.9,67.4L62.4,67.4L62.4,65.9L63,65.9L63,66.1L62.6,66.1L62.6,67.6L62.1,67.6L62.1,68.1L61.6,68.1L61.6,70.6L61.1,70.6L61.1,71.6L58.1,71.6L58.1,72.6L56.1,72.6L56.1,73.1L54.6,73.1L54.6,73.4L55.1,73.4L55.1,73.9L55.6,73.9L55.6,74.4L56.1,74.4L56.1,74.9L57.1,74.9L57.1,77.4L57.6,77.4L57.6,77.9L58.1,77.9L58.1,78.4L58.6,78.4L58.6,79.4L59.1,79.4L59.1,80.4L59.6,80.4L59.6,80.9L60,80.9L60,81.1L59.4,81.1L59.4,80.6L58.9,80.6L58.9,79.6L58.4,79.6L58.4,78.6L57.9,78.6L57.9,78.1L57.4,78.1L57.4,77.6L56.9,77.6L56.9,75.1L55.9,75.1L55.9,74.6L55.4,74.6L55.4,74.1L54.9,74.1L54.9,73.6L50.6,73.6L50.6,75.6L50.1,75.6L50.1,76.1L49.6,76.1L49.6,76.6L49.1,76.6L49.1,79.1L46.6,79.1L46.6,79.5L46.4,79.5L46.4,78.9L48.9,78.9L48.9,76.4L49.4,76.4L49.4,75.9L49.9,75.9L49.9,75.4L50.4,75.4L50.4,73.4z" stroke="none"/><path d="M74.6,92.9L74.6,95.4L76.1,95.4L76.1,97.4L78.1,97.4L78.1,97.9L78.6,97.9L78.6,98.4L82.6,98.4L82.6,99L82.4,99L82.4,98.6L78.4,98.6L78.4,98.1L77.9,98.1L77.9,97.6L75.9,97.6L75.9,95.6L74.4,95.6L74.4,93.1L74.1,93.1L74.1,96.4L75.1,96.4L75.1,97.4L75.6,97.4L75.6,97.9L77.6,97.9L77.6,98.4L78.1,98.4L78.1,99.4L78.6,99.4L78.6,99.9L80.6,99.9L80.6,100.4L81,100.4L81,100.6L80.4,100.6L80.4,100.1L78.4,100.1L78.4,99.6L77.9,99.6L77.9,98.6L77.4,98.6L77.4,98.1L75.4,98.1L75.4,97.6L74.9,97.6L74.9,96.6L73.9,96.6L73.9,93.1L66.9,93.1L66.9,92.6L64.9,92.6L64.9,85.6L64.5,85.6L64.5,85.4L65.1,85.4L65.1,92.4L67.1,92.4L67.1,92.9z" stroke="none"/><path d="M10.4,60.9L10.4,60.4L17.4,60.4L17.4,58.4L18.4,58.4L18.4,56.9L18.9,56.9L18.9,56.4L19.9,56.4L19.9,55.9L20.9,55.9L20.9,55.5L21.1,55.5L21.1,56.1L20.1,56.1L20.1,56.6L19.1,56.6L19.1,57.1L18.6,57.1L18.6,58.6L17.6,58.6L17.6,60.6L10.6,60.6L10.6,60.9L11.1,60.9L11.1,62.9L11.6,62.9L11.6,63.4L12.6,63.4L12.6,67.6L9.1,67.6L9.1,68.1L7.1,68.1L7.1,68.6L6.6,68.6L6.6,69.9L7.6,69.9L7.6,70.5L7.4,70.5L7.4,70.1L6.4,70.1L6.4,68.4L6.9,68.4L6.9,67.9L8.9,67.9L8.9,67.4L12.4,67.4L12.4,63.6L11.4,63.6L11.4,63.1L10.9,63.1L10.9,61.1L10.6,61.1L10.6,63.9L11.6,63.9L11.6,64.4L12.1,64.4L12.1,66L11.9,66L11.9,64.6L11.4,64.6L11.4,64.1L10.4,64.1L10.4,61.1L9.1,61.1L9.1,61.5L8.9,61.5L8.9,60.9z" stroke="none"/><path d="M90.9,49.4L90.9,46.6L87.4,46.6L87.4,45.6L83.9,45.6L83.9,44.6L82.4,44.6L82.4,44.1L81.4,44.1L81.4,43.6L81,43.6L81,43.4L81.6,43.4L81.6,43.9L82.6,43.9L82.6,44.4L84.1,44.4L84.1,45.4L87.6,45.4L87.6,46.4L91.1,46.4L91.1,49.4L95.1,49.4L95.1,50.4L96.1,50.4L96.1,50.9L96.6,50.9L96.6,51.4L97.6,51.4L97.6,51.9L98.1,51.9L98.1,52.9L98.6,52.9L98.6,53.4L99.1,53.4L99.1,54.4L100.6,54.4L100.6,55.5L100.4,55.5L100.4,54.6L98.9,54.6L98.9,53.6L98.4,53.6L98.4,53.1L97.9,53.1L97.9,52.1L97.4,52.1L97.4,51.6L96.4,51.6L96.4,51.1L95.9,51.1L95.9,50.6L94.9,50.6L94.9,49.6L91.1,49.6L91.1,50.9L91.5,50.9L91.5,51.1L90.9,51.1L90.9,49.6L90.6,49.6L90.6,51.4L93.6,51.4L93.6,52.9L94.1,52.9L94.1,53.4L95.1,53.4L95.1,53.9L95.6,53.9L95.6,54.9L96.1,54.9L96.1,55.4L99.1,55.4L99.1,55.9L100.1,55.9L100.1,56.9L100.5,56.9L100.5,57.1L99.9,57.1L99.9,56.1L98.9,56.1L98.9,55.6L95.9,55.6L95.9,55.1L95.4,55.1L95.4,54.1L94.9,54.1L94.9,53.6L93.9,53.6L93.9,53.1L93.4,53.1L93.4,51.6L90.4,51.6L90.4,49.4z" stroke="none"/><path d="M73.9,44.4L73.9,44.1L67.4,44.1L67.4,43.6L66,43.6L66,43.4L67.6,43.4L67.6,43.9L74.1,43.9L74.1,44.4L82.1,44.4L82.1,44.9L82.6,44.9L82.6,45.4L83.1,45.4L83.1,45.9L86.1,45.9L86.1,46.4L87.1,46.4L87.1,46.9L89.1,46.9L89.1,47.4L89.6,47.4L89.6,51.9L90.1,51.9L90.1,52.4L90.6,52.4L90.6,54.4L93.6,54.4L93.6,54.9L94.1,54.9L94.1,55.4L95.6,55.4L95.6,55.9L97.1,55.9L97.1,56.4L97.6,56.4L97.6,57.4L98.6,57.4L98.6,57.9L101.4,57.9L101.4,55.1L100.9,55.1L100.9,54.1L100.4,54.1L100.4,53.1L98.9,53.1L98.9,52.6L98.4,52.6L98.4,51.6L97.9,51.6L97.9,51.1L96.9,51.1L96.9,50.6L96.4,50.6L96.4,50.1L95.4,50.1L95.4,49.1L94.4,49.1L94.4,48.1L93.9,48.1L93.9,47.6L93.4,47.6L93.4,47.1L92.9,47.1L92.9,46.6L92.4,46.6L92.4,45.6L91.9,45.6L91.9,44.1L91.4,44.1L91.4,43.1L90.4,43.1L90.4,42.1L87.4,42.1L87.4,41.6L86.4,41.6L86.4,41.1L85.4,41.1L85.4,40.5L85.6,40.5L85.6,40.9L86.6,40.9L86.6,41.4L87.6,41.4L87.6,41.9L90.6,41.9L90.6,42.9L91.6,42.9L91.6,43.9L92.1,43.9L92.1,45.4L92.6,45.4L92.6,46.4L93.1,46.4L93.1,46.9L93.6,46.9L93.6,47.4L94.1,47.4L94.1,47.9L94.6,47.9L94.6,48.9L95.6,48.9L95.6,49.9L96.6,49.9L96.6,50.4L97.1,50.4L97.1,50.9L98.1,50.9L98.1,51.4L98.6,51.4L98.6,52.4L99.1,52.4L99.1,52.9L100.6,52.9L100.6,53.9L101.1,53.9L101.1,54.9L101.6,54.9L101.6,58.1L98.4,58.1L98.4,57.6L97.4,57.6L97.4,56.6L96.9,56.6L96.9,56.1L95.4,56.1L95.4,55.6L93.9,55.6L93.9,55.1L93.4,55.1L93.4,54.6L90.4,54.6L90.4,52.6L89.9,52.6L89.9,52.1L89.4,52.1L89.4,47.6L88.9,47.6L88.9,47.1L86.9,47.1L86.9,46.6L85.9,46.6L85.9,46.1L82.9,46.1L82.9,45.6L82.4,45.6L82.4,45.1L81.9,45.1L81.9,44.6L74.1,44.6L74.1,45.9L74.6,45.9L74.6,51.9L75.1,51.9L75.1,54.4L75.6,54.4L75.6,55.4L77.1,55.4L77.1,55.9L79.6,55.9L79.6,56.4L80.1,56.4L80.1,57.9L81.1,57.9L81.1,58.5L80.9,58.5L80.9,58.1L79.9,58.1L79.9,56.6L79.4,56.6L79.4,56.1L76.9,56.1L76.9,55.6L75.4,55.6L75.4,54.6L74.9,54.6L74.9,52.1L74.4,52.1L74.4,46.1L73.9,46.1L73.9,44.6L72.1,44.6L72.1,45L71.9,45L71.9,44.4z" stroke="none"/><path d="M78.4,66.9L78.4,64.9L78.9,64.9L78.9,62.9L80.4,62.9L80.4,61.4L81,61.4L81,61.6L80.6,61.6L80.6,63.1L79.1,63.1L79.1,65.1L78.6,65.1L78.6,66.9L78.9,66.9L78.9,65.4L79.4,65.4L79.4,63.9L80.9,63.9L80.9,62.4L81.4,62.4L81.4,61.1L79.1,61.1L79.1,61.6L78.6,61.6L78.6,62.6L78.1,62.6L78.1,63.1L76.1,63.1L76.1,64.6L75.6,64.6L75.6,66.6L75.1,66.6L75.1,67.1L74.6,67.1L74.6,67.9L75.1,67.9L75.1,68.9L76.1,68.9L76.1,69.4L77.6,69.4L77.6,69.9L83.6,69.9L83.6,70.9L84.6,70.9L84.6,71.4L85.1,71.4L85.1,72.4L85.6,72.4L85.6,73.4L86.6,73.4L86.6,75.4L87.1,75.4L87.1,75.9L87.6,75.9L87.6,79.4L88.1,79.4L88.1,80.4L89.6,80.4L89.6,80.9L90,80.9L90,81.1L89.4,81.1L89.4,80.6L87.9,80.6L87.9,79.6L87.4,79.6L87.4,76.1L86.9,76.1L86.9,75.6L86.4,75.6L86.4,73.6L85.4,73.6L85.4,72.6L84.9,72.6L84.9,71.6L84.4,71.6L84.4,71.1L83.4,71.1L83.4,70.1L77.4,70.1L77.4,69.6L75.9,69.6L75.9,69.1L74.9,69.1L74.9,68.1L74.4,68.1L74.4,66.9L74.9,66.9L74.9,66.4L75.4,66.4L75.4,64.4L75.9,64.4L75.9,62.9L77.9,62.9L77.9,62.4L78.4,62.4L78.4,61.4L78.9,61.4L78.9,60.9L81.6,60.9L81.6,62.6L81.1,62.6L81.1,64.1L79.6,64.1L79.6,65.6L79.1,65.6L79.1,67.1L78.6,67.1L78.6,67.6L78.1,67.6L78.1,68.1L75.9,68.1L75.9,67.6L75,67.6L75,67.4L76.1,67.4L76.1,67.9L77.9,67.9L77.9,67.4L78.4,67.4L78.4,67.1L76.6,67.1L76.6,67.5L76.4,67.5L76.4,66.9z" stroke="none"/><path d="M53.4,44.4L53.4,43.9L54.9,43.9L54.9,43.4L55.4,43.4L55.4,42.9L55.9,42.9L55.9,42.4L56.9,42.4L56.9,41.9L60.4,41.9L60.4,41.4L61.4,41.4L61.4,39.9L62.4,39.9L62.4,39.4L63.9,39.4L63.9,38.9L64.5,38.9L64.5,39.1L64.1,39.1L64.1,39.6L62.6,39.6L62.6,40.1L61.6,40.1L61.6,41.6L60.6,41.6L60.6,42.1L57.1,42.1L57.1,42.6L56.1,42.6L56.1,43.1L55.6,43.1L55.6,43.6L55.1,43.6L55.1,44.1L53.6,44.1L53.6,44.4L54.1,44.4L54.1,45.9L54.6,45.9L54.6,46.4L56.6,46.4L56.6,46.9L57.1,46.9L57.1,49.4L58.1,49.4L58.1,53.9L58.5,53.9L58.5,54.1L57.9,54.1L57.9,49.6L56.9,49.6L56.9,47.1L56.4,47.1L56.4,46.6L54.4,46.6L54.4,46.1L53.9,46.1L53.9,44.6L53.6,44.6L53.6,46.1L53.1,46.1L53.1,47.1L52.1,47.1L52.1,47.6L48.6,47.6L48.6,48.1L48,48.1L48,47.9L48.4,47.9L48.4,47.4L51.9,47.4L51.9,46.9L52.9,46.9L52.9,45.9L53.4,45.9L53.4,44.6L53.1,44.6L53.1,45.1L52.6,45.1L52.6,46.5L52.4,46.5L52.4,44.9L52.9,44.9L52.9,44.4z" stroke="none"/><path d="M44.9,74.4L44.9,72L45.1,72L45.1,74.4L49.9,74.4L49.9,72.9L53.4,72.9L53.4,72.4L55.4,72.4L55.4,71.9L57.4,71.9L57.4,70.9L58.4,70.9L58.4,69.4L58.9,69.4L58.9,67.9L59.9,67.9L59.9,67.4L61.4,67.4L61.4,64.9L63.6,64.9L63.6,65.4L64.1,65.4L64.1,70.6L63.6,70.6L63.6,71.1L63.1,71.1L63.1,72.1L59.1,72.1L59.1,73.6L57,73.6L57,73.4L58.9,73.4L58.9,71.9L62.9,71.9L62.9,70.9L63.4,70.9L63.4,70.4L63.9,70.4L63.9,65.6L63.4,65.6L63.4,65.1L61.6,65.1L61.6,67.6L60.1,67.6L60.1,68.1L59.1,68.1L59.1,69.6L58.6,69.6L58.6,71.1L57.6,71.1L57.6,72.1L55.6,72.1L55.6,72.6L53.6,72.6L53.6,73.1L50.1,73.1L50.1,74.6L45.1,74.6L45.1,75.1L42.6,75.1L42.6,75.6L41.6,75.6L41.6,76.6L39.6,76.6L39.6,77.1L39.1,77.1L39.1,78.1L38.1,78.1L38.1,79.1L37.6,79.1L37.6,79.6L37.1,79.6L37.1,80.6L36.6,80.6L36.6,81.9L39.1,81.9L39.1,82.9L39.6,82.9L39.6,84.9L40.1,84.9L40.1,86.4L45.6,86.4L45.6,87.4L46.1,87.4L46.1,88.4L46.5,88.4L46.5,88.6L45.9,88.6L45.9,87.6L45.4,87.6L45.4,86.6L39.9,86.6L39.9,85.1L39.4,85.1L39.4,83.1L38.9,83.1L38.9,82.1L36.4,82.1L36.4,80.4L36.9,80.4L36.9,79.4L37.4,79.4L37.4,78.9L37.9,78.9L37.9,77.9L38.9,77.9L38.9,76.9L39.4,76.9L39.4,76.4L41.4,76.4L41.4,75.4L42.4,75.4L42.4,74.9L44.9,74.9L44.9,74.6L40.9,74.6L40.9,73.6L40.5,73.6L40.5,73.4L41.1,73.4L41.1,74.4z" stroke="none"/><path d="M75.9,27.9L75.9,25.9L76.4,25.9L76.4,24.9L77.9,24.9L77.9,24L78.1,24L78.1,25.1L76.6,25.1L76.6,26.1L76.1,26.1L76.1,27.9L93.4,27.9L93.4,25.9L94.9,25.9L94.9,24.4L95.4,24.4L95.4,21.9L96.4,21.9L96.4,21.4L98.1,21.4L98.1,21.9L98.6,21.9L98.6,27.1L98.1,27.1L98.1,28.6L96.1,28.6L96.1,30.1L95.6,30.1L95.6,31.1L94.6,31.1L94.6,31.6L93.6,31.6L93.6,32.6L93.1,32.6L93.1,33.1L92.6,33.1L92.6,34.1L92.1,34.1L92.1,34.6L91.6,34.6L91.6,35.1L91.1,35.1L91.1,35.6L89.6,35.6L89.6,37.1L88.6,37.1L88.6,38.6L86.6,38.6L86.6,39.1L85.1,39.1L85.1,40.1L84.6,40.1L84.6,41.9L86.1,41.9L86.1,42.9L87.6,42.9L87.6,43.4L90,43.4L90,43.6L87.4,43.6L87.4,43.1L85.9,43.1L85.9,42.1L84.4,42.1L84.4,39.9L84.9,39.9L84.9,38.9L86.4,38.9L86.4,38.4L88.4,38.4L88.4,36.9L89.4,36.9L89.4,35.4L90.9,35.4L90.9,34.9L91.4,34.9L91.4,34.4L91.9,34.4L91.9,33.9L92.4,33.9L92.4,32.9L92.9,32.9L92.9,32.4L93.4,32.4L93.4,31.4L94.4,31.4L94.4,30.9L95.4,30.9L95.4,29.9L95.9,29.9L95.9,28.4L97.9,28.4L97.9,26.9L98.4,26.9L98.4,22.1L97.9,22.1L97.9,21.6L96.6,21.6L96.6,22.1L95.6,22.1L95.6,24.6L95.1,24.6L95.1,26.1L93.6,26.1L93.6,28.1L76.1,28.1L76.1,28.6L72.9,28.6L72.9,27.6L72.4,27.6L72.4,27.1L70.5,27.1L70.5,26.9L72.6,26.9L72.6,27.4L73.1,27.4L73.1,28.4L75.9,28.4L75.9,28.1L75.4,28.1L75.4,27.6L74.9,27.6L74.9,27.1L73.5,27.1L73.5,26.9L75.1,26.9L75.1,27.4L75.6,27.4L75.6,27.9z" stroke="none"/><path d="M81.9,87.9L81.9,87.4L84.1,87.4L84.1,88.4L84.6,88.4L84.6,95.1L84.1,95.1L84.1,96L83.9,96L83.9,94.9L84.4,94.9L84.4,88.6L83.9,88.6L83.9,87.6L82.1,87.6L82.1,87.9L83.6,87.9L83.6,88.9L84.1,88.9L84.1,90L83.9,90L83.9,89.1L83.4,89.1L83.4,88.1L82.1,88.1L82.1,95.9L82.5,95.9L82.5,96.1L81.9,96.1L81.9,88.1L81.4,88.1L81.4,80.9L82.9,80.9L82.9,80.4L83.4,80.4L83.4,79.9L83.9,79.9L83.9,79.4L84.4,79.4L84.4,78.9L84.9,78.9L84.9,78.4L85.4,78.4L85.4,78L85.6,78L85.6,78.6L85.1,78.6L85.1,79.1L84.6,79.1L84.6,79.6L84.1,79.6L84.1,80.1L83.6,80.1L83.6,80.6L83.1,80.6L83.1,81.1L81.6,81.1L81.6,87.9z" stroke="none"/><path d="M37.9,36.9L37.9,36.6L34.6,36.6L34.6,37.6L34.1,37.6L34.1,39.4L38.1,39.4L38.1,39.9L38.6,39.9L38.6,40.4L39.1,40.4L39.1,41.9L39.6,41.9L39.6,42.9L41.1,42.9L41.1,43.4L41.6,43.4L41.6,44.4L43.6,44.4L43.6,45L43.4,45L43.4,44.6L41.4,44.6L41.4,43.6L40.9,43.6L40.9,43.1L39.4,43.1L39.4,42.1L38.9,42.1L38.9,40.6L38.4,40.6L38.4,40.1L37.9,40.1L37.9,39.6L33.9,39.6L33.9,37.4L34.4,37.4L34.4,36.4L38.1,36.4L38.1,36.9L45.1,36.9L45.1,37.4L46.1,37.4L46.1,37.9L47.1,37.9L47.1,39.4L49.1,39.4L49.1,39.9L51.9,39.9L51.9,37.1L50.4,37.1L50.4,36.6L49.9,36.6L49.9,36.1L48.9,36.1L48.9,35.6L48.4,35.6L48.4,35.1L46.9,35.1L46.9,34.6L46.5,34.6L46.5,34.4L47.1,34.4L47.1,34.9L48.6,34.9L48.6,35.4L49.1,35.4L49.1,35.9L50.1,35.9L50.1,36.4L50.6,36.4L50.6,36.9L52.1,36.9L52.1,40.1L48.9,40.1L48.9,39.6L46.9,39.6L46.9,38.1L45.9,38.1L45.9,37.6L44.9,37.6L44.9,37.1L38.1,37.1L38.1,38.6L36.1,38.6L36.1,39L35.9,39L35.9,38.4L37.9,38.4L37.9,37.1L37.6,37.1L37.6,37.6L37.1,37.6L37.1,38.1L34.6,38.1L34.6,39L34.4,39L34.4,37.9L36.9,37.9L36.9,37.4L37.4,37.4L37.4,36.9z" stroke="none"/><path d="M65.4,50.9L65.4,50.4L69.9,50.4L69.9,49.4L70.9,49.4L70.9,47.4L72.4,47.4L72.4,46.9L73.4,46.9L73.4,46.5L73.6,46.5L73.6,47.1L72.6,47.1L72.6,47.6L71.1,47.6L71.1,49.6L70.1,49.6L70.1,50.6L65.6,50.6L65.6,50.9L66.1,50.9L66.1,51.4L67.6,51.4L67.6,52.4L69.1,52.4L69.1,52.9L69.6,52.9L69.6,53.9L70.1,53.9L70.1,54.4L70.6,54.4L70.6,55.4L71.1,55.4L71.1,55.9L71.6,55.9L71.6,56.4L72.1,56.4L72.1,57L71.9,57L71.9,56.6L71.4,56.6L71.4,56.1L70.9,56.1L70.9,55.6L70.4,55.6L70.4,54.6L69.9,54.6L69.9,54.1L69.4,54.1L69.4,53.1L68.9,53.1L68.9,52.6L67.4,52.6L67.4,51.6L65.9,51.6L65.9,51.1L65.6,51.1L65.6,51.6L65.1,51.6L65.1,52.6L64.6,52.6L64.6,54L64.4,54L64.4,52.4L64.9,52.4L64.9,51.4L65.4,51.4L65.4,51.1L64.6,51.1L64.6,51.6L64.1,51.6L64.1,55.1L61.6,55.1L61.6,55.6L60,55.6L60,55.4L61.4,55.4L61.4,54.9L63.9,54.9L63.9,51.4L64.4,51.4L64.4,50.9z" stroke="none"/><path d="M56.4,16.4L56.4,15.4L57.4,15.4L57.4,14.9L57.9,14.9L57.9,14.4L60.6,14.4L60.6,19.6L60.1,19.6L60.1,20.1L59.1,20.1L59.1,20.6L58.1,20.6L58.1,21.1L57.6,21.1L57.6,22.6L56.1,22.6L56.1,23.6L55.6,23.6L55.6,24.1L55.1,24.1L55.1,25.1L54.1,25.1L54.1,27L53.9,27L53.9,24.9L54.9,24.9L54.9,23.9L55.4,23.9L55.4,23.4L55.9,23.4L55.9,22.4L57.4,22.4L57.4,20.9L57.9,20.9L57.9,20.4L58.9,20.4L58.9,19.9L59.9,19.9L59.9,19.4L60.4,19.4L60.4,14.6L58.1,14.6L58.1,15.1L57.6,15.1L57.6,15.6L56.6,15.6L56.6,16.4L57.9,16.4L57.9,15.4L58.4,15.4L58.4,14.9L60,14.9L60,15.1L58.6,15.1L58.6,15.6L58.1,15.6L58.1,16.6L56.6,16.6L56.6,22.1L55.6,22.1L55.6,22.6L55.1,22.6L55.1,23.1L54.6,23.1L54.6,24.1L54.1,24.1L54.1,24.6L53.6,24.6L53.6,25.1L52.6,25.1L52.6,25.5L52.4,25.5L52.4,24.9L53.4,24.9L53.4,24.4L53.9,24.4L53.9,23.9L54.4,23.9L54.4,22.9L54.9,22.9L54.9,22.4L55.4,22.4L55.4,21.9L56.4,21.9L56.4,16.6L55.9,16.6L55.9,14.4L56.4,14.4L56.4,13.9L61.4,13.9L61.4,12.4L62.4,12.4L62.4,9.9L63.4,9.9L63.4,9.4L63.9,9.4L63.9,8.9L64.4,8.9L64.4,8.4L65.4,8.4L65.4,7.9L66.4,7.9L66.4,7.4L67.5,7.4L67.5,7.6L66.6,7.6L66.6,8.1L65.6,8.1L65.6,8.6L64.6,8.6L64.6,9.1L64.1,9.1L64.1,9.6L63.6,9.6L63.6,10.1L62.6,10.1L62.6,12.6L61.6,12.6L61.6,14.1L56.6,14.1L56.6,14.6L56.1,14.6L56.1,16.4z" stroke="none"/><path d="M24.9,89.9L24.9,84.4L25.4,84.4L25.4,84L25.6,84L25.6,84.6L25.1,84.6L25.1,89.9L26.6,89.9L26.6,90.4L27.1,90.4L27.1,90.9L27.6,90.9L27.6,91.4L28.5,91.4L28.5,91.6L27.4,91.6L27.4,91.1L26.9,91.1L26.9,90.6L26.4,90.6L26.4,90.1L25.1,90.1L25.1,90.4L26.1,90.4L26.1,90.9L26.6,90.9L26.6,91.4L27.1,91.4L27.1,91.9L30.4,91.9L30.4,91.4L33,91.4L33,91.6L30.6,91.6L30.6,92.1L26.9,92.1L26.9,91.6L26.4,91.6L26.4,91.1L25.9,91.1L25.9,90.6L24.9,90.6L24.9,90.1L24.6,90.1L24.6,98.1L23.6,98.1L23.6,98.6L23.1,98.6L23.1,100.6L21.6,100.6L21.6,101.6L21.1,101.6L21.1,102L20.9,102L20.9,101.4L21.4,101.4L21.4,100.4L22.9,100.4L22.9,98.4L23.4,98.4L23.4,97.9L24.4,97.9L24.4,89.9z" stroke="none"/><path d="M49.9,9.9L49.9,8.4L50.4,8.4L50.4,7.9L58.4,7.9L58.4,7.4L61.5,7.4L61.5,7.6L58.6,7.6L58.6,8.1L50.6,8.1L50.6,8.6L50.1,8.6L50.1,9.9L51.1,9.9L51.1,10.4L53.1,10.4L53.1,10.9L54.1,10.9L54.1,12L53.9,12L53.9,11.1L52.9,11.1L52.9,10.6L50.9,10.6L50.9,10.1L50.1,10.1L50.1,13.1L49.6,13.1L49.6,13.6L49.1,13.6L49.1,14.6L48.6,14.6L48.6,15.1L46.5,15.1L46.5,14.9L48.4,14.9L48.4,14.4L48.9,14.4L48.9,13.4L49.4,13.4L49.4,12.9L49.9,12.9L49.9,10.1L48.1,10.1L48.1,11.1L47.6,11.1L47.6,11.6L47.1,11.6L47.1,12.6L46.6,12.6L46.6,13.5L46.4,13.5L46.4,12.4L46.9,12.4L46.9,11.4L47.4,11.4L47.4,10.9L47.9,10.9L47.9,9.9z" stroke="none"/><path d="M73.4,75.9L73.4,75.4L75.4,75.4L75.4,74.9L75.9,74.9L75.9,74.4L76.9,74.4L76.9,73.9L82.1,73.9L82.1,74.4L83.1,74.4L83.1,75.4L83.6,75.4L83.6,75.9L84.6,75.9L84.6,76.4L86.1,76.4L86.1,77.4L86.6,77.4L86.6,78.6L86.1,78.6L86.1,79.1L85.6,79.1L85.6,79.6L85.1,79.6L85.1,80.6L84.6,80.6L84.6,81.1L83.6,81.1L83.6,81.6L83.1,81.6L83.1,83.6L82.6,83.6L82.6,84L82.4,84L82.4,83.4L82.9,83.4L82.9,81.4L83.4,81.4L83.4,80.9L84.4,80.9L84.4,80.4L84.9,80.4L84.9,79.4L85.4,79.4L85.4,78.9L85.9,78.9L85.9,78.4L86.4,78.4L86.4,77.6L85.9,77.6L85.9,76.6L84.4,76.6L84.4,76.1L83.4,76.1L83.4,75.6L82.9,75.6L82.9,74.6L81.9,74.6L81.9,74.1L77.1,74.1L77.1,74.6L76.1,74.6L76.1,75.1L75.6,75.1L75.6,75.6L73.6,75.6L73.6,75.9L77.6,75.9L77.6,76.4L78,76.4L78,76.6L77.4,76.6L77.4,76.1L73.6,76.1L73.6,78.9L74.1,78.9L74.1,79.4L75.1,79.4L75.1,79.9L76.1,79.9L76.1,80.9L76.5,80.9L76.5,81.1L75.9,81.1L75.9,80.1L74.9,80.1L74.9,79.6L73.9,79.6L73.9,79.1L73.4,79.1L73.4,76.1L69.9,76.1L69.9,75.1L68.9,75.1L68.9,74.6L67.9,74.6L67.9,72.6L65.9,72.6L65.9,72L66.1,72L66.1,72.4L68.1,72.4L68.1,74.4L69.1,74.4L69.1,74.9L70.1,74.9L70.1,75.9z" stroke="none"/><path d="M20.4,72.9L20.4,72.4L23.4,72.4L23.4,71.9L24.4,71.9L24.4,71.4L29.4,71.4L29.4,70.9L29.9,70.9L29.9,70.5L30.1,70.5L30.1,71.1L29.6,71.1L29.6,71.6L24.6,71.6L24.6,72.1L23.6,72.1L23.6,72.6L20.6,72.6L20.6,72.9L23.9,72.9L23.9,72.4L24.9,72.4L24.9,71.9L27,71.9L27,72.1L25.1,72.1L25.1,72.6L24.1,72.6L24.1,73.1L20.6,73.1L20.6,73.4L27.9,73.4L27.9,72.9L29.4,72.9L29.4,72.4L29.9,72.4L29.9,71.4L30.4,71.4L30.4,69.4L32.1,69.4L32.1,69.9L32.6,69.9L32.6,73.1L32.1,73.1L32.1,75.1L31.6,75.1L31.6,75.6L29.6,75.6L29.6,76.1L29.1,76.1L29.1,78.1L28.6,78.1L28.6,79.1L28.1,79.1L28.1,80.1L27.1,80.1L27.1,82.1L26.1,82.1L26.1,82.6L25.1,82.6L25.1,83.6L24.6,83.6L24.6,88.1L24.1,88.1L24.1,88.6L18.9,88.6L18.9,87.6L18.4,87.6L18.4,87.1L18,87.1L18,86.9L18.6,86.9L18.6,87.4L19.1,87.4L19.1,88.4L23.9,88.4L23.9,87.9L24.4,87.9L24.4,83.4L24.9,83.4L24.9,82.4L25.9,82.4L25.9,81.9L26.9,81.9L26.9,79.9L27.9,79.9L27.9,78.9L28.4,78.9L28.4,77.9L28.9,77.9L28.9,75.9L29.4,75.9L29.4,75.4L31.4,75.4L31.4,74.9L31.9,74.9L31.9,72.9L32.4,72.9L32.4,70.1L31.9,70.1L31.9,69.6L30.6,69.6L30.6,71.6L30.1,71.6L30.1,72.6L29.6,72.6L29.6,73.1L28.1,73.1L28.1,73.6L20.4,73.6L20.4,73.1L15.4,73.1L15.4,72.1L15,72.1L15,71.9L15.6,71.9L15.6,72.9z" stroke="none"/><path d="M11.4,13.9L11.4,13.1L10.4,13.1L10.4,10.6L9.4,10.6L9.4,10.1L8.4,10.1L8.4,9.6L7.9,9.6L7.9,8.1L7.4,8.1L7.4,7.5L7.6,7.5L7.6,7.9L8.1,7.9L8.1,9.4L8.6,9.4L8.6,9.9L9.6,9.9L9.6,10.4L10.6,10.4L10.6,12.9L11.6,12.9L11.6,13.9L23.9,13.9L23.9,13.5L24.1,13.5L24.1,14.1L11.6,14.1L11.6,15.4L12.1,15.4L12.1,15.9L13.6,15.9L13.6,19.5L13.4,19.5L13.4,16.1L11.9,16.1L11.9,15.6L11.4,15.6L11.4,14.1L7.1,14.1L7.1,14.6L6.6,14.6L6.6,15.9L9.1,15.9L9.1,16.4L9.6,16.4L9.6,20.4L10.1,20.4L10.1,23.9L10.5,23.9L10.5,24.1L9.9,24.1L9.9,20.6L9.4,20.6L9.4,16.6L8.9,16.6L8.9,16.1L6.4,16.1L6.4,14.4L6.9,14.4L6.9,13.9z" stroke="none"/><path d="M90.4,57.4L90.4,56.9L97.1,56.9L97.1,57.9L98.1,57.9L98.1,58.9L98.6,58.9L98.6,59.9L99,59.9L99,60.1L98.4,60.1L98.4,59.1L97.9,59.1L97.9,58.1L96.9,58.1L96.9,57.1L90.6,57.1L90.6,57.4L93.1,57.4L93.1,57.9L94.1,57.9L94.1,58.9L94.6,58.9L94.6,64.6L92.1,64.6L92.1,66.1L91.5,66.1L91.5,65.9L91.9,65.9L91.9,64.4L94.4,64.4L94.4,59.1L93.9,59.1L93.9,58.1L92.9,58.1L92.9,57.6L90.6,57.6L90.6,58.9L91.6,58.9L91.6,59.4L92.6,59.4L92.6,59.9L93.1,59.9L93.1,60.4L93.6,60.4L93.6,62.4L94.1,62.4L94.1,63.6L93.6,63.6L93.6,64.1L91.6,64.1L91.6,64.5L91.4,64.5L91.4,63.9L93.4,63.9L93.4,63.4L93.9,63.4L93.9,62.6L93.4,62.6L93.4,60.6L92.9,60.6L92.9,60.1L92.4,60.1L92.4,59.6L91.4,59.6L91.4,59.1L90.4,59.1L90.4,57.6L89.9,57.6L89.9,53.6L88.9,53.6L88.9,53.1L88.4,53.1L88.4,48L88.6,48L88.6,52.9L89.1,52.9L89.1,53.4L90.1,53.4L90.1,57.4z" stroke="none"/><path d="M13.4,21.4L13.4,20.9L13.9,20.9L13.9,20.4L14.4,20.4L14.4,18.9L14.9,18.9L14.9,18.4L26.4,18.4L26.4,17.9L27,17.9L27,18.1L26.6,18.1L26.6,18.6L15.1,18.6L15.1,19.1L14.6,19.1L14.6,20.6L14.1,20.6L14.1,21.1L13.6,21.1L13.6,21.4L14.1,21.4L14.1,22.4L15.1,22.4L15.1,23.4L15.6,23.4L15.6,23.9L16.6,23.9L16.6,25.4L17.1,25.4L17.1,26.4L18.6,26.4L18.6,27.6L18.1,27.6L18.1,28.1L17.1,28.1L17.1,29.1L16.1,29.1L16.1,29.6L15.1,29.6L15.1,31.1L12.6,31.1L12.6,31.6L12.1,31.6L12.1,33.1L11.6,33.1L11.6,33.6L10.6,33.6L10.6,34.5L10.4,34.5L10.4,33.4L11.4,33.4L11.4,32.9L11.9,32.9L11.9,31.4L12.4,31.4L12.4,30.9L14.9,30.9L14.9,29.4L15.9,29.4L15.9,28.9L16.9,28.9L16.9,27.9L17.9,27.9L17.9,27.4L18.4,27.4L18.4,26.6L16.9,26.6L16.9,25.6L16.4,25.6L16.4,24.1L15.4,24.1L15.4,23.6L14.9,23.6L14.9,22.6L13.9,22.6L13.9,21.6L13.6,21.6L13.6,22.9L14.1,22.9L14.1,23.4L14.6,23.4L14.6,24.9L15.1,24.9L15.1,25.4L16.1,25.4L16.1,25.9L16.6,25.9L16.6,26.9L18,26.9L18,27.1L16.4,27.1L16.4,26.1L15.9,26.1L15.9,25.6L14.9,25.6L14.9,25.1L14.4,25.1L14.4,23.6L13.9,23.6L13.9,23.1L13.4,23.1L13.4,21.6L12.9,21.6L12.9,21.1L12.4,21.1L12.4,17.1L11.4,17.1L11.4,16.1L9.4,16.1L9.4,15.6L8.4,15.6L8.4,15.1L7.5,15.1L7.5,14.9L8.6,14.9L8.6,15.4L9.6,15.4L9.6,15.9L11.6,15.9L11.6,16.9L12.6,16.9L12.6,20.9L13.1,20.9L13.1,21.4z" stroke="none"/><path d="M40.4,20.9L40.4,13.6L36.9,13.6L36.9,13.1L36.4,13.1L36.4,12.6L35.9,12.6L35.9,12L36.1,12L36.1,12.4L36.6,12.4L36.6,12.9L37.1,12.9L37.1,13.4L40.6,13.4L40.6,20.9L44.6,20.9L44.6,23.9L45.1,23.9L45.1,24.9L45.6,24.9L45.6,25.9L46.1,25.9L46.1,26.9L46.6,26.9L46.6,27.4L47.1,27.4L47.1,28.9L48.1,28.9L48.1,29.4L49.6,29.4L49.6,30.4L50.6,30.4L50.6,30.9L52.6,30.9L52.6,31.5L52.4,31.5L52.4,31.1L50.4,31.1L50.4,30.6L49.4,30.6L49.4,29.6L47.9,29.6L47.9,29.1L46.9,29.1L46.9,27.6L46.4,27.6L46.4,27.1L45.9,27.1L45.9,26.1L45.4,26.1L45.4,25.1L44.9,25.1L44.9,24.1L44.4,24.1L44.4,21.1L40.6,21.1L40.6,25.4L42.1,25.4L42.1,26.9L43.6,26.9L43.6,27.4L44.6,27.4L44.6,27.9L45.1,27.9L45.1,29.4L46.6,29.4L46.6,29.9L49.1,29.9L49.1,31.4L49.5,31.4L49.5,31.6L48.9,31.6L48.9,30.1L46.4,30.1L46.4,29.6L44.9,29.6L44.9,28.1L44.4,28.1L44.4,27.6L43.4,27.6L43.4,27.1L41.9,27.1L41.9,25.6L40.4,25.6L40.4,21.1L37.4,21.1L37.4,20.6L36.9,20.6L36.9,20.1L35.9,20.1L35.9,19.6L35.4,19.6L35.4,18.6L34.9,18.6L34.9,18.1L33,18.1L33,17.9L35.1,17.9L35.1,18.4L35.6,18.4L35.6,19.4L36.1,19.4L36.1,19.9L37.1,19.9L37.1,20.4L37.6,20.4L37.6,20.9z" stroke="none"/><path d="M48.9,56.4L48.9,53.9L50.4,53.9L50.4,52.9L51.4,52.9L51.4,51.9L52.9,51.9L52.9,49.9L53.9,49.9L53.9,49.5L54.1,49.5L54.1,50.1L53.1,50.1L53.1,52.1L51.6,52.1L51.6,53.1L50.6,53.1L50.6,54.1L49.1,54.1L49.1,56.4L56.9,56.4L56.9,55.4L58.5,55.4L58.5,55.6L57.1,55.6L57.1,56.6L49.1,56.6L49.1,58.6L48.6,58.6L48.6,59.1L48.1,59.1L48.1,59.6L45.1,59.6L45.1,60.1L44.6,60.1L44.6,60.6L41.6,60.6L41.6,61.1L40.6,61.1L40.6,61.5L40.4,61.5L40.4,60.9L41.4,60.9L41.4,60.4L44.4,60.4L44.4,59.9L44.9,59.9L44.9,59.4L47.9,59.4L47.9,58.9L48.4,58.9L48.4,58.4L48.9,58.4L48.9,56.6L48.6,56.6L48.6,57.1L47.1,57.1L47.1,57.6L46.6,57.6L46.6,58.1L43.6,58.1L43.6,58.6L40.6,58.6L40.6,60.1L40.1,60.1L40.1,61.9L48.1,61.9L48.1,62.4L49.6,62.4L49.6,63.4L50.1,63.4L50.1,64.4L50.6,64.4L50.6,65.4L51.1,65.4L51.1,66.4L52.1,66.4L52.1,66.9L52.6,66.9L52.6,67.5L52.4,67.5L52.4,67.1L51.9,67.1L51.9,66.6L50.9,66.6L50.9,65.6L50.4,65.6L50.4,64.6L49.9,64.6L49.9,63.6L49.4,63.6L49.4,62.6L47.9,62.6L47.9,62.1L39.9,62.1L39.9,59.9L40.4,59.9L40.4,58.4L43.4,58.4L43.4,57.9L46.4,57.9L46.4,57.4L46.9,57.4L46.9,56.9L48.4,56.9L48.4,56.4z" stroke="none"/><path d="M51.1,100.5L50.9,100.5L50.9,99L51.1,99z" stroke="none"/><path d="M39.1,4.5L38.9,4.5L38.9,3L39.1,3z" stroke="none"/><path d="M10.4,90L10.6,90L10.6,91.5L10.4,91.5z" stroke="none"/><path d="M97.5,73.6L97.5,73.4L99,73.4L99,73.6z" stroke="none"/><path d="M28.6,13.5L28.4,13.5L28.4,12L28.6,12z" stroke="none"/><path d="M84,5.9L84,6.1L83.4,6.1L83.4,5.1L82.4,5.1L82.4,4.5L82.6,4.5L82.6,4.9L83.6,4.9L83.6,5.9z" stroke="none"/><path d="M10.5,47.9L10.5,48.1L7.5,48.1L7.5,47.9z" stroke="none"/><path d="M42,70.4L42,70.6L39,70.6L39,70.4z" stroke="none"/><path d="M66,76.6L66,76.4L69,76.4L69,76.6z" stroke="none"/><path d="M55.6,36L55.4,36L55.4,33L55.6,33z" stroke="none"/><path d="M79.6,21L79.4,21L79.4,18L79.6,18z" stroke="none"/><path d="M16.6,58.5L16.4,58.5L16.4,55.5L16.6,55.5z" stroke="none"/><path d="M9,27.1L9,26.9L12,26.9L12,27.1z" stroke="none"/><path d="M100.5,5.9L100.5,6.1L99.9,6.1L99.9,5.6L99.4,5.6L99.4,3.1L99,3.1L99,2.9L99.6,2.9L99.6,5.4L100.1,5.4L100.1,5.9z" stroke="none"/><path d="M64.5,48.1L64.5,47.9L65.1,47.9L65.1,48.4L66.1,48.4L66.1,48.9L66.6,48.9L66.6,49.4L67.5,49.4L67.5,49.6L66.4,49.6L66.4,49.1L65.9,49.1L65.9,48.6L64.9,48.6L64.9,48.1z" stroke="none"/><path d="M73.4,4.5L73.6,4.5L73.6,7.6L72,7.6L72,7.4L73.4,7.4z" stroke="none"/><path d="M3,34.4L3,34.6L1.9,34.6L1.9,31.9L3.9,31.9L3.9,31.4L4.5,31.4L4.5,31.6L4.1,31.6L4.1,32.1L2.1,32.1L2.1,34.4z" stroke="none"/><path d="M54,47.9L54,48.1L50.6,48.1L50.6,48.6L49.6,48.6L49.6,49.1L46.9,49.1L46.9,46.9L49.9,46.9L49.9,46.4L51,46.4L51,46.6L50.1,46.6L50.1,47.1L47.1,47.1L47.1,48.9L49.4,48.9L49.4,48.4L50.4,48.4L50.4,47.9z" stroke="none"/><path d="M100.4,34.5L100.6,34.5L100.6,36.9L102.1,36.9L102.1,37.5L101.9,37.5L101.9,37.1L100.4,37.1z" stroke="none"/><path d="M82.4,49.5L82.6,49.5L82.6,51.9L84.6,51.9L84.6,52.4L85.5,52.4L85.5,52.6L84.4,52.6L84.4,52.1L82.4,52.1z" stroke="none"/><path d="M48.1,87L47.9,87L47.9,85.6L46.4,85.6L46.4,84.6L45.9,84.6L45.9,84.1L45,84.1L45,83.9L46.1,83.9L46.1,84.4L46.6,84.4L46.6,85.4L48.1,85.4z" stroke="none"/><path d="M42.1,94.5L41.9,94.5L41.9,93.9L42.4,93.9L42.4,92.4L42.9,92.4L42.9,90.6L41.9,90.6L41.9,90L42.1,90L42.1,90.4L43.1,90.4L43.1,92.6L42.6,92.6L42.6,94.1L42.1,94.1z" stroke="none"/><path d="M100.4,12L100.6,12L100.6,16.5L100.4,16.5z" stroke="none"/><path d="M36,62.9L36,63.1L31.5,63.1L31.5,62.9z" stroke="none"/><path d="M79.5,11.9L79.5,12.1L75,12.1L75,11.9z" stroke="none"/><path d="M96,76.4L96,76.6L95.4,76.6L95.4,75.6L94.9,75.6L94.9,74.6L94.4,74.6L94.4,72L94.6,72L94.6,74.4L95.1,74.4L95.1,75.4L95.6,75.4L95.6,76.4z" stroke="none"/><path d="M37.5,94.6L37.5,94.4L40.4,94.4L40.4,93.9L40.9,93.9L40.9,92.4L41.4,92.4L41.4,91.4L42,91.4L42,91.6L41.6,91.6L41.6,92.6L41.1,92.6L41.1,94.1L40.6,94.1L40.6,94.6z" stroke="none"/><path d="M97.5,88.6L97.5,88.4L98.1,88.4L98.1,88.9L98.6,88.9L98.6,90.9L99.1,90.9L99.1,91.4L99.6,91.4L99.6,92.9L100.5,92.9L100.5,93.1L99.4,93.1L99.4,91.6L98.9,91.6L98.9,91.1L98.4,91.1L98.4,89.1L97.9,89.1L97.9,88.6z" stroke="none"/><path d="M61.5,91.4L61.5,91.6L58.4,91.6L58.4,91.1L57.4,91.1L57.4,90.6L56.6,90.6L56.6,91.1L56.1,91.1L56.1,91.6L55.5,91.6L55.5,91.4L55.9,91.4L55.9,90.9L56.4,90.9L56.4,90.4L57.6,90.4L57.6,90.9L58.6,90.9L58.6,91.4z" stroke="none"/><path d="M43.4,93L43.6,93L43.6,99L43.4,99z" stroke="none"/><path d="M102.1,67.5L101.9,67.5L101.9,61.5L102.1,61.5z" stroke="none"/><path d="M9.1,60L8.9,60L8.9,57.4L9.4,57.4L9.4,56.9L10.4,56.9L10.4,54L10.6,54L10.6,57.1L9.6,57.1L9.6,57.6L9.1,57.6z" stroke="none"/><path d="M52.4,30L52.6,30L52.6,30.4L53.1,30.4L53.1,30.9L53.6,30.9L53.6,33.6L52.6,33.6L52.6,34.1L51.1,34.1L51.1,36L50.9,36L50.9,33.9L52.4,33.9L52.4,33.4L53.4,33.4L53.4,31.1L52.9,31.1L52.9,30.6L52.4,30.6z" stroke="none"/><path d="M24.1,9L23.9,9L23.9,2.9L25.5,2.9L25.5,3.1L24.1,3.1z" stroke="none"/><path d="M25.4,94.5L25.6,94.5L25.6,100.4L27,100.4L27,100.6L25.4,100.6z" stroke="none"/><path d="M84,100.6L84,100.4L85.9,100.4L85.9,99.9L86.9,99.9L86.9,99.4L87.9,99.4L87.9,96.9L88.4,96.9L88.4,96L88.6,96L88.6,97.1L88.1,97.1L88.1,99.6L87.1,99.6L87.1,100.1L86.1,100.1L86.1,100.6z" stroke="none"/><path d="M97.4,90L97.6,90L97.6,91.9L98.1,91.9L98.1,92.4L99.1,92.4L99.1,93.4L100.1,93.4L100.1,93.9L101.1,93.9L101.1,94.4L102,94.4L102,94.6L100.9,94.6L100.9,94.1L99.9,94.1L99.9,93.6L98.9,93.6L98.9,92.6L97.9,92.6L97.9,92.1L97.4,92.1z" stroke="none"/><path d="M14.9,6L15.1,6L15.1,11.6L12.1,11.6L12.1,12L11.9,12L11.9,11.4L14.9,11.4z" stroke="none"/><path d="M86.9,49.5L87.1,49.5L87.1,53.6L85.1,53.6L85.1,55.1L84.1,55.1L84.1,55.5L83.9,55.5L83.9,54.9L84.9,54.9L84.9,53.4L86.9,53.4z" stroke="none"/><path d="M51,82.4L51,82.6L43.6,82.6L43.6,83.1L42.6,83.1L42.6,84.4L43.1,84.4L43.1,84.9L45.1,84.9L45.1,85.5L44.9,85.5L44.9,85.1L42.9,85.1L42.9,84.6L42.4,84.6L42.4,82.9L43.4,82.9L43.4,82.4z" stroke="none"/><path d="M24,55.6L24,55.4L26.4,55.4L26.4,53.4L28.4,53.4L28.4,52.9L29.9,52.9L29.9,52.5L30.1,52.5L30.1,53.1L28.6,53.1L28.6,53.6L26.6,53.6L26.6,55.6z" stroke="none"/><path d="M65.9,9L66.1,9L66.1,11.9L66.6,11.9L66.6,12.9L67.1,12.9L67.1,13.4L67.6,13.4L67.6,13.9L68.1,13.9L68.1,14.9L69,14.9L69,15.1L67.9,15.1L67.9,14.1L67.4,14.1L67.4,13.6L66.9,13.6L66.9,13.1L66.4,13.1L66.4,12.1L65.9,12.1z" stroke="none"/><path d="M35.9,3L36.1,3L36.1,4.9L36.6,4.9L36.6,5.9L37.6,5.9L37.6,6.4L38.1,6.4L38.1,8.4L39.1,8.4L39.1,9L38.9,9L38.9,8.6L37.9,8.6L37.9,6.6L37.4,6.6L37.4,6.1L36.4,6.1L36.4,5.1L35.9,5.1z" stroke="none"/><path d="M52.4,63L52.6,63L52.6,63.9L53.1,63.9L53.1,64.4L53.6,64.4L53.6,64.9L54.1,64.9L54.1,65.4L58.1,65.4L58.1,65.9L58.5,65.9L58.5,66.1L57.9,66.1L57.9,65.6L53.9,65.6L53.9,65.1L53.4,65.1L53.4,64.6L52.9,64.6L52.9,64.1L52.4,64.1z" stroke="none"/><path d="M69.1,73.5L68.9,73.5L68.9,73.1L68.4,73.1L68.4,72.1L67.9,72.1L67.9,71.6L66.9,71.6L66.9,71.1L65.1,71.1L65.1,76.9L65.6,76.9L65.6,77.4L69.6,77.4L69.6,77.9L70.6,77.9L70.6,78.4L72.1,78.4L72.1,79.4L72.6,79.4L72.6,79.9L74.6,79.9L74.6,80.4L75.6,80.4L75.6,81.4L76.1,81.4L76.1,81.9L76.9,81.9L76.9,81.4L77.4,81.4L77.4,79.6L76.9,79.6L76.9,78.6L75.4,78.6L75.4,78.1L75,78.1L75,77.9L75.6,77.9L75.6,78.4L77.1,78.4L77.1,79.4L77.6,79.4L77.6,81.6L77.1,81.6L77.1,82.1L75.9,82.1L75.9,81.6L75.4,81.6L75.4,80.6L74.4,80.6L74.4,80.1L72.4,80.1L72.4,79.6L71.9,79.6L71.9,78.6L70.4,78.6L70.4,78.1L69.4,78.1L69.4,77.6L65.4,77.6L65.4,77.1L64.9,77.1L64.9,70.9L67.1,70.9L67.1,71.4L68.1,71.4L68.1,71.9L68.6,71.9L68.6,72.9L69.1,72.9z" stroke="none"/><path d="M94.5,7.4L94.5,7.6L90.4,7.6L90.4,6.6L89.4,6.6L89.4,5.1L88.9,5.1L88.9,4.6L88.4,4.6L88.4,3L88.6,3L88.6,4.4L89.1,4.4L89.1,4.9L89.6,4.9L89.6,6.4L90.6,6.4L90.6,7.4z" stroke="none"/><path d="M40.4,64.5L40.6,64.5L40.6,66.4L41.6,66.4L41.6,67.4L42.1,67.4L42.1,68.4L44.1,68.4L44.1,69.4L44.6,69.4L44.6,70.4L45,70.4L45,70.6L44.4,70.6L44.4,69.6L43.9,69.6L43.9,68.6L41.9,68.6L41.9,67.6L41.4,67.6L41.4,66.6L40.4,66.6z" stroke="none"/><path d="M52.5,72.1L52.5,71.9L54.9,71.9L54.9,70.4L55.4,70.4L55.4,69.9L55.9,69.9L55.9,69.4L57.4,69.4L57.4,68.9L58.4,68.9L58.4,66.9L59.4,66.9L59.4,64.4L64.1,64.4L64.1,64.9L64.6,64.9L64.6,72.1L64.1,72.1L64.1,72.6L60.1,72.6L60.1,73.5L59.9,73.5L59.9,72.4L63.9,72.4L63.9,71.9L64.4,71.9L64.4,65.1L63.9,65.1L63.9,64.6L59.6,64.6L59.6,67.1L58.6,67.1L58.6,69.1L57.6,69.1L57.6,69.6L56.1,69.6L56.1,70.1L55.6,70.1L55.6,70.6L55.1,70.6L55.1,72.1z" stroke="none"/><path d="M6,96.1L6,95.9L10.4,95.9L10.4,95.4L11.4,95.4L11.4,94.1L10.9,94.1L10.9,93.6L9.9,93.6L9.9,92.6L9.4,92.6L9.4,90.1L8.4,90.1L8.4,88.6L7.5,88.6L7.5,88.4L8.6,88.4L8.6,89.9L9.6,89.9L9.6,92.4L10.1,92.4L10.1,93.4L11.1,93.4L11.1,93.9L11.6,93.9L11.6,95.6L10.6,95.6L10.6,96.1z" stroke="none"/><path d="M93.1,43.5L92.9,43.5L92.9,36.9L93.9,36.9L93.9,36.4L94.4,36.4L94.4,35.9L96,35.9L96,36.1L94.6,36.1L94.6,36.6L94.1,36.6L94.1,37.1L93.1,37.1z" stroke="none"/><path d="M87,93.1L87,92.9L90.4,92.9L90.4,92.4L90.9,92.4L90.9,91.9L92.6,91.9L92.6,93.4L93.6,93.4L93.6,93.9L94.1,93.9L94.1,95.4L94.6,95.4L94.6,96L94.4,96L94.4,95.6L93.9,95.6L93.9,94.1L93.4,94.1L93.4,93.6L92.4,93.6L92.4,92.1L91.1,92.1L91.1,92.6L90.6,92.6L90.6,93.1z" stroke="none"/><path d="M92.9,34.5L93.1,34.5L93.1,36.6L92.6,36.6L92.6,37.1L91.6,37.1L91.6,37.6L90.1,37.6L90.1,38.1L89.1,38.1L89.1,40.1L87.6,40.1L87.6,40.6L87,40.6L87,40.4L87.4,40.4L87.4,39.9L88.9,39.9L88.9,37.9L89.9,37.9L89.9,37.4L91.4,37.4L91.4,36.9L92.4,36.9L92.4,36.4L92.9,36.4z" stroke="none"/><path d="M7.5,34.6L7.5,34.4L8.4,34.4L8.4,32.9L9.4,32.9L9.4,32.4L10.4,32.4L10.4,30.9L10.9,30.9L10.9,30.4L11.9,30.4L11.9,29.9L12.4,29.9L12.4,29.4L12.9,29.4L12.9,28.9L13.4,28.9L13.4,28.5L13.6,28.5L13.6,29.1L13.1,29.1L13.1,29.6L12.6,29.6L12.6,30.1L12.1,30.1L12.1,30.6L11.1,30.6L11.1,31.1L10.6,31.1L10.6,32.6L9.6,32.6L9.6,33.1L8.6,33.1L8.6,34.6z" stroke="none"/><path d="M43.5,13.4L43.5,13.6L40.9,13.6L40.9,13.1L37.4,13.1L37.4,12.6L36.9,12.6L36.9,11.6L36.4,11.6L36.4,11.1L35.6,11.1L35.6,11.6L35.1,11.6L35.1,12.9L35.6,12.9L35.6,16.9L36.1,16.9L36.1,18L35.9,18L35.9,17.1L35.4,17.1L35.4,13.1L34.9,13.1L34.9,11.4L35.4,11.4L35.4,10.9L36.6,10.9L36.6,11.4L37.1,11.4L37.1,12.4L37.6,12.4L37.6,12.9L41.1,12.9L41.1,13.4z" stroke="none"/><path d="M92.9,94.5L93.1,94.5L93.1,96.4L93.6,96.4L93.6,96.9L94.9,96.9L94.9,96.4L95.4,96.4L95.4,93.6L93.9,93.6L93.9,93.1L92.9,93.1L92.9,91.6L87.4,91.6L87.4,91.1L86.4,91.1L86.4,90.6L85.9,90.6L85.9,90.1L85.5,90.1L85.5,89.9L86.1,89.9L86.1,90.4L86.6,90.4L86.6,90.9L87.6,90.9L87.6,91.4L93.1,91.4L93.1,92.9L94.1,92.9L94.1,93.4L95.6,93.4L95.6,96.6L95.1,96.6L95.1,97.1L93.4,97.1L93.4,96.6L92.9,96.6z" stroke="none"/><path d="M72,37.4L72,37.6L69.1,37.6L69.1,38.1L67.1,38.1L67.1,40.1L66.1,40.1L66.1,42.6L65.6,42.6L65.6,43.1L65.1,43.1L65.1,44.4L70.6,44.4L70.6,45.4L71.6,45.4L71.6,45.9L72.1,45.9L72.1,46.5L71.9,46.5L71.9,46.1L71.4,46.1L71.4,45.6L70.4,45.6L70.4,44.6L64.9,44.6L64.9,42.9L65.4,42.9L65.4,42.4L65.9,42.4L65.9,39.9L66.9,39.9L66.9,37.9L68.9,37.9L68.9,37.4z" stroke="none"/><path d="M29.9,84L30.1,84L30.1,84.9L31.6,84.9L31.6,85.4L32.1,85.4L32.1,85.9L32.6,85.9L32.6,87.4L33.1,87.4L33.1,89.9L33.6,89.9L33.6,90.9L34.1,90.9L34.1,92.1L33.6,92.1L33.6,92.6L30.6,92.6L30.6,93.1L30,93.1L30,92.9L30.4,92.9L30.4,92.4L33.4,92.4L33.4,91.9L33.9,91.9L33.9,91.1L33.4,91.1L33.4,90.1L32.9,90.1L32.9,87.6L32.4,87.6L32.4,86.1L31.9,86.1L31.9,85.6L31.4,85.6L31.4,85.1L29.9,85.1z" stroke="none"/><path d="M99.1,42L98.9,42L98.9,33L99.1,33z" stroke="none"/><path d="M76.6,42L76.4,42L76.4,33L76.6,33z" stroke="none"/><path d="M96.1,13.5L95.9,13.5L95.9,12.9L96.4,12.9L96.4,11.4L96.9,11.4L96.9,10.1L96.4,10.1L96.4,9.1L95.9,9.1L95.9,4.5L96.1,4.5L96.1,8.9L96.6,8.9L96.6,9.9L97.1,9.9L97.1,11.6L96.6,11.6L96.6,13.1L96.1,13.1z" stroke="none"/><path d="M78.1,40.5L77.9,40.5L77.9,36.9L78.9,36.9L78.9,33.1L78.4,33.1L78.4,32.6L77.9,32.6L77.9,31.5L78.1,31.5L78.1,32.4L78.6,32.4L78.6,32.9L79.1,32.9L79.1,37.1L78.1,37.1z" stroke="none"/><path d="M57,4.4L57,4.6L49.1,4.6L49.1,5.1L48.6,5.1L48.6,5.6L48.1,5.6L48.1,6L47.9,6L47.9,5.4L48.4,5.4L48.4,4.9L48.9,4.9L48.9,4.4z" stroke="none"/><path d="M27,9.1L27,8.9L33.9,8.9L33.9,8.4L34.4,8.4L34.4,7.9L35.9,7.9L35.9,7.5L36.1,7.5L36.1,8.1L34.6,8.1L34.6,8.6L34.1,8.6L34.1,9.1z" stroke="none"/><path d="M97.5,19.4L97.5,19.6L96.6,19.6L96.6,20.6L96.1,20.6L96.1,21.6L93.6,21.6L93.6,22.1L89.4,22.1L89.4,21.6L88.4,21.6L88.4,21L88.6,21L88.6,21.4L89.6,21.4L89.6,21.9L93.4,21.9L93.4,21.4L95.9,21.4L95.9,20.4L96.4,20.4L96.4,19.4z" stroke="none"/><path d="M75,100.6L75,100.4L80.1,100.4L80.1,100.9L80.6,100.9L80.6,101.4L81.9,101.4L81.9,99.9L82.9,99.9L82.9,99.4L83.4,99.4L83.4,97.4L84,97.4L84,97.6L83.6,97.6L83.6,99.6L83.1,99.6L83.1,100.1L82.1,100.1L82.1,101.6L80.4,101.6L80.4,101.1L79.9,101.1L79.9,100.6z" stroke="none"/><path d="M40.5,50.9L40.5,51.1L35.4,51.1L35.4,50.1L34.4,50.1L34.4,49.6L32.9,49.6L32.9,49.1L31.9,49.1L31.9,48.1L31.5,48.1L31.5,47.9L32.1,47.9L32.1,48.9L33.1,48.9L33.1,49.4L34.6,49.4L34.6,49.9L35.6,49.9L35.6,50.9z" stroke="none"/><path d="M100.6,22.5L100.4,22.5L100.4,17.6L99.9,17.6L99.9,17.1L98.9,17.1L98.9,16.1L97.9,16.1L97.9,14.1L97.4,14.1L97.4,13.5L97.6,13.5L97.6,13.9L98.1,13.9L98.1,15.9L99.1,15.9L99.1,16.9L100.1,16.9L100.1,17.4L100.6,17.4z" stroke="none"/><path d="M67.4,54L67.6,54L67.6,60.1L67.1,60.1L67.1,60.6L66.6,60.6L66.6,61.1L66.1,61.1L66.1,62.1L65.1,62.1L65.1,63.1L64.5,63.1L64.5,62.9L64.9,62.9L64.9,61.9L65.9,61.9L65.9,60.9L66.4,60.9L66.4,60.4L66.9,60.4L66.9,59.9L67.4,59.9z" stroke="none"/><path d="M87,7.6L87,7.4L90.1,7.4L90.1,7.9L94.1,7.9L94.1,8.9L94.6,8.9L94.6,9.9L95.6,9.9L95.6,10.4L96,10.4L96,10.6L95.4,10.6L95.4,10.1L94.4,10.1L94.4,9.1L93.9,9.1L93.9,8.1L89.9,8.1L89.9,7.6z" stroke="none"/><path d="M98.9,31.5L99.1,31.5L99.1,31.9L99.6,31.9L99.6,32.4L100.1,32.4L100.1,34.1L99.6,34.1L99.6,37.4L100.1,37.4L100.1,37.9L101.1,37.9L101.1,38.4L101.6,38.4L101.6,38.9L102.1,38.9L102.1,40.5L101.9,40.5L101.9,39.1L101.4,39.1L101.4,38.6L100.9,38.6L100.9,38.1L99.9,38.1L99.9,37.6L99.4,37.6L99.4,33.9L99.9,33.9L99.9,32.6L99.4,32.6L99.4,32.1L98.9,32.1z" stroke="none"/><path d="M9,85.4L9,85.6L4.4,85.6L4.4,84.6L2.1,84.6L2.1,91.4L2.6,91.4L2.6,92.4L3.1,92.4L3.1,93L2.9,93L2.9,92.6L2.4,92.6L2.4,91.6L1.9,91.6L1.9,84.4L4.6,84.4L4.6,85.4z" stroke="none"/><path d="M95.9,85.5L96.1,85.5L96.1,86.4L96.6,86.4L96.6,86.9L97.1,86.9L97.1,87.4L98.6,87.4L98.6,88.4L99.1,88.4L99.1,90.4L100.1,90.4L100.1,90.9L101.6,90.9L101.6,92.4L102.1,92.4L102.1,93L101.9,93L101.9,92.6L101.4,92.6L101.4,91.1L99.9,91.1L99.9,90.6L98.9,90.6L98.9,88.6L98.4,88.6L98.4,87.6L96.9,87.6L96.9,87.1L96.4,87.1L96.4,86.6L95.9,86.6z" stroke="none"/><path d="M79.5,58.4L79.5,58.6L76.9,58.6L76.9,56.6L75.4,56.6L75.4,56.1L74.9,56.1L74.9,55.1L74.4,55.1L74.4,53.6L73.9,53.6L73.9,51.1L73.5,51.1L73.5,50.9L74.1,50.9L74.1,53.4L74.6,53.4L74.6,54.9L75.1,54.9L75.1,55.9L75.6,55.9L75.6,56.4L77.1,56.4L77.1,58.4z" stroke="none"/><path d="M31.5,6.1L31.5,5.9L32.1,5.9L32.1,6.4L36.6,6.4L36.6,6.9L37.1,6.9L37.1,8.9L37.6,8.9L37.6,9.9L40.1,9.9L40.1,10.4L40.5,10.4L40.5,10.6L39.9,10.6L39.9,10.1L37.4,10.1L37.4,9.1L36.9,9.1L36.9,7.1L36.4,7.1L36.4,6.6L31.9,6.6L31.9,6.1z" stroke="none"/><path d="M30,76.6L30,76.4L31.4,76.4L31.4,75.9L31.9,75.9L31.9,75.4L32.4,75.4L32.4,73.9L32.9,73.9L32.9,69.1L30.4,69.1L30.4,67.6L29.9,67.6L29.9,66L30.1,66L30.1,67.4L30.6,67.4L30.6,68.9L33.1,68.9L33.1,74.1L32.6,74.1L32.6,75.6L32.1,75.6L32.1,76.1L31.6,76.1L31.6,76.6z" stroke="none"/><path d="M13.4,37.5L13.6,37.5L13.6,48L13.4,48z" stroke="none"/><path d="M33,61.4L33,61.6L25.4,61.6L25.4,61.1L24.9,61.1L24.9,57.6L23.9,57.6L23.9,57.1L23.4,57.1L23.4,56.1L22.9,56.1L22.9,54.9L23.4,54.9L23.4,54.4L25.4,54.4L25.4,54L25.6,54L25.6,54.6L23.6,54.6L23.6,55.1L23.1,55.1L23.1,55.9L23.6,55.9L23.6,56.9L24.1,56.9L24.1,57.4L25.1,57.4L25.1,60.9L25.6,60.9L25.6,61.4z" stroke="none"/><path d="M100.6,61.5L100.4,61.5L100.4,60.4L100.9,60.4L100.9,59.4L101.9,59.4L101.9,54.9L102.9,54.9L102.9,53.6L102.4,53.6L102.4,53.1L101.9,53.1L101.9,51L102.1,51L102.1,52.9L102.6,52.9L102.6,53.4L103.1,53.4L103.1,55.1L102.1,55.1L102.1,59.6L101.1,59.6L101.1,60.6L100.6,60.6z" stroke="none"/><path d="M51,28.6L51,28.4L60.1,28.4L60.1,29.4L60.6,29.4L60.6,29.9L61.1,29.9L61.1,30.9L61.6,30.9L61.6,31.5L61.4,31.5L61.4,31.1L60.9,31.1L60.9,30.1L60.4,30.1L60.4,29.6L59.9,29.6L59.9,28.6z" stroke="none"/><path d="M56.9,88.5L57.1,88.5L57.1,88.9L58.1,88.9L58.1,89.4L59.1,89.4L59.1,89.9L61.1,89.9L61.1,90.4L62.6,90.4L62.6,97.6L62.1,97.6L62.1,98.1L61.6,98.1L61.6,98.6L61.1,98.6L61.1,99.1L60,99.1L60,98.9L60.9,98.9L60.9,98.4L61.4,98.4L61.4,97.9L61.9,97.9L61.9,97.4L62.4,97.4L62.4,90.6L60.9,90.6L60.9,90.1L58.9,90.1L58.9,89.6L57.9,89.6L57.9,89.1L56.9,89.1z" stroke="none"/><path d="M84,37.4L84,37.6L83.6,37.6L83.6,38.6L82.1,38.6L82.1,39.6L81.6,39.6L81.6,40.1L79.1,40.1L79.1,41.1L78.6,41.1L78.6,41.6L78.1,41.6L78.1,42.6L77.1,42.6L77.1,43.1L75.4,43.1L75.4,42.6L74.4,42.6L74.4,42.1L73.5,42.1L73.5,41.9L74.6,41.9L74.6,42.4L75.6,42.4L75.6,42.9L76.9,42.9L76.9,42.4L77.9,42.4L77.9,41.4L78.4,41.4L78.4,40.9L78.9,40.9L78.9,39.9L81.4,39.9L81.4,39.4L81.9,39.4L81.9,38.4L83.4,38.4L83.4,37.4z" stroke="none"/><path d="M69,58.6L69,58.4L76.1,58.4L76.1,58.9L79.1,58.9L79.1,59.4L81.9,59.4L81.9,58.1L81.4,58.1L81.4,57.6L80.9,57.6L80.9,55.1L80.4,55.1L80.4,52.1L79.4,52.1L79.4,50.6L77.9,50.6L77.9,50.1L77.4,50.1L77.4,49.6L76.5,49.6L76.5,49.4L77.6,49.4L77.6,49.9L78.1,49.9L78.1,50.4L79.6,50.4L79.6,51.9L80.6,51.9L80.6,54.9L81.1,54.9L81.1,57.4L81.6,57.4L81.6,57.9L82.1,57.9L82.1,59.6L78.9,59.6L78.9,59.1L75.9,59.1L75.9,58.6z" stroke="none"/><path d="M25.4,6L25.6,6L25.6,9.9L29.6,9.9L29.6,10.9L32.6,10.9L32.6,12.4L33.6,12.4L33.6,12.9L34.6,12.9L34.6,13.5L34.4,13.5L34.4,13.1L33.4,13.1L33.4,12.6L32.4,12.6L32.4,11.1L29.4,11.1L29.4,10.1L25.4,10.1z" stroke="none"/><path d="M84.1,66L83.9,66L83.9,61.1L82.9,61.1L82.9,60.6L74.6,60.6L74.6,61.1L74.1,61.1L74.1,62.1L73.6,62.1L73.6,63.6L73.1,63.6L73.1,64.6L72.1,64.6L72.1,66L71.9,66L71.9,64.4L72.9,64.4L72.9,63.4L73.4,63.4L73.4,61.9L73.9,61.9L73.9,60.9L74.4,60.9L74.4,60.4L83.1,60.4L83.1,60.9L84.1,60.9z" stroke="none"/><path d="M68.9,6L69.1,6L69.1,11.9L70.1,11.9L70.1,12.4L71.1,12.4L71.1,12.9L71.6,12.9L71.6,13.4L72.1,13.4L72.1,13.9L73.6,13.9L73.6,14.9L74.1,14.9L74.1,15.9L74.6,15.9L74.6,16.4L75,16.4L75,16.6L74.4,16.6L74.4,16.1L73.9,16.1L73.9,15.1L73.4,15.1L73.4,14.1L71.9,14.1L71.9,13.6L71.4,13.6L71.4,13.1L70.9,13.1L70.9,12.6L69.9,12.6L69.9,12.1L68.9,12.1z" stroke="none"/><path d="M100.4,9L100.6,9L100.6,10.4L101.1,10.4L101.1,10.9L101.6,10.9L101.6,20.9L102,20.9L102,21.1L101.4,21.1L101.4,11.1L100.9,11.1L100.9,10.6L100.4,10.6z" stroke="none"/><path d="M25.5,50.9L25.5,51.1L18.1,51.1L18.1,51.6L17.6,51.6L17.6,52.6L16.6,52.6L16.6,53.1L15.6,53.1L15.6,54.1L15.1,54.1L15.1,57L14.9,57L14.9,53.9L15.4,53.9L15.4,52.9L16.4,52.9L16.4,52.4L17.4,52.4L17.4,51.4L17.9,51.4L17.9,50.9z" stroke="none"/><path d="M30,28.4L30,28.6L18.6,28.6L18.6,29.1L18.1,29.1L18.1,30L17.9,30L17.9,28.9L18.4,28.9L18.4,28.4z" stroke="none"/><path d="M47.9,9L48.1,9L48.1,9.6L47.6,9.6L47.6,10.1L47.1,10.1L47.1,11.1L46.6,11.1L46.6,11.6L45.6,11.6L45.6,13.1L45.1,13.1L45.1,14.1L44.6,14.1L44.6,14.6L44.1,14.6L44.1,17.4L46.6,17.4L46.6,17.9L49.1,17.9L49.1,18.4L49.6,18.4L49.6,18.9L50.6,18.9L50.6,19.4L51.1,19.4L51.1,21L50.9,21L50.9,19.6L50.4,19.6L50.4,19.1L49.4,19.1L49.4,18.6L48.9,18.6L48.9,18.1L46.4,18.1L46.4,17.6L43.9,17.6L43.9,14.4L44.4,14.4L44.4,13.9L44.9,13.9L44.9,12.9L45.4,12.9L45.4,11.4L46.4,11.4L46.4,10.9L46.9,10.9L46.9,9.9L47.4,9.9L47.4,9.4L47.9,9.4z" stroke="none"/><path d="M12.1,58.5L11.9,58.5L11.9,56.4L12.9,56.4L12.9,52.9L13.4,52.9L13.4,49.9L13.9,49.9L13.9,49.4L14.4,49.4L14.4,48.9L14.9,48.9L14.9,46.5L15.1,46.5L15.1,49.1L14.6,49.1L14.6,49.6L14.1,49.6L14.1,50.1L13.6,50.1L13.6,53.1L13.1,53.1L13.1,56.6L12.1,56.6z" stroke="none"/><path d="M58.4,99L58.6,99L58.6,99.9L61.4,99.9L61.4,98.9L62.4,98.9L62.4,98.4L62.9,98.4L62.9,88.1L62.4,88.1L62.4,87.6L61.9,87.6L61.9,87.1L61.5,87.1L61.5,86.9L62.1,86.9L62.1,87.4L62.6,87.4L62.6,87.9L63.1,87.9L63.1,98.6L62.6,98.6L62.6,99.1L61.6,99.1L61.6,100.1L58.4,100.1z" stroke="none"/><path d="M3.1,30L2.9,30L2.9,23.4L4.9,23.4L4.9,22.9L5.4,22.9L5.4,22.4L5.9,22.4L5.9,20.4L6.4,20.4L6.4,18.9L6.9,18.9L6.9,17.9L7.5,17.9L7.5,18.1L7.1,18.1L7.1,19.1L6.6,19.1L6.6,20.6L6.1,20.6L6.1,22.6L5.6,22.6L5.6,23.1L5.1,23.1L5.1,23.6L3.1,23.6z" stroke="none"/><path d="M63,100.4L63,100.6L57.9,100.6L57.9,100.1L57.4,100.1L57.4,98.6L54.9,98.6L54.9,97.6L52.9,97.6L52.9,96.1L51,96.1L51,95.9L53.1,95.9L53.1,97.4L55.1,97.4L55.1,98.4L57.6,98.4L57.6,99.9L58.1,99.9L58.1,100.4z" stroke="none"/><path d="M33,2.9L33,3.1L28.1,3.1L28.1,3.6L26.1,3.6L26.1,4.6L25.6,4.6L25.6,5.1L25.1,5.1L25.1,5.6L24.6,5.6L24.6,6.9L25.1,6.9L25.1,10.1L22.6,10.1L22.6,10.5L22.4,10.5L22.4,9.9L24.9,9.9L24.9,7.1L24.4,7.1L24.4,5.4L24.9,5.4L24.9,4.9L25.4,4.9L25.4,4.4L25.9,4.4L25.9,3.4L27.9,3.4L27.9,2.9z" stroke="none"/><path d="M56.9,91.5L57.1,91.5L57.1,91.9L57.6,91.9L57.6,92.4L58.1,92.4L58.1,94.1L52.6,94.1L52.6,94.6L51.1,94.6L51.1,95.1L50.6,95.1L50.6,95.6L50.1,95.6L50.1,96.4L50.6,96.4L50.6,96.9L51.6,96.9L51.6,97.4L52.6,97.4L52.6,97.9L53.6,97.9L53.6,98.9L56.6,98.9L56.6,99.9L57.1,99.9L57.1,100.4L57.6,100.4L57.6,100.9L62.1,100.9L62.1,101.4L64.1,101.4L64.1,101.9L64.5,101.9L64.5,102.1L63.9,102.1L63.9,101.6L61.9,101.6L61.9,101.1L57.4,101.1L57.4,100.6L56.9,100.6L56.9,100.1L56.4,100.1L56.4,99.1L53.4,99.1L53.4,98.1L52.4,98.1L52.4,97.6L51.4,97.6L51.4,97.1L50.4,97.1L50.4,96.6L49.9,96.6L49.9,95.4L50.4,95.4L50.4,94.9L50.9,94.9L50.9,94.4L52.4,94.4L52.4,93.9L57.9,93.9L57.9,92.6L57.4,92.6L57.4,92.1L56.9,92.1z" stroke="none"/><path d="M21.1,45L20.9,45L20.9,44.1L20.4,44.1L20.4,43.6L19.9,43.6L19.9,37.6L17.4,37.6L17.4,37.1L14.9,37.1L14.9,35.6L14.4,35.6L14.4,35.1L13.9,35.1L13.9,34.6L13.5,34.6L13.5,34.4L14.1,34.4L14.1,34.9L14.6,34.9L14.6,35.4L15.1,35.4L15.1,36.9L17.6,36.9L17.6,37.4L20.1,37.4L20.1,43.4L20.6,43.4L20.6,43.9L21.1,43.9z" stroke="none"/><path d="M30,78.1L30,77.9L30.4,77.9L30.4,77.4L32.4,77.4L32.4,76.9L32.9,76.9L32.9,74.4L33.4,74.4L33.4,67.6L32.9,67.6L32.9,67.1L32.4,67.1L32.4,66.6L30.9,66.6L30.9,65.6L30.4,65.6L30.4,65.1L26.6,65.1L26.6,65.6L24.1,65.6L24.1,66L23.9,66L23.9,65.4L26.4,65.4L26.4,64.9L30.6,64.9L30.6,65.4L31.1,65.4L31.1,66.4L32.6,66.4L32.6,66.9L33.1,66.9L33.1,67.4L33.6,67.4L33.6,74.6L33.1,74.6L33.1,77.1L32.6,77.1L32.6,77.6L30.6,77.6L30.6,78.1z" stroke="none"/><path d="M20.9,58.5L21.1,58.5L21.1,64.1L20.1,64.1L20.1,64.6L19.6,64.6L19.6,65.1L19.1,65.1L19.1,65.6L18.6,65.6L18.6,67.6L18.1,67.6L18.1,69.6L16.6,69.6L16.6,70.6L15,70.6L15,70.4L16.4,70.4L16.4,69.4L17.9,69.4L17.9,67.4L18.4,67.4L18.4,65.4L18.9,65.4L18.9,64.9L19.4,64.9L19.4,64.4L19.9,64.4L19.9,63.9L20.9,63.9z" stroke="none"/><path d="M91.5,78.1L91.5,77.9L93.9,77.9L93.9,75.6L92.4,75.6L92.4,73.1L91.9,73.1L91.9,72.1L90.4,72.1L90.4,69.6L89.9,69.6L89.9,64.5L90.1,64.5L90.1,69.4L90.6,69.4L90.6,71.9L92.1,71.9L92.1,72.9L92.6,72.9L92.6,75.4L94.1,75.4L94.1,78.1z" stroke="none"/><path d="M58.4,22.5L58.6,22.5L58.6,25.9L59.1,25.9L59.1,27.4L59.6,27.4L59.6,27.9L60.6,27.9L60.6,28.9L61.1,28.9L61.1,29.4L61.6,29.4L61.6,29.9L62.1,29.9L62.1,30.4L62.6,30.4L62.6,35.6L60.6,35.6L60.6,36.1L60,36.1L60,35.9L60.4,35.9L60.4,35.4L62.4,35.4L62.4,30.6L61.9,30.6L61.9,30.1L61.4,30.1L61.4,29.6L60.9,29.6L60.9,29.1L60.4,29.1L60.4,28.1L59.4,28.1L59.4,27.6L58.9,27.6L58.9,26.1L58.4,26.1z" stroke="none"/><path d="M101.9,70.5L102.1,70.5L102.1,82.6L100.6,82.6L100.6,84L100.4,84L100.4,82.4L101.9,82.4z" stroke="none"/><path d="M96.1,16.5L95.9,16.5L95.9,15.6L95.4,15.6L95.4,15.1L94.4,15.1L94.4,14.6L93.9,14.6L93.9,14.1L91.9,14.1L91.9,13.6L90.9,13.6L90.9,11.1L90.4,11.1L90.4,10.6L89.9,10.6L89.9,10.1L89.4,10.1L89.4,9.6L86.6,9.6L86.6,10.1L86.1,10.1L86.1,10.6L85.6,10.6L85.6,11.1L85.1,11.1L85.1,11.6L84.6,11.6L84.6,12.1L84.1,12.1L84.1,13.6L82.5,13.6L82.5,13.4L83.9,13.4L83.9,11.9L84.4,11.9L84.4,11.4L84.9,11.4L84.9,10.9L85.4,10.9L85.4,10.4L85.9,10.4L85.9,9.9L86.4,9.9L86.4,9.4L89.6,9.4L89.6,9.9L90.1,9.9L90.1,10.4L90.6,10.4L90.6,10.9L91.1,10.9L91.1,13.4L92.1,13.4L92.1,13.9L94.1,13.9L94.1,14.4L94.6,14.4L94.6,14.9L95.6,14.9L95.6,15.4L96.1,15.4z" stroke="none"/><path d="M21,97.4L21,97.6L11.1,97.6L11.1,98.1L9.1,98.1L9.1,99.1L8.1,99.1L8.1,100.1L7.6,100.1L7.6,100.5L7.4,100.5L7.4,99.9L7.9,99.9L7.9,98.9L8.9,98.9L8.9,97.9L10.9,97.9L10.9,97.4z" stroke="none"/><path d="M4.5,82.6L4.5,82.4L16.1,82.4L16.1,84.9L17.6,84.9L17.6,85.4L18,85.4L18,85.6L17.4,85.6L17.4,85.1L15.9,85.1L15.9,82.6z" stroke="none"/><path d="M33,43.6L33,43.4L40.1,43.4L40.1,43.9L41.1,43.9L41.1,44.9L41.6,44.9L41.6,46.9L42.1,46.9L42.1,48.9L42.6,48.9L42.6,49.4L44.1,49.4L44.1,50.9L45,50.9L45,51.1L43.9,51.1L43.9,49.6L42.4,49.6L42.4,49.1L41.9,49.1L41.9,47.1L41.4,47.1L41.4,45.1L40.9,45.1L40.9,44.1L39.9,44.1L39.9,43.6z" stroke="none"/><path d="M94.6,42L94.4,42L94.4,38.9L94.9,38.9L94.9,37.9L95.4,37.9L95.4,37.4L95.9,37.4L95.9,36.9L96.4,36.9L96.4,36.4L96.9,36.4L96.9,29.9L97.4,29.9L97.4,29.4L97.9,29.4L97.9,28.9L98.9,28.9L98.9,28.5L99.1,28.5L99.1,29.1L98.1,29.1L98.1,29.6L97.6,29.6L97.6,30.1L97.1,30.1L97.1,36.6L96.6,36.6L96.6,37.1L96.1,37.1L96.1,37.6L95.6,37.6L95.6,38.1L95.1,38.1L95.1,39.1L94.6,39.1z" stroke="none"/><path d="M94.6,91.5L94.4,91.5L94.4,84.6L93.9,84.6L93.9,83.1L92.9,83.1L92.9,82.6L91.9,82.6L91.9,82.1L91.4,82.1L91.4,80.6L90.9,80.6L90.9,80.1L89.9,80.1L89.9,79.1L88.9,79.1L88.9,78.6L88.4,78.6L88.4,78L88.6,78L88.6,78.4L89.1,78.4L89.1,78.9L90.1,78.9L90.1,79.9L91.1,79.9L91.1,80.4L91.6,80.4L91.6,81.9L92.1,81.9L92.1,82.4L93.1,82.4L93.1,82.9L94.1,82.9L94.1,84.4L94.6,84.4z" stroke="none"/><path d="M102,53.9L102,54.1L101.4,54.1L101.4,51.6L100.9,51.6L100.9,49.9L102.6,49.9L102.6,50.4L103.1,50.4L103.1,52.9L103.6,52.9L103.6,66.6L103.1,66.6L103.1,68.6L96.9,68.6L96.9,68.1L95.9,68.1L95.9,67.5L96.1,67.5L96.1,67.9L97.1,67.9L97.1,68.4L102.9,68.4L102.9,66.4L103.4,66.4L103.4,53.1L102.9,53.1L102.9,50.6L102.4,50.6L102.4,50.1L101.1,50.1L101.1,51.4L101.6,51.4L101.6,53.9z" stroke="none"/><path d="M51.1,72L50.9,72L50.9,70.4L51.9,70.4L51.9,68.4L52.9,68.4L52.9,67.9L53.4,67.9L53.4,66.1L52.9,66.1L52.9,65.6L52.4,65.6L52.4,65.1L51.4,65.1L51.4,62.4L51.9,62.4L51.9,61.4L53.9,61.4L53.9,60.4L54.4,60.4L54.4,58.4L57,58.4L57,58.6L54.6,58.6L54.6,60.6L54.1,60.6L54.1,61.6L52.1,61.6L52.1,62.6L51.6,62.6L51.6,64.9L52.6,64.9L52.6,65.4L53.1,65.4L53.1,65.9L53.6,65.9L53.6,68.1L53.1,68.1L53.1,68.6L52.1,68.6L52.1,70.6L51.1,70.6z" stroke="none"/><path d="M92.9,15L93.1,15L93.1,15.4L94.1,15.4L94.1,15.9L95.1,15.9L95.1,16.9L95.6,16.9L95.6,17.4L96.9,17.4L96.9,15.6L96.4,15.6L96.4,14.6L94.9,14.6L94.9,14.1L94.4,14.1L94.4,13.6L92.9,13.6L92.9,13.1L92.4,13.1L92.4,12.6L91.9,12.6L91.9,12.1L91.4,12.1L91.4,10.6L90.9,10.6L90.9,9.6L89.9,9.6L89.9,9.1L79.5,9.1L79.5,8.9L90.1,8.9L90.1,9.4L91.1,9.4L91.1,10.4L91.6,10.4L91.6,11.9L92.1,11.9L92.1,12.4L92.6,12.4L92.6,12.9L93.1,12.9L93.1,13.4L94.6,13.4L94.6,13.9L95.1,13.9L95.1,14.4L96.6,14.4L96.6,15.4L97.1,15.4L97.1,17.6L95.4,17.6L95.4,17.1L94.9,17.1L94.9,16.1L93.9,16.1L93.9,15.6L92.9,15.6z" stroke="none"/><path d="M58.4,30L58.6,30L58.6,30.6L58.1,30.6L58.1,31.1L57.6,31.1L57.6,35.1L56.6,35.1L56.6,37.1L55.6,37.1L55.6,37.6L55.1,37.6L55.1,38.1L53.6,38.1L53.6,38.6L53.1,38.6L53.1,40.1L52.6,40.1L52.6,40.6L48,40.6L48,40.4L52.4,40.4L52.4,39.9L52.9,39.9L52.9,38.4L53.4,38.4L53.4,37.9L54.9,37.9L54.9,37.4L55.4,37.4L55.4,36.9L56.4,36.9L56.4,34.9L57.4,34.9L57.4,30.9L57.9,30.9L57.9,30.4L58.4,30.4z" stroke="none"/><path d="M28.5,55.6L28.5,55.4L29.1,55.4L29.1,55.9L29.6,55.9L29.6,56.4L30.1,56.4L30.1,57.4L31.6,57.4L31.6,57.9L32.1,57.9L32.1,59.9L33.6,59.9L33.6,60.9L34.1,60.9L34.1,62.6L31.9,62.6L31.9,62.1L27.1,62.1L27.1,62.6L25.6,62.6L25.6,63.1L25.1,63.1L25.1,63.6L24.6,63.6L24.6,64.1L23.6,64.1L23.6,65.1L23.1,65.1L23.1,67.9L25.6,67.9L25.6,68.9L27.1,68.9L27.1,69.4L28.6,69.4L28.6,70.5L28.4,70.5L28.4,69.6L26.9,69.6L26.9,69.1L25.4,69.1L25.4,68.1L22.9,68.1L22.9,64.9L23.4,64.9L23.4,63.9L24.4,63.9L24.4,63.4L24.9,63.4L24.9,62.9L25.4,62.9L25.4,62.4L26.9,62.4L26.9,61.9L32.1,61.9L32.1,62.4L33.9,62.4L33.9,61.1L33.4,61.1L33.4,60.1L31.9,60.1L31.9,58.1L31.4,58.1L31.4,57.6L29.9,57.6L29.9,56.6L29.4,56.6L29.4,56.1L28.9,56.1L28.9,55.6z" stroke="none"/><path d="M19.5,101.9L19.5,102.1L4.5,102.1L4.5,101.9z" stroke="none"/><path d="M6,3.1L6,2.9L21,2.9L21,3.1z" stroke="none"/><path d="M6.1,99L5.9,99L5.9,98.4L6.4,98.4L6.4,97.9L6.9,97.9L6.9,97.4L9.9,97.4L9.9,96.9L11.9,96.9L11.9,95.9L13.9,95.9L13.9,95.4L15.4,95.4L15.4,94.4L15.9,94.4L15.9,93.9L16.4,93.9L16.4,92.9L16.9,92.9L16.9,89.9L18,89.9L18,90.1L17.1,90.1L17.1,93.1L16.6,93.1L16.6,94.1L16.1,94.1L16.1,94.6L15.6,94.6L15.6,95.6L14.1,95.6L14.1,96.1L12.1,96.1L12.1,97.1L10.1,97.1L10.1,97.6L7.1,97.6L7.1,98.1L6.6,98.1L6.6,98.6L6.1,98.6z" stroke="none"/><path d="M6.1,61.5L5.9,61.5L5.9,48.1L4.4,48.1L4.4,47.6L3.9,47.6L3.9,47.1L3.4,47.1L3.4,46.6L3,46.6L3,46.4L3.6,46.4L3.6,46.9L4.1,46.9L4.1,47.4L4.6,47.4L4.6,47.9L6.1,47.9z" stroke="none"/><path d="M72.1,19.5L71.9,19.5L71.9,15.1L71.4,15.1L71.4,14.1L70.9,14.1L70.9,13.6L70.4,13.6L70.4,13.1L68.9,13.1L68.9,12.6L68.4,12.6L68.4,6.6L67.9,6.6L67.9,4.9L68.4,4.9L68.4,4.4L69,4.4L69,4.6L68.6,4.6L68.6,5.1L68.1,5.1L68.1,6.4L68.6,6.4L68.6,12.4L69.1,12.4L69.1,12.9L70.6,12.9L70.6,13.4L71.1,13.4L71.1,13.9L71.6,13.9L71.6,14.9L72.1,14.9z" stroke="none"/><path d="M97.4,99L97.6,99L97.6,101.6L97.1,101.6L97.1,102.6L96.6,102.6L96.6,103.1L86.4,103.1L86.4,102.6L85.4,102.6L85.4,102.1L82.5,102.1L82.5,101.9L85.6,101.9L85.6,102.4L86.6,102.4L86.6,102.9L96.4,102.9L96.4,102.4L96.9,102.4L96.9,101.4L97.4,101.4z" stroke="none"/><path d="M7.4,52.5L7.6,52.5L7.6,53.1L7.1,53.1L7.1,53.6L6.6,53.6L6.6,60.4L7.1,60.4L7.1,65.6L5.6,65.6L5.6,66.1L5.1,66.1L5.1,66.6L4.6,66.6L4.6,67.5L4.4,67.5L4.4,66.4L4.9,66.4L4.9,65.9L5.4,65.9L5.4,65.4L6.9,65.4L6.9,60.6L6.4,60.6L6.4,53.4L6.9,53.4L6.9,52.9L7.4,52.9z" stroke="none"/><path d="M43.5,84.1L43.5,83.9L43.9,83.9L43.9,83.4L44.4,83.4L44.4,82.9L50.6,82.9L50.6,83.4L52.9,83.4L52.9,82.9L54.4,82.9L54.4,81.9L55.4,81.9L55.4,81.4L55.9,81.4L55.9,80.9L58.5,80.9L58.5,81.1L56.1,81.1L56.1,81.6L55.6,81.6L55.6,82.1L54.6,82.1L54.6,83.1L53.1,83.1L53.1,83.6L50.4,83.6L50.4,83.1L44.6,83.1L44.6,83.6L44.1,83.6L44.1,84.1z" stroke="none"/><path d="M82.4,61.5L82.6,61.5L82.6,64.4L83.1,64.4L83.1,66.4L83.6,66.4L83.6,66.9L84.4,66.9L84.4,66.4L84.9,66.4L84.9,60.1L73.6,60.1L73.6,61.6L73.1,61.6L73.1,62.1L72.6,62.1L72.6,62.6L72.1,62.6L72.1,63.6L71.6,63.6L71.6,65.1L71.1,65.1L71.1,67.1L70.6,67.1L70.6,67.6L69.6,67.6L69.6,68.6L69.1,68.6L69.1,69L68.9,69L68.9,68.4L69.4,68.4L69.4,67.4L70.4,67.4L70.4,66.9L70.9,66.9L70.9,64.9L71.4,64.9L71.4,63.4L71.9,63.4L71.9,62.4L72.4,62.4L72.4,61.9L72.9,61.9L72.9,61.4L73.4,61.4L73.4,59.9L85.1,59.9L85.1,66.6L84.6,66.6L84.6,67.1L83.4,67.1L83.4,66.6L82.9,66.6L82.9,64.6L82.4,64.6z" stroke="none"/><path d="M20.9,93L21.1,93L21.1,95.4L21.6,95.4L21.6,96.9L22.1,96.9L22.1,98.6L13.6,98.6L13.6,99.1L11.1,99.1L11.1,99.6L8.6,99.6L8.6,101.1L8.1,101.1L8.1,101.6L5.4,101.6L5.4,101.1L4.1,101.1L4.1,101.6L3.6,101.6L3.6,102.4L4.1,102.4L4.1,102.9L28.9,102.9L28.9,101.9L29.4,101.9L29.4,101.4L31.4,101.4L31.4,99.4L32.9,99.4L32.9,97.9L33.4,97.9L33.4,97.4L36,97.4L36,97.6L33.6,97.6L33.6,98.1L33.1,98.1L33.1,99.6L31.6,99.6L31.6,101.6L29.6,101.6L29.6,102.1L29.1,102.1L29.1,103.1L3.9,103.1L3.9,102.6L3.4,102.6L3.4,101.4L3.9,101.4L3.9,100.9L5.6,100.9L5.6,101.4L7.9,101.4L7.9,100.9L8.4,100.9L8.4,99.4L10.9,99.4L10.9,98.9L13.4,98.9L13.4,98.4L21.9,98.4L21.9,97.1L21.4,97.1L21.4,95.6L20.9,95.6z" stroke="none"/><path d="M9.1,21L8.9,21L8.9,17.6L7.9,17.6L7.9,17.1L7.1,17.1L7.1,17.6L6.6,17.6L6.6,18.1L6.1,18.1L6.1,19.1L5.6,19.1L5.6,19.6L4.6,19.6L4.6,20.6L4.1,20.6L4.1,21.6L3.6,21.6L3.6,22.1L3.1,22.1L3.1,23.1L2.6,23.1L2.6,28.6L2.1,28.6L2.1,31.6L1.6,31.6L1.6,34.9L2.6,34.9L2.6,35.4L3.6,35.4L3.6,35.9L4.5,35.9L4.5,36.1L3.4,36.1L3.4,35.6L2.4,35.6L2.4,35.1L1.4,35.1L1.4,31.4L1.9,31.4L1.9,28.4L2.4,28.4L2.4,22.9L2.9,22.9L2.9,21.9L3.4,21.9L3.4,21.4L3.9,21.4L3.9,20.4L4.4,20.4L4.4,19.4L5.4,19.4L5.4,18.9L5.9,18.9L5.9,17.9L6.4,17.9L6.4,17.4L6.9,17.4L6.9,16.9L8.1,16.9L8.1,17.4L9.1,17.4z" stroke="none"/><path d="M31.5,16.6L31.5,16.4L31.9,16.4L31.9,15.4L32.4,15.4L32.4,14.6L31.9,14.6L31.9,14.1L30.6,14.1L30.6,14.6L27.4,14.6L27.4,13.1L24.9,13.1L24.9,12.6L19.9,12.6L19.9,11.6L18.9,11.6L18.9,11.1L17.4,11.1L17.4,10.6L16.5,10.6L16.5,10.4L17.6,10.4L17.6,10.9L19.1,10.9L19.1,11.4L20.1,11.4L20.1,12.4L25.1,12.4L25.1,12.9L27.6,12.9L27.6,14.4L30.4,14.4L30.4,13.9L32.1,13.9L32.1,14.4L32.6,14.4L32.6,15.6L32.1,15.6L32.1,16.6z" stroke="none"/><path d="M3,69.1L3,68.9L5.4,68.9L5.4,66.4L6.9,66.4L6.9,65.9L7.4,65.9L7.4,60.9L7.9,60.9L7.9,56.9L8.4,56.9L8.4,53.4L9.9,53.4L9.9,52.9L11.1,52.9L11.1,53.4L11.6,53.4L11.6,54.9L12.1,54.9L12.1,55.5L11.9,55.5L11.9,55.1L11.4,55.1L11.4,53.6L10.9,53.6L10.9,53.1L10.1,53.1L10.1,53.6L8.6,53.6L8.6,57.1L8.1,57.1L8.1,61.1L7.6,61.1L7.6,66.1L7.1,66.1L7.1,66.6L5.6,66.6L5.6,69.1z" stroke="none"/><path d="M6,4.6L6,4.4L22.5,4.4L22.5,4.6z" stroke="none"/><path d="M24,99.1L24,98.9L24.6,98.9L24.6,99.4L25.1,99.4L25.1,100.9L26.6,100.9L26.6,101.4L28.4,101.4L28.4,100.9L29.4,100.9L29.4,100.4L30.9,100.4L30.9,96.9L34.9,96.9L34.9,96.4L38.6,96.4L38.6,96.9L40.6,96.9L40.6,97.5L40.4,97.5L40.4,97.1L38.4,97.1L38.4,96.6L35.1,96.6L35.1,97.1L31.1,97.1L31.1,100.6L29.6,100.6L29.6,101.1L28.6,101.1L28.6,101.6L26.4,101.6L26.4,101.1L24.9,101.1L24.9,99.6L24.4,99.6L24.4,99.1z" stroke="none"/><path d="M76.5,4.6L76.5,4.4L81.4,4.4L81.4,3.9L81.9,3.9L81.9,3.4L86.9,3.4L86.9,2.4L87.9,2.4L87.9,1.9L90.6,1.9L90.6,3.4L91.1,3.4L91.1,3.9L92.6,3.9L92.6,4.9L93.1,4.9L93.1,6L92.9,6L92.9,5.1L92.4,5.1L92.4,4.1L90.9,4.1L90.9,3.6L90.4,3.6L90.4,2.1L88.1,2.1L88.1,2.6L87.1,2.6L87.1,3.6L82.1,3.6L82.1,4.1L81.6,4.1L81.6,4.6z" stroke="none"/><path d="M61.6,54L61.4,54L61.4,41.9L64.4,41.9L64.4,40.4L64.9,40.4L64.9,39.4L65.4,39.4L65.4,38.1L56.1,38.1L56.1,38.6L55.6,38.6L55.6,39.1L54,39.1L54,38.9L55.4,38.9L55.4,38.4L55.9,38.4L55.9,37.9L65.6,37.9L65.6,39.6L65.1,39.6L65.1,40.6L64.6,40.6L64.6,42.1L61.6,42.1z" stroke="none"/><path d="M51,16.6L51,16.4L53.9,16.4L53.9,15.4L54.4,15.4L54.4,14.4L55.4,14.4L55.4,13.9L55.9,13.9L55.9,13.4L60.9,13.4L60.9,10.4L61.9,10.4L61.9,9.4L62.9,9.4L62.9,8.9L63.4,8.9L63.4,7.9L63.9,7.9L63.9,6.4L64.4,6.4L64.4,6L64.6,6L64.6,6.6L64.1,6.6L64.1,8.1L63.6,8.1L63.6,9.1L63.1,9.1L63.1,9.6L62.1,9.6L62.1,10.6L61.1,10.6L61.1,13.6L56.1,13.6L56.1,14.1L55.6,14.1L55.6,14.6L54.6,14.6L54.6,15.6L54.1,15.6L54.1,16.6z" stroke="none"/><path d="M84.1,75L83.9,75L83.9,74.1L82.9,74.1L82.9,73.6L69.9,73.6L69.9,71.6L69.4,71.6L69.4,70.1L68.4,70.1L68.4,69.6L67.9,69.6L67.9,64.9L68.4,64.9L68.4,64.4L69.9,64.4L69.9,63.4L70.4,63.4L70.4,63L70.6,63L70.6,63.6L70.1,63.6L70.1,64.6L68.6,64.6L68.6,65.1L68.1,65.1L68.1,69.4L68.6,69.4L68.6,69.9L69.6,69.9L69.6,71.4L70.1,71.4L70.1,73.4L83.1,73.4L83.1,73.9L84.1,73.9z" stroke="none"/><path d="M45,56.9L45,57.1L32.9,57.1L32.9,55.1L28.9,55.1L28.9,54.6L28.1,54.6L28.1,55.1L27.6,55.1L27.6,58.1L27.1,58.1L27.1,58.5L26.9,58.5L26.9,57.9L27.4,57.9L27.4,54.9L27.9,54.9L27.9,54.4L29.1,54.4L29.1,54.9L33.1,54.9L33.1,56.9z" stroke="none"/><path d="M102,95.9L102,96.1L98.9,96.1L98.9,94.1L98.4,94.1L98.4,93.1L97.4,93.1L97.4,92.6L96.4,92.6L96.4,87.6L95.9,87.6L95.9,87.1L95.4,87.1L95.4,86.1L94.9,86.1L94.9,80.1L94.4,80.1L94.4,79.5L94.6,79.5L94.6,79.9L95.1,79.9L95.1,85.9L95.6,85.9L95.6,86.9L96.1,86.9L96.1,87.4L96.6,87.4L96.6,92.4L97.6,92.4L97.6,92.9L98.6,92.9L98.6,93.9L99.1,93.9L99.1,95.9z" stroke="none"/><path d="M91.6,88.5L91.4,88.5L91.4,82.6L89.4,82.6L89.4,82.1L88.9,82.1L88.9,81.6L87.4,81.6L87.4,80.1L86.9,80.1L86.9,76.6L86.4,76.6L86.4,76.1L85.9,76.1L85.9,74.1L84.9,74.1L84.9,73.1L84.4,73.1L84.4,72.1L84,72.1L84,71.9L84.6,71.9L84.6,72.9L85.1,72.9L85.1,73.9L86.1,73.9L86.1,75.9L86.6,75.9L86.6,76.4L87.1,76.4L87.1,79.9L87.6,79.9L87.6,81.4L89.1,81.4L89.1,81.9L89.6,81.9L89.6,82.4L91.6,82.4z" stroke="none"/><path d="M31.6,21L31.4,21L31.4,17.9L31.9,17.9L31.9,17.4L32.4,17.4L32.4,16.4L32.9,16.4L32.9,14.1L32.4,14.1L32.4,13.6L31.4,13.6L31.4,12.6L29.9,12.6L29.9,11.6L28.9,11.6L28.9,11.1L23.6,11.1L23.6,11.6L21.4,11.6L21.4,8.6L20.4,8.6L20.4,8.1L19.4,8.1L19.4,6.6L18.4,6.6L18.4,6.1L15.9,6.1L15.9,5.6L15.4,5.6L15.4,5.1L8.1,5.1L8.1,5.6L7.6,5.6L7.6,6.1L6.6,6.1L6.6,13.1L6.1,13.1L6.1,16.6L5.6,16.6L5.6,18.1L4.6,18.1L4.6,18.6L4.1,18.6L4.1,20.1L3.1,20.1L3.1,20.6L2.6,20.6L2.6,22.6L2.1,22.6L2.1,27.6L1.6,27.6L1.6,30.6L1.1,30.6L1.1,35.9L2.1,35.9L2.1,36.9L5.6,36.9L5.6,37.4L6.1,37.4L6.1,37.9L6.6,37.9L6.6,39.4L7.6,39.4L7.6,39.9L8.6,39.9L8.6,40.4L9.1,40.4L9.1,40.9L9.6,40.9L9.6,41.4L10.9,41.4L10.9,40.9L11.4,40.9L11.4,39.1L10.9,39.1L10.9,38.6L8.9,38.6L8.9,37.1L8.4,37.1L8.4,36.6L6.9,36.6L6.9,35.1L6.4,35.1L6.4,26.4L7.4,26.4L7.4,25.9L11.9,25.9L11.9,25.4L12.4,25.4L12.4,24.4L13.4,24.4L13.4,24L13.6,24L13.6,24.6L12.6,24.6L12.6,25.6L12.1,25.6L12.1,26.1L7.6,26.1L7.6,26.6L6.6,26.6L6.6,34.9L7.1,34.9L7.1,36.4L8.6,36.4L8.6,36.9L9.1,36.9L9.1,38.4L11.1,38.4L11.1,38.9L11.6,38.9L11.6,41.1L11.1,41.1L11.1,41.6L9.4,41.6L9.4,41.1L8.9,41.1L8.9,40.6L8.4,40.6L8.4,40.1L7.4,40.1L7.4,39.6L6.4,39.6L6.4,38.1L5.9,38.1L5.9,37.6L5.4,37.6L5.4,37.1L1.9,37.1L1.9,36.1L0.9,36.1L0.9,30.4L1.4,30.4L1.4,27.4L1.9,27.4L1.9,22.4L2.4,22.4L2.4,20.4L2.9,20.4L2.9,19.9L3.9,19.9L3.9,18.4L4.4,18.4L4.4,17.9L5.4,17.9L5.4,16.4L5.9,16.4L5.9,12.9L6.4,12.9L6.4,5.9L7.4,5.9L7.4,5.4L7.9,5.4L7.9,4.9L15.6,4.9L15.6,5.4L16.1,5.4L16.1,5.9L18.6,5.9L18.6,6.4L19.6,6.4L19.6,7.9L20.6,7.9L20.6,8.4L21.6,8.4L21.6,11.4L23.4,11.4L23.4,10.9L29.1,10.9L29.1,11.4L30.1,11.4L30.1,12.4L31.6,12.4L31.6,13.4L32.6,13.4L32.6,13.9L33.1,13.9L33.1,16.6L32.6,16.6L32.6,17.6L32.1,17.6L32.1,18.1L31.6,18.1z" stroke="none"/><path d="M102.1,99L101.9,99L101.9,97.6L99.9,97.6L99.9,97.1L98.4,97.1L98.4,95.1L96.9,95.1L96.9,94.1L96.4,94.1L96.4,93.6L95.9,93.6L95.9,93.1L94.4,93.1L94.4,92.6L93.4,92.6L93.4,90.6L88.4,90.6L88.4,89.6L87.4,89.6L87.4,89.1L86.9,89.1L86.9,88.5L87.1,88.5L87.1,88.9L87.6,88.9L87.6,89.4L88.6,89.4L88.6,90.4L93.6,90.4L93.6,92.4L94.6,92.4L94.6,92.9L96.1,92.9L96.1,93.4L96.6,93.4L96.6,93.9L97.1,93.9L97.1,94.9L98.6,94.9L98.6,96.9L100.1,96.9L100.1,97.4L102.1,97.4z" stroke="none"/><path d="M81,3.1L81,2.9L84.4,2.9L84.4,2.4L86.4,2.4L86.4,1.9L86.9,1.9L86.9,1.4L93.1,1.4L93.1,1.9L94.1,1.9L94.1,2.9L95.6,2.9L95.6,3.4L97.1,3.4L97.1,8.9L97.6,8.9L97.6,12L97.4,12L97.4,9.1L96.9,9.1L96.9,3.6L95.4,3.6L95.4,3.1L93.9,3.1L93.9,2.1L92.9,2.1L92.9,1.6L87.1,1.6L87.1,2.1L86.6,2.1L86.6,2.6L84.6,2.6L84.6,3.1z" stroke="none"/><path d="M34.5,51.1L34.5,50.9L35.1,50.9L35.1,51.4L37.1,51.4L37.1,53.1L36.6,53.1L36.6,53.6L31.9,53.6L31.9,52.1L31.4,52.1L31.4,51.1L27.9,51.1L27.9,50.6L25.9,50.6L25.9,50.1L20.9,50.1L20.9,49.6L20.4,49.6L20.4,48.6L19.9,48.6L19.9,48.1L18.4,48.1L18.4,45.1L16.5,45.1L16.5,44.9L18.6,44.9L18.6,47.9L20.1,47.9L20.1,48.4L20.6,48.4L20.6,49.4L21.1,49.4L21.1,49.9L26.1,49.9L26.1,50.4L28.1,50.4L28.1,50.9L31.6,50.9L31.6,51.9L32.1,51.9L32.1,53.4L36.4,53.4L36.4,52.9L36.9,52.9L36.9,51.6L34.9,51.6L34.9,51.1z" stroke="none"/><path d="M22.5,6.1L22.5,5.9L22.9,5.9L22.9,5.4L23.4,5.4L23.4,1.9L37.1,1.9L37.1,3.9L37.6,3.9L37.6,4.4L38.1,4.4L38.1,5.9L38.6,5.9L38.6,6.4L39.6,6.4L39.6,7.9L40.1,7.9L40.1,9.4L41.1,9.4L41.1,9.9L41.6,9.9L41.6,11.6L40.6,11.6L40.6,12L40.4,12L40.4,11.4L41.4,11.4L41.4,10.1L40.9,10.1L40.9,9.6L39.9,9.6L39.9,8.1L39.4,8.1L39.4,6.6L38.4,6.6L38.4,6.1L37.9,6.1L37.9,4.6L37.4,4.6L37.4,4.1L36.9,4.1L36.9,2.1L23.6,2.1L23.6,5.6L23.1,5.6L23.1,6.1z" stroke="none"/><path d="M71.9,49.5L72.1,49.5L72.1,55.9L72.6,55.9L72.6,56.4L73.1,56.4L73.1,57.6L72.6,57.6L72.6,58.1L70.9,58.1L70.9,57.6L68.1,57.6L68.1,61.1L67.6,61.1L67.6,62.6L66.6,62.6L66.6,63.1L65.6,63.1L65.6,63.6L65.1,63.6L65.1,64.1L62.9,64.1L62.9,63.6L59.4,63.6L59.4,63.1L58.5,63.1L58.5,62.9L59.6,62.9L59.6,63.4L63.1,63.4L63.1,63.9L64.9,63.9L64.9,63.4L65.4,63.4L65.4,62.9L66.4,62.9L66.4,62.4L67.4,62.4L67.4,60.9L67.9,60.9L67.9,57.4L71.1,57.4L71.1,57.9L72.4,57.9L72.4,57.4L72.9,57.4L72.9,56.6L72.4,56.6L72.4,56.1L71.9,56.1z" stroke="none"/><path d="M46.4,100.5L46.6,100.5L46.6,100.9L47.6,100.9L47.6,101.4L61.1,101.4L61.1,101.9L63.1,101.9L63.1,102.4L63.6,102.4L63.6,102.9L65.4,102.9L65.4,95.1L64.9,95.1L64.9,93.6L64.4,93.6L64.4,89.1L63.9,89.1L63.9,88.1L63.4,88.1L63.4,87.1L62.4,87.1L62.4,86.6L61.9,86.6L61.9,86.1L61.1,86.1L61.1,86.6L60.6,86.6L60.6,87.4L61.1,87.4L61.1,87.9L61.6,87.9L61.6,88.5L61.4,88.5L61.4,88.1L60.9,88.1L60.9,87.6L60.4,87.6L60.4,86.4L60.9,86.4L60.9,85.9L62.1,85.9L62.1,86.4L62.6,86.4L62.6,86.9L63.6,86.9L63.6,87.9L64.1,87.9L64.1,88.9L64.6,88.9L64.6,93.4L65.1,93.4L65.1,94.9L65.6,94.9L65.6,103.1L63.4,103.1L63.4,102.6L62.9,102.6L62.9,102.1L60.9,102.1L60.9,101.6L47.4,101.6L47.4,101.1L46.4,101.1z" stroke="none"/><path d="M78.1,36L77.9,36L77.9,33.1L77.4,33.1L77.4,32.1L71.6,32.1L71.6,32.6L71.1,32.6L71.1,33.1L70.6,33.1L70.6,33.6L68.6,33.6L68.6,35.1L68.1,35.1L68.1,35.6L65.9,35.6L65.9,28.6L64.9,28.6L64.9,27.1L63.9,27.1L63.9,26.6L62.4,26.6L62.4,26.1L61.9,26.1L61.9,24.9L62.4,24.9L62.4,24.4L65.9,24.4L65.9,23.9L66.9,23.9L66.9,22.9L68.4,22.9L68.4,20.4L68.9,20.4L68.9,19.9L69.4,19.9L69.4,18.4L69.9,18.4L69.9,17.9L70.5,17.9L70.5,18.1L70.1,18.1L70.1,18.6L69.6,18.6L69.6,20.1L69.1,20.1L69.1,20.6L68.6,20.6L68.6,23.1L67.1,23.1L67.1,24.1L66.1,24.1L66.1,24.6L62.6,24.6L62.6,25.1L62.1,25.1L62.1,25.9L62.6,25.9L62.6,26.4L64.1,26.4L64.1,26.9L65.1,26.9L65.1,28.4L66.1,28.4L66.1,35.4L67.9,35.4L67.9,34.9L68.4,34.9L68.4,33.4L70.4,33.4L70.4,32.9L70.9,32.9L70.9,32.4L71.4,32.4L71.4,31.9L77.6,31.9L77.6,32.9L78.1,32.9z" stroke="none"/><path d="M101.9,7.5L102.1,7.5L102.1,19.9L103.1,19.9L103.1,22.6L102.6,22.6L102.6,23.1L102.1,23.1L102.1,23.6L99.4,23.6L99.4,20.6L98.9,20.6L98.9,18.6L94.4,18.6L94.4,17.1L92.4,17.1L92.4,16.1L86.4,16.1L86.4,15.6L85.9,15.6L85.9,15.1L84,15.1L84,14.9L86.1,14.9L86.1,15.4L86.6,15.4L86.6,15.9L92.6,15.9L92.6,16.9L94.6,16.9L94.6,18.4L99.1,18.4L99.1,20.4L99.6,20.4L99.6,23.4L101.9,23.4L101.9,22.9L102.4,22.9L102.4,22.4L102.9,22.4L102.9,20.1L101.9,20.1z" stroke="none"/><path d="M42,2.9L42,3.1L41.4,3.1L41.4,2.6L39.4,2.6L39.4,2.1L37.4,2.1L37.4,1.6L23.1,1.6L23.1,3.1L22.5,3.1L22.5,2.9L22.9,2.9L22.9,1.4L37.6,1.4L37.6,1.9L39.6,1.9L39.6,2.4L41.6,2.4L41.6,2.9z" stroke="none"/><path d="M100.4,70.5L100.6,70.5L100.6,82.1L100.1,82.1L100.1,83.6L99.6,83.6L99.6,89.4L100.6,89.4L100.6,90L100.4,90L100.4,89.6L99.4,89.6L99.4,83.4L99.9,83.4L99.9,81.9L100.4,81.9z" stroke="none"/><path d="M47.9,91.5L48.1,91.5L48.1,96.6L47.1,96.6L47.1,97.1L46.6,97.1L46.6,97.6L46.1,97.6L46.1,98.6L44.6,98.6L44.6,99.6L44.1,99.6L44.1,100.1L42.9,100.1L42.9,99.6L42.4,99.6L42.4,96.6L41.4,96.6L41.4,96.1L37.4,96.1L37.4,95.6L36.9,95.6L36.9,95.1L36.4,95.1L36.4,92.6L35.9,92.6L35.9,89.6L35.4,89.6L35.4,87.1L33.9,87.1L33.9,86.6L33.4,86.6L33.4,83.6L32.9,83.6L32.9,82.6L31.9,82.6L31.9,81.1L31.5,81.1L31.5,80.9L32.1,80.9L32.1,82.4L33.1,82.4L33.1,83.4L33.6,83.4L33.6,86.4L34.1,86.4L34.1,86.9L35.6,86.9L35.6,89.4L36.1,89.4L36.1,92.4L36.6,92.4L36.6,94.9L37.1,94.9L37.1,95.4L37.6,95.4L37.6,95.9L41.6,95.9L41.6,96.4L42.6,96.4L42.6,99.4L43.1,99.4L43.1,99.9L43.9,99.9L43.9,99.4L44.4,99.4L44.4,98.4L45.9,98.4L45.9,97.4L46.4,97.4L46.4,96.9L46.9,96.9L46.9,96.4L47.9,96.4z" stroke="none"/><path d="M48.1,100.5L47.9,100.5L47.9,100.1L46.9,100.1L46.9,99.6L45.6,99.6L45.6,100.9L46.1,100.9L46.1,101.4L46.6,101.4L46.6,101.9L59.6,101.9L59.6,102.4L61.6,102.4L61.6,102.9L62.1,102.9L62.1,103.4L66.9,103.4L66.9,102.4L67.4,102.4L67.4,102L67.6,102L67.6,102.6L67.1,102.6L67.1,103.6L61.9,103.6L61.9,103.1L61.4,103.1L61.4,102.6L59.4,102.6L59.4,102.1L46.4,102.1L46.4,101.6L45.9,101.6L45.9,101.1L45.4,101.1L45.4,99.4L47.1,99.4L47.1,99.9L48.1,99.9z" stroke="none"/><path d="M75,24.1L75,23.9L76.9,23.9L76.9,22.9L93.4,22.9L93.4,22.4L94.5,22.4L94.5,22.6L93.6,22.6L93.6,23.1L77.1,23.1L77.1,24.1z" stroke="none"/><path d="M102.1,102L101.9,102L101.9,99.9L102.4,99.9L102.4,99.4L102.9,99.4L102.9,70.1L102.4,70.1L102.4,69.6L100.1,69.6L100.1,70.1L99.6,70.1L99.6,72.9L100.1,72.9L100.1,80.1L99.6,80.1L99.6,80.6L99.1,80.6L99.1,82.5L98.9,82.5L98.9,80.4L99.4,80.4L99.4,79.9L99.9,79.9L99.9,73.1L99.4,73.1L99.4,69.9L99.9,69.9L99.9,69.4L102.6,69.4L102.6,69.9L103.1,69.9L103.1,99.6L102.6,99.6L102.6,100.1L102.1,100.1z" stroke="none"/><path d="M91.5,8.9L91.5,9.1L90.9,9.1L90.9,8.6L79.9,8.6L79.9,8.1L73.1,8.1L73.1,8.6L70.9,8.6L70.9,6.4L71.4,6.4L71.4,5.9L72,5.9L72,6.1L71.6,6.1L71.6,6.6L71.1,6.6L71.1,8.4L72.9,8.4L72.9,7.9L80.1,7.9L80.1,8.4L91.1,8.4L91.1,8.9z" stroke="none"/><path d="M66,91.6L66,91.4L71.9,91.4L71.9,89.9L72.9,89.9L72.9,88.4L73.4,88.4L73.4,87.9L74.4,87.9L74.4,87.4L74.9,87.4L74.9,86.9L75.4,86.9L75.4,85.9L75.9,85.9L75.9,84.4L76.4,84.4L76.4,83.4L76.9,83.4L76.9,82.9L77.4,82.9L77.4,82.4L77.9,82.4L77.9,77.9L78.4,77.9L78.4,76.9L78.9,76.9L78.9,75.6L77.9,75.6L77.9,75L78.1,75L78.1,75.4L79.1,75.4L79.1,77.1L78.6,77.1L78.6,78.1L78.1,78.1L78.1,82.6L77.6,82.6L77.6,83.1L77.1,83.1L77.1,83.6L76.6,83.6L76.6,84.6L76.1,84.6L76.1,86.1L75.6,86.1L75.6,87.1L75.1,87.1L75.1,87.6L74.6,87.6L74.6,88.1L73.6,88.1L73.6,88.6L73.1,88.6L73.1,90.1L72.1,90.1L72.1,91.6z" stroke="none"/><path d="M15.1,34.5L14.9,34.5L14.9,34.1L13.9,34.1L13.9,33.6L13.1,33.6L13.1,34.1L12.6,34.1L12.6,51.6L11.1,51.6L11.1,52.1L10.1,52.1L10.1,52.6L9.6,52.6L9.6,53.1L8.1,53.1L8.1,54.1L7.5,54.1L7.5,53.9L7.9,53.9L7.9,52.9L9.4,52.9L9.4,52.4L9.9,52.4L9.9,51.9L10.9,51.9L10.9,51.4L12.4,51.4L12.4,33.9L12.9,33.9L12.9,33.4L14.1,33.4L14.1,33.9L15.1,33.9z" stroke="none"/><path d="M99,48.1L99,47.9L102.6,47.9L102.6,48.9L103.1,48.9L103.1,49.9L103.6,49.9L103.6,52.4L104.1,52.4L104.1,68.6L103.6,68.6L103.6,69.1L94.4,69.1L94.4,68.6L91.4,68.6L91.4,67.5L91.6,67.5L91.6,68.4L94.6,68.4L94.6,68.9L103.4,68.9L103.4,68.4L103.9,68.4L103.9,52.6L103.4,52.6L103.4,50.1L102.9,50.1L102.9,49.1L102.4,49.1L102.4,48.1z" stroke="none"/><path d="M10.4,73.5L10.6,73.5L10.6,77.6L10.1,77.6L10.1,78.1L9.6,78.1L9.6,78.6L9.1,78.6L9.1,79.1L8.6,79.1L8.6,79.6L7.6,79.6L7.6,80.1L4.1,80.1L4.1,82.1L3.6,82.1L3.6,82.9L4.1,82.9L4.1,83.4L11.6,83.4L11.6,83.9L14.6,83.9L14.6,84.4L15.1,84.4L15.1,84.9L15.6,84.9L15.6,86.9L16.6,86.9L16.6,88.9L19.1,88.9L19.1,91.6L18.1,91.6L18.1,93L17.9,93L17.9,91.4L18.9,91.4L18.9,89.1L16.4,89.1L16.4,87.1L15.4,87.1L15.4,85.1L14.9,85.1L14.9,84.6L14.4,84.6L14.4,84.1L11.4,84.1L11.4,83.6L3.9,83.6L3.9,83.1L3.4,83.1L3.4,81.9L3.9,81.9L3.9,79.9L7.4,79.9L7.4,79.4L8.4,79.4L8.4,78.9L8.9,78.9L8.9,78.4L9.4,78.4L9.4,77.9L9.9,77.9L9.9,77.4L10.4,77.4z" stroke="none"/><path d="M4.4,52.5L4.6,52.5L4.6,55.6L4.1,55.6L4.1,56.6L3.6,56.6L3.6,66.1L3.1,66.1L3.1,67.1L2.6,67.1L2.6,67.6L2.1,67.6L2.1,69.4L2.6,69.4L2.6,70.4L4.6,70.4L4.6,70.9L5.6,70.9L5.6,71.4L11.6,71.4L11.6,71.9L12,71.9L12,72.1L11.4,72.1L11.4,71.6L5.4,71.6L5.4,71.1L4.4,71.1L4.4,70.6L2.4,70.6L2.4,69.6L1.9,69.6L1.9,67.4L2.4,67.4L2.4,66.9L2.9,66.9L2.9,65.9L3.4,65.9L3.4,56.4L3.9,56.4L3.9,55.4L4.4,55.4z" stroke="none"/><path d="M82.5,16.4L82.5,16.6L80.1,16.6L80.1,17.1L79.1,17.1L79.1,17.6L78.6,17.6L78.6,19.1L78.1,19.1L78.1,19.6L77.1,19.6L77.1,22.1L75.1,22.1L75.1,23.1L74.1,23.1L74.1,25.6L70.6,25.6L70.6,26.1L70.1,26.1L70.1,26.6L69.6,26.6L69.6,30.6L69.1,30.6L69.1,31.1L68.1,31.1L68.1,31.6L67.5,31.6L67.5,31.4L67.9,31.4L67.9,30.9L68.9,30.9L68.9,30.4L69.4,30.4L69.4,26.4L69.9,26.4L69.9,25.9L70.4,25.9L70.4,25.4L73.9,25.4L73.9,22.9L74.9,22.9L74.9,21.9L76.9,21.9L76.9,19.4L77.9,19.4L77.9,18.9L78.4,18.9L78.4,17.4L78.9,17.4L78.9,16.9L79.9,16.9L79.9,16.4z" stroke="none"/><path d="M58.4,31.5L58.6,31.5L58.6,36.4L59.6,36.4L59.6,36.9L62.9,36.9L62.9,27.1L61.4,27.1L61.4,24.4L61.9,24.4L61.9,23.9L64.4,23.9L64.4,23.4L64.9,23.4L64.9,19.9L65.4,19.9L65.4,18.9L65.9,18.9L65.9,17.9L66.4,17.9L66.4,17.4L68.9,17.4L68.9,16.9L71.6,16.9L71.6,19.1L71.1,19.1L71.1,19.9L71.6,19.9L71.6,20.4L72.4,20.4L72.4,19.9L72.9,19.9L72.9,18.4L75.4,18.4L75.4,17.9L75.9,17.9L75.9,16.1L75.4,16.1L75.4,15.6L74.9,15.6L74.9,15.1L74.4,15.1L74.4,14.1L73.9,14.1L73.9,13.6L72.9,13.6L72.9,12.1L71.4,12.1L71.4,11.1L70.9,11.1L70.9,10.1L70.4,10.1L70.4,3.6L67.1,3.6L67.1,4.1L65.6,4.1L65.6,4.6L63.6,4.6L63.6,6.6L63.1,6.6L63.1,7.1L62.6,7.1L62.6,8.6L60.1,8.6L60.1,10.1L59.6,10.1L59.6,11.1L57.1,11.1L57.1,12.1L55.1,12.1L55.1,12.6L54.6,12.6L54.6,13.1L52.1,13.1L52.1,13.6L51.1,13.6L51.1,14.1L50.6,14.1L50.6,15.1L49.6,15.1L49.6,15.6L47.6,15.6L47.6,16.1L44.9,16.1L44.9,15L45.1,15L45.1,15.9L47.4,15.9L47.4,15.4L49.4,15.4L49.4,14.9L50.4,14.9L50.4,13.9L50.9,13.9L50.9,13.4L51.9,13.4L51.9,12.9L54.4,12.9L54.4,12.4L54.9,12.4L54.9,11.9L56.9,11.9L56.9,10.9L59.4,10.9L59.4,9.9L59.9,9.9L59.9,8.4L62.4,8.4L62.4,6.9L62.9,6.9L62.9,6.4L63.4,6.4L63.4,4.4L65.4,4.4L65.4,3.9L66.9,3.9L66.9,3.4L70.6,3.4L70.6,9.9L71.1,9.9L71.1,10.9L71.6,10.9L71.6,11.9L73.1,11.9L73.1,13.4L74.1,13.4L74.1,13.9L74.6,13.9L74.6,14.9L75.1,14.9L75.1,15.4L75.6,15.4L75.6,15.9L76.1,15.9L76.1,18.1L75.6,18.1L75.6,18.6L73.1,18.6L73.1,20.1L72.6,20.1L72.6,20.6L71.4,20.6L71.4,20.1L70.9,20.1L70.9,18.9L71.4,18.9L71.4,17.1L69.1,17.1L69.1,17.6L66.6,17.6L66.6,18.1L66.1,18.1L66.1,19.1L65.6,19.1L65.6,20.1L65.1,20.1L65.1,23.6L64.6,23.6L64.6,24.1L62.1,24.1L62.1,24.6L61.6,24.6L61.6,26.9L63.1,26.9L63.1,37.1L59.4,37.1L59.4,36.6L58.4,36.6z" stroke="none"/><path d="M4.6,57L4.4,57L4.4,56.4L4.9,56.4L4.9,52.9L5.4,52.9L5.4,51.1L4.4,51.1L4.4,50.1L3.9,50.1L3.9,49.6L2.9,49.6L2.9,49.1L2.4,49.1L2.4,48.6L1.9,48.6L1.9,45.9L2.4,45.9L2.4,45.4L8.9,45.4L8.9,44.9L9.4,44.9L9.4,44.4L9.9,44.4L9.9,42.4L10.4,42.4L10.4,41.9L11.9,41.9L11.9,33.4L12.4,33.4L12.4,32.9L15.6,32.9L15.6,33.4L16.1,33.4L16.1,34.4L16.6,34.4L16.6,35.4L17.1,35.4L17.1,35.9L17.6,35.9L17.6,36.4L19.6,36.4L19.6,36.9L20.6,36.9L20.6,41.9L21,41.9L21,42.1L20.4,42.1L20.4,37.1L19.4,37.1L19.4,36.6L17.4,36.6L17.4,36.1L16.9,36.1L16.9,35.6L16.4,35.6L16.4,34.6L15.9,34.6L15.9,33.6L15.4,33.6L15.4,33.1L12.6,33.1L12.6,33.6L12.1,33.6L12.1,42.1L10.6,42.1L10.6,42.6L10.1,42.6L10.1,44.6L9.6,44.6L9.6,45.1L9.1,45.1L9.1,45.6L2.6,45.6L2.6,46.1L2.1,46.1L2.1,48.4L2.6,48.4L2.6,48.9L3.1,48.9L3.1,49.4L4.1,49.4L4.1,49.9L4.6,49.9L4.6,50.9L5.6,50.9L5.6,53.1L5.1,53.1L5.1,56.6L4.6,56.6z" stroke="none"/><path d="M37.5,40.4L37.5,40.6L35.6,40.6L35.6,41.6L33.1,41.6L33.1,42.6L32.6,42.6L32.6,43.1L32.1,43.1L32.1,44.4L38.1,44.4L38.1,44.9L38.6,44.9L38.6,47.9L39.1,47.9L39.1,48.4L41.1,48.4L41.1,50.4L41.6,50.4L41.6,52.1L37.6,52.1L37.6,54.1L30.9,54.1L30.9,51.6L26.1,51.6L26.1,52.1L19.1,52.1L19.1,52.6L18.1,52.6L18.1,53.1L17.1,53.1L17.1,53.6L16.6,53.6L16.6,54.1L16.1,54.1L16.1,55.1L15.6,55.1L15.6,56.4L16.1,56.4L16.1,58.1L14.4,58.1L14.4,57.6L13.9,57.6L13.9,51.4L15.4,51.4L15.4,46.9L15.9,46.9L15.9,45.6L15.4,45.6L15.4,43.9L19.1,43.9L19.1,45.9L21.4,45.9L21.4,45.4L21.9,45.4L21.9,36.1L20.9,36.1L20.9,35.6L18.9,35.6L18.9,33.6L18.4,33.6L18.4,32.4L18.9,32.4L18.9,31.9L25.9,31.9L25.9,31.4L26.4,31.4L26.4,30.9L27.9,30.9L27.9,30.4L28.4,30.4L28.4,29.4L30.9,29.4L30.9,28.1L30.4,28.1L30.4,27.6L19.9,27.6L19.9,26.6L19.4,26.6L19.4,25.5L19.6,25.5L19.6,26.4L20.1,26.4L20.1,27.4L30.6,27.4L30.6,27.9L31.1,27.9L31.1,29.6L28.6,29.6L28.6,30.6L28.1,30.6L28.1,31.1L26.6,31.1L26.6,31.6L26.1,31.6L26.1,32.1L19.1,32.1L19.1,32.6L18.6,32.6L18.6,33.4L19.1,33.4L19.1,35.4L21.1,35.4L21.1,35.9L22.1,35.9L22.1,45.6L21.6,45.6L21.6,46.1L18.9,46.1L18.9,44.1L15.6,44.1L15.6,45.4L16.1,45.4L16.1,47.1L15.6,47.1L15.6,51.6L14.1,51.6L14.1,57.4L14.6,57.4L14.6,57.9L15.9,57.9L15.9,56.6L15.4,56.6L15.4,54.9L15.9,54.9L15.9,53.9L16.4,53.9L16.4,53.4L16.9,53.4L16.9,52.9L17.9,52.9L17.9,52.4L18.9,52.4L18.9,51.9L25.9,51.9L25.9,51.4L31.1,51.4L31.1,53.9L37.4,53.9L37.4,51.9L41.4,51.9L41.4,50.6L40.9,50.6L40.9,48.6L38.9,48.6L38.9,48.1L38.4,48.1L38.4,45.1L37.9,45.1L37.9,44.6L31.9,44.6L31.9,42.9L32.4,42.9L32.4,42.4L32.9,42.4L32.9,41.4L35.4,41.4L35.4,40.4z" stroke="none"/><path d="M39,71.9L39,72.1L38.6,72.1L38.6,73.6L38.1,73.6L38.1,74.6L37.6,74.6L37.6,75.1L37.1,75.1L37.1,76.6L35.6,76.6L35.6,77.1L34.6,77.1L34.6,77.6L34.1,77.6L34.1,78.1L33.1,78.1L33.1,79.1L32.1,79.1L32.1,80.1L31.1,80.1L31.1,80.6L30.6,80.6L30.6,82.9L32.1,82.9L32.1,83.9L32.6,83.9L32.6,84.9L33.1,84.9L33.1,86.9L33.6,86.9L33.6,89.4L34.6,89.4L34.6,92.6L34.1,92.6L34.1,93.1L32.6,93.1L32.6,93.6L31.6,93.6L31.6,94.1L26.9,94.1L26.9,93.6L25.9,93.6L25.9,93.1L25.4,93.1L25.4,91.5L25.6,91.5L25.6,92.9L26.1,92.9L26.1,93.4L27.1,93.4L27.1,93.9L31.4,93.9L31.4,93.4L32.4,93.4L32.4,92.9L33.9,92.9L33.9,92.4L34.4,92.4L34.4,89.6L33.4,89.6L33.4,87.1L32.9,87.1L32.9,85.1L32.4,85.1L32.4,84.1L31.9,84.1L31.9,83.1L30.4,83.1L30.4,80.4L30.9,80.4L30.9,79.9L31.9,79.9L31.9,78.9L32.9,78.9L32.9,77.9L33.9,77.9L33.9,77.4L34.4,77.4L34.4,76.9L35.4,76.9L35.4,76.4L36.9,76.4L36.9,74.9L37.4,74.9L37.4,74.4L37.9,74.4L37.9,73.4L38.4,73.4L38.4,71.9z" stroke="none"/></svg>