<svg version="1.1" width="105" height="105" xmlns="http://www.w3.org/2000/svg"><path d="M86.4,78.6L85.4,78.6L85.4,78L85.6,78L85.6,78.4L86.6,78.4L86.6,78.9L92.6,78.9L92.6,79.4L93.6,79.4L93.6,79.9L94.1,79.9L94.1,80.4L94.6,80.4L94.6,80.9L96,80.9L96,81.1L94.4,81.1L94.4,80.6L93.9,80.6L93.9,80.1L93.4,80.1L93.4,79.6L92.4,79.6L92.4,79.1L86.6,79.1L86.6,79.6L86.1,79.6L86.1,80.1L85.6,80.1L85.6,80.6L85.1,80.6L85.1,82.1L84.6,82.1L84.6,83.1L84.1,83.1L84.1,84L83.9,84L83.9,82.9L84.4,82.9L84.4,81.9L84.9,81.9L84.9,80.4L85.4,80.4L85.4,79.9L85.9,79.9L85.9,79.4L86.4,79.4z" stroke="none"/><path d="M77.9,82.9L77.9,82.4L79.4,82.4L79.4,80.9L80.4,80.9L80.4,79.9L83.1,79.9L83.1,80.4L83.6,80.4L83.6,83.6L83.1,83.6L83.1,85.4L83.6,85.4L83.6,87.9L84.6,87.9L84.6,88.4L85.1,88.4L85.1,88.9L86.1,88.9L86.1,90.4L87.1,90.4L87.1,91.5L86.9,91.5L86.9,90.6L85.9,90.6L85.9,89.1L84.9,89.1L84.9,88.6L84.4,88.6L84.4,88.1L83.4,88.1L83.4,85.6L82.9,85.6L82.9,83.4L83.4,83.4L83.4,80.6L82.9,80.6L82.9,80.1L80.6,80.1L80.6,81.1L79.6,81.1L79.6,82.6L78.1,82.6L78.1,83.1L74.6,83.1L74.6,83.6L73.6,83.6L73.6,84L73.4,84L73.4,83.4L74.4,83.4L74.4,83.1L69.4,83.1L69.4,82.6L68.4,82.6L68.4,82.1L67.4,82.1L67.4,81L67.6,81L67.6,81.9L68.6,81.9L68.6,82.4L69.6,82.4L69.6,82.9z" stroke="none"/><path d="M61.6,24.4L61.6,25.4L62.1,25.4L62.1,25.9L62.6,25.9L62.6,26.9L64.5,26.9L64.5,27.1L62.4,27.1L62.4,26.1L61.9,26.1L61.9,25.6L61.4,25.6L61.4,24.6L60.1,24.6L60.1,28.5L59.9,28.5L59.9,24.6L58.4,24.6L58.4,24L58.6,24L58.6,24.4z" stroke="none"/><path d="M7.4,39.9L7.9,39.9L7.9,39.4L8.4,39.4L8.4,38.9L8.9,38.9L8.9,36L9.1,36L9.1,39.1L8.6,39.1L8.6,39.6L8.1,39.6L8.1,40.1L7.6,40.1L7.6,42.4L8.4,42.4L8.4,41.9L9,41.9L9,42.1L8.6,42.1L8.6,42.6L7.6,42.6L7.6,51.4L8.1,51.4L8.1,53.9L9.1,53.9L9.1,54.4L10.1,54.4L10.1,54.9L11.6,54.9L11.6,55.4L12,55.4L12,55.6L11.4,55.6L11.4,55.1L9.9,55.1L9.9,54.6L8.9,54.6L8.9,54.1L7.9,54.1L7.9,51.6L7.4,51.6z" stroke="none"/><path d="M94.4,66.1L93.9,66.1L93.9,65.6L93.4,65.6L93.4,65.1L91.4,65.1L91.4,64.6L90,64.6L90,64.4L91.6,64.4L91.6,64.9L93.6,64.9L93.6,65.4L94.1,65.4L94.1,65.9L94.6,65.9L94.6,66.4L97.6,66.4L97.6,67.4L98.1,67.4L98.1,67.9L99.1,67.9L99.1,68.9L99.6,68.9L99.6,69.4L100.1,69.4L100.1,71.9L100.6,71.9L100.6,72.4L101.6,72.4L101.6,73.4L102,73.4L102,73.6L101.4,73.6L101.4,72.6L100.4,72.6L100.4,72.1L99.9,72.1L99.9,69.6L99.4,69.6L99.4,69.1L98.9,69.1L98.9,68.1L97.9,68.1L97.9,67.6L97.4,67.6L97.4,66.6L94.6,66.6L94.6,67.1L93.6,67.1L93.6,67.6L93,67.6L93,67.4L93.4,67.4L93.4,66.9L94.4,66.9z" stroke="none"/><path d="M73.4,46.6L72.9,46.6L72.9,46.1L72.4,46.1L72.4,45.6L71.9,45.6L71.9,45.1L71.4,45.1L71.4,43.6L70.9,43.6L70.9,42.1L70.5,42.1L70.5,41.9L71.1,41.9L71.1,43.4L71.6,43.4L71.6,44.9L72.1,44.9L72.1,45.4L72.6,45.4L72.6,45.9L73.1,45.9L73.1,46.4L73.6,46.4L73.6,48.9L74.1,48.9L74.1,50.9L75.6,50.9L75.6,51.4L77.1,51.4L77.1,52.9L77.6,52.9L77.6,53.4L79.1,53.4L79.1,57.4L80.1,57.4L80.1,57.9L80.6,57.9L80.6,58.4L82.1,58.4L82.1,59.9L82.5,59.9L82.5,60.1L81.9,60.1L81.9,58.6L80.4,58.6L80.4,58.1L79.9,58.1L79.9,57.6L78.9,57.6L78.9,53.6L77.4,53.6L77.4,53.1L76.9,53.1L76.9,51.6L75.4,51.6L75.4,51.1L73.9,51.1L73.9,49.1L73.6,49.1L73.6,51L73.4,51z" stroke="none"/><path d="M77.4,88.4L77.4,85.9L77.9,85.9L77.9,85.4L78.4,85.4L78.4,84.9L79.4,84.9L79.4,84.4L79.9,84.4L79.9,83.9L80.9,83.9L80.9,82.9L81.4,82.9L81.4,82.4L82.5,82.4L82.5,82.6L81.6,82.6L81.6,83.1L81.1,83.1L81.1,84.1L80.1,84.1L80.1,84.6L79.6,84.6L79.6,85.1L78.6,85.1L78.6,85.6L78.1,85.6L78.1,86.1L77.6,86.1L77.6,89.9L78.1,89.9L78.1,90.4L78.6,90.4L78.6,90.9L79.1,90.9L79.1,100.4L79.6,100.4L79.6,100.9L80.1,100.9L80.1,101.9L81,101.9L81,102.1L79.9,102.1L79.9,101.1L79.4,101.1L79.4,100.6L78.9,100.6L78.9,91.1L78.4,91.1L78.4,90.6L77.9,90.6L77.9,90.1L77.4,90.1L77.4,88.6L75.9,88.6L75.9,88.1L75.4,88.1L75.4,87.6L74.9,87.6L74.9,87L75.1,87L75.1,87.4L75.6,87.4L75.6,87.9L76.1,87.9L76.1,88.4z" stroke="none"/><path d="M38.9,82.1L38.4,82.1L38.4,81.6L37.4,81.6L37.4,81.1L36,81.1L36,80.9L37.6,80.9L37.6,81.4L38.6,81.4L38.6,81.9L39.1,81.9L39.1,82.9L40.9,82.9L40.9,82.4L42,82.4L42,82.6L41.1,82.6L41.1,83.1L39.1,83.1L39.1,84.4L39.6,84.4L39.6,84.9L40.1,84.9L40.1,85.4L40.6,85.4L40.6,86.4L41.6,86.4L41.6,87.9L43.6,87.9L43.6,90.4L45.1,90.4L45.1,91.5L44.9,91.5L44.9,90.6L43.4,90.6L43.4,88.1L41.4,88.1L41.4,86.6L40.4,86.6L40.4,85.6L39.9,85.6L39.9,85.1L39.4,85.1L39.4,84.6L38.9,84.6z" stroke="none"/><path d="M86.9,19.4L86.9,19.1L86.4,19.1L86.4,18.6L85.9,18.6L85.9,17.6L85.4,17.6L85.4,16.5L85.6,16.5L85.6,17.4L86.1,17.4L86.1,18.4L86.6,18.4L86.6,18.9L87.1,18.9L87.1,19.4L93.6,19.4L93.6,19.9L95.1,19.9L95.1,20.9L96.6,20.9L96.6,21.9L97.1,21.9L97.1,22.4L97.5,22.4L97.5,22.6L96.9,22.6L96.9,22.1L96.4,22.1L96.4,21.1L94.9,21.1L94.9,20.1L93.4,20.1L93.4,19.6L86.6,19.6L86.6,20.1L86.1,20.1L86.1,20.6L82.1,20.6L82.1,21.6L81.6,21.6L81.6,24.1L81,24.1L81,23.9L81.4,23.9L81.4,21.4L81.9,21.4L81.9,20.4L85.9,20.4L85.9,19.9L86.4,19.9L86.4,19.4z" stroke="none"/><path d="M73.4,41.6L72.9,41.6L72.9,41.1L72.4,41.1L72.4,37.6L70.5,37.6L70.5,37.4L72.6,37.4L72.6,40.9L73.1,40.9L73.1,41.4L73.6,41.4L73.6,41.9L75.1,41.9L75.1,42.4L75.6,42.4L75.6,42.9L76.6,42.9L76.6,43.5L76.4,43.5L76.4,43.1L75.4,43.1L75.4,42.6L74.9,42.6L74.9,42.1L73.6,42.1L73.6,45.4L74.1,45.4L74.1,47.4L77.6,47.4L77.6,48.4L78.1,48.4L78.1,49.4L79.1,49.4L79.1,50.9L79.5,50.9L79.5,51.1L78.9,51.1L78.9,49.6L77.9,49.6L77.9,48.6L77.4,48.6L77.4,47.6L73.9,47.6L73.9,45.6L73.4,45.6z" stroke="none"/><path d="M93.9,47.4L94.4,47.4L94.4,46.5L94.6,46.5L94.6,47.6L94.1,47.6L94.1,49.9L94.6,49.9L94.6,50.4L95.1,50.4L95.1,50.9L98.6,50.9L98.6,51.4L99.1,51.4L99.1,52.4L100.1,52.4L100.1,52.9L100.6,52.9L100.6,54.4L101.1,54.4L101.1,54.9L101.6,54.9L101.6,55.4L102,55.4L102,55.6L101.4,55.6L101.4,55.1L100.9,55.1L100.9,54.6L100.4,54.6L100.4,53.1L99.9,53.1L99.9,52.6L98.9,52.6L98.9,51.6L98.4,51.6L98.4,51.1L94.9,51.1L94.9,50.6L94.4,50.6L94.4,50.1L94.1,50.1L94.1,54.1L91.5,54.1L91.5,53.9L93.9,53.9z" stroke="none"/><path d="M47.4,46.9L47.9,46.9L47.9,45.4L48.4,45.4L48.4,44.9L49.5,44.9L49.5,45.1L48.6,45.1L48.6,45.6L48.1,45.6L48.1,47.1L47.6,47.1L47.6,51.9L50.6,51.9L50.6,52.4L51,52.4L51,52.6L50.4,52.6L50.4,52.1L47.6,52.1L47.6,64.4L48,64.4L48,64.6L47.4,64.6z" stroke="none"/><path d="M32.9,47.6L31.9,47.6L31.9,46.6L31.4,46.6L31.4,45L31.6,45L31.6,46.4L32.1,46.4L32.1,47.4L33.1,47.4L33.1,48.4L36.6,48.4L36.6,48.9L38.6,48.9L38.6,49.4L39.1,49.4L39.1,49.9L40.1,49.9L40.1,50.4L41.1,50.4L41.1,51.4L42.6,51.4L42.6,51.9L43.1,51.9L43.1,52.4L43.5,52.4L43.5,52.6L42.9,52.6L42.9,52.1L42.4,52.1L42.4,51.6L40.9,51.6L40.9,50.6L39.9,50.6L39.9,50.1L38.9,50.1L38.9,49.6L38.4,49.6L38.4,49.1L36.4,49.1L36.4,48.6L33.1,48.6L33.1,49.1L32.1,49.1L32.1,50.1L31.6,50.1L31.6,50.6L30.6,50.6L30.6,53.1L30.1,53.1L30.1,54L29.9,54L29.9,52.9L30.4,52.9L30.4,50.4L31.4,50.4L31.4,49.9L31.9,49.9L31.9,48.9L32.9,48.9z" stroke="none"/><path d="M31.9,11.1L30.9,11.1L30.9,9.6L30.4,9.6L30.4,9.1L28.5,9.1L28.5,8.9L30.6,8.9L30.6,9.4L31.1,9.4L31.1,10.9L32.1,10.9L32.1,12.4L33.6,12.4L33.6,12.9L36.1,12.9L36.1,13.4L39.1,13.4L39.1,13.9L40.6,13.9L40.6,15L40.4,15L40.4,14.1L38.9,14.1L38.9,13.6L35.9,13.6L35.9,13.1L33.4,13.1L33.4,12.6L32.1,12.6L32.1,18.9L32.6,18.9L32.6,19.4L33,19.4L33,19.6L32.4,19.6L32.4,19.1L31.9,19.1z" stroke="none"/><path d="M95.4,76.4L102,76.4L102,76.6L95.6,76.6L95.6,76.9L100.1,76.9L100.1,78.9L100.6,78.9L100.6,79.5L100.4,79.5L100.4,79.1L99.9,79.1L99.9,77.1L95.6,77.1L95.6,79.4L97.1,79.4L97.1,81.6L96.6,81.6L96.6,82.1L87.1,82.1L87.1,82.5L86.9,82.5L86.9,81.9L96.4,81.9L96.4,81.4L96.9,81.4L96.9,79.6L95.4,79.6z" stroke="none"/><path d="M17.4,34.9L17.4,31.9L17.9,31.9L17.9,29.9L18.9,29.9L18.9,29.4L19.4,29.4L19.4,27L19.6,27L19.6,29.6L19.1,29.6L19.1,30.1L18.1,30.1L18.1,32.1L17.6,32.1L17.6,37.9L18.1,37.9L18.1,39.4L19.1,39.4L19.1,40.4L19.5,40.4L19.5,40.6L18.9,40.6L18.9,39.6L17.9,39.6L17.9,38.1L17.4,38.1L17.4,35.1L16.1,35.1L16.1,35.6L15.6,35.6L15.6,44.9L16.5,44.9L16.5,45.1L15.4,45.1L15.4,35.4L15.9,35.4L15.9,34.9z" stroke="none"/><path d="M19.9,53.6L19.4,53.6L19.4,52.1L18.9,52.1L18.9,51.6L17.9,51.6L17.9,51.1L16.9,51.1L16.9,49.6L16.5,49.6L16.5,49.4L17.1,49.4L17.1,50.9L18.1,50.9L18.1,51.4L19.1,51.4L19.1,51.9L19.6,51.9L19.6,53.4L20.1,53.4L20.1,55.9L21.6,55.9L21.6,56.4L26.9,56.4L26.9,55.9L27.4,55.9L27.4,55.4L28.5,55.4L28.5,55.6L27.6,55.6L27.6,56.1L27.1,56.1L27.1,56.6L21.4,56.6L21.4,56.1L20.1,56.1L20.1,67.4L21.1,67.4L21.1,69L20.9,69L20.9,67.6L19.9,67.6z" stroke="none"/><path d="M20.9,27.1L20.4,27.1L20.4,26.6L19.9,26.6L19.9,26.1L14.1,26.1L14.1,26.6L11.1,26.6L11.1,27.1L10.5,27.1L10.5,26.9L10.9,26.9L10.9,26.4L13.9,26.4L13.9,25.9L20.1,25.9L20.1,26.4L20.6,26.4L20.6,26.9L21.1,26.9L21.1,28.9L25.1,28.9L25.1,29.4L27.4,29.4L27.4,28.4L28.5,28.4L28.5,28.6L27.6,28.6L27.6,29.6L24.9,29.6L24.9,29.1L21.1,29.1L21.1,32.4L23.6,32.4L23.6,33.4L26.1,33.4L26.1,33.9L27.1,33.9L27.1,34.4L27.6,34.4L27.6,34.9L29.1,34.9L29.1,35.4L29.6,35.4L29.6,37.4L30,37.4L30,37.6L29.4,37.6L29.4,35.6L28.9,35.6L28.9,35.1L27.4,35.1L27.4,34.6L26.9,34.6L26.9,34.1L25.9,34.1L25.9,33.6L23.4,33.6L23.4,32.6L20.9,32.6z" stroke="none"/><path d="M59.4,77.1L58.9,77.1L58.9,76.6L58.4,76.6L58.4,74.1L56.4,74.1L56.4,73.6L55.5,73.6L55.5,73.4L56.6,73.4L56.6,73.9L58.6,73.9L58.6,76.4L59.1,76.4L59.1,76.9L59.6,76.9L59.6,83.9L60.1,83.9L60.1,84.9L60.6,84.9L60.6,85.9L61.1,85.9L61.1,86.4L61.6,86.4L61.6,86.9L62.1,86.9L62.1,88.4L63.1,88.4L63.1,89.4L63.6,89.4L63.6,90.9L65.1,90.9L65.1,91.9L65.6,91.9L65.6,92.9L66,92.9L66,93.1L65.4,93.1L65.4,92.1L64.9,92.1L64.9,91.1L63.4,91.1L63.4,89.6L62.9,89.6L62.9,88.6L61.9,88.6L61.9,87.1L61.4,87.1L61.4,86.6L60.9,86.6L60.9,86.1L60.4,86.1L60.4,85.1L59.9,85.1L59.9,84.1L59.6,84.1L59.6,88.4L60.1,88.4L60.1,89.4L61.1,89.4L61.1,89.9L61.6,89.9L61.6,90.4L62.1,90.4L62.1,90.9L62.6,90.9L62.6,91.4L63,91.4L63,91.6L62.4,91.6L62.4,91.1L61.9,91.1L61.9,90.6L61.4,90.6L61.4,90.1L60.9,90.1L60.9,89.6L59.9,89.6L59.9,88.6L59.4,88.6z" stroke="none"/><path d="M64.1,96.4L64.1,96.9L64.6,96.9L64.6,98.4L65.1,98.4L65.1,98.9L66,98.9L66,99.1L64.9,99.1L64.9,98.6L64.4,98.6L64.4,97.1L63.9,97.1L63.9,96.6L58.1,96.6L58.1,96.9L61.1,96.9L61.1,97.4L61.6,97.4L61.6,97.9L62.1,97.9L62.1,98.4L63.1,98.4L63.1,98.9L64.6,98.9L64.6,99.4L65.6,99.4L65.6,99.9L66.1,99.9L66.1,100.5L65.9,100.5L65.9,100.1L65.4,100.1L65.4,99.6L64.4,99.6L64.4,99.1L62.9,99.1L62.9,98.6L61.9,98.6L61.9,98.1L61.4,98.1L61.4,97.6L60.9,97.6L60.9,97.1L57.9,97.1L57.9,96.6L47.9,96.6L47.9,96L48.1,96L48.1,96.4z" stroke="none"/><path d="M91.9,46.9L91.9,41.9L95.4,41.9L95.4,41.4L95.9,41.4L95.9,39.9L98.4,39.9L98.4,38.9L99,38.9L99,39.1L98.6,39.1L98.6,40.1L96.1,40.1L96.1,41.6L95.6,41.6L95.6,42.1L92.1,42.1L92.1,46.9L92.6,46.9L92.6,47.4L93.1,47.4L93.1,48L92.9,48L92.9,47.6L92.4,47.6L92.4,47.1L92.1,47.1L92.1,47.9L92.6,47.9L92.6,48.4L93.4,48.4L93.4,45.4L95.6,45.4L95.6,45.9L96.1,45.9L96.1,46.4L96.6,46.4L96.6,46.9L97.6,46.9L97.6,47.4L98.1,47.4L98.1,49.9L98.6,49.9L98.6,50.4L99.1,50.4L99.1,50.9L99.6,50.9L99.6,51.9L100.6,51.9L100.6,52.4L101.1,52.4L101.1,53.9L101.6,53.9L101.6,54.4L102.6,54.4L102.6,54.9L103.1,54.9L103.1,56.1L102.6,56.1L102.6,56.6L101.1,56.6L101.1,57.1L100.5,57.1L100.5,56.9L100.9,56.9L100.9,56.4L102.4,56.4L102.4,55.9L102.9,55.9L102.9,55.1L102.4,55.1L102.4,54.6L101.4,54.6L101.4,54.1L100.9,54.1L100.9,52.6L100.4,52.6L100.4,52.1L99.4,52.1L99.4,51.1L98.9,51.1L98.9,50.6L98.4,50.6L98.4,50.1L97.9,50.1L97.9,47.6L97.4,47.6L97.4,47.1L96.4,47.1L96.4,46.6L95.9,46.6L95.9,46.1L95.4,46.1L95.4,45.6L93.6,45.6L93.6,48.6L92.4,48.6L92.4,48.1L91.9,48.1L91.9,47.1L91.4,47.1L91.4,41.4L93.9,41.4L93.9,38.4L94.4,38.4L94.4,36.9L95.4,36.9L95.4,35.4L96.4,35.4L96.4,34.9L96.9,34.9L96.9,34.1L96.4,34.1L96.4,33.6L95.9,33.6L95.9,33.1L95.4,33.1L95.4,32.1L91.1,32.1L91.1,33.6L90.6,33.6L90.6,35.1L90.1,35.1L90.1,43.1L89.6,43.1L89.6,43.6L89.1,43.6L89.1,44.1L88.1,44.1L88.1,44.6L87.6,44.6L87.6,56.6L86.1,56.6L86.1,57.1L85.5,57.1L85.5,56.9L85.9,56.9L85.9,56.4L87.4,56.4L87.4,44.4L87.9,44.4L87.9,43.9L88.9,43.9L88.9,43.4L89.4,43.4L89.4,42.9L89.9,42.9L89.9,34.9L90.4,34.9L90.4,33.4L90.9,33.4L90.9,31.9L95.6,31.9L95.6,32.9L96.1,32.9L96.1,33.4L96.6,33.4L96.6,33.9L97.1,33.9L97.1,35.1L96.6,35.1L96.6,35.6L95.6,35.6L95.6,37.1L94.6,37.1L94.6,38.6L94.1,38.6L94.1,41.6L91.6,41.6L91.6,46.9z" stroke="none"/><path d="M85.9,32.4L85.9,31.9L89.9,31.9L89.9,31.4L94.4,31.4L94.4,30.4L95.4,30.4L95.4,29.4L95.9,29.4L95.9,27.9L96.4,27.9L96.4,27.4L96.9,27.4L96.9,26.9L97.4,26.9L97.4,25.9L98.9,25.9L98.9,25.5L99.1,25.5L99.1,26.1L97.6,26.1L97.6,27.1L97.1,27.1L97.1,27.6L96.6,27.6L96.6,28.1L96.1,28.1L96.1,29.6L95.6,29.6L95.6,30.6L94.6,30.6L94.6,31.6L90.1,31.6L90.1,32.1L86.1,32.1L86.1,32.4L88.6,32.4L88.6,33L88.4,33L88.4,32.6L86.1,32.6L86.1,37.6L85.5,37.6L85.5,37.4L85.9,37.4L85.9,32.6L85.6,32.6L85.6,37.1L85.1,37.1L85.1,39.1L84.6,39.1L84.6,39.6L83.6,39.6L83.6,41.6L83.1,41.6L83.1,42.1L82.6,42.1L82.6,42.6L81.1,42.6L81.1,43.1L79.6,43.1L79.6,43.5L79.4,43.5L79.4,42.9L80.9,42.9L80.9,42.4L82.4,42.4L82.4,41.9L82.9,41.9L82.9,41.4L83.4,41.4L83.4,39.4L84.4,39.4L84.4,38.9L84.9,38.9L84.9,36.9L85.4,36.9L85.4,32.4z" stroke="none"/><path d="M90.4,66.9L90.4,66.6L84.9,66.6L84.9,65.1L84.4,65.1L84.4,63.6L83.9,63.6L83.9,62.6L83.4,62.6L83.4,62.1L82.4,62.1L82.4,61.6L81.4,61.6L81.4,60.1L81,60.1L81,59.9L81.6,59.9L81.6,61.4L82.6,61.4L82.6,61.9L83.6,61.9L83.6,62.4L84.1,62.4L84.1,63.4L84.6,63.4L84.6,64.9L85.1,64.9L85.1,66.4L90.6,66.4L90.6,66.9L92.4,66.9L92.4,66.4L92.9,66.4L92.9,66L93.1,66L93.1,66.6L92.6,66.6L92.6,67.1L90.6,67.1L90.6,67.4L91.6,67.4L91.6,68.4L93.6,68.4L93.6,68.9L94.1,68.9L94.1,69.4L94.6,69.4L94.6,69.9L96.6,69.9L96.6,70.4L97.1,70.4L97.1,74.9L97.5,74.9L97.5,75.1L96.9,75.1L96.9,70.6L96.4,70.6L96.4,70.1L94.4,70.1L94.4,69.6L93.9,69.6L93.9,69.1L93.4,69.1L93.4,68.6L91.4,68.6L91.4,67.6L90.4,67.6L90.4,67.1L90.1,67.1L90.1,68.4L90.6,68.4L90.6,68.9L91.6,68.9L91.6,70.4L93.1,70.4L93.1,70.9L93.6,70.9L93.6,71.4L96.1,71.4L96.1,74.9L96.6,74.9L96.6,75.4L97.9,75.4L97.9,74.9L99,74.9L99,75.1L98.1,75.1L98.1,75.6L96.4,75.6L96.4,75.1L95.9,75.1L95.9,71.6L93.4,71.6L93.4,71.1L92.9,71.1L92.9,70.6L91.4,70.6L91.4,69.1L90.4,69.1L90.4,68.6L89.9,68.6L89.9,66.9z" stroke="none"/><path d="M21.9,63.9L21.9,63.4L24.1,63.4L24.1,64.4L25.6,64.4L25.6,64.9L26.1,64.9L26.1,65.4L27.1,65.4L27.1,67.4L27.6,67.4L27.6,67.9L28.1,67.9L28.1,68.4L30.6,68.4L30.6,69.4L31.6,69.4L31.6,72L31.4,72L31.4,69.6L30.4,69.6L30.4,68.6L27.9,68.6L27.9,68.1L27.4,68.1L27.4,67.6L26.9,67.6L26.9,65.6L25.9,65.6L25.9,65.1L25.4,65.1L25.4,64.6L23.9,64.6L23.9,63.6L22.1,63.6L22.1,63.9L23.6,63.9L23.6,64.9L24.1,64.9L24.1,66L23.9,66L23.9,65.1L23.4,65.1L23.4,64.1L22.1,64.1L22.1,66.4L23.1,66.4L23.1,66.9L23.6,66.9L23.6,68.9L24.1,68.9L24.1,71.4L25.1,71.4L25.1,71.9L25.5,71.9L25.5,72.1L24.9,72.1L24.9,71.6L23.9,71.6L23.9,69.1L23.4,69.1L23.4,67.1L22.9,67.1L22.9,66.6L21.9,66.6L21.9,64.1L21.6,64.1L21.6,68.4L22.1,68.4L22.1,69.6L21.6,69.6L21.6,70.1L19.9,70.1L19.9,68.6L19.4,68.6L19.4,56.1L18.9,56.1L18.9,55.6L17.4,55.6L17.4,54.6L16.4,54.6L16.4,54L16.6,54L16.6,54.4L17.6,54.4L17.6,55.4L19.1,55.4L19.1,55.9L19.6,55.9L19.6,68.4L20.1,68.4L20.1,69.9L21.4,69.9L21.4,69.4L21.9,69.4L21.9,68.6L21.4,68.6L21.4,63.9z" stroke="none"/><path d="M12.9,47.9L12.9,45.9L13.4,45.9L13.4,45L13.6,45L13.6,46.1L13.1,46.1L13.1,47.9L17.9,47.9L17.9,47.4L18.4,47.4L18.4,46.4L18.9,46.4L18.9,45.9L19.9,45.9L19.9,45.4L21.4,45.4L21.4,44.4L22.4,44.4L22.4,43.4L24,43.4L24,43.6L22.6,43.6L22.6,44.6L21.6,44.6L21.6,45.6L20.1,45.6L20.1,46.1L19.1,46.1L19.1,46.6L18.6,46.6L18.6,47.6L18.1,47.6L18.1,48.1L13.1,48.1L13.1,50.1L11.6,50.1L11.6,51.1L10.5,51.1L10.5,50.9L11.4,50.9L11.4,49.9L12.9,49.9L12.9,48.1L12.6,48.1L12.6,49.1L12.1,49.1L12.1,49.6L11.1,49.6L11.1,50.1L10.6,50.1L10.6,50.6L10.1,50.6L10.1,52.9L10.6,52.9L10.6,53.4L11.1,53.4L11.1,53.9L12.6,53.9L12.6,54.9L13.1,54.9L13.1,61.4L13.5,61.4L13.5,61.6L12.9,61.6L12.9,55.1L12.4,55.1L12.4,54.1L10.9,54.1L10.9,53.6L10.4,53.6L10.4,53.1L9.9,53.1L9.9,50.4L10.4,50.4L10.4,49.9L10.9,49.9L10.9,49.4L11.9,49.4L11.9,48.9L12.4,48.9L12.4,47.9z" stroke="none"/><path d="M84.9,23.9L84.9,23.4L97.9,23.4L97.9,22.9L98.4,22.9L98.4,20.1L97.9,20.1L97.9,19.1L97.4,19.1L97.4,18.1L96.9,18.1L96.9,17.6L95.4,17.6L95.4,15.6L94.4,15.6L94.4,15L94.6,15L94.6,15.4L95.6,15.4L95.6,17.4L97.1,17.4L97.1,17.9L97.6,17.9L97.6,18.9L98.1,18.9L98.1,19.9L98.6,19.9L98.6,23.1L98.1,23.1L98.1,23.6L85.1,23.6L85.1,23.9L88.6,23.9L88.6,24.4L89.1,24.4L89.1,25.4L90.1,25.4L90.1,27.4L90.6,27.4L90.6,27.9L91.1,27.9L91.1,28.4L91.5,28.4L91.5,28.6L90.9,28.6L90.9,28.1L90.4,28.1L90.4,27.6L89.9,27.6L89.9,25.6L88.9,25.6L88.9,24.6L88.4,24.6L88.4,24.1L85.1,24.1L85.1,24.6L84.6,24.6L84.6,25.6L84.1,25.6L84.1,27L83.9,27L83.9,25.4L84.4,25.4L84.4,24.4L84.9,24.4L84.9,24.1L84.1,24.1L84.1,25.1L83.6,25.1L83.6,31.1L83.1,31.1L83.1,32.6L82.1,32.6L82.1,34.1L80.6,34.1L80.6,34.6L79.5,34.6L79.5,34.4L80.4,34.4L80.4,33.9L81.9,33.9L81.9,32.4L82.9,32.4L82.9,30.9L83.4,30.9L83.4,24.9L83.9,24.9L83.9,23.9z" stroke="none"/><path d="M24.4,86.9L24.4,86.6L19.9,86.6L19.9,86.1L19.4,86.1L19.4,84.6L18.9,84.6L18.9,84.1L16.5,84.1L16.5,83.9L19.1,83.9L19.1,84.4L19.6,84.4L19.6,85.9L20.1,85.9L20.1,86.4L24.6,86.4L24.6,86.9L29.6,86.9L29.6,87.4L31.1,87.4L31.1,87.9L32.1,87.9L32.1,88.9L32.6,88.9L32.6,90.4L33.1,90.4L33.1,91.5L32.9,91.5L32.9,90.6L32.4,90.6L32.4,89.1L31.9,89.1L31.9,88.1L30.9,88.1L30.9,87.6L29.4,87.6L29.4,87.1L24.6,87.1L24.6,87.4L29.1,87.4L29.1,87.9L30.1,87.9L30.1,88.4L30.6,88.4L30.6,88.9L31.6,88.9L31.6,89.4L32.1,89.4L32.1,90.9L32.6,90.9L32.6,91.9L36.6,91.9L36.6,92.4L37.1,92.4L37.1,94.1L36.6,94.1L36.6,94.6L36,94.6L36,94.4L36.4,94.4L36.4,93.9L36.9,93.9L36.9,92.6L36.4,92.6L36.4,92.1L32.4,92.1L32.4,91.1L31.9,91.1L31.9,89.6L31.4,89.6L31.4,89.1L30.4,89.1L30.4,88.6L29.9,88.6L29.9,88.1L28.9,88.1L28.9,87.6L24.4,87.6L24.4,87.1L21,87.1L21,86.9z" stroke="none"/><path d="M90.9,35.4L90.9,33.9L91.4,33.9L91.4,32.9L92.9,32.9L92.9,32.4L95.1,32.4L95.1,33.4L95.6,33.4L95.6,34.4L96,34.4L96,34.6L95.4,34.6L95.4,33.6L94.9,33.6L94.9,32.6L93.1,32.6L93.1,33.1L91.6,33.1L91.6,34.1L91.1,34.1L91.1,35.4L91.9,35.4L91.9,34.4L92.4,34.4L92.4,33.9L93.4,33.9L93.4,33.4L94.4,33.4L94.4,33L94.6,33L94.6,33.6L93.6,33.6L93.6,34.1L92.6,34.1L92.6,34.6L92.1,34.6L92.1,35.6L91.1,35.6L91.1,38.9L91.5,38.9L91.5,39.1L90.9,39.1L90.9,35.6L90.6,35.6L90.6,44.6L90.1,44.6L90.1,45L89.9,45L89.9,44.4L90.4,44.4L90.4,35.4z" stroke="none"/><path d="M65.4,62.9L65.4,62.4L66.4,62.4L66.4,61.9L66.9,61.9L66.9,53.4L67.4,53.4L67.4,52.4L67.9,52.4L67.9,51.9L68.9,51.9L68.9,50.9L70.5,50.9L70.5,51.1L69.1,51.1L69.1,52.1L68.1,52.1L68.1,52.6L67.6,52.6L67.6,53.6L67.1,53.6L67.1,62.1L66.6,62.1L66.6,62.6L65.6,62.6L65.6,62.9L67.6,62.9L67.6,63.9L68.1,63.9L68.1,68.4L68.6,68.4L68.6,68.9L69.6,68.9L69.6,69.9L70.1,69.9L70.1,70.4L70.5,70.4L70.5,70.6L69.9,70.6L69.9,70.1L69.4,70.1L69.4,69.1L68.4,69.1L68.4,68.6L67.9,68.6L67.9,64.1L67.4,64.1L67.4,63.1L65.6,63.1L65.6,64.4L66.1,64.4L66.1,65.9L67.5,65.9L67.5,66.1L65.9,66.1L65.9,64.6L65.4,64.6L65.4,63.1L65.1,63.1L65.1,68.6L64.6,68.6L64.6,69.1L64.1,69.1L64.1,69.6L63.1,69.6L63.1,70.5L62.9,70.5L62.9,69.4L63.9,69.4L63.9,68.9L64.4,68.9L64.4,68.4L64.9,68.4L64.9,62.9z" stroke="none"/><path d="M15.9,11.4L15.9,10.4L17.4,10.4L17.4,9.9L20.1,9.9L20.1,13.4L20.6,13.4L20.6,15.9L21.1,15.9L21.1,16.4L22.1,16.4L22.1,16.9L23.1,16.9L23.1,19.1L22.6,19.1L22.6,19.5L22.4,19.5L22.4,18.9L22.9,18.9L22.9,17.1L21.9,17.1L21.9,16.6L20.9,16.6L20.9,16.1L20.4,16.1L20.4,13.6L19.9,13.6L19.9,10.1L17.6,10.1L17.6,10.6L16.1,10.6L16.1,11.4L16.4,11.4L16.4,10.9L17.9,10.9L17.9,10.4L19.5,10.4L19.5,10.6L18.1,10.6L18.1,11.1L16.6,11.1L16.6,11.6L16.1,11.6L16.1,11.9L16.6,11.9L16.6,12.4L17.1,12.4L17.1,12.9L17.6,12.9L17.6,13.9L18.6,13.9L18.6,14.4L19.1,14.4L19.1,16.9L21.1,16.9L21.1,17.4L22.1,17.4L22.1,17.9L22.5,17.9L22.5,18.1L21.9,18.1L21.9,17.6L20.9,17.6L20.9,17.1L18.9,17.1L18.9,14.6L18.4,14.6L18.4,14.1L17.4,14.1L17.4,13.1L16.9,13.1L16.9,12.6L16.4,12.6L16.4,12.1L15.9,12.1L15.9,11.6L10.9,11.6L10.9,11.1L10.4,11.1L10.4,10.6L8.9,10.6L8.9,10.1L8.4,10.1L8.4,7.1L7.4,7.1L7.4,6L7.6,6L7.6,6.9L8.6,6.9L8.6,9.9L9.1,9.9L9.1,10.4L10.6,10.4L10.6,10.9L11.1,10.9L11.1,11.4z" stroke="none"/><path d="M24.9,50.4L24.9,47.9L25.4,47.9L25.4,47.4L25.9,47.4L25.9,46.9L26.4,46.9L26.4,46.4L28.4,46.4L28.4,45.9L29.9,45.9L29.9,44.9L30.4,44.9L30.4,44.4L30.9,44.4L30.9,43.9L32.6,43.9L32.6,44.4L34.4,44.4L34.4,43.9L34.9,43.9L34.9,43.4L36,43.4L36,43.6L35.1,43.6L35.1,44.1L34.6,44.1L34.6,44.6L32.4,44.6L32.4,44.1L31.1,44.1L31.1,44.6L30.6,44.6L30.6,45.1L30.1,45.1L30.1,46.1L28.6,46.1L28.6,46.6L26.6,46.6L26.6,47.1L26.1,47.1L26.1,47.6L25.6,47.6L25.6,48.1L25.1,48.1L25.1,50.4L25.4,50.4L25.4,49.9L26.9,49.9L26.9,49.4L28.5,49.4L28.5,49.6L27.1,49.6L27.1,50.1L25.6,50.1L25.6,50.6L25.1,50.6L25.1,54.1L22.6,54.1L22.6,55.5L22.4,55.5L22.4,53.9L24.9,53.9L24.9,50.6L24.6,50.6L24.6,52.1L24.1,52.1L24.1,52.6L23.1,52.6L23.1,53.1L22.6,53.1L22.6,53.6L22.1,53.6L22.1,55.9L25.9,55.9L25.9,54.9L27.9,54.9L27.9,54.4L29.6,54.4L29.6,57.1L29.1,57.1L29.1,57.6L28.1,57.6L28.1,58.6L27.6,58.6L27.6,59.1L27.1,59.1L27.1,59.6L24.1,59.6L24.1,61.1L22.6,61.1L22.6,61.6L22.1,61.6L22.1,62.1L21.1,62.1L21.1,63L20.9,63L20.9,61.9L21.9,61.9L21.9,61.4L22.4,61.4L22.4,60.9L23.9,60.9L23.9,59.4L26.9,59.4L26.9,58.9L27.4,58.9L27.4,58.4L27.9,58.4L27.9,57.4L28.9,57.4L28.9,56.9L29.4,56.9L29.4,54.6L28.1,54.6L28.1,55.1L26.1,55.1L26.1,56.1L21.9,56.1L21.9,53.4L22.4,53.4L22.4,52.9L22.9,52.9L22.9,52.4L23.9,52.4L23.9,51.9L24.4,51.9L24.4,50.4z" stroke="none"/><path d="M65.4,73.9L65.4,72.6L64.9,72.6L64.9,71.1L64.4,71.1L64.4,70.5L64.6,70.5L64.6,70.9L65.1,70.9L65.1,72.4L65.6,72.4L65.6,73.9L66.1,73.9L66.1,78.4L66.6,78.4L66.6,84.1L66,84.1L66,83.9L66.4,83.9L66.4,78.6L65.9,78.6L65.9,74.1L65.6,74.1L65.6,79.4L66,79.4L66,79.6L65.4,79.6L65.4,74.1L64.9,74.1L64.9,73.1L64.4,73.1L64.4,71.6L63.9,71.6L63.9,69.9L68.1,69.9L68.1,70.4L68.6,70.4L68.6,70.9L69.6,70.9L69.6,71.4L73.4,71.4L73.4,70.4L75,70.4L75,70.6L73.6,70.6L73.6,71.6L69.4,71.6L69.4,71.1L68.4,71.1L68.4,70.6L67.9,70.6L67.9,70.1L64.1,70.1L64.1,71.4L64.6,71.4L64.6,72.9L65.1,72.9L65.1,73.9z" stroke="none"/><path d="M69.9,2.9L69.9,2.4L81.1,2.4L81.1,3.9L81.6,3.9L81.6,4.4L84,4.4L84,4.6L81.4,4.6L81.4,4.1L80.9,4.1L80.9,2.6L70.1,2.6L70.1,2.9L71.1,2.9L71.1,3.4L71.6,3.4L71.6,3.9L72.1,3.9L72.1,4.4L73.5,4.4L73.5,4.6L71.9,4.6L71.9,4.1L71.4,4.1L71.4,3.6L70.9,3.6L70.9,3.1L70.1,3.1L70.1,5.1L69.6,5.1L69.6,6.1L66.6,6.1L66.6,6.6L66.1,6.6L66.1,7.5L65.9,7.5L65.9,6.4L66.4,6.4L66.4,5.9L69.4,5.9L69.4,4.9L69.9,4.9L69.9,3.1L69.1,3.1L69.1,3.6L68.1,3.6L68.1,4.1L65.6,4.1L65.6,4.6L64.5,4.6L64.5,4.4L65.4,4.4L65.4,3.9L67.9,3.9L67.9,3.4L68.9,3.4L68.9,2.9z" stroke="none"/><path d="M12.4,92.9L12.4,84.4L12.9,84.4L12.9,83.9L13.9,83.9L13.9,83.4L14.9,83.4L14.9,82.9L21.6,82.9L21.6,83.9L24.6,83.9L24.6,84.4L25.1,84.4L25.1,84.9L25.6,84.9L25.6,85.5L25.4,85.5L25.4,85.1L24.9,85.1L24.9,84.6L24.4,84.6L24.4,84.1L21.4,84.1L21.4,83.1L15.1,83.1L15.1,83.6L14.1,83.6L14.1,84.1L13.1,84.1L13.1,84.6L12.6,84.6L12.6,92.9L13.1,92.9L13.1,101.9L13.5,101.9L13.5,102.1L12.9,102.1L12.9,93.1L12.6,93.1L12.6,97.6L10.5,97.6L10.5,97.4L12.4,97.4L12.4,93.1L9.6,93.1L9.6,95.6L9.1,95.6L9.1,96L8.9,96L8.9,95.4L9.4,95.4L9.4,92.9z" stroke="none"/><path d="M24.4,94.9L24.4,94.4L33.9,94.4L33.9,93.4L34.9,93.4L34.9,92.9L36,92.9L36,93.1L35.1,93.1L35.1,93.6L34.1,93.6L34.1,94.6L24.6,94.6L24.6,94.9L25.1,94.9L25.1,100.4L26.1,100.4L26.1,100.9L26.6,100.9L26.6,101.4L27.6,101.4L27.6,101.9L28.5,101.9L28.5,102.1L27.4,102.1L27.4,101.6L26.4,101.6L26.4,101.1L25.9,101.1L25.9,100.6L24.9,100.6L24.9,95.1L24.6,95.1L24.6,101.1L23.1,101.1L23.1,101.6L22.6,101.6L22.6,102.1L21,102.1L21,101.9L22.4,101.9L22.4,101.4L22.9,101.4L22.9,100.9L24.4,100.9L24.4,95.1L22.9,95.1L22.9,94.6L21.9,94.6L21.9,93.6L21.4,93.6L21.4,92.1L20.9,92.1L20.9,91.5L21.1,91.5L21.1,91.9L21.6,91.9L21.6,93.4L22.1,93.4L22.1,94.4L23.1,94.4L23.1,94.9z" stroke="none"/><path d="M89.9,53.4L89.9,46.6L89.4,46.6L89.4,46.1L88.4,46.1L88.4,45L88.6,45L88.6,45.9L89.6,45.9L89.6,46.4L90.1,46.4L90.1,53.4L90.6,53.4L90.6,54.4L91.1,54.4L91.1,54.9L97.1,54.9L97.1,55.4L99,55.4L99,55.6L96.9,55.6L96.9,55.1L90.9,55.1L90.9,54.6L90.4,54.6L90.4,53.6L90.1,53.6L90.1,58.5L89.9,58.5L89.9,53.6L89.6,53.6L89.6,61.4L91.1,61.4L91.1,61.9L91.6,61.9L91.6,63L91.4,63L91.4,62.1L90.9,62.1L90.9,61.6L89.4,61.6L89.4,53.4z" stroke="none"/><path d="M26.4,30.9L26.4,30.4L31.4,30.4L31.4,28.4L33,28.4L33,28.6L31.6,28.6L31.6,30.6L26.6,30.6L26.6,30.9L31.1,30.9L31.1,31.4L31.5,31.4L31.5,31.6L30.9,31.6L30.9,31.1L26.6,31.1L26.6,31.4L30.6,31.4L30.6,31.9L31.9,31.9L31.9,30.9L32.4,30.9L32.4,30.4L32.9,30.4L32.9,29.9L34.5,29.9L34.5,30.1L33.1,30.1L33.1,30.6L32.6,30.6L32.6,31.1L32.1,31.1L32.1,32.1L30.4,32.1L30.4,31.6L26.4,31.6L26.4,31.1L26.1,31.1L26.1,31.9L26.6,31.9L26.6,32.4L29.1,32.4L29.1,32.9L29.6,32.9L29.6,33.9L30.1,33.9L30.1,34.9L30.6,34.9L30.6,36.9L31.1,36.9L31.1,38.6L21.6,38.6L21.6,39.1L21.1,39.1L21.1,42.1L19.6,42.1L19.6,42.6L17.6,42.6L17.6,43.1L16.6,43.1L16.6,43.5L16.4,43.5L16.4,42.9L17.4,42.9L17.4,42.4L19.4,42.4L19.4,41.9L20.9,41.9L20.9,38.9L21.4,38.9L21.4,38.4L30.9,38.4L30.9,37.1L30.4,37.1L30.4,35.1L29.9,35.1L29.9,34.1L29.4,34.1L29.4,33.1L28.9,33.1L28.9,32.6L26.4,32.6L26.4,32.1L25.9,32.1L25.9,30.9z" stroke="none"/><path d="M56.4,40.9L56.4,39.9L56.9,39.9L56.9,39.4L57.4,39.4L57.4,38.9L58.4,38.9L58.4,38.4L58.9,38.4L58.9,37.9L60.9,37.9L60.9,37.4L61.5,37.4L61.5,37.6L61.1,37.6L61.1,38.1L59.1,38.1L59.1,38.6L58.6,38.6L58.6,39.1L57.6,39.1L57.6,39.6L57.1,39.6L57.1,40.1L56.6,40.1L56.6,40.9L61.6,40.9L61.6,41.4L63.6,41.4L63.6,42.4L64.6,42.4L64.6,43.4L65.6,43.4L65.6,44.4L66.6,44.4L66.6,45.9L68.6,45.9L68.6,46.4L69.1,46.4L69.1,46.9L69.6,46.9L69.6,47.4L70.6,47.4L70.6,48L70.4,48L70.4,47.6L69.4,47.6L69.4,47.1L68.9,47.1L68.9,46.6L68.4,46.6L68.4,46.1L66.4,46.1L66.4,44.6L65.4,44.6L65.4,43.6L64.4,43.6L64.4,42.6L63.4,42.6L63.4,41.6L61.4,41.6L61.4,41.1L56.6,41.1L56.6,46.1L56.1,46.1L56.1,46.6L54.6,46.6L54.6,47.1L53.1,47.1L53.1,47.6L52.1,47.6L52.1,48.1L51.1,48.1L51.1,49.5L50.9,49.5L50.9,47.9L51.9,47.9L51.9,47.4L52.9,47.4L52.9,46.9L54.4,46.9L54.4,46.4L55.9,46.4L55.9,45.9L56.4,45.9L56.4,41.1L55.9,41.1L55.9,40.6L55.4,40.6L55.4,40.1L53.9,40.1L53.9,39.1L53.4,39.1L53.4,38.6L51.4,38.6L51.4,38.1L50.9,38.1L50.9,37.5L51.1,37.5L51.1,37.9L51.6,37.9L51.6,38.4L53.6,38.4L53.6,38.9L54.1,38.9L54.1,39.9L55.6,39.9L55.6,40.4L56.1,40.4L56.1,40.9z" stroke="none"/><path d="M91.4,89.4L91.4,87.9L92.4,87.9L92.4,84.4L92.9,84.4L92.9,83.9L94.5,83.9L94.5,84.1L93.1,84.1L93.1,84.6L92.6,84.6L92.6,88.1L91.6,88.1L91.6,89.4L92.4,89.4L92.4,88.9L92.9,88.9L92.9,84.9L95.4,84.9L95.4,84.4L95.9,84.4L95.9,84L96.1,84L96.1,84.6L95.6,84.6L95.6,85.1L93.1,85.1L93.1,89.1L92.6,89.1L92.6,89.6L91.6,89.6L91.6,92.6L91.1,92.6L91.1,94.1L90.6,94.1L90.6,96.9L91.6,96.9L91.6,97.5L91.4,97.5L91.4,97.1L90.4,97.1L90.4,93.9L90.9,93.9L90.9,92.4L91.4,92.4L91.4,89.6L91.1,89.6L91.1,91.1L90.6,91.1L90.6,93.6L90.1,93.6L90.1,97.4L90.6,97.4L90.6,98.4L91.6,98.4L91.6,99.4L92.1,99.4L92.1,100.4L92.6,100.4L92.6,100.9L93.1,100.9L93.1,102L92.9,102L92.9,101.1L92.4,101.1L92.4,100.6L91.9,100.6L91.9,99.6L91.4,99.6L91.4,98.6L90.4,98.6L90.4,97.6L89.9,97.6L89.9,93.4L90.4,93.4L90.4,90.9L90.9,90.9L90.9,89.4z" stroke="none"/><path d="M66.9,17.4L66.9,16.4L67.4,16.4L67.4,14.4L68.9,14.4L68.9,12.9L69.4,12.9L69.4,11.9L69.9,11.9L69.9,11.4L70.4,11.4L70.4,10.4L71.4,10.4L71.4,8.4L72.4,8.4L72.4,7.9L72.9,7.9L72.9,7.4L73.5,7.4L73.5,7.6L73.1,7.6L73.1,8.1L72.6,8.1L72.6,8.6L71.6,8.6L71.6,10.6L70.6,10.6L70.6,11.6L70.1,11.6L70.1,12.1L69.6,12.1L69.6,13.1L69.1,13.1L69.1,14.6L67.6,14.6L67.6,16.6L67.1,16.6L67.1,17.4L72.6,17.4L72.6,18.4L74.1,18.4L74.1,18.9L75.1,18.9L75.1,20.4L76.6,20.4L76.6,21.4L79.1,21.4L79.1,23.4L79.6,23.4L79.6,24L79.4,24L79.4,23.6L78.9,23.6L78.9,21.6L76.4,21.6L76.4,20.6L74.9,20.6L74.9,19.1L73.9,19.1L73.9,18.6L72.4,18.6L72.4,17.6L67.1,17.6L67.1,23.6L66.6,23.6L66.6,25.1L65.6,25.1L65.6,25.6L64.5,25.6L64.5,25.4L65.4,25.4L65.4,24.9L66.4,24.9L66.4,23.4L66.9,23.4L66.9,17.6L64.1,17.6L64.1,18.1L63.6,18.1L63.6,19.6L62.6,19.6L62.6,20.1L62.1,20.1L62.1,21.1L61.6,21.1L61.6,21.6L60.6,21.6L60.6,22.1L60.1,22.1L60.1,22.5L59.9,22.5L59.9,21.9L60.4,21.9L60.4,21.4L61.4,21.4L61.4,20.9L61.9,20.9L61.9,19.9L62.4,19.9L62.4,19.4L63.4,19.4L63.4,17.9L63.9,17.9L63.9,17.4z" stroke="none"/><path d="M44.9,15L45.1,15L45.1,16.5L44.9,16.5z" stroke="none"/><path d="M81.1,40.5L80.9,40.5L80.9,39L81.1,39z" stroke="none"/><path d="M90.1,90L89.9,90L89.9,88.5L90.1,88.5z" stroke="none"/><path d="M18,100.6L18,100.4L19.5,100.4L19.5,100.6z" stroke="none"/><path d="M76.5,6.1L76.5,5.9L77.4,5.9L77.4,4.9L77.9,4.9L77.9,4.5L78.1,4.5L78.1,5.1L77.6,5.1L77.6,6.1z" stroke="none"/><path d="M42,97.4L42,97.6L41.4,97.6L41.4,96.6L40.4,96.6L40.4,96L40.6,96L40.6,96.4L41.6,96.4L41.6,97.4z" stroke="none"/><path d="M78.1,94.5L77.9,94.5L77.9,94.1L77.4,94.1L77.4,93.6L76.9,93.6L76.9,93.1L76.5,93.1L76.5,92.9L77.1,92.9L77.1,93.4L77.6,93.4L77.6,93.9L78.1,93.9z" stroke="none"/><path d="M45,98.9L45,99.1L44.4,99.1L44.4,98.1L43.4,98.1L43.4,97.5L43.6,97.5L43.6,97.9L44.6,97.9L44.6,98.9z" stroke="none"/><path d="M94.5,102.1L94.5,101.9L95.4,101.9L95.4,100.9L95.9,100.9L95.9,100.5L96.1,100.5L96.1,101.1L95.6,101.1L95.6,102.1z" stroke="none"/><path d="M21.1,46.5L20.9,46.5L20.9,45.9L21.9,45.9L21.9,45.4L24.1,45.4L24.1,46.5L23.9,46.5L23.9,45.6L22.1,45.6L22.1,46.1L21.1,46.1z" stroke="none"/><path d="M7.4,73.5L7.6,73.5L7.6,76.5L7.4,76.5z" stroke="none"/><path d="M10.5,22.4L10.5,22.6L9.4,22.6L9.4,19.4L10.5,19.4L10.5,19.6L9.6,19.6L9.6,22.4z" stroke="none"/><path d="M13.5,71.9L13.5,72.1L11.1,72.1L11.1,72.6L10.6,72.6L10.6,73.5L10.4,73.5L10.4,72.4L10.9,72.4L10.9,71.9z" stroke="none"/><path d="M66.1,61.5L65.9,61.5L65.9,60.1L65.4,60.1L65.4,58.6L64.5,58.6L64.5,58.4L65.6,58.4L65.6,59.9L66.1,59.9z" stroke="none"/><path d="M73.4,58.5L73.6,58.5L73.6,60.9L75.1,60.9L75.1,61.5L74.9,61.5L74.9,61.1L73.4,61.1z" stroke="none"/><path d="M42,27.1L42,26.9L42.6,26.9L42.6,27.4L43.6,27.4L43.6,27.9L44.1,27.9L44.1,28.4L45,28.4L45,28.6L43.9,28.6L43.9,28.1L43.4,28.1L43.4,27.6L42.4,27.6L42.4,27.1z" stroke="none"/><path d="M79.5,76.4L79.5,76.6L79.1,76.6L79.1,77.1L78.1,77.1L78.1,77.6L77.6,77.6L77.6,78.1L76.5,78.1L76.5,77.9L77.4,77.9L77.4,77.4L77.9,77.4L77.9,76.9L78.9,76.9L78.9,76.4z" stroke="none"/><path d="M49.5,93.1L49.5,92.9L51.9,92.9L51.9,91.4L52.5,91.4L52.5,91.6L52.1,91.6L52.1,93.1z" stroke="none"/><path d="M72.1,88.5L71.9,88.5L71.9,87.9L72.4,87.9L72.4,86.4L72.9,86.4L72.9,85.4L73.5,85.4L73.5,85.6L73.1,85.6L73.1,86.6L72.6,86.6L72.6,88.1L72.1,88.1z" stroke="none"/><path d="M6,102.1L6,101.9L6.9,101.9L6.9,101.4L7.9,101.4L7.9,99.9L8.9,99.9L8.9,99L9.1,99L9.1,100.1L8.1,100.1L8.1,101.6L7.1,101.6L7.1,102.1z" stroke="none"/><path d="M4.6,60L4.4,60L4.4,55.5L4.6,55.5z" stroke="none"/><path d="M34.5,11.9L34.5,12.1L33.9,12.1L33.9,11.1L32.9,11.1L32.9,9.6L31.4,9.6L31.4,9.1L30.9,9.1L30.9,8.6L28.9,8.6L28.9,8.1L27.6,8.1L27.6,12.9L30.1,12.9L30.1,13.5L29.9,13.5L29.9,13.1L27.4,13.1L27.4,7.9L29.1,7.9L29.1,8.4L31.1,8.4L31.1,8.9L31.6,8.9L31.6,9.4L33.1,9.4L33.1,10.9L34.1,10.9L34.1,11.9z" stroke="none"/><path d="M85.4,13.5L85.6,13.5L85.6,14.9L86.1,14.9L86.1,15.4L86.6,15.4L86.6,16.9L87.1,16.9L87.1,18L86.9,18L86.9,17.1L86.4,17.1L86.4,15.6L85.9,15.6L85.9,15.1L85.4,15.1z" stroke="none"/><path d="M58.4,46.5L58.6,46.5L58.6,47.9L59.1,47.9L59.1,48.4L59.6,48.4L59.6,50.9L60,50.9L60,51.1L59.4,51.1L59.4,48.6L58.9,48.6L58.9,48.1L58.4,48.1z" stroke="none"/><path d="M7.5,67.4L7.5,67.6L4.4,67.6L4.4,66.1L3,66.1L3,65.9L4.6,65.9L4.6,67.4z" stroke="none"/><path d="M7.5,88.4L7.5,88.6L5.1,88.6L5.1,89.6L4.1,89.6L4.1,90.1L3,90.1L3,89.9L3.9,89.9L3.9,89.4L4.9,89.4L4.9,88.4z" stroke="none"/><path d="M16.5,76.6L16.5,76.4L18.9,76.4L18.9,74.9L21,74.9L21,75.1L19.1,75.1L19.1,76.6z" stroke="none"/><path d="M13.6,25.5L13.4,25.5L13.4,24.9L14.4,24.9L14.4,23.9L15.4,23.9L15.4,22.4L18,22.4L18,22.6L15.6,22.6L15.6,24.1L14.6,24.1L14.6,25.1L13.6,25.1z" stroke="none"/><path d="M22.5,27.1L22.5,26.9L25.9,26.9L25.9,26.4L26.9,26.4L26.9,24L27.1,24L27.1,26.6L26.1,26.6L26.1,27.1z" stroke="none"/><path d="M90,85.6L90,85.4L91.4,85.4L91.4,83.9L91.9,83.9L91.9,83.4L93.9,83.4L93.9,82.9L97.1,82.9L97.1,87.1L95.6,87.1L95.6,87.6L94.6,87.6L94.6,88.5L94.4,88.5L94.4,87.4L95.4,87.4L95.4,86.9L96.9,86.9L96.9,83.1L94.1,83.1L94.1,83.6L92.1,83.6L92.1,84.1L91.6,84.1L91.6,85.6z" stroke="none"/><path d="M16.4,36L16.6,36L16.6,39.4L17.1,39.4L17.1,40.4L18.6,40.4L18.6,40.9L19.1,40.9L19.1,41.4L19.9,41.4L19.9,40.9L20.4,40.9L20.4,31.6L19.5,31.6L19.5,31.4L20.6,31.4L20.6,41.1L20.1,41.1L20.1,41.6L18.9,41.6L18.9,41.1L18.4,41.1L18.4,40.6L16.9,40.6L16.9,39.6L16.4,39.6z" stroke="none"/><path d="M100.6,93L100.4,93L100.4,92.6L99.4,92.6L99.4,91.6L98.9,91.6L98.9,87L99.1,87L99.1,91.4L99.6,91.4L99.6,92.4L100.6,92.4z" stroke="none"/><path d="M37.6,46.5L37.4,46.5L37.4,41.1L36.4,41.1L36.4,40.6L36,40.6L36,40.4L36.6,40.4L36.6,40.9L37.6,40.9z" stroke="none"/><path d="M36,23.9L36,24.1L32.4,24.1L32.4,23.6L31.9,23.6L31.9,23.1L29.9,23.1L29.9,22.5L30.1,22.5L30.1,22.9L32.1,22.9L32.1,23.4L32.6,23.4L32.6,23.9z" stroke="none"/><path d="M34.5,2.9L34.5,3.1L30.6,3.1L30.6,4.1L30.1,4.1L30.1,4.6L28.5,4.6L28.5,4.4L29.9,4.4L29.9,3.9L30.4,3.9L30.4,2.9z" stroke="none"/><path d="M90,100.6L90,100.4L91.6,100.4L91.6,100.9L92.1,100.9L92.1,102.4L92.6,102.4L92.6,102.9L96.4,102.9L96.4,100.9L96.9,100.9L96.9,100.1L96.4,100.1L96.4,99.6L94.4,99.6L94.4,97.6L92.4,97.6L92.4,97.1L91.9,97.1L91.9,96.6L91.4,96.6L91.4,94.5L91.6,94.5L91.6,96.4L92.1,96.4L92.1,96.9L92.6,96.9L92.6,97.4L94.6,97.4L94.6,99.4L96.6,99.4L96.6,99.9L97.1,99.9L97.1,101.1L96.6,101.1L96.6,103.1L92.4,103.1L92.4,102.6L91.9,102.6L91.9,101.1L91.4,101.1L91.4,100.6z" stroke="none"/><path d="M14.9,13.5L15.1,13.5L15.1,15.4L15.6,15.4L15.6,15.9L16.1,15.9L16.1,16.9L16.6,16.9L16.6,17.4L18.1,17.4L18.1,17.9L19.5,17.9L19.5,18.1L17.9,18.1L17.9,17.6L16.4,17.6L16.4,17.1L15.9,17.1L15.9,16.1L15.4,16.1L15.4,15.6L14.9,15.6z" stroke="none"/><path d="M13.4,30L13.6,30L13.6,32.1L10.6,32.1L10.6,33.1L9.1,33.1L9.1,34.5L8.9,34.5L8.9,32.9L10.4,32.9L10.4,31.9L13.4,31.9z" stroke="none"/><path d="M63.1,34.5L62.9,34.5L62.9,32.9L65.4,32.9L65.4,30.4L65.9,30.4L65.9,29.9L67.5,29.9L67.5,30.1L66.1,30.1L66.1,30.6L65.6,30.6L65.6,33.1L63.1,33.1z" stroke="none"/><path d="M62.9,79.5L63.1,79.5L63.1,82.4L63.6,82.4L63.6,82.9L64.1,82.9L64.1,84.4L65.6,84.4L65.6,84.9L66.9,84.9L66.9,84.4L67.4,84.4L67.4,84L67.6,84L67.6,84.6L67.1,84.6L67.1,85.1L65.4,85.1L65.4,84.6L63.9,84.6L63.9,83.1L63.4,83.1L63.4,82.6L62.9,82.6z" stroke="none"/><path d="M100.4,7.5L100.6,7.5L100.6,13.1L97.6,13.1L97.6,13.5L97.4,13.5L97.4,12.9L100.4,12.9z" stroke="none"/><path d="M50.9,88.5L51.1,88.5L51.1,89.4L51.6,89.4L51.6,89.9L52.6,89.9L52.6,90.4L53.1,90.4L53.1,90.9L53.6,90.9L53.6,93.9L54.1,93.9L54.1,94.5L53.9,94.5L53.9,94.1L53.4,94.1L53.4,91.1L52.9,91.1L52.9,90.6L52.4,90.6L52.4,90.1L51.4,90.1L51.4,89.6L50.9,89.6z" stroke="none"/><path d="M37.5,48.1L37.5,47.9L39.6,47.9L39.6,48.4L40.1,48.4L40.1,49.4L40.6,49.4L40.6,49.9L41.6,49.9L41.6,50.4L42.1,50.4L42.1,50.9L43.6,50.9L43.6,51.4L44.1,51.4L44.1,51.9L44.6,51.9L44.6,53.1L44.1,53.1L44.1,53.6L41.1,53.6L41.1,54.1L40.5,54.1L40.5,53.9L40.9,53.9L40.9,53.4L43.9,53.4L43.9,52.9L44.4,52.9L44.4,52.1L43.9,52.1L43.9,51.6L43.4,51.6L43.4,51.1L41.9,51.1L41.9,50.6L41.4,50.6L41.4,50.1L40.4,50.1L40.4,49.6L39.9,49.6L39.9,48.6L39.4,48.6L39.4,48.1z" stroke="none"/><path d="M18,8.9L18,9.1L15.4,9.1L15.4,3.1L15,3.1L15,2.9L15.6,2.9L15.6,8.9z" stroke="none"/><path d="M60,6.1L60,5.9L60.6,5.9L60.6,6.4L61.1,6.4L61.1,7.4L63.1,7.4L63.1,8.4L64.1,8.4L64.1,8.9L65.1,8.9L65.1,10.4L66,10.4L66,10.6L64.9,10.6L64.9,9.1L63.9,9.1L63.9,8.6L62.9,8.6L62.9,7.6L60.9,7.6L60.9,6.6L60.4,6.6L60.4,6.1z" stroke="none"/><path d="M10.5,21.1L10.5,20.9L11.1,20.9L11.1,21.4L11.6,21.4L11.6,24.6L9.1,24.6L9.1,25.6L8.6,25.6L8.6,26.1L7.6,26.1L7.6,26.6L6.6,26.6L6.6,27.1L6,27.1L6,26.9L6.4,26.9L6.4,26.4L7.4,26.4L7.4,25.9L8.4,25.9L8.4,25.4L8.9,25.4L8.9,24.4L11.4,24.4L11.4,21.6L10.9,21.6L10.9,21.1z" stroke="none"/><path d="M76.5,26.9L76.5,27.1L74.1,27.1L74.1,29.6L73.6,29.6L73.6,30.6L73.1,30.6L73.1,31.1L70.6,31.1L70.6,31.5L70.4,31.5L70.4,30.9L72.9,30.9L72.9,30.4L73.4,30.4L73.4,29.4L73.9,29.4L73.9,26.9z" stroke="none"/><path d="M96,85.4L96,85.6L95.6,85.6L95.6,86.1L94.6,86.1L94.6,86.6L94.1,86.6L94.1,87.1L93.6,87.1L93.6,88.9L94.1,88.9L94.1,89.4L95.4,89.4L95.4,88.9L95.9,88.9L95.9,88.4L96.4,88.4L96.4,87.9L96.9,87.9L96.9,87.4L97.4,87.4L97.4,86.4L97.9,86.4L97.9,85.9L100.1,85.9L100.1,88.4L101.1,88.4L101.1,89.4L102.1,89.4L102.1,90L101.9,90L101.9,89.6L100.9,89.6L100.9,88.6L99.9,88.6L99.9,86.1L98.1,86.1L98.1,86.6L97.6,86.6L97.6,87.6L97.1,87.6L97.1,88.1L96.6,88.1L96.6,88.6L96.1,88.6L96.1,89.1L95.6,89.1L95.6,89.6L93.9,89.6L93.9,89.1L93.4,89.1L93.4,86.9L93.9,86.9L93.9,86.4L94.4,86.4L94.4,85.9L95.4,85.9L95.4,85.4z" stroke="none"/><path d="M47.9,12L48.1,12L48.1,16.1L46.6,16.1L46.6,19.5L46.4,19.5L46.4,15.9L47.9,15.9z" stroke="none"/><path d="M57.1,78L56.9,78L56.9,77.1L55.4,77.1L55.4,75.1L54.4,75.1L54.4,74.6L52.9,74.6L52.9,71.4L53.4,71.4L53.4,70.9L54.4,70.9L54.4,70.4L55.5,70.4L55.5,70.6L54.6,70.6L54.6,71.1L53.6,71.1L53.6,71.6L53.1,71.6L53.1,74.4L54.6,74.4L54.6,74.9L55.6,74.9L55.6,76.9L57.1,76.9z" stroke="none"/><path d="M70.5,34.6L70.5,34.4L76.1,34.4L76.1,35.4L77.1,35.4L77.1,35.9L78,35.9L78,36.1L76.9,36.1L76.9,35.6L75.9,35.6L75.9,34.6z" stroke="none"/><path d="M70.5,91.6L70.5,91.4L77.1,91.4L77.1,92.4L77.6,92.4L77.6,92.9L78,92.9L78,93.1L77.4,93.1L77.4,92.6L76.9,92.6L76.9,91.6z" stroke="none"/><path d="M3,3.1L3,2.9L7.6,2.9L7.6,3.9L8.6,3.9L8.6,4.4L9.1,4.4L9.1,4.9L9.6,4.9L9.6,5.9L10.5,5.9L10.5,6.1L9.4,6.1L9.4,5.1L8.9,5.1L8.9,4.6L8.4,4.6L8.4,4.1L7.4,4.1L7.4,3.1z" stroke="none"/><path d="M51.1,73.5L50.9,73.5L50.9,70.1L46.9,70.1L46.9,69.1L46.4,69.1L46.4,68.6L45.4,68.6L45.4,67.6L45,67.6L45,67.4L45.6,67.4L45.6,68.4L46.6,68.4L46.6,68.9L47.1,68.9L47.1,69.9L51.1,69.9z" stroke="none"/><path d="M58.5,71.9L58.5,72.1L57.9,72.1L57.9,71.6L57.4,71.6L57.4,70.6L56.9,70.6L56.9,70.1L55.9,70.1L55.9,66.6L55.4,66.6L55.4,66.1L54.4,66.1L54.4,65.6L53.9,65.6L53.9,64.5L54.1,64.5L54.1,65.4L54.6,65.4L54.6,65.9L55.6,65.9L55.6,66.4L56.1,66.4L56.1,69.9L57.1,69.9L57.1,70.4L57.6,70.4L57.6,71.4L58.1,71.4L58.1,71.9z" stroke="none"/><path d="M7.4,22.5L7.6,22.5L7.6,23.6L6.6,23.6L6.6,24.6L5.6,24.6L5.6,25.1L5.1,25.1L5.1,27.6L4.6,27.6L4.6,28.1L3.6,28.1L3.6,29.1L3.1,29.1L3.1,30L2.9,30L2.9,28.9L3.4,28.9L3.4,27.9L4.4,27.9L4.4,27.4L4.9,27.4L4.9,24.9L5.4,24.9L5.4,24.4L6.4,24.4L6.4,23.4L7.4,23.4z" stroke="none"/><path d="M60,94.6L60,94.4L66.4,94.4L66.4,93.9L66.9,93.9L66.9,89.9L67.5,89.9L67.5,90.1L67.1,90.1L67.1,94.1L66.6,94.1L66.6,94.6z" stroke="none"/><path d="M78,100.4L78,100.6L75.4,100.6L75.4,100.1L74.9,100.1L74.9,99.6L74.4,99.6L74.4,99.1L73.9,99.1L73.9,98.6L73.4,98.6L73.4,97.1L71.9,97.1L71.9,96.1L71.4,96.1L71.4,95.6L70.4,95.6L70.4,95.1L69.9,95.1L69.9,92.1L69.4,92.1L69.4,90.4L77.6,90.4L77.6,90.9L78.1,90.9L78.1,91.5L77.9,91.5L77.9,91.1L77.4,91.1L77.4,90.6L69.6,90.6L69.6,91.9L70.1,91.9L70.1,94.9L70.6,94.9L70.6,95.4L71.6,95.4L71.6,95.9L72.1,95.9L72.1,96.9L73.6,96.9L73.6,98.4L74.1,98.4L74.1,98.9L74.6,98.9L74.6,99.4L75.1,99.4L75.1,99.9L75.6,99.9L75.6,100.4z" stroke="none"/><path d="M4.4,42L4.6,42L4.6,51L4.4,51z" stroke="none"/><path d="M82.5,70.6L82.5,70.4L88.6,70.4L88.6,70.9L89.1,70.9L89.1,71.4L89.6,71.4L89.6,71.9L91.5,71.9L91.5,72.1L89.4,72.1L89.4,71.6L88.9,71.6L88.9,71.1L88.4,71.1L88.4,70.6z" stroke="none"/><path d="M57,34.4L57,34.6L49.9,34.6L49.9,34.1L49.4,34.1L49.4,33.6L47.9,33.6L47.9,33L48.1,33L48.1,33.4L49.6,33.4L49.6,33.9L50.1,33.9L50.1,34.4z" stroke="none"/><path d="M42.1,48L41.9,48L41.9,44.1L41.4,44.1L41.4,42.6L40.9,42.6L40.9,42.1L38.4,42.1L38.4,41.6L37.9,41.6L37.9,40.1L36.9,40.1L36.9,39.6L35.6,39.6L35.6,40.1L35.1,40.1L35.1,41.4L36.6,41.4L36.6,42.9L37.1,42.9L37.1,44.1L36.6,44.1L36.6,44.6L35.1,44.6L35.1,45.1L34.1,45.1L34.1,46.1L33.6,46.1L33.6,46.6L33,46.6L33,46.4L33.4,46.4L33.4,45.9L33.9,45.9L33.9,44.9L34.9,44.9L34.9,44.4L36.4,44.4L36.4,43.9L36.9,43.9L36.9,43.1L36.4,43.1L36.4,41.6L34.9,41.6L34.9,39.9L35.4,39.9L35.4,39.4L37.1,39.4L37.1,39.9L38.1,39.9L38.1,41.4L38.6,41.4L38.6,41.9L41.1,41.9L41.1,42.4L41.6,42.4L41.6,43.9L42.1,43.9z" stroke="none"/><path d="M6,92.9L6,93.1L3.4,93.1L3.4,92.1L2.4,92.1L2.4,91.6L1.9,91.6L1.9,85.4L2.4,85.4L2.4,84.9L2.9,84.9L2.9,84L3.1,84L3.1,85.1L2.6,85.1L2.6,85.6L2.1,85.6L2.1,91.4L2.6,91.4L2.6,91.9L3.6,91.9L3.6,92.9z" stroke="none"/><path d="M28.4,99L28.6,99L28.6,100.9L29.1,100.9L29.1,101.4L29.6,101.4L29.6,103.1L20.4,103.1L20.4,102.6L19.9,102.6L19.9,100.9L20.4,100.9L20.4,98.1L19.9,98.1L19.9,96.1L19.5,96.1L19.5,95.9L20.1,95.9L20.1,97.9L20.6,97.9L20.6,101.1L20.1,101.1L20.1,102.4L20.6,102.4L20.6,102.9L29.4,102.9L29.4,101.6L28.9,101.6L28.9,101.1L28.4,101.1z" stroke="none"/><path d="M79.6,48L79.4,48L79.4,45.6L78.9,45.6L78.9,45.1L78.4,45.1L78.4,42.1L76.4,42.1L76.4,41.6L74.4,41.6L74.4,40.6L73.5,40.6L73.5,40.4L74.6,40.4L74.6,41.4L76.6,41.4L76.6,41.9L78.6,41.9L78.6,44.9L79.1,44.9L79.1,45.4L79.6,45.4z" stroke="none"/><path d="M19.5,73.4L19.5,73.6L19.1,73.6L19.1,74.1L17.6,74.1L17.6,74.6L17.1,74.6L17.1,75.1L15.1,75.1L15.1,75.6L13.6,75.6L13.6,77.6L11.6,77.6L11.6,78.1L10.5,78.1L10.5,77.9L11.4,77.9L11.4,77.4L13.4,77.4L13.4,75.4L14.9,75.4L14.9,74.9L16.9,74.9L16.9,74.4L17.4,74.4L17.4,73.9L18.9,73.9L18.9,73.4z" stroke="none"/><path d="M13.5,17.9L13.5,18.1L9.1,18.1L9.1,24.1L8.6,24.1L8.6,25.1L6.1,25.1L6.1,25.5L5.9,25.5L5.9,24.9L8.4,24.9L8.4,23.9L8.9,23.9L8.9,17.9z" stroke="none"/><path d="M85.5,19.4L85.5,19.6L84.9,19.6L84.9,17.1L84.4,17.1L84.4,12.9L84.9,12.9L84.9,12.4L93.1,12.4L93.1,12.9L93.6,12.9L93.6,13.4L95.1,13.4L95.1,14.4L96.1,14.4L96.1,15.4L96.6,15.4L96.6,16.4L97.1,16.4L97.1,16.9L97.6,16.9L97.6,17.4L98.1,17.4L98.1,18.4L98.6,18.4L98.6,19.4L99.1,19.4L99.1,24.1L95.1,24.1L95.1,25.6L94.5,25.6L94.5,25.4L94.9,25.4L94.9,23.9L98.9,23.9L98.9,19.6L98.4,19.6L98.4,18.6L97.9,18.6L97.9,17.6L97.4,17.6L97.4,17.1L96.9,17.1L96.9,16.6L96.4,16.6L96.4,15.6L95.9,15.6L95.9,14.6L94.9,14.6L94.9,13.6L93.4,13.6L93.4,13.1L92.9,13.1L92.9,12.6L85.1,12.6L85.1,13.1L84.6,13.1L84.6,16.9L85.1,16.9L85.1,19.4z" stroke="none"/><path d="M13.4,52.5L13.6,52.5L13.6,59.4L14.1,59.4L14.1,60.4L14.6,60.4L14.6,62.1L14.1,62.1L14.1,62.6L10.6,62.6L10.6,63L10.4,63L10.4,62.4L13.9,62.4L13.9,61.9L14.4,61.9L14.4,60.6L13.9,60.6L13.9,59.6L13.4,59.6z" stroke="none"/><path d="M56.9,21L57.1,21L57.1,24.6L56.6,24.6L56.6,25.1L56.1,25.1L56.1,30.1L55.6,30.1L55.6,30.6L55.1,30.6L55.1,31.6L54,31.6L54,31.4L54.9,31.4L54.9,30.4L55.4,30.4L55.4,29.9L55.9,29.9L55.9,24.9L56.4,24.9L56.4,24.4L56.9,24.4z" stroke="none"/><path d="M9.1,84L8.9,84L8.9,81.1L7.9,81.1L7.9,76.9L8.4,76.9L8.4,74.4L10.9,74.4L10.9,73.9L11.9,73.9L11.9,73.5L12.1,73.5L12.1,74.1L11.1,74.1L11.1,74.6L8.6,74.6L8.6,77.1L8.1,77.1L8.1,80.9L9.1,80.9z" stroke="none"/><path d="M34.4,69L34.6,69L34.6,75.9L35.1,75.9L35.1,76.9L36.1,76.9L36.1,77.4L37.1,77.4L37.1,78.9L37.6,78.9L37.6,79.5L37.4,79.5L37.4,79.1L36.9,79.1L36.9,77.6L35.9,77.6L35.9,77.1L34.9,77.1L34.9,76.1L34.4,76.1z" stroke="none"/><path d="M2.9,37.5L3.1,37.5L3.1,37.9L3.6,37.9L3.6,38.4L4.1,38.4L4.1,38.9L4.6,38.9L4.6,39.4L5.1,39.4L5.1,39.9L5.6,39.9L5.6,46.4L6.1,46.4L6.1,48L5.9,48L5.9,46.6L5.4,46.6L5.4,40.1L4.9,40.1L4.9,39.6L4.4,39.6L4.4,39.1L3.9,39.1L3.9,38.6L3.4,38.6L3.4,38.1L2.9,38.1z" stroke="none"/><path d="M85.5,7.4L85.5,7.6L77.6,7.6L77.6,8.6L77.1,8.6L77.1,9.6L75.6,9.6L75.6,10.1L75.1,10.1L75.1,10.5L74.9,10.5L74.9,9.9L75.4,9.9L75.4,9.4L76.9,9.4L76.9,8.4L77.4,8.4L77.4,7.4z" stroke="none"/><path d="M100.5,26.9L100.5,27.1L99.9,27.1L99.9,24.6L97.6,24.6L97.6,25.6L97.1,25.6L97.1,26.6L96.6,26.6L96.6,27.1L96.1,27.1L96.1,27.6L95.6,27.6L95.6,28.1L95.1,28.1L95.1,28.6L93.1,28.6L93.1,29.1L92.1,29.1L92.1,30.1L90.6,30.1L90.6,30.6L87.6,30.6L87.6,31.1L85.6,31.1L85.6,32.1L85.1,32.1L85.1,33.6L84.1,33.6L84.1,34.6L82.6,34.6L82.6,35.1L81.1,35.1L81.1,35.6L78.4,35.6L78.4,26.4L80.4,26.4L80.4,25.9L81.9,25.9L81.9,24.9L82.9,24.9L82.9,23.9L83.4,23.9L83.4,23.4L84.4,23.4L84.4,22.9L88.9,22.9L88.9,22.4L90,22.4L90,22.6L89.1,22.6L89.1,23.1L84.6,23.1L84.6,23.6L83.6,23.6L83.6,24.1L83.1,24.1L83.1,25.1L82.1,25.1L82.1,26.1L80.6,26.1L80.6,26.6L78.6,26.6L78.6,35.4L80.9,35.4L80.9,34.9L82.4,34.9L82.4,34.4L83.9,34.4L83.9,33.4L84.9,33.4L84.9,31.9L85.4,31.9L85.4,30.9L87.4,30.9L87.4,30.4L90.4,30.4L90.4,29.9L91.9,29.9L91.9,28.9L92.9,28.9L92.9,28.4L94.9,28.4L94.9,27.9L95.4,27.9L95.4,27.4L95.9,27.4L95.9,26.9L96.4,26.9L96.4,26.4L96.9,26.4L96.9,25.4L97.4,25.4L97.4,24.4L100.1,24.4L100.1,26.9z" stroke="none"/><path d="M4.4,69L4.6,69L4.6,82.9L5.1,82.9L5.1,84.4L7.1,84.4L7.1,84.9L9.9,84.9L9.9,80.1L8.9,80.1L8.9,79.5L9.1,79.5L9.1,79.9L10.1,79.9L10.1,85.1L6.9,85.1L6.9,84.6L4.9,84.6L4.9,83.1L4.4,83.1z" stroke="none"/><path d="M60,33.1L60,32.9L60.4,32.9L60.4,31.9L64.9,31.9L64.9,29.9L65.4,29.9L65.4,29.4L66.9,29.4L66.9,28.9L69.9,28.9L69.9,28.4L70.5,28.4L70.5,28.6L70.1,28.6L70.1,29.1L67.1,29.1L67.1,29.6L65.6,29.6L65.6,30.1L65.1,30.1L65.1,32.1L60.6,32.1L60.6,33.1z" stroke="none"/><path d="M28.5,76.4L28.5,76.6L22.6,76.6L22.6,77.6L21.6,77.6L21.6,78.1L21.1,78.1L21.1,79.1L20.6,79.1L20.6,79.6L20.1,79.6L20.1,80.1L19.1,80.1L19.1,81.1L18,81.1L18,80.9L18.9,80.9L18.9,79.9L19.9,79.9L19.9,79.4L20.4,79.4L20.4,78.9L20.9,78.9L20.9,77.9L21.4,77.9L21.4,77.4L22.4,77.4L22.4,76.4z" stroke="none"/><path d="M39.1,33L38.9,33L38.9,21L39.1,21z" stroke="none"/><path d="M78,9.1L78,8.9L90,8.9L90,9.1z" stroke="none"/><path d="M17.9,7.5L18.1,7.5L18.1,7.9L18.6,7.9L18.6,8.4L19.6,8.4L19.6,8.9L20.1,8.9L20.1,9.4L20.6,9.4L20.6,11.9L21.1,11.9L21.1,15.4L22.1,15.4L22.1,15.9L22.6,15.9L22.6,16.4L23.6,16.4L23.6,20.1L23.1,20.1L23.1,20.6L18.9,20.6L18.9,19.6L18,19.6L18,19.4L19.1,19.4L19.1,20.4L22.9,20.4L22.9,19.9L23.4,19.9L23.4,16.6L22.4,16.6L22.4,16.1L21.9,16.1L21.9,15.6L20.9,15.6L20.9,12.1L20.4,12.1L20.4,9.6L19.9,9.6L19.9,9.1L19.4,9.1L19.4,8.6L18.4,8.6L18.4,8.1L17.9,8.1z" stroke="none"/><path d="M7.4,60L7.6,60L7.6,66.4L8.6,66.4L8.6,69.1L8.1,69.1L8.1,69.6L7.6,69.6L7.6,70.1L7.1,70.1L7.1,70.6L6.6,70.6L6.6,71.1L6.1,71.1L6.1,72L5.9,72L5.9,70.9L6.4,70.9L6.4,70.4L6.9,70.4L6.9,69.9L7.4,69.9L7.4,69.4L7.9,69.4L7.9,68.9L8.4,68.9L8.4,66.6L7.4,66.6z" stroke="none"/><path d="M9,102.1L9,101.9L12.1,101.9L12.1,102.9L13.9,102.9L13.9,102.4L14.4,102.4L14.4,99.6L13.9,99.6L13.9,93.4L14.9,93.4L14.9,91.5L15.1,91.5L15.1,93.6L14.1,93.6L14.1,99.4L14.6,99.4L14.6,102.6L14.1,102.6L14.1,103.1L11.9,103.1L11.9,102.1z" stroke="none"/><path d="M57,31.6L57,31.4L61.4,31.4L61.4,30.9L62.4,30.9L62.4,30.4L62.9,30.4L62.9,29.9L64.4,29.9L64.4,29.4L64.9,29.4L64.9,28.4L65.4,28.4L65.4,26.4L66.4,26.4L66.4,25.9L66.9,25.9L66.9,25.4L67.5,25.4L67.5,25.6L67.1,25.6L67.1,26.1L66.6,26.1L66.6,26.6L65.6,26.6L65.6,28.6L65.1,28.6L65.1,29.6L64.6,29.6L64.6,30.1L63.1,30.1L63.1,30.6L62.6,30.6L62.6,31.1L61.6,31.1L61.6,31.6z" stroke="none"/><path d="M58.4,49.5L58.6,49.5L58.6,51.4L59.1,51.4L59.1,51.9L59.6,51.9L59.6,61.4L60,61.4L60,61.6L59.4,61.6L59.4,52.1L58.9,52.1L58.9,51.6L58.4,51.6z" stroke="none"/><path d="M77.9,61.5L78.1,61.5L78.1,66.9L78.6,66.9L78.6,67.9L79.6,67.9L79.6,69.9L80.1,69.9L80.1,70.4L81.1,70.4L81.1,70.9L82.1,70.9L82.1,71.4L84.1,71.4L84.1,72L83.9,72L83.9,71.6L81.9,71.6L81.9,71.1L80.9,71.1L80.9,70.6L79.9,70.6L79.9,70.1L79.4,70.1L79.4,68.1L78.4,68.1L78.4,67.1L77.9,67.1z" stroke="none"/><path d="M54.1,60L53.9,60L53.9,50.4L54.9,50.4L54.9,49.9L55.4,49.9L55.4,48.4L56.4,48.4L56.4,47.9L57,47.9L57,48.1L56.6,48.1L56.6,48.6L55.6,48.6L55.6,50.1L55.1,50.1L55.1,50.6L54.1,50.6z" stroke="none"/><path d="M61.4,3L61.6,3L61.6,4.6L60.6,4.6L60.6,5.1L59.1,5.1L59.1,10.4L59.6,10.4L59.6,10.9L60.1,10.9L60.1,11.9L60.6,11.9L60.6,12.9L62.1,12.9L62.1,13.4L64.1,13.4L64.1,14.9L64.5,14.9L64.5,15.1L63.9,15.1L63.9,13.6L61.9,13.6L61.9,13.1L60.4,13.1L60.4,12.1L59.9,12.1L59.9,11.1L59.4,11.1L59.4,10.6L58.9,10.6L58.9,4.9L60.4,4.9L60.4,4.4L61.4,4.4z" stroke="none"/><path d="M29.9,15L30.1,15L30.1,21.1L26.6,21.1L26.6,22.1L23.6,22.1L23.6,22.6L23.1,22.6L23.1,23.1L22.1,23.1L22.1,23.6L21.1,23.6L21.1,24L20.9,24L20.9,23.4L21.9,23.4L21.9,22.9L22.9,22.9L22.9,22.4L23.4,22.4L23.4,21.9L26.4,21.9L26.4,20.9L29.9,20.9z" stroke="none"/><path d="M13.5,24.1L13.5,23.9L13.9,23.9L13.9,23.4L14.9,23.4L14.9,21.9L17.4,21.9L17.4,21.4L19.1,21.4L19.1,23.4L19.6,23.4L19.6,23.9L20.1,23.9L20.1,24.9L21.1,24.9L21.1,25.9L21.6,25.9L21.6,27.9L25.1,27.9L25.1,28.4L25.5,28.4L25.5,28.6L24.9,28.6L24.9,28.1L21.4,28.1L21.4,26.1L20.9,26.1L20.9,25.1L19.9,25.1L19.9,24.1L19.4,24.1L19.4,23.6L18.9,23.6L18.9,21.6L17.6,21.6L17.6,22.1L15.1,22.1L15.1,23.6L14.1,23.6L14.1,24.1z" stroke="none"/><path d="M88.4,97.5L88.6,97.5L88.6,100.1L88.1,100.1L88.1,100.6L84.1,100.6L84.1,101.1L83.6,101.1L83.6,101.6L83.1,101.6L83.1,103.1L76.9,103.1L76.9,102.6L76.4,102.6L76.4,102L76.6,102L76.6,102.4L77.1,102.4L77.1,102.9L82.9,102.9L82.9,101.4L83.4,101.4L83.4,100.9L83.9,100.9L83.9,100.4L87.9,100.4L87.9,99.9L88.4,99.9z" stroke="none"/><path d="M44.9,94.5L45.1,94.5L45.1,96.4L45.6,96.4L45.6,96.9L51.1,96.9L51.1,97.4L52.1,97.4L52.1,98.4L55.1,98.4L55.1,99.4L55.6,99.4L55.6,102L55.4,102L55.4,99.6L54.9,99.6L54.9,98.6L51.9,98.6L51.9,97.6L50.9,97.6L50.9,97.1L45.4,97.1L45.4,96.6L44.9,96.6z" stroke="none"/><path d="M81.1,16.5L80.9,16.5L80.9,16.1L78.4,16.1L78.4,14.1L77.9,14.1L77.9,12.6L75.9,12.6L75.9,12.1L75.4,12.1L75.4,11.6L74.4,11.6L74.4,11.1L73.9,11.1L73.9,7.9L74.4,7.9L74.4,6.6L73.1,6.6L73.1,7.1L72.1,7.1L72.1,8.1L71.1,8.1L71.1,8.6L70.6,8.6L70.6,9L70.4,9L70.4,8.4L70.9,8.4L70.9,7.9L71.9,7.9L71.9,6.9L72.9,6.9L72.9,6.4L74.6,6.4L74.6,8.1L74.1,8.1L74.1,10.9L74.6,10.9L74.6,11.4L75.6,11.4L75.6,11.9L76.1,11.9L76.1,12.4L78.1,12.4L78.1,13.9L78.6,13.9L78.6,15.9L81.1,15.9z" stroke="none"/><path d="M5.9,55.5L6.1,55.5L6.1,56.9L6.6,56.9L6.6,57.9L7.6,57.9L7.6,58.4L8.1,58.4L8.1,59.4L8.6,59.4L8.6,64.9L10.6,64.9L10.6,65.4L11.1,65.4L11.1,65.9L13.5,65.9L13.5,66.1L10.9,66.1L10.9,65.6L10.4,65.6L10.4,65.1L8.4,65.1L8.4,59.6L7.9,59.6L7.9,58.6L7.4,58.6L7.4,58.1L6.4,58.1L6.4,57.1L5.9,57.1z" stroke="none"/><path d="M46.6,15L46.4,15L46.4,10.9L47.4,10.9L47.4,9.9L47.9,9.9L47.9,9.4L49.4,9.4L49.4,8.9L49.9,8.9L49.9,7.9L50.9,7.9L50.9,7.4L51.4,7.4L51.4,6.9L51.9,6.9L51.9,6.4L52.4,6.4L52.4,5.9L52.9,5.9L52.9,4.4L54,4.4L54,4.6L53.1,4.6L53.1,6.1L52.6,6.1L52.6,6.6L52.1,6.6L52.1,7.1L51.6,7.1L51.6,7.6L51.1,7.6L51.1,8.1L50.1,8.1L50.1,9.1L49.6,9.1L49.6,9.6L48.1,9.6L48.1,10.1L47.6,10.1L47.6,11.1L46.6,11.1z" stroke="none"/><path d="M54.1,82.5L53.9,82.5L53.9,80.6L51.4,80.6L51.4,80.1L48.9,80.1L48.9,78.6L48.4,78.6L48.4,75.1L47.9,75.1L47.9,74.6L46.9,74.6L46.9,73.1L46.4,73.1L46.4,72L46.6,72L46.6,72.9L47.1,72.9L47.1,74.4L48.1,74.4L48.1,74.9L48.6,74.9L48.6,78.4L49.1,78.4L49.1,79.9L51.6,79.9L51.6,80.4L54.1,80.4z" stroke="none"/><path d="M67.6,45L67.4,45L67.4,41.1L62.9,41.1L62.9,39.1L62.4,39.1L62.4,37.1L61.9,37.1L61.9,33.1L61.5,33.1L61.5,32.9L62.1,32.9L62.1,36.9L62.6,36.9L62.6,38.9L63.1,38.9L63.1,40.9L67.6,40.9z" stroke="none"/><path d="M36.1,19.5L35.9,19.5L35.9,18.9L36.4,18.9L36.4,18.4L37.9,18.4L37.9,17.9L38.9,17.9L38.9,17.4L39.4,17.4L39.4,16.9L39.9,16.9L39.9,16.4L40.4,16.4L40.4,15.9L40.9,15.9L40.9,15.4L41.4,15.4L41.4,7.4L42,7.4L42,7.6L41.6,7.6L41.6,15.6L41.1,15.6L41.1,16.1L40.6,16.1L40.6,16.6L40.1,16.6L40.1,17.1L39.6,17.1L39.6,17.6L39.1,17.6L39.1,18.1L38.1,18.1L38.1,18.6L36.6,18.6L36.6,19.1L36.1,19.1z" stroke="none"/><path d="M94.5,77.9L94.5,78.1L87.4,78.1L87.4,77.6L85.9,77.6L85.9,77.1L84.6,77.1L84.6,77.6L81.6,77.6L81.6,78.1L81,78.1L81,77.9L81.4,77.9L81.4,77.4L84.4,77.4L84.4,76.9L86.1,76.9L86.1,77.4L87.6,77.4L87.6,77.9z" stroke="none"/><path d="M86.9,37.5L87.1,37.5L87.1,42.6L85.6,42.6L85.6,43.1L84.1,43.1L84.1,44.1L83.6,44.1L83.6,44.6L83.1,44.6L83.1,45.1L82.6,45.1L82.6,45.6L82.1,45.6L82.1,46.1L81.6,46.1L81.6,46.6L81.1,46.6L81.1,48.1L80.6,48.1L80.6,49.1L78.4,49.1L78.4,47.1L76.4,47.1L76.4,46.5L76.6,46.5L76.6,46.9L78.6,46.9L78.6,48.9L80.4,48.9L80.4,47.9L80.9,47.9L80.9,46.4L81.4,46.4L81.4,45.9L81.9,45.9L81.9,45.4L82.4,45.4L82.4,44.9L82.9,44.9L82.9,44.4L83.4,44.4L83.4,43.9L83.9,43.9L83.9,42.9L85.4,42.9L85.4,42.4L86.9,42.4z" stroke="none"/><path d="M92.9,60L93.1,60L93.1,60.9L94.1,60.9L94.1,61.9L94.6,61.9L94.6,62.4L95.1,62.4L95.1,63.9L95.6,63.9L95.6,64.4L97.1,64.4L97.1,64.9L97.6,64.9L97.6,65.9L98.6,65.9L98.6,67.4L99.6,67.4L99.6,67.9L100.1,67.9L100.1,68.9L100.6,68.9L100.6,70.4L102,70.4L102,70.6L100.4,70.6L100.4,69.1L99.9,69.1L99.9,68.1L99.4,68.1L99.4,67.6L98.4,67.6L98.4,66.1L97.4,66.1L97.4,65.1L96.9,65.1L96.9,64.6L95.4,64.6L95.4,64.1L94.9,64.1L94.9,62.6L94.4,62.6L94.4,62.1L93.9,62.1L93.9,61.1L92.9,61.1z" stroke="none"/><path d="M64.6,16.5L64.4,16.5L64.4,15.9L64.9,15.9L64.9,15.4L65.4,15.4L65.4,12.4L65.9,12.4L65.9,11.9L66.4,11.9L66.4,10.9L66.9,10.9L66.9,10.1L66.4,10.1L66.4,9.6L65.9,9.6L65.9,9.1L65.4,9.1L65.4,8.6L64.9,8.6L64.9,6.1L63.9,6.1L63.9,5.1L63.4,5.1L63.4,3.9L63.9,3.9L63.9,3.4L65.9,3.4L65.9,2.9L67.5,2.9L67.5,3.1L66.1,3.1L66.1,3.6L64.1,3.6L64.1,4.1L63.6,4.1L63.6,4.9L64.1,4.9L64.1,5.9L65.1,5.9L65.1,8.4L65.6,8.4L65.6,8.9L66.1,8.9L66.1,9.4L66.6,9.4L66.6,9.9L67.1,9.9L67.1,11.1L66.6,11.1L66.6,12.1L66.1,12.1L66.1,12.6L65.6,12.6L65.6,15.6L65.1,15.6L65.1,16.1L64.6,16.1z" stroke="none"/><path d="M22.6,100.5L22.4,100.5L22.4,95.1L21.4,95.1L21.4,94.1L20.9,94.1L20.9,93.6L20.4,93.6L20.4,92.1L19.9,92.1L19.9,88.6L19.4,88.6L19.4,87L19.6,87L19.6,88.4L20.1,88.4L20.1,91.9L20.6,91.9L20.6,93.4L21.1,93.4L21.1,93.9L21.6,93.9L21.6,94.9L22.6,94.9z" stroke="none"/><path d="M36.1,70.5L35.9,70.5L35.9,68.6L35.4,68.6L35.4,68.1L34.1,68.1L34.1,68.6L33.6,68.6L33.6,77.6L32.1,77.6L32.1,78.1L31.1,78.1L31.1,79.6L30.6,79.6L30.6,80.6L30.1,80.6L30.1,81.1L29.6,81.1L29.6,82.6L28.5,82.6L28.5,82.4L29.4,82.4L29.4,80.9L29.9,80.9L29.9,80.4L30.4,80.4L30.4,79.4L30.9,79.4L30.9,77.9L31.9,77.9L31.9,77.4L33.4,77.4L33.4,68.4L33.9,68.4L33.9,67.9L35.6,67.9L35.6,68.4L36.1,68.4z" stroke="none"/><path d="M95.9,9L96.1,9L96.1,13.9L96.6,13.9L96.6,14.4L97.1,14.4L97.1,15.9L97.6,15.9L97.6,16.4L98.1,16.4L98.1,16.9L98.6,16.9L98.6,17.4L99.1,17.4L99.1,18.9L99.6,18.9L99.6,21.9L101.6,21.9L101.6,22.4L102,22.4L102,22.6L101.4,22.6L101.4,22.1L99.4,22.1L99.4,19.1L98.9,19.1L98.9,17.6L98.4,17.6L98.4,17.1L97.9,17.1L97.9,16.6L97.4,16.6L97.4,16.1L96.9,16.1L96.9,14.6L96.4,14.6L96.4,14.1L95.9,14.1z" stroke="none"/><path d="M49.5,37.6L49.5,37.4L49.9,37.4L49.9,36.4L56.9,36.4L56.9,35.9L57.4,35.9L57.4,34.9L57.9,34.9L57.9,33.1L57.4,33.1L57.4,32.6L55.9,32.6L55.9,30.9L56.4,30.9L56.4,26.9L57.4,26.9L57.4,26.4L57.9,26.4L57.9,25.9L58.4,25.9L58.4,25.5L58.6,25.5L58.6,26.1L58.1,26.1L58.1,26.6L57.6,26.6L57.6,27.1L56.6,27.1L56.6,31.1L56.1,31.1L56.1,32.4L57.6,32.4L57.6,32.9L58.1,32.9L58.1,35.1L57.6,35.1L57.6,36.1L57.1,36.1L57.1,36.6L50.1,36.6L50.1,37.6z" stroke="none"/><path d="M36,3.1L36,2.9L51,2.9L51,3.1z" stroke="none"/><path d="M64.6,61.5L64.4,61.5L64.4,60.1L63.9,60.1L63.9,59.1L63.4,59.1L63.4,47.6L62.9,47.6L62.9,46.5L63.1,46.5L63.1,47.4L63.6,47.4L63.6,58.9L64.1,58.9L64.1,59.9L64.6,59.9z" stroke="none"/><path d="M37.4,27L37.6,27L37.6,32.9L38.1,32.9L38.1,33.4L38.6,33.4L38.6,33.9L39.9,33.9L39.9,33.4L43.4,33.4L43.4,31.9L50.4,31.9L50.4,30.4L51.4,30.4L51.4,29.9L52.5,29.9L52.5,30.1L51.6,30.1L51.6,30.6L50.6,30.6L50.6,32.1L43.6,32.1L43.6,33.6L40.1,33.6L40.1,34.1L38.4,34.1L38.4,33.6L37.9,33.6L37.9,33.1L37.4,33.1z" stroke="none"/><path d="M57,25.6L57,25.4L57.4,25.4L57.4,22.4L57.9,22.4L57.9,20.6L57.4,20.6L57.4,20.1L51.6,20.1L51.6,20.6L51.1,20.6L51.1,21.1L50.1,21.1L50.1,21.6L49.6,21.6L49.6,22.1L42.6,22.1L42.6,22.6L42,22.6L42,22.4L42.4,22.4L42.4,21.9L49.4,21.9L49.4,21.4L49.9,21.4L49.9,20.9L50.9,20.9L50.9,20.4L51.4,20.4L51.4,19.9L57.6,19.9L57.6,20.4L58.1,20.4L58.1,22.6L57.6,22.6L57.6,25.6z" stroke="none"/><path d="M46.4,37.5L46.6,37.5L46.6,51.6L45.6,51.6L45.6,53.6L44.6,53.6L44.6,54.1L42.1,54.1L42.1,54.6L41.1,54.6L41.1,55.1L39.4,55.1L39.4,52.1L38.9,52.1L38.9,51L39.1,51L39.1,51.9L39.6,51.9L39.6,54.9L40.9,54.9L40.9,54.4L41.9,54.4L41.9,53.9L44.4,53.9L44.4,53.4L45.4,53.4L45.4,51.4L46.4,51.4z" stroke="none"/><path d="M29.9,100.5L30.1,100.5L30.1,103.6L19.9,103.6L19.9,103.1L19.4,103.1L19.4,101.6L17.4,101.6L17.4,101.1L16.9,101.1L16.9,95.1L16.4,95.1L16.4,93L16.6,93L16.6,94.9L17.1,94.9L17.1,100.9L17.6,100.9L17.6,101.4L19.6,101.4L19.6,102.9L20.1,102.9L20.1,103.4L29.9,103.4z" stroke="none"/><path d="M68.9,58.5L69.1,58.5L69.1,63.4L70.1,63.4L70.1,63.9L70.6,63.9L70.6,64.4L71.1,64.4L71.1,64.9L72.1,64.9L72.1,65.4L73.1,65.4L73.1,68.4L74.6,68.4L74.6,68.9L75.1,68.9L75.1,69.4L75.6,69.4L75.6,69.9L76.1,69.9L76.1,70.9L76.6,70.9L76.6,72L76.4,72L76.4,71.1L75.9,71.1L75.9,70.1L75.4,70.1L75.4,69.6L74.9,69.6L74.9,69.1L74.4,69.1L74.4,68.6L72.9,68.6L72.9,65.6L71.9,65.6L71.9,65.1L70.9,65.1L70.9,64.6L70.4,64.6L70.4,64.1L69.9,64.1L69.9,63.6L68.9,63.6z" stroke="none"/><path d="M51,25.4L51,25.6L42.9,25.6L42.9,24.6L41.4,24.6L41.4,23.1L40.9,23.1L40.9,21.6L40.4,21.6L40.4,20.1L38.6,20.1L38.6,20.6L38.1,20.6L38.1,25.6L37.1,25.6L37.1,26.6L36.6,26.6L36.6,33.9L37.6,33.9L37.6,34.4L38.1,34.4L38.1,34.9L38.6,34.9L38.6,35.9L39,35.9L39,36.1L38.4,36.1L38.4,35.1L37.9,35.1L37.9,34.6L37.4,34.6L37.4,34.1L36.4,34.1L36.4,26.4L36.9,26.4L36.9,25.4L37.9,25.4L37.9,20.4L38.4,20.4L38.4,19.9L40.6,19.9L40.6,21.4L41.1,21.4L41.1,22.9L41.6,22.9L41.6,24.4L43.1,24.4L43.1,25.4z" stroke="none"/><path d="M24,85.6L24,85.4L24.6,85.4L24.6,85.9L25.1,85.9L25.1,86.4L35.6,86.4L35.6,86.9L36.1,86.9L36.1,87.9L36.6,87.9L36.6,88.9L37.1,88.9L37.1,89.9L37.6,89.9L37.6,95.1L36.6,95.1L36.6,96.1L36,96.1L36,95.9L36.4,95.9L36.4,94.9L37.4,94.9L37.4,90.1L36.9,90.1L36.9,89.1L36.4,89.1L36.4,88.1L35.9,88.1L35.9,87.1L35.4,87.1L35.4,86.6L24.9,86.6L24.9,86.1L24.4,86.1L24.4,85.6z" stroke="none"/><path d="M48,21.1L48,20.9L48.9,20.9L48.9,20.4L50.4,20.4L50.4,19.9L50.9,19.9L50.9,19.4L60.4,19.4L60.4,17.9L61.9,17.9L61.9,15.4L62.4,15.4L62.4,14.9L63,14.9L63,15.1L62.6,15.1L62.6,15.6L62.1,15.6L62.1,18.1L60.6,18.1L60.6,19.6L51.1,19.6L51.1,20.1L50.6,20.1L50.6,20.6L49.1,20.6L49.1,21.1z" stroke="none"/><path d="M33.1,43.5L32.9,43.5L32.9,40.4L33.4,40.4L33.4,39.9L33.9,39.9L33.9,38.9L44.9,38.9L44.9,38.4L45.4,38.4L45.4,36.9L45.9,36.9L45.9,36.4L47.1,36.4L47.1,36.9L47.6,36.9L47.6,46.6L47.1,46.6L47.1,54.6L44.6,54.6L44.6,55.1L42.6,55.1L42.6,56.6L42.1,56.6L42.1,57L41.9,57L41.9,56.4L42.4,56.4L42.4,54.9L44.4,54.9L44.4,54.4L46.9,54.4L46.9,46.4L47.4,46.4L47.4,37.1L46.9,37.1L46.9,36.6L46.1,36.6L46.1,37.1L45.6,37.1L45.6,38.6L45.1,38.6L45.1,39.1L34.1,39.1L34.1,40.1L33.6,40.1L33.6,40.6L33.1,40.6z" stroke="none"/><path d="M78.1,102L77.9,102L77.9,101.6L77.4,101.6L77.4,101.1L76.1,101.1L76.1,101.6L75.6,101.6L75.6,103.4L96.9,103.4L96.9,102.4L97.4,102.4L97.4,99.6L96.9,99.6L96.9,99.1L95.9,99.1L95.9,98.6L95.4,98.6L95.4,97.1L94.4,97.1L94.4,96.6L93.9,96.6L93.9,96.1L93.4,96.1L93.4,95.1L92.9,95.1L92.9,94.5L93.1,94.5L93.1,94.9L93.6,94.9L93.6,95.9L94.1,95.9L94.1,96.4L94.6,96.4L94.6,96.9L95.6,96.9L95.6,98.4L96.1,98.4L96.1,98.9L97.1,98.9L97.1,99.4L97.6,99.4L97.6,102.6L97.1,102.6L97.1,103.6L75.4,103.6L75.4,101.4L75.9,101.4L75.9,100.9L77.6,100.9L77.6,101.4L78.1,101.4z" stroke="none"/><path d="M52.5,100.4L52.5,100.6L36.4,100.6L36.4,97.6L36,97.6L36,97.4L36.6,97.4L36.6,100.4z" stroke="none"/><path d="M84,102.1L84,101.9L87.9,101.9L87.9,100.9L88.4,100.9L88.4,100.4L88.9,100.4L88.9,97.9L89.4,97.9L89.4,91.6L88.9,91.6L88.9,87.9L89.4,87.9L89.4,87.4L91.4,87.4L91.4,87L91.6,87L91.6,87.6L89.6,87.6L89.6,88.1L89.1,88.1L89.1,91.4L89.6,91.4L89.6,98.1L89.1,98.1L89.1,100.6L88.6,100.6L88.6,101.1L88.1,101.1L88.1,102.1z" stroke="none"/><path d="M19.5,92.9L19.5,93.1L17.9,93.1L17.9,92.6L16.9,92.6L16.9,92.1L16.1,92.1L16.1,92.6L15.6,92.6L15.6,97.9L16.1,97.9L16.1,100.4L16.6,100.4L16.6,101.4L17.1,101.4L17.1,101.9L18.6,101.9L18.6,102.4L19.1,102.4L19.1,103.4L19.6,103.4L19.6,103.9L31.9,103.9L31.9,103.4L32.9,103.4L32.9,101.4L33.9,101.4L33.9,100.4L34.5,100.4L34.5,100.6L34.1,100.6L34.1,101.6L33.1,101.6L33.1,103.6L32.1,103.6L32.1,104.1L19.4,104.1L19.4,103.6L18.9,103.6L18.9,102.6L18.4,102.6L18.4,102.1L16.9,102.1L16.9,101.6L16.4,101.6L16.4,100.6L15.9,100.6L15.9,98.1L15.4,98.1L15.4,92.4L15.9,92.4L15.9,91.9L17.1,91.9L17.1,92.4L18.1,92.4L18.1,92.9z" stroke="none"/><path d="M100.5,90.1L100.5,89.9L101.1,89.9L101.1,90.9L102.4,90.9L102.4,90.4L102.9,90.4L102.9,86.6L100.9,86.6L100.9,86.1L100.4,86.1L100.4,85.6L99.4,85.6L99.4,84.6L98.9,84.6L98.9,84.1L97.9,84.1L97.9,82.6L88.6,82.6L88.6,83.6L86.4,83.6L86.4,83.1L85.9,83.1L85.9,82.6L85.5,82.6L85.5,82.4L86.1,82.4L86.1,82.9L86.6,82.9L86.6,83.4L88.4,83.4L88.4,82.4L98.1,82.4L98.1,83.9L99.1,83.9L99.1,84.4L99.6,84.4L99.6,85.4L100.6,85.4L100.6,85.9L101.1,85.9L101.1,86.4L103.1,86.4L103.1,90.6L102.6,90.6L102.6,91.1L100.9,91.1L100.9,90.1z" stroke="none"/><path d="M83.9,46.5L84.1,46.5L84.1,58.4L86.6,58.4L86.6,59.9L87.1,59.9L87.1,62.4L87.6,62.4L87.6,62.9L88.5,62.9L88.5,63.1L87.4,63.1L87.4,62.6L86.9,62.6L86.9,60.1L86.4,60.1L86.4,58.6L83.9,58.6z" stroke="none"/><path d="M49.4,66L49.6,66L49.6,68.9L50.1,68.9L50.1,69.4L51.6,69.4L51.6,72.9L52.1,72.9L52.1,77.9L55.6,77.9L55.6,78.4L56.1,78.4L56.1,78.9L57.6,78.9L57.6,80.4L58.1,80.4L58.1,80.9L58.5,80.9L58.5,81.1L57.9,81.1L57.9,80.6L57.4,80.6L57.4,79.1L55.9,79.1L55.9,78.6L55.4,78.6L55.4,78.1L51.9,78.1L51.9,73.1L51.4,73.1L51.4,69.6L49.9,69.6L49.9,69.1L49.4,69.1z" stroke="none"/><path d="M11.9,81L12.1,81L12.1,90.1L10.6,90.1L10.6,90.6L10.1,90.6L10.1,92.1L9.6,92.1L9.6,92.6L9.1,92.6L9.1,93.6L8.6,93.6L8.6,95.1L8.1,95.1L8.1,99.6L7.6,99.6L7.6,100.1L6.1,100.1L6.1,100.6L5.6,100.6L5.6,101.1L5.1,101.1L5.1,102.4L5.6,102.4L5.6,102.9L11.1,102.9L11.1,103.4L14.4,103.4L14.4,102.9L14.9,102.9L14.9,99L15.1,99L15.1,103.1L14.6,103.1L14.6,103.6L10.9,103.6L10.9,103.1L5.4,103.1L5.4,102.6L4.9,102.6L4.9,100.9L5.4,100.9L5.4,100.4L5.9,100.4L5.9,99.9L7.4,99.9L7.4,99.4L7.9,99.4L7.9,94.9L8.4,94.9L8.4,93.4L8.9,93.4L8.9,92.4L9.4,92.4L9.4,91.9L9.9,91.9L9.9,90.4L10.4,90.4L10.4,89.9L11.9,89.9z" stroke="none"/><path d="M6.1,22.5L5.9,22.5L5.9,15.9L6.4,15.9L6.4,14.4L6.9,14.4L6.9,6.6L6.4,6.6L6.4,4.9L8.1,4.9L8.1,5.4L9.1,5.4L9.1,6.4L9.6,6.4L9.6,6.9L11.4,6.9L11.4,5.4L11.9,5.4L11.9,3.4L12.9,3.4L12.9,2.9L13.4,2.9L13.4,2.4L13.9,2.4L13.9,1.9L16.1,1.9L16.1,4.9L16.6,4.9L16.6,7.5L16.4,7.5L16.4,5.1L15.9,5.1L15.9,2.1L14.1,2.1L14.1,2.6L13.6,2.6L13.6,3.1L13.1,3.1L13.1,3.6L12.1,3.6L12.1,5.6L11.6,5.6L11.6,7.1L9.4,7.1L9.4,6.6L8.9,6.6L8.9,5.6L7.9,5.6L7.9,5.1L6.6,5.1L6.6,6.4L7.1,6.4L7.1,14.6L6.6,14.6L6.6,16.1L6.1,16.1z" stroke="none"/><path d="M36,6.1L36,5.9L48.9,5.9L48.9,4.9L49.4,4.9L49.4,4.4L50.4,4.4L50.4,3.9L53.4,3.9L53.4,3.4L54.6,3.4L54.6,3.9L55.1,3.9L55.1,13.6L54.1,13.6L54.1,14.6L52.6,14.6L52.6,15L52.4,15L52.4,14.4L53.9,14.4L53.9,13.4L54.9,13.4L54.9,4.1L54.4,4.1L54.4,3.6L53.6,3.6L53.6,4.1L50.6,4.1L50.6,4.6L49.6,4.6L49.6,5.1L49.1,5.1L49.1,6.1z" stroke="none"/><path d="M22.5,40.6L22.5,40.4L29.9,40.4L29.9,39.9L30.4,39.9L30.4,39.4L31.4,39.4L31.4,33.9L32.4,33.9L32.4,32.9L32.9,32.9L32.9,32.4L33.9,32.4L33.9,31.9L35.4,31.9L35.4,26.1L34.4,26.1L34.4,25.6L33.9,25.6L33.9,24.6L31.9,24.6L31.9,24.1L31.5,24.1L31.5,23.9L32.1,23.9L32.1,24.4L34.1,24.4L34.1,25.4L34.6,25.4L34.6,25.9L35.6,25.9L35.6,32.1L34.1,32.1L34.1,32.6L33.1,32.6L33.1,33.1L32.6,33.1L32.6,34.1L31.6,34.1L31.6,39.6L30.6,39.6L30.6,40.1L30.1,40.1L30.1,40.6z" stroke="none"/><path d="M55.6,15L55.4,15L55.4,3.6L54.9,3.6L54.9,3.1L52.4,3.1L52.4,2.6L51.9,2.6L51.9,2.1L29.1,2.1L29.1,3.1L28.1,3.1L28.1,4.1L27.6,4.1L27.6,4.9L28.1,4.9L28.1,5.4L33.1,5.4L33.1,6.9L34.6,6.9L34.6,7.4L35.6,7.4L35.6,7.9L36.6,7.9L36.6,8.4L37.6,8.4L37.6,9L37.4,9L37.4,8.6L36.4,8.6L36.4,8.1L35.4,8.1L35.4,7.6L34.4,7.6L34.4,7.1L32.9,7.1L32.9,5.6L27.9,5.6L27.9,5.1L27.4,5.1L27.4,3.9L27.9,3.9L27.9,2.9L28.9,2.9L28.9,1.9L52.1,1.9L52.1,2.4L52.6,2.4L52.6,2.9L55.1,2.9L55.1,3.4L55.6,3.4z" stroke="none"/><path d="M12,70.6L12,70.4L22.1,70.4L22.1,70.9L23.6,70.9L23.6,71.9L24.1,71.9L24.1,72.4L25.1,72.4L25.1,72.9L27.1,72.9L27.1,73.4L27.6,73.4L27.6,73.9L28.1,73.9L28.1,75.4L29.6,75.4L29.6,78.1L29.1,78.1L29.1,78.6L28.6,78.6L28.6,79.1L27.6,79.1L27.6,80.6L27.1,80.6L27.1,81.1L26.6,81.1L26.6,81.6L26.1,81.6L26.1,84.1L25.5,84.1L25.5,83.9L25.9,83.9L25.9,81.4L26.4,81.4L26.4,80.9L26.9,80.9L26.9,80.4L27.4,80.4L27.4,78.9L28.4,78.9L28.4,78.4L28.9,78.4L28.9,77.9L29.4,77.9L29.4,75.6L27.9,75.6L27.9,74.1L27.4,74.1L27.4,73.6L26.9,73.6L26.9,73.1L24.9,73.1L24.9,72.6L23.9,72.6L23.9,72.1L23.4,72.1L23.4,71.1L21.9,71.1L21.9,70.6z" stroke="none"/><path d="M34.6,33L34.4,33L34.4,32.4L35.9,32.4L35.9,25.4L36.4,25.4L36.4,24.4L36.9,24.4L36.9,20.4L37.4,20.4L37.4,19.9L37.9,19.9L37.9,19.4L44.6,19.4L44.6,19.9L46.1,19.9L46.1,20.4L47.4,20.4L47.4,19.9L47.9,19.9L47.9,19.5L48.1,19.5L48.1,20.1L47.6,20.1L47.6,20.6L45.9,20.6L45.9,20.1L44.4,20.1L44.4,19.6L38.1,19.6L38.1,20.1L37.6,20.1L37.6,20.6L37.1,20.6L37.1,24.6L36.6,24.6L36.6,25.6L36.1,25.6L36.1,32.6L34.6,32.6z" stroke="none"/><path d="M18,28.4L18,28.6L8.6,28.6L8.6,29.1L6.1,29.1L6.1,30.6L5.1,30.6L5.1,31.1L1.9,31.1L1.9,18.4L2.4,18.4L2.4,16.9L3.4,16.9L3.4,14.9L5.4,14.9L5.4,13.9L5.9,13.9L5.9,13.5L6.1,13.5L6.1,14.1L5.6,14.1L5.6,15.1L3.6,15.1L3.6,17.1L2.6,17.1L2.6,18.6L2.1,18.6L2.1,30.9L4.9,30.9L4.9,30.4L5.9,30.4L5.9,28.9L8.4,28.9L8.4,28.4z" stroke="none"/><path d="M22.4,46.5L22.6,46.5L22.6,47.1L21.6,47.1L21.6,47.6L21.1,47.6L21.1,48.1L20.1,48.1L20.1,48.6L15.6,48.6L15.6,62.1L15.1,62.1L15.1,62.6L14.6,62.6L14.6,63.1L12.1,63.1L12.1,64.1L9.9,64.1L9.9,63.6L9.4,63.6L9.4,61.9L9.9,61.9L9.9,61.4L10.5,61.4L10.5,61.6L10.1,61.6L10.1,62.1L9.6,62.1L9.6,63.4L10.1,63.4L10.1,63.9L11.9,63.9L11.9,62.9L14.4,62.9L14.4,62.4L14.9,62.4L14.9,61.9L15.4,61.9L15.4,48.4L19.9,48.4L19.9,47.9L20.9,47.9L20.9,47.4L21.4,47.4L21.4,46.9L22.4,46.9z" stroke="none"/><path d="M78.1,70.5L77.9,70.5L77.9,68.1L77.4,68.1L77.4,62.1L76.9,62.1L76.9,55.6L73.9,55.6L73.9,55.1L73.4,55.1L73.4,54.6L72.9,54.6L72.9,54.1L72.4,54.1L72.4,53.1L71.4,53.1L71.4,52.6L70.5,52.6L70.5,52.4L71.6,52.4L71.6,52.9L72.6,52.9L72.6,53.9L73.1,53.9L73.1,54.4L73.6,54.4L73.6,54.9L74.1,54.9L74.1,55.4L77.1,55.4L77.1,61.9L77.6,61.9L77.6,67.9L78.1,67.9z" stroke="none"/><path d="M85.6,64.5L85.4,64.5L85.4,61.1L84.9,61.1L84.9,60.6L84.4,60.6L84.4,60.1L83.4,60.1L83.4,47.1L82.9,47.1L82.9,45.9L83.4,45.9L83.4,45.4L83.9,45.4L83.9,45L84.1,45L84.1,45.6L83.6,45.6L83.6,46.1L83.1,46.1L83.1,46.9L83.6,46.9L83.6,59.9L84.6,59.9L84.6,60.4L85.1,60.4L85.1,60.9L85.6,60.9z" stroke="none"/><path d="M51.1,45L50.9,45L50.9,42.6L50.4,42.6L50.4,40.1L49.9,40.1L49.9,39.6L49.4,39.6L49.4,38.6L48.4,38.6L48.4,36.1L43.1,36.1L43.1,36.6L41.6,36.6L41.6,37.1L34.1,37.1L34.1,37.6L33.6,37.6L33.6,39.1L33.1,39.1L33.1,40.1L32.6,40.1L32.6,40.6L32.1,40.6L32.1,41.6L31.6,41.6L31.6,42L31.4,42L31.4,41.4L31.9,41.4L31.9,40.4L32.4,40.4L32.4,39.9L32.9,39.9L32.9,38.9L33.4,38.9L33.4,37.4L33.9,37.4L33.9,36.9L41.4,36.9L41.4,36.4L42.9,36.4L42.9,35.9L48.6,35.9L48.6,38.4L49.6,38.4L49.6,39.4L50.1,39.4L50.1,39.9L50.6,39.9L50.6,42.4L51.1,42.4z" stroke="none"/><path d="M74.9,6L75.1,6L75.1,6.4L75.6,6.4L75.6,6.9L84.9,6.9L84.9,6.4L92.4,6.4L92.4,5.4L92.9,5.4L92.9,4.4L93.4,4.4L93.4,3.4L93.9,3.4L93.9,2.9L94.5,2.9L94.5,3.1L94.1,3.1L94.1,3.6L93.6,3.6L93.6,4.6L93.1,4.6L93.1,5.6L92.6,5.6L92.6,6.6L85.1,6.6L85.1,7.1L75.4,7.1L75.4,6.6L74.9,6.6z" stroke="none"/><path d="M54,72.1L54,71.9L57.6,71.9L57.6,72.4L58.1,72.4L58.1,72.9L58.9,72.9L58.9,72.4L59.4,72.4L59.4,62.1L58.9,62.1L58.9,52.6L58.5,52.6L58.5,52.4L59.1,52.4L59.1,61.9L59.6,61.9L59.6,72.6L59.1,72.6L59.1,73.1L57.9,73.1L57.9,72.6L57.4,72.6L57.4,72.1z" stroke="none"/><path d="M42.1,78L41.9,78L41.9,71.6L40.4,71.6L40.4,71.1L39.9,71.1L39.9,70.6L37.9,70.6L37.9,69.1L36.9,69.1L36.9,68.6L36.4,68.6L36.4,67.6L32.9,67.6L32.9,66.6L31.9,66.6L31.9,66.1L31.4,66.1L31.4,65.6L30.9,65.6L30.9,65.1L29.9,65.1L29.9,64.6L29.4,64.6L29.4,63.6L28.9,63.6L28.9,63.1L28.5,63.1L28.5,62.9L29.1,62.9L29.1,63.4L29.6,63.4L29.6,64.4L30.1,64.4L30.1,64.9L31.1,64.9L31.1,65.4L31.6,65.4L31.6,65.9L32.1,65.9L32.1,66.4L33.1,66.4L33.1,67.4L36.6,67.4L36.6,68.4L37.1,68.4L37.1,68.9L38.1,68.9L38.1,70.4L40.1,70.4L40.1,70.9L40.6,70.9L40.6,71.4L42.1,71.4z" stroke="none"/><path d="M67.5,24.1L67.5,23.9L68.1,23.9L68.1,24.4L68.6,24.4L68.6,26.4L70.1,26.4L70.1,26.9L70.6,26.9L70.6,27.4L71.6,27.4L71.6,29.6L69.6,29.6L69.6,34.9L70.1,34.9L70.1,35.4L75.6,35.4L75.6,35.9L76.1,35.9L76.1,36.4L77.6,36.4L77.6,36.9L82.6,36.9L82.6,37.5L82.4,37.5L82.4,37.1L77.4,37.1L77.4,36.6L75.9,36.6L75.9,36.1L75.4,36.1L75.4,35.6L69.9,35.6L69.9,35.1L69.4,35.1L69.4,29.4L71.4,29.4L71.4,27.6L70.4,27.6L70.4,27.1L69.9,27.1L69.9,26.6L68.4,26.6L68.4,24.6L67.9,24.6L67.9,24.1z" stroke="none"/><path d="M40.6,99L40.4,99L40.4,97.6L39.9,97.6L39.9,96.6L39.4,96.6L39.4,90.1L38.9,90.1L38.9,89.6L38.4,89.6L38.4,89.1L37.9,89.1L37.9,86.6L37.4,86.6L37.4,86.1L35.4,86.1L35.4,83.1L34.9,83.1L34.9,80.1L34.4,80.1L34.4,79.5L34.6,79.5L34.6,79.9L35.1,79.9L35.1,82.9L35.6,82.9L35.6,85.9L37.6,85.9L37.6,86.4L38.1,86.4L38.1,88.9L38.6,88.9L38.6,89.4L39.1,89.4L39.1,89.9L39.6,89.9L39.6,96.4L40.1,96.4L40.1,97.4L40.6,97.4z" stroke="none"/><path d="M82.5,80.9L82.5,81.1L82.1,81.1L82.1,81.6L81.1,81.6L81.1,82.1L80.6,82.1L80.6,82.6L80.1,82.6L80.1,83.1L78.6,83.1L78.6,83.6L76.1,83.6L76.1,84.1L75.6,84.1L75.6,84.6L74.6,84.6L74.6,86.1L74.1,86.1L74.1,88.6L73.1,88.6L73.1,89.1L72.6,89.1L72.6,89.6L70.1,89.6L70.1,90.1L69.1,90.1L69.1,96.9L69.6,96.9L69.6,97.4L70.5,97.4L70.5,97.6L69.4,97.6L69.4,97.1L68.9,97.1L68.9,89.9L69.9,89.9L69.9,89.4L72.4,89.4L72.4,88.9L72.9,88.9L72.9,88.4L73.9,88.4L73.9,85.9L74.4,85.9L74.4,84.4L75.4,84.4L75.4,83.9L75.9,83.9L75.9,83.4L78.4,83.4L78.4,82.9L79.9,82.9L79.9,82.4L80.4,82.4L80.4,81.9L80.9,81.9L80.9,81.4L81.9,81.4L81.9,80.9z" stroke="none"/><path d="M57.1,87L56.9,87L56.9,80.1L52.9,80.1L52.9,79.1L51.4,79.1L51.4,75.1L50.4,75.1L50.4,74.6L49.9,74.6L49.9,73.1L49.4,73.1L49.4,72.1L47.4,72.1L47.4,71.6L46.9,71.6L46.9,70.6L45,70.6L45,70.4L47.1,70.4L47.1,71.4L47.6,71.4L47.6,71.9L49.6,71.9L49.6,72.9L50.1,72.9L50.1,74.4L50.6,74.4L50.6,74.9L51.6,74.9L51.6,78.9L53.1,78.9L53.1,79.9L57.1,79.9z" stroke="none"/><path d="M7.5,21.1L7.5,20.9L7.9,20.9L7.9,17.4L11.9,17.4L11.9,16.9L14.1,16.9L14.1,17.4L14.6,17.4L14.6,17.9L15.1,17.9L15.1,18.4L15.6,18.4L15.6,19.4L17.1,19.4L17.1,20.4L18.6,20.4L18.6,20.9L23.4,20.9L23.4,20.4L23.9,20.4L23.9,7.1L22.4,7.1L22.4,6L22.6,6L22.6,6.9L24.1,6.9L24.1,20.6L23.6,20.6L23.6,21.1L18.4,21.1L18.4,20.6L16.9,20.6L16.9,19.6L15.4,19.6L15.4,18.6L14.9,18.6L14.9,18.1L14.4,18.1L14.4,17.6L13.9,17.6L13.9,17.1L12.1,17.1L12.1,17.6L8.1,17.6L8.1,21.1z" stroke="none"/><path d="M4.5,40.4L4.5,40.6L4.1,40.6L4.1,41.1L3.6,41.1L3.6,51.4L4.1,51.4L4.1,51.9L5.1,51.9L5.1,53.4L5.6,53.4L5.6,53.9L6.1,53.9L6.1,54.4L6.6,54.4L6.6,54.9L7.1,54.9L7.1,57.4L8.1,57.4L8.1,57.9L8.6,57.9L8.6,58.9L9.1,58.9L9.1,63.9L9.6,63.9L9.6,64.4L15.4,64.4L15.4,63.9L15.9,63.9L15.9,57.9L16.9,57.9L16.9,56.9L18,56.9L18,57.1L17.1,57.1L17.1,58.1L16.1,58.1L16.1,64.1L15.6,64.1L15.6,64.6L9.4,64.6L9.4,64.1L8.9,64.1L8.9,59.1L8.4,59.1L8.4,58.1L7.9,58.1L7.9,57.6L6.9,57.6L6.9,55.1L6.4,55.1L6.4,54.6L5.9,54.6L5.9,54.1L5.4,54.1L5.4,53.6L4.9,53.6L4.9,52.1L3.9,52.1L3.9,51.6L3.4,51.6L3.4,40.9L3.9,40.9L3.9,40.4z" stroke="none"/><path d="M31.6,27L31.4,27L31.4,25.6L30.9,25.6L30.9,25.1L30.4,25.1L30.4,24.6L29.4,24.6L29.4,24.1L28.9,24.1L28.9,21.4L35.9,21.4L35.9,20.4L36.4,20.4L36.4,19.9L36.9,19.9L36.9,19.4L37.4,19.4L37.4,18.9L40.4,18.9L40.4,17.4L40.9,17.4L40.9,16.9L41.9,16.9L41.9,9.4L42.4,9.4L42.4,8.4L42.9,8.4L42.9,7.1L42.4,7.1L42.4,6.6L41.1,6.6L41.1,8.1L40.6,8.1L40.6,9.6L39.1,9.6L39.1,10.1L33.4,10.1L33.4,9.1L31.9,9.1L31.9,8.1L29.4,8.1L29.4,7.6L28.9,7.6L28.9,7.1L27.4,7.1L27.4,6.6L26.9,6.6L26.9,3.4L27.4,3.4L27.4,2.4L28.4,2.4L28.4,1.4L52.6,1.4L52.6,1.9L54.1,1.9L54.1,2.4L55.6,2.4L55.6,2.9L56.1,2.9L56.1,13.9L56.6,13.9L56.6,15.6L56.1,15.6L56.1,16.1L53.6,16.1L53.6,16.6L52.1,16.6L52.1,17.1L51.6,17.1L51.6,17.6L51.1,17.6L51.1,18L50.9,18L50.9,17.4L51.4,17.4L51.4,16.9L51.9,16.9L51.9,16.4L53.4,16.4L53.4,15.9L55.9,15.9L55.9,15.4L56.4,15.4L56.4,14.1L55.9,14.1L55.9,3.1L55.4,3.1L55.4,2.6L53.9,2.6L53.9,2.1L52.4,2.1L52.4,1.6L28.6,1.6L28.6,2.6L27.6,2.6L27.6,3.6L27.1,3.6L27.1,6.4L27.6,6.4L27.6,6.9L29.1,6.9L29.1,7.4L29.6,7.4L29.6,7.9L32.1,7.9L32.1,8.9L33.6,8.9L33.6,9.9L38.9,9.9L38.9,9.4L40.4,9.4L40.4,7.9L40.9,7.9L40.9,6.4L42.6,6.4L42.6,6.9L43.1,6.9L43.1,8.6L42.6,8.6L42.6,9.6L42.1,9.6L42.1,17.1L41.1,17.1L41.1,17.6L40.6,17.6L40.6,19.1L37.6,19.1L37.6,19.6L37.1,19.6L37.1,20.1L36.6,20.1L36.6,20.6L36.1,20.6L36.1,21.6L29.1,21.6L29.1,23.9L29.6,23.9L29.6,24.4L30.6,24.4L30.6,24.9L31.1,24.9L31.1,25.4L31.6,25.4z" stroke="none"/><path d="M3,40.4L3,40.6L2.4,40.6L2.4,40.1L1.9,40.1L1.9,36.4L3.9,36.4L3.9,35.9L4.9,35.9L4.9,34.9L6.9,34.9L6.9,33.9L7.4,33.9L7.4,33.4L7.9,33.4L7.9,32.9L8.4,32.9L8.4,31.9L9.9,31.9L9.9,31.4L10.9,31.4L10.9,30.9L11.4,30.9L11.4,29.9L11.9,29.9L11.9,29.4L12.9,29.4L12.9,28.9L14.1,28.9L14.1,29.4L14.6,29.4L14.6,45.4L16.1,45.4L16.1,45.9L18.4,45.9L18.4,44.9L19.9,44.9L19.9,44.4L20.9,44.4L20.9,43.9L21.4,43.9L21.4,42.9L22.9,42.9L22.9,42.4L25.1,42.4L25.1,47.6L24.1,47.6L24.1,49.1L23.6,49.1L23.6,50.1L23.1,50.1L23.1,50.6L22.6,50.6L22.6,51L22.4,51L22.4,50.4L22.9,50.4L22.9,49.9L23.4,49.9L23.4,48.9L23.9,48.9L23.9,47.4L24.9,47.4L24.9,42.6L23.1,42.6L23.1,43.1L21.6,43.1L21.6,44.1L21.1,44.1L21.1,44.6L20.1,44.6L20.1,45.1L18.6,45.1L18.6,46.1L15.9,46.1L15.9,45.6L14.4,45.6L14.4,29.6L13.9,29.6L13.9,29.1L13.1,29.1L13.1,29.6L12.1,29.6L12.1,30.1L11.6,30.1L11.6,31.1L11.1,31.1L11.1,31.6L10.1,31.6L10.1,32.1L8.6,32.1L8.6,33.1L8.1,33.1L8.1,33.6L7.6,33.6L7.6,34.1L7.1,34.1L7.1,35.1L5.1,35.1L5.1,36.1L4.1,36.1L4.1,36.6L2.1,36.6L2.1,39.9L2.6,39.9L2.6,40.4z" stroke="none"/><path d="M67.6,100.5L67.4,100.5L67.4,96.6L66.9,96.6L66.9,96.1L52.9,96.1L52.9,95.6L52.4,95.6L52.4,95.1L50.4,95.1L50.4,94.6L49.9,94.6L49.9,94.1L48.9,94.1L48.9,93.6L48.4,93.6L48.4,91.6L47.9,91.6L47.9,90L48.1,90L48.1,91.4L48.6,91.4L48.6,93.4L49.1,93.4L49.1,93.9L50.1,93.9L50.1,94.4L50.6,94.4L50.6,94.9L52.6,94.9L52.6,95.4L53.1,95.4L53.1,95.9L67.1,95.9L67.1,96.4L67.6,96.4z" stroke="none"/><path d="M6,85.6L6,85.4L10.4,85.4L10.4,80.9L10.9,80.9L10.9,80.4L11.4,80.4L11.4,79.9L18.4,79.9L18.4,78.9L18.9,78.9L18.9,77.4L19.9,77.4L19.9,76.9L20.9,76.9L20.9,75.9L22.9,75.9L22.9,75.4L24.9,75.4L24.9,74.9L25.5,74.9L25.5,75.1L25.1,75.1L25.1,75.6L23.1,75.6L23.1,76.1L21.1,76.1L21.1,77.1L20.1,77.1L20.1,77.6L19.1,77.6L19.1,79.1L18.6,79.1L18.6,80.1L11.6,80.1L11.6,80.6L11.1,80.6L11.1,81.1L10.6,81.1L10.6,85.6z" stroke="none"/><path d="M41.9,67.5L42.1,67.5L42.1,70.9L42.6,70.9L42.6,75.9L43.1,75.9L43.1,79.6L38.6,79.6L38.6,80.6L36.4,80.6L36.4,79.1L35.9,79.1L35.9,78.6L34.1,78.6L34.1,79.1L33.6,79.1L33.6,82.6L30.6,82.6L30.6,83.1L29.6,83.1L29.6,83.6L27.6,83.6L27.6,84.1L27,84.1L27,83.9L27.4,83.9L27.4,83.4L29.4,83.4L29.4,82.9L30.4,82.9L30.4,82.4L33.4,82.4L33.4,78.9L33.9,78.9L33.9,78.4L36.1,78.4L36.1,78.9L36.6,78.9L36.6,80.4L38.4,80.4L38.4,79.4L42.9,79.4L42.9,76.1L42.4,76.1L42.4,71.1L41.9,71.1z" stroke="none"/><path d="M100.4,33L100.6,33L100.6,49.9L101.1,49.9L101.1,51.9L102.1,51.9L102.1,52.9L103.1,52.9L103.1,54.4L103.6,54.4L103.6,56.6L103.1,56.6L103.1,57.1L102.6,57.1L102.6,57.6L101.1,57.6L101.1,58.1L92.1,58.1L92.1,62.4L92.6,62.4L92.6,63.6L92.1,63.6L92.1,64.1L90.4,64.1L90.4,62.1L88.9,62.1L88.9,58.1L84.4,58.1L84.4,55.9L84.9,55.9L84.9,49.9L85.4,49.9L85.4,49.5L85.6,49.5L85.6,50.1L85.1,50.1L85.1,56.1L84.6,56.1L84.6,57.9L89.1,57.9L89.1,61.9L90.6,61.9L90.6,63.9L91.9,63.9L91.9,63.4L92.4,63.4L92.4,62.6L91.9,62.6L91.9,57.9L100.9,57.9L100.9,57.4L102.4,57.4L102.4,56.9L102.9,56.9L102.9,56.4L103.4,56.4L103.4,54.6L102.9,54.6L102.9,53.1L101.9,53.1L101.9,52.1L100.9,52.1L100.9,50.1L100.4,50.1z" stroke="none"/><path d="M79.5,15.1L79.5,14.9L79.9,14.9L79.9,13.9L81.4,13.9L81.4,13.4L82.4,13.4L82.4,12.4L84.4,12.4L84.4,11.9L91.9,11.9L91.9,11.4L93.4,11.4L93.4,10.4L94.4,10.4L94.4,9.9L94.9,9.9L94.9,8.4L95.4,8.4L95.4,7.9L96.4,7.9L96.4,7.4L99.4,7.4L99.4,6.4L101.1,6.4L101.1,6.9L101.6,6.9L101.6,20.9L102.6,20.9L102.6,21.9L103.1,21.9L103.1,25.1L102.1,25.1L102.1,26.1L101.6,26.1L101.6,27.6L101.1,27.6L101.1,28.1L99.4,28.1L99.4,27.6L98.9,27.6L98.9,27L99.1,27L99.1,27.4L99.6,27.4L99.6,27.9L100.9,27.9L100.9,27.4L101.4,27.4L101.4,25.9L101.9,25.9L101.9,24.9L102.9,24.9L102.9,22.1L102.4,22.1L102.4,21.1L101.4,21.1L101.4,7.1L100.9,7.1L100.9,6.6L99.6,6.6L99.6,7.6L96.6,7.6L96.6,8.1L95.6,8.1L95.6,8.6L95.1,8.6L95.1,10.1L94.6,10.1L94.6,10.6L93.6,10.6L93.6,11.6L92.1,11.6L92.1,12.1L84.6,12.1L84.6,12.6L82.6,12.6L82.6,13.6L81.6,13.6L81.6,14.1L80.1,14.1L80.1,15.1z" stroke="none"/><path d="M57.1,93L56.9,93L56.9,91.6L56.4,91.6L56.4,91.1L55.4,91.1L55.4,87.6L54.4,87.6L54.4,87.1L53.4,87.1L53.4,86.1L51.9,86.1L51.9,85.6L51.4,85.6L51.4,84.6L50.9,84.6L50.9,83.6L50.4,83.6L50.4,83.1L49.9,83.1L49.9,82.6L49.4,82.6L49.4,81.6L47.9,81.6L47.9,76.6L47.4,76.6L47.4,75.6L46.4,75.6L46.4,74.1L44.9,74.1L44.9,73.5L45.1,73.5L45.1,73.9L46.6,73.9L46.6,75.4L47.6,75.4L47.6,76.4L48.1,76.4L48.1,81.4L49.6,81.4L49.6,82.4L50.1,82.4L50.1,82.9L50.6,82.9L50.6,83.4L51.1,83.4L51.1,84.4L51.6,84.4L51.6,85.4L52.1,85.4L52.1,85.9L53.6,85.9L53.6,86.9L54.6,86.9L54.6,87.4L55.6,87.4L55.6,90.9L56.6,90.9L56.6,91.4L57.1,91.4z" stroke="none"/><path d="M54,97.6L54,97.4L55.6,97.4L55.6,98.9L56.1,98.9L56.1,100.9L56.6,100.9L56.6,103.1L54.9,103.1L54.9,102.6L53.9,102.6L53.9,100.1L52.9,100.1L52.9,99.6L46.9,99.6L46.9,99.1L46.4,99.1L46.4,98.6L45.4,98.6L45.4,97.6L44.4,97.6L44.4,95.6L43.9,95.6L43.9,91.6L43.4,91.6L43.4,91.1L42.9,91.1L42.9,89.1L41.4,89.1L41.4,88.6L40.9,88.6L40.9,87.1L39.9,87.1L39.9,86.1L39.4,86.1L39.4,85.6L38.9,85.6L38.9,85.1L38.4,85.1L38.4,83.1L36.9,83.1L36.9,82.6L36,82.6L36,82.4L37.1,82.4L37.1,82.9L38.6,82.9L38.6,84.9L39.1,84.9L39.1,85.4L39.6,85.4L39.6,85.9L40.1,85.9L40.1,86.9L41.1,86.9L41.1,88.4L41.6,88.4L41.6,88.9L43.1,88.9L43.1,90.9L43.6,90.9L43.6,91.4L44.1,91.4L44.1,95.4L44.6,95.4L44.6,97.4L45.6,97.4L45.6,98.4L46.6,98.4L46.6,98.9L47.1,98.9L47.1,99.4L53.1,99.4L53.1,99.9L54.1,99.9L54.1,102.4L55.1,102.4L55.1,102.9L56.4,102.9L56.4,101.1L55.9,101.1L55.9,99.1L55.4,99.1L55.4,97.6z" stroke="none"/><path d="M49.4,48L49.6,48L49.6,50.4L50.1,50.4L50.1,51.4L51.6,51.4L51.6,51.9L52.1,51.9L52.1,63.6L49.6,63.6L49.6,65.1L48.6,65.1L48.6,65.6L34.6,65.6L34.6,66L34.4,66L34.4,65.4L48.4,65.4L48.4,64.9L49.4,64.9L49.4,63.4L51.9,63.4L51.9,52.1L51.4,52.1L51.4,51.6L49.9,51.6L49.9,50.6L49.4,50.6z" stroke="none"/><path d="M68.9,55.5L69.1,55.5L69.1,56.4L69.6,56.4L69.6,57.4L70.1,57.4L70.1,62.4L71.1,62.4L71.1,63.9L72.1,63.9L72.1,64.4L72.6,64.4L72.6,64.9L73.6,64.9L73.6,67.4L75.1,67.4L75.1,68.4L75.6,68.4L75.6,68.9L76.6,68.9L76.6,70.4L77.1,70.4L77.1,71.4L81.1,71.4L81.1,72.9L92.1,72.9L92.1,73.4L93.6,73.4L93.6,74.9L95.1,74.9L95.1,75.4L96.1,75.4L96.1,75.9L101.4,75.9L101.4,75.4L102.6,75.4L102.6,75.9L103.1,75.9L103.1,84.4L103.6,84.4L103.6,95.6L103.1,95.6L103.1,98.1L100.1,98.1L100.1,99.1L99.6,99.1L99.6,102.6L98.1,102.6L98.1,103.6L97.6,103.6L97.6,104.1L74.9,104.1L74.9,102.6L74.4,102.6L74.4,101.6L70.9,101.6L70.9,101.1L70.4,101.1L70.4,99.6L69.9,99.6L69.9,99.1L68.9,99.1L68.9,97.6L68.4,97.6L68.4,89.1L67.4,89.1L67.4,88.1L66.9,88.1L66.9,87.1L66.4,87.1L66.4,86.1L65.4,86.1L65.4,85.6L64.4,85.6L64.4,85.1L62.9,85.1L62.9,84.1L62.4,84.1L62.4,80.6L61.9,80.6L61.9,76.6L60.9,76.6L60.9,75.1L60.4,75.1L60.4,74.1L59.9,74.1L59.9,73.6L56.9,73.6L56.9,72.6L55.1,72.6L55.1,73.1L54.1,73.1L54.1,73.5L53.9,73.5L53.9,72.9L54.9,72.9L54.9,72.4L57.1,72.4L57.1,73.4L60.1,73.4L60.1,73.9L60.6,73.9L60.6,74.9L61.1,74.9L61.1,76.4L62.1,76.4L62.1,80.4L62.6,80.4L62.6,83.9L63.1,83.9L63.1,84.9L64.6,84.9L64.6,85.4L65.6,85.4L65.6,85.9L66.6,85.9L66.6,86.9L67.1,86.9L67.1,87.9L67.6,87.9L67.6,88.9L68.6,88.9L68.6,97.4L69.1,97.4L69.1,98.9L70.1,98.9L70.1,99.4L70.6,99.4L70.6,100.9L71.1,100.9L71.1,101.4L74.6,101.4L74.6,102.4L75.1,102.4L75.1,103.9L97.4,103.9L97.4,103.4L97.9,103.4L97.9,102.4L99.4,102.4L99.4,98.9L99.9,98.9L99.9,97.9L102.9,97.9L102.9,95.4L103.4,95.4L103.4,84.6L102.9,84.6L102.9,76.1L102.4,76.1L102.4,75.6L101.6,75.6L101.6,76.1L95.9,76.1L95.9,75.6L94.9,75.6L94.9,75.1L93.4,75.1L93.4,73.6L91.9,73.6L91.9,73.1L80.9,73.1L80.9,71.6L76.9,71.6L76.9,70.6L76.4,70.6L76.4,69.1L75.4,69.1L75.4,68.6L74.9,68.6L74.9,67.6L73.4,67.6L73.4,65.1L72.4,65.1L72.4,64.6L71.9,64.6L71.9,64.1L70.9,64.1L70.9,62.6L69.9,62.6L69.9,57.6L69.4,57.6L69.4,56.6L68.9,56.6z" stroke="none"/><path d="M64.5,76.4L64.5,76.6L62.9,76.6L62.9,71.6L62.4,71.6L62.4,71.1L61.9,71.1L61.9,45.9L62.4,45.9L62.4,45.4L65.1,45.4L65.1,45.9L65.6,45.9L65.6,46.4L68.1,46.4L68.1,47.4L69.1,47.4L69.1,48.4L70.1,48.4L70.1,48.9L71.6,48.9L71.6,50.4L72.6,50.4L72.6,51.9L73.6,51.9L73.6,52.4L74.1,52.4L74.1,52.9L74.6,52.9L74.6,53.4L75.6,53.4L75.6,53.9L76.6,53.9L76.6,54.4L77.1,54.4L77.1,54.9L77.6,54.9L77.6,56.9L78,56.9L78,57.1L77.4,57.1L77.4,55.1L76.9,55.1L76.9,54.6L76.4,54.6L76.4,54.1L75.4,54.1L75.4,53.6L74.4,53.6L74.4,53.1L73.9,53.1L73.9,52.6L73.4,52.6L73.4,52.1L72.4,52.1L72.4,50.6L71.4,50.6L71.4,49.1L69.9,49.1L69.9,48.6L68.9,48.6L68.9,47.6L67.9,47.6L67.9,46.6L65.4,46.6L65.4,46.1L64.9,46.1L64.9,45.6L62.6,45.6L62.6,46.1L62.1,46.1L62.1,70.9L62.6,70.9L62.6,71.4L63.1,71.4L63.1,76.4z" stroke="none"/><path d="M31.5,67.4L31.5,67.6L29.9,67.6L29.9,66.6L29.4,66.6L29.4,66.1L28.4,66.1L28.4,65.6L27.9,65.6L27.9,65.1L27.4,65.1L27.4,61.9L29.1,61.9L29.1,62.4L29.6,62.4L29.6,62.9L30.6,62.9L30.6,63.4L31.6,63.4L31.6,64.9L32.1,64.9L32.1,65.4L33.6,65.4L33.6,66.9L41.4,66.9L41.4,66.4L42.6,66.4L42.6,66.9L43.1,66.9L43.1,75.4L43.6,75.4L43.6,81.4L44.6,81.4L44.6,81.9L45.6,81.9L45.6,82.9L46.6,82.9L46.6,83.4L47.1,83.4L47.1,84.9L48.1,84.9L48.1,85.5L47.9,85.5L47.9,85.1L46.9,85.1L46.9,83.6L46.4,83.6L46.4,83.1L45.4,83.1L45.4,82.1L44.4,82.1L44.4,81.6L43.4,81.6L43.4,75.6L42.9,75.6L42.9,67.1L42.4,67.1L42.4,66.6L41.6,66.6L41.6,67.1L33.4,67.1L33.4,65.6L31.9,65.6L31.9,65.1L31.4,65.1L31.4,63.6L30.4,63.6L30.4,63.1L29.4,63.1L29.4,62.6L28.9,62.6L28.9,62.1L27.6,62.1L27.6,64.9L28.1,64.9L28.1,65.4L28.6,65.4L28.6,65.9L29.6,65.9L29.6,66.4L30.1,66.4L30.1,67.4z" stroke="none"/><path d="M99,28.6L99,28.4L101.9,28.4L101.9,26.9L102.4,26.9L102.4,25.4L103.4,25.4L103.4,9.1L102.9,9.1L102.9,8.1L102.4,8.1L102.4,7.1L101.9,7.1L101.9,6.6L101.4,6.6L101.4,6.1L98.1,6.1L98.1,6.6L93.6,6.6L93.6,7.1L93.1,7.1L93.1,7.6L91.6,7.6L91.6,9.1L91.1,9.1L91.1,9.6L90.6,9.6L90.6,10.1L81.6,10.1L81.6,10.6L81,10.6L81,10.4L81.4,10.4L81.4,9.9L90.4,9.9L90.4,9.4L90.9,9.4L90.9,8.9L91.4,8.9L91.4,7.4L92.9,7.4L92.9,6.9L93.4,6.9L93.4,6.4L97.9,6.4L97.9,5.9L101.6,5.9L101.6,6.4L102.1,6.4L102.1,6.9L102.6,6.9L102.6,7.9L103.1,7.9L103.1,8.9L103.6,8.9L103.6,25.6L102.6,25.6L102.6,27.1L102.1,27.1L102.1,28.6z" stroke="none"/><path d="M28.5,97.6L28.5,97.4L35.1,97.4L35.1,97.9L35.6,97.9L35.6,102.1L35.1,102.1L35.1,103.6L34.6,103.6L34.6,104.1L33.1,104.1L33.1,104.6L6.9,104.6L6.9,104.1L5.9,104.1L5.9,103.6L4.9,103.6L4.9,103.1L4.4,103.1L4.4,96.1L2.9,96.1L2.9,94.6L2.4,94.6L2.4,92.6L1.4,92.6L1.4,68.9L3.4,68.9L3.4,68.4L3.9,68.4L3.9,67.9L5.1,67.9L5.1,68.4L5.6,68.4L5.6,70.6L5.1,70.6L5.1,72.4L5.6,72.4L5.6,72.9L6.9,72.9L6.9,72.4L9.4,72.4L9.4,71.9L9.9,71.9L9.9,71.4L12.9,71.4L12.9,70.9L14.1,70.9L14.1,71.4L14.6,71.4L14.6,75.1L13.1,75.1L13.1,75.6L11.1,75.6L11.1,76.6L10.6,76.6L10.6,77.1L9.6,77.1L9.6,78.1L9,78.1L9,77.9L9.4,77.9L9.4,76.9L10.4,76.9L10.4,76.4L10.9,76.4L10.9,75.4L12.9,75.4L12.9,74.9L14.4,74.9L14.4,71.6L13.9,71.6L13.9,71.1L13.1,71.1L13.1,71.6L10.1,71.6L10.1,72.1L9.6,72.1L9.6,72.6L7.1,72.6L7.1,73.1L5.4,73.1L5.4,72.6L4.9,72.6L4.9,70.4L5.4,70.4L5.4,68.6L4.9,68.6L4.9,68.1L4.1,68.1L4.1,68.6L3.6,68.6L3.6,69.1L1.6,69.1L1.6,92.4L2.6,92.4L2.6,94.4L3.1,94.4L3.1,95.9L4.6,95.9L4.6,102.9L5.1,102.9L5.1,103.4L6.1,103.4L6.1,103.9L7.1,103.9L7.1,104.4L32.9,104.4L32.9,103.9L34.4,103.9L34.4,103.4L34.9,103.4L34.9,101.9L35.4,101.9L35.4,98.1L34.9,98.1L34.9,97.6z" stroke="none"/></svg>