<svg version="1.1" width="105" height="105" xmlns="http://www.w3.org/2000/svg"><path d="M57.4,17.9L57.4,14.9L57.9,14.9L57.9,12.4L58.4,12.4L58.4,10.4L59.4,10.4L59.4,9.4L59.9,9.4L59.9,9L60.1,9L60.1,9.6L59.6,9.6L59.6,10.6L58.6,10.6L58.6,12.6L58.1,12.6L58.1,15.1L57.6,15.1L57.6,26.6L57.1,26.6L57.1,27L56.9,27L56.9,26.4L57.4,26.4L57.4,18.1L55.5,18.1L55.5,17.9z" stroke="none"/><path d="M72.4,15.4L72.4,13.1L70.9,13.1L70.9,11.1L69.9,11.1L69.9,10.1L69.4,10.1L69.4,9.6L68.9,9.6L68.9,9L69.1,9L69.1,9.4L69.6,9.4L69.6,9.9L70.1,9.9L70.1,10.9L71.1,10.9L71.1,12.9L72.6,12.9L72.6,15.4L75.1,15.4L75.1,15.9L75.6,15.9L75.6,16.4L76.6,16.4L76.6,16.9L77.6,16.9L77.6,18.4L78.1,18.4L78.1,22.5L77.9,22.5L77.9,18.6L77.4,18.6L77.4,17.1L76.4,17.1L76.4,16.6L75.4,16.6L75.4,16.1L74.9,16.1L74.9,15.6L70.4,15.6L70.4,15L70.6,15L70.6,15.4z" stroke="none"/><path d="M86.4,61.4L86.4,60.1L85.4,60.1L85.4,59.1L84.9,59.1L84.9,57.6L84.4,57.6L84.4,56.6L83.9,56.6L83.9,56.1L82.4,56.1L82.4,55.1L80.9,55.1L80.9,54L81.1,54L81.1,54.9L82.6,54.9L82.6,55.9L84.1,55.9L84.1,56.4L84.6,56.4L84.6,57.4L85.1,57.4L85.1,58.9L85.6,58.9L85.6,59.9L86.6,59.9L86.6,61.4L88.1,61.4L88.1,61.9L90.1,61.9L90.1,62.4L90.6,62.4L90.6,63.4L93.1,63.4L93.1,63.9L93.6,63.9L93.6,64.4L94.1,64.4L94.1,65.9L94.6,65.9L94.6,69L94.4,69L94.4,66.1L93.9,66.1L93.9,64.6L93.4,64.6L93.4,64.1L92.9,64.1L92.9,63.6L90.4,63.6L90.4,62.6L89.9,62.6L89.9,62.1L87.9,62.1L87.9,61.6L84,61.6L84,61.4z" stroke="none"/><path d="M18.4,85.4L18.4,84.6L17.9,84.6L17.9,84.1L17.4,84.1L17.4,83.6L16.9,83.6L16.9,83.1L15.6,83.1L15.6,83.6L15.1,83.6L15.1,84.1L13.5,84.1L13.5,83.9L14.9,83.9L14.9,83.4L15.4,83.4L15.4,82.9L17.1,82.9L17.1,83.4L17.6,83.4L17.6,83.9L18.1,83.9L18.1,84.4L18.6,84.4L18.6,85.4L18.9,85.4L18.9,80.4L20.4,80.4L20.4,79.9L21.6,79.9L21.6,80.4L22.1,80.4L22.1,81.4L22.6,81.4L22.6,81.9L24.1,81.9L24.1,82.4L24.6,82.4L24.6,83.9L25.1,83.9L25.1,85.4L25.5,85.4L25.5,85.6L24.9,85.6L24.9,84.1L24.4,84.1L24.4,82.6L23.9,82.6L23.9,82.1L22.4,82.1L22.4,81.6L21.9,81.6L21.9,80.6L21.4,80.6L21.4,80.1L20.6,80.1L20.6,80.6L19.1,80.6L19.1,85.6L17.6,85.6L17.6,86.1L17.1,86.1L17.1,86.6L16.6,86.6L16.6,87L16.4,87L16.4,86.4L16.9,86.4L16.9,85.9L17.4,85.9L17.4,85.4z" stroke="none"/><path d="M66.9,79.1L66.4,79.1L66.4,78.6L65.9,78.6L65.9,78.1L65.4,78.1L65.4,77.6L63.4,77.6L63.4,77.1L61.9,77.1L61.9,76.1L61.4,76.1L61.4,75L61.6,75L61.6,75.9L62.1,75.9L62.1,76.9L63.6,76.9L63.6,77.4L65.6,77.4L65.6,77.9L66.1,77.9L66.1,78.4L66.6,78.4L66.6,78.9L67.1,78.9L67.1,80.9L69.6,80.9L69.6,81.4L71.6,81.4L71.6,82.4L72.6,82.4L72.6,82.9L73.1,82.9L73.1,83.4L73.6,83.4L73.6,84L73.4,84L73.4,83.6L72.9,83.6L72.9,83.1L72.4,83.1L72.4,82.6L71.4,82.6L71.4,81.6L69.4,81.6L69.4,81.1L67.1,81.1L67.1,81.6L66.6,81.6L66.6,82.6L66.1,82.6L66.1,84L65.9,84L65.9,82.4L66.4,82.4L66.4,81.4L66.9,81.4z" stroke="none"/><path d="M59.4,56.9L59.4,55.1L58.9,55.1L58.9,54.6L58.4,54.6L58.4,54L58.6,54L58.6,54.4L59.1,54.4L59.1,54.9L59.6,54.9L59.6,59.4L60.1,59.4L60.1,59.9L60.6,59.9L60.6,60.9L61.1,60.9L61.1,61.4L63.1,61.4L63.1,61.9L63.6,61.9L63.6,62.4L64.6,62.4L64.6,62.9L66.6,62.9L66.6,65.4L67.1,65.4L67.1,65.9L67.5,65.9L67.5,66.1L66.9,66.1L66.9,65.6L66.4,65.6L66.4,63.1L64.4,63.1L64.4,62.6L63.4,62.6L63.4,62.1L62.9,62.1L62.9,61.6L60.9,61.6L60.9,61.1L60.4,61.1L60.4,60.1L59.9,60.1L59.9,59.6L59.4,59.6L59.4,57.1L56.4,57.1L56.4,55.6L55.9,55.6L55.9,54.1L55.4,54.1L55.4,53.1L54.9,53.1L54.9,52.1L54.4,52.1L54.4,51.6L52.4,51.6L52.4,51L52.6,51L52.6,51.4L54.6,51.4L54.6,51.9L55.1,51.9L55.1,52.9L55.6,52.9L55.6,53.9L56.1,53.9L56.1,55.4L56.6,55.4L56.6,56.9z" stroke="none"/><path d="M27.4,86.9L27.4,85.9L27.9,85.9L27.9,84.6L26.9,84.6L26.9,84L27.1,84L27.1,84.4L28.1,84.4L28.1,86.1L27.6,86.1L27.6,87.1L26.1,87.1L26.1,89.9L27.1,89.9L27.1,90.4L27.6,90.4L27.6,91.4L28.6,91.4L28.6,92.4L29.6,92.4L29.6,92.9L30,92.9L30,93.1L29.4,93.1L29.4,92.6L28.4,92.6L28.4,91.6L27.4,91.6L27.4,90.6L26.9,90.6L26.9,90.1L25.9,90.1L25.9,87.1L24.9,87.1L24.9,86.1L24.4,86.1L24.4,84.6L23.9,84.6L23.9,83.6L23.4,83.6L23.4,83.1L22.4,83.1L22.4,82.6L21,82.6L21,82.4L22.6,82.4L22.6,82.9L23.6,82.9L23.6,83.4L24.1,83.4L24.1,84.4L24.6,84.4L24.6,85.9L25.1,85.9L25.1,86.9z" stroke="none"/><path d="M47.9,30.4L47.9,29.9L48.9,29.9L48.9,28.9L49.4,28.9L49.4,28.5L49.6,28.5L49.6,29.1L49.1,29.1L49.1,30.1L48.1,30.1L48.1,30.6L42.6,30.6L42.6,31.6L42.1,31.6L42.1,32.1L41.6,32.1L41.6,33.1L40.5,33.1L40.5,32.9L41.4,32.9L41.4,31.9L41.9,31.9L41.9,31.4L42.4,31.4L42.4,30.6L39.4,30.6L39.4,30.1L37.5,30.1L37.5,29.9L39.6,29.9L39.6,30.4z" stroke="none"/><path d="M98.1,19.4L98.1,19.9L98.6,19.9L98.6,20.4L99.6,20.4L99.6,20.9L100.1,20.9L100.1,21.4L100.6,21.4L100.6,22.4L101.6,22.4L101.6,22.9L102.1,22.9L102.1,24L101.9,24L101.9,23.1L101.4,23.1L101.4,22.6L100.4,22.6L100.4,21.6L99.9,21.6L99.9,21.1L99.4,21.1L99.4,20.6L98.4,20.6L98.4,20.1L97.9,20.1L97.9,19.6L91.6,19.6L91.6,20.1L83.9,20.1L83.9,19.6L82.9,19.6L82.9,18.6L82.4,18.6L82.4,18L82.6,18L82.6,18.4L83.1,18.4L83.1,19.4L84.1,19.4L84.1,19.9L91.4,19.9L91.4,19.6L90.9,19.6L90.9,19.1L90.4,19.1L90.4,16.6L90,16.6L90,16.4L90.6,16.4L90.6,18.9L91.1,18.9L91.1,19.4z" stroke="none"/><path d="M88.4,40.9L88.4,34.9L89.4,34.9L89.4,33.9L90.4,33.9L90.4,33.4L92.6,33.4L92.6,33.9L93.1,33.9L93.1,34.5L92.9,34.5L92.9,34.1L92.4,34.1L92.4,33.6L90.6,33.6L90.6,34.1L89.6,34.1L89.6,35.1L88.6,35.1L88.6,43.9L90.1,43.9L90.1,45L89.9,45L89.9,44.1L88.4,44.1L88.4,41.1L83.1,41.1L83.1,41.6L82.6,41.6L82.6,43.5L82.4,43.5L82.4,41.4L82.9,41.4L82.9,40.9z" stroke="none"/><path d="M70.9,65.1L69.9,65.1L69.9,64.6L68.9,64.6L68.9,63.6L68.4,63.6L68.4,61.6L65.9,61.6L65.9,61.1L65.4,61.1L65.4,60.1L64.5,60.1L64.5,59.9L65.6,59.9L65.6,60.9L66.1,60.9L66.1,61.4L68.6,61.4L68.6,63.4L69.1,63.4L69.1,64.4L70.1,64.4L70.1,64.9L71.1,64.9L71.1,65.9L73.4,65.9L73.4,64.9L73.9,64.9L73.9,64.4L74.4,64.4L74.4,63.4L74.9,63.4L74.9,63L75.1,63L75.1,63.6L74.6,63.6L74.6,64.6L74.1,64.6L74.1,65.1L73.6,65.1L73.6,66.1L71.1,66.1L71.1,74.4L72.6,74.4L72.6,74.9L73.5,74.9L73.5,75.1L72.4,75.1L72.4,74.6L70.9,74.6z" stroke="none"/><path d="M92.1,33.9L92.1,38.4L92.6,38.4L92.6,38.9L93.1,38.9L93.1,40.5L92.9,40.5L92.9,39.1L92.4,39.1L92.4,38.6L91.9,38.6L91.9,34.1L91.6,34.1L91.6,39L91.4,39L91.4,34.1L91.1,34.1L91.1,39.4L91.6,39.4L91.6,39.9L92.6,39.9L92.6,40.9L93.4,40.9L93.4,35.4L93.9,35.4L93.9,24.1L91.9,24.1L91.9,23.6L91.4,23.6L91.4,23.1L90.9,23.1L90.9,22.6L90,22.6L90,22.4L91.1,22.4L91.1,22.9L91.6,22.9L91.6,23.4L92.1,23.4L92.1,23.9L94.1,23.9L94.1,35.6L93.6,35.6L93.6,41.1L92.4,41.1L92.4,40.1L91.4,40.1L91.4,39.6L90.9,39.6L90.9,33.9z" stroke="none"/><path d="M74.9,54.4L74.9,53.4L75.9,53.4L75.9,52.4L76.9,52.4L76.9,50.4L77.4,50.4L77.4,49.9L77.9,49.9L77.9,49.4L79.5,49.4L79.5,49.6L78.1,49.6L78.1,50.1L77.6,50.1L77.6,50.6L77.1,50.6L77.1,52.6L76.1,52.6L76.1,53.6L75.1,53.6L75.1,54.6L71.1,54.6L71.1,56.6L69.6,56.6L69.6,57.1L69.1,57.1L69.1,57.6L68.1,57.6L68.1,58.6L67.5,58.6L67.5,58.4L67.9,58.4L67.9,57.4L68.9,57.4L68.9,56.9L69.4,56.9L69.4,56.4L70.9,56.4L70.9,54.6L67.6,54.6L67.6,55.1L67.1,55.1L67.1,55.6L66,55.6L66,55.4L66.9,55.4L66.9,54.9L67.4,54.9L67.4,54.4z" stroke="none"/><path d="M38.4,61.6L37.5,61.6L37.5,61.4L38.6,61.4L38.6,66.9L38.9,66.9L38.9,65.9L40.4,65.9L40.4,64.9L41.4,64.9L41.4,64.4L41.9,64.4L41.9,63.9L42.4,63.9L42.4,62.4L43.9,62.4L43.9,61.9L44.4,61.9L44.4,60.9L44.9,60.9L44.9,60.4L45.4,60.4L45.4,59.9L46.5,59.9L46.5,60.1L45.6,60.1L45.6,60.6L45.1,60.6L45.1,61.1L44.6,61.1L44.6,62.1L44.1,62.1L44.1,62.6L42.6,62.6L42.6,64.1L42.1,64.1L42.1,64.6L41.6,64.6L41.6,65.1L40.6,65.1L40.6,66.1L39.1,66.1L39.1,67.1L38.6,67.1L38.6,75.6L38.1,75.6L38.1,76.1L35.6,76.1L35.6,77.6L33.6,77.6L33.6,78.1L32.6,78.1L32.6,78.6L32.1,78.6L32.1,79.1L31.6,79.1L31.6,79.5L31.4,79.5L31.4,78.9L31.9,78.9L31.9,78.4L32.4,78.4L32.4,77.9L33.4,77.9L33.4,77.4L35.4,77.4L35.4,75.9L37.9,75.9L37.9,75.4L38.4,75.4z" stroke="none"/><path d="M47.9,37.4L47.9,36.9L48.4,36.9L48.4,35.9L49.4,35.9L49.4,34.9L50.4,34.9L50.4,33.4L50.9,33.4L50.9,32.9L51.4,32.9L51.4,32.4L51.9,32.4L51.9,31.9L52.9,31.9L52.9,30.9L53.4,30.9L53.4,29.9L54,29.9L54,30.1L53.6,30.1L53.6,31.1L53.1,31.1L53.1,32.1L52.1,32.1L52.1,32.6L51.6,32.6L51.6,33.1L51.1,33.1L51.1,33.6L50.6,33.6L50.6,35.1L49.6,35.1L49.6,36.1L48.6,36.1L48.6,37.1L48.1,37.1L48.1,37.6L44.1,37.6L44.1,45.6L40.1,45.6L40.1,46.1L39.6,46.1L39.6,46.6L39.1,46.6L39.1,48L38.9,48L38.9,46.4L39.4,46.4L39.4,45.9L39.9,45.9L39.9,45.4L43.9,45.4L43.9,37.6L43.4,37.6L43.4,37.1L41.4,37.1L41.4,36.1L40.4,36.1L40.4,35.6L39.9,35.6L39.9,35.1L38.9,35.1L38.9,34.5L39.1,34.5L39.1,34.9L40.1,34.9L40.1,35.4L40.6,35.4L40.6,35.9L41.6,35.9L41.6,36.9L43.6,36.9L43.6,37.4z" stroke="none"/><path d="M50.9,79.9L50.9,79.6L48.4,79.6L48.4,79.1L47.9,79.1L47.9,73.1L46.9,73.1L46.9,72.1L45.4,72.1L45.4,69.1L45,69.1L45,68.9L45.6,68.9L45.6,71.9L47.1,71.9L47.1,72.9L48.1,72.9L48.1,78.9L48.6,78.9L48.6,79.4L51.1,79.4L51.1,80.9L52.6,80.9L52.6,81.4L53.1,81.4L53.1,82.9L53.6,82.9L53.6,83.4L55.6,83.4L55.6,84L55.4,84L55.4,83.6L53.4,83.6L53.4,83.1L52.9,83.1L52.9,81.6L52.4,81.6L52.4,81.1L50.9,81.1L50.9,80.1L50.6,80.1L50.6,85.4L52.1,85.4L52.1,86.4L52.6,86.4L52.6,87L52.4,87L52.4,86.6L51.9,86.6L51.9,85.6L50.4,85.6L50.4,79.9z" stroke="none"/><path d="M89.1,26.9L89.1,28.9L89.6,28.9L89.6,29.4L90.1,29.4L90.1,31.5L89.9,31.5L89.9,29.6L89.4,29.6L89.4,29.1L88.9,29.1L88.9,27.1L80.1,27.1L80.1,29.1L78.6,29.1L78.6,30.1L75.6,30.1L75.6,31.1L75.1,31.1L75.1,31.5L74.9,31.5L74.9,30.9L75.4,30.9L75.4,29.9L78.4,29.9L78.4,28.9L79.9,28.9L79.9,27.1L78.9,27.1L78.9,26.6L77.4,26.6L77.4,26.1L76.9,26.1L76.9,19.1L76.4,19.1L76.4,18.6L74.9,18.6L74.9,18L75.1,18L75.1,18.4L76.6,18.4L76.6,18.9L77.1,18.9L77.1,25.9L77.6,25.9L77.6,26.4L79.1,26.4L79.1,26.9z" stroke="none"/><path d="M18.1,71.4L18.1,71.9L20.1,71.9L20.1,72.9L20.6,72.9L20.6,73.4L21.1,73.4L21.1,74.4L21.6,74.4L21.6,74.9L24,74.9L24,75.1L21.4,75.1L21.4,74.6L20.9,74.6L20.9,73.6L20.4,73.6L20.4,73.1L19.9,73.1L19.9,72.1L17.9,72.1L17.9,71.6L17.1,71.6L17.1,71.9L17.6,71.9L17.6,72.4L18.1,72.4L18.1,73.4L18.6,73.4L18.6,73.9L20.6,73.9L20.6,75.4L23.1,75.4L23.1,75.9L23.6,75.9L23.6,77.4L24.1,77.4L24.1,78L23.9,78L23.9,77.6L23.4,77.6L23.4,76.1L22.9,76.1L22.9,75.6L20.4,75.6L20.4,74.1L18.4,74.1L18.4,73.6L17.9,73.6L17.9,72.6L17.4,72.6L17.4,72.1L16.9,72.1L16.9,71.6L15.4,71.6L15.4,71.1L9.9,71.1L9.9,69.6L6.9,69.6L6.9,66.1L4.9,66.1L4.9,65.6L4.4,65.6L4.4,61.5L4.6,61.5L4.6,65.4L5.1,65.4L5.1,65.9L7.1,65.9L7.1,69.4L10.1,69.4L10.1,70.9L15.6,70.9L15.6,71.4z" stroke="none"/><path d="M52.4,33.4L52.9,33.4L52.9,32.9L53.4,32.9L53.4,31.9L53.9,31.9L53.9,30.9L54.9,30.9L54.9,29.1L53.6,29.1L53.6,29.6L52.1,29.6L52.1,30.1L51.1,30.1L51.1,30.6L50.6,30.6L50.6,31.1L45.6,31.1L45.6,31.6L44.6,31.6L44.6,32.6L44.1,32.6L44.1,33.6L42.6,33.6L42.6,34.6L42,34.6L42,34.4L42.4,34.4L42.4,33.4L43.9,33.4L43.9,32.4L44.4,32.4L44.4,31.4L45.4,31.4L45.4,30.9L50.4,30.9L50.4,30.4L50.9,30.4L50.9,29.9L51.9,29.9L51.9,29.4L53.4,29.4L53.4,28.9L55.1,28.9L55.1,31.1L54.1,31.1L54.1,32.1L53.6,32.1L53.6,33.1L53.1,33.1L53.1,33.6L52.6,33.6L52.6,42.9L60.4,42.9L60.4,41.9L61.5,41.9L61.5,42.1L60.6,42.1L60.6,43.1L52.6,43.1L52.6,48.6L52.1,48.6L52.1,49.6L51.6,49.6L51.6,51.4L52.1,51.4L52.1,51.9L53.1,51.9L53.1,52.4L54,52.4L54,52.6L52.9,52.6L52.9,52.1L51.9,52.1L51.9,51.6L51.4,51.6L51.4,49.4L51.9,49.4L51.9,48.4L52.4,48.4z" stroke="none"/><path d="M72.9,59.9L72.9,57.4L73.4,57.4L73.4,56.9L74.4,56.9L74.4,56.4L75.9,56.4L75.9,55.9L76.4,55.9L76.4,53.9L76.9,53.9L76.9,53.4L77.4,53.4L77.4,52.9L77.9,52.9L77.9,51L78.1,51L78.1,53.1L77.6,53.1L77.6,53.6L77.1,53.6L77.1,54.1L76.6,54.1L76.6,56.1L76.1,56.1L76.1,56.6L74.6,56.6L74.6,57.1L73.6,57.1L73.6,57.6L73.1,57.6L73.1,59.9L74.6,59.9L74.6,60.4L75.1,60.4L75.1,61.4L75.6,61.4L75.6,62.4L76.1,62.4L76.1,65.9L76.6,65.9L76.6,66.4L77.1,66.4L77.1,66.9L77.6,66.9L77.6,67.9L78.1,67.9L78.1,69L77.9,69L77.9,68.1L77.4,68.1L77.4,67.1L76.9,67.1L76.9,66.6L76.4,66.6L76.4,66.1L75.9,66.1L75.9,62.6L75.4,62.6L75.4,61.6L74.9,61.6L74.9,60.6L74.4,60.6L74.4,60.1L65.9,60.1L65.9,59.6L65.4,59.6L65.4,59.1L64.1,59.1L64.1,59.6L63.6,59.6L63.6,60.1L63,60.1L63,59.9L63.4,59.9L63.4,59.4L63.9,59.4L63.9,58.9L65.6,58.9L65.6,59.4L66.1,59.4L66.1,59.9z" stroke="none"/><path d="M16.4,94.4L16.4,93.9L16.9,93.9L16.9,93.4L17.4,93.4L17.4,92.4L19.4,92.4L19.4,91.5L19.6,91.5L19.6,92.6L17.6,92.6L17.6,93.6L17.1,93.6L17.1,94.1L16.6,94.1L16.6,94.4L17.6,94.4L17.6,94.9L18.1,94.9L18.1,95.4L18.6,95.4L18.6,95.9L19.1,95.9L19.1,99.6L17.6,99.6L17.6,100.1L17.1,100.1L17.1,101.6L16.6,101.6L16.6,102L16.4,102L16.4,101.4L16.9,101.4L16.9,99.9L17.4,99.9L17.4,99.4L18.9,99.4L18.9,96.1L18.4,96.1L18.4,95.6L17.9,95.6L17.9,95.1L17.4,95.1L17.4,94.6L16.6,94.6L16.6,95.1L14.4,95.1L14.4,91.6L13.9,91.6L13.9,91.1L13.4,91.1L13.4,90L13.6,90L13.6,90.9L14.1,90.9L14.1,91.4L14.6,91.4L14.6,94.9L16.4,94.9L16.4,94.6L15,94.6L15,94.4z" stroke="none"/><path d="M5.9,59.4L5.9,55.6L4.5,55.6L4.5,55.4L6.1,55.4L6.1,59.4L8.4,59.4L8.4,58.4L9.4,58.4L9.4,56.9L10.5,56.9L10.5,57.1L9.6,57.1L9.6,58.6L8.6,58.6L8.6,59.6L6.1,59.6L6.1,60.6L4.1,60.6L4.1,61.1L3.6,61.1L3.6,65.6L3.1,65.6L3.1,66L2.9,66L2.9,65.4L3.4,65.4L3.4,60.9L3.9,60.9L3.9,60.4L5.9,60.4L5.9,59.6L4.6,59.6L4.6,60L4.4,60L4.4,59.4z" stroke="none"/><path d="M12.4,94.4L12.4,93.4L12.9,93.4L12.9,90.6L12.4,90.6L12.4,86.6L11.9,86.6L11.9,84L12.1,84L12.1,86.4L12.6,86.4L12.6,90.4L13.1,90.4L13.1,93.6L12.6,93.6L12.6,94.4L13.1,94.4L13.1,95.9L13.6,95.9L13.6,96.4L15.1,96.4L15.1,96.9L17.6,96.9L17.6,97.4L18,97.4L18,97.6L17.4,97.6L17.4,97.1L14.9,97.1L14.9,96.6L13.4,96.6L13.4,96.1L12.9,96.1L12.9,94.6L12.6,94.6L12.6,95.1L11.6,95.1L11.6,96.1L10.5,96.1L10.5,95.9L11.4,95.9L11.4,94.9L12.4,94.9L12.4,94.6L11.1,94.6L11.1,95.1L10.1,95.1L10.1,100.9L10.6,100.9L10.6,102L10.4,102L10.4,101.1L9.9,101.1L9.9,94.9L10.9,94.9L10.9,94.4z" stroke="none"/><path d="M91.9,67.9L91.9,67.6L87,67.6L87,67.4L92.1,67.4L92.1,67.9L92.4,67.9L92.4,67.1L86.6,67.1L86.6,67.9L88.1,67.9L88.1,69.9L88.6,69.9L88.6,70.9L91.1,70.9L91.1,71.4L91.6,71.4L91.6,71.9L92.6,71.9L92.6,72.4L93.4,72.4L93.4,70.4L94.9,70.4L94.9,69.9L95.4,69.9L95.4,69.4L96.4,69.4L96.4,68.9L96.9,68.9L96.9,68.4L97.9,68.4L97.9,67.4L98.9,67.4L98.9,66.9L99.9,66.9L99.9,66.4L100.4,66.4L100.4,66L100.6,66L100.6,66.6L100.1,66.6L100.1,67.1L99.1,67.1L99.1,67.6L98.1,67.6L98.1,68.6L97.1,68.6L97.1,69.1L96.6,69.1L96.6,69.6L95.6,69.6L95.6,70.1L95.1,70.1L95.1,70.6L93.6,70.6L93.6,72.6L92.4,72.6L92.4,72.1L91.4,72.1L91.4,71.6L90.9,71.6L90.9,71.1L88.4,71.1L88.4,70.1L87.9,70.1L87.9,68.1L86.4,68.1L86.4,66.9L92.6,66.9L92.6,68.1L92.1,68.1L92.1,69.9L92.6,69.9L92.6,70.4L93,70.4L93,70.6L92.4,70.6L92.4,70.1L91.9,70.1L91.9,68.1L91.6,68.1L91.6,70.9L92.6,70.9L92.6,71.4L93.1,71.4L93.1,72L92.9,72L92.9,71.6L92.4,71.6L92.4,71.1L91.4,71.1L91.4,67.9z" stroke="none"/><path d="M90.4,89.9L90.4,88.1L89.9,88.1L89.9,87.6L86.9,87.6L86.9,87L87.1,87L87.1,87.4L90.1,87.4L90.1,87.9L90.6,87.9L90.6,89.9L91.6,89.9L91.6,91.4L93,91.4L93,91.6L91.4,91.6L91.4,90.1L90.6,90.1L90.6,94.9L91.1,94.9L91.1,96.9L91.6,96.9L91.6,98.4L92.1,98.4L92.1,98.9L92.6,98.9L92.6,99.9L93.1,99.9L93.1,100.5L92.9,100.5L92.9,100.1L92.4,100.1L92.4,99.1L91.9,99.1L91.9,98.6L91.4,98.6L91.4,97.1L90.9,97.1L90.9,95.1L90.4,95.1L90.4,90.1L87.9,90.1L87.9,89.6L87.4,89.6L87.4,89.1L86.4,89.1L86.4,86.4L86.9,86.4L86.9,84.9L87.4,84.9L87.4,84.4L88.4,84.4L88.4,83.4L89.4,83.4L89.4,82.4L90,82.4L90,82.6L89.6,82.6L89.6,83.6L88.6,83.6L88.6,84.6L87.6,84.6L87.6,85.1L87.1,85.1L87.1,86.6L86.6,86.6L86.6,88.9L87.6,88.9L87.6,89.4L88.1,89.4L88.1,89.9z" stroke="none"/><path d="M68.9,89.9L68.9,89.6L65.4,89.6L65.4,87.6L64.9,87.6L64.9,87.1L64.4,87.1L64.4,86.6L63.9,86.6L63.9,86.1L63.4,86.1L63.4,85.6L62.9,85.6L62.9,83.1L62.4,83.1L62.4,79.6L61.9,79.6L61.9,79.1L61.4,79.1L61.4,78L61.6,78L61.6,78.9L62.1,78.9L62.1,79.4L62.6,79.4L62.6,82.9L63.1,82.9L63.1,85.4L63.6,85.4L63.6,85.9L64.1,85.9L64.1,86.4L64.6,86.4L64.6,86.9L65.1,86.9L65.1,87.4L65.6,87.4L65.6,89.4L69.1,89.4L69.1,89.9L71.6,89.9L71.6,90.4L72.1,90.4L72.1,90.9L73.1,90.9L73.1,91.9L73.6,91.9L73.6,93L73.4,93L73.4,92.1L72.9,92.1L72.9,91.1L71.9,91.1L71.9,90.6L71.4,90.6L71.4,90.1L69.1,90.1L69.1,93L68.9,93L68.9,90.1L68.6,90.1L68.6,93.4L71.1,93.4L71.1,93.9L72.1,93.9L72.1,96L71.9,96L71.9,94.1L70.9,94.1L70.9,93.6L68.4,93.6L68.4,89.9z" stroke="none"/><path d="M38.4,92.9L38.4,89.6L36.4,89.6L36.4,85.1L33.9,85.1L33.9,83.6L33.4,83.6L33.4,82.6L31.5,82.6L31.5,82.4L33.6,82.4L33.6,83.4L34.1,83.4L34.1,84.9L36.6,84.9L36.6,89.4L38.6,89.4L38.6,92.9L40.1,92.9L40.1,94.4L43.1,94.4L43.1,94.9L44.6,94.9L44.6,95.9L46.6,95.9L46.6,97.4L47.6,97.4L47.6,98.9L48,98.9L48,99.1L47.4,99.1L47.4,97.6L46.4,97.6L46.4,96.1L44.4,96.1L44.4,95.1L42.9,95.1L42.9,94.6L39.9,94.6L39.9,93.1L38.6,93.1L38.6,94.4L39.1,94.4L39.1,95.9L40.5,95.9L40.5,96.1L38.9,96.1L38.9,94.6L38.4,94.6L38.4,93.1L38.1,93.1L38.1,93.6L35.6,93.6L35.6,94.1L35.1,94.1L35.1,95.6L34.6,95.6L34.6,96L34.4,96L34.4,95.4L34.9,95.4L34.9,93.9L35.4,93.9L35.4,93.4L37.9,93.4L37.9,92.9z" stroke="none"/><path d="M73.9,95.4L73.9,94.9L74.4,94.9L74.4,94.4L76.9,94.4L76.9,93.4L79.4,93.4L79.4,92.9L80.4,92.9L80.4,91.9L80.9,91.9L80.9,91.5L81.1,91.5L81.1,92.1L80.6,92.1L80.6,93.1L79.6,93.1L79.6,93.6L77.1,93.6L77.1,94.6L74.6,94.6L74.6,95.1L74.1,95.1L74.1,95.4L74.6,95.4L74.6,95.9L75.1,95.9L75.1,96.4L75.6,96.4L75.6,99.6L72.1,99.6L72.1,100.1L71.1,100.1L71.1,100.6L70.5,100.6L70.5,100.4L70.9,100.4L70.9,99.9L71.9,99.9L71.9,99.4L75.4,99.4L75.4,96.6L74.9,96.6L74.9,96.1L74.4,96.1L74.4,95.6L74.1,95.6L74.1,97.9L75.1,97.9L75.1,99L74.9,99L74.9,98.1L73.9,98.1L73.9,95.6L72.4,95.6L72.4,91.6L70.5,91.6L70.5,91.4L72.6,91.4L72.6,95.4z" stroke="none"/><path d="M75.4,88.4L75.4,86.9L75.9,86.9L75.9,86.4L76.4,86.4L76.4,85.9L77.4,85.9L77.4,85.4L78,85.4L78,85.6L77.6,85.6L77.6,86.1L76.6,86.1L76.6,86.6L76.1,86.6L76.1,87.1L75.6,87.1L75.6,88.4L77.9,88.4L77.9,87.9L79.4,87.9L79.4,87.4L79.9,87.4L79.9,86.4L81.4,86.4L81.4,85.9L81.9,85.9L81.9,83.4L82.4,83.4L82.4,82.5L82.6,82.5L82.6,83.6L82.1,83.6L82.1,86.1L81.6,86.1L81.6,86.6L80.1,86.6L80.1,87.6L79.6,87.6L79.6,88.1L78.1,88.1L78.1,88.6L75.6,88.6L75.6,88.9L78.6,88.9L78.6,89.4L79.6,89.4L79.6,89.9L81.1,89.9L81.1,90.4L81.6,90.4L81.6,90.9L82.1,90.9L82.1,95.6L81.6,95.6L81.6,96.1L81.1,96.1L81.1,96.6L80.6,96.6L80.6,97.1L80.1,97.1L80.1,98.1L79.6,98.1L79.6,98.6L79.1,98.6L79.1,99.1L78.6,99.1L78.6,100.1L78.1,100.1L78.1,100.5L77.9,100.5L77.9,99.9L78.4,99.9L78.4,98.9L78.9,98.9L78.9,98.4L79.4,98.4L79.4,97.9L79.9,97.9L79.9,96.9L80.4,96.9L80.4,96.4L80.9,96.4L80.9,95.9L81.4,95.9L81.4,95.4L81.9,95.4L81.9,91.1L81.4,91.1L81.4,90.6L80.9,90.6L80.9,90.1L79.4,90.1L79.4,89.6L78.4,89.6L78.4,89.1L75.4,89.1L75.4,88.6L71.9,88.6L71.9,88.1L69.4,88.1L69.4,87.1L66.9,87.1L66.9,86.6L65.9,86.6L65.9,86.1L64.9,86.1L64.9,85.6L64.5,85.6L64.5,85.4L65.1,85.4L65.1,85.9L66.1,85.9L66.1,86.4L67.1,86.4L67.1,86.9L69.6,86.9L69.6,87.9L72.1,87.9L72.1,88.4z" stroke="none"/><path d="M90.9,43.9L90.9,43.4L93.4,43.4L93.4,42.9L96.6,42.9L96.6,49.6L93.6,49.6L93.6,50.6L93.1,50.6L93.1,51L92.9,51L92.9,50.4L93.4,50.4L93.4,49.4L96.4,49.4L96.4,43.1L93.6,43.1L93.6,43.6L91.1,43.6L91.1,43.9L93.9,43.9L93.9,43.4L96,43.4L96,43.6L94.1,43.6L94.1,44.1L91.1,44.1L91.1,47.9L91.5,47.9L91.5,48.1L90.9,48.1L90.9,44.1L90.4,44.1L90.4,42.4L97.1,42.4L97.1,50.1L95.1,50.1L95.1,51.6L91.9,51.6L91.9,50.6L91.4,50.6L91.4,49.6L90.4,49.6L90.4,47.6L89.4,47.6L89.4,47.1L85.9,47.1L85.9,46.6L84.4,46.6L84.4,46.1L83.4,46.1L83.4,45.6L82.4,45.6L82.4,45.1L81.9,45.1L81.9,44.1L81.4,44.1L81.4,39.6L79.9,39.6L79.9,37.6L79.5,37.6L79.5,37.4L80.1,37.4L80.1,39.4L81.6,39.4L81.6,43.9L82.1,43.9L82.1,44.9L82.6,44.9L82.6,45.4L83.6,45.4L83.6,45.9L84.6,45.9L84.6,46.4L86.1,46.4L86.1,46.9L89.6,46.9L89.6,47.4L90.6,47.4L90.6,49.4L91.6,49.4L91.6,50.4L92.1,50.4L92.1,51.4L94.9,51.4L94.9,49.9L96.9,49.9L96.9,42.6L90.6,42.6L90.6,43.9z" stroke="none"/><path d="M53.4,68.9L53.4,68.4L56.4,68.4L56.4,66.9L56.9,66.9L56.9,65.9L58.4,65.9L58.4,64.5L58.6,64.5L58.6,66.1L57.1,66.1L57.1,67.1L56.6,67.1L56.6,68.6L53.6,68.6L53.6,68.9L60,68.9L60,69.1L53.6,69.1L53.6,72.1L53.1,72.1L53.1,73.6L52.5,73.6L52.5,73.4L52.9,73.4L52.9,71.9L53.4,71.9L53.4,69.1L45.9,69.1L45.9,68.6L45.4,68.6L45.4,68.1L44.6,68.1L44.6,68.6L43.6,68.6L43.6,69L43.4,69L43.4,68.4L44.4,68.4L44.4,67.9L45.6,67.9L45.6,68.4L46.1,68.4L46.1,68.9z" stroke="none"/><path d="M81.4,19.9L81.4,18.1L80.4,18.1L80.4,16.6L79.9,16.6L79.9,12.4L81.4,12.4L81.4,11.9L81.9,11.9L81.9,10.9L83.4,10.9L83.4,7.9L84.4,7.9L84.4,7.4L84.9,7.4L84.9,5.9L85.4,5.9L85.4,5.4L85.9,5.4L85.9,4.9L87.6,4.9L87.6,5.4L89.1,5.4L89.1,6.4L90.6,6.4L90.6,6.9L91.1,6.9L91.1,7.9L91.6,7.9L91.6,9L91.4,9L91.4,8.1L90.9,8.1L90.9,7.1L90.4,7.1L90.4,6.6L88.9,6.6L88.9,5.6L87.4,5.6L87.4,5.1L86.1,5.1L86.1,5.6L85.6,5.6L85.6,6.1L85.1,6.1L85.1,7.6L84.6,7.6L84.6,8.1L83.6,8.1L83.6,11.1L82.1,11.1L82.1,12.1L81.6,12.1L81.6,12.6L80.1,12.6L80.1,16.4L80.6,16.4L80.6,17.9L81.6,17.9L81.6,19.9L83.1,19.9L83.1,20.4L84.6,20.4L84.6,20.9L85.6,20.9L85.6,22.5L85.4,22.5L85.4,21.1L84.4,21.1L84.4,20.6L82.9,20.6L82.9,20.1L81.6,20.1L81.6,24.1L79.1,24.1L79.1,24.6L78.6,24.6L78.6,25.1L78.1,25.1L78.1,25.5L77.9,25.5L77.9,24.9L78.4,24.9L78.4,24.4L78.9,24.4L78.9,23.9L81.4,23.9L81.4,20.1L80.4,20.1L80.4,19.6L79.9,19.6L79.9,17.6L78.4,17.6L78.4,17.1L77.9,17.1L77.9,16.1L76.9,16.1L76.9,15.6L75.9,15.6L75.9,14.6L75.4,14.6L75.4,14.1L74.4,14.1L74.4,12.6L73.9,12.6L73.9,12.1L73.4,12.1L73.4,11.6L72.9,11.6L72.9,11.1L71.9,11.1L71.9,10.1L70.9,10.1L70.9,9.1L69.9,9.1L69.9,8.6L69.4,8.6L69.4,8.1L68.6,8.1L68.6,8.6L68.1,8.6L68.1,12.9L68.6,12.9L68.6,18.4L70.1,18.4L70.1,24.9L72.6,24.9L72.6,25.9L73.1,25.9L73.1,26.4L73.6,26.4L73.6,27L73.4,27L73.4,26.6L72.9,26.6L72.9,26.1L72.4,26.1L72.4,25.1L69.9,25.1L69.9,18.6L68.4,18.6L68.4,13.1L67.9,13.1L67.9,8.4L68.4,8.4L68.4,7.9L69.6,7.9L69.6,8.4L70.1,8.4L70.1,8.9L71.1,8.9L71.1,9.9L72.1,9.9L72.1,10.9L73.1,10.9L73.1,11.4L73.6,11.4L73.6,11.9L74.1,11.9L74.1,12.4L74.6,12.4L74.6,13.9L75.6,13.9L75.6,14.4L76.1,14.4L76.1,15.4L77.1,15.4L77.1,15.9L78.1,15.9L78.1,16.9L78.6,16.9L78.6,17.4L80.1,17.4L80.1,19.4L80.6,19.4L80.6,19.9z" stroke="none"/><path d="M90.9,12.9L90.9,10.6L90.4,10.6L90.4,7.6L89.4,7.6L89.4,7.1L88.4,7.1L88.4,6.6L87.4,6.6L87.4,6.1L87,6.1L87,5.9L87.6,5.9L87.6,6.4L88.6,6.4L88.6,6.9L89.6,6.9L89.6,7.4L90.6,7.4L90.6,10.4L91.1,10.4L91.1,12.9L93.6,12.9L93.6,13.4L95.6,13.4L95.6,13.9L96.1,13.9L96.1,15L95.9,15L95.9,14.1L95.4,14.1L95.4,13.6L93.4,13.6L93.4,13.1L91.1,13.1L91.1,13.4L93.1,13.4L93.1,13.9L94.6,13.9L94.6,14.4L95.1,14.4L95.1,14.9L95.6,14.9L95.6,15.4L97.1,15.4L97.1,15.9L100.6,15.9L100.6,16.5L100.4,16.5L100.4,16.1L96.9,16.1L96.9,15.6L95.4,15.6L95.4,15.1L94.9,15.1L94.9,14.6L94.4,14.6L94.4,14.1L92.9,14.1L92.9,13.6L90.9,13.6L90.9,13.1L88.1,13.1L88.1,13.6L86.1,13.6L86.1,14.1L85.6,14.1L85.6,14.6L81.6,14.6L81.6,15.1L81,15.1L81,14.9L81.4,14.9L81.4,14.4L85.4,14.4L85.4,13.9L85.9,13.9L85.9,13.4L87.9,13.4L87.9,12.9z" stroke="none"/><path d="M29.9,77.9L29.9,76.9L30.4,76.9L30.4,76.4L31.4,76.4L31.4,75.9L31.9,75.9L31.9,75.4L32.4,75.4L32.4,74.4L32.9,74.4L32.9,73.5L33.1,73.5L33.1,74.6L32.6,74.6L32.6,75.6L32.1,75.6L32.1,76.1L31.6,76.1L31.6,76.6L30.6,76.6L30.6,77.1L30.1,77.1L30.1,77.9L30.4,77.9L30.4,77.4L30.9,77.4L30.9,76.9L32.4,76.9L32.4,76.4L32.9,76.4L32.9,75.9L33.4,75.9L33.4,75.4L34.9,75.4L34.9,74.9L37.5,74.9L37.5,75.1L35.1,75.1L35.1,75.6L33.6,75.6L33.6,76.1L33.1,76.1L33.1,76.6L32.6,76.6L32.6,77.1L31.1,77.1L31.1,77.6L30.6,77.6L30.6,78.1L30.1,78.1L30.1,81.6L29.6,81.6L29.6,82.1L28.1,82.1L28.1,82.6L26.1,82.6L26.1,84.9L26.6,84.9L26.6,85.4L27,85.4L27,85.6L26.4,85.6L26.4,85.1L25.9,85.1L25.9,82.4L27.9,82.4L27.9,81.9L29.4,81.9L29.4,81.4L29.9,81.4L29.9,78.1L27.1,78.1L27.1,78.6L26.1,78.6L26.1,79.1L25.6,79.1L25.6,79.6L22.5,79.6L22.5,79.4L25.4,79.4L25.4,78.9L25.9,78.9L25.9,78.4L26.9,78.4L26.9,77.9z" stroke="none"/><path d="M14.9,30.4L14.9,29.9L21.6,29.9L21.6,30.4L23.1,30.4L23.1,34.1L22.6,34.1L22.6,34.5L22.4,34.5L22.4,33.9L22.9,33.9L22.9,30.6L21.4,30.6L21.4,30.1L15.1,30.1L15.1,30.4L20.6,30.4L20.6,30.9L21.6,30.9L21.6,31.4L22.1,31.4L22.1,31.9L22.6,31.9L22.6,33L22.4,33L22.4,32.1L21.9,32.1L21.9,31.6L21.4,31.6L21.4,31.1L20.4,31.1L20.4,30.6L15.1,30.6L15.1,34.6L14.6,34.6L14.6,35.1L13.1,35.1L13.1,36.1L12,36.1L12,35.9L12.9,35.9L12.9,34.9L14.4,34.9L14.4,34.4L14.9,34.4L14.9,30.6L13.9,30.6L13.9,30.1L12.9,30.1L12.9,29.6L11.4,29.6L11.4,29.1L10.4,29.1L10.4,28.6L9.9,28.6L9.9,26.1L9.4,26.1L9.4,25.6L7.9,25.6L7.9,24.6L6.9,24.6L6.9,23.6L6.4,23.6L6.4,23.1L5.4,23.1L5.4,21.1L4.4,21.1L4.4,19.5L4.6,19.5L4.6,20.9L5.6,20.9L5.6,22.9L6.6,22.9L6.6,23.4L7.1,23.4L7.1,24.4L8.1,24.4L8.1,25.4L9.6,25.4L9.6,25.9L10.1,25.9L10.1,28.4L10.6,28.4L10.6,28.9L11.6,28.9L11.6,29.4L13.1,29.4L13.1,29.9L14.1,29.9L14.1,30.4z" stroke="none"/><path d="M60.9,46.9L60.9,45.4L61.4,45.4L61.4,44.9L61.9,44.9L61.9,43.9L62.4,43.9L62.4,41.6L61.9,41.6L61.9,41.1L57.4,41.1L57.4,40.6L55.5,40.6L55.5,40.4L57.6,40.4L57.6,40.9L62.1,40.9L62.1,41.4L62.6,41.4L62.6,44.1L62.1,44.1L62.1,45.1L61.6,45.1L61.6,45.6L61.1,45.6L61.1,46.9L61.4,46.9L61.4,46.4L61.9,46.4L61.9,45.9L62.4,45.9L62.4,44.4L63.4,44.4L63.4,43.9L63.9,43.9L63.9,43.4L65.9,43.4L65.9,42.4L66.9,42.4L66.9,41.4L67.4,41.4L67.4,40.5L67.6,40.5L67.6,41.6L67.1,41.6L67.1,42.6L66.1,42.6L66.1,43.6L64.1,43.6L64.1,44.1L63.6,44.1L63.6,44.6L62.6,44.6L62.6,46.1L62.1,46.1L62.1,46.6L61.6,46.6L61.6,47.1L61.1,47.1L61.1,55.9L61.6,55.9L61.6,56.9L66,56.9L66,57.1L61.4,57.1L61.4,56.1L60.9,56.1L60.9,47.1L59.1,47.1L59.1,49.6L58.6,49.6L58.6,50.1L57.1,50.1L57.1,50.6L55.6,50.6L55.6,51L55.4,51L55.4,50.4L56.9,50.4L56.9,49.9L58.4,49.9L58.4,49.4L58.9,49.4L58.9,46.9z" stroke="none"/><path d="M36.9,82.4L36.9,78.9L37.9,78.9L37.9,78.4L38.9,78.4L38.9,71.4L39.4,71.4L39.4,70.4L40.4,70.4L40.4,69.4L40.9,69.4L40.9,68.9L41.9,68.9L41.9,67.4L42.9,67.4L42.9,66.4L43.4,66.4L43.4,65.4L43.9,65.4L43.9,63.9L45.9,63.9L45.9,63.4L46.9,63.4L46.9,60.4L47.4,60.4L47.4,59.1L40.6,59.1L40.6,59.6L39.1,59.6L39.1,60.1L37.1,60.1L37.1,61.1L36.6,61.1L36.6,66.1L36.1,66.1L36.1,66.6L34.6,66.6L34.6,67.6L34.1,67.6L34.1,68.1L33.6,68.1L33.6,69.1L33.1,69.1L33.1,69.6L32.1,69.6L32.1,70.1L31.6,70.1L31.6,70.6L31.1,70.6L31.1,71.6L29.1,71.6L29.1,73.1L27.6,73.1L27.6,75.1L27,75.1L27,74.9L27.4,74.9L27.4,72.9L28.9,72.9L28.9,71.4L30.9,71.4L30.9,70.4L31.4,70.4L31.4,69.9L31.9,69.9L31.9,69.4L32.9,69.4L32.9,68.9L33.4,68.9L33.4,67.9L33.9,67.9L33.9,67.4L34.4,67.4L34.4,66.4L35.9,66.4L35.9,65.9L36.4,65.9L36.4,60.9L36.9,60.9L36.9,59.9L38.9,59.9L38.9,59.4L40.4,59.4L40.4,58.9L47.6,58.9L47.6,60.6L47.1,60.6L47.1,63.6L46.1,63.6L46.1,64.1L44.1,64.1L44.1,65.6L43.6,65.6L43.6,66.6L43.1,66.6L43.1,67.6L42.1,67.6L42.1,69.1L41.1,69.1L41.1,69.6L40.6,69.6L40.6,70.6L39.6,70.6L39.6,71.6L39.1,71.6L39.1,78.6L38.1,78.6L38.1,79.1L37.1,79.1L37.1,82.4L43.6,82.4L43.6,83.4L44.1,83.4L44.1,83.9L44.6,83.9L44.6,84.4L45.6,84.4L45.6,84.9L46.1,84.9L46.1,85.4L46.5,85.4L46.5,85.6L45.9,85.6L45.9,85.1L45.4,85.1L45.4,84.6L44.4,84.6L44.4,84.1L43.9,84.1L43.9,83.6L43.4,83.6L43.4,82.6L37.1,82.6L37.1,87.9L38.1,87.9L38.1,88.4L38.6,88.4L38.6,88.9L39.1,88.9L39.1,90.4L40.1,90.4L40.1,90.9L41.1,90.9L41.1,91.9L41.6,91.9L41.6,92.4L42.6,92.4L42.6,92.9L43.5,92.9L43.5,93.1L42.4,93.1L42.4,92.6L41.4,92.6L41.4,92.1L40.9,92.1L40.9,91.1L39.9,91.1L39.9,90.6L38.9,90.6L38.9,89.1L38.4,89.1L38.4,88.6L37.9,88.6L37.9,88.1L36.9,88.1L36.9,82.6L35.9,82.6L35.9,82.1L34.9,82.1L34.9,81.6L31.4,81.6L31.4,81.1L30.4,81.1L30.4,78.4L31.4,78.4L31.4,78L31.6,78L31.6,78.6L30.6,78.6L30.6,80.9L31.6,80.9L31.6,81.4L35.1,81.4L35.1,81.9L36.1,81.9L36.1,82.4z" stroke="none"/><path d="M59.4,83.4L59.4,80.1L58.9,80.1L58.9,74.9L60,74.9L60,75.1L59.1,75.1L59.1,79.9L59.6,79.9L59.6,83.4L60.1,83.4L60.1,84.9L60.6,84.9L60.6,85.9L61.1,85.9L61.1,87.4L62.1,87.4L62.1,87.9L62.6,87.9L62.6,88.4L63.1,88.4L63.1,89.9L63.6,89.9L63.6,91.4L64.1,91.4L64.1,92.4L64.6,92.4L64.6,93L64.4,93L64.4,92.6L63.9,92.6L63.9,91.6L63.4,91.6L63.4,90.1L62.9,90.1L62.9,88.6L62.4,88.6L62.4,88.1L61.9,88.1L61.9,87.6L60.9,87.6L60.9,86.1L60.4,86.1L60.4,85.1L59.9,85.1L59.9,83.6L59.6,83.6L59.6,88.4L62.1,88.4L62.1,88.9L62.6,88.9L62.6,91.4L63,91.4L63,91.6L62.4,91.6L62.4,89.1L61.9,89.1L61.9,88.6L59.4,88.6L59.4,83.6L58.9,83.6L58.9,80.6L58.4,80.6L58.4,77.6L55.4,77.6L55.4,77.1L53.9,77.1L53.9,76.6L51.9,76.6L51.9,75.6L50.9,75.6L50.9,75L51.1,75L51.1,75.4L52.1,75.4L52.1,76.4L54.1,76.4L54.1,76.9L55.6,76.9L55.6,77.4L58.6,77.4L58.6,80.4L59.1,80.4L59.1,83.4z" stroke="none"/><path d="M21.9,19.4L21.9,18.1L21.4,18.1L21.4,14.6L20.9,14.6L20.9,14.1L20.4,14.1L20.4,12.1L19.9,12.1L19.9,11.6L17.4,11.6L17.4,11.1L14.9,11.1L14.9,10.5L15.1,10.5L15.1,10.9L17.6,10.9L17.6,11.4L20.1,11.4L20.1,11.9L20.6,11.9L20.6,13.9L21.1,13.9L21.1,14.4L21.6,14.4L21.6,17.9L22.1,17.9L22.1,19.4L27.9,19.4L27.9,15.9L28.4,15.9L28.4,14.9L28.9,14.9L28.9,14.4L29.4,14.4L29.4,13.4L30,13.4L30,13.6L29.6,13.6L29.6,14.6L29.1,14.6L29.1,15.1L28.6,15.1L28.6,16.1L28.1,16.1L28.1,19.6L22.1,19.6L22.1,19.9L23.1,19.9L23.1,20.4L23.6,20.4L23.6,23.4L25.6,23.4L25.6,24.4L26.1,24.4L26.1,24.9L28.1,24.9L28.1,25.4L29.1,25.4L29.1,25.9L29.6,25.9L29.6,26.4L31.1,26.4L31.1,28.4L31.5,28.4L31.5,28.6L30.9,28.6L30.9,26.6L29.4,26.6L29.4,26.1L28.9,26.1L28.9,25.6L27.9,25.6L27.9,25.1L25.9,25.1L25.9,24.6L25.4,24.6L25.4,23.6L23.4,23.6L23.4,20.6L22.9,20.6L22.9,20.1L21.9,20.1L21.9,19.6L21.6,19.6L21.6,21.6L19.1,21.6L19.1,22.1L18.6,22.1L18.6,22.6L18.1,22.6L18.1,23.6L17.1,23.6L17.1,25.1L16.6,25.1L16.6,26.1L16.1,26.1L16.1,27.1L15.1,27.1L15.1,27.6L14.1,27.6L14.1,28.1L12.1,28.1L12.1,28.5L11.9,28.5L11.9,27.9L13.9,27.9L13.9,27.4L14.9,27.4L14.9,26.9L15.9,26.9L15.9,25.9L16.4,25.9L16.4,24.9L16.9,24.9L16.9,23.4L17.9,23.4L17.9,22.4L18.4,22.4L18.4,21.9L18.9,21.9L18.9,21.4L21.4,21.4L21.4,19.4z" stroke="none"/><path d="M91.4,86.4L91.4,78.1L89.9,78.1L89.9,76.5L90.1,76.5L90.1,77.9L91.6,77.9L91.6,86.4L92.1,86.4L92.1,86.9L94.1,86.9L94.1,88.9L94.6,88.9L94.6,89.9L96.1,89.9L96.1,93.9L98.6,93.9L98.6,94.4L99,94.4L99,94.6L98.4,94.6L98.4,94.1L95.9,94.1L95.9,90.1L94.4,90.1L94.4,89.1L93.9,89.1L93.9,87.1L91.9,87.1L91.9,86.6L91.6,86.6L91.6,87.4L93.1,87.4L93.1,87.9L93.6,87.9L93.6,89.9L94.1,89.9L94.1,90.4L95.1,90.4L95.1,90.9L95.6,90.9L95.6,95.9L96,95.9L96,96.1L95.4,96.1L95.4,91.1L94.9,91.1L94.9,90.6L93.9,90.6L93.9,90.1L93.4,90.1L93.4,88.1L92.9,88.1L92.9,87.6L91.4,87.6L91.4,86.6L90.9,86.6L90.9,82.1L90.4,82.1L90.4,81.6L86.9,81.6L86.9,80.6L84.9,80.6L84.9,80.1L83.4,80.1L83.4,79.6L82.5,79.6L82.5,79.4L83.6,79.4L83.6,79.9L85.1,79.9L85.1,80.4L87.1,80.4L87.1,81.4L90.6,81.4L90.6,81.9L91.1,81.9L91.1,86.4z" stroke="none"/><path d="M13.5,14.9L13.5,15.1L12,15.1L12,14.9z" stroke="none"/><path d="M101.9,91.5L102.1,91.5L102.1,93L101.9,93z" stroke="none"/><path d="M16.6,85.5L16.4,85.5L16.4,84L16.6,84z" stroke="none"/><path d="M82.6,46.5L82.4,46.5L82.4,46.1L81.9,46.1L81.9,45.6L81.4,45.6L81.4,45.1L81,45.1L81,44.9L81.6,44.9L81.6,45.4L82.1,45.4L82.1,45.9L82.6,45.9z" stroke="none"/><path d="M9,79.6L9,79.4L9.9,79.4L9.9,78.4L10.4,78.4L10.4,78L10.6,78L10.6,78.6L10.1,78.6L10.1,79.6z" stroke="none"/><path d="M9,19.4L9,19.6L8.4,19.6L8.4,18.6L7.4,18.6L7.4,18L7.6,18L7.6,18.4L8.6,18.4L8.6,19.4z" stroke="none"/><path d="M49.5,40.4L49.5,40.6L49.1,40.6L49.1,41.6L48.6,41.6L48.6,42.1L48,42.1L48,41.9L48.4,41.9L48.4,41.4L48.9,41.4L48.9,40.4z" stroke="none"/><path d="M89.9,96L90.1,96L90.1,99L89.9,99z" stroke="none"/><path d="M74.9,73.5L75.1,73.5L75.1,76.5L74.9,76.5z" stroke="none"/><path d="M28.6,51L28.4,51L28.4,48L28.6,48z" stroke="none"/><path d="M32.9,84L33.1,84L33.1,87L32.9,87z" stroke="none"/><path d="M36,37.4L36,37.6L35.6,37.6L35.6,38.1L35.1,38.1L35.1,40.1L34.6,40.1L34.6,40.5L34.4,40.5L34.4,39.9L34.9,39.9L34.9,37.9L35.4,37.9L35.4,37.4z" stroke="none"/><path d="M64.5,68.9L64.5,69.1L64.1,69.1L64.1,69.6L63.6,69.6L63.6,71.6L63.1,71.6L63.1,72L62.9,72L62.9,71.4L63.4,71.4L63.4,69.4L63.9,69.4L63.9,68.9z" stroke="none"/><path d="M97.4,90L97.6,90L97.6,90.4L98.1,90.4L98.1,90.9L100.1,90.9L100.1,95.1L99.6,95.1L99.6,95.6L98.6,95.6L98.6,96.1L97.1,96.1L97.1,96.6L96.6,96.6L96.6,97.1L95.4,97.1L95.4,96.6L94.9,96.6L94.9,94.1L94.4,94.1L94.4,91.5L94.6,91.5L94.6,93.9L95.1,93.9L95.1,96.4L95.6,96.4L95.6,96.9L96.4,96.9L96.4,96.4L96.9,96.4L96.9,95.9L98.4,95.9L98.4,95.4L99.4,95.4L99.4,94.9L99.9,94.9L99.9,91.1L97.9,91.1L97.9,90.6L97.4,90.6z" stroke="none"/><path d="M77.9,94.5L78.1,94.5L78.1,95.1L77.6,95.1L77.6,95.6L77.1,95.6L77.1,97.1L76.6,97.1L76.6,97.5L76.4,97.5L76.4,96.9L76.9,96.9L76.9,95.4L77.4,95.4L77.4,94.9L77.9,94.9z" stroke="none"/><path d="M40.4,15L40.6,15L40.6,17.4L42.1,17.4L42.1,18L41.9,18L41.9,17.6L40.4,17.6z" stroke="none"/><path d="M94.5,16.6L94.5,16.4L99.6,16.4L99.6,16.9L100.1,16.9L100.1,17.4L100.9,17.4L100.9,16.9L101.4,16.9L101.4,16.1L100.9,16.1L100.9,15.6L100.4,15.6L100.4,15.1L97.5,15.1L97.5,14.9L100.6,14.9L100.6,15.4L101.1,15.4L101.1,15.9L101.6,15.9L101.6,17.1L101.1,17.1L101.1,17.6L99.9,17.6L99.9,17.1L99.4,17.1L99.4,16.6z" stroke="none"/><path d="M92.9,94.5L93.1,94.5L93.1,96.9L93.6,96.9L93.6,97.4L94.5,97.4L94.5,97.6L93.4,97.6L93.4,97.1L92.9,97.1z" stroke="none"/><path d="M87.1,58.5L86.9,58.5L86.9,57.9L87.4,57.9L87.4,56.4L87.9,56.4L87.9,55.4L88.5,55.4L88.5,55.6L88.1,55.6L88.1,56.6L87.6,56.6L87.6,58.1L87.1,58.1z" stroke="none"/><path d="M10.5,76.6L10.5,76.4L11.1,76.4L11.1,76.9L11.6,76.9L11.6,79.4L12,79.4L12,79.6L11.4,79.6L11.4,77.1L10.9,77.1L10.9,76.6z" stroke="none"/><path d="M19.5,64.6L19.5,64.4L21.9,64.4L21.9,62.9L22.5,62.9L22.5,63.1L22.1,63.1L22.1,64.6z" stroke="none"/><path d="M69,49.6L69,49.4L71.4,49.4L71.4,47.9L72,47.9L72,48.1L71.6,48.1L71.6,49.6z" stroke="none"/><path d="M4.5,51.1L4.5,50.9L5.1,50.9L5.1,51.4L5.6,51.4L5.6,53.9L6,53.9L6,54.1L5.4,54.1L5.4,51.6L4.9,51.6L4.9,51.1z" stroke="none"/><path d="M40.4,52.5L40.6,52.5L40.6,53.9L41.1,53.9L41.1,54.4L41.6,54.4L41.6,55.4L43.5,55.4L43.5,55.6L41.4,55.6L41.4,54.6L40.9,54.6L40.9,54.1L40.4,54.1z" stroke="none"/><path d="M29.9,63L30.1,63L30.1,65.4L32.1,65.4L32.1,65.9L33,65.9L33,66.1L31.9,66.1L31.9,65.6L29.9,65.6z" stroke="none"/><path d="M98.9,57L99.1,57L99.1,57.4L99.6,57.4L99.6,57.9L100.1,57.9L100.1,58.4L101.1,58.4L101.1,58.9L101.6,58.9L101.6,59.4L102.1,59.4L102.1,60L101.9,60L101.9,59.6L101.4,59.6L101.4,59.1L100.9,59.1L100.9,58.6L99.9,58.6L99.9,58.1L99.4,58.1L99.4,57.6L98.9,57.6z" stroke="none"/><path d="M97.5,100.6L97.5,100.4L98.9,100.4L98.9,99.4L99.9,99.4L99.9,98.4L100.4,98.4L100.4,97.5L100.6,97.5L100.6,98.6L100.1,98.6L100.1,99.6L99.1,99.6L99.1,100.6z" stroke="none"/><path d="M44.9,75L45.1,75L45.1,81.4L45.6,81.4L45.6,81.9L47.1,81.9L47.1,82.4L49.6,82.4L49.6,85.4L50.1,85.4L50.1,85.9L51.1,85.9L51.1,87.4L52.1,87.4L52.1,87.9L53.9,87.9L53.9,87.4L54.4,87.4L54.4,86.4L55.4,86.4L55.4,85.4L55.9,85.4L55.9,84.9L56.4,84.9L56.4,83.6L55.9,83.6L55.9,83.1L54.4,83.1L54.4,82.6L53.9,82.6L53.9,81.6L53.4,81.6L53.4,81.1L52.9,81.1L52.9,80.6L51.4,80.6L51.4,79.1L50.9,79.1L50.9,77.6L50.4,77.6L50.4,76.1L49.9,76.1L49.9,75.6L49.4,75.6L49.4,75L49.6,75L49.6,75.4L50.1,75.4L50.1,75.9L50.6,75.9L50.6,77.4L51.1,77.4L51.1,78.9L51.6,78.9L51.6,80.4L53.1,80.4L53.1,80.9L53.6,80.9L53.6,81.4L54.1,81.4L54.1,82.4L54.6,82.4L54.6,82.9L56.1,82.9L56.1,83.4L56.6,83.4L56.6,85.1L56.1,85.1L56.1,85.6L55.6,85.6L55.6,86.6L54.6,86.6L54.6,87.6L54.1,87.6L54.1,88.1L51.9,88.1L51.9,87.6L50.9,87.6L50.9,86.1L49.9,86.1L49.9,85.6L49.4,85.6L49.4,82.6L46.9,82.6L46.9,82.1L45.4,82.1L45.4,81.6L44.9,81.6z" stroke="none"/><path d="M67.6,18L67.4,18L67.4,13.5L67.6,13.5z" stroke="none"/><path d="M94.5,4.6L94.5,4.4L95.6,4.4L95.6,4.9L97.1,4.9L97.1,5.4L97.9,5.4L97.9,4.9L98.4,4.9L98.4,4.4L99,4.4L99,4.6L98.6,4.6L98.6,5.1L98.1,5.1L98.1,5.6L96.9,5.6L96.9,5.1L95.4,5.1L95.4,4.6z" stroke="none"/><path d="M100.4,55.5L100.6,55.5L100.6,55.9L101.1,55.9L101.1,57.9L101.6,57.9L101.6,58.4L102.1,58.4L102.1,58.9L103.1,58.9L103.1,60.6L102.6,60.6L102.6,61.1L101.4,61.1L101.4,60.6L100.4,60.6L100.4,60L100.6,60L100.6,60.4L101.6,60.4L101.6,60.9L102.4,60.9L102.4,60.4L102.9,60.4L102.9,59.1L101.9,59.1L101.9,58.6L101.4,58.6L101.4,58.1L100.9,58.1L100.9,56.1L100.4,56.1z" stroke="none"/><path d="M19.6,52.5L19.4,52.5L19.4,52.1L18.4,52.1L18.4,51.6L17.4,51.6L17.4,51.1L15,51.1L15,50.9L17.6,50.9L17.6,51.4L18.6,51.4L18.6,51.9L19.6,51.9z" stroke="none"/><path d="M85.4,85.5L85.6,85.5L85.6,88.6L85.1,88.6L85.1,89.1L84.6,89.1L84.6,89.6L84.1,89.6L84.1,90L83.9,90L83.9,89.4L84.4,89.4L84.4,88.9L84.9,88.9L84.9,88.4L85.4,88.4z" stroke="none"/><path d="M3,4.6L3,4.4L4.4,4.4L4.4,2.9L7.5,2.9L7.5,3.1L4.6,3.1L4.6,4.6z" stroke="none"/><path d="M50.9,4.5L51.1,4.5L51.1,5.9L51.6,5.9L51.6,6.4L52.1,6.4L52.1,6.9L52.6,6.9L52.6,9L52.4,9L52.4,7.1L51.9,7.1L51.9,6.6L51.4,6.6L51.4,6.1L50.9,6.1z" stroke="none"/><path d="M73.5,38.9L73.5,39.1L70.1,39.1L70.1,41.1L69.6,41.1L69.6,41.6L69.1,41.6L69.1,42L68.9,42L68.9,41.4L69.4,41.4L69.4,40.9L69.9,40.9L69.9,38.9z" stroke="none"/><path d="M90.1,28.5L89.9,28.5L89.9,27.1L89.4,27.1L89.4,26.6L85.4,26.6L85.4,25.5L85.6,25.5L85.6,26.4L89.6,26.4L89.6,26.9L90.1,26.9z" stroke="none"/><path d="M30,90.1L30,89.9L33.1,89.9L33.1,91.4L33.6,91.4L33.6,92.4L34.1,92.4L34.1,92.9L34.5,92.9L34.5,93.1L33.9,93.1L33.9,92.6L33.4,92.6L33.4,91.6L32.9,91.6L32.9,90.1z" stroke="none"/><path d="M102,71.9L102,72.1L101.6,72.1L101.6,73.1L97.6,73.1L97.6,75L97.4,75L97.4,72.9L101.4,72.9L101.4,71.9z" stroke="none"/><path d="M33,5.9L33,6.1L30.6,6.1L30.6,7.1L26.9,7.1L26.9,6L27.1,6L27.1,6.9L30.4,6.9L30.4,5.9z" stroke="none"/><path d="M97.6,42L97.4,42L97.4,36L97.6,36z" stroke="none"/><path d="M31.6,99L31.4,99L31.4,98.6L30.9,98.6L30.9,98.1L29.4,98.1L29.4,97.6L25.5,97.6L25.5,97.4L29.6,97.4L29.6,97.9L31.1,97.9L31.1,98.4L31.6,98.4z" stroke="none"/><path d="M73.4,6L73.6,6L73.6,9.4L74.1,9.4L74.1,9.9L74.6,9.9L74.6,10.4L75.1,10.4L75.1,12L74.9,12L74.9,10.6L74.4,10.6L74.4,10.1L73.9,10.1L73.9,9.6L73.4,9.6z" stroke="none"/><path d="M6.1,12L5.9,12L5.9,5.9L7.5,5.9L7.5,6.1L6.1,6.1z" stroke="none"/><path d="M9.1,31.5L8.9,31.5L8.9,27.6L7.9,27.6L7.9,27.1L6.4,27.1L6.4,26.6L5.4,26.6L5.4,24.6L4.9,24.6L4.9,24.1L3.4,24.1L3.4,18.4L5.1,18.4L5.1,18.9L5.6,18.9L5.6,20.4L6.1,20.4L6.1,22.4L7.6,22.4L7.6,22.9L9.6,22.9L9.6,23.9L10.1,23.9L10.1,25.4L10.6,25.4L10.6,25.9L12.6,25.9L12.6,26.4L13.1,26.4L13.1,26.9L13.5,26.9L13.5,27.1L12.9,27.1L12.9,26.6L12.4,26.6L12.4,26.1L10.4,26.1L10.4,25.6L9.9,25.6L9.9,24.1L9.4,24.1L9.4,23.1L7.4,23.1L7.4,22.6L5.9,22.6L5.9,20.6L5.4,20.6L5.4,19.1L4.9,19.1L4.9,18.6L3.6,18.6L3.6,23.9L5.1,23.9L5.1,24.4L5.6,24.4L5.6,26.4L6.6,26.4L6.6,26.9L8.1,26.9L8.1,27.4L9.1,27.4z" stroke="none"/><path d="M83.9,94.5L84.1,94.5L84.1,97.9L86.6,97.9L86.6,98.4L87.1,98.4L87.1,98.9L88.5,98.9L88.5,99.1L86.9,99.1L86.9,98.6L86.4,98.6L86.4,98.1L83.9,98.1z" stroke="none"/><path d="M54.1,102L53.9,102L53.9,100.4L56.4,100.4L56.4,97.9L56.9,97.9L56.9,97.4L58.5,97.4L58.5,97.6L57.1,97.6L57.1,98.1L56.6,98.1L56.6,100.6L54.1,100.6z" stroke="none"/><path d="M100.5,29.9L100.5,30.1L97.4,30.1L97.4,28.6L96.9,28.6L96.9,27.6L96.4,27.6L96.4,26.6L95.9,26.6L95.9,25.5L96.1,25.5L96.1,26.4L96.6,26.4L96.6,27.4L97.1,27.4L97.1,28.4L97.6,28.4L97.6,29.9z" stroke="none"/><path d="M19.6,27L19.4,27L19.4,23.4L19.9,23.4L19.9,22.9L20.4,22.9L20.4,22.4L21.4,22.4L21.4,21.9L21.9,21.9L21.9,21.4L22.4,21.4L22.4,21L22.6,21L22.6,21.6L22.1,21.6L22.1,22.1L21.6,22.1L21.6,22.6L20.6,22.6L20.6,23.1L20.1,23.1L20.1,23.6L19.6,23.6z" stroke="none"/><path d="M7.5,49.4L7.5,49.6L6.9,49.6L6.9,49.1L6.4,49.1L6.4,43.9L9.9,43.9L9.9,43.4L10.5,43.4L10.5,43.6L10.1,43.6L10.1,44.1L6.6,44.1L6.6,48.9L7.1,48.9L7.1,49.4z" stroke="none"/><path d="M64.6,55.5L64.4,55.5L64.4,53.9L64.9,53.9L64.9,53.4L65.9,53.4L65.9,50.9L66.9,50.9L66.9,50.4L67.4,50.4L67.4,49.5L67.6,49.5L67.6,50.6L67.1,50.6L67.1,51.1L66.1,51.1L66.1,53.6L65.1,53.6L65.1,54.1L64.6,54.1z" stroke="none"/><path d="M39,52.4L39,52.6L37.1,52.6L37.1,53.1L34.6,53.1L34.6,54.1L33.1,54.1L33.1,55.5L32.9,55.5L32.9,53.9L34.4,53.9L34.4,52.9L36.9,52.9L36.9,52.4z" stroke="none"/><path d="M57,91.6L57,91.4L58.6,91.4L58.6,91.9L59.1,91.9L59.1,92.4L59.6,92.4L59.6,96.4L60.1,96.4L60.1,97.5L59.9,97.5L59.9,96.6L59.4,96.6L59.4,92.6L58.9,92.6L58.9,92.1L58.4,92.1L58.4,91.6z" stroke="none"/><path d="M79.6,85.5L79.4,85.5L79.4,84.6L74.1,84.6L74.1,85.1L72.1,85.1L72.1,85.5L71.9,85.5L71.9,84.9L73.9,84.9L73.9,84.4L79.6,84.4z" stroke="none"/><path d="M3.1,96L2.9,96L2.9,92.4L4.4,92.4L4.4,91.4L4.9,91.4L4.9,90.9L5.9,90.9L5.9,90.4L6.4,90.4L6.4,89.9L7.5,89.9L7.5,90.1L6.6,90.1L6.6,90.6L6.1,90.6L6.1,91.1L5.1,91.1L5.1,91.6L4.6,91.6L4.6,92.6L3.1,92.6z" stroke="none"/><path d="M4.5,13.4L4.5,13.6L3.4,13.6L3.4,9.9L3.9,9.9L3.9,6.9L4.4,6.9L4.4,6L4.6,6L4.6,7.1L4.1,7.1L4.1,10.1L3.6,10.1L3.6,13.4z" stroke="none"/><path d="M28.5,99.1L28.5,98.9L30.6,98.9L30.6,99.9L32.4,99.9L32.4,98.9L33.4,98.9L33.4,97.9L34.9,97.9L34.9,97.4L36,97.4L36,97.6L35.1,97.6L35.1,98.1L33.6,98.1L33.6,99.1L32.6,99.1L32.6,100.1L30.4,100.1L30.4,99.1z" stroke="none"/><path d="M100.5,71.9L100.5,72.1L95.1,72.1L95.1,72.6L94.1,72.6L94.1,73.6L93,73.6L93,73.4L93.9,73.4L93.9,72.4L94.9,72.4L94.9,71.9z" stroke="none"/><path d="M40.5,90.1L40.5,89.9L42.9,89.9L42.9,89.4L45.9,89.4L45.9,88.9L46.9,88.9L46.9,88.4L48,88.4L48,88.6L47.1,88.6L47.1,89.1L46.1,89.1L46.1,89.6L43.1,89.6L43.1,90.1z" stroke="none"/><path d="M33,92.9L33,93.1L31.1,93.1L31.1,94.1L27.1,94.1L27.1,95.1L26.1,95.1L26.1,96.1L25.5,96.1L25.5,95.9L25.9,95.9L25.9,94.9L26.9,94.9L26.9,93.9L30.9,93.9L30.9,92.9z" stroke="none"/><path d="M91.5,58.6L91.5,58.4L97.4,58.4L97.4,57.4L97.9,57.4L97.9,56.4L98.4,56.4L98.4,55.4L99,55.4L99,55.6L98.6,55.6L98.6,56.6L98.1,56.6L98.1,57.6L97.6,57.6L97.6,58.6z" stroke="none"/><path d="M55.6,9L55.4,9L55.4,8.4L58.4,8.4L58.4,7.9L61.1,7.9L61.1,9.9L61.6,9.9L61.6,11.4L62.6,11.4L62.6,11.9L63,11.9L63,12.1L62.4,12.1L62.4,11.6L61.4,11.6L61.4,10.1L60.9,10.1L60.9,8.1L58.6,8.1L58.6,8.6L55.6,8.6z" stroke="none"/><path d="M22.5,16.6L22.5,16.4L24.4,16.4L24.4,15.9L25.4,15.9L25.4,15.4L25.9,15.4L25.9,14.9L26.4,14.9L26.4,14.4L26.9,14.4L26.9,13.9L28.4,13.9L28.4,13.4L28.9,13.4L28.9,12.9L29.4,12.9L29.4,12.4L30.6,12.4L30.6,12.9L31.1,12.9L31.1,17.6L30.6,17.6L30.6,18.1L30.1,18.1L30.1,19.5L29.9,19.5L29.9,17.9L30.4,17.9L30.4,17.4L30.9,17.4L30.9,13.1L30.4,13.1L30.4,12.6L29.6,12.6L29.6,13.1L29.1,13.1L29.1,13.6L28.6,13.6L28.6,14.1L27.1,14.1L27.1,14.6L26.6,14.6L26.6,15.1L26.1,15.1L26.1,15.6L25.6,15.6L25.6,16.1L24.6,16.1L24.6,16.6z" stroke="none"/><path d="M22.5,39.1L22.5,38.9L28.4,38.9L28.4,37.9L28.9,37.9L28.9,36.9L29.9,36.9L29.9,36L30.1,36L30.1,37.1L29.1,37.1L29.1,38.1L28.6,38.1L28.6,39.1z" stroke="none"/><path d="M77.9,96L78.1,96L78.1,98.1L77.6,98.1L77.6,98.6L77.1,98.6L77.1,99.6L76.6,99.6L76.6,100.1L72.6,100.1L72.6,100.6L72.1,100.6L72.1,101.1L71.1,101.1L71.1,101.6L69.9,101.6L69.9,101.1L69.4,101.1L69.4,99.4L69.9,99.4L69.9,98.9L70.5,98.9L70.5,99.1L70.1,99.1L70.1,99.6L69.6,99.6L69.6,100.9L70.1,100.9L70.1,101.4L70.9,101.4L70.9,100.9L71.9,100.9L71.9,100.4L72.4,100.4L72.4,99.9L76.4,99.9L76.4,99.4L76.9,99.4L76.9,98.4L77.4,98.4L77.4,97.9L77.9,97.9z" stroke="none"/><path d="M93,52.4L93,52.6L92.6,52.6L92.6,53.1L92.1,53.1L92.1,53.6L91.6,53.6L91.6,55.6L91.1,55.6L91.1,56.1L90.6,56.1L90.6,58.9L91.1,58.9L91.1,59.4L98.4,59.4L98.4,58.9L98.9,58.9L98.9,58.5L99.1,58.5L99.1,59.1L98.6,59.1L98.6,59.6L90.9,59.6L90.9,59.1L90.4,59.1L90.4,55.9L90.9,55.9L90.9,55.4L91.4,55.4L91.4,53.4L91.9,53.4L91.9,52.9L92.4,52.9L92.4,52.4z" stroke="none"/><path d="M4.5,39.1L4.5,38.9L8.6,38.9L8.6,39.4L10.6,39.4L10.6,40.4L11.1,40.4L11.1,42.4L11.6,42.4L11.6,44.6L11.1,44.6L11.1,45.1L10.5,45.1L10.5,44.9L10.9,44.9L10.9,44.4L11.4,44.4L11.4,42.6L10.9,42.6L10.9,40.6L10.4,40.6L10.4,39.6L8.4,39.6L8.4,39.1z" stroke="none"/><path d="M63.1,39L62.9,39L62.9,36.4L63.4,36.4L63.4,35.9L63.9,35.9L63.9,34.9L64.4,34.9L64.4,34.4L64.9,34.4L64.9,33.4L65.9,33.4L65.9,32.9L66.4,32.9L66.4,31.4L67.5,31.4L67.5,31.6L66.6,31.6L66.6,33.1L66.1,33.1L66.1,33.6L65.1,33.6L65.1,34.6L64.6,34.6L64.6,35.1L64.1,35.1L64.1,36.1L63.6,36.1L63.6,36.6L63.1,36.6z" stroke="none"/><path d="M99,52.4L99,52.6L98.6,52.6L98.6,53.1L98.1,53.1L98.1,53.6L96.1,53.6L96.1,54.6L94.1,54.6L94.1,55.1L93.6,55.1L93.6,56.6L92.6,56.6L92.6,57.1L91.5,57.1L91.5,56.9L92.4,56.9L92.4,56.4L93.4,56.4L93.4,54.9L93.9,54.9L93.9,54.4L95.9,54.4L95.9,53.4L97.9,53.4L97.9,52.9L98.4,52.9L98.4,52.4z" stroke="none"/><path d="M34.4,55.5L34.6,55.5L34.6,56.6L32.4,56.6L32.4,56.1L31.9,56.1L31.9,46.9L32.9,46.9L32.9,46.5L33.1,46.5L33.1,47.1L32.1,47.1L32.1,55.9L32.6,55.9L32.6,56.4L34.4,56.4z" stroke="none"/><path d="M36,34.6L36,34.4L36.4,34.4L36.4,33.9L38.4,33.9L38.4,33.4L39.6,33.4L39.6,33.9L40.1,33.9L40.1,34.4L40.6,34.4L40.6,34.9L41.1,34.9L41.1,35.4L43.9,35.4L43.9,34.4L44.4,34.4L44.4,33.4L44.9,33.4L44.9,33L45.1,33L45.1,33.6L44.6,33.6L44.6,34.6L44.1,34.6L44.1,35.6L40.9,35.6L40.9,35.1L40.4,35.1L40.4,34.6L39.9,34.6L39.9,34.1L39.4,34.1L39.4,33.6L38.6,33.6L38.6,34.1L36.6,34.1L36.6,34.6z" stroke="none"/><path d="M93.1,69L92.9,69L92.9,66.6L86.1,66.6L86.1,69.9L86.6,69.9L86.6,70.4L87.1,70.4L87.1,70.9L87.6,70.9L87.6,71.4L90.6,71.4L90.6,71.9L91.1,71.9L91.1,72.4L91.6,72.4L91.6,73.4L92.1,73.4L92.1,73.9L92.6,73.9L92.6,74.4L93.6,74.4L93.6,75.9L94.1,75.9L94.1,76.9L94.6,76.9L94.6,78L94.4,78L94.4,77.1L93.9,77.1L93.9,76.1L93.4,76.1L93.4,74.6L92.4,74.6L92.4,74.1L91.9,74.1L91.9,73.6L91.4,73.6L91.4,72.6L90.9,72.6L90.9,72.1L90.4,72.1L90.4,71.6L87.4,71.6L87.4,71.1L86.9,71.1L86.9,70.6L86.4,70.6L86.4,70.1L85.9,70.1L85.9,66.4L93.1,66.4z" stroke="none"/><path d="M16.5,45.1L16.5,44.9L19.6,44.9L19.6,45.4L22.1,45.4L22.1,46.4L23.1,46.4L23.1,47.4L25.1,47.4L25.1,47.9L25.5,47.9L25.5,48.1L24.9,48.1L24.9,47.6L22.9,47.6L22.9,46.6L21.9,46.6L21.9,45.6L19.4,45.6L19.4,45.1z" stroke="none"/><path d="M13.4,99L13.6,99L13.6,100.1L13.1,100.1L13.1,100.6L12.6,100.6L12.6,102.1L12.1,102.1L12.1,102.6L11.1,102.6L11.1,103.1L8.4,103.1L8.4,102.6L4.4,102.6L4.4,102L4.6,102L4.6,102.4L8.6,102.4L8.6,102.9L10.9,102.9L10.9,102.4L11.9,102.4L11.9,101.9L12.4,101.9L12.4,100.4L12.9,100.4L12.9,99.9L13.4,99.9z" stroke="none"/><path d="M51.1,61.5L50.9,61.5L50.9,55.6L48.9,55.6L48.9,52.6L48,52.6L48,52.4L49.1,52.4L49.1,55.4L51.1,55.4z" stroke="none"/><path d="M33,8.9L33,9.1L28.4,9.1L28.4,8.6L27.4,8.6L27.4,8.1L26.9,8.1L26.9,7.6L26.4,7.6L26.4,6.6L25.9,6.6L25.9,3.6L25.4,3.6L25.4,3L25.6,3L25.6,3.4L26.1,3.4L26.1,6.4L26.6,6.4L26.6,7.4L27.1,7.4L27.1,7.9L27.6,7.9L27.6,8.4L28.6,8.4L28.6,8.9z" stroke="none"/><path d="M12,3.1L12,2.9L12.6,2.9L12.6,3.9L17.6,3.9L17.6,4.9L18.6,4.9L18.6,5.9L19.6,5.9L19.6,6.9L20.6,6.9L20.6,7.4L21,7.4L21,7.6L20.4,7.6L20.4,7.1L19.4,7.1L19.4,6.1L18.4,6.1L18.4,5.1L17.4,5.1L17.4,4.1L12.4,4.1L12.4,3.1z" stroke="none"/><path d="M19.4,54L19.6,54L19.6,59.4L20.6,59.4L20.6,60.9L21.6,60.9L21.6,61.4L22.6,61.4L22.6,61.9L23.6,61.9L23.6,62.9L24,62.9L24,63.1L23.4,63.1L23.4,62.1L22.4,62.1L22.4,61.6L21.4,61.6L21.4,61.1L20.4,61.1L20.4,59.6L19.4,59.6z" stroke="none"/><path d="M76.6,79.5L76.4,79.5L76.4,69L76.6,69z" stroke="none"/><path d="M4.4,22.5L4.6,22.5L4.6,22.9L5.1,22.9L5.1,23.4L6.1,23.4L6.1,23.9L6.6,23.9L6.6,25.4L7.6,25.4L7.6,25.9L8.6,25.9L8.6,26.9L9.6,26.9L9.6,30.9L10.1,30.9L10.1,32.1L9.6,32.1L9.6,32.6L6.1,32.6L6.1,33L5.9,33L5.9,32.4L9.4,32.4L9.4,31.9L9.9,31.9L9.9,31.1L9.4,31.1L9.4,27.1L8.4,27.1L8.4,26.1L7.4,26.1L7.4,25.6L6.4,25.6L6.4,24.1L5.9,24.1L5.9,23.6L4.9,23.6L4.9,23.1L4.4,23.1z" stroke="none"/><path d="M63.1,100.5L62.9,100.5L62.9,93.1L62.4,93.1L62.4,92.1L61.9,92.1L61.9,90.6L61.4,90.6L61.4,90L61.6,90L61.6,90.4L62.1,90.4L62.1,91.9L62.6,91.9L62.6,92.9L63.1,92.9z" stroke="none"/><path d="M80.9,75L81.1,75L81.1,77.1L80.6,77.1L80.6,77.6L79.1,77.6L79.1,79.6L77.6,79.6L77.6,80.1L77.1,80.1L77.1,80.6L75.9,80.6L75.9,80.1L75.4,80.1L75.4,77.4L75.9,77.4L75.9,71.1L74.9,71.1L74.9,70.6L74.4,70.6L74.4,70.1L73.4,70.1L73.4,69.1L72,69.1L72,68.9L73.6,68.9L73.6,69.9L74.6,69.9L74.6,70.4L75.1,70.4L75.1,70.9L76.1,70.9L76.1,77.6L75.6,77.6L75.6,79.9L76.1,79.9L76.1,80.4L76.9,80.4L76.9,79.9L77.4,79.9L77.4,79.4L78.9,79.4L78.9,77.4L80.4,77.4L80.4,76.9L80.9,76.9z" stroke="none"/><path d="M35.9,94.5L36.1,94.5L36.1,95.4L36.6,95.4L36.6,95.9L38.6,95.9L38.6,96.4L40.1,96.4L40.1,96.9L43.6,96.9L43.6,97.4L44.1,97.4L44.1,97.9L45.1,97.9L45.1,98.4L47.1,98.4L47.1,99.4L47.6,99.4L47.6,99.9L48.9,99.9L48.9,92.1L47.4,92.1L47.4,91.6L46.5,91.6L46.5,91.4L47.6,91.4L47.6,91.9L49.1,91.9L49.1,100.1L47.4,100.1L47.4,99.6L46.9,99.6L46.9,98.6L44.9,98.6L44.9,98.1L43.9,98.1L43.9,97.6L43.4,97.6L43.4,97.1L39.9,97.1L39.9,96.6L38.4,96.6L38.4,96.1L36.4,96.1L36.4,95.6L35.9,95.6z" stroke="none"/><path d="M30.1,69L29.9,69L29.9,66.1L29.4,66.1L29.4,63.6L28.9,63.6L28.9,60.6L28.4,60.6L28.4,59.1L27.4,59.1L27.4,58.6L27,58.6L27,58.4L27.6,58.4L27.6,58.9L28.6,58.9L28.6,60.4L29.1,60.4L29.1,63.4L29.6,63.4L29.6,65.9L30.1,65.9z" stroke="none"/><path d="M5.9,97.5L6.1,97.5L6.1,98.1L5.6,98.1L5.6,98.6L5.1,98.6L5.1,101.1L4.1,101.1L4.1,101.6L3.6,101.6L3.6,102.9L8.1,102.9L8.1,103.4L17.4,103.4L17.4,101.9L17.9,101.9L17.9,101.4L18.4,101.4L18.4,100.9L18.9,100.9L18.9,100.4L19.4,100.4L19.4,93.9L19.9,93.9L19.9,93.4L20.4,93.4L20.4,91.1L19.9,91.1L19.9,90.6L18.6,90.6L18.6,91.1L17.6,91.1L17.6,91.6L16.6,91.6L16.6,93L16.4,93L16.4,91.4L17.4,91.4L17.4,90.9L18.4,90.9L18.4,90.4L20.1,90.4L20.1,90.9L20.6,90.9L20.6,93.6L20.1,93.6L20.1,94.1L19.6,94.1L19.6,100.6L19.1,100.6L19.1,101.1L18.6,101.1L18.6,101.6L18.1,101.6L18.1,102.1L17.6,102.1L17.6,103.6L7.9,103.6L7.9,103.1L3.4,103.1L3.4,101.4L3.9,101.4L3.9,100.9L4.9,100.9L4.9,98.4L5.4,98.4L5.4,97.9L5.9,97.9z" stroke="none"/><path d="M3.1,90L2.9,90L2.9,83.4L3.4,83.4L3.4,82.9L4.9,82.9L4.9,81.9L5.4,81.9L5.4,81.4L6.9,81.4L6.9,79.9L7.4,79.9L7.4,79.5L7.6,79.5L7.6,80.1L7.1,80.1L7.1,81.6L5.6,81.6L5.6,82.1L5.1,82.1L5.1,83.1L3.6,83.1L3.6,83.6L3.1,83.6z" stroke="none"/><path d="M57,7.6L57,7.4L61.6,7.4L61.6,7.9L62.6,7.9L62.6,9.4L63.1,9.4L63.1,9.9L63.6,9.9L63.6,10.4L64.1,10.4L64.1,14.1L63.6,14.1L63.6,15.9L64.1,15.9L64.1,16.4L64.5,16.4L64.5,16.6L63.9,16.6L63.9,16.1L63.4,16.1L63.4,13.9L63.9,13.9L63.9,10.6L63.4,10.6L63.4,10.1L62.9,10.1L62.9,9.6L62.4,9.6L62.4,8.1L61.4,8.1L61.4,7.6z" stroke="none"/><path d="M46.4,45L46.6,45L46.6,45.6L44.6,45.6L44.6,46.1L41.6,46.1L41.6,46.6L41.1,46.6L41.1,47.1L40.6,47.1L40.6,49.1L38.4,49.1L38.4,48.6L37.9,48.6L37.9,38.9L38.4,38.9L38.4,38.4L38.9,38.4L38.9,36L39.1,36L39.1,38.6L38.6,38.6L38.6,39.1L38.1,39.1L38.1,48.4L38.6,48.4L38.6,48.9L40.4,48.9L40.4,46.9L40.9,46.9L40.9,46.4L41.4,46.4L41.4,45.9L44.4,45.9L44.4,45.4L46.4,45.4z" stroke="none"/><path d="M12,23.9L12,24.1L10.4,24.1L10.4,22.6L7.9,22.6L7.9,20.6L6.9,20.6L6.9,20.1L6.4,20.1L6.4,19.6L5.9,19.6L5.9,18.6L5.4,18.6L5.4,18.1L3.1,18.1L3.1,31.5L2.9,31.5L2.9,17.9L5.6,17.9L5.6,18.4L6.1,18.4L6.1,19.4L6.6,19.4L6.6,19.9L7.1,19.9L7.1,20.4L8.1,20.4L8.1,22.4L10.6,22.4L10.6,23.9z" stroke="none"/><path d="M70.6,87L70.4,87L70.4,86.6L67.4,86.6L67.4,85.6L65.4,85.6L65.4,85.1L64.9,85.1L64.9,81.1L63.4,81.1L63.4,78.6L62.9,78.6L62.9,78L63.1,78L63.1,78.4L63.6,78.4L63.6,80.9L65.1,80.9L65.1,84.9L65.6,84.9L65.6,85.4L67.6,85.4L67.6,86.4L70.6,86.4z" stroke="none"/><path d="M12,71.9L12,72.1L7.9,72.1L7.9,71.1L6.9,71.1L6.9,70.6L5.9,70.6L5.9,70.1L4.4,70.1L4.4,68.6L2.9,68.6L2.9,68.1L2.4,68.1L2.4,67.1L1.9,67.1L1.9,54.9L2.4,54.9L2.4,54.4L5.1,54.4L5.1,54.9L10.6,54.9L10.6,55.9L11.1,55.9L11.1,56.4L11.6,56.4L11.6,59.9L12,59.9L12,60.1L11.4,60.1L11.4,56.6L10.9,56.6L10.9,56.1L10.4,56.1L10.4,55.1L4.9,55.1L4.9,54.6L2.6,54.6L2.6,55.1L2.1,55.1L2.1,66.9L2.6,66.9L2.6,67.9L3.1,67.9L3.1,68.4L4.6,68.4L4.6,69.9L6.1,69.9L6.1,70.4L7.1,70.4L7.1,70.9L8.1,70.9L8.1,71.9z" stroke="none"/><path d="M79.5,31.6L79.5,31.4L86.1,31.4L86.1,31.9L86.6,31.9L86.6,32.4L90.9,32.4L90.9,27.1L90.4,27.1L90.4,26.6L89.9,26.6L89.9,25.5L90.1,25.5L90.1,26.4L90.6,26.4L90.6,26.9L91.1,26.9L91.1,32.6L86.4,32.6L86.4,32.1L85.9,32.1L85.9,31.6z" stroke="none"/><path d="M100.4,7.5L100.6,7.5L100.6,10.4L101.6,10.4L101.6,14.9L102.1,14.9L102.1,17.6L101.6,17.6L101.6,18.6L101.1,18.6L101.1,19.1L99.6,19.1L99.6,19.6L99,19.6L99,19.4L99.4,19.4L99.4,18.9L100.9,18.9L100.9,18.4L101.4,18.4L101.4,17.4L101.9,17.4L101.9,15.1L101.4,15.1L101.4,10.6L100.4,10.6z" stroke="none"/><path d="M85.4,64.5L85.6,64.5L85.6,73.9L89.1,73.9L89.1,74.4L91.1,74.4L91.1,74.9L92.1,74.9L92.1,75.4L93.1,75.4L93.1,78.4L94.1,78.4L94.1,78.9L94.9,78.9L94.9,78.4L95.4,78.4L95.4,77.4L95.9,77.4L95.9,76.9L97.9,76.9L97.9,76.4L98.4,76.4L98.4,74.4L98.9,74.4L98.9,73.9L102.4,73.9L102.4,72.9L102.9,72.9L102.9,71.1L95.9,71.1L95.9,70.5L96.1,70.5L96.1,70.9L103.1,70.9L103.1,73.1L102.6,73.1L102.6,74.1L99.1,74.1L99.1,74.6L98.6,74.6L98.6,76.6L98.1,76.6L98.1,77.1L96.1,77.1L96.1,77.6L95.6,77.6L95.6,78.6L95.1,78.6L95.1,79.1L93.9,79.1L93.9,78.6L92.9,78.6L92.9,75.6L91.9,75.6L91.9,75.1L90.9,75.1L90.9,74.6L88.9,74.6L88.9,74.1L85.4,74.1z" stroke="none"/><path d="M55.4,96L55.6,96L55.6,97.6L55.1,97.6L55.1,98.1L54.6,98.1L54.6,99.6L54.1,99.6L54.1,100.1L53.6,100.1L53.6,101.1L53.1,101.1L53.1,102.4L53.6,102.4L53.6,102.9L65.4,102.9L65.4,102.4L65.9,102.4L65.9,102L66.1,102L66.1,102.6L65.6,102.6L65.6,103.1L53.4,103.1L53.4,102.6L52.9,102.6L52.9,100.9L53.4,100.9L53.4,99.9L53.9,99.9L53.9,99.4L54.4,99.4L54.4,97.9L54.9,97.9L54.9,97.4L55.4,97.4z" stroke="none"/><path d="M19.5,46.4L19.5,46.6L8.4,46.6L8.4,45.6L7.4,45.6L7.4,45L7.6,45L7.6,45.4L8.6,45.4L8.6,46.4z" stroke="none"/><path d="M85.6,54L85.4,54L85.4,52.6L84.9,52.6L84.9,51.6L84.4,51.6L84.4,51.1L81.9,51.1L81.9,50.6L81.4,50.6L81.4,50.1L80.9,50.1L80.9,48.6L77.6,48.6L77.6,49.1L76.6,49.1L76.6,49.6L75.6,49.6L75.6,50.1L74.6,50.1L74.6,50.6L74.1,50.6L74.1,51.1L73.5,51.1L73.5,50.9L73.9,50.9L73.9,50.4L74.4,50.4L74.4,49.9L75.4,49.9L75.4,49.4L76.4,49.4L76.4,48.9L77.4,48.9L77.4,48.4L81.1,48.4L81.1,49.9L81.6,49.9L81.6,50.4L82.1,50.4L82.1,50.9L84.6,50.9L84.6,51.4L85.1,51.4L85.1,52.4L85.6,52.4z" stroke="none"/><path d="M46.5,5.9L46.5,6.1L35.6,6.1L35.6,7.6L35.1,7.6L35.1,8.6L34.6,8.6L34.6,9L34.4,9L34.4,8.4L34.9,8.4L34.9,7.4L35.4,7.4L35.4,5.9z" stroke="none"/><path d="M34.5,98.9L34.5,99.1L34.1,99.1L34.1,99.6L33.6,99.6L33.6,100.1L33.1,100.1L33.1,100.6L26.1,100.6L26.1,101.1L25.6,101.1L25.6,101.6L23.1,101.6L23.1,102.1L22.5,102.1L22.5,101.9L22.9,101.9L22.9,101.4L25.4,101.4L25.4,100.9L25.9,100.9L25.9,100.4L32.9,100.4L32.9,99.9L33.4,99.9L33.4,99.4L33.9,99.4L33.9,98.9z" stroke="none"/><path d="M22.4,57L22.6,57L22.6,58.9L23.1,58.9L23.1,59.4L23.6,59.4L23.6,60.9L24.1,60.9L24.1,61.9L24.6,61.9L24.6,62.4L25.1,62.4L25.1,67.9L25.6,67.9L25.6,68.4L26.6,68.4L26.6,68.9L27,68.9L27,69.1L26.4,69.1L26.4,68.6L25.4,68.6L25.4,68.1L24.9,68.1L24.9,62.6L24.4,62.6L24.4,62.1L23.9,62.1L23.9,61.1L23.4,61.1L23.4,59.6L22.9,59.6L22.9,59.1L22.4,59.1z" stroke="none"/><path d="M72.1,36L71.9,36L71.9,29.6L71.4,29.6L71.4,29.1L69.9,29.1L69.9,28.6L68.9,28.6L68.9,28.1L67.9,28.1L67.9,26.6L65.9,26.6L65.9,26.1L64.9,26.1L64.9,25.6L64.5,25.6L64.5,25.4L65.1,25.4L65.1,25.9L66.1,25.9L66.1,26.4L68.1,26.4L68.1,27.9L69.1,27.9L69.1,28.4L70.1,28.4L70.1,28.9L71.6,28.9L71.6,29.4L72.1,29.4z" stroke="none"/><path d="M40.5,100.4L40.5,100.6L33.6,100.6L33.6,101.1L30.6,101.1L30.6,102.1L27,102.1L27,101.9L30.4,101.9L30.4,100.9L33.4,100.9L33.4,100.4z" stroke="none"/><path d="M7.4,46.5L7.6,46.5L7.6,47.9L8.1,47.9L8.1,48.9L8.6,48.9L8.6,51.9L9.1,51.9L9.1,52.4L9.6,52.4L9.6,52.9L10.1,52.9L10.1,53.9L11.6,53.9L11.6,54.4L12.1,54.4L12.1,58.4L13.1,58.4L13.1,61.1L11.4,61.1L11.4,60.6L10.4,60.6L10.4,60L10.6,60L10.6,60.4L11.6,60.4L11.6,60.9L12.9,60.9L12.9,58.6L11.9,58.6L11.9,54.6L11.4,54.6L11.4,54.1L9.9,54.1L9.9,53.1L9.4,53.1L9.4,52.6L8.9,52.6L8.9,52.1L8.4,52.1L8.4,49.1L7.9,49.1L7.9,48.1L7.4,48.1z" stroke="none"/><path d="M40.4,78L40.6,78L40.6,79.9L41.1,79.9L41.1,80.4L41.6,80.4L41.6,80.9L42.6,80.9L42.6,81.4L44.1,81.4L44.1,81.9L45.1,81.9L45.1,82.4L46.1,82.4L46.1,84.4L47.1,84.4L47.1,84.9L47.6,84.9L47.6,86.4L48.1,86.4L48.1,86.9L49.1,86.9L49.1,89.1L48.6,89.1L48.6,89.6L46.6,89.6L46.6,90.1L45.1,90.1L45.1,91.1L43.6,91.1L43.6,91.5L43.4,91.5L43.4,90.9L44.9,90.9L44.9,89.9L46.4,89.9L46.4,89.4L48.4,89.4L48.4,88.9L48.9,88.9L48.9,87.1L47.9,87.1L47.9,86.6L47.4,86.6L47.4,85.1L46.9,85.1L46.9,84.6L45.9,84.6L45.9,82.6L44.9,82.6L44.9,82.1L43.9,82.1L43.9,81.6L42.4,81.6L42.4,81.1L41.4,81.1L41.4,80.6L40.9,80.6L40.9,80.1L40.4,80.1z" stroke="none"/><path d="M46.5,21.1L46.5,20.9L48.6,20.9L48.6,21.9L49.6,21.9L49.6,22.9L51.1,22.9L51.1,23.4L51.6,23.4L51.6,23.9L52.6,23.9L52.6,24.9L53.1,24.9L53.1,26.9L55.6,26.9L55.6,27.4L56.1,27.4L56.1,27.9L58.6,27.9L58.6,28.5L58.4,28.5L58.4,28.1L55.9,28.1L55.9,27.6L55.4,27.6L55.4,27.1L52.9,27.1L52.9,25.1L52.4,25.1L52.4,24.1L51.4,24.1L51.4,23.6L50.9,23.6L50.9,23.1L49.4,23.1L49.4,22.1L48.4,22.1L48.4,21.1z" stroke="none"/><path d="M87,31.4L87,31.6L86.4,31.6L86.4,31.1L80.4,31.1L80.4,30.6L76.1,30.6L76.1,32.6L74.4,32.6L74.4,32.1L73.9,32.1L73.9,28.9L74.4,28.9L74.4,24.9L74.9,24.9L74.9,24L75.1,24L75.1,25.1L74.6,25.1L74.6,29.1L74.1,29.1L74.1,31.9L74.6,31.9L74.6,32.4L75.9,32.4L75.9,30.4L80.6,30.4L80.6,30.9L86.6,30.9L86.6,31.4z" stroke="none"/><path d="M19.5,77.9L19.5,78.1L18.6,78.1L18.6,78.6L18.1,78.6L18.1,79.1L15.1,79.1L15.1,79.6L14.6,79.6L14.6,80.1L14.1,80.1L14.1,81.1L12.6,81.1L12.6,81.6L12.1,81.6L12.1,82.1L6.1,82.1L6.1,82.5L5.9,82.5L5.9,81.9L11.9,81.9L11.9,81.4L12.4,81.4L12.4,80.9L13.9,80.9L13.9,79.9L14.4,79.9L14.4,79.4L14.9,79.4L14.9,78.9L17.9,78.9L17.9,78.4L18.4,78.4L18.4,77.9z" stroke="none"/><path d="M13.5,3.1L13.5,2.9L18.6,2.9L18.6,3.4L20.1,3.4L20.1,3.9L20.6,3.9L20.6,5.9L22.1,5.9L22.1,6.4L22.6,6.4L22.6,7.4L25.6,7.4L25.6,7.9L26.6,7.9L26.6,8.4L27.1,8.4L27.1,9L26.9,9L26.9,8.6L26.4,8.6L26.4,8.1L25.4,8.1L25.4,7.6L22.4,7.6L22.4,6.6L21.9,6.6L21.9,6.1L20.4,6.1L20.4,4.1L19.9,4.1L19.9,3.6L18.4,3.6L18.4,3.1z" stroke="none"/><path d="M66.1,75L65.9,75L65.9,66.1L65.4,66.1L65.4,65.6L64.4,65.6L64.4,65.1L63.9,65.1L63.9,64.1L62.9,64.1L62.9,62.6L60.9,62.6L60.9,62.1L59.9,62.1L59.9,61.5L60.1,61.5L60.1,61.9L61.1,61.9L61.1,62.4L63.1,62.4L63.1,63.9L64.1,63.9L64.1,64.9L64.6,64.9L64.6,65.4L65.6,65.4L65.6,65.9L66.1,65.9z" stroke="none"/><path d="M12,92.9L12,93.1L9.6,93.1L9.6,94.1L8.1,94.1L8.1,95.1L5.6,95.1L5.6,97.1L5.1,97.1L5.1,98.1L4.6,98.1L4.6,98.6L4.1,98.6L4.1,99.6L3.6,99.6L3.6,100.1L3.1,100.1L3.1,103.4L7.1,103.4L7.1,103.9L17.9,103.9L17.9,102.9L19.4,102.9L19.4,100.9L19.9,100.9L19.9,98.9L20.4,98.9L20.4,94.4L20.9,94.4L20.9,83.6L19.9,83.6L19.9,81.4L20.9,81.4L20.9,81L21.1,81L21.1,81.6L20.1,81.6L20.1,83.4L21.1,83.4L21.1,94.6L20.6,94.6L20.6,99.1L20.1,99.1L20.1,101.1L19.6,101.1L19.6,103.1L18.1,103.1L18.1,104.1L6.9,104.1L6.9,103.6L2.9,103.6L2.9,99.9L3.4,99.9L3.4,99.4L3.9,99.4L3.9,98.4L4.4,98.4L4.4,97.9L4.9,97.9L4.9,96.9L5.4,96.9L5.4,94.9L7.9,94.9L7.9,93.9L9.4,93.9L9.4,92.9z" stroke="none"/><path d="M97.6,13.5L97.4,13.5L97.4,13.1L93.9,13.1L93.9,10.6L93.4,10.6L93.4,10.1L92.4,10.1L92.4,7.6L91.4,7.6L91.4,6.1L89.9,6.1L89.9,5.1L89.4,5.1L89.4,4.6L85.5,4.6L85.5,4.4L89.6,4.4L89.6,4.9L90.1,4.9L90.1,5.9L91.6,5.9L91.6,7.4L92.6,7.4L92.6,9.9L93.6,9.9L93.6,10.4L94.1,10.4L94.1,12.9L97.6,12.9z" stroke="none"/><path d="M9,45.1L9,44.9L9.6,44.9L9.6,45.4L10.1,45.4L10.1,45.9L14.4,45.9L14.4,44.4L15.9,44.4L15.9,43.9L22.6,43.9L22.6,44.4L24.1,44.4L24.1,46.4L26.1,46.4L26.1,46.9L26.6,46.9L26.6,49.1L16.1,49.1L16.1,49.6L14.1,49.6L14.1,61.6L9.9,61.6L9.9,60.6L8.9,60.6L8.9,60L9.1,60L9.1,60.4L10.1,60.4L10.1,61.4L13.9,61.4L13.9,49.4L15.9,49.4L15.9,48.9L26.4,48.9L26.4,47.1L25.9,47.1L25.9,46.6L23.9,46.6L23.9,44.6L22.4,44.6L22.4,44.1L16.1,44.1L16.1,44.6L14.6,44.6L14.6,46.1L9.9,46.1L9.9,45.6L9.4,45.6L9.4,45.1z" stroke="none"/><path d="M13.4,63L13.6,63L13.6,65.4L15.6,65.4L15.6,66.4L17.6,66.4L17.6,66.9L19.1,66.9L19.1,67.9L20.1,67.9L20.1,68.4L20.6,68.4L20.6,68.9L22.6,68.9L22.6,69.4L23.1,69.4L23.1,69.9L23.6,69.9L23.6,71.4L25.1,71.4L25.1,71.9L25.5,71.9L25.5,72.1L24.9,72.1L24.9,71.6L23.4,71.6L23.4,70.1L22.9,70.1L22.9,69.6L22.4,69.6L22.4,69.1L20.4,69.1L20.4,68.6L19.9,68.6L19.9,68.1L18.9,68.1L18.9,67.1L17.4,67.1L17.4,66.6L15.4,66.6L15.4,65.6L13.4,65.6z" stroke="none"/><path d="M9,40.4L9,40.6L4.4,40.6L4.4,40.1L3.9,40.1L3.9,39.6L3.4,39.6L3.4,37.9L20.6,37.9L20.6,38.4L21.1,38.4L21.1,39.4L21.6,39.4L21.6,39.9L24.1,39.9L24.1,40.5L23.9,40.5L23.9,40.1L21.4,40.1L21.4,39.6L20.9,39.6L20.9,38.6L20.4,38.6L20.4,38.1L3.6,38.1L3.6,39.4L4.1,39.4L4.1,39.9L4.6,39.9L4.6,40.4z" stroke="none"/><path d="M100.4,90L100.6,90L100.6,95.6L100.1,95.6L100.1,96.6L99.6,96.6L99.6,98.1L99.1,98.1L99.1,98.6L98.6,98.6L98.6,99.1L98.1,99.1L98.1,99.6L96.6,99.6L96.6,101.6L85.4,101.6L85.4,100.1L84.4,100.1L84.4,98.6L83.4,98.6L83.4,95.6L82.9,95.6L82.9,93.4L84.6,93.4L84.6,93.9L85.1,93.9L85.1,96.9L85.6,96.9L85.6,97.4L87,97.4L87,97.6L85.4,97.6L85.4,97.1L84.9,97.1L84.9,94.1L84.4,94.1L84.4,93.6L83.1,93.6L83.1,95.4L83.6,95.4L83.6,98.4L84.6,98.4L84.6,99.9L85.6,99.9L85.6,101.4L96.4,101.4L96.4,99.4L97.9,99.4L97.9,98.9L98.4,98.9L98.4,98.4L98.9,98.4L98.9,97.9L99.4,97.9L99.4,96.4L99.9,96.4L99.9,95.4L100.4,95.4z" stroke="none"/><path d="M55.6,25.5L55.4,25.5L55.4,23.6L53.9,23.6L53.9,21.6L52.4,21.6L52.4,21.1L49.9,21.1L49.9,20.6L49.4,20.6L49.4,20.1L46.1,20.1L46.1,20.6L45.6,20.6L45.6,22.4L49.1,22.4L49.1,23.4L50.6,23.4L50.6,23.9L51.1,23.9L51.1,24.4L51.6,24.4L51.6,24.9L52.1,24.9L52.1,27.9L55.1,27.9L55.1,28.4L56.1,28.4L56.1,28.9L56.6,28.9L56.6,30.9L66.9,30.9L66.9,30.4L68.4,30.4L68.4,29.9L70.5,29.9L70.5,30.1L68.6,30.1L68.6,30.6L67.1,30.6L67.1,31.1L56.4,31.1L56.4,29.1L55.9,29.1L55.9,28.6L54.9,28.6L54.9,28.1L51.9,28.1L51.9,25.1L51.4,25.1L51.4,24.6L50.9,24.6L50.9,24.1L50.4,24.1L50.4,23.6L48.9,23.6L48.9,22.6L45.4,22.6L45.4,20.4L45.9,20.4L45.9,19.9L49.6,19.9L49.6,20.4L50.1,20.4L50.1,20.9L52.6,20.9L52.6,21.4L54.1,21.4L54.1,23.4L55.6,23.4z" stroke="none"/><path d="M79.4,33L79.6,33L79.6,36.1L79.1,36.1L79.1,37.1L78.6,37.1L78.6,41.4L79.1,41.4L79.1,44.9L80.1,44.9L80.1,45.4L80.6,45.4L80.6,46.4L81.1,46.4L81.1,46.9L81.6,46.9L81.6,47.4L83.6,47.4L83.6,47.9L84,47.9L84,48.1L83.4,48.1L83.4,47.6L81.4,47.6L81.4,47.1L80.9,47.1L80.9,46.6L80.4,46.6L80.4,45.6L79.9,45.6L79.9,45.1L78.9,45.1L78.9,41.6L78.4,41.6L78.4,36.9L78.9,36.9L78.9,35.9L79.4,35.9z" stroke="none"/><path d="M68.9,97.5L69.1,97.5L69.1,101.9L73.9,101.9L73.9,101.4L74.4,101.4L74.4,100.9L76.6,100.9L76.6,101.4L81.4,101.4L81.4,100.4L81.9,100.4L81.9,97.9L82.4,97.9L82.4,84.4L82.9,84.4L82.9,82.9L83.4,82.9L83.4,82.1L82.9,82.1L82.9,81.6L78.1,81.6L78.1,82.1L77.6,82.1L77.6,82.6L73.5,82.6L73.5,82.4L77.4,82.4L77.4,81.9L77.9,81.9L77.9,81.4L83.1,81.4L83.1,81.9L83.6,81.9L83.6,83.1L83.1,83.1L83.1,84.6L82.6,84.6L82.6,98.1L82.1,98.1L82.1,100.6L81.6,100.6L81.6,101.6L76.4,101.6L76.4,101.1L74.6,101.1L74.6,101.6L74.1,101.6L74.1,102.1L68.9,102.1z" stroke="none"/><path d="M33,41.9L33,42.1L32.1,42.1L32.1,43.6L31.6,43.6L31.6,56.6L29.1,56.6L29.1,57.1L28.5,57.1L28.5,56.9L28.9,56.9L28.9,56.4L31.4,56.4L31.4,43.4L31.9,43.4L31.9,41.9z" stroke="none"/><path d="M34.4,15L34.6,15L34.6,28.1L34.1,28.1L34.1,28.6L33.1,28.6L33.1,29.1L32.1,29.1L32.1,29.6L30.4,29.6L30.4,27.6L29.4,27.6L29.4,27.1L27.4,27.1L27.4,26.6L23.4,26.6L23.4,26.1L22.9,26.1L22.9,25.6L22.5,25.6L22.5,25.4L23.1,25.4L23.1,25.9L23.6,25.9L23.6,26.4L27.6,26.4L27.6,26.9L29.6,26.9L29.6,27.4L30.6,27.4L30.6,29.4L31.9,29.4L31.9,28.9L32.9,28.9L32.9,28.4L33.9,28.4L33.9,27.9L34.4,27.9z" stroke="none"/><path d="M97.6,27L97.4,27L97.4,25.1L96.9,25.1L96.9,24.6L96.4,24.6L96.4,23.6L95.9,23.6L95.9,23.1L91.9,23.1L91.9,22.6L91.4,22.6L91.4,22.1L90.4,22.1L90.4,21.6L87.1,21.6L87.1,23.1L86.6,23.1L86.6,23.6L83.9,23.6L83.9,23.1L82.9,23.1L82.9,21.1L82.5,21.1L82.5,20.9L83.1,20.9L83.1,22.9L84.1,22.9L84.1,23.4L86.4,23.4L86.4,22.9L86.9,22.9L86.9,21.4L90.6,21.4L90.6,21.9L91.6,21.9L91.6,22.4L92.1,22.4L92.1,22.9L96.1,22.9L96.1,23.4L96.6,23.4L96.6,24.4L97.1,24.4L97.1,24.9L97.6,24.9z" stroke="none"/><path d="M83.9,72L84.1,72L84.1,76.6L82.6,76.6L82.6,77.1L82.1,77.1L82.1,77.6L81.1,77.6L81.1,78.1L80.6,78.1L80.6,78.6L80.1,78.6L80.1,79.1L79.6,79.1L79.6,80.1L79.1,80.1L79.1,80.6L77.6,80.6L77.6,81.1L74.9,81.1L74.9,78.6L74.4,78.6L74.4,78.1L73.4,78.1L73.4,77.6L72.9,77.6L72.9,76.6L72.4,76.6L72.4,76.1L71.9,76.1L71.9,75.6L71.4,75.6L71.4,75.1L70.4,75.1L70.4,67.1L69.4,67.1L69.4,66.1L69,66.1L69,65.9L69.6,65.9L69.6,66.9L70.6,66.9L70.6,74.9L71.6,74.9L71.6,75.4L72.1,75.4L72.1,75.9L72.6,75.9L72.6,76.4L73.1,76.4L73.1,77.4L73.6,77.4L73.6,77.9L74.6,77.9L74.6,78.4L75.1,78.4L75.1,80.9L77.4,80.9L77.4,80.4L78.9,80.4L78.9,79.9L79.4,79.9L79.4,78.9L79.9,78.9L79.9,78.4L80.4,78.4L80.4,77.9L80.9,77.9L80.9,77.4L81.9,77.4L81.9,76.9L82.4,76.9L82.4,76.4L83.9,76.4z" stroke="none"/><path d="M72.1,46.5L71.9,46.5L71.9,42.4L72.4,42.4L72.4,41.9L72.9,41.9L72.9,41.4L73.4,41.4L73.4,39.9L73.9,39.9L73.9,39.4L74.4,39.4L74.4,35.4L74.9,35.4L74.9,34.9L75.4,34.9L75.4,34.4L76.4,34.4L76.4,32.4L77.9,32.4L77.9,31.5L78.1,31.5L78.1,32.6L76.6,32.6L76.6,34.6L75.6,34.6L75.6,35.1L75.1,35.1L75.1,35.6L74.6,35.6L74.6,39.6L74.1,39.6L74.1,40.1L73.6,40.1L73.6,41.6L73.1,41.6L73.1,42.1L72.6,42.1L72.6,42.6L72.1,42.6z" stroke="none"/><path d="M52.5,58.6L52.5,58.4L54.6,58.4L54.6,58.9L55.6,58.9L55.6,59.9L56.1,59.9L56.1,61.4L57.1,61.4L57.1,61.9L57.6,61.9L57.6,62.4L58.1,62.4L58.1,62.9L58.6,62.9L58.6,63.4L59.6,63.4L59.6,65.9L60.1,65.9L60.1,66.4L60.6,66.4L60.6,67.9L61.1,67.9L61.1,70.6L60.1,70.6L60.1,71.6L56.1,71.6L56.1,72.1L54.6,72.1L54.6,72.6L54.1,72.6L54.1,73.6L53.6,73.6L53.6,74.6L53.1,74.6L53.1,75.1L52.5,75.1L52.5,74.9L52.9,74.9L52.9,74.4L53.4,74.4L53.4,73.4L53.9,73.4L53.9,72.4L54.4,72.4L54.4,71.9L55.9,71.9L55.9,71.4L59.9,71.4L59.9,70.4L60.9,70.4L60.9,68.1L60.4,68.1L60.4,66.6L59.9,66.6L59.9,66.1L59.4,66.1L59.4,63.6L58.4,63.6L58.4,63.1L57.9,63.1L57.9,62.6L57.4,62.6L57.4,62.1L56.9,62.1L56.9,61.6L55.9,61.6L55.9,60.1L55.4,60.1L55.4,59.1L54.4,59.1L54.4,58.6z" stroke="none"/><path d="M37.5,8.9L37.5,9.1L36.6,9.1L36.6,9.6L35.1,9.6L35.1,10.1L23.4,10.1L23.4,9.6L22.9,9.6L22.9,9.1L21,9.1L21,8.9L23.1,8.9L23.1,9.4L23.6,9.4L23.6,9.9L34.9,9.9L34.9,9.4L36.4,9.4L36.4,8.9z" stroke="none"/><path d="M13.5,17.9L13.5,18.1L8.9,18.1L8.9,17.1L4.1,17.1L4.1,17.6L2.6,17.6L2.6,29.6L2.1,29.6L2.1,31.9L2.6,31.9L2.6,32.4L4.6,32.4L4.6,33.4L5.6,33.4L5.6,33.9L12.1,33.9L12.1,34.5L11.9,34.5L11.9,34.1L5.4,34.1L5.4,33.6L4.4,33.6L4.4,32.6L2.4,32.6L2.4,32.1L1.9,32.1L1.9,29.4L2.4,29.4L2.4,17.4L3.9,17.4L3.9,16.9L9.1,16.9L9.1,17.9z" stroke="none"/><path d="M25.4,93L25.6,93L25.6,93.6L24.6,93.6L24.6,94.6L24.1,94.6L24.1,95.6L23.6,95.6L23.6,97.1L22.6,97.1L22.6,99.6L21.1,99.6L21.1,102.1L20.6,102.1L20.6,102.6L20.1,102.6L20.1,103.6L18.6,103.6L18.6,104.6L2.4,104.6L2.4,97.1L1.9,97.1L1.9,91.9L2.4,91.9L2.4,91.4L3.9,91.4L3.9,90.9L4.4,90.9L4.4,90.4L5.4,90.4L5.4,89.9L5.9,89.9L5.9,89.4L6.9,89.4L6.9,88.9L8.1,88.9L8.1,89.4L8.6,89.4L8.6,91.4L9,91.4L9,91.6L8.4,91.6L8.4,89.6L7.9,89.6L7.9,89.1L7.1,89.1L7.1,89.6L6.1,89.6L6.1,90.1L5.6,90.1L5.6,90.6L4.6,90.6L4.6,91.1L4.1,91.1L4.1,91.6L2.6,91.6L2.6,92.1L2.1,92.1L2.1,96.9L2.6,96.9L2.6,104.4L18.4,104.4L18.4,103.4L19.9,103.4L19.9,102.4L20.4,102.4L20.4,101.9L20.9,101.9L20.9,99.4L22.4,99.4L22.4,96.9L23.4,96.9L23.4,95.4L23.9,95.4L23.9,94.4L24.4,94.4L24.4,93.4L25.4,93.4z" stroke="none"/><path d="M28.5,12.1L28.5,11.9L32.1,11.9L32.1,12.4L32.6,12.4L32.6,12.9L33.1,12.9L33.1,13.4L34.6,13.4L34.6,13.9L35.6,13.9L35.6,20.6L35.1,20.6L35.1,28.6L34.6,28.6L34.6,30.1L23.9,30.1L23.9,29.1L23.4,29.1L23.4,28.6L22.4,28.6L22.4,28.1L21.4,28.1L21.4,27.6L20.9,27.6L20.9,27L21.1,27L21.1,27.4L21.6,27.4L21.6,27.9L22.6,27.9L22.6,28.4L23.6,28.4L23.6,28.9L24.1,28.9L24.1,29.9L34.4,29.9L34.4,28.4L34.9,28.4L34.9,20.4L35.4,20.4L35.4,14.1L34.4,14.1L34.4,13.6L32.9,13.6L32.9,13.1L32.4,13.1L32.4,12.6L31.9,12.6L31.9,12.1z" stroke="none"/><path d="M35.9,21L36.1,21L36.1,30.1L35.1,30.1L35.1,30.6L28.6,30.6L28.6,33.6L28.1,33.6L28.1,34.6L27.6,34.6L27.6,36.1L27,36.1L27,35.9L27.4,35.9L27.4,34.4L27.9,34.4L27.9,33.4L28.4,33.4L28.4,30.4L34.9,30.4L34.9,29.9L35.9,29.9z" stroke="none"/><path d="M73.5,37.4L73.5,37.6L70.6,37.6L70.6,38.1L69.6,38.1L69.6,40.6L69.1,40.6L69.1,41.1L68.6,41.1L68.6,41.6L68.1,41.6L68.1,48.1L67.6,48.1L67.6,48.6L67.1,48.6L67.1,49.1L66.6,49.1L66.6,50.1L65.6,50.1L65.6,52.1L65.1,52.1L65.1,52.6L64.5,52.6L64.5,52.4L64.9,52.4L64.9,51.9L65.4,51.9L65.4,49.9L66.4,49.9L66.4,48.9L66.9,48.9L66.9,48.4L67.4,48.4L67.4,47.9L67.9,47.9L67.9,41.4L68.4,41.4L68.4,40.9L68.9,40.9L68.9,40.4L69.4,40.4L69.4,37.9L70.4,37.9L70.4,37.4z" stroke="none"/><path d="M93.1,54L92.9,54L92.9,53.4L94.9,53.4L94.9,52.9L95.9,52.9L95.9,51.9L96.9,51.9L96.9,51.4L99.6,51.4L99.6,51.9L100.1,51.9L100.1,52.4L100.6,52.4L100.6,52.9L101.1,52.9L101.1,53.4L101.6,53.4L101.6,56.9L102.6,56.9L102.6,58.4L103.6,58.4L103.6,65.6L103.1,65.6L103.1,66.6L102.1,66.6L102.1,69L101.9,69L101.9,66.4L102.9,66.4L102.9,65.4L103.4,65.4L103.4,58.6L102.4,58.6L102.4,57.1L101.4,57.1L101.4,53.6L100.9,53.6L100.9,53.1L100.4,53.1L100.4,52.6L99.9,52.6L99.9,52.1L99.4,52.1L99.4,51.6L97.1,51.6L97.1,52.1L96.1,52.1L96.1,53.1L95.1,53.1L95.1,53.6L93.1,53.6z" stroke="none"/><path d="M17.9,25.5L18.1,25.5L18.1,27.9L20.6,27.9L20.6,28.4L21.6,28.4L21.6,29.4L22.1,29.4L22.1,29.9L23.6,29.9L23.6,35.6L14.6,35.6L14.6,36.1L14.1,36.1L14.1,37.1L8.9,37.1L8.9,36.6L7.4,36.6L7.4,36.1L6.9,36.1L6.9,35.6L6.4,35.6L6.4,35.1L5.4,35.1L5.4,34.6L4.4,34.6L4.4,34.1L3.9,34.1L3.9,33.6L2.9,33.6L2.9,33.1L1.4,33.1L1.4,16.9L3.4,16.9L3.4,15.9L4.9,15.9L4.9,15.4L5.4,15.4L5.4,13.4L5.9,13.4L5.9,12.9L6.4,12.9L6.4,12.4L6.9,12.4L6.9,10.9L7.4,10.9L7.4,10.4L7.9,10.4L7.9,9.9L11.9,9.9L11.9,9L12.1,9L12.1,10.1L8.1,10.1L8.1,10.6L7.6,10.6L7.6,11.1L7.1,11.1L7.1,12.6L6.6,12.6L6.6,13.1L6.1,13.1L6.1,13.6L5.6,13.6L5.6,15.6L5.1,15.6L5.1,16.1L3.6,16.1L3.6,17.1L1.6,17.1L1.6,32.9L3.1,32.9L3.1,33.4L4.1,33.4L4.1,33.9L4.6,33.9L4.6,34.4L5.6,34.4L5.6,34.9L6.6,34.9L6.6,35.4L7.1,35.4L7.1,35.9L7.6,35.9L7.6,36.4L9.1,36.4L9.1,36.9L13.9,36.9L13.9,35.9L14.4,35.9L14.4,35.4L23.4,35.4L23.4,30.1L21.9,30.1L21.9,29.6L21.4,29.6L21.4,28.6L20.4,28.6L20.4,28.1L17.9,28.1z" stroke="none"/><path d="M4.6,10.5L4.4,10.5L4.4,7.9L4.9,7.9L4.9,6.4L5.4,6.4L5.4,5.4L6.4,5.4L6.4,4.9L16.1,4.9L16.1,6.4L18.6,6.4L18.6,6.9L19.1,6.9L19.1,7.9L19.6,7.9L19.6,8.9L20.1,8.9L20.1,9.4L20.6,9.4L20.6,9.9L22.1,9.9L22.1,10.4L22.5,10.4L22.5,10.6L21.9,10.6L21.9,10.1L20.4,10.1L20.4,9.6L19.9,9.6L19.9,9.1L19.4,9.1L19.4,8.1L18.9,8.1L18.9,7.1L18.4,7.1L18.4,6.6L15.9,6.6L15.9,5.1L6.6,5.1L6.6,5.6L5.6,5.6L5.6,6.6L5.1,6.6L5.1,8.1L4.6,8.1z" stroke="none"/><path d="M101.9,31.5L102.1,31.5L102.1,49.5L101.9,49.5z" stroke="none"/><path d="M97.6,4.5L97.4,4.5L97.4,3.4L99.6,3.4L99.6,3.9L100.1,3.9L100.1,5.9L100.6,5.9L100.6,6.4L101.6,6.4L101.6,7.4L102.1,7.4L102.1,14.4L102.6,14.4L102.6,23.4L103.1,23.4L103.1,25.1L99.9,25.1L99.9,23.1L98.9,23.1L98.9,22.6L97.5,22.6L97.5,22.4L99.1,22.4L99.1,22.9L100.1,22.9L100.1,24.9L102.9,24.9L102.9,23.6L102.4,23.6L102.4,14.6L101.9,14.6L101.9,7.6L101.4,7.6L101.4,6.6L100.4,6.6L100.4,6.1L99.9,6.1L99.9,4.1L99.4,4.1L99.4,3.6L97.6,3.6z" stroke="none"/><path d="M73.5,10.4L73.5,10.6L72.4,10.6L72.4,9.6L71.9,9.6L71.9,9.1L71.4,9.1L71.4,8.1L70.4,8.1L70.4,7.6L68.1,7.6L68.1,8.1L67.6,8.1L67.6,12.6L67.1,12.6L67.1,13.1L66.6,13.1L66.6,24.4L68.1,24.4L68.1,25.4L68.6,25.4L68.6,27.4L71.1,27.4L71.1,27.9L72.1,27.9L72.1,28.5L71.9,28.5L71.9,28.1L70.9,28.1L70.9,27.6L68.4,27.6L68.4,25.6L67.9,25.6L67.9,24.6L66.4,24.6L66.4,12.9L66.9,12.9L66.9,12.4L67.4,12.4L67.4,7.9L67.9,7.9L67.9,7.4L70.6,7.4L70.6,7.9L71.6,7.9L71.6,8.9L72.1,8.9L72.1,9.4L72.6,9.4L72.6,10.4z" stroke="none"/><path d="M59.9,79.5L60.1,79.5L60.1,80.9L60.6,80.9L60.6,84.4L61.1,84.4L61.1,85.4L61.6,85.4L61.6,86.9L62.6,86.9L62.6,87.4L63.1,87.4L63.1,87.9L63.6,87.9L63.6,89.4L64.1,89.4L64.1,90.9L64.6,90.9L64.6,91.9L65.1,91.9L65.1,92.4L65.6,92.4L65.6,93.9L67.6,93.9L67.6,96L67.4,96L67.4,94.1L65.4,94.1L65.4,92.6L64.9,92.6L64.9,92.1L64.4,92.1L64.4,91.1L63.9,91.1L63.9,89.6L63.4,89.6L63.4,88.1L62.9,88.1L62.9,87.6L62.4,87.6L62.4,87.1L61.4,87.1L61.4,85.6L60.9,85.6L60.9,84.6L60.4,84.6L60.4,81.1L59.9,81.1z" stroke="none"/><path d="M49.6,4.5L49.4,4.5L49.4,3.9L49.9,3.9L49.9,3.4L58.1,3.4L58.1,3.9L59.1,3.9L59.1,4.4L60.6,4.4L60.6,4.9L61.1,4.9L61.1,5.4L61.6,5.4L61.6,6.9L62.6,6.9L62.6,7.4L63.1,7.4L63.1,8.4L64.1,8.4L64.1,8.9L64.6,8.9L64.6,15L64.4,15L64.4,9.1L63.9,9.1L63.9,8.6L62.9,8.6L62.9,7.6L62.4,7.6L62.4,7.1L61.4,7.1L61.4,5.6L60.9,5.6L60.9,5.1L60.4,5.1L60.4,4.6L58.9,4.6L58.9,4.1L57.9,4.1L57.9,3.6L50.1,3.6L50.1,4.1L49.6,4.1z" stroke="none"/><path d="M54.1,67.5L53.9,67.5L53.9,64.6L50.4,64.6L50.4,62.1L49.9,62.1L49.9,60.1L49.4,60.1L49.4,59.1L48.4,59.1L48.4,58.6L44.9,58.6L44.9,58.1L40.4,58.1L40.4,57.6L39.4,57.6L39.4,57.1L39,57.1L39,56.9L39.6,56.9L39.6,57.4L40.6,57.4L40.6,57.9L45.1,57.9L45.1,58.4L48.6,58.4L48.6,58.9L49.6,58.9L49.6,59.9L50.1,59.9L50.1,61.9L50.6,61.9L50.6,64.4L54.1,64.4z" stroke="none"/><path d="M58.4,34.5L58.6,34.5L58.6,38.4L59.6,38.4L59.6,39.9L63.4,39.9L63.4,39.4L63.9,39.4L63.9,38.4L64.4,38.4L64.4,37.9L65.9,37.9L65.9,37.4L69.9,37.4L69.9,36.9L72.4,36.9L72.4,36.4L72.9,36.4L72.9,27.6L71.4,27.6L71.4,27.1L70.4,27.1L70.4,26.6L69.9,26.6L69.9,26.1L69.4,26.1L69.4,19.6L69,19.6L69,19.4L69.6,19.4L69.6,25.9L70.1,25.9L70.1,26.4L70.6,26.4L70.6,26.9L71.6,26.9L71.6,27.4L73.1,27.4L73.1,36.6L72.6,36.6L72.6,37.1L70.1,37.1L70.1,37.6L66.1,37.6L66.1,38.1L64.6,38.1L64.6,38.6L64.1,38.6L64.1,39.6L63.6,39.6L63.6,40.1L59.4,40.1L59.4,38.6L58.4,38.6z" stroke="none"/><path d="M67.4,3L67.6,3L67.6,7.6L67.1,7.6L67.1,10.1L66.6,10.1L66.6,11.1L66.1,11.1L66.1,20.6L64.6,20.6L64.6,21.1L63,21.1L63,20.9L64.4,20.9L64.4,20.4L65.9,20.4L65.9,10.9L66.4,10.9L66.4,9.9L66.9,9.9L66.9,7.4L67.4,7.4z" stroke="none"/><path d="M50.9,93L51.1,93L51.1,101.9L51.6,101.9L51.6,102.4L52.1,102.4L52.1,102.9L53.1,102.9L53.1,103.4L65.9,103.4L65.9,102.9L66.9,102.9L66.9,101.9L67.5,101.9L67.5,102.1L67.1,102.1L67.1,103.1L66.1,103.1L66.1,103.6L52.9,103.6L52.9,103.1L51.9,103.1L51.9,102.6L51.4,102.6L51.4,102.1L50.9,102.1z" stroke="none"/><path d="M36,58.4L36,58.6L28.4,58.6L28.4,58.1L27.9,58.1L27.9,57.6L27.4,57.6L27.4,42.6L26.9,42.6L26.9,42L27.1,42L27.1,42.4L27.6,42.4L27.6,57.4L28.1,57.4L28.1,57.9L28.6,57.9L28.6,58.4z" stroke="none"/><path d="M58.5,30.1L58.5,29.9L58.9,29.9L58.9,28.9L59.4,28.9L59.4,28.4L59.9,28.4L59.9,27.4L60.4,27.4L60.4,26.9L60.9,26.9L60.9,25.9L61.9,25.9L61.9,18.9L62.4,18.9L62.4,18.4L62.9,18.4L62.9,17.4L65.4,17.4L65.4,5.1L64.9,5.1L64.9,4.6L62.9,4.6L62.9,4.1L60.4,4.1L60.4,3.6L59.9,3.6L59.9,3.1L49.1,3.1L49.1,3.6L48.6,3.6L48.6,9.9L49.6,9.9L49.6,10.9L52.1,10.9L52.1,11.4L52.6,11.4L52.6,12L52.4,12L52.4,11.6L51.9,11.6L51.9,11.1L49.4,11.1L49.4,10.1L48.4,10.1L48.4,3.4L48.9,3.4L48.9,2.9L60.1,2.9L60.1,3.4L60.6,3.4L60.6,3.9L63.1,3.9L63.1,4.4L65.1,4.4L65.1,4.9L65.6,4.9L65.6,17.6L63.1,17.6L63.1,18.6L62.6,18.6L62.6,19.1L62.1,19.1L62.1,26.1L61.1,26.1L61.1,27.1L60.6,27.1L60.6,27.6L60.1,27.6L60.1,28.6L59.6,28.6L59.6,29.1L59.1,29.1L59.1,30.1z" stroke="none"/><path d="M6,85.6L6,85.4L10.9,85.4L10.9,82.9L13.9,82.9L13.9,82.4L14.4,82.4L14.4,81.9L15.9,81.9L15.9,81.4L16.4,81.4L16.4,80.9L16.9,80.9L16.9,80.4L17.4,80.4L17.4,79.9L19.4,79.9L19.4,79.4L21.4,79.4L21.4,78.4L23.1,78.4L23.1,78.9L24.9,78.9L24.9,73.6L22.4,73.6L22.4,72.6L21.9,72.6L21.9,71.6L19.4,71.6L19.4,71.1L18.4,71.1L18.4,70.6L18,70.6L18,70.4L18.6,70.4L18.6,70.9L19.6,70.9L19.6,71.4L22.1,71.4L22.1,72.4L22.6,72.4L22.6,73.4L25.1,73.4L25.1,79.1L22.9,79.1L22.9,78.6L21.6,78.6L21.6,79.6L19.6,79.6L19.6,80.1L17.6,80.1L17.6,80.6L17.1,80.6L17.1,81.1L16.6,81.1L16.6,81.6L16.1,81.6L16.1,82.1L14.6,82.1L14.6,82.6L14.1,82.6L14.1,83.1L11.1,83.1L11.1,85.6z" stroke="none"/><path d="M9,66.1L9,65.9L15.1,65.9L15.1,66.9L17.1,66.9L17.1,67.4L18.1,67.4L18.1,67.9L18.6,67.9L18.6,68.4L19.6,68.4L19.6,68.9L20.1,68.9L20.1,69.4L21.1,69.4L21.1,70.4L22.6,70.4L22.6,71.9L23.6,71.9L23.6,72.4L25.1,72.4L25.1,72.9L25.9,72.9L25.9,72.4L26.9,72.4L26.9,71.4L27.4,71.4L27.4,69.4L27.9,69.4L27.9,60.6L26.9,60.6L26.9,60.1L25.9,60.1L25.9,54.6L24.9,54.6L24.9,54.1L24,54.1L24,53.9L25.1,53.9L25.1,54.4L26.1,54.4L26.1,59.9L27.1,59.9L27.1,60.4L28.1,60.4L28.1,69.6L27.6,69.6L27.6,71.6L27.1,71.6L27.1,72.6L26.1,72.6L26.1,73.1L24.9,73.1L24.9,72.6L23.4,72.6L23.4,72.1L22.4,72.1L22.4,70.6L20.9,70.6L20.9,69.6L19.9,69.6L19.9,69.1L19.4,69.1L19.4,68.6L18.4,68.6L18.4,68.1L17.9,68.1L17.9,67.6L16.9,67.6L16.9,67.1L14.9,67.1L14.9,66.1z" stroke="none"/><path d="M75,101.9L75,102.1L74.6,102.1L74.6,102.6L68.4,102.6L68.4,101.1L63.6,101.1L63.6,101.6L62.4,101.6L62.4,101.1L61.9,101.1L61.9,93.1L61.4,93.1L61.4,91.1L59.9,91.1L59.9,90L60.1,90L60.1,90.9L61.6,90.9L61.6,92.9L62.1,92.9L62.1,100.9L62.6,100.9L62.6,101.4L63.4,101.4L63.4,100.9L68.6,100.9L68.6,102.4L74.4,102.4L74.4,101.9z" stroke="none"/><path d="M4.6,52.5L4.4,52.5L4.4,52.1L3.9,52.1L3.9,51.6L3.4,51.6L3.4,40.1L2.9,40.1L2.9,37.4L27.4,37.4L27.4,36.9L28.4,36.9L28.4,36.4L28.9,36.4L28.9,35.4L29.4,35.4L29.4,34.9L30.6,34.9L30.6,35.4L31.1,35.4L31.1,38.6L29.6,38.6L29.6,39.1L29.1,39.1L29.1,39.6L28.6,39.6L28.6,40.1L28.1,40.1L28.1,40.6L27.1,40.6L27.1,41.1L26.6,41.1L26.6,41.6L26.1,41.6L26.1,44.9L27.1,44.9L27.1,50.6L26.1,50.6L26.1,51.1L25.1,51.1L25.1,51.6L24.6,51.6L24.6,52.1L24.1,52.1L24.1,52.6L23.6,52.6L23.6,53.6L22.1,53.6L22.1,56.6L21.6,56.6L21.6,59.4L22.1,59.4L22.1,59.9L22.5,59.9L22.5,60.1L21.9,60.1L21.9,59.6L21.4,59.6L21.4,56.4L21.9,56.4L21.9,53.4L23.4,53.4L23.4,52.4L23.9,52.4L23.9,51.9L24.4,51.9L24.4,51.4L24.9,51.4L24.9,50.9L25.9,50.9L25.9,50.4L26.9,50.4L26.9,45.1L25.9,45.1L25.9,41.4L26.4,41.4L26.4,40.9L26.9,40.9L26.9,40.4L27.9,40.4L27.9,39.9L28.4,39.9L28.4,39.4L28.9,39.4L28.9,38.9L29.4,38.9L29.4,38.4L30.9,38.4L30.9,35.6L30.4,35.6L30.4,35.1L29.6,35.1L29.6,35.6L29.1,35.6L29.1,36.6L28.6,36.6L28.6,37.1L27.6,37.1L27.6,37.6L3.1,37.6L3.1,39.9L3.6,39.9L3.6,51.4L4.1,51.4L4.1,51.9L4.6,51.9z" stroke="none"/><path d="M52.4,22.5L52.6,22.5L52.6,22.9L53.1,22.9L53.1,24.4L53.6,24.4L53.6,25.9L55.1,25.9L55.1,26.4L55.9,26.4L55.9,25.9L56.4,25.9L56.4,22.1L55.9,22.1L55.9,21.6L54.9,21.6L54.9,21.1L52.9,21.1L52.9,20.6L50.9,20.6L50.9,20.1L50.4,20.1L50.4,19.6L45.6,19.6L45.6,20.1L45.1,20.1L45.1,24.1L44.1,24.1L44.1,24.6L43.1,24.6L43.1,25.1L42.6,25.1L42.6,25.6L40.1,25.6L40.1,27.1L39.6,27.1L39.6,27.6L39.1,27.6L39.1,28.6L38.6,28.6L38.6,29.1L37.1,29.1L37.1,29.6L36.6,29.6L36.6,32.1L36.1,32.1L36.1,33.1L35.6,33.1L35.6,34.1L35.1,34.1L35.1,35.4L36.6,35.4L36.6,36.4L37.1,36.4L37.1,48.9L38.1,48.9L38.1,49.4L45.4,49.4L45.4,48.4L45.9,48.4L45.9,47.4L47.9,47.4L47.9,46.4L48.4,46.4L48.4,43.9L49.9,43.9L49.9,42.4L50.9,42.4L50.9,42L51.1,42L51.1,42.6L50.1,42.6L50.1,44.1L48.6,44.1L48.6,46.6L48.1,46.6L48.1,47.6L46.1,47.6L46.1,48.6L45.6,48.6L45.6,49.6L37.9,49.6L37.9,49.1L36.9,49.1L36.9,36.6L36.4,36.6L36.4,35.6L34.9,35.6L34.9,33.9L35.4,33.9L35.4,32.9L35.9,32.9L35.9,31.9L36.4,31.9L36.4,29.4L36.9,29.4L36.9,28.9L38.4,28.9L38.4,28.4L38.9,28.4L38.9,27.4L39.4,27.4L39.4,26.9L39.9,26.9L39.9,25.4L42.4,25.4L42.4,24.9L42.9,24.9L42.9,24.4L43.9,24.4L43.9,23.9L44.9,23.9L44.9,19.9L45.4,19.9L45.4,19.4L50.6,19.4L50.6,19.9L51.1,19.9L51.1,20.4L53.1,20.4L53.1,20.9L55.1,20.9L55.1,21.4L56.1,21.4L56.1,21.9L56.6,21.9L56.6,26.1L56.1,26.1L56.1,26.6L54.9,26.6L54.9,26.1L53.4,26.1L53.4,24.6L52.9,24.6L52.9,23.1L52.4,23.1z" stroke="none"/><path d="M98.9,60L99.1,60L99.1,64.4L101.1,64.4L101.1,65.4L101.6,65.4L101.6,68.6L101.1,68.6L101.1,69.9L103.1,69.9L103.1,70.4L103.6,70.4L103.6,78.6L103.1,78.6L103.1,79.1L100.6,79.1L100.6,79.5L100.4,79.5L100.4,78.9L102.9,78.9L102.9,78.4L103.4,78.4L103.4,70.6L102.9,70.6L102.9,70.1L100.9,70.1L100.9,68.4L101.4,68.4L101.4,65.6L100.9,65.6L100.9,64.6L98.9,64.6z" stroke="none"/><path d="M34.6,6L34.4,6L34.4,5.4L45.9,5.4L45.9,4.9L47.6,4.9L47.6,6.6L47.1,6.6L47.1,7.1L40.1,7.1L40.1,8.1L39.6,8.1L39.6,9.1L38.6,9.1L38.6,9.6L38.1,9.6L38.1,10.1L35.6,10.1L35.6,10.6L24.1,10.6L24.1,11.6L21.9,11.6L21.9,11.1L20.9,11.1L20.9,10.6L19.4,10.6L19.4,9.6L17.4,9.6L17.4,8.6L15.4,8.6L15.4,7.6L15,7.6L15,7.4L15.6,7.4L15.6,8.4L17.6,8.4L17.6,9.4L19.6,9.4L19.6,10.4L21.1,10.4L21.1,10.9L22.1,10.9L22.1,11.4L23.9,11.4L23.9,10.4L35.4,10.4L35.4,9.9L37.9,9.9L37.9,9.4L38.4,9.4L38.4,8.9L39.4,8.9L39.4,7.9L39.9,7.9L39.9,6.9L46.9,6.9L46.9,6.4L47.4,6.4L47.4,5.1L46.1,5.1L46.1,5.6L34.6,5.6z" stroke="none"/><path d="M97.5,24.1L97.5,23.9L98.6,23.9L98.6,24.9L99.6,24.9L99.6,25.4L103.4,25.4L103.4,7.6L102.9,7.6L102.9,6.1L102.4,6.1L102.4,5.6L101.4,5.6L101.4,4.1L100.4,4.1L100.4,3.6L99.9,3.6L99.9,3.1L94.1,3.1L94.1,4.1L93.1,4.1L93.1,4.5L92.9,4.5L92.9,3.9L93.9,3.9L93.9,2.9L100.1,2.9L100.1,3.4L100.6,3.4L100.6,3.9L101.6,3.9L101.6,5.4L102.6,5.4L102.6,5.9L103.1,5.9L103.1,7.4L103.6,7.4L103.6,25.6L99.4,25.6L99.4,25.1L98.4,25.1L98.4,24.1z" stroke="none"/><path d="M4.6,96L4.4,96L4.4,95.4L4.9,95.4L4.9,94.4L7.4,94.4L7.4,93.4L8.9,93.4L8.9,92.4L9.4,92.4L9.4,91.9L9.9,91.9L9.9,89.6L9.4,89.6L9.4,88.6L6.6,88.6L6.6,89.1L5.6,89.1L5.6,89.6L5.1,89.6L5.1,90.1L4.1,90.1L4.1,90.6L3.6,90.6L3.6,91.1L2.4,91.1L2.4,90.6L1.9,90.6L1.9,70.1L1.4,70.1L1.4,33.6L0.9,33.6L0.9,5.9L1.4,5.9L1.4,5.4L3.4,5.4L3.4,4.9L5.9,4.9L5.9,4.4L8.4,4.4L8.4,3.4L10.4,3.4L10.4,2.4L10.9,2.4L10.9,1.9L101.1,1.9L101.1,2.4L102.1,2.4L102.1,3.4L102.6,3.4L102.6,4.9L103.1,4.9L103.1,5.4L103.6,5.4L103.6,6.4L104.1,6.4L104.1,98.6L103.6,98.6L103.6,99.1L101.1,99.1L101.1,99.6L100.6,99.6L100.6,100.1L99.6,100.1L99.6,101.1L98.1,101.1L98.1,101.6L97.1,101.6L97.1,102.1L76.1,102.1L76.1,102.6L75.6,102.6L75.6,103.1L68.6,103.1L68.6,103.6L66.6,103.6L66.6,104.1L21.9,104.1L21.9,102.6L21.4,102.6L21.4,101.4L21.9,101.4L21.9,100.9L23.9,100.9L23.9,100.5L24.1,100.5L24.1,101.1L22.1,101.1L22.1,101.6L21.6,101.6L21.6,102.4L22.1,102.4L22.1,103.9L66.4,103.9L66.4,103.4L68.4,103.4L68.4,102.9L75.4,102.9L75.4,102.4L75.9,102.4L75.9,101.9L96.9,101.9L96.9,101.4L97.9,101.4L97.9,100.9L99.4,100.9L99.4,99.9L100.4,99.9L100.4,99.4L100.9,99.4L100.9,98.9L103.4,98.9L103.4,98.4L103.9,98.4L103.9,6.6L103.4,6.6L103.4,5.6L102.9,5.6L102.9,5.1L102.4,5.1L102.4,3.6L101.9,3.6L101.9,2.6L100.9,2.6L100.9,2.1L11.1,2.1L11.1,2.6L10.6,2.6L10.6,3.6L8.6,3.6L8.6,4.6L6.1,4.6L6.1,5.1L3.6,5.1L3.6,5.6L1.6,5.6L1.6,6.1L1.1,6.1L1.1,33.4L1.6,33.4L1.6,69.9L2.1,69.9L2.1,90.4L2.6,90.4L2.6,90.9L3.4,90.9L3.4,90.4L3.9,90.4L3.9,89.9L4.9,89.9L4.9,89.4L5.4,89.4L5.4,88.9L6.4,88.9L6.4,88.4L9.6,88.4L9.6,89.4L10.1,89.4L10.1,92.1L9.6,92.1L9.6,92.6L9.1,92.6L9.1,93.6L7.6,93.6L7.6,94.6L5.1,94.6L5.1,95.6L4.6,95.6z" stroke="none"/><path d="M30.1,70.5L29.9,70.5L29.9,69.9L30.4,69.9L30.4,69.4L30.9,69.4L30.9,67.9L31.9,67.9L31.9,67.4L32.9,67.4L32.9,66.9L33.4,66.9L33.4,66.4L33.9,66.4L33.9,63.9L34.4,63.9L34.4,60.4L35.9,60.4L35.9,59.4L36.9,59.4L36.9,56.4L38.4,56.4L38.4,55.9L43.1,55.9L43.1,56.4L43.9,56.4L43.9,55.9L44.4,55.9L44.4,54.1L43.9,54.1L43.9,53.6L43.4,53.6L43.4,53.1L41.9,53.1L41.9,52.6L41.4,52.6L41.4,52.1L40.9,52.1L40.9,51.6L35.4,51.6L35.4,51.1L34.5,51.1L34.5,50.9L35.6,50.9L35.6,51.4L41.1,51.4L41.1,51.9L41.6,51.9L41.6,52.4L42.1,52.4L42.1,52.9L43.6,52.9L43.6,53.4L44.1,53.4L44.1,53.9L44.6,53.9L44.6,56.1L44.1,56.1L44.1,56.6L42.9,56.6L42.9,56.1L38.6,56.1L38.6,56.6L37.1,56.6L37.1,59.6L36.1,59.6L36.1,60.6L34.6,60.6L34.6,64.1L34.1,64.1L34.1,66.6L33.6,66.6L33.6,67.1L33.1,67.1L33.1,67.6L32.1,67.6L32.1,68.1L31.1,68.1L31.1,69.6L30.6,69.6L30.6,70.1L30.1,70.1z" stroke="none"/><path d="M69.1,96L68.9,96L68.9,95.1L68.4,95.1L68.4,94.1L67.9,94.1L67.9,91.6L65.9,91.6L65.9,90.6L65.4,90.6L65.4,90.1L64.9,90.1L64.9,88.1L64.4,88.1L64.4,87.6L63.9,87.6L63.9,87.1L63.4,87.1L63.4,86.6L62.4,86.6L62.4,84.6L61.9,84.6L61.9,80.1L61.4,80.1L61.4,79.6L60.9,79.6L60.9,78.6L59.9,78.6L59.9,78L60.1,78L60.1,78.4L61.1,78.4L61.1,79.4L61.6,79.4L61.6,79.9L62.1,79.9L62.1,84.4L62.6,84.4L62.6,86.4L63.6,86.4L63.6,86.9L64.1,86.9L64.1,87.4L64.6,87.4L64.6,87.9L65.1,87.9L65.1,89.9L65.6,89.9L65.6,90.4L66.1,90.4L66.1,91.4L68.1,91.4L68.1,93.9L68.6,93.9L68.6,94.9L69.1,94.9z" stroke="none"/><path d="M77.9,43.5L78.1,43.5L78.1,46.9L78.6,46.9L78.6,47.4L80.1,47.4L80.1,47.9L81.6,47.9L81.6,48.9L83.6,48.9L83.6,49.4L85.1,49.4L85.1,50.4L86.6,50.4L86.6,55.1L84.9,55.1L84.9,54.6L84.4,54.6L84.4,54.1L82.9,54.1L82.9,53.6L81.4,53.6L81.4,53.1L80.6,53.1L80.6,53.6L80.1,53.6L80.1,60.4L81.6,60.4L81.6,61.4L82.1,61.4L82.1,61.9L83.1,61.9L83.1,62.4L84.1,62.4L84.1,63L83.9,63L83.9,62.6L82.9,62.6L82.9,62.1L81.9,62.1L81.9,61.6L81.4,61.6L81.4,60.6L79.9,60.6L79.9,53.4L80.4,53.4L80.4,52.9L81.6,52.9L81.6,53.4L83.1,53.4L83.1,53.9L84.6,53.9L84.6,54.4L85.1,54.4L85.1,54.9L86.4,54.9L86.4,50.6L84.9,50.6L84.9,49.6L83.4,49.6L83.4,49.1L81.4,49.1L81.4,48.1L79.9,48.1L79.9,47.6L78.4,47.6L78.4,47.1L77.9,47.1z" stroke="none"/><path d="M81.1,6L80.9,6L80.9,4.9L83.4,4.9L83.4,4.4L84.4,4.4L84.4,3.4L91.6,3.4L91.6,5.4L96.1,5.4L96.1,7.4L97.1,7.4L97.1,7.9L98.1,7.9L98.1,10.4L99.6,10.4L99.6,11.4L100.1,11.4L100.1,11.9L100.5,11.9L100.5,12.1L99.9,12.1L99.9,11.6L99.4,11.6L99.4,10.6L97.9,10.6L97.9,8.1L96.9,8.1L96.9,7.6L95.9,7.6L95.9,5.6L91.4,5.6L91.4,3.6L84.6,3.6L84.6,4.6L83.6,4.6L83.6,5.1L81.1,5.1z" stroke="none"/><path d="M63.1,67.5L62.9,67.5L62.9,64.6L61.9,64.6L61.9,63.6L60.9,63.6L60.9,63.1L60.4,63.1L60.4,62.6L58.9,62.6L58.9,59.6L57.9,59.6L57.9,59.1L57.4,59.1L57.4,58.1L53.9,58.1L53.9,57.1L52.9,57.1L52.9,55.6L52.4,55.6L52.4,54.6L51.9,54.6L51.9,53.6L51.4,53.6L51.4,52.6L49.9,52.6L49.9,52.1L48.4,52.1L48.4,51.6L47.6,51.6L47.6,52.1L47.1,52.1L47.1,52.6L46.6,52.6L46.6,54L46.4,54L46.4,52.4L46.9,52.4L46.9,51.9L47.4,51.9L47.4,51.4L48.6,51.4L48.6,51.9L50.1,51.9L50.1,52.4L51.6,52.4L51.6,53.4L52.1,53.4L52.1,54.4L52.6,54.4L52.6,55.4L53.1,55.4L53.1,56.9L54.1,56.9L54.1,57.9L57.6,57.9L57.6,58.9L58.1,58.9L58.1,59.4L59.1,59.4L59.1,62.4L60.6,62.4L60.6,62.9L61.1,62.9L61.1,63.4L62.1,63.4L62.1,64.4L63.1,64.4z" stroke="none"/><path d="M28.5,6.1L28.5,5.9L29.9,5.9L29.9,5.4L32.4,5.4L32.4,4.9L44.9,4.9L44.9,4.4L48.1,4.4L48.1,7.1L47.6,7.1L47.6,7.6L45.6,7.6L45.6,9.6L44.1,9.6L44.1,10.1L40.1,10.1L40.1,10.6L36.1,10.6L36.1,11.1L24.6,11.1L24.6,12.1L20.9,12.1L20.9,11.6L20.4,11.6L20.4,11.1L17.9,11.1L17.9,10.1L15.4,10.1L15.4,9.6L14.6,9.6L14.6,10.1L14.1,10.1L14.1,10.6L13.6,10.6L13.6,11.1L13.1,11.1L13.1,12.1L12.1,12.1L12.1,12.6L11.6,12.6L11.6,13.1L10.1,13.1L10.1,14.1L9.6,14.1L9.6,15.1L9,15.1L9,14.9L9.4,14.9L9.4,13.9L9.9,13.9L9.9,12.9L11.4,12.9L11.4,12.4L11.9,12.4L11.9,11.9L12.9,11.9L12.9,10.9L13.4,10.9L13.4,10.4L13.9,10.4L13.9,9.9L14.4,9.9L14.4,9.4L15.6,9.4L15.6,9.9L18.1,9.9L18.1,10.9L20.6,10.9L20.6,11.4L21.1,11.4L21.1,11.9L24.4,11.9L24.4,10.9L35.9,10.9L35.9,10.4L39.9,10.4L39.9,9.9L43.9,9.9L43.9,9.4L45.4,9.4L45.4,7.4L47.4,7.4L47.4,6.9L47.9,6.9L47.9,4.6L45.1,4.6L45.1,5.1L32.6,5.1L32.6,5.6L30.1,5.6L30.1,6.1z" stroke="none"/><path d="M83.9,66L84.1,66L84.1,69.4L84.6,69.4L84.6,71.4L85.1,71.4L85.1,74.4L87.6,74.4L87.6,74.9L90.1,74.9L90.1,75.4L90.6,75.4L90.6,75.9L91.1,75.9L91.1,76.4L91.6,76.4L91.6,77.4L92.1,77.4L92.1,78.4L92.6,78.4L92.6,79.4L98.9,79.4L98.9,78.4L101.4,78.4L101.4,77.9L102,77.9L102,78.1L101.6,78.1L101.6,78.6L99.1,78.6L99.1,79.6L92.4,79.6L92.4,78.6L91.9,78.6L91.9,77.6L91.4,77.6L91.4,76.6L90.9,76.6L90.9,76.1L90.4,76.1L90.4,75.6L89.9,75.6L89.9,75.1L87.4,75.1L87.4,74.6L84.9,74.6L84.9,71.6L84.4,71.6L84.4,69.6L83.9,69.6z" stroke="none"/></svg>