<svg version="1.1" width="30" height="15" xmlns="http://www.w3.org/2000/svg"><path d="M16.7,7.3L16.7,8.8L18,8.8L18,9.2L16.3,9.2L16.3,7.7L13.7,7.7L13.7,8.8L15.2,8.8L15.2,10.5L14.8,10.5L14.8,9.2L13.3,9.2L13.3,7.7L7.5,7.7L7.5,7.3z" stroke="none"/><path d="M13.3,4.3L13.3,1.3L18.2,1.3L18.2,2.8L21.2,2.8L21.2,4.5L20.8,4.5L20.8,3.2L17.8,3.2L17.8,1.7L13.7,1.7L13.7,4.3L14.8,4.3L14.8,2.8L16.5,2.8L16.5,3.2L15.2,3.2L15.2,4.7L13.7,4.7L13.7,5.8L16.5,5.8L16.5,6.2L13.3,6.2L13.3,4.7L9.2,4.7L9.2,6L8.8,6L8.8,4.3z" stroke="none"/><path d="M19.5,6.2L19.5,5.8L21,5.8L21,6.2z" stroke="none"/><path d="M19.5,7.3L19.5,7.7L17.8,7.7L17.8,6L18.2,6L18.2,7.3z" stroke="none"/><path d="M26.8,3L27.2,3L27.2,6L26.8,6z" stroke="none"/><path d="M5.8,6L6.2,6L6.2,10.5L5.8,10.5z" stroke="none"/><path d="M25.5,8.8L25.5,9.2L23.8,9.2L23.8,4.5L24.2,4.5L24.2,8.8z" stroke="none"/><path d="M24,2.8L24,3.2L22.7,3.2L22.7,7.5L22.3,7.5L22.3,2.8z" stroke="none"/><path d="M6,12.2L6,11.8L13.5,11.8L13.5,12.2z" stroke="none"/><path d="M7.7,6L7.3,6L7.3,4.7L4.7,4.7L4.7,13.3L14.8,13.3L14.8,11.8L17.8,11.8L17.8,10.3L19.5,10.3L19.5,10.7L18.2,10.7L18.2,12.2L15.2,12.2L15.2,13.7L4.3,13.7L4.3,4.3L7.7,4.3z" stroke="none"/></svg>