<svg version="1.1" width="30" height="15" xmlns="http://www.w3.org/2000/svg"><path d="M22.3,13.3L22.3,10.5L22.7,10.5L22.7,13.3L25.3,13.3L25.3,11.8L27,11.8L27,12.2L25.7,12.2L25.7,13.7L20.8,13.7L20.8,12.2L19.5,12.2L19.5,11.8L21.2,11.8L21.2,13.3z" stroke="none"/><path d="M17.8,5.8L17.8,3L18.2,3L18.2,5.8L19.3,5.8L19.3,1.7L15.2,1.7L15.2,3L14.8,3L14.8,1.3L19.7,1.3L19.7,6.2L18.2,6.2L18.2,9.2L11.8,9.2L11.8,4.5L12.2,4.5L12.2,8.8L17.8,8.8L17.8,6.2L16.7,6.2L16.7,7.7L15,7.7L15,7.3L16.3,7.3L16.3,5.8z" stroke="none"/><path d="M7.5,10.3L7.5,10.7L4.7,10.7L4.7,12L4.3,12L4.3,10.3z" stroke="none"/><path d="M20.8,3L21.2,3L21.2,5.8L22.5,5.8L22.5,6.2L20.8,6.2z" stroke="none"/><path d="M13.7,7.5L13.3,7.5L13.3,3L13.7,3z" stroke="none"/><path d="M9,5.8L9,6.2L4.7,6.2L4.7,7.5L4.3,7.5L4.3,5.8z" stroke="none"/><path d="M12,10.3L12,10.7L8.8,10.7L8.8,9.2L7.5,9.2L7.5,8.8L9.2,8.8L9.2,10.3z" stroke="none"/><path d="M25.5,7.3L25.5,7.7L24.2,7.7L24.2,9.2L21.2,9.2L21.2,10.5L20.8,10.5L20.8,8.8L23.8,8.8L23.8,7.3z" stroke="none"/><path d="M10.7,9L10.3,9L10.3,7.7L6.2,7.7L6.2,9.2L3.2,9.2L3.2,13.3L5.8,13.3L5.8,12L6.2,12L6.2,13.7L2.8,13.7L2.8,8.8L5.8,8.8L5.8,7.3L10.7,7.3z" stroke="none"/><path d="M13.5,12.2L13.5,11.8L16.3,11.8L16.3,10.3L19.3,10.3L19.3,7.3L22.5,7.3L22.5,7.7L19.7,7.7L19.7,10.7L16.7,10.7L16.7,12.2z" stroke="none"/></svg>