<svg version="1.1" width="30" height="15" xmlns="http://www.w3.org/2000/svg"><path d="M22.3,7.3L22.3,4.7L21,4.7L21,4.3L22.7,4.3L22.7,7.3L26.8,7.3L26.8,6L27.2,6L27.2,7.7L21.2,7.7L21.2,9.2L15,9.2L15,8.8L20.8,8.8L20.8,7.3z" stroke="none"/><path d="M8.8,2.8L8.8,1.3L15.2,1.3L15.2,2.8L16.5,2.8L16.5,3.2L14.8,3.2L14.8,1.7L9.2,1.7L9.2,2.8L13.7,2.8L13.7,4.5L13.3,4.5L13.3,3.2L9.2,3.2L9.2,7.7L6,7.7L6,7.3L8.8,7.3L8.8,3.2L4.5,3.2L4.5,2.8z" stroke="none"/><path d="M3,7.7L3,7.3L4.5,7.3L4.5,7.7z" stroke="none"/><path d="M5.8,4.5L6.2,4.5L6.2,5.8L7.5,5.8L7.5,6.2L5.8,6.2z" stroke="none"/><path d="M11.8,4.5L12.2,4.5L12.2,6.2L10.7,6.2L10.7,7.5L10.3,7.5L10.3,5.8L11.8,5.8z" stroke="none"/><path d="M16.5,12.2L16.5,11.8L17.8,11.8L17.8,10.3L21,10.3L21,10.7L18.2,10.7L18.2,12.2z" stroke="none"/><path d="M25.5,5.8L25.5,6.2L23.8,6.2L23.8,3.2L19.7,3.2L19.7,7.5L19.3,7.5L19.3,2.8L24.2,2.8L24.2,5.8z" stroke="none"/><path d="M18,7.3L18,7.7L12.2,7.7L12.2,9.2L6,9.2L6,8.8L11.8,8.8L11.8,7.3z" stroke="none"/><path d="M15,10.3L15,10.7L2.8,10.7L2.8,9L3.2,9L3.2,10.3z" stroke="none"/><path d="M13.5,6.2L13.5,5.8L16.3,5.8L16.3,4.3L17.8,4.3L17.8,1.3L25.7,1.3L25.7,3L25.3,3L25.3,1.7L18.2,1.7L18.2,4.7L16.7,4.7L16.7,6.2z" stroke="none"/></svg>