<svg version="1.1" width="30" height="15" xmlns="http://www.w3.org/2000/svg"><path d="M27,2.8L27,3.2L24.2,3.2L24.2,6L23.8,6L23.8,3.2L22.7,3.2L22.7,7.3L25.3,7.3L25.3,6L25.7,6L25.7,7.7L22.3,7.7L22.3,2.8z" stroke="none"/><path d="M13.3,7.3L13.3,5.8L16.7,5.8L16.7,7.3L19.7,7.3L19.7,12.2L18,12.2L18,11.8L19.3,11.8L19.3,7.7L16.3,7.7L16.3,6.2L13.7,6.2L13.7,7.3L15.2,7.3L15.2,8.8L18.2,8.8L18.2,10.5L17.8,10.5L17.8,9.2L14.8,9.2L14.8,7.7L13.7,7.7L13.7,10.7L12,10.7L12,10.3L13.3,10.3L13.3,7.7L10.7,7.7L10.7,9.2L9,9.2L9,8.8L10.3,8.8L10.3,7.3z" stroke="none"/><path d="M14.8,3L15.2,3L15.2,4.5L14.8,4.5z" stroke="none"/><path d="M16.5,4.7L16.5,4.3L17.8,4.3L17.8,3L18.2,3L18.2,4.7z" stroke="none"/><path d="M23.8,9L24.2,9L24.2,12L23.8,12z" stroke="none"/><path d="M4.7,12L4.3,12L4.3,10.3L5.8,10.3L5.8,9L6.2,9L6.2,10.7L4.7,10.7z" stroke="none"/><path d="M9,7.3L9,7.7L7.7,7.7L7.7,12L7.3,12L7.3,7.3z" stroke="none"/><path d="M21.2,4.5L20.8,4.5L20.8,1.7L16.7,1.7L16.7,3L16.3,3L16.3,1.3L21.2,1.3z" stroke="none"/><path d="M9,12.2L9,11.8L14.8,11.8L14.8,10.3L16.5,10.3L16.5,10.7L15.2,10.7L15.2,12.2z" stroke="none"/><path d="M19.5,6.2L19.5,5.8L21.2,5.8L21.2,13.7L2.8,13.7L2.8,8.8L4.3,8.8L4.3,7.3L5.8,7.3L5.8,5.8L9,5.8L9,6.2L6.2,6.2L6.2,7.7L4.7,7.7L4.7,9.2L3.2,9.2L3.2,13.3L20.8,13.3L20.8,6.2z" stroke="none"/></svg>