<svg version="1.1" width="30" height="15" xmlns="http://www.w3.org/2000/svg"><path d="M21.2,1.3L21.2,2.8L22.5,2.8L22.5,3.2L20.8,3.2L20.8,1.7L19.7,1.7L19.7,4.3L21,4.3L21,4.7L19.3,4.7L19.3,1.7L18.2,1.7L18.2,4.7L16.5,4.7L16.5,4.3L17.8,4.3L17.8,1.3z" stroke="none"/><path d="M13.3,5.8L13.3,4.3L14.8,4.3L14.8,2.8L16.5,2.8L16.5,3.2L15.2,3.2L15.2,4.7L13.7,4.7L13.7,5.8L16.7,5.8L16.7,7.5L16.3,7.5L16.3,6.2L13.7,6.2L13.7,7.3L15.2,7.3L15.2,8.8L17.8,8.8L17.8,5.8L19.5,5.8L19.5,6.2L18.2,6.2L18.2,9.2L14.8,9.2L14.8,7.7L13.3,7.7L13.3,6.2L12.2,6.2L12.2,7.7L9,7.7L9,7.3L11.8,7.3L11.8,5.8z" stroke="none"/><path d="M4.7,10.5L4.3,10.5L4.3,9.2L3,9.2L3,8.8L4.7,8.8z" stroke="none"/><path d="M10.5,2.8L10.5,3.2L7.5,3.2L7.5,2.8z" stroke="none"/><path d="M26.8,3L27.2,3L27.2,4.7L25.7,4.7L25.7,7.5L25.3,7.5L25.3,4.3L26.8,4.3z" stroke="none"/><path d="M22.3,4.5L22.7,4.5L22.7,6.2L21.2,6.2L21.2,9.2L19.5,9.2L19.5,8.8L20.8,8.8L20.8,5.8L22.3,5.8z" stroke="none"/><path d="M21,12.2L21,11.8L23.8,11.8L23.8,8.8L26.8,8.8L26.8,7.5L27.2,7.5L27.2,9.2L24.2,9.2L24.2,12.2z" stroke="none"/><path d="M3,12.2L3,11.8L12,11.8L12,12.2z" stroke="none"/><path d="M22.3,7.5L22.7,7.5L22.7,10.7L13.3,10.7L13.3,9.2L7.3,9.2L7.3,5.8L10.5,5.8L10.5,6.2L7.7,6.2L7.7,8.8L13.7,8.8L13.7,10.3L22.3,10.3z" stroke="none"/><path d="M6.2,9L5.8,9L5.8,7.7L1.7,7.7L1.7,13.3L16.3,13.3L16.3,11.8L18,11.8L18,12.2L16.7,12.2L16.7,13.7L1.3,13.7L1.3,7.3L6.2,7.3z" stroke="none"/></svg>