<svg version="1.1" width="30" height="15" xmlns="http://www.w3.org/2000/svg"><path d="M8.8,11.8L8.8,10.3L11.8,10.3L11.8,9L12.2,9L12.2,10.7L9.2,10.7L9.2,12.2L7.7,12.2L7.7,13.3L14.8,13.3L14.8,10.5L15.2,10.5L15.2,13.7L7.3,13.7L7.3,12.2L3,12.2L3,11.8z" stroke="none"/><path d="M14.8,5.8L14.8,4.3L19.7,4.3L19.7,5.8L21,5.8L21,6.2L19.3,6.2L19.3,4.7L15.2,4.7L15.2,5.8L16.7,5.8L16.7,10.5L16.3,10.5L16.3,6.2L15.2,6.2L15.2,9.2L13.5,9.2L13.5,8.8L14.8,8.8L14.8,6.2L13.7,6.2L13.7,7.7L10.7,7.7L10.7,9L10.3,9L10.3,7.3L13.3,7.3L13.3,5.8z" stroke="none"/><path d="M25.3,4.5L25.7,4.5L25.7,6L25.3,6z" stroke="none"/><path d="M7.7,9L7.3,9L7.3,7.7L6,7.7L6,7.3L7.7,7.3z" stroke="none"/><path d="M6.2,4.5L5.8,4.5L5.8,3.2L4.5,3.2L4.5,2.8L6.2,2.8z" stroke="none"/><path d="M13.5,11.8L13.5,12.2L10.5,12.2L10.5,11.8z" stroke="none"/><path d="M9,6.2L9,5.8L12,5.8L12,6.2z" stroke="none"/><path d="M17.8,6L18.2,6L18.2,7.3L22.3,7.3L22.3,4.7L20.8,4.7L20.8,3.2L16.5,3.2L16.5,2.8L21.2,2.8L21.2,4.3L22.7,4.3L22.7,7.7L17.8,7.7z" stroke="none"/><path d="M27.2,12L26.8,12L26.8,9.2L25.3,9.2L25.3,7.5L25.7,7.5L25.7,8.8L27.2,8.8z" stroke="none"/><path d="M10.5,4.7L10.5,4.3L11.8,4.3L11.8,2.8L14.8,2.8L14.8,1.3L22.7,1.3L22.7,2.8L24.2,2.8L24.2,9.2L21,9.2L21,8.8L23.8,8.8L23.8,3.2L22.3,3.2L22.3,1.7L15.2,1.7L15.2,3.2L12.2,3.2L12.2,4.7z" stroke="none"/></svg>