<svg version="1.1" width="30" height="15" xmlns="http://www.w3.org/2000/svg"><path d="M24,8.8L24,9.2L19.7,9.2L19.7,12L19.3,12L19.3,9.2L15,9.2L15,8.8z" stroke="none"/><path d="M22.3,5.8L22.3,4.3L23.8,4.3L23.8,3L24.2,3L24.2,4.7L22.7,4.7L22.7,5.8L24.2,5.8L24.2,7.3L25.5,7.3L25.5,7.7L23.8,7.7L23.8,6.2L22.7,6.2L22.7,7.7L14.8,7.7L14.8,4.7L13.5,4.7L13.5,4.3L15.2,4.3L15.2,7.3L22.3,7.3L22.3,6.2L20.8,6.2L20.8,3.2L19.5,3.2L19.5,2.8L21.2,2.8L21.2,5.8z" stroke="none"/><path d="M24,12.2L24,11.8L25.5,11.8L25.5,12.2z" stroke="none"/><path d="M18.2,6L17.8,6L17.8,4.3L19.5,4.3L19.5,4.7L18.2,4.7z" stroke="none"/><path d="M12.2,10.5L11.8,10.5L11.8,7.5L12.2,7.5z" stroke="none"/><path d="M16.5,2.8L16.5,3.2L12.2,3.2L12.2,6L11.8,6L11.8,2.8z" stroke="none"/><path d="M10.5,5.8L10.5,6.2L4.3,6.2L4.3,4.5L4.7,4.5L4.7,5.8z" stroke="none"/><path d="M4.5,9.2L4.5,8.8L9.2,8.8L9.2,10.3L10.7,10.3L10.7,12L10.3,12L10.3,10.7L8.8,10.7L8.8,9.2z" stroke="none"/><path d="M2.8,3L3.2,3L3.2,7.3L9,7.3L9,7.7L2.8,7.7z" stroke="none"/><path d="M16.3,10.5L16.7,10.5L16.7,11.8L18.2,11.8L18.2,13.3L26.8,13.3L26.8,12L27.2,12L27.2,13.7L17.8,13.7L17.8,12.2L16.3,12.2z" stroke="none"/></svg>