<svg version="1.1" width="30" height="15" xmlns="http://www.w3.org/2000/svg"><path d="M22.5,5.8L22.5,6.2L19.7,6.2L19.7,7.3L22.5,7.3L22.5,7.7L19.3,7.7L19.3,6.2L18.2,6.2L18.2,7.7L15.2,7.7L15.2,9.2L13.7,9.2L13.7,10.5L13.3,10.5L13.3,8.8L14.8,8.8L14.8,7.3L17.8,7.3L17.8,5.8z" stroke="none"/><path d="M7.3,8.8L7.3,7.7L3,7.7L3,7.3L7.7,7.3L7.7,8.8L11.8,8.8L11.8,7.3L13.5,7.3L13.5,7.7L12.2,7.7L12.2,9.2L7.7,9.2L7.7,12.2L6,12.2L6,11.8L7.3,11.8L7.3,9.2L6.2,9.2L6.2,10.7L4.5,10.7L4.5,10.3L5.8,10.3L5.8,8.8z" stroke="none"/><path d="M18,10.3L18,10.7L16.5,10.7L16.5,10.3z" stroke="none"/><path d="M24,12.2L24,11.8L27,11.8L27,12.2z" stroke="none"/><path d="M10.7,7.5L10.3,7.5L10.3,5.8L13.5,5.8L13.5,6.2L10.7,6.2z" stroke="none"/><path d="M24.2,10.5L23.8,10.5L23.8,7.3L25.5,7.3L25.5,7.7L24.2,7.7z" stroke="none"/><path d="M18,9.2L18,8.8L21.2,8.8L21.2,10.3L22.5,10.3L22.5,10.7L20.8,10.7L20.8,9.2z" stroke="none"/><path d="M10.3,10.5L10.7,10.5L10.7,12.2L9.2,12.2L9.2,13.7L4.3,13.7L4.3,12.2L2.8,12.2L2.8,9.2L1.3,9.2L1.3,5.8L7.5,5.8L7.5,6.2L1.7,6.2L1.7,8.8L3.2,8.8L3.2,11.8L4.7,11.8L4.7,13.3L8.8,13.3L8.8,11.8L10.3,11.8z" stroke="none"/><path d="M22.5,4.7L22.5,4.3L24.2,4.3L24.2,5.8L27.2,5.8L27.2,9.2L25.5,9.2L25.5,8.8L26.8,8.8L26.8,6.2L23.8,6.2L23.8,4.7z" stroke="none"/><path d="M19.5,11.8L19.5,12.2L11.8,12.2L11.8,10.5L12.2,10.5L12.2,11.8z" stroke="none"/></svg>