<svg version="1.1" width="30" height="15" xmlns="http://www.w3.org/2000/svg"><path d="M21.2,7.3L21.2,8.8L24.2,8.8L24.2,10.3L25.5,10.3L25.5,10.7L23.8,10.7L23.8,9.2L20.8,9.2L20.8,7.7L18.2,7.7L18.2,8.8L19.7,8.8L19.7,10.3L21,10.3L21,10.7L19.3,10.7L19.3,9.2L17.8,9.2L17.8,7.7L15,7.7L15,7.3z" stroke="none"/><path d="M7.3,4.3L7.3,1.3L13.7,1.3L13.7,2.8L15.2,2.8L15.2,6.2L13.5,6.2L13.5,5.8L14.8,5.8L14.8,3.2L13.3,3.2L13.3,1.7L7.7,1.7L7.7,4.3L8.8,4.3L8.8,2.8L12.2,2.8L12.2,4.3L13.5,4.3L13.5,4.7L11.8,4.7L11.8,3.2L9.2,3.2L9.2,4.7L7.7,4.7L7.7,5.8L9.2,5.8L9.2,7.5L8.8,7.5L8.8,6.2L7.3,6.2L7.3,4.7L4.7,4.7L4.7,6L4.3,6L4.3,4.3z" stroke="none"/><path d="M2.8,6L3.2,6L3.2,7.5L2.8,7.5z" stroke="none"/><path d="M21,12.2L21,11.8L22.3,11.8L22.3,10.5L22.7,10.5L22.7,12.2z" stroke="none"/><path d="M16.7,10.5L16.3,10.5L16.3,9.2L15,9.2L15,8.8L16.7,8.8z" stroke="none"/><path d="M24,4.7L24,4.3L27,4.3L27,4.7z" stroke="none"/><path d="M8.8,9L9.2,9L9.2,10.7L7.7,10.7L7.7,12L7.3,12L7.3,10.3L8.8,10.3z" stroke="none"/><path d="M10.7,9L10.3,9L10.3,4.5L10.7,4.5z" stroke="none"/><path d="M17.8,10.5L18.2,10.5L18.2,13.3L26.8,13.3L26.8,7.7L25.3,7.7L25.3,6.2L21,6.2L21,5.8L25.7,5.8L25.7,7.3L27.2,7.3L27.2,13.7L17.8,13.7z" stroke="none"/><path d="M13.5,10.3L13.5,10.7L12.2,10.7L12.2,12.2L10.7,12.2L10.7,13.7L5.8,13.7L5.8,8.8L7.3,8.8L7.3,7.5L7.7,7.5L7.7,9.2L6.2,9.2L6.2,13.3L10.3,13.3L10.3,11.8L11.8,11.8L11.8,10.3z" stroke="none"/></svg>