<svg version="1.1" width="30" height="15" xmlns="http://www.w3.org/2000/svg"><path d="M22.7,5.8L22.7,7.3L24,7.3L24,7.7L22.3,7.7L22.3,6.2L21.2,6.2L21.2,9.2L19.5,9.2L19.5,8.8L20.8,8.8L20.8,6.2L19.7,6.2L19.7,7.7L18.2,7.7L18.2,10.3L24,10.3L24,10.7L17.8,10.7L17.8,7.3L19.3,7.3L19.3,5.8z" stroke="none"/><path d="M10.3,11.8L10.3,8.8L14.8,8.8L14.8,7.3L16.3,7.3L16.3,6L16.7,6L16.7,7.7L15.2,7.7L15.2,9.2L10.7,9.2L10.7,11.8L11.8,11.8L11.8,10.3L13.5,10.3L13.5,10.7L12.2,10.7L12.2,12.2L10.7,12.2L10.7,13.3L13.3,13.3L13.3,11.8L14.8,11.8L14.8,10.5L15.2,10.5L15.2,12.2L13.7,12.2L13.7,13.7L10.3,13.7L10.3,12.2L5.8,12.2L5.8,10.5L6.2,10.5L6.2,11.8z" stroke="none"/><path d="M7.7,10.5L7.3,10.5L7.3,9.2L6,9.2L6,8.8L7.7,8.8z" stroke="none"/><path d="M24,12.2L24,11.8L25.3,11.8L25.3,10.5L25.7,10.5L25.7,12.2z" stroke="none"/><path d="M25.3,4.5L25.7,4.5L25.7,7.5L25.3,7.5z" stroke="none"/><path d="M4.3,6L4.7,6L4.7,7.3L9.2,7.3L9.2,9L8.8,9L8.8,7.7L4.3,7.7z" stroke="none"/><path d="M26.8,12L27.2,12L27.2,13.7L20.8,13.7L20.8,12L21.2,12L21.2,13.3L26.8,13.3z" stroke="none"/><path d="M19.5,2.8L19.5,3.2L12.2,3.2L12.2,4.7L10.5,4.7L10.5,4.3L11.8,4.3L11.8,2.8z" stroke="none"/><path d="M24,4.3L24,4.7L13.7,4.7L13.7,6.2L12,6.2L12,5.8L13.3,5.8L13.3,4.3z" stroke="none"/><path d="M10.7,7.5L10.3,7.5L10.3,6.2L8.8,6.2L8.8,2.8L10.3,2.8L10.3,1.3L25.7,1.3L25.7,2.8L27.2,2.8L27.2,9.2L22.5,9.2L22.5,8.8L26.8,8.8L26.8,3.2L25.3,3.2L25.3,1.7L10.7,1.7L10.7,3.2L9.2,3.2L9.2,5.8L10.7,5.8z" stroke="none"/></svg>