<svg version="1.1" width="30" height="15" xmlns="http://www.w3.org/2000/svg"><path d="M16.7,1.3L16.7,4.5L16.3,4.5L16.3,1.7L15.2,1.7L15.2,4.5L14.8,4.5L14.8,1.7L13.7,1.7L13.7,4.7L10.5,4.7L10.5,4.3L13.3,4.3L13.3,1.3z" stroke="none"/><path d="M19.3,4.3L19.3,1.3L27.2,1.3L27.2,2.8L28.7,2.8L28.7,9.2L27,9.2L27,8.8L28.3,8.8L28.3,3.2L26.8,3.2L26.8,1.7L19.7,1.7L19.7,4.3L22.7,4.3L22.7,5.8L25.7,5.8L25.7,7.3L27,7.3L27,7.7L25.3,7.7L25.3,6.2L22.3,6.2L22.3,4.7L19.7,4.7L19.7,7.7L16.7,7.7L16.7,9L16.3,9L16.3,7.3L19.3,7.3L19.3,4.7L18.2,4.7L18.2,6.2L15,6.2L15,5.8L17.8,5.8L17.8,4.3z" stroke="none"/><path d="M12,2.8L12,3.2L10.5,3.2L10.5,2.8z" stroke="none"/><path d="M22.3,7.5L22.7,7.5L22.7,10.5L22.3,10.5z" stroke="none"/><path d="M9,7.7L9,7.3L10.7,7.3L10.7,10.5L10.3,10.5L10.3,7.7z" stroke="none"/><path d="M23.8,7.5L24.2,7.5L24.2,8.8L25.7,8.8L25.7,10.3L27,10.3L27,10.7L25.3,10.7L25.3,9.2L23.8,9.2z" stroke="none"/><path d="M27,4.3L27,4.7L23.8,4.7L23.8,3.2L22.5,3.2L22.5,2.8L24.2,2.8L24.2,4.3z" stroke="none"/><path d="M3,6.2L3,5.8L6.2,5.8L6.2,8.8L9,8.8L9,9.2L5.8,9.2L5.8,6.2z" stroke="none"/><path d="M20.8,7.5L21.2,7.5L21.2,9.2L18.2,9.2L18.2,10.7L15.2,10.7L15.2,12.2L10.5,12.2L10.5,11.8L14.8,11.8L14.8,10.3L17.8,10.3L17.8,8.8L20.8,8.8z" stroke="none"/><path d="M9,5.8L9,6.2L7.3,6.2L7.3,4.7L1.7,4.7L1.7,8.8L3.2,8.8L3.2,10.3L6.2,10.3L6.2,11.8L9.2,11.8L9.2,13.3L17.8,13.3L17.8,11.8L20.8,11.8L20.8,10.5L21.2,10.5L21.2,12.2L18.2,12.2L18.2,13.7L8.8,13.7L8.8,12.2L5.8,12.2L5.8,10.7L2.8,10.7L2.8,9.2L1.3,9.2L1.3,4.3L7.7,4.3L7.7,5.8z" stroke="none"/></svg>