<svg version="1.1" width="30" height="15" xmlns="http://www.w3.org/2000/svg"><path d="M4.3,8.8L4.3,6.2L3,6.2L3,5.8L4.7,5.8L4.7,8.8L6.2,8.8L6.2,10.3L7.5,10.3L7.5,10.7L5.8,10.7L5.8,9.2L3.2,9.2L3.2,13.3L8.8,13.3L8.8,8.8L10.5,8.8L10.5,9.2L9.2,9.2L9.2,13.7L2.8,13.7L2.8,8.8z" stroke="none"/><path d="M14.8,10.3L14.8,8.8L19.5,8.8L19.5,9.2L15.2,9.2L15.2,10.3L18,10.3L18,10.7L15.2,10.7L15.2,11.8L19.5,11.8L19.5,12.2L14.8,12.2L14.8,10.7L13.7,10.7L13.7,12.2L12,12.2L12,11.8L13.3,11.8L13.3,10.3z" stroke="none"/><path d="M25.5,7.3L25.5,7.7L24,7.7L24,7.3z" stroke="none"/><path d="M26.8,7.5L27.2,7.5L27.2,9.2L25.5,9.2L25.5,8.8L26.8,8.8z" stroke="none"/><path d="M4.5,12.2L4.5,11.8L7.5,11.8L7.5,12.2z" stroke="none"/><path d="M6.2,6L5.8,6L5.8,4.3L7.3,4.3L7.3,2.8L9,2.8L9,3.2L7.7,3.2L7.7,4.7L6.2,4.7z" stroke="none"/><path d="M27,2.8L27,3.2L22.7,3.2L22.7,6L22.3,6L22.3,2.8z" stroke="none"/><path d="M24,4.7L24,4.3L28.3,4.3L28.3,1.7L19.7,1.7L19.7,4.7L16.5,4.7L16.5,4.3L19.3,4.3L19.3,1.3L28.7,1.3L28.7,4.7z" stroke="none"/><path d="M25.5,10.3L25.5,10.7L23.8,10.7L23.8,9.2L22.3,9.2L22.3,7.7L17.8,7.7L17.8,6L18.2,6L18.2,7.3L22.7,7.3L22.7,8.8L24.2,8.8L24.2,10.3z" stroke="none"/><path d="M20.8,9L21.2,9L21.2,13.7L10.3,13.7L10.3,10.3L11.8,10.3L11.8,6.2L10.5,6.2L10.5,5.8L12.2,5.8L12.2,10.7L10.7,10.7L10.7,13.3L20.8,13.3z" stroke="none"/></svg>