<svg version="1.1" width="30" height="15" xmlns="http://www.w3.org/2000/svg"><path d="M13.5,8.8L13.5,9.2L10.7,9.2L10.7,10.7L3,10.7L3,10.3L10.3,10.3L10.3,9.2L7.5,9.2L7.5,8.8z" stroke="none"/><path d="M16.3,4.3L16.3,2.8L19.7,2.8L19.7,4.3L21.2,4.3L21.2,5.8L22.7,5.8L22.7,8.8L24,8.8L24,9.2L22.3,9.2L22.3,6.2L20.8,6.2L20.8,4.7L19.3,4.7L19.3,3.2L16.7,3.2L16.7,4.3L18.2,4.3L18.2,9L17.8,9L17.8,4.7L16.7,4.7L16.7,6.2L15.2,6.2L15.2,7.5L14.8,7.5L14.8,5.8L16.3,5.8L16.3,4.7L12,4.7L12,4.3z" stroke="none"/><path d="M6.2,7.5L5.8,7.5L5.8,6L6.2,6z" stroke="none"/><path d="M20.8,7.5L21.2,7.5L21.2,10.5L20.8,10.5z" stroke="none"/><path d="M21,12.2L21,11.8L22.3,11.8L22.3,10.3L24,10.3L24,10.7L22.7,10.7L22.7,12.2z" stroke="none"/><path d="M19.3,10.5L19.7,10.5L19.7,13.3L23.8,13.3L23.8,11.8L25.3,11.8L25.3,7.7L24,7.7L24,7.3L25.7,7.3L25.7,12.2L24.2,12.2L24.2,13.7L19.3,13.7z" stroke="none"/><path d="M22.5,4.7L22.5,4.3L24.2,4.3L24.2,5.8L27.2,5.8L27.2,9L26.8,9L26.8,6.2L23.8,6.2L23.8,4.7z" stroke="none"/><path d="M3,4.7L3,4.3L10.5,4.3L10.5,4.7z" stroke="none"/><path d="M13.5,11.8L13.5,12.2L4.5,12.2L4.5,11.8z" stroke="none"/><path d="M4.5,5.8L4.5,6.2L1.7,6.2L1.7,11.8L3.2,11.8L3.2,13.3L14.8,13.3L14.8,8.8L16.3,8.8L16.3,7.5L16.7,7.5L16.7,9.2L15.2,9.2L15.2,13.7L2.8,13.7L2.8,12.2L1.3,12.2L1.3,5.8z" stroke="none"/></svg>