<svg version="1.1" width="30" height="15" xmlns="http://www.w3.org/2000/svg"><path d="M20.8,7.5L21.2,7.5L21.2,10.3L22.3,10.3L22.3,8.8L24,8.8L24,9.2L22.7,9.2L22.7,10.7L21.2,10.7L21.2,11.8L27,11.8L27,12.2L20.8,12.2z" stroke="none"/><path d="M13.3,5.8L13.3,4.7L7.5,4.7L7.5,4.3L13.7,4.3L13.7,5.8L19.7,5.8L19.7,7.5L19.3,7.5L19.3,6.2L13.7,6.2L13.7,7.7L12.2,7.7L12.2,9.2L7.5,9.2L7.5,8.8L11.8,8.8L11.8,7.3L13.3,7.3L13.3,6.2L10.5,6.2L10.5,5.8z" stroke="none"/><path d="M16.5,10.3L16.5,10.7L15.2,10.7L15.2,12.2L13.5,12.2L13.5,11.8L14.8,11.8L14.8,10.3z" stroke="none"/><path d="M24,7.7L24,7.3L25.7,7.3L25.7,10.5L25.3,10.5L25.3,7.7z" stroke="none"/><path d="M27.2,9L26.8,9L26.8,4.5L27.2,4.5z" stroke="none"/><path d="M21,2.8L21,3.2L13.5,3.2L13.5,2.8z" stroke="none"/><path d="M16.5,4.7L16.5,4.3L24,4.3L24,4.7z" stroke="none"/><path d="M3.2,12L2.8,12L2.8,10.3L5.8,10.3L5.8,7.3L9,7.3L9,7.7L6.2,7.7L6.2,10.7L3.2,10.7z" stroke="none"/><path d="M4.5,12.2L4.5,11.8L12.2,11.8L12.2,13.3L16.3,13.3L16.3,12L16.7,12L16.7,13.7L11.8,13.7L11.8,12.2z" stroke="none"/><path d="M22.5,6.2L22.5,5.8L25.3,5.8L25.3,3.2L22.3,3.2L22.3,1.7L12.2,1.7L12.2,3.2L10.5,3.2L10.5,2.8L11.8,2.8L11.8,1.3L22.7,1.3L22.7,2.8L25.7,2.8L25.7,6.2z" stroke="none"/></svg>