<svg version="1.1" width="30" height="15" xmlns="http://www.w3.org/2000/svg"><path d="M9,2.8L9,3.2L6.2,3.2L6.2,4.7L4.7,4.7L4.7,6L4.3,6L4.3,4.3L5.8,4.3L5.8,3.2L3,3.2L3,2.8z" stroke="none"/><path d="M11.8,2.8L11.8,1.7L1.7,1.7L1.7,4.3L3.2,4.3L3.2,7.3L5.8,7.3L5.8,6L6.2,6L6.2,7.7L2.8,7.7L2.8,4.7L1.3,4.7L1.3,1.3L12.2,1.3L12.2,2.8L13.7,2.8L13.7,4.3L15.2,4.3L15.2,12.2L10.3,12.2L10.3,10.7L7.3,10.7L7.3,9L7.7,9L7.7,10.3L10.7,10.3L10.7,11.8L14.8,11.8L14.8,4.7L13.3,4.7L13.3,3.2L12.2,3.2L12.2,5.8L13.5,5.8L13.5,6.2L11.8,6.2L11.8,3.2L10.7,3.2L10.7,4.7L9,4.7L9,4.3L10.3,4.3L10.3,2.8z" stroke="none"/><path d="M13.7,9L13.3,9L13.3,7.5L13.7,7.5z" stroke="none"/><path d="M13.5,10.3L13.5,10.7L11.8,10.7L11.8,9L12.2,9L12.2,10.3z" stroke="none"/><path d="M21.2,7.5L20.8,7.5L20.8,6.2L19.5,6.2L19.5,5.8L21.2,5.8z" stroke="none"/><path d="M10.3,6L10.7,6L10.7,9L10.3,9z" stroke="none"/><path d="M19.5,4.7L19.5,4.3L22.7,4.3L22.7,8.8L24,8.8L24,9.2L22.3,9.2L22.3,4.7z" stroke="none"/><path d="M24.2,7.5L23.8,7.5L23.8,3.2L19.5,3.2L19.5,2.8L24.2,2.8z" stroke="none"/><path d="M5.8,10.5L6.2,10.5L6.2,11.8L7.7,11.8L7.7,13.3L16.3,13.3L16.3,6L16.7,6L16.7,13.7L7.3,13.7L7.3,12.2L5.8,12.2z" stroke="none"/><path d="M15.2,3L14.8,3L14.8,1.3L25.7,1.3L25.7,2.8L27,2.8L27,3.2L25.3,3.2L25.3,1.7L15.2,1.7z" stroke="none"/></svg>