<svg version="1.1" width="30" height="15" xmlns="http://www.w3.org/2000/svg"><path d="M16.7,7.3L16.7,10.5L16.3,10.5L16.3,7.7L15.2,7.7L15.2,10.5L14.8,10.5L14.8,7.7L12.2,7.7L12.2,9.2L6,9.2L6,8.8L11.8,8.8L11.8,7.3z" stroke="none"/><path d="M20.8,5.8L20.8,4.3L28.7,4.3L28.7,10.7L27.2,10.7L27.2,12.2L24.2,12.2L24.2,13.7L13.3,13.7L13.3,12.2L11.8,12.2L11.8,10.5L12.2,10.5L12.2,11.8L13.7,11.8L13.7,13.3L23.8,13.3L23.8,11.8L26.8,11.8L26.8,10.3L28.3,10.3L28.3,4.7L21.2,4.7L21.2,5.8L22.7,5.8L22.7,7.3L24,7.3L24,7.7L22.3,7.7L22.3,6.2L21.2,6.2L21.2,7.7L18.2,7.7L18.2,10.3L22.3,10.3L22.3,9L22.7,9L22.7,10.7L17.8,10.7L17.8,7.3L20.8,7.3L20.8,6.2L18,6.2L18,5.8z" stroke="none"/><path d="M21,8.8L21,9.2L19.5,9.2L19.5,8.8z" stroke="none"/><path d="M26.8,6L27.2,6L27.2,7.7L25.5,7.7L25.5,7.3L26.8,7.3z" stroke="none"/><path d="M4.3,3L4.7,3L4.7,4.3L6,4.3L6,4.7L4.3,4.7z" stroke="none"/><path d="M10.7,7.5L10.3,7.5L10.3,4.5L10.7,4.5z" stroke="none"/><path d="M12.2,6L11.8,6L11.8,3.2L7.7,3.2L7.7,6.2L4.7,6.2L4.7,10.3L9,10.3L9,10.7L4.3,10.7L4.3,5.8L7.3,5.8L7.3,2.8L12.2,2.8z" stroke="none"/><path d="M22.5,11.8L22.5,12.2L16.5,12.2L16.5,11.8z" stroke="none"/><path d="M13.5,4.7L13.5,4.3L17.8,4.3L17.8,2.8L25.5,2.8L25.5,3.2L18.2,3.2L18.2,4.7z" stroke="none"/><path d="M3.2,6L2.8,6L2.8,1.3L13.7,1.3L13.7,2.8L15,2.8L15,3.2L13.3,3.2L13.3,1.7L3.2,1.7z" stroke="none"/></svg>