<svg version="1.1" width="30" height="15" xmlns="http://www.w3.org/2000/svg"><path d="M14.8,1.7L9.2,1.7L9.2,3.2L7.5,3.2L7.5,2.8L8.8,2.8L8.8,1.3L15.2,1.3L15.2,2.8L18,2.8L18,3.2L15.2,3.2L15.2,4.3L19.3,4.3L19.3,3L19.7,3L19.7,4.7L14.8,4.7z" stroke="none"/><path d="M10.3,10.3L10.3,9.2L8.8,9.2L8.8,7.5L9.2,7.5L9.2,8.8L10.7,8.8L10.7,10.3L19.5,10.3L19.5,10.7L10.7,10.7L10.7,13.7L5.8,13.7L5.8,8.8L7.5,8.8L7.5,9.2L6.2,9.2L6.2,13.3L10.3,13.3L10.3,10.7L9.2,10.7L9.2,12.2L7.5,12.2L7.5,11.8L8.8,11.8L8.8,10.3z" stroke="none"/><path d="M27.2,7.5L26.8,7.5L26.8,6.2L25.5,6.2L25.5,5.8L27.2,5.8z" stroke="none"/><path d="M22.3,6L22.7,6L22.7,9L22.3,9z" stroke="none"/><path d="M27,8.8L27,9.2L25.7,9.2L25.7,12.2L24,12.2L24,11.8L25.3,11.8L25.3,8.8z" stroke="none"/><path d="M6,4.7L6,4.3L10.3,4.3L10.3,3L10.7,3L10.7,4.7z" stroke="none"/><path d="M11.8,3L12.2,3L12.2,4.3L13.7,4.3L13.7,7.7L10.5,7.7L10.5,7.3L13.3,7.3L13.3,4.7L11.8,4.7z" stroke="none"/><path d="M12,5.8L12,6.2L4.3,6.2L4.3,4.7L2.8,4.7L2.8,3L3.2,3L3.2,4.3L4.7,4.3L4.7,5.8z" stroke="none"/><path d="M27,4.3L27,4.7L21.2,4.7L21.2,6.2L18.2,6.2L18.2,7.7L16.5,7.7L16.5,7.3L17.8,7.3L17.8,5.8L20.8,5.8L20.8,4.3z" stroke="none"/><path d="M26.8,10.5L27.2,10.5L27.2,13.7L14.8,13.7L14.8,12L15.2,12L15.2,13.3L26.8,13.3z" stroke="none"/></svg>