<svg version="1.1" width="30" height="15" xmlns="http://www.w3.org/2000/svg"><path d="M5.8,1.3L10.7,1.3L10.7,4.5L10.3,4.5L10.3,1.7L6.2,1.7L6.2,4.3L7.3,4.3L7.3,2.8L9,2.8L9,3.2L7.7,3.2L7.7,4.7L6.2,4.7L6.2,5.8L7.7,5.8L7.7,7.3L9,7.3L9,7.7L7.3,7.7L7.3,6.2L5.8,6.2z" stroke="none"/><path d="M20.8,4.3L20.8,3.2L16.7,3.2L16.7,6L16.3,6L16.3,2.8L21.2,2.8L21.2,4.3L22.3,4.3L22.3,2.8L24,2.8L24,3.2L22.7,3.2L22.7,4.7L21.2,4.7L21.2,7.5L20.8,7.5L20.8,4.7L18,4.7L18,4.3z" stroke="none"/><path d="M10.5,12.2L10.5,11.8L12,11.8L12,12.2z" stroke="none"/><path d="M25.5,4.3L25.5,4.7L24,4.7L24,4.3z" stroke="none"/><path d="M7.5,11.8L7.5,12.2L2.8,12.2L2.8,10.5L3.2,10.5L3.2,11.8z" stroke="none"/><path d="M15.2,12L14.8,12L14.8,10.3L22.5,10.3L22.5,10.7L15.2,10.7z" stroke="none"/><path d="M13.5,7.3L13.5,7.7L12.2,7.7L12.2,9.2L4.3,9.2L4.3,7.7L3,7.7L3,7.3L4.7,7.3L4.7,8.8L11.8,8.8L11.8,7.3z" stroke="none"/><path d="M13.5,9.2L13.5,8.8L24.2,8.8L24.2,10.5L23.8,10.5L23.8,9.2z" stroke="none"/><path d="M21,12.2L21,11.8L25.3,11.8L25.3,7.3L26.8,7.3L26.8,3.2L25.3,3.2L25.3,1.7L15.2,1.7L15.2,3.2L13.7,3.2L13.7,6.2L10.7,6.2L10.7,7.5L10.3,7.5L10.3,5.8L13.3,5.8L13.3,2.8L14.8,2.8L14.8,1.3L25.7,1.3L25.7,2.8L27.2,2.8L27.2,7.7L25.7,7.7L25.7,12.2z" stroke="none"/><path d="M4.5,10.7L4.5,10.3L13.7,10.3L13.7,13.3L16.3,13.3L16.3,12L16.7,12L16.7,13.7L13.3,13.7L13.3,10.7z" stroke="none"/></svg>