<svg version="1.1" width="30" height="15" xmlns="http://www.w3.org/2000/svg"><path d="M9,7.3L9,7.7L6.2,7.7L6.2,8.8L9.2,8.8L9.2,10.3L10.5,10.3L10.5,10.7L8.8,10.7L8.8,9.2L5.8,9.2L5.8,7.7L3,7.7L3,7.3z" stroke="none"/><path d="M17.8,10.3L17.8,9.2L16.3,9.2L16.3,7.7L13.5,7.7L13.5,7.3L16.7,7.3L16.7,8.8L18.2,8.8L18.2,10.3L21,10.3L21,10.7L18.2,10.7L18.2,11.8L21,11.8L21,12.2L17.8,12.2L17.8,10.7L16.7,10.7L16.7,12.2L15,12.2L15,11.8L16.3,11.8L16.3,10.3z" stroke="none"/><path d="M25.7,10.5L25.3,10.5L25.3,7.5L25.7,7.5z" stroke="none"/><path d="M25.5,5.8L25.5,6.2L23.8,6.2L23.8,2.8L25.5,2.8L25.5,3.2L24.2,3.2L24.2,5.8z" stroke="none"/><path d="M12,3.2L12,2.8L13.7,2.8L13.7,4.3L15,4.3L15,4.7L13.3,4.7L13.3,3.2z" stroke="none"/><path d="M3.2,6L2.8,6L2.8,2.8L6,2.8L6,3.2L3.2,3.2z" stroke="none"/><path d="M13.5,11.8L13.5,12.2L7.5,12.2L7.5,11.8z" stroke="none"/><path d="M25.5,4.7L25.5,4.3L26.8,4.3L26.8,1.7L19.7,1.7L19.7,6.2L18,6.2L18,5.8L19.3,5.8L19.3,1.3L27.2,1.3L27.2,4.7z" stroke="none"/><path d="M20.8,6L21.2,6L21.2,8.8L22.7,8.8L22.7,13.7L2.8,13.7L2.8,10.7L1.3,10.7L1.3,1.3L9.2,1.3L9.2,2.8L10.5,2.8L10.5,3.2L8.8,3.2L8.8,1.7L1.7,1.7L1.7,10.3L3.2,10.3L3.2,13.3L22.3,13.3L22.3,9.2L20.8,9.2z" stroke="none"/><path d="M4.5,4.7L4.5,4.3L12.2,4.3L12.2,5.8L16.3,5.8L16.3,3L16.7,3L16.7,6.2L11.8,6.2L11.8,4.7z" stroke="none"/></svg>