<svg version="1.1" width="30" height="15" xmlns="http://www.w3.org/2000/svg"><path d="M17.8,2.8L22.5,2.8L22.5,3.2L18.2,3.2L18.2,4.3L21,4.3L21,4.7L18.2,4.7L18.2,6.2L16.7,6.2L16.7,7.7L15,7.7L15,7.3L16.3,7.3L16.3,5.8L17.8,5.8z" stroke="none"/><path d="M22.3,10.3L22.3,9.2L20.8,9.2L20.8,7.5L21.2,7.5L21.2,8.8L22.7,8.8L22.7,10.3L25.5,10.3L25.5,10.7L22.7,10.7L22.7,11.8L25.5,11.8L25.5,12.2L22.3,12.2L22.3,10.7L16.5,10.7L16.5,10.3z" stroke="none"/><path d="M15,5.8L15,6.2L13.3,6.2L13.3,4.5L13.7,4.5L13.7,5.8z" stroke="none"/><path d="M3,4.7L3,4.3L6,4.3L6,4.7z" stroke="none"/><path d="M13.3,7.5L13.7,7.5L13.7,9.2L12.2,9.2L12.2,10.5L11.8,10.5L11.8,8.8L13.3,8.8z" stroke="none"/><path d="M5.8,10.5L6.2,10.5L6.2,12.2L3,12.2L3,11.8L5.8,11.8z" stroke="none"/><path d="M27.2,10.5L26.8,10.5L26.8,7.7L25.3,7.7L25.3,6.2L19.7,6.2L19.7,7.7L18,7.7L18,7.3L19.3,7.3L19.3,5.8L25.7,5.8L25.7,7.3L27.2,7.3z" stroke="none"/><path d="M16.5,11.8L16.5,12.2L7.3,12.2L7.3,9L7.7,9L7.7,11.8z" stroke="none"/><path d="M9.2,10.5L8.8,10.5L8.8,7.7L6.2,7.7L6.2,9.2L1.7,9.2L1.7,13.3L17.8,13.3L17.8,11.8L19.5,11.8L19.5,12.2L18.2,12.2L18.2,13.7L1.3,13.7L1.3,8.8L5.8,8.8L5.8,7.3L9.2,7.3z" stroke="none"/><path d="M15.2,4.5L14.8,4.5L14.8,3.2L10.7,3.2L10.7,4.7L7.7,4.7L7.7,6.2L4.7,6.2L4.7,7.7L3,7.7L3,7.3L4.3,7.3L4.3,5.8L7.3,5.8L7.3,4.3L10.3,4.3L10.3,2.8L15.2,2.8z" stroke="none"/></svg>