<svg version="1.1" width="30" height="15" xmlns="http://www.w3.org/2000/svg"><path d="M18.2,2.8L18.2,4.5L17.8,4.5L17.8,3.2L13.7,3.2L13.7,4.7L10.7,4.7L10.7,6.2L7.7,6.2L7.7,7.5L7.3,7.5L7.3,5.8L10.3,5.8L10.3,4.3L13.3,4.3L13.3,3.2L10.5,3.2L10.5,2.8z" stroke="none"/><path d="M2.8,5.8L2.8,4.3L4.3,4.3L4.3,2.8L7.7,2.8L7.7,4.5L7.3,4.5L7.3,3.2L4.7,3.2L4.7,4.7L3.2,4.7L3.2,5.8L5.8,5.8L5.8,4.5L6.2,4.5L6.2,6.2L3.2,6.2L3.2,7.3L6.2,7.3L6.2,9L5.8,9L5.8,7.7L2.8,7.7L2.8,6.2L1.7,6.2L1.7,8.8L4.7,8.8L4.7,10.3L8.8,10.3L8.8,7.5L9.2,7.5L9.2,10.7L4.3,10.7L4.3,9.2L1.3,9.2L1.3,5.8z" stroke="none"/><path d="M22.5,9.2L22.5,8.8L25.5,8.8L25.5,9.2z" stroke="none"/><path d="M16.3,10.5L16.7,10.5L16.7,12.2L13.3,12.2L13.3,10.5L13.7,10.5L13.7,11.8L16.3,11.8z" stroke="none"/><path d="M20.8,7.5L21.2,7.5L21.2,12L20.8,12z" stroke="none"/><path d="M25.5,7.7L25.5,7.3L27.2,7.3L27.2,10.7L25.7,10.7L25.7,12.2L24,12.2L24,11.8L25.3,11.8L25.3,10.3L26.8,10.3L26.8,7.7z" stroke="none"/><path d="M22.7,7.5L22.3,7.5L22.3,6.2L18,6.2L18,5.8L22.7,5.8z" stroke="none"/><path d="M15.2,10.5L14.8,10.5L14.8,6.2L12,6.2L12,5.8L15.2,5.8z" stroke="none"/><path d="M19.5,3.2L19.5,2.8L27.2,2.8L27.2,5.8L28.7,5.8L28.7,13.7L11.8,13.7L11.8,8.8L13.3,8.8L13.3,7.5L13.7,7.5L13.7,9.2L12.2,9.2L12.2,13.3L28.3,13.3L28.3,6.2L26.8,6.2L26.8,3.2z" stroke="none"/><path d="M10.5,11.8L10.5,12.2L3,12.2L3,11.8z" stroke="none"/></svg>