<svg version="1.1" width="30" height="15" xmlns="http://www.w3.org/2000/svg"><path d="M14.8,7.3L14.8,4.5L15.2,4.5L15.2,7.3L21.2,7.3L21.2,9L20.8,9L20.8,7.7L11.8,7.7L11.8,6.2L8.8,6.2L8.8,4.5L9.2,4.5L9.2,5.8L12.2,5.8L12.2,7.3z" stroke="none"/><path d="M5.8,10.3L5.8,7.5L6.2,7.5L6.2,10.3L10.7,10.3L10.7,11.8L13.5,11.8L13.5,12.2L10.3,12.2L10.3,10.7L6.2,10.7L6.2,12.2L3,12.2L3,11.8L5.8,11.8L5.8,10.7L3,10.7L3,10.3z" stroke="none"/><path d="M24,10.7L24,10.3L25.3,10.3L25.3,8.8L27,8.8L27,9.2L25.7,9.2L25.7,10.7z" stroke="none"/><path d="M19.3,9L19.7,9L19.7,10.3L22.7,10.3L22.7,11.8L24,11.8L24,12.2L22.3,12.2L22.3,10.7L19.3,10.7z" stroke="none"/><path d="M27,2.8L27,3.2L19.5,3.2L19.5,2.8z" stroke="none"/><path d="M25.5,7.3L25.5,7.7L22.3,7.7L22.3,6.2L20.8,6.2L20.8,4.7L18,4.7L18,4.3L21.2,4.3L21.2,5.8L22.7,5.8L22.7,7.3z" stroke="none"/><path d="M12,10.7L12,10.3L13.3,10.3L13.3,8.8L16.7,8.8L16.7,11.8L18.2,11.8L18.2,13.3L28.3,13.3L28.3,1.7L16.7,1.7L16.7,5.8L19.5,5.8L19.5,6.2L16.3,6.2L16.3,1.3L28.7,1.3L28.7,13.7L17.8,13.7L17.8,12.2L16.3,12.2L16.3,9.2L13.7,9.2L13.7,10.7z" stroke="none"/><path d="M3,9.2L3,8.8L4.3,8.8L4.3,5.8L7.7,5.8L7.7,7.3L10.7,7.3L10.7,8.8L12,8.8L12,9.2L10.3,9.2L10.3,7.7L7.3,7.7L7.3,6.2L4.7,6.2L4.7,9.2z" stroke="none"/><path d="M3,3.2L3,2.8L10.7,2.8L10.7,4.3L12,4.3L12,4.7L10.3,4.7L10.3,3.2z" stroke="none"/><path d="M2.8,6L3.2,6L3.2,7.7L1.7,7.7L1.7,13.3L14.8,13.3L14.8,10.5L15.2,10.5L15.2,13.7L1.3,13.7L1.3,7.3L2.8,7.3z" stroke="none"/></svg>