<svg version="1.1" width="30" height="15" xmlns="http://www.w3.org/2000/svg"><path d="M7.3,4.3L12.2,4.3L12.2,5.8L13.7,5.8L13.7,7.3L15.2,7.3L15.2,10.5L14.8,10.5L14.8,7.7L13.3,7.7L13.3,6.2L11.8,6.2L11.8,4.7L7.7,4.7L7.7,7.3L8.8,7.3L8.8,5.8L10.5,5.8L10.5,6.2L9.2,6.2L9.2,7.7L7.7,7.7L7.7,8.8L9.2,8.8L9.2,10.5L8.8,10.5L8.8,9.2L7.3,9.2z" stroke="none"/><path d="M19.3,5.8L19.3,4.3L24.2,4.3L24.2,10.5L23.8,10.5L23.8,4.7L19.7,4.7L19.7,5.8L22.5,5.8L22.5,6.2L19.7,6.2L19.7,9L19.3,9L19.3,6.2L17.8,6.2L17.8,2.8L22.3,2.8L22.3,1.3L27.2,1.3L27.2,6L26.8,6L26.8,1.7L22.7,1.7L22.7,3.2L18.2,3.2L18.2,5.8z" stroke="none"/><path d="M25.5,2.8L25.5,3.2L24,3.2L24,2.8z" stroke="none"/><path d="M27.2,12L26.8,12L26.8,10.5L27.2,10.5z" stroke="none"/><path d="M10.7,12L10.3,12L10.3,8.8L12,8.8L12,9.2L10.7,9.2z" stroke="none"/><path d="M24,12.2L24,11.8L25.3,11.8L25.3,9L25.7,9L25.7,12.2z" stroke="none"/><path d="M4.7,10.5L4.3,10.5L4.3,6L4.7,6z" stroke="none"/><path d="M7.5,10.3L7.5,10.7L6.2,10.7L6.2,12.2L2.8,12.2L2.8,9L3.2,9L3.2,11.8L5.8,11.8L5.8,10.3z" stroke="none"/><path d="M22.5,11.8L22.5,12.2L19.3,12.2L19.3,10.7L18,10.7L18,10.3L19.7,10.3L19.7,11.8z" stroke="none"/><path d="M4.5,4.7L4.5,4.3L5.8,4.3L5.8,2.8L13.7,2.8L13.7,4.3L15,4.3L15,4.7L13.3,4.7L13.3,3.2L6.2,3.2L6.2,4.7z" stroke="none"/></svg>