<svg version="1.1" width="30" height="15" xmlns="http://www.w3.org/2000/svg"><path d="M19.3,2.8L19.3,1.7L13.7,1.7L13.7,4.7L12,4.7L12,4.3L13.3,4.3L13.3,1.3L19.7,1.3L19.7,5.8L21.2,5.8L21.2,7.5L20.8,7.5L20.8,6.2L19.3,6.2L19.3,3.2L16.7,3.2L16.7,4.5L16.3,4.5L16.3,2.8z" stroke="none"/><path d="M25.3,11.8L25.3,9L25.7,9L25.7,11.8L26.8,11.8L26.8,7.7L24,7.7L24,7.3L27.2,7.3L27.2,12.2L25.7,12.2L25.7,13.7L19.3,13.7L19.3,12.2L18,12.2L18,11.8L19.7,11.8L19.7,13.3L25.3,13.3L25.3,12.2L22.5,12.2L22.5,11.8z" stroke="none"/><path d="M22.3,4.5L22.7,4.5L22.7,5.8L24,5.8L24,6.2L22.3,6.2z" stroke="none"/><path d="M14.8,3L15.2,3L15.2,6.2L10.3,6.2L10.3,2.8L12,2.8L12,3.2L10.7,3.2L10.7,5.8L14.8,5.8z" stroke="none"/><path d="M7.7,6L7.3,6L7.3,4.7L4.3,4.7L4.3,3L4.7,3L4.7,4.3L7.7,4.3z" stroke="none"/><path d="M15,11.8L15,12.2L10.5,12.2L10.5,11.8z" stroke="none"/><path d="M6.2,12L5.8,12L5.8,10.3L10.3,10.3L10.3,9L10.7,9L10.7,10.7L6.2,10.7z" stroke="none"/><path d="M9,2.8L9,3.2L5.8,3.2L5.8,1.7L3.2,1.7L3.2,3L2.8,3L2.8,1.3L6.2,1.3L6.2,2.8z" stroke="none"/><path d="M9.2,9L8.8,9L8.8,7.3L16.3,7.3L16.3,5.8L18,5.8L18,6.2L16.7,6.2L16.7,7.7L9.2,7.7z" stroke="none"/><path d="M19.3,7.5L19.7,7.5L19.7,9.2L18.2,9.2L18.2,10.7L16.7,10.7L16.7,13.7L8.8,13.7L8.8,12.2L7.5,12.2L7.5,11.8L9.2,11.8L9.2,13.3L16.3,13.3L16.3,10.3L17.8,10.3L17.8,8.8L19.3,8.8z" stroke="none"/></svg>