<svg version="1.1" width="30" height="15" xmlns="http://www.w3.org/2000/svg"><path d="M16.7,2.8L16.7,4.5L16.3,4.5L16.3,3.2L12.2,3.2L12.2,4.7L10.7,4.7L10.7,7.7L9.2,7.7L9.2,9.2L7.5,9.2L7.5,8.8L8.8,8.8L8.8,7.3L10.3,7.3L10.3,4.3L11.8,4.3L11.8,3.2L4.7,3.2L4.7,4.5L4.3,4.5L4.3,2.8z" stroke="none"/><path d="M16.3,7.3L16.3,5.8L17.8,5.8L17.8,4.3L21.2,4.3L21.2,5.8L22.7,5.8L22.7,7.3L24,7.3L24,7.7L22.3,7.7L22.3,6.2L20.8,6.2L20.8,4.7L18.2,4.7L18.2,6.2L16.7,6.2L16.7,7.3L18.2,7.3L18.2,10.5L17.8,10.5L17.8,7.7L16.7,7.7L16.7,10.5L16.3,10.5L16.3,7.7L15.2,7.7L15.2,9.2L13.7,9.2L13.7,10.7L12,10.7L12,10.3L13.3,10.3L13.3,8.8L14.8,8.8L14.8,7.3z" stroke="none"/><path d="M24,12.2L24,11.8L25.5,11.8L25.5,12.2z" stroke="none"/><path d="M3.2,9L2.8,9L2.8,7.3L4.5,7.3L4.5,7.7L3.2,7.7z" stroke="none"/><path d="M11.8,6L12.2,6L12.2,9L11.8,9z" stroke="none"/><path d="M7.5,10.3L7.5,10.7L5.8,10.7L5.8,7.3L7.5,7.3L7.5,7.7L6.2,7.7L6.2,10.3z" stroke="none"/><path d="M13.5,11.8L13.5,12.2L10.3,12.2L10.3,9L10.7,9L10.7,11.8z" stroke="none"/><path d="M22.7,12L22.3,12L22.3,10.3L25.3,10.3L25.3,8.8L27,8.8L27,9.2L25.7,9.2L25.7,10.7L22.7,10.7z" stroke="none"/><path d="M25.3,4.5L25.7,4.5L25.7,7.3L28.7,7.3L28.7,10.7L27.2,10.7L27.2,13.7L20.8,13.7L20.8,7.7L19.3,7.7L19.3,6L19.7,6L19.7,7.3L21.2,7.3L21.2,13.3L26.8,13.3L26.8,10.3L28.3,10.3L28.3,7.7L25.3,7.7z" stroke="none"/><path d="M19.5,2.8L19.5,3.2L17.8,3.2L17.8,1.7L3.2,1.7L3.2,5.8L8.8,5.8L8.8,4.5L9.2,4.5L9.2,6.2L2.8,6.2L2.8,1.3L18.2,1.3L18.2,2.8z" stroke="none"/></svg>