<svg version="1.1" width="30" height="15" xmlns="http://www.w3.org/2000/svg"><path d="M4.3,5.8L7.5,5.8L7.5,6.2L4.7,6.2L4.7,7.3L6.2,7.3L6.2,8.8L7.5,8.8L7.5,9.2L5.8,9.2L5.8,7.7L4.7,7.7L4.7,10.3L8.8,10.3L8.8,9L9.2,9L9.2,10.7L4.3,10.7z" stroke="none"/><path d="M16.3,8.8L16.3,6L16.7,6L16.7,8.8L18.2,8.8L18.2,10.3L19.5,10.3L19.5,10.7L17.8,10.7L17.8,9.2L16.7,9.2L16.7,11.8L23.8,11.8L23.8,10.5L24.2,10.5L24.2,12.2L16.3,12.2L16.3,9.2L14.8,9.2L14.8,7.7L13.3,7.7L13.3,6.2L12,6.2L12,5.8L13.7,5.8L13.7,7.3L15.2,7.3L15.2,8.8z" stroke="none"/><path d="M27.2,10.5L26.8,10.5L26.8,9L27.2,9z" stroke="none"/><path d="M16.5,4.3L16.5,4.7L15.2,4.7L15.2,6L14.8,6L14.8,4.3z" stroke="none"/><path d="M25.5,4.3L25.5,4.7L23.8,4.7L23.8,3.2L22.5,3.2L22.5,2.8L24.2,2.8L24.2,4.3z" stroke="none"/><path d="M18,3.2L18,2.8L19.7,2.8L19.7,5.8L21.2,5.8L21.2,7.5L20.8,7.5L20.8,6.2L19.3,6.2L19.3,3.2z" stroke="none"/><path d="M27.2,4.5L26.8,4.5L26.8,3.2L25.3,3.2L25.3,1.7L21.2,1.7L21.2,4.5L20.8,4.5L20.8,1.3L25.7,1.3L25.7,2.8L27.2,2.8z" stroke="none"/><path d="M7.5,4.7L7.5,4.3L13.3,4.3L13.3,2.8L15,2.8L15,3.2L13.7,3.2L13.7,4.7z" stroke="none"/><path d="M27,5.8L27,6.2L24.2,6.2L24.2,9.2L19.3,9.2L19.3,7.5L19.7,7.5L19.7,8.8L23.8,8.8L23.8,5.8z" stroke="none"/><path d="M14.8,12L15.2,12L15.2,13.3L25.3,13.3L25.3,9L25.7,9L25.7,13.7L14.8,13.7z" stroke="none"/></svg>