<svg version="1.1" width="30" height="15" xmlns="http://www.w3.org/2000/svg"><path d="M23.62142857142857,6.807142857142857L23.62142857142857,7.021428571428571L23.835714285714285,7.021428571428571L23.835714285714285,7.235714285714286L24.478571428571428,7.235714285714286L24.478571428571428,7.878571428571428L24.90714285714286,7.878571428571428L24.90714285714286,8.092857142857142L25.335714285714285,8.092857142857142L25.335714285714285,8.521428571428569L25.55,8.521428571428569L25.55,9L25.45,9L25.45,8.62142857142857L25.235714285714284,8.62142857142857L25.235714285714284,8.192857142857143L24.807142857142857,8.192857142857143L24.807142857142857,7.978571428571428L24.378571428571426,7.978571428571428L24.378571428571426,7.335714285714285L23.735714285714284,7.335714285714285L23.735714285714284,7.121428571428571L23.52142857142857,7.121428571428571L23.52142857142857,6.907142857142857L21.05,6.907142857142857L21.05,7.121428571428571L19.45,7.121428571428571L19.45,6.692857142857142L19.235714285714284,6.692857142857142L19.235714285714284,6.05L18,6.05L18,5.95L19.335714285714285,5.95L19.335714285714285,6.5928571428571425L19.55,6.5928571428571425L19.55,7.021428571428571L20.95,7.021428571428571L20.95,6.907142857142857L19.878571428571426,6.907142857142857L19.878571428571426,6.692857142857142L19.664285714285715,6.692857142857142L19.664285714285715,6.478571428571428L19.45,6.478571428571428L19.45,6L19.55,6L19.55,6.378571428571428L19.764285714285716,6.378571428571428L19.764285714285716,6.5928571428571425L19.978571428571428,6.5928571428571425L19.978571428571428,6.807142857142857z" stroke="none"/><path d="M13.664285714285715,3.8071428571428574L13.664285714285715,3.592857142857143L13.878571428571426,3.592857142857143L13.878571428571426,3.3785714285714286L14.092857142857142,3.3785714285714286L14.092857142857142,3.1642857142857146L14.307142857142857,3.1642857142857146L14.307142857142857,2.95L15,2.95L15,3.05L14.407142857142858,3.05L14.407142857142858,3.2642857142857142L14.192857142857143,3.2642857142857142L14.192857142857143,3.478571428571428L13.978571428571428,3.478571428571428L13.978571428571428,3.6928571428571426L13.764285714285716,3.6928571428571426L13.764285714285716,3.907142857142857L12.478571428571428,3.907142857142857L12.478571428571428,4.021428571428571L15.478571428571428,4.021428571428571L15.478571428571428,4.235714285714286L15.692857142857143,4.235714285714286L15.692857142857143,4.45L16.12142857142857,4.45L16.12142857142857,4.878571428571429L16.335714285714285,4.878571428571429L16.335714285714285,5.95L16.5,5.95L16.5,6.05L16.235714285714284,6.05L16.235714285714284,4.978571428571429L16.02142857142857,4.978571428571429L16.02142857142857,4.55L15.592857142857142,4.55L15.592857142857142,4.335714285714285L15.378571428571426,4.335714285714285L15.378571428571426,4.121428571428571L12.378571428571426,4.121428571428571L12.378571428571426,3.907142857142857L6.5928571428571425,3.907142857142857L6.5928571428571425,3.478571428571428L6.378571428571428,3.478571428571428L6.378571428571428,3.2642857142857142L5.95,3.2642857142857142L5.95,3L6.05,3L6.05,3.1642857142857146L6.478571428571428,3.1642857142857146L6.478571428571428,3.3785714285714286L6.692857142857142,3.3785714285714286L6.692857142857142,3.8071428571428574z" stroke="none"/><path d="M12.807142857142857,9.378571428571426L12.807142857142857,8.092857142857142L13.021428571428569,8.092857142857142L13.021428571428569,7.878571428571428L14.307142857142857,7.878571428571428L14.307142857142857,7.664285714285715L14.521428571428569,7.664285714285715L14.521428571428569,7.45L15,7.45L15,7.55L14.62142857142857,7.55L14.62142857142857,7.764285714285714L14.407142857142858,7.764285714285714L14.407142857142858,7.978571428571428L13.12142857142857,7.978571428571428L13.12142857142857,8.192857142857143L12.907142857142858,8.192857142857143L12.907142857142858,9.378571428571426L17.192857142857143,9.378571428571426L17.192857142857143,9.592857142857142L17.40714285714286,9.592857142857142L17.40714285714286,9.807142857142857L17.621428571428574,9.807142857142857L17.621428571428574,10.235714285714284L17.835714285714285,10.235714285714284L17.835714285714285,10.45L18,10.45L18,10.55L17.735714285714284,10.55L17.735714285714284,10.335714285714285L17.521428571428572,10.335714285714285L17.521428571428572,9.907142857142858L17.307142857142857,9.907142857142858L17.307142857142857,9.692857142857143L17.09285714285714,9.692857142857143L17.09285714285714,9.478571428571428L7.764285714285714,9.478571428571428L7.764285714285714,9.692857142857143L7.55,9.692857142857143L7.55,10.12142857142857L6.264285714285714,10.12142857142857L6.264285714285714,10.55L6,10.55L6,10.45L6.164285714285715,10.45L6.164285714285715,10.021428571428569L7.45,10.021428571428569L7.45,9.592857142857142L7.664285714285715,9.592857142857142L7.664285714285715,9.378571428571426z" stroke="none"/><path d="M22.021428571428572,5.307142857142857L22.021428571428572,5.0928571428571425L24.378571428571426,5.0928571428571425L24.378571428571426,4.021428571428571L24.59285714285714,4.021428571428571L24.59285714285714,2.95L25.5,2.95L25.5,3.05L24.692857142857143,3.05L24.692857142857143,4.121428571428571L24.478571428571428,4.121428571428571L24.478571428571428,5.192857142857142L22.121428571428574,5.192857142857142L22.121428571428574,5.307142857142857L22.978571428571428,5.307142857142857L22.978571428571428,5.521428571428571L23.192857142857143,5.521428571428571L23.192857142857143,5.95L24,5.95L24,6.05L23.09285714285714,6.05L23.09285714285714,5.621428571428571L22.878571428571426,5.621428571428571L22.878571428571426,5.407142857142857L22.121428571428574,5.407142857142857L22.121428571428574,5.521428571428571L22.335714285714285,5.521428571428571L22.335714285714285,5.95L22.5,5.95L22.5,6.05L22.235714285714284,6.05L22.235714285714284,5.621428571428571L22.021428571428572,5.621428571428571L22.021428571428572,5.407142857142857L20.192857142857143,5.407142857142857L20.192857142857143,5.621428571428571L17.621428571428574,5.621428571428571L17.621428571428574,7.121428571428571L17.192857142857143,7.121428571428571L17.192857142857143,7.335714285714285L16.978571428571428,7.335714285714285L16.978571428571428,7.55L16.5,7.55L16.5,7.45L16.878571428571426,7.45L16.878571428571426,7.235714285714286L17.09285714285714,7.235714285714286L17.09285714285714,7.021428571428571L17.521428571428572,7.021428571428571L17.521428571428572,5.521428571428571L20.09285714285714,5.521428571428571L20.09285714285714,5.307142857142857z" stroke="none"/><path d="M7.45,10.664285714285715L7.45,10.45L8.407142857142858,10.45L8.407142857142858,10.664285714285715L8.62142857142857,10.664285714285715L8.62142857142857,10.878571428571426L8.835714285714285,10.878571428571426L8.835714285714285,11.521428571428569L9.05,11.521428571428569L9.05,11.735714285714284L9.264285714285716,11.735714285714284L9.264285714285716,12.264285714285716L2.95,12.264285714285716L2.95,10.978571428571428L2.7357142857142858,10.978571428571428L2.7357142857142858,10.235714285714284L5.0928571428571425,10.235714285714284L5.0928571428571425,9.592857142857142L5.307142857142857,9.592857142857142L5.307142857142857,9.378571428571426L7.45,9.378571428571426L7.45,9.164285714285715L11.092857142857142,9.164285714285715L11.092857142857142,8.95L12,8.95L12,9.05L11.192857142857143,9.05L11.192857142857143,9.264285714285716L7.55,9.264285714285716L7.55,9.478571428571428L5.407142857142857,9.478571428571428L5.407142857142857,9.692857142857143L5.192857142857142,9.692857142857143L5.192857142857142,10.335714285714285L2.8357142857142854,10.335714285714285L2.8357142857142854,10.878571428571426L3.05,10.878571428571426L3.05,12.164285714285715L9.164285714285715,12.164285714285715L9.164285714285715,11.835714285714285L8.95,11.835714285714285L8.95,11.62142857142857L8.735714285714284,11.62142857142857L8.735714285714284,10.978571428571428L8.521428571428569,10.978571428571428L8.521428571428569,10.764285714285716L8.307142857142857,10.764285714285716L8.307142857142857,10.55L7.55,10.55L7.55,10.664285714285715L7.764285714285714,10.664285714285715L7.764285714285714,11.735714285714284L7.978571428571428,11.735714285714284L7.978571428571428,11.95L9,11.95L9,12.05L7.878571428571428,12.05L7.878571428571428,11.835714285714285L7.664285714285715,11.835714285714285L7.664285714285715,10.764285714285716L7.55,10.764285714285716L7.55,11.192857142857143L7.335714285714285,11.192857142857143L7.335714285714285,11.835714285714285L6.264285714285714,11.835714285714285L6.264285714285714,12.05L6,12.05L6,11.95L6.164285714285715,11.95L6.164285714285715,11.735714285714284L7.235714285714286,11.735714285714284L7.235714285714286,11.092857142857142L7.45,11.092857142857142L7.45,10.764285714285716L6.478571428571428,10.764285714285716L6.478571428571428,10.978571428571428L3.1642857142857146,10.978571428571428L3.1642857142857146,10.764285714285716L2.95,10.764285714285716L2.95,10.5L3.05,10.5L3.05,10.664285714285715L3.2642857142857142,10.664285714285715L3.2642857142857142,10.878571428571426L6.378571428571428,10.878571428571426L6.378571428571428,10.664285714285715z" stroke="none"/><path d="M10.021428571428569,8.521428571428569L10.021428571428569,8.407142857142858L5.307142857142857,8.407142857142858L5.307142857142857,7.55L4.5,7.55L4.5,7.45L5.407142857142857,7.45L5.407142857142857,8.307142857142857L10.12142857142857,8.307142857142857L10.12142857142857,8.521428571428569L11.95,8.521428571428569L11.95,8.307142857142857L12.164285714285715,8.307142857142857L12.164285714285715,7.878571428571428L12.378571428571426,7.878571428571428L12.378571428571426,7.664285714285715L13.664285714285715,7.664285714285715L13.664285714285715,7.45L14.092857142857142,7.45L14.092857142857142,7.235714285714286L14.521428571428569,7.235714285714286L14.521428571428569,7.021428571428571L15.478571428571428,7.021428571428571L15.478571428571428,7.978571428571428L15.264285714285716,7.978571428571428L15.264285714285716,9.05L15,9.05L15,8.95L15.164285714285715,8.95L15.164285714285715,7.878571428571428L15.378571428571426,7.878571428571428L15.378571428571426,7.121428571428571L14.62142857142857,7.121428571428571L14.62142857142857,7.335714285714285L14.192857142857143,7.335714285714285L14.192857142857143,7.55L13.764285714285716,7.55L13.764285714285716,7.764285714285714L12.478571428571428,7.764285714285714L12.478571428571428,7.978571428571428L12.264285714285716,7.978571428571428L12.264285714285716,8.407142857142858L12.05,8.407142857142858L12.05,8.62142857142857L10.12142857142857,8.62142857142857L10.12142857142857,8.835714285714285L6.264285714285714,8.835714285714285L6.264285714285714,9.264285714285716L4.235714285714286,9.264285714285716L4.235714285714286,7.235714285714286L13.878571428571426,7.235714285714286L13.878571428571426,6.807142857142857L15.692857142857143,6.807142857142857L15.692857142857143,8.735714285714284L15.907142857142858,8.735714285714284L15.907142857142858,8.95L16.5,8.95L16.5,9.05L15.807142857142857,9.05L15.807142857142857,8.835714285714285L15.592857142857142,8.835714285714285L15.592857142857142,6.907142857142857L13.978571428571428,6.907142857142857L13.978571428571428,7.335714285714285L4.335714285714285,7.335714285714285L4.335714285714285,9.164285714285715L6.164285714285715,9.164285714285715L6.164285714285715,8.735714285714284L10.021428571428569,8.735714285714284L10.021428571428569,8.62142857142857L6.05,8.62142857142857L6.05,9.05L4.5,9.05L4.5,8.95L5.95,8.95L5.95,8.521428571428569z" stroke="none"/><path d="M21,8.95L21,9.05L19.5,9.05L19.5,8.95z" stroke="none"/><path d="M10.5,10.55L10.5,10.45L12,10.45L12,10.55z" stroke="none"/><path d="M25.45,4.5L25.55,4.5L25.55,4.878571428571429L26.40714285714286,4.878571428571429L26.40714285714286,5.0928571428571425L26.62142857142857,5.0928571428571425L26.62142857142857,5.307142857142857L26.835714285714285,5.307142857142857L26.835714285714285,5.95L27,5.95L27,6.05L26.735714285714284,6.05L26.735714285714284,5.407142857142857L26.52142857142857,5.407142857142857L26.52142857142857,5.192857142857142L26.307142857142857,5.192857142857142L26.307142857142857,4.978571428571429L25.45,4.978571428571429z" stroke="none"/><path d="M2.95,3L3.05,3L3.05,3.3785714285714286L3.907142857142857,3.3785714285714286L3.907142857142857,3.592857142857143L4.121428571428571,3.592857142857143L4.121428571428571,3.8071428571428574L4.335714285714285,3.8071428571428574L4.335714285714285,4.45L4.5,4.45L4.5,4.55L4.235714285714286,4.55L4.235714285714286,3.907142857142857L4.021428571428571,3.907142857142857L4.021428571428571,3.6928571428571426L3.8071428571428574,3.6928571428571426L3.8071428571428574,3.478571428571428L2.95,3.478571428571428z" stroke="none"/><path d="M16.45,3L16.55,3L16.55,3.592857142857143L16.764285714285716,3.592857142857143L16.764285714285716,3.8071428571428574L17.40714285714286,3.8071428571428574L17.40714285714286,4.235714285714286L17.835714285714285,4.235714285714286L17.835714285714285,4.45L18,4.45L18,4.55L17.735714285714284,4.55L17.735714285714284,4.335714285714285L17.307142857142857,4.335714285714285L17.307142857142857,3.907142857142857L16.664285714285715,3.907142857142857L16.664285714285715,3.6928571428571426L16.45,3.6928571428571426z" stroke="none"/><path d="M2.95,4.5L3.05,4.5L3.05,7.5L2.95,7.5z" stroke="none"/><path d="M27.05,9L26.95,9L26.95,8.192857142857143L26.52142857142857,8.192857142857143L26.52142857142857,7.55L25.664285714285715,7.55L25.664285714285715,7.335714285714285L25.45,7.335714285714285L25.45,6L25.55,6L25.55,7.235714285714286L25.764285714285716,7.235714285714286L25.764285714285716,7.45L26.62142857142857,7.45L26.62142857142857,8.092857142857142L27.05,8.092857142857142z" stroke="none"/><path d="M7.5,2.95L7.5,3.05L6.378571428571428,3.05L6.378571428571428,2.6214285714285714L5.621428571428571,2.6214285714285714L5.621428571428571,3.592857142857143L6.264285714285714,3.592857142857143L6.264285714285714,3.8071428571428574L6.478571428571428,3.8071428571428574L6.478571428571428,4.45L7.335714285714285,4.45L7.335714285714285,4.878571428571429L7.55,4.878571428571429L7.55,5.0928571428571425L7.978571428571428,5.0928571428571425L7.978571428571428,5.307142857142857L8.192857142857143,5.307142857142857L8.192857142857143,5.521428571428571L8.835714285714285,5.521428571428571L8.835714285714285,5.735714285714286L9.05,5.735714285714286L9.05,6L8.95,6L8.95,5.835714285714285L8.735714285714284,5.835714285714285L8.735714285714284,5.621428571428571L8.092857142857142,5.621428571428571L8.092857142857142,5.407142857142857L7.878571428571428,5.407142857142857L7.878571428571428,5.192857142857142L7.45,5.192857142857142L7.45,4.978571428571429L7.235714285714286,4.978571428571429L7.235714285714286,4.55L6.378571428571428,4.55L6.378571428571428,3.907142857142857L6.164285714285715,3.907142857142857L6.164285714285715,3.6928571428571426L5.521428571428571,3.6928571428571426L5.521428571428571,2.521428571428572L6.478571428571428,2.521428571428572L6.478571428571428,2.95z" stroke="none"/><path d="M24.05,4.5L23.95,4.5L23.95,4.021428571428571L24.164285714285715,4.021428571428571L24.164285714285715,3.8071428571428574L24.378571428571426,3.8071428571428574L24.378571428571426,2.7357142857142858L24.807142857142857,2.7357142857142858L24.807142857142857,2.521428571428572L25.978571428571428,2.521428571428572L25.978571428571428,3.478571428571428L25.764285714285716,3.478571428571428L25.764285714285716,3.6928571428571426L25.55,3.6928571428571426L25.55,3.907142857142857L25.335714285714285,3.907142857142857L25.335714285714285,4.121428571428571L25.12142857142857,4.121428571428571L25.12142857142857,7.45L25.335714285714285,7.45L25.335714285714285,7.664285714285715L25.764285714285716,7.664285714285715L25.764285714285716,8.521428571428569L25.978571428571428,8.521428571428569L25.978571428571428,9.478571428571428L24.164285714285715,9.478571428571428L24.164285714285715,9.264285714285716L23.95,9.264285714285716L23.95,9L24.05,9L24.05,9.164285714285715L24.264285714285716,9.164285714285715L24.264285714285716,9.378571428571426L25.878571428571426,9.378571428571426L25.878571428571426,8.62142857142857L25.664285714285715,8.62142857142857L25.664285714285715,7.764285714285714L25.235714285714284,7.764285714285714L25.235714285714284,7.55L25.02142857142857,7.55L25.02142857142857,4.021428571428571L25.235714285714284,4.021428571428571L25.235714285714284,3.8071428571428574L25.45,3.8071428571428574L25.45,3.592857142857143L25.664285714285715,3.592857142857143L25.664285714285715,3.3785714285714286L25.878571428571426,3.3785714285714286L25.878571428571426,2.6214285714285714L24.90714285714286,2.6214285714285714L24.90714285714286,2.8357142857142854L24.478571428571428,2.8357142857142854L24.478571428571428,3.907142857142857L24.264285714285716,3.907142857142857L24.264285714285716,4.121428571428571L24.05,4.121428571428571z" stroke="none"/><path d="M6,4.55L6,4.45L6.264285714285714,4.45L6.264285714285714,4.664285714285715L6.907142857142857,4.664285714285715L6.907142857142857,4.878571428571429L7.121428571428571,4.878571428571429L7.121428571428571,5.0928571428571425L7.335714285714285,5.0928571428571425L7.335714285714285,5.307142857142857L7.55,5.307142857142857L7.55,5.521428571428571L7.764285714285714,5.521428571428571L7.764285714285714,5.735714285714286L8.62142857142857,5.735714285714286L8.62142857142857,6.378571428571428L9.378571428571426,6.378571428571428L9.378571428571426,4.878571428571429L9.807142857142857,4.878571428571429L9.807142857142857,4.664285714285715L10.021428571428569,4.664285714285715L10.021428571428569,4.45L10.5,4.45L10.5,4.55L10.12142857142857,4.55L10.12142857142857,4.764285714285714L9.907142857142858,4.764285714285714L9.907142857142858,4.978571428571429L9.478571428571428,4.978571428571429L9.478571428571428,6.478571428571428L8.521428571428569,6.478571428571428L8.521428571428569,5.835714285714285L7.664285714285715,5.835714285714285L7.664285714285715,5.621428571428571L7.45,5.621428571428571L7.45,5.407142857142857L7.235714285714286,5.407142857142857L7.235714285714286,5.192857142857142L7.021428571428571,5.192857142857142L7.021428571428571,4.978571428571429L6.807142857142857,4.978571428571429L6.807142857142857,4.764285714285714L6.164285714285715,4.764285714285714L6.164285714285715,4.55z" stroke="none"/><path d="M22.55,4.5L22.45,4.5L22.45,3.1642857142857146L22.664285714285715,3.1642857142857146L22.664285714285715,2.7357142857142858L23.307142857142857,2.7357142857142858L23.307142857142857,2.521428571428572L23.95,2.521428571428572L23.95,2.3071428571428574L26.192857142857143,2.3071428571428574L26.192857142857143,3.592857142857143L26.40714285714286,3.592857142857143L26.40714285714286,4.235714285714286L26.835714285714285,4.235714285714286L26.835714285714285,4.45L27,4.45L27,4.55L26.735714285714284,4.55L26.735714285714284,4.335714285714285L26.307142857142857,4.335714285714285L26.307142857142857,3.6928571428571426L26.09285714285714,3.6928571428571426L26.09285714285714,2.407142857142857L24.05,2.407142857142857L24.05,2.6214285714285714L23.40714285714286,2.6214285714285714L23.40714285714286,2.8357142857142854L22.764285714285716,2.8357142857142854L22.764285714285716,3.2642857142857142L22.55,3.2642857142857142z" stroke="none"/><path d="M22.5,10.55L22.5,10.45L22.978571428571428,10.45L22.978571428571428,10.664285714285715L23.62142857142857,10.664285714285715L23.62142857142857,10.878571428571426L26.40714285714286,10.878571428571426L26.40714285714286,11.092857142857142L26.62142857142857,11.092857142857142L26.62142857142857,11.521428571428569L26.835714285714285,11.521428571428569L26.835714285714285,11.95L27,11.95L27,12.05L26.735714285714284,12.05L26.735714285714284,11.62142857142857L26.52142857142857,11.62142857142857L26.52142857142857,11.192857142857143L26.307142857142857,11.192857142857143L26.307142857142857,10.978571428571428L23.52142857142857,10.978571428571428L23.52142857142857,10.764285714285716L22.878571428571426,10.764285714285716L22.878571428571426,10.55z" stroke="none"/><path d="M19.45,3L19.55,3L19.55,4.121428571428571L19.335714285714285,4.121428571428571L19.335714285714285,4.335714285714285L19.121428571428574,4.335714285714285L19.121428571428574,4.55L18.90714285714286,4.55L18.90714285714286,4.764285714285714L18.478571428571428,4.764285714285714L18.478571428571428,4.978571428571429L17.835714285714285,4.978571428571429L17.835714285714285,5.407142857142857L17.40714285714286,5.407142857142857L17.40714285714286,5.835714285714285L17.192857142857143,5.835714285714285L17.192857142857143,6.264285714285714L16.978571428571428,6.264285714285714L16.978571428571428,6.478571428571428L16.764285714285716,6.478571428571428L16.764285714285716,6.907142857142857L16.55,6.907142857142857L16.55,7.121428571428571L16.12142857142857,7.121428571428571L16.12142857142857,7.878571428571428L17.307142857142857,7.878571428571428L17.307142857142857,7.664285714285715L17.735714285714284,7.664285714285715L17.735714285714284,7.45L18,7.45L18,7.55L17.835714285714285,7.55L17.835714285714285,7.764285714285714L17.40714285714286,7.764285714285714L17.40714285714286,7.978571428571428L16.02142857142857,7.978571428571428L16.02142857142857,7.021428571428571L16.45,7.021428571428571L16.45,6.807142857142857L16.664285714285715,6.807142857142857L16.664285714285715,6.378571428571428L16.878571428571426,6.378571428571428L16.878571428571426,6.164285714285715L17.09285714285714,6.164285714285715L17.09285714285714,5.735714285714286L17.307142857142857,5.735714285714286L17.307142857142857,5.307142857142857L17.735714285714284,5.307142857142857L17.735714285714284,4.878571428571429L18.378571428571426,4.878571428571429L18.378571428571426,4.664285714285715L18.807142857142857,4.664285714285715L18.807142857142857,4.45L19.021428571428572,4.45L19.021428571428572,4.235714285714286L19.235714285714284,4.235714285714286L19.235714285714284,4.021428571428571L19.45,4.021428571428571z" stroke="none"/><path d="M10.5,2.95L10.5,3.05L7.878571428571428,3.05L7.878571428571428,2.6214285714285714L6.5928571428571425,2.6214285714285714L6.5928571428571425,2.407142857142857L5.407142857142857,2.407142857142857L5.407142857142857,2.8357142857142854L4.978571428571429,2.8357142857142854L4.978571428571429,3.05L4.5,3.05L4.5,2.95L4.878571428571429,2.95L4.878571428571429,2.7357142857142858L5.307142857142857,2.7357142857142858L5.307142857142857,2.3071428571428574L6.692857142857142,2.3071428571428574L6.692857142857142,2.521428571428572L7.978571428571428,2.521428571428572L7.978571428571428,2.95z" stroke="none"/><path d="M25.5,11.95L25.5,12.05L24.378571428571426,12.05L24.378571428571426,11.62142857142857L20.09285714285714,11.62142857142857L20.09285714285714,10.978571428571428L19.878571428571426,10.978571428571428L19.878571428571426,10.764285714285716L19.45,10.764285714285716L19.45,10.5L19.55,10.5L19.55,10.664285714285715L19.978571428571428,10.664285714285715L19.978571428571428,10.878571428571426L20.192857142857143,10.878571428571426L20.192857142857143,11.521428571428569L24.478571428571428,11.521428571428569L24.478571428571428,11.95z" stroke="none"/><path d="M24,10.45L24,10.55L23.52142857142857,10.55L23.52142857142857,10.335714285714285L22.878571428571426,10.335714285714285L22.878571428571426,10.12142857142857L19.121428571428574,10.12142857142857L19.121428571428574,11.62142857142857L18.90714285714286,11.62142857142857L18.90714285714286,11.835714285714285L18.264285714285716,11.835714285714285L18.264285714285716,12.05L18,12.05L18,11.95L18.164285714285715,11.95L18.164285714285715,11.735714285714284L18.807142857142857,11.735714285714284L18.807142857142857,11.521428571428569L19.021428571428572,11.521428571428569L19.021428571428572,10.021428571428569L22.978571428571428,10.021428571428569L22.978571428571428,10.235714285714284L23.62142857142857,10.235714285714284L23.62142857142857,10.45z" stroke="none"/><path d="M27,10.45L27,10.55L26.09285714285714,10.55L26.09285714285714,10.12142857142857L23.09285714285714,10.12142857142857L23.09285714285714,9.907142857142858L22.235714285714284,9.907142857142858L22.235714285714284,9.478571428571428L22.021428571428572,9.478571428571428L22.021428571428572,8.835714285714285L21.59285714285714,8.835714285714285L21.59285714285714,8.407142857142858L21.378571428571426,8.407142857142858L21.378571428571426,7.978571428571428L21.164285714285715,7.978571428571428L21.164285714285715,7.55L21,7.55L21,7.45L21.264285714285716,7.45L21.264285714285716,7.878571428571428L21.478571428571428,7.878571428571428L21.478571428571428,8.307142857142857L21.692857142857143,8.307142857142857L21.692857142857143,8.735714285714284L22.121428571428574,8.735714285714284L22.121428571428574,9.378571428571426L22.335714285714285,9.378571428571426L22.335714285714285,9.807142857142857L23.192857142857143,9.807142857142857L23.192857142857143,10.021428571428569L26.192857142857143,10.021428571428569L26.192857142857143,10.45z" stroke="none"/><path d="M22.5,11.95L22.5,12.05L19.55,12.05L19.55,12.264285714285716L18.478571428571428,12.264285714285716L18.478571428571428,12.478571428571428L15.378571428571426,12.478571428571428L15.378571428571426,12.264285714285716L14.95,12.264285714285716L14.95,12L15.05,12L15.05,12.164285714285715L15.478571428571428,12.164285714285715L15.478571428571428,12.378571428571426L18.378571428571426,12.378571428571426L18.378571428571426,12.164285714285715L19.45,12.164285714285715L19.45,11.95z" stroke="none"/><path d="M10.5,5.95L10.5,6.05L9.692857142857143,6.05L9.692857142857143,6.692857142857142L8.307142857142857,6.692857142857142L8.307142857142857,6.05L7.45,6.05L7.45,5.835714285714285L6.807142857142857,5.835714285714285L6.807142857142857,5.407142857142857L5.95,5.407142857142857L5.95,4.978571428571429L5.307142857142857,4.978571428571429L5.307142857142857,4.335714285714285L4.878571428571429,4.335714285714285L4.878571428571429,3.907142857142857L4.664285714285715,3.907142857142857L4.664285714285715,3.6928571428571426L4.235714285714286,3.6928571428571426L4.235714285714286,3.478571428571428L4.021428571428571,3.478571428571428L4.021428571428571,2.521428571428572L5.0928571428571425,2.521428571428572L5.0928571428571425,2.092857142857143L16.764285714285716,2.092857142857143L16.764285714285716,2.3071428571428574L17.40714285714286,2.3071428571428574L17.40714285714286,2.7357142857142858L17.621428571428574,2.7357142857142858L17.621428571428574,2.95L18,2.95L18,3.05L17.521428571428572,3.05L17.521428571428572,2.8357142857142854L17.307142857142857,2.8357142857142854L17.307142857142857,2.407142857142857L16.664285714285715,2.407142857142857L16.664285714285715,2.1928571428571426L5.192857142857142,2.1928571428571426L5.192857142857142,2.6214285714285714L4.121428571428571,2.6214285714285714L4.121428571428571,3.3785714285714286L4.335714285714285,3.3785714285714286L4.335714285714285,3.592857142857143L4.764285714285714,3.592857142857143L4.764285714285714,3.8071428571428574L4.978571428571429,3.8071428571428574L4.978571428571429,4.235714285714286L5.407142857142857,4.235714285714286L5.407142857142857,4.878571428571429L6.05,4.878571428571429L6.05,5.307142857142857L6.907142857142857,5.307142857142857L6.907142857142857,5.735714285714286L7.55,5.735714285714286L7.55,5.95L8.407142857142858,5.95L8.407142857142858,6.5928571428571425L9.592857142857142,6.5928571428571425L9.592857142857142,5.95z" stroke="none"/><path d="M10.5,11.95L10.5,12.05L9.478571428571428,12.05L9.478571428571428,12.478571428571428L2.7357142857142858,12.478571428571428L2.7357142857142858,11.62142857142857L2.521428571428572,11.62142857142857L2.521428571428572,9.378571428571426L2.7357142857142858,9.378571428571426L2.7357142857142858,8.95L3,8.95L3,9.05L2.8357142857142854,9.05L2.8357142857142854,9.478571428571428L2.6214285714285714,9.478571428571428L2.6214285714285714,11.521428571428569L2.8357142857142854,11.521428571428569L2.8357142857142854,12.378571428571426L9.378571428571426,12.378571428571426L9.378571428571426,11.95z" stroke="none"/><path d="M4.5,6.05L4.5,5.95L7.335714285714285,5.95L7.335714285714285,6.164285714285715L7.764285714285714,6.164285714285715L7.764285714285714,6.378571428571428L7.978571428571428,6.378571428571428L7.978571428571428,6.5928571428571425L8.192857142857143,6.5928571428571425L8.192857142857143,6.807142857142857L13.235714285714284,6.807142857142857L13.235714285714284,6.5928571428571425L13.664285714285715,6.5928571428571425L13.664285714285715,6.164285714285715L13.878571428571426,6.164285714285715L13.878571428571426,5.735714285714286L14.307142857142857,5.735714285714286L14.307142857142857,5.521428571428571L14.521428571428569,5.521428571428571L14.521428571428569,4.45L15,4.45L15,4.55L14.62142857142857,4.55L14.62142857142857,5.621428571428571L14.407142857142858,5.621428571428571L14.407142857142858,5.835714285714285L13.978571428571428,5.835714285714285L13.978571428571428,6.264285714285714L13.764285714285716,6.264285714285714L13.764285714285716,6.692857142857142L13.335714285714285,6.692857142857142L13.335714285714285,6.907142857142857L8.092857142857142,6.907142857142857L8.092857142857142,6.692857142857142L7.878571428571428,6.692857142857142L7.878571428571428,6.478571428571428L7.664285714285715,6.478571428571428L7.664285714285715,6.264285714285714L7.235714285714286,6.264285714285714L7.235714285714286,6.05z" stroke="none"/><path d="M24,11.95L24,12.05L23.62142857142857,12.05L23.62142857142857,12.264285714285716L22.978571428571428,12.264285714285716L22.978571428571428,12.478571428571428L19.121428571428574,12.478571428571428L19.121428571428574,12.692857142857143L14.092857142857142,12.692857142857143L14.092857142857142,12.478571428571428L13.878571428571426,12.478571428571428L13.878571428571426,11.62142857142857L13.664285714285715,11.62142857142857L13.664285714285715,10.764285714285716L13.45,10.764285714285716L13.45,10.5L13.55,10.5L13.55,10.664285714285715L13.764285714285716,10.664285714285715L13.764285714285716,11.521428571428569L13.978571428571428,11.521428571428569L13.978571428571428,12.378571428571426L14.192857142857143,12.378571428571426L14.192857142857143,12.592857142857142L19.021428571428572,12.592857142857142L19.021428571428572,12.378571428571426L22.878571428571426,12.378571428571426L22.878571428571426,12.164285714285715L23.52142857142857,12.164285714285715L23.52142857142857,11.95z" stroke="none"/><path d="M25.5,10.55L25.5,10.45L25.764285714285716,10.45L25.764285714285716,10.664285714285715L26.62142857142857,10.664285714285715L26.62142857142857,10.878571428571426L27.05,10.878571428571426L27.05,11.092857142857142L27.264285714285716,11.092857142857142L27.264285714285716,11.307142857142857L27.478571428571428,11.307142857142857L27.478571428571428,12.478571428571428L23.192857142857143,12.478571428571428L23.192857142857143,12.692857142857143L19.55,12.692857142857143L19.55,12.907142857142858L13.878571428571426,12.907142857142858L13.878571428571426,12.692857142857143L13.664285714285715,12.692857142857143L13.664285714285715,11.835714285714285L13.45,11.835714285714285L13.45,11.192857142857143L13.235714285714284,11.192857142857143L13.235714285714284,10.978571428571428L13.021428571428569,10.978571428571428L13.021428571428569,10.021428571428569L15.692857142857143,10.021428571428569L15.692857142857143,10.235714285714284L16.335714285714285,10.235714285714284L16.335714285714285,10.45L17.40714285714286,10.45L17.40714285714286,10.878571428571426L18.378571428571426,10.878571428571426L18.378571428571426,9.907142857142858L17.95,9.907142857142858L17.95,9.692857142857143L17.521428571428572,9.692857142857143L17.521428571428572,9.478571428571428L17.307142857142857,9.478571428571428L17.307142857142857,9.264285714285716L16.878571428571426,9.264285714285716L16.878571428571426,8.62142857142857L16.02142857142857,8.62142857142857L16.02142857142857,8.407142857142858L15.807142857142857,8.407142857142858L15.807142857142857,6.264285714285714L15.164285714285715,6.264285714285714L15.164285714285715,6.05L15,6.05L15,5.95L15.264285714285716,5.95L15.264285714285716,6.164285714285715L15.907142857142858,6.164285714285715L15.907142857142858,8.307142857142857L16.12142857142857,8.307142857142857L16.12142857142857,8.521428571428569L16.978571428571428,8.521428571428569L16.978571428571428,9.164285714285715L17.40714285714286,9.164285714285715L17.40714285714286,9.378571428571426L17.621428571428574,9.378571428571426L17.621428571428574,9.592857142857142L18.05,9.592857142857142L18.05,9.807142857142857L18.478571428571428,9.807142857142857L18.478571428571428,10.978571428571428L17.307142857142857,10.978571428571428L17.307142857142857,10.55L16.235714285714284,10.55L16.235714285714284,10.335714285714285L15.592857142857142,10.335714285714285L15.592857142857142,10.12142857142857L13.12142857142857,10.12142857142857L13.12142857142857,10.878571428571426L13.335714285714285,10.878571428571426L13.335714285714285,11.092857142857142L13.55,11.092857142857142L13.55,11.735714285714284L13.764285714285716,11.735714285714284L13.764285714285716,12.592857142857142L13.978571428571428,12.592857142857142L13.978571428571428,12.807142857142857L19.45,12.807142857142857L19.45,12.592857142857142L23.09285714285714,12.592857142857142L23.09285714285714,12.378571428571426L27.378571428571426,12.378571428571426L27.378571428571426,11.407142857142858L27.164285714285715,11.407142857142858L27.164285714285715,11.192857142857143L26.95,11.192857142857143L26.95,10.978571428571428L26.52142857142857,10.978571428571428L26.52142857142857,10.764285714285716L25.664285714285715,10.764285714285716L25.664285714285715,10.55z" stroke="none"/><path d="M24,2.95L24,3.05L23.835714285714285,3.05L23.835714285714285,3.478571428571428L23.62142857142857,3.478571428571428L23.62142857142857,3.6928571428571426L23.40714285714286,3.6928571428571426L23.40714285714286,4.764285714285714L22.978571428571428,4.764285714285714L22.978571428571428,4.978571428571429L22.021428571428572,4.978571428571429L22.021428571428572,4.335714285714285L21.807142857142857,4.335714285714285L21.807142857142857,4.121428571428571L20.307142857142857,4.121428571428571L20.307142857142857,3.6928571428571426L20.09285714285714,3.6928571428571426L20.09285714285714,3.478571428571428L19.878571428571426,3.478571428571428L19.878571428571426,2.6214285714285714L19.121428571428574,2.6214285714285714L19.121428571428574,3.2642857142857142L18.478571428571428,3.2642857142857142L18.478571428571428,3.478571428571428L17.09285714285714,3.478571428571428L17.09285714285714,3.05L16.878571428571426,3.05L16.878571428571426,2.6214285714285714L13.335714285714285,2.6214285714285714L13.335714285714285,2.8357142857142854L12.264285714285716,2.8357142857142854L12.264285714285716,3.05L12,3.05L12,2.95L12.164285714285715,2.95L12.164285714285715,2.7357142857142858L13.235714285714284,2.7357142857142858L13.235714285714284,2.521428571428572L16.978571428571428,2.521428571428572L16.978571428571428,2.95L17.192857142857143,2.95L17.192857142857143,3.3785714285714286L18.378571428571426,3.3785714285714286L18.378571428571426,3.1642857142857146L19.021428571428572,3.1642857142857146L19.021428571428572,2.521428571428572L19.978571428571428,2.521428571428572L19.978571428571428,3.3785714285714286L20.192857142857143,3.3785714285714286L20.192857142857143,3.592857142857143L20.40714285714286,3.592857142857143L20.40714285714286,4.021428571428571L21.90714285714286,4.021428571428571L21.90714285714286,4.235714285714286L22.121428571428574,4.235714285714286L22.121428571428574,4.878571428571429L22.878571428571426,4.878571428571429L22.878571428571426,4.664285714285715L23.307142857142857,4.664285714285715L23.307142857142857,3.592857142857143L23.52142857142857,3.592857142857143L23.52142857142857,3.3785714285714286L23.735714285714284,3.3785714285714286L23.735714285714284,2.95z" stroke="none"/></svg>