<svg version="1.1" width="30" height="15" xmlns="http://www.w3.org/2000/svg"><path d="M21.59285714285714,5.0928571428571425L21.59285714285714,4.235714285714286L22.021428571428572,4.235714285714286L22.021428571428572,4.021428571428571L22.878571428571426,4.021428571428571L22.878571428571426,3.592857142857143L23.52142857142857,3.592857142857143L23.52142857142857,3.3785714285714286L23.95,3.3785714285714286L23.95,3L24.05,3L24.05,3.478571428571428L23.62142857142857,3.478571428571428L23.62142857142857,3.6928571428571426L22.978571428571428,3.6928571428571426L22.978571428571428,4.121428571428571L22.121428571428574,4.121428571428571L22.121428571428574,4.335714285714285L21.692857142857143,4.335714285714285L21.692857142857143,5.192857142857142L19.55,5.192857142857142L19.55,5.621428571428571L19.335714285714285,5.621428571428571L19.335714285714285,5.835714285714285L18.264285714285716,5.835714285714285L18.264285714285716,6.05L18,6.05L18,5.95L18.164285714285715,5.95L18.164285714285715,5.735714285714286L19.235714285714284,5.735714285714286L19.235714285714284,5.521428571428571L19.45,5.521428571428571L19.45,5.192857142857142L16.978571428571428,5.192857142857142L16.978571428571428,5.407142857142857L16.764285714285716,5.407142857142857L16.764285714285716,6.05L16.5,6.05L16.5,5.95L16.664285714285715,5.95L16.664285714285715,5.307142857142857L16.878571428571426,5.307142857142857L16.878571428571426,5.0928571428571425z" stroke="none"/><path d="M12.907142857142858,10.45L12.907142857142858,10.664285714285715L13.12142857142857,10.664285714285715L13.12142857142857,10.878571428571426L17.09285714285714,10.878571428571426L17.09285714285714,10.664285714285715L17.521428571428572,10.664285714285715L17.521428571428572,10.45L18,10.45L18,10.55L17.621428571428574,10.55L17.621428571428574,10.764285714285716L17.192857142857143,10.764285714285716L17.192857142857143,10.978571428571428L13.021428571428569,10.978571428571428L13.021428571428569,10.764285714285716L12.807142857142857,10.764285714285716L12.807142857142857,10.55L12.692857142857143,10.55L12.692857142857143,10.764285714285716L12.478571428571428,10.764285714285716L12.478571428571428,10.978571428571428L10.764285714285716,10.978571428571428L10.764285714285716,11.192857142857143L10.335714285714285,11.192857142857143L10.335714285714285,11.62142857142857L10.12142857142857,11.62142857142857L10.12142857142857,11.835714285714285L9.478571428571428,11.835714285714285L9.478571428571428,12.05L9,12.05L9,11.95L9.378571428571426,11.95L9.378571428571426,11.735714285714284L10.021428571428569,11.735714285714284L10.021428571428569,11.521428571428569L10.235714285714284,11.521428571428569L10.235714285714284,11.092857142857142L10.664285714285715,11.092857142857142L10.664285714285715,10.878571428571426L12.378571428571426,10.878571428571426L12.378571428571426,10.664285714285715L12.592857142857142,10.664285714285715L12.592857142857142,10.55L12.378571428571426,10.55L12.378571428571426,10.12142857142857L10.664285714285715,10.12142857142857L10.664285714285715,9.264285714285716L10.45,9.264285714285716L10.45,9L10.55,9L10.55,9.164285714285715L10.764285714285716,9.164285714285715L10.764285714285716,10.021428571428569L12.478571428571428,10.021428571428569L12.478571428571428,10.45z" stroke="none"/><path d="M26.52142857142857,9.807142857142857L26.52142857142857,9.592857142857142L26.735714285714284,9.592857142857142L26.735714285714284,8.95L27,8.95L27,9.05L26.835714285714285,9.05L26.835714285714285,9.692857142857143L26.62142857142857,9.692857142857143L26.62142857142857,9.907142857142858L23.40714285714286,9.907142857142858L23.40714285714286,10.021428571428569L24.478571428571428,10.021428571428569L24.478571428571428,10.235714285714284L24.692857142857143,10.235714285714284L24.692857142857143,10.878571428571426L25.12142857142857,10.878571428571426L25.12142857142857,11.307142857142857L25.335714285714285,11.307142857142857L25.335714285714285,11.521428571428569L26.835714285714285,11.521428571428569L26.835714285714285,11.735714285714284L27.05,11.735714285714284L27.05,12L26.95,12L26.95,11.835714285714285L26.735714285714284,11.835714285714285L26.735714285714284,11.62142857142857L25.235714285714284,11.62142857142857L25.235714285714284,11.407142857142858L25.02142857142857,11.407142857142858L25.02142857142857,10.978571428571428L24.59285714285714,10.978571428571428L24.59285714285714,10.335714285714285L24.378571428571426,10.335714285714285L24.378571428571426,10.12142857142857L23.307142857142857,10.12142857142857L23.307142857142857,9.907142857142858L17.95,9.907142857142858L17.95,9.692857142857143L17.735714285714284,9.692857142857143L17.735714285714284,9.478571428571428L17.307142857142857,9.478571428571428L17.307142857142857,9.05L16.5,9.05L16.5,8.95L17.40714285714286,8.95L17.40714285714286,9.378571428571426L17.835714285714285,9.378571428571426L17.835714285714285,9.592857142857142L18.05,9.592857142857142L18.05,9.807142857142857z" stroke="none"/><path d="M11.521428571428569,8.092857142857142L11.521428571428569,7.978571428571428L10.878571428571426,7.978571428571428L10.878571428571426,7.55L10.664285714285715,7.55L10.664285714285715,7.335714285714285L9.807142857142857,7.335714285714285L9.807142857142857,7.121428571428571L9.592857142857142,7.121428571428571L9.592857142857142,6.692857142857142L9.164285714285715,6.692857142857142L9.164285714285715,6.264285714285714L7.664285714285715,6.264285714285714L7.664285714285715,6.05L7.5,6.05L7.5,5.95L7.764285714285714,5.95L7.764285714285714,6.164285714285715L9.264285714285716,6.164285714285715L9.264285714285716,6.5928571428571425L9.692857142857143,6.5928571428571425L9.692857142857143,7.021428571428571L9.907142857142858,7.021428571428571L9.907142857142858,7.235714285714286L10.764285714285716,7.235714285714286L10.764285714285716,7.45L10.978571428571428,7.45L10.978571428571428,7.878571428571428L11.62142857142857,7.878571428571428L11.62142857142857,8.092857142857142L12.907142857142858,8.092857142857142L12.907142857142858,8.307142857142857L13.12142857142857,8.307142857142857L13.12142857142857,8.521428571428569L13.55,8.521428571428569L13.55,9L13.45,9L13.45,8.62142857142857L13.021428571428569,8.62142857142857L13.021428571428569,8.407142857142858L12.807142857142857,8.407142857142858L12.807142857142857,8.192857142857143L11.62142857142857,8.192857142857143L11.62142857142857,8.307142857142857L12.692857142857143,8.307142857142857L12.692857142857143,8.735714285714284L13.12142857142857,8.735714285714284L13.12142857142857,9.164285714285715L14.192857142857143,9.164285714285715L14.192857142857143,9.592857142857142L14.407142857142858,9.592857142857142L14.407142857142858,9.807142857142857L14.835714285714285,9.807142857142857L14.835714285714285,10.235714285714284L15.05,10.235714285714284L15.05,10.5L14.95,10.5L14.95,10.335714285714285L14.735714285714284,10.335714285714285L14.735714285714284,9.907142857142858L14.307142857142857,9.907142857142858L14.307142857142857,9.692857142857143L14.092857142857142,9.692857142857143L14.092857142857142,9.264285714285716L13.021428571428569,9.264285714285716L13.021428571428569,8.835714285714285L12.592857142857142,8.835714285714285L12.592857142857142,8.407142857142858L11.521428571428569,8.407142857142858L11.521428571428569,8.192857142857143L10.45,8.192857142857143L10.45,7.5L10.55,7.5L10.55,8.092857142857142z" stroke="none"/><path d="M22.45,8.521428571428569L22.45,8.307142857142857L26.95,8.307142857142857L26.95,7.5L27.05,7.5L27.05,8.407142857142858L22.55,8.407142857142858L22.55,8.521428571428569L27.478571428571428,8.521428571428569L27.478571428571428,12.478571428571428L25.878571428571426,12.478571428571428L25.878571428571426,12.05L25.5,12.05L25.5,11.95L25.978571428571428,11.95L25.978571428571428,12.378571428571426L27.378571428571426,12.378571428571426L27.378571428571426,8.62142857142857L22.55,8.62142857142857L22.55,8.835714285714285L21.378571428571426,8.835714285714285L21.378571428571426,8.62142857142857L18.378571428571426,8.62142857142857L18.378571428571426,8.407142857142858L17.735714285714284,8.407142857142858L17.735714285714284,8.192857142857143L16.664285714285715,8.192857142857143L16.664285714285715,7.764285714285714L16.45,7.764285714285714L16.45,7.5L16.55,7.5L16.55,7.664285714285715L16.764285714285716,7.664285714285715L16.764285714285716,8.092857142857142L17.835714285714285,8.092857142857142L17.835714285714285,8.307142857142857L18.478571428571428,8.307142857142857L18.478571428571428,8.521428571428569L21.478571428571428,8.521428571428569L21.478571428571428,8.735714285714284L22.45,8.735714285714284L22.45,8.62142857142857L22.235714285714284,8.62142857142857L22.235714285714284,7.764285714285714L22.021428571428572,7.764285714285714L22.021428571428572,7.55L21,7.55L21,7.45L22.121428571428574,7.45L22.121428571428574,7.664285714285715L22.335714285714285,7.664285714285715L22.335714285714285,8.521428571428569z" stroke="none"/><path d="M7.021428571428571,5.307142857142857L7.021428571428571,3.478571428571428L6.164285714285715,3.478571428571428L6.164285714285715,3.2642857142857142L5.95,3.2642857142857142L5.95,3L6.05,3L6.05,3.1642857142857146L6.264285714285714,3.1642857142857146L6.264285714285714,3.3785714285714286L7.121428571428571,3.3785714285714286L7.121428571428571,5.307142857142857L11.092857142857142,5.307142857142857L11.092857142857142,5.0928571428571425L11.521428571428569,5.0928571428571425L11.521428571428569,4.45L12,4.45L12,4.55L11.62142857142857,4.55L11.62142857142857,5.192857142857142L11.192857142857143,5.192857142857142L11.192857142857143,5.407142857142857L7.121428571428571,5.407142857142857L7.121428571428571,7.45L7.5,7.45L7.5,7.55L7.021428571428571,7.55L7.021428571428571,5.407142857142857L5.835714285714285,5.407142857142857L5.835714285714285,5.621428571428571L5.621428571428571,5.621428571428571L5.621428571428571,6.05L4.335714285714285,6.05L4.335714285714285,6.907142857142857L3.478571428571428,6.907142857142857L3.478571428571428,7.121428571428571L3.2642857142857142,7.121428571428571L3.2642857142857142,7.55L3,7.55L3,7.45L3.1642857142857146,7.45L3.1642857142857146,7.021428571428571L3.3785714285714286,7.021428571428571L3.3785714285714286,6.807142857142857L4.235714285714286,6.807142857142857L4.235714285714286,5.95L5.521428571428571,5.95L5.521428571428571,5.521428571428571L5.735714285714286,5.521428571428571L5.735714285714286,5.307142857142857z" stroke="none"/><path d="M9,4.55L9,4.45L10.5,4.45L10.5,4.55z" stroke="none"/><path d="M4.45,10.5L4.55,10.5L4.55,12L4.45,12z" stroke="none"/><path d="M21,10.55L21,10.45L22.5,10.45L22.5,10.55z" stroke="none"/><path d="M15,11.95L15,12.05L12.692857142857143,12.05L12.692857142857143,12.478571428571428L8.521428571428569,12.478571428571428L8.521428571428569,10.021428571428569L8.735714285714284,10.021428571428569L8.735714285714284,9.807142857142857L8.95,9.807142857142857L8.95,9.378571428571426L9.378571428571426,9.378571428571426L9.378571428571426,8.521428571428569L12.478571428571428,8.521428571428569L12.478571428571428,8.95L12.907142857142858,8.95L12.907142857142858,9.807142857142857L13.12142857142857,9.807142857142857L13.12142857142857,10.45L13.5,10.45L13.5,10.55L13.021428571428569,10.55L13.021428571428569,9.907142857142858L12.807142857142857,9.907142857142858L12.807142857142857,9.05L12.378571428571426,9.05L12.378571428571426,8.62142857142857L9.478571428571428,8.62142857142857L9.478571428571428,9.478571428571428L9.05,9.478571428571428L9.05,9.907142857142858L8.835714285714285,9.907142857142858L8.835714285714285,10.12142857142857L8.62142857142857,10.12142857142857L8.62142857142857,12.378571428571426L12.592857142857142,12.378571428571426L12.592857142857142,11.95z" stroke="none"/><path d="M24,5.95L24,6.05L23.09285714285714,6.05L23.09285714285714,5.192857142857142L22.664285714285715,5.192857142857142L22.664285714285715,4.764285714285714L22.45,4.764285714285714L22.45,4.5L22.55,4.5L22.55,4.664285714285715L22.764285714285716,4.664285714285715L22.764285714285716,5.0928571428571425L23.192857142857143,5.0928571428571425L23.192857142857143,5.95z" stroke="none"/><path d="M12,10.45L12,10.55L9,10.55L9,10.45z" stroke="none"/><path d="M22.45,6L22.55,6L22.55,6.164285714285715L23.62142857142857,6.164285714285715L23.62142857142857,6.378571428571428L24.378571428571426,6.378571428571428L24.378571428571426,2.6214285714285714L22.764285714285716,2.6214285714285714L22.764285714285716,3.05L22.5,3.05L22.5,2.95L22.664285714285715,2.95L22.664285714285715,2.521428571428572L24.478571428571428,2.521428571428572L24.478571428571428,6.478571428571428L23.52142857142857,6.478571428571428L23.52142857142857,6.264285714285714L22.45,6.264285714285714z" stroke="none"/><path d="M14.95,6L15.05,6L15.05,9L14.95,9z" stroke="none"/><path d="M6,10.55L6,10.45L6.164285714285715,10.45L6.164285714285715,9.378571428571426L6.378571428571428,9.378571428571426L6.378571428571428,8.407142857142858L6.164285714285715,8.407142857142858L6.164285714285715,7.978571428571428L5.95,7.978571428571428L5.95,7.5L6.05,7.5L6.05,7.878571428571428L6.264285714285714,7.878571428571428L6.264285714285714,8.307142857142857L6.478571428571428,8.307142857142857L6.478571428571428,9.478571428571428L6.264285714285714,9.478571428571428L6.264285714285714,10.55z" stroke="none"/><path d="M10.5,6.05L10.5,5.95L11.521428571428569,5.95L11.521428571428569,5.735714285714286L11.735714285714284,5.735714285714286L11.735714285714284,5.521428571428571L11.95,5.521428571428571L11.95,5.0928571428571425L12.164285714285715,5.0928571428571425L12.164285714285715,4.878571428571429L12.378571428571426,4.878571428571429L12.378571428571426,4.121428571428571L11.521428571428569,4.121428571428571L11.521428571428569,3.6928571428571426L11.092857142857142,3.6928571428571426L11.092857142857142,3.478571428571428L9.164285714285715,3.478571428571428L9.164285714285715,3.2642857142857142L8.95,3.2642857142857142L8.95,3L9.05,3L9.05,3.1642857142857146L9.264285714285716,3.1642857142857146L9.264285714285716,3.3785714285714286L11.192857142857143,3.3785714285714286L11.192857142857143,3.592857142857143L11.62142857142857,3.592857142857143L11.62142857142857,4.021428571428571L12.478571428571428,4.021428571428571L12.478571428571428,4.978571428571429L12.264285714285716,4.978571428571429L12.264285714285716,5.192857142857142L12.05,5.192857142857142L12.05,5.621428571428571L11.835714285714285,5.621428571428571L11.835714285714285,5.835714285714285L11.62142857142857,5.835714285714285L11.62142857142857,6.05z" stroke="none"/><path d="M6,5.95L6,6.05L5.835714285714285,6.05L5.835714285714285,6.264285714285714L5.407142857142857,6.264285714285714L5.407142857142857,6.692857142857142L5.192857142857142,6.692857142857142L5.192857142857142,7.121428571428571L4.978571428571429,7.121428571428571L4.978571428571429,7.335714285714285L4.764285714285714,7.335714285714285L4.764285714285714,7.55L3.6928571428571426,7.55L3.6928571428571426,7.764285714285714L3.478571428571428,7.764285714285714L3.478571428571428,7.978571428571428L2.521428571428572,7.978571428571428L2.521428571428572,4.021428571428571L2.95,4.021428571428571L2.95,3.8071428571428574L3.592857142857143,3.8071428571428574L3.592857142857143,3.3785714285714286L3.8071428571428574,3.3785714285714286L3.8071428571428574,3.1642857142857146L4.235714285714286,3.1642857142857146L4.235714285714286,2.95L4.5,2.95L4.5,3.05L4.335714285714285,3.05L4.335714285714285,3.2642857142857142L3.907142857142857,3.2642857142857142L3.907142857142857,3.478571428571428L3.6928571428571426,3.478571428571428L3.6928571428571426,3.907142857142857L3.05,3.907142857142857L3.05,4.121428571428571L2.6214285714285714,4.121428571428571L2.6214285714285714,7.878571428571428L3.3785714285714286,7.878571428571428L3.3785714285714286,7.664285714285715L3.592857142857143,7.664285714285715L3.592857142857143,7.45L4.664285714285715,7.45L4.664285714285715,7.235714285714286L4.878571428571429,7.235714285714286L4.878571428571429,7.021428571428571L5.0928571428571425,7.021428571428571L5.0928571428571425,6.5928571428571425L5.307142857142857,6.5928571428571425L5.307142857142857,6.164285714285715L5.735714285714286,6.164285714285715L5.735714285714286,5.95z" stroke="none"/><path d="M3,12.05L3,11.95L3.6928571428571426,11.95L3.6928571428571426,12.164285714285715L4.121428571428571,12.164285714285715L4.121428571428571,12.378571428571426L6.807142857142857,12.378571428571426L6.807142857142857,12.164285714285715L7.45,12.164285714285715L7.45,12L7.55,12L7.55,12.264285714285716L6.907142857142857,12.264285714285716L6.907142857142857,12.478571428571428L4.021428571428571,12.478571428571428L4.021428571428571,12.264285714285716L3.592857142857143,12.264285714285716L3.592857142857143,12.05z" stroke="none"/><path d="M3,9.05L3,8.95L4.335714285714285,8.95L4.335714285714285,9.164285714285715L4.978571428571429,9.164285714285715L4.978571428571429,9.378571428571426L5.192857142857142,9.378571428571426L5.192857142857142,9.592857142857142L5.407142857142857,9.592857142857142L5.407142857142857,10.664285714285715L5.621428571428571,10.664285714285715L5.621428571428571,10.878571428571426L6.807142857142857,10.878571428571426L6.807142857142857,10.45L7.5,10.45L7.5,10.55L6.907142857142857,10.55L6.907142857142857,10.978571428571428L5.521428571428571,10.978571428571428L5.521428571428571,10.764285714285716L5.307142857142857,10.764285714285716L5.307142857142857,9.692857142857143L5.0928571428571425,9.692857142857143L5.0928571428571425,9.478571428571428L4.878571428571429,9.478571428571428L4.878571428571429,9.264285714285716L4.235714285714286,9.264285714285716L4.235714285714286,9.05z" stroke="none"/><path d="M10.5,3.05L10.5,2.95L11.407142857142858,2.95L11.407142857142858,3.1642857142857146L11.62142857142857,3.1642857142857146L11.62142857142857,3.3785714285714286L11.835714285714285,3.3785714285714286L11.835714285714285,3.592857142857143L12.05,3.592857142857143L12.05,3.8071428571428574L12.692857142857143,3.8071428571428574L12.692857142857143,6.378571428571428L13.12142857142857,6.378571428571428L13.12142857142857,6.807142857142857L13.335714285714285,6.807142857142857L13.335714285714285,7.235714285714286L13.55,7.235714285714286L13.55,7.5L13.45,7.5L13.45,7.335714285714285L13.235714285714284,7.335714285714285L13.235714285714284,6.907142857142857L13.021428571428569,6.907142857142857L13.021428571428569,6.478571428571428L12.592857142857142,6.478571428571428L12.592857142857142,3.907142857142857L11.95,3.907142857142857L11.95,3.6928571428571426L11.735714285714284,3.6928571428571426L11.735714285714284,3.478571428571428L11.521428571428569,3.478571428571428L11.521428571428569,3.2642857142857142L11.307142857142857,3.2642857142857142L11.307142857142857,3.05z" stroke="none"/><path d="M3,6.05L3,5.95L3.1642857142857146,5.95L3.1642857142857146,5.735714285714286L3.592857142857143,5.735714285714286L3.592857142857143,5.0928571428571425L4.021428571428571,5.0928571428571425L4.021428571428571,4.878571428571429L4.45,4.878571428571429L4.45,3.8071428571428574L4.664285714285715,3.8071428571428574L4.664285714285715,3.3785714285714286L4.878571428571429,3.3785714285714286L4.878571428571429,3.1642857142857146L5.0928571428571425,3.1642857142857146L5.0928571428571425,2.521428571428572L6.907142857142857,2.521428571428572L6.907142857142857,2.7357142857142858L7.335714285714285,2.7357142857142858L7.335714285714285,2.95L7.5,2.95L7.5,3.05L7.235714285714286,3.05L7.235714285714286,2.8357142857142854L6.807142857142857,2.8357142857142854L6.807142857142857,2.6214285714285714L5.192857142857142,2.6214285714285714L5.192857142857142,3.2642857142857142L4.978571428571429,3.2642857142857142L4.978571428571429,3.478571428571428L4.764285714285714,3.478571428571428L4.764285714285714,3.907142857142857L4.55,3.907142857142857L4.55,4.978571428571429L4.121428571428571,4.978571428571429L4.121428571428571,5.192857142857142L3.6928571428571426,5.192857142857142L3.6928571428571426,5.835714285714285L3.2642857142857142,5.835714285714285L3.2642857142857142,6.05z" stroke="none"/><path d="M25.5,2.95L25.5,3.05L25.02142857142857,3.05L25.02142857142857,2.8357142857142854L24.807142857142857,2.8357142857142854L24.807142857142857,2.6214285714285714L24.59285714285714,2.6214285714285714L24.59285714285714,2.407142857142857L22.55,2.407142857142857L22.55,2.6214285714285714L22.121428571428574,2.6214285714285714L22.121428571428574,3.2642857142857142L21.90714285714286,3.2642857142857142L21.90714285714286,3.478571428571428L20.621428571428574,3.478571428571428L20.621428571428574,3.6928571428571426L20.40714285714286,3.6928571428571426L20.40714285714286,3.907142857142857L20.192857142857143,3.907142857142857L20.192857142857143,4.335714285714285L19.978571428571428,4.335714285714285L19.978571428571428,4.55L19.5,4.55L19.5,4.45L19.878571428571426,4.45L19.878571428571426,4.235714285714286L20.09285714285714,4.235714285714286L20.09285714285714,3.8071428571428574L20.307142857142857,3.8071428571428574L20.307142857142857,3.592857142857143L20.521428571428572,3.592857142857143L20.521428571428572,3.3785714285714286L21.807142857142857,3.3785714285714286L21.807142857142857,3.1642857142857146L22.021428571428572,3.1642857142857146L22.021428571428572,2.521428571428572L22.45,2.521428571428572L22.45,2.3071428571428574L24.692857142857143,2.3071428571428574L24.692857142857143,2.521428571428572L24.90714285714286,2.521428571428572L24.90714285714286,2.7357142857142858L25.12142857142857,2.7357142857142858L25.12142857142857,2.95z" stroke="none"/><path d="M21,3.05L21,2.95L21.378571428571426,2.95L21.378571428571426,2.7357142857142858L21.807142857142857,2.7357142857142858L21.807142857142857,2.3071428571428574L22.235714285714284,2.3071428571428574L22.235714285714284,2.092857142857143L25.55,2.092857142857143L25.55,2.3071428571428574L25.764285714285716,2.3071428571428574L25.764285714285716,2.521428571428572L25.978571428571428,2.521428571428572L25.978571428571428,4.878571428571429L26.192857142857143,4.878571428571429L26.192857142857143,5.521428571428571L26.62142857142857,5.521428571428571L26.62142857142857,5.735714285714286L27.05,5.735714285714286L27.05,6L26.95,6L26.95,5.835714285714285L26.52142857142857,5.835714285714285L26.52142857142857,5.621428571428571L26.09285714285714,5.621428571428571L26.09285714285714,4.978571428571429L25.878571428571426,4.978571428571429L25.878571428571426,2.6214285714285714L25.664285714285715,2.6214285714285714L25.664285714285715,2.407142857142857L25.45,2.407142857142857L25.45,2.1928571428571426L22.335714285714285,2.1928571428571426L22.335714285714285,2.407142857142857L21.90714285714286,2.407142857142857L21.90714285714286,2.8357142857142854L21.478571428571428,2.8357142857142854L21.478571428571428,3.05z" stroke="none"/><path d="M13.5,4.55L13.5,4.45L14.407142857142858,4.45L14.407142857142858,4.878571428571429L14.62142857142857,4.878571428571429L14.62142857142857,5.0928571428571425L15.05,5.0928571428571425L15.05,5.307142857142857L15.264285714285716,5.307142857142857L15.264285714285716,5.521428571428571L15.478571428571428,5.521428571428571L15.478571428571428,6.378571428571428L18.807142857142857,6.378571428571428L18.807142857142857,6.164285714285715L20.95,6.164285714285715L20.95,6L21.05,6L21.05,6.264285714285714L18.90714285714286,6.264285714285714L18.90714285714286,6.478571428571428L15.378571428571426,6.478571428571428L15.378571428571426,5.621428571428571L15.164285714285715,5.621428571428571L15.164285714285715,5.407142857142857L14.95,5.407142857142857L14.95,5.192857142857142L14.521428571428569,5.192857142857142L14.521428571428569,4.978571428571429L14.307142857142857,4.978571428571429L14.307142857142857,4.55z" stroke="none"/><path d="M25.5,8.95L25.5,9.05L21.90714285714286,9.05L21.90714285714286,9.264285714285716L21.478571428571428,9.264285714285716L21.478571428571428,9.478571428571428L17.95,9.478571428571428L17.95,9.264285714285716L17.521428571428572,9.264285714285716L17.521428571428572,8.835714285714285L16.878571428571426,8.835714285714285L16.878571428571426,8.62142857142857L16.12142857142857,8.62142857142857L16.12142857142857,9.378571428571426L16.978571428571428,9.378571428571426L16.978571428571428,9.592857142857142L17.40714285714286,9.592857142857142L17.40714285714286,9.807142857142857L17.621428571428574,9.807142857142857L17.621428571428574,10.021428571428569L18.478571428571428,10.021428571428569L18.478571428571428,11.62142857142857L18.05,11.62142857142857L18.05,12L17.95,12L17.95,11.521428571428569L18.378571428571426,11.521428571428569L18.378571428571426,10.12142857142857L17.521428571428572,10.12142857142857L17.521428571428572,9.907142857142858L17.307142857142857,9.907142857142858L17.307142857142857,9.692857142857143L16.878571428571426,9.692857142857143L16.878571428571426,9.478571428571428L16.02142857142857,9.478571428571428L16.02142857142857,8.521428571428569L16.978571428571428,8.521428571428569L16.978571428571428,8.735714285714284L17.621428571428574,8.735714285714284L17.621428571428574,9.164285714285715L18.05,9.164285714285715L18.05,9.378571428571426L21.378571428571426,9.378571428571426L21.378571428571426,9.164285714285715L21.807142857142857,9.164285714285715L21.807142857142857,8.95z" stroke="none"/><path d="M19.5,2.95L19.5,3.05L14.407142857142858,3.05L14.407142857142858,3.2642857142857142L14.192857142857143,3.2642857142857142L14.192857142857143,3.478571428571428L13.764285714285716,3.478571428571428L13.764285714285716,3.6928571428571426L13.55,3.6928571428571426L13.55,3.907142857142857L13.12142857142857,3.907142857142857L13.12142857142857,5.95L13.335714285714285,5.95L13.335714285714285,6.5928571428571425L13.55,6.5928571428571425L13.55,7.021428571428571L13.978571428571428,7.021428571428571L13.978571428571428,7.978571428571428L13.021428571428569,7.978571428571428L13.021428571428569,7.764285714285714L12.378571428571426,7.764285714285714L12.378571428571426,7.55L12,7.55L12,7.45L12.478571428571428,7.45L12.478571428571428,7.664285714285715L13.12142857142857,7.664285714285715L13.12142857142857,7.878571428571428L13.878571428571426,7.878571428571428L13.878571428571426,7.121428571428571L13.45,7.121428571428571L13.45,6.692857142857142L13.235714285714284,6.692857142857142L13.235714285714284,6.05L13.021428571428569,6.05L13.021428571428569,3.8071428571428574L13.45,3.8071428571428574L13.45,3.592857142857143L13.664285714285715,3.592857142857143L13.664285714285715,3.3785714285714286L14.092857142857142,3.3785714285714286L14.092857142857142,3.1642857142857146L14.307142857142857,3.1642857142857146L14.307142857142857,2.95z" stroke="none"/><path d="M21,8.95L21,9.05L17.95,9.05L17.95,8.835714285714285L17.735714285714284,8.835714285714285L17.735714285714284,8.62142857142857L17.09285714285714,8.62142857142857L17.09285714285714,8.407142857142858L16.45,8.407142857142858L16.45,8.192857142857143L16.235714285714284,8.192857142857143L16.235714285714284,7.978571428571428L16.02142857142857,7.978571428571428L16.02142857142857,7.021428571428571L27.478571428571428,7.021428571428571L27.478571428571428,8.307142857142857L27.692857142857143,8.307142857142857L27.692857142857143,12.692857142857143L16.878571428571426,12.692857142857143L16.878571428571426,12.264285714285716L16.664285714285715,12.264285714285716L16.664285714285715,12.05L16.235714285714284,12.05L16.235714285714284,11.835714285714285L15.378571428571426,11.835714285714285L15.378571428571426,11.62142857142857L12.478571428571428,11.62142857142857L12.478571428571428,12.05L12,12.05L12,11.95L12.378571428571426,11.95L12.378571428571426,11.521428571428569L15.478571428571428,11.521428571428569L15.478571428571428,11.735714285714284L16.335714285714285,11.735714285714284L16.335714285714285,11.95L16.764285714285716,11.95L16.764285714285716,12.164285714285715L16.978571428571428,12.164285714285715L16.978571428571428,12.592857142857142L27.59285714285714,12.592857142857142L27.59285714285714,8.407142857142858L27.378571428571426,8.407142857142858L27.378571428571426,7.121428571428571L16.12142857142857,7.121428571428571L16.12142857142857,7.878571428571428L16.335714285714285,7.878571428571428L16.335714285714285,8.092857142857142L16.55,8.092857142857142L16.55,8.307142857142857L17.192857142857143,8.307142857142857L17.192857142857143,8.521428571428569L17.835714285714285,8.521428571428569L17.835714285714285,8.735714285714284L18.05,8.735714285714284L18.05,8.95z" stroke="none"/><path d="M6,8.95L6,9.05L4.45,9.05L4.45,8.835714285714285L3.592857142857143,8.835714285714285L3.592857142857143,8.62142857142857L2.3071428571428574,8.62142857142857L2.3071428571428574,3.3785714285714286L2.521428571428572,3.3785714285714286L2.521428571428572,2.7357142857142858L2.7357142857142858,2.7357142857142858L2.7357142857142858,2.521428571428572L4.878571428571429,2.521428571428572L4.878571428571429,2.3071428571428574L19.978571428571428,2.3071428571428574L19.978571428571428,3.478571428571428L18.05,3.478571428571428L18.05,3.6928571428571426L17.192857142857143,3.6928571428571426L17.192857142857143,3.907142857142857L16.764285714285716,3.907142857142857L16.764285714285716,4.121428571428571L15.264285714285716,4.121428571428571L15.264285714285716,4.335714285714285L15.05,4.335714285714285L15.05,4.5L14.95,4.5L14.95,4.235714285714286L15.164285714285715,4.235714285714286L15.164285714285715,4.021428571428571L16.664285714285715,4.021428571428571L16.664285714285715,3.8071428571428574L17.09285714285714,3.8071428571428574L17.09285714285714,3.592857142857143L17.95,3.592857142857143L17.95,3.3785714285714286L19.878571428571426,3.3785714285714286L19.878571428571426,2.407142857142857L4.978571428571429,2.407142857142857L4.978571428571429,2.6214285714285714L2.8357142857142854,2.6214285714285714L2.8357142857142854,2.8357142857142854L2.6214285714285714,2.8357142857142854L2.6214285714285714,3.478571428571428L2.407142857142857,3.478571428571428L2.407142857142857,8.521428571428569L3.6928571428571426,8.521428571428569L3.6928571428571426,8.735714285714284L4.55,8.735714285714284L4.55,8.95z" stroke="none"/><path d="M18,4.55L18,4.45L19.021428571428572,4.45L19.021428571428572,4.021428571428571L19.664285714285715,4.021428571428571L19.664285714285715,3.592857142857143L20.09285714285714,3.592857142857143L20.09285714285714,2.1928571428571426L3.2642857142857142,2.1928571428571426L3.2642857142857142,2.407142857142857L2.6214285714285714,2.407142857142857L2.6214285714285714,2.6214285714285714L2.407142857142857,2.6214285714285714L2.407142857142857,2.8357142857142854L2.1928571428571426,2.8357142857142854L2.1928571428571426,9.164285714285715L2.6214285714285714,9.164285714285715L2.6214285714285714,9.378571428571426L4.764285714285714,9.378571428571426L4.764285714285714,10.021428571428569L4.978571428571429,10.021428571428569L4.978571428571429,10.878571428571426L5.407142857142857,10.878571428571426L5.407142857142857,11.092857142857142L7.878571428571428,11.092857142857142L7.878571428571428,9.378571428571426L8.307142857142857,9.378571428571426L8.307142857142857,8.95L9,8.95L9,9.05L8.407142857142858,9.05L8.407142857142858,9.478571428571428L7.978571428571428,9.478571428571428L7.978571428571428,11.192857142857143L5.307142857142857,11.192857142857143L5.307142857142857,10.978571428571428L4.878571428571429,10.978571428571428L4.878571428571429,10.12142857142857L4.664285714285715,10.12142857142857L4.664285714285715,9.478571428571428L2.521428571428572,9.478571428571428L2.521428571428572,9.264285714285716L2.092857142857143,9.264285714285716L2.092857142857143,2.7357142857142858L2.3071428571428574,2.7357142857142858L2.3071428571428574,2.521428571428572L2.521428571428572,2.521428571428572L2.521428571428572,2.3071428571428574L3.1642857142857146,2.3071428571428574L3.1642857142857146,2.092857142857143L20.192857142857143,2.092857142857143L20.192857142857143,3.6928571428571426L19.764285714285716,3.6928571428571426L19.764285714285716,4.121428571428571L19.121428571428574,4.121428571428571L19.121428571428574,4.55z" stroke="none"/><path d="M21,11.95L21,12.05L18.478571428571428,12.05L18.478571428571428,12.478571428571428L17.307142857142857,12.478571428571428L17.307142857142857,12.264285714285716L17.09285714285714,12.264285714285716L17.09285714285714,12.05L16.878571428571426,12.05L16.878571428571426,11.835714285714285L16.45,11.835714285714285L16.45,11.62142857142857L16.02142857142857,11.62142857142857L16.02142857142857,11.407142857142858L11.192857142857143,11.407142857142858L11.192857142857143,11.62142857142857L10.764285714285716,11.62142857142857L10.764285714285716,11.835714285714285L10.55,11.835714285714285L10.55,12L10.45,12L10.45,11.735714285714284L10.664285714285715,11.735714285714284L10.664285714285715,11.521428571428569L11.092857142857142,11.521428571428569L11.092857142857142,11.307142857142857L16.12142857142857,11.307142857142857L16.12142857142857,11.521428571428569L16.55,11.521428571428569L16.55,11.735714285714284L16.978571428571428,11.735714285714284L16.978571428571428,11.95L17.192857142857143,11.95L17.192857142857143,12.164285714285715L17.40714285714286,12.164285714285715L17.40714285714286,12.378571428571426L18.378571428571426,12.378571428571426L18.378571428571426,11.95z" stroke="none"/></svg>