<svg version="1.1" width="30" height="15" xmlns="http://www.w3.org/2000/svg"><path d="M23.09285714285714,9.907142857142858L22.021428571428572,9.907142857142858L22.021428571428572,9.478571428571428L21.807142857142857,9.478571428571428L21.807142857142857,8.407142857142858L21.59285714285714,8.407142857142858L21.59285714285714,7.978571428571428L20.95,7.978571428571428L20.95,7.5L21.05,7.5L21.05,7.878571428571428L21.692857142857143,7.878571428571428L21.692857142857143,8.307142857142857L21.90714285714286,8.307142857142857L21.90714285714286,9.378571428571426L22.121428571428574,9.378571428571426L22.121428571428574,9.807142857142857L23.192857142857143,9.807142857142857L23.192857142857143,10.45L23.40714285714286,10.45L23.40714285714286,10.664285714285715L23.62142857142857,10.664285714285715L23.62142857142857,10.878571428571426L23.835714285714285,10.878571428571426L23.835714285714285,11.092857142857142L24.05,11.092857142857142L24.05,11.521428571428569L24.264285714285716,11.521428571428569L24.264285714285716,11.735714285714284L25.55,11.735714285714284L25.55,12L25.45,12L25.45,11.835714285714285L24.164285714285715,11.835714285714285L24.164285714285715,11.62142857142857L23.95,11.62142857142857L23.95,11.192857142857143L23.735714285714284,11.192857142857143L23.735714285714284,10.978571428571428L23.52142857142857,10.978571428571428L23.52142857142857,10.764285714285716L23.307142857142857,10.764285714285716L23.307142857142857,10.55L23.192857142857143,10.55L23.192857142857143,11.62142857142857L22.764285714285716,11.62142857142857L22.764285714285716,12.05L22.5,12.05L22.5,11.95L22.664285714285715,11.95L22.664285714285715,11.521428571428569L23.09285714285714,11.521428571428569z" stroke="none"/><path d="M26.52142857142857,7.878571428571428L26.52142857142857,7.45L27,7.45L27,7.55L26.62142857142857,7.55L26.62142857142857,7.978571428571428L24.90714285714286,7.978571428571428L24.90714285714286,10.235714285714284L25.12142857142857,10.235714285714284L25.12142857142857,10.45L25.5,10.45L25.5,10.55L25.02142857142857,10.55L25.02142857142857,10.335714285714285L24.807142857142857,10.335714285714285L24.807142857142857,7.978571428571428L23.95,7.978571428571428L23.95,7.121428571428571L23.307142857142857,7.121428571428571L23.307142857142857,6.907142857142857L22.664285714285715,6.907142857142857L22.664285714285715,6.692857142857142L22.45,6.692857142857142L22.45,6L22.55,6L22.55,6.5928571428571425L22.764285714285716,6.5928571428571425L22.764285714285716,6.807142857142857L23.40714285714286,6.807142857142857L23.40714285714286,7.021428571428571L24.05,7.021428571428571L24.05,7.878571428571428z" stroke="none"/><path d="M21.807142857142857,3.8071428571428574L21.807142857142857,3.592857142857143L26.52142857142857,3.592857142857143L26.52142857142857,3.1642857142857146L26.95,3.1642857142857146L26.95,3L27.05,3L27.05,3.2642857142857142L26.62142857142857,3.2642857142857142L26.62142857142857,3.6928571428571426L21.90714285714286,3.6928571428571426L21.90714285714286,3.8071428571428574L23.835714285714285,3.8071428571428574L23.835714285714285,4.235714285714286L24.05,4.235714285714286L24.05,4.5L23.95,4.5L23.95,4.335714285714285L23.735714285714284,4.335714285714285L23.735714285714284,3.907142857142857L16.764285714285716,3.907142857142857L16.764285714285716,4.121428571428571L16.12142857142857,4.121428571428571L16.12142857142857,4.335714285714285L15.478571428571428,4.335714285714285L15.478571428571428,4.55L15,4.55L15,4.45L15.378571428571426,4.45L15.378571428571426,4.235714285714286L16.02142857142857,4.235714285714286L16.02142857142857,4.021428571428571L16.664285714285715,4.021428571428571L16.664285714285715,3.8071428571428574z" stroke="none"/><path d="M12.164285714285715,6.5928571428571425L12.164285714285715,4.55L12,4.55L12,4.45L12.264285714285716,4.45L12.264285714285716,6.5928571428571425L18.478571428571428,6.5928571428571425L18.478571428571428,7.45L18.692857142857143,7.45L18.692857142857143,7.878571428571428L19.121428571428574,7.878571428571428L19.121428571428574,8.092857142857142L19.335714285714285,8.092857142857142L19.335714285714285,8.95L19.5,8.95L19.5,9.05L19.235714285714284,9.05L19.235714285714284,8.192857142857143L19.021428571428572,8.192857142857143L19.021428571428572,7.978571428571428L18.59285714285714,7.978571428571428L18.59285714285714,7.55L18.378571428571426,7.55L18.378571428571426,6.692857142857142L12.264285714285716,6.692857142857142L12.264285714285716,8.092857142857142L12.478571428571428,8.092857142857142L12.478571428571428,9.478571428571428L9.164285714285715,9.478571428571428L9.164285714285715,9.05L9,9.05L9,8.95L9.264285714285716,8.95L9.264285714285716,9.378571428571426L12.378571428571426,9.378571428571426L12.378571428571426,8.192857142857143L12.164285714285715,8.192857142857143L12.164285714285715,6.692857142857142L11.95,6.692857142857142L11.95,6.05L11.735714285714284,6.05L11.735714285714284,5.835714285714285L11.521428571428569,5.835714285714285L11.521428571428569,5.407142857142857L11.307142857142857,5.407142857142857L11.307142857142857,4.978571428571429L11.092857142857142,4.978571428571429L11.092857142857142,4.764285714285714L9.378571428571426,4.764285714285714L9.378571428571426,4.55L9,4.55L9,4.45L9.478571428571428,4.45L9.478571428571428,4.664285714285715L11.192857142857143,4.664285714285715L11.192857142857143,4.878571428571429L11.407142857142858,4.878571428571429L11.407142857142858,5.307142857142857L11.62142857142857,5.307142857142857L11.62142857142857,5.735714285714286L11.835714285714285,5.735714285714286L11.835714285714285,5.95L12.05,5.95L12.05,6.5928571428571425z" stroke="none"/><path d="M9.164285714285715,10.021428571428569L9.164285714285715,9.907142857142858L8.735714285714284,9.907142857142858L8.735714285714284,9.692857142857143L7.664285714285715,9.692857142857143L7.664285714285715,9.478571428571428L7.45,9.478571428571428L7.45,9.264285714285716L7.235714285714286,9.264285714285716L7.235714285714286,8.835714285714285L6.807142857142857,8.835714285714285L6.807142857142857,8.62142857142857L6.5928571428571425,8.62142857142857L6.5928571428571425,8.407142857142858L6.378571428571428,8.407142857142858L6.378571428571428,7.978571428571428L6.164285714285715,7.978571428571428L6.164285714285715,7.55L6,7.55L6,7.45L6.264285714285714,7.45L6.264285714285714,7.878571428571428L6.478571428571428,7.878571428571428L6.478571428571428,8.307142857142857L6.692857142857142,8.307142857142857L6.692857142857142,8.521428571428569L6.907142857142857,8.521428571428569L6.907142857142857,8.735714285714284L7.335714285714285,8.735714285714284L7.335714285714285,9.164285714285715L7.55,9.164285714285715L7.55,9.378571428571426L7.764285714285714,9.378571428571426L7.764285714285714,9.592857142857142L8.835714285714285,9.592857142857142L8.835714285714285,9.807142857142857L9.264285714285716,9.807142857142857L9.264285714285716,10.021428571428569L10.335714285714285,10.021428571428569L10.335714285714285,10.235714285714284L11.407142857142858,10.235714285714284L11.407142857142858,10.45L12,10.45L12,10.55L11.307142857142857,10.55L11.307142857142857,10.335714285714285L10.235714285714284,10.335714285714285L10.235714285714284,10.12142857142857L9.264285714285716,10.12142857142857L9.264285714285716,10.235714285714284L10.12142857142857,10.235714285714284L10.12142857142857,10.45L10.764285714285716,10.45L10.764285714285716,10.664285714285715L12.807142857142857,10.664285714285715L12.807142857142857,10.45L13.5,10.45L13.5,10.55L12.907142857142858,10.55L12.907142857142858,10.764285714285716L10.664285714285715,10.764285714285716L10.664285714285715,10.55L10.021428571428569,10.55L10.021428571428569,10.335714285714285L9.164285714285715,10.335714285714285L9.164285714285715,10.12142857142857L8.407142857142858,10.12142857142857L8.407142857142858,10.55L7.55,10.55L7.55,11.407142857142858L7.335714285714285,11.407142857142858L7.335714285714285,11.62142857142857L7.121428571428571,11.62142857142857L7.121428571428571,11.835714285714285L6.264285714285714,11.835714285714285L6.264285714285714,12.05L6,12.05L6,11.95L6.164285714285715,11.95L6.164285714285715,11.735714285714284L7.021428571428571,11.735714285714284L7.021428571428571,11.521428571428569L7.235714285714286,11.521428571428569L7.235714285714286,11.307142857142857L7.45,11.307142857142857L7.45,10.45L8.307142857142857,10.45L8.307142857142857,10.021428571428569z" stroke="none"/><path d="M8.521428571428569,7.664285714285715L8.521428571428569,7.55L8.307142857142857,7.55L8.307142857142857,7.335714285714285L8.092857142857142,7.335714285714285L8.092857142857142,7.121428571428571L7.878571428571428,7.121428571428571L7.878571428571428,6.907142857142857L5.521428571428571,6.907142857142857L5.521428571428571,6.478571428571428L5.307142857142857,6.478571428571428L5.307142857142857,6.05L4.878571428571429,6.05L4.878571428571429,5.835714285714285L4.335714285714285,5.835714285714285L4.335714285714285,6.692857142857142L4.121428571428571,6.692857142857142L4.121428571428571,7.978571428571428L3.907142857142857,7.978571428571428L3.907142857142857,8.192857142857143L3.6928571428571426,8.192857142857143L3.6928571428571426,8.62142857142857L3.478571428571428,8.62142857142857L3.478571428571428,8.835714285714285L3.05,8.835714285714285L3.05,9L2.95,9L2.95,8.735714285714284L3.3785714285714286,8.735714285714284L3.3785714285714286,8.521428571428569L3.592857142857143,8.521428571428569L3.592857142857143,8.092857142857142L3.8071428571428574,8.092857142857142L3.8071428571428574,7.878571428571428L4.021428571428571,7.878571428571428L4.021428571428571,6.5928571428571425L4.235714285714286,6.5928571428571425L4.235714285714286,5.735714285714286L4.978571428571429,5.735714285714286L4.978571428571429,5.95L5.407142857142857,5.95L5.407142857142857,6.378571428571428L5.621428571428571,6.378571428571428L5.621428571428571,6.807142857142857L7.978571428571428,6.807142857142857L7.978571428571428,7.021428571428571L8.192857142857143,7.021428571428571L8.192857142857143,7.235714285714286L8.407142857142858,7.235714285714286L8.407142857142858,7.45L8.62142857142857,7.45L8.62142857142857,7.664285714285715L10.978571428571428,7.664285714285715L10.978571428571428,8.735714285714284L11.62142857142857,8.735714285714284L11.62142857142857,8.95L12,8.95L12,9.05L11.521428571428569,9.05L11.521428571428569,8.835714285714285L10.878571428571426,8.835714285714285L10.878571428571426,7.764285714285714L8.62142857142857,7.764285714285714L8.62142857142857,9.378571428571426L9.05,9.378571428571426L9.05,9.592857142857142L13.878571428571426,9.592857142857142L13.878571428571426,8.95L14.092857142857142,8.95L14.092857142857142,8.521428571428569L14.307142857142857,8.521428571428569L14.307142857142857,7.664285714285715L14.521428571428569,7.664285714285715L14.521428571428569,7.45L15,7.45L15,7.55L14.62142857142857,7.55L14.62142857142857,7.764285714285714L14.407142857142858,7.764285714285714L14.407142857142858,8.62142857142857L14.192857142857143,8.62142857142857L14.192857142857143,9.05L13.978571428571428,9.05L13.978571428571428,9.692857142857143L8.95,9.692857142857143L8.95,9.478571428571428L8.521428571428569,9.478571428571428L8.521428571428569,7.764285714285714L6.378571428571428,7.764285714285714L6.378571428571428,7.121428571428571L5.307142857142857,7.121428571428571L5.307142857142857,6.692857142857142L5.0928571428571425,6.692857142857142L5.0928571428571425,6.478571428571428L4.878571428571429,6.478571428571428L4.878571428571429,6.264285714285714L4.664285714285715,6.264285714285714L4.664285714285715,6.05L4.5,6.05L4.5,5.95L4.764285714285714,5.95L4.764285714285714,6.164285714285715L4.978571428571429,6.164285714285715L4.978571428571429,6.378571428571428L5.192857142857142,6.378571428571428L5.192857142857142,6.5928571428571425L5.407142857142857,6.5928571428571425L5.407142857142857,7.021428571428571L6.478571428571428,7.021428571428571L6.478571428571428,7.664285714285715z" stroke="none"/><path d="M18,12.05L18,11.95L19.5,11.95L19.5,12.05z" stroke="none"/><path d="M27.05,9L26.95,9L26.95,7.878571428571428L27.378571428571426,7.878571428571428L27.378571428571426,7.121428571428571L25.764285714285716,7.121428571428571L25.764285714285716,7.335714285714285L25.55,7.335714285714285L25.55,7.5L25.45,7.5L25.45,7.235714285714286L25.664285714285715,7.235714285714286L25.664285714285715,7.021428571428571L27.478571428571428,7.021428571428571L27.478571428571428,7.978571428571428L27.05,7.978571428571428z" stroke="none"/><path d="M17.95,4.5L18.05,4.5L18.05,5.307142857142857L18.264285714285716,5.307142857142857L18.264285714285716,5.521428571428571L18.478571428571428,5.521428571428571L18.478571428571428,6.378571428571428L18.692857142857143,6.378571428571428L18.692857142857143,6.5928571428571425L18.90714285714286,6.5928571428571425L18.90714285714286,7.235714285714286L19.121428571428574,7.235714285714286L19.121428571428574,7.45L19.55,7.45L19.55,8.521428571428569L19.978571428571428,8.521428571428569L19.978571428571428,9.478571428571428L19.021428571428572,9.478571428571428L19.021428571428572,9.264285714285716L18.807142857142857,9.264285714285716L18.807142857142857,8.835714285714285L18.378571428571426,8.835714285714285L18.378571428571426,8.62142857142857L17.95,8.62142857142857L17.95,7.5L18.05,7.5L18.05,8.521428571428569L18.478571428571428,8.521428571428569L18.478571428571428,8.735714285714284L18.90714285714286,8.735714285714284L18.90714285714286,9.164285714285715L19.121428571428574,9.164285714285715L19.121428571428574,9.378571428571426L19.878571428571426,9.378571428571426L19.878571428571426,8.62142857142857L19.45,8.62142857142857L19.45,7.55L19.021428571428572,7.55L19.021428571428572,7.335714285714285L18.807142857142857,7.335714285714285L18.807142857142857,6.692857142857142L18.59285714285714,6.692857142857142L18.59285714285714,6.478571428571428L18.378571428571426,6.478571428571428L18.378571428571426,5.621428571428571L18.164285714285715,5.621428571428571L18.164285714285715,5.407142857142857L17.95,5.407142857142857z" stroke="none"/><path d="M12,2.95L12,3.05L9,3.05L9,2.95z" stroke="none"/><path d="M22.5,3.05L22.5,2.95L24.59285714285714,2.95L24.59285714285714,2.521428571428572L27.478571428571428,2.521428571428572L27.478571428571428,3.907142857142857L25.55,3.907142857142857L25.55,4.5L25.45,4.5L25.45,3.8071428571428574L27.378571428571426,3.8071428571428574L27.378571428571426,2.6214285714285714L24.692857142857143,2.6214285714285714L24.692857142857143,3.05z" stroke="none"/><path d="M6,4.45L6,4.55L3.6928571428571426,4.55L3.6928571428571426,6.05L3.478571428571428,6.05L3.478571428571428,6.264285714285714L3.2642857142857142,6.264285714285714L3.2642857142857142,7.121428571428571L3.05,7.121428571428571L3.05,7.335714285714285L2.8357142857142854,7.335714285714285L2.8357142857142854,8.192857142857143L2.6214285714285714,8.192857142857143L2.6214285714285714,9.378571428571426L3.3785714285714286,9.378571428571426L3.3785714285714286,9.164285714285715L3.592857142857143,9.164285714285715L3.592857142857143,8.95L3.8071428571428574,8.95L3.8071428571428574,8.307142857142857L4.021428571428571,8.307142857142857L4.021428571428571,8.092857142857142L4.235714285714286,8.092857142857142L4.235714285714286,7.45L4.5,7.45L4.5,7.55L4.335714285714285,7.55L4.335714285714285,8.192857142857143L4.121428571428571,8.192857142857143L4.121428571428571,8.407142857142858L3.907142857142857,8.407142857142858L3.907142857142857,9.05L3.6928571428571426,9.05L3.6928571428571426,9.264285714285716L3.478571428571428,9.264285714285716L3.478571428571428,9.478571428571428L2.521428571428572,9.478571428571428L2.521428571428572,8.092857142857142L2.7357142857142858,8.092857142857142L2.7357142857142858,7.235714285714286L2.95,7.235714285714286L2.95,7.021428571428571L3.1642857142857146,7.021428571428571L3.1642857142857146,6.164285714285715L3.3785714285714286,6.164285714285715L3.3785714285714286,5.95L3.592857142857143,5.95L3.592857142857143,4.45z" stroke="none"/><path d="M13.5,7.55L13.5,7.45L14.092857142857142,7.45L14.092857142857142,7.235714285714286L14.521428571428569,7.235714285714286L14.521428571428569,7.021428571428571L15.478571428571428,7.021428571428571L15.478571428571428,10.55L15,10.55L15,10.45L15.378571428571426,10.45L15.378571428571426,7.121428571428571L14.62142857142857,7.121428571428571L14.62142857142857,7.335714285714285L14.192857142857143,7.335714285714285L14.192857142857143,7.55z" stroke="none"/><path d="M21.05,4.5L20.95,4.5L20.95,4.335714285714285L20.307142857142857,4.335714285714285L20.307142857142857,4.121428571428571L17.621428571428574,4.121428571428571L17.621428571428574,5.521428571428571L17.835714285714285,5.521428571428571L17.835714285714285,5.95L18,5.95L18,6.05L17.735714285714284,6.05L17.735714285714284,5.621428571428571L17.521428571428572,5.621428571428571L17.521428571428572,4.021428571428571L20.40714285714286,4.021428571428571L20.40714285714286,4.235714285714286L21.05,4.235714285714286z" stroke="none"/><path d="M22.55,9L22.45,9L22.45,7.55L22.235714285714284,7.55L22.235714285714284,7.121428571428571L20.307142857142857,7.121428571428571L20.307142857142857,6.478571428571428L20.09285714285714,6.478571428571428L20.09285714285714,6.264285714285714L19.45,6.264285714285714L19.45,6L19.55,6L19.55,6.164285714285715L20.192857142857143,6.164285714285715L20.192857142857143,6.378571428571428L20.40714285714286,6.378571428571428L20.40714285714286,7.021428571428571L22.335714285714285,7.021428571428571L22.335714285714285,7.45L22.55,7.45z" stroke="none"/><path d="M21,6.05L21,5.95L21.807142857142857,5.95L21.807142857142857,5.735714285714286L22.021428571428572,5.735714285714286L22.021428571428572,5.521428571428571L24.692857142857143,5.521428571428571L24.692857142857143,5.735714285714286L24.90714285714286,5.735714285714286L24.90714285714286,5.95L25.5,5.95L25.5,6.05L24.807142857142857,6.05L24.807142857142857,5.835714285714285L24.59285714285714,5.835714285714285L24.59285714285714,5.621428571428571L22.121428571428574,5.621428571428571L22.121428571428574,5.835714285714285L21.90714285714286,5.835714285714285L21.90714285714286,6.05z" stroke="none"/><path d="M24.05,9L23.95,9L23.95,8.407142857142858L23.735714285714284,8.407142857142858L23.735714285714284,7.978571428571428L23.307142857142857,7.978571428571428L23.307142857142857,7.55L23.09285714285714,7.55L23.09285714285714,7.121428571428571L22.45,7.121428571428571L22.45,6.907142857142857L21.807142857142857,6.907142857142857L21.807142857142857,6.692857142857142L20.735714285714284,6.692857142857142L20.735714285714284,6.478571428571428L20.521428571428572,6.478571428571428L20.521428571428572,5.835714285714285L20.307142857142857,5.835714285714285L20.307142857142857,5.621428571428571L19.121428571428574,5.621428571428571L19.121428571428574,7.021428571428571L19.335714285714285,7.021428571428571L19.335714285714285,7.235714285714286L19.764285714285716,7.235714285714286L19.764285714285716,8.092857142857142L20.192857142857143,8.092857142857142L20.192857142857143,9.692857142857143L18.59285714285714,9.692857142857143L18.59285714285714,9.05L18,9.05L18,8.95L18.692857142857143,8.95L18.692857142857143,9.592857142857142L20.09285714285714,9.592857142857142L20.09285714285714,8.192857142857143L19.664285714285715,8.192857142857143L19.664285714285715,7.335714285714285L19.235714285714284,7.335714285714285L19.235714285714284,7.121428571428571L19.021428571428572,7.121428571428571L19.021428571428572,5.521428571428571L20.40714285714286,5.521428571428571L20.40714285714286,5.735714285714286L20.621428571428574,5.735714285714286L20.621428571428574,6.378571428571428L20.835714285714285,6.378571428571428L20.835714285714285,6.5928571428571425L21.90714285714286,6.5928571428571425L21.90714285714286,6.807142857142857L22.55,6.807142857142857L22.55,7.021428571428571L23.192857142857143,7.021428571428571L23.192857142857143,7.45L23.40714285714286,7.45L23.40714285714286,7.878571428571428L23.835714285714285,7.878571428571428L23.835714285714285,8.307142857142857L24.05,8.307142857142857z" stroke="none"/><path d="M22.45,10.5L22.55,10.5L22.55,10.978571428571428L17.307142857142857,10.978571428571428L17.307142857142857,10.764285714285716L17.09285714285714,10.764285714285716L17.09285714285714,10.55L16.5,10.55L16.5,10.45L17.192857142857143,10.45L17.192857142857143,10.664285714285715L17.40714285714286,10.664285714285715L17.40714285714286,10.878571428571426L22.45,10.878571428571426z" stroke="none"/><path d="M7.5,3.05L7.5,2.95L8.192857142857143,2.95L8.192857142857143,3.1642857142857146L8.62142857142857,3.1642857142857146L8.62142857142857,3.3785714285714286L13.235714285714284,3.3785714285714286L13.235714285714284,3.1642857142857146L13.45,3.1642857142857146L13.45,3L13.55,3L13.55,3.2642857142857142L13.335714285714285,3.2642857142857142L13.335714285714285,3.478571428571428L8.521428571428569,3.478571428571428L8.521428571428569,3.2642857142857142L8.092857142857142,3.2642857142857142L8.092857142857142,3.05z" stroke="none"/><path d="M13.5,4.45L13.5,4.55L13.235714285714284,4.55L13.235714285714284,4.121428571428571L8.62142857142857,4.121428571428571L8.62142857142857,5.192857142857142L8.407142857142858,5.192857142857142L8.407142857142858,5.407142857142857L8.192857142857143,5.407142857142857L8.192857142857143,5.835714285714285L7.764285714285714,5.835714285714285L7.764285714285714,6.05L7.5,6.05L7.5,5.95L7.664285714285715,5.95L7.664285714285715,5.735714285714286L8.092857142857142,5.735714285714286L8.092857142857142,5.307142857142857L8.307142857142857,5.307142857142857L8.307142857142857,5.0928571428571425L8.521428571428569,5.0928571428571425L8.521428571428569,4.021428571428571L13.335714285714285,4.021428571428571L13.335714285714285,4.45z" stroke="none"/><path d="M19.5,4.55L19.5,4.45L20.192857142857143,4.45L20.192857142857143,4.664285714285715L20.621428571428574,4.664285714285715L20.621428571428574,4.878571428571429L26.95,4.878571428571429L26.95,4.5L27.05,4.5L27.05,4.978571428571429L20.521428571428572,4.978571428571429L20.521428571428572,4.764285714285714L20.09285714285714,4.764285714285714L20.09285714285714,4.55z" stroke="none"/><path d="M4.5,10.45L4.5,10.55L2.7357142857142858,10.55L2.7357142857142858,10.12142857142857L2.521428571428572,10.12142857142857L2.521428571428572,9.692857142857143L2.3071428571428574,9.692857142857143L2.3071428571428574,5.95L2.521428571428572,5.95L2.521428571428572,5.735714285714286L2.7357142857142858,5.735714285714286L2.7357142857142858,5.307142857142857L2.95,5.307142857142857L2.95,5.0928571428571425L3.1642857142857146,5.0928571428571425L3.1642857142857146,4.664285714285715L3.3785714285714286,4.664285714285715L3.3785714285714286,4.235714285714286L5.521428571428571,4.235714285714286L5.521428571428571,4.021428571428571L6.478571428571428,4.021428571428571L6.478571428571428,5.521428571428571L6.692857142857142,5.521428571428571L6.692857142857142,6.164285714285715L7.121428571428571,6.164285714285715L7.121428571428571,6.378571428571428L10.235714285714284,6.378571428571428L10.235714285714284,6.164285714285715L10.45,6.164285714285715L10.45,6L10.55,6L10.55,6.264285714285714L10.335714285714285,6.264285714285714L10.335714285714285,6.478571428571428L7.021428571428571,6.478571428571428L7.021428571428571,6.264285714285714L6.5928571428571425,6.264285714285714L6.5928571428571425,5.621428571428571L6.378571428571428,5.621428571428571L6.378571428571428,4.121428571428571L5.621428571428571,4.121428571428571L5.621428571428571,4.335714285714285L3.478571428571428,4.335714285714285L3.478571428571428,4.764285714285714L3.2642857142857142,4.764285714285714L3.2642857142857142,5.192857142857142L3.05,5.192857142857142L3.05,5.407142857142857L2.8357142857142854,5.407142857142857L2.8357142857142854,5.835714285714285L2.6214285714285714,5.835714285714285L2.6214285714285714,6.05L2.407142857142857,6.05L2.407142857142857,9.592857142857142L2.6214285714285714,9.592857142857142L2.6214285714285714,10.021428571428569L2.8357142857142854,10.021428571428569L2.8357142857142854,10.45z" stroke="none"/><path d="M18,3.05L18,2.95L21.05,2.95L21.05,3.1642857142857146L22.121428571428574,3.1642857142857146L22.121428571428574,3.3785714285714286L22.878571428571426,3.3785714285714286L22.878571428571426,3.1642857142857146L25.45,3.1642857142857146L25.45,3L25.55,3L25.55,3.2642857142857142L22.978571428571428,3.2642857142857142L22.978571428571428,3.478571428571428L22.021428571428572,3.478571428571428L22.021428571428572,3.2642857142857142L20.95,3.2642857142857142L20.95,3.05z" stroke="none"/><path d="M24,6.05L24,5.95L24.692857142857143,5.95L24.692857142857143,6.164285714285715L25.12142857142857,6.164285714285715L25.12142857142857,6.378571428571428L26.307142857142857,6.378571428571428L26.307142857142857,5.95L26.735714285714284,5.95L26.735714285714284,5.0928571428571425L27.164285714285715,5.0928571428571425L27.164285714285715,4.878571428571429L27.378571428571426,4.878571428571429L27.378571428571426,4.45L27.59285714285714,4.45L27.59285714285714,2.407142857142857L18.692857142857143,2.407142857142857L18.692857142857143,2.6214285714285714L17.621428571428574,2.6214285714285714L17.621428571428574,3.05L16.5,3.05L16.5,2.95L17.521428571428572,2.95L17.521428571428572,2.521428571428572L18.59285714285714,2.521428571428572L18.59285714285714,2.3071428571428574L27.692857142857143,2.3071428571428574L27.692857142857143,4.55L27.478571428571428,4.55L27.478571428571428,4.978571428571429L27.264285714285716,4.978571428571429L27.264285714285716,5.192857142857142L26.835714285714285,5.192857142857142L26.835714285714285,6.05L26.40714285714286,6.05L26.40714285714286,6.478571428571428L25.02142857142857,6.478571428571428L25.02142857142857,6.264285714285714L24.59285714285714,6.264285714285714L24.59285714285714,6.05z" stroke="none"/><path d="M6,3.05L6,2.95L6.807142857142857,2.95L6.807142857142857,2.7357142857142858L7.021428571428571,2.7357142857142858L7.021428571428571,2.521428571428572L13.978571428571428,2.521428571428572L13.978571428571428,2.7357142857142858L14.407142857142858,2.7357142857142858L14.407142857142858,2.95L15,2.95L15,3.05L14.307142857142857,3.05L14.307142857142857,2.8357142857142854L13.878571428571426,2.8357142857142854L13.878571428571426,2.6214285714285714L7.121428571428571,2.6214285714285714L7.121428571428571,2.8357142857142854L6.907142857142857,2.8357142857142854L6.907142857142857,3.05z" stroke="none"/><path d="M25.5,9.05L25.5,8.95L26.40714285714286,8.95L26.40714285714286,9.164285714285715L26.62142857142857,9.164285714285715L26.62142857142857,9.378571428571426L27.378571428571426,9.378571428571426L27.378571428571426,8.092857142857142L27.59285714285714,8.092857142857142L27.59285714285714,5.0928571428571425L27.807142857142857,5.0928571428571425L27.807142857142857,2.1928571428571426L16.12142857142857,2.1928571428571426L16.12142857142857,3.05L15.692857142857143,3.05L15.692857142857143,3.2642857142857142L15.478571428571428,3.2642857142857142L15.478571428571428,3.478571428571428L14.62142857142857,3.478571428571428L14.62142857142857,4.878571428571429L16.45,4.878571428571429L16.45,4.5L16.55,4.5L16.55,4.978571428571429L14.521428571428569,4.978571428571429L14.521428571428569,3.3785714285714286L15.378571428571426,3.3785714285714286L15.378571428571426,3.1642857142857146L15.592857142857142,3.1642857142857146L15.592857142857142,2.95L16.02142857142857,2.95L16.02142857142857,2.092857142857143L27.90714285714286,2.092857142857143L27.90714285714286,5.192857142857142L27.692857142857143,5.192857142857142L27.692857142857143,8.192857142857143L27.478571428571428,8.192857142857143L27.478571428571428,9.478571428571428L26.52142857142857,9.478571428571428L26.52142857142857,9.264285714285716L26.307142857142857,9.264285714285716L26.307142857142857,9.05z" stroke="none"/><path d="M26.95,10.5L27.05,10.5L27.05,12.264285714285716L26.62142857142857,12.264285714285716L26.62142857142857,12.478571428571428L17.307142857142857,12.478571428571428L17.307142857142857,12.264285714285716L16.664285714285715,12.264285714285716L16.664285714285715,12.05L16.5,12.05L16.5,11.95L16.764285714285716,11.95L16.764285714285716,12.164285714285715L17.40714285714286,12.164285714285715L17.40714285714286,12.378571428571426L26.52142857142857,12.378571428571426L26.52142857142857,12.164285714285715L26.95,12.164285714285715z" stroke="none"/><path d="M5.95,10.5L6.05,10.5L6.05,10.764285714285716L5.407142857142857,10.764285714285716L5.407142857142857,10.978571428571428L2.521428571428572,10.978571428571428L2.521428571428572,10.335714285714285L2.3071428571428574,10.335714285714285L2.3071428571428574,9.907142857142858L2.092857142857143,9.907142857142858L2.092857142857143,4.878571428571429L2.7357142857142858,4.878571428571429L2.7357142857142858,4.664285714285715L2.95,4.664285714285715L2.95,4.45L3.1642857142857146,4.45L3.1642857142857146,4.021428571428571L5.307142857142857,4.021428571428571L5.307142857142857,3.8071428571428574L13.978571428571428,3.8071428571428574L13.978571428571428,4.45L14.192857142857143,4.45L14.192857142857143,4.878571428571429L14.407142857142858,4.878571428571429L14.407142857142858,5.0928571428571425L15.907142857142858,5.0928571428571425L15.907142857142858,5.307142857142857L16.12142857142857,5.307142857142857L16.12142857142857,5.521428571428571L16.335714285714285,5.521428571428571L16.335714285714285,5.735714285714286L16.55,5.735714285714286L16.55,6L16.45,6L16.45,5.835714285714285L16.235714285714284,5.835714285714285L16.235714285714284,5.621428571428571L16.02142857142857,5.621428571428571L16.02142857142857,5.407142857142857L15.807142857142857,5.407142857142857L15.807142857142857,5.192857142857142L14.307142857142857,5.192857142857142L14.307142857142857,4.978571428571429L14.092857142857142,4.978571428571429L14.092857142857142,4.55L13.878571428571426,4.55L13.878571428571426,3.907142857142857L5.407142857142857,3.907142857142857L5.407142857142857,4.121428571428571L3.2642857142857142,4.121428571428571L3.2642857142857142,4.55L3.05,4.55L3.05,4.764285714285714L2.8357142857142854,4.764285714285714L2.8357142857142854,4.978571428571429L2.1928571428571426,4.978571428571429L2.1928571428571426,9.807142857142857L2.407142857142857,9.807142857142857L2.407142857142857,10.235714285714284L2.6214285714285714,10.235714285714284L2.6214285714285714,10.878571428571426L5.307142857142857,10.878571428571426L5.307142857142857,10.664285714285715L5.95,10.664285714285715z" stroke="none"/><path d="M3,12.05L3,11.95L5.192857142857142,11.95L5.192857142857142,12.164285714285715L5.621428571428571,12.164285714285715L5.621428571428571,12.378571428571426L12.592857142857142,12.378571428571426L12.592857142857142,12.164285714285715L12.807142857142857,12.164285714285715L12.807142857142857,11.95L15,11.95L15,12.05L12.907142857142858,12.05L12.907142857142858,12.264285714285716L12.692857142857143,12.264285714285716L12.692857142857143,12.478571428571428L5.521428571428571,12.478571428571428L5.521428571428571,12.264285714285716L5.0928571428571425,12.264285714285716L5.0928571428571425,12.05z" stroke="none"/><path d="M21,10.45L21,10.55L18.164285714285715,10.55L18.164285714285715,10.335714285714285L16.878571428571426,10.335714285714285L16.878571428571426,10.12142857142857L16.12142857142857,10.12142857142857L16.12142857142857,10.335714285714285L15.692857142857143,10.335714285714285L15.692857142857143,10.764285714285716L15.478571428571428,10.764285714285716L15.478571428571428,10.978571428571428L13.12142857142857,10.978571428571428L13.12142857142857,11.192857142857143L12.692857142857143,11.192857142857143L12.692857142857143,11.407142857142858L11.192857142857143,11.407142857142858L11.192857142857143,11.62142857142857L9.05,11.62142857142857L9.05,12L8.95,12L8.95,11.521428571428569L11.092857142857142,11.521428571428569L11.092857142857142,11.307142857142857L12.592857142857142,11.307142857142857L12.592857142857142,11.092857142857142L13.021428571428569,11.092857142857142L13.021428571428569,10.878571428571426L15.378571428571426,10.878571428571426L15.378571428571426,10.664285714285715L15.592857142857142,10.664285714285715L15.592857142857142,10.235714285714284L16.02142857142857,10.235714285714284L16.02142857142857,10.021428571428569L16.978571428571428,10.021428571428569L16.978571428571428,10.235714285714284L18.264285714285716,10.235714285714284L18.264285714285716,10.45z" stroke="none"/></svg>