<svg version="1.1" width="30" height="15" xmlns="http://www.w3.org/2000/svg"><path d="M9.592857142857142,5.95L9.592857142857142,5.621428571428571L9.378571428571426,5.621428571428571L9.378571428571426,5.407142857142857L8.95,5.407142857142857L8.95,5.192857142857142L8.735714285714284,5.192857142857142L8.735714285714284,4.978571428571429L7.664285714285715,4.978571428571429L7.664285714285715,4.764285714285714L7.45,4.764285714285714L7.45,4.5L7.55,4.5L7.55,4.664285714285715L7.764285714285714,4.664285714285715L7.764285714285714,4.878571428571429L8.835714285714285,4.878571428571429L8.835714285714285,5.0928571428571425L9.05,5.0928571428571425L9.05,5.307142857142857L9.478571428571428,5.307142857142857L9.478571428571428,5.521428571428571L9.692857142857143,5.521428571428571L9.692857142857143,5.95L9.907142857142858,5.95L9.907142857142858,6.164285714285715L10.12142857142857,6.164285714285715L10.12142857142857,6.378571428571428L11.407142857142858,6.378571428571428L11.407142857142858,6.5928571428571425L11.835714285714285,6.5928571428571425L11.835714285714285,7.021428571428571L12.05,7.021428571428571L12.05,7.5L11.95,7.5L11.95,7.121428571428571L11.735714285714284,7.121428571428571L11.735714285714284,6.692857142857142L11.307142857142857,6.692857142857142L11.307142857142857,6.478571428571428L10.021428571428569,6.478571428571428L10.021428571428569,6.264285714285714L9.807142857142857,6.264285714285714L9.807142857142857,6.05L9,6.05L9,5.95z" stroke="none"/><path d="M14.735714285714284,11.092857142857142L14.735714285714284,10.45L15,10.45L15,10.55L14.835714285714285,10.55L14.835714285714285,11.192857142857143L13.55,11.192857142857143L13.55,11.307142857142857L15.807142857142857,11.307142857142857L15.807142857142857,11.092857142857142L16.02142857142857,11.092857142857142L16.02142857142857,10.878571428571426L16.45,10.878571428571426L16.45,10.5L16.55,10.5L16.55,10.978571428571428L16.12142857142857,10.978571428571428L16.12142857142857,11.192857142857143L15.907142857142858,11.192857142857143L15.907142857142858,11.407142857142858L13.45,11.407142857142858L13.45,11.192857142857143L13.335714285714285,11.192857142857143L13.335714285714285,12.264285714285716L13.12142857142857,12.264285714285716L13.12142857142857,12.478571428571428L10.021428571428569,12.478571428571428L10.021428571428569,12.264285714285716L9.807142857142857,12.264285714285716L9.807142857142857,12.05L9,12.05L9,11.95L9.907142857142858,11.95L9.907142857142858,12.164285714285715L10.12142857142857,12.164285714285715L10.12142857142857,12.378571428571426L13.021428571428569,12.378571428571426L13.021428571428569,12.164285714285715L13.235714285714284,12.164285714285715L13.235714285714284,11.092857142857142z" stroke="none"/><path d="M14.307142857142857,8.95L14.307142857142857,8.735714285714284L14.521428571428569,8.735714285714284L14.521428571428569,8.521428571428569L15.378571428571426,8.521428571428569L15.378571428571426,8.092857142857142L15.592857142857142,8.092857142857142L15.592857142857142,7.878571428571428L15.807142857142857,7.878571428571428L15.807142857142857,7.45L16.5,7.45L16.5,7.55L15.907142857142858,7.55L15.907142857142858,7.978571428571428L15.692857142857143,7.978571428571428L15.692857142857143,8.192857142857143L15.478571428571428,8.192857142857143L15.478571428571428,8.62142857142857L14.62142857142857,8.62142857142857L14.62142857142857,8.835714285714285L14.407142857142858,8.835714285714285L14.407142857142858,9.05L12.692857142857143,9.05L12.692857142857143,12.05L12,12.05L12,11.95L12.592857142857142,11.95L12.592857142857142,9.05L12.378571428571426,9.05L12.378571428571426,8.62142857142857L9.164285714285715,8.62142857142857L9.164285714285715,7.978571428571428L8.95,7.978571428571428L8.95,7.5L9.05,7.5L9.05,7.878571428571428L9.264285714285716,7.878571428571428L9.264285714285716,8.521428571428569L12.478571428571428,8.521428571428569L12.478571428571428,8.95z" stroke="none"/><path d="M18.59285714285714,10.664285714285715L18.59285714285714,9.264285714285716L18.378571428571426,9.264285714285716L18.378571428571426,9.05L18,9.05L18,8.95L18.478571428571428,8.95L18.478571428571428,9.164285714285715L18.692857142857143,9.164285714285715L18.692857142857143,10.664285714285715L19.121428571428574,10.664285714285715L19.121428571428574,10.878571428571426L25.55,10.878571428571426L25.55,12L25.45,12L25.45,10.978571428571428L19.021428571428572,10.978571428571428L19.021428571428572,10.764285714285716L18.692857142857143,10.764285714285716L18.692857142857143,11.407142857142858L18.478571428571428,11.407142857142858L18.478571428571428,11.62142857142857L18.264285714285716,11.62142857142857L18.264285714285716,12.05L18,12.05L18,11.95L18.164285714285715,11.95L18.164285714285715,11.521428571428569L18.378571428571426,11.521428571428569L18.378571428571426,11.307142857142857L18.59285714285714,11.307142857142857L18.59285714285714,10.764285714285716L18.378571428571426,10.764285714285716L18.378571428571426,10.12142857142857L13.978571428571428,10.12142857142857L13.978571428571428,10.55L13.5,10.55L13.5,10.45L13.878571428571426,10.45L13.878571428571426,10.021428571428569L18.478571428571428,10.021428571428569L18.478571428571428,10.664285714285715z" stroke="none"/><path d="M17.95,7.45L17.95,6.807142857142857L18.164285714285715,6.807142857142857L18.164285714285715,6.164285714285715L18.378571428571426,6.164285714285715L18.378571428571426,5.95L19.5,5.95L19.5,6.05L18.478571428571428,6.05L18.478571428571428,6.264285714285714L18.264285714285716,6.264285714285714L18.264285714285716,6.907142857142857L18.05,6.907142857142857L18.05,7.45L19.5,7.45L19.5,7.55L18.05,7.55L18.05,7.878571428571428L18.478571428571428,7.878571428571428L18.478571428571428,8.092857142857142L18.692857142857143,8.092857142857142L18.692857142857143,8.307142857142857L18.90714285714286,8.307142857142857L18.90714285714286,8.521428571428569L19.121428571428574,8.521428571428569L19.121428571428574,8.95L19.5,8.95L19.5,9.05L19.021428571428572,9.05L19.021428571428572,8.62142857142857L18.807142857142857,8.62142857142857L18.807142857142857,8.407142857142858L18.59285714285714,8.407142857142858L18.59285714285714,8.192857142857143L18.378571428571426,8.192857142857143L18.378571428571426,7.978571428571428L17.95,7.978571428571428L17.95,7.55L17.521428571428572,7.55L17.521428571428572,7.335714285714285L17.09285714285714,7.335714285714285L17.09285714285714,7.121428571428571L14.407142857142858,7.121428571428571L14.407142857142858,7.55L13.5,7.55L13.5,7.45L14.307142857142857,7.45L14.307142857142857,7.021428571428571L17.192857142857143,7.021428571428571L17.192857142857143,7.235714285714286L17.621428571428574,7.235714285714286L17.621428571428574,7.45z" stroke="none"/><path d="M14.95,4.45L14.95,4.235714285714286L20.835714285714285,4.235714285714286L20.835714285714285,4.45L21,4.45L21,4.55L20.735714285714284,4.55L20.735714285714284,4.335714285714285L15.05,4.335714285714285L15.05,4.45L16.5,4.45L16.5,4.55L15.05,4.55L15.05,4.764285714285714L13.12142857142857,4.764285714285714L13.12142857142857,4.978571428571429L12.264285714285716,4.978571428571429L12.264285714285716,5.192857142857142L11.62142857142857,5.192857142857142L11.62142857142857,5.621428571428571L11.192857142857143,5.621428571428571L11.192857142857143,5.835714285714285L10.55,5.835714285714285L10.55,6L10.45,6L10.45,5.735714285714286L11.092857142857142,5.735714285714286L11.092857142857142,5.521428571428571L11.521428571428569,5.521428571428571L11.521428571428569,5.0928571428571425L12.164285714285715,5.0928571428571425L12.164285714285715,4.878571428571429L13.021428571428569,4.878571428571429L13.021428571428569,4.664285714285715L14.95,4.664285714285715L14.95,4.55L12.378571428571426,4.55L12.378571428571426,3.907142857142857L12.164285714285715,3.907142857142857L12.164285714285715,3.05L12,3.05L12,2.95L12.264285714285716,2.95L12.264285714285716,3.8071428571428574L12.478571428571428,3.8071428571428574L12.478571428571428,4.45z" stroke="none"/><path d="M6,11.95L6,12.05L4.5,12.05L4.5,11.95z" stroke="none"/><path d="M10.55,10.5L10.45,10.5L10.45,9L10.55,9z" stroke="none"/><path d="M20.95,7.5L21.05,7.5L21.05,8.307142857142857L21.264285714285716,8.307142857142857L21.264285714285716,8.521428571428569L22.121428571428574,8.521428571428569L22.121428571428574,8.735714285714284L22.55,8.735714285714284L22.55,9L22.45,9L22.45,8.835714285714285L22.021428571428572,8.835714285714285L22.021428571428572,8.62142857142857L21.164285714285715,8.62142857142857L21.164285714285715,8.407142857142858L20.95,8.407142857142858z" stroke="none"/><path d="M4.45,4.5L4.55,4.5L4.55,5.307142857142857L4.764285714285714,5.307142857142857L4.764285714285714,5.521428571428571L5.192857142857142,5.521428571428571L5.192857142857142,5.735714285714286L6.05,5.735714285714286L6.05,6L5.95,6L5.95,5.835714285714285L5.0928571428571425,5.835714285714285L5.0928571428571425,5.621428571428571L4.664285714285715,5.621428571428571L4.664285714285715,5.407142857142857L4.45,5.407142857142857z" stroke="none"/><path d="M3.05,6L2.95,6L2.95,3L3.05,3z" stroke="none"/><path d="M25.5,2.95L25.5,3.05L24.59285714285714,3.05L24.59285714285714,2.8357142857142854L24.378571428571426,2.8357142857142854L24.378571428571426,2.6214285714285714L23.62142857142857,2.6214285714285714L23.62142857142857,2.8357142857142854L23.40714285714286,2.8357142857142854L23.40714285714286,3.05L22.5,3.05L22.5,2.95L23.307142857142857,2.95L23.307142857142857,2.7357142857142858L23.52142857142857,2.7357142857142858L23.52142857142857,2.521428571428572L24.478571428571428,2.521428571428572L24.478571428571428,2.7357142857142858L24.692857142857143,2.7357142857142858L24.692857142857143,2.95z" stroke="none"/><path d="M15,9.05L15,8.95L17.09285714285714,8.95L17.09285714285714,8.735714285714284L17.521428571428572,8.735714285714284L17.521428571428572,8.521428571428569L18.692857142857143,8.521428571428569L18.692857142857143,8.95L18.90714285714286,8.95L18.90714285714286,9.378571428571426L19.878571428571426,9.378571428571426L19.878571428571426,5.621428571428571L15.264285714285716,5.621428571428571L15.264285714285716,5.835714285714285L15.05,5.835714285714285L15.05,6L14.95,6L14.95,5.735714285714286L15.164285714285715,5.735714285714286L15.164285714285715,5.521428571428571L19.978571428571428,5.521428571428571L19.978571428571428,9.478571428571428L18.807142857142857,9.478571428571428L18.807142857142857,9.05L18.59285714285714,9.05L18.59285714285714,8.62142857142857L17.621428571428574,8.62142857142857L17.621428571428574,8.835714285714285L17.192857142857143,8.835714285714285L17.192857142857143,9.05z" stroke="none"/><path d="M10.5,11.95L10.5,12.05L10.021428571428569,12.05L10.021428571428569,11.835714285714285L9.378571428571426,11.835714285714285L9.378571428571426,11.62142857142857L8.407142857142858,11.62142857142857L8.407142857142858,11.835714285714285L7.55,11.835714285714285L7.55,12L7.45,12L7.45,11.735714285714284L8.307142857142857,11.735714285714284L8.307142857142857,11.521428571428569L9.478571428571428,11.521428571428569L9.478571428571428,11.735714285714284L10.12142857142857,11.735714285714284L10.12142857142857,11.95z" stroke="none"/><path d="M22.55,10.5L22.45,10.5L22.45,10.021428571428569L22.664285714285715,10.021428571428569L22.664285714285715,9.592857142857142L22.878571428571426,9.592857142857142L22.878571428571426,8.307142857142857L23.09285714285714,8.307142857142857L23.09285714285714,7.664285714285715L23.307142857142857,7.664285714285715L23.307142857142857,7.45L24,7.45L24,7.55L23.40714285714286,7.55L23.40714285714286,7.764285714285714L23.192857142857143,7.764285714285714L23.192857142857143,8.407142857142858L22.978571428571428,8.407142857142858L22.978571428571428,9.692857142857143L22.764285714285716,9.692857142857143L22.764285714285716,10.12142857142857L22.55,10.12142857142857z" stroke="none"/><path d="M4.55,10.5L4.45,10.5L4.45,8.521428571428569L4.664285714285715,8.521428571428569L4.664285714285715,8.092857142857142L5.0928571428571425,8.092857142857142L5.0928571428571425,7.878571428571428L5.307142857142857,7.878571428571428L5.307142857142857,7.45L6,7.45L6,7.55L5.407142857142857,7.55L5.407142857142857,7.978571428571428L5.192857142857142,7.978571428571428L5.192857142857142,8.192857142857143L4.764285714285714,8.192857142857143L4.764285714285714,8.62142857142857L4.55,8.62142857142857z" stroke="none"/><path d="M7.55,6L7.45,6L7.45,5.621428571428571L7.235714285714286,5.621428571428571L7.235714285714286,5.192857142857142L7.021428571428571,5.192857142857142L7.021428571428571,4.021428571428571L10.12142857142857,4.021428571428571L10.12142857142857,4.235714285714286L10.335714285714285,4.235714285714286L10.335714285714285,4.45L10.5,4.45L10.5,4.55L10.235714285714284,4.55L10.235714285714284,4.335714285714285L10.021428571428569,4.335714285714285L10.021428571428569,4.121428571428571L7.121428571428571,4.121428571428571L7.121428571428571,5.0928571428571425L7.335714285714285,5.0928571428571425L7.335714285714285,5.521428571428571L7.55,5.521428571428571z" stroke="none"/><path d="M6,3.05L6,2.95L8.521428571428569,2.95L8.521428571428569,2.521428571428572L10.55,2.521428571428572L10.55,3L10.45,3L10.45,2.6214285714285714L8.62142857142857,2.6214285714285714L8.62142857142857,3.05z" stroke="none"/><path d="M27.05,9L26.95,9L26.95,4.5L27.05,4.5z" stroke="none"/><path d="M4.5,6.05L4.5,5.95L4.978571428571429,5.95L4.978571428571429,6.164285714285715L5.192857142857142,6.164285714285715L5.192857142857142,6.378571428571428L6.264285714285714,6.378571428571428L6.264285714285714,6.5928571428571425L6.478571428571428,6.5928571428571425L6.478571428571428,9.478571428571428L6.05,9.478571428571428L6.05,10.5L5.95,10.5L5.95,9.378571428571426L6.378571428571428,9.378571428571426L6.378571428571428,6.692857142857142L6.164285714285715,6.692857142857142L6.164285714285715,6.478571428571428L5.0928571428571425,6.478571428571428L5.0928571428571425,6.264285714285714L4.878571428571429,6.264285714285714L4.878571428571429,6.05z" stroke="none"/><path d="M27.05,12L26.95,12L26.95,11.835714285714285L26.735714285714284,11.835714285714285L26.735714285714284,10.978571428571428L26.52142857142857,10.978571428571428L26.52142857142857,8.62142857142857L25.878571428571426,8.62142857142857L25.878571428571426,8.192857142857143L25.664285714285715,8.192857142857143L25.664285714285715,7.764285714285714L25.45,7.764285714285714L25.45,7.5L25.55,7.5L25.55,7.664285714285715L25.764285714285716,7.664285714285715L25.764285714285716,8.092857142857142L25.978571428571428,8.092857142857142L25.978571428571428,8.521428571428569L26.62142857142857,8.521428571428569L26.62142857142857,10.878571428571426L26.835714285714285,10.878571428571426L26.835714285714285,11.735714285714284L27.05,11.735714285714284z" stroke="none"/><path d="M27.05,10.5L26.95,10.5L26.95,9.378571428571426L27.378571428571426,9.378571428571426L27.378571428571426,4.121428571428571L26.62142857142857,4.121428571428571L26.62142857142857,5.621428571428571L25.978571428571428,5.621428571428571L25.978571428571428,6.05L25.5,6.05L25.5,5.95L25.878571428571426,5.95L25.878571428571426,5.521428571428571L26.52142857142857,5.521428571428571L26.52142857142857,4.021428571428571L27.478571428571428,4.021428571428571L27.478571428571428,9.478571428571428L27.05,9.478571428571428z" stroke="none"/><path d="M15,2.95L15,3.05L14.092857142857142,3.05L14.092857142857142,2.8357142857142854L13.878571428571426,2.8357142857142854L13.878571428571426,2.6214285714285714L11.62142857142857,2.6214285714285714L11.62142857142857,3.478571428571428L9.164285714285715,3.478571428571428L9.164285714285715,3.05L9,3.05L9,2.95L9.264285714285716,2.95L9.264285714285716,3.3785714285714286L11.521428571428569,3.3785714285714286L11.521428571428569,2.521428571428572L13.978571428571428,2.521428571428572L13.978571428571428,2.7357142857142858L14.192857142857143,2.7357142857142858L14.192857142857143,2.95z" stroke="none"/><path d="M18,3.05L18,2.95L21.05,2.95L21.05,3.1642857142857146L22.121428571428574,3.1642857142857146L22.121428571428574,3.3785714285714286L23.307142857142857,3.3785714285714286L23.307142857142857,3.1642857142857146L23.95,3.1642857142857146L23.95,3L24.05,3L24.05,3.2642857142857142L23.40714285714286,3.2642857142857142L23.40714285714286,3.478571428571428L22.021428571428572,3.478571428571428L22.021428571428572,3.2642857142857142L20.95,3.2642857142857142L20.95,3.05z" stroke="none"/><path d="M13.45,3L13.55,3L13.55,3.1642857142857146L14.407142857142858,3.1642857142857146L14.407142857142858,3.3785714285714286L15.378571428571426,3.3785714285714286L15.378571428571426,2.6214285714285714L14.521428571428569,2.6214285714285714L14.521428571428569,2.407142857142857L5.621428571428571,2.407142857142857L5.621428571428571,4.878571428571429L6.05,4.878571428571429L6.05,5.307142857142857L6.478571428571428,5.307142857142857L6.478571428571428,6.378571428571428L6.692857142857142,6.378571428571428L6.692857142857142,7.235714285714286L7.335714285714285,7.235714285714286L7.335714285714285,7.45L7.5,7.45L7.5,7.55L7.235714285714286,7.55L7.235714285714286,7.335714285714285L6.5928571428571425,7.335714285714285L6.5928571428571425,6.478571428571428L6.378571428571428,6.478571428571428L6.378571428571428,5.407142857142857L5.95,5.407142857142857L5.95,4.978571428571429L5.521428571428571,4.978571428571429L5.521428571428571,2.3071428571428574L14.62142857142857,2.3071428571428574L14.62142857142857,2.521428571428572L15.478571428571428,2.521428571428572L15.478571428571428,3.478571428571428L14.307142857142857,3.478571428571428L14.307142857142857,3.2642857142857142L13.45,3.2642857142857142z" stroke="none"/><path d="M19.5,10.55L19.5,10.45L20.09285714285714,10.45L20.09285714285714,5.407142857142857L14.62142857142857,5.407142857142857L14.62142857142857,6.264285714285714L14.407142857142858,6.264285714285714L14.407142857142858,6.692857142857142L13.764285714285716,6.692857142857142L13.764285714285716,6.907142857142857L13.335714285714285,6.907142857142857L13.335714285714285,7.121428571428571L13.12142857142857,7.121428571428571L13.12142857142857,7.978571428571428L10.021428571428569,7.978571428571428L10.021428571428569,7.121428571428571L8.62142857142857,7.121428571428571L8.62142857142857,8.735714285714284L8.835714285714285,8.735714285714284L8.835714285714285,8.95L9.05,8.95L9.05,9.164285714285715L9.264285714285716,9.164285714285715L9.264285714285716,9.378571428571426L9.692857142857143,9.378571428571426L9.692857142857143,9.592857142857142L9.907142857142858,9.592857142857142L9.907142857142858,9.807142857142857L10.12142857142857,9.807142857142857L10.12142857142857,10.878571428571426L11.521428571428569,10.878571428571426L11.521428571428569,10.021428571428569L11.735714285714284,10.021428571428569L11.735714285714284,9.164285714285715L11.95,9.164285714285715L11.95,9L12.05,9L12.05,9.264285714285716L11.835714285714285,9.264285714285716L11.835714285714285,10.12142857142857L11.62142857142857,10.12142857142857L11.62142857142857,10.978571428571428L10.021428571428569,10.978571428571428L10.021428571428569,9.907142857142858L9.807142857142857,9.907142857142858L9.807142857142857,9.692857142857143L9.592857142857142,9.692857142857143L9.592857142857142,9.478571428571428L9.164285714285715,9.478571428571428L9.164285714285715,9.264285714285716L8.95,9.264285714285716L8.95,9.05L8.735714285714284,9.05L8.735714285714284,8.835714285714285L8.521428571428569,8.835714285714285L8.521428571428569,7.021428571428571L10.12142857142857,7.021428571428571L10.12142857142857,7.878571428571428L13.021428571428569,7.878571428571428L13.021428571428569,7.021428571428571L13.235714285714284,7.021428571428571L13.235714285714284,6.807142857142857L13.664285714285715,6.807142857142857L13.664285714285715,6.5928571428571425L14.307142857142857,6.5928571428571425L14.307142857142857,6.164285714285715L14.521428571428569,6.164285714285715L14.521428571428569,5.307142857142857L20.192857142857143,5.307142857142857L20.192857142857143,10.55z" stroke="none"/><path d="M4.45,3L4.55,3L4.55,3.478571428571428L4.121428571428571,3.478571428571428L4.121428571428571,10.878571428571426L6.378571428571428,10.878571428571426L6.378571428571428,10.235714285714284L7.021428571428571,10.235714285714284L7.021428571428571,8.521428571428569L7.235714285714286,8.521428571428569L7.235714285714286,8.307142857142857L7.664285714285715,8.307142857142857L7.664285714285715,7.878571428571428L7.878571428571428,7.878571428571428L7.878571428571428,7.121428571428571L7.45,7.121428571428571L7.45,6.907142857142857L7.235714285714286,6.907142857142857L7.235714285714286,6.478571428571428L7.021428571428571,6.478571428571428L7.021428571428571,5.835714285714285L6.807142857142857,5.835714285714285L6.807142857142857,3.8071428571428574L11.192857142857143,3.8071428571428574L11.192857142857143,4.021428571428571L11.407142857142858,4.021428571428571L11.407142857142858,4.235714285714286L12.05,4.235714285714286L12.05,4.5L11.95,4.5L11.95,4.335714285714285L11.307142857142857,4.335714285714285L11.307142857142857,4.121428571428571L11.092857142857142,4.121428571428571L11.092857142857142,3.907142857142857L6.907142857142857,3.907142857142857L6.907142857142857,5.735714285714286L7.121428571428571,5.735714285714286L7.121428571428571,6.378571428571428L7.335714285714285,6.378571428571428L7.335714285714285,6.807142857142857L7.55,6.807142857142857L7.55,7.021428571428571L7.978571428571428,7.021428571428571L7.978571428571428,7.978571428571428L7.764285714285714,7.978571428571428L7.764285714285714,8.407142857142858L7.335714285714285,8.407142857142858L7.335714285714285,8.62142857142857L7.121428571428571,8.62142857142857L7.121428571428571,10.335714285714285L6.478571428571428,10.335714285714285L6.478571428571428,10.978571428571428L4.021428571428571,10.978571428571428L4.021428571428571,3.3785714285714286L4.45,3.3785714285714286z" stroke="none"/><path d="M18,10.45L18,10.55L16.978571428571428,10.55L16.978571428571428,10.978571428571428L16.764285714285716,10.978571428571428L16.764285714285716,11.192857142857143L16.335714285714285,11.192857142857143L16.335714285714285,11.407142857142858L16.12142857142857,11.407142857142858L16.12142857142857,11.62142857142857L15.264285714285716,11.62142857142857L15.264285714285716,12.05L15.05,12.05L15.05,12.478571428571428L13.55,12.478571428571428L13.55,12.692857142857143L7.45,12.692857142857143L7.45,12.478571428571428L7.021428571428571,12.478571428571428L7.021428571428571,11.521428571428569L8.092857142857142,11.521428571428569L8.092857142857142,11.307142857142857L8.307142857142857,11.307142857142857L8.307142857142857,10.664285714285715L8.521428571428569,10.664285714285715L8.521428571428569,10.45L9,10.45L9,10.55L8.62142857142857,10.55L8.62142857142857,10.764285714285716L8.407142857142858,10.764285714285716L8.407142857142858,11.407142857142858L8.192857142857143,11.407142857142858L8.192857142857143,11.62142857142857L7.121428571428571,11.62142857142857L7.121428571428571,12.378571428571426L7.55,12.378571428571426L7.55,12.592857142857142L13.45,12.592857142857142L13.45,12.378571428571426L14.95,12.378571428571426L14.95,11.95L15.164285714285715,11.95L15.164285714285715,11.521428571428569L16.02142857142857,11.521428571428569L16.02142857142857,11.307142857142857L16.235714285714284,11.307142857142857L16.235714285714284,11.092857142857142L16.664285714285715,11.092857142857142L16.664285714285715,10.878571428571426L16.878571428571426,10.878571428571426L16.878571428571426,10.45z" stroke="none"/><path d="M10.55,7.5L10.45,7.5L10.45,6.907142857142857L8.407142857142858,6.907142857142857L8.407142857142858,10.55L7.978571428571428,10.55L7.978571428571428,10.764285714285716L7.121428571428571,10.764285714285716L7.121428571428571,10.978571428571428L6.907142857142857,10.978571428571428L6.907142857142857,12.592857142857142L7.121428571428571,12.592857142857142L7.121428571428571,12.807142857142857L24.807142857142857,12.807142857142857L24.807142857142857,12.378571428571426L25.878571428571426,12.378571428571426L25.878571428571426,8.835714285714285L25.02142857142857,8.835714285714285L25.02142857142857,7.764285714285714L24.59285714285714,7.764285714285714L24.59285714285714,7.55L24.378571428571426,7.55L24.378571428571426,7.121428571428571L20.621428571428574,7.121428571428571L20.621428571428574,10.235714285714284L21.05,10.235714285714284L21.05,10.5L20.95,10.5L20.95,10.335714285714285L20.521428571428572,10.335714285714285L20.521428571428572,7.021428571428571L24.478571428571428,7.021428571428571L24.478571428571428,7.45L24.692857142857143,7.45L24.692857142857143,7.664285714285715L25.12142857142857,7.664285714285715L25.12142857142857,8.735714285714284L25.978571428571428,8.735714285714284L25.978571428571428,12.478571428571428L24.90714285714286,12.478571428571428L24.90714285714286,12.907142857142858L7.021428571428571,12.907142857142858L7.021428571428571,12.692857142857143L6.807142857142857,12.692857142857143L6.807142857142857,10.878571428571426L7.021428571428571,10.878571428571426L7.021428571428571,10.664285714285715L7.878571428571428,10.664285714285715L7.878571428571428,10.45L8.307142857142857,10.45L8.307142857142857,6.807142857142857L10.55,6.807142857142857z" stroke="none"/><path d="M3.05,9L2.95,9L2.95,6.5928571428571425L3.1642857142857146,6.5928571428571425L3.1642857142857146,6.378571428571428L3.3785714285714286,6.378571428571428L3.3785714285714286,2.95L3.592857142857143,2.95L3.592857142857143,2.7357142857142858L4.021428571428571,2.7357142857142858L4.021428571428571,2.521428571428572L4.878571428571429,2.521428571428572L4.878571428571429,2.3071428571428574L5.0928571428571425,2.3071428571428574L5.0928571428571425,2.092857142857143L16.764285714285716,2.092857142857143L16.764285714285716,2.95L17.192857142857143,2.95L17.192857142857143,3.1642857142857146L17.621428571428574,3.1642857142857146L17.621428571428574,3.3785714285714286L21.264285714285716,3.3785714285714286L21.264285714285716,4.021428571428571L21.478571428571428,4.021428571428571L21.478571428571428,4.978571428571429L13.978571428571428,4.978571428571429L13.978571428571428,5.192857142857142L13.764285714285716,5.192857142857142L13.764285714285716,5.835714285714285L13.55,5.835714285714285L13.55,6L13.45,6L13.45,5.735714285714286L13.664285714285715,5.735714285714286L13.664285714285715,5.0928571428571425L13.878571428571426,5.0928571428571425L13.878571428571426,4.878571428571429L21.378571428571426,4.878571428571429L21.378571428571426,4.121428571428571L21.164285714285715,4.121428571428571L21.164285714285715,3.478571428571428L17.521428571428572,3.478571428571428L17.521428571428572,3.2642857142857142L17.09285714285714,3.2642857142857142L17.09285714285714,3.05L16.664285714285715,3.05L16.664285714285715,2.1928571428571426L5.192857142857142,2.1928571428571426L5.192857142857142,2.407142857142857L4.978571428571429,2.407142857142857L4.978571428571429,2.6214285714285714L4.121428571428571,2.6214285714285714L4.121428571428571,2.8357142857142854L3.6928571428571426,2.8357142857142854L3.6928571428571426,3.05L3.478571428571428,3.05L3.478571428571428,6.478571428571428L3.2642857142857142,6.478571428571428L3.2642857142857142,6.692857142857142L3.05,6.692857142857142z" stroke="none"/></svg>