<svg version="1.1" width="30" height="15" xmlns="http://www.w3.org/2000/svg"><path d="M11.307142857142857,8.307142857142857L11.307142857142857,7.878571428571428L11.521428571428569,7.878571428571428L11.521428571428569,7.664285714285715L11.95,7.664285714285715L11.95,7.5L12.05,7.5L12.05,7.764285714285714L11.62142857142857,7.764285714285714L11.62142857142857,7.978571428571428L11.407142857142858,7.978571428571428L11.407142857142858,8.407142857142858L6.907142857142857,8.407142857142858L6.907142857142857,8.62142857142857L6.478571428571428,8.62142857142857L6.478571428571428,9.05L6,9.05L6,8.95L6.378571428571428,8.95L6.378571428571428,8.521428571428569L6.807142857142857,8.521428571428569L6.807142857142857,8.407142857142858L4.335714285714285,8.407142857142858L4.335714285714285,8.62142857142857L4.121428571428571,8.62142857142857L4.121428571428571,8.835714285714285L3.478571428571428,8.835714285714285L3.478571428571428,9.05L3,9.05L3,8.95L3.3785714285714286,8.95L3.3785714285714286,8.735714285714284L4.021428571428571,8.735714285714284L4.021428571428571,8.521428571428569L4.235714285714286,8.521428571428569L4.235714285714286,8.307142857142857z" stroke="none"/><path d="M19.878571428571426,11.307142857142857L19.878571428571426,11.092857142857142L25.45,11.092857142857142L25.45,10.5L25.55,10.5L25.55,11.192857142857143L19.978571428571428,11.192857142857143L19.978571428571428,11.307142857142857L20.40714285714286,11.307142857142857L20.40714285714286,11.95L21,11.95L21,12.05L20.307142857142857,12.05L20.307142857142857,11.407142857142858L13.978571428571428,11.407142857142858L13.978571428571428,11.62142857142857L13.764285714285716,11.62142857142857L13.764285714285716,11.835714285714285L13.55,11.835714285714285L13.55,12L13.45,12L13.45,11.735714285714284L13.664285714285715,11.735714285714284L13.664285714285715,11.521428571428569L13.878571428571426,11.521428571428569L13.878571428571426,11.307142857142857z" stroke="none"/><path d="M8.307142857142857,5.307142857142857L8.307142857142857,5.192857142857142L4.664285714285715,5.192857142857142L4.664285714285715,4.55L4.5,4.55L4.5,4.45L4.764285714285714,4.45L4.764285714285714,5.0928571428571425L8.407142857142858,5.0928571428571425L8.407142857142858,5.307142857142857L15.05,5.307142857142857L15.05,5.521428571428571L15.478571428571428,5.521428571428571L15.478571428571428,5.735714285714286L15.907142857142858,5.735714285714286L15.907142857142858,5.95L16.5,5.95L16.5,6.05L15.807142857142857,6.05L15.807142857142857,5.835714285714285L15.378571428571426,5.835714285714285L15.378571428571426,5.621428571428571L14.95,5.621428571428571L14.95,5.407142857142857L4.978571428571429,5.407142857142857L4.978571428571429,5.621428571428571L4.764285714285714,5.621428571428571L4.764285714285714,5.835714285714285L4.55,5.835714285714285L4.55,6L4.45,6L4.45,5.735714285714286L4.664285714285715,5.735714285714286L4.664285714285715,5.521428571428571L4.878571428571429,5.521428571428571L4.878571428571429,5.307142857142857z" stroke="none"/><path d="M8.092857142857142,10.45L8.092857142857142,10.335714285714285L6.378571428571428,10.335714285714285L6.378571428571428,10.12142857142857L4.878571428571429,10.12142857142857L4.878571428571429,9.907142857142858L4.664285714285715,9.907142857142858L4.664285714285715,9.05L4.5,9.05L4.5,8.95L4.764285714285714,8.95L4.764285714285714,9.807142857142857L4.978571428571429,9.807142857142857L4.978571428571429,10.021428571428569L6.478571428571428,10.021428571428569L6.478571428571428,10.235714285714284L8.192857142857143,10.235714285714284L8.192857142857143,10.45L8.62142857142857,10.45L8.62142857142857,10.878571428571426L10.235714285714284,10.878571428571426L10.235714285714284,10.45L10.5,10.45L10.5,10.55L10.335714285714285,10.55L10.335714285714285,10.978571428571428L8.521428571428569,10.978571428571428L8.521428571428569,10.55L8.192857142857143,10.55L8.192857142857143,10.664285714285715L8.407142857142858,10.664285714285715L8.407142857142858,11.092857142857142L8.835714285714285,11.092857142857142L8.835714285714285,11.521428571428569L9.05,11.521428571428569L9.05,11.735714285714284L10.12142857142857,11.735714285714284L10.12142857142857,11.95L10.5,11.95L10.5,12.05L10.021428571428569,12.05L10.021428571428569,11.835714285714285L8.95,11.835714285714285L8.95,11.62142857142857L8.735714285714284,11.62142857142857L8.735714285714284,11.192857142857143L8.307142857142857,11.192857142857143L8.307142857142857,10.764285714285716L8.092857142857142,10.764285714285716L8.092857142857142,10.55L7.5,10.55L7.5,10.45z" stroke="none"/><path d="M15.807142857142857,4.664285714285715L15.807142857142857,4.45L16.02142857142857,4.45L16.02142857142857,4.235714285714286L21.692857142857143,4.235714285714286L21.692857142857143,4.664285714285715L22.121428571428574,4.664285714285715L22.121428571428574,4.878571428571429L22.335714285714285,4.878571428571429L22.335714285714285,5.735714285714286L22.55,5.735714285714286L22.55,6L22.45,6L22.45,5.835714285714285L22.235714285714284,5.835714285714285L22.235714285714284,4.978571428571429L22.021428571428572,4.978571428571429L22.021428571428572,4.764285714285714L21.59285714285714,4.764285714285714L21.59285714285714,4.335714285714285L16.12142857142857,4.335714285714285L16.12142857142857,4.55L15.907142857142858,4.55L15.907142857142858,4.664285714285715L16.235714285714284,4.664285714285715L16.235714285714284,4.45L16.5,4.45L16.5,4.55L16.335714285714285,4.55L16.335714285714285,4.764285714285714L15.907142857142858,4.764285714285714L15.907142857142858,4.978571428571429L11.092857142857142,4.978571428571429L11.092857142857142,4.55L10.5,4.55L10.5,4.45L11.192857142857143,4.45L11.192857142857143,4.878571428571429L15.807142857142857,4.878571428571429L15.807142857142857,4.764285714285714L15.164285714285715,4.764285714285714L15.164285714285715,4.55L15,4.55L15,4.45L15.264285714285716,4.45L15.264285714285716,4.664285714285715z" stroke="none"/><path d="M8.092857142857142,4.664285714285715L8.092857142857142,4.55L7.021428571428571,4.55L7.021428571428571,4.121428571428571L6.5928571428571425,4.121428571428571L6.5928571428571425,3.907142857142857L5.0928571428571425,3.907142857142857L5.0928571428571425,3.2642857142857142L4.664285714285715,3.2642857142857142L4.664285714285715,3.05L4.5,3.05L4.5,2.95L4.764285714285714,2.95L4.764285714285714,3.1642857142857146L5.192857142857142,3.1642857142857146L5.192857142857142,3.8071428571428574L6.692857142857142,3.8071428571428574L6.692857142857142,4.021428571428571L7.121428571428571,4.021428571428571L7.121428571428571,4.45L8.192857142857143,4.45L8.192857142857143,4.664285714285715L8.307142857142857,4.664285714285715L8.307142857142857,4.335714285714285L7.664285714285715,4.335714285714285L7.664285714285715,4.121428571428571L7.45,4.121428571428571L7.45,3.907142857142857L7.021428571428571,3.907142857142857L7.021428571428571,3.6928571428571426L5.307142857142857,3.6928571428571426L5.307142857142857,3.05L4.878571428571429,3.05L4.878571428571429,2.8357142857142854L4.335714285714285,2.8357142857142854L4.335714285714285,3.907142857142857L3.907142857142857,3.907142857142857L3.907142857142857,7.235714285714286L4.55,7.235714285714286L4.55,7.5L4.45,7.5L4.45,7.335714285714285L3.8071428571428574,7.335714285714285L3.8071428571428574,3.8071428571428574L4.235714285714286,3.8071428571428574L4.235714285714286,2.7357142857142858L4.978571428571429,2.7357142857142858L4.978571428571429,2.95L5.407142857142857,2.95L5.407142857142857,3.592857142857143L7.121428571428571,3.592857142857143L7.121428571428571,3.8071428571428574L7.55,3.8071428571428574L7.55,4.021428571428571L7.764285714285714,4.021428571428571L7.764285714285714,4.235714285714286L8.407142857142858,4.235714285714286L8.407142857142858,4.764285714285714L8.192857142857143,4.764285714285714L8.192857142857143,4.878571428571429L9.592857142857142,4.878571428571429L9.592857142857142,4.664285714285715L10.021428571428569,4.664285714285715L10.021428571428569,4.021428571428571L10.664285714285715,4.021428571428571L10.664285714285715,3.8071428571428574L13.021428571428569,3.8071428571428574L13.021428571428569,3.592857142857143L13.235714285714284,3.592857142857143L13.235714285714284,2.95L13.5,2.95L13.5,3.05L13.335714285714285,3.05L13.335714285714285,3.6928571428571426L13.12142857142857,3.6928571428571426L13.12142857142857,3.907142857142857L10.764285714285716,3.907142857142857L10.764285714285716,4.121428571428571L10.12142857142857,4.121428571428571L10.12142857142857,4.764285714285714L9.692857142857143,4.764285714285714L9.692857142857143,4.978571428571429L8.092857142857142,4.978571428571429L8.092857142857142,4.764285714285714L4.878571428571429,4.764285714285714L4.878571428571429,4.121428571428571L4.121428571428571,4.121428571428571L4.121428571428571,6.378571428571428L10.021428571428569,6.378571428571428L10.021428571428569,6.164285714285715L10.45,6.164285714285715L10.45,6L10.55,6L10.55,6.264285714285714L10.12142857142857,6.264285714285714L10.12142857142857,6.478571428571428L4.021428571428571,6.478571428571428L4.021428571428571,4.021428571428571L4.978571428571429,4.021428571428571L4.978571428571429,4.664285714285715z" stroke="none"/><path d="M24,8.95L24,9.05L22.5,9.05L22.5,8.95z" stroke="none"/><path d="M4.5,10.55L4.5,10.45L6,10.45L6,10.55z" stroke="none"/><path d="M15.05,10.5L14.95,10.5L14.95,10.021428571428569L15.592857142857142,10.021428571428569L15.592857142857142,9.807142857142857L15.807142857142857,9.807142857142857L15.807142857142857,9.592857142857142L16.02142857142857,9.592857142857142L16.02142857142857,9.378571428571426L16.45,9.378571428571426L16.45,9L16.55,9L16.55,9.478571428571428L16.12142857142857,9.478571428571428L16.12142857142857,9.692857142857143L15.907142857142858,9.692857142857143L15.907142857142858,9.907142857142858L15.692857142857143,9.907142857142858L15.692857142857143,10.12142857142857L15.05,10.12142857142857z" stroke="none"/><path d="M2.95,4.5L3.05,4.5L3.05,5.407142857142857L2.8357142857142854,5.407142857142857L2.8357142857142854,5.621428571428571L2.6214285714285714,5.621428571428571L2.6214285714285714,7.235714285714286L3.05,7.235714285714286L3.05,7.5L2.95,7.5L2.95,7.335714285714285L2.521428571428572,7.335714285714285L2.521428571428572,5.521428571428571L2.7357142857142858,5.521428571428571L2.7357142857142858,5.307142857142857L2.95,5.307142857142857z" stroke="none"/><path d="M26.95,9L27.05,9L27.05,9.907142857142858L26.835714285714285,9.907142857142858L26.835714285714285,10.12142857142857L26.62142857142857,10.12142857142857L26.62142857142857,11.307142857142857L26.835714285714285,11.307142857142857L26.835714285714285,11.521428571428569L27.05,11.521428571428569L27.05,12L26.95,12L26.95,11.62142857142857L26.735714285714284,11.62142857142857L26.735714285714284,11.407142857142858L26.52142857142857,11.407142857142858L26.52142857142857,10.021428571428569L26.735714285714284,10.021428571428569L26.735714285714284,9.807142857142857L26.95,9.807142857142857z" stroke="none"/><path d="M6,12.05L6,11.95L6.907142857142857,11.95L6.907142857142857,12.164285714285715L7.121428571428571,12.164285714285715L7.121428571428571,12.378571428571426L10.878571428571426,12.378571428571426L10.878571428571426,10.12142857142857L10.12142857142857,10.12142857142857L10.12142857142857,10.335714285714285L9.264285714285716,10.335714285714285L9.264285714285716,10.55L9,10.55L9,10.45L9.164285714285715,10.45L9.164285714285715,10.235714285714284L10.021428571428569,10.235714285714284L10.021428571428569,10.021428571428569L10.978571428571428,10.021428571428569L10.978571428571428,12.478571428571428L7.021428571428571,12.478571428571428L7.021428571428571,12.264285714285716L6.807142857142857,12.264285714285716L6.807142857142857,12.05z" stroke="none"/><path d="M27,4.45L27,4.55L26.735714285714284,4.55L26.735714285714284,4.335714285714285L26.09285714285714,4.335714285714285L26.09285714285714,4.121428571428571L24.807142857142857,4.121428571428571L24.807142857142857,3.6928571428571426L24.164285714285715,3.6928571428571426L24.164285714285715,3.05L24,3.05L24,2.95L24.264285714285716,2.95L24.264285714285716,3.592857142857143L24.90714285714286,3.592857142857143L24.90714285714286,4.021428571428571L26.192857142857143,4.021428571428571L26.192857142857143,4.235714285714286L26.835714285714285,4.235714285714286L26.835714285714285,4.45z" stroke="none"/><path d="M17.95,6L18.05,6L18.05,6.692857142857142L17.621428571428574,6.692857142857142L17.621428571428574,6.907142857142857L16.55,6.907142857142857L16.55,7.121428571428571L16.335714285714285,7.121428571428571L16.335714285714285,7.335714285714285L16.12142857142857,7.335714285714285L16.12142857142857,7.55L15.692857142857143,7.55L15.692857142857143,8.407142857142858L15.478571428571428,8.407142857142858L15.478571428571428,8.62142857142857L15.264285714285716,8.62142857142857L15.264285714285716,8.835714285714285L15.05,8.835714285714285L15.05,9L14.95,9L14.95,8.735714285714284L15.164285714285715,8.735714285714284L15.164285714285715,8.521428571428569L15.378571428571426,8.521428571428569L15.378571428571426,8.307142857142857L15.592857142857142,8.307142857142857L15.592857142857142,7.45L16.02142857142857,7.45L16.02142857142857,7.235714285714286L16.235714285714284,7.235714285714286L16.235714285714284,7.021428571428571L16.45,7.021428571428571L16.45,6.807142857142857L17.521428571428572,6.807142857142857L17.521428571428572,6.5928571428571425L17.95,6.5928571428571425z" stroke="none"/><path d="M27.05,10.5L26.95,10.5L26.95,10.021428571428569L27.164285714285715,10.021428571428569L27.164285714285715,9.592857142857142L27.378571428571426,9.592857142857142L27.378571428571426,8.62142857142857L25.664285714285715,8.62142857142857L25.664285714285715,8.407142857142858L25.235714285714284,8.407142857142858L25.235714285714284,8.192857142857143L25.02142857142857,8.192857142857143L25.02142857142857,7.55L24,7.55L24,7.45L25.12142857142857,7.45L25.12142857142857,8.092857142857142L25.335714285714285,8.092857142857142L25.335714285714285,8.307142857142857L25.764285714285716,8.307142857142857L25.764285714285716,8.521428571428569L27.478571428571428,8.521428571428569L27.478571428571428,9.692857142857143L27.264285714285716,9.692857142857143L27.264285714285716,10.12142857142857L27.05,10.12142857142857z" stroke="none"/><path d="M6,3.05L6,2.95L10.5,2.95L10.5,3.05z" stroke="none"/><path d="M7.5,11.95L7.5,12.05L7.021428571428571,12.05L7.021428571428571,11.835714285714285L6.378571428571428,11.835714285714285L6.378571428571428,11.62142857142857L5.621428571428571,11.62142857142857L5.621428571428571,12.378571428571426L6.907142857142857,12.378571428571426L6.907142857142857,12.592857142857142L11.092857142857142,12.592857142857142L11.092857142857142,12.378571428571426L11.735714285714284,12.378571428571426L11.735714285714284,11.95L12,11.95L12,12.05L11.835714285714285,12.05L11.835714285714285,12.478571428571428L11.192857142857143,12.478571428571428L11.192857142857143,12.692857142857143L6.807142857142857,12.692857142857143L6.807142857142857,12.478571428571428L5.521428571428571,12.478571428571428L5.521428571428571,11.521428571428569L6.478571428571428,11.521428571428569L6.478571428571428,11.735714285714284L7.121428571428571,11.735714285714284L7.121428571428571,11.95z" stroke="none"/><path d="M3.05,10.5L2.95,10.5L2.95,9.907142857142858L2.521428571428572,9.907142857142858L2.521428571428572,8.307142857142857L2.7357142857142858,8.307142857142857L2.7357142857142858,7.878571428571428L3.3785714285714286,7.878571428571428L3.3785714285714286,6.692857142857142L3.1642857142857146,6.692857142857142L3.1642857142857146,6.05L3,6.05L3,5.95L3.2642857142857142,5.95L3.2642857142857142,6.5928571428571425L3.478571428571428,6.5928571428571425L3.478571428571428,7.978571428571428L2.8357142857142854,7.978571428571428L2.8357142857142854,8.407142857142858L2.6214285714285714,8.407142857142858L2.6214285714285714,9.807142857142857L3.05,9.807142857142857z" stroke="none"/><path d="M16.5,11.95L16.5,12.05L15.05,12.05L15.05,12.264285714285716L13.978571428571428,12.264285714285716L13.978571428571428,12.478571428571428L13.021428571428569,12.478571428571428L13.021428571428569,10.021428571428569L13.45,10.021428571428569L13.45,9.807142857142857L14.307142857142857,9.807142857142857L14.307142857142857,9.592857142857142L14.521428571428569,9.592857142857142L14.521428571428569,9.378571428571426L15.378571428571426,9.378571428571426L15.378571428571426,8.735714285714284L16.02142857142857,8.735714285714284L16.02142857142857,8.307142857142857L16.45,8.307142857142857L16.45,8.092857142857142L17.09285714285714,8.092857142857142L17.09285714285714,7.664285714285715L17.521428571428572,7.664285714285715L17.521428571428572,7.45L18,7.45L18,7.55L17.621428571428574,7.55L17.621428571428574,7.764285714285714L17.192857142857143,7.764285714285714L17.192857142857143,8.192857142857143L16.55,8.192857142857143L16.55,8.407142857142858L16.12142857142857,8.407142857142858L16.12142857142857,8.835714285714285L15.478571428571428,8.835714285714285L15.478571428571428,9.478571428571428L14.62142857142857,9.478571428571428L14.62142857142857,9.692857142857143L14.407142857142858,9.692857142857143L14.407142857142858,9.907142857142858L13.55,9.907142857142858L13.55,10.12142857142857L13.12142857142857,10.12142857142857L13.12142857142857,12.378571428571426L13.878571428571426,12.378571428571426L13.878571428571426,12.164285714285715L14.95,12.164285714285715L14.95,11.95z" stroke="none"/><path d="M2.95,3L3.05,3L3.05,3.592857142857143L3.2642857142857142,3.592857142857143L3.2642857142857142,3.8071428571428574L3.478571428571428,3.8071428571428574L3.478571428571428,6.378571428571428L3.6928571428571426,6.378571428571428L3.6928571428571426,7.664285714285715L3.907142857142857,7.664285714285715L3.907142857142857,7.878571428571428L9.807142857142857,7.878571428571428L9.807142857142857,7.664285714285715L10.021428571428569,7.664285714285715L10.021428571428569,7.45L10.235714285714284,7.45L10.235714285714284,6.807142857142857L10.664285714285715,6.807142857142857L10.664285714285715,6.378571428571428L10.878571428571426,6.378571428571428L10.878571428571426,5.621428571428571L7.978571428571428,5.621428571428571L7.978571428571428,5.835714285714285L7.55,5.835714285714285L7.55,6L7.45,6L7.45,5.735714285714286L7.878571428571428,5.735714285714286L7.878571428571428,5.521428571428571L10.978571428571428,5.521428571428571L10.978571428571428,6.478571428571428L10.764285714285716,6.478571428571428L10.764285714285716,6.907142857142857L10.335714285714285,6.907142857142857L10.335714285714285,7.55L10.12142857142857,7.55L10.12142857142857,7.764285714285714L9.907142857142858,7.764285714285714L9.907142857142858,7.978571428571428L3.8071428571428574,7.978571428571428L3.8071428571428574,7.764285714285714L3.592857142857143,7.764285714285714L3.592857142857143,6.478571428571428L3.3785714285714286,6.478571428571428L3.3785714285714286,3.907142857142857L3.1642857142857146,3.907142857142857L3.1642857142857146,3.6928571428571426L2.95,3.6928571428571426z" stroke="none"/><path d="M15,3.05L15,2.95L21,2.95L21,3.05z" stroke="none"/><path d="M27,7.45L27,7.55L26.09285714285714,7.55L26.09285714285714,7.335714285714285L25.878571428571426,7.335714285714285L25.878571428571426,7.121428571428571L21.05,7.121428571428571L21.05,7.5L20.95,7.5L20.95,7.021428571428571L25.978571428571428,7.021428571428571L25.978571428571428,7.235714285714286L26.192857142857143,7.235714285714286L26.192857142857143,7.45z" stroke="none"/><path d="M19.5,6.05L19.5,5.95L21.90714285714286,5.95L21.90714285714286,6.164285714285715L22.121428571428574,6.164285714285715L22.121428571428574,6.378571428571428L22.878571428571426,6.378571428571428L22.878571428571426,5.621428571428571L22.664285714285715,5.621428571428571L22.664285714285715,5.192857142857142L22.45,5.192857142857142L22.45,4.55L22.235714285714284,4.55L22.235714285714284,4.335714285714285L21.807142857142857,4.335714285714285L21.807142857142857,4.121428571428571L13.335714285714285,4.121428571428571L13.335714285714285,4.335714285714285L13.12142857142857,4.335714285714285L13.12142857142857,4.55L12,4.55L12,4.45L13.021428571428569,4.45L13.021428571428569,4.235714285714286L13.235714285714284,4.235714285714286L13.235714285714284,4.021428571428571L21.90714285714286,4.021428571428571L21.90714285714286,4.235714285714286L22.335714285714285,4.235714285714286L22.335714285714285,4.45L22.55,4.45L22.55,5.0928571428571425L22.764285714285716,5.0928571428571425L22.764285714285716,5.521428571428571L22.978571428571428,5.521428571428571L22.978571428571428,6.478571428571428L22.021428571428572,6.478571428571428L22.021428571428572,6.264285714285714L21.807142857142857,6.264285714285714L21.807142857142857,6.05z" stroke="none"/><path d="M18.05,9L17.95,9L17.95,8.735714285714284L18.164285714285715,8.735714285714284L18.164285714285715,8.521428571428569L18.378571428571426,8.521428571428569L18.378571428571426,8.092857142857142L20.307142857142857,8.092857142857142L20.307142857142857,7.235714285714286L20.521428571428572,7.235714285714286L20.521428571428572,7.021428571428571L20.735714285714284,7.021428571428571L20.735714285714284,6.807142857142857L26.192857142857143,6.807142857142857L26.192857142857143,7.021428571428571L27.478571428571428,7.021428571428571L27.478571428571428,7.978571428571428L25.878571428571426,7.978571428571428L25.878571428571426,7.764285714285714L25.45,7.764285714285714L25.45,7.5L25.55,7.5L25.55,7.664285714285715L25.978571428571428,7.664285714285715L25.978571428571428,7.878571428571428L27.378571428571426,7.878571428571428L27.378571428571426,7.121428571428571L26.09285714285714,7.121428571428571L26.09285714285714,6.907142857142857L20.835714285714285,6.907142857142857L20.835714285714285,7.121428571428571L20.621428571428574,7.121428571428571L20.621428571428574,7.335714285714285L20.40714285714286,7.335714285714285L20.40714285714286,8.192857142857143L18.478571428571428,8.192857142857143L18.478571428571428,8.62142857142857L18.264285714285716,8.62142857142857L18.264285714285716,8.835714285714285L18.05,8.835714285714285z" stroke="none"/><path d="M22.45,3L22.55,3L22.55,4.021428571428571L22.764285714285716,4.021428571428571L22.764285714285716,4.664285714285715L22.978571428571428,4.664285714285715L22.978571428571428,4.878571428571429L23.192857142857143,4.878571428571429L23.192857142857143,6.692857142857142L18.59285714285714,6.692857142857142L18.59285714285714,5.835714285714285L18.378571428571426,5.835714285714285L18.378571428571426,5.621428571428571L17.621428571428574,5.621428571428571L17.621428571428574,6.05L17.40714285714286,6.05L17.40714285714286,6.264285714285714L17.192857142857143,6.264285714285714L17.192857142857143,6.478571428571428L13.878571428571426,6.478571428571428L13.878571428571426,6.05L13.5,6.05L13.5,5.95L13.978571428571428,5.95L13.978571428571428,6.378571428571428L17.09285714285714,6.378571428571428L17.09285714285714,6.164285714285715L17.307142857142857,6.164285714285715L17.307142857142857,5.95L17.521428571428572,5.95L17.521428571428572,5.521428571428571L18.478571428571428,5.521428571428571L18.478571428571428,5.735714285714286L18.692857142857143,5.735714285714286L18.692857142857143,6.5928571428571425L23.09285714285714,6.5928571428571425L23.09285714285714,4.978571428571429L22.878571428571426,4.978571428571429L22.878571428571426,4.764285714285714L22.664285714285715,4.764285714285714L22.664285714285715,4.121428571428571L22.45,4.121428571428571z" stroke="none"/><path d="M24,10.55L24,10.45L24.378571428571426,10.45L24.378571428571426,10.235714285714284L24.807142857142857,10.235714285714284L24.807142857142857,10.021428571428569L25.978571428571428,10.021428571428569L25.978571428571428,11.407142857142858L23.192857142857143,11.407142857142858L23.192857142857143,11.835714285714285L22.978571428571428,11.835714285714285L22.978571428571428,12.264285714285716L22.55,12.264285714285716L22.55,12.478571428571428L14.192857142857143,12.478571428571428L14.192857142857143,12.692857142857143L12.807142857142857,12.692857142857143L12.807142857142857,9.164285714285715L13.021428571428569,9.164285714285715L13.021428571428569,8.95L13.5,8.95L13.5,9.05L13.12142857142857,9.05L13.12142857142857,9.264285714285716L12.907142857142858,9.264285714285716L12.907142857142858,12.592857142857142L14.092857142857142,12.592857142857142L14.092857142857142,12.378571428571426L22.45,12.378571428571426L22.45,12.164285714285715L22.878571428571426,12.164285714285715L22.878571428571426,11.735714285714284L23.09285714285714,11.735714285714284L23.09285714285714,11.307142857142857L25.878571428571426,11.307142857142857L25.878571428571426,10.12142857142857L24.90714285714286,10.12142857142857L24.90714285714286,10.335714285714285L24.478571428571428,10.335714285714285L24.478571428571428,10.55z" stroke="none"/><path d="M13.5,10.55L13.5,10.45L13.978571428571428,10.45L13.978571428571428,10.664285714285715L14.62142857142857,10.664285714285715L14.62142857142857,10.878571428571426L22.45,10.878571428571426L22.45,10.664285714285715L22.664285714285715,10.664285714285715L22.664285714285715,10.235714285714284L23.307142857142857,10.235714285714284L23.307142857142857,10.021428571428569L24.164285714285715,10.021428571428569L24.164285714285715,9.807142857142857L26.192857142857143,9.807142857142857L26.192857142857143,11.62142857142857L25.978571428571428,11.62142857142857L25.978571428571428,11.835714285714285L25.764285714285716,11.835714285714285L25.764285714285716,12.05L25.5,12.05L25.5,11.95L25.664285714285715,11.95L25.664285714285715,11.735714285714284L25.878571428571426,11.735714285714284L25.878571428571426,11.521428571428569L26.09285714285714,11.521428571428569L26.09285714285714,9.907142857142858L24.264285714285716,9.907142857142858L24.264285714285716,10.12142857142857L23.40714285714286,10.12142857142857L23.40714285714286,10.335714285714285L22.764285714285716,10.335714285714285L22.764285714285716,10.764285714285716L22.55,10.764285714285716L22.55,10.978571428571428L14.521428571428569,10.978571428571428L14.521428571428569,10.764285714285716L13.878571428571426,10.764285714285716L13.878571428571426,10.55z" stroke="none"/><path d="M24.05,6L23.95,6L23.95,4.55L23.735714285714284,4.55L23.735714285714284,4.335714285714285L23.307142857142857,4.335714285714285L23.307142857142857,2.6214285714285714L13.12142857142857,2.6214285714285714L13.12142857142857,3.05L12,3.05L12,2.95L13.021428571428569,2.95L13.021428571428569,2.521428571428572L23.40714285714286,2.521428571428572L23.40714285714286,4.235714285714286L23.835714285714285,4.235714285714286L23.835714285714285,4.45L24.05,4.45z" stroke="none"/><path d="M25.45,4.5L25.55,4.5L25.55,4.878571428571429L25.978571428571428,4.878571428571429L25.978571428571428,5.521428571428571L26.192857142857143,5.521428571428571L26.192857142857143,5.735714285714286L26.62142857142857,5.735714285714286L26.62142857142857,5.95L27.264285714285716,5.95L27.264285714285716,6.807142857142857L27.692857142857143,6.807142857142857L27.692857142857143,12.264285714285716L27.478571428571428,12.264285714285716L27.478571428571428,12.478571428571428L22.764285714285716,12.478571428571428L22.764285714285716,12.692857142857143L14.62142857142857,12.692857142857143L14.62142857142857,12.907142857142858L12.592857142857142,12.907142857142858L12.592857142857142,8.735714285714284L13.021428571428569,8.735714285714284L13.021428571428569,8.307142857142857L13.235714285714284,8.307142857142857L13.235714285714284,7.664285714285715L13.45,7.664285714285715L13.45,7.5L13.55,7.5L13.55,7.764285714285714L13.335714285714285,7.764285714285714L13.335714285714285,8.407142857142858L13.12142857142857,8.407142857142858L13.12142857142857,8.835714285714285L12.692857142857143,8.835714285714285L12.692857142857143,12.807142857142857L14.521428571428569,12.807142857142857L14.521428571428569,12.592857142857142L22.664285714285715,12.592857142857142L22.664285714285715,12.378571428571426L27.378571428571426,12.378571428571426L27.378571428571426,12.164285714285715L27.59285714285714,12.164285714285715L27.59285714285714,6.907142857142857L27.164285714285715,6.907142857142857L27.164285714285715,6.05L26.52142857142857,6.05L26.52142857142857,5.835714285714285L26.09285714285714,5.835714285714285L26.09285714285714,5.621428571428571L25.878571428571426,5.621428571428571L25.878571428571426,4.978571428571429L25.45,4.978571428571429z" stroke="none"/><path d="M3,12.05L3,11.95L5.192857142857142,11.95L5.192857142857142,12.164285714285715L5.407142857142857,12.164285714285715L5.407142857142857,12.592857142857142L6.478571428571428,12.592857142857142L6.478571428571428,12.807142857142857L12.378571428571426,12.807142857142857L12.378571428571426,8.092857142857142L12.592857142857142,8.092857142857142L12.592857142857142,7.45L12.807142857142857,7.45L12.807142857142857,7.235714285714286L13.021428571428569,7.235714285714286L13.021428571428569,7.021428571428571L14.835714285714285,7.021428571428571L14.835714285714285,7.45L15,7.45L15,7.55L14.735714285714284,7.55L14.735714285714284,7.121428571428571L13.12142857142857,7.121428571428571L13.12142857142857,7.335714285714285L12.907142857142858,7.335714285714285L12.907142857142858,7.55L12.692857142857143,7.55L12.692857142857143,8.192857142857143L12.478571428571428,8.192857142857143L12.478571428571428,12.907142857142858L6.378571428571428,12.907142857142858L6.378571428571428,12.692857142857143L5.307142857142857,12.692857142857143L5.307142857142857,12.264285714285716L5.0928571428571425,12.264285714285716L5.0928571428571425,12.05z" stroke="none"/></svg>