<svg version="1.1" width="30" height="15" xmlns="http://www.w3.org/2000/svg"><path d="M5.307142857142857,10.45L5.307142857142857,9.164285714285715L5.521428571428571,9.164285714285715L5.521428571428571,8.95L6,8.95L6,9.05L5.621428571428571,9.05L5.621428571428571,9.264285714285716L5.407142857142857,9.264285714285716L5.407142857142857,10.664285714285715L5.621428571428571,10.664285714285715L5.621428571428571,10.878571428571426L7.121428571428571,10.878571428571426L7.121428571428571,11.307142857142857L7.335714285714285,11.307142857142857L7.335714285714285,11.95L7.5,11.95L7.5,12.05L7.235714285714286,12.05L7.235714285714286,11.407142857142858L7.021428571428571,11.407142857142858L7.021428571428571,10.978571428571428L5.521428571428571,10.978571428571428L5.521428571428571,10.764285714285716L5.307142857142857,10.764285714285716L5.307142857142857,10.55L3,10.55L3,10.45z" stroke="none"/><path d="M17.307142857142857,9.378571428571426L17.307142857142857,8.092857142857142L17.95,8.092857142857142L17.95,7.5L18.05,7.5L18.05,8.192857142857143L17.40714285714286,8.192857142857143L17.40714285714286,11.092857142857142L17.835714285714285,11.092857142857142L17.835714285714285,11.307142857142857L18.264285714285716,11.307142857142857L18.264285714285716,11.521428571428569L18.692857142857143,11.521428571428569L18.692857142857143,11.735714285714284L19.335714285714285,11.735714285714284L19.335714285714285,11.95L19.5,11.95L19.5,12.05L19.235714285714284,12.05L19.235714285714284,11.835714285714285L18.59285714285714,11.835714285714285L18.59285714285714,11.62142857142857L18.164285714285715,11.62142857142857L18.164285714285715,11.407142857142858L17.735714285714284,11.407142857142858L17.735714285714284,11.192857142857143L17.307142857142857,11.192857142857143L17.307142857142857,9.478571428571428L15.592857142857142,9.478571428571428L15.592857142857142,9.264285714285716L15.378571428571426,9.264285714285716L15.378571428571426,9.05L15,9.05L15,8.95L15.478571428571428,8.95L15.478571428571428,9.164285714285715L15.692857142857143,9.164285714285715L15.692857142857143,9.378571428571426z" stroke="none"/><path d="M6.5928571428571425,9.378571428571426L6.5928571428571425,8.092857142857142L7.021428571428571,8.092857142857142L7.021428571428571,7.878571428571428L7.45,7.878571428571428L7.45,7.5L7.55,7.5L7.55,7.978571428571428L7.121428571428571,7.978571428571428L7.121428571428571,8.192857142857143L6.692857142857142,8.192857142857143L6.692857142857142,9.378571428571426L8.307142857142857,9.378571428571426L8.307142857142857,9.164285714285715L8.521428571428569,9.164285714285715L8.521428571428569,8.95L9,8.95L9,9.05L8.62142857142857,9.05L8.62142857142857,9.264285714285716L8.407142857142858,9.264285714285716L8.407142857142858,9.478571428571428L6.378571428571428,9.478571428571428L6.378571428571428,8.62142857142857L2.8357142857142854,8.62142857142857L2.8357142857142854,9.692857142857143L2.6214285714285714,9.692857142857143L2.6214285714285714,11.307142857142857L2.8357142857142854,11.307142857142857L2.8357142857142854,11.521428571428569L3.05,11.521428571428569L3.05,12L2.95,12L2.95,11.62142857142857L2.7357142857142858,11.62142857142857L2.7357142857142858,11.407142857142858L2.521428571428572,11.407142857142858L2.521428571428572,9.592857142857142L2.7357142857142858,9.592857142857142L2.7357142857142858,8.521428571428569L6.478571428571428,8.521428571428569L6.478571428571428,9.378571428571426z" stroke="none"/><path d="M20.09285714285714,8.092857142857142L20.09285714285714,7.978571428571428L18.59285714285714,7.978571428571428L18.59285714285714,7.55L18.378571428571426,7.55L18.378571428571426,7.121428571428571L18.164285714285715,7.121428571428571L18.164285714285715,6.907142857142857L16.664285714285715,6.907142857142857L16.664285714285715,6.264285714285714L16.45,6.264285714285714L16.45,6L16.55,6L16.55,6.164285714285715L16.764285714285716,6.164285714285715L16.764285714285716,6.807142857142857L18.264285714285716,6.807142857142857L18.264285714285716,7.021428571428571L18.478571428571428,7.021428571428571L18.478571428571428,7.45L18.692857142857143,7.45L18.692857142857143,7.878571428571428L20.192857142857143,7.878571428571428L20.192857142857143,8.092857142857142L25.235714285714284,8.092857142857142L25.235714285714284,7.45L25.664285714285715,7.45L25.664285714285715,7.021428571428571L25.878571428571426,7.021428571428571L25.878571428571426,6.807142857142857L26.307142857142857,6.807142857142857L26.307142857142857,6.5928571428571425L26.52142857142857,6.5928571428571425L26.52142857142857,6.378571428571428L26.735714285714284,6.378571428571428L26.735714285714284,5.95L27,5.95L27,6.05L26.835714285714285,6.05L26.835714285714285,6.478571428571428L26.62142857142857,6.478571428571428L26.62142857142857,6.692857142857142L26.40714285714286,6.692857142857142L26.40714285714286,6.907142857142857L25.978571428571428,6.907142857142857L25.978571428571428,7.121428571428571L25.764285714285716,7.121428571428571L25.764285714285716,7.55L25.335714285714285,7.55L25.335714285714285,8.192857142857143L20.192857142857143,8.192857142857143L20.192857142857143,10.335714285714285L19.978571428571428,10.335714285714285L19.978571428571428,10.55L19.5,10.55L19.5,10.45L19.878571428571426,10.45L19.878571428571426,10.235714285714284L20.09285714285714,10.235714285714284L20.09285714285714,8.192857142857143L19.764285714285716,8.192857142857143L19.764285714285716,8.407142857142858L19.335714285714285,8.407142857142858L19.335714285714285,8.62142857142857L19.121428571428574,8.62142857142857L19.121428571428574,8.835714285714285L18.90714285714286,8.835714285714285L18.90714285714286,10.12142857142857L18.05,10.12142857142857L18.05,10.5L17.95,10.5L17.95,10.021428571428569L18.807142857142857,10.021428571428569L18.807142857142857,8.735714285714284L19.021428571428572,8.735714285714284L19.021428571428572,8.521428571428569L19.235714285714284,8.521428571428569L19.235714285714284,8.307142857142857L19.664285714285715,8.307142857142857L19.664285714285715,8.092857142857142z" stroke="none"/><path d="M8.521428571428569,5.307142857142857L8.521428571428569,5.192857142857142L7.021428571428571,5.192857142857142L7.021428571428571,4.978571428571429L6.807142857142857,4.978571428571429L6.807142857142857,4.335714285714285L5.621428571428571,4.335714285714285L5.621428571428571,4.764285714285714L5.192857142857142,4.764285714285714L5.192857142857142,4.978571428571429L3.907142857142857,4.978571428571429L3.907142857142857,5.407142857142857L3.6928571428571426,5.407142857142857L3.6928571428571426,6.05L3,6.05L3,5.95L3.592857142857143,5.95L3.592857142857143,5.307142857142857L3.8071428571428574,5.307142857142857L3.8071428571428574,4.878571428571429L5.0928571428571425,4.878571428571429L5.0928571428571425,4.664285714285715L5.521428571428571,4.664285714285715L5.521428571428571,4.235714285714286L6.907142857142857,4.235714285714286L6.907142857142857,4.878571428571429L7.121428571428571,4.878571428571429L7.121428571428571,5.0928571428571425L8.62142857142857,5.0928571428571425L8.62142857142857,5.307142857142857L11.95,5.307142857142857L11.95,4.5L12.05,4.5L12.05,5.407142857142857L8.62142857142857,5.407142857142857L8.62142857142857,6.5928571428571425L8.835714285714285,6.5928571428571425L8.835714285714285,6.807142857142857L9.05,6.807142857142857L9.05,7.021428571428571L9.264285714285716,7.021428571428571L9.264285714285716,7.235714285714286L9.907142857142858,7.235714285714286L9.907142857142858,7.664285714285715L10.12142857142857,7.664285714285715L10.12142857142857,7.878571428571428L13.45,7.878571428571428L13.45,7.5L13.55,7.5L13.55,7.978571428571428L10.021428571428569,7.978571428571428L10.021428571428569,7.764285714285714L9.807142857142857,7.764285714285714L9.807142857142857,7.335714285714285L9.164285714285715,7.335714285714285L9.164285714285715,7.121428571428571L8.95,7.121428571428571L8.95,6.907142857142857L8.735714285714284,6.907142857142857L8.735714285714284,6.692857142857142L8.521428571428569,6.692857142857142L8.521428571428569,5.407142857142857L6.807142857142857,5.407142857142857L6.807142857142857,5.192857142857142L6.164285714285715,5.192857142857142L6.164285714285715,4.55L6,4.55L6,4.45L6.264285714285714,4.45L6.264285714285714,5.0928571428571425L6.907142857142857,5.0928571428571425L6.907142857142857,5.307142857142857z" stroke="none"/><path d="M15.164285714285715,5.95L15.164285714285715,5.735714285714286L15.378571428571426,5.735714285714286L15.378571428571426,5.521428571428571L15.592857142857142,5.521428571428571L15.592857142857142,5.307142857142857L16.235714285714284,5.307142857142857L16.235714285714284,5.0928571428571425L17.521428571428572,5.0928571428571425L17.521428571428572,4.878571428571429L17.95,4.878571428571429L17.95,4.664285714285715L18.164285714285715,4.664285714285715L18.164285714285715,3.8071428571428574L18.378571428571426,3.8071428571428574L18.378571428571426,3.1642857142857146L19.021428571428572,3.1642857142857146L19.021428571428572,2.95L19.5,2.95L19.5,3.05L19.121428571428574,3.05L19.121428571428574,3.2642857142857142L18.478571428571428,3.2642857142857142L18.478571428571428,3.907142857142857L18.264285714285716,3.907142857142857L18.264285714285716,4.764285714285714L18.05,4.764285714285714L18.05,4.978571428571429L17.621428571428574,4.978571428571429L17.621428571428574,5.192857142857142L16.335714285714285,5.192857142857142L16.335714285714285,5.407142857142857L15.692857142857143,5.407142857142857L15.692857142857143,5.621428571428571L15.478571428571428,5.621428571428571L15.478571428571428,5.835714285714285L15.264285714285716,5.835714285714285L15.264285714285716,5.95L15.807142857142857,5.95L15.807142857142857,5.735714285714286L16.02142857142857,5.735714285714286L16.02142857142857,5.521428571428571L17.40714285714286,5.521428571428571L17.40714285714286,6.164285714285715L17.621428571428574,6.164285714285715L17.621428571428574,6.378571428571428L17.835714285714285,6.378571428571428L17.835714285714285,6.5928571428571425L18.478571428571428,6.5928571428571425L18.478571428571428,6.807142857142857L18.692857142857143,6.807142857142857L18.692857142857143,7.021428571428571L19.121428571428574,7.021428571428571L19.121428571428574,7.45L19.5,7.45L19.5,7.55L19.021428571428572,7.55L19.021428571428572,7.121428571428571L18.59285714285714,7.121428571428571L18.59285714285714,6.907142857142857L18.378571428571426,6.907142857142857L18.378571428571426,6.692857142857142L17.735714285714284,6.692857142857142L17.735714285714284,6.478571428571428L17.521428571428572,6.478571428571428L17.521428571428572,6.264285714285714L17.307142857142857,6.264285714285714L17.307142857142857,5.621428571428571L16.12142857142857,5.621428571428571L16.12142857142857,5.835714285714285L15.907142857142858,5.835714285714285L15.907142857142858,6.05L15.264285714285716,6.05L15.264285714285716,6.264285714285714L11.835714285714285,6.264285714285714L11.835714285714285,7.121428571428571L10.978571428571428,7.121428571428571L10.978571428571428,7.335714285714285L10.764285714285716,7.335714285714285L10.764285714285716,7.55L10.5,7.55L10.5,7.45L10.664285714285715,7.45L10.664285714285715,7.235714285714286L10.878571428571426,7.235714285714286L10.878571428571426,7.021428571428571L11.735714285714284,7.021428571428571L11.735714285714284,6.164285714285715L15.164285714285715,6.164285714285715L15.164285714285715,6.05L12,6.05L12,5.95z" stroke="none"/><path d="M6,2.95L6,3.05L4.5,3.05L4.5,2.95z" stroke="none"/><path d="M10.5,2.95L10.5,3.05L9,3.05L9,2.95z" stroke="none"/><path d="M4.45,6L4.55,6L4.55,6.692857142857142L4.121428571428571,6.692857142857142L4.121428571428571,6.907142857142857L3.2642857142857142,6.907142857142857L3.2642857142857142,7.55L3,7.55L3,7.45L3.1642857142857146,7.45L3.1642857142857146,6.807142857142857L4.021428571428571,6.807142857142857L4.021428571428571,6.5928571428571425L4.45,6.5928571428571425z" stroke="none"/><path d="M4.5,12.05L4.5,11.95L5.621428571428571,11.95L5.621428571428571,12.378571428571426L7.878571428571428,12.378571428571426L7.878571428571428,11.62142857142857L7.664285714285715,11.62142857142857L7.664285714285715,11.192857142857143L7.45,11.192857142857143L7.45,10.978571428571428L7.235714285714286,10.978571428571428L7.235714285714286,10.764285714285716L6.5928571428571425,10.764285714285716L6.5928571428571425,10.55L6,10.55L6,10.45L6.692857142857142,10.45L6.692857142857142,10.664285714285715L7.335714285714285,10.664285714285715L7.335714285714285,10.878571428571426L7.55,10.878571428571426L7.55,11.092857142857142L7.764285714285714,11.092857142857142L7.764285714285714,11.521428571428569L7.978571428571428,11.521428571428569L7.978571428571428,12.478571428571428L5.521428571428571,12.478571428571428L5.521428571428571,12.05z" stroke="none"/><path d="M19.55,4.5L19.45,4.5L19.45,3.8071428571428574L19.664285714285715,3.8071428571428574L19.664285714285715,3.592857142857143L20.09285714285714,3.592857142857143L20.09285714285714,3.3785714285714286L20.735714285714284,3.3785714285714286L20.735714285714284,3.1642857142857146L20.95,3.1642857142857146L20.95,3L21.05,3L21.05,3.2642857142857142L20.835714285714285,3.2642857142857142L20.835714285714285,3.478571428571428L20.192857142857143,3.478571428571428L20.192857142857143,3.6928571428571426L19.764285714285716,3.6928571428571426L19.764285714285716,3.907142857142857L19.55,3.907142857142857z" stroke="none"/><path d="M16.55,9L16.45,9L16.45,8.835714285714285L15.378571428571426,8.835714285714285L15.378571428571426,8.62142857142857L14.62142857142857,8.62142857142857L14.62142857142857,10.235714285714284L14.835714285714285,10.235714285714284L14.835714285714285,10.664285714285715L15.264285714285716,10.664285714285715L15.264285714285716,11.092857142857142L16.335714285714285,11.092857142857142L16.335714285714285,11.307142857142857L16.55,11.307142857142857L16.55,11.95L16.764285714285716,11.95L16.764285714285716,12.164285714285715L16.978571428571428,12.164285714285715L16.978571428571428,12.378571428571426L19.878571428571426,12.378571428571426L19.878571428571426,11.62142857142857L19.021428571428572,11.62142857142857L19.021428571428572,8.95L19.5,8.95L19.5,9.05L19.121428571428574,9.05L19.121428571428574,11.521428571428569L19.978571428571428,11.521428571428569L19.978571428571428,12.478571428571428L16.878571428571426,12.478571428571428L16.878571428571426,12.264285714285716L16.664285714285715,12.264285714285716L16.664285714285715,12.05L16.45,12.05L16.45,11.407142857142858L16.235714285714284,11.407142857142858L16.235714285714284,11.192857142857143L15.164285714285715,11.192857142857143L15.164285714285715,10.764285714285716L14.735714285714284,10.764285714285716L14.735714285714284,10.335714285714285L14.521428571428569,10.335714285714285L14.521428571428569,8.521428571428569L15.478571428571428,8.521428571428569L15.478571428571428,8.735714285714284L16.55,8.735714285714284z" stroke="none"/><path d="M24,10.45L24,10.55L23.09285714285714,10.55L23.09285714285714,10.335714285714285L22.878571428571426,10.335714285714285L22.878571428571426,10.12142857142857L22.121428571428574,10.12142857142857L22.121428571428574,10.335714285714285L21.90714285714286,10.335714285714285L21.90714285714286,10.55L21,10.55L21,10.45L21.807142857142857,10.45L21.807142857142857,10.235714285714284L22.021428571428572,10.235714285714284L22.021428571428572,10.021428571428569L22.978571428571428,10.021428571428569L22.978571428571428,10.235714285714284L23.192857142857143,10.235714285714284L23.192857142857143,10.45z" stroke="none"/><path d="M21,4.45L21,4.55L20.192857142857143,4.55L20.192857142857143,4.978571428571429L19.764285714285716,4.978571428571429L19.764285714285716,5.192857142857142L18.478571428571428,5.192857142857142L18.478571428571428,5.407142857142857L18.05,5.407142857142857L18.05,6L17.95,6L17.95,5.307142857142857L18.378571428571426,5.307142857142857L18.378571428571426,5.0928571428571425L19.664285714285715,5.0928571428571425L19.664285714285715,4.878571428571429L20.09285714285714,4.878571428571429L20.09285714285714,4.45z" stroke="none"/><path d="M10.5,4.45L10.5,4.55L10.235714285714284,4.55L10.235714285714284,4.335714285714285L9.378571428571426,4.335714285714285L9.378571428571426,4.121428571428571L8.307142857142857,4.121428571428571L8.307142857142857,3.907142857142857L7.664285714285715,3.907142857142857L7.664285714285715,3.2642857142857142L7.45,3.2642857142857142L7.45,3L7.55,3L7.55,3.1642857142857146L7.764285714285714,3.1642857142857146L7.764285714285714,3.8071428571428574L8.407142857142858,3.8071428571428574L8.407142857142858,4.021428571428571L9.478571428571428,4.021428571428571L9.478571428571428,4.235714285714286L10.335714285714285,4.235714285714286L10.335714285714285,4.45z" stroke="none"/><path d="M27,2.95L27,3.05L26.62142857142857,3.05L26.62142857142857,3.478571428571428L25.978571428571428,3.478571428571428L25.978571428571428,3.6928571428571426L25.12142857142857,3.6928571428571426L25.12142857142857,3.907142857142857L24.90714285714286,3.907142857142857L24.90714285714286,4.121428571428571L24.692857142857143,4.121428571428571L24.692857142857143,4.335714285714285L24.05,4.335714285714285L24.05,4.5L23.95,4.5L23.95,4.235714285714286L24.59285714285714,4.235714285714286L24.59285714285714,4.021428571428571L24.807142857142857,4.021428571428571L24.807142857142857,3.8071428571428574L25.02142857142857,3.8071428571428574L25.02142857142857,3.592857142857143L25.878571428571426,3.592857142857143L25.878571428571426,3.3785714285714286L26.52142857142857,3.3785714285714286L26.52142857142857,2.95z" stroke="none"/><path d="M22.5,11.95L22.5,12.05L21.59285714285714,12.05L21.59285714285714,11.835714285714285L21.378571428571426,11.835714285714285L21.378571428571426,11.62142857142857L20.95,11.62142857142857L20.95,11.407142857142858L20.521428571428572,11.407142857142858L20.521428571428572,9.807142857142857L20.735714285714284,9.807142857142857L20.735714285714284,8.95L21,8.95L21,9.05L20.835714285714285,9.05L20.835714285714285,9.907142857142858L20.621428571428574,9.907142857142858L20.621428571428574,11.307142857142857L21.05,11.307142857142857L21.05,11.521428571428569L21.478571428571428,11.521428571428569L21.478571428571428,11.735714285714284L21.692857142857143,11.735714285714284L21.692857142857143,11.95z" stroke="none"/><path d="M10.45,9L10.55,9L10.55,10.764285714285716L10.12142857142857,10.764285714285716L10.12142857142857,11.192857142857143L9.907142857142858,11.192857142857143L9.907142857142858,11.407142857142858L9.264285714285716,11.407142857142858L9.264285714285716,12.05L9,12.05L9,11.95L9.164285714285715,11.95L9.164285714285715,11.307142857142857L9.807142857142857,11.307142857142857L9.807142857142857,11.092857142857142L10.021428571428569,11.092857142857142L10.021428571428569,10.664285714285715L10.45,10.664285714285715z" stroke="none"/><path d="M22.5,6.05L22.5,5.95L26.307142857142857,5.95L26.307142857142857,5.735714285714286L26.52142857142857,5.735714285714286L26.52142857142857,5.521428571428571L27.478571428571428,5.521428571428571L27.478571428571428,8.192857142857143L27.264285714285716,8.192857142857143L27.264285714285716,8.62142857142857L26.62142857142857,8.62142857142857L26.62142857142857,9.264285714285716L26.40714285714286,9.264285714285716L26.40714285714286,9.478571428571428L25.335714285714285,9.478571428571428L25.335714285714285,9.692857142857143L24.90714285714286,9.692857142857143L24.90714285714286,10.55L24.692857142857143,10.55L24.692857142857143,10.764285714285716L24.478571428571428,10.764285714285716L24.478571428571428,10.978571428571428L22.45,10.978571428571428L22.45,10.5L22.55,10.5L22.55,10.878571428571426L24.378571428571426,10.878571428571426L24.378571428571426,10.664285714285715L24.59285714285714,10.664285714285715L24.59285714285714,10.45L24.807142857142857,10.45L24.807142857142857,9.592857142857142L25.235714285714284,9.592857142857142L25.235714285714284,9.378571428571426L26.307142857142857,9.378571428571426L26.307142857142857,9.164285714285715L26.52142857142857,9.164285714285715L26.52142857142857,8.521428571428569L27.164285714285715,8.521428571428569L27.164285714285715,8.092857142857142L27.378571428571426,8.092857142857142L27.378571428571426,5.621428571428571L26.62142857142857,5.621428571428571L26.62142857142857,5.835714285714285L26.40714285714286,5.835714285714285L26.40714285714286,6.05z" stroke="none"/><path d="M4.5,4.55L4.5,4.45L5.307142857142857,4.45L5.307142857142857,4.021428571428571L7.978571428571428,4.021428571428571L7.978571428571428,4.235714285714286L9.264285714285716,4.235714285714286L9.264285714285716,4.664285714285715L9.692857142857143,4.664285714285715L9.692857142857143,4.878571428571429L10.878571428571426,4.878571428571429L10.878571428571426,4.235714285714286L11.521428571428569,4.235714285714286L11.521428571428569,4.021428571428571L12.478571428571428,4.021428571428571L12.478571428571428,5.621428571428571L10.12142857142857,5.621428571428571L10.12142857142857,5.835714285714285L9.907142857142858,5.835714285714285L9.907142857142858,6.05L9,6.05L9,5.95L9.807142857142857,5.95L9.807142857142857,5.735714285714286L10.021428571428569,5.735714285714286L10.021428571428569,5.521428571428571L12.378571428571426,5.521428571428571L12.378571428571426,4.121428571428571L11.62142857142857,4.121428571428571L11.62142857142857,4.335714285714285L10.978571428571428,4.335714285714285L10.978571428571428,4.978571428571429L9.592857142857142,4.978571428571429L9.592857142857142,4.764285714285714L9.164285714285715,4.764285714285714L9.164285714285715,4.335714285714285L7.878571428571428,4.335714285714285L7.878571428571428,4.121428571428571L5.407142857142857,4.121428571428571L5.407142857142857,4.55z" stroke="none"/><path d="M25.55,10.5L25.45,10.5L25.45,10.235714285714284L26.09285714285714,10.235714285714284L26.09285714285714,10.021428571428569L26.307142857142857,10.021428571428569L26.307142857142857,9.807142857142857L26.52142857142857,9.807142857142857L26.52142857142857,9.378571428571426L26.735714285714284,9.378571428571426L26.735714285714284,8.95L27.164285714285715,8.95L27.164285714285715,8.735714285714284L27.378571428571426,8.735714285714284L27.378571428571426,8.307142857142857L27.59285714285714,8.307142857142857L27.59285714285714,5.407142857142857L22.55,5.407142857142857L22.55,5.621428571428571L22.121428571428574,5.621428571428571L22.121428571428574,7.335714285714285L21.692857142857143,7.335714285714285L21.692857142857143,7.55L21,7.55L21,7.45L21.59285714285714,7.45L21.59285714285714,7.235714285714286L22.021428571428572,7.235714285714286L22.021428571428572,5.521428571428571L22.45,5.521428571428571L22.45,5.307142857142857L27.692857142857143,5.307142857142857L27.692857142857143,8.407142857142858L27.478571428571428,8.407142857142858L27.478571428571428,8.835714285714285L27.264285714285716,8.835714285714285L27.264285714285716,9.05L26.835714285714285,9.05L26.835714285714285,9.478571428571428L26.62142857142857,9.478571428571428L26.62142857142857,9.907142857142858L26.40714285714286,9.907142857142858L26.40714285714286,10.12142857142857L26.192857142857143,10.12142857142857L26.192857142857143,10.335714285714285L25.55,10.335714285714285z" stroke="none"/><path d="M6,11.95L6,12.05L5.735714285714286,12.05L5.735714285714286,11.835714285714285L4.878571428571429,11.835714285714285L4.878571428571429,11.62142857142857L4.121428571428571,11.62142857142857L4.121428571428571,12.378571428571426L5.407142857142857,12.378571428571426L5.407142857142857,12.592857142857142L10.664285714285715,12.592857142857142L10.664285714285715,10.235714285714284L10.878571428571426,10.235714285714284L10.878571428571426,9.592857142857142L11.307142857142857,9.592857142857142L11.307142857142857,9.378571428571426L11.521428571428569,9.378571428571426L11.521428571428569,8.95L12,8.95L12,9.05L11.62142857142857,9.05L11.62142857142857,9.478571428571428L11.407142857142858,9.478571428571428L11.407142857142858,9.692857142857143L10.978571428571428,9.692857142857143L10.978571428571428,10.335714285714285L10.764285714285716,10.335714285714285L10.764285714285716,12.692857142857143L5.307142857142857,12.692857142857143L5.307142857142857,12.478571428571428L4.021428571428571,12.478571428571428L4.021428571428571,11.521428571428569L4.978571428571429,11.521428571428569L4.978571428571429,11.735714285714284L5.835714285714285,11.735714285714284L5.835714285714285,11.95z" stroke="none"/><path d="M7.5,9.05L7.5,8.95L8.307142857142857,8.95L8.307142857142857,8.521428571428569L12.478571428571428,8.521428571428569L12.478571428571428,11.735714285714284L13.335714285714285,11.735714285714284L13.335714285714285,11.95L13.5,11.95L13.5,12.05L13.235714285714284,12.05L13.235714285714284,11.835714285714285L12.378571428571426,11.835714285714285L12.378571428571426,8.62142857142857L8.407142857142858,8.62142857142857L8.407142857142858,9.05z" stroke="none"/><path d="M12,2.95L12,3.05L10.878571428571426,3.05L10.878571428571426,2.6214285714285714L7.121428571428571,2.6214285714285714L7.121428571428571,3.478571428571428L4.55,3.478571428571428L4.55,3.6928571428571426L4.335714285714285,3.6928571428571426L4.335714285714285,4.121428571428571L4.121428571428571,4.121428571428571L4.121428571428571,4.335714285714285L3.478571428571428,4.335714285714285L3.478571428571428,4.978571428571429L3.2642857142857142,4.978571428571429L3.2642857142857142,5.407142857142857L3.05,5.407142857142857L3.05,5.621428571428571L2.6214285714285714,5.621428571428571L2.6214285714285714,7.878571428571428L5.735714285714286,7.878571428571428L5.735714285714286,7.45L6,7.45L6,7.55L5.835714285714285,7.55L5.835714285714285,7.978571428571428L2.521428571428572,7.978571428571428L2.521428571428572,5.521428571428571L2.95,5.521428571428571L2.95,5.307142857142857L3.1642857142857146,5.307142857142857L3.1642857142857146,4.878571428571429L3.3785714285714286,4.878571428571429L3.3785714285714286,4.235714285714286L4.021428571428571,4.235714285714286L4.021428571428571,4.021428571428571L4.235714285714286,4.021428571428571L4.235714285714286,3.592857142857143L4.45,3.592857142857143L4.45,3.3785714285714286L7.021428571428571,3.3785714285714286L7.021428571428571,2.521428571428572L10.978571428571428,2.521428571428572L10.978571428571428,2.95z" stroke="none"/><path d="M24,2.95L24,3.05L23.735714285714284,3.05L23.735714285714284,2.8357142857142854L23.52142857142857,2.8357142857142854L23.52142857142857,2.6214285714285714L17.621428571428574,2.6214285714285714L17.621428571428574,4.121428571428571L16.978571428571428,4.121428571428571L16.978571428571428,4.335714285714285L16.764285714285716,4.335714285714285L16.764285714285716,4.55L16.5,4.55L16.5,4.45L16.664285714285715,4.45L16.664285714285715,4.235714285714286L16.878571428571426,4.235714285714286L16.878571428571426,4.021428571428571L17.521428571428572,4.021428571428571L17.521428571428572,2.521428571428572L23.62142857142857,2.521428571428572L23.62142857142857,2.7357142857142858L23.835714285714285,2.7357142857142858L23.835714285714285,2.95z" stroke="none"/><path d="M22.5,8.95L22.5,9.05L21.59285714285714,9.05L21.59285714285714,8.835714285714285L21.378571428571426,8.835714285714285L21.378571428571426,8.62142857142857L20.621428571428574,8.62142857142857L20.621428571428574,8.835714285714285L20.40714285714286,8.835714285714285L20.40714285714286,11.62142857142857L20.192857142857143,11.62142857142857L20.192857142857143,12.692857142857143L16.664285714285715,12.692857142857143L16.664285714285715,12.478571428571428L16.45,12.478571428571428L16.45,12.264285714285716L16.02142857142857,12.264285714285716L16.02142857142857,12.05L15.164285714285715,12.05L15.164285714285715,11.835714285714285L14.521428571428569,11.835714285714285L14.521428571428569,10.978571428571428L14.307142857142857,10.978571428571428L14.307142857142857,9.907142857142858L14.092857142857142,9.907142857142858L14.092857142857142,9.692857142857143L13.878571428571426,9.692857142857143L13.878571428571426,9.264285714285716L13.664285714285715,9.264285714285716L13.664285714285715,9.05L13.5,9.05L13.5,8.95L13.764285714285716,8.95L13.764285714285716,9.164285714285715L13.978571428571428,9.164285714285715L13.978571428571428,9.592857142857142L14.192857142857143,9.592857142857142L14.192857142857143,9.807142857142857L14.407142857142858,9.807142857142857L14.407142857142858,10.878571428571426L14.62142857142857,10.878571428571426L14.62142857142857,11.735714285714284L15.264285714285716,11.735714285714284L15.264285714285716,11.95L16.12142857142857,11.95L16.12142857142857,12.164285714285715L16.55,12.164285714285715L16.55,12.378571428571426L16.764285714285716,12.378571428571426L16.764285714285716,12.592857142857142L20.09285714285714,12.592857142857142L20.09285714285714,11.521428571428569L20.307142857142857,11.521428571428569L20.307142857142857,8.735714285714284L20.521428571428572,8.735714285714284L20.521428571428572,8.521428571428569L21.478571428571428,8.521428571428569L21.478571428571428,8.735714285714284L21.692857142857143,8.735714285714284L21.692857142857143,8.95z" stroke="none"/><path d="M25.5,4.45L25.5,4.55L25.12142857142857,4.55L25.12142857142857,4.764285714285714L24.692857142857143,4.764285714285714L24.692857142857143,4.978571428571429L23.52142857142857,4.978571428571429L23.52142857142857,4.021428571428571L24.378571428571426,4.021428571428571L24.378571428571426,2.6214285714285714L23.735714285714284,2.6214285714285714L23.735714285714284,2.407142857142857L17.192857142857143,2.407142857142857L17.192857142857143,2.6214285714285714L15.907142857142858,2.6214285714285714L15.907142857142858,2.8357142857142854L15.05,2.8357142857142854L15.05,3L14.95,3L14.95,2.7357142857142858L15.807142857142857,2.7357142857142858L15.807142857142857,2.521428571428572L17.09285714285714,2.521428571428572L17.09285714285714,2.3071428571428574L23.835714285714285,2.3071428571428574L23.835714285714285,2.521428571428572L24.478571428571428,2.521428571428572L24.478571428571428,4.121428571428571L23.62142857142857,4.121428571428571L23.62142857142857,4.878571428571429L24.59285714285714,4.878571428571429L24.59285714285714,4.664285714285715L25.02142857142857,4.664285714285715L25.02142857142857,4.45z" stroke="none"/><path d="M3,4.55L3,4.45L3.1642857142857146,4.45L3.1642857142857146,4.021428571428571L3.8071428571428574,4.021428571428571L3.8071428571428574,3.3785714285714286L4.021428571428571,3.3785714285714286L4.021428571428571,2.521428571428572L6.807142857142857,2.521428571428572L6.807142857142857,2.3071428571428574L12.907142857142858,2.3071428571428574L12.907142857142858,2.95L13.5,2.95L13.5,3.05L12.807142857142857,3.05L12.807142857142857,2.407142857142857L6.907142857142857,2.407142857142857L6.907142857142857,2.6214285714285714L4.121428571428571,2.6214285714285714L4.121428571428571,3.478571428571428L3.907142857142857,3.478571428571428L3.907142857142857,4.121428571428571L3.2642857142857142,4.121428571428571L3.2642857142857142,4.55z" stroke="none"/><path d="M17.95,3L18.05,3L18.05,4.121428571428571L17.835714285714285,4.121428571428571L17.835714285714285,4.335714285714285L17.621428571428574,4.335714285714285L17.621428571428574,4.55L17.192857142857143,4.55L17.192857142857143,4.764285714285714L16.978571428571428,4.764285714285714L16.978571428571428,4.978571428571429L16.02142857142857,4.978571428571429L16.02142857142857,3.907142857142857L15.807142857142857,3.907142857142857L15.807142857142857,3.6928571428571426L15.592857142857142,3.6928571428571426L15.592857142857142,3.478571428571428L14.521428571428569,3.478571428571428L14.521428571428569,2.1928571428571426L3.907142857142857,2.1928571428571426L3.907142857142857,3.05L3.6928571428571426,3.05L3.6928571428571426,3.6928571428571426L3.05,3.6928571428571426L3.05,4.121428571428571L2.6214285714285714,4.121428571428571L2.6214285714285714,5.407142857142857L2.407142857142857,5.407142857142857L2.407142857142857,8.092857142857142L5.95,8.092857142857142L5.95,7.878571428571428L6.5928571428571425,7.878571428571428L6.5928571428571425,7.45L6.807142857142857,7.45L6.807142857142857,7.235714285714286L7.021428571428571,7.235714285714286L7.021428571428571,5.95L7.5,5.95L7.5,6.05L7.121428571428571,6.05L7.121428571428571,7.335714285714285L6.907142857142857,7.335714285714285L6.907142857142857,7.55L6.692857142857142,7.55L6.692857142857142,7.978571428571428L6.05,7.978571428571428L6.05,8.192857142857143L2.3071428571428574,8.192857142857143L2.3071428571428574,5.307142857142857L2.521428571428572,5.307142857142857L2.521428571428572,4.021428571428571L2.95,4.021428571428571L2.95,3.592857142857143L3.592857142857143,3.592857142857143L3.592857142857143,2.95L3.8071428571428574,2.95L3.8071428571428574,2.092857142857143L14.62142857142857,2.092857142857143L14.62142857142857,3.3785714285714286L15.692857142857143,3.3785714285714286L15.692857142857143,3.592857142857143L15.907142857142858,3.592857142857143L15.907142857142858,3.8071428571428574L16.12142857142857,3.8071428571428574L16.12142857142857,4.878571428571429L16.878571428571426,4.878571428571429L16.878571428571426,4.664285714285715L17.09285714285714,4.664285714285715L17.09285714285714,4.45L17.521428571428572,4.45L17.521428571428572,4.235714285714286L17.735714285714284,4.235714285714286L17.735714285714284,4.021428571428571L17.95,4.021428571428571z" stroke="none"/><path d="M12,12.05L12,11.95L13.12142857142857,11.95L13.12142857142857,12.378571428571426L16.335714285714285,12.378571428571426L16.335714285714285,12.807142857142857L23.09285714285714,12.807142857142857L23.09285714285714,12.592857142857142L23.307142857142857,12.592857142857142L23.307142857142857,12.164285714285715L24.378571428571426,12.164285714285715L24.378571428571426,11.95L24.807142857142857,11.95L24.807142857142857,11.735714285714284L25.02142857142857,11.735714285714284L25.02142857142857,11.521428571428569L25.235714285714284,11.521428571428569L25.235714285714284,11.307142857142857L25.45,11.307142857142857L25.45,10.878571428571426L26.09285714285714,10.878571428571426L26.09285714285714,10.664285714285715L26.307142857142857,10.664285714285715L26.307142857142857,10.45L26.735714285714284,10.45L26.735714285714284,9.592857142857142L27.59285714285714,9.592857142857142L27.59285714285714,9.164285714285715L27.807142857142857,9.164285714285715L27.807142857142857,5.192857142857142L21.90714285714286,5.192857142857142L21.90714285714286,6.264285714285714L21.692857142857143,6.264285714285714L21.692857142857143,6.478571428571428L21.264285714285716,6.478571428571428L21.264285714285716,6.907142857142857L20.621428571428574,6.907142857142857L20.621428571428574,7.878571428571428L23.52142857142857,7.878571428571428L23.52142857142857,7.664285714285715L23.735714285714284,7.664285714285715L23.735714285714284,7.45L24,7.45L24,7.55L23.835714285714285,7.55L23.835714285714285,7.764285714285714L23.62142857142857,7.764285714285714L23.62142857142857,7.978571428571428L20.521428571428572,7.978571428571428L20.521428571428572,6.807142857142857L21.164285714285715,6.807142857142857L21.164285714285715,6.378571428571428L21.59285714285714,6.378571428571428L21.59285714285714,6.164285714285715L21.807142857142857,6.164285714285715L21.807142857142857,5.0928571428571425L27.90714285714286,5.0928571428571425L27.90714285714286,9.264285714285716L27.692857142857143,9.264285714285716L27.692857142857143,9.692857142857143L26.835714285714285,9.692857142857143L26.835714285714285,10.55L26.40714285714286,10.55L26.40714285714286,10.764285714285716L26.192857142857143,10.764285714285716L26.192857142857143,10.978571428571428L25.55,10.978571428571428L25.55,11.407142857142858L25.335714285714285,11.407142857142858L25.335714285714285,11.62142857142857L25.12142857142857,11.62142857142857L25.12142857142857,11.835714285714285L24.90714285714286,11.835714285714285L24.90714285714286,12.05L24.478571428571428,12.05L24.478571428571428,12.264285714285716L23.40714285714286,12.264285714285716L23.40714285714286,12.692857142857143L23.192857142857143,12.692857142857143L23.192857142857143,12.907142857142858L16.235714285714284,12.907142857142858L16.235714285714284,12.478571428571428L13.021428571428569,12.478571428571428L13.021428571428569,12.05z" stroke="none"/></svg>