<svg version="1.1" width="30" height="15" xmlns="http://www.w3.org/2000/svg"><path d="M5.521428571428571,5.95L5.521428571428571,5.735714285714286L5.735714285714286,5.735714285714286L5.735714285714286,5.0928571428571425L5.95,5.0928571428571425L5.95,4.5L6.05,4.5L6.05,5.192857142857142L5.835714285714285,5.192857142857142L5.835714285714285,5.835714285714285L5.621428571428571,5.835714285714285L5.621428571428571,6.05L5.192857142857142,6.05L5.192857142857142,6.264285714285714L4.335714285714285,6.264285714285714L4.335714285714285,6.478571428571428L3.907142857142857,6.478571428571428L3.907142857142857,6.692857142857142L3.2642857142857142,6.692857142857142L3.2642857142857142,7.335714285714285L3.05,7.335714285714285L3.05,7.5L2.95,7.5L2.95,7.235714285714286L3.1642857142857146,7.235714285714286L3.1642857142857146,6.5928571428571425L3.8071428571428574,6.5928571428571425L3.8071428571428574,6.378571428571428L4.235714285714286,6.378571428571428L4.235714285714286,6.164285714285715L5.0928571428571425,6.164285714285715L5.0928571428571425,6.05L4.5,6.05L4.5,5.95z" stroke="none"/><path d="M7.45,11.307142857142857L7.45,10.5L7.55,10.5L7.55,11.62142857142857L7.121428571428571,11.62142857142857L7.121428571428571,12.378571428571426L10.664285714285715,12.378571428571426L10.664285714285715,11.95L12,11.95L12,12.05L10.764285714285716,12.05L10.764285714285716,12.478571428571428L7.021428571428571,12.478571428571428L7.021428571428571,11.521428571428569L7.45,11.521428571428569L7.45,11.407142857142858L3.478571428571428,11.407142857142858L3.478571428571428,11.62142857142857L3.05,11.62142857142857L3.05,12L2.95,12L2.95,11.521428571428569L3.3785714285714286,11.521428571428569L3.3785714285714286,11.307142857142857z" stroke="none"/><path d="M7.45,9.807142857142857L7.45,9.592857142857142L10.235714285714284,9.592857142857142L10.235714285714284,9.164285714285715L10.45,9.164285714285715L10.45,9L10.55,9L10.55,9.264285714285716L10.335714285714285,9.264285714285716L10.335714285714285,9.692857142857143L7.55,9.692857142857143L7.55,9.807142857142857L7.978571428571428,9.807142857142857L7.978571428571428,11.407142857142858L7.764285714285714,11.407142857142858L7.764285714285714,12.05L7.5,12.05L7.5,11.95L7.664285714285715,11.95L7.664285714285715,11.307142857142857L7.878571428571428,11.307142857142857L7.878571428571428,9.907142857142858L4.45,9.907142857142858L4.45,9L4.55,9L4.55,9.807142857142857z" stroke="none"/><path d="M14.092857142857142,9.164285714285715L14.092857142857142,8.95L16.02142857142857,8.95L16.02142857142857,8.521428571428569L18.59285714285714,8.521428571428569L18.59285714285714,7.878571428571428L18.807142857142857,7.878571428571428L18.807142857142857,7.664285714285715L19.235714285714284,7.664285714285715L19.235714285714284,7.45L19.5,7.45L19.5,7.55L19.335714285714285,7.55L19.335714285714285,7.764285714285714L18.90714285714286,7.764285714285714L18.90714285714286,7.978571428571428L18.692857142857143,7.978571428571428L18.692857142857143,8.62142857142857L16.12142857142857,8.62142857142857L16.12142857142857,9.05L14.192857142857143,9.05L14.192857142857143,9.164285714285715L14.407142857142858,9.164285714285715L14.407142857142858,9.378571428571426L14.835714285714285,9.378571428571426L14.835714285714285,9.592857142857142L15.05,9.592857142857142L15.05,10.5L14.95,10.5L14.95,9.692857142857143L14.735714285714284,9.692857142857143L14.735714285714284,9.478571428571428L14.307142857142857,9.478571428571428L14.307142857142857,9.264285714285716L14.192857142857143,9.264285714285716L14.192857142857143,9.692857142857143L11.835714285714285,9.692857142857143L11.835714285714285,9.907142857142858L11.407142857142858,9.907142857142858L11.407142857142858,10.335714285714285L10.55,10.335714285714285L10.55,10.5L10.45,10.5L10.45,10.235714285714284L11.307142857142857,10.235714285714284L11.307142857142857,9.807142857142857L11.735714285714284,9.807142857142857L11.735714285714284,9.592857142857142L14.092857142857142,9.592857142857142L14.092857142857142,9.264285714285716L13.978571428571428,9.264285714285716L13.978571428571428,9.478571428571428L12.164285714285715,9.478571428571428L12.164285714285715,9.05L12,9.05L12,8.95L12.264285714285716,8.95L12.264285714285716,9.378571428571426L13.878571428571426,9.378571428571426L13.878571428571426,9.164285714285715z" stroke="none"/><path d="M17.95,6.5928571428571425L17.95,6.264285714285714L17.521428571428572,6.264285714285714L17.521428571428572,6.05L17.307142857142857,6.05L17.307142857142857,5.835714285714285L16.12142857142857,5.835714285714285L16.12142857142857,6.05L15.907142857142858,6.05L15.907142857142858,6.264285714285714L15.692857142857143,6.264285714285714L15.692857142857143,6.478571428571428L12.264285714285716,6.478571428571428L12.264285714285716,6.907142857142857L11.835714285714285,6.907142857142857L11.835714285714285,7.121428571428571L10.978571428571428,7.121428571428571L10.978571428571428,7.335714285714285L10.764285714285716,7.335714285714285L10.764285714285716,7.55L10.5,7.55L10.5,7.45L10.664285714285715,7.45L10.664285714285715,7.235714285714286L10.878571428571426,7.235714285714286L10.878571428571426,7.021428571428571L11.735714285714284,7.021428571428571L11.735714285714284,6.807142857142857L12.164285714285715,6.807142857142857L12.164285714285715,6.378571428571428L15.592857142857142,6.378571428571428L15.592857142857142,6.164285714285715L15.807142857142857,6.164285714285715L15.807142857142857,5.95L16.02142857142857,5.95L16.02142857142857,5.735714285714286L17.40714285714286,5.735714285714286L17.40714285714286,5.95L17.621428571428574,5.95L17.621428571428574,6.164285714285715L18.05,6.164285714285715L18.05,6.5928571428571425L20.307142857142857,6.5928571428571425L20.307142857142857,6.378571428571428L21.807142857142857,6.378571428571428L21.807142857142857,5.95L22.021428571428572,5.95L22.021428571428572,5.735714285714286L22.235714285714284,5.735714285714286L22.235714285714284,5.307142857142857L22.45,5.307142857142857L22.45,4.5L22.55,4.5L22.55,5.407142857142857L22.335714285714285,5.407142857142857L22.335714285714285,5.835714285714285L22.121428571428574,5.835714285714285L22.121428571428574,6.05L21.90714285714286,6.05L21.90714285714286,6.478571428571428L20.40714285714286,6.478571428571428L20.40714285714286,6.692857142857142L18.05,6.692857142857142L18.05,6.807142857142857L21.05,6.807142857142857L21.05,7.021428571428571L21.478571428571428,7.021428571428571L21.478571428571428,7.45L21.90714285714286,7.45L21.90714285714286,7.664285714285715L22.121428571428574,7.664285714285715L22.121428571428574,8.735714285714284L22.335714285714285,8.735714285714284L22.335714285714285,8.95L22.5,8.95L22.5,9.05L22.235714285714284,9.05L22.235714285714284,8.835714285714285L22.021428571428572,8.835714285714285L22.021428571428572,7.764285714285714L21.807142857142857,7.764285714285714L21.807142857142857,7.55L21.378571428571426,7.55L21.378571428571426,7.121428571428571L20.95,7.121428571428571L20.95,6.907142857142857L17.95,6.907142857142857L17.95,6.692857142857142L17.735714285714284,6.692857142857142L17.735714285714284,6.478571428571428L17.307142857142857,6.478571428571428L17.307142857142857,6.264285714285714L17.09285714285714,6.264285714285714L17.09285714285714,6.05L16.5,6.05L16.5,5.95L17.192857142857143,5.95L17.192857142857143,6.164285714285715L17.40714285714286,6.164285714285715L17.40714285714286,6.378571428571428L17.835714285714285,6.378571428571428L17.835714285714285,6.5928571428571425z" stroke="none"/><path d="M21.807142857142857,8.95L21.807142857142857,8.62142857142857L21.59285714285714,8.62142857142857L21.59285714285714,8.407142857142858L20.735714285714284,8.407142857142858L20.735714285714284,8.192857142857143L20.521428571428572,8.192857142857143L20.521428571428572,7.978571428571428L20.307142857142857,7.978571428571428L20.307142857142857,7.55L20.09285714285714,7.55L20.09285714285714,7.335714285714285L19.878571428571426,7.335714285714285L19.878571428571426,7.121428571428571L15.907142857142858,7.121428571428571L15.907142857142858,7.335714285714285L15.478571428571428,7.335714285714285L15.478571428571428,7.55L15,7.55L15,7.45L15.378571428571426,7.45L15.378571428571426,7.235714285714286L15.807142857142857,7.235714285714286L15.807142857142857,7.021428571428571L19.978571428571428,7.021428571428571L19.978571428571428,7.235714285714286L20.192857142857143,7.235714285714286L20.192857142857143,7.45L20.40714285714286,7.45L20.40714285714286,7.878571428571428L20.621428571428574,7.878571428571428L20.621428571428574,8.092857142857142L20.835714285714285,8.092857142857142L20.835714285714285,8.307142857142857L21.692857142857143,8.307142857142857L21.692857142857143,8.521428571428569L21.90714285714286,8.521428571428569L21.90714285714286,8.95L22.121428571428574,8.95L22.121428571428574,9.378571428571426L24.90714285714286,9.378571428571426L24.90714285714286,9.592857142857142L25.335714285714285,9.592857142857142L25.335714285714285,10.235714285714284L25.55,10.235714285714284L25.55,10.5L25.45,10.5L25.45,10.335714285714285L25.235714285714284,10.335714285714285L25.235714285714284,9.692857142857143L24.807142857142857,9.692857142857143L24.807142857142857,9.478571428571428L22.021428571428572,9.478571428571428L22.021428571428572,9.05L21.90714285714286,9.05L21.90714285714286,9.692857142857143L21.692857142857143,9.692857142857143L21.692857142857143,10.12142857142857L21.05,10.12142857142857L21.05,10.5L20.95,10.5L20.95,10.021428571428569L21.59285714285714,10.021428571428569L21.59285714285714,9.592857142857142L21.807142857142857,9.592857142857142L21.807142857142857,9.05L21.05,9.05L21.05,9.907142857142858L20.835714285714285,9.907142857142858L20.835714285714285,10.664285714285715L25.664285714285715,10.664285714285715L25.664285714285715,9.592857142857142L25.878571428571426,9.592857142857142L25.878571428571426,7.878571428571428L26.52142857142857,7.878571428571428L26.52142857142857,7.664285714285715L26.735714285714284,7.664285714285715L26.735714285714284,7.45L27,7.45L27,7.55L26.835714285714285,7.55L26.835714285714285,7.764285714285714L26.62142857142857,7.764285714285714L26.62142857142857,7.978571428571428L25.978571428571428,7.978571428571428L25.978571428571428,9.692857142857143L25.764285714285716,9.692857142857143L25.764285714285716,10.764285714285716L20.735714285714284,10.764285714285716L20.735714285714284,9.807142857142857L20.95,9.807142857142857L20.95,8.95z" stroke="none"/><path d="M10.55,6L10.45,6L10.45,4.5L10.55,4.5z" stroke="none"/><path d="M11.95,4.5L12.05,4.5L12.05,6L11.95,6z" stroke="none"/><path d="M24,6.05L24,5.95L25.5,5.95L25.5,6.05z" stroke="none"/><path d="M9,7.45L9,7.55L7.5,7.55L7.5,7.45z" stroke="none"/><path d="M6,7.45L6,7.55L4.5,7.55L4.5,7.45z" stroke="none"/><path d="M6,9.05L6,8.95L7.5,8.95L7.5,9.05z" stroke="none"/><path d="M13.45,7.5L13.55,7.5L13.55,9L13.45,9z" stroke="none"/><path d="M16.5,12.05L16.5,11.95L17.307142857142857,11.95L17.307142857142857,11.735714285714284L17.521428571428572,11.735714285714284L17.521428571428572,11.307142857142857L17.95,11.307142857142857L17.95,10.5L18.05,10.5L18.05,11.407142857142858L17.621428571428574,11.407142857142858L17.621428571428574,11.835714285714285L17.40714285714286,11.835714285714285L17.40714285714286,12.05z" stroke="none"/><path d="M9,8.95L9,9.05L7.878571428571428,9.05L7.878571428571428,8.62142857142857L4.121428571428571,8.62142857142857L4.121428571428571,9.807142857142857L4.335714285714285,9.807142857142857L4.335714285714285,10.021428571428569L5.407142857142857,10.021428571428569L5.407142857142857,10.235714285714284L5.621428571428571,10.235714285714284L5.621428571428571,10.45L6,10.45L6,10.55L5.521428571428571,10.55L5.521428571428571,10.335714285714285L5.307142857142857,10.335714285714285L5.307142857142857,10.12142857142857L4.235714285714286,10.12142857142857L4.235714285714286,9.907142857142858L4.021428571428571,9.907142857142858L4.021428571428571,8.521428571428569L7.978571428571428,8.521428571428569L7.978571428571428,8.95z" stroke="none"/><path d="M25.55,12L25.45,12L25.45,11.521428571428569L25.664285714285715,11.521428571428569L25.664285714285715,11.092857142857142L25.878571428571426,11.092857142857142L25.878571428571426,10.664285714285715L26.09285714285714,10.664285714285715L26.09285714285714,9.807142857142857L26.52142857142857,9.807142857142857L26.52142857142857,9.378571428571426L26.95,9.378571428571426L26.95,9L27.05,9L27.05,9.478571428571428L26.62142857142857,9.478571428571428L26.62142857142857,9.907142857142858L26.192857142857143,9.907142857142858L26.192857142857143,10.764285714285716L25.978571428571428,10.764285714285716L25.978571428571428,11.192857142857143L25.764285714285716,11.192857142857143L25.764285714285716,11.62142857142857L25.55,11.62142857142857z" stroke="none"/><path d="M3.05,6L2.95,6L2.95,5.521428571428571L4.235714285714286,5.521428571428571L4.235714285714286,5.307142857142857L4.664285714285715,5.307142857142857L4.664285714285715,4.664285714285715L5.307142857142857,4.664285714285715L5.307142857142857,4.021428571428571L5.521428571428571,4.021428571428571L5.521428571428571,3.592857142857143L5.95,3.592857142857143L5.95,3L6.05,3L6.05,3.6928571428571426L5.621428571428571,3.6928571428571426L5.621428571428571,4.121428571428571L5.407142857142857,4.121428571428571L5.407142857142857,4.764285714285714L4.764285714285714,4.764285714285714L4.764285714285714,5.407142857142857L4.335714285714285,5.407142857142857L4.335714285714285,5.621428571428571L3.05,5.621428571428571z" stroke="none"/><path d="M16.45,9L16.55,9L16.55,10.12142857142857L16.335714285714285,10.12142857142857L16.335714285714285,10.55L16.12142857142857,10.55L16.12142857142857,10.764285714285716L15.907142857142858,10.764285714285716L15.907142857142858,10.978571428571428L12.378571428571426,10.978571428571428L12.378571428571426,10.764285714285716L11.95,10.764285714285716L11.95,10.5L12.05,10.5L12.05,10.664285714285715L12.478571428571428,10.664285714285715L12.478571428571428,10.878571428571426L15.807142857142857,10.878571428571426L15.807142857142857,10.664285714285715L16.02142857142857,10.664285714285715L16.02142857142857,10.45L16.235714285714284,10.45L16.235714285714284,10.021428571428569L16.45,10.021428571428569z" stroke="none"/><path d="M22.5,3.05L22.5,2.95L25.335714285714285,2.95L25.335714285714285,3.1642857142857146L25.55,3.1642857142857146L25.55,3.592857142857143L26.192857142857143,3.592857142857143L26.192857142857143,4.021428571428571L27.05,4.021428571428571L27.05,4.5L26.95,4.5L26.95,4.121428571428571L26.09285714285714,4.121428571428571L26.09285714285714,3.6928571428571426L25.45,3.6928571428571426L25.45,3.2642857142857142L25.235714285714284,3.2642857142857142L25.235714285714284,3.05z" stroke="none"/><path d="M15,11.95L15,12.05L14.092857142857142,12.05L14.092857142857142,11.835714285714285L13.878571428571426,11.835714285714285L13.878571428571426,11.62142857142857L10.878571428571426,11.62142857142857L10.878571428571426,11.192857142857143L10.45,11.192857142857143L10.45,10.978571428571428L10.021428571428569,10.978571428571428L10.021428571428569,10.021428571428569L10.664285714285715,10.021428571428569L10.664285714285715,9.592857142857142L10.878571428571426,9.592857142857142L10.878571428571426,9.164285714285715L11.307142857142857,9.164285714285715L11.307142857142857,8.735714285714284L11.521428571428569,8.735714285714284L11.521428571428569,8.521428571428569L11.735714285714284,8.521428571428569L11.735714285714284,8.307142857142857L11.95,8.307142857142857L11.95,8.092857142857142L12.164285714285715,8.092857142857142L12.164285714285715,7.664285714285715L12.378571428571426,7.664285714285715L12.378571428571426,7.235714285714286L13.021428571428569,7.235714285714286L13.021428571428569,7.021428571428571L13.978571428571428,7.021428571428571L13.978571428571428,7.878571428571428L16.235714285714284,7.878571428571428L16.235714285714284,7.664285714285715L16.45,7.664285714285715L16.45,7.5L16.55,7.5L16.55,7.764285714285714L16.335714285714285,7.764285714285714L16.335714285714285,7.978571428571428L13.878571428571426,7.978571428571428L13.878571428571426,7.121428571428571L13.12142857142857,7.121428571428571L13.12142857142857,7.335714285714285L12.478571428571428,7.335714285714285L12.478571428571428,7.764285714285714L12.264285714285716,7.764285714285714L12.264285714285716,8.192857142857143L12.05,8.192857142857143L12.05,8.407142857142858L11.835714285714285,8.407142857142858L11.835714285714285,8.62142857142857L11.62142857142857,8.62142857142857L11.62142857142857,8.835714285714285L11.407142857142858,8.835714285714285L11.407142857142858,9.264285714285716L10.978571428571428,9.264285714285716L10.978571428571428,9.692857142857143L10.764285714285716,9.692857142857143L10.764285714285716,10.12142857142857L10.12142857142857,10.12142857142857L10.12142857142857,10.878571428571426L10.55,10.878571428571426L10.55,11.092857142857142L10.978571428571428,11.092857142857142L10.978571428571428,11.521428571428569L13.978571428571428,11.521428571428569L13.978571428571428,11.735714285714284L14.192857142857143,11.735714285714284L14.192857142857143,11.95z" stroke="none"/><path d="M25.5,7.55L25.5,7.45L26.307142857142857,7.45L26.307142857142857,7.235714285714286L26.52142857142857,7.235714285714286L26.52142857142857,7.021428571428571L27.478571428571428,7.021428571428571L27.478571428571428,10.12142857142857L27.264285714285716,10.12142857142857L27.264285714285716,10.55L27.05,10.55L27.05,10.764285714285716L26.62142857142857,10.764285714285716L26.62142857142857,11.192857142857143L26.40714285714286,11.192857142857143L26.40714285714286,11.407142857142858L26.192857142857143,11.407142857142858L26.192857142857143,11.62142857142857L25.978571428571428,11.62142857142857L25.978571428571428,12.478571428571428L23.52142857142857,12.478571428571428L23.52142857142857,12.264285714285716L22.45,12.264285714285716L22.45,12L22.55,12L22.55,12.164285714285715L23.62142857142857,12.164285714285715L23.62142857142857,12.378571428571426L25.878571428571426,12.378571428571426L25.878571428571426,11.521428571428569L26.09285714285714,11.521428571428569L26.09285714285714,11.307142857142857L26.307142857142857,11.307142857142857L26.307142857142857,11.092857142857142L26.52142857142857,11.092857142857142L26.52142857142857,10.664285714285715L26.95,10.664285714285715L26.95,10.45L27.164285714285715,10.45L27.164285714285715,10.021428571428569L27.378571428571426,10.021428571428569L27.378571428571426,7.121428571428571L26.62142857142857,7.121428571428571L26.62142857142857,7.335714285714285L26.40714285714286,7.335714285714285L26.40714285714286,7.55z" stroke="none"/><path d="M7.5,3.05L7.5,2.95L8.62142857142857,2.95L8.62142857142857,3.1642857142857146L9.907142857142858,3.1642857142857146L9.907142857142858,3.3785714285714286L12.692857142857143,3.3785714285714286L12.692857142857143,3.592857142857143L12.907142857142858,3.592857142857143L12.907142857142858,3.8071428571428574L13.12142857142857,3.8071428571428574L13.12142857142857,4.45L13.5,4.45L13.5,4.55L13.021428571428569,4.55L13.021428571428569,3.907142857142857L12.807142857142857,3.907142857142857L12.807142857142857,3.6928571428571426L12.592857142857142,3.6928571428571426L12.592857142857142,3.478571428571428L9.807142857142857,3.478571428571428L9.807142857142857,3.2642857142857142L8.521428571428569,3.2642857142857142L8.521428571428569,3.05z" stroke="none"/><path d="M19.5,12.05L19.5,11.95L21.05,11.95L21.05,12.164285714285715L22.121428571428574,12.164285714285715L22.121428571428574,12.378571428571426L23.40714285714286,12.378571428571426L23.40714285714286,12.592857142857142L26.09285714285714,12.592857142857142L26.09285714285714,11.95L26.307142857142857,11.95L26.307142857142857,11.521428571428569L27.164285714285715,11.521428571428569L27.164285714285715,10.664285714285715L27.378571428571426,10.664285714285715L27.378571428571426,10.235714285714284L27.59285714285714,10.235714285714284L27.59285714285714,6.907142857142857L25.12142857142857,6.907142857142857L25.12142857142857,8.307142857142857L25.335714285714285,8.307142857142857L25.335714285714285,8.95L25.5,8.95L25.5,9.05L25.235714285714284,9.05L25.235714285714284,8.407142857142858L25.02142857142857,8.407142857142858L25.02142857142857,6.807142857142857L27.692857142857143,6.807142857142857L27.692857142857143,10.335714285714285L27.478571428571428,10.335714285714285L27.478571428571428,10.764285714285716L27.264285714285716,10.764285714285716L27.264285714285716,11.62142857142857L26.40714285714286,11.62142857142857L26.40714285714286,12.05L26.192857142857143,12.05L26.192857142857143,12.692857142857143L23.307142857142857,12.692857142857143L23.307142857142857,12.478571428571428L22.021428571428572,12.478571428571428L22.021428571428572,12.264285714285716L20.95,12.264285714285716L20.95,12.05z" stroke="none"/><path d="M4.45,10.5L4.55,10.5L4.55,10.764285714285716L4.335714285714285,10.764285714285716L4.335714285714285,10.978571428571428L3.05,10.978571428571428L3.05,11.407142857142858L2.6214285714285714,11.407142857142858L2.6214285714285714,12.378571428571426L6.907142857142857,12.378571428571426L6.907142857142857,12.592857142857142L12.807142857142857,12.592857142857142L12.807142857142857,12.378571428571426L13.021428571428569,12.378571428571426L13.021428571428569,12.164285714285715L13.45,12.164285714285715L13.45,12L13.55,12L13.55,12.264285714285716L13.12142857142857,12.264285714285716L13.12142857142857,12.478571428571428L12.907142857142858,12.478571428571428L12.907142857142858,12.692857142857143L6.807142857142857,12.692857142857143L6.807142857142857,12.478571428571428L2.521428571428572,12.478571428571428L2.521428571428572,11.307142857142857L2.95,11.307142857142857L2.95,10.878571428571426L4.235714285714286,10.878571428571426L4.235714285714286,10.664285714285715L4.45,10.664285714285715z" stroke="none"/><path d="M24.05,9L23.95,9L23.95,7.121428571428571L23.735714285714284,7.121428571428571L23.735714285714284,6.478571428571428L23.52142857142857,6.478571428571428L23.52142857142857,4.335714285714285L22.878571428571426,4.335714285714285L22.878571428571426,4.121428571428571L18.692857142857143,4.121428571428571L18.692857142857143,4.335714285714285L16.12142857142857,4.335714285714285L16.12142857142857,4.55L15,4.55L15,4.45L16.02142857142857,4.45L16.02142857142857,4.235714285714286L18.59285714285714,4.235714285714286L18.59285714285714,4.021428571428571L22.978571428571428,4.021428571428571L22.978571428571428,4.235714285714286L23.62142857142857,4.235714285714286L23.62142857142857,6.378571428571428L23.835714285714285,6.378571428571428L23.835714285714285,7.021428571428571L24.05,7.021428571428571z" stroke="none"/><path d="M21,4.45L21,4.55L16.335714285714285,4.55L16.335714285714285,4.764285714285714L15.478571428571428,4.764285714285714L15.478571428571428,4.978571428571429L14.521428571428569,4.978571428571429L14.521428571428569,3.907142857142857L13.235714285714284,3.907142857142857L13.235714285714284,3.478571428571428L12.807142857142857,3.478571428571428L12.807142857142857,3.2642857142857142L10.45,3.2642857142857142L10.45,3L10.55,3L10.55,3.1642857142857146L12.907142857142858,3.1642857142857146L12.907142857142858,3.3785714285714286L13.335714285714285,3.3785714285714286L13.335714285714285,3.8071428571428574L14.62142857142857,3.8071428571428574L14.62142857142857,4.878571428571429L15.378571428571426,4.878571428571429L15.378571428571426,4.664285714285715L16.235714285714284,4.664285714285715L16.235714285714284,4.45z" stroke="none"/><path d="M13.55,6L13.45,6L13.45,5.835714285714285L13.021428571428569,5.835714285714285L13.021428571428569,4.764285714285714L12.807142857142857,4.764285714285714L12.807142857142857,4.55L12.378571428571426,4.55L12.378571428571426,4.121428571428571L11.62142857142857,4.121428571428571L11.62142857142857,6.692857142857142L10.55,6.692857142857142L10.55,6.907142857142857L10.335714285714285,6.907142857142857L10.335714285714285,7.121428571428571L10.12142857142857,7.121428571428571L10.12142857142857,7.978571428571428L5.407142857142857,7.978571428571428L5.407142857142857,8.192857142857143L4.121428571428571,8.192857142857143L4.121428571428571,8.407142857142858L3.907142857142857,8.407142857142858L3.907142857142857,10.12142857142857L3.05,10.12142857142857L3.05,10.5L2.95,10.5L2.95,10.021428571428569L3.8071428571428574,10.021428571428569L3.8071428571428574,8.307142857142857L4.021428571428571,8.307142857142857L4.021428571428571,8.092857142857142L5.307142857142857,8.092857142857142L5.307142857142857,7.878571428571428L10.021428571428569,7.878571428571428L10.021428571428569,7.021428571428571L10.235714285714284,7.021428571428571L10.235714285714284,6.807142857142857L10.45,6.807142857142857L10.45,6.5928571428571425L11.521428571428569,6.5928571428571425L11.521428571428569,4.021428571428571L12.478571428571428,4.021428571428571L12.478571428571428,4.45L12.907142857142858,4.45L12.907142857142858,4.664285714285715L13.12142857142857,4.664285714285715L13.12142857142857,5.735714285714286L13.55,5.735714285714286z" stroke="none"/><path d="M9,4.45L9,4.55L7.878571428571428,4.55L7.878571428571428,4.121428571428571L7.45,4.121428571428571L7.45,3.907142857142857L7.235714285714286,3.907142857142857L7.235714285714286,3.478571428571428L7.021428571428571,3.478571428571428L7.021428571428571,2.521428571428572L19.764285714285716,2.521428571428572L19.764285714285716,2.7357142857142858L20.621428571428574,2.7357142857142858L20.621428571428574,2.95L21,2.95L21,3.05L20.521428571428572,3.05L20.521428571428572,2.8357142857142854L19.664285714285715,2.8357142857142854L19.664285714285715,2.6214285714285714L7.121428571428571,2.6214285714285714L7.121428571428571,3.3785714285714286L7.335714285714285,3.3785714285714286L7.335714285714285,3.8071428571428574L7.55,3.8071428571428574L7.55,4.021428571428571L7.978571428571428,4.021428571428571L7.978571428571428,4.45z" stroke="none"/><path d="M25.5,4.45L25.5,4.55L23.95,4.55L23.95,4.335714285714285L23.735714285714284,4.335714285714285L23.735714285714284,4.121428571428571L23.09285714285714,4.121428571428571L23.09285714285714,3.907142857142857L15.378571428571426,3.907142857142857L15.378571428571426,3.6928571428571426L13.878571428571426,3.6928571428571426L13.878571428571426,3.478571428571428L13.664285714285715,3.478571428571428L13.664285714285715,3.05L13.5,3.05L13.5,2.95L13.764285714285716,2.95L13.764285714285716,3.3785714285714286L13.978571428571428,3.3785714285714286L13.978571428571428,3.592857142857143L15.478571428571428,3.592857142857143L15.478571428571428,3.8071428571428574L23.192857142857143,3.8071428571428574L23.192857142857143,4.021428571428571L23.835714285714285,4.021428571428571L23.835714285714285,4.235714285714286L24.05,4.235714285714286L24.05,4.45z" stroke="none"/><path d="M27.05,6L26.95,6L26.95,4.978571428571429L25.878571428571426,4.978571428571429L25.878571428571426,4.121428571428571L23.95,4.121428571428571L23.95,3.907142857142857L23.307142857142857,3.907142857142857L23.307142857142857,3.6928571428571426L15.592857142857142,3.6928571428571426L15.592857142857142,3.478571428571428L15.164285714285715,3.478571428571428L15.164285714285715,3.05L15,3.05L15,2.95L15.264285714285716,2.95L15.264285714285716,3.3785714285714286L15.692857142857143,3.3785714285714286L15.692857142857143,3.592857142857143L23.40714285714286,3.592857142857143L23.40714285714286,3.8071428571428574L24.05,3.8071428571428574L24.05,4.021428571428571L25.978571428571428,4.021428571428571L25.978571428571428,4.878571428571429L27.05,4.878571428571429z" stroke="none"/></svg>