<svg version="1.1" width="30" height="15" xmlns="http://www.w3.org/2000/svg"><path d="M24.378571428571426,8.307142857142857L24.378571428571426,8.092857142857142L24.59285714285714,8.092857142857142L24.59285714285714,7.878571428571428L24.807142857142857,7.878571428571428L24.807142857142857,7.664285714285715L25.02142857142857,7.664285714285715L25.02142857142857,7.021428571428571L25.978571428571428,7.021428571428571L25.978571428571428,7.878571428571428L26.192857142857143,7.878571428571428L26.192857142857143,8.307142857142857L26.62142857142857,8.307142857142857L26.62142857142857,8.735714285714284L27.05,8.735714285714284L27.05,9L26.95,9L26.95,8.835714285714285L26.52142857142857,8.835714285714285L26.52142857142857,8.407142857142858L26.09285714285714,8.407142857142858L26.09285714285714,7.978571428571428L25.878571428571426,7.978571428571428L25.878571428571426,7.121428571428571L25.12142857142857,7.121428571428571L25.12142857142857,7.764285714285714L24.90714285714286,7.764285714285714L24.90714285714286,7.978571428571428L24.692857142857143,7.978571428571428L24.692857142857143,8.192857142857143L24.478571428571428,8.192857142857143L24.478571428571428,8.407142857142858L20.40714285714286,8.407142857142858L20.40714285714286,8.62142857142857L15.692857142857143,8.62142857142857L15.692857142857143,9.05L15,9.05L15,8.95L15.592857142857142,8.95L15.592857142857142,8.521428571428569L20.307142857142857,8.521428571428569L20.307142857142857,8.407142857142858L19.664285714285715,8.407142857142858L19.664285714285715,8.192857142857143L19.45,8.192857142857143L19.45,7.5L19.55,7.5L19.55,8.092857142857142L19.764285714285716,8.092857142857142L19.764285714285716,8.307142857142857z" stroke="none"/><path d="M24.164285714285715,9.807142857142857L24.164285714285715,8.95L24.59285714285714,8.95L24.59285714285714,8.521428571428569L24.807142857142857,8.521428571428569L24.807142857142857,8.092857142857142L25.02142857142857,8.092857142857142L25.02142857142857,7.878571428571428L25.45,7.878571428571428L25.45,7.5L25.55,7.5L25.55,7.978571428571428L25.12142857142857,7.978571428571428L25.12142857142857,8.192857142857143L24.90714285714286,8.192857142857143L24.90714285714286,8.62142857142857L24.692857142857143,8.62142857142857L24.692857142857143,9.05L24.264285714285716,9.05L24.264285714285716,9.907142857142858L22.978571428571428,9.907142857142858L22.978571428571428,10.878571428571426L23.62142857142857,10.878571428571426L23.62142857142857,11.307142857142857L23.835714285714285,11.307142857142857L23.835714285714285,11.735714285714284L24.05,11.735714285714284L24.05,12L23.95,12L23.95,11.835714285714285L23.735714285714284,11.835714285714285L23.735714285714284,11.407142857142858L23.52142857142857,11.407142857142858L23.52142857142857,10.978571428571428L22.878571428571426,10.978571428571428L22.878571428571426,9.907142857142858L20.192857142857143,9.907142857142858L20.192857142857143,10.12142857142857L19.764285714285716,10.12142857142857L19.764285714285716,10.335714285714285L19.55,10.335714285714285L19.55,10.5L19.45,10.5L19.45,10.235714285714284L19.664285714285715,10.235714285714284L19.664285714285715,10.021428571428569L20.09285714285714,10.021428571428569L20.09285714285714,9.807142857142857z" stroke="none"/><path d="M9.592857142857142,4.45L9.592857142857142,4.335714285714285L9.378571428571426,4.335714285714285L9.378571428571426,4.121428571428571L4.878571428571429,4.121428571428571L4.878571428571429,3.6928571428571426L4.45,3.6928571428571426L4.45,3L4.55,3L4.55,3.592857142857143L4.978571428571429,3.592857142857143L4.978571428571429,4.021428571428571L9.478571428571428,4.021428571428571L9.478571428571428,4.235714285714286L9.692857142857143,4.235714285714286L9.692857142857143,4.45L13.021428571428569,4.45L13.021428571428569,4.021428571428571L14.835714285714285,4.021428571428571L14.835714285714285,4.235714285714286L15.05,4.235714285714286L15.05,4.5L14.95,4.5L14.95,4.335714285714285L14.735714285714284,4.335714285714285L14.735714285714284,4.121428571428571L13.12142857142857,4.121428571428571L13.12142857142857,4.55L9.478571428571428,4.55L9.478571428571428,4.978571428571429L7.978571428571428,4.978571428571429L7.978571428571428,5.407142857142857L7.764285714285714,5.407142857142857L7.764285714285714,5.621428571428571L7.55,5.621428571428571L7.55,6L7.45,6L7.45,5.521428571428571L7.664285714285715,5.521428571428571L7.664285714285715,5.307142857142857L7.878571428571428,5.307142857142857L7.878571428571428,4.878571428571429L9.378571428571426,4.878571428571429L9.378571428571426,4.45z" stroke="none"/><path d="M12.164285714285715,10.664285714285715L12.164285714285715,10.45L14.521428571428569,10.45L14.521428571428569,10.021428571428569L15.807142857142857,10.021428571428569L15.807142857142857,9.807142857142857L16.235714285714284,9.807142857142857L16.235714285714284,9.164285714285715L17.521428571428572,9.164285714285715L17.521428571428572,8.95L18,8.95L18,9.05L17.621428571428574,9.05L17.621428571428574,9.264285714285716L16.335714285714285,9.264285714285716L16.335714285714285,9.907142857142858L15.907142857142858,9.907142857142858L15.907142857142858,10.12142857142857L14.62142857142857,10.12142857142857L14.62142857142857,10.55L12.264285714285716,10.55L12.264285714285716,10.664285714285715L12.907142857142858,10.664285714285715L12.907142857142858,11.307142857142857L13.12142857142857,11.307142857142857L13.12142857142857,11.735714285714284L13.55,11.735714285714284L13.55,12L13.45,12L13.45,11.835714285714285L13.021428571428569,11.835714285714285L13.021428571428569,11.407142857142858L12.807142857142857,11.407142857142858L12.807142857142857,10.764285714285716L12.264285714285716,10.764285714285716L12.264285714285716,10.978571428571428L10.55,10.978571428571428L10.55,11.192857142857143L10.12142857142857,11.192857142857143L10.12142857142857,11.407142857142858L9.478571428571428,11.407142857142858L9.478571428571428,11.62142857142857L8.192857142857143,11.62142857142857L8.192857142857143,12.05L7.5,12.05L7.5,11.95L8.092857142857142,11.95L8.092857142857142,11.521428571428569L9.378571428571426,11.521428571428569L9.378571428571426,11.307142857142857L10.021428571428569,11.307142857142857L10.021428571428569,11.092857142857142L10.45,11.092857142857142L10.45,10.878571428571426L12.164285714285715,10.878571428571426L12.164285714285715,10.764285714285716L10.878571428571426,10.764285714285716L10.878571428571426,10.55L10.5,10.55L10.5,10.45L10.978571428571428,10.45L10.978571428571428,10.664285714285715z" stroke="none"/><path d="M15.592857142857142,4.45L15.592857142857142,4.235714285714286L16.02142857142857,4.235714285714286L16.02142857142857,4.021428571428571L17.307142857142857,4.021428571428571L17.307142857142857,3.1642857142857146L17.95,3.1642857142857146L17.95,3L18.05,3L18.05,3.2642857142857142L17.40714285714286,3.2642857142857142L17.40714285714286,4.121428571428571L16.12142857142857,4.121428571428571L16.12142857142857,4.335714285714285L15.692857142857143,4.335714285714285L15.692857142857143,4.45L15.907142857142858,4.45L15.907142857142858,4.878571428571429L17.40714285714286,4.878571428571429L17.40714285714286,5.521428571428571L17.835714285714285,5.521428571428571L17.835714285714285,5.95L18,5.95L18,6.05L17.735714285714284,6.05L17.735714285714284,5.621428571428571L17.307142857142857,5.621428571428571L17.307142857142857,4.978571428571429L15.807142857142857,4.978571428571429L15.807142857142857,4.55L15.692857142857143,4.55L15.692857142857143,4.764285714285714L15.478571428571428,4.764285714285714L15.478571428571428,4.978571428571429L13.55,4.978571428571429L13.55,5.192857142857142L13.335714285714285,5.192857142857142L13.335714285714285,5.621428571428571L12.264285714285716,5.621428571428571L12.264285714285716,5.835714285714285L12.05,5.835714285714285L12.05,6L11.95,6L11.95,5.735714285714286L12.164285714285715,5.735714285714286L12.164285714285715,5.521428571428571L13.235714285714284,5.521428571428571L13.235714285714284,5.0928571428571425L13.45,5.0928571428571425L13.45,4.878571428571429L15.378571428571426,4.878571428571429L15.378571428571426,4.664285714285715L15.592857142857142,4.664285714285715L15.592857142857142,4.55L15.378571428571426,4.55L15.378571428571426,4.121428571428571L15.164285714285715,4.121428571428571L15.164285714285715,3.907142857142857L12.807142857142857,3.907142857142857L12.807142857142857,3.6928571428571426L12.592857142857142,3.6928571428571426L12.592857142857142,3.478571428571428L12.378571428571426,3.478571428571428L12.378571428571426,3.05L12,3.05L12,2.95L12.478571428571428,2.95L12.478571428571428,3.3785714285714286L12.692857142857143,3.3785714285714286L12.692857142857143,3.592857142857143L12.907142857142858,3.592857142857143L12.907142857142858,3.8071428571428574L15.264285714285716,3.8071428571428574L15.264285714285716,4.021428571428571L15.478571428571428,4.021428571428571L15.478571428571428,4.45z" stroke="none"/><path d="M16.664285714285715,7.021428571428571L16.664285714285715,6.807142857142857L18.164285714285715,6.807142857142857L18.164285714285715,6.378571428571428L18.378571428571426,6.378571428571428L18.378571428571426,5.735714285714286L20.521428571428572,5.735714285714286L20.521428571428572,5.521428571428571L22.335714285714285,5.521428571428571L22.335714285714285,5.735714285714286L22.55,5.735714285714286L22.55,6L22.45,6L22.45,5.835714285714285L22.235714285714284,5.835714285714285L22.235714285714284,5.621428571428571L20.621428571428574,5.621428571428571L20.621428571428574,5.835714285714285L18.478571428571428,5.835714285714285L18.478571428571428,6.478571428571428L18.264285714285716,6.478571428571428L18.264285714285716,6.907142857142857L16.764285714285716,6.907142857142857L16.764285714285716,7.021428571428571L18.378571428571426,7.021428571428571L18.378571428571426,6.807142857142857L18.59285714285714,6.807142857142857L18.59285714285714,6.5928571428571425L18.807142857142857,6.5928571428571425L18.807142857142857,6.378571428571428L19.235714285714284,6.378571428571428L19.235714285714284,5.95L19.5,5.95L19.5,6.05L19.335714285714285,6.05L19.335714285714285,6.478571428571428L18.90714285714286,6.478571428571428L18.90714285714286,6.692857142857142L18.692857142857143,6.692857142857142L18.692857142857143,6.907142857142857L18.478571428571428,6.907142857142857L18.478571428571428,7.121428571428571L16.764285714285716,7.121428571428571L16.764285714285716,7.335714285714285L14.62142857142857,7.335714285714285L14.62142857142857,7.55L14.192857142857143,7.55L14.192857142857143,8.835714285714285L13.764285714285716,8.835714285714285L13.764285714285716,9.05L13.5,9.05L13.5,8.95L13.664285714285715,8.95L13.664285714285715,8.735714285714284L14.092857142857142,8.735714285714284L14.092857142857142,7.45L14.521428571428569,7.45L14.521428571428569,7.235714285714286L16.664285714285715,7.235714285714286L16.664285714285715,7.121428571428571L12.478571428571428,7.121428571428571L12.478571428571428,7.335714285714285L12.264285714285716,7.335714285714285L12.264285714285716,7.55L12,7.55L12,7.45L12.164285714285715,7.45L12.164285714285715,7.235714285714286L12.378571428571426,7.235714285714286L12.378571428571426,7.021428571428571z" stroke="none"/><path d="M9,4.45L9,4.55L7.5,4.55L7.5,4.45z" stroke="none"/><path d="M16.5,4.55L16.5,4.45L18,4.45L18,4.55z" stroke="none"/><path d="M4.5,6.05L4.5,5.95L6,5.95L6,6.05z" stroke="none"/><path d="M21,8.95L21,9.05L20.40714285714286,9.05L20.40714285714286,9.264285714285716L20.192857142857143,9.264285714285716L20.192857142857143,9.478571428571428L19.55,9.478571428571428L19.55,9.907142857142858L19.335714285714285,9.907142857142858L19.335714285714285,10.12142857142857L19.121428571428574,10.12142857142857L19.121428571428574,10.878571428571426L22.55,10.878571428571426L22.55,11.092857142857142L23.40714285714286,11.092857142857142L23.40714285714286,11.521428571428569L23.62142857142857,11.521428571428569L23.62142857142857,12.378571428571426L24.378571428571426,12.378571428571426L24.378571428571426,11.521428571428569L25.664285714285715,11.521428571428569L25.664285714285715,11.092857142857142L26.307142857142857,11.092857142857142L26.307142857142857,10.664285714285715L26.735714285714284,10.664285714285715L26.735714285714284,10.45L27.378571428571426,10.45L27.378571428571426,8.62142857142857L26.95,8.62142857142857L26.95,8.407142857142858L26.735714285714284,8.407142857142858L26.735714285714284,8.192857142857143L26.52142857142857,8.192857142857143L26.52142857142857,7.764285714285714L26.307142857142857,7.764285714285714L26.307142857142857,7.55L26.09285714285714,7.55L26.09285714285714,6.907142857142857L23.40714285714286,6.907142857142857L23.40714285714286,7.121428571428571L22.764285714285716,7.121428571428571L22.764285714285716,7.335714285714285L22.55,7.335714285714285L22.55,7.5L22.45,7.5L22.45,7.235714285714286L22.664285714285715,7.235714285714286L22.664285714285715,7.021428571428571L23.307142857142857,7.021428571428571L23.307142857142857,6.807142857142857L26.192857142857143,6.807142857142857L26.192857142857143,7.45L26.40714285714286,7.45L26.40714285714286,7.664285714285715L26.62142857142857,7.664285714285715L26.62142857142857,8.092857142857142L26.835714285714285,8.092857142857142L26.835714285714285,8.307142857142857L27.05,8.307142857142857L27.05,8.521428571428569L27.478571428571428,8.521428571428569L27.478571428571428,10.55L26.835714285714285,10.55L26.835714285714285,10.764285714285716L26.40714285714286,10.764285714285716L26.40714285714286,11.192857142857143L25.764285714285716,11.192857142857143L25.764285714285716,11.62142857142857L24.478571428571428,11.62142857142857L24.478571428571428,12.478571428571428L23.52142857142857,12.478571428571428L23.52142857142857,11.62142857142857L23.307142857142857,11.62142857142857L23.307142857142857,11.192857142857143L22.45,11.192857142857143L22.45,10.978571428571428L19.021428571428572,10.978571428571428L19.021428571428572,10.021428571428569L19.235714285714284,10.021428571428569L19.235714285714284,9.807142857142857L19.45,9.807142857142857L19.45,9.378571428571426L20.09285714285714,9.378571428571426L20.09285714285714,9.164285714285715L20.307142857142857,9.164285714285715L20.307142857142857,8.95z" stroke="none"/><path d="M2.95,3L3.05,3L3.05,3.592857142857143L3.2642857142857142,3.592857142857143L3.2642857142857142,3.8071428571428574L3.907142857142857,3.8071428571428574L3.907142857142857,4.021428571428571L4.121428571428571,4.021428571428571L4.121428571428571,4.235714285714286L4.55,4.235714285714286L4.55,4.5L4.45,4.5L4.45,4.335714285714285L4.021428571428571,4.335714285714285L4.021428571428571,4.121428571428571L3.8071428571428574,4.121428571428571L3.8071428571428574,3.907142857142857L3.1642857142857146,3.907142857142857L3.1642857142857146,3.6928571428571426L2.95,3.6928571428571426z" stroke="none"/><path d="M25.5,5.95L25.5,6.05L24.59285714285714,6.05L24.59285714285714,5.192857142857142L24.164285714285715,5.192857142857142L24.164285714285715,4.764285714285714L23.95,4.764285714285714L23.95,4.5L24.05,4.5L24.05,4.664285714285715L24.264285714285716,4.664285714285715L24.264285714285716,5.0928571428571425L24.692857142857143,5.0928571428571425L24.692857142857143,5.95z" stroke="none"/><path d="M18,7.55L18,7.45L18.164285714285715,7.45L18.164285714285715,7.235714285714286L18.59285714285714,7.235714285714286L18.59285714285714,7.021428571428571L20.192857142857143,7.021428571428571L20.192857142857143,7.235714285714286L20.40714285714286,7.235714285714286L20.40714285714286,7.45L21,7.45L21,7.55L20.307142857142857,7.55L20.307142857142857,7.335714285714285L20.09285714285714,7.335714285714285L20.09285714285714,7.121428571428571L18.692857142857143,7.121428571428571L18.692857142857143,7.335714285714285L18.264285714285716,7.335714285714285L18.264285714285716,7.55z" stroke="none"/><path d="M13.5,4.45L13.5,4.55L13.335714285714285,4.55L13.335714285714285,4.764285714285714L10.12142857142857,4.764285714285714L10.12142857142857,4.978571428571429L9.692857142857143,4.978571428571429L9.692857142857143,5.192857142857142L8.835714285714285,5.192857142857142L8.835714285714285,5.621428571428571L8.407142857142858,5.621428571428571L8.407142857142858,6.264285714285714L7.978571428571428,6.264285714285714L7.978571428571428,6.478571428571428L7.021428571428571,6.478571428571428L7.021428571428571,6.05L6.807142857142857,6.05L6.807142857142857,5.835714285714285L6.5928571428571425,5.835714285714285L6.5928571428571425,5.621428571428571L3.8071428571428574,5.621428571428571L3.8071428571428574,5.192857142857142L3.3785714285714286,5.192857142857142L3.3785714285714286,4.978571428571429L2.95,4.978571428571429L2.95,4.121428571428571L2.7357142857142858,4.121428571428571L2.7357142857142858,3.6928571428571426L2.521428571428572,3.6928571428571426L2.521428571428572,2.521428571428572L9.264285714285716,2.521428571428572L9.264285714285716,2.95L10.5,2.95L10.5,3.05L9.164285714285715,3.05L9.164285714285715,2.6214285714285714L2.6214285714285714,2.6214285714285714L2.6214285714285714,3.592857142857143L2.8357142857142854,3.592857142857143L2.8357142857142854,4.021428571428571L3.05,4.021428571428571L3.05,4.878571428571429L3.478571428571428,4.878571428571429L3.478571428571428,5.0928571428571425L3.907142857142857,5.0928571428571425L3.907142857142857,5.521428571428571L6.692857142857142,5.521428571428571L6.692857142857142,5.735714285714286L6.907142857142857,5.735714285714286L6.907142857142857,5.95L7.121428571428571,5.95L7.121428571428571,6.378571428571428L7.878571428571428,6.378571428571428L7.878571428571428,6.164285714285715L8.307142857142857,6.164285714285715L8.307142857142857,5.521428571428571L8.735714285714284,5.521428571428571L8.735714285714284,5.0928571428571425L9.592857142857142,5.0928571428571425L9.592857142857142,4.878571428571429L10.021428571428569,4.878571428571429L10.021428571428569,4.664285714285715L13.235714285714284,4.664285714285715L13.235714285714284,4.45z" stroke="none"/><path d="M26.95,3L27.05,3L27.05,5.407142857142857L26.192857142857143,5.407142857142857L26.192857142857143,6.264285714285714L25.978571428571428,6.264285714285714L25.978571428571428,6.478571428571428L24.164285714285715,6.478571428571428L24.164285714285715,6.264285714285714L23.95,6.264285714285714L23.95,6L24.05,6L24.05,6.164285714285715L24.264285714285716,6.164285714285715L24.264285714285716,6.378571428571428L25.878571428571426,6.378571428571428L25.878571428571426,6.164285714285715L26.09285714285714,6.164285714285715L26.09285714285714,5.307142857142857L26.95,5.307142857142857z" stroke="none"/><path d="M16.5,5.95L16.5,6.05L16.335714285714285,6.05L16.335714285714285,6.264285714285714L15.478571428571428,6.264285714285714L15.478571428571428,6.478571428571428L8.192857142857143,6.478571428571428L8.192857142857143,6.692857142857142L4.235714285714286,6.692857142857142L4.235714285714286,6.478571428571428L4.021428571428571,6.478571428571428L4.021428571428571,6.264285714285714L3.8071428571428574,6.264285714285714L3.8071428571428574,6.05L3.592857142857143,6.05L3.592857142857143,5.407142857142857L2.7357142857142858,5.407142857142857L2.7357142857142858,4.55L2.521428571428572,4.55L2.521428571428572,3.907142857142857L2.3071428571428574,3.907142857142857L2.3071428571428574,2.3071428571428574L19.55,2.3071428571428574L19.55,2.521428571428572L19.764285714285716,2.521428571428572L19.764285714285716,2.7357142857142858L19.978571428571428,2.7357142857142858L19.978571428571428,3.3785714285714286L20.192857142857143,3.3785714285714286L20.192857142857143,3.592857142857143L21.05,3.592857142857143L21.05,3.8071428571428574L21.478571428571428,3.8071428571428574L21.478571428571428,4.664285714285715L21.692857142857143,4.664285714285715L21.692857142857143,4.878571428571429L22.55,4.878571428571429L22.55,5.307142857142857L22.978571428571428,5.307142857142857L22.978571428571428,6.478571428571428L21.164285714285715,6.478571428571428L21.164285714285715,6.264285714285714L20.95,6.264285714285714L20.95,6L21.05,6L21.05,6.164285714285715L21.264285714285716,6.164285714285715L21.264285714285716,6.378571428571428L22.878571428571426,6.378571428571428L22.878571428571426,5.407142857142857L22.45,5.407142857142857L22.45,4.978571428571429L21.59285714285714,4.978571428571429L21.59285714285714,4.764285714285714L21.378571428571426,4.764285714285714L21.378571428571426,3.907142857142857L20.95,3.907142857142857L20.95,3.6928571428571426L20.09285714285714,3.6928571428571426L20.09285714285714,3.478571428571428L19.878571428571426,3.478571428571428L19.878571428571426,2.8357142857142854L19.664285714285715,2.8357142857142854L19.664285714285715,2.6214285714285714L19.45,2.6214285714285714L19.45,2.407142857142857L2.407142857142857,2.407142857142857L2.407142857142857,3.8071428571428574L2.6214285714285714,3.8071428571428574L2.6214285714285714,4.45L2.8357142857142854,4.45L2.8357142857142854,5.307142857142857L3.6928571428571426,5.307142857142857L3.6928571428571426,5.95L3.907142857142857,5.95L3.907142857142857,6.164285714285715L4.121428571428571,6.164285714285715L4.121428571428571,6.378571428571428L4.335714285714285,6.378571428571428L4.335714285714285,6.5928571428571425L8.092857142857142,6.5928571428571425L8.092857142857142,6.378571428571428L15.378571428571426,6.378571428571428L15.378571428571426,6.164285714285715L16.235714285714284,6.164285714285715L16.235714285714284,5.95z" stroke="none"/><path d="M24,7.45L24,7.55L23.192857142857143,7.55L23.192857142857143,7.978571428571428L22.021428571428572,7.978571428571428L22.021428571428572,7.021428571428571L22.235714285714284,7.021428571428571L22.235714285714284,6.807142857142857L23.09285714285714,6.807142857142857L23.09285714285714,3.3785714285714286L23.52142857142857,3.3785714285714286L23.52142857142857,3.1642857142857146L23.95,3.1642857142857146L23.95,3L24.05,3L24.05,3.2642857142857142L23.62142857142857,3.2642857142857142L23.62142857142857,3.478571428571428L23.192857142857143,3.478571428571428L23.192857142857143,6.907142857142857L22.335714285714285,6.907142857142857L22.335714285714285,7.121428571428571L22.121428571428574,7.121428571428571L22.121428571428574,7.878571428571428L23.09285714285714,7.878571428571428L23.09285714285714,7.45z" stroke="none"/><path d="M3,9.05L3,8.95L3.478571428571428,8.95L3.478571428571428,9.164285714285715L4.121428571428571,9.164285714285715L4.121428571428571,9.378571428571426L6.478571428571428,9.378571428571426L6.478571428571428,9.592857142857142L6.692857142857142,9.592857142857142L6.692857142857142,10.021428571428569L7.335714285714285,10.021428571428569L7.335714285714285,10.235714285714284L7.55,10.235714285714284L7.55,10.5L7.45,10.5L7.45,10.335714285714285L7.235714285714286,10.335714285714285L7.235714285714286,10.12142857142857L6.5928571428571425,10.12142857142857L6.5928571428571425,9.692857142857143L6.378571428571428,9.692857142857143L6.378571428571428,9.478571428571428L4.021428571428571,9.478571428571428L4.021428571428571,9.264285714285716L3.3785714285714286,9.264285714285716L3.3785714285714286,9.05z" stroke="none"/><path d="M6,9.05L6,8.95L7.235714285714286,8.95L7.235714285714286,8.735714285714284L7.878571428571428,8.735714285714284L7.878571428571428,8.521428571428569L10.235714285714284,8.521428571428569L10.235714285714284,7.664285714285715L10.45,7.664285714285715L10.45,7.5L10.55,7.5L10.55,7.764285714285714L10.335714285714285,7.764285714285714L10.335714285714285,8.62142857142857L7.978571428571428,8.62142857142857L7.978571428571428,8.835714285714285L7.335714285714285,8.835714285714285L7.335714285714285,9.05z" stroke="none"/><path d="M19.55,4.5L19.45,4.5L19.45,3.907142857142857L19.235714285714284,3.907142857142857L19.235714285714284,3.6928571428571426L19.021428571428572,3.6928571428571426L19.021428571428572,3.478571428571428L18.59285714285714,3.478571428571428L18.59285714285714,2.6214285714285714L15.692857142857143,2.6214285714285714L15.692857142857143,2.8357142857142854L15.05,2.8357142857142854L15.05,3L14.95,3L14.95,2.7357142857142858L15.592857142857142,2.7357142857142858L15.592857142857142,2.521428571428572L18.692857142857143,2.521428571428572L18.692857142857143,3.3785714285714286L19.121428571428574,3.3785714285714286L19.121428571428574,3.592857142857143L19.335714285714285,3.592857142857143L19.335714285714285,3.8071428571428574L19.55,3.8071428571428574z" stroke="none"/><path d="M2.95,7.5L3.05,7.5L3.05,8.192857142857143L2.8357142857142854,8.192857142857143L2.8357142857142854,8.62142857142857L2.6214285714285714,8.62142857142857L2.6214285714285714,10.235714285714284L3.05,10.235714285714284L3.05,10.45L3.6928571428571426,10.45L3.6928571428571426,10.664285714285715L3.907142857142857,10.664285714285715L3.907142857142857,11.307142857142857L4.978571428571429,11.307142857142857L4.978571428571429,11.735714285714284L5.621428571428571,11.735714285714284L5.621428571428571,11.95L6,11.95L6,12.05L5.521428571428571,12.05L5.521428571428571,11.835714285714285L4.878571428571429,11.835714285714285L4.878571428571429,11.407142857142858L3.8071428571428574,11.407142857142858L3.8071428571428574,10.764285714285716L3.592857142857143,10.764285714285716L3.592857142857143,10.55L2.95,10.55L2.95,10.335714285714285L2.521428571428572,10.335714285714285L2.521428571428572,8.521428571428569L2.7357142857142858,8.521428571428569L2.7357142857142858,8.092857142857142L2.95,8.092857142857142z" stroke="none"/><path d="M22.55,3L22.45,3L22.45,2.521428571428572L27.478571428571428,2.521428571428572L27.478571428571428,5.407142857142857L27.264285714285716,5.407142857142857L27.264285714285716,5.621428571428571L27.05,5.621428571428571L27.05,6L26.95,6L26.95,5.521428571428571L27.164285714285715,5.521428571428571L27.164285714285715,5.307142857142857L27.378571428571426,5.307142857142857L27.378571428571426,2.6214285714285714L22.55,2.6214285714285714z" stroke="none"/><path d="M4.5,9.05L4.5,8.95L5.307142857142857,8.95L5.307142857142857,8.521428571428569L6.5928571428571425,8.521428571428569L6.5928571428571425,8.307142857142857L9.164285714285715,8.307142857142857L9.164285714285715,7.878571428571428L9.378571428571426,7.878571428571428L9.378571428571426,7.664285714285715L9.807142857142857,7.664285714285715L9.807142857142857,7.45L10.021428571428569,7.45L10.021428571428569,7.021428571428571L10.978571428571428,7.021428571428571L10.978571428571428,8.407142857142858L10.764285714285716,8.407142857142858L10.764285714285716,8.62142857142857L10.55,8.62142857142857L10.55,9L10.45,9L10.45,8.521428571428569L10.664285714285715,8.521428571428569L10.664285714285715,8.307142857142857L10.878571428571426,8.307142857142857L10.878571428571426,7.121428571428571L10.12142857142857,7.121428571428571L10.12142857142857,7.55L9.907142857142858,7.55L9.907142857142858,7.764285714285714L9.478571428571428,7.764285714285714L9.478571428571428,7.978571428571428L9.264285714285716,7.978571428571428L9.264285714285716,8.407142857142858L6.692857142857142,8.407142857142858L6.692857142857142,8.62142857142857L5.407142857142857,8.62142857142857L5.407142857142857,9.05z" stroke="none"/><path d="M13.5,2.95L13.5,3.05L12.592857142857142,3.05L12.592857142857142,2.8357142857142854L12.378571428571426,2.8357142857142854L12.378571428571426,2.6214285714285714L11.407142857142858,2.6214285714285714L11.407142857142858,2.8357142857142854L11.192857142857143,2.8357142857142854L11.192857142857143,3.05L10.978571428571428,3.05L10.978571428571428,3.478571428571428L7.878571428571428,3.478571428571428L7.878571428571428,3.05L7.5,3.05L7.5,2.95L7.978571428571428,2.95L7.978571428571428,3.3785714285714286L10.878571428571426,3.3785714285714286L10.878571428571426,2.95L11.092857142857142,2.95L11.092857142857142,2.7357142857142858L11.307142857142857,2.7357142857142858L11.307142857142857,2.521428571428572L12.478571428571428,2.521428571428572L12.478571428571428,2.7357142857142858L12.692857142857143,2.7357142857142858L12.692857142857143,2.95z" stroke="none"/><path d="M15,6.05L15,5.95L15.164285714285715,5.95L15.164285714285715,5.735714285714286L15.378571428571426,5.735714285714286L15.378571428571426,5.521428571428571L16.978571428571428,5.521428571428571L16.978571428571428,6.478571428571428L15.692857142857143,6.478571428571428L15.692857142857143,6.692857142857142L12.05,6.692857142857142L12.05,6.907142857142857L11.62142857142857,6.907142857142857L11.62142857142857,8.835714285714285L11.407142857142858,8.835714285714285L11.407142857142858,9.264285714285716L10.978571428571428,9.264285714285716L10.978571428571428,9.478571428571428L9.592857142857142,9.478571428571428L9.592857142857142,9.05L9,9.05L9,8.95L9.692857142857143,8.95L9.692857142857143,9.378571428571426L10.878571428571426,9.378571428571426L10.878571428571426,9.164285714285715L11.307142857142857,9.164285714285715L11.307142857142857,8.735714285714284L11.521428571428569,8.735714285714284L11.521428571428569,6.807142857142857L11.95,6.807142857142857L11.95,6.5928571428571425L15.592857142857142,6.5928571428571425L15.592857142857142,6.378571428571428L16.878571428571426,6.378571428571428L16.878571428571426,5.621428571428571L15.478571428571428,5.621428571428571L15.478571428571428,5.835714285714285L15.264285714285716,5.835714285714285L15.264285714285716,6.05z" stroke="none"/><path d="M9,10.45L9,10.55L8.62142857142857,10.55L8.62142857142857,10.764285714285716L8.192857142857143,10.764285714285716L8.192857142857143,10.978571428571428L7.55,10.978571428571428L7.55,11.192857142857143L7.335714285714285,11.192857142857143L7.335714285714285,11.407142857142858L7.121428571428571,11.407142857142858L7.121428571428571,12.378571428571426L15.592857142857142,12.378571428571426L15.592857142857142,12.164285714285715L16.45,12.164285714285715L16.45,12L16.55,12L16.55,12.264285714285716L15.692857142857143,12.264285714285716L15.692857142857143,12.478571428571428L7.021428571428571,12.478571428571428L7.021428571428571,11.307142857142857L7.235714285714286,11.307142857142857L7.235714285714286,11.092857142857142L7.45,11.092857142857142L7.45,10.878571428571426L8.092857142857142,10.878571428571426L8.092857142857142,10.664285714285715L8.521428571428569,10.664285714285715L8.521428571428569,10.45z" stroke="none"/><path d="M15,10.55L15,10.45L16.12142857142857,10.45L16.12142857142857,10.878571428571426L16.55,10.878571428571426L16.55,11.092857142857142L16.764285714285716,11.092857142857142L16.764285714285716,11.521428571428569L16.978571428571428,11.521428571428569L16.978571428571428,12.478571428571428L16.55,12.478571428571428L16.55,12.692857142857143L2.7357142857142858,12.692857142857143L2.7357142857142858,12.478571428571428L2.3071428571428574,12.478571428571428L2.3071428571428574,7.878571428571428L2.521428571428572,7.878571428571428L2.521428571428572,7.021428571428571L7.121428571428571,7.021428571428571L7.121428571428571,7.235714285714286L7.55,7.235714285714286L7.55,7.5L7.45,7.5L7.45,7.335714285714285L7.021428571428571,7.335714285714285L7.021428571428571,7.121428571428571L2.6214285714285714,7.121428571428571L2.6214285714285714,7.978571428571428L2.407142857142857,7.978571428571428L2.407142857142857,12.378571428571426L2.8357142857142854,12.378571428571426L2.8357142857142854,12.592857142857142L16.45,12.592857142857142L16.45,12.378571428571426L16.878571428571426,12.378571428571426L16.878571428571426,11.62142857142857L16.664285714285715,11.62142857142857L16.664285714285715,11.192857142857143L16.45,11.192857142857143L16.45,10.978571428571428L16.02142857142857,10.978571428571428L16.02142857142857,10.55z" stroke="none"/><path d="M19.45,9L19.55,9L19.55,9.264285714285716L19.335714285714285,9.264285714285716L19.335714285714285,9.478571428571428L19.121428571428574,9.478571428571428L19.121428571428574,9.907142857142858L18.90714285714286,9.907142857142858L18.90714285714286,11.092857142857142L22.121428571428574,11.092857142857142L22.121428571428574,11.521428571428569L22.335714285714285,11.521428571428569L22.335714285714285,11.735714285714284L22.764285714285716,11.735714285714284L22.764285714285716,11.95L23.192857142857143,11.95L23.192857142857143,12.378571428571426L23.40714285714286,12.378571428571426L23.40714285714286,12.592857142857142L26.307142857142857,12.592857142857142L26.307142857142857,12.378571428571426L26.52142857142857,12.378571428571426L26.52142857142857,12.164285714285715L26.95,12.164285714285715L26.95,12L27.05,12L27.05,12.264285714285716L26.62142857142857,12.264285714285716L26.62142857142857,12.478571428571428L26.40714285714286,12.478571428571428L26.40714285714286,12.692857142857143L23.307142857142857,12.692857142857143L23.307142857142857,12.478571428571428L23.09285714285714,12.478571428571428L23.09285714285714,12.05L22.664285714285715,12.05L22.664285714285715,11.835714285714285L22.235714285714284,11.835714285714285L22.235714285714284,11.62142857142857L22.021428571428572,11.62142857142857L22.021428571428572,11.192857142857143L18.807142857142857,11.192857142857143L18.807142857142857,9.807142857142857L19.021428571428572,9.807142857142857L19.021428571428572,9.378571428571426L19.235714285714284,9.378571428571426L19.235714285714284,9.164285714285715L19.45,9.164285714285715z" stroke="none"/><path d="M16.5,10.55L16.5,10.45L18.264285714285716,10.45L18.264285714285716,10.878571428571426L18.478571428571428,10.878571428571426L18.478571428571428,11.092857142857142L18.692857142857143,11.092857142857142L18.692857142857143,11.307142857142857L21.692857142857143,11.307142857142857L21.692857142857143,12.164285714285715L22.764285714285716,12.164285714285715L22.764285714285716,12.378571428571426L22.978571428571428,12.378571428571426L22.978571428571428,12.592857142857142L23.192857142857143,12.592857142857142L23.192857142857143,12.807142857142857L27.164285714285715,12.807142857142857L27.164285714285715,12.378571428571426L27.378571428571426,12.378571428571426L27.378571428571426,11.62142857142857L26.40714285714286,11.62142857142857L26.40714285714286,11.835714285714285L25.978571428571428,11.835714285714285L25.978571428571428,12.05L25.5,12.05L25.5,11.95L25.878571428571426,11.95L25.878571428571426,11.735714285714284L26.307142857142857,11.735714285714284L26.307142857142857,11.521428571428569L27.478571428571428,11.521428571428569L27.478571428571428,12.478571428571428L27.264285714285716,12.478571428571428L27.264285714285716,12.907142857142858L23.09285714285714,12.907142857142858L23.09285714285714,12.692857142857143L22.878571428571426,12.692857142857143L22.878571428571426,12.478571428571428L22.664285714285715,12.478571428571428L22.664285714285715,12.264285714285716L21.59285714285714,12.264285714285716L21.59285714285714,11.407142857142858L18.59285714285714,11.407142857142858L18.59285714285714,11.192857142857143L18.378571428571426,11.192857142857143L18.378571428571426,10.978571428571428L18.164285714285715,10.978571428571428L18.164285714285715,10.55z" stroke="none"/><path d="M21,11.95L21,12.05L17.835714285714285,12.05L17.835714285714285,12.264285714285716L17.40714285714286,12.264285714285716L17.40714285714286,12.478571428571428L17.192857142857143,12.478571428571428L17.192857142857143,12.692857142857143L16.764285714285716,12.692857142857143L16.764285714285716,12.907142857142858L2.092857142857143,12.907142857142858L2.092857142857143,6.807142857142857L8.407142857142858,6.807142857142857L8.407142857142858,7.021428571428571L8.62142857142857,7.021428571428571L8.62142857142857,7.235714285714286L9.05,7.235714285714286L9.05,7.5L8.95,7.5L8.95,7.335714285714285L8.521428571428569,7.335714285714285L8.521428571428569,7.121428571428571L8.307142857142857,7.121428571428571L8.307142857142857,6.907142857142857L2.1928571428571426,6.907142857142857L2.1928571428571426,12.807142857142857L16.664285714285715,12.807142857142857L16.664285714285715,12.592857142857142L17.09285714285714,12.592857142857142L17.09285714285714,12.378571428571426L17.307142857142857,12.378571428571426L17.307142857142857,12.164285714285715L17.735714285714284,12.164285714285715L17.735714285714284,11.95z" stroke="none"/></svg>