<svg version="1.1" width="30" height="15" xmlns="http://www.w3.org/2000/svg"><path d="M19.45,5.307142857142857L19.45,5.192857142857142L19.021428571428572,5.192857142857142L19.021428571428572,4.978571428571429L17.95,4.978571428571429L17.95,4.5L18.05,4.5L18.05,4.878571428571429L19.121428571428574,4.878571428571429L19.121428571428574,5.0928571428571425L19.55,5.0928571428571425L19.55,5.307142857142857L21.05,5.307142857142857L21.05,5.521428571428571L22.121428571428574,5.521428571428571L22.121428571428574,5.95L22.5,5.95L22.5,6.05L22.021428571428572,6.05L22.021428571428572,5.621428571428571L20.95,5.621428571428571L20.95,5.407142857142857L19.121428571428574,5.407142857142857L19.121428571428574,5.621428571428571L18.90714285714286,5.621428571428571L18.90714285714286,5.835714285714285L18.478571428571428,5.835714285714285L18.478571428571428,6.05L18,6.05L18,5.95L18.378571428571426,5.95L18.378571428571426,5.735714285714286L18.807142857142857,5.735714285714286L18.807142857142857,5.521428571428571L19.021428571428572,5.521428571428571L19.021428571428572,5.307142857142857z" stroke="none"/><path d="M23.09285714285714,5.95L24,5.95L24,6.05L23.192857142857143,6.05L23.192857142857143,7.45L23.307142857142857,7.45L23.307142857142857,7.235714285714286L23.95,7.235714285714286L23.95,6.5928571428571425L24.59285714285714,6.5928571428571425L24.59285714285714,6.378571428571428L25.45,6.378571428571428L25.45,6L25.55,6L25.55,6.478571428571428L24.692857142857143,6.478571428571428L24.692857142857143,6.692857142857142L24.05,6.692857142857142L24.05,7.335714285714285L23.40714285714286,7.335714285714285L23.40714285714286,7.55L23.192857142857143,7.55L23.192857142857143,7.764285714285714L22.978571428571428,7.764285714285714L22.978571428571428,7.978571428571428L21.90714285714286,7.978571428571428L21.90714285714286,8.192857142857143L21.264285714285716,8.192857142857143L21.264285714285716,8.407142857142858L20.621428571428574,8.407142857142858L20.621428571428574,9.05L20.192857142857143,9.05L20.192857142857143,9.478571428571428L19.978571428571428,9.478571428571428L19.978571428571428,10.12142857142857L19.764285714285716,10.12142857142857L19.764285714285716,10.335714285714285L19.55,10.335714285714285L19.55,10.5L19.45,10.5L19.45,10.235714285714284L19.664285714285715,10.235714285714284L19.664285714285715,10.021428571428569L19.878571428571426,10.021428571428569L19.878571428571426,9.378571428571426L20.09285714285714,9.378571428571426L20.09285714285714,8.95L20.521428571428572,8.95L20.521428571428572,8.307142857142857L21.164285714285715,8.307142857142857L21.164285714285715,8.092857142857142L21.807142857142857,8.092857142857142L21.807142857142857,7.878571428571428L22.878571428571426,7.878571428571428L22.878571428571426,7.664285714285715L23.09285714285714,7.664285714285715z" stroke="none"/><path d="M6.378571428571428,9.807142857142857L6.378571428571428,9.692857142857143L5.735714285714286,9.692857142857143L5.735714285714286,9.478571428571428L5.521428571428571,9.478571428571428L5.521428571428571,9.264285714285716L5.0928571428571425,9.264285714285716L5.0928571428571425,8.192857142857143L4.878571428571429,8.192857142857143L4.878571428571429,7.978571428571428L4.45,7.978571428571428L4.45,7.5L4.55,7.5L4.55,7.878571428571428L4.978571428571429,7.878571428571428L4.978571428571429,8.092857142857142L5.192857142857142,8.092857142857142L5.192857142857142,9.164285714285715L5.621428571428571,9.164285714285715L5.621428571428571,9.378571428571426L5.835714285714285,9.378571428571426L5.835714285714285,9.592857142857142L6.478571428571428,9.592857142857142L6.478571428571428,9.807142857142857L6.692857142857142,9.807142857142857L6.692857142857142,10.021428571428569L7.121428571428571,10.021428571428569L7.121428571428571,10.235714285714284L7.335714285714285,10.235714285714284L7.335714285714285,10.664285714285715L7.55,10.664285714285715L7.55,10.878571428571426L8.192857142857143,10.878571428571426L8.192857142857143,11.092857142857142L8.407142857142858,11.092857142857142L8.407142857142858,11.735714285714284L10.55,11.735714285714284L10.55,12L10.45,12L10.45,11.835714285714285L8.307142857142857,11.835714285714285L8.307142857142857,11.192857142857143L8.092857142857142,11.192857142857143L8.092857142857142,10.978571428571428L7.45,10.978571428571428L7.45,10.764285714285716L7.235714285714286,10.764285714285716L7.235714285714286,10.335714285714285L7.021428571428571,10.335714285714285L7.021428571428571,10.12142857142857L6.5928571428571425,10.12142857142857L6.5928571428571425,9.907142857142858L4.978571428571429,9.907142857142858L4.978571428571429,10.12142857142857L4.764285714285714,10.12142857142857L4.764285714285714,10.335714285714285L4.55,10.335714285714285L4.55,10.5L4.45,10.5L4.45,10.235714285714284L4.664285714285715,10.235714285714284L4.664285714285715,10.021428571428569L4.878571428571429,10.021428571428569L4.878571428571429,9.807142857142857z" stroke="none"/><path d="M19.021428571428572,3.592857142857143L19.021428571428572,3.05L18.59285714285714,3.05L18.59285714285714,2.8357142857142854L16.55,2.8357142857142854L16.55,3L16.45,3L16.45,2.7357142857142858L18.692857142857143,2.7357142857142858L18.692857142857143,2.95L19.121428571428574,2.95L19.121428571428574,3.592857142857143L21.59285714285714,3.592857142857143L21.59285714285714,3.1642857142857146L21.807142857142857,3.1642857142857146L21.807142857142857,2.95L22.5,2.95L22.5,3.05L21.90714285714286,3.05L21.90714285714286,3.2642857142857142L21.692857142857143,3.2642857142857142L21.692857142857143,3.6928571428571426L19.121428571428574,3.6928571428571426L19.121428571428574,3.907142857142857L17.621428571428574,3.907142857142857L17.621428571428574,6.378571428571428L19.235714285714284,6.378571428571428L19.235714285714284,6.164285714285715L19.45,6.164285714285715L19.45,6L19.55,6L19.55,6.264285714285714L19.335714285714285,6.264285714285714L19.335714285714285,6.478571428571428L17.521428571428572,6.478571428571428L17.521428571428572,3.8071428571428574L19.021428571428572,3.8071428571428574L19.021428571428572,3.6928571428571426L18.378571428571426,3.6928571428571426L18.378571428571426,3.478571428571428L18.164285714285715,3.478571428571428L18.164285714285715,3.2642857142857142L17.95,3.2642857142857142L17.95,3L18.05,3L18.05,3.1642857142857146L18.264285714285716,3.1642857142857146L18.264285714285716,3.3785714285714286L18.478571428571428,3.3785714285714286L18.478571428571428,3.592857142857143z" stroke="none"/><path d="M8.521428571428569,4.45L8.521428571428569,4.335714285714285L8.307142857142857,4.335714285714285L8.307142857142857,3.907142857142857L7.878571428571428,3.907142857142857L7.878571428571428,3.6928571428571426L7.664285714285715,3.6928571428571426L7.664285714285715,3.2642857142857142L6.807142857142857,3.2642857142857142L6.807142857142857,3.05L6.5928571428571425,3.05L6.5928571428571425,2.8357142857142854L4.978571428571429,2.8357142857142854L4.978571428571429,3.05L4.5,3.05L4.5,2.95L4.878571428571429,2.95L4.878571428571429,2.7357142857142858L6.692857142857142,2.7357142857142858L6.692857142857142,2.95L6.907142857142857,2.95L6.907142857142857,3.1642857142857146L7.764285714285714,3.1642857142857146L7.764285714285714,3.592857142857143L7.978571428571428,3.592857142857143L7.978571428571428,3.8071428571428574L8.407142857142858,3.8071428571428574L8.407142857142858,4.235714285714286L8.62142857142857,4.235714285714286L8.62142857142857,4.45L9.264285714285716,4.45L9.264285714285716,4.664285714285715L9.907142857142858,4.664285714285715L9.907142857142858,4.878571428571429L13.021428571428569,4.878571428571429L13.021428571428569,4.664285714285715L13.235714285714284,4.664285714285715L13.235714285714284,4.45L13.5,4.45L13.5,4.55L13.335714285714285,4.55L13.335714285714285,4.764285714285714L13.12142857142857,4.764285714285714L13.12142857142857,4.978571428571429L9.807142857142857,4.978571428571429L9.807142857142857,4.764285714285714L9.164285714285715,4.764285714285714L9.164285714285715,4.55L8.62142857142857,4.55L8.62142857142857,6.5928571428571425L8.835714285714285,6.5928571428571425L8.835714285714285,7.021428571428571L9.05,7.021428571428571L9.05,7.235714285714286L10.335714285714285,7.235714285714286L10.335714285714285,7.45L10.5,7.45L10.5,7.55L10.235714285714284,7.55L10.235714285714284,7.335714285714285L8.95,7.335714285714285L8.95,7.121428571428571L8.735714285714284,7.121428571428571L8.735714285714284,6.692857142857142L8.521428571428569,6.692857142857142L8.521428571428569,4.55L8.092857142857142,4.55L8.092857142857142,4.335714285714285L7.878571428571428,4.335714285714285L7.878571428571428,4.121428571428571L7.021428571428571,4.121428571428571L7.021428571428571,3.907142857142857L6.807142857142857,3.907142857142857L6.807142857142857,3.478571428571428L6.378571428571428,3.478571428571428L6.378571428571428,3.05L6,3.05L6,2.95L6.478571428571428,2.95L6.478571428571428,3.3785714285714286L6.907142857142857,3.3785714285714286L6.907142857142857,3.8071428571428574L7.121428571428571,3.8071428571428574L7.121428571428571,4.021428571428571L7.978571428571428,4.021428571428571L7.978571428571428,4.235714285714286L8.192857142857143,4.235714285714286L8.192857142857143,4.45z" stroke="none"/><path d="M10.664285714285715,9.592857142857142L10.664285714285715,9.378571428571426L13.664285714285715,9.378571428571426L13.664285714285715,8.95L13.878571428571426,8.95L13.878571428571426,8.735714285714284L14.092857142857142,8.735714285714284L14.092857142857142,8.521428571428569L14.307142857142857,8.521428571428569L14.307142857142857,7.878571428571428L14.521428571428569,7.878571428571428L14.521428571428569,7.664285714285715L14.735714285714284,7.664285714285715L14.735714285714284,7.45L15,7.45L15,7.55L14.835714285714285,7.55L14.835714285714285,7.764285714285714L14.62142857142857,7.764285714285714L14.62142857142857,7.978571428571428L14.407142857142858,7.978571428571428L14.407142857142858,8.62142857142857L14.192857142857143,8.62142857142857L14.192857142857143,8.835714285714285L13.978571428571428,8.835714285714285L13.978571428571428,9.05L13.764285714285716,9.05L13.764285714285716,9.478571428571428L10.764285714285716,9.478571428571428L10.764285714285716,9.592857142857142L13.978571428571428,9.592857142857142L13.978571428571428,9.807142857142857L15.05,9.807142857142857L15.05,10.5L14.95,10.5L14.95,9.907142857142858L13.878571428571426,9.907142857142858L13.878571428571426,9.692857142857143L10.764285714285716,9.692857142857143L10.764285714285716,11.521428571428569L10.978571428571428,11.521428571428569L10.978571428571428,12.478571428571428L7.45,12.478571428571428L7.45,12L7.55,12L7.55,12.378571428571426L10.878571428571426,12.378571428571426L10.878571428571426,11.62142857142857L10.664285714285715,11.62142857142857L10.664285714285715,9.692857142857143L7.235714285714286,9.692857142857143L7.235714285714286,9.478571428571428L6.378571428571428,9.478571428571428L6.378571428571428,9.264285714285716L5.95,9.264285714285716L5.95,9L6.05,9L6.05,9.164285714285715L6.478571428571428,9.164285714285715L6.478571428571428,9.378571428571426L7.335714285714285,9.378571428571426L7.335714285714285,9.592857142857142z" stroke="none"/><path d="M3.05,4.5L2.95,4.5L2.95,3L3.05,3z" stroke="none"/><path d="M25.5,3.05L25.5,2.95L27,2.95L27,3.05z" stroke="none"/><path d="M25.5,9.05L25.5,8.95L27,8.95L27,9.05z" stroke="none"/><path d="M13.5,7.45L13.5,7.55L12,7.55L12,7.45z" stroke="none"/><path d="M21,4.55L21,4.45L22.5,4.45L22.5,4.55z" stroke="none"/><path d="M25.5,4.55L25.5,4.45L27,4.45L27,4.55z" stroke="none"/><path d="M21,7.55L21,7.45L22.5,7.45L22.5,7.55z" stroke="none"/><path d="M7.5,5.95L7.5,6.05L6.692857142857142,6.05L6.692857142857142,6.907142857142857L6.478571428571428,6.907142857142857L6.478571428571428,7.121428571428571L6.05,7.121428571428571L6.05,7.5L5.95,7.5L5.95,7.021428571428571L6.378571428571428,7.021428571428571L6.378571428571428,6.807142857142857L6.5928571428571425,6.807142857142857L6.5928571428571425,5.95z" stroke="none"/><path d="M4.55,12L4.45,12L4.45,11.192857142857143L3.8071428571428574,11.192857142857143L3.8071428571428574,10.764285714285716L3.592857142857143,10.764285714285716L3.592857142857143,10.55L3,10.55L3,10.45L3.6928571428571426,10.45L3.6928571428571426,10.664285714285715L3.907142857142857,10.664285714285715L3.907142857142857,11.092857142857142L4.55,11.092857142857142z" stroke="none"/><path d="M24,8.95L24,9.05L21,9.05L21,8.95z" stroke="none"/><path d="M10.5,4.45L10.5,4.55L9.378571428571426,4.55L9.378571428571426,4.121428571428571L9.164285714285715,4.121428571428571L9.164285714285715,3.907142857142857L8.95,3.907142857142857L8.95,3.6928571428571426L8.307142857142857,3.6928571428571426L8.307142857142857,3.2642857142857142L7.878571428571428,3.2642857142857142L7.878571428571428,3.05L7.021428571428571,3.05L7.021428571428571,2.8357142857142854L6.807142857142857,2.8357142857142854L6.807142857142857,2.6214285714285714L4.121428571428571,2.6214285714285714L4.121428571428571,3.3785714285714286L6.264285714285714,3.3785714285714286L6.264285714285714,4.021428571428571L6.907142857142857,4.021428571428571L6.907142857142857,4.235714285714286L7.335714285714285,4.235714285714286L7.335714285714285,4.45L7.5,4.45L7.5,4.55L7.235714285714286,4.55L7.235714285714286,4.335714285714285L6.807142857142857,4.335714285714285L6.807142857142857,4.121428571428571L6.164285714285715,4.121428571428571L6.164285714285715,3.478571428571428L4.021428571428571,3.478571428571428L4.021428571428571,2.521428571428572L6.907142857142857,2.521428571428572L6.907142857142857,2.7357142857142858L7.121428571428571,2.7357142857142858L7.121428571428571,2.95L7.978571428571428,2.95L7.978571428571428,3.1642857142857146L8.407142857142858,3.1642857142857146L8.407142857142858,3.592857142857143L9.05,3.592857142857143L9.05,3.8071428571428574L9.264285714285716,3.8071428571428574L9.264285714285716,4.021428571428571L9.478571428571428,4.021428571428571L9.478571428571428,4.45z" stroke="none"/><path d="M9,6.05L9,5.95L9.692857142857143,5.95L9.692857142857143,6.164285714285715L9.907142857142858,6.164285714285715L9.907142857142858,6.378571428571428L10.335714285714285,6.378571428571428L10.335714285714285,6.5928571428571425L10.978571428571428,6.5928571428571425L10.978571428571428,7.978571428571428L9.478571428571428,7.978571428571428L9.478571428571428,9.05L9,9.05L9,8.95L9.378571428571426,8.95L9.378571428571426,7.878571428571428L10.878571428571426,7.878571428571428L10.878571428571426,6.692857142857142L10.235714285714284,6.692857142857142L10.235714285714284,6.478571428571428L9.807142857142857,6.478571428571428L9.807142857142857,6.264285714285714L9.592857142857142,6.264285714285714L9.592857142857142,6.05z" stroke="none"/><path d="M19.5,7.45L19.5,7.55L19.121428571428574,7.55L19.121428571428574,7.978571428571428L17.40714285714286,7.978571428571428L17.40714285714286,8.407142857142858L17.192857142857143,8.407142857142858L17.192857142857143,9.05L16.5,9.05L16.5,8.95L17.09285714285714,8.95L17.09285714285714,8.307142857142857L17.307142857142857,8.307142857142857L17.307142857142857,7.878571428571428L19.021428571428572,7.878571428571428L19.021428571428572,7.45z" stroke="none"/><path d="M24,4.45L24,4.55L23.09285714285714,4.55L23.09285714285714,4.335714285714285L22.878571428571426,4.335714285714285L22.878571428571426,4.121428571428571L20.192857142857143,4.121428571428571L20.192857142857143,4.335714285714285L19.978571428571428,4.335714285714285L19.978571428571428,4.55L19.5,4.55L19.5,4.45L19.878571428571426,4.45L19.878571428571426,4.235714285714286L20.09285714285714,4.235714285714286L20.09285714285714,4.021428571428571L22.978571428571428,4.021428571428571L22.978571428571428,4.235714285714286L23.192857142857143,4.235714285714286L23.192857142857143,4.45z" stroke="none"/><path d="M21,10.55L21,10.45L21.807142857142857,10.45L21.807142857142857,10.235714285714284L22.021428571428572,10.235714285714284L22.021428571428572,10.021428571428569L24.692857142857143,10.021428571428569L24.692857142857143,10.235714285714284L24.90714285714286,10.235714285714284L24.90714285714286,10.45L25.5,10.45L25.5,10.55L24.807142857142857,10.55L24.807142857142857,10.335714285714285L24.59285714285714,10.335714285714285L24.59285714285714,10.12142857142857L22.121428571428574,10.12142857142857L22.121428571428574,10.335714285714285L21.90714285714286,10.335714285714285L21.90714285714286,10.55z" stroke="none"/><path d="M17.95,9L18.05,9L18.05,9.907142857142858L17.835714285714285,9.907142857142858L17.835714285714285,10.12142857142857L17.621428571428574,10.12142857142857L17.621428571428574,10.55L16.335714285714285,10.55L16.335714285714285,11.62142857142857L14.62142857142857,11.62142857142857L14.62142857142857,11.835714285714285L13.55,11.835714285714285L13.55,12L13.45,12L13.45,11.735714285714284L14.521428571428569,11.735714285714284L14.521428571428569,11.521428571428569L16.235714285714284,11.521428571428569L16.235714285714284,10.45L17.521428571428572,10.45L17.521428571428572,10.021428571428569L17.735714285714284,10.021428571428569L17.735714285714284,9.807142857142857L17.95,9.807142857142857z" stroke="none"/><path d="M11.95,10.5L12.05,10.5L12.05,10.878571428571426L12.264285714285716,10.878571428571426L12.264285714285716,11.307142857142857L12.478571428571428,11.307142857142857L12.478571428571428,11.735714285714284L12.692857142857143,11.735714285714284L12.692857142857143,12.378571428571426L16.02142857142857,12.378571428571426L16.02142857142857,12.164285714285715L16.235714285714284,12.164285714285715L16.235714285714284,11.735714285714284L16.45,11.735714285714284L16.45,11.307142857142857L16.664285714285715,11.307142857142857L16.664285714285715,11.092857142857142L17.521428571428572,11.092857142857142L17.521428571428572,10.878571428571426L17.95,10.878571428571426L17.95,10.5L18.05,10.5L18.05,10.978571428571428L17.621428571428574,10.978571428571428L17.621428571428574,11.192857142857143L16.764285714285716,11.192857142857143L16.764285714285716,11.407142857142858L16.55,11.407142857142858L16.55,11.835714285714285L16.335714285714285,11.835714285714285L16.335714285714285,12.264285714285716L16.12142857142857,12.264285714285716L16.12142857142857,12.478571428571428L12.592857142857142,12.478571428571428L12.592857142857142,11.835714285714285L12.378571428571426,11.835714285714285L12.378571428571426,11.407142857142858L12.164285714285715,11.407142857142858L12.164285714285715,10.978571428571428L11.95,10.978571428571428z" stroke="none"/><path d="M27,5.95L27,6.05L26.09285714285714,6.05L26.09285714285714,5.835714285714285L25.878571428571426,5.835714285714285L25.878571428571426,5.621428571428571L23.192857142857143,5.621428571428571L23.192857142857143,5.835714285714285L22.978571428571428,5.835714285714285L22.978571428571428,6.478571428571428L21.164285714285715,6.478571428571428L21.164285714285715,6.05L21,6.05L21,5.95L21.264285714285716,5.95L21.264285714285716,6.378571428571428L22.878571428571426,6.378571428571428L22.878571428571426,5.735714285714286L23.09285714285714,5.735714285714286L23.09285714285714,5.521428571428571L25.978571428571428,5.521428571428571L25.978571428571428,5.735714285714286L26.192857142857143,5.735714285714286L26.192857142857143,5.95z" stroke="none"/><path d="M22.5,10.45L22.5,10.55L22.121428571428574,10.55L22.121428571428574,10.764285714285716L21.478571428571428,10.764285714285716L21.478571428571428,10.978571428571428L19.021428571428572,10.978571428571428L19.021428571428572,8.521428571428569L19.878571428571426,8.521428571428569L19.878571428571426,7.121428571428571L16.764285714285716,7.121428571428571L16.764285714285716,7.335714285714285L16.55,7.335714285714285L16.55,7.5L16.45,7.5L16.45,7.235714285714286L16.664285714285715,7.235714285714286L16.664285714285715,7.021428571428571L19.978571428571428,7.021428571428571L19.978571428571428,8.62142857142857L19.121428571428574,8.62142857142857L19.121428571428574,10.878571428571426L21.378571428571426,10.878571428571426L21.378571428571426,10.664285714285715L22.021428571428572,10.664285714285715L22.021428571428572,10.45z" stroke="none"/><path d="M25.5,11.95L25.5,12.05L19.664285714285715,12.05L19.664285714285715,11.835714285714285L19.021428571428572,11.835714285714285L19.021428571428572,11.62142857142857L18.807142857142857,11.62142857142857L18.807142857142857,8.62142857142857L17.40714285714286,8.62142857142857L17.40714285714286,9.264285714285716L16.978571428571428,9.264285714285716L16.978571428571428,9.478571428571428L16.02142857142857,9.478571428571428L16.02142857142857,7.021428571428571L16.45,7.021428571428571L16.45,6.807142857142857L20.192857142857143,6.807142857142857L20.192857142857143,8.835714285714285L19.55,8.835714285714285L19.55,9L19.45,9L19.45,8.735714285714284L20.09285714285714,8.735714285714284L20.09285714285714,6.907142857142857L16.55,6.907142857142857L16.55,7.121428571428571L16.12142857142857,7.121428571428571L16.12142857142857,9.378571428571426L16.878571428571426,9.378571428571426L16.878571428571426,9.164285714285715L17.307142857142857,9.164285714285715L17.307142857142857,8.521428571428569L18.90714285714286,8.521428571428569L18.90714285714286,11.521428571428569L19.121428571428574,11.521428571428569L19.121428571428574,11.735714285714284L19.764285714285716,11.735714285714284L19.764285714285716,11.95z" stroke="none"/><path d="M5.95,10.5L6.05,10.5L6.05,10.764285714285716L5.192857142857142,10.764285714285716L5.192857142857142,10.978571428571428L4.021428571428571,10.978571428571428L4.021428571428571,7.021428571428571L5.192857142857142,7.021428571428571L5.192857142857142,7.45L5.407142857142857,7.45L5.407142857142857,7.664285714285715L5.621428571428571,7.664285714285715L5.621428571428571,7.878571428571428L6.478571428571428,7.878571428571428L6.478571428571428,8.307142857142857L6.692857142857142,8.307142857142857L6.692857142857142,8.735714285714284L7.121428571428571,8.735714285714284L7.121428571428571,8.95L7.764285714285714,8.95L7.764285714285714,9.164285714285715L8.62142857142857,9.164285714285715L8.62142857142857,9.378571428571426L10.45,9.378571428571426L10.45,9.164285714285715L10.664285714285715,9.164285714285715L10.664285714285715,8.735714285714284L10.878571428571426,8.735714285714284L10.878571428571426,8.092857142857142L11.092857142857142,8.092857142857142L11.092857142857142,7.664285714285715L11.307142857142857,7.664285714285715L11.307142857142857,7.021428571428571L12.378571428571426,7.021428571428571L12.378571428571426,6.5928571428571425L12.807142857142857,6.5928571428571425L12.807142857142857,6.378571428571428L13.45,6.378571428571428L13.45,6L13.55,6L13.55,6.478571428571428L12.907142857142858,6.478571428571428L12.907142857142858,6.692857142857142L12.478571428571428,6.692857142857142L12.478571428571428,7.121428571428571L11.407142857142858,7.121428571428571L11.407142857142858,7.764285714285714L11.192857142857143,7.764285714285714L11.192857142857143,8.192857142857143L10.978571428571428,8.192857142857143L10.978571428571428,8.835714285714285L10.764285714285716,8.835714285714285L10.764285714285716,9.264285714285716L10.55,9.264285714285716L10.55,9.478571428571428L8.521428571428569,9.478571428571428L8.521428571428569,9.264285714285716L7.664285714285715,9.264285714285716L7.664285714285715,9.05L7.021428571428571,9.05L7.021428571428571,8.835714285714285L6.5928571428571425,8.835714285714285L6.5928571428571425,8.407142857142858L6.378571428571428,8.407142857142858L6.378571428571428,7.978571428571428L5.521428571428571,7.978571428571428L5.521428571428571,7.764285714285714L5.307142857142857,7.764285714285714L5.307142857142857,7.55L5.0928571428571425,7.55L5.0928571428571425,7.121428571428571L4.121428571428571,7.121428571428571L4.121428571428571,10.878571428571426L5.0928571428571425,10.878571428571426L5.0928571428571425,10.664285714285715L5.95,10.664285714285715z" stroke="none"/><path d="M15,2.95L15,3.05L9.378571428571426,3.05L9.378571428571426,2.8357142857142854L7.235714285714286,2.8357142857142854L7.235714285714286,2.6214285714285714L7.021428571428571,2.6214285714285714L7.021428571428571,2.407142857142857L3.907142857142857,2.407142857142857L3.907142857142857,3.592857142857143L5.407142857142857,3.592857142857143L5.407142857142857,3.8071428571428574L5.621428571428571,3.8071428571428574L5.621428571428571,4.235714285714286L6.05,4.235714285714286L6.05,4.5L5.95,4.5L5.95,4.335714285714285L5.521428571428571,4.335714285714285L5.521428571428571,3.907142857142857L5.307142857142857,3.907142857142857L5.307142857142857,3.6928571428571426L3.8071428571428574,3.6928571428571426L3.8071428571428574,2.3071428571428574L7.121428571428571,2.3071428571428574L7.121428571428571,2.521428571428572L7.335714285714285,2.521428571428572L7.335714285714285,2.7357142857142858L9.478571428571428,2.7357142857142858L9.478571428571428,2.95z" stroke="none"/><path d="M15.05,9L14.95,9L14.95,8.092857142857142L15.164285714285715,8.092857142857142L15.164285714285715,7.878571428571428L15.378571428571426,7.878571428571428L15.378571428571426,2.6214285714285714L7.45,2.6214285714285714L7.45,2.1928571428571426L3.6928571428571426,2.1928571428571426L3.6928571428571426,4.878571428571429L3.907142857142857,4.878571428571429L3.907142857142857,5.0928571428571425L4.121428571428571,5.0928571428571425L4.121428571428571,5.307142857142857L4.764285714285714,5.307142857142857L4.764285714285714,5.521428571428571L5.407142857142857,5.521428571428571L5.407142857142857,5.735714285714286L5.621428571428571,5.735714285714286L5.621428571428571,5.95L6,5.95L6,6.05L5.521428571428571,6.05L5.521428571428571,5.835714285714285L5.307142857142857,5.835714285714285L5.307142857142857,5.621428571428571L4.664285714285715,5.621428571428571L4.664285714285715,5.407142857142857L4.021428571428571,5.407142857142857L4.021428571428571,5.192857142857142L3.8071428571428574,5.192857142857142L3.8071428571428574,4.978571428571429L3.592857142857143,4.978571428571429L3.592857142857143,2.092857142857143L7.55,2.092857142857143L7.55,2.521428571428572L15.478571428571428,2.521428571428572L15.478571428571428,7.978571428571428L15.264285714285716,7.978571428571428L15.264285714285716,8.192857142857143L15.05,8.192857142857143z" stroke="none"/><path d="M4.5,5.95L4.5,6.05L3.8071428571428574,6.05L3.8071428571428574,5.835714285714285L3.3785714285714286,5.835714285714285L3.3785714285714286,1.8785714285714286L15.478571428571428,1.8785714285714286L15.478571428571428,2.3071428571428574L15.692857142857143,2.3071428571428574L15.692857142857143,3.592857142857143L16.335714285714285,3.592857142857143L16.335714285714285,3.8071428571428574L16.55,3.8071428571428574L16.55,4.5L16.45,4.5L16.45,3.907142857142857L16.235714285714284,3.907142857142857L16.235714285714284,3.6928571428571426L15.592857142857142,3.6928571428571426L15.592857142857142,2.407142857142857L15.378571428571426,2.407142857142857L15.378571428571426,1.9785714285714286L3.478571428571428,1.9785714285714286L3.478571428571428,5.735714285714286L3.907142857142857,5.735714285714286L3.907142857142857,5.95z" stroke="none"/></svg>