<svg version="1.1" width="30" height="15" xmlns="http://www.w3.org/2000/svg"><path d="M10.878571428571426,5.307142857142857L10.878571428571426,4.878571428571429L11.092857142857142,4.878571428571429L11.092857142857142,4.45L11.521428571428569,4.45L11.521428571428569,4.021428571428571L11.735714285714284,4.021428571428571L11.735714285714284,3.1642857142857146L11.95,3.1642857142857146L11.95,3L12.05,3L12.05,3.2642857142857142L11.835714285714285,3.2642857142857142L11.835714285714285,4.121428571428571L11.62142857142857,4.121428571428571L11.62142857142857,4.55L11.192857142857143,4.55L11.192857142857143,4.978571428571429L10.978571428571428,4.978571428571429L10.978571428571428,5.407142857142857L9.05,5.407142857142857L9.05,6L8.95,6L8.95,5.407142857142857L8.835714285714285,5.407142857142857L8.835714285714285,6.05L8.62142857142857,6.05L8.62142857142857,6.478571428571428L7.978571428571428,6.478571428571428L7.978571428571428,6.692857142857142L7.764285714285714,6.692857142857142L7.764285714285714,6.907142857142857L7.121428571428571,6.907142857142857L7.121428571428571,7.335714285714285L6.264285714285714,7.335714285714285L6.264285714285714,7.55L6,7.55L6,7.45L6.164285714285715,7.45L6.164285714285715,7.235714285714286L7.021428571428571,7.235714285714286L7.021428571428571,6.807142857142857L7.664285714285715,6.807142857142857L7.664285714285715,6.5928571428571425L7.878571428571428,6.5928571428571425L7.878571428571428,6.378571428571428L8.521428571428569,6.378571428571428L8.521428571428569,5.95L8.735714285714284,5.95L8.735714285714284,5.307142857142857z" stroke="none"/><path d="M22.021428571428572,6.378571428571428L22.021428571428572,5.95L22.5,5.95L22.5,6.05L22.121428571428574,6.05L22.121428571428574,6.478571428571428L21.478571428571428,6.478571428571428L21.478571428571428,6.5928571428571425L23.40714285714286,6.5928571428571425L23.40714285714286,6.807142857142857L23.62142857142857,6.807142857142857L23.62142857142857,7.664285714285715L24.264285714285716,7.664285714285715L24.264285714285716,8.307142857142857L24.90714285714286,8.307142857142857L24.90714285714286,8.521428571428569L25.335714285714285,8.521428571428569L25.335714285714285,8.735714285714284L25.55,8.735714285714284L25.55,9L25.45,9L25.45,8.835714285714285L25.235714285714284,8.835714285714285L25.235714285714284,8.62142857142857L24.807142857142857,8.62142857142857L24.807142857142857,8.407142857142858L24.164285714285715,8.407142857142858L24.164285714285715,7.764285714285714L23.52142857142857,7.764285714285714L23.52142857142857,6.907142857142857L23.307142857142857,6.907142857142857L23.307142857142857,6.692857142857142L21.378571428571426,6.692857142857142L21.378571428571426,6.478571428571428L17.735714285714284,6.478571428571428L17.735714285714284,6.05L17.521428571428572,6.05L17.521428571428572,5.835714285714285L16.878571428571426,5.835714285714285L16.878571428571426,5.407142857142857L16.664285714285715,5.407142857142857L16.664285714285715,4.978571428571429L16.45,4.978571428571429L16.45,4.5L16.55,4.5L16.55,4.878571428571429L16.764285714285716,4.878571428571429L16.764285714285716,5.307142857142857L16.978571428571428,5.307142857142857L16.978571428571428,5.735714285714286L17.621428571428574,5.735714285714286L17.621428571428574,5.95L17.835714285714285,5.95L17.835714285714285,6.378571428571428z" stroke="none"/><path d="M7.021428571428571,10.878571428571426L7.021428571428571,10.45L7.5,10.45L7.5,10.55L7.121428571428571,10.55L7.121428571428571,10.978571428571428L4.55,10.978571428571428L4.55,11.407142857142858L4.335714285714285,11.407142857142858L4.335714285714285,11.62142857142857L3.907142857142857,11.62142857142857L3.907142857142857,11.835714285714285L3.05,11.835714285714285L3.05,12L2.95,12L2.95,11.735714285714284L3.8071428571428574,11.735714285714284L3.8071428571428574,11.521428571428569L4.235714285714286,11.521428571428569L4.235714285714286,11.307142857142857L4.45,11.307142857142857L4.45,10.978571428571428L4.235714285714286,10.978571428571428L4.235714285714286,10.764285714285716L3.3785714285714286,10.764285714285716L3.3785714285714286,10.55L3,10.55L3,10.45L3.478571428571428,10.45L3.478571428571428,10.664285714285715L4.335714285714285,10.664285714285715L4.335714285714285,10.878571428571426z" stroke="none"/><path d="M20.09285714285714,10.021428571428569L20.09285714285714,9.592857142857142L20.521428571428572,9.592857142857142L20.521428571428572,9.164285714285715L20.735714285714284,9.164285714285715L20.735714285714284,8.95L21.164285714285715,8.95L21.164285714285715,8.735714285714284L21.378571428571426,8.735714285714284L21.378571428571426,8.307142857142857L22.021428571428572,8.307142857142857L22.021428571428572,8.092857142857142L22.235714285714284,8.092857142857142L22.235714285714284,7.664285714285715L22.45,7.664285714285715L22.45,7.5L22.55,7.5L22.55,7.764285714285714L22.335714285714285,7.764285714285714L22.335714285714285,8.192857142857143L22.121428571428574,8.192857142857143L22.121428571428574,8.407142857142858L21.478571428571428,8.407142857142858L21.478571428571428,8.835714285714285L21.264285714285716,8.835714285714285L21.264285714285716,9.05L20.835714285714285,9.05L20.835714285714285,9.264285714285716L20.621428571428574,9.264285714285716L20.621428571428574,9.692857142857143L20.192857142857143,9.692857142857143L20.192857142857143,10.021428571428569L23.62142857142857,10.021428571428569L23.62142857142857,10.45L24,10.45L24,10.55L23.52142857142857,10.55L23.52142857142857,10.12142857142857L20.192857142857143,10.12142857142857L20.192857142857143,10.335714285714285L19.764285714285716,10.335714285714285L19.764285714285716,10.55L19.5,10.55L19.5,10.45L19.664285714285715,10.45L19.664285714285715,10.235714285714284L20.09285714285714,10.235714285714284L20.09285714285714,10.12142857142857L18.90714285714286,10.12142857142857L18.90714285714286,10.55L18.05,10.55L18.05,10.764285714285716L17.40714285714286,10.764285714285716L17.40714285714286,10.978571428571428L16.12142857142857,10.978571428571428L16.12142857142857,11.192857142857143L15.478571428571428,11.192857142857143L15.478571428571428,11.407142857142858L15.264285714285716,11.407142857142858L15.264285714285716,11.62142857142857L15.05,11.62142857142857L15.05,12L14.95,12L14.95,11.521428571428569L15.164285714285715,11.521428571428569L15.164285714285715,11.307142857142857L15.378571428571426,11.307142857142857L15.378571428571426,11.092857142857142L16.02142857142857,11.092857142857142L16.02142857142857,10.878571428571426L17.307142857142857,10.878571428571426L17.307142857142857,10.664285714285715L17.95,10.664285714285715L17.95,10.45L18.807142857142857,10.45L18.807142857142857,10.021428571428569z" stroke="none"/><path d="M20.521428571428572,3.592857142857143L20.521428571428572,3.1642857142857146L21.59285714285714,3.1642857142857146L21.59285714285714,2.95L22.5,2.95L22.5,3.05L21.692857142857143,3.05L21.692857142857143,3.2642857142857142L20.621428571428574,3.2642857142857142L20.621428571428574,3.592857142857143L23.09285714285714,3.592857142857143L23.09285714285714,3.3785714285714286L23.52142857142857,3.3785714285714286L23.52142857142857,3.1642857142857146L23.95,3.1642857142857146L23.95,3L24.05,3L24.05,3.2642857142857142L23.62142857142857,3.2642857142857142L23.62142857142857,3.478571428571428L23.192857142857143,3.478571428571428L23.192857142857143,3.6928571428571426L20.621428571428574,3.6928571428571426L20.621428571428574,4.45L21,4.45L21,4.55L20.521428571428572,4.55L20.521428571428572,3.6928571428571426L15.264285714285716,3.6928571428571426L15.264285714285716,4.121428571428571L15.05,4.121428571428571L15.05,4.5L14.95,4.5L14.95,4.021428571428571L15.164285714285715,4.021428571428571L15.164285714285715,3.592857142857143z" stroke="none"/><path d="M12.592857142857142,8.521428571428569L12.592857142857142,8.192857142857143L12.378571428571426,8.192857142857143L12.378571428571426,7.764285714285714L11.95,7.764285714285714L11.95,7.5L12.05,7.5L12.05,7.664285714285715L12.478571428571428,7.664285714285715L12.478571428571428,8.092857142857142L12.692857142857143,8.092857142857142L12.692857142857143,8.521428571428569L18.378571428571426,8.521428571428569L18.378571428571426,8.092857142857142L19.021428571428572,8.092857142857142L19.021428571428572,7.878571428571428L19.235714285714284,7.878571428571428L19.235714285714284,7.45L19.5,7.45L19.5,7.55L19.335714285714285,7.55L19.335714285714285,7.978571428571428L19.121428571428574,7.978571428571428L19.121428571428574,8.192857142857143L18.478571428571428,8.192857142857143L18.478571428571428,8.62142857142857L12.692857142857143,8.62142857142857L12.692857142857143,11.835714285714285L12.05,11.835714285714285L12.05,12L11.95,12L11.95,11.735714285714284L12.592857142857142,11.735714285714284L12.592857142857142,8.62142857142857L8.521428571428569,8.62142857142857L8.521428571428569,8.407142857142858L8.092857142857142,8.407142857142858L8.092857142857142,7.55L7.5,7.55L7.5,7.45L8.192857142857143,7.45L8.192857142857143,8.307142857142857L8.62142857142857,8.307142857142857L8.62142857142857,8.521428571428569z" stroke="none"/><path d="M13.45,10.5L13.55,10.5L13.55,10.978571428571428L13.335714285714285,10.978571428571428L13.335714285714285,11.192857142857143L13.12142857142857,11.192857142857143L13.12142857142857,11.835714285714285L12.907142857142858,11.835714285714285L12.907142857142858,12.05L12.478571428571428,12.05L12.478571428571428,12.478571428571428L11.521428571428569,12.478571428571428L11.521428571428569,10.664285714285715L11.95,10.664285714285715L11.95,10.5L12.05,10.5L12.05,10.764285714285716L11.62142857142857,10.764285714285716L11.62142857142857,12.378571428571426L12.378571428571426,12.378571428571426L12.378571428571426,11.95L12.807142857142857,11.95L12.807142857142857,11.735714285714284L13.021428571428569,11.735714285714284L13.021428571428569,11.092857142857142L13.235714285714284,11.092857142857142L13.235714285714284,10.878571428571426L13.45,10.878571428571426z" stroke="none"/><path d="M27.05,10.5L26.95,10.5L26.95,9L27.05,9z" stroke="none"/><path d="M21,11.95L21,12.05L19.5,12.05L19.5,11.95z" stroke="none"/><path d="M13.5,7.55L13.5,7.45L17.521428571428572,7.45L17.521428571428572,7.021428571428571L19.978571428571428,7.021428571428571L19.978571428571428,7.978571428571428L19.764285714285716,7.978571428571428L19.764285714285716,8.192857142857143L19.335714285714285,8.192857142857143L19.335714285714285,8.407142857142858L18.90714285714286,8.407142857142858L18.90714285714286,8.62142857142857L18.692857142857143,8.62142857142857L18.692857142857143,8.835714285714285L15.264285714285716,8.835714285714285L15.264285714285716,9.05L15,9.05L15,8.95L15.164285714285715,8.95L15.164285714285715,8.735714285714284L18.59285714285714,8.735714285714284L18.59285714285714,8.521428571428569L18.807142857142857,8.521428571428569L18.807142857142857,8.307142857142857L19.235714285714284,8.307142857142857L19.235714285714284,8.092857142857142L19.664285714285715,8.092857142857142L19.664285714285715,7.878571428571428L19.878571428571426,7.878571428571428L19.878571428571426,7.121428571428571L17.621428571428574,7.121428571428571L17.621428571428574,7.55z" stroke="none"/><path d="M24,5.95L24,6.05L23.09285714285714,6.05L23.09285714285714,5.192857142857142L22.664285714285715,5.192857142857142L22.664285714285715,4.764285714285714L22.45,4.764285714285714L22.45,4.5L22.55,4.5L22.55,4.664285714285715L22.764285714285716,4.664285714285715L22.764285714285716,5.0928571428571425L23.192857142857143,5.0928571428571425L23.192857142857143,5.95z" stroke="none"/><path d="M5.95,6L6.05,6L6.05,6.907142857142857L5.835714285714285,6.907142857142857L5.835714285714285,7.121428571428571L5.621428571428571,7.121428571428571L5.621428571428571,8.521428571428569L6.05,8.521428571428569L6.05,9L5.95,9L5.95,8.62142857142857L5.521428571428571,8.62142857142857L5.521428571428571,7.021428571428571L5.735714285714286,7.021428571428571L5.735714285714286,6.807142857142857L5.95,6.807142857142857z" stroke="none"/><path d="M13.5,3.05L13.5,2.95L16.5,2.95L16.5,3.05z" stroke="none"/><path d="M12.05,4.5L11.95,4.5L11.95,3.8071428571428574L12.378571428571426,3.8071428571428574L12.378571428571426,2.6214285714285714L11.62142857142857,2.6214285714285714L11.62142857142857,2.8357142857142854L11.407142857142858,2.8357142857142854L11.407142857142858,3.05L10.978571428571428,3.05L10.978571428571428,3.478571428571428L10.12142857142857,3.478571428571428L10.12142857142857,3.907142857142857L9.478571428571428,3.907142857142857L9.478571428571428,4.121428571428571L9.264285714285716,4.121428571428571L9.264285714285716,4.335714285714285L9.05,4.335714285714285L9.05,4.5L8.95,4.5L8.95,4.235714285714286L9.164285714285715,4.235714285714286L9.164285714285715,4.021428571428571L9.378571428571426,4.021428571428571L9.378571428571426,3.8071428571428574L10.021428571428569,3.8071428571428574L10.021428571428569,3.3785714285714286L10.878571428571426,3.3785714285714286L10.878571428571426,2.95L11.307142857142857,2.95L11.307142857142857,2.7357142857142858L11.521428571428569,2.7357142857142858L11.521428571428569,2.521428571428572L12.478571428571428,2.521428571428572L12.478571428571428,3.907142857142857L12.05,3.907142857142857z" stroke="none"/><path d="M25.5,11.95L25.5,12.05L24.59285714285714,12.05L24.59285714285714,11.835714285714285L24.378571428571426,11.835714285714285L24.378571428571426,11.62142857142857L23.62142857142857,11.62142857142857L23.62142857142857,11.835714285714285L23.40714285714286,11.835714285714285L23.40714285714286,12.05L22.5,12.05L22.5,11.95L23.307142857142857,11.95L23.307142857142857,11.735714285714284L23.52142857142857,11.735714285714284L23.52142857142857,11.521428571428569L24.478571428571428,11.521428571428569L24.478571428571428,11.735714285714284L24.692857142857143,11.735714285714284L24.692857142857143,11.95z" stroke="none"/><path d="M12.05,6L11.95,6L11.95,5.0928571428571425L12.378571428571426,5.0928571428571425L12.378571428571426,4.235714285714286L12.592857142857142,4.235714285714286L12.592857142857142,2.407142857142857L10.978571428571428,2.407142857142857L10.978571428571428,2.8357142857142854L10.764285714285716,2.8357142857142854L10.764285714285716,3.05L10.5,3.05L10.5,2.95L10.664285714285715,2.95L10.664285714285715,2.7357142857142858L10.878571428571426,2.7357142857142858L10.878571428571426,2.3071428571428574L12.692857142857143,2.3071428571428574L12.692857142857143,4.335714285714285L12.478571428571428,4.335714285714285L12.478571428571428,5.192857142857142L12.05,5.192857142857142z" stroke="none"/><path d="M10.5,8.95L10.5,9.05L6.478571428571428,9.05L6.478571428571428,9.478571428571428L5.521428571428571,9.478571428571428L5.521428571428571,9.05L5.307142857142857,9.05L5.307142857142857,5.521428571428571L6.907142857142857,5.521428571428571L6.907142857142857,5.735714285714286L7.121428571428571,5.735714285714286L7.121428571428571,5.95L7.5,5.95L7.5,6.05L7.021428571428571,6.05L7.021428571428571,5.835714285714285L6.807142857142857,5.835714285714285L6.807142857142857,5.621428571428571L5.407142857142857,5.621428571428571L5.407142857142857,8.95L5.621428571428571,8.95L5.621428571428571,9.378571428571426L6.378571428571428,9.378571428571426L6.378571428571428,8.95z" stroke="none"/><path d="M4.55,9L4.45,9L4.45,8.407142857142858L4.021428571428571,8.407142857142858L4.021428571428571,4.45L4.5,4.45L4.5,4.55L4.121428571428571,4.55L4.121428571428571,8.307142857142857L4.55,8.307142857142857z" stroke="none"/><path d="M6,12.05L6,11.95L8.521428571428569,11.95L8.521428571428569,11.521428571428569L10.55,11.521428571428569L10.55,12L10.45,12L10.45,11.62142857142857L8.62142857142857,11.62142857142857L8.62142857142857,12.05z" stroke="none"/><path d="M8.95,12L9.05,12L9.05,12.264285714285716L7.764285714285714,12.264285714285716L7.764285714285714,12.478571428571428L4.878571428571429,12.478571428571428L4.878571428571429,12.05L4.5,12.05L4.5,11.95L4.978571428571429,11.95L4.978571428571429,12.378571428571426L7.664285714285715,12.378571428571426L7.664285714285715,12.164285714285715L8.95,12.164285714285715z" stroke="none"/><path d="M3.05,9L2.95,9L2.95,4.5L3.05,4.5z" stroke="none"/><path d="M26.95,7.5L27.05,7.5L27.05,7.764285714285714L26.835714285714285,7.764285714285714L26.835714285714285,7.978571428571428L26.62142857142857,7.978571428571428L26.62142857142857,8.192857142857143L26.40714285714286,8.192857142857143L26.40714285714286,8.62142857142857L26.192857142857143,8.62142857142857L26.192857142857143,9.05L25.978571428571428,9.05L25.978571428571428,9.478571428571428L22.45,9.478571428571428L22.45,9L22.55,9L22.55,9.378571428571426L25.878571428571426,9.378571428571426L25.878571428571426,8.95L26.09285714285714,8.95L26.09285714285714,8.521428571428569L26.307142857142857,8.521428571428569L26.307142857142857,8.092857142857142L26.52142857142857,8.092857142857142L26.52142857142857,7.878571428571428L26.735714285714284,7.878571428571428L26.735714285714284,7.664285714285715L26.95,7.664285714285715z" stroke="none"/><path d="M6,10.45L6,10.55L5.521428571428571,10.55L5.521428571428571,9.907142857142858L5.307142857142857,9.907142857142858L5.307142857142857,9.264285714285716L5.0928571428571425,9.264285714285716L5.0928571428571425,5.307142857142857L7.878571428571428,5.307142857142857L7.878571428571428,4.664285714285715L8.092857142857142,4.664285714285715L8.092857142857142,4.45L8.307142857142857,4.45L8.307142857142857,4.235714285714286L8.521428571428569,4.235714285714286L8.521428571428569,4.021428571428571L8.735714285714284,4.021428571428571L8.735714285714284,3.3785714285714286L9.378571428571426,3.3785714285714286L9.378571428571426,2.521428571428572L9.592857142857142,2.521428571428572L9.592857142857142,2.092857142857143L12.907142857142858,2.092857142857143L12.907142857142858,5.835714285714285L12.692857142857143,5.835714285714285L12.692857142857143,6.478571428571428L12.478571428571428,6.478571428571428L12.478571428571428,6.692857142857142L12.264285714285716,6.692857142857142L12.264285714285716,6.907142857142857L12.05,6.907142857142857L12.05,7.121428571428571L11.62142857142857,7.121428571428571L11.62142857142857,7.335714285714285L10.55,7.335714285714285L10.55,7.5L10.45,7.5L10.45,7.235714285714286L11.521428571428569,7.235714285714286L11.521428571428569,7.021428571428571L11.95,7.021428571428571L11.95,6.807142857142857L12.164285714285715,6.807142857142857L12.164285714285715,6.5928571428571425L12.378571428571426,6.5928571428571425L12.378571428571426,6.378571428571428L12.592857142857142,6.378571428571428L12.592857142857142,5.735714285714286L12.807142857142857,5.735714285714286L12.807142857142857,2.1928571428571426L9.692857142857143,2.1928571428571426L9.692857142857143,2.6214285714285714L9.478571428571428,2.6214285714285714L9.478571428571428,3.478571428571428L8.835714285714285,3.478571428571428L8.835714285714285,4.121428571428571L8.62142857142857,4.121428571428571L8.62142857142857,4.335714285714285L8.407142857142858,4.335714285714285L8.407142857142858,4.55L8.192857142857143,4.55L8.192857142857143,4.764285714285714L7.978571428571428,4.764285714285714L7.978571428571428,5.407142857142857L5.192857142857142,5.407142857142857L5.192857142857142,9.164285714285715L5.407142857142857,9.164285714285715L5.407142857142857,9.807142857142857L5.621428571428571,9.807142857142857L5.621428571428571,10.45z" stroke="none"/><path d="M8.95,3L9.05,3L9.05,3.2642857142857142L8.62142857142857,3.2642857142857142L8.62142857142857,3.6928571428571426L8.192857142857143,3.6928571428571426L8.192857142857143,3.907142857142857L7.764285714285714,3.907142857142857L7.764285714285714,4.121428571428571L7.55,4.121428571428571L7.55,4.335714285714285L7.335714285714285,4.335714285714285L7.335714285714285,4.55L7.121428571428571,4.55L7.121428571428571,4.764285714285714L6.907142857142857,4.764285714285714L6.907142857142857,4.978571428571429L5.407142857142857,4.978571428571429L5.407142857142857,5.192857142857142L4.978571428571429,5.192857142857142L4.978571428571429,7.55L4.5,7.55L4.5,7.45L4.878571428571429,7.45L4.878571428571429,5.0928571428571425L5.307142857142857,5.0928571428571425L5.307142857142857,4.878571428571429L6.807142857142857,4.878571428571429L6.807142857142857,4.664285714285715L7.021428571428571,4.664285714285715L7.021428571428571,4.45L7.235714285714286,4.45L7.235714285714286,4.235714285714286L7.45,4.235714285714286L7.45,4.021428571428571L7.664285714285715,4.021428571428571L7.664285714285715,3.8071428571428574L8.092857142857142,3.8071428571428574L8.092857142857142,3.592857142857143L8.521428571428569,3.592857142857143L8.521428571428569,3.1642857142857146L8.95,3.1642857142857146z" stroke="none"/><path d="M22.5,10.45L22.5,10.55L19.978571428571428,10.55L19.978571428571428,10.978571428571428L17.621428571428574,10.978571428571428L17.621428571428574,11.192857142857143L17.192857142857143,11.192857142857143L17.192857142857143,11.407142857142858L16.978571428571428,11.407142857142858L16.978571428571428,11.835714285714285L15.692857142857143,11.835714285714285L15.692857142857143,12.264285714285716L15.478571428571428,12.264285714285716L15.478571428571428,12.478571428571428L13.878571428571426,12.478571428571428L13.878571428571426,12.264285714285716L13.664285714285715,12.264285714285716L13.664285714285715,12.05L13.5,12.05L13.5,11.95L13.764285714285716,11.95L13.764285714285716,12.164285714285715L13.978571428571428,12.164285714285715L13.978571428571428,12.378571428571426L15.378571428571426,12.378571428571426L15.378571428571426,12.164285714285715L15.592857142857142,12.164285714285715L15.592857142857142,11.735714285714284L16.878571428571426,11.735714285714284L16.878571428571426,11.307142857142857L17.09285714285714,11.307142857142857L17.09285714285714,11.092857142857142L17.521428571428572,11.092857142857142L17.521428571428572,10.878571428571426L19.878571428571426,10.878571428571426L19.878571428571426,10.45z" stroke="none"/><path d="M15,10.55L15,10.45L16.02142857142857,10.45L16.02142857142857,10.021428571428569L18.59285714285714,10.021428571428569L18.59285714285714,9.807142857142857L18.807142857142857,9.807142857142857L18.807142857142857,9.378571428571426L19.45,9.378571428571426L19.45,8.95L19.878571428571426,8.95L19.878571428571426,8.735714285714284L20.09285714285714,8.735714285714284L20.09285714285714,8.521428571428569L20.307142857142857,8.521428571428569L20.307142857142857,7.878571428571428L21.59285714285714,7.878571428571428L21.59285714285714,7.664285714285715L22.021428571428572,7.664285714285715L22.021428571428572,7.021428571428571L22.978571428571428,7.021428571428571L22.978571428571428,8.192857142857143L22.764285714285716,8.192857142857143L22.764285714285716,8.407142857142858L22.55,8.407142857142858L22.55,8.62142857142857L22.121428571428574,8.62142857142857L22.121428571428574,9.378571428571426L22.335714285714285,9.378571428571426L22.335714285714285,9.592857142857142L23.62142857142857,9.592857142857142L23.62142857142857,9.807142857142857L23.835714285714285,9.807142857142857L23.835714285714285,10.021428571428569L24.478571428571428,10.021428571428569L24.478571428571428,10.45L24.692857142857143,10.45L24.692857142857143,10.664285714285715L24.90714285714286,10.664285714285715L24.90714285714286,10.878571428571426L25.335714285714285,10.878571428571426L25.335714285714285,11.092857142857142L25.764285714285716,11.092857142857142L25.764285714285716,11.307142857142857L25.978571428571428,11.307142857142857L25.978571428571428,12.478571428571428L24.378571428571426,12.478571428571428L24.378571428571426,12.05L24,12.05L24,11.95L24.478571428571428,11.95L24.478571428571428,12.378571428571426L25.878571428571426,12.378571428571426L25.878571428571426,11.407142857142858L25.664285714285715,11.407142857142858L25.664285714285715,11.192857142857143L25.235714285714284,11.192857142857143L25.235714285714284,10.978571428571428L24.807142857142857,10.978571428571428L24.807142857142857,10.764285714285716L24.59285714285714,10.764285714285716L24.59285714285714,10.55L24.378571428571426,10.55L24.378571428571426,10.12142857142857L23.735714285714284,10.12142857142857L23.735714285714284,9.907142857142858L23.52142857142857,9.907142857142858L23.52142857142857,9.692857142857143L22.235714285714284,9.692857142857143L22.235714285714284,9.478571428571428L22.021428571428572,9.478571428571428L22.021428571428572,8.521428571428569L22.45,8.521428571428569L22.45,8.307142857142857L22.664285714285715,8.307142857142857L22.664285714285715,8.092857142857142L22.878571428571426,8.092857142857142L22.878571428571426,7.121428571428571L22.121428571428574,7.121428571428571L22.121428571428574,7.764285714285714L21.692857142857143,7.764285714285714L21.692857142857143,7.978571428571428L20.40714285714286,7.978571428571428L20.40714285714286,8.62142857142857L20.192857142857143,8.62142857142857L20.192857142857143,8.835714285714285L19.978571428571428,8.835714285714285L19.978571428571428,9.05L19.55,9.05L19.55,9.478571428571428L18.90714285714286,9.478571428571428L18.90714285714286,9.907142857142858L18.692857142857143,9.907142857142858L18.692857142857143,10.12142857142857L16.12142857142857,10.12142857142857L16.12142857142857,10.55z" stroke="none"/><path d="M27,5.95L27,6.05L24.90714285714286,6.05L24.90714285714286,6.264285714285714L24.478571428571428,6.264285714285714L24.478571428571428,6.478571428571428L22.878571428571426,6.478571428571428L22.878571428571426,5.621428571428571L18.807142857142857,5.621428571428571L18.807142857142857,5.407142857142857L18.59285714285714,5.407142857142857L18.59285714285714,4.55L17.735714285714284,4.55L17.735714285714284,4.335714285714285L16.878571428571426,4.335714285714285L16.878571428571426,4.121428571428571L16.12142857142857,4.121428571428571L16.12142857142857,5.735714285714286L16.55,5.735714285714286L16.55,6L16.45,6L16.45,5.835714285714285L16.02142857142857,5.835714285714285L16.02142857142857,4.021428571428571L16.978571428571428,4.021428571428571L16.978571428571428,4.235714285714286L17.835714285714285,4.235714285714286L17.835714285714285,4.45L18.692857142857143,4.45L18.692857142857143,5.307142857142857L18.90714285714286,5.307142857142857L18.90714285714286,5.521428571428571L22.978571428571428,5.521428571428571L22.978571428571428,6.378571428571428L24.378571428571426,6.378571428571428L24.378571428571426,6.164285714285715L24.807142857142857,6.164285714285715L24.807142857142857,5.95z" stroke="none"/><path d="M27.05,12L26.95,12L26.95,10.878571428571426L27.378571428571426,10.878571428571426L27.378571428571426,5.621428571428571L25.45,5.621428571428571L25.45,5.407142857142857L25.235714285714284,5.407142857142857L25.235714285714284,5.192857142857142L25.02142857142857,5.192857142857142L25.02142857142857,4.978571428571429L22.878571428571426,4.978571428571429L22.878571428571426,4.121428571428571L21.692857142857143,4.121428571428571L21.692857142857143,4.335714285714285L21.478571428571428,4.335714285714285L21.478571428571428,4.978571428571429L19.235714285714284,4.978571428571429L19.235714285714284,4.55L19.021428571428572,4.55L19.021428571428572,4.335714285714285L17.95,4.335714285714285L17.95,4.121428571428571L17.307142857142857,4.121428571428571L17.307142857142857,3.907142857142857L15.907142857142858,3.907142857142857L15.907142857142858,6.164285714285715L16.12142857142857,6.164285714285715L16.12142857142857,6.378571428571428L17.621428571428574,6.378571428571428L17.621428571428574,6.5928571428571425L20.192857142857143,6.5928571428571425L20.192857142857143,8.407142857142858L19.55,8.407142857142858L19.55,8.62142857142857L19.335714285714285,8.62142857142857L19.335714285714285,9.05L15.692857142857143,9.05L15.692857142857143,9.478571428571428L15.05,9.478571428571428L15.05,9.907142857142858L14.62142857142857,9.907142857142858L14.62142857142857,10.878571428571426L15.592857142857142,10.878571428571426L15.592857142857142,10.664285714285715L16.235714285714284,10.664285714285715L16.235714285714284,10.45L16.5,10.45L16.5,10.55L16.335714285714285,10.55L16.335714285714285,10.764285714285716L15.692857142857143,10.764285714285716L15.692857142857143,10.978571428571428L14.521428571428569,10.978571428571428L14.521428571428569,9.807142857142857L14.95,9.807142857142857L14.95,9.378571428571426L15.592857142857142,9.378571428571426L15.592857142857142,8.95L19.235714285714284,8.95L19.235714285714284,8.521428571428569L19.45,8.521428571428569L19.45,8.307142857142857L20.09285714285714,8.307142857142857L20.09285714285714,6.692857142857142L17.521428571428572,6.692857142857142L17.521428571428572,6.478571428571428L16.02142857142857,6.478571428571428L16.02142857142857,6.264285714285714L15.807142857142857,6.264285714285714L15.807142857142857,3.8071428571428574L17.40714285714286,3.8071428571428574L17.40714285714286,4.021428571428571L18.05,4.021428571428571L18.05,4.235714285714286L19.121428571428574,4.235714285714286L19.121428571428574,4.45L19.335714285714285,4.45L19.335714285714285,4.878571428571429L21.378571428571426,4.878571428571429L21.378571428571426,4.235714285714286L21.59285714285714,4.235714285714286L21.59285714285714,4.021428571428571L22.978571428571428,4.021428571428571L22.978571428571428,4.878571428571429L25.12142857142857,4.878571428571429L25.12142857142857,5.0928571428571425L25.335714285714285,5.0928571428571425L25.335714285714285,5.307142857142857L25.55,5.307142857142857L25.55,5.521428571428571L27.478571428571428,5.521428571428571L27.478571428571428,10.978571428571428L27.05,10.978571428571428z" stroke="none"/><path d="M25.5,10.55L25.5,10.45L25.978571428571428,10.45L25.978571428571428,11.092857142857142L26.192857142857143,11.092857142857142L26.192857142857143,11.307142857142857L26.40714285714286,11.307142857142857L26.40714285714286,11.95L26.62142857142857,11.95L26.62142857142857,12.378571428571426L27.378571428571426,12.378571428571426L27.378571428571426,11.95L27.59285714285714,11.95L27.59285714285714,5.407142857142857L27.378571428571426,5.407142857142857L27.378571428571426,5.192857142857142L27.164285714285715,5.192857142857142L27.164285714285715,4.978571428571429L26.95,4.978571428571429L26.95,4.764285714285714L26.52142857142857,4.764285714285714L26.52142857142857,4.55L26.307142857142857,4.55L26.307142857142857,4.335714285714285L25.878571428571426,4.335714285714285L25.878571428571426,3.907142857142857L25.664285714285715,3.907142857142857L25.664285714285715,3.6928571428571426L25.45,3.6928571428571426L25.45,3.05L24.807142857142857,3.05L24.807142857142857,2.6214285714285714L18.05,2.6214285714285714L18.05,3.05L17.40714285714286,3.05L17.40714285714286,3.478571428571428L15.05,3.478571428571428L15.05,3.907142857142857L14.62142857142857,3.907142857142857L14.62142857142857,5.0928571428571425L14.835714285714285,5.0928571428571425L14.835714285714285,5.521428571428571L15.05,5.521428571428571L15.05,6L14.95,6L14.95,5.621428571428571L14.735714285714284,5.621428571428571L14.735714285714284,5.192857142857142L14.521428571428569,5.192857142857142L14.521428571428569,3.8071428571428574L14.95,3.8071428571428574L14.95,3.3785714285714286L17.307142857142857,3.3785714285714286L17.307142857142857,2.95L17.95,2.95L17.95,2.521428571428572L24.90714285714286,2.521428571428572L24.90714285714286,2.95L25.55,2.95L25.55,3.592857142857143L25.764285714285716,3.592857142857143L25.764285714285716,3.8071428571428574L25.978571428571428,3.8071428571428574L25.978571428571428,4.235714285714286L26.40714285714286,4.235714285714286L26.40714285714286,4.45L26.62142857142857,4.45L26.62142857142857,4.664285714285715L27.05,4.664285714285715L27.05,4.878571428571429L27.264285714285716,4.878571428571429L27.264285714285716,5.0928571428571425L27.478571428571428,5.0928571428571425L27.478571428571428,5.307142857142857L27.692857142857143,5.307142857142857L27.692857142857143,12.05L27.478571428571428,12.05L27.478571428571428,12.478571428571428L26.52142857142857,12.478571428571428L26.52142857142857,12.05L26.307142857142857,12.05L26.307142857142857,11.407142857142858L26.09285714285714,11.407142857142858L26.09285714285714,11.192857142857143L25.878571428571426,11.192857142857143L25.878571428571426,10.55z" stroke="none"/><path d="M18,7.45L18,7.55L17.835714285714285,7.55L17.835714285714285,7.764285714285714L14.835714285714285,7.764285714285714L14.835714285714285,7.978571428571428L13.021428571428569,7.978571428571428L13.021428571428569,1.9785714285714286L8.62142857142857,1.9785714285714286L8.62142857142857,3.05L7.764285714285714,3.05L7.764285714285714,3.2642857142857142L7.121428571428571,3.2642857142857142L7.121428571428571,3.907142857142857L6.907142857142857,3.907142857142857L6.907142857142857,4.335714285714285L6.05,4.335714285714285L6.05,4.5L5.95,4.5L5.95,4.235714285714286L6.807142857142857,4.235714285714286L6.807142857142857,3.8071428571428574L7.021428571428571,3.8071428571428574L7.021428571428571,3.1642857142857146L7.664285714285715,3.1642857142857146L7.664285714285715,2.95L8.521428571428569,2.95L8.521428571428569,1.8785714285714286L13.12142857142857,1.8785714285714286L13.12142857142857,7.878571428571428L14.735714285714284,7.878571428571428L14.735714285714284,7.664285714285715L17.735714285714284,7.664285714285715L17.735714285714284,7.45z" stroke="none"/></svg>