<svg version="1.1" width="30" height="15" xmlns="http://www.w3.org/2000/svg"><path d="M23.40714285714286,6.378571428571428L23.40714285714286,6.5928571428571425L24.05,6.5928571428571425L24.05,6.807142857142857L24.478571428571428,6.807142857142857L24.478571428571428,7.45L24.692857142857143,7.45L24.692857142857143,7.664285714285715L24.90714285714286,7.664285714285715L24.90714285714286,7.878571428571428L25.878571428571426,7.878571428571428L25.878571428571426,7.235714285714286L26.09285714285714,7.235714285714286L26.09285714285714,6.378571428571428L26.307142857142857,6.378571428571428L26.307142857142857,5.307142857142857L26.735714285714284,5.307142857142857L26.735714285714284,4.45L27,4.45L27,4.55L26.835714285714285,4.55L26.835714285714285,5.407142857142857L26.40714285714286,5.407142857142857L26.40714285714286,6.478571428571428L26.192857142857143,6.478571428571428L26.192857142857143,7.335714285714285L25.978571428571428,7.335714285714285L25.978571428571428,7.978571428571428L24.807142857142857,7.978571428571428L24.807142857142857,7.764285714285714L24.59285714285714,7.764285714285714L24.59285714285714,7.55L24.378571428571426,7.55L24.378571428571426,6.907142857142857L23.95,6.907142857142857L23.95,6.692857142857142L23.307142857142857,6.692857142857142L23.307142857142857,6.478571428571428L21.478571428571428,6.478571428571428L21.478571428571428,8.62142857142857L21.05,8.62142857142857L21.05,9L20.95,9L20.95,8.521428571428569L21.378571428571426,8.521428571428569L21.378571428571426,6.478571428571428L20.835714285714285,6.478571428571428L20.835714285714285,6.907142857142857L20.621428571428574,6.907142857142857L20.621428571428574,7.121428571428571L20.40714285714286,7.121428571428571L20.40714285714286,7.55L20.192857142857143,7.55L20.192857142857143,7.764285714285714L19.978571428571428,7.764285714285714L19.978571428571428,7.978571428571428L16.02142857142857,7.978571428571428L16.02142857142857,6.164285714285715L16.235714285714284,6.164285714285715L16.235714285714284,5.95L16.5,5.95L16.5,6.05L16.335714285714285,6.05L16.335714285714285,6.264285714285714L16.12142857142857,6.264285714285714L16.12142857142857,7.878571428571428L19.878571428571426,7.878571428571428L19.878571428571426,7.664285714285715L20.09285714285714,7.664285714285715L20.09285714285714,7.45L20.307142857142857,7.45L20.307142857142857,7.021428571428571L20.521428571428572,7.021428571428571L20.521428571428572,6.807142857142857L20.735714285714284,6.807142857142857L20.735714285714284,6.378571428571428z" stroke="none"/><path d="M22.45,5.95L22.45,3L22.55,3L22.55,5.95L23.40714285714286,5.95L23.40714285714286,6.164285714285715L23.62142857142857,6.164285714285715L23.62142857142857,6.378571428571428L24.478571428571428,6.378571428571428L24.478571428571428,6.5928571428571425L24.692857142857143,6.5928571428571425L24.692857142857143,7.021428571428571L25.12142857142857,7.021428571428571L25.12142857142857,7.45L25.5,7.45L25.5,7.55L25.02142857142857,7.55L25.02142857142857,7.121428571428571L24.59285714285714,7.121428571428571L24.59285714285714,6.692857142857142L24.378571428571426,6.692857142857142L24.378571428571426,6.478571428571428L23.52142857142857,6.478571428571428L23.52142857142857,6.264285714285714L23.307142857142857,6.264285714285714L23.307142857142857,6.05L22.335714285714285,6.05L22.335714285714285,6.264285714285714L20.40714285714286,6.264285714285714L20.40714285714286,6.692857142857142L20.192857142857143,6.692857142857142L20.192857142857143,6.907142857142857L19.978571428571428,6.907142857142857L19.978571428571428,7.121428571428571L19.764285714285716,7.121428571428571L19.764285714285716,7.55L19.5,7.55L19.5,7.45L19.664285714285715,7.45L19.664285714285715,7.021428571428571L19.878571428571426,7.021428571428571L19.878571428571426,6.807142857142857L20.09285714285714,6.807142857142857L20.09285714285714,6.5928571428571425L20.307142857142857,6.5928571428571425L20.307142857142857,6.164285714285715L22.235714285714284,6.164285714285715L22.235714285714284,5.95z" stroke="none"/><path d="M18.807142857142857,3.478571428571428L17.09285714285714,3.478571428571428L17.09285714285714,3.2642857142857142L16.45,3.2642857142857142L16.45,3L16.55,3L16.55,3.1642857142857146L17.192857142857143,3.1642857142857146L17.192857142857143,3.3785714285714286L18.90714285714286,3.3785714285714286L18.90714285714286,4.878571428571429L20.735714285714284,4.878571428571429L20.735714285714284,4.664285714285715L21.164285714285715,4.664285714285715L21.164285714285715,4.45L21.59285714285714,4.45L21.59285714285714,3.592857142857143L21.807142857142857,3.592857142857143L21.807142857142857,3.1642857142857146L22.021428571428572,3.1642857142857146L22.021428571428572,2.521428571428572L22.978571428571428,2.521428571428572L22.978571428571428,4.235714285714286L23.40714285714286,4.235714285714286L23.40714285714286,4.45L24,4.45L24,4.55L23.307142857142857,4.55L23.307142857142857,4.335714285714285L22.878571428571426,4.335714285714285L22.878571428571426,2.6214285714285714L22.121428571428574,2.6214285714285714L22.121428571428574,3.2642857142857142L21.90714285714286,3.2642857142857142L21.90714285714286,3.6928571428571426L21.692857142857143,3.6928571428571426L21.692857142857143,4.55L21.264285714285716,4.55L21.264285714285716,4.764285714285714L20.835714285714285,4.764285714285714L20.835714285714285,4.978571428571429L18.90714285714286,4.978571428571429L18.90714285714286,6.478571428571428L18.05,6.478571428571428L18.05,6.907142857142857L17.835714285714285,6.907142857142857L17.835714285714285,7.121428571428571L16.764285714285716,7.121428571428571L16.764285714285716,7.55L16.5,7.55L16.5,7.45L16.664285714285715,7.45L16.664285714285715,7.021428571428571L17.735714285714284,7.021428571428571L17.735714285714284,6.807142857142857L17.95,6.807142857142857L17.95,6.378571428571428L18.807142857142857,6.378571428571428z" stroke="none"/><path d="M20.09285714285714,3.592857142857143L20.09285714285714,2.95L20.307142857142857,2.95L20.307142857142857,2.7357142857142858L21.59285714285714,2.7357142857142858L21.59285714285714,2.3071428571428574L24.264285714285716,2.3071428571428574L24.264285714285716,2.521428571428572L24.478571428571428,2.521428571428572L24.478571428571428,2.7357142857142858L24.692857142857143,2.7357142857142858L24.692857142857143,3.3785714285714286L24.90714285714286,3.3785714285714286L24.90714285714286,3.592857142857143L25.12142857142857,3.592857142857143L25.12142857142857,4.021428571428571L25.335714285714285,4.021428571428571L25.335714285714285,4.235714285714286L25.55,4.235714285714286L25.55,4.5L25.45,4.5L25.45,4.335714285714285L25.235714285714284,4.335714285714285L25.235714285714284,4.121428571428571L25.02142857142857,4.121428571428571L25.02142857142857,3.6928571428571426L24.807142857142857,3.6928571428571426L24.807142857142857,3.478571428571428L24.59285714285714,3.478571428571428L24.59285714285714,2.8357142857142854L24.378571428571426,2.8357142857142854L24.378571428571426,2.6214285714285714L24.164285714285715,2.6214285714285714L24.164285714285715,2.407142857142857L21.692857142857143,2.407142857142857L21.692857142857143,2.8357142857142854L20.40714285714286,2.8357142857142854L20.40714285714286,3.05L20.192857142857143,3.05L20.192857142857143,3.592857142857143L20.307142857142857,3.592857142857143L20.307142857142857,3.1642857142857146L20.521428571428572,3.1642857142857146L20.521428571428572,2.95L21,2.95L21,3.05L20.621428571428574,3.05L20.621428571428574,3.2642857142857142L20.40714285714286,3.2642857142857142L20.40714285714286,3.6928571428571426L20.192857142857143,3.6928571428571426L20.192857142857143,3.907142857142857L19.764285714285716,3.907142857142857L19.764285714285716,4.121428571428571L19.55,4.121428571428571L19.55,4.5L19.45,4.5L19.45,4.021428571428571L19.664285714285715,4.021428571428571L19.664285714285715,3.8071428571428574L20.09285714285714,3.8071428571428574L20.09285714285714,3.6928571428571426L19.235714285714284,3.6928571428571426L19.235714285714284,3.478571428571428L19.021428571428572,3.478571428571428L19.021428571428572,3.2642857142857142L17.521428571428572,3.2642857142857142L17.521428571428572,3.05L16.878571428571426,3.05L16.878571428571426,2.6214285714285714L15.264285714285716,2.6214285714285714L15.264285714285716,2.8357142857142854L15.05,2.8357142857142854L15.05,3L14.95,3L14.95,2.7357142857142858L15.164285714285715,2.7357142857142858L15.164285714285715,2.521428571428572L16.978571428571428,2.521428571428572L16.978571428571428,2.95L17.621428571428574,2.95L17.621428571428574,3.1642857142857146L19.121428571428574,3.1642857142857146L19.121428571428574,3.3785714285714286L19.335714285714285,3.3785714285714286L19.335714285714285,3.592857142857143z" stroke="none"/><path d="M13.664285714285715,8.95L13.664285714285715,8.735714285714284L16.764285714285716,8.735714285714284L16.764285714285716,10.335714285714285L16.55,10.335714285714285L16.55,10.5L16.45,10.5L16.45,10.235714285714284L16.664285714285715,10.235714285714284L16.664285714285715,8.835714285714285L13.764285714285716,8.835714285714285L13.764285714285716,8.95L16.5,8.95L16.5,9.05L13.764285714285716,9.05L13.764285714285716,10.55L13.5,10.55L13.5,10.45L13.664285714285715,10.45L13.664285714285715,9.05L13.45,9.05L13.45,8.092857142857142L13.664285714285715,8.092857142857142L13.664285714285715,7.235714285714286L13.878571428571426,7.235714285714286L13.878571428571426,7.021428571428571L14.521428571428569,7.021428571428571L14.521428571428569,6.5928571428571425L14.95,6.5928571428571425L14.95,6.378571428571428L15.378571428571426,6.378571428571428L15.378571428571426,5.621428571428571L9.478571428571428,5.621428571428571L9.478571428571428,6.05L9,6.05L9,5.95L9.378571428571426,5.95L9.378571428571426,5.521428571428571L15.478571428571428,5.521428571428571L15.478571428571428,6.478571428571428L15.05,6.478571428571428L15.05,6.692857142857142L14.62142857142857,6.692857142857142L14.62142857142857,7.121428571428571L13.978571428571428,7.121428571428571L13.978571428571428,7.335714285714285L13.764285714285716,7.335714285714285L13.764285714285716,8.192857142857143L13.55,8.192857142857143L13.55,8.95z" stroke="none"/><path d="M10.45,8.092857142857142L10.45,7.978571428571428L5.0928571428571425,7.978571428571428L5.0928571428571425,7.55L4.5,7.55L4.5,7.45L5.192857142857142,7.45L5.192857142857142,7.878571428571428L10.55,7.878571428571428L10.55,8.092857142857142L11.307142857142857,8.092857142857142L11.307142857142857,7.45L11.735714285714284,7.45L11.735714285714284,7.235714285714286L13.45,7.235714285714286L13.45,7.021428571428571L13.664285714285715,7.021428571428571L13.664285714285715,6.807142857142857L13.878571428571426,6.807142857142857L13.878571428571426,6.5928571428571425L14.092857142857142,6.5928571428571425L14.092857142857142,6.378571428571428L14.735714285714284,6.378571428571428L14.735714285714284,6.164285714285715L14.95,6.164285714285715L14.95,6L15.05,6L15.05,6.264285714285714L14.835714285714285,6.264285714285714L14.835714285714285,6.478571428571428L14.192857142857143,6.478571428571428L14.192857142857143,6.692857142857142L13.978571428571428,6.692857142857142L13.978571428571428,6.907142857142857L13.764285714285716,6.907142857142857L13.764285714285716,7.121428571428571L13.55,7.121428571428571L13.55,7.335714285714285L11.835714285714285,7.335714285714285L11.835714285714285,7.55L11.407142857142858,7.55L11.407142857142858,8.192857142857143L10.55,8.192857142857143L10.55,8.307142857142857L12.05,8.307142857142857L12.05,8.521428571428569L12.478571428571428,8.521428571428569L12.478571428571428,9.592857142857142L12.692857142857143,9.592857142857142L12.692857142857143,10.45L13.12142857142857,10.45L13.12142857142857,10.878571428571426L14.307142857142857,10.878571428571426L14.307142857142857,10.664285714285715L14.735714285714284,10.664285714285715L14.735714285714284,10.45L15,10.45L15,10.55L14.835714285714285,10.55L14.835714285714285,10.764285714285716L14.407142857142858,10.764285714285716L14.407142857142858,10.978571428571428L13.021428571428569,10.978571428571428L13.021428571428569,10.55L12.592857142857142,10.55L12.592857142857142,9.692857142857143L12.378571428571426,9.692857142857143L12.378571428571426,8.62142857142857L11.95,8.62142857142857L11.95,8.407142857142858L10.45,8.407142857142858L10.45,8.192857142857143L7.55,8.192857142857143L7.55,9L7.45,9L7.45,8.092857142857142z" stroke="none"/><path d="M13.5,4.45L13.5,4.55L12,4.55L12,4.45z" stroke="none"/><path d="M10.5,10.55L10.5,10.45L12,10.45L12,10.55z" stroke="none"/><path d="M9.05,10.5L8.95,10.5L8.95,9L9.05,9z" stroke="none"/><path d="M22.45,10.5L22.55,10.5L22.55,11.192857142857143L21.264285714285716,11.192857142857143L21.264285714285716,11.835714285714285L21.05,11.835714285714285L21.05,12L20.95,12L20.95,11.735714285714284L21.164285714285715,11.735714285714284L21.164285714285715,11.092857142857142L22.45,11.092857142857142z" stroke="none"/><path d="M3,3.05L3,2.95L3.8071428571428574,2.95L3.8071428571428574,2.7357142857142858L4.021428571428571,2.7357142857142858L4.021428571428571,2.521428571428572L6.05,2.521428571428572L6.05,3L5.95,3L5.95,2.6214285714285714L4.121428571428571,2.6214285714285714L4.121428571428571,2.8357142857142854L3.907142857142857,2.8357142857142854L3.907142857142857,3.05z" stroke="none"/><path d="M3,12.05L3,11.95L6,11.95L6,12.05z" stroke="none"/><path d="M23.95,3L24.05,3L24.05,3.3785714285714286L24.264285714285716,3.3785714285714286L24.264285714285716,4.021428571428571L24.478571428571428,4.021428571428571L24.478571428571428,4.235714285714286L25.12142857142857,4.235714285714286L25.12142857142857,4.878571428571429L25.878571428571426,4.878571428571429L25.878571428571426,3.6928571428571426L25.664285714285715,3.6928571428571426L25.664285714285715,3.478571428571428L25.02142857142857,3.478571428571428L25.02142857142857,3.05L24.807142857142857,3.05L24.807142857142857,2.6214285714285714L24.59285714285714,2.6214285714285714L24.59285714285714,2.407142857142857L24.378571428571426,2.407142857142857L24.378571428571426,2.1928571428571426L20.192857142857143,2.1928571428571426L20.192857142857143,2.8357142857142854L19.764285714285716,2.8357142857142854L19.764285714285716,3.05L19.5,3.05L19.5,2.95L19.664285714285715,2.95L19.664285714285715,2.7357142857142858L20.09285714285714,2.7357142857142858L20.09285714285714,2.092857142857143L24.478571428571428,2.092857142857143L24.478571428571428,2.3071428571428574L24.692857142857143,2.3071428571428574L24.692857142857143,2.521428571428572L24.90714285714286,2.521428571428572L24.90714285714286,2.95L25.12142857142857,2.95L25.12142857142857,3.3785714285714286L25.764285714285716,3.3785714285714286L25.764285714285716,3.592857142857143L25.978571428571428,3.592857142857143L25.978571428571428,4.978571428571429L25.02142857142857,4.978571428571429L25.02142857142857,4.335714285714285L24.378571428571426,4.335714285714285L24.378571428571426,4.121428571428571L24.164285714285715,4.121428571428571L24.164285714285715,3.478571428571428L23.95,3.478571428571428z" stroke="none"/><path d="M23.95,7.5L24.05,7.5L24.05,10.764285714285716L23.835714285714285,10.764285714285716L23.835714285714285,11.407142857142858L23.62142857142857,11.407142857142858L23.62142857142857,11.62142857142857L23.40714285714286,11.62142857142857L23.40714285714286,11.835714285714285L22.978571428571428,11.835714285714285L22.978571428571428,12.05L22.5,12.05L22.5,11.95L22.878571428571426,11.95L22.878571428571426,11.735714285714284L23.307142857142857,11.735714285714284L23.307142857142857,11.521428571428569L23.52142857142857,11.521428571428569L23.52142857142857,11.307142857142857L23.735714285714284,11.307142857142857L23.735714285714284,10.664285714285715L23.95,10.664285714285715z" stroke="none"/><path d="M23.95,12L24.05,12L24.05,12.264285714285716L23.40714285714286,12.264285714285716L23.40714285714286,12.478571428571428L20.521428571428572,12.478571428571428L20.521428571428572,10.764285714285716L19.664285714285715,10.764285714285716L19.664285714285715,10.55L19.5,10.55L19.5,10.45L19.764285714285716,10.45L19.764285714285716,10.664285714285715L20.621428571428574,10.664285714285715L20.621428571428574,12.378571428571426L23.307142857142857,12.378571428571426L23.307142857142857,12.164285714285715L23.95,12.164285714285715z" stroke="none"/><path d="M15,4.45L15,4.55L14.092857142857142,4.55L14.092857142857142,4.121428571428571L11.521428571428569,4.121428571428571L11.521428571428569,3.2642857142857142L10.664285714285715,3.2642857142857142L10.664285714285715,3.05L10.5,3.05L10.5,2.95L10.764285714285716,2.95L10.764285714285716,3.1642857142857146L11.62142857142857,3.1642857142857146L11.62142857142857,4.021428571428571L14.192857142857143,4.021428571428571L14.192857142857143,4.45z" stroke="none"/><path d="M8.95,3L9.05,3L9.05,5.621428571428571L8.62142857142857,5.621428571428571L8.62142857142857,6.478571428571428L7.55,6.478571428571428L7.55,6.692857142857142L7.335714285714285,6.692857142857142L7.335714285714285,6.907142857142857L7.121428571428571,6.907142857142857L7.121428571428571,7.121428571428571L6.907142857142857,7.121428571428571L6.907142857142857,7.335714285714285L6.05,7.335714285714285L6.05,7.5L5.95,7.5L5.95,7.235714285714286L6.807142857142857,7.235714285714286L6.807142857142857,7.021428571428571L7.021428571428571,7.021428571428571L7.021428571428571,6.807142857142857L7.235714285714286,6.807142857142857L7.235714285714286,6.5928571428571425L7.45,6.5928571428571425L7.45,6.378571428571428L8.521428571428569,6.378571428571428L8.521428571428569,5.521428571428571L8.95,5.521428571428571z" stroke="none"/><path d="M5.95,4.5L6.05,4.5L6.05,5.192857142857142L5.835714285714285,5.192857142857142L5.835714285714285,5.407142857142857L5.621428571428571,5.407142857142857L5.621428571428571,6.05L5.192857142857142,6.05L5.192857142857142,6.264285714285714L4.978571428571429,6.264285714285714L4.978571428571429,6.478571428571428L4.335714285714285,6.478571428571428L4.335714285714285,6.692857142857142L4.121428571428571,6.692857142857142L4.121428571428571,8.192857142857143L3.6928571428571426,8.192857142857143L3.6928571428571426,8.407142857142858L3.2642857142857142,8.407142857142858L3.2642857142857142,9.05L3,9.05L3,8.95L3.1642857142857146,8.95L3.1642857142857146,8.307142857142857L3.592857142857143,8.307142857142857L3.592857142857143,8.092857142857142L4.021428571428571,8.092857142857142L4.021428571428571,6.5928571428571425L4.235714285714286,6.5928571428571425L4.235714285714286,6.378571428571428L4.878571428571429,6.378571428571428L4.878571428571429,6.164285714285715L5.0928571428571425,6.164285714285715L5.0928571428571425,5.95L5.521428571428571,5.95L5.521428571428571,5.307142857142857L5.735714285714286,5.307142857142857L5.735714285714286,5.0928571428571425L5.95,5.0928571428571425z" stroke="none"/><path d="M19.45,9L19.55,9L19.55,9.692857142857143L19.335714285714285,9.692857142857143L19.335714285714285,10.12142857142857L19.121428571428574,10.12142857142857L19.121428571428574,10.878571428571426L19.764285714285716,10.878571428571426L19.764285714285716,11.307142857142857L19.978571428571428,11.307142857142857L19.978571428571428,12.164285714285715L20.192857142857143,12.164285714285715L20.192857142857143,12.378571428571426L20.40714285714286,12.378571428571426L20.40714285714286,12.592857142857142L24.164285714285715,12.592857142857142L24.164285714285715,12.378571428571426L24.378571428571426,12.378571428571426L24.378571428571426,8.95L25.02142857142857,8.95L25.02142857142857,8.521428571428569L25.878571428571426,8.521428571428569L25.878571428571426,8.307142857142857L26.09285714285714,8.307142857142857L26.09285714285714,7.45L26.307142857142857,7.45L26.307142857142857,6.807142857142857L26.52142857142857,6.807142857142857L26.52142857142857,5.95L26.735714285714284,5.95L26.735714285714284,5.521428571428571L26.95,5.521428571428571L26.95,4.878571428571429L27.378571428571426,4.878571428571429L27.378571428571426,4.121428571428571L26.62142857142857,4.121428571428571L26.62142857142857,5.192857142857142L24.478571428571428,5.192857142857142L24.478571428571428,5.621428571428571L24.05,5.621428571428571L24.05,6L23.95,6L23.95,5.521428571428571L24.378571428571426,5.521428571428571L24.378571428571426,5.0928571428571425L26.52142857142857,5.0928571428571425L26.52142857142857,4.021428571428571L27.478571428571428,4.021428571428571L27.478571428571428,4.978571428571429L27.05,4.978571428571429L27.05,5.621428571428571L26.835714285714285,5.621428571428571L26.835714285714285,6.05L26.62142857142857,6.05L26.62142857142857,6.907142857142857L26.40714285714286,6.907142857142857L26.40714285714286,7.55L26.192857142857143,7.55L26.192857142857143,8.407142857142858L25.978571428571428,8.407142857142858L25.978571428571428,8.62142857142857L25.12142857142857,8.62142857142857L25.12142857142857,9.05L24.478571428571428,9.05L24.478571428571428,12.478571428571428L24.264285714285716,12.478571428571428L24.264285714285716,12.692857142857143L20.307142857142857,12.692857142857143L20.307142857142857,12.478571428571428L20.09285714285714,12.478571428571428L20.09285714285714,12.264285714285716L19.878571428571426,12.264285714285716L19.878571428571426,11.407142857142858L19.664285714285715,11.407142857142858L19.664285714285715,10.978571428571428L19.021428571428572,10.978571428571428L19.021428571428572,10.021428571428569L19.235714285714284,10.021428571428569L19.235714285714284,9.592857142857142L19.45,9.592857142857142z" stroke="none"/><path d="M9,11.95L9,12.05L6.5928571428571425,12.05L6.5928571428571425,11.835714285714285L6.378571428571428,11.835714285714285L6.378571428571428,11.62142857142857L4.664285714285715,11.62142857142857L4.664285714285715,11.407142857142858L3.3785714285714286,11.407142857142858L3.3785714285714286,10.978571428571428L3.1642857142857146,10.978571428571428L3.1642857142857146,10.55L3,10.55L3,10.45L3.2642857142857142,10.45L3.2642857142857142,10.878571428571426L3.478571428571428,10.878571428571426L3.478571428571428,11.307142857142857L4.764285714285714,11.307142857142857L4.764285714285714,11.521428571428569L6.478571428571428,11.521428571428569L6.478571428571428,11.735714285714284L6.692857142857142,11.735714285714284L6.692857142857142,11.95z" stroke="none"/><path d="M25.45,9L25.55,9L25.55,9.692857142857143L25.335714285714285,9.692857142857143L25.335714285714285,9.907142857142858L25.12142857142857,9.907142857142858L25.12142857142857,12.264285714285716L24.692857142857143,12.264285714285716L24.692857142857143,12.692857142857143L24.478571428571428,12.692857142857143L24.478571428571428,12.907142857142858L20.09285714285714,12.907142857142858L20.09285714285714,12.692857142857143L19.664285714285715,12.692857142857143L19.664285714285715,12.264285714285716L19.45,12.264285714285716L19.45,12L19.55,12L19.55,12.164285714285715L19.764285714285716,12.164285714285715L19.764285714285716,12.592857142857142L20.192857142857143,12.592857142857142L20.192857142857143,12.807142857142857L24.378571428571426,12.807142857142857L24.378571428571426,12.592857142857142L24.59285714285714,12.592857142857142L24.59285714285714,12.164285714285715L25.02142857142857,12.164285714285715L25.02142857142857,9.807142857142857L25.235714285714284,9.807142857142857L25.235714285714284,9.592857142857142L25.45,9.592857142857142z" stroke="none"/><path d="M12,2.95L12,3.05L11.521428571428569,3.05L11.521428571428569,2.8357142857142854L10.878571428571426,2.8357142857142854L10.878571428571426,2.6214285714285714L8.62142857142857,2.6214285714285714L8.62142857142857,3.478571428571428L5.307142857142857,3.478571428571428L5.307142857142857,3.2642857142857142L4.45,3.2642857142857142L4.45,3L4.55,3L4.55,3.1642857142857146L5.407142857142857,3.1642857142857146L5.407142857142857,3.3785714285714286L8.521428571428569,3.3785714285714286L8.521428571428569,2.521428571428572L10.978571428571428,2.521428571428572L10.978571428571428,2.7357142857142858L11.62142857142857,2.7357142857142858L11.62142857142857,2.95z" stroke="none"/><path d="M25.45,10.5L25.55,10.5L25.55,12.05L25.335714285714285,12.05L25.335714285714285,12.478571428571428L25.12142857142857,12.478571428571428L25.12142857142857,12.907142857142858L24.90714285714286,12.907142857142858L24.90714285714286,13.12142857142857L19.45,13.12142857142857L19.45,12.907142857142858L19.235714285714284,12.907142857142858L19.235714285714284,12.478571428571428L19.021428571428572,12.478571428571428L19.021428571428572,12.05L18.807142857142857,12.05L18.807142857142857,10.335714285714285L18.378571428571426,10.335714285714285L18.378571428571426,9.478571428571428L18.164285714285715,9.478571428571428L18.164285714285715,9.264285714285716L17.95,9.264285714285716L17.95,9L18.05,9L18.05,9.164285714285715L18.264285714285716,9.164285714285715L18.264285714285716,9.378571428571426L18.478571428571428,9.378571428571426L18.478571428571428,10.235714285714284L18.90714285714286,10.235714285714284L18.90714285714286,11.95L19.121428571428574,11.95L19.121428571428574,12.378571428571426L19.335714285714285,12.378571428571426L19.335714285714285,12.807142857142857L19.55,12.807142857142857L19.55,13.021428571428569L24.807142857142857,13.021428571428569L24.807142857142857,12.807142857142857L25.02142857142857,12.807142857142857L25.02142857142857,12.378571428571426L25.235714285714284,12.378571428571426L25.235714285714284,11.95L25.45,11.95z" stroke="none"/><path d="M12,11.95L12,12.05L9.592857142857142,12.05L9.592857142857142,11.835714285714285L9.378571428571426,11.835714285714285L9.378571428571426,11.407142857142858L7.878571428571428,11.407142857142858L7.878571428571428,11.192857142857143L5.735714285714286,11.192857142857143L5.735714285714286,10.978571428571428L5.0928571428571425,10.978571428571428L5.0928571428571425,10.764285714285716L4.664285714285715,10.764285714285716L4.664285714285715,10.55L4.5,10.55L4.5,10.45L4.764285714285714,10.45L4.764285714285714,10.664285714285715L5.192857142857142,10.664285714285715L5.192857142857142,10.878571428571426L5.835714285714285,10.878571428571426L5.835714285714285,11.092857142857142L7.978571428571428,11.092857142857142L7.978571428571428,11.307142857142857L9.478571428571428,11.307142857142857L9.478571428571428,11.735714285714284L9.692857142857143,11.735714285714284L9.692857142857143,11.95z" stroke="none"/><path d="M4.5,5.95L4.5,6.05L4.121428571428571,6.05L4.121428571428571,6.264285714285714L3.907142857142857,6.264285714285714L3.907142857142857,6.907142857142857L3.6928571428571426,6.907142857142857L3.6928571428571426,7.335714285714285L3.05,7.335714285714285L3.05,7.55L2.8357142857142854,7.55L2.8357142857142854,7.764285714285714L2.6214285714285714,7.764285714285714L2.6214285714285714,9.378571428571426L7.878571428571428,9.378571428571426L7.878571428571428,9.164285714285715L8.092857142857142,9.164285714285715L8.092857142857142,8.95L8.307142857142857,8.95L8.307142857142857,8.521428571428569L10.978571428571428,8.521428571428569L10.978571428571428,8.735714285714284L11.407142857142858,8.735714285714284L11.407142857142858,8.95L12,8.95L12,9.05L11.307142857142857,9.05L11.307142857142857,8.835714285714285L10.878571428571426,8.835714285714285L10.878571428571426,8.62142857142857L8.407142857142858,8.62142857142857L8.407142857142858,9.05L8.192857142857143,9.05L8.192857142857143,9.264285714285716L7.978571428571428,9.264285714285716L7.978571428571428,9.478571428571428L2.521428571428572,9.478571428571428L2.521428571428572,7.664285714285715L2.7357142857142858,7.664285714285715L2.7357142857142858,7.45L2.95,7.45L2.95,7.235714285714286L3.592857142857143,7.235714285714286L3.592857142857143,6.807142857142857L3.8071428571428574,6.807142857142857L3.8071428571428574,6.164285714285715L4.021428571428571,6.164285714285715L4.021428571428571,5.95z" stroke="none"/><path d="M7.55,3L7.45,3L7.45,2.3071428571428574L12.264285714285716,2.3071428571428574L12.264285714285716,2.521428571428572L12.478571428571428,2.521428571428572L12.478571428571428,2.95L13.12142857142857,2.95L13.12142857142857,3.1642857142857146L13.335714285714285,3.1642857142857146L13.335714285714285,3.3785714285714286L13.55,3.3785714285714286L13.55,3.592857142857143L13.764285714285716,3.592857142857143L13.764285714285716,3.8071428571428574L14.835714285714285,3.8071428571428574L14.835714285714285,4.021428571428571L15.478571428571428,4.021428571428571L15.478571428571428,5.307142857142857L15.692857142857143,5.307142857142857L15.692857142857143,7.121428571428571L15.478571428571428,7.121428571428571L15.478571428571428,7.335714285714285L15.264285714285716,7.335714285714285L15.264285714285716,7.55L15,7.55L15,7.45L15.164285714285715,7.45L15.164285714285715,7.235714285714286L15.378571428571426,7.235714285714286L15.378571428571426,7.021428571428571L15.592857142857142,7.021428571428571L15.592857142857142,5.407142857142857L15.378571428571426,5.407142857142857L15.378571428571426,4.121428571428571L14.735714285714284,4.121428571428571L14.735714285714284,3.907142857142857L13.664285714285715,3.907142857142857L13.664285714285715,3.6928571428571426L13.45,3.6928571428571426L13.45,3.478571428571428L13.235714285714284,3.478571428571428L13.235714285714284,3.2642857142857142L13.021428571428569,3.2642857142857142L13.021428571428569,3.05L12.378571428571426,3.05L12.378571428571426,2.6214285714285714L12.164285714285715,2.6214285714285714L12.164285714285715,2.407142857142857L7.55,2.407142857142857z" stroke="none"/><path d="M27,11.95L27,12.05L25.978571428571428,12.05L25.978571428571428,12.264285714285716L25.764285714285716,12.264285714285716L25.764285714285716,12.692857142857143L25.55,12.692857142857143L25.55,13.12142857142857L25.12142857142857,13.12142857142857L25.12142857142857,13.335714285714285L18.59285714285714,13.335714285714285L18.59285714285714,11.192857142857143L18.378571428571426,11.192857142857143L18.378571428571426,10.55L18,10.55L18,10.45L18.478571428571428,10.45L18.478571428571428,11.092857142857142L18.692857142857143,11.092857142857142L18.692857142857143,13.235714285714284L25.02142857142857,13.235714285714284L25.02142857142857,13.021428571428569L25.45,13.021428571428569L25.45,12.592857142857142L25.664285714285715,12.592857142857142L25.664285714285715,12.164285714285715L25.878571428571426,12.164285714285715L25.878571428571426,11.95z" stroke="none"/><path d="M26.95,9L27.05,9L27.05,10.878571428571426L27.264285714285716,10.878571428571426L27.264285714285716,11.307142857142857L27.478571428571428,11.307142857142857L27.478571428571428,12.478571428571428L27.05,12.478571428571428L27.05,12.907142857142858L25.978571428571428,12.907142857142858L25.978571428571428,13.12142857142857L25.764285714285716,13.12142857142857L25.764285714285716,13.335714285714285L25.55,13.335714285714285L25.55,13.55L18.378571428571426,13.55L18.378571428571426,12.692857142857143L18.164285714285715,12.692857142857143L18.164285714285715,12.478571428571428L17.95,12.478571428571428L17.95,12L18.05,12L18.05,12.378571428571426L18.264285714285716,12.378571428571426L18.264285714285716,12.592857142857142L18.478571428571428,12.592857142857142L18.478571428571428,13.45L25.45,13.45L25.45,13.235714285714284L25.664285714285715,13.235714285714284L25.664285714285715,13.021428571428569L25.878571428571426,13.021428571428569L25.878571428571426,12.807142857142857L26.95,12.807142857142857L26.95,12.378571428571426L27.378571428571426,12.378571428571426L27.378571428571426,11.407142857142858L27.164285714285715,11.407142857142858L27.164285714285715,10.978571428571428L26.95,10.978571428571428z" stroke="none"/><path d="M27.05,7.5L26.95,7.5L26.95,6.5928571428571425L27.164285714285715,6.5928571428571425L27.164285714285715,5.735714285714286L27.378571428571426,5.735714285714286L27.378571428571426,5.521428571428571L27.59285714285714,5.521428571428571L27.59285714285714,3.907142857142857L27.164285714285715,3.907142857142857L27.164285714285715,3.6928571428571426L26.735714285714284,3.6928571428571426L26.735714285714284,3.478571428571428L26.52142857142857,3.478571428571428L26.52142857142857,3.2642857142857142L26.307142857142857,3.2642857142857142L26.307142857142857,3.05L26.09285714285714,3.05L26.09285714285714,2.8357142857142854L25.878571428571426,2.8357142857142854L25.878571428571426,2.6214285714285714L25.45,2.6214285714285714L25.45,2.407142857142857L25.235714285714284,2.407142857142857L25.235714285714284,1.9785714285714286L15.264285714285716,1.9785714285714286L15.264285714285716,2.407142857142857L14.62142857142857,2.407142857142857L14.62142857142857,3.3785714285714286L15.692857142857143,3.3785714285714286L15.692857142857143,4.45L16.5,4.45L16.5,4.55L15.592857142857142,4.55L15.592857142857142,3.478571428571428L14.521428571428569,3.478571428571428L14.521428571428569,2.3071428571428574L15.164285714285715,2.3071428571428574L15.164285714285715,1.8785714285714286L25.335714285714285,1.8785714285714286L25.335714285714285,2.3071428571428574L25.55,2.3071428571428574L25.55,2.521428571428572L25.978571428571428,2.521428571428572L25.978571428571428,2.7357142857142858L26.192857142857143,2.7357142857142858L26.192857142857143,2.95L26.40714285714286,2.95L26.40714285714286,3.1642857142857146L26.62142857142857,3.1642857142857146L26.62142857142857,3.3785714285714286L26.835714285714285,3.3785714285714286L26.835714285714285,3.592857142857143L27.264285714285716,3.592857142857143L27.264285714285716,3.8071428571428574L27.692857142857143,3.8071428571428574L27.692857142857143,5.621428571428571L27.478571428571428,5.621428571428571L27.478571428571428,5.835714285714285L27.264285714285716,5.835714285714285L27.264285714285716,6.692857142857142L27.05,6.692857142857142z" stroke="none"/><path d="M18,5.95L18,6.05L16.878571428571426,6.05L16.878571428571426,5.621428571428571L16.12142857142857,5.621428571428571L16.12142857142857,5.835714285714285L15.907142857142858,5.835714285714285L15.907142857142858,8.092857142857142L16.978571428571428,8.092857142857142L16.978571428571428,10.978571428571428L15.907142857142858,10.978571428571428L15.907142857142858,11.192857142857143L8.735714285714284,11.192857142857143L8.735714285714284,10.978571428571428L6.5928571428571425,10.978571428571428L6.5928571428571425,10.764285714285716L6.378571428571428,10.764285714285716L6.378571428571428,10.55L5.95,10.55L5.95,10.335714285714285L5.307142857142857,10.335714285714285L5.307142857142857,10.12142857142857L2.3071428571428574,10.12142857142857L2.3071428571428574,7.021428571428571L2.7357142857142858,7.021428571428571L2.7357142857142858,6.164285714285715L3.592857142857143,6.164285714285715L3.592857142857143,5.95L3.8071428571428574,5.95L3.8071428571428574,5.521428571428571L4.021428571428571,5.521428571428571L4.021428571428571,5.307142857142857L4.45,5.307142857142857L4.45,4.878571428571429L4.878571428571429,4.878571428571429L4.878571428571429,4.45L5.307142857142857,4.45L5.307142857142857,4.021428571428571L6.478571428571428,4.021428571428571L6.478571428571428,5.192857142857142L6.264285714285714,5.192857142857142L6.264285714285714,5.835714285714285L6.05,5.835714285714285L6.05,6L5.95,6L5.95,5.735714285714286L6.164285714285715,5.735714285714286L6.164285714285715,5.0928571428571425L6.378571428571428,5.0928571428571425L6.378571428571428,4.121428571428571L5.407142857142857,4.121428571428571L5.407142857142857,4.55L4.978571428571429,4.55L4.978571428571429,4.978571428571429L4.55,4.978571428571429L4.55,5.407142857142857L4.121428571428571,5.407142857142857L4.121428571428571,5.621428571428571L3.907142857142857,5.621428571428571L3.907142857142857,6.05L3.6928571428571426,6.05L3.6928571428571426,6.264285714285714L2.8357142857142854,6.264285714285714L2.8357142857142854,7.121428571428571L2.407142857142857,7.121428571428571L2.407142857142857,10.021428571428569L5.407142857142857,10.021428571428569L5.407142857142857,10.235714285714284L6.05,10.235714285714284L6.05,10.45L6.478571428571428,10.45L6.478571428571428,10.664285714285715L6.692857142857142,10.664285714285715L6.692857142857142,10.878571428571426L8.835714285714285,10.878571428571426L8.835714285714285,11.092857142857142L15.807142857142857,11.092857142857142L15.807142857142857,10.878571428571426L16.878571428571426,10.878571428571426L16.878571428571426,8.192857142857143L15.807142857142857,8.192857142857143L15.807142857142857,5.735714285714286L16.02142857142857,5.735714285714286L16.02142857142857,5.521428571428571L16.978571428571428,5.521428571428571L16.978571428571428,5.95z" stroke="none"/></svg>