<svg version="1.1" width="30" height="15" xmlns="http://www.w3.org/2000/svg"><path d="M8.95,3.6928571428571426L8.735714285714284,3.6928571428571426L8.735714285714284,3.478571428571428L8.307142857142857,3.478571428571428L8.307142857142857,3.2642857142857142L8.092857142857142,3.2642857142857142L8.092857142857142,3.05L7.5,3.05L7.5,2.95L8.192857142857143,2.95L8.192857142857143,3.1642857142857146L8.407142857142858,3.1642857142857146L8.407142857142858,3.3785714285714286L8.835714285714285,3.3785714285714286L8.835714285714285,3.592857142857143L9.05,3.592857142857143L9.05,3.8071428571428574L9.164285714285715,3.8071428571428574L9.164285714285715,3.592857142857143L9.378571428571426,3.592857142857143L9.378571428571426,3.3785714285714286L9.592857142857142,3.3785714285714286L9.592857142857142,3.1642857142857146L9.807142857142857,3.1642857142857146L9.807142857142857,2.95L10.5,2.95L10.5,3.05L9.907142857142858,3.05L9.907142857142858,3.2642857142857142L9.692857142857143,3.2642857142857142L9.692857142857143,3.478571428571428L9.478571428571428,3.478571428571428L9.478571428571428,3.6928571428571426L9.264285714285716,3.6928571428571426L9.264285714285716,3.907142857142857L9.05,3.907142857142857L9.05,4.121428571428571L8.62142857142857,4.121428571428571L8.62142857142857,4.878571428571429L8.835714285714285,4.878571428571429L8.835714285714285,5.521428571428571L9.05,5.521428571428571L9.05,6L8.95,6L8.95,5.621428571428571L8.735714285714284,5.621428571428571L8.735714285714284,4.978571428571429L8.521428571428569,4.978571428571429L8.521428571428569,4.021428571428571L8.95,4.021428571428571z" stroke="none"/><path d="M13.45,6.807142857142857L13.45,6.5928571428571425L13.878571428571426,6.5928571428571425L13.878571428571426,6.164285714285715L14.307142857142857,6.164285714285715L14.307142857142857,5.307142857142857L14.735714285714284,5.307142857142857L14.735714285714284,5.0928571428571425L14.95,5.0928571428571425L14.95,4.5L15.05,4.5L15.05,5.192857142857142L14.835714285714285,5.192857142857142L14.835714285714285,5.407142857142857L14.407142857142858,5.407142857142857L14.407142857142858,6.264285714285714L13.978571428571428,6.264285714285714L13.978571428571428,6.692857142857142L13.55,6.692857142857142L13.55,6.907142857142857L12.05,6.907142857142857L12.05,7.021428571428571L12.478571428571428,7.021428571428571L12.478571428571428,7.664285714285715L12.692857142857143,7.664285714285715L12.692857142857143,8.307142857142857L12.907142857142858,8.307142857142857L12.907142857142858,8.521428571428569L13.55,8.521428571428569L13.55,9L13.45,9L13.45,8.62142857142857L12.807142857142857,8.62142857142857L12.807142857142857,8.407142857142858L12.592857142857142,8.407142857142858L12.592857142857142,7.764285714285714L12.378571428571426,7.764285714285714L12.378571428571426,7.121428571428571L11.95,7.121428571428571L11.95,6.907142857142857L10.55,6.907142857142857L10.55,7.121428571428571L9.692857142857143,7.121428571428571L9.692857142857143,7.335714285714285L8.835714285714285,7.335714285714285L8.835714285714285,7.55L7.5,7.55L7.5,7.45L8.735714285714284,7.45L8.735714285714284,7.235714285714286L9.592857142857142,7.235714285714286L9.592857142857142,7.021428571428571L10.45,7.021428571428571L10.45,6.807142857142857z" stroke="none"/><path d="M25.878571428571426,7.878571428571428L25.878571428571426,7.021428571428571L26.09285714285714,7.021428571428571L26.09285714285714,6.5928571428571425L26.52142857142857,6.5928571428571425L26.52142857142857,6.164285714285715L26.735714285714284,6.164285714285715L26.735714285714284,5.95L27,5.95L27,6.05L26.835714285714285,6.05L26.835714285714285,6.264285714285714L26.62142857142857,6.264285714285714L26.62142857142857,6.692857142857142L26.192857142857143,6.692857142857142L26.192857142857143,7.121428571428571L25.978571428571428,7.121428571428571L25.978571428571428,7.978571428571428L21.692857142857143,7.978571428571428L21.692857142857143,9.692857142857143L21.478571428571428,9.692857142857143L21.478571428571428,9.907142857142858L19.978571428571428,9.907142857142858L19.978571428571428,10.12142857142857L19.55,10.12142857142857L19.55,10.5L19.45,10.5L19.45,10.021428571428569L19.878571428571426,10.021428571428569L19.878571428571426,9.807142857142857L21.378571428571426,9.807142857142857L21.378571428571426,9.592857142857142L21.59285714285714,9.592857142857142L21.59285714285714,7.978571428571428L18.807142857142857,7.978571428571428L18.807142857142857,7.55L18,7.55L18,7.45L18.90714285714286,7.45L18.90714285714286,7.878571428571428z" stroke="none"/><path d="M7.45,8.092857142857142L7.45,7.878571428571428L10.878571428571426,7.878571428571428L10.878571428571426,7.664285714285715L11.307142857142857,7.664285714285715L11.307142857142857,7.45L11.735714285714284,7.45L11.735714285714284,7.235714285714286L12.264285714285716,7.235714285714286L12.264285714285716,7.978571428571428L12.05,7.978571428571428L12.05,8.407142857142858L10.12142857142857,8.407142857142858L10.12142857142857,8.62142857142857L9.692857142857143,8.62142857142857L9.692857142857143,8.835714285714285L9.05,8.835714285714285L9.05,9.05L7.764285714285714,9.05L7.764285714285714,9.264285714285716L7.335714285714285,9.264285714285716L7.335714285714285,9.478571428571428L6.05,9.478571428571428L6.05,9.692857142857143L4.335714285714285,9.692857142857143L4.335714285714285,9.907142857142858L3.478571428571428,9.907142857142858L3.478571428571428,10.335714285714285L3.05,10.335714285714285L3.05,10.5L2.95,10.5L2.95,10.235714285714284L3.3785714285714286,10.235714285714284L3.3785714285714286,9.807142857142857L4.235714285714286,9.807142857142857L4.235714285714286,9.592857142857142L5.95,9.592857142857142L5.95,9.378571428571426L7.235714285714286,9.378571428571426L7.235714285714286,9.164285714285715L7.664285714285715,9.164285714285715L7.664285714285715,8.95L8.95,8.95L8.95,8.735714285714284L9.592857142857142,8.735714285714284L9.592857142857142,8.521428571428569L10.021428571428569,8.521428571428569L10.021428571428569,8.307142857142857L11.95,8.307142857142857L11.95,7.878571428571428L12.164285714285715,7.878571428571428L12.164285714285715,7.335714285714285L11.835714285714285,7.335714285714285L11.835714285714285,7.55L11.407142857142858,7.55L11.407142857142858,7.764285714285714L10.978571428571428,7.764285714285714L10.978571428571428,7.978571428571428L7.55,7.978571428571428L7.55,8.092857142857142L11.521428571428569,8.092857142857142L11.521428571428569,7.664285714285715L11.95,7.664285714285715L11.95,7.5L12.05,7.5L12.05,7.764285714285714L11.62142857142857,7.764285714285714L11.62142857142857,8.192857142857143L7.55,8.192857142857143L7.55,9L7.45,9L7.45,8.192857142857143L7.235714285714286,8.192857142857143L7.235714285714286,7.978571428571428L7.021428571428571,7.978571428571428L7.021428571428571,5.95L7.5,5.95L7.5,6.05L7.121428571428571,6.05L7.121428571428571,7.878571428571428L7.335714285714285,7.878571428571428L7.335714285714285,8.092857142857142z" stroke="none"/><path d="M8.521428571428569,10.664285714285715L8.521428571428569,10.55L7.664285714285715,10.55L7.664285714285715,10.335714285714285L4.121428571428571,10.335714285714285L4.121428571428571,10.55L3.907142857142857,10.55L3.907142857142857,10.764285714285716L3.6928571428571426,10.764285714285716L3.6928571428571426,10.978571428571428L3.478571428571428,10.978571428571428L3.478571428571428,11.192857142857143L3.2642857142857142,11.192857142857143L3.2642857142857142,11.407142857142858L3.05,11.407142857142858L3.05,12L2.95,12L2.95,11.307142857142857L3.1642857142857146,11.307142857142857L3.1642857142857146,11.092857142857142L3.3785714285714286,11.092857142857142L3.3785714285714286,10.878571428571426L3.592857142857143,10.878571428571426L3.592857142857143,10.664285714285715L3.8071428571428574,10.664285714285715L3.8071428571428574,10.45L4.021428571428571,10.45L4.021428571428571,10.235714285714284L7.764285714285714,10.235714285714284L7.764285714285714,10.45L8.62142857142857,10.45L8.62142857142857,10.664285714285715L10.45,10.664285714285715L10.45,10.5L10.55,10.5L10.55,10.764285714285716L8.62142857142857,10.764285714285716L8.62142857142857,10.878571428571426L12.378571428571426,10.878571428571426L12.378571428571426,10.664285714285715L12.807142857142857,10.664285714285715L12.807142857142857,10.45L13.5,10.45L13.5,10.55L12.907142857142858,10.55L12.907142857142858,10.764285714285716L12.478571428571428,10.764285714285716L12.478571428571428,10.978571428571428L8.521428571428569,10.978571428571428L8.521428571428569,10.764285714285716L7.45,10.764285714285716L7.45,10.5L7.55,10.5L7.55,10.664285714285715z" stroke="none"/><path d="M19.021428571428572,6.5928571428571425L19.021428571428572,6.378571428571428L22.978571428571428,6.378571428571428L22.978571428571428,6.5928571428571425L23.192857142857143,6.5928571428571425L23.192857142857143,6.807142857142857L23.40714285714286,6.807142857142857L23.40714285714286,7.021428571428571L24.05,7.021428571428571L24.05,7.5L23.95,7.5L23.95,7.121428571428571L23.307142857142857,7.121428571428571L23.307142857142857,6.907142857142857L23.09285714285714,6.907142857142857L23.09285714285714,6.692857142857142L22.878571428571426,6.692857142857142L22.878571428571426,6.478571428571428L19.121428571428574,6.478571428571428L19.121428571428574,6.5928571428571425L19.55,6.5928571428571425L19.55,6.807142857142857L20.621428571428574,6.807142857142857L20.621428571428574,7.235714285714286L20.835714285714285,7.235714285714286L20.835714285714285,7.45L21,7.45L21,7.55L20.735714285714284,7.55L20.735714285714284,7.335714285714285L20.521428571428572,7.335714285714285L20.521428571428572,6.907142857142857L19.45,6.907142857142857L19.45,6.692857142857142L19.121428571428574,6.692857142857142L19.121428571428574,6.907142857142857L15.164285714285715,6.907142857142857L15.164285714285715,6.692857142857142L14.95,6.692857142857142L14.95,6L15.05,6L15.05,6.5928571428571425L15.264285714285716,6.5928571428571425L15.264285714285716,6.807142857142857L19.021428571428572,6.807142857142857L19.021428571428572,6.692857142857142L17.307142857142857,6.692857142857142L17.307142857142857,6.264285714285714L16.878571428571426,6.264285714285714L16.878571428571426,6.05L16.5,6.05L16.5,5.95L16.978571428571428,5.95L16.978571428571428,6.164285714285715L17.40714285714286,6.164285714285715L17.40714285714286,6.5928571428571425z" stroke="none"/><path d="M3,6.05L3,5.95L4.5,5.95L4.5,6.05z" stroke="none"/><path d="M18,10.45L18,10.55L17.307142857142857,10.55L17.307142857142857,10.335714285714285L16.878571428571426,10.335714285714285L16.878571428571426,9.907142857142858L16.664285714285715,9.907142857142858L16.664285714285715,9.264285714285716L16.45,9.264285714285716L16.45,9L16.55,9L16.55,9.164285714285715L16.764285714285716,9.164285714285715L16.764285714285716,9.807142857142857L16.978571428571428,9.807142857142857L16.978571428571428,10.235714285714284L17.40714285714286,10.235714285714284L17.40714285714286,10.45z" stroke="none"/><path d="M4.55,7.5L4.45,7.5L4.45,6.807142857142857L4.664285714285715,6.807142857142857L4.664285714285715,6.5928571428571425L5.0928571428571425,6.5928571428571425L5.0928571428571425,6.378571428571428L5.735714285714286,6.378571428571428L5.735714285714286,6.164285714285715L5.95,6.164285714285715L5.95,6L6.05,6L6.05,6.264285714285714L5.835714285714285,6.264285714285714L5.835714285714285,6.478571428571428L5.192857142857142,6.478571428571428L5.192857142857142,6.692857142857142L4.764285714285714,6.692857142857142L4.764285714285714,6.907142857142857L4.55,6.907142857142857z" stroke="none"/><path d="M20.95,4.5L21.05,4.5L21.05,4.764285714285714L20.40714285714286,4.764285714285714L20.40714285714286,4.978571428571429L19.978571428571428,4.978571428571429L19.978571428571428,5.407142857142857L19.764285714285716,5.407142857142857L19.764285714285716,5.835714285714285L19.55,5.835714285714285L19.55,6L19.45,6L19.45,5.735714285714286L19.664285714285715,5.735714285714286L19.664285714285715,5.307142857142857L19.878571428571426,5.307142857142857L19.878571428571426,4.878571428571429L20.307142857142857,4.878571428571429L20.307142857142857,4.664285714285715L20.95,4.664285714285715z" stroke="none"/><path d="M25.5,11.95L25.5,12.05L25.235714285714284,12.05L25.235714285714284,10.978571428571428L24.164285714285715,10.978571428571428L24.164285714285715,10.764285714285716L23.95,10.764285714285716L23.95,10.5L24.05,10.5L24.05,10.664285714285715L24.264285714285716,10.664285714285715L24.264285714285716,10.878571428571426L25.335714285714285,10.878571428571426L25.335714285714285,11.95z" stroke="none"/><path d="M22.55,10.5L22.45,10.5L22.45,10.021428571428569L23.09285714285714,10.021428571428569L23.09285714285714,9.807142857142857L23.52142857142857,9.807142857142857L23.52142857142857,9.378571428571426L23.95,9.378571428571426L23.95,9L24.05,9L24.05,9.478571428571428L23.62142857142857,9.478571428571428L23.62142857142857,9.907142857142858L23.192857142857143,9.907142857142858L23.192857142857143,10.12142857142857L22.55,10.12142857142857z" stroke="none"/><path d="M24.05,12L23.95,12L23.95,11.62142857142857L23.735714285714284,11.62142857142857L23.735714285714284,11.192857142857143L23.52142857142857,11.192857142857143L23.52142857142857,10.021428571428569L25.335714285714285,10.021428571428569L25.335714285714285,10.45L25.5,10.45L25.5,10.55L25.235714285714284,10.55L25.235714285714284,10.12142857142857L23.62142857142857,10.12142857142857L23.62142857142857,11.092857142857142L23.835714285714285,11.092857142857142L23.835714285714285,11.521428571428569L24.05,11.521428571428569z" stroke="none"/><path d="M25.45,4.5L25.55,4.5L25.55,7.5L25.45,7.5z" stroke="none"/><path d="M27,4.45L27,4.55L26.735714285714284,4.55L26.735714285714284,4.335714285714285L26.09285714285714,4.335714285714285L26.09285714285714,4.121428571428571L24.807142857142857,4.121428571428571L24.807142857142857,3.6928571428571426L24.59285714285714,3.6928571428571426L24.59285714285714,3.2642857142857142L24.164285714285715,3.2642857142857142L24.164285714285715,3.05L24,3.05L24,2.95L24.264285714285716,2.95L24.264285714285716,3.1642857142857146L24.692857142857143,3.1642857142857146L24.692857142857143,3.592857142857143L24.90714285714286,3.592857142857143L24.90714285714286,4.021428571428571L26.192857142857143,4.021428571428571L26.192857142857143,4.235714285714286L26.835714285714285,4.235714285714286L26.835714285714285,4.45z" stroke="none"/><path d="M15.05,7.5L14.95,7.5L14.95,7.121428571428571L14.735714285714284,7.121428571428571L14.735714285714284,6.478571428571428L14.521428571428569,6.478571428571428L14.521428571428569,5.521428571428571L15.164285714285715,5.521428571428571L15.164285714285715,5.0928571428571425L15.378571428571426,5.0928571428571425L15.378571428571426,4.121428571428571L13.764285714285716,4.121428571428571L13.764285714285716,4.335714285714285L13.55,4.335714285714285L13.55,4.5L13.45,4.5L13.45,4.235714285714286L13.664285714285715,4.235714285714286L13.664285714285715,4.021428571428571L15.478571428571428,4.021428571428571L15.478571428571428,5.192857142857142L15.264285714285716,5.192857142857142L15.264285714285716,5.621428571428571L14.62142857142857,5.621428571428571L14.62142857142857,6.378571428571428L14.835714285714285,6.378571428571428L14.835714285714285,7.021428571428571L15.05,7.021428571428571z" stroke="none"/><path d="M19.45,9L19.55,9L19.55,9.692857142857143L19.335714285714285,9.692857142857143L19.335714285714285,10.12142857142857L19.121428571428574,10.12142857142857L19.121428571428574,10.878571428571426L20.95,10.878571428571426L20.95,10.664285714285715L21.164285714285715,10.664285714285715L21.164285714285715,10.235714285714284L21.378571428571426,10.235714285714284L21.378571428571426,10.021428571428569L21.59285714285714,10.021428571428569L21.59285714285714,9.807142857142857L21.807142857142857,9.807142857142857L21.807142857142857,9.378571428571426L22.021428571428572,9.378571428571426L22.021428571428572,8.95L22.878571428571426,8.95L22.878571428571426,8.735714285714284L23.09285714285714,8.735714285714284L23.09285714285714,8.521428571428569L25.878571428571426,8.521428571428569L25.878571428571426,8.307142857142857L26.09285714285714,8.307142857142857L26.09285714285714,7.664285714285715L26.307142857142857,7.664285714285715L26.307142857142857,7.021428571428571L27.164285714285715,7.021428571428571L27.164285714285715,6.378571428571428L27.378571428571426,6.378571428571428L27.378571428571426,4.121428571428571L26.52142857142857,4.121428571428571L26.52142857142857,3.907142857142857L25.235714285714284,3.907142857142857L25.235714285714284,3.6928571428571426L25.02142857142857,3.6928571428571426L25.02142857142857,3.478571428571428L24.807142857142857,3.478571428571428L24.807142857142857,3.05L24.59285714285714,3.05L24.59285714285714,2.8357142857142854L24.378571428571426,2.8357142857142854L24.378571428571426,2.6214285714285714L23.62142857142857,2.6214285714285714L23.62142857142857,4.335714285714285L23.40714285714286,4.335714285714285L23.40714285714286,4.55L23.192857142857143,4.55L23.192857142857143,4.764285714285714L22.978571428571428,4.764285714285714L22.978571428571428,5.835714285714285L22.55,5.835714285714285L22.55,6L22.45,6L22.45,5.735714285714286L22.878571428571426,5.735714285714286L22.878571428571426,4.664285714285715L23.09285714285714,4.664285714285715L23.09285714285714,4.45L23.307142857142857,4.45L23.307142857142857,4.235714285714286L23.52142857142857,4.235714285714286L23.52142857142857,2.521428571428572L24.478571428571428,2.521428571428572L24.478571428571428,2.7357142857142858L24.692857142857143,2.7357142857142858L24.692857142857143,2.95L24.90714285714286,2.95L24.90714285714286,3.3785714285714286L25.12142857142857,3.3785714285714286L25.12142857142857,3.592857142857143L25.335714285714285,3.592857142857143L25.335714285714285,3.8071428571428574L26.62142857142857,3.8071428571428574L26.62142857142857,4.021428571428571L27.478571428571428,4.021428571428571L27.478571428571428,6.478571428571428L27.264285714285716,6.478571428571428L27.264285714285716,7.121428571428571L26.40714285714286,7.121428571428571L26.40714285714286,7.764285714285714L26.192857142857143,7.764285714285714L26.192857142857143,8.407142857142858L25.978571428571428,8.407142857142858L25.978571428571428,8.62142857142857L23.192857142857143,8.62142857142857L23.192857142857143,8.835714285714285L22.978571428571428,8.835714285714285L22.978571428571428,9.05L22.121428571428574,9.05L22.121428571428574,9.478571428571428L21.90714285714286,9.478571428571428L21.90714285714286,9.907142857142858L21.692857142857143,9.907142857142858L21.692857142857143,10.12142857142857L21.478571428571428,10.12142857142857L21.478571428571428,10.335714285714285L21.264285714285716,10.335714285714285L21.264285714285716,10.764285714285716L21.05,10.764285714285716L21.05,10.978571428571428L19.021428571428572,10.978571428571428L19.021428571428572,10.021428571428569L19.235714285714284,10.021428571428569L19.235714285714284,9.592857142857142L19.45,9.592857142857142z" stroke="none"/><path d="M6,4.55L6,4.45L6.692857142857142,4.45L6.692857142857142,4.664285714285715L7.121428571428571,4.664285714285715L7.121428571428571,4.878571428571429L7.764285714285714,4.878571428571429L7.764285714285714,5.307142857142857L7.978571428571428,5.307142857142857L7.978571428571428,5.521428571428571L8.407142857142858,5.521428571428571L8.407142857142858,6.378571428571428L9.378571428571426,6.378571428571428L9.378571428571426,5.0928571428571425L9.592857142857142,5.0928571428571425L9.592857142857142,4.664285714285715L9.807142857142857,4.664285714285715L9.807142857142857,4.45L10.5,4.45L10.5,4.55L9.907142857142858,4.55L9.907142857142858,4.764285714285714L9.692857142857143,4.764285714285714L9.692857142857143,5.192857142857142L9.478571428571428,5.192857142857142L9.478571428571428,6.478571428571428L8.307142857142857,6.478571428571428L8.307142857142857,5.621428571428571L7.878571428571428,5.621428571428571L7.878571428571428,5.407142857142857L7.664285714285715,5.407142857142857L7.664285714285715,4.978571428571429L7.021428571428571,4.978571428571429L7.021428571428571,4.764285714285714L6.5928571428571425,4.764285714285714L6.5928571428571425,4.55z" stroke="none"/><path d="M15,8.95L15,9.05L14.62142857142857,9.05L14.62142857142857,9.264285714285716L13.978571428571428,9.264285714285716L13.978571428571428,9.478571428571428L11.092857142857142,9.478571428571428L11.092857142857142,9.264285714285716L10.45,9.264285714285716L10.45,9L10.55,9L10.55,9.164285714285715L11.192857142857143,9.164285714285715L11.192857142857143,9.378571428571426L13.878571428571426,9.378571428571426L13.878571428571426,9.164285714285715L14.521428571428569,9.164285714285715L14.521428571428569,8.95z" stroke="none"/><path d="M7.5,11.95L7.5,12.05L5.407142857142857,12.05L5.407142857142857,12.478571428571428L2.521428571428572,12.478571428571428L2.521428571428572,10.021428571428569L3.1642857142857146,10.021428571428569L3.1642857142857146,9.592857142857142L4.021428571428571,9.592857142857142L4.021428571428571,9.378571428571426L4.664285714285715,9.378571428571426L4.664285714285715,8.95L5.521428571428571,8.95L5.521428571428571,7.664285714285715L5.735714285714286,7.664285714285715L5.735714285714286,7.45L6,7.45L6,7.55L5.835714285714285,7.55L5.835714285714285,7.764285714285714L5.621428571428571,7.764285714285714L5.621428571428571,9.05L4.764285714285714,9.05L4.764285714285714,9.478571428571428L4.121428571428571,9.478571428571428L4.121428571428571,9.692857142857143L3.2642857142857142,9.692857142857143L3.2642857142857142,10.12142857142857L2.6214285714285714,10.12142857142857L2.6214285714285714,12.378571428571426L5.307142857142857,12.378571428571426L5.307142857142857,11.95z" stroke="none"/><path d="M13.55,6L13.45,6L13.45,5.407142857142857L13.235714285714284,5.407142857142857L13.235714285714284,5.192857142857142L13.021428571428569,5.192857142857142L13.021428571428569,4.021428571428571L13.45,4.021428571428571L13.45,3.8071428571428574L18.05,3.8071428571428574L18.05,4.5L17.95,4.5L17.95,3.907142857142857L13.55,3.907142857142857L13.55,4.121428571428571L13.12142857142857,4.121428571428571L13.12142857142857,5.0928571428571425L13.335714285714285,5.0928571428571425L13.335714285714285,5.307142857142857L13.55,5.307142857142857z" stroke="none"/><path d="M13.5,2.95L13.5,3.05L12.692857142857143,3.05L12.692857142857143,3.478571428571428L9.907142857142858,3.478571428571428L9.907142857142858,4.121428571428571L9.478571428571428,4.121428571428571L9.478571428571428,4.335714285714285L9.264285714285716,4.335714285714285L9.264285714285716,4.55L9,4.55L9,4.45L9.164285714285715,4.45L9.164285714285715,4.235714285714286L9.378571428571426,4.235714285714286L9.378571428571426,4.021428571428571L9.807142857142857,4.021428571428571L9.807142857142857,3.3785714285714286L12.592857142857142,3.3785714285714286L12.592857142857142,2.95z" stroke="none"/><path d="M6.05,9L5.95,9L5.95,7.878571428571428L6.378571428571428,7.878571428571428L6.378571428571428,5.621428571428571L5.95,5.621428571428571L5.95,5.407142857142857L5.735714285714286,5.407142857142857L5.735714285714286,5.192857142857142L5.521428571428571,5.192857142857142L5.521428571428571,4.021428571428571L6.907142857142857,4.021428571428571L6.907142857142857,4.235714285714286L7.55,4.235714285714286L7.55,4.5L7.45,4.5L7.45,4.335714285714285L6.807142857142857,4.335714285714285L6.807142857142857,4.121428571428571L5.621428571428571,4.121428571428571L5.621428571428571,5.0928571428571425L5.835714285714285,5.0928571428571425L5.835714285714285,5.307142857142857L6.05,5.307142857142857L6.05,5.521428571428571L6.478571428571428,5.521428571428571L6.478571428571428,7.978571428571428L6.05,7.978571428571428z" stroke="none"/><path d="M9,2.95L9,3.05L8.735714285714284,3.05L8.735714285714284,2.8357142857142854L7.878571428571428,2.8357142857142854L7.878571428571428,2.6214285714285714L6.264285714285714,2.6214285714285714L6.264285714285714,2.8357142857142854L6.05,2.8357142857142854L6.05,3.05L5.621428571428571,3.05L5.621428571428571,3.478571428571428L4.335714285714285,3.478571428571428L4.335714285714285,3.6928571428571426L3.907142857142857,3.6928571428571426L3.907142857142857,3.907142857142857L3.478571428571428,3.907142857142857L3.478571428571428,4.121428571428571L3.2642857142857142,4.121428571428571L3.2642857142857142,4.55L3,4.55L3,4.45L3.1642857142857146,4.45L3.1642857142857146,4.021428571428571L3.3785714285714286,4.021428571428571L3.3785714285714286,3.8071428571428574L3.8071428571428574,3.8071428571428574L3.8071428571428574,3.592857142857143L4.235714285714286,3.592857142857143L4.235714285714286,3.3785714285714286L5.521428571428571,3.3785714285714286L5.521428571428571,2.95L5.95,2.95L5.95,2.7357142857142858L6.164285714285715,2.7357142857142858L6.164285714285715,2.521428571428572L7.978571428571428,2.521428571428572L7.978571428571428,2.7357142857142858L8.835714285714285,2.7357142857142858L8.835714285714285,2.95z" stroke="none"/><path d="M12,10.55L12,10.45L12.592857142857142,10.45L12.592857142857142,10.235714285714284L13.021428571428569,10.235714285714284L13.021428571428569,10.021428571428569L15.478571428571428,10.021428571428569L15.478571428571428,10.235714285714284L15.907142857142858,10.235714285714284L15.907142857142858,10.878571428571426L16.12142857142857,10.878571428571426L16.12142857142857,11.092857142857142L16.764285714285716,11.092857142857142L16.764285714285716,11.307142857142857L16.978571428571428,11.307142857142857L16.978571428571428,11.521428571428569L17.192857142857143,11.521428571428569L17.192857142857143,11.95L18,11.95L18,12.05L17.09285714285714,12.05L17.09285714285714,11.62142857142857L16.878571428571426,11.62142857142857L16.878571428571426,11.407142857142858L16.664285714285715,11.407142857142858L16.664285714285715,11.192857142857143L16.02142857142857,11.192857142857143L16.02142857142857,10.978571428571428L15.807142857142857,10.978571428571428L15.807142857142857,10.335714285714285L15.378571428571426,10.335714285714285L15.378571428571426,10.12142857142857L13.12142857142857,10.12142857142857L13.12142857142857,10.335714285714285L12.692857142857143,10.335714285714285L12.692857142857143,10.55z" stroke="none"/><path d="M22.55,3L22.45,3L22.45,2.7357142857142858L22.878571428571426,2.7357142857142858L22.878571428571426,2.521428571428572L23.09285714285714,2.521428571428572L23.09285714285714,2.3071428571428574L25.55,2.3071428571428574L25.55,2.95L25.978571428571428,2.95L25.978571428571428,3.1642857142857146L26.192857142857143,3.1642857142857146L26.192857142857143,3.3785714285714286L26.62142857142857,3.3785714285714286L26.62142857142857,3.592857142857143L26.835714285714285,3.592857142857143L26.835714285714285,3.8071428571428574L27.692857142857143,3.8071428571428574L27.692857142857143,7.335714285714285L27.264285714285716,7.335714285714285L27.264285714285716,7.55L27,7.55L27,7.45L27.164285714285715,7.45L27.164285714285715,7.235714285714286L27.59285714285714,7.235714285714286L27.59285714285714,3.907142857142857L26.735714285714284,3.907142857142857L26.735714285714284,3.6928571428571426L26.52142857142857,3.6928571428571426L26.52142857142857,3.478571428571428L26.09285714285714,3.478571428571428L26.09285714285714,3.2642857142857142L25.878571428571426,3.2642857142857142L25.878571428571426,3.05L25.45,3.05L25.45,2.407142857142857L23.192857142857143,2.407142857142857L23.192857142857143,2.6214285714285714L22.978571428571428,2.6214285714285714L22.978571428571428,2.8357142857142854L22.55,2.8357142857142854z" stroke="none"/><path d="M19.5,7.45L19.5,7.55L19.235714285714284,7.55L19.235714285714284,7.335714285714285L18.378571428571426,7.335714285714285L18.378571428571426,7.121428571428571L17.621428571428574,7.121428571428571L17.621428571428574,8.735714285714284L17.835714285714285,8.735714285714284L17.835714285714285,9.164285714285715L18.05,9.164285714285715L18.05,10.021428571428569L18.478571428571428,10.021428571428569L18.478571428571428,12.478571428571428L13.878571428571426,12.478571428571428L13.878571428571426,12.264285714285716L13.45,12.264285714285716L13.45,12L13.55,12L13.55,12.164285714285715L13.978571428571428,12.164285714285715L13.978571428571428,12.378571428571426L18.378571428571426,12.378571428571426L18.378571428571426,10.12142857142857L17.95,10.12142857142857L17.95,9.264285714285716L17.735714285714284,9.264285714285716L17.735714285714284,8.835714285714285L17.521428571428572,8.835714285714285L17.521428571428572,7.021428571428571L18.478571428571428,7.021428571428571L18.478571428571428,7.235714285714286L19.335714285714285,7.235714285714286L19.335714285714285,7.45z" stroke="none"/><path d="M12.05,3L11.95,3L11.95,2.7357142857142858L13.021428571428569,2.7357142857142858L13.021428571428569,2.521428571428572L19.121428571428574,2.521428571428572L19.121428571428574,2.7357142857142858L19.335714285714285,2.7357142857142858L19.335714285714285,2.95L19.5,2.95L19.5,3.05L19.235714285714284,3.05L19.235714285714284,2.8357142857142854L19.021428571428572,2.8357142857142854L19.021428571428572,2.6214285714285714L13.12142857142857,2.6214285714285714L13.12142857142857,2.8357142857142854L12.05,2.8357142857142854z" stroke="none"/><path d="M4.5,12.05L4.5,11.95L4.878571428571429,11.95L4.878571428571429,11.735714285714284L7.021428571428571,11.735714285714284L7.021428571428571,11.521428571428569L13.978571428571428,11.521428571428569L13.978571428571428,11.95L15,11.95L15,12.05L13.878571428571426,12.05L13.878571428571426,11.62142857142857L7.121428571428571,11.62142857142857L7.121428571428571,11.835714285714285L4.978571428571429,11.835714285714285L4.978571428571429,12.05z" stroke="none"/><path d="M4.5,3.05L4.5,2.95L5.307142857142857,2.95L5.307142857142857,2.7357142857142858L5.735714285714286,2.7357142857142858L5.735714285714286,2.521428571428572L5.95,2.521428571428572L5.95,2.3071428571428574L19.335714285714285,2.3071428571428574L19.335714285714285,2.521428571428572L19.978571428571428,2.521428571428572L19.978571428571428,3.478571428571428L17.735714285714284,3.478571428571428L17.735714285714284,3.2642857142857142L16.664285714285715,3.2642857142857142L16.664285714285715,3.05L16.5,3.05L16.5,2.95L16.764285714285716,2.95L16.764285714285716,3.1642857142857146L17.835714285714285,3.1642857142857146L17.835714285714285,3.3785714285714286L19.878571428571426,3.3785714285714286L19.878571428571426,2.6214285714285714L19.235714285714284,2.6214285714285714L19.235714285714284,2.407142857142857L6.05,2.407142857142857L6.05,2.6214285714285714L5.835714285714285,2.6214285714285714L5.835714285714285,2.8357142857142854L5.407142857142857,2.8357142857142854L5.407142857142857,3.05z" stroke="none"/></svg>