<svg version="1.1" width="30" height="15" xmlns="http://www.w3.org/2000/svg"><path d="M7.878571428571428,4.45L7.878571428571428,3.592857142857143L8.307142857142857,3.592857142857143L8.307142857142857,3.1642857142857146L8.95,3.1642857142857146L8.95,3L9.05,3L9.05,3.2642857142857142L8.407142857142858,3.2642857142857142L8.407142857142858,3.6928571428571426L7.978571428571428,3.6928571428571426L7.978571428571428,6.5928571428571425L8.407142857142858,6.5928571428571425L8.407142857142858,6.807142857142857L9.05,6.807142857142857L9.05,7.5L8.95,7.5L8.95,6.907142857142857L8.307142857142857,6.907142857142857L8.307142857142857,6.692857142857142L7.878571428571428,6.692857142857142L7.878571428571428,4.55L7.664285714285715,4.55L7.664285714285715,4.121428571428571L7.021428571428571,4.121428571428571L7.021428571428571,3.907142857142857L6.5928571428571425,3.907142857142857L6.5928571428571425,3.6928571428571426L5.95,3.6928571428571426L5.95,3L6.05,3L6.05,3.592857142857143L6.692857142857142,3.592857142857143L6.692857142857142,3.8071428571428574L7.121428571428571,3.8071428571428574L7.121428571428571,4.021428571428571L7.764285714285714,4.021428571428571L7.764285714285714,4.45z" stroke="none"/><path d="M19.45,6.378571428571428L19.45,5.735714285714286L19.664285714285715,5.735714285714286L19.664285714285715,5.307142857142857L19.878571428571426,5.307142857142857L19.878571428571426,5.0928571428571425L20.09285714285714,5.0928571428571425L20.09285714285714,4.878571428571429L20.307142857142857,4.878571428571429L20.307142857142857,4.45L21,4.45L21,4.55L20.40714285714286,4.55L20.40714285714286,4.978571428571429L20.192857142857143,4.978571428571429L20.192857142857143,5.192857142857142L19.978571428571428,5.192857142857142L19.978571428571428,5.407142857142857L19.764285714285716,5.407142857142857L19.764285714285716,5.835714285714285L19.55,5.835714285714285L19.55,6.378571428571428L20.621428571428574,6.378571428571428L20.621428571428574,6.5928571428571425L21.05,6.5928571428571425L21.05,6.807142857142857L21.478571428571428,6.807142857142857L21.478571428571428,7.021428571428571L21.692857142857143,7.021428571428571L21.692857142857143,7.235714285714286L22.121428571428574,7.235714285714286L22.121428571428574,7.45L22.5,7.45L22.5,7.55L22.021428571428572,7.55L22.021428571428572,7.335714285714285L21.59285714285714,7.335714285714285L21.59285714285714,7.121428571428571L21.378571428571426,7.121428571428571L21.378571428571426,6.907142857142857L20.95,6.907142857142857L20.95,6.692857142857142L20.521428571428572,6.692857142857142L20.521428571428572,6.478571428571428L16.764285714285716,6.478571428571428L16.764285714285716,6.907142857142857L16.335714285714285,6.907142857142857L16.335714285714285,7.335714285714285L15.692857142857143,7.335714285714285L15.692857142857143,7.55L15,7.55L15,7.45L15.592857142857142,7.45L15.592857142857142,7.235714285714286L16.235714285714284,7.235714285714286L16.235714285714284,6.807142857142857L16.664285714285715,6.807142857142857L16.664285714285715,6.378571428571428z" stroke="none"/><path d="M16.878571428571426,5.307142857142857L16.878571428571426,4.335714285714285L15.807142857142857,4.335714285714285L15.807142857142857,4.121428571428571L15.378571428571426,4.121428571428571L15.378571428571426,3.907142857142857L15.164285714285715,3.907142857142857L15.164285714285715,3.6928571428571426L14.95,3.6928571428571426L14.95,3L15.05,3L15.05,3.592857142857143L15.264285714285716,3.592857142857143L15.264285714285716,3.8071428571428574L15.478571428571428,3.8071428571428574L15.478571428571428,4.021428571428571L15.907142857142858,4.021428571428571L15.907142857142858,4.235714285714286L16.978571428571428,4.235714285714286L16.978571428571428,5.307142857142857L19.235714285714284,5.307142857142857L19.235714285714284,5.0928571428571425L19.664285714285715,5.0928571428571425L19.664285714285715,4.878571428571429L19.878571428571426,4.878571428571429L19.878571428571426,4.235714285714286L20.521428571428572,4.235714285714286L20.521428571428572,4.021428571428571L21.478571428571428,4.021428571428571L21.478571428571428,5.521428571428571L21.90714285714286,5.521428571428571L21.90714285714286,5.95L22.5,5.95L22.5,6.05L21.807142857142857,6.05L21.807142857142857,5.621428571428571L21.378571428571426,5.621428571428571L21.378571428571426,4.121428571428571L20.621428571428574,4.121428571428571L20.621428571428574,4.335714285714285L19.978571428571428,4.335714285714285L19.978571428571428,4.978571428571429L19.764285714285716,4.978571428571429L19.764285714285716,5.192857142857142L19.335714285714285,5.192857142857142L19.335714285714285,5.407142857142857L14.835714285714285,5.407142857142857L14.835714285714285,5.621428571428571L14.62142857142857,5.621428571428571L14.62142857142857,6.05L14.407142857142858,6.05L14.407142857142858,6.478571428571428L14.192857142857143,6.478571428571428L14.192857142857143,6.692857142857142L13.978571428571428,6.692857142857142L13.978571428571428,6.907142857142857L13.764285714285716,6.907142857142857L13.764285714285716,7.55L13.5,7.55L13.5,7.45L13.664285714285715,7.45L13.664285714285715,6.807142857142857L13.878571428571426,6.807142857142857L13.878571428571426,6.5928571428571425L14.092857142857142,6.5928571428571425L14.092857142857142,6.378571428571428L14.307142857142857,6.378571428571428L14.307142857142857,5.95L14.521428571428569,5.95L14.521428571428569,5.521428571428571L14.735714285714284,5.521428571428571L14.735714285714284,5.307142857142857z" stroke="none"/><path d="M16.664285714285715,8.092857142857142L16.664285714285715,7.878571428571428L20.735714285714284,7.878571428571428L20.735714285714284,7.45L21,7.45L21,7.55L20.835714285714285,7.55L20.835714285714285,7.978571428571428L16.764285714285716,7.978571428571428L16.764285714285716,8.092857142857142L16.978571428571428,8.092857142857142L16.978571428571428,8.307142857142857L17.192857142857143,8.307142857142857L17.192857142857143,8.521428571428569L17.40714285714286,8.521428571428569L17.40714285714286,8.735714285714284L17.621428571428574,8.735714285714284L17.621428571428574,9.164285714285715L18.478571428571428,9.164285714285715L18.478571428571428,9.378571428571426L18.692857142857143,9.378571428571426L18.692857142857143,9.592857142857142L19.121428571428574,9.592857142857142L19.121428571428574,10.45L19.5,10.45L19.5,10.55L19.021428571428572,10.55L19.021428571428572,9.692857142857143L18.59285714285714,9.692857142857143L18.59285714285714,9.478571428571428L18.378571428571426,9.478571428571428L18.378571428571426,9.264285714285716L17.521428571428572,9.264285714285716L17.521428571428572,8.835714285714285L17.307142857142857,8.835714285714285L17.307142857142857,8.62142857142857L17.09285714285714,8.62142857142857L17.09285714285714,8.407142857142858L16.878571428571426,8.407142857142858L16.878571428571426,8.192857142857143L16.764285714285716,8.192857142857143L16.764285714285716,8.835714285714285L16.55,8.835714285714285L16.55,9L16.45,9L16.45,8.735714285714284L16.664285714285715,8.735714285714284L16.664285714285715,8.192857142857143L11.521428571428569,8.192857142857143L11.521428571428569,7.55L11.307142857142857,7.55L11.307142857142857,6.907142857142857L10.878571428571426,6.907142857142857L10.878571428571426,6.692857142857142L10.664285714285715,6.692857142857142L10.664285714285715,6.05L10.5,6.05L10.5,5.95L10.764285714285716,5.95L10.764285714285716,6.5928571428571425L10.978571428571428,6.5928571428571425L10.978571428571428,6.807142857142857L11.407142857142858,6.807142857142857L11.407142857142858,7.45L11.62142857142857,7.45L11.62142857142857,8.092857142857142z" stroke="none"/><path d="M9.592857142857142,5.0928571428571425L9.592857142857142,4.45L10.45,4.45L10.45,3.8071428571428574L10.664285714285715,3.8071428571428574L10.664285714285715,3.592857142857143L11.307142857142857,3.592857142857143L11.307142857142857,3.1642857142857146L11.735714285714284,3.1642857142857146L11.735714285714284,2.95L12,2.95L12,3.05L11.835714285714285,3.05L11.835714285714285,3.2642857142857142L11.407142857142858,3.2642857142857142L11.407142857142858,3.6928571428571426L10.764285714285716,3.6928571428571426L10.764285714285716,3.907142857142857L10.55,3.907142857142857L10.55,4.55L9.692857142857143,4.55L9.692857142857143,5.0928571428571425L11.735714285714284,5.0928571428571425L11.735714285714284,4.664285714285715L11.95,4.664285714285715L11.95,4.5L12.05,4.5L12.05,4.764285714285714L11.835714285714285,4.764285714285714L11.835714285714285,5.192857142857142L9.692857142857143,5.192857142857142L9.692857142857143,5.307142857142857L10.978571428571428,5.307142857142857L10.978571428571428,5.735714285714286L12.05,5.735714285714286L12.05,6L11.95,6L11.95,5.835714285714285L10.878571428571426,5.835714285714285L10.878571428571426,5.407142857142857L9.592857142857142,5.407142857142857L9.592857142857142,5.192857142857142L9.478571428571428,5.192857142857142L9.478571428571428,7.978571428571428L4.021428571428571,7.978571428571428L4.021428571428571,7.55L3,7.55L3,7.45L4.121428571428571,7.45L4.121428571428571,7.878571428571428L9.378571428571426,7.878571428571428L9.378571428571426,5.0928571428571425z" stroke="none"/><path d="M18.164285714285715,10.021428571428569L18.164285714285715,9.907142857142858L15.378571428571426,9.907142857142858L15.378571428571426,9.692857142857143L14.95,9.692857142857143L14.95,9.264285714285716L14.735714285714284,9.264285714285716L14.735714285714284,8.835714285714285L13.335714285714285,8.835714285714285L13.335714285714285,11.835714285714285L12.05,11.835714285714285L12.05,12L11.95,12L11.95,11.735714285714284L13.235714285714284,11.735714285714284L13.235714285714284,8.735714285714284L14.835714285714285,8.735714285714284L14.835714285714285,9.164285714285715L15.05,9.164285714285715L15.05,9.592857142857142L15.478571428571428,9.592857142857142L15.478571428571428,9.807142857142857L18.264285714285716,9.807142857142857L18.264285714285716,10.021428571428569L18.692857142857143,10.021428571428569L18.692857142857143,10.235714285714284L18.90714285714286,10.235714285714284L18.90714285714286,10.664285714285715L19.121428571428574,10.664285714285715L19.121428571428574,10.878571428571426L22.335714285714285,10.878571428571426L22.335714285714285,11.092857142857142L22.55,11.092857142857142L22.55,11.521428571428569L22.764285714285716,11.521428571428569L22.764285714285716,11.735714285714284L23.62142857142857,11.735714285714284L23.62142857142857,11.95L24,11.95L24,12.05L23.52142857142857,12.05L23.52142857142857,11.835714285714285L22.664285714285715,11.835714285714285L22.664285714285715,11.62142857142857L22.45,11.62142857142857L22.45,11.192857142857143L22.235714285714284,11.192857142857143L22.235714285714284,10.978571428571428L19.021428571428572,10.978571428571428L19.021428571428572,10.764285714285716L18.807142857142857,10.764285714285716L18.807142857142857,10.335714285714285L18.59285714285714,10.335714285714285L18.59285714285714,10.12142857142857L18.264285714285716,10.12142857142857L18.264285714285716,10.45L18.478571428571428,10.45L18.478571428571428,10.878571428571426L18.90714285714286,10.878571428571426L18.90714285714286,11.092857142857142L21.692857142857143,11.092857142857142L21.692857142857143,11.95L23.192857142857143,11.95L23.192857142857143,12.164285714285715L24.164285714285715,12.164285714285715L24.164285714285715,8.192857142857143L23.95,8.192857142857143L23.95,7.5L24.05,7.5L24.05,8.092857142857142L24.264285714285716,8.092857142857142L24.264285714285716,12.264285714285716L23.09285714285714,12.264285714285716L23.09285714285714,12.05L21.59285714285714,12.05L21.59285714285714,11.192857142857143L18.807142857142857,11.192857142857143L18.807142857142857,10.978571428571428L18.378571428571426,10.978571428571428L18.378571428571426,10.55L18.164285714285715,10.55L18.164285714285715,10.12142857142857L14.307142857142857,10.12142857142857L14.307142857142857,9.692857142857143L13.664285714285715,9.692857142857143L13.664285714285715,9.264285714285716L13.45,9.264285714285716L13.45,9L13.55,9L13.55,9.164285714285715L13.764285714285716,9.164285714285715L13.764285714285716,9.592857142857142L14.407142857142858,9.592857142857142L14.407142857142858,10.021428571428569z" stroke="none"/><path d="M6,10.55L6,10.45L7.5,10.45L7.5,10.55z" stroke="none"/><path d="M3.05,12L2.95,12L2.95,10.5L3.05,10.5z" stroke="none"/><path d="M6,6.05L6,5.95L7.5,5.95L7.5,6.05z" stroke="none"/><path d="M25.45,4.5L25.55,4.5L25.55,5.192857142857142L24.264285714285716,5.192857142857142L24.264285714285716,5.835714285714285L24.05,5.835714285714285L24.05,6L23.95,6L23.95,5.735714285714286L24.164285714285715,5.735714285714286L24.164285714285715,5.0928571428571425L25.45,5.0928571428571425z" stroke="none"/><path d="M2.95,6L3.05,6L3.05,6.5928571428571425L3.2642857142857142,6.5928571428571425L3.2642857142857142,6.807142857142857L3.907142857142857,6.807142857142857L3.907142857142857,7.235714285714286L4.335714285714285,7.235714285714286L4.335714285714285,7.45L4.5,7.45L4.5,7.55L4.235714285714286,7.55L4.235714285714286,7.335714285714285L3.8071428571428574,7.335714285714285L3.8071428571428574,6.907142857142857L3.1642857142857146,6.907142857142857L3.1642857142857146,6.692857142857142L2.95,6.692857142857142z" stroke="none"/><path d="M6.05,7.5L5.95,7.5L5.95,7.335714285714285L5.307142857142857,7.335714285714285L5.307142857142857,7.121428571428571L5.0928571428571425,7.121428571428571L5.0928571428571425,6.692857142857142L4.45,6.692857142857142L4.45,6L4.55,6L4.55,6.5928571428571425L5.192857142857142,6.5928571428571425L5.192857142857142,7.021428571428571L5.407142857142857,7.021428571428571L5.407142857142857,7.235714285714286L6.05,7.235714285714286z" stroke="none"/><path d="M7.5,9.05L7.5,8.95L8.307142857142857,8.95L8.307142857142857,8.735714285714284L8.521428571428569,8.735714285714284L8.521428571428569,8.521428571428569L10.55,8.521428571428569L10.55,9L10.45,9L10.45,8.62142857142857L8.62142857142857,8.62142857142857L8.62142857142857,8.835714285714285L8.407142857142858,8.835714285714285L8.407142857142858,9.05z" stroke="none"/><path d="M9.05,4.5L8.95,4.5L8.95,4.021428571428571L9.378571428571426,4.021428571428571L9.378571428571426,2.6214285714285714L5.621428571428571,2.6214285714285714L5.621428571428571,4.021428571428571L5.835714285714285,4.021428571428571L5.835714285714285,4.235714285714286L6.05,4.235714285714286L6.05,4.5L5.95,4.5L5.95,4.335714285714285L5.735714285714286,4.335714285714285L5.735714285714286,4.121428571428571L5.521428571428571,4.121428571428571L5.521428571428571,2.521428571428572L9.478571428571428,2.521428571428572L9.478571428571428,4.121428571428571L9.05,4.121428571428571z" stroke="none"/><path d="M25.45,9L25.55,9L25.55,10.45L25.764285714285716,10.45L25.764285714285716,10.878571428571426L25.978571428571428,10.878571428571426L25.978571428571428,11.521428571428569L26.40714285714286,11.521428571428569L26.40714285714286,11.735714285714284L26.62142857142857,11.735714285714284L26.62142857142857,11.95L27,11.95L27,12.05L26.52142857142857,12.05L26.52142857142857,11.835714285714285L26.307142857142857,11.835714285714285L26.307142857142857,11.62142857142857L25.878571428571426,11.62142857142857L25.878571428571426,10.978571428571428L25.664285714285715,10.978571428571428L25.664285714285715,10.55L25.45,10.55z" stroke="none"/><path d="M27.05,10.5L26.95,10.5L26.95,9.692857142857143L26.52142857142857,9.692857142857143L26.52142857142857,9.264285714285716L26.09285714285714,9.264285714285716L26.09285714285714,8.835714285714285L25.878571428571426,8.835714285714285L25.878571428571426,7.978571428571428L25.664285714285715,7.978571428571428L25.664285714285715,7.55L25.5,7.55L25.5,7.45L25.764285714285716,7.45L25.764285714285716,7.878571428571428L25.978571428571428,7.878571428571428L25.978571428571428,8.735714285714284L26.192857142857143,8.735714285714284L26.192857142857143,9.164285714285715L26.62142857142857,9.164285714285715L26.62142857142857,9.592857142857142L27.05,9.592857142857142z" stroke="none"/><path d="M7.5,7.45L7.5,7.55L6.5928571428571425,7.55L6.5928571428571425,7.335714285714285L6.378571428571428,7.335714285714285L6.378571428571428,7.121428571428571L5.95,7.121428571428571L5.95,6.907142857142857L5.735714285714286,6.907142857142857L5.735714285714286,6.478571428571428L5.521428571428571,6.478571428571428L5.521428571428571,5.621428571428571L2.6214285714285714,5.621428571428571L2.6214285714285714,10.021428571428569L4.335714285714285,10.021428571428569L4.335714285714285,10.235714285714284L4.55,10.235714285714284L4.55,10.5L4.45,10.5L4.45,10.335714285714285L4.235714285714286,10.335714285714285L4.235714285714286,10.12142857142857L2.521428571428572,10.12142857142857L2.521428571428572,5.521428571428571L5.621428571428571,5.521428571428571L5.621428571428571,6.378571428571428L5.835714285714285,6.378571428571428L5.835714285714285,6.807142857142857L6.05,6.807142857142857L6.05,7.021428571428571L6.478571428571428,7.021428571428571L6.478571428571428,7.235714285714286L6.692857142857142,7.235714285714286L6.692857142857142,7.45z" stroke="none"/><path d="M25.55,6L25.45,6L25.45,5.307142857142857L25.664285714285715,5.307142857142857L25.664285714285715,4.878571428571429L25.878571428571426,4.878571428571429L25.878571428571426,4.121428571428571L23.52142857142857,4.121428571428571L23.52142857142857,3.478571428571428L23.09285714285714,3.478571428571428L23.09285714285714,3.2642857142857142L22.878571428571426,3.2642857142857142L22.878571428571426,3.05L22.5,3.05L22.5,2.95L22.978571428571428,2.95L22.978571428571428,3.1642857142857146L23.192857142857143,3.1642857142857146L23.192857142857143,3.3785714285714286L23.62142857142857,3.3785714285714286L23.62142857142857,4.021428571428571L25.978571428571428,4.021428571428571L25.978571428571428,4.978571428571429L25.764285714285716,4.978571428571429L25.764285714285716,5.407142857142857L25.55,5.407142857142857z" stroke="none"/><path d="M2.95,4.5L3.05,4.5L3.05,4.764285714285714L2.8357142857142854,4.764285714285714L2.8357142857142854,4.978571428571429L2.407142857142857,4.978571428571429L2.407142857142857,12.378571428571426L3.3785714285714286,12.378571428571426L3.3785714285714286,12.164285714285715L3.592857142857143,12.164285714285715L3.592857142857143,11.95L3.8071428571428574,11.95L3.8071428571428574,11.735714285714284L4.45,11.735714285714284L4.45,10.878571428571426L4.878571428571429,10.878571428571426L4.878571428571429,9.907142857142858L3.1642857142857146,9.907142857142858L3.1642857142857146,9.264285714285716L2.95,9.264285714285716L2.95,9L3.05,9L3.05,9.164285714285715L3.2642857142857142,9.164285714285715L3.2642857142857142,9.807142857142857L4.978571428571429,9.807142857142857L4.978571428571429,10.978571428571428L4.55,10.978571428571428L4.55,11.835714285714285L3.907142857142857,11.835714285714285L3.907142857142857,12.05L3.6928571428571426,12.05L3.6928571428571426,12.264285714285716L3.478571428571428,12.264285714285716L3.478571428571428,12.478571428571428L2.3071428571428574,12.478571428571428L2.3071428571428574,4.878571428571429L2.7357142857142858,4.878571428571429L2.7357142857142858,4.664285714285715L2.95,4.664285714285715z" stroke="none"/><path d="M21,3.05L21,2.95L21.807142857142857,2.95L21.807142857142857,2.7357142857142858L22.021428571428572,2.7357142857142858L22.021428571428572,2.521428571428572L24.692857142857143,2.521428571428572L24.692857142857143,2.7357142857142858L24.90714285714286,2.7357142857142858L24.90714285714286,2.95L25.5,2.95L25.5,3.05L24.807142857142857,3.05L24.807142857142857,2.8357142857142854L24.59285714285714,2.8357142857142854L24.59285714285714,2.6214285714285714L22.121428571428574,2.6214285714285714L22.121428571428574,2.8357142857142854L21.90714285714286,2.8357142857142854L21.90714285714286,3.05z" stroke="none"/><path d="M9.05,6L8.95,6L8.95,4.878571428571429L9.378571428571426,4.878571428571429L9.378571428571426,4.235714285714286L9.592857142857142,4.235714285714286L9.592857142857142,2.407142857142857L5.407142857142857,2.407142857142857L5.407142857142857,3.478571428571428L5.192857142857142,3.478571428571428L5.192857142857142,3.6928571428571426L4.978571428571429,3.6928571428571426L4.978571428571429,3.907142857142857L4.764285714285714,3.907142857142857L4.764285714285714,4.335714285714285L4.55,4.335714285714285L4.55,4.5L4.45,4.5L4.45,4.235714285714286L4.664285714285715,4.235714285714286L4.664285714285715,3.8071428571428574L4.878571428571429,3.8071428571428574L4.878571428571429,3.592857142857143L5.0928571428571425,3.592857142857143L5.0928571428571425,3.3785714285714286L5.307142857142857,3.3785714285714286L5.307142857142857,2.3071428571428574L9.692857142857143,2.3071428571428574L9.692857142857143,4.335714285714285L9.478571428571428,4.335714285714285L9.478571428571428,4.978571428571429L9.05,4.978571428571429z" stroke="none"/><path d="M23.95,3L24.05,3L24.05,3.1642857142857146L24.478571428571428,3.1642857142857146L24.478571428571428,3.3785714285714286L25.12142857142857,3.3785714285714286L25.12142857142857,3.592857142857143L26.192857142857143,3.592857142857143L26.192857142857143,6.164285714285715L26.40714285714286,6.164285714285715L26.40714285714286,6.5928571428571425L26.62142857142857,6.5928571428571425L26.62142857142857,7.021428571428571L26.835714285714285,7.021428571428571L26.835714285714285,7.235714285714286L27.05,7.235714285714286L27.05,7.5L26.95,7.5L26.95,7.335714285714285L26.735714285714284,7.335714285714285L26.735714285714284,7.121428571428571L26.52142857142857,7.121428571428571L26.52142857142857,6.692857142857142L26.307142857142857,6.692857142857142L26.307142857142857,6.264285714285714L26.09285714285714,6.264285714285714L26.09285714285714,3.6928571428571426L25.02142857142857,3.6928571428571426L25.02142857142857,3.478571428571428L24.378571428571426,3.478571428571428L24.378571428571426,3.2642857142857142L23.95,3.2642857142857142z" stroke="none"/><path d="M10.55,12L10.45,12L10.45,11.192857142857143L10.235714285714284,11.192857142857143L10.235714285714284,10.978571428571428L10.021428571428569,10.978571428571428L10.021428571428569,10.335714285714285L9.807142857142857,10.335714285714285L9.807142857142857,9.692857142857143L6.164285714285715,9.692857142857143L6.164285714285715,9.478571428571428L5.95,9.478571428571428L5.95,9L6.05,9L6.05,9.378571428571426L6.264285714285714,9.378571428571426L6.264285714285714,9.592857142857142L9.907142857142858,9.592857142857142L9.907142857142858,10.235714285714284L10.12142857142857,10.235714285714284L10.12142857142857,10.878571428571426L10.335714285714285,10.878571428571426L10.335714285714285,11.092857142857142L10.55,11.092857142857142z" stroke="none"/><path d="M13.5,3.05L13.5,2.95L14.521428571428569,2.95L14.521428571428569,2.521428571428572L15.478571428571428,2.521428571428572L15.478571428571428,3.592857142857143L17.835714285714285,3.592857142857143L17.835714285714285,4.021428571428571L18.692857142857143,4.021428571428571L18.692857142857143,4.235714285714286L19.335714285714285,4.235714285714286L19.335714285714285,4.45L19.5,4.45L19.5,4.55L19.235714285714284,4.55L19.235714285714284,4.335714285714285L18.59285714285714,4.335714285714285L18.59285714285714,4.121428571428571L17.735714285714284,4.121428571428571L17.735714285714284,3.6928571428571426L15.378571428571426,3.6928571428571426L15.378571428571426,2.6214285714285714L14.62142857142857,2.6214285714285714L14.62142857142857,3.05z" stroke="none"/><path d="M10.45,7.5L10.55,7.5L10.55,7.878571428571428L10.764285714285716,7.878571428571428L10.764285714285716,8.092857142857142L10.978571428571428,8.092857142857142L10.978571428571428,11.307142857142857L11.192857142857143,11.307142857142857L11.192857142857143,11.735714285714284L11.407142857142858,11.735714285714284L11.407142857142858,11.95L11.62142857142857,11.95L11.62142857142857,12.378571428571426L16.02142857142857,12.378571428571426L16.02142857142857,12.164285714285715L16.45,12.164285714285715L16.45,12L16.55,12L16.55,12.264285714285716L16.12142857142857,12.264285714285716L16.12142857142857,12.478571428571428L11.521428571428569,12.478571428571428L11.521428571428569,12.05L11.307142857142857,12.05L11.307142857142857,11.835714285714285L11.092857142857142,11.835714285714285L11.092857142857142,11.407142857142858L10.878571428571426,11.407142857142858L10.878571428571426,8.192857142857143L10.664285714285715,8.192857142857143L10.664285714285715,7.978571428571428L10.45,7.978571428571428z" stroke="none"/><path d="M4.45,9L4.55,9L4.55,9.592857142857142L5.192857142857142,9.592857142857142L5.192857142857142,11.62142857142857L4.764285714285714,11.62142857142857L4.764285714285714,12.05L4.55,12.05L4.55,12.264285714285716L3.907142857142857,12.264285714285716L3.907142857142857,12.692857142857143L2.092857142857143,12.692857142857143L2.092857142857143,4.664285714285715L2.521428571428572,4.664285714285715L2.521428571428572,4.021428571428571L2.7357142857142858,4.021428571428571L2.7357142857142858,3.592857142857143L3.3785714285714286,3.592857142857143L3.3785714285714286,2.95L4.021428571428571,2.95L4.021428571428571,2.092857142857143L10.764285714285716,2.092857142857143L10.764285714285716,2.3071428571428574L11.62142857142857,2.3071428571428574L11.62142857142857,2.521428571428572L12.478571428571428,2.521428571428572L12.478571428571428,7.121428571428571L12.264285714285716,7.121428571428571L12.264285714285716,7.55L12,7.55L12,7.45L12.164285714285715,7.45L12.164285714285715,7.021428571428571L12.378571428571426,7.021428571428571L12.378571428571426,2.6214285714285714L11.521428571428569,2.6214285714285714L11.521428571428569,2.407142857142857L10.664285714285715,2.407142857142857L10.664285714285715,2.1928571428571426L4.121428571428571,2.1928571428571426L4.121428571428571,3.05L3.478571428571428,3.05L3.478571428571428,3.6928571428571426L2.8357142857142854,3.6928571428571426L2.8357142857142854,4.121428571428571L2.6214285714285714,4.121428571428571L2.6214285714285714,4.764285714285714L2.1928571428571426,4.764285714285714L2.1928571428571426,12.592857142857142L3.8071428571428574,12.592857142857142L3.8071428571428574,12.164285714285715L4.45,12.164285714285715L4.45,11.95L4.664285714285715,11.95L4.664285714285715,11.521428571428569L5.0928571428571425,11.521428571428569L5.0928571428571425,9.692857142857143L4.45,9.692857142857143z" stroke="none"/><path d="M27.05,4.5L26.95,4.5L26.95,3.907142857142857L26.735714285714284,3.907142857142857L26.735714285714284,3.6928571428571426L26.307142857142857,3.6928571428571426L26.307142857142857,3.478571428571428L26.09285714285714,3.478571428571428L26.09285714285714,3.05L25.878571428571426,3.05L25.878571428571426,2.6214285714285714L25.664285714285715,2.6214285714285714L25.664285714285715,2.407142857142857L20.40714285714286,2.407142857142857L20.40714285714286,2.6214285714285714L19.764285714285716,2.6214285714285714L19.764285714285716,2.8357142857142854L19.55,2.8357142857142854L19.55,3L19.45,3L19.45,2.7357142857142858L19.664285714285715,2.7357142857142858L19.664285714285715,2.521428571428572L20.307142857142857,2.521428571428572L20.307142857142857,2.3071428571428574L25.764285714285716,2.3071428571428574L25.764285714285716,2.521428571428572L25.978571428571428,2.521428571428572L25.978571428571428,2.95L26.192857142857143,2.95L26.192857142857143,3.3785714285714286L26.40714285714286,3.3785714285714286L26.40714285714286,3.592857142857143L26.835714285714285,3.592857142857143L26.835714285714285,3.8071428571428574L27.05,3.8071428571428574z" stroke="none"/><path d="M21.05,10.5L20.95,10.5L20.95,9.378571428571426L21.378571428571426,9.378571428571426L21.378571428571426,8.092857142857142L23.09285714285714,8.092857142857142L23.09285714285714,7.878571428571428L23.52142857142857,7.878571428571428L23.52142857142857,7.021428571428571L24.478571428571428,7.021428571428571L24.478571428571428,12.478571428571428L17.40714285714286,12.478571428571428L17.40714285714286,12.692857142857143L11.307142857142857,12.692857142857143L11.307142857142857,12.478571428571428L11.092857142857142,12.478571428571428L11.092857142857142,12.05L10.878571428571426,12.05L10.878571428571426,11.62142857142857L10.664285714285715,11.62142857142857L10.664285714285715,10.978571428571428L10.45,10.978571428571428L10.45,10.5L10.55,10.5L10.55,10.878571428571426L10.764285714285716,10.878571428571426L10.764285714285716,11.521428571428569L10.978571428571428,11.521428571428569L10.978571428571428,11.95L11.192857142857143,11.95L11.192857142857143,12.378571428571426L11.407142857142858,12.378571428571426L11.407142857142858,12.592857142857142L17.307142857142857,12.592857142857142L17.307142857142857,12.378571428571426L24.378571428571426,12.378571428571426L24.378571428571426,7.121428571428571L23.62142857142857,7.121428571428571L23.62142857142857,7.978571428571428L23.192857142857143,7.978571428571428L23.192857142857143,8.192857142857143L21.478571428571428,8.192857142857143L21.478571428571428,9.478571428571428L21.05,9.478571428571428z" stroke="none"/><path d="M9,8.95L9,9.05L8.62142857142857,9.05L8.62142857142857,9.478571428571428L7.021428571428571,9.478571428571428L7.021428571428571,9.05L6.807142857142857,9.05L6.807142857142857,8.835714285714285L6.5928571428571425,8.835714285714285L6.5928571428571425,8.62142857142857L5.621428571428571,8.62142857142857L5.621428571428571,9.378571428571426L5.835714285714285,9.378571428571426L5.835714285714285,9.807142857142857L8.192857142857143,9.807142857142857L8.192857142857143,10.235714285714284L8.407142857142858,10.235714285714284L8.407142857142858,11.092857142857142L8.62142857142857,11.092857142857142L8.62142857142857,11.735714285714284L8.835714285714285,11.735714285714284L8.835714285714285,12.164285714285715L9.05,12.164285714285715L9.05,12.378571428571426L10.978571428571428,12.378571428571426L10.978571428571428,12.592857142857142L11.192857142857143,12.592857142857142L11.192857142857143,12.807142857142857L24.164285714285715,12.807142857142857L24.164285714285715,12.592857142857142L24.59285714285714,12.592857142857142L24.59285714285714,6.907142857142857L23.40714285714286,6.907142857142857L23.40714285714286,7.335714285714285L22.978571428571428,7.335714285714285L22.978571428571428,7.978571428571428L21.264285714285716,7.978571428571428L21.264285714285716,8.835714285714285L21.05,8.835714285714285L21.05,9L20.95,9L20.95,8.735714285714284L21.164285714285715,8.735714285714284L21.164285714285715,7.878571428571428L22.878571428571426,7.878571428571428L22.878571428571426,7.235714285714286L23.307142857142857,7.235714285714286L23.307142857142857,6.807142857142857L24.692857142857143,6.807142857142857L24.692857142857143,12.692857142857143L24.264285714285716,12.692857142857143L24.264285714285716,12.907142857142858L11.092857142857142,12.907142857142858L11.092857142857142,12.692857142857143L10.878571428571426,12.692857142857143L10.878571428571426,12.478571428571428L8.95,12.478571428571428L8.95,12.264285714285716L8.735714285714284,12.264285714285716L8.735714285714284,11.835714285714285L8.521428571428569,11.835714285714285L8.521428571428569,11.192857142857143L8.307142857142857,11.192857142857143L8.307142857142857,10.335714285714285L8.092857142857142,10.335714285714285L8.092857142857142,9.907142857142858L5.735714285714286,9.907142857142858L5.735714285714286,9.478571428571428L5.521428571428571,9.478571428571428L5.521428571428571,8.521428571428569L6.692857142857142,8.521428571428569L6.692857142857142,8.735714285714284L6.907142857142857,8.735714285714284L6.907142857142857,8.95L7.121428571428571,8.95L7.121428571428571,9.378571428571426L8.521428571428569,9.378571428571426L8.521428571428569,8.95z" stroke="none"/><path d="M19.5,7.45L19.5,7.55L17.40714285714286,7.55L17.40714285714286,7.764285714285714L16.55,7.764285714285714L16.55,7.978571428571428L13.021428571428569,7.978571428571428L13.021428571428569,3.05L12.592857142857142,3.05L12.592857142857142,2.407142857142857L12.164285714285715,2.407142857142857L12.164285714285715,2.1928571428571426L10.878571428571426,2.1928571428571426L10.878571428571426,1.9785714285714286L3.6928571428571426,1.9785714285714286L3.6928571428571426,2.1928571428571426L3.478571428571428,2.1928571428571426L3.478571428571428,2.6214285714285714L3.2642857142857142,2.6214285714285714L3.2642857142857142,3.478571428571428L2.6214285714285714,3.478571428571428L2.6214285714285714,3.6928571428571426L2.407142857142857,3.6928571428571426L2.407142857142857,4.121428571428571L1.9785714285714286,4.121428571428571L1.9785714285714286,12.807142857142857L7.235714285714286,12.807142857142857L7.235714285714286,11.95L7.5,11.95L7.5,12.05L7.335714285714285,12.05L7.335714285714285,12.907142857142858L1.8785714285714286,12.907142857142858L1.8785714285714286,4.021428571428571L2.3071428571428574,4.021428571428571L2.3071428571428574,3.592857142857143L2.521428571428572,3.592857142857143L2.521428571428572,3.3785714285714286L3.1642857142857146,3.3785714285714286L3.1642857142857146,2.521428571428572L3.3785714285714286,2.521428571428572L3.3785714285714286,2.092857142857143L3.592857142857143,2.092857142857143L3.592857142857143,1.8785714285714286L10.978571428571428,1.8785714285714286L10.978571428571428,2.092857142857143L12.264285714285716,2.092857142857143L12.264285714285716,2.3071428571428574L12.692857142857143,2.3071428571428574L12.692857142857143,2.95L13.12142857142857,2.95L13.12142857142857,7.878571428571428L16.45,7.878571428571428L16.45,7.664285714285715L17.307142857142857,7.664285714285715L17.307142857142857,7.45z" stroke="none"/></svg>