<svg version="1.1" width="30" height="15" xmlns="http://www.w3.org/2000/svg"><path d="M6.807142857142857,4.878571428571429L6.807142857142857,4.235714285714286L7.021428571428571,4.235714285714286L7.021428571428571,4.021428571428571L8.307142857142857,4.021428571428571L8.307142857142857,3.8071428571428574L8.521428571428569,3.8071428571428574L8.521428571428569,2.95L9,2.95L9,3.05L8.62142857142857,3.05L8.62142857142857,3.907142857142857L8.407142857142858,3.907142857142857L8.407142857142858,4.121428571428571L7.121428571428571,4.121428571428571L7.121428571428571,4.335714285714285L6.907142857142857,4.335714285714285L6.907142857142857,4.878571428571429L7.021428571428571,4.878571428571429L7.021428571428571,4.664285714285715L7.235714285714286,4.664285714285715L7.235714285714286,4.45L7.5,4.45L7.5,4.55L7.335714285714285,4.55L7.335714285714285,4.764285714285714L7.121428571428571,4.764285714285714L7.121428571428571,4.978571428571429L5.835714285714285,4.978571428571429L5.835714285714285,5.621428571428571L5.621428571428571,5.621428571428571L5.621428571428571,6.05L4.978571428571429,6.05L4.978571428571429,6.478571428571428L4.764285714285714,6.478571428571428L4.764285714285714,6.692857142857142L4.55,6.692857142857142L4.55,7.5L4.45,7.5L4.45,6.5928571428571425L4.664285714285715,6.5928571428571425L4.664285714285715,6.378571428571428L4.878571428571429,6.378571428571428L4.878571428571429,5.95L5.521428571428571,5.95L5.521428571428571,5.521428571428571L5.735714285714286,5.521428571428571L5.735714285714286,4.878571428571429z" stroke="none"/><path d="M9.164285714285715,5.0928571428571425L9.164285714285715,4.878571428571429L10.021428571428569,4.878571428571429L10.021428571428569,4.021428571428571L11.95,4.021428571428571L11.95,3.592857142857143L12.378571428571426,3.592857142857143L12.378571428571426,3.3785714285714286L12.807142857142857,3.3785714285714286L12.807142857142857,2.95L13.5,2.95L13.5,3.05L12.907142857142858,3.05L12.907142857142858,3.478571428571428L12.478571428571428,3.478571428571428L12.478571428571428,3.6928571428571426L12.05,3.6928571428571426L12.05,4.121428571428571L10.12142857142857,4.121428571428571L10.12142857142857,4.978571428571429L9.264285714285716,4.978571428571429L9.264285714285716,5.192857142857142L9.05,5.192857142857142L9.05,5.621428571428571L8.835714285714285,5.621428571428571L8.835714285714285,5.835714285714285L7.764285714285714,5.835714285714285L7.764285714285714,6.05L7.5,6.05L7.5,5.95L7.664285714285715,5.95L7.664285714285715,5.735714285714286L8.735714285714284,5.735714285714286L8.735714285714284,5.521428571428571L8.95,5.521428571428571L8.95,5.192857142857142L6.05,5.192857142857142L6.05,6L5.95,6L5.95,5.0928571428571425z" stroke="none"/><path d="M8.95,6.807142857142857L8.95,6.5928571428571425L10.878571428571426,6.5928571428571425L10.878571428571426,5.735714285714286L11.092857142857142,5.735714285714286L11.092857142857142,5.521428571428571L11.521428571428569,5.521428571428571L11.521428571428569,5.0928571428571425L11.735714285714284,5.0928571428571425L11.735714285714284,4.878571428571429L11.95,4.878571428571429L11.95,4.5L12.05,4.5L12.05,4.978571428571429L11.835714285714285,4.978571428571429L11.835714285714285,5.192857142857142L11.62142857142857,5.192857142857142L11.62142857142857,5.621428571428571L11.192857142857143,5.621428571428571L11.192857142857143,5.835714285714285L10.978571428571428,5.835714285714285L10.978571428571428,6.692857142857142L9.05,6.692857142857142L9.05,6.807142857142857L9.478571428571428,6.807142857142857L9.478571428571428,9.05L9,9.05L9,8.95L9.378571428571426,8.95L9.378571428571426,6.907142857142857L7.55,6.907142857142857L7.55,7.55L6,7.55L6,7.45L7.45,7.45L7.45,6.807142857142857z" stroke="none"/><path d="M20.521428571428572,11.092857142857142L20.521428571428572,10.978571428571428L20.09285714285714,10.978571428571428L20.09285714285714,10.55L19.664285714285715,10.55L19.664285714285715,10.335714285714285L18.692857142857143,10.335714285714285L18.692857142857143,10.55L17.835714285714285,10.55L17.835714285714285,10.764285714285716L17.621428571428574,10.764285714285716L17.621428571428574,10.978571428571428L16.978571428571428,10.978571428571428L16.978571428571428,11.192857142857143L16.335714285714285,11.192857142857143L16.335714285714285,11.407142857142858L15.907142857142858,11.407142857142858L15.907142857142858,11.62142857142857L15.692857142857143,11.62142857142857L15.692857142857143,11.835714285714285L15.478571428571428,11.835714285714285L15.478571428571428,12.05L15,12.05L15,11.95L15.378571428571426,11.95L15.378571428571426,11.735714285714284L15.592857142857142,11.735714285714284L15.592857142857142,11.521428571428569L15.807142857142857,11.521428571428569L15.807142857142857,11.307142857142857L16.235714285714284,11.307142857142857L16.235714285714284,11.092857142857142L16.878571428571426,11.092857142857142L16.878571428571426,10.878571428571426L17.521428571428572,10.878571428571426L17.521428571428572,10.664285714285715L17.735714285714284,10.664285714285715L17.735714285714284,10.45L18.59285714285714,10.45L18.59285714285714,10.235714285714284L19.764285714285716,10.235714285714284L19.764285714285716,10.45L20.192857142857143,10.45L20.192857142857143,10.878571428571426L20.621428571428574,10.878571428571426L20.621428571428574,11.092857142857142L23.735714285714284,11.092857142857142L23.735714285714284,10.878571428571426L23.95,10.878571428571426L23.95,10.5L24.05,10.5L24.05,10.978571428571428L23.835714285714285,10.978571428571428L23.835714285714285,11.192857142857143L20.621428571428574,11.192857142857143L20.621428571428574,11.307142857142857L22.55,11.307142857142857L22.55,11.521428571428569L24.05,11.521428571428569L24.05,12L23.95,12L23.95,11.62142857142857L22.45,11.62142857142857L22.45,11.407142857142858L20.521428571428572,11.407142857142858L20.521428571428572,11.192857142857143L19.878571428571426,11.192857142857143L19.878571428571426,10.978571428571428L19.664285714285715,10.978571428571428L19.664285714285715,10.764285714285716L19.45,10.764285714285716L19.45,10.5L19.55,10.5L19.55,10.664285714285715L19.764285714285716,10.664285714285715L19.764285714285716,10.878571428571426L19.978571428571428,10.878571428571426L19.978571428571428,11.092857142857142z" stroke="none"/><path d="M19.45,3.592857142857143L19.45,3.3785714285714286L21.59285714285714,3.3785714285714286L21.59285714285714,2.95L21.807142857142857,2.95L21.807142857142857,2.7357142857142858L23.40714285714286,2.7357142857142858L23.40714285714286,2.95L24,2.95L24,3.05L23.307142857142857,3.05L23.307142857142857,2.8357142857142854L21.90714285714286,2.8357142857142854L21.90714285714286,3.05L21.692857142857143,3.05L21.692857142857143,3.478571428571428L19.55,3.478571428571428L19.55,3.592857142857143L22.021428571428572,3.592857142857143L22.021428571428572,2.95L22.5,2.95L22.5,3.05L22.121428571428574,3.05L22.121428571428574,3.6928571428571426L19.55,3.6928571428571426L19.55,3.907142857142857L14.835714285714285,3.907142857142857L14.835714285714285,4.335714285714285L13.55,4.335714285714285L13.55,4.5L13.45,4.5L13.45,4.235714285714286L14.735714285714284,4.235714285714286L14.735714285714284,3.8071428571428574L19.45,3.8071428571428574L19.45,3.6928571428571426L19.021428571428572,3.6928571428571426L19.021428571428572,3.478571428571428L18.807142857142857,3.478571428571428L18.807142857142857,3.2642857142857142L18.164285714285715,3.2642857142857142L18.164285714285715,3.05L18,3.05L18,2.95L18.264285714285716,2.95L18.264285714285716,3.1642857142857146L18.90714285714286,3.1642857142857146L18.90714285714286,3.3785714285714286L19.121428571428574,3.3785714285714286L19.121428571428574,3.592857142857143z" stroke="none"/><path d="M13.021428571428569,7.45L13.021428571428569,3.8071428571428574L13.235714285714284,3.8071428571428574L13.235714285714284,3.3785714285714286L13.878571428571426,3.3785714285714286L13.878571428571426,2.6214285714285714L12.478571428571428,2.6214285714285714L12.478571428571428,2.8357142857142854L12.05,2.8357142857142854L12.05,3.2642857142857142L11.835714285714285,3.2642857142857142L11.835714285714285,3.478571428571428L11.62142857142857,3.478571428571428L11.62142857142857,3.6928571428571426L10.764285714285716,3.6928571428571426L10.764285714285716,3.907142857142857L9.692857142857143,3.907142857142857L9.692857142857143,4.121428571428571L9.478571428571428,4.121428571428571L9.478571428571428,4.335714285714285L9.264285714285716,4.335714285714285L9.264285714285716,4.55L9,4.55L9,4.45L9.164285714285715,4.45L9.164285714285715,4.235714285714286L9.378571428571426,4.235714285714286L9.378571428571426,4.021428571428571L9.592857142857142,4.021428571428571L9.592857142857142,3.8071428571428574L10.664285714285715,3.8071428571428574L10.664285714285715,3.592857142857143L11.521428571428569,3.592857142857143L11.521428571428569,3.3785714285714286L11.735714285714284,3.3785714285714286L11.735714285714284,3.1642857142857146L11.95,3.1642857142857146L11.95,2.7357142857142858L12.378571428571426,2.7357142857142858L12.378571428571426,2.521428571428572L13.978571428571428,2.521428571428572L13.978571428571428,3.478571428571428L13.335714285714285,3.478571428571428L13.335714285714285,3.907142857142857L13.12142857142857,3.907142857142857L13.12142857142857,7.45L16.978571428571428,7.45L16.978571428571428,7.664285714285715L17.40714285714286,7.664285714285715L17.40714285714286,7.878571428571428L20.307142857142857,7.878571428571428L20.307142857142857,7.45L21,7.45L21,7.55L20.40714285714286,7.55L20.40714285714286,7.978571428571428L17.307142857142857,7.978571428571428L17.307142857142857,7.764285714285714L16.878571428571426,7.764285714285714L16.878571428571426,7.55L13.12142857142857,7.55L13.12142857142857,8.407142857142858L12.692857142857143,8.407142857142858L12.692857142857143,9.05L12,9.05L12,8.95L12.592857142857142,8.95L12.592857142857142,8.307142857142857L13.021428571428569,8.307142857142857L13.021428571428569,7.55L12.692857142857143,7.55L12.692857142857143,7.764285714285714L11.835714285714285,7.764285714285714L11.835714285714285,7.978571428571428L11.62142857142857,7.978571428571428L11.62142857142857,8.62142857142857L10.764285714285716,8.62142857142857L10.764285714285716,9.05L10.5,9.05L10.5,8.95L10.664285714285715,8.95L10.664285714285715,8.521428571428569L11.521428571428569,8.521428571428569L11.521428571428569,7.878571428571428L11.735714285714284,7.878571428571428L11.735714285714284,7.664285714285715L12.592857142857142,7.664285714285715L12.592857142857142,7.45z" stroke="none"/><path d="M25.45,10.5L25.55,10.5L25.55,12L25.45,12z" stroke="none"/><path d="M25.5,8.95L25.5,9.05L24,9.05L24,8.95z" stroke="none"/><path d="M4.55,4.5L4.45,4.5L4.45,3.8071428571428574L4.664285714285715,3.8071428571428574L4.664285714285715,3.592857142857143L5.0928571428571425,3.592857142857143L5.0928571428571425,3.3785714285714286L5.735714285714286,3.3785714285714286L5.735714285714286,3.1642857142857146L5.95,3.1642857142857146L5.95,3L6.05,3L6.05,3.2642857142857142L5.835714285714285,3.2642857142857142L5.835714285714285,3.478571428571428L5.192857142857142,3.478571428571428L5.192857142857142,3.6928571428571426L4.764285714285714,3.6928571428571426L4.764285714285714,3.907142857142857L4.55,3.907142857142857z" stroke="none"/><path d="M7.5,2.95L7.5,3.05L6.5928571428571425,3.05L6.5928571428571425,2.8357142857142854L6.378571428571428,2.8357142857142854L6.378571428571428,2.6214285714285714L5.407142857142857,2.6214285714285714L5.407142857142857,2.8357142857142854L4.978571428571429,2.8357142857142854L4.978571428571429,3.05L4.5,3.05L4.5,2.95L4.878571428571429,2.95L4.878571428571429,2.7357142857142858L5.307142857142857,2.7357142857142858L5.307142857142857,2.521428571428572L6.478571428571428,2.521428571428572L6.478571428571428,2.7357142857142858L6.692857142857142,2.7357142857142858L6.692857142857142,2.95z" stroke="none"/><path d="M21,12.05L21,11.95L21.90714285714286,11.95L21.90714285714286,12.378571428571426L24.378571428571426,12.378571428571426L24.378571428571426,10.12142857142857L23.307142857142857,10.12142857142857L23.307142857142857,9.907142857142858L23.09285714285714,9.907142857142858L23.09285714285714,9.478571428571428L22.664285714285715,9.478571428571428L22.664285714285715,9.264285714285716L22.45,9.264285714285716L22.45,9L22.55,9L22.55,9.164285714285715L22.764285714285716,9.164285714285715L22.764285714285716,9.378571428571426L23.192857142857143,9.378571428571426L23.192857142857143,9.807142857142857L23.40714285714286,9.807142857142857L23.40714285714286,10.021428571428569L24.478571428571428,10.021428571428569L24.478571428571428,12.478571428571428L21.807142857142857,12.478571428571428L21.807142857142857,12.05z" stroke="none"/><path d="M4.55,12L4.45,12L4.45,11.521428571428569L4.664285714285715,11.521428571428569L4.664285714285715,11.092857142857142L4.878571428571429,11.092857142857142L4.878571428571429,9.378571428571426L5.0928571428571425,9.378571428571426L5.0928571428571425,9.164285714285715L5.307142857142857,9.164285714285715L5.307142857142857,8.95L6,8.95L6,9.05L5.407142857142857,9.05L5.407142857142857,9.264285714285716L5.192857142857142,9.264285714285716L5.192857142857142,9.478571428571428L4.978571428571429,9.478571428571428L4.978571428571429,11.192857142857143L4.764285714285714,11.192857142857143L4.764285714285714,11.62142857142857L4.55,11.62142857142857z" stroke="none"/><path d="M19.5,7.55L19.5,7.45L20.09285714285714,7.45L20.09285714285714,7.235714285714286L20.521428571428572,7.235714285714286L20.521428571428572,7.021428571428571L21.478571428571428,7.021428571428571L21.478571428571428,8.192857142857143L20.621428571428574,8.192857142857143L20.621428571428574,8.407142857142858L19.764285714285716,8.407142857142858L19.764285714285716,8.835714285714285L19.55,8.835714285714285L19.55,9.264285714285716L19.335714285714285,9.264285714285716L19.335714285714285,9.692857142857143L18.264285714285716,9.692857142857143L18.264285714285716,9.907142857142858L18.05,9.907142857142858L18.05,10.12142857142857L17.621428571428574,10.12142857142857L17.621428571428574,10.335714285714285L16.764285714285716,10.335714285714285L16.764285714285716,10.55L16.5,10.55L16.5,10.45L16.664285714285715,10.45L16.664285714285715,10.235714285714284L17.521428571428572,10.235714285714284L17.521428571428572,10.021428571428569L17.95,10.021428571428569L17.95,9.807142857142857L18.164285714285715,9.807142857142857L18.164285714285715,9.592857142857142L19.235714285714284,9.592857142857142L19.235714285714284,9.164285714285715L19.45,9.164285714285715L19.45,8.735714285714284L19.664285714285715,8.735714285714284L19.664285714285715,8.307142857142857L20.521428571428572,8.307142857142857L20.521428571428572,8.092857142857142L21.378571428571426,8.092857142857142L21.378571428571426,7.121428571428571L20.621428571428574,7.121428571428571L20.621428571428574,7.335714285714285L20.192857142857143,7.335714285714285L20.192857142857143,7.55z" stroke="none"/><path d="M27,5.95L27,6.05L26.09285714285714,6.05L26.09285714285714,5.835714285714285L25.878571428571426,5.835714285714285L25.878571428571426,5.621428571428571L23.835714285714285,5.621428571428571L23.835714285714285,5.835714285714285L23.62142857142857,5.835714285714285L23.62142857142857,6.05L22.5,6.05L22.5,5.95L23.52142857142857,5.95L23.52142857142857,5.735714285714286L23.735714285714284,5.735714285714286L23.735714285714284,5.521428571428571L25.978571428571428,5.521428571428571L25.978571428571428,5.735714285714286L26.192857142857143,5.735714285714286L26.192857142857143,5.95z" stroke="none"/><path d="M3,7.55L3,7.45L3.478571428571428,7.45L3.478571428571428,7.664285714285715L4.121428571428571,7.664285714285715L4.121428571428571,7.878571428571428L7.121428571428571,7.878571428571428L7.121428571428571,8.092857142857142L7.335714285714285,8.092857142857142L7.335714285714285,8.735714285714284L7.55,8.735714285714284L7.55,9L7.45,9L7.45,8.835714285714285L7.235714285714286,8.835714285714285L7.235714285714286,8.192857142857143L7.021428571428571,8.192857142857143L7.021428571428571,7.978571428571428L4.021428571428571,7.978571428571428L4.021428571428571,7.764285714285714L3.3785714285714286,7.764285714285714L3.3785714285714286,7.55z" stroke="none"/><path d="M10.5,2.95L10.5,3.05L10.235714285714284,3.05L10.235714285714284,2.8357142857142854L9.378571428571426,2.8357142857142854L9.378571428571426,2.6214285714285714L8.407142857142858,2.6214285714285714L8.407142857142858,3.478571428571428L7.335714285714285,3.478571428571428L7.335714285714285,3.6928571428571426L7.121428571428571,3.6928571428571426L7.121428571428571,3.907142857142857L6.907142857142857,3.907142857142857L6.907142857142857,4.121428571428571L6.692857142857142,4.121428571428571L6.692857142857142,4.335714285714285L6.264285714285714,4.335714285714285L6.264285714285714,4.55L6,4.55L6,4.45L6.164285714285715,4.45L6.164285714285715,4.235714285714286L6.5928571428571425,4.235714285714286L6.5928571428571425,4.021428571428571L6.807142857142857,4.021428571428571L6.807142857142857,3.8071428571428574L7.021428571428571,3.8071428571428574L7.021428571428571,3.592857142857143L7.235714285714286,3.592857142857143L7.235714285714286,3.3785714285714286L8.307142857142857,3.3785714285714286L8.307142857142857,2.521428571428572L9.478571428571428,2.521428571428572L9.478571428571428,2.7357142857142858L10.335714285714285,2.7357142857142858L10.335714285714285,2.95z" stroke="none"/><path d="M4.55,10.5L4.45,10.5L4.45,9.164285714285715L4.878571428571429,9.164285714285715L4.878571428571429,8.735714285714284L5.521428571428571,8.735714285714284L5.521428571428571,8.521428571428569L6.907142857142857,8.521428571428569L6.907142857142857,9.378571428571426L7.878571428571428,9.378571428571426L7.878571428571428,8.95L8.307142857142857,8.95L8.307142857142857,8.735714285714284L8.521428571428569,8.735714285714284L8.521428571428569,8.307142857142857L8.735714285714284,8.307142857142857L8.735714285714284,7.664285714285715L8.95,7.664285714285715L8.95,7.5L9.05,7.5L9.05,7.764285714285714L8.835714285714285,7.764285714285714L8.835714285714285,8.407142857142858L8.62142857142857,8.407142857142858L8.62142857142857,8.835714285714285L8.407142857142858,8.835714285714285L8.407142857142858,9.05L7.978571428571428,9.05L7.978571428571428,9.478571428571428L6.807142857142857,9.478571428571428L6.807142857142857,8.62142857142857L5.621428571428571,8.62142857142857L5.621428571428571,8.835714285714285L4.978571428571429,8.835714285714285L4.978571428571429,9.264285714285716L4.55,9.264285714285716z" stroke="none"/><path d="M12.05,12L11.95,12L11.95,10.45L13.021428571428569,10.45L13.021428571428569,10.021428571428569L15.164285714285715,10.021428571428569L15.164285714285715,9.807142857142857L15.807142857142857,9.807142857142857L15.807142857142857,9.378571428571426L16.02142857142857,9.378571428571426L16.02142857142857,9.164285714285715L16.45,9.164285714285715L16.45,9L16.55,9L16.55,9.264285714285716L16.12142857142857,9.264285714285716L16.12142857142857,9.478571428571428L15.907142857142858,9.478571428571428L15.907142857142858,9.907142857142858L15.264285714285716,9.907142857142858L15.264285714285716,10.12142857142857L13.12142857142857,10.12142857142857L13.12142857142857,10.55L12.05,10.55z" stroke="none"/><path d="M22.5,11.95L22.5,12.05L22.235714285714284,12.05L22.235714285714284,11.835714285714285L21.378571428571426,11.835714285714285L21.378571428571426,11.62142857142857L16.55,11.62142857142857L16.55,12L16.45,12L16.45,11.521428571428569L21.478571428571428,11.521428571428569L21.478571428571428,11.735714285714284L22.335714285714285,11.735714285714284L22.335714285714285,11.95z" stroke="none"/><path d="M25.5,2.95L25.5,3.05L24.59285714285714,3.05L24.59285714285714,2.8357142857142854L24.378571428571426,2.8357142857142854L24.378571428571426,2.6214285714285714L20.621428571428574,2.6214285714285714L20.621428571428574,2.8357142857142854L20.40714285714286,2.8357142857142854L20.40714285714286,3.05L19.5,3.05L19.5,2.95L20.307142857142857,2.95L20.307142857142857,2.7357142857142858L20.521428571428572,2.7357142857142858L20.521428571428572,2.521428571428572L24.478571428571428,2.521428571428572L24.478571428571428,2.7357142857142858L24.692857142857143,2.7357142857142858L24.692857142857143,2.95z" stroke="none"/><path d="M21,4.55L21,4.45L24.59285714285714,4.45L24.59285714285714,4.235714285714286L24.807142857142857,4.235714285714286L24.807142857142857,4.021428571428571L25.235714285714284,4.021428571428571L25.235714285714284,3.8071428571428574L25.878571428571426,3.8071428571428574L25.878571428571426,2.6214285714285714L24.807142857142857,2.6214285714285714L24.807142857142857,2.407142857142857L17.621428571428574,2.407142857142857L17.621428571428574,2.6214285714285714L15.478571428571428,2.6214285714285714L15.478571428571428,3.05L15,3.05L15,2.95L15.378571428571426,2.95L15.378571428571426,2.521428571428572L17.521428571428572,2.521428571428572L17.521428571428572,2.3071428571428574L24.90714285714286,2.3071428571428574L24.90714285714286,2.521428571428572L25.978571428571428,2.521428571428572L25.978571428571428,3.907142857142857L25.335714285714285,3.907142857142857L25.335714285714285,4.121428571428571L24.90714285714286,4.121428571428571L24.90714285714286,4.335714285714285L24.692857142857143,4.335714285714285L24.692857142857143,4.55z" stroke="none"/><path d="M18,7.55L18,7.45L18.807142857142857,7.45L18.807142857142857,7.021428571428571L20.09285714285714,7.021428571428571L20.09285714285714,6.807142857142857L24.264285714285716,6.807142857142857L24.264285714285716,7.021428571428571L24.90714285714286,7.021428571428571L24.90714285714286,7.235714285714286L25.12142857142857,7.235714285714286L25.12142857142857,7.45L25.5,7.45L25.5,7.55L25.02142857142857,7.55L25.02142857142857,7.335714285714285L24.807142857142857,7.335714285714285L24.807142857142857,7.121428571428571L24.164285714285715,7.121428571428571L24.164285714285715,6.907142857142857L20.192857142857143,6.907142857142857L20.192857142857143,7.121428571428571L18.90714285714286,7.121428571428571L18.90714285714286,7.55z" stroke="none"/><path d="M6,12.05L6,11.95L11.192857142857143,11.95L11.192857142857143,12.164285714285715L11.62142857142857,12.164285714285715L11.62142857142857,12.378571428571426L13.235714285714284,12.378571428571426L13.235714285714284,11.95L13.5,11.95L13.5,12.05L13.335714285714285,12.05L13.335714285714285,12.478571428571428L11.521428571428569,12.478571428571428L11.521428571428569,12.264285714285716L11.092857142857142,12.264285714285716L11.092857142857142,12.05z" stroke="none"/><path d="M7.5,10.55L7.5,10.45L8.521428571428569,10.45L8.521428571428569,10.021428571428569L12.807142857142857,10.021428571428569L12.807142857142857,9.807142857142857L14.092857142857142,9.807142857142857L14.092857142857142,9.378571428571426L14.735714285714284,9.378571428571426L14.735714285714284,9.164285714285715L14.95,9.164285714285715L14.95,9L15.05,9L15.05,9.264285714285716L14.835714285714285,9.264285714285716L14.835714285714285,9.478571428571428L14.192857142857143,9.478571428571428L14.192857142857143,9.907142857142858L12.907142857142858,9.907142857142858L12.907142857142858,10.12142857142857L8.62142857142857,10.12142857142857L8.62142857142857,10.55z" stroke="none"/><path d="M27.05,10.5L26.95,10.5L26.95,7.978571428571428L26.307142857142857,7.978571428571428L26.307142857142857,7.55L26.09285714285714,7.55L26.09285714285714,7.335714285714285L25.878571428571426,7.335714285714285L25.878571428571426,7.121428571428571L25.02142857142857,7.121428571428571L25.02142857142857,6.907142857142857L24.59285714285714,6.907142857142857L24.59285714285714,6.692857142857142L19.878571428571426,6.692857142857142L19.878571428571426,6.264285714285714L19.45,6.264285714285714L19.45,6L19.55,6L19.55,6.164285714285715L19.978571428571428,6.164285714285715L19.978571428571428,6.5928571428571425L24.692857142857143,6.5928571428571425L24.692857142857143,6.807142857142857L25.12142857142857,6.807142857142857L25.12142857142857,7.021428571428571L25.978571428571428,7.021428571428571L25.978571428571428,7.235714285714286L26.192857142857143,7.235714285714286L26.192857142857143,7.45L26.40714285714286,7.45L26.40714285714286,7.878571428571428L27.05,7.878571428571428z" stroke="none"/><path d="M25.5,5.95L25.5,6.05L25.12142857142857,6.05L25.12142857142857,6.264285714285714L22.978571428571428,6.264285714285714L22.978571428571428,6.478571428571428L20.307142857142857,6.478571428571428L20.307142857142857,6.264285714285714L20.09285714285714,6.264285714285714L20.09285714285714,5.835714285714285L19.878571428571426,5.835714285714285L19.878571428571426,5.621428571428571L15.264285714285716,5.621428571428571L15.264285714285716,5.835714285714285L15.05,5.835714285714285L15.05,6L14.95,6L14.95,5.735714285714286L15.164285714285715,5.735714285714286L15.164285714285715,5.521428571428571L19.978571428571428,5.521428571428571L19.978571428571428,5.735714285714286L20.192857142857143,5.735714285714286L20.192857142857143,6.164285714285715L20.40714285714286,6.164285714285715L20.40714285714286,6.378571428571428L22.878571428571426,6.378571428571428L22.878571428571426,6.164285714285715L25.02142857142857,6.164285714285715L25.02142857142857,5.95z" stroke="none"/><path d="M3,12.05L3,11.95L3.907142857142857,11.95L3.907142857142857,12.164285714285715L4.121428571428571,12.164285714285715L4.121428571428571,12.378571428571426L11.407142857142858,12.378571428571426L11.407142857142858,12.592857142857142L13.664285714285715,12.592857142857142L13.664285714285715,12.378571428571426L13.878571428571426,12.378571428571426L13.878571428571426,11.407142857142858L13.664285714285715,11.407142857142858L13.664285714285715,10.55L13.5,10.55L13.5,10.45L13.764285714285716,10.45L13.764285714285716,11.307142857142857L13.978571428571428,11.307142857142857L13.978571428571428,12.478571428571428L13.764285714285716,12.478571428571428L13.764285714285716,12.692857142857143L11.307142857142857,12.692857142857143L11.307142857142857,12.478571428571428L4.021428571428571,12.478571428571428L4.021428571428571,12.264285714285716L3.8071428571428574,12.264285714285716L3.8071428571428574,12.05z" stroke="none"/><path d="M8.95,10.5L9.05,10.5L9.05,10.764285714285716L7.978571428571428,10.764285714285716L7.978571428571428,10.978571428571428L7.021428571428571,10.978571428571428L7.021428571428571,10.021428571428569L8.307142857142857,10.021428571428569L8.307142857142857,9.807142857142857L11.092857142857142,9.807142857142857L11.092857142857142,9.592857142857142L11.307142857142857,9.592857142857142L11.307142857142857,9.378571428571426L13.235714285714284,9.378571428571426L13.235714285714284,9.164285714285715L13.45,9.164285714285715L13.45,8.95L14.521428571428569,8.95L14.521428571428569,8.521428571428569L16.978571428571428,8.521428571428569L16.978571428571428,9.692857142857143L16.335714285714285,9.692857142857143L16.335714285714285,9.907142857142858L16.12142857142857,9.907142857142858L16.12142857142857,10.12142857142857L15.478571428571428,10.12142857142857L15.478571428571428,10.978571428571428L15.05,10.978571428571428L15.05,11.192857142857143L14.62142857142857,11.192857142857143L14.62142857142857,12.378571428571426L19.021428571428572,12.378571428571426L19.021428571428572,12.164285714285715L19.45,12.164285714285715L19.45,12L19.55,12L19.55,12.264285714285716L19.121428571428574,12.264285714285716L19.121428571428574,12.478571428571428L14.521428571428569,12.478571428571428L14.521428571428569,11.092857142857142L14.95,11.092857142857142L14.95,10.878571428571426L15.378571428571426,10.878571428571426L15.378571428571426,10.021428571428569L16.02142857142857,10.021428571428569L16.02142857142857,9.807142857142857L16.235714285714284,9.807142857142857L16.235714285714284,9.592857142857142L16.878571428571426,9.592857142857142L16.878571428571426,8.62142857142857L14.62142857142857,8.62142857142857L14.62142857142857,9.05L13.55,9.05L13.55,9.264285714285716L13.335714285714285,9.264285714285716L13.335714285714285,9.478571428571428L11.407142857142858,9.478571428571428L11.407142857142858,9.692857142857143L11.192857142857143,9.692857142857143L11.192857142857143,9.907142857142858L8.407142857142858,9.907142857142858L8.407142857142858,10.12142857142857L7.121428571428571,10.12142857142857L7.121428571428571,10.878571428571426L7.878571428571428,10.878571428571426L7.878571428571428,10.664285714285715L8.95,10.664285714285715z" stroke="none"/><path d="M13.5,6.05L13.5,5.95L13.878571428571426,5.95L13.878571428571426,5.735714285714286L14.092857142857142,5.735714285714286L14.092857142857142,5.521428571428571L14.735714285714284,5.521428571428571L14.735714285714284,5.307142857142857L25.664285714285715,5.307142857142857L25.664285714285715,4.664285714285715L25.878571428571426,4.664285714285715L25.878571428571426,4.235714285714286L26.09285714285714,4.235714285714286L26.09285714285714,2.407142857142857L25.02142857142857,2.407142857142857L25.02142857142857,2.1928571428571426L4.55,2.1928571428571426L4.55,2.6214285714285714L4.121428571428571,2.6214285714285714L4.121428571428571,5.621428571428571L3.907142857142857,5.621428571428571L3.907142857142857,6.692857142857142L3.478571428571428,6.692857142857142L3.478571428571428,6.907142857142857L3.05,6.907142857142857L3.05,7.121428571428571L2.6214285714285714,7.121428571428571L2.6214285714285714,10.021428571428569L3.05,10.021428571428569L3.05,10.5L2.95,10.5L2.95,10.12142857142857L2.521428571428572,10.12142857142857L2.521428571428572,7.021428571428571L2.95,7.021428571428571L2.95,6.807142857142857L3.3785714285714286,6.807142857142857L3.3785714285714286,6.5928571428571425L3.8071428571428574,6.5928571428571425L3.8071428571428574,5.521428571428571L4.021428571428571,5.521428571428571L4.021428571428571,2.521428571428572L4.45,2.521428571428572L4.45,2.092857142857143L25.12142857142857,2.092857142857143L25.12142857142857,2.3071428571428574L26.192857142857143,2.3071428571428574L26.192857142857143,4.335714285714285L25.978571428571428,4.335714285714285L25.978571428571428,4.764285714285714L25.764285714285716,4.764285714285714L25.764285714285716,5.407142857142857L14.835714285714285,5.407142857142857L14.835714285714285,5.621428571428571L14.192857142857143,5.621428571428571L14.192857142857143,5.835714285714285L13.978571428571428,5.835714285714285L13.978571428571428,6.05z" stroke="none"/><path d="M27,11.95L27,12.05L25.978571428571428,12.05L25.978571428571428,12.478571428571428L24.692857142857143,12.478571428571428L24.692857142857143,12.692857142857143L14.307142857142857,12.692857142857143L14.307142857142857,10.878571428571426L14.735714285714284,10.878571428571426L14.735714285714284,10.45L15,10.45L15,10.55L14.835714285714285,10.55L14.835714285714285,10.978571428571428L14.407142857142858,10.978571428571428L14.407142857142858,12.592857142857142L24.59285714285714,12.592857142857142L24.59285714285714,12.378571428571426L25.878571428571426,12.378571428571426L25.878571428571426,11.95z" stroke="none"/></svg>