<svg version="1.1" width="30" height="15" xmlns="http://www.w3.org/2000/svg"><path d="M23.307142857142857,5.95L23.307142857142857,4.664285714285715L23.52142857142857,4.664285714285715L23.52142857142857,4.45L24,4.45L24,4.55L23.62142857142857,4.55L23.62142857142857,4.764285714285714L23.40714285714286,4.764285714285714L23.40714285714286,8.307142857142857L23.62142857142857,8.307142857142857L23.62142857142857,8.521428571428569L24.05,8.521428571428569L24.05,9L23.95,9L23.95,8.62142857142857L23.52142857142857,8.62142857142857L23.52142857142857,8.407142857142858L23.307142857142857,8.407142857142858L23.307142857142857,6.05L23.09285714285714,6.05L23.09285714285714,5.192857142857142L22.664285714285715,5.192857142857142L22.664285714285715,4.764285714285714L22.45,4.764285714285714L22.45,4.5L22.55,4.5L22.55,4.664285714285715L22.764285714285716,4.664285714285715L22.764285714285716,5.0928571428571425L23.192857142857143,5.0928571428571425L23.192857142857143,5.95z" stroke="none"/><path d="M20.40714285714286,6.807142857142857L20.40714285714286,7.235714285714286L20.835714285714285,7.235714285714286L20.835714285714285,7.45L21.05,7.45L21.05,7.878571428571428L21.264285714285716,7.878571428571428L21.264285714285716,8.307142857142857L21.692857142857143,8.307142857142857L21.692857142857143,8.521428571428569L22.55,8.521428571428569L22.55,8.735714285714284L22.978571428571428,8.735714285714284L22.978571428571428,9.164285714285715L23.62142857142857,9.164285714285715L23.62142857142857,9.378571428571426L24.378571428571426,9.378571428571426L24.378571428571426,7.764285714285714L24.164285714285715,7.764285714285714L24.164285714285715,7.55L24,7.55L24,7.45L24.264285714285716,7.45L24.264285714285716,7.664285714285715L24.478571428571428,7.664285714285715L24.478571428571428,9.478571428571428L23.52142857142857,9.478571428571428L23.52142857142857,9.264285714285716L22.878571428571426,9.264285714285716L22.878571428571426,8.835714285714285L22.45,8.835714285714285L22.45,8.62142857142857L21.59285714285714,8.62142857142857L21.59285714285714,8.407142857142858L21.164285714285715,8.407142857142858L21.164285714285715,7.978571428571428L20.95,7.978571428571428L20.95,7.55L20.735714285714284,7.55L20.735714285714284,7.335714285714285L20.307142857142857,7.335714285714285L20.307142857142857,6.907142857142857L18.478571428571428,6.907142857142857L18.478571428571428,7.121428571428571L15.478571428571428,7.121428571428571L15.478571428571428,7.335714285714285L15.264285714285716,7.335714285714285L15.264285714285716,7.55L15,7.55L15,7.45L15.164285714285715,7.45L15.164285714285715,7.235714285714286L15.378571428571426,7.235714285714286L15.378571428571426,7.021428571428571L18.378571428571426,7.021428571428571L18.378571428571426,6.907142857142857L17.735714285714284,6.907142857142857L17.735714285714284,6.692857142857142L16.45,6.692857142857142L16.45,6L16.55,6L16.55,6.5928571428571425L17.835714285714285,6.5928571428571425L17.835714285714285,6.807142857142857z" stroke="none"/><path d="M9.592857142857142,4.878571428571429L9.592857142857142,4.664285714285715L10.45,4.664285714285715L10.45,4.5L10.55,4.5L10.55,4.764285714285714L9.692857142857143,4.764285714285714L9.692857142857143,4.978571428571429L6.907142857142857,4.978571428571429L6.907142857142857,6.807142857142857L7.121428571428571,6.807142857142857L7.121428571428571,7.021428571428571L7.55,7.021428571428571L7.55,7.5L7.45,7.5L7.45,7.121428571428571L7.021428571428571,7.121428571428571L7.021428571428571,6.907142857142857L6.807142857142857,6.907142857142857L6.807142857142857,4.978571428571429L4.021428571428571,4.978571428571429L4.021428571428571,4.121428571428571L3.592857142857143,4.121428571428571L3.592857142857143,3.907142857142857L3.3785714285714286,3.907142857142857L3.3785714285714286,3.05L3,3.05L3,2.95L3.478571428571428,2.95L3.478571428571428,3.8071428571428574L3.6928571428571426,3.8071428571428574L3.6928571428571426,4.021428571428571L4.121428571428571,4.021428571428571L4.121428571428571,4.878571428571429z" stroke="none"/><path d="M14.95,10.664285714285715L14.95,9L15.05,9L15.05,10.664285714285715L17.621428571428574,10.664285714285715L17.621428571428574,10.878571428571426L19.335714285714285,10.878571428571426L19.335714285714285,11.092857142857142L19.764285714285716,11.092857142857142L19.764285714285716,11.735714285714284L20.192857142857143,11.735714285714284L20.192857142857143,11.95L21,11.95L21,12.05L20.09285714285714,12.05L20.09285714285714,11.835714285714285L19.664285714285715,11.835714285714285L19.664285714285715,11.192857142857143L19.235714285714284,11.192857142857143L19.235714285714284,10.978571428571428L17.521428571428572,10.978571428571428L17.521428571428572,10.764285714285716L15.05,10.764285714285716L15.05,11.192857142857143L14.407142857142858,11.192857142857143L14.407142857142858,11.835714285714285L13.55,11.835714285714285L13.55,12L13.45,12L13.45,11.735714285714284L14.307142857142857,11.735714285714284L14.307142857142857,11.092857142857142L14.95,11.092857142857142L14.95,10.764285714285716L14.407142857142858,10.764285714285716L14.407142857142858,10.978571428571428L11.307142857142857,10.978571428571428L11.307142857142857,10.764285714285716L11.092857142857142,10.764285714285716L11.092857142857142,10.55L10.5,10.55L10.5,10.45L11.192857142857143,10.45L11.192857142857143,10.664285714285715L11.407142857142858,10.664285714285715L11.407142857142858,10.878571428571426L14.307142857142857,10.878571428571426L14.307142857142857,10.664285714285715z" stroke="none"/><path d="M21.59285714285714,8.95L21.59285714285714,8.835714285714285L21.378571428571426,8.835714285714285L21.378571428571426,8.62142857142857L13.978571428571428,8.62142857142857L13.978571428571428,9.05L13.5,9.05L13.5,8.95L13.878571428571426,8.95L13.878571428571426,8.521428571428569L21.478571428571428,8.521428571428569L21.478571428571428,8.735714285714284L21.692857142857143,8.735714285714284L21.692857142857143,8.95L22.55,8.95L22.55,9.164285714285715L22.764285714285716,9.164285714285715L22.764285714285716,9.378571428571426L23.40714285714286,9.378571428571426L23.40714285714286,9.592857142857142L24.90714285714286,9.592857142857142L24.90714285714286,9.807142857142857L25.335714285714285,9.807142857142857L25.335714285714285,10.235714285714284L25.55,10.235714285714284L25.55,10.5L25.45,10.5L25.45,10.335714285714285L25.235714285714284,10.335714285714285L25.235714285714284,9.907142857142858L24.807142857142857,9.907142857142858L24.807142857142857,9.692857142857143L23.307142857142857,9.692857142857143L23.307142857142857,9.478571428571428L22.664285714285715,9.478571428571428L22.664285714285715,9.264285714285716L22.45,9.264285714285716L22.45,9.05L21.692857142857143,9.05L21.692857142857143,10.235714285714284L22.121428571428574,10.235714285714284L22.121428571428574,10.45L22.5,10.45L22.5,10.55L22.021428571428572,10.55L22.021428571428572,10.335714285714285L21.59285714285714,10.335714285714285L21.59285714285714,9.05L21.478571428571428,9.05L21.478571428571428,10.45L21.90714285714286,10.45L21.90714285714286,10.664285714285715L25.664285714285715,10.664285714285715L25.664285714285715,7.878571428571428L25.878571428571426,7.878571428571428L25.878571428571426,6.05L25.5,6.05L25.5,5.95L25.978571428571428,5.95L25.978571428571428,7.978571428571428L25.764285714285716,7.978571428571428L25.764285714285716,10.764285714285716L21.807142857142857,10.764285714285716L21.807142857142857,10.55L21.378571428571426,10.55L21.378571428571426,8.95z" stroke="none"/><path d="M13.021428571428569,5.0928571428571425L13.021428571428569,4.45L13.878571428571426,4.45L13.878571428571426,4.235714285714286L14.521428571428569,4.235714285714286L14.521428571428569,4.021428571428571L14.735714285714284,4.021428571428571L14.735714285714284,3.592857142857143L14.95,3.592857142857143L14.95,3L15.05,3L15.05,3.6928571428571426L14.835714285714285,3.6928571428571426L14.835714285714285,4.121428571428571L14.62142857142857,4.121428571428571L14.62142857142857,4.335714285714285L13.978571428571428,4.335714285714285L13.978571428571428,4.55L13.12142857142857,4.55L13.12142857142857,5.0928571428571425L14.092857142857142,5.0928571428571425L14.092857142857142,4.45L15,4.45L15,4.55L14.192857142857143,4.55L14.192857142857143,5.192857142857142L13.12142857142857,5.192857142857142L13.12142857142857,5.735714285714286L13.335714285714285,5.735714285714286L13.335714285714285,6.164285714285715L13.55,6.164285714285715L13.55,6.378571428571428L13.764285714285716,6.378571428571428L13.764285714285716,6.5928571428571425L14.192857142857143,6.5928571428571425L14.192857142857143,6.807142857142857L14.407142857142858,6.807142857142857L14.407142857142858,7.664285714285715L14.62142857142857,7.664285714285715L14.62142857142857,7.878571428571428L16.235714285714284,7.878571428571428L16.235714285714284,7.664285714285715L16.45,7.664285714285715L16.45,7.5L16.55,7.5L16.55,7.764285714285714L16.335714285714285,7.764285714285714L16.335714285714285,7.978571428571428L14.521428571428569,7.978571428571428L14.521428571428569,7.764285714285714L14.307142857142857,7.764285714285714L14.307142857142857,6.907142857142857L14.092857142857142,6.907142857142857L14.092857142857142,6.692857142857142L13.664285714285715,6.692857142857142L13.664285714285715,6.478571428571428L13.45,6.478571428571428L13.45,6.264285714285714L13.235714285714284,6.264285714285714L13.235714285714284,5.835714285714285L13.021428571428569,5.835714285714285L13.021428571428569,5.192857142857142L12.907142857142858,5.192857142857142L12.907142857142858,6.05L9.907142857142858,6.05L9.907142857142858,6.264285714285714L9.692857142857143,6.264285714285714L9.692857142857143,6.478571428571428L8.835714285714285,6.478571428571428L8.835714285714285,7.121428571428571L8.62142857142857,7.121428571428571L8.62142857142857,7.764285714285714L8.192857142857143,7.764285714285714L8.192857142857143,7.978571428571428L6.807142857142857,7.978571428571428L6.807142857142857,7.335714285714285L6.5928571428571425,7.335714285714285L6.5928571428571425,7.121428571428571L6.378571428571428,7.121428571428571L6.378571428571428,6.05L6,6.05L6,5.95L6.478571428571428,5.95L6.478571428571428,7.021428571428571L6.692857142857142,7.021428571428571L6.692857142857142,7.235714285714286L6.907142857142857,7.235714285714286L6.907142857142857,7.878571428571428L8.092857142857142,7.878571428571428L8.092857142857142,7.664285714285715L8.521428571428569,7.664285714285715L8.521428571428569,7.021428571428571L8.735714285714284,7.021428571428571L8.735714285714284,6.378571428571428L9.592857142857142,6.378571428571428L9.592857142857142,6.164285714285715L9.807142857142857,6.164285714285715L9.807142857142857,5.95L12.807142857142857,5.95L12.807142857142857,5.0928571428571425z" stroke="none"/><path d="M6.05,9L5.95,9L5.95,7.5L6.05,7.5z" stroke="none"/><path d="M4.5,10.45L4.5,10.55L3,10.55L3,10.45z" stroke="none"/><path d="M22.5,3.05L22.5,2.95L24,2.95L24,3.05z" stroke="none"/><path d="M21,5.95L21,6.05L19.5,6.05L19.5,5.95z" stroke="none"/><path d="M26.95,6L27.05,6L27.05,7.5L26.95,7.5z" stroke="none"/><path d="M27.05,10.5L26.95,10.5L26.95,9L27.05,9z" stroke="none"/><path d="M9,6.05L9,5.95L9.164285714285715,5.95L9.164285714285715,5.735714285714286L10.45,5.735714285714286L10.45,5.0928571428571425L10.878571428571426,5.0928571428571425L10.878571428571426,4.121428571428571L9.05,4.121428571428571L9.05,4.335714285714285L8.407142857142858,4.335714285714285L8.407142857142858,4.55L7.5,4.55L7.5,4.45L8.307142857142857,4.45L8.307142857142857,4.235714285714286L8.95,4.235714285714286L8.95,4.021428571428571L10.978571428571428,4.021428571428571L10.978571428571428,5.192857142857142L10.55,5.192857142857142L10.55,5.835714285714285L9.264285714285716,5.835714285714285L9.264285714285716,6.05z" stroke="none"/><path d="M27,4.45L27,4.55L26.307142857142857,4.55L26.307142857142857,4.335714285714285L25.878571428571426,4.335714285714285L25.878571428571426,3.907142857142857L25.664285714285715,3.907142857142857L25.664285714285715,3.2642857142857142L25.45,3.2642857142857142L25.45,3L25.55,3L25.55,3.1642857142857146L25.764285714285716,3.1642857142857146L25.764285714285716,3.8071428571428574L25.978571428571428,3.8071428571428574L25.978571428571428,4.235714285714286L26.40714285714286,4.235714285714286L26.40714285714286,4.45z" stroke="none"/><path d="M4.55,4.5L4.45,4.5L4.45,3.478571428571428L4.021428571428571,3.478571428571428L4.021428571428571,3.05L3.8071428571428574,3.05L3.8071428571428574,2.8357142857142854L3.3785714285714286,2.8357142857142854L3.3785714285714286,2.6214285714285714L2.6214285714285714,2.6214285714285714L2.6214285714285714,5.307142857142857L2.8357142857142854,5.307142857142857L2.8357142857142854,5.521428571428571L3.05,5.521428571428571L3.05,6.5928571428571425L3.6928571428571426,6.5928571428571425L3.6928571428571426,7.021428571428571L4.121428571428571,7.021428571428571L4.121428571428571,7.45L4.5,7.45L4.5,7.55L4.021428571428571,7.55L4.021428571428571,7.121428571428571L3.592857142857143,7.121428571428571L3.592857142857143,6.692857142857142L2.95,6.692857142857142L2.95,5.621428571428571L2.7357142857142858,5.621428571428571L2.7357142857142858,5.407142857142857L2.521428571428572,5.407142857142857L2.521428571428572,2.521428571428572L3.478571428571428,2.521428571428572L3.478571428571428,2.7357142857142858L3.907142857142857,2.7357142857142858L3.907142857142857,2.95L4.121428571428571,2.95L4.121428571428571,3.3785714285714286L4.55,3.3785714285714286z" stroke="none"/><path d="M12,8.95L12,9.05L11.192857142857143,9.05L11.192857142857143,9.264285714285716L10.764285714285716,9.264285714285716L10.764285714285716,9.478571428571428L10.55,9.478571428571428L10.55,9.692857142857143L10.335714285714285,9.692857142857143L10.335714285714285,9.907142857142858L10.12142857142857,9.907142857142858L10.12142857142857,11.092857142857142L10.335714285714285,11.092857142857142L10.335714285714285,11.307142857142857L10.978571428571428,11.307142857142857L10.978571428571428,11.521428571428569L11.192857142857143,11.521428571428569L11.192857142857143,11.735714285714284L12.05,11.735714285714284L12.05,12L11.95,12L11.95,11.835714285714285L11.092857142857142,11.835714285714285L11.092857142857142,11.62142857142857L10.878571428571426,11.62142857142857L10.878571428571426,11.407142857142858L10.235714285714284,11.407142857142858L10.235714285714284,11.192857142857143L10.021428571428569,11.192857142857143L10.021428571428569,9.807142857142857L10.235714285714284,9.807142857142857L10.235714285714284,9.592857142857142L10.45,9.592857142857142L10.45,9.378571428571426L10.664285714285715,9.378571428571426L10.664285714285715,9.164285714285715L11.092857142857142,9.164285714285715L11.092857142857142,8.95z" stroke="none"/><path d="M18,4.55L18,4.45L21,4.45L21,4.55z" stroke="none"/><path d="M6,10.45L6,10.55L5.735714285714286,10.55L5.735714285714286,10.335714285714285L5.0928571428571425,10.335714285714285L5.0928571428571425,10.12142857142857L3.1642857142857146,10.12142857142857L3.1642857142857146,9.05L3,9.05L3,8.95L3.2642857142857142,8.95L3.2642857142857142,10.021428571428569L5.192857142857142,10.021428571428569L5.192857142857142,10.235714285714284L5.835714285714285,10.235714285714284L5.835714285714285,10.45z" stroke="none"/><path d="M20.95,9L21.05,9L21.05,10.235714285714284L21.264285714285716,10.235714285714284L21.264285714285716,10.664285714285715L21.692857142857143,10.664285714285715L21.692857142857143,10.878571428571426L25.878571428571426,10.878571428571426L25.878571428571426,8.735714285714284L26.09285714285714,8.735714285714284L26.09285714285714,5.621428571428571L24.264285714285716,5.621428571428571L24.264285714285716,6.05L24,6.05L24,5.95L24.164285714285715,5.95L24.164285714285715,5.521428571428571L26.192857142857143,5.521428571428571L26.192857142857143,8.835714285714285L25.978571428571428,8.835714285714285L25.978571428571428,10.978571428571428L21.59285714285714,10.978571428571428L21.59285714285714,10.764285714285716L21.164285714285715,10.764285714285716L21.164285714285715,10.335714285714285L20.95,10.335714285714285z" stroke="none"/><path d="M10.5,7.55L10.5,7.45L11.835714285714285,7.45L11.835714285714285,8.307142857142857L12.05,8.307142857142857L12.05,8.521428571428569L12.478571428571428,8.521428571428569L12.478571428571428,9.378571428571426L12.907142857142858,9.378571428571426L12.907142857142858,9.592857142857142L13.12142857142857,9.592857142857142L13.12142857142857,9.807142857142857L13.335714285714285,9.807142857142857L13.335714285714285,10.45L13.5,10.45L13.5,10.55L13.235714285714284,10.55L13.235714285714284,9.907142857142858L13.021428571428569,9.907142857142858L13.021428571428569,9.692857142857143L12.807142857142857,9.692857142857143L12.807142857142857,9.478571428571428L12.378571428571426,9.478571428571428L12.378571428571426,8.62142857142857L11.95,8.62142857142857L11.95,8.407142857142858L11.735714285714284,8.407142857142858L11.735714285714284,7.55z" stroke="none"/><path d="M12,2.95L12,3.05L9.378571428571426,3.05L9.378571428571426,2.6214285714285714L7.55,2.6214285714285714L7.55,3L7.45,3L7.45,2.521428571428572L9.478571428571428,2.521428571428572L9.478571428571428,2.95z" stroke="none"/><path d="M13.5,7.45L13.5,7.55L11.95,7.55L11.95,7.335714285714285L11.307142857142857,7.335714285714285L11.307142857142857,7.121428571428571L10.12142857142857,7.121428571428571L10.12142857142857,9.478571428571428L9.907142857142858,9.478571428571428L9.907142857142858,11.95L10.12142857142857,11.95L10.12142857142857,12.164285714285715L11.62142857142857,12.164285714285715L11.62142857142857,12.378571428571426L14.735714285714284,12.378571428571426L14.735714285714284,11.95L15,11.95L15,12.05L14.835714285714285,12.05L14.835714285714285,12.478571428571428L11.521428571428569,12.478571428571428L11.521428571428569,12.264285714285716L10.021428571428569,12.264285714285716L10.021428571428569,12.05L9.807142857142857,12.05L9.807142857142857,9.378571428571426L10.021428571428569,9.378571428571426L10.021428571428569,7.021428571428571L11.407142857142858,7.021428571428571L11.407142857142858,7.235714285714286L12.05,7.235714285714286L12.05,7.45z" stroke="none"/><path d="M4.55,9L4.45,9L4.45,8.092857142857142L4.878571428571429,8.092857142857142L4.878571428571429,6.907142857142857L4.45,6.907142857142857L4.45,6.692857142857142L4.235714285714286,6.692857142857142L4.235714285714286,6.478571428571428L3.592857142857143,6.478571428571428L3.592857142857143,5.835714285714285L3.3785714285714286,5.835714285714285L3.3785714285714286,5.621428571428571L3.1642857142857146,5.621428571428571L3.1642857142857146,4.55L3,4.55L3,4.45L3.2642857142857142,4.45L3.2642857142857142,5.521428571428571L3.478571428571428,5.521428571428571L3.478571428571428,5.735714285714286L3.6928571428571426,5.735714285714286L3.6928571428571426,6.378571428571428L4.335714285714285,6.378571428571428L4.335714285714285,6.5928571428571425L4.55,6.5928571428571425L4.55,6.807142857142857L4.978571428571429,6.807142857142857L4.978571428571429,8.192857142857143L4.55,8.192857142857143z" stroke="none"/><path d="M6,11.95L6,12.05L3.592857142857143,12.05L3.592857142857143,11.835714285714285L2.7357142857142858,11.835714285714285L2.7357142857142858,10.978571428571428L2.521428571428572,10.978571428571428L2.521428571428572,7.664285714285715L2.7357142857142858,7.664285714285715L2.7357142857142858,7.45L3,7.45L3,7.55L2.8357142857142854,7.55L2.8357142857142854,7.764285714285714L2.6214285714285714,7.764285714285714L2.6214285714285714,10.878571428571426L2.8357142857142854,10.878571428571426L2.8357142857142854,11.735714285714284L3.6928571428571426,11.735714285714284L3.6928571428571426,11.95z" stroke="none"/><path d="M6,2.95L6,3.05L4.235714285714286,3.05L4.235714285714286,2.8357142857142854L4.021428571428571,2.8357142857142854L4.021428571428571,2.6214285714285714L3.8071428571428574,2.6214285714285714L3.8071428571428574,2.407142857142857L2.407142857142857,2.407142857142857L2.407142857142857,6.164285714285715L2.6214285714285714,6.164285714285715L2.6214285714285714,6.5928571428571425L2.8357142857142854,6.5928571428571425L2.8357142857142854,6.807142857142857L3.05,6.807142857142857L3.05,7.021428571428571L3.478571428571428,7.021428571428571L3.478571428571428,8.735714285714284L3.6928571428571426,8.735714285714284L3.6928571428571426,8.95L3.907142857142857,8.95L3.907142857142857,9.164285714285715L4.121428571428571,9.164285714285715L4.121428571428571,9.378571428571426L7.878571428571428,9.378571428571426L7.878571428571428,9.164285714285715L8.092857142857142,9.164285714285715L8.092857142857142,8.735714285714284L8.307142857142857,8.735714285714284L8.307142857142857,8.092857142857142L8.95,8.092857142857142L8.95,7.5L9.05,7.5L9.05,8.192857142857143L8.407142857142858,8.192857142857143L8.407142857142858,8.835714285714285L8.192857142857143,8.835714285714285L8.192857142857143,9.264285714285716L7.978571428571428,9.264285714285716L7.978571428571428,9.478571428571428L4.021428571428571,9.478571428571428L4.021428571428571,9.264285714285716L3.8071428571428574,9.264285714285716L3.8071428571428574,9.05L3.592857142857143,9.05L3.592857142857143,8.835714285714285L3.3785714285714286,8.835714285714285L3.3785714285714286,7.121428571428571L2.95,7.121428571428571L2.95,6.907142857142857L2.7357142857142858,6.907142857142857L2.7357142857142858,6.692857142857142L2.521428571428572,6.692857142857142L2.521428571428572,6.264285714285714L2.3071428571428574,6.264285714285714L2.3071428571428574,2.3071428571428574L3.907142857142857,2.3071428571428574L3.907142857142857,2.521428571428572L4.121428571428571,2.521428571428572L4.121428571428571,2.7357142857142858L4.335714285714285,2.7357142857142858L4.335714285714285,2.95z" stroke="none"/><path d="M22.5,11.95L22.5,12.05L22.121428571428574,12.05L22.121428571428574,12.264285714285716L21.478571428571428,12.264285714285716L21.478571428571428,12.478571428571428L17.307142857142857,12.478571428571428L17.307142857142857,12.264285714285716L17.09285714285714,12.264285714285716L17.09285714285714,12.05L16.5,12.05L16.5,11.95L17.192857142857143,11.95L17.192857142857143,12.164285714285715L17.40714285714286,12.164285714285715L17.40714285714286,12.378571428571426L21.378571428571426,12.378571428571426L21.378571428571426,12.164285714285715L22.021428571428572,12.164285714285715L22.021428571428572,11.95z" stroke="none"/><path d="M22.5,7.45L22.5,7.55L22.235714285714284,7.55L22.235714285714284,7.121428571428571L22.021428571428572,7.121428571428571L22.021428571428572,6.907142857142857L21.59285714285714,6.907142857142857L21.59285714285714,6.478571428571428L21.378571428571426,6.478571428571428L21.378571428571426,5.621428571428571L19.664285714285715,5.621428571428571L19.664285714285715,5.407142857142857L17.95,5.407142857142857L17.95,5.192857142857142L17.307142857142857,5.192857142857142L17.307142857142857,4.764285714285714L17.09285714285714,4.764285714285714L17.09285714285714,4.55L16.5,4.55L16.5,4.45L17.192857142857143,4.45L17.192857142857143,4.664285714285715L17.40714285714286,4.664285714285715L17.40714285714286,5.0928571428571425L18.05,5.0928571428571425L18.05,5.307142857142857L19.764285714285716,5.307142857142857L19.764285714285716,5.521428571428571L21.478571428571428,5.521428571428571L21.478571428571428,6.378571428571428L21.692857142857143,6.378571428571428L21.692857142857143,6.807142857142857L22.121428571428574,6.807142857142857L22.121428571428574,7.021428571428571L22.335714285714285,7.021428571428571L22.335714285714285,7.45z" stroke="none"/><path d="M25.5,7.45L25.5,7.55L24.59285714285714,7.55L24.59285714285714,7.121428571428571L24.164285714285715,7.121428571428571L24.164285714285715,6.907142857142857L23.735714285714284,6.907142857142857L23.735714285714284,6.692857142857142L23.52142857142857,6.692857142857142L23.52142857142857,5.307142857142857L26.40714285714286,5.307142857142857L26.40714285714286,10.764285714285716L26.192857142857143,10.764285714285716L26.192857142857143,11.192857142857143L19.878571428571426,11.192857142857143L19.878571428571426,10.978571428571428L19.664285714285715,10.978571428571428L19.664285714285715,10.764285714285716L18.378571428571426,10.764285714285716L18.378571428571426,10.55L18,10.55L18,10.45L18.478571428571428,10.45L18.478571428571428,10.664285714285715L19.764285714285716,10.664285714285715L19.764285714285716,10.878571428571426L19.978571428571428,10.878571428571426L19.978571428571428,11.092857142857142L26.09285714285714,11.092857142857142L26.09285714285714,10.664285714285715L26.307142857142857,10.664285714285715L26.307142857142857,5.407142857142857L23.62142857142857,5.407142857142857L23.62142857142857,6.5928571428571425L23.835714285714285,6.5928571428571425L23.835714285714285,6.807142857142857L24.264285714285716,6.807142857142857L24.264285714285716,7.021428571428571L24.692857142857143,7.021428571428571L24.692857142857143,7.45z" stroke="none"/><path d="M9,12.05L9,11.95L9.264285714285716,11.95L9.264285714285716,12.164285714285715L9.907142857142858,12.164285714285715L9.907142857142858,12.378571428571426L11.407142857142858,12.378571428571426L11.407142857142858,12.592857142857142L15.164285714285715,12.592857142857142L15.164285714285715,12.378571428571426L15.378571428571426,12.378571428571426L15.378571428571426,11.95L16.02142857142857,11.95L16.02142857142857,11.521428571428569L17.835714285714285,11.521428571428569L17.835714285714285,11.95L18,11.95L18,12.05L17.735714285714284,12.05L17.735714285714284,11.62142857142857L16.12142857142857,11.62142857142857L16.12142857142857,12.05L15.478571428571428,12.05L15.478571428571428,12.478571428571428L15.264285714285716,12.478571428571428L15.264285714285716,12.692857142857143L11.307142857142857,12.692857142857143L11.307142857142857,12.478571428571428L9.807142857142857,12.478571428571428L9.807142857142857,12.264285714285716L9.164285714285715,12.264285714285716L9.164285714285715,12.05z" stroke="none"/><path d="M9,2.95L9,3.05L8.407142857142858,3.05L8.407142857142858,3.2642857142857142L8.192857142857143,3.2642857142857142L8.192857142857143,3.478571428571428L6.5928571428571425,3.478571428571428L6.5928571428571425,2.6214285714285714L4.45,2.6214285714285714L4.45,2.1928571428571426L2.1928571428571426,2.1928571428571426L2.1928571428571426,10.878571428571426L2.407142857142857,10.878571428571426L2.407142857142857,11.735714285714284L2.6214285714285714,11.735714285714284L2.6214285714285714,11.95L3.2642857142857142,11.95L3.2642857142857142,12.164285714285715L5.621428571428571,12.164285714285715L5.621428571428571,12.378571428571426L6.378571428571428,12.378571428571426L6.378571428571428,10.45L7.878571428571428,10.45L7.878571428571428,10.235714285714284L8.092857142857142,10.235714285714284L8.092857142857142,9.807142857142857L8.307142857142857,9.807142857142857L8.307142857142857,9.378571428571426L8.521428571428569,9.378571428571426L8.521428571428569,8.95L8.735714285714284,8.95L8.735714285714284,8.521428571428569L8.95,8.521428571428569L8.95,8.307142857142857L9.164285714285715,8.307142857142857L9.164285714285715,7.878571428571428L9.378571428571426,7.878571428571428L9.378571428571426,7.664285714285715L9.807142857142857,7.664285714285715L9.807142857142857,6.807142857142857L13.978571428571428,6.807142857142857L13.978571428571428,7.664285714285715L14.192857142857143,7.664285714285715L14.192857142857143,7.878571428571428L14.407142857142858,7.878571428571428L14.407142857142858,8.092857142857142L18.59285714285714,8.092857142857142L18.59285714285714,7.878571428571428L18.807142857142857,7.878571428571428L18.807142857142857,7.664285714285715L19.235714285714284,7.664285714285715L19.235714285714284,7.45L19.5,7.45L19.5,7.55L19.335714285714285,7.55L19.335714285714285,7.764285714285714L18.90714285714286,7.764285714285714L18.90714285714286,7.978571428571428L18.692857142857143,7.978571428571428L18.692857142857143,8.192857142857143L14.307142857142857,8.192857142857143L14.307142857142857,7.978571428571428L14.092857142857142,7.978571428571428L14.092857142857142,7.764285714285714L13.878571428571426,7.764285714285714L13.878571428571426,6.907142857142857L9.907142857142858,6.907142857142857L9.907142857142858,7.764285714285714L9.478571428571428,7.764285714285714L9.478571428571428,7.978571428571428L9.264285714285716,7.978571428571428L9.264285714285716,8.407142857142858L9.05,8.407142857142858L9.05,8.62142857142857L8.835714285714285,8.62142857142857L8.835714285714285,9.05L8.62142857142857,9.05L8.62142857142857,9.478571428571428L8.407142857142858,9.478571428571428L8.407142857142858,9.907142857142858L8.192857142857143,9.907142857142858L8.192857142857143,10.335714285714285L7.978571428571428,10.335714285714285L7.978571428571428,10.55L6.478571428571428,10.55L6.478571428571428,12.478571428571428L5.521428571428571,12.478571428571428L5.521428571428571,12.264285714285716L3.1642857142857146,12.264285714285716L3.1642857142857146,12.05L2.521428571428572,12.05L2.521428571428572,11.835714285714285L2.3071428571428574,11.835714285714285L2.3071428571428574,10.978571428571428L2.092857142857143,10.978571428571428L2.092857142857143,2.092857142857143L4.55,2.092857142857143L4.55,2.521428571428572L6.692857142857142,2.521428571428572L6.692857142857142,3.3785714285714286L8.092857142857142,3.3785714285714286L8.092857142857142,3.1642857142857146L8.307142857142857,3.1642857142857146L8.307142857142857,2.95z" stroke="none"/></svg>