<svg version="1.1" width="30" height="15" xmlns="http://www.w3.org/2000/svg"><path d="M6.5928571428571425,2.95L6.5928571428571425,2.8357142857142854L4.978571428571429,2.8357142857142854L4.978571428571429,3.05L4.5,3.05L4.5,2.95L4.878571428571429,2.95L4.878571428571429,2.7357142857142858L6.692857142857142,2.7357142857142858L6.692857142857142,2.95L6.807142857142857,2.95L6.807142857142857,2.521428571428572L8.835714285714285,2.521428571428572L8.835714285714285,2.7357142857142858L9.05,2.7357142857142858L9.05,3L8.95,3L8.95,2.8357142857142854L8.735714285714284,2.8357142857142854L8.735714285714284,2.6214285714285714L6.907142857142857,2.6214285714285714L6.907142857142857,3.05L6,3.05L6,2.95z" stroke="none"/><path d="M23.09285714285714,10.45L23.09285714285714,8.95L24,8.95L24,9.05L23.192857142857143,9.05L23.192857142857143,10.45L24.692857142857143,10.45L24.692857142857143,10.664285714285715L24.90714285714286,10.664285714285715L24.90714285714286,10.878571428571426L25.335714285714285,10.878571428571426L25.335714285714285,11.307142857142857L25.55,11.307142857142857L25.55,12L25.45,12L25.45,11.407142857142858L25.235714285714284,11.407142857142858L25.235714285714284,10.978571428571428L24.807142857142857,10.978571428571428L24.807142857142857,10.764285714285716L24.59285714285714,10.764285714285716L24.59285714285714,10.55L22.878571428571426,10.55L22.878571428571426,10.12142857142857L21.05,10.12142857142857L21.05,10.335714285714285L20.192857142857143,10.335714285714285L20.192857142857143,10.55L19.5,10.55L19.5,10.45L20.09285714285714,10.45L20.09285714285714,10.235714285714284L20.95,10.235714285714284L20.95,10.021428571428569L22.978571428571428,10.021428571428569L22.978571428571428,10.45z" stroke="none"/><path d="M18.90714285714286,7.45L18.90714285714286,7.878571428571428L22.878571428571426,7.878571428571428L22.878571428571426,7.45L24,7.45L24,7.55L22.978571428571428,7.55L22.978571428571428,7.978571428571428L18.807142857142857,7.978571428571428L18.807142857142857,7.55L18.692857142857143,7.55L18.692857142857143,7.764285714285714L18.478571428571428,7.764285714285714L18.478571428571428,7.978571428571428L16.12142857142857,7.978571428571428L16.12142857142857,8.62142857142857L15.264285714285716,8.62142857142857L15.264285714285716,8.835714285714285L15.05,8.835714285714285L15.05,9L14.95,9L14.95,8.735714285714284L15.164285714285715,8.735714285714284L15.164285714285715,8.521428571428569L16.02142857142857,8.521428571428569L16.02142857142857,7.878571428571428L18.378571428571426,7.878571428571428L18.378571428571426,7.664285714285715L18.59285714285714,7.664285714285715L18.59285714285714,7.55L18.378571428571426,7.55L18.378571428571426,7.121428571428571L17.521428571428572,7.121428571428571L17.521428571428572,6.264285714285714L17.09285714285714,6.264285714285714L17.09285714285714,6.05L16.5,6.05L16.5,5.95L17.192857142857143,5.95L17.192857142857143,6.164285714285715L17.621428571428574,6.164285714285715L17.621428571428574,7.021428571428571L18.478571428571428,7.021428571428571L18.478571428571428,7.45z" stroke="none"/><path d="M5.95,6.164285714285715L5.95,5.621428571428571L4.878571428571429,5.621428571428571L4.878571428571429,5.192857142857142L4.45,5.192857142857142L4.45,4.5L4.55,4.5L4.55,5.0928571428571425L4.978571428571429,5.0928571428571425L4.978571428571429,5.521428571428571L6.05,5.521428571428571L6.05,6.164285714285715L7.121428571428571,6.164285714285715L7.121428571428571,6.378571428571428L8.092857142857142,6.378571428571428L8.092857142857142,5.95L9,5.95L9,6.05L8.192857142857143,6.05L8.192857142857143,6.478571428571428L7.021428571428571,6.478571428571428L7.021428571428571,6.264285714285714L6.05,6.264285714285714L6.05,7.5L5.95,7.5L5.95,6.264285714285714L5.835714285714285,6.264285714285714L5.835714285714285,6.478571428571428L5.407142857142857,6.478571428571428L5.407142857142857,6.692857142857142L5.192857142857142,6.692857142857142L5.192857142857142,6.907142857142857L4.764285714285714,6.907142857142857L4.764285714285714,7.55L4.5,7.55L4.5,7.45L4.664285714285715,7.45L4.664285714285715,6.807142857142857L5.0928571428571425,6.807142857142857L5.0928571428571425,6.5928571428571425L5.307142857142857,6.5928571428571425L5.307142857142857,6.378571428571428L5.735714285714286,6.378571428571428L5.735714285714286,6.164285714285715z" stroke="none"/><path d="M9.164285714285715,9.164285714285715L9.164285714285715,7.55L9,7.55L9,7.45L9.264285714285716,7.45L9.264285714285716,9.164285714285715L10.764285714285716,9.164285714285715L10.764285714285716,9.807142857142857L10.978571428571428,9.807142857142857L10.978571428571428,10.021428571428569L11.62142857142857,10.021428571428569L11.62142857142857,10.235714285714284L11.835714285714285,10.235714285714284L11.835714285714285,10.45L12,10.45L12,10.55L11.735714285714284,10.55L11.735714285714284,10.335714285714285L11.521428571428569,10.335714285714285L11.521428571428569,10.12142857142857L10.878571428571426,10.12142857142857L10.878571428571426,9.907142857142858L10.664285714285715,9.907142857142858L10.664285714285715,9.264285714285716L9.264285714285716,9.264285714285716L9.264285714285716,9.478571428571428L7.978571428571428,9.478571428571428L7.978571428571428,9.692857142857143L7.121428571428571,9.692857142857143L7.121428571428571,10.764285714285716L6.478571428571428,10.764285714285716L6.478571428571428,10.978571428571428L6.05,10.978571428571428L6.05,11.192857142857143L5.621428571428571,11.192857142857143L5.621428571428571,11.407142857142858L3.478571428571428,11.407142857142858L3.478571428571428,11.62142857142857L3.2642857142857142,11.62142857142857L3.2642857142857142,11.835714285714285L3.05,11.835714285714285L3.05,12L2.95,12L2.95,11.735714285714284L3.1642857142857146,11.735714285714284L3.1642857142857146,11.521428571428569L3.3785714285714286,11.521428571428569L3.3785714285714286,11.307142857142857L5.521428571428571,11.307142857142857L5.521428571428571,11.092857142857142L5.95,11.092857142857142L5.95,10.878571428571426L6.378571428571428,10.878571428571426L6.378571428571428,10.664285714285715L7.021428571428571,10.664285714285715L7.021428571428571,9.592857142857142L7.878571428571428,9.592857142857142L7.878571428571428,9.378571428571426L9.164285714285715,9.378571428571426L9.164285714285715,9.264285714285716L8.95,9.264285714285716L8.95,8.407142857142858L8.735714285714284,8.407142857142858L8.735714285714284,7.235714285714286L9.378571428571426,7.235714285714286L9.378571428571426,7.021428571428571L12.692857142857143,7.021428571428571L12.692857142857143,7.235714285714286L12.907142857142858,7.235714285714286L12.907142857142858,7.45L13.5,7.45L13.5,7.55L12.807142857142857,7.55L12.807142857142857,7.335714285714285L12.592857142857142,7.335714285714285L12.592857142857142,7.121428571428571L9.478571428571428,7.121428571428571L9.478571428571428,7.335714285714285L8.835714285714285,7.335714285714285L8.835714285714285,8.307142857142857L9.05,8.307142857142857L9.05,9.164285714285715z" stroke="none"/><path d="M16.02142857142857,5.0928571428571425L16.02142857142857,4.878571428571429L16.878571428571426,4.878571428571429L16.878571428571426,4.664285714285715L17.09285714285714,4.664285714285715L17.09285714285714,4.45L17.307142857142857,4.45L17.307142857142857,3.8071428571428574L17.521428571428572,3.8071428571428574L17.521428571428572,3.3785714285714286L17.735714285714284,3.3785714285714286L17.735714285714284,3.1642857142857146L17.95,3.1642857142857146L17.95,3L18.05,3L18.05,3.2642857142857142L17.835714285714285,3.2642857142857142L17.835714285714285,3.478571428571428L17.621428571428574,3.478571428571428L17.621428571428574,3.907142857142857L17.40714285714286,3.907142857142857L17.40714285714286,4.55L17.192857142857143,4.55L17.192857142857143,4.764285714285714L16.978571428571428,4.764285714285714L16.978571428571428,4.978571428571429L16.12142857142857,4.978571428571429L16.12142857142857,5.0928571428571425L17.192857142857143,5.0928571428571425L17.192857142857143,5.307142857142857L17.621428571428574,5.307142857142857L17.621428571428574,5.735714285714286L18.90714285714286,5.735714285714286L18.90714285714286,5.95L19.978571428571428,5.95L19.978571428571428,6.164285714285715L20.192857142857143,6.164285714285715L20.192857142857143,6.378571428571428L20.40714285714286,6.378571428571428L20.40714285714286,6.807142857142857L20.621428571428574,6.807142857142857L20.621428571428574,7.45L21,7.45L21,7.55L20.521428571428572,7.55L20.521428571428572,6.907142857142857L20.307142857142857,6.907142857142857L20.307142857142857,6.478571428571428L20.09285714285714,6.478571428571428L20.09285714285714,6.264285714285714L19.878571428571426,6.264285714285714L19.878571428571426,6.05L18.807142857142857,6.05L18.807142857142857,5.835714285714285L17.521428571428572,5.835714285714285L17.521428571428572,5.407142857142857L17.09285714285714,5.407142857142857L17.09285714285714,5.192857142857142L16.12142857142857,5.192857142857142L16.12142857142857,5.407142857142857L12.264285714285716,5.407142857142857L12.264285714285716,5.621428571428571L12.05,5.621428571428571L12.05,6L11.95,6L11.95,5.521428571428571L12.164285714285715,5.521428571428571L12.164285714285715,5.307142857142857L16.02142857142857,5.307142857142857L16.02142857142857,5.192857142857142L13.664285714285715,5.192857142857142L13.664285714285715,4.55L13.5,4.55L13.5,4.45L13.764285714285716,4.45L13.764285714285716,5.0928571428571425z" stroke="none"/><path d="M16.5,4.45L16.5,4.55L15,4.55L15,4.45z" stroke="none"/><path d="M7.45,3L7.55,3L7.55,4.5L7.45,4.5z" stroke="none"/><path d="M3.05,9L2.95,9L2.95,7.5L3.05,7.5z" stroke="none"/><path d="M21,12.05L21,11.95L21.807142857142857,11.95L21.807142857142857,11.735714285714284L22.021428571428572,11.735714285714284L22.021428571428572,11.307142857142857L22.45,11.307142857142857L22.45,10.5L22.55,10.5L22.55,11.407142857142858L22.121428571428574,11.407142857142858L22.121428571428574,11.835714285714285L21.90714285714286,11.835714285714285L21.90714285714286,12.05z" stroke="none"/><path d="M4.5,11.95L4.5,12.05L3.907142857142857,12.05L3.907142857142857,12.264285714285716L3.478571428571428,12.264285714285716L3.478571428571428,12.478571428571428L2.521428571428572,12.478571428571428L2.521428571428572,11.307142857142857L3.1642857142857146,11.307142857142857L3.1642857142857146,11.092857142857142L5.307142857142857,11.092857142857142L5.307142857142857,10.664285714285715L5.735714285714286,10.664285714285715L5.735714285714286,10.45L6,10.45L6,10.55L5.835714285714285,10.55L5.835714285714285,10.764285714285716L5.407142857142857,10.764285714285716L5.407142857142857,11.192857142857143L3.2642857142857142,11.192857142857143L3.2642857142857142,11.407142857142858L2.6214285714285714,11.407142857142858L2.6214285714285714,12.378571428571426L3.3785714285714286,12.378571428571426L3.3785714285714286,12.164285714285715L3.8071428571428574,12.164285714285715L3.8071428571428574,11.95z" stroke="none"/><path d="M24,6.05L24,5.95L24.164285714285715,5.95L24.164285714285715,4.878571428571429L24.378571428571426,4.878571428571429L24.378571428571426,3.907142857142857L24.164285714285715,3.907142857142857L24.164285714285715,3.478571428571428L23.95,3.478571428571428L23.95,3L24.05,3L24.05,3.3785714285714286L24.264285714285716,3.3785714285714286L24.264285714285716,3.8071428571428574L24.478571428571428,3.8071428571428574L24.478571428571428,4.978571428571429L24.264285714285716,4.978571428571429L24.264285714285716,6.05z" stroke="none"/><path d="M21,4.45L21,4.55L18,4.55L18,4.45z" stroke="none"/><path d="M25.5,8.95L25.5,9.05L25.235714285714284,9.05L25.235714285714284,8.835714285714285L24.807142857142857,8.835714285714285L24.807142857142857,7.335714285714285L24.59285714285714,7.335714285714285L24.59285714285714,7.121428571428571L23.192857142857143,7.121428571428571L23.192857142857143,7.335714285714285L22.55,7.335714285714285L22.55,7.5L22.45,7.5L22.45,7.235714285714286L23.09285714285714,7.235714285714286L23.09285714285714,7.021428571428571L24.692857142857143,7.021428571428571L24.692857142857143,7.235714285714286L24.90714285714286,7.235714285714286L24.90714285714286,8.735714285714284L25.335714285714285,8.735714285714284L25.335714285714285,8.95z" stroke="none"/><path d="M16.55,12L16.45,12L16.45,10.021428571428569L16.664285714285715,10.021428571428569L16.664285714285715,9.592857142857142L17.09285714285714,9.592857142857142L17.09285714285714,9.378571428571426L17.307142857142857,9.378571428571426L17.307142857142857,8.95L18,8.95L18,9.05L17.40714285714286,9.05L17.40714285714286,9.478571428571428L17.192857142857143,9.478571428571428L17.192857142857143,9.692857142857143L16.764285714285716,9.692857142857143L16.764285714285716,10.12142857142857L16.55,10.12142857142857z" stroke="none"/><path d="M9,4.55L9,4.45L9.907142857142858,4.45L9.907142857142858,4.664285714285715L10.55,4.664285714285715L10.55,5.307142857142857L11.407142857142858,5.307142857142857L11.407142857142858,5.95L11.62142857142857,5.95L11.62142857142857,6.378571428571428L13.978571428571428,6.378571428571428L13.978571428571428,7.978571428571428L11.95,7.978571428571428L11.95,7.764285714285714L10.45,7.764285714285714L10.45,7.5L10.55,7.5L10.55,7.664285714285715L12.05,7.664285714285715L12.05,7.878571428571428L13.878571428571426,7.878571428571428L13.878571428571426,6.478571428571428L11.521428571428569,6.478571428571428L11.521428571428569,6.05L11.307142857142857,6.05L11.307142857142857,5.407142857142857L10.45,5.407142857142857L10.45,4.764285714285714L9.807142857142857,4.764285714285714L9.807142857142857,4.55z" stroke="none"/><path d="M12,2.95L12,3.05L10.12142857142857,3.05L10.12142857142857,3.2642857142857142L9.907142857142858,3.2642857142857142L9.907142857142858,3.478571428571428L8.835714285714285,3.478571428571428L8.835714285714285,4.121428571428571L8.62142857142857,4.121428571428571L8.62142857142857,4.878571428571429L9.907142857142858,4.878571428571429L9.907142857142858,5.0928571428571425L10.335714285714285,5.0928571428571425L10.335714285714285,5.735714285714286L10.55,5.735714285714286L10.55,6L10.45,6L10.45,5.835714285714285L10.235714285714284,5.835714285714285L10.235714285714284,5.192857142857142L9.807142857142857,5.192857142857142L9.807142857142857,4.978571428571429L8.521428571428569,4.978571428571429L8.521428571428569,4.021428571428571L8.735714285714284,4.021428571428571L8.735714285714284,3.3785714285714286L9.807142857142857,3.3785714285714286L9.807142857142857,3.1642857142857146L10.021428571428569,3.1642857142857146L10.021428571428569,2.95z" stroke="none"/><path d="M22.5,9.05L22.5,8.95L22.878571428571426,8.95L22.878571428571426,8.735714285714284L23.52142857142857,8.735714285714284L23.52142857142857,8.521428571428569L24.478571428571428,8.521428571428569L24.478571428571428,8.735714285714284L24.692857142857143,8.735714285714284L24.692857142857143,8.95L25.12142857142857,8.95L25.12142857142857,9.378571428571426L25.878571428571426,9.378571428571426L25.878571428571426,6.907142857142857L25.235714285714284,6.907142857142857L25.235714285714284,6.692857142857142L23.52142857142857,6.692857142857142L23.52142857142857,5.621428571428571L22.664285714285715,5.621428571428571L22.664285714285715,4.764285714285714L22.45,4.764285714285714L22.45,4.5L22.55,4.5L22.55,4.664285714285715L22.764285714285716,4.664285714285715L22.764285714285716,5.521428571428571L23.62142857142857,5.521428571428571L23.62142857142857,6.5928571428571425L25.335714285714285,6.5928571428571425L25.335714285714285,6.807142857142857L25.978571428571428,6.807142857142857L25.978571428571428,9.478571428571428L25.02142857142857,9.478571428571428L25.02142857142857,9.05L24.59285714285714,9.05L24.59285714285714,8.835714285714285L24.378571428571426,8.835714285714285L24.378571428571426,8.62142857142857L23.62142857142857,8.62142857142857L23.62142857142857,8.835714285714285L22.978571428571428,8.835714285714285L22.978571428571428,9.05z" stroke="none"/><path d="M7.45,7.5L7.55,7.5L7.55,8.407142857142858L7.335714285714285,8.407142857142858L7.335714285714285,8.62142857142857L6.907142857142857,8.62142857142857L6.907142857142857,8.835714285714285L6.478571428571428,8.835714285714285L6.478571428571428,9.264285714285716L6.264285714285714,9.264285714285716L6.264285714285714,9.478571428571428L5.192857142857142,9.478571428571428L5.192857142857142,9.692857142857143L3.6928571428571426,9.692857142857143L3.6928571428571426,9.907142857142858L3.05,9.907142857142858L3.05,10.55L2.8357142857142854,10.55L2.8357142857142854,10.978571428571428L2.6214285714285714,10.978571428571428L2.6214285714285714,11.192857142857143L2.407142857142857,11.192857142857143L2.407142857142857,12.592857142857142L5.521428571428571,12.592857142857142L5.521428571428571,12.378571428571426L5.735714285714286,12.378571428571426L5.735714285714286,12.164285714285715L6.807142857142857,12.164285714285715L6.807142857142857,11.95L7.5,11.95L7.5,12.05L6.907142857142857,12.05L6.907142857142857,12.264285714285716L5.835714285714285,12.264285714285716L5.835714285714285,12.478571428571428L5.621428571428571,12.478571428571428L5.621428571428571,12.692857142857143L2.3071428571428574,12.692857142857143L2.3071428571428574,11.092857142857142L2.521428571428572,11.092857142857142L2.521428571428572,10.878571428571426L2.7357142857142858,10.878571428571426L2.7357142857142858,10.45L2.95,10.45L2.95,9.807142857142857L3.592857142857143,9.807142857142857L3.592857142857143,9.592857142857142L5.0928571428571425,9.592857142857142L5.0928571428571425,9.378571428571426L6.164285714285715,9.378571428571426L6.164285714285715,9.164285714285715L6.378571428571428,9.164285714285715L6.378571428571428,8.735714285714284L6.807142857142857,8.735714285714284L6.807142857142857,8.521428571428569L7.235714285714286,8.521428571428569L7.235714285714286,8.307142857142857L7.45,8.307142857142857z" stroke="none"/><path d="M25.5,6.05L25.5,5.95L25.764285714285716,5.95L25.764285714285716,6.378571428571428L26.192857142857143,6.378571428571428L26.192857142857143,10.235714285714284L26.40714285714286,10.235714285714284L26.40714285714286,10.45L27,10.45L27,10.55L26.307142857142857,10.55L26.307142857142857,10.335714285714285L26.09285714285714,10.335714285714285L26.09285714285714,6.478571428571428L25.664285714285715,6.478571428571428L25.664285714285715,6.05z" stroke="none"/><path d="M27.05,9L26.95,9L26.95,7.335714285714285L26.735714285714284,7.335714285714285L26.735714285714284,7.121428571428571L26.52142857142857,7.121428571428571L26.52142857142857,5.621428571428571L25.878571428571426,5.621428571428571L25.878571428571426,4.764285714285714L25.45,4.764285714285714L25.45,4.55L25.235714285714284,4.55L25.235714285714284,3.6928571428571426L24.807142857142857,3.6928571428571426L24.807142857142857,3.2642857142857142L24.378571428571426,3.2642857142857142L24.378571428571426,2.6214285714285714L23.62142857142857,2.6214285714285714L23.62142857142857,4.021428571428571L24.05,4.021428571428571L24.05,4.5L23.95,4.5L23.95,4.121428571428571L23.52142857142857,4.121428571428571L23.52142857142857,2.521428571428572L24.478571428571428,2.521428571428572L24.478571428571428,3.1642857142857146L24.90714285714286,3.1642857142857146L24.90714285714286,3.592857142857143L25.335714285714285,3.592857142857143L25.335714285714285,4.45L25.55,4.45L25.55,4.664285714285715L25.978571428571428,4.664285714285715L25.978571428571428,5.521428571428571L26.62142857142857,5.521428571428571L26.62142857142857,7.021428571428571L26.835714285714285,7.021428571428571L26.835714285714285,7.235714285714286L27.05,7.235714285714286z" stroke="none"/><path d="M4.5,10.55L4.5,10.45L5.307142857142857,10.45L5.307142857142857,10.235714285714284L5.521428571428571,10.235714285714284L5.521428571428571,10.021428571428569L6.164285714285715,10.021428571428569L6.164285714285715,9.807142857142857L6.378571428571428,9.807142857142857L6.378571428571428,9.592857142857142L6.5928571428571425,9.592857142857142L6.5928571428571425,9.164285714285715L7.235714285714286,9.164285714285715L7.235714285714286,8.95L7.45,8.95L7.45,8.735714285714284L7.664285714285715,8.735714285714284L7.664285714285715,8.092857142857142L7.878571428571428,8.092857142857142L7.878571428571428,7.878571428571428L8.092857142857142,7.878571428571428L8.092857142857142,7.664285714285715L8.307142857142857,7.664285714285715L8.307142857142857,7.235714285714286L8.521428571428569,7.235714285714286L8.521428571428569,7.021428571428571L9.164285714285715,7.021428571428571L9.164285714285715,6.378571428571428L9.378571428571426,6.378571428571428L9.378571428571426,5.621428571428571L7.764285714285714,5.621428571428571L7.764285714285714,5.835714285714285L7.55,5.835714285714285L7.55,6L7.45,6L7.45,5.735714285714286L7.664285714285715,5.735714285714286L7.664285714285715,5.521428571428571L9.478571428571428,5.521428571428571L9.478571428571428,6.478571428571428L9.264285714285716,6.478571428571428L9.264285714285716,7.121428571428571L8.62142857142857,7.121428571428571L8.62142857142857,7.335714285714285L8.407142857142858,7.335714285714285L8.407142857142858,7.764285714285714L8.192857142857143,7.764285714285714L8.192857142857143,7.978571428571428L7.978571428571428,7.978571428571428L7.978571428571428,8.192857142857143L7.764285714285714,8.192857142857143L7.764285714285714,8.835714285714285L7.55,8.835714285714285L7.55,9.05L7.335714285714285,9.05L7.335714285714285,9.264285714285716L6.692857142857142,9.264285714285716L6.692857142857142,9.692857142857143L6.478571428571428,9.692857142857143L6.478571428571428,9.907142857142858L6.264285714285714,9.907142857142858L6.264285714285714,10.12142857142857L5.621428571428571,10.12142857142857L5.621428571428571,10.335714285714285L5.407142857142857,10.335714285714285L5.407142857142857,10.55z" stroke="none"/><path d="M4.45,6L4.55,6L4.55,6.692857142857142L4.335714285714285,6.692857142857142L4.335714285714285,6.907142857142857L4.121428571428571,6.907142857142857L4.121428571428571,9.478571428571428L3.2642857142857142,9.478571428571428L3.2642857142857142,9.692857142857143L2.8357142857142854,9.692857142857143L2.8357142857142854,10.12142857142857L2.6214285714285714,10.12142857142857L2.6214285714285714,10.55L2.407142857142857,10.55L2.407142857142857,10.978571428571428L2.1928571428571426,10.978571428571428L2.1928571428571426,12.807142857142857L7.45,12.807142857142857L7.45,12.592857142857142L7.664285714285715,12.592857142857142L7.664285714285715,12.378571428571426L7.878571428571428,12.378571428571426L7.878571428571428,11.407142857142858L7.664285714285715,11.407142857142858L7.664285714285715,11.192857142857143L7.45,11.192857142857143L7.45,10.5L7.55,10.5L7.55,11.092857142857142L7.764285714285714,11.092857142857142L7.764285714285714,11.307142857142857L7.978571428571428,11.307142857142857L7.978571428571428,12.478571428571428L7.764285714285714,12.478571428571428L7.764285714285714,12.692857142857143L7.55,12.692857142857143L7.55,12.907142857142858L2.092857142857143,12.907142857142858L2.092857142857143,10.878571428571426L2.3071428571428574,10.878571428571426L2.3071428571428574,10.45L2.521428571428572,10.45L2.521428571428572,10.021428571428569L2.7357142857142858,10.021428571428569L2.7357142857142858,9.592857142857142L3.1642857142857146,9.592857142857142L3.1642857142857146,9.378571428571426L4.021428571428571,9.378571428571426L4.021428571428571,6.807142857142857L4.235714285714286,6.807142857142857L4.235714285714286,6.5928571428571425L4.45,6.5928571428571425z" stroke="none"/><path d="M18,11.95L18,12.05L16.978571428571428,12.05L16.978571428571428,12.478571428571428L16.02142857142857,12.478571428571428L16.02142857142857,10.55L15.807142857142857,10.55L15.807142857142857,10.335714285714285L15.378571428571426,10.335714285714285L15.378571428571426,9.907142857142858L15.164285714285715,9.907142857142858L15.164285714285715,9.692857142857143L14.735714285714284,9.692857142857143L14.735714285714284,9.478571428571428L14.521428571428569,9.478571428571428L14.521428571428569,7.878571428571428L14.95,7.878571428571428L14.95,7.5L15.05,7.5L15.05,7.978571428571428L14.62142857142857,7.978571428571428L14.62142857142857,9.378571428571426L14.835714285714285,9.378571428571426L14.835714285714285,9.592857142857142L15.264285714285716,9.592857142857142L15.264285714285716,9.807142857142857L15.478571428571428,9.807142857142857L15.478571428571428,10.235714285714284L15.907142857142858,10.235714285714284L15.907142857142858,10.45L16.12142857142857,10.45L16.12142857142857,12.378571428571426L16.878571428571426,12.378571428571426L16.878571428571426,11.95z" stroke="none"/><path d="M24,11.95L24,12.05L22.121428571428574,12.05L22.121428571428574,12.264285714285716L21.478571428571428,12.264285714285716L21.478571428571428,12.478571428571428L20.521428571428572,12.478571428571428L20.521428571428572,12.05L20.307142857142857,12.05L20.307142857142857,11.62142857142857L18.807142857142857,11.62142857142857L18.807142857142857,11.407142857142858L18.378571428571426,11.407142857142858L18.378571428571426,11.192857142857143L18.164285714285715,11.192857142857143L18.164285714285715,10.978571428571428L17.95,10.978571428571428L17.95,10.5L18.05,10.5L18.05,10.878571428571426L18.264285714285716,10.878571428571426L18.264285714285716,11.092857142857142L18.478571428571428,11.092857142857142L18.478571428571428,11.307142857142857L18.90714285714286,11.307142857142857L18.90714285714286,11.521428571428569L20.40714285714286,11.521428571428569L20.40714285714286,11.95L20.621428571428574,11.95L20.621428571428574,12.378571428571426L21.378571428571426,12.378571428571426L21.378571428571426,12.164285714285715L22.021428571428572,12.164285714285715L22.021428571428572,11.95z" stroke="none"/><path d="M19.5,11.95L19.5,12.05L19.121428571428574,12.05L19.121428571428574,12.264285714285716L18.90714285714286,12.264285714285716L18.90714285714286,12.478571428571428L17.621428571428574,12.478571428571428L17.621428571428574,12.692857142857143L15.807142857142857,12.692857142857143L15.807142857142857,10.978571428571428L15.592857142857142,10.978571428571428L15.592857142857142,10.764285714285716L14.95,10.764285714285716L14.95,10.55L14.521428571428569,10.55L14.521428571428569,10.335714285714285L13.45,10.335714285714285L13.45,9.907142857142858L13.021428571428569,9.907142857142858L13.021428571428569,9.478571428571428L12.592857142857142,9.478571428571428L12.592857142857142,9.264285714285716L11.95,9.264285714285716L11.95,9L12.05,9L12.05,9.164285714285715L12.692857142857143,9.164285714285715L12.692857142857143,9.378571428571426L13.12142857142857,9.378571428571426L13.12142857142857,9.807142857142857L13.55,9.807142857142857L13.55,10.235714285714284L14.62142857142857,10.235714285714284L14.62142857142857,10.45L15.05,10.45L15.05,10.664285714285715L15.692857142857143,10.664285714285715L15.692857142857143,10.878571428571426L15.907142857142858,10.878571428571426L15.907142857142858,12.592857142857142L17.521428571428572,12.592857142857142L17.521428571428572,12.378571428571426L18.807142857142857,12.378571428571426L18.807142857142857,12.164285714285715L19.021428571428572,12.164285714285715L19.021428571428572,11.95z" stroke="none"/><path d="M25.5,2.95L25.5,3.05L24.807142857142857,3.05L24.807142857142857,2.6214285714285714L24.59285714285714,2.6214285714285714L24.59285714285714,2.407142857142857L17.621428571428574,2.407142857142857L17.621428571428574,2.6214285714285714L16.978571428571428,2.6214285714285714L16.978571428571428,3.05L16.5,3.05L16.5,2.95L16.878571428571426,2.95L16.878571428571426,2.521428571428572L17.521428571428572,2.521428571428572L17.521428571428572,2.3071428571428574L24.692857142857143,2.3071428571428574L24.692857142857143,2.521428571428572L24.90714285714286,2.521428571428572L24.90714285714286,2.95z" stroke="none"/><path d="M18,7.45L18,7.55L15.807142857142857,7.55L15.807142857142857,7.121428571428571L14.62142857142857,7.121428571428571L14.62142857142857,7.335714285714285L14.407142857142858,7.335714285714285L14.407142857142858,8.192857142857143L12.05,8.192857142857143L12.05,8.62142857142857L11.62142857142857,8.62142857142857L11.62142857142857,9.592857142857142L12.05,9.592857142857142L12.05,9.807142857142857L12.264285714285716,9.807142857142857L12.264285714285716,10.021428571428569L12.478571428571428,10.021428571428569L12.478571428571428,10.664285714285715L13.12142857142857,10.664285714285715L13.12142857142857,11.092857142857142L13.335714285714285,11.092857142857142L13.335714285714285,11.307142857142857L13.55,11.307142857142857L13.55,11.95L14.192857142857143,11.95L14.192857142857143,12.164285714285715L15.264285714285716,12.164285714285715L15.264285714285716,12.378571428571426L15.478571428571428,12.378571428571426L15.478571428571428,12.807142857142857L26.307142857142857,12.807142857142857L26.307142857142857,11.735714285714284L26.52142857142857,11.735714285714284L26.52142857142857,11.307142857142857L27.164285714285715,11.307142857142857L27.164285714285715,11.092857142857142L27.378571428571426,11.092857142857142L27.378571428571426,6.264285714285714L26.95,6.264285714285714L26.95,6L27.05,6L27.05,6.164285714285715L27.478571428571428,6.164285714285715L27.478571428571428,11.192857142857143L27.264285714285716,11.192857142857143L27.264285714285716,11.407142857142858L26.62142857142857,11.407142857142858L26.62142857142857,11.835714285714285L26.40714285714286,11.835714285714285L26.40714285714286,12.907142857142858L15.378571428571426,12.907142857142858L15.378571428571426,12.478571428571428L15.164285714285715,12.478571428571428L15.164285714285715,12.264285714285716L14.092857142857142,12.264285714285716L14.092857142857142,12.05L13.45,12.05L13.45,11.407142857142858L13.235714285714284,11.407142857142858L13.235714285714284,11.192857142857143L13.021428571428569,11.192857142857143L13.021428571428569,10.764285714285716L12.378571428571426,10.764285714285716L12.378571428571426,10.12142857142857L12.164285714285715,10.12142857142857L12.164285714285715,9.907142857142858L11.95,9.907142857142858L11.95,9.692857142857143L11.521428571428569,9.692857142857143L11.521428571428569,8.521428571428569L11.95,8.521428571428569L11.95,8.092857142857142L14.307142857142857,8.092857142857142L14.307142857142857,7.235714285714286L14.521428571428569,7.235714285714286L14.521428571428569,7.021428571428571L15.907142857142858,7.021428571428571L15.907142857142858,7.45z" stroke="none"/><path d="M15,2.95L15,3.05L14.092857142857142,3.05L14.092857142857142,2.8357142857142854L13.878571428571426,2.8357142857142854L13.878571428571426,2.6214285714285714L10.664285714285715,2.6214285714285714L10.664285714285715,2.407142857142857L4.764285714285714,2.407142857142857L4.764285714285714,2.6214285714285714L4.121428571428571,2.6214285714285714L4.121428571428571,3.3785714285714286L5.407142857142857,3.3785714285714286L5.407142857142857,3.592857142857143L5.621428571428571,3.592857142857143L5.621428571428571,4.021428571428571L5.835714285714285,4.021428571428571L5.835714285714285,4.45L6,4.45L6,4.55L5.735714285714286,4.55L5.735714285714286,4.121428571428571L5.521428571428571,4.121428571428571L5.521428571428571,3.6928571428571426L5.307142857142857,3.6928571428571426L5.307142857142857,3.478571428571428L4.021428571428571,3.478571428571428L4.021428571428571,2.521428571428572L4.664285714285715,2.521428571428572L4.664285714285715,2.3071428571428574L10.764285714285716,2.3071428571428574L10.764285714285716,2.521428571428572L13.978571428571428,2.521428571428572L13.978571428571428,2.7357142857142858L14.192857142857143,2.7357142857142858L14.192857142857143,2.95z" stroke="none"/><path d="M3.05,4.5L2.95,4.5L2.95,2.092857142857143L15.264285714285716,2.092857142857143L15.264285714285716,2.521428571428572L15.478571428571428,2.521428571428572L15.478571428571428,3.478571428571428L14.092857142857142,3.478571428571428L14.092857142857142,3.2642857142857142L13.664285714285715,3.2642857142857142L13.664285714285715,3.05L13.5,3.05L13.5,2.95L13.764285714285716,2.95L13.764285714285716,3.1642857142857146L14.192857142857143,3.1642857142857146L14.192857142857143,3.3785714285714286L15.378571428571426,3.3785714285714286L15.378571428571426,2.6214285714285714L15.164285714285715,2.6214285714285714L15.164285714285715,2.1928571428571426L3.05,2.1928571428571426z" stroke="none"/></svg>