<svg version="1.1" width="30" height="15" xmlns="http://www.w3.org/2000/svg"><path d="M22.45,11.307142857142857L22.45,11.192857142857143L19.664285714285715,11.192857142857143L19.664285714285715,10.764285714285716L19.45,10.764285714285716L19.45,10.5L19.55,10.5L19.55,10.664285714285715L19.764285714285716,10.664285714285715L19.764285714285716,11.092857142857142L22.55,11.092857142857142L22.55,11.307142857142857L26.40714285714286,11.307142857142857L26.40714285714286,11.521428571428569L26.62142857142857,11.521428571428569L26.62142857142857,11.735714285714284L26.835714285714285,11.735714285714284L26.835714285714285,11.95L27,11.95L27,12.05L26.735714285714284,12.05L26.735714285714284,11.835714285714285L26.52142857142857,11.835714285714285L26.52142857142857,11.62142857142857L26.307142857142857,11.62142857142857L26.307142857142857,11.407142857142858L22.121428571428574,11.407142857142858L22.121428571428574,11.62142857142857L21.90714285714286,11.62142857142857L21.90714285714286,11.835714285714285L21.478571428571428,11.835714285714285L21.478571428571428,12.05L21,12.05L21,11.95L21.378571428571426,11.95L21.378571428571426,11.735714285714284L21.807142857142857,11.735714285714284L21.807142857142857,11.521428571428569L22.021428571428572,11.521428571428569L22.021428571428572,11.307142857142857z" stroke="none"/><path d="M18.378571428571426,5.0928571428571425L18.378571428571426,4.45L18.59285714285714,4.45L18.59285714285714,4.235714285714286L18.807142857142857,4.235714285714286L18.807142857142857,3.592857142857143L19.021428571428572,3.592857142857143L19.021428571428572,3.1642857142857146L19.45,3.1642857142857146L19.45,3L19.55,3L19.55,3.2642857142857142L19.121428571428574,3.2642857142857142L19.121428571428574,3.6928571428571426L18.90714285714286,3.6928571428571426L18.90714285714286,4.335714285714285L18.692857142857143,4.335714285714285L18.692857142857143,4.55L18.478571428571428,4.55L18.478571428571428,5.192857142857142L15.05,5.192857142857142L15.05,5.407142857142857L14.62142857142857,5.407142857142857L14.62142857142857,5.835714285714285L14.407142857142858,5.835714285714285L14.407142857142858,6.05L13.764285714285716,6.05L13.764285714285716,6.264285714285714L12.378571428571426,6.264285714285714L12.378571428571426,6.05L12,6.05L12,5.95L12.478571428571428,5.95L12.478571428571428,6.164285714285715L13.664285714285715,6.164285714285715L13.664285714285715,5.95L14.307142857142857,5.95L14.307142857142857,5.735714285714286L14.521428571428569,5.735714285714286L14.521428571428569,5.307142857142857L14.95,5.307142857142857L14.95,5.192857142857142L13.978571428571428,5.192857142857142L13.978571428571428,5.407142857142857L13.55,5.407142857142857L13.55,6L13.45,6L13.45,5.307142857142857L13.878571428571426,5.307142857142857L13.878571428571426,5.0928571428571425z" stroke="none"/><path d="M24.90714285714286,8.307142857142857L24.90714285714286,8.521428571428569L25.12142857142857,8.521428571428569L25.12142857142857,8.735714285714284L25.55,8.735714285714284L25.55,9L25.45,9L25.45,8.835714285714285L25.02142857142857,8.835714285714285L25.02142857142857,8.62142857142857L24.807142857142857,8.62142857142857L24.807142857142857,8.407142857142858L22.978571428571428,8.407142857142858L22.978571428571428,8.521428571428569L24.478571428571428,8.521428571428569L24.478571428571428,8.735714285714284L24.692857142857143,8.735714285714284L24.692857142857143,8.95L25.12142857142857,8.95L25.12142857142857,9.164285714285715L25.978571428571428,9.164285714285715L25.978571428571428,9.378571428571426L26.192857142857143,9.378571428571426L26.192857142857143,9.592857142857142L26.40714285714286,9.592857142857142L26.40714285714286,9.807142857142857L26.835714285714285,9.807142857142857L26.835714285714285,10.45L27,10.45L27,10.55L26.735714285714284,10.55L26.735714285714284,9.907142857142858L26.307142857142857,9.907142857142858L26.307142857142857,9.692857142857143L26.09285714285714,9.692857142857143L26.09285714285714,9.478571428571428L25.878571428571426,9.478571428571428L25.878571428571426,9.264285714285716L25.02142857142857,9.264285714285716L25.02142857142857,9.05L24.59285714285714,9.05L24.59285714285714,8.835714285714285L24.378571428571426,8.835714285714285L24.378571428571426,8.62142857142857L22.878571428571426,8.62142857142857L22.878571428571426,8.407142857142858L20.95,8.407142857142858L20.95,8.192857142857143L20.735714285714284,8.192857142857143L20.735714285714284,7.978571428571428L19.664285714285715,7.978571428571428L19.664285714285715,7.764285714285714L19.021428571428572,7.764285714285714L19.021428571428572,7.121428571428571L18.807142857142857,7.121428571428571L18.807142857142857,6.692857142857142L18.59285714285714,6.692857142857142L18.59285714285714,6.264285714285714L18.378571428571426,6.264285714285714L18.378571428571426,6.05L16.5,6.05L16.5,5.95L18.478571428571428,5.95L18.478571428571428,6.164285714285715L18.692857142857143,6.164285714285715L18.692857142857143,6.5928571428571425L18.90714285714286,6.5928571428571425L18.90714285714286,7.021428571428571L19.121428571428574,7.021428571428571L19.121428571428574,7.664285714285715L19.764285714285716,7.664285714285715L19.764285714285716,7.878571428571428L20.835714285714285,7.878571428571428L20.835714285714285,8.092857142857142L21.05,8.092857142857142L21.05,8.307142857142857z" stroke="none"/><path d="M8.95,9.164285714285715L8.95,9.05L8.735714285714284,9.05L8.735714285714284,8.62142857142857L8.521428571428569,8.62142857142857L8.521428571428569,8.192857142857143L7.45,8.192857142857143L7.45,7.5L7.55,7.5L7.55,8.092857142857142L8.62142857142857,8.092857142857142L8.62142857142857,8.521428571428569L8.835714285714285,8.521428571428569L8.835714285714285,8.95L9.05,8.95L9.05,9.164285714285715L13.12142857142857,9.164285714285715L13.12142857142857,9.378571428571426L16.235714285714284,9.378571428571426L16.235714285714284,9.164285714285715L16.45,9.164285714285715L16.45,9L16.55,9L16.55,9.264285714285716L16.335714285714285,9.264285714285716L16.335714285714285,9.478571428571428L13.021428571428569,9.478571428571428L13.021428571428569,9.264285714285716L9.05,9.264285714285716L9.05,9.478571428571428L8.62142857142857,9.478571428571428L8.62142857142857,9.692857142857143L7.978571428571428,9.692857142857143L7.978571428571428,9.907142857142858L7.121428571428571,9.907142857142858L7.121428571428571,10.335714285714285L6.05,10.335714285714285L6.05,10.55L5.835714285714285,10.55L5.835714285714285,10.764285714285716L5.621428571428571,10.764285714285716L5.621428571428571,11.62142857142857L5.407142857142857,11.62142857142857L5.407142857142857,11.835714285714285L4.55,11.835714285714285L4.55,12L4.45,12L4.45,11.735714285714284L5.307142857142857,11.735714285714284L5.307142857142857,11.521428571428569L5.521428571428571,11.521428571428569L5.521428571428571,10.664285714285715L5.735714285714286,10.664285714285715L5.735714285714286,10.45L5.95,10.45L5.95,10.235714285714284L7.021428571428571,10.235714285714284L7.021428571428571,9.807142857142857L7.878571428571428,9.807142857142857L7.878571428571428,9.592857142857142L8.521428571428569,9.592857142857142L8.521428571428569,9.378571428571426L8.95,9.378571428571426L8.95,9.264285714285716L7.664285714285715,9.264285714285716L7.664285714285715,9.05L7.5,9.05L7.5,8.95L7.764285714285714,8.95L7.764285714285714,9.164285714285715z" stroke="none"/><path d="M21.59285714285714,4.45L21.59285714285714,4.235714285714286L25.12142857142857,4.235714285714286L25.12142857142857,4.45L25.5,4.45L25.5,4.55L25.02142857142857,4.55L25.02142857142857,4.335714285714285L21.692857142857143,4.335714285714285L21.692857142857143,4.45L24,4.45L24,4.55L21.692857142857143,4.55L21.692857142857143,6.05L21,6.05L21,5.95L21.59285714285714,5.95L21.59285714285714,4.55L21.164285714285715,4.55L21.164285714285715,4.335714285714285L20.95,4.335714285714285L20.95,3.907142857142857L20.735714285714284,3.907142857142857L20.735714285714284,3.6928571428571426L20.521428571428572,3.6928571428571426L20.521428571428572,3.2642857142857142L20.307142857142857,3.2642857142857142L20.307142857142857,3.05L20.09285714285714,3.05L20.09285714285714,2.6214285714285714L17.192857142857143,2.6214285714285714L17.192857142857143,2.8357142857142854L16.55,2.8357142857142854L16.55,3L16.45,3L16.45,2.7357142857142858L17.09285714285714,2.7357142857142858L17.09285714285714,2.521428571428572L20.192857142857143,2.521428571428572L20.192857142857143,2.95L20.40714285714286,2.95L20.40714285714286,3.1642857142857146L20.621428571428574,3.1642857142857146L20.621428571428574,3.592857142857143L20.835714285714285,3.592857142857143L20.835714285714285,3.8071428571428574L21.05,3.8071428571428574L21.05,4.235714285714286L21.264285714285716,4.235714285714286L21.264285714285716,4.45z" stroke="none"/><path d="M11.307142857142857,6.164285714285715L11.307142857142857,5.95L11.521428571428569,5.95L11.521428571428569,5.521428571428571L12.807142857142857,5.521428571428571L12.807142857142857,5.307142857142857L13.235714285714284,5.307142857142857L13.235714285714284,4.664285714285715L13.45,4.664285714285715L13.45,4.5L13.55,4.5L13.55,4.764285714285714L13.335714285714285,4.764285714285714L13.335714285714285,5.407142857142857L12.907142857142858,5.407142857142857L12.907142857142858,5.621428571428571L11.62142857142857,5.621428571428571L11.62142857142857,6.05L11.407142857142858,6.05L11.407142857142858,6.164285714285715L11.62142857142857,6.164285714285715L11.62142857142857,6.378571428571428L12.264285714285716,6.378571428571428L12.264285714285716,6.807142857142857L12.692857142857143,6.807142857142857L12.692857142857143,7.021428571428571L13.335714285714285,7.021428571428571L13.335714285714285,7.45L13.5,7.45L13.5,7.55L13.235714285714284,7.55L13.235714285714284,7.121428571428571L12.592857142857142,7.121428571428571L12.592857142857142,6.907142857142857L12.164285714285715,6.907142857142857L12.164285714285715,6.478571428571428L11.521428571428569,6.478571428571428L11.521428571428569,6.264285714285714L11.407142857142858,6.264285714285714L11.407142857142858,7.45L12.264285714285716,7.45L12.264285714285716,7.664285714285715L13.664285714285715,7.664285714285715L13.664285714285715,6.5928571428571425L14.307142857142857,6.5928571428571425L14.307142857142857,6.378571428571428L14.521428571428569,6.378571428571428L14.521428571428569,6.164285714285715L14.95,6.164285714285715L14.95,6L15.05,6L15.05,6.264285714285714L14.62142857142857,6.264285714285714L14.62142857142857,6.478571428571428L14.407142857142858,6.478571428571428L14.407142857142858,6.692857142857142L13.764285714285716,6.692857142857142L13.764285714285716,7.764285714285714L12.164285714285715,7.764285714285714L12.164285714285715,7.55L11.307142857142857,7.55L11.307142857142857,6.264285714285714L6.478571428571428,6.264285714285714L6.478571428571428,6.478571428571428L5.407142857142857,6.478571428571428L5.407142857142857,6.692857142857142L4.978571428571429,6.692857142857142L4.978571428571429,7.335714285714285L4.55,7.335714285714285L4.55,7.5L4.45,7.5L4.45,7.235714285714286L4.878571428571429,7.235714285714286L4.878571428571429,6.5928571428571425L5.307142857142857,6.5928571428571425L5.307142857142857,6.378571428571428L6.378571428571428,6.378571428571428L6.378571428571428,6.164285714285715z" stroke="none"/><path d="M25.45,6L25.55,6L25.55,7.5L25.45,7.5z" stroke="none"/><path d="M12.05,12L11.95,12L11.95,11.192857142857143L11.307142857142857,11.192857142857143L11.307142857142857,10.764285714285716L11.092857142857142,10.764285714285716L11.092857142857142,10.55L10.5,10.55L10.5,10.45L11.192857142857143,10.45L11.192857142857143,10.664285714285715L11.407142857142858,10.664285714285715L11.407142857142858,11.092857142857142L12.05,11.092857142857142z" stroke="none"/><path d="M22.5,7.55L22.5,7.45L23.307142857142857,7.45L23.307142857142857,7.235714285714286L23.52142857142857,7.235714285714286L23.52142857142857,6.807142857142857L23.95,6.807142857142857L23.95,6L24.05,6L24.05,6.907142857142857L23.62142857142857,6.907142857142857L23.62142857142857,7.335714285714285L23.40714285714286,7.335714285714285L23.40714285714286,7.55z" stroke="none"/><path d="M24,12.05L24,11.95L25.12142857142857,11.95L25.12142857142857,12.378571428571426L27.378571428571426,12.378571428571426L27.378571428571426,11.62142857142857L26.95,11.62142857142857L26.95,11.192857142857143L23.307142857142857,11.192857142857143L23.307142857142857,10.764285714285716L23.09285714285714,10.764285714285716L23.09285714285714,10.55L22.5,10.55L22.5,10.45L23.192857142857143,10.45L23.192857142857143,10.664285714285715L23.40714285714286,10.664285714285715L23.40714285714286,11.092857142857142L27.05,11.092857142857142L27.05,11.521428571428569L27.478571428571428,11.521428571428569L27.478571428571428,12.478571428571428L25.02142857142857,12.478571428571428L25.02142857142857,12.05z" stroke="none"/><path d="M2.95,7.5L3.05,7.5L3.05,8.407142857142858L2.8357142857142854,8.407142857142858L2.8357142857142854,8.62142857142857L2.6214285714285714,8.62142857142857L2.6214285714285714,9.807142857142857L2.8357142857142854,9.807142857142857L2.8357142857142854,10.021428571428569L3.05,10.021428571428569L3.05,10.5L2.95,10.5L2.95,10.12142857142857L2.7357142857142858,10.12142857142857L2.7357142857142858,9.907142857142858L2.521428571428572,9.907142857142858L2.521428571428572,8.521428571428569L2.7357142857142858,8.521428571428569L2.7357142857142858,8.307142857142857L2.95,8.307142857142857z" stroke="none"/><path d="M19.55,12L19.45,12L19.45,11.407142857142858L19.235714285714284,11.407142857142858L19.235714285714284,10.978571428571428L19.021428571428572,10.978571428571428L19.021428571428572,10.12142857142857L18.59285714285714,10.12142857142857L18.59285714285714,9.478571428571428L18.164285714285715,9.478571428571428L18.164285714285715,9.264285714285716L17.95,9.264285714285716L17.95,9L18.05,9L18.05,9.164285714285715L18.264285714285716,9.164285714285715L18.264285714285716,9.378571428571426L18.692857142857143,9.378571428571426L18.692857142857143,10.021428571428569L19.121428571428574,10.021428571428569L19.121428571428574,10.878571428571426L19.335714285714285,10.878571428571426L19.335714285714285,11.307142857142857L19.55,11.307142857142857z" stroke="none"/><path d="M13.5,8.95L13.5,9.05L10.664285714285715,9.05L10.664285714285715,7.764285714285714L10.45,7.764285714285714L10.45,7.5L10.55,7.5L10.55,7.664285714285715L10.764285714285716,7.664285714285715L10.764285714285716,8.95z" stroke="none"/><path d="M10.5,4.45L10.5,4.55L10.235714285714284,4.55L10.235714285714284,4.335714285714285L9.378571428571426,4.335714285714285L9.378571428571426,4.121428571428571L8.307142857142857,4.121428571428571L8.307142857142857,3.907142857142857L8.092857142857142,3.907142857142857L8.092857142857142,3.6928571428571426L7.664285714285715,3.6928571428571426L7.664285714285715,3.2642857142857142L7.45,3.2642857142857142L7.45,3L7.55,3L7.55,3.1642857142857146L7.764285714285714,3.1642857142857146L7.764285714285714,3.592857142857143L8.192857142857143,3.592857142857143L8.192857142857143,3.8071428571428574L8.407142857142858,3.8071428571428574L8.407142857142858,4.021428571428571L9.478571428571428,4.021428571428571L9.478571428571428,4.235714285714286L10.335714285714285,4.235714285714286L10.335714285714285,4.45z" stroke="none"/><path d="M15,11.95L15,12.05L14.735714285714284,12.05L14.735714285714284,11.835714285714285L14.092857142857142,11.835714285714285L14.092857142857142,11.407142857142858L13.878571428571426,11.407142857142858L13.878571428571426,10.978571428571428L12.807142857142857,10.978571428571428L12.807142857142857,10.764285714285716L12.164285714285715,10.764285714285716L12.164285714285715,10.55L12,10.55L12,10.45L12.264285714285716,10.45L12.264285714285716,10.664285714285715L12.907142857142858,10.664285714285715L12.907142857142858,10.878571428571426L13.978571428571428,10.878571428571426L13.978571428571428,11.307142857142857L14.192857142857143,11.307142857142857L14.192857142857143,11.735714285714284L14.835714285714285,11.735714285714284L14.835714285714285,11.95z" stroke="none"/><path d="M24,8.95L24,9.05L21.478571428571428,9.05L21.478571428571428,10.12142857142857L21.264285714285716,10.12142857142857L21.264285714285716,10.335714285714285L21.05,10.335714285714285L21.05,10.5L20.95,10.5L20.95,10.235714285714284L21.164285714285715,10.235714285714284L21.164285714285715,10.021428571428569L21.378571428571426,10.021428571428569L21.378571428571426,8.95z" stroke="none"/><path d="M3.05,9L2.95,9L2.95,8.521428571428569L3.1642857142857146,8.521428571428569L3.1642857142857146,7.878571428571428L3.3785714285714286,7.878571428571428L3.3785714285714286,6.378571428571428L4.021428571428571,6.378571428571428L4.021428571428571,6.164285714285715L4.45,6.164285714285715L4.45,6L4.55,6L4.55,6.264285714285714L4.121428571428571,6.264285714285714L4.121428571428571,6.478571428571428L3.478571428571428,6.478571428571428L3.478571428571428,7.978571428571428L3.2642857142857142,7.978571428571428L3.2642857142857142,8.62142857142857L3.05,8.62142857142857z" stroke="none"/><path d="M13.5,2.95L13.5,3.05L10.878571428571426,3.05L10.878571428571426,2.6214285714285714L9.05,2.6214285714285714L9.05,3L8.95,3L8.95,2.521428571428572L10.978571428571428,2.521428571428572L10.978571428571428,2.95z" stroke="none"/><path d="M3,12.05L3,11.95L3.6928571428571426,11.95L3.6928571428571426,12.164285714285715L4.121428571428571,12.164285714285715L4.121428571428571,12.378571428571426L6.807142857142857,12.378571428571426L6.807142857142857,12.164285714285715L7.45,12.164285714285715L7.45,12L7.55,12L7.55,12.264285714285716L6.907142857142857,12.264285714285716L6.907142857142857,12.478571428571428L4.021428571428571,12.478571428571428L4.021428571428571,12.264285714285716L3.592857142857143,12.264285714285716L3.592857142857143,12.05z" stroke="none"/><path d="M22.5,11.95L22.5,12.05L22.335714285714285,12.05L22.335714285714285,12.264285714285716L21.692857142857143,12.264285714285716L21.692857142857143,12.478571428571428L17.521428571428572,12.478571428571428L17.521428571428572,12.05L16.5,12.05L16.5,11.95L17.621428571428574,11.95L17.621428571428574,12.378571428571426L21.59285714285714,12.378571428571426L21.59285714285714,12.164285714285715L22.235714285714284,12.164285714285715L22.235714285714284,11.95z" stroke="none"/><path d="M18.05,12L17.95,12L17.95,11.835714285714285L17.521428571428572,11.835714285714285L17.521428571428572,11.62142857142857L16.12142857142857,11.62142857142857L16.12142857142857,12.378571428571426L17.192857142857143,12.378571428571426L17.192857142857143,12.592857142857142L23.09285714285714,12.592857142857142L23.09285714285714,12.164285714285715L23.307142857142857,12.164285714285715L23.307142857142857,11.95L23.52142857142857,11.95L23.52142857142857,11.521428571428569L25.12142857142857,11.521428571428569L25.12142857142857,11.735714285714284L25.335714285714285,11.735714285714284L25.335714285714285,11.95L25.5,11.95L25.5,12.05L25.235714285714284,12.05L25.235714285714284,11.835714285714285L25.02142857142857,11.835714285714285L25.02142857142857,11.62142857142857L23.62142857142857,11.62142857142857L23.62142857142857,12.05L23.40714285714286,12.05L23.40714285714286,12.264285714285716L23.192857142857143,12.264285714285716L23.192857142857143,12.692857142857143L17.09285714285714,12.692857142857143L17.09285714285714,12.478571428571428L16.02142857142857,12.478571428571428L16.02142857142857,11.521428571428569L17.621428571428574,11.521428571428569L17.621428571428574,11.735714285714284L18.05,11.735714285714284z" stroke="none"/><path d="M26.95,3L27.05,3L27.05,3.6928571428571426L26.835714285714285,3.6928571428571426L26.835714285714285,3.907142857142857L26.62142857142857,3.907142857142857L26.62142857142857,4.121428571428571L26.40714285714286,4.121428571428571L26.40714285714286,4.55L26.192857142857143,4.55L26.192857142857143,4.978571428571429L23.40714285714286,4.978571428571429L23.40714285714286,5.192857142857142L23.192857142857143,5.192857142857142L23.192857142857143,5.621428571428571L22.978571428571428,5.621428571428571L22.978571428571428,6.05L22.121428571428574,6.05L22.121428571428574,6.264285714285714L21.90714285714286,6.264285714285714L21.90714285714286,6.478571428571428L20.307142857142857,6.478571428571428L20.307142857142857,6.05L20.09285714285714,6.05L20.09285714285714,5.621428571428571L19.664285714285715,5.621428571428571L19.664285714285715,4.764285714285714L19.45,4.764285714285714L19.45,4.5L19.55,4.5L19.55,4.664285714285715L19.764285714285716,4.664285714285715L19.764285714285716,5.521428571428571L20.192857142857143,5.521428571428571L20.192857142857143,5.95L20.40714285714286,5.95L20.40714285714286,6.378571428571428L21.807142857142857,6.378571428571428L21.807142857142857,6.164285714285715L22.021428571428572,6.164285714285715L22.021428571428572,5.95L22.878571428571426,5.95L22.878571428571426,5.521428571428571L23.09285714285714,5.521428571428571L23.09285714285714,5.0928571428571425L23.307142857142857,5.0928571428571425L23.307142857142857,4.878571428571429L26.09285714285714,4.878571428571429L26.09285714285714,4.45L26.307142857142857,4.45L26.307142857142857,4.021428571428571L26.52142857142857,4.021428571428571L26.52142857142857,3.8071428571428574L26.735714285714284,3.8071428571428574L26.735714285714284,3.592857142857143L26.95,3.592857142857143z" stroke="none"/><path d="M13.45,12L13.55,12L13.55,12.478571428571428L7.121428571428571,12.478571428571428L7.121428571428571,12.692857142857143L2.521428571428572,12.692857142857143L2.521428571428572,11.521428571428569L4.021428571428571,11.521428571428569L4.021428571428571,10.664285714285715L4.235714285714286,10.664285714285715L4.235714285714286,10.235714285714284L4.878571428571429,10.235714285714284L4.878571428571429,10.021428571428569L5.0928571428571425,10.021428571428569L5.0928571428571425,9.164285714285715L5.307142857142857,9.164285714285715L5.307142857142857,8.95L6,8.95L6,9.05L5.407142857142857,9.05L5.407142857142857,9.264285714285716L5.192857142857142,9.264285714285716L5.192857142857142,10.12142857142857L4.978571428571429,10.12142857142857L4.978571428571429,10.335714285714285L4.335714285714285,10.335714285714285L4.335714285714285,10.764285714285716L4.121428571428571,10.764285714285716L4.121428571428571,11.62142857142857L2.6214285714285714,11.62142857142857L2.6214285714285714,12.592857142857142L7.021428571428571,12.592857142857142L7.021428571428571,12.378571428571426L13.45,12.378571428571426z" stroke="none"/><path d="M15,3.05L15,2.95L15.807142857142857,2.95L15.807142857142857,2.7357142857142858L16.02142857142857,2.7357142857142858L16.02142857142857,2.521428571428572L16.878571428571426,2.521428571428572L16.878571428571426,2.3071428571428574L21.264285714285716,2.3071428571428574L21.264285714285716,2.521428571428572L23.40714285714286,2.521428571428572L23.40714285714286,2.7357142857142858L23.62142857142857,2.7357142857142858L23.62142857142857,2.95L24,2.95L24,3.05L23.52142857142857,3.05L23.52142857142857,2.8357142857142854L23.307142857142857,2.8357142857142854L23.307142857142857,2.6214285714285714L21.164285714285715,2.6214285714285714L21.164285714285715,2.407142857142857L16.978571428571428,2.407142857142857L16.978571428571428,2.6214285714285714L16.12142857142857,2.6214285714285714L16.12142857142857,2.8357142857142854L15.907142857142858,2.8357142857142854L15.907142857142858,3.05z" stroke="none"/><path d="M15,7.45L15,7.55L13.978571428571428,7.55L13.978571428571428,7.978571428571428L11.307142857142857,7.978571428571428L11.307142857142857,7.764285714285714L11.092857142857142,7.764285714285714L11.092857142857142,7.121428571428571L5.407142857142857,7.121428571428571L5.407142857142857,7.55L4.978571428571429,7.55L4.978571428571429,7.978571428571428L4.021428571428571,7.978571428571428L4.021428571428571,6.807142857142857L4.235714285714286,6.807142857142857L4.235714285714286,6.378571428571428L5.0928571428571425,6.378571428571428L5.0928571428571425,6.164285714285715L5.521428571428571,6.164285714285715L5.521428571428571,5.95L6,5.95L6,6.05L5.621428571428571,6.05L5.621428571428571,6.264285714285714L5.192857142857142,6.264285714285714L5.192857142857142,6.478571428571428L4.335714285714285,6.478571428571428L4.335714285714285,6.907142857142857L4.121428571428571,6.907142857142857L4.121428571428571,7.878571428571428L4.878571428571429,7.878571428571428L4.878571428571429,7.45L5.307142857142857,7.45L5.307142857142857,7.021428571428571L11.192857142857143,7.021428571428571L11.192857142857143,7.664285714285715L11.407142857142858,7.664285714285715L11.407142857142858,7.878571428571428L13.878571428571426,7.878571428571428L13.878571428571426,7.45z" stroke="none"/><path d="M21,3.05L21,2.95L23.40714285714286,2.95L23.40714285714286,3.3785714285714286L24.378571428571426,3.3785714285714286L24.378571428571426,2.6214285714285714L23.95,2.6214285714285714L23.95,2.407142857142857L21.378571428571426,2.407142857142857L21.378571428571426,2.1928571428571426L15.05,2.1928571428571426L15.05,2.6214285714285714L14.62142857142857,2.6214285714285714L14.62142857142857,3.05L14.407142857142858,3.05L14.407142857142858,3.2642857142857142L13.978571428571428,3.2642857142857142L13.978571428571428,3.478571428571428L13.12142857142857,3.478571428571428L13.12142857142857,3.6928571428571426L12.478571428571428,3.6928571428571426L12.478571428571428,4.55L12,4.55L12,4.45L12.378571428571426,4.45L12.378571428571426,3.592857142857143L13.021428571428569,3.592857142857143L13.021428571428569,3.3785714285714286L13.878571428571426,3.3785714285714286L13.878571428571426,3.1642857142857146L14.307142857142857,3.1642857142857146L14.307142857142857,2.95L14.521428571428569,2.95L14.521428571428569,2.521428571428572L14.95,2.521428571428572L14.95,2.092857142857143L21.478571428571428,2.092857142857143L21.478571428571428,2.3071428571428574L24.05,2.3071428571428574L24.05,2.521428571428572L24.478571428571428,2.521428571428572L24.478571428571428,3.478571428571428L23.307142857142857,3.478571428571428L23.307142857142857,3.05z" stroke="none"/><path d="M16.45,10.5L16.55,10.5L16.55,11.407142857142858L15.907142857142858,11.407142857142858L15.907142857142858,12.592857142857142L16.978571428571428,12.592857142857142L16.978571428571428,12.807142857142857L27.164285714285715,12.807142857142857L27.164285714285715,12.592857142857142L27.59285714285714,12.592857142857142L27.59285714285714,10.335714285714285L27.378571428571426,10.335714285714285L27.378571428571426,9.907142857142858L27.164285714285715,9.907142857142858L27.164285714285715,9.692857142857143L26.95,9.692857142857143L26.95,9L27.05,9L27.05,9.592857142857142L27.264285714285716,9.592857142857142L27.264285714285716,9.807142857142857L27.478571428571428,9.807142857142857L27.478571428571428,10.235714285714284L27.692857142857143,10.235714285714284L27.692857142857143,12.692857142857143L27.264285714285716,12.692857142857143L27.264285714285716,12.907142857142858L16.878571428571426,12.907142857142858L16.878571428571426,12.692857142857143L15.807142857142857,12.692857142857143L15.807142857142857,11.307142857142857L16.45,11.307142857142857z" stroke="none"/><path d="M4.45,9L4.55,9L4.55,10.12142857142857L4.121428571428571,10.12142857142857L4.121428571428571,10.55L3.907142857142857,10.55L3.907142857142857,10.978571428571428L2.521428571428572,10.978571428571428L2.521428571428572,10.12142857142857L2.3071428571428574,10.12142857142857L2.3071428571428574,8.092857142857142L2.521428571428572,8.092857142857142L2.521428571428572,6.5928571428571425L2.7357142857142858,6.5928571428571425L2.7357142857142858,6.378571428571428L3.1642857142857146,6.378571428571428L3.1642857142857146,6.164285714285715L3.8071428571428574,6.164285714285715L3.8071428571428574,5.95L4.021428571428571,5.95L4.021428571428571,5.521428571428571L11.307142857142857,5.521428571428571L11.307142857142857,5.307142857142857L12.378571428571426,5.307142857142857L12.378571428571426,4.664285714285715L12.592857142857142,4.664285714285715L12.592857142857142,4.45L12.807142857142857,4.45L12.807142857142857,4.235714285714286L13.021428571428569,4.235714285714286L13.021428571428569,4.021428571428571L13.978571428571428,4.021428571428571L13.978571428571428,4.235714285714286L14.62142857142857,4.235714285714286L14.62142857142857,4.45L15,4.45L15,4.55L14.521428571428569,4.55L14.521428571428569,4.335714285714285L13.878571428571426,4.335714285714285L13.878571428571426,4.121428571428571L13.12142857142857,4.121428571428571L13.12142857142857,4.335714285714285L12.907142857142858,4.335714285714285L12.907142857142858,4.55L12.692857142857143,4.55L12.692857142857143,4.764285714285714L12.478571428571428,4.764285714285714L12.478571428571428,5.407142857142857L11.407142857142858,5.407142857142857L11.407142857142858,5.621428571428571L4.121428571428571,5.621428571428571L4.121428571428571,6.05L3.907142857142857,6.05L3.907142857142857,6.264285714285714L3.2642857142857142,6.264285714285714L3.2642857142857142,6.478571428571428L2.8357142857142854,6.478571428571428L2.8357142857142854,6.692857142857142L2.6214285714285714,6.692857142857142L2.6214285714285714,8.192857142857143L2.407142857142857,8.192857142857143L2.407142857142857,10.021428571428569L2.6214285714285714,10.021428571428569L2.6214285714285714,10.878571428571426L3.8071428571428574,10.878571428571426L3.8071428571428574,10.45L4.021428571428571,10.45L4.021428571428571,10.021428571428569L4.45,10.021428571428569z" stroke="none"/><path d="M19.5,5.95L19.5,6.05L18.59285714285714,6.05L18.59285714285714,5.835714285714285L18.378571428571426,5.835714285714285L18.378571428571426,5.621428571428571L16.12142857142857,5.621428571428571L16.12142857142857,7.664285714285715L16.764285714285716,7.664285714285715L16.764285714285716,7.878571428571428L16.978571428571428,7.878571428571428L16.978571428571428,9.478571428571428L16.55,9.478571428571428L16.55,9.692857142857143L9.692857142857143,9.692857142857143L9.692857142857143,9.907142857142858L9.264285714285716,9.907142857142858L9.264285714285716,10.335714285714285L9.05,10.335714285714285L9.05,10.5L8.95,10.5L8.95,10.235714285714284L9.164285714285715,10.235714285714284L9.164285714285715,9.807142857142857L9.592857142857142,9.807142857142857L9.592857142857142,9.592857142857142L16.45,9.592857142857142L16.45,9.378571428571426L16.878571428571426,9.378571428571426L16.878571428571426,7.978571428571428L16.664285714285715,7.978571428571428L16.664285714285715,7.764285714285714L16.02142857142857,7.764285714285714L16.02142857142857,5.521428571428571L18.478571428571428,5.521428571428571L18.478571428571428,5.735714285714286L18.692857142857143,5.735714285714286L18.692857142857143,5.95z" stroke="none"/><path d="M10.5,2.95L10.5,3.05L9.907142857142858,3.05L9.907142857142858,3.2642857142857142L9.478571428571428,3.2642857142857142L9.478571428571428,3.478571428571428L8.521428571428569,3.478571428571428L8.521428571428569,2.521428571428572L8.735714285714284,2.521428571428572L8.735714285714284,2.3071428571428574L14.521428571428569,2.3071428571428574L14.521428571428569,1.8785714285714286L26.192857142857143,1.8785714285714286L26.192857142857143,2.3071428571428574L27.05,2.3071428571428574L27.05,2.521428571428572L27.478571428571428,2.521428571428572L27.478571428571428,5.192857142857142L24.05,5.192857142857142L24.05,5.407142857142857L23.62142857142857,5.407142857142857L23.62142857142857,6.478571428571428L23.40714285714286,6.478571428571428L23.40714285714286,6.692857142857142L22.978571428571428,6.692857142857142L22.978571428571428,6.907142857142857L22.121428571428574,6.907142857142857L22.121428571428574,7.55L21,7.55L21,7.45L22.021428571428572,7.45L22.021428571428572,6.807142857142857L22.878571428571426,6.807142857142857L22.878571428571426,6.5928571428571425L23.307142857142857,6.5928571428571425L23.307142857142857,6.378571428571428L23.52142857142857,6.378571428571428L23.52142857142857,5.307142857142857L23.95,5.307142857142857L23.95,5.0928571428571425L27.378571428571426,5.0928571428571425L27.378571428571426,2.6214285714285714L26.95,2.6214285714285714L26.95,2.407142857142857L26.09285714285714,2.407142857142857L26.09285714285714,1.9785714285714286L14.62142857142857,1.9785714285714286L14.62142857142857,2.407142857142857L8.835714285714285,2.407142857142857L8.835714285714285,2.6214285714285714L8.62142857142857,2.6214285714285714L8.62142857142857,3.3785714285714286L9.378571428571426,3.3785714285714286L9.378571428571426,3.1642857142857146L9.807142857142857,3.1642857142857146L9.807142857142857,2.95z" stroke="none"/></svg>