<svg version="1.1" width="30" height="15" xmlns="http://www.w3.org/2000/svg"><path d="M26.09285714285714,3.8071428571428574L26.09285714285714,3.592857142857143L26.52142857142857,3.592857142857143L26.52142857142857,3.1642857142857146L26.735714285714284,3.1642857142857146L26.735714285714284,2.95L27,2.95L27,3.05L26.835714285714285,3.05L26.835714285714285,3.2642857142857142L26.62142857142857,3.2642857142857142L26.62142857142857,3.6928571428571426L26.192857142857143,3.6928571428571426L26.192857142857143,3.907142857142857L25.978571428571428,3.907142857142857L25.978571428571428,5.0928571428571425L26.192857142857143,5.0928571428571425L26.192857142857143,5.307142857142857L26.40714285714286,5.307142857142857L26.40714285714286,5.521428571428571L27.05,5.521428571428571L27.05,6L26.95,6L26.95,5.621428571428571L26.307142857142857,5.621428571428571L26.307142857142857,5.407142857142857L26.09285714285714,5.407142857142857L26.09285714285714,5.192857142857142L25.878571428571426,5.192857142857142L25.878571428571426,3.907142857142857L24.378571428571426,3.907142857142857L24.378571428571426,3.6928571428571426L24.164285714285715,3.6928571428571426L24.164285714285715,3.478571428571428L23.95,3.478571428571428L23.95,3L24.05,3L24.05,3.3785714285714286L24.264285714285716,3.3785714285714286L24.264285714285716,3.592857142857143L24.478571428571428,3.592857142857143L24.478571428571428,3.8071428571428574z" stroke="none"/><path d="M8.95,3.592857142857143L8.95,3.3785714285714286L9.592857142857142,3.3785714285714286L9.592857142857142,2.95L10.021428571428569,2.95L10.021428571428569,2.7357142857142858L12.05,2.7357142857142858L12.05,2.95L13.5,2.95L13.5,3.05L11.95,3.05L11.95,2.8357142857142854L10.12142857142857,2.8357142857142854L10.12142857142857,3.05L9.692857142857143,3.05L9.692857142857143,3.478571428571428L9.05,3.478571428571428L9.05,3.592857142857143L10.235714285714284,3.592857142857143L10.235714285714284,2.95L10.5,2.95L10.5,3.05L10.335714285714285,3.05L10.335714285714285,3.6928571428571426L3.05,3.6928571428571426L3.05,4.5L2.95,4.5L2.95,3.592857142857143z" stroke="none"/><path d="M15.378571428571426,5.307142857142857L15.378571428571426,4.45L15.807142857142857,4.45L15.807142857142857,4.235714285714286L16.02142857142857,4.235714285714286L16.02142857142857,4.021428571428571L16.235714285714284,4.021428571428571L16.235714285714284,3.8071428571428574L16.878571428571426,3.8071428571428574L16.878571428571426,3.592857142857143L17.307142857142857,3.592857142857143L17.307142857142857,3.3785714285714286L17.521428571428572,3.3785714285714286L17.521428571428572,3.1642857142857146L17.95,3.1642857142857146L17.95,3L18.05,3L18.05,3.2642857142857142L17.621428571428574,3.2642857142857142L17.621428571428574,3.478571428571428L17.40714285714286,3.478571428571428L17.40714285714286,3.6928571428571426L16.978571428571428,3.6928571428571426L16.978571428571428,3.907142857142857L16.335714285714285,3.907142857142857L16.335714285714285,4.121428571428571L16.12142857142857,4.121428571428571L16.12142857142857,4.335714285714285L15.907142857142858,4.335714285714285L15.907142857142858,4.55L15.478571428571428,4.55L15.478571428571428,5.407142857142857L12.907142857142858,5.407142857142857L12.907142857142858,5.621428571428571L12.692857142857143,5.621428571428571L12.692857142857143,5.835714285714285L12.478571428571428,5.835714285714285L12.478571428571428,6.264285714285714L11.62142857142857,6.264285714285714L11.62142857142857,6.692857142857142L11.192857142857143,6.692857142857142L11.192857142857143,6.907142857142857L10.764285714285716,6.907142857142857L10.764285714285716,7.335714285714285L10.55,7.335714285714285L10.55,7.5L10.45,7.5L10.45,7.235714285714286L10.664285714285715,7.235714285714286L10.664285714285715,6.807142857142857L11.092857142857142,6.807142857142857L11.092857142857142,6.5928571428571425L11.521428571428569,6.5928571428571425L11.521428571428569,6.164285714285715L12.378571428571426,6.164285714285715L12.378571428571426,5.735714285714286L12.592857142857142,5.735714285714286L12.592857142857142,5.521428571428571L12.807142857142857,5.521428571428571L12.807142857142857,5.407142857142857L11.407142857142858,5.407142857142857L11.407142857142858,5.621428571428571L10.55,5.621428571428571L10.55,6L10.45,6L10.45,5.521428571428571L11.307142857142857,5.521428571428571L11.307142857142857,5.307142857142857z" stroke="none"/><path d="M18.164285714285715,6.5928571428571425L18.164285714285715,6.378571428571428L19.121428571428574,6.378571428571428L19.121428571428574,6.807142857142857L19.764285714285716,6.807142857142857L19.764285714285716,7.021428571428571L20.621428571428574,7.021428571428571L20.621428571428574,7.235714285714286L20.835714285714285,7.235714285714286L20.835714285714285,7.45L21,7.45L21,7.55L20.735714285714284,7.55L20.735714285714284,7.335714285714285L20.521428571428572,7.335714285714285L20.521428571428572,7.121428571428571L19.664285714285715,7.121428571428571L19.664285714285715,6.907142857142857L19.021428571428572,6.907142857142857L19.021428571428572,6.478571428571428L18.264285714285716,6.478571428571428L18.264285714285716,6.5928571428571425L18.692857142857143,6.5928571428571425L18.692857142857143,7.235714285714286L18.90714285714286,7.235714285714286L18.90714285714286,7.45L19.5,7.45L19.5,7.55L18.807142857142857,7.55L18.807142857142857,7.335714285714285L18.59285714285714,7.335714285714285L18.59285714285714,6.692857142857142L18.264285714285716,6.692857142857142L18.264285714285716,6.907142857142857L17.192857142857143,6.907142857142857L17.192857142857143,7.121428571428571L16.55,7.121428571428571L16.55,7.5L16.45,7.5L16.45,7.021428571428571L17.09285714285714,7.021428571428571L17.09285714285714,6.807142857142857L18.164285714285715,6.807142857142857L18.164285714285715,6.692857142857142L17.521428571428572,6.692857142857142L17.521428571428572,6.05L17.307142857142857,6.05L17.307142857142857,5.621428571428571L16.878571428571426,5.621428571428571L16.878571428571426,4.764285714285714L16.45,4.764285714285714L16.45,4.5L16.55,4.5L16.55,4.664285714285715L16.978571428571428,4.664285714285715L16.978571428571428,5.521428571428571L17.40714285714286,5.521428571428571L17.40714285714286,5.95L17.621428571428574,5.95L17.621428571428574,6.5928571428571425z" stroke="none"/><path d="M7.45,5.521428571428571L7.45,5.307142857142857L8.835714285714285,5.307142857142857L8.835714285714285,5.521428571428571L9.05,5.521428571428571L9.05,5.735714285714286L9.264285714285716,5.735714285714286L9.264285714285716,6.807142857142857L9.478571428571428,6.807142857142857L9.478571428571428,7.235714285714286L9.907142857142858,7.235714285714286L9.907142857142858,7.664285714285715L10.12142857142857,7.664285714285715L10.12142857142857,7.878571428571428L13.664285714285715,7.878571428571428L13.664285714285715,7.45L13.878571428571426,7.45L13.878571428571426,7.235714285714286L14.092857142857142,7.235714285714286L14.092857142857142,7.021428571428571L14.735714285714284,7.021428571428571L14.735714285714284,5.95L15,5.95L15,6.05L14.835714285714285,6.05L14.835714285714285,7.121428571428571L14.192857142857143,7.121428571428571L14.192857142857143,7.335714285714285L13.978571428571428,7.335714285714285L13.978571428571428,7.55L13.764285714285716,7.55L13.764285714285716,7.978571428571428L10.021428571428569,7.978571428571428L10.021428571428569,7.764285714285714L9.807142857142857,7.764285714285714L9.807142857142857,7.335714285714285L9.378571428571426,7.335714285714285L9.378571428571426,6.907142857142857L9.164285714285715,6.907142857142857L9.164285714285715,5.835714285714285L8.95,5.835714285714285L8.95,5.621428571428571L8.735714285714284,5.621428571428571L8.735714285714284,5.407142857142857L7.55,5.407142857142857L7.55,5.521428571428571L7.764285714285714,5.521428571428571L7.764285714285714,6.05L5.835714285714285,6.05L5.835714285714285,6.478571428571428L5.621428571428571,6.478571428571428L5.621428571428571,6.692857142857142L5.407142857142857,6.692857142857142L5.407142857142857,7.121428571428571L5.192857142857142,7.121428571428571L5.192857142857142,7.335714285714285L4.978571428571429,7.335714285714285L4.978571428571429,7.55L4.764285714285714,7.55L4.764285714285714,7.764285714285714L4.235714285714286,7.764285714285714L4.235714285714286,7.335714285714285L3.592857142857143,7.335714285714285L3.592857142857143,6.264285714285714L3.1642857142857146,6.264285714285714L3.1642857142857146,6.05L3,6.05L3,5.95L3.2642857142857142,5.95L3.2642857142857142,6.164285714285715L3.6928571428571426,6.164285714285715L3.6928571428571426,7.235714285714286L4.335714285714285,7.235714285714286L4.335714285714285,7.664285714285715L4.664285714285715,7.664285714285715L4.664285714285715,7.45L4.878571428571429,7.45L4.878571428571429,7.235714285714286L5.0928571428571425,7.235714285714286L5.0928571428571425,7.021428571428571L5.307142857142857,7.021428571428571L5.307142857142857,6.5928571428571425L5.521428571428571,6.5928571428571425L5.521428571428571,6.378571428571428L5.735714285714286,6.378571428571428L5.735714285714286,5.95L7.664285714285715,5.95L7.664285714285715,5.621428571428571L7.55,5.621428571428571L7.55,5.835714285714285L5.621428571428571,5.835714285714285L5.621428571428571,6.05L5.407142857142857,6.05L5.407142857142857,6.264285714285714L5.192857142857142,6.264285714285714L5.192857142857142,6.692857142857142L4.978571428571429,6.692857142857142L4.978571428571429,6.907142857142857L4.764285714285714,6.907142857142857L4.764285714285714,7.335714285714285L4.55,7.335714285714285L4.55,7.5L4.45,7.5L4.45,7.235714285714286L4.664285714285715,7.235714285714286L4.664285714285715,6.807142857142857L4.878571428571429,6.807142857142857L4.878571428571429,6.5928571428571425L5.0928571428571425,6.5928571428571425L5.0928571428571425,6.164285714285715L5.307142857142857,6.164285714285715L5.307142857142857,5.95L5.521428571428571,5.95L5.521428571428571,5.735714285714286L7.45,5.735714285714286L7.45,5.621428571428571L2.95,5.621428571428571L2.95,5.192857142857142L2.521428571428572,5.192857142857142L2.521428571428572,4.021428571428571L2.7357142857142858,4.021428571428571L2.7357142857142858,3.3785714285714286L7.235714285714286,3.3785714285714286L7.235714285714286,3.1642857142857146L7.45,3.1642857142857146L7.45,3L7.55,3L7.55,3.2642857142857142L7.335714285714285,3.2642857142857142L7.335714285714285,3.478571428571428L2.8357142857142854,3.478571428571428L2.8357142857142854,4.121428571428571L2.6214285714285714,4.121428571428571L2.6214285714285714,5.0928571428571425L3.05,5.0928571428571425L3.05,5.521428571428571z" stroke="none"/><path d="M16.45,9.592857142857142L16.45,9.378571428571426L18.59285714285714,9.378571428571426L18.59285714285714,9.164285714285715L18.807142857142857,9.164285714285715L18.807142857142857,8.95L19.664285714285715,8.95L19.664285714285715,8.735714285714284L20.09285714285714,8.735714285714284L20.09285714285714,8.521428571428569L20.95,8.521428571428569L20.95,8.307142857142857L21.164285714285715,8.307142857142857L21.164285714285715,8.092857142857142L21.378571428571426,8.092857142857142L21.378571428571426,7.664285714285715L21.59285714285714,7.664285714285715L21.59285714285714,7.45L22.5,7.45L22.5,7.55L21.692857142857143,7.55L21.692857142857143,7.764285714285714L21.478571428571428,7.764285714285714L21.478571428571428,8.192857142857143L21.264285714285716,8.192857142857143L21.264285714285716,8.407142857142858L21.05,8.407142857142858L21.05,8.62142857142857L20.192857142857143,8.62142857142857L20.192857142857143,8.835714285714285L19.764285714285716,8.835714285714285L19.764285714285716,9.05L18.90714285714286,9.05L18.90714285714286,9.264285714285716L18.692857142857143,9.264285714285716L18.692857142857143,9.478571428571428L16.55,9.478571428571428L16.55,9.592857142857142L22.235714285714284,9.592857142857142L22.235714285714284,9.378571428571426L22.45,9.378571428571426L22.45,9L22.55,9L22.55,9.478571428571428L22.335714285714285,9.478571428571428L22.335714285714285,9.692857142857143L16.55,9.692857142857143L16.55,9.907142857142858L11.62142857142857,9.907142857142858L11.62142857142857,10.335714285714285L11.192857142857143,10.335714285714285L11.192857142857143,10.764285714285716L10.978571428571428,10.764285714285716L10.978571428571428,11.192857142857143L10.764285714285716,11.192857142857143L10.764285714285716,12.05L10.5,12.05L10.5,11.95L10.664285714285715,11.95L10.664285714285715,11.092857142857142L10.878571428571426,11.092857142857142L10.878571428571426,10.664285714285715L11.092857142857142,10.664285714285715L11.092857142857142,10.235714285714284L11.521428571428569,10.235714285714284L11.521428571428569,9.807142857142857L16.45,9.807142857142857L16.45,9.692857142857143L11.407142857142858,9.692857142857143L11.407142857142858,9.907142857142858L11.192857142857143,9.907142857142858L11.192857142857143,10.12142857142857L10.978571428571428,10.12142857142857L10.978571428571428,10.335714285714285L10.764285714285716,10.335714285714285L10.764285714285716,10.55L10.5,10.55L10.5,10.45L10.664285714285715,10.45L10.664285714285715,10.235714285714284L10.878571428571426,10.235714285714284L10.878571428571426,10.021428571428569L11.092857142857142,10.021428571428569L11.092857142857142,9.807142857142857L11.307142857142857,9.807142857142857L11.307142857142857,9.592857142857142z" stroke="none"/><path d="M6,4.45L6,4.55L4.5,4.55L4.5,4.45z" stroke="none"/><path d="M7.55,9L7.45,9L7.45,8.521428571428569L8.092857142857142,8.521428571428569L8.092857142857142,8.307142857142857L8.307142857142857,8.307142857142857L8.307142857142857,8.092857142857142L8.521428571428569,8.092857142857142L8.521428571428569,7.878571428571428L8.95,7.878571428571428L8.95,7.5L9.05,7.5L9.05,7.978571428571428L8.62142857142857,7.978571428571428L8.62142857142857,8.192857142857143L8.407142857142858,8.192857142857143L8.407142857142858,8.407142857142858L8.192857142857143,8.407142857142858L8.192857142857143,8.62142857142857L7.55,8.62142857142857z" stroke="none"/><path d="M3,9.05L3,8.95L3.8071428571428574,8.95L3.8071428571428574,8.735714285714284L4.021428571428571,8.735714285714284L4.021428571428571,8.521428571428569L6.05,8.521428571428569L6.05,9L5.95,9L5.95,8.62142857142857L4.121428571428571,8.62142857142857L4.121428571428571,8.835714285714285L3.907142857142857,8.835714285714285L3.907142857142857,9.05z" stroke="none"/><path d="M16.55,3L16.45,3L16.45,2.7357142857142858L16.878571428571426,2.7357142857142858L16.878571428571426,2.521428571428572L18.692857142857143,2.521428571428572L18.692857142857143,2.7357142857142858L19.55,2.7357142857142858L19.55,3L19.45,3L19.45,2.8357142857142854L18.59285714285714,2.8357142857142854L18.59285714285714,2.6214285714285714L16.978571428571428,2.6214285714285714L16.978571428571428,2.8357142857142854L16.55,2.8357142857142854z" stroke="none"/><path d="M15,8.95L15,9.05L12,9.05L12,8.95z" stroke="none"/><path d="M24,11.95L24,12.05L21,12.05L21,11.95z" stroke="none"/><path d="M3.05,12L2.95,12L2.95,10.45L3.3785714285714286,10.45L3.3785714285714286,10.235714285714284L3.8071428571428574,10.235714285714284L3.8071428571428574,9.592857142857142L4.235714285714286,9.592857142857142L4.235714285714286,9.164285714285715L4.45,9.164285714285715L4.45,9L4.55,9L4.55,9.264285714285716L4.335714285714285,9.264285714285716L4.335714285714285,9.692857142857143L3.907142857142857,9.692857142857143L3.907142857142857,10.335714285714285L3.478571428571428,10.335714285714285L3.478571428571428,10.55L3.05,10.55z" stroke="none"/><path d="M26.95,9L27.05,9L27.05,10.764285714285716L26.62142857142857,10.764285714285716L26.62142857142857,11.192857142857143L26.40714285714286,11.192857142857143L26.40714285714286,11.407142857142858L25.764285714285716,11.407142857142858L25.764285714285716,12.05L25.5,12.05L25.5,11.95L25.664285714285715,11.95L25.664285714285715,11.307142857142857L26.307142857142857,11.307142857142857L26.307142857142857,11.092857142857142L26.52142857142857,11.092857142857142L26.52142857142857,10.664285714285715L26.95,10.664285714285715z" stroke="none"/><path d="M18.05,9L17.95,9L17.95,8.407142857142858L17.307142857142857,8.407142857142858L17.307142857142857,8.192857142857143L17.09285714285714,8.192857142857143L17.09285714285714,7.978571428571428L16.02142857142857,7.978571428571428L16.02142857142857,5.95L16.5,5.95L16.5,6.05L16.12142857142857,6.05L16.12142857142857,7.878571428571428L17.192857142857143,7.878571428571428L17.192857142857143,8.092857142857142L17.40714285714286,8.092857142857142L17.40714285714286,8.307142857142857L18.05,8.307142857142857z" stroke="none"/><path d="M22.45,3L22.55,3L22.55,3.8071428571428574L23.192857142857143,3.8071428571428574L23.192857142857143,4.235714285714286L23.40714285714286,4.235714285714286L23.40714285714286,4.878571428571429L23.62142857142857,4.878571428571429L23.62142857142857,5.521428571428571L24.05,5.521428571428571L24.05,6L23.95,6L23.95,5.621428571428571L23.52142857142857,5.621428571428571L23.52142857142857,4.978571428571429L23.307142857142857,4.978571428571429L23.307142857142857,4.335714285714285L23.09285714285714,4.335714285714285L23.09285714285714,3.907142857142857L22.45,3.907142857142857z" stroke="none"/><path d="M4.5,3.05L4.5,2.95L4.878571428571429,2.95L4.878571428571429,2.7357142857142858L7.021428571428571,2.7357142857142858L7.021428571428571,2.521428571428572L8.407142857142858,2.521428571428572L8.407142857142858,2.7357142857142858L9.05,2.7357142857142858L9.05,3L8.95,3L8.95,2.8357142857142854L8.307142857142857,2.8357142857142854L8.307142857142857,2.6214285714285714L7.121428571428571,2.6214285714285714L7.121428571428571,2.8357142857142854L4.978571428571429,2.8357142857142854L4.978571428571429,3.05z" stroke="none"/><path d="M7.5,4.55L7.5,4.45L12,4.45L12,4.55z" stroke="none"/><path d="M26.95,4.5L27.05,4.5L27.05,5.307142857142857L27.478571428571428,5.307142857142857L27.478571428571428,7.978571428571428L27.05,7.978571428571428L27.05,8.192857142857143L26.835714285714285,8.192857142857143L26.835714285714285,8.62142857142857L25.978571428571428,8.62142857142857L25.978571428571428,8.835714285714285L25.764285714285716,8.835714285714285L25.764285714285716,9.05L25.5,9.05L25.5,8.95L25.664285714285715,8.95L25.664285714285715,8.735714285714284L25.878571428571426,8.735714285714284L25.878571428571426,8.521428571428569L26.735714285714284,8.521428571428569L26.735714285714284,8.092857142857142L26.95,8.092857142857142L26.95,7.878571428571428L27.378571428571426,7.878571428571428L27.378571428571426,5.407142857142857L26.95,5.407142857142857z" stroke="none"/><path d="M21,4.55L21,4.45L22.55,4.45L22.55,4.878571428571429L22.764285714285716,4.878571428571429L22.764285714285716,5.0928571428571425L22.978571428571428,5.0928571428571425L22.978571428571428,5.95L23.192857142857143,5.95L23.192857142857143,6.378571428571428L24.59285714285714,6.378571428571428L24.59285714285714,6.164285714285715L25.235714285714284,6.164285714285715L25.235714285714284,5.95L25.5,5.95L25.5,6.05L25.335714285714285,6.05L25.335714285714285,6.264285714285714L24.692857142857143,6.264285714285714L24.692857142857143,6.478571428571428L23.09285714285714,6.478571428571428L23.09285714285714,6.05L22.878571428571426,6.05L22.878571428571426,5.192857142857142L22.664285714285715,5.192857142857142L22.664285714285715,4.978571428571429L22.45,4.978571428571429L22.45,4.55z" stroke="none"/><path d="M21.05,6L20.95,6L20.95,5.835714285714285L20.735714285714284,5.835714285714285L20.735714285714284,5.621428571428571L20.521428571428572,5.621428571428571L20.521428571428572,4.021428571428571L21.59285714285714,4.021428571428571L21.59285714285714,3.592857142857143L21.807142857142857,3.592857142857143L21.807142857142857,3.1642857142857146L22.021428571428572,3.1642857142857146L22.021428571428572,2.521428571428572L24.692857142857143,2.521428571428572L24.692857142857143,2.7357142857142858L25.12142857142857,2.7357142857142858L25.12142857142857,2.95L25.5,2.95L25.5,3.05L25.02142857142857,3.05L25.02142857142857,2.8357142857142854L24.59285714285714,2.8357142857142854L24.59285714285714,2.6214285714285714L22.121428571428574,2.6214285714285714L22.121428571428574,3.2642857142857142L21.90714285714286,3.2642857142857142L21.90714285714286,3.6928571428571426L21.692857142857143,3.6928571428571426L21.692857142857143,4.121428571428571L20.621428571428574,4.121428571428571L20.621428571428574,5.521428571428571L20.835714285714285,5.521428571428571L20.835714285714285,5.735714285714286L21.05,5.735714285714286z" stroke="none"/><path d="M12,7.55L12,7.45L13.235714285714284,7.45L13.235714285714284,7.021428571428571L13.45,7.021428571428571L13.45,5.95L14.521428571428569,5.95L14.521428571428569,5.521428571428571L15.478571428571428,5.521428571428571L15.478571428571428,7.978571428571428L15.05,7.978571428571428L15.05,8.192857142857143L11.192857142857143,8.192857142857143L11.192857142857143,8.407142857142858L10.978571428571428,8.407142857142858L10.978571428571428,8.62142857142857L10.55,8.62142857142857L10.55,9.05L10.12142857142857,9.05L10.12142857142857,9.478571428571428L9.907142857142858,9.478571428571428L9.907142857142858,10.12142857142857L8.62142857142857,10.12142857142857L8.62142857142857,10.335714285714285L8.407142857142858,10.335714285714285L8.407142857142858,10.55L8.192857142857143,10.55L8.192857142857143,11.192857142857143L7.764285714285714,11.192857142857143L7.764285714285714,11.835714285714285L7.55,11.835714285714285L7.55,12L7.45,12L7.45,11.735714285714284L7.664285714285715,11.735714285714284L7.664285714285715,11.092857142857142L8.092857142857142,11.092857142857142L8.092857142857142,10.45L8.307142857142857,10.45L8.307142857142857,10.235714285714284L8.521428571428569,10.235714285714284L8.521428571428569,10.021428571428569L9.807142857142857,10.021428571428569L9.807142857142857,9.378571428571426L10.021428571428569,9.378571428571426L10.021428571428569,8.95L10.45,8.95L10.45,8.521428571428569L10.878571428571426,8.521428571428569L10.878571428571426,8.307142857142857L11.092857142857142,8.307142857142857L11.092857142857142,8.092857142857142L14.95,8.092857142857142L14.95,7.878571428571428L15.378571428571426,7.878571428571428L15.378571428571426,5.621428571428571L14.62142857142857,5.621428571428571L14.62142857142857,6.05L13.55,6.05L13.55,7.121428571428571L13.335714285714285,7.121428571428571L13.335714285714285,7.55z" stroke="none"/><path d="M3,2.95L3,3.05L2.8357142857142854,3.05L2.8357142857142854,3.2642857142857142L2.6214285714285714,3.2642857142857142L2.6214285714285714,3.907142857142857L2.407142857142857,3.907142857142857L2.407142857142857,7.021428571428571L2.6214285714285714,7.021428571428571L2.6214285714285714,7.664285714285715L4.121428571428571,7.664285714285715L4.121428571428571,7.878571428571428L7.235714285714286,7.878571428571428L7.235714285714286,7.664285714285715L7.45,7.664285714285715L7.45,7.5L7.55,7.5L7.55,7.764285714285714L7.335714285714285,7.764285714285714L7.335714285714285,7.978571428571428L4.021428571428571,7.978571428571428L4.021428571428571,7.764285714285714L2.521428571428572,7.764285714285714L2.521428571428572,7.121428571428571L2.3071428571428574,7.121428571428571L2.3071428571428574,3.8071428571428574L2.521428571428572,3.8071428571428574L2.521428571428572,3.1642857142857146L2.7357142857142858,3.1642857142857146L2.7357142857142858,2.95z" stroke="none"/><path d="M21,10.45L21,10.55L16.764285714285716,10.55L16.764285714285716,10.764285714285716L15.05,10.764285714285716L15.05,10.978571428571428L14.835714285714285,10.978571428571428L14.835714285714285,11.192857142857143L14.407142857142858,11.192857142857143L14.407142857142858,11.835714285714285L13.764285714285716,11.835714285714285L13.764285714285716,12.05L13.5,12.05L13.5,11.95L13.664285714285715,11.95L13.664285714285715,11.735714285714284L14.307142857142857,11.735714285714284L14.307142857142857,11.092857142857142L14.735714285714284,11.092857142857142L14.735714285714284,10.878571428571426L14.95,10.878571428571426L14.95,10.664285714285715L16.664285714285715,10.664285714285715L16.664285714285715,10.45z" stroke="none"/><path d="M6,12.05L6,11.95L6.692857142857142,11.95L6.692857142857142,12.164285714285715L6.907142857142857,12.164285714285715L6.907142857142857,12.378571428571426L12.378571428571426,12.378571428571426L12.378571428571426,11.735714285714284L12.592857142857142,11.735714285714284L12.592857142857142,11.307142857142857L12.807142857142857,11.307142857142857L12.807142857142857,10.878571428571426L13.45,10.878571428571426L13.45,10.5L13.55,10.5L13.55,10.978571428571428L12.907142857142858,10.978571428571428L12.907142857142858,11.407142857142858L12.692857142857143,11.407142857142858L12.692857142857143,11.835714285714285L12.478571428571428,11.835714285714285L12.478571428571428,12.478571428571428L6.807142857142857,12.478571428571428L6.807142857142857,12.264285714285716L6.5928571428571425,12.264285714285716L6.5928571428571425,12.05z" stroke="none"/><path d="M12,10.55L12,10.45L12.807142857142857,10.45L12.807142857142857,10.235714285714284L13.021428571428569,10.235714285714284L13.021428571428569,10.021428571428569L22.664285714285715,10.021428571428569L22.664285714285715,9.378571428571426L22.878571428571426,9.378571428571426L22.878571428571426,7.121428571428571L20.95,7.121428571428571L20.95,6.907142857142857L20.735714285714284,6.907142857142857L20.735714285714284,6.692857142857142L20.307142857142857,6.692857142857142L20.307142857142857,6.478571428571428L20.09285714285714,6.478571428571428L20.09285714285714,6.05L19.5,6.05L19.5,5.95L20.192857142857143,5.95L20.192857142857143,6.378571428571428L20.40714285714286,6.378571428571428L20.40714285714286,6.5928571428571425L20.835714285714285,6.5928571428571425L20.835714285714285,6.807142857142857L21.05,6.807142857142857L21.05,7.021428571428571L22.978571428571428,7.021428571428571L22.978571428571428,9.478571428571428L22.764285714285716,9.478571428571428L22.764285714285716,10.12142857142857L13.12142857142857,10.12142857142857L13.12142857142857,10.335714285714285L12.907142857142858,10.335714285714285L12.907142857142858,10.55z" stroke="none"/><path d="M22.5,5.95L22.5,6.05L21.478571428571428,6.05L21.478571428571428,6.478571428571428L20.521428571428572,6.478571428571428L20.521428571428572,5.835714285714285L20.307142857142857,5.835714285714285L20.307142857142857,2.6214285714285714L19.878571428571426,2.6214285714285714L19.878571428571426,2.407142857142857L16.12142857142857,2.407142857142857L16.12142857142857,2.6214285714285714L15.05,2.6214285714285714L15.05,2.8357142857142854L14.62142857142857,2.8357142857142854L14.62142857142857,3.05L14.407142857142858,3.05L14.407142857142858,3.2642857142857142L14.192857142857143,3.2642857142857142L14.192857142857143,3.907142857142857L13.978571428571428,3.907142857142857L13.978571428571428,4.335714285714285L13.55,4.335714285714285L13.55,4.5L13.45,4.5L13.45,4.235714285714286L13.878571428571426,4.235714285714286L13.878571428571426,3.8071428571428574L14.092857142857142,3.8071428571428574L14.092857142857142,3.1642857142857146L14.307142857142857,3.1642857142857146L14.307142857142857,2.95L14.521428571428569,2.95L14.521428571428569,2.7357142857142858L14.95,2.7357142857142858L14.95,2.521428571428572L16.02142857142857,2.521428571428572L16.02142857142857,2.3071428571428574L19.978571428571428,2.3071428571428574L19.978571428571428,2.521428571428572L20.40714285714286,2.521428571428572L20.40714285714286,5.735714285714286L20.621428571428574,5.735714285714286L20.621428571428574,6.378571428571428L21.378571428571426,6.378571428571428L21.378571428571426,5.95z" stroke="none"/><path d="M4.45,10.5L4.55,10.5L4.55,10.878571428571426L4.764285714285714,10.878571428571426L4.764285714285714,11.092857142857142L4.978571428571429,11.092857142857142L4.978571428571429,11.307142857142857L5.192857142857142,11.307142857142857L5.192857142857142,11.521428571428569L5.407142857142857,11.521428571428569L5.407142857142857,12.164285714285715L5.621428571428571,12.164285714285715L5.621428571428571,12.378571428571426L6.692857142857142,12.378571428571426L6.692857142857142,12.592857142857142L14.735714285714284,12.592857142857142L14.735714285714284,12.378571428571426L14.95,12.378571428571426L14.95,12L15.05,12L15.05,12.478571428571428L14.835714285714285,12.478571428571428L14.835714285714285,12.692857142857143L6.5928571428571425,12.692857142857143L6.5928571428571425,12.478571428571428L5.521428571428571,12.478571428571428L5.521428571428571,12.264285714285716L5.307142857142857,12.264285714285716L5.307142857142857,11.62142857142857L5.0928571428571425,11.62142857142857L5.0928571428571425,11.407142857142858L4.878571428571429,11.407142857142858L4.878571428571429,11.192857142857143L4.664285714285715,11.192857142857143L4.664285714285715,10.978571428571428L4.45,10.978571428571428z" stroke="none"/><path d="M18,11.95L18,12.05L15.478571428571428,12.05L15.478571428571428,12.478571428571428L15.264285714285716,12.478571428571428L15.264285714285716,12.692857142857143L15.05,12.692857142857143L15.05,12.907142857142858L5.307142857142857,12.907142857142858L5.307142857142857,12.478571428571428L5.0928571428571425,12.478571428571428L5.0928571428571425,12.05L4.878571428571429,12.05L4.878571428571429,11.62142857142857L4.664285714285715,11.62142857142857L4.664285714285715,11.407142857142858L4.235714285714286,11.407142857142858L4.235714285714286,10.978571428571428L4.021428571428571,10.978571428571428L4.021428571428571,10.021428571428569L5.621428571428571,10.021428571428569L5.621428571428571,10.45L6,10.45L6,10.55L5.521428571428571,10.55L5.521428571428571,10.12142857142857L4.121428571428571,10.12142857142857L4.121428571428571,10.878571428571426L4.335714285714285,10.878571428571426L4.335714285714285,11.307142857142857L4.764285714285714,11.307142857142857L4.764285714285714,11.521428571428569L4.978571428571429,11.521428571428569L4.978571428571429,11.95L5.192857142857142,11.95L5.192857142857142,12.378571428571426L5.407142857142857,12.378571428571426L5.407142857142857,12.807142857142857L14.95,12.807142857142857L14.95,12.592857142857142L15.164285714285715,12.592857142857142L15.164285714285715,12.378571428571426L15.378571428571426,12.378571428571426L15.378571428571426,11.95z" stroke="none"/><path d="M15,4.45L15,4.55L14.407142857142858,4.55L14.407142857142858,4.978571428571429L13.021428571428569,4.978571428571429L13.021428571428569,4.021428571428571L13.45,4.021428571428571L13.45,3.8071428571428574L13.664285714285715,3.8071428571428574L13.664285714285715,3.592857142857143L13.878571428571426,3.592857142857143L13.878571428571426,2.7357142857142858L14.307142857142857,2.7357142857142858L14.307142857142857,2.521428571428572L14.735714285714284,2.521428571428572L14.735714285714284,2.3071428571428574L15.592857142857142,2.3071428571428574L15.592857142857142,2.092857142857143L26.835714285714285,2.092857142857143L26.835714285714285,2.3071428571428574L27.05,2.3071428571428574L27.05,2.521428571428572L27.478571428571428,2.521428571428572L27.478571428571428,3.1642857142857146L27.692857142857143,3.1642857142857146L27.692857142857143,10.335714285714285L27.478571428571428,10.335714285714285L27.478571428571428,10.55L27.264285714285716,10.55L27.264285714285716,10.978571428571428L26.835714285714285,10.978571428571428L26.835714285714285,11.62142857142857L26.40714285714286,11.62142857142857L26.40714285714286,12.264285714285716L26.192857142857143,12.264285714285716L26.192857142857143,12.478571428571428L25.02142857142857,12.478571428571428L25.02142857142857,8.521428571428569L25.664285714285715,8.521428571428569L25.664285714285715,8.307142857142857L26.52142857142857,8.307142857142857L26.52142857142857,7.878571428571428L26.735714285714284,7.878571428571428L26.735714285714284,7.664285714285715L26.95,7.664285714285715L26.95,7.5L27.05,7.5L27.05,7.764285714285714L26.835714285714285,7.764285714285714L26.835714285714285,7.978571428571428L26.62142857142857,7.978571428571428L26.62142857142857,8.407142857142858L25.764285714285716,8.407142857142858L25.764285714285716,8.62142857142857L25.12142857142857,8.62142857142857L25.12142857142857,12.378571428571426L26.09285714285714,12.378571428571426L26.09285714285714,12.164285714285715L26.307142857142857,12.164285714285715L26.307142857142857,11.521428571428569L26.735714285714284,11.521428571428569L26.735714285714284,10.878571428571426L27.164285714285715,10.878571428571426L27.164285714285715,10.45L27.378571428571426,10.45L27.378571428571426,10.235714285714284L27.59285714285714,10.235714285714284L27.59285714285714,3.2642857142857142L27.378571428571426,3.2642857142857142L27.378571428571426,2.6214285714285714L26.95,2.6214285714285714L26.95,2.407142857142857L26.735714285714284,2.407142857142857L26.735714285714284,2.1928571428571426L15.692857142857143,2.1928571428571426L15.692857142857143,2.407142857142857L14.835714285714285,2.407142857142857L14.835714285714285,2.6214285714285714L14.407142857142858,2.6214285714285714L14.407142857142858,2.8357142857142854L13.978571428571428,2.8357142857142854L13.978571428571428,3.6928571428571426L13.764285714285716,3.6928571428571426L13.764285714285716,3.907142857142857L13.55,3.907142857142857L13.55,4.121428571428571L13.12142857142857,4.121428571428571L13.12142857142857,4.878571428571429L14.307142857142857,4.878571428571429L14.307142857142857,4.45z" stroke="none"/></svg>