<svg version="1.1" width="30" height="15" xmlns="http://www.w3.org/2000/svg"><path d="M19.45,9.592857142857142L19.45,9L19.55,9L19.55,9.592857142857142L22.335714285714285,9.592857142857142L22.335714285714285,9.807142857142857L22.978571428571428,9.807142857142857L22.978571428571428,10.664285714285715L23.192857142857143,10.664285714285715L23.192857142857143,11.092857142857142L23.835714285714285,11.092857142857142L23.835714285714285,11.95L24,11.95L24,12.05L23.735714285714284,12.05L23.735714285714284,11.192857142857143L23.09285714285714,11.192857142857143L23.09285714285714,10.764285714285716L22.878571428571426,10.764285714285716L22.878571428571426,9.907142857142858L22.235714285714284,9.907142857142858L22.235714285714284,9.692857142857143L16.45,9.692857142857143L16.45,9.478571428571428L16.02142857142857,9.478571428571428L16.02142857142857,8.835714285714285L15.807142857142857,8.835714285714285L15.807142857142857,7.978571428571428L15.592857142857142,7.978571428571428L15.592857142857142,7.764285714285714L15.378571428571426,7.764285714285714L15.378571428571426,7.55L15,7.55L15,7.45L15.478571428571428,7.45L15.478571428571428,7.664285714285715L15.692857142857143,7.664285714285715L15.692857142857143,7.878571428571428L15.907142857142858,7.878571428571428L15.907142857142858,8.735714285714284L16.12142857142857,8.735714285714284L16.12142857142857,9.378571428571426L16.55,9.378571428571426L16.55,9.592857142857142z" stroke="none"/><path d="M6.807142857142857,11.307142857142857L6.807142857142857,11.092857142857142L7.55,11.092857142857142L7.55,11.521428571428569L7.978571428571428,11.521428571428569L7.978571428571428,11.735714285714284L8.407142857142858,11.735714285714284L8.407142857142858,11.95L9,11.95L9,12.05L8.307142857142857,12.05L8.307142857142857,11.835714285714285L7.878571428571428,11.835714285714285L7.878571428571428,11.62142857142857L7.45,11.62142857142857L7.45,11.192857142857143L6.907142857142857,11.192857142857143L6.907142857142857,11.307142857142857L7.335714285714285,11.307142857142857L7.335714285714285,11.735714285714284L7.55,11.735714285714284L7.55,12L7.45,12L7.45,11.835714285714285L7.235714285714286,11.835714285714285L7.235714285714286,11.407142857142858L5.0928571428571425,11.407142857142858L5.0928571428571425,10.978571428571428L4.45,10.978571428571428L4.45,10.5L4.55,10.5L4.55,10.878571428571426L5.192857142857142,10.878571428571426L5.192857142857142,11.307142857142857z" stroke="none"/><path d="M11.735714285714284,6.807142857142857L11.735714285714284,6.378571428571428L11.95,6.378571428571428L11.95,6L12.05,6L12.05,6.478571428571428L11.835714285714285,6.478571428571428L11.835714285714285,6.907142857142857L6.907142857142857,6.907142857142857L6.907142857142857,7.121428571428571L4.121428571428571,7.121428571428571L4.121428571428571,8.835714285714285L3.2642857142857142,8.835714285714285L3.2642857142857142,9.05L3,9.05L3,8.95L3.1642857142857146,8.95L3.1642857142857146,8.735714285714284L4.021428571428571,8.735714285714284L4.021428571428571,7.021428571428571L6.807142857142857,7.021428571428571L6.807142857142857,6.907142857142857L6.164285714285715,6.907142857142857L6.164285714285715,6.692857142857142L5.95,6.692857142857142L5.95,6L6.05,6L6.05,6.5928571428571425L6.264285714285714,6.5928571428571425L6.264285714285714,6.807142857142857z" stroke="none"/><path d="M13.021428571428569,9.807142857142857L13.021428571428569,9.692857142857143L11.735714285714284,9.692857142857143L11.735714285714284,9.478571428571428L11.307142857142857,9.478571428571428L11.307142857142857,9.264285714285716L10.45,9.264285714285716L10.45,9L10.55,9L10.55,9.164285714285715L11.407142857142858,9.164285714285715L11.407142857142858,9.378571428571426L11.835714285714285,9.378571428571426L11.835714285714285,9.592857142857142L13.12142857142857,9.592857142857142L13.12142857142857,9.807142857142857L13.235714285714284,9.807142857142857L13.235714285714284,8.307142857142857L13.45,8.307142857142857L13.45,8.092857142857142L13.878571428571426,8.092857142857142L13.878571428571426,7.878571428571428L14.307142857142857,7.878571428571428L14.307142857142857,7.45L14.521428571428569,7.45L14.521428571428569,7.021428571428571L15.907142857142858,7.021428571428571L15.907142857142858,7.664285714285715L16.12142857142857,7.664285714285715L16.12142857142857,8.521428571428569L16.335714285714285,8.521428571428569L16.335714285714285,8.735714285714284L16.55,8.735714285714284L16.55,9L16.45,9L16.45,8.835714285714285L16.235714285714284,8.835714285714285L16.235714285714284,8.62142857142857L16.02142857142857,8.62142857142857L16.02142857142857,7.764285714285714L15.807142857142857,7.764285714285714L15.807142857142857,7.121428571428571L14.62142857142857,7.121428571428571L14.62142857142857,7.55L14.407142857142858,7.55L14.407142857142858,7.978571428571428L13.978571428571428,7.978571428571428L13.978571428571428,8.192857142857143L13.55,8.192857142857143L13.55,8.407142857142858L13.335714285714285,8.407142857142858L13.335714285714285,9.907142857142858L13.12142857142857,9.907142857142858L13.12142857142857,10.021428571428569L13.335714285714285,10.021428571428569L13.335714285714285,10.45L13.5,10.45L13.5,10.55L13.235714285714284,10.55L13.235714285714284,10.12142857142857L13.021428571428569,10.12142857142857L13.021428571428569,9.907142857142858L12.907142857142858,9.907142857142858L12.907142857142858,11.192857142857143L12.692857142857143,11.192857142857143L12.692857142857143,11.407142857142858L12.05,11.407142857142858L12.05,12L11.95,12L11.95,11.307142857142857L12.592857142857142,11.307142857142857L12.592857142857142,11.092857142857142L12.807142857142857,11.092857142857142L12.807142857142857,9.807142857142857z" stroke="none"/><path d="M20.95,4.45L20.95,4.335714285714285L16.878571428571426,4.335714285714285L16.878571428571426,3.907142857142857L16.664285714285715,3.907142857142857L16.664285714285715,3.6928571428571426L16.45,3.6928571428571426L16.45,3.478571428571428L16.02142857142857,3.478571428571428L16.02142857142857,3.2642857142857142L15.592857142857142,3.2642857142857142L15.592857142857142,2.6214285714285714L14.62142857142857,2.6214285714285714L14.62142857142857,3.05L14.407142857142858,3.05L14.407142857142858,3.478571428571428L13.978571428571428,3.478571428571428L13.978571428571428,3.6928571428571426L13.764285714285716,3.6928571428571426L13.764285714285716,3.907142857142857L13.55,3.907142857142857L13.55,4.5L13.45,4.5L13.45,3.8071428571428574L13.664285714285715,3.8071428571428574L13.664285714285715,3.592857142857143L13.878571428571426,3.592857142857143L13.878571428571426,3.3785714285714286L14.307142857142857,3.3785714285714286L14.307142857142857,2.95L14.521428571428569,2.95L14.521428571428569,2.521428571428572L15.692857142857143,2.521428571428572L15.692857142857143,3.1642857142857146L16.12142857142857,3.1642857142857146L16.12142857142857,3.3785714285714286L16.55,3.3785714285714286L16.55,3.592857142857143L16.764285714285716,3.592857142857143L16.764285714285716,3.8071428571428574L16.978571428571428,3.8071428571428574L16.978571428571428,4.235714285714286L21.05,4.235714285714286L21.05,4.45L24.807142857142857,4.45L24.807142857142857,3.3785714285714286L25.45,3.3785714285714286L25.45,3L25.55,3L25.55,3.478571428571428L24.90714285714286,3.478571428571428L24.90714285714286,4.55L21.05,4.55L21.05,4.664285714285715L23.192857142857143,4.664285714285715L23.192857142857143,4.878571428571429L23.62142857142857,4.878571428571429L23.62142857142857,5.0928571428571425L24.478571428571428,5.0928571428571425L24.478571428571428,5.307142857142857L25.12142857142857,5.307142857142857L25.12142857142857,5.735714285714286L25.335714285714285,5.735714285714286L25.335714285714285,5.95L25.5,5.95L25.5,6.05L25.235714285714284,6.05L25.235714285714284,5.835714285714285L25.02142857142857,5.835714285714285L25.02142857142857,5.407142857142857L24.378571428571426,5.407142857142857L24.378571428571426,5.192857142857142L23.52142857142857,5.192857142857142L23.52142857142857,4.978571428571429L23.09285714285714,4.978571428571429L23.09285714285714,4.764285714285714L20.95,4.764285714285714L20.95,4.55L19.5,4.55L19.5,4.45z" stroke="none"/><path d="M15.164285714285715,5.307142857142857L15.164285714285715,4.878571428571429L15.378571428571426,4.878571428571429L15.378571428571426,3.05L15,3.05L15,2.95L15.478571428571428,2.95L15.478571428571428,4.978571428571429L15.264285714285716,4.978571428571429L15.264285714285716,5.307142857142857L16.764285714285716,5.307142857142857L16.764285714285716,5.735714285714286L16.978571428571428,5.735714285714286L16.978571428571428,5.95L18,5.95L18,6.05L16.878571428571426,6.05L16.878571428571426,5.835714285714285L16.664285714285715,5.835714285714285L16.664285714285715,5.407142857142857L15.264285714285716,5.407142857142857L15.264285714285716,5.521428571428571L16.335714285714285,5.521428571428571L16.335714285714285,5.735714285714286L16.55,5.735714285714286L16.55,5.95L16.764285714285716,5.95L16.764285714285716,6.164285714285715L17.835714285714285,6.164285714285715L17.835714285714285,6.378571428571428L18.05,6.378571428571428L18.05,6.807142857142857L18.478571428571428,6.807142857142857L18.478571428571428,7.021428571428571L18.692857142857143,7.021428571428571L18.692857142857143,7.235714285714286L18.90714285714286,7.235714285714286L18.90714285714286,7.45L19.5,7.45L19.5,7.55L18.807142857142857,7.55L18.807142857142857,7.335714285714285L18.59285714285714,7.335714285714285L18.59285714285714,7.121428571428571L18.378571428571426,7.121428571428571L18.378571428571426,6.907142857142857L17.95,6.907142857142857L17.95,6.478571428571428L17.735714285714284,6.478571428571428L17.735714285714284,6.264285714285714L16.664285714285715,6.264285714285714L16.664285714285715,6.05L16.45,6.05L16.45,5.835714285714285L16.235714285714284,5.835714285714285L16.235714285714284,5.621428571428571L15.164285714285715,5.621428571428571L15.164285714285715,5.407142857142857L9.907142857142858,5.407142857142857L9.907142857142858,5.621428571428571L9.692857142857143,5.621428571428571L9.692857142857143,5.835714285714285L9.478571428571428,5.835714285714285L9.478571428571428,6.05L9,6.05L9,5.95L9.378571428571426,5.95L9.378571428571426,5.735714285714286L9.592857142857142,5.735714285714286L9.592857142857142,5.521428571428571L9.807142857142857,5.521428571428571L9.807142857142857,5.307142857142857z" stroke="none"/><path d="M5.95,3L6.05,3L6.05,4.5L5.95,4.5z" stroke="none"/><path d="M3,12.05L3,11.95L4.5,11.95L4.5,12.05z" stroke="none"/><path d="M24,9.05L24,8.95L25.5,8.95L25.5,9.05z" stroke="none"/><path d="M22.5,10.55L22.5,10.45L22.764285714285716,10.45L22.764285714285716,10.878571428571426L22.978571428571428,10.878571428571426L22.978571428571428,11.735714285714284L23.40714285714286,11.735714285714284L23.40714285714286,12.164285714285715L23.62142857142857,12.164285714285715L23.62142857142857,12.378571428571426L24.378571428571426,12.378571428571426L24.378571428571426,11.407142857142858L24.164285714285715,11.407142857142858L24.164285714285715,10.978571428571428L23.52142857142857,10.978571428571428L23.52142857142857,10.12142857142857L23.09285714285714,10.12142857142857L23.09285714285714,9.692857142857143L22.878571428571426,9.692857142857143L22.878571428571426,9.264285714285716L22.45,9.264285714285716L22.45,9L22.55,9L22.55,9.164285714285715L22.978571428571428,9.164285714285715L22.978571428571428,9.592857142857142L23.192857142857143,9.592857142857142L23.192857142857143,10.021428571428569L23.62142857142857,10.021428571428569L23.62142857142857,10.878571428571426L24.264285714285716,10.878571428571426L24.264285714285716,11.307142857142857L24.478571428571428,11.307142857142857L24.478571428571428,12.478571428571428L23.52142857142857,12.478571428571428L23.52142857142857,12.264285714285716L23.307142857142857,12.264285714285716L23.307142857142857,11.835714285714285L22.878571428571426,11.835714285714285L22.878571428571426,10.978571428571428L22.664285714285715,10.978571428571428L22.664285714285715,10.55z" stroke="none"/><path d="M15,6.05L15,5.95L15.478571428571428,5.95L15.478571428571428,6.164285714285715L15.907142857142858,6.164285714285715L15.907142857142858,6.807142857142857L16.12142857142857,6.807142857142857L16.12142857142857,7.235714285714286L16.55,7.235714285714286L16.55,7.5L16.45,7.5L16.45,7.335714285714285L16.02142857142857,7.335714285714285L16.02142857142857,6.907142857142857L15.807142857142857,6.907142857142857L15.807142857142857,6.264285714285714L15.378571428571426,6.264285714285714L15.378571428571426,6.05z" stroke="none"/><path d="M25.5,4.55L25.5,4.45L25.978571428571428,4.45L25.978571428571428,6.478571428571428L23.95,6.478571428571428L23.95,6L24.05,6L24.05,6.378571428571428L25.878571428571426,6.378571428571428L25.878571428571426,4.55z" stroke="none"/><path d="M3.05,4.5L2.95,4.5L2.95,4.021428571428571L3.592857142857143,4.021428571428571L3.592857142857143,3.8071428571428574L3.8071428571428574,3.8071428571428574L3.8071428571428574,3.592857142857143L4.021428571428571,3.592857142857143L4.021428571428571,3.3785714285714286L4.45,3.3785714285714286L4.45,3L4.55,3L4.55,3.478571428571428L4.121428571428571,3.478571428571428L4.121428571428571,3.6928571428571426L3.907142857142857,3.6928571428571426L3.907142857142857,3.907142857142857L3.6928571428571426,3.907142857142857L3.6928571428571426,4.121428571428571L3.05,4.121428571428571z" stroke="none"/><path d="M4.5,9.05L4.5,8.95L5.307142857142857,8.95L5.307142857142857,8.735714285714284L5.521428571428571,8.735714285714284L5.521428571428571,8.521428571428569L7.335714285714285,8.521428571428569L7.335714285714285,8.735714285714284L7.55,8.735714285714284L7.55,9L7.45,9L7.45,8.835714285714285L7.235714285714286,8.835714285714285L7.235714285714286,8.62142857142857L5.621428571428571,8.62142857142857L5.621428571428571,8.835714285714285L5.407142857142857,8.835714285714285L5.407142857142857,9.05z" stroke="none"/><path d="M13.5,2.95L13.5,3.05L10.5,3.05L10.5,2.95z" stroke="none"/><path d="M21,11.95L21,12.05L20.735714285714284,12.05L20.735714285714284,11.835714285714285L19.878571428571426,11.835714285714285L19.878571428571426,11.62142857142857L18.807142857142857,11.62142857142857L18.807142857142857,11.407142857142858L18.378571428571426,11.407142857142858L18.378571428571426,11.192857142857143L18.164285714285715,11.192857142857143L18.164285714285715,10.55L18,10.55L18,10.45L18.264285714285716,10.45L18.264285714285716,11.092857142857142L18.478571428571428,11.092857142857142L18.478571428571428,11.307142857142857L18.90714285714286,11.307142857142857L18.90714285714286,11.521428571428569L19.978571428571428,11.521428571428569L19.978571428571428,11.735714285714284L20.835714285714285,11.735714285714284L20.835714285714285,11.95z" stroke="none"/><path d="M27,5.95L27,6.05L26.835714285714285,6.05L26.835714285714285,6.264285714285714L26.40714285714286,6.264285714285714L26.40714285714286,6.692857142857142L24.90714285714286,6.692857142857142L24.90714285714286,7.121428571428571L24.692857142857143,7.121428571428571L24.692857142857143,7.335714285714285L24.05,7.335714285714285L24.05,7.5L23.95,7.5L23.95,7.235714285714286L24.59285714285714,7.235714285714286L24.59285714285714,7.021428571428571L24.807142857142857,7.021428571428571L24.807142857142857,6.5928571428571425L26.307142857142857,6.5928571428571425L26.307142857142857,6.164285714285715L26.735714285714284,6.164285714285715L26.735714285714284,5.95z" stroke="none"/><path d="M9,10.45L9,10.55L8.735714285714284,10.55L8.735714285714284,10.335714285714285L7.664285714285715,10.335714285714285L7.664285714285715,9.907142857142858L7.021428571428571,9.907142857142858L7.021428571428571,9.692857142857143L6.378571428571428,9.692857142857143L6.378571428571428,9.478571428571428L6.164285714285715,9.478571428571428L6.164285714285715,9.05L6,9.05L6,8.95L6.264285714285714,8.95L6.264285714285714,9.378571428571426L6.478571428571428,9.378571428571426L6.478571428571428,9.592857142857142L7.121428571428571,9.592857142857142L7.121428571428571,9.807142857142857L7.764285714285714,9.807142857142857L7.764285714285714,10.235714285714284L8.835714285714285,10.235714285714284L8.835714285714285,10.45z" stroke="none"/><path d="M19.5,6.05L19.5,5.95L20.621428571428574,5.95L20.621428571428574,6.378571428571428L21.05,6.378571428571428L21.05,6.5928571428571425L21.478571428571428,6.5928571428571425L21.478571428571428,6.807142857142857L21.90714285714286,6.807142857142857L21.90714285714286,7.021428571428571L22.121428571428574,7.021428571428571L22.121428571428574,7.235714285714286L22.764285714285716,7.235714285714286L22.764285714285716,7.664285714285715L22.978571428571428,7.664285714285715L22.978571428571428,7.878571428571428L25.664285714285715,7.878571428571428L25.664285714285715,7.235714285714286L25.878571428571426,7.235714285714286L25.878571428571426,7.021428571428571L26.735714285714284,7.021428571428571L26.735714285714284,6.807142857142857L27.164285714285715,6.807142857142857L27.164285714285715,6.5928571428571425L27.378571428571426,6.5928571428571425L27.378571428571426,4.55L27.164285714285715,4.55L27.164285714285715,4.121428571428571L26.95,4.121428571428571L26.95,3.907142857142857L26.735714285714284,3.907142857142857L26.735714285714284,3.6928571428571426L26.52142857142857,3.6928571428571426L26.52142857142857,3.478571428571428L26.307142857142857,3.478571428571428L26.307142857142857,3.05L26.09285714285714,3.05L26.09285714285714,2.6214285714285714L23.62142857142857,2.6214285714285714L23.62142857142857,2.8357142857142854L23.192857142857143,2.8357142857142854L23.192857142857143,3.05L22.5,3.05L22.5,2.95L23.09285714285714,2.95L23.09285714285714,2.7357142857142858L23.52142857142857,2.7357142857142858L23.52142857142857,2.521428571428572L26.192857142857143,2.521428571428572L26.192857142857143,2.95L26.40714285714286,2.95L26.40714285714286,3.3785714285714286L26.62142857142857,3.3785714285714286L26.62142857142857,3.592857142857143L26.835714285714285,3.592857142857143L26.835714285714285,3.8071428571428574L27.05,3.8071428571428574L27.05,4.021428571428571L27.264285714285716,4.021428571428571L27.264285714285716,4.45L27.478571428571428,4.45L27.478571428571428,6.692857142857142L27.264285714285716,6.692857142857142L27.264285714285716,6.907142857142857L26.835714285714285,6.907142857142857L26.835714285714285,7.121428571428571L25.978571428571428,7.121428571428571L25.978571428571428,7.335714285714285L25.764285714285716,7.335714285714285L25.764285714285716,7.978571428571428L22.878571428571426,7.978571428571428L22.878571428571426,7.764285714285714L22.664285714285715,7.764285714285714L22.664285714285715,7.335714285714285L22.021428571428572,7.335714285714285L22.021428571428572,7.121428571428571L21.807142857142857,7.121428571428571L21.807142857142857,6.907142857142857L21.378571428571426,6.907142857142857L21.378571428571426,6.692857142857142L20.95,6.692857142857142L20.95,6.478571428571428L20.521428571428572,6.478571428571428L20.521428571428572,6.05z" stroke="none"/><path d="M3,3.05L3,2.95L3.8071428571428574,2.95L3.8071428571428574,2.7357142857142858L4.021428571428571,2.7357142857142858L4.021428571428571,2.521428571428572L6.692857142857142,2.521428571428572L6.692857142857142,2.7357142857142858L6.907142857142857,2.7357142857142858L6.907142857142857,2.95L7.5,2.95L7.5,3.05L6.807142857142857,3.05L6.807142857142857,2.8357142857142854L6.5928571428571425,2.8357142857142854L6.5928571428571425,2.6214285714285714L4.121428571428571,2.6214285714285714L4.121428571428571,2.8357142857142854L3.907142857142857,2.8357142857142854L3.907142857142857,3.05z" stroke="none"/><path d="M16.5,10.45L16.5,10.55L14.62142857142857,10.55L14.62142857142857,10.764285714285716L14.407142857142858,10.764285714285716L14.407142857142858,10.978571428571428L13.978571428571428,10.978571428571428L13.978571428571428,11.192857142857143L13.764285714285716,11.192857142857143L13.764285714285716,11.62142857142857L13.12142857142857,11.62142857142857L13.12142857142857,12.05L12.907142857142858,12.05L12.907142857142858,12.264285714285716L12.692857142857143,12.264285714285716L12.692857142857143,12.478571428571428L11.521428571428569,12.478571428571428L11.521428571428569,10.664285714285715L11.95,10.664285714285715L11.95,10.5L12.05,10.5L12.05,10.764285714285716L11.62142857142857,10.764285714285716L11.62142857142857,12.378571428571426L12.592857142857142,12.378571428571426L12.592857142857142,12.164285714285715L12.807142857142857,12.164285714285715L12.807142857142857,11.95L13.021428571428569,11.95L13.021428571428569,11.521428571428569L13.664285714285715,11.521428571428569L13.664285714285715,11.092857142857142L13.878571428571426,11.092857142857142L13.878571428571426,10.878571428571426L14.307142857142857,10.878571428571426L14.307142857142857,10.664285714285715L14.521428571428569,10.664285714285715L14.521428571428569,10.45z" stroke="none"/><path d="M26.95,3L27.05,3L27.05,3.3785714285714286L27.264285714285716,3.3785714285714286L27.264285714285716,3.8071428571428574L27.478571428571428,3.8071428571428574L27.478571428571428,4.235714285714286L27.692857142857143,4.235714285714286L27.692857142857143,6.907142857142857L27.478571428571428,6.907142857142857L27.478571428571428,7.121428571428571L27.264285714285716,7.121428571428571L27.264285714285716,7.335714285714285L27.05,7.335714285714285L27.05,7.5L26.95,7.5L26.95,7.235714285714286L27.164285714285715,7.235714285714286L27.164285714285715,7.021428571428571L27.378571428571426,7.021428571428571L27.378571428571426,6.807142857142857L27.59285714285714,6.807142857142857L27.59285714285714,4.335714285714285L27.378571428571426,4.335714285714285L27.378571428571426,3.907142857142857L27.164285714285715,3.907142857142857L27.164285714285715,3.478571428571428L26.95,3.478571428571428z" stroke="none"/><path d="M18,12.05L18,11.95L20.40714285714286,11.95L20.40714285714286,12.164285714285715L20.621428571428574,12.164285714285715L20.621428571428574,12.378571428571426L21.807142857142857,12.378571428571426L21.807142857142857,12.164285714285715L22.45,12.164285714285715L22.45,12L22.55,12L22.55,12.264285714285716L21.90714285714286,12.264285714285716L21.90714285714286,12.478571428571428L20.521428571428572,12.478571428571428L20.521428571428572,12.264285714285716L20.307142857142857,12.264285714285716L20.307142857142857,12.05z" stroke="none"/><path d="M15,9.05L15,8.95L15.907142857142858,8.95L15.907142857142858,9.592857142857142L16.12142857142857,9.592857142857142L16.12142857142857,9.807142857142857L16.335714285714285,9.807142857142857L16.335714285714285,10.021428571428569L16.978571428571428,10.021428571428569L16.978571428571428,11.307142857142857L17.192857142857143,11.307142857142857L17.192857142857143,12.378571428571426L20.192857142857143,12.378571428571426L20.192857142857143,12.592857142857142L24.59285714285714,12.592857142857142L24.59285714285714,10.55L23.735714285714284,10.55L23.735714285714284,9.478571428571428L23.52142857142857,9.478571428571428L23.52142857142857,8.835714285714285L23.307142857142857,8.835714285714285L23.307142857142857,8.62142857142857L21.164285714285715,8.62142857142857L21.164285714285715,8.407142857142858L20.95,8.407142857142858L20.95,8.192857142857143L20.307142857142857,8.192857142857143L20.307142857142857,7.978571428571428L19.878571428571426,7.978571428571428L19.878571428571426,6.907142857142857L19.664285714285715,6.907142857142857L19.664285714285715,6.692857142857142L19.021428571428572,6.692857142857142L19.021428571428572,5.621428571428571L17.735714285714284,5.621428571428571L17.735714285714284,5.407142857142857L17.521428571428572,5.407142857142857L17.521428571428572,5.192857142857142L16.878571428571426,5.192857142857142L16.878571428571426,4.978571428571429L16.664285714285715,4.978571428571429L16.664285714285715,4.55L16.5,4.55L16.5,4.45L16.764285714285716,4.45L16.764285714285716,4.878571428571429L16.978571428571428,4.878571428571429L16.978571428571428,5.0928571428571425L17.621428571428574,5.0928571428571425L17.621428571428574,5.307142857142857L17.835714285714285,5.307142857142857L17.835714285714285,5.521428571428571L19.121428571428574,5.521428571428571L19.121428571428574,6.5928571428571425L19.764285714285716,6.5928571428571425L19.764285714285716,6.807142857142857L19.978571428571428,6.807142857142857L19.978571428571428,7.878571428571428L20.40714285714286,7.878571428571428L20.40714285714286,8.092857142857142L21.05,8.092857142857142L21.05,8.307142857142857L21.264285714285716,8.307142857142857L21.264285714285716,8.521428571428569L23.40714285714286,8.521428571428569L23.40714285714286,8.735714285714284L23.62142857142857,8.735714285714284L23.62142857142857,9.378571428571426L23.835714285714285,9.378571428571426L23.835714285714285,10.45L24.692857142857143,10.45L24.692857142857143,12.692857142857143L20.09285714285714,12.692857142857143L20.09285714285714,12.478571428571428L17.09285714285714,12.478571428571428L17.09285714285714,11.407142857142858L16.878571428571426,11.407142857142858L16.878571428571426,10.12142857142857L16.235714285714284,10.12142857142857L16.235714285714284,9.907142857142858L16.02142857142857,9.907142857142858L16.02142857142857,9.692857142857143L15.807142857142857,9.692857142857143L15.807142857142857,9.05z" stroke="none"/><path d="M3,6.05L3,5.95L5.307142857142857,5.95L5.307142857142857,5.521428571428571L6.378571428571428,5.521428571428571L6.378571428571428,5.307142857142857L6.5928571428571425,5.307142857142857L6.5928571428571425,4.878571428571429L6.807142857142857,4.878571428571429L6.807142857142857,4.664285714285715L7.235714285714286,4.664285714285715L7.235714285714286,4.45L7.5,4.45L7.5,4.55L7.335714285714285,4.55L7.335714285714285,4.764285714285714L6.907142857142857,4.764285714285714L6.907142857142857,4.978571428571429L6.692857142857142,4.978571428571429L6.692857142857142,5.407142857142857L6.478571428571428,5.407142857142857L6.478571428571428,5.621428571428571L5.407142857142857,5.621428571428571L5.407142857142857,6.05z" stroke="none"/><path d="M24,2.95L24,3.05L23.40714285714286,3.05L23.40714285714286,3.2642857142857142L22.978571428571428,3.2642857142857142L22.978571428571428,3.478571428571428L22.021428571428572,3.478571428571428L22.021428571428572,2.521428571428572L22.664285714285715,2.521428571428572L22.664285714285715,2.3071428571428574L27.478571428571428,2.3071428571428574L27.478571428571428,3.592857142857143L27.692857142857143,3.592857142857143L27.692857142857143,4.021428571428571L27.90714285714286,4.021428571428571L27.90714285714286,7.121428571428571L27.692857142857143,7.121428571428571L27.692857142857143,7.335714285714285L27.478571428571428,7.335714285714285L27.478571428571428,7.978571428571428L26.192857142857143,7.978571428571428L26.192857142857143,8.192857142857143L21.378571428571426,8.192857142857143L21.378571428571426,7.978571428571428L20.95,7.978571428571428L20.95,7.5L21.05,7.5L21.05,7.878571428571428L21.478571428571428,7.878571428571428L21.478571428571428,8.092857142857142L26.09285714285714,8.092857142857142L26.09285714285714,7.878571428571428L27.378571428571426,7.878571428571428L27.378571428571426,7.235714285714286L27.59285714285714,7.235714285714286L27.59285714285714,7.021428571428571L27.807142857142857,7.021428571428571L27.807142857142857,4.121428571428571L27.59285714285714,4.121428571428571L27.59285714285714,3.6928571428571426L27.378571428571426,3.6928571428571426L27.378571428571426,2.407142857142857L22.764285714285716,2.407142857142857L22.764285714285716,2.6214285714285714L22.121428571428574,2.6214285714285714L22.121428571428574,3.3785714285714286L22.878571428571426,3.3785714285714286L22.878571428571426,3.1642857142857146L23.307142857142857,3.1642857142857146L23.307142857142857,2.95z" stroke="none"/><path d="M16.55,3L16.45,3L16.45,2.8357142857142854L16.235714285714284,2.8357142857142854L16.235714285714284,2.6214285714285714L16.02142857142857,2.6214285714285714L16.02142857142857,2.407142857142857L10.764285714285716,2.407142857142857L10.764285714285716,2.6214285714285714L10.12142857142857,2.6214285714285714L10.12142857142857,4.021428571428571L10.335714285714285,4.021428571428571L10.335714285714285,4.45L10.5,4.45L10.5,4.55L10.235714285714284,4.55L10.235714285714284,4.121428571428571L10.021428571428569,4.121428571428571L10.021428571428569,2.521428571428572L10.664285714285715,2.521428571428572L10.664285714285715,2.3071428571428574L16.12142857142857,2.3071428571428574L16.12142857142857,2.521428571428572L16.335714285714285,2.521428571428572L16.335714285714285,2.7357142857142858L16.55,2.7357142857142858z" stroke="none"/><path d="M12,8.95L12,9.05L11.307142857142857,9.05L11.307142857142857,8.835714285714285L10.878571428571426,8.835714285714285L10.878571428571426,8.62142857142857L10.12142857142857,8.62142857142857L10.12142857142857,10.764285714285716L9.907142857142858,10.764285714285716L9.907142857142858,10.978571428571428L5.735714285714286,10.978571428571428L5.735714285714286,10.55L5.521428571428571,10.55L5.521428571428571,10.12142857142857L5.307142857142857,10.12142857142857L5.307142857142857,9.907142857142858L2.95,9.907142857142858L2.95,9.692857142857143L2.521428571428572,9.692857142857143L2.521428571428572,7.664285714285715L2.95,7.664285714285715L2.95,7.5L3.05,7.5L3.05,7.764285714285714L2.6214285714285714,7.764285714285714L2.6214285714285714,9.592857142857142L3.05,9.592857142857142L3.05,9.807142857142857L5.407142857142857,9.807142857142857L5.407142857142857,10.021428571428569L5.621428571428571,10.021428571428569L5.621428571428571,10.45L5.835714285714285,10.45L5.835714285714285,10.878571428571426L9.807142857142857,10.878571428571426L9.807142857142857,10.664285714285715L10.021428571428569,10.664285714285715L10.021428571428569,8.521428571428569L10.978571428571428,8.521428571428569L10.978571428571428,8.735714285714284L11.407142857142858,8.735714285714284L11.407142857142858,8.95z" stroke="none"/><path d="M25.45,10.5L25.55,10.5L25.55,12.264285714285716L25.335714285714285,12.264285714285716L25.335714285714285,12.478571428571428L24.90714285714286,12.478571428571428L24.90714285714286,12.907142857142858L15.592857142857142,12.907142857142858L15.592857142857142,12.05L15,12.05L15,11.95L15.692857142857143,11.95L15.692857142857143,12.807142857142857L24.807142857142857,12.807142857142857L24.807142857142857,12.378571428571426L25.235714285714284,12.378571428571426L25.235714285714284,12.164285714285715L25.45,12.164285714285715z" stroke="none"/><path d="M4.5,7.55L4.5,7.45L11.735714285714284,7.45L11.735714285714284,7.235714285714286L11.95,7.235714285714286L11.95,7.021428571428571L12.378571428571426,7.021428571428571L12.378571428571426,5.621428571428571L10.764285714285716,5.621428571428571L10.764285714285716,5.835714285714285L10.335714285714285,5.835714285714285L10.335714285714285,6.05L10.12142857142857,6.05L10.12142857142857,6.264285714285714L9.692857142857143,6.264285714285714L9.692857142857143,6.478571428571428L8.521428571428569,6.478571428571428L8.521428571428569,5.307142857142857L8.735714285714284,5.307142857142857L8.735714285714284,5.0928571428571425L14.735714285714284,5.0928571428571425L14.735714285714284,4.45L15,4.45L15,4.55L14.835714285714285,4.55L14.835714285714285,5.192857142857142L8.835714285714285,5.192857142857142L8.835714285714285,5.407142857142857L8.62142857142857,5.407142857142857L8.62142857142857,6.378571428571428L9.592857142857142,6.378571428571428L9.592857142857142,6.164285714285715L10.021428571428569,6.164285714285715L10.021428571428569,5.95L10.235714285714284,5.95L10.235714285714284,5.735714285714286L10.664285714285715,5.735714285714286L10.664285714285715,5.521428571428571L12.478571428571428,5.521428571428571L12.478571428571428,7.121428571428571L12.05,7.121428571428571L12.05,7.335714285714285L11.835714285714285,7.335714285714285L11.835714285714285,7.55z" stroke="none"/><circle cx="19.5" cy="9" r="0.25" stroke-width="0" fill="#000" /><circle cx="15" cy="7.5" r="0.25" stroke-width="0" fill="#000" /><circle cx="24" cy="12" r="0.25" stroke-width="0" fill="#000" /><circle cx="7.5" cy="12" r="0.25" stroke-width="0" fill="#000" /><circle cx="9" cy="12" r="0.25" stroke-width="0" fill="#000" /><circle cx="4.5" cy="10.5" r="0.25" stroke-width="0" fill="#000" /><circle cx="6" cy="6" r="0.25" stroke-width="0" fill="#000" /><circle cx="3" cy="9" r="0.25" stroke-width="0" fill="#000" /><circle cx="12" cy="6" r="0.25" stroke-width="0" fill="#000" /><circle cx="13.5" cy="10.5" r="0.25" stroke-width="0" fill="#000" /><circle cx="12" cy="12" r="0.25" stroke-width="0" fill="#000" /><circle cx="10.5" cy="9" r="0.25" stroke-width="0" fill="#000" /><circle cx="16.5" cy="9" r="0.25" stroke-width="0" fill="#000" /><circle cx="19.5" cy="4.5" r="0.25" stroke-width="0" fill="#000" /><circle cx="25.5" cy="3" r="0.25" stroke-width="0" fill="#000" /><circle cx="25.5" cy="6" r="0.25" stroke-width="0" fill="#000" /><circle cx="13.5" cy="4.5" r="0.25" stroke-width="0" fill="#000" /><circle cx="15" cy="3" r="0.25" stroke-width="0" fill="#000" /><circle cx="18" cy="6" r="0.25" stroke-width="0" fill="#000" /><circle cx="19.5" cy="7.5" r="0.25" stroke-width="0" fill="#000" /><circle cx="9" cy="6" r="0.25" stroke-width="0" fill="#000" /><circle cx="6" cy="3" r="0.25" stroke-width="0" fill="#000" /><circle cx="6" cy="4.5" r="0.25" stroke-width="0" fill="#000" /><circle cx="3" cy="12" r="0.25" stroke-width="0" fill="#000" /><circle cx="4.5" cy="12" r="0.25" stroke-width="0" fill="#000" /><circle cx="24" cy="9" r="0.25" stroke-width="0" fill="#000" /><circle cx="25.5" cy="9" r="0.25" stroke-width="0" fill="#000" /><circle cx="22.5" cy="10.5" r="0.25" stroke-width="0" fill="#000" /><circle cx="22.5" cy="9" r="0.25" stroke-width="0" fill="#000" /><circle cx="15" cy="6" r="0.25" stroke-width="0" fill="#000" /><circle cx="16.5" cy="7.5" r="0.25" stroke-width="0" fill="#000" /><circle cx="25.5" cy="4.5" r="0.25" stroke-width="0" fill="#000" /><circle cx="24" cy="6" r="0.25" stroke-width="0" fill="#000" /><circle cx="3" cy="4.5" r="0.25" stroke-width="0" fill="#000" /><circle cx="4.5" cy="3" r="0.25" stroke-width="0" fill="#000" /><circle cx="4.5" cy="9" r="0.25" stroke-width="0" fill="#000" /><circle cx="7.5" cy="9" r="0.25" stroke-width="0" fill="#000" /><circle cx="13.5" cy="3" r="0.25" stroke-width="0" fill="#000" /><circle cx="10.5" cy="3" r="0.25" stroke-width="0" fill="#000" /><circle cx="21" cy="12" r="0.25" stroke-width="0" fill="#000" /><circle cx="18" cy="10.5" r="0.25" stroke-width="0" fill="#000" /><circle cx="27" cy="6" r="0.25" stroke-width="0" fill="#000" /><circle cx="24" cy="7.5" r="0.25" stroke-width="0" fill="#000" /><circle cx="9" cy="10.5" r="0.25" stroke-width="0" fill="#000" /><circle cx="6" cy="9" r="0.25" stroke-width="0" fill="#000" /><circle cx="19.5" cy="6" r="0.25" stroke-width="0" fill="#000" /><circle cx="22.5" cy="3" r="0.25" stroke-width="0" fill="#000" /><circle cx="3" cy="3" r="0.25" stroke-width="0" fill="#000" /><circle cx="7.5" cy="3" r="0.25" stroke-width="0" fill="#000" /><circle cx="16.5" cy="10.5" r="0.25" stroke-width="0" fill="#000" /><circle cx="12" cy="10.5" r="0.25" stroke-width="0" fill="#000" /><circle cx="27" cy="3" r="0.25" stroke-width="0" fill="#000" /><circle cx="27" cy="7.5" r="0.25" stroke-width="0" fill="#000" /><circle cx="18" cy="12" r="0.25" stroke-width="0" fill="#000" /><circle cx="22.5" cy="12" r="0.25" stroke-width="0" fill="#000" /><circle cx="15" cy="9" r="0.25" stroke-width="0" fill="#000" /><circle cx="16.5" cy="4.5" r="0.25" stroke-width="0" fill="#000" /><circle cx="3" cy="6" r="0.25" stroke-width="0" fill="#000" /><circle cx="7.5" cy="4.5" r="0.25" stroke-width="0" fill="#000" /><circle cx="24" cy="3" r="0.25" stroke-width="0" fill="#000" /><circle cx="21" cy="7.5" r="0.25" stroke-width="0" fill="#000" /><circle cx="16.5" cy="3" r="0.25" stroke-width="0" fill="#000" /><circle cx="10.5" cy="4.5" r="0.25" stroke-width="0" fill="#000" /><circle cx="12" cy="9" r="0.25" stroke-width="0" fill="#000" /><circle cx="3" cy="7.5" r="0.25" stroke-width="0" fill="#000" /><circle cx="25.5" cy="10.5" r="0.25" stroke-width="0" fill="#000" /><circle cx="15" cy="12" r="0.25" stroke-width="0" fill="#000" /><circle cx="4.5" cy="7.5" r="0.25" stroke-width="0" fill="#000" /><circle cx="15" cy="4.5" r="0.25" stroke-width="0" fill="#000" /><rect x="0" y="0" width="30" height="15" stroke-width="0.2" stroke="#000" fill="none" /></svg>