<svg version="1.1" width="30" height="15" xmlns="http://www.w3.org/2000/svg"><path d="M15.807142857142857,5.621428571428571L15.378571428571426,5.621428571428571L15.378571428571426,4.764285714285714L13.45,4.764285714285714L13.45,4.335714285714285L13.235714285714284,4.335714285714285L13.235714285714284,3.907142857142857L12.592857142857142,3.907142857142857L12.592857142857142,3.2642857142857142L12.164285714285715,3.2642857142857142L12.164285714285715,3.05L12,3.05L12,2.95L12.264285714285716,2.95L12.264285714285716,3.1642857142857146L12.692857142857143,3.1642857142857146L12.692857142857143,3.8071428571428574L13.335714285714285,3.8071428571428574L13.335714285714285,4.235714285714286L13.55,4.235714285714286L13.55,4.664285714285715L15.478571428571428,4.664285714285715L15.478571428571428,5.521428571428571L15.907142857142858,5.521428571428571L15.907142857142858,5.95L16.12142857142857,5.95L16.12142857142857,6.378571428571428L18.478571428571428,6.378571428571428L18.478571428571428,6.807142857142857L18.692857142857143,6.807142857142857L18.692857142857143,7.021428571428571L19.121428571428574,7.021428571428571L19.121428571428574,7.235714285714286L19.335714285714285,7.235714285714286L19.335714285714285,7.45L19.5,7.45L19.5,7.55L19.235714285714284,7.55L19.235714285714284,7.335714285714285L19.021428571428572,7.335714285714285L19.021428571428572,7.121428571428571L18.59285714285714,7.121428571428571L18.59285714285714,6.907142857142857L18.378571428571426,6.907142857142857L18.378571428571426,6.478571428571428L16.02142857142857,6.478571428571428L16.02142857142857,6.05L15.907142857142858,6.05L15.907142857142858,7.235714285714286L16.12142857142857,7.235714285714286L16.12142857142857,7.45L16.5,7.45L16.5,7.55L16.02142857142857,7.55L16.02142857142857,7.335714285714285L15.807142857142857,7.335714285714285z" stroke="none"/><path d="M19.45,8.092857142857142L19.45,7.878571428571428L19.878571428571426,7.878571428571428L19.878571428571426,7.235714285714286L20.09285714285714,7.235714285714286L20.09285714285714,7.021428571428571L22.664285714285715,7.021428571428571L22.664285714285715,6.378571428571428L22.878571428571426,6.378571428571428L22.878571428571426,6.164285714285715L23.09285714285714,6.164285714285715L23.09285714285714,5.735714285714286L23.52142857142857,5.735714285714286L23.52142857142857,5.521428571428571L26.40714285714286,5.521428571428571L26.40714285714286,5.95L27,5.95L27,6.05L26.307142857142857,6.05L26.307142857142857,5.621428571428571L23.62142857142857,5.621428571428571L23.62142857142857,5.835714285714285L23.192857142857143,5.835714285714285L23.192857142857143,6.264285714285714L22.978571428571428,6.264285714285714L22.978571428571428,6.478571428571428L22.764285714285716,6.478571428571428L22.764285714285716,7.121428571428571L20.192857142857143,7.121428571428571L20.192857142857143,7.335714285714285L19.978571428571428,7.335714285714285L19.978571428571428,7.978571428571428L19.55,7.978571428571428L19.55,8.407142857142858L18.264285714285716,8.407142857142858L18.264285714285716,8.62142857142857L17.835714285714285,8.62142857142857L17.835714285714285,9.05L16.764285714285716,9.05L16.764285714285716,9.264285714285716L15.592857142857142,9.264285714285716L15.592857142857142,9.05L15,9.05L15,8.95L15.692857142857143,8.95L15.692857142857143,9.164285714285715L16.664285714285715,9.164285714285715L16.664285714285715,8.95L17.735714285714284,8.95L17.735714285714284,8.521428571428569L18.164285714285715,8.521428571428569L18.164285714285715,8.307142857142857L19.45,8.307142857142857L19.45,8.192857142857143L17.621428571428574,8.192857142857143L17.621428571428574,8.62142857142857L17.192857142857143,8.62142857142857L17.192857142857143,8.835714285714285L16.55,8.835714285714285L16.55,9L16.45,9L16.45,8.735714285714284L17.09285714285714,8.735714285714284L17.09285714285714,8.521428571428569L17.521428571428572,8.521428571428569L17.521428571428572,8.092857142857142z" stroke="none"/><path d="M21.807142857142857,8.95L21.807142857142857,7.878571428571428L22.45,7.878571428571428L22.45,7.45L23.307142857142857,7.45L23.307142857142857,5.95L24,5.95L24,6.05L23.40714285714286,6.05L23.40714285714286,7.55L22.55,7.55L22.55,7.978571428571428L21.90714285714286,7.978571428571428L21.90714285714286,8.95L23.192857142857143,8.95L23.192857142857143,9.164285714285715L23.62142857142857,9.164285714285715L23.62142857142857,9.378571428571426L25.335714285714285,9.378571428571426L25.335714285714285,9.807142857142857L25.55,9.807142857142857L25.55,10.5L25.45,10.5L25.45,9.907142857142858L25.235714285714284,9.907142857142858L25.235714285714284,9.478571428571428L23.52142857142857,9.478571428571428L23.52142857142857,9.264285714285716L23.09285714285714,9.264285714285716L23.09285714285714,9.05L19.121428571428574,9.05L19.121428571428574,9.264285714285716L18.90714285714286,9.264285714285716L18.90714285714286,9.907142857142858L18.692857142857143,9.907142857142858L18.692857142857143,10.12142857142857L18.05,10.12142857142857L18.05,10.335714285714285L17.835714285714285,10.335714285714285L17.835714285714285,10.55L16.5,10.55L16.5,10.45L17.735714285714284,10.45L17.735714285714284,10.235714285714284L17.95,10.235714285714284L17.95,10.021428571428569L18.59285714285714,10.021428571428569L18.59285714285714,9.807142857142857L18.807142857142857,9.807142857142857L18.807142857142857,9.164285714285715L19.021428571428572,9.164285714285715L19.021428571428572,8.95z" stroke="none"/><path d="M5.0928571428571425,9.164285714285715L5.0928571428571425,9.05L4.664285714285715,9.05L4.664285714285715,8.835714285714285L4.45,8.835714285714285L4.45,8.407142857142858L4.021428571428571,8.407142857142858L4.021428571428571,8.192857142857143L3.592857142857143,8.192857142857143L3.592857142857143,7.55L3,7.55L3,7.45L3.6928571428571426,7.45L3.6928571428571426,8.092857142857142L4.121428571428571,8.092857142857142L4.121428571428571,8.307142857142857L4.55,8.307142857142857L4.55,8.735714285714284L4.764285714285714,8.735714285714284L4.764285714285714,8.95L5.192857142857142,8.95L5.192857142857142,9.164285714285715L5.621428571428571,9.164285714285715L5.621428571428571,9.378571428571426L6.692857142857142,9.378571428571426L6.692857142857142,9.592857142857142L8.192857142857143,9.592857142857142L8.192857142857143,10.021428571428569L8.835714285714285,10.021428571428569L8.835714285714285,10.45L9,10.45L9,10.55L8.735714285714284,10.55L8.735714285714284,10.12142857142857L8.092857142857142,10.12142857142857L8.092857142857142,9.692857142857143L6.5928571428571425,9.692857142857143L6.5928571428571425,9.478571428571428L5.521428571428571,9.478571428571428L5.521428571428571,9.264285714285716L5.192857142857142,9.264285714285716L5.192857142857142,9.478571428571428L4.764285714285714,9.478571428571428L4.764285714285714,9.692857142857143L4.121428571428571,9.692857142857143L4.121428571428571,9.907142857142858L3.6928571428571426,9.907142857142858L3.6928571428571426,10.12142857142857L3.2642857142857142,10.12142857142857L3.2642857142857142,10.55L3,10.55L3,10.45L3.1642857142857146,10.45L3.1642857142857146,10.021428571428569L3.592857142857143,10.021428571428569L3.592857142857143,9.807142857142857L4.021428571428571,9.807142857142857L4.021428571428571,9.592857142857142L4.664285714285715,9.592857142857142L4.664285714285715,9.378571428571426L5.0928571428571425,9.378571428571426L5.0928571428571425,9.264285714285716L4.45,9.264285714285716L4.45,9L4.55,9L4.55,9.164285714285715z" stroke="none"/><path d="M14.092857142857142,9.164285714285715L14.092857142857142,5.621428571428571L13.235714285714284,5.621428571428571L13.235714285714284,4.55L12.592857142857142,4.55L12.592857142857142,4.121428571428571L12.164285714285715,4.121428571428571L12.164285714285715,3.907142857142857L11.521428571428569,3.907142857142857L11.521428571428569,2.521428571428572L12.692857142857143,2.521428571428572L12.692857142857143,2.7357142857142858L13.12142857142857,2.7357142857142858L13.12142857142857,2.95L13.335714285714285,2.95L13.335714285714285,3.592857142857143L13.978571428571428,3.592857142857143L13.978571428571428,4.021428571428571L15.05,4.021428571428571L15.05,4.45L15.907142857142858,4.45L15.907142857142858,5.307142857142857L16.55,5.307142857142857L16.55,6L16.45,6L16.45,5.407142857142857L15.807142857142857,5.407142857142857L15.807142857142857,4.55L14.95,4.55L14.95,4.121428571428571L13.878571428571426,4.121428571428571L13.878571428571426,3.6928571428571426L13.235714285714284,3.6928571428571426L13.235714285714284,3.05L13.021428571428569,3.05L13.021428571428569,2.8357142857142854L12.592857142857142,2.8357142857142854L12.592857142857142,2.6214285714285714L11.62142857142857,2.6214285714285714L11.62142857142857,3.8071428571428574L12.264285714285716,3.8071428571428574L12.264285714285716,4.021428571428571L12.692857142857143,4.021428571428571L12.692857142857143,4.45L13.335714285714285,4.45L13.335714285714285,5.521428571428571L14.192857142857143,5.521428571428571L14.192857142857143,9.164285714285715L14.407142857142858,9.164285714285715L14.407142857142858,9.807142857142857L14.62142857142857,9.807142857142857L14.62142857142857,10.45L15,10.45L15,10.55L14.521428571428569,10.55L14.521428571428569,9.907142857142858L14.307142857142857,9.907142857142858L14.307142857142857,9.264285714285716L14.192857142857143,9.264285714285716L14.192857142857143,9.907142857142858L13.978571428571428,9.907142857142858L13.978571428571428,10.12142857142857L13.764285714285716,10.12142857142857L13.764285714285716,10.55L13.5,10.55L13.5,10.45L13.664285714285715,10.45L13.664285714285715,10.021428571428569L13.878571428571426,10.021428571428569L13.878571428571426,9.807142857142857L14.092857142857142,9.807142857142857L14.092857142857142,9.264285714285716L13.978571428571428,9.264285714285716L13.978571428571428,9.478571428571428L13.12142857142857,9.478571428571428L13.12142857142857,9.692857142857143L12.478571428571428,9.692857142857143L12.478571428571428,9.907142857142858L12.264285714285716,9.907142857142858L12.264285714285716,10.55L12,10.55L12,10.45L12.164285714285715,10.45L12.164285714285715,9.807142857142857L12.378571428571426,9.807142857142857L12.378571428571426,9.592857142857142L13.021428571428569,9.592857142857142L13.021428571428569,9.378571428571426L13.878571428571426,9.378571428571426L13.878571428571426,9.164285714285715z" stroke="none"/><path d="M14.307142857142857,3.1642857142857146L14.307142857142857,3.05L13.45,3.05L13.45,2.6214285714285714L12.807142857142857,2.6214285714285714L12.807142857142857,2.407142857142857L7.335714285714285,2.407142857142857L7.335714285714285,2.8357142857142854L7.121428571428571,2.8357142857142854L7.121428571428571,3.05L6,3.05L6,2.95L7.021428571428571,2.95L7.021428571428571,2.7357142857142858L7.235714285714286,2.7357142857142858L7.235714285714286,2.3071428571428574L12.907142857142858,2.3071428571428574L12.907142857142858,2.521428571428572L13.55,2.521428571428572L13.55,2.95L14.407142857142858,2.95L14.407142857142858,3.1642857142857146L14.62142857142857,3.1642857142857146L14.62142857142857,3.3785714285714286L16.02142857142857,3.3785714285714286L16.02142857142857,3.1642857142857146L16.235714285714284,3.1642857142857146L16.235714285714284,2.95L16.5,2.95L16.5,3.05L16.335714285714285,3.05L16.335714285714285,3.2642857142857142L16.12142857142857,3.2642857142857142L16.12142857142857,3.478571428571428L14.521428571428569,3.478571428571428L14.521428571428569,3.2642857142857142L14.407142857142858,3.2642857142857142L14.407142857142858,3.592857142857143L16.878571428571426,3.592857142857143L16.878571428571426,3.3785714285714286L17.09285714285714,3.3785714285714286L17.09285714285714,2.95L18,2.95L18,3.05L17.192857142857143,3.05L17.192857142857143,3.478571428571428L16.978571428571428,3.478571428571428L16.978571428571428,3.6928571428571426L14.307142857142857,3.6928571428571426L14.307142857142857,3.2642857142857142L14.192857142857143,3.2642857142857142L14.192857142857143,3.8071428571428574L17.835714285714285,3.8071428571428574L17.835714285714285,4.45L18,4.45L18,4.55L17.735714285714284,4.55L17.735714285714284,3.907142857142857L14.092857142857142,3.907142857142857L14.092857142857142,3.1642857142857146z" stroke="none"/><path d="M21.05,6L20.95,6L20.95,4.5L21.05,4.5z" stroke="none"/><path d="M6,10.55L6,10.45L7.121428571428571,10.45L7.121428571428571,10.878571428571426L9.378571428571426,10.878571428571426L9.378571428571426,10.12142857142857L9.164285714285715,10.12142857142857L9.164285714285715,9.907142857142858L8.735714285714284,9.907142857142858L8.735714285714284,9.692857142857143L8.521428571428569,9.692857142857143L8.521428571428569,9.478571428571428L7.021428571428571,9.478571428571428L7.021428571428571,9.264285714285716L5.95,9.264285714285716L5.95,9L6.05,9L6.05,9.164285714285715L7.121428571428571,9.164285714285715L7.121428571428571,9.378571428571426L8.62142857142857,9.378571428571426L8.62142857142857,9.592857142857142L8.835714285714285,9.592857142857142L8.835714285714285,9.807142857142857L9.264285714285716,9.807142857142857L9.264285714285716,10.021428571428569L9.478571428571428,10.021428571428569L9.478571428571428,10.978571428571428L7.021428571428571,10.978571428571428L7.021428571428571,10.55z" stroke="none"/><path d="M7.5,10.45L7.5,10.55L7.235714285714286,10.55L7.235714285714286,10.335714285714285L6.378571428571428,10.335714285714285L6.378571428571428,10.12142857142857L5.621428571428571,10.12142857142857L5.621428571428571,11.092857142857142L6.692857142857142,11.092857142857142L6.692857142857142,11.307142857142857L6.907142857142857,11.307142857142857L6.907142857142857,11.735714285714284L7.335714285714285,11.735714285714284L7.335714285714285,11.95L7.5,11.95L7.5,12.05L7.235714285714286,12.05L7.235714285714286,11.835714285714285L6.807142857142857,11.835714285714285L6.807142857142857,11.407142857142858L6.5928571428571425,11.407142857142858L6.5928571428571425,11.192857142857143L5.521428571428571,11.192857142857143L5.521428571428571,10.021428571428569L6.478571428571428,10.021428571428569L6.478571428571428,10.235714285714284L7.335714285714285,10.235714285714284L7.335714285714285,10.45z" stroke="none"/><path d="M9,12.05L9,11.95L10.5,11.95L10.5,12.05z" stroke="none"/><path d="M8.95,3L9.05,3L9.05,3.2642857142857142L8.407142857142858,3.2642857142857142L8.407142857142858,3.478571428571428L7.978571428571428,3.478571428571428L7.978571428571428,3.907142857142857L7.764285714285714,3.907142857142857L7.764285714285714,4.335714285714285L7.55,4.335714285714285L7.55,4.5L7.45,4.5L7.45,4.235714285714286L7.664285714285715,4.235714285714286L7.664285714285715,3.8071428571428574L7.878571428571428,3.8071428571428574L7.878571428571428,3.3785714285714286L8.307142857142857,3.3785714285714286L8.307142857142857,3.1642857142857146L8.95,3.1642857142857146z" stroke="none"/><path d="M10.5,8.95L10.5,9.05L10.235714285714284,9.05L10.235714285714284,8.835714285714285L9.164285714285715,8.835714285714285L9.164285714285715,8.407142857142858L8.521428571428569,8.407142857142858L8.521428571428569,7.978571428571428L8.307142857142857,7.978571428571428L8.307142857142857,7.764285714285714L7.664285714285715,7.764285714285714L7.664285714285715,7.55L7.5,7.55L7.5,7.45L7.764285714285714,7.45L7.764285714285714,7.664285714285715L8.407142857142858,7.664285714285715L8.407142857142858,7.878571428571428L8.62142857142857,7.878571428571428L8.62142857142857,8.307142857142857L9.264285714285716,8.307142857142857L9.264285714285716,8.735714285714284L10.335714285714285,8.735714285714284L10.335714285714285,8.95z" stroke="none"/><path d="M6.05,6L5.95,6L5.95,5.192857142857142L5.521428571428571,5.192857142857142L5.521428571428571,4.121428571428571L5.307142857142857,4.121428571428571L5.307142857142857,3.05L4.5,3.05L4.5,2.95L5.407142857142857,2.95L5.407142857142857,4.021428571428571L5.621428571428571,4.021428571428571L5.621428571428571,5.0928571428571425L6.05,5.0928571428571425z" stroke="none"/><path d="M24,9.05L24,8.95L24.378571428571426,8.95L24.378571428571426,8.735714285714284L25.02142857142857,8.735714285714284L25.02142857142857,8.521428571428569L26.307142857142857,8.521428571428569L26.307142857142857,8.307142857142857L26.52142857142857,8.307142857142857L26.52142857142857,7.664285714285715L26.95,7.664285714285715L26.95,7.5L27.05,7.5L27.05,7.764285714285714L26.62142857142857,7.764285714285714L26.62142857142857,8.407142857142858L26.40714285714286,8.407142857142858L26.40714285714286,8.62142857142857L25.12142857142857,8.62142857142857L25.12142857142857,8.835714285714285L24.478571428571428,8.835714285714285L24.478571428571428,9.05z" stroke="none"/><path d="M22.55,6L22.45,6L22.45,5.521428571428571L22.664285714285715,5.521428571428571L22.664285714285715,5.307142857142857L23.09285714285714,5.307142857142857L23.09285714285714,5.0928571428571425L24.164285714285715,5.0928571428571425L24.164285714285715,4.664285714285715L24.59285714285714,4.664285714285715L24.59285714285714,4.021428571428571L25.02142857142857,4.021428571428571L25.02142857142857,3.592857142857143L25.235714285714284,3.592857142857143L25.235714285714284,3.1642857142857146L25.45,3.1642857142857146L25.45,3L25.55,3L25.55,3.2642857142857142L25.335714285714285,3.2642857142857142L25.335714285714285,3.6928571428571426L25.12142857142857,3.6928571428571426L25.12142857142857,4.121428571428571L24.692857142857143,4.121428571428571L24.692857142857143,4.764285714285714L24.264285714285716,4.764285714285714L24.264285714285716,5.192857142857142L23.192857142857143,5.192857142857142L23.192857142857143,5.407142857142857L22.764285714285716,5.407142857142857L22.764285714285716,5.621428571428571L22.55,5.621428571428571z" stroke="none"/><path d="M26.95,9L27.05,9L27.05,10.12142857142857L26.835714285714285,10.12142857142857L26.835714285714285,10.335714285714285L26.62142857142857,10.335714285714285L26.62142857142857,10.55L26.40714285714286,10.55L26.40714285714286,10.764285714285716L25.978571428571428,10.764285714285716L25.978571428571428,10.978571428571428L22.45,10.978571428571428L22.45,10.5L22.55,10.5L22.55,10.878571428571426L25.878571428571426,10.878571428571426L25.878571428571426,10.664285714285715L26.307142857142857,10.664285714285715L26.307142857142857,10.45L26.52142857142857,10.45L26.52142857142857,10.235714285714284L26.735714285714284,10.235714285714284L26.735714285714284,10.021428571428569L26.95,10.021428571428569z" stroke="none"/><path d="M25.55,7.5L25.45,7.5L25.45,7.021428571428571L25.664285714285715,7.021428571428571L25.664285714285715,6.807142857142857L26.307142857142857,6.807142857142857L26.307142857142857,6.5928571428571425L27.164285714285715,6.5928571428571425L27.164285714285715,6.378571428571428L27.378571428571426,6.378571428571428L27.378571428571426,3.2642857142857142L26.95,3.2642857142857142L26.95,3L27.05,3L27.05,3.1642857142857146L27.478571428571428,3.1642857142857146L27.478571428571428,6.478571428571428L27.264285714285716,6.478571428571428L27.264285714285716,6.692857142857142L26.40714285714286,6.692857142857142L26.40714285714286,6.907142857142857L25.764285714285716,6.907142857142857L25.764285714285716,7.121428571428571L25.55,7.121428571428571z" stroke="none"/><path d="M21,10.55L21,10.45L21.90714285714286,10.45L21.90714285714286,10.878571428571426L22.335714285714285,10.878571428571426L22.335714285714285,11.092857142857142L26.52142857142857,11.092857142857142L26.52142857142857,10.878571428571426L26.95,10.878571428571426L26.95,10.235714285714284L27.164285714285715,10.235714285714284L27.164285714285715,9.592857142857142L27.378571428571426,9.592857142857142L27.378571428571426,8.62142857142857L26.62142857142857,8.62142857142857L26.62142857142857,8.835714285714285L25.978571428571428,8.835714285714285L25.978571428571428,9.05L25.5,9.05L25.5,8.95L25.878571428571426,8.95L25.878571428571426,8.735714285714284L26.52142857142857,8.735714285714284L26.52142857142857,8.521428571428569L27.478571428571428,8.521428571428569L27.478571428571428,9.692857142857143L27.264285714285716,9.692857142857143L27.264285714285716,10.335714285714285L27.05,10.335714285714285L27.05,10.978571428571428L26.62142857142857,10.978571428571428L26.62142857142857,11.192857142857143L22.235714285714284,11.192857142857143L22.235714285714284,10.978571428571428L21.807142857142857,10.978571428571428L21.807142857142857,10.55z" stroke="none"/><path d="M19.55,4.5L19.45,4.5L19.45,4.121428571428571L19.235714285714284,4.121428571428571L19.235714285714284,3.6928571428571426L18.59285714285714,3.6928571428571426L18.59285714285714,3.05L18.378571428571426,3.05L18.378571428571426,2.6214285714285714L15.478571428571428,2.6214285714285714L15.478571428571428,2.8357142857142854L15.264285714285716,2.8357142857142854L15.264285714285716,3.05L15,3.05L15,2.95L15.164285714285715,2.95L15.164285714285715,2.7357142857142858L15.378571428571426,2.7357142857142858L15.378571428571426,2.521428571428572L18.478571428571428,2.521428571428572L18.478571428571428,2.95L18.692857142857143,2.95L18.692857142857143,3.592857142857143L19.335714285714285,3.592857142857143L19.335714285714285,4.021428571428571L19.55,4.021428571428571z" stroke="none"/><path d="M6.05,7.5L5.95,7.5L5.95,7.121428571428571L5.735714285714286,7.121428571428571L5.735714285714286,6.907142857142857L5.521428571428571,6.907142857142857L5.521428571428571,5.407142857142857L5.307142857142857,5.407142857142857L5.307142857142857,4.335714285714285L5.0928571428571425,4.335714285714285L5.0928571428571425,4.121428571428571L4.878571428571429,4.121428571428571L4.878571428571429,3.6928571428571426L4.45,3.6928571428571426L4.45,3.478571428571428L3.592857142857143,3.478571428571428L3.592857142857143,3.2642857142857142L2.95,3.2642857142857142L2.95,3L3.05,3L3.05,3.1642857142857146L3.6928571428571426,3.1642857142857146L3.6928571428571426,3.3785714285714286L4.55,3.3785714285714286L4.55,3.592857142857143L4.978571428571429,3.592857142857143L4.978571428571429,4.021428571428571L5.192857142857142,4.021428571428571L5.192857142857142,4.235714285714286L5.407142857142857,4.235714285714286L5.407142857142857,5.307142857142857L5.621428571428571,5.307142857142857L5.621428571428571,6.807142857142857L5.835714285714285,6.807142857142857L5.835714285714285,7.021428571428571L6.05,7.021428571428571z" stroke="none"/><path d="M4.5,10.55L4.5,10.45L5.407142857142857,10.45L5.407142857142857,11.307142857142857L6.478571428571428,11.307142857142857L6.478571428571428,11.521428571428569L6.692857142857142,11.521428571428569L6.692857142857142,11.95L6.907142857142857,11.95L6.907142857142857,12.164285714285715L7.121428571428571,12.164285714285715L7.121428571428571,12.378571428571426L8.092857142857142,12.378571428571426L8.092857142857142,12.164285714285715L8.307142857142857,12.164285714285715L8.307142857142857,11.95L8.521428571428569,11.95L8.521428571428569,11.521428571428569L9.378571428571426,11.521428571428569L9.378571428571426,11.307142857142857L10.021428571428569,11.307142857142857L10.021428571428569,10.878571428571426L10.235714285714284,10.878571428571426L10.235714285714284,10.45L10.5,10.45L10.5,10.55L10.335714285714285,10.55L10.335714285714285,10.978571428571428L10.12142857142857,10.978571428571428L10.12142857142857,11.407142857142858L9.478571428571428,11.407142857142858L9.478571428571428,11.62142857142857L8.62142857142857,11.62142857142857L8.62142857142857,12.05L8.407142857142858,12.05L8.407142857142858,12.264285714285716L8.192857142857143,12.264285714285716L8.192857142857143,12.478571428571428L7.021428571428571,12.478571428571428L7.021428571428571,12.264285714285716L6.807142857142857,12.264285714285716L6.807142857142857,12.05L6.5928571428571425,12.05L6.5928571428571425,11.62142857142857L6.378571428571428,11.62142857142857L6.378571428571428,11.407142857142858L5.307142857142857,11.407142857142858L5.307142857142857,10.55z" stroke="none"/><path d="M21,3.05L21,2.95L24.164285714285715,2.95L24.164285714285715,2.7357142857142858L25.02142857142857,2.7357142857142858L25.02142857142857,2.521428571428572L25.978571428571428,2.521428571428572L25.978571428571428,3.3785714285714286L26.192857142857143,3.3785714285714286L26.192857142857143,3.592857142857143L26.40714285714286,3.592857142857143L26.40714285714286,4.45L27,4.45L27,4.55L26.307142857142857,4.55L26.307142857142857,3.6928571428571426L26.09285714285714,3.6928571428571426L26.09285714285714,3.478571428571428L25.878571428571426,3.478571428571428L25.878571428571426,2.6214285714285714L25.12142857142857,2.6214285714285714L25.12142857142857,2.8357142857142854L24.264285714285716,2.8357142857142854L24.264285714285716,3.05z" stroke="none"/><path d="M7.5,6.05L7.5,5.95L12.05,5.95L12.05,6.164285714285715L12.478571428571428,6.164285714285715L12.478571428571428,6.378571428571428L12.692857142857143,6.378571428571428L12.692857142857143,6.807142857142857L12.907142857142858,6.807142857142857L12.907142857142858,7.235714285714286L13.335714285714285,7.235714285714286L13.335714285714285,7.45L13.5,7.45L13.5,7.55L13.235714285714284,7.55L13.235714285714284,7.335714285714285L12.807142857142857,7.335714285714285L12.807142857142857,6.907142857142857L12.592857142857142,6.907142857142857L12.592857142857142,6.478571428571428L12.378571428571426,6.478571428571428L12.378571428571426,6.264285714285714L11.95,6.264285714285714L11.95,6.05z" stroke="none"/><path d="M5.95,4.5L6.05,4.5L6.05,4.664285714285715L6.264285714285714,4.664285714285715L6.264285714285714,5.307142857142857L6.478571428571428,5.307142857142857L6.478571428571428,5.521428571428571L6.692857142857142,5.521428571428571L6.692857142857142,5.735714285714286L6.907142857142857,5.735714285714286L6.907142857142857,5.95L7.121428571428571,5.95L7.121428571428571,6.378571428571428L10.764285714285716,6.378571428571428L10.764285714285716,6.5928571428571425L10.978571428571428,6.5928571428571425L10.978571428571428,7.021428571428571L11.407142857142858,7.021428571428571L11.407142857142858,7.235714285714286L12.05,7.235714285714286L12.05,7.5L11.95,7.5L11.95,7.335714285714285L11.307142857142857,7.335714285714285L11.307142857142857,7.121428571428571L10.878571428571426,7.121428571428571L10.878571428571426,6.692857142857142L10.664285714285715,6.692857142857142L10.664285714285715,6.478571428571428L7.021428571428571,6.478571428571428L7.021428571428571,6.05L6.807142857142857,6.05L6.807142857142857,5.835714285714285L6.5928571428571425,5.835714285714285L6.5928571428571425,5.621428571428571L6.378571428571428,5.621428571428571L6.378571428571428,5.407142857142857L6.164285714285715,5.407142857142857L6.164285714285715,4.764285714285714L5.95,4.764285714285714z" stroke="none"/><path d="M11.95,9L12.05,9L12.05,9.478571428571428L11.62142857142857,9.478571428571428L11.62142857142857,10.878571428571426L16.12142857142857,10.878571428571426L16.12142857142857,11.092857142857142L16.978571428571428,11.092857142857142L16.978571428571428,11.735714285714284L18.05,11.735714285714284L18.05,12L17.95,12L17.95,11.835714285714285L16.878571428571426,11.835714285714285L16.878571428571426,11.192857142857143L16.02142857142857,11.192857142857143L16.02142857142857,10.978571428571428L11.521428571428569,10.978571428571428L11.521428571428569,9.378571428571426L11.95,9.378571428571426z" stroke="none"/><path d="M10.55,3L10.45,3L10.45,2.8357142857142854L9.378571428571426,2.8357142857142854L9.378571428571426,2.6214285714285714L7.978571428571428,2.6214285714285714L7.978571428571428,3.2642857142857142L6.478571428571428,3.2642857142857142L6.478571428571428,3.478571428571428L5.521428571428571,3.478571428571428L5.521428571428571,2.521428571428572L7.021428571428571,2.521428571428572L7.021428571428571,2.092857142857143L18.692857142857143,2.092857142857143L18.692857142857143,2.3071428571428574L18.90714285714286,2.3071428571428574L18.90714285714286,2.95L19.121428571428574,2.95L19.121428571428574,3.1642857142857146L19.335714285714285,3.1642857142857146L19.335714285714285,3.3785714285714286L19.55,3.3785714285714286L19.55,3.8071428571428574L19.764285714285716,3.8071428571428574L19.764285714285716,4.021428571428571L19.978571428571428,4.021428571428571L19.978571428571428,4.978571428571429L19.335714285714285,4.978571428571429L19.335714285714285,5.192857142857142L18.478571428571428,5.192857142857142L18.478571428571428,5.407142857142857L18.05,5.407142857142857L18.05,6L17.95,6L17.95,5.307142857142857L18.378571428571426,5.307142857142857L18.378571428571426,5.0928571428571425L19.235714285714284,5.0928571428571425L19.235714285714284,4.878571428571429L19.878571428571426,4.878571428571429L19.878571428571426,4.121428571428571L19.664285714285715,4.121428571428571L19.664285714285715,3.907142857142857L19.45,3.907142857142857L19.45,3.478571428571428L19.235714285714284,3.478571428571428L19.235714285714284,3.2642857142857142L19.021428571428572,3.2642857142857142L19.021428571428572,3.05L18.807142857142857,3.05L18.807142857142857,2.407142857142857L18.59285714285714,2.407142857142857L18.59285714285714,2.1928571428571426L7.121428571428571,2.1928571428571426L7.121428571428571,2.6214285714285714L5.621428571428571,2.6214285714285714L5.621428571428571,3.3785714285714286L6.378571428571428,3.3785714285714286L6.378571428571428,3.1642857142857146L7.878571428571428,3.1642857142857146L7.878571428571428,2.521428571428572L9.478571428571428,2.521428571428572L9.478571428571428,2.7357142857142858L10.55,2.7357142857142858z" stroke="none"/><path d="M13.5,12.05L13.5,11.95L15.692857142857143,11.95L15.692857142857143,12.164285714285715L16.12142857142857,12.164285714285715L16.12142857142857,12.378571428571426L21.59285714285714,12.378571428571426L21.59285714285714,12.164285714285715L22.235714285714284,12.164285714285715L22.235714285714284,11.95L22.5,11.95L22.5,12.05L22.335714285714285,12.05L22.335714285714285,12.264285714285716L21.692857142857143,12.264285714285716L21.692857142857143,12.478571428571428L16.02142857142857,12.478571428571428L16.02142857142857,12.264285714285716L15.592857142857142,12.264285714285716L15.592857142857142,12.05z" stroke="none"/><path d="M4.45,4.5L4.55,4.5L4.55,6.5928571428571425L4.764285714285714,6.5928571428571425L4.764285714285714,6.807142857142857L4.978571428571429,6.807142857142857L4.978571428571429,7.021428571428571L5.192857142857142,7.021428571428571L5.192857142857142,7.235714285714286L5.407142857142857,7.235714285714286L5.407142857142857,7.664285714285715L5.621428571428571,7.664285714285715L5.621428571428571,7.878571428571428L6.378571428571428,7.878571428571428L6.378571428571428,7.664285714285715L6.5928571428571425,7.664285714285715L6.5928571428571425,7.45L6.807142857142857,7.45L6.807142857142857,7.235714285714286L7.021428571428571,7.235714285714286L7.021428571428571,7.021428571428571L10.764285714285716,7.021428571428571L10.764285714285716,7.235714285714286L11.192857142857143,7.235714285714286L11.192857142857143,7.45L11.62142857142857,7.45L11.62142857142857,7.878571428571428L13.878571428571426,7.878571428571428L13.878571428571426,6.264285714285714L13.664285714285715,6.264285714285714L13.664285714285715,6.05L13.5,6.05L13.5,5.95L13.764285714285716,5.95L13.764285714285716,6.164285714285715L13.978571428571428,6.164285714285715L13.978571428571428,7.978571428571428L11.521428571428569,7.978571428571428L11.521428571428569,7.55L11.092857142857142,7.55L11.092857142857142,7.335714285714285L10.664285714285715,7.335714285714285L10.664285714285715,7.121428571428571L7.121428571428571,7.121428571428571L7.121428571428571,7.335714285714285L6.907142857142857,7.335714285714285L6.907142857142857,7.55L6.692857142857142,7.55L6.692857142857142,7.764285714285714L6.478571428571428,7.764285714285714L6.478571428571428,7.978571428571428L5.521428571428571,7.978571428571428L5.521428571428571,7.764285714285714L5.307142857142857,7.764285714285714L5.307142857142857,7.335714285714285L5.0928571428571425,7.335714285714285L5.0928571428571425,7.121428571428571L4.878571428571429,7.121428571428571L4.878571428571429,6.907142857142857L4.664285714285715,6.907142857142857L4.664285714285715,6.692857142857142L4.45,6.692857142857142z" stroke="none"/><path d="M6,12.05L6,11.95L6.264285714285714,11.95L6.264285714285714,12.164285714285715L6.692857142857142,12.164285714285715L6.692857142857142,12.378571428571426L6.907142857142857,12.378571428571426L6.907142857142857,12.592857142857142L11.521428571428569,12.592857142857142L11.521428571428569,12.378571428571426L11.735714285714284,12.378571428571426L11.735714285714284,12.164285714285715L11.95,12.164285714285715L11.95,11.735714285714284L12.378571428571426,11.735714285714284L12.378571428571426,11.521428571428569L15.264285714285716,11.521428571428569L15.264285714285716,11.735714285714284L16.55,11.735714285714284L16.55,12L16.45,12L16.45,11.835714285714285L15.164285714285715,11.835714285714285L15.164285714285715,11.62142857142857L12.478571428571428,11.62142857142857L12.478571428571428,11.835714285714285L12.05,11.835714285714285L12.05,12.264285714285716L11.835714285714285,12.264285714285716L11.835714285714285,12.478571428571428L11.62142857142857,12.478571428571428L11.62142857142857,12.692857142857143L6.807142857142857,12.692857142857143L6.807142857142857,12.478571428571428L6.5928571428571425,12.478571428571428L6.5928571428571425,12.264285714285716L6.164285714285715,12.264285714285716L6.164285714285715,12.05z" stroke="none"/><path d="M3.05,12L2.95,12L2.95,11.192857142857143L2.7357142857142858,11.192857142857143L2.7357142857142858,10.978571428571428L2.521428571428572,10.978571428571428L2.521428571428572,7.021428571428571L3.478571428571428,7.021428571428571L3.478571428571428,7.235714285714286L4.121428571428571,7.235714285714286L4.121428571428571,7.878571428571428L5.407142857142857,7.878571428571428L5.407142857142857,8.092857142857142L8.192857142857143,8.092857142857142L8.192857142857143,8.307142857142857L8.407142857142858,8.307142857142857L8.407142857142858,8.521428571428569L9.05,8.521428571428569L9.05,8.95L9.692857142857143,8.95L9.692857142857143,9.378571428571426L11.092857142857142,9.378571428571426L11.092857142857142,9.164285714285715L11.307142857142857,9.164285714285715L11.307142857142857,8.95L11.521428571428569,8.95L11.521428571428569,8.521428571428569L12.478571428571428,8.521428571428569L12.478571428571428,8.735714285714284L13.335714285714285,8.735714285714284L13.335714285714285,8.95L13.5,8.95L13.5,9.05L13.235714285714284,9.05L13.235714285714284,8.835714285714285L12.378571428571426,8.835714285714285L12.378571428571426,8.62142857142857L11.62142857142857,8.62142857142857L11.62142857142857,9.05L11.407142857142858,9.05L11.407142857142858,9.264285714285716L11.192857142857143,9.264285714285716L11.192857142857143,9.478571428571428L9.592857142857142,9.478571428571428L9.592857142857142,9.05L8.95,9.05L8.95,8.62142857142857L8.307142857142857,8.62142857142857L8.307142857142857,8.407142857142858L8.092857142857142,8.407142857142858L8.092857142857142,8.192857142857143L5.307142857142857,8.192857142857143L5.307142857142857,7.978571428571428L4.021428571428571,7.978571428571428L4.021428571428571,7.335714285714285L3.3785714285714286,7.335714285714285L3.3785714285714286,7.121428571428571L2.6214285714285714,7.121428571428571L2.6214285714285714,10.878571428571426L2.8357142857142854,10.878571428571426L2.8357142857142854,11.092857142857142L3.05,11.092857142857142z" stroke="none"/></svg>