<svg version="1.1" width="30" height="15" xmlns="http://www.w3.org/2000/svg"><path d="M5.0928571428571425,2.95L5.0928571428571425,2.8357142857142854L3.478571428571428,2.8357142857142854L3.478571428571428,3.05L3,3.05L3,2.95L3.3785714285714286,2.95L3.3785714285714286,2.7357142857142858L5.192857142857142,2.7357142857142858L5.192857142857142,2.95L6,2.95L6,3.05L4.5,3.05L4.5,2.95z" stroke="none"/><path d="M12.807142857142857,9.807142857142857L12.807142857142857,9.164285714285715L13.021428571428569,9.164285714285715L13.021428571428569,8.95L13.5,8.95L13.5,9.05L13.12142857142857,9.05L13.12142857142857,9.264285714285716L12.907142857142858,9.264285714285716L12.907142857142858,9.807142857142857L18.05,9.807142857142857L18.05,10.5L17.95,10.5L17.95,9.907142857142858L9.692857142857143,9.907142857142858L9.692857142857143,10.12142857142857L7.764285714285714,10.12142857142857L7.764285714285714,10.55L7.5,10.55L7.5,10.45L7.664285714285715,10.45L7.664285714285715,10.021428571428569L9.592857142857142,10.021428571428569L9.592857142857142,9.807142857142857z" stroke="none"/><path d="M23.52142857142857,7.45L23.52142857142857,7.235714285714286L23.95,7.235714285714286L23.95,6.807142857142857L24.378571428571426,6.807142857142857L24.378571428571426,6.5928571428571425L25.02142857142857,6.5928571428571425L25.02142857142857,5.95L25.664285714285715,5.95L25.664285714285715,5.735714285714286L25.878571428571426,5.735714285714286L25.878571428571426,5.307142857142857L26.09285714285714,5.307142857142857L26.09285714285714,5.0928571428571425L26.307142857142857,5.0928571428571425L26.307142857142857,4.878571428571429L26.52142857142857,4.878571428571429L26.52142857142857,4.45L27,4.45L27,4.55L26.62142857142857,4.55L26.62142857142857,4.978571428571429L26.40714285714286,4.978571428571429L26.40714285714286,5.192857142857142L26.192857142857143,5.192857142857142L26.192857142857143,5.407142857142857L25.978571428571428,5.407142857142857L25.978571428571428,5.835714285714285L25.764285714285716,5.835714285714285L25.764285714285716,6.05L25.12142857142857,6.05L25.12142857142857,6.692857142857142L24.478571428571428,6.692857142857142L24.478571428571428,6.907142857142857L24.05,6.907142857142857L24.05,7.335714285714285L23.62142857142857,7.335714285714285L23.62142857142857,7.55L23.40714285714286,7.55L23.40714285714286,8.62142857142857L23.192857142857143,8.62142857142857L23.192857142857143,8.835714285714285L22.978571428571428,8.835714285714285L22.978571428571428,9.05L22.5,9.05L22.5,8.95L22.878571428571426,8.95L22.878571428571426,8.735714285714284L23.09285714285714,8.735714285714284L23.09285714285714,8.521428571428569L23.307142857142857,8.521428571428569L23.307142857142857,7.55L22.978571428571428,7.55L22.978571428571428,7.978571428571428L22.764285714285716,7.978571428571428L22.764285714285716,8.407142857142858L22.121428571428574,8.407142857142858L22.121428571428574,8.62142857142857L21.478571428571428,8.62142857142857L21.478571428571428,8.835714285714285L21.05,8.835714285714285L21.05,9L20.95,9L20.95,8.735714285714284L21.378571428571426,8.735714285714284L21.378571428571426,8.521428571428569L22.021428571428572,8.521428571428569L22.021428571428572,8.307142857142857L22.664285714285715,8.307142857142857L22.664285714285715,7.878571428571428L22.878571428571426,7.878571428571428L22.878571428571426,7.45z" stroke="none"/><path d="M20.95,7.45L20.95,7.235714285714286L22.45,7.235714285714286L22.45,7.021428571428571L23.735714285714284,7.021428571428571L23.735714285714284,5.95L24,5.95L24,6.05L23.835714285714285,6.05L23.835714285714285,7.121428571428571L22.55,7.121428571428571L22.55,7.335714285714285L21.05,7.335714285714285L21.05,7.45L22.5,7.45L22.5,7.55L21.05,7.55L21.05,8.62142857142857L20.621428571428574,8.62142857142857L20.621428571428574,10.235714285714284L22.121428571428574,10.235714285714284L22.121428571428574,10.45L22.5,10.45L22.5,10.55L22.021428571428572,10.55L22.021428571428572,10.335714285714285L20.521428571428572,10.335714285714285L20.521428571428572,8.521428571428569L20.95,8.521428571428569L20.95,7.55L18.378571428571426,7.55L18.378571428571426,7.121428571428571L17.621428571428574,7.121428571428571L17.621428571428574,7.55L16.978571428571428,7.55L16.978571428571428,7.978571428571428L15.807142857142857,7.978571428571428L15.807142857142857,7.55L15.592857142857142,7.55L15.592857142857142,7.121428571428571L15.164285714285715,7.121428571428571L15.164285714285715,6.264285714285714L14.95,6.264285714285714L14.95,6L15.05,6L15.05,6.164285714285715L15.264285714285716,6.164285714285715L15.264285714285716,7.021428571428571L15.692857142857143,7.021428571428571L15.692857142857143,7.45L15.907142857142858,7.45L15.907142857142858,7.878571428571428L16.878571428571426,7.878571428571428L16.878571428571426,7.45L17.521428571428572,7.45L17.521428571428572,7.021428571428571L18.478571428571428,7.021428571428571L18.478571428571428,7.45z" stroke="none"/><path d="M19.664285714285715,9.807142857142857L19.664285714285715,8.62142857142857L19.021428571428572,8.62142857142857L19.021428571428572,8.192857142857143L18.59285714285714,8.192857142857143L18.59285714285714,7.764285714285714L18.164285714285715,7.764285714285714L18.164285714285715,7.55L18,7.55L18,7.45L18.264285714285716,7.45L18.264285714285716,7.664285714285715L18.692857142857143,7.664285714285715L18.692857142857143,8.092857142857142L19.121428571428574,8.092857142857142L19.121428571428574,8.521428571428569L19.764285714285716,8.521428571428569L19.764285714285716,9.807142857142857L20.192857142857143,9.807142857142857L20.192857142857143,10.021428571428569L20.40714285714286,10.021428571428569L20.40714285714286,10.45L21.90714285714286,10.45L21.90714285714286,10.878571428571426L24.164285714285715,10.878571428571426L24.164285714285715,10.235714285714284L24.59285714285714,10.235714285714284L24.59285714285714,9.592857142857142L24.807142857142857,9.592857142857142L24.807142857142857,9.164285714285715L25.02142857142857,9.164285714285715L25.02142857142857,8.95L25.5,8.95L25.5,9.05L25.12142857142857,9.05L25.12142857142857,9.264285714285716L24.90714285714286,9.264285714285716L24.90714285714286,9.692857142857143L24.692857142857143,9.692857142857143L24.692857142857143,10.335714285714285L24.264285714285716,10.335714285714285L24.264285714285716,10.978571428571428L21.807142857142857,10.978571428571428L21.807142857142857,10.55L20.307142857142857,10.55L20.307142857142857,10.12142857142857L20.09285714285714,10.12142857142857L20.09285714285714,9.907142857142858L19.764285714285716,9.907142857142858L19.764285714285716,10.021428571428569L19.978571428571428,10.021428571428569L19.978571428571428,11.407142857142858L19.764285714285716,11.407142857142858L19.764285714285716,11.62142857142857L19.55,11.62142857142857L19.55,12L19.45,12L19.45,11.521428571428569L19.664285714285715,11.521428571428569L19.664285714285715,11.307142857142857L19.878571428571426,11.307142857142857L19.878571428571426,10.12142857142857L19.664285714285715,10.12142857142857L19.664285714285715,9.907142857142858L19.121428571428574,9.907142857142858L19.121428571428574,10.12142857142857L18.90714285714286,10.12142857142857L18.90714285714286,10.335714285714285L18.692857142857143,10.335714285714285L18.692857142857143,10.978571428571428L17.192857142857143,10.978571428571428L17.192857142857143,11.192857142857143L16.978571428571428,11.192857142857143L16.978571428571428,11.835714285714285L16.55,11.835714285714285L16.55,12L16.45,12L16.45,11.735714285714284L16.878571428571426,11.735714285714284L16.878571428571426,11.092857142857142L17.09285714285714,11.092857142857142L17.09285714285714,10.878571428571426L18.59285714285714,10.878571428571426L18.59285714285714,10.235714285714284L18.807142857142857,10.235714285714284L18.807142857142857,10.021428571428569L19.021428571428572,10.021428571428569L19.021428571428572,9.807142857142857z" stroke="none"/><path d="M13.664285714285715,5.307142857142857L13.664285714285715,5.0928571428571425L14.95,5.0928571428571425L14.95,4.878571428571429L15.807142857142857,4.878571428571429L15.807142857142857,4.45L16.02142857142857,4.45L16.02142857142857,4.021428571428571L17.09285714285714,4.021428571428571L17.09285714285714,3.8071428571428574L17.307142857142857,3.8071428571428574L17.307142857142857,3.592857142857143L17.735714285714284,3.592857142857143L17.735714285714284,3.1642857142857146L17.95,3.1642857142857146L17.95,3L18.05,3L18.05,3.2642857142857142L17.835714285714285,3.2642857142857142L17.835714285714285,3.6928571428571426L17.40714285714286,3.6928571428571426L17.40714285714286,3.907142857142857L17.192857142857143,3.907142857142857L17.192857142857143,4.121428571428571L16.12142857142857,4.121428571428571L16.12142857142857,4.55L15.907142857142858,4.55L15.907142857142858,4.978571428571429L15.05,4.978571428571429L15.05,5.192857142857142L13.764285714285716,5.192857142857142L13.764285714285716,5.307142857142857L15.478571428571428,5.307142857142857L15.478571428571428,6.378571428571428L15.692857142857143,6.378571428571428L15.692857142857143,6.807142857142857L15.907142857142858,6.807142857142857L15.907142857142858,7.235714285714286L16.12142857142857,7.235714285714286L16.12142857142857,7.45L16.5,7.45L16.5,7.55L16.02142857142857,7.55L16.02142857142857,7.335714285714285L15.807142857142857,7.335714285714285L15.807142857142857,6.907142857142857L15.592857142857142,6.907142857142857L15.592857142857142,6.478571428571428L15.378571428571426,6.478571428571428L15.378571428571426,5.407142857142857L13.764285714285716,5.407142857142857L13.764285714285716,5.521428571428571L13.978571428571428,5.521428571428571L13.978571428571428,6.378571428571428L14.192857142857143,6.378571428571428L14.192857142857143,6.5928571428571425L14.62142857142857,6.5928571428571425L14.62142857142857,6.807142857142857L14.835714285714285,6.807142857142857L14.835714285714285,7.021428571428571L15.05,7.021428571428571L15.05,7.5L14.95,7.5L14.95,7.121428571428571L14.735714285714284,7.121428571428571L14.735714285714284,6.907142857142857L14.521428571428569,6.907142857142857L14.521428571428569,6.692857142857142L14.092857142857142,6.692857142857142L14.092857142857142,6.478571428571428L13.878571428571426,6.478571428571428L13.878571428571426,5.621428571428571L13.664285714285715,5.621428571428571L13.664285714285715,5.407142857142857L5.95,5.407142857142857L5.95,4.5L6.05,4.5L6.05,5.307142857142857z" stroke="none"/><path d="M13.45,6L13.55,6L13.55,7.5L13.45,7.5z" stroke="none"/><path d="M22.5,4.55L22.5,4.45L24,4.45L24,4.55z" stroke="none"/><path d="M9,5.95L9,6.05L5.95,6.05L5.95,5.835714285714285L5.735714285714286,5.835714285714285L5.735714285714286,5.407142857142857L5.521428571428571,5.407142857142857L5.521428571428571,4.021428571428571L9.907142857142858,4.021428571428571L9.907142857142858,4.235714285714286L10.12142857142857,4.235714285714286L10.12142857142857,4.45L10.5,4.45L10.5,4.55L10.021428571428569,4.55L10.021428571428569,4.335714285714285L9.807142857142857,4.335714285714285L9.807142857142857,4.121428571428571L5.621428571428571,4.121428571428571L5.621428571428571,5.307142857142857L5.835714285714285,5.307142857142857L5.835714285714285,5.735714285714286L6.05,5.735714285714286L6.05,5.95z" stroke="none"/><path d="M4.5,4.55L4.5,4.45L5.307142857142857,4.45L5.307142857142857,3.8071428571428574L10.978571428571428,3.8071428571428574L10.978571428571428,4.978571428571429L7.664285714285715,4.978571428571429L7.664285714285715,4.764285714285714L7.45,4.764285714285714L7.45,4.5L7.55,4.5L7.55,4.664285714285715L7.764285714285714,4.664285714285715L7.764285714285714,4.878571428571429L10.878571428571426,4.878571428571429L10.878571428571426,3.907142857142857L5.407142857142857,3.907142857142857L5.407142857142857,4.55z" stroke="none"/><path d="M10.5,8.95L10.5,9.05L9.592857142857142,9.05L9.592857142857142,8.835714285714285L9.378571428571426,8.835714285714285L9.378571428571426,8.62142857142857L8.62142857142857,8.62142857142857L8.62142857142857,8.835714285714285L8.407142857142858,8.835714285714285L8.407142857142858,9.05L7.5,9.05L7.5,8.95L8.307142857142857,8.95L8.307142857142857,8.735714285714284L8.521428571428569,8.735714285714284L8.521428571428569,8.521428571428569L9.478571428571428,8.521428571428569L9.478571428571428,8.735714285714284L9.692857142857143,8.735714285714284L9.692857142857143,8.95z" stroke="none"/><path d="M7.5,7.45L7.5,7.55L4.5,7.55L4.5,7.45z" stroke="none"/><path d="M22.5,6.05L22.5,5.95L23.307142857142857,5.95L23.307142857142857,5.521428571428571L23.95,5.521428571428571L23.95,5.307142857142857L24.807142857142857,5.307142857142857L24.807142857142857,5.0928571428571425L25.235714285714284,5.0928571428571425L25.235714285714284,4.45L25.664285714285715,4.45L25.664285714285715,4.235714285714286L26.52142857142857,4.235714285714286L26.52142857142857,4.021428571428571L27.478571428571428,4.021428571428571L27.478571428571428,4.978571428571429L27.264285714285716,4.978571428571429L27.264285714285716,5.407142857142857L27.05,5.407142857142857L27.05,5.835714285714285L26.835714285714285,5.835714285714285L26.835714285714285,6.05L26.40714285714286,6.05L26.40714285714286,6.264285714285714L26.192857142857143,6.264285714285714L26.192857142857143,6.478571428571428L25.978571428571428,6.478571428571428L25.978571428571428,7.335714285714285L25.764285714285716,7.335714285714285L25.764285714285716,7.55L25.5,7.55L25.5,7.45L25.664285714285715,7.45L25.664285714285715,7.235714285714286L25.878571428571426,7.235714285714286L25.878571428571426,6.378571428571428L26.09285714285714,6.378571428571428L26.09285714285714,6.164285714285715L26.307142857142857,6.164285714285715L26.307142857142857,5.95L26.735714285714284,5.95L26.735714285714284,5.735714285714286L26.95,5.735714285714286L26.95,5.307142857142857L27.164285714285715,5.307142857142857L27.164285714285715,4.878571428571429L27.378571428571426,4.878571428571429L27.378571428571426,4.121428571428571L26.62142857142857,4.121428571428571L26.62142857142857,4.335714285714285L25.764285714285716,4.335714285714285L25.764285714285716,4.55L25.335714285714285,4.55L25.335714285714285,5.192857142857142L24.90714285714286,5.192857142857142L24.90714285714286,5.407142857142857L24.05,5.407142857142857L24.05,5.621428571428571L23.40714285714286,5.621428571428571L23.40714285714286,6.05z" stroke="none"/><path d="M19.5,4.45L19.5,4.55L18.692857142857143,4.55L18.692857142857143,4.978571428571429L16.978571428571428,4.978571428571429L16.978571428571428,5.621428571428571L16.764285714285716,5.621428571428571L16.764285714285716,5.835714285714285L16.55,5.835714285714285L16.55,6L16.45,6L16.45,5.735714285714286L16.664285714285715,5.735714285714286L16.664285714285715,5.521428571428571L16.878571428571426,5.521428571428571L16.878571428571426,4.878571428571429L18.59285714285714,4.878571428571429L18.59285714285714,4.45z" stroke="none"/><path d="M6,10.55L6,10.45L6.378571428571428,10.45L6.378571428571428,10.235714285714284L7.021428571428571,10.235714285714284L7.021428571428571,10.021428571428569L7.235714285714286,10.021428571428569L7.235714285714286,9.807142857142857L7.878571428571428,9.807142857142857L7.878571428571428,9.592857142857142L8.307142857142857,9.592857142857142L8.307142857142857,9.378571428571426L8.95,9.378571428571426L8.95,9L9.05,9L9.05,9.478571428571428L8.407142857142858,9.478571428571428L8.407142857142858,9.692857142857143L7.978571428571428,9.692857142857143L7.978571428571428,9.907142857142858L7.335714285714285,9.907142857142858L7.335714285714285,10.12142857142857L7.121428571428571,10.12142857142857L7.121428571428571,10.335714285714285L6.478571428571428,10.335714285714285L6.478571428571428,10.55z" stroke="none"/><path d="M25.55,12L25.45,12L25.45,10.664285714285715L25.664285714285715,10.664285714285715L25.664285714285715,10.021428571428569L26.09285714285714,10.021428571428569L26.09285714285714,9.592857142857142L26.307142857142857,9.592857142857142L26.307142857142857,9.378571428571426L26.735714285714284,9.378571428571426L26.735714285714284,8.95L27,8.95L27,9.05L26.835714285714285,9.05L26.835714285714285,9.478571428571428L26.40714285714286,9.478571428571428L26.40714285714286,9.692857142857143L26.192857142857143,9.692857142857143L26.192857142857143,10.12142857142857L25.764285714285716,10.12142857142857L25.764285714285716,10.764285714285716L25.55,10.764285714285716z" stroke="none"/><path d="M19.5,2.95L19.5,3.05L18.59285714285714,3.05L18.59285714285714,2.8357142857142854L18.378571428571426,2.8357142857142854L18.378571428571426,2.6214285714285714L15.907142857142858,2.6214285714285714L15.907142857142858,2.8357142857142854L15.692857142857143,2.8357142857142854L15.692857142857143,3.05L15,3.05L15,2.95L15.592857142857142,2.95L15.592857142857142,2.7357142857142858L15.807142857142857,2.7357142857142858L15.807142857142857,2.521428571428572L18.478571428571428,2.521428571428572L18.478571428571428,2.7357142857142858L18.692857142857143,2.7357142857142858L18.692857142857143,2.95z" stroke="none"/><path d="M6,12.05L6,11.95L10.5,11.95L10.5,12.05z" stroke="none"/><path d="M10.5,7.45L10.5,7.55L10.235714285714284,7.55L10.235714285714284,7.121428571428571L6.378571428571428,7.121428571428571L6.378571428571428,6.907142857142857L5.95,6.907142857142857L5.95,6.692857142857142L5.735714285714286,6.692857142857142L5.735714285714286,6.478571428571428L5.307142857142857,6.478571428571428L5.307142857142857,6.05L5.0928571428571425,6.05L5.0928571428571425,5.621428571428571L4.878571428571429,5.621428571428571L4.878571428571429,5.192857142857142L4.021428571428571,5.192857142857142L4.021428571428571,4.021428571428571L5.0928571428571425,4.021428571428571L5.0928571428571425,3.592857142857143L11.735714285714284,3.592857142857143L11.735714285714284,3.3785714285714286L11.95,3.3785714285714286L11.95,3L12.05,3L12.05,3.478571428571428L11.835714285714285,3.478571428571428L11.835714285714285,3.6928571428571426L5.192857142857142,3.6928571428571426L5.192857142857142,4.121428571428571L4.121428571428571,4.121428571428571L4.121428571428571,5.0928571428571425L4.978571428571429,5.0928571428571425L4.978571428571429,5.521428571428571L5.192857142857142,5.521428571428571L5.192857142857142,5.95L5.407142857142857,5.95L5.407142857142857,6.378571428571428L5.835714285714285,6.378571428571428L5.835714285714285,6.5928571428571425L6.05,6.5928571428571425L6.05,6.807142857142857L6.478571428571428,6.807142857142857L6.478571428571428,7.021428571428571L10.335714285714285,7.021428571428571L10.335714285714285,7.45z" stroke="none"/><path d="M9,7.45L9,7.55L7.978571428571428,7.55L7.978571428571428,7.978571428571428L4.021428571428571,7.978571428571428L4.021428571428571,5.621428571428571L3.8071428571428574,5.621428571428571L3.8071428571428574,3.8071428571428574L4.664285714285715,3.8071428571428574L4.664285714285715,3.592857142857143L4.878571428571429,3.592857142857143L4.878571428571429,3.3785714285714286L10.235714285714284,3.3785714285714286L10.235714285714284,2.95L10.5,2.95L10.5,3.05L10.335714285714285,3.05L10.335714285714285,3.478571428571428L4.978571428571429,3.478571428571428L4.978571428571429,3.6928571428571426L4.764285714285714,3.6928571428571426L4.764285714285714,3.907142857142857L3.907142857142857,3.907142857142857L3.907142857142857,5.521428571428571L4.121428571428571,5.521428571428571L4.121428571428571,7.878571428571428L7.878571428571428,7.878571428571428L7.878571428571428,7.45z" stroke="none"/><path d="M21,6.05L21,5.95L21.164285714285715,5.95L21.164285714285715,5.735714285714286L21.378571428571426,5.735714285714286L21.378571428571426,5.0928571428571425L21.59285714285714,5.0928571428571425L21.59285714285714,4.878571428571429L22.021428571428572,4.878571428571429L22.021428571428572,4.021428571428571L24.59285714285714,4.021428571428571L24.59285714285714,3.592857142857143L24.807142857142857,3.592857142857143L24.807142857142857,3.3785714285714286L25.235714285714284,3.3785714285714286L25.235714285714284,3.1642857142857146L25.45,3.1642857142857146L25.45,3L25.55,3L25.55,3.2642857142857142L25.335714285714285,3.2642857142857142L25.335714285714285,3.478571428571428L24.90714285714286,3.478571428571428L24.90714285714286,3.6928571428571426L24.692857142857143,3.6928571428571426L24.692857142857143,4.121428571428571L22.121428571428574,4.121428571428571L22.121428571428574,4.978571428571429L21.692857142857143,4.978571428571429L21.692857142857143,5.192857142857142L21.478571428571428,5.192857142857142L21.478571428571428,5.835714285714285L21.264285714285716,5.835714285714285L21.264285714285716,6.05z" stroke="none"/><path d="M27,2.95L27,3.05L26.09285714285714,3.05L26.09285714285714,2.8357142857142854L25.878571428571426,2.8357142857142854L25.878571428571426,2.6214285714285714L21.90714285714286,2.6214285714285714L21.90714285714286,2.8357142857142854L21.692857142857143,2.8357142857142854L21.692857142857143,3.05L21,3.05L21,2.95L21.59285714285714,2.95L21.59285714285714,2.7357142857142858L21.807142857142857,2.7357142857142858L21.807142857142857,2.521428571428572L25.978571428571428,2.521428571428572L25.978571428571428,2.7357142857142858L26.192857142857143,2.7357142857142858L26.192857142857143,2.95z" stroke="none"/><path d="M18.05,4.5L17.95,4.5L17.95,4.235714285714286L19.021428571428572,4.235714285714286L19.021428571428572,3.592857142857143L19.235714285714284,3.592857142857143L19.235714285714284,3.3785714285714286L19.878571428571426,3.3785714285714286L19.878571428571426,2.6214285714285714L18.59285714285714,2.6214285714285714L18.59285714285714,2.407142857142857L15.692857142857143,2.407142857142857L15.692857142857143,2.6214285714285714L14.407142857142858,2.6214285714285714L14.407142857142858,2.8357142857142854L14.192857142857143,2.8357142857142854L14.192857142857143,3.05L13.12142857142857,3.05L13.12142857142857,3.478571428571428L12.264285714285716,3.478571428571428L12.264285714285716,4.335714285714285L12.05,4.335714285714285L12.05,4.5L11.95,4.5L11.95,4.235714285714286L12.164285714285715,4.235714285714286L12.164285714285715,3.3785714285714286L13.021428571428569,3.3785714285714286L13.021428571428569,2.95L14.092857142857142,2.95L14.092857142857142,2.7357142857142858L14.307142857142857,2.7357142857142858L14.307142857142857,2.521428571428572L15.592857142857142,2.521428571428572L15.592857142857142,2.3071428571428574L18.692857142857143,2.3071428571428574L18.692857142857143,2.521428571428572L19.978571428571428,2.521428571428572L19.978571428571428,3.478571428571428L19.335714285714285,3.478571428571428L19.335714285714285,3.6928571428571426L19.121428571428574,3.6928571428571426L19.121428571428574,4.335714285714285L18.05,4.335714285714285z" stroke="none"/><path d="M26.95,10.5L27.05,10.5L27.05,10.978571428571428L26.40714285714286,10.978571428571428L26.40714285714286,11.407142857142858L26.192857142857143,11.407142857142858L26.192857142857143,11.835714285714285L25.978571428571428,11.835714285714285L25.978571428571428,12.478571428571428L19.021428571428572,12.478571428571428L19.021428571428572,11.092857142857142L19.45,11.092857142857142L19.45,10.5L19.55,10.5L19.55,11.192857142857143L19.121428571428574,11.192857142857143L19.121428571428574,12.378571428571426L25.878571428571426,12.378571428571426L25.878571428571426,11.735714285714284L26.09285714285714,11.735714285714284L26.09285714285714,11.307142857142857L26.307142857142857,11.307142857142857L26.307142857142857,10.878571428571426L26.95,10.878571428571426z" stroke="none"/><path d="M3,12.05L3,11.95L5.307142857142857,11.95L5.307142857142857,11.735714285714284L5.521428571428571,11.735714285714284L5.521428571428571,11.521428571428569L8.092857142857142,11.521428571428569L8.092857142857142,11.307142857142857L8.307142857142857,11.307142857142857L8.307142857142857,11.092857142857142L9.164285714285715,11.092857142857142L9.164285714285715,10.878571428571426L9.378571428571426,10.878571428571426L9.378571428571426,10.664285714285715L10.021428571428569,10.664285714285715L10.021428571428569,10.45L10.5,10.45L10.5,10.55L10.12142857142857,10.55L10.12142857142857,10.764285714285716L9.478571428571428,10.764285714285716L9.478571428571428,10.978571428571428L9.264285714285716,10.978571428571428L9.264285714285716,11.192857142857143L8.407142857142858,11.192857142857143L8.407142857142858,11.407142857142858L8.192857142857143,11.407142857142858L8.192857142857143,11.62142857142857L5.621428571428571,11.62142857142857L5.621428571428571,11.835714285714285L5.407142857142857,11.835714285714285L5.407142857142857,12.05z" stroke="none"/><path d="M2.95,4.5L3.05,4.5L3.05,6.807142857142857L3.2642857142857142,6.807142857142857L3.2642857142857142,7.45L3.478571428571428,7.45L3.478571428571428,7.664285714285715L3.6928571428571426,7.664285714285715L3.6928571428571426,8.092857142857142L10.878571428571426,8.092857142857142L10.878571428571426,6.5928571428571425L11.092857142857142,6.5928571428571425L11.092857142857142,6.378571428571428L11.521428571428569,6.378571428571428L11.521428571428569,5.95L12,5.95L12,6.05L11.62142857142857,6.05L11.62142857142857,6.478571428571428L11.192857142857143,6.478571428571428L11.192857142857143,6.692857142857142L10.978571428571428,6.692857142857142L10.978571428571428,8.192857142857143L3.592857142857143,8.192857142857143L3.592857142857143,7.764285714285714L3.3785714285714286,7.764285714285714L3.3785714285714286,7.55L3.1642857142857146,7.55L3.1642857142857146,6.907142857142857L2.95,6.907142857142857z" stroke="none"/><path d="M13.5,11.95L13.5,12.05L12.692857142857143,12.05L12.692857142857143,12.264285714285716L11.192857142857143,12.264285714285716L11.192857142857143,12.478571428571428L2.521428571428572,12.478571428571428L2.521428571428572,11.521428571428569L3.1642857142857146,11.521428571428569L3.1642857142857146,10.664285714285715L3.3785714285714286,10.664285714285715L3.3785714285714286,9.807142857142857L3.592857142857143,9.807142857142857L3.592857142857143,9.164285714285715L4.021428571428571,9.164285714285715L4.021428571428571,8.95L4.5,8.95L4.5,9.05L4.121428571428571,9.05L4.121428571428571,9.264285714285716L3.6928571428571426,9.264285714285716L3.6928571428571426,9.907142857142858L3.478571428571428,9.907142857142858L3.478571428571428,10.764285714285716L3.2642857142857142,10.764285714285716L3.2642857142857142,11.62142857142857L2.6214285714285714,11.62142857142857L2.6214285714285714,12.378571428571426L11.092857142857142,12.378571428571426L11.092857142857142,12.164285714285715L12.592857142857142,12.164285714285715L12.592857142857142,11.95z" stroke="none"/><path d="M18,6.05L18,5.95L19.45,5.95L19.45,5.521428571428571L19.664285714285715,5.521428571428571L19.664285714285715,5.307142857142857L19.878571428571426,5.307142857142857L19.878571428571426,4.021428571428571L20.09285714285714,4.021428571428571L20.09285714285714,2.407142857142857L18.807142857142857,2.407142857142857L18.807142857142857,2.1928571428571426L4.335714285714285,2.1928571428571426L4.335714285714285,2.407142857142857L2.8357142857142854,2.407142857142857L2.8357142857142854,2.6214285714285714L2.6214285714285714,2.6214285714285714L2.6214285714285714,7.021428571428571L2.8357142857142854,7.021428571428571L2.8357142857142854,7.664285714285715L3.05,7.664285714285715L3.05,8.092857142857142L3.2642857142857142,8.092857142857142L3.2642857142857142,8.307142857142857L4.335714285714285,8.307142857142857L4.335714285714285,8.521428571428569L4.978571428571429,8.521428571428569L4.978571428571429,10.021428571428569L5.192857142857142,10.021428571428569L5.192857142857142,10.235714285714284L5.407142857142857,10.235714285714284L5.407142857142857,10.664285714285715L5.621428571428571,10.664285714285715L5.621428571428571,10.878571428571426L8.735714285714284,10.878571428571426L8.735714285714284,10.45L9,10.45L9,10.55L8.835714285714285,10.55L8.835714285714285,10.978571428571428L5.521428571428571,10.978571428571428L5.521428571428571,10.764285714285716L5.307142857142857,10.764285714285716L5.307142857142857,10.335714285714285L5.0928571428571425,10.335714285714285L5.0928571428571425,10.12142857142857L4.878571428571429,10.12142857142857L4.878571428571429,8.62142857142857L4.235714285714286,8.62142857142857L4.235714285714286,8.407142857142858L3.1642857142857146,8.407142857142858L3.1642857142857146,8.192857142857143L2.95,8.192857142857143L2.95,7.764285714285714L2.7357142857142858,7.764285714285714L2.7357142857142858,7.121428571428571L2.521428571428572,7.121428571428571L2.521428571428572,2.521428571428572L2.7357142857142858,2.521428571428572L2.7357142857142858,2.3071428571428574L4.235714285714286,2.3071428571428574L4.235714285714286,2.092857142857143L18.90714285714286,2.092857142857143L18.90714285714286,2.3071428571428574L20.192857142857143,2.3071428571428574L20.192857142857143,4.121428571428571L19.978571428571428,4.121428571428571L19.978571428571428,5.407142857142857L19.764285714285716,5.407142857142857L19.764285714285716,5.621428571428571L19.55,5.621428571428571L19.55,6.05z" stroke="none"/><path d="M27,11.95L27,12.05L26.62142857142857,12.05L26.62142857142857,12.264285714285716L26.40714285714286,12.264285714285716L26.40714285714286,12.692857142857143L16.235714285714284,12.692857142857143L16.235714285714284,12.478571428571428L16.02142857142857,12.478571428571428L16.02142857142857,10.664285714285715L16.45,10.664285714285715L16.45,10.5L16.55,10.5L16.55,10.764285714285716L16.12142857142857,10.764285714285716L16.12142857142857,12.378571428571426L16.335714285714285,12.378571428571426L16.335714285714285,12.592857142857142L26.307142857142857,12.592857142857142L26.307142857142857,12.164285714285715L26.52142857142857,12.164285714285715L26.52142857142857,11.95z" stroke="none"/><path d="M27.05,7.5L26.95,7.5L26.95,6.5928571428571425L27.164285714285715,6.5928571428571425L27.164285714285715,5.521428571428571L27.378571428571426,5.521428571428571L27.378571428571426,5.307142857142857L27.59285714285714,5.307142857142857L27.59285714285714,3.907142857142857L24.90714285714286,3.907142857142857L24.90714285714286,4.335714285714285L24.692857142857143,4.335714285714285L24.692857142857143,4.764285714285714L24.478571428571428,4.764285714285714L24.478571428571428,4.978571428571429L22.335714285714285,4.978571428571429L22.335714285714285,5.192857142857142L22.121428571428574,5.192857142857142L22.121428571428574,6.478571428571428L16.02142857142857,6.478571428571428L16.02142857142857,4.664285714285715L16.45,4.664285714285715L16.45,4.5L16.55,4.5L16.55,4.764285714285714L16.12142857142857,4.764285714285714L16.12142857142857,6.378571428571428L22.021428571428572,6.378571428571428L22.021428571428572,5.0928571428571425L22.235714285714284,5.0928571428571425L22.235714285714284,4.878571428571429L24.378571428571426,4.878571428571429L24.378571428571426,4.664285714285715L24.59285714285714,4.664285714285715L24.59285714285714,4.235714285714286L24.807142857142857,4.235714285714286L24.807142857142857,3.8071428571428574L27.692857142857143,3.8071428571428574L27.692857142857143,5.407142857142857L27.478571428571428,5.407142857142857L27.478571428571428,5.621428571428571L27.264285714285716,5.621428571428571L27.264285714285716,6.692857142857142L27.05,6.692857142857142z" stroke="none"/></svg>