<svg version="1.1" width="30" height="15" xmlns="http://www.w3.org/2000/svg"><path d="M18.378571428571426,2.8357142857142854L17.307142857142857,2.8357142857142854L17.307142857142857,2.6214285714285714L14.407142857142858,2.6214285714285714L14.407142857142858,2.8357142857142854L13.55,2.8357142857142854L13.55,3L13.45,3L13.45,2.7357142857142858L14.307142857142857,2.7357142857142858L14.307142857142857,2.521428571428572L17.40714285714286,2.521428571428572L17.40714285714286,2.7357142857142858L18.478571428571428,2.7357142857142858L18.478571428571428,3.8071428571428574L22.764285714285716,3.8071428571428574L22.764285714285716,4.021428571428571L22.978571428571428,4.021428571428571L22.978571428571428,4.45L24,4.45L24,4.55L22.878571428571426,4.55L22.878571428571426,4.121428571428571L22.664285714285715,4.121428571428571L22.664285714285715,3.907142857142857L18.478571428571428,3.907142857142857L18.478571428571428,4.335714285714285L18.264285714285716,4.335714285714285L18.264285714285716,4.55L18,4.55L18,4.45L18.164285714285715,4.45L18.164285714285715,4.235714285714286L18.378571428571426,4.235714285714286z" stroke="none"/><path d="M25.45,7.45L25.45,6.807142857142857L25.664285714285715,6.807142857142857L25.664285714285715,6.5928571428571425L25.878571428571426,6.5928571428571425L25.878571428571426,5.0928571428571425L26.52142857142857,5.0928571428571425L26.52142857142857,4.878571428571429L26.735714285714284,4.878571428571429L26.735714285714284,4.45L27,4.45L27,4.55L26.835714285714285,4.55L26.835714285714285,4.978571428571429L26.62142857142857,4.978571428571429L26.62142857142857,5.192857142857142L25.978571428571428,5.192857142857142L25.978571428571428,6.692857142857142L25.764285714285716,6.692857142857142L25.764285714285716,6.907142857142857L25.55,6.907142857142857L25.55,9L25.45,9L25.45,7.55L25.12142857142857,7.55L25.12142857142857,7.978571428571428L24.692857142857143,7.978571428571428L24.692857142857143,8.62142857142857L24.264285714285716,8.62142857142857L24.264285714285716,9.05L24,9.05L24,8.95L24.164285714285715,8.95L24.164285714285715,8.521428571428569L24.59285714285714,8.521428571428569L24.59285714285714,7.878571428571428L25.02142857142857,7.878571428571428L25.02142857142857,7.45z" stroke="none"/><path d="M15.378571428571426,5.307142857142857L15.378571428571426,5.0928571428571425L15.592857142857142,5.0928571428571425L15.592857142857142,4.664285714285715L15.807142857142857,4.664285714285715L15.807142857142857,4.45L16.02142857142857,4.45L16.02142857142857,3.1642857142857146L16.45,3.1642857142857146L16.45,3L16.55,3L16.55,3.2642857142857142L16.12142857142857,3.2642857142857142L16.12142857142857,4.55L15.907142857142858,4.55L15.907142857142858,4.764285714285714L15.692857142857143,4.764285714285714L15.692857142857143,5.192857142857142L15.478571428571428,5.192857142857142L15.478571428571428,5.407142857142857L13.55,5.407142857142857L13.55,5.521428571428571L16.764285714285716,5.521428571428571L16.764285714285716,5.735714285714286L16.978571428571428,5.735714285714286L16.978571428571428,5.95L18,5.95L18,6.05L16.878571428571426,6.05L16.878571428571426,5.835714285714285L16.664285714285715,5.835714285714285L16.664285714285715,5.621428571428571L13.45,5.621428571428571L13.45,5.407142857142857L12.478571428571428,5.407142857142857L12.478571428571428,5.621428571428571L9.264285714285716,5.621428571428571L9.264285714285716,5.835714285714285L8.192857142857143,5.835714285714285L8.192857142857143,6.05L7.978571428571428,6.05L7.978571428571428,6.478571428571428L6.692857142857142,6.478571428571428L6.692857142857142,6.692857142857142L6.05,6.692857142857142L6.05,7.5L5.95,7.5L5.95,6.5928571428571425L6.5928571428571425,6.5928571428571425L6.5928571428571425,6.378571428571428L7.878571428571428,6.378571428571428L7.878571428571428,5.95L8.092857142857142,5.95L8.092857142857142,5.735714285714286L9.164285714285715,5.735714285714286L9.164285714285715,5.521428571428571L12.378571428571426,5.521428571428571L12.378571428571426,5.307142857142857z" stroke="none"/><path d="M5.95,8.95L5.95,8.192857142857143L5.735714285714286,8.192857142857143L5.735714285714286,7.978571428571428L5.521428571428571,7.978571428571428L5.521428571428571,6.164285714285715L7.45,6.164285714285715L7.45,6L7.55,6L7.55,6.264285714285714L5.621428571428571,6.264285714285714L5.621428571428571,7.878571428571428L5.835714285714285,7.878571428571428L5.835714285714285,8.092857142857142L6.05,8.092857142857142L6.05,8.95L6.264285714285714,8.95L6.264285714285714,9.807142857142857L6.692857142857142,9.807142857142857L6.692857142857142,10.021428571428569L7.121428571428571,10.021428571428569L7.121428571428571,10.235714285714284L7.55,10.235714285714284L7.55,10.5L7.45,10.5L7.45,10.335714285714285L7.021428571428571,10.335714285714285L7.021428571428571,10.12142857142857L6.5928571428571425,10.12142857142857L6.5928571428571425,9.907142857142858L6.164285714285715,9.907142857142858L6.164285714285715,9.05L6.05,9.05L6.05,10.5L5.95,10.5L5.95,9.05L3,9.05L3,8.95z" stroke="none"/><path d="M22.664285714285715,6.807142857142857L22.664285714285715,6.5928571428571425L22.878571428571426,6.5928571428571425L22.878571428571426,5.307142857142857L24.59285714285714,5.307142857142857L24.59285714285714,4.878571428571429L24.807142857142857,4.878571428571429L24.807142857142857,4.45L25.02142857142857,4.45L25.02142857142857,4.235714285714286L25.664285714285715,4.235714285714286L25.664285714285715,4.021428571428571L27.478571428571428,4.021428571428571L27.478571428571428,5.835714285714285L27.264285714285716,5.835714285714285L27.264285714285716,6.05L27,6.05L27,5.95L27.164285714285715,5.95L27.164285714285715,5.735714285714286L27.378571428571426,5.735714285714286L27.378571428571426,4.121428571428571L25.764285714285716,4.121428571428571L25.764285714285716,4.335714285714285L25.12142857142857,4.335714285714285L25.12142857142857,4.55L24.90714285714286,4.55L24.90714285714286,4.978571428571429L24.692857142857143,4.978571428571429L24.692857142857143,5.407142857142857L22.978571428571428,5.407142857142857L22.978571428571428,6.692857142857142L22.764285714285716,6.692857142857142L22.764285714285716,6.807142857142857L23.52142857142857,6.807142857142857L23.52142857142857,6.378571428571428L24.164285714285715,6.378571428571428L24.164285714285715,5.95L24.807142857142857,5.95L24.807142857142857,5.735714285714286L25.02142857142857,5.735714285714286L25.02142857142857,5.0928571428571425L25.235714285714284,5.0928571428571425L25.235714285714284,4.45L25.5,4.45L25.5,4.55L25.335714285714285,4.55L25.335714285714285,5.192857142857142L25.12142857142857,5.192857142857142L25.12142857142857,5.835714285714285L24.90714285714286,5.835714285714285L24.90714285714286,6.05L24.264285714285716,6.05L24.264285714285716,6.478571428571428L23.62142857142857,6.478571428571428L23.62142857142857,6.907142857142857L22.764285714285716,6.907142857142857L22.764285714285716,7.021428571428571L22.978571428571428,7.021428571428571L22.978571428571428,8.407142857142858L22.764285714285716,8.407142857142858L22.764285714285716,8.62142857142857L22.55,8.62142857142857L22.55,9L22.45,9L22.45,8.521428571428569L22.664285714285715,8.521428571428569L22.664285714285715,8.307142857142857L22.878571428571426,8.307142857142857L22.878571428571426,7.121428571428571L22.664285714285715,7.121428571428571L22.664285714285715,6.907142857142857L21.264285714285716,6.907142857142857L21.264285714285716,7.121428571428571L20.40714285714286,7.121428571428571L20.40714285714286,7.335714285714285L19.764285714285716,7.335714285714285L19.764285714285716,7.764285714285714L19.55,7.764285714285714L19.55,7.978571428571428L18.264285714285716,7.978571428571428L18.264285714285716,8.192857142857143L17.40714285714286,8.192857142857143L17.40714285714286,8.407142857142858L16.764285714285716,8.407142857142858L16.764285714285716,9.05L16.5,9.05L16.5,8.95L16.664285714285715,8.95L16.664285714285715,8.307142857142857L17.307142857142857,8.307142857142857L17.307142857142857,8.092857142857142L18.164285714285715,8.092857142857142L18.164285714285715,7.878571428571428L19.45,7.878571428571428L19.45,7.664285714285715L19.664285714285715,7.664285714285715L19.664285714285715,7.235714285714286L20.307142857142857,7.235714285714286L20.307142857142857,7.021428571428571L21.164285714285715,7.021428571428571L21.164285714285715,6.807142857142857z" stroke="none"/><path d="M15.592857142857142,10.45L15.592857142857142,9.478571428571428L14.735714285714284,9.478571428571428L14.735714285714284,9.264285714285716L14.521428571428569,9.264285714285716L14.521428571428569,8.835714285714285L13.335714285714285,8.835714285714285L13.335714285714285,9.05L13.12142857142857,9.05L13.12142857142857,9.264285714285716L12.907142857142858,9.264285714285716L12.907142857142858,9.478571428571428L10.55,9.478571428571428L10.55,9.692857142857143L10.335714285714285,9.692857142857143L10.335714285714285,9.907142857142858L10.12142857142857,9.907142857142858L10.12142857142857,10.55L9.907142857142858,10.55L9.907142857142858,11.192857142857143L9.692857142857143,11.192857142857143L9.692857142857143,11.407142857142858L9.478571428571428,11.407142857142858L9.478571428571428,11.62142857142857L9.05,11.62142857142857L9.05,12L8.95,12L8.95,11.521428571428569L9.378571428571426,11.521428571428569L9.378571428571426,11.307142857142857L9.592857142857142,11.307142857142857L9.592857142857142,11.092857142857142L9.807142857142857,11.092857142857142L9.807142857142857,10.45L10.021428571428569,10.45L10.021428571428569,9.807142857142857L10.235714285714284,9.807142857142857L10.235714285714284,9.592857142857142L10.45,9.592857142857142L10.45,9.378571428571426L12.807142857142857,9.378571428571426L12.807142857142857,9.164285714285715L13.021428571428569,9.164285714285715L13.021428571428569,8.95L13.235714285714284,8.95L13.235714285714284,8.735714285714284L14.62142857142857,8.735714285714284L14.62142857142857,9.164285714285715L14.835714285714285,9.164285714285715L14.835714285714285,9.378571428571426L15.692857142857143,9.378571428571426L15.692857142857143,10.45L16.02142857142857,10.45L16.02142857142857,10.021428571428569L20.09285714285714,10.021428571428569L20.09285714285714,9.378571428571426L20.307142857142857,9.378571428571426L20.307142857142857,9.164285714285715L20.95,9.164285714285715L20.95,9L21.05,9L21.05,9.264285714285716L20.40714285714286,9.264285714285716L20.40714285714286,9.478571428571428L20.192857142857143,9.478571428571428L20.192857142857143,10.12142857142857L16.12142857142857,10.12142857142857L16.12142857142857,10.55L15.692857142857143,10.55L15.692857142857143,10.664285714285715L16.12142857142857,10.664285714285715L16.12142857142857,10.878571428571426L16.55,10.878571428571426L16.55,11.092857142857142L16.764285714285716,11.092857142857142L16.764285714285716,11.307142857142857L16.978571428571428,11.307142857142857L16.978571428571428,11.735714285714284L17.192857142857143,11.735714285714284L17.192857142857143,11.95L18,11.95L18,12.05L17.09285714285714,12.05L17.09285714285714,11.835714285714285L16.878571428571426,11.835714285714285L16.878571428571426,11.407142857142858L16.664285714285715,11.407142857142858L16.664285714285715,11.192857142857143L16.45,11.192857142857143L16.45,10.978571428571428L16.02142857142857,10.978571428571428L16.02142857142857,10.764285714285716L15.592857142857142,10.764285714285716L15.592857142857142,10.55L15.378571428571426,10.55L15.378571428571426,10.12142857142857L13.664285714285715,10.12142857142857L13.664285714285715,9.264285714285716L13.45,9.264285714285716L13.45,9L13.55,9L13.55,9.164285714285715L13.764285714285716,9.164285714285715L13.764285714285716,10.021428571428569L15.478571428571428,10.021428571428569L15.478571428571428,10.45z" stroke="none"/><path d="M22.5,4.45L22.5,4.55L19.5,4.55L19.5,4.45z" stroke="none"/><path d="M24,10.45L24,10.55L21,10.55L21,10.45z" stroke="none"/><path d="M10.45,10.5L10.55,10.5L10.55,11.62142857142857L9.692857142857143,11.62142857142857L9.692857142857143,11.835714285714285L9.478571428571428,11.835714285714285L9.478571428571428,12.478571428571428L8.521428571428569,12.478571428571428L8.521428571428569,7.45L9,7.45L9,7.55L8.62142857142857,7.55L8.62142857142857,12.378571428571426L9.378571428571426,12.378571428571426L9.378571428571426,11.735714285714284L9.592857142857142,11.735714285714284L9.592857142857142,11.521428571428569L10.45,11.521428571428569z" stroke="none"/><path d="M7.5,2.95L7.5,3.05L7.335714285714285,3.05L7.335714285714285,3.2642857142857142L6.907142857142857,3.2642857142857142L6.907142857142857,3.6928571428571426L6.478571428571428,3.6928571428571426L6.478571428571428,3.907142857142857L6.264285714285714,3.907142857142857L6.264285714285714,4.335714285714285L4.764285714285714,4.335714285714285L4.764285714285714,4.55L4.5,4.55L4.5,4.45L4.664285714285715,4.45L4.664285714285715,4.235714285714286L6.164285714285715,4.235714285714286L6.164285714285715,3.8071428571428574L6.378571428571428,3.8071428571428574L6.378571428571428,3.592857142857143L6.807142857142857,3.592857142857143L6.807142857142857,3.1642857142857146L7.235714285714286,3.1642857142857146L7.235714285714286,2.95z" stroke="none"/><path d="M4.5,7.45L4.5,7.55L3.05,7.55L3.05,8.192857142857143L2.6214285714285714,8.192857142857143L2.6214285714285714,9.378571428571426L3.05,9.378571428571426L3.05,9.592857142857142L3.478571428571428,9.592857142857142L3.478571428571428,9.807142857142857L3.6928571428571426,9.807142857142857L3.6928571428571426,10.021428571428569L4.55,10.021428571428569L4.55,10.45L4.764285714285714,10.45L4.764285714285714,10.664285714285715L4.978571428571429,10.664285714285715L4.978571428571429,10.878571428571426L7.878571428571428,10.878571428571426L7.878571428571428,9.478571428571428L7.664285714285715,9.478571428571428L7.664285714285715,9.264285714285716L7.45,9.264285714285716L7.45,9L7.55,9L7.55,9.164285714285715L7.764285714285714,9.164285714285715L7.764285714285714,9.378571428571426L7.978571428571428,9.378571428571426L7.978571428571428,10.978571428571428L4.878571428571429,10.978571428571428L4.878571428571429,10.764285714285716L4.664285714285715,10.764285714285716L4.664285714285715,10.55L4.45,10.55L4.45,10.12142857142857L3.592857142857143,10.12142857142857L3.592857142857143,9.907142857142858L3.3785714285714286,9.907142857142858L3.3785714285714286,9.692857142857143L2.95,9.692857142857143L2.95,9.478571428571428L2.521428571428572,9.478571428571428L2.521428571428572,8.092857142857142L2.95,8.092857142857142L2.95,7.45z" stroke="none"/><path d="M22.45,7.5L22.55,7.5L22.55,7.978571428571428L22.335714285714285,7.978571428571428L22.335714285714285,8.192857142857143L22.121428571428574,8.192857142857143L22.121428571428574,9.378571428571426L23.307142857142857,9.378571428571426L23.307142857142857,8.735714285714284L23.52142857142857,8.735714285714284L23.52142857142857,8.307142857142857L24.164285714285715,8.307142857142857L24.164285714285715,7.664285714285715L24.59285714285714,7.664285714285715L24.59285714285714,7.235714285714286L24.807142857142857,7.235714285714286L24.807142857142857,6.378571428571428L25.235714285714284,6.378571428571428L25.235714285714284,5.95L25.5,5.95L25.5,6.05L25.335714285714285,6.05L25.335714285714285,6.478571428571428L24.90714285714286,6.478571428571428L24.90714285714286,7.335714285714285L24.692857142857143,7.335714285714285L24.692857142857143,7.764285714285714L24.264285714285716,7.764285714285714L24.264285714285716,8.407142857142858L23.62142857142857,8.407142857142858L23.62142857142857,8.835714285714285L23.40714285714286,8.835714285714285L23.40714285714286,9.478571428571428L22.021428571428572,9.478571428571428L22.021428571428572,8.092857142857142L22.235714285714284,8.092857142857142L22.235714285714284,7.878571428571428L22.45,7.878571428571428z" stroke="none"/><path d="M21.05,12L20.95,12L20.95,11.407142857142858L20.521428571428572,11.407142857142858L20.521428571428572,9.807142857142857L20.735714285714284,9.807142857142857L20.735714285714284,9.592857142857142L20.95,9.592857142857142L20.95,9.378571428571426L21.378571428571426,9.378571428571426L21.378571428571426,8.62142857142857L19.335714285714285,8.62142857142857L19.335714285714285,8.835714285714285L18.90714285714286,8.835714285714285L18.90714285714286,9.05L18,9.05L18,8.95L18.807142857142857,8.95L18.807142857142857,8.735714285714284L19.235714285714284,8.735714285714284L19.235714285714284,8.521428571428569L21.478571428571428,8.521428571428569L21.478571428571428,9.478571428571428L21.05,9.478571428571428L21.05,9.692857142857143L20.835714285714285,9.692857142857143L20.835714285714285,9.907142857142858L20.621428571428574,9.907142857142858L20.621428571428574,11.307142857142857L21.05,11.307142857142857z" stroke="none"/><path d="M22.5,12.05L22.5,11.95L25.02142857142857,11.95L25.02142857142857,11.521428571428569L27.05,11.521428571428569L27.05,12L26.95,12L26.95,11.62142857142857L25.12142857142857,11.62142857142857L25.12142857142857,12.05z" stroke="none"/><path d="M16.5,4.55L16.5,4.45L17.40714285714286,4.45L17.40714285714286,4.664285714285715L17.621428571428574,4.664285714285715L17.621428571428574,4.878571428571429L18.05,4.878571428571429L18.05,5.0928571428571425L18.264285714285716,5.0928571428571425L18.264285714285716,5.307142857142857L18.478571428571428,5.307142857142857L18.478571428571428,6.478571428571428L11.95,6.478571428571428L11.95,6L12.05,6L12.05,6.378571428571428L18.378571428571426,6.378571428571428L18.378571428571426,5.407142857142857L18.164285714285715,5.407142857142857L18.164285714285715,5.192857142857142L17.95,5.192857142857142L17.95,4.978571428571429L17.521428571428572,4.978571428571429L17.521428571428572,4.764285714285714L17.307142857142857,4.764285714285714L17.307142857142857,4.55z" stroke="none"/><path d="M4.5,12.05L4.5,11.95L6.5928571428571425,11.95L6.5928571428571425,11.735714285714284L7.235714285714286,11.735714285714284L7.235714285714286,11.307142857142857L7.878571428571428,11.307142857142857L7.878571428571428,11.092857142857142L8.092857142857142,11.092857142857142L8.092857142857142,7.021428571428571L9.478571428571428,7.021428571428571L9.478571428571428,8.835714285714285L9.05,8.835714285714285L9.05,9L8.95,9L8.95,8.735714285714284L9.378571428571426,8.735714285714284L9.378571428571426,7.121428571428571L8.192857142857143,7.121428571428571L8.192857142857143,11.192857142857143L7.978571428571428,11.192857142857143L7.978571428571428,11.407142857142858L7.335714285714285,11.407142857142858L7.335714285714285,11.835714285714285L6.692857142857142,11.835714285714285L6.692857142857142,12.05z" stroke="none"/><path d="M19.5,3.05L19.5,2.95L25.5,2.95L25.5,3.05z" stroke="none"/><path d="M15,4.45L15,4.55L11.407142857142858,4.55L11.407142857142858,4.764285714285714L10.978571428571428,4.764285714285714L10.978571428571428,4.978571428571429L10.021428571428569,4.978571428571429L10.021428571428569,4.764285714285714L8.95,4.764285714285714L8.95,4.5L9.05,4.5L9.05,4.664285714285715L10.12142857142857,4.664285714285715L10.12142857142857,4.878571428571429L10.878571428571426,4.878571428571429L10.878571428571426,4.664285714285715L11.307142857142857,4.664285714285715L11.307142857142857,4.45z" stroke="none"/><path d="M18,7.45L18,7.55L17.621428571428574,7.55L17.621428571428574,7.764285714285714L16.978571428571428,7.764285714285714L16.978571428571428,7.978571428571428L12.692857142857143,7.978571428571428L12.692857142857143,8.62142857142857L12.478571428571428,8.62142857142857L12.478571428571428,8.835714285714285L12.264285714285716,8.835714285714285L12.264285714285716,9.05L12,9.05L12,8.95L12.164285714285715,8.95L12.164285714285715,8.735714285714284L12.378571428571426,8.735714285714284L12.378571428571426,8.521428571428569L12.592857142857142,8.521428571428569L12.592857142857142,7.878571428571428L16.878571428571426,7.878571428571428L16.878571428571426,7.664285714285715L17.521428571428572,7.664285714285715L17.521428571428572,7.45z" stroke="none"/><path d="M19.5,10.55L19.5,10.45L19.764285714285716,10.45L19.764285714285716,10.878571428571426L19.978571428571428,10.878571428571426L19.978571428571428,11.307142857142857L20.192857142857143,11.307142857142857L20.192857142857143,11.521428571428569L20.40714285714286,11.521428571428569L20.40714285714286,11.735714285714284L20.621428571428574,11.735714285714284L20.621428571428574,12.378571428571426L24.807142857142857,12.378571428571426L24.807142857142857,12.164285714285715L25.45,12.164285714285715L25.45,12L25.55,12L25.55,12.264285714285716L24.90714285714286,12.264285714285716L24.90714285714286,12.478571428571428L20.521428571428572,12.478571428571428L20.521428571428572,11.835714285714285L20.307142857142857,11.835714285714285L20.307142857142857,11.62142857142857L20.09285714285714,11.62142857142857L20.09285714285714,11.407142857142858L19.878571428571426,11.407142857142858L19.878571428571426,10.978571428571428L19.664285714285715,10.978571428571428L19.664285714285715,10.55z" stroke="none"/><path d="M10.5,2.95L10.5,3.05L7.878571428571428,3.05L7.878571428571428,2.6214285714285714L3.6928571428571426,2.6214285714285714L3.6928571428571426,2.8357142857142854L3.2642857142857142,2.8357142857142854L3.2642857142857142,3.05L3,3.05L3,2.95L3.1642857142857146,2.95L3.1642857142857146,2.7357142857142858L3.592857142857143,2.7357142857142858L3.592857142857143,2.521428571428572L7.978571428571428,2.521428571428572L7.978571428571428,2.95z" stroke="none"/><path d="M10.5,11.95L10.5,12.05L10.12142857142857,12.05L10.12142857142857,12.264285714285716L9.907142857142858,12.264285714285716L9.907142857142858,12.478571428571428L9.692857142857143,12.478571428571428L9.692857142857143,12.692857142857143L4.235714285714286,12.692857142857143L4.235714285714286,12.478571428571428L4.021428571428571,12.478571428571428L4.021428571428571,11.407142857142858L3.592857142857143,11.407142857142858L3.592857142857143,11.192857142857143L3.3785714285714286,11.192857142857143L3.3785714285714286,10.55L3,10.55L3,10.45L3.478571428571428,10.45L3.478571428571428,11.092857142857142L3.6928571428571426,11.092857142857142L3.6928571428571426,11.307142857142857L4.121428571428571,11.307142857142857L4.121428571428571,12.378571428571426L4.335714285714285,12.378571428571426L4.335714285714285,12.592857142857142L9.592857142857142,12.592857142857142L9.592857142857142,12.378571428571426L9.807142857142857,12.378571428571426L9.807142857142857,12.164285714285715L10.021428571428569,12.164285714285715L10.021428571428569,11.95z" stroke="none"/><path d="M19.45,12L19.55,12L19.55,12.164285714285715L19.978571428571428,12.164285714285715L19.978571428571428,12.378571428571426L20.192857142857143,12.378571428571426L20.192857142857143,12.592857142857142L27.378571428571426,12.592857142857142L27.378571428571426,11.192857142857143L27.164285714285715,11.192857142857143L27.164285714285715,10.55L27,10.55L27,10.45L27.264285714285716,10.45L27.264285714285716,11.092857142857142L27.478571428571428,11.092857142857142L27.478571428571428,12.692857142857143L20.09285714285714,12.692857142857143L20.09285714285714,12.478571428571428L19.878571428571426,12.478571428571428L19.878571428571426,12.264285714285716L19.45,12.264285714285716z" stroke="none"/><path d="M16.5,7.45L16.5,7.55L11.192857142857143,7.55L11.192857142857143,7.978571428571428L10.55,7.978571428571428L10.55,8.62142857142857L10.335714285714285,8.62142857142857L10.335714285714285,9.264285714285716L9.907142857142858,9.264285714285716L9.907142857142858,10.335714285714285L9.264285714285716,10.335714285714285L9.264285714285716,10.55L9,10.55L9,10.45L9.164285714285715,10.45L9.164285714285715,10.235714285714284L9.807142857142857,10.235714285714284L9.807142857142857,9.164285714285715L10.235714285714284,9.164285714285715L10.235714285714284,8.521428571428569L10.45,8.521428571428569L10.45,7.878571428571428L11.092857142857142,7.878571428571428L11.092857142857142,7.45z" stroke="none"/><path d="M12,11.95L12,12.05L11.62142857142857,12.05L11.62142857142857,12.264285714285716L10.978571428571428,12.264285714285716L10.978571428571428,12.478571428571428L10.12142857142857,12.478571428571428L10.12142857142857,12.692857142857143L9.907142857142858,12.692857142857143L9.907142857142858,12.907142857142858L4.021428571428571,12.907142857142858L4.021428571428571,12.692857142857143L3.592857142857143,12.692857142857143L3.592857142857143,12.264285714285716L3.1642857142857146,12.264285714285716L3.1642857142857146,12.05L3,12.05L3,11.95L3.2642857142857142,11.95L3.2642857142857142,12.164285714285715L3.6928571428571426,12.164285714285715L3.6928571428571426,12.592857142857142L4.121428571428571,12.592857142857142L4.121428571428571,12.807142857142857L9.807142857142857,12.807142857142857L9.807142857142857,12.592857142857142L10.021428571428569,12.592857142857142L10.021428571428569,12.378571428571426L10.878571428571426,12.378571428571426L10.878571428571426,12.164285714285715L11.521428571428569,12.164285714285715L11.521428571428569,11.95z" stroke="none"/><path d="M19.5,5.95L19.5,6.05L19.335714285714285,6.05L19.335714285714285,6.478571428571428L18.692857142857143,6.478571428571428L18.692857142857143,6.692857142857142L12.264285714285716,6.692857142857142L12.264285714285716,7.121428571428571L11.192857142857143,7.121428571428571L11.192857142857143,7.335714285714285L10.764285714285716,7.335714285714285L10.764285714285716,7.55L10.5,7.55L10.5,7.45L10.664285714285715,7.45L10.664285714285715,7.235714285714286L11.092857142857142,7.235714285714286L11.092857142857142,7.021428571428571L12.164285714285715,7.021428571428571L12.164285714285715,6.5928571428571425L18.59285714285714,6.5928571428571425L18.59285714285714,6.378571428571428L19.235714285714284,6.378571428571428L19.235714285714284,5.95z" stroke="none"/><path d="M16.5,10.55L16.5,10.45L18.05,10.45L18.05,11.092857142857142L18.264285714285716,11.092857142857142L18.264285714285716,11.521428571428569L18.478571428571428,11.521428571428569L18.478571428571428,11.735714285714284L18.90714285714286,11.735714285714284L18.90714285714286,11.95L19.121428571428574,11.95L19.121428571428574,12.378571428571426L19.764285714285716,12.378571428571426L19.764285714285716,12.592857142857142L19.978571428571428,12.592857142857142L19.978571428571428,12.807142857142857L27.59285714285714,12.807142857142857L27.59285714285714,9.264285714285716L27.378571428571426,9.264285714285716L27.378571428571426,9.05L27,9.05L27,8.95L27.478571428571428,8.95L27.478571428571428,9.164285714285715L27.692857142857143,9.164285714285715L27.692857142857143,12.907142857142858L19.878571428571426,12.907142857142858L19.878571428571426,12.692857142857143L19.664285714285715,12.692857142857143L19.664285714285715,12.478571428571428L19.021428571428572,12.478571428571428L19.021428571428572,12.05L18.807142857142857,12.05L18.807142857142857,11.835714285714285L18.378571428571426,11.835714285714285L18.378571428571426,11.62142857142857L18.164285714285715,11.62142857142857L18.164285714285715,11.192857142857143L17.95,11.192857142857143L17.95,10.55z" stroke="none"/><path d="M14.95,10.5L15.05,10.5L15.05,11.407142857142858L14.835714285714285,11.407142857142858L14.835714285714285,11.62142857142857L13.12142857142857,11.62142857142857L13.12142857142857,11.835714285714285L12.907142857142858,11.835714285714285L12.907142857142858,12.264285714285716L12.478571428571428,12.264285714285716L12.478571428571428,12.478571428571428L11.407142857142858,12.478571428571428L11.407142857142858,12.692857142857143L10.55,12.692857142857143L10.55,12.907142857142858L10.12142857142857,12.907142857142858L10.12142857142857,13.12142857142857L3.8071428571428574,13.12142857142857L3.8071428571428574,12.907142857142858L3.3785714285714286,12.907142857142858L3.3785714285714286,12.478571428571428L2.521428571428572,12.478571428571428L2.521428571428572,9.907142857142858L2.3071428571428574,9.907142857142858L2.3071428571428574,7.664285714285715L2.7357142857142858,7.664285714285715L2.7357142857142858,7.235714285714286L3.1642857142857146,7.235714285714286L3.1642857142857146,7.021428571428571L3.3785714285714286,7.021428571428571L3.3785714285714286,6.807142857142857L3.8071428571428574,6.807142857142857L3.8071428571428574,6.5928571428571425L4.021428571428571,6.5928571428571425L4.021428571428571,5.95L4.5,5.95L4.5,6.05L4.121428571428571,6.05L4.121428571428571,6.692857142857142L3.907142857142857,6.692857142857142L3.907142857142857,6.907142857142857L3.478571428571428,6.907142857142857L3.478571428571428,7.121428571428571L3.2642857142857142,7.121428571428571L3.2642857142857142,7.335714285714285L2.8357142857142854,7.335714285714285L2.8357142857142854,7.764285714285714L2.407142857142857,7.764285714285714L2.407142857142857,9.807142857142857L2.6214285714285714,9.807142857142857L2.6214285714285714,12.378571428571426L3.478571428571428,12.378571428571426L3.478571428571428,12.807142857142857L3.907142857142857,12.807142857142857L3.907142857142857,13.021428571428569L10.021428571428569,13.021428571428569L10.021428571428569,12.807142857142857L10.45,12.807142857142857L10.45,12.592857142857142L11.307142857142857,12.592857142857142L11.307142857142857,12.378571428571426L12.378571428571426,12.378571428571426L12.378571428571426,12.164285714285715L12.807142857142857,12.164285714285715L12.807142857142857,11.735714285714284L13.021428571428569,11.735714285714284L13.021428571428569,11.521428571428569L14.735714285714284,11.521428571428569L14.735714285714284,11.307142857142857L14.95,11.307142857142857z" stroke="none"/><path d="M25.55,10.5L25.45,10.5L25.45,9.592857142857142L25.664285714285715,9.592857142857142L25.664285714285715,9.378571428571426L25.878571428571426,9.378571428571426L25.878571428571426,8.95L26.52142857142857,8.95L26.52142857142857,8.521428571428569L27.692857142857143,8.521428571428569L27.692857142857143,8.95L27.90714285714286,8.95L27.90714285714286,13.12142857142857L17.95,13.12142857142857L17.95,12.907142857142858L14.307142857142857,12.907142857142858L14.307142857142857,12.478571428571428L13.664285714285715,12.478571428571428L13.664285714285715,12.05L13.5,12.05L13.5,11.95L13.764285714285716,11.95L13.764285714285716,12.378571428571426L14.407142857142858,12.378571428571426L14.407142857142858,12.807142857142857L18.05,12.807142857142857L18.05,13.021428571428569L27.807142857142857,13.021428571428569L27.807142857142857,9.05L27.59285714285714,9.05L27.59285714285714,8.62142857142857L26.62142857142857,8.62142857142857L26.62142857142857,9.05L25.978571428571428,9.05L25.978571428571428,9.478571428571428L25.764285714285716,9.478571428571428L25.764285714285716,9.692857142857143L25.55,9.692857142857143z" stroke="none"/><path d="M22.55,6L22.45,6L22.45,5.735714285714286L22.664285714285715,5.735714285714286L22.664285714285715,5.0928571428571425L23.735714285714284,5.0928571428571425L23.735714285714284,4.878571428571429L24.378571428571426,4.878571428571429L24.378571428571426,4.121428571428571L23.52142857142857,4.121428571428571L23.52142857142857,3.907142857142857L22.878571428571426,3.907142857142857L22.878571428571426,3.6928571428571426L19.235714285714284,3.6928571428571426L19.235714285714284,3.478571428571428L19.021428571428572,3.478571428571428L19.021428571428572,3.2642857142857142L18.807142857142857,3.2642857142857142L18.807142857142857,2.6214285714285714L17.521428571428572,2.6214285714285714L17.521428571428572,2.407142857142857L13.12142857142857,2.407142857142857L13.12142857142857,2.8357142857142854L11.62142857142857,2.8357142857142854L11.62142857142857,3.2642857142857142L11.192857142857143,3.2642857142857142L11.192857142857143,3.907142857142857L10.978571428571428,3.907142857142857L10.978571428571428,4.121428571428571L10.764285714285716,4.121428571428571L10.764285714285716,4.55L10.5,4.55L10.5,4.45L10.664285714285715,4.45L10.664285714285715,4.021428571428571L10.878571428571426,4.021428571428571L10.878571428571426,3.8071428571428574L11.092857142857142,3.8071428571428574L11.092857142857142,3.1642857142857146L11.521428571428569,3.1642857142857146L11.521428571428569,2.7357142857142858L13.021428571428569,2.7357142857142858L13.021428571428569,2.3071428571428574L17.621428571428574,2.3071428571428574L17.621428571428574,2.521428571428572L18.90714285714286,2.521428571428572L18.90714285714286,3.1642857142857146L19.121428571428574,3.1642857142857146L19.121428571428574,3.3785714285714286L19.335714285714285,3.3785714285714286L19.335714285714285,3.592857142857143L22.978571428571428,3.592857142857143L22.978571428571428,3.8071428571428574L23.62142857142857,3.8071428571428574L23.62142857142857,4.021428571428571L24.478571428571428,4.021428571428571L24.478571428571428,4.978571428571429L23.835714285714285,4.978571428571429L23.835714285714285,5.192857142857142L22.764285714285716,5.192857142857142L22.764285714285716,5.835714285714285L22.55,5.835714285714285z" stroke="none"/></svg>