<svg version="1.1" width="30" height="15" xmlns="http://www.w3.org/2000/svg"><path d="M24.378571428571426,6.807142857142857L24.378571428571426,6.5928571428571425L25.02142857142857,6.5928571428571425L25.02142857142857,6.164285714285715L25.235714285714284,6.164285714285715L25.235714285714284,5.95L25.5,5.95L25.5,6.05L25.335714285714285,6.05L25.335714285714285,6.264285714285714L25.12142857142857,6.264285714285714L25.12142857142857,6.692857142857142L24.478571428571428,6.692857142857142L24.478571428571428,6.807142857142857L24.90714285714286,6.807142857142857L24.90714285714286,7.235714285714286L25.335714285714285,7.235714285714286L25.335714285714285,7.45L25.5,7.45L25.5,7.55L25.235714285714284,7.55L25.235714285714284,7.335714285714285L24.807142857142857,7.335714285714285L24.807142857142857,6.907142857142857L24.05,6.907142857142857L24.05,7.121428571428571L23.192857142857143,7.121428571428571L23.192857142857143,7.55L22.5,7.55L22.5,7.45L23.09285714285714,7.45L23.09285714285714,7.021428571428571L23.95,7.021428571428571L23.95,6.807142857142857z" stroke="none"/><path d="M17.307142857142857,9.378571428571426L17.307142857142857,8.092857142857142L17.95,8.092857142857142L17.95,7.5L18.05,7.5L18.05,8.192857142857143L17.40714285714286,8.192857142857143L17.40714285714286,9.378571428571426L20.09285714285714,9.378571428571426L20.09285714285714,9.164285714285715L20.521428571428572,9.164285714285715L20.521428571428572,8.95L21,8.95L21,9.05L20.621428571428574,9.05L20.621428571428574,9.264285714285716L20.192857142857143,9.264285714285716L20.192857142857143,9.478571428571428L15.692857142857143,9.478571428571428L15.692857142857143,9.692857142857143L15.05,9.692857142857143L15.05,10.55L14.835714285714285,10.55L14.835714285714285,10.764285714285716L14.62142857142857,10.764285714285716L14.62142857142857,10.978571428571428L13.978571428571428,10.978571428571428L13.978571428571428,11.407142857142858L13.764285714285716,11.407142857142858L13.764285714285716,12.05L13.5,12.05L13.5,11.95L13.664285714285715,11.95L13.664285714285715,11.307142857142857L13.878571428571426,11.307142857142857L13.878571428571426,10.878571428571426L14.521428571428569,10.878571428571426L14.521428571428569,10.664285714285715L14.735714285714284,10.664285714285715L14.735714285714284,10.45L14.95,10.45L14.95,9.592857142857142L15.592857142857142,9.592857142857142L15.592857142857142,9.378571428571426z" stroke="none"/><path d="M9.807142857142857,6.807142857142857L9.807142857142857,5.0928571428571425L10.021428571428569,5.0928571428571425L10.021428571428569,4.45L10.5,4.45L10.5,4.55L10.12142857142857,4.55L10.12142857142857,5.192857142857142L9.907142857142858,5.192857142857142L9.907142857142858,6.807142857142857L11.835714285714285,6.807142857142857L11.835714285714285,7.235714285714286L12.05,7.235714285714286L12.05,7.5L11.95,7.5L11.95,7.335714285714285L11.735714285714284,7.335714285714285L11.735714285714284,6.907142857142857L8.835714285714285,6.907142857142857L8.835714285714285,7.121428571428571L8.62142857142857,7.121428571428571L8.62142857142857,7.764285714285714L7.978571428571428,7.764285714285714L7.978571428571428,8.407142857142858L7.764285714285714,8.407142857142858L7.764285714285714,8.835714285714285L7.55,8.835714285714285L7.55,9L7.45,9L7.45,8.735714285714284L7.664285714285715,8.735714285714284L7.664285714285715,8.307142857142857L7.878571428571428,8.307142857142857L7.878571428571428,7.664285714285715L8.521428571428569,7.664285714285715L8.521428571428569,7.021428571428571L8.735714285714284,7.021428571428571L8.735714285714284,6.807142857142857z" stroke="none"/><path d="M8.092857142857142,8.95L8.092857142857142,8.735714285714284L11.521428571428569,8.735714285714284L11.521428571428569,8.521428571428569L13.021428571428569,8.521428571428569L13.021428571428569,8.307142857142857L14.735714285714284,8.307142857142857L14.735714285714284,7.664285714285715L14.95,7.664285714285715L14.95,7.5L15.05,7.5L15.05,7.764285714285714L14.835714285714285,7.764285714285714L14.835714285714285,8.407142857142858L13.12142857142857,8.407142857142858L13.12142857142857,8.62142857142857L11.62142857142857,8.62142857142857L11.62142857142857,8.835714285714285L8.192857142857143,8.835714285714285L8.192857142857143,8.95L9,8.95L9,9.05L8.192857142857143,9.05L8.192857142857143,10.12142857142857L6.692857142857142,10.12142857142857L6.692857142857142,10.978571428571428L6.05,10.978571428571428L6.05,11.192857142857143L5.621428571428571,11.192857142857143L5.621428571428571,11.407142857142858L5.192857142857142,11.407142857142858L5.192857142857142,11.835714285714285L4.764285714285714,11.835714285714285L4.764285714285714,12.05L4.5,12.05L4.5,11.95L4.664285714285715,11.95L4.664285714285715,11.735714285714284L5.0928571428571425,11.735714285714284L5.0928571428571425,11.307142857142857L5.521428571428571,11.307142857142857L5.521428571428571,11.092857142857142L5.95,11.092857142857142L5.95,10.878571428571426L6.5928571428571425,10.878571428571426L6.5928571428571425,10.021428571428569L8.092857142857142,10.021428571428569L8.092857142857142,9.05L7.978571428571428,9.05L7.978571428571428,9.478571428571428L4.021428571428571,9.478571428571428L4.021428571428571,9.264285714285716L3.8071428571428574,9.264285714285716L3.8071428571428574,8.62142857142857L3.3785714285714286,8.62142857142857L3.3785714285714286,8.407142857142858L3.1642857142857146,8.407142857142858L3.1642857142857146,8.192857142857143L2.95,8.192857142857143L2.95,7.5L3.05,7.5L3.05,8.092857142857142L3.2642857142857142,8.092857142857142L3.2642857142857142,8.307142857142857L3.478571428571428,8.307142857142857L3.478571428571428,8.521428571428569L3.907142857142857,8.521428571428569L3.907142857142857,9.164285714285715L4.121428571428571,9.164285714285715L4.121428571428571,9.378571428571426L7.878571428571428,9.378571428571426L7.878571428571428,8.95z" stroke="none"/><path d="M6.5928571428571425,6.5928571428571425L6.5928571428571425,6.05L6.164285714285715,6.05L6.164285714285715,5.835714285714285L4.878571428571429,5.835714285714285L4.878571428571429,5.621428571428571L3.907142857142857,5.621428571428571L3.907142857142857,5.835714285714285L3.6928571428571426,5.835714285714285L3.6928571428571426,6.05L3,6.05L3,5.95L3.592857142857143,5.95L3.592857142857143,5.735714285714286L3.8071428571428574,5.735714285714286L3.8071428571428574,5.521428571428571L4.978571428571429,5.521428571428571L4.978571428571429,5.735714285714286L6.264285714285714,5.735714285714286L6.264285714285714,5.95L6.692857142857142,5.95L6.692857142857142,6.5928571428571425L7.45,6.5928571428571425L7.45,6.378571428571428L7.664285714285715,6.378571428571428L7.664285714285715,5.735714285714286L8.521428571428569,5.735714285714286L8.521428571428569,5.521428571428571L8.735714285714284,5.521428571428571L8.735714285714284,5.0928571428571425L9.378571428571426,5.0928571428571425L9.378571428571426,4.664285714285715L9.592857142857142,4.664285714285715L9.592857142857142,4.45L9.807142857142857,4.45L9.807142857142857,4.235714285714286L10.021428571428569,4.235714285714286L10.021428571428569,4.021428571428571L13.12142857142857,4.021428571428571L13.12142857142857,5.307142857142857L13.335714285714285,5.307142857142857L13.335714285714285,5.521428571428571L13.55,5.521428571428571L13.55,6L13.45,6L13.45,5.621428571428571L13.235714285714284,5.621428571428571L13.235714285714284,5.407142857142857L13.021428571428569,5.407142857142857L13.021428571428569,4.121428571428571L10.12142857142857,4.121428571428571L10.12142857142857,4.335714285714285L9.907142857142858,4.335714285714285L9.907142857142858,4.55L9.692857142857143,4.55L9.692857142857143,4.764285714285714L9.478571428571428,4.764285714285714L9.478571428571428,5.192857142857142L8.835714285714285,5.192857142857142L8.835714285714285,5.621428571428571L8.62142857142857,5.621428571428571L8.62142857142857,5.835714285714285L7.764285714285714,5.835714285714285L7.764285714285714,6.478571428571428L7.55,6.478571428571428L7.55,6.692857142857142L6.692857142857142,6.692857142857142L6.692857142857142,8.407142857142858L6.05,8.407142857142858L6.05,8.62142857142857L5.407142857142857,8.62142857142857L5.407142857142857,8.835714285714285L5.192857142857142,8.835714285714285L5.192857142857142,9.05L4.5,9.05L4.5,8.95L5.0928571428571425,8.95L5.0928571428571425,8.735714285714284L5.307142857142857,8.735714285714284L5.307142857142857,8.521428571428569L5.95,8.521428571428569L5.95,8.307142857142857L6.5928571428571425,8.307142857142857L6.5928571428571425,6.692857142857142L6.378571428571428,6.692857142857142L6.378571428571428,6.264285714285714L5.95,6.264285714285714L5.95,6L6.05,6L6.05,6.164285714285715L6.478571428571428,6.164285714285715L6.478571428571428,6.5928571428571425z" stroke="none"/><path d="M19.45,6.5928571428571425L19.45,6.478571428571428L18.59285714285714,6.478571428571428L18.59285714285714,6.264285714285714L17.521428571428572,6.264285714285714L17.521428571428572,5.835714285714285L16.45,5.835714285714285L16.45,5.621428571428571L16.02142857142857,5.621428571428571L16.02142857142857,5.192857142857142L15.164285714285715,5.192857142857142L15.164285714285715,4.764285714285714L14.95,4.764285714285714L14.95,4.5L15.05,4.5L15.05,4.664285714285715L15.264285714285716,4.664285714285715L15.264285714285716,5.0928571428571425L16.12142857142857,5.0928571428571425L16.12142857142857,5.521428571428571L16.55,5.521428571428571L16.55,5.735714285714286L17.621428571428574,5.735714285714286L17.621428571428574,6.164285714285715L18.692857142857143,6.164285714285715L18.692857142857143,6.378571428571428L19.55,6.378571428571428L19.55,6.5928571428571425L21.90714285714286,6.5928571428571425L21.90714285714286,7.235714285714286L22.121428571428574,7.235714285714286L22.121428571428574,7.878571428571428L24.264285714285716,7.878571428571428L24.264285714285716,8.521428571428569L24.478571428571428,8.521428571428569L24.478571428571428,8.735714285714284L25.335714285714285,8.735714285714284L25.335714285714285,8.95L25.5,8.95L25.5,9.05L25.235714285714284,9.05L25.235714285714284,8.835714285714285L24.378571428571426,8.835714285714285L24.378571428571426,8.62142857142857L24.164285714285715,8.62142857142857L24.164285714285715,7.978571428571428L22.021428571428572,7.978571428571428L22.021428571428572,7.335714285714285L21.807142857142857,7.335714285714285L21.807142857142857,6.692857142857142L19.55,6.692857142857142L19.55,6.807142857142857L19.764285714285716,6.807142857142857L19.764285714285716,7.021428571428571L20.192857142857143,7.021428571428571L20.192857142857143,7.45L21,7.45L21,7.55L20.09285714285714,7.55L20.09285714285714,7.121428571428571L19.664285714285715,7.121428571428571L19.664285714285715,6.907142857142857L19.45,6.907142857142857L19.45,6.692857142857142L16.664285714285715,6.692857142857142L16.664285714285715,6.264285714285714L16.45,6.264285714285714L16.45,6L16.55,6L16.55,6.164285714285715L16.764285714285716,6.164285714285715L16.764285714285716,6.5928571428571425z" stroke="none"/><path d="M3.05,12L2.95,12L2.95,10.5L3.05,10.5z" stroke="none"/><path d="M9,11.95L9,12.05L7.5,12.05L7.5,11.95z" stroke="none"/><path d="M13.5,8.95L13.5,9.05L12,9.05L12,8.95z" stroke="none"/><path d="M25.5,3.05L25.5,2.95L27,2.95L27,3.05z" stroke="none"/><path d="M22.45,10.5L22.55,10.5L22.55,10.764285714285716L21.90714285714286,10.764285714285716L21.90714285714286,10.978571428571428L21.478571428571428,10.978571428571428L21.478571428571428,11.407142857142858L21.264285714285716,11.407142857142858L21.264285714285716,11.835714285714285L21.05,11.835714285714285L21.05,12L20.95,12L20.95,11.735714285714284L21.164285714285715,11.735714285714284L21.164285714285715,11.307142857142857L21.378571428571426,11.307142857142857L21.378571428571426,10.878571428571426L21.807142857142857,10.878571428571426L21.807142857142857,10.664285714285715L22.45,10.664285714285715z" stroke="none"/><path d="M24.05,6L23.95,6L23.95,5.307142857142857L24.164285714285715,5.307142857142857L24.164285714285715,5.0928571428571425L24.59285714285714,5.0928571428571425L24.59285714285714,4.878571428571429L25.45,4.878571428571429L25.45,4.5L25.55,4.5L25.55,4.978571428571429L24.692857142857143,4.978571428571429L24.692857142857143,5.192857142857142L24.264285714285716,5.192857142857142L24.264285714285716,5.407142857142857L24.05,5.407142857142857z" stroke="none"/><path d="M9,4.45L9,4.55L8.092857142857142,4.55L8.092857142857142,3.6928571428571426L7.664285714285715,3.6928571428571426L7.664285714285715,3.2642857142857142L7.45,3.2642857142857142L7.45,3L7.55,3L7.55,3.1642857142857146L7.764285714285714,3.1642857142857146L7.764285714285714,3.592857142857143L8.192857142857143,3.592857142857143L8.192857142857143,4.45z" stroke="none"/><path d="M27.05,12L26.95,12L26.95,11.192857142857143L26.307142857142857,11.192857142857143L26.307142857142857,10.764285714285716L26.09285714285714,10.764285714285716L26.09285714285714,10.55L25.5,10.55L25.5,10.45L26.192857142857143,10.45L26.192857142857143,10.664285714285715L26.40714285714286,10.664285714285715L26.40714285714286,11.092857142857142L27.05,11.092857142857142z" stroke="none"/><path d="M10.5,3.05L10.5,2.95L11.407142857142858,2.95L11.407142857142858,3.1642857142857146L11.62142857142857,3.1642857142857146L11.62142857142857,3.3785714285714286L12.05,3.3785714285714286L12.05,3.592857142857143L13.12142857142857,3.592857142857143L13.12142857142857,3.8071428571428574L13.335714285714285,3.8071428571428574L13.335714285714285,4.45L13.55,4.45L13.55,4.664285714285715L13.764285714285716,4.664285714285715L13.764285714285716,5.0928571428571425L13.978571428571428,5.0928571428571425L13.978571428571428,6.478571428571428L10.664285714285715,6.478571428571428L10.664285714285715,6.264285714285714L10.45,6.264285714285714L10.45,6L10.55,6L10.55,6.164285714285715L10.764285714285716,6.164285714285715L10.764285714285716,6.378571428571428L13.878571428571426,6.378571428571428L13.878571428571426,5.192857142857142L13.664285714285715,5.192857142857142L13.664285714285715,4.764285714285714L13.45,4.764285714285714L13.45,4.55L13.235714285714284,4.55L13.235714285714284,3.907142857142857L13.021428571428569,3.907142857142857L13.021428571428569,3.6928571428571426L11.95,3.6928571428571426L11.95,3.478571428571428L11.521428571428569,3.478571428571428L11.521428571428569,3.2642857142857142L11.307142857142857,3.2642857142857142L11.307142857142857,3.05z" stroke="none"/><path d="M16.5,3.05L16.5,2.95L19.5,2.95L19.5,3.05z" stroke="none"/><path d="M24,7.55L24,7.45L24.90714285714286,7.45L24.90714285714286,7.664285714285715L25.12142857142857,7.664285714285715L25.12142857142857,7.878571428571428L25.878571428571426,7.878571428571428L25.878571428571426,4.121428571428571L21.478571428571428,4.121428571428571L21.478571428571428,4.335714285714285L21.05,4.335714285714285L21.05,4.5L20.95,4.5L20.95,4.235714285714286L21.378571428571426,4.235714285714286L21.378571428571426,4.021428571428571L25.978571428571428,4.021428571428571L25.978571428571428,7.978571428571428L25.02142857142857,7.978571428571428L25.02142857142857,7.764285714285714L24.807142857142857,7.764285714285714L24.807142857142857,7.55z" stroke="none"/><path d="M26.95,6L27.05,6L27.05,8.62142857142857L26.62142857142857,8.62142857142857L26.62142857142857,10.021428571428569L27.05,10.021428571428569L27.05,10.5L26.95,10.5L26.95,10.12142857142857L26.52142857142857,10.12142857142857L26.52142857142857,8.521428571428569L26.95,8.521428571428569z" stroke="none"/><path d="M27,4.45L27,4.55L26.735714285714284,4.55L26.735714285714284,4.335714285714285L26.09285714285714,4.335714285714285L26.09285714285714,3.907142857142857L23.735714285714284,3.907142857142857L23.735714285714284,3.6928571428571426L23.09285714285714,3.6928571428571426L23.09285714285714,3.478571428571428L22.664285714285715,3.478571428571428L22.664285714285715,3.05L22.5,3.05L22.5,2.95L22.764285714285716,2.95L22.764285714285716,3.3785714285714286L23.192857142857143,3.3785714285714286L23.192857142857143,3.592857142857143L23.835714285714285,3.592857142857143L23.835714285714285,3.8071428571428574L26.192857142857143,3.8071428571428574L26.192857142857143,4.235714285714286L26.835714285714285,4.235714285714286L26.835714285714285,4.45z" stroke="none"/><path d="M16.45,7.5L16.55,7.5L16.55,8.62142857142857L16.12142857142857,8.62142857142857L16.12142857142857,8.835714285714285L15.692857142857143,8.835714285714285L15.692857142857143,9.05L15.478571428571428,9.05L15.478571428571428,9.478571428571428L14.835714285714285,9.478571428571428L14.835714285714285,9.907142857142858L14.192857142857143,9.907142857142858L14.192857142857143,10.335714285714285L13.55,10.335714285714285L13.55,11.407142857142858L13.335714285714285,11.407142857142858L13.335714285714285,11.62142857142857L13.12142857142857,11.62142857142857L13.12142857142857,12.378571428571426L17.735714285714284,12.378571428571426L17.735714285714284,11.95L18,11.95L18,12.05L17.835714285714285,12.05L17.835714285714285,12.478571428571428L13.021428571428569,12.478571428571428L13.021428571428569,11.521428571428569L13.235714285714284,11.521428571428569L13.235714285714284,11.307142857142857L13.45,11.307142857142857L13.45,10.235714285714284L14.092857142857142,10.235714285714284L14.092857142857142,9.807142857142857L14.735714285714284,9.807142857142857L14.735714285714284,9.378571428571426L15.378571428571426,9.378571428571426L15.378571428571426,8.95L15.592857142857142,8.95L15.592857142857142,8.735714285714284L16.02142857142857,8.735714285714284L16.02142857142857,8.521428571428569L16.45,8.521428571428569z" stroke="none"/><path d="M19.5,9.05L19.5,8.95L20.307142857142857,8.95L20.307142857142857,8.521428571428569L22.121428571428574,8.521428571428569L22.121428571428574,8.95L22.55,8.95L22.55,9.592857142857142L22.764285714285716,9.592857142857142L22.764285714285716,9.807142857142857L23.40714285714286,9.807142857142857L23.40714285714286,10.235714285714284L23.62142857142857,10.235714285714284L23.62142857142857,10.45L24,10.45L24,10.55L23.52142857142857,10.55L23.52142857142857,10.335714285714285L23.307142857142857,10.335714285714285L23.307142857142857,9.907142857142858L22.664285714285715,9.907142857142858L22.664285714285715,9.692857142857143L22.45,9.692857142857143L22.45,9.05L22.021428571428572,9.05L22.021428571428572,8.62142857142857L20.40714285714286,8.62142857142857L20.40714285714286,9.05z" stroke="none"/><path d="M15,3.05L15,2.95L15.478571428571428,2.95L15.478571428571428,3.1642857142857146L16.12142857142857,3.1642857142857146L16.12142857142857,3.3785714285714286L17.192857142857143,3.3785714285714286L17.192857142857143,3.592857142857143L18.05,3.592857142857143L18.05,3.8071428571428574L18.264285714285716,3.8071428571428574L18.264285714285716,4.021428571428571L18.478571428571428,4.021428571428571L18.478571428571428,4.235714285714286L19.335714285714285,4.235714285714286L19.335714285714285,4.45L19.5,4.45L19.5,4.55L19.235714285714284,4.55L19.235714285714284,4.335714285714285L18.378571428571426,4.335714285714285L18.378571428571426,4.121428571428571L18.164285714285715,4.121428571428571L18.164285714285715,3.907142857142857L17.95,3.907142857142857L17.95,3.6928571428571426L17.09285714285714,3.6928571428571426L17.09285714285714,3.478571428571428L16.02142857142857,3.478571428571428L16.02142857142857,3.2642857142857142L15.378571428571426,3.2642857142857142L15.378571428571426,3.05z" stroke="none"/><path d="M12,2.95L12,3.05L11.521428571428569,3.05L11.521428571428569,2.8357142857142854L11.092857142857142,2.8357142857142854L11.092857142857142,2.6214285714285714L7.121428571428571,2.6214285714285714L7.121428571428571,4.235714285714286L7.55,4.235714285714286L7.55,4.5L7.45,4.5L7.45,4.335714285714285L7.021428571428571,4.335714285714285L7.021428571428571,2.521428571428572L11.192857142857143,2.521428571428572L11.192857142857143,2.7357142857142858L11.62142857142857,2.7357142857142858L11.62142857142857,2.95z" stroke="none"/><path d="M19.5,5.95L19.5,6.05L18.164285714285715,6.05L18.164285714285715,5.835714285714285L17.735714285714284,5.835714285714285L17.735714285714284,5.192857142857142L17.521428571428572,5.192857142857142L17.521428571428572,4.978571428571429L17.09285714285714,4.978571428571429L17.09285714285714,4.764285714285714L16.878571428571426,4.764285714285714L16.878571428571426,4.55L16.45,4.55L16.45,4.335714285714285L16.02142857142857,4.335714285714285L16.02142857142857,4.121428571428571L14.62142857142857,4.121428571428571L14.62142857142857,5.0928571428571425L14.835714285714285,5.0928571428571425L14.835714285714285,6.807142857142857L15.478571428571428,6.807142857142857L15.478571428571428,7.978571428571428L15.264285714285716,7.978571428571428L15.264285714285716,8.407142857142858L15.05,8.407142857142858L15.05,9L14.95,9L14.95,8.307142857142857L15.164285714285715,8.307142857142857L15.164285714285715,7.878571428571428L15.378571428571426,7.878571428571428L15.378571428571426,6.907142857142857L14.735714285714284,6.907142857142857L14.735714285714284,5.192857142857142L14.521428571428569,5.192857142857142L14.521428571428569,4.021428571428571L16.12142857142857,4.021428571428571L16.12142857142857,4.235714285714286L16.55,4.235714285714286L16.55,4.45L16.978571428571428,4.45L16.978571428571428,4.664285714285715L17.192857142857143,4.664285714285715L17.192857142857143,4.878571428571429L17.621428571428574,4.878571428571429L17.621428571428574,5.0928571428571425L17.835714285714285,5.0928571428571425L17.835714285714285,5.735714285714286L18.264285714285716,5.735714285714286L18.264285714285716,5.95z" stroke="none"/><path d="M27.05,9L26.95,9L26.95,8.735714285714284L27.164285714285715,8.735714285714284L27.164285714285715,6.378571428571428L27.378571428571426,6.378571428571428L27.378571428571426,4.121428571428571L26.52142857142857,4.121428571428571L26.52142857142857,3.6928571428571426L23.95,3.6928571428571426L23.95,3.2642857142857142L23.307142857142857,3.2642857142857142L23.307142857142857,2.8357142857142854L23.09285714285714,2.8357142857142854L23.09285714285714,2.6214285714285714L21.05,2.6214285714285714L21.05,3.2642857142857142L20.621428571428574,3.2642857142857142L20.621428571428574,4.878571428571429L23.735714285714284,4.878571428571429L23.735714285714284,4.45L24,4.45L24,4.55L23.835714285714285,4.55L23.835714285714285,4.978571428571429L20.521428571428572,4.978571428571429L20.521428571428572,3.1642857142857146L20.95,3.1642857142857146L20.95,2.521428571428572L23.192857142857143,2.521428571428572L23.192857142857143,2.7357142857142858L23.40714285714286,2.7357142857142858L23.40714285714286,3.1642857142857146L24.05,3.1642857142857146L24.05,3.592857142857143L26.62142857142857,3.592857142857143L26.62142857142857,4.021428571428571L27.478571428571428,4.021428571428571L27.478571428571428,6.478571428571428L27.264285714285716,6.478571428571428L27.264285714285716,8.835714285714285L27.05,8.835714285714285z" stroke="none"/><path d="M12,5.95L12,6.05L11.521428571428569,6.05L11.521428571428569,5.621428571428571L10.12142857142857,5.621428571428571L10.12142857142857,6.378571428571428L10.55,6.378571428571428L10.55,6.5928571428571425L14.092857142857142,6.5928571428571425L14.092857142857142,2.8357142857142854L12.807142857142857,2.8357142857142854L12.807142857142857,2.6214285714285714L11.521428571428569,2.6214285714285714L11.521428571428569,2.407142857142857L6.907142857142857,2.407142857142857L6.907142857142857,3.907142857142857L6.264285714285714,3.907142857142857L6.264285714285714,4.121428571428571L5.835714285714285,4.121428571428571L5.835714285714285,4.335714285714285L5.407142857142857,4.335714285714285L5.407142857142857,4.55L5.192857142857142,4.55L5.192857142857142,4.764285714285714L4.335714285714285,4.764285714285714L4.335714285714285,4.978571428571429L3.907142857142857,4.978571428571429L3.907142857142857,5.192857142857142L2.8357142857142854,5.192857142857142L2.8357142857142854,5.621428571428571L2.6214285714285714,5.621428571428571L2.6214285714285714,6.378571428571428L4.978571428571429,6.378571428571428L4.978571428571429,6.5928571428571425L5.407142857142857,6.5928571428571425L5.407142857142857,6.807142857142857L5.621428571428571,6.807142857142857L5.621428571428571,7.235714285714286L6.05,7.235714285714286L6.05,7.5L5.95,7.5L5.95,7.335714285714285L5.521428571428571,7.335714285714285L5.521428571428571,6.907142857142857L5.307142857142857,6.907142857142857L5.307142857142857,6.692857142857142L4.878571428571429,6.692857142857142L4.878571428571429,6.478571428571428L2.521428571428572,6.478571428571428L2.521428571428572,5.521428571428571L2.7357142857142858,5.521428571428571L2.7357142857142858,5.0928571428571425L3.8071428571428574,5.0928571428571425L3.8071428571428574,4.878571428571429L4.235714285714286,4.878571428571429L4.235714285714286,4.664285714285715L5.0928571428571425,4.664285714285715L5.0928571428571425,4.45L5.307142857142857,4.45L5.307142857142857,4.235714285714286L5.735714285714286,4.235714285714286L5.735714285714286,4.021428571428571L6.164285714285715,4.021428571428571L6.164285714285715,3.8071428571428574L6.807142857142857,3.8071428571428574L6.807142857142857,2.3071428571428574L11.62142857142857,2.3071428571428574L11.62142857142857,2.521428571428572L12.907142857142858,2.521428571428572L12.907142857142858,2.7357142857142858L14.192857142857143,2.7357142857142858L14.192857142857143,6.692857142857142L10.45,6.692857142857142L10.45,6.478571428571428L10.021428571428569,6.478571428571428L10.021428571428569,5.521428571428571L11.62142857142857,5.521428571428571L11.62142857142857,5.95z" stroke="none"/><path d="M16.5,10.55L16.5,10.45L19.021428571428572,10.45L19.021428571428572,10.021428571428569L22.978571428571428,10.021428571428569L22.978571428571428,10.235714285714284L23.192857142857143,10.235714285714284L23.192857142857143,10.664285714285715L23.62142857142857,10.664285714285715L23.62142857142857,10.878571428571426L24.59285714285714,10.878571428571426L24.59285714285714,10.45L25.02142857142857,10.45L25.02142857142857,10.021428571428569L25.978571428571428,10.021428571428569L25.978571428571428,10.235714285714284L26.40714285714286,10.235714285714284L26.40714285714286,10.45L26.62142857142857,10.45L26.62142857142857,10.878571428571426L27.378571428571426,10.878571428571426L27.378571428571426,7.021428571428571L27.59285714285714,7.021428571428571L27.59285714285714,3.478571428571428L24.59285714285714,3.478571428571428L24.59285714285714,3.05L24.378571428571426,3.05L24.378571428571426,2.8357142857142854L23.95,2.8357142857142854L23.95,2.6214285714285714L23.52142857142857,2.6214285714285714L23.52142857142857,2.407142857142857L20.621428571428574,2.407142857142857L20.621428571428574,2.6214285714285714L20.40714285714286,2.6214285714285714L20.40714285714286,5.0928571428571425L21.90714285714286,5.0928571428571425L21.90714285714286,5.307142857142857L22.121428571428574,5.307142857142857L22.121428571428574,5.521428571428571L22.55,5.521428571428571L22.55,6L22.45,6L22.45,5.621428571428571L22.021428571428572,5.621428571428571L22.021428571428572,5.407142857142857L21.807142857142857,5.407142857142857L21.807142857142857,5.192857142857142L20.307142857142857,5.192857142857142L20.307142857142857,2.521428571428572L20.521428571428572,2.521428571428572L20.521428571428572,2.3071428571428574L23.62142857142857,2.3071428571428574L23.62142857142857,2.521428571428572L24.05,2.521428571428572L24.05,2.7357142857142858L24.478571428571428,2.7357142857142858L24.478571428571428,2.95L24.692857142857143,2.95L24.692857142857143,3.3785714285714286L27.692857142857143,3.3785714285714286L27.692857142857143,7.121428571428571L27.478571428571428,7.121428571428571L27.478571428571428,10.978571428571428L26.52142857142857,10.978571428571428L26.52142857142857,10.55L26.307142857142857,10.55L26.307142857142857,10.335714285714285L25.878571428571426,10.335714285714285L25.878571428571426,10.12142857142857L25.12142857142857,10.12142857142857L25.12142857142857,10.55L24.692857142857143,10.55L24.692857142857143,10.978571428571428L23.52142857142857,10.978571428571428L23.52142857142857,10.764285714285716L23.09285714285714,10.764285714285716L23.09285714285714,10.335714285714285L22.878571428571426,10.335714285714285L22.878571428571426,10.12142857142857L19.121428571428574,10.12142857142857L19.121428571428574,10.55z" stroke="none"/><path d="M4.5,6.05L4.5,5.95L5.192857142857142,5.95L5.192857142857142,6.378571428571428L6.05,6.378571428571428L6.05,7.021428571428571L6.478571428571428,7.021428571428571L6.478571428571428,7.978571428571428L4.235714285714286,7.978571428571428L4.235714285714286,7.764285714285714L4.021428571428571,7.764285714285714L4.021428571428571,7.335714285714285L3.8071428571428574,7.335714285714285L3.8071428571428574,7.121428571428571L2.6214285714285714,7.121428571428571L2.6214285714285714,9.592857142857142L2.8357142857142854,9.592857142857142L2.8357142857142854,9.807142857142857L3.478571428571428,9.807142857142857L3.478571428571428,11.092857142857142L3.6928571428571426,11.092857142857142L3.6928571428571426,11.735714285714284L3.907142857142857,11.735714285714284L3.907142857142857,12.164285714285715L4.121428571428571,12.164285714285715L4.121428571428571,12.378571428571426L10.235714285714284,12.378571428571426L10.235714285714284,11.307142857142857L10.45,11.307142857142857L10.45,11.092857142857142L10.664285714285715,11.092857142857142L10.664285714285715,10.878571428571426L11.307142857142857,10.878571428571426L11.307142857142857,10.664285714285715L11.95,10.664285714285715L11.95,10.5L12.05,10.5L12.05,10.764285714285716L11.407142857142858,10.764285714285716L11.407142857142858,10.978571428571428L10.764285714285716,10.978571428571428L10.764285714285716,11.192857142857143L10.55,11.192857142857143L10.55,11.407142857142858L10.335714285714285,11.407142857142858L10.335714285714285,12.478571428571428L4.021428571428571,12.478571428571428L4.021428571428571,12.264285714285716L3.8071428571428574,12.264285714285716L3.8071428571428574,11.835714285714285L3.592857142857143,11.835714285714285L3.592857142857143,11.192857142857143L3.3785714285714286,11.192857142857143L3.3785714285714286,9.907142857142858L2.7357142857142858,9.907142857142858L2.7357142857142858,9.692857142857143L2.521428571428572,9.692857142857143L2.521428571428572,7.021428571428571L3.907142857142857,7.021428571428571L3.907142857142857,7.235714285714286L4.121428571428571,7.235714285714286L4.121428571428571,7.664285714285715L4.335714285714285,7.664285714285715L4.335714285714285,7.878571428571428L6.378571428571428,7.878571428571428L6.378571428571428,7.121428571428571L5.95,7.121428571428571L5.95,6.478571428571428L5.0928571428571425,6.478571428571428L5.0928571428571425,6.05z" stroke="none"/><path d="M9,10.55L9,10.45L11.307142857142857,10.45L11.307142857142857,10.235714285714284L11.521428571428569,10.235714285714284L11.521428571428569,10.021428571428569L12.478571428571428,10.021428571428569L12.478571428571428,11.735714285714284L12.692857142857143,11.735714285714284L12.692857142857143,11.95L12.907142857142858,11.95L12.907142857142858,12.592857142857142L19.021428571428572,12.592857142857142L19.021428571428572,12.378571428571426L19.45,12.378571428571426L19.45,12L19.55,12L19.55,12.478571428571428L19.121428571428574,12.478571428571428L19.121428571428574,12.692857142857143L12.807142857142857,12.692857142857143L12.807142857142857,12.05L12.592857142857142,12.05L12.592857142857142,11.835714285714285L12.378571428571426,11.835714285714285L12.378571428571426,10.12142857142857L11.62142857142857,10.12142857142857L11.62142857142857,10.335714285714285L11.407142857142858,10.335714285714285L11.407142857142858,10.55z" stroke="none"/><path d="M9,7.55L9,7.45L10.12142857142857,7.45L10.12142857142857,7.664285714285715L11.407142857142858,7.664285714285715L11.407142857142858,7.878571428571428L13.664285714285715,7.878571428571428L13.664285714285715,7.664285714285715L13.878571428571426,7.664285714285715L13.878571428571426,7.235714285714286L14.092857142857142,7.235714285714286L14.092857142857142,6.807142857142857L14.307142857142857,6.807142857142857L14.307142857142857,2.521428571428572L20.09285714285714,2.521428571428572L20.09285714285714,2.092857142857143L26.192857142857143,2.092857142857143L26.192857142857143,2.3071428571428574L27.478571428571428,2.3071428571428574L27.478571428571428,3.1642857142857146L27.90714285714286,3.1642857142857146L27.90714285714286,11.62142857142857L27.478571428571428,11.62142857142857L27.478571428571428,12.478571428571428L20.521428571428572,12.478571428571428L20.521428571428572,10.764285714285716L19.45,10.764285714285716L19.45,10.5L19.55,10.5L19.55,10.664285714285715L20.621428571428574,10.664285714285715L20.621428571428574,12.378571428571426L27.378571428571426,12.378571428571426L27.378571428571426,11.521428571428569L27.807142857142857,11.521428571428569L27.807142857142857,3.2642857142857142L27.378571428571426,3.2642857142857142L27.378571428571426,2.407142857142857L26.09285714285714,2.407142857142857L26.09285714285714,2.1928571428571426L20.192857142857143,2.1928571428571426L20.192857142857143,2.6214285714285714L14.407142857142858,2.6214285714285714L14.407142857142858,6.907142857142857L14.192857142857143,6.907142857142857L14.192857142857143,7.335714285714285L13.978571428571428,7.335714285714285L13.978571428571428,7.764285714285714L13.764285714285716,7.764285714285714L13.764285714285716,7.978571428571428L11.307142857142857,7.978571428571428L11.307142857142857,7.764285714285714L10.021428571428569,7.764285714285714L10.021428571428569,7.55z" stroke="none"/></svg>