<svg version="1.1" width="105" height="15" xmlns="http://www.w3.org/2000/svg"><path d="M61.4,5.4L61.9,5.4L61.9,4.9L62.4,4.9L62.4,4.1L61.9,4.1L61.9,3.6L46.1,3.6L46.1,4.6L45,4.6L45,4.4L45.9,4.4L45.9,3.4L62.1,3.4L62.1,3.9L62.6,3.9L62.6,5.1L62.1,5.1L62.1,5.6L61.6,5.6L61.6,5.9L66,5.9L66,6.1L61.6,6.1L61.6,6.4L66.6,6.4L66.6,6.9L70.9,6.9L70.9,5.9L73.5,5.9L73.5,6.1L71.1,6.1L71.1,7.1L66.4,7.1L66.4,6.6L61.4,6.6z" stroke="none"/><path d="M50.9,5.4L50.9,4.9L61.4,4.9L61.4,4.5L61.6,4.5L61.6,5.1L51.1,5.1L51.1,5.4L54.6,5.4L54.6,5.9L55.1,5.9L55.1,6.4L56.1,6.4L56.1,6.9L57.1,6.9L57.1,7.5L56.9,7.5L56.9,7.1L55.9,7.1L55.9,6.6L54.9,6.6L54.9,6.1L54.4,6.1L54.4,5.6L42.4,5.6L42.4,5.1L37.4,5.1L37.4,4.6L34.5,4.6L34.5,4.4L37.6,4.4L37.6,4.9L42.6,4.9L42.6,5.4z" stroke="none"/><path d="M69.9,10.4L69.9,10.1L58.9,10.1L58.9,9.6L53.9,9.6L53.9,9.1L52.5,9.1L52.5,8.9L54.1,8.9L54.1,9.4L59.1,9.4L59.1,9.9L70.1,9.9L70.1,10.4L86.1,10.4L86.1,10.9L86.6,10.9L86.6,11.4L96.9,11.4L96.9,10.9L98.9,10.9L98.9,10.5L99.1,10.5L99.1,11.1L97.1,11.1L97.1,11.6L86.4,11.6L86.4,11.1L85.9,11.1L85.9,10.6L63.1,10.6L63.1,11.1L62.6,11.1L62.6,12.1L58.5,12.1L58.5,11.9L62.4,11.9L62.4,10.9L62.9,10.9L62.9,10.4z" stroke="none"/><path d="M32.9,10.4L32.9,9.9L36.9,9.9L36.9,9.4L43.4,9.4L43.4,8.9L43.9,8.9L43.9,8.4L44.9,8.4L44.9,7.5L45.1,7.5L45.1,8.6L44.1,8.6L44.1,9.1L43.6,9.1L43.6,9.6L37.1,9.6L37.1,10.1L33.1,10.1L33.1,10.4L34.5,10.4L34.5,10.6L33.1,10.6L33.1,10.9L37.1,10.9L37.1,11.4L39.9,11.4L39.9,10.9L46.6,10.9L46.6,11.4L48.1,11.4L48.1,12L47.9,12L47.9,11.6L46.4,11.6L46.4,11.1L40.1,11.1L40.1,11.6L36.9,11.6L36.9,11.1L32.9,11.1L32.9,10.6L4.5,10.6L4.5,10.4z" stroke="none"/><path d="M90.9,6.9L90.9,6.4L92.9,6.4L92.9,5.9L94.4,5.9L94.4,5.4L98.9,5.4L98.9,4.4L100.5,4.4L100.5,4.6L99.1,4.6L99.1,5.6L94.6,5.6L94.6,6.1L93.1,6.1L93.1,6.6L91.1,6.6L91.1,6.9L94.9,6.9L94.9,5.9L96,5.9L96,6.1L95.1,6.1L95.1,7.1L91.1,7.1L91.1,8.6L90.1,8.6L90.1,9.1L88.5,9.1L88.5,8.9L89.9,8.9L89.9,8.4L90.9,8.4L90.9,7.1L81.6,7.1L81.6,7.6L80.6,7.6L80.6,8.1L79.6,8.1L79.6,9L79.4,9L79.4,7.9L80.4,7.9L80.4,7.4L81.4,7.4L81.4,6.9z" stroke="none"/><path d="M37.4,5.9L37.4,5.6L22.4,5.6L22.4,5.1L21.9,5.1L21.9,4.6L21,4.6L21,4.4L22.1,4.4L22.1,4.9L22.6,4.9L22.6,5.4L37.6,5.4L37.6,5.9L42,5.9L42,6.1L37.6,6.1L37.6,6.4L53.6,6.4L53.6,6.9L54.1,6.9L54.1,7.4L55.5,7.4L55.5,7.6L53.9,7.6L53.9,7.1L53.4,7.1L53.4,6.6L37.4,6.6L37.4,6.1L33,6.1L33,5.9z" stroke="none"/><path d="M27.1,12L26.9,12L26.9,10.9L29.6,10.9L29.6,11.9L30,11.9L30,12.1L29.4,12.1L29.4,11.1L27.1,11.1z" stroke="none"/><path d="M36,3.1L36,2.9L39,2.9L39,3.1z" stroke="none"/><path d="M72,2.9L72,3.1L67.5,3.1L67.5,2.9z" stroke="none"/><path d="M9,5.9L9,6.1L5.9,6.1L5.9,4.6L4.5,4.6L4.5,4.4L6.1,4.4L6.1,5.9z" stroke="none"/><path d="M58.5,7.4L58.5,7.6L58.1,7.6L58.1,8.6L54.4,8.6L54.4,8.1L53.4,8.1L53.4,7.6L52.5,7.6L52.5,7.4L53.6,7.4L53.6,7.9L54.6,7.9L54.6,8.4L57.9,8.4L57.9,7.4z" stroke="none"/><path d="M99,7.6L99,7.4L99.9,7.4L99.9,6.9L100.9,6.9L100.9,5.9L101.4,5.9L101.4,4.1L100.9,4.1L100.9,3.6L94.4,3.6L94.4,3L94.6,3L94.6,3.4L101.1,3.4L101.1,3.9L101.6,3.9L101.6,6.1L101.1,6.1L101.1,7.1L100.1,7.1L100.1,7.6z" stroke="none"/><path d="M7.5,9.1L7.5,8.9L15,8.9L15,9.1z" stroke="none"/><path d="M7.5,3.1L7.5,2.9L9.4,2.9L9.4,2.4L9.9,2.4L9.9,1.9L11.6,1.9L11.6,2.4L14.1,2.4L14.1,2.9L15,2.9L15,3.1L13.9,3.1L13.9,2.6L11.4,2.6L11.4,2.1L10.1,2.1L10.1,2.6L9.6,2.6L9.6,3.1z" stroke="none"/><path d="M75,2.9L75,3.1L73.1,3.1L73.1,4.1L68.6,4.1L68.6,5.6L67.6,5.6L67.6,6L67.4,6L67.4,5.4L68.4,5.4L68.4,3.9L72.9,3.9L72.9,2.9z" stroke="none"/><path d="M10.5,4.6L10.5,4.4L15.6,4.4L15.6,5.4L16.1,5.4L16.1,6.4L17.6,6.4L17.6,6.9L18.1,6.9L18.1,7.5L17.9,7.5L17.9,7.1L17.4,7.1L17.4,6.6L15.9,6.6L15.9,5.6L15.4,5.6L15.4,4.6z" stroke="none"/><path d="M6,7.6L6,7.4L12.9,7.4L12.9,6.9L14.9,6.9L14.9,6L15.1,6L15.1,7.1L13.1,7.1L13.1,7.6z" stroke="none"/><path d="M40.5,12.1L40.5,11.9L44.6,11.9L44.6,12.9L48.4,12.9L48.4,12.4L48.9,12.4L48.9,11.4L49.4,11.4L49.4,10.9L50.4,10.9L50.4,10.4L51,10.4L51,10.6L50.6,10.6L50.6,11.1L49.6,11.1L49.6,11.6L49.1,11.6L49.1,12.6L48.6,12.6L48.6,13.1L44.4,13.1L44.4,12.1z" stroke="none"/><path d="M16.5,4.6L16.5,4.4L17.1,4.4L17.1,4.9L19.1,4.9L19.1,5.4L22.1,5.4L22.1,5.9L26.1,5.9L26.1,6.4L27.1,6.4L27.1,7.5L26.9,7.5L26.9,6.6L25.9,6.6L25.9,6.1L21.9,6.1L21.9,5.6L18.9,5.6L18.9,5.1L16.9,5.1L16.9,4.6z" stroke="none"/><path d="M10.5,12.1L10.5,11.9L22.5,11.9L22.5,12.1z" stroke="none"/><path d="M6,9.1L6,8.9L6.4,8.9L6.4,7.9L17.6,7.9L17.6,8.4L18.4,8.4L18.4,7.9L19.4,7.9L19.4,7.5L19.6,7.5L19.6,8.1L18.6,8.1L18.6,8.6L17.4,8.6L17.4,8.1L6.6,8.1L6.6,9.1z" stroke="none"/><path d="M19.5,4.6L19.5,4.4L19.9,4.4L19.9,3.4L24.6,3.4L24.6,3.9L30.4,3.9L30.4,3.4L32.9,3.4L32.9,3L33.1,3L33.1,3.6L30.6,3.6L30.6,4.1L24.4,4.1L24.4,3.6L20.1,3.6L20.1,4.6z" stroke="none"/><path d="M37.5,10.6L37.5,10.4L49.4,10.4L49.4,9.9L50.4,9.9L50.4,9.4L51.6,9.4L51.6,9.9L52.1,9.9L52.1,11.9L52.5,11.9L52.5,12.1L51.9,12.1L51.9,10.1L51.4,10.1L51.4,9.6L50.6,9.6L50.6,10.1L49.6,10.1L49.6,10.6z" stroke="none"/><path d="M27,2.9L27,3.1L18.6,3.1L18.6,3.6L16.1,3.6L16.1,4.1L10.9,4.1L10.9,3.6L10.4,3.6L10.4,3L10.6,3L10.6,3.4L11.1,3.4L11.1,3.9L15.9,3.9L15.9,3.4L18.4,3.4L18.4,2.9z" stroke="none"/><path d="M43.6,4.5L43.4,4.5L43.4,3.9L43.9,3.9L43.9,3.4L44.9,3.4L44.9,2.9L65.9,2.9L65.9,2.4L66.9,2.4L66.9,1.9L76.1,1.9L76.1,6.1L75.6,6.1L75.6,6.6L74.1,6.6L74.1,7.1L71.6,7.1L71.6,7.6L60.6,7.6L60.6,8.6L60.1,8.6L60.1,9L59.9,9L59.9,8.4L60.4,8.4L60.4,7.4L71.4,7.4L71.4,6.9L73.9,6.9L73.9,6.4L75.4,6.4L75.4,5.9L75.9,5.9L75.9,2.1L67.1,2.1L67.1,2.6L66.1,2.6L66.1,3.1L45.1,3.1L45.1,3.6L44.1,3.6L44.1,4.1L43.6,4.1z" stroke="none"/><path d="M67.5,9.1L67.5,8.9L70.6,8.9L70.6,9.4L71.6,9.4L71.6,9.9L86.6,9.9L86.6,10.4L87,10.4L87,10.6L86.4,10.6L86.4,10.1L71.4,10.1L71.4,9.6L70.4,9.6L70.4,9.1z" stroke="none"/><path d="M13.5,5.9L13.5,6.1L10.1,6.1L10.1,6.6L9.6,6.6L9.6,7.1L6.4,7.1L6.4,6.6L5.1,6.6L5.1,9.9L31.9,9.9L31.9,8.9L33,8.9L33,9.1L32.1,9.1L32.1,10.1L4.9,10.1L4.9,6.4L6.6,6.4L6.6,6.9L9.4,6.9L9.4,6.4L9.9,6.4L9.9,5.9z" stroke="none"/><path d="M58.5,10.4L58.5,10.6L55.1,10.6L55.1,11.6L54.6,11.6L54.6,12.1L54.1,12.1L54.1,13.1L49.1,13.1L49.1,13.6L36.4,13.6L36.4,13.1L34.9,13.1L34.9,12.6L34.4,12.6L34.4,12L34.6,12L34.6,12.4L35.1,12.4L35.1,12.9L36.6,12.9L36.6,13.4L48.9,13.4L48.9,12.9L53.9,12.9L53.9,11.9L54.4,11.9L54.4,11.4L54.9,11.4L54.9,10.4z" stroke="none"/><path d="M66,9.1L66,8.9L66.4,8.9L66.4,7.9L75.9,7.9L75.9,6.4L76.4,6.4L76.4,1.6L35.6,1.6L35.6,2.1L34.6,2.1L34.6,3.1L34.1,3.1L34.1,4.1L33.6,4.1L33.6,4.6L33,4.6L33,4.4L33.4,4.4L33.4,3.9L33.9,3.9L33.9,2.9L34.4,2.9L34.4,1.9L35.4,1.9L35.4,1.4L76.6,1.4L76.6,6.6L76.1,6.6L76.1,8.1L66.6,8.1L66.6,9.1z" stroke="none"/><path d="M72,9.1L72,8.9L75.9,8.9L75.9,8.4L76.4,8.4L76.4,6.9L76.9,6.9L76.9,1.1L6.6,1.1L6.6,2.1L3.6,2.1L3.6,10.9L4.1,10.9L4.1,11.4L9.6,11.4L9.6,12.4L10.1,12.4L10.1,12.9L28.4,12.9L28.4,12L28.6,12L28.6,13.1L9.9,13.1L9.9,12.6L9.4,12.6L9.4,11.6L3.9,11.6L3.9,11.1L3.4,11.1L3.4,1.9L6.4,1.9L6.4,0.9L77.1,0.9L77.1,7.1L76.6,7.1L76.6,8.6L76.1,8.6L76.1,9.1z" stroke="none"/></svg>