<svg version="1.1" width="105" height="15" xmlns="http://www.w3.org/2000/svg"><path d="M52.4,5.9L52.4,5.1L51.9,5.1L51.9,4.6L51,4.6L51,4.4L52.1,4.4L52.1,4.9L52.6,4.9L52.6,5.9L58.6,5.9L58.6,6.9L62.9,6.9L62.9,6.4L63.9,6.4L63.9,5.4L64.4,5.4L64.4,4.5L64.6,4.5L64.6,5.6L64.1,5.6L64.1,6.6L63.1,6.6L63.1,7.1L58.4,7.1L58.4,6.1L52.1,6.1L52.1,7.1L44.6,7.1L44.6,8.1L42.6,8.1L42.6,8.6L42.1,8.6L42.1,9L41.9,9L41.9,8.4L42.4,8.4L42.4,7.9L44.4,7.9L44.4,6.9L51.9,6.9L51.9,5.9z" stroke="none"/><path d="M32.6,10.9L32.6,11.4L33.1,11.4L33.1,12L32.9,12L32.9,11.6L32.4,11.6L32.4,11.1L15.6,11.1L15.6,11.6L5.6,11.6L5.6,12.1L4.5,12.1L4.5,11.9L5.4,11.9L5.4,11.4L15.4,11.4L15.4,11.1L12.9,11.1L12.9,10.1L12.4,10.1L12.4,9.6L10.9,9.6L10.9,9.1L9,9.1L9,8.9L11.1,8.9L11.1,9.4L12.6,9.4L12.6,9.9L13.1,9.9L13.1,10.9z" stroke="none"/><path d="M43.4,4.9L43.4,4.4L49.9,4.4L49.9,3.9L50.4,3.9L50.4,3.4L52.1,3.4L52.1,3.9L58.6,3.9L58.6,4.4L60,4.4L60,4.6L58.4,4.6L58.4,4.1L51.9,4.1L51.9,3.6L50.6,3.6L50.6,4.1L50.1,4.1L50.1,4.6L43.6,4.6L43.6,4.9L50.6,4.9L50.6,5.4L51.1,5.4L51.1,6L50.9,6L50.9,5.6L50.4,5.6L50.4,5.1L43.1,5.1L43.1,5.6L36.9,5.6L36.9,5.1L35.1,5.1L35.1,5.6L25.4,5.6L25.4,5.1L24.9,5.1L24.9,4.6L19.5,4.6L19.5,4.4L25.1,4.4L25.1,4.9L25.6,4.9L25.6,5.4L34.9,5.4L34.9,4.9L37.1,4.9L37.1,5.4L42.9,5.4L42.9,4.9z" stroke="none"/><path d="M74.9,10.4L74.9,10.1L51.1,10.1L51.1,12.1L48,12.1L48,11.9L50.9,11.9L50.9,9.9L75.1,9.9L75.1,10.4L78.4,10.4L78.4,9.4L79.9,9.4L79.9,7.9L80.9,7.9L80.9,7.5L81.1,7.5L81.1,8.1L80.1,8.1L80.1,9.6L78.6,9.6L78.6,10.6L75.1,10.6L75.1,12L74.9,12L74.9,10.6L74.6,10.6L74.6,12.4L79.1,12.4L79.1,12.9L91.4,12.9L91.4,12.4L92.9,12.4L92.9,11.9L93.4,11.9L93.4,11.4L94.9,11.4L94.9,10.9L95.9,10.9L95.9,10.5L96.1,10.5L96.1,11.1L95.1,11.1L95.1,11.6L93.6,11.6L93.6,12.1L93.1,12.1L93.1,12.6L91.6,12.6L91.6,13.1L78.9,13.1L78.9,12.6L74.4,12.6L74.4,10.4z" stroke="none"/><path d="M18.4,3.4L18.4,3.1L7.5,3.1L7.5,2.9L18.6,2.9L18.6,3.4L20.6,3.4L20.6,3.9L23.4,3.9L23.4,2.9L27,2.9L27,3.1L23.6,3.1L23.6,4.1L20.4,4.1L20.4,3.6L18.6,3.6L18.6,5.6L18.1,5.6L18.1,6L17.9,6L17.9,5.4L18.4,5.4L18.4,3.6L18.1,3.6L18.1,5.1L17.6,5.1L17.6,6.4L22.1,6.4L22.1,6.9L22.6,6.9L22.6,7.4L24,7.4L24,7.6L22.4,7.6L22.4,7.1L21.9,7.1L21.9,6.6L17.4,6.6L17.4,4.9L17.9,4.9L17.9,3.4z" stroke="none"/><path d="M76.4,7.4L76.4,6.9L77.4,6.9L77.4,5.9L90.6,5.9L90.6,6.9L91.6,6.9L91.6,7.4L93,7.4L93,7.6L91.4,7.6L91.4,7.1L90.4,7.1L90.4,6.1L77.6,6.1L77.6,7.1L76.6,7.1L76.6,7.4L77.9,7.4L77.9,6.9L78.4,6.9L78.4,6.4L81.6,6.4L81.6,6.9L83.1,6.9L83.1,7.4L85.1,7.4L85.1,8.4L85.6,8.4L85.6,9.4L86.1,9.4L86.1,10.4L88.5,10.4L88.5,10.6L85.9,10.6L85.9,9.6L85.4,9.6L85.4,8.6L84.9,8.6L84.9,7.6L82.9,7.6L82.9,7.1L81.4,7.1L81.4,6.6L78.6,6.6L78.6,7.1L78.1,7.1L78.1,7.6L76.6,7.6L76.6,8.1L63.9,8.1L63.9,6.9L64.4,6.9L64.4,5.9L64.9,5.9L64.9,4.9L65.4,4.9L65.4,3.6L64.1,3.6L64.1,4.1L63.1,4.1L63.1,5.1L61.1,5.1L61.1,5.6L60.6,5.6L60.6,6.1L60,6.1L60,5.9L60.4,5.9L60.4,5.4L60.9,5.4L60.9,4.9L62.9,4.9L62.9,3.9L63.9,3.9L63.9,3.4L65.6,3.4L65.6,5.1L65.1,5.1L65.1,6.1L64.6,6.1L64.6,7.1L64.1,7.1L64.1,7.9L76.4,7.9L76.4,7.6L64.5,7.6L64.5,7.4z" stroke="none"/><path d="M33,4.6L33,4.4L34.5,4.4L34.5,4.6z" stroke="none"/><path d="M46.5,10.6L46.5,10.4L47.4,10.4L47.4,9.4L47.9,9.4L47.9,9L48.1,9L48.1,9.6L47.6,9.6L47.6,10.6z" stroke="none"/><path d="M79.6,12L79.4,12L79.4,11.4L79.9,11.4L79.9,10.9L80.9,10.9L80.9,9L81.1,9L81.1,11.1L80.1,11.1L80.1,11.6L79.6,11.6z" stroke="none"/><path d="M75,3.1L75,2.9L75.6,2.9L75.6,3.9L78.4,3.9L78.4,3.4L78.9,3.4L78.9,2.9L79.5,2.9L79.5,3.1L79.1,3.1L79.1,3.6L78.6,3.6L78.6,4.1L75.4,4.1L75.4,3.1z" stroke="none"/><path d="M85.5,4.4L85.5,4.6L79.5,4.6L79.5,4.4z" stroke="none"/><path d="M39,12.1L39,11.9L42.9,11.9L42.9,10.4L45,10.4L45,10.6L43.1,10.6L43.1,12.1z" stroke="none"/><path d="M94.5,7.6L94.5,7.4L96.9,7.4L96.9,6.9L97.4,6.9L97.4,6.4L97.9,6.4L97.9,5.9L100.5,5.9L100.5,6.1L98.1,6.1L98.1,6.6L97.6,6.6L97.6,7.1L97.1,7.1L97.1,7.6z" stroke="none"/><path d="M91.5,5.9L91.5,6.1L90.9,6.1L90.9,5.1L89.4,5.1L89.4,4.6L87.9,4.6L87.9,3.6L85.4,3.6L85.4,3.1L84,3.1L84,2.9L85.6,2.9L85.6,3.4L88.1,3.4L88.1,4.4L89.6,4.4L89.6,4.9L91.1,4.9L91.1,5.9z" stroke="none"/><path d="M15,4.4L15,4.6L9.6,4.6L9.6,5.1L8.1,5.1L8.1,5.6L6.4,5.6L6.4,3.1L6,3.1L6,2.9L6.6,2.9L6.6,5.4L7.9,5.4L7.9,4.9L9.4,4.9L9.4,4.4z" stroke="none"/><path d="M69,11.9L69,12.1L58.5,12.1L58.5,11.9z" stroke="none"/><path d="M39,4.4L39,4.6L35.9,4.6L35.9,3.6L28.4,3.6L28.4,3L28.6,3L28.6,3.4L36.1,3.4L36.1,4.4z" stroke="none"/><path d="M88.5,2.9L88.5,3.1L86.9,3.1L86.9,2.6L84.4,2.6L84.4,2.1L78.6,2.1L78.6,2.6L78.1,2.6L78.1,3.1L76.5,3.1L76.5,2.9L77.9,2.9L77.9,2.4L78.4,2.4L78.4,1.9L84.6,1.9L84.6,2.4L87.1,2.4L87.1,2.9z" stroke="none"/><path d="M90,7.6L90,7.4L91.1,7.4L91.1,7.9L92.1,7.9L92.1,8.4L99.9,8.4L99.9,7.9L100.4,7.9L100.4,7.4L102,7.4L102,7.6L100.6,7.6L100.6,8.1L100.1,8.1L100.1,8.6L91.9,8.6L91.9,8.1L90.9,8.1L90.9,7.6z" stroke="none"/><path d="M84,12.1L84,11.9L86.9,11.9L86.9,11.4L88.9,11.4L88.9,10.9L93.9,10.9L93.9,10.4L94.4,10.4L94.4,9.9L94.9,9.9L94.9,9.4L97.1,9.4L97.1,10.4L97.5,10.4L97.5,10.6L96.9,10.6L96.9,9.6L95.1,9.6L95.1,10.1L94.6,10.1L94.6,10.6L94.1,10.6L94.1,11.1L89.1,11.1L89.1,11.6L87.1,11.6L87.1,12.1z" stroke="none"/><path d="M7.5,4.6L7.5,4.4L8.9,4.4L8.9,3.9L14.4,3.9L14.4,3.4L15.6,3.4L15.6,3.9L16.1,3.9L16.1,6.4L16.6,6.4L16.6,6.9L17.6,6.9L17.6,7.4L19.6,7.4L19.6,7.9L23.6,7.9L23.6,8.4L24.9,8.4L24.9,7.1L24.4,7.1L24.4,6.6L22.4,6.6L22.4,6L22.6,6L22.6,6.4L24.6,6.4L24.6,6.9L25.1,6.9L25.1,8.6L23.4,8.6L23.4,8.1L19.4,8.1L19.4,7.6L17.4,7.6L17.4,7.1L16.4,7.1L16.4,6.6L15.9,6.6L15.9,4.1L15.4,4.1L15.4,3.6L14.6,3.6L14.6,4.1L9.1,4.1L9.1,4.6z" stroke="none"/><path d="M94.5,4.6L94.5,4.4L101.1,4.4L101.1,4.9L101.6,4.9L101.6,6.4L102.6,6.4L102.6,6.9L103.1,6.9L103.1,8.6L100.6,8.6L100.6,9.1L99.6,9.1L99.6,9.6L98.6,9.6L98.6,11.6L96.1,11.6L96.1,12.1L95.6,12.1L95.6,13.1L92.1,13.1L92.1,13.6L47.4,13.6L47.4,12.6L46.9,12.6L46.9,11.4L47.4,11.4L47.4,10.9L47.9,10.9L47.9,10.4L48.9,10.4L48.9,9.4L76.9,9.4L76.9,8.9L77.4,8.9L77.4,8.4L78.9,8.4L78.9,7.9L79.4,7.9L79.4,7.5L79.6,7.5L79.6,8.1L79.1,8.1L79.1,8.6L77.6,8.6L77.6,9.1L77.1,9.1L77.1,9.6L49.1,9.6L49.1,10.6L48.1,10.6L48.1,11.1L47.6,11.1L47.6,11.6L47.1,11.6L47.1,12.4L47.6,12.4L47.6,13.4L91.9,13.4L91.9,12.9L95.4,12.9L95.4,11.9L95.9,11.9L95.9,11.4L98.4,11.4L98.4,9.4L99.4,9.4L99.4,8.9L100.4,8.9L100.4,8.4L102.9,8.4L102.9,7.1L102.4,7.1L102.4,6.6L101.4,6.6L101.4,5.1L100.9,5.1L100.9,4.6z" stroke="none"/><path d="M16.5,12.1L16.5,11.9L32.1,11.9L32.1,12.4L32.6,12.4L32.6,12.9L33.9,12.9L33.9,10.9L34.4,10.9L34.4,10.5L34.6,10.5L34.6,11.1L34.1,11.1L34.1,13.1L32.4,13.1L32.4,12.6L31.9,12.6L31.9,12.1z" stroke="none"/><path d="M33,10.4L33,10.6L14.4,10.6L14.4,9.6L13.9,9.6L13.9,9.1L13.5,9.1L13.5,8.9L14.1,8.9L14.1,9.4L14.6,9.4L14.6,10.4z" stroke="none"/><path d="M21,3.1L21,2.9L21.4,2.9L21.4,2.4L26.4,2.4L26.4,1.9L38.6,1.9L38.6,2.4L39.6,2.4L39.6,2.9L40.1,2.9L40.1,3.4L41.1,3.4L41.1,3.9L42.1,3.9L42.1,4.5L41.9,4.5L41.9,4.1L40.9,4.1L40.9,3.6L39.9,3.6L39.9,3.1L39.4,3.1L39.4,2.6L38.4,2.6L38.4,2.1L26.6,2.1L26.6,2.6L21.6,2.6L21.6,3.1z" stroke="none"/><path d="M63,2.9L63,3.1L45.9,3.1L45.9,2.6L42.9,2.6L42.9,2.1L39.4,2.1L39.4,1.6L5.1,1.6L5.1,4.9L5.6,4.9L5.6,5.4L6.1,5.4L6.1,5.9L15.6,5.9L15.6,6.9L16.1,6.9L16.1,7.4L17.1,7.4L17.1,7.9L19.1,7.9L19.1,8.4L22.1,8.4L22.1,8.9L29.9,8.9L29.9,8.4L30.9,8.4L30.9,7.4L31.4,7.4L31.4,6.9L34.4,6.9L34.4,6.4L35.4,6.4L35.4,5.9L36,5.9L36,6.1L35.6,6.1L35.6,6.6L34.6,6.6L34.6,7.1L31.6,7.1L31.6,7.6L31.1,7.6L31.1,8.6L30.1,8.6L30.1,9.1L21.9,9.1L21.9,8.6L18.9,8.6L18.9,8.1L16.9,8.1L16.9,7.6L15.9,7.6L15.9,7.1L15.4,7.1L15.4,6.1L5.9,6.1L5.9,5.6L5.4,5.6L5.4,5.1L4.9,5.1L4.9,1.4L39.6,1.4L39.6,1.9L43.1,1.9L43.1,2.4L46.1,2.4L46.1,2.9z" stroke="none"/><path d="M33,8.9L33,9.1L30.6,9.1L30.6,9.6L19.9,9.6L19.9,9.1L14.9,9.1L14.9,8.1L5.9,8.1L5.9,6.6L4.9,6.6L4.9,6.1L4.5,6.1L4.5,5.9L5.1,5.9L5.1,6.4L6.1,6.4L6.1,7.9L15.1,7.9L15.1,8.9L20.1,8.9L20.1,9.4L30.4,9.4L30.4,8.9z" stroke="none"/><path d="M2.9,9L3.1,9L3.1,11.4L3.6,11.4L3.6,12.9L31.1,12.9L31.1,13.4L34.9,13.4L34.9,12.9L35.4,12.9L35.4,7.4L36,7.4L36,7.6L35.6,7.6L35.6,13.1L35.1,13.1L35.1,13.6L30.9,13.6L30.9,13.1L3.4,13.1L3.4,11.6L2.9,11.6z" stroke="none"/><path d="M49.5,5.9L49.5,6.1L41.1,6.1L41.1,7.6L40.6,7.6L40.6,8.1L40.1,8.1L40.1,9.1L39.6,9.1L39.6,10.6L38.1,10.6L38.1,11.1L37.6,11.1L37.6,11.6L37.1,11.6L37.1,12.6L36.6,12.6L36.6,13.1L36.1,13.1L36.1,13.6L35.6,13.6L35.6,14.1L3.4,14.1L3.4,13.6L2.9,13.6L2.9,12.1L2.4,12.1L2.4,9.6L1.9,9.6L1.9,8.4L2.4,8.4L2.4,7.9L3.6,7.9L3.6,8.4L4.1,8.4L4.1,8.9L6.6,8.9L6.6,9.4L7.1,9.4L7.1,9.9L11.6,9.9L11.6,10.4L12,10.4L12,10.6L11.4,10.6L11.4,10.1L6.9,10.1L6.9,9.6L6.4,9.6L6.4,9.1L3.9,9.1L3.9,8.6L3.4,8.6L3.4,8.1L2.6,8.1L2.6,8.6L2.1,8.6L2.1,9.4L2.6,9.4L2.6,11.9L3.1,11.9L3.1,13.4L3.6,13.4L3.6,13.9L35.4,13.9L35.4,13.4L35.9,13.4L35.9,12.9L36.4,12.9L36.4,12.4L36.9,12.4L36.9,11.4L37.4,11.4L37.4,10.9L37.9,10.9L37.9,10.4L39.4,10.4L39.4,8.9L39.9,8.9L39.9,7.9L40.4,7.9L40.4,7.4L40.9,7.4L40.9,5.9z" stroke="none"/><path d="M87,4.4L87,4.6L86.6,4.6L86.6,5.6L75.9,5.6L75.9,5.1L74.9,5.1L74.9,4.6L74.4,4.6L74.4,3.6L73.9,3.6L73.9,1.9L77.9,1.9L77.9,1.4L97.1,1.4L97.1,1.9L97.6,1.9L97.6,2.4L98.6,2.4L98.6,2.9L100.1,2.9L100.1,3.4L102.1,3.4L102.1,4.9L102.6,4.9L102.6,5.4L103.1,5.4L103.1,5.9L103.6,5.9L103.6,9.1L102.6,9.1L102.6,9.6L101.6,9.6L101.6,10.1L100.6,10.1L100.6,10.6L99.6,10.6L99.6,11.1L99.1,11.1L99.1,12.1L96.6,12.1L96.6,12.6L96.1,12.6L96.1,13.6L92.6,13.6L92.6,14.1L38.9,14.1L38.9,13.6L38.4,13.6L38.4,12.6L37.9,12.6L37.9,11.4L38.4,11.4L38.4,10.9L39.9,10.9L39.9,9.9L40.4,9.9L40.4,8.4L41.4,8.4L41.4,7.4L42,7.4L42,7.6L41.6,7.6L41.6,8.6L40.6,8.6L40.6,10.1L40.1,10.1L40.1,11.1L38.6,11.1L38.6,11.6L38.1,11.6L38.1,12.4L38.6,12.4L38.6,13.4L39.1,13.4L39.1,13.9L92.4,13.9L92.4,13.4L95.9,13.4L95.9,12.4L96.4,12.4L96.4,11.9L98.9,11.9L98.9,10.9L99.4,10.9L99.4,10.4L100.4,10.4L100.4,9.9L101.4,9.9L101.4,9.4L102.4,9.4L102.4,8.9L103.4,8.9L103.4,6.1L102.9,6.1L102.9,5.6L102.4,5.6L102.4,5.1L101.9,5.1L101.9,3.6L99.9,3.6L99.9,3.1L98.4,3.1L98.4,2.6L97.4,2.6L97.4,2.1L96.9,2.1L96.9,1.6L78.1,1.6L78.1,2.1L74.1,2.1L74.1,3.4L74.6,3.4L74.6,4.4L75.1,4.4L75.1,4.9L76.1,4.9L76.1,5.4L86.4,5.4L86.4,4.4z" stroke="none"/></svg>