<svg version="1.1" width="105" height="15" xmlns="http://www.w3.org/2000/svg"><path d="M14.4,7.4L14.4,5.9L15,5.9L15,6.1L14.6,6.1L14.6,7.6L12.1,7.6L12.1,7.9L14.1,7.9L14.1,8.9L15,8.9L15,9.1L13.9,9.1L13.9,8.1L11.9,8.1L11.9,7.6L9.4,7.6L9.4,7.1L7.9,7.1L7.9,6.6L7.1,6.6L7.1,7.1L6.6,7.1L6.6,7.6L6,7.6L6,7.4L6.4,7.4L6.4,6.9L6.9,6.9L6.9,6.4L8.1,6.4L8.1,6.9L9.6,6.9L9.6,7.4z" stroke="none"/><path d="M73.4,10.4L73.4,8.9L75,8.9L75,9.1L73.6,9.1L73.6,10.6L63.6,10.6L63.6,11.1L56.6,11.1L56.6,12.1L55.5,12.1L55.5,11.9L56.4,11.9L56.4,10.9L63.4,10.9L63.4,10.6L60,10.6L60,10.4z" stroke="none"/><path d="M56.9,4.9L56.9,4.4L57.4,4.4L57.4,3.9L58.9,3.9L58.9,3.4L76.4,3.4L76.4,3L76.6,3L76.6,3.6L59.1,3.6L59.1,4.1L57.6,4.1L57.6,4.6L57.1,4.6L57.1,5.1L50.1,5.1L50.1,5.6L47.6,5.6L47.6,6.6L47.1,6.6L47.1,7.1L28.1,7.1L28.1,7.6L27,7.6L27,7.4L27.9,7.4L27.9,6.9L46.9,6.9L46.9,6.4L47.4,6.4L47.4,5.4L49.9,5.4L49.9,5.1L46.9,5.1L46.9,4.6L46.5,4.6L46.5,4.4L47.1,4.4L47.1,4.9z" stroke="none"/><path d="M15.9,4.9L15.9,4.4L16.9,4.4L16.9,3.9L31.6,3.9L31.6,4.4L33,4.4L33,4.6L31.4,4.6L31.4,4.1L17.1,4.1L17.1,4.6L16.1,4.6L16.1,4.9L17.4,4.9L17.4,4.4L18,4.4L18,4.6L17.6,4.6L17.6,5.1L16.1,5.1L16.1,10.1L8.9,10.1L8.9,9.6L8.4,9.6L8.4,9.1L7.5,9.1L7.5,8.9L8.6,8.9L8.6,9.4L9.1,9.4L9.1,9.9L15.9,9.9L15.9,5.1L8.6,5.1L8.6,5.6L4.6,5.6L4.6,6.1L3,6.1L3,5.9L4.4,5.9L4.4,5.4L8.4,5.4L8.4,4.9z" stroke="none"/><path d="M49.9,7.4L49.9,6.9L60.1,6.9L60.1,7.4L61.1,7.4L61.1,7.9L61.6,7.9L61.6,9L61.4,9L61.4,8.1L60.9,8.1L60.9,7.6L59.9,7.6L59.9,7.1L50.1,7.1L50.1,7.4L54.6,7.4L54.6,7.9L55.6,7.9L55.6,9L55.4,9L55.4,8.1L54.4,8.1L54.4,7.6L50.1,7.6L50.1,7.9L54.1,7.9L54.1,8.4L54.6,8.4L54.6,8.9L55.1,8.9L55.1,9.4L62.9,9.4L62.9,8.9L63.4,8.9L63.4,7.9L64.4,7.9L64.4,7.5L64.6,7.5L64.6,8.1L63.6,8.1L63.6,9.1L63.1,9.1L63.1,9.6L54.9,9.6L54.9,9.1L54.4,9.1L54.4,8.6L53.9,8.6L53.9,8.1L49.9,8.1L49.9,7.6L28.6,7.6L28.6,8.1L27.6,8.1L27.6,8.6L23.4,8.6L23.4,8.1L20.4,8.1L20.4,7.1L19.4,7.1L19.4,6L19.6,6L19.6,6.9L20.6,6.9L20.6,7.9L23.6,7.9L23.6,8.4L27.4,8.4L27.4,7.9L28.4,7.9L28.4,7.4z" stroke="none"/><path d="M71.9,5.9L71.9,5.4L76.9,5.4L76.9,3.9L77.4,3.9L77.4,2.6L76.9,2.6L76.9,2.1L55.6,2.1L55.6,2.6L49.6,2.6L49.6,3.1L47.1,3.1L47.1,3.6L46.1,3.6L46.1,4.1L45.6,4.1L45.6,4.9L46.1,4.9L46.1,5.4L46.6,5.4L46.6,6L46.4,6L46.4,5.6L45.9,5.6L45.9,5.1L45.4,5.1L45.4,3.9L45.9,3.9L45.9,3.4L46.9,3.4L46.9,2.9L49.4,2.9L49.4,2.4L55.4,2.4L55.4,1.9L77.1,1.9L77.1,2.4L77.6,2.4L77.6,4.1L77.1,4.1L77.1,5.6L72.1,5.6L72.1,5.9L87.4,5.9L87.4,5.4L88.4,5.4L88.4,4.5L88.6,4.5L88.6,5.6L87.6,5.6L87.6,6.1L72.1,6.1L72.1,6.4L88.6,6.4L88.6,6.9L90.1,6.9L90.1,7.5L89.9,7.5L89.9,7.1L88.4,7.1L88.4,6.6L71.9,6.6L71.9,6.1L64.1,6.1L64.1,6.6L63.1,6.6L63.1,7.5L62.9,7.5L62.9,6.4L63.9,6.4L63.9,5.9z" stroke="none"/><path d="M24,3.1L24,2.9L25.5,2.9L25.5,3.1z" stroke="none"/><path d="M97.5,6.1L97.5,5.9L98.6,5.9L98.6,8.1L98.1,8.1L98.1,8.6L97.6,8.6L97.6,9L97.4,9L97.4,8.4L97.9,8.4L97.9,7.9L98.4,7.9L98.4,6.1z" stroke="none"/><path d="M40.4,4.5L40.6,4.5L40.6,5.1L40.1,5.1L40.1,5.6L39.1,5.6L39.1,6.1L37.5,6.1L37.5,5.9L38.9,5.9L38.9,5.4L39.9,5.4L39.9,4.9L40.4,4.9z" stroke="none"/><path d="M45,12.1L45,11.9L47.4,11.9L47.4,11.4L47.9,11.4L47.9,10.5L48.1,10.5L48.1,11.6L47.6,11.6L47.6,12.1z" stroke="none"/><path d="M21,6.1L21,5.9L25.5,5.9L25.5,6.1z" stroke="none"/><path d="M97.5,10.6L97.5,10.4L100.9,10.4L100.9,9.4L101.4,9.4L101.4,8.9L102,8.9L102,9.1L101.6,9.1L101.6,9.6L101.1,9.6L101.1,10.6z" stroke="none"/><path d="M85.5,7.6L85.5,7.4L89.1,7.4L89.1,7.9L89.6,7.9L89.6,8.4L90.4,8.4L90.4,7.9L90.9,7.9L90.9,6.6L89.9,6.6L89.9,4.1L88.9,4.1L88.9,3.6L85.4,3.6L85.4,3.1L84.9,3.1L84.9,2.6L84.4,2.6L84.4,2.1L83.6,2.1L83.6,2.6L82.6,2.6L82.6,3L82.4,3L82.4,2.4L83.4,2.4L83.4,1.9L84.6,1.9L84.6,2.4L85.1,2.4L85.1,2.9L85.6,2.9L85.6,3.4L89.1,3.4L89.1,3.9L90.1,3.9L90.1,6.4L91.1,6.4L91.1,8.1L90.6,8.1L90.6,8.6L89.4,8.6L89.4,8.1L88.9,8.1L88.9,7.6z" stroke="none"/><path d="M63,4.4L63,4.6L58.6,4.6L58.6,5.6L57.1,5.6L57.1,6L56.9,6L56.9,5.4L58.4,5.4L58.4,4.4z" stroke="none"/><path d="M15,11.9L15,12.1L13.1,12.1L13.1,12.6L12.6,12.6L12.6,13.1L9.9,13.1L9.9,12.6L9.4,12.6L9.4,12.1L7.5,12.1L7.5,11.9L9.6,11.9L9.6,12.4L10.1,12.4L10.1,12.9L12.4,12.9L12.4,12.4L12.9,12.4L12.9,11.9z" stroke="none"/><path d="M84,4.4L84,4.6L82.4,4.6L82.4,4.1L81.9,4.1L81.9,3.6L81.4,3.6L81.4,2.4L81.9,2.4L81.9,1.9L82.9,1.9L82.9,1.4L88.1,1.4L88.1,1.9L88.6,1.9L88.6,2.4L89.6,2.4L89.6,3.4L90.6,3.4L90.6,5.4L91.6,5.4L91.6,6L91.4,6L91.4,5.6L90.4,5.6L90.4,3.6L89.4,3.6L89.4,2.6L88.4,2.6L88.4,2.1L87.9,2.1L87.9,1.6L83.1,1.6L83.1,2.1L82.1,2.1L82.1,2.6L81.6,2.6L81.6,3.4L82.1,3.4L82.1,3.9L82.6,3.9L82.6,4.4z" stroke="none"/><path d="M3,12.1L3,11.9L5.9,11.9L5.9,11.4L6.9,11.4L6.9,10.9L9.1,10.9L9.1,11.4L11.6,11.4L11.6,11.9L12,11.9L12,12.1L11.4,12.1L11.4,11.6L8.9,11.6L8.9,11.1L7.1,11.1L7.1,11.6L6.1,11.6L6.1,12.1z" stroke="none"/><path d="M31.5,11.9L31.5,12.1L22.9,12.1L22.9,10.6L21,10.6L21,10.4L23.1,10.4L23.1,11.9z" stroke="none"/><path d="M15,3.1L15,2.9L22.4,2.9L22.4,2.4L23.4,2.4L23.4,1.9L28.1,1.9L28.1,2.4L28.6,2.4L28.6,3L28.4,3L28.4,2.6L27.9,2.6L27.9,2.1L23.6,2.1L23.6,2.6L22.6,2.6L22.6,3.1z" stroke="none"/><path d="M78,7.6L78,7.4L81.1,7.4L81.1,7.9L83.6,7.9L83.6,8.4L85.1,8.4L85.1,8.9L93,8.9L93,9.1L84.9,9.1L84.9,8.6L83.4,8.6L83.4,8.1L80.9,8.1L80.9,7.6z" stroke="none"/><path d="M43.5,8.9L43.5,9.1L19.9,9.1L19.9,7.6L18.4,7.6L18.4,4.9L26.6,4.9L26.6,5.4L27.1,5.4L27.1,6L26.9,6L26.9,5.6L26.4,5.6L26.4,5.1L18.6,5.1L18.6,7.4L20.1,7.4L20.1,8.9z" stroke="none"/><path d="M79.5,12.1L79.5,11.9L92.9,11.9L92.9,10.9L94.9,10.9L94.9,10.4L95.9,10.4L95.9,8.4L96.4,8.4L96.4,7.4L97.5,7.4L97.5,7.6L96.6,7.6L96.6,8.6L96.1,8.6L96.1,10.6L95.1,10.6L95.1,11.1L93.1,11.1L93.1,12.1z" stroke="none"/><path d="M102.1,6L101.9,6L101.9,4.1L100.9,4.1L100.9,3.6L98.4,3.6L98.4,3.1L94.9,3.1L94.9,2.6L93.9,2.6L93.9,2.1L89.4,2.1L89.4,1.1L82.1,1.1L82.1,1.6L81.1,1.6L81.1,4.5L80.9,4.5L80.9,1.4L81.9,1.4L81.9,0.9L89.6,0.9L89.6,1.9L94.1,1.9L94.1,2.4L95.1,2.4L95.1,2.9L98.6,2.9L98.6,3.4L101.1,3.4L101.1,3.9L102.1,3.9z" stroke="none"/><path d="M30,6.1L30,5.9L33.9,5.9L33.9,4.1L33.4,4.1L33.4,3.6L29.9,3.6L29.9,3.1L29.4,3.1L29.4,2.6L28.9,2.6L28.9,2.1L28.4,2.1L28.4,1.6L7.6,1.6L7.6,3L7.4,3L7.4,1.4L28.6,1.4L28.6,1.9L29.1,1.9L29.1,2.4L29.6,2.4L29.6,2.9L30.1,2.9L30.1,3.4L33.6,3.4L33.6,3.9L34.1,3.9L34.1,6.1z" stroke="none"/><path d="M70.5,7.6L70.5,7.4L76.1,7.4L76.1,9.6L75.6,9.6L75.6,10.1L74.1,10.1L74.1,11.1L64.1,11.1L64.1,11.6L57.1,11.6L57.1,12.6L56.1,12.6L56.1,13.1L52.9,13.1L52.9,12.1L51.9,12.1L51.9,11.1L50.4,11.1L50.4,10.6L49.4,10.6L49.4,9.6L45.6,9.6L45.6,10.6L45,10.6L45,10.4L45.4,10.4L45.4,9.4L49.6,9.4L49.6,10.4L50.6,10.4L50.6,10.9L52.1,10.9L52.1,11.9L53.1,11.9L53.1,12.9L55.9,12.9L55.9,12.4L56.9,12.4L56.9,11.4L63.9,11.4L63.9,10.9L73.9,10.9L73.9,9.9L75.4,9.9L75.4,9.4L75.9,9.4L75.9,7.6z" stroke="none"/><path d="M7.5,7.4L7.5,7.6L7.1,7.6L7.1,8.6L6.6,8.6L6.6,9.4L7.1,9.4L7.1,9.9L8.1,9.9L8.1,10.4L16.4,10.4L16.4,9.9L19.9,9.9L19.9,9.4L39.6,9.4L39.6,9.9L40.1,9.9L40.1,10.4L40.5,10.4L40.5,10.6L39.9,10.6L39.9,10.1L39.4,10.1L39.4,9.6L20.1,9.6L20.1,10.1L16.6,10.1L16.6,10.6L7.9,10.6L7.9,10.1L6.9,10.1L6.9,9.6L6.4,9.6L6.4,8.4L6.9,8.4L6.9,7.4z" stroke="none"/><path d="M37.5,11.9L37.5,12.1L33.1,12.1L33.1,12.6L32.6,12.6L32.6,13.1L18.1,13.1L18.1,13.6L3.9,13.6L3.9,13.1L2.4,13.1L2.4,12.6L1.9,12.6L1.9,11.4L2.4,11.4L2.4,10.4L3.4,10.4L3.4,8.4L4.4,8.4L4.4,7.5L4.6,7.5L4.6,8.6L3.6,8.6L3.6,10.6L2.6,10.6L2.6,11.6L2.1,11.6L2.1,12.4L2.6,12.4L2.6,12.9L4.1,12.9L4.1,13.4L17.9,13.4L17.9,12.9L32.4,12.9L32.4,12.4L32.9,12.4L32.9,11.9z" stroke="none"/><path d="M84,3.1L84,2.9L84.6,2.9L84.6,3.9L85.1,3.9L85.1,5.1L84.6,5.1L84.6,5.6L80.4,5.6L80.4,5.1L79.9,5.1L79.9,3.1L79.4,3.1L79.4,2.6L77.9,2.6L77.9,2.1L77.4,2.1L77.4,1.6L40.1,1.6L40.1,2.6L39.1,2.6L39.1,3L38.9,3L38.9,2.4L39.9,2.4L39.9,1.4L77.6,1.4L77.6,1.9L78.1,1.9L78.1,2.4L79.6,2.4L79.6,2.9L80.1,2.9L80.1,4.9L80.6,4.9L80.6,5.4L84.4,5.4L84.4,4.9L84.9,4.9L84.9,4.1L84.4,4.1L84.4,3.1z" stroke="none"/><path d="M81,9.1L81,8.9L84.1,8.9L84.1,9.4L92.1,9.4L92.1,9.9L93.9,9.9L93.9,7.9L94.9,7.9L94.9,5.9L95.9,5.9L95.9,5.4L96.9,5.4L96.9,4.9L99.6,4.9L99.6,5.4L100.1,5.4L100.1,5.9L100.6,5.9L100.6,6.4L101.6,6.4L101.6,6.9L102.9,6.9L102.9,4.6L102.4,4.6L102.4,3.6L101.4,3.6L101.4,3.1L98.9,3.1L98.9,2.6L97.9,2.6L97.9,2.1L94.4,2.1L94.4,1.6L89.9,1.6L89.9,0.6L40.1,0.6L40.1,1.1L39.6,1.1L39.6,2.1L38.6,2.1L38.6,2.6L38.1,2.6L38.1,4.1L37.1,4.1L37.1,4.6L36.6,4.6L36.6,5.1L36.1,5.1L36.1,6L35.9,6L35.9,4.9L36.4,4.9L36.4,4.4L36.9,4.4L36.9,3.9L37.9,3.9L37.9,2.4L38.4,2.4L38.4,1.9L39.4,1.9L39.4,0.9L39.9,0.9L39.9,0.4L90.1,0.4L90.1,1.4L94.6,1.4L94.6,1.9L98.1,1.9L98.1,2.4L99.1,2.4L99.1,2.9L101.6,2.9L101.6,3.4L102.6,3.4L102.6,4.4L103.1,4.4L103.1,7.1L101.4,7.1L101.4,6.6L100.4,6.6L100.4,6.1L99.9,6.1L99.9,5.6L99.4,5.6L99.4,5.1L97.1,5.1L97.1,5.6L96.1,5.6L96.1,6.1L95.1,6.1L95.1,8.1L94.1,8.1L94.1,10.1L91.9,10.1L91.9,9.6L83.9,9.6L83.9,9.1z" stroke="none"/><path d="M78,11.9L78,12.1L57.6,12.1L57.6,13.1L56.6,13.1L56.6,13.6L39.4,13.6L39.4,12.6L38.4,12.6L38.4,11.6L37.9,11.6L37.9,11.1L31.9,11.1L31.9,10.6L31.5,10.6L31.5,10.4L32.1,10.4L32.1,10.9L38.1,10.9L38.1,11.4L38.6,11.4L38.6,12.4L39.6,12.4L39.6,13.4L56.4,13.4L56.4,12.9L57.4,12.9L57.4,11.9z" stroke="none"/></svg>