<svg version="1.1" width="105" height="15" xmlns="http://www.w3.org/2000/svg"><path d="M99,2.9L99,3.1L93.1,3.1L93.1,4.5L92.9,4.5L92.9,3.1L92.6,3.1L92.6,3.6L92.1,3.6L92.1,4.1L85.6,4.1L85.6,4.5L85.4,4.5L85.4,3.9L91.9,3.9L91.9,3.4L92.4,3.4L92.4,2.9z" stroke="none"/><path d="M91.9,6.9L91.9,6.4L92.4,6.4L92.4,5.9L92.9,5.9L92.9,5.4L93.9,5.4L93.9,4.9L98.9,4.9L98.9,4.5L99.1,4.5L99.1,5.1L94.1,5.1L94.1,5.6L93.1,5.6L93.1,6.1L92.6,6.1L92.6,6.6L92.1,6.6L92.1,7.1L84.6,7.1L84.6,8.9L85.5,8.9L85.5,9.1L84.4,9.1L84.4,7.1L73.1,7.1L73.1,7.6L69,7.6L69,7.4L72.9,7.4L72.9,6.9z" stroke="none"/><path d="M71.4,9.4L71.4,8.9L72,8.9L72,9.1L71.6,9.1L71.6,9.6L58.6,9.6L58.6,10.1L58.1,10.1L58.1,10.6L51,10.6L51,10.4L57.9,10.4L57.9,9.9L58.4,9.9L58.4,9.6L57.6,9.6L57.6,10.1L54.9,10.1L54.9,9.6L54.4,9.6L54.4,9.1L52.5,9.1L52.5,8.9L54.6,8.9L54.6,9.4L55.1,9.4L55.1,9.9L57.4,9.9L57.4,9.4z" stroke="none"/><path d="M63.9,8.4L63.9,8.1L52.1,8.1L52.1,8.6L51.6,8.6L51.6,9.6L50.6,9.6L50.6,10.1L49.6,10.1L49.6,10.5L49.4,10.5L49.4,9.9L50.4,9.9L50.4,9.4L51.4,9.4L51.4,8.4L51.9,8.4L51.9,7.9L64.1,7.9L64.1,8.4L64.4,8.4L64.4,7.9L64.9,7.9L64.9,7.4L65.4,7.4L65.4,6.9L66.9,6.9L66.9,6.4L67.4,6.4L67.4,6L67.6,6L67.6,6.6L67.1,6.6L67.1,7.1L65.6,7.1L65.6,7.6L65.1,7.6L65.1,8.1L64.6,8.1L64.6,8.6L64.1,8.6L64.1,8.9L69.4,8.9L69.4,8.4L69.9,8.4L69.9,7.9L81.1,7.9L81.1,8.4L81.6,8.4L81.6,8.9L82.5,8.9L82.5,9.1L81.4,9.1L81.4,8.6L80.9,8.6L80.9,8.1L70.1,8.1L70.1,8.6L69.6,8.6L69.6,9.1L63.9,9.1L63.9,8.6L58.1,8.6L58.1,9.1L57,9.1L57,8.9L57.9,8.9L57.9,8.4z" stroke="none"/><path d="M71.4,4.4L71.4,4.1L66.4,4.1L66.4,3.6L65.9,3.6L65.9,2.6L55.9,2.6L55.9,2.1L28.6,2.1L28.6,2.6L28.1,2.6L28.1,4.1L27.6,4.1L27.6,5.4L28.1,5.4L28.1,5.9L28.6,5.9L28.6,6.9L29.1,6.9L29.1,9.4L29.6,9.4L29.6,9.9L31.4,9.9L31.4,8.9L33.4,8.9L33.4,8.4L33.9,8.4L33.9,7.9L42.9,7.9L42.9,7.4L43.5,7.4L43.5,7.6L43.1,7.6L43.1,8.1L34.1,8.1L34.1,8.6L33.6,8.6L33.6,9.1L31.6,9.1L31.6,10.1L29.4,10.1L29.4,9.6L28.9,9.6L28.9,7.1L28.4,7.1L28.4,6.1L27.9,6.1L27.9,5.6L27.4,5.6L27.4,3.9L27.9,3.9L27.9,2.4L28.4,2.4L28.4,1.9L56.1,1.9L56.1,2.4L66.1,2.4L66.1,3.4L66.6,3.4L66.6,3.9L71.6,3.9L71.6,4.4L84.4,4.4L84.4,3.4L87.9,3.4L87.9,2.9L88.5,2.9L88.5,3.1L88.1,3.1L88.1,3.6L84.6,3.6L84.6,4.6L71.6,4.6L71.6,4.9L85.1,4.9L85.1,5.4L90.1,5.4L90.1,5.9L91.5,5.9L91.5,6.1L89.9,6.1L89.9,5.6L84.9,5.6L84.9,5.1L71.4,5.1L71.4,4.6L65.9,4.6L65.9,4.1L64.9,4.1L64.9,3.1L63,3.1L63,2.9L65.1,2.9L65.1,3.9L66.1,3.9L66.1,4.4z" stroke="none"/><path d="M44.9,6.4L44.9,6.1L30.9,6.1L30.9,5.6L29.4,5.6L29.4,5.1L28.9,5.1L28.9,4.6L28.5,4.6L28.5,4.4L29.1,4.4L29.1,4.9L29.6,4.9L29.6,5.4L31.1,5.4L31.1,5.9L45.1,5.9L45.1,6.4L49.4,6.4L49.4,5.9L55.5,5.9L55.5,6.1L49.6,6.1L49.6,6.6L45.1,6.6L45.1,6.9L64.9,6.9L64.9,6.4L66.4,6.4L66.4,5.4L66.9,5.4L66.9,4.9L68.1,4.9L68.1,5.4L68.6,5.4L68.6,7.1L67.6,7.1L67.6,7.5L67.4,7.5L67.4,6.9L68.4,6.9L68.4,5.6L67.9,5.6L67.9,5.1L67.1,5.1L67.1,5.6L66.6,5.6L66.6,6.6L65.1,6.6L65.1,7.1L44.9,7.1L44.9,6.6L31.6,6.6L31.6,7.6L31.1,7.6L31.1,8.1L30.6,8.1L30.6,9.1L30,9.1L30,8.9L30.4,8.9L30.4,7.9L30.9,7.9L30.9,7.4L31.4,7.4L31.4,6.4z" stroke="none"/><path d="M43.5,10.4L43.5,10.6L41.9,10.6L41.9,9.6L40.9,9.6L40.9,9.1L40.5,9.1L40.5,8.9L41.1,8.9L41.1,9.4L42.1,9.4L42.1,10.4z" stroke="none"/><path d="M94.5,6.1L94.5,5.9L95.1,5.9L95.1,6.4L95.6,6.4L95.6,8.4L96.1,8.4L96.1,9L95.9,9L95.9,8.6L95.4,8.6L95.4,6.6L94.9,6.6L94.9,6.1z" stroke="none"/><path d="M91.5,10.6L91.5,10.4L92.4,10.4L92.4,9.9L93.4,9.9L93.4,9.4L94.4,9.4L94.4,7.5L94.6,7.5L94.6,9.6L93.6,9.6L93.6,10.1L92.6,10.1L92.6,10.6z" stroke="none"/><path d="M39,10.4L39,10.6L34.5,10.6L34.5,10.4z" stroke="none"/><path d="M6.1,12L5.9,12L5.9,8.6L4.9,8.6L4.9,8.1L4.4,8.1L4.4,7.5L4.6,7.5L4.6,7.9L5.1,7.9L5.1,8.4L6.1,8.4z" stroke="none"/><path d="M51,2.9L51,3.1L48.1,3.1L48.1,3.6L46.1,3.6L46.1,4.1L45.1,4.1L45.1,4.5L44.9,4.5L44.9,3.9L45.9,3.9L45.9,3.4L47.9,3.4L47.9,2.9z" stroke="none"/><path d="M57,4.6L57,4.4L64.5,4.4L64.5,4.6z" stroke="none"/><path d="M84,3.1L84,2.9L85.9,2.9L85.9,2.4L87.9,2.4L87.9,1.9L90.6,1.9L90.6,2.9L91.5,2.9L91.5,3.1L90.4,3.1L90.4,2.1L88.1,2.1L88.1,2.6L86.1,2.6L86.1,3.1z" stroke="none"/><path d="M25.5,10.4L25.5,10.6L22.4,10.6L22.4,10.1L19.9,10.1L19.9,9.6L18.9,9.6L18.9,9.1L18,9.1L18,8.9L19.1,8.9L19.1,9.4L20.1,9.4L20.1,9.9L22.6,9.9L22.6,10.4z" stroke="none"/><path d="M45,2.9L45,3.1L44.1,3.1L44.1,4.9L44.6,4.9L44.6,5.4L50.9,5.4L50.9,4.9L52.9,4.9L52.9,3.9L53.4,3.9L53.4,3.4L53.9,3.4L53.9,3L54.1,3L54.1,3.6L53.6,3.6L53.6,4.1L53.1,4.1L53.1,5.1L51.1,5.1L51.1,5.6L44.4,5.6L44.4,5.1L43.9,5.1L43.9,2.9z" stroke="none"/><path d="M82.5,2.9L82.5,3.1L72,3.1L72,2.9z" stroke="none"/><path d="M79.5,9.1L79.5,8.9L81.1,8.9L81.1,9.4L82.1,9.4L82.1,9.9L86.6,9.9L86.6,10.4L90,10.4L90,10.6L86.4,10.6L86.4,10.1L81.9,10.1L81.9,9.6L80.9,9.6L80.9,9.1z" stroke="none"/><path d="M54,4.6L54,4.4L55.6,4.4L55.6,4.9L56.6,4.9L56.6,5.4L64.6,5.4L64.6,6L64.4,6L64.4,5.6L56.4,5.6L56.4,5.1L55.4,5.1L55.4,4.6z" stroke="none"/><path d="M10.5,12.1L10.5,11.9L13.9,11.9L13.9,10.4L14.4,10.4L14.4,9.9L14.9,9.9L14.9,9.4L15.9,9.4L15.9,8.4L17.4,8.4L17.4,7.9L21.1,7.9L21.1,9L20.9,9L20.9,8.1L17.6,8.1L17.6,8.6L16.1,8.6L16.1,9.6L15.1,9.6L15.1,10.1L14.6,10.1L14.6,10.6L14.1,10.6L14.1,12.1z" stroke="none"/><path d="M21,2.9L21,3.1L8.6,3.1L8.6,3.6L8.1,3.6L8.1,4.1L7.1,4.1L7.1,4.6L6,4.6L6,4.4L6.9,4.4L6.9,3.9L7.9,3.9L7.9,3.4L8.4,3.4L8.4,2.9z" stroke="none"/><path d="M34.5,8.9L34.5,9.1L34.1,9.1L34.1,9.6L32.1,9.6L32.1,10.6L29.6,10.6L29.6,11.1L26.1,11.1L26.1,11.6L24.9,11.6L24.9,11.1L20.9,11.1L20.9,10.6L19.5,10.6L19.5,10.4L21.1,10.4L21.1,10.9L25.1,10.9L25.1,11.4L25.9,11.4L25.9,10.9L29.4,10.9L29.4,10.4L31.9,10.4L31.9,9.4L33.9,9.4L33.9,8.9z" stroke="none"/><path d="M19.5,5.9L19.5,6.1L4.1,6.1L4.1,7.1L3.6,7.1L3.6,8.4L4.6,8.4L4.6,9L4.4,9L4.4,8.6L3.4,8.6L3.4,6.9L3.9,6.9L3.9,5.9z" stroke="none"/><path d="M78,9.1L78,8.9L78.6,8.9L78.6,9.9L81.6,9.9L81.6,10.4L85.6,10.4L85.6,10.9L89.6,10.9L89.6,11.4L92.4,11.4L92.4,10.9L98.4,10.9L98.4,10.4L99,10.4L99,10.6L98.6,10.6L98.6,11.1L92.6,11.1L92.6,11.6L89.4,11.6L89.4,11.1L85.4,11.1L85.4,10.6L81.4,10.6L81.4,10.1L78.4,10.1L78.4,9.1z" stroke="none"/><path d="M22.5,5.9L22.5,6.1L20.6,6.1L20.6,7.1L13.1,7.1L13.1,8.1L12.6,8.1L12.6,9.6L11.1,9.6L11.1,10.6L10.1,10.6L10.1,11.6L9.6,11.6L9.6,12.4L10.1,12.4L10.1,12.9L44.4,12.9L44.4,11.9L44.9,11.9L44.9,10.5L45.1,10.5L45.1,12.1L44.6,12.1L44.6,13.1L9.9,13.1L9.9,12.6L9.4,12.6L9.4,11.4L9.9,11.4L9.9,10.4L10.9,10.4L10.9,9.4L12.4,9.4L12.4,7.9L12.9,7.9L12.9,6.9L20.4,6.9L20.4,5.9z" stroke="none"/><path d="M18,12.1L18,11.9L42,11.9L42,12.1z" stroke="none"/><path d="M46.4,9L46.6,9L46.6,9.4L47.1,9.4L47.1,9.9L47.6,9.9L47.6,11.6L47.1,11.6L47.1,12.1L46.6,12.1L46.6,12.6L46.1,12.6L46.1,13.1L45.1,13.1L45.1,13.6L9.4,13.6L9.4,13.1L8.9,13.1L8.9,9L9.1,9L9.1,12.9L9.6,12.9L9.6,13.4L44.9,13.4L44.9,12.9L45.9,12.9L45.9,12.4L46.4,12.4L46.4,11.9L46.9,11.9L46.9,11.4L47.4,11.4L47.4,10.1L46.9,10.1L46.9,9.6L46.4,9.6z" stroke="none"/><path d="M47.9,9L48.1,9L48.1,12.1L47.6,12.1L47.6,12.6L47.1,12.6L47.1,13.1L46.6,13.1L46.6,13.6L46.1,13.6L46.1,14.1L8.9,14.1L8.9,13.6L8.4,13.6L8.4,11.1L7.9,11.1L7.9,9.1L7.5,9.1L7.5,8.9L8.1,8.9L8.1,10.9L8.6,10.9L8.6,13.4L9.1,13.4L9.1,13.9L45.9,13.9L45.9,13.4L46.4,13.4L46.4,12.9L46.9,12.9L46.9,12.4L47.4,12.4L47.4,11.9L47.9,11.9z" stroke="none"/><path d="M93,11.9L93,12.1L57.9,12.1L57.9,11.6L54.4,11.6L54.4,11.1L51.6,11.1L51.6,11.6L48.9,11.6L48.9,11.1L48.4,11.1L48.4,9.9L48.9,9.9L48.9,8.1L46.1,8.1L46.1,8.6L45.6,8.6L45.6,9.9L46.1,9.9L46.1,10.4L46.5,10.4L46.5,10.6L45.9,10.6L45.9,10.1L45.4,10.1L45.4,8.4L45.9,8.4L45.9,7.9L49.1,7.9L49.1,10.1L48.6,10.1L48.6,10.9L49.1,10.9L49.1,11.4L51.4,11.4L51.4,10.9L54.6,10.9L54.6,11.4L58.1,11.4L58.1,11.9z" stroke="none"/><path d="M6,7.6L6,7.4L6.6,7.4L6.6,10.9L7.1,10.9L7.1,12.9L7.6,12.9L7.6,13.9L8.6,13.9L8.6,14.4L52.4,14.4L52.4,12.9L53.4,12.9L53.4,12.4L53.9,12.4L53.9,12L54.1,12L54.1,12.6L53.6,12.6L53.6,13.1L52.6,13.1L52.6,14.6L8.4,14.6L8.4,14.1L7.4,14.1L7.4,13.1L6.9,13.1L6.9,11.1L6.4,11.1L6.4,7.6z" stroke="none"/></svg>