<svg version="1.1" width="105" height="15" xmlns="http://www.w3.org/2000/svg"><path d="M80.9,10.4L80.9,9L81.1,9L81.1,10.4L91.5,10.4L91.5,10.6L73.1,10.6L73.1,11.1L72.6,11.1L72.6,11.6L72.1,11.6L72.1,12.1L70.5,12.1L70.5,11.9L71.9,11.9L71.9,11.4L72.4,11.4L72.4,10.9L72.9,10.9L72.9,10.4z" stroke="none"/><path d="M21.9,9.9L21.9,9.6L17.1,9.6L17.1,10.1L11.1,10.1L11.1,10.6L10.5,10.6L10.5,10.4L10.9,10.4L10.9,9.9L16.9,9.9L16.9,9.4L22.1,9.4L22.1,9.9L30.4,9.9L30.4,9.4L32.4,9.4L32.4,8.9L33.4,8.9L33.4,7.9L34.4,7.9L34.4,7.5L34.6,7.5L34.6,8.1L33.6,8.1L33.6,9.1L32.6,9.1L32.6,9.6L30.6,9.6L30.6,10.1L21.6,10.1L21.6,10.6L21.1,10.6L21.1,12L20.9,12L20.9,10.4L21.4,10.4L21.4,9.9z" stroke="none"/><path d="M44.9,3.9L44.9,2.9L46.5,2.9L46.5,3.1L45.1,3.1L45.1,4.1L35.6,4.1L35.6,4.4L49.6,4.4L49.6,4.9L50.1,4.9L50.1,5.4L52.6,5.4L52.6,6L52.4,6L52.4,5.6L49.9,5.6L49.9,5.1L49.4,5.1L49.4,4.6L35.4,4.6L35.4,4.1L27.9,4.1L27.9,3.6L14.1,3.6L14.1,4.1L10.9,4.1L10.9,3.6L10.4,3.6L10.4,3.1L7.5,3.1L7.5,2.9L10.6,2.9L10.6,3.4L11.1,3.4L11.1,3.9L13.9,3.9L13.9,3.4L28.1,3.4L28.1,3.9z" stroke="none"/><path d="M71.9,10.4L71.9,10.1L62.9,10.1L62.9,9.6L52.4,9.6L52.4,9L52.6,9L52.6,9.4L63.1,9.4L63.1,9.9L72.1,9.9L72.1,10.4L72.4,10.4L72.4,9.9L78.4,9.9L78.4,9.4L78.9,9.4L78.9,8.9L79.9,8.9L79.9,7.9L82.1,7.9L82.1,8.4L84.9,8.4L84.9,7.9L97.1,7.9L97.1,9.9L98.1,9.9L98.1,10.4L100.1,10.4L100.1,11.4L102.1,11.4L102.1,12L101.9,12L101.9,11.6L99.9,11.6L99.9,10.6L97.9,10.6L97.9,10.1L96.9,10.1L96.9,8.1L85.1,8.1L85.1,8.6L81.9,8.6L81.9,8.1L80.1,8.1L80.1,9.1L79.1,9.1L79.1,9.6L78.6,9.6L78.6,10.1L72.6,10.1L72.6,10.6L72.1,10.6L72.1,11.1L65.6,11.1L65.6,11.6L64.6,11.6L64.6,12L64.4,12L64.4,11.4L65.4,11.4L65.4,10.9L71.9,10.9L71.9,10.6L70.5,10.6L70.5,10.4z" stroke="none"/><path d="M20.9,6.9L20.9,6.4L32.9,6.4L32.9,6L33.1,6L33.1,6.6L21.1,6.6L21.1,6.9L26.6,6.9L26.6,7.4L27,7.4L27,7.6L26.4,7.6L26.4,7.1L21.1,7.1L21.1,7.4L26.1,7.4L26.1,7.9L31.4,7.9L31.4,7.4L31.9,7.4L31.9,6.9L33.4,6.9L33.4,5.6L13.9,5.6L13.9,5.1L12.1,5.1L12.1,5.6L9.1,5.6L9.1,6L8.9,6L8.9,5.4L11.9,5.4L11.9,4.9L14.1,4.9L14.1,5.4L33.6,5.4L33.6,7.1L32.1,7.1L32.1,7.6L31.6,7.6L31.6,8.1L25.9,8.1L25.9,7.6L20.9,7.6L20.9,7.1L16.6,7.1L16.6,9L16.4,9L16.4,6.9z" stroke="none"/><path d="M68.9,5.9L68.9,5.6L67.4,5.6L67.4,4.6L58.1,4.6L58.1,5.6L55.6,5.6L55.6,6.1L55.1,6.1L55.1,6.6L54.1,6.6L54.1,7.5L53.9,7.5L53.9,6.4L54.9,6.4L54.9,5.9L55.4,5.9L55.4,5.4L57.9,5.4L57.9,4.4L67.6,4.4L67.6,5.4L69.1,5.4L69.1,5.9L72.4,5.9L72.4,5.4L74.4,5.4L74.4,4.9L75.9,4.9L75.9,4.4L76.4,4.4L76.4,3.9L76.9,3.9L76.9,3.4L78.9,3.4L78.9,2.9L81,2.9L81,3.1L79.1,3.1L79.1,3.6L77.1,3.6L77.1,4.1L76.6,4.1L76.6,4.6L76.1,4.6L76.1,5.1L74.6,5.1L74.6,5.6L72.6,5.6L72.6,6.1L69.1,6.1L69.1,6.4L73.6,6.4L73.6,6.9L82.1,6.9L82.1,7.4L82.5,7.4L82.5,7.6L81.9,7.6L81.9,7.1L73.4,7.1L73.4,6.6L68.9,6.6L68.9,6.1L66.9,6.1L66.9,5.1L60.1,5.1L60.1,6L59.9,6L59.9,4.9L67.1,4.9L67.1,5.9z" stroke="none"/><path d="M33,11.9L33,12.1L32.4,12.1L32.4,11.1L31.4,11.1L31.4,10.5L31.6,10.5L31.6,10.9L32.6,10.9L32.6,11.9z" stroke="none"/><path d="M87,3.1L87,2.9L87.6,2.9L87.6,3.9L90.9,3.9L90.9,3.4L91.4,3.4L91.4,3L91.6,3L91.6,3.6L91.1,3.6L91.1,4.1L87.4,4.1L87.4,3.1z" stroke="none"/><path d="M89.9,12L90.1,12L90.1,12.4L91.1,12.4L91.1,12.9L91.9,12.9L91.9,12.4L92.4,12.4L92.4,10.1L91.9,10.1L91.9,9.6L88.6,9.6L88.6,10.1L85.9,10.1L85.9,9.1L85.5,9.1L85.5,8.9L86.1,8.9L86.1,9.9L88.4,9.9L88.4,9.4L92.1,9.4L92.1,9.9L92.6,9.9L92.6,12.6L92.1,12.6L92.1,13.1L90.9,13.1L90.9,12.6L89.9,12.6z" stroke="none"/><path d="M81,4.4L81,4.6L77.1,4.6L77.1,5.6L75.1,5.6L75.1,6L74.9,6L74.9,5.4L76.9,5.4L76.9,4.4z" stroke="none"/><path d="M12,8.9L12,9.1L6.4,9.1L6.4,7.6L6,7.6L6,7.4L6.6,7.4L6.6,8.9z" stroke="none"/><path d="M10.5,4.4L10.5,4.6L5.6,4.6L5.6,5.1L5.1,5.1L5.1,6.1L4.5,6.1L4.5,5.9L4.9,5.9L4.9,4.9L5.4,4.9L5.4,4.4z" stroke="none"/><path d="M95.9,4.5L96.1,4.5L96.1,5.9L96.6,5.9L96.6,6.4L98.1,6.4L98.1,6.9L100.1,6.9L100.1,7.4L102,7.4L102,7.6L99.9,7.6L99.9,7.1L97.9,7.1L97.9,6.6L96.4,6.6L96.4,6.1L95.9,6.1z" stroke="none"/><path d="M97.5,4.4L97.5,4.6L96.9,4.6L96.9,3.6L93.9,3.6L93.9,3.1L93.4,3.1L93.4,2.6L91.9,2.6L91.9,2.1L89.1,2.1L89.1,2.6L88.6,2.6L88.6,3L88.4,3L88.4,2.4L88.9,2.4L88.9,1.9L92.1,1.9L92.1,2.4L93.6,2.4L93.6,2.9L94.1,2.9L94.1,3.4L97.1,3.4L97.1,4.4z" stroke="none"/><path d="M51,4.4L51,4.6L49.9,4.6L49.9,4.1L49.4,4.1L49.4,3.1L47.4,3.1L47.4,2.6L46.9,2.6L46.9,2.1L42.1,2.1L42.1,3.1L40.5,3.1L40.5,2.9L41.9,2.9L41.9,1.9L47.1,1.9L47.1,2.4L47.6,2.4L47.6,2.9L49.6,2.9L49.6,3.9L50.1,3.9L50.1,4.4z" stroke="none"/><path d="M61.5,10.4L61.5,10.6L56.6,10.6L56.6,11.1L56.1,11.1L56.1,11.6L55.6,11.6L55.6,12.1L51,12.1L51,11.9L55.4,11.9L55.4,11.4L55.9,11.4L55.9,10.9L56.4,10.9L56.4,10.4z" stroke="none"/><path d="M87,9.1L87,8.9L92.6,8.9L92.6,9.4L93.1,9.4L93.1,13.1L92.6,13.1L92.6,13.6L78.4,13.6L78.4,13.1L76.9,13.1L76.9,12.1L76.5,12.1L76.5,11.9L77.1,11.9L77.1,12.9L78.6,12.9L78.6,13.4L92.4,13.4L92.4,12.9L92.9,12.9L92.9,9.6L92.4,9.6L92.4,9.1z" stroke="none"/><path d="M48,11.9L48,12.1L34.5,12.1L34.5,11.9z" stroke="none"/><path d="M13.5,12.1L13.5,11.9L14.6,11.9L14.6,12.4L20.6,12.4L20.6,12.9L27.4,12.9L27.4,12.4L28.4,12.4L28.4,12L28.6,12L28.6,12.6L27.6,12.6L27.6,13.1L20.4,13.1L20.4,12.6L14.4,12.6L14.4,12.1z" stroke="none"/><path d="M84,3.1L84,2.9L85.4,2.9L85.4,2.4L85.9,2.4L85.9,1.9L88.4,1.9L88.4,1.4L96.6,1.4L96.6,2.4L98.1,2.4L98.1,3.9L98.6,3.9L98.6,4.4L99,4.4L99,4.6L98.4,4.6L98.4,4.1L97.9,4.1L97.9,2.6L96.4,2.6L96.4,1.6L88.6,1.6L88.6,2.1L86.1,2.1L86.1,2.6L85.6,2.6L85.6,3.1z" stroke="none"/><path d="M55.5,3.1L55.5,2.9L67.9,2.9L67.9,2.4L68.4,2.4L68.4,1.9L72.1,1.9L72.1,3L71.9,3L71.9,2.1L68.6,2.1L68.6,2.6L68.1,2.6L68.1,3.1z" stroke="none"/><path d="M46.5,8.9L46.5,9.1L39.9,9.1L39.9,8.6L36.9,8.6L36.9,7.6L36.4,7.6L36.4,6.6L35.9,6.6L35.9,6.1L34.4,6.1L34.4,5.1L25.9,5.1L25.9,4.6L25.5,4.6L25.5,4.4L26.1,4.4L26.1,4.9L34.6,4.9L34.6,5.9L36.1,5.9L36.1,6.4L36.6,6.4L36.6,7.4L37.1,7.4L37.1,8.4L40.1,8.4L40.1,8.9z" stroke="none"/><path d="M13.5,5.9L13.5,6.1L10.1,6.1L10.1,6.6L9.6,6.6L9.6,7.1L7.4,7.1L7.4,6.6L5.1,6.6L5.1,7.9L5.6,7.9L5.6,8.4L6.1,8.4L6.1,9.4L9.6,9.4L9.6,11.4L12.6,11.4L12.6,12.4L13.1,12.4L13.1,12.9L20.1,12.9L20.1,13.4L48.4,13.4L48.4,12.4L48.9,12.4L48.9,11.6L48.4,11.6L48.4,11.1L46.6,11.1L46.6,11.6L38.9,11.6L38.9,11.1L38.4,11.1L38.4,10.6L36,10.6L36,10.4L38.6,10.4L38.6,10.9L39.1,10.9L39.1,11.4L46.4,11.4L46.4,10.9L48.6,10.9L48.6,11.4L49.1,11.4L49.1,12.6L48.6,12.6L48.6,13.6L19.9,13.6L19.9,13.1L12.9,13.1L12.9,12.6L12.4,12.6L12.4,11.6L9.4,11.6L9.4,9.6L5.9,9.6L5.9,8.6L5.4,8.6L5.4,8.1L4.9,8.1L4.9,6.4L7.6,6.4L7.6,6.9L9.4,6.9L9.4,6.4L9.9,6.4L9.9,5.9z" stroke="none"/><path d="M67.4,12L67.6,12L67.6,12.4L69.6,12.4L69.6,12.9L73.4,12.9L73.4,12.4L75.4,12.4L75.4,11.4L75.9,11.4L75.9,10.9L90.6,10.9L90.6,11.4L91.1,11.4L91.1,11.9L91.5,11.9L91.5,12.1L90.9,12.1L90.9,11.6L90.4,11.6L90.4,11.1L76.1,11.1L76.1,11.6L75.6,11.6L75.6,12.6L73.6,12.6L73.6,13.1L69.4,13.1L69.4,12.6L67.4,12.6z" stroke="none"/><path d="M99.1,6L98.9,6L98.9,5.4L99.4,5.4L99.4,4.9L99.9,4.9L99.9,4.1L99.4,4.1L99.4,3.6L98.4,3.6L98.4,2.1L97.4,2.1L97.4,1.6L96.9,1.6L96.9,1.1L80.6,1.1L80.6,1.6L77.6,1.6L77.6,2.1L77.1,2.1L77.1,2.6L76.6,2.6L76.6,3.1L76.1,3.1L76.1,4.1L74.1,4.1L74.1,4.6L73.5,4.6L73.5,4.4L73.9,4.4L73.9,3.9L75.9,3.9L75.9,2.9L76.4,2.9L76.4,2.4L76.9,2.4L76.9,1.9L77.4,1.9L77.4,1.4L80.4,1.4L80.4,0.9L97.1,0.9L97.1,1.4L97.6,1.4L97.6,1.9L98.6,1.9L98.6,3.4L99.6,3.4L99.6,3.9L100.1,3.9L100.1,5.1L99.6,5.1L99.6,5.6L99.1,5.6z" stroke="none"/><path d="M69,3.1L69,2.9L70.6,2.9L70.6,3.4L71.6,3.4L71.6,3.9L72.9,3.9L72.9,3.4L73.4,3.4L73.4,2.4L74.9,2.4L74.9,0.9L79.9,0.9L79.9,0.4L97.6,0.4L97.6,0.9L98.1,0.9L98.1,1.4L99.1,1.4L99.1,2.9L100.5,2.9L100.5,3.1L98.9,3.1L98.9,1.6L97.9,1.6L97.9,1.1L97.4,1.1L97.4,0.6L80.1,0.6L80.1,1.1L75.1,1.1L75.1,2.6L73.6,2.6L73.6,3.6L73.1,3.6L73.1,4.1L71.4,4.1L71.4,3.6L70.4,3.6L70.4,3.1z" stroke="none"/><path d="M34.5,10.6L34.5,10.4L34.9,10.4L34.9,9.9L35.4,9.9L35.4,9.4L46.1,9.4L46.1,9.9L51.4,9.9L51.4,7.9L53.1,7.9L53.1,8.4L64.9,8.4L64.9,7.9L65.4,7.9L65.4,6.4L65.9,6.4L65.9,6L66.1,6L66.1,6.6L65.6,6.6L65.6,8.1L65.1,8.1L65.1,8.6L52.9,8.6L52.9,8.1L51.6,8.1L51.6,10.1L45.9,10.1L45.9,9.6L35.6,9.6L35.6,10.1L35.1,10.1L35.1,10.6z" stroke="none"/><path d="M66,12.1L66,11.9L66.6,11.9L66.6,12.4L67.1,12.4L67.1,12.9L68.1,12.9L68.1,13.4L78.1,13.4L78.1,13.9L100.4,13.9L100.4,13.4L102.4,13.4L102.4,12.9L102.9,12.9L102.9,11.1L101.9,11.1L101.9,10.1L100.9,10.1L100.9,9.6L100.4,9.6L100.4,9L100.6,9L100.6,9.4L101.1,9.4L101.1,9.9L102.1,9.9L102.1,10.9L103.1,10.9L103.1,13.1L102.6,13.1L102.6,13.6L100.6,13.6L100.6,14.1L77.9,14.1L77.9,13.6L67.9,13.6L67.9,13.1L66.9,13.1L66.9,12.6L66.4,12.6L66.4,12.1z" stroke="none"/><path d="M49.5,6.1L49.5,5.9L51.1,5.9L51.1,6.4L52.1,6.4L52.1,6.9L52.9,6.9L52.9,6.4L53.4,6.4L53.4,3.1L52.9,3.1L52.9,2.6L47.9,2.6L47.9,2.1L47.4,2.1L47.4,1.6L20.6,1.6L20.6,2.1L19.6,2.1L19.6,2.6L19.1,2.6L19.1,3.1L13.5,3.1L13.5,2.9L18.9,2.9L18.9,2.4L19.4,2.4L19.4,1.9L20.4,1.9L20.4,1.4L47.6,1.4L47.6,1.9L48.1,1.9L48.1,2.4L53.1,2.4L53.1,2.9L53.6,2.9L53.6,6.6L53.1,6.6L53.1,7.1L51.9,7.1L51.9,6.6L50.9,6.6L50.9,6.1z" stroke="none"/><path d="M45,10.6L45,10.4L49.1,10.4L49.1,10.9L49.6,10.9L49.6,11.9L50.1,11.9L50.1,12.9L66.6,12.9L66.6,13.4L67.6,13.4L67.6,13.9L77.1,13.9L77.1,14.4L102.9,14.4L102.9,13.4L103.4,13.4L103.4,10.1L102.4,10.1L102.4,9.1L101.4,9.1L101.4,8.6L100.9,8.6L100.9,8.1L98.9,8.1L98.9,7.6L84.4,7.6L84.4,7.1L83.4,7.1L83.4,6.1L82.5,6.1L82.5,5.9L83.6,5.9L83.6,6.9L84.6,6.9L84.6,7.4L99.1,7.4L99.1,7.9L101.1,7.9L101.1,8.4L101.6,8.4L101.6,8.9L102.6,8.9L102.6,9.9L103.6,9.9L103.6,13.6L103.1,13.6L103.1,14.6L76.9,14.6L76.9,14.1L67.4,14.1L67.4,13.6L66.4,13.6L66.4,13.1L49.9,13.1L49.9,12.1L49.4,12.1L49.4,11.1L48.9,11.1L48.9,10.6z" stroke="none"/></svg>