<svg version="1.1" width="105" height="15" xmlns="http://www.w3.org/2000/svg"><path d="M38.9,10.4L38.9,9.9L43.6,9.9L43.6,10.5L43.4,10.5L43.4,10.1L39.1,10.1L39.1,10.4L40.1,10.4L40.1,11.4L40.6,11.4L40.6,12L40.4,12L40.4,11.6L39.9,11.6L39.9,10.6L33.4,10.6L33.4,9.6L32.9,9.6L32.9,9L33.1,9L33.1,9.4L33.6,9.4L33.6,10.4z" stroke="none"/><path d="M39.6,11.9L39.6,12.4L40.1,12.4L40.1,12.9L40.9,12.9L40.9,12.4L41.4,12.4L41.4,11.9L42,11.9L42,12.1L41.6,12.1L41.6,12.6L41.1,12.6L41.1,13.1L39.9,13.1L39.9,12.6L39.4,12.6L39.4,12.1L38.6,12.1L38.6,12.9L39.1,12.9L39.1,13.4L50.9,13.4L50.9,12L51.1,12L51.1,13.6L38.9,13.6L38.9,13.1L38.4,13.1L38.4,12.1L35.4,12.1L35.4,11.6L34.9,11.6L34.9,11.1L27.1,11.1L27.1,11.6L24.6,11.6L24.6,12.1L22.5,12.1L22.5,11.9L24.4,11.9L24.4,11.4L26.9,11.4L26.9,10.9L35.1,10.9L35.1,11.4L35.6,11.4L35.6,11.9z" stroke="none"/><path d="M31.4,9.9L31.4,8.9L31.9,8.9L31.9,8.4L32.4,8.4L32.4,7.9L38.4,7.9L38.4,7.4L39,7.4L39,7.6L38.6,7.6L38.6,8.1L32.6,8.1L32.6,8.6L32.1,8.6L32.1,9.1L31.6,9.1L31.6,10.1L21.1,10.1L21.1,10.6L20.6,10.6L20.6,11.1L20.1,11.1L20.1,11.6L14.1,11.6L14.1,12.1L13.5,12.1L13.5,11.9L13.9,11.9L13.9,11.4L19.9,11.4L19.9,10.9L20.4,10.9L20.4,10.4L20.9,10.4L20.9,10.1L20.4,10.1L20.4,9.6L9.1,9.6L9.1,10.5L8.9,10.5L8.9,9.4L20.6,9.4L20.6,9.9z" stroke="none"/><path d="M60.9,7.4L60.9,6.9L73.4,6.9L73.4,6.4L87.9,6.4L87.9,5.4L89.4,5.4L89.4,4.9L91.1,4.9L91.1,7.1L89.1,7.1L89.1,7.6L88.1,7.6L88.1,8.6L81.6,8.6L81.6,9.1L81,9.1L81,8.9L81.4,8.9L81.4,8.4L87.9,8.4L87.9,7.4L88.9,7.4L88.9,6.9L90.9,6.9L90.9,5.1L89.6,5.1L89.6,5.6L88.1,5.6L88.1,6.6L73.6,6.6L73.6,7.1L61.1,7.1L61.1,7.4L64.5,7.4L64.5,7.6L61.1,7.6L61.1,7.9L65.9,7.9L65.9,7.5L66.1,7.5L66.1,8.1L60.9,8.1L60.9,7.6L58.9,7.6L58.9,7.1L57.4,7.1L57.4,6.6L55.9,6.6L55.9,6.1L54.9,6.1L54.9,5.6L52.9,5.6L52.9,5.1L35.1,5.1L35.1,6.1L33,6.1L33,5.9L34.9,5.9L34.9,4.9L53.1,4.9L53.1,5.4L55.1,5.4L55.1,5.9L56.1,5.9L56.1,6.4L57.6,6.4L57.6,6.9L59.1,6.9L59.1,7.4z" stroke="none"/><path d="M41.9,7.9L41.9,7.4L45.4,7.4L45.4,6.9L50.9,6.9L50.9,5.9L52.5,5.9L52.5,6.1L51.1,6.1L51.1,7.1L45.6,7.1L45.6,7.6L42.1,7.6L42.1,7.9L45.9,7.9L45.9,7.4L46.5,7.4L46.5,7.6L46.1,7.6L46.1,8.1L42.1,8.1L42.1,8.4L58.1,8.4L58.1,8.9L58.5,8.9L58.5,9.1L57.9,9.1L57.9,8.6L41.9,8.6L41.9,8.1L41.4,8.1L41.4,7.1L40.9,7.1L40.9,6.6L34.1,6.6L34.1,7.6L29.6,7.6L29.6,8.1L29.1,8.1L29.1,8.6L10.1,8.6L10.1,9.1L8.6,9.1L8.6,10.1L8.1,10.1L8.1,11.4L9.4,11.4L9.4,10.9L9.9,10.9L9.9,10.4L10.5,10.4L10.5,10.6L10.1,10.6L10.1,11.1L9.6,11.1L9.6,11.6L7.9,11.6L7.9,9.9L8.4,9.9L8.4,8.9L9.9,8.9L9.9,8.4L28.9,8.4L28.9,7.9L29.4,7.9L29.4,7.4L33.9,7.4L33.9,6.4L41.1,6.4L41.1,6.9L41.6,6.9L41.6,7.9z" stroke="none"/><path d="M74.4,7.4L74.4,6.9L88.4,6.9L88.4,6.4L88.9,6.4L88.9,5.9L90,5.9L90,6.1L89.1,6.1L89.1,6.6L88.6,6.6L88.6,7.1L74.6,7.1L74.6,7.4L87,7.4L87,7.6L74.6,7.6L74.6,8.1L69.6,8.1L69.6,8.6L68.6,8.6L68.6,9.1L66.6,9.1L66.6,9.6L63.9,9.6L63.9,9.1L63.4,9.1L63.4,8.6L58.9,8.6L58.9,8.1L58.4,8.1L58.4,7.6L57,7.6L57,7.4L58.6,7.4L58.6,7.9L59.1,7.9L59.1,8.4L63.6,8.4L63.6,8.9L64.1,8.9L64.1,9.4L66.4,9.4L66.4,8.9L68.4,8.9L68.4,8.4L69.4,8.4L69.4,7.9L74.4,7.9L74.4,7.6L67.1,7.6L67.1,8.1L66.6,8.1L66.6,8.6L66.1,8.6L66.1,9.1L64.5,9.1L64.5,8.9L65.9,8.9L65.9,8.4L66.4,8.4L66.4,7.9L66.9,7.9L66.9,7.4z" stroke="none"/><path d="M45,2.9L45,3.1L40.5,3.1L40.5,2.9z" stroke="none"/><path d="M84,12.1L84,11.9L86.4,11.9L86.4,10.4L88.5,10.4L88.5,10.6L86.6,10.6L86.6,12.1z" stroke="none"/><path d="M4.6,9L4.4,9L4.4,6.4L4.9,6.4L4.9,5.9L5.9,5.9L5.9,4.9L6.4,4.9L6.4,4.4L7.5,4.4L7.5,4.6L6.6,4.6L6.6,5.1L6.1,5.1L6.1,6.1L5.1,6.1L5.1,6.6L4.6,6.6z" stroke="none"/><path d="M13.5,5.9L13.5,6.1L7.5,6.1L7.5,5.9z" stroke="none"/><path d="M49.5,10.6L49.5,10.4L50.6,10.4L50.6,10.9L51.6,10.9L51.6,11.4L53.4,11.4L53.4,10.4L55.5,10.4L55.5,10.6L53.6,10.6L53.6,11.6L51.4,11.6L51.4,11.1L50.4,11.1L50.4,10.6z" stroke="none"/><path d="M10.6,4.5L10.4,4.5L10.4,4.1L9.9,4.1L9.9,3.6L8.4,3.6L8.4,3.1L3,3.1L3,2.9L8.6,2.9L8.6,3.4L10.1,3.4L10.1,3.9L10.6,3.9z" stroke="none"/><path d="M93,9.1L93,8.9L96.9,8.9L96.9,8.4L97.4,8.4L97.4,7.4L97.9,7.4L97.9,6.4L99.4,6.4L99.4,5.9L99.9,5.9L99.9,5.4L100.9,5.4L100.9,4.9L101.4,4.9L101.4,4.4L102,4.4L102,4.6L101.6,4.6L101.6,5.1L101.1,5.1L101.1,5.6L100.1,5.6L100.1,6.1L99.6,6.1L99.6,6.6L98.1,6.6L98.1,7.6L97.6,7.6L97.6,8.6L97.1,8.6L97.1,9.1z" stroke="none"/><path d="M15,7.6L15,7.4L21.9,7.4L21.9,6.9L24.9,6.9L24.9,5.9L25.5,5.9L25.5,6.1L25.1,6.1L25.1,7.1L22.1,7.1L22.1,7.6z" stroke="none"/><path d="M91.5,7.4L91.5,7.6L90.1,7.6L90.1,8.1L89.6,8.1L89.6,8.6L88.6,8.6L88.6,9.1L84.6,9.1L84.6,9.6L81.6,9.6L81.6,10.1L81.1,10.1L81.1,10.5L80.9,10.5L80.9,9.9L81.4,9.9L81.4,9.4L84.4,9.4L84.4,8.9L88.4,8.9L88.4,8.4L89.4,8.4L89.4,7.9L89.9,7.9L89.9,7.4z" stroke="none"/><path d="M7.4,7.5L7.6,7.5L7.6,11.9L10.4,11.9L10.4,11.4L10.9,11.4L10.9,10.9L19.4,10.9L19.4,10.5L19.6,10.5L19.6,11.1L11.1,11.1L11.1,11.6L10.6,11.6L10.6,12.1L7.4,12.1z" stroke="none"/><path d="M16.5,4.6L16.5,4.4L24.6,4.4L24.6,4.9L26.1,4.9L26.1,5.4L26.6,5.4L26.6,6.4L27.6,6.4L27.6,7.4L28.5,7.4L28.5,7.6L27.4,7.6L27.4,6.6L26.4,6.6L26.4,5.6L25.9,5.6L25.9,5.1L24.4,5.1L24.4,4.6z" stroke="none"/><path d="M67.5,10.4L67.5,10.6L57.4,10.6L57.4,10.1L56.4,10.1L56.4,9.6L53.1,9.6L53.1,10.1L52.6,10.1L52.6,10.5L52.4,10.5L52.4,9.9L52.9,9.9L52.9,9.4L56.6,9.4L56.6,9.9L57.6,9.9L57.6,10.4z" stroke="none"/><path d="M73.5,9.1L73.5,8.9L78.1,8.9L78.1,9.4L78.6,9.4L78.6,9.9L79.1,9.9L79.1,10.4L80.1,10.4L80.1,10.9L80.6,10.9L80.6,11.4L81.9,11.4L81.9,10.9L83.4,10.9L83.4,10.4L84.9,10.4L84.9,9.9L87.4,9.9L87.4,9.4L89.9,9.4L89.9,9L90.1,9L90.1,9.6L87.6,9.6L87.6,10.1L85.1,10.1L85.1,10.6L83.6,10.6L83.6,11.1L82.1,11.1L82.1,11.6L80.4,11.6L80.4,11.1L79.9,11.1L79.9,10.6L78.9,10.6L78.9,10.1L78.4,10.1L78.4,9.6L77.9,9.6L77.9,9.1z" stroke="none"/><path d="M76.5,3.1L76.5,2.9L88.1,2.9L88.1,3.4L89.6,3.4L89.6,3.9L94.6,3.9L94.6,4.5L94.4,4.5L94.4,4.1L89.4,4.1L89.4,3.6L87.9,3.6L87.9,3.1z" stroke="none"/><path d="M90,11.9L90,12.1L88.6,12.1L88.6,12.6L84.6,12.6L84.6,13.1L66.4,13.1L66.4,12.6L65.9,12.6L65.9,12L66.1,12L66.1,12.4L66.6,12.4L66.6,12.9L84.4,12.9L84.4,12.4L88.4,12.4L88.4,11.9z" stroke="none"/><path d="M54.1,3L53.9,3L53.9,2.6L53.4,2.6L53.4,2.1L30.1,2.1L30.1,2.6L29.6,2.6L29.6,3.1L28.5,3.1L28.5,2.9L29.4,2.9L29.4,2.4L29.9,2.4L29.9,1.9L53.6,1.9L53.6,2.4L54.1,2.4z" stroke="none"/><path d="M34.5,11.9L34.5,12.1L26.6,12.1L26.6,12.6L23.6,12.6L23.6,13.1L8.4,13.1L8.4,12.6L6.4,12.6L6.4,12.1L6,12.1L6,11.9L6.6,11.9L6.6,12.4L8.6,12.4L8.6,12.9L23.4,12.9L23.4,12.4L26.4,12.4L26.4,11.9z" stroke="none"/><path d="M61.5,6.1L61.5,5.9L61.9,5.9L61.9,5.4L62.4,5.4L62.4,4.9L62.9,4.9L62.9,3.4L73.9,3.4L73.9,1.9L87.1,1.9L87.1,2.4L89.1,2.4L89.1,2.9L90,2.9L90,3.1L88.9,3.1L88.9,2.6L86.9,2.6L86.9,2.1L74.1,2.1L74.1,3.6L63.1,3.6L63.1,5.1L62.6,5.1L62.6,5.6L62.1,5.6L62.1,6.1z" stroke="none"/><path d="M70.5,8.9L70.5,9.1L69.6,9.1L69.6,9.6L67.1,9.6L67.1,10.1L57.9,10.1L57.9,9.6L56.9,9.6L56.9,9.1L40.5,9.1L40.5,8.9L57.1,8.9L57.1,9.4L58.1,9.4L58.1,9.9L66.9,9.9L66.9,9.4L69.4,9.4L69.4,8.9z" stroke="none"/><path d="M94.5,2.9L94.5,3.1L91.4,3.1L91.4,2.6L90.4,2.6L90.4,2.1L87.4,2.1L87.4,1.6L66.1,1.6L66.1,2.1L64.6,2.1L64.6,2.6L64.1,2.6L64.1,3.1L62.6,3.1L62.6,4.1L61.6,4.1L61.6,4.5L61.4,4.5L61.4,3.9L62.4,3.9L62.4,2.9L63.9,2.9L63.9,2.4L64.4,2.4L64.4,1.9L65.9,1.9L65.9,1.4L87.6,1.4L87.6,1.9L90.6,1.9L90.6,2.4L91.6,2.4L91.6,2.9z" stroke="none"/><path d="M100.5,10.4L100.5,10.6L92.6,10.6L92.6,12.1L92.1,12.1L92.1,13.1L85.6,13.1L85.6,13.6L65.9,13.6L65.9,13.1L64.4,13.1L64.4,12.6L58.4,12.6L58.4,12L58.6,12L58.6,12.4L64.6,12.4L64.6,12.9L66.1,12.9L66.1,13.4L85.4,13.4L85.4,12.9L91.9,12.9L91.9,11.9L92.4,11.9L92.4,10.4z" stroke="none"/><path d="M52.5,3.1L52.5,2.9L53.1,2.9L53.1,3.9L60.9,3.9L60.9,3.4L61.9,3.4L61.9,2.4L62.4,2.4L62.4,1.9L63.9,1.9L63.9,1.4L65.4,1.4L65.4,0.9L96.1,0.9L96.1,3L95.9,3L95.9,1.1L65.6,1.1L65.6,1.6L64.1,1.6L64.1,2.1L62.6,2.1L62.6,2.6L62.1,2.6L62.1,3.6L61.1,3.6L61.1,4.1L52.9,4.1L52.9,3.1z" stroke="none"/><path d="M31.4,3L31.6,3L31.6,3.6L29.6,3.6L29.6,4.1L27.4,4.1L27.4,2.4L27.9,2.4L27.9,1.9L29.4,1.9L29.4,1.4L56.9,1.4L56.9,0.9L64.4,0.9L64.4,0.4L96.6,0.4L96.6,1.9L97.1,1.9L97.1,5.1L95.1,5.1L95.1,5.6L91.4,5.6L91.4,4.6L75,4.6L75,4.4L91.6,4.4L91.6,5.4L94.9,5.4L94.9,4.9L96.9,4.9L96.9,2.1L96.4,2.1L96.4,0.6L64.6,0.6L64.6,1.1L57.1,1.1L57.1,1.6L29.6,1.6L29.6,2.1L28.1,2.1L28.1,2.6L27.6,2.6L27.6,3.9L29.4,3.9L29.4,3.4L31.4,3.4z" stroke="none"/><path d="M102,11.9L102,12.1L98.1,12.1L98.1,12.6L95.1,12.6L95.1,13.1L92.6,13.1L92.6,13.6L86.1,13.6L86.1,14.1L57.9,14.1L57.9,13.6L57.4,13.6L57.4,13.1L56.9,13.1L56.9,12L57.1,12L57.1,12.9L57.6,12.9L57.6,13.4L58.1,13.4L58.1,13.9L85.9,13.9L85.9,13.4L92.4,13.4L92.4,12.9L94.9,12.9L94.9,12.4L97.9,12.4L97.9,11.9z" stroke="none"/></svg>