<svg version="1.1" width="105" height="15" xmlns="http://www.w3.org/2000/svg"><path d="M18.4,11.4L18.4,10.9L18.9,10.9L18.9,10.4L19.5,10.4L19.5,10.6L19.1,10.6L19.1,11.1L18.6,11.1L18.6,11.6L18.1,11.6L18.1,11.9L21,11.9L21,12.1L17.9,12.1L17.9,11.6L13.6,11.6L13.6,12L13.4,12L13.4,11.4z" stroke="none"/><path d="M17.4,9.4L17.4,9.1L16.4,9.1L16.4,8.6L11.9,8.6L11.9,7.5L12.1,7.5L12.1,8.4L16.6,8.4L16.6,8.9L17.6,8.9L17.6,9.4L20.6,9.4L20.6,9.9L24.6,9.9L24.6,10.9L25.1,10.9L25.1,11.4L25.6,11.4L25.6,12L25.4,12L25.4,11.6L24.9,11.6L24.9,11.1L24.4,11.1L24.4,10.1L20.4,10.1L20.4,9.6L14.9,9.6L14.9,9L15.1,9L15.1,9.4z" stroke="none"/><path d="M90.4,7.4L90.4,6.9L93.4,6.9L93.4,5.9L93.9,5.9L93.9,5.4L94.4,5.4L94.4,4.5L94.6,4.5L94.6,5.6L94.1,5.6L94.1,6.1L93.6,6.1L93.6,7.1L90.6,7.1L90.6,7.6L88.1,7.6L88.1,7.9L95.6,7.9L95.6,8.9L97.5,8.9L97.5,9.1L95.4,9.1L95.4,8.1L87.9,8.1L87.9,7.6L84.6,7.6L84.6,8.1L82.1,8.1L82.1,8.6L75.9,8.6L75.9,8.1L73.1,8.1L73.1,8.6L72.1,8.6L72.1,9L71.9,9L71.9,8.4L72.9,8.4L72.9,7.9L76.1,7.9L76.1,8.4L81.9,8.4L81.9,7.9L84.4,7.9L84.4,7.4z" stroke="none"/><path d="M26.9,5.9L26.9,5.6L20.4,5.6L20.4,5.1L17.6,5.1L17.6,5.6L17.1,5.6L17.1,6.6L15.6,6.6L15.6,7.1L14.1,7.1L14.1,7.6L13.5,7.6L13.5,7.4L13.9,7.4L13.9,6.9L15.4,6.9L15.4,6.4L16.9,6.4L16.9,5.4L17.4,5.4L17.4,4.9L20.6,4.9L20.6,5.4L27.1,5.4L27.1,5.9L28.5,5.9L28.5,6.1L27.1,6.1L27.1,6.4L42.4,6.4L42.4,4.9L43.4,4.9L43.4,4.5L43.6,4.5L43.6,5.1L42.6,5.1L42.6,6.6L26.9,6.6L26.9,6.1L24.6,6.1L24.6,6.6L23.6,6.6L23.6,7.1L22.6,7.1L22.6,7.5L22.4,7.5L22.4,6.9L23.4,6.9L23.4,6.4L24.4,6.4L24.4,5.9z" stroke="none"/><path d="M60.4,8.4L60.4,8.1L54.4,8.1L54.4,7.1L48.6,7.1L48.6,7.6L46.6,7.6L46.6,8.1L46.1,8.1L46.1,8.6L42.1,8.6L42.1,9.1L41.6,9.1L41.6,10.6L37.5,10.6L37.5,10.4L41.4,10.4L41.4,8.9L41.9,8.9L41.9,8.4L45.9,8.4L45.9,7.9L46.4,7.9L46.4,7.4L48.4,7.4L48.4,6.9L54.6,6.9L54.6,7.9L60.6,7.9L60.6,8.4L61.6,8.4L61.6,8.9L62.1,8.9L62.1,9.4L62.6,9.4L62.6,9.9L72.9,9.9L72.9,9.4L73.4,9.4L73.4,9L73.6,9L73.6,9.6L73.1,9.6L73.1,10.1L62.4,10.1L62.4,9.6L61.9,9.6L61.9,9.1L61.4,9.1L61.4,8.6L60.6,8.6L60.6,8.9L61.1,8.9L61.1,9.4L61.6,9.4L61.6,9.9L62.1,9.9L62.1,10.4L73.4,10.4L73.4,9.9L74.4,9.9L74.4,9.4L96.6,9.4L96.6,9.9L97.9,9.9L97.9,9.4L98.4,9.4L98.4,7.1L97.9,7.1L97.9,6.1L96.4,6.1L96.4,5.6L95.9,5.6L95.9,4.1L95.4,4.1L95.4,3.6L87.6,3.6L87.6,5.6L87.1,5.6L87.1,6.1L85.6,6.1L85.6,6.6L84.6,6.6L84.6,7.1L81.1,7.1L81.1,7.5L80.9,7.5L80.9,6.9L84.4,6.9L84.4,6.4L85.4,6.4L85.4,5.9L86.9,5.9L86.9,5.4L87.4,5.4L87.4,3.4L95.6,3.4L95.6,3.9L96.1,3.9L96.1,5.4L96.6,5.4L96.6,5.9L98.1,5.9L98.1,6.9L98.6,6.9L98.6,9.6L98.1,9.6L98.1,10.1L96.4,10.1L96.4,9.6L74.6,9.6L74.6,10.1L73.6,10.1L73.6,10.6L61.9,10.6L61.9,10.1L61.4,10.1L61.4,9.6L60.9,9.6L60.9,9.1L60.4,9.1L60.4,8.6L53.9,8.6L53.9,8.1L53.4,8.1L53.4,7.6L52.5,7.6L52.5,7.4L53.6,7.4L53.6,7.9L54.1,7.9L54.1,8.4z" stroke="none"/><path d="M41.4,4.9L41.4,3.9L41.9,3.9L41.9,3.4L50.4,3.4L50.4,2.9L54,2.9L54,3.1L50.6,3.1L50.6,3.6L42.1,3.6L42.1,4.1L41.6,4.1L41.6,4.9L42.1,4.9L42.1,6.1L29.4,6.1L29.4,5.1L21.9,5.1L21.9,4.6L14.1,4.6L14.1,5.1L13.1,5.1L13.1,5.6L12.1,5.6L12.1,6.1L11.6,6.1L11.6,7.1L11.1,7.1L11.1,11.4L12.1,11.4L12.1,12.4L12.6,12.4L12.6,12.9L26.4,12.9L26.4,11.1L25.9,11.1L25.9,10.1L25.4,10.1L25.4,9.6L22.4,9.6L22.4,8.6L21.4,8.6L21.4,8.1L17.9,8.1L17.9,7.5L18.1,7.5L18.1,7.9L21.6,7.9L21.6,8.4L22.6,8.4L22.6,9.4L25.6,9.4L25.6,9.9L26.1,9.9L26.1,10.9L26.6,10.9L26.6,13.1L12.4,13.1L12.4,12.6L11.9,12.6L11.9,11.6L10.9,11.6L10.9,6.9L11.4,6.9L11.4,5.9L11.9,5.9L11.9,5.4L12.9,5.4L12.9,4.9L13.9,4.9L13.9,4.4L22.1,4.4L22.1,4.9L29.6,4.9L29.6,5.9L41.9,5.9L41.9,5.1L41.6,5.1L41.6,5.6L33.9,5.6L33.9,5.1L33.4,5.1L33.4,4.1L32.9,4.1L32.9,3.6L32.4,3.6L32.4,2.4L54.6,2.4L54.6,3.9L59.6,3.9L59.6,4.4L60.6,4.4L60.6,4.9L61.1,4.9L61.1,7.4L61.5,7.4L61.5,7.6L60.9,7.6L60.9,5.1L60.4,5.1L60.4,4.6L59.4,4.6L59.4,4.1L54.4,4.1L54.4,2.6L32.6,2.6L32.6,3.4L33.1,3.4L33.1,3.9L33.6,3.9L33.6,4.9L34.1,4.9L34.1,5.4L41.4,5.4L41.4,5.1L38.9,5.1L38.9,4.6L35.9,4.6L35.9,3.6L33.9,3.6L33.9,3.1L33,3.1L33,2.9L34.1,2.9L34.1,3.4L36.1,3.4L36.1,4.4L39.1,4.4L39.1,4.9z" stroke="none"/><path d="M55.5,3.1L55.5,2.9L57,2.9L57,3.1z" stroke="none"/><path d="M73.5,4.6L73.5,4.4L74.6,4.4L74.6,5.4L75.1,5.4L75.1,6L74.9,6L74.9,5.6L74.4,5.6L74.4,4.6z" stroke="none"/><path d="M7.5,3.1L7.5,2.9L10.5,2.9L10.5,3.1z" stroke="none"/><path d="M17.9,6L18.1,6L18.1,6.6L17.6,6.6L17.6,7.1L17.1,7.1L17.1,7.9L17.6,7.9L17.6,8.4L20.1,8.4L20.1,8.9L21,8.9L21,9.1L19.9,9.1L19.9,8.6L17.4,8.6L17.4,8.1L16.9,8.1L16.9,6.9L17.4,6.9L17.4,6.4L17.9,6.4z" stroke="none"/><path d="M79.5,6.1L79.5,5.9L81.9,5.9L81.9,4.9L82.4,4.9L82.4,4.4L84,4.4L84,4.6L82.6,4.6L82.6,5.1L82.1,5.1L82.1,6.1z" stroke="none"/><path d="M12,4.4L12,4.6L6,4.6L6,4.4z" stroke="none"/><path d="M59.9,3L60.1,3L60.1,3.9L61.6,3.9L61.6,4.4L62.1,4.4L62.1,4.9L62.6,4.9L62.6,5.4L63.6,5.4L63.6,5.9L64.1,5.9L64.1,6.9L64.6,6.9L64.6,7.5L64.4,7.5L64.4,7.1L63.9,7.1L63.9,6.1L63.4,6.1L63.4,5.6L62.4,5.6L62.4,5.1L61.9,5.1L61.9,4.6L61.4,4.6L61.4,4.1L59.9,4.1z" stroke="none"/><path d="M76.5,4.6L76.5,4.4L77.6,4.4L77.6,5.4L78.6,5.4L78.6,6.4L79.1,6.4L79.1,6.9L79.9,6.9L79.9,6.4L82.9,6.4L82.9,5.9L84,5.9L84,6.1L83.1,6.1L83.1,6.6L80.1,6.6L80.1,7.1L78.9,7.1L78.9,6.6L78.4,6.6L78.4,5.6L77.4,5.6L77.4,4.6z" stroke="none"/><path d="M13.5,2.9L13.5,3.1L12.4,3.1L12.4,2.1L7.1,2.1L7.1,2.6L5.6,2.6L5.6,3.1L4.5,3.1L4.5,2.9L5.4,2.9L5.4,2.4L6.9,2.4L6.9,1.9L12.6,1.9L12.6,2.9z" stroke="none"/><path d="M82.5,12.1L82.5,11.9L91.5,11.9L91.5,12.1z" stroke="none"/><path d="M42,11.9L42,12.1L28.5,12.1L28.5,11.9z" stroke="none"/><path d="M63,9.1L63,8.9L65.9,8.9L65.9,8.4L67.9,8.4L67.9,7.9L71.9,7.9L71.9,7.4L78,7.4L78,7.6L72.1,7.6L72.1,8.1L68.1,8.1L68.1,8.6L66.1,8.6L66.1,9.1z" stroke="none"/><path d="M60,12.1L60,11.9L73.4,11.9L73.4,11.4L73.9,11.4L73.9,10.4L75,10.4L75,10.6L74.1,10.6L74.1,11.6L73.6,11.6L73.6,12.1z" stroke="none"/><path d="M64.5,3.1L64.5,2.9L81,2.9L81,3.1z" stroke="none"/><path d="M8.9,6L9.1,6L9.1,9.9L9.6,9.9L9.6,11.4L10.6,11.4L10.6,12.4L11.6,12.4L11.6,12.9L12.1,12.9L12.1,13.4L26.9,13.4L26.9,10.5L27.1,10.5L27.1,13.6L11.9,13.6L11.9,13.1L11.4,13.1L11.4,12.6L10.4,12.6L10.4,11.6L9.4,11.6L9.4,10.1L8.9,10.1z" stroke="none"/><path d="M87,2.9L87,3.1L82.6,3.1L82.6,3.6L82.1,3.6L82.1,4.1L79.4,4.1L79.4,3.6L67.1,3.6L67.1,4.6L66.6,4.6L66.6,5.6L66.1,5.6L66.1,6L65.9,6L65.9,5.4L66.4,5.4L66.4,4.4L66.9,4.4L66.9,3.4L79.6,3.4L79.6,3.9L81.9,3.9L81.9,3.4L82.4,3.4L82.4,2.9z" stroke="none"/><path d="M49.5,12.1L49.5,11.9L50.6,11.9L50.6,12.4L56.6,12.4L56.6,12.9L74.4,12.9L74.4,12.4L74.9,12.4L74.9,12L75.1,12L75.1,12.6L74.6,12.6L74.6,13.1L56.4,13.1L56.4,12.6L50.4,12.6L50.4,12.1z" stroke="none"/><path d="M6,10.6L6,10.4L9.1,10.4L9.1,11.9L10.1,11.9L10.1,12.9L11.1,12.9L11.1,13.9L27.4,13.9L27.4,11.4L27.9,11.4L27.9,10.9L28.4,10.9L28.4,9.9L28.9,9.9L28.9,9.4L29.4,9.4L29.4,8.9L31.5,8.9L31.5,9.1L29.6,9.1L29.6,9.6L29.1,9.6L29.1,10.1L28.6,10.1L28.6,11.1L28.1,11.1L28.1,11.6L27.6,11.6L27.6,14.1L10.9,14.1L10.9,13.1L9.9,13.1L9.9,12.1L8.9,12.1L8.9,10.6z" stroke="none"/><path d="M27,3.1L27,2.9L31.4,2.9L31.4,2.4L31.9,2.4L31.9,1.9L60.6,1.9L60.6,2.4L61.1,2.4L61.1,2.9L63.1,2.9L63.1,4.5L62.9,4.5L62.9,3.1L60.9,3.1L60.9,2.6L60.4,2.6L60.4,2.1L32.1,2.1L32.1,2.6L31.6,2.6L31.6,3.1z" stroke="none"/><path d="M49.4,10.5L49.6,10.5L49.6,11.1L49.1,11.1L49.1,11.6L48.6,11.6L48.6,12.4L49.1,12.4L49.1,12.9L50.6,12.9L50.6,13.4L80.4,13.4L80.4,12.9L80.9,12.9L80.9,12.4L81.4,12.4L81.4,11.4L81.9,11.4L81.9,10.9L87.9,10.9L87.9,10.4L88.5,10.4L88.5,10.6L88.1,10.6L88.1,11.1L82.1,11.1L82.1,11.6L81.6,11.6L81.6,12.6L81.1,12.6L81.1,13.1L80.6,13.1L80.6,13.6L50.4,13.6L50.4,13.1L48.9,13.1L48.9,12.6L48.4,12.6L48.4,11.4L48.9,11.4L48.9,10.9L49.4,10.9z" stroke="none"/><path d="M99,11.9L99,12.1L98.1,12.1L98.1,12.6L92.1,12.6L92.1,13.1L82.1,13.1L82.1,13.6L81.1,13.6L81.1,14.1L48.4,14.1L48.4,13.6L47.9,13.6L47.9,10.9L48.4,10.9L48.4,9.9L48.9,9.9L48.9,9.4L52.1,9.4L52.1,9.9L53.1,9.9L53.1,10.4L54.6,10.4L54.6,10.9L55.1,10.9L55.1,11.4L57.1,11.4L57.1,12L56.9,12L56.9,11.6L54.9,11.6L54.9,11.1L54.4,11.1L54.4,10.6L52.9,10.6L52.9,10.1L51.9,10.1L51.9,9.6L49.1,9.6L49.1,10.1L48.6,10.1L48.6,11.1L48.1,11.1L48.1,13.4L48.6,13.4L48.6,13.9L80.9,13.9L80.9,13.4L81.9,13.4L81.9,12.9L91.9,12.9L91.9,12.4L97.9,12.4L97.9,11.9z" stroke="none"/><path d="M55.6,10.5L55.4,10.5L55.4,10.1L53.4,10.1L53.4,9.6L52.9,9.6L52.9,9.1L48.1,9.1L48.1,10.6L47.6,10.6L47.6,13.9L48.1,13.9L48.1,14.4L98.9,14.4L98.9,13.9L99.4,13.9L99.4,12.4L99.9,12.4L99.9,10.4L100.5,10.4L100.5,10.6L100.1,10.6L100.1,12.6L99.6,12.6L99.6,14.1L99.1,14.1L99.1,14.6L47.9,14.6L47.9,14.1L47.4,14.1L47.4,10.4L47.9,10.4L47.9,8.9L53.1,8.9L53.1,9.4L53.6,9.4L53.6,9.9L55.6,9.9z" stroke="none"/><path d="M25.6,3L25.4,3L25.4,2.4L25.9,2.4L25.9,1.9L31.4,1.9L31.4,1.4L63.1,1.4L63.1,1.9L63.6,1.9L63.6,3.4L64.1,3.4L64.1,3.9L65.1,3.9L65.1,6.9L69.9,6.9L69.9,6.4L70.4,6.4L70.4,6L70.6,6L70.6,6.6L70.1,6.6L70.1,7.1L64.9,7.1L64.9,4.1L63.9,4.1L63.9,3.6L63.4,3.6L63.4,2.1L62.9,2.1L62.9,1.6L31.6,1.6L31.6,2.1L26.1,2.1L26.1,2.6L25.6,2.6z" stroke="none"/><path d="M100.5,5.9L100.5,6.1L99.9,6.1L99.9,5.1L98.9,5.1L98.9,4.6L96.4,4.6L96.4,3.1L87.9,3.1L87.9,2.6L87.4,2.6L87.4,2.1L64.4,2.1L64.4,1.6L63.4,1.6L63.4,1.1L19.1,1.1L19.1,2.1L18.6,2.1L18.6,2.6L16.6,2.6L16.6,4.1L12.9,4.1L12.9,3.6L11.1,3.6L11.1,4.1L6.4,4.1L6.4,3.6L5.1,3.6L5.1,10.9L5.6,10.9L5.6,11.4L7.6,11.4L7.6,12.4L8.1,12.4L8.1,12.9L8.6,12.9L8.6,13.4L9.1,13.4L9.1,14.4L42.4,14.4L42.4,13.4L42.9,13.4L42.9,11.1L38.1,11.1L38.1,11.6L36.4,11.6L36.4,9.4L38.4,9.4L38.4,8.4L41.4,8.4L41.4,7.9L41.9,7.9L41.9,7.4L45.9,7.4L45.9,6.9L47.9,6.9L47.9,6.4L50.4,6.4L50.4,5.9L51,5.9L51,6.1L50.6,6.1L50.6,6.6L48.1,6.6L48.1,7.1L46.1,7.1L46.1,7.6L42.1,7.6L42.1,8.1L41.6,8.1L41.6,8.6L38.6,8.6L38.6,9.6L36.6,9.6L36.6,11.4L37.9,11.4L37.9,10.9L43.1,10.9L43.1,13.6L42.6,13.6L42.6,14.6L8.9,14.6L8.9,13.6L8.4,13.6L8.4,13.1L7.9,13.1L7.9,12.6L7.4,12.6L7.4,11.6L5.4,11.6L5.4,11.1L4.9,11.1L4.9,3.4L6.6,3.4L6.6,3.9L10.9,3.9L10.9,3.4L13.1,3.4L13.1,3.9L16.4,3.9L16.4,2.4L18.4,2.4L18.4,1.9L18.9,1.9L18.9,0.9L63.6,0.9L63.6,1.4L64.6,1.4L64.6,1.9L87.6,1.9L87.6,2.4L88.1,2.4L88.1,2.9L96.6,2.9L96.6,4.4L99.1,4.4L99.1,4.9L100.1,4.9L100.1,5.9z" stroke="none"/></svg>