<svg version="1.1" width="105" height="15" xmlns="http://www.w3.org/2000/svg"><path d="M66.9,6.9L66.9,5.1L65.9,5.1L65.9,4.6L64.5,4.6L64.5,4.4L66.1,4.4L66.1,4.9L67.1,4.9L67.1,6.9L69.6,6.9L69.6,7.4L70.5,7.4L70.5,7.6L69.4,7.6L69.4,7.1L66.6,7.1L66.6,7.6L66.1,7.6L66.1,9L65.9,9L65.9,7.4L66.4,7.4L66.4,6.9z" stroke="none"/><path d="M74.4,10.9L74.4,10.4L83.4,10.4L83.4,9.9L85.1,9.9L85.1,10.4L85.6,10.4L85.6,11.4L86.1,11.4L86.1,11.9L87,11.9L87,12.1L85.9,12.1L85.9,11.6L85.4,11.6L85.4,10.6L84.9,10.6L84.9,10.1L83.6,10.1L83.6,10.6L74.6,10.6L74.6,10.9L83.9,10.9L83.9,10.5L84.1,10.5L84.1,11.1L71.1,11.1L71.1,11.6L62.4,11.6L62.4,11.1L59.4,11.1L59.4,10.6L52.5,10.6L52.5,10.4L59.6,10.4L59.6,10.9L62.6,10.9L62.6,11.4L70.9,11.4L70.9,10.9z" stroke="none"/><path d="M43.9,7.4L43.9,6.9L44.9,6.9L44.9,6.4L47.9,6.4L47.9,5.9L48.4,5.9L48.4,4.9L59.9,4.9L59.9,4.5L60.1,4.5L60.1,5.1L48.6,5.1L48.6,6.1L48.1,6.1L48.1,6.6L45.1,6.6L45.1,7.1L44.1,7.1L44.1,7.4L45.1,7.4L45.1,7.9L45.6,7.9L45.6,8.4L55.6,8.4L55.6,8.9L57,8.9L57,9.1L55.4,9.1L55.4,8.6L45.4,8.6L45.4,8.1L44.9,8.1L44.9,7.6L22.1,7.6L22.1,8.6L18.6,8.6L18.6,9.6L17.6,9.6L17.6,10.1L15.9,10.1L15.9,9.6L15.4,9.6L15.4,9.1L15,9.1L15,8.9L15.6,8.9L15.6,9.4L16.1,9.4L16.1,9.9L17.4,9.9L17.4,9.4L18.4,9.4L18.4,8.4L21.9,8.4L21.9,7.4z" stroke="none"/><path d="M24.4,9.4L24.4,9.1L20.6,9.1L20.6,10.1L18.6,10.1L18.6,10.6L14.9,10.6L14.9,10.1L10.6,10.1L10.6,10.5L10.4,10.5L10.4,9.9L15.1,9.9L15.1,10.4L18.4,10.4L18.4,9.9L20.4,9.9L20.4,8.9L24.6,8.9L24.6,9.4L56.6,9.4L56.6,9.9L57.9,9.9L57.9,8.6L57.4,8.6L57.4,8.1L56.4,8.1L56.4,7.6L55.5,7.6L55.5,7.4L56.6,7.4L56.6,7.9L57.6,7.9L57.6,8.4L58.1,8.4L58.1,10.1L56.4,10.1L56.4,9.6L24.6,9.6L24.6,10.6L22.6,10.6L22.6,11.1L12.4,11.1L12.4,10.6L12,10.6L12,10.4L12.6,10.4L12.6,10.9L22.4,10.9L22.4,10.4L24.4,10.4L24.4,9.6L24.1,9.6L24.1,10.1L22.1,10.1L22.1,10.6L21,10.6L21,10.4L21.9,10.4L21.9,9.9L23.9,9.9L23.9,9.4z" stroke="none"/><path d="M38.4,4.4L38.4,4.1L29.4,4.1L29.4,3.6L28.9,3.6L28.9,3.1L27,3.1L27,2.9L29.1,2.9L29.1,3.4L29.6,3.4L29.6,3.9L38.6,3.9L38.6,4.4L41.4,4.4L41.4,3.9L42.9,3.9L42.9,3.4L46.1,3.4L46.1,3.9L58.9,3.9L58.9,3.4L61.4,3.4L61.4,2.9L66.1,2.9L66.1,3.4L67.1,3.4L67.1,3.9L68.6,3.9L68.6,4.4L69,4.4L69,4.6L68.4,4.6L68.4,4.1L66.9,4.1L66.9,3.6L65.9,3.6L65.9,3.1L61.6,3.1L61.6,3.6L59.1,3.6L59.1,4.1L45.9,4.1L45.9,3.6L43.1,3.6L43.1,4.1L41.6,4.1L41.6,4.6L38.6,4.6L38.6,5.1L31.1,5.1L31.1,5.6L30.6,5.6L30.6,6.1L25.5,6.1L25.5,5.9L30.4,5.9L30.4,5.4L30.9,5.4L30.9,4.9L38.4,4.9L38.4,4.6L33,4.6L33,4.4z" stroke="none"/><path d="M71.4,6.4L71.4,5.9L84.6,5.9L84.6,6.9L85.1,6.9L85.1,7.4L85.6,7.4L85.6,7.9L86.1,7.9L86.1,8.9L87,8.9L87,9.1L85.9,9.1L85.9,8.1L85.4,8.1L85.4,7.6L84.9,7.6L84.9,7.1L84.4,7.1L84.4,6.1L71.6,6.1L71.6,6.4L80.6,6.4L80.6,6.9L81.6,6.9L81.6,8.4L82.6,8.4L82.6,9L82.4,9L82.4,8.6L81.4,8.6L81.4,7.1L80.4,7.1L80.4,6.6L71.6,6.6L71.6,8.1L71.1,8.1L71.1,8.6L69.1,8.6L69.1,9.1L68.6,9.1L68.6,10.1L65.4,10.1L65.4,9.6L64.9,9.6L64.9,9.1L64.4,9.1L64.4,7.5L64.6,7.5L64.6,8.9L65.1,8.9L65.1,9.4L65.6,9.4L65.6,9.9L68.4,9.9L68.4,8.9L68.9,8.9L68.9,8.4L70.9,8.4L70.9,7.9L71.4,7.9L71.4,6.6L69.9,6.6L69.9,6.1L68.9,6.1L68.9,5.6L67.9,5.6L67.9,5.1L67.4,5.1L67.4,4.6L66.4,4.6L66.4,4.1L65.4,4.1L65.4,3.6L62.1,3.6L62.1,4.1L61.6,4.1L61.6,4.6L61.1,4.6L61.1,5.1L60.6,5.1L60.6,5.6L49.6,5.6L49.6,6L49.4,6L49.4,5.4L60.4,5.4L60.4,4.9L60.9,4.9L60.9,4.4L61.4,4.4L61.4,3.9L61.9,3.9L61.9,3.4L65.6,3.4L65.6,3.9L66.6,3.9L66.6,4.4L67.6,4.4L67.6,4.9L68.1,4.9L68.1,5.4L69.1,5.4L69.1,5.9L70.1,5.9L70.1,6.4z" stroke="none"/><path d="M89.9,9L90.1,9L90.1,10.5L89.9,10.5z" stroke="none"/><path d="M16.6,9L16.4,9L16.4,7.5L16.6,7.5z" stroke="none"/><path d="M79.6,3L79.4,3L79.4,2.4L79.9,2.4L79.9,1.9L81.6,1.9L81.6,2.4L82.1,2.4L82.1,2.9L82.5,2.9L82.5,3.1L81.9,3.1L81.9,2.6L81.4,2.6L81.4,2.1L80.1,2.1L80.1,2.6L79.6,2.6z" stroke="none"/><path d="M91.4,3L91.6,3L91.6,6.1L91.1,6.1L91.1,6.6L90.6,6.6L90.6,7.1L90.1,7.1L90.1,7.5L89.9,7.5L89.9,6.9L90.4,6.9L90.4,6.4L90.9,6.4L90.9,5.9L91.4,5.9z" stroke="none"/><path d="M92.9,6L93.1,6L93.1,6.9L94.6,6.9L94.6,8.4L95.1,8.4L95.1,8.9L97.1,8.9L97.1,9.4L98.6,9.4L98.6,10.4L99,10.4L99,10.6L98.4,10.6L98.4,9.6L96.9,9.6L96.9,9.1L94.9,9.1L94.9,8.6L94.4,8.6L94.4,7.1L92.9,7.1z" stroke="none"/><path d="M13.5,12.1L13.5,11.9L21,11.9L21,12.1z" stroke="none"/><path d="M99,5.9L99,6.1L94.9,6.1L94.9,5.6L94.4,5.6L94.4,5.1L93.9,5.1L93.9,2.6L91.9,2.6L91.9,2.1L91.1,2.1L91.1,2.6L90.6,2.6L90.6,5.6L90.1,5.6L90.1,6L89.9,6L89.9,5.4L90.4,5.4L90.4,2.4L90.9,2.4L90.9,1.9L92.1,1.9L92.1,2.4L94.1,2.4L94.1,4.9L94.6,4.9L94.6,5.4L95.1,5.4L95.1,5.9z" stroke="none"/><path d="M97.5,10.4L97.5,10.6L95.6,10.6L95.6,11.1L94.6,11.1L94.6,11.6L93.1,11.6L93.1,12.1L88.5,12.1L88.5,11.9L92.9,11.9L92.9,11.4L94.4,11.4L94.4,10.9L95.4,10.9L95.4,10.4z" stroke="none"/><path d="M85.5,5.9L85.5,6.1L84.9,6.1L84.9,5.6L75.9,5.6L75.9,3.6L75.4,3.6L75.4,3.1L75,3.1L75,2.9L75.6,2.9L75.6,3.4L76.1,3.4L76.1,5.4L85.1,5.4L85.1,5.9z" stroke="none"/><path d="M22.5,3.1L22.5,2.9L25.4,2.9L25.4,2.4L26.4,2.4L26.4,1.9L33.6,1.9L33.6,2.9L34.5,2.9L34.5,3.1L33.4,3.1L33.4,2.1L26.6,2.1L26.6,2.6L25.6,2.6L25.6,3.1z" stroke="none"/><path d="M67.5,3.1L67.5,2.9L73.9,2.9L73.9,2.4L74.4,2.4L74.4,1.9L77.1,1.9L77.1,2.4L77.6,2.4L77.6,3.4L78.1,3.4L78.1,3.9L79.9,3.9L79.9,3.4L80.9,3.4L80.9,3L81.1,3L81.1,3.6L80.1,3.6L80.1,4.1L77.9,4.1L77.9,3.6L77.4,3.6L77.4,2.6L76.9,2.6L76.9,2.1L74.6,2.1L74.6,2.6L74.1,2.6L74.1,3.1z" stroke="none"/><path d="M9,12.1L9,11.9L12.1,11.9L12.1,12.4L13.1,12.4L13.1,12.9L21.9,12.9L21.9,12.4L22.4,12.4L22.4,12L22.6,12L22.6,12.6L22.1,12.6L22.1,13.1L12.9,13.1L12.9,12.6L11.9,12.6L11.9,12.1z" stroke="none"/><path d="M79.5,9.1L79.5,8.9L81.6,8.9L81.6,9.4L82.1,9.4L82.1,9.9L82.9,9.9L82.9,9.4L85.6,9.4L85.6,9.9L89.1,9.9L89.1,11.4L90.4,11.4L90.4,10.9L90.9,10.9L90.9,8.4L91.4,8.4L91.4,6.4L91.9,6.4L91.9,4.9L92.9,4.9L92.9,4.5L93.1,4.5L93.1,5.1L92.1,5.1L92.1,6.6L91.6,6.6L91.6,8.6L91.1,8.6L91.1,11.1L90.6,11.1L90.6,11.6L88.9,11.6L88.9,10.1L85.4,10.1L85.4,9.6L83.1,9.6L83.1,10.1L81.9,10.1L81.9,9.6L81.4,9.6L81.4,9.1z" stroke="none"/><path d="M60,7.6L60,7.4L60.6,7.4L60.6,7.9L61.1,7.9L61.1,8.4L61.6,8.4L61.6,9.4L64.6,9.4L64.6,9.9L65.1,9.9L65.1,10.4L69.4,10.4L69.4,9.9L69.9,9.9L69.9,9.4L74.4,9.4L74.4,8.9L75,8.9L75,9.1L74.6,9.1L74.6,9.6L70.1,9.6L70.1,10.1L69.6,10.1L69.6,10.6L64.9,10.6L64.9,10.1L64.4,10.1L64.4,9.6L61.4,9.6L61.4,8.6L60.9,8.6L60.9,8.1L60.4,8.1L60.4,7.6z" stroke="none"/><path d="M99,7.6L99,7.4L99.6,7.4L99.6,9.9L100.1,9.9L100.1,11.1L99.6,11.1L99.6,11.6L95.1,11.6L95.1,12.1L93.6,12.1L93.6,12.6L89.1,12.6L89.1,13.1L86.4,13.1L86.4,12.6L84.4,12.6L84.4,12.1L84,12.1L84,11.9L84.6,11.9L84.6,12.4L86.6,12.4L86.6,12.9L88.9,12.9L88.9,12.4L93.4,12.4L93.4,11.9L94.9,11.9L94.9,11.4L99.4,11.4L99.4,10.9L99.9,10.9L99.9,10.1L99.4,10.1L99.4,7.6z" stroke="none"/><path d="M25.5,10.4L25.5,10.6L25.1,10.6L25.1,11.1L24.1,11.1L24.1,12.1L23.6,12.1L23.6,12.6L23.1,12.6L23.1,13.1L22.6,13.1L22.6,13.6L8.4,13.6L8.4,13.1L7.9,13.1L7.9,7.4L9,7.4L9,7.6L8.1,7.6L8.1,12.9L8.6,12.9L8.6,13.4L22.4,13.4L22.4,12.9L22.9,12.9L22.9,12.4L23.4,12.4L23.4,11.9L23.9,11.9L23.9,10.9L24.9,10.9L24.9,10.4z" stroke="none"/><path d="M28.5,12.1L28.5,11.9L42.4,11.9L42.4,11.4L42.9,11.4L42.9,10.9L47.9,10.9L47.9,10.5L48.1,10.5L48.1,11.1L43.1,11.1L43.1,11.6L42.6,11.6L42.6,12.1z" stroke="none"/><path d="M43.5,11.9L43.5,12.1L43.1,12.1L43.1,12.6L32.6,12.6L32.6,13.1L23.6,13.1L23.6,13.6L23.1,13.6L23.1,14.1L7.4,14.1L7.4,6.9L8.4,6.9L8.4,6.4L20.6,6.4L20.6,6.9L21.1,6.9L21.1,7.5L20.9,7.5L20.9,7.1L20.4,7.1L20.4,6.6L8.6,6.6L8.6,7.1L7.6,7.1L7.6,13.9L22.9,13.9L22.9,13.4L23.4,13.4L23.4,12.9L32.4,12.9L32.4,12.4L42.9,12.4L42.9,11.9z" stroke="none"/><path d="M70.5,10.4L70.5,10.6L70.1,10.6L70.1,11.1L63.4,11.1L63.4,10.6L62.4,10.6L62.4,10.1L59.9,10.1L59.9,9.6L58.4,9.6L58.4,7.1L55.9,7.1L55.9,6.6L54.1,6.6L54.1,7.1L46.6,7.1L46.6,7.5L46.4,7.5L46.4,6.9L53.9,6.9L53.9,6.4L56.1,6.4L56.1,6.9L58.6,6.9L58.6,9.4L60.1,9.4L60.1,9.9L62.6,9.9L62.6,10.4L63.6,10.4L63.6,10.9L69.9,10.9L69.9,10.4z" stroke="none"/><path d="M49.5,3.1L49.5,2.9L60.9,2.9L60.9,2.4L66.9,2.4L66.9,1.9L67.4,1.9L67.4,1.4L82.6,1.4L82.6,1.9L83.6,1.9L83.6,4.1L82.1,4.1L82.1,4.6L76.9,4.6L76.9,3.6L76.4,3.6L76.4,3L76.6,3L76.6,3.4L77.1,3.4L77.1,4.4L81.9,4.4L81.9,3.9L83.4,3.9L83.4,2.1L82.4,2.1L82.4,1.6L67.6,1.6L67.6,2.1L67.1,2.1L67.1,2.6L61.1,2.6L61.1,3.1z" stroke="none"/><path d="M15,4.6L15,4.4L20.4,4.4L20.4,3.9L20.9,3.9L20.9,3.4L21.4,3.4L21.4,2.4L21.9,2.4L21.9,1.9L25.4,1.9L25.4,1.4L38.1,1.4L38.1,1.9L39.1,1.9L39.1,2.4L40.1,2.4L40.1,2.9L42,2.9L42,3.1L39.9,3.1L39.9,2.6L38.9,2.6L38.9,2.1L37.9,2.1L37.9,1.6L25.6,1.6L25.6,2.1L22.1,2.1L22.1,2.6L21.6,2.6L21.6,3.6L21.1,3.6L21.1,4.1L20.6,4.1L20.6,4.6z" stroke="none"/><path d="M5.9,12L6.1,12L6.1,14.4L42.9,14.4L42.9,13.9L43.4,13.9L43.4,13.4L43.9,13.4L43.9,12.9L44.4,12.9L44.4,12.4L44.9,12.4L44.9,12L45.1,12L45.1,12.6L44.6,12.6L44.6,13.1L44.1,13.1L44.1,13.6L43.6,13.6L43.6,14.1L43.1,14.1L43.1,14.6L5.9,14.6z" stroke="none"/><path d="M43.5,4.4L43.5,4.6L42.1,4.6L42.1,5.1L39.1,5.1L39.1,5.6L33.1,5.6L33.1,6.1L31.6,6.1L31.6,6.6L26.6,6.6L26.6,7.1L21.4,7.1L21.4,6.6L20.9,6.6L20.9,6.1L14.9,6.1L14.9,5.6L14.4,5.6L14.4,5.1L13.9,5.1L13.9,3.9L14.4,3.9L14.4,3.4L20.4,3.4L20.4,2.4L20.9,2.4L20.9,1.9L21.4,1.9L21.4,1.4L24.9,1.4L24.9,0.9L83.6,0.9L83.6,1.4L84.1,1.4L84.1,2.9L84.6,2.9L84.6,3.9L85.1,3.9L85.1,4.4L85.5,4.4L85.5,4.6L84.9,4.6L84.9,4.1L84.4,4.1L84.4,3.1L83.9,3.1L83.9,1.6L83.4,1.6L83.4,1.1L25.1,1.1L25.1,1.6L21.6,1.6L21.6,2.1L21.1,2.1L21.1,2.6L20.6,2.6L20.6,3.6L14.6,3.6L14.6,4.1L14.1,4.1L14.1,4.9L14.6,4.9L14.6,5.4L15.1,5.4L15.1,5.9L21.1,5.9L21.1,6.4L21.6,6.4L21.6,6.9L26.4,6.9L26.4,6.4L31.4,6.4L31.4,5.9L32.9,5.9L32.9,5.4L38.9,5.4L38.9,4.9L41.9,4.9L41.9,4.4z" stroke="none"/><path d="M52.5,12.1L52.5,11.9L82.6,11.9L82.6,12.9L84.1,12.9L84.1,13.4L99.4,13.4L99.4,12.4L99.9,12.4L99.9,11.4L100.4,11.4L100.4,6.6L99.9,6.6L99.9,5.6L99.4,5.6L99.4,5.1L96.4,5.1L96.4,4.1L95.9,4.1L95.9,2.6L94.9,2.6L94.9,2.1L92.4,2.1L92.4,1.6L85.4,1.6L85.4,1.1L84.4,1.1L84.4,0.6L17.1,0.6L17.1,2.1L15.1,2.1L15.1,3.1L13.6,3.1L13.6,3.6L12.6,3.6L12.6,4.1L12.1,4.1L12.1,4.6L11.6,4.6L11.6,5.1L10.1,5.1L10.1,5.6L9.6,5.6L9.6,6.1L7.6,6.1L7.6,6.6L6.6,6.6L6.6,7.6L6,7.6L6,7.4L6.4,7.4L6.4,6.4L7.4,6.4L7.4,5.9L9.4,5.9L9.4,5.4L9.9,5.4L9.9,4.9L11.4,4.9L11.4,4.4L11.9,4.4L11.9,3.9L12.4,3.9L12.4,3.4L13.4,3.4L13.4,2.9L14.9,2.9L14.9,1.9L16.9,1.9L16.9,0.4L84.6,0.4L84.6,0.9L85.6,0.9L85.6,1.4L92.6,1.4L92.6,1.9L95.1,1.9L95.1,2.4L96.1,2.4L96.1,3.9L96.6,3.9L96.6,4.9L99.6,4.9L99.6,5.4L100.1,5.4L100.1,6.4L100.6,6.4L100.6,11.6L100.1,11.6L100.1,12.6L99.6,12.6L99.6,13.6L83.9,13.6L83.9,13.1L82.4,13.1L82.4,12.1z" stroke="none"/></svg>