<svg version="1.1" width="105" height="15" xmlns="http://www.w3.org/2000/svg"><path d="M20.9,8.9L20.9,8.4L22.9,8.4L22.9,7.9L23.4,7.9L23.4,6.4L23.9,6.4L23.9,6L24.1,6L24.1,6.6L23.6,6.6L23.6,8.1L23.1,8.1L23.1,8.6L21.1,8.6L21.1,8.9L22.5,8.9L22.5,9.1L20.6,9.1L20.6,10.1L18.1,10.1L18.1,10.5L17.9,10.5L17.9,9.9L20.4,9.9L20.4,8.9z" stroke="none"/><path d="M85.1,11.4L85.1,11.9L85.5,11.9L85.5,12.1L84.9,12.1L84.9,11.6L84.1,11.6L84.1,11.9L84.6,11.9L84.6,12.4L101.4,12.4L101.4,11.9L102,11.9L102,12.1L101.6,12.1L101.6,12.6L84.4,12.6L84.4,12.1L83.9,12.1L83.9,11.6L76.9,11.6L76.9,11.1L72.6,11.1L72.6,11.6L65.4,11.6L65.4,11.1L64.4,11.1L64.4,10.5L64.6,10.5L64.6,10.9L65.6,10.9L65.6,11.4L72.4,11.4L72.4,10.9L77.1,10.9L77.1,11.4z" stroke="none"/><path d="M68.4,7.9L68.4,7.4L69,7.4L69,7.6L68.6,7.6L68.6,8.1L67.6,8.1L67.6,8.4L73.6,8.4L73.6,8.9L74.1,8.9L74.1,9.9L77.4,9.9L77.4,9.4L85.1,9.4L85.1,9.9L85.6,9.9L85.6,10.5L85.4,10.5L85.4,10.1L84.9,10.1L84.9,9.6L77.6,9.6L77.6,10.1L73.9,10.1L73.9,9.1L73.4,9.1L73.4,8.6L67.4,8.6L67.4,8.1L66.9,8.1L66.9,7.6L65.9,7.6L65.9,7.1L64.9,7.1L64.9,6.6L50.9,6.6L50.9,6.1L49.5,6.1L49.5,5.9L51.1,5.9L51.1,6.4L65.1,6.4L65.1,6.9L66.1,6.9L66.1,7.4L67.1,7.4L67.1,7.9z" stroke="none"/><path d="M64.4,7.9L64.4,7.6L63.4,7.6L63.4,7.1L37.9,7.1L37.9,6.6L37.4,6.6L37.4,6.1L36.9,6.1L36.9,5.1L35.1,5.1L35.1,6.9L35.6,6.9L35.6,7.4L36,7.4L36,7.6L35.4,7.6L35.4,7.1L34.9,7.1L34.9,4.9L37.1,4.9L37.1,5.9L37.6,5.9L37.6,6.4L38.1,6.4L38.1,6.9L63.6,6.9L63.6,7.4L64.6,7.4L64.6,7.9L65.6,7.9L65.6,8.4L67.1,8.4L67.1,8.9L72.6,8.9L72.6,9.4L73.6,9.4L73.6,10.4L78,10.4L78,10.6L73.4,10.6L73.4,9.6L72.4,9.6L72.4,9.1L66.9,9.1L66.9,8.6L65.4,8.6L65.4,8.1L64.6,8.1L64.6,8.6L64.1,8.6L64.1,10.1L63.6,10.1L63.6,11.4L64.1,11.4L64.1,11.9L71.6,11.9L71.6,12.4L74.6,12.4L74.6,12.9L102.9,12.9L102.9,10.1L102.4,10.1L102.4,9.6L85.4,9.6L85.4,9.1L84.4,9.1L84.4,8.6L83.9,8.6L83.9,8.1L80.9,8.1L80.9,7.5L81.1,7.5L81.1,7.9L84.1,7.9L84.1,8.4L84.6,8.4L84.6,8.9L85.6,8.9L85.6,9.4L102.6,9.4L102.6,9.9L103.1,9.9L103.1,13.1L74.4,13.1L74.4,12.6L71.4,12.6L71.4,12.1L63.9,12.1L63.9,11.6L63.4,11.6L63.4,9.9L63.9,9.9L63.9,8.4L64.4,8.4L64.4,8.1L62.9,8.1L62.9,7.5L63.1,7.5L63.1,7.9z" stroke="none"/><path d="M47.9,8.4L47.9,7.9L60.1,7.9L60.1,8.4L60.6,8.4L60.6,9.4L61.1,9.4L61.1,10.4L61.6,10.4L61.6,12.4L70.1,12.4L70.1,12.9L73.6,12.9L73.6,13.4L103.4,13.4L103.4,9.6L102.9,9.6L102.9,9.1L86.4,9.1L86.4,8.1L84.4,8.1L84.4,7.6L83.9,7.6L83.9,7.1L81.9,7.1L81.9,6.6L79.6,6.6L79.6,7.1L77.1,7.1L77.1,7.6L76.5,7.6L76.5,7.4L76.9,7.4L76.9,6.9L79.4,6.9L79.4,6.4L82.1,6.4L82.1,6.9L84.1,6.9L84.1,7.4L84.6,7.4L84.6,7.9L86.6,7.9L86.6,8.9L103.1,8.9L103.1,9.4L103.6,9.4L103.6,13.6L73.4,13.6L73.4,13.1L69.9,13.1L69.9,12.6L61.4,12.6L61.4,10.6L60.9,10.6L60.9,9.6L60.4,9.6L60.4,8.6L59.9,8.6L59.9,8.1L48.1,8.1L48.1,8.4L50.6,8.4L50.6,9.4L51.1,9.4L51.1,10.4L52.5,10.4L52.5,10.6L50.9,10.6L50.9,9.6L50.4,9.6L50.4,8.6L48.1,8.6L48.1,9.1L30.6,9.1L30.6,10.1L30.1,10.1L30.1,10.6L28.5,10.6L28.5,10.4L29.9,10.4L29.9,9.9L30.4,9.9L30.4,8.9L47.9,8.9L47.9,8.6L36.9,8.6L36.9,6.6L35.9,6.6L35.9,6L36.1,6L36.1,6.4L37.1,6.4L37.1,8.4z" stroke="none"/><path d="M82.4,5.4L82.4,4.1L80.4,4.1L80.4,3.6L75.1,3.6L75.1,4.6L73.5,4.6L73.5,4.4L74.9,4.4L74.9,3.4L80.6,3.4L80.6,3.9L82.6,3.9L82.6,5.4L85.9,5.4L85.9,4.9L87.4,4.9L87.4,2.9L88.5,2.9L88.5,3.1L87.6,3.1L87.6,5.1L86.1,5.1L86.1,5.6L82.6,5.6L82.6,5.9L94.1,5.9L94.1,6.4L94.6,6.4L94.6,7.5L94.4,7.5L94.4,6.6L93.9,6.6L93.9,6.1L82.4,6.1L82.4,5.6L79.1,5.6L79.1,6.1L76.6,6.1L76.6,6.6L75.1,6.6L75.1,7.5L74.9,7.5L74.9,6.4L76.4,6.4L76.4,5.9L78.9,5.9L78.9,5.4z" stroke="none"/><path d="M96,2.9L96,3.1L94.5,3.1L94.5,2.9z" stroke="none"/><path d="M76.5,11.9L76.5,12.1L75,12.1L75,11.9z" stroke="none"/><path d="M72,10.4L72,10.6L70.5,10.6L70.5,10.4z" stroke="none"/><path d="M3,4.6L3,4.4L5.4,4.4L5.4,3.4L5.9,3.4L5.9,3L6.1,3L6.1,3.6L5.6,3.6L5.6,4.6z" stroke="none"/><path d="M20.9,3L21.1,3L21.1,7.5L20.9,7.5z" stroke="none"/><path d="M7.6,12L7.4,12L7.4,7.5L7.6,7.5z" stroke="none"/><path d="M102,10.4L102,10.6L97.5,10.6L97.5,10.4z" stroke="none"/><path d="M43.5,4.6L43.5,4.4L44.9,4.4L44.9,3.4L45.4,3.4L45.4,2.9L48,2.9L48,3.1L45.6,3.1L45.6,3.6L45.1,3.6L45.1,4.6z" stroke="none"/><path d="M100.6,7.5L100.4,7.5L100.4,4.4L101.9,4.4L101.9,3L102.1,3L102.1,4.6L100.6,4.6z" stroke="none"/><path d="M19.5,8.9L19.5,9.1L13.5,9.1L13.5,8.9z" stroke="none"/><path d="M29.9,4.5L30.1,4.5L30.1,6.6L27.1,6.6L27.1,7.6L25.6,7.6L25.6,9L25.4,9L25.4,7.4L26.9,7.4L26.9,6.4L29.9,6.4z" stroke="none"/><path d="M22.5,7.4L22.5,7.6L21.9,7.6L21.9,6.6L21.4,6.6L21.4,4.4L21.9,4.4L21.9,2.6L21.4,2.6L21.4,2.1L14.6,2.1L14.6,2.6L14.1,2.6L14.1,3.6L13.6,3.6L13.6,4.5L13.4,4.5L13.4,3.4L13.9,3.4L13.9,2.4L14.4,2.4L14.4,1.9L21.6,1.9L21.6,2.4L22.1,2.4L22.1,4.6L21.6,4.6L21.6,6.4L22.1,6.4L22.1,7.4z" stroke="none"/><path d="M75,8.9L75,9.1L74.4,9.1L74.4,8.6L73.9,8.6L73.9,8.1L73.4,8.1L73.4,7.6L72.4,7.6L72.4,7.1L70.9,7.1L70.9,6.6L67.9,6.6L67.9,5.6L66.4,5.6L66.4,4.6L66,4.6L66,4.4L66.6,4.4L66.6,5.4L68.1,5.4L68.1,6.4L71.1,6.4L71.1,6.9L72.6,6.9L72.6,7.4L73.6,7.4L73.6,7.9L74.1,7.9L74.1,8.4L74.6,8.4L74.6,8.9z" stroke="none"/><path d="M19.5,5.9L19.5,6.1L3,6.1L3,5.9z" stroke="none"/><path d="M37.5,10.4L37.5,10.6L30.6,10.6L30.6,11.1L29.1,11.1L29.1,11.6L21.6,11.6L21.6,12.1L21,12.1L21,11.9L21.4,11.9L21.4,11.4L28.9,11.4L28.9,10.9L30.4,10.9L30.4,10.4z" stroke="none"/><path d="M61.5,3.1L61.5,2.9L68.6,2.9L68.6,3.4L71.6,3.4L71.6,3.9L72.1,3.9L72.1,4.4L72.6,4.4L72.6,4.9L73.1,4.9L73.1,5.4L77.4,5.4L77.4,4.9L78.9,4.9L78.9,4.4L79.5,4.4L79.5,4.6L79.1,4.6L79.1,5.1L77.6,5.1L77.6,5.6L72.9,5.6L72.9,5.1L72.4,5.1L72.4,4.6L71.9,4.6L71.9,4.1L71.4,4.1L71.4,3.6L68.4,3.6L68.4,3.1z" stroke="none"/><path d="M57,4.4L57,4.6L55.4,4.6L55.4,4.1L54.9,4.1L54.9,3.6L50.4,3.6L50.4,3.1L48.9,3.1L48.9,2.1L37.1,2.1L37.1,2.6L35.1,2.6L35.1,3.1L34.5,3.1L34.5,2.9L34.9,2.9L34.9,2.4L36.9,2.4L36.9,1.9L49.1,1.9L49.1,2.9L50.6,2.9L50.6,3.4L55.1,3.4L55.1,3.9L55.6,3.9L55.6,4.4z" stroke="none"/><path d="M33.1,7.5L32.9,7.5L32.9,1.9L33.4,1.9L33.4,1.4L56.6,1.4L56.6,2.4L57.1,2.4L57.1,3L56.9,3L56.9,2.6L56.4,2.6L56.4,1.6L33.6,1.6L33.6,2.1L33.1,2.1z" stroke="none"/><path d="M33,12.1L33,11.9L43.6,11.9L43.6,12.4L44.6,12.4L44.6,12.9L57.9,12.9L57.9,11.9L58.5,11.9L58.5,12.1L58.1,12.1L58.1,13.1L44.4,13.1L44.4,12.6L43.4,12.6L43.4,12.1z" stroke="none"/><path d="M9,3.1L9,2.9L11.9,2.9L11.9,1.9L13.4,1.9L13.4,1.4L29.6,1.4L29.6,2.9L30.1,2.9L30.1,3.4L30.6,3.4L30.6,3.9L31.1,3.9L31.1,6.9L31.6,6.9L31.6,7.4L32.1,7.4L32.1,7.9L32.6,7.9L32.6,8.4L33.4,8.4L33.4,7.9L33.9,7.9L33.9,4.4L38.1,4.4L38.1,5.4L38.6,5.4L38.6,5.9L39,5.9L39,6.1L38.4,6.1L38.4,5.6L37.9,5.6L37.9,4.6L34.1,4.6L34.1,8.1L33.6,8.1L33.6,8.6L32.4,8.6L32.4,8.1L31.9,8.1L31.9,7.6L31.4,7.6L31.4,7.1L30.9,7.1L30.9,4.1L30.4,4.1L30.4,3.6L29.9,3.6L29.9,3.1L29.4,3.1L29.4,1.6L13.6,1.6L13.6,2.1L12.1,2.1L12.1,3.1z" stroke="none"/><path d="M22.5,6.1L22.5,5.9L22.9,5.9L22.9,5.4L23.4,5.4L23.4,4.9L24.6,4.9L24.6,5.4L25.1,5.4L25.1,7.6L24.6,7.6L24.6,9.1L24.1,9.1L24.1,9.6L23.1,9.6L23.1,10.1L21.1,10.1L21.1,10.6L19.6,10.6L19.6,11.1L18.6,11.1L18.6,11.6L14.9,11.6L14.9,11.1L14.4,11.1L14.4,10.1L12.9,10.1L12.9,9.6L12.4,9.6L12.4,9.1L11.4,9.1L11.4,8.6L10.9,8.6L10.9,8.1L9.4,8.1L9.4,7.6L8.9,7.6L8.9,7.1L7.9,7.1L7.9,6.6L3.6,6.6L3.6,7.1L2.4,7.1L2.4,6.6L1.9,6.6L1.9,3.9L2.4,3.9L2.4,3.4L4.9,3.4L4.9,2.4L5.4,2.4L5.4,1.9L11.4,1.9L11.4,1.4L12.9,1.4L12.9,0.9L57.1,0.9L57.1,1.4L57.6,1.4L57.6,2.4L58.1,2.4L58.1,5.6L54.9,5.6L54.9,5.1L53.9,5.1L53.9,4.5L54.1,4.5L54.1,4.9L55.1,4.9L55.1,5.4L57.9,5.4L57.9,2.6L57.4,2.6L57.4,1.6L56.9,1.6L56.9,1.1L13.1,1.1L13.1,1.6L11.6,1.6L11.6,2.1L5.6,2.1L5.6,2.6L5.1,2.6L5.1,3.6L2.6,3.6L2.6,4.1L2.1,4.1L2.1,6.4L2.6,6.4L2.6,6.9L3.4,6.9L3.4,6.4L8.1,6.4L8.1,6.9L9.1,6.9L9.1,7.4L9.6,7.4L9.6,7.9L11.1,7.9L11.1,8.4L11.6,8.4L11.6,8.9L12.6,8.9L12.6,9.4L13.1,9.4L13.1,9.9L14.6,9.9L14.6,10.9L15.1,10.9L15.1,11.4L18.4,11.4L18.4,10.9L19.4,10.9L19.4,10.4L20.9,10.4L20.9,9.9L22.9,9.9L22.9,9.4L23.9,9.4L23.9,8.9L24.4,8.9L24.4,7.4L24.9,7.4L24.9,5.6L24.4,5.6L24.4,5.1L23.6,5.1L23.6,5.6L23.1,5.6L23.1,6.1z" stroke="none"/><path d="M45,11.9L45,12.1L43.9,12.1L43.9,11.6L33.4,11.6L33.4,11.1L31.1,11.1L31.1,11.6L30.6,11.6L30.6,12.1L22.1,12.1L22.1,12.6L21.6,12.6L21.6,13.1L13.9,13.1L13.9,12.6L13.4,12.6L13.4,12.1L12.4,12.1L12.4,11.1L11.4,11.1L11.4,10.1L10.9,10.1L10.9,9.6L10.4,9.6L10.4,9L10.6,9L10.6,9.4L11.1,9.4L11.1,9.9L11.6,9.9L11.6,10.9L12.6,10.9L12.6,11.9L13.6,11.9L13.6,12.4L14.1,12.4L14.1,12.9L21.4,12.9L21.4,12.4L21.9,12.4L21.9,11.9L30.4,11.9L30.4,11.4L30.9,11.4L30.9,10.9L33.6,10.9L33.6,11.4L44.1,11.4L44.1,11.9z" stroke="none"/><path d="M51,12.1L51,11.9L56.4,11.9L56.4,11.4L56.9,11.4L56.9,10.9L60.6,10.9L60.6,11.4L61.1,11.4L61.1,12.9L69.6,12.9L69.6,13.4L73.1,13.4L73.1,13.9L103.9,13.9L103.9,9.1L103.4,9.1L103.4,8.6L87.9,8.6L87.9,8.1L86.9,8.1L86.9,7.5L87.1,7.5L87.1,7.9L88.1,7.9L88.1,8.4L103.6,8.4L103.6,8.9L104.1,8.9L104.1,14.1L72.9,14.1L72.9,13.6L69.4,13.6L69.4,13.1L60.9,13.1L60.9,11.6L60.4,11.6L60.4,11.1L57.1,11.1L57.1,11.6L56.6,11.6L56.6,12.1z" stroke="none"/><path d="M91.5,2.9L91.5,3.1L89.9,3.1L89.9,2.6L89.4,2.6L89.4,2.1L60.6,2.1L60.6,4.1L60.1,4.1L60.1,4.6L59.6,4.6L59.6,5.1L59.1,5.1L59.1,5.6L58.6,5.6L58.6,6.1L51.9,6.1L51.9,5.6L50.4,5.6L50.4,5.1L47.9,5.1L47.9,4.5L48.1,4.5L48.1,4.9L50.6,4.9L50.6,5.4L52.1,5.4L52.1,5.9L58.4,5.9L58.4,5.4L58.9,5.4L58.9,4.9L59.4,4.9L59.4,4.4L59.9,4.4L59.9,3.9L60.4,3.9L60.4,1.9L89.6,1.9L89.6,2.4L90.1,2.4L90.1,2.9z" stroke="none"/></svg>