<svg version="1.1" width="105" height="15" xmlns="http://www.w3.org/2000/svg"><path d="M27.4,10.4L27.4,9.6L26.9,9.6L26.9,9L27.1,9L27.1,9.4L27.6,9.4L27.6,10.4L28.4,10.4L28.4,9.9L28.9,9.9L28.9,9.4L33.1,9.4L33.1,9.9L44.1,9.9L44.1,10.4L46.5,10.4L46.5,10.6L43.9,10.6L43.9,10.1L32.9,10.1L32.9,9.6L29.1,9.6L29.1,10.1L28.6,10.1L28.6,10.6L20.6,10.6L20.6,11.1L18.1,11.1L18.1,11.6L17.6,11.6L17.6,12.1L9,12.1L9,11.9L17.4,11.9L17.4,11.4L17.9,11.4L17.9,10.9L20.4,10.9L20.4,10.4z" stroke="none"/><path d="M25.4,7.9L25.4,7.5L25.6,7.5L25.6,8.1L15.6,8.1L15.6,10.6L15,10.6L15,10.4L15.4,10.4L15.4,8.1L11.9,8.1L11.9,7.6L9.9,7.6L9.9,7.1L8.4,7.1L8.4,6.6L5.9,6.6L5.9,6L6.1,6L6.1,6.4L8.6,6.4L8.6,6.9L10.1,6.9L10.1,7.4L12.1,7.4L12.1,7.9z" stroke="none"/><path d="M64.9,11.4L64.9,10.9L67.9,10.9L67.9,10.4L77.1,10.4L77.1,11.4L83.4,11.4L83.4,10.9L83.9,10.9L83.9,10.5L84.1,10.5L84.1,11.1L83.6,11.1L83.6,11.6L76.9,11.6L76.9,10.6L68.1,10.6L68.1,11.1L65.1,11.1L65.1,11.4L68.4,11.4L68.4,10.9L70.1,10.9L70.1,11.4L71.1,11.4L71.1,11.9L73.5,11.9L73.5,12.1L70.9,12.1L70.9,11.6L69.9,11.6L69.9,11.1L68.6,11.1L68.6,11.6L39.1,11.6L39.1,12.1L37.5,12.1L37.5,11.9L38.9,11.9L38.9,11.4z" stroke="none"/><path d="M74.4,8.4L74.4,7.9L77.9,7.9L77.9,7.4L78.4,7.4L78.4,6.4L80.9,6.4L80.9,6L81.1,6L81.1,6.6L78.6,6.6L78.6,7.6L78.1,7.6L78.1,8.1L74.6,8.1L74.6,8.4L77.1,8.4L77.1,9.4L77.6,9.4L77.6,9.9L78.1,9.9L78.1,10.5L77.9,10.5L77.9,10.1L77.4,10.1L77.4,9.6L76.9,9.6L76.9,8.6L74.6,8.6L74.6,9.1L66.6,9.1L66.6,9.6L63.6,9.6L63.6,10.1L56.6,10.1L56.6,10.6L49.5,10.6L49.5,10.4L56.4,10.4L56.4,9.9L63.4,9.9L63.4,9.4L66.4,9.4L66.4,8.9L74.4,8.9L74.4,8.6L72.9,8.6L72.9,8.1L72.4,8.1L72.4,6.9L72.9,6.9L72.9,6.4L76.4,6.4L76.4,5.9L76.9,5.9L76.9,5.4L77.4,5.4L77.4,4.9L79.1,4.9L79.1,5.4L84.1,5.4L84.1,6.9L88.6,6.9L88.6,7.5L88.4,7.5L88.4,7.1L83.9,7.1L83.9,5.6L78.9,5.6L78.9,5.1L77.6,5.1L77.6,5.6L77.1,5.6L77.1,6.1L76.6,6.1L76.6,6.6L73.1,6.6L73.1,7.1L72.6,7.1L72.6,7.9L73.1,7.9L73.1,8.4z" stroke="none"/><path d="M33.4,7.9L33.4,7.6L26.9,7.6L26.9,7.1L25.9,7.1L25.9,6.6L24.6,6.6L24.6,7.1L12.4,7.1L12.4,6.1L12,6.1L12,5.9L12.6,5.9L12.6,6.9L24.4,6.9L24.4,6.4L26.1,6.4L26.1,6.9L27.1,6.9L27.1,7.4L33.6,7.4L33.6,7.9L36.6,7.9L36.6,8.4L43.9,8.4L43.9,6.4L44.9,6.4L44.9,6L45.1,6L45.1,6.6L44.1,6.6L44.1,8.6L36.4,8.6L36.4,8.1L33.6,8.1L33.6,8.4L35.6,8.4L35.6,8.9L46.1,8.9L46.1,9.4L48.1,9.4L48.1,10.5L47.9,10.5L47.9,9.6L45.9,9.6L45.9,9.1L35.4,9.1L35.4,8.6L33.4,8.6L33.4,8.1L26.1,8.1L26.1,8.6L18.1,8.6L18.1,9.1L16.6,9.1L16.6,10.1L16.1,10.1L16.1,11.1L15.6,11.1L15.6,11.6L9.4,11.6L9.4,11.1L8.1,11.1L8.1,12.9L27.4,12.9L27.4,12.4L28.4,12.4L28.4,11.9L28.9,11.9L28.9,10.4L30,10.4L30,10.6L29.1,10.6L29.1,12.1L28.6,12.1L28.6,12.6L27.6,12.6L27.6,13.1L7.9,13.1L7.9,10.9L9.6,10.9L9.6,11.4L15.4,11.4L15.4,10.9L15.9,10.9L15.9,9.9L16.4,9.9L16.4,8.9L17.9,8.9L17.9,8.4L25.9,8.4L25.9,7.9z" stroke="none"/><path d="M85.4,10.9L85.4,10.4L102,10.4L102,10.6L85.6,10.6L85.6,10.9L89.6,10.9L89.6,11.4L90.6,11.4L90.6,11.9L91.5,11.9L91.5,12.1L90.4,12.1L90.4,11.6L89.4,11.6L89.4,11.1L85.6,11.1L85.6,11.6L84.1,11.6L84.1,12.1L74.6,12.1L74.6,13.1L69.9,13.1L69.9,12.6L69.4,12.6L69.4,12.1L69,12.1L69,11.9L69.6,11.9L69.6,12.4L70.1,12.4L70.1,12.9L74.4,12.9L74.4,11.9L83.9,11.9L83.9,11.4L85.4,11.4L85.4,11.1L84.9,11.1L84.9,9.6L80.6,9.6L80.6,10.6L79.5,10.6L79.5,10.4L80.4,10.4L80.4,9.4L85.1,9.4L85.1,10.9z" stroke="none"/><path d="M18,4.6L18,4.4L18.9,4.4L18.9,3.4L19.4,3.4L19.4,3L19.6,3L19.6,3.6L19.1,3.6L19.1,4.6z" stroke="none"/><path d="M33.1,3L32.9,3L32.9,2.4L33.4,2.4L33.4,1.9L35.1,1.9L35.1,2.4L35.6,2.4L35.6,2.9L36,2.9L36,3.1L35.4,3.1L35.4,2.6L34.9,2.6L34.9,2.1L33.6,2.1L33.6,2.6L33.1,2.6z" stroke="none"/><path d="M39.1,6L38.9,6L38.9,3.4L39.4,3.4L39.4,2.9L40.5,2.9L40.5,3.1L39.6,3.1L39.6,3.6L39.1,3.6z" stroke="none"/><path d="M39.1,7.5L38.9,7.5L38.9,6.9L39.4,6.9L39.4,6.4L39.9,6.4L39.9,5.4L40.4,5.4L40.4,4.4L42,4.4L42,4.6L40.6,4.6L40.6,5.6L40.1,5.6L40.1,6.6L39.6,6.6L39.6,7.1L39.1,7.1z" stroke="none"/><path d="M73.5,7.6L73.5,7.4L76.9,7.4L76.9,6.4L77.9,6.4L77.9,6L78.1,6L78.1,6.6L77.1,6.6L77.1,7.6z" stroke="none"/><path d="M12,8.9L12,9.1L8.9,9.1L8.9,8.6L8.4,8.6L8.4,7.6L7.5,7.6L7.5,7.4L8.6,7.4L8.6,8.4L9.1,8.4L9.1,8.9z" stroke="none"/><path d="M55.5,4.6L55.5,4.4L60.9,4.4L60.9,3.4L61.4,3.4L61.4,3L61.6,3L61.6,3.6L61.1,3.6L61.1,4.6z" stroke="none"/><path d="M66,3.1L66,2.9L67.1,2.9L67.1,3.4L68.6,3.4L68.6,3.9L69.1,3.9L69.1,4.4L72,4.4L72,4.6L68.9,4.6L68.9,4.1L68.4,4.1L68.4,3.6L66.9,3.6L66.9,3.1z" stroke="none"/><path d="M73.5,3.1L73.5,2.9L79.1,2.9L79.1,3.9L79.6,3.9L79.6,4.5L79.4,4.5L79.4,4.1L78.9,4.1L78.9,3.1z" stroke="none"/><path d="M100.5,7.6L100.5,7.4L101.1,7.4L101.1,7.9L102.1,7.9L102.1,9.4L102.6,9.4L102.6,9.9L103.1,9.9L103.1,11.1L102.6,11.1L102.6,11.6L100.9,11.6L100.9,11.1L97.1,11.1L97.1,11.6L94.6,11.6L94.6,12L94.4,12L94.4,11.4L96.9,11.4L96.9,10.9L101.1,10.9L101.1,11.4L102.4,11.4L102.4,10.9L102.9,10.9L102.9,10.1L102.4,10.1L102.4,9.6L101.9,9.6L101.9,8.1L100.9,8.1L100.9,7.6z" stroke="none"/><path d="M22.5,4.4L22.5,4.6L19.6,4.6L19.6,5.1L18.6,5.1L18.6,5.6L15.1,5.6L15.1,6.1L13.5,6.1L13.5,5.9L14.9,5.9L14.9,5.4L18.4,5.4L18.4,4.9L19.4,4.9L19.4,4.4z" stroke="none"/><path d="M85.6,6L85.4,6L85.4,5.6L84.9,5.6L84.9,5.1L83.4,5.1L83.4,4.6L81.4,4.6L81.4,4.1L79.9,4.1L79.9,3.6L79.4,3.6L79.4,2.6L74.4,2.6L74.4,2.1L72.6,2.1L72.6,3.9L74.1,3.9L74.1,4.4L75,4.4L75,4.6L73.9,4.6L73.9,4.1L72.4,4.1L72.4,1.9L74.6,1.9L74.6,2.4L79.6,2.4L79.6,3.4L80.1,3.4L80.1,3.9L81.6,3.9L81.6,4.4L83.6,4.4L83.6,4.9L85.1,4.9L85.1,5.4L85.6,5.4z" stroke="none"/><path d="M100.5,11.9L100.5,12.1L97.6,12.1L97.6,12.6L95.6,12.6L95.6,13.1L90.4,13.1L90.4,12.6L88.4,12.6L88.4,12L88.6,12L88.6,12.4L90.6,12.4L90.6,12.9L95.4,12.9L95.4,12.4L97.4,12.4L97.4,11.9z" stroke="none"/><path d="M48,2.9L48,3.1L43.9,3.1L43.9,2.6L41.4,2.6L41.4,2.1L39.1,2.1L39.1,2.6L38.6,2.6L38.6,3.1L38.1,3.1L38.1,4.1L34.9,4.1L34.9,3.6L34.4,3.6L34.4,3L34.6,3L34.6,3.4L35.1,3.4L35.1,3.9L37.9,3.9L37.9,2.9L38.4,2.9L38.4,2.4L38.9,2.4L38.9,1.9L41.6,1.9L41.6,2.4L44.1,2.4L44.1,2.9z" stroke="none"/><path d="M22.5,2.9L22.5,3.1L20.9,3.1L20.9,2.6L20.4,2.6L20.4,2.1L11.1,2.1L11.1,2.6L10.1,2.6L10.1,4.1L9.1,4.1L9.1,4.5L8.9,4.5L8.9,3.9L9.9,3.9L9.9,2.4L10.9,2.4L10.9,1.9L20.6,1.9L20.6,2.4L21.1,2.4L21.1,2.9z" stroke="none"/><path d="M48,6.1L48,5.9L61.6,5.9L61.6,7.4L62.6,7.4L62.6,8.4L63.1,8.4L63.1,9L62.9,9L62.9,8.6L62.4,8.6L62.4,7.6L61.4,7.6L61.4,6.1z" stroke="none"/><path d="M102,2.9L102,3.1L101.6,3.1L101.6,4.1L96.9,4.1L96.9,3.6L91.4,3.6L91.4,3.1L85.5,3.1L85.5,2.9L91.6,2.9L91.6,3.4L97.1,3.4L97.1,3.9L101.4,3.9L101.4,2.9z" stroke="none"/><path d="M31.5,11.9L31.5,12.1L30.6,12.1L30.6,13.1L29.1,13.1L29.1,13.6L7.4,13.6L7.4,10.4L10.5,10.4L10.5,10.6L7.6,10.6L7.6,13.4L28.9,13.4L28.9,12.9L30.4,12.9L30.4,11.9z" stroke="none"/><path d="M3,3.1L3,2.9L9.4,2.9L9.4,1.9L9.9,1.9L9.9,1.4L22.6,1.4L22.6,1.9L23.1,1.9L23.1,2.4L23.6,2.4L23.6,4.4L24.1,4.4L24.1,6L23.9,6L23.9,4.6L23.4,4.6L23.4,2.6L22.9,2.6L22.9,2.1L22.4,2.1L22.4,1.6L10.1,1.6L10.1,2.1L9.6,2.1L9.6,3.1z" stroke="none"/><path d="M57,2.9L57,3.1L49.9,3.1L49.9,2.6L48.9,2.6L48.9,2.1L41.9,2.1L41.9,1.6L32.6,1.6L32.6,2.1L32.1,2.1L32.1,6.1L31.5,6.1L31.5,5.9L31.9,5.9L31.9,1.9L32.4,1.9L32.4,1.4L42.1,1.4L42.1,1.9L49.1,1.9L49.1,2.4L50.1,2.4L50.1,2.9z" stroke="none"/><path d="M64.6,6L64.4,6L64.4,2.4L64.9,2.4L64.9,1.9L71.9,1.9L71.9,1.4L83.1,1.4L83.1,3.4L85.1,3.4L85.1,3.9L89.1,3.9L89.1,4.4L89.6,4.4L89.6,8.9L90,8.9L90,9.1L89.4,9.1L89.4,4.6L88.9,4.6L88.9,4.1L84.9,4.1L84.9,3.6L82.9,3.6L82.9,1.6L72.1,1.6L72.1,2.1L65.1,2.1L65.1,2.6L64.6,2.6z" stroke="none"/><path d="M100.5,2.9L100.5,3.1L92.4,3.1L92.4,2.6L85.9,2.6L85.9,2.1L84.4,2.1L84.4,1.6L83.9,1.6L83.9,1.1L65.6,1.1L65.6,1.6L64.6,1.6L64.6,2.1L64.1,2.1L64.1,5.6L63.6,5.6L63.6,6.4L64.1,6.4L64.1,6.9L71.9,6.9L71.9,6L72.1,6L72.1,7.1L63.9,7.1L63.9,6.6L63.4,6.6L63.4,5.4L63.9,5.4L63.9,1.9L64.4,1.9L64.4,1.4L65.4,1.4L65.4,0.9L84.1,0.9L84.1,1.4L84.6,1.4L84.6,1.9L86.1,1.9L86.1,2.4L92.6,2.4L92.6,2.9z" stroke="none"/><path d="M91.5,4.6L91.5,4.4L102.9,4.4L102.9,2.6L102.4,2.6L102.4,2.1L86.9,2.1L86.9,1.6L86.4,1.6L86.4,1.1L85.9,1.1L85.9,0.6L64.6,0.6L64.6,1.1L61.1,1.1L61.1,2.6L60.6,2.6L60.6,3.6L59.1,3.6L59.1,4.1L56.4,4.1L56.4,3.6L49.1,3.6L49.1,4.1L47.6,4.1L47.6,4.6L47.1,4.6L47.1,6.4L47.6,6.4L47.6,6.9L49.6,6.9L49.6,7.4L50.1,7.4L50.1,7.9L50.6,7.9L50.6,8.4L51.6,8.4L51.6,8.9L52.5,8.9L52.5,9.1L51.4,9.1L51.4,8.6L50.4,8.6L50.4,8.1L49.9,8.1L49.9,7.6L49.4,7.6L49.4,7.1L47.4,7.1L47.4,6.6L46.9,6.6L46.9,4.4L47.4,4.4L47.4,3.9L48.9,3.9L48.9,3.4L56.6,3.4L56.6,3.9L58.9,3.9L58.9,3.4L60.4,3.4L60.4,2.4L60.9,2.4L60.9,0.9L64.4,0.9L64.4,0.4L86.1,0.4L86.1,0.9L86.6,0.9L86.6,1.4L87.1,1.4L87.1,1.9L102.6,1.9L102.6,2.4L103.1,2.4L103.1,4.6z" stroke="none"/><path d="M37.5,7.4L37.5,7.6L33.9,7.6L33.9,7.1L28.4,7.1L28.4,6.6L26.4,6.6L26.4,5.1L25.9,5.1L25.9,4.6L25.4,4.6L25.4,3.1L23.9,3.1L23.9,1.6L22.9,1.6L22.9,1.1L2.6,1.1L2.6,1.6L2.1,1.6L2.1,4.9L2.6,4.9L2.6,5.4L3.1,5.4L3.1,6.4L3.6,6.4L3.6,6.9L4.1,6.9L4.1,7.4L4.6,7.4L4.6,7.9L5.6,7.9L5.6,8.4L6.1,8.4L6.1,9.9L6.6,9.9L6.6,10.9L7.1,10.9L7.1,13.9L101.4,13.9L101.4,13.4L102.4,13.4L102.4,12.9L102.9,12.9L102.9,11.9L103.4,11.9L103.4,9.6L102.9,9.6L102.9,8.1L102.4,8.1L102.4,7.6L101.4,7.6L101.4,6.6L93.1,6.6L93.1,7.1L92.6,7.1L92.6,8.6L91.6,8.6L91.6,9.1L91.1,9.1L91.1,9.6L90.6,9.6L90.6,10.1L87.9,10.1L87.9,9.6L85.9,9.6L85.9,9.1L85.5,9.1L85.5,8.9L86.1,8.9L86.1,9.4L88.1,9.4L88.1,9.9L90.4,9.9L90.4,9.4L90.9,9.4L90.9,8.9L91.4,8.9L91.4,8.4L92.4,8.4L92.4,6.9L92.9,6.9L92.9,6.4L101.6,6.4L101.6,7.4L102.6,7.4L102.6,7.9L103.1,7.9L103.1,9.4L103.6,9.4L103.6,12.1L103.1,12.1L103.1,13.1L102.6,13.1L102.6,13.6L101.6,13.6L101.6,14.1L6.9,14.1L6.9,11.1L6.4,11.1L6.4,10.1L5.9,10.1L5.9,8.6L5.4,8.6L5.4,8.1L4.4,8.1L4.4,7.6L3.9,7.6L3.9,7.1L3.4,7.1L3.4,6.6L2.9,6.6L2.9,5.6L2.4,5.6L2.4,5.1L1.9,5.1L1.9,1.4L2.4,1.4L2.4,0.9L23.1,0.9L23.1,1.4L24.1,1.4L24.1,2.9L25.6,2.9L25.6,4.4L26.1,4.4L26.1,4.9L26.6,4.9L26.6,6.4L28.6,6.4L28.6,6.9L34.1,6.9L34.1,7.4z" stroke="none"/></svg>