<svg version="1.1" width="105" height="15" xmlns="http://www.w3.org/2000/svg"><path d="M72.1,11.4L72.1,12L71.9,12L71.9,11.6L68.1,11.6L68.1,11.9L71.6,11.9L71.6,12.4L77.6,12.4L77.6,12.9L89.4,12.9L89.4,12.4L89.9,12.4L89.9,12L90.1,12L90.1,12.6L89.6,12.6L89.6,13.1L77.4,13.1L77.4,12.6L71.4,12.6L71.4,12.1L67.9,12.1L67.9,11.6L52.4,11.6L52.4,11.1L48.4,11.1L48.4,10.6L43.5,10.6L43.5,10.4L48.6,10.4L48.6,10.9L52.6,10.9L52.6,11.4z" stroke="none"/><path d="M35.9,9.9L35.9,9.6L31.4,9.6L31.4,8.6L30.4,8.6L30.4,8.1L29.9,8.1L29.9,7.5L30.1,7.5L30.1,7.9L30.6,7.9L30.6,8.4L31.6,8.4L31.6,9.4L36.1,9.4L36.1,9.9L41.6,9.9L41.6,10.9L43.1,10.9L43.1,11.4L45.6,11.4L45.6,11.9L46.5,11.9L46.5,12.1L45.4,12.1L45.4,11.6L42.9,11.6L42.9,11.1L41.4,11.1L41.4,10.1L32.1,10.1L32.1,10.6L31.5,10.6L31.5,10.4L31.9,10.4L31.9,9.9z" stroke="none"/><path d="M62.6,3.4L62.6,3.9L63.9,3.9L63.9,3.4L67.1,3.4L67.1,3.9L80.4,3.9L80.4,3.4L82.1,3.4L82.1,3.9L85.1,3.9L85.1,4.4L87,4.4L87,4.6L84.9,4.6L84.9,4.1L81.9,4.1L81.9,3.6L80.6,3.6L80.6,4.1L66.9,4.1L66.9,3.6L64.1,3.6L64.1,4.1L62.4,4.1L62.4,3.6L59.1,3.6L59.1,4.1L44.9,4.1L44.9,3.6L44.4,3.6L44.4,3.1L42,3.1L42,2.9L44.6,2.9L44.6,3.4L45.1,3.4L45.1,3.9L58.9,3.9L58.9,3.6L48.9,3.6L48.9,3.1L48,3.1L48,2.9L49.1,2.9L49.1,3.4z" stroke="none"/><path d="M83.4,8.9L83.4,8.4L94.1,8.4L94.1,8.9L94.5,8.9L94.5,9.1L93.9,9.1L93.9,8.6L83.6,8.6L83.6,8.9L93,8.9L93,9.1L83.6,9.1L83.6,10.1L83.1,10.1L83.1,10.6L82.5,10.6L82.5,10.4L82.9,10.4L82.9,9.9L83.4,9.9L83.4,9.1L65.4,9.1L65.4,8.1L64.4,8.1L64.4,7.5L64.6,7.5L64.6,7.9L65.6,7.9L65.6,8.9z" stroke="none"/><path d="M35.9,7.4L35.9,4.5L36.1,4.5L36.1,7.4L36.4,7.4L36.4,4.1L35.6,4.1L35.6,5.1L35.1,5.1L35.1,5.6L27.6,5.6L27.6,6.6L27.1,6.6L27.1,7.1L26.6,7.1L26.6,8.6L25.6,8.6L25.6,9L25.4,9L25.4,8.4L26.4,8.4L26.4,6.9L26.9,6.9L26.9,6.4L27.4,6.4L27.4,5.4L34.9,5.4L34.9,4.9L35.4,4.9L35.4,3.9L36.6,3.9L36.6,7.6L36.1,7.6L36.1,7.9L43.6,7.9L43.6,8.4L54.1,8.4L54.1,8.9L55.5,8.9L55.5,9.1L53.9,9.1L53.9,8.6L43.4,8.6L43.4,8.1L35.9,8.1L35.9,7.6L30.9,7.6L30.9,7.1L30.4,7.1L30.4,6.6L28.6,6.6L28.6,7.1L27.6,7.1L27.6,7.6L27,7.6L27,7.4L27.4,7.4L27.4,6.9L28.4,6.9L28.4,6.4L30.6,6.4L30.6,6.9L31.1,6.9L31.1,7.4z" stroke="none"/><path d="M82.9,6.9L82.9,6.4L90.4,6.4L90.4,5.4L90.9,5.4L90.9,4.9L99.9,4.9L99.9,4.4L100.5,4.4L100.5,4.6L100.1,4.6L100.1,5.1L91.1,5.1L91.1,5.6L90.6,5.6L90.6,6.6L83.1,6.6L83.1,6.9L94.6,6.9L94.6,7.4L95.1,7.4L95.1,7.9L96.1,7.9L96.1,9L95.9,9L95.9,8.1L94.9,8.1L94.9,7.6L94.4,7.6L94.4,7.1L83.1,7.1L83.1,7.6L81.1,7.6L81.1,8.1L70.9,8.1L70.9,7.6L65.4,7.6L65.4,7.1L64.9,7.1L64.9,6.6L58.1,6.6L58.1,7.6L57,7.6L57,7.4L57.9,7.4L57.9,6.4L65.1,6.4L65.1,6.9L65.6,6.9L65.6,7.4L71.1,7.4L71.1,7.9L80.9,7.9L80.9,7.4L82.9,7.4L82.9,7.1L80.1,7.1L80.1,7.6L79.5,7.6L79.5,7.4L79.9,7.4L79.9,6.9z" stroke="none"/><path d="M80.9,4.5L81.1,4.5L81.1,6L80.9,6z" stroke="none"/><path d="M7.4,4.5L7.6,4.5L7.6,6L7.4,6z" stroke="none"/><path d="M78,12.1L78,11.9L79.5,11.9L79.5,12.1z" stroke="none"/><path d="M12,5.9L12,6.1L10.5,6.1L10.5,5.9z" stroke="none"/><path d="M64.5,4.4L64.5,4.6L40.9,4.6L40.9,2.4L41.4,2.4L41.4,1.9L59.6,1.9L59.6,2.4L60.1,2.4L60.1,2.9L63,2.9L63,3.1L59.9,3.1L59.9,2.6L59.4,2.6L59.4,2.1L41.6,2.1L41.6,2.6L41.1,2.6L41.1,4.4z" stroke="none"/><path d="M48,7.6L48,7.4L48.9,7.4L48.9,6.4L49.4,6.4L49.4,6L49.6,6L49.6,6.6L49.1,6.6L49.1,7.6z" stroke="none"/><path d="M22.4,7.5L22.6,7.5L22.6,10.5L22.4,10.5z" stroke="none"/><path d="M97.6,12L97.4,12L97.4,11.6L96.9,11.6L96.9,11.1L95.1,11.1L95.1,11.6L94.6,11.6L94.6,12L94.4,12L94.4,11.4L94.9,11.4L94.9,10.9L97.1,10.9L97.1,11.4L97.6,11.4z" stroke="none"/><path d="M12,4.6L12,4.4L12.6,4.4L12.6,5.4L13.1,5.4L13.1,6.6L12.6,6.6L12.6,7.1L10.6,7.1L10.6,7.5L10.4,7.5L10.4,6.9L12.4,6.9L12.4,6.4L12.9,6.4L12.9,5.6L12.4,5.6L12.4,4.6z" stroke="none"/><path d="M13.6,7.5L13.4,7.5L13.4,4.6L12.9,4.6L12.9,4.1L12.4,4.1L12.4,3.6L11.6,3.6L11.6,4.1L11.1,4.1L11.1,4.6L10.5,4.6L10.5,4.4L10.9,4.4L10.9,3.9L11.4,3.9L11.4,3.4L12.6,3.4L12.6,3.9L13.1,3.9L13.1,4.4L13.6,4.4z" stroke="none"/><path d="M4.6,9L4.4,9L4.4,7.4L4.9,7.4L4.9,6.4L5.9,6.4L5.9,4.5L6.1,4.5L6.1,6.6L5.1,6.6L5.1,7.6L4.6,7.6z" stroke="none"/><path d="M16.5,8.9L16.5,9.1L14.1,9.1L14.1,9.6L13.6,9.6L13.6,10.6L12.6,10.6L12.6,12.1L12,12.1L12,11.9L12.4,11.9L12.4,10.4L13.4,10.4L13.4,9.4L13.9,9.4L13.9,8.9z" stroke="none"/><path d="M7.4,7.5L7.6,7.5L7.6,9.4L8.6,9.4L8.6,9.9L9.6,9.9L9.6,10.9L10.1,10.9L10.1,11.4L10.6,11.4L10.6,12L10.4,12L10.4,11.6L9.9,11.6L9.9,11.1L9.4,11.1L9.4,10.1L8.4,10.1L8.4,9.6L7.4,9.6z" stroke="none"/><path d="M95.9,12L96.1,12L96.1,12.4L96.6,12.4L96.6,12.9L100.9,12.9L100.9,12.4L101.4,12.4L101.4,11.4L101.9,11.4L101.9,10.5L102.1,10.5L102.1,11.6L101.6,11.6L101.6,12.6L101.1,12.6L101.1,13.1L96.4,13.1L96.4,12.6L95.9,12.6z" stroke="none"/><path d="M87,10.6L87,10.4L95.4,10.4L95.4,9.9L96.4,9.9L96.4,9.4L96.9,9.4L96.9,7.1L94.9,7.1L94.9,6.6L92.9,6.6L92.9,6.1L91.5,6.1L91.5,5.9L93.1,5.9L93.1,6.4L95.1,6.4L95.1,6.9L97.1,6.9L97.1,9.6L96.6,9.6L96.6,10.1L95.6,10.1L95.6,10.6z" stroke="none"/><path d="M102.1,9L101.9,9L101.9,6.6L97.9,6.6L97.9,6.1L96,6.1L96,5.9L98.1,5.9L98.1,6.4L102.1,6.4z" stroke="none"/><path d="M42,5.9L42,6.1L38.9,6.1L38.9,5.6L36.9,5.6L36.9,3.6L35.1,3.6L35.1,4.1L34.6,4.1L34.6,4.5L34.4,4.5L34.4,3.9L34.9,3.9L34.9,3.4L37.1,3.4L37.1,5.4L39.1,5.4L39.1,5.9z" stroke="none"/><path d="M13.5,3.1L13.5,2.9L22.6,2.9L22.6,3.4L23.6,3.4L23.6,4.9L24.1,4.9L24.1,6L23.9,6L23.9,5.1L23.4,5.1L23.4,3.6L22.4,3.6L22.4,3.1z" stroke="none"/><path d="M3.1,7.5L2.9,7.5L2.9,3.9L3.4,3.9L3.4,3.4L8.1,3.4L8.1,3.9L8.6,3.9L8.6,7.4L9.1,7.4L9.1,7.9L9.6,7.9L9.6,8.4L15.9,8.4L15.9,7.1L15.4,7.1L15.4,6.6L14.9,6.6L14.9,6L15.1,6L15.1,6.4L15.6,6.4L15.6,6.9L16.1,6.9L16.1,8.6L9.4,8.6L9.4,8.1L8.9,8.1L8.9,7.6L8.4,7.6L8.4,4.1L7.9,4.1L7.9,3.6L3.6,3.6L3.6,4.1L3.1,4.1z" stroke="none"/><path d="M49.5,12.1L49.5,11.9L67.6,11.9L67.6,12.4L70.1,12.4L70.1,12.9L76.1,12.9L76.1,13.4L90.4,13.4L90.4,12.4L90.9,12.4L90.9,11.6L90.4,11.6L90.4,11.1L87.6,11.1L87.6,11.6L81.9,11.6L81.9,11.1L71.4,11.1L71.4,10.6L70.9,10.6L70.9,10.1L70.4,10.1L70.4,9.6L64.4,9.6L64.4,9.1L63.9,9.1L63.9,8.6L62.9,8.6L62.9,8.1L61.9,8.1L61.9,7.6L61.5,7.6L61.5,7.4L62.1,7.4L62.1,7.9L63.1,7.9L63.1,8.4L64.1,8.4L64.1,8.9L64.6,8.9L64.6,9.4L70.6,9.4L70.6,9.9L71.1,9.9L71.1,10.4L71.6,10.4L71.6,10.9L82.1,10.9L82.1,11.4L87.4,11.4L87.4,10.9L90.6,10.9L90.6,11.4L91.1,11.4L91.1,12.6L90.6,12.6L90.6,13.6L75.9,13.6L75.9,13.1L69.9,13.1L69.9,12.6L67.4,12.6L67.4,12.1z" stroke="none"/><path d="M28.5,11.9L28.5,12.1L23.4,12.1L23.4,11.6L21.9,11.6L21.9,11.1L21.4,11.1L21.4,9.6L18.9,9.6L18.9,9.1L18.4,9.1L18.4,7.1L16.9,7.1L16.9,5.6L15.4,5.6L15.4,5.1L14.6,5.1L14.6,5.6L14.1,5.6L14.1,6.9L14.6,6.9L14.6,7.4L15,7.4L15,7.6L14.4,7.6L14.4,7.1L13.9,7.1L13.9,5.4L14.4,5.4L14.4,4.9L15.6,4.9L15.6,5.4L17.1,5.4L17.1,6.9L18.6,6.9L18.6,8.9L19.1,8.9L19.1,9.4L21.6,9.4L21.6,10.9L22.1,10.9L22.1,11.4L23.6,11.4L23.6,11.9z" stroke="none"/><path d="M82.5,2.9L82.5,3.1L67.5,3.1L67.5,2.9z" stroke="none"/><path d="M19.5,7.6L19.5,7.4L20.9,7.4L20.9,6.9L21.9,6.9L21.9,6.4L23.6,6.4L23.6,6.9L24.4,6.9L24.4,6.4L24.9,6.4L24.9,5.6L24.4,5.6L24.4,4.6L23.9,4.6L23.9,3.1L23.4,3.1L23.4,2.6L14.4,2.6L14.4,2.1L3.1,2.1L3.1,2.6L2.6,2.6L2.6,7.1L2.1,7.1L2.1,8.4L3.4,8.4L3.4,7.9L3.9,7.9L3.9,6.4L4.4,6.4L4.4,6L4.6,6L4.6,6.6L4.1,6.6L4.1,8.1L3.6,8.1L3.6,8.6L1.9,8.6L1.9,6.9L2.4,6.9L2.4,2.4L2.9,2.4L2.9,1.9L14.6,1.9L14.6,2.4L23.6,2.4L23.6,2.9L24.1,2.9L24.1,4.4L24.6,4.4L24.6,5.4L25.1,5.4L25.1,6.6L24.6,6.6L24.6,7.1L23.4,7.1L23.4,6.6L22.1,6.6L22.1,7.1L21.1,7.1L21.1,7.6z" stroke="none"/><path d="M69,10.4L69,10.6L61.9,10.6L61.9,10.1L58.9,10.1L58.9,9.6L58.4,9.6L58.4,9.1L56.9,9.1L56.9,8.6L56.4,8.6L56.4,8.1L50.9,8.1L50.9,7.1L50.4,7.1L50.4,5.6L49.9,5.6L49.9,5.1L40.4,5.1L40.4,4.1L38.9,4.1L38.9,3.6L38.4,3.6L38.4,3.1L30.6,3.1L30.6,3.6L29.6,3.6L29.6,4.6L28.6,4.6L28.6,5.1L26.6,5.1L26.6,5.6L26.1,5.6L26.1,7.6L25.1,7.6L25.1,8.1L24.6,8.1L24.6,9.4L25.1,9.4L25.1,9.9L28.4,9.9L28.4,8.9L30,8.9L30,9.1L28.6,9.1L28.6,10.1L24.9,10.1L24.9,9.6L24.4,9.6L24.4,7.9L24.9,7.9L24.9,7.4L25.9,7.4L25.9,5.4L26.4,5.4L26.4,4.9L28.4,4.9L28.4,4.4L29.4,4.4L29.4,3.4L30.4,3.4L30.4,2.9L38.6,2.9L38.6,3.4L39.1,3.4L39.1,3.9L40.6,3.9L40.6,4.9L50.1,4.9L50.1,5.4L50.6,5.4L50.6,6.9L51.1,6.9L51.1,7.9L56.6,7.9L56.6,8.4L57.1,8.4L57.1,8.9L58.6,8.9L58.6,9.4L59.1,9.4L59.1,9.9L62.1,9.9L62.1,10.4z" stroke="none"/></svg>