<svg version="1.1" width="105" height="15" xmlns="http://www.w3.org/2000/svg"><path d="M63.9,10.9L63.9,10.4L65.9,10.4L65.9,8.9L67.5,8.9L67.5,9.1L66.1,9.1L66.1,10.6L64.1,10.6L64.1,11.1L50.6,11.1L50.6,11.6L49.6,11.6L49.6,12L49.4,12L49.4,11.4L50.4,11.4L50.4,11.1L45.6,11.1L45.6,11.6L33.6,11.6L33.6,12.1L33,12.1L33,11.9L33.4,11.9L33.4,11.4L45.4,11.4L45.4,10.9z" stroke="none"/><path d="M79.4,3.4L79.4,3L79.6,3L79.6,3.6L77.1,3.6L77.1,3.9L86.4,3.9L86.4,3.4L89.6,3.4L89.6,3.9L90.6,3.9L90.6,4.4L93,4.4L93,4.6L90.4,4.6L90.4,4.1L89.4,4.1L89.4,3.6L86.6,3.6L86.6,4.1L76.9,4.1L76.9,3.6L58.4,3.6L58.4,3L58.6,3L58.6,3.4z" stroke="none"/><path d="M76.4,5.4L76.4,4.9L86.4,4.9L86.4,4.4L87,4.4L87,4.6L86.6,4.6L86.6,5.1L76.6,5.1L76.6,5.4L80.1,5.4L80.1,5.9L81.1,5.9L81.1,6.9L81.6,6.9L81.6,7.4L82.5,7.4L82.5,7.6L81.4,7.6L81.4,7.1L80.9,7.1L80.9,6.1L79.9,6.1L79.9,5.6L61.9,5.6L61.9,5.1L61.4,5.1L61.4,4.6L60,4.6L60,4.4L61.6,4.4L61.6,4.9L62.1,4.9L62.1,5.4z" stroke="none"/><path d="M83.9,8.9L83.9,8.4L94.6,8.4L94.6,9L94.4,9L94.4,8.6L84.1,8.6L84.1,8.9L85.5,8.9L85.5,9.1L84.1,9.1L84.1,10.5L83.9,10.5L83.9,9.1L75.9,9.1L75.9,8.6L75.4,8.6L75.4,8.1L74.9,8.1L74.9,7.6L73.5,7.6L73.5,7.4L75.1,7.4L75.1,7.9L75.6,7.9L75.6,8.4L76.1,8.4L76.1,8.9z" stroke="none"/><path d="M34.4,5.9L34.4,5.4L37.9,5.4L37.9,4.9L38.4,4.9L38.4,4.4L40.5,4.4L40.5,4.6L38.6,4.6L38.6,5.1L38.1,5.1L38.1,5.6L34.6,5.6L34.6,5.9L37.6,5.9L37.6,6.9L38.1,6.9L38.1,7.4L39,7.4L39,7.6L37.9,7.6L37.9,7.1L37.4,7.1L37.4,6.1L34.6,6.1L34.6,6.4L36.1,6.4L36.1,6.9L37.1,6.9L37.1,7.4L37.6,7.4L37.6,7.9L46.6,7.9L46.6,8.4L47.1,8.4L47.1,8.9L48,8.9L48,9.1L46.9,9.1L46.9,8.6L46.4,8.6L46.4,8.1L37.4,8.1L37.4,7.6L36.9,7.6L36.9,7.1L35.9,7.1L35.9,6.6L34.4,6.6L34.4,6.1L33.9,6.1L33.9,5.6L33.4,5.6L33.4,5.1L32.1,5.1L32.1,5.6L15.4,5.6L15.4,5.1L14.4,5.1L14.4,4.6L10.5,4.6L10.5,4.4L14.6,4.4L14.6,4.9L15.6,4.9L15.6,5.4L31.9,5.4L31.9,4.9L33.6,4.9L33.6,5.4L34.1,5.4L34.1,5.9z" stroke="none"/><path d="M89.9,7.4L89.9,6.4L90.4,6.4L90.4,5.9L96.9,5.9L96.9,5.4L99.6,5.4L99.6,5.9L100.1,5.9L100.1,6.4L100.6,6.4L100.6,6.9L101.1,6.9L101.1,7.4L101.6,7.4L101.6,8.9L102,8.9L102,9.1L101.4,9.1L101.4,7.6L100.9,7.6L100.9,7.1L100.4,7.1L100.4,6.6L99.9,6.6L99.9,6.1L99.4,6.1L99.4,5.6L97.1,5.6L97.1,6.1L90.6,6.1L90.6,6.6L90.1,6.6L90.1,7.4L90.4,7.4L90.4,6.9L90.9,6.9L90.9,6.4L97.9,6.4L97.9,5.9L99,5.9L99,6.1L98.1,6.1L98.1,6.6L91.1,6.6L91.1,7.1L90.6,7.1L90.6,7.6L90.1,7.6L90.1,8.1L83.1,8.1L83.1,8.6L78.4,8.6L78.4,8.1L75.9,8.1L75.9,7.6L75.4,7.6L75.4,7.1L74.9,7.1L74.9,6.6L73.1,6.6L73.1,7.1L72.6,7.1L72.6,7.9L73.1,7.9L73.1,8.4L75.1,8.4L75.1,9L74.9,9L74.9,8.6L72.9,8.6L72.9,8.1L72.4,8.1L72.4,6.9L72.9,6.9L72.9,6.4L75.1,6.4L75.1,6.9L75.6,6.9L75.6,7.4L76.1,7.4L76.1,7.9L78.6,7.9L78.6,8.4L82.9,8.4L82.9,7.9L89.9,7.9L89.9,7.6L86.4,7.6L86.4,7.1L85.9,7.1L85.9,6.6L83.9,6.6L83.9,6L84.1,6L84.1,6.4L86.1,6.4L86.1,6.9L86.6,6.9L86.6,7.4z" stroke="none"/><path d="M97.5,12.1L97.5,11.9L98.4,11.9L98.4,10.9L98.9,10.9L98.9,10.5L99.1,10.5L99.1,11.1L98.6,11.1L98.6,12.1z" stroke="none"/><path d="M53.9,3L54.1,3L54.1,5.1L53.6,5.1L53.6,5.6L52.6,5.6L52.6,6L52.4,6L52.4,5.4L53.4,5.4L53.4,4.9L53.9,4.9z" stroke="none"/><path d="M3.1,9L2.9,9L2.9,8.4L4.4,8.4L4.4,6.9L4.9,6.9L4.9,5.9L6,5.9L6,6.1L5.1,6.1L5.1,7.1L4.6,7.1L4.6,8.6L3.1,8.6z" stroke="none"/><path d="M4.5,4.6L4.5,4.4L7.6,4.4L7.6,5.9L9,5.9L9,6.1L7.4,6.1L7.4,4.6z" stroke="none"/><path d="M19.5,7.4L19.5,7.6L19.1,7.6L19.1,8.1L18.1,8.1L18.1,10.1L17.6,10.1L17.6,10.6L17.1,10.6L17.1,11.1L16.6,11.1L16.6,12L16.4,12L16.4,10.9L16.9,10.9L16.9,10.4L17.4,10.4L17.4,9.9L17.9,9.9L17.9,7.9L18.9,7.9L18.9,7.4z" stroke="none"/><path d="M76.5,10.6L76.5,10.4L79.6,10.4L79.6,10.9L81.6,10.9L81.6,11.4L82.6,11.4L82.6,12L82.4,12L82.4,11.6L81.4,11.6L81.4,11.1L79.4,11.1L79.4,10.6z" stroke="none"/><path d="M37.5,10.6L37.5,10.4L45,10.4L45,10.6z" stroke="none"/><path d="M10.5,8.9L10.5,9.1L4.6,9.1L4.6,9.6L3.6,9.6L3.6,10.1L1.9,10.1L1.9,8.4L2.4,8.4L2.4,7.9L2.9,7.9L2.9,7.5L3.1,7.5L3.1,8.1L2.6,8.1L2.6,8.6L2.1,8.6L2.1,9.9L3.4,9.9L3.4,9.4L4.4,9.4L4.4,8.9z" stroke="none"/><path d="M102,11.9L102,12.1L100.1,12.1L100.1,12.6L98.6,12.6L98.6,13.1L93.4,13.1L93.4,12.6L92.9,12.6L92.9,12L93.1,12L93.1,12.4L93.6,12.4L93.6,12.9L98.4,12.9L98.4,12.4L99.9,12.4L99.9,11.9z" stroke="none"/><path d="M82.4,10.5L82.6,10.5L82.6,10.9L83.1,10.9L83.1,11.4L92.4,11.4L92.4,10.9L94.9,10.9L94.9,9.9L95.4,9.9L95.4,8.6L94.9,8.6L94.9,8.1L91.9,8.1L91.9,7.6L91.5,7.6L91.5,7.4L92.1,7.4L92.1,7.9L95.1,7.9L95.1,8.4L95.6,8.4L95.6,10.1L95.1,10.1L95.1,11.1L92.6,11.1L92.6,11.6L82.9,11.6L82.9,11.1L82.4,11.1z" stroke="none"/><path d="M12,10.6L12,10.4L15.9,10.4L15.9,9.9L16.9,9.9L16.9,9.4L17.4,9.4L17.4,6.9L18.9,6.9L18.9,6.4L21.1,6.4L21.1,6.9L21.6,6.9L21.6,7.4L22.1,7.4L22.1,8.4L22.6,8.4L22.6,9L22.4,9L22.4,8.6L21.9,8.6L21.9,7.6L21.4,7.6L21.4,7.1L20.9,7.1L20.9,6.6L19.1,6.6L19.1,7.1L17.6,7.1L17.6,9.6L17.1,9.6L17.1,10.1L16.1,10.1L16.1,10.6z" stroke="none"/><path d="M16.5,4.6L16.5,4.4L23.4,4.4L23.4,3.9L26.4,3.9L26.4,2.9L27,2.9L27,3.1L26.6,3.1L26.6,4.1L23.6,4.1L23.6,4.6z" stroke="none"/><path d="M16.5,8.9L16.5,9.1L13.4,9.1L13.4,8.6L10.9,8.6L10.9,8.1L8.9,8.1L8.9,7.6L6,7.6L6,7.4L9.1,7.4L9.1,7.9L11.1,7.9L11.1,8.4L13.6,8.4L13.6,8.9z" stroke="none"/><path d="M43.5,2.9L43.5,3.1L43.1,3.1L43.1,4.1L40.9,4.1L40.9,3.6L34.1,3.6L34.1,4.1L32.1,4.1L32.1,4.6L31.5,4.6L31.5,4.4L31.9,4.4L31.9,3.9L33.9,3.9L33.9,3.4L41.1,3.4L41.1,3.9L42.9,3.9L42.9,2.9z" stroke="none"/><path d="M70.5,9.1L70.5,8.9L72.6,8.9L72.6,9.4L73.1,9.4L73.1,9.9L73.6,9.9L73.6,10.4L74.1,10.4L74.1,10.9L75.6,10.9L75.6,11.4L81.1,11.4L81.1,11.9L81.6,11.9L81.6,12.9L91.1,12.9L91.1,13.4L102.4,13.4L102.4,12.4L102.9,12.4L102.9,7.6L102.4,7.6L102.4,7.1L101.9,7.1L101.9,6.6L100.9,6.6L100.9,6.1L100.4,6.1L100.4,5.6L99.9,5.6L99.9,5.1L95.1,5.1L95.1,5.6L88.6,5.6L88.6,6L88.4,6L88.4,5.4L94.9,5.4L94.9,4.9L100.1,4.9L100.1,5.4L100.6,5.4L100.6,5.9L101.1,5.9L101.1,6.4L102.1,6.4L102.1,6.9L102.6,6.9L102.6,7.4L103.1,7.4L103.1,12.6L102.6,12.6L102.6,13.6L90.9,13.6L90.9,13.1L81.4,13.1L81.4,12.1L80.9,12.1L80.9,11.6L75.4,11.6L75.4,11.1L73.9,11.1L73.9,10.6L73.4,10.6L73.4,10.1L72.9,10.1L72.9,9.6L72.4,9.6L72.4,9.1z" stroke="none"/><path d="M61.5,11.9L61.5,12.1L52.6,12.1L52.6,13.1L32.4,13.1L32.4,12.6L31.9,12.6L31.9,9.9L32.4,9.9L32.4,8.4L32.9,8.4L32.9,7.5L33.1,7.5L33.1,8.6L32.6,8.6L32.6,10.1L32.1,10.1L32.1,12.4L32.6,12.4L32.6,12.9L52.4,12.9L52.4,11.9z" stroke="none"/><path d="M12,3.1L12,2.9L25.9,2.9L25.9,2.4L26.4,2.4L26.4,1.9L41.6,1.9L41.6,2.9L42,2.9L42,3.1L41.4,3.1L41.4,2.1L26.6,2.1L26.6,2.6L26.1,2.6L26.1,3.1z" stroke="none"/><path d="M28.5,10.6L28.5,10.4L30.6,10.4L30.6,11.4L31.1,11.4L31.1,11.9L31.6,11.9L31.6,13.4L61.9,13.4L61.9,12.9L62.4,12.9L62.4,12.4L62.9,12.4L62.9,11.9L65.9,11.9L65.9,11.4L66.4,11.4L66.4,10.9L67.9,10.9L67.9,10.4L68.4,10.4L68.4,8.1L63.4,8.1L63.4,6.6L62.4,6.6L62.4,6.1L61.5,6.1L61.5,5.9L62.6,5.9L62.6,6.4L63.6,6.4L63.6,7.9L68.6,7.9L68.6,10.6L68.1,10.6L68.1,11.1L66.6,11.1L66.6,11.6L66.1,11.6L66.1,12.1L63.1,12.1L63.1,12.6L62.6,12.6L62.6,13.1L62.1,13.1L62.1,13.6L31.4,13.6L31.4,12.1L30.9,12.1L30.9,11.6L30.4,11.6L30.4,10.6z" stroke="none"/><path d="M3.1,12L2.9,12L2.9,11.6L2.4,11.6L2.4,11.1L1.4,11.1L1.4,5.4L1.9,5.4L1.9,4.4L3.4,4.4L3.4,3.9L3.9,3.9L3.9,3.4L9.9,3.4L9.9,2.9L10.4,2.9L10.4,2.4L11.4,2.4L11.4,1.9L25.4,1.9L25.4,1.4L44.1,1.4L44.1,1.9L44.6,1.9L44.6,6.4L46.6,6.4L46.6,6.9L48.6,6.9L48.6,8.4L49.1,8.4L49.1,10.1L45.4,10.1L45.4,9.6L41.4,9.6L41.4,9.1L40.5,9.1L40.5,8.9L41.6,8.9L41.6,9.4L45.6,9.4L45.6,9.9L48.9,9.9L48.9,8.6L48.4,8.6L48.4,7.1L46.4,7.1L46.4,6.6L44.4,6.6L44.4,2.1L43.9,2.1L43.9,1.6L25.6,1.6L25.6,2.1L11.6,2.1L11.6,2.6L10.6,2.6L10.6,3.1L10.1,3.1L10.1,3.6L4.1,3.6L4.1,4.1L3.6,4.1L3.6,4.6L2.1,4.6L2.1,5.6L1.6,5.6L1.6,10.9L2.6,10.9L2.6,11.4L3.1,11.4z" stroke="none"/><path d="M94.5,4.4L94.5,4.6L93.9,4.6L93.9,4.1L93.4,4.1L93.4,3.6L89.9,3.6L89.9,3.1L82.4,3.1L82.4,2.6L79.9,2.6L79.9,2.1L57.6,2.1L57.6,6.6L56.1,6.6L56.1,7.6L54.1,7.6L54.1,8.1L52.1,8.1L52.1,8.6L51.6,8.6L51.6,9.1L51,9.1L51,8.9L51.4,8.9L51.4,8.4L51.9,8.4L51.9,7.9L53.9,7.9L53.9,7.4L55.9,7.4L55.9,6.4L57.4,6.4L57.4,1.9L80.1,1.9L80.1,2.4L82.6,2.4L82.6,2.9L90.1,2.9L90.1,3.4L93.6,3.4L93.6,3.9L94.1,3.9L94.1,4.4z" stroke="none"/><path d="M16.6,7.5L16.4,7.5L16.4,6.9L16.9,6.9L16.9,6.4L18.4,6.4L18.4,5.9L22.1,5.9L22.1,6.4L22.6,6.4L22.6,7.9L23.1,7.9L23.1,8.4L23.6,8.4L23.6,9.6L23.1,9.6L23.1,10.1L20.6,10.1L20.6,11.6L19.6,11.6L19.6,12.1L17.6,12.1L17.6,13.1L1.4,13.1L1.4,12.1L0.9,12.1L0.9,4.4L1.4,4.4L1.4,3.9L2.9,3.9L2.9,2.9L8.9,2.9L8.9,2.4L9.9,2.4L9.9,1.9L10.9,1.9L10.9,1.4L22.9,1.4L22.9,0.9L45.1,0.9L45.1,2.4L48.6,2.4L48.6,5.4L49.1,5.4L49.1,7.4L49.6,7.4L49.6,7.9L50.1,7.9L50.1,9.4L50.6,9.4L50.6,9.9L60.9,9.9L60.9,7.9L61.4,7.9L61.4,7.5L61.6,7.5L61.6,8.1L61.1,8.1L61.1,10.1L50.4,10.1L50.4,9.6L49.9,9.6L49.9,8.1L49.4,8.1L49.4,7.6L48.9,7.6L48.9,5.6L48.4,5.6L48.4,2.6L44.9,2.6L44.9,1.1L23.1,1.1L23.1,1.6L11.1,1.6L11.1,2.1L10.1,2.1L10.1,2.6L9.1,2.6L9.1,3.1L3.1,3.1L3.1,4.1L1.6,4.1L1.6,4.6L1.1,4.6L1.1,11.9L1.6,11.9L1.6,12.9L17.4,12.9L17.4,11.9L19.4,11.9L19.4,11.4L20.4,11.4L20.4,9.9L22.9,9.9L22.9,9.4L23.4,9.4L23.4,8.6L22.9,8.6L22.9,8.1L22.4,8.1L22.4,6.6L21.9,6.6L21.9,6.1L18.6,6.1L18.6,6.6L17.1,6.6L17.1,7.1L16.6,7.1z" stroke="none"/><path d="M54,6.1L54,5.9L56.4,5.9L56.4,1.4L96.1,1.4L96.1,1.9L97.6,1.9L97.6,2.9L99.1,2.9L99.1,3.4L100.1,3.4L100.1,3.9L100.6,3.9L100.6,4.5L100.4,4.5L100.4,4.1L99.9,4.1L99.9,3.6L98.9,3.6L98.9,3.1L97.4,3.1L97.4,2.1L95.9,2.1L95.9,1.6L56.6,1.6L56.6,6.1z" stroke="none"/><path d="M79.5,7.4L79.5,7.6L76.4,7.6L76.4,6.6L75.4,6.6L75.4,6.1L72.6,6.1L72.6,6.6L72.1,6.6L72.1,7.6L71.6,7.6L71.6,8.1L70.1,8.1L70.1,8.6L69.6,8.6L69.6,11.1L69.1,11.1L69.1,11.6L67.1,11.6L67.1,12.1L66.6,12.1L66.6,12.6L63.6,12.6L63.6,14.1L30.9,14.1L30.9,13.6L30.4,13.6L30.4,13.1L29.4,13.1L29.4,12.6L28.9,12.6L28.9,12.1L28.4,12.1L28.4,11.6L27.4,11.6L27.4,9.4L30.4,9.4L30.4,8.9L31.4,8.9L31.4,8.4L31.9,8.4L31.9,6.9L32.4,6.9L32.4,5.9L33,5.9L33,6.1L32.6,6.1L32.6,7.1L32.1,7.1L32.1,8.6L31.6,8.6L31.6,9.1L30.6,9.1L30.6,9.6L27.6,9.6L27.6,11.4L28.6,11.4L28.6,11.9L29.1,11.9L29.1,12.4L29.6,12.4L29.6,12.9L30.6,12.9L30.6,13.4L31.1,13.4L31.1,13.9L63.4,13.9L63.4,12.4L66.4,12.4L66.4,11.9L66.9,11.9L66.9,11.4L68.9,11.4L68.9,10.9L69.4,10.9L69.4,8.4L69.9,8.4L69.9,7.9L71.4,7.9L71.4,7.4L71.9,7.4L71.9,6.4L72.4,6.4L72.4,5.9L75.6,5.9L75.6,6.4L76.6,6.4L76.6,7.4z" stroke="none"/><path d="M51.1,7.5L50.9,7.5L50.9,3.9L51.4,3.9L51.4,3.4L51.9,3.4L51.9,2.9L52.4,2.9L52.4,1.9L55.9,1.9L55.9,0.9L98.1,0.9L98.1,1.9L100.1,1.9L100.1,2.9L100.5,2.9L100.5,3.1L99.9,3.1L99.9,2.1L97.9,2.1L97.9,1.1L56.1,1.1L56.1,2.1L52.6,2.1L52.6,3.1L52.1,3.1L52.1,3.6L51.6,3.6L51.6,4.1L51.1,4.1z" stroke="none"/></svg>