<svg version="1.1" width="105" height="15" xmlns="http://www.w3.org/2000/svg"><path d="M80.9,10.9L80.9,10.4L86.1,10.4L86.1,11.4L86.6,11.4L86.6,11.9L87,11.9L87,12.1L86.4,12.1L86.4,11.6L85.9,11.6L85.9,10.6L81.1,10.6L81.1,10.9L81.6,10.9L81.6,11.4L82.1,11.4L82.1,11.9L82.5,11.9L82.5,12.1L81.9,12.1L81.9,11.6L81.4,11.6L81.4,11.1L80.4,11.1L80.4,10.1L79.9,10.1L79.9,9.6L74.9,9.6L74.9,9.1L72,9.1L72,8.9L75.1,8.9L75.1,9.4L80.1,9.4L80.1,9.9L80.6,9.9L80.6,10.9z" stroke="none"/><path d="M72.4,4.9L72.4,3.9L72.9,3.9L72.9,3.4L80.4,3.4L80.4,2.9L82.5,2.9L82.5,3.1L80.6,3.1L80.6,3.6L73.1,3.6L73.1,4.1L72.6,4.1L72.6,5.1L72.1,5.1L72.1,5.4L75.1,5.4L75.1,5.9L76.1,5.9L76.1,6.4L77.6,6.4L77.6,6.9L88.6,6.9L88.6,7.4L90,7.4L90,7.6L88.4,7.6L88.4,7.1L77.4,7.1L77.4,6.6L75.9,6.6L75.9,6.1L74.9,6.1L74.9,5.6L71.9,5.6L71.9,5.1L71.1,5.1L71.1,5.6L67.9,5.6L67.9,5.1L49.1,5.1L49.1,5.6L45.9,5.6L45.9,5.1L45.4,5.1L45.4,4.6L45,4.6L45,4.4L45.6,4.4L45.6,4.9L46.1,4.9L46.1,5.4L48.9,5.4L48.9,4.9L68.1,4.9L68.1,5.4L70.9,5.4L70.9,4.9z" stroke="none"/><path d="M34.9,4.4L34.9,3.4L53.9,3.4L53.9,3L54.1,3L54.1,3.6L35.1,3.6L35.1,4.6L30.6,4.6L30.6,5.1L23.1,5.1L23.1,5.6L21.1,5.6L21.1,6.1L18,6.1L18,5.9L20.9,5.9L20.9,5.4L22.9,5.4L22.9,4.9L30.4,4.9L30.4,4.6L26.4,4.6L26.4,4.1L23.4,4.1L23.4,3.6L20.1,3.6L20.1,4.1L19.6,4.1L19.6,4.5L19.4,4.5L19.4,3.9L19.9,3.9L19.9,3.4L23.6,3.4L23.6,3.9L26.6,3.9L26.6,4.4z" stroke="none"/><path d="M39.9,5.9L39.9,5.6L38.4,5.6L38.4,5.1L37.4,5.1L37.4,4.6L36,4.6L36,4.4L37.6,4.4L37.6,4.9L38.6,4.9L38.6,5.4L40.1,5.4L40.1,5.9L67.5,5.9L67.5,6.1L40.1,6.1L40.1,6.6L35.1,6.6L35.1,7.1L31.6,7.1L31.6,8.1L29.6,8.1L29.6,8.6L25.1,8.6L25.1,9.1L21,9.1L21,8.9L24.9,8.9L24.9,8.4L29.4,8.4L29.4,7.9L31.4,7.9L31.4,6.9L34.9,6.9L34.9,6.4L39.9,6.4L39.9,6.1L36,6.1L36,5.9z" stroke="none"/><path d="M37.4,10.4L37.4,9.9L42.9,9.9L42.9,8.4L43.9,8.4L43.9,7.9L44.4,7.9L44.4,7.4L45,7.4L45,7.6L44.6,7.6L44.6,8.1L44.1,8.1L44.1,8.6L43.1,8.6L43.1,10.1L37.6,10.1L37.6,10.4L43.5,10.4L43.5,10.6L37.6,10.6L37.6,10.9L43.6,10.9L43.6,11.4L45.6,11.4L45.6,11.9L46.5,11.9L46.5,12.1L45.4,12.1L45.4,11.6L43.4,11.6L43.4,11.1L37.4,11.1L37.4,10.6L25.6,10.6L25.6,11.1L23.6,11.1L23.6,12.6L23.1,12.6L23.1,13.1L16.9,13.1L16.9,12.6L16.4,12.6L16.4,12L16.6,12L16.6,12.4L17.1,12.4L17.1,12.9L22.9,12.9L22.9,12.4L23.4,12.4L23.4,10.9L25.4,10.9L25.4,10.4z" stroke="none"/><path d="M85.4,4.4L85.4,4.1L83.9,4.1L83.9,2.6L82.9,2.6L82.9,2.1L71.6,2.1L71.6,3.6L71.1,3.6L71.1,4.6L70.5,4.6L70.5,4.4L70.9,4.4L70.9,3.4L71.4,3.4L71.4,1.9L83.1,1.9L83.1,2.4L84.1,2.4L84.1,3.9L85.6,3.9L85.6,4.4L91.9,4.4L91.9,3.9L92.4,3.9L92.4,3.4L92.9,3.4L92.9,2.9L96,2.9L96,3.1L93.1,3.1L93.1,3.6L92.6,3.6L92.6,4.1L92.1,4.1L92.1,4.6L85.6,4.6L85.6,4.9L92.1,4.9L92.1,5.4L100.6,5.4L100.6,6.4L101.6,6.4L101.6,7.4L102,7.4L102,7.6L101.4,7.6L101.4,6.6L100.4,6.6L100.4,5.6L91.9,5.6L91.9,5.1L85.4,5.1L85.4,4.6L73.5,4.6L73.5,4.4z" stroke="none"/><path d="M100.5,11.9L100.5,12.1L99.9,12.1L99.9,11.1L98.9,11.1L98.9,10.5L99.1,10.5L99.1,10.9L100.1,10.9L100.1,11.9z" stroke="none"/><path d="M94.6,12L94.4,12L94.4,9L94.6,9z" stroke="none"/><path d="M9,7.4L9,7.6L8.6,7.6L8.6,8.1L7.6,8.1L7.6,8.6L7.1,8.6L7.1,9.1L6,9.1L6,8.9L6.9,8.9L6.9,8.4L7.4,8.4L7.4,7.9L8.4,7.9L8.4,7.4z" stroke="none"/><path d="M15,2.9L15,3.1L14.6,3.1L14.6,3.6L12.1,3.6L12.1,4.5L11.9,4.5L11.9,3.4L14.4,3.4L14.4,2.9z" stroke="none"/><path d="M15,4.6L15,4.4L15.4,4.4L15.4,3.9L16.4,3.9L16.4,2.9L18,2.9L18,3.1L16.6,3.1L16.6,4.1L15.6,4.1L15.6,4.6z" stroke="none"/><path d="M54,12.1L54,11.9L55.4,11.9L55.4,10.9L56.4,10.9L56.4,9.9L56.9,9.9L56.9,9L57.1,9L57.1,10.1L56.6,10.1L56.6,11.1L55.6,11.1L55.6,12.1z" stroke="none"/><path d="M33,5.9L33,6.1L30.6,6.1L30.6,6.6L29.1,6.6L29.1,7.1L28.6,7.1L28.6,7.5L28.4,7.5L28.4,6.9L28.9,6.9L28.9,6.4L30.4,6.4L30.4,5.9z" stroke="none"/><path d="M10.5,4.4L10.5,4.6L8.1,4.6L8.1,5.1L7.1,5.1L7.1,5.6L6.1,5.6L6.1,6.6L5.6,6.6L5.6,7.6L5.1,7.6L5.1,9.1L4.5,9.1L4.5,8.9L4.9,8.9L4.9,7.4L5.4,7.4L5.4,6.4L5.9,6.4L5.9,5.4L6.9,5.4L6.9,4.9L7.9,4.9L7.9,4.4z" stroke="none"/><path d="M22.5,10.4L22.5,10.6L19.9,10.6L19.9,10.1L18.4,10.1L18.4,9.6L17.9,9.6L17.9,9.1L16.9,9.1L16.9,8.6L15.9,8.6L15.9,7.1L14.9,7.1L14.9,6L15.1,6L15.1,6.9L16.1,6.9L16.1,8.4L17.1,8.4L17.1,8.9L18.1,8.9L18.1,9.4L18.6,9.4L18.6,9.9L20.1,9.9L20.1,10.4z" stroke="none"/><path d="M60,11.9L60,12.1L56.6,12.1L56.6,12.6L54.6,12.6L54.6,13.1L53.4,13.1L53.4,12.6L52.9,12.6L52.9,9.1L51,9.1L51,8.9L53.1,8.9L53.1,12.4L53.6,12.4L53.6,12.9L54.4,12.9L54.4,12.4L56.4,12.4L56.4,11.9z" stroke="none"/><path d="M63,10.6L63,10.4L63.6,10.4L63.6,11.4L73.9,11.4L73.9,10.4L75,10.4L75,10.6L74.1,10.6L74.1,11.6L63.4,11.6L63.4,10.6z" stroke="none"/><path d="M25.5,11.9L25.5,12.1L25.1,12.1L25.1,12.6L24.1,12.6L24.1,13.1L23.6,13.1L23.6,13.6L13.9,13.6L13.9,11.1L13.4,11.1L13.4,10.5L13.6,10.5L13.6,10.9L14.1,10.9L14.1,13.4L23.4,13.4L23.4,12.9L23.9,12.9L23.9,12.4L24.9,12.4L24.9,11.9z" stroke="none"/><path d="M22.5,11.9L22.5,12.1L19.4,12.1L19.4,11.1L15.9,11.1L15.9,10.1L15.4,10.1L15.4,9.6L13.1,9.6L13.1,10.1L12.6,10.1L12.6,11.9L13.1,11.9L13.1,12.9L13.6,12.9L13.6,13.9L34.9,13.9L34.9,13.4L35.4,13.4L35.4,11.9L36,11.9L36,12.1L35.6,12.1L35.6,13.6L35.1,13.6L35.1,14.1L13.4,14.1L13.4,13.1L12.9,13.1L12.9,12.1L12.4,12.1L12.4,9.9L12.9,9.9L12.9,9.4L15.6,9.4L15.6,9.9L16.1,9.9L16.1,10.9L19.6,10.9L19.6,11.9z" stroke="none"/><path d="M93,4.6L93,4.4L101.6,4.4L101.6,4.9L102.1,4.9L102.1,6.4L103.1,6.4L103.1,9.6L102.6,9.6L102.6,10.1L101.4,10.1L101.4,9.6L100.9,9.6L100.9,8.6L100.4,8.6L100.4,8.1L97.9,8.1L97.9,7.6L95.4,7.6L95.4,7.1L94.9,7.1L94.9,6.6L83.9,6.6L83.9,6.1L79.5,6.1L79.5,5.9L84.1,5.9L84.1,6.4L95.1,6.4L95.1,6.9L95.6,6.9L95.6,7.4L98.1,7.4L98.1,7.9L100.6,7.9L100.6,8.4L101.1,8.4L101.1,9.4L101.6,9.4L101.6,9.9L102.4,9.9L102.4,9.4L102.9,9.4L102.9,6.6L101.9,6.6L101.9,5.1L101.4,5.1L101.4,4.6z" stroke="none"/><path d="M64.6,10.5L64.4,10.5L64.4,10.1L63.9,10.1L63.9,9.6L62.6,9.6L62.6,10.1L62.1,10.1L62.1,10.9L62.6,10.9L62.6,11.4L63.1,11.4L63.1,11.9L76.9,11.9L76.9,11.4L77.4,11.4L77.4,10.9L77.9,10.9L77.9,10.4L79.5,10.4L79.5,10.6L78.1,10.6L78.1,11.1L77.6,11.1L77.6,11.6L77.1,11.6L77.1,12.1L62.9,12.1L62.9,11.6L62.4,11.6L62.4,11.1L61.9,11.1L61.9,9.9L62.4,9.9L62.4,9.4L64.1,9.4L64.1,9.9L64.6,9.9z" stroke="none"/><path d="M88.5,8.9L88.5,9.1L78.4,9.1L78.4,8.6L72.9,8.6L72.9,8.1L72.4,8.1L72.4,7.6L72,7.6L72,7.4L72.6,7.4L72.6,7.9L73.1,7.9L73.1,8.4L78.6,8.4L78.6,8.9z" stroke="none"/><path d="M19.5,2.9L19.5,3.1L18.9,3.1L18.9,2.1L6.1,2.1L6.1,4.6L4.1,4.6L4.1,5.1L3.6,5.1L3.6,6.1L3,6.1L3,5.9L3.4,5.9L3.4,4.9L3.9,4.9L3.9,4.4L5.9,4.4L5.9,1.9L19.1,1.9L19.1,2.9z" stroke="none"/><path d="M45,10.6L45,10.4L48.9,10.4L48.9,9.4L49.4,9.4L49.4,8.9L49.9,8.9L49.9,7.9L65.6,7.9L65.6,8.9L69,8.9L69,9.1L65.4,9.1L65.4,8.1L50.1,8.1L50.1,9.1L49.6,9.1L49.6,9.6L49.1,9.6L49.1,10.6z" stroke="none"/><path d="M102.1,9L101.9,9L101.9,8.6L101.4,8.6L101.4,8.1L100.9,8.1L100.9,7.6L99.9,7.6L99.9,7.1L96.4,7.1L96.4,6.6L95.9,6.6L95.9,6.1L86.9,6.1L86.9,5.6L79.9,5.6L79.9,5.1L79.1,5.1L79.1,5.6L78.1,5.6L78.1,6L77.9,6L77.9,5.4L78.9,5.4L78.9,4.9L80.1,4.9L80.1,5.4L87.1,5.4L87.1,5.9L96.1,5.9L96.1,6.4L96.6,6.4L96.6,6.9L100.1,6.9L100.1,7.4L101.1,7.4L101.1,7.9L101.6,7.9L101.6,8.4L102.1,8.4z" stroke="none"/><path d="M22.5,4.4L22.5,4.6L21.1,4.6L21.1,5.1L20.6,5.1L20.6,5.6L18.9,5.6L18.9,5.1L17.1,5.1L17.1,6.4L17.6,6.4L17.6,6.9L18.6,6.9L18.6,7.4L19.6,7.4L19.6,8.4L20.1,8.4L20.1,9.4L20.6,9.4L20.6,9.9L21.9,9.9L21.9,9.4L40.9,9.4L40.9,8.4L42.4,8.4L42.4,7.9L43.4,7.9L43.4,7.4L43.9,7.4L43.9,6.4L48.6,6.4L48.6,6.9L49.6,6.9L49.6,7.5L49.4,7.5L49.4,7.1L48.4,7.1L48.4,6.6L44.1,6.6L44.1,7.6L43.6,7.6L43.6,8.1L42.6,8.1L42.6,8.6L41.1,8.6L41.1,9.6L22.1,9.6L22.1,10.1L20.4,10.1L20.4,9.6L19.9,9.6L19.9,8.6L19.4,8.6L19.4,7.6L18.4,7.6L18.4,7.1L17.4,7.1L17.4,6.6L16.9,6.6L16.9,4.9L19.1,4.9L19.1,5.4L20.4,5.4L20.4,4.9L20.9,4.9L20.9,4.4z" stroke="none"/><path d="M66,10.6L66,10.4L68.9,10.4L68.9,9.9L69.4,9.9L69.4,9.4L69.9,9.4L69.9,7.4L70.4,7.4L70.4,6.4L75.6,6.4L75.6,6.9L76.1,6.9L76.1,7.4L88.1,7.4L88.1,7.9L89.6,7.9L89.6,8.4L93.9,8.4L93.9,7.9L94.4,7.9L94.4,7.5L94.6,7.5L94.6,8.1L94.1,8.1L94.1,8.6L89.4,8.6L89.4,8.1L87.9,8.1L87.9,7.6L75.9,7.6L75.9,7.1L75.4,7.1L75.4,6.6L70.6,6.6L70.6,7.6L70.1,7.6L70.1,9.6L69.6,9.6L69.6,10.1L69.1,10.1L69.1,10.6z" stroke="none"/><path d="M28.5,12.1L28.5,11.9L34.9,11.9L34.9,11.4L35.4,11.4L35.4,10.9L37.1,10.9L37.1,11.4L42.6,11.4L42.6,11.9L44.6,11.9L44.6,12.4L45.1,12.4L45.1,12.9L52.6,12.9L52.6,13.4L76.9,13.4L76.9,12.9L77.4,12.9L77.4,12.4L77.9,12.4L77.9,12L78.1,12L78.1,12.6L77.6,12.6L77.6,13.1L77.1,13.1L77.1,13.6L52.4,13.6L52.4,13.1L44.9,13.1L44.9,12.6L44.4,12.6L44.4,12.1L42.4,12.1L42.4,11.6L36.9,11.6L36.9,11.1L35.6,11.1L35.6,11.6L35.1,11.6L35.1,12.1z" stroke="none"/><path d="M10.5,2.9L10.5,3.1L7.6,3.1L7.6,4.1L7.1,4.1L7.1,4.6L6.6,4.6L6.6,5.1L5.6,5.1L5.6,5.6L5.1,5.6L5.1,6.6L4.6,6.6L4.6,7.1L1.9,7.1L1.9,4.4L2.4,4.4L2.4,3.9L3.4,3.9L3.4,3.4L3.9,3.4L3.9,2.9L4.4,2.9L4.4,2.4L5.4,2.4L5.4,1.4L56.1,1.4L56.1,1.9L57.6,1.9L57.6,2.4L59.6,2.4L59.6,2.9L60,2.9L60,3.1L59.4,3.1L59.4,2.6L57.4,2.6L57.4,2.1L55.9,2.1L55.9,1.6L5.6,1.6L5.6,2.6L4.6,2.6L4.6,3.1L4.1,3.1L4.1,3.6L3.6,3.6L3.6,4.1L2.6,4.1L2.6,4.6L2.1,4.6L2.1,6.9L4.4,6.9L4.4,6.4L4.9,6.4L4.9,5.4L5.4,5.4L5.4,4.9L6.4,4.9L6.4,4.4L6.9,4.4L6.9,3.9L7.4,3.9L7.4,2.9z" stroke="none"/><path d="M97.6,3L97.4,3L97.4,2.6L96.9,2.6L96.9,2.1L83.4,2.1L83.4,1.6L66.1,1.6L66.1,2.6L65.6,2.6L65.6,3.1L61.6,3.1L61.6,4.1L48.1,4.1L48.1,4.5L47.9,4.5L47.9,3.9L61.4,3.9L61.4,2.9L65.4,2.9L65.4,2.4L65.9,2.4L65.9,1.4L83.6,1.4L83.6,1.9L97.1,1.9L97.1,2.4L97.6,2.4z" stroke="none"/></svg>