<svg version="1.1" width="105" height="15" xmlns="http://www.w3.org/2000/svg"><path d="M90.4,5.4L90.4,3.9L90.9,3.9L90.9,3.4L92.4,3.4L92.4,2.9L94.5,2.9L94.5,3.1L92.6,3.1L92.6,3.6L91.1,3.6L91.1,4.1L90.6,4.1L90.6,7.4L91.5,7.4L91.5,7.6L90.4,7.6L90.4,5.6L86.1,5.6L86.1,6.1L85.5,6.1L85.5,5.9L85.9,5.9L85.9,5.4z" stroke="none"/><path d="M69.4,9.4L69.4,8.9L69.9,8.9L69.9,7.9L70.4,7.9L70.4,7.5L70.6,7.5L70.6,8.1L70.1,8.1L70.1,9.1L69.6,9.1L69.6,9.6L67.1,9.6L67.1,9.9L69.9,9.9L69.9,9.4L70.9,9.4L70.9,8.9L72,8.9L72,9.1L71.1,9.1L71.1,9.6L70.1,9.6L70.1,10.1L66.9,10.1L66.9,9.6L65.6,9.6L65.6,10.6L63.6,10.6L63.6,11.1L63.1,11.1L63.1,11.6L60.1,11.6L60.1,12.1L58.5,12.1L58.5,11.9L59.9,11.9L59.9,11.4L62.9,11.4L62.9,10.9L63.4,10.9L63.4,10.4L65.4,10.4L65.4,9.4z" stroke="none"/><path d="M60.6,8.9L60.6,9.4L61.6,9.4L61.6,10.5L61.4,10.5L61.4,9.6L60.4,9.6L60.4,9.1L37.1,9.1L37.1,9.6L36.1,9.6L36.1,10.1L22.6,10.1L22.6,10.5L22.4,10.5L22.4,9.9L35.9,9.9L35.9,9.4L36.9,9.4L36.9,9.1L35.4,9.1L35.4,8.6L34.9,8.6L34.9,8.1L28.9,8.1L28.9,7.6L27.9,7.6L27.9,7.1L27.4,7.1L27.4,6.6L26.9,6.6L26.9,6L27.1,6L27.1,6.4L27.6,6.4L27.6,6.9L28.1,6.9L28.1,7.4L29.1,7.4L29.1,7.9L35.1,7.9L35.1,8.4L35.6,8.4L35.6,8.9z" stroke="none"/><path d="M77.4,7.4L77.4,6.9L83.6,6.9L83.6,7.4L84,7.4L84,7.6L83.4,7.6L83.4,7.1L77.6,7.1L77.6,7.4L79.5,7.4L79.5,7.6L77.6,7.6L77.6,7.9L80.9,7.9L80.9,7.4L82.5,7.4L82.5,7.6L81.1,7.6L81.1,8.1L77.4,8.1L77.4,7.6L76.4,7.6L76.4,7.1L75.4,7.1L75.4,6.6L69.6,6.6L69.6,7.6L68.1,7.6L68.1,8.1L67.6,8.1L67.6,8.6L64.6,8.6L64.6,9L64.4,9L64.4,8.4L67.4,8.4L67.4,7.9L67.9,7.9L67.9,7.4L69.4,7.4L69.4,6.4L75.6,6.4L75.6,6.9L76.6,6.9L76.6,7.4z" stroke="none"/><path d="M52.9,3.4L52.9,3.1L51.9,3.1L51.9,2.1L41.1,2.1L41.1,2.6L31.6,2.6L31.6,3.1L30,3.1L30,2.9L31.4,2.9L31.4,2.4L40.9,2.4L40.9,1.9L52.1,1.9L52.1,2.9L53.1,2.9L53.1,3.4L54.1,3.4L54.1,3.9L62.9,3.9L62.9,3.4L63.4,3.4L63.4,2.9L66,2.9L66,3.1L63.6,3.1L63.6,3.6L63.1,3.6L63.1,4.1L53.9,4.1L53.9,3.6L53.1,3.6L53.1,3.9L53.6,3.9L53.6,4.4L72,4.4L72,4.6L53.4,4.6L53.4,4.1L52.9,4.1L52.9,3.6L52.1,3.6L52.1,4.1L47.9,4.1L47.9,3.6L45.1,3.6L45.1,4.5L44.9,4.5L44.9,3.4L48.1,3.4L48.1,3.9L51.9,3.9L51.9,3.4z" stroke="none"/><path d="M43.4,5.4L43.4,5.1L29.4,5.1L29.4,4.6L26.4,4.6L26.4,4.1L25.9,4.1L25.9,3.6L25.1,3.6L25.1,4.1L24.6,4.1L24.6,5.6L23.6,5.6L23.6,6.1L22.5,6.1L22.5,5.9L23.4,5.9L23.4,5.4L24.4,5.4L24.4,3.9L24.9,3.9L24.9,3.4L26.1,3.4L26.1,3.9L26.6,3.9L26.6,4.4L29.6,4.4L29.6,4.9L43.6,4.9L43.6,5.4L45.1,5.4L45.1,6.4L45.6,6.4L45.6,6.9L55.4,6.9L55.4,6.4L55.9,6.4L55.9,5.9L57,5.9L57,6.1L56.1,6.1L56.1,6.6L55.6,6.6L55.6,7.1L45.4,7.1L45.4,6.6L44.9,6.6L44.9,5.6L43.6,5.6L43.6,5.9L44.1,5.9L44.1,6.4L44.6,6.4L44.6,6.9L45.1,6.9L45.1,7.4L67.4,7.4L67.4,6.9L68.9,6.9L68.9,5.9L72.4,5.9L72.4,4.9L72.9,4.9L72.9,4.1L72.4,4.1L72.4,3.6L67.9,3.6L67.9,3.1L67.5,3.1L67.5,2.9L68.1,2.9L68.1,3.4L72.6,3.4L72.6,3.9L73.1,3.9L73.1,5.1L72.6,5.1L72.6,6.1L69.1,6.1L69.1,7.1L67.6,7.1L67.6,7.6L44.9,7.6L44.9,7.1L44.4,7.1L44.4,6.6L43.9,6.6L43.9,6.1L43.4,6.1L43.4,5.6L27.4,5.6L27.4,5.1L26.6,5.1L26.6,5.6L26.1,5.6L26.1,6.9L27.1,6.9L27.1,7.5L26.9,7.5L26.9,7.1L25.9,7.1L25.9,5.4L26.4,5.4L26.4,4.9L27.6,4.9L27.6,5.4z" stroke="none"/><path d="M46.6,6L46.4,6L46.4,4.5L46.6,4.5z" stroke="none"/><path d="M100.4,6L100.6,6L100.6,9L100.4,9z" stroke="none"/><path d="M82.5,9.1L82.5,8.9L83.9,8.9L83.9,8.4L84.4,8.4L84.4,7.9L85.4,7.9L85.4,7.5L85.6,7.5L85.6,8.1L84.6,8.1L84.6,8.6L84.1,8.6L84.1,9.1z" stroke="none"/><path d="M101.9,6L102.1,6L102.1,10.5L101.9,10.5z" stroke="none"/><path d="M19.5,10.6L19.5,10.4L21.6,10.4L21.6,11.4L23.6,11.4L23.6,11.9L24,11.9L24,12.1L23.4,12.1L23.4,11.6L21.4,11.6L21.4,10.6z" stroke="none"/><path d="M4.6,12L4.4,12L4.4,10.4L4.9,10.4L4.9,9.9L5.4,9.9L5.4,8.4L5.9,8.4L5.9,7.5L6.1,7.5L6.1,8.6L5.6,8.6L5.6,10.1L5.1,10.1L5.1,10.6L4.6,10.6z" stroke="none"/><path d="M93,4.6L93,4.4L94.4,4.4L94.4,3.9L94.9,3.9L94.9,3.4L95.4,3.4L95.4,2.1L87.1,2.1L87.1,3L86.9,3L86.9,1.9L95.6,1.9L95.6,3.6L95.1,3.6L95.1,4.1L94.6,4.1L94.6,4.6z" stroke="none"/><path d="M85.5,9.1L85.5,8.9L85.9,8.9L85.9,8.4L86.4,8.4L86.4,7.9L90.1,7.9L90.1,8.4L91.9,8.4L91.9,7.9L92.4,7.9L92.4,6.6L91.9,6.6L91.9,5.1L91.4,5.1L91.4,4.5L91.6,4.5L91.6,4.9L92.1,4.9L92.1,6.4L92.6,6.4L92.6,8.1L92.1,8.1L92.1,8.6L89.9,8.6L89.9,8.1L86.6,8.1L86.6,8.6L86.1,8.6L86.1,9.1z" stroke="none"/><path d="M4.5,8.9L4.5,9.1L4.1,9.1L4.1,11.1L3.6,11.1L3.6,12.4L4.1,12.4L4.1,12.9L9.9,12.9L9.9,12.4L10.4,12.4L10.4,11.9L12,11.9L12,12.1L10.6,12.1L10.6,12.6L10.1,12.6L10.1,13.1L3.9,13.1L3.9,12.6L3.4,12.6L3.4,10.9L3.9,10.9L3.9,8.9z" stroke="none"/><path d="M8.9,4.5L9.1,4.5L9.1,4.9L9.6,4.9L9.6,5.9L10.1,5.9L10.1,6.4L11.6,6.4L11.6,7.4L12.1,7.4L12.1,7.9L16.6,7.9L16.6,9L16.4,9L16.4,8.1L11.9,8.1L11.9,7.6L11.4,7.6L11.4,6.6L9.9,6.6L9.9,6.1L9.4,6.1L9.4,5.1L8.9,5.1z" stroke="none"/><path d="M76.5,9.1L76.5,8.9L79.1,8.9L79.1,9.4L80.6,9.4L80.6,9.9L86.4,9.9L86.4,9.4L86.9,9.4L86.9,9L87.1,9L87.1,9.6L86.6,9.6L86.6,10.1L80.4,10.1L80.4,9.6L78.9,9.6L78.9,9.1z" stroke="none"/><path d="M64.5,12.1L64.5,11.9L64.9,11.9L64.9,10.9L72.9,10.9L72.9,9.9L73.4,9.9L73.4,9.4L73.9,9.4L73.9,8.9L74.4,8.9L74.4,7.9L74.9,7.9L74.9,7.5L75.1,7.5L75.1,8.1L74.6,8.1L74.6,9.1L74.1,9.1L74.1,9.6L73.6,9.6L73.6,10.1L73.1,10.1L73.1,11.1L65.1,11.1L65.1,12.1z" stroke="none"/><path d="M96,7.4L96,7.6L95.6,7.6L95.6,8.1L94.6,8.1L94.6,8.6L94.1,8.6L94.1,9.1L93.6,9.1L93.6,9.6L93.1,9.6L93.1,10.1L88.1,10.1L88.1,10.6L87.6,10.6L87.6,11.1L86.6,11.1L86.6,12.1L84,12.1L84,11.9L86.4,11.9L86.4,10.9L87.4,10.9L87.4,10.4L87.9,10.4L87.9,9.9L92.9,9.9L92.9,9.4L93.4,9.4L93.4,8.9L93.9,8.9L93.9,8.4L94.4,8.4L94.4,7.9L95.4,7.9L95.4,7.4z" stroke="none"/><path d="M18,7.6L18,7.4L25.6,7.4L25.6,7.9L26.6,7.9L26.6,8.4L34.1,8.4L34.1,8.9L34.5,8.9L34.5,9.1L33.9,9.1L33.9,8.6L26.4,8.6L26.4,8.1L25.4,8.1L25.4,7.6z" stroke="none"/><path d="M7.5,9.1L7.5,8.9L14.1,8.9L14.1,9.9L17.4,9.9L17.4,8.1L16.9,8.1L16.9,6.4L20.6,6.4L20.6,6.9L23.9,6.9L23.9,6.4L24.9,6.4L24.9,4.9L25.4,4.9L25.4,4.5L25.6,4.5L25.6,5.1L25.1,5.1L25.1,6.6L24.1,6.6L24.1,7.1L20.4,7.1L20.4,6.6L17.1,6.6L17.1,7.9L17.6,7.9L17.6,10.1L13.9,10.1L13.9,9.1z" stroke="none"/><path d="M66,12.1L66,11.9L72.6,11.9L72.6,12.4L73.1,12.4L73.1,12.9L88.4,12.9L88.4,12.4L89.4,12.4L89.4,11.9L90,11.9L90,12.1L89.6,12.1L89.6,12.6L88.6,12.6L88.6,13.1L72.9,13.1L72.9,12.6L72.4,12.6L72.4,12.1z" stroke="none"/><path d="M99.1,12L98.9,12L98.9,7.6L98.4,7.6L98.4,6.6L93.6,6.6L93.6,8.6L92.6,8.6L92.6,9.1L88.6,9.1L88.6,9.6L87.6,9.6L87.6,10.1L87.1,10.1L87.1,10.6L75.6,10.6L75.6,12.1L73.5,12.1L73.5,11.9L75.4,11.9L75.4,10.4L86.9,10.4L86.9,9.9L87.4,9.9L87.4,9.4L88.4,9.4L88.4,8.9L92.4,8.9L92.4,8.4L93.4,8.4L93.4,6.4L98.6,6.4L98.6,7.4L99.1,7.4z" stroke="none"/><path d="M18,10.6L18,10.4L18.6,10.4L18.6,11.4L19.1,11.4L19.1,12.4L19.6,12.4L19.6,12.9L42.4,12.9L42.4,11.9L43.5,11.9L43.5,12.1L42.6,12.1L42.6,13.1L19.4,13.1L19.4,12.6L18.9,12.6L18.9,11.6L18.4,11.6L18.4,10.6z" stroke="none"/><path d="M46.5,10.4L46.5,10.6L46.1,10.6L46.1,11.1L45.6,11.1L45.6,11.6L45.1,11.6L45.1,12.1L44.6,12.1L44.6,13.1L43.1,13.1L43.1,13.6L18.4,13.6L18.4,12.6L17.9,12.6L17.9,12L18.1,12L18.1,12.4L18.6,12.4L18.6,13.4L42.9,13.4L42.9,12.9L44.4,12.9L44.4,11.9L44.9,11.9L44.9,11.4L45.4,11.4L45.4,10.9L45.9,10.9L45.9,10.4z" stroke="none"/><path d="M51,2.9L51,3.1L32.6,3.1L32.6,3.6L30.6,3.6L30.6,4.1L29.4,4.1L29.4,3.6L28.9,3.6L28.9,3.1L23.6,3.1L23.6,4.6L21.6,4.6L21.6,6.1L21,6.1L21,5.9L21.4,5.9L21.4,4.4L23.4,4.4L23.4,2.9L29.1,2.9L29.1,3.4L29.6,3.4L29.6,3.9L30.4,3.9L30.4,3.4L32.4,3.4L32.4,2.9z" stroke="none"/><path d="M46.5,11.9L46.5,12.1L45.6,12.1L45.6,12.6L45.1,12.6L45.1,13.6L43.6,13.6L43.6,14.1L15.4,14.1L15.4,13.1L14.9,13.1L14.9,12.1L13.5,12.1L13.5,11.9L15.1,11.9L15.1,12.9L15.6,12.9L15.6,13.9L43.4,13.9L43.4,13.4L44.9,13.4L44.9,12.4L45.4,12.4L45.4,11.9z" stroke="none"/><path d="M89.9,3L90.1,3L90.1,3.6L87.6,3.6L87.6,4.1L74.9,4.1L74.9,3.6L74.4,3.6L74.4,3.1L68.4,3.1L68.4,2.6L67.9,2.6L67.9,2.1L56.6,2.1L56.6,2.6L55.6,2.6L55.6,3L55.4,3L55.4,2.4L56.4,2.4L56.4,1.9L68.1,1.9L68.1,2.4L68.6,2.4L68.6,2.9L74.6,2.9L74.6,3.4L75.1,3.4L75.1,3.9L87.4,3.9L87.4,3.4L89.9,3.4z" stroke="none"/><path d="M49.5,11.9L49.5,12.1L47.6,12.1L47.6,12.6L47.1,12.6L47.1,13.1L46.1,13.1L46.1,14.1L44.1,14.1L44.1,14.6L3.4,14.6L3.4,14.1L2.9,14.1L2.9,8.4L3.4,8.4L3.4,7.4L4.9,7.4L4.9,6.9L5.4,6.9L5.4,6.4L9.6,6.4L9.6,7.4L10.6,7.4L10.6,7.9L11.6,7.9L11.6,8.4L15.1,8.4L15.1,9L14.9,9L14.9,8.6L11.4,8.6L11.4,8.1L10.4,8.1L10.4,7.6L9.4,7.6L9.4,6.6L5.6,6.6L5.6,7.1L5.1,7.1L5.1,7.6L3.6,7.6L3.6,8.6L3.1,8.6L3.1,13.9L3.6,13.9L3.6,14.4L43.9,14.4L43.9,13.9L45.9,13.9L45.9,12.9L46.9,12.9L46.9,12.4L47.4,12.4L47.4,11.9z" stroke="none"/><path d="M97.4,7.5L97.6,7.5L97.6,9.6L97.1,9.6L97.1,10.1L96.6,10.1L96.6,11.1L96.1,11.1L96.1,11.6L93.6,11.6L93.6,12.1L93.1,12.1L93.1,12.6L92.6,12.6L92.6,13.1L89.6,13.1L89.6,13.6L57.4,13.6L57.4,13.1L56.9,13.1L56.9,12L57.1,12L57.1,12.9L57.6,12.9L57.6,13.4L89.4,13.4L89.4,12.9L92.4,12.9L92.4,12.4L92.9,12.4L92.9,11.9L93.4,11.9L93.4,11.4L95.9,11.4L95.9,10.9L96.4,10.9L96.4,9.9L96.9,9.9L96.9,9.4L97.4,9.4z" stroke="none"/></svg>