<svg version="1.1" width="105" height="15" xmlns="http://www.w3.org/2000/svg"><path d="M36.4,9.9L36.4,9.1L31.9,9.1L31.9,8.1L28.1,8.1L28.1,8.6L23.6,8.6L23.6,9.1L22.5,9.1L22.5,8.9L23.4,8.9L23.4,8.4L27.9,8.4L27.9,7.9L32.1,7.9L32.1,8.9L36.6,8.9L36.6,10.6L35.6,10.6L35.6,11.6L35.1,11.6L35.1,12.4L35.6,12.4L35.6,12.9L52.9,12.9L52.9,12.4L53.9,12.4L53.9,10.9L55.4,10.9L55.4,10.5L55.6,10.5L55.6,11.1L54.1,11.1L54.1,12.6L53.1,12.6L53.1,13.1L35.4,13.1L35.4,12.6L34.9,12.6L34.9,11.4L35.4,11.4L35.4,10.4L36.4,10.4L36.4,10.1L35.9,10.1L35.9,9.6L32.6,9.6L32.6,10.6L31.5,10.6L31.5,10.4L32.4,10.4L32.4,9.4L36.1,9.4L36.1,9.9z" stroke="none"/><path d="M57.4,9.4L57.4,7.9L64.9,7.9L64.9,7.4L72,7.4L72,7.6L65.1,7.6L65.1,8.1L57.6,8.1L57.6,9.6L48.6,9.6L48.6,10.1L38.6,10.1L38.6,11.6L38.1,11.6L38.1,12.1L36,12.1L36,11.9L37.9,11.9L37.9,11.4L38.4,11.4L38.4,9.9L48.4,9.9L48.4,9.6L38.4,9.6L38.4,9.1L37.5,9.1L37.5,8.9L38.6,8.9L38.6,9.4z" stroke="none"/><path d="M74.4,11.4L74.4,10.9L78.9,10.9L78.9,10.4L81,10.4L81,10.6L79.1,10.6L79.1,11.1L74.6,11.1L74.6,11.6L65.6,11.6L65.6,11.9L72.1,11.9L72.1,12.4L73.1,12.4L73.1,12.9L80.9,12.9L80.9,11.9L82.5,11.9L82.5,12.1L81.1,12.1L81.1,13.1L72.9,13.1L72.9,12.6L71.9,12.6L71.9,12.1L65.4,12.1L65.4,11.6L57.1,11.6L57.1,12.6L54.6,12.6L54.6,13.1L53.6,13.1L53.6,13.6L33.9,13.6L33.9,12.6L33.4,12.6L33.4,12.1L33,12.1L33,11.9L33.6,11.9L33.6,12.4L34.1,12.4L34.1,13.4L53.4,13.4L53.4,12.9L54.4,12.9L54.4,12.4L56.9,12.4L56.9,11.4z" stroke="none"/><path d="M13.9,9.4L13.9,8.9L15.1,8.9L15.1,9.4L15.6,9.4L15.6,9.9L16.1,9.9L16.1,10.4L16.5,10.4L16.5,10.6L15.9,10.6L15.9,10.1L15.4,10.1L15.4,9.6L14.9,9.6L14.9,9.1L14.1,9.1L14.1,9.4L14.6,9.4L14.6,9.9L15.1,9.9L15.1,10.5L14.9,10.5L14.9,10.1L14.4,10.1L14.4,9.6L14.1,9.6L14.1,10.4L14.6,10.4L14.6,10.9L24.1,10.9L24.1,12L23.9,12L23.9,11.1L14.4,11.1L14.4,10.6L13.9,10.6L13.9,9.6L4.4,9.6L4.4,9L4.6,9L4.6,9.4z" stroke="none"/><path d="M31.4,4.9L31.4,4.6L29.4,4.6L29.4,3.6L27.9,3.6L27.9,3.1L24,3.1L24,2.9L28.1,2.9L28.1,3.4L29.6,3.4L29.6,4.4L31.6,4.4L31.6,4.9L40.1,4.9L40.1,5.4L42.9,5.4L42.9,4.9L54.9,4.9L54.9,4.4L55.4,4.4L55.4,3.9L55.9,3.9L55.9,3.4L56.4,3.4L56.4,2.9L57,2.9L57,3.1L56.6,3.1L56.6,3.6L56.1,3.6L56.1,4.1L55.6,4.1L55.6,4.6L55.1,4.6L55.1,5.1L43.1,5.1L43.1,5.6L39.9,5.6L39.9,5.1L31.6,5.1L31.6,5.6L30.1,5.6L30.1,6.1L28.6,6.1L28.6,6.6L27.1,6.6L27.1,7.1L26.6,7.1L26.6,8.1L20.9,8.1L20.9,7.6L19.5,7.6L19.5,7.4L21.1,7.4L21.1,7.9L26.4,7.9L26.4,6.9L26.9,6.9L26.9,6.4L28.4,6.4L28.4,5.9L29.9,5.9L29.9,5.4L31.4,5.4L31.4,5.1L28.1,5.1L28.1,6.1L25.6,6.1L25.6,7.5L25.4,7.5L25.4,5.9L27.9,5.9L27.9,4.9z" stroke="none"/><path d="M80.9,8.9L80.9,8.6L59.1,8.6L59.1,9.1L58.5,9.1L58.5,8.9L58.9,8.9L58.9,8.4L81.1,8.4L81.1,8.9L99,8.9L99,9.1L81.1,9.1L81.1,9.4L100.1,9.4L100.1,9.9L102.1,9.9L102.1,10.5L101.9,10.5L101.9,10.1L99.9,10.1L99.9,9.6L80.9,9.6L80.9,9.1L66,9.1L66,8.9z" stroke="none"/><path d="M12,7.4L12,7.6L10.5,7.6L10.5,7.4z" stroke="none"/><path d="M66,4.6L66,4.4L67.1,4.4L67.1,5.4L67.6,5.4L67.6,6L67.4,6L67.4,5.6L66.9,5.6L66.9,4.6z" stroke="none"/><path d="M22.5,4.4L22.5,4.6L21.9,4.6L21.9,3.6L20.9,3.6L20.9,3L21.1,3L21.1,3.4L22.1,3.4L22.1,4.4z" stroke="none"/><path d="M54,6.1L54,5.9L57,5.9L57,6.1z" stroke="none"/><path d="M93,4.6L93,4.4L96,4.4L96,4.6z" stroke="none"/><path d="M18.1,9L17.9,9L17.9,6L18.1,6z" stroke="none"/><path d="M40.5,4.6L40.5,4.4L53.9,4.4L53.9,2.4L56.4,2.4L56.4,1.9L58.1,1.9L58.1,7.1L44.9,7.1L44.9,6.1L43.5,6.1L43.5,5.9L45.1,5.9L45.1,6.9L57.9,6.9L57.9,2.1L56.6,2.1L56.6,2.6L54.1,2.6L54.1,4.6z" stroke="none"/><path d="M90,3.1L90,2.9L91.1,2.9L91.1,4.9L92.6,4.9L92.6,5.4L93.1,5.4L93.1,6L92.9,6L92.9,5.6L92.4,5.6L92.4,5.1L90.9,5.1L90.9,3.1z" stroke="none"/><path d="M96,12.1L96,11.9L101.4,11.9L101.4,11.4L102.4,11.4L102.4,10.9L102.9,10.9L102.9,10.1L102.4,10.1L102.4,9.6L101.4,9.6L101.4,8.6L100.9,8.6L100.9,8.1L97.4,8.1L97.4,7.6L96,7.6L96,7.4L97.6,7.4L97.6,7.9L101.1,7.9L101.1,8.4L101.6,8.4L101.6,9.4L102.6,9.4L102.6,9.9L103.1,9.9L103.1,11.1L102.6,11.1L102.6,11.6L101.6,11.6L101.6,12.1z" stroke="none"/><path d="M26.9,10.5L27.1,10.5L27.1,11.6L25.6,11.6L25.6,12.1L25.1,12.1L25.1,12.6L24.6,12.6L24.6,13.1L22.4,13.1L22.4,12L22.6,12L22.6,12.9L24.4,12.9L24.4,12.4L24.9,12.4L24.9,11.9L25.4,11.9L25.4,11.4L26.9,11.4z" stroke="none"/><path d="M102,7.6L102,7.4L103.1,7.4L103.1,9.4L103.6,9.4L103.6,12.1L102.1,12.1L102.1,12.6L98.1,12.6L98.1,13.1L94.9,13.1L94.9,11.4L95.4,11.4L95.4,10.9L96.9,10.9L96.9,10.4L97.5,10.4L97.5,10.6L97.1,10.6L97.1,11.1L95.6,11.1L95.6,11.6L95.1,11.6L95.1,12.9L97.9,12.9L97.9,12.4L101.9,12.4L101.9,11.9L103.4,11.9L103.4,9.6L102.9,9.6L102.9,7.6z" stroke="none"/><path d="M16.5,4.4L16.5,4.6L13.9,4.6L13.9,4.1L10.9,4.1L10.9,3.6L10.4,3.6L10.4,3.1L9,3.1L9,2.9L10.6,2.9L10.6,3.4L11.1,3.4L11.1,3.9L14.1,3.9L14.1,4.4z" stroke="none"/><path d="M85.5,7.4L85.5,7.6L83.9,7.6L83.9,7.1L83.4,7.1L83.4,6.6L82.9,6.6L82.9,6.1L81.9,6.1L81.9,5.6L81.4,5.6L81.4,5.1L76.4,5.1L76.4,4.5L76.6,4.5L76.6,4.9L81.6,4.9L81.6,5.4L82.1,5.4L82.1,5.9L83.1,5.9L83.1,6.4L83.6,6.4L83.6,6.9L84.1,6.9L84.1,7.4z" stroke="none"/><path d="M30,8.9L30,9.1L25.6,9.1L25.6,9.6L23.1,9.6L23.1,10.1L20.9,10.1L20.9,9.6L20.4,9.6L20.4,8.6L18.4,8.6L18.4,6.4L18.9,6.4L18.9,4.9L19.4,4.9L19.4,4.5L19.6,4.5L19.6,5.1L19.1,5.1L19.1,6.6L18.6,6.6L18.6,8.4L20.6,8.4L20.6,9.4L21.1,9.4L21.1,9.9L22.9,9.9L22.9,9.4L25.4,9.4L25.4,8.9z" stroke="none"/><path d="M82.5,7.6L82.5,7.4L83.6,7.4L83.6,7.9L85.1,7.9L85.1,8.4L85.9,8.4L85.9,7.9L86.4,7.9L86.4,3.9L86.9,3.9L86.9,3.4L87.9,3.4L87.9,2.9L88.4,2.9L88.4,2.4L89.4,2.4L89.4,1.9L92.6,1.9L92.6,2.4L93.1,2.4L93.1,3L92.9,3L92.9,2.6L92.4,2.6L92.4,2.1L89.6,2.1L89.6,2.6L88.6,2.6L88.6,3.1L88.1,3.1L88.1,3.6L87.1,3.6L87.1,4.1L86.6,4.1L86.6,8.1L86.1,8.1L86.1,8.6L84.9,8.6L84.9,8.1L83.4,8.1L83.4,7.6z" stroke="none"/><path d="M100.5,2.9L100.5,3.1L98.6,3.1L98.6,4.1L98.1,4.1L98.1,4.6L97.1,4.6L97.1,5.6L94.1,5.6L94.1,6.6L93.6,6.6L93.6,7.1L90.1,7.1L90.1,7.5L89.9,7.5L89.9,6.9L93.4,6.9L93.4,6.4L93.9,6.4L93.9,5.4L96.9,5.4L96.9,4.4L97.9,4.4L97.9,3.9L98.4,3.9L98.4,2.9z" stroke="none"/><path d="M34.5,3.1L34.5,2.9L48,2.9L48,3.1z" stroke="none"/><path d="M40.5,7.6L40.5,7.4L58.4,7.4L58.4,1.6L24.6,1.6L24.6,2.1L23.6,2.1L23.6,2.6L23.1,2.6L23.1,3.4L23.6,3.4L23.6,3.9L26.6,3.9L26.6,4.4L27,4.4L27,4.6L26.4,4.6L26.4,4.1L23.4,4.1L23.4,3.6L22.9,3.6L22.9,2.4L23.4,2.4L23.4,1.9L24.4,1.9L24.4,1.4L58.6,1.4L58.6,7.6z" stroke="none"/><path d="M97.5,2.9L97.5,3.1L94.4,3.1L94.4,2.1L93.9,2.1L93.9,1.6L87.6,1.6L87.6,2.6L87.1,2.6L87.1,3.1L86.6,3.1L86.6,3.6L85.6,3.6L85.6,4.1L85.1,4.1L85.1,4.6L84.6,4.6L84.6,6.1L84,6.1L84,5.9L84.4,5.9L84.4,4.4L84.9,4.4L84.9,3.9L85.4,3.9L85.4,3.4L86.4,3.4L86.4,2.9L86.9,2.9L86.9,2.4L87.4,2.4L87.4,1.4L94.1,1.4L94.1,1.9L94.6,1.9L94.6,2.9z" stroke="none"/><path d="M94.5,10.4L94.5,10.6L83.1,10.6L83.1,11.1L82.1,11.1L82.1,11.6L78.1,11.6L78.1,12.1L75,12.1L75,11.9L77.9,11.9L77.9,11.4L81.9,11.4L81.9,10.9L82.9,10.9L82.9,10.4z" stroke="none"/><path d="M79.5,2.9L79.5,3.1L65.1,3.1L65.1,4.1L64.1,4.1L64.1,5.1L63.1,5.1L63.1,5.6L60.1,5.6L60.1,6L59.9,6L59.9,5.4L62.9,5.4L62.9,4.9L63.9,4.9L63.9,3.9L64.9,3.9L64.9,2.9z" stroke="none"/><path d="M102,2.9L102,3.1L101.4,3.1L101.4,2.6L100.9,2.6L100.9,2.1L95.4,2.1L95.4,1.6L94.4,1.6L94.4,1.1L83.1,1.1L83.1,2.1L82.6,2.1L82.6,2.6L82.1,2.6L82.1,3.1L80.6,3.1L80.6,3.6L80.1,3.6L80.1,4.1L77.4,4.1L77.4,3.6L75.6,3.6L75.6,4.9L76.1,4.9L76.1,5.4L77.1,5.4L77.1,5.9L81,5.9L81,6.1L76.9,6.1L76.9,5.6L75.9,5.6L75.9,5.1L75.4,5.1L75.4,3.4L77.6,3.4L77.6,3.9L79.9,3.9L79.9,3.4L80.4,3.4L80.4,2.9L81.9,2.9L81.9,2.4L82.4,2.4L82.4,1.9L82.9,1.9L82.9,0.9L94.6,0.9L94.6,1.4L95.6,1.4L95.6,1.9L101.1,1.9L101.1,2.4L101.6,2.4L101.6,2.9z" stroke="none"/><path d="M34.4,10.5L34.6,10.5L34.6,11.1L32.6,11.1L32.6,11.6L28.9,11.6L28.9,11.1L28.4,11.1L28.4,10.6L27.9,10.6L27.9,9.6L26.1,9.6L26.1,10.1L24.6,10.1L24.6,10.6L17.9,10.6L17.9,10.1L16.9,10.1L16.9,8.4L17.4,8.4L17.4,7.1L16.9,7.1L16.9,5.4L17.4,5.4L17.4,4.9L18.4,4.9L18.4,3.9L18.9,3.9L18.9,3.4L19.9,3.4L19.9,2.4L20.4,2.4L20.4,1.9L22.9,1.9L22.9,1.4L23.9,1.4L23.9,0.9L59.1,0.9L59.1,6.4L59.6,6.4L59.6,6.9L70.9,6.9L70.9,6.4L78.6,6.4L78.6,6.9L79.1,6.9L79.1,7.4L79.5,7.4L79.5,7.6L78.9,7.6L78.9,7.1L78.4,7.1L78.4,6.6L71.1,6.6L71.1,7.1L59.4,7.1L59.4,6.6L58.9,6.6L58.9,1.1L24.1,1.1L24.1,1.6L23.1,1.6L23.1,2.1L20.6,2.1L20.6,2.6L20.1,2.6L20.1,3.6L19.1,3.6L19.1,4.1L18.6,4.1L18.6,5.1L17.6,5.1L17.6,5.6L17.1,5.6L17.1,6.9L17.6,6.9L17.6,8.6L17.1,8.6L17.1,9.9L18.1,9.9L18.1,10.4L24.4,10.4L24.4,9.9L25.9,9.9L25.9,9.4L28.1,9.4L28.1,10.4L28.6,10.4L28.6,10.9L29.1,10.9L29.1,11.4L32.4,11.4L32.4,10.9L34.4,10.9z" stroke="none"/><path d="M16.5,7.4L16.5,7.6L13.9,7.6L13.9,7.1L12.4,7.1L12.4,6.6L9.4,6.6L9.4,6.1L8.9,6.1L8.9,5.1L8.4,5.1L8.4,4.6L7.9,4.6L7.9,2.4L8.4,2.4L8.4,1.9L14.4,1.9L14.4,1.4L16.9,1.4L16.9,0.9L17.4,0.9L17.4,0.4L62.1,0.4L62.1,0.9L63.1,0.9L63.1,3L62.9,3L62.9,1.1L61.9,1.1L61.9,0.6L17.6,0.6L17.6,1.1L17.1,1.1L17.1,1.6L14.6,1.6L14.6,2.1L8.6,2.1L8.6,2.6L8.1,2.6L8.1,4.4L8.6,4.4L8.6,4.9L9.1,4.9L9.1,5.9L9.6,5.9L9.6,6.4L12.6,6.4L12.6,6.9L14.1,6.9L14.1,7.4z" stroke="none"/></svg>