<svg version="1.1" width="105" height="15" xmlns="http://www.w3.org/2000/svg"><path d="M76.4,2.9L76.4,2.6L70.9,2.6L70.9,2.1L59.6,2.1L59.6,2.6L59.1,2.6L59.1,3.1L57,3.1L57,2.9L58.9,2.9L58.9,2.4L59.4,2.4L59.4,1.9L71.1,1.9L71.1,2.4L76.6,2.4L76.6,2.9L88.9,2.9L88.9,2.4L89.4,2.4L89.4,1.9L96.1,1.9L96.1,2.4L96.6,2.4L96.6,2.9L99,2.9L99,3.1L96.4,3.1L96.4,2.6L95.9,2.6L95.9,2.1L89.6,2.1L89.6,2.6L89.1,2.6L89.1,3.1L73.5,3.1L73.5,2.9z" stroke="none"/><path d="M31.6,8.9L31.6,9.9L36.4,9.9L36.4,8.9L40.9,8.9L40.9,8.4L42.9,8.4L42.9,7.4L43.5,7.4L43.5,7.6L43.1,7.6L43.1,8.6L41.1,8.6L41.1,9.1L36.6,9.1L36.6,10.1L31.4,10.1L31.4,9.1L30.1,9.1L30.1,9.6L28.6,9.6L28.6,10.1L27.6,10.1L27.6,10.6L27.1,10.6L27.1,11.6L22.6,11.6L22.6,12.1L19.5,12.1L19.5,11.9L22.4,11.9L22.4,11.4L26.9,11.4L26.9,10.4L27.4,10.4L27.4,9.9L28.4,9.9L28.4,9.4L29.9,9.4L29.9,9.1L27.4,9.1L27.4,8.6L26.9,8.6L26.9,7.5L27.1,7.5L27.1,8.4L27.6,8.4L27.6,8.9z" stroke="none"/><path d="M64.1,9.4L64.1,9.9L68.6,9.9L68.6,10.4L69,10.4L69,10.6L68.4,10.6L68.4,10.1L63.9,10.1L63.9,9.6L58.6,9.6L58.6,9.9L63.6,9.9L63.6,10.4L68.1,10.4L68.1,10.9L73.4,10.9L73.4,10.5L73.6,10.5L73.6,11.1L67.9,11.1L67.9,10.6L63.4,10.6L63.4,10.1L58.4,10.1L58.4,9.6L45.9,9.6L45.9,9.1L45.4,9.1L45.4,8.6L44.9,8.6L44.9,7.1L43.9,7.1L43.9,6.6L36.1,6.6L36.1,7.1L33.6,7.1L33.6,7.6L33,7.6L33,7.4L33.4,7.4L33.4,6.9L35.9,6.9L35.9,6.4L44.1,6.4L44.1,6.9L45.1,6.9L45.1,8.4L45.6,8.4L45.6,8.9L46.1,8.9L46.1,9.4z" stroke="none"/><path d="M84.9,4.9L84.9,4.6L83.4,4.6L83.4,4.1L78.6,4.1L78.6,5.6L68.9,5.6L68.9,5.1L67.9,5.1L67.9,4.6L67.5,4.6L67.5,4.4L68.1,4.4L68.1,4.9L69.1,4.9L69.1,5.4L78.4,5.4L78.4,3.9L83.6,3.9L83.6,4.4L85.1,4.4L85.1,4.9L86.6,4.9L86.6,5.4L99.6,5.4L99.6,5.9L100.6,5.9L100.6,6.4L101.6,6.4L101.6,8.9L102,8.9L102,9.1L101.4,9.1L101.4,6.6L100.4,6.6L100.4,6.1L99.4,6.1L99.4,5.6L86.4,5.6L86.4,5.1L85.1,5.1L85.1,5.6L84.1,5.6L84.1,6L83.9,6L83.9,5.4L84.9,5.4L84.9,5.1L82.9,5.1L82.9,4.6L82.5,4.6L82.5,4.4L83.1,4.4L83.1,4.9z" stroke="none"/><path d="M34.4,2.9L34.4,2.6L27.6,2.6L27.6,3.1L27,3.1L27,2.9L27.4,2.9L27.4,2.4L34.6,2.4L34.6,2.9L48,2.9L48,3.1L34.6,3.1L34.6,3.6L32.6,3.6L32.6,4.6L31.5,4.6L31.5,4.4L32.4,4.4L32.4,3.4L34.4,3.4L34.4,3.1L31.5,3.1L31.5,2.9z" stroke="none"/><path d="M28.9,4.9L28.9,4.4L30.6,4.4L30.6,4.9L31.1,4.9L31.1,5.4L32.4,5.4L32.4,4.9L44.6,4.9L44.6,5.4L54.6,5.4L54.6,5.9L55.6,5.9L55.6,6.4L56.1,6.4L56.1,7.4L58.5,7.4L58.5,7.6L55.9,7.6L55.9,6.6L55.4,6.6L55.4,6.1L54.4,6.1L54.4,5.6L44.4,5.6L44.4,5.1L32.6,5.1L32.6,5.6L30.9,5.6L30.9,5.1L30.4,5.1L30.4,4.6L29.1,4.6L29.1,4.9L29.6,4.9L29.6,6.1L26.1,6.1L26.1,6.6L11.4,6.6L11.4,6.1L10.4,6.1L10.4,5.6L8.9,5.6L8.9,4.5L9.1,4.5L9.1,5.4L10.6,5.4L10.6,5.9L11.6,5.9L11.6,6.4L25.9,6.4L25.9,5.9L29.4,5.9L29.4,5.1L29.1,5.1L29.1,5.6L25.6,5.6L25.6,6.1L24,6.1L24,5.9L25.4,5.9L25.4,5.4L28.9,5.4L28.9,5.1L26.9,5.1L26.9,4.1L26.4,4.1L26.4,3.6L25.4,3.6L25.4,3L25.6,3L25.6,3.4L26.6,3.4L26.6,3.9L27.1,3.9L27.1,4.9z" stroke="none"/><path d="M91.4,10.5L91.6,10.5L91.6,12L91.4,12z" stroke="none"/><path d="M100.5,8.9L100.5,9.1L100.1,9.1L100.1,10.1L99.6,10.1L99.6,10.6L99,10.6L99,10.4L99.4,10.4L99.4,9.9L99.9,9.9L99.9,8.9z" stroke="none"/><path d="M51,12.1L51,11.9L53.4,11.9L53.4,10.4L54,10.4L54,10.6L53.6,10.6L53.6,12.1z" stroke="none"/><path d="M3,9.1L3,8.9L7.1,8.9L7.1,9.9L7.6,9.9L7.6,10.5L7.4,10.5L7.4,10.1L6.9,10.1L6.9,9.1z" stroke="none"/><path d="M97.6,12L97.4,12L97.4,9.6L96.9,9.6L96.9,7.6L96,7.6L96,7.4L97.1,7.4L97.1,9.4L97.6,9.4z" stroke="none"/><path d="M73.5,7.6L73.5,7.4L79.5,7.4L79.5,7.6z" stroke="none"/><path d="M70.5,2.9L70.5,3.1L65.6,3.1L65.6,3.6L64.6,3.6L64.6,4.5L64.4,4.5L64.4,3.4L65.4,3.4L65.4,2.9z" stroke="none"/><path d="M3,4.6L3,4.4L5.9,4.4L5.9,3.9L7.9,3.9L7.9,3.4L10.1,3.4L10.1,4.4L10.5,4.4L10.5,4.6L9.9,4.6L9.9,3.6L8.1,3.6L8.1,4.1L6.1,4.1L6.1,4.6z" stroke="none"/><path d="M73.5,4.4L73.5,4.6L68.4,4.6L68.4,3.6L67.1,3.6L67.1,4.1L66.6,4.1L66.6,5.1L66.1,5.1L66.1,6L65.9,6L65.9,4.9L66.4,4.9L66.4,3.9L66.9,3.9L66.9,3.4L68.6,3.4L68.6,4.4z" stroke="none"/><path d="M10.5,2.9L10.5,3.1L3.6,3.1L3.6,3.6L2.6,3.6L2.6,4.1L2.1,4.1L2.1,6.9L2.6,6.9L2.6,7.4L3,7.4L3,7.6L2.4,7.6L2.4,7.1L1.9,7.1L1.9,3.9L2.4,3.9L2.4,3.4L3.4,3.4L3.4,2.9z" stroke="none"/><path d="M31.5,11.9L31.5,12.1L24.6,12.1L24.6,12.6L20.6,12.6L20.6,13.1L18.9,13.1L18.9,12.6L18.4,12.6L18.4,11.4L18.9,11.4L18.9,10.9L22.4,10.9L22.4,10.5L22.6,10.5L22.6,11.1L19.1,11.1L19.1,11.6L18.6,11.6L18.6,12.4L19.1,12.4L19.1,12.9L20.4,12.9L20.4,12.4L24.4,12.4L24.4,11.9z" stroke="none"/><path d="M76.5,4.6L76.5,4.4L77.4,4.4L77.4,3.9L77.9,3.9L77.9,3.4L84.6,3.4L84.6,3.9L86.6,3.9L86.6,4.4L87,4.4L87,4.6L86.4,4.6L86.4,4.1L84.4,4.1L84.4,3.6L78.1,3.6L78.1,4.1L77.6,4.1L77.6,4.6z" stroke="none"/><path d="M96.1,12L95.9,12L95.9,11.6L95.4,11.6L95.4,11.1L94.9,11.1L94.9,10.6L94.4,10.6L94.4,9.6L85.9,9.6L85.9,9.1L85.5,9.1L85.5,8.9L86.1,8.9L86.1,9.4L94.6,9.4L94.6,10.4L95.1,10.4L95.1,10.9L95.6,10.9L95.6,11.4L96.1,11.4z" stroke="none"/><path d="M102,4.4L102,4.6L90.9,4.6L90.9,4.1L90.4,4.1L90.4,3.1L90,3.1L90,2.9L90.6,2.9L90.6,3.9L91.1,3.9L91.1,4.4z" stroke="none"/><path d="M58.5,5.9L58.5,6.1L55.9,6.1L55.9,5.6L55.4,5.6L55.4,5.1L45.4,5.1L45.4,4.6L45,4.6L45,4.4L45.6,4.4L45.6,4.9L55.6,4.9L55.6,5.4L56.1,5.4L56.1,5.9z" stroke="none"/><path d="M10.5,12.1L10.5,11.9L10.9,11.9L10.9,10.9L12.4,10.9L12.4,10.4L21.4,10.4L21.4,9.9L21.9,9.9L21.9,9.4L24.4,9.4L24.4,8.9L25.5,8.9L25.5,9.1L24.6,9.1L24.6,9.6L22.1,9.6L22.1,10.1L21.6,10.1L21.6,10.6L12.6,10.6L12.6,11.1L11.1,11.1L11.1,12.1z" stroke="none"/><path d="M34.5,11.9L34.5,12.1L33.1,12.1L33.1,12.6L32.6,12.6L32.6,13.1L21.6,13.1L21.6,13.6L9.9,13.6L9.9,13.1L9.4,13.1L9.4,9.9L14.9,9.9L14.9,9L15.1,9L15.1,10.1L9.6,10.1L9.6,12.9L10.1,12.9L10.1,13.4L21.4,13.4L21.4,12.9L32.4,12.9L32.4,12.4L32.9,12.4L32.9,11.9z" stroke="none"/><path d="M25.5,4.4L25.5,4.6L24.9,4.6L24.9,3.6L24.4,3.6L24.4,2.4L24.9,2.4L24.9,1.9L55.1,1.9L55.1,3.9L58.6,3.9L58.6,4.9L59.1,4.9L59.1,5.4L59.6,5.4L59.6,8.1L59.1,8.1L59.1,8.6L52.9,8.6L52.9,8.1L47.9,8.1L47.9,7.5L48.1,7.5L48.1,7.9L53.1,7.9L53.1,8.4L58.9,8.4L58.9,7.9L59.4,7.9L59.4,5.6L58.9,5.6L58.9,5.1L58.4,5.1L58.4,4.1L54.9,4.1L54.9,2.1L25.1,2.1L25.1,2.6L24.6,2.6L24.6,3.4L25.1,3.4L25.1,4.4z" stroke="none"/><path d="M69,11.9L69,12.1L55.1,12.1L55.1,12.6L51.6,12.6L51.6,13.1L47.9,13.1L47.9,11.6L46.9,11.6L46.9,11.1L45.9,11.1L45.9,10.6L45.4,10.6L45.4,10.1L44.9,10.1L44.9,9.6L43.9,9.6L43.9,9.1L43.5,9.1L43.5,8.9L44.1,8.9L44.1,9.4L45.1,9.4L45.1,9.9L45.6,9.9L45.6,10.4L46.1,10.4L46.1,10.9L47.1,10.9L47.1,11.4L48.1,11.4L48.1,12.9L51.4,12.9L51.4,12.4L54.9,12.4L54.9,11.9z" stroke="none"/><path d="M72,11.9L72,12.1L70.1,12.1L70.1,12.6L69.6,12.6L69.6,13.1L52.1,13.1L52.1,13.6L42.4,13.6L42.4,12.6L40.9,12.6L40.9,11.1L40.4,11.1L40.4,10.5L40.6,10.5L40.6,10.9L41.1,10.9L41.1,12.4L42.6,12.4L42.6,13.4L51.9,13.4L51.9,12.9L69.4,12.9L69.4,12.4L69.9,12.4L69.9,11.9z" stroke="none"/><path d="M33,6.1L33,5.9L45.6,5.9L45.6,6.9L46.1,6.9L46.1,7.4L47.1,7.4L47.1,7.9L47.6,7.9L47.6,8.4L52.6,8.4L52.6,8.9L64.5,8.9L64.5,9.1L52.4,9.1L52.4,8.6L47.4,8.6L47.4,8.1L46.9,8.1L46.9,7.6L45.9,7.6L45.9,7.1L45.4,7.1L45.4,6.1z" stroke="none"/><path d="M96.1,10.5L95.9,10.5L95.9,9.6L95.4,9.6L95.4,9.1L88.4,9.1L88.4,8.6L85.9,8.6L85.9,8.1L80.1,8.1L80.1,8.6L67.9,8.6L67.9,8.1L63.4,8.1L63.4,7.6L62.9,7.6L62.9,6L63.1,6L63.1,7.4L63.6,7.4L63.6,7.9L68.1,7.9L68.1,8.4L79.9,8.4L79.9,7.9L86.1,7.9L86.1,8.4L88.6,8.4L88.6,8.9L95.6,8.9L95.6,9.4L96.1,9.4z" stroke="none"/><path d="M67.5,9.1L67.5,8.9L74.6,8.9L74.6,12.1L74.1,12.1L74.1,12.6L72.6,12.6L72.6,13.1L71.1,13.1L71.1,13.6L52.6,13.6L52.6,14.1L8.9,14.1L8.9,9.4L13.9,9.4L13.9,8.4L14.4,8.4L14.4,7.9L25.9,7.9L25.9,6.9L26.4,6.9L26.4,6.4L31.1,6.4L31.1,7.9L32.6,7.9L32.6,8.4L33.1,8.4L33.1,9L32.9,9L32.9,8.6L32.4,8.6L32.4,8.1L30.9,8.1L30.9,6.6L26.6,6.6L26.6,7.1L26.1,7.1L26.1,8.1L14.6,8.1L14.6,8.6L14.1,8.6L14.1,9.6L9.1,9.6L9.1,13.9L52.4,13.9L52.4,13.4L70.9,13.4L70.9,12.9L72.4,12.9L72.4,12.4L73.9,12.4L73.9,11.9L74.4,11.9L74.4,9.1z" stroke="none"/><path d="M12,3.1L12,2.9L23.4,2.9L23.4,2.4L23.9,2.4L23.9,1.9L24.4,1.9L24.4,1.4L101.6,1.4L101.6,2.4L102.1,2.4L102.1,2.9L102.6,2.9L102.6,3.4L103.1,3.4L103.1,9.6L102.6,9.6L102.6,10.1L100.6,10.1L100.6,10.6L100.1,10.6L100.1,11.6L97.9,11.6L97.9,8.1L97.4,8.1L97.4,7.1L96.4,7.1L96.4,6.6L84.6,6.6L84.6,7.1L79.9,7.1L79.9,6.6L66.6,6.6L66.6,7.1L64.9,7.1L64.9,5.6L63.4,5.6L63.4,5.1L61.9,5.1L61.9,4.6L60,4.6L60,4.4L62.1,4.4L62.1,4.9L63.6,4.9L63.6,5.4L65.1,5.4L65.1,6.9L66.4,6.9L66.4,6.4L80.1,6.4L80.1,6.9L84.4,6.9L84.4,6.4L96.6,6.4L96.6,6.9L97.6,6.9L97.6,7.9L98.1,7.9L98.1,11.4L99.9,11.4L99.9,10.4L100.4,10.4L100.4,9.9L102.4,9.9L102.4,9.4L102.9,9.4L102.9,3.6L102.4,3.6L102.4,3.1L101.9,3.1L101.9,2.6L101.4,2.6L101.4,1.6L24.6,1.6L24.6,2.1L24.1,2.1L24.1,2.6L23.6,2.6L23.6,3.1z" stroke="none"/></svg>