<svg version="1.1" width="105" height="15" xmlns="http://www.w3.org/2000/svg"><path d="M55.4,6.4L55.4,5.9L57.4,5.9L57.4,4.4L58.5,4.4L58.5,4.6L57.6,4.6L57.6,6.1L55.6,6.1L55.6,6.6L55.1,6.6L55.1,7.1L54.1,7.1L54.1,7.5L53.9,7.5L53.9,6.9L54.9,6.9L54.9,6.6L51.6,6.6L51.6,7.6L51,7.6L51,7.4L51.4,7.4L51.4,6.4z" stroke="none"/><path d="M69,5.9L69,6.1L66.6,6.1L66.6,6.4L71.6,6.4L71.6,6.9L79.6,6.9L79.6,7.5L79.4,7.5L79.4,7.1L71.4,7.1L71.4,6.6L66.4,6.6L66.4,6.1L59.9,6.1L59.9,5.6L59.4,5.6L59.4,4.1L58.9,4.1L58.9,3.6L54.6,3.6L54.6,4.1L52.1,4.1L52.1,4.6L51,4.6L51,4.4L51.9,4.4L51.9,3.9L54.4,3.9L54.4,3.4L59.1,3.4L59.1,3.9L59.6,3.9L59.6,5.4L60.1,5.4L60.1,5.9z" stroke="none"/><path d="M46.4,6.9L46.4,6.6L28.4,6.6L28.4,5.6L27.4,5.6L27.4,5.1L18.4,5.1L18.4,4.6L18,4.6L18,4.4L18.6,4.4L18.6,4.9L27.6,4.9L27.6,5.4L28.6,5.4L28.6,6.4L46.6,6.4L46.6,7.4L47.1,7.4L47.1,8.4L58.6,8.4L58.6,9L58.4,9L58.4,8.6L46.9,8.6L46.9,7.6L46.4,7.6L46.4,7.1L46.1,7.1L46.1,8.9L58.1,8.9L58.1,9.4L60.9,9.4L60.9,8.9L61.4,8.9L61.4,8.4L61.9,8.4L61.9,7.4L63,7.4L63,7.6L62.1,7.6L62.1,8.6L61.6,8.6L61.6,9.1L61.1,9.1L61.1,9.6L57.9,9.6L57.9,9.1L45.9,9.1L45.9,6.9z" stroke="none"/><path d="M10.4,3.9L10.4,3.6L4.4,3.6L4.4,3L4.6,3L4.6,3.4L10.6,3.4L10.6,3.9L15.9,3.9L15.9,2.9L22.5,2.9L22.5,3.1L16.1,3.1L16.1,4.1L10.6,4.1L10.6,4.6L9.6,4.6L9.6,5.1L9.1,5.1L9.1,6.1L7.5,6.1L7.5,5.9L8.9,5.9L8.9,4.9L9.4,4.9L9.4,4.4L10.4,4.4L10.4,4.1L9.1,4.1L9.1,4.5L8.9,4.5L8.9,3.9z" stroke="none"/><path d="M75.4,4.4L75.4,4.1L61.4,4.1L61.4,3.1L54,3.1L54,2.9L61.6,2.9L61.6,3.9L75.6,3.9L75.6,4.4L82.5,4.4L82.5,4.6L75.6,4.6L75.6,4.9L93.9,4.9L93.9,4.4L94.5,4.4L94.5,4.6L94.1,4.6L94.1,5.1L75.4,5.1L75.4,4.6L73.6,4.6L73.6,5.1L73.1,5.1L73.1,6.1L72,6.1L72,5.9L72.9,5.9L72.9,4.9L73.4,4.9L73.4,4.4z" stroke="none"/><path d="M40.9,10.4L40.9,9.9L53.1,9.9L53.1,11.4L54.6,11.4L54.6,12.6L19.9,12.6L19.9,12.1L15,12.1L15,11.9L20.1,11.9L20.1,12.4L54.4,12.4L54.4,11.6L52.9,11.6L52.9,10.1L41.1,10.1L41.1,10.4L48,10.4L48,10.6L41.1,10.6L41.1,10.9L52.1,10.9L52.1,11.4L52.6,11.4L52.6,11.9L54,11.9L54,12.1L52.4,12.1L52.4,11.6L51.9,11.6L51.9,11.1L40.9,11.1L40.9,10.6L35.4,10.6L35.4,10.1L34.9,10.1L34.9,9.6L28.4,9.6L28.4,8.6L27.4,8.6L27.4,8.1L24.9,8.1L24.9,6.6L17.4,6.6L17.4,5.1L16.9,5.1L16.9,3.9L17.4,3.9L17.4,3.4L22.1,3.4L22.1,3.9L29.6,3.9L29.6,4.4L30.1,4.4L30.1,4.9L31.1,4.9L31.1,5.4L47.6,5.4L47.6,7.4L48,7.4L48,7.6L47.4,7.6L47.4,5.6L30.9,5.6L30.9,5.1L29.9,5.1L29.9,4.6L29.4,4.6L29.4,4.1L21.9,4.1L21.9,3.6L17.6,3.6L17.6,4.1L17.1,4.1L17.1,4.9L17.6,4.9L17.6,6.4L25.1,6.4L25.1,7.9L27.6,7.9L27.6,8.4L28.6,8.4L28.6,9.4L35.1,9.4L35.1,9.9L35.6,9.9L35.6,10.4z" stroke="none"/><path d="M27.1,10.5L26.9,10.5L26.9,9L27.1,9z" stroke="none"/><path d="M95.9,4.5L96.1,4.5L96.1,6L95.9,6z" stroke="none"/><path d="M58.4,6L58.6,6L58.6,7.5L58.4,7.5z" stroke="none"/><path d="M85.5,5.9L85.5,6.1L82.5,6.1L82.5,5.9z" stroke="none"/><path d="M98.9,4.5L99.1,4.5L99.1,7.5L98.9,7.5z" stroke="none"/><path d="M88.5,2.9L88.5,3.1L85.5,3.1L85.5,2.9z" stroke="none"/><path d="M97.5,10.4L97.5,10.6L96.9,10.6L96.9,10.1L96.4,10.1L96.4,7.6L96,7.6L96,7.4L96.6,7.4L96.6,9.9L97.1,9.9L97.1,10.4z" stroke="none"/><path d="M15,7.4L15,7.6L12.6,7.6L12.6,8.1L12.1,8.1L12.1,8.6L11.6,8.6L11.6,9.1L9,9.1L9,8.9L11.4,8.9L11.4,8.4L11.9,8.4L11.9,7.9L12.4,7.9L12.4,7.4z" stroke="none"/><path d="M15,5.9L15,6.1L9.6,6.1L9.6,7.6L8.6,7.6L8.6,8.1L8.1,8.1L8.1,9.4L8.6,9.4L8.6,9.9L9.1,9.9L9.1,10.5L8.9,10.5L8.9,10.1L8.4,10.1L8.4,9.6L7.9,9.6L7.9,7.9L8.4,7.9L8.4,7.4L9.4,7.4L9.4,5.9z" stroke="none"/><path d="M89.9,7.5L90.1,7.5L90.1,8.1L89.6,8.1L89.6,8.6L85.6,8.6L85.6,9.1L82.5,9.1L82.5,8.9L85.4,8.9L85.4,8.4L89.4,8.4L89.4,7.9L89.9,7.9z" stroke="none"/><path d="M73.5,9.1L73.5,8.9L80.6,8.9L80.6,9.4L82.1,9.4L82.1,9.9L82.6,9.9L82.6,10.5L82.4,10.5L82.4,10.1L81.9,10.1L81.9,9.6L80.4,9.6L80.4,9.1z" stroke="none"/><path d="M81,12.1L81,11.9L91.5,11.9L91.5,12.1z" stroke="none"/><path d="M13.5,10.6L13.5,10.4L23.4,10.4L23.4,7.9L23.9,7.9L23.9,7.5L24.1,7.5L24.1,8.1L23.6,8.1L23.6,10.6z" stroke="none"/><path d="M76.5,2.9L76.5,3.1L68.9,3.1L68.9,2.6L66.4,2.6L66.4,2.1L65.1,2.1L65.1,3.1L64.5,3.1L64.5,2.9L64.9,2.9L64.9,1.9L66.6,1.9L66.6,2.4L69.1,2.4L69.1,2.9z" stroke="none"/><path d="M66,3.1L66,2.9L68.1,2.9L68.1,3.4L76.1,3.4L76.1,3.9L76.9,3.9L76.9,3.4L77.9,3.4L77.9,3L78.1,3L78.1,3.6L77.1,3.6L77.1,4.1L75.9,4.1L75.9,3.6L67.9,3.6L67.9,3.1z" stroke="none"/><path d="M94.5,10.4L94.5,10.6L92.4,10.6L92.4,10.1L91.9,10.1L91.9,9.1L91.4,9.1L91.4,7.6L90.9,7.6L90.9,7.1L90.4,7.1L90.4,6.6L88.1,6.6L88.1,7.1L84.1,7.1L84.1,7.6L82.5,7.6L82.5,7.4L83.9,7.4L83.9,6.9L87.9,6.9L87.9,6.4L90.6,6.4L90.6,6.9L91.1,6.9L91.1,7.4L91.6,7.4L91.6,8.9L92.1,8.9L92.1,9.9L92.6,9.9L92.6,10.4z" stroke="none"/><path d="M49.6,7.5L49.4,7.5L49.4,6.6L48.9,6.6L48.9,6.1L48.4,6.1L48.4,5.6L47.9,5.6L47.9,5.1L31.9,5.1L31.9,4.6L31.5,4.6L31.5,4.4L32.1,4.4L32.1,4.9L48.1,4.9L48.1,5.4L48.6,5.4L48.6,5.9L49.1,5.9L49.1,6.4L49.6,6.4z" stroke="none"/><path d="M94.4,6L94.6,6L94.6,8.9L95.1,8.9L95.1,9.9L95.6,9.9L95.6,11.1L95.1,11.1L95.1,11.6L91.9,11.6L91.9,11.1L83.6,11.1L83.6,11.6L81.9,11.6L81.9,11.1L76.4,11.1L76.4,10.6L74.9,10.6L74.9,10.1L72.9,10.1L72.9,9.6L72.4,9.6L72.4,7.9L78.6,7.9L78.6,8.4L79.9,8.4L79.9,7.9L80.4,7.9L80.4,6.6L75.4,6.6L75.4,6.1L75,6.1L75,5.9L75.6,5.9L75.6,6.4L80.6,6.4L80.6,8.1L80.1,8.1L80.1,8.6L78.4,8.6L78.4,8.1L72.6,8.1L72.6,9.4L73.1,9.4L73.1,9.9L75.1,9.9L75.1,10.4L76.6,10.4L76.6,10.9L82.1,10.9L82.1,11.4L83.4,11.4L83.4,10.9L92.1,10.9L92.1,11.4L94.9,11.4L94.9,10.9L95.4,10.9L95.4,10.1L94.9,10.1L94.9,9.1L94.4,9.1z" stroke="none"/><path d="M7.5,7.4L7.5,7.6L5.9,7.6L5.9,5.6L5.4,5.6L5.4,4.6L4.9,4.6L4.9,4.1L3.4,4.1L3.4,2.4L3.9,2.4L3.9,1.9L29.6,1.9L29.6,2.4L30.1,2.4L30.1,3L29.9,3L29.9,2.6L29.4,2.6L29.4,2.1L4.1,2.1L4.1,2.6L3.6,2.6L3.6,3.9L5.1,3.9L5.1,4.4L5.6,4.4L5.6,5.4L6.1,5.4L6.1,7.4z" stroke="none"/><path d="M100.5,10.4L100.5,10.6L98.6,10.6L98.6,11.1L98.1,11.1L98.1,11.6L96.1,11.6L96.1,12.1L95.6,12.1L95.6,12.6L92.1,12.6L92.1,13.1L75.4,13.1L75.4,12.1L72.4,12.1L72.4,11.6L71.9,11.6L71.9,8.1L70.9,8.1L70.9,7.6L70.5,7.6L70.5,7.4L71.1,7.4L71.1,7.9L72.1,7.9L72.1,11.4L72.6,11.4L72.6,11.9L75.6,11.9L75.6,12.9L91.9,12.9L91.9,12.4L95.4,12.4L95.4,11.9L95.9,11.9L95.9,11.4L97.9,11.4L97.9,10.9L98.4,10.9L98.4,10.4z" stroke="none"/><path d="M69,10.4L69,10.6L67.1,10.6L67.1,11.1L63.6,11.1L63.6,11.6L55.6,11.6L55.6,12.1L55.1,12.1L55.1,13.1L13.9,13.1L13.9,11.4L14.4,11.4L14.4,10.9L26.6,10.9L26.6,11.4L28.4,11.4L28.4,10.9L34.4,10.9L34.4,10.5L34.6,10.5L34.6,11.1L28.6,11.1L28.6,11.6L26.4,11.6L26.4,11.1L14.6,11.1L14.6,11.6L14.1,11.6L14.1,12.9L54.9,12.9L54.9,11.9L55.4,11.9L55.4,11.4L63.4,11.4L63.4,10.9L66.9,10.9L66.9,10.4z" stroke="none"/><path d="M63,10.6L63,10.4L64.4,10.4L64.4,9.9L68.4,9.9L68.4,9.4L69.6,9.4L69.6,9.9L70.1,9.9L70.1,12.4L74.6,12.4L74.6,13.4L95.4,13.4L95.4,12.9L95.9,12.9L95.9,12.4L97.4,12.4L97.4,11.9L99,11.9L99,12.1L97.6,12.1L97.6,12.6L96.1,12.6L96.1,13.1L95.6,13.1L95.6,13.6L74.4,13.6L74.4,12.6L69.9,12.6L69.9,10.1L69.4,10.1L69.4,9.6L68.6,9.6L68.6,10.1L64.6,10.1L64.6,10.6z" stroke="none"/><path d="M27,6.1L27,5.9L27.6,5.9L27.6,6.4L28.1,6.4L28.1,6.9L34.6,6.9L34.6,7.4L39.6,7.4L39.6,7.9L44.6,7.9L44.6,8.4L45.6,8.4L45.6,9.4L57.6,9.4L57.6,9.9L62.4,9.9L62.4,9.4L62.9,9.4L62.9,9L63.1,9L63.1,9.6L62.6,9.6L62.6,10.1L57.4,10.1L57.4,9.6L45.4,9.6L45.4,8.6L44.4,8.6L44.4,8.1L39.4,8.1L39.4,7.6L34.4,7.6L34.4,7.1L27.9,7.1L27.9,6.6L27.4,6.6L27.4,6.1z" stroke="none"/><path d="M45,3.1L45,2.9L52.4,2.9L52.4,2.4L53.4,2.4L53.4,1.9L63.9,1.9L63.9,1.4L81.1,1.4L81.1,2.4L82.6,2.4L82.6,3L82.4,3L82.4,2.6L80.9,2.6L80.9,1.6L64.1,1.6L64.1,2.1L53.6,2.1L53.6,2.6L52.6,2.6L52.6,3.1z" stroke="none"/></svg>