<svg version="1.1" width="105" height="15" xmlns="http://www.w3.org/2000/svg"><path d="M29.9,10.4L29.9,10.1L27.9,10.1L27.9,9.6L21.9,9.6L21.9,9.1L19.5,9.1L19.5,8.9L22.1,8.9L22.1,9.4L28.1,9.4L28.1,9.9L30.1,9.9L30.1,10.4L40.1,10.4L40.1,10.9L40.6,10.9L40.6,12L40.4,12L40.4,11.1L39.9,11.1L39.9,10.6L28.5,10.6L28.5,10.4z" stroke="none"/><path d="M73.4,4.9L73.4,4.6L72.4,4.6L72.4,3.6L69.4,3.6L69.4,3.1L68.4,3.1L68.4,2.6L67.9,2.6L67.9,2.1L53.6,2.1L53.6,2.6L52.6,2.6L52.6,3L52.4,3L52.4,2.4L53.4,2.4L53.4,1.9L68.1,1.9L68.1,2.4L68.6,2.4L68.6,2.9L69.6,2.9L69.6,3.4L72.6,3.4L72.6,4.4L73.6,4.4L73.6,4.9L77.6,4.9L77.6,5.4L88.1,5.4L88.1,5.9L91.1,5.9L91.1,6.4L92.1,6.4L92.1,6.9L93.1,6.9L93.1,7.4L94.5,7.4L94.5,7.6L92.9,7.6L92.9,7.1L91.9,7.1L91.9,6.6L90.9,6.6L90.9,6.1L87.9,6.1L87.9,5.6L77.4,5.6L77.4,5.1L71.9,5.1L71.9,4.5L72.1,4.5L72.1,4.9z" stroke="none"/><path d="M57,8.9L57,9.1L49.1,9.1L49.1,9.4L58.1,9.4L58.1,9.9L58.6,9.9L58.6,10.5L58.4,10.5L58.4,10.1L57.9,10.1L57.9,9.6L48.9,9.6L48.9,9.1L33.4,9.1L33.4,8.6L31.4,8.6L31.4,7.5L31.6,7.5L31.6,8.4L33.6,8.4L33.6,8.9z" stroke="none"/><path d="M46.4,6.4L46.4,5.9L47.9,5.9L47.9,5.4L55.1,5.4L55.1,5.9L55.5,5.9L55.5,6.1L54.9,6.1L54.9,5.6L48.1,5.6L48.1,6.1L46.6,6.1L46.6,6.4L48.4,6.4L48.4,5.9L49.5,5.9L49.5,6.1L48.6,6.1L48.6,6.6L46.6,6.6L46.6,6.9L51.1,6.9L51.1,7.5L50.9,7.5L50.9,7.1L46.4,7.1L46.4,6.6L31.1,6.6L31.1,7.1L30.6,7.1L30.6,7.6L30,7.6L30,7.4L30.4,7.4L30.4,6.9L30.9,6.9L30.9,6.4z" stroke="none"/><path d="M64.4,8.4L64.4,8.1L55.4,8.1L55.4,7.5L55.6,7.5L55.6,7.9L64.6,7.9L64.6,8.4L68.4,8.4L68.4,7.9L73.9,7.9L73.9,7.4L76.4,7.4L76.4,6.9L76.9,6.9L76.9,6.4L90.6,6.4L90.6,7.9L91.1,7.9L91.1,8.4L95.9,8.4L95.9,7.5L96.1,7.5L96.1,8.6L90.9,8.6L90.9,8.1L90.4,8.1L90.4,6.6L77.1,6.6L77.1,7.1L76.6,7.1L76.6,7.6L74.1,7.6L74.1,8.1L68.6,8.1L68.6,8.6L64.6,8.6L64.6,9.1L62.6,9.1L62.6,9.6L62.1,9.6L62.1,10.1L60.6,10.1L60.6,10.6L59.6,10.6L59.6,11.6L51.4,11.6L51.4,11.1L49.9,11.1L49.9,10.6L48,10.6L48,10.4L50.1,10.4L50.1,10.9L51.6,10.9L51.6,11.4L59.4,11.4L59.4,10.4L60.4,10.4L60.4,9.9L61.9,9.9L61.9,9.4L62.4,9.4L62.4,8.9L64.4,8.9L64.4,8.6L59.1,8.6L59.1,9.1L58.5,9.1L58.5,8.9L58.9,8.9L58.9,8.4z" stroke="none"/><path d="M70.4,9.4L70.4,8.9L75.1,8.9L75.1,9.9L82.4,9.9L82.4,9L82.6,9L82.6,10.1L74.9,10.1L74.9,9.1L70.6,9.1L70.6,9.4L73.1,9.4L73.1,9.9L73.6,9.9L73.6,10.4L76.5,10.4L76.5,10.6L73.4,10.6L73.4,10.1L72.9,10.1L72.9,9.6L70.6,9.6L70.6,10.1L64.6,10.1L64.6,11.1L64.1,11.1L64.1,11.6L63.1,11.6L63.1,12.1L52.1,12.1L52.1,13.1L39.4,13.1L39.4,12.1L39,12.1L39,11.9L39.6,11.9L39.6,12.9L51.9,12.9L51.9,11.9L62.9,11.9L62.9,11.4L63.9,11.4L63.9,10.9L64.4,10.9L64.4,9.9L70.4,9.9L70.4,9.6L69.9,9.6L69.9,8.4L74.4,8.4L74.4,7.9L83.4,7.9L83.4,7.4L84,7.4L84,7.6L83.6,7.6L83.6,8.1L74.6,8.1L74.6,8.6L70.1,8.6L70.1,9.4z" stroke="none"/><path d="M85.5,4.6L85.5,4.4L88.5,4.4L88.5,4.6z" stroke="none"/><path d="M4.5,10.6L4.5,10.4L7.5,10.4L7.5,10.6z" stroke="none"/><path d="M27,4.4L27,4.6L25.1,4.6L25.1,5.6L24.6,5.6L24.6,6.6L24.1,6.6L24.1,7.5L23.9,7.5L23.9,6.4L24.4,6.4L24.4,5.4L24.9,5.4L24.9,4.4z" stroke="none"/><path d="M81,8.9L81,9.1L76.5,9.1L76.5,8.9z" stroke="none"/><path d="M25.5,5.9L25.5,6.1L25.1,6.1L25.1,8.1L24.6,8.1L24.6,8.6L21.9,8.6L21.9,8.1L21.4,8.1L21.4,6.1L21,6.1L21,5.9L21.6,5.9L21.6,7.9L22.1,7.9L22.1,8.4L24.4,8.4L24.4,7.9L24.9,7.9L24.9,5.9z" stroke="none"/><path d="M21,12.1L21,11.9L22.1,11.9L22.1,12.4L23.6,12.4L23.6,12.9L24.4,12.9L24.4,12.4L24.9,12.4L24.9,11.9L25.5,11.9L25.5,12.1L25.1,12.1L25.1,12.6L24.6,12.6L24.6,13.1L23.4,13.1L23.4,12.6L21.9,12.6L21.9,12.1z" stroke="none"/><path d="M13.5,2.9L13.5,3.1L13.1,3.1L13.1,3.6L12.6,3.6L12.6,4.1L11.6,4.1L11.6,4.6L11.1,4.6L11.1,5.1L10.6,5.1L10.6,5.6L10.1,5.6L10.1,6.1L9,6.1L9,5.9L9.9,5.9L9.9,5.4L10.4,5.4L10.4,4.9L10.9,4.9L10.9,4.4L11.4,4.4L11.4,3.9L12.4,3.9L12.4,3.4L12.9,3.4L12.9,2.9z" stroke="none"/><path d="M10.5,8.9L10.5,9.1L9.4,9.1L9.4,8.6L7.9,8.6L7.9,7.6L4.5,7.6L4.5,7.4L8.1,7.4L8.1,8.4L9.6,8.4L9.6,8.9z" stroke="none"/><path d="M78,4.4L78,4.6L73.9,4.6L73.9,4.1L72.9,4.1L72.9,3.1L70.4,3.1L70.4,2.6L69.4,2.6L69.4,1.6L52.6,1.6L52.6,2.1L52.1,2.1L52.1,2.6L51.6,2.6L51.6,3.4L52.1,3.4L52.1,3.9L65.4,3.9L65.4,3.4L66.6,3.4L66.6,3.9L68.6,3.9L68.6,4.4L69,4.4L69,4.6L68.4,4.6L68.4,4.1L66.4,4.1L66.4,3.6L65.6,3.6L65.6,4.1L51.9,4.1L51.9,3.6L51.4,3.6L51.4,2.4L51.9,2.4L51.9,1.9L52.4,1.9L52.4,1.4L69.6,1.4L69.6,2.4L70.6,2.4L70.6,2.9L73.1,2.9L73.1,3.9L74.1,3.9L74.1,4.4z" stroke="none"/><path d="M45,4.4L45,4.6L42.9,4.6L42.9,4.1L41.9,4.1L41.9,3.6L40.9,3.6L40.9,3.1L36,3.1L36,2.9L41.1,2.9L41.1,3.4L42.1,3.4L42.1,3.9L43.1,3.9L43.1,4.4z" stroke="none"/><path d="M24.1,12L23.9,12L23.9,11.4L24.4,11.4L24.4,10.9L26.6,10.9L26.6,11.4L31.6,11.4L31.6,11.9L34.5,11.9L34.5,12.1L31.4,12.1L31.4,11.6L26.4,11.6L26.4,11.1L24.6,11.1L24.6,11.6L24.1,11.6z" stroke="none"/><path d="M67.5,5.9L67.5,6.1L57.4,6.1L57.4,5.6L55.9,5.6L55.9,5.1L46.1,5.1L46.1,5.6L31.1,5.6L31.1,6.1L29.6,6.1L29.6,7.1L29.1,7.1L29.1,7.9L29.6,7.9L29.6,8.4L31.1,8.4L31.1,8.9L32.6,8.9L32.6,9.4L48.6,9.4L48.6,9.9L53.6,9.9L53.6,10.4L55.5,10.4L55.5,10.6L53.4,10.6L53.4,10.1L48.4,10.1L48.4,9.6L32.4,9.6L32.4,9.1L30.9,9.1L30.9,8.6L29.4,8.6L29.4,8.1L28.9,8.1L28.9,6.9L29.4,6.9L29.4,5.9L30.9,5.9L30.9,5.4L45.9,5.4L45.9,4.9L56.1,4.9L56.1,5.4L57.6,5.4L57.6,5.9z" stroke="none"/><path d="M10.5,12.1L10.5,11.9L13.9,11.9L13.9,10.4L14.4,10.4L14.4,8.4L14.9,8.4L14.9,7.4L16.4,7.4L16.4,6.4L17.4,6.4L17.4,5.4L20.4,5.4L20.4,4.9L22.1,4.9L22.1,5.4L22.6,5.4L22.6,7.5L22.4,7.5L22.4,5.6L21.9,5.6L21.9,5.1L20.6,5.1L20.6,5.6L17.6,5.6L17.6,6.6L16.6,6.6L16.6,7.6L15.1,7.6L15.1,8.6L14.6,8.6L14.6,10.6L14.1,10.6L14.1,12.1z" stroke="none"/><path d="M54,3.1L54,2.9L67.5,2.9L67.5,3.1z" stroke="none"/><path d="M66,4.4L66,4.6L51.4,4.6L51.4,4.1L50.9,4.1L50.9,1.4L51.4,1.4L51.4,0.9L71.6,0.9L71.6,1.4L72.1,1.4L72.1,1.9L75.6,1.9L75.6,2.4L77.1,2.4L77.1,3.4L78.6,3.4L78.6,3.9L79.1,3.9L79.1,4.4L79.5,4.4L79.5,4.6L78.9,4.6L78.9,4.1L78.4,4.1L78.4,3.6L76.9,3.6L76.9,2.6L75.4,2.6L75.4,2.1L71.9,2.1L71.9,1.6L71.4,1.6L71.4,1.1L51.6,1.1L51.6,1.6L51.1,1.6L51.1,3.9L51.6,3.9L51.6,4.4z" stroke="none"/><path d="M99,7.4L99,7.6L98.6,7.6L98.6,8.1L96.6,8.1L96.6,9.1L90.6,9.1L90.6,10.1L89.1,10.1L89.1,11.6L85.6,11.6L85.6,12L85.4,12L85.4,11.4L88.9,11.4L88.9,9.9L90.4,9.9L90.4,8.9L96.4,8.9L96.4,7.9L98.4,7.9L98.4,7.4z" stroke="none"/><path d="M87,3.1L87,2.9L99.1,2.9L99.1,3.4L99.6,3.4L99.6,3.9L100.1,3.9L100.1,4.4L102,4.4L102,4.6L99.9,4.6L99.9,4.1L99.4,4.1L99.4,3.6L98.9,3.6L98.9,3.1z" stroke="none"/><path d="M30,2.9L30,3.1L15.4,3.1L15.4,2.6L13.9,2.6L13.9,2.1L13.1,2.1L13.1,2.6L12.6,2.6L12.6,3.1L12,3.1L12,2.9L12.4,2.9L12.4,2.4L12.9,2.4L12.9,1.9L14.1,1.9L14.1,2.4L15.6,2.4L15.6,2.9z" stroke="none"/><path d="M31.5,2.9L31.5,3.1L31.1,3.1L31.1,4.1L27.4,4.1L27.4,3.6L17.6,3.6L17.6,4.1L15.6,4.1L15.6,4.6L13.5,4.6L13.5,4.4L15.4,4.4L15.4,3.9L17.4,3.9L17.4,3.4L27.6,3.4L27.6,3.9L30.9,3.9L30.9,2.9z" stroke="none"/><path d="M96,11.9L96,12.1L86.6,12.1L86.6,12.6L86.1,12.6L86.1,13.1L73.9,13.1L73.9,12.1L72,12.1L72,11.9L74.1,11.9L74.1,12.9L85.9,12.9L85.9,12.4L86.4,12.4L86.4,11.9z" stroke="none"/><path d="M51,11.9L51,12.1L45.4,12.1L45.4,11.6L44.9,11.6L44.9,10.1L30.4,10.1L30.4,9.6L28.4,9.6L28.4,5.4L29.9,5.4L29.9,4.9L31.4,4.9L31.4,3.9L31.9,3.9L31.9,3.4L32.4,3.4L32.4,2.6L31.9,2.6L31.9,2.1L14.9,2.1L14.9,1.6L11.1,1.6L11.1,3.6L10.6,3.6L10.6,4.1L8.6,4.1L8.6,4.6L8.1,4.6L8.1,6.4L8.6,6.4L8.6,6.9L11.1,6.9L11.1,7.9L11.6,7.9L11.6,10.1L9.6,10.1L9.6,12.4L10.1,12.4L10.1,12.9L16.9,12.9L16.9,11.9L17.4,11.9L17.4,11.4L20.4,11.4L20.4,10.9L23.4,10.9L23.4,10.4L27,10.4L27,10.6L23.6,10.6L23.6,11.1L20.6,11.1L20.6,11.6L17.6,11.6L17.6,12.1L17.1,12.1L17.1,13.1L9.9,13.1L9.9,12.6L9.4,12.6L9.4,9.9L11.4,9.9L11.4,8.1L10.9,8.1L10.9,7.1L8.4,7.1L8.4,6.6L7.9,6.6L7.9,4.4L8.4,4.4L8.4,3.9L10.4,3.9L10.4,3.4L10.9,3.4L10.9,1.4L15.1,1.4L15.1,1.9L32.1,1.9L32.1,2.4L32.6,2.4L32.6,3.6L32.1,3.6L32.1,4.1L31.6,4.1L31.6,5.1L30.1,5.1L30.1,5.6L28.6,5.6L28.6,9.4L30.6,9.4L30.6,9.9L45.1,9.9L45.1,11.4L45.6,11.4L45.6,11.9z" stroke="none"/><path d="M64.5,12.1L64.5,11.9L70.9,11.9L70.9,11.4L71.4,11.4L71.4,10.9L76.1,10.9L76.1,11.4L83.4,11.4L83.4,9.4L84.4,9.4L84.4,8.9L86.9,8.9L86.9,8.4L87.4,8.4L87.4,7.9L87.9,7.9L87.9,7.4L88.5,7.4L88.5,7.6L88.1,7.6L88.1,8.1L87.6,8.1L87.6,8.6L87.1,8.6L87.1,9.1L84.6,9.1L84.6,9.6L83.6,9.6L83.6,11.6L75.9,11.6L75.9,11.1L71.6,11.1L71.6,11.6L71.1,11.6L71.1,12.1z" stroke="none"/><path d="M3,4.6L3,4.4L6.4,4.4L6.4,3.9L7.9,3.9L7.9,3.4L9.9,3.4L9.9,1.9L10.4,1.9L10.4,0.9L32.1,0.9L32.1,1.4L34.1,1.4L34.1,2.4L34.6,2.4L34.6,3.9L37.1,3.9L37.1,4.4L37.5,4.4L37.5,4.6L36.9,4.6L36.9,4.1L34.4,4.1L34.4,2.6L33.9,2.6L33.9,1.6L31.9,1.6L31.9,1.1L10.6,1.1L10.6,2.1L10.1,2.1L10.1,3.6L8.1,3.6L8.1,4.1L6.6,4.1L6.6,4.6z" stroke="none"/><path d="M4.5,5.9L4.5,6.1L3.4,6.1L3.4,5.6L1.9,5.6L1.9,3.9L2.4,3.9L2.4,3.4L4.9,3.4L4.9,1.9L5.4,1.9L5.4,1.4L7.4,1.4L7.4,0.9L9.4,0.9L9.4,0.4L44.1,0.4L44.1,0.9L45.1,0.9L45.1,1.4L45.6,1.4L45.6,1.9L46.1,1.9L46.1,2.4L46.6,2.4L46.6,3L46.4,3L46.4,2.6L45.9,2.6L45.9,2.1L45.4,2.1L45.4,1.6L44.9,1.6L44.9,1.1L43.9,1.1L43.9,0.6L9.6,0.6L9.6,1.1L7.6,1.1L7.6,1.6L5.6,1.6L5.6,2.1L5.1,2.1L5.1,3.6L2.6,3.6L2.6,4.1L2.1,4.1L2.1,5.4L3.6,5.4L3.6,5.9z" stroke="none"/></svg>