<svg version="1.1" width="105" height="15" xmlns="http://www.w3.org/2000/svg"><path d="M64.9,10.4L64.9,9.9L65.4,9.9L65.4,9.4L67.1,9.4L67.1,10.4L69,10.4L69,10.6L66.9,10.6L66.9,9.6L65.6,9.6L65.6,10.1L65.1,10.1L65.1,10.6L59.6,10.6L59.6,11.9L60,11.9L60,12.1L59.4,12.1L59.4,10.6L49.5,10.6L49.5,10.4z" stroke="none"/><path d="M102,7.4L102,7.6L93.6,7.6L93.6,7.9L101.1,7.9L101.1,8.4L102.1,8.4L102.1,9L101.9,9L101.9,8.6L100.9,8.6L100.9,8.1L93.4,8.1L93.4,7.6L92.4,7.6L92.4,7.1L91.9,7.1L91.9,6.6L77.4,6.6L77.4,6.1L76.5,6.1L76.5,5.9L77.6,5.9L77.6,6.4L92.1,6.4L92.1,6.9L92.6,6.9L92.6,7.4z" stroke="none"/><path d="M31.4,7.4L31.4,7.1L19.6,7.1L19.6,7.5L19.4,7.5L19.4,6.9L31.6,6.9L31.6,7.4L54,7.4L54,7.6L24.6,7.6L24.6,8.1L21.1,8.1L21.1,9L20.9,9L20.9,7.9L24.4,7.9L24.4,7.4z" stroke="none"/><path d="M71.9,6.9L71.9,5.6L70.9,5.6L70.9,5.1L70.4,5.1L70.4,4.6L69,4.6L69,4.4L70.6,4.4L70.6,4.9L71.1,4.9L71.1,5.4L72.1,5.4L72.1,6.9L73.9,6.9L73.9,6.4L76.1,6.4L76.1,6.9L90.6,6.9L90.6,7.4L91.5,7.4L91.5,7.6L90.4,7.6L90.4,7.1L75.9,7.1L75.9,6.6L74.1,6.6L74.1,7.1L72.1,7.1L72.1,7.6L71.1,7.6L71.1,8.1L62.6,8.1L62.6,9.1L58.5,9.1L58.5,8.9L62.4,8.9L62.4,7.9L70.9,7.9L70.9,7.4L71.9,7.4L71.9,7.1L70.6,7.1L70.6,7.5L70.4,7.5L70.4,6.9z" stroke="none"/><path d="M25.4,10.4L25.4,9.9L27.9,9.9L27.9,8.9L28.4,8.9L28.4,8.4L34.6,8.4L34.6,9L34.4,9L34.4,8.6L28.6,8.6L28.6,9.1L28.1,9.1L28.1,10.1L25.6,10.1L25.6,10.4L29.4,10.4L29.4,8.9L31.5,8.9L31.5,9.1L29.6,9.1L29.6,10.6L25.6,10.6L25.6,10.9L31.6,10.9L31.6,11.4L32.1,11.4L32.1,11.9L34.5,11.9L34.5,12.1L31.9,12.1L31.9,11.6L31.4,11.6L31.4,11.1L25.4,11.1L25.4,10.6L16.4,10.6L16.4,10.1L15.9,10.1L15.9,9.6L12.6,9.6L12.6,10.1L4.1,10.1L4.1,10.6L3.6,10.6L3.6,11.6L3.1,11.6L3.1,12L2.9,12L2.9,11.4L3.4,11.4L3.4,10.4L3.9,10.4L3.9,9.9L12.4,9.9L12.4,9.4L16.1,9.4L16.1,9.9L16.6,9.9L16.6,10.4z" stroke="none"/><path d="M57.4,5.9L57.4,5.4L65.4,5.4L65.4,4.9L66.9,4.9L66.9,3.9L67.4,3.9L67.4,2.9L74.1,2.9L74.1,3.4L74.6,3.4L74.6,3.9L75.6,3.9L75.6,4.4L76.5,4.4L76.5,4.6L75.4,4.6L75.4,4.1L74.4,4.1L74.4,3.6L73.9,3.6L73.9,3.1L67.6,3.1L67.6,4.1L67.1,4.1L67.1,5.1L65.6,5.1L65.6,5.6L57.6,5.6L57.6,5.9L67.4,5.9L67.4,4.9L67.9,4.9L67.9,3.4L72.1,3.4L72.1,3.9L74.1,3.9L74.1,4.4L75,4.4L75,4.6L73.9,4.6L73.9,4.1L71.9,4.1L71.9,3.6L68.1,3.6L68.1,5.1L67.6,5.1L67.6,6.1L57.6,6.1L57.6,6.6L57.1,6.6L57.1,7.6L56.1,7.6L56.1,8.1L55.6,8.1L55.6,8.6L46.1,8.6L46.1,9.1L43.5,9.1L43.5,8.9L45.9,8.9L45.9,8.4L55.4,8.4L55.4,7.9L55.9,7.9L55.9,7.4L56.9,7.4L56.9,6.4L57.4,6.4L57.4,6.1L36,6.1L36,5.9z" stroke="none"/><path d="M15.1,12L14.9,12L14.9,10.5L15.1,10.5z" stroke="none"/><path d="M39,4.6L39,4.4L45,4.4L45,4.6z" stroke="none"/><path d="M72,12.1L72,11.9L75.9,11.9L75.9,10.4L78,10.4L78,10.6L76.1,10.6L76.1,12.1z" stroke="none"/><path d="M24,6.1L24,5.9L31.5,5.9L31.5,6.1z" stroke="none"/><path d="M51,3.1L51,2.9L58.5,2.9L58.5,3.1z" stroke="none"/><path d="M16.5,4.4L16.5,4.6L11.6,4.6L11.6,6.1L8.1,6.1L8.1,7.1L7.6,7.1L7.6,7.5L7.4,7.5L7.4,6.9L7.9,6.9L7.9,5.9L11.4,5.9L11.4,4.4z" stroke="none"/><path d="M90,4.6L90,4.4L93.6,4.4L93.6,5.4L96.9,5.4L96.9,4.9L100.9,4.9L100.9,4.4L102,4.4L102,4.6L101.1,4.6L101.1,5.1L97.1,5.1L97.1,5.6L93.4,5.6L93.4,4.6z" stroke="none"/><path d="M75,2.9L75,3.1L74.4,3.1L74.4,2.6L62.6,2.6L62.6,3.1L61.5,3.1L61.5,2.9L62.4,2.9L62.4,2.4L74.6,2.4L74.6,2.9z" stroke="none"/><path d="M33,5.9L33,6.1L32.4,6.1L32.4,5.1L24.4,5.1L24.4,4.6L23.4,4.6L23.4,4.1L21.4,4.1L21.4,3.6L20.9,3.6L20.9,3.1L19.5,3.1L19.5,2.9L21.1,2.9L21.1,3.4L21.6,3.4L21.6,3.9L23.6,3.9L23.6,4.4L24.6,4.4L24.6,4.9L32.6,4.9L32.6,5.9z" stroke="none"/><path d="M64.5,12.1L64.5,11.9L70.4,11.9L70.4,10.9L72.9,10.9L72.9,10.4L74.4,10.4L74.4,9.4L80.6,9.4L80.6,9.9L81.1,9.9L81.1,10.5L80.9,10.5L80.9,10.1L80.4,10.1L80.4,9.6L74.6,9.6L74.6,10.6L73.1,10.6L73.1,11.1L70.6,11.1L70.6,12.1z" stroke="none"/><path d="M18,12.1L18,11.9L19.6,11.9L19.6,12.9L35.4,12.9L35.4,12.4L35.9,12.4L35.9,12L36.1,12L36.1,12.6L35.6,12.6L35.6,13.1L19.4,13.1L19.4,12.1z" stroke="none"/><path d="M84.1,12L83.9,12L83.9,11.1L83.4,11.1L83.4,10.6L82.9,10.6L82.9,9.6L82.4,9.6L82.4,9.1L70.6,9.1L70.6,10.1L70.1,10.1L70.1,11.6L66.4,11.6L66.4,10.6L66,10.6L66,10.4L66.6,10.4L66.6,11.4L69.9,11.4L69.9,9.9L70.4,9.9L70.4,8.9L82.6,8.9L82.6,9.4L83.1,9.4L83.1,10.4L83.6,10.4L83.6,10.9L84.1,10.9z" stroke="none"/><path d="M40.5,11.9L40.5,12.1L37.1,12.1L37.1,13.1L36.1,13.1L36.1,13.6L17.9,13.6L17.9,13.1L17.4,13.1L17.4,12.6L16.9,12.6L16.9,11.4L17.4,11.4L17.4,10.9L19.6,10.9L19.6,11.4L21.1,11.4L21.1,12L20.9,12L20.9,11.6L19.4,11.6L19.4,11.1L17.6,11.1L17.6,11.6L17.1,11.6L17.1,12.4L17.6,12.4L17.6,12.9L18.1,12.9L18.1,13.4L35.9,13.4L35.9,12.9L36.9,12.9L36.9,11.9z" stroke="none"/><path d="M25.5,2.9L25.5,3.1L21.9,3.1L21.9,2.6L19.9,2.6L19.9,2.1L6.6,2.1L6.6,3.1L6.1,3.1L6.1,4.5L5.9,4.5L5.9,2.9L6.4,2.9L6.4,1.9L20.1,1.9L20.1,2.4L22.1,2.4L22.1,2.9z" stroke="none"/><path d="M100.5,8.9L100.5,9.1L93.6,9.1L93.6,9.6L89.1,9.6L89.1,11.1L88.6,11.1L88.6,11.6L88.1,11.6L88.1,12.1L86.6,12.1L86.6,13.1L82.4,13.1L82.4,12.6L80.9,12.6L80.9,12L81.1,12L81.1,12.4L82.6,12.4L82.6,12.9L86.4,12.9L86.4,11.9L87.9,11.9L87.9,11.4L88.4,11.4L88.4,10.9L88.9,10.9L88.9,9.4L93.4,9.4L93.4,8.9z" stroke="none"/><path d="M99,3.1L99,2.9L102.1,2.9L102.1,3.4L102.6,3.4L102.6,3.9L103.1,3.9L103.1,9.6L102.6,9.6L102.6,10.1L92.6,10.1L92.6,10.6L92.1,10.6L92.1,12.1L91.6,12.1L91.6,12.6L91.1,12.6L91.1,13.1L90.6,13.1L90.6,13.6L48.4,13.6L48.4,12.1L47.4,12.1L47.4,11.6L46.9,11.6L46.9,9.9L47.4,9.9L47.4,9.4L52.6,9.4L52.6,9.9L64.4,9.9L64.4,8.9L69.9,8.9L69.9,8.4L73.9,8.4L73.9,7.4L75,7.4L75,7.6L74.1,7.6L74.1,8.6L70.1,8.6L70.1,9.1L64.6,9.1L64.6,10.1L52.4,10.1L52.4,9.6L47.6,9.6L47.6,10.1L47.1,10.1L47.1,11.4L47.6,11.4L47.6,11.9L48.6,11.9L48.6,13.4L90.4,13.4L90.4,12.9L90.9,12.9L90.9,12.4L91.4,12.4L91.4,11.9L91.9,11.9L91.9,10.4L92.4,10.4L92.4,9.9L102.4,9.9L102.4,9.4L102.9,9.4L102.9,4.1L102.4,4.1L102.4,3.6L101.9,3.6L101.9,3.1z" stroke="none"/><path d="M91.5,2.9L91.5,3.1L76.9,3.1L76.9,2.6L75.4,2.6L75.4,2.1L60.6,2.1L60.6,3.4L61.1,3.4L61.1,3.9L62.4,3.9L62.4,3.4L64.6,3.4L64.6,4.5L64.4,4.5L64.4,3.6L62.6,3.6L62.6,4.1L60.9,4.1L60.9,3.6L60.4,3.6L60.4,1.9L75.6,1.9L75.6,2.4L77.1,2.4L77.1,2.9z" stroke="none"/><path d="M94.6,4.5L94.4,4.5L94.4,3.6L92.9,3.6L92.9,3.1L92.4,3.1L92.4,2.6L91.9,2.6L91.9,2.1L75.9,2.1L75.9,1.6L60.1,1.6L60.1,3.9L60.6,3.9L60.6,4.4L63,4.4L63,4.6L60.4,4.6L60.4,4.1L59.9,4.1L59.9,1.4L76.1,1.4L76.1,1.9L92.1,1.9L92.1,2.4L92.6,2.4L92.6,2.9L93.1,2.9L93.1,3.4L94.6,3.4z" stroke="none"/><path d="M48,10.6L48,10.4L48.6,10.4L48.6,11.4L58.1,11.4L58.1,11.9L59.1,11.9L59.1,12.4L59.6,12.4L59.6,12.9L78.9,12.9L78.9,11.9L79.5,11.9L79.5,12.1L79.1,12.1L79.1,13.1L59.4,13.1L59.4,12.6L58.9,12.6L58.9,12.1L57.9,12.1L57.9,11.6L48.4,11.6L48.4,10.6z" stroke="none"/><path d="M10.5,4.4L10.5,4.6L7.6,4.6L7.6,6.1L7.1,6.1L7.1,6.6L6.6,6.6L6.6,7.1L4.9,7.1L4.9,2.4L5.4,2.4L5.4,1.9L5.9,1.9L5.9,1.4L42.6,1.4L42.6,2.9L43.5,2.9L43.5,3.1L42.4,3.1L42.4,1.6L6.1,1.6L6.1,2.1L5.6,2.1L5.6,2.6L5.1,2.6L5.1,6.9L6.4,6.9L6.4,6.4L6.9,6.4L6.9,5.9L7.4,5.9L7.4,4.4z" stroke="none"/><path d="M12,8.9L12,9.1L5.4,9.1L5.4,8.6L4.9,8.6L4.9,8.1L4.4,8.1L4.4,1.9L4.9,1.9L4.9,1.4L5.4,1.4L5.4,0.9L43.6,0.9L43.6,1.4L44.6,1.4L44.6,2.9L45.1,2.9L45.1,3.4L45.6,3.4L45.6,3.9L46.1,3.9L46.1,4.4L46.5,4.4L46.5,4.6L45.9,4.6L45.9,4.1L45.4,4.1L45.4,3.6L44.9,3.6L44.9,3.1L44.4,3.1L44.4,1.6L43.4,1.6L43.4,1.1L5.6,1.1L5.6,1.6L5.1,1.6L5.1,2.1L4.6,2.1L4.6,7.9L5.1,7.9L5.1,8.4L5.6,8.4L5.6,8.9z" stroke="none"/><path d="M3.1,3L2.9,3L2.9,2.4L3.4,2.4L3.4,1.4L4.4,1.4L4.4,0.9L4.9,0.9L4.9,0.4L44.1,0.4L44.1,0.9L46.1,0.9L46.1,1.4L46.6,1.4L46.6,3.4L47.1,3.4L47.1,3.9L47.6,3.9L47.6,5.1L47.1,5.1L47.1,5.6L37.9,5.6L37.9,3.9L38.4,3.9L38.4,3.4L39.4,3.4L39.4,2.9L40.5,2.9L40.5,3.1L39.6,3.1L39.6,3.6L38.6,3.6L38.6,4.1L38.1,4.1L38.1,5.4L46.9,5.4L46.9,4.9L47.4,4.9L47.4,4.1L46.9,4.1L46.9,3.6L46.4,3.6L46.4,1.6L45.9,1.6L45.9,1.1L43.9,1.1L43.9,0.6L5.1,0.6L5.1,1.1L4.6,1.1L4.6,1.6L3.6,1.6L3.6,2.6L3.1,2.6z" stroke="none"/><path d="M43.5,10.4L43.5,10.6L38.9,10.6L38.9,9.6L36.4,9.6L36.4,9.1L35.9,9.1L35.9,8.6L35.4,8.6L35.4,8.1L25.1,8.1L25.1,9.1L22.1,9.1L22.1,9.6L21.6,9.6L21.6,10.1L20.4,10.1L20.4,9.6L19.9,9.6L19.9,9.1L19.4,9.1L19.4,8.6L18.9,8.6L18.9,8.1L18.4,8.1L18.4,5.6L17.4,5.6L17.4,4.1L16.9,4.1L16.9,3.6L10.1,3.6L10.1,4.1L7.1,4.1L7.1,5.1L6.6,5.1L6.6,6.1L6,6.1L6,5.9L6.4,5.9L6.4,4.9L6.9,4.9L6.9,3.9L9.9,3.9L9.9,3.4L17.1,3.4L17.1,3.9L17.6,3.9L17.6,5.4L18.6,5.4L18.6,7.9L19.1,7.9L19.1,8.4L19.6,8.4L19.6,8.9L20.1,8.9L20.1,9.4L20.6,9.4L20.6,9.9L21.4,9.9L21.4,9.4L21.9,9.4L21.9,8.9L24.9,8.9L24.9,7.9L35.6,7.9L35.6,8.4L36.1,8.4L36.1,8.9L36.6,8.9L36.6,9.4L39.1,9.4L39.1,10.4z" stroke="none"/><path d="M58.4,7.5L58.6,7.5L58.6,8.1L57.6,8.1L57.6,8.6L56.1,8.6L56.1,9.1L46.6,9.1L46.6,9.6L45.6,9.6L45.6,10.6L45.1,10.6L45.1,11.1L44.6,11.1L44.6,11.6L41.6,11.6L41.6,13.1L38.6,13.1L38.6,13.6L37.1,13.6L37.1,14.1L17.4,14.1L17.4,13.6L15.4,13.6L15.4,13.1L13.4,13.1L13.4,12L13.6,12L13.6,12.9L15.6,12.9L15.6,13.4L17.6,13.4L17.6,13.9L36.9,13.9L36.9,13.4L38.4,13.4L38.4,12.9L41.4,12.9L41.4,11.4L44.4,11.4L44.4,10.9L44.9,10.9L44.9,10.4L45.4,10.4L45.4,9.4L46.4,9.4L46.4,8.9L55.9,8.9L55.9,8.4L57.4,8.4L57.4,7.9L58.4,7.9z" stroke="none"/></svg>