<svg version="1.1" width="30" height="15" xmlns="http://www.w3.org/2000/svg"><path d="M28.4,8.258578643762691L28.4,7.54142135623731L27.958578643762692,7.1L26.541421356237308,7.1L26.041421356237308,7.6L25.5,7.6L25.5,7.4L25.958578643762692,7.4L26.458578643762692,6.9L28.041421356237308,6.9L28.6,7.45857864376269L28.6,8.54142135623731L28.1,9.04142135623731L28.1,9.54142135623731L27.070710678118655,10.570710678118655L26.929289321881345,10.429289321881345L27.9,9.45857864376269L27.9,8.95857864376269L28.35857864376269,8.5L27.958578643762692,8.1L27.458578643762692,8.1L26.929289321881345,7.570710678118655L27.070710678118655,7.429289321881345L27.541421356237308,7.9L28.041421356237308,7.9z" stroke="none"/><path d="M16.041421356237308,8.4L17.458578643762692,8.4L17.958578643762692,7.9L19.458578643762692,7.9L19.958578643762692,7.4L21,7.4L21,7.6L20.041421356237308,7.6L19.541421356237308,8.1L18.041421356237308,8.1L17.541421356237308,8.6L15.95857864376269,8.6L15,7.641421356237309L14.54142135623731,8.1L13.54142135623731,8.1L12.54142135623731,9.1L12,9.1L12,8.9L12.45857864376269,8.9L13.45857864376269,7.9L14.45857864376269,7.9L14.85857864376269,7.5L11.929289321881345,4.570710678118655L12.070710678118655,4.429289321881345z" stroke="none"/><path d="M10.4,9.4L10.4,9.04142135623731L9.45857864376269,8.1L9.04142135623731,8.1L8.6,8.54142135623731L8.6,9.54142135623731L6.070710678118655,12.070710678118655L5.929289321881345,11.929289321881345L8.4,9.45857864376269L8.4,8.45857864376269L8.95857864376269,7.9L9.54142135623731,7.9L10.6,8.95857864376269L10.6,9.4L11.04142135623731,9.4L11.54142135623731,9.9L12.45857864376269,9.9L12.95857864376269,9.4L17.958578643762692,9.4L18.458578643762692,8.9L20.958578643762692,8.9L21.9,7.95857864376269L21.9,7.04142135623731L21.458578643762692,6.6L20.541421356237308,6.6L20.041421356237308,7.1L17.041421356237308,7.1L16.570710678118655,7.570710678118655L16.429289321881345,7.429289321881345L16.958578643762692,6.9L19.958578643762692,6.9L20.458578643762692,6.4L21.541421356237308,6.4L22.1,6.95857864376269L22.1,8.04142135623731L21.041421356237308,9.1L18.541421356237308,9.1L18.041421356237308,9.6L13.04142135623731,9.6L12.54142135623731,10.1L11.45857864376269,10.1L10.95857864376269,9.6L10.6,9.6L10.6,10.04142135623731L10.04142135623731,10.6L9,10.6L9,10.4L9.95857864376269,10.4L10.4,9.95857864376269L10.4,9.6L9.95857864376269,9.6L9.45857864376269,9.1L9,9.1L9,8.9L9.54142135623731,8.9L10.04142135623731,9.4z" stroke="none"/><path d="M6.4,4.9L6.4,4.54142135623731L5.95857864376269,4.1L3.9585786437626904,4.1L2.9292893218813454,3.0707106781186546L3.0707106781186546,2.9292893218813454L4.04142135623731,3.9L6.04142135623731,3.9L6.6,4.45857864376269L6.6,4.9L7.95857864376269,4.9L8.45857864376269,4.4L9.45857864376269,4.4L10.45857864376269,3.4L12.54142135623731,3.4L15.070710678118655,5.929289321881345L14.929289321881345,6.070710678118655L12.45857864376269,3.6L10.54142135623731,3.6L9.54142135623731,4.6L8.54142135623731,4.6L8.04142135623731,5.1L6.6,5.1L6.6,5.54142135623731L4.570710678118655,7.570710678118655L4.429289321881345,7.429289321881345L6.4,5.45857864376269L6.4,5.1L4.95857864376269,5.1L4.429289321881345,4.570710678118655L4.570710678118655,4.429289321881345L5.04142135623731,4.9z" stroke="none"/><path d="M21,11.9L21,12.1L19.5,12.1L19.5,11.9z" stroke="none"/><path d="M7.4,6L7.6,6L7.6,7.5L7.4,7.5z" stroke="none"/><path d="M18,11.9L18,12.1L16.5,12.1L16.5,11.9z" stroke="none"/><path d="M25.429289321881345,3.0707106781186546L25.570710678118655,2.9292893218813454L27.070710678118655,4.429289321881345L26.929289321881345,4.570710678118655z" stroke="none"/><path d="M4.5,3.1L4.5,2.9L7.5,2.9L7.5,3.1z" stroke="none"/><path d="M7.5,8.9L7.5,9.1L5.54142135623731,9.1L5.04142135623731,9.6L4.04142135623731,9.6L3.0707106781186546,10.570710678118655L2.9292893218813454,10.429289321881345L3.9585786437626904,9.4L4.95857864376269,9.4L5.45857864376269,8.9z" stroke="none"/><path d="M16.570710678118655,6.070710678118655L16.429289321881345,5.929289321881345L18.958578643762692,3.4L19.458578643762692,3.4L19.958578643762692,2.9L21,2.9L21,3.1L20.041421356237308,3.1L19.541421356237308,3.6L19.041421356237308,3.6z" stroke="none"/><path d="M26.929289321881345,8.929289321881345L27.070710678118655,9.070710678118655L24.541421356237308,11.6L23.541421356237308,11.6L23.041421356237308,12.1L22.5,12.1L22.5,11.9L22.958578643762692,11.9L23.458578643762692,11.4L24.458578643762692,11.4z" stroke="none"/><path d="M21,10.4L21,10.6L15,10.6L15,10.4z" stroke="none"/><path d="M15,4.6L15,4.4L15.95857864376269,4.4L16.458578643762692,3.9L16.958578643762692,3.9L17.958578643762692,2.9L18.958578643762692,2.9L19.458578643762692,2.4L19.958578643762692,2.4L20.458578643762692,1.9L21.541421356237308,1.9L22.1,2.4585786437626904L22.1,3.5414213562373096L21.070710678118655,4.570710678118655L20.929289321881345,4.429289321881345L21.9,3.4585786437626904L21.9,2.5414213562373096L21.458578643762692,2.1L20.541421356237308,2.1L20.041421356237308,2.6L19.541421356237308,2.6L19.041421356237308,3.1L18.041421356237308,3.1L17.041421356237308,4.1L16.541421356237308,4.1L16.041421356237308,4.6z" stroke="none"/><path d="M10.5,11.9L10.5,12.1L9.04142135623731,12.1L8.54142135623731,12.6L8.04142135623731,12.6L7.54142135623731,13.1L5.45857864376269,13.1L4.9,12.54142135623731L4.9,11.04142135623731L4.429289321881345,10.570710678118655L4.570710678118655,10.429289321881345L5.1,10.95857864376269L5.1,12.45857864376269L5.54142135623731,12.9L7.45857864376269,12.9L7.95857864376269,12.4L8.45857864376269,12.4L8.95857864376269,11.9z" stroke="none"/><path d="M22.6,4.5L22.4,4.5L22.4,2.0414213562373096L21.958578643762692,1.6L19.541421356237308,1.6L19.041421356237308,2.1L18.541421356237308,2.1L18.041421356237308,2.6L17.041421356237308,2.6L16.570710678118655,3.0707106781186546L16.429289321881345,2.9292893218813454L16.958578643762692,2.4L17.958578643762692,2.4L18.458578643762692,1.9L18.958578643762692,1.9L19.458578643762692,1.4L22.041421356237308,1.4L22.6,1.9585786437626904z" stroke="none"/><path d="M24.1,10.5L23.9,10.5L23.9,9.54142135623731L23.4,9.04142135623731L23.4,8.54142135623731L22.4,7.54142135623731L22.4,6.54142135623731L21.958578643762692,6.1L19.5,6.1L19.5,5.9L22.041421356237308,5.9L22.6,6.45857864376269L22.6,7.45857864376269L23.6,8.45857864376269L23.6,8.95857864376269L24.1,9.45857864376269z" stroke="none"/><path d="M25.570710678118655,8.929289321881345L25.429289321881345,9.070710678118655L23.9,7.54142135623731L23.9,7.04142135623731L22.458578643762692,5.6L20.458578643762692,5.6L19.429289321881345,4.570710678118655L19.570710678118655,4.429289321881345L20.541421356237308,5.4L22.541421356237308,5.4L24.1,6.95857864376269L24.1,7.45857864376269z" stroke="none"/><path d="M2.9292893218813454,7.429289321881345L3.0707106781186546,7.570710678118655L2.6,8.04142135623731L2.6,8.54142135623731L2.1,9.04142135623731L2.1,10.95857864376269L4.04142135623731,12.9L4.54142135623731,12.9L5.04142135623731,13.4L9.95857864376269,13.4L10.45857864376269,12.9L10.95857864376269,12.9L13.429289321881345,10.429289321881345L13.570710678118655,10.570710678118655L11.04142135623731,13.1L10.54142135623731,13.1L10.04142135623731,13.6L4.95857864376269,13.6L4.45857864376269,13.1L3.9585786437626904,13.1L1.9,11.04142135623731L1.9,8.95857864376269L2.4,8.45857864376269L2.4,7.95857864376269z" stroke="none"/><path d="M25.570710678118655,5.929289321881345L25.429289321881345,6.070710678118655L24.9,5.54142135623731L24.9,4.54142135623731L24.4,4.04142135623731L24.4,3.5414213562373096L22.9,2.0414213562373096L22.9,1.5414213562373096L22.458578643762692,1.1L19.041421356237308,1.1L18.541421356237308,1.6L18.041421356237308,1.6L17.541421356237308,2.1L16.041421356237308,2.1L15.070710678118655,3.0707106781186546L14.929289321881345,2.9292893218813454L15.95857864376269,1.9L17.458578643762692,1.9L17.958578643762692,1.4L18.458578643762692,1.4L18.958578643762692,0.9L22.541421356237308,0.9L23.1,1.4585786437626904L23.1,1.9585786437626904L24.6,3.4585786437626904L24.6,3.9585786437626904L25.1,4.45857864376269L25.1,5.45857864376269z" stroke="none"/></svg>