<svg version="1.1" width="30" height="15" xmlns="http://www.w3.org/2000/svg"><path d="M23.958578643762692,11.9L25.429289321881345,10.429289321881345L25.570710678118655,10.570710678118655L24.1,12.04142135623731L24.1,12.54142135623731L23.541421356237308,13.1L22.458578643762692,13.1L21.458578643762692,12.1L19.5,12.1L19.5,11.9L21.541421356237308,11.9L22.541421356237308,12.9L23.458578643762692,12.9L23.9,12.45857864376269L23.9,12.1L22.5,12.1L22.5,11.9z" stroke="none"/><path d="M24.5,5.858578643762691L24.958578643762692,5.4L25.958578643762692,5.4L26.929289321881345,4.429289321881345L27.070710678118655,4.570710678118655L26.041421356237308,5.6L25.041421356237308,5.6L24.64142135623731,6L26.1,7.45857864376269L26.1,7.95857864376269L27.070710678118655,8.929289321881345L26.929289321881345,9.070710678118655L25.9,8.04142135623731L25.9,7.54142135623731L22.458578643762692,4.1L21.958578643762692,4.1L21.458578643762692,3.6L20.541421356237308,3.6L19.570710678118655,4.570710678118655L19.429289321881345,4.429289321881345L20.458578643762692,3.4L21.541421356237308,3.4L22.041421356237308,3.9L22.541421356237308,3.9z" stroke="none"/><path d="M15.4,6.9L15.4,6.54142135623731L14.45857864376269,5.6L13.04142135623731,5.6L10.54142135623731,8.1L10.04142135623731,8.1L9.070710678118655,9.070710678118655L8.929289321881345,8.929289321881345L9.95857864376269,7.9L10.45857864376269,7.9L12.95857864376269,5.4L14.54142135623731,5.4L15.6,6.45857864376269L15.6,6.9L17.958578643762692,6.9L18.958578643762692,5.9L19.5,5.9L19.5,6.1L19.041421356237308,6.1L18.041421356237308,7.1L15.6,7.1L15.6,7.45857864376269L16.041421356237308,7.9L17.958578643762692,7.9L18.458578643762692,7.4L21,7.4L21,7.6L18.541421356237308,7.6L18.041421356237308,8.1L15.95857864376269,8.1L15.4,7.54142135623731L15.4,7.1L14.95857864376269,7.1L13.95857864376269,6.1L13.5,6.1L13.5,5.9L14.04142135623731,5.9L15.04142135623731,6.9z" stroke="none"/><path d="M10.9,4.4L10.9,3.9585786437626904L11.95857864376269,2.9L12.45857864376269,2.9L12.95857864376269,2.4L13.95857864376269,2.4L14.45857864376269,1.9L15.04142135623731,1.9L15.6,2.4585786437626904L15.6,3.9585786437626904L16.1,4.45857864376269L16.1,5.45857864376269L16.570710678118655,5.929289321881345L16.429289321881345,6.070710678118655L15.9,5.54142135623731L15.9,4.54142135623731L15.4,4.04142135623731L15.4,2.5414213562373096L14.95857864376269,2.1L14.54142135623731,2.1L14.04142135623731,2.6L13.04142135623731,2.6L12.54142135623731,3.1L12.04142135623731,3.1L11.1,4.04142135623731L11.1,4.4L11.45857864376269,4.4L11.95857864376269,3.9L12.45857864376269,3.9L12.95857864376269,3.4L13.45857864376269,3.4L13.95857864376269,2.9L15,2.9L15,3.1L14.04142135623731,3.1L13.54142135623731,3.6L13.04142135623731,3.6L12.54142135623731,4.1L12.04142135623731,4.1L11.54142135623731,4.6L11.1,4.6L11.1,5.04142135623731L9.1,7.04142135623731L9.1,7.5L8.9,7.5L8.9,6.95857864376269L10.9,4.95857864376269L10.9,4.6L6.95857864376269,4.6L5.95857864376269,3.6L4.95857864376269,3.6L4.429289321881345,3.0707106781186546L4.570710678118655,2.9292893218813454L5.04142135623731,3.4L6.04142135623731,3.4L7.04142135623731,4.4z" stroke="none"/><path d="M3.1,12L2.9,12L2.9,10.5L3.1,10.5z" stroke="none"/><path d="M23.929289321881345,8.929289321881345L24.070710678118655,9.070710678118655L22.570710678118655,10.570710678118655L22.429289321881345,10.429289321881345z" stroke="none"/><path d="M22.570710678118655,5.929289321881345L22.429289321881345,6.070710678118655L20.929289321881345,4.570710678118655L21.070710678118655,4.429289321881345z" stroke="none"/><path d="M4.570710678118655,12.070710678118655L4.429289321881345,11.929289321881345L5.929289321881345,10.429289321881345L6.070710678118655,10.570710678118655z" stroke="none"/><path d="M6.070710678118655,12.070710678118655L5.929289321881345,11.929289321881345L7.429289321881345,10.429289321881345L7.570710678118655,10.570710678118655z" stroke="none"/><path d="M10.429289321881345,10.429289321881345L10.570710678118655,10.570710678118655L10.04142135623731,11.1L9.04142135623731,11.1L8.04142135623731,12.1L7.5,12.1L7.5,11.9L7.95857864376269,11.9L8.95857864376269,10.9L9.95857864376269,10.9z" stroke="none"/><path d="M25.570710678118655,4.429289321881345L25.429289321881345,4.570710678118655L24.958578643762692,4.1L24.458578643762692,4.1L23.958578643762692,3.6L23.458578643762692,3.6L22.958578643762692,3.1L22.5,3.1L22.5,2.9L23.041421356237308,2.9L23.541421356237308,3.4L24.041421356237308,3.4L24.541421356237308,3.9L25.041421356237308,3.9z" stroke="none"/><path d="M4.570710678118655,5.929289321881345L4.429289321881345,6.070710678118655L1.9,3.5414213562373096L1.9,2.4585786437626904L2.4585786437626904,1.9L6.04142135623731,1.9L7.04142135623731,2.9L7.5,2.9L7.5,3.1L6.95857864376269,3.1L5.95857864376269,2.1L2.5414213562373096,2.1L2.1,2.5414213562373096L2.1,3.4585786437626904z" stroke="none"/><path d="M6.070710678118655,5.929289321881345L5.929289321881345,6.070710678118655L2.9292893218813454,3.0707106781186546L3.0707106781186546,2.9292893218813454z" stroke="none"/><path d="M18,11.9L18,12.1L16.458578643762692,12.1L14.95857864376269,10.6L13.5,10.6L13.5,10.4L15.04142135623731,10.4L16.541421356237308,11.9z" stroke="none"/><path d="M11.9,9L12.1,9L12.1,9.54142135623731L11.6,10.04142135623731L11.6,11.04142135623731L10.54142135623731,12.1L9.04142135623731,12.1L8.04142135623731,13.1L2.4585786437626904,13.1L1.9,12.54142135623731L1.9,9.95857864376269L2.9585786437626904,8.9L4.45857864376269,8.9L4.95857864376269,8.4L6.45857864376269,8.4L7.429289321881345,7.429289321881345L7.570710678118655,7.570710678118655L6.54142135623731,8.6L5.04142135623731,8.6L4.54142135623731,9.1L3.0414213562373096,9.1L2.1,10.04142135623731L2.1,12.45857864376269L2.5414213562373096,12.9L7.95857864376269,12.9L8.95857864376269,11.9L10.45857864376269,11.9L11.4,10.95857864376269L11.4,9.95857864376269L11.9,9.45857864376269z" stroke="none"/><path d="M10.5,3.1L10.5,2.9L10.95857864376269,2.9L11.45857864376269,2.4L11.95857864376269,2.4L12.45857864376269,1.9L12.95857864376269,1.9L13.45857864376269,1.4L15.54142135623731,1.4L16.1,1.9585786437626904L16.1,2.4585786437626904L16.570710678118655,2.9292893218813454L16.429289321881345,3.0707106781186546L15.9,2.5414213562373096L15.9,2.0414213562373096L15.45857864376269,1.6L13.54142135623731,1.6L13.04142135623731,2.1L12.54142135623731,2.1L12.04142135623731,2.6L11.54142135623731,2.6L11.04142135623731,3.1z" stroke="none"/><path d="M18,9.1L18,8.9L19.958578643762692,8.9L20.458578643762692,8.4L21.458578643762692,8.4L21.958578643762692,7.9L24.541421356237308,7.9L25.1,8.45857864376269L25.1,9.54142135623731L24.070710678118655,10.570710678118655L23.929289321881345,10.429289321881345L24.9,9.45857864376269L24.9,8.54142135623731L24.458578643762692,8.1L22.041421356237308,8.1L21.541421356237308,8.6L20.541421356237308,8.6L20.041421356237308,9.1z" stroke="none"/><path d="M20.929289321881345,6.070710678118655L21.070710678118655,5.929289321881345L22.041421356237308,6.9L23.041421356237308,6.9L23.541421356237308,7.4L25.041421356237308,7.4L25.6,7.95857864376269L25.6,8.45857864376269L26.1,8.95857864376269L26.1,9.45857864376269L26.541421356237308,9.9L27.458578643762692,9.9L27.9,9.45857864376269L27.9,4.04142135623731L26.929289321881345,3.0707106781186546L27.070710678118655,2.9292893218813454L28.1,3.9585786437626904L28.1,9.54142135623731L27.541421356237308,10.1L26.458578643762692,10.1L25.9,9.54142135623731L25.9,9.04142135623731L25.4,8.54142135623731L25.4,8.04142135623731L24.958578643762692,7.6L23.458578643762692,7.6L22.958578643762692,7.1L21.958578643762692,7.1z" stroke="none"/><path d="M15,11.9L15,12.1L11.54142135623731,12.1L11.04142135623731,12.6L9.54142135623731,12.6L8.54142135623731,13.6L1.9585786437626904,13.6L1.4,13.04142135623731L1.4,9.45857864376269L2.4585786437626904,8.4L3.4585786437626904,8.4L3.9585786437626904,7.9L4.95857864376269,7.9L5.45857864376269,7.4L6,7.4L6,7.6L5.54142135623731,7.6L5.04142135623731,8.1L4.04142135623731,8.1L3.5414213562373096,8.6L2.5414213562373096,8.6L1.6,9.54142135623731L1.6,12.95857864376269L2.0414213562373096,13.4L8.45857864376269,13.4L9.45857864376269,12.4L10.95857864376269,12.4L11.45857864376269,11.9z" stroke="none"/><path d="M22.5,8.9L22.5,9.1L21.041421356237308,9.1L20.541421356237308,9.6L19.041421356237308,9.6L18.541421356237308,10.1L15.45857864376269,10.1L13.95857864376269,8.6L13.45857864376269,8.6L12.95857864376269,8.1L11.54142135623731,8.1L10.570710678118655,9.070710678118655L10.429289321881345,8.929289321881345L11.45857864376269,7.9L13.04142135623731,7.9L13.54142135623731,8.4L14.04142135623731,8.4L15.54142135623731,9.9L18.458578643762692,9.9L18.958578643762692,9.4L20.458578643762692,9.4L20.958578643762692,8.9z" stroke="none"/></svg>