<svg version="1.1" width="30" height="15" xmlns="http://www.w3.org/2000/svg"><path d="M11.54142135623731,8.9L12.95857864376269,8.9L13.45857864376269,8.4L13.95857864376269,8.4L14.45857864376269,7.9L15.54142135623731,7.9L18.070710678118655,10.429289321881345L17.929289321881345,10.570710678118655L15.45857864376269,8.1L14.54142135623731,8.1L14.04142135623731,8.6L13.54142135623731,8.6L13.04142135623731,9.1L11.04142135623731,9.1L10.04142135623731,10.1L9.04142135623731,10.1L8.54142135623731,10.6L7.5,10.6L7.5,10.4L8.45857864376269,10.4L8.95857864376269,9.9L9.95857864376269,9.9L10.95857864376269,8.9L11.258578643762691,8.9L10.95857864376269,8.6L9.95857864376269,8.6L8.929289321881345,7.570710678118655L9.070710678118655,7.429289321881345L10.04142135623731,8.4L11.04142135623731,8.4z" stroke="none"/><path d="M19.9,4.25857864376269L19.9,3.5414213562373096L19.458578643762692,3.1L16.5,3.1L16.5,2.9L19.541421356237308,2.9L20.1,3.4585786437626904L20.1,4.4L20.458578643762692,4.4L21.458578643762692,3.4L23.041421356237308,3.4L24.541421356237308,4.9L25.041421356237308,4.9L25.541421356237308,5.4L26.041421356237308,5.4L26.541421356237308,5.9L27,5.9L27,6.1L26.458578643762692,6.1L25.958578643762692,5.6L25.458578643762692,5.6L24.958578643762692,5.1L24.458578643762692,5.1L22.958578643762692,3.6L21.541421356237308,3.6L20.541421356237308,4.6L19.958578643762692,4.6L19.458578643762692,4.1L18.958578643762692,4.1L18.458578643762692,3.6L17.541421356237308,3.6L16.570710678118655,4.570710678118655L16.429289321881345,4.429289321881345L17.458578643762692,3.4L18.541421356237308,3.4L19.041421356237308,3.9L19.541421356237308,3.9z" stroke="none"/><path d="M14.9,5.95857864376269L14.9,4.5L15.1,4.5L15.1,5.9L22.5,5.9L22.5,6.1L15.1,6.1L15.1,7.04142135623731L14.54142135623731,7.6L10.5,7.6L10.5,7.4L14.45857864376269,7.4L14.9,6.95857864376269L14.9,6.24142135623731L14.04142135623731,7.1L12.95857864376269,7.1L12.4,6.54142135623731L12.4,5.45857864376269L12.9,4.95857864376269L12.9,4.04142135623731L11.929289321881345,3.0707106781186546L12.070710678118655,2.9292893218813454L13.1,3.9585786437626904L13.1,5.04142135623731L12.6,5.54142135623731L12.6,6.45857864376269L13.04142135623731,6.9L13.95857864376269,6.9z" stroke="none"/><path d="M9.4,5.25857864376269L9.4,4.95857864376269L10.9,3.4585786437626904L10.9,2.4585786437626904L11.45857864376269,1.9L23.041421356237308,1.9L23.541421356237308,2.4L24.541421356237308,2.4L27.041421356237308,4.9L27.541421356237308,4.9L28.1,5.45857864376269L28.1,6.54142135623731L27.541421356237308,7.1L17.541421356237308,7.1L17.041421356237308,7.6L16.5,7.6L16.5,7.4L16.958578643762692,7.4L17.458578643762692,6.9L27.458578643762692,6.9L27.9,6.45857864376269L27.9,5.54142135623731L27.458578643762692,5.1L26.958578643762692,5.1L24.458578643762692,2.6L23.458578643762692,2.6L22.958578643762692,2.1L11.54142135623731,2.1L11.1,2.5414213562373096L11.1,3.5414213562373096L9.6,5.04142135623731L9.6,5.4L10.45857864376269,5.4L11.45857864376269,4.4L12,4.4L12,4.6L11.54142135623731,4.6L10.54142135623731,5.6L9.54142135623731,5.6L9.04142135623731,6.1L8.54142135623731,6.1L8.04142135623731,6.6L7.04142135623731,6.6L6.070710678118655,7.570710678118655L5.929289321881345,7.429289321881345L6.95857864376269,6.4L7.95857864376269,6.4L8.45857864376269,5.9L8.95857864376269,5.9L9.35857864376269,5.5L8.95857864376269,5.1L8.45857864376269,5.1L7.95857864376269,4.6L6.95857864376269,4.6L6.45857864376269,4.1L5.45857864376269,4.1L4.429289321881345,3.0707106781186546L4.570710678118655,2.9292893218813454L5.54142135623731,3.9L6.54142135623731,3.9L7.04142135623731,4.4L8.04142135623731,4.4L8.54142135623731,4.9L9.04142135623731,4.9z" stroke="none"/><path d="M19.5,10.6L19.5,10.4L21,10.4L21,10.6z" stroke="none"/><path d="M22.5,10.6L22.5,10.4L24,10.4L24,10.6z" stroke="none"/><path d="M9,12.1L9,11.9L10.5,11.9L10.5,12.1z" stroke="none"/><path d="M19.5,9.1L19.5,8.9L21,8.9L21,9.1z" stroke="none"/><path d="M4.429289321881345,4.429289321881345L4.570710678118655,4.570710678118655L3.0707106781186546,6.070710678118655L2.9292893218813454,5.929289321881345z" stroke="none"/><path d="M13.4,3L13.6,3L13.6,6L13.4,6z" stroke="none"/><path d="M6.070710678118655,2.9292893218813454L5.929289321881345,3.0707106781186546L4.95857864376269,2.1L4.04142135623731,2.1L3.0707106781186546,3.0707106781186546L2.9292893218813454,2.9292893218813454L3.9585786437626904,1.9L5.04142135623731,1.9z" stroke="none"/><path d="M12.070710678118655,10.570710678118655L11.929289321881345,10.429289321881345L12.95857864376269,9.4L13.95857864376269,9.4L14.45857864376269,8.9L15,8.9L15,9.1L14.54142135623731,9.1L14.04142135623731,9.6L13.04142135623731,9.6z" stroke="none"/><path d="M25.429289321881345,10.429289321881345L25.570710678118655,10.570710678118655L24.541421356237308,11.6L23.541421356237308,11.6L23.041421356237308,12.1L22.5,12.1L22.5,11.9L22.958578643762692,11.9L23.458578643762692,11.4L24.458578643762692,11.4z" stroke="none"/><path d="M22.429289321881345,4.429289321881345L22.570710678118655,4.570710678118655L22.041421356237308,5.1L18.958578643762692,5.1L18.458578643762692,4.6L18,4.6L18,4.4L18.541421356237308,4.4L19.041421356237308,4.9L21.958578643762692,4.9z" stroke="none"/><path d="M3.1,12L2.9,12L2.9,11.45857864376269L3.4,10.95857864376269L3.4,10.45857864376269L3.9,9.95857864376269L3.9,9.45857864376269L4.4,8.95857864376269L4.4,7.5L4.6,7.5L4.6,9.04142135623731L4.1,9.54142135623731L4.1,10.04142135623731L3.6,10.54142135623731L3.6,11.04142135623731L3.1,11.54142135623731z" stroke="none"/><path d="M7.429289321881345,7.429289321881345L7.570710678118655,7.570710678118655L5.1,10.04142135623731L5.1,11.54142135623731L4.570710678118655,12.070710678118655L4.429289321881345,11.929289321881345L4.9,11.45857864376269L4.9,9.95857864376269z" stroke="none"/><path d="M5.929289321881345,10.570710678118655L6.070710678118655,10.429289321881345L7.04142135623731,11.4L7.95857864376269,11.4L8.45857864376269,10.9L11.04142135623731,10.9L11.54142135623731,11.4L12.45857864376269,11.4L13.429289321881345,10.429289321881345L13.570710678118655,10.570710678118655L12.54142135623731,11.6L11.45857864376269,11.6L10.95857864376269,11.1L8.54142135623731,11.1L8.04142135623731,11.6L6.95857864376269,11.6z" stroke="none"/><path d="M16.429289321881345,10.570710678118655L16.570710678118655,10.429289321881345L17.541421356237308,11.4L18.541421356237308,11.4L19.041421356237308,11.9L19.541421356237308,11.9L20.541421356237308,12.9L22.958578643762692,12.9L23.458578643762692,12.4L24.958578643762692,12.4L26.4,10.95857864376269L26.4,10.04142135623731L25.429289321881345,9.070710678118655L25.570710678118655,8.929289321881345L26.6,9.95857864376269L26.6,11.04142135623731L25.041421356237308,12.6L23.541421356237308,12.6L23.041421356237308,13.1L20.458578643762692,13.1L19.458578643762692,12.1L18.958578643762692,12.1L18.458578643762692,11.6L17.458578643762692,11.6z" stroke="none"/><path d="M18.070710678118655,9.070710678118655L17.929289321881345,8.929289321881345L18.958578643762692,7.9L26.041421356237308,7.9L26.6,8.45857864376269L26.6,8.95857864376269L27.1,9.45857864376269L27.1,12L26.9,12L26.9,9.54142135623731L26.4,9.04142135623731L26.4,8.54142135623731L25.958578643762692,8.1L19.041421356237308,8.1z" stroke="none"/><path d="M2.9,7.5L3.1,7.5L3.1,10.04142135623731L2.6,10.54142135623731L2.6,11.04142135623731L2.1,11.54142135623731L2.1,12.45857864376269L2.5414213562373096,12.9L11.95857864376269,12.9L13.45857864376269,11.4L13.95857864376269,11.4L14.929289321881345,10.429289321881345L15.070710678118655,10.570710678118655L14.04142135623731,11.6L13.54142135623731,11.6L12.04142135623731,13.1L2.4585786437626904,13.1L1.9,12.54142135623731L1.9,11.45857864376269L2.4,10.95857864376269L2.4,10.45857864376269L2.9,9.95857864376269z" stroke="none"/></svg>