<svg version="1.1" width="30" height="15" xmlns="http://www.w3.org/2000/svg"><path d="M9.95857864376269,10.4L10.95857864376269,9.4L11.45857864376269,9.4L11.929289321881345,8.929289321881345L12.070710678118655,9.070710678118655L11.54142135623731,9.6L11.04142135623731,9.6L10.04142135623731,10.6L9.1,10.6L9.1,12L8.9,12L8.9,10.6L6,10.6L6,10.4z" stroke="none"/><path d="M8.929289321881345,7.429289321881345L9.070710678118655,7.570710678118655L7.641421356237309,9L8.54142135623731,9.9L9.45857864376269,9.9L11.929289321881345,7.429289321881345L12.070710678118655,7.570710678118655L9.54142135623731,10.1L8.45857864376269,10.1L7.5,9.14142135623731L7.04142135623731,9.6L5.54142135623731,9.6L3.0707106781186546,12.070710678118655L2.9292893218813454,11.929289321881345L5.45857864376269,9.4L6.95857864376269,9.4z" stroke="none"/><path d="M18.041421356237308,8.4L18.541421356237308,8.4L19.041421356237308,8.9L19.5,8.9L19.5,9.1L18.958578643762692,9.1L18.458578643762692,8.6L18.1,8.6L18.1,8.95857864376269L18.541421356237308,9.4L20.458578643762692,9.4L20.958578643762692,8.9L24,8.9L24,9.1L21.041421356237308,9.1L20.541421356237308,9.6L18.458578643762692,9.6L17.9,9.04142135623731L17.9,8.6L15.04142135623731,8.6L14.54142135623731,9.1L13.5,9.1L13.5,8.9L14.45857864376269,8.9L14.95857864376269,8.4L17.75857864376269,8.4L17.458578643762692,8.1L16.958578643762692,8.1L16.429289321881345,7.570710678118655L16.570710678118655,7.429289321881345L17.041421356237308,7.9L17.541421356237308,7.9z" stroke="none"/><path d="M20.9,3.9585786437626904L20.9,3.0414213562373096L19.958578643762692,2.1L16.041421356237308,2.1L15.070710678118655,3.0707106781186546L14.929289321881345,2.9292893218813454L15.95857864376269,1.9L20.041421356237308,1.9L21.1,2.9585786437626904L21.1,3.7585786437626902L21.458578643762692,3.4L21.958578643762692,3.4L22.429289321881345,2.9292893218813454L22.570710678118655,3.0707106781186546L22.041421356237308,3.6L21.541421356237308,3.6L21.24142135623731,3.9L22.541421356237308,3.9L24.041421356237308,5.4L25.958578643762692,5.4L26.929289321881345,4.429289321881345L27.070710678118655,4.570710678118655L26.041421356237308,5.6L23.958578643762692,5.6L22.458578643762692,4.1L21.041421356237308,4.1L20.6,4.54142135623731L20.6,5.04142135623731L20.041421356237308,5.6L19.041421356237308,5.6L18.541421356237308,6.1L16.5,6.1L16.5,5.9L18.458578643762692,5.9L18.958578643762692,5.4L19.958578643762692,5.4L20.4,4.95857864376269L20.4,4.45857864376269z" stroke="none"/><path d="M19.4,3L19.6,3L19.6,4.5L19.4,4.5z" stroke="none"/><path d="M18,2.9L18,3.1L16.5,3.1L16.5,2.9z" stroke="none"/><path d="M22.429289321881345,10.429289321881345L22.570710678118655,10.570710678118655L21.070710678118655,12.070710678118655L20.929289321881345,11.929289321881345z" stroke="none"/><path d="M13.429289321881345,10.570710678118655L13.570710678118655,10.429289321881345L15.070710678118655,11.929289321881345L14.929289321881345,12.070710678118655z" stroke="none"/><path d="M4.4,3L4.6,3L4.6,6L4.4,6z" stroke="none"/><path d="M21,10.4L21,10.6L18,10.6L18,10.4z" stroke="none"/><path d="M10.429289321881345,11.929289321881345L10.570710678118655,12.070710678118655L9.54142135623731,13.1L2.4585786437626904,13.1L1.9,12.54142135623731L1.9,11.45857864376269L5.45857864376269,7.9L6.45857864376269,7.9L6.95857864376269,7.4L7.45857864376269,7.4L8.45857864376269,6.4L9.54142135623731,6.4L10.1,6.95857864376269L10.1,8.04142135623731L9.070710678118655,9.070710678118655L8.929289321881345,8.929289321881345L9.9,7.95857864376269L9.9,7.04142135623731L9.45857864376269,6.6L8.54142135623731,6.6L7.54142135623731,7.6L7.04142135623731,7.6L6.54142135623731,8.1L5.54142135623731,8.1L2.1,11.54142135623731L2.1,12.45857864376269L2.5414213562373096,12.9L9.45857864376269,12.9z" stroke="none"/><path d="M8.9,3L9.1,3L9.1,3.5414213562373096L8.6,4.04142135623731L8.6,4.54142135623731L8.1,5.04142135623731L8.1,5.54142135623731L7.570710678118655,6.070710678118655L7.429289321881345,5.929289321881345L7.9,5.45857864376269L7.9,4.95857864376269L8.4,4.45857864376269L8.4,3.9585786437626904L8.9,3.4585786437626904z" stroke="none"/><path d="M25.570710678118655,4.570710678118655L25.429289321881345,4.429289321881345L26.458578643762692,3.4L27.541421356237308,3.4L28.1,3.9585786437626904L28.1,5.04142135623731L27.541421356237308,5.6L27.041421356237308,5.6L26.541421356237308,6.1L22.5,6.1L22.5,5.9L26.458578643762692,5.9L26.958578643762692,5.4L27.458578643762692,5.4L27.9,4.95857864376269L27.9,4.04142135623731L27.458578643762692,3.6L26.541421356237308,3.6z" stroke="none"/><path d="M13.5,4.6L13.5,4.4L18,4.4L18,4.6z" stroke="none"/><path d="M25.5,3.1L25.5,2.9L28.041421356237308,2.9L28.6,3.4585786437626904L28.6,5.54142135623731L28.1,6.04142135623731L28.1,6.54142135623731L27.070710678118655,7.570710678118655L26.929289321881345,7.429289321881345L27.9,6.45857864376269L27.9,5.95857864376269L28.4,5.45857864376269L28.4,3.5414213562373096L27.958578643762692,3.1z" stroke="none"/><path d="M19.429289321881345,12.070710678118655L19.570710678118655,11.929289321881345L20.541421356237308,12.9L21.958578643762692,12.9L22.458578643762692,12.4L23.958578643762692,12.4L24.458578643762692,11.9L24.958578643762692,11.9L25.958578643762692,10.9L26.458578643762692,10.9L26.929289321881345,10.429289321881345L27.070710678118655,10.570710678118655L26.541421356237308,11.1L26.041421356237308,11.1L25.041421356237308,12.1L24.541421356237308,12.1L24.041421356237308,12.6L22.541421356237308,12.6L22.041421356237308,13.1L20.458578643762692,13.1z" stroke="none"/><path d="M20.929289321881345,6.070710678118655L21.070710678118655,5.929289321881345L22.041421356237308,6.9L22.958578643762692,6.9L23.458578643762692,6.4L24.541421356237308,6.4L26.541421356237308,8.4L27.458578643762692,8.4L27.9,7.95857864376269L27.9,7.45857864376269L28.4,6.95857864376269L28.4,6.45857864376269L28.9,5.95857864376269L28.9,3.0414213562373096L28.458578643762692,2.6L26.458578643762692,2.6L25.958578643762692,2.1L22.458578643762692,2.1L21.958578643762692,1.6L14.04142135623731,1.6L13.54142135623731,2.1L13.04142135623731,2.1L12.070710678118655,3.0707106781186546L11.929289321881345,2.9292893218813454L12.95857864376269,1.9L13.45857864376269,1.9L13.95857864376269,1.4L22.041421356237308,1.4L22.541421356237308,1.9L26.041421356237308,1.9L26.541421356237308,2.4L28.541421356237308,2.4L29.1,2.9585786437626904L29.1,6.04142135623731L28.6,6.54142135623731L28.6,7.04142135623731L28.1,7.54142135623731L28.1,8.04142135623731L27.541421356237308,8.6L26.458578643762692,8.6L24.458578643762692,6.6L23.541421356237308,6.6L23.041421356237308,7.1L21.958578643762692,7.1z" stroke="none"/><path d="M14.929289321881345,10.570710678118655L15.070710678118655,10.429289321881345L16.1,11.45857864376269L16.1,12.54142135623731L15.54142135623731,13.1L11.54142135623731,13.1L11.04142135623731,13.6L1.9585786437626904,13.6L1.4,13.04142135623731L1.4,10.95857864376269L3.9,8.45857864376269L3.9,7.95857864376269L4.429289321881345,7.429289321881345L4.570710678118655,7.570710678118655L4.1,8.04142135623731L4.1,8.54142135623731L1.6,11.04142135623731L1.6,12.95857864376269L2.0414213562373096,13.4L10.95857864376269,13.4L11.45857864376269,12.9L15.45857864376269,12.9L15.9,12.45857864376269L15.9,11.54142135623731z" stroke="none"/><path d="M13.429289321881345,2.9292893218813454L13.570710678118655,3.0707106781186546L12.54142135623731,4.1L11.45857864376269,4.1L10.9,3.5414213562373096L10.9,2.4585786437626904L11.45857864376269,1.9L11.95857864376269,1.9L12.45857864376269,1.4L12.95857864376269,1.4L13.45857864376269,0.9L28.041421356237308,0.9L29.6,2.4585786437626904L29.6,6.54142135623731L29.1,7.04142135623731L29.1,7.54142135623731L28.6,8.04142135623731L28.6,8.54142135623731L28.041421356237308,9.1L25.958578643762692,9.1L24.958578643762692,8.1L24.458578643762692,8.1L23.929289321881345,7.570710678118655L24.070710678118655,7.429289321881345L24.541421356237308,7.9L25.041421356237308,7.9L26.041421356237308,8.9L27.958578643762692,8.9L28.4,8.45857864376269L28.4,7.95857864376269L28.9,7.45857864376269L28.9,6.95857864376269L29.4,6.45857864376269L29.4,2.5414213562373096L27.958578643762692,1.1L13.54142135623731,1.1L13.04142135623731,1.6L12.54142135623731,1.6L12.04142135623731,2.1L11.54142135623731,2.1L11.1,2.5414213562373096L11.1,3.4585786437626904L11.54142135623731,3.9L12.45857864376269,3.9z" stroke="none"/><path d="M15.070710678118655,7.429289321881345L14.929289321881345,7.570710678118655L13.45857864376269,6.1L12.95857864376269,6.1L11.45857864376269,4.6L10.95857864376269,4.6L10.4,4.04142135623731L10.4,3.5414213562373096L9.9,3.0414213562373096L9.9,2.5414213562373096L9.45857864376269,2.1L4.04142135623731,2.1L3.6,2.5414213562373096L3.6,5.54142135623731L3.0707106781186546,6.070710678118655L2.9292893218813454,5.929289321881345L3.4,5.45857864376269L3.4,2.4585786437626904L3.9585786437626904,1.9L9.54142135623731,1.9L10.1,2.4585786437626904L10.1,2.9585786437626904L10.6,3.4585786437626904L10.6,3.9585786437626904L11.04142135623731,4.4L11.54142135623731,4.4L13.04142135623731,5.9L13.54142135623731,5.9z" stroke="none"/><circle cx="9" cy="12" r="0.25" stroke-width="0" fill="#000" /><circle cx="6" cy="10.5" r="0.25" stroke-width="0" fill="#000" /><circle cx="12" cy="9" r="0.25" stroke-width="0" fill="#000" /><circle cx="9" cy="7.5" r="0.25" stroke-width="0" fill="#000" /><circle cx="12" cy="7.5" r="0.25" stroke-width="0" fill="#000" /><circle cx="3" cy="12" r="0.25" stroke-width="0" fill="#000" /><circle cx="19.5" cy="9" r="0.25" stroke-width="0" fill="#000" /><circle cx="16.5" cy="7.5" r="0.25" stroke-width="0" fill="#000" /><circle cx="13.5" cy="9" r="0.25" stroke-width="0" fill="#000" /><circle cx="24" cy="9" r="0.25" stroke-width="0" fill="#000" /><circle cx="22.5" cy="3" r="0.25" stroke-width="0" fill="#000" /><circle cx="16.5" cy="6" r="0.25" stroke-width="0" fill="#000" /><circle cx="27" cy="4.5" r="0.25" stroke-width="0" fill="#000" /><circle cx="15" cy="3" r="0.25" stroke-width="0" fill="#000" /><circle cx="19.5" cy="3" r="0.25" stroke-width="0" fill="#000" /><circle cx="19.5" cy="4.5" r="0.25" stroke-width="0" fill="#000" /><circle cx="18" cy="3" r="0.25" stroke-width="0" fill="#000" /><circle cx="16.5" cy="3" r="0.25" stroke-width="0" fill="#000" /><circle cx="22.5" cy="10.5" r="0.25" stroke-width="0" fill="#000" /><circle cx="21" cy="12" r="0.25" stroke-width="0" fill="#000" /><circle cx="13.5" cy="10.5" r="0.25" stroke-width="0" fill="#000" /><circle cx="15" cy="12" r="0.25" stroke-width="0" fill="#000" /><circle cx="4.5" cy="3" r="0.25" stroke-width="0" fill="#000" /><circle cx="4.5" cy="6" r="0.25" stroke-width="0" fill="#000" /><circle cx="21" cy="10.5" r="0.25" stroke-width="0" fill="#000" /><circle cx="18" cy="10.5" r="0.25" stroke-width="0" fill="#000" /><circle cx="10.5" cy="12" r="0.25" stroke-width="0" fill="#000" /><circle cx="9" cy="9" r="0.25" stroke-width="0" fill="#000" /><circle cx="9" cy="3" r="0.25" stroke-width="0" fill="#000" /><circle cx="7.5" cy="6" r="0.25" stroke-width="0" fill="#000" /><circle cx="25.5" cy="4.5" r="0.25" stroke-width="0" fill="#000" /><circle cx="22.5" cy="6" r="0.25" stroke-width="0" fill="#000" /><circle cx="13.5" cy="4.5" r="0.25" stroke-width="0" fill="#000" /><circle cx="18" cy="4.5" r="0.25" stroke-width="0" fill="#000" /><circle cx="25.5" cy="3" r="0.25" stroke-width="0" fill="#000" /><circle cx="27" cy="7.5" r="0.25" stroke-width="0" fill="#000" /><circle cx="19.5" cy="12" r="0.25" stroke-width="0" fill="#000" /><circle cx="27" cy="10.5" r="0.25" stroke-width="0" fill="#000" /><circle cx="21" cy="6" r="0.25" stroke-width="0" fill="#000" /><circle cx="12" cy="3" r="0.25" stroke-width="0" fill="#000" /><circle cx="15" cy="10.5" r="0.25" stroke-width="0" fill="#000" /><circle cx="4.5" cy="7.5" r="0.25" stroke-width="0" fill="#000" /><circle cx="13.5" cy="3" r="0.25" stroke-width="0" fill="#000" /><circle cx="24" cy="7.5" r="0.25" stroke-width="0" fill="#000" /><circle cx="15" cy="7.5" r="0.25" stroke-width="0" fill="#000" /><circle cx="3" cy="6" r="0.25" stroke-width="0" fill="#000" /><rect x="0" y="0" width="30" height="15" stroke-width="0.4" stroke="#000" fill="none" /></svg>