<svg version="1.1" width="30" height="15" xmlns="http://www.w3.org/2000/svg"><path d="M17.6,6.45857864376269L17.6,6.95857864376269L18.070710678118655,7.429289321881345L17.929289321881345,7.570710678118655L17.4,7.04142135623731L17.4,6.54142135623731L16.958578643762692,6.1L10.5,6.1L10.5,5.9L16.75857864376269,5.9L16.458578643762692,5.6L15.95857864376269,5.6L15.4,5.04142135623731L15.4,3.9585786437626904L15.95857864376269,3.4L20.041421356237308,3.4L20.541421356237308,3.9L21.458578643762692,3.9L22.429289321881345,2.9292893218813454L22.570710678118655,3.0707106781186546L21.541421356237308,4.1L20.458578643762692,4.1L19.958578643762692,3.6L16.041421356237308,3.6L15.6,4.04142135623731L15.6,4.95857864376269L16.041421356237308,5.4L16.541421356237308,5.4z" stroke="none"/><path d="M25.041421356237308,6.4L25.541421356237308,6.9L26.541421356237308,6.9L27.070710678118655,7.429289321881345L26.929289321881345,7.570710678118655L26.458578643762692,7.1L25.458578643762692,7.1L24.958578643762692,6.6L23.6,6.6L23.6,7.95857864376269L24.1,8.45857864376269L24.1,9L23.9,9L23.9,8.54142135623731L23.4,8.04142135623731L23.4,6.6L21.958578643762692,6.6L20.458578643762692,5.1L18.958578643762692,5.1L18.458578643762692,4.6L18,4.6L18,4.4L18.541421356237308,4.4L19.041421356237308,4.9L20.541421356237308,4.9L22.041421356237308,6.4z" stroke="none"/><path d="M22.4,10.4L22.4,9.54142135623731L21.9,9.04142135623731L21.9,8.54142135623731L21.458578643762692,8.1L19.041421356237308,8.1L18.541421356237308,8.6L17.458578643762692,8.6L16.429289321881345,7.570710678118655L16.570710678118655,7.429289321881345L17.541421356237308,8.4L18.458578643762692,8.4L18.958578643762692,7.9L21.541421356237308,7.9L22.1,8.45857864376269L22.1,8.95857864376269L22.6,9.45857864376269L22.6,10.4L24.041421356237308,10.4L24.541421356237308,10.9L26.041421356237308,10.9L27.070710678118655,11.929289321881345L26.929289321881345,12.070710678118655L25.958578643762692,11.1L24.458578643762692,11.1L23.958578643762692,10.6L22.6,10.6L22.6,11.04142135623731L22.1,11.54142135623731L22.1,12.54142135623731L21.541421356237308,13.1L20.458578643762692,13.1L19.429289321881345,12.070710678118655L19.570710678118655,11.929289321881345L20.541421356237308,12.9L21.458578643762692,12.9L21.9,12.45857864376269L21.9,11.45857864376269L22.4,10.95857864376269L22.4,10.6L21,10.6L21,10.4z" stroke="none"/><path d="M8.4,7.75857864376269L8.4,7.45857864376269L8.95857864376269,6.9L10.95857864376269,6.9L11.45857864376269,6.4L12.54142135623731,6.4L13.570710678118655,7.429289321881345L13.429289321881345,7.570710678118655L12.45857864376269,6.6L11.54142135623731,6.6L11.04142135623731,7.1L9.04142135623731,7.1L8.6,7.54142135623731L8.6,7.9L9.04142135623731,7.9L10.04142135623731,8.9L10.5,8.9L10.5,9.1L9.95857864376269,9.1L8.95857864376269,8.1L8.54142135623731,8.1L6.070710678118655,10.570710678118655L5.929289321881345,10.429289321881345L8.35857864376269,8L7.95857864376269,7.6L7.45857864376269,7.6L6.45857864376269,6.6L5.95857864376269,6.6L5.45857864376269,6.1L4.5,6.1L4.5,5.9L5.54142135623731,5.9L6.04142135623731,6.4L6.54142135623731,6.4L7.54142135623731,7.4L8.04142135623731,7.4z" stroke="none"/><path d="M21,8.9L21,9.1L19.5,9.1L19.5,8.9z" stroke="none"/><path d="M5.929289321881345,3.0707106781186546L6.070710678118655,2.9292893218813454L7.570710678118655,4.429289321881345L7.429289321881345,4.570710678118655z" stroke="none"/><path d="M25.429289321881345,12.070710678118655L25.570710678118655,11.929289321881345L26.541421356237308,12.9L27.458578643762692,12.9L27.9,12.45857864376269L27.9,11.54142135623731L26.929289321881345,10.570710678118655L27.070710678118655,10.429289321881345L28.1,11.45857864376269L28.1,12.54142135623731L27.541421356237308,13.1L26.458578643762692,13.1z" stroke="none"/><path d="M18.070710678118655,11.929289321881345L17.929289321881345,12.070710678118655L16.429289321881345,10.570710678118655L16.570710678118655,10.429289321881345z" stroke="none"/><path d="M19.429289321881345,10.570710678118655L19.570710678118655,10.429289321881345L21.070710678118655,11.929289321881345L20.929289321881345,12.070710678118655z" stroke="none"/><path d="M16.429289321881345,4.570710678118655L16.570710678118655,4.429289321881345L17.541421356237308,5.4L18.541421356237308,5.4L19.041421356237308,5.9L19.5,5.9L19.5,6.1L18.958578643762692,6.1L18.458578643762692,5.6L17.458578643762692,5.6z" stroke="none"/><path d="M9.070710678118655,12.070710678118655L8.929289321881345,11.929289321881345L9.45857864376269,11.4L9.95857864376269,11.4L10.45857864376269,10.9L10.95857864376269,10.9L11.45857864376269,10.4L12,10.4L12,10.6L11.54142135623731,10.6L11.04142135623731,11.1L10.54142135623731,11.1L10.04142135623731,11.6L9.54142135623731,11.6z" stroke="none"/><path d="M4.429289321881345,3.0707106781186546L4.570710678118655,2.9292893218813454L7.570710678118655,5.929289321881345L7.429289321881345,6.070710678118655z" stroke="none"/><path d="M22.4,7.5L22.6,7.5L22.6,8.45857864376269L23.1,8.95857864376269L23.1,9.45857864376269L23.541421356237308,9.9L24.458578643762692,9.9L24.958578643762692,9.4L25.458578643762692,9.4L25.958578643762692,8.9L27,8.9L27,9.1L26.041421356237308,9.1L25.541421356237308,9.6L25.041421356237308,9.6L24.541421356237308,10.1L23.458578643762692,10.1L22.9,9.54142135623731L22.9,9.04142135623731L22.4,8.54142135623731z" stroke="none"/><path d="M3.0707106781186546,6.070710678118655L2.9292893218813454,5.929289321881345L3.4,5.45857864376269L3.4,2.4585786437626904L3.9585786437626904,1.9L6.54142135623731,1.9L8.6,3.9585786437626904L8.6,5.45857864376269L9.070710678118655,5.929289321881345L8.929289321881345,6.070710678118655L8.4,5.54142135623731L8.4,4.04142135623731L6.45857864376269,2.1L4.04142135623731,2.1L3.6,2.5414213562373096L3.6,5.54142135623731z" stroke="none"/><path d="M4.4,9L4.6,9L4.6,9.45857864376269L5.1,9.95857864376269L5.1,10.95857864376269L6.54142135623731,12.4L7.04142135623731,12.4L7.54142135623731,12.9L9.45857864376269,12.9L9.95857864376269,12.4L11.45857864376269,12.4L11.929289321881345,11.929289321881345L12.070710678118655,12.070710678118655L11.54142135623731,12.6L10.04142135623731,12.6L9.54142135623731,13.1L7.45857864376269,13.1L6.95857864376269,12.6L6.45857864376269,12.6L4.9,11.04142135623731L4.9,10.04142135623731L4.4,9.54142135623731z" stroke="none"/><path d="M13.570710678118655,4.429289321881345L13.429289321881345,4.570710678118655L10.95857864376269,2.1L8.45857864376269,2.1L7.95857864376269,1.6L3.5414213562373096,1.6L3.1,2.0414213562373096L3.1,4.04142135623731L2.1,5.04142135623731L2.1,6.45857864376269L2.5414213562373096,6.9L3.0414213562373096,6.9L4.04142135623731,7.9L5.04142135623731,7.9L6.070710678118655,8.929289321881345L5.929289321881345,9.070710678118655L4.95857864376269,8.1L3.9585786437626904,8.1L2.9585786437626904,7.1L2.4585786437626904,7.1L1.9,6.54142135623731L1.9,4.95857864376269L2.9,3.9585786437626904L2.9,1.9585786437626904L3.4585786437626904,1.4L8.04142135623731,1.4L8.54142135623731,1.9L11.04142135623731,1.9z" stroke="none"/><path d="M2.9,9L3.1,9L3.1,9.45857864376269L4.1,10.45857864376269L4.1,10.95857864376269L6.04142135623731,12.9L6.54142135623731,12.9L7.04142135623731,13.4L11.95857864376269,13.4L12.9,12.45857864376269L12.9,10.04142135623731L12.4,9.54142135623731L12.4,8.04142135623731L11.929289321881345,7.570710678118655L12.070710678118655,7.429289321881345L12.6,7.95857864376269L12.6,9.45857864376269L13.1,9.95857864376269L13.1,12.54142135623731L12.04142135623731,13.6L6.95857864376269,13.6L6.45857864376269,13.1L5.95857864376269,13.1L3.9,11.04142135623731L3.9,10.54142135623731L2.9,9.54142135623731z" stroke="none"/><path d="M10.429289321881345,3.0707106781186546L10.570710678118655,2.9292893218813454L13.04142135623731,5.4L13.95857864376269,5.4L14.9,4.45857864376269L14.9,3.4585786437626904L15.45857864376269,2.9L21,2.9L21,3.1L15.54142135623731,3.1L15.1,3.5414213562373096L15.1,4.54142135623731L14.04142135623731,5.6L12.95857864376269,5.6z" stroke="none"/><path d="M24,11.9L24,12.1L23.541421356237308,12.1L22.041421356237308,13.6L19.458578643762692,13.6L18.958578643762692,13.1L17.458578643762692,13.1L13.429289321881345,9.070710678118655L13.570710678118655,8.929289321881345L17.541421356237308,12.9L19.041421356237308,12.9L19.541421356237308,13.4L21.958578643762692,13.4L23.458578643762692,11.9z" stroke="none"/><path d="M15,11.9L15,12.1L14.54142135623731,12.1L12.54142135623731,14.1L5.95857864376269,14.1L5.45857864376269,13.6L4.95857864376269,13.6L3.4585786437626904,12.1L3,12.1L3,11.9L3.5414213562373096,11.9L5.04142135623731,13.4L5.54142135623731,13.4L6.04142135623731,13.9L12.45857864376269,13.9L14.45857864376269,11.9z" stroke="none"/></svg>