<svg version="1.1" width="30" height="15" xmlns="http://www.w3.org/2000/svg"><path d="M8.4,9.4L8.4,8.95857864376269L8.95857864376269,8.4L11.04142135623731,8.4L11.54142135623731,8.9L12,8.9L12,9.1L11.45857864376269,9.1L10.95857864376269,8.6L9.04142135623731,8.6L8.6,9.04142135623731L8.6,9.4L9.95857864376269,9.4L10.429289321881345,8.929289321881345L10.570710678118655,9.070710678118655L10.04142135623731,9.6L6.54142135623731,9.6L6.04142135623731,10.1L5.04142135623731,10.1L4.54142135623731,10.6L3,10.6L3,10.4L4.45857864376269,10.4L4.95857864376269,9.9L5.95857864376269,9.9L6.45857864376269,9.4z" stroke="none"/><path d="M13.4,5.75857864376269L13.4,5.04142135623731L12.95857864376269,4.6L10.5,4.6L10.5,4.4L13.04142135623731,4.4L13.6,4.95857864376269L13.6,5.95857864376269L14.54142135623731,6.9L16.041421356237308,6.9L16.541421356237308,7.4L19.5,7.4L19.5,7.6L16.458578643762692,7.6L15.95857864376269,7.1L14.45857864376269,7.1L12.45857864376269,5.1L11.54142135623731,5.1L10.570710678118655,6.070710678118655L10.429289321881345,5.929289321881345L11.45857864376269,4.9L12.54142135623731,4.9z" stroke="none"/><path d="M16.4,8.9L16.4,8.45857864376269L16.958578643762692,7.9L18.541421356237308,7.9L19.041421356237308,8.4L19.958578643762692,8.4L20.458578643762692,7.9L21.458578643762692,7.9L21.958578643762692,7.4L22.5,7.4L22.5,7.6L22.041421356237308,7.6L21.541421356237308,8.1L20.541421356237308,8.1L20.041421356237308,8.6L18.958578643762692,8.6L18.458578643762692,8.1L17.041421356237308,8.1L16.6,8.54142135623731L16.6,8.9L21,8.9L21,9.1L16.6,9.1L16.6,9.54142135623731L16.041421356237308,10.1L13.54142135623731,10.1L13.04142135623731,10.6L10.5,10.6L10.5,10.4L12.95857864376269,10.4L13.45857864376269,9.9L15.95857864376269,9.9L16.4,9.45857864376269L16.4,9.1L13.5,9.1L13.5,8.9z" stroke="none"/><path d="M20.9,5.75857864376269L20.9,5.45857864376269L21.458578643762692,4.9L22.041421356237308,4.9L22.541421356237308,5.4L23.041421356237308,5.4L23.541421356237308,5.9L25.041421356237308,5.9L26.041421356237308,6.9L26.541421356237308,6.9L27.070710678118655,7.429289321881345L26.929289321881345,7.570710678118655L26.458578643762692,7.1L25.958578643762692,7.1L24.958578643762692,6.1L23.458578643762692,6.1L22.958578643762692,5.6L22.458578643762692,5.6L21.958578643762692,5.1L21.541421356237308,5.1L21.1,5.54142135623731L21.1,5.9L21.541421356237308,5.9L22.041421356237308,6.4L24.541421356237308,6.4L25.570710678118655,7.429289321881345L25.429289321881345,7.570710678118655L24.458578643762692,6.6L21.958578643762692,6.6L21.458578643762692,6.1L19.541421356237308,6.1L18.541421356237308,7.1L16.958578643762692,7.1L16.458578643762692,6.6L15.95857864376269,6.6L15.45857864376269,6.1L15,6.1L15,5.9L15.54142135623731,5.9L16.041421356237308,6.4L16.541421356237308,6.4L17.041421356237308,6.9L18.458578643762692,6.9L19.458578643762692,5.9L20.75857864376269,5.9L20.458578643762692,5.6L19.958578643762692,5.6L19.458578643762692,5.1L18.958578643762692,5.1L18.458578643762692,4.6L18,4.6L18,4.4L18.541421356237308,4.4L19.041421356237308,4.9L19.541421356237308,4.9L20.041421356237308,5.4L20.541421356237308,5.4z" stroke="none"/><path d="M15,11.9L15,12.1L13.5,12.1L13.5,11.9z" stroke="none"/><path d="M9,3.1L9,2.9L10.5,2.9L10.5,3.1z" stroke="none"/><path d="M7.570710678118655,7.429289321881345L7.429289321881345,7.570710678118655L5.929289321881345,6.070710678118655L6.070710678118655,5.929289321881345z" stroke="none"/><path d="M25.429289321881345,8.929289321881345L25.570710678118655,9.070710678118655L24.070710678118655,10.570710678118655L23.929289321881345,10.429289321881345z" stroke="none"/><path d="M4.4,3L4.6,3L4.6,6L4.4,6z" stroke="none"/><path d="M2.9,3L3.1,3L3.1,6L2.9,6z" stroke="none"/><path d="M11.929289321881345,5.929289321881345L12.070710678118655,6.070710678118655L11.04142135623731,7.1L9.95857864376269,7.1L8.929289321881345,6.070710678118655L9.070710678118655,5.929289321881345L10.04142135623731,6.9L10.95857864376269,6.9z" stroke="none"/><path d="M4.570710678118655,12.070710678118655L4.429289321881345,11.929289321881345L5.45857864376269,10.9L6.45857864376269,10.9L6.95857864376269,10.4L7.5,10.4L7.5,10.6L7.04142135623731,10.6L6.54142135623731,11.1L5.54142135623731,11.1z" stroke="none"/><path d="M6,12.1L6,11.9L10.5,11.9L10.5,12.1z" stroke="none"/><path d="M25.429289321881345,4.570710678118655L25.570710678118655,4.429289321881345L28.1,6.95857864376269L28.1,8.04142135623731L27.070710678118655,9.070710678118655L26.929289321881345,8.929289321881345L27.9,7.95857864376269L27.9,7.04142135623731z" stroke="none"/><path d="M21.070710678118655,12.070710678118655L20.929289321881345,11.929289321881345L23.4,9.45857864376269L23.4,8.95857864376269L23.9,8.45857864376269L23.9,7.5L24.1,7.5L24.1,8.54142135623731L23.6,9.04142135623731L23.6,9.54142135623731z" stroke="none"/><path d="M21,3.1L21,2.9L21.541421356237308,2.9L22.041421356237308,3.4L22.541421356237308,3.4L23.041421356237308,3.9L24.458578643762692,3.9L24.958578643762692,3.4L26.041421356237308,3.4L27.070710678118655,4.429289321881345L26.929289321881345,4.570710678118655L25.958578643762692,3.6L25.041421356237308,3.6L24.541421356237308,4.1L22.958578643762692,4.1L22.458578643762692,3.6L21.958578643762692,3.6L21.458578643762692,3.1z" stroke="none"/><path d="M24.070710678118655,2.9292893218813454L23.929289321881345,3.0707106781186546L22.958578643762692,2.1L20.041421356237308,2.1L19.041421356237308,3.1L18.541421356237308,3.1L18.041421356237308,3.6L17.541421356237308,3.6L17.1,4.04142135623731L17.1,4.95857864376269L18.070710678118655,5.929289321881345L17.929289321881345,6.070710678118655L16.9,5.04142135623731L16.9,3.9585786437626904L17.458578643762692,3.4L17.958578643762692,3.4L18.458578643762692,2.9L18.958578643762692,2.9L19.958578643762692,1.9L23.041421356237308,1.9z" stroke="none"/><path d="M19.5,10.4L19.5,10.6L15.04142135623731,10.6L14.54142135623731,11.1L13.04142135623731,11.1L11.04142135623731,13.1L3.9585786437626904,13.1L1.9,11.04142135623731L1.9,9.95857864376269L2.4585786437626904,9.4L2.9585786437626904,9.4L3.4585786437626904,8.9L7.45857864376269,8.9L8.45857864376269,7.9L9.45857864376269,7.9L9.95857864376269,7.4L12,7.4L12,7.6L10.04142135623731,7.6L9.54142135623731,8.1L8.54142135623731,8.1L7.54142135623731,9.1L3.5414213562373096,9.1L3.0414213562373096,9.6L2.5414213562373096,9.6L2.1,10.04142135623731L2.1,10.95857864376269L4.04142135623731,12.9L10.95857864376269,12.9L12.95857864376269,10.9L14.45857864376269,10.9L14.95857864376269,10.4z" stroke="none"/><path d="M22.429289321881345,8.929289321881345L22.570710678118655,9.070710678118655L20.1,11.54142135623731L20.1,12.45857864376269L20.541421356237308,12.9L23.958578643762692,12.9L24.458578643762692,12.4L24.958578643762692,12.4L28.4,8.95857864376269L28.4,6.54142135623731L27.9,6.04142135623731L27.9,4.04142135623731L27.458578643762692,3.6L26.958578643762692,3.6L26.458578643762692,3.1L25.958578643762692,3.1L24.958578643762692,2.1L24.458578643762692,2.1L23.958578643762692,1.6L19.041421356237308,1.6L18.541421356237308,2.1L18.041421356237308,2.1L16.041421356237308,4.1L15.54142135623731,4.1L15.070710678118655,4.570710678118655L14.929289321881345,4.429289321881345L15.45857864376269,3.9L15.95857864376269,3.9L17.958578643762692,1.9L18.458578643762692,1.9L18.958578643762692,1.4L24.041421356237308,1.4L24.541421356237308,1.9L25.041421356237308,1.9L26.041421356237308,2.9L26.541421356237308,2.9L27.041421356237308,3.4L27.541421356237308,3.4L28.1,3.9585786437626904L28.1,5.95857864376269L28.6,6.45857864376269L28.6,9.04142135623731L25.041421356237308,12.6L24.541421356237308,12.6L24.041421356237308,13.1L20.458578643762692,13.1L19.9,12.54142135623731L19.9,11.45857864376269z" stroke="none"/><path d="M15,2.9L15,3.1L11.95857864376269,3.1L10.95857864376269,2.1L7.54142135623731,2.1L7.04142135623731,2.6L6.54142135623731,2.6L6.070710678118655,3.0707106781186546L5.929289321881345,2.9292893218813454L6.45857864376269,2.4L6.95857864376269,2.4L7.45857864376269,1.9L11.04142135623731,1.9L12.04142135623731,2.9z" stroke="none"/></svg>