<svg version="1.1" width="30" height="15" xmlns="http://www.w3.org/2000/svg"><path d="M11.9,9.04142135623731L11.9,7.5L12.1,7.5L12.1,8.9L12.45857864376269,8.9L12.9,8.45857864376269L12.9,7.54142135623731L12.45857864376269,7.1L10.04142135623731,7.1L9.54142135623731,7.6L9.04142135623731,7.6L7.570710678118655,9.070710678118655L7.429289321881345,8.929289321881345L8.95857864376269,7.4L9.45857864376269,7.4L9.95857864376269,6.9L12.54142135623731,6.9L13.1,7.45857864376269L13.1,8.54142135623731L12.54142135623731,9.1L12.241421356237309,9.1L13.1,9.95857864376269L13.1,11.45857864376269L13.570710678118655,11.929289321881345L13.429289321881345,12.070710678118655L12.9,11.54142135623731L12.9,10.04142135623731z" stroke="none"/><path d="M8.9,8.95857864376269L8.9,8.45857864376269L9.45857864376269,7.9L10.04142135623731,7.9L10.54142135623731,8.4L11.04142135623731,8.4L12.1,9.45857864376269L12.1,10.5L11.9,10.5L11.9,9.54142135623731L10.95857864376269,8.6L10.45857864376269,8.6L9.95857864376269,8.1L9.54142135623731,8.1L9.1,8.54142135623731L9.1,8.9L10.5,8.9L10.5,9.1L9.04142135623731,9.1L8.04142135623731,10.1L5.45857864376269,10.1L2.9292893218813454,7.570710678118655L3.0707106781186546,7.429289321881345L5.54142135623731,9.9L7.95857864376269,9.9z" stroke="none"/><path d="M17.458578643762692,7.9L18.958578643762692,6.4L19.958578643762692,6.4L20.458578643762692,5.9L21,5.9L21,6.1L20.541421356237308,6.1L20.041421356237308,6.6L19.041421356237308,6.6L17.6,8.04142135623731L17.6,9.45857864376269L18.1,9.95857864376269L18.1,10.5L17.9,10.5L17.9,10.04142135623731L17.4,9.54142135623731L17.4,8.241421356237309L16.570710678118655,9.070710678118655L16.429289321881345,8.929289321881345L17.25857864376269,8.1L16.541421356237308,8.1L16.1,8.54142135623731L16.1,9.54142135623731L15.6,10.04142135623731L15.6,11.04142135623731L15.1,11.54142135623731L15.1,12.04142135623731L14.04142135623731,13.1L12.95857864376269,13.1L11.95857864376269,12.1L11.45857864376269,12.1L10.45857864376269,11.1L9.45857864376269,11.1L8.929289321881345,10.570710678118655L9.070710678118655,10.429289321881345L9.54142135623731,10.9L10.54142135623731,10.9L11.54142135623731,11.9L12.04142135623731,11.9L13.04142135623731,12.9L13.95857864376269,12.9L14.9,11.95857864376269L14.9,11.45857864376269L15.4,10.95857864376269L15.4,9.95857864376269L15.9,9.45857864376269L15.9,8.45857864376269L16.458578643762692,7.9z" stroke="none"/><path d="M16.9,5.9L16.9,5.04142135623731L16.429289321881345,4.570710678118655L16.570710678118655,4.429289321881345L17.1,4.95857864376269L17.1,5.9L19.458578643762692,5.9L20.458578643762692,4.9L21.541421356237308,4.9L24.1,7.45857864376269L24.1,9L23.9,9L23.9,7.54142135623731L21.458578643762692,5.1L20.541421356237308,5.1L19.541421356237308,6.1L17.1,6.1L17.1,6.54142135623731L16.541421356237308,7.1L14.95857864376269,7.1L14.4,6.54142135623731L14.4,6.04142135623731L13.9,5.54142135623731L13.9,5.04142135623731L13.429289321881345,4.570710678118655L13.570710678118655,4.429289321881345L14.1,4.95857864376269L14.1,5.45857864376269L14.6,5.95857864376269L14.6,6.45857864376269L15.04142135623731,6.9L16.458578643762692,6.9L16.9,6.45857864376269L16.9,6.1L15,6.1L15,5.9z" stroke="none"/><path d="M3.1,12L2.9,12L2.9,10.5L3.1,10.5z" stroke="none"/><path d="M22.570710678118655,10.429289321881345L22.429289321881345,10.570710678118655L20.929289321881345,9.070710678118655L21.070710678118655,8.929289321881345z" stroke="none"/><path d="M7.570710678118655,4.570710678118655L7.429289321881345,4.429289321881345L8.929289321881345,2.9292893218813454L9.070710678118655,3.0707106781186546z" stroke="none"/><path d="M20.929289321881345,2.9292893218813454L21.070710678118655,3.0707106781186546L19.570710678118655,4.570710678118655L19.429289321881345,4.429289321881345z" stroke="none"/><path d="M18.070710678118655,11.929289321881345L17.929289321881345,12.070710678118655L16.429289321881345,10.570710678118655L16.570710678118655,10.429289321881345z" stroke="none"/><path d="M6.070710678118655,11.929289321881345L5.929289321881345,12.070710678118655L1.9,8.04142135623731L1.9,6.95857864376269L2.4585786437626904,6.4L3.5414213562373096,6.4L6.070710678118655,8.929289321881345L5.929289321881345,9.070710678118655L3.4585786437626904,6.6L2.5414213562373096,6.6L2.1,7.04142135623731L2.1,7.95857864376269z" stroke="none"/><path d="M25.570710678118655,8.929289321881345L25.429289321881345,9.070710678118655L24.4,8.04142135623731L24.4,6.95857864376269L25.429289321881345,5.929289321881345L25.570710678118655,6.070710678118655L24.6,7.04142135623731L24.6,7.95857864376269z" stroke="none"/><path d="M15.070710678118655,4.429289321881345L14.929289321881345,4.570710678118655L13.95857864376269,3.6L12.95857864376269,3.6L12.45857864376269,3.1L12,3.1L12,2.9L12.54142135623731,2.9L13.04142135623731,3.4L14.04142135623731,3.4z" stroke="none"/><path d="M4.570710678118655,6.070710678118655L4.429289321881345,5.929289321881345L7.429289321881345,2.9292893218813454L7.570710678118655,3.0707106781186546z" stroke="none"/><path d="M4.429289321881345,12.070710678118655L4.570710678118655,11.929289321881345L5.54142135623731,12.9L6.95857864376269,12.9L7.45857864376269,12.4L7.95857864376269,12.4L8.45857864376269,11.9L9,11.9L9,12.1L8.54142135623731,12.1L8.04142135623731,12.6L7.54142135623731,12.6L7.04142135623731,13.1L5.45857864376269,13.1z" stroke="none"/><path d="M25.5,7.6L25.5,7.4L26.458578643762692,7.4L26.958578643762692,6.9L27.458578643762692,6.9L27.9,6.45857864376269L27.9,5.54142135623731L26.458578643762692,4.1L25.958578643762692,4.1L25.458578643762692,3.6L24.958578643762692,3.6L24.458578643762692,3.1L24,3.1L24,2.9L24.541421356237308,2.9L25.041421356237308,3.4L25.541421356237308,3.4L26.041421356237308,3.9L26.541421356237308,3.9L28.1,5.45857864376269L28.1,6.54142135623731L27.541421356237308,7.1L27.041421356237308,7.1L26.541421356237308,7.6z" stroke="none"/><path d="M16.429289321881345,12.070710678118655L16.570710678118655,11.929289321881345L17.541421356237308,12.9L18.458578643762692,12.9L18.9,12.45857864376269L18.9,7.95857864376269L19.429289321881345,7.429289321881345L19.570710678118655,7.570710678118655L19.1,8.04142135623731L19.1,12.54142135623731L18.541421356237308,13.1L17.458578643762692,13.1z" stroke="none"/><path d="M27.070710678118655,5.929289321881345L26.929289321881345,6.070710678118655L25.958578643762692,5.1L24.958578643762692,5.1L24.458578643762692,4.6L23.958578643762692,4.6L22.429289321881345,3.0707106781186546L22.570710678118655,2.9292893218813454L24.041421356237308,4.4L24.541421356237308,4.4L25.041421356237308,4.9L26.041421356237308,4.9z" stroke="none"/><path d="M11.929289321881345,4.570710678118655L12.070710678118655,4.429289321881345L12.6,4.95857864376269L12.6,5.45857864376269L13.6,6.45857864376269L13.6,6.95857864376269L14.1,7.45857864376269L14.1,7.95857864376269L15.070710678118655,8.929289321881345L14.929289321881345,9.070710678118655L13.9,8.04142135623731L13.9,7.54142135623731L13.4,7.04142135623731L13.4,6.54142135623731L12.4,5.54142135623731L12.4,5.04142135623731z" stroke="none"/><path d="M3.0707106781186546,4.570710678118655L2.9292893218813454,4.429289321881345L5.45857864376269,1.9L9.54142135623731,1.9L10.570710678118655,2.9292893218813454L10.429289321881345,3.0707106781186546L9.45857864376269,2.1L5.54142135623731,2.1z" stroke="none"/><path d="M5.929289321881345,2.9292893218813454L6.070710678118655,3.0707106781186546L3.5414213562373096,5.6L2.4585786437626904,5.6L1.9,5.04142135623731L1.9,3.9585786437626904L2.4585786437626904,3.4L2.9585786437626904,3.4L4.95857864376269,1.4L16.041421356237308,1.4L17.041421356237308,2.4L17.541421356237308,2.4L18.070710678118655,2.9292893218813454L17.929289321881345,3.0707106781186546L17.458578643762692,2.6L16.958578643762692,2.6L15.95857864376269,1.6L5.04142135623731,1.6L3.0414213562373096,3.6L2.5414213562373096,3.6L2.1,4.04142135623731L2.1,4.95857864376269L2.5414213562373096,5.4L3.4585786437626904,5.4z" stroke="none"/></svg>