<svg version="1.1" width="30" height="15" xmlns="http://www.w3.org/2000/svg"><path d="M20.458578643762692,6.4L20.929289321881345,5.929289321881345L21.070710678118655,6.070710678118655L20.541421356237308,6.6L19.1,6.6L19.1,8.04142135623731L18.070710678118655,9.070710678118655L17.929289321881345,8.929289321881345L18.9,7.95857864376269L18.9,6.6L17.541421356237308,6.6L17.041421356237308,7.1L16.541421356237308,7.1L16.041421356237308,7.6L15,7.6L15,7.4L15.95857864376269,7.4L16.458578643762692,6.9L16.958578643762692,6.9L17.458578643762692,6.4z" stroke="none"/><path d="M10.54142135623731,7.4L10.95857864376269,7.4L11.45857864376269,6.9L13.95857864376269,6.9L14.929289321881345,5.929289321881345L15.070710678118655,6.070710678118655L14.04142135623731,7.1L11.54142135623731,7.1L11.04142135623731,7.6L10.54142135623731,7.6L9.070710678118655,9.070710678118655L8.929289321881345,8.929289321881345L10.35857864376269,7.5L7.429289321881345,4.570710678118655L7.570710678118655,4.429289321881345z" stroke="none"/><path d="M16.4,10.4L16.4,10.04142135623731L15.95857864376269,9.6L13.95857864376269,9.6L13.429289321881345,9.070710678118655L13.570710678118655,8.929289321881345L14.04142135623731,9.4L16.041421356237308,9.4L16.6,9.95857864376269L16.6,10.4L18,10.4L18,10.6L16.6,10.6L16.6,10.95857864376269L17.541421356237308,11.9L18.041421356237308,11.9L18.541421356237308,12.4L20.041421356237308,12.4L20.541421356237308,12.9L22.458578643762692,12.9L23.458578643762692,11.9L24,11.9L24,12.1L23.541421356237308,12.1L22.541421356237308,13.1L20.458578643762692,13.1L19.958578643762692,12.6L18.458578643762692,12.6L17.958578643762692,12.1L17.458578643762692,12.1L16.4,11.04142135623731L16.4,10.6L15,10.6L15,10.4z" stroke="none"/><path d="M7.45857864376269,8.9L8.929289321881345,7.429289321881345L9.070710678118655,7.570710678118655L7.641421356237309,9L8.54142135623731,9.9L9.54142135623731,9.9L10.04142135623731,10.4L10.5,10.4L10.5,10.6L9.95857864376269,10.6L9.45857864376269,10.1L8.45857864376269,10.1L7.6,9.241421356237309L7.6,9.54142135623731L6.6,10.54142135623731L6.6,11.54142135623731L6.070710678118655,12.070710678118655L5.929289321881345,11.929289321881345L6.4,11.45857864376269L6.4,10.45857864376269L7.4,9.45857864376269L7.4,9.1L6.95857864376269,9.1L6.45857864376269,8.6L5.95857864376269,8.6L4.95857864376269,7.6L4.5,7.6L4.5,7.4L5.04142135623731,7.4L6.04142135623731,8.4L6.54142135623731,8.4L7.04142135623731,8.9z" stroke="none"/><path d="M22.5,2.9L22.5,3.1L21,3.1L21,2.9z" stroke="none"/><path d="M9.1,4.5L8.9,4.5L8.9,3L9.1,3z" stroke="none"/><path d="M3.0707106781186546,4.570710678118655L2.9292893218813454,4.429289321881345L4.429289321881345,2.9292893218813454L4.570710678118655,3.0707106781186546z" stroke="none"/><path d="M23.9,6L24.1,6L24.1,9L23.9,9z" stroke="none"/><path d="M7.429289321881345,11.929289321881345L7.570710678118655,12.070710678118655L6.54142135623731,13.1L5.45857864376269,13.1L4.95857864376269,12.6L3.4585786437626904,12.6L2.9292893218813454,12.070710678118655L3.0707106781186546,11.929289321881345L3.5414213562373096,12.4L5.04142135623731,12.4L5.54142135623731,12.9L6.45857864376269,12.9z" stroke="none"/><path d="M3.0707106781186546,7.570710678118655L2.9292893218813454,7.429289321881345L4.4,5.95857864376269L4.4,5.45857864376269L4.9,4.95857864376269L4.9,4.45857864376269L5.9,3.4585786437626904L5.9,3L6.1,3L6.1,3.5414213562373096L5.1,4.54142135623731L5.1,5.04142135623731L4.6,5.54142135623731L4.6,6.04142135623731z" stroke="none"/><path d="M12.070710678118655,6.070710678118655L11.929289321881345,5.929289321881345L12.4,5.45857864376269L12.4,3.9585786437626904L13.45857864376269,2.9L16.5,2.9L16.5,3.1L13.54142135623731,3.1L12.6,4.04142135623731L12.6,5.54142135623731z" stroke="none"/><path d="M21,12.1L21,11.9L22.458578643762692,11.9L23.958578643762692,10.4L27,10.4L27,10.6L24.041421356237308,10.6L22.541421356237308,12.1z" stroke="none"/><path d="M26.929289321881345,2.9292893218813454L27.070710678118655,3.0707106781186546L25.041421356237308,5.1L23.541421356237308,5.1L21.070710678118655,7.570710678118655L20.929289321881345,7.429289321881345L23.458578643762692,4.9L24.958578643762692,4.9z" stroke="none"/><path d="M13.429289321881345,10.570710678118655L13.570710678118655,10.429289321881345L15.54142135623731,12.4L17.041421356237308,12.4L17.541421356237308,12.9L18.041421356237308,12.9L18.541421356237308,13.4L23.958578643762692,13.4L25.958578643762692,11.4L27.458578643762692,11.4L27.9,10.95857864376269L27.9,10.04142135623731L27.458578643762692,9.6L26.541421356237308,9.6L26.041421356237308,10.1L22.041421356237308,10.1L21.541421356237308,10.6L21,10.6L21,10.4L21.458578643762692,10.4L21.958578643762692,9.9L25.958578643762692,9.9L26.458578643762692,9.4L27.541421356237308,9.4L28.1,9.95857864376269L28.1,11.04142135623731L27.541421356237308,11.6L26.041421356237308,11.6L24.041421356237308,13.6L18.458578643762692,13.6L17.958578643762692,13.1L17.458578643762692,13.1L16.958578643762692,12.6L15.45857864376269,12.6z" stroke="none"/><path d="M3.0707106781186546,5.929289321881345L2.9292893218813454,6.070710678118655L1.9,5.04142135623731L1.9,3.9585786437626904L3.9585786437626904,1.9L9.54142135623731,1.9L10.1,2.4585786437626904L10.1,5.45857864376269L10.570710678118655,5.929289321881345L10.429289321881345,6.070710678118655L9.9,5.54142135623731L9.9,2.5414213562373096L9.45857864376269,2.1L4.04142135623731,2.1L2.1,4.04142135623731L2.1,4.95857864376269z" stroke="none"/><path d="M25.570710678118655,6.070710678118655L25.429289321881345,5.929289321881345L27.9,3.4585786437626904L27.9,2.5414213562373096L27.458578643762692,2.1L25.041421356237308,2.1L23.041421356237308,4.1L19.041421356237308,4.1L18.541421356237308,4.6L18,4.6L18,4.4L18.458578643762692,4.4L18.958578643762692,3.9L22.958578643762692,3.9L24.958578643762692,1.9L27.541421356237308,1.9L28.1,2.4585786437626904L28.1,3.5414213562373096z" stroke="none"/><path d="M18,7.4L18,7.6L17.541421356237308,7.6L17.041421356237308,8.1L16.541421356237308,8.1L16.041421356237308,8.6L14.45857864376269,8.6L13.95857864376269,8.1L13.04142135623731,8.1L12.1,9.04142135623731L12.1,9.54142135623731L11.6,10.04142135623731L11.6,11.04142135623731L10.570710678118655,12.070710678118655L10.429289321881345,11.929289321881345L11.4,10.95857864376269L11.4,9.95857864376269L11.9,9.45857864376269L11.9,8.95857864376269L12.95857864376269,7.9L14.04142135623731,7.9L14.54142135623731,8.4L15.95857864376269,8.4L16.458578643762692,7.9L16.958578643762692,7.9L17.458578643762692,7.4z" stroke="none"/><path d="M4.5,10.4L4.5,10.6L4.04142135623731,10.6L3.5414213562373096,11.1L2.5414213562373096,11.1L2.1,11.54142135623731L2.1,12.45857864376269L2.5414213562373096,12.9L4.54142135623731,12.9L5.04142135623731,13.4L10.95857864376269,13.4L11.95857864376269,12.4L12.95857864376269,12.4L13.429289321881345,11.929289321881345L13.570710678118655,12.070710678118655L13.04142135623731,12.6L12.04142135623731,12.6L11.04142135623731,13.6L4.95857864376269,13.6L4.45857864376269,13.1L2.4585786437626904,13.1L1.9,12.54142135623731L1.9,11.45857864376269L2.4585786437626904,10.9L3.4585786437626904,10.9L3.9585786437626904,10.4z" stroke="none"/><path d="M25.429289321881345,2.9292893218813454L25.570710678118655,3.0707106781186546L25.041421356237308,3.6L24.541421356237308,3.6L23.541421356237308,4.6L20.541421356237308,4.6L20.041421356237308,5.1L19.041421356237308,5.1L18.541421356237308,5.6L16.958578643762692,5.6L16.458578643762692,5.1L14.54142135623731,5.1L13.570710678118655,6.070710678118655L13.429289321881345,5.929289321881345L14.45857864376269,4.9L16.541421356237308,4.9L17.041421356237308,5.4L18.458578643762692,5.4L18.958578643762692,4.9L19.958578643762692,4.9L20.458578643762692,4.4L23.458578643762692,4.4L24.458578643762692,3.4L24.958578643762692,3.4z" stroke="none"/><path d="M13.5,4.6L13.5,4.4L16.458578643762692,4.4L17.458578643762692,3.4L18.958578643762692,3.4L20.458578643762692,1.9L23.958578643762692,1.9L24.458578643762692,1.4L28.041421356237308,1.4L28.6,1.9585786437626904L28.6,4.04142135623731L26.6,6.04142135623731L26.6,6.54142135623731L25.570710678118655,7.570710678118655L25.429289321881345,7.429289321881345L26.4,6.45857864376269L26.4,5.95857864376269L28.4,3.9585786437626904L28.4,2.0414213562373096L27.958578643762692,1.6L24.541421356237308,1.6L24.041421356237308,2.1L20.541421356237308,2.1L19.041421356237308,3.6L17.541421356237308,3.6L16.541421356237308,4.6z" stroke="none"/></svg>