<svg version="1.1" width="30" height="15" xmlns="http://www.w3.org/2000/svg"><path d="M20.958578643762692,6.4L21.4,5.95857864376269L21.4,5.45857864376269L22.429289321881345,4.429289321881345L22.570710678118655,4.570710678118655L21.6,5.54142135623731L21.6,6.04142135623731L21.1,6.54142135623731L21.1,7.04142135623731L20.6,7.54142135623731L20.6,8.04142135623731L19.570710678118655,9.070710678118655L19.429289321881345,8.929289321881345L20.4,7.95857864376269L20.4,7.45857864376269L20.9,6.95857864376269L20.9,6.6L20.458578643762692,6.6L19.958578643762692,6.1L19.5,6.1L19.5,5.9L20.041421356237308,5.9L20.541421356237308,6.4z" stroke="none"/><path d="M17.9,6.4L17.9,6.04142135623731L17.458578643762692,5.6L16.458578643762692,5.6L15.45857864376269,4.6L13.5,4.6L13.5,4.4L15.54142135623731,4.4L16.541421356237308,5.4L17.541421356237308,5.4L18.1,5.95857864376269L18.1,9L17.9,9L17.9,6.6L17.541421356237308,6.6L17.1,7.04142135623731L17.1,8.45857864376269L17.6,8.95857864376269L17.6,9.45857864376269L18.041421356237308,9.9L19.958578643762692,9.9L20.9,8.95857864376269L20.9,8.45857864376269L21.4,7.95857864376269L21.4,6.95857864376269L22.429289321881345,5.929289321881345L22.570710678118655,6.070710678118655L21.6,7.04142135623731L21.6,8.04142135623731L21.1,8.54142135623731L21.1,9.04142135623731L20.041421356237308,10.1L17.958578643762692,10.1L17.4,9.54142135623731L17.4,9.04142135623731L16.9,8.54142135623731L16.9,6.95857864376269L17.458578643762692,6.4z" stroke="none"/><path d="M8.9,8.9L8.9,8.54142135623731L8.4,8.04142135623731L8.4,7.54142135623731L7.4,6.54142135623731L7.4,6L7.6,6L7.6,6.45857864376269L8.6,7.45857864376269L8.6,7.95857864376269L9.1,8.45857864376269L9.1,8.9L10.04142135623731,8.9L10.54142135623731,9.4L11.04142135623731,9.4L12.04142135623731,10.4L13.5,10.4L13.5,10.6L11.95857864376269,10.6L10.95857864376269,9.6L10.45857864376269,9.6L9.95857864376269,9.1L9.1,9.1L9.1,10.5L8.9,10.5L8.9,9.1L6,9.1L6,8.9z" stroke="none"/><path d="M22.4,10.4L22.4,9L22.6,9L22.6,10.4L27,10.4L27,10.6L22.6,10.6L22.6,12.04142135623731L21.541421356237308,13.1L15.95857864376269,13.1L14.929289321881345,12.070710678118655L15.070710678118655,11.929289321881345L16.041421356237308,12.9L21.458578643762692,12.9L22.4,11.95857864376269L22.4,10.6L21,10.6L21,10.4z" stroke="none"/><path d="M16.5,12.1L16.5,11.9L18,11.9L18,12.1z" stroke="none"/><path d="M25.5,2.9L25.5,3.1L24,3.1L24,2.9z" stroke="none"/><path d="M4.6,12L4.4,12L4.4,10.5L4.6,10.5z" stroke="none"/><path d="M6.070710678118655,4.429289321881345L5.929289321881345,4.570710678118655L4.429289321881345,3.0707106781186546L4.570710678118655,2.9292893218813454z" stroke="none"/><path d="M13.4,6L13.6,6L13.6,9L13.4,9z" stroke="none"/><path d="M7.429289321881345,3.0707106781186546L7.570710678118655,2.9292893218813454L8.54142135623731,3.9L9.45857864376269,3.9L10.429289321881345,2.9292893218813454L10.570710678118655,3.0707106781186546L9.54142135623731,4.1L8.45857864376269,4.1z" stroke="none"/><path d="M24,7.6L24,7.4L27,7.4L27,7.6z" stroke="none"/><path d="M19.5,4.6L19.5,4.4L19.958578643762692,4.4L20.458578643762692,3.9L21.458578643762692,3.9L21.958578643762692,3.4L23.041421356237308,3.4L24.070710678118655,4.429289321881345L23.929289321881345,4.570710678118655L22.958578643762692,3.6L22.041421356237308,3.6L21.541421356237308,4.1L20.541421356237308,4.1L20.041421356237308,4.6z" stroke="none"/><path d="M12,11.9L12,12.1L9.95857864376269,12.1L9.45857864376269,11.6L8.45857864376269,11.6L7.429289321881345,10.570710678118655L7.570710678118655,10.429289321881345L8.54142135623731,11.4L9.54142135623731,11.4L10.04142135623731,11.9z" stroke="none"/><path d="M10.570710678118655,7.429289321881345L10.429289321881345,7.570710678118655L7.95857864376269,5.1L7.04142135623731,5.1L3.6,8.54142135623731L3.6,12.45857864376269L4.04142135623731,12.9L4.95857864376269,12.9L5.929289321881345,11.929289321881345L6.070710678118655,12.070710678118655L5.04142135623731,13.1L3.9585786437626904,13.1L3.4,12.54142135623731L3.4,8.45857864376269L6.95857864376269,4.9L8.04142135623731,4.9z" stroke="none"/><path d="M21,11.9L21,12.1L20.458578643762692,12.1L19.958578643762692,11.6L19.458578643762692,11.6L18.958578643762692,11.1L18.458578643762692,11.1L17.958578643762692,10.6L17.458578643762692,10.6L15.9,9.04142135623731L15.9,8.54142135623731L14.929289321881345,7.570710678118655L15.070710678118655,7.429289321881345L16.1,8.45857864376269L16.1,8.95857864376269L17.541421356237308,10.4L18.041421356237308,10.4L18.541421356237308,10.9L19.041421356237308,10.9L19.541421356237308,11.4L20.041421356237308,11.4L20.541421356237308,11.9z" stroke="none"/><path d="M4.429289321881345,9.070710678118655L4.570710678118655,8.929289321881345L7.1,11.45857864376269L7.1,12.54142135623731L6.54142135623731,13.1L6.04142135623731,13.1L5.54142135623731,13.6L3.4585786437626904,13.6L2.9,13.04142135623731L2.9,3.4585786437626904L3.4,2.9585786437626904L3.4,2.4585786437626904L3.9585786437626904,1.9L5.04142135623731,1.9L7.04142135623731,3.9L7.54142135623731,3.9L8.04142135623731,4.4L8.54142135623731,4.4L9.54142135623731,5.4L10.04142135623731,5.4L11.6,6.95857864376269L11.6,7.95857864376269L12.1,8.45857864376269L12.1,9L11.9,9L11.9,8.54142135623731L11.4,8.04142135623731L11.4,7.04142135623731L9.95857864376269,5.6L9.45857864376269,5.6L8.45857864376269,4.6L7.95857864376269,4.6L7.45857864376269,4.1L6.95857864376269,4.1L4.95857864376269,2.1L4.04142135623731,2.1L3.6,2.5414213562373096L3.6,3.0414213562373096L3.1,3.5414213562373096L3.1,12.95857864376269L3.5414213562373096,13.4L5.45857864376269,13.4L5.95857864376269,12.9L6.45857864376269,12.9L6.9,12.45857864376269L6.9,11.54142135623731z" stroke="none"/><path d="M18,2.9L18,3.1L15.45857864376269,3.1L14.45857864376269,2.1L10.04142135623731,2.1L9.070710678118655,3.0707106781186546L8.929289321881345,2.9292893218813454L9.95857864376269,1.9L14.54142135623731,1.9L15.54142135623731,2.9z" stroke="none"/><path d="M19.570710678118655,7.429289321881345L19.429289321881345,7.570710678118655L18.4,6.54142135623731L18.4,5.54142135623731L17.958578643762692,5.1L16.958578643762692,5.1L15.95857864376269,4.1L14.45857864376269,4.1L13.95857864376269,3.6L13.04142135623731,3.6L12.54142135623731,4.1L11.04142135623731,4.1L10.570710678118655,4.570710678118655L10.429289321881345,4.429289321881345L10.95857864376269,3.9L12.45857864376269,3.9L12.95857864376269,3.4L14.04142135623731,3.4L14.54142135623731,3.9L16.041421356237308,3.9L17.041421356237308,4.9L18.041421356237308,4.9L18.6,5.45857864376269L18.6,6.45857864376269z" stroke="none"/><path d="M12,3.1L12,2.9L14.54142135623731,2.9L15.04142135623731,3.4L17.041421356237308,3.4L17.541421356237308,3.9L18.458578643762692,3.9L18.958578643762692,3.4L20.958578643762692,3.4L21.458578643762692,2.9L21.958578643762692,2.9L22.458578643762692,2.4L22.958578643762692,2.4L23.458578643762692,1.9L26.041421356237308,1.9L26.6,2.4585786437626904L26.6,3.5414213562373096L22.570710678118655,7.570710678118655L22.429289321881345,7.429289321881345L26.4,3.4585786437626904L26.4,2.5414213562373096L25.958578643762692,2.1L23.541421356237308,2.1L23.041421356237308,2.6L22.541421356237308,2.6L22.041421356237308,3.1L21.541421356237308,3.1L21.041421356237308,3.6L19.041421356237308,3.6L18.541421356237308,4.1L17.458578643762692,4.1L16.958578643762692,3.6L14.95857864376269,3.6L14.45857864376269,3.1z" stroke="none"/><path d="M26.9,4.5L27.1,4.5L27.1,5.95857864376269L28.1,6.95857864376269L28.1,11.04142135623731L27.541421356237308,11.6L25.541421356237308,11.6L25.041421356237308,12.1L24.541421356237308,12.1L23.541421356237308,13.1L23.041421356237308,13.1L22.541421356237308,13.6L14.95857864376269,13.6L13.9,12.54142135623731L13.9,11.45857864376269L14.4,10.95857864376269L14.4,9.45857864376269L14.929289321881345,8.929289321881345L15.070710678118655,9.070710678118655L14.6,9.54142135623731L14.6,11.04142135623731L14.1,11.54142135623731L14.1,12.45857864376269L15.04142135623731,13.4L22.458578643762692,13.4L22.958578643762692,12.9L23.458578643762692,12.9L24.458578643762692,11.9L24.958578643762692,11.9L25.458578643762692,11.4L27.458578643762692,11.4L27.9,10.95857864376269L27.9,7.04142135623731L26.9,6.04142135623731z" stroke="none"/></svg>