<svg version="1.1" width="30" height="15" xmlns="http://www.w3.org/2000/svg"><path d="M16.041421356237308,11.4L17.041421356237308,11.4L17.541421356237308,11.9L18,11.9L18,12.1L17.458578643762692,12.1L16.958578643762692,11.6L14.04142135623731,11.6L13.570710678118655,12.070710678118655L13.429289321881345,11.929289321881345L13.95857864376269,11.4L15.758578643762691,11.4L14.929289321881345,10.570710678118655L15.070710678118655,10.429289321881345z" stroke="none"/><path d="M22.5,8.85857864376269L22.9,8.45857864376269L22.9,6.95857864376269L23.458578643762692,6.4L24.541421356237308,6.4L25.041421356237308,6.9L25.958578643762692,6.9L26.929289321881345,5.929289321881345L27.070710678118655,6.070710678118655L26.041421356237308,7.1L24.958578643762692,7.1L24.458578643762692,6.6L23.541421356237308,6.6L23.1,7.04142135623731L23.1,8.54142135623731L22.64142135623731,9L24.070710678118655,10.429289321881345L23.929289321881345,10.570710678118655L21.458578643762692,8.1L20.541421356237308,8.1L18.070710678118655,10.570710678118655L17.929289321881345,10.429289321881345L20.458578643762692,7.9L21.541421356237308,7.9z" stroke="none"/><path d="M14.9,8.4L14.9,7.45857864376269L16.429289321881345,5.929289321881345L16.570710678118655,6.070710678118655L15.1,7.54142135623731L15.1,8.258578643762691L15.45857864376269,7.9L15.95857864376269,7.9L16.429289321881345,7.429289321881345L16.570710678118655,7.570710678118655L16.041421356237308,8.1L15.54142135623731,8.1L15.1,8.54142135623731L15.1,9.04142135623731L12.6,11.54142135623731L12.6,12.45857864376269L13.04142135623731,12.9L18.458578643762692,12.9L20.929289321881345,10.429289321881345L21.070710678118655,10.570710678118655L18.541421356237308,13.1L12.95857864376269,13.1L12.4,12.54142135623731L12.4,11.45857864376269L14.9,8.95857864376269L14.9,8.6L14.04142135623731,8.6L12.54142135623731,10.1L10.04142135623731,10.1L9.54142135623731,10.6L9,10.6L9,10.4L9.45857864376269,10.4L9.95857864376269,9.9L12.45857864376269,9.9L13.95857864376269,8.4z" stroke="none"/><path d="M7.04142135623731,8.4L8.54142135623731,8.4L9.04142135623731,8.9L10.5,8.9L10.5,9.1L8.95857864376269,9.1L8.45857864376269,8.6L6.95857864376269,8.6L6.1,7.74142135623731L6.1,8.45857864376269L6.54142135623731,8.9L7.04142135623731,8.9L7.54142135623731,9.4L10.95857864376269,9.4L11.4,8.95857864376269L11.4,7.04142135623731L10.9,6.54142135623731L10.9,6.04142135623731L10.4,5.54142135623731L10.4,4.5L10.6,4.5L10.6,5.45857864376269L11.1,5.95857864376269L11.1,6.45857864376269L11.6,6.95857864376269L11.6,9.04142135623731L11.04142135623731,9.6L7.45857864376269,9.6L6.95857864376269,9.1L6.45857864376269,9.1L5.9,8.54142135623731L5.9,7.74142135623731L5.54142135623731,8.1L4.54142135623731,8.1L3.5414213562373096,9.1L3,9.1L3,8.9L3.4585786437626904,8.9L4.45857864376269,7.9L5.45857864376269,7.9L5.858578643762691,7.5L5.45857864376269,7.1L3.9585786437626904,7.1L2.9,6.04142135623731L2.9,4.5L3.1,4.5L3.1,5.95857864376269L4.04142135623731,6.9L5.54142135623731,6.9z" stroke="none"/><path d="M24.1,4.5L23.9,4.5L23.9,3L24.1,3z" stroke="none"/><path d="M22.5,12.1L22.5,11.9L24,11.9L24,12.1z" stroke="none"/><path d="M23.9,7.5L24.1,7.5L24.1,9L23.9,9z" stroke="none"/><path d="M4.4,10.5L4.6,10.5L4.6,12L4.4,12z" stroke="none"/><path d="M7.5,5.9L7.5,6.1L6,6.1L6,5.9z" stroke="none"/><path d="M20.929289321881345,5.929289321881345L21.070710678118655,6.070710678118655L19.570710678118655,7.570710678118655L19.429289321881345,7.429289321881345z" stroke="none"/><path d="M4.6,6L4.4,6L4.4,5.04142135623731L3.9,4.54142135623731L3.9,4.04142135623731L3.4585786437626904,3.6L2.5414213562373096,3.6L2.1,4.04142135623731L2.1,5.45857864376269L2.6,5.95857864376269L2.6,6.45857864376269L3.1,6.95857864376269L3.1,7.5L2.9,7.5L2.9,7.04142135623731L2.4,6.54142135623731L2.4,6.04142135623731L1.9,5.54142135623731L1.9,3.9585786437626904L2.4585786437626904,3.4L3.5414213562373096,3.4L4.1,3.9585786437626904L4.1,4.45857864376269L4.6,4.95857864376269z" stroke="none"/><path d="M7.429289321881345,4.570710678118655L7.570710678118655,4.429289321881345L8.6,5.45857864376269L8.6,6.54142135623731L7.570710678118655,7.570710678118655L7.429289321881345,7.429289321881345L8.4,6.45857864376269L8.4,5.54142135623731z" stroke="none"/><path d="M18.070710678118655,4.570710678118655L17.929289321881345,4.429289321881345L18.458578643762692,3.9L18.958578643762692,3.9L19.458578643762692,3.4L19.958578643762692,3.4L20.458578643762692,2.9L21,2.9L21,3.1L20.541421356237308,3.1L20.041421356237308,3.6L19.541421356237308,3.6L19.041421356237308,4.1L18.541421356237308,4.1z" stroke="none"/><path d="M26.9,9L27.1,9L27.1,9.54142135623731L25.1,11.54142135623731L25.1,12.54142135623731L24.541421356237308,13.1L21.958578643762692,13.1L21.4,12.54142135623731L21.4,11.45857864376269L21.9,10.95857864376269L21.9,10.04142135623731L20.929289321881345,9.070710678118655L21.070710678118655,8.929289321881345L22.1,9.95857864376269L22.1,11.04142135623731L21.6,11.54142135623731L21.6,12.45857864376269L22.041421356237308,12.9L24.458578643762692,12.9L24.9,12.45857864376269L24.9,11.45857864376269L26.9,9.45857864376269z" stroke="none"/><path d="M6.070710678118655,10.429289321881345L5.929289321881345,10.570710678118655L4.95857864376269,9.6L4.04142135623731,9.6L3.5414213562373096,10.1L2.4585786437626904,10.1L1.9,9.54142135623731L1.9,7.04142135623731L1.4,6.54142135623731L1.4,3.4585786437626904L1.9585786437626904,2.9L4.54142135623731,2.9L5.54142135623731,3.9L6.45857864376269,3.9L6.95857864376269,3.4L11.04142135623731,3.4L13.570710678118655,5.929289321881345L13.429289321881345,6.070710678118655L10.95857864376269,3.6L7.04142135623731,3.6L6.54142135623731,4.1L5.45857864376269,4.1L4.45857864376269,3.1L2.0414213562373096,3.1L1.6,3.5414213562373096L1.6,6.45857864376269L2.1,6.95857864376269L2.1,9.45857864376269L2.5414213562373096,9.9L3.4585786437626904,9.9L3.9585786437626904,9.4L5.04142135623731,9.4z" stroke="none"/><path d="M18,3.1L18,2.9L18.458578643762692,2.9L19.458578643762692,1.9L24.541421356237308,1.9L25.041421356237308,2.4L26.541421356237308,2.4L27.070710678118655,2.9292893218813454L26.929289321881345,3.0707106781186546L26.458578643762692,2.6L24.958578643762692,2.6L24.458578643762692,2.1L19.541421356237308,2.1L18.541421356237308,3.1z" stroke="none"/><path d="M16.570710678118655,9.070710678118655L16.429289321881345,8.929289321881345L20.458578643762692,4.9L22.041421356237308,4.9L22.541421356237308,5.4L24.541421356237308,5.4L25.041421356237308,5.9L25.5,5.9L25.5,6.1L24.958578643762692,6.1L24.458578643762692,5.6L22.458578643762692,5.6L21.958578643762692,5.1L20.541421356237308,5.1z" stroke="none"/><path d="M25.5,4.6L25.5,4.4L25.958578643762692,4.4L26.458578643762692,3.9L27.458578643762692,3.9L27.9,3.4585786437626904L27.9,2.5414213562373096L27.458578643762692,2.1L25.458578643762692,2.1L24.958578643762692,1.6L17.041421356237308,1.6L15.54142135623731,3.1L15,3.1L15,2.9L15.45857864376269,2.9L16.958578643762692,1.4L25.041421356237308,1.4L25.541421356237308,1.9L27.541421356237308,1.9L28.1,2.4585786437626904L28.1,3.5414213562373096L27.541421356237308,4.1L26.541421356237308,4.1L26.041421356237308,4.6z" stroke="none"/><path d="M25.570710678118655,9.070710678118655L25.429289321881345,8.929289321881345L27.9,6.45857864376269L27.9,4.95857864376269L28.4,4.45857864376269L28.4,2.0414213562373096L27.958578643762692,1.6L25.958578643762692,1.6L25.458578643762692,1.1L15.54142135623731,1.1L14.1,2.5414213562373096L14.1,3.4585786437626904L15.070710678118655,4.429289321881345L14.929289321881345,4.570710678118655L13.9,3.5414213562373096L13.9,2.4585786437626904L15.45857864376269,0.9L25.541421356237308,0.9L26.041421356237308,1.4L28.041421356237308,1.4L28.6,1.9585786437626904L28.6,4.54142135623731L28.1,5.04142135623731L28.1,6.54142135623731z" stroke="none"/><path d="M18.070710678118655,5.929289321881345L17.929289321881345,6.070710678118655L16.958578643762692,5.1L16.041421356237308,5.1L15.54142135623731,5.6L14.45857864376269,5.6L12.95857864376269,4.1L12.45857864376269,4.1L11.45857864376269,3.1L6,3.1L6,2.9L11.54142135623731,2.9L12.54142135623731,3.9L13.04142135623731,3.9L14.54142135623731,5.4L15.45857864376269,5.4L15.95857864376269,4.9L17.041421356237308,4.9z" stroke="none"/></svg>