<svg version="1.1" width="30" height="15" xmlns="http://www.w3.org/2000/svg"><path d="M22.541421356237308,8.4L23.041421356237308,8.4L23.541421356237308,8.9L24,8.9L24,9.1L23.458578643762692,9.1L22.958578643762692,8.6L22.6,8.6L22.6,8.95857864376269L23.041421356237308,9.4L24.541421356237308,9.4L25.570710678118655,10.429289321881345L25.429289321881345,10.570710678118655L24.458578643762692,9.6L22.958578643762692,9.6L22.4,9.04142135623731L22.4,8.54142135623731L20.958578643762692,7.1L20.458578643762692,7.1L19.429289321881345,6.070710678118655L19.570710678118655,5.929289321881345L20.541421356237308,6.9L21.041421356237308,6.9z" stroke="none"/><path d="M12.54142135623731,6.4L14.04142135623731,6.4L14.54142135623731,6.9L15.54142135623731,6.9L16.041421356237308,7.4L19.5,7.4L19.5,7.6L15.95857864376269,7.6L15.45857864376269,7.1L14.45857864376269,7.1L13.95857864376269,6.6L11.04142135623731,6.6L10.04142135623731,7.6L7.5,7.6L7.5,7.4L9.95857864376269,7.4L10.95857864376269,6.4L12.258578643762691,6.4L10.429289321881345,4.570710678118655L10.570710678118655,4.429289321881345z" stroke="none"/><path d="M22.4,10.4L22.4,10.04142135623731L21.958578643762692,9.6L19.458578643762692,9.6L18.958578643762692,9.1L16.5,9.1L16.5,8.9L19.041421356237308,8.9L19.541421356237308,9.4L22.041421356237308,9.4L22.6,9.95857864376269L22.6,10.4L24,10.4L24,10.6L22.6,10.6L22.6,12L22.4,12L22.4,10.6L22.041421356237308,10.6L21.6,11.04142135623731L21.6,11.95857864376269L22.041421356237308,12.4L22.958578643762692,12.4L23.458578643762692,11.9L23.958578643762692,11.9L24.458578643762692,11.4L25.958578643762692,11.4L26.929289321881345,10.429289321881345L27.070710678118655,10.570710678118655L26.041421356237308,11.6L24.541421356237308,11.6L24.041421356237308,12.1L23.541421356237308,12.1L23.041421356237308,12.6L21.958578643762692,12.6L21.4,12.04142135623731L21.4,10.95857864376269L21.958578643762692,10.4z" stroke="none"/><path d="M11.9,4.25857864376269L11.9,3.5414213562373096L11.45857864376269,3.1L9,3.1L9,2.9L11.54142135623731,2.9L12.1,3.4585786437626904L12.1,4.4L15,4.4L15,4.6L12.1,4.6L12.1,4.95857864376269L12.54142135623731,5.4L14.54142135623731,5.4L15.070710678118655,5.929289321881345L14.929289321881345,6.070710678118655L14.45857864376269,5.6L12.45857864376269,5.6L11.9,5.04142135623731L11.9,4.54142135623731L10.95857864376269,3.6L10.04142135623731,3.6L9.070710678118655,4.570710678118655L8.929289321881345,4.429289321881345L9.95857864376269,3.4L11.04142135623731,3.4z" stroke="none"/><path d="M24,4.4L24,4.6L22.5,4.6L22.5,4.4z" stroke="none"/><path d="M25.5,7.6L25.5,7.4L27,7.4L27,7.6z" stroke="none"/><path d="M4.570710678118655,10.429289321881345L4.429289321881345,10.570710678118655L2.9292893218813454,9.070710678118655L3.0707106781186546,8.929289321881345z" stroke="none"/><path d="M4.570710678118655,11.929289321881345L4.429289321881345,12.070710678118655L1.9,9.54142135623731L1.9,8.45857864376269L2.4585786437626904,7.9L3.5414213562373096,7.9L4.570710678118655,8.929289321881345L4.429289321881345,9.070710678118655L3.4585786437626904,8.1L2.5414213562373096,8.1L2.1,8.54142135623731L2.1,9.45857864376269z" stroke="none"/><path d="M5.9,6L6.1,6L6.1,9L5.9,9z" stroke="none"/><path d="M7.5,12.1L7.5,11.9L10.5,11.9L10.5,12.1z" stroke="none"/><path d="M4.5,4.6L4.5,4.4L5.45857864376269,4.4L5.95857864376269,3.9L6.45857864376269,3.9L7.429289321881345,2.9292893218813454L7.570710678118655,3.0707106781186546L6.54142135623731,4.1L6.04142135623731,4.1L5.54142135623731,4.6z" stroke="none"/><path d="M23.929289321881345,7.570710678118655L24.070710678118655,7.429289321881345L25.041421356237308,8.4L26.541421356237308,8.4L28.1,9.95857864376269L28.1,11.04142135623731L27.541421356237308,11.6L27.041421356237308,11.6L25.541421356237308,13.1L21.458578643762692,13.1L19.9,11.54142135623731L19.9,11.04142135623731L19.429289321881345,10.570710678118655L19.570710678118655,10.429289321881345L20.1,10.95857864376269L20.1,11.45857864376269L21.541421356237308,12.9L25.458578643762692,12.9L26.958578643762692,11.4L27.458578643762692,11.4L27.9,10.95857864376269L27.9,10.04142135623731L26.458578643762692,8.6L24.958578643762692,8.6z" stroke="none"/><path d="M13.5,10.4L13.5,10.6L7.5,10.6L7.5,10.4z" stroke="none"/><path d="M21,6.1L21,5.9L27,5.9L27,6.1z" stroke="none"/><path d="M5.9,10.5L6.1,10.5L6.1,11.95857864376269L7.04142135623731,12.9L10.95857864376269,12.9L11.929289321881345,11.929289321881345L12.070710678118655,12.070710678118655L11.04142135623731,13.1L6.95857864376269,13.1L5.9,12.04142135623731z" stroke="none"/><path d="M18,3.1L18,2.9L27,2.9L27,3.1z" stroke="none"/><path d="M7.5,9.1L7.5,8.9L12.54142135623731,8.9L13.04142135623731,9.4L14.04142135623731,9.4L15.54142135623731,10.9L16.541421356237308,10.9L17.541421356237308,11.9L18,11.9L18,12.1L17.458578643762692,12.1L16.458578643762692,11.1L15.45857864376269,11.1L13.95857864376269,9.6L12.95857864376269,9.6L12.45857864376269,9.1z" stroke="none"/><path d="M2.9,3L3.1,3L3.1,4.54142135623731L1.6,6.04142135623731L1.6,9.95857864376269L3.6,11.95857864376269L3.6,12.45857864376269L4.04142135623731,12.9L5.04142135623731,12.9L5.54142135623731,13.4L17.458578643762692,13.4L17.958578643762692,12.9L18.458578643762692,12.9L18.9,12.45857864376269L18.9,11.54142135623731L17.458578643762692,10.1L15.95857864376269,10.1L13.429289321881345,7.570710678118655L13.570710678118655,7.429289321881345L16.041421356237308,9.9L17.541421356237308,9.9L19.1,11.45857864376269L19.1,12.54142135623731L18.541421356237308,13.1L18.041421356237308,13.1L17.541421356237308,13.6L5.45857864376269,13.6L4.95857864376269,13.1L3.9585786437626904,13.1L3.4,12.54142135623731L3.4,12.04142135623731L1.4,10.04142135623731L1.4,5.95857864376269L2.9,4.45857864376269z" stroke="none"/><path d="M18,4.4L18,4.6L16.958578643762692,4.6L16.458578643762692,4.1L15.95857864376269,4.1L14.95857864376269,3.1L12.95857864376269,3.1L12.45857864376269,2.6L9.95857864376269,2.6L9.45857864376269,2.1L7.04142135623731,2.1L6.070710678118655,3.0707106781186546L5.929289321881345,2.9292893218813454L6.95857864376269,1.9L9.54142135623731,1.9L10.04142135623731,2.4L12.54142135623731,2.4L13.04142135623731,2.9L15.04142135623731,2.9L16.041421356237308,3.9L16.541421356237308,3.9L17.041421356237308,4.4z" stroke="none"/><path d="M4.570710678118655,3.0707106781186546L4.429289321881345,2.9292893218813454L5.45857864376269,1.9L5.95857864376269,1.9L6.45857864376269,1.4L27.041421356237308,1.4L28.1,2.4585786437626904L28.1,3.5414213562373096L27.541421356237308,4.1L25.958578643762692,4.1L25.458578643762692,3.6L22.041421356237308,3.6L21.041421356237308,4.6L20.541421356237308,4.6L20.041421356237308,5.1L19.041421356237308,5.1L18.541421356237308,5.6L17.041421356237308,5.6L16.570710678118655,6.070710678118655L16.429289321881345,5.929289321881345L16.958578643762692,5.4L18.458578643762692,5.4L18.958578643762692,4.9L19.958578643762692,4.9L20.458578643762692,4.4L20.958578643762692,4.4L21.958578643762692,3.4L25.541421356237308,3.4L26.041421356237308,3.9L27.458578643762692,3.9L27.9,3.4585786437626904L27.9,2.5414213562373096L26.958578643762692,1.6L6.54142135623731,1.6L6.04142135623731,2.1L5.54142135623731,2.1z" stroke="none"/></svg>