<svg version="1.1" width="30" height="15" xmlns="http://www.w3.org/2000/svg"><path d="M7.5,8.9L7.5,9.1L6.1,9.1L6.1,9.45857864376269L6.54142135623731,9.9L6.95857864376269,9.9L7.45857864376269,9.4L7.95857864376269,9.4L8.4,8.95857864376269L8.4,8.45857864376269L8.9,7.95857864376269L8.9,7.5L9.1,7.5L9.1,8.04142135623731L8.6,8.54142135623731L8.6,9.04142135623731L8.04142135623731,9.6L7.54142135623731,9.6L7.04142135623731,10.1L6.45857864376269,10.1L5.9,9.54142135623731L5.9,9.1L3,9.1L3,8.9z" stroke="none"/><path d="M7.54142135623731,4.4L8.54142135623731,5.4L11.95857864376269,5.4L12.95857864376269,4.4L13.5,4.4L13.5,4.6L13.04142135623731,4.6L12.04142135623731,5.6L8.45857864376269,5.6L7.45857864376269,4.6L7.1,4.6L7.1,5.04142135623731L6.54142135623731,5.6L4.45857864376269,5.6L3.9585786437626904,5.1L3.4585786437626904,5.1L2.9292893218813454,4.570710678118655L3.0707106781186546,4.429289321881345L3.5414213562373096,4.9L4.04142135623731,4.9L4.54142135623731,5.4L6.45857864376269,5.4L6.9,4.95857864376269L6.9,4.6L4.5,4.6L4.5,4.4z" stroke="none"/><path d="M25.429289321881345,5.929289321881345L25.570710678118655,6.070710678118655L24.14142135623731,7.5L24.541421356237308,7.9L25.541421356237308,7.9L26.541421356237308,8.9L27,8.9L27,9.1L26.458578643762692,9.1L25.458578643762692,8.1L24.458578643762692,8.1L24.1,7.74142135623731L24.1,8.54142135623731L23.541421356237308,9.1L19.5,9.1L19.5,8.9L23.458578643762692,8.9L23.9,8.45857864376269L23.9,7.74142135623731L23.041421356237308,8.6L21.958578643762692,8.6L20.929289321881345,7.570710678118655L21.070710678118655,7.429289321881345L22.041421356237308,8.4L22.958578643762692,8.4z" stroke="none"/><path d="M20.9,5.4L20.9,3L21.1,3L21.1,5.4L22.958578643762692,5.4L23.929289321881345,4.429289321881345L24.070710678118655,4.570710678118655L23.041421356237308,5.6L21.24142135623731,5.6L21.6,5.95857864376269L21.6,6.45857864376269L22.570710678118655,7.429289321881345L22.429289321881345,7.570710678118655L21.4,6.54142135623731L21.4,6.04142135623731L20.958578643762692,5.6L20.041421356237308,5.6L19.041421356237308,6.6L18.541421356237308,6.6L17.541421356237308,7.6L16.5,7.6L16.5,7.4L17.458578643762692,7.4L18.458578643762692,6.4L18.958578643762692,6.4L19.958578643762692,5.4z" stroke="none"/><path d="M6,7.6L6,7.4L7.5,7.4L7.5,7.6z" stroke="none"/><path d="M4.5,7.4L4.5,7.6L3,7.6L3,7.4z" stroke="none"/><path d="M10.570710678118655,4.429289321881345L10.429289321881345,4.570710678118655L8.929289321881345,3.0707106781186546L9.070710678118655,2.9292893218813454z" stroke="none"/><path d="M19.570710678118655,3.0707106781186546L19.429289321881345,2.9292893218813454L20.458578643762692,1.9L21.541421356237308,1.9L22.1,2.4585786437626904L22.1,3.9585786437626904L22.570710678118655,4.429289321881345L22.429289321881345,4.570710678118655L21.9,4.04142135623731L21.9,2.5414213562373096L21.458578643762692,2.1L20.541421356237308,2.1z" stroke="none"/><path d="M23.929289321881345,3.0707106781186546L24.070710678118655,2.9292893218813454L27.070710678118655,5.929289321881345L26.929289321881345,6.070710678118655z" stroke="none"/><path d="M14.929289321881345,10.429289321881345L15.070710678118655,10.570710678118655L14.04142135623731,11.6L12.95857864376269,11.6L12.45857864376269,11.1L11.95857864376269,11.1L11.45857864376269,10.6L10.5,10.6L10.5,10.4L11.54142135623731,10.4L12.04142135623731,10.9L12.54142135623731,10.9L13.04142135623731,11.4L13.95857864376269,11.4z" stroke="none"/><path d="M13.5,3.1L13.5,2.9L14.04142135623731,2.9L14.54142135623731,3.4L15.04142135623731,3.4L15.54142135623731,3.9L16.041421356237308,3.9L16.541421356237308,4.4L18,4.4L18,4.6L16.458578643762692,4.6L15.95857864376269,4.1L15.45857864376269,4.1L14.95857864376269,3.6L14.45857864376269,3.6L13.95857864376269,3.1z" stroke="none"/><path d="M15,6.1L15,5.9L17.458578643762692,5.9L17.958578643762692,5.4L18.458578643762692,5.4L18.9,4.95857864376269L18.9,4.04142135623731L18.458578643762692,3.6L15.95857864376269,3.6L15.45857864376269,3.1L14.95857864376269,3.1L13.95857864376269,2.1L12.04142135623731,2.1L11.04142135623731,3.1L10.5,3.1L10.5,2.9L10.95857864376269,2.9L11.95857864376269,1.9L14.04142135623731,1.9L15.04142135623731,2.9L15.54142135623731,2.9L16.041421356237308,3.4L18.541421356237308,3.4L19.1,3.9585786437626904L19.1,5.04142135623731L18.541421356237308,5.6L18.041421356237308,5.6L17.541421356237308,6.1z" stroke="none"/><path d="M15,11.9L15,12.1L13.54142135623731,12.1L12.54142135623731,13.1L9.95857864376269,13.1L8.929289321881345,12.070710678118655L9.070710678118655,11.929289321881345L10.04142135623731,12.9L12.45857864376269,12.9L13.45857864376269,11.9z" stroke="none"/><path d="M25.5,11.9L25.5,12.1L19.5,12.1L19.5,11.9z" stroke="none"/><path d="M3,3.1L3,2.9L5.54142135623731,2.9L6.04142135623731,3.4L6.54142135623731,3.4L7.04142135623731,3.9L8.04142135623731,3.9L8.54142135623731,4.4L9,4.4L9,4.6L8.45857864376269,4.6L7.95857864376269,4.1L6.95857864376269,4.1L6.45857864376269,3.6L5.95857864376269,3.6L5.45857864376269,3.1z" stroke="none"/><path d="M12,11.9L12,12.1L10.45857864376269,12.1L9.45857864376269,11.1L5.45857864376269,11.1L4.95857864376269,10.6L4.5,10.6L4.5,10.4L5.04142135623731,10.4L5.54142135623731,10.9L9.54142135623731,10.9L10.54142135623731,11.9z" stroke="none"/><path d="M19.429289321881345,7.429289321881345L19.570710678118655,7.570710678118655L18.6,8.54142135623731L18.6,9.45857864376269L19.041421356237308,9.9L21.458578643762692,9.9L21.958578643762692,9.4L25.541421356237308,9.4L26.041421356237308,9.9L27.458578643762692,9.9L27.9,9.45857864376269L27.9,5.04142135623731L27.4,4.54142135623731L27.4,3.5414213562373096L26.929289321881345,3.0707106781186546L27.070710678118655,2.9292893218813454L27.6,3.4585786437626904L27.6,4.45857864376269L28.1,4.95857864376269L28.1,9.54142135623731L27.541421356237308,10.1L25.958578643762692,10.1L25.458578643762692,9.6L22.041421356237308,9.6L21.541421356237308,10.1L18.958578643762692,10.1L18.4,9.54142135623731L18.4,8.45857864376269z" stroke="none"/><path d="M22.5,10.4L22.5,10.6L18.458578643762692,10.6L16.958578643762692,9.1L16.458578643762692,9.1L13.429289321881345,6.070710678118655L13.570710678118655,5.929289321881345L16.541421356237308,8.9L17.041421356237308,8.9L18.541421356237308,10.4z" stroke="none"/><path d="M23.929289321881345,10.429289321881345L24.070710678118655,10.570710678118655L23.041421356237308,11.6L21.958578643762692,11.6L21.458578643762692,11.1L17.958578643762692,11.1L16.958578643762692,10.1L16.458578643762692,10.1L13.95857864376269,7.6L13.5,7.6L13.5,7.4L14.04142135623731,7.4L16.541421356237308,9.9L17.041421356237308,9.9L18.041421356237308,10.9L21.541421356237308,10.9L22.041421356237308,11.4L22.958578643762692,11.4z" stroke="none"/><path d="M3,6.1L3,5.9L7.54142135623731,5.9L8.04142135623731,6.4L9.54142135623731,6.4L13.570710678118655,10.429289321881345L13.429289321881345,10.570710678118655L9.45857864376269,6.6L7.95857864376269,6.6L7.45857864376269,6.1z" stroke="none"/></svg>