<svg version="1.1" width="30" height="15" xmlns="http://www.w3.org/2000/svg"><path d="M22.541421356237308,9.9L25.458578643762692,9.9L26.458578643762692,8.9L27,8.9L27,9.1L26.541421356237308,9.1L25.541421356237308,10.1L22.541421356237308,10.1L22.1,10.54142135623731L22.1,12.54142135623731L21.541421356237308,13.1L17.958578643762692,13.1L16.958578643762692,12.1L16.5,12.1L16.5,11.9L17.041421356237308,11.9L18.041421356237308,12.9L21.458578643762692,12.9L21.9,12.45857864376269L21.9,10.45857864376269L22.35857864376269,10L21.958578643762692,9.6L21.458578643762692,9.6L20.929289321881345,9.070710678118655L21.070710678118655,8.929289321881345L21.541421356237308,9.4L22.041421356237308,9.4z" stroke="none"/><path d="M11.54142135623731,6.9L13.04142135623731,6.9L13.54142135623731,7.4L16.5,7.4L16.5,7.6L13.45857864376269,7.6L12.95857864376269,7.1L11.45857864376269,7.1L10.5,6.141421356237309L9.54142135623731,7.1L7.95857864376269,7.1L7.45857864376269,6.6L6.95857864376269,6.6L6.45857864376269,6.1L6,6.1L6,5.9L6.54142135623731,5.9L7.04142135623731,6.4L7.54142135623731,6.4L8.04142135623731,6.9L9.45857864376269,6.9L10.35857864376269,6L9.45857864376269,5.1L8.45857864376269,5.1L7.95857864376269,4.6L7.5,4.6L7.5,4.4L8.04142135623731,4.4L8.54142135623731,4.9L9.54142135623731,4.9z" stroke="none"/><path d="M5.9,8.9L5.9,8.54142135623731L4.45857864376269,7.1L3.9585786437626904,7.1L3.4,6.54142135623731L3.4,5.45857864376269L3.9585786437626904,4.9L6.54142135623731,4.9L7.04142135623731,5.4L8.54142135623731,5.4L9.070710678118655,5.929289321881345L8.929289321881345,6.070710678118655L8.45857864376269,5.6L6.95857864376269,5.6L6.45857864376269,5.1L4.04142135623731,5.1L3.6,5.54142135623731L3.6,6.45857864376269L4.04142135623731,6.9L4.54142135623731,6.9L6.1,8.45857864376269L6.1,8.9L6.54142135623731,8.9L7.1,9.45857864376269L7.1,9.95857864376269L7.570710678118655,10.429289321881345L7.429289321881345,10.570710678118655L6.9,10.04142135623731L6.9,9.54142135623731L6.45857864376269,9.1L6.1,9.1L6.1,10.5L5.9,10.5L5.9,9.1L5.54142135623731,9.1L5.04142135623731,9.6L4.54142135623731,9.6L4.04142135623731,10.1L3.5414213562373096,10.1L3.0707106781186546,10.570710678118655L2.9292893218813454,10.429289321881345L3.4585786437626904,9.9L3.9585786437626904,9.9L4.45857864376269,9.4L4.95857864376269,9.4L5.45857864376269,8.9z" stroke="none"/><path d="M17.9,4.4L17.9,3L18.1,3L18.1,4.4L19.041421356237308,4.4L19.541421356237308,4.9L20.041421356237308,4.9L21.041421356237308,5.9L22.5,5.9L22.5,6.1L20.958578643762692,6.1L19.958578643762692,5.1L19.458578643762692,5.1L18.958578643762692,4.6L18.1,4.6L18.1,4.95857864376269L19.1,5.95857864376269L19.1,6.45857864376269L19.6,6.95857864376269L19.6,7.5L19.4,7.5L19.4,7.04142135623731L18.9,6.54142135623731L18.9,6.04142135623731L17.9,5.04142135623731L17.9,4.6L16.458578643762692,4.6L14.95857864376269,3.1L12,3.1L12,2.9L15.04142135623731,2.9L16.541421356237308,4.4z" stroke="none"/><path d="M25.4,3L25.6,3L25.6,4.5L25.4,4.5z" stroke="none"/><path d="M22.570710678118655,4.570710678118655L22.429289321881345,4.429289321881345L23.929289321881345,2.9292893218813454L24.070710678118655,3.0707106781186546z" stroke="none"/><path d="M21,11.9L21,12.1L18.958578643762692,12.1L18.458578643762692,11.6L17.458578643762692,11.6L16.958578643762692,11.1L16.041421356237308,11.1L15.6,11.54142135623731L15.6,12.45857864376269L16.041421356237308,12.9L16.541421356237308,12.9L17.041421356237308,13.4L21.958578643762692,13.4L22.958578643762692,12.4L23.458578643762692,12.4L23.929289321881345,11.929289321881345L24.070710678118655,12.070710678118655L23.541421356237308,12.6L23.041421356237308,12.6L22.041421356237308,13.6L16.958578643762692,13.6L16.458578643762692,13.1L15.95857864376269,13.1L15.4,12.54142135623731L15.4,11.45857864376269L15.95857864376269,10.9L17.041421356237308,10.9L17.541421356237308,11.4L18.541421356237308,11.4L19.041421356237308,11.9z" stroke="none"/><path d="M18,10.6L18,10.4L21,10.4L21,10.6z" stroke="none"/><path d="M9.070710678118655,12.070710678118655L8.929289321881345,11.929289321881345L9.4,11.45857864376269L9.4,9.95857864376269L10.429289321881345,8.929289321881345L10.570710678118655,9.070710678118655L9.6,10.04142135623731L9.6,11.54142135623731z" stroke="none"/><path d="M27.070710678118655,12.070710678118655L26.929289321881345,11.929289321881345L27.9,10.95857864376269L27.9,7.04142135623731L27.458578643762692,6.6L26.541421356237308,6.6L25.570710678118655,7.570710678118655L25.429289321881345,7.429289321881345L26.458578643762692,6.4L27.541421356237308,6.4L28.1,6.95857864376269L28.1,11.04142135623731z" stroke="none"/><path d="M19.5,3.1L19.5,2.9L22.458578643762692,2.9L23.458578643762692,1.9L26.041421356237308,1.9L26.6,2.4585786437626904L26.6,5.04142135623731L26.041421356237308,5.6L25.041421356237308,5.6L24.541421356237308,6.1L24,6.1L24,5.9L24.458578643762692,5.9L24.958578643762692,5.4L25.958578643762692,5.4L26.4,4.95857864376269L26.4,2.5414213562373096L25.958578643762692,2.1L23.541421356237308,2.1L22.541421356237308,3.1z" stroke="none"/><path d="M16.5,2.9L16.5,3.1L15.95857864376269,3.1L15.45857864376269,2.6L12.95857864376269,2.6L12.45857864376269,2.1L11.04142135623731,2.1L10.54142135623731,2.6L9.54142135623731,2.6L9.070710678118655,3.0707106781186546L8.929289321881345,2.9292893218813454L9.45857864376269,2.4L10.45857864376269,2.4L10.95857864376269,1.9L12.54142135623731,1.9L13.04142135623731,2.4L15.54142135623731,2.4L16.041421356237308,2.9z" stroke="none"/><path d="M10.4,10.5L10.6,10.5L10.6,11.54142135623731L10.1,12.04142135623731L10.1,12.54142135623731L9.54142135623731,13.1L3.9585786437626904,13.1L2.9292893218813454,12.070710678118655L3.0707106781186546,11.929289321881345L4.04142135623731,12.9L9.45857864376269,12.9L9.9,12.45857864376269L9.9,11.95857864376269L10.4,11.45857864376269z" stroke="none"/><path d="M4.5,12.1L4.5,11.9L5.45857864376269,11.9L5.95857864376269,11.4L7.95857864376269,11.4L8.4,10.95857864376269L8.4,9.95857864376269L9.4,8.95857864376269L9.4,8.45857864376269L9.95857864376269,7.9L11.04142135623731,7.9L12.070710678118655,8.929289321881345L11.929289321881345,9.070710678118655L10.95857864376269,8.1L10.04142135623731,8.1L9.6,8.54142135623731L9.6,9.04142135623731L8.6,10.04142135623731L8.6,11.04142135623731L8.04142135623731,11.6L6.04142135623731,11.6L5.54142135623731,12.1z" stroke="none"/><path d="M2.9292893218813454,8.929289321881345L3.0707106781186546,9.070710678118655L2.1,10.04142135623731L2.1,12.45857864376269L2.5414213562373096,12.9L3.0414213562373096,12.9L3.5414213562373096,13.4L9.95857864376269,13.4L10.45857864376269,12.9L10.95857864376269,12.9L11.929289321881345,11.929289321881345L12.070710678118655,12.070710678118655L11.04142135623731,13.1L10.54142135623731,13.1L10.04142135623731,13.6L3.4585786437626904,13.6L2.9585786437626904,13.1L2.4585786437626904,13.1L1.9,12.54142135623731L1.9,9.95857864376269z" stroke="none"/><path d="M3,3.1L3,2.9L7.54142135623731,2.9L8.54142135623731,3.9L9.54142135623731,3.9L10.54142135623731,4.9L11.04142135623731,4.9L12.070710678118655,5.929289321881345L11.929289321881345,6.070710678118655L10.95857864376269,5.1L10.45857864376269,5.1L9.45857864376269,4.1L8.45857864376269,4.1L7.45857864376269,3.1z" stroke="none"/><path d="M24,8.9L24,9.1L22.958578643762692,9.1L22.458578643762692,8.6L21.958578643762692,8.6L21.458578643762692,8.1L20.541421356237308,8.1L20.041421356237308,8.6L18.958578643762692,8.6L14.929289321881345,4.570710678118655L15.070710678118655,4.429289321881345L19.041421356237308,8.4L19.958578643762692,8.4L20.458578643762692,7.9L21.541421356237308,7.9L22.041421356237308,8.4L22.541421356237308,8.4L23.041421356237308,8.9z" stroke="none"/><path d="M2.9,4.5L3.1,4.5L3.1,7.04142135623731L2.1,8.04142135623731L2.1,8.54142135623731L1.6,9.04142135623731L1.6,12.95857864376269L2.5414213562373096,13.9L11.45857864376269,13.9L12.9,12.45857864376269L12.9,10.45857864376269L13.4,9.95857864376269L13.4,9L13.6,9L13.6,10.04142135623731L13.1,10.54142135623731L13.1,12.54142135623731L11.54142135623731,14.1L2.4585786437626904,14.1L1.4,13.04142135623731L1.4,8.95857864376269L1.9,8.45857864376269L1.9,7.95857864376269L2.9,6.95857864376269z" stroke="none"/><path d="M14.9,9L15.1,9L15.1,12.95857864376269L16.041421356237308,13.9L25.958578643762692,13.9L26.958578643762692,12.9L27.458578643762692,12.9L27.9,12.45857864376269L27.9,11.95857864376269L28.4,11.45857864376269L28.4,6.54142135623731L27.958578643762692,6.1L25.541421356237308,6.1L24.6,7.04142135623731L24.6,7.95857864376269L25.041421356237308,8.4L25.958578643762692,8.4L26.929289321881345,7.429289321881345L27.070710678118655,7.570710678118655L26.041421356237308,8.6L24.958578643762692,8.6L24.4,8.04142135623731L24.4,6.95857864376269L25.458578643762692,5.9L28.041421356237308,5.9L28.6,6.45857864376269L28.6,11.54142135623731L28.1,12.04142135623731L28.1,12.54142135623731L27.541421356237308,13.1L27.041421356237308,13.1L26.041421356237308,14.1L15.95857864376269,14.1L14.9,13.04142135623731z" stroke="none"/><path d="M16.570710678118655,8.929289321881345L16.429289321881345,9.070710678118655L15.45857864376269,8.1L11.95857864376269,8.1L11.45857864376269,7.6L7.45857864376269,7.6L6.95857864376269,7.1L5.45857864376269,7.1L4.429289321881345,6.070710678118655L4.570710678118655,5.929289321881345L5.54142135623731,6.9L7.04142135623731,6.9L7.54142135623731,7.4L11.54142135623731,7.4L12.04142135623731,7.9L15.54142135623731,7.9z" stroke="none"/></svg>