<svg version="1.1" width="30" height="15" xmlns="http://www.w3.org/2000/svg"><path d="M19.458578643762692,7.4L20.958578643762692,5.9L21.458578643762692,5.9L21.958578643762692,5.4L22.958578643762692,5.4L23.929289321881345,4.429289321881345L24.070710678118655,4.570710678118655L23.041421356237308,5.6L22.041421356237308,5.6L21.541421356237308,6.1L21.041421356237308,6.1L19.6,7.54142135623731L19.6,9L19.4,9L19.4,7.6L16.5,7.6L16.5,7.4z" stroke="none"/><path d="M16.958578643762692,3.9L17.958578643762692,2.9L21,2.9L21,3.1L18.041421356237308,3.1L17.041421356237308,4.1L14.1,4.1L14.1,4.54142135623731L13.54142135623731,5.1L13.04142135623731,5.1L12.54142135623731,5.6L12.04142135623731,5.6L11.54142135623731,6.1L10.5,6.1L10.5,5.9L11.45857864376269,5.9L11.95857864376269,5.4L12.45857864376269,5.4L12.95857864376269,4.9L13.45857864376269,4.9L13.9,4.45857864376269L13.9,4.1L11.45857864376269,4.1L10.429289321881345,3.0707106781186546L10.570710678118655,2.9292893218813454L11.54142135623731,3.9z" stroke="none"/><path d="M17.9,5.4L17.9,4.95857864376269L18.458578643762692,4.4L21.958578643762692,4.4L22.458578643762692,3.9L22.958578643762692,3.9L23.458578643762692,3.4L24.541421356237308,3.4L25.1,3.9585786437626904L25.1,5.04142135623731L22.570710678118655,7.570710678118655L22.429289321881345,7.429289321881345L24.9,4.95857864376269L24.9,4.04142135623731L24.458578643762692,3.6L23.541421356237308,3.6L23.041421356237308,4.1L22.541421356237308,4.1L22.041421356237308,4.6L18.541421356237308,4.6L18.1,5.04142135623731L18.1,5.4L19.041421356237308,5.4L19.570710678118655,5.929289321881345L19.429289321881345,6.070710678118655L18.958578643762692,5.6L18.1,5.6L18.1,6.04142135623731L17.541421356237308,6.6L11.54142135623731,6.6L11.04142135623731,7.1L9.95857864376269,7.1L9.4,6.54142135623731L9.4,2.4585786437626904L9.95857864376269,1.9L11.04142135623731,1.9L12.070710678118655,2.9292893218813454L11.929289321881345,3.0707106781186546L10.95857864376269,2.1L10.04142135623731,2.1L9.6,2.5414213562373096L9.6,6.45857864376269L10.04142135623731,6.9L10.95857864376269,6.9L11.45857864376269,6.4L17.458578643762692,6.4L17.9,5.95857864376269L17.9,5.6L17.541421356237308,5.6L17.041421356237308,6.1L16.5,6.1L16.5,5.9L16.958578643762692,5.9L17.458578643762692,5.4z" stroke="none"/><path d="M18.541421356237308,9.4L19.041421356237308,9.9L19.958578643762692,9.9L20.4,9.45857864376269L20.4,7.95857864376269L20.929289321881345,7.429289321881345L21.070710678118655,7.570710678118655L20.6,8.04142135623731L20.6,9.54142135623731L20.041421356237308,10.1L18.958578643762692,10.1L18.458578643762692,9.6L15.241421356237309,9.6L16.041421356237308,10.4L16.541421356237308,10.4L18.070710678118655,11.929289321881345L17.929289321881345,12.070710678118655L16.458578643762692,10.6L15.95857864376269,10.6L15.1,9.741421356237309L15.1,10.04142135623731L14.54142135623731,10.6L13.95857864376269,10.6L13.45857864376269,10.1L12.95857864376269,10.1L12.45857864376269,9.6L11.54142135623731,9.6L11.1,10.04142135623731L11.1,11.54142135623731L10.570710678118655,12.070710678118655L10.429289321881345,11.929289321881345L10.9,11.45857864376269L10.9,9.95857864376269L11.45857864376269,9.4L12.54142135623731,9.4L13.04142135623731,9.9L13.54142135623731,9.9L14.04142135623731,10.4L14.45857864376269,10.4L14.9,9.95857864376269L14.9,9.6L14.45857864376269,9.6L12.45857864376269,7.6L12,7.6L12,7.4L12.54142135623731,7.4L14.54142135623731,9.4z" stroke="none"/><path d="M11.9,10.5L12.1,10.5L12.1,12L11.9,12z" stroke="none"/><path d="M7.429289321881345,7.429289321881345L7.570710678118655,7.570710678118655L6.070710678118655,9.070710678118655L5.929289321881345,8.929289321881345z" stroke="none"/><path d="M9.070710678118655,10.429289321881345L8.929289321881345,10.570710678118655L7.429289321881345,9.070710678118655L7.570710678118655,8.929289321881345z" stroke="none"/><path d="M2.9292893218813454,10.570710678118655L3.0707106781186546,10.429289321881345L4.04142135623731,11.4L4.95857864376269,11.4L5.929289321881345,10.429289321881345L6.070710678118655,10.570710678118655L5.04142135623731,11.6L3.9585786437626904,11.6z" stroke="none"/><path d="M2.9292893218813454,7.570710678118655L3.0707106781186546,7.429289321881345L3.6,7.95857864376269L3.6,9.45857864376269L4.570710678118655,10.429289321881345L4.429289321881345,10.570710678118655L3.4,9.54142135623731L3.4,8.04142135623731z" stroke="none"/><path d="M25.429289321881345,8.929289321881345L25.570710678118655,9.070710678118655L25.041421356237308,9.6L24.041421356237308,9.6L23.041421356237308,10.6L22.5,10.6L22.5,10.4L22.958578643762692,10.4L23.958578643762692,9.4L24.958578643762692,9.4z" stroke="none"/><path d="M22.570710678118655,12.070710678118655L22.429289321881345,11.929289321881345L22.958578643762692,11.4L23.458578643762692,11.4L23.958578643762692,10.9L24.458578643762692,10.9L24.958578643762692,10.4L25.5,10.4L25.5,10.6L25.041421356237308,10.6L24.541421356237308,11.1L24.041421356237308,11.1L23.541421356237308,11.6L23.041421356237308,11.6z" stroke="none"/><path d="M2.9292893218813454,3.0707106781186546L3.0707106781186546,2.9292893218813454L3.5414213562373096,3.4L4.54142135623731,3.4L5.54142135623731,4.4L6,4.4L6,4.6L5.45857864376269,4.6L4.45857864376269,3.6L3.4585786437626904,3.6z" stroke="none"/><path d="M6.070710678118655,7.570710678118655L5.929289321881345,7.429289321881345L6.4,6.95857864376269L6.4,5.45857864376269L7.429289321881345,4.429289321881345L7.570710678118655,4.570710678118655L6.6,5.54142135623731L6.6,7.04142135623731z" stroke="none"/><path d="M7.570710678118655,6.070710678118655L7.429289321881345,5.929289321881345L8.4,4.95857864376269L8.4,4.04142135623731L7.95857864376269,3.6L6.95857864376269,3.6L6.45857864376269,3.1L5.45857864376269,3.1L4.95857864376269,2.6L3.9585786437626904,2.6L3.4585786437626904,2.1L2.5414213562373096,2.1L2.1,2.5414213562373096L2.1,3.4585786437626904L2.6,3.9585786437626904L2.6,4.45857864376269L3.1,4.95857864376269L3.1,5.45857864376269L4.1,6.45857864376269L4.1,7.95857864376269L4.6,8.45857864376269L4.6,9L4.4,9L4.4,8.54142135623731L3.9,8.04142135623731L3.9,6.54142135623731L2.9,5.54142135623731L2.9,5.04142135623731L2.4,4.54142135623731L2.4,4.04142135623731L1.9,3.5414213562373096L1.9,2.4585786437626904L2.4585786437626904,1.9L3.5414213562373096,1.9L4.04142135623731,2.4L5.04142135623731,2.4L5.54142135623731,2.9L6.54142135623731,2.9L7.04142135623731,3.4L8.04142135623731,3.4L8.6,3.9585786437626904L8.6,5.04142135623731z" stroke="none"/><path d="M25.6,6L25.4,6L25.4,3.5414213562373096L24.958578643762692,3.1L22.5,3.1L22.5,2.9L25.041421356237308,2.9L25.6,3.4585786437626904z" stroke="none"/><path d="M13.429289321881345,11.929289321881345L13.570710678118655,12.070710678118655L12.54142135623731,13.1L9.95857864376269,13.1L8.929289321881345,12.070710678118655L9.070710678118655,11.929289321881345L10.04142135623731,12.9L12.45857864376269,12.9z" stroke="none"/><path d="M6,11.9L6,12.1L2.9585786437626904,12.1L1.9,11.04142135623731L1.9,6.04142135623731L1.4,5.54142135623731L1.4,1.9585786437626904L1.9585786437626904,1.4L4.04142135623731,1.4L4.54142135623731,1.9L6.04142135623731,1.9L6.54142135623731,2.4L7.04142135623731,2.4L7.54142135623731,2.9L8.54142135623731,2.9L9.1,3.4585786437626904L9.1,6.95857864376269L10.6,8.45857864376269L10.6,9L10.4,9L10.4,8.54142135623731L8.9,7.04142135623731L8.9,3.5414213562373096L8.45857864376269,3.1L7.45857864376269,3.1L6.95857864376269,2.6L6.45857864376269,2.6L5.95857864376269,2.1L4.45857864376269,2.1L3.9585786437626904,1.6L2.0414213562373096,1.6L1.6,2.0414213562373096L1.6,5.45857864376269L2.1,5.95857864376269L2.1,10.95857864376269L3.0414213562373096,11.9z" stroke="none"/><path d="M25.5,11.9L25.5,12.1L25.041421356237308,12.1L24.541421356237308,12.6L24.041421356237308,12.6L23.541421356237308,13.1L21.458578643762692,13.1L20.958578643762692,12.6L19.958578643762692,12.6L19.429289321881345,12.070710678118655L19.570710678118655,11.929289321881345L20.041421356237308,12.4L21.041421356237308,12.4L21.541421356237308,12.9L23.458578643762692,12.9L23.958578643762692,12.4L24.458578643762692,12.4L24.958578643762692,11.9z" stroke="none"/><path d="M18,10.6L18,10.4L20.458578643762692,10.4L20.958578643762692,9.9L21.458578643762692,9.9L22.958578643762692,8.4L23.958578643762692,8.4L24.458578643762692,7.9L26.041421356237308,7.9L26.6,8.45857864376269L26.6,9.95857864376269L27.070710678118655,10.429289321881345L26.929289321881345,10.570710678118655L26.4,10.04142135623731L26.4,8.54142135623731L25.958578643762692,8.1L24.541421356237308,8.1L24.041421356237308,8.6L23.041421356237308,8.6L21.541421356237308,10.1L21.041421356237308,10.1L20.541421356237308,10.6z" stroke="none"/><path d="M27.070710678118655,2.9292893218813454L26.929289321881345,3.0707106781186546L26.458578643762692,2.6L23.458578643762692,2.6L22.958578643762692,2.1L19.541421356237308,2.1L19.041421356237308,2.6L17.541421356237308,2.6L17.041421356237308,3.1L16.5,3.1L16.5,2.9L16.958578643762692,2.9L17.458578643762692,2.4L18.958578643762692,2.4L19.458578643762692,1.9L23.041421356237308,1.9L23.541421356237308,2.4L26.541421356237308,2.4z" stroke="none"/></svg>