<svg version="1.1" width="30" height="15" xmlns="http://www.w3.org/2000/svg"><path d="M25.4,4.45857864376269L25.4,3.9585786437626904L26.458578643762692,2.9L27,2.9L27,3.1L26.541421356237308,3.1L25.6,4.04142135623731L25.6,4.4L27,4.4L27,4.6L25.541421356237308,4.6L24.541421356237308,5.6L23.041421356237308,5.6L22.541421356237308,6.1L21,6.1L21,5.9L22.458578643762692,5.9L22.958578643762692,5.4L24.458578643762692,5.4z" stroke="none"/><path d="M11.9,5.9L11.9,4.5L12.1,4.5L12.1,5.9L12.45857864376269,5.9L12.95857864376269,5.4L13.95857864376269,5.4L14.929289321881345,4.429289321881345L15.070710678118655,4.570710678118655L14.04142135623731,5.6L13.04142135623731,5.6L12.54142135623731,6.1L11.04142135623731,6.1L10.04142135623731,7.1L9.54142135623731,7.1L9.070710678118655,7.570710678118655L8.929289321881345,7.429289321881345L9.45857864376269,6.9L9.95857864376269,6.9L10.95857864376269,5.9z" stroke="none"/><path d="M16.4,2.5414213562373096L15.95857864376269,2.1L15.54142135623731,2.1L15.1,2.5414213562373096L15.1,2.9585786437626904L16.1,3.9585786437626904L16.1,5.04142135623731L15.54142135623731,5.6L15.04142135623731,5.6L14.54142135623731,6.1L13.54142135623731,6.1L13.04142135623731,6.6L12.04142135623731,6.6L10.04142135623731,8.6L8.45857864376269,8.6L7.9,8.04142135623731L7.9,6.95857864376269L10.429289321881345,4.429289321881345L10.570710678118655,4.570710678118655L8.1,7.04142135623731L8.1,7.95857864376269L8.54142135623731,8.4L9.95857864376269,8.4L11.95857864376269,6.4L12.95857864376269,6.4L13.45857864376269,5.9L14.45857864376269,5.9L14.95857864376269,5.4L15.45857864376269,5.4L15.9,4.95857864376269L15.9,4.04142135623731L14.9,3.0414213562373096L14.9,2.4585786437626904L15.45857864376269,1.9L16.041421356237308,1.9L16.6,2.4585786437626904L16.6,4.25857864376269L17.929289321881345,2.9292893218813454L18.070710678118655,3.0707106781186546L16.74142135623731,4.4L17.041421356237308,4.4L19.6,6.95857864376269L19.6,7.5L19.4,7.5L19.4,7.04142135623731L16.958578643762692,4.6L16.6,4.6L16.6,6L16.4,6z" stroke="none"/><path d="M7.4,3.4L7.4,3.0414213562373096L6.95857864376269,2.6L5.45857864376269,2.6L4.95857864376269,2.1L4.04142135623731,2.1L3.0707106781186546,3.0707106781186546L2.9292893218813454,2.9292893218813454L3.9585786437626904,1.9L5.04142135623731,1.9L5.54142135623731,2.4L7.04142135623731,2.4L7.6,2.9585786437626904L7.6,3.4L8.04142135623731,3.4L8.54142135623731,3.9L9.45857864376269,3.9L10.45857864376269,2.9L12,2.9L12,3.1L10.54142135623731,3.1L9.54142135623731,4.1L8.45857864376269,4.1L7.95857864376269,3.6L7.6,3.6L7.6,6L7.4,6L7.4,3.6L6.95857864376269,3.6L6.45857864376269,3.1L6,3.1L6,2.9L6.54142135623731,2.9L7.04142135623731,3.4z" stroke="none"/><path d="M24,10.4L24,10.6L22.5,10.6L22.5,10.4z" stroke="none"/><path d="M4.6,6L4.4,6L4.4,3L4.6,3z" stroke="none"/><path d="M10.5,10.6L10.5,10.4L13.5,10.4L13.5,10.6z" stroke="none"/><path d="M25.5,5.9L25.5,6.1L24.541421356237308,6.1L24.041421356237308,6.6L23.541421356237308,6.6L23.041421356237308,7.1L20.458578643762692,7.1L19.9,6.54142135623731L19.9,5.45857864376269L20.958578643762692,4.4L22.5,4.4L22.5,4.6L21.041421356237308,4.6L20.1,5.54142135623731L20.1,6.45857864376269L20.541421356237308,6.9L22.958578643762692,6.9L23.458578643762692,6.4L23.958578643762692,6.4L24.458578643762692,5.9z" stroke="none"/><path d="M7.429289321881345,8.929289321881345L7.570710678118655,9.070710678118655L6.54142135623731,10.1L5.45857864376269,10.1L4.95857864376269,9.6L3.4585786437626904,9.6L2.9292893218813454,9.070710678118655L3.0707106781186546,8.929289321881345L3.5414213562373096,9.4L5.04142135623731,9.4L5.54142135623731,9.9L6.45857864376269,9.9z" stroke="none"/><path d="M25.5,11.9L25.5,12.1L19.5,12.1L19.5,11.9z" stroke="none"/><path d="M3,12.1L3,11.9L4.45857864376269,11.9L5.95857864376269,10.4L9,10.4L9,10.6L6.04142135623731,10.6L4.54142135623731,12.1z" stroke="none"/><path d="M27.070710678118655,6.070710678118655L26.929289321881345,5.929289321881345L27.9,4.95857864376269L27.9,2.5414213562373096L27.458578643762692,2.1L22.541421356237308,2.1L21.541421356237308,3.1L21,3.1L21,2.9L21.458578643762692,2.9L22.458578643762692,1.9L27.541421356237308,1.9L28.1,2.4585786437626904L28.1,5.04142135623731z" stroke="none"/><path d="M3.0707106781186546,5.929289321881345L2.9292893218813454,6.070710678118655L1.9,5.04142135623731L1.9,2.4585786437626904L2.4585786437626904,1.9L2.9585786437626904,1.9L3.4585786437626904,1.4L5.54142135623731,1.4L6.04142135623731,1.9L7.54142135623731,1.9L8.04142135623731,2.4L8.54142135623731,2.4L9.070710678118655,2.9292893218813454L8.929289321881345,3.0707106781186546L8.45857864376269,2.6L7.95857864376269,2.6L7.45857864376269,2.1L5.95857864376269,2.1L5.45857864376269,1.6L3.5414213562373096,1.6L3.0414213562373096,2.1L2.5414213562373096,2.1L2.1,2.5414213562373096L2.1,4.95857864376269z" stroke="none"/><path d="M7.5,12.1L7.5,11.9L13.45857864376269,11.9L14.4,10.95857864376269L14.4,10.04142135623731L13.429289321881345,9.070710678118655L13.570710678118655,8.929289321881345L14.6,9.95857864376269L14.6,11.04142135623731L13.54142135623731,12.1z" stroke="none"/><path d="M27,8.9L27,9.1L23.958578643762692,9.1L22.958578643762692,8.1L21.541421356237308,8.1L21.041421356237308,8.6L20.041421356237308,8.6L19.570710678118655,9.070710678118655L19.429289321881345,8.929289321881345L19.958578643762692,8.4L20.958578643762692,8.4L21.458578643762692,7.9L23.041421356237308,7.9L24.041421356237308,8.9z" stroke="none"/><path d="M13.570710678118655,2.9292893218813454L13.429289321881345,3.0707106781186546L12.45857864376269,2.1L8.45857864376269,2.1L7.95857864376269,1.6L7.45857864376269,1.6L6.95857864376269,1.1L2.5414213562373096,1.1L1.6,2.0414213562373096L1.6,5.95857864376269L2.5414213562373096,6.9L5.54142135623731,6.9L6.070710678118655,7.429289321881345L5.929289321881345,7.570710678118655L5.45857864376269,7.1L2.4585786437626904,7.1L1.4,6.04142135623731L1.4,1.9585786437626904L2.4585786437626904,0.9L7.04142135623731,0.9L7.54142135623731,1.4L8.04142135623731,1.4L8.54142135623731,1.9L12.54142135623731,1.9z" stroke="none"/><path d="M24,7.6L24,7.4L26.041421356237308,7.4L26.541421356237308,7.9L27.541421356237308,7.9L28.1,8.45857864376269L28.1,9.54142135623731L27.541421356237308,10.1L26.041421356237308,10.1L24.541421356237308,11.6L21.458578643762692,11.6L20.958578643762692,11.1L18.958578643762692,11.1L15.45857864376269,7.6L15,7.6L15,7.4L15.54142135623731,7.4L19.041421356237308,10.9L21.041421356237308,10.9L21.541421356237308,11.4L24.458578643762692,11.4L25.958578643762692,9.9L27.458578643762692,9.9L27.9,9.45857864376269L27.9,8.54142135623731L27.458578643762692,8.1L26.458578643762692,8.1L25.958578643762692,7.6z" stroke="none"/><path d="M6.070710678118655,8.929289321881345L5.929289321881345,9.070710678118655L4.95857864376269,8.1L2.5414213562373096,8.1L2.1,8.54142135623731L2.1,12.45857864376269L2.5414213562373096,12.9L12.95857864376269,12.9L13.45857864376269,12.4L14.45857864376269,12.4L14.929289321881345,11.929289321881345L15.070710678118655,12.070710678118655L14.54142135623731,12.6L13.54142135623731,12.6L13.04142135623731,13.1L2.4585786437626904,13.1L1.9,12.54142135623731L1.9,8.45857864376269L2.4585786437626904,7.9L5.04142135623731,7.9z" stroke="none"/><path d="M13.570710678118655,4.570710678118655L13.429289321881345,4.429289321881345L14.4,3.4585786437626904L14.4,1.9585786437626904L14.95857864376269,1.4L17.541421356237308,1.4L18.041421356237308,1.9L18.541421356237308,1.9L20.541421356237308,3.9L21.458578643762692,3.9L21.958578643762692,3.4L23.041421356237308,3.4L24.070710678118655,4.429289321881345L23.929289321881345,4.570710678118655L22.958578643762692,3.6L22.041421356237308,3.6L21.541421356237308,4.1L20.458578643762692,4.1L18.458578643762692,2.1L17.958578643762692,2.1L17.458578643762692,1.6L15.04142135623731,1.6L14.6,2.0414213562373096L14.6,3.5414213562373096z" stroke="none"/><path d="M22.429289321881345,8.929289321881345L22.570710678118655,9.070710678118655L22.041421356237308,9.6L21.041421356237308,9.6L20.541421356237308,10.1L18.958578643762692,10.1L15.45857864376269,6.6L14.54142135623731,6.6L12.070710678118655,9.070710678118655L11.929289321881345,8.929289321881345L14.45857864376269,6.4L15.54142135623731,6.4L19.041421356237308,9.9L20.458578643762692,9.9L20.958578643762692,9.4L21.958578643762692,9.4z" stroke="none"/></svg>