<svg version="1.1" width="30" height="15" xmlns="http://www.w3.org/2000/svg"><path d="M5.95857864376269,5.9L6.9,4.95857864376269L6.9,4.04142135623731L5.929289321881345,3.0707106781186546L6.070710678118655,2.9292893218813454L7.1,3.9585786437626904L7.1,5.04142135623731L6.1,6.04142135623731L6.1,6.54142135623731L5.04142135623731,7.6L4.5,7.6L4.5,7.4L4.95857864376269,7.4L5.9,6.45857864376269L5.9,6.1L4.5,6.1L4.5,5.9z" stroke="none"/><path d="M19.5,11.9L19.5,12.1L17.6,12.1L17.6,12.45857864376269L18.041421356237308,12.9L19.458578643762692,12.9L20.458578643762692,11.9L21,11.9L21,12.1L20.541421356237308,12.1L19.541421356237308,13.1L17.958578643762692,13.1L17.4,12.54142135623731L17.4,12.1L12,12.1L12,11.9z" stroke="none"/><path d="M13.04142135623731,8.4L15.95857864376269,8.4L16.458578643762692,7.9L16.958578643762692,7.9L18.958578643762692,5.9L19.5,5.9L19.5,6.1L19.041421356237308,6.1L17.041421356237308,8.1L16.541421356237308,8.1L16.041421356237308,8.6L13.1,8.6L13.1,9.54142135623731L12.54142135623731,10.1L12.04142135623731,10.1L11.04142135623731,11.1L9.95857864376269,11.1L9.45857864376269,10.6L9,10.6L9,10.4L9.54142135623731,10.4L10.04142135623731,10.9L10.95857864376269,10.9L11.95857864376269,9.9L12.45857864376269,9.9L12.9,9.45857864376269L12.9,8.741421356237309L12.54142135623731,9.1L12.04142135623731,9.1L10.570710678118655,10.570710678118655L10.429289321881345,10.429289321881345L11.95857864376269,8.9L12.45857864376269,8.9L12.85857864376269,8.5L11.929289321881345,7.570710678118655L12.070710678118655,7.429289321881345z" stroke="none"/><path d="M12.9,6.4L12.9,6.04142135623731L12.45857864376269,5.6L11.04142135623731,5.6L10.54142135623731,6.1L9,6.1L9,5.9L10.45857864376269,5.9L10.95857864376269,5.4L12.54142135623731,5.4L13.1,5.95857864376269L13.1,6.4L13.54142135623731,6.4L14.54142135623731,7.4L15,7.4L15,7.6L14.45857864376269,7.6L13.45857864376269,6.6L13.1,6.6L13.1,6.95857864376269L14.04142135623731,7.9L15.45857864376269,7.9L15.95857864376269,7.4L16.458578643762692,7.4L17.4,6.45857864376269L17.4,4.95857864376269L17.929289321881345,4.429289321881345L18.070710678118655,4.570710678118655L17.6,5.04142135623731L17.6,6.54142135623731L16.541421356237308,7.6L16.041421356237308,7.6L15.54142135623731,8.1L13.95857864376269,8.1L12.9,7.04142135623731L12.9,6.6L11.54142135623731,6.6L11.1,7.04142135623731L11.1,8.54142135623731L10.570710678118655,9.070710678118655L10.429289321881345,8.929289321881345L10.9,8.45857864376269L10.9,6.95857864376269L11.45857864376269,6.4z" stroke="none"/><path d="M12.070710678118655,4.429289321881345L11.929289321881345,4.570710678118655L10.429289321881345,3.0707106781186546L10.570710678118655,2.9292893218813454z" stroke="none"/><path d="M7.429289321881345,7.429289321881345L7.570710678118655,7.570710678118655L6.070710678118655,9.070710678118655L5.929289321881345,8.929289321881345z" stroke="none"/><path d="M25.5,7.4L25.5,7.6L22.5,7.6L22.5,7.4z" stroke="none"/><path d="M7.5,12.1L7.5,11.9L10.5,11.9L10.5,12.1z" stroke="none"/><path d="M16.6,6L16.4,6L16.4,4.45857864376269L17.458578643762692,3.4L18.541421356237308,3.4L21.070710678118655,5.929289321881345L20.929289321881345,6.070710678118655L18.458578643762692,3.6L17.541421356237308,3.6L16.6,4.54142135623731z" stroke="none"/><path d="M3.0707106781186546,3.0707106781186546L2.9292893218813454,2.9292893218813454L3.9585786437626904,1.9L6.54142135623731,1.9L7.570710678118655,2.9292893218813454L7.429289321881345,3.0707106781186546L6.45857864376269,2.1L4.04142135623731,2.1z" stroke="none"/><path d="M3.0707106781186546,10.429289321881345L2.9292893218813454,10.570710678118655L1.9,9.54142135623731L1.9,7.95857864376269L2.9,6.95857864376269L2.9,6L3.1,6L3.1,7.04142135623731L2.1,8.04142135623731L2.1,9.45857864376269z" stroke="none"/><path d="M2.9292893218813454,9.070710678118655L3.0707106781186546,8.929289321881345L4.1,9.95857864376269L4.1,11.04142135623731L3.5414213562373096,11.6L2.4585786437626904,11.6L1.9,11.04142135623731L1.9,10.54142135623731L1.4,10.04142135623731L1.4,5.95857864376269L2.4585786437626904,4.9L4.95857864376269,4.9L5.45857864376269,4.4L6,4.4L6,4.6L5.54142135623731,4.6L5.04142135623731,5.1L2.5414213562373096,5.1L1.6,6.04142135623731L1.6,9.95857864376269L2.1,10.45857864376269L2.1,10.95857864376269L2.5414213562373096,11.4L3.4585786437626904,11.4L3.9,10.95857864376269L3.9,10.04142135623731z" stroke="none"/><path d="M24.070710678118655,11.929289321881345L23.929289321881345,12.070710678118655L23.458578643762692,11.6L22.958578643762692,11.6L21.958578643762692,10.6L21.458578643762692,10.6L19.958578643762692,9.1L19.5,9.1L19.5,8.9L20.041421356237308,8.9L21.541421356237308,10.4L22.041421356237308,10.4L23.041421356237308,11.4L23.541421356237308,11.4z" stroke="none"/><path d="M27,2.9L27,3.1L21,3.1L21,2.9z" stroke="none"/><path d="M22.5,4.6L22.5,4.4L26.958578643762692,4.4L27.9,3.4585786437626904L27.9,2.5414213562373096L27.458578643762692,2.1L18.541421356237308,2.1L18.041421356237308,2.6L17.041421356237308,2.6L16.570710678118655,3.0707106781186546L16.429289321881345,2.9292893218813454L16.958578643762692,2.4L17.958578643762692,2.4L18.458578643762692,1.9L27.541421356237308,1.9L28.1,2.4585786437626904L28.1,3.5414213562373096L27.041421356237308,4.6z" stroke="none"/><path d="M16.570710678118655,10.570710678118655L16.429289321881345,10.429289321881345L18.958578643762692,7.9L21.041421356237308,7.9L21.541421356237308,8.4L22.041421356237308,8.4L22.570710678118655,8.929289321881345L22.429289321881345,9.070710678118655L21.958578643762692,8.6L21.458578643762692,8.6L20.958578643762692,8.1L19.041421356237308,8.1z" stroke="none"/><path d="M26.929289321881345,7.429289321881345L27.070710678118655,7.570710678118655L26.1,8.54142135623731L26.1,10.04142135623731L25.6,10.54142135623731L25.6,12.04142135623731L24.541421356237308,13.1L23.458578643762692,13.1L21.458578643762692,11.1L18.458578643762692,11.1L17.929289321881345,10.570710678118655L18.070710678118655,10.429289321881345L18.541421356237308,10.9L21.541421356237308,10.9L23.541421356237308,12.9L24.458578643762692,12.9L25.4,11.95857864376269L25.4,10.45857864376269L25.9,9.95857864376269L25.9,8.45857864376269z" stroke="none"/><path d="M24,5.9L24,6.1L23.041421356237308,6.1L22.541421356237308,6.6L22.041421356237308,6.6L21.041421356237308,7.6L18.541421356237308,7.6L16.541421356237308,9.6L16.041421356237308,9.6L15.070710678118655,10.570710678118655L14.929289321881345,10.429289321881345L15.95857864376269,9.4L16.458578643762692,9.4L18.458578643762692,7.4L20.958578643762692,7.4L21.958578643762692,6.4L22.458578643762692,6.4L22.958578643762692,5.9z" stroke="none"/><path d="M15.070710678118655,5.929289321881345L14.929289321881345,6.070710678118655L10.95857864376269,2.1L7.45857864376269,2.1L6.95857864376269,1.6L3.0414213562373096,1.6L2.1,2.5414213562373096L2.1,3.4585786437626904L2.5414213562373096,3.9L3.4585786437626904,3.9L4.429289321881345,2.9292893218813454L4.570710678118655,3.0707106781186546L3.5414213562373096,4.1L2.4585786437626904,4.1L1.9,3.5414213562373096L1.9,2.4585786437626904L2.9585786437626904,1.4L7.04142135623731,1.4L7.54142135623731,1.9L11.04142135623731,1.9z" stroke="none"/><path d="M8.929289321881345,4.429289321881345L9.070710678118655,4.570710678118655L8.1,5.54142135623731L8.1,6.45857864376269L8.6,6.95857864376269L8.6,8.04142135623731L8.1,8.54142135623731L8.1,9.04142135623731L7.6,9.54142135623731L7.6,10.04142135623731L7.1,10.54142135623731L7.1,11.04142135623731L6.6,11.54142135623731L6.6,12.45857864376269L7.04142135623731,12.9L17.041421356237308,12.9L17.541421356237308,13.4L24.958578643762692,13.4L25.9,12.45857864376269L25.9,10.95857864376269L26.4,10.45857864376269L26.4,9.95857864376269L27.4,8.95857864376269L27.4,8.45857864376269L27.9,7.95857864376269L27.9,7.04142135623731L27.458578643762692,6.6L26.958578643762692,6.6L25.958578643762692,5.6L25.458578643762692,5.6L24.958578643762692,5.1L23.541421356237308,5.1L23.041421356237308,5.6L21.958578643762692,5.6L20.929289321881345,4.570710678118655L21.070710678118655,4.429289321881345L22.041421356237308,5.4L22.958578643762692,5.4L23.458578643762692,4.9L25.041421356237308,4.9L25.541421356237308,5.4L26.041421356237308,5.4L27.041421356237308,6.4L27.541421356237308,6.4L28.1,6.95857864376269L28.1,8.04142135623731L27.6,8.54142135623731L27.6,9.04142135623731L26.6,10.04142135623731L26.6,10.54142135623731L26.1,11.04142135623731L26.1,12.54142135623731L25.041421356237308,13.6L17.458578643762692,13.6L16.958578643762692,13.1L6.95857864376269,13.1L6.4,12.54142135623731L6.4,11.45857864376269L6.9,10.95857864376269L6.9,10.45857864376269L7.4,9.95857864376269L7.4,9.45857864376269L7.9,8.95857864376269L7.9,8.45857864376269L8.4,7.95857864376269L8.4,7.04142135623731L7.9,6.54142135623731L7.9,5.45857864376269z" stroke="none"/><circle cx="4.5" cy="6" r="0.25" stroke-width="0" fill="#000" /><circle cx="4.5" cy="7.5" r="0.25" stroke-width="0" fill="#000" /><circle cx="6" cy="3" r="0.25" stroke-width="0" fill="#000" /><circle cx="19.5" cy="12" r="0.25" stroke-width="0" fill="#000" /><circle cx="21" cy="12" r="0.25" stroke-width="0" fill="#000" /><circle cx="12" cy="12" r="0.25" stroke-width="0" fill="#000" /><circle cx="12" cy="7.5" r="0.25" stroke-width="0" fill="#000" /><circle cx="10.5" cy="10.5" r="0.25" stroke-width="0" fill="#000" /><circle cx="9" cy="10.5" r="0.25" stroke-width="0" fill="#000" /><circle cx="19.5" cy="6" r="0.25" stroke-width="0" fill="#000" /><circle cx="15" cy="7.5" r="0.25" stroke-width="0" fill="#000" /><circle cx="10.5" cy="9" r="0.25" stroke-width="0" fill="#000" /><circle cx="9" cy="6" r="0.25" stroke-width="0" fill="#000" /><circle cx="18" cy="4.5" r="0.25" stroke-width="0" fill="#000" /><circle cx="12" cy="4.5" r="0.25" stroke-width="0" fill="#000" /><circle cx="10.5" cy="3" r="0.25" stroke-width="0" fill="#000" /><circle cx="7.5" cy="7.5" r="0.25" stroke-width="0" fill="#000" /><circle cx="6" cy="9" r="0.25" stroke-width="0" fill="#000" /><circle cx="25.5" cy="7.5" r="0.25" stroke-width="0" fill="#000" /><circle cx="22.5" cy="7.5" r="0.25" stroke-width="0" fill="#000" /><circle cx="7.5" cy="12" r="0.25" stroke-width="0" fill="#000" /><circle cx="10.5" cy="12" r="0.25" stroke-width="0" fill="#000" /><circle cx="16.5" cy="6" r="0.25" stroke-width="0" fill="#000" /><circle cx="21" cy="6" r="0.25" stroke-width="0" fill="#000" /><circle cx="3" cy="3" r="0.25" stroke-width="0" fill="#000" /><circle cx="7.5" cy="3" r="0.25" stroke-width="0" fill="#000" /><circle cx="3" cy="10.5" r="0.25" stroke-width="0" fill="#000" /><circle cx="3" cy="6" r="0.25" stroke-width="0" fill="#000" /><circle cx="3" cy="9" r="0.25" stroke-width="0" fill="#000" /><circle cx="6" cy="4.5" r="0.25" stroke-width="0" fill="#000" /><circle cx="24" cy="12" r="0.25" stroke-width="0" fill="#000" /><circle cx="19.5" cy="9" r="0.25" stroke-width="0" fill="#000" /><circle cx="27" cy="3" r="0.25" stroke-width="0" fill="#000" /><circle cx="21" cy="3" r="0.25" stroke-width="0" fill="#000" /><circle cx="22.5" cy="4.5" r="0.25" stroke-width="0" fill="#000" /><circle cx="16.5" cy="3" r="0.25" stroke-width="0" fill="#000" /><circle cx="16.5" cy="10.5" r="0.25" stroke-width="0" fill="#000" /><circle cx="22.5" cy="9" r="0.25" stroke-width="0" fill="#000" /><circle cx="27" cy="7.5" r="0.25" stroke-width="0" fill="#000" /><circle cx="18" cy="10.5" r="0.25" stroke-width="0" fill="#000" /><circle cx="24" cy="6" r="0.25" stroke-width="0" fill="#000" /><circle cx="15" cy="10.5" r="0.25" stroke-width="0" fill="#000" /><circle cx="15" cy="6" r="0.25" stroke-width="0" fill="#000" /><circle cx="4.5" cy="3" r="0.25" stroke-width="0" fill="#000" /><circle cx="9" cy="4.5" r="0.25" stroke-width="0" fill="#000" /><circle cx="21" cy="4.5" r="0.25" stroke-width="0" fill="#000" /><rect x="0" y="0" width="30" height="15" stroke-width="0.4" stroke="#000" fill="none" /></svg>