<svg version="1.1" width="30" height="15" xmlns="http://www.w3.org/2000/svg"><path d="M8.95857864376269,10.4L9.45857864376269,9.9L9.95857864376269,9.9L10.45857864376269,9.4L10.95857864376269,9.4L11.45857864376269,8.9L11.95857864376269,8.9L13.429289321881345,7.429289321881345L13.570710678118655,7.570710678118655L12.04142135623731,9.1L11.54142135623731,9.1L11.04142135623731,9.6L10.54142135623731,9.6L10.04142135623731,10.1L9.54142135623731,10.1L9.1,10.54142135623731L9.1,12.04142135623731L8.04142135623731,13.1L5.95857864376269,13.1L4.95857864376269,12.1L4.5,12.1L4.5,11.9L5.04142135623731,11.9L6.04142135623731,12.9L7.95857864376269,12.9L8.9,11.95857864376269L8.9,10.6L7.5,10.6L7.5,10.4z" stroke="none"/><path d="M18.041421356237308,4.4L19.041421356237308,5.4L19.958578643762692,5.4L20.929289321881345,4.429289321881345L21.070710678118655,4.570710678118655L20.041421356237308,5.6L18.958578643762692,5.6L17.958578643762692,4.6L17.6,4.6L17.6,5.45857864376269L18.070710678118655,5.929289321881345L17.929289321881345,6.070710678118655L17.4,5.54142135623731L17.4,4.6L16.958578643762692,4.6L16.458578643762692,4.1L14.45857864376269,4.1L13.429289321881345,3.0707106781186546L13.570710678118655,2.9292893218813454L14.54142135623731,3.9L16.541421356237308,3.9L17.041421356237308,4.4z" stroke="none"/><path d="M21.458578643762692,7.4L21.9,6.95857864376269L21.9,6.45857864376269L22.429289321881345,5.929289321881345L22.570710678118655,6.070710678118655L22.1,6.54142135623731L22.1,7.04142135623731L21.74142135623731,7.4L22.458578643762692,7.4L23.929289321881345,5.929289321881345L24.070710678118655,6.070710678118655L22.541421356237308,7.6L21.6,7.6L21.6,9.45857864376269L22.041421356237308,9.9L22.958578643762692,9.9L23.929289321881345,8.929289321881345L24.070710678118655,9.070710678118655L23.041421356237308,10.1L21.958578643762692,10.1L21.4,9.54142135623731L21.4,7.6L21.041421356237308,7.6L20.6,8.04142135623731L20.6,9.54142135623731L20.041421356237308,10.1L17.541421356237308,10.1L17.041421356237308,10.6L16.5,10.6L16.5,10.4L16.958578643762692,10.4L17.458578643762692,9.9L19.958578643762692,9.9L20.4,9.45857864376269L20.4,7.95857864376269L20.958578643762692,7.4z" stroke="none"/><path d="M8.4,6.9L8.4,5.54142135623731L7.95857864376269,5.1L6.45857864376269,5.1L5.929289321881345,4.570710678118655L6.070710678118655,4.429289321881345L6.54142135623731,4.9L8.04142135623731,4.9L8.6,5.45857864376269L8.6,6.9L10.45857864376269,6.9L10.95857864376269,6.4L11.45857864376269,6.4L11.929289321881345,5.929289321881345L12.070710678118655,6.070710678118655L11.54142135623731,6.6L11.04142135623731,6.6L10.54142135623731,7.1L8.54142135623731,7.1L8.1,7.54142135623731L8.1,8.54142135623731L7.570710678118655,9.070710678118655L7.429289321881345,8.929289321881345L7.9,8.45857864376269L7.9,7.45857864376269L8.258578643762691,7.1L6.04142135623731,7.1L5.54142135623731,7.6L4.5,7.6L4.5,7.4L5.45857864376269,7.4L5.95857864376269,6.9z" stroke="none"/><path d="M24.1,12L23.9,12L23.9,10.5L24.1,10.5z" stroke="none"/><path d="M19.570710678118655,12.070710678118655L19.429289321881345,11.929289321881345L20.929289321881345,10.429289321881345L21.070710678118655,10.570710678118655z" stroke="none"/><path d="M27.070710678118655,11.929289321881345L26.929289321881345,12.070710678118655L25.429289321881345,10.570710678118655L25.570710678118655,10.429289321881345z" stroke="none"/><path d="M19.570710678118655,4.570710678118655L19.429289321881345,4.429289321881345L20.929289321881345,2.9292893218813454L21.070710678118655,3.0707106781186546z" stroke="none"/><path d="M16.5,3.1L16.5,2.9L19.5,2.9L19.5,3.1z" stroke="none"/><path d="M9,3.1L9,2.9L12,2.9L12,3.1z" stroke="none"/><path d="M10.570710678118655,12.070710678118655L10.429289321881345,11.929289321881345L10.95857864376269,11.4L11.45857864376269,11.4L11.95857864376269,10.9L12.45857864376269,10.9L12.95857864376269,10.4L13.5,10.4L13.5,10.6L13.04142135623731,10.6L12.54142135623731,11.1L12.04142135623731,11.1L11.54142135623731,11.6L11.04142135623731,11.6z" stroke="none"/><path d="M7.5,11.9L7.5,12.1L6.45857864376269,12.1L5.95857864376269,11.6L5.45857864376269,11.6L4.429289321881345,10.570710678118655L4.570710678118655,10.429289321881345L5.54142135623731,11.4L6.04142135623731,11.4L6.54142135623731,11.9z" stroke="none"/><path d="M22.570710678118655,9.070710678118655L22.429289321881345,8.929289321881345L23.458578643762692,7.9L24.458578643762692,7.9L24.958578643762692,7.4L25.5,7.4L25.5,7.6L25.041421356237308,7.6L24.541421356237308,8.1L23.541421356237308,8.1z" stroke="none"/><path d="M16.429289321881345,12.070710678118655L16.570710678118655,11.929289321881345L17.041421356237308,12.4L18.041421356237308,12.4L18.541421356237308,12.9L19.958578643762692,12.9L20.929289321881345,11.929289321881345L21.070710678118655,12.070710678118655L20.041421356237308,13.1L18.458578643762692,13.1L17.958578643762692,12.6L16.958578643762692,12.6z" stroke="none"/><path d="M6.070710678118655,10.429289321881345L5.929289321881345,10.570710678118655L3.4,8.04142135623731L3.4,6.95857864376269L3.9585786437626904,6.4L6.45857864376269,6.4L6.95857864376269,5.9L7.5,5.9L7.5,6.1L7.04142135623731,6.1L6.54142135623731,6.6L4.04142135623731,6.6L3.6,7.04142135623731L3.6,7.95857864376269z" stroke="none"/><path d="M3.1,12L2.9,12L2.9,6.45857864376269L4.9,4.45857864376269L4.9,3.9585786437626904L5.45857864376269,3.4L8.04142135623731,3.4L8.54142135623731,3.9L11.54142135623731,3.9L13.1,5.45857864376269L13.1,6.54142135623731L11.54142135623731,8.1L11.04142135623731,8.1L10.54142135623731,8.6L10.04142135623731,8.6L9.54142135623731,9.1L9,9.1L9,8.9L9.45857864376269,8.9L9.95857864376269,8.4L10.45857864376269,8.4L10.95857864376269,7.9L11.45857864376269,7.9L12.9,6.45857864376269L12.9,5.54142135623731L11.45857864376269,4.1L8.45857864376269,4.1L7.95857864376269,3.6L5.54142135623731,3.6L5.1,4.04142135623731L5.1,4.54142135623731L3.1,6.54142135623731z" stroke="none"/><path d="M13.429289321881345,4.570710678118655L13.570710678118655,4.429289321881345L17.041421356237308,7.9L17.541421356237308,7.9L18.541421356237308,8.9L19.5,8.9L19.5,9.1L18.458578643762692,9.1L17.458578643762692,8.1L16.958578643762692,8.1z" stroke="none"/><path d="M27.1,10.5L26.9,10.5L26.9,7.54142135623731L24.458578643762692,5.1L22.041421356237308,5.1L19.570710678118655,7.570710678118655L19.429289321881345,7.429289321881345L21.958578643762692,4.9L24.541421356237308,4.9L27.1,7.45857864376269z" stroke="none"/><path d="M14.9,7.5L15.1,7.5L15.1,10.95857864376269L15.6,11.45857864376269L15.6,12.45857864376269L16.041421356237308,12.9L17.541421356237308,12.9L18.041421356237308,13.4L26.958578643762692,13.4L27.9,12.45857864376269L27.9,9.54142135623731L27.4,9.04142135623731L27.4,7.04142135623731L26.9,6.54142135623731L26.9,6.04142135623731L26.4,5.54142135623731L26.4,4.04142135623731L25.958578643762692,3.6L24.458578643762692,3.6L23.929289321881345,3.0707106781186546L24.070710678118655,2.9292893218813454L24.541421356237308,3.4L26.041421356237308,3.4L26.6,3.9585786437626904L26.6,5.45857864376269L27.1,5.95857864376269L27.1,6.45857864376269L27.6,6.95857864376269L27.6,8.95857864376269L28.1,9.45857864376269L28.1,12.54142135623731L27.041421356237308,13.6L17.958578643762692,13.6L17.458578643762692,13.1L15.95857864376269,13.1L15.4,12.54142135623731L15.4,11.54142135623731L14.9,11.04142135623731z" stroke="none"/><path d="M15.070710678118655,3.0707106781186546L14.929289321881345,2.9292893218813454L15.95857864376269,1.9L21.541421356237308,1.9L23.541421356237308,3.9L25.041421356237308,3.9L25.570710678118655,4.429289321881345L25.429289321881345,4.570710678118655L24.958578643762692,4.1L23.458578643762692,4.1L21.458578643762692,2.1L16.041421356237308,2.1z" stroke="none"/></svg>