<svg version="1.1" width="30" height="15" xmlns="http://www.w3.org/2000/svg"><path d="M4.4,7.4L4.4,6L4.6,6L4.6,7.4L4.9,7.4L4.9,6.9L5.4,6.9L5.4,5.9L6,5.9L6,6.1L5.6,6.1L5.6,7.1L5.1,7.1L5.1,7.6L3,7.6L3,7.4z" stroke="none"/><path d="M21.4,3.4L21.4,2.9L22.5,2.9L22.5,3.1L21.6,3.1L21.6,3.6L20.1,3.6L20.1,5.4L21.1,5.4L21.1,6L20.9,6L20.9,5.6L19.9,5.6L19.9,3.6L17.9,3.6L17.9,3L18.1,3L18.1,3.4z" stroke="none"/><path d="M8.9,6.9L8.9,6.6L8.4,6.6L8.4,5.6L7.4,5.6L7.4,5.1L3.1,5.1L3.1,6L2.9,6L2.9,4.9L7.6,4.9L7.6,5.4L8.6,5.4L8.6,6.4L9.1,6.4L9.1,6.9L9.4,6.9L9.4,6.4L9.9,6.4L9.9,5.9L10.5,5.9L10.5,6.1L10.1,6.1L10.1,6.6L9.6,6.6L9.6,7.1L9.1,7.1L9.1,7.4L12.4,7.4L12.4,6.4L13.4,6.4L13.4,5.9L15,5.9L15,6.1L13.6,6.1L13.6,6.6L12.6,6.6L12.6,7.6L8.9,7.6L8.9,7.1L8.6,7.1L8.6,7.6L8.1,7.6L8.1,8.1L7.6,8.1L7.6,10.5L7.4,10.5L7.4,7.9L7.9,7.9L7.9,7.4L8.4,7.4L8.4,6.9z" stroke="none"/><path d="M21.4,8.4L21.4,8.1L20.9,8.1L20.9,7.6L19.4,7.6L19.4,7.1L17.6,7.1L17.6,8.1L17.1,8.1L17.1,9.1L16.5,9.1L16.5,8.9L16.9,8.9L16.9,7.9L17.4,7.9L17.4,6.9L19.6,6.9L19.6,7.4L21.1,7.4L21.1,7.9L21.6,7.9L21.6,8.4L25.9,8.4L25.9,7.9L26.4,7.9L26.4,7.4L27,7.4L27,7.6L26.6,7.6L26.6,8.1L26.1,8.1L26.1,8.6L21.6,8.6L21.6,8.9L24.1,8.9L24.1,9.4L25.6,9.4L25.6,10.5L25.4,10.5L25.4,9.6L23.9,9.6L23.9,9.1L21.4,9.1L21.4,8.6L20.4,8.6L20.4,8.1L18.4,8.1L18.4,7.6L18,7.6L18,7.4L18.6,7.4L18.6,7.9L20.6,7.9L20.6,8.4z" stroke="none"/><path d="M6,10.4L6,10.6L4.5,10.6L4.5,10.4z" stroke="none"/><path d="M24,3.1L24,2.9L25.5,2.9L25.5,3.1z" stroke="none"/><path d="M19.6,12L19.4,12L19.4,10.5L19.6,10.5z" stroke="none"/><path d="M24,5.9L24,6.1L23.4,6.1L23.4,5.1L22.4,5.1L22.4,4.5L22.6,4.5L22.6,4.9L23.6,4.9L23.6,5.9z" stroke="none"/><path d="M14.9,10.5L15.1,10.5L15.1,11.6L14.6,11.6L14.6,12.1L13.5,12.1L13.5,11.9L14.4,11.9L14.4,11.4L14.9,11.4z" stroke="none"/><path d="M27.1,12L26.9,12L26.9,9L27.1,9z" stroke="none"/><path d="M15,4.4L15,4.6L13.4,4.6L13.4,4.1L12.9,4.1L12.9,3.6L12.4,3.6L12.4,3.1L12,3.1L12,2.9L12.6,2.9L12.6,3.4L13.1,3.4L13.1,3.9L13.6,3.9L13.6,4.4z" stroke="none"/><path d="M12.1,6L11.9,6L11.9,5.1L11.4,5.1L11.4,3.6L10.9,3.6L10.9,1.9L16.1,1.9L16.1,8.1L15.1,8.1L15.1,9L14.9,9L14.9,7.9L15.9,7.9L15.9,2.1L11.1,2.1L11.1,3.4L11.6,3.4L11.6,4.9L12.1,4.9z" stroke="none"/><path d="M21,4.6L21,4.4L21.6,4.4L21.6,5.4L22.1,5.4L22.1,6.4L23.6,6.4L23.6,6.9L24.4,6.9L24.4,6.4L24.9,6.4L24.9,5.9L25.5,5.9L25.5,6.1L25.1,6.1L25.1,6.6L24.6,6.6L24.6,7.1L23.4,7.1L23.4,6.6L21.9,6.6L21.9,5.6L21.4,5.6L21.4,4.6z" stroke="none"/><path d="M9,9.1L9,8.9L12.1,8.9L12.1,9.4L12.6,9.4L12.6,9.9L13.1,9.9L13.1,10.4L13.5,10.4L13.5,10.6L12.9,10.6L12.9,10.1L12.4,10.1L12.4,9.6L11.9,9.6L11.9,9.1z" stroke="none"/><path d="M5.9,7.5L6.1,7.5L6.1,8.1L4.1,8.1L4.1,8.6L2.4,8.6L2.4,8.1L1.9,8.1L1.9,5.4L2.4,5.4L2.4,4.4L7.4,4.4L7.4,3.9L8.4,3.9L8.4,3.4L8.9,3.4L8.9,3L9.1,3L9.1,3.6L8.6,3.6L8.6,4.1L7.6,4.1L7.6,4.6L2.6,4.6L2.6,5.6L2.1,5.6L2.1,7.9L2.6,7.9L2.6,8.4L3.9,8.4L3.9,7.9L5.9,7.9z" stroke="none"/><path d="M24,11.9L24,12.1L20.6,12.1L20.6,13.1L18.9,13.1L18.9,12.6L17.9,12.6L17.9,12L18.1,12L18.1,12.4L19.1,12.4L19.1,12.9L20.4,12.9L20.4,11.9z" stroke="none"/><path d="M9.1,4.5L8.9,4.5L8.9,3.9L9.4,3.9L9.4,3.4L9.9,3.4L9.9,2.6L9.4,2.6L9.4,2.1L6.6,2.1L6.6,2.6L6.1,2.6L6.1,3.1L4.6,3.1L4.6,3.6L4.1,3.6L4.1,4.1L2.1,4.1L2.1,5.1L1.6,5.1L1.6,8.9L4.5,8.9L4.5,9.1L1.4,9.1L1.4,4.9L1.9,4.9L1.9,3.9L3.9,3.9L3.9,3.4L4.4,3.4L4.4,2.9L5.9,2.9L5.9,2.4L6.4,2.4L6.4,1.9L9.6,1.9L9.6,2.4L10.1,2.4L10.1,3.6L9.6,3.6L9.6,4.1L9.1,4.1z" stroke="none"/><path d="M27.1,4.5L26.9,4.5L26.9,3.6L26.4,3.6L26.4,2.1L17.6,2.1L17.6,2.6L17.1,2.6L17.1,3.9L17.6,3.9L17.6,4.4L18,4.4L18,4.6L17.4,4.6L17.4,4.1L16.9,4.1L16.9,2.4L17.4,2.4L17.4,1.9L26.6,1.9L26.6,3.4L27.1,3.4z" stroke="none"/><path d="M19.4,9L19.6,9L19.6,9.6L19.1,9.6L19.1,10.1L18.1,10.1L18.1,10.6L16.1,10.6L16.1,11.1L15.6,11.1L15.6,12.6L14.1,12.6L14.1,13.1L12.4,13.1L12.4,12.6L11.4,12.6L11.4,12.1L10.5,12.1L10.5,11.9L11.6,11.9L11.6,12.4L12.6,12.4L12.6,12.9L13.9,12.9L13.9,12.4L15.4,12.4L15.4,10.9L15.9,10.9L15.9,10.4L17.9,10.4L17.9,9.9L18.9,9.9L18.9,9.4L19.4,9.4z" stroke="none"/><path d="M13.6,9L13.4,9L13.4,8.6L9.9,8.6L9.9,8.1L8.6,8.1L8.6,8.6L8.1,8.6L8.1,9.4L8.6,9.4L8.6,9.9L9.1,9.9L9.1,10.9L9.6,10.9L9.6,12.4L10.1,12.4L10.1,12.9L10.6,12.9L10.6,13.4L27.9,13.4L27.9,6.6L26.1,6.6L26.1,7.1L25.6,7.1L25.6,7.5L25.4,7.5L25.4,6.9L25.9,6.9L25.9,6.4L28.1,6.4L28.1,13.6L10.4,13.6L10.4,13.1L9.9,13.1L9.9,12.6L9.4,12.6L9.4,11.1L8.9,11.1L8.9,10.1L8.4,10.1L8.4,9.6L7.9,9.6L7.9,8.4L8.4,8.4L8.4,7.9L10.1,7.9L10.1,8.4L13.6,8.4z" stroke="none"/></svg>