<svg version="1.1" width="30" height="15" xmlns="http://www.w3.org/2000/svg"><path d="M14.4,7.4L14.4,6.4L14.9,6.4L14.9,6L15.1,6L15.1,6.6L14.6,6.6L14.6,7.6L13.6,7.6L13.6,7.9L14.9,7.9L14.9,7.4L16.9,7.4L16.9,6.4L17.9,6.4L17.9,6L18.1,6L18.1,6.6L17.1,6.6L17.1,7.6L15.1,7.6L15.1,8.1L13.4,8.1L13.4,7.6L13.1,7.6L13.1,8.1L9.6,8.1L9.6,9.6L9.1,9.6L9.1,10.1L7.6,10.1L7.6,10.5L7.4,10.5L7.4,9.9L8.9,9.9L8.9,9.4L9.4,9.4L9.4,7.9L12.9,7.9L12.9,7.4z" stroke="none"/><path d="M11.4,3.4L11.4,3.1L9.9,3.1L9.9,2.6L9.4,2.6L9.4,2.1L8.6,2.1L8.6,2.6L7.6,2.6L7.6,3L7.4,3L7.4,2.4L8.4,2.4L8.4,1.9L9.6,1.9L9.6,2.4L10.1,2.4L10.1,2.9L11.6,2.9L11.6,3.4L12.6,3.4L12.6,3.9L14.1,3.9L14.1,4.4L15,4.4L15,4.6L13.9,4.6L13.9,4.1L12.4,4.1L12.4,3.6L10.1,3.6L10.1,4.1L9.6,4.1L9.6,4.6L9,4.6L9,4.4L9.4,4.4L9.4,3.9L9.9,3.9L9.9,3.4z" stroke="none"/><path d="M18.4,9.4L18.4,8.9L19.6,8.9L19.6,9.4L22.1,9.4L22.1,9.9L23.4,9.9L23.4,9.4L23.9,9.4L23.9,9L24.1,9L24.1,9.6L23.6,9.6L23.6,10.1L21.9,10.1L21.9,9.6L19.4,9.6L19.4,9.1L18.6,9.1L18.6,9.4L19.1,9.4L19.1,9.9L19.6,9.9L19.6,10.5L19.4,10.5L19.4,10.1L18.9,10.1L18.9,9.6L18.6,9.6L18.6,11.4L19.1,11.4L19.1,11.9L19.5,11.9L19.5,12.1L18.9,12.1L18.9,11.6L18.4,11.6L18.4,9.6L17.1,9.6L17.1,10.1L15.1,10.1L15.1,10.5L14.9,10.5L14.9,9.9L16.9,9.9L16.9,9.4z" stroke="none"/><path d="M7.9,5.9L7.9,4.6L7.5,4.6L7.5,4.4L8.1,4.4L8.1,5.9L8.4,5.9L8.4,5.4L9.9,5.4L9.9,4.9L10.4,4.9L10.4,4.5L10.6,4.5L10.6,5.1L10.1,5.1L10.1,5.6L8.6,5.6L8.6,6.1L8.1,6.1L8.1,6.6L5.4,6.6L5.4,5.4L6.4,5.4L6.4,4.4L6.9,4.4L6.9,3.9L7.9,3.9L7.9,3.4L8.4,3.4L8.4,2.9L9,2.9L9,3.1L8.6,3.1L8.6,3.6L8.1,3.6L8.1,4.1L7.1,4.1L7.1,4.6L6.6,4.6L6.6,5.6L5.6,5.6L5.6,6.4L7.9,6.4L7.9,6.1L6,6.1L6,5.9z" stroke="none"/><path d="M22.5,11.9L22.5,12.1L21,12.1L21,11.9z" stroke="none"/><path d="M25.5,11.9L25.5,12.1L24,12.1L24,11.9z" stroke="none"/><path d="M19.5,7.6L19.5,7.4L21,7.4L21,7.6z" stroke="none"/><path d="M4.5,2.9L4.5,3.1L4.1,3.1L4.1,4.1L3.6,4.1L3.6,4.6L3,4.6L3,4.4L3.4,4.4L3.4,3.9L3.9,3.9L3.9,2.9z" stroke="none"/><path d="M22.5,9.1L22.5,8.9L22.9,8.9L22.9,7.9L25.4,7.9L25.4,7.5L25.6,7.5L25.6,8.1L23.1,8.1L23.1,9.1z" stroke="none"/><path d="M9.1,12L8.9,12L8.9,10.4L10.4,10.4L10.4,9L10.6,9L10.6,10.6L9.1,10.6z" stroke="none"/><path d="M4.5,10.6L4.5,10.4L6.4,10.4L6.4,9.9L6.9,9.9L6.9,8.9L7.5,8.9L7.5,9.1L7.1,9.1L7.1,10.1L6.6,10.1L6.6,10.6z" stroke="none"/><path d="M6,8.9L6,9.1L4.6,9.1L4.6,9.6L3.6,9.6L3.6,11.4L7.6,11.4L7.6,12L7.4,12L7.4,11.6L3.4,11.6L3.4,9.4L4.4,9.4L4.4,8.9z" stroke="none"/><path d="M15,8.9L15,9.1L13.6,9.1L13.6,9.6L13.1,9.6L13.1,10.1L12.6,10.1L12.6,11.4L13.1,11.4L13.1,11.9L13.5,11.9L13.5,12.1L12.9,12.1L12.9,11.6L12.4,11.6L12.4,9.9L12.9,9.9L12.9,9.4L13.4,9.4L13.4,8.9z" stroke="none"/><path d="M22.5,4.4L22.5,4.6L18,4.6L18,4.4z" stroke="none"/><path d="M26.9,4.5L27.1,4.5L27.1,9L26.9,9z" stroke="none"/><path d="M21,10.6L21,10.4L23.9,10.4L23.9,9.9L24.4,9.9L24.4,9.4L24.9,9.4L24.9,8.9L25.4,8.9L25.4,8.4L26.4,8.4L26.4,6.6L22.6,6.6L22.6,7.1L22.1,7.1L22.1,8.1L21.6,8.1L21.6,8.6L17.6,8.6L17.6,9.1L16.5,9.1L16.5,8.9L17.4,8.9L17.4,8.4L21.4,8.4L21.4,7.9L21.9,7.9L21.9,6.9L22.4,6.9L22.4,6.4L26.6,6.4L26.6,8.6L25.6,8.6L25.6,9.1L25.1,9.1L25.1,9.6L24.6,9.6L24.6,10.1L24.1,10.1L24.1,10.6z" stroke="none"/><path d="M3,9.1L3,8.9L3.9,8.9L3.9,8.4L5.4,8.4L5.4,7.4L7.5,7.4L7.5,7.6L5.6,7.6L5.6,8.6L4.1,8.6L4.1,9.1z" stroke="none"/><path d="M16.5,3.1L16.5,2.9L22.5,2.9L22.5,3.1z" stroke="none"/><path d="M27,2.9L27,3.1L26.6,3.1L26.6,3.6L26.1,3.6L26.1,4.1L25.6,4.1L25.6,4.6L25.1,4.6L25.1,5.1L23.1,5.1L23.1,5.6L22.6,5.6L22.6,6.1L21,6.1L21,5.9L22.4,5.9L22.4,5.4L22.9,5.4L22.9,4.9L24.9,4.9L24.9,4.4L25.4,4.4L25.4,3.9L25.9,3.9L25.9,3.4L26.4,3.4L26.4,2.9z" stroke="none"/><path d="M13.4,10.5L13.6,10.5L13.6,10.9L14.6,10.9L14.6,13.1L3.4,13.1L3.4,12.1L2.9,12.1L2.9,11.1L1.9,11.1L1.9,8.4L2.4,8.4L2.4,7.9L3.4,7.9L3.4,7.4L3.9,7.4L3.9,5.9L4.5,5.9L4.5,6.1L4.1,6.1L4.1,7.6L3.6,7.6L3.6,8.1L2.6,8.1L2.6,8.6L2.1,8.6L2.1,10.9L3.1,10.9L3.1,11.9L3.6,11.9L3.6,12.9L14.4,12.9L14.4,11.1L13.4,11.1z" stroke="none"/></svg>