<svg version="1.1" width="30" height="15" xmlns="http://www.w3.org/2000/svg"><path d="M9.9,8.1L9.4,8.1L9.4,7.6L9,7.6L9,7.4L9.6,7.4L9.6,7.9L10.1,7.9L10.1,8.9L12,8.9L12,9.1L10.1,9.1L10.1,10.1L9.6,10.1L9.6,10.6L9,10.6L9,10.4L9.4,10.4L9.4,9.9L9.9,9.9z" stroke="none"/><path d="M8.9,5.9L8.9,3L9.1,3L9.1,6.4L9.6,6.4L9.6,6.9L12.1,6.9L12.1,7.5L11.9,7.5L11.9,7.1L9.4,7.1L9.4,6.6L8.9,6.6L8.9,6.1L8.1,6.1L8.1,7.1L7.6,7.1L7.6,7.5L7.4,7.5L7.4,6.9L7.9,6.9L7.9,5.9z" stroke="none"/><path d="M22.4,8.9L22.4,7.5L22.6,7.5L22.6,8.9L26.1,8.9L26.1,9.9L26.6,9.9L26.6,10.4L27,10.4L27,10.6L26.4,10.6L26.4,10.1L25.9,10.1L25.9,9.1L22.6,9.1L22.6,9.6L21.6,9.6L21.6,10.1L16.6,10.1L16.6,10.5L16.4,10.5L16.4,9.9L21.4,9.9L21.4,9.4L22.4,9.4L22.4,9.1L21.9,9.1L21.9,6.6L21.4,6.6L21.4,6.1L21,6.1L21,5.9L21.6,5.9L21.6,6.4L22.1,6.4L22.1,8.9z" stroke="none"/><path d="M22.4,10.4L22.4,9.9L25.1,9.9L25.1,10.4L25.5,10.4L25.5,10.6L24.9,10.6L24.9,10.1L22.6,10.1L22.6,10.4L24,10.4L24,10.6L22.6,10.6L22.6,10.9L23.6,10.9L23.6,11.4L24.1,11.4L24.1,12L23.9,12L23.9,11.6L23.4,11.6L23.4,11.1L22.4,11.1L22.4,10.6L17.6,10.6L17.6,11.6L15.9,11.6L15.9,11.1L15.4,11.1L15.4,8.9L16.5,8.9L16.5,9.1L15.6,9.1L15.6,10.9L16.1,10.9L16.1,11.4L17.4,11.4L17.4,10.4z" stroke="none"/><path d="M19.5,7.6L19.5,7.4L21,7.4L21,7.6z" stroke="none"/><path d="M4.4,10.5L4.6,10.5L4.6,12L4.4,12z" stroke="none"/><path d="M3.1,10.5L2.9,10.5L2.9,9L3.1,9z" stroke="none"/><path d="M23.9,4.5L24.1,4.5L24.1,7.5L23.9,7.5z" stroke="none"/><path d="M13.5,7.4L13.5,7.6L12.9,7.6L12.9,6.6L10.4,6.6L10.4,6L10.6,6L10.6,6.4L13.1,6.4L13.1,7.4z" stroke="none"/><path d="M6.1,6L5.9,6L5.9,2.9L7.5,2.9L7.5,3.1L6.1,3.1z" stroke="none"/><path d="M10.6,3L10.4,3L10.4,2.1L5.6,2.1L5.6,4.1L5.1,4.1L5.1,6.9L6.4,6.9L6.4,6.4L6.9,6.4L6.9,4.9L7.4,4.9L7.4,4.5L7.6,4.5L7.6,5.1L7.1,5.1L7.1,6.6L6.6,6.6L6.6,7.1L4.9,7.1L4.9,3.9L5.4,3.9L5.4,1.9L10.6,1.9z" stroke="none"/><path d="M15,4.6L15,4.4L17.1,4.4L17.1,5.4L17.6,5.4L17.6,6.4L18.1,6.4L18.1,7.5L17.9,7.5L17.9,6.6L17.4,6.6L17.4,5.6L16.9,5.6L16.9,4.6z" stroke="none"/><path d="M21,8.9L21,9.1L17.4,9.1L17.4,8.1L16.4,8.1L16.4,7.5L16.6,7.5L16.6,7.9L17.6,7.9L17.6,8.9z" stroke="none"/><path d="M25.6,7.5L25.4,7.5L25.4,7.1L24.4,7.1L24.4,5.4L24.9,5.4L24.9,3.6L24.4,3.6L24.4,3.1L24,3.1L24,2.9L24.6,2.9L24.6,3.4L25.1,3.4L25.1,5.6L24.6,5.6L24.6,6.9L25.6,6.9z" stroke="none"/><path d="M15,11.9L15,12.1L12.9,12.1L12.9,11.1L11.4,11.1L11.4,10.6L10.5,10.6L10.5,10.4L11.6,10.4L11.6,10.9L13.1,10.9L13.1,11.9z" stroke="none"/><path d="M19.5,2.9L19.5,3.1L13.5,3.1L13.5,2.9z" stroke="none"/><path d="M9,11.9L9,12.1L7.9,12.1L7.9,9.1L6.4,9.1L6.4,8.6L5.4,8.6L5.4,8.1L4.9,8.1L4.9,7.6L4.5,7.6L4.5,7.4L5.1,7.4L5.1,7.9L5.6,7.9L5.6,8.4L6.6,8.4L6.6,8.9L8.1,8.9L8.1,11.9z" stroke="none"/><path d="M16.5,5.9L16.5,6.1L14.4,6.1L14.4,5.6L13.9,5.6L13.9,3.9L14.4,3.9L14.4,3.4L19.1,3.4L19.1,3.9L21.4,3.9L21.4,2.4L22.9,2.4L22.9,1.9L24.6,1.9L24.6,2.4L25.6,2.4L25.6,6L25.4,6L25.4,2.6L24.4,2.6L24.4,2.1L23.1,2.1L23.1,2.6L21.6,2.6L21.6,4.1L18.9,4.1L18.9,3.6L14.6,3.6L14.6,4.1L14.1,4.1L14.1,5.4L14.6,5.4L14.6,5.9z" stroke="none"/><path d="M3,12.1L3,11.9L3.6,11.9L3.6,12.9L10.4,12.9L10.4,12.4L10.9,12.4L10.9,11.9L12,11.9L12,12.1L11.1,12.1L11.1,12.6L10.6,12.6L10.6,13.1L3.4,13.1L3.4,12.1z" stroke="none"/><path d="M13.6,9L13.4,9L13.4,8.4L13.9,8.4L13.9,7.9L14.4,7.9L14.4,6.6L13.9,6.6L13.9,6.1L13.4,6.1L13.4,4.1L12.4,4.1L12.4,2.4L12.9,2.4L12.9,1.9L22.4,1.9L22.4,1.4L25.6,1.4L25.6,1.9L26.1,1.9L26.1,5.4L26.6,5.4L26.6,8.9L27.6,8.9L27.6,9.4L28.1,9.4L28.1,11.1L27.6,11.1L27.6,12.1L25.5,12.1L25.5,11.9L27.4,11.9L27.4,10.9L27.9,10.9L27.9,9.6L27.4,9.6L27.4,9.1L26.4,9.1L26.4,5.6L25.9,5.6L25.9,2.1L25.4,2.1L25.4,1.6L22.6,1.6L22.6,2.1L13.1,2.1L13.1,2.6L12.6,2.6L12.6,3.9L13.6,3.9L13.6,5.9L14.1,5.9L14.1,6.4L14.6,6.4L14.6,8.1L14.1,8.1L14.1,8.6L13.6,8.6z" stroke="none"/></svg>