<svg version="1.1" width="30" height="15" xmlns="http://www.w3.org/2000/svg"><path d="M11.4,8.1L10.4,8.1L10.4,7.5L10.6,7.5L10.6,7.9L11.6,7.9L11.6,9.9L13.1,9.9L13.1,10.4L13.5,10.4L13.5,10.6L12.9,10.6L12.9,10.1L11.6,10.1L11.6,11.1L10.6,11.1L10.6,12L10.4,12L10.4,10.9L11.4,10.9z" stroke="none"/><path d="M19.9,4.4L19.9,3.9L20.4,3.9L20.4,3.4L20.9,3.4L20.9,2.9L22.5,2.9L22.5,3.1L21.1,3.1L21.1,3.6L20.6,3.6L20.6,4.1L20.1,4.1L20.1,4.6L18.1,4.6L18.1,5.1L17.6,5.1L17.6,5.6L17.1,5.6L17.1,6.6L16.6,6.6L16.6,7.5L16.4,7.5L16.4,6.4L16.9,6.4L16.9,5.4L17.4,5.4L17.4,4.9L17.9,4.9L17.9,4.6L16.4,4.6L16.4,4.1L15.9,4.1L15.9,3.6L15.4,3.6L15.4,3.1L15,3.1L15,2.9L15.6,2.9L15.6,3.4L16.1,3.4L16.1,3.9L16.6,3.9L16.6,4.4z" stroke="none"/><path d="M23.9,6.4L23.9,5.6L22.9,5.6L22.9,4.6L22.5,4.6L22.5,4.4L23.1,4.4L23.1,5.4L24.1,5.4L24.1,6.4L25.1,6.4L25.1,6.9L26.4,6.9L26.4,6.4L26.9,6.4L26.9,6L27.1,6L27.1,6.6L26.6,6.6L26.6,7.1L24.9,7.1L24.9,6.6L24.1,6.6L24.1,6.9L24.6,6.9L24.6,7.4L27,7.4L27,7.6L24.4,7.6L24.4,7.1L23.9,7.1L23.9,6.6L23.6,6.6L23.6,7.6L23.1,7.6L23.1,8.1L21.6,8.1L21.6,8.6L19.6,8.6L19.6,9L19.4,9L19.4,8.4L21.4,8.4L21.4,7.9L22.9,7.9L22.9,7.4L23.4,7.4L23.4,6.4z" stroke="none"/><path d="M14.4,6.9L14.4,6.6L11.4,6.6L11.4,6.1L10.9,6.1L10.9,5.6L8.6,5.6L8.6,8.4L9.1,8.4L9.1,9L8.9,9L8.9,8.6L8.4,8.6L8.4,5.4L11.1,5.4L11.1,5.9L11.6,5.9L11.6,6.4L14.6,6.4L14.6,6.9L14.9,6.9L14.9,6.1L11.9,6.1L11.9,5.6L11.4,5.6L11.4,5.1L8.1,5.1L8.1,11.4L9.1,11.4L9.1,12.4L10.1,12.4L10.1,12.9L16.9,12.9L16.9,9.9L17.4,9.9L17.4,9.4L17.9,9.4L17.9,8.4L18.4,8.4L18.4,7.9L18.9,7.9L18.9,7.4L21,7.4L21,7.6L19.1,7.6L19.1,8.1L18.6,8.1L18.6,8.6L18.1,8.6L18.1,9.6L17.6,9.6L17.6,10.1L17.1,10.1L17.1,13.1L9.9,13.1L9.9,12.6L8.9,12.6L8.9,11.6L7.9,11.6L7.9,4.9L11.6,4.9L11.6,5.4L12.1,5.4L12.1,5.9L15.1,5.9L15.1,7.1L14.6,7.1L14.6,7.4L15.1,7.4L15.1,7.9L15.6,7.9L15.6,8.4L16.9,8.4L16.9,7.9L17.4,7.9L17.4,7.4L18.4,7.4L18.4,6.4L19.4,6.4L19.4,6L19.6,6L19.6,6.6L18.6,6.6L18.6,7.6L17.6,7.6L17.6,8.1L17.1,8.1L17.1,8.6L15.4,8.6L15.4,8.1L14.9,8.1L14.9,7.6L14.4,7.6L14.4,7.1L10.9,7.1L10.9,6.6L9.9,6.6L9.9,6.1L9,6.1L9,5.9L10.1,5.9L10.1,6.4L11.1,6.4L11.1,6.9z" stroke="none"/><path d="M12,12.1L12,11.9L13.5,11.9L13.5,12.1z" stroke="none"/><path d="M21,6.1L21,5.9L22.5,5.9L22.5,6.1z" stroke="none"/><path d="M25.5,2.9L25.5,3.1L24,3.1L24,2.9z" stroke="none"/><path d="M3,12.1L3,11.9L4.5,11.9L4.5,12.1z" stroke="none"/><path d="M21,11.9L21,12.1L18,12.1L18,11.9z" stroke="none"/><path d="M3.1,9L2.9,9L2.9,6.4L3.4,6.4L3.4,5.9L4.5,5.9L4.5,6.1L3.6,6.1L3.6,6.6L3.1,6.6z" stroke="none"/><path d="M24,9.1L24,8.9L26.9,8.9L26.9,8.4L27.4,8.4L27.4,7.9L27.9,7.9L27.9,5.6L27.4,5.6L27.4,5.1L26.6,5.1L26.6,5.6L25.6,5.6L25.6,6L25.4,6L25.4,5.4L26.4,5.4L26.4,4.9L27.6,4.9L27.6,5.4L28.1,5.4L28.1,8.1L27.6,8.1L27.6,8.6L27.1,8.6L27.1,9.1z" stroke="none"/><path d="M3,10.6L3,10.4L3.4,10.4L3.4,9.9L4.4,9.9L4.4,8.9L6,8.9L6,9.1L4.6,9.1L4.6,10.1L3.6,10.1L3.6,10.6z" stroke="none"/><path d="M18.1,6L17.9,6L17.9,5.4L18.4,5.4L18.4,4.9L20.4,4.9L20.4,4.4L21,4.4L21,4.6L20.6,4.6L20.6,5.1L18.6,5.1L18.6,5.6L18.1,5.6z" stroke="none"/><path d="M12,4.4L12,4.6L7.5,4.6L7.5,4.4z" stroke="none"/><path d="M6,4.6L6,4.4L6.4,4.4L6.4,3.9L6.9,3.9L6.9,3.4L8.9,3.4L8.9,2.9L10.5,2.9L10.5,3.1L9.1,3.1L9.1,3.6L7.1,3.6L7.1,4.1L6.6,4.1L6.6,4.6z" stroke="none"/><path d="M21,10.6L21,10.4L27,10.4L27,10.6z" stroke="none"/><path d="M19.5,3.1L19.5,2.9L20.4,2.9L20.4,2.4L21.9,2.4L21.9,1.9L26.6,1.9L26.6,2.4L27.1,2.4L27.1,3L26.9,3L26.9,2.6L26.4,2.6L26.4,2.1L22.1,2.1L22.1,2.6L20.6,2.6L20.6,3.1z" stroke="none"/><path d="M12.1,3L11.9,3L11.9,2.6L11.4,2.6L11.4,2.1L5.6,2.1L5.6,2.6L4.6,2.6L4.6,4.5L4.4,4.5L4.4,2.4L5.4,2.4L5.4,1.9L11.6,1.9L11.6,2.4L12.1,2.4z" stroke="none"/><path d="M13.6,4.5L13.4,4.5L13.4,3.4L13.9,3.4L13.9,2.4L14.4,2.4L14.4,1.9L18.9,1.9L18.9,1.4L28.1,1.4L28.1,3.6L27.6,3.6L27.6,4.1L26.1,4.1L26.1,4.6L24,4.6L24,4.4L25.9,4.4L25.9,3.9L27.4,3.9L27.4,3.4L27.9,3.4L27.9,1.6L19.1,1.6L19.1,2.1L14.6,2.1L14.6,2.6L14.1,2.6L14.1,3.6L13.6,3.6z" stroke="none"/><path d="M18,10.6L18,10.4L19.9,10.4L19.9,9.4L23.1,9.4L23.1,9.9L25.4,9.9L25.4,9.4L27.6,9.4L27.6,9.9L28.1,9.9L28.1,11.1L27.6,11.1L27.6,11.6L24.6,11.6L24.6,12.1L24.1,12.1L24.1,12.6L23.1,12.6L23.1,13.1L17.6,13.1L17.6,13.6L8.9,13.6L8.9,13.1L7.4,13.1L7.4,12.6L5.9,12.6L5.9,12L6.1,12L6.1,12.4L7.6,12.4L7.6,12.9L9.1,12.9L9.1,13.4L17.4,13.4L17.4,12.9L22.9,12.9L22.9,12.4L23.9,12.4L23.9,11.9L24.4,11.9L24.4,11.4L27.4,11.4L27.4,10.9L27.9,10.9L27.9,10.1L27.4,10.1L27.4,9.6L25.6,9.6L25.6,10.1L22.9,10.1L22.9,9.6L20.1,9.6L20.1,10.6z" stroke="none"/></svg>