<svg version="1.1" width="30" height="15" xmlns="http://www.w3.org/2000/svg"><path d="M5.4,9.6L4.4,9.6L4.4,9L4.6,9L4.6,9.4L5.6,9.4L5.6,9.9L8.1,9.9L8.1,10.9L8.6,10.9L8.6,11.4L9.1,11.4L9.1,12L8.9,12L8.9,11.6L8.4,11.6L8.4,11.1L7.9,11.1L7.9,10.1L5.6,10.1L5.6,11.6L5.1,11.6L5.1,12.1L4.5,12.1L4.5,11.9L4.9,11.9L4.9,11.4L5.4,11.4z" stroke="none"/><path d="M23.4,7.4L25.6,7.4L25.6,7.9L26.1,7.9L26.1,8.4L27.1,8.4L27.1,9L26.9,9L26.9,8.6L25.9,8.6L25.9,8.1L25.4,8.1L25.4,7.6L23.6,7.6L23.6,7.9L24.1,7.9L24.1,9.4L24.6,9.4L24.6,9.9L25.6,9.9L25.6,10.5L25.4,10.5L25.4,10.1L24.4,10.1L24.4,9.6L23.9,9.6L23.9,8.1L23.6,8.1L23.6,9.9L24.1,9.9L24.1,10.5L23.9,10.5L23.9,10.1L23.4,10.1z" stroke="none"/><path d="M3.4,5.4L3.4,3.9L5.1,3.9L5.1,4.9L5.6,4.9L5.6,5.4L7.1,5.4L7.1,6.9L7.6,6.9L7.6,8.4L8.1,8.4L8.1,8.9L10.5,8.9L10.5,9.1L7.9,9.1L7.9,8.6L7.4,8.6L7.4,7.1L6.9,7.1L6.9,5.6L5.4,5.6L5.4,5.1L4.9,5.1L4.9,4.1L3.6,4.1L3.6,5.4L3.9,5.4L3.9,4.9L4.4,4.9L4.4,4.5L4.6,4.5L4.6,5.1L4.1,5.1L4.1,5.6L3.6,5.6L3.6,5.9L6,5.9L6,6.1L3.4,6.1L3.4,5.6L3.1,5.6L3.1,9L2.9,9L2.9,5.4z" stroke="none"/><path d="M9.9,3.9L9.9,3.4L12.1,3.4L12.1,3.9L12.6,3.9L12.6,4.4L13.5,4.4L13.5,4.6L12.4,4.6L12.4,4.1L11.9,4.1L11.9,3.6L10.1,3.6L10.1,3.9L11.6,3.9L11.6,4.4L12,4.4L12,4.6L11.4,4.6L11.4,4.1L10.1,4.1L10.1,4.6L9.6,4.6L9.6,5.6L9.1,5.6L9.1,7.5L8.9,7.5L8.9,5.4L9.4,5.4L9.4,4.4L9.9,4.4L9.9,4.1L9.1,4.1L9.1,5.1L8.6,5.1L8.6,7.9L13.1,7.9L13.1,8.4L13.6,8.4L13.6,8.9L15,8.9L15,9.1L13.4,9.1L13.4,8.6L12.9,8.6L12.9,8.1L8.4,8.1L8.4,4.9L8.9,4.9L8.9,3.9z" stroke="none"/><path d="M19.5,8.9L19.5,9.1L18,9.1L18,8.9z" stroke="none"/><path d="M22.5,12.1L22.5,11.9L24,11.9L24,12.1z" stroke="none"/><path d="M7.5,3.1L7.5,2.9L9,2.9L9,3.1z" stroke="none"/><path d="M25.4,9L25.6,9L25.6,9.4L26.1,9.4L26.1,9.9L26.6,9.9L26.6,10.4L27,10.4L27,10.6L26.4,10.6L26.4,10.1L25.9,10.1L25.9,9.6L25.4,9.6z" stroke="none"/><path d="M19.5,7.6L19.5,7.4L20.6,7.4L20.6,8.4L21.1,8.4L21.1,9L20.9,9L20.9,8.6L20.4,8.6L20.4,7.6z" stroke="none"/><path d="M7.4,12L7.6,12L7.6,12.4L8.1,12.4L8.1,12.9L10.4,12.9L10.4,10.4L12,10.4L12,10.6L10.6,10.6L10.6,13.1L7.9,13.1L7.9,12.6L7.4,12.6z" stroke="none"/><path d="M22.5,4.4L22.5,4.6L21.1,4.6L21.1,5.1L20.6,5.1L20.6,5.6L18.1,5.6L18.1,6L17.9,6L17.9,5.4L20.4,5.4L20.4,4.9L20.9,4.9L20.9,4.4z" stroke="none"/><path d="M22.6,10.5L22.4,10.5L22.4,6.9L27.1,6.9L27.1,7.5L26.9,7.5L26.9,7.1L22.6,7.1z" stroke="none"/><path d="M21,3.1L21,2.9L24.4,2.9L24.4,1.9L27.1,1.9L27.1,3L26.9,3L26.9,2.1L24.6,2.1L24.6,3.1z" stroke="none"/><path d="M16.4,7.5L16.6,7.5L16.6,9.4L17.6,9.4L17.6,9.9L21.4,9.9L21.4,9.4L21.9,9.4L21.9,6.4L22.4,6.4L22.4,6L22.6,6L22.6,6.6L22.1,6.6L22.1,9.6L21.6,9.6L21.6,10.1L17.4,10.1L17.4,9.6L16.4,9.6z" stroke="none"/><path d="M12,6.1L12,5.9L15.9,5.9L15.9,5.4L17.4,5.4L17.4,4.9L18.4,4.9L18.4,4.4L19.5,4.4L19.5,4.6L18.6,4.6L18.6,5.1L17.6,5.1L17.6,5.6L16.1,5.6L16.1,6.1z" stroke="none"/><path d="M27.1,6L26.9,6L26.9,5.6L25.9,5.6L25.9,4.6L24.9,4.6L24.9,4.1L22.9,4.1L22.9,3.6L22.1,3.6L22.1,4.1L19.9,4.1L19.9,3.1L19.5,3.1L19.5,2.9L20.1,2.9L20.1,3.9L21.9,3.9L21.9,3.4L23.1,3.4L23.1,3.9L25.1,3.9L25.1,4.4L26.1,4.4L26.1,5.4L27.1,5.4z" stroke="none"/><path d="M18.1,7.5L17.9,7.5L17.9,7.1L16.9,7.1L16.9,6.6L15.6,6.6L15.6,8.4L16.1,8.4L16.1,9.9L17.1,9.9L17.1,10.4L20.6,10.4L20.6,11.9L21.1,11.9L21.1,12.4L21.6,12.4L21.6,12.9L27.4,12.9L27.4,10.9L27.9,10.9L27.9,4.1L26.4,4.1L26.4,3.6L25.4,3.6L25.4,3L25.6,3L25.6,3.4L26.6,3.4L26.6,3.9L28.1,3.9L28.1,11.1L27.6,11.1L27.6,13.1L21.4,13.1L21.4,12.6L20.9,12.6L20.9,12.1L20.4,12.1L20.4,10.6L16.9,10.6L16.9,10.1L15.9,10.1L15.9,8.6L15.4,8.6L15.4,6.4L17.1,6.4L17.1,6.9L18.1,6.9z" stroke="none"/><path d="M18,2.9L18,3.1L10.4,3.1L10.4,2.1L6.6,2.1L6.6,3.4L7.1,3.4L7.1,3.9L7.6,3.9L7.6,4.5L7.4,4.5L7.4,4.1L6.9,4.1L6.9,3.6L6.4,3.6L6.4,1.9L10.6,1.9L10.6,2.9z" stroke="none"/><path d="M15,11.9L15,12.1L12.1,12.1L12.1,12.6L11.1,12.6L11.1,13.6L7.4,13.6L7.4,13.1L3.9,13.1L3.9,12.6L2.9,12.6L2.9,12L3.1,12L3.1,12.4L4.1,12.4L4.1,12.9L7.6,12.9L7.6,13.4L10.9,13.4L10.9,12.4L11.9,12.4L11.9,11.9z" stroke="none"/><path d="M18,11.9L18,12.1L17.4,12.1L17.4,11.6L15.4,11.6L15.4,10.1L13.4,10.1L13.4,9.6L11.6,9.6L11.6,10.1L8.9,10.1L8.9,9.6L6.9,9.6L6.9,8.1L6.4,8.1L6.4,7.6L6,7.6L6,7.4L6.6,7.4L6.6,7.9L7.1,7.9L7.1,9.4L9.1,9.4L9.1,9.9L11.4,9.9L11.4,9.4L13.6,9.4L13.6,9.9L15.6,9.9L15.6,11.4L17.6,11.4L17.6,11.9z" stroke="none"/></svg>