<svg version="1.1" width="30" height="15" xmlns="http://www.w3.org/2000/svg"><path d="M6.9,4.4L6.9,2.9L7.5,2.9L7.5,3.1L7.1,3.1L7.1,4.4L7.4,4.4L7.4,3.9L8.4,3.9L8.4,3.4L9.6,3.4L9.6,3.9L10.1,3.9L10.1,5.4L10.6,5.4L10.6,6L10.4,6L10.4,5.6L9.9,5.6L9.9,4.1L9.4,4.1L9.4,3.6L8.6,3.6L8.6,4.1L7.6,4.1L7.6,4.6L3,4.6L3,4.4z" stroke="none"/><path d="M13.4,8.9L13.4,7.4L13.9,7.4L13.9,6.9L14.4,6.9L14.4,6.4L16.1,6.4L16.1,6.9L19.6,6.9L19.6,7.9L20.1,7.9L20.1,8.9L21,8.9L21,9.1L19.9,9.1L19.9,8.1L19.4,8.1L19.4,7.1L15.9,7.1L15.9,6.6L14.6,6.6L14.6,7.1L14.1,7.1L14.1,7.6L13.6,7.6L13.6,9.6L11.1,9.6L11.1,10.1L10.1,10.1L10.1,10.6L9,10.6L9,10.4L9.9,10.4L9.9,9.9L10.9,9.9L10.9,9.4L13.4,9.4L13.4,9.1L12.9,9.1L12.9,8.1L11.9,8.1L11.9,7.5L12.1,7.5L12.1,7.9L13.1,7.9L13.1,8.9z" stroke="none"/><path d="M5.9,7.9L5.9,7.4L6.4,7.4L6.4,6.9L8.1,6.9L8.1,7.4L9,7.4L9,7.6L7.9,7.6L7.9,7.1L6.6,7.1L6.6,7.6L6.1,7.6L6.1,7.9L6.9,7.9L6.9,7.4L7.5,7.4L7.5,7.6L7.1,7.6L7.1,8.1L6.1,8.1L6.1,9.1L5.6,9.1L5.6,9.6L5.1,9.6L5.1,10.1L4.6,10.1L4.6,10.5L4.4,10.5L4.4,9.9L4.9,9.9L4.9,9.4L5.4,9.4L5.4,8.9L5.9,8.9L5.9,8.1L2.9,8.1L2.9,7.5L3.1,7.5L3.1,7.9z" stroke="none"/><path d="M21.9,4.4L21.9,3.9L26.4,3.9L26.4,3.4L26.9,3.4L26.9,3L27.1,3L27.1,3.6L26.6,3.6L26.6,4.1L22.1,4.1L22.1,4.4L25.5,4.4L25.5,4.6L22.1,4.6L22.1,5.1L21.6,5.1L21.6,5.6L21.1,5.6L21.1,6.1L19.5,6.1L19.5,5.9L20.9,5.9L20.9,5.4L21.4,5.4L21.4,4.9L21.9,4.9L21.9,4.6L20.6,4.6L20.6,5.1L20.1,5.1L20.1,5.6L17.1,5.6L17.1,6.1L16.5,6.1L16.5,5.9L16.9,5.9L16.9,5.4L19.9,5.4L19.9,4.9L20.4,4.9L20.4,4.4z" stroke="none"/><path d="M17.9,9L18.1,9L18.1,10.5L17.9,10.5z" stroke="none"/><path d="M3,9.1L3,8.9L4.5,8.9L4.5,9.1z" stroke="none"/><path d="M11.9,4.5L12.1,4.5L12.1,6L11.9,6z" stroke="none"/><path d="M4.6,12L4.4,12L4.4,11.6L3.9,11.6L3.9,11.1L3.4,11.1L3.4,10.6L3,10.6L3,10.4L3.6,10.4L3.6,10.9L4.1,10.9L4.1,11.4L4.6,11.4z" stroke="none"/><path d="M25.5,12.1L25.5,11.9L26.4,11.9L26.4,10.9L26.9,10.9L26.9,10.5L27.1,10.5L27.1,11.1L26.6,11.1L26.6,12.1z" stroke="none"/><path d="M19.6,4.5L19.4,4.5L19.4,3.4L19.9,3.4L19.9,2.9L21,2.9L21,3.1L20.1,3.1L20.1,3.6L19.6,3.6z" stroke="none"/><path d="M9,4.4L9,4.6L8.1,4.6L8.1,5.1L5.6,5.1L5.6,5.6L1.9,5.6L1.9,3.9L2.4,3.9L2.4,3.4L6.4,3.4L6.4,2.4L6.9,2.4L6.9,1.9L13.6,1.9L13.6,3L13.4,3L13.4,2.1L7.1,2.1L7.1,2.6L6.6,2.6L6.6,3.6L2.6,3.6L2.6,4.1L2.1,4.1L2.1,5.4L5.4,5.4L5.4,4.9L7.9,4.9L7.9,4.4z" stroke="none"/><path d="M10.5,12.1L10.5,11.9L13.9,11.9L13.9,10.4L14.4,10.4L14.4,8.9L15,8.9L15,9.1L14.6,9.1L14.6,10.6L14.1,10.6L14.1,12.1z" stroke="none"/><path d="M9,12.1L9,11.9L9.6,11.9L9.6,12.9L13.9,12.9L13.9,12.4L14.9,12.4L14.9,12L15.1,12L15.1,12.6L14.1,12.6L14.1,13.1L9.4,13.1L9.4,12.1z" stroke="none"/><path d="M15.1,4.5L14.9,4.5L14.9,1.6L2.1,1.6L2.1,2.6L1.6,2.6L1.6,5.9L9,5.9L9,6.1L1.4,6.1L1.4,2.4L1.9,2.4L1.9,1.4L15.1,1.4z" stroke="none"/><path d="M24,8.9L24,9.1L23.6,9.1L23.6,9.6L23.1,9.6L23.1,10.6L22.1,10.6L22.1,11.6L21.6,11.6L21.6,12.1L18,12.1L18,11.9L21.4,11.9L21.4,11.4L21.9,11.4L21.9,10.4L22.9,10.4L22.9,9.4L23.4,9.4L23.4,8.9z" stroke="none"/><path d="M9,8.9L9,9.1L8.6,9.1L8.6,10.1L8.1,10.1L8.1,12.4L8.6,12.4L8.6,12.9L9.1,12.9L9.1,13.4L15.4,13.4L15.4,12.4L15.9,12.4L15.9,11.6L15.4,11.6L15.4,9.9L15.9,9.9L15.9,8.9L16.5,8.9L16.5,9.1L16.1,9.1L16.1,10.1L15.6,10.1L15.6,11.4L16.1,11.4L16.1,12.6L15.6,12.6L15.6,13.6L8.9,13.6L8.9,13.1L8.4,13.1L8.4,12.6L7.9,12.6L7.9,9.9L8.4,9.9L8.4,8.9z" stroke="none"/><path d="M18,2.9L18,3.1L17.1,3.1L17.1,3.6L16.1,3.6L16.1,5.6L13.9,5.6L13.9,4.6L13.4,4.6L13.4,4.1L12.9,4.1L12.9,3.6L10.9,3.6L10.9,3.1L10.5,3.1L10.5,2.9L11.1,2.9L11.1,3.4L13.1,3.4L13.1,3.9L13.6,3.9L13.6,4.4L14.1,4.4L14.1,5.4L15.9,5.4L15.9,3.4L16.9,3.4L16.9,2.9z" stroke="none"/><path d="M27.1,4.5L26.9,4.5L26.9,3.9L27.4,3.9L27.4,3.4L27.9,3.4L27.9,2.1L19.6,2.1L19.6,3.1L19.1,3.1L19.1,4.1L18.1,4.1L18.1,4.5L17.9,4.5L17.9,3.9L18.9,3.9L18.9,2.9L19.4,2.9L19.4,1.9L28.1,1.9L28.1,3.6L27.6,3.6L27.6,4.1L27.1,4.1z" stroke="none"/><path d="M24,12.1L24,11.9L24.4,11.9L24.4,9.4L24.9,9.4L24.9,8.6L24.4,8.6L24.4,8.1L22.6,8.1L22.6,8.6L22.1,8.6L22.1,10.1L19.9,10.1L19.9,9.6L19.4,9.6L19.4,9.1L18.9,9.1L18.9,8.6L18.4,8.6L18.4,8.1L15.9,8.1L15.9,7.6L15,7.6L15,7.4L16.1,7.4L16.1,7.9L18.6,7.9L18.6,8.4L19.1,8.4L19.1,8.9L19.6,8.9L19.6,9.4L20.1,9.4L20.1,9.9L21.9,9.9L21.9,8.4L22.4,8.4L22.4,7.9L24.6,7.9L24.6,8.4L25.1,8.4L25.1,9.6L24.6,9.6L24.6,12.1z" stroke="none"/><path d="M5.9,10.5L6.1,10.5L6.1,11.9L6.6,11.9L6.6,12.4L7.1,12.4L7.1,13.4L7.6,13.4L7.6,13.9L15.9,13.9L15.9,12.9L16.4,12.9L16.4,10.5L16.6,10.5L16.6,13.1L16.1,13.1L16.1,14.1L7.4,14.1L7.4,13.6L6.9,13.6L6.9,12.6L6.4,12.6L6.4,12.1L5.9,12.1z" stroke="none"/></svg>