<svg version="1.1" width="30" height="15" xmlns="http://www.w3.org/2000/svg"><path d="M20.9,7.4L20.9,5.6L19.1,5.6L19.1,6.1L18.6,6.1L18.6,6.6L17.1,6.6L17.1,8.4L17.6,8.4L17.6,9.4L18.1,9.4L18.1,10.5L17.9,10.5L17.9,9.6L17.4,9.6L17.4,8.6L16.9,8.6L16.9,6.4L18.4,6.4L18.4,5.9L18.9,5.9L18.9,5.4L21.1,5.4L21.1,7.4L25.5,7.4L25.5,7.6L20.4,7.6L20.4,6.6L19.4,6.6L19.4,6L19.6,6L19.6,6.4L20.6,6.4L20.6,7.4z" stroke="none"/><path d="M19.9,7.6L18,7.6L18,7.4L20.1,7.4L20.1,9.9L21.9,9.9L21.9,8.9L22.5,8.9L22.5,9.1L22.1,9.1L22.1,10.1L20.1,10.1L20.1,11.9L21,11.9L21,12.1L19.9,12.1z" stroke="none"/><path d="M7.9,7.9L7.9,7.4L10.5,7.4L10.5,7.6L8.1,7.6L8.1,7.9L8.6,7.9L8.6,8.4L9.1,8.4L9.1,9L8.9,9L8.9,8.6L8.4,8.6L8.4,8.1L8.1,8.1L8.1,9.6L7.1,9.6L7.1,10.1L6.6,10.1L6.6,10.6L5.1,10.6L5.1,11.1L4.6,11.1L4.6,12L4.4,12L4.4,10.9L4.9,10.9L4.9,10.4L6.4,10.4L6.4,9.9L6.9,9.9L6.9,9.4L7.9,9.4L7.9,8.1L7.4,8.1L7.4,6.9L11.6,6.9L11.6,7.4L13.5,7.4L13.5,7.6L11.4,7.6L11.4,7.1L7.6,7.1L7.6,7.9z" stroke="none"/><path d="M6.9,4.9L6.9,4.6L5.4,4.6L5.4,4.1L4.9,4.1L4.9,3.6L3.6,3.6L3.6,4.1L3.1,4.1L3.1,4.5L2.9,4.5L2.9,3.9L3.4,3.9L3.4,3.4L5.1,3.4L5.1,3.9L5.6,3.9L5.6,4.4L7.1,4.4L7.1,4.9L8.4,4.9L8.4,4.4L9,4.4L9,4.6L8.6,4.6L8.6,5.1L7.1,5.1L7.1,7.1L6.6,7.1L6.6,8.6L6.1,8.6L6.1,9L5.9,9L5.9,8.4L6.4,8.4L6.4,6.9L6.9,6.9L6.9,5.1L5.1,5.1L5.1,6.1L4.5,6.1L4.5,5.9L4.9,5.9L4.9,4.9z" stroke="none"/><path d="M9,3.1L9,2.9L10.5,2.9L10.5,3.1z" stroke="none"/><path d="M24,10.6L24,10.4L25.1,10.4L25.1,11.4L25.6,11.4L25.6,12L25.4,12L25.4,11.6L24.9,11.6L24.9,10.6z" stroke="none"/><path d="M4.5,4.4L4.5,4.6L4.1,4.6L4.1,5.1L3.6,5.1L3.6,6.4L4.1,6.4L4.1,7.4L4.5,7.4L4.5,7.6L3.9,7.6L3.9,6.6L3.4,6.6L3.4,4.9L3.9,4.9L3.9,4.4z" stroke="none"/><path d="M23.9,3L24.1,3L24.1,6L23.9,6z" stroke="none"/><path d="M21,4.4L21,4.6L18,4.6L18,4.4z" stroke="none"/><path d="M10.5,4.6L10.5,4.4L11.4,4.4L11.4,3.4L12.4,3.4L12.4,2.9L13.5,2.9L13.5,3.1L12.6,3.1L12.6,3.6L11.6,3.6L11.6,4.6z" stroke="none"/><path d="M16.5,2.9L16.5,3.1L16.1,3.1L16.1,3.6L15.6,3.6L15.6,5.6L15.1,5.6L15.1,6L14.9,6L14.9,5.4L15.4,5.4L15.4,3.4L15.9,3.4L15.9,2.9z" stroke="none"/><path d="M7.5,2.9L7.5,3.1L3,3.1L3,2.9z" stroke="none"/><path d="M13.5,11.9L13.5,12.1L13.1,12.1L13.1,13.1L11.4,13.1L11.4,12.6L9.9,12.6L9.9,12.1L9,12.1L9,11.9L10.1,11.9L10.1,12.4L11.6,12.4L11.6,12.9L12.9,12.9L12.9,11.9z" stroke="none"/><path d="M5.9,6L6.1,6L6.1,7.1L5.6,7.1L5.6,8.1L5.1,8.1L5.1,10.1L4.1,10.1L4.1,10.6L3.6,10.6L3.6,12.4L4.1,12.4L4.1,12.9L4.9,12.9L4.9,12.4L5.9,12.4L5.9,11.4L6.9,11.4L6.9,10.9L7.4,10.9L7.4,10.5L7.6,10.5L7.6,11.1L7.1,11.1L7.1,11.6L6.1,11.6L6.1,12.6L5.1,12.6L5.1,13.1L3.9,13.1L3.9,12.6L3.4,12.6L3.4,10.4L3.9,10.4L3.9,9.9L4.9,9.9L4.9,7.9L5.4,7.9L5.4,6.9L5.9,6.9z" stroke="none"/><path d="M27,4.4L27,4.6L26.4,4.6L26.4,3.6L25.4,3.6L25.4,3.1L24.9,3.1L24.9,2.6L24.4,2.6L24.4,2.1L23.6,2.1L23.6,2.6L22.6,2.6L22.6,3L22.4,3L22.4,2.4L23.4,2.4L23.4,1.9L24.6,1.9L24.6,2.4L25.1,2.4L25.1,2.9L25.6,2.9L25.6,3.4L26.6,3.4L26.6,4.4z" stroke="none"/><path d="M9,10.6L9,10.4L15.4,10.4L15.4,9.4L15.9,9.4L15.9,8.9L16.5,8.9L16.5,9.1L16.1,9.1L16.1,9.6L15.6,9.6L15.6,10.6z" stroke="none"/><path d="M22.6,4.5L22.4,4.5L22.4,4.1L21.9,4.1L21.9,3.6L17.6,3.6L17.6,4.1L17.1,4.1L17.1,6.1L16.6,6.1L16.6,8.1L16.1,8.1L16.1,8.6L15.6,8.6L15.6,9.1L15,9.1L15,8.9L15.4,8.9L15.4,8.4L15.9,8.4L15.9,7.9L16.4,7.9L16.4,5.9L16.9,5.9L16.9,3.9L17.4,3.9L17.4,3.4L22.1,3.4L22.1,3.9L22.6,3.9z" stroke="none"/><path d="M13.5,4.6L13.5,4.4L14.4,4.4L14.4,2.6L13.9,2.6L13.9,2.1L2.1,2.1L2.1,6.9L3.1,6.9L3.1,7.5L2.9,7.5L2.9,7.1L1.9,7.1L1.9,1.9L14.1,1.9L14.1,2.4L14.6,2.4L14.6,4.6z" stroke="none"/><path d="M9,6.1L9,5.9L13.4,5.9L13.4,5.4L13.9,5.4L13.9,4.9L14.9,4.9L14.9,1.9L22.4,1.9L22.4,1.4L26.1,1.4L26.1,2.4L27.1,2.4L27.1,3.4L27.6,3.4L27.6,3.9L28.1,3.9L28.1,7.6L27.6,7.6L27.6,8.1L27.1,8.1L27.1,8.6L24.4,8.6L24.4,8.1L21.1,8.1L21.1,9L20.9,9L20.9,7.9L24.6,7.9L24.6,8.4L26.9,8.4L26.9,7.9L27.4,7.9L27.4,7.4L27.9,7.4L27.9,4.1L27.4,4.1L27.4,3.6L26.9,3.6L26.9,2.6L25.9,2.6L25.9,1.6L22.6,1.6L22.6,2.1L15.1,2.1L15.1,5.1L14.1,5.1L14.1,5.6L13.6,5.6L13.6,6.1z" stroke="none"/><path d="M12,12.1L12,11.9L12.4,11.9L12.4,10.9L17.6,10.9L17.6,11.4L19.1,11.4L19.1,11.9L19.6,11.9L19.6,12.4L20.1,12.4L20.1,12.9L21.9,12.9L21.9,10.9L22.4,10.9L22.4,9.9L23.4,9.9L23.4,9.4L23.9,9.4L23.9,9L24.1,9L24.1,9.6L23.6,9.6L23.6,10.1L22.6,10.1L22.6,11.1L22.1,11.1L22.1,13.1L19.9,13.1L19.9,12.6L19.4,12.6L19.4,12.1L18.9,12.1L18.9,11.6L17.4,11.6L17.4,11.1L12.6,11.1L12.6,12.1z" stroke="none"/></svg>