<svg version="1.1" width="30" height="15" xmlns="http://www.w3.org/2000/svg"><path d="M11.9,3.4L11.9,2.9L12.4,2.9L12.4,2.4L15.6,2.4L15.6,2.9L16.1,2.9L16.1,3.9L16.6,3.9L16.6,4.5L16.4,4.5L16.4,4.1L15.9,4.1L15.9,3.1L15.4,3.1L15.4,2.6L12.6,2.6L12.6,3.1L12.1,3.1L12.1,3.4L12.9,3.4L12.9,2.9L13.5,2.9L13.5,3.1L13.1,3.1L13.1,3.6L8.4,3.6L8.4,3.1L7.5,3.1L7.5,2.9L8.6,2.9L8.6,3.4z" stroke="none"/><path d="M12.4,8.9L12.4,8.4L12.9,8.4L12.9,7.9L14.6,7.9L14.6,9.4L15.1,9.4L15.1,9.9L16.6,9.9L16.6,10.4L18,10.4L18,10.6L16.4,10.6L16.4,10.1L14.9,10.1L14.9,9.6L14.4,9.6L14.4,8.1L13.1,8.1L13.1,8.6L12.6,8.6L12.6,9.1L12.1,9.1L12.1,9.4L13.1,9.4L13.1,11.6L12.1,11.6L12.1,12L11.9,12L11.9,11.4L12.9,11.4L12.9,9.6L11.9,9.6L11.9,9.1L8.4,9.1L8.4,8.6L7.4,8.6L7.4,8.1L5.9,8.1L5.9,7.5L6.1,7.5L6.1,7.9L7.6,7.9L7.6,8.4L8.6,8.4L8.6,8.9z" stroke="none"/><path d="M19.4,7.9L19.4,7.6L18.4,7.6L18.4,7.1L17.9,7.1L17.9,6L18.1,6L18.1,6.9L18.6,6.9L18.6,7.4L19.6,7.4L19.6,7.9L21.6,7.9L21.6,8.4L22.1,8.4L22.1,8.9L22.5,8.9L22.5,9.1L21.9,9.1L21.9,8.6L21.4,8.6L21.4,8.1L19.6,8.1L19.6,10.5L19.4,10.5L19.4,8.1L17.9,8.1L17.9,7.5L18.1,7.5L18.1,7.9z" stroke="none"/><path d="M8.9,6.4L8.9,6.1L7.9,6.1L7.9,4.6L7.5,4.6L7.5,4.4L8.1,4.4L8.1,5.9L9.1,5.9L9.1,6.4L9.4,6.4L9.4,4.9L9.9,4.9L9.9,4.4L10.5,4.4L10.5,4.6L10.1,4.6L10.1,5.1L9.6,5.1L9.6,6.6L9.1,6.6L9.1,6.9L15.1,6.9L15.1,7.4L15.6,7.4L15.6,8.4L16.6,8.4L16.6,9L16.4,9L16.4,8.6L15.4,8.6L15.4,7.6L14.9,7.6L14.9,7.1L8.9,7.1L8.9,6.6L5.6,6.6L5.6,7.1L5.1,7.1L5.1,8.6L4.6,8.6L4.6,9L4.4,9L4.4,8.4L4.9,8.4L4.9,6.9L5.4,6.9L5.4,6.4z" stroke="none"/><path d="M25.5,5.9L25.5,6.1L24,6.1L24,5.9z" stroke="none"/><path d="M24,12.1L24,11.9L25.5,11.9L25.5,12.1z" stroke="none"/><path d="M6,4.4L6,4.6L4.5,4.6L4.5,4.4z" stroke="none"/><path d="M4.5,11.9L4.5,12.1L3.9,12.1L3.9,11.1L2.9,11.1L2.9,10.5L3.1,10.5L3.1,10.9L4.1,10.9L4.1,11.9z" stroke="none"/><path d="M25.4,10.5L25.6,10.5L25.6,10.9L26.6,10.9L26.6,11.4L27.1,11.4L27.1,12L26.9,12L26.9,11.6L26.4,11.6L26.4,11.1L25.4,11.1z" stroke="none"/><path d="M25.5,2.9L25.5,3.1L25.1,3.1L25.1,4.1L24.6,4.1L24.6,4.6L24,4.6L24,4.4L24.4,4.4L24.4,3.9L24.9,3.9L24.9,2.9z" stroke="none"/><path d="M19.6,6L19.4,6L19.4,3L19.6,3z" stroke="none"/><path d="M27.1,10.5L26.9,10.5L26.9,7.5L27.1,7.5z" stroke="none"/><path d="M22.5,10.6L22.5,10.4L22.9,10.4L22.9,9.9L23.4,9.9L23.4,7.6L22.5,7.6L22.5,7.4L23.6,7.4L23.6,10.1L23.1,10.1L23.1,10.6z" stroke="none"/><path d="M10.5,6.1L10.5,5.9L10.9,5.9L10.9,5.4L11.9,5.4L11.9,4.4L13.5,4.4L13.5,4.6L12.1,4.6L12.1,5.6L11.1,5.6L11.1,6.1z" stroke="none"/><path d="M19.6,12L19.4,12L19.4,11.4L19.9,11.4L19.9,10.9L22.1,10.9L22.1,11.4L22.9,11.4L22.9,10.9L23.9,10.9L23.9,7.1L23.4,7.1L23.4,6.6L22.9,6.6L22.9,3.6L21.9,3.6L21.9,2.1L19.1,2.1L19.1,2.6L18.6,2.6L18.6,4.6L18.1,4.6L18.1,5.1L17.1,5.1L17.1,8.4L18.1,8.4L18.1,9L17.9,9L17.9,8.6L16.9,8.6L16.9,4.9L17.9,4.9L17.9,4.4L18.4,4.4L18.4,2.4L18.9,2.4L18.9,1.9L22.1,1.9L22.1,3.4L23.1,3.4L23.1,6.4L23.6,6.4L23.6,6.9L24.1,6.9L24.1,11.1L23.1,11.1L23.1,11.6L21.9,11.6L21.9,11.1L20.1,11.1L20.1,11.6L19.6,11.6z" stroke="none"/><path d="M5.9,9L6.1,9L6.1,9.9L9.1,9.9L9.1,12L8.9,12L8.9,10.1L5.9,10.1z" stroke="none"/><path d="M3,7.4L3,7.6L2.6,7.6L2.6,8.6L2.1,8.6L2.1,10.9L2.6,10.9L2.6,11.4L3.6,11.4L3.6,12.9L4.9,12.9L4.9,12.4L5.4,12.4L5.4,11.9L6,11.9L6,12.1L5.6,12.1L5.6,12.6L5.1,12.6L5.1,13.1L3.4,13.1L3.4,11.6L2.4,11.6L2.4,11.1L1.9,11.1L1.9,8.4L2.4,8.4L2.4,7.4z" stroke="none"/><path d="M25.6,9L25.4,9L25.4,6.9L26.4,6.9L26.4,6.4L27.6,6.4L27.6,6.9L28.1,6.9L28.1,13.1L21.9,13.1L21.9,12.1L21,12.1L21,11.9L22.1,11.9L22.1,12.9L27.9,12.9L27.9,7.1L27.4,7.1L27.4,6.6L26.6,6.6L26.6,7.1L25.6,7.1z" stroke="none"/><path d="M12,10.4L12,10.6L11.6,10.6L11.6,11.6L11.1,11.6L11.1,13.1L6.1,13.1L6.1,13.6L2.9,13.6L2.9,12.6L2.4,12.6L2.4,12.1L1.4,12.1L1.4,7.4L1.9,7.4L1.9,6.4L2.4,6.4L2.4,5.9L3,5.9L3,6.1L2.6,6.1L2.6,6.6L2.1,6.6L2.1,7.6L1.6,7.6L1.6,11.9L2.6,11.9L2.6,12.4L3.1,12.4L3.1,13.4L5.9,13.4L5.9,12.9L10.9,12.9L10.9,11.4L11.4,11.4L11.4,10.4z" stroke="none"/><path d="M3,9.1L3,8.9L3.4,8.9L3.4,7.9L3.9,7.9L3.9,5.1L1.6,5.1L1.6,5.6L1.1,5.6L1.1,12.4L1.6,12.4L1.6,12.9L2.1,12.9L2.1,13.4L2.6,13.4L2.6,13.9L10.4,13.9L10.4,13.4L11.9,13.4L11.9,12.9L12.4,12.9L12.4,12.4L12.9,12.4L12.9,11.9L13.4,11.9L13.4,9L13.6,9L13.6,12.1L13.1,12.1L13.1,12.6L12.6,12.6L12.6,13.1L12.1,13.1L12.1,13.6L10.6,13.6L10.6,14.1L2.4,14.1L2.4,13.6L1.9,13.6L1.9,13.1L1.4,13.1L1.4,12.6L0.9,12.6L0.9,5.4L1.4,5.4L1.4,4.9L4.1,4.9L4.1,8.1L3.6,8.1L3.6,9.1z" stroke="none"/></svg>