<svg version="1.1" width="30" height="15" xmlns="http://www.w3.org/2000/svg"><path d="M22.6,2.4L22.6,3L22.4,3L22.4,2.6L19.6,2.6L19.6,3.9L20.6,3.9L20.6,4.4L21.6,4.4L21.6,6.4L24.1,6.4L24.1,7.5L23.9,7.5L23.9,6.6L21.4,6.6L21.4,4.6L20.4,4.6L20.4,4.1L19.4,4.1L19.4,2.6L18.1,2.6L18.1,3L17.9,3L17.9,2.4z" stroke="none"/><path d="M11.9,2.9L11.9,1.9L15.6,1.9L15.6,2.9L16.5,2.9L16.5,3.1L15.4,3.1L15.4,2.1L12.1,2.1L12.1,3.1L10.6,3.1L10.6,4.4L11.6,4.4L11.6,4.9L12.6,4.9L12.6,5.9L13.5,5.9L13.5,6.1L12.4,6.1L12.4,5.1L11.4,5.1L11.4,4.6L10.4,4.6L10.4,3.1L8.6,3.1L8.6,4.1L8.1,4.1L8.1,5.1L7.6,5.1L7.6,6L7.4,6L7.4,4.9L7.9,4.9L7.9,3.9L8.4,3.9L8.4,2.9z" stroke="none"/><path d="M7.4,7.9L7.4,7.4L9.9,7.4L9.9,6.9L11.1,6.9L11.1,8.4L11.6,8.4L11.6,9.9L14.1,9.9L14.1,10.9L14.6,10.9L14.6,11.9L15,11.9L15,12.1L14.4,12.1L14.4,11.1L13.9,11.1L13.9,10.1L11.4,10.1L11.4,8.6L10.9,8.6L10.9,7.1L10.1,7.1L10.1,7.6L7.6,7.6L7.6,7.9L10.4,7.9L10.4,7.5L10.6,7.5L10.6,8.1L7.6,8.1L7.6,8.6L6.6,8.6L6.6,9.1L6,9.1L6,8.9L6.4,8.9L6.4,8.4L7.4,8.4L7.4,8.1L5.6,8.1L5.6,9.4L6.6,9.4L6.6,9.9L7.1,9.9L7.1,11.9L7.5,11.9L7.5,12.1L6.9,12.1L6.9,10.1L6.4,10.1L6.4,9.6L5.4,9.6L5.4,7.9z" stroke="none"/><path d="M19.4,8.4L19.4,7.9L23.6,7.9L23.6,8.4L24.1,8.4L24.1,9.4L24.6,9.4L24.6,11.4L25.6,11.4L25.6,12L25.4,12L25.4,11.6L24.4,11.6L24.4,9.6L23.9,9.6L23.9,8.6L23.4,8.6L23.4,8.1L19.6,8.1L19.6,8.4L23.1,8.4L23.1,8.9L23.6,8.9L23.6,9.9L24.1,9.9L24.1,10.5L23.9,10.5L23.9,10.1L23.4,10.1L23.4,9.1L22.9,9.1L22.9,8.6L19.6,8.6L19.6,10.4L20.1,10.4L20.1,11.4L21.1,11.4L21.1,12L20.9,12L20.9,11.6L19.9,11.6L19.9,10.6L19.4,10.6L19.4,8.6L18.9,8.6L18.9,8.1L14.9,8.1L14.9,7.6L13.5,7.6L13.5,7.4L15.1,7.4L15.1,7.9L19.1,7.9L19.1,8.4z" stroke="none"/><path d="M27,8.9L27,9.1L25.5,9.1L25.5,8.9z" stroke="none"/><path d="M3,3.1L3,2.9L4.5,2.9L4.5,3.1z" stroke="none"/><path d="M16.5,4.4L16.5,4.6L15,4.6L15,4.4z" stroke="none"/><path d="M4.5,10.4L4.5,10.6L3,10.6L3,10.4z" stroke="none"/><path d="M4.5,4.6L4.5,4.4L6,4.4L6,4.6z" stroke="none"/><path d="M10.6,12L10.4,12L10.4,11.6L9.9,11.6L9.9,11.1L9.4,11.1L9.4,10.6L9,10.6L9,10.4L9.6,10.4L9.6,10.9L10.1,10.9L10.1,11.4L10.6,11.4z" stroke="none"/><path d="M8.9,9L9.1,9L9.1,9.6L8.6,9.6L8.6,10.1L8.1,10.1L8.1,10.9L8.6,10.9L8.6,11.4L9.1,11.4L9.1,12L8.9,12L8.9,11.6L8.4,11.6L8.4,11.1L7.9,11.1L7.9,9.9L8.4,9.9L8.4,9.4L8.9,9.4z" stroke="none"/><path d="M19.5,5.9L19.5,6.1L16.5,6.1L16.5,5.9z" stroke="none"/><path d="M19.4,12L19.6,12L19.6,12.4L20.6,12.4L20.6,12.9L21.4,12.9L21.4,12.4L22.4,12.4L22.4,12L22.6,12L22.6,12.6L21.6,12.6L21.6,13.1L20.4,13.1L20.4,12.6L19.4,12.6z" stroke="none"/><path d="M23.9,3L24.1,3L24.1,4.4L24.6,4.4L24.6,4.9L25.1,4.9L25.1,5.9L27,5.9L27,6.1L24.9,6.1L24.9,5.1L24.4,5.1L24.4,4.6L23.9,4.6z" stroke="none"/><path d="M8.9,4.5L9.1,4.5L9.1,5.4L9.6,5.4L9.6,5.9L10.1,5.9L10.1,6.4L11.6,6.4L11.6,7.4L12.6,7.4L12.6,7.9L13.1,7.9L13.1,8.4L14.6,8.4L14.6,9.9L15.1,9.9L15.1,10.9L16.1,10.9L16.1,12.6L15.6,12.6L15.6,13.1L13.9,13.1L13.9,11.6L13.4,11.6L13.4,11.1L10.9,11.1L10.9,10.6L10.4,10.6L10.4,9L10.6,9L10.6,10.4L11.1,10.4L11.1,10.9L13.6,10.9L13.6,11.4L14.1,11.4L14.1,12.9L15.4,12.9L15.4,12.4L15.9,12.4L15.9,11.1L14.9,11.1L14.9,10.1L14.4,10.1L14.4,8.6L12.9,8.6L12.9,8.1L12.4,8.1L12.4,7.6L11.4,7.6L11.4,6.6L9.9,6.6L9.9,6.1L9.4,6.1L9.4,5.6L8.9,5.6z" stroke="none"/><path d="M18,4.6L18,4.4L20.1,4.4L20.1,4.9L20.6,4.9L20.6,6.6L20.1,6.6L20.1,7.1L15.9,7.1L15.9,6.6L14.9,6.6L14.9,6.1L14.4,6.1L14.4,5.1L13.9,5.1L13.9,3.1L13.5,3.1L13.5,2.9L14.1,2.9L14.1,4.9L14.6,4.9L14.6,5.9L15.1,5.9L15.1,6.4L16.1,6.4L16.1,6.9L19.9,6.9L19.9,6.4L20.4,6.4L20.4,5.1L19.9,5.1L19.9,4.6z" stroke="none"/><path d="M22.5,10.6L22.5,10.4L23.1,10.4L23.1,10.9L23.6,10.9L23.6,12.9L26.4,12.9L26.4,12.4L26.9,12.4L26.9,12L27.1,12L27.1,12.6L26.6,12.6L26.6,13.1L23.4,13.1L23.4,11.1L22.9,11.1L22.9,10.6z" stroke="none"/><path d="M25.5,7.6L25.5,7.4L26.1,7.4L26.1,7.9L27.6,7.9L27.6,8.4L28.1,8.4L28.1,13.6L19.4,13.6L19.4,13.1L18.9,13.1L18.9,12.6L18.4,12.6L18.4,9.1L18,9.1L18,8.9L18.6,8.9L18.6,12.4L19.1,12.4L19.1,12.9L19.6,12.9L19.6,13.4L27.9,13.4L27.9,8.6L27.4,8.6L27.4,8.1L25.9,8.1L25.9,7.6z" stroke="none"/><path d="M11.9,12L12.1,12L12.1,13.1L2.9,13.1L2.9,12.6L2.4,12.6L2.4,12.1L1.9,12.1L1.9,9.4L2.9,9.4L2.9,9L3.1,9L3.1,9.6L2.1,9.6L2.1,11.9L2.6,11.9L2.6,12.4L3.1,12.4L3.1,12.9L11.9,12.9z" stroke="none"/><path d="M4.6,9L4.4,9L4.4,8.6L3.4,8.6L3.4,8.1L2.6,8.1L2.6,8.6L2.1,8.6L2.1,9.1L1.6,9.1L1.6,12.4L2.1,12.4L2.1,12.9L2.6,12.9L2.6,13.4L15.9,13.4L15.9,12.9L16.4,12.9L16.4,10.5L16.6,10.5L16.6,13.1L16.1,13.1L16.1,13.6L2.4,13.6L2.4,13.1L1.9,13.1L1.9,12.6L1.4,12.6L1.4,8.9L1.9,8.9L1.9,8.4L2.4,8.4L2.4,7.9L3.6,7.9L3.6,8.4L4.6,8.4z" stroke="none"/></svg>