<svg version="1.1" width="30" height="15" xmlns="http://www.w3.org/2000/svg"><path d="M20.6,2.4L20.6,3.4L22.1,3.4L22.1,3.9L25.1,3.9L25.1,5.4L25.6,5.4L25.6,6L25.4,6L25.4,5.6L24.9,5.6L24.9,4.1L21.9,4.1L21.9,3.6L20.4,3.6L20.4,2.6L16.6,2.6L16.6,4.5L16.4,4.5L16.4,2.6L15.6,2.6L15.6,3.1L13.5,3.1L13.5,2.9L15.4,2.9L15.4,2.4z" stroke="none"/><path d="M17.4,2.9L19.1,2.9L19.1,3.4L20.1,3.4L20.1,5.1L19.1,5.1L19.1,5.6L18.6,5.6L18.6,7.6L18,7.6L18,7.4L18.4,7.4L18.4,5.4L18.9,5.4L18.9,4.9L19.9,4.9L19.9,3.6L18.9,3.6L18.9,3.1L17.6,3.1L17.6,3.4L18.6,3.4L18.6,3.9L19.6,3.9L19.6,4.5L19.4,4.5L19.4,4.1L18.4,4.1L18.4,3.6L17.6,3.6L17.6,5.4L18.1,5.4L18.1,6L17.9,6L17.9,5.6L17.4,5.6z" stroke="none"/><path d="M9.9,7.9L9.9,7.6L7.6,7.6L7.6,9.6L7.1,9.6L7.1,10.9L8.1,10.9L8.1,12.4L8.6,12.4L8.6,12.9L11.9,12.9L11.9,12.4L12.4,12.4L12.4,11.9L13.5,11.9L13.5,12.1L12.6,12.1L12.6,12.6L12.1,12.6L12.1,13.1L8.4,13.1L8.4,12.6L7.9,12.6L7.9,11.1L6.9,11.1L6.9,9.4L7.4,9.4L7.4,7.4L10.1,7.4L10.1,7.9L11.1,7.9L11.1,8.4L12.1,8.4L12.1,9L11.9,9L11.9,8.6L10.9,8.6L10.9,8.1L10.1,8.1L10.1,10.1L9.6,10.1L9.6,10.9L10.1,10.9L10.1,11.4L12.1,11.4L12.1,12L11.9,12L11.9,11.6L9.9,11.6L9.9,11.1L9.4,11.1L9.4,9.9L9.9,9.9L9.9,8.1L8.6,8.1L8.6,8.6L8.1,8.6L8.1,10.1L7.6,10.1L7.6,10.5L7.4,10.5L7.4,9.9L7.9,9.9L7.9,8.4L8.4,8.4L8.4,7.9z" stroke="none"/><path d="M11.9,6.9L11.9,6.4L14.1,6.4L14.1,7.9L14.6,7.9L14.6,10.1L14.1,10.1L14.1,10.6L13.5,10.6L13.5,10.4L13.9,10.4L13.9,9.9L14.4,9.9L14.4,8.1L13.9,8.1L13.9,6.6L12.1,6.6L12.1,6.9L13.6,6.9L13.6,8.4L14.1,8.4L14.1,9.6L13.1,9.6L13.1,10.1L11.1,10.1L11.1,10.6L10.5,10.6L10.5,10.4L10.9,10.4L10.9,9.9L12.9,9.9L12.9,9.4L13.9,9.4L13.9,8.6L13.4,8.6L13.4,7.1L12.1,7.1L12.1,7.4L12.6,7.4L12.6,7.9L13.1,7.9L13.1,8.9L13.5,8.9L13.5,9.1L12.9,9.1L12.9,8.1L12.4,8.1L12.4,7.6L11.9,7.6L11.9,7.1L11.4,7.1L11.4,5.9L15.6,5.9L15.6,6.9L16.1,6.9L16.1,7.4L17.1,7.4L17.1,8.9L17.6,8.9L17.6,9.9L20.4,9.9L20.4,6.6L19.4,6.6L19.4,6L19.6,6L19.6,6.4L20.6,6.4L20.6,10.1L17.4,10.1L17.4,9.1L16.9,9.1L16.9,7.6L15.9,7.6L15.9,7.1L15.4,7.1L15.4,6.1L11.6,6.1L11.6,6.9z" stroke="none"/><path d="M19.4,7.5L19.6,7.5L19.6,9L19.4,9z" stroke="none"/><path d="M22.6,9L22.4,9L22.4,7.5L22.6,7.5z" stroke="none"/><path d="M4.6,9L4.4,9L4.4,7.5L4.6,7.5z" stroke="none"/><path d="M8.9,3L9.1,3L9.1,4.1L8.6,4.1L8.6,4.6L7.5,4.6L7.5,4.4L8.4,4.4L8.4,3.9L8.9,3.9z" stroke="none"/><path d="M23.9,10.5L24.1,10.5L24.1,11.6L23.6,11.6L23.6,12.1L22.5,12.1L22.5,11.9L23.4,11.9L23.4,11.4L23.9,11.4z" stroke="none"/><path d="M6.1,4.5L5.9,4.5L5.9,3.9L6.4,3.9L6.4,3.4L6.9,3.4L6.9,2.9L7.5,2.9L7.5,3.1L7.1,3.1L7.1,3.6L6.6,3.6L6.6,4.1L6.1,4.1z" stroke="none"/><path d="M8.9,9L9.1,9L9.1,12L8.9,12z" stroke="none"/><path d="M12,4.6L12,4.4L15,4.4L15,4.6z" stroke="none"/><path d="M25.6,12L25.4,12L25.4,10.1L24.9,10.1L24.9,9.6L23.1,9.6L23.1,10.6L22.5,10.6L22.5,10.4L22.9,10.4L22.9,9.4L25.1,9.4L25.1,9.9L25.6,9.9z" stroke="none"/><path d="M20.9,6L21.1,6L21.1,10.5L20.9,10.5z" stroke="none"/><path d="M27.1,7.5L26.9,7.5L26.9,4.6L26.4,4.6L26.4,4.1L25.9,4.1L25.9,3.6L23.9,3.6L23.9,3L24.1,3L24.1,3.4L26.1,3.4L26.1,3.9L26.6,3.9L26.6,4.4L27.1,4.4z" stroke="none"/><path d="M4.5,3.1L4.5,2.9L4.9,2.9L4.9,2.4L6.9,2.4L6.9,1.9L11.1,1.9L11.1,2.9L12,2.9L12,3.1L10.9,3.1L10.9,2.1L7.1,2.1L7.1,2.6L5.1,2.6L5.1,3.1z" stroke="none"/><path d="M10.5,5.9L10.5,6.1L4.6,6.1L4.6,6.6L4.1,6.6L4.1,7.1L3.6,7.1L3.6,10.1L3.1,10.1L3.1,10.5L2.9,10.5L2.9,9.9L3.4,9.9L3.4,6.9L3.9,6.9L3.9,6.4L4.4,6.4L4.4,5.9z" stroke="none"/><path d="M25.4,7.5L25.6,7.5L25.6,8.4L26.1,8.4L26.1,10.9L26.6,10.9L26.6,12.6L26.1,12.6L26.1,13.1L17.4,13.1L17.4,12.1L16.4,12.1L16.4,11.1L15.9,11.1L15.9,9.1L15.4,9.1L15.4,7.6L15,7.6L15,7.4L15.6,7.4L15.6,8.9L16.1,8.9L16.1,10.9L16.6,10.9L16.6,11.9L17.6,11.9L17.6,12.9L25.9,12.9L25.9,12.4L26.4,12.4L26.4,11.1L25.9,11.1L25.9,8.6L25.4,8.6z" stroke="none"/><path d="M22.5,2.9L22.5,3.1L20.9,3.1L20.9,2.1L12.4,2.1L12.4,1.6L4.6,1.6L4.6,2.1L3.6,2.1L3.6,3.4L4.1,3.4L4.1,3.9L5.1,3.9L5.1,5.4L9.9,5.4L9.9,4.9L10.4,4.9L10.4,4.5L10.6,4.5L10.6,5.1L10.1,5.1L10.1,5.6L4.9,5.6L4.9,4.1L3.9,4.1L3.9,3.6L3.4,3.6L3.4,1.9L4.4,1.9L4.4,1.4L12.6,1.4L12.6,1.9L21.1,1.9L21.1,2.9z" stroke="none"/><path d="M26.9,10.5L27.1,10.5L27.1,13.1L26.6,13.1L26.6,13.6L16.9,13.6L16.9,13.1L15.4,13.1L15.4,12.1L15,12.1L15,11.9L15.6,11.9L15.6,12.9L17.1,12.9L17.1,13.4L26.4,13.4L26.4,12.9L26.9,12.9z" stroke="none"/></svg>