<svg version="1.1" width="30" height="15" xmlns="http://www.w3.org/2000/svg"><path d="M10.4,9.9L10.4,8.4L11.4,8.4L11.4,7.9L11.9,7.9L11.9,7.5L12.1,7.5L12.1,8.1L11.6,8.1L11.6,8.6L10.6,8.6L10.6,12L10.4,12L10.4,10.1L9.1,10.1L9.1,10.5L8.9,10.5L8.9,9.9z" stroke="none"/><path d="M21.4,8.9L21.4,8.4L21.9,8.4L21.9,7.9L22.4,7.9L22.4,7.4L24,7.4L24,7.6L22.6,7.6L22.6,8.1L22.1,8.1L22.1,8.6L21.6,8.6L21.6,9.1L17.6,9.1L17.6,11.1L15.6,11.1L15.6,11.6L15.1,11.6L15.1,12L14.9,12L14.9,11.4L15.4,11.4L15.4,10.9L17.4,10.9L17.4,9.1L16.1,9.1L16.1,10.1L13.9,10.1L13.9,8.1L13.4,8.1L13.4,7.5L13.6,7.5L13.6,7.9L14.1,7.9L14.1,9.9L15.9,9.9L15.9,8.9z" stroke="none"/><path d="M13.4,2.9L13.4,2.6L10.9,2.6L10.9,2.1L10.1,2.1L10.1,2.6L9.6,2.6L9.6,3.1L9,3.1L9,2.9L9.4,2.9L9.4,2.4L9.9,2.4L9.9,1.9L11.1,1.9L11.1,2.4L13.6,2.4L13.6,2.9L15,2.9L15,3.1L13.6,3.1L13.6,3.4L14.1,3.4L14.1,3.9L14.6,3.9L14.6,4.4L15.1,4.4L15.1,4.9L16.1,4.9L16.1,5.9L18,5.9L18,6.1L15.9,6.1L15.9,5.1L14.9,5.1L14.9,4.6L14.4,4.6L14.4,4.1L13.9,4.1L13.9,3.6L13.4,3.6L13.4,3.1L12,3.1L12,2.9z" stroke="none"/><path d="M10.4,5.9L10.4,5.6L5.4,5.6L5.4,5.1L4.9,5.1L4.9,4.6L4.5,4.6L4.5,4.4L5.1,4.4L5.1,4.9L5.6,4.9L5.6,5.4L10.6,5.4L10.6,5.9L13.6,5.9L13.6,6.4L14.6,6.4L14.6,6.9L15.1,6.9L15.1,7.5L14.9,7.5L14.9,7.1L14.4,7.1L14.4,6.6L13.4,6.6L13.4,6.1L10.6,6.1L10.6,7.5L10.4,7.5L10.4,6.1L9,6.1L9,5.9z" stroke="none"/><path d="M9,7.4L9,7.6L7.5,7.6L7.5,7.4z" stroke="none"/><path d="M20.9,3L21.1,3L21.1,4.5L20.9,4.5z" stroke="none"/><path d="M9,11.9L9,12.1L7.5,12.1L7.5,11.9z" stroke="none"/><path d="M24,9.1L24,8.9L25.5,8.9L25.5,9.1z" stroke="none"/><path d="M19.4,4.5L19.6,4.5L19.6,7.5L19.4,7.5z" stroke="none"/><path d="M6.1,4.5L5.9,4.5L5.9,4.1L4.9,4.1L4.9,3.6L4.1,3.6L4.1,4.1L3.6,4.1L3.6,4.9L4.1,4.9L4.1,5.9L4.6,5.9L4.6,6.4L5.6,6.4L5.6,6.9L6.1,6.9L6.1,7.5L5.9,7.5L5.9,7.1L5.4,7.1L5.4,6.6L4.4,6.6L4.4,6.1L3.9,6.1L3.9,5.1L3.4,5.1L3.4,3.9L3.9,3.9L3.9,3.4L5.1,3.4L5.1,3.9L6.1,3.9z" stroke="none"/><path d="M7.5,3.1L7.5,2.9L8.1,2.9L8.1,3.9L9.4,3.9L9.4,3.4L10.4,3.4L10.4,3L10.6,3L10.6,3.6L9.6,3.6L9.6,4.1L7.9,4.1L7.9,3.1z" stroke="none"/><path d="M25.4,4.5L25.6,4.5L25.6,5.1L25.1,5.1L25.1,5.6L24.1,5.6L24.1,6.1L22.5,6.1L22.5,5.9L23.9,5.9L23.9,5.4L24.9,5.4L24.9,4.9L25.4,4.9z" stroke="none"/><path d="M25.5,10.4L25.5,10.6L23.6,10.6L23.6,11.6L23.1,11.6L23.1,12.1L22.5,12.1L22.5,11.9L22.9,11.9L22.9,11.4L23.4,11.4L23.4,10.4z" stroke="none"/><path d="M6.1,12L5.9,12L5.9,11.6L5.4,11.6L5.4,11.1L4.9,11.1L4.9,10.1L4.4,10.1L4.4,9.6L3.9,9.6L3.9,9.1L3,9.1L3,8.9L4.1,8.9L4.1,9.4L4.6,9.4L4.6,9.9L5.1,9.9L5.1,10.9L5.6,10.9L5.6,11.4L6.1,11.4z" stroke="none"/><path d="M13.4,4.5L13.6,4.5L13.6,4.9L14.6,4.9L14.6,5.4L15.1,5.4L15.1,5.9L15.6,5.9L15.6,6.4L16.1,6.4L16.1,8.1L15.6,8.1L15.6,8.6L15.1,8.6L15.1,9L14.9,9L14.9,8.4L15.4,8.4L15.4,7.9L15.9,7.9L15.9,6.6L15.4,6.6L15.4,6.1L14.9,6.1L14.9,5.6L14.4,5.6L14.4,5.1L13.4,5.1z" stroke="none"/><path d="M2.9,6L3.1,6L3.1,6.4L4.1,6.4L4.1,6.9L5.1,6.9L5.1,9.4L6.1,9.4L6.1,10.5L5.9,10.5L5.9,9.6L4.9,9.6L4.9,7.1L3.9,7.1L3.9,6.6L2.9,6.6z" stroke="none"/><path d="M27,11.9L27,12.1L23.6,12.1L23.6,13.1L21.4,13.1L21.4,12.6L20.4,12.6L20.4,10.6L19.5,10.6L19.5,10.4L20.6,10.4L20.6,12.4L21.6,12.4L21.6,12.9L23.4,12.9L23.4,11.9z" stroke="none"/><path d="M16.5,4.6L16.5,4.4L16.9,4.4L16.9,3.9L18.9,3.9L18.9,3.4L19.9,3.4L19.9,2.4L20.4,2.4L20.4,1.9L23.6,1.9L23.6,2.9L24,2.9L24,3.1L23.4,3.1L23.4,2.1L20.6,2.1L20.6,2.6L20.1,2.6L20.1,3.6L19.1,3.6L19.1,4.1L17.1,4.1L17.1,4.6z" stroke="none"/><path d="M22.5,8.9L22.5,9.1L22.1,9.1L22.1,9.6L19.1,9.6L19.1,10.1L18.6,10.1L18.6,13.1L14.4,13.1L14.4,12.6L13.9,12.6L13.9,10.6L12.4,10.6L12.4,10.1L11.9,10.1L11.9,9L12.1,9L12.1,9.9L12.6,9.9L12.6,10.4L14.1,10.4L14.1,12.4L14.6,12.4L14.6,12.9L18.4,12.9L18.4,9.9L18.9,9.9L18.9,9.4L21.9,9.4L21.9,8.9z" stroke="none"/><path d="M10.5,4.4L10.5,4.6L7.4,4.6L7.4,4.1L6.4,4.1L6.4,2.4L6.9,2.4L6.9,1.9L9.4,1.9L9.4,1.4L24.1,1.4L24.1,1.9L25.1,1.9L25.1,4.1L22.6,4.1L22.6,4.6L22.1,4.6L22.1,5.1L21.6,5.1L21.6,6.1L21,6.1L21,5.9L21.4,5.9L21.4,4.9L21.9,4.9L21.9,4.4L22.4,4.4L22.4,3.9L24.9,3.9L24.9,2.1L23.9,2.1L23.9,1.6L9.6,1.6L9.6,2.1L7.1,2.1L7.1,2.6L6.6,2.6L6.6,3.9L7.6,3.9L7.6,4.4z" stroke="none"/></svg>