<svg version="1.1" width="30" height="15" xmlns="http://www.w3.org/2000/svg"><path d="M10.4,8.4L10.4,5.9L12,5.9L12,6.1L10.6,6.1L10.6,9.1L9.6,9.1L9.6,9.6L6.1,9.6L6.1,10.5L5.9,10.5L5.9,9.4L9.4,9.4L9.4,8.9L10.4,8.9L10.4,8.6L9.1,8.6L9.1,9L8.9,9L8.9,8.4z" stroke="none"/><path d="M18,4.4L18,4.6L13.1,4.6L13.1,5.1L11.1,5.1L11.1,5.6L9.6,5.6L9.6,6.1L9,6.1L9,5.9L9.4,5.9L9.4,5.4L10.9,5.4L10.9,4.9L12.9,4.9L12.9,4.6L12.4,4.6L12.4,3.1L12,3.1L12,2.9L12.6,2.9L12.6,4.4z" stroke="none"/><path d="M20.9,8.4L20.9,7.9L21.9,7.9L21.9,7.4L22.5,7.4L22.5,7.6L22.1,7.6L22.1,8.1L21.1,8.1L21.1,8.4L22.1,8.4L22.1,8.9L22.5,8.9L22.5,9.1L21.9,9.1L21.9,8.6L21.1,8.6L21.1,9.1L20.6,9.1L20.6,9.6L20.1,9.6L20.1,10.1L13.6,10.1L13.6,10.5L13.4,10.5L13.4,9.9L19.9,9.9L19.9,9.4L20.4,9.4L20.4,8.9L20.9,8.9L20.9,8.6L19.9,8.6L19.9,7.6L19.5,7.6L19.5,7.4L20.1,7.4L20.1,8.4z" stroke="none"/><path d="M19.4,4.4L19.4,3.9L20.4,3.9L20.4,2.9L21,2.9L21,3.1L20.6,3.1L20.6,4.1L19.6,4.1L19.6,4.4L20.1,4.4L20.1,4.9L20.6,4.9L20.6,5.4L25.6,5.4L25.6,6L25.4,6L25.4,5.6L20.4,5.6L20.4,5.1L19.9,5.1L19.9,4.6L19.6,4.6L19.6,5.4L20.1,5.4L20.1,5.9L21,5.9L21,6.1L19.9,6.1L19.9,5.6L19.4,5.6L19.4,4.6L18.9,4.6L18.9,4.1L18.4,4.1L18.4,3.6L17.1,3.6L17.1,4.1L14.4,4.1L14.4,3.6L13.4,3.6L13.4,3L13.6,3L13.6,3.4L14.6,3.4L14.6,3.9L16.9,3.9L16.9,3.4L18.6,3.4L18.6,3.9L19.1,3.9L19.1,4.4z" stroke="none"/><path d="M16.5,11.9L16.5,12.1L15,12.1L15,11.9z" stroke="none"/><path d="M26.9,9L27.1,9L27.1,10.5L26.9,10.5z" stroke="none"/><path d="M25.4,10.5L25.6,10.5L25.6,11.4L26.1,11.4L26.1,11.9L27,11.9L27,12.1L25.9,12.1L25.9,11.6L25.4,11.6z" stroke="none"/><path d="M9,12.1L9,11.9L12,11.9L12,12.1z" stroke="none"/><path d="M6,4.6L6,4.4L10.5,4.4L10.5,4.6z" stroke="none"/><path d="M7.5,7.4L7.5,7.6L3,7.6L3,7.4z" stroke="none"/><path d="M9,2.9L9,3.1L6.1,3.1L6.1,3.6L5.6,3.6L5.6,4.1L5.1,4.1L5.1,4.9L5.6,4.9L5.6,5.4L6.1,5.4L6.1,5.9L6.6,5.9L6.6,6.4L8.6,6.4L8.6,6.9L9.1,6.9L9.1,7.5L8.9,7.5L8.9,7.1L8.4,7.1L8.4,6.6L6.4,6.6L6.4,6.1L5.9,6.1L5.9,5.6L5.4,5.6L5.4,5.1L4.9,5.1L4.9,3.9L5.4,3.9L5.4,3.4L5.9,3.4L5.9,2.9z" stroke="none"/><path d="M24.1,9L23.9,9L23.9,7.1L22.9,7.1L22.9,6.6L22.1,6.6L22.1,7.1L19.9,7.1L19.9,6.6L18.6,6.6L18.6,7.9L19.1,7.9L19.1,8.4L19.6,8.4L19.6,9L19.4,9L19.4,8.6L18.9,8.6L18.9,8.1L18.4,8.1L18.4,6.4L20.1,6.4L20.1,6.9L21.9,6.9L21.9,6.4L23.1,6.4L23.1,6.9L24.1,6.9z" stroke="none"/><path d="M18.1,9L17.9,9L17.9,8.6L17.4,8.6L17.4,8.1L16.9,8.1L16.9,7.6L16.4,7.6L16.4,7.1L15.9,7.1L15.9,6.6L15.4,6.6L15.4,6.1L13.5,6.1L13.5,5.9L15.6,5.9L15.6,6.4L16.1,6.4L16.1,6.9L16.6,6.9L16.6,7.4L17.1,7.4L17.1,7.9L17.6,7.9L17.6,8.4L18.1,8.4z" stroke="none"/><path d="M27,7.6L27,7.4L27.6,7.4L27.6,7.9L28.1,7.9L28.1,13.1L24.9,13.1L24.9,11.1L23.4,11.1L23.4,10.6L22.5,10.6L22.5,10.4L23.6,10.4L23.6,10.9L25.1,10.9L25.1,12.9L27.9,12.9L27.9,8.1L27.4,8.1L27.4,7.6z" stroke="none"/><path d="M25.6,3L25.4,3L25.4,2.6L24.9,2.6L24.9,2.1L20.6,2.1L20.6,2.6L20.1,2.6L20.1,3.1L19.5,3.1L19.5,2.9L19.9,2.9L19.9,2.4L20.4,2.4L20.4,1.9L25.1,1.9L25.1,2.4L25.6,2.4z" stroke="none"/><path d="M21,4.6L21,4.4L24.6,4.4L24.6,4.9L26.1,4.9L26.1,5.4L26.6,5.4L26.6,7.1L26.1,7.1L26.1,8.1L25.6,8.1L25.6,9L25.4,9L25.4,7.9L25.9,7.9L25.9,6.9L26.4,6.9L26.4,5.6L25.9,5.6L25.9,5.1L24.4,5.1L24.4,4.6z" stroke="none"/><path d="M23.9,3L24.1,3L24.1,3.4L24.6,3.4L24.6,3.9L26.4,3.9L26.4,2.1L25.4,2.1L25.4,1.6L17.1,1.6L17.1,2.6L16.6,2.6L16.6,3L16.4,3L16.4,2.4L16.9,2.4L16.9,1.4L25.6,1.4L25.6,1.9L26.6,1.9L26.6,4.1L24.4,4.1L24.4,3.6L23.9,3.6z" stroke="none"/><path d="M4.5,12.1L4.5,11.9L7.9,11.9L7.9,11.4L8.4,11.4L8.4,10.9L11.9,10.9L11.9,8.9L12.4,8.9L12.4,8.4L12.9,8.4L12.9,7.4L13.5,7.4L13.5,7.6L13.1,7.6L13.1,8.6L12.6,8.6L12.6,9.1L12.1,9.1L12.1,11.1L8.6,11.1L8.6,11.6L8.1,11.6L8.1,12.1z" stroke="none"/><path d="M24,11.9L24,12.1L19.4,12.1L19.4,11.6L16.9,11.6L16.9,11.1L14.1,11.1L14.1,11.6L13.6,11.6L13.6,12L13.4,12L13.4,11.4L13.9,11.4L13.9,10.9L17.1,10.9L17.1,11.4L19.6,11.4L19.6,11.9z" stroke="none"/><path d="M4.6,6L4.4,6L4.4,2.9L4.9,2.9L4.9,2.4L8.4,2.4L8.4,1.9L14.6,1.9L14.6,2.4L15.1,2.4L15.1,3L14.9,3L14.9,2.6L14.4,2.6L14.4,2.1L8.6,2.1L8.6,2.6L5.1,2.6L5.1,3.1L4.6,3.1z" stroke="none"/></svg>