<svg version="1.1" width="30" height="15" xmlns="http://www.w3.org/2000/svg"><path d="M23.4,3.9L23.4,3.6L22.4,3.6L22.4,3L22.6,3L22.6,3.4L23.6,3.4L23.6,3.9L26.9,3.9L26.9,3L27.1,3L27.1,4.1L19.9,4.1L19.9,3.6L19.1,3.6L19.1,4.1L18.1,4.1L18.1,4.5L17.9,4.5L17.9,3.9L18.9,3.9L18.9,3.4L20.1,3.4L20.1,3.9z" stroke="none"/><path d="M17.9,5.9L17.9,5.6L15.9,5.6L15.9,4.6L15,4.6L15,4.4L16.1,4.4L16.1,5.4L18.1,5.4L18.1,6.4L18.6,6.4L18.6,6.9L19.1,6.9L19.1,7.4L19.5,7.4L19.5,7.6L18.9,7.6L18.9,7.1L18.4,7.1L18.4,6.6L17.9,6.6L17.9,6.1L16.5,6.1L16.5,5.9z" stroke="none"/><path d="M12.9,3.9L12.9,3.6L11.9,3.6L11.9,3L12.1,3L12.1,3.4L13.1,3.4L13.1,3.9L13.6,3.9L13.6,4.4L14.1,4.4L14.1,5.4L15.1,5.4L15.1,6L14.9,6L14.9,5.6L13.9,5.6L13.9,4.6L13.4,4.6L13.4,4.1L13.1,4.1L13.1,4.6L9.4,4.6L9.4,4.1L8.9,4.1L8.9,3.1L7.5,3.1L7.5,2.9L9.1,2.9L9.1,3.9L9.6,3.9L9.6,4.4L12.9,4.4L12.9,4.1L11.4,4.1L11.4,2.4L14.4,2.4L14.4,1.9L15.6,1.9L15.6,2.4L16.1,2.4L16.1,2.9L16.5,2.9L16.5,3.1L15.9,3.1L15.9,2.6L15.4,2.6L15.4,2.1L14.6,2.1L14.6,2.6L11.6,2.6L11.6,3.9z" stroke="none"/><path d="M23.9,8.9L23.9,8.6L23.4,8.6L23.4,8.1L22.9,8.1L22.9,7.1L22.4,7.1L22.4,6L22.6,6L22.6,6.9L23.1,6.9L23.1,7.9L23.6,7.9L23.6,8.4L24.1,8.4L24.1,8.9L25.5,8.9L25.5,9.1L24.1,9.1L24.1,9.4L25.6,9.4L25.6,9.9L27.1,9.9L27.1,10.5L26.9,10.5L26.9,10.1L25.4,10.1L25.4,9.6L23.9,9.6L23.9,9.1L23.6,9.1L23.6,9.6L23.1,9.6L23.1,10.1L19.9,10.1L19.9,9.1L19.5,9.1L19.5,8.9L20.1,8.9L20.1,9.9L22.9,9.9L22.9,9.4L23.4,9.4L23.4,8.9z" stroke="none"/><path d="M12,11.9L12,12.1L10.5,12.1L10.5,11.9z" stroke="none"/><path d="M10.5,6.1L10.5,5.9L12,5.9L12,6.1z" stroke="none"/><path d="M19.6,6L19.4,6L19.4,4.5L19.6,4.5z" stroke="none"/><path d="M5.9,6L6.1,6L6.1,9L5.9,9z" stroke="none"/><path d="M14.9,9L15.1,9L15.1,9.4L15.6,9.4L15.6,9.9L16.1,9.9L16.1,10.9L16.6,10.9L16.6,11.4L18.1,11.4L18.1,12L17.9,12L17.9,11.6L16.4,11.6L16.4,11.1L15.9,11.1L15.9,10.1L15.4,10.1L15.4,9.6L14.9,9.6z" stroke="none"/><path d="M19.6,12L19.4,12L19.4,11.6L18.9,11.6L18.9,9.6L17.4,9.6L17.4,9.1L16.5,9.1L16.5,8.9L17.6,8.9L17.6,9.4L19.1,9.4L19.1,11.4L19.6,11.4z" stroke="none"/><path d="M14.9,7.5L15.1,7.5L15.1,8.1L14.6,8.1L14.6,8.6L14.1,8.6L14.1,11.4L14.6,11.4L14.6,11.9L15,11.9L15,12.1L14.4,12.1L14.4,11.6L13.9,11.6L13.9,8.4L14.4,8.4L14.4,7.9L14.9,7.9z" stroke="none"/><path d="M22.5,12.1L22.5,11.9L23.6,11.9L23.6,12.4L25.1,12.4L25.1,12.9L25.9,12.9L25.9,12.4L26.4,12.4L26.4,11.9L27,11.9L27,12.1L26.6,12.1L26.6,12.6L26.1,12.6L26.1,13.1L24.9,13.1L24.9,12.6L23.4,12.6L23.4,12.1z" stroke="none"/><path d="M25.5,11.9L25.5,12.1L24.9,12.1L24.9,11.6L24.4,11.6L24.4,11.1L22.1,11.1L22.1,11.6L21.6,11.6L21.6,12.4L22.1,12.4L22.1,12.9L23.6,12.9L23.6,13.4L27.4,13.4L27.4,12.9L27.9,12.9L27.9,9.6L27.4,9.6L27.4,9.1L26.4,9.1L26.4,8.6L25.9,8.6L25.9,8.1L25.4,8.1L25.4,7.6L24,7.6L24,7.4L25.6,7.4L25.6,7.9L26.1,7.9L26.1,8.4L26.6,8.4L26.6,8.9L27.6,8.9L27.6,9.4L28.1,9.4L28.1,13.1L27.6,13.1L27.6,13.6L23.4,13.6L23.4,13.1L21.9,13.1L21.9,12.6L21.4,12.6L21.4,11.4L21.9,11.4L21.9,10.9L24.6,10.9L24.6,11.4L25.1,11.4L25.1,11.9z" stroke="none"/><path d="M7.5,6.1L7.5,5.9L9.4,5.9L9.4,4.9L12.6,4.9L12.6,5.4L13.6,5.4L13.6,6L13.4,6L13.4,5.6L12.4,5.6L12.4,5.1L9.6,5.1L9.6,6.1z" stroke="none"/><path d="M3,9.1L3,8.9L4.6,8.9L4.6,9.4L5.1,9.4L5.1,9.9L7.6,9.9L7.6,10.4L9,10.4L9,10.6L7.4,10.6L7.4,10.1L4.9,10.1L4.9,9.6L4.4,9.6L4.4,9.1z" stroke="none"/><path d="M3,12.1L3,11.9L9.6,11.9L9.6,12.4L10.1,12.4L10.1,12.9L12.4,12.9L12.4,12.4L12.9,12.4L12.9,11.6L12.4,11.6L12.4,11.1L11.9,11.1L11.9,9.6L8.9,9.6L8.9,9.1L7.9,9.1L7.9,7.6L7.5,7.6L7.5,7.4L8.1,7.4L8.1,8.9L9.1,8.9L9.1,9.4L12.1,9.4L12.1,10.9L12.6,10.9L12.6,11.4L13.1,11.4L13.1,12.6L12.6,12.6L12.6,13.1L9.9,13.1L9.9,12.6L9.4,12.6L9.4,12.1z" stroke="none"/><path d="M13.4,7.5L13.6,7.5L13.6,13.6L1.9,13.6L1.9,7.9L2.4,7.9L2.4,7.4L2.9,7.4L2.9,5.9L4.9,5.9L4.9,5.4L5.4,5.4L5.4,4.9L7.4,4.9L7.4,4.5L7.6,4.5L7.6,5.1L5.6,5.1L5.6,5.6L5.1,5.6L5.1,6.1L3.1,6.1L3.1,7.6L2.6,7.6L2.6,8.1L2.1,8.1L2.1,13.4L13.4,13.4z" stroke="none"/><path d="M3,10.6L3,10.4L6.6,10.4L6.6,10.9L8.6,10.9L8.6,11.4L9.9,11.4L9.9,10.9L10.4,10.9L10.4,10.5L10.6,10.5L10.6,11.1L10.1,11.1L10.1,11.6L8.4,11.6L8.4,11.1L6.4,11.1L6.4,10.6z" stroke="none"/><path d="M14.9,10.5L15.1,10.5L15.1,10.9L15.6,10.9L15.6,11.4L16.1,11.4L16.1,11.9L17.1,11.9L17.1,12.9L21.6,12.9L21.6,13.4L23.1,13.4L23.1,13.9L27.9,13.9L27.9,13.4L28.4,13.4L28.4,9.1L27.9,9.1L27.9,8.6L26.9,8.6L26.9,7.6L25.9,7.6L25.9,7.1L24.9,7.1L24.9,6.6L24.4,6.6L24.4,6.1L23.9,6.1L23.9,5.6L22.9,5.6L22.9,5.1L22.1,5.1L22.1,5.6L21.6,5.6L21.6,7.9L22.1,7.9L22.1,8.4L22.6,8.4L22.6,9L22.4,9L22.4,8.6L21.9,8.6L21.9,8.1L21.4,8.1L21.4,5.4L21.9,5.4L21.9,4.9L23.1,4.9L23.1,5.4L24.1,5.4L24.1,5.9L24.6,5.9L24.6,6.4L25.1,6.4L25.1,6.9L26.1,6.9L26.1,7.4L27.1,7.4L27.1,8.4L28.1,8.4L28.1,8.9L28.6,8.9L28.6,13.6L28.1,13.6L28.1,14.1L22.9,14.1L22.9,13.6L21.4,13.6L21.4,13.1L16.9,13.1L16.9,12.1L15.9,12.1L15.9,11.6L15.4,11.6L15.4,11.1L14.9,11.1z" stroke="none"/><path d="M25.5,6.1L25.5,5.9L25.9,5.9L25.9,5.4L27.4,5.4L27.4,3.4L27.9,3.4L27.9,2.6L27.4,2.6L27.4,2.1L19.1,2.1L19.1,2.6L18.6,2.6L18.6,3.1L17.6,3.1L17.6,4.1L15.4,4.1L15.4,3.1L15,3.1L15,2.9L15.6,2.9L15.6,3.9L17.4,3.9L17.4,2.9L18.4,2.9L18.4,2.4L18.9,2.4L18.9,1.9L27.6,1.9L27.6,2.4L28.1,2.4L28.1,3.6L27.6,3.6L27.6,5.6L26.1,5.6L26.1,6.1z" stroke="none"/></svg>