<svg version="1.1" width="30" height="15" xmlns="http://www.w3.org/2000/svg"><path d="M14.9,6.4L14.9,5.4L15.9,5.4L15.9,4.9L20.6,4.9L20.6,5.4L21.6,5.4L21.6,5.9L22.5,5.9L22.5,6.1L21.4,6.1L21.4,5.6L20.4,5.6L20.4,5.1L16.1,5.1L16.1,5.6L15.1,5.6L15.1,8.6L14.6,8.6L14.6,9.1L13.5,9.1L13.5,8.9L14.4,8.9L14.4,8.4L14.9,8.4L14.9,6.6L14.4,6.6L14.4,5.6L13.9,5.6L13.9,5.1L12.4,5.1L12.4,4.6L10.5,4.6L10.5,4.4L12.6,4.4L12.6,4.9L14.1,4.9L14.1,5.4L14.6,5.4L14.6,6.4z" stroke="none"/><path d="M23.9,3.4L23.9,2.9L24.4,2.9L24.4,1.9L26.1,1.9L26.1,2.4L26.6,2.4L26.6,2.9L27,2.9L27,3.1L26.4,3.1L26.4,2.6L25.9,2.6L25.9,2.1L24.6,2.1L24.6,3.1L24.1,3.1L24.1,3.6L23.6,3.6L23.6,4.4L24.1,4.4L24.1,4.9L25.1,4.9L25.1,5.4L26.4,5.4L26.4,4.4L27,4.4L27,4.6L26.6,4.6L26.6,5.6L24.9,5.6L24.9,5.1L23.9,5.1L23.9,4.6L23.4,4.6L23.4,3.6L20.1,3.6L20.1,4.1L16.1,4.1L16.1,4.6L15,4.6L15,4.4L15.9,4.4L15.9,3.9L19.9,3.9L19.9,3.4z" stroke="none"/><path d="M20.9,9.9L20.9,8.6L20.4,8.6L20.4,8.1L17.1,8.1L17.1,8.6L16.6,8.6L16.6,9L16.4,9L16.4,8.4L16.9,8.4L16.9,7.9L20.6,7.9L20.6,8.4L21.1,8.4L21.1,9.9L22.9,9.9L22.9,9.4L26.1,9.4L26.1,9.9L26.6,9.9L26.6,10.4L27,10.4L27,10.6L26.4,10.6L26.4,10.1L25.9,10.1L25.9,9.6L23.1,9.6L23.1,10.1L21.1,10.1L21.1,10.6L20.6,10.6L20.6,11.1L17.4,11.1L17.4,10.6L16.5,10.6L16.5,10.4L17.6,10.4L17.6,10.9L20.4,10.9L20.4,10.4L20.9,10.4L20.9,10.1L19.6,10.1L19.6,10.5L19.4,10.5L19.4,9.9z" stroke="none"/><path d="M11.4,7.4L11.4,6.4L12.4,6.4L12.4,5.9L13.5,5.9L13.5,6.1L12.6,6.1L12.6,6.6L11.6,6.6L11.6,7.4L13.5,7.4L13.5,7.6L11.6,7.6L11.6,7.9L12.6,7.9L12.6,9.4L13.1,9.4L13.1,9.9L13.6,9.9L13.6,10.5L13.4,10.5L13.4,10.1L12.9,10.1L12.9,9.6L12.4,9.6L12.4,8.1L11.4,8.1L11.4,7.6L6,7.6L6,7.4z" stroke="none"/><path d="M21,4.6L21,4.4L22.5,4.4L22.5,4.6z" stroke="none"/><path d="M18,9.1L18,8.9L19.5,8.9L19.5,9.1z" stroke="none"/><path d="M25.6,4.5L25.4,4.5L25.4,3L25.6,3z" stroke="none"/><path d="M19.5,5.9L19.5,6.1L18,6.1L18,5.9z" stroke="none"/><path d="M24,10.6L24,10.4L25.5,10.4L25.5,10.6z" stroke="none"/><path d="M6.1,10.5L5.9,10.5L5.9,9.6L4.1,9.6L4.1,10.1L3.6,10.1L3.6,10.6L3,10.6L3,10.4L3.4,10.4L3.4,9.9L3.9,9.9L3.9,9.4L6.1,9.4z" stroke="none"/><path d="M16.4,6L16.6,6L16.6,6.4L17.1,6.4L17.1,6.9L26.4,6.9L26.4,6.4L27.4,6.4L27.4,5.4L27.9,5.4L27.9,2.1L26.4,2.1L26.4,1.6L21.1,1.6L21.1,2.6L18.1,2.6L18.1,3L17.9,3L17.9,2.4L20.9,2.4L20.9,1.4L26.6,1.4L26.6,1.9L28.1,1.9L28.1,5.6L27.6,5.6L27.6,6.6L26.6,6.6L26.6,7.1L16.9,7.1L16.9,6.6L16.4,6.6z" stroke="none"/><path d="M4.5,10.6L4.5,10.4L5.1,10.4L5.1,10.9L5.6,10.9L5.6,11.4L7.9,11.4L7.9,10.9L8.9,10.9L8.9,10.5L9.1,10.5L9.1,11.1L8.1,11.1L8.1,11.6L5.4,11.6L5.4,11.1L4.9,11.1L4.9,10.6z" stroke="none"/><path d="M7.6,10.5L7.4,10.5L7.4,10.1L6.9,10.1L6.9,9.6L6.4,9.6L6.4,9.1L4.9,9.1L4.9,6.9L5.4,6.9L5.4,5.9L6,5.9L6,6.1L5.6,6.1L5.6,7.1L5.1,7.1L5.1,8.9L6.6,8.9L6.6,9.4L7.1,9.4L7.1,9.9L7.6,9.9z" stroke="none"/><path d="M9,6.1L9,5.9L9.4,5.9L9.4,3.4L10.9,3.4L10.9,2.9L13.5,2.9L13.5,3.1L11.1,3.1L11.1,3.6L9.6,3.6L9.6,6.1z" stroke="none"/><path d="M4.5,3.1L4.5,2.9L5.1,2.9L5.1,3.9L5.6,3.9L5.6,4.9L7.6,4.9L7.6,6.4L8.6,6.4L8.6,6.9L9.4,6.9L9.4,6.4L9.9,6.4L9.9,5.9L10.5,5.9L10.5,6.1L10.1,6.1L10.1,6.6L9.6,6.6L9.6,7.1L8.4,7.1L8.4,6.6L7.4,6.6L7.4,5.1L5.4,5.1L5.4,4.1L4.9,4.1L4.9,3.1z" stroke="none"/><path d="M3,12.1L3,11.9L12,11.9L12,12.1z" stroke="none"/><path d="M13.5,12.1L13.5,11.9L22.5,11.9L22.5,12.1z" stroke="none"/><path d="M3.1,3L2.9,3L2.9,2.4L3.4,2.4L3.4,1.9L14.1,1.9L14.1,2.4L15.1,2.4L15.1,3L14.9,3L14.9,2.6L13.9,2.6L13.9,2.1L3.6,2.1L3.6,2.6L3.1,2.6z" stroke="none"/><path d="M4.5,4.4L4.5,4.6L1.9,4.6L1.9,1.9L2.4,1.9L2.4,1.4L20.4,1.4L20.4,0.9L28.6,0.9L28.6,6.1L28.1,6.1L28.1,7.1L27.1,7.1L27.1,7.6L16.5,7.6L16.5,7.4L26.9,7.4L26.9,6.9L27.9,6.9L27.9,5.9L28.4,5.9L28.4,1.1L20.6,1.1L20.6,1.6L2.6,1.6L2.6,2.1L2.1,2.1L2.1,4.4z" stroke="none"/><path d="M2.9,6L3.1,6L3.1,9.1L2.6,9.1L2.6,10.1L2.1,10.1L2.1,12.4L2.6,12.4L2.6,12.9L23.4,12.9L23.4,11.6L22.9,11.6L22.9,11.1L21.6,11.1L21.6,11.6L15.9,11.6L15.9,11.1L15.4,11.1L15.4,10.6L15,10.6L15,10.4L15.6,10.4L15.6,10.9L16.1,10.9L16.1,11.4L21.4,11.4L21.4,10.9L23.1,10.9L23.1,11.4L23.6,11.4L23.6,13.1L2.4,13.1L2.4,12.6L1.9,12.6L1.9,9.9L2.4,9.9L2.4,8.9L2.9,8.9z" stroke="none"/></svg>