<svg version="1.1" width="30" height="15" xmlns="http://www.w3.org/2000/svg"><path d="M16.9,4.9L16.9,4.4L18.4,4.4L18.4,3.9L19.4,3.9L19.4,3.4L21.4,3.4L21.4,2.9L22.5,2.9L22.5,3.1L21.6,3.1L21.6,3.6L19.6,3.6L19.6,4.1L18.6,4.1L18.6,4.6L17.1,4.6L17.1,4.9L17.6,4.9L17.6,5.4L18.1,5.4L18.1,6L17.9,6L17.9,5.6L17.4,5.6L17.4,5.1L14.6,5.1L14.6,5.6L14.1,5.6L14.1,6.6L12.6,6.6L12.6,7.1L12.1,7.1L12.1,7.5L11.9,7.5L11.9,6.9L12.4,6.9L12.4,6.4L13.9,6.4L13.9,5.4L14.4,5.4L14.4,4.9z" stroke="none"/><path d="M14.9,6L15.1,6L15.1,7.9L15.4,7.9L15.4,6.9L15.9,6.9L15.9,6.4L17.6,6.4L17.6,6.9L18.1,6.9L18.1,7.5L17.9,7.5L17.9,7.1L17.4,7.1L17.4,6.6L16.1,6.6L16.1,7.1L15.6,7.1L15.6,8.1L15.1,8.1L15.1,10.6L13.5,10.6L13.5,10.4L14.9,10.4z" stroke="none"/><path d="M20.9,5.9L20.9,4.5L21.1,4.5L21.1,5.9L21.6,5.9L21.6,6.9L22.1,6.9L22.1,7.4L24,7.4L24,7.6L21.9,7.6L21.9,7.1L21.4,7.1L21.4,6.1L21.1,6.1L21.1,6.6L20.1,6.6L20.1,8.1L18.6,8.1L18.6,8.6L17.4,8.6L17.4,8.1L16.4,8.1L16.4,7.5L16.6,7.5L16.6,7.9L17.6,7.9L17.6,8.4L18.4,8.4L18.4,7.9L19.9,7.9L19.9,6.4L20.9,6.4L20.9,6.1L20.4,6.1L20.4,3.9L23.4,3.9L23.4,3.4L25.6,3.4L25.6,4.5L25.4,4.5L25.4,3.6L23.6,3.6L23.6,4.1L20.6,4.1L20.6,5.9z" stroke="none"/><path d="M10.4,10.4L10.4,9.9L12.4,9.9L12.4,9.4L12.9,9.4L12.9,7.4L13.5,7.4L13.5,7.6L13.1,7.6L13.1,9.6L12.6,9.6L12.6,10.1L10.6,10.1L10.6,10.4L12.6,10.4L12.6,10.9L13.1,10.9L13.1,11.4L15.4,11.4L15.4,10.4L15.9,10.4L15.9,9.4L16.4,9.4L16.4,9L16.6,9L16.6,9.6L16.1,9.6L16.1,10.6L15.6,10.6L15.6,11.6L12.9,11.6L12.9,11.1L12.4,11.1L12.4,10.6L10.6,10.6L10.6,11.1L10.1,11.1L10.1,12.1L9.1,12.1L9.1,12.6L5.4,12.6L5.4,12.1L4.5,12.1L4.5,11.9L5.6,11.9L5.6,12.4L8.9,12.4L8.9,11.9L9.9,11.9L9.9,10.9L10.4,10.9L10.4,10.6L9.1,10.6L9.1,11.1L7.6,11.1L7.6,12L7.4,12L7.4,10.9L8.9,10.9L8.9,10.4z" stroke="none"/><path d="M10.5,9.1L10.5,8.9L12,8.9L12,9.1z" stroke="none"/><path d="M19.5,11.9L19.5,12.1L18.9,12.1L18.9,11.1L17.9,11.1L17.9,10.5L18.1,10.5L18.1,10.9L19.1,10.9L19.1,11.9z" stroke="none"/><path d="M27.1,12L26.9,12L26.9,9L27.1,9z" stroke="none"/><path d="M24,4.6L24,4.4L24.6,4.4L24.6,5.4L27.1,5.4L27.1,6L26.9,6L26.9,5.6L24.4,5.6L24.4,4.6z" stroke="none"/><path d="M10.4,4.5L10.6,4.5L10.6,5.1L10.1,5.1L10.1,5.6L9.6,5.6L9.6,6.6L9.1,6.6L9.1,7.5L8.9,7.5L8.9,6.4L9.4,6.4L9.4,5.4L9.9,5.4L9.9,4.9L10.4,4.9z" stroke="none"/><path d="M4.4,6L4.6,6L4.6,6.4L5.1,6.4L5.1,6.9L5.6,6.9L5.6,7.4L6.1,7.4L6.1,7.9L6.6,7.9L6.6,8.4L7.1,8.4L7.1,8.9L7.5,8.9L7.5,9.1L6.9,9.1L6.9,8.6L6.4,8.6L6.4,8.1L5.9,8.1L5.9,7.6L5.4,7.6L5.4,7.1L4.9,7.1L4.9,6.6L4.4,6.6z" stroke="none"/><path d="M22.5,6.1L22.5,5.9L24.6,5.9L24.6,6.9L25.1,6.9L25.1,8.1L24.6,8.1L24.6,8.6L20.1,8.6L20.1,9.1L19.5,9.1L19.5,8.9L19.9,8.9L19.9,8.4L24.4,8.4L24.4,7.9L24.9,7.9L24.9,7.1L24.4,7.1L24.4,6.1z" stroke="none"/><path d="M3.1,7.5L2.9,7.5L2.9,3L3.1,3z" stroke="none"/><path d="M25.6,12L25.4,12L25.4,7.9L26.9,7.9L26.9,7.5L27.1,7.5L27.1,8.1L25.6,8.1z" stroke="none"/><path d="M7.5,4.6L7.5,4.4L7.9,4.4L7.9,3.4L11.9,3.4L11.9,3L12.1,3L12.1,3.6L8.1,3.6L8.1,4.6z" stroke="none"/><path d="M5.9,9L6.1,9L6.1,9.4L7.1,9.4L7.1,9.9L7.9,9.9L7.9,9.4L8.4,9.4L8.4,8.1L7.9,8.1L7.9,5.9L8.4,5.9L8.4,5.4L8.9,5.4L8.9,4.5L9.1,4.5L9.1,5.6L8.6,5.6L8.6,6.1L8.1,6.1L8.1,7.9L8.6,7.9L8.6,9.6L8.1,9.6L8.1,10.1L6.9,10.1L6.9,9.6L5.9,9.6z" stroke="none"/><path d="M15,2.9L15,3.1L14.6,3.1L14.6,4.1L11.6,4.1L11.6,5.6L11.1,5.6L11.1,6.1L10.5,6.1L10.5,5.9L10.9,5.9L10.9,5.4L11.4,5.4L11.4,3.9L14.4,3.9L14.4,2.9z" stroke="none"/><path d="M7.5,3.1L7.5,2.9L9.4,2.9L9.4,2.4L11.4,2.4L11.4,1.9L12.6,1.9L12.6,2.4L13.6,2.4L13.6,3L13.4,3L13.4,2.6L12.4,2.6L12.4,2.1L11.6,2.1L11.6,2.6L9.6,2.6L9.6,3.1z" stroke="none"/><path d="M21,11.9L21,12.1L20.6,12.1L20.6,12.6L20.1,12.6L20.1,13.1L3.4,13.1L3.4,10.9L6.9,10.9L6.9,10.4L8.4,10.4L8.4,9.9L8.9,9.9L8.9,9.4L9.4,9.4L9.4,8.4L9.9,8.4L9.9,7.4L10.5,7.4L10.5,7.6L10.1,7.6L10.1,8.6L9.6,8.6L9.6,9.6L9.1,9.6L9.1,10.1L8.6,10.1L8.6,10.6L7.1,10.6L7.1,11.1L3.6,11.1L3.6,12.9L19.9,12.9L19.9,12.4L20.4,12.4L20.4,11.9z" stroke="none"/><path d="M4.4,7.5L4.6,7.5L4.6,10.6L3.1,10.6L3.1,13.4L21.4,13.4L21.4,12.4L21.9,12.4L21.9,11.6L21.4,11.6L21.4,11.1L19.9,11.1L19.9,10.1L18.9,10.1L18.9,9.6L17.6,9.6L17.6,10.1L17.1,10.1L17.1,11.6L16.6,11.6L16.6,12L16.4,12L16.4,11.4L16.9,11.4L16.9,9.9L17.4,9.9L17.4,9.4L19.1,9.4L19.1,9.9L20.1,9.9L20.1,10.9L21.6,10.9L21.6,11.4L22.1,11.4L22.1,12.6L21.6,12.6L21.6,13.6L2.9,13.6L2.9,10.4L4.4,10.4z" stroke="none"/><path d="M23.9,10.5L24.1,10.5L24.1,11.9L24.6,11.9L24.6,12.4L25.1,12.4L25.1,12.9L27.9,12.9L27.9,5.1L27.4,5.1L27.4,4.6L26.9,4.6L26.9,4.1L26.4,4.1L26.4,3.1L23.9,3.1L23.9,2.1L16.1,2.1L16.1,3.6L15.6,3.6L15.6,4.6L13.1,4.6L13.1,5.1L12.6,5.1L12.6,6.1L12,6.1L12,5.9L12.4,5.9L12.4,4.9L12.9,4.9L12.9,4.4L15.4,4.4L15.4,3.4L15.9,3.4L15.9,1.9L24.1,1.9L24.1,2.9L26.6,2.9L26.6,3.9L27.1,3.9L27.1,4.4L27.6,4.4L27.6,4.9L28.1,4.9L28.1,13.1L24.9,13.1L24.9,12.6L24.4,12.6L24.4,12.1L23.9,12.1z" stroke="none"/></svg>