<svg version="1.1" width="30" height="15" xmlns="http://www.w3.org/2000/svg"><path d="M23.9,4.4L23.9,4.1L23.4,4.1L23.4,3.1L22.5,3.1L22.5,2.9L23.6,2.9L23.6,3.9L24.1,3.9L24.1,4.4L25.1,4.4L25.1,5.9L25.5,5.9L25.5,6.1L24.9,6.1L24.9,4.6L22.5,4.6L22.5,4.4z" stroke="none"/><path d="M18.6,4.9L18.6,5.4L19.6,5.4L19.6,6L19.4,6L19.4,5.6L18.4,5.6L18.4,5.1L17.6,5.1L17.6,6.9L18.1,6.9L18.1,7.5L17.9,7.5L17.9,7.1L17.4,7.1L17.4,5.1L13.4,5.1L13.4,4.6L12.9,4.6L12.9,4.1L12.4,4.1L12.4,3.6L11.9,3.6L11.9,3L12.1,3L12.1,3.4L12.6,3.4L12.6,3.9L13.1,3.9L13.1,4.4L13.6,4.4L13.6,4.9z" stroke="none"/><path d="M13.9,7.9L13.9,7.4L15.1,7.4L15.1,7.9L15.6,7.9L15.6,8.4L16.1,8.4L16.1,8.9L16.5,8.9L16.5,9.1L15.9,9.1L15.9,8.6L15.4,8.6L15.4,8.1L14.9,8.1L14.9,7.6L14.1,7.6L14.1,7.9L14.6,7.9L14.6,8.4L15.1,8.4L15.1,9L14.9,9L14.9,8.6L14.4,8.6L14.4,8.1L14.1,8.1L14.1,8.9L14.6,8.9L14.6,9.4L17.9,9.4L17.9,8.4L18.4,8.4L18.4,7.9L19.4,7.9L19.4,7.5L19.6,7.5L19.6,8.1L18.6,8.1L18.6,8.6L18.1,8.6L18.1,9.6L14.4,9.6L14.4,9.1L13.9,9.1L13.9,8.1L13.6,8.1L13.6,10.1L13.1,10.1L13.1,10.6L12.6,10.6L12.6,11.1L11.1,11.1L11.1,11.6L9.6,11.6L9.6,12.1L9,12.1L9,11.9L9.4,11.9L9.4,11.4L10.9,11.4L10.9,10.9L12.4,10.9L12.4,10.4L12.9,10.4L12.9,9.9L13.4,9.9L13.4,7.9z" stroke="none"/><path d="M7.4,7.4L7.4,7.1L5.6,7.1L5.6,7.6L4.5,7.6L4.5,7.4L5.4,7.4L5.4,6.9L7.6,6.9L7.6,7.4L8.1,7.4L8.1,7.9L8.6,7.9L8.6,8.4L9.1,8.4L9.1,9L8.9,9L8.9,8.6L8.4,8.6L8.4,8.1L7.9,8.1L7.9,7.6L7.6,7.6L7.6,8.9L8.1,8.9L8.1,9.4L10.4,9.4L10.4,8.9L10.9,8.9L10.9,7.4L11.4,7.4L11.4,6.9L11.9,6.9L11.9,6L12.1,6L12.1,7.1L11.6,7.1L11.6,7.6L11.1,7.6L11.1,9.1L10.6,9.1L10.6,9.6L7.9,9.6L7.9,9.1L7.4,9.1L7.4,7.6L6,7.6L6,7.4z" stroke="none"/><path d="M20.9,6L21.1,6L21.1,7.5L20.9,7.5z" stroke="none"/><path d="M4.5,3.1L4.5,2.9L6,2.9L6,3.1z" stroke="none"/><path d="M3,10.6L3,10.4L3.9,10.4L3.9,9.4L4.4,9.4L4.4,9L4.6,9L4.6,9.6L4.1,9.6L4.1,10.6z" stroke="none"/><path d="M22.5,7.4L22.5,7.6L22.1,7.6L22.1,8.6L20.6,8.6L20.6,9.1L19.5,9.1L19.5,8.9L20.4,8.9L20.4,8.4L21.9,8.4L21.9,7.4z" stroke="none"/><path d="M25.6,10.5L25.4,10.5L25.4,9.9L25.9,9.9L25.9,9.4L26.4,9.4L26.4,8.9L26.9,8.9L26.9,7.5L27.1,7.5L27.1,9.1L26.6,9.1L26.6,9.6L26.1,9.6L26.1,10.1L25.6,10.1z" stroke="none"/><path d="M7.5,10.4L7.5,10.6L4.6,10.6L4.6,11.1L4.1,11.1L4.1,11.6L1.9,11.6L1.9,6.4L2.4,6.4L2.4,5.9L3.4,5.9L3.4,4.9L8.6,4.9L8.6,5.4L9.1,5.4L9.1,6L8.9,6L8.9,5.6L8.4,5.6L8.4,5.1L3.6,5.1L3.6,6.1L2.6,6.1L2.6,6.6L2.1,6.6L2.1,11.4L3.9,11.4L3.9,10.9L4.4,10.9L4.4,10.4z" stroke="none"/><path d="M23.9,6L24.1,6L24.1,8.6L23.6,8.6L23.6,9.6L22.6,9.6L22.6,10.5L22.4,10.5L22.4,9.4L23.4,9.4L23.4,8.4L23.9,8.4z" stroke="none"/><path d="M4.5,6.1L4.5,5.9L6.6,5.9L6.6,6.4L8.1,6.4L8.1,6.9L9.4,6.9L9.4,6.4L9.9,6.4L9.9,5.6L9.4,5.6L9.4,5.1L8.9,5.1L8.9,4.5L9.1,4.5L9.1,4.9L9.6,4.9L9.6,5.4L10.1,5.4L10.1,6.6L9.6,6.6L9.6,7.1L7.9,7.1L7.9,6.6L6.4,6.6L6.4,6.1z" stroke="none"/><path d="M19.5,10.6L19.5,10.4L21.6,10.4L21.6,11.4L24.1,11.4L24.1,12L23.9,12L23.9,11.6L21.4,11.6L21.4,10.6z" stroke="none"/><path d="M25.4,9L25.6,9L25.6,9.6L24.6,9.6L24.6,10.9L25.1,10.9L25.1,12.6L24.6,12.6L24.6,13.1L20.9,13.1L20.9,12L21.1,12L21.1,12.9L24.4,12.9L24.4,12.4L24.9,12.4L24.9,11.1L24.4,11.1L24.4,9.4L25.4,9.4z" stroke="none"/><path d="M16.5,5.9L16.5,6.1L12.9,6.1L12.9,5.6L12.4,5.6L12.4,5.1L11.4,5.1L11.4,3.6L10.9,3.6L10.9,1.9L16.1,1.9L16.1,2.4L16.6,2.4L16.6,3.4L19.1,3.4L19.1,3.9L19.6,3.9L19.6,4.4L20.1,4.4L20.1,4.9L22.1,4.9L22.1,5.4L22.6,5.4L22.6,6L22.4,6L22.4,5.6L21.9,5.6L21.9,5.1L19.9,5.1L19.9,4.6L19.4,4.6L19.4,4.1L18.9,4.1L18.9,3.6L16.4,3.6L16.4,2.6L15.9,2.6L15.9,2.1L11.1,2.1L11.1,3.4L11.6,3.4L11.6,4.9L12.6,4.9L12.6,5.4L13.1,5.4L13.1,5.9z" stroke="none"/><path d="M10.5,10.4L10.5,10.6L9.6,10.6L9.6,11.1L8.1,11.1L8.1,11.6L6.6,11.6L6.6,12.1L4.5,12.1L4.5,11.9L6.4,11.9L6.4,11.4L7.9,11.4L7.9,10.9L9.4,10.9L9.4,10.4z" stroke="none"/><path d="M19.4,12L19.6,12L19.6,12.9L20.1,12.9L20.1,13.4L25.9,13.4L25.9,12.4L26.4,12.4L26.4,11.9L26.9,11.9L26.9,10.5L27.1,10.5L27.1,12.1L26.6,12.1L26.6,12.6L26.1,12.6L26.1,13.6L19.9,13.6L19.9,13.1L19.4,13.1z" stroke="none"/><path d="M19.5,2.9L19.5,3.1L17.9,3.1L17.9,2.6L16.9,2.6L16.9,2.1L16.4,2.1L16.4,1.6L10.6,1.6L10.6,4.5L10.4,4.5L10.4,1.4L16.6,1.4L16.6,1.9L17.1,1.9L17.1,2.4L18.1,2.4L18.1,2.9z" stroke="none"/><path d="M9.1,3L8.9,3L8.9,2.4L9.4,2.4L9.4,1.4L9.9,1.4L9.9,0.9L18.6,0.9L18.6,1.9L20.1,1.9L20.1,2.4L20.6,2.4L20.6,2.9L21,2.9L21,3.1L20.4,3.1L20.4,2.6L19.9,2.6L19.9,2.1L18.4,2.1L18.4,1.1L10.1,1.1L10.1,1.6L9.6,1.6L9.6,2.6L9.1,2.6z" stroke="none"/><path d="M13.5,12.1L13.5,11.9L14.6,11.9L14.6,12.4L15.6,12.4L15.6,13.4L19.6,13.4L19.6,13.9L26.9,13.9L26.9,13.4L27.4,13.4L27.4,11.9L27.9,11.9L27.9,6.6L26.1,6.6L26.1,7.6L25.5,7.6L25.5,7.4L25.9,7.4L25.9,6.4L28.1,6.4L28.1,12.1L27.6,12.1L27.6,13.6L27.1,13.6L27.1,14.1L19.4,14.1L19.4,13.6L15.4,13.6L15.4,12.6L14.4,12.6L14.4,12.1z" stroke="none"/></svg>