<svg version="1.1" width="30" height="15" xmlns="http://www.w3.org/2000/svg"><path d="M14.9,4.4L14.9,3L15.1,3L15.1,4.4L15.6,4.4L15.6,4.9L16.1,4.9L16.1,5.4L19.6,5.4L19.6,6L19.4,6L19.4,5.6L15.9,5.6L15.9,5.1L15.4,5.1L15.4,4.6L12,4.6L12,4.4z" stroke="none"/><path d="M6.4,6.9L6.4,5.4L6.9,5.4L6.9,4.4L7.5,4.4L7.5,4.6L7.1,4.6L7.1,5.6L6.6,5.6L6.6,8.9L7.5,8.9L7.5,9.1L6.4,9.1L6.4,7.1L5.9,7.1L5.9,3.9L9.1,3.9L9.1,4.5L8.9,4.5L8.9,4.1L6.1,4.1L6.1,6.9z" stroke="none"/><path d="M18.4,9.4L18.4,8.9L19.6,8.9L19.6,9.4L20.1,9.4L20.1,11.6L19.6,11.6L19.6,12L19.4,12L19.4,11.4L19.9,11.4L19.9,9.6L19.4,9.6L19.4,9.1L18.6,9.1L18.6,9.4L19.1,9.4L19.1,9.9L19.6,9.9L19.6,10.5L19.4,10.5L19.4,10.1L18.9,10.1L18.9,9.6L18.6,9.6L18.6,11.6L18.1,11.6L18.1,12L17.9,12L17.9,11.4L18.4,11.4L18.4,9.6L17.9,9.6L17.9,8.4L18.9,8.4L18.9,7.9L20.9,7.9L20.9,7.5L21.1,7.5L21.1,8.1L19.1,8.1L19.1,8.6L18.1,8.6L18.1,9.4z" stroke="none"/><path d="M20.9,10.4L20.9,9L21.1,9L21.1,10.4L22.5,10.4L22.5,10.6L21.1,10.6L21.1,10.9L24.6,10.9L24.6,11.4L25.6,11.4L25.6,12L25.4,12L25.4,11.6L24.4,11.6L24.4,11.1L20.9,11.1L20.9,10.6L20.6,10.6L20.6,13.1L15.9,13.1L15.9,12.6L15.4,12.6L15.4,11.1L14.9,11.1L14.9,10.5L15.1,10.5L15.1,10.9L15.6,10.9L15.6,12.4L16.1,12.4L16.1,12.9L20.4,12.9L20.4,10.4z" stroke="none"/><path d="M9,6.1L9,5.9L10.5,5.9L10.5,6.1z" stroke="none"/><path d="M4.5,8.9L4.5,9.1L3,9.1L3,8.9z" stroke="none"/><path d="M27.1,12L26.9,12L26.9,11.1L26.4,11.1L26.4,10.6L25.5,10.6L25.5,10.4L26.6,10.4L26.6,10.9L27.1,10.9z" stroke="none"/><path d="M22.5,12.1L22.5,11.9L24.6,11.9L24.6,12.9L27.4,12.9L27.4,12.4L27.9,12.4L27.9,11.1L27.4,11.1L27.4,10.6L26.9,10.6L26.9,10.1L25.9,10.1L25.9,9.6L24.6,9.6L24.6,10.1L22.9,10.1L22.9,9.6L22.4,9.6L22.4,9L22.6,9L22.6,9.4L23.1,9.4L23.1,9.9L24.4,9.9L24.4,9.4L26.1,9.4L26.1,9.9L27.1,9.9L27.1,10.4L27.6,10.4L27.6,10.9L28.1,10.9L28.1,12.6L27.6,12.6L27.6,13.1L24.4,13.1L24.4,12.1z" stroke="none"/><path d="M22.4,3L22.6,3L22.6,6L22.4,6z" stroke="none"/><path d="M7.5,10.6L7.5,10.4L9.9,10.4L9.9,9.9L10.4,9.9L10.4,9L10.6,9L10.6,10.1L10.1,10.1L10.1,10.6z" stroke="none"/><path d="M12,7.4L12,7.6L8.4,7.6L8.4,6.6L7.4,6.6L7.4,6L7.6,6L7.6,6.4L8.6,6.4L8.6,7.4z" stroke="none"/><path d="M16.6,12L16.4,12L16.4,10.4L16.9,10.4L16.9,9.9L17.4,9.9L17.4,7.9L17.9,7.9L17.9,7.5L18.1,7.5L18.1,8.1L17.6,8.1L17.6,10.1L17.1,10.1L17.1,10.6L16.6,10.6z" stroke="none"/><path d="M7.5,2.9L7.5,3.1L6.1,3.1L6.1,3.6L5.6,3.6L5.6,4.1L5.1,4.1L5.1,4.6L4.1,4.6L4.1,5.6L3.1,5.6L3.1,6L2.9,6L2.9,5.4L3.9,5.4L3.9,4.4L4.9,4.4L4.9,3.9L5.4,3.9L5.4,3.4L5.9,3.4L5.9,2.9z" stroke="none"/><path d="M16.6,9L16.4,9L16.4,8.1L14.6,8.1L14.6,8.6L13.6,8.6L13.6,9.1L13.1,9.1L13.1,9.6L12.6,9.6L12.6,10.6L11.6,10.6L11.6,11.1L11.1,11.1L11.1,11.6L10.6,11.6L10.6,12L10.4,12L10.4,11.4L10.9,11.4L10.9,10.9L11.4,10.9L11.4,10.4L12.4,10.4L12.4,9.4L12.9,9.4L12.9,8.9L13.4,8.9L13.4,8.4L14.4,8.4L14.4,7.9L16.6,7.9z" stroke="none"/><path d="M9,12.1L9,11.9L9.6,11.9L9.6,12.4L10.1,12.4L10.1,12.9L11.9,12.9L11.9,12.4L12.4,12.4L12.4,10.9L12.9,10.9L12.9,10.4L13.9,10.4L13.9,8.9L15,8.9L15,9.1L14.1,9.1L14.1,10.6L13.1,10.6L13.1,11.1L12.6,11.1L12.6,12.6L12.1,12.6L12.1,13.1L9.9,13.1L9.9,12.6L9.4,12.6L9.4,12.1z" stroke="none"/><path d="M16.5,4.6L16.5,4.4L18.4,4.4L18.4,3.9L18.9,3.9L18.9,3.4L20.4,3.4L20.4,2.4L21.9,2.4L21.9,1.9L23.1,1.9L23.1,2.4L23.6,2.4L23.6,3.4L24.6,3.4L24.6,3.9L25.6,3.9L25.6,4.5L25.4,4.5L25.4,4.1L24.4,4.1L24.4,3.6L23.4,3.6L23.4,2.6L22.9,2.6L22.9,2.1L22.1,2.1L22.1,2.6L20.6,2.6L20.6,3.6L19.1,3.6L19.1,4.1L18.6,4.1L18.6,4.6z" stroke="none"/><path d="M4.4,6L4.6,6L4.6,7.9L5.1,7.9L5.1,8.4L5.6,8.4L5.6,11.4L8.4,11.4L8.4,10.9L10.4,10.9L10.4,10.4L10.9,10.4L10.9,9.4L11.9,9.4L11.9,8.9L12.4,8.9L12.4,8.4L12.9,8.4L12.9,6.4L13.4,6.4L13.4,6L13.6,6L13.6,6.6L13.1,6.6L13.1,8.6L12.6,8.6L12.6,9.1L12.1,9.1L12.1,9.6L11.1,9.6L11.1,10.6L10.6,10.6L10.6,11.1L8.6,11.1L8.6,11.6L5.4,11.6L5.4,8.6L4.9,8.6L4.9,8.1L4.4,8.1z" stroke="none"/><path d="M15,6.1L15,5.9L18.6,5.9L18.6,6.4L19.1,6.4L19.1,6.9L20.4,6.9L20.4,6.4L22.1,6.4L22.1,6.9L23.9,6.9L23.9,6.4L25.4,6.4L25.4,6L25.6,6L25.6,6.6L24.1,6.6L24.1,7.1L21.9,7.1L21.9,6.6L20.6,6.6L20.6,7.1L18.9,7.1L18.9,6.6L18.4,6.6L18.4,6.1z" stroke="none"/><path d="M13.4,12L13.6,12L13.6,12.6L13.1,12.6L13.1,13.1L12.6,13.1L12.6,13.6L5.9,13.6L5.9,13.1L4.9,13.1L4.9,11.6L4.4,11.6L4.4,11.1L3.4,11.1L3.4,10.6L2.9,10.6L2.9,10.1L2.4,10.1L2.4,9.6L1.9,9.6L1.9,8.4L2.4,8.4L2.4,7.4L3,7.4L3,7.6L2.6,7.6L2.6,8.6L2.1,8.6L2.1,9.4L2.6,9.4L2.6,9.9L3.1,9.9L3.1,10.4L3.6,10.4L3.6,10.9L4.6,10.9L4.6,11.4L5.1,11.4L5.1,12.9L6.1,12.9L6.1,13.4L12.4,13.4L12.4,12.9L12.9,12.9L12.9,12.4L13.4,12.4z" stroke="none"/><path d="M24,9.1L24,8.9L24.4,8.9L24.4,8.4L24.9,8.4L24.9,6.9L25.9,6.9L25.9,6.4L26.4,6.4L26.4,3.1L25.4,3.1L25.4,2.6L23.9,2.6L23.9,2.1L23.4,2.1L23.4,1.6L13.1,1.6L13.1,2.6L11.1,2.6L11.1,5.4L12.1,5.4L12.1,6L11.9,6L11.9,5.6L10.9,5.6L10.9,2.4L12.9,2.4L12.9,1.4L23.6,1.4L23.6,1.9L24.1,1.9L24.1,2.4L25.6,2.4L25.6,2.9L26.6,2.9L26.6,6.6L26.1,6.6L26.1,7.1L25.1,7.1L25.1,8.6L24.6,8.6L24.6,9.1z" stroke="none"/></svg>