<svg version="1.1" width="30" height="15" xmlns="http://www.w3.org/2000/svg"><path d="M10.4,8.9L10.4,8.4L10.9,8.4L10.9,7.9L11.9,7.9L11.9,7.4L13.5,7.4L13.5,7.6L12.1,7.6L12.1,8.1L11.1,8.1L11.1,8.6L10.6,8.6L10.6,8.9L12,8.9L12,9.1L9.6,9.1L9.6,10.1L8.6,10.1L8.6,10.6L7.5,10.6L7.5,10.4L8.4,10.4L8.4,9.9L9.4,9.9L9.4,8.9z" stroke="none"/><path d="M16.4,3.9L16.4,2.9L16.9,2.9L16.9,2.4L17.4,2.4L17.4,1.9L21.6,1.9L21.6,2.4L22.1,2.4L22.1,2.9L22.5,2.9L22.5,3.1L21.9,3.1L21.9,2.6L21.4,2.6L21.4,2.1L17.6,2.1L17.6,2.6L17.1,2.6L17.1,3.1L16.6,3.1L16.6,5.1L16.1,5.1L16.1,5.6L15.1,5.6L15.1,6L14.9,6L14.9,5.4L15.9,5.4L15.9,4.9L16.4,4.9L16.4,4.1L13.9,4.1L13.9,3.6L12.4,3.6L12.4,3.1L12,3.1L12,2.9L12.6,2.9L12.6,3.4L14.1,3.4L14.1,3.9z" stroke="none"/><path d="M16.4,9.4L16.4,7.4L17.4,7.4L17.4,6.9L20.1,6.9L20.1,11.4L22.6,11.4L22.6,12L22.4,12L22.4,11.6L19.9,11.6L19.9,7.1L17.6,7.1L17.6,7.6L16.6,7.6L16.6,9.4L16.9,9.4L16.9,8.4L17.4,8.4L17.4,7.9L18.4,7.9L18.4,7.4L19.5,7.4L19.5,7.6L18.6,7.6L18.6,8.1L17.6,8.1L17.6,8.6L17.1,8.6L17.1,9.6L16.6,9.6L16.6,10.1L14.1,10.1L14.1,10.6L13.6,10.6L13.6,11.1L12.6,11.1L12.6,11.6L10.4,11.6L10.4,10.5L10.6,10.5L10.6,11.4L12.4,11.4L12.4,10.9L13.4,10.9L13.4,10.4L13.9,10.4L13.9,9.9L16.4,9.9L16.4,9.6L14.9,9.6L14.9,9L15.1,9L15.1,9.4z" stroke="none"/><path d="M20.9,4.4L20.9,3.9L25.1,3.9L25.1,4.4L25.5,4.4L25.5,4.6L24.9,4.6L24.9,4.1L21.1,4.1L21.1,4.4L24,4.4L24,4.6L21.1,4.6L21.1,5.1L18.6,5.1L18.6,5.6L16.6,5.6L16.6,6L16.4,6L16.4,5.4L18.4,5.4L18.4,4.9L20.9,4.9L20.9,4.6L18,4.6L18,4.4z" stroke="none"/><path d="M2.9,6L3.1,6L3.1,7.5L2.9,7.5z" stroke="none"/><path d="M19.5,2.9L19.5,3.1L18,3.1L18,2.9z" stroke="none"/><path d="M9,11.9L9,12.1L6,12.1L6,11.9z" stroke="none"/><path d="M26.9,7.5L27.1,7.5L27.1,9.1L26.6,9.1L26.6,10.1L25.6,10.1L25.6,10.5L25.4,10.5L25.4,9.9L26.4,9.9L26.4,8.9L26.9,8.9z" stroke="none"/><path d="M25.5,8.9L25.5,9.1L22.9,9.1L22.9,8.1L22.4,8.1L22.4,7.5L22.6,7.5L22.6,7.9L23.1,7.9L23.1,8.9z" stroke="none"/><path d="M17.9,9L18.1,9L18.1,10.9L19.6,10.9L19.6,12L19.4,12L19.4,11.1L17.9,11.1z" stroke="none"/><path d="M3,4.6L3,4.4L5.1,4.4L5.1,4.9L5.6,4.9L5.6,7.4L6,7.4L6,7.6L5.4,7.6L5.4,5.1L4.9,5.1L4.9,4.6z" stroke="none"/><path d="M4.4,6L4.6,6L4.6,7.9L5.1,7.9L5.1,8.4L5.6,8.4L5.6,10.1L5.1,10.1L5.1,10.6L4.5,10.6L4.5,10.4L4.9,10.4L4.9,9.9L5.4,9.9L5.4,8.6L4.9,8.6L4.9,8.1L4.4,8.1z" stroke="none"/><path d="M10.5,2.9L10.5,3.1L9.1,3.1L9.1,4.1L6.9,4.1L6.9,3.6L6.4,3.6L6.4,3.1L6,3.1L6,2.9L6.6,2.9L6.6,3.4L7.1,3.4L7.1,3.9L8.9,3.9L8.9,2.9z" stroke="none"/><path d="M22.5,10.6L22.5,10.4L23.1,10.4L23.1,11.4L23.6,11.4L23.6,12.6L23.1,12.6L23.1,13.1L18.9,13.1L18.9,12.6L17.9,12.6L17.9,12L18.1,12L18.1,12.4L19.1,12.4L19.1,12.9L22.9,12.9L22.9,12.4L23.4,12.4L23.4,11.6L22.9,11.6L22.9,10.6z" stroke="none"/><path d="M12.1,10.5L11.9,10.5L11.9,9.9L12.9,9.9L12.9,9.4L13.9,9.4L13.9,7.9L14.4,7.9L14.4,7.1L13.9,7.1L13.9,6.6L12.6,6.6L12.6,7.1L10.9,7.1L10.9,6.6L8.9,6.6L8.9,6L9.1,6L9.1,6.4L11.1,6.4L11.1,6.9L12.4,6.9L12.4,6.4L14.1,6.4L14.1,6.9L14.6,6.9L14.6,8.1L14.1,8.1L14.1,9.6L13.1,9.6L13.1,10.1L12.1,10.1z" stroke="none"/><path d="M27,10.4L27,10.6L26.6,10.6L26.6,11.1L26.1,11.1L26.1,11.6L23.9,11.6L23.9,11.1L23.4,11.1L23.4,9.6L21.6,9.6L21.6,10.6L21,10.6L21,10.4L21.4,10.4L21.4,9.4L23.6,9.4L23.6,10.9L24.1,10.9L24.1,11.4L25.9,11.4L25.9,10.9L26.4,10.9L26.4,10.4z" stroke="none"/><path d="M13.5,4.4L13.5,4.6L5.4,4.6L5.4,4.1L4.9,4.1L4.9,2.4L5.4,2.4L5.4,1.9L7.1,1.9L7.1,2.9L7.5,2.9L7.5,3.1L6.9,3.1L6.9,2.1L5.6,2.1L5.6,2.6L5.1,2.6L5.1,3.9L5.6,3.9L5.6,4.4z" stroke="none"/><path d="M4.4,9L4.6,9L4.6,9.6L4.1,9.6L4.1,10.1L3.6,10.1L3.6,10.9L4.1,10.9L4.1,11.4L4.9,11.4L4.9,10.9L5.9,10.9L5.9,8.4L6.4,8.4L6.4,7.9L6.9,7.9L6.9,5.9L7.9,5.9L7.9,4.9L11.6,4.9L11.6,5.9L12,5.9L12,6.1L11.4,6.1L11.4,5.1L8.1,5.1L8.1,6.1L7.1,6.1L7.1,8.1L6.6,8.1L6.6,8.6L6.1,8.6L6.1,11.1L5.1,11.1L5.1,11.6L3.9,11.6L3.9,11.1L3.4,11.1L3.4,9.9L3.9,9.9L3.9,9.4L4.4,9.4z" stroke="none"/><path d="M25.6,3L25.4,3L25.4,2.6L22.9,2.6L22.9,2.1L21.9,2.1L21.9,1.6L15.6,1.6L15.6,2.6L15.1,2.6L15.1,3L14.9,3L14.9,2.4L15.4,2.4L15.4,1.4L22.1,1.4L22.1,1.9L23.1,1.9L23.1,2.4L25.6,2.4z" stroke="none"/><path d="M10.5,7.4L10.5,7.6L8.1,7.6L8.1,8.6L7.6,8.6L7.6,9.6L7.1,9.6L7.1,10.1L6.6,10.1L6.6,10.9L7.1,10.9L7.1,11.4L8.4,11.4L8.4,10.9L9.6,10.9L9.6,11.4L10.1,11.4L10.1,11.9L14.6,11.9L14.6,12.4L16.6,12.4L16.6,12.9L18.6,12.9L18.6,13.4L26.4,13.4L26.4,12.4L27.4,12.4L27.4,10.9L27.9,10.9L27.9,7.1L27.4,7.1L27.4,6.6L21.6,6.6L21.6,7.1L21.1,7.1L21.1,7.5L20.9,7.5L20.9,6.9L21.4,6.9L21.4,6.4L27.6,6.4L27.6,6.9L28.1,6.9L28.1,11.1L27.6,11.1L27.6,12.6L26.6,12.6L26.6,13.6L18.4,13.6L18.4,13.1L16.4,13.1L16.4,12.6L14.4,12.6L14.4,12.1L9.9,12.1L9.9,11.6L9.4,11.6L9.4,11.1L8.6,11.1L8.6,11.6L6.9,11.6L6.9,11.1L6.4,11.1L6.4,9.9L6.9,9.9L6.9,9.4L7.4,9.4L7.4,8.4L7.9,8.4L7.9,7.4z" stroke="none"/></svg>