<svg version="1.1" width="30" height="15" xmlns="http://www.w3.org/2000/svg"><path d="M5.9,7.4L5.9,6L6.1,6L6.1,9L5.9,9L5.9,7.6L5.6,7.6L5.6,9.6L5.1,9.6L5.1,10.6L4.5,10.6L4.5,10.4L4.9,10.4L4.9,9.4L5.4,9.4L5.4,7.4z" stroke="none"/><path d="M8.9,7.9L8.9,7.4L9.4,7.4L9.4,6.9L9.9,6.9L9.9,6.4L10.9,6.4L10.9,5.9L12,5.9L12,6.1L11.1,6.1L11.1,6.6L10.1,6.6L10.1,7.1L9.6,7.1L9.6,7.6L9.1,7.6L9.1,7.9L9.6,7.9L9.6,9.4L10.1,9.4L10.1,9.9L10.6,9.9L10.6,10.5L10.4,10.5L10.4,10.1L9.9,10.1L9.9,9.6L9.4,9.6L9.4,8.1L8.4,8.1L8.4,5.1L5.6,5.1L5.6,5.6L5.1,5.6L5.1,7.6L4.5,7.6L4.5,7.4L4.9,7.4L4.9,5.4L5.4,5.4L5.4,4.9L8.6,4.9L8.6,7.9z" stroke="none"/><path d="M20.9,8.9L20.9,7.9L21.4,7.9L21.4,6.9L21.9,6.9L21.9,5.9L22.5,5.9L22.5,6.1L22.1,6.1L22.1,7.1L21.6,7.1L21.6,8.1L21.1,8.1L21.1,8.9L22.6,8.9L22.6,9.4L23.6,9.4L23.6,9.9L24.6,9.9L24.6,10.4L25.5,10.4L25.5,10.6L24.4,10.6L24.4,10.1L23.4,10.1L23.4,9.6L22.4,9.6L22.4,9.1L21.1,9.1L21.1,9.6L18.6,9.6L18.6,10.6L18,10.6L18,10.4L18.4,10.4L18.4,9.4L20.9,9.4L20.9,9.1L19.5,9.1L19.5,8.9z" stroke="none"/><path d="M13.4,5.9L13.4,4.6L12.9,4.6L12.9,4.1L12.4,4.1L12.4,3.6L11.6,3.6L11.6,4.1L11.1,4.1L11.1,4.6L10.5,4.6L10.5,4.4L10.9,4.4L10.9,3.9L11.4,3.9L11.4,3.4L12.6,3.4L12.6,3.9L13.1,3.9L13.1,4.4L13.6,4.4L13.6,5.9L15.4,5.9L15.4,5.4L15.9,5.4L15.9,4.9L19.1,4.9L19.1,5.4L21.4,5.4L21.4,4.9L22.4,4.9L22.4,4.5L22.6,4.5L22.6,5.1L21.6,5.1L21.6,5.6L18.9,5.6L18.9,5.1L16.1,5.1L16.1,5.6L15.6,5.6L15.6,6.1L13.6,6.1L13.6,7.6L12.1,7.6L12.1,8.1L11.6,8.1L11.6,8.6L10.6,8.6L10.6,9L10.4,9L10.4,8.4L11.4,8.4L11.4,7.9L11.9,7.9L11.9,7.4L13.4,7.4L13.4,6.1L13.1,6.1L13.1,7.1L11.1,7.1L11.1,7.6L10.5,7.6L10.5,7.4L10.9,7.4L10.9,6.9L12.9,6.9L12.9,5.9z" stroke="none"/><path d="M26.9,10.5L27.1,10.5L27.1,11.6L26.6,11.6L26.6,12.1L25.5,12.1L25.5,11.9L26.4,11.9L26.4,11.4L26.9,11.4z" stroke="none"/><path d="M24,8.9L24,9.1L23.4,9.1L23.4,8.6L22.9,8.6L22.9,6.4L23.9,6.4L23.9,6L24.1,6L24.1,6.6L23.1,6.6L23.1,8.4L23.6,8.4L23.6,8.9z" stroke="none"/><path d="M15,7.6L15,7.4L15.6,7.4L15.6,7.9L16.6,7.9L16.6,8.4L17.1,8.4L17.1,8.9L18,8.9L18,9.1L16.9,9.1L16.9,8.6L16.4,8.6L16.4,8.1L15.4,8.1L15.4,7.6z" stroke="none"/><path d="M4.4,9L4.6,9L4.6,9.6L4.1,9.6L4.1,10.1L3.6,10.1L3.6,10.9L4.1,10.9L4.1,11.4L6.1,11.4L6.1,12L5.9,12L5.9,11.6L3.9,11.6L3.9,11.1L3.4,11.1L3.4,9.9L3.9,9.9L3.9,9.4L4.4,9.4z" stroke="none"/><path d="M27,4.4L27,4.6L25.1,4.6L25.1,7.1L24.1,7.1L24.1,7.5L23.9,7.5L23.9,6.9L24.9,6.9L24.9,4.4z" stroke="none"/><path d="M25.4,7.5L25.6,7.5L25.6,8.9L26.6,8.9L26.6,9.4L27.6,9.4L27.6,9.9L28.1,9.9L28.1,13.1L24.4,13.1L24.4,12.1L24,12.1L24,11.9L24.6,11.9L24.6,12.9L27.9,12.9L27.9,10.1L27.4,10.1L27.4,9.6L26.4,9.6L26.4,9.1L25.4,9.1z" stroke="none"/><path d="M25.5,3.1L25.5,2.9L27.1,2.9L27.1,3.4L27.6,3.4L27.6,3.9L28.1,3.9L28.1,7.1L27.1,7.1L27.1,7.5L26.9,7.5L26.9,6.9L27.9,6.9L27.9,4.1L27.4,4.1L27.4,3.6L26.9,3.6L26.9,3.1z" stroke="none"/><path d="M22.6,3L22.4,3L22.4,2.1L20.1,2.1L20.1,2.6L19.1,2.6L19.1,3.1L16.5,3.1L16.5,2.9L18.9,2.9L18.9,2.4L19.9,2.4L19.9,1.9L22.6,1.9z" stroke="none"/><path d="M21,2.9L21,3.1L20.1,3.1L20.1,3.6L17.1,3.6L17.1,4.1L15.9,4.1L15.9,3.6L15.4,3.6L15.4,3.1L15,3.1L15,2.9L15.6,2.9L15.6,3.4L16.1,3.4L16.1,3.9L16.9,3.9L16.9,3.4L19.9,3.4L19.9,2.9z" stroke="none"/><path d="M15,4.6L15,4.4L21,4.4L21,4.6z" stroke="none"/><path d="M16.5,12.1L16.5,11.9L21.9,11.9L21.9,10.9L22.4,10.9L22.4,10.5L22.6,10.5L22.6,11.1L22.1,11.1L22.1,12.1z" stroke="none"/><path d="M11.9,10.5L12.1,10.5L12.1,11.6L9.9,11.6L9.9,11.1L8.9,11.1L8.9,10.1L7.9,10.1L7.9,7.1L7.4,7.1L7.4,6L7.6,6L7.6,6.9L8.1,6.9L8.1,9.9L9.1,9.9L9.1,10.9L10.1,10.9L10.1,11.4L11.9,11.4z" stroke="none"/><path d="M9,11.9L9,12.1L7.6,12.1L7.6,13.1L5.4,13.1L5.4,12.6L4.9,12.6L4.9,12.1L2.9,12.1L2.9,9L3.1,9L3.1,11.9L5.1,11.9L5.1,12.4L5.6,12.4L5.6,12.9L7.4,12.9L7.4,11.9z" stroke="none"/><path d="M24.1,4.5L23.9,4.5L23.9,2.4L24.9,2.4L24.9,1.9L28.6,1.9L28.6,13.6L16.4,13.6L16.4,13.1L15.9,13.1L15.9,12.6L15.4,12.6L15.4,11.1L14.9,11.1L14.9,10.1L14.4,10.1L14.4,8.6L13.9,8.6L13.9,6.9L14.4,6.9L14.4,6.4L16.4,6.4L16.4,6L16.6,6L16.6,6.6L14.6,6.6L14.6,7.1L14.1,7.1L14.1,8.4L14.6,8.4L14.6,9.9L15.1,9.9L15.1,10.9L15.6,10.9L15.6,12.4L16.1,12.4L16.1,12.9L16.6,12.9L16.6,13.4L28.4,13.4L28.4,2.1L25.1,2.1L25.1,2.6L24.1,2.6z" stroke="none"/><path d="M3,6.1L3,5.9L3.9,5.9L3.9,4.9L4.9,4.9L4.9,4.4L9.1,4.4L9.1,4.9L10.1,4.9L10.1,5.4L10.9,5.4L10.9,4.9L11.9,4.9L11.9,4.5L12.1,4.5L12.1,5.1L11.1,5.1L11.1,5.6L9.9,5.6L9.9,5.1L8.9,5.1L8.9,4.6L5.1,4.6L5.1,5.1L4.1,5.1L4.1,6.1z" stroke="none"/><path d="M11.9,9L12.1,9L12.1,9.4L12.6,9.4L12.6,9.9L13.1,9.9L13.1,12.1L11.1,12.1L11.1,12.6L9.6,12.6L9.6,13.1L9.1,13.1L9.1,13.6L3.4,13.6L3.4,13.1L2.9,13.1L2.9,12.6L2.4,12.6L2.4,10.1L1.9,10.1L1.9,5.4L2.4,5.4L2.4,4.4L3,4.4L3,4.6L2.6,4.6L2.6,5.6L2.1,5.6L2.1,9.9L2.6,9.9L2.6,12.4L3.1,12.4L3.1,12.9L3.6,12.9L3.6,13.4L8.9,13.4L8.9,12.9L9.4,12.9L9.4,12.4L10.9,12.4L10.9,11.9L12.9,11.9L12.9,10.1L12.4,10.1L12.4,9.6L11.9,9.6z" stroke="none"/></svg>