<svg version="1.1" width="30" height="15" xmlns="http://www.w3.org/2000/svg"><path d="M13.9,11.1L13.4,11.1L13.4,10.1L12.9,10.1L12.9,9.6L11.4,9.6L11.4,9.1L9,9.1L9,8.9L11.6,8.9L11.6,9.4L13.1,9.4L13.1,9.9L13.6,9.9L13.6,10.9L14.1,10.9L14.1,11.4L14.4,11.4L14.4,10.9L14.9,10.9L14.9,10.5L15.1,10.5L15.1,11.1L14.6,11.1L14.6,11.6L14.1,11.6L14.1,11.9L21,11.9L21,12.1L13.9,12.1z" stroke="none"/><path d="M10.4,6.9L10.4,6.4L14.4,6.4L14.4,5.9L15,5.9L15,6.1L14.6,6.1L14.6,6.6L10.6,6.6L10.6,6.9L13.1,6.9L13.1,7.4L13.5,7.4L13.5,7.6L12.9,7.6L12.9,7.1L4.9,7.1L4.9,6.6L4.1,6.6L4.1,7.1L3.1,7.1L3.1,7.5L2.9,7.5L2.9,6.9L3.9,6.9L3.9,6.4L5.1,6.4L5.1,6.9z" stroke="none"/><path d="M20.9,8.9L20.9,8.6L20.4,8.6L20.4,8.1L15.4,8.1L15.4,7.6L15,7.6L15,7.4L15.6,7.4L15.6,7.9L20.6,7.9L20.6,8.4L21.1,8.4L21.1,8.9L22.5,8.9L22.5,9.1L21.1,9.1L21.1,9.4L24.6,9.4L24.6,9.9L25.1,9.9L25.1,10.4L27,10.4L27,10.6L24.9,10.6L24.9,10.1L24.4,10.1L24.4,9.6L20.9,9.6L20.9,9.1L20.6,9.1L20.6,9.6L20.1,9.6L20.1,10.1L19.6,10.1L19.6,10.5L19.4,10.5L19.4,9.9L19.9,9.9L19.9,9.4L20.4,9.4L20.4,8.9z" stroke="none"/><path d="M5.9,4.4L5.9,3.9L8.4,3.9L8.4,3.4L8.9,3.4L8.9,3L9.1,3L9.1,3.6L8.6,3.6L8.6,4.1L6.1,4.1L6.1,4.4L6.6,4.4L6.6,4.9L7.1,4.9L7.1,5.4L7.6,5.4L7.6,6L7.4,6L7.4,5.6L6.9,5.6L6.9,5.1L6.4,5.1L6.4,4.6L6.1,4.6L6.1,6L5.9,6L5.9,4.6L3.9,4.6L3.9,4.1L3.4,4.1L3.4,3.1L3,3.1L3,2.9L3.6,2.9L3.6,3.9L4.1,3.9L4.1,4.4z" stroke="none"/><path d="M12,3.1L12,2.9L13.5,2.9L13.5,3.1z" stroke="none"/><path d="M3.1,10.5L2.9,10.5L2.9,9L3.1,9z" stroke="none"/><path d="M27,11.9L27,12.1L25.5,12.1L25.5,11.9z" stroke="none"/><path d="M10.5,12.1L10.5,11.9L12,11.9L12,12.1z" stroke="none"/><path d="M25.5,4.6L25.5,4.4L26.4,4.4L26.4,3.4L26.9,3.4L26.9,3L27.1,3L27.1,3.6L26.6,3.6L26.6,4.6z" stroke="none"/><path d="M6,10.6L6,10.4L6.6,10.4L6.6,10.9L7.6,10.9L7.6,11.4L8.1,11.4L8.1,11.9L9,11.9L9,12.1L7.9,12.1L7.9,11.6L7.4,11.6L7.4,11.1L6.4,11.1L6.4,10.6z" stroke="none"/><path d="M19.5,4.6L19.5,4.4L24,4.4L24,4.6z" stroke="none"/><path d="M3.1,12L2.9,12L2.9,11.4L3.4,11.4L3.4,10.9L3.9,10.9L3.9,7.4L4.5,7.4L4.5,7.6L4.1,7.6L4.1,11.1L3.6,11.1L3.6,11.6L3.1,11.6z" stroke="none"/><path d="M12,10.4L12,10.6L8.9,10.6L8.9,10.1L8.4,10.1L8.4,9.6L7.4,9.6L7.4,9L7.6,9L7.6,9.4L8.6,9.4L8.6,9.9L9.1,9.9L9.1,10.4z" stroke="none"/><path d="M24,11.9L24,12.1L21.9,12.1L21.9,11.6L21.4,11.6L21.4,11.1L20.1,11.1L20.1,11.6L18.9,11.6L18.9,11.1L18.4,11.1L18.4,9.1L18,9.1L18,8.9L18.6,8.9L18.6,10.9L19.1,10.9L19.1,11.4L19.9,11.4L19.9,10.9L21.6,10.9L21.6,11.4L22.1,11.4L22.1,11.9z" stroke="none"/><path d="M22.5,7.4L22.5,7.6L18.9,7.6L18.9,5.1L16.4,5.1L16.4,4.5L16.6,4.5L16.6,4.9L19.1,4.9L19.1,7.4z" stroke="none"/><path d="M15.1,3L14.9,3L14.9,2.6L14.4,2.6L14.4,2.1L8.6,2.1L8.6,2.6L7.6,2.6L7.6,3L7.4,3L7.4,2.4L8.4,2.4L8.4,1.9L14.6,1.9L14.6,2.4L15.1,2.4z" stroke="none"/><path d="M18,3.1L18,2.9L25.4,2.9L25.4,2.4L26.4,2.4L26.4,1.9L28.1,1.9L28.1,6.6L27.6,6.6L27.6,7.1L25.6,7.1L25.6,7.5L25.4,7.5L25.4,6.9L27.4,6.9L27.4,6.4L27.9,6.4L27.9,2.1L26.6,2.1L26.6,2.6L25.6,2.6L25.6,3.1z" stroke="none"/><path d="M18,5.9L18,6.1L15.9,6.1L15.9,5.1L12.6,5.1L12.6,5.6L9.6,5.6L9.6,6.1L9,6.1L9,5.9L9.4,5.9L9.4,5.4L12.4,5.4L12.4,4.9L16.1,4.9L16.1,5.9z" stroke="none"/><path d="M3.1,6L2.9,6L2.9,4.1L2.4,4.1L2.4,3.6L1.9,3.6L1.9,2.4L2.4,2.4L2.4,1.9L7.4,1.9L7.4,1.4L16.1,1.4L16.1,3.6L15.6,3.6L15.6,4.1L13.1,4.1L13.1,4.6L12,4.6L12,4.4L12.9,4.4L12.9,3.9L15.4,3.9L15.4,3.4L15.9,3.4L15.9,1.6L7.6,1.6L7.6,2.1L2.6,2.1L2.6,2.6L2.1,2.6L2.1,3.4L2.6,3.4L2.6,3.9L3.1,3.9z" stroke="none"/><path d="M15,8.9L15,9.1L12.4,9.1L12.4,8.6L9.9,8.6L9.9,8.1L5.6,8.1L5.6,8.6L5.1,8.6L5.1,10.9L5.6,10.9L5.6,11.4L6.1,11.4L6.1,11.9L7.6,11.9L7.6,12.4L8.6,12.4L8.6,12.9L27.4,12.9L27.4,12.4L27.9,12.4L27.9,10.1L27.4,10.1L27.4,9.6L25.4,9.6L25.4,8.6L24.9,8.6L24.9,8.1L24.4,8.1L24.4,6.4L26.4,6.4L26.4,5.9L27,5.9L27,6.1L26.6,6.1L26.6,6.6L24.6,6.6L24.6,7.9L25.1,7.9L25.1,8.4L25.6,8.4L25.6,9.4L27.6,9.4L27.6,9.9L28.1,9.9L28.1,12.6L27.6,12.6L27.6,13.1L8.4,13.1L8.4,12.6L7.4,12.6L7.4,12.1L5.9,12.1L5.9,11.6L5.4,11.6L5.4,11.1L4.9,11.1L4.9,8.4L5.4,8.4L5.4,7.9L10.1,7.9L10.1,8.4L12.6,8.4L12.6,8.9z" stroke="none"/></svg>