<svg version="1.1" width="30" height="15" xmlns="http://www.w3.org/2000/svg"><path d="M21.9,3.9L21.9,3.6L20.9,3.6L20.9,3L21.1,3L21.1,3.4L22.1,3.4L22.1,3.9L24.6,3.9L24.6,4.4L25.5,4.4L25.5,4.6L24.4,4.6L24.4,4.1L19.9,4.1L19.9,3.6L18.4,3.6L18.4,3.1L18,3.1L18,2.9L18.6,2.9L18.6,3.4L20.1,3.4L20.1,3.9z" stroke="none"/><path d="M12.9,9.9L12.9,9.4L15.9,9.4L15.9,8.9L18,8.9L18,9.1L16.1,9.1L16.1,9.6L13.1,9.6L13.1,10.1L11.1,10.1L11.1,10.6L10.6,10.6L10.6,11.1L8.6,11.1L8.6,11.6L7.6,11.6L7.6,12L7.4,12L7.4,11.4L8.4,11.4L8.4,10.9L10.4,10.9L10.4,10.4L10.9,10.4L10.9,10.1L10.4,10.1L10.4,9.6L7.4,9.6L7.4,9L7.6,9L7.6,9.4L10.6,9.4L10.6,9.9z" stroke="none"/><path d="M11.4,6.4L11.4,6.1L6.6,6.1L6.6,6.6L6.1,6.6L6.1,7.1L4.6,7.1L4.6,7.5L4.4,7.5L4.4,6.9L5.9,6.9L5.9,6.4L6.4,6.4L6.4,5.9L11.6,5.9L11.6,6.4L12.6,6.4L12.6,6.9L13.6,6.9L13.6,7.5L13.4,7.5L13.4,7.1L12.4,7.1L12.4,6.6L11.6,6.6L11.6,7.1L10.6,7.1L10.6,7.5L10.4,7.5L10.4,6.9L11.4,6.9L11.4,6.6L10.1,6.6L10.1,7.9L13.9,7.9L13.9,6.4L14.4,6.4L14.4,5.4L15.9,5.4L15.9,4.4L16.5,4.4L16.5,4.6L16.1,4.6L16.1,5.6L14.6,5.6L14.6,6.6L14.1,6.6L14.1,8.1L9.9,8.1L9.9,6.4z" stroke="none"/><path d="M14.9,3.9L14.9,3.6L12.4,3.6L12.4,3.1L12,3.1L12,2.9L12.6,2.9L12.6,3.4L15.1,3.4L15.1,3.9L15.9,3.9L15.9,3.4L17.1,3.4L17.1,3.9L17.6,3.9L17.6,4.4L18.6,4.4L18.6,4.9L19.1,4.9L19.1,5.4L20.1,5.4L20.1,5.9L22.5,5.9L22.5,6.1L19.9,6.1L19.9,5.6L18.9,5.6L18.9,5.1L18.4,5.1L18.4,4.6L17.4,4.6L17.4,4.1L16.9,4.1L16.9,3.6L16.1,3.6L16.1,4.1L15.1,4.1L15.1,5.1L12.4,5.1L12.4,4.6L11.9,4.6L11.9,3.6L10.4,3.6L10.4,3L10.6,3L10.6,3.4L12.1,3.4L12.1,4.4L12.6,4.4L12.6,4.9L14.9,4.9L14.9,4.1L13.6,4.1L13.6,4.5L13.4,4.5L13.4,3.9z" stroke="none"/><path d="M19.4,10.5L19.6,10.5L19.6,12L19.4,12z" stroke="none"/><path d="M6,4.6L6,4.4L7.5,4.4L7.5,4.6z" stroke="none"/><path d="M7.5,3.1L7.5,2.9L9,2.9L9,3.1z" stroke="none"/><path d="M3.1,7.5L2.9,7.5L2.9,6.9L3.4,6.9L3.4,6.4L3.9,6.4L3.9,5.9L4.5,5.9L4.5,6.1L4.1,6.1L4.1,6.6L3.6,6.6L3.6,7.1L3.1,7.1z" stroke="none"/><path d="M24.1,10.5L23.9,10.5L23.9,9.4L24.4,9.4L24.4,8.9L25.5,8.9L25.5,9.1L24.6,9.1L24.6,9.6L24.1,9.6z" stroke="none"/><path d="M24.1,12L23.9,12L23.9,11.4L24.9,11.4L24.9,10.9L25.4,10.9L25.4,10.5L25.6,10.5L25.6,11.1L25.1,11.1L25.1,11.6L24.1,11.6z" stroke="none"/><path d="M21,8.9L21,9.1L20.4,9.1L20.4,8.1L19.4,8.1L19.4,7.5L19.6,7.5L19.6,7.9L20.6,7.9L20.6,8.9z" stroke="none"/><path d="M17.9,10.5L18.1,10.5L18.1,11.1L17.6,11.1L17.6,11.6L16.6,11.6L16.6,12.1L15,12.1L15,11.9L16.4,11.9L16.4,11.4L17.4,11.4L17.4,10.9L17.9,10.9z" stroke="none"/><path d="M7.6,10.5L7.4,10.5L7.4,10.1L6.4,10.1L6.4,8.4L6.9,8.4L6.9,7.9L9.6,7.9L9.6,8.4L11.1,8.4L11.1,8.9L12,8.9L12,9.1L10.9,9.1L10.9,8.6L9.4,8.6L9.4,8.1L7.1,8.1L7.1,8.6L6.6,8.6L6.6,9.9L7.6,9.9z" stroke="none"/><path d="M13.5,10.4L13.5,10.6L12.1,10.6L12.1,11.1L11.1,11.1L11.1,11.6L10.6,11.6L10.6,12.1L9,12.1L9,11.9L10.4,11.9L10.4,11.4L10.9,11.4L10.9,10.9L11.9,10.9L11.9,10.4z" stroke="none"/><path d="M27,7.4L27,7.6L24.1,7.6L24.1,9.1L22.5,9.1L22.5,8.9L23.9,8.9L23.9,7.4z" stroke="none"/><path d="M19.5,4.6L19.5,4.4L24.1,4.4L24.1,4.9L25.1,4.9L25.1,5.4L25.9,5.4L25.9,4.9L26.4,4.9L26.4,4.1L25.9,4.1L25.9,3.6L22.4,3.6L22.4,3.1L21.9,3.1L21.9,2.6L21.4,2.6L21.4,2.1L5.6,2.1L5.6,3.1L5.1,3.1L5.1,4.9L5.6,4.9L5.6,5.4L13.1,5.4L13.1,5.9L13.5,5.9L13.5,6.1L12.9,6.1L12.9,5.6L5.4,5.6L5.4,5.1L4.9,5.1L4.9,2.9L5.4,2.9L5.4,1.9L21.6,1.9L21.6,2.4L22.1,2.4L22.1,2.9L22.6,2.9L22.6,3.4L26.1,3.4L26.1,3.9L26.6,3.9L26.6,5.1L26.1,5.1L26.1,5.6L24.9,5.6L24.9,5.1L23.9,5.1L23.9,4.6z" stroke="none"/><path d="M15,7.6L15,7.4L18.1,7.4L18.1,7.9L19.1,7.9L19.1,8.9L19.6,8.9L19.6,9.4L20.6,9.4L20.6,9.9L22.6,9.9L22.6,10.5L22.4,10.5L22.4,10.1L20.4,10.1L20.4,9.6L19.4,9.6L19.4,9.1L18.9,9.1L18.9,8.1L17.9,8.1L17.9,7.6z" stroke="none"/><path d="M12,11.9L12,12.1L11.1,12.1L11.1,12.6L9.6,12.6L9.6,13.1L3.4,13.1L3.4,12.1L3,12.1L3,11.9L3.6,11.9L3.6,12.9L9.4,12.9L9.4,12.4L10.9,12.4L10.9,11.9z" stroke="none"/><path d="M13.5,12.1L13.5,11.9L14.1,11.9L14.1,12.9L24.9,12.9L24.9,12.4L25.4,12.4L25.4,12L25.6,12L25.6,12.6L25.1,12.6L25.1,13.1L13.9,13.1L13.9,12.1z" stroke="none"/><path d="M16.5,6.1L16.5,5.9L19.1,5.9L19.1,6.4L21.1,6.4L21.1,6.9L24.4,6.9L24.4,6.4L28.1,6.4L28.1,12.6L27.6,12.6L27.6,13.1L26.6,13.1L26.6,13.6L2.9,13.6L2.9,13.1L1.9,13.1L1.9,11.4L2.4,11.4L2.4,10.9L4.4,10.9L4.4,10.5L4.6,10.5L4.6,11.1L2.6,11.1L2.6,11.6L2.1,11.6L2.1,12.9L3.1,12.9L3.1,13.4L26.4,13.4L26.4,12.9L27.4,12.9L27.4,12.4L27.9,12.4L27.9,6.6L24.6,6.6L24.6,7.1L20.9,7.1L20.9,6.6L18.9,6.6L18.9,6.1z" stroke="none"/></svg>