<svg version="1.1" width="30" height="15" xmlns="http://www.w3.org/2000/svg"><path d="M16.4,4.4L16.4,3.9L16.9,3.9L16.9,3.4L19.4,3.4L19.4,3L19.6,3L19.6,3.6L17.1,3.6L17.1,4.1L16.6,4.1L16.6,4.6L13.6,4.6L13.6,5.1L11.1,5.1L11.1,5.6L9.6,5.6L9.6,6.1L9,6.1L9,5.9L9.4,5.9L9.4,5.4L10.9,5.4L10.9,4.9L13.4,4.9L13.4,4.6L12,4.6L12,4.4z" stroke="none"/><path d="M10.4,8.6L9.9,8.6L9.9,8.1L5.9,8.1L5.9,7.5L6.1,7.5L6.1,7.9L10.1,7.9L10.1,8.4L10.6,8.4L10.6,8.9L12,8.9L12,9.1L10.6,9.1L10.6,9.4L13.4,9.4L13.4,8.9L13.9,8.9L13.9,8.4L14.4,8.4L14.4,7.9L16.1,7.9L16.1,8.4L16.6,8.4L16.6,9L16.4,9L16.4,8.6L15.9,8.6L15.9,8.1L14.6,8.1L14.6,8.6L14.1,8.6L14.1,9.1L13.6,9.1L13.6,9.6L10.4,9.6z" stroke="none"/><path d="M19.4,10.4L19.4,9.9L21.9,9.9L21.9,9.4L22.4,9.4L22.4,8.9L24,8.9L24,9.1L22.6,9.1L22.6,9.6L22.1,9.6L22.1,10.1L19.6,10.1L19.6,10.4L24,10.4L24,10.6L19.6,10.6L19.6,11.1L15.6,11.1L15.6,11.6L14.1,11.6L14.1,12.1L13.5,12.1L13.5,11.9L13.9,11.9L13.9,11.4L15.4,11.4L15.4,10.9L19.4,10.9L19.4,10.6L18,10.6L18,10.4z" stroke="none"/><path d="M17.9,6.9L17.9,6.6L16.9,6.6L16.9,6.1L16.5,6.1L16.5,5.9L17.1,5.9L17.1,6.4L18.1,6.4L18.1,6.9L18.4,6.9L18.4,6.4L19.4,6.4L19.4,5.9L20.4,5.9L20.4,4.9L20.9,4.9L20.9,4.4L22.5,4.4L22.5,4.6L21.1,4.6L21.1,5.1L20.6,5.1L20.6,6.1L19.6,6.1L19.6,6.6L18.6,6.6L18.6,7.1L18.1,7.1L18.1,9L17.9,9L17.9,7.1L17.6,7.1L17.6,10.1L15.9,10.1L15.9,9.6L14.9,9.6L14.9,9L15.1,9L15.1,9.4L16.1,9.4L16.1,9.9L17.4,9.9L17.4,6.9z" stroke="none"/><path d="M4.6,4.5L4.4,4.5L4.4,3L4.6,3z" stroke="none"/><path d="M25.5,12.1L25.5,11.9L27,11.9L27,12.1z" stroke="none"/><path d="M4.6,12L4.4,12L4.4,10.5L4.6,10.5z" stroke="none"/><path d="M27,8.9L27,9.1L26.4,9.1L26.4,8.6L25.9,8.6L25.9,6.1L25.5,6.1L25.5,5.9L26.1,5.9L26.1,8.4L26.6,8.4L26.6,8.9z" stroke="none"/><path d="M16.5,7.4L16.5,7.6L12,7.6L12,7.4z" stroke="none"/><path d="M24.1,6L23.9,6L23.9,4.6L23.4,4.6L23.4,4.1L22.9,4.1L22.9,3.6L21.6,3.6L21.6,4.1L19.6,4.1L19.6,4.5L19.4,4.5L19.4,3.9L21.4,3.9L21.4,3.4L23.1,3.4L23.1,3.9L23.6,3.9L23.6,4.4L24.1,4.4z" stroke="none"/><path d="M4.5,7.6L4.5,7.4L5.1,7.4L5.1,7.9L5.6,7.9L5.6,8.4L7.6,8.4L7.6,8.9L9,8.9L9,9.1L7.4,9.1L7.4,8.6L5.4,8.6L5.4,8.1L4.9,8.1L4.9,7.6z" stroke="none"/><path d="M25.6,4.5L25.4,4.5L25.4,4.1L24.4,4.1L24.4,3.1L21,3.1L21,2.9L24.6,2.9L24.6,3.9L25.6,3.9z" stroke="none"/><path d="M10.5,7.4L10.5,7.6L6.9,7.6L6.9,6.6L4.1,6.6L4.1,7.1L3.6,7.1L3.6,8.9L6.6,8.9L6.6,9.4L8.6,9.4L8.6,9.9L15.1,9.9L15.1,10.5L14.9,10.5L14.9,10.1L8.4,10.1L8.4,9.6L6.4,9.6L6.4,9.1L3.4,9.1L3.4,6.9L3.9,6.9L3.9,6.4L7.1,6.4L7.1,7.4z" stroke="none"/><path d="M7.6,10.5L7.4,10.5L7.4,10.1L5.9,10.1L5.9,9.6L2.9,9.6L2.9,6L3.1,6L3.1,9.4L6.1,9.4L6.1,9.9L7.6,9.9z" stroke="none"/><path d="M3.1,3L2.9,3L2.9,2.4L3.4,2.4L3.4,1.9L9.6,1.9L9.6,2.4L10.1,2.4L10.1,2.9L10.5,2.9L10.5,3.1L9.9,3.1L9.9,2.6L9.4,2.6L9.4,2.1L3.6,2.1L3.6,2.6L3.1,2.6z" stroke="none"/><path d="M7.5,4.6L7.5,4.4L10.4,4.4L10.4,3.9L10.9,3.9L10.9,3.4L11.9,3.4L11.9,2.9L15,2.9L15,3.1L12.1,3.1L12.1,3.6L11.1,3.6L11.1,4.1L10.6,4.1L10.6,4.6z" stroke="none"/><path d="M21,9.1L21,8.9L21.4,8.9L21.4,8.4L23.4,8.4L23.4,7.9L24.6,7.9L24.6,8.4L25.1,8.4L25.1,11.1L24.6,11.1L24.6,11.6L16.1,11.6L16.1,12.1L14.6,12.1L14.6,13.1L12.9,13.1L12.9,12.6L11.9,12.6L11.9,12L12.1,12L12.1,12.4L13.1,12.4L13.1,12.9L14.4,12.9L14.4,11.9L15.9,11.9L15.9,11.4L24.4,11.4L24.4,10.9L24.9,10.9L24.9,8.6L24.4,8.6L24.4,8.1L23.6,8.1L23.6,8.6L21.6,8.6L21.6,9.1z" stroke="none"/><path d="M5.9,3L6.1,3L6.1,5.1L5.6,5.1L5.6,5.6L3.4,5.6L3.4,4.6L2.4,4.6L2.4,3.6L1.9,3.6L1.9,2.4L2.4,2.4L2.4,1.9L2.9,1.9L2.9,1.4L15.1,1.4L15.1,1.9L15.6,1.9L15.6,2.4L16.6,2.4L16.6,3L16.4,3L16.4,2.6L15.4,2.6L15.4,2.1L14.9,2.1L14.9,1.6L3.1,1.6L3.1,2.1L2.6,2.1L2.6,2.6L2.1,2.6L2.1,3.4L2.6,3.4L2.6,4.4L3.6,4.4L3.6,5.4L5.4,5.4L5.4,4.9L5.9,4.9z" stroke="none"/><path d="M18,4.4L18,4.6L17.1,4.6L17.1,5.1L15.1,5.1L15.1,5.6L11.6,5.6L11.6,6.1L11.1,6.1L11.1,6.6L10.1,6.6L10.1,7.1L8.4,7.1L8.4,6.6L7.4,6.6L7.4,6L7.6,6L7.6,6.4L8.6,6.4L8.6,6.9L9.9,6.9L9.9,6.4L10.9,6.4L10.9,5.9L11.4,5.9L11.4,5.4L14.9,5.4L14.9,4.9L16.9,4.9L16.9,4.4z" stroke="none"/><path d="M10.5,12.1L10.5,11.9L11.1,11.9L11.1,12.9L12.6,12.9L12.6,13.4L27.4,13.4L27.4,12.4L27.9,12.4L27.9,11.6L27.4,11.6L27.4,11.1L26.4,11.1L26.4,10.6L25.4,10.6L25.4,8.1L24.9,8.1L24.9,7.6L21,7.6L21,7.4L25.1,7.4L25.1,7.9L25.6,7.9L25.6,10.4L26.6,10.4L26.6,10.9L27.6,10.9L27.6,11.4L28.1,11.4L28.1,12.6L27.6,12.6L27.6,13.6L12.4,13.6L12.4,13.1L10.9,13.1L10.9,12.1z" stroke="none"/></svg>