<svg version="1.1" width="30" height="15" xmlns="http://www.w3.org/2000/svg"><path d="M11.4,9.4L11.4,8.1L10.4,8.1L10.4,7.5L10.6,7.5L10.6,7.9L11.6,7.9L11.6,10.1L10.6,10.1L10.6,10.5L10.4,10.5L10.4,9.9L11.4,9.9L11.4,9.6L10.1,9.6L10.1,11.9L10.5,11.9L10.5,12.1L9.9,12.1L9.9,9.4z" stroke="none"/><path d="M5.4,4.4L5.4,2.9L6,2.9L6,3.1L5.6,3.1L5.6,5.9L6,5.9L6,6.1L5.4,6.1L5.4,4.6L4.9,4.6L4.9,3.1L4.5,3.1L4.5,2.9L5.1,2.9L5.1,4.4z" stroke="none"/><path d="M20.9,5.9L20.9,5.4L21.9,5.4L21.9,4.9L27.1,4.9L27.1,6L26.9,6L26.9,5.1L22.1,5.1L22.1,5.6L21.1,5.6L21.1,5.9L21.6,5.9L21.6,8.4L22.6,8.4L22.6,9L22.4,9L22.4,8.6L21.4,8.6L21.4,6.1L21.1,6.1L21.1,7.5L20.9,7.5L20.9,6.1L18.9,6.1L18.9,5.6L18.4,5.6L18.4,5.1L14.9,5.1L14.9,4.5L15.1,4.5L15.1,4.9L18.6,4.9L18.6,5.4L19.1,5.4L19.1,5.9z" stroke="none"/><path d="M8.4,7.9L8.4,7.6L7.4,7.6L7.4,7.1L5.1,7.1L5.1,7.6L4.5,7.6L4.5,7.4L4.9,7.4L4.9,6.9L7.6,6.9L7.6,7.4L8.6,7.4L8.6,7.9L9.1,7.9L9.1,12.4L10.1,12.4L10.1,12.9L12.4,12.9L12.4,12.4L13.9,12.4L13.9,11.4L14.4,11.4L14.4,10.9L14.9,10.9L14.9,10.5L15.1,10.5L15.1,11.1L14.6,11.1L14.6,11.6L14.1,11.6L14.1,12.6L12.6,12.6L12.6,13.1L9.9,13.1L9.9,12.6L8.9,12.6L8.9,8.1L8.6,8.1L8.6,12.1L6,12.1L6,11.9L8.4,11.9L8.4,8.1L5.9,8.1L5.9,7.5L6.1,7.5L6.1,7.9z" stroke="none"/><path d="M2.9,4.5L3.1,4.5L3.1,6L2.9,6z" stroke="none"/><path d="M22.5,6.1L22.5,5.9L24,5.9L24,6.1z" stroke="none"/><path d="M12.1,12L11.9,12L11.9,11.4L12.9,11.4L12.9,10.9L13.4,10.9L13.4,9.9L14.4,9.9L14.4,9.4L15.6,9.4L15.6,9.9L16.1,9.9L16.1,11.6L15.1,11.6L15.1,12L14.9,12L14.9,11.4L15.9,11.4L15.9,10.1L15.4,10.1L15.4,9.6L14.6,9.6L14.6,10.1L13.6,10.1L13.6,11.1L13.1,11.1L13.1,11.6L12.1,11.6z" stroke="none"/><path d="M9,3.1L9,2.9L9.6,2.9L9.6,3.4L10.6,3.4L10.6,3.9L11.1,3.9L11.1,4.4L12,4.4L12,4.6L10.9,4.6L10.9,4.1L10.4,4.1L10.4,3.6L9.4,3.6L9.4,3.1z" stroke="none"/><path d="M23.9,7.5L24.1,7.5L24.1,9.1L23.6,9.1L23.6,9.6L23.1,9.6L23.1,10.1L21.9,10.1L21.9,9.6L20.9,9.6L20.9,9L21.1,9L21.1,9.4L22.1,9.4L22.1,9.9L22.9,9.9L22.9,9.4L23.4,9.4L23.4,8.9L23.9,8.9z" stroke="none"/><path d="M25.5,2.9L25.5,3.1L21,3.1L21,2.9z" stroke="none"/><path d="M6,8.9L6,9.1L4.9,9.1L4.9,8.6L3.4,8.6L3.4,6.4L3.9,6.4L3.9,3.6L3.4,3.6L3.4,1.9L6.6,1.9L6.6,2.4L7.1,2.4L7.1,3.9L7.6,3.9L7.6,4.5L7.4,4.5L7.4,4.1L6.9,4.1L6.9,2.6L6.4,2.6L6.4,2.1L3.6,2.1L3.6,3.4L4.1,3.4L4.1,6.6L3.6,6.6L3.6,8.4L5.1,8.4L5.1,8.9z" stroke="none"/><path d="M10.5,6.1L10.5,5.9L11.1,5.9L11.1,6.9L12.9,6.9L12.9,6.4L15.9,6.4L15.9,5.9L16.5,5.9L16.5,6.1L16.1,6.1L16.1,6.6L13.1,6.6L13.1,7.1L10.9,7.1L10.9,6.1z" stroke="none"/><path d="M13.5,7.6L13.5,7.4L16.6,7.4L16.6,12.6L15.6,12.6L15.6,13.6L5.4,13.6L5.4,13.1L4.9,13.1L4.9,10.4L5.9,10.4L5.9,9.9L6.4,9.9L6.4,9.4L6.9,9.4L6.9,8.9L7.5,8.9L7.5,9.1L7.1,9.1L7.1,9.6L6.6,9.6L6.6,10.1L6.1,10.1L6.1,10.6L5.1,10.6L5.1,12.9L5.6,12.9L5.6,13.4L15.4,13.4L15.4,12.4L16.4,12.4L16.4,7.6z" stroke="none"/><path d="M18,7.6L18,7.4L18.6,7.4L18.6,7.9L19.1,7.9L19.1,8.4L19.6,8.4L19.6,8.9L20.1,8.9L20.1,9.9L20.6,9.9L20.6,10.4L21.1,10.4L21.1,10.9L23.1,10.9L23.1,11.4L24.4,11.4L24.4,10.9L24.9,10.9L24.9,9.4L25.4,9.4L25.4,9L25.6,9L25.6,9.6L25.1,9.6L25.1,11.1L24.6,11.1L24.6,11.6L22.9,11.6L22.9,11.1L20.9,11.1L20.9,10.6L20.4,10.6L20.4,10.1L19.9,10.1L19.9,9.1L19.4,9.1L19.4,8.6L18.9,8.6L18.9,8.1L18.4,8.1L18.4,7.6z" stroke="none"/><path d="M27,11.9L27,12.1L20.4,12.1L20.4,11.6L19.4,11.6L19.4,10.5L19.6,10.5L19.6,11.4L20.6,11.4L20.6,11.9z" stroke="none"/><path d="M18,12.1L18,11.9L19.1,11.9L19.1,12.4L26.1,12.4L26.1,12.9L27.9,12.9L27.9,11.6L27.4,11.6L27.4,10.6L27,10.6L27,10.4L27.6,10.4L27.6,11.4L28.1,11.4L28.1,13.1L25.9,13.1L25.9,12.6L18.9,12.6L18.9,12.1z" stroke="none"/><path d="M7.6,6L7.4,6L7.4,5.4L8.4,5.4L8.4,3.6L7.9,3.6L7.9,1.6L3.1,1.6L3.1,3.6L2.6,3.6L2.6,4.1L2.1,4.1L2.1,6.4L2.6,6.4L2.6,8.4L3.1,8.4L3.1,10.9L3.6,10.9L3.6,12.9L4.1,12.9L4.1,13.4L5.1,13.4L5.1,13.9L15.9,13.9L15.9,13.4L16.9,13.4L16.9,6.9L17.4,6.9L17.4,6.4L17.9,6.4L17.9,6L18.1,6L18.1,6.6L17.6,6.6L17.6,7.1L17.1,7.1L17.1,13.6L16.1,13.6L16.1,14.1L4.9,14.1L4.9,13.6L3.9,13.6L3.9,13.1L3.4,13.1L3.4,11.1L2.9,11.1L2.9,8.6L2.4,8.6L2.4,6.6L1.9,6.6L1.9,3.9L2.4,3.9L2.4,3.4L2.9,3.4L2.9,1.4L8.1,1.4L8.1,3.4L8.6,3.4L8.6,5.6L7.6,5.6z" stroke="none"/><path d="M16.5,3.1L16.5,2.9L20.1,2.9L20.1,3.4L20.6,3.4L20.6,3.9L27.1,3.9L27.1,4.4L27.6,4.4L27.6,5.4L28.1,5.4L28.1,7.1L27.1,7.1L27.1,7.5L26.9,7.5L26.9,6.9L27.9,6.9L27.9,5.6L27.4,5.6L27.4,4.6L26.9,4.6L26.9,4.1L20.4,4.1L20.4,3.6L19.9,3.6L19.9,3.1z" stroke="none"/><path d="M15.1,3L14.9,3L14.9,2.4L15.4,2.4L15.4,1.9L26.6,1.9L26.6,2.4L27.1,2.4L27.1,3L26.9,3L26.9,2.6L26.4,2.6L26.4,2.1L15.6,2.1L15.6,2.6L15.1,2.6z" stroke="none"/><path d="M24.1,10.5L23.9,10.5L23.9,9.4L24.4,9.4L24.4,8.4L24.9,8.4L24.9,7.9L26.1,7.9L26.1,8.4L27.9,8.4L27.9,7.4L28.4,7.4L28.4,4.6L27.9,4.6L27.9,2.6L27.4,2.6L27.4,2.1L26.9,2.1L26.9,1.6L14.6,1.6L14.6,2.1L14.1,2.1L14.1,4.6L13.6,4.6L13.6,5.1L13.1,5.1L13.1,5.6L12.6,5.6L12.6,6.1L12,6.1L12,5.9L12.4,5.9L12.4,5.4L12.9,5.4L12.9,4.9L13.4,4.9L13.4,4.4L13.9,4.4L13.9,1.9L14.4,1.9L14.4,1.4L27.1,1.4L27.1,1.9L27.6,1.9L27.6,2.4L28.1,2.4L28.1,4.4L28.6,4.4L28.6,7.6L28.1,7.6L28.1,8.6L25.9,8.6L25.9,8.1L25.1,8.1L25.1,8.6L24.6,8.6L24.6,9.6L24.1,9.6z" stroke="none"/></svg>