<svg version="1.1" width="30" height="15" xmlns="http://www.w3.org/2000/svg"><path d="M14.6,10.9L14.6,11.9L15,11.9L15,12.1L14.4,12.1L14.4,11.1L10.6,11.1L10.6,11.6L9.6,11.6L9.6,12.1L9,12.1L9,11.9L9.4,11.9L9.4,11.4L10.4,11.4L10.4,11.1L8.4,11.1L8.4,10.6L7.9,10.6L7.9,9.6L7.4,9.6L7.4,9L7.6,9L7.6,9.4L8.1,9.4L8.1,10.4L8.6,10.4L8.6,10.9z" stroke="none"/><path d="M17.9,8.4L17.9,8.1L17.4,8.1L17.4,7.6L13.5,7.6L13.5,7.4L17.6,7.4L17.6,7.9L18.1,7.9L18.1,8.4L18.9,8.4L18.9,7.9L22.1,7.9L22.1,8.4L25.1,8.4L25.1,8.9L25.5,8.9L25.5,9.1L24.9,9.1L24.9,8.6L21.9,8.6L21.9,8.1L19.1,8.1L19.1,8.6L16.9,8.6L16.9,8.1L16.1,8.1L16.1,8.6L15.6,8.6L15.6,9.1L15,9.1L15,8.9L15.4,8.9L15.4,8.4L15.9,8.4L15.9,7.9L17.1,7.9L17.1,8.4z" stroke="none"/><path d="M23.9,7.4L23.9,6.9L24.4,6.9L24.4,6.4L24.9,6.4L24.9,4.4L25.5,4.4L25.5,4.6L25.1,4.6L25.1,6.6L24.6,6.6L24.6,7.1L24.1,7.1L24.1,7.4L25.5,7.4L25.5,7.6L24.1,7.6L24.1,7.9L26.6,7.9L26.6,9.6L26.1,9.6L26.1,10.1L24.4,10.1L24.4,9.6L19.4,9.6L19.4,9L19.6,9L19.6,9.4L24.6,9.4L24.6,9.9L25.9,9.9L25.9,9.4L26.4,9.4L26.4,8.1L23.9,8.1L23.9,7.6L22.5,7.6L22.5,7.4z" stroke="none"/><path d="M8.9,8.9L8.9,7.5L9.1,7.5L9.1,8.9L9.4,8.9L9.4,7.1L5.1,7.1L5.1,7.6L4.5,7.6L4.5,7.4L4.9,7.4L4.9,6.9L9.6,6.9L9.6,9.1L9.1,9.1L9.1,9.4L10.1,9.4L10.1,9.9L15.9,9.9L15.9,8.9L16.5,8.9L16.5,9.1L16.1,9.1L16.1,10.1L9.9,10.1L9.9,9.6L8.9,9.6L8.9,9.1L8.4,9.1L8.4,8.6L7.9,8.6L7.9,8.1L5.6,8.1L5.6,8.6L5.1,8.6L5.1,10.1L4.6,10.1L4.6,10.5L4.4,10.5L4.4,9.9L4.9,9.9L4.9,8.4L5.4,8.4L5.4,7.9L8.1,7.9L8.1,8.4L8.6,8.4L8.6,8.9z" stroke="none"/><path d="M4.5,6.1L4.5,5.9L6,5.9L6,6.1z" stroke="none"/><path d="M11.9,3L12.1,3L12.1,4.5L11.9,4.5z" stroke="none"/><path d="M13.5,4.6L13.5,4.4L14.4,4.4L14.4,3.4L14.9,3.4L14.9,3L15.1,3L15.1,3.6L14.6,3.6L14.6,4.6z" stroke="none"/><path d="M23.9,3L24.1,3L24.1,6L23.9,6z" stroke="none"/><path d="M3.1,3L2.9,3L2.9,2.4L3.4,2.4L3.4,1.9L5.6,1.9L5.6,2.9L6,2.9L6,3.1L5.4,3.1L5.4,2.1L3.6,2.1L3.6,2.6L3.1,2.6z" stroke="none"/><path d="M17.9,3L18.1,3L18.1,3.6L17.6,3.6L17.6,4.1L17.1,4.1L17.1,4.6L16.6,4.6L16.6,5.6L16.1,5.6L16.1,6.1L15,6.1L15,5.9L15.9,5.9L15.9,5.4L16.4,5.4L16.4,4.4L16.9,4.4L16.9,3.9L17.4,3.9L17.4,3.4L17.9,3.4z" stroke="none"/><path d="M12,12.1L12,11.9L14.1,11.9L14.1,12.4L14.6,12.4L14.6,12.9L15.4,12.9L15.4,12.4L16.4,12.4L16.4,12L16.6,12L16.6,12.6L15.6,12.6L15.6,13.1L14.4,13.1L14.4,12.6L13.9,12.6L13.9,12.1z" stroke="none"/><path d="M10.6,9L10.4,9L10.4,4.5L10.6,4.5z" stroke="none"/><path d="M2.9,4.5L3.1,4.5L3.1,5.1L2.6,5.1L2.6,5.6L2.1,5.6L2.1,8.4L3.1,8.4L3.1,9L2.9,9L2.9,8.6L1.9,8.6L1.9,5.4L2.4,5.4L2.4,4.9L2.9,4.9z" stroke="none"/><path d="M22.6,4.5L22.4,4.5L22.4,3.4L22.9,3.4L22.9,2.4L23.4,2.4L23.4,1.9L26.1,1.9L26.1,2.4L26.6,2.4L26.6,2.9L27,2.9L27,3.1L26.4,3.1L26.4,2.6L25.9,2.6L25.9,2.1L23.6,2.1L23.6,2.6L23.1,2.6L23.1,3.6L22.6,3.6z" stroke="none"/><path d="M4.5,3.1L4.5,2.9L5.1,2.9L5.1,3.9L6.1,3.9L6.1,4.4L9,4.4L9,4.6L5.9,4.6L5.9,4.1L4.9,4.1L4.9,3.1z" stroke="none"/><path d="M5.9,10.5L6.1,10.5L6.1,11.6L3.9,11.6L3.9,11.1L3.4,11.1L3.4,9.4L3.9,9.4L3.9,8.1L3.4,8.1L3.4,6.6L2.9,6.6L2.9,6L3.1,6L3.1,6.4L3.6,6.4L3.6,7.9L4.1,7.9L4.1,9.6L3.6,9.6L3.6,10.9L4.1,10.9L4.1,11.4L5.9,11.4z" stroke="none"/><path d="M24,10.6L24,10.4L26.4,10.4L26.4,9.9L26.9,9.9L26.9,6L27.1,6L27.1,10.1L26.6,10.1L26.6,10.6z" stroke="none"/><path d="M10.6,3L10.4,3L10.4,2.4L10.9,2.4L10.9,1.9L18.6,1.9L18.6,2.4L19.1,2.4L19.1,3.6L18.6,3.6L18.6,4.1L18.1,4.1L18.1,4.5L17.9,4.5L17.9,3.9L18.4,3.9L18.4,3.4L18.9,3.4L18.9,2.6L18.4,2.6L18.4,2.1L11.1,2.1L11.1,2.6L10.6,2.6z" stroke="none"/><path d="M19.5,12.1L19.5,11.9L24.4,11.9L24.4,11.4L25.9,11.4L25.9,10.9L27.4,10.9L27.4,6.9L27.9,6.9L27.9,2.1L27.4,2.1L27.4,1.6L23.1,1.6L23.1,2.1L22.1,2.1L22.1,4.1L21.6,4.1L21.6,5.6L20.1,5.6L20.1,6.1L18.1,6.1L18.1,6.6L16.1,6.6L16.1,7.1L13.9,7.1L13.9,6.6L13.1,6.6L13.1,7.1L12.1,7.1L12.1,7.5L11.9,7.5L11.9,6.9L12.9,6.9L12.9,6.4L14.1,6.4L14.1,6.9L15.9,6.9L15.9,6.4L17.9,6.4L17.9,5.9L19.9,5.9L19.9,5.4L21.4,5.4L21.4,3.9L21.9,3.9L21.9,1.9L22.9,1.9L22.9,1.4L27.6,1.4L27.6,1.9L28.1,1.9L28.1,7.1L27.6,7.1L27.6,11.1L26.1,11.1L26.1,11.6L24.6,11.6L24.6,12.1z" stroke="none"/><path d="M17.9,10.5L18.1,10.5L18.1,12.1L17.6,12.1L17.6,12.6L17.1,12.6L17.1,13.1L16.6,13.1L16.6,13.6L7.9,13.6L7.9,11.1L7.4,11.1L7.4,10.1L6.9,10.1L6.9,9.6L6.4,9.6L6.4,9.1L6,9.1L6,8.9L6.6,8.9L6.6,9.4L7.1,9.4L7.1,9.9L7.6,9.9L7.6,10.9L8.1,10.9L8.1,13.4L16.4,13.4L16.4,12.9L16.9,12.9L16.9,12.4L17.4,12.4L17.4,11.9L17.9,11.9z" stroke="none"/></svg>