<svg version="1.1" width="30" height="15" xmlns="http://www.w3.org/2000/svg"><path d="M20.9,3.1L20.4,3.1L20.4,2.6L19.9,2.6L19.9,2.1L16.1,2.1L16.1,2.6L15.6,2.6L15.6,3.1L15,3.1L15,2.9L15.4,2.9L15.4,2.4L15.9,2.4L15.9,1.9L20.1,1.9L20.1,2.4L20.6,2.4L20.6,2.9L21.1,2.9L21.1,4.9L21.9,4.9L21.9,4.4L22.5,4.4L22.5,4.6L22.1,4.6L22.1,5.1L21.1,5.1L21.1,5.9L21.6,5.9L21.6,6.4L22.1,6.4L22.1,7.4L22.5,7.4L22.5,7.6L21.9,7.6L21.9,6.6L21.4,6.6L21.4,6.1L20.9,6.1z" stroke="none"/><path d="M7.4,3.4L7.4,3.1L6.9,3.1L6.9,2.6L5.6,2.6L5.6,3.6L5.1,3.6L5.1,4.1L3.1,4.1L3.1,4.5L2.9,4.5L2.9,3.9L4.9,3.9L4.9,3.4L5.4,3.4L5.4,2.4L7.1,2.4L7.1,2.9L7.6,2.9L7.6,3.4L10.1,3.4L10.1,3.9L10.9,3.9L10.9,3.4L11.4,3.4L11.4,2.9L12,2.9L12,3.1L11.6,3.1L11.6,3.6L11.1,3.6L11.1,4.1L9.9,4.1L9.9,3.6L5.9,3.6L5.9,3L6.1,3L6.1,3.4z" stroke="none"/><path d="M19.4,7.4L19.4,6L19.6,6L19.6,7.4L19.9,7.4L19.9,5.6L17.6,5.6L17.6,7.1L17.1,7.1L17.1,9.1L16.6,9.1L16.6,9.6L16.1,9.6L16.1,10.1L13.6,10.1L13.6,10.5L13.4,10.5L13.4,9.9L15.9,9.9L15.9,9.4L16.4,9.4L16.4,8.9L16.9,8.9L16.9,6.9L17.4,6.9L17.4,5.4L20.1,5.4L20.1,7.6L19.6,7.6L19.6,7.9L20.6,7.9L20.6,8.4L23.4,8.4L23.4,6.6L22.4,6.6L22.4,6L22.6,6L22.6,6.4L23.6,6.4L23.6,8.6L20.4,8.6L20.4,8.1L19.4,8.1L19.4,7.6L18.9,7.6L18.9,6.6L17.9,6.6L17.9,6L18.1,6L18.1,6.4L19.1,6.4L19.1,7.4z" stroke="none"/><path d="M6.9,8.9L6.9,8.1L5.9,8.1L5.9,7.5L6.1,7.5L6.1,7.9L7.1,7.9L7.1,8.9L9.6,8.9L9.6,9.4L10.1,9.4L10.1,10.4L10.5,10.4L10.5,10.6L9.9,10.6L9.9,9.6L9.4,9.6L9.4,9.1L7.1,9.1L7.1,10.1L6.6,10.1L6.6,10.6L6,10.6L6,10.4L6.4,10.4L6.4,9.9L6.9,9.9L6.9,9.1L5.4,9.1L5.4,6.4L5.9,6.4L5.9,6L6.1,6L6.1,6.6L5.6,6.6L5.6,8.9z" stroke="none"/><path d="M25.4,3L25.6,3L25.6,4.5L25.4,4.5z" stroke="none"/><path d="M19.4,3L19.6,3L19.6,4.5L19.4,4.5z" stroke="none"/><path d="M18,2.9L18,3.1L16.5,3.1L16.5,2.9z" stroke="none"/><path d="M8.9,10.5L9.1,10.5L9.1,12L8.9,12z" stroke="none"/><path d="M4.4,9L4.6,9L4.6,10.1L4.1,10.1L4.1,10.6L3,10.6L3,10.4L3.9,10.4L3.9,9.9L4.4,9.9z" stroke="none"/><path d="M11.9,4.5L12.1,4.5L12.1,7.5L11.9,7.5z" stroke="none"/><path d="M6,4.4L6,4.6L5.6,4.6L5.6,5.1L4.1,5.1L4.1,5.6L3.1,5.6L3.1,9L2.9,9L2.9,5.4L3.9,5.4L3.9,4.9L5.4,4.9L5.4,4.4z" stroke="none"/><path d="M26.9,4.5L27.1,4.5L27.1,8.1L26.1,8.1L26.1,8.6L25.1,8.6L25.1,9.1L24,9.1L24,8.9L24.9,8.9L24.9,8.4L25.9,8.4L25.9,7.9L26.9,7.9z" stroke="none"/><path d="M10.5,2.9L10.5,3.1L8.4,3.1L8.4,2.6L7.4,2.6L7.4,2.1L5.1,2.1L5.1,3.1L4.5,3.1L4.5,2.9L4.9,2.9L4.9,1.9L7.6,1.9L7.6,2.4L8.6,2.4L8.6,2.9z" stroke="none"/><path d="M18,12.1L18,11.9L18.6,11.9L18.6,12.9L20.9,12.9L20.9,12.4L21.4,12.4L21.4,11.9L24,11.9L24,12.1L21.6,12.1L21.6,12.6L21.1,12.6L21.1,13.1L18.4,13.1L18.4,12.1z" stroke="none"/><path d="M7.5,7.6L7.5,7.4L10.1,7.4L10.1,7.9L11.6,7.9L11.6,8.4L13.4,8.4L13.4,7.9L14.9,7.9L14.9,7.5L15.1,7.5L15.1,8.1L13.6,8.1L13.6,8.6L11.4,8.6L11.4,8.1L9.9,8.1L9.9,7.6z" stroke="none"/><path d="M3,12.1L3,11.9L8.1,11.9L8.1,12.4L8.6,12.4L8.6,12.9L9.9,12.9L9.9,12.4L11.9,12.4L11.9,12L12.1,12L12.1,12.6L10.1,12.6L10.1,13.1L8.4,13.1L8.4,12.6L7.9,12.6L7.9,12.1z" stroke="none"/><path d="M19.5,11.9L19.5,12.1L18.9,12.1L18.9,11.1L14.1,11.1L14.1,11.6L12.9,11.6L12.9,11.1L11.9,11.1L11.9,9.6L10.9,9.6L10.9,9.1L10.5,9.1L10.5,8.9L11.1,8.9L11.1,9.4L12.1,9.4L12.1,10.9L13.1,10.9L13.1,11.4L13.9,11.4L13.9,10.9L19.1,10.9L19.1,11.9z" stroke="none"/><path d="M26.9,3L27.1,3L27.1,3.4L27.6,3.4L27.6,3.9L28.1,3.9L28.1,6.1L27.6,6.1L27.6,8.6L26.6,8.6L26.6,9.1L25.6,9.1L25.6,9.6L25.1,9.6L25.1,10.1L18.9,10.1L18.9,8.1L17.9,8.1L17.9,7.5L18.1,7.5L18.1,7.9L19.1,7.9L19.1,9.9L24.9,9.9L24.9,9.4L25.4,9.4L25.4,8.9L26.4,8.9L26.4,8.4L27.4,8.4L27.4,5.9L27.9,5.9L27.9,4.1L27.4,4.1L27.4,3.6L26.9,3.6z" stroke="none"/><path d="M25.4,10.5L25.6,10.5L25.6,13.1L25.1,13.1L25.1,13.6L15.9,13.6L15.9,12.1L15,12.1L15,11.9L16.1,11.9L16.1,13.4L24.9,13.4L24.9,12.9L25.4,12.9z" stroke="none"/><path d="M25.6,7.5L25.4,7.5L25.4,5.6L24.9,5.6L24.9,5.1L24.4,5.1L24.4,4.6L23.9,4.6L23.9,3.6L21.4,3.6L21.4,2.1L20.4,2.1L20.4,1.6L15.6,1.6L15.6,2.1L14.6,2.1L14.6,2.6L14.1,2.6L14.1,3.9L14.6,3.9L14.6,4.4L15,4.4L15,4.6L14.4,4.6L14.4,4.1L13.9,4.1L13.9,2.4L14.4,2.4L14.4,1.9L15.4,1.9L15.4,1.4L20.6,1.4L20.6,1.9L21.6,1.9L21.6,3.4L24.1,3.4L24.1,4.4L24.6,4.4L24.6,4.9L25.1,4.9L25.1,5.4L25.6,5.4z" stroke="none"/></svg>