<svg version="1.1" width="30" height="15" xmlns="http://www.w3.org/2000/svg"><path d="M11.4,8.9L11.4,7.4L13.5,7.4L13.5,7.6L11.6,7.6L11.6,9.1L10.6,9.1L10.6,9.6L8.6,9.6L8.6,10.6L7.5,10.6L7.5,10.4L8.4,10.4L8.4,9.4L10.4,9.4L10.4,9.1L9,9.1L9,8.9z" stroke="none"/><path d="M22.9,9.4L22.9,8.9L25.9,8.9L25.9,8.4L26.4,8.4L26.4,7.9L26.9,7.9L26.9,7.5L27.1,7.5L27.1,8.1L26.6,8.1L26.6,8.6L26.1,8.6L26.1,9.1L23.1,9.1L23.1,9.4L26.1,9.4L26.1,9.9L27.1,9.9L27.1,10.5L26.9,10.5L26.9,10.1L25.9,10.1L25.9,9.6L21.6,9.6L21.6,10.1L20.6,10.1L20.6,11.1L18.6,11.1L18.6,11.6L16.1,11.6L16.1,12.1L15,12.1L15,11.9L15.9,11.9L15.9,11.4L18.4,11.4L18.4,10.9L20.4,10.9L20.4,9.9L21.4,9.9L21.4,9.4z" stroke="none"/><path d="M7.4,4.4L7.4,3.6L6.9,3.6L6.9,3.1L6,3.1L6,2.9L7.1,2.9L7.1,3.4L7.6,3.4L7.6,4.4L8.1,4.4L8.1,5.6L7.1,5.6L7.1,6.1L5.6,6.1L5.6,8.6L5.1,8.6L5.1,10.9L5.6,10.9L5.6,11.4L9.4,11.4L9.4,10.9L12.4,10.9L12.4,10.4L12.9,10.4L12.9,9.9L13.4,9.9L13.4,8.9L14.4,8.9L14.4,8.4L15.9,8.4L15.9,6.6L14.9,6.6L14.9,6L15.1,6L15.1,6.4L16.1,6.4L16.1,8.6L14.6,8.6L14.6,9.1L13.6,9.1L13.6,10.1L13.1,10.1L13.1,10.6L12.6,10.6L12.6,11.1L9.6,11.1L9.6,11.6L5.4,11.6L5.4,11.1L4.9,11.1L4.9,8.4L5.4,8.4L5.4,5.9L6.9,5.9L6.9,5.4L7.9,5.4L7.9,4.6L7.6,4.6L7.6,5.1L6.6,5.1L6.6,5.6L3.6,5.6L3.6,7.6L3,7.6L3,7.4L3.4,7.4L3.4,5.4L6.4,5.4L6.4,4.9L7.4,4.9L7.4,4.6L6.9,4.6L6.9,4.1L6.4,4.1L6.4,3.6L4.4,3.6L4.4,3L4.6,3L4.6,3.4L6.6,3.4L6.6,3.9L7.1,3.9L7.1,4.4z" stroke="none"/><path d="M9.4,5.4L9.4,4.9L10.9,4.9L10.9,3.9L11.4,3.9L11.4,3.4L13.4,3.4L13.4,3L13.6,3L13.6,3.6L11.6,3.6L11.6,4.1L11.1,4.1L11.1,5.1L9.6,5.1L9.6,5.4L10.6,5.4L10.6,5.9L11.1,5.9L11.1,6.9L12.9,6.9L12.9,6.4L14.1,6.4L14.1,6.9L14.6,6.9L14.6,7.4L15,7.4L15,7.6L14.4,7.6L14.4,7.1L13.9,7.1L13.9,6.6L13.1,6.6L13.1,7.1L10.9,7.1L10.9,6.1L10.4,6.1L10.4,5.6L9.6,5.6L9.6,7.1L7.6,7.1L7.6,7.5L7.4,7.5L7.4,6.9L9.4,6.9L9.4,5.6L8.9,5.6L8.9,3.1L8.4,3.1L8.4,2.6L6.4,2.6L6.4,2.1L4.1,2.1L4.1,2.6L3.6,2.6L3.6,3.1L3.1,3.1L3.1,4.5L2.9,4.5L2.9,2.9L3.4,2.9L3.4,2.4L3.9,2.4L3.9,1.9L6.6,1.9L6.6,2.4L8.6,2.4L8.6,2.9L9.1,2.9L9.1,5.4z" stroke="none"/><path d="M12.1,6L11.9,6L11.9,4.5L12.1,4.5z" stroke="none"/><path d="M6.1,10.5L5.9,10.5L5.9,9L6.1,9z" stroke="none"/><path d="M24,4.4L24,4.6L22.5,4.6L22.5,4.4z" stroke="none"/><path d="M6,4.4L6,4.6L4.5,4.6L4.5,4.4z" stroke="none"/><path d="M22.5,11.9L22.5,12.1L21,12.1L21,11.9z" stroke="none"/><path d="M15,10.6L15,10.4L16.5,10.4L16.5,10.6z" stroke="none"/><path d="M16.5,3.1L16.5,2.9L19.5,2.9L19.5,3.1z" stroke="none"/><path d="M2.9,9L3.1,9L3.1,12L2.9,12z" stroke="none"/><path d="M24,10.6L24,10.4L25.6,10.4L25.6,10.9L26.6,10.9L26.6,11.4L27.9,11.4L27.9,9.6L26.9,9.6L26.9,9L27.1,9L27.1,9.4L28.1,9.4L28.1,11.6L26.4,11.6L26.4,11.1L25.4,11.1L25.4,10.6z" stroke="none"/><path d="M24,7.4L24,7.6L23.4,7.6L23.4,6.6L22.1,6.6L22.1,7.1L21.6,7.1L21.6,7.6L19.5,7.6L19.5,7.4L21.4,7.4L21.4,6.9L21.9,6.9L21.9,6.4L23.6,6.4L23.6,7.4z" stroke="none"/><path d="M18,8.9L18,9.1L16.9,9.1L16.9,7.1L16.4,7.1L16.4,4.5L16.6,4.5L16.6,6.9L17.1,6.9L17.1,8.9z" stroke="none"/><path d="M27,4.4L27,4.6L24.9,4.6L24.9,3.6L23.4,3.6L23.4,3.1L22.5,3.1L22.5,2.9L23.6,2.9L23.6,3.4L25.1,3.4L25.1,4.4z" stroke="none"/><path d="M17.9,4.5L18.1,4.5L18.1,7.4L18.6,7.4L18.6,8.4L19.9,8.4L19.9,7.9L22.4,7.9L22.4,7.5L22.6,7.5L22.6,8.1L20.1,8.1L20.1,8.6L18.4,8.6L18.4,7.6L17.9,7.6z" stroke="none"/><path d="M19.5,11.9L19.5,12.1L18.6,12.1L18.6,12.6L15.6,12.6L15.6,13.1L14.4,13.1L14.4,12.6L13.4,12.6L13.4,12L13.6,12L13.6,12.4L14.6,12.4L14.6,12.9L15.4,12.9L15.4,12.4L18.4,12.4L18.4,11.9z" stroke="none"/><path d="M18,10.6L18,10.4L18.4,10.4L18.4,9.9L18.9,9.9L18.9,9.4L19.4,9.4L19.4,8.9L20.9,8.9L20.9,8.4L24.4,8.4L24.4,7.9L24.9,7.9L24.9,6.6L23.9,6.6L23.9,6L24.1,6L24.1,6.4L25.1,6.4L25.1,8.1L24.6,8.1L24.6,8.6L21.1,8.6L21.1,9.1L19.6,9.1L19.6,9.6L19.1,9.6L19.1,10.1L18.6,10.1L18.6,10.6z" stroke="none"/><path d="M21.1,3L20.9,3L20.9,2.1L10.6,2.1L10.6,3L10.4,3L10.4,1.9L21.1,1.9z" stroke="none"/></svg>