<svg version="1.1" width="30" height="15" xmlns="http://www.w3.org/2000/svg"><path d="M24.4,8.9L24.4,8.4L24.9,8.4L24.9,7.9L26.9,7.9L26.9,7.5L27.1,7.5L27.1,8.1L25.1,8.1L25.1,8.6L24.6,8.6L24.6,9.1L24.1,9.1L24.1,9.6L23.1,9.6L23.1,10.1L19.9,10.1L19.9,9.1L18,9.1L18,8.9L20.1,8.9L20.1,9.9L22.9,9.9L22.9,9.4L23.9,9.4L23.9,9.1L22.5,9.1L22.5,8.9z" stroke="none"/><path d="M16.5,7.4L16.5,7.6L13.1,7.6L13.1,8.9L13.5,8.9L13.5,9.1L12.9,9.1L12.9,7.6L8.9,7.6L8.9,6L9.1,6L9.1,7.4z" stroke="none"/><path d="M4.4,10.4L4.4,8.4L4.9,8.4L4.9,7.9L5.4,7.9L5.4,7.4L6,7.4L6,7.6L5.6,7.6L5.6,8.1L5.1,8.1L5.1,8.6L4.6,8.6L4.6,10.4L6,10.4L6,10.6L4.6,10.6L4.6,12L4.4,12L4.4,10.6L4.1,10.6L4.1,11.1L3.1,11.1L3.1,12L2.9,12L2.9,10.9L3.9,10.9L3.9,10.4z" stroke="none"/><path d="M15.4,6.4L15.4,5.9L18,5.9L18,6.1L15.6,6.1L15.6,6.4L17.1,6.4L17.1,6.9L17.6,6.9L17.6,8.1L17.1,8.1L17.1,8.6L16.6,8.6L16.6,9.1L15,9.1L15,8.9L16.4,8.9L16.4,8.4L16.9,8.4L16.9,7.9L17.4,7.9L17.4,7.1L16.9,7.1L16.9,6.6L15.6,6.6L15.6,7.1L10.4,7.1L10.4,6.6L9.9,6.6L9.9,5.4L18.6,5.4L18.6,7.9L19.1,7.9L19.1,8.4L20.6,8.4L20.6,8.9L21,8.9L21,9.1L20.4,9.1L20.4,8.6L18.9,8.6L18.9,8.1L18.4,8.1L18.4,5.6L10.1,5.6L10.1,6.4L10.6,6.4L10.6,6.9L15.4,6.9L15.4,6.6L10.9,6.6L10.9,6.1L10.5,6.1L10.5,5.9L11.1,5.9L11.1,6.4z" stroke="none"/><path d="M22.5,7.6L22.5,7.4L24,7.4L24,7.6z" stroke="none"/><path d="M25.6,12L25.4,12L25.4,10.5L25.6,10.5z" stroke="none"/><path d="M12.1,12L11.9,12L11.9,10.5L12.1,10.5z" stroke="none"/><path d="M3,6.1L3,5.9L4.5,5.9L4.5,6.1z" stroke="none"/><path d="M25.4,9L25.6,9L25.6,9.4L26.6,9.4L26.6,9.9L27.1,9.9L27.1,10.5L26.9,10.5L26.9,10.1L26.4,10.1L26.4,9.6L25.4,9.6z" stroke="none"/><path d="M19.4,3L19.6,3L19.6,6L19.4,6z" stroke="none"/><path d="M5.9,4.5L6.1,4.5L6.1,6.6L5.1,6.6L5.1,7.6L4.5,7.6L4.5,7.4L4.9,7.4L4.9,6.4L5.9,6.4z" stroke="none"/><path d="M22.5,4.6L22.5,4.4L24.9,4.4L24.9,2.9L25.5,2.9L25.5,3.1L25.1,3.1L25.1,4.6z" stroke="none"/><path d="M22.5,12.1L22.5,11.9L23.1,11.9L23.1,12.9L25.9,12.9L25.9,12.4L26.4,12.4L26.4,11.9L27,11.9L27,12.1L26.6,12.1L26.6,12.6L26.1,12.6L26.1,13.1L22.9,13.1L22.9,12.1z" stroke="none"/><path d="M24.1,12L23.9,12L23.9,11.6L22.9,11.6L22.9,11.1L20.1,11.1L20.1,11.6L19.6,11.6L19.6,12.1L18,12.1L18,11.9L19.4,11.9L19.4,11.4L19.9,11.4L19.9,10.9L23.1,10.9L23.1,11.4L24.1,11.4z" stroke="none"/><path d="M7.5,10.6L7.5,10.4L9.4,10.4L9.4,9.4L13.1,9.4L13.1,9.9L14.1,9.9L14.1,10.4L15,10.4L15,10.6L13.9,10.6L13.9,10.1L12.9,10.1L12.9,9.6L9.6,9.6L9.6,10.6z" stroke="none"/><path d="M16.5,4.4L16.5,4.6L13.4,4.6L13.4,4.1L10.9,4.1L10.9,3.6L8.9,3.6L8.9,3L9.1,3L9.1,3.4L11.1,3.4L11.1,3.9L13.6,3.9L13.6,4.4z" stroke="none"/><path d="M10.5,10.4L10.5,10.6L10.1,10.6L10.1,11.1L8.1,11.1L8.1,12.1L7.6,12.1L7.6,12.6L5.6,12.6L5.6,13.1L2.4,13.1L2.4,12.6L1.9,12.6L1.9,8.9L2.4,8.9L2.4,7.9L2.9,7.9L2.9,7.5L3.1,7.5L3.1,8.1L2.6,8.1L2.6,9.1L2.1,9.1L2.1,12.4L2.6,12.4L2.6,12.9L5.4,12.9L5.4,12.4L7.4,12.4L7.4,11.9L7.9,11.9L7.9,10.9L9.9,10.9L9.9,10.4z" stroke="none"/><path d="M18.1,4.5L17.9,4.5L17.9,3.9L18.4,3.9L18.4,2.4L18.9,2.4L18.9,1.9L26.1,1.9L26.1,2.4L26.6,2.4L26.6,4.4L27,4.4L27,4.6L26.4,4.6L26.4,2.6L25.9,2.6L25.9,2.1L19.1,2.1L19.1,2.6L18.6,2.6L18.6,4.1L18.1,4.1z" stroke="none"/><path d="M20.9,4.5L21.1,4.5L21.1,4.9L22.1,4.9L22.1,5.4L27.9,5.4L27.9,2.1L26.4,2.1L26.4,1.6L9.1,1.6L9.1,2.1L8.6,2.1L8.6,2.6L8.1,2.6L8.1,3.9L10.1,3.9L10.1,4.4L10.5,4.4L10.5,4.6L9.9,4.6L9.9,4.1L7.9,4.1L7.9,2.4L8.4,2.4L8.4,1.9L8.9,1.9L8.9,1.4L26.6,1.4L26.6,1.9L28.1,1.9L28.1,5.6L21.9,5.6L21.9,5.1L20.9,5.1z" stroke="none"/><path d="M14.9,12L15.1,12L15.1,12.4L15.6,12.4L15.6,12.9L22.1,12.9L22.1,13.4L26.4,13.4L26.4,12.9L27.4,12.9L27.4,12.4L27.9,12.4L27.9,9.6L26.9,9.6L26.9,9L27.1,9L27.1,9.4L28.1,9.4L28.1,12.6L27.6,12.6L27.6,13.1L26.6,13.1L26.6,13.6L21.9,13.6L21.9,13.1L15.4,13.1L15.4,12.6L14.9,12.6z" stroke="none"/></svg>