<svg version="1.1" width="105" height="15" xmlns="http://www.w3.org/2000/svg"><path d="M13.4,9.4L13.4,9.1L12.4,9.1L12.4,8.6L5.1,8.6L5.1,9.6L4.6,9.6L4.6,10.1L4.1,10.1L4.1,10.6L3,10.6L3,10.4L3.9,10.4L3.9,9.9L4.4,9.9L4.4,9.4L4.9,9.4L4.9,8.4L12.6,8.4L12.6,8.9L13.6,8.9L13.6,9.4L19.1,9.4L19.1,9.9L25.4,9.9L25.4,9.4L26.9,9.4L26.9,9L27.1,9L27.1,9.6L25.6,9.6L25.6,10.1L18.9,10.1L18.9,9.6L10.4,9.6L10.4,9L10.6,9L10.6,9.4z" stroke="none"/><path d="M75.9,10.4L75.9,10.1L67.4,10.1L67.4,9.1L66,9.1L66,8.9L67.6,8.9L67.6,9.9L76.1,9.9L76.1,10.4L93,10.4L93,10.6L74.1,10.6L74.1,11.1L73.6,11.1L73.6,12.1L69,12.1L69,11.9L73.4,11.9L73.4,10.9L73.9,10.9L73.9,10.4z" stroke="none"/><path d="M51.6,10.9L51.6,11.4L55.6,11.4L55.6,12L55.4,12L55.4,11.6L51.4,11.6L51.4,11.1L46.1,11.1L46.1,11.4L51.1,11.4L51.1,11.9L55.1,11.9L55.1,12.4L62.9,12.4L62.9,12L63.1,12L63.1,12.6L54.9,12.6L54.9,12.1L50.9,12.1L50.9,11.6L45.9,11.6L45.9,11.1L41.9,11.1L41.9,10.1L36.9,10.1L36.9,9.6L32.9,9.6L32.9,9.1L27.9,9.1L27.9,8.6L27.4,8.6L27.4,8.1L20.6,8.1L20.6,8.6L20.1,8.6L20.1,9.1L19.5,9.1L19.5,8.9L19.9,8.9L19.9,8.4L20.4,8.4L20.4,7.9L27.6,7.9L27.6,8.4L28.1,8.4L28.1,8.9L33.1,8.9L33.1,9.4L37.1,9.4L37.1,9.9L42.1,9.9L42.1,10.9z" stroke="none"/><path d="M53.4,4.9L53.4,4.6L42.1,4.6L42.1,5.1L41.1,5.1L41.1,5.6L38.9,5.6L38.9,4.5L39.1,4.5L39.1,5.4L40.9,5.4L40.9,4.9L41.9,4.9L41.9,4.4L53.6,4.4L53.6,4.9L56.1,4.9L56.1,5.4L56.6,5.4L56.6,5.9L57.1,5.9L57.1,6.9L57.6,6.9L57.6,8.4L64.9,8.4L64.9,7.9L74.6,7.9L74.6,8.4L75.1,8.4L75.1,8.9L78,8.9L78,9.1L74.9,9.1L74.9,8.6L74.4,8.6L74.4,8.1L65.1,8.1L65.1,8.6L57.4,8.6L57.4,7.1L56.9,7.1L56.9,6.1L56.4,6.1L56.4,5.6L55.9,5.6L55.9,5.1L53.6,5.1L53.6,5.6L52.6,5.6L52.6,6L52.4,6L52.4,5.4L53.4,5.4L53.4,5.1L42.6,5.1L42.6,5.6L41.6,5.6L41.6,6.1L40.5,6.1L40.5,5.9L41.4,5.9L41.4,5.4L42.4,5.4L42.4,4.9z" stroke="none"/><path d="M58.9,10.9L58.9,10.4L67.1,10.4L67.1,10.9L67.6,10.9L67.6,11.4L68.1,11.4L68.1,12.4L68.6,12.4L68.6,12.9L88.4,12.9L88.4,12L88.6,12L88.6,13.1L68.4,13.1L68.4,12.6L67.9,12.6L67.9,11.6L67.4,11.6L67.4,11.1L66.9,11.1L66.9,10.6L59.1,10.6L59.1,10.9L64.1,10.9L64.1,12.6L63.6,12.6L63.6,13.1L39.4,13.1L39.4,12.6L38.9,12.6L38.9,12L39.1,12L39.1,12.4L39.6,12.4L39.6,12.9L63.4,12.9L63.4,12.4L63.9,12.4L63.9,11.1L59.1,11.1L59.1,11.6L55.9,11.6L55.9,11.1L53.4,11.1L53.4,10.6L52.5,10.6L52.5,10.4L53.6,10.4L53.6,10.9L56.1,10.9L56.1,11.4L58.9,11.4L58.9,11.1L56.9,11.1L56.9,10.5L57.1,10.5L57.1,10.9z" stroke="none"/><path d="M67.9,4.4L67.9,4.1L55.4,4.1L55.4,3.1L54,3.1L54,2.9L55.6,2.9L55.6,3.9L68.1,3.9L68.1,4.4L75,4.4L75,4.6L68.1,4.6L68.1,4.9L78.6,4.9L78.6,5.4L83.9,5.4L83.9,4.4L84.4,4.4L84.4,2.9L85.5,2.9L85.5,3.1L84.6,3.1L84.6,4.6L84.1,4.6L84.1,5.6L78.4,5.6L78.4,5.1L67.9,5.1L67.9,4.6L61.6,4.6L61.6,5.6L61.1,5.6L61.1,6.1L60.1,6.1L60.1,6.6L59.6,6.6L59.6,7.1L58.6,7.1L58.6,7.5L58.4,7.5L58.4,6.9L59.4,6.9L59.4,6.4L59.9,6.4L59.9,5.9L60.9,5.9L60.9,5.4L61.4,5.4L61.4,4.4z" stroke="none"/><path d="M10.5,4.6L10.5,4.4L12,4.4L12,4.6z" stroke="none"/><path d="M93.1,4.5L92.9,4.5L92.9,3L93.1,3z" stroke="none"/><path d="M94.5,6.1L94.5,5.9L96.9,5.9L96.9,4.4L97.5,4.4L97.5,4.6L97.1,4.6L97.1,6.1z" stroke="none"/><path d="M54,7.4L54,7.6L53.4,7.6L53.4,7.1L50.9,7.1L50.9,6L51.1,6L51.1,6.9L53.6,6.9L53.6,7.4z" stroke="none"/><path d="M45,6.1L45,5.9L49.5,5.9L49.5,6.1z" stroke="none"/><path d="M13.4,3L13.6,3L13.6,7.1L13.1,7.1L13.1,7.6L12,7.6L12,7.4L12.9,7.4L12.9,6.9L13.4,6.9z" stroke="none"/><path d="M3,9.1L3,8.9L3.9,8.9L3.9,7.9L5.4,7.9L5.4,6.4L6.9,6.4L6.9,5.9L7.5,5.9L7.5,6.1L7.1,6.1L7.1,6.6L5.6,6.6L5.6,8.1L4.1,8.1L4.1,9.1z" stroke="none"/><path d="M4.5,3.1L4.5,2.9L6.6,2.9L6.6,4.4L7.6,4.4L7.6,4.9L8.6,4.9L8.6,7.4L9,7.4L9,7.6L8.4,7.6L8.4,5.1L7.4,5.1L7.4,4.6L6.4,4.6L6.4,3.1z" stroke="none"/><path d="M28.5,2.9L28.5,3.1L21,3.1L21,2.9z" stroke="none"/><path d="M19.5,11.9L19.5,12.1L16.9,12.1L16.9,11.6L13.9,11.6L13.9,11.1L13.4,11.1L13.4,10.6L12,10.6L12,10.4L13.6,10.4L13.6,10.9L14.1,10.9L14.1,11.4L17.1,11.4L17.1,11.9z" stroke="none"/><path d="M96,7.4L96,7.6L91.4,7.6L91.4,7.1L90.9,7.1L90.9,5.1L89.4,5.1L89.4,4.6L88.9,4.6L88.9,3.6L88.4,3.6L88.4,3L88.6,3L88.6,3.4L89.1,3.4L89.1,4.4L89.6,4.4L89.6,4.9L91.1,4.9L91.1,6.9L91.6,6.9L91.6,7.4z" stroke="none"/><path d="M30,4.4L30,4.6L21,4.6L21,4.4z" stroke="none"/><path d="M76.5,7.6L76.5,7.4L85.5,7.4L85.5,7.6z" stroke="none"/><path d="M40.5,4.6L40.5,4.4L41.4,4.4L41.4,3.9L44.9,3.9L44.9,3.4L45.9,3.4L45.9,2.9L49.5,2.9L49.5,3.1L46.1,3.1L46.1,3.6L45.1,3.6L45.1,4.1L41.6,4.1L41.6,4.6z" stroke="none"/><path d="M88.5,7.6L88.5,7.4L91.1,7.4L91.1,7.9L95.6,7.9L95.6,8.4L99.6,8.4L99.6,8.9L100.6,8.9L100.6,9.4L101.1,9.4L101.1,9.9L101.6,9.9L101.6,10.4L102,10.4L102,10.6L101.4,10.6L101.4,10.1L100.9,10.1L100.9,9.6L100.4,9.6L100.4,9.1L99.4,9.1L99.4,8.6L95.4,8.6L95.4,8.1L90.9,8.1L90.9,7.6z" stroke="none"/><path d="M18,3.1L18,2.9L18.4,2.9L18.4,2.4L18.9,2.4L18.9,1.9L30.6,1.9L30.6,2.4L31.6,2.4L31.6,2.9L32.1,2.9L32.1,3.4L33.1,3.4L33.1,3.9L34.6,3.9L34.6,4.4L36,4.4L36,4.6L34.4,4.6L34.4,4.1L32.9,4.1L32.9,3.6L31.9,3.6L31.9,3.1L31.4,3.1L31.4,2.6L30.4,2.6L30.4,2.1L19.1,2.1L19.1,2.6L18.6,2.6L18.6,3.1z" stroke="none"/><path d="M79.5,3.1L79.5,2.9L83.9,2.9L83.9,2.4L84.4,2.4L84.4,1.9L89.1,1.9L89.1,2.4L90.1,2.4L90.1,3.4L91.6,3.4L91.6,4.9L92.1,4.9L92.1,5.9L93.1,5.9L93.1,6.9L95.4,6.9L95.4,6.4L97.1,6.4L97.1,7.4L97.5,7.4L97.5,7.6L96.9,7.6L96.9,6.6L95.6,6.6L95.6,7.1L92.9,7.1L92.9,6.1L91.9,6.1L91.9,5.1L91.4,5.1L91.4,3.6L89.9,3.6L89.9,2.6L88.9,2.6L88.9,2.1L84.6,2.1L84.6,2.6L84.1,2.6L84.1,3.1z" stroke="none"/><path d="M99,2.9L99,3.1L93.9,3.1L93.9,2.6L93.4,2.6L93.4,2.1L89.4,2.1L89.4,1.6L79.1,1.6L79.1,2.6L78.6,2.6L78.6,3.4L79.1,3.4L79.1,3.9L79.6,3.9L79.6,4.5L79.4,4.5L79.4,4.1L78.9,4.1L78.9,3.6L78.4,3.6L78.4,2.4L78.9,2.4L78.9,1.4L89.6,1.4L89.6,1.9L93.6,1.9L93.6,2.4L94.1,2.4L94.1,2.9z" stroke="none"/><path d="M39.1,9L38.9,9L38.9,6.1L38.4,6.1L38.4,5.1L37.9,5.1L37.9,3.9L38.4,3.9L38.4,3.4L42.9,3.4L42.9,2.9L45.4,2.9L45.4,2.4L46.4,2.4L46.4,1.9L50.1,1.9L50.1,2.4L50.6,2.4L50.6,2.9L52.1,2.9L52.1,3.9L54.1,3.9L54.1,4.4L57.1,4.4L57.1,5.4L58.6,5.4L58.6,6L58.4,6L58.4,5.6L56.9,5.6L56.9,4.6L53.9,4.6L53.9,4.1L51.9,4.1L51.9,3.1L50.4,3.1L50.4,2.6L49.9,2.6L49.9,2.1L46.6,2.1L46.6,2.6L45.6,2.6L45.6,3.1L43.1,3.1L43.1,3.6L38.6,3.6L38.6,4.1L38.1,4.1L38.1,4.9L38.6,4.9L38.6,5.9L39.1,5.9z" stroke="none"/><path d="M36,5.9L36,6.1L20.9,6.1L20.9,5.6L19.9,5.6L19.9,5.1L17.6,5.1L17.6,5.6L16.1,5.6L16.1,6.1L15,6.1L15,5.9L15.9,5.9L15.9,5.4L17.4,5.4L17.4,4.9L20.1,4.9L20.1,5.4L21.1,5.4L21.1,5.9z" stroke="none"/><path d="M85.5,12.1L85.5,11.9L85.9,11.9L85.9,11.4L86.4,11.4L86.4,10.9L92.6,10.9L92.6,11.4L93.4,11.4L93.4,10.9L93.9,10.9L93.9,10.1L93.4,10.1L93.4,9.6L79.4,9.6L79.4,9.1L78.9,9.1L78.9,8.6L78.4,8.6L78.4,8.1L77.1,8.1L77.1,8.6L75.4,8.6L75.4,8.1L74.9,8.1L74.9,7.6L60,7.6L60,7.4L75.1,7.4L75.1,7.9L75.6,7.9L75.6,8.4L76.9,8.4L76.9,7.9L78.6,7.9L78.6,8.4L79.1,8.4L79.1,8.9L79.6,8.9L79.6,9.4L93.6,9.4L93.6,9.9L94.1,9.9L94.1,11.1L93.6,11.1L93.6,11.6L92.4,11.6L92.4,11.1L86.6,11.1L86.6,11.6L86.1,11.6L86.1,12.1z" stroke="none"/><path d="M6,12.1L6,11.9L16.6,11.9L16.6,12.4L19.1,12.4L19.1,12.9L20.4,12.9L20.4,12.4L28.4,12.4L28.4,11.4L33.9,11.4L33.9,10.9L34.4,10.9L34.4,10.4L36,10.4L36,10.6L34.6,10.6L34.6,11.1L34.1,11.1L34.1,11.6L28.6,11.6L28.6,12.6L20.6,12.6L20.6,13.1L18.9,13.1L18.9,12.6L16.4,12.6L16.4,12.1z" stroke="none"/><path d="M58.5,2.9L58.5,3.1L56.4,3.1L56.4,2.6L54.4,2.6L54.4,2.1L50.4,2.1L50.4,1.6L43.6,1.6L43.6,2.1L43.1,2.1L43.1,2.6L38.6,2.6L38.6,3.1L38.1,3.1L38.1,3.6L37.6,3.6L37.6,7.1L19.9,7.1L19.9,6.1L19.5,6.1L19.5,5.9L20.1,5.9L20.1,6.9L37.4,6.9L37.4,3.4L37.9,3.4L37.9,2.9L38.4,2.9L38.4,2.4L42.9,2.4L42.9,1.9L43.4,1.9L43.4,1.4L50.6,1.4L50.6,1.9L54.6,1.9L54.6,2.4L56.6,2.4L56.6,2.9z" stroke="none"/><path d="M19.4,3L19.6,3L19.6,3.6L19.1,3.6L19.1,4.1L17.4,4.1L17.4,3.6L16.9,3.6L16.9,2.4L17.4,2.4L17.4,1.9L18.4,1.9L18.4,1.4L42.4,1.4L42.4,0.9L99.1,0.9L99.1,1.9L99.6,1.9L99.6,2.4L100.1,2.4L100.1,6.9L100.6,6.9L100.6,7.4L102.1,7.4L102.1,7.9L103.1,7.9L103.1,11.6L99.9,11.6L99.9,11.1L99.4,11.1L99.4,10.1L98.9,10.1L98.9,9.1L86.9,9.1L86.9,7.1L86.4,7.1L86.4,6.6L67.9,6.6L67.9,6.1L67.5,6.1L67.5,5.9L68.1,5.9L68.1,6.4L86.6,6.4L86.6,6.9L87.1,6.9L87.1,8.9L99.1,8.9L99.1,9.9L99.6,9.9L99.6,10.9L100.1,10.9L100.1,11.4L102.9,11.4L102.9,8.1L101.9,8.1L101.9,7.6L100.4,7.6L100.4,7.1L99.9,7.1L99.9,2.6L99.4,2.6L99.4,2.1L98.9,2.1L98.9,1.1L42.6,1.1L42.6,1.6L18.6,1.6L18.6,2.1L17.6,2.1L17.6,2.6L17.1,2.6L17.1,3.4L17.6,3.4L17.6,3.9L18.9,3.9L18.9,3.4L19.4,3.4z" stroke="none"/></svg>