<svg version="1.1" width="105" height="15" xmlns="http://www.w3.org/2000/svg"><path d="M79.4,5.4L79.4,3.6L78.9,3.6L78.9,3.1L78,3.1L78,2.9L79.1,2.9L79.1,3.4L79.6,3.4L79.6,5.4L92.1,5.4L92.1,5.9L92.6,5.9L92.6,7.4L100.5,7.4L100.5,7.6L92.4,7.6L92.4,6.1L91.9,6.1L91.9,5.6L70.9,5.6L70.9,5.1L62.1,5.1L62.1,5.6L61.6,5.6L61.6,6.1L60,6.1L60,5.9L61.4,5.9L61.4,5.4L61.9,5.4L61.9,4.9L71.1,4.9L71.1,5.4z" stroke="none"/><path d="M45.4,5.9L45.4,5.6L29.1,5.6L29.1,6.1L27,6.1L27,5.9L28.9,5.9L28.9,5.4L45.6,5.4L45.6,5.9L53.1,5.9L53.1,6.9L61.9,6.9L61.9,6.4L67.4,6.4L67.4,5.9L70.5,5.9L70.5,6.1L67.6,6.1L67.6,6.6L62.1,6.6L62.1,7.1L52.9,7.1L52.9,6.1L39,6.1L39,5.9z" stroke="none"/><path d="M51.6,10.4L51.6,11.4L52.1,11.4L52.1,11.9L54,11.9L54,12.1L51.9,12.1L51.9,11.6L51.4,11.6L51.4,10.6L44.1,10.6L44.1,10.9L50.1,10.9L50.1,11.4L50.6,11.4L50.6,11.9L51.6,11.9L51.6,12.4L58.4,12.4L58.4,12L58.6,12L58.6,12.6L51.4,12.6L51.4,12.1L50.4,12.1L50.4,11.6L49.9,11.6L49.9,11.1L43.9,11.1L43.9,10.6L40.4,10.6L40.4,10.1L38.4,10.1L38.4,9.1L34.4,9.1L34.4,8.6L33.4,8.6L33.4,8.1L29.1,8.1L29.1,8.6L22.9,8.6L22.9,8.1L21.4,8.1L21.4,7.6L19.5,7.6L19.5,7.4L21.6,7.4L21.6,7.9L23.1,7.9L23.1,8.4L28.9,8.4L28.9,7.9L33.6,7.9L33.6,8.4L34.6,8.4L34.6,8.9L38.6,8.9L38.6,9.9L40.6,9.9L40.6,10.4z" stroke="none"/><path d="M88.4,9.9L88.4,8.6L87.9,8.6L87.9,8.1L87.4,8.1L87.4,7.6L86.9,7.6L86.9,7.1L86.4,7.1L86.4,6.6L71.1,6.6L71.1,7.1L70.1,7.1L70.1,7.6L67.5,7.6L67.5,7.4L69.9,7.4L69.9,6.9L70.9,6.9L70.9,6.4L86.6,6.4L86.6,6.9L87.1,6.9L87.1,7.4L87.6,7.4L87.6,7.9L88.1,7.9L88.1,8.4L88.6,8.4L88.6,9.9L88.9,9.9L88.9,9.4L89.4,9.4L89.4,8.9L90,8.9L90,9.1L89.6,9.1L89.6,9.6L89.1,9.6L89.1,10.1L88.6,10.1L88.6,10.4L93.6,10.4L93.6,10.9L95.1,10.9L95.1,11.4L96.1,11.4L96.1,12L95.9,12L95.9,11.6L94.9,11.6L94.9,11.1L93.4,11.1L93.4,10.6L88.4,10.6L88.4,10.1L88.1,10.1L88.1,10.9L93.1,10.9L93.1,11.4L93.6,11.4L93.6,11.9L95.6,11.9L95.6,12.4L101.9,12.4L101.9,12L102.1,12L102.1,12.6L95.4,12.6L95.4,12.1L93.4,12.1L93.4,11.6L92.9,11.6L92.9,11.1L87.9,11.1L87.9,9.9z" stroke="none"/><path d="M63.4,3.4L63.4,3.1L55.5,3.1L55.5,2.9L63.6,2.9L63.6,3.4L63.9,3.4L63.9,2.6L50.9,2.6L50.9,2.1L49.1,2.1L49.1,2.6L48.1,2.6L48.1,3L47.9,3L47.9,2.4L48.9,2.4L48.9,1.9L51.1,1.9L51.1,2.4L64.1,2.4L64.1,3.6L63.6,3.6L63.6,3.9L75.4,3.9L75.4,2.9L76.9,2.9L76.9,1.9L93.1,1.9L93.1,3L92.9,3L92.9,2.1L77.1,2.1L77.1,3.1L75.6,3.1L75.6,4.1L63.4,4.1L63.4,3.6L59.6,3.6L59.6,4.1L59.1,4.1L59.1,5.6L58.6,5.6L58.6,6L58.4,6L58.4,5.4L58.9,5.4L58.9,3.9L59.4,3.9L59.4,3.4z" stroke="none"/><path d="M67.4,8.9L67.4,8.6L43.6,8.6L43.6,9L43.4,9L43.4,8.4L67.6,8.4L67.6,8.9L74.4,8.9L74.4,8.4L77.9,8.4L77.9,7.5L78.1,7.5L78.1,8.6L74.6,8.6L74.6,9.1L67.6,9.1L67.6,9.4L85.1,9.4L85.1,9.9L86.6,9.9L86.6,10.4L87.1,10.4L87.1,11.4L92.1,11.4L92.1,11.9L92.6,11.9L92.6,12.4L95.1,12.4L95.1,12.9L102.9,12.9L102.9,11.6L102.4,11.6L102.4,11.1L95.9,11.1L95.9,10.6L93.9,10.6L93.9,9.1L93,9.1L93,8.9L94.1,8.9L94.1,10.4L96.1,10.4L96.1,10.9L102.6,10.9L102.6,11.4L103.1,11.4L103.1,13.1L94.9,13.1L94.9,12.6L92.4,12.6L92.4,12.1L91.9,12.1L91.9,11.6L86.9,11.6L86.9,10.6L86.4,10.6L86.4,10.1L84.9,10.1L84.9,9.6L67.4,9.6L67.4,9.1L60.6,9.1L60.6,9.6L58.1,9.6L58.1,10.1L57.1,10.1L57.1,10.5L56.9,10.5L56.9,9.9L57.9,9.9L57.9,9.4L60.4,9.4L60.4,8.9z" stroke="none"/><path d="M85.4,7.5L85.6,7.5L85.6,9L85.4,9z" stroke="none"/><path d="M39,3.1L39,2.9L40.5,2.9L40.5,3.1z" stroke="none"/><path d="M25.5,10.4L25.5,10.6L24,10.6L24,10.4z" stroke="none"/><path d="M4.5,12.1L4.5,11.9L5.4,11.9L5.4,10.9L5.9,10.9L5.9,10.5L6.1,10.5L6.1,11.1L5.6,11.1L5.6,12.1z" stroke="none"/><path d="M28.5,10.6L28.5,10.4L31.5,10.4L31.5,10.6z" stroke="none"/><path d="M97.4,3L97.6,3L97.6,4.6L96.1,4.6L96.1,5.1L95.6,5.1L95.6,5.6L95.1,5.6L95.1,6.1L94.5,6.1L94.5,5.9L94.9,5.9L94.9,5.4L95.4,5.4L95.4,4.9L95.9,4.9L95.9,4.4L97.4,4.4z" stroke="none"/><path d="M96,8.9L96,9.1L94.4,9.1L94.4,8.6L93.4,8.6L93.4,8.1L89.9,8.1L89.9,7.5L90.1,7.5L90.1,7.9L93.6,7.9L93.6,8.4L94.6,8.4L94.6,8.9z" stroke="none"/><path d="M18,3.1L18,2.9L21.6,2.9L21.6,3.4L22.1,3.4L22.1,3.9L22.6,3.9L22.6,4.4L24,4.4L24,4.6L22.4,4.6L22.4,4.1L21.9,4.1L21.9,3.6L21.4,3.6L21.4,3.1z" stroke="none"/><path d="M98.9,6L99.1,6L99.1,6.6L97.6,6.6L97.6,7.1L93.4,7.1L93.4,4.1L91.9,4.1L91.9,3.6L91.4,3.6L91.4,3L91.6,3L91.6,3.4L92.1,3.4L92.1,3.9L93.6,3.9L93.6,6.9L97.4,6.9L97.4,6.4L98.9,6.4z" stroke="none"/><path d="M22.6,10.5L22.4,10.5L22.4,9.9L22.9,9.9L22.9,9.4L32.6,9.4L32.6,10.4L33,10.4L33,10.6L32.4,10.6L32.4,9.6L23.1,9.6L23.1,10.1L22.6,10.1z" stroke="none"/><path d="M34.5,3.1L34.5,2.9L37.1,2.9L37.1,3.4L37.6,3.4L37.6,3.9L48.4,3.9L48.4,3.4L49.4,3.4L49.4,3L49.6,3L49.6,3.6L48.6,3.6L48.6,4.1L37.4,4.1L37.4,3.6L36.9,3.6L36.9,3.1z" stroke="none"/><path d="M13.5,9.1L13.5,8.9L17.4,8.9L17.4,6.9L17.9,6.9L17.9,6.4L21.6,6.4L21.6,6.9L28.6,6.9L28.6,7.5L28.4,7.5L28.4,7.1L21.4,7.1L21.4,6.6L18.1,6.6L18.1,7.1L17.6,7.1L17.6,9.1z" stroke="none"/><path d="M18.1,12L17.9,12L17.9,9.9L18.4,9.9L18.4,9.4L22.4,9.4L22.4,8.9L33,8.9L33,9.1L22.6,9.1L22.6,9.6L18.6,9.6L18.6,10.1L18.1,10.1z" stroke="none"/><path d="M31.5,11.9L31.5,12.1L20.6,12.1L20.6,12.6L18.6,12.6L18.6,13.1L16.9,13.1L16.9,12.6L14.9,12.6L14.9,12L15.1,12L15.1,12.4L17.1,12.4L17.1,12.9L18.4,12.9L18.4,12.4L20.4,12.4L20.4,11.9z" stroke="none"/><path d="M9.1,7.5L8.9,7.5L8.9,5.9L9.4,5.9L9.4,4.9L23.6,4.9L23.6,5.4L24.4,5.4L24.4,4.9L25.4,4.9L25.4,4.5L25.6,4.5L25.6,5.1L24.6,5.1L24.6,5.6L23.4,5.6L23.4,5.1L9.6,5.1L9.6,6.1L9.1,6.1z" stroke="none"/><path d="M78,4.4L78,4.6L60,4.6L60,4.4z" stroke="none"/><path d="M36,10.4L36,10.6L35.1,10.6L35.1,11.6L33.6,11.6L33.6,13.1L19.1,13.1L19.1,13.6L14.9,13.6L14.9,13.1L14.4,13.1L14.4,12.6L13.9,12.6L13.9,10.6L12.9,10.6L12.9,9.6L12.4,9.6L12.4,8.4L12.9,8.4L12.9,7.9L15.9,7.9L15.9,7.4L16.5,7.4L16.5,7.6L16.1,7.6L16.1,8.1L13.1,8.1L13.1,8.6L12.6,8.6L12.6,9.4L13.1,9.4L13.1,10.4L14.1,10.4L14.1,12.4L14.6,12.4L14.6,12.9L15.1,12.9L15.1,13.4L18.9,13.4L18.9,12.9L33.4,12.9L33.4,11.4L34.9,11.4L34.9,10.4z" stroke="none"/><path d="M7.5,4.6L7.5,4.4L12.9,4.4L12.9,3.9L13.4,3.9L13.4,3.4L13.9,3.4L13.9,2.9L14.9,2.9L14.9,2.4L17.4,2.4L17.4,1.9L27.1,1.9L27.1,2.4L28.6,2.4L28.6,3L28.4,3L28.4,2.6L26.9,2.6L26.9,2.1L17.6,2.1L17.6,2.6L15.1,2.6L15.1,3.1L14.1,3.1L14.1,3.6L13.6,3.6L13.6,4.1L13.1,4.1L13.1,4.6z" stroke="none"/><path d="M78,12.1L78,11.9L91.6,11.9L91.6,12.4L92.1,12.4L92.1,12.9L94.6,12.9L94.6,13.4L103.4,13.4L103.4,11.1L102.9,11.1L102.9,10.6L99.9,10.6L99.9,9.6L98.9,9.6L98.9,9L99.1,9L99.1,9.4L100.1,9.4L100.1,10.4L103.1,10.4L103.1,10.9L103.6,10.9L103.6,13.6L94.4,13.6L94.4,13.1L91.9,13.1L91.9,12.6L91.4,12.6L91.4,12.1z" stroke="none"/><path d="M96,6.1L96,5.9L96.9,5.9L96.9,5.4L97.4,5.4L97.4,4.9L97.9,4.9L97.9,3.4L98.4,3.4L98.4,2.6L97.9,2.6L97.9,2.1L93.4,2.1L93.4,1.6L73.6,1.6L73.6,2.1L73.1,2.1L73.1,2.6L71.6,2.6L71.6,3.1L69,3.1L69,2.9L71.4,2.9L71.4,2.4L72.9,2.4L72.9,1.9L73.4,1.9L73.4,1.4L93.6,1.4L93.6,1.9L98.1,1.9L98.1,2.4L98.6,2.4L98.6,3.6L98.1,3.6L98.1,5.1L97.6,5.1L97.6,5.6L97.1,5.6L97.1,6.1z" stroke="none"/><path d="M22.5,6.1L22.5,5.9L25.9,5.9L25.9,5.4L26.4,5.4L26.4,4.9L50.9,4.9L50.9,4.5L51.1,4.5L51.1,5.1L26.6,5.1L26.6,5.6L26.1,5.6L26.1,6.1z" stroke="none"/><path d="M22.5,3.1L22.5,2.9L27.1,2.9L27.1,3.4L28.1,3.4L28.1,3.9L37.1,3.9L37.1,4.4L49.9,4.4L49.9,3.4L51.6,3.4L51.6,3.9L52.1,3.9L52.1,4.4L52.6,4.4L52.6,5.4L53.6,5.4L53.6,5.9L54,5.9L54,6.1L53.4,6.1L53.4,5.6L52.4,5.6L52.4,4.6L51.9,4.6L51.9,4.1L51.4,4.1L51.4,3.6L50.1,3.6L50.1,4.6L36.9,4.6L36.9,4.1L27.9,4.1L27.9,3.6L26.9,3.6L26.9,3.1z" stroke="none"/><path d="M64.5,7.4L64.5,7.6L42.6,7.6L42.6,9.4L43.1,9.4L43.1,9.9L56.1,9.9L56.1,10.9L56.6,10.9L56.6,11.4L57.9,11.4L57.9,10.9L75.6,10.9L75.6,11.4L76.1,11.4L76.1,12.4L77.6,12.4L77.6,12.9L90.6,12.9L90.6,13.4L91.1,13.4L91.1,13.9L103.9,13.9L103.9,8.6L103.4,8.6L103.4,8.1L101.9,8.1L101.9,7.5L102.1,7.5L102.1,7.9L103.6,7.9L103.6,8.4L104.1,8.4L104.1,14.1L90.9,14.1L90.9,13.6L90.4,13.6L90.4,13.1L77.4,13.1L77.4,12.6L75.9,12.6L75.9,11.6L75.4,11.6L75.4,11.1L58.1,11.1L58.1,11.6L56.4,11.6L56.4,11.1L55.9,11.1L55.9,10.1L42.9,10.1L42.9,9.6L42.4,9.6L42.4,7.4z" stroke="none"/><path d="M46.5,11.9L46.5,12.1L35.6,12.1L35.6,12.6L35.1,12.6L35.1,13.1L34.6,13.1L34.6,13.6L20.1,13.6L20.1,14.1L7.4,14.1L7.4,13.6L6.4,13.6L6.4,13.1L3.9,13.1L3.9,12.6L3.4,12.6L3.4,7.6L3,7.6L3,7.4L3.6,7.4L3.6,12.4L4.1,12.4L4.1,12.9L6.6,12.9L6.6,13.4L7.6,13.4L7.6,13.9L19.9,13.9L19.9,13.4L34.4,13.4L34.4,12.9L34.9,12.9L34.9,12.4L35.4,12.4L35.4,11.9z" stroke="none"/></svg>