<svg version="1.1" width="105" height="15" xmlns="http://www.w3.org/2000/svg"><path d="M20.6,11.4L20.6,11.9L21,11.9L21,12.1L20.4,12.1L20.4,11.6L19.6,11.6L19.6,11.9L20.1,11.9L20.1,12.4L22.4,12.4L22.4,12L22.6,12L22.6,12.6L19.9,12.6L19.9,12.1L19.4,12.1L19.4,11.6L15.9,11.6L15.9,11.1L15.4,11.1L15.4,10.6L15,10.6L15,10.4L15.6,10.4L15.6,10.9L16.1,10.9L16.1,11.4z" stroke="none"/><path d="M15.9,7.4L15.9,6.9L18.4,6.9L18.4,5.4L18.9,5.4L18.9,4.9L22.1,4.9L22.1,5.4L22.6,5.4L22.6,6L22.4,6L22.4,5.6L21.9,5.6L21.9,5.1L19.1,5.1L19.1,5.6L18.6,5.6L18.6,7.1L16.1,7.1L16.1,7.6L13.1,7.6L13.1,8.1L6.6,8.1L6.6,9.1L6.1,9.1L6.1,10.5L5.9,10.5L5.9,8.9L6.4,8.9L6.4,7.9L12.9,7.9L12.9,7.6L11.4,7.6L11.4,7.1L10.9,7.1L10.9,6.6L10.4,6.6L10.4,6L10.6,6L10.6,6.4L11.1,6.4L11.1,6.9L11.6,6.9L11.6,7.4z" stroke="none"/><path d="M43.9,10.9L43.9,10.4L58.5,10.4L58.5,10.6L44.1,10.6L44.1,10.9L51.1,10.9L51.1,11.4L52.6,11.4L52.6,12L52.4,12L52.4,11.6L50.9,11.6L50.9,11.1L42.6,11.1L42.6,11.6L25.9,11.6L25.9,11.1L24.9,11.1L24.9,10.6L21,10.6L21,10.4L25.1,10.4L25.1,10.9L26.1,10.9L26.1,11.4L42.4,11.4L42.4,10.9z" stroke="none"/><path d="M28.9,8.4L28.9,8.1L19.4,8.1L19.4,7.5L19.6,7.5L19.6,7.9L29.1,7.9L29.1,8.4L30.4,8.4L30.4,7.4L31.5,7.4L31.5,7.6L30.6,7.6L30.6,8.6L29.1,8.6L29.1,8.9L40.4,8.9L40.4,7.5L40.6,7.5L40.6,9.1L28.9,9.1L28.9,8.6L16.6,8.6L16.6,9.1L14.6,9.1L14.6,9.6L14.1,9.6L14.1,11.4L15.6,11.4L15.6,11.9L18.6,11.9L18.6,12.4L19.1,12.4L19.1,12.9L22.9,12.9L22.9,12.4L25.4,12.4L25.4,12L25.6,12L25.6,12.6L23.1,12.6L23.1,13.1L18.9,13.1L18.9,12.6L18.4,12.6L18.4,12.1L15.4,12.1L15.4,11.6L13.9,11.6L13.9,9.4L14.4,9.4L14.4,8.9L16.4,8.9L16.4,8.4z" stroke="none"/><path d="M72.9,8.4L72.9,7.9L75.6,7.9L75.6,8.4L78.1,8.4L78.1,8.9L78.6,8.9L78.6,9.4L79.6,9.4L79.6,9.9L80.6,9.9L80.6,10.4L81,10.4L81,10.6L80.4,10.6L80.4,10.1L79.4,10.1L79.4,9.6L78.4,9.6L78.4,9.1L77.9,9.1L77.9,8.6L75.4,8.6L75.4,8.1L73.1,8.1L73.1,8.4L74.6,8.4L74.6,9.4L75.1,9.4L75.1,10.5L74.9,10.5L74.9,9.6L74.4,9.6L74.4,8.6L73.1,8.6L73.1,9.1L65.4,9.1L65.4,8.6L60.9,8.6L60.9,8.1L56.1,8.1L56.1,8.6L54.4,8.6L54.4,8.1L53.9,8.1L53.9,7.5L54.1,7.5L54.1,7.9L54.6,7.9L54.6,8.4L55.9,8.4L55.9,7.9L61.1,7.9L61.1,8.4L65.6,8.4L65.6,8.9L72.9,8.9L72.9,8.6L72.4,8.6L72.4,7.4L74.9,7.4L74.9,6.9L75.4,6.9L75.4,6.4L77.9,6.4L77.9,5.9L82.5,5.9L82.5,6.1L78.1,6.1L78.1,6.6L75.6,6.6L75.6,7.1L75.1,7.1L75.1,7.6L72.6,7.6L72.6,8.4z" stroke="none"/><path d="M42.9,7.4L42.9,7.1L41.9,7.1L41.9,6.1L36.4,6.1L36.4,5.6L26.1,5.6L26.1,6.1L25.5,6.1L25.5,5.9L25.9,5.9L25.9,5.4L36.6,5.4L36.6,5.9L42.1,5.9L42.1,6.9L43.1,6.9L43.1,7.4L46.6,7.4L46.6,7.9L47.6,7.9L47.6,8.4L50.6,8.4L50.6,8.9L54,8.9L54,9.1L50.4,9.1L50.4,8.6L47.4,8.6L47.4,8.1L46.4,8.1L46.4,7.6L43.1,7.6L43.1,7.9L46.1,7.9L46.1,8.4L47.1,8.4L47.1,8.9L50.1,8.9L50.1,9.4L57.4,9.4L57.4,8.9L60,8.9L60,9.1L57.6,9.1L57.6,9.6L49.9,9.6L49.9,9.1L46.9,9.1L46.9,8.6L45.9,8.6L45.9,8.1L42.9,8.1L42.9,7.6L41.4,7.6L41.4,7.1L40.9,7.1L40.9,6.6L35.9,6.6L35.9,6.1L33,6.1L33,5.9L36.1,5.9L36.1,6.4L41.1,6.4L41.1,6.9L41.6,6.9L41.6,7.4z" stroke="none"/><path d="M3,6.1L3,5.9L4.5,5.9L4.5,6.1z" stroke="none"/><path d="M10.4,3L10.6,3L10.6,4.1L10.1,4.1L10.1,4.6L9,4.6L9,4.4L9.9,4.4L9.9,3.9L10.4,3.9z" stroke="none"/><path d="M84,12.1L84,11.9L84.9,11.9L84.9,10.9L85.4,10.9L85.4,10.5L85.6,10.5L85.6,11.1L85.1,11.1L85.1,12.1z" stroke="none"/><path d="M43.5,4.6L43.5,4.4L45.9,4.4L45.9,2.9L46.5,2.9L46.5,3.1L46.1,3.1L46.1,4.6z" stroke="none"/><path d="M7.4,9L7.6,9L7.6,9.4L8.1,9.4L8.1,9.9L10.6,9.9L10.6,10.9L11.6,10.9L11.6,11.9L12,11.9L12,12.1L11.4,12.1L11.4,11.1L10.4,11.1L10.4,10.1L7.9,10.1L7.9,9.6L7.4,9.6z" stroke="none"/><path d="M91.5,3.1L91.5,2.9L95.1,2.9L95.1,3.4L95.6,3.4L95.6,3.9L100.6,3.9L100.6,6L100.4,6L100.4,4.1L95.4,4.1L95.4,3.6L94.9,3.6L94.9,3.1z" stroke="none"/><path d="M54,3.1L54,2.9L62.1,2.9L62.1,3.4L62.6,3.4L62.6,4.4L63.6,4.4L63.6,6.4L64.1,6.4L64.1,6.9L64.6,6.9L64.6,7.5L64.4,7.5L64.4,7.1L63.9,7.1L63.9,6.6L63.4,6.6L63.4,4.6L62.4,4.6L62.4,3.6L61.9,3.6L61.9,3.1z" stroke="none"/><path d="M97.5,10.4L97.5,10.6L96.9,10.6L96.9,10.1L96.4,10.1L96.4,9.6L88.4,9.6L88.4,8.6L85.9,8.6L85.9,6.6L85.4,6.6L85.4,6L85.6,6L85.6,6.4L86.1,6.4L86.1,8.4L88.6,8.4L88.6,9.4L96.6,9.4L96.6,9.9L97.1,9.9L97.1,10.4z" stroke="none"/><path d="M102.1,12L101.9,12L101.9,11.6L101.4,11.6L101.4,11.1L98.1,11.1L98.1,11.6L89.6,11.6L89.6,12.1L88.5,12.1L88.5,11.9L89.4,11.9L89.4,11.4L97.9,11.4L97.9,10.9L101.6,10.9L101.6,11.4L102.1,11.4z" stroke="none"/><path d="M33,2.9L33,3.1L25.6,3.1L25.6,4.1L24.6,4.1L24.6,4.6L24.1,4.6L24.1,5.6L23.6,5.6L23.6,7.1L21.9,7.1L21.9,6.6L20.4,6.6L20.4,6.1L19.5,6.1L19.5,5.9L20.6,5.9L20.6,6.4L22.1,6.4L22.1,6.9L23.4,6.9L23.4,5.4L23.9,5.4L23.9,4.4L24.4,4.4L24.4,3.9L25.4,3.9L25.4,2.9z" stroke="none"/><path d="M94.5,5.9L94.5,6.1L86.4,6.1L86.4,5.6L85.9,5.6L85.9,5.1L84.6,5.1L84.6,5.6L84.1,5.6L84.1,6.6L83.1,6.6L83.1,7.1L77.1,7.1L77.1,7.6L76.5,7.6L76.5,7.4L76.9,7.4L76.9,6.9L82.9,6.9L82.9,6.4L83.9,6.4L83.9,5.4L84.4,5.4L84.4,4.9L86.1,4.9L86.1,5.4L86.6,5.4L86.6,5.9z" stroke="none"/><path d="M87,2.9L87,3.1L84.1,3.1L84.1,3.6L82.1,3.6L82.1,4.1L78.4,4.1L78.4,3.6L74.6,3.6L74.6,4.1L72.1,4.1L72.1,4.6L69,4.6L69,4.4L71.9,4.4L71.9,3.9L74.4,3.9L74.4,3.4L78.6,3.4L78.6,3.9L81.9,3.9L81.9,3.4L83.9,3.4L83.9,2.9z" stroke="none"/><path d="M78,4.6L78,4.4L89.4,4.4L89.4,2.9L89.9,2.9L89.9,2.4L90.9,2.4L90.9,1.9L94.6,1.9L94.6,2.4L96.1,2.4L96.1,3L95.9,3L95.9,2.6L94.4,2.6L94.4,2.1L91.1,2.1L91.1,2.6L90.1,2.6L90.1,3.1L89.6,3.1L89.6,4.6z" stroke="none"/><path d="M102.1,6L101.9,6L101.9,2.6L96.4,2.6L96.4,2.1L94.9,2.1L94.9,1.6L81.6,1.6L81.6,2.6L81.1,2.6L81.1,3L80.9,3L80.9,2.4L81.4,2.4L81.4,1.4L95.1,1.4L95.1,1.9L96.6,1.9L96.6,2.4L102.1,2.4z" stroke="none"/><path d="M13.5,3.1L13.5,2.9L24.9,2.9L24.9,2.4L31.9,2.4L31.9,1.9L35.1,1.9L35.1,2.9L36,2.9L36,3.1L34.9,3.1L34.9,2.1L32.1,2.1L32.1,2.6L25.1,2.6L25.1,3.1z" stroke="none"/><path d="M76.5,12.1L76.5,11.9L82.6,11.9L82.6,12.4L83.1,12.4L83.1,12.9L94.4,12.9L94.4,12.4L94.9,12.4L94.9,11.9L99,11.9L99,12.1L95.1,12.1L95.1,12.6L94.6,12.6L94.6,13.1L82.9,13.1L82.9,12.6L82.4,12.6L82.4,12.1z" stroke="none"/><path d="M9.1,3L8.9,3L8.9,2.4L9.4,2.4L9.4,1.9L31.4,1.9L31.4,1.4L37.1,1.4L37.1,4.1L26.1,4.1L26.1,4.6L25.1,4.6L25.1,5.6L24.6,5.6L24.6,6.4L25.1,6.4L25.1,6.9L30.9,6.9L30.9,6.4L32.1,6.4L32.1,6.9L33.1,6.9L33.1,7.4L34.5,7.4L34.5,7.6L32.9,7.6L32.9,7.1L31.9,7.1L31.9,6.6L31.1,6.6L31.1,7.1L24.9,7.1L24.9,6.6L24.4,6.6L24.4,5.4L24.9,5.4L24.9,4.4L25.9,4.4L25.9,3.9L36.9,3.9L36.9,1.6L31.6,1.6L31.6,2.1L9.6,2.1L9.6,2.6L9.1,2.6z" stroke="none"/><path d="M97.5,6.1L97.5,5.9L99.1,5.9L99.1,6.4L100.1,6.4L100.1,6.9L102.4,6.9L102.4,6.4L102.9,6.4L102.9,3.1L102.4,3.1L102.4,2.1L96.9,2.1L96.9,1.6L95.4,1.6L95.4,1.1L72.6,1.1L72.6,1.6L72.1,1.6L72.1,2.1L71.6,2.1L71.6,3.1L70.5,3.1L70.5,2.9L71.4,2.9L71.4,1.9L71.9,1.9L71.9,1.4L72.4,1.4L72.4,0.9L95.6,0.9L95.6,1.4L97.1,1.4L97.1,1.9L102.6,1.9L102.6,2.9L103.1,2.9L103.1,6.6L102.6,6.6L102.6,7.1L99.9,7.1L99.9,6.6L98.9,6.6L98.9,6.1z" stroke="none"/><path d="M100.4,12L100.6,12L100.6,12.6L99.6,12.6L99.6,13.1L95.1,13.1L95.1,13.6L72.9,13.6L72.9,12.6L72.4,12.6L72.4,12.1L72,12.1L72,11.9L72.6,11.9L72.6,12.4L73.1,12.4L73.1,13.4L94.9,13.4L94.9,12.9L99.4,12.9L99.4,12.4L100.4,12.4z" stroke="none"/><path d="M70.5,10.4L70.5,10.6L59.4,10.6L59.4,10.1L58.9,10.1L58.9,9.6L58.1,9.6L58.1,10.1L42.1,10.1L42.1,10.5L41.9,10.5L41.9,9.9L57.9,9.9L57.9,9.4L59.1,9.4L59.1,9.9L59.6,9.9L59.6,10.4z" stroke="none"/><path d="M93,7.6L93,7.4L103.4,7.4L103.4,1.6L97.4,1.6L97.4,1.1L96.4,1.1L96.4,0.6L55.1,0.6L55.1,1.1L54.6,1.1L54.6,1.6L53.6,1.6L53.6,2.6L53.1,2.6L53.1,3.1L51.6,3.1L51.6,4.1L50.6,4.1L50.6,5.1L49.6,5.1L49.6,6L49.4,6L49.4,4.9L50.4,4.9L50.4,3.9L51.4,3.9L51.4,2.9L52.9,2.9L52.9,2.4L53.4,2.4L53.4,1.4L54.4,1.4L54.4,0.9L54.9,0.9L54.9,0.4L96.6,0.4L96.6,0.9L97.6,0.9L97.6,1.4L103.6,1.4L103.6,7.6z" stroke="none"/><path d="M48.1,7.5L47.9,7.5L47.9,6.6L45.9,6.6L45.9,6.1L44.9,6.1L44.9,5.6L42.9,5.6L42.9,5.1L42.4,5.1L42.4,4.6L40.4,4.6L40.4,4.1L39.9,4.1L39.9,3.6L39.4,3.6L39.4,3.1L38.9,3.1L38.9,2.6L37.9,2.6L37.9,1.6L37.4,1.6L37.4,1.1L7.6,1.1L7.6,1.6L6.1,1.6L6.1,2.6L4.6,2.6L4.6,3L4.4,3L4.4,2.4L5.9,2.4L5.9,1.4L7.4,1.4L7.4,0.9L37.6,0.9L37.6,1.4L38.1,1.4L38.1,2.4L39.1,2.4L39.1,2.9L39.6,2.9L39.6,3.4L40.1,3.4L40.1,3.9L40.6,3.9L40.6,4.4L42.6,4.4L42.6,4.9L43.1,4.9L43.1,5.4L45.1,5.4L45.1,5.9L46.1,5.9L46.1,6.4L48.1,6.4z" stroke="none"/><path d="M10.5,9.1L10.5,8.9L11.6,8.9L11.6,9.4L12.1,9.4L12.1,9.9L12.6,9.9L12.6,10.9L13.1,10.9L13.1,13.1L5.4,13.1L5.4,11.1L4.9,11.1L4.9,6.9L5.4,6.9L5.4,5.1L3.4,5.1L3.4,2.4L3.9,2.4L3.9,1.9L5.4,1.9L5.4,0.9L6.9,0.9L6.9,0.4L45.1,0.4L45.1,1.9L47.1,1.9L47.1,2.4L47.6,2.4L47.6,4.4L48.1,4.4L48.1,5.4L48.6,5.4L48.6,6.9L51.9,6.9L51.9,6.4L54.6,6.4L54.6,6.9L55.6,6.9L55.6,7.5L55.4,7.5L55.4,7.1L54.4,7.1L54.4,6.6L52.1,6.6L52.1,7.1L48.4,7.1L48.4,5.6L47.9,5.6L47.9,4.6L47.4,4.6L47.4,2.6L46.9,2.6L46.9,2.1L44.9,2.1L44.9,0.6L7.1,0.6L7.1,1.1L5.6,1.1L5.6,2.1L4.1,2.1L4.1,2.6L3.6,2.6L3.6,4.9L5.6,4.9L5.6,7.1L5.1,7.1L5.1,10.9L5.6,10.9L5.6,12.9L12.9,12.9L12.9,11.1L12.4,11.1L12.4,10.1L11.9,10.1L11.9,9.6L11.4,9.6L11.4,9.1z" stroke="none"/><path d="M96,10.4L96,10.6L86.9,10.6L86.9,10.1L85.9,10.1L85.9,9.6L84.6,9.6L84.6,10.1L84.1,10.1L84.1,10.6L82.1,10.6L82.1,11.1L81.6,11.1L81.6,11.6L76.9,11.6L76.9,11.1L75.6,11.1L75.6,11.6L72.4,11.6L72.4,11.1L71.1,11.1L71.1,11.6L54.6,11.6L54.6,12.1L54.1,12.1L54.1,12.6L53.1,12.6L53.1,13.1L47.4,13.1L47.4,12.6L46.9,12.6L46.9,12.1L46.5,12.1L46.5,11.9L47.1,11.9L47.1,12.4L47.6,12.4L47.6,12.9L52.9,12.9L52.9,12.4L53.9,12.4L53.9,11.9L54.4,11.9L54.4,11.4L70.9,11.4L70.9,10.9L72.6,10.9L72.6,11.4L75.4,11.4L75.4,10.9L77.1,10.9L77.1,11.4L81.4,11.4L81.4,10.9L81.9,10.9L81.9,10.4L83.9,10.4L83.9,9.9L84.4,9.9L84.4,9.4L86.1,9.4L86.1,9.9L87.1,9.9L87.1,10.4z" stroke="none"/></svg>