<svg version="1.1" width="105" height="15" xmlns="http://www.w3.org/2000/svg"><path d="M9.4,5.9L9.4,5.4L9.9,5.4L9.9,4.9L13.4,4.9L13.4,4.5L13.6,4.5L13.6,5.1L10.1,5.1L10.1,5.6L9.6,5.6L9.6,6.1L9.1,6.1L9.1,7.5L8.9,7.5L8.9,6.1L7.6,6.1L7.6,6.6L7.1,6.6L7.1,7.1L6.6,7.1L6.6,7.6L6,7.6L6,7.4L6.4,7.4L6.4,6.9L6.9,6.9L6.9,6.4L7.4,6.4L7.4,5.9z" stroke="none"/><path d="M42.4,3.9L42.4,3.4L44.4,3.4L44.4,2.9L46.5,2.9L46.5,3.1L44.6,3.1L44.6,3.6L42.6,3.6L42.6,4.1L39.6,4.1L39.6,4.4L45.4,4.4L45.4,3.9L45.9,3.9L45.9,3.4L57.1,3.4L57.1,3.9L57.6,3.9L57.6,4.9L58.1,4.9L58.1,5.9L58.5,5.9L58.5,6.1L57.9,6.1L57.9,5.1L57.4,5.1L57.4,4.1L56.9,4.1L56.9,3.6L46.1,3.6L46.1,4.1L45.6,4.1L45.6,4.6L39.4,4.6L39.4,4.1L18.4,4.1L18.4,3.6L16.4,3.6L16.4,3.1L13.5,3.1L13.5,2.9L16.6,2.9L16.6,3.4L18.6,3.4L18.6,3.9z" stroke="none"/><path d="M31.4,6.9L31.4,6.4L34.9,6.4L34.9,5.9L43.9,5.9L43.9,5.4L45.4,5.4L45.4,4.9L46.4,4.9L46.4,4.5L46.6,4.5L46.6,5.1L45.6,5.1L45.6,5.6L44.1,5.6L44.1,6.1L35.1,6.1L35.1,6.6L31.6,6.6L31.6,6.9L35.4,6.9L35.4,6.4L44.1,6.4L44.1,6.9L45.1,6.9L45.1,7.5L44.9,7.5L44.9,7.1L43.9,7.1L43.9,6.6L35.6,6.6L35.6,7.1L11.1,7.1L11.1,8.1L9.6,8.1L9.6,8.6L5.4,8.6L5.4,8.1L4.1,8.1L4.1,8.6L3.6,8.6L3.6,9.1L3,9.1L3,8.9L3.4,8.9L3.4,8.4L3.9,8.4L3.9,7.9L5.6,7.9L5.6,8.4L9.4,8.4L9.4,7.9L10.9,7.9L10.9,6.9z" stroke="none"/><path d="M50.4,4.4L50.4,4.1L49.6,4.1L49.6,6.9L54.1,6.9L54.1,7.9L66.4,7.9L66.4,2.6L47.4,2.6L47.4,2.1L25.1,2.1L25.1,3.1L19.5,3.1L19.5,2.9L24.9,2.9L24.9,1.9L47.6,1.9L47.6,2.4L66.6,2.4L66.6,8.1L53.9,8.1L53.9,7.1L49.4,7.1L49.4,3.9L50.6,3.9L50.6,4.4L55.6,4.4L55.6,4.9L56.1,4.9L56.1,5.9L56.6,5.9L56.6,6.4L57.6,6.4L57.6,6.9L63.4,6.9L63.4,5.9L63.9,5.9L63.9,5.4L65.4,5.4L65.4,2.9L66,2.9L66,3.1L65.6,3.1L65.6,5.6L64.1,5.6L64.1,6.1L63.6,6.1L63.6,7.1L57.4,7.1L57.4,6.6L56.4,6.6L56.4,6.1L55.9,6.1L55.9,5.1L55.4,5.1L55.4,4.6L50.6,4.6L50.6,5.9L51,5.9L51,6.1L50.4,6.1L50.4,4.6L50.1,4.6L50.1,6.4L55.6,6.4L55.6,7.4L66,7.4L66,7.6L55.4,7.6L55.4,6.6L49.9,6.6L49.9,4.4z" stroke="none"/><path d="M74.9,5.9L74.9,5.4L79.6,5.4L79.6,5.9L80.1,5.9L80.1,6.9L81.1,6.9L81.1,7.5L80.9,7.5L80.9,7.1L79.9,7.1L79.9,6.1L79.4,6.1L79.4,5.6L75.1,5.6L75.1,5.9L78.1,5.9L78.1,6.9L78.6,6.9L78.6,7.4L79.5,7.4L79.5,7.6L78.4,7.6L78.4,7.1L77.9,7.1L77.9,6.1L75.1,6.1L75.1,6.6L74.6,6.6L74.6,7.1L70.1,7.1L70.1,7.6L67.6,7.6L67.6,8.1L67.1,8.1L67.1,8.6L52.9,8.6L52.9,8.1L45.6,8.1L45.6,8.6L43.4,8.6L43.4,7.5L43.6,7.5L43.6,8.4L45.4,8.4L45.4,7.9L53.1,7.9L53.1,8.4L66.9,8.4L66.9,7.9L67.4,7.9L67.4,7.4L69.9,7.4L69.9,6.9L74.4,6.9L74.4,6.4L74.9,6.4L74.9,6.1L74.4,6.1L74.4,4.9L84.9,4.9L84.9,4.4L85.9,4.4L85.9,3.9L86.4,3.9L86.4,3.4L90.9,3.4L90.9,2.9L93,2.9L93,3.1L91.1,3.1L91.1,3.6L86.6,3.6L86.6,4.1L86.1,4.1L86.1,4.6L85.1,4.6L85.1,5.1L74.6,5.1L74.6,5.9z" stroke="none"/><path d="M86.9,9.4L86.9,9.1L86.4,9.1L86.4,8.6L85.9,8.6L85.9,8.1L81.6,8.1L81.6,8.6L76.4,8.6L76.4,8.1L69.6,8.1L69.6,8.6L69.1,8.6L69.1,9.1L55.1,9.1L55.1,9.6L53.1,9.6L53.1,10.1L52.6,10.1L52.6,10.5L52.4,10.5L52.4,9.9L52.9,9.9L52.9,9.4L54.9,9.4L54.9,8.9L68.9,8.9L68.9,8.4L69.4,8.4L69.4,7.9L76.6,7.9L76.6,8.4L81.4,8.4L81.4,7.9L86.1,7.9L86.1,8.4L86.6,8.4L86.6,8.9L87.1,8.9L87.1,9.4L90.1,9.4L90.1,9.9L93.9,9.9L93.9,7.9L95.9,7.9L95.9,7.5L96.1,7.5L96.1,8.1L94.1,8.1L94.1,10.1L89.9,10.1L89.9,9.6L87.1,9.6L87.1,9.9L89.6,9.9L89.6,10.4L96.4,10.4L96.4,8.9L97.5,8.9L97.5,9.1L96.6,9.1L96.6,10.6L89.4,10.6L89.4,10.1L86.9,10.1L86.9,9.6L86.6,9.6L86.6,10.4L89.1,10.4L89.1,10.9L100.6,10.9L100.6,12L100.4,12L100.4,11.1L88.9,11.1L88.9,10.6L86.4,10.6L86.4,9.4z" stroke="none"/><path d="M102.1,9L101.9,9L101.9,7.5L102.1,7.5z" stroke="none"/><path d="M7.5,2.9L7.5,3.1L4.5,3.1L4.5,2.9z" stroke="none"/><path d="M88.5,6.1L88.5,5.9L89.1,5.9L89.1,6.4L90.1,6.4L90.1,6.9L90.6,6.9L90.6,7.4L91.5,7.4L91.5,7.6L90.4,7.6L90.4,7.1L89.9,7.1L89.9,6.6L88.9,6.6L88.9,6.1z" stroke="none"/><path d="M87,7.6L87,7.4L89.6,7.4L89.6,7.9L90.6,7.9L90.6,8.9L91.5,8.9L91.5,9.1L90.4,9.1L90.4,8.1L89.4,8.1L89.4,7.6z" stroke="none"/><path d="M78,10.6L78,10.4L78.4,10.4L78.4,9.9L80.4,9.9L80.4,9.4L81.9,9.4L81.9,8.9L85.5,8.9L85.5,9.1L82.1,9.1L82.1,9.6L80.6,9.6L80.6,10.1L78.6,10.1L78.6,10.6z" stroke="none"/><path d="M3,6.1L3,5.9L6.4,5.9L6.4,5.4L8.9,5.4L8.9,4.4L11.4,4.4L11.4,2.9L12,2.9L12,3.1L11.6,3.1L11.6,4.6L9.1,4.6L9.1,5.6L6.6,5.6L6.6,6.1z" stroke="none"/><path d="M10.5,6.1L10.5,5.9L21,5.9L21,6.1z" stroke="none"/><path d="M93,9.1L93,8.9L93.4,8.9L93.4,7.4L94.9,7.4L94.9,6.9L95.4,6.9L95.4,6.4L97.1,6.4L97.1,7.9L99.6,7.9L99.6,8.9L100.1,8.9L100.1,9.4L101.1,9.4L101.1,9.9L101.6,9.9L101.6,12.6L101.1,12.6L101.1,13.1L82.9,13.1L82.9,12.6L82.4,12.6L82.4,12L82.6,12L82.6,12.4L83.1,12.4L83.1,12.9L100.9,12.9L100.9,12.4L101.4,12.4L101.4,10.1L100.9,10.1L100.9,9.6L99.9,9.6L99.9,9.1L99.4,9.1L99.4,8.1L96.9,8.1L96.9,6.6L95.6,6.6L95.6,7.1L95.1,7.1L95.1,7.6L93.6,7.6L93.6,9.1z" stroke="none"/><path d="M31.6,9L31.4,9L31.4,8.6L30.9,8.6L30.9,8.1L19.1,8.1L19.1,8.6L18.1,8.6L18.1,9L17.9,9L17.9,8.4L18.9,8.4L18.9,7.9L31.1,7.9L31.1,8.4L31.6,8.4z" stroke="none"/><path d="M57,10.6L57,10.4L70.5,10.4L70.5,10.6z" stroke="none"/><path d="M36,7.4L36,7.6L35.1,7.6L35.1,8.1L34.1,8.1L34.1,8.6L33.6,8.6L33.6,9.1L32.6,9.1L32.6,10.1L24.6,10.1L24.6,10.6L22.5,10.6L22.5,10.4L24.4,10.4L24.4,9.9L32.4,9.9L32.4,8.9L33.4,8.9L33.4,8.4L33.9,8.4L33.9,7.9L34.9,7.9L34.9,7.4z" stroke="none"/><path d="M30,8.9L30,9.1L21.1,9.1L21.1,10.6L17.1,10.6L17.1,11.6L15.1,11.6L15.1,12L14.9,12L14.9,11.4L16.9,11.4L16.9,10.4L20.9,10.4L20.9,8.9z" stroke="none"/><path d="M27,11.9L27,12.1L16.6,12.1L16.6,13.1L13.9,13.1L13.9,12.6L13.4,12.6L13.4,12.1L12.4,12.1L12.4,9.6L10.9,9.6L10.9,9.1L10.5,9.1L10.5,8.9L11.1,8.9L11.1,9.4L12.6,9.4L12.6,11.9L13.6,11.9L13.6,12.4L14.1,12.4L14.1,12.9L16.4,12.9L16.4,11.9z" stroke="none"/><path d="M87,4.6L87,4.4L93.4,4.4L93.4,3.9L93.9,3.9L93.9,2.1L73.1,2.1L73.1,2.6L71.6,2.6L71.6,3.1L70.1,3.1L70.1,3.6L69.1,3.6L69.1,4.5L68.9,4.5L68.9,3.4L69.9,3.4L69.9,2.9L71.4,2.9L71.4,2.4L72.9,2.4L72.9,1.9L94.1,1.9L94.1,4.1L93.6,4.1L93.6,4.6z" stroke="none"/><path d="M76.5,2.9L76.5,3.1L73.6,3.1L73.6,3.6L70.6,3.6L70.6,4.1L70.1,4.1L70.1,5.1L69.6,5.1L69.6,5.6L67.9,5.6L67.9,3.4L68.4,3.4L68.4,2.9L68.9,2.9L68.9,2.4L70.9,2.4L70.9,1.9L71.4,1.9L71.4,1.4L94.6,1.4L94.6,4.5L94.4,4.5L94.4,1.6L71.6,1.6L71.6,2.1L71.1,2.1L71.1,2.6L69.1,2.6L69.1,3.1L68.6,3.1L68.6,3.6L68.1,3.6L68.1,5.4L69.4,5.4L69.4,4.9L69.9,4.9L69.9,3.9L70.4,3.9L70.4,3.4L73.4,3.4L73.4,2.9z" stroke="none"/><path d="M61.5,12.1L61.5,11.9L80.4,11.9L80.4,10.9L80.9,10.9L80.9,10.5L81.1,10.5L81.1,11.1L80.6,11.1L80.6,12.1z" stroke="none"/><path d="M73.5,8.9L73.5,9.1L72.6,9.1L72.6,9.6L56.1,9.6L56.1,10.1L54.6,10.1L54.6,11.1L53.1,11.1L53.1,11.6L51.4,11.6L51.4,9.4L52.4,9.4L52.4,9L52.6,9L52.6,9.6L51.6,9.6L51.6,11.4L52.9,11.4L52.9,10.9L54.4,10.9L54.4,9.9L55.9,9.9L55.9,9.4L72.4,9.4L72.4,8.9z" stroke="none"/><path d="M6,10.6L6,10.4L8.6,10.4L8.6,10.9L9.1,10.9L9.1,11.4L11.1,11.4L11.1,11.9L12.1,11.9L12.1,12.4L13.1,12.4L13.1,12.9L13.6,12.9L13.6,13.4L27.4,13.4L27.4,12.4L28.4,12.4L28.4,12L28.6,12L28.6,12.6L27.6,12.6L27.6,13.6L13.4,13.6L13.4,13.1L12.9,13.1L12.9,12.6L11.9,12.6L11.9,12.1L10.9,12.1L10.9,11.6L8.9,11.6L8.9,11.1L8.4,11.1L8.4,10.6z" stroke="none"/><path d="M72,10.4L72,10.6L71.6,10.6L71.6,11.6L61.9,11.6L61.9,11.1L57.6,11.1L57.6,11.6L53.6,11.6L53.6,12.1L48,12.1L48,11.9L53.4,11.9L53.4,11.4L57.4,11.4L57.4,10.9L62.1,10.9L62.1,11.4L71.4,11.4L71.4,10.4z" stroke="none"/><path d="M100.5,4.4L100.5,4.6L97.9,4.6L97.9,4.1L97.4,4.1L97.4,3.1L96.9,3.1L96.9,2.1L96.4,2.1L96.4,1.6L94.9,1.6L94.9,1.1L70.6,1.1L70.6,1.6L69.6,1.6L69.6,2.1L67.6,2.1L67.6,5.9L73.5,5.9L73.5,6.1L67.4,6.1L67.4,1.9L69.4,1.9L69.4,1.4L70.4,1.4L70.4,0.9L95.1,0.9L95.1,1.4L96.6,1.4L96.6,1.9L97.1,1.9L97.1,2.9L97.6,2.9L97.6,3.9L98.1,3.9L98.1,4.4z" stroke="none"/><path d="M34.5,10.4L34.5,10.6L31.1,10.6L31.1,11.1L30.6,11.1L30.6,12.1L29.6,12.1L29.6,13.1L28.1,13.1L28.1,14.1L5.4,14.1L5.4,12.1L4.9,12.1L4.9,11.6L4.4,11.6L4.4,10.5L4.6,10.5L4.6,11.4L5.1,11.4L5.1,11.9L5.6,11.9L5.6,13.9L27.9,13.9L27.9,12.9L29.4,12.9L29.4,11.9L30.4,11.9L30.4,10.9L30.9,10.9L30.9,10.4z" stroke="none"/><path d="M84,11.9L84,12.1L83.4,12.1L83.4,11.1L82.1,11.1L82.1,11.6L81.6,11.6L81.6,12.1L81.1,12.1L81.1,12.6L62.6,12.6L62.6,13.1L46.9,13.1L46.9,9.4L47.4,9.4L47.4,8.9L48,8.9L48,9.1L47.6,9.1L47.6,9.6L47.1,9.6L47.1,12.9L62.4,12.9L62.4,12.4L80.9,12.4L80.9,11.9L81.4,11.9L81.4,11.4L81.9,11.4L81.9,10.9L83.6,10.9L83.6,11.9z" stroke="none"/><path d="M45,10.4L45,10.6L44.6,10.6L44.6,11.1L44.1,11.1L44.1,11.6L31.1,11.6L31.1,12.6L30.6,12.6L30.6,13.1L30.1,13.1L30.1,13.6L29.1,13.6L29.1,14.1L28.6,14.1L28.6,14.6L4.9,14.6L4.9,14.1L4.4,14.1L4.4,12.1L3.9,12.1L3.9,11.1L3.4,11.1L3.4,9.9L3.9,9.9L3.9,9.4L4.4,9.4L4.4,9L4.6,9L4.6,9.6L4.1,9.6L4.1,10.1L3.6,10.1L3.6,10.9L4.1,10.9L4.1,11.9L4.6,11.9L4.6,13.9L5.1,13.9L5.1,14.4L28.4,14.4L28.4,13.9L28.9,13.9L28.9,13.4L29.9,13.4L29.9,12.9L30.4,12.9L30.4,12.4L30.9,12.4L30.9,11.4L43.9,11.4L43.9,10.9L44.4,10.9L44.4,10.4z" stroke="none"/><path d="M43.5,10.6L43.5,10.4L43.9,10.4L43.9,9.4L45.6,9.4L45.6,9.9L46.1,9.9L46.1,11.9L46.6,11.9L46.6,13.4L101.4,13.4L101.4,12.9L101.9,12.9L101.9,11.9L102.4,11.9L102.4,11.4L102.9,11.4L102.9,7.1L102.4,7.1L102.4,6.6L97.4,6.6L97.4,6.1L89.9,6.1L89.9,5.6L88.9,5.6L88.9,5.1L88.1,5.1L88.1,5.6L85.6,5.6L85.6,6L85.4,6L85.4,5.4L87.9,5.4L87.9,4.9L89.1,4.9L89.1,5.4L90.1,5.4L90.1,5.9L97.6,5.9L97.6,6.4L102.6,6.4L102.6,6.9L103.1,6.9L103.1,11.6L102.6,11.6L102.6,12.1L102.1,12.1L102.1,13.1L101.6,13.1L101.6,13.6L46.4,13.6L46.4,12.1L45.9,12.1L45.9,10.1L45.4,10.1L45.4,9.6L44.1,9.6L44.1,10.6z" stroke="none"/></svg>