<svg version="1.1" width="105" height="15" xmlns="http://www.w3.org/2000/svg"><path d="M59.4,8.4L59.4,7.9L77.9,7.9L77.9,7.5L78.1,7.5L78.1,8.1L59.6,8.1L59.6,8.4L62.1,8.4L62.1,8.9L62.6,8.9L62.6,9.4L63.1,9.4L63.1,10.5L62.9,10.5L62.9,9.6L62.4,9.6L62.4,9.1L61.9,9.1L61.9,8.6L46.9,8.6L46.9,8.1L38.9,8.1L38.9,7.6L37.5,7.6L37.5,7.4L39.1,7.4L39.1,7.9L47.1,7.9L47.1,8.4z" stroke="none"/><path d="M92.6,10.9L92.6,11.4L94.9,11.4L94.9,10.9L96.6,10.9L96.6,11.4L97.1,11.4L97.1,11.9L97.5,11.9L97.5,12.1L96.9,12.1L96.9,11.6L96.4,11.6L96.4,11.1L95.1,11.1L95.1,11.6L92.4,11.6L92.4,11.1L81.1,11.1L81.1,11.6L70.6,11.6L70.6,12L70.4,12L70.4,11.4L80.9,11.4L80.9,11.1L79.4,11.1L79.4,10.1L78.9,10.1L78.9,9.1L75,9.1L75,8.9L79.1,8.9L79.1,9.9L79.6,9.9L79.6,10.9z" stroke="none"/><path d="M18.9,7.4L18.9,7.1L6.4,7.1L6.4,6.6L5.1,6.6L5.1,7.1L3.1,7.1L3.1,7.5L2.9,7.5L2.9,6.9L4.9,6.9L4.9,6.4L6.6,6.4L6.6,6.9L19.1,6.9L19.1,7.4L19.9,7.4L19.9,6.4L28.1,6.4L28.1,6.9L36.9,6.9L36.9,6.4L46.4,6.4L46.4,6L46.6,6L46.6,6.6L37.1,6.6L37.1,7.1L27.9,7.1L27.9,6.6L20.1,6.6L20.1,7.6L10.1,7.6L10.1,8.1L9.6,8.1L9.6,9.1L7.5,9.1L7.5,8.9L9.4,8.9L9.4,7.9L9.9,7.9L9.9,7.4z" stroke="none"/><path d="M40.4,9.9L40.4,9.6L37.6,9.6L37.6,10.1L35.6,10.1L35.6,10.6L34.5,10.6L34.5,10.4L35.4,10.4L35.4,9.9L37.4,9.9L37.4,9.4L40.6,9.4L40.6,9.9L48.9,9.9L48.9,9.4L59.1,9.4L59.1,9.9L60.1,9.9L60.1,10.4L60.6,10.4L60.6,10.9L62.6,10.9L62.6,11.4L63.9,11.4L63.9,8.9L64.5,8.9L64.5,9.1L64.1,9.1L64.1,11.6L62.4,11.6L62.4,11.1L60.4,11.1L60.4,10.6L59.9,10.6L59.9,10.1L58.9,10.1L58.9,9.6L49.1,9.6L49.1,10.1L40.6,10.1L40.6,10.6L39.6,10.6L39.6,11.1L29.9,11.1L29.9,10.6L25.5,10.6L25.5,10.4L30.1,10.4L30.1,10.9L39.4,10.9L39.4,10.4L40.4,10.4L40.4,10.1L39.1,10.1L39.1,10.5L38.9,10.5L38.9,9.9z" stroke="none"/><path d="M34.9,2.9L34.9,2.4L44.4,2.4L44.4,1.9L52.1,1.9L52.1,2.4L52.6,2.4L52.6,2.9L53.1,2.9L53.1,3.4L53.6,3.4L53.6,3.9L56.4,3.9L56.4,3.4L56.9,3.4L56.9,3L57.1,3L57.1,3.6L56.6,3.6L56.6,4.1L53.4,4.1L53.4,3.6L52.9,3.6L52.9,3.1L52.4,3.1L52.4,2.6L51.9,2.6L51.9,2.1L44.6,2.1L44.6,2.6L35.1,2.6L35.1,2.9L43.5,2.9L43.5,3.1L35.1,3.1L35.1,3.6L19.4,3.6L19.4,3L19.6,3L19.6,3.4L34.9,3.4L34.9,3.1L21,3.1L21,2.9z" stroke="none"/><path d="M69.4,3.4L69.4,3.1L57.9,3.1L57.9,2.1L54.6,2.1L54.6,3.1L54,3.1L54,2.9L54.4,2.9L54.4,1.9L58.1,1.9L58.1,2.9L69.6,2.9L69.6,3.4L73.1,3.4L73.1,3.9L77.1,3.9L77.1,4.4L78,4.4L78,4.6L76.9,4.6L76.9,4.1L72.9,4.1L72.9,3.6L69.6,3.6L69.6,3.9L72.1,3.9L72.1,4.4L76.6,4.4L76.6,4.9L79.1,4.9L79.1,5.4L89.4,5.4L89.4,3.9L89.9,3.9L89.9,3L90.1,3L90.1,4.1L89.6,4.1L89.6,5.6L78.9,5.6L78.9,5.1L76.4,5.1L76.4,4.6L71.9,4.6L71.9,4.1L69.4,4.1L69.4,3.6L60.6,3.6L60.6,4.1L59.1,4.1L59.1,4.6L57,4.6L57,4.4L58.9,4.4L58.9,3.9L60.4,3.9L60.4,3.4z" stroke="none"/><path d="M49.6,12L49.4,12L49.4,10.5L49.6,10.5z" stroke="none"/><path d="M24.1,12L23.9,12L23.9,11.6L23.4,11.6L23.4,11.1L22.9,11.1L22.9,9.9L23.4,9.9L23.4,9.4L25.4,9.4L25.4,9L25.6,9L25.6,9.6L23.6,9.6L23.6,10.1L23.1,10.1L23.1,10.9L23.6,10.9L23.6,11.4L24.1,11.4z" stroke="none"/><path d="M102,2.9L102,3.1L101.6,3.1L101.6,5.1L100.6,5.1L100.6,6.1L99,6.1L99,5.9L100.4,5.9L100.4,4.9L101.4,4.9L101.4,2.9z" stroke="none"/><path d="M79.5,3.1L79.5,2.9L84,2.9L84,3.1z" stroke="none"/><path d="M4.5,5.9L4.5,6.1L4.1,6.1L4.1,6.6L2.6,6.6L2.6,7.1L2.1,7.1L2.1,9.4L2.6,9.4L2.6,10.4L3,10.4L3,10.6L2.4,10.6L2.4,9.6L1.9,9.6L1.9,6.9L2.4,6.9L2.4,6.4L3.9,6.4L3.9,5.9z" stroke="none"/><path d="M79.5,4.4L79.5,4.6L78.9,4.6L78.9,4.1L78.4,4.1L78.4,3.6L73.4,3.6L73.4,3L73.6,3L73.6,3.4L78.6,3.4L78.6,3.9L79.1,3.9L79.1,4.4z" stroke="none"/><path d="M57,7.4L57,7.6L49.5,7.6L49.5,7.4z" stroke="none"/><path d="M51,10.6L51,10.4L58.6,10.4L58.6,12L58.4,12L58.4,10.6z" stroke="none"/><path d="M96,11.9L96,12.1L87,12.1L87,11.9z" stroke="none"/><path d="M45,2.9L45,3.1L44.6,3.1L44.6,4.1L32.1,4.1L32.1,4.6L31.5,4.6L31.5,4.4L31.9,4.4L31.9,3.9L44.4,3.9L44.4,2.9z" stroke="none"/><path d="M21,8.9L21,9.1L14.1,9.1L14.1,9.6L9.6,9.6L9.6,10.1L8.1,10.1L8.1,10.6L6,10.6L6,10.4L7.9,10.4L7.9,9.9L9.4,9.9L9.4,9.4L13.9,9.4L13.9,8.9z" stroke="none"/><path d="M82.5,12.1L82.5,11.9L85.6,11.9L85.6,12.4L86.6,12.4L86.6,12.9L97.9,12.9L97.9,12.4L98.4,12.4L98.4,10.9L98.9,10.9L98.9,10.5L99.1,10.5L99.1,11.1L98.6,11.1L98.6,12.6L98.1,12.6L98.1,13.1L86.4,13.1L86.4,12.6L85.4,12.6L85.4,12.1z" stroke="none"/><path d="M4.5,12.1L4.5,11.9L7.9,11.9L7.9,11.4L8.4,11.4L8.4,10.9L18.4,10.9L18.4,10.4L18.9,10.4L18.9,9.9L21.4,9.9L21.4,9.4L21.9,9.4L21.9,8.6L21.4,8.6L21.4,7.6L21,7.6L21,7.4L21.6,7.4L21.6,8.4L22.1,8.4L22.1,9.6L21.6,9.6L21.6,10.1L19.1,10.1L19.1,10.6L18.6,10.6L18.6,11.1L8.6,11.1L8.6,11.6L8.1,11.6L8.1,12.1z" stroke="none"/><path d="M6,7.4L6,7.6L5.6,7.6L5.6,8.1L5.1,8.1L5.1,8.6L4.6,8.6L4.6,10.6L4.1,10.6L4.1,11.1L3.6,11.1L3.6,12.4L4.1,12.4L4.1,12.9L24.4,12.9L24.4,12.4L24.9,12.4L24.9,11.1L24.4,11.1L24.4,10.6L24,10.6L24,10.4L24.6,10.4L24.6,10.9L25.1,10.9L25.1,12.6L24.6,12.6L24.6,13.1L3.9,13.1L3.9,12.6L3.4,12.6L3.4,10.9L3.9,10.9L3.9,10.4L4.4,10.4L4.4,8.4L4.9,8.4L4.9,7.9L5.4,7.9L5.4,7.4z" stroke="none"/><path d="M10.5,3.1L10.5,2.9L18.1,2.9L18.1,3.4L19.1,3.4L19.1,3.9L20.6,3.9L20.6,4.4L30,4.4L30,4.6L20.4,4.6L20.4,4.1L18.9,4.1L18.9,3.6L17.9,3.6L17.9,3.1z" stroke="none"/><path d="M94.5,9.1L94.5,8.9L97.6,8.9L97.6,9.4L99.6,9.4L99.6,9.9L100.1,9.9L100.1,12.6L99.6,12.6L99.6,13.1L99.1,13.1L99.1,13.6L70.4,13.6L70.4,13.1L69.4,13.1L69.4,9.9L69.9,9.9L69.9,8.9L70.5,8.9L70.5,9.1L70.1,9.1L70.1,10.1L69.6,10.1L69.6,12.9L70.6,12.9L70.6,13.4L98.9,13.4L98.9,12.9L99.4,12.9L99.4,12.4L99.9,12.4L99.9,10.1L99.4,10.1L99.4,9.6L97.4,9.6L97.4,9.1z" stroke="none"/><path d="M87,3.1L87,2.9L88.9,2.9L88.9,2.4L89.4,2.4L89.4,1.9L91.1,1.9L91.1,4.6L90.6,4.6L90.6,5.1L90.1,5.1L90.1,6.1L75.9,6.1L75.9,5.6L69.4,5.6L69.4,5.1L63.4,5.1L63.4,4.6L63,4.6L63,4.4L63.6,4.4L63.6,4.9L69.6,4.9L69.6,5.4L76.1,5.4L76.1,5.9L89.9,5.9L89.9,4.9L90.4,4.9L90.4,4.4L90.9,4.4L90.9,2.1L89.6,2.1L89.6,2.6L89.1,2.6L89.1,3.1z" stroke="none"/><path d="M93.1,10.5L92.9,10.5L92.9,7.9L95.6,7.9L95.6,8.4L100.6,8.4L100.6,13.1L100.1,13.1L100.1,13.6L99.6,13.6L99.6,14.1L68.9,14.1L68.9,13.1L67.4,13.1L67.4,12.6L66.4,12.6L66.4,11.6L65.9,11.6L65.9,10.5L66.1,10.5L66.1,11.4L66.6,11.4L66.6,12.4L67.6,12.4L67.6,12.9L69.1,12.9L69.1,13.9L99.4,13.9L99.4,13.4L99.9,13.4L99.9,12.9L100.4,12.9L100.4,8.6L95.4,8.6L95.4,8.1L93.1,8.1z" stroke="none"/><path d="M60,12.1L60,11.9L65.6,11.9L65.6,12.4L66.1,12.4L66.1,12.9L66.6,12.9L66.6,13.4L67.6,13.4L67.6,13.9L68.1,13.9L68.1,14.4L100.4,14.4L100.4,13.4L100.9,13.4L100.9,8.1L97.9,8.1L97.9,7.6L96,7.6L96,7.4L98.1,7.4L98.1,7.9L101.1,7.9L101.1,13.6L100.6,13.6L100.6,14.6L67.9,14.6L67.9,14.1L67.4,14.1L67.4,13.6L66.4,13.6L66.4,13.1L65.9,13.1L65.9,12.6L65.4,12.6L65.4,12.1z" stroke="none"/><path d="M9,12.1L9,11.9L21.4,11.9L21.4,11.4L21.9,11.4L21.9,10.9L22.4,10.9L22.4,9.4L22.9,9.4L22.9,8.9L24.4,8.9L24.4,8.4L24.9,8.4L24.9,7.9L37.1,7.9L37.1,8.4L46.6,8.4L46.6,9L46.4,9L46.4,8.6L36.9,8.6L36.9,8.1L25.1,8.1L25.1,8.6L24.6,8.6L24.6,9.1L23.1,9.1L23.1,9.6L22.6,9.6L22.6,11.1L22.1,11.1L22.1,11.6L21.6,11.6L21.6,12.1z" stroke="none"/><path d="M28.5,6.1L28.5,5.9L45.4,5.9L45.4,5.4L45.9,5.4L45.9,4.9L49.6,4.9L49.6,5.4L68.6,5.4L68.6,5.9L69,5.9L69,6.1L68.4,6.1L68.4,5.6L49.4,5.6L49.4,5.1L46.1,5.1L46.1,5.6L45.6,5.6L45.6,6.1z" stroke="none"/><path d="M48,6.1L48,5.9L60.6,5.9L60.6,6.4L62.6,6.4L62.6,6.9L77.4,6.9L77.4,6.4L93.9,6.4L93.9,4.9L94.4,4.9L94.4,4.4L96,4.4L96,4.6L94.6,4.6L94.6,5.1L94.1,5.1L94.1,6.6L77.6,6.6L77.6,7.1L62.4,7.1L62.4,6.6L60.4,6.6L60.4,6.1z" stroke="none"/><path d="M3,3.1L3,2.9L9.6,2.9L9.6,3.4L10.1,3.4L10.1,3.9L15.6,3.9L15.6,4.4L20.1,4.4L20.1,4.9L29.6,4.9L29.6,5.4L42.4,5.4L42.4,4.4L52.5,4.4L52.5,4.6L42.6,4.6L42.6,5.6L29.4,5.6L29.4,5.1L19.9,5.1L19.9,4.6L15.4,4.6L15.4,4.1L9.9,4.1L9.9,3.6L9.4,3.6L9.4,3.1z" stroke="none"/><path d="M42,11.9L42,12.1L26.1,12.1L26.1,13.1L25.6,13.1L25.6,13.6L2.9,13.6L2.9,11.6L2.4,11.6L2.4,11.1L1.4,11.1L1.4,2.9L1.9,2.9L1.9,2.4L2.4,2.4L2.4,1.9L41.9,1.9L41.9,1.4L91.6,1.4L91.6,2.9L93.6,2.9L93.6,3.4L96.6,3.4L96.6,3.9L97.1,3.9L97.1,5.1L96.6,5.1L96.6,6.1L95.6,6.1L95.6,7.1L95.1,7.1L95.1,7.6L92.6,7.6L92.6,8.6L91.6,8.6L91.6,9L91.4,9L91.4,8.4L92.4,8.4L92.4,7.4L94.9,7.4L94.9,6.9L95.4,6.9L95.4,5.9L96.4,5.9L96.4,4.9L96.9,4.9L96.9,4.1L96.4,4.1L96.4,3.6L93.4,3.6L93.4,3.1L91.4,3.1L91.4,1.6L42.1,1.6L42.1,2.1L2.6,2.1L2.6,2.6L2.1,2.6L2.1,3.1L1.6,3.1L1.6,10.9L2.6,10.9L2.6,11.4L3.1,11.4L3.1,13.4L25.4,13.4L25.4,12.9L25.9,12.9L25.9,11.9z" stroke="none"/></svg>