<svg version="1.1" width="105" height="15" xmlns="http://www.w3.org/2000/svg"><path d="M70.9,7.9L70.9,7.4L71.4,7.4L71.4,6.9L73.4,6.9L73.4,6L73.6,6L73.6,7.1L71.6,7.1L71.6,7.6L71.1,7.6L71.1,8.1L66.1,8.1L66.1,9.1L65.6,9.1L65.6,9.6L65.1,9.6L65.1,10.6L64.5,10.6L64.5,10.4L64.9,10.4L64.9,9.4L65.4,9.4L65.4,8.9L65.9,8.9L65.9,8.1L59.9,8.1L59.9,7.5L60.1,7.5L60.1,7.9z" stroke="none"/><path d="M32.4,3.9L32.4,3.6L28.4,3.6L28.4,3.1L27.9,3.1L27.9,2.6L19.1,2.6L19.1,3.1L18,3.1L18,2.9L18.9,2.9L18.9,2.4L28.1,2.4L28.1,2.9L28.6,2.9L28.6,3.4L32.6,3.4L32.6,3.9L46.1,3.9L46.1,4.4L46.6,4.4L46.6,4.9L47.1,4.9L47.1,5.4L49.6,5.4L49.6,5.9L52.5,5.9L52.5,6.1L49.4,6.1L49.4,5.6L46.9,5.6L46.9,5.1L46.4,5.1L46.4,4.6L45.9,4.6L45.9,4.1L27.4,4.1L27.4,3.1L27,3.1L27,2.9L27.6,2.9L27.6,3.9z" stroke="none"/><path d="M82.4,11.4L82.4,10.4L84,10.4L84,10.6L82.6,10.6L82.6,11.6L74.1,11.6L74.1,11.9L84.9,11.9L84.9,11.4L86.4,11.4L86.4,10.9L87.6,10.9L87.6,11.4L90.1,11.4L90.1,11.9L91.5,11.9L91.5,12.1L89.9,12.1L89.9,11.6L87.4,11.6L87.4,11.1L86.6,11.1L86.6,11.6L85.1,11.6L85.1,12.1L73.9,12.1L73.9,11.6L66.1,11.6L66.1,12.1L64.6,12.1L64.6,12.6L63.6,12.6L63.6,13.1L48.4,13.1L48.4,12.6L46.4,12.6L46.4,12L46.6,12L46.6,12.4L48.6,12.4L48.6,12.9L63.4,12.9L63.4,12.4L64.4,12.4L64.4,11.9L65.9,11.9L65.9,11.4z" stroke="none"/><path d="M41.9,7.4L41.9,7.1L27.4,7.1L27.4,6.1L26.4,6.1L26.4,5.6L25.9,5.6L25.9,5.1L24.6,5.1L24.6,7.9L25.1,7.9L25.1,8.4L25.6,8.4L25.6,10.5L25.4,10.5L25.4,8.6L24.9,8.6L24.9,8.1L24.4,8.1L24.4,4.9L26.1,4.9L26.1,5.4L26.6,5.4L26.6,5.9L27.6,5.9L27.6,6.9L42.1,6.9L42.1,7.4L58.9,7.4L58.9,6.9L59.4,6.9L59.4,6.4L71.4,6.4L71.4,5.9L72,5.9L72,6.1L71.6,6.1L71.6,6.6L59.6,6.6L59.6,7.1L59.1,7.1L59.1,7.6L42.1,7.6L42.1,9L41.9,9L41.9,7.6L30,7.6L30,7.4z" stroke="none"/><path d="M72.9,7.9L72.9,7.4L74.4,7.4L74.4,5.6L73.9,5.6L73.9,5.1L64.6,5.1L64.6,5.6L53.6,5.6L53.6,7.1L49.4,7.1L49.4,6.6L48.9,6.6L48.9,6.1L46.5,6.1L46.5,5.9L49.1,5.9L49.1,6.4L49.6,6.4L49.6,6.9L53.4,6.9L53.4,5.4L64.4,5.4L64.4,4.9L74.1,4.9L74.1,5.4L74.6,5.4L74.6,7.6L73.1,7.6L73.1,7.9L78.6,7.9L78.6,8.4L83.1,8.4L83.1,8.9L84,8.9L84,9.1L82.9,9.1L82.9,8.6L78.4,8.6L78.4,8.1L73.1,8.1L73.1,8.4L78.1,8.4L78.1,8.9L82.6,8.9L82.6,9.4L91.4,9.4L91.4,9L91.6,9L91.6,9.6L82.4,9.6L82.4,9.1L77.9,9.1L77.9,8.6L72.9,8.6L72.9,8.1L72.1,8.1L72.1,8.6L71.1,8.6L71.1,9.1L70.5,9.1L70.5,8.9L70.9,8.9L70.9,8.4L71.9,8.4L71.9,7.9z" stroke="none"/><path d="M35.9,8.9L35.9,8.4L40.6,8.4L40.6,8.9L41.1,8.9L41.1,9.4L41.6,9.4L41.6,9.9L45.9,9.9L45.9,9.4L55.6,9.4L55.6,9.9L56.1,9.9L56.1,10.4L57,10.4L57,10.6L55.9,10.6L55.9,10.1L55.4,10.1L55.4,9.6L46.1,9.6L46.1,10.1L41.4,10.1L41.4,9.6L40.9,9.6L40.9,9.1L40.4,9.1L40.4,8.6L36.1,8.6L36.1,8.9L40.1,8.9L40.1,10.4L45,10.4L45,10.6L39.9,10.6L39.9,9.1L36.1,9.1L36.1,9.6L27.6,9.6L27.6,10.6L27.1,10.6L27.1,11.1L26.1,11.1L26.1,11.6L22.9,11.6L22.9,10.6L21.4,10.6L21.4,9.6L17.4,9.6L17.4,9.1L16.5,9.1L16.5,8.9L17.6,8.9L17.6,9.4L21.6,9.4L21.6,10.4L23.1,10.4L23.1,11.4L25.9,11.4L25.9,10.9L26.9,10.9L26.9,10.4L27.4,10.4L27.4,9.4L35.9,9.4L35.9,9.1L25.9,9.1L25.9,6.6L25.4,6.6L25.4,6L25.6,6L25.6,6.4L26.1,6.4L26.1,8.9z" stroke="none"/><path d="M87,2.9L87,3.1L85.5,3.1L85.5,2.9z" stroke="none"/><path d="M67.5,10.4L67.5,10.6L66,10.6L66,10.4z" stroke="none"/><path d="M4.5,8.9L4.5,9.1L3.9,9.1L3.9,8.1L2.9,8.1L2.9,7.5L3.1,7.5L3.1,7.9L4.1,7.9L4.1,8.9z" stroke="none"/><path d="M94.4,7.5L94.6,7.5L94.6,9.9L96.1,9.9L96.1,10.5L95.9,10.5L95.9,10.1L94.4,10.1z" stroke="none"/><path d="M13.5,7.4L13.5,7.6L13.1,7.6L13.1,9.6L12.6,9.6L12.6,10.1L11.1,10.1L11.1,10.6L10.5,10.6L10.5,10.4L10.9,10.4L10.9,9.9L12.4,9.9L12.4,9.4L12.9,9.4L12.9,7.4z" stroke="none"/><path d="M63,11.9L63,12.1L57,12.1L57,11.9z" stroke="none"/><path d="M39,11.9L39,12.1L37.9,12.1L37.9,11.6L36.4,11.6L36.4,10.6L33,10.6L33,10.4L36.6,10.4L36.6,11.4L38.1,11.4L38.1,11.9z" stroke="none"/><path d="M6,6.1L6,5.9L11.4,5.9L11.4,4.9L11.9,4.9L11.9,4.5L12.1,4.5L12.1,5.1L11.6,5.1L11.6,6.1z" stroke="none"/><path d="M96,4.6L96,4.4L99.9,4.4L99.9,2.9L102,2.9L102,3.1L100.1,3.1L100.1,4.6z" stroke="none"/><path d="M83.9,3L84.1,3L84.1,7.1L80.1,7.1L80.1,7.6L79.5,7.6L79.5,7.4L79.9,7.4L79.9,6.9L83.9,6.9z" stroke="none"/><path d="M3,3.1L3,2.9L8.6,2.9L8.6,3.9L9.6,3.9L9.6,4.4L10.5,4.4L10.5,4.6L9.4,4.6L9.4,4.1L8.4,4.1L8.4,3.1z" stroke="none"/><path d="M63,4.6L63,4.4L70.4,4.4L70.4,3.9L70.9,3.9L70.9,3.4L72.9,3.4L72.9,2.9L73.5,2.9L73.5,3.1L73.1,3.1L73.1,3.6L71.1,3.6L71.1,4.1L70.6,4.1L70.6,4.6z" stroke="none"/><path d="M88.5,10.6L88.5,10.4L94.6,10.4L94.6,10.9L95.6,10.9L95.6,11.4L96.9,11.4L96.9,9.4L97.9,9.4L97.9,8.9L99,8.9L99,9.1L98.1,9.1L98.1,9.6L97.1,9.6L97.1,11.6L95.4,11.6L95.4,11.1L94.4,11.1L94.4,10.6z" stroke="none"/><path d="M87,4.6L87,4.4L89.6,4.4L89.6,4.9L95.1,4.9L95.1,5.4L95.6,5.4L95.6,5.9L96.6,5.9L96.6,6.4L97.1,6.4L97.1,6.9L97.6,6.9L97.6,7.5L97.4,7.5L97.4,7.1L96.9,7.1L96.9,6.6L96.4,6.6L96.4,6.1L95.4,6.1L95.4,5.6L94.9,5.6L94.9,5.1L89.4,5.1L89.4,4.6z" stroke="none"/><path d="M82.5,5.9L82.5,6.1L79.4,6.1L79.4,5.6L76.9,5.6L76.9,4.1L76.4,4.1L76.4,3.6L74.4,3.6L74.4,2.6L73.9,2.6L73.9,2.1L72.6,2.1L72.6,2.6L71.1,2.6L71.1,3.1L70.5,3.1L70.5,2.9L70.9,2.9L70.9,2.4L72.4,2.4L72.4,1.9L74.1,1.9L74.1,2.4L74.6,2.4L74.6,3.4L76.6,3.4L76.6,3.9L77.1,3.9L77.1,5.4L79.6,5.4L79.6,5.9z" stroke="none"/><path d="M87,12.1L87,11.9L89.1,11.9L89.1,12.4L91.1,12.4L91.1,12.9L94.9,12.9L94.9,12.4L95.4,12.4L95.4,11.9L100.5,11.9L100.5,12.1L95.6,12.1L95.6,12.6L95.1,12.6L95.1,13.1L90.9,13.1L90.9,12.6L88.9,12.6L88.9,12.1z" stroke="none"/><path d="M9,12.1L9,11.9L22.5,11.9L22.5,12.1z" stroke="none"/><path d="M10.4,9L10.6,9L10.6,9.6L10.1,9.6L10.1,10.1L9.6,10.1L9.6,11.1L8.1,11.1L8.1,12.4L8.6,12.4L8.6,12.9L24.4,12.9L24.4,12.4L26.9,12.4L26.9,12L27.1,12L27.1,12.6L24.6,12.6L24.6,13.1L8.4,13.1L8.4,12.6L7.9,12.6L7.9,10.9L9.4,10.9L9.4,9.9L9.9,9.9L9.9,9.4L10.4,9.4z" stroke="none"/><path d="M28.6,6L28.4,6L28.4,4.6L18.4,4.6L18.4,4.1L17.4,4.1L17.4,3.6L16.9,3.6L16.9,2.4L17.4,2.4L17.4,1.9L47.1,1.9L47.1,2.4L47.6,2.4L47.6,2.9L48.1,2.9L48.1,3.9L49.1,3.9L49.1,4.4L49.5,4.4L49.5,4.6L48.9,4.6L48.9,4.1L47.9,4.1L47.9,3.1L47.4,3.1L47.4,2.6L46.9,2.6L46.9,2.1L17.6,2.1L17.6,2.6L17.1,2.6L17.1,3.4L17.6,3.4L17.6,3.9L18.6,3.9L18.6,4.4L28.6,4.4z" stroke="none"/><path d="M28.4,10.5L28.6,10.5L28.6,13.1L25.1,13.1L25.1,13.6L5.4,13.6L5.4,13.1L3.4,13.1L3.4,12.1L3,12.1L3,11.9L3.6,11.9L3.6,12.9L5.6,12.9L5.6,13.4L24.9,13.4L24.9,12.9L28.4,12.9z" stroke="none"/><path d="M46.5,10.4L46.5,10.6L46.1,10.6L46.1,11.1L45.6,11.1L45.6,11.6L40.1,11.6L40.1,12.6L39.6,12.6L39.6,13.1L29.1,13.1L29.1,13.6L25.6,13.6L25.6,14.1L4.4,14.1L4.4,13.6L2.4,13.6L2.4,13.1L1.9,13.1L1.9,11.4L2.4,11.4L2.4,10.9L3.4,10.9L3.4,10.4L4.4,10.4L4.4,9.9L4.9,9.9L4.9,9.4L7.9,9.4L7.9,8.4L8.9,8.4L8.9,7.9L11.4,7.9L11.4,6.4L14.1,6.4L14.1,6.9L14.6,6.9L14.6,9.4L15.1,9.4L15.1,10.5L14.9,10.5L14.9,9.6L14.4,9.6L14.4,7.1L13.9,7.1L13.9,6.6L11.6,6.6L11.6,8.1L9.1,8.1L9.1,8.6L8.1,8.6L8.1,9.6L5.1,9.6L5.1,10.1L4.6,10.1L4.6,10.6L3.6,10.6L3.6,11.1L2.6,11.1L2.6,11.6L2.1,11.6L2.1,12.9L2.6,12.9L2.6,13.4L4.6,13.4L4.6,13.9L25.4,13.9L25.4,13.4L28.9,13.4L28.9,12.9L39.4,12.9L39.4,12.4L39.9,12.4L39.9,11.4L45.4,11.4L45.4,10.9L45.9,10.9L45.9,10.4z" stroke="none"/><path d="M55.5,2.9L55.5,3.1L48.9,3.1L48.9,2.6L47.9,2.6L47.9,2.1L47.4,2.1L47.4,1.6L17.1,1.6L17.1,2.1L16.6,2.1L16.6,6L16.4,6L16.4,1.9L16.9,1.9L16.9,1.4L47.6,1.4L47.6,1.9L48.1,1.9L48.1,2.4L49.1,2.4L49.1,2.9z" stroke="none"/><path d="M52.5,4.6L52.5,4.4L59.4,4.4L59.4,3.9L62.4,3.9L62.4,3.4L68.9,3.4L68.9,2.9L69.4,2.9L69.4,2.4L69.9,2.4L69.9,1.9L71.9,1.9L71.9,1.4L102.6,1.4L102.6,1.9L103.1,1.9L103.1,4.1L102.6,4.1L102.6,4.6L101.6,4.6L101.6,5.1L101.1,5.1L101.1,6.1L100.6,6.1L100.6,7.1L100.1,7.1L100.1,7.6L99.1,7.6L99.1,8.1L98.6,8.1L98.6,8.6L96.9,8.6L96.9,8.1L96.4,8.1L96.4,7.1L94.9,7.1L94.9,6.6L94.4,6.6L94.4,6L94.6,6L94.6,6.4L95.1,6.4L95.1,6.9L96.6,6.9L96.6,7.9L97.1,7.9L97.1,8.4L98.4,8.4L98.4,7.9L98.9,7.9L98.9,7.4L99.9,7.4L99.9,6.9L100.4,6.9L100.4,5.9L100.9,5.9L100.9,4.9L101.4,4.9L101.4,4.4L102.4,4.4L102.4,3.9L102.9,3.9L102.9,2.1L102.4,2.1L102.4,1.6L72.1,1.6L72.1,2.1L70.1,2.1L70.1,2.6L69.6,2.6L69.6,3.1L69.1,3.1L69.1,3.6L62.6,3.6L62.6,4.1L59.6,4.1L59.6,4.6z" stroke="none"/><path d="M15.1,4.5L14.9,4.5L14.9,2.9L15.4,2.9L15.4,1.9L15.9,1.9L15.9,1.4L16.4,1.4L16.4,0.9L58.1,0.9L58.1,1.4L58.6,1.4L58.6,1.9L60.1,1.9L60.1,2.4L61.6,2.4L61.6,3L61.4,3L61.4,2.6L59.9,2.6L59.9,2.1L58.4,2.1L58.4,1.6L57.9,1.6L57.9,1.1L16.6,1.1L16.6,1.6L16.1,1.6L16.1,2.1L15.6,2.1L15.6,3.1L15.1,3.1z" stroke="none"/></svg>