<svg version="1.1" width="105" height="15" xmlns="http://www.w3.org/2000/svg"><path d="M96,10.4L96,10.6L94.6,10.6L94.6,10.9L100.1,10.9L100.1,11.4L101.6,11.4L101.6,11.9L102,11.9L102,12.1L101.4,12.1L101.4,11.6L99.9,11.6L99.9,11.1L94.4,11.1L94.4,10.6L85.9,10.6L85.9,9.6L85.4,9.6L85.4,9L85.6,9L85.6,9.4L86.1,9.4L86.1,10.4z" stroke="none"/><path d="M35.4,7.9L35.4,7.6L31.4,7.6L31.4,7.1L21.4,7.1L21.4,6.1L21,6.1L21,5.9L21.6,5.9L21.6,6.9L31.6,6.9L31.6,7.4L35.6,7.4L35.6,7.9L48.6,7.9L48.6,8.4L55.9,8.4L55.9,7.9L58.1,7.9L58.1,9.6L57.6,9.6L57.6,10.1L57.1,10.1L57.1,10.5L56.9,10.5L56.9,9.9L57.4,9.9L57.4,9.4L57.9,9.4L57.9,8.1L56.1,8.1L56.1,8.6L48.4,8.6L48.4,8.1L30.4,8.1L30.4,7.6L28.5,7.6L28.5,7.4L30.6,7.4L30.6,7.9z" stroke="none"/><path d="M53.4,10.4L53.4,8.9L57,8.9L57,9.1L53.6,9.1L53.6,10.6L45.6,10.6L45.6,10.9L56.6,10.9L56.6,11.4L57.9,11.4L57.9,10.9L63.9,10.9L63.9,10.4L64.5,10.4L64.5,10.6L64.1,10.6L64.1,11.1L58.1,11.1L58.1,11.6L56.4,11.6L56.4,11.1L45.4,11.1L45.4,10.6L44.6,10.6L44.6,11.6L27.4,11.6L27.4,11.1L19.1,11.1L19.1,11.6L18.1,11.6L18.1,12.1L15,12.1L15,11.9L17.9,11.9L17.9,11.4L18.9,11.4L18.9,10.9L27.6,10.9L27.6,11.4L44.4,11.4L44.4,10.4z" stroke="none"/><path d="M18.4,9.4L18.4,9.1L17.4,9.1L17.4,8.6L10.4,8.6L10.4,8.1L9.9,8.1L9.9,7.6L9,7.6L9,7.4L10.1,7.4L10.1,7.9L10.6,7.9L10.6,8.4L17.6,8.4L17.6,8.9L18.6,8.9L18.6,9.4L31.6,9.4L31.6,9.9L43.6,9.9L43.6,10.5L43.4,10.5L43.4,10.1L31.4,10.1L31.4,9.6L18.6,9.6L18.6,10.1L10.6,10.1L10.6,10.6L9.1,10.6L9.1,11.1L7.6,11.1L7.6,11.6L6.1,11.6L6.1,12L5.9,12L5.9,11.4L7.4,11.4L7.4,10.9L8.9,10.9L8.9,10.4L10.4,10.4L10.4,9.9L18.4,9.9L18.4,9.6L16.4,9.6L16.4,9L16.6,9L16.6,9.4z" stroke="none"/><path d="M79.9,7.4L79.9,6.4L80.9,6.4L80.9,5.9L82.5,5.9L82.5,6.1L81.1,6.1L81.1,6.6L80.1,6.6L80.1,7.4L100.5,7.4L100.5,7.6L80.1,7.6L80.1,8.1L78.1,8.1L78.1,8.6L77.6,8.6L77.6,9.1L76.6,9.1L76.6,9.6L64.9,9.6L64.9,9.1L64.5,9.1L64.5,8.9L65.1,8.9L65.1,9.4L76.4,9.4L76.4,8.9L77.4,8.9L77.4,8.4L77.9,8.4L77.9,7.9L79.9,7.9L79.9,7.6L77.6,7.6L77.6,8.1L77.1,8.1L77.1,8.6L76.1,8.6L76.1,9.1L73.5,9.1L73.5,8.9L75.9,8.9L75.9,8.4L76.9,8.4L76.9,7.9L77.4,7.9L77.4,7.4z" stroke="none"/><path d="M28.4,5.9L28.4,5.6L22.4,5.6L22.4,4.6L18.1,4.6L18.1,5.6L17.6,5.6L17.6,6.6L15.1,6.6L15.1,7.5L14.9,7.5L14.9,6.4L17.4,6.4L17.4,5.4L17.9,5.4L17.9,4.4L22.6,4.4L22.6,5.4L28.6,5.4L28.6,5.9L28.9,5.9L28.9,5.1L24.9,5.1L24.9,4.6L23.4,4.6L23.4,4.1L17.6,4.1L17.6,4.6L17.1,4.6L17.1,5.1L16.1,5.1L16.1,5.6L14.4,5.6L14.4,5.1L11.9,5.1L11.9,4.5L12.1,4.5L12.1,4.9L14.6,4.9L14.6,5.4L15.9,5.4L15.9,4.9L16.9,4.9L16.9,4.4L17.4,4.4L17.4,3.9L23.6,3.9L23.6,4.4L25.1,4.4L25.1,4.9L29.1,4.9L29.1,6.1L28.6,6.1L28.6,6.4L41.6,6.4L41.6,6.9L48.9,6.9L48.9,6.4L53.9,6.4L53.9,6L54.1,6L54.1,6.6L49.1,6.6L49.1,7.1L41.4,7.1L41.4,6.6L28.4,6.6L28.4,6.1L21.9,6.1L21.9,5.6L21.4,5.6L21.4,5.1L20.1,5.1L20.1,6.4L20.6,6.4L20.6,6.9L21.1,6.9L21.1,7.4L27.6,7.4L27.6,7.9L28.1,7.9L28.1,8.4L33.1,8.4L33.1,9L32.9,9L32.9,8.6L27.9,8.6L27.9,8.1L27.4,8.1L27.4,7.6L20.9,7.6L20.9,7.1L20.4,7.1L20.4,6.6L19.9,6.6L19.9,4.9L21.6,4.9L21.6,5.4L22.1,5.4L22.1,5.9z" stroke="none"/><path d="M99.1,6L98.9,6L98.9,4.5L99.1,4.5z" stroke="none"/><path d="M94.5,6.1L94.5,5.9L96.9,5.9L96.9,5.4L97.4,5.4L97.4,4.5L97.6,4.5L97.6,5.6L97.1,5.6L97.1,6.1z" stroke="none"/><path d="M40.5,3.1L40.5,2.9L43.6,2.9L43.6,3.9L44.1,3.9L44.1,4.4L45,4.4L45,4.6L43.9,4.6L43.9,4.1L43.4,4.1L43.4,3.1z" stroke="none"/><path d="M91.5,9.1L91.5,8.9L97.9,8.9L97.9,8.4L100.9,8.4L100.9,7.9L101.4,7.9L101.4,3.6L94.6,3.6L94.6,4.5L94.4,4.5L94.4,3.4L101.6,3.4L101.6,8.1L101.1,8.1L101.1,8.6L98.1,8.6L98.1,9.1z" stroke="none"/><path d="M7.4,4.5L7.6,4.5L7.6,8.1L7.1,8.1L7.1,8.6L6.1,8.6L6.1,9.1L4.5,9.1L4.5,8.9L5.9,8.9L5.9,8.4L6.9,8.4L6.9,7.9L7.4,7.9z" stroke="none"/><path d="M54,4.6L54,4.4L54.9,4.4L54.9,3.9L56.4,3.9L56.4,3.4L56.9,3.4L56.9,2.9L60,2.9L60,3.1L57.1,3.1L57.1,3.6L56.6,3.6L56.6,4.1L55.1,4.1L55.1,4.6z" stroke="none"/><path d="M91.5,12.1L91.5,11.9L99,11.9L99,12.1z" stroke="none"/><path d="M87,4.4L87,4.6L80.6,4.6L80.6,5.6L78.4,5.6L78.4,5.1L77.9,5.1L77.9,4.5L78.1,4.5L78.1,4.9L78.6,4.9L78.6,5.4L80.4,5.4L80.4,4.4z" stroke="none"/><path d="M36,4.6L36,4.4L43.1,4.4L43.1,4.9L44.6,4.9L44.6,5.4L45.1,5.4L45.1,6L44.9,6L44.9,5.6L44.4,5.6L44.4,5.1L42.9,5.1L42.9,4.6z" stroke="none"/><path d="M49.5,7.6L49.5,7.4L57.9,7.4L57.9,6.9L58.4,6.9L58.4,5.9L60,5.9L60,6.1L58.6,6.1L58.6,7.1L58.1,7.1L58.1,7.6z" stroke="none"/><path d="M91.6,6L91.4,6L91.4,4.4L91.9,4.4L91.9,3.9L92.4,3.9L92.4,3.4L92.9,3.4L92.9,2.9L102.1,2.9L102.1,8.6L101.6,8.6L101.6,9.1L98.6,9.1L98.6,9.6L92.1,9.6L92.1,10.1L86.4,10.1L86.4,8.1L85.1,8.1L85.1,8.6L84.1,8.6L84.1,9.1L83.6,9.1L83.6,10.1L82.1,10.1L82.1,10.6L81,10.6L81,10.4L81.9,10.4L81.9,9.9L83.4,9.9L83.4,8.9L83.9,8.9L83.9,8.4L84.9,8.4L84.9,7.9L86.6,7.9L86.6,9.9L91.9,9.9L91.9,9.4L98.4,9.4L98.4,8.9L101.4,8.9L101.4,8.4L101.9,8.4L101.9,3.1L93.1,3.1L93.1,3.6L92.6,3.6L92.6,4.1L92.1,4.1L92.1,4.6L91.6,4.6z" stroke="none"/><path d="M73.5,11.9L73.5,12.1L58.5,12.1L58.5,11.9z" stroke="none"/><path d="M85.5,2.9L85.5,3.1L73.1,3.1L73.1,6.1L72.6,6.1L72.6,6.6L72.1,6.6L72.1,7.1L71.1,7.1L71.1,7.6L70.5,7.6L70.5,7.4L70.9,7.4L70.9,6.9L71.9,6.9L71.9,6.4L72.4,6.4L72.4,5.9L72.9,5.9L72.9,2.9z" stroke="none"/><path d="M31.5,4.4L31.5,4.6L25.4,4.6L25.4,4.1L23.9,4.1L23.9,3.6L17.1,3.6L17.1,4.1L16.1,4.1L16.1,4.6L15,4.6L15,4.4L15.9,4.4L15.9,3.9L16.9,3.9L16.9,3.4L24.1,3.4L24.1,3.9L25.6,3.9L25.6,4.4z" stroke="none"/><path d="M84,10.6L84,10.4L85.6,10.4L85.6,10.9L89.1,10.9L89.1,12.4L91.1,12.4L91.1,12.9L102.9,12.9L102.9,6.1L102.4,6.1L102.4,2.6L85.9,2.6L85.9,2.1L72.1,2.1L72.1,2.6L71.1,2.6L71.1,3.6L69.1,3.6L69.1,5.1L68.1,5.1L68.1,6.1L67.6,6.1L67.6,7.5L67.4,7.5L67.4,5.9L67.9,5.9L67.9,4.9L68.9,4.9L68.9,3.4L70.9,3.4L70.9,2.4L71.9,2.4L71.9,1.9L86.1,1.9L86.1,2.4L102.6,2.4L102.6,5.9L103.1,5.9L103.1,13.1L90.9,13.1L90.9,12.6L88.9,12.6L88.9,11.1L85.4,11.1L85.4,10.6z" stroke="none"/><path d="M33,2.9L33,3.1L15,3.1L15,2.9z" stroke="none"/><path d="M79.4,10.5L79.6,10.5L79.6,11.4L88.1,11.4L88.1,12.9L90.1,12.9L90.1,13.4L103.4,13.4L103.4,2.6L102.9,2.6L102.9,2.1L86.4,2.1L86.4,1.6L64.6,1.6L64.6,2.1L64.1,2.1L64.1,5.6L62.6,5.6L62.6,6.6L62.1,6.6L62.1,7.6L61.5,7.6L61.5,7.4L61.9,7.4L61.9,6.4L62.4,6.4L62.4,5.4L63.9,5.4L63.9,1.9L64.4,1.9L64.4,1.4L86.6,1.4L86.6,1.9L103.1,1.9L103.1,2.4L103.6,2.4L103.6,13.6L89.9,13.6L89.9,13.1L87.9,13.1L87.9,11.6L79.4,11.6z" stroke="none"/><path d="M79.5,4.6L79.5,4.4L79.9,4.4L79.9,3.9L86.4,3.9L86.4,3.4L88.6,3.4L88.6,3.9L89.1,3.9L89.1,4.4L89.6,4.4L89.6,4.9L90.6,4.9L90.6,6.4L91.1,6.4L91.1,6.9L99.4,6.9L99.4,6.4L99.9,6.4L99.9,4.4L100.5,4.4L100.5,4.6L100.1,4.6L100.1,6.6L99.6,6.6L99.6,7.1L90.9,7.1L90.9,6.6L90.4,6.6L90.4,5.1L89.4,5.1L89.4,4.6L88.9,4.6L88.9,4.1L88.4,4.1L88.4,3.6L86.6,3.6L86.6,4.1L80.1,4.1L80.1,4.6z" stroke="none"/><path d="M27,12.1L27,11.9L48,11.9L48,12.1z" stroke="none"/><path d="M70.4,6L70.6,6L70.6,6.6L70.1,6.6L70.1,7.1L69.6,7.1L69.6,7.6L69.1,7.6L69.1,8.1L68.1,8.1L68.1,8.6L64.9,8.6L64.9,8.1L62.1,8.1L62.1,8.6L60.4,8.6L60.4,6.4L60.9,6.4L60.9,2.6L60.4,2.6L60.4,2.1L51.6,2.1L51.6,2.6L50.1,2.6L50.1,3.1L49.5,3.1L49.5,2.9L49.9,2.9L49.9,2.4L51.4,2.4L51.4,1.9L60.6,1.9L60.6,2.4L61.1,2.4L61.1,6.6L60.6,6.6L60.6,8.4L61.9,8.4L61.9,7.9L65.1,7.9L65.1,8.4L67.9,8.4L67.9,7.9L68.9,7.9L68.9,7.4L69.4,7.4L69.4,6.9L69.9,6.9L69.9,6.4L70.4,6.4z" stroke="none"/><path d="M12.1,7.5L11.9,7.5L11.9,6.1L11.4,6.1L11.4,5.6L10.9,5.6L10.9,3.9L11.4,3.9L11.4,3.4L12.9,3.4L12.9,2.9L13.4,2.9L13.4,2.4L14.4,2.4L14.4,1.9L33.6,1.9L33.6,2.4L34.1,2.4L34.1,3.9L34.6,3.9L34.6,4.4L35.1,4.4L35.1,4.9L35.6,4.9L35.6,5.4L41.6,5.4L41.6,5.9L42,5.9L42,6.1L41.4,6.1L41.4,5.6L35.4,5.6L35.4,5.1L34.9,5.1L34.9,4.6L34.4,4.6L34.4,4.1L33.9,4.1L33.9,2.6L33.4,2.6L33.4,2.1L14.6,2.1L14.6,2.6L13.6,2.6L13.6,3.1L13.1,3.1L13.1,3.6L11.6,3.6L11.6,4.1L11.1,4.1L11.1,5.4L11.6,5.4L11.6,5.9L12.1,5.9z" stroke="none"/><path d="M39,2.9L39,3.1L34.9,3.1L34.9,2.6L34.4,2.6L34.4,2.1L33.9,2.1L33.9,1.6L7.6,1.6L7.6,2.6L7.1,2.6L7.1,3.6L5.6,3.6L5.6,4.6L5.1,4.6L5.1,5.6L4.6,5.6L4.6,6L4.4,6L4.4,5.4L4.9,5.4L4.9,4.4L5.4,4.4L5.4,3.4L6.9,3.4L6.9,2.4L7.4,2.4L7.4,1.4L34.1,1.4L34.1,1.9L34.6,1.9L34.6,2.4L35.1,2.4L35.1,2.9z" stroke="none"/><path d="M8.9,3L9.1,3L9.1,6.1L8.6,6.1L8.6,6.6L8.1,6.6L8.1,9.6L5.1,9.6L5.1,10.1L3.4,10.1L3.4,5.4L3.9,5.4L3.9,4.9L4.4,4.9L4.4,3.9L4.9,3.9L4.9,2.9L5.9,2.9L5.9,2.4L6.4,2.4L6.4,1.9L6.9,1.9L6.9,0.9L43.6,0.9L43.6,1.4L46.1,1.4L46.1,1.9L47.6,1.9L47.6,2.9L48,2.9L48,3.1L47.4,3.1L47.4,2.1L45.9,2.1L45.9,1.6L43.4,1.6L43.4,1.1L7.1,1.1L7.1,2.1L6.6,2.1L6.6,2.6L6.1,2.6L6.1,3.1L5.1,3.1L5.1,4.1L4.6,4.1L4.6,5.1L4.1,5.1L4.1,5.6L3.6,5.6L3.6,9.9L4.9,9.9L4.9,9.4L7.9,9.4L7.9,6.4L8.4,6.4L8.4,5.9L8.9,5.9z" stroke="none"/><path d="M74.9,10.5L75.1,10.5L75.1,12.1L74.6,12.1L74.6,13.1L14.4,13.1L14.4,12.6L13.9,12.6L13.9,11.4L14.4,11.4L14.4,10.9L17.9,10.9L17.9,10.4L30,10.4L30,10.6L18.1,10.6L18.1,11.1L14.6,11.1L14.6,11.6L14.1,11.6L14.1,12.4L14.6,12.4L14.6,12.9L74.4,12.9L74.4,11.9L74.9,11.9z" stroke="none"/></svg>