<svg version="1.1" width="105" height="15" xmlns="http://www.w3.org/2000/svg"><path d="M69.4,4.9L69.4,3.9L69.9,3.9L69.9,3.4L72.4,3.4L72.4,2.9L73.5,2.9L73.5,3.1L72.6,3.1L72.6,3.6L70.1,3.6L70.1,4.1L69.6,4.1L69.6,5.1L69.1,5.1L69.1,5.4L74.9,5.4L74.9,4.9L75.4,4.9L75.4,4.4L76.5,4.4L76.5,4.6L75.6,4.6L75.6,5.1L75.1,5.1L75.1,5.6L68.9,5.6L68.9,5.1L63.6,5.1L63.6,6.1L62.6,6.1L62.6,6.6L62.1,6.6L62.1,7.1L58.9,7.1L58.9,6.6L58.1,6.6L58.1,7.1L57.1,7.1L57.1,7.5L56.9,7.5L56.9,6.9L57.9,6.9L57.9,6.4L59.1,6.4L59.1,6.9L61.9,6.9L61.9,6.4L62.4,6.4L62.4,5.9L63.4,5.9L63.4,4.9z" stroke="none"/><path d="M49.5,8.9L49.5,9.1L41.6,9.1L41.6,9.4L58.6,9.4L58.6,10.5L58.4,10.5L58.4,9.6L41.4,9.6L41.4,9.1L16.4,9.1L16.4,7.5L16.6,7.5L16.6,8.9z" stroke="none"/><path d="M50.6,11.4L50.6,11.9L51,11.9L51,12.1L50.4,12.1L50.4,11.6L36.6,11.6L36.6,11.9L50.1,11.9L50.1,12.4L53.9,12.4L53.9,12L54.1,12L54.1,12.6L49.9,12.6L49.9,12.1L36.4,12.1L36.4,11.6L21.4,11.6L21.4,11.1L8.9,11.1L8.9,10.6L4.5,10.6L4.5,10.4L9.1,10.4L9.1,10.9L21.6,10.9L21.6,11.4z" stroke="none"/><path d="M78.4,7.9L78.4,7.6L77.9,7.6L77.9,7.1L74.6,7.1L74.6,7.6L73.6,7.6L73.6,8.1L72.6,8.1L72.6,9.1L72,9.1L72,8.9L72.4,8.9L72.4,7.9L73.4,7.9L73.4,7.4L74.4,7.4L74.4,6.9L78.1,6.9L78.1,7.4L78.6,7.4L78.6,7.9L81.6,7.9L81.6,8.4L85.9,8.4L85.9,7.9L87.6,7.9L87.6,8.4L88.1,8.4L88.1,8.9L88.5,8.9L88.5,9.1L87.9,9.1L87.9,8.6L87.4,8.6L87.4,8.1L86.1,8.1L86.1,8.6L81.4,8.6L81.4,8.1L78.6,8.1L78.6,9.9L79.1,9.9L79.1,10.4L79.6,10.4L79.6,10.9L80.6,10.9L80.6,11.4L81.1,11.4L81.1,12L80.9,12L80.9,11.6L80.4,11.6L80.4,11.1L79.4,11.1L79.4,10.6L78.9,10.6L78.9,10.1L78.4,10.1L78.4,8.1L75.9,8.1L75.9,7.6L75,7.6L75,7.4L76.1,7.4L76.1,7.9z" stroke="none"/><path d="M47.9,7.4L47.9,5.9L48.9,5.9L48.9,5.4L56.1,5.4L56.1,8.4L57.4,8.4L57.4,7.9L58.4,7.9L58.4,7.5L58.6,7.5L58.6,8.1L57.6,8.1L57.6,8.6L55.9,8.6L55.9,5.6L49.1,5.6L49.1,6.1L48.1,6.1L48.1,7.4L49.4,7.4L49.4,5.9L52.5,5.9L52.5,6.1L49.6,6.1L49.6,7.6L48.1,7.6L48.1,7.9L53.9,7.9L53.9,7.4L54.9,7.4L54.9,6.4L55.4,6.4L55.4,6L55.6,6L55.6,6.6L55.1,6.6L55.1,7.6L54.1,7.6L54.1,8.1L47.9,8.1L47.9,7.6L41.6,7.6L41.6,8.6L18.9,8.6L18.9,7.6L18.4,7.6L18.4,6.6L16.1,6.6L16.1,7.1L15.6,7.1L15.6,8.4L16.1,8.4L16.1,9.4L24.1,9.4L24.1,9.9L25.6,9.9L25.6,10.5L25.4,10.5L25.4,10.1L23.9,10.1L23.9,9.6L15.9,9.6L15.9,8.6L15.4,8.6L15.4,6.9L15.9,6.9L15.9,6.4L18.6,6.4L18.6,7.4L19.1,7.4L19.1,8.4L41.4,8.4L41.4,7.4z" stroke="none"/><path d="M31.4,4.4L31.4,4.1L20.6,4.1L20.6,5.1L20.1,5.1L20.1,5.6L15.1,5.6L15.1,6.1L13.5,6.1L13.5,5.9L14.9,5.9L14.9,5.4L19.9,5.4L19.9,4.9L20.4,4.9L20.4,3.9L31.6,3.9L31.6,4.4L32.9,4.4L32.9,3.9L33.9,3.9L33.9,3.4L38.6,3.4L38.6,3.9L44.4,3.9L44.4,3.4L44.9,3.4L44.9,3L45.1,3L45.1,3.6L44.6,3.6L44.6,4.1L38.4,4.1L38.4,3.6L34.1,3.6L34.1,4.1L33.1,4.1L33.1,4.6L31.6,4.6L31.6,4.9L34.1,4.9L34.1,5.4L43.6,5.4L43.6,5.9L46.5,5.9L46.5,6.1L43.4,6.1L43.4,5.6L33.9,5.6L33.9,5.1L31.4,5.1L31.4,4.6L21,4.6L21,4.4z" stroke="none"/><path d="M19.5,4.4L19.5,4.6L18,4.6L18,4.4z" stroke="none"/><path d="M61.6,6L61.4,6L61.4,5.6L60.9,5.6L60.9,5.1L60.4,5.1L60.4,4.6L60,4.6L60,4.4L60.6,4.4L60.6,4.9L61.1,4.9L61.1,5.4L61.6,5.4z" stroke="none"/><path d="M87,9.1L87,8.9L87.6,8.9L87.6,9.9L89.4,9.9L89.4,7.6L88.9,7.6L88.9,6.6L87.4,6.6L87.4,6.1L87,6.1L87,5.9L87.6,5.9L87.6,6.4L89.1,6.4L89.1,7.4L89.6,7.4L89.6,10.1L87.4,10.1L87.4,9.1z" stroke="none"/><path d="M7.6,9L7.4,9L7.4,6L7.6,6z" stroke="none"/><path d="M28.5,6.1L28.5,5.9L31.5,5.9L31.5,6.1z" stroke="none"/><path d="M9.1,7.5L8.9,7.5L8.9,4.5L9.1,4.5z" stroke="none"/><path d="M79.5,9.1L79.5,8.9L85.6,8.9L85.6,10.4L89.9,10.4L89.9,6.1L89.4,6.1L89.4,5.6L87.9,5.6L87.9,5.1L83.1,5.1L83.1,5.6L82.1,5.6L82.1,6.1L81,6.1L81,5.9L81.9,5.9L81.9,5.4L82.9,5.4L82.9,4.9L88.1,4.9L88.1,5.4L89.6,5.4L89.6,5.9L90.1,5.9L90.1,10.6L85.4,10.6L85.4,9.1z" stroke="none"/><path d="M96,5.9L96,6.1L94.1,6.1L94.1,7.1L92.6,7.1L92.6,7.6L91.5,7.6L91.5,7.4L92.4,7.4L92.4,6.9L93.9,6.9L93.9,5.9z" stroke="none"/><path d="M76.4,9L76.6,9L76.6,9.4L77.1,9.4L77.1,9.9L77.6,9.9L77.6,11.9L78.1,11.9L78.1,12.4L79.1,12.4L79.1,12.9L81.4,12.9L81.4,12.4L81.9,12.4L81.9,10.9L82.4,10.9L82.4,10.5L82.6,10.5L82.6,11.1L82.1,11.1L82.1,12.6L81.6,12.6L81.6,13.1L78.9,13.1L78.9,12.6L77.9,12.6L77.9,12.1L77.4,12.1L77.4,10.1L76.9,10.1L76.9,9.6L76.4,9.6z" stroke="none"/><path d="M97.6,12L97.4,12L97.4,10.9L99.9,10.9L99.9,10.4L100.9,10.4L100.9,9.9L101.4,9.9L101.4,8.9L101.9,8.9L101.9,7.5L102.1,7.5L102.1,9.1L101.6,9.1L101.6,10.1L101.1,10.1L101.1,10.6L100.1,10.6L100.1,11.1L97.6,11.1z" stroke="none"/><path d="M88.5,2.9L88.5,3.1L81,3.1L81,2.9z" stroke="none"/><path d="M33,7.6L33,7.4L40.5,7.4L40.5,7.6z" stroke="none"/><path d="M93,5.9L93,6.1L91.9,6.1L91.9,5.6L90.4,5.6L90.4,5.1L89.4,5.1L89.4,4.6L82.5,4.6L82.5,4.4L89.6,4.4L89.6,4.9L90.6,4.9L90.6,5.4L92.1,5.4L92.1,5.9z" stroke="none"/><path d="M70.5,4.6L70.5,4.4L73.9,4.4L73.9,3.4L74.4,3.4L74.4,2.6L73.9,2.6L73.9,2.1L60.1,2.1L60.1,2.6L59.6,2.6L59.6,4.1L59.1,4.1L59.1,4.9L59.6,4.9L59.6,5.9L60,5.9L60,6.1L59.4,6.1L59.4,5.1L58.9,5.1L58.9,3.9L59.4,3.9L59.4,2.4L59.9,2.4L59.9,1.9L74.1,1.9L74.1,2.4L74.6,2.4L74.6,3.6L74.1,3.6L74.1,4.6z" stroke="none"/><path d="M73.5,11.9L73.5,12.1L61.9,12.1L61.9,10.1L61.4,10.1L61.4,9.6L60.4,9.6L60.4,9.1L60,9.1L60,8.9L60.6,8.9L60.6,9.4L61.6,9.4L61.6,9.9L62.1,9.9L62.1,11.9z" stroke="none"/><path d="M99,8.9L99,9.1L98.4,9.1L98.4,8.6L97.9,8.6L97.9,5.6L97.4,5.6L97.4,5.1L90.9,5.1L90.9,4.6L89.9,4.6L89.9,4.1L82.9,4.1L82.9,3.6L81.6,3.6L81.6,4.1L80.6,4.1L80.6,5.1L80.1,5.1L80.1,6.4L80.6,6.4L80.6,6.9L81.9,6.9L81.9,6.4L83.4,6.4L83.4,5.9L84,5.9L84,6.1L83.6,6.1L83.6,6.6L82.1,6.6L82.1,7.1L80.4,7.1L80.4,6.6L79.9,6.6L79.9,4.9L80.4,4.9L80.4,3.9L81.4,3.9L81.4,3.4L83.1,3.4L83.1,3.9L90.1,3.9L90.1,4.4L91.1,4.4L91.1,4.9L97.6,4.9L97.6,5.4L98.1,5.4L98.1,8.4L98.6,8.4L98.6,8.9z" stroke="none"/><path d="M2.9,7.5L3.1,7.5L3.1,10.4L3.6,10.4L3.6,10.9L4.1,10.9L4.1,11.4L5.4,11.4L5.4,10.9L8.6,10.9L8.6,11.4L17.1,11.4L17.1,11.9L21,11.9L21,12.1L16.9,12.1L16.9,11.6L8.4,11.6L8.4,11.1L5.6,11.1L5.6,11.6L3.9,11.6L3.9,11.1L3.4,11.1L3.4,10.6L2.9,10.6z" stroke="none"/><path d="M99,7.6L99,7.4L99.6,7.4L99.6,8.4L100.1,8.4L100.1,9.6L99.6,9.6L99.6,10.1L91.1,10.1L91.1,11.1L85.1,11.1L85.1,11.6L84.6,11.6L84.6,13.1L84.1,13.1L84.1,13.6L78.4,13.6L78.4,13.1L76.9,13.1L76.9,11.1L76.4,11.1L76.4,10.5L76.6,10.5L76.6,10.9L77.1,10.9L77.1,12.9L78.6,12.9L78.6,13.4L83.9,13.4L83.9,12.9L84.4,12.9L84.4,11.4L84.9,11.4L84.9,10.9L90.9,10.9L90.9,9.9L99.4,9.9L99.4,9.4L99.9,9.4L99.9,8.6L99.4,8.6L99.4,7.6z" stroke="none"/><path d="M55.5,10.6L55.5,10.4L56.1,10.4L56.1,10.9L57.1,10.9L57.1,11.4L59.4,11.4L59.4,10.1L58.9,10.1L58.9,8.4L59.4,8.4L59.4,7.9L64.9,7.9L64.9,6.9L65.4,6.9L65.4,6.4L77.4,6.4L77.4,4.1L76.9,4.1L76.9,3.6L76.4,3.6L76.4,3.1L75.4,3.1L75.4,2.6L74.9,2.6L74.9,2.1L74.4,2.1L74.4,1.6L55.6,1.6L55.6,2.6L55.1,2.6L55.1,3.6L49.6,3.6L49.6,4.1L49.1,4.1L49.1,5.1L48.1,5.1L48.1,5.6L47.6,5.6L47.6,6.6L47.1,6.6L47.1,7.1L41.4,7.1L41.4,6.6L33.9,6.6L33.9,6.1L33,6.1L33,5.9L34.1,5.9L34.1,6.4L41.6,6.4L41.6,6.9L46.9,6.9L46.9,6.4L47.4,6.4L47.4,5.4L47.9,5.4L47.9,4.9L48.9,4.9L48.9,3.9L49.4,3.9L49.4,3.4L54.9,3.4L54.9,2.4L55.4,2.4L55.4,1.4L74.6,1.4L74.6,1.9L75.1,1.9L75.1,2.4L75.6,2.4L75.6,2.9L76.6,2.9L76.6,3.4L77.1,3.4L77.1,3.9L77.6,3.9L77.6,6.6L65.6,6.6L65.6,7.1L65.1,7.1L65.1,8.1L59.6,8.1L59.6,8.6L59.1,8.6L59.1,9.9L59.6,9.9L59.6,11.6L56.9,11.6L56.9,11.1L55.9,11.1L55.9,10.6z" stroke="none"/><path d="M39,2.9L39,3.1L15.1,3.1L15.1,4.5L14.9,4.5L14.9,2.9z" stroke="none"/><path d="M66,7.6L66,7.4L69.6,7.4L69.6,7.9L70.1,7.9L70.1,9.9L72.1,9.9L72.1,10.4L72.6,10.4L72.6,10.9L74.6,10.9L74.6,11.9L75.1,11.9L75.1,12.4L75.6,12.4L75.6,12.9L76.1,12.9L76.1,13.4L77.6,13.4L77.6,13.9L101.9,13.9L101.9,9.4L102.4,9.4L102.4,8.4L102.9,8.4L102.9,7.1L102.4,7.1L102.4,6.6L101.4,6.6L101.4,6.1L99.9,6.1L99.9,4.6L93.9,4.6L93.9,3.6L92.4,3.6L92.4,3.1L91.5,3.1L91.5,2.9L92.6,2.9L92.6,3.4L94.1,3.4L94.1,4.4L100.1,4.4L100.1,5.9L101.6,5.9L101.6,6.4L102.6,6.4L102.6,6.9L103.1,6.9L103.1,8.6L102.6,8.6L102.6,9.6L102.1,9.6L102.1,14.1L77.4,14.1L77.4,13.6L75.9,13.6L75.9,13.1L75.4,13.1L75.4,12.6L74.9,12.6L74.9,12.1L74.4,12.1L74.4,11.1L72.4,11.1L72.4,10.6L71.9,10.6L71.9,10.1L69.9,10.1L69.9,8.1L69.4,8.1L69.4,7.6z" stroke="none"/><path d="M43.5,2.9L43.5,3.1L40.4,3.1L40.4,2.6L39.4,2.6L39.4,2.1L16.1,2.1L16.1,2.6L9.6,2.6L9.6,3.6L7.6,3.6L7.6,4.1L6.6,4.1L6.6,4.6L6.1,4.6L6.1,6L5.9,6L5.9,4.4L6.4,4.4L6.4,3.9L7.4,3.9L7.4,3.4L9.4,3.4L9.4,2.4L15.9,2.4L15.9,1.9L39.6,1.9L39.6,2.4L40.6,2.4L40.6,2.9z" stroke="none"/><path d="M49.5,10.6L49.5,10.4L54.1,10.4L54.1,10.9L55.1,10.9L55.1,12.6L54.6,12.6L54.6,13.1L11.4,13.1L11.4,12.6L8.9,12.6L8.9,12.1L6,12.1L6,11.9L9.1,11.9L9.1,12.4L11.6,12.4L11.6,12.9L54.4,12.9L54.4,12.4L54.9,12.4L54.9,11.1L53.9,11.1L53.9,10.6z" stroke="none"/><path d="M34.5,4.6L34.5,4.4L47.9,4.4L47.9,3.4L48.4,3.4L48.4,2.9L52.4,2.9L52.4,2.4L54.4,2.4L54.4,1.9L54.9,1.9L54.9,0.9L76.1,0.9L76.1,1.4L76.6,1.4L76.6,2.4L78.1,2.4L78.1,6.4L79.1,6.4L79.1,6.9L79.6,6.9L79.6,7.4L82.5,7.4L82.5,7.6L79.4,7.6L79.4,7.1L78.9,7.1L78.9,6.6L77.9,6.6L77.9,2.6L76.4,2.6L76.4,1.6L75.9,1.6L75.9,1.1L55.1,1.1L55.1,2.1L54.6,2.1L54.6,2.6L52.6,2.6L52.6,3.1L48.6,3.1L48.6,3.6L48.1,3.6L48.1,4.6z" stroke="none"/></svg>