<svg version="1.1" width="105" height="15" xmlns="http://www.w3.org/2000/svg"><path d="M68.4,6.4L68.4,5.9L69.4,5.9L69.4,5.4L74.4,5.4L74.4,4.9L86.6,4.9L86.6,5.9L87,5.9L87,6.1L86.4,6.1L86.4,5.1L74.6,5.1L74.6,5.6L69.6,5.6L69.6,6.1L68.6,6.1L68.6,6.4L69.9,6.4L69.9,5.9L70.5,5.9L70.5,6.1L70.1,6.1L70.1,6.6L48.1,6.6L48.1,7.5L47.9,7.5L47.9,6.4z" stroke="none"/><path d="M67.9,8.9L67.9,8.6L59.9,8.6L59.9,7.6L58.5,7.6L58.5,7.4L60.1,7.4L60.1,8.4L68.1,8.4L68.1,8.9L72.6,8.9L72.6,9.9L74.6,9.9L74.6,10.4L82.5,10.4L82.5,10.6L74.4,10.6L74.4,10.1L72.4,10.1L72.4,9.1L63,9.1L63,8.9z" stroke="none"/><path d="M49.9,9.9L49.9,8.9L51,8.9L51,9.1L50.1,9.1L50.1,10.1L45.6,10.1L45.6,10.4L61.6,10.4L61.6,10.9L64.6,10.9L64.6,12L64.4,12L64.4,11.1L61.4,11.1L61.4,10.6L45.4,10.6L45.4,10.1L33.4,10.1L33.4,9.6L24.4,9.6L24.4,9.1L21,9.1L21,8.9L24.6,8.9L24.6,9.4L33.6,9.4L33.6,9.9z" stroke="none"/><path d="M29.4,4.9L29.4,4.6L26.4,4.6L26.4,4.1L25.1,4.1L25.1,5.4L25.6,5.4L25.6,6L25.4,6L25.4,5.6L24.9,5.6L24.9,3.9L26.6,3.9L26.6,4.4L29.6,4.4L29.6,4.9L32.9,4.9L32.9,2.9L34.5,2.9L34.5,3.1L33.1,3.1L33.1,5.1L29.6,5.1L29.6,5.4L30.1,5.4L30.1,5.9L30.6,5.9L30.6,6.9L31.1,6.9L31.1,7.4L31.5,7.4L31.5,7.6L30.9,7.6L30.9,7.1L30.4,7.1L30.4,6.1L29.9,6.1L29.9,5.6L29.4,5.6L29.4,5.1L25.4,5.1L25.4,4.5L25.6,4.5L25.6,4.9z" stroke="none"/><path d="M23.9,4.9L23.9,3.9L24.4,3.9L24.4,3.4L31.9,3.4L31.9,2.4L33.9,2.4L33.9,1.9L45.1,1.9L45.1,2.4L47.6,2.4L47.6,2.9L48,2.9L48,3.1L47.4,3.1L47.4,2.6L44.9,2.6L44.9,2.1L34.1,2.1L34.1,2.6L32.1,2.6L32.1,3.6L24.6,3.6L24.6,4.1L24.1,4.1L24.1,4.9L24.6,4.9L24.6,7.1L24.1,7.1L24.1,7.6L23.6,7.6L23.6,8.1L12.4,8.1L12.4,7.6L7.5,7.6L7.5,7.4L12.6,7.4L12.6,7.9L23.4,7.9L23.4,7.4L23.9,7.4L23.9,6.9L24.4,6.9L24.4,5.1L24.1,5.1L24.1,5.6L23.6,5.6L23.6,6.6L23.1,6.6L23.1,7.1L22.6,7.1L22.6,7.6L21,7.6L21,7.4L22.4,7.4L22.4,6.9L22.9,6.9L22.9,6.4L23.4,6.4L23.4,5.4L23.9,5.4L23.9,5.1L22.9,5.1L22.9,4.1L21.9,4.1L21.9,3.6L21.4,3.6L21.4,3.1L21,3.1L21,2.9L21.6,2.9L21.6,3.4L22.1,3.4L22.1,3.9L23.1,3.9L23.1,4.9z" stroke="none"/><path d="M46.9,11.4L46.9,11.1L32.9,11.1L32.9,10.5L33.1,10.5L33.1,10.9L47.1,10.9L47.1,11.4L52.6,11.4L52.6,11.9L54,11.9L54,12.1L52.4,12.1L52.4,11.6L47.1,11.6L47.1,11.9L52.1,11.9L52.1,12.4L58.1,12.4L58.1,12.9L64.9,12.9L64.9,12.4L65.9,12.4L65.9,12L66.1,12L66.1,12.6L65.1,12.6L65.1,13.1L57.9,13.1L57.9,12.6L51.9,12.6L51.9,12.1L46.9,12.1L46.9,11.6L36.1,11.6L36.1,12L35.9,12L35.9,11.4z" stroke="none"/><path d="M102,8.9L102,9.1L99.6,9.1L99.6,9.6L99.1,9.6L99.1,10.5L98.9,10.5L98.9,9.4L99.4,9.4L99.4,8.9z" stroke="none"/><path d="M42,5.9L42,6.1L40.6,6.1L40.6,6.6L39.1,6.6L39.1,7.5L38.9,7.5L38.9,6.4L40.4,6.4L40.4,5.9z" stroke="none"/><path d="M12,5.9L12,6.1L7.1,6.1L7.1,7.1L6.6,7.1L6.6,7.9L7.1,7.9L7.1,8.4L9.1,8.4L9.1,9L8.9,9L8.9,8.6L6.9,8.6L6.9,8.1L6.4,8.1L6.4,6.9L6.9,6.9L6.9,5.9z" stroke="none"/><path d="M100.5,10.4L100.5,10.6L100.1,10.6L100.1,11.6L97.6,11.6L97.6,12.1L96,12.1L96,11.9L97.4,11.9L97.4,11.4L99.9,11.4L99.9,10.4z" stroke="none"/><path d="M72,7.6L72,7.4L87.4,7.4L87.4,6.4L87.9,6.4L87.9,4.6L74.9,4.6L74.9,4.1L73.9,4.1L73.9,3.1L73.5,3.1L73.5,2.9L74.1,2.9L74.1,3.9L75.1,3.9L75.1,4.4L88.1,4.4L88.1,6.6L87.6,6.6L87.6,7.6z" stroke="none"/><path d="M13.6,6L13.4,6L13.4,5.6L12.4,5.6L12.4,5.1L6.6,5.1L6.6,6.1L6.1,6.1L6.1,8.9L7.6,8.9L7.6,9.4L8.6,9.4L8.6,9.9L15.1,9.9L15.1,10.5L14.9,10.5L14.9,10.1L8.4,10.1L8.4,9.6L7.4,9.6L7.4,9.1L5.9,9.1L5.9,5.9L6.4,5.9L6.4,4.9L12.6,4.9L12.6,5.4L13.6,5.4z" stroke="none"/><path d="M69,12.1L69,11.9L77.9,11.9L77.9,10.9L81.6,10.9L81.6,11.4L82.9,11.4L82.9,10.9L83.4,10.9L83.4,10.1L82.9,10.1L82.9,9.6L81.6,9.6L81.6,10.1L74.9,10.1L74.9,9.6L73.4,9.6L73.4,9L73.6,9L73.6,9.4L75.1,9.4L75.1,9.9L81.4,9.9L81.4,9.4L83.1,9.4L83.1,9.9L83.6,9.9L83.6,11.1L83.1,11.1L83.1,11.6L81.4,11.6L81.4,11.1L78.1,11.1L78.1,12.1z" stroke="none"/><path d="M91.5,12.1L91.5,11.9L93.4,11.9L93.4,11.4L94.4,11.4L94.4,8.9L96,8.9L96,9.1L94.6,9.1L94.6,11.6L93.6,11.6L93.6,12.1z" stroke="none"/><path d="M85.5,11.9L85.5,12.1L85.1,12.1L85.1,13.1L80.4,13.1L80.4,12.6L79.4,12.6L79.4,12L79.6,12L79.6,12.4L80.6,12.4L80.6,12.9L84.9,12.9L84.9,11.9z" stroke="none"/><path d="M28.5,11.9L28.5,12.1L20.9,12.1L20.9,10.5L21.1,10.5L21.1,11.9z" stroke="none"/><path d="M102.1,12L101.9,12L101.9,9.9L102.4,9.9L102.4,9.4L102.9,9.4L102.9,8.6L102.4,8.6L102.4,8.1L96.9,8.1L96.9,7.6L94.5,7.6L94.5,7.4L97.1,7.4L97.1,7.9L102.6,7.9L102.6,8.4L103.1,8.4L103.1,9.6L102.6,9.6L102.6,10.1L102.1,10.1z" stroke="none"/><path d="M22.5,5.9L22.5,6.1L16.4,6.1L16.4,5.6L15.9,5.6L15.9,4.6L13.5,4.6L13.5,4.4L16.1,4.4L16.1,5.4L16.6,5.4L16.6,5.9z" stroke="none"/><path d="M6,3.1L6,2.9L16.5,2.9L16.5,3.1z" stroke="none"/><path d="M34.5,11.9L34.5,12.1L29.9,12.1L29.9,11.6L29.4,11.6L29.4,11.1L26.9,11.1L26.9,10.6L22.5,10.6L22.5,10.4L27.1,10.4L27.1,10.9L29.6,10.9L29.6,11.4L30.1,11.4L30.1,11.9z" stroke="none"/><path d="M93,10.4L93,10.6L83.9,10.6L83.9,9.6L83.4,9.6L83.4,9.1L81,9.1L81,8.9L83.6,8.9L83.6,9.4L84.1,9.4L84.1,10.4z" stroke="none"/><path d="M4.5,3.1L4.5,2.9L5.1,2.9L5.1,3.9L12.9,3.9L12.9,3.4L14.1,3.4L14.1,3.9L16.6,3.9L16.6,4.4L18,4.4L18,4.6L16.4,4.6L16.4,4.1L13.9,4.1L13.9,3.6L13.1,3.6L13.1,4.1L4.9,4.1L4.9,3.1z" stroke="none"/><path d="M48,4.6L48,4.4L63,4.4L63,4.6z" stroke="none"/><path d="M27,7.6L27,7.4L30.1,7.4L30.1,7.9L31.1,7.9L31.1,8.4L36.4,8.4L36.4,7.4L37.4,7.4L37.4,5.9L38.4,5.9L38.4,5.4L40.4,5.4L40.4,4.9L41.4,4.9L41.4,4.4L42,4.4L42,4.6L41.6,4.6L41.6,5.1L40.6,5.1L40.6,5.6L38.6,5.6L38.6,6.1L37.6,6.1L37.6,7.6L36.6,7.6L36.6,8.6L30.9,8.6L30.9,8.1L29.9,8.1L29.9,7.6z" stroke="none"/><path d="M28.5,5.9L28.5,6.1L27.1,6.1L27.1,6.6L26.6,6.6L26.6,7.1L26.1,7.1L26.1,7.9L26.6,7.9L26.6,8.4L30.6,8.4L30.6,8.9L40.9,8.9L40.9,7.9L41.4,7.9L41.4,7.4L42.4,7.4L42.4,6.4L43.9,6.4L43.9,5.9L45,5.9L45,6.1L44.1,6.1L44.1,6.6L42.6,6.6L42.6,7.6L41.6,7.6L41.6,8.1L41.1,8.1L41.1,9.1L30.4,9.1L30.4,8.6L26.4,8.6L26.4,8.1L25.9,8.1L25.9,6.9L26.4,6.9L26.4,6.4L26.9,6.4L26.9,5.9z" stroke="none"/><path d="M75,5.9L75,6.1L71.6,6.1L71.6,7.1L71.1,7.1L71.1,7.9L71.6,7.9L71.6,8.4L72.9,8.4L72.9,7.9L89.9,7.9L89.9,6.9L90.9,6.9L90.9,5.9L91.5,5.9L91.5,6.1L91.1,6.1L91.1,7.1L90.1,7.1L90.1,8.1L73.1,8.1L73.1,8.6L71.4,8.6L71.4,8.1L70.9,8.1L70.9,6.9L71.4,6.9L71.4,5.9z" stroke="none"/><path d="M84.1,12L83.9,12L83.9,10.9L86.6,10.9L86.6,12.6L86.1,12.6L86.1,13.1L85.6,13.1L85.6,13.6L69.4,13.6L69.4,13.1L68.4,13.1L68.4,12.6L67.9,12.6L67.9,11.1L67.4,11.1L67.4,10.5L67.6,10.5L67.6,10.9L68.1,10.9L68.1,12.4L68.6,12.4L68.6,12.9L69.6,12.9L69.6,13.4L85.4,13.4L85.4,12.9L85.9,12.9L85.9,12.4L86.4,12.4L86.4,11.1L84.1,11.1z" stroke="none"/><path d="M22.5,3.1L22.5,2.9L30.9,2.9L30.9,2.4L31.4,2.4L31.4,1.9L33.4,1.9L33.4,1.4L61.6,1.4L61.6,1.9L62.6,1.9L62.6,2.9L63.1,2.9L63.1,3.4L63.6,3.4L63.6,3.9L64.1,3.9L64.1,5.1L63.6,5.1L63.6,5.6L45.4,5.6L45.4,5.1L44.9,5.1L44.9,4.6L43.5,4.6L43.5,4.4L45.1,4.4L45.1,4.9L45.6,4.9L45.6,5.4L63.4,5.4L63.4,4.9L63.9,4.9L63.9,4.1L63.4,4.1L63.4,3.6L62.9,3.6L62.9,3.1L62.4,3.1L62.4,2.1L61.4,2.1L61.4,1.6L33.6,1.6L33.6,2.1L31.6,2.1L31.6,2.6L31.1,2.6L31.1,3.1z" stroke="none"/><path d="M90,9.1L90,8.9L90.9,8.9L90.9,8.4L91.4,8.4L91.4,7.9L92.4,7.9L92.4,5.6L91.9,5.6L91.9,5.1L89.9,5.1L89.9,4.6L88.9,4.6L88.9,4.1L76.4,4.1L76.4,3.6L75.9,3.6L75.9,2.6L75.4,2.6L75.4,2.1L67.6,2.1L67.6,2.6L67.1,2.6L67.1,3.6L66.6,3.6L66.6,5.1L66.1,5.1L66.1,5.6L65.1,5.6L65.1,6.1L47.6,6.1L47.6,7.1L47.1,7.1L47.1,7.9L47.6,7.9L47.6,8.9L48,8.9L48,9.1L47.4,9.1L47.4,8.1L46.9,8.1L46.9,6.9L47.4,6.9L47.4,5.9L64.9,5.9L64.9,5.4L65.9,5.4L65.9,4.9L66.4,4.9L66.4,3.4L66.9,3.4L66.9,2.4L67.4,2.4L67.4,1.9L75.6,1.9L75.6,2.4L76.1,2.4L76.1,3.4L76.6,3.4L76.6,3.9L89.1,3.9L89.1,4.4L90.1,4.4L90.1,4.9L92.1,4.9L92.1,5.4L92.6,5.4L92.6,8.1L91.6,8.1L91.6,8.6L91.1,8.6L91.1,9.1z" stroke="none"/><path d="M4.4,6L4.6,6L4.6,6.9L5.1,6.9L5.1,7.4L5.6,7.4L5.6,9.4L6.1,9.4L6.1,9.9L6.6,9.9L6.6,10.4L8.6,10.4L8.6,10.9L14.6,10.9L14.6,11.4L20.1,11.4L20.1,11.9L20.6,11.9L20.6,12.4L28.1,12.4L28.1,12.9L56.6,12.9L56.6,13.4L66.4,13.4L66.4,12.9L66.9,12.9L66.9,11.6L66.4,11.6L66.4,11.1L65.9,11.1L65.9,10.6L61.9,10.6L61.9,10.1L52.4,10.1L52.4,8.1L49.9,8.1L49.9,7.6L49.5,7.6L49.5,7.4L50.1,7.4L50.1,7.9L52.6,7.9L52.6,9.9L62.1,9.9L62.1,10.4L66.1,10.4L66.1,10.9L66.6,10.9L66.6,11.4L67.1,11.4L67.1,13.1L66.6,13.1L66.6,13.6L56.4,13.6L56.4,13.1L27.9,13.1L27.9,12.6L20.4,12.6L20.4,12.1L19.9,12.1L19.9,11.6L14.4,11.6L14.4,11.1L8.4,11.1L8.4,10.6L6.4,10.6L6.4,10.1L5.9,10.1L5.9,9.6L5.4,9.6L5.4,7.6L4.9,7.6L4.9,7.1L4.4,7.1z" stroke="none"/></svg>