<svg version="1.1" width="105" height="15" xmlns="http://www.w3.org/2000/svg"><path d="M15.4,4.9L16.4,4.9L16.4,4.4L18,4.4L18,4.6L16.6,4.6L16.6,5.1L15.6,5.1L15.6,6.4L16.1,6.4L16.1,6.9L16.6,6.9L16.6,7.5L16.4,7.5L16.4,7.1L15.9,7.1L15.9,6.6L15.6,6.6L15.6,7.6L14.6,7.6L14.6,8.1L13.1,8.1L13.1,8.6L12.6,8.6L12.6,9.1L12,9.1L12,8.9L12.4,8.9L12.4,8.4L12.9,8.4L12.9,7.9L14.4,7.9L14.4,7.4L15.4,7.4z" stroke="none"/><path d="M56.4,7.6L54.9,7.6L54.9,7.1L51.4,7.1L51.4,6.6L40.4,6.6L40.4,6.1L37.5,6.1L37.5,5.9L40.6,5.9L40.6,6.4L51.6,6.4L51.6,6.9L55.1,6.9L55.1,7.4L56.6,7.4L56.6,7.9L58.1,7.9L58.1,8.4L58.6,8.4L58.6,9L58.4,9L58.4,8.6L57.9,8.6L57.9,8.1L56.6,8.1L56.6,8.4L57.6,8.4L57.6,8.9L58.1,8.9L58.1,9.4L71.4,9.4L71.4,8.9L73.5,8.9L73.5,9.1L71.6,9.1L71.6,9.6L57.9,9.6L57.9,9.1L57.4,9.1L57.4,8.6L56.4,8.6z" stroke="none"/><path d="M70.4,10.4L70.4,9.9L84.9,9.9L84.9,9.4L86.1,9.4L86.1,9.9L87.1,9.9L87.1,10.5L86.9,10.5L86.9,10.1L85.9,10.1L85.9,9.6L85.1,9.6L85.1,10.1L70.6,10.1L70.6,10.4L84,10.4L84,10.6L58.4,10.6L58.4,10.1L57.4,10.1L57.4,9.6L55.6,9.6L55.6,10.1L44.1,10.1L44.1,10.6L40.5,10.6L40.5,10.4L43.9,10.4L43.9,9.9L55.4,9.9L55.4,9.4L57.6,9.4L57.6,9.9L58.6,9.9L58.6,10.4z" stroke="none"/><path d="M32.9,8.9L32.9,8.4L40.4,8.4L40.4,7.4L41.4,7.4L41.4,6.9L51.1,6.9L51.1,7.5L50.9,7.5L50.9,7.1L41.6,7.1L41.6,7.6L40.6,7.6L40.6,8.6L33.1,8.6L33.1,8.9L41.9,8.9L41.9,7.5L42.1,7.5L42.1,9.1L33.1,9.1L33.1,9.6L14.6,9.6L14.6,10.1L10.6,10.1L10.6,10.6L9.1,10.6L9.1,12L8.9,12L8.9,10.4L10.4,10.4L10.4,9.9L14.4,9.9L14.4,9.4L32.9,9.4L32.9,9.1L30,9.1L30,8.9z" stroke="none"/><path d="M85.4,5.9L85.4,5.4L93.9,5.4L93.9,4.9L97.4,4.9L97.4,4.5L97.6,4.5L97.6,5.1L94.1,5.1L94.1,5.6L85.6,5.6L85.6,5.9L91.5,5.9L91.5,6.1L85.6,6.1L85.6,6.4L93.6,6.4L93.6,6.9L94.1,6.9L94.1,7.4L94.5,7.4L94.5,7.6L93.9,7.6L93.9,7.1L93.4,7.1L93.4,6.6L85.4,6.6L85.4,6.1L78.1,6.1L78.1,6.6L75.6,6.6L75.6,7.1L61.6,7.1L61.6,7.6L58.5,7.6L58.5,7.4L61.4,7.4L61.4,6.9L75.4,6.9L75.4,6.4L77.9,6.4L77.9,5.9z" stroke="none"/><path d="M38.4,4.9L38.4,4.6L36.9,4.6L36.9,4.1L34.4,4.1L34.4,3.1L33.9,3.1L33.9,2.6L24.6,2.6L24.6,3.1L21.1,3.1L21.1,4.1L20.1,4.1L20.1,5.1L19.1,5.1L19.1,5.6L18.6,5.6L18.6,6.1L18.1,6.1L18.1,7.5L17.9,7.5L17.9,5.9L18.4,5.9L18.4,5.4L18.9,5.4L18.9,4.9L19.9,4.9L19.9,3.9L20.9,3.9L20.9,2.9L24.4,2.9L24.4,2.4L34.1,2.4L34.1,2.9L34.6,2.9L34.6,3.9L37.1,3.9L37.1,4.4L38.6,4.4L38.6,4.9L43.9,4.9L43.9,4.4L45,4.4L45,4.6L44.1,4.6L44.1,5.1L38.6,5.1L38.6,5.4L63.1,5.4L63.1,6L62.9,6L62.9,5.6L38.4,5.6L38.4,5.1L34.9,5.1L34.9,4.6L33.9,4.6L33.9,4.1L33.4,4.1L33.4,3.6L32.9,3.6L32.9,3.1L28.5,3.1L28.5,2.9L33.1,2.9L33.1,3.4L33.6,3.4L33.6,3.9L34.1,3.9L34.1,4.4L35.1,4.4L35.1,4.9z" stroke="none"/><path d="M7.5,8.9L7.5,9.1L7.1,9.1L7.1,10.1L6.6,10.1L6.6,10.6L6,10.6L6,10.4L6.4,10.4L6.4,9.9L6.9,9.9L6.9,8.9z" stroke="none"/><path d="M67.5,2.9L67.5,3.1L67.1,3.1L67.1,3.6L66.6,3.6L66.6,5.6L66.1,5.6L66.1,6L65.9,6L65.9,5.4L66.4,5.4L66.4,3.4L66.9,3.4L66.9,2.9z" stroke="none"/><path d="M19.5,10.4L19.5,10.6L15,10.6L15,10.4z" stroke="none"/><path d="M101.9,3L102.1,3L102.1,4.6L101.6,4.6L101.6,5.1L100.1,5.1L100.1,5.6L99.6,5.6L99.6,6.1L96,6.1L96,5.9L99.4,5.9L99.4,5.4L99.9,5.4L99.9,4.9L101.4,4.9L101.4,4.4L101.9,4.4z" stroke="none"/><path d="M87,2.9L87,3.1L79.5,3.1L79.5,2.9z" stroke="none"/><path d="M85.5,10.4L85.5,10.6L85.1,10.6L85.1,11.1L84.6,11.1L84.6,11.6L78.1,11.6L78.1,12L77.9,12L77.9,11.4L84.4,11.4L84.4,10.9L84.9,10.9L84.9,10.4z" stroke="none"/><path d="M31.5,11.9L31.5,12.1L30.9,12.1L30.9,11.1L24.4,11.1L24.4,10.6L24,10.6L24,10.4L24.6,10.4L24.6,10.9L31.1,10.9L31.1,11.9z" stroke="none"/><path d="M21,11.9L21,12.1L10.5,12.1L10.5,11.9z" stroke="none"/><path d="M99,8.9L99,9.1L86.9,9.1L86.9,7.5L87.1,7.5L87.1,8.9z" stroke="none"/><path d="M63.1,3L62.9,3L62.9,2.4L63.4,2.4L63.4,1.9L69.6,1.9L69.6,4.4L71.1,4.4L71.1,4.9L71.6,4.9L71.6,5.4L75.1,5.4L75.1,6L74.9,6L74.9,5.6L71.4,5.6L71.4,5.1L70.9,5.1L70.9,4.6L69.4,4.6L69.4,2.1L63.6,2.1L63.6,2.6L63.1,2.6z" stroke="none"/><path d="M90,11.9L90,12.1L79.1,12.1L79.1,12.6L78.6,12.6L78.6,13.1L76.9,13.1L76.9,12.6L76.4,12.6L76.4,12L76.6,12L76.6,12.4L77.1,12.4L77.1,12.9L78.4,12.9L78.4,12.4L78.9,12.4L78.9,11.9z" stroke="none"/><path d="M33,4.4L33,4.6L20.6,4.6L20.6,6.1L19.5,6.1L19.5,5.9L20.4,5.9L20.4,4.4z" stroke="none"/><path d="M97.5,2.9L97.5,3.1L91.1,3.1L91.1,3.6L90.6,3.6L90.6,4.1L89.6,4.1L89.6,4.6L81,4.6L81,4.4L89.4,4.4L89.4,3.9L90.4,3.9L90.4,3.4L90.9,3.4L90.9,2.9z" stroke="none"/><path d="M67.5,11.9L67.5,12.1L55.1,12.1L55.1,12.6L53.1,12.6L53.1,13.1L49.9,13.1L49.9,12.1L49.5,12.1L49.5,11.9L50.1,11.9L50.1,12.9L52.9,12.9L52.9,12.4L54.9,12.4L54.9,11.9z" stroke="none"/><path d="M75,9.1L75,8.9L86.6,8.9L86.6,9.4L98.6,9.4L98.6,9.9L99.9,9.9L99.9,8.6L99.4,8.6L99.4,8.1L96.1,8.1L96.1,8.6L93.9,8.6L93.9,8.1L92.9,8.1L92.9,7.5L93.1,7.5L93.1,7.9L94.1,7.9L94.1,8.4L95.9,8.4L95.9,7.9L99.6,7.9L99.6,8.4L100.1,8.4L100.1,10.1L98.4,10.1L98.4,9.6L86.4,9.6L86.4,9.1z" stroke="none"/><path d="M46.5,4.6L46.5,4.4L63.4,4.4L63.4,3.9L64.4,3.9L64.4,3L64.6,3L64.6,4.1L63.6,4.1L63.6,4.6z" stroke="none"/><path d="M99.1,4.5L98.9,4.5L98.9,3.6L98.4,3.6L98.4,2.1L76.6,2.1L76.6,2.6L74.1,2.6L74.1,3.1L73.6,3.1L73.6,3.6L73.1,3.6L73.1,4.1L72.1,4.1L72.1,4.5L71.9,4.5L71.9,3.9L72.9,3.9L72.9,3.4L73.4,3.4L73.4,2.9L73.9,2.9L73.9,2.4L76.4,2.4L76.4,1.9L98.6,1.9L98.6,3.4L99.1,3.4z" stroke="none"/><path d="M30,11.9L30,12.1L23.1,12.1L23.1,12.6L22.1,12.6L22.1,13.1L6.4,13.1L6.4,12.6L3.9,12.6L3.9,11.6L3.4,11.6L3.4,11.1L2.9,11.1L2.9,10.5L3.1,10.5L3.1,10.9L3.6,10.9L3.6,11.4L4.1,11.4L4.1,12.4L6.6,12.4L6.6,12.9L21.9,12.9L21.9,12.4L22.9,12.4L22.9,11.9z" stroke="none"/><path d="M3,7.6L3,7.4L6.4,7.4L6.4,6.9L6.9,6.9L6.9,6.4L10.9,6.4L10.9,4.9L14.9,4.9L14.9,4.4L15.9,4.4L15.9,3.9L17.4,3.9L17.4,3.4L20.4,3.4L20.4,2.4L23.9,2.4L23.9,1.9L35.6,1.9L35.6,2.9L36,2.9L36,3.1L35.4,3.1L35.4,2.1L24.1,2.1L24.1,2.6L20.6,2.6L20.6,3.6L17.6,3.6L17.6,4.1L16.1,4.1L16.1,4.6L15.1,4.6L15.1,5.1L11.1,5.1L11.1,6.6L7.1,6.6L7.1,7.1L6.6,7.1L6.6,7.6z" stroke="none"/><path d="M57,10.6L57,10.4L58.1,10.4L58.1,10.9L75.1,10.9L75.1,11.9L75.6,11.9L75.6,12.4L76.1,12.4L76.1,13.4L93.4,13.4L93.4,12.9L94.9,12.9L94.9,12.4L95.9,12.4L95.9,11.9L96.9,11.9L96.9,11.4L97.4,11.4L97.4,10.9L97.9,10.9L97.9,10.4L100.4,10.4L100.4,7.6L96.9,7.6L96.9,7.1L95.4,7.1L95.4,6.6L94.4,6.6L94.4,6L94.6,6L94.6,6.4L95.6,6.4L95.6,6.9L97.1,6.9L97.1,7.4L100.6,7.4L100.6,10.6L98.1,10.6L98.1,11.1L97.6,11.1L97.6,11.6L97.1,11.6L97.1,12.1L96.1,12.1L96.1,12.6L95.1,12.6L95.1,13.1L93.6,13.1L93.6,13.6L75.9,13.6L75.9,12.6L75.4,12.6L75.4,12.1L74.9,12.1L74.9,11.1L57.9,11.1L57.9,10.6z" stroke="none"/><path d="M10.6,4.5L10.4,4.5L10.4,3.9L10.9,3.9L10.9,3.4L12.4,3.4L12.4,2.9L16.4,2.9L16.4,2.4L17.4,2.4L17.4,1.9L23.4,1.9L23.4,1.4L49.6,1.4L49.6,3L49.4,3L49.4,1.6L23.6,1.6L23.6,2.1L17.6,2.1L17.6,2.6L16.6,2.6L16.6,3.1L12.6,3.1L12.6,3.6L11.1,3.6L11.1,4.1L10.6,4.1z" stroke="none"/><path d="M48,8.9L48,9.1L42.6,9.1L42.6,9.6L37.6,9.6L37.6,10.1L37.1,10.1L37.1,10.6L36.6,10.6L36.6,11.1L36.1,11.1L36.1,11.6L35.6,11.6L35.6,12.1L34.1,12.1L34.1,13.1L22.6,13.1L22.6,13.6L3.4,13.6L3.4,12.6L1.9,12.6L1.9,9.9L2.4,9.9L2.4,9.4L4.6,9.4L4.6,9.9L5.1,9.9L5.1,11.4L6.6,11.4L6.6,11.9L7.5,11.9L7.5,12.1L6.4,12.1L6.4,11.6L4.9,11.6L4.9,10.1L4.4,10.1L4.4,9.6L2.6,9.6L2.6,10.1L2.1,10.1L2.1,12.4L3.6,12.4L3.6,13.4L22.4,13.4L22.4,12.9L33.9,12.9L33.9,11.9L35.4,11.9L35.4,11.4L35.9,11.4L35.9,10.9L36.4,10.9L36.4,10.4L36.9,10.4L36.9,9.9L37.4,9.9L37.4,9.4L42.4,9.4L42.4,8.9z" stroke="none"/><path d="M7.4,7.5L7.6,7.5L7.6,8.1L3.6,8.1L3.6,8.6L2.6,8.6L2.6,9.1L1.6,9.1L1.6,12.9L2.1,12.9L2.1,13.4L2.6,13.4L2.6,13.9L36.9,13.9L36.9,13.4L41.4,13.4L41.4,12.9L43.4,12.9L43.4,12.4L48.4,12.4L48.4,10.9L50.6,10.9L50.6,11.4L51.1,11.4L51.1,11.9L52.5,11.9L52.5,12.1L50.9,12.1L50.9,11.6L50.4,11.6L50.4,11.1L48.6,11.1L48.6,12.6L43.6,12.6L43.6,13.1L41.6,13.1L41.6,13.6L37.1,13.6L37.1,14.1L2.4,14.1L2.4,13.6L1.9,13.6L1.9,13.1L1.4,13.1L1.4,8.9L2.4,8.9L2.4,8.4L3.4,8.4L3.4,7.9L7.4,7.9z" stroke="none"/><path d="M7.5,3.1L7.5,2.9L11.4,2.9L11.4,2.4L15.9,2.4L15.9,1.9L16.9,1.9L16.9,1.4L21.4,1.4L21.4,0.9L55.1,0.9L55.1,1.4L55.6,1.4L55.6,1.9L56.1,1.9L56.1,2.9L57,2.9L57,3.1L55.9,3.1L55.9,2.1L55.4,2.1L55.4,1.6L54.9,1.6L54.9,1.1L21.6,1.1L21.6,1.6L17.1,1.6L17.1,2.1L16.1,2.1L16.1,2.6L11.6,2.6L11.6,3.1z" stroke="none"/></svg>