<svg version="1.1" width="105" height="15" xmlns="http://www.w3.org/2000/svg"><path d="M102,7.4L102,7.6L91.6,7.6L91.6,9L91.4,9L91.4,7.6L83.9,7.6L83.9,7.1L81.9,7.1L81.9,6.6L80.9,6.6L80.9,6L81.1,6L81.1,6.4L82.1,6.4L82.1,6.9L84.1,6.9L84.1,7.4z" stroke="none"/><path d="M71.9,2.9L71.9,2.6L71.4,2.6L71.4,2.1L67.1,2.1L67.1,2.6L66.6,2.6L66.6,3.1L66,3.1L66,2.9L66.4,2.9L66.4,2.4L66.9,2.4L66.9,1.9L71.6,1.9L71.6,2.4L72.1,2.4L72.1,2.9L78,2.9L78,3.1L70.5,3.1L70.5,2.9z" stroke="none"/><path d="M92.9,4.9L92.9,3L93.1,3L93.1,5.1L77.1,5.1L77.1,5.6L74.6,5.6L74.6,6.1L73.1,6.1L73.1,6.6L66.4,6.6L66.4,6.1L66,6.1L66,5.9L66.6,5.9L66.6,6.4L72.9,6.4L72.9,5.9L74.4,5.9L74.4,5.4L76.9,5.4L76.9,5.1L74.1,5.1L74.1,5.6L72.6,5.6L72.6,6.1L72,6.1L72,5.9L72.4,5.9L72.4,5.4L73.9,5.4L73.9,4.9z" stroke="none"/><path d="M49.9,8.9L49.9,8.4L57.1,8.4L57.1,8.9L57.6,8.9L57.6,9.4L58.1,9.4L58.1,9.9L70.1,9.9L70.1,10.4L70.5,10.4L70.5,10.6L69.9,10.6L69.9,10.1L57.9,10.1L57.9,9.6L57.4,9.6L57.4,9.1L56.9,9.1L56.9,8.6L50.1,8.6L50.1,8.9L50.6,8.9L50.6,11.1L37.9,11.1L37.9,10.6L37.5,10.6L37.5,10.4L38.1,10.4L38.1,10.9L50.4,10.9L50.4,9.1L50.1,9.1L50.1,9.6L49.1,9.6L49.1,10.6L48,10.6L48,10.4L48.9,10.4L48.9,9.4L49.9,9.4L49.9,9.1L46.4,9.1L46.4,7.6L44.9,7.6L44.9,6L45.1,6L45.1,7.4L46.6,7.4L46.6,8.9z" stroke="none"/><path d="M80.9,10.4L80.9,10.1L80.4,10.1L80.4,9.6L63.9,9.6L63.9,9.1L60,9.1L60,8.9L64.1,8.9L64.1,9.4L80.6,9.4L80.6,9.9L81.1,9.9L81.1,10.4L85.4,10.4L85.4,9.9L86.4,9.9L86.4,9.4L86.9,9.4L86.9,9L87.1,9L87.1,9.6L86.6,9.6L86.6,10.1L85.6,10.1L85.6,10.6L81.1,10.6L81.1,10.9L95.6,10.9L95.6,11.4L98.6,11.4L98.6,11.9L99,11.9L99,12.1L98.4,12.1L98.4,11.6L95.4,11.6L95.4,11.1L80.9,11.1L80.9,10.6L80.6,10.6L80.6,11.1L80.1,11.1L80.1,11.6L79.1,11.6L79.1,12.1L78,12.1L78,11.9L78.9,11.9L78.9,11.4L79.9,11.4L79.9,10.9L80.4,10.9L80.4,10.4z" stroke="none"/><path d="M61.9,6.4L61.9,6.1L47.9,6.1L47.9,5.6L46.4,5.6L46.4,4.1L45.9,4.1L45.9,3.6L40.6,3.6L40.6,4.1L40.1,4.1L40.1,4.6L39.6,4.6L39.6,5.1L39.1,5.1L39.1,6L38.9,6L38.9,4.9L39.4,4.9L39.4,4.4L39.9,4.4L39.9,3.9L40.4,3.9L40.4,3.4L46.1,3.4L46.1,3.9L46.6,3.9L46.6,5.4L48.1,5.4L48.1,5.9L62.1,5.9L62.1,6.4L64.4,6.4L64.4,5.4L65.4,5.4L65.4,4.9L67.4,4.9L67.4,4.4L72,4.4L72,4.6L67.6,4.6L67.6,5.1L65.6,5.1L65.6,5.6L64.6,5.6L64.6,6.6L62.1,6.6L62.1,6.9L80.6,6.9L80.6,7.4L83.6,7.4L83.6,7.9L84.1,7.9L84.1,9L83.9,9L83.9,8.1L83.4,8.1L83.4,7.6L80.4,7.6L80.4,7.1L61.9,7.1L61.9,6.6L56.6,6.6L56.6,7.1L55.6,7.1L55.6,7.6L54,7.6L54,7.4L55.4,7.4L55.4,6.9L56.4,6.9L56.4,6.4z" stroke="none"/><path d="M96.1,10.5L95.9,10.5L95.9,9L96.1,9z" stroke="none"/><path d="M34.5,10.6L34.5,10.4L36,10.4L36,10.6z" stroke="none"/><path d="M99,10.6L99,10.4L100.5,10.4L100.5,10.6z" stroke="none"/><path d="M82.5,2.9L82.5,3.1L79.5,3.1L79.5,2.9z" stroke="none"/><path d="M15,10.4L15,10.6L14.4,10.6L14.4,10.1L13.9,10.1L13.9,7.6L13.5,7.6L13.5,7.4L14.1,7.4L14.1,9.9L14.6,9.9L14.6,10.4z" stroke="none"/><path d="M31.6,12L31.4,12L31.4,11.4L31.9,11.4L31.9,9.9L32.4,9.9L32.4,8.9L33,8.9L33,9.1L32.6,9.1L32.6,10.1L32.1,10.1L32.1,11.6L31.6,11.6z" stroke="none"/><path d="M17.9,6L18.1,6L18.1,8.4L20.1,8.4L20.1,8.9L21,8.9L21,9.1L19.9,9.1L19.9,8.6L17.9,8.6z" stroke="none"/><path d="M64.5,12.1L64.5,11.9L69,11.9L69,12.1z" stroke="none"/><path d="M57,2.9L57,3.1L55.1,3.1L55.1,4.1L54.6,4.1L54.6,4.6L52.5,4.6L52.5,4.4L54.4,4.4L54.4,3.9L54.9,3.9L54.9,2.9z" stroke="none"/><path d="M38.9,3L39.1,3L39.1,4.1L38.6,4.1L38.6,5.6L38.1,5.6L38.1,6.9L39.4,6.9L39.4,6.4L39.9,6.4L39.9,5.4L43.4,5.4L43.4,4.9L44.9,4.9L44.9,4.5L45.1,4.5L45.1,5.1L43.6,5.1L43.6,5.6L40.1,5.6L40.1,6.6L39.6,6.6L39.6,7.1L37.9,7.1L37.9,5.4L38.4,5.4L38.4,3.9L38.9,3.9z" stroke="none"/><path d="M81,11.9L81,12.1L80.1,12.1L80.1,12.6L78.6,12.6L78.6,13.1L74.9,13.1L74.9,12.6L73.9,12.6L73.9,12.1L73.5,12.1L73.5,11.9L74.1,11.9L74.1,12.4L75.1,12.4L75.1,12.9L78.4,12.9L78.4,12.4L79.9,12.4L79.9,11.9z" stroke="none"/><path d="M4.5,7.6L4.5,7.4L10.1,7.4L10.1,7.9L10.6,7.9L10.6,8.9L12,8.9L12,9.1L10.4,9.1L10.4,8.1L9.9,8.1L9.9,7.6z" stroke="none"/><path d="M24,5.9L24,6.1L18.9,6.1L18.9,5.6L18.4,5.6L18.4,5.1L17.1,5.1L17.1,5.6L13.9,5.6L13.9,5.1L12.6,5.1L12.6,5.6L12.1,5.6L12.1,6.1L10.5,6.1L10.5,5.9L11.9,5.9L11.9,5.4L12.4,5.4L12.4,4.9L14.1,4.9L14.1,5.4L16.9,5.4L16.9,4.9L18.6,4.9L18.6,5.4L19.1,5.4L19.1,5.9z" stroke="none"/><path d="M16.5,4.6L16.5,4.4L26.6,4.4L26.6,4.9L27.6,4.9L27.6,5.4L30.9,5.4L30.9,4.9L31.4,4.9L31.4,4.5L31.6,4.5L31.6,5.1L31.1,5.1L31.1,5.6L27.4,5.6L27.4,5.1L26.4,5.1L26.4,4.6z" stroke="none"/><path d="M30,2.9L30,3.1L14.6,3.1L14.6,3.6L12.6,3.6L12.6,4.6L11.6,4.6L11.6,5.1L10.1,5.1L10.1,5.6L9.6,5.6L9.6,6.9L10.9,6.9L10.9,6.4L12.9,6.4L12.9,5.9L13.5,5.9L13.5,6.1L13.1,6.1L13.1,6.6L11.1,6.6L11.1,7.1L9.4,7.1L9.4,5.4L9.9,5.4L9.9,4.9L11.4,4.9L11.4,4.4L12.4,4.4L12.4,3.4L14.4,3.4L14.4,2.9z" stroke="none"/><path d="M55.5,4.6L55.5,4.4L66.9,4.4L66.9,3.9L71.4,3.9L71.4,3.4L73.1,3.4L73.1,3.9L73.6,3.9L73.6,4.5L73.4,4.5L73.4,4.1L72.9,4.1L72.9,3.6L71.6,3.6L71.6,4.1L67.1,4.1L67.1,4.6z" stroke="none"/><path d="M40.5,11.9L40.5,12.1L33.9,12.1L33.9,11.6L33.4,11.6L33.4,9.4L33.9,9.4L33.9,8.1L22.9,8.1L22.9,7.6L22.5,7.6L22.5,7.4L23.1,7.4L23.1,7.9L34.1,7.9L34.1,9.6L33.6,9.6L33.6,11.4L34.1,11.4L34.1,11.9z" stroke="none"/><path d="M28.5,11.9L28.5,12.1L13.4,12.1L13.4,11.6L12.4,11.6L12.4,11.1L10.4,11.1L10.4,10.6L8.9,10.6L8.9,9.1L7.5,9.1L7.5,8.9L9.1,8.9L9.1,10.4L10.6,10.4L10.6,10.9L12.6,10.9L12.6,11.4L13.6,11.4L13.6,11.9z" stroke="none"/><path d="M79.5,10.4L79.5,10.6L73.1,10.6L73.1,11.1L71.1,11.1L71.1,11.6L69.4,11.6L69.4,11.1L56.9,11.1L56.9,10.5L57.1,10.5L57.1,10.9L69.6,10.9L69.6,11.4L70.9,11.4L70.9,10.9L72.9,10.9L72.9,10.4z" stroke="none"/><path d="M84,3.1L84,2.9L90.4,2.9L90.4,2.4L92.4,2.4L92.4,1.9L97.6,1.9L97.6,2.4L98.1,2.4L98.1,2.9L98.6,2.9L98.6,4.4L100.6,4.4L100.6,4.9L101.1,4.9L101.1,5.4L102.1,5.4L102.1,6.4L103.1,6.4L103.1,8.1L102.6,8.1L102.6,8.6L100.4,8.6L100.4,8.1L93.1,8.1L93.1,9.6L92.6,9.6L92.6,10.1L89.9,10.1L89.9,9.6L89.4,9.6L89.4,9.1L87.9,9.1L87.9,8.6L87.4,8.6L87.4,8.1L86.1,8.1L86.1,8.6L85.6,8.6L85.6,9.6L85.1,9.6L85.1,10.1L83.4,10.1L83.4,9.6L81.4,9.6L81.4,9.1L65.4,9.1L65.4,8.6L64.9,8.6L64.9,8.1L64.4,8.1L64.4,7.6L60,7.6L60,7.4L64.6,7.4L64.6,7.9L65.1,7.9L65.1,8.4L65.6,8.4L65.6,8.9L81.6,8.9L81.6,9.4L83.6,9.4L83.6,9.9L84.9,9.9L84.9,9.4L85.4,9.4L85.4,8.4L85.9,8.4L85.9,7.9L87.6,7.9L87.6,8.4L88.1,8.4L88.1,8.9L89.6,8.9L89.6,9.4L90.1,9.4L90.1,9.9L92.4,9.9L92.4,9.4L92.9,9.4L92.9,7.9L100.6,7.9L100.6,8.4L102.4,8.4L102.4,7.9L102.9,7.9L102.9,6.6L101.9,6.6L101.9,5.6L100.9,5.6L100.9,5.1L100.4,5.1L100.4,4.6L98.4,4.6L98.4,3.1L97.9,3.1L97.9,2.6L97.4,2.6L97.4,2.1L92.6,2.1L92.6,2.6L90.6,2.6L90.6,3.1z" stroke="none"/><path d="M61.5,2.9L61.5,3.1L57.9,3.1L57.9,2.1L38.1,2.1L38.1,4.6L37.6,4.6L37.6,5.6L36.6,5.6L36.6,6.1L36,6.1L36,5.9L36.4,5.9L36.4,5.4L37.4,5.4L37.4,4.4L37.9,4.4L37.9,1.9L58.1,1.9L58.1,2.9z" stroke="none"/><path d="M25.5,10.6L25.5,10.4L28.6,10.4L28.6,10.9L29.1,10.9L29.1,11.4L29.6,11.4L29.6,11.9L30.1,11.9L30.1,12.4L30.6,12.4L30.6,12.9L54.4,12.9L54.4,12.4L56.4,12.4L56.4,11.9L58.5,11.9L58.5,12.1L56.6,12.1L56.6,12.6L54.6,12.6L54.6,13.1L30.4,13.1L30.4,12.6L29.9,12.6L29.9,12.1L29.4,12.1L29.4,11.6L28.9,11.6L28.9,11.1L28.4,11.1L28.4,10.6z" stroke="none"/><path d="M67.5,2.9L67.5,3.1L67.1,3.1L67.1,3.6L66.6,3.6L66.6,4.1L64.9,4.1L64.9,3.6L63.9,3.6L63.9,3.1L63.4,3.1L63.4,2.1L58.4,2.1L58.4,1.6L36.1,1.6L36.1,2.1L35.1,2.1L35.1,2.6L32.1,2.6L32.1,3.1L31.1,3.1L31.1,4.1L28.6,4.1L28.6,4.5L28.4,4.5L28.4,3.9L30.9,3.9L30.9,2.9L31.9,2.9L31.9,2.4L34.9,2.4L34.9,1.9L35.9,1.9L35.9,1.4L58.6,1.4L58.6,1.9L63.6,1.9L63.6,2.9L64.1,2.9L64.1,3.4L65.1,3.4L65.1,3.9L66.4,3.9L66.4,3.4L66.9,3.4L66.9,2.9z" stroke="none"/><path d="M42,7.4L42,7.6L23.4,7.6L23.4,7.1L22.9,7.1L22.9,6.6L22.1,6.6L22.1,7.1L21.6,7.1L21.6,8.4L22.1,8.4L22.1,10.1L16.6,10.1L16.6,10.6L16.1,10.6L16.1,11.6L14.4,11.6L14.4,11.1L13.9,11.1L13.9,10.6L11.4,10.6L11.4,10.1L9.9,10.1L9.9,9.6L9.4,9.6L9.4,8.6L8.4,8.6L8.4,8.1L7.1,8.1L7.1,8.6L6.6,8.6L6.6,9.4L7.1,9.4L7.1,9.9L7.6,9.9L7.6,10.9L9.6,10.9L9.6,11.4L11.6,11.4L11.6,11.9L13.1,11.9L13.1,12.4L28.1,12.4L28.1,12.9L28.6,12.9L28.6,13.4L84.9,13.4L84.9,11.9L85.5,11.9L85.5,12.1L85.1,12.1L85.1,13.6L28.4,13.6L28.4,13.1L27.9,13.1L27.9,12.6L12.9,12.6L12.9,12.1L11.4,12.1L11.4,11.6L9.4,11.6L9.4,11.1L7.4,11.1L7.4,10.1L6.9,10.1L6.9,9.6L6.4,9.6L6.4,8.4L6.9,8.4L6.9,7.9L8.6,7.9L8.6,8.4L9.6,8.4L9.6,9.4L10.1,9.4L10.1,9.9L11.6,9.9L11.6,10.4L14.1,10.4L14.1,10.9L14.6,10.9L14.6,11.4L15.9,11.4L15.9,10.4L16.4,10.4L16.4,9.9L21.9,9.9L21.9,8.6L21.4,8.6L21.4,6.9L21.9,6.9L21.9,6.4L23.1,6.4L23.1,6.9L23.6,6.9L23.6,7.4z" stroke="none"/></svg>