<svg version="1.1" width="105" height="15" xmlns="http://www.w3.org/2000/svg"><path d="M15.9,3.9L15.9,3.6L14.9,3.6L14.9,3L15.1,3L15.1,3.4L16.1,3.4L16.1,3.9L16.4,3.9L16.4,3.4L16.9,3.4L16.9,2.9L18,2.9L18,3.1L17.1,3.1L17.1,3.6L16.6,3.6L16.6,4.1L15.6,4.1L15.6,4.6L14.6,4.6L14.6,5.1L13.6,5.1L13.6,6L13.4,6L13.4,4.9L14.4,4.9L14.4,4.4L15.4,4.4L15.4,3.9z" stroke="none"/><path d="M19.9,9.9L19.9,8.9L20.4,8.9L20.4,8.4L20.9,8.4L20.9,7.9L21.4,7.9L21.4,7.4L22.5,7.4L22.5,7.6L21.6,7.6L21.6,8.1L21.1,8.1L21.1,8.6L20.6,8.6L20.6,9.1L20.1,9.1L20.1,9.9L20.4,9.9L20.4,9.4L20.9,9.4L20.9,9L21.1,9L21.1,9.6L20.6,9.6L20.6,10.1L19.6,10.1L19.6,10.6L19.1,10.6L19.1,11.1L18.1,11.1L18.1,12L17.9,12L17.9,10.9L18.9,10.9L18.9,10.4L19.4,10.4L19.4,9.9z" stroke="none"/><path d="M77.4,6.4L77.4,6.1L67.5,6.1L67.5,5.9L77.6,5.9L77.6,6.4L82.9,6.4L82.9,5.9L85.4,5.9L85.4,5.4L85.9,5.4L85.9,4.9L92.6,4.9L92.6,5.4L93.1,5.4L93.1,6L92.9,6L92.9,5.6L92.4,5.6L92.4,5.1L86.1,5.1L86.1,5.6L85.6,5.6L85.6,6.1L83.1,6.1L83.1,6.6L72.1,6.6L72.1,7.1L70.6,7.1L70.6,7.5L70.4,7.5L70.4,6.9L71.9,6.9L71.9,6.4z" stroke="none"/><path d="M48.4,8.4L48.4,8.1L41.6,8.1L41.6,8.6L36.6,8.6L36.6,9.6L35.1,9.6L35.1,10.6L34.5,10.6L34.5,10.4L34.9,10.4L34.9,9.4L36.4,9.4L36.4,8.4L41.4,8.4L41.4,7.9L48.6,7.9L48.6,8.4L51.4,8.4L51.4,7.4L51.9,7.4L51.9,6.4L52.4,6.4L52.4,6L52.6,6L52.6,6.6L52.1,6.6L52.1,7.6L51.6,7.6L51.6,8.6L48.6,8.6L48.6,8.9L51.9,8.9L51.9,8.4L52.9,8.4L52.9,6.9L53.4,6.9L53.4,6.4L53.9,6.4L53.9,6L54.1,6L54.1,6.6L53.6,6.6L53.6,7.1L53.1,7.1L53.1,8.6L52.1,8.6L52.1,9.1L48.4,9.1L48.4,8.6L48.1,8.6L48.1,9.4L53.1,9.4L53.1,9.9L53.6,9.9L53.6,10.4L55.5,10.4L55.5,10.6L53.4,10.6L53.4,10.1L52.9,10.1L52.9,9.6L47.9,9.6L47.9,8.4z" stroke="none"/><path d="M70.9,4.4L70.9,4.1L66.1,4.1L66.1,4.6L64.5,4.6L64.5,4.4L65.9,4.4L65.9,3.9L71.1,3.9L71.1,4.4L71.4,4.4L71.4,3.6L53.4,3.6L53.4,3.1L52.5,3.1L52.5,2.9L53.6,2.9L53.6,3.4L71.6,3.4L71.6,4.6L71.1,4.6L71.1,4.9L85.4,4.9L85.4,4.4L90.4,4.4L90.4,3.4L91.4,3.4L91.4,3L91.6,3L91.6,3.6L90.6,3.6L90.6,4.6L85.6,4.6L85.6,5.1L70.9,5.1L70.9,4.6L69.1,4.6L69.1,5.1L67.1,5.1L67.1,5.6L66.6,5.6L66.6,6.4L67.1,6.4L67.1,6.9L69.6,6.9L69.6,7.9L70.1,7.9L70.1,8.4L74.4,8.4L74.4,7.9L74.9,7.9L74.9,7.4L76.5,7.4L76.5,7.6L75.1,7.6L75.1,8.1L74.6,8.1L74.6,8.6L69.9,8.6L69.9,8.1L69.4,8.1L69.4,7.1L66.9,7.1L66.9,6.6L66.4,6.6L66.4,5.4L66.9,5.4L66.9,4.9L68.9,4.9L68.9,4.4z" stroke="none"/><path d="M65.9,7.9L65.9,7.6L59.4,7.6L59.4,7.1L56.4,7.1L56.4,6.1L55.9,6.1L55.9,5.1L55.4,5.1L55.4,4.6L51.9,4.6L51.9,4.1L51.4,4.1L51.4,2.4L51.9,2.4L51.9,1.9L92.1,1.9L92.1,2.4L93.6,2.4L93.6,4.4L94.1,4.4L94.1,7.1L92.6,7.1L92.6,7.6L91.5,7.6L91.5,7.4L92.4,7.4L92.4,6.9L93.9,6.9L93.9,4.6L93.4,4.6L93.4,2.6L91.9,2.6L91.9,2.1L52.1,2.1L52.1,2.6L51.6,2.6L51.6,3.9L52.1,3.9L52.1,4.4L55.6,4.4L55.6,4.9L56.1,4.9L56.1,5.9L56.6,5.9L56.6,6.9L59.6,6.9L59.6,7.4L66.1,7.4L66.1,7.9L68.6,7.9L68.6,8.9L82.6,8.9L82.6,9.9L83.1,9.9L83.1,10.4L85.5,10.4L85.5,10.6L82.9,10.6L82.9,10.1L82.4,10.1L82.4,9.1L68.4,9.1L68.4,8.1L66.1,8.1L66.1,8.6L58.6,8.6L58.6,9.6L57.6,9.6L57.6,10.6L57.1,10.6L57.1,11.6L43.9,11.6L43.9,10.1L42.4,10.1L42.4,9.6L41.9,9.6L41.9,9L42.1,9L42.1,9.4L42.6,9.4L42.6,9.9L44.1,9.9L44.1,11.4L56.9,11.4L56.9,10.4L57.4,10.4L57.4,9.4L58.4,9.4L58.4,8.4L65.9,8.4L65.9,8.1L58.9,8.1L58.9,7.6L55.4,7.6L55.4,6.6L54.9,6.6L54.9,5.6L54.4,5.6L54.4,5.1L49.1,5.1L49.1,5.6L46.6,5.6L46.6,6L46.4,6L46.4,5.4L48.9,5.4L48.9,4.9L54.6,4.9L54.6,5.4L55.1,5.4L55.1,6.4L55.6,6.4L55.6,7.4L59.1,7.4L59.1,7.9z" stroke="none"/><path d="M96,4.6L96,4.4L97.5,4.4L97.5,4.6z" stroke="none"/><path d="M8.9,3L9.1,3L9.1,4.5L8.9,4.5z" stroke="none"/><path d="M85.5,2.9L85.5,3.1L84,3.1L84,2.9z" stroke="none"/><path d="M25.5,11.9L25.5,12.1L24.9,12.1L24.9,11.1L23.9,11.1L23.9,10.5L24.1,10.5L24.1,10.9L25.1,10.9L25.1,11.9z" stroke="none"/><path d="M37.5,3.1L37.5,2.9L40.6,2.9L40.6,4.5L40.4,4.5L40.4,3.1z" stroke="none"/><path d="M9.1,9L8.9,9L8.9,6.4L9.4,6.4L9.4,5.9L10.4,5.9L10.4,4.9L10.9,4.9L10.9,4.4L12,4.4L12,4.6L11.1,4.6L11.1,5.1L10.6,5.1L10.6,6.1L9.6,6.1L9.6,6.6L9.1,6.6z" stroke="none"/><path d="M97.5,3.1L97.5,2.9L100.6,2.9L100.6,3.4L101.6,3.4L101.6,4.9L102.1,4.9L102.1,6L101.9,6L101.9,5.1L101.4,5.1L101.4,3.6L100.4,3.6L100.4,3.1z" stroke="none"/><path d="M85.5,11.9L85.5,12.1L85.1,12.1L85.1,13.1L81.9,13.1L81.9,12.6L80.9,12.6L80.9,12.1L79.5,12.1L79.5,11.9L81.1,11.9L81.1,12.4L82.1,12.4L82.1,12.9L84.9,12.9L84.9,11.9z" stroke="none"/><path d="M4.5,9.1L4.5,8.9L8.1,8.9L8.1,9.4L8.6,9.4L8.6,9.9L11.6,9.9L11.6,10.9L12.1,10.9L12.1,12L11.9,12L11.9,11.1L11.4,11.1L11.4,10.1L8.4,10.1L8.4,9.6L7.9,9.6L7.9,9.1z" stroke="none"/><path d="M7.6,4.5L7.4,4.5L7.4,2.4L7.9,2.4L7.9,1.9L18.6,1.9L18.6,2.4L19.1,2.4L19.1,5.6L18.6,5.6L18.6,6.1L18,6.1L18,5.9L18.4,5.9L18.4,5.4L18.9,5.4L18.9,2.6L18.4,2.6L18.4,2.1L8.1,2.1L8.1,2.6L7.6,2.6z" stroke="none"/><path d="M24,5.9L24,6.1L19.6,6.1L19.6,6.6L19.1,6.6L19.1,7.1L17.6,7.1L17.6,7.6L12,7.6L12,7.4L17.4,7.4L17.4,6.9L18.9,6.9L18.9,6.4L19.4,6.4L19.4,5.9z" stroke="none"/><path d="M88.5,12.1L88.5,11.9L94.4,11.9L94.4,11.4L96.4,11.4L96.4,9.4L99.4,9.4L99.4,8.4L99.9,8.4L99.9,7.9L100.4,7.9L100.4,7.5L100.6,7.5L100.6,8.1L100.1,8.1L100.1,8.6L99.6,8.6L99.6,9.6L96.6,9.6L96.6,11.6L94.6,11.6L94.6,12.1z" stroke="none"/><path d="M85.5,9.1L85.5,8.9L86.6,8.9L86.6,12.6L86.1,12.6L86.1,13.1L85.6,13.1L85.6,13.6L76.9,13.6L76.9,13.1L71.4,13.1L71.4,12.6L70.4,12.6L70.4,12L70.6,12L70.6,12.4L71.6,12.4L71.6,12.9L77.1,12.9L77.1,13.4L85.4,13.4L85.4,12.9L85.9,12.9L85.9,12.4L86.4,12.4L86.4,9.1z" stroke="none"/><path d="M39,4.4L39,4.6L21,4.6L21,4.4z" stroke="none"/><path d="M6.1,4.5L5.9,4.5L5.9,1.9L7.4,1.9L7.4,1.4L19.1,1.4L19.1,1.9L19.6,1.9L19.6,5.4L23.4,5.4L23.4,4.9L25.1,4.9L25.1,7.6L24.6,7.6L24.6,8.1L24.1,8.1L24.1,9L23.9,9L23.9,7.9L24.4,7.9L24.4,7.4L24.9,7.4L24.9,5.1L23.6,5.1L23.6,5.6L19.4,5.6L19.4,2.1L18.9,2.1L18.9,1.6L7.6,1.6L7.6,2.1L6.1,2.1z" stroke="none"/><path d="M22.5,2.9L22.5,3.1L20.9,3.1L20.9,1.6L19.9,1.6L19.9,1.1L3.6,1.1L3.6,3.1L3,3.1L3,2.9L3.4,2.9L3.4,0.9L20.1,0.9L20.1,1.4L21.1,1.4L21.1,2.9z" stroke="none"/><path d="M58.4,10.5L58.6,10.5L58.6,11.6L58.1,11.6L58.1,12.1L39,12.1L39,11.9L57.9,11.9L57.9,11.4L58.4,11.4z" stroke="none"/><path d="M12,9.1L12,8.9L15.1,8.9L15.1,9.4L15.6,9.4L15.6,9.9L16.1,9.9L16.1,10.9L16.6,10.9L16.6,11.4L17.1,11.4L17.1,12.4L17.6,12.4L17.6,12.9L27.4,12.9L27.4,11.9L28.9,11.9L28.9,11.4L30.4,11.4L30.4,10.9L31.4,10.9L31.4,10.5L31.6,10.5L31.6,11.1L30.6,11.1L30.6,11.6L29.1,11.6L29.1,12.1L27.6,12.1L27.6,13.1L17.4,13.1L17.4,12.6L16.9,12.6L16.9,11.6L16.4,11.6L16.4,11.1L15.9,11.1L15.9,10.1L15.4,10.1L15.4,9.6L14.9,9.6L14.9,9.1z" stroke="none"/><path d="M12,6.1L12,5.9L12.4,5.9L12.4,5.4L12.9,5.4L12.9,4.1L12.4,4.1L12.4,3.6L10.1,3.6L10.1,5.1L9.6,5.1L9.6,5.6L5.4,5.6L5.4,5.1L4.4,5.1L4.4,4.6L3.9,4.6L3.9,4.1L2.4,4.1L2.4,3.6L1.9,3.6L1.9,1.4L2.4,1.4L2.4,0.9L2.9,0.9L2.9,0.4L30.1,0.4L30.1,2.4L31.6,2.4L31.6,3L31.4,3L31.4,2.6L29.9,2.6L29.9,0.6L3.1,0.6L3.1,1.1L2.6,1.1L2.6,1.6L2.1,1.6L2.1,3.4L2.6,3.4L2.6,3.9L4.1,3.9L4.1,4.4L4.6,4.4L4.6,4.9L5.6,4.9L5.6,5.4L9.4,5.4L9.4,4.9L9.9,4.9L9.9,3.4L12.6,3.4L12.6,3.9L13.1,3.9L13.1,5.6L12.6,5.6L12.6,6.1z" stroke="none"/><path d="M27,7.6L27,7.4L49.5,7.4L49.5,7.6z" stroke="none"/><path d="M45.1,4.5L44.9,4.5L44.9,3.9L45.4,3.9L45.4,3.4L50.4,3.4L50.4,2.4L50.9,2.4L50.9,1.9L51.4,1.9L51.4,1.4L94.1,1.4L94.1,3.9L94.6,3.9L94.6,7.6L93.6,7.6L93.6,8.6L90.4,8.6L90.4,6.4L91.4,6.4L91.4,6L91.6,6L91.6,6.6L90.6,6.6L90.6,8.4L93.4,8.4L93.4,7.4L94.4,7.4L94.4,4.1L93.9,4.1L93.9,1.6L51.6,1.6L51.6,2.1L51.1,2.1L51.1,2.6L50.6,2.6L50.6,3.6L45.6,3.6L45.6,4.1L45.1,4.1z" stroke="none"/><path d="M84,11.9L84,12.1L83.4,12.1L83.4,11.6L79.9,11.6L79.9,11.1L59.6,11.1L59.6,12.1L58.6,12.1L58.6,12.6L39.6,12.6L39.6,13.1L33.9,13.1L33.9,11.1L33.4,11.1L33.4,9.9L33.9,9.9L33.9,8.9L34.5,8.9L34.5,9.1L34.1,9.1L34.1,10.1L33.6,10.1L33.6,10.9L34.1,10.9L34.1,12.9L39.4,12.9L39.4,12.4L58.4,12.4L58.4,11.9L59.4,11.9L59.4,10.9L80.1,10.9L80.1,11.4L83.6,11.4L83.6,11.9z" stroke="none"/><path d="M32.9,12L33.1,12L33.1,12.9L33.6,12.9L33.6,13.4L75.6,13.4L75.6,13.9L86.4,13.9L86.4,13.4L86.9,13.4L86.9,8.6L86.4,8.6L86.4,8.1L82.9,8.1L82.9,7.6L82.5,7.6L82.5,7.4L83.1,7.4L83.1,7.9L86.6,7.9L86.6,8.4L87.1,8.4L87.1,13.6L86.6,13.6L86.6,14.1L75.4,14.1L75.4,13.6L33.4,13.6L33.4,13.1L32.9,13.1z" stroke="none"/><path d="M96.1,9L95.9,9L95.9,6.1L95.4,6.1L95.4,5.6L94.9,5.6L94.9,2.1L94.4,2.1L94.4,1.1L46.1,1.1L46.1,2.6L45.6,2.6L45.6,3.1L45.1,3.1L45.1,3.6L44.6,3.6L44.6,4.1L44.1,4.1L44.1,4.9L44.6,4.9L44.6,5.4L45.4,5.4L45.4,4.9L45.9,4.9L45.9,4.4L46.5,4.4L46.5,4.6L46.1,4.6L46.1,5.1L45.6,5.1L45.6,5.6L44.4,5.6L44.4,5.1L43.9,5.1L43.9,3.9L44.4,3.9L44.4,3.4L44.9,3.4L44.9,2.9L45.4,2.9L45.4,2.4L45.9,2.4L45.9,0.9L94.6,0.9L94.6,1.9L95.1,1.9L95.1,5.4L95.6,5.4L95.6,5.9L96.1,5.9z" stroke="none"/></svg>