<svg version="1.1" width="105" height="15" xmlns="http://www.w3.org/2000/svg"><path d="M52.9,8.4L52.9,7.9L53.4,7.9L53.4,7.4L54,7.4L54,7.6L53.6,7.6L53.6,8.1L53.1,8.1L53.1,8.6L49.1,8.6L49.1,9.9L49.6,9.9L49.6,10.5L49.4,10.5L49.4,10.1L48.9,10.1L48.9,8.6L43.4,8.6L43.4,7.5L43.6,7.5L43.6,8.4z" stroke="none"/><path d="M43.1,4.9L43.1,5.4L52.9,5.4L52.9,4.4L58.5,4.4L58.5,4.6L53.1,4.6L53.1,5.6L42.9,5.6L42.9,5.1L35.6,5.1L35.6,5.6L28.6,5.6L28.6,6.1L25.6,6.1L25.6,7.1L18.4,7.1L18.4,6.6L17.1,6.6L17.1,7.6L16.5,7.6L16.5,7.4L16.9,7.4L16.9,6.4L18.6,6.4L18.6,6.9L25.4,6.9L25.4,5.9L28.4,5.9L28.4,5.4L35.4,5.4L35.4,5.1L34.9,5.1L34.9,4.6L33.9,4.6L33.9,4.1L32.9,4.1L32.9,3.6L31.4,3.6L31.4,3L31.6,3L31.6,3.4L33.1,3.4L33.1,3.9L34.1,3.9L34.1,4.4L35.1,4.4L35.1,4.9z" stroke="none"/><path d="M62.9,5.4L62.9,5.1L60.4,5.1L60.4,4.6L59.4,4.6L59.4,4.1L58.9,4.1L58.9,3.6L53.4,3.6L53.4,3.1L51,3.1L51,2.9L53.6,2.9L53.6,3.4L59.1,3.4L59.1,3.9L59.6,3.9L59.6,4.4L60.6,4.4L60.6,4.9L63.1,4.9L63.1,5.4L81.1,5.4L81.1,6L80.9,6L80.9,5.6L59.6,5.6L59.6,6.1L57.6,6.1L57.6,7.1L57.1,7.1L57.1,7.5L56.9,7.5L56.9,6.9L57.4,6.9L57.4,5.9L59.4,5.9L59.4,5.4z" stroke="none"/><path d="M14.4,5.4L14.4,4.1L13.9,4.1L13.9,3.1L13.5,3.1L13.5,2.9L14.1,2.9L14.1,3.9L14.6,3.9L14.6,5.4L18.1,5.4L18.1,5.9L19.5,5.9L19.5,6.1L17.9,6.1L17.9,5.6L14.6,5.6L14.6,8.4L17.4,8.4L17.4,7.4L18,7.4L18,7.6L17.6,7.6L17.6,8.6L14.4,8.6L14.4,5.6L4.4,5.6L4.4,4.5L4.6,4.5L4.6,5.4z" stroke="none"/><path d="M32.9,10.9L32.9,10.4L40.6,10.4L40.6,10.9L41.6,10.9L41.6,11.4L47.1,11.4L47.1,11.9L48.1,11.9L48.1,12.4L48.6,12.4L48.6,12.9L53.9,12.9L53.9,12.4L54.4,12.4L54.4,10.9L58.4,10.9L58.4,10.5L58.6,10.5L58.6,11.1L54.6,11.1L54.6,12.6L54.1,12.6L54.1,13.1L48.4,13.1L48.4,12.6L47.9,12.6L47.9,12.1L46.9,12.1L46.9,11.6L41.4,11.6L41.4,11.1L40.4,11.1L40.4,10.6L33.1,10.6L33.1,10.9L35.1,10.9L35.1,11.4L36.1,11.4L36.1,12L35.9,12L35.9,11.6L34.9,11.6L34.9,11.1L33.1,11.1L33.1,11.6L17.1,11.6L17.1,12.1L15,12.1L15,11.9L16.9,11.9L16.9,11.4L32.9,11.4L32.9,11.1L22.4,11.1L22.4,10.5L22.6,10.5L22.6,10.9z" stroke="none"/><path d="M74.9,8.9L74.9,8.4L75.9,8.4L75.9,7.9L76.4,7.9L76.4,7.4L99,7.4L99,7.6L76.6,7.6L76.6,8.1L76.1,8.1L76.1,8.6L75.1,8.6L75.1,8.9L76.9,8.9L76.9,8.4L77.4,8.4L77.4,7.9L97.1,7.9L97.1,8.4L98.1,8.4L98.1,9.4L98.6,9.4L98.6,9.9L99.1,9.9L99.1,10.5L98.9,10.5L98.9,10.1L98.4,10.1L98.4,9.6L97.9,9.6L97.9,8.6L96.9,8.6L96.9,8.1L77.6,8.1L77.6,8.6L77.1,8.6L77.1,9.1L75.1,9.1L75.1,9.6L54.1,9.6L54.1,10.1L53.6,10.1L53.6,11.1L53.1,11.1L53.1,11.6L50.6,11.6L50.6,12.1L49.5,12.1L49.5,11.9L50.4,11.9L50.4,11.4L52.9,11.4L52.9,10.9L53.4,10.9L53.4,9.9L53.9,9.9L53.9,9.4L74.9,9.4L74.9,9.1L51.6,9.1L51.6,9.6L51.1,9.6L51.1,11.1L50.1,11.1L50.1,11.6L47.4,11.6L47.4,11.1L46.4,11.1L46.4,10.6L44.4,10.6L44.4,10.1L43.9,10.1L43.9,9.1L42.9,9.1L42.9,8.1L42.4,8.1L42.4,6.9L42.9,6.9L42.9,6.4L49.1,6.4L49.1,6.9L50.6,6.9L50.6,7.4L52.5,7.4L52.5,7.6L50.4,7.6L50.4,7.1L48.9,7.1L48.9,6.6L43.1,6.6L43.1,7.1L42.6,7.1L42.6,7.9L43.1,7.9L43.1,8.9L44.1,8.9L44.1,9.9L44.6,9.9L44.6,10.4L46.6,10.4L46.6,10.9L47.6,10.9L47.6,11.4L49.9,11.4L49.9,10.9L50.9,10.9L50.9,9.4L51.4,9.4L51.4,8.9z" stroke="none"/><path d="M63.1,12L62.9,12L62.9,10.5L63.1,10.5z" stroke="none"/><path d="M40.4,9L40.6,9L40.6,9.9L41.6,9.9L41.6,10.4L42,10.4L42,10.6L41.4,10.6L41.4,10.1L40.4,10.1z" stroke="none"/><path d="M37.5,11.9L37.5,12.1L37.1,12.1L37.1,13.1L35.4,13.1L35.4,12.6L34.4,12.6L34.4,12L34.6,12L34.6,12.4L35.6,12.4L35.6,12.9L36.9,12.9L36.9,11.9z" stroke="none"/><path d="M13.5,4.4L13.5,4.6L6.9,4.6L6.9,4.1L4.9,4.1L4.9,3.6L3.6,3.6L3.6,5.4L4.1,5.4L4.1,5.9L9.6,5.9L9.6,6.4L11.6,6.4L11.6,6.9L12.1,6.9L12.1,7.5L11.9,7.5L11.9,7.1L11.4,7.1L11.4,6.6L9.4,6.6L9.4,6.1L3.9,6.1L3.9,5.6L3.4,5.6L3.4,3.4L5.1,3.4L5.1,3.9L7.1,3.9L7.1,4.4z" stroke="none"/><path d="M3,10.6L3,10.4L6.1,10.4L6.1,10.9L7.6,10.9L7.6,12L7.4,12L7.4,11.1L5.9,11.1L5.9,10.6z" stroke="none"/><path d="M96.1,12L95.9,12L95.9,11.6L95.4,11.6L95.4,11.1L91.9,11.1L91.9,9.6L91.4,9.6L91.4,9L91.6,9L91.6,9.4L92.1,9.4L92.1,10.9L95.6,10.9L95.6,11.4L96.1,11.4z" stroke="none"/><path d="M19.5,10.4L19.5,10.6L12,10.6L12,10.4z" stroke="none"/><path d="M87,11.9L87,12.1L81.4,12.1L81.4,11.6L80.4,11.6L80.4,10.6L78,10.6L78,10.4L80.6,10.4L80.6,11.4L81.6,11.4L81.6,11.9z" stroke="none"/><path d="M90,3.1L90,2.9L98.1,2.9L98.1,3.9L98.6,3.9L98.6,4.4L99.6,4.4L99.6,4.9L100.1,4.9L100.1,5.9L100.5,5.9L100.5,6.1L99.9,6.1L99.9,5.1L99.4,5.1L99.4,4.6L98.4,4.6L98.4,4.1L97.9,4.1L97.9,3.1z" stroke="none"/><path d="M40.5,6.1L40.5,5.9L54,5.9L54,6.1z" stroke="none"/><path d="M43.5,10.4L43.5,10.6L42.9,10.6L42.9,10.1L42.4,10.1L42.4,9.1L41.9,9.1L41.9,8.6L40.9,8.6L40.9,8.1L39.6,8.1L39.6,8.6L30.1,8.6L30.1,9L29.9,9L29.9,8.4L39.4,8.4L39.4,7.9L41.1,7.9L41.1,8.4L42.1,8.4L42.1,8.9L42.6,8.9L42.6,9.9L43.1,9.9L43.1,10.4z" stroke="none"/><path d="M70.5,7.6L70.5,7.4L75.9,7.4L75.9,6.9L81.4,6.9L81.4,6.4L81.9,6.4L81.9,5.9L82.4,5.9L82.4,4.9L83.4,4.9L83.4,4.4L84,4.4L84,4.6L83.6,4.6L83.6,5.1L82.6,5.1L82.6,6.1L82.1,6.1L82.1,6.6L81.6,6.6L81.6,7.1L76.1,7.1L76.1,7.6z" stroke="none"/><path d="M97.4,12L97.6,12L97.6,12.6L97.1,12.6L97.1,13.1L88.9,13.1L88.9,12.6L88.4,12.6L88.4,11.6L87.9,11.6L87.9,11.1L84.9,11.1L84.9,10.6L82.5,10.6L82.5,10.4L85.1,10.4L85.1,10.9L88.1,10.9L88.1,11.4L88.6,11.4L88.6,12.4L89.1,12.4L89.1,12.9L96.9,12.9L96.9,12.4L97.4,12.4z" stroke="none"/><path d="M93,11.9L93,12.1L89.9,12.1L89.9,11.1L88.4,11.1L88.4,10.6L85.4,10.6L85.4,10.1L82.9,10.1L82.9,9.6L80.4,9.6L80.4,9.1L78,9.1L78,8.9L80.6,8.9L80.6,9.4L83.1,9.4L83.1,9.9L85.6,9.9L85.6,10.4L88.6,10.4L88.6,10.9L90.1,10.9L90.1,11.9z" stroke="none"/><path d="M48,2.9L48,3.1L47.4,3.1L47.4,2.6L46.9,2.6L46.9,2.1L30.6,2.1L30.6,2.6L29.6,2.6L29.6,4.1L29.1,4.1L29.1,4.6L28.5,4.6L28.5,4.4L28.9,4.4L28.9,3.9L29.4,3.9L29.4,2.4L30.4,2.4L30.4,1.9L47.1,1.9L47.1,2.4L47.6,2.4L47.6,2.9z" stroke="none"/><path d="M18,4.4L18,4.6L15.4,4.6L15.4,4.1L14.9,4.1L14.9,3.6L14.4,3.6L14.4,2.6L13.9,2.6L13.9,2.1L4.1,2.1L4.1,2.6L3.6,2.6L3.6,3.1L3.1,3.1L3.1,5.9L3.6,5.9L3.6,6.4L9.1,6.4L9.1,6.9L11.1,6.9L11.1,7.9L11.6,7.9L11.6,8.4L14.1,8.4L14.1,8.9L19.9,8.9L19.9,8.4L20.4,8.4L20.4,7.9L37.4,7.9L37.4,7.5L37.6,7.5L37.6,8.1L20.6,8.1L20.6,8.6L20.1,8.6L20.1,9.1L13.9,9.1L13.9,8.6L11.4,8.6L11.4,8.1L10.9,8.1L10.9,7.1L8.9,7.1L8.9,6.6L3.4,6.6L3.4,6.1L2.9,6.1L2.9,2.9L3.4,2.9L3.4,2.4L3.9,2.4L3.9,1.9L14.1,1.9L14.1,2.4L14.6,2.4L14.6,3.4L15.1,3.4L15.1,3.9L15.6,3.9L15.6,4.4z" stroke="none"/><path d="M79.5,12.1L79.5,11.9L80.1,11.9L80.1,12.4L86.6,12.4L86.6,12.9L88.6,12.9L88.6,13.4L97.9,13.4L97.9,12.4L99.4,12.4L99.4,11.9L99.9,11.9L99.9,11.4L101.4,11.4L101.4,9.6L100.4,9.6L100.4,9L100.6,9L100.6,9.4L101.6,9.4L101.6,11.6L100.1,11.6L100.1,12.1L99.6,12.1L99.6,12.6L98.1,12.6L98.1,13.6L88.4,13.6L88.4,13.1L86.4,13.1L86.4,12.6L79.9,12.6L79.9,12.1z" stroke="none"/><path d="M27,8.9L27,9.1L20.6,9.1L20.6,9.6L11.6,9.6L11.6,10.1L11.1,10.1L11.1,13.1L6.4,13.1L6.4,12.1L6,12.1L6,11.9L6.6,11.9L6.6,12.9L10.9,12.9L10.9,9.9L11.4,9.9L11.4,9.4L20.4,9.4L20.4,8.9z" stroke="none"/><path d="M22.5,4.6L22.5,4.4L25.4,4.4L25.4,3.9L26.9,3.9L26.9,3.4L27.9,3.4L27.9,2.9L28.4,2.9L28.4,2.4L28.9,2.4L28.9,1.9L29.9,1.9L29.9,1.4L47.6,1.4L47.6,1.9L48.6,1.9L48.6,2.4L49.1,2.4L49.1,3.6L48.6,3.6L48.6,4.1L47.4,4.1L47.4,3.6L46.4,3.6L46.4,3L46.6,3L46.6,3.4L47.6,3.4L47.6,3.9L48.4,3.9L48.4,3.4L48.9,3.4L48.9,2.6L48.4,2.6L48.4,2.1L47.4,2.1L47.4,1.6L30.1,1.6L30.1,2.1L29.1,2.1L29.1,2.6L28.6,2.6L28.6,3.1L28.1,3.1L28.1,3.6L27.1,3.6L27.1,4.1L25.6,4.1L25.6,4.6z" stroke="none"/><path d="M78,3.1L78,2.9L85.9,2.9L85.9,2.4L86.4,2.4L86.4,1.9L99.6,1.9L99.6,2.4L100.6,2.4L100.6,2.9L101.1,2.9L101.1,3.4L101.6,3.4L101.6,3.9L102.1,3.9L102.1,4.5L101.9,4.5L101.9,4.1L101.4,4.1L101.4,3.6L100.9,3.6L100.9,3.1L100.4,3.1L100.4,2.6L99.4,2.6L99.4,2.1L86.6,2.1L86.6,2.6L86.1,2.6L86.1,3.1z" stroke="none"/><path d="M100.5,10.4L100.5,10.6L99.9,10.6L99.9,9.6L99.4,9.6L99.4,8.4L99.9,8.4L99.9,7.9L101.6,7.9L101.6,8.4L102.1,8.4L102.1,12.1L100.6,12.1L100.6,12.6L100.1,12.6L100.1,13.1L98.6,13.1L98.6,14.1L73.4,14.1L73.4,13.6L71.4,13.6L71.4,12.1L70.4,12.1L70.4,11.6L69.9,11.6L69.9,10.6L69,10.6L69,10.4L70.1,10.4L70.1,11.4L70.6,11.4L70.6,11.9L71.6,11.9L71.6,13.4L73.6,13.4L73.6,13.9L98.4,13.9L98.4,12.9L99.9,12.9L99.9,12.4L100.4,12.4L100.4,11.9L101.9,11.9L101.9,8.6L101.4,8.6L101.4,8.1L100.1,8.1L100.1,8.6L99.6,8.6L99.6,9.4L100.1,9.4L100.1,10.4z" stroke="none"/><path d="M102,2.9L102,3.1L101.4,3.1L101.4,2.1L99.9,2.1L99.9,1.6L72.1,1.6L72.1,2.6L71.1,2.6L71.1,3.1L70.6,3.1L70.6,4.5L70.4,4.5L70.4,2.9L70.9,2.9L70.9,2.4L71.9,2.4L71.9,1.4L100.1,1.4L100.1,1.9L101.6,1.9L101.6,2.9z" stroke="none"/><path d="M87,3.1L87,2.9L88.1,2.9L88.1,3.4L88.6,3.4L88.6,3.9L97.6,3.9L97.6,4.4L98.1,4.4L98.1,5.9L99.1,5.9L99.1,6.4L100.1,6.4L100.1,6.9L101.4,6.9L101.4,5.4L102.4,5.4L102.4,4.9L102.9,4.9L102.9,2.1L102.4,2.1L102.4,1.6L100.4,1.6L100.4,1.1L51.6,1.1L51.6,2.1L50.1,2.1L50.1,4.6L43.5,4.6L43.5,4.4L49.9,4.4L49.9,1.9L51.4,1.9L51.4,0.9L100.6,0.9L100.6,1.4L102.6,1.4L102.6,1.9L103.1,1.9L103.1,5.1L102.6,5.1L102.6,5.6L101.6,5.6L101.6,7.1L99.9,7.1L99.9,6.6L98.9,6.6L98.9,6.1L97.9,6.1L97.9,4.6L97.4,4.6L97.4,4.1L88.4,4.1L88.4,3.6L87.9,3.6L87.9,3.1z" stroke="none"/><path d="M60,10.4L60,10.6L59.6,10.6L59.6,11.6L57.6,11.6L57.6,12.1L57.1,12.1L57.1,12.6L55.1,12.6L55.1,13.1L54.6,13.1L54.6,13.6L12.9,13.6L12.9,12.6L11.9,12.6L11.9,12L12.1,12L12.1,12.4L13.1,12.4L13.1,13.4L54.4,13.4L54.4,12.9L54.9,12.9L54.9,12.4L56.9,12.4L56.9,11.9L57.4,11.9L57.4,11.4L59.4,11.4L59.4,10.4z" stroke="none"/></svg>