<svg version="1.1" width="105" height="15" xmlns="http://www.w3.org/2000/svg"><path d="M97.9,9.9L97.9,9.4L98.4,9.4L98.4,8.9L101.4,8.9L101.4,7.4L102,7.4L102,7.6L101.6,7.6L101.6,9.1L98.6,9.1L98.6,9.6L98.1,9.6L98.1,9.9L98.9,9.9L98.9,9.4L101.1,9.4L101.1,9.9L101.6,9.9L101.6,10.4L102,10.4L102,10.6L101.4,10.6L101.4,10.1L100.9,10.1L100.9,9.6L99.1,9.6L99.1,10.1L95.1,10.1L95.1,10.6L92.6,10.6L92.6,11.1L91.1,11.1L91.1,11.6L90.6,11.6L90.6,12.1L90,12.1L90,11.9L90.4,11.9L90.4,11.4L90.9,11.4L90.9,10.9L92.4,10.9L92.4,10.4L94.9,10.4L94.9,9.9z" stroke="none"/><path d="M16.4,4.4L16.4,4.1L8.9,4.1L8.9,3.1L6.9,3.1L6.9,2.6L3.1,2.6L3.1,3L2.9,3L2.9,2.4L7.1,2.4L7.1,2.9L9.1,2.9L9.1,3.9L16.6,3.9L16.6,4.4L17.1,4.4L17.1,5.4L38.6,5.4L38.6,5.9L39.1,5.9L39.1,6.4L39.6,6.4L39.6,6.9L40.1,6.9L40.1,7.4L40.5,7.4L40.5,7.6L39.9,7.6L39.9,7.1L39.4,7.1L39.4,6.6L38.9,6.6L38.9,6.1L38.4,6.1L38.4,5.6L16.9,5.6L16.9,4.6L6.9,4.6L6.9,3.6L6.4,3.6L6.4,3.1L6,3.1L6,2.9L6.6,2.9L6.6,3.4L7.1,3.4L7.1,4.4z" stroke="none"/><path d="M76.1,4.9L76.1,5.4L82.9,5.4L82.9,4.9L83.9,4.9L83.9,4.5L84.1,4.5L84.1,5.1L83.1,5.1L83.1,5.6L75.9,5.6L75.9,5.1L71.1,5.1L71.1,5.4L75.6,5.4L75.6,5.9L83.1,5.9L83.1,6.4L83.6,6.4L83.6,6.9L86.4,6.9L86.4,6.4L86.9,6.4L86.9,6L87.1,6L87.1,6.6L86.6,6.6L86.6,7.1L83.4,7.1L83.4,6.6L82.9,6.6L82.9,6.1L75.4,6.1L75.4,5.6L70.9,5.6L70.9,5.1L42.4,5.1L42.4,4.6L42,4.6L42,4.4L42.6,4.4L42.6,4.9z" stroke="none"/><path d="M38.4,7.9L38.4,7.6L28.4,7.6L28.4,7.1L27.9,7.1L27.9,6.6L14.1,6.6L14.1,7.6L12,7.6L12,7.4L13.9,7.4L13.9,6.4L28.1,6.4L28.1,6.9L28.6,6.9L28.6,7.4L38.6,7.4L38.6,7.9L39.6,7.9L39.6,8.4L46.1,8.4L46.1,8.9L46.5,8.9L46.5,9.1L45.9,9.1L45.9,8.6L39.4,8.6L39.4,8.1L38.6,8.1L38.6,8.4L39.1,8.4L39.1,8.9L45.6,8.9L45.6,9.4L58.4,9.4L58.4,9L58.6,9L58.6,9.6L45.4,9.6L45.4,9.1L38.9,9.1L38.9,8.6L38.4,8.6L38.4,8.1L37.1,8.1L37.1,8.6L36.6,8.6L36.6,9.1L36,9.1L36,8.9L36.4,8.9L36.4,8.4L36.9,8.4L36.9,7.9z" stroke="none"/><path d="M73.4,8.4L73.4,7.9L73.9,7.9L73.9,7.4L74.4,7.4L74.4,6.9L77.6,6.9L77.6,8.4L83.4,8.4L83.4,7.9L87.6,7.9L87.6,8.4L91.6,8.4L91.6,9L91.4,9L91.4,8.6L87.4,8.6L87.4,8.1L83.6,8.1L83.6,8.6L77.4,8.6L77.4,7.1L74.6,7.1L74.6,7.6L74.1,7.6L74.1,8.1L73.6,8.1L73.6,8.4L74.4,8.4L74.4,7.9L74.9,7.9L74.9,7.4L76.5,7.4L76.5,7.6L75.1,7.6L75.1,8.1L74.6,8.1L74.6,8.6L73.6,8.6L73.6,8.9L80.6,8.9L80.6,9.4L81.6,9.4L81.6,9.9L82.6,9.9L82.6,10.5L82.4,10.5L82.4,10.1L81.4,10.1L81.4,9.6L80.4,9.6L80.4,9.1L73.4,9.1L73.4,8.6L60.4,8.6L60.4,8.1L44.9,8.1L44.9,7.5L45.1,7.5L45.1,7.9L60.6,7.9L60.6,8.4z" stroke="none"/><path d="M57.4,10.4L57.4,10.1L39.4,10.1L39.4,9.6L37.4,9.6L37.4,9L37.6,9L37.6,9.4L39.6,9.4L39.6,9.9L57.6,9.9L57.6,10.4L62.6,10.4L62.6,11.4L63.6,11.4L63.6,11.9L64.5,11.9L64.5,12.1L63.4,12.1L63.4,11.6L62.4,11.6L62.4,10.6L57.6,10.6L57.6,10.9L62.1,10.9L62.1,11.9L63.1,11.9L63.1,12.4L75.9,12.4L75.9,11.4L78.4,11.4L78.4,10.9L78.9,10.9L78.9,10.4L81,10.4L81,10.6L79.1,10.6L79.1,11.1L78.6,11.1L78.6,11.6L76.1,11.6L76.1,12.6L62.9,12.6L62.9,12.1L61.9,12.1L61.9,11.1L57.4,11.1L57.4,10.6L51.1,10.6L51.1,11.1L48.1,11.1L48.1,12L47.9,12L47.9,10.9L50.9,10.9L50.9,10.4z" stroke="none"/><path d="M93,11.9L93,12.1L91.5,12.1L91.5,11.9z" stroke="none"/><path d="M2.9,9L3.1,9L3.1,10.5L2.9,10.5z" stroke="none"/><path d="M70.5,7.4L70.5,7.6L69,7.6L69,7.4z" stroke="none"/><path d="M84,6.1L84,5.9L85.4,5.9L85.4,5.4L85.9,5.4L85.9,4.9L87.6,4.9L87.6,5.4L88.1,5.4L88.1,6.6L87.6,6.6L87.6,7.1L87.1,7.1L87.1,7.6L82.5,7.6L82.5,7.4L86.9,7.4L86.9,6.9L87.4,6.9L87.4,6.4L87.9,6.4L87.9,5.6L87.4,5.6L87.4,5.1L86.1,5.1L86.1,5.6L85.6,5.6L85.6,6.1z" stroke="none"/><path d="M22.5,8.9L22.5,9.1L22.1,9.1L22.1,9.6L21.1,9.6L21.1,10.1L20.6,10.1L20.6,10.6L19.5,10.6L19.5,10.4L20.4,10.4L20.4,9.9L20.9,9.9L20.9,9.4L21.9,9.4L21.9,8.9z" stroke="none"/><path d="M89.9,3L90.1,3L90.1,7.5L89.9,7.5z" stroke="none"/><path d="M5.9,4.5L6.1,4.5L6.1,9L5.9,9z" stroke="none"/><path d="M60,9.1L60,8.9L62.6,8.9L62.6,9.9L64.1,9.9L64.1,10.4L64.5,10.4L64.5,10.6L63.9,10.6L63.9,10.1L62.4,10.1L62.4,9.1z" stroke="none"/><path d="M10.5,5.9L10.5,6.1L10.1,6.1L10.1,7.1L8.1,7.1L8.1,8.1L7.6,8.1L7.6,9.6L6.6,9.6L6.6,10.1L5.4,10.1L5.4,9.6L4.9,9.6L4.9,7.1L4.4,7.1L4.4,6L4.6,6L4.6,6.9L5.1,6.9L5.1,9.4L5.6,9.4L5.6,9.9L6.4,9.9L6.4,9.4L7.4,9.4L7.4,7.9L7.9,7.9L7.9,6.9L9.9,6.9L9.9,5.9z" stroke="none"/><path d="M36,10.4L36,10.6L33.4,10.6L33.4,10.1L32.9,10.1L32.9,9.1L30,9.1L30,8.9L33.1,8.9L33.1,9.9L33.6,9.9L33.6,10.4z" stroke="none"/><path d="M100.5,10.4L100.5,10.6L97.1,10.6L97.1,11.1L96.6,11.1L96.6,11.6L96.1,11.6L96.1,12.1L94.5,12.1L94.5,11.9L95.9,11.9L95.9,11.4L96.4,11.4L96.4,10.9L96.9,10.9L96.9,10.4z" stroke="none"/><path d="M15,7.4L15,7.6L14.6,7.6L14.6,8.1L13.6,8.1L13.6,8.6L11.4,8.6L11.4,8.1L10.9,8.1L10.9,6.9L11.4,6.9L11.4,5.6L10.9,5.6L10.9,5.1L10.1,5.1L10.1,5.6L9.1,5.6L9.1,6L8.9,6L8.9,5.4L9.9,5.4L9.9,4.9L11.1,4.9L11.1,5.4L11.6,5.4L11.6,7.1L11.1,7.1L11.1,7.9L11.6,7.9L11.6,8.4L13.4,8.4L13.4,7.9L14.4,7.9L14.4,7.4z" stroke="none"/><path d="M15.1,12L14.9,12L14.9,11.4L15.4,11.4L15.4,10.4L16.4,10.4L16.4,9.4L16.9,9.4L16.9,8.9L17.4,8.9L17.4,8.4L18.4,8.4L18.4,7.4L19.5,7.4L19.5,7.6L18.6,7.6L18.6,8.6L17.6,8.6L17.6,9.1L17.1,9.1L17.1,9.6L16.6,9.6L16.6,10.6L15.6,10.6L15.6,11.6L15.1,11.6z" stroke="none"/><path d="M24,10.4L24,10.6L21.1,10.6L21.1,11.6L18.6,11.6L18.6,12.1L16.5,12.1L16.5,11.9L18.4,11.9L18.4,11.4L20.9,11.4L20.9,10.4z" stroke="none"/><path d="M22.5,11.9L22.5,12.1L19.1,12.1L19.1,12.6L17.1,12.6L17.1,13.1L13.9,13.1L13.9,12.1L13.4,12.1L13.4,11.1L12.9,11.1L12.9,10.6L12,10.6L12,10.4L13.1,10.4L13.1,10.9L13.6,10.9L13.6,11.9L14.1,11.9L14.1,12.9L16.9,12.9L16.9,12.4L18.9,12.4L18.9,11.9z" stroke="none"/><path d="M37.5,11.9L37.5,12.1L29.9,12.1L29.9,10.6L29.4,10.6L29.4,10.1L28.4,10.1L28.4,9.1L27.4,9.1L27.4,8.6L26.9,8.6L26.9,7.5L27.1,7.5L27.1,8.4L27.6,8.4L27.6,8.9L28.6,8.9L28.6,9.9L29.6,9.9L29.6,10.4L30.1,10.4L30.1,11.9z" stroke="none"/><path d="M19.5,3.1L19.5,2.9L36,2.9L36,3.1z" stroke="none"/><path d="M76.5,4.6L76.5,4.4L82.9,4.4L82.9,3.9L83.4,3.9L83.4,3.4L88.9,3.4L88.9,2.4L89.4,2.4L89.4,1.9L90.6,1.9L90.6,2.4L91.1,2.4L91.1,6.9L91.6,6.9L91.6,7.4L93,7.4L93,7.6L91.4,7.6L91.4,7.1L90.9,7.1L90.9,2.6L90.4,2.6L90.4,2.1L89.6,2.1L89.6,2.6L89.1,2.6L89.1,3.6L83.6,3.6L83.6,4.1L83.1,4.1L83.1,4.6z" stroke="none"/><path d="M58.5,12.1L58.5,11.9L61.6,11.9L61.6,12.4L62.6,12.4L62.6,12.9L82.4,12.9L82.4,12.4L82.9,12.4L82.9,10.9L83.4,10.9L83.4,8.9L84,8.9L84,9.1L83.6,9.1L83.6,11.1L83.1,11.1L83.1,12.6L82.6,12.6L82.6,13.1L62.4,13.1L62.4,12.6L61.4,12.6L61.4,12.1z" stroke="none"/><path d="M55.5,5.9L55.5,6.1L41.4,6.1L41.4,5.6L40.9,5.6L40.9,5.1L34.9,5.1L34.9,4.6L21,4.6L21,4.4L35.1,4.4L35.1,4.9L41.1,4.9L41.1,5.4L41.6,5.4L41.6,5.9z" stroke="none"/><path d="M13.5,3.1L13.5,2.9L17.9,2.9L17.9,2.4L18.9,2.4L18.9,1.9L48.1,1.9L48.1,2.4L48.6,2.4L48.6,2.9L52.5,2.9L52.5,3.1L48.4,3.1L48.4,2.6L47.9,2.6L47.9,2.1L19.1,2.1L19.1,2.6L18.1,2.6L18.1,3.1z" stroke="none"/><path d="M57,2.9L57,3.1L53.6,3.1L53.6,3.6L53.1,3.6L53.1,4.1L42.9,4.1L42.9,3.6L41.1,3.6L41.1,4.1L21.4,4.1L21.4,3.6L20.1,3.6L20.1,4.1L18.6,4.1L18.6,4.6L18,4.6L18,4.4L18.4,4.4L18.4,3.9L19.9,3.9L19.9,3.4L21.6,3.4L21.6,3.9L40.9,3.9L40.9,3.4L43.1,3.4L43.1,3.9L52.9,3.9L52.9,3.4L53.4,3.4L53.4,2.9z" stroke="none"/><path d="M79.5,7.4L79.5,7.6L78.4,7.6L78.4,6.6L56.1,6.6L56.1,7.1L54.4,7.1L54.4,6.6L40.9,6.6L40.9,6.1L40.5,6.1L40.5,5.9L41.1,5.9L41.1,6.4L54.6,6.4L54.6,6.9L55.9,6.9L55.9,6.4L78.6,6.4L78.6,7.4z" stroke="none"/><path d="M88.4,10.5L88.6,10.5L88.6,11.1L85.6,11.1L85.6,11.6L85.1,11.6L85.1,12.1L83.6,12.1L83.6,13.1L83.1,13.1L83.1,13.6L39.9,13.6L39.9,12.6L39.4,12.6L39.4,11.6L38.9,11.6L38.9,10.5L39.1,10.5L39.1,11.4L39.6,11.4L39.6,12.4L40.1,12.4L40.1,13.4L82.9,13.4L82.9,12.9L83.4,12.9L83.4,11.9L84.9,11.9L84.9,11.4L85.4,11.4L85.4,10.9L88.4,10.9z" stroke="none"/></svg>