<svg version="1.1" width="105" height="15" xmlns="http://www.w3.org/2000/svg"><path d="M29.1,3.4L29.1,3.9L30.1,3.9L30.1,4.5L29.9,4.5L29.9,4.1L28.9,4.1L28.9,3.6L20.6,3.6L20.6,4.1L19.6,4.1L19.6,4.5L19.4,4.5L19.4,3.9L20.4,3.9L20.4,3.6L19.1,3.6L19.1,5.1L18.6,5.1L18.6,6.6L18.1,6.6L18.1,7.1L16.6,7.1L16.6,7.5L16.4,7.5L16.4,6.9L17.9,6.9L17.9,6.4L18.4,6.4L18.4,4.9L18.9,4.9L18.9,3.4z" stroke="none"/><path d="M44.9,8.9L44.9,8.4L47.9,8.4L47.9,7.9L51.1,7.9L51.1,8.4L60.1,8.4L60.1,9L59.9,9L59.9,8.6L50.9,8.6L50.9,8.1L48.1,8.1L48.1,8.6L45.1,8.6L45.1,8.9L48.1,8.9L48.1,10.4L48.6,10.4L48.6,11.4L49.1,11.4L49.1,11.9L49.5,11.9L49.5,12.1L48.9,12.1L48.9,11.6L48.4,11.6L48.4,10.6L47.9,10.6L47.9,9.1L38.6,9.1L38.6,9.6L38.1,9.6L38.1,10.1L33.6,10.1L33.6,10.6L33.1,10.6L33.1,11.6L31.6,11.6L31.6,12L31.4,12L31.4,11.4L32.9,11.4L32.9,10.4L33.4,10.4L33.4,9.9L37.9,9.9L37.9,9.4L38.4,9.4L38.4,8.9z" stroke="none"/><path d="M77.9,5.9L77.9,5.4L92.4,5.4L92.4,4.9L98.4,4.9L98.4,4.4L99,4.4L99,4.6L98.6,4.6L98.6,5.1L92.6,5.1L92.6,5.6L78.1,5.6L78.1,5.9L88.6,5.9L88.6,6.4L89.1,6.4L89.1,6.9L89.6,6.9L89.6,7.4L90.6,7.4L90.6,7.9L91.1,7.9L91.1,8.9L91.5,8.9L91.5,9.1L90.9,9.1L90.9,8.1L90.4,8.1L90.4,7.6L89.4,7.6L89.4,7.1L88.9,7.1L88.9,6.6L88.4,6.6L88.4,6.1L63.1,6.1L63.1,6.6L62.6,6.6L62.6,7.6L62.1,7.6L62.1,8.6L61.6,8.6L61.6,9.6L60.6,9.6L60.6,10.1L49.9,10.1L49.9,9.1L49.5,9.1L49.5,8.9L50.1,8.9L50.1,9.9L60.4,9.9L60.4,9.4L61.4,9.4L61.4,8.4L61.9,8.4L61.9,7.4L62.4,7.4L62.4,6.4L62.9,6.4L62.9,5.9z" stroke="none"/><path d="M38.4,3.4L38.4,2.9L39.4,2.9L39.4,1.9L54.6,1.9L54.6,2.4L55.1,2.4L55.1,3.4L55.6,3.4L55.6,3.9L56.6,3.9L56.6,4.4L57,4.4L57,4.6L56.4,4.6L56.4,4.1L55.4,4.1L55.4,3.6L54.9,3.6L54.9,2.6L54.4,2.6L54.4,2.1L39.6,2.1L39.6,3.1L38.6,3.1L38.6,3.4L40.1,3.4L40.1,3.9L48.1,3.9L48.1,4.4L49.1,4.4L49.1,5.9L52.5,5.9L52.5,6.1L48.9,6.1L48.9,4.6L47.9,4.6L47.9,4.1L39.9,4.1L39.9,3.6L38.6,3.6L38.6,4.6L37.1,4.6L37.1,5.6L34.6,5.6L34.6,6L34.4,6L34.4,5.4L36.9,5.4L36.9,4.4L38.4,4.4L38.4,3.6L32.1,3.6L32.1,4.6L31.1,4.6L31.1,5.6L19.6,5.6L19.6,6L19.4,6L19.4,5.4L30.9,5.4L30.9,4.4L31.9,4.4L31.9,3.4z" stroke="none"/><path d="M32.4,6.9L32.4,6.6L20.1,6.6L20.1,7.1L19.6,7.1L19.6,7.6L19.1,7.6L19.1,11.1L18.6,11.1L18.6,11.6L15.4,11.6L15.4,11.1L12.9,11.1L12.9,10.1L11.4,10.1L11.4,9.6L10.9,9.6L10.9,8.1L7.9,8.1L7.9,7.6L7.5,7.6L7.5,7.4L8.1,7.4L8.1,7.9L11.1,7.9L11.1,9.4L11.6,9.4L11.6,9.9L13.1,9.9L13.1,10.9L15.6,10.9L15.6,11.4L18.4,11.4L18.4,10.9L18.9,10.9L18.9,7.4L19.4,7.4L19.4,6.9L19.9,6.9L19.9,6.4L32.6,6.4L32.6,6.9L41.4,6.9L41.4,6.4L51.6,6.4L51.6,6.9L52.1,6.9L52.1,7.4L57,7.4L57,7.6L51.9,7.6L51.9,7.1L51.4,7.1L51.4,6.6L41.6,6.6L41.6,7.1L32.6,7.1L32.6,10.6L32.1,10.6L32.1,11.1L30.6,11.1L30.6,12.4L31.1,12.4L31.1,12.9L53.4,12.9L53.4,11.9L54,11.9L54,12.1L53.6,12.1L53.6,13.1L30.9,13.1L30.9,12.6L30.4,12.6L30.4,10.9L31.9,10.9L31.9,10.4L32.4,10.4L32.4,7.1L22.1,7.1L22.1,7.6L20.6,7.6L20.6,8.1L20.1,8.1L20.1,8.6L19.6,8.6L19.6,9L19.4,9L19.4,8.4L19.9,8.4L19.9,7.9L20.4,7.9L20.4,7.4L21.9,7.4L21.9,6.9z" stroke="none"/><path d="M72.9,2.4L72.9,1.9L73.9,1.9L73.9,1.4L99.6,1.4L99.6,1.9L100.6,1.9L100.6,5.6L100.1,5.6L100.1,6.1L97.5,6.1L97.5,5.9L99.9,5.9L99.9,5.4L100.4,5.4L100.4,2.1L99.4,2.1L99.4,1.6L74.1,1.6L74.1,2.1L73.1,2.1L73.1,2.4L74.4,2.4L74.4,1.9L99.1,1.9L99.1,2.9L99.6,2.9L99.6,3.4L100.1,3.4L100.1,5.1L99.6,5.1L99.6,5.6L93.6,5.6L93.6,6.1L93,6.1L93,5.9L93.4,5.9L93.4,5.4L99.4,5.4L99.4,4.9L99.9,4.9L99.9,3.6L99.4,3.6L99.4,3.1L98.9,3.1L98.9,2.1L74.6,2.1L74.6,2.6L73.1,2.6L73.1,3.1L59.1,3.1L59.1,5.1L58.6,5.1L58.6,5.6L55.4,5.6L55.4,5.1L54.9,5.1L54.9,4.1L54.4,4.1L54.4,3.6L52.9,3.6L52.9,3.1L52.5,3.1L52.5,2.9L53.1,2.9L53.1,3.4L54.6,3.4L54.6,3.9L55.1,3.9L55.1,4.9L55.6,4.9L55.6,5.4L58.4,5.4L58.4,4.9L58.9,4.9L58.9,2.9L72.9,2.9L72.9,2.6L57.1,2.6L57.1,3L56.9,3L56.9,2.4z" stroke="none"/><path d="M28.5,12.1L28.5,11.9L29.4,11.9L29.4,10.9L29.9,10.9L29.9,10.5L30.1,10.5L30.1,11.1L29.6,11.1L29.6,12.1z" stroke="none"/><path d="M76.5,3.1L76.5,2.9L77.6,2.9L77.6,3.9L78.1,3.9L78.1,4.5L77.9,4.5L77.9,4.1L77.4,4.1L77.4,3.1z" stroke="none"/><path d="M9,8.9L9,9.1L6,9.1L6,8.9z" stroke="none"/><path d="M64.5,10.4L64.5,10.6L61.5,10.6L61.5,10.4z" stroke="none"/><path d="M64.6,12L64.4,12L64.4,11.4L65.4,11.4L65.4,7.6L64.5,7.6L64.5,7.4L65.6,7.4L65.6,11.6L64.6,11.6z" stroke="none"/><path d="M16.5,8.9L16.5,9.1L15.9,9.1L15.9,8.6L15.4,8.6L15.4,5.9L16.9,5.9L16.9,4.9L17.9,4.9L17.9,4.5L18.1,4.5L18.1,5.1L17.1,5.1L17.1,6.1L15.6,6.1L15.6,8.4L16.1,8.4L16.1,8.9z" stroke="none"/><path d="M42,7.4L42,7.6L38.1,7.6L38.1,8.6L37.6,8.6L37.6,9L37.4,9L37.4,8.4L37.9,8.4L37.9,7.4z" stroke="none"/><path d="M13.6,7.5L13.4,7.5L13.4,3.6L12.9,3.6L12.9,3.1L10.5,3.1L10.5,2.9L13.1,2.9L13.1,3.4L13.6,3.4z" stroke="none"/><path d="M15,12.1L15,11.9L21,11.9L21,12.1z" stroke="none"/><path d="M18,10.4L18,10.6L15.4,10.6L15.4,10.1L14.9,10.1L14.9,9.6L12.4,9.6L12.4,9.1L12,9.1L12,8.9L12.6,8.9L12.6,9.4L15.1,9.4L15.1,9.9L15.6,9.9L15.6,10.4z" stroke="none"/><path d="M3,12.1L3,11.9L8.1,11.9L8.1,12.9L9.4,12.9L9.4,12.4L10.4,12.4L10.4,12L10.6,12L10.6,12.6L9.6,12.6L9.6,13.1L7.9,13.1L7.9,12.1z" stroke="none"/><path d="M94.5,7.4L94.5,7.6L94.1,7.6L94.1,8.6L92.6,8.6L92.6,9.6L92.1,9.6L92.1,10.1L87.9,10.1L87.9,9.6L86.4,9.6L86.4,9.1L85.5,9.1L85.5,8.9L86.6,8.9L86.6,9.4L88.1,9.4L88.1,9.9L91.9,9.9L91.9,9.4L92.4,9.4L92.4,8.4L93.9,8.4L93.9,7.4z" stroke="none"/><path d="M66,12.1L66,11.9L76.5,11.9L76.5,12.1z" stroke="none"/><path d="M88.5,7.4L88.5,7.6L78,7.6L78,7.4z" stroke="none"/><path d="M93,10.4L93,10.6L79.5,10.6L79.5,10.4z" stroke="none"/><path d="M54,4.4L54,4.6L49.4,4.6L49.4,4.1L48.9,4.1L48.9,3.6L40.9,3.6L40.9,3.1L40.5,3.1L40.5,2.9L41.1,2.9L41.1,3.4L49.1,3.4L49.1,3.9L49.6,3.9L49.6,4.4z" stroke="none"/><path d="M16.5,4.6L16.5,4.4L16.9,4.4L16.9,3.4L17.4,3.4L17.4,2.9L31.5,2.9L31.5,3.1L17.6,3.1L17.6,3.6L17.1,3.6L17.1,4.6z" stroke="none"/><path d="M3,6.1L3,5.9L11.6,5.9L11.6,6.9L12.1,6.9L12.1,7.4L12.6,7.4L12.6,7.9L13.1,7.9L13.1,8.4L13.6,8.4L13.6,8.9L15.6,8.9L15.6,9.4L16.1,9.4L16.1,9.9L17.4,9.9L17.4,9.4L17.9,9.4L17.9,9L18.1,9L18.1,9.6L17.6,9.6L17.6,10.1L15.9,10.1L15.9,9.6L15.4,9.6L15.4,9.1L13.4,9.1L13.4,8.6L12.9,8.6L12.9,8.1L12.4,8.1L12.4,7.6L11.9,7.6L11.9,7.1L11.4,7.1L11.4,6.1z" stroke="none"/><path d="M91.5,7.6L91.5,7.4L91.9,7.4L91.9,6.9L93.4,6.9L93.4,6.4L95.1,6.4L95.1,6.9L95.6,6.9L95.6,9.1L95.1,9.1L95.1,9.6L94.6,9.6L94.6,10.6L94.1,10.6L94.1,11.1L93.6,11.1L93.6,11.6L89.4,11.6L89.4,11.1L81.1,11.1L81.1,11.6L78.4,11.6L78.4,10.6L77.9,10.6L77.9,10.1L76.4,10.1L76.4,9.1L75.9,9.1L75.9,8.1L73.4,8.1L73.4,7.5L73.6,7.5L73.6,7.9L76.1,7.9L76.1,8.9L76.6,8.9L76.6,9.9L78.1,9.9L78.1,10.4L78.6,10.4L78.6,11.4L80.9,11.4L80.9,10.9L89.6,10.9L89.6,11.4L93.4,11.4L93.4,10.9L93.9,10.9L93.9,10.4L94.4,10.4L94.4,9.4L94.9,9.4L94.9,8.9L95.4,8.9L95.4,7.1L94.9,7.1L94.9,6.6L93.6,6.6L93.6,7.1L92.1,7.1L92.1,7.6z" stroke="none"/><path d="M9,12.1L9,11.9L9.4,11.9L9.4,10.9L12.6,10.9L12.6,11.4L14.1,11.4L14.1,12.4L14.6,12.4L14.6,12.9L25.9,12.9L25.9,11.4L26.4,11.4L26.4,10.9L26.9,10.9L26.9,10.5L27.1,10.5L27.1,11.1L26.6,11.1L26.6,11.6L26.1,11.6L26.1,13.1L14.4,13.1L14.4,12.6L13.9,12.6L13.9,11.6L12.4,11.6L12.4,11.1L9.6,11.1L9.6,12.1z" stroke="none"/><path d="M88.5,11.9L88.5,12.1L77.9,12.1L77.9,11.1L71.9,11.1L71.9,10.1L70.4,10.1L70.4,9.6L69.4,9.6L69.4,8.1L68.9,8.1L68.9,7.6L67.5,7.6L67.5,7.4L69.1,7.4L69.1,7.9L69.6,7.9L69.6,9.4L70.6,9.4L70.6,9.9L72.1,9.9L72.1,10.9L78.1,10.9L78.1,11.9z" stroke="none"/><path d="M55.5,11.9L55.5,12.1L55.1,12.1L55.1,12.6L54.6,12.6L54.6,13.1L54.1,13.1L54.1,13.6L28.4,13.6L28.4,13.1L27.4,13.1L27.4,11.4L27.9,11.4L27.9,10.1L27.4,10.1L27.4,9.6L20.9,9.6L20.9,9L21.1,9L21.1,9.4L27.6,9.4L27.6,9.9L28.1,9.9L28.1,11.6L27.6,11.6L27.6,12.9L28.6,12.9L28.6,13.4L53.9,13.4L53.9,12.9L54.4,12.9L54.4,12.4L54.9,12.4L54.9,11.9z" stroke="none"/><path d="M61.5,12.1L61.5,11.9L63.6,11.9L63.6,12.4L64.1,12.4L64.1,12.9L93.9,12.9L93.9,11.9L95.4,11.9L95.4,10.9L96.4,10.9L96.4,10.4L96.9,10.4L96.9,8.9L97.5,8.9L97.5,9.1L97.1,9.1L97.1,10.6L96.6,10.6L96.6,11.1L95.6,11.1L95.6,12.1L94.1,12.1L94.1,13.1L63.9,13.1L63.9,12.6L63.4,12.6L63.4,12.1z" stroke="none"/><path d="M97.5,11.9L97.5,12.1L97.1,12.1L97.1,12.6L95.1,12.6L95.1,13.1L94.6,13.1L94.6,13.6L58.4,13.6L58.4,13.1L57.4,13.1L57.4,11.6L56.9,11.6L56.9,11.1L53.1,11.1L53.1,12.1L52.5,12.1L52.5,11.9L52.9,11.9L52.9,10.9L57.1,10.9L57.1,11.4L57.6,11.4L57.6,12.9L58.6,12.9L58.6,13.4L94.4,13.4L94.4,12.9L94.9,12.9L94.9,12.4L96.9,12.4L96.9,11.9z" stroke="none"/></svg>