<svg version="1.1" width="105" height="15" xmlns="http://www.w3.org/2000/svg"><path d="M88.4,10.9L88.4,10.5L88.6,10.5L88.6,11.1L85.6,11.1L85.6,11.6L83.1,11.6L83.1,12.1L82.5,12.1L82.5,11.9L82.9,11.9L82.9,11.4L85.4,11.4L85.4,11.1L83.9,11.1L83.9,10.5L84.1,10.5L84.1,10.9z" stroke="none"/><path d="M76.4,7.4L76.4,6.9L77.4,6.9L77.4,6.4L77.9,6.4L77.9,6L78.1,6L78.1,6.6L77.6,6.6L77.6,7.1L76.6,7.1L76.6,7.6L72.6,7.6L72.6,7.9L84.9,7.9L84.9,7.4L85.5,7.4L85.5,7.6L85.1,7.6L85.1,8.1L72.4,8.1L72.4,7.6L65.1,7.6L65.1,8.1L64.6,8.1L64.6,9.1L54,9.1L54,8.9L64.4,8.9L64.4,7.9L64.9,7.9L64.9,7.4z" stroke="none"/><path d="M44.4,8.4L44.4,7.9L45.4,7.9L45.4,6.9L45.9,6.9L45.9,6.4L52.1,6.4L52.1,6.9L58.9,6.9L58.9,6.4L59.9,6.4L59.9,6L60.1,6L60.1,6.6L59.1,6.6L59.1,7.1L51.9,7.1L51.9,6.6L46.1,6.6L46.1,7.1L45.6,7.1L45.6,8.1L44.6,8.1L44.6,8.4L52.6,8.4L52.6,8.9L53.1,8.9L53.1,9.9L54.1,9.9L54.1,10.4L55.5,10.4L55.5,10.6L53.9,10.6L53.9,10.1L52.9,10.1L52.9,9.1L52.4,9.1L52.4,8.6L39.4,8.6L39.4,8.1L38.1,8.1L38.1,8.6L18.6,8.6L18.6,9.1L18,9.1L18,8.9L18.4,8.9L18.4,8.4L37.9,8.4L37.9,7.9L39.6,7.9L39.6,8.4z" stroke="none"/><path d="M70.9,8.4L70.9,8.1L67.6,8.1L67.6,8.6L67.1,8.6L67.1,9.1L65.1,9.1L65.1,9.6L58.1,9.6L58.1,10.1L57.6,10.1L57.6,11.6L57.1,11.6L57.1,12.1L56.6,12.1L56.6,12.6L56.1,12.6L56.1,13.1L50.9,13.1L50.9,12.6L49.4,12.6L49.4,12.1L47.9,12.1L47.9,11.6L46.9,11.6L46.9,11.1L46.4,11.1L46.4,10.6L45,10.6L45,10.4L46.6,10.4L46.6,10.9L47.1,10.9L47.1,11.4L48.1,11.4L48.1,11.9L49.6,11.9L49.6,12.4L51.1,12.4L51.1,12.9L55.9,12.9L55.9,12.4L56.4,12.4L56.4,11.9L56.9,11.9L56.9,11.4L57.4,11.4L57.4,9.9L57.9,9.9L57.9,9.4L64.9,9.4L64.9,8.9L66.9,8.9L66.9,8.4L67.4,8.4L67.4,7.9L71.1,7.9L71.1,8.4L72.1,8.4L72.1,8.9L73.5,8.9L73.5,9.1L71.9,9.1L71.9,8.6L71.1,8.6L71.1,8.9L71.6,8.9L71.6,9.4L84.4,9.4L84.4,8.4L85.9,8.4L85.9,7.9L86.4,7.9L86.4,7.1L85.9,7.1L85.9,6.6L81.4,6.6L81.4,6.1L80.9,6.1L80.9,5.6L79.4,5.6L79.4,5.1L76.6,5.1L76.6,6L76.4,6L76.4,4.9L79.6,4.9L79.6,5.4L81.1,5.4L81.1,5.9L81.6,5.9L81.6,6.4L86.1,6.4L86.1,6.9L86.6,6.9L86.6,8.1L86.1,8.1L86.1,8.6L84.6,8.6L84.6,9.6L71.4,9.6L71.4,9.1L70.9,9.1L70.9,8.6L70.6,8.6L70.6,9.4L71.1,9.4L71.1,9.9L78.6,9.9L78.6,10.4L80.1,10.4L80.1,10.9L80.6,10.9L80.6,11.4L81.1,11.4L81.1,11.9L81.6,11.9L81.6,12.4L82.1,12.4L82.1,12.9L87.9,12.9L87.9,12.4L88.4,12.4L88.4,11.4L88.9,11.4L88.9,10.9L89.4,10.9L89.4,8.9L90,8.9L90,9.1L89.6,9.1L89.6,11.1L89.1,11.1L89.1,11.6L88.6,11.6L88.6,12.6L88.1,12.6L88.1,13.1L81.9,13.1L81.9,12.6L81.4,12.6L81.4,12.1L80.9,12.1L80.9,11.6L80.4,11.6L80.4,11.1L79.9,11.1L79.9,10.6L78.4,10.6L78.4,10.1L70.9,10.1L70.9,9.6L70.4,9.6L70.4,8.4z" stroke="none"/><path d="M24.9,7.4L24.9,7.1L22.4,7.1L22.4,6.6L20.4,6.6L20.4,6.1L19.9,6.1L19.9,5.6L16.1,5.6L16.1,6.1L15.6,6.1L15.6,6.6L12.6,6.6L12.6,7.1L7.6,7.1L7.6,7.5L7.4,7.5L7.4,6.9L12.4,6.9L12.4,6.4L15.4,6.4L15.4,5.9L15.9,5.9L15.9,5.4L20.1,5.4L20.1,5.9L20.6,5.9L20.6,6.4L22.6,6.4L22.6,6.9L25.1,6.9L25.1,7.4L37.5,7.4L37.5,7.6L25.1,7.6L25.1,8.1L17.1,8.1L17.1,9.4L17.6,9.4L17.6,9.9L21.9,9.9L21.9,9.4L35.6,9.4L35.6,9.9L36.1,9.9L36.1,10.5L35.9,10.5L35.9,10.1L35.4,10.1L35.4,9.6L22.1,9.6L22.1,10.1L17.4,10.1L17.4,9.6L16.9,9.6L16.9,7.9L24.9,7.9L24.9,7.6L21.4,7.6L21.4,7.1L19.9,7.1L19.9,6.6L19.4,6.6L19.4,6L19.6,6L19.6,6.4L20.1,6.4L20.1,6.9L21.6,6.9L21.6,7.4z" stroke="none"/><path d="M46.4,5.4L46.4,4.4L46.9,4.4L46.9,3.9L47.4,3.9L47.4,2.9L48.4,2.9L48.4,1.9L55.6,1.9L55.6,2.4L56.1,2.4L56.1,2.9L57.6,2.9L57.6,3.9L58.6,3.9L58.6,4.4L59.1,4.4L59.1,4.9L61.1,4.9L61.1,6.9L61.6,6.9L61.6,7.5L61.4,7.5L61.4,7.1L60.9,7.1L60.9,5.1L58.9,5.1L58.9,4.6L58.4,4.6L58.4,4.1L57.4,4.1L57.4,3.1L55.9,3.1L55.9,2.6L55.4,2.6L55.4,2.1L48.6,2.1L48.6,3.1L47.6,3.1L47.6,4.1L47.1,4.1L47.1,4.6L46.6,4.6L46.6,5.4L52.1,5.4L52.1,5.9L52.5,5.9L52.5,6.1L51.9,6.1L51.9,5.6L46.6,5.6L46.6,6.1L20.9,6.1L20.9,5.6L20.4,5.6L20.4,5.1L15.6,5.1L15.6,5.6L12.6,5.6L12.6,6.1L12,6.1L12,5.9L12.4,5.9L12.4,5.4L15.4,5.4L15.4,4.9L20.6,4.9L20.6,5.4L21.1,5.4L21.1,5.9L46.4,5.9L46.4,5.6L45.9,5.6L45.9,3.9L46.4,3.9L46.4,3.4L46.9,3.4L46.9,2.4L47.4,2.4L47.4,1.9L47.9,1.9L47.9,1.4L58.6,1.4L58.6,1.9L59.6,1.9L59.6,2.4L61.6,2.4L61.6,3L61.4,3L61.4,2.6L59.4,2.6L59.4,2.1L58.4,2.1L58.4,1.6L48.1,1.6L48.1,2.1L47.6,2.1L47.6,2.6L47.1,2.6L47.1,3.6L46.6,3.6L46.6,4.1L46.1,4.1L46.1,5.4z" stroke="none"/><path d="M6.1,4.5L5.9,4.5L5.9,3L6.1,3z" stroke="none"/><path d="M72,12.1L72,11.9L75,11.9L75,12.1z" stroke="none"/><path d="M67.6,3L67.4,3L67.4,2.4L67.9,2.4L67.9,1.9L69.6,1.9L69.6,2.4L70.1,2.4L70.1,2.9L70.5,2.9L70.5,3.1L69.9,3.1L69.9,2.6L69.4,2.6L69.4,2.1L68.1,2.1L68.1,2.6L67.6,2.6z" stroke="none"/><path d="M72,2.9L72,3.1L71.6,3.1L71.6,4.1L68.9,4.1L68.9,3L69.1,3L69.1,3.9L71.4,3.9L71.4,2.9z" stroke="none"/><path d="M100.5,8.9L100.5,9.1L100.1,9.1L100.1,10.1L97.4,10.1L97.4,9.1L96,9.1L96,8.9L97.6,8.9L97.6,9.9L99.9,9.9L99.9,8.9z" stroke="none"/><path d="M54,5.9L54,6.1L53.4,6.1L53.4,5.6L52.9,5.6L52.9,5.1L49.9,5.1L49.9,4.6L49.5,4.6L49.5,4.4L50.1,4.4L50.1,4.9L53.1,4.9L53.1,5.4L53.6,5.4L53.6,5.9z" stroke="none"/><path d="M33,4.4L33,4.6L27,4.6L27,4.4z" stroke="none"/><path d="M6,12.1L6,11.9L7.1,11.9L7.1,12.4L8.6,12.4L8.6,12.9L11.4,12.9L11.4,12.4L11.9,12.4L11.9,11.9L13.5,11.9L13.5,12.1L12.1,12.1L12.1,12.6L11.6,12.6L11.6,13.1L8.4,13.1L8.4,12.6L6.9,12.6L6.9,12.1z" stroke="none"/><path d="M9.1,12L8.9,12L8.9,11.6L7.9,11.6L7.9,11.1L4.9,11.1L4.9,10.6L4.4,10.6L4.4,8.6L3.9,8.6L3.9,8.1L3.4,8.1L3.4,7.6L3,7.6L3,7.4L3.6,7.4L3.6,7.9L4.1,7.9L4.1,8.4L4.6,8.4L4.6,10.4L5.1,10.4L5.1,10.9L8.1,10.9L8.1,11.4L9.1,11.4z" stroke="none"/><path d="M96,4.4L96,4.6L88.5,4.6L88.5,4.4z" stroke="none"/><path d="M49.5,3.1L49.5,2.9L50.6,2.9L50.6,3.4L51.6,3.4L51.6,3.9L52.1,3.9L52.1,4.4L54.1,4.4L54.1,4.9L54.6,4.9L54.6,5.4L58.1,5.4L58.1,5.9L58.5,5.9L58.5,6.1L57.9,6.1L57.9,5.6L54.4,5.6L54.4,5.1L53.9,5.1L53.9,4.6L51.9,4.6L51.9,4.1L51.4,4.1L51.4,3.6L50.4,3.6L50.4,3.1z" stroke="none"/><path d="M12,10.6L12,10.4L22.5,10.4L22.5,10.6z" stroke="none"/><path d="M39,9.1L39,8.9L51.1,8.9L51.1,9.9L52.1,9.9L52.1,10.4L52.5,10.4L52.5,10.6L51.9,10.6L51.9,10.1L50.9,10.1L50.9,9.1z" stroke="none"/><path d="M22.5,2.9L22.5,3.1L12.6,3.1L12.6,3.6L10.1,3.6L10.1,4.6L9.1,4.6L9.1,6.1L7.5,6.1L7.5,5.9L8.9,5.9L8.9,4.4L9.9,4.4L9.9,3.4L12.4,3.4L12.4,2.9z" stroke="none"/><path d="M22.5,12.1L22.5,11.9L38.9,11.9L38.9,10.9L40.4,10.9L40.4,10.5L40.6,10.5L40.6,11.1L39.1,11.1L39.1,12.1z" stroke="none"/><path d="M82.5,2.9L82.5,3.1L75.6,3.1L75.6,3.6L73.1,3.6L73.1,4.1L72.6,4.1L72.6,4.6L63,4.6L63,4.4L72.4,4.4L72.4,3.9L72.9,3.9L72.9,3.4L75.4,3.4L75.4,2.9z" stroke="none"/><path d="M78,12.1L78,11.9L79.1,11.9L79.1,12.4L80.1,12.4L80.1,12.9L80.6,12.9L80.6,13.4L93.4,13.4L93.4,11.9L93.9,11.9L93.9,9.4L94.4,9.4L94.4,7.9L98.6,7.9L98.6,8.9L99,8.9L99,9.1L98.4,9.1L98.4,8.1L94.6,8.1L94.6,9.6L94.1,9.6L94.1,12.1L93.6,12.1L93.6,13.6L80.4,13.6L80.4,13.1L79.9,13.1L79.9,12.6L78.9,12.6L78.9,12.1z" stroke="none"/><path d="M25.5,3.1L25.5,2.9L41.9,2.9L41.9,2.4L42.4,2.4L42.4,1.9L46.9,1.9L46.9,0.9L61.1,0.9L61.1,1.9L62.1,1.9L62.1,2.4L62.6,2.4L62.6,4.1L62.1,4.1L62.1,6.9L62.6,6.9L62.6,8.6L54.4,8.6L54.4,8.1L47.9,8.1L47.9,7.6L46.5,7.6L46.5,7.4L48.1,7.4L48.1,7.9L54.6,7.9L54.6,8.4L62.4,8.4L62.4,7.1L61.9,7.1L61.9,3.9L62.4,3.9L62.4,2.6L61.9,2.6L61.9,2.1L60.9,2.1L60.9,1.1L47.1,1.1L47.1,2.1L42.6,2.1L42.6,2.6L42.1,2.6L42.1,3.1z" stroke="none"/><path d="M99,2.9L99,3.1L84.1,3.1L84.1,3.6L83.1,3.6L83.1,4.1L73.6,4.1L73.6,6L73.4,6L73.4,3.9L82.9,3.9L82.9,3.4L83.9,3.4L83.9,2.9z" stroke="none"/><path d="M60,10.6L60,10.4L67.6,10.4L67.6,11.4L68.1,11.4L68.1,12.9L77.1,12.9L77.1,13.4L80.1,13.4L80.1,13.9L96.9,13.9L96.9,13.4L97.4,13.4L97.4,12.9L99.4,12.9L99.4,11.9L99.9,11.9L99.9,11.4L100.9,11.4L100.9,9.4L101.4,9.4L101.4,8.1L98.9,8.1L98.9,7.5L99.1,7.5L99.1,7.9L101.6,7.9L101.6,9.6L101.1,9.6L101.1,11.6L100.1,11.6L100.1,12.1L99.6,12.1L99.6,13.1L97.6,13.1L97.6,13.6L97.1,13.6L97.1,14.1L79.9,14.1L79.9,13.6L76.9,13.6L76.9,13.1L67.9,13.1L67.9,11.6L67.4,11.6L67.4,10.6z" stroke="none"/><path d="M43.5,2.9L43.5,3.1L42.6,3.1L42.6,3.6L26.1,3.6L26.1,4.1L24.9,4.1L24.9,3.6L24.4,3.6L24.4,2.4L24.9,2.4L24.9,1.9L39.9,1.9L39.9,1.4L45.9,1.4L45.9,0.9L46.4,0.9L46.4,0.4L98.6,0.4L98.6,1.4L99.6,1.4L99.6,1.9L100.1,1.9L100.1,3.6L99.6,3.6L99.6,4.1L97.4,4.1L97.4,3.6L85.6,3.6L85.6,4.1L84.1,4.1L84.1,4.5L83.9,4.5L83.9,3.9L85.4,3.9L85.4,3.4L97.6,3.4L97.6,3.9L99.4,3.9L99.4,3.4L99.9,3.4L99.9,2.1L99.4,2.1L99.4,1.6L98.4,1.6L98.4,0.6L46.6,0.6L46.6,1.1L46.1,1.1L46.1,1.6L40.1,1.6L40.1,2.1L25.1,2.1L25.1,2.6L24.6,2.6L24.6,3.4L25.1,3.4L25.1,3.9L25.9,3.9L25.9,3.4L42.4,3.4L42.4,2.9z" stroke="none"/><path d="M3,12.1L3,11.9L4.1,11.9L4.1,12.4L5.6,12.4L5.6,12.9L6.1,12.9L6.1,13.4L44.4,13.4L44.4,12.9L45.4,12.9L45.4,12.4L46.4,12.4L46.4,12L46.6,12L46.6,12.6L45.6,12.6L45.6,13.1L44.6,13.1L44.6,13.6L5.9,13.6L5.9,13.1L5.4,13.1L5.4,12.6L3.9,12.6L3.9,12.1z" stroke="none"/><path d="M55.5,11.9L55.5,12.1L51.9,12.1L51.9,11.6L48.4,11.6L48.4,11.1L47.4,11.1L47.4,10.6L46.9,10.6L46.9,10.1L45.4,10.1L45.4,9.6L42.1,9.6L42.1,10.1L41.6,10.1L41.6,11.1L41.1,11.1L41.1,11.6L40.1,11.6L40.1,12.1L39.6,12.1L39.6,12.6L28.1,12.6L28.1,13.1L19.4,13.1L19.4,12.6L18.9,12.6L18.9,12.1L15.4,12.1L15.4,11.6L13.9,11.6L13.9,11.1L13.1,11.1L13.1,11.6L11.4,11.6L11.4,11.1L10.9,11.1L10.9,8.9L12,8.9L12,9.1L11.1,9.1L11.1,10.9L11.6,10.9L11.6,11.4L12.9,11.4L12.9,10.9L14.1,10.9L14.1,11.4L15.6,11.4L15.6,11.9L19.1,11.9L19.1,12.4L19.6,12.4L19.6,12.9L27.9,12.9L27.9,12.4L39.4,12.4L39.4,11.9L39.9,11.9L39.9,11.4L40.9,11.4L40.9,10.9L41.4,10.9L41.4,9.9L41.9,9.9L41.9,9.4L45.6,9.4L45.6,9.9L47.1,9.9L47.1,10.4L47.6,10.4L47.6,10.9L48.6,10.9L48.6,11.4L52.1,11.4L52.1,11.9z" stroke="none"/><path d="M42,4.4L42,4.6L34.1,4.6L34.1,5.1L33.6,5.1L33.6,5.6L25.4,5.6L25.4,5.1L24.9,5.1L24.9,4.6L24.4,4.6L24.4,4.1L23.9,4.1L23.9,2.1L4.6,2.1L4.6,2.6L4.1,2.6L4.1,3.1L3.6,3.1L3.6,3.6L3.1,3.6L3.1,4.1L2.6,4.1L2.6,7.1L2.1,7.1L2.1,12.4L2.6,12.4L2.6,12.9L5.1,12.9L5.1,13.4L5.6,13.4L5.6,13.9L79.1,13.9L79.1,14.4L97.4,14.4L97.4,13.9L97.9,13.9L97.9,13.4L100.4,13.4L100.4,11.9L101.4,11.9L101.4,9.9L101.9,9.9L101.9,7.6L99.9,7.6L99.9,7.1L99.4,7.1L99.4,6.6L89.4,6.6L89.4,6.1L88.5,6.1L88.5,5.9L89.6,5.9L89.6,6.4L99.6,6.4L99.6,6.9L100.1,6.9L100.1,7.4L102.1,7.4L102.1,10.1L101.6,10.1L101.6,12.1L100.6,12.1L100.6,13.6L98.1,13.6L98.1,14.1L97.6,14.1L97.6,14.6L78.9,14.6L78.9,14.1L5.4,14.1L5.4,13.6L4.9,13.6L4.9,13.1L2.4,13.1L2.4,12.6L1.9,12.6L1.9,6.9L2.4,6.9L2.4,3.9L2.9,3.9L2.9,3.4L3.4,3.4L3.4,2.9L3.9,2.9L3.9,2.4L4.4,2.4L4.4,1.9L24.1,1.9L24.1,3.9L24.6,3.9L24.6,4.4L25.1,4.4L25.1,4.9L25.6,4.9L25.6,5.4L33.4,5.4L33.4,4.9L33.9,4.9L33.9,4.4z" stroke="none"/></svg>