<svg version="1.1" width="105" height="15" xmlns="http://www.w3.org/2000/svg"><path d="M56.9,7.9L56.9,5.9L58.5,5.9L58.5,6.1L57.1,6.1L57.1,8.1L40.1,8.1L40.1,8.4L40.6,8.4L40.6,9.9L41.1,9.9L41.1,10.4L42,10.4L42,10.6L40.9,10.6L40.9,10.1L40.4,10.1L40.4,8.6L39.9,8.6L39.9,8.1L20.4,8.1L20.4,7.6L19.5,7.6L19.5,7.4L20.6,7.4L20.6,7.9z" stroke="none"/><path d="M89.4,8.9L89.4,8.4L92.4,8.4L92.4,7.9L93.9,7.9L93.9,7.4L97.5,7.4L97.5,7.6L94.1,7.6L94.1,8.1L92.6,8.1L92.6,8.6L89.6,8.6L89.6,9.1L86.6,9.1L86.6,9.6L83.1,9.6L83.1,10.1L81.6,10.1L81.6,10.6L81,10.6L81,10.4L81.4,10.4L81.4,9.9L82.9,9.9L82.9,9.4L86.4,9.4L86.4,9.1L81,9.1L81,8.9z" stroke="none"/><path d="M40.1,10.4L40.1,10.9L41.6,10.9L41.6,11.4L42.9,11.4L42.9,10.9L46.6,10.9L46.6,11.4L48.9,11.4L48.9,10.9L54.4,10.9L54.4,9.4L54.9,9.4L54.9,8.9L55.5,8.9L55.5,9.1L55.1,9.1L55.1,9.6L54.6,9.6L54.6,11.1L49.1,11.1L49.1,11.6L46.4,11.6L46.4,11.1L43.1,11.1L43.1,11.6L41.4,11.6L41.4,11.1L39.9,11.1L39.9,10.6L34.6,10.6L34.6,11.1L22.1,11.1L22.1,11.6L20.6,11.6L20.6,12.1L19.5,12.1L19.5,11.9L20.4,11.9L20.4,11.4L21.9,11.4L21.9,10.9L34.4,10.9L34.4,10.6L28.5,10.6L28.5,10.4z" stroke="none"/><path d="M38.9,4.4L38.9,4.1L36.1,4.1L36.1,4.5L35.9,4.5L35.9,3.9L39.1,3.9L39.1,4.4L39.6,4.4L39.6,5.6L38.6,5.6L38.6,6.6L38.1,6.6L38.1,7.1L20.4,7.1L20.4,6.6L19.1,6.6L19.1,7.1L18.6,7.1L18.6,10.6L18.1,10.6L18.1,11.1L17.1,11.1L17.1,12.9L53.4,12.9L53.4,11.9L56.4,11.9L56.4,9.9L58.4,9.9L58.4,7.9L58.9,7.9L58.9,6.9L59.9,6.9L59.9,6L60.1,6L60.1,7.1L59.1,7.1L59.1,8.1L58.6,8.1L58.6,10.1L56.6,10.1L56.6,12.1L53.6,12.1L53.6,13.1L16.9,13.1L16.9,10.9L17.9,10.9L17.9,10.4L18.4,10.4L18.4,6.9L18.9,6.9L18.9,6.4L20.6,6.4L20.6,6.9L37.9,6.9L37.9,6.4L38.4,6.4L38.4,5.4L39.4,5.4L39.4,4.6L39.1,4.6L39.1,5.1L23.1,5.1L23.1,5.6L21.9,5.6L21.9,5.1L21.4,5.1L21.4,4.6L21,4.6L21,4.4L21.6,4.4L21.6,4.9L22.1,4.9L22.1,5.4L22.9,5.4L22.9,4.9L38.9,4.9L38.9,4.6L37.5,4.6L37.5,4.4z" stroke="none"/><path d="M67.4,5.9L67.4,5.4L81.9,5.4L81.9,4.9L83.1,4.9L83.1,5.4L83.6,5.4L83.6,5.9L84,5.9L84,6.1L83.4,6.1L83.4,5.6L82.9,5.6L82.9,5.1L82.1,5.1L82.1,5.6L67.6,5.6L67.6,5.9L70.5,5.9L70.5,6.1L67.6,6.1L67.6,6.4L74.1,6.4L74.1,7.4L74.6,7.4L74.6,8.4L75.1,8.4L75.1,9L74.9,9L74.9,8.6L74.4,8.6L74.4,7.6L73.9,7.6L73.9,6.6L67.4,6.6L67.4,6.1L67.1,6.1L67.1,6.9L73.1,6.9L73.1,7.4L73.6,7.4L73.6,7.9L74.1,7.9L74.1,8.9L74.6,8.9L74.6,9.4L78.4,9.4L78.4,7.9L83.4,7.9L83.4,7.4L85.4,7.4L85.4,5.1L84.9,5.1L84.9,4.1L83.4,4.1L83.4,2.6L82.9,2.6L82.9,2.1L42.1,2.1L42.1,2.6L41.6,2.6L41.6,4.6L40.5,4.6L40.5,4.4L41.4,4.4L41.4,2.4L41.9,2.4L41.9,1.9L83.1,1.9L83.1,2.4L83.6,2.4L83.6,3.9L85.1,3.9L85.1,4.9L85.6,4.9L85.6,7.6L83.6,7.6L83.6,8.1L78.6,8.1L78.6,9.6L74.4,9.6L74.4,9.1L73.9,9.1L73.9,8.1L73.4,8.1L73.4,7.6L72.9,7.6L72.9,7.1L66.9,7.1L66.9,5.9z" stroke="none"/><path d="M64.4,4.4L64.4,3.9L76.9,3.9L76.9,3.4L77.4,3.4L77.4,2.9L82.5,2.9L82.5,3.1L77.6,3.1L77.6,3.6L77.1,3.6L77.1,4.1L64.6,4.1L64.6,4.4L84.6,4.4L84.6,5.4L85.1,5.4L85.1,7.1L82.9,7.1L82.9,6.6L82.4,6.6L82.4,6L82.6,6L82.6,6.4L83.1,6.4L83.1,6.9L84.9,6.9L84.9,5.6L84.4,5.6L84.4,4.6L64.6,4.6L64.6,5.1L45.6,5.1L45.6,5.6L45.1,5.6L45.1,6.1L43.5,6.1L43.5,5.9L44.9,5.9L44.9,5.4L45.4,5.4L45.4,4.9L64.4,4.9L64.4,4.6L51,4.6L51,4.4z" stroke="none"/><path d="M15.1,7.5L14.9,7.5L14.9,6L15.1,6z" stroke="none"/><path d="M45,9.1L45,8.9L46.5,8.9L46.5,9.1z" stroke="none"/><path d="M51,11.9L51,12.1L49.5,12.1L49.5,11.9z" stroke="none"/><path d="M88.4,3L88.6,3L88.6,4.5L88.4,4.5z" stroke="none"/><path d="M45,11.9L45,12.1L43.5,12.1L43.5,11.9z" stroke="none"/><path d="M6,7.4L6,7.6L4.9,7.6L4.9,4.4L6,4.4L6,4.6L5.1,4.6L5.1,7.4z" stroke="none"/><path d="M18,12.1L18,11.9L18.4,11.9L18.4,11.4L18.9,11.4L18.9,10.9L19.9,10.9L19.9,10.4L21,10.4L21,10.6L20.1,10.6L20.1,11.1L19.1,11.1L19.1,11.6L18.6,11.6L18.6,12.1z" stroke="none"/><path d="M52.5,12.1L52.5,11.9L52.9,11.9L52.9,11.4L54.9,11.4L54.9,10.9L55.4,10.9L55.4,10.5L55.6,10.5L55.6,11.1L55.1,11.1L55.1,11.6L53.1,11.6L53.1,12.1z" stroke="none"/><path d="M100.6,12L100.4,12L100.4,10.6L99.4,10.6L99.4,9.6L97.4,9.6L97.4,9L97.6,9L97.6,9.4L99.6,9.4L99.6,10.4L100.6,10.4z" stroke="none"/><path d="M100.4,7.5L100.6,7.5L100.6,9.9L101.6,9.9L101.6,10.4L102.1,10.4L102.1,12L101.9,12L101.9,10.6L101.4,10.6L101.4,10.1L100.4,10.1z" stroke="none"/><path d="M93,12.1L93,11.9L95.4,11.9L95.4,10.4L97.5,10.4L97.5,10.6L95.6,10.6L95.6,12.1z" stroke="none"/><path d="M52.5,5.9L52.5,6.1L45.6,6.1L45.6,6.6L44.1,6.6L44.1,7.1L42.9,7.1L42.9,6.6L42.4,6.6L42.4,4.9L44.9,4.9L44.9,3.9L46.4,3.9L46.4,2.9L48,2.9L48,3.1L46.6,3.1L46.6,4.1L45.1,4.1L45.1,5.1L42.6,5.1L42.6,6.4L43.1,6.4L43.1,6.9L43.9,6.9L43.9,6.4L45.4,6.4L45.4,5.9z" stroke="none"/><path d="M90.1,6L89.9,6L89.9,5.4L91.4,5.4L91.4,4.4L92.4,4.4L92.4,3.9L93.4,3.9L93.4,3.4L93.9,3.4L93.9,2.9L94.5,2.9L94.5,3.1L94.1,3.1L94.1,3.6L93.6,3.6L93.6,4.1L92.6,4.1L92.6,4.6L91.6,4.6L91.6,5.6L90.1,5.6z" stroke="none"/><path d="M54,8.9L54,9.1L48.1,9.1L48.1,10.5L47.9,10.5L47.9,8.9z" stroke="none"/><path d="M7.5,6.1L7.5,5.9L11.9,5.9L11.9,4.9L13.4,4.9L13.4,4.5L13.6,4.5L13.6,5.1L12.1,5.1L12.1,6.1z" stroke="none"/><path d="M6,6.1L6,5.9L6.6,5.9L6.6,6.9L12.6,6.9L12.6,7.9L14.1,7.9L14.1,8.4L15.9,8.4L15.9,7.9L16.4,7.9L16.4,7.5L16.6,7.5L16.6,8.1L16.1,8.1L16.1,8.6L13.9,8.6L13.9,8.1L12.4,8.1L12.4,7.1L6.4,7.1L6.4,6.1z" stroke="none"/><path d="M102.1,6L101.9,6L101.9,2.6L94.9,2.6L94.9,2.1L92.1,2.1L92.1,2.6L91.6,2.6L91.6,3L91.4,3L91.4,2.4L91.9,2.4L91.9,1.9L95.1,1.9L95.1,2.4L102.1,2.4z" stroke="none"/><path d="M10.5,9.1L10.5,8.9L16.4,8.9L16.4,8.4L17.4,8.4L17.4,5.4L18.4,5.4L18.4,4.9L19.4,4.9L19.4,4.4L19.9,4.4L19.9,3.9L20.4,3.9L20.4,3.4L21.6,3.4L21.6,3.9L22.1,3.9L22.1,4.4L22.5,4.4L22.5,4.6L21.9,4.6L21.9,4.1L21.4,4.1L21.4,3.6L20.6,3.6L20.6,4.1L20.1,4.1L20.1,4.6L19.6,4.6L19.6,5.1L18.6,5.1L18.6,5.6L17.6,5.6L17.6,8.6L16.6,8.6L16.6,9.1z" stroke="none"/><path d="M69,12.1L69,11.9L70.1,11.9L70.1,12.4L71.1,12.4L71.1,12.9L86.4,12.9L86.4,11.4L86.9,11.4L86.9,10.9L87.9,10.9L87.9,10.4L88.5,10.4L88.5,10.6L88.1,10.6L88.1,11.1L87.1,11.1L87.1,11.6L86.6,11.6L86.6,13.1L70.9,13.1L70.9,12.6L69.9,12.6L69.9,12.1z" stroke="none"/><path d="M93,8.9L93,9.1L91.6,9.1L91.6,9.6L87.6,9.6L87.6,10.1L84.6,10.1L84.6,10.6L83.6,10.6L83.6,11.1L83.1,11.1L83.1,11.6L73.6,11.6L73.6,12.1L72,12.1L72,11.9L73.4,11.9L73.4,11.4L82.9,11.4L82.9,10.9L83.4,10.9L83.4,10.4L84.4,10.4L84.4,9.9L87.4,9.9L87.4,9.4L91.4,9.4L91.4,8.9z" stroke="none"/><path d="M91.5,7.6L91.5,7.4L93.4,7.4L93.4,6.9L96.9,6.9L96.9,6.4L98.1,6.4L98.1,6.9L99.9,6.9L99.9,6.4L101.1,6.4L101.1,6.9L101.6,6.9L101.6,8.9L102.1,8.9L102.1,9.4L102.6,9.4L102.6,10.4L103.1,10.4L103.1,12.6L102.6,12.6L102.6,13.1L87.6,13.1L87.6,13.6L67.9,13.6L67.9,11.4L68.4,11.4L68.4,10.9L68.9,10.9L68.9,10.4L70.5,10.4L70.5,10.6L69.1,10.6L69.1,11.1L68.6,11.1L68.6,11.6L68.1,11.6L68.1,13.4L87.4,13.4L87.4,12.9L102.4,12.9L102.4,12.4L102.9,12.4L102.9,10.6L102.4,10.6L102.4,9.6L101.9,9.6L101.9,9.1L101.4,9.1L101.4,7.1L100.9,7.1L100.9,6.6L100.1,6.6L100.1,7.1L97.9,7.1L97.9,6.6L97.1,6.6L97.1,7.1L93.6,7.1L93.6,7.6z" stroke="none"/><path d="M10.5,4.4L10.5,4.6L6.9,4.6L6.9,4.1L6.4,4.1L6.4,3.6L5.6,3.6L5.6,4.1L4.6,4.1L4.6,7.9L5.6,7.9L5.6,8.4L9.6,8.4L9.6,9.4L10.1,9.4L10.1,9.9L17.9,9.9L17.9,6.4L18.4,6.4L18.4,5.9L37.5,5.9L37.5,6.1L18.6,6.1L18.6,6.6L18.1,6.6L18.1,10.1L9.9,10.1L9.9,9.6L9.4,9.6L9.4,8.6L5.4,8.6L5.4,8.1L4.4,8.1L4.4,3.9L5.4,3.9L5.4,3.4L6.6,3.4L6.6,3.9L7.1,3.9L7.1,4.4z" stroke="none"/><path d="M99,5.9L99,6.1L91.1,6.1L91.1,6.6L90.6,6.6L90.6,7.1L89.4,7.1L89.4,6.6L88.9,6.6L88.9,4.9L89.4,4.9L89.4,3.4L89.9,3.4L89.9,2.4L90.9,2.4L90.9,1.4L102.6,1.4L102.6,5.4L103.1,5.4L103.1,9.9L103.6,9.9L103.6,13.1L103.1,13.1L103.1,13.6L88.1,13.6L88.1,14.1L67.4,14.1L67.4,10.9L67.9,10.9L67.9,10.4L68.4,10.4L68.4,9.4L71.1,9.4L71.1,9.9L71.6,9.9L71.6,10.4L72,10.4L72,10.6L71.4,10.6L71.4,10.1L70.9,10.1L70.9,9.6L68.6,9.6L68.6,10.6L68.1,10.6L68.1,11.1L67.6,11.1L67.6,13.9L87.9,13.9L87.9,13.4L102.9,13.4L102.9,12.9L103.4,12.9L103.4,10.1L102.9,10.1L102.9,5.6L102.4,5.6L102.4,1.6L91.1,1.6L91.1,2.6L90.1,2.6L90.1,3.6L89.6,3.6L89.6,5.1L89.1,5.1L89.1,6.4L89.6,6.4L89.6,6.9L90.4,6.9L90.4,6.4L90.9,6.4L90.9,5.9z" stroke="none"/><path d="M64.5,7.4L64.5,7.6L61.6,7.6L61.6,8.1L61.1,8.1L61.1,9.6L60.6,9.6L60.6,10.1L59.1,10.1L59.1,10.6L58.6,10.6L58.6,11.1L57.1,11.1L57.1,12.6L54.6,12.6L54.6,13.1L54.1,13.1L54.1,13.6L6.9,13.6L6.9,11.6L6.4,11.6L6.4,9.6L3.9,9.6L3.9,3.4L4.4,3.4L4.4,2.9L14.6,2.9L14.6,3.4L15.1,3.4L15.1,3.9L15.6,3.9L15.6,5.4L16.1,5.4L16.1,5.9L16.5,5.9L16.5,6.1L15.9,6.1L15.9,5.6L15.4,5.6L15.4,4.1L14.9,4.1L14.9,3.6L14.4,3.6L14.4,3.1L4.6,3.1L4.6,3.6L4.1,3.6L4.1,9.4L6.6,9.4L6.6,11.4L7.1,11.4L7.1,13.4L53.9,13.4L53.9,12.9L54.4,12.9L54.4,12.4L56.9,12.4L56.9,10.9L58.4,10.9L58.4,10.4L58.9,10.4L58.9,9.9L60.4,9.9L60.4,9.4L60.9,9.4L60.9,7.9L61.4,7.9L61.4,7.4z" stroke="none"/></svg>