<svg version="1.1" width="105" height="15" xmlns="http://www.w3.org/2000/svg"><path d="M23.4,6.9L23.4,6.4L23.9,6.4L23.9,5.9L25.5,5.9L25.5,6.1L24.1,6.1L24.1,6.6L23.6,6.6L23.6,7.1L22.6,7.1L22.6,10.5L22.4,10.5L22.4,7.1L22.1,7.1L22.1,10.9L25.4,10.9L25.4,10.5L25.6,10.5L25.6,11.1L21.9,11.1L21.9,6.9z" stroke="none"/><path d="M73.6,4.9L73.6,5.4L89.1,5.4L89.1,6.4L90.1,6.4L90.1,7.4L90.6,7.4L90.6,8.4L92.6,8.4L92.6,8.9L93,8.9L93,9.1L92.4,9.1L92.4,8.6L90.4,8.6L90.4,7.6L89.9,7.6L89.9,6.6L88.9,6.6L88.9,5.6L73.4,5.6L73.4,5.1L69.1,5.1L69.1,5.6L61.6,5.6L61.6,6.1L61.1,6.1L61.1,6.6L60.6,6.6L60.6,7.1L58.6,7.1L58.6,7.6L57,7.6L57,7.4L58.4,7.4L58.4,6.9L60.4,6.9L60.4,6.4L60.9,6.4L60.9,5.9L61.4,5.9L61.4,5.4L68.9,5.4L68.9,5.1L63.4,5.1L63.4,4.6L63,4.6L63,4.4L63.6,4.4L63.6,4.9z" stroke="none"/><path d="M49.5,5.9L49.5,6.1L42.1,6.1L42.1,6.4L53.6,6.4L53.6,6.9L54.6,6.9L54.6,7.4L55.1,7.4L55.1,7.9L56.6,7.9L56.6,8.4L60.1,8.4L60.1,8.9L61.5,8.9L61.5,9.1L59.9,9.1L59.9,8.6L56.4,8.6L56.4,8.1L54.9,8.1L54.9,7.6L54.4,7.6L54.4,7.1L53.4,7.1L53.4,6.6L41.9,6.6L41.9,6.1L37.9,6.1L37.9,5.6L36.9,5.6L36.9,5.1L30.1,5.1L30.1,5.6L27.4,5.6L27.4,5.1L24.1,5.1L24.1,5.6L22.6,5.6L22.6,6.6L21.6,6.6L21.6,8.6L21.1,8.6L21.1,9L20.9,9L20.9,8.4L21.4,8.4L21.4,6.4L22.4,6.4L22.4,5.4L23.9,5.4L23.9,4.9L27.6,4.9L27.6,5.4L29.9,5.4L29.9,4.9L37.1,4.9L37.1,5.4L38.1,5.4L38.1,5.9z" stroke="none"/><path d="M81.9,7.9L81.9,7.6L76.1,7.6L76.1,8.1L75.6,8.1L75.6,8.6L73.9,8.6L73.9,8.1L73.4,8.1L73.4,7.6L72,7.6L72,7.4L73.6,7.4L73.6,7.9L74.1,7.9L74.1,8.4L75.4,8.4L75.4,7.9L75.9,7.9L75.9,7.4L82.1,7.4L82.1,7.9L85.1,7.9L85.1,8.4L86.6,8.4L86.6,8.9L87.1,8.9L87.1,9.4L88.6,9.4L88.6,9.9L90.6,9.9L90.6,10.4L91.6,10.4L91.6,10.9L96.1,10.9L96.1,11.4L99.9,11.4L99.9,10.4L100.5,10.4L100.5,10.6L100.1,10.6L100.1,11.6L95.9,11.6L95.9,11.1L91.4,11.1L91.4,10.6L90.4,10.6L90.4,10.1L88.4,10.1L88.4,9.6L86.9,9.6L86.9,9.1L86.4,9.1L86.4,8.6L84.9,8.6L84.9,8.1L82.1,8.1L82.1,8.4L82.6,8.4L82.6,9.9L83.1,9.9L83.1,10.4L84,10.4L84,10.6L82.9,10.6L82.9,10.1L82.4,10.1L82.4,8.6L81.9,8.6L81.9,8.1L81.6,8.1L81.6,11.6L80.1,11.6L80.1,12.1L79.5,12.1L79.5,11.9L79.9,11.9L79.9,11.4L81.4,11.4L81.4,7.9z" stroke="none"/><path d="M23.4,8.9L23.4,8.4L32.1,8.4L32.1,9.6L31.6,9.6L31.6,10.1L29.6,10.1L29.6,10.6L28.1,10.6L28.1,11.1L27.6,11.1L27.6,11.6L27.1,11.6L27.1,12.1L13.1,12.1L13.1,12.6L8.9,12.6L8.9,12.1L6,12.1L6,11.9L9.1,11.9L9.1,12.4L12.9,12.4L12.9,11.9L26.9,11.9L26.9,11.4L27.4,11.4L27.4,10.9L27.9,10.9L27.9,10.4L29.4,10.4L29.4,9.9L31.4,9.9L31.4,9.4L31.9,9.4L31.9,8.6L23.6,8.6L23.6,8.9L31.5,8.9L31.5,9.1L23.6,9.1L23.6,9.4L26.1,9.4L26.1,9.9L26.6,9.9L26.6,11.1L26.1,11.1L26.1,11.6L12.6,11.6L12.6,12.1L12,12.1L12,11.9L12.4,11.9L12.4,11.4L25.9,11.4L25.9,10.9L26.4,10.9L26.4,10.1L25.9,10.1L25.9,9.6L23.4,9.6L23.4,9.1L22.9,9.1L22.9,7.9L52.6,7.9L52.6,8.4L53.1,8.4L53.1,9.4L54.1,9.4L54.1,12L53.9,12L53.9,9.6L52.9,9.6L52.9,8.6L52.4,8.6L52.4,8.1L23.1,8.1L23.1,8.9z" stroke="none"/><path d="M83.4,6.9L83.4,6.6L71.6,6.6L71.6,7.1L71.1,7.1L71.1,9.1L70.1,9.1L70.1,10.1L69.6,10.1L69.6,10.6L69,10.6L69,10.4L69.4,10.4L69.4,9.9L69.9,9.9L69.9,8.9L70.9,8.9L70.9,6.9L71.4,6.9L71.4,6.4L83.6,6.4L83.6,6.9L86.6,6.9L86.6,7.4L88.1,7.4L88.1,7.9L89.1,7.9L89.1,8.4L89.6,8.4L89.6,8.9L92.1,8.9L92.1,9.4L92.6,9.4L92.6,9.9L98.1,9.9L98.1,10.4L99,10.4L99,10.6L97.9,10.6L97.9,10.1L92.4,10.1L92.4,9.6L91.9,9.6L91.9,9.1L89.4,9.1L89.4,8.6L88.9,8.6L88.9,8.1L87.9,8.1L87.9,7.6L86.4,7.6L86.4,7.1L83.6,7.1L83.6,7.4L86.1,7.4L86.1,7.9L87.1,7.9L87.1,8.4L88.6,8.4L88.6,8.9L89.1,8.9L89.1,9.4L91.6,9.4L91.6,9.9L92.1,9.9L92.1,10.4L96.6,10.4L96.6,10.9L99.4,10.9L99.4,9.9L99.9,9.9L99.9,8.9L100.5,8.9L100.5,9.1L100.1,9.1L100.1,10.1L99.6,10.1L99.6,11.1L96.4,11.1L96.4,10.6L91.9,10.6L91.9,10.1L91.4,10.1L91.4,9.6L88.9,9.6L88.9,9.1L88.4,9.1L88.4,8.6L86.9,8.6L86.9,8.1L85.9,8.1L85.9,7.6L83.4,7.6L83.4,7.1L75.1,7.1L75.1,7.5L74.9,7.5L74.9,6.9z" stroke="none"/><path d="M64.5,7.6L64.5,7.4L66,7.4L66,7.6z" stroke="none"/><path d="M69,2.9L69,3.1L67.5,3.1L67.5,2.9z" stroke="none"/><path d="M7.6,9L7.4,9L7.4,7.5L7.6,7.5z" stroke="none"/><path d="M102.1,9L101.9,9L101.9,7.1L100.4,7.1L100.4,6L100.6,6L100.6,6.9L102.1,6.9z" stroke="none"/><path d="M25.5,2.9L25.5,3.1L25.1,3.1L25.1,4.1L24.1,4.1L24.1,4.6L23.6,4.6L23.6,5.1L22.1,5.1L22.1,5.6L21.6,5.6L21.6,6.1L21,6.1L21,5.9L21.4,5.9L21.4,5.4L21.9,5.4L21.9,4.9L23.4,4.9L23.4,4.4L23.9,4.4L23.9,3.9L24.9,3.9L24.9,2.9z" stroke="none"/><path d="M55.4,12L55.6,12L55.6,12.6L54.6,12.6L54.6,13.1L53.4,13.1L53.4,12.6L52.9,12.6L52.9,10.6L50.9,10.6L50.9,9L51.1,9L51.1,10.4L53.1,10.4L53.1,12.4L53.6,12.4L53.6,12.9L54.4,12.9L54.4,12.4L55.4,12.4z" stroke="none"/><path d="M79.5,4.6L79.5,4.4L90,4.4L90,4.6z" stroke="none"/><path d="M10.5,3.1L10.5,2.9L24,2.9L24,3.1z" stroke="none"/><path d="M16.5,10.4L16.5,10.6L5.6,10.6L5.6,11.6L5.1,11.6L5.1,12.4L5.6,12.4L5.6,12.9L32.9,12.9L32.9,12L33.1,12L33.1,13.1L5.4,13.1L5.4,12.6L4.9,12.6L4.9,11.4L5.4,11.4L5.4,10.4z" stroke="none"/><path d="M39,12.1L39,11.9L51.1,11.9L51.1,12.4L52.6,12.4L52.6,12.9L53.1,12.9L53.1,13.4L54.9,13.4L54.9,12.9L56.4,12.9L56.4,11.6L55.9,11.6L55.9,11.1L55.4,11.1L55.4,10.5L55.6,10.5L55.6,10.9L56.1,10.9L56.1,11.4L56.6,11.4L56.6,13.1L55.1,13.1L55.1,13.6L52.9,13.6L52.9,13.1L52.4,13.1L52.4,12.6L50.9,12.6L50.9,12.1z" stroke="none"/><path d="M21,10.4L21,10.6L17.9,10.6L17.9,10.1L17.4,10.1L17.4,9.6L9.1,9.6L9.1,10.1L6.4,10.1L6.4,9.6L5.4,9.6L5.4,9.1L4.5,9.1L4.5,8.9L5.6,8.9L5.6,9.4L6.6,9.4L6.6,9.9L8.9,9.9L8.9,9.4L17.6,9.4L17.6,9.9L18.1,9.9L18.1,10.4z" stroke="none"/><path d="M96,5.9L96,6.1L92.4,6.1L92.4,5.1L91.9,5.1L91.9,4.6L91.4,4.6L91.4,4.1L90.4,4.1L90.4,3.6L79.9,3.6L79.9,3.1L79.5,3.1L79.5,2.9L80.1,2.9L80.1,3.4L90.6,3.4L90.6,3.9L91.6,3.9L91.6,4.4L92.1,4.4L92.1,4.9L92.6,4.9L92.6,5.9z" stroke="none"/><path d="M93,4.4L93,4.6L92.4,4.6L92.4,4.1L91.9,4.1L91.9,3.6L91.4,3.6L91.4,3.1L81.4,3.1L81.4,2.6L80.9,2.6L80.9,2.1L78.6,2.1L78.6,3.1L77.6,3.1L77.6,4.1L75.6,4.1L75.6,4.6L75,4.6L75,4.4L75.4,4.4L75.4,3.9L77.4,3.9L77.4,2.9L78.4,2.9L78.4,1.9L81.1,1.9L81.1,2.4L81.6,2.4L81.6,2.9L91.6,2.9L91.6,3.4L92.1,3.4L92.1,3.9L92.6,3.9L92.6,4.4z" stroke="none"/><path d="M28.5,3.1L28.5,2.9L29.1,2.9L29.1,3.9L45.6,3.9L45.6,4.4L46.5,4.4L46.5,4.6L45.4,4.6L45.4,4.1L28.9,4.1L28.9,3.1z" stroke="none"/><path d="M30.1,3L29.9,3L29.9,2.6L29.4,2.6L29.4,2.1L9.6,2.1L9.6,5.4L10.6,5.4L10.6,6L10.4,6L10.4,5.6L9.4,5.6L9.4,1.9L29.6,1.9L29.6,2.4L30.1,2.4z" stroke="none"/><path d="M28.5,4.6L28.5,4.4L44.1,4.4L44.1,4.9L46.1,4.9L46.1,5.4L48.4,5.4L48.4,4.4L49.9,4.4L49.9,2.9L51,2.9L51,3.1L50.1,3.1L50.1,4.6L48.6,4.6L48.6,5.6L45.9,5.6L45.9,5.1L43.9,5.1L43.9,4.6z" stroke="none"/><path d="M6,7.4L6,7.6L4.1,7.6L4.1,8.6L3.6,8.6L3.6,11.4L4.1,11.4L4.1,12.4L4.6,12.4L4.6,12.9L5.1,12.9L5.1,13.4L33.4,13.4L33.4,12.4L33.9,12.4L33.9,11.1L32.6,11.1L32.6,11.6L31.6,11.6L31.6,12L31.4,12L31.4,11.4L32.4,11.4L32.4,10.9L34.1,10.9L34.1,12.6L33.6,12.6L33.6,13.6L4.9,13.6L4.9,13.1L4.4,13.1L4.4,12.6L3.9,12.6L3.9,11.6L3.4,11.6L3.4,8.4L3.9,8.4L3.9,7.4z" stroke="none"/><path d="M102,5.9L102,6.1L101.4,6.1L101.4,5.1L93.9,5.1L93.9,4.1L93.4,4.1L93.4,2.6L83.9,2.6L83.9,2.1L81.4,2.1L81.4,1.6L77.6,1.6L77.6,2.6L75.1,2.6L75.1,3L74.9,3L74.9,2.4L77.4,2.4L77.4,1.4L81.6,1.4L81.6,1.9L84.1,1.9L84.1,2.4L93.6,2.4L93.6,3.9L94.1,3.9L94.1,4.9L101.6,4.9L101.6,5.9z" stroke="none"/><path d="M3,4.6L3,4.4L6.9,4.4L6.9,2.9L7.4,2.9L7.4,2.4L8.4,2.4L8.4,1.9L8.9,1.9L8.9,1.4L35.1,1.4L35.1,2.9L36,2.9L36,3.1L34.9,3.1L34.9,1.6L9.1,1.6L9.1,2.1L8.6,2.1L8.6,2.6L7.6,2.6L7.6,3.1L7.1,3.1L7.1,4.6z" stroke="none"/><path d="M94.6,3L94.4,3L94.4,2.6L93.9,2.6L93.9,2.1L87.9,2.1L87.9,1.6L81.9,1.6L81.9,1.1L64.1,1.1L64.1,1.6L62.6,1.6L62.6,2.1L62.1,2.1L62.1,3.1L61.6,3.1L61.6,4.1L61.1,4.1L61.1,4.6L60.6,4.6L60.6,6.1L60,6.1L60,5.9L60.4,5.9L60.4,4.4L60.9,4.4L60.9,3.9L61.4,3.9L61.4,2.9L61.9,2.9L61.9,1.9L62.4,1.9L62.4,1.4L63.9,1.4L63.9,0.9L82.1,0.9L82.1,1.4L88.1,1.4L88.1,1.9L94.1,1.9L94.1,2.4L94.6,2.4z" stroke="none"/><path d="M57,2.9L57,3.1L52.9,3.1L52.9,2.6L52.4,2.6L52.4,2.1L38.9,2.1L38.9,1.6L38.4,1.6L38.4,1.1L6.1,1.1L6.1,1.6L5.1,1.6L5.1,2.1L3.1,2.1L3.1,2.6L2.6,2.6L2.6,3.6L2.1,3.6L2.1,5.4L6.6,5.4L6.6,5.9L9.6,5.9L9.6,6.4L10.1,6.4L10.1,6.9L16.6,6.9L16.6,7.5L16.4,7.5L16.4,7.1L9.9,7.1L9.9,6.6L9.4,6.6L9.4,6.1L6.4,6.1L6.4,5.6L1.9,5.6L1.9,3.4L2.4,3.4L2.4,2.4L2.9,2.4L2.9,1.9L4.9,1.9L4.9,1.4L5.9,1.4L5.9,0.9L38.6,0.9L38.6,1.4L39.1,1.4L39.1,1.9L52.6,1.9L52.6,2.4L53.1,2.4L53.1,2.9z" stroke="none"/><path d="M2.9,7.5L3.1,7.5L3.1,12.9L3.6,12.9L3.6,13.4L4.6,13.4L4.6,13.9L33.9,13.9L33.9,12.9L34.4,12.9L34.4,11.9L35.4,11.9L35.4,11.4L37.9,11.4L37.9,10.9L44.4,10.9L44.4,9.4L44.9,9.4L44.9,9L45.1,9L45.1,9.6L44.6,9.6L44.6,11.1L38.1,11.1L38.1,11.6L35.6,11.6L35.6,12.1L34.6,12.1L34.6,13.1L34.1,13.1L34.1,14.1L4.4,14.1L4.4,13.6L3.4,13.6L3.4,13.1L2.9,13.1z" stroke="none"/><path d="M18,8.9L18,9.1L10.4,9.1L10.4,7.6L9.4,7.6L9.4,7.1L7.9,7.1L7.9,6.6L2.6,6.6L2.6,7.1L2.1,7.1L2.1,12.4L2.6,12.4L2.6,13.4L3.1,13.4L3.1,14.4L54.9,14.4L54.9,13.9L55.4,13.9L55.4,13.4L59.9,13.4L59.9,12.9L61.9,12.9L61.9,12.4L63.4,12.4L63.4,11.4L64.4,11.4L64.4,10.5L64.6,10.5L64.6,11.6L63.6,11.6L63.6,12.6L62.1,12.6L62.1,13.1L60.1,13.1L60.1,13.6L55.6,13.6L55.6,14.1L55.1,14.1L55.1,14.6L2.9,14.6L2.9,13.6L2.4,13.6L2.4,12.6L1.9,12.6L1.9,6.9L2.4,6.9L2.4,6.4L8.1,6.4L8.1,6.9L9.6,6.9L9.6,7.4L10.6,7.4L10.6,8.9z" stroke="none"/><path d="M85.5,10.4L85.5,10.6L85.1,10.6L85.1,11.1L84.6,11.1L84.6,11.6L82.6,11.6L82.6,12.1L80.6,12.1L80.6,12.6L80.1,12.6L80.1,13.1L71.9,13.1L71.9,12.6L71.4,12.6L71.4,12.1L65.4,12.1L65.4,10.1L64.9,10.1L64.9,9.6L64.1,9.6L64.1,10.1L60.9,10.1L60.9,9.6L58.9,9.6L58.9,9.1L53.4,9.1L53.4,8.1L52.9,8.1L52.9,7.6L36.9,7.6L36.9,6.6L35.9,6.6L35.9,6L36.1,6L36.1,6.4L37.1,6.4L37.1,7.4L53.1,7.4L53.1,7.9L53.6,7.9L53.6,8.9L59.1,8.9L59.1,9.4L61.1,9.4L61.1,9.9L63.9,9.9L63.9,9.4L65.1,9.4L65.1,9.9L65.6,9.9L65.6,11.9L71.6,11.9L71.6,12.4L72.1,12.4L72.1,12.9L79.9,12.9L79.9,12.4L80.4,12.4L80.4,11.9L82.4,11.9L82.4,11.4L84.4,11.4L84.4,10.9L84.9,10.9L84.9,10.4z" stroke="none"/></svg>