<svg version="1.1" width="105" height="15" xmlns="http://www.w3.org/2000/svg"><path d="M32.9,2.9L32.9,2.4L43.1,2.4L43.1,2.9L43.5,2.9L43.5,3.1L42.9,3.1L42.9,2.6L33.1,2.6L33.1,2.9L34.5,2.9L34.5,3.1L32.6,3.1L32.6,3.6L32.1,3.6L32.1,4.1L22.4,4.1L22.4,3.1L21,3.1L21,2.9L22.6,2.9L22.6,3.9L31.9,3.9L31.9,3.4L32.4,3.4L32.4,2.9z" stroke="none"/><path d="M36.9,6.9L36.9,5.9L37.5,5.9L37.5,6.1L37.1,6.1L37.1,7.1L30.6,7.1L30.6,7.4L37.1,7.4L37.1,7.9L38.1,7.9L38.1,8.4L40.6,8.4L40.6,9L40.4,9L40.4,8.6L37.9,8.6L37.9,8.1L36.9,8.1L36.9,7.6L30.4,7.6L30.4,7.1L25.9,7.1L25.9,6.6L15.4,6.6L15.4,6.1L13.5,6.1L13.5,5.9L15.6,5.9L15.6,6.4L26.1,6.4L26.1,6.9z" stroke="none"/><path d="M30.6,10.4L30.6,11.4L36.9,11.4L36.9,10.9L39.6,10.9L39.6,11.4L40.9,11.4L40.9,10.9L41.9,10.9L41.9,10.5L42.1,10.5L42.1,11.1L41.1,11.1L41.1,11.6L39.4,11.6L39.4,11.1L37.1,11.1L37.1,11.6L30.4,11.6L30.4,10.6L30.1,10.6L30.1,11.9L36.6,11.9L36.6,12.4L37.1,12.4L37.1,12.9L46.4,12.9L46.4,12L46.6,12L46.6,13.1L36.9,13.1L36.9,12.6L36.4,12.6L36.4,12.1L29.9,12.1L29.9,10.6L26.4,10.6L26.4,10.1L24.4,10.1L24.4,9.6L20.1,9.6L20.1,10.1L9.4,10.1L9.4,9.6L2.9,9.6L2.9,9L3.1,9L3.1,9.4L9.6,9.4L9.6,9.9L19.9,9.9L19.9,9.4L24.6,9.4L24.6,9.9L26.6,9.9L26.6,10.4z" stroke="none"/><path d="M53.4,9.9L53.4,9.6L51.9,9.6L51.9,8.6L50.9,8.6L50.9,7.6L50.4,7.6L50.4,7.1L47.6,7.1L47.6,7.6L45.6,7.6L45.6,9.1L45.1,9.1L45.1,10.6L43.1,10.6L43.1,11.1L42.6,11.1L42.6,12.1L37.5,12.1L37.5,11.9L42.4,11.9L42.4,10.9L42.9,10.9L42.9,10.4L44.9,10.4L44.9,8.9L45.4,8.9L45.4,7.4L47.4,7.4L47.4,6.9L50.6,6.9L50.6,7.4L51.1,7.4L51.1,8.4L52.1,8.4L52.1,9.4L53.6,9.4L53.6,9.9L58.6,9.9L58.6,10.5L58.4,10.5L58.4,10.1L53.6,10.1L53.6,10.4L57.6,10.4L57.6,10.9L66.9,10.9L66.9,10.4L69,10.4L69,10.6L67.1,10.6L67.1,11.1L57.4,11.1L57.4,10.6L53.4,10.6L53.4,10.1L49.9,10.1L49.9,7.6L49.5,7.6L49.5,7.4L50.1,7.4L50.1,9.9z" stroke="none"/><path d="M64.4,6.4L64.4,5.9L73.6,5.9L73.6,6.4L74.6,6.4L74.6,6.9L77.4,6.9L77.4,6.4L83.9,6.4L83.9,5.9L87,5.9L87,6.1L84.1,6.1L84.1,6.6L77.6,6.6L77.6,7.1L74.4,7.1L74.4,6.6L73.4,6.6L73.4,6.1L64.6,6.1L64.6,6.4L72.6,6.4L72.6,7.4L74.1,7.4L74.1,8.4L74.6,8.4L74.6,8.9L75,8.9L75,9.1L74.4,9.1L74.4,8.6L73.9,8.6L73.9,7.6L72.4,7.6L72.4,6.6L64.6,6.6L64.6,7.1L58.9,7.1L58.9,6.6L45.6,6.6L45.6,7.1L45.1,7.1L45.1,7.6L44.1,7.6L44.1,8.1L43.6,8.1L43.6,8.6L41.4,8.6L41.4,8.1L39.9,8.1L39.9,7.6L39,7.6L39,7.4L40.1,7.4L40.1,7.9L41.6,7.9L41.6,8.4L43.4,8.4L43.4,7.9L43.9,7.9L43.9,7.4L44.9,7.4L44.9,6.9L45.4,6.9L45.4,6.4L59.1,6.4L59.1,6.9L64.4,6.9L64.4,6.6L62.9,6.6L62.9,5.6L62.4,5.6L62.4,4.6L58.5,4.6L58.5,4.4L62.6,4.4L62.6,5.4L63.1,5.4L63.1,6.4z" stroke="none"/><path d="M61.9,3.4L61.9,3.1L45.4,3.1L45.4,2.6L44.6,2.6L44.6,4.6L42.6,4.6L42.6,5.6L42.1,5.6L42.1,6L41.9,6L41.9,5.4L42.4,5.4L42.4,4.4L44.4,4.4L44.4,2.4L45.6,2.4L45.6,2.9L62.1,2.9L62.1,3.4L71.4,3.4L71.4,2.9L72,2.9L72,3.1L71.6,3.1L71.6,3.6L62.1,3.6L62.1,3.9L87.4,3.9L87.4,2.9L90,2.9L90,3.1L87.6,3.1L87.6,4.1L61.9,4.1L61.9,3.6L44.9,3.6L44.9,3L45.1,3L45.1,3.4z" stroke="none"/><path d="M58.5,9.1L58.5,8.9L60,8.9L60,9.1z" stroke="none"/><path d="M23.9,10.5L24.1,10.5L24.1,11.4L25.6,11.4L25.6,12L25.4,12L25.4,11.6L23.9,11.6z" stroke="none"/><path d="M21,7.6L21,7.4L25.5,7.4L25.5,7.6z" stroke="none"/><path d="M36.1,6L35.9,6L35.9,5.4L36.4,5.4L36.4,4.9L40.6,4.9L40.6,6L40.4,6L40.4,5.1L36.6,5.1L36.6,5.6L36.1,5.6z" stroke="none"/><path d="M15,8.9L15,9.1L13.4,9.1L13.4,8.6L12.4,8.6L12.4,5.4L12.9,5.4L12.9,4.9L13.4,4.9L13.4,4.5L13.6,4.5L13.6,5.1L13.1,5.1L13.1,5.6L12.6,5.6L12.6,8.4L13.6,8.4L13.6,8.9z" stroke="none"/><path d="M4.5,12.1L4.5,11.9L4.9,11.9L4.9,11.4L5.4,11.4L5.4,10.9L7.4,10.9L7.4,10.4L9,10.4L9,10.6L7.6,10.6L7.6,11.1L5.6,11.1L5.6,11.6L5.1,11.6L5.1,12.1z" stroke="none"/><path d="M4.5,6.1L4.5,5.9L6.9,5.9L6.9,4.4L9,4.4L9,4.6L7.1,4.6L7.1,6.1z" stroke="none"/><path d="M99.1,7.5L98.9,7.5L98.9,4.9L99.4,4.9L99.4,4.4L100.4,4.4L100.4,3.4L101.9,3.4L101.9,3L102.1,3L102.1,3.6L100.6,3.6L100.6,4.6L99.6,4.6L99.6,5.1L99.1,5.1z" stroke="none"/><path d="M64.5,12.1L64.5,11.9L68.1,11.9L68.1,12.9L71.9,12.9L71.9,12.4L73.4,12.4L73.4,12L73.6,12L73.6,12.6L72.1,12.6L72.1,13.1L67.9,13.1L67.9,12.1z" stroke="none"/><path d="M40.5,10.4L40.5,10.6L31.5,10.6L31.5,10.4z" stroke="none"/><path d="M91.5,9.1L91.5,8.9L96.1,8.9L96.1,9.4L96.6,9.4L96.6,9.9L97.6,9.9L97.6,10.4L98.1,10.4L98.1,10.9L99.6,10.9L99.6,11.4L100.6,11.4L100.6,12L100.4,12L100.4,11.6L99.4,11.6L99.4,11.1L97.9,11.1L97.9,10.6L97.4,10.6L97.4,10.1L96.4,10.1L96.4,9.6L95.9,9.6L95.9,9.1z" stroke="none"/><path d="M57,12.1L57,11.9L62.1,11.9L62.1,12.4L64.1,12.4L64.1,12.9L64.6,12.9L64.6,13.4L74.4,13.4L74.4,11.6L73.9,11.6L73.9,11.1L71.6,11.1L71.6,11.6L71.1,11.6L71.1,12.1L69,12.1L69,11.9L70.9,11.9L70.9,11.4L71.4,11.4L71.4,10.9L74.1,10.9L74.1,11.4L74.6,11.4L74.6,13.6L64.4,13.6L64.4,13.1L63.9,13.1L63.9,12.6L61.9,12.6L61.9,12.1z" stroke="none"/><path d="M73.5,9.1L73.5,8.9L74.1,8.9L74.1,9.9L83.1,9.9L83.1,10.4L85.5,10.4L85.5,10.6L82.9,10.6L82.9,10.1L73.9,10.1L73.9,9.1z" stroke="none"/><path d="M42,7.6L42,7.4L42.9,7.4L42.9,6.9L44.4,6.9L44.4,6.4L44.9,6.4L44.9,5.9L56.4,5.9L56.4,4.4L57,4.4L57,4.6L56.6,4.6L56.6,6.1L45.1,6.1L45.1,6.6L44.6,6.6L44.6,7.1L43.1,7.1L43.1,7.6z" stroke="none"/><path d="M19.5,9.1L19.5,8.9L36,8.9L36,9.1z" stroke="none"/><path d="M102.1,4.5L101.9,4.5L101.9,3.9L102.9,3.9L102.9,2.1L89.1,2.1L89.1,2.6L86.6,2.6L86.6,3.1L84,3.1L84,2.9L86.4,2.9L86.4,2.4L88.9,2.4L88.9,1.9L103.1,1.9L103.1,4.1L102.1,4.1z" stroke="none"/><path d="M96,7.4L96,7.6L89.1,7.6L89.1,8.1L88.6,8.1L88.6,9.1L87.6,9.1L87.6,10.1L87.1,10.1L87.1,10.6L86.6,10.6L86.6,11.1L86.1,11.1L86.1,11.6L81.6,11.6L81.6,12.1L78,12.1L78,11.9L81.4,11.9L81.4,11.4L85.9,11.4L85.9,10.9L86.4,10.9L86.4,10.4L86.9,10.4L86.9,9.9L87.4,9.9L87.4,8.9L88.4,8.9L88.4,7.9L88.9,7.9L88.9,7.4z" stroke="none"/><path d="M27,12.1L27,11.9L29.1,11.9L29.1,12.4L36.1,12.4L36.1,13.4L46.9,13.4L46.9,12.4L47.4,12.4L47.4,10.9L47.9,10.9L47.9,10.5L48.1,10.5L48.1,11.1L47.6,11.1L47.6,12.6L47.1,12.6L47.1,13.6L35.9,13.6L35.9,12.6L28.9,12.6L28.9,12.1z" stroke="none"/><path d="M102,6.1L102,5.9L103.4,5.9L103.4,1.6L80.6,1.6L80.6,3.1L79.5,3.1L79.5,2.9L80.4,2.9L80.4,1.4L103.6,1.4L103.6,6.1z" stroke="none"/><path d="M99,2.9L99,3.1L91.6,3.1L91.6,3.6L90.6,3.6L90.6,4.1L90.1,4.1L90.1,4.6L76.6,4.6L76.6,5.6L75.1,5.6L75.1,6L74.9,6L74.9,5.4L76.4,5.4L76.4,4.4L89.9,4.4L89.9,3.9L90.4,3.9L90.4,3.4L91.4,3.4L91.4,2.9z" stroke="none"/><path d="M31.5,5.9L31.5,6.1L19.4,6.1L19.4,5.1L17.9,5.1L17.9,4.6L14.9,4.6L14.9,3.6L13.1,3.6L13.1,4.1L11.1,4.1L11.1,4.6L10.6,4.6L10.6,5.1L9.6,5.1L9.6,5.6L8.1,5.6L8.1,6.6L5.1,6.6L5.1,7.1L3.1,7.1L3.1,7.6L2.6,7.6L2.6,8.6L2.1,8.6L2.1,9.4L2.6,9.4L2.6,10.4L3,10.4L3,10.6L2.4,10.6L2.4,9.6L1.9,9.6L1.9,8.4L2.4,8.4L2.4,7.4L2.9,7.4L2.9,6.9L4.9,6.9L4.9,6.4L7.9,6.4L7.9,5.4L9.4,5.4L9.4,4.9L10.4,4.9L10.4,4.4L10.9,4.4L10.9,3.9L12.9,3.9L12.9,3.4L15.1,3.4L15.1,4.4L18.1,4.4L18.1,4.9L19.6,4.9L19.6,5.9z" stroke="none"/><path d="M78,7.6L78,7.4L88.4,7.4L88.4,6.9L95.4,6.9L95.4,6.4L97.6,6.4L97.6,7.4L98.1,7.4L98.1,8.4L103.4,8.4L103.4,6.9L103.9,6.9L103.9,1.1L35.1,1.1L35.1,1.6L33.1,1.6L33.1,2.1L31.6,2.1L31.6,3L31.4,3L31.4,1.9L32.9,1.9L32.9,1.4L34.9,1.4L34.9,0.9L104.1,0.9L104.1,7.1L103.6,7.1L103.6,8.6L97.9,8.6L97.9,7.6L97.4,7.6L97.4,6.6L95.6,6.6L95.6,7.1L88.6,7.1L88.6,7.6z" stroke="none"/><path d="M54,11.9L54,12.1L48.1,12.1L48.1,13.1L47.6,13.1L47.6,14.1L7.9,14.1L7.9,13.6L7.4,13.6L7.4,12.6L5.9,12.6L5.9,12L6.1,12L6.1,12.4L7.6,12.4L7.6,13.4L8.1,13.4L8.1,13.9L47.4,13.9L47.4,12.9L47.9,12.9L47.9,11.9z" stroke="none"/><path d="M58.5,7.6L58.5,7.4L70.6,7.4L70.6,8.4L71.1,8.4L71.1,8.9L72.1,8.9L72.1,9.4L72.6,9.4L72.6,9.9L73.6,9.9L73.6,10.4L75.1,10.4L75.1,14.1L51.1,14.1L51.1,14.6L2.4,14.6L2.4,14.1L1.9,14.1L1.9,13.6L1.4,13.6L1.4,6.9L1.9,6.9L1.9,5.9L3.4,5.9L3.4,5.4L3.9,5.4L3.9,4.9L4.9,4.9L4.9,4.4L6.4,4.4L6.4,3.9L8.4,3.9L8.4,3.4L10.4,3.4L10.4,3L10.6,3L10.6,3.6L8.6,3.6L8.6,4.1L6.6,4.1L6.6,4.6L5.1,4.6L5.1,5.1L4.1,5.1L4.1,5.6L3.6,5.6L3.6,6.1L2.1,6.1L2.1,7.1L1.6,7.1L1.6,13.4L2.1,13.4L2.1,13.9L2.6,13.9L2.6,14.4L50.9,14.4L50.9,13.9L74.9,13.9L74.9,10.6L73.4,10.6L73.4,10.1L72.4,10.1L72.4,9.6L71.9,9.6L71.9,9.1L70.9,9.1L70.9,8.6L70.4,8.6L70.4,7.6z" stroke="none"/></svg>