<svg version="1.1" width="105" height="15" xmlns="http://www.w3.org/2000/svg"><path d="M44.9,4.9L44.9,4.4L46.5,4.4L46.5,4.6L45.1,4.6L45.1,5.1L29.6,5.1L29.6,5.6L28.6,5.6L28.6,6L28.4,6L28.4,5.4L29.4,5.4L29.4,5.1L24.6,5.1L24.6,5.6L10.6,5.6L10.6,6L10.4,6L10.4,5.4L24.4,5.4L24.4,4.9z" stroke="none"/><path d="M68.9,4.4L68.9,3.9L69.9,3.9L69.9,3.4L73.4,3.4L73.4,3L73.6,3L73.6,3.6L70.1,3.6L70.1,4.1L69.1,4.1L69.1,4.6L65.6,4.6L65.6,5.9L66.1,5.9L66.1,7.4L67.5,7.4L67.5,7.6L65.9,7.6L65.9,6.1L65.4,6.1L65.4,4.6L57.9,4.6L57.9,4.1L57.4,4.1L57.4,3.6L55.4,3.6L55.4,3L55.6,3L55.6,3.4L57.6,3.4L57.6,3.9L58.1,3.9L58.1,4.4z" stroke="none"/><path d="M56.6,5.4L56.6,5.9L57,5.9L57,6.1L56.4,6.1L56.4,5.6L43.6,5.6L43.6,5.9L55.6,5.9L55.6,6.4L59.6,6.4L59.6,6.9L60.6,6.9L60.6,7.4L61.5,7.4L61.5,7.6L60.4,7.6L60.4,7.1L59.4,7.1L59.4,6.6L55.4,6.6L55.4,6.1L43.4,6.1L43.4,5.6L31.1,5.6L31.1,6.1L29.6,6.1L29.6,6.6L29.1,6.6L29.1,7.1L20.4,7.1L20.4,6.6L11.1,6.6L11.1,7.1L9.9,7.1L9.9,6.6L9.4,6.6L9.4,4.9L10.4,4.9L10.4,4.4L10.9,4.4L10.9,3.9L11.4,3.9L11.4,2.9L12,2.9L12,3.1L11.6,3.1L11.6,4.1L11.1,4.1L11.1,4.6L10.6,4.6L10.6,5.1L9.6,5.1L9.6,6.4L10.1,6.4L10.1,6.9L10.9,6.9L10.9,6.4L20.6,6.4L20.6,6.9L28.9,6.9L28.9,6.4L29.4,6.4L29.4,5.9L30.9,5.9L30.9,5.4z" stroke="none"/><path d="M89.9,6.9L89.9,6.4L94.1,6.4L94.1,6.9L95.4,6.9L95.4,6.4L95.9,6.4L95.9,6L96.1,6L96.1,6.6L95.6,6.6L95.6,7.1L93.9,7.1L93.9,6.6L90.1,6.6L90.1,6.9L91.1,6.9L91.1,8.4L91.6,8.4L91.6,8.9L93,8.9L93,9.1L91.4,9.1L91.4,8.6L90.9,8.6L90.9,7.1L90.1,7.1L90.1,8.4L90.6,8.4L90.6,9.4L98.6,9.4L98.6,9.9L100.4,9.9L100.4,9L100.6,9L100.6,10.1L98.4,10.1L98.4,9.6L90.4,9.6L90.4,8.6L89.9,8.6L89.9,7.1L88.9,7.1L88.9,5.6L81.9,5.6L81.9,5.1L80.1,5.1L80.1,5.6L70.9,5.6L70.9,5.1L70.4,5.1L70.4,4.5L70.6,4.5L70.6,4.9L71.1,4.9L71.1,5.4L79.9,5.4L79.9,4.9L82.1,4.9L82.1,5.4L89.1,5.4L89.1,6.9z" stroke="none"/><path d="M53.9,4.4L53.9,1.9L59.1,1.9L59.1,2.4L59.6,2.4L59.6,2.9L60,2.9L60,3.1L59.4,3.1L59.4,2.6L58.9,2.6L58.9,2.1L54.1,2.1L54.1,4.4L56.6,4.4L56.6,4.9L58.6,4.9L58.6,5.4L59.6,5.4L59.6,5.9L60,5.9L60,6.1L59.4,6.1L59.4,5.6L58.4,5.6L58.4,5.1L56.4,5.1L56.4,4.6L54.1,4.6L54.1,5.1L47.9,5.1L47.9,4.1L47.4,4.1L47.4,3.6L39.6,3.6L39.6,4.1L25.1,4.1L25.1,4.6L24,4.6L24,4.4L24.9,4.4L24.9,3.9L39.4,3.9L39.4,3.4L47.6,3.4L47.6,3.9L48.1,3.9L48.1,4.9L53.9,4.9L53.9,4.6L53.4,4.6L53.4,1.4L73.6,1.4L73.6,1.9L74.1,1.9L74.1,2.4L74.6,2.4L74.6,3.6L74.1,3.6L74.1,4.1L73.1,4.1L73.1,4.6L72,4.6L72,4.4L72.9,4.4L72.9,3.9L73.9,3.9L73.9,3.4L74.4,3.4L74.4,2.6L73.9,2.6L73.9,2.1L73.4,2.1L73.4,1.6L53.6,1.6L53.6,4.4z" stroke="none"/><path d="M68.9,8.9L68.9,8.4L71.4,8.4L71.4,7.9L73.9,7.9L73.9,7.4L79.4,7.4L79.4,6.9L79.9,6.9L79.9,6.4L80.4,6.4L80.4,5.4L81.6,5.4L81.6,6.9L85.1,6.9L85.1,7.4L85.6,7.4L85.6,7.9L87.6,7.9L87.6,8.4L88.1,8.4L88.1,8.9L89.1,8.9L89.1,9.4L89.6,9.4L89.6,9.9L96.1,9.9L96.1,10.5L95.9,10.5L95.9,10.1L89.4,10.1L89.4,9.6L88.9,9.6L88.9,9.1L87.9,9.1L87.9,8.6L87.4,8.6L87.4,8.1L85.4,8.1L85.4,7.6L84.9,7.6L84.9,7.1L81.4,7.1L81.4,5.6L80.6,5.6L80.6,6.6L80.1,6.6L80.1,7.1L79.6,7.1L79.6,7.6L74.1,7.6L74.1,8.1L71.6,8.1L71.6,8.6L69.1,8.6L69.1,8.9L71.9,8.9L71.9,8.4L74.4,8.4L74.4,7.9L80.9,7.9L80.9,6L81.1,6L81.1,8.1L74.6,8.1L74.6,8.6L72.1,8.6L72.1,9.1L69.1,9.1L69.1,9.6L63.1,9.6L63.1,10.1L62.1,10.1L62.1,11.6L61.6,11.6L61.6,12.1L46.4,12.1L46.4,10.5L46.6,10.5L46.6,11.9L61.4,11.9L61.4,11.4L61.9,11.4L61.9,9.9L62.9,9.9L62.9,9.4L68.9,9.4L68.9,9.1L62.6,9.1L62.6,9.6L61.6,9.6L61.6,10.1L61.1,10.1L61.1,11.1L60.6,11.1L60.6,11.6L54.4,11.6L54.4,10.6L54,10.6L54,10.4L54.6,10.4L54.6,11.4L60.4,11.4L60.4,10.9L60.9,10.9L60.9,9.9L61.4,9.9L61.4,9.4L62.4,9.4L62.4,8.9z" stroke="none"/><path d="M102,2.9L102,3.1L100.5,3.1L100.5,2.9z" stroke="none"/><path d="M51,2.9L51,3.1L48,3.1L48,2.9z" stroke="none"/><path d="M7.4,9L7.6,9L7.6,12L7.4,12z" stroke="none"/><path d="M88.5,11.9L88.5,12.1L85.9,12.1L85.9,11.6L85.4,11.6L85.4,10.5L85.6,10.5L85.6,11.4L86.1,11.4L86.1,11.9z" stroke="none"/><path d="M75,9.1L75,8.9L81,8.9L81,9.1z" stroke="none"/><path d="M16.5,4.4L16.5,4.6L12.9,4.6L12.9,2.1L11.6,2.1L11.6,2.6L10.6,2.6L10.6,3L10.4,3L10.4,2.4L11.4,2.4L11.4,1.9L13.1,1.9L13.1,4.4z" stroke="none"/><path d="M13.5,11.9L13.5,12.1L11.6,12.1L11.6,12.6L8.1,12.6L8.1,13.1L6.4,13.1L6.4,12.1L6,12.1L6,11.9L6.6,11.9L6.6,12.9L7.9,12.9L7.9,12.4L11.4,12.4L11.4,11.9z" stroke="none"/><path d="M94.5,6.1L94.5,5.9L94.9,5.9L94.9,5.4L95.4,5.4L95.4,4.9L98.1,4.9L98.1,5.4L99.6,5.4L99.6,6.9L101.1,6.9L101.1,7.4L102,7.4L102,7.6L100.9,7.6L100.9,7.1L99.4,7.1L99.4,5.6L97.9,5.6L97.9,5.1L95.6,5.1L95.6,5.6L95.1,5.6L95.1,6.1z" stroke="none"/><path d="M39,11.9L39,12.1L35.4,12.1L35.4,11.6L34.9,11.6L34.9,11.1L33.9,11.1L33.9,10.6L30,10.6L30,10.4L34.1,10.4L34.1,10.9L35.1,10.9L35.1,11.4L35.6,11.4L35.6,11.9z" stroke="none"/><path d="M60,8.9L60,9.1L52.9,9.1L52.9,8.6L50.9,8.6L50.9,8.1L49.4,8.1L49.4,7.5L49.6,7.5L49.6,7.9L51.1,7.9L51.1,8.4L53.1,8.4L53.1,8.9z" stroke="none"/><path d="M15,7.4L15,7.6L8.6,7.6L8.6,8.1L7.1,8.1L7.1,8.6L6.6,8.6L6.6,10.6L5.6,10.6L5.6,11.6L4.6,11.6L4.6,12L4.4,12L4.4,11.4L5.4,11.4L5.4,10.4L6.4,10.4L6.4,8.4L6.9,8.4L6.9,7.9L8.4,7.9L8.4,7.4z" stroke="none"/><path d="M25.5,11.9L25.5,12.1L21.9,12.1L21.9,11.6L21.4,11.6L21.4,11.1L16.4,11.1L16.4,10.6L10.5,10.6L10.5,10.4L16.6,10.4L16.6,10.9L21.6,10.9L21.6,11.4L22.1,11.4L22.1,11.9z" stroke="none"/><path d="M27,10.4L27,10.6L16.9,10.6L16.9,10.1L12.9,10.1L12.9,9.6L11.9,9.6L11.9,9L12.1,9L12.1,9.4L13.1,9.4L13.1,9.9L17.1,9.9L17.1,10.4z" stroke="none"/><path d="M84,12.1L84,11.9L84.6,11.9L84.6,12.4L88.1,12.4L88.1,12.9L99.4,12.9L99.4,12.4L99.9,12.4L99.9,10.9L100.4,10.9L100.4,10.4L100.9,10.4L100.9,9.9L101.4,9.9L101.4,8.1L100.1,8.1L100.1,8.6L99.1,8.6L99.1,9L98.9,9L98.9,8.4L99.9,8.4L99.9,7.9L101.6,7.9L101.6,10.1L101.1,10.1L101.1,10.6L100.6,10.6L100.6,11.1L100.1,11.1L100.1,12.6L99.6,12.6L99.6,13.1L87.9,13.1L87.9,12.6L84.4,12.6L84.4,12.1z" stroke="none"/><path d="M100.5,5.9L100.5,6.1L99.9,6.1L99.9,4.6L84,4.6L84,4.4L100.1,4.4L100.1,5.9z" stroke="none"/><path d="M2.9,10.5L3.1,10.5L3.1,11.4L3.6,11.4L3.6,12.4L4.1,12.4L4.1,12.9L6.1,12.9L6.1,13.4L19.4,13.4L19.4,12.9L19.9,12.9L19.9,12.4L20.4,12.4L20.4,11.9L21,11.9L21,12.1L20.6,12.1L20.6,12.6L20.1,12.6L20.1,13.1L19.6,13.1L19.6,13.6L5.9,13.6L5.9,13.1L3.9,13.1L3.9,12.6L3.4,12.6L3.4,11.6L2.9,11.6z" stroke="none"/><path d="M99,11.9L99,12.1L91.4,12.1L91.4,11.6L88.9,11.6L88.9,11.1L87.4,11.1L87.4,10.6L86.4,10.6L86.4,10.1L85.9,10.1L85.9,9.6L82.1,9.6L82.1,10.1L79.6,10.1L79.6,10.6L79.1,10.6L79.1,11.6L76.6,11.6L76.6,12L76.4,12L76.4,11.4L78.9,11.4L78.9,10.4L79.4,10.4L79.4,9.9L81.9,9.9L81.9,9.4L86.1,9.4L86.1,9.9L86.6,9.9L86.6,10.4L87.6,10.4L87.6,10.9L89.1,10.9L89.1,11.4L91.6,11.4L91.6,11.9z" stroke="none"/><path d="M34.5,12.1L34.5,11.9L35.1,11.9L35.1,12.4L38.6,12.4L38.6,12.9L44.4,12.9L44.4,12.4L44.9,12.4L44.9,11.4L45.4,11.4L45.4,9.4L47.1,9.4L47.1,9.9L47.6,9.9L47.6,10.4L48.1,10.4L48.1,10.9L49.1,10.9L49.1,11.4L50.9,11.4L50.9,10.9L52.4,10.9L52.4,9.9L52.9,9.9L52.9,9.4L59.6,9.4L59.6,9.9L60.1,9.9L60.1,10.5L59.9,10.5L59.9,10.1L59.4,10.1L59.4,9.6L53.1,9.6L53.1,10.1L52.6,10.1L52.6,11.1L51.1,11.1L51.1,11.6L48.9,11.6L48.9,11.1L47.9,11.1L47.9,10.6L47.4,10.6L47.4,10.1L46.9,10.1L46.9,9.6L45.6,9.6L45.6,11.6L45.1,11.6L45.1,12.6L44.6,12.6L44.6,13.1L38.4,13.1L38.4,12.6L34.9,12.6L34.9,12.1z" stroke="none"/><path d="M75,11.9L75,12.1L62.1,12.1L62.1,12.6L48.1,12.6L48.1,13.1L47.1,13.1L47.1,13.6L31.4,13.6L31.4,13.1L30.4,13.1L30.4,12.6L29.9,12.6L29.9,11.6L29.4,11.6L29.4,11.1L28.9,11.1L28.9,9.9L29.4,9.9L29.4,9.4L43.1,9.4L43.1,9.9L44.9,9.9L44.9,8.9L47.6,8.9L47.6,9.4L49.1,9.4L49.1,9.9L49.6,9.9L49.6,10.5L49.4,10.5L49.4,10.1L48.9,10.1L48.9,9.6L47.4,9.6L47.4,9.1L45.1,9.1L45.1,10.1L42.9,10.1L42.9,9.6L29.6,9.6L29.6,10.1L29.1,10.1L29.1,10.9L29.6,10.9L29.6,11.4L30.1,11.4L30.1,12.4L30.6,12.4L30.6,12.9L31.6,12.9L31.6,13.4L46.9,13.4L46.9,12.9L47.9,12.9L47.9,12.4L61.9,12.4L61.9,11.9z" stroke="none"/><path d="M18,7.6L18,7.4L46.5,7.4L46.5,7.6z" stroke="none"/><path d="M22.5,3.1L22.5,2.9L34.9,2.9L34.9,2.4L35.4,2.4L35.4,1.9L51.6,1.9L51.6,2.4L52.6,2.4L52.6,3L52.4,3L52.4,2.6L51.4,2.6L51.4,2.1L35.6,2.1L35.6,2.6L35.1,2.6L35.1,3.1z" stroke="none"/><path d="M49.5,8.9L49.5,9.1L47.9,9.1L47.9,8.6L43.9,8.6L43.9,8.1L21.1,8.1L21.1,8.6L13.6,8.6L13.6,9L13.4,9L13.4,8.4L20.9,8.4L20.9,7.9L44.1,7.9L44.1,8.4L48.1,8.4L48.1,8.9z" stroke="none"/><path d="M79.5,11.9L79.5,12.1L78.6,12.1L78.6,12.6L77.1,12.6L77.1,13.1L48.6,13.1L48.6,13.6L48.1,13.6L48.1,14.1L29.9,14.1L29.9,13.1L29.4,13.1L29.4,12.1L28.9,12.1L28.9,11.6L28.4,11.6L28.4,9.4L28.9,9.4L28.9,8.9L43.5,8.9L43.5,9.1L29.1,9.1L29.1,9.6L28.6,9.6L28.6,11.4L29.1,11.4L29.1,11.9L29.6,11.9L29.6,12.9L30.1,12.9L30.1,13.9L47.9,13.9L47.9,13.4L48.4,13.4L48.4,12.9L76.9,12.9L76.9,12.4L78.4,12.4L78.4,11.9z" stroke="none"/><path d="M36,2.9L36,3.1L35.6,3.1L35.6,3.6L23.1,3.6L23.1,4.1L21.4,4.1L21.4,2.4L21.9,2.4L21.9,1.9L29.9,1.9L29.9,1.4L52.9,1.4L52.9,0.9L74.1,0.9L74.1,1.4L75.1,1.4L75.1,2.9L76.1,2.9L76.1,3.9L76.6,3.9L76.6,4.5L76.4,4.5L76.4,4.1L75.9,4.1L75.9,3.1L74.9,3.1L74.9,1.6L73.9,1.6L73.9,1.1L53.1,1.1L53.1,1.6L30.1,1.6L30.1,2.1L22.1,2.1L22.1,2.6L21.6,2.6L21.6,3.9L22.9,3.9L22.9,3.4L35.4,3.4L35.4,2.9z" stroke="none"/></svg>