<svg version="1.1" width="105" height="15" xmlns="http://www.w3.org/2000/svg"><path d="M27.1,7.4L27.1,7.9L28.1,7.9L28.1,8.4L29.4,8.4L29.4,6.4L31.4,6.4L31.4,6L31.6,6L31.6,6.6L29.6,6.6L29.6,8.6L27.9,8.6L27.9,8.1L26.9,8.1L26.9,7.6L19.1,7.6L19.1,9.4L19.6,9.4L19.6,10.5L19.4,10.5L19.4,9.6L18.9,9.6L18.9,7.6L11.4,7.6L11.4,7.1L10.9,7.1L10.9,6.6L6.4,6.6L6.4,6.1L6,6.1L6,5.9L6.6,5.9L6.6,6.4L11.1,6.4L11.1,6.9L11.6,6.9L11.6,7.4z" stroke="none"/><path d="M71.9,5.4L71.9,4.4L75,4.4L75,4.6L72.1,4.6L72.1,5.6L52.1,5.6L52.1,6.1L50.1,6.1L50.1,6.6L49.6,6.6L49.6,7.1L49.1,7.1L49.1,7.6L48,7.6L48,7.4L48.9,7.4L48.9,6.9L49.4,6.9L49.4,6.4L49.9,6.4L49.9,5.9L51.9,5.9L51.9,5.6L33.4,5.6L33.4,4.6L31.5,4.6L31.5,4.4L33.6,4.4L33.6,5.4z" stroke="none"/><path d="M80.9,9.9L80.9,9.4L83.6,9.4L83.6,9.9L84.9,9.9L84.9,9.4L87.4,9.4L87.4,8.4L87.9,8.4L87.9,7.9L92.6,7.9L92.6,8.4L93.1,8.4L93.1,9L92.9,9L92.9,8.6L92.4,8.6L92.4,8.1L88.1,8.1L88.1,8.6L87.6,8.6L87.6,9.6L85.1,9.6L85.1,10.1L83.4,10.1L83.4,9.6L81.1,9.6L81.1,9.9L82.1,9.9L82.1,10.4L83.6,10.4L83.6,10.9L84.1,10.9L84.1,11.4L90.1,11.4L90.1,12L89.9,12L89.9,11.6L83.9,11.6L83.9,11.1L83.4,11.1L83.4,10.6L81.9,10.6L81.9,10.1L61.9,10.1L61.9,9.1L60,9.1L60,8.9L62.1,8.9L62.1,9.9z" stroke="none"/><path d="M20.9,8.9L20.9,8.4L27.6,8.4L27.6,8.9L40.4,8.9L40.4,8.4L41.4,8.4L41.4,7.9L41.9,7.9L41.9,6.9L42.9,6.9L42.9,6.4L44.6,6.4L44.6,7.9L45.6,7.9L45.6,8.4L47.6,8.4L47.6,8.9L48,8.9L48,9.1L47.4,9.1L47.4,8.6L45.4,8.6L45.4,8.1L44.4,8.1L44.4,6.6L43.1,6.6L43.1,7.1L42.1,7.1L42.1,8.1L41.6,8.1L41.6,8.6L40.6,8.6L40.6,9.1L27.4,9.1L27.4,8.6L21.1,8.6L21.1,8.9L21.6,8.9L21.6,11.1L21.1,11.1L21.1,11.6L20.6,11.6L20.6,12.1L5.4,12.1L5.4,10.1L4.9,10.1L4.9,9.1L4.5,9.1L4.5,8.9L5.1,8.9L5.1,9.9L5.6,9.9L5.6,11.9L20.4,11.9L20.4,11.4L20.9,11.4L20.9,10.9L21.4,10.9L21.4,9.1L21.1,9.1L21.1,10.5L20.9,10.5L20.9,9.1L20.6,9.1L20.6,11.1L20.1,11.1L20.1,11.6L12.9,11.6L12.9,11.1L12.4,11.1L12.4,10.1L11.9,10.1L11.9,9L12.1,9L12.1,9.9L12.6,9.9L12.6,10.9L13.1,10.9L13.1,11.4L19.9,11.4L19.9,10.9L20.4,10.9L20.4,8.9z" stroke="none"/><path d="M28.4,3.9L28.4,3.6L21.4,3.6L21.4,2.6L19.9,2.6L19.9,2.1L16.6,2.1L16.6,3L16.4,3L16.4,1.9L20.1,1.9L20.1,2.4L21.6,2.4L21.6,3.4L28.6,3.4L28.6,3.9L30.4,3.9L30.4,3.4L46.1,3.4L46.1,3.9L47.1,3.9L47.1,4.4L48,4.4L48,4.6L46.9,4.6L46.9,4.1L45.9,4.1L45.9,3.6L30.6,3.6L30.6,4.1L28.6,4.1L28.6,6L28.4,6L28.4,4.1L20.9,4.1L20.9,3L21.1,3L21.1,3.9z" stroke="none"/><path d="M68.4,6.4L68.4,6.1L53.6,6.1L53.6,6.6L53.1,6.6L53.1,7.1L52.6,7.1L52.6,7.6L52.1,7.6L52.1,8.1L51.6,8.1L51.6,9.6L50.1,9.6L50.1,10.1L47.4,10.1L47.4,9.6L46.9,9.6L46.9,9.1L44.4,9.1L44.4,8.6L43.9,8.6L43.9,8.1L43.4,8.1L43.4,7.5L43.6,7.5L43.6,7.9L44.1,7.9L44.1,8.4L44.6,8.4L44.6,8.9L47.1,8.9L47.1,9.4L47.6,9.4L47.6,9.9L49.9,9.9L49.9,9.4L51.4,9.4L51.4,7.9L51.9,7.9L51.9,7.4L52.4,7.4L52.4,6.9L52.9,6.9L52.9,6.4L53.4,6.4L53.4,5.9L68.6,5.9L68.6,6.4L75.4,6.4L75.4,4.9L75.9,4.9L75.9,3.6L65.4,3.6L65.4,2.6L64.9,2.6L64.9,2.1L60.6,2.1L60.6,3.1L59.6,3.1L59.6,3.6L58.6,3.6L58.6,4.1L56.1,4.1L56.1,4.6L55.5,4.6L55.5,4.4L55.9,4.4L55.9,3.9L58.4,3.9L58.4,3.4L59.4,3.4L59.4,2.9L60.4,2.9L60.4,1.9L65.1,1.9L65.1,2.4L65.6,2.4L65.6,3.4L76.1,3.4L76.1,5.1L75.6,5.1L75.6,6.6L68.6,6.6L68.6,6.9L80.6,6.9L80.6,7.9L81.6,7.9L81.6,8.4L82.6,8.4L82.6,8.9L84,8.9L84,9.1L82.4,9.1L82.4,8.6L81.4,8.6L81.4,8.1L80.4,8.1L80.4,7.1L68.4,7.1L68.4,6.6L59.1,6.6L59.1,9.4L59.6,9.4L59.6,9.9L61.6,9.9L61.6,10.4L80.1,10.4L80.1,10.9L81.1,10.9L81.1,11.4L83.1,11.4L83.1,11.9L88.1,11.9L88.1,12.4L88.6,12.4L88.6,12.9L90.4,12.9L90.4,12.4L90.9,12.4L90.9,11.9L92.4,11.9L92.4,11.4L93.4,11.4L93.4,10.9L93.9,10.9L93.9,7.1L93.4,7.1L93.4,6.6L91.4,6.6L91.4,6L91.6,6L91.6,6.4L93.6,6.4L93.6,6.9L94.1,6.9L94.1,11.1L93.6,11.1L93.6,11.6L92.6,11.6L92.6,12.1L91.1,12.1L91.1,12.6L90.6,12.6L90.6,13.1L88.4,13.1L88.4,12.6L87.9,12.6L87.9,12.1L82.9,12.1L82.9,11.6L80.9,11.6L80.9,11.1L79.9,11.1L79.9,10.6L61.4,10.6L61.4,10.1L59.4,10.1L59.4,9.6L58.9,9.6L58.9,6.4z" stroke="none"/><path d="M64.6,4.5L64.4,4.5L64.4,3L64.6,3z" stroke="none"/><path d="M91.5,4.4L91.5,4.6L90,4.6L90,4.4z" stroke="none"/><path d="M61.5,7.6L61.5,7.4L62.1,7.4L62.1,7.9L63.1,7.9L63.1,9L62.9,9L62.9,8.1L61.9,8.1L61.9,7.6z" stroke="none"/><path d="M88.5,9.1L88.5,8.9L91.5,8.9L91.5,9.1z" stroke="none"/><path d="M10.4,7.5L10.6,7.5L10.6,7.9L12.6,7.9L12.6,8.4L13.1,8.4L13.1,9.9L13.6,9.9L13.6,10.5L13.4,10.5L13.4,10.1L12.9,10.1L12.9,8.6L12.4,8.6L12.4,8.1L10.4,8.1z" stroke="none"/><path d="M7.4,3L7.6,3L7.6,3.6L6.1,3.6L6.1,5.1L5.6,5.1L5.6,5.6L5.1,5.6L5.1,6.4L5.6,6.4L5.6,6.9L7.1,6.9L7.1,7.4L7.5,7.4L7.5,7.6L6.9,7.6L6.9,7.1L5.4,7.1L5.4,6.6L4.9,6.6L4.9,5.4L5.4,5.4L5.4,4.9L5.9,4.9L5.9,3.4L7.4,3.4z" stroke="none"/><path d="M8.9,7.5L9.1,7.5L9.1,8.1L8.1,8.1L8.1,8.6L5.9,8.6L5.9,8.1L4.9,8.1L4.9,7.6L4.5,7.6L4.5,7.4L5.1,7.4L5.1,7.9L6.1,7.9L6.1,8.4L7.9,8.4L7.9,7.9L8.9,7.9z" stroke="none"/><path d="M99.1,9L98.9,9L98.9,7.4L99.4,7.4L99.4,6.9L99.9,6.9L99.9,5.4L100.4,5.4L100.4,4.5L100.6,4.5L100.6,5.6L100.1,5.6L100.1,7.1L99.6,7.1L99.6,7.6L99.1,7.6z" stroke="none"/><path d="M3.1,7.5L2.9,7.5L2.9,4.9L3.4,4.9L3.4,3.9L4.4,3.9L4.4,3L4.6,3L4.6,4.1L3.6,4.1L3.6,5.1L3.1,5.1z" stroke="none"/><path d="M85.5,10.6L85.5,10.4L91.5,10.4L91.5,10.6z" stroke="none"/><path d="M13.5,6.1L13.5,5.9L16.4,5.9L16.4,5.4L16.9,5.4L16.9,4.9L17.9,4.9L17.9,4.4L18.9,4.4L18.9,3.4L19.4,3.4L19.4,3L19.6,3L19.6,3.6L19.1,3.6L19.1,4.6L18.1,4.6L18.1,5.1L17.1,5.1L17.1,5.6L16.6,5.6L16.6,6.1z" stroke="none"/><path d="M93,7.4L93,7.6L85.5,7.6L85.5,7.4z" stroke="none"/><path d="M46.5,10.4L46.5,10.6L46.1,10.6L46.1,11.1L44.1,11.1L44.1,11.6L43.6,11.6L43.6,12.1L39,12.1L39,11.9L43.4,11.9L43.4,11.4L43.9,11.4L43.9,10.9L45.9,10.9L45.9,10.4z" stroke="none"/><path d="M43.5,10.4L43.5,10.6L37.1,10.6L37.1,12.1L36,12.1L36,11.9L36.9,11.9L36.9,10.4z" stroke="none"/><path d="M96,4.4L96,4.6L93.4,4.6L93.4,4.1L92.4,4.1L92.4,3.6L89.6,3.6L89.6,4.1L87.6,4.1L87.6,4.6L86.6,4.6L86.6,5.1L85.1,5.1L85.1,7.1L84.6,7.1L84.6,7.6L84,7.6L84,7.4L84.4,7.4L84.4,6.9L84.9,6.9L84.9,4.9L86.4,4.9L86.4,4.4L87.4,4.4L87.4,3.9L89.4,3.9L89.4,3.4L92.6,3.4L92.6,3.9L93.6,3.9L93.6,4.4z" stroke="none"/><path d="M28.5,7.4L28.5,7.6L27.4,7.6L27.4,7.1L12.9,7.1L12.9,6.6L12.4,6.6L12.4,5.6L10.9,5.6L10.9,4.6L9.9,4.6L9.9,4.1L9.4,4.1L9.4,3.6L8.9,3.6L8.9,2.6L7.9,2.6L7.9,2.1L4.1,2.1L4.1,2.6L3.6,2.6L3.6,3.6L3.1,3.6L3.1,4.6L2.6,4.6L2.6,6.1L2.1,6.1L2.1,10.4L2.6,10.4L2.6,10.9L4.1,10.9L4.1,11.4L4.6,11.4L4.6,11.9L5.1,11.9L5.1,12.4L29.9,12.4L29.9,11.9L30.4,11.9L30.4,10.9L36.4,10.9L36.4,9.9L42.4,9.9L42.4,8.9L43.5,8.9L43.5,9.1L42.6,9.1L42.6,10.1L36.6,10.1L36.6,11.1L30.6,11.1L30.6,12.1L30.1,12.1L30.1,12.6L4.9,12.6L4.9,12.1L4.4,12.1L4.4,11.6L3.9,11.6L3.9,11.1L2.4,11.1L2.4,10.6L1.9,10.6L1.9,5.9L2.4,5.9L2.4,4.4L2.9,4.4L2.9,3.4L3.4,3.4L3.4,2.4L3.9,2.4L3.9,1.9L8.1,1.9L8.1,2.4L9.1,2.4L9.1,3.4L9.6,3.4L9.6,3.9L10.1,3.9L10.1,4.4L11.1,4.4L11.1,5.4L12.6,5.4L12.6,6.4L13.1,6.4L13.1,6.9L27.6,6.9L27.6,7.4z" stroke="none"/><path d="M75,11.9L75,12.1L74.6,12.1L74.6,13.1L57.4,13.1L57.4,12.6L56.9,12.6L56.9,12L57.1,12L57.1,12.4L57.6,12.4L57.6,12.9L74.4,12.9L74.4,11.9z" stroke="none"/><path d="M55.5,3.1L55.5,2.9L58.9,2.9L58.9,2.4L59.4,2.4L59.4,1.9L59.9,1.9L59.9,1.4L77.1,1.4L77.1,2.4L78.1,2.4L78.1,3L77.9,3L77.9,2.6L76.9,2.6L76.9,1.6L60.1,1.6L60.1,2.1L59.6,2.1L59.6,2.6L59.1,2.6L59.1,3.1z" stroke="none"/><path d="M102,11.9L102,12.1L93.1,12.1L93.1,12.6L91.6,12.6L91.6,13.6L77.4,13.6L77.4,13.1L76.9,13.1L76.9,12.6L76.4,12.6L76.4,12.1L75.9,12.1L75.9,11.6L75.4,11.6L75.4,11.1L74.6,11.1L74.6,11.6L73.6,11.6L73.6,12L73.4,12L73.4,11.4L74.4,11.4L74.4,10.9L75.6,10.9L75.6,11.4L76.1,11.4L76.1,11.9L76.6,11.9L76.6,12.4L77.1,12.4L77.1,12.9L77.6,12.9L77.6,13.4L91.4,13.4L91.4,12.4L92.9,12.4L92.9,11.9z" stroke="none"/><path d="M51.1,4.5L50.9,4.5L50.9,3.4L51.4,3.4L51.4,2.9L54.4,2.9L54.4,2.4L54.9,2.4L54.9,1.9L58.9,1.9L58.9,1.4L59.4,1.4L59.4,0.9L79.1,0.9L79.1,1.4L79.6,1.4L79.6,1.9L80.1,1.9L80.1,2.4L80.6,2.4L80.6,3.9L81.1,3.9L81.1,4.5L80.9,4.5L80.9,4.1L80.4,4.1L80.4,2.6L79.9,2.6L79.9,2.1L79.4,2.1L79.4,1.6L78.9,1.6L78.9,1.1L59.6,1.1L59.6,1.6L59.1,1.6L59.1,2.1L55.1,2.1L55.1,2.6L54.6,2.6L54.6,3.1L51.6,3.1L51.6,3.6L51.1,3.6z" stroke="none"/><path d="M12,4.6L12,4.4L13.9,4.4L13.9,3.9L14.4,3.9L14.4,3.4L14.9,3.4L14.9,2.9L15.4,2.9L15.4,2.4L15.9,2.4L15.9,1.4L45.6,1.4L45.6,1.9L46.1,1.9L46.1,2.9L46.5,2.9L46.5,3.1L45.9,3.1L45.9,2.1L45.4,2.1L45.4,1.6L16.1,1.6L16.1,2.6L15.6,2.6L15.6,3.1L15.1,3.1L15.1,3.6L14.6,3.6L14.6,4.1L14.1,4.1L14.1,4.6z" stroke="none"/><path d="M56.9,7.5L57.1,7.5L57.1,10.6L56.6,10.6L56.6,11.1L56.1,11.1L56.1,12.4L56.6,12.4L56.6,12.9L57.1,12.9L57.1,13.4L77.1,13.4L77.1,13.9L100.4,13.9L100.4,13.4L101.9,13.4L101.9,12.9L102.4,12.9L102.4,12.4L102.9,12.4L102.9,11.6L102.4,11.6L102.4,11.1L97.9,11.1L97.9,6.4L98.4,6.4L98.4,5.9L99,5.9L99,6.1L98.6,6.1L98.6,6.6L98.1,6.6L98.1,10.9L102.6,10.9L102.6,11.4L103.1,11.4L103.1,12.6L102.6,12.6L102.6,13.1L102.1,13.1L102.1,13.6L100.6,13.6L100.6,14.1L76.9,14.1L76.9,13.6L56.9,13.6L56.9,13.1L56.4,13.1L56.4,12.6L55.9,12.6L55.9,10.9L56.4,10.9L56.4,10.4L56.9,10.4z" stroke="none"/><path d="M60.1,12L59.9,12L59.9,10.6L58.9,10.6L58.9,10.1L58.4,10.1L58.4,7.1L57.9,7.1L57.9,6.6L56.6,6.6L56.6,7.1L56.1,7.1L56.1,10.6L55.6,10.6L55.6,12.9L56.1,12.9L56.1,13.4L56.6,13.4L56.6,13.9L76.6,13.9L76.6,14.4L102.9,14.4L102.9,13.4L103.4,13.4L103.4,11.1L102.9,11.1L102.9,10.6L102.4,10.6L102.4,10.1L101.9,10.1L101.9,9L102.1,9L102.1,9.9L102.6,9.9L102.6,10.4L103.1,10.4L103.1,10.9L103.6,10.9L103.6,13.6L103.1,13.6L103.1,14.6L76.4,14.6L76.4,14.1L56.4,14.1L56.4,13.6L55.9,13.6L55.9,13.1L55.4,13.1L55.4,10.4L55.9,10.4L55.9,6.9L56.4,6.9L56.4,6.4L58.1,6.4L58.1,6.9L58.6,6.9L58.6,9.9L59.1,9.9L59.1,10.4L60.1,10.4z" stroke="none"/><path d="M52.5,11.9L52.5,12.1L44.1,12.1L44.1,12.6L39.6,12.6L39.6,13.1L1.4,13.1L1.4,4.9L1.9,4.9L1.9,3.4L2.4,3.4L2.4,2.9L2.9,2.9L2.9,1.9L3.4,1.9L3.4,1.4L14.9,1.4L14.9,0.9L58.9,0.9L58.9,0.4L95.1,0.4L95.1,0.9L96.1,0.9L96.1,1.4L96.6,1.4L96.6,1.9L97.6,1.9L97.6,2.4L98.6,2.4L98.6,3.4L101.1,3.4L101.1,3.9L101.6,3.9L101.6,6.4L102.1,6.4L102.1,7.5L101.9,7.5L101.9,6.6L101.4,6.6L101.4,4.1L100.9,4.1L100.9,3.6L98.4,3.6L98.4,2.6L97.4,2.6L97.4,2.1L96.4,2.1L96.4,1.6L95.9,1.6L95.9,1.1L94.9,1.1L94.9,0.6L59.1,0.6L59.1,1.1L15.1,1.1L15.1,1.6L3.6,1.6L3.6,2.1L3.1,2.1L3.1,3.1L2.6,3.1L2.6,3.6L2.1,3.6L2.1,5.1L1.6,5.1L1.6,12.9L39.4,12.9L39.4,12.4L43.9,12.4L43.9,11.9z" stroke="none"/></svg>