<svg version="1.1" width="105" height="15" xmlns="http://www.w3.org/2000/svg"><path d="M45.4,5.9L45.4,5.4L50.4,5.4L50.4,4.9L50.9,4.9L50.9,4.4L53.9,4.4L53.9,3.9L54.9,3.9L54.9,3.4L55.4,3.4L55.4,3L55.6,3L55.6,3.6L55.1,3.6L55.1,4.1L54.1,4.1L54.1,4.6L51.1,4.6L51.1,5.1L50.6,5.1L50.6,5.6L45.6,5.6L45.6,6.1L38.1,6.1L38.1,6.6L37.6,6.6L37.6,7.1L37.1,7.1L37.1,8.1L29.9,8.1L29.9,7.6L22.5,7.6L22.5,7.4L30.1,7.4L30.1,7.9L36.9,7.9L36.9,6.9L37.4,6.9L37.4,6.4L37.9,6.4L37.9,6.1L37.1,6.1L37.1,6.6L36.6,6.6L36.6,7.1L36.1,7.1L36.1,7.5L35.9,7.5L35.9,6.9L36.4,6.9L36.4,6.4L36.9,6.4L36.9,5.9z" stroke="none"/><path d="M73.9,8.9L73.9,8.6L72.4,8.6L72.4,8.1L71.9,8.1L71.9,7.6L69.9,7.6L69.9,6.6L68.6,6.6L68.6,7.1L67.1,7.1L67.1,7.6L66,7.6L66,7.4L66.9,7.4L66.9,6.9L68.4,6.9L68.4,6.4L70.1,6.4L70.1,7.4L72.1,7.4L72.1,7.9L72.6,7.9L72.6,8.4L74.1,8.4L74.1,8.9L81.1,8.9L81.1,9.4L81.6,9.4L81.6,9.9L84.9,9.9L84.9,9.4L87.1,9.4L87.1,10.5L86.9,10.5L86.9,9.6L85.1,9.6L85.1,10.1L81.4,10.1L81.4,9.6L80.9,9.6L80.9,9.1L71.9,9.1L71.9,8.6L70.9,8.6L70.9,8.1L70.1,8.1L70.1,8.6L69.6,8.6L69.6,9.1L69,9.1L69,8.9L69.4,8.9L69.4,8.4L69.9,8.4L69.9,7.9L71.1,7.9L71.1,8.4L72.1,8.4L72.1,8.9z" stroke="none"/><path d="M79.4,5.9L79.4,4.9L80.9,4.9L80.9,4.5L81.1,4.5L81.1,5.1L79.6,5.1L79.6,6.1L71.6,6.1L71.6,6.4L80.4,6.4L80.4,5.4L82.4,5.4L82.4,4.5L82.6,4.5L82.6,5.6L80.6,5.6L80.6,6.6L71.4,6.6L71.4,6.1L67.1,6.1L67.1,6.6L65.1,6.6L65.1,7.1L63.6,7.1L63.6,7.6L63.1,7.6L63.1,8.1L62.1,8.1L62.1,8.6L51.1,8.6L51.1,9L50.9,9L50.9,8.4L61.9,8.4L61.9,7.9L62.9,7.9L62.9,7.4L63.4,7.4L63.4,6.9L64.9,6.9L64.9,6.4L66.9,6.4L66.9,5.9z" stroke="none"/><path d="M71.4,9.9L71.4,9.6L70.4,9.6L70.4,9L70.6,9L70.6,9.4L71.6,9.4L71.6,9.9L72.1,9.9L72.1,10.4L72.6,10.4L72.6,10.9L76.1,10.9L76.1,11.4L90.9,11.4L90.9,10.9L91.4,10.9L91.4,10.5L91.6,10.5L91.6,11.1L91.1,11.1L91.1,11.6L75.9,11.6L75.9,11.1L72.4,11.1L72.4,10.6L71.9,10.6L71.9,10.1L71.6,10.1L71.6,10.6L62.6,10.6L62.6,11.1L60.6,11.1L60.6,11.6L52.6,11.6L52.6,12.1L51,12.1L51,11.9L52.4,11.9L52.4,11.4L60.4,11.4L60.4,10.9L62.4,10.9L62.4,10.4L71.4,10.4L71.4,10.1L67.9,10.1L67.9,7.9L68.9,7.9L68.9,7.5L69.1,7.5L69.1,8.1L68.1,8.1L68.1,9.9z" stroke="none"/><path d="M29.9,3.9L29.9,3.6L22.9,3.6L22.9,2.6L22.1,2.6L22.1,3.6L21.6,3.6L21.6,4.1L12.1,4.1L12.1,4.6L10.5,4.6L10.5,4.4L11.9,4.4L11.9,3.9L21.4,3.9L21.4,3.4L21.9,3.4L21.9,2.4L23.1,2.4L23.1,3.4L30.1,3.4L30.1,3.9L36.9,3.9L36.9,3.4L44.9,3.4L44.9,2.4L47.4,2.4L47.4,1.9L56.6,1.9L56.6,2.4L58.6,2.4L58.6,3L58.4,3L58.4,2.6L56.4,2.6L56.4,2.1L47.6,2.1L47.6,2.6L45.1,2.6L45.1,3.6L37.1,3.6L37.1,4.1L30.1,4.1L30.1,6L29.9,6L29.9,4.1L22.4,4.1L22.4,3L22.6,3L22.6,3.9z" stroke="none"/><path d="M25.4,5.9L25.4,5.6L20.9,5.6L20.9,5.1L11.1,5.1L11.1,5.6L9.4,5.6L9.4,5.1L6.9,5.1L6.9,4.6L6,4.6L6,4.4L7.1,4.4L7.1,4.9L9.6,4.9L9.6,5.4L10.9,5.4L10.9,4.9L21.1,4.9L21.1,5.4L25.6,5.4L25.6,5.9L27.6,5.9L27.6,6.4L29.6,6.4L29.6,6.9L33.9,6.9L33.9,6.4L35.9,6.4L35.9,6L36.1,6L36.1,6.6L34.1,6.6L34.1,7.1L29.4,7.1L29.4,6.6L27.4,6.6L27.4,6.1L25.6,6.1L25.6,6.6L22.1,6.6L22.1,7.1L21.6,7.1L21.6,7.9L22.1,7.9L22.1,8.4L37.1,8.4L37.1,8.9L39,8.9L39,9.1L36.9,9.1L36.9,8.6L21.9,8.6L21.9,8.1L21.4,8.1L21.4,6.9L21.9,6.9L21.9,6.4L25.4,6.4L25.4,6.1L21,6.1L21,5.9z" stroke="none"/><path d="M8.9,9L9.1,9L9.1,10.5L8.9,10.5z" stroke="none"/><path d="M96,5.9L96,6.1L95.4,6.1L95.4,5.1L94.4,5.1L94.4,4.5L94.6,4.5L94.6,4.9L95.6,4.9L95.6,5.9z" stroke="none"/><path d="M12.1,12L11.9,12L11.9,11.1L9.6,11.1L9.6,11.6L8.1,11.6L8.1,12.1L6,12.1L6,11.9L7.9,11.9L7.9,11.4L9.4,11.4L9.4,10.9L12.1,10.9z" stroke="none"/><path d="M82.5,7.6L82.5,7.4L85.6,7.4L85.6,7.9L86.6,7.9L86.6,8.4L87.1,8.4L87.1,8.9L88.5,8.9L88.5,9.1L86.9,9.1L86.9,8.6L86.4,8.6L86.4,8.1L85.4,8.1L85.4,7.6z" stroke="none"/><path d="M97.4,7.5L97.6,7.5L97.6,7.9L98.1,7.9L98.1,8.4L98.6,8.4L98.6,9.9L100.1,9.9L100.1,10.4L101.1,10.4L101.1,11.9L102,11.9L102,12.1L100.9,12.1L100.9,10.6L99.9,10.6L99.9,10.1L98.4,10.1L98.4,8.6L97.9,8.6L97.9,8.1L97.4,8.1z" stroke="none"/><path d="M13.5,10.4L13.5,10.6L12.9,10.6L12.9,10.1L10.4,10.1L10.4,9.6L9.9,9.6L9.9,8.6L9.4,8.6L9.4,8.1L6.1,8.1L6.1,9L5.9,9L5.9,7.9L9.6,7.9L9.6,8.4L10.1,8.4L10.1,9.4L10.6,9.4L10.6,9.9L13.1,9.9L13.1,10.4z" stroke="none"/><path d="M97.5,8.9L97.5,9.1L94.4,9.1L94.4,8.6L91.9,8.6L91.9,7.6L90,7.6L90,7.4L92.1,7.4L92.1,8.4L94.6,8.4L94.6,8.9z" stroke="none"/><path d="M76.5,10.6L76.5,10.4L85.5,10.4L85.5,10.6z" stroke="none"/><path d="M73.5,4.4L73.5,4.6L70.6,4.6L70.6,5.1L69.1,5.1L69.1,5.6L66.1,5.6L66.1,6.1L64.5,6.1L64.5,5.9L65.9,5.9L65.9,5.4L68.9,5.4L68.9,4.9L70.4,4.9L70.4,4.4z" stroke="none"/><path d="M82.6,9L82.4,9L82.4,8.6L81.9,8.6L81.9,8.1L81.4,8.1L81.4,6.9L81.9,6.9L81.9,6.4L88.6,6.4L88.6,7.9L89.1,7.9L89.1,8.4L89.6,8.4L89.6,8.9L92.6,8.9L92.6,11.6L91.6,11.6L91.6,12L91.4,12L91.4,11.4L92.4,11.4L92.4,9.1L89.4,9.1L89.4,8.6L88.9,8.6L88.9,8.1L88.4,8.1L88.4,6.6L82.1,6.6L82.1,7.1L81.6,7.1L81.6,7.9L82.1,7.9L82.1,8.4L82.6,8.4z" stroke="none"/><path d="M93,12.1L93,11.9L100.6,11.9L100.6,12.4L101.1,12.4L101.1,12.9L102.4,12.9L102.4,12.4L102.9,12.4L102.9,8.1L101.9,8.1L101.9,7.5L102.1,7.5L102.1,7.9L103.1,7.9L103.1,12.6L102.6,12.6L102.6,13.1L100.9,13.1L100.9,12.6L100.4,12.6L100.4,12.1z" stroke="none"/><path d="M48,2.9L48,3.1L46.6,3.1L46.6,3.6L45.6,3.6L45.6,4.1L37.6,4.1L37.6,4.5L37.4,4.5L37.4,3.9L45.4,3.9L45.4,3.4L46.4,3.4L46.4,2.9z" stroke="none"/><path d="M72,3.1L72,2.9L84.4,2.9L84.4,2.4L84.9,2.4L84.9,1.9L92.1,1.9L92.1,2.4L92.6,2.4L92.6,2.9L93,2.9L93,3.1L92.4,3.1L92.4,2.6L91.9,2.6L91.9,2.1L85.1,2.1L85.1,2.6L84.6,2.6L84.6,3.1z" stroke="none"/><path d="M33,11.9L33,12.1L14.6,12.1L14.6,12.6L14.1,12.6L14.1,13.1L11.4,13.1L11.4,12.6L10.4,12.6L10.4,12L10.6,12L10.6,12.4L11.6,12.4L11.6,12.9L13.9,12.9L13.9,12.4L14.4,12.4L14.4,11.9z" stroke="none"/><path d="M61.5,7.6L61.5,7.4L61.9,7.4L61.9,5.9L62.9,5.9L62.9,5.4L63.9,5.4L63.9,4.9L68.4,4.9L68.4,4.4L69.9,4.4L69.9,3.9L72.9,3.9L72.9,3.4L84.9,3.4L84.9,2.9L85.5,2.9L85.5,3.1L85.1,3.1L85.1,3.6L73.1,3.6L73.1,4.1L70.1,4.1L70.1,4.6L68.6,4.6L68.6,5.1L64.1,5.1L64.1,5.6L63.1,5.6L63.1,6.1L62.1,6.1L62.1,7.6z" stroke="none"/><path d="M19.5,7.6L19.5,7.4L20.6,7.4L20.6,7.9L21.1,7.9L21.1,8.4L21.6,8.4L21.6,8.9L32.1,8.9L32.1,9.4L38.6,9.4L38.6,9.9L42.9,9.9L42.9,9.4L45.1,9.4L45.1,10.4L46.5,10.4L46.5,10.6L44.9,10.6L44.9,9.6L43.1,9.6L43.1,10.1L38.4,10.1L38.4,9.6L31.9,9.6L31.9,9.1L21.4,9.1L21.4,8.6L20.9,8.6L20.9,8.1L20.4,8.1L20.4,7.6z" stroke="none"/><path d="M3,12.1L3,11.9L3.6,11.9L3.6,12.9L10.6,12.9L10.6,13.4L33.9,13.4L33.9,12.9L34.9,12.9L34.9,11.9L36,11.9L36,12.1L35.1,12.1L35.1,13.1L34.1,13.1L34.1,13.6L10.4,13.6L10.4,13.1L3.4,13.1L3.4,12.1z" stroke="none"/><path d="M13.5,12.1L13.5,11.9L13.9,11.9L13.9,11.4L32.4,11.4L32.4,10.9L42.6,10.9L42.6,11.4L43.6,11.4L43.6,11.9L48,11.9L48,12.1L43.4,12.1L43.4,11.6L42.4,11.6L42.4,11.1L32.6,11.1L32.6,11.6L14.1,11.6L14.1,12.1z" stroke="none"/><path d="M52.5,6.1L52.5,5.9L61.4,5.9L61.4,5.4L61.9,5.4L61.9,4.9L63.4,4.9L63.4,4.4L64.4,4.4L64.4,3.9L69.4,3.9L69.4,3.4L70.9,3.4L70.9,2.4L71.4,2.4L71.4,1.9L83.4,1.9L83.4,1.4L93.6,1.4L93.6,2.4L94.1,2.4L94.1,3.6L93.6,3.6L93.6,4.1L87.6,4.1L87.6,4.6L87,4.6L87,4.4L87.4,4.4L87.4,3.9L93.4,3.9L93.4,3.4L93.9,3.4L93.9,2.6L93.4,2.6L93.4,1.6L83.6,1.6L83.6,2.1L71.6,2.1L71.6,2.6L71.1,2.6L71.1,3.6L69.6,3.6L69.6,4.1L64.6,4.1L64.6,4.6L63.6,4.6L63.6,5.1L62.1,5.1L62.1,5.6L61.6,5.6L61.6,6.1z" stroke="none"/><path d="M19.5,5.9L19.5,6.1L7.1,6.1L7.1,6.6L6.1,6.6L6.1,7.1L4.6,7.1L4.6,9.1L3.1,9.1L3.1,9.6L2.6,9.6L2.6,10.1L2.1,10.1L2.1,12.4L2.6,12.4L2.6,13.4L9.6,13.4L9.6,13.9L47.4,13.9L47.4,13.4L47.9,13.4L47.9,12.9L48.4,12.9L48.4,12.4L48.9,12.4L48.9,8.9L49.4,8.9L49.4,8.4L49.9,8.4L49.9,7.9L54.9,7.9L54.9,7.4L58.5,7.4L58.5,7.6L55.1,7.6L55.1,8.1L50.1,8.1L50.1,8.6L49.6,8.6L49.6,9.1L49.1,9.1L49.1,12.6L48.6,12.6L48.6,13.1L48.1,13.1L48.1,13.6L47.6,13.6L47.6,14.1L9.4,14.1L9.4,13.6L2.4,13.6L2.4,12.6L1.9,12.6L1.9,9.9L2.4,9.9L2.4,9.4L2.9,9.4L2.9,8.9L4.4,8.9L4.4,6.9L5.9,6.9L5.9,6.4L6.9,6.4L6.9,5.9z" stroke="none"/><path d="M3,10.6L3,10.4L4.9,10.4L4.9,8.4L5.4,8.4L5.4,7.4L15.6,7.4L15.6,7.9L19.1,7.9L19.1,8.4L20.6,8.4L20.6,8.9L21.1,8.9L21.1,9.4L29.6,9.4L29.6,9.9L37.6,9.9L37.6,10.4L43.5,10.4L43.5,10.6L37.4,10.6L37.4,10.1L29.4,10.1L29.4,9.6L20.9,9.6L20.9,9.1L20.4,9.1L20.4,8.6L18.9,8.6L18.9,8.1L15.4,8.1L15.4,7.6L5.6,7.6L5.6,8.6L5.1,8.6L5.1,10.6z" stroke="none"/><path d="M61.5,2.9L61.5,3.1L59.4,3.1L59.4,2.1L56.9,2.1L56.9,1.6L24.6,1.6L24.6,2.1L21.6,2.1L21.6,2.6L21.1,2.6L21.1,3L20.9,3L20.9,2.4L21.4,2.4L21.4,1.9L24.4,1.9L24.4,1.4L57.1,1.4L57.1,1.9L59.6,1.9L59.6,2.9z" stroke="none"/><path d="M60,10.4L60,10.6L51.1,10.6L51.1,11.1L50.1,11.1L50.1,12.4L50.6,12.4L50.6,12.9L100.6,12.9L100.6,13.4L103.4,13.4L103.4,7.6L102.9,7.6L102.9,7.1L102.4,7.1L102.4,6.6L101.1,6.6L101.1,9.9L101.6,9.9L101.6,10.4L102,10.4L102,10.6L101.4,10.6L101.4,10.1L100.9,10.1L100.9,6.4L102.6,6.4L102.6,6.9L103.1,6.9L103.1,7.4L103.6,7.4L103.6,13.6L100.4,13.6L100.4,13.1L50.4,13.1L50.4,12.6L49.9,12.6L49.9,10.9L50.9,10.9L50.9,10.4z" stroke="none"/><path d="M51,6.1L51,5.9L51.4,5.9L51.4,4.9L61.4,4.9L61.4,4.4L61.9,4.4L61.9,3.4L62.4,3.4L62.4,2.6L61.9,2.6L61.9,2.1L60.4,2.1L60.4,1.6L57.9,1.6L57.9,1.1L6.1,1.1L6.1,1.6L5.6,1.6L5.6,2.6L5.1,2.6L5.1,3.6L4.1,3.6L4.1,4.6L3,4.6L3,4.4L3.9,4.4L3.9,3.4L4.9,3.4L4.9,2.4L5.4,2.4L5.4,1.4L5.9,1.4L5.9,0.9L58.1,0.9L58.1,1.4L60.6,1.4L60.6,1.9L62.1,1.9L62.1,2.4L62.6,2.4L62.6,3.6L62.1,3.6L62.1,4.6L61.6,4.6L61.6,5.1L51.6,5.1L51.6,6.1z" stroke="none"/></svg>