<svg version="1.1" width="105" height="15" xmlns="http://www.w3.org/2000/svg"><path d="M92.9,9.4L92.9,8.9L94.9,8.9L94.9,7.9L97.1,7.9L97.1,8.4L98.6,8.4L98.6,8.9L99,8.9L99,9.1L98.4,9.1L98.4,8.6L96.9,8.6L96.9,8.1L95.1,8.1L95.1,9.1L93.1,9.1L93.1,9.4L95.6,9.4L95.6,9.9L97.6,9.9L97.6,10.5L97.4,10.5L97.4,10.1L95.4,10.1L95.4,9.6L85.4,9.6L85.4,9.1L82.5,9.1L82.5,8.9L85.6,8.9L85.6,9.4z" stroke="none"/><path d="M57.4,8.9L57.4,8.4L58.4,8.4L58.4,6L58.6,6L58.6,8.6L57.6,8.6L57.6,9.1L54.1,9.1L54.1,9.4L59.6,9.4L59.6,10.4L60,10.4L60,10.6L59.4,10.6L59.4,9.6L53.9,9.6L53.9,9.1L44.1,9.1L44.1,10.6L43.5,10.6L43.5,10.4L43.9,10.4L43.9,8.9z" stroke="none"/><path d="M31.9,7.9L31.9,7.4L40.5,7.4L40.5,7.6L32.1,7.6L32.1,7.9L35.1,7.9L35.1,8.4L37.1,8.4L37.1,8.9L39,8.9L39,9.1L36.9,9.1L36.9,8.6L34.9,8.6L34.9,8.1L16.9,8.1L16.9,7.6L16.5,7.6L16.5,7.4L17.1,7.4L17.1,7.9z" stroke="none"/><path d="M77.9,4.9L77.9,4.4L83.9,4.4L83.9,3.9L94.9,3.9L94.9,3.4L95.9,3.4L95.9,3L96.1,3L96.1,3.6L95.1,3.6L95.1,4.1L84.1,4.1L84.1,4.6L78.1,4.6L78.1,4.9L84.9,4.9L84.9,4.4L85.5,4.4L85.5,4.6L85.1,4.6L85.1,5.1L78.1,5.1L78.1,6.1L72.6,6.1L72.6,6.6L61.1,6.6L61.1,7.1L60.1,7.1L60.1,7.5L59.9,7.5L59.9,6.9L60.9,6.9L60.9,6.4L72.4,6.4L72.4,5.9L77.9,5.9L77.9,5.1L77.6,5.1L77.6,5.6L71.6,5.6L71.6,6.1L70.5,6.1L70.5,5.9L71.4,5.9L71.4,5.4L77.4,5.4L77.4,4.9z" stroke="none"/><path d="M44.9,6.9L44.9,6.6L20.1,6.6L20.1,7.1L17.4,7.1L17.4,6.6L15.6,6.6L15.6,7.9L16.1,7.9L16.1,8.4L25.1,8.4L25.1,8.9L25.5,8.9L25.5,9.1L24.9,9.1L24.9,8.6L15.9,8.6L15.9,8.1L15.4,8.1L15.4,6.4L17.6,6.4L17.6,6.9L19.9,6.9L19.9,6.4L45.1,6.4L45.1,6.9L47.4,6.9L47.4,6.4L51.4,6.4L51.4,5.9L52.5,5.9L52.5,6.1L51.6,6.1L51.6,6.6L47.6,6.6L47.6,7.1L45.1,7.1L45.1,7.4L46.6,7.4L46.6,8.4L53.4,8.4L53.4,7.9L56.4,7.9L56.4,6.4L57.4,6.4L57.4,5.4L57.9,5.4L57.9,4.9L63.6,4.9L63.6,5.4L69.9,5.4L69.9,4.9L72.4,4.9L72.4,4.4L75,4.4L75,4.6L72.6,4.6L72.6,5.1L70.1,5.1L70.1,5.6L63.4,5.6L63.4,5.1L58.1,5.1L58.1,5.6L57.6,5.6L57.6,6.6L56.6,6.6L56.6,8.1L53.6,8.1L53.6,8.6L46.4,8.6L46.4,7.6L44.9,7.6L44.9,7.1L44.6,7.1L44.6,7.6L44.1,7.6L44.1,8.1L43.6,8.1L43.6,8.6L43.1,8.6L43.1,9.1L42.6,9.1L42.6,10.1L36.9,10.1L36.9,9.6L31.4,9.6L31.4,9.1L28.5,9.1L28.5,8.9L31.6,8.9L31.6,9.4L37.1,9.4L37.1,9.9L42.4,9.9L42.4,8.9L42.9,8.9L42.9,8.4L43.4,8.4L43.4,7.9L43.9,7.9L43.9,7.4L44.4,7.4L44.4,6.9z" stroke="none"/><path d="M29.9,3.9L29.9,3.6L20.1,3.6L20.1,4.1L8.1,4.1L8.1,4.6L6,4.6L6,4.4L7.9,4.4L7.9,3.9L19.9,3.9L19.9,3.4L30.1,3.4L30.1,3.9L41.4,3.9L41.4,2.9L43.5,2.9L43.5,3.1L41.6,3.1L41.6,4.1L30.1,4.1L30.1,4.4L46.4,4.4L46.4,3.4L49.4,3.4L49.4,2.9L51,2.9L51,3.1L49.6,3.1L49.6,3.6L46.6,3.6L46.6,4.6L29.9,4.6L29.9,4.1L21.1,4.1L21.1,4.6L20.6,4.6L20.6,5.1L19.6,5.1L19.6,6L19.4,6L19.4,4.9L20.4,4.9L20.4,4.4L20.9,4.4L20.9,3.9z" stroke="none"/><path d="M67.4,7.5L67.6,7.5L67.6,9L67.4,9z" stroke="none"/><path d="M4.6,9L4.4,9L4.4,6L4.6,6z" stroke="none"/><path d="M22.5,11.9L22.5,12.1L19.5,12.1L19.5,11.9z" stroke="none"/><path d="M91.5,6.1L91.5,5.9L94.1,5.9L94.1,6.9L94.6,6.9L94.6,7.5L94.4,7.5L94.4,7.1L93.9,7.1L93.9,6.1z" stroke="none"/><path d="M46.5,11.9L46.5,12.1L42,12.1L42,11.9z" stroke="none"/><path d="M87,11.9L87,12.1L84.9,12.1L84.9,11.6L84.4,11.6L84.4,11.1L83.9,11.1L83.9,10.6L83.4,10.6L83.4,10.1L81.9,10.1L81.9,9.6L81.4,9.6L81.4,8.4L81.9,8.4L81.9,7.9L83.6,7.9L83.6,8.4L87.4,8.4L87.4,7.4L88.5,7.4L88.5,7.6L87.6,7.6L87.6,8.6L83.4,8.6L83.4,8.1L82.1,8.1L82.1,8.6L81.6,8.6L81.6,9.4L82.1,9.4L82.1,9.9L83.6,9.9L83.6,10.4L84.1,10.4L84.1,10.9L84.6,10.9L84.6,11.4L85.1,11.4L85.1,11.9z" stroke="none"/><path d="M4.6,12L4.4,12L4.4,10.1L3.9,10.1L3.9,9.6L3.4,9.6L3.4,8.1L2.9,8.1L2.9,7.5L3.1,7.5L3.1,7.9L3.6,7.9L3.6,9.4L4.1,9.4L4.1,9.9L4.6,9.9z" stroke="none"/><path d="M93,3.1L93,2.9L93.9,2.9L93.9,2.4L95.4,2.4L95.4,1.9L99.1,1.9L99.1,4.4L100.5,4.4L100.5,4.6L98.9,4.6L98.9,2.1L95.6,2.1L95.6,2.6L94.1,2.6L94.1,3.1z" stroke="none"/><path d="M2.9,10.5L3.1,10.5L3.1,12.4L3.6,12.4L3.6,12.9L4.9,12.9L4.9,12.4L5.4,12.4L5.4,8.4L9.4,8.4L9.4,7.9L10.4,7.9L10.4,7.5L10.6,7.5L10.6,8.1L9.6,8.1L9.6,8.6L5.6,8.6L5.6,12.6L5.1,12.6L5.1,13.1L3.4,13.1L3.4,12.6L2.9,12.6z" stroke="none"/><path d="M9,7.6L9,7.4L9.4,7.4L9.4,6.9L9.9,6.9L9.9,6.4L11.6,6.4L11.6,9.4L12.1,9.4L12.1,9.9L12.6,9.9L12.6,10.9L14.1,10.9L14.1,11.4L16.1,11.4L16.1,11.9L16.5,11.9L16.5,12.1L15.9,12.1L15.9,11.6L13.9,11.6L13.9,11.1L12.4,11.1L12.4,10.1L11.9,10.1L11.9,9.6L11.4,9.6L11.4,6.6L10.1,6.6L10.1,7.1L9.6,7.1L9.6,7.6z" stroke="none"/><path d="M99,5.9L99,6.1L97.4,6.1L97.4,5.6L91.9,5.6L91.9,5.1L91.1,5.1L91.1,5.6L90.1,5.6L90.1,6L89.9,6L89.9,5.4L90.9,5.4L90.9,4.9L92.1,4.9L92.1,5.4L97.6,5.4L97.6,5.9z" stroke="none"/><path d="M58.5,12.1L58.5,11.9L60.9,11.9L60.9,11.4L62.4,11.4L62.4,10.9L65.1,10.9L65.1,11.4L69.1,11.4L69.1,12L68.9,12L68.9,11.6L64.9,11.6L64.9,11.1L62.6,11.1L62.6,11.6L61.1,11.6L61.1,12.1z" stroke="none"/><path d="M19.5,2.9L19.5,3.1L5.6,3.1L5.6,3.6L5.1,3.6L5.1,5.4L6.6,5.4L6.6,5.9L7.5,5.9L7.5,6.1L6.4,6.1L6.4,5.6L4.9,5.6L4.9,3.4L5.4,3.4L5.4,2.9z" stroke="none"/><path d="M34.5,3.1L34.5,2.9L40.9,2.9L40.9,2.4L42.9,2.4L42.9,1.9L52.1,1.9L52.1,3.6L51.6,3.6L51.6,4.1L48.1,4.1L48.1,4.5L47.9,4.5L47.9,3.9L51.4,3.9L51.4,3.4L51.9,3.4L51.9,2.1L43.1,2.1L43.1,2.6L41.1,2.6L41.1,3.1z" stroke="none"/><path d="M75,2.9L75,3.1L60,3.1L60,2.9z" stroke="none"/><path d="M25.4,12L25.6,12L25.6,12.6L25.1,12.6L25.1,13.1L14.4,13.1L14.4,12.6L12.9,12.6L12.9,11.6L11.4,11.6L11.4,11.1L10.9,11.1L10.9,9.1L10.5,9.1L10.5,8.9L11.1,8.9L11.1,10.9L11.6,10.9L11.6,11.4L13.1,11.4L13.1,12.4L14.6,12.4L14.6,12.9L24.9,12.9L24.9,12.4L25.4,12.4z" stroke="none"/><path d="M96,9.1L96,8.9L98.1,8.9L98.1,9.9L98.6,9.9L98.6,11.1L98.1,11.1L98.1,11.6L93.6,11.6L93.6,12.1L92.1,12.1L92.1,12.6L91.6,12.6L91.6,13.1L81.9,13.1L81.9,12.1L81.4,12.1L81.4,10.6L79.9,10.6L79.9,9.1L79.5,9.1L79.5,8.9L80.1,8.9L80.1,10.4L81.6,10.4L81.6,11.9L82.1,11.9L82.1,12.9L91.4,12.9L91.4,12.4L91.9,12.4L91.9,11.9L93.4,11.9L93.4,11.4L97.9,11.4L97.9,10.9L98.4,10.9L98.4,10.1L97.9,10.1L97.9,9.1z" stroke="none"/><path d="M76.5,8.9L76.5,9.1L69.6,9.1L69.6,9.6L68.1,9.6L68.1,10.1L61.9,10.1L61.9,9.6L59.9,9.6L59.9,9L60.1,9L60.1,9.4L62.1,9.4L62.1,9.9L67.9,9.9L67.9,9.4L69.4,9.4L69.4,8.9z" stroke="none"/><path d="M30,10.4L30,10.6L29.6,10.6L29.6,12.1L26.6,12.1L26.6,13.1L25.6,13.1L25.6,13.6L2.9,13.6L2.9,13.1L2.4,13.1L2.4,12.1L1.9,12.1L1.9,6.4L2.4,6.4L2.4,5.9L2.9,5.9L2.9,4.9L3.9,4.9L3.9,4.4L4.4,4.4L4.4,2.9L4.9,2.9L4.9,2.4L18.9,2.4L18.9,1.9L41.4,1.9L41.4,1.4L52.6,1.4L52.6,4.4L53.1,4.4L53.1,4.9L53.6,4.9L53.6,6.6L53.1,6.6L53.1,7.1L49.6,7.1L49.6,7.6L48,7.6L48,7.4L49.4,7.4L49.4,6.9L52.9,6.9L52.9,6.4L53.4,6.4L53.4,5.1L52.9,5.1L52.9,4.6L52.4,4.6L52.4,1.6L41.6,1.6L41.6,2.1L19.1,2.1L19.1,2.6L5.1,2.6L5.1,3.1L4.6,3.1L4.6,4.6L4.1,4.6L4.1,5.1L3.1,5.1L3.1,6.1L2.6,6.1L2.6,6.6L2.1,6.6L2.1,11.9L2.6,11.9L2.6,12.9L3.1,12.9L3.1,13.4L25.4,13.4L25.4,12.9L26.4,12.9L26.4,11.9L29.4,11.9L29.4,10.4z" stroke="none"/><path d="M64.5,4.4L64.5,4.6L60.4,4.6L60.4,4.1L58.9,4.1L58.9,2.4L59.4,2.4L59.4,1.9L94.9,1.9L94.9,1.4L101.1,1.4L101.1,2.9L101.6,2.9L101.6,5.1L101.1,5.1L101.1,5.6L99.4,5.6L99.4,5.1L92.4,5.1L92.4,4.6L88.1,4.6L88.1,5.6L87.6,5.6L87.6,6.6L86.6,6.6L86.6,7.1L84.1,7.1L84.1,7.5L83.9,7.5L83.9,6.9L86.4,6.9L86.4,6.4L87.4,6.4L87.4,5.4L87.9,5.4L87.9,4.4L92.6,4.4L92.6,4.9L99.6,4.9L99.6,5.4L100.9,5.4L100.9,4.9L101.4,4.9L101.4,3.1L100.9,3.1L100.9,1.6L95.1,1.6L95.1,2.1L59.6,2.1L59.6,2.6L59.1,2.6L59.1,3.9L60.6,3.9L60.6,4.4z" stroke="none"/><path d="M72,12.1L72,11.9L79.1,11.9L79.1,13.4L97.9,13.4L97.9,11.9L98.4,11.9L98.4,11.4L98.9,11.4L98.9,9.9L99.4,9.9L99.4,9.4L100.9,9.4L100.9,8.4L101.4,8.4L101.4,7.9L101.9,7.9L101.9,7.5L102.1,7.5L102.1,8.1L101.6,8.1L101.6,8.6L101.1,8.6L101.1,9.6L99.6,9.6L99.6,10.1L99.1,10.1L99.1,11.6L98.6,11.6L98.6,12.1L98.1,12.1L98.1,13.6L78.9,13.6L78.9,12.1z" stroke="none"/><path d="M102,10.4L102,10.6L101.6,10.6L101.6,11.1L99.6,11.1L99.6,12.1L99.1,12.1L99.1,13.6L98.6,13.6L98.6,14.1L65.9,14.1L65.9,13.1L65.4,13.1L65.4,12.6L63.9,12.6L63.9,12.1L63,12.1L63,11.9L64.1,11.9L64.1,12.4L65.6,12.4L65.6,12.9L66.1,12.9L66.1,13.9L98.4,13.9L98.4,13.4L98.9,13.4L98.9,11.9L99.4,11.9L99.4,10.9L101.4,10.9L101.4,10.4z" stroke="none"/><path d="M97.5,7.6L97.5,7.4L100.4,7.4L100.4,6.9L100.9,6.9L100.9,6.4L101.9,6.4L101.9,2.1L101.4,2.1L101.4,1.1L58.6,1.1L58.6,1.6L58.1,1.6L58.1,3.1L55.6,3.1L55.6,3.6L55.1,3.6L55.1,4.1L54.6,4.1L54.6,4.6L54,4.6L54,4.4L54.4,4.4L54.4,3.9L54.9,3.9L54.9,3.4L55.4,3.4L55.4,2.9L57.9,2.9L57.9,1.4L58.4,1.4L58.4,0.9L101.6,0.9L101.6,1.9L102.1,1.9L102.1,6.6L101.1,6.6L101.1,7.1L100.6,7.1L100.6,7.6z" stroke="none"/><path d="M36,10.6L36,10.4L41.6,10.4L41.6,10.9L43.1,10.9L43.1,11.4L45.9,11.4L45.9,10.9L59.6,10.9L59.6,11.4L60.4,11.4L60.4,10.9L61.9,10.9L61.9,10.4L76.4,10.4L76.4,9.9L76.9,9.9L76.9,9.4L77.4,9.4L77.4,7.9L80.4,7.9L80.4,7.4L81,7.4L81,7.6L80.6,7.6L80.6,8.1L77.6,8.1L77.6,9.6L77.1,9.6L77.1,10.1L76.6,10.1L76.6,10.6L62.1,10.6L62.1,11.1L60.6,11.1L60.6,11.6L59.4,11.6L59.4,11.1L46.1,11.1L46.1,11.6L42.9,11.6L42.9,11.1L41.4,11.1L41.4,10.6z" stroke="none"/></svg>