<svg version="1.1" width="105" height="15" xmlns="http://www.w3.org/2000/svg"><path d="M78.4,10.4L78.4,9.4L78.9,9.4L78.9,8.4L79.4,8.4L79.4,7.9L80.4,7.9L80.4,7.4L81,7.4L81,7.6L80.6,7.6L80.6,8.1L79.6,8.1L79.6,8.6L79.1,8.6L79.1,9.6L78.6,9.6L78.6,10.6L73.1,10.6L73.1,11.9L73.5,11.9L73.5,12.1L72.9,12.1L72.9,10.6L66.6,10.6L66.6,12.1L64.5,12.1L64.5,11.9L66.4,11.9L66.4,10.4z" stroke="none"/><path d="M26.4,8.4L26.4,7.9L28.1,7.9L28.1,8.4L30.9,8.4L30.9,7.9L36.4,7.9L36.4,7.4L36.9,7.4L36.9,6.9L37.4,6.9L37.4,5.9L39,5.9L39,6.1L37.6,6.1L37.6,7.1L37.1,7.1L37.1,7.6L36.6,7.6L36.6,8.1L31.1,8.1L31.1,8.6L27.9,8.6L27.9,8.1L26.6,8.1L26.6,8.6L23.6,8.6L23.6,9.9L24.1,9.9L24.1,10.5L23.9,10.5L23.9,10.1L23.4,10.1L23.4,8.6L17.1,8.6L17.1,9.1L16.1,9.1L16.1,9.6L12.6,9.6L12.6,10.1L7.4,10.1L7.4,9L7.6,9L7.6,9.9L12.4,9.9L12.4,9.4L15.9,9.4L15.9,8.9L16.9,8.9L16.9,8.4z" stroke="none"/><path d="M35.4,4.9L35.4,4.4L44.1,4.4L44.1,5.4L47.9,5.4L47.9,4.5L48.1,4.5L48.1,5.6L43.9,5.6L43.9,4.6L35.6,4.6L35.6,4.9L39.6,4.9L39.6,5.4L40.6,5.4L40.6,6L40.4,6L40.4,5.6L39.4,5.6L39.4,5.1L23.9,5.1L23.9,4.6L18,4.6L18,4.4L24.1,4.4L24.1,4.9z" stroke="none"/><path d="M6.4,4.9L6.4,2.9L7.5,2.9L7.5,3.1L6.6,3.1L6.6,4.9L12.9,4.9L12.9,4.4L13.5,4.4L13.5,4.6L13.1,4.6L13.1,5.1L6.6,5.1L6.6,5.6L6.1,5.6L6.1,6.1L5.6,6.1L5.6,6.6L4.6,6.6L4.6,7.6L3,7.6L3,7.4L4.4,7.4L4.4,6.4L5.4,6.4L5.4,5.9L5.9,5.9L5.9,5.4L6.4,5.4L6.4,5.1L4.1,5.1L4.1,5.6L3.1,5.6L3.1,6L2.9,6L2.9,5.4L3.9,5.4L3.9,4.9z" stroke="none"/><path d="M73.4,5.9L73.4,4.9L76.1,4.9L76.1,5.4L82.1,5.4L82.1,6.4L83.6,6.4L83.6,9.6L83.1,9.6L83.1,10.1L81.9,10.1L81.9,9.6L80.9,9.6L80.9,9L81.1,9L81.1,9.4L82.1,9.4L82.1,9.9L82.9,9.9L82.9,9.4L83.4,9.4L83.4,6.6L81.9,6.6L81.9,5.6L75.9,5.6L75.9,5.1L73.6,5.1L73.6,5.9L74.1,5.9L74.1,6.9L75.6,6.9L75.6,7.4L76.5,7.4L76.5,7.6L75.4,7.6L75.4,7.1L73.9,7.1L73.9,6.1L73.6,6.1L73.6,8.1L73.1,8.1L73.1,9.6L72.6,9.6L72.6,10.1L60.4,10.1L60.4,9.6L48.6,9.6L48.6,10.1L46.9,10.1L46.9,6.9L47.4,6.9L47.4,6.4L47.9,6.4L47.9,5.9L48.4,5.9L48.4,5.4L48.9,5.4L48.9,3.6L46.1,3.6L46.1,4.1L45.6,4.1L45.6,4.6L45,4.6L45,4.4L45.4,4.4L45.4,3.9L45.9,3.9L45.9,3.4L49.1,3.4L49.1,5.6L48.6,5.6L48.6,6.1L48.1,6.1L48.1,6.6L47.6,6.6L47.6,7.1L47.1,7.1L47.1,9.9L48.4,9.9L48.4,9.4L60.6,9.4L60.6,9.9L72.4,9.9L72.4,9.4L72.9,9.4L72.9,7.9L73.4,7.9L73.4,6.1L72.9,6.1L72.9,4.4L74.9,4.4L74.9,3.9L75.9,3.9L75.9,3.4L92.1,3.4L92.1,4.4L93,4.4L93,4.6L91.9,4.6L91.9,3.6L76.1,3.6L76.1,4.1L75.1,4.1L75.1,4.6L73.1,4.6L73.1,5.9z" stroke="none"/><path d="M67.4,6.4L67.4,5.9L72.4,5.9L72.4,3.9L73.9,3.9L73.9,3.4L74.9,3.4L74.9,2.9L93.6,2.9L93.6,3.9L94.1,3.9L94.1,5.6L89.4,5.6L89.4,4.6L88.5,4.6L88.5,4.4L89.6,4.4L89.6,5.4L93.9,5.4L93.9,4.1L93.4,4.1L93.4,3.1L75.1,3.1L75.1,3.6L74.1,3.6L74.1,4.1L72.6,4.1L72.6,6.1L67.6,6.1L67.6,6.4L69.6,6.4L69.6,6.9L70.1,6.9L70.1,7.4L72.1,7.4L72.1,9L71.9,9L71.9,7.6L69.9,7.6L69.9,7.1L69.4,7.1L69.4,6.6L67.6,6.6L67.6,7.1L65.6,7.1L65.6,8.6L49.6,8.6L49.6,9.1L48,9.1L48,8.9L49.4,8.9L49.4,8.4L65.4,8.4L65.4,6.9L67.4,6.9L67.4,6.6L66.9,6.6L66.9,6.1L65.9,6.1L65.9,5.6L64.9,5.6L64.9,5.1L62.9,5.1L62.9,4.5L63.1,4.5L63.1,4.9L65.1,4.9L65.1,5.4L66.1,5.4L66.1,5.9L67.1,5.9L67.1,6.4z" stroke="none"/><path d="M82.6,9L82.4,9L82.4,7.5L82.6,7.5z" stroke="none"/><path d="M102.1,10.5L101.9,10.5L101.9,10.1L101.4,10.1L101.4,9.6L100.9,9.6L100.9,9.1L100.5,9.1L100.5,8.9L101.1,8.9L101.1,9.4L101.6,9.4L101.6,9.9L102.1,9.9z" stroke="none"/><path d="M74.9,6L75.1,6L75.1,6.4L77.1,6.4L77.1,6.9L78.1,6.9L78.1,9L77.9,9L77.9,7.1L76.9,7.1L76.9,6.6L74.9,6.6z" stroke="none"/><path d="M97.5,11.9L97.5,12.1L92.9,12.1L92.9,10.5L93.1,10.5L93.1,11.9z" stroke="none"/><path d="M18,7.4L18,7.6L12,7.6L12,7.4z" stroke="none"/><path d="M66,4.6L66,4.4L71.4,4.4L71.4,3.9L71.9,3.9L71.9,3L72.1,3L72.1,4.1L71.6,4.1L71.6,4.6z" stroke="none"/><path d="M102.1,7.5L101.9,7.5L101.9,6.1L101.4,6.1L101.4,5.1L97.4,5.1L97.4,4.6L96,4.6L96,4.4L97.6,4.4L97.6,4.9L101.6,4.9L101.6,5.9L102.1,5.9z" stroke="none"/><path d="M10.5,3.1L10.5,2.9L13.1,2.9L13.1,3.4L14.6,3.4L14.6,3.9L16.9,3.9L16.9,3.4L17.9,3.4L17.9,3L18.1,3L18.1,3.6L17.1,3.6L17.1,4.1L14.4,4.1L14.4,3.6L12.9,3.6L12.9,3.1z" stroke="none"/><path d="M19.5,12.1L19.5,11.9L25.9,11.9L25.9,10.4L27,10.4L27,10.6L26.1,10.6L26.1,12.1z" stroke="none"/><path d="M58.5,2.9L58.5,3.1L51.6,3.1L51.6,3.6L50.6,3.6L50.6,5.1L50.1,5.1L50.1,5.6L49.6,5.6L49.6,6L49.4,6L49.4,5.4L49.9,5.4L49.9,4.9L50.4,4.9L50.4,3.4L51.4,3.4L51.4,2.9z" stroke="none"/><path d="M4.6,3L4.4,3L4.4,2.4L6.4,2.4L6.4,1.9L11.6,1.9L11.6,2.4L13.6,2.4L13.6,2.9L15,2.9L15,3.1L13.4,3.1L13.4,2.6L11.4,2.6L11.4,2.1L6.6,2.1L6.6,2.6L4.6,2.6z" stroke="none"/><path d="M102,8.9L102,9.1L101.4,9.1L101.4,8.6L100.9,8.6L100.9,8.1L96.6,8.1L96.6,8.6L94.9,8.6L94.9,8.1L93.4,8.1L93.4,7.6L88.5,7.6L88.5,7.4L93.6,7.4L93.6,7.9L95.1,7.9L95.1,8.4L96.4,8.4L96.4,7.9L101.1,7.9L101.1,8.4L101.6,8.4L101.6,8.9z" stroke="none"/><path d="M12,8.9L12,9.1L8.4,9.1L8.4,8.6L7.9,8.6L7.9,8.1L6.6,8.1L6.6,10.4L21.1,10.4L21.1,10.9L23.6,10.9L23.6,11.4L24.4,11.4L24.4,10.9L24.9,10.9L24.9,10.4L25.4,10.4L25.4,9.9L26.4,9.9L26.4,9.4L26.9,9.4L26.9,9L27.1,9L27.1,9.6L26.6,9.6L26.6,10.1L25.6,10.1L25.6,10.6L25.1,10.6L25.1,11.1L24.6,11.1L24.6,11.6L23.4,11.6L23.4,11.1L20.9,11.1L20.9,10.6L6.4,10.6L6.4,7.9L8.1,7.9L8.1,8.4L8.6,8.4L8.6,8.9z" stroke="none"/><path d="M84,10.4L84,10.6L79.6,10.6L79.6,11.1L76.6,11.1L76.6,11.6L76.1,11.6L76.1,12.1L75.1,12.1L75.1,12.6L74.1,12.6L74.1,13.1L69.4,13.1L69.4,12.1L69,12.1L69,11.9L69.6,11.9L69.6,12.9L73.9,12.9L73.9,12.4L74.9,12.4L74.9,11.9L75.9,11.9L75.9,11.4L76.4,11.4L76.4,10.9L79.4,10.9L79.4,10.4z" stroke="none"/><path d="M99,11.9L99,12.1L98.6,12.1L98.6,13.1L83.4,13.1L83.4,12.6L82.9,12.6L82.9,12.1L81,12.1L81,11.9L83.1,11.9L83.1,12.4L83.6,12.4L83.6,12.9L98.4,12.9L98.4,11.9z" stroke="none"/><path d="M13.5,12.1L13.5,11.9L18.6,11.9L18.6,12.4L19.1,12.4L19.1,12.9L25.9,12.9L25.9,12.4L26.4,12.4L26.4,11.9L27.4,11.9L27.4,11.4L27.9,11.4L27.9,10.4L28.9,10.4L28.9,9.4L29.4,9.4L29.4,8.9L31.5,8.9L31.5,9.1L29.6,9.1L29.6,9.6L29.1,9.6L29.1,10.6L28.1,10.6L28.1,11.6L27.6,11.6L27.6,12.1L26.6,12.1L26.6,12.6L26.1,12.6L26.1,13.1L18.9,13.1L18.9,12.6L18.4,12.6L18.4,12.1z" stroke="none"/><path d="M76.5,4.6L76.5,4.4L85.1,4.4L85.1,4.9L85.6,4.9L85.6,5.4L86.1,5.4L86.1,6.9L86.6,6.9L86.6,7.9L88.1,7.9L88.1,8.4L89.4,8.4L89.4,7.9L92.6,7.9L92.6,8.4L93.6,8.4L93.6,8.9L94.5,8.9L94.5,9.1L93.4,9.1L93.4,8.6L92.4,8.6L92.4,8.1L89.6,8.1L89.6,8.6L87.9,8.6L87.9,8.1L86.4,8.1L86.4,7.1L85.9,7.1L85.9,5.6L85.4,5.6L85.4,5.1L84.9,5.1L84.9,4.6z" stroke="none"/><path d="M9,6.1L9,5.9L28.5,5.9L28.5,6.1z" stroke="none"/><path d="M85.5,10.4L85.5,10.6L85.1,10.6L85.1,11.6L82.9,11.6L82.9,11.1L80.1,11.1L80.1,11.6L78.1,11.6L78.1,12.1L77.6,12.1L77.6,12.6L77.1,12.6L77.1,13.1L76.6,13.1L76.6,13.6L61.4,13.6L61.4,13.1L60.9,13.1L60.9,12.6L60.4,12.6L60.4,11.6L59.9,11.6L59.9,10.5L60.1,10.5L60.1,11.4L60.6,11.4L60.6,12.4L61.1,12.4L61.1,12.9L61.6,12.9L61.6,13.4L76.4,13.4L76.4,12.9L76.9,12.9L76.9,12.4L77.4,12.4L77.4,11.9L77.9,11.9L77.9,11.4L79.9,11.4L79.9,10.9L83.1,10.9L83.1,11.4L84.9,11.4L84.9,10.4z" stroke="none"/><path d="M58.6,7.5L58.4,7.5L58.4,4.9L58.9,4.9L58.9,3.4L59.4,3.4L59.4,2.1L11.9,2.1L11.9,1.6L3.6,1.6L3.6,3.6L3.1,3.6L3.1,4.6L2.6,4.6L2.6,5.1L2.1,5.1L2.1,7.9L2.6,7.9L2.6,8.4L5.9,8.4L5.9,7.4L9.9,7.4L9.9,6.4L22.1,6.4L22.1,6.9L26.1,6.9L26.1,7.4L28.5,7.4L28.5,7.6L25.9,7.6L25.9,7.1L21.9,7.1L21.9,6.6L10.1,6.6L10.1,7.6L6.1,7.6L6.1,8.6L2.4,8.6L2.4,8.1L1.9,8.1L1.9,4.9L2.4,4.9L2.4,4.4L2.9,4.4L2.9,3.4L3.4,3.4L3.4,1.4L12.1,1.4L12.1,1.9L59.6,1.9L59.6,3.6L59.1,3.6L59.1,5.1L58.6,5.1z" stroke="none"/><path d="M102,2.9L102,3.1L94.9,3.1L94.9,2.6L75.4,2.6L75.4,2.1L71.6,2.1L71.6,2.6L71.1,2.6L71.1,3.1L70.5,3.1L70.5,2.9L70.9,2.9L70.9,2.4L71.4,2.4L71.4,1.9L75.6,1.9L75.6,2.4L95.1,2.4L95.1,2.9z" stroke="none"/><path d="M64.6,7.5L64.4,7.5L64.4,6.6L63.4,6.6L63.4,6.1L62.4,6.1L62.4,5.6L61.9,5.6L61.9,3.9L62.4,3.9L62.4,3.4L68.9,3.4L68.9,2.9L69.4,2.9L69.4,2.4L69.9,2.4L69.9,1.9L70.9,1.9L70.9,1.4L102.1,1.4L102.1,1.9L102.6,1.9L102.6,2.4L103.1,2.4L103.1,4.1L96.9,4.1L96.9,3.6L95.6,3.6L95.6,4.1L95.1,4.1L95.1,7.4L96,7.4L96,7.6L94.9,7.6L94.9,3.9L95.4,3.9L95.4,3.4L97.1,3.4L97.1,3.9L102.9,3.9L102.9,2.6L102.4,2.6L102.4,2.1L101.9,2.1L101.9,1.6L71.1,1.6L71.1,2.1L70.1,2.1L70.1,2.6L69.6,2.6L69.6,3.1L69.1,3.1L69.1,3.6L62.6,3.6L62.6,4.1L62.1,4.1L62.1,5.4L62.6,5.4L62.6,5.9L63.6,5.9L63.6,6.4L64.6,6.4z" stroke="none"/><path d="M90,9.1L90,8.9L93.1,8.9L93.1,9.4L94.1,9.4L94.1,9.9L99.1,9.9L99.1,10.4L100.1,10.4L100.1,12.6L99.6,12.6L99.6,13.1L99.1,13.1L99.1,13.6L77.1,13.6L77.1,14.1L60.9,14.1L60.9,13.6L59.9,13.6L59.9,13.1L58.4,13.1L58.4,12L58.6,12L58.6,12.9L60.1,12.9L60.1,13.4L61.1,13.4L61.1,13.9L76.9,13.9L76.9,13.4L98.9,13.4L98.9,12.9L99.4,12.9L99.4,12.4L99.9,12.4L99.9,10.6L98.9,10.6L98.9,10.1L93.9,10.1L93.9,9.6L92.9,9.6L92.9,9.1z" stroke="none"/><path d="M58.5,10.4L58.5,10.6L42.6,10.6L42.6,11.1L39.6,11.1L39.6,11.6L38.6,11.6L38.6,12.1L28.1,12.1L28.1,12.6L27.1,12.6L27.1,13.1L26.6,13.1L26.6,13.6L15.4,13.6L15.4,13.1L12.9,13.1L12.9,12.6L11.9,12.6L11.9,12L12.1,12L12.1,12.4L13.1,12.4L13.1,12.9L15.6,12.9L15.6,13.4L26.4,13.4L26.4,12.9L26.9,12.9L26.9,12.4L27.9,12.4L27.9,11.9L38.4,11.9L38.4,11.4L39.4,11.4L39.4,10.9L42.4,10.9L42.4,10.4z" stroke="none"/></svg>