<svg version="1.1" width="105" height="15" xmlns="http://www.w3.org/2000/svg"><path d="M102.1,5.9L102.1,7.5L101.9,7.5L101.9,6.1L94.1,6.1L94.1,7.4L94.5,7.4L94.5,7.6L93.9,7.6L93.9,6.1L90.9,6.1L90.9,5.6L90.4,5.6L90.4,5.1L87.4,5.1L87.4,4.6L85.5,4.6L85.5,4.4L87.6,4.4L87.6,4.9L90.6,4.9L90.6,5.4L91.1,5.4L91.1,5.9z" stroke="none"/><path d="M39.4,7.4L39.4,5.6L38.9,5.6L38.9,4.5L39.1,4.5L39.1,5.4L39.6,5.4L39.6,7.4L54.1,7.4L54.1,7.9L56.1,7.9L56.1,8.4L56.6,8.4L56.6,8.9L58.5,8.9L58.5,9.1L56.4,9.1L56.4,8.6L55.9,8.6L55.9,8.1L53.9,8.1L53.9,7.6L39.1,7.6L39.1,8.1L37.1,8.1L37.1,8.6L26.6,8.6L26.6,9.1L21,9.1L21,8.9L26.4,8.9L26.4,8.4L36.9,8.4L36.9,7.9L38.9,7.9L38.9,7.4z" stroke="none"/><path d="M30.9,3.9L30.9,2.9L31.5,2.9L31.5,3.1L31.1,3.1L31.1,4.1L15.6,4.1L15.6,4.6L13.1,4.6L13.1,5.6L9.4,5.6L9.4,5.1L3.1,5.1L3.1,6L2.9,6L2.9,4.9L9.6,4.9L9.6,5.4L12.9,5.4L12.9,4.4L15.4,4.4L15.4,4.1L14.9,4.1L14.9,3.6L13.4,3.6L13.4,3.1L12,3.1L12,2.9L13.6,2.9L13.6,3.4L15.1,3.4L15.1,3.9z" stroke="none"/><path d="M65.4,7.4L65.4,7.1L64.4,7.1L64.4,6.1L63.4,6.1L63.4,5.6L62.6,5.6L62.6,7.6L62.1,7.6L62.1,8.6L61.6,8.6L61.6,9.1L60.6,9.1L60.6,9.6L60.1,9.6L60.1,10.1L59.6,10.1L59.6,10.6L45.9,10.6L45.9,9.6L21.6,9.6L21.6,10.1L19.9,10.1L19.9,7.9L34.9,7.9L34.9,7.4L36,7.4L36,7.6L35.1,7.6L35.1,8.1L20.1,8.1L20.1,9.9L21.4,9.9L21.4,9.4L46.1,9.4L46.1,10.4L59.4,10.4L59.4,9.9L59.9,9.9L59.9,9.4L60.4,9.4L60.4,8.9L61.4,8.9L61.4,8.4L61.9,8.4L61.9,7.4L62.4,7.4L62.4,5.4L63.6,5.4L63.6,5.9L64.6,5.9L64.6,6.9L65.6,6.9L65.6,7.4L71.1,7.4L71.1,8.4L80.1,8.4L80.1,8.9L81,8.9L81,9.1L79.9,9.1L79.9,8.6L70.9,8.6L70.9,7.6L65.6,7.6L65.6,7.9L70.1,7.9L70.1,8.4L70.6,8.4L70.6,8.9L79.1,8.9L79.1,9.4L82.4,9.4L82.4,9L82.6,9L82.6,9.6L78.9,9.6L78.9,9.1L70.4,9.1L70.4,8.6L69.9,8.6L69.9,8.1L65.4,8.1L65.4,7.6L63.9,7.6L63.9,7.1L63.4,7.1L63.4,6.6L62.9,6.6L62.9,6L63.1,6L63.1,6.4L63.6,6.4L63.6,6.9L64.1,6.9L64.1,7.4z" stroke="none"/><path d="M22.4,4.9L22.4,4.6L16.1,4.6L16.1,5.1L14.6,5.1L14.6,5.6L13.6,5.6L13.6,6.1L6.1,6.1L6.1,7.5L5.9,7.5L5.9,5.9L13.4,5.9L13.4,5.4L14.4,5.4L14.4,4.9L15.9,4.9L15.9,4.4L22.6,4.4L22.6,4.9L29.9,4.9L29.9,4.4L31.5,4.4L31.5,4.6L30.1,4.6L30.1,5.1L22.6,5.1L22.6,5.4L32.9,5.4L32.9,4.9L34.4,4.9L34.4,4.4L34.9,4.4L34.9,3.4L35.9,3.4L35.9,3L36.1,3L36.1,3.6L35.1,3.6L35.1,4.6L34.6,4.6L34.6,5.1L33.1,5.1L33.1,5.6L22.4,5.6L22.4,5.1L20.6,5.1L20.6,5.6L19.6,5.6L19.6,6.1L18,6.1L18,5.9L19.4,5.9L19.4,5.4L20.4,5.4L20.4,4.9z" stroke="none"/><path d="M34.9,6.4L34.9,5.9L35.4,5.9L35.4,5.4L35.9,5.4L35.9,4.4L36.9,4.4L36.9,3.4L37.4,3.4L37.4,2.9L46.4,2.9L46.4,2.4L47.4,2.4L47.4,1.9L54.6,1.9L54.6,2.4L55.1,2.4L55.1,2.9L56.1,2.9L56.1,3.4L56.6,3.4L56.6,3.9L57.1,3.9L57.1,4.9L58.1,4.9L58.1,5.4L58.6,5.4L58.6,6L58.4,6L58.4,5.6L57.9,5.6L57.9,5.1L56.9,5.1L56.9,4.1L56.4,4.1L56.4,3.6L55.9,3.6L55.9,3.1L54.9,3.1L54.9,2.6L54.4,2.6L54.4,2.1L47.6,2.1L47.6,2.6L46.6,2.6L46.6,3.1L37.6,3.1L37.6,3.6L37.1,3.6L37.1,4.6L36.1,4.6L36.1,5.6L35.6,5.6L35.6,6.1L35.1,6.1L35.1,6.4L36.9,6.4L36.9,5.4L37.4,5.4L37.4,3.9L37.9,3.9L37.9,3.4L47.6,3.4L47.6,3.9L51.1,3.9L51.1,4.9L55.1,4.9L55.1,5.4L57.6,5.4L57.6,5.9L58.1,5.9L58.1,6.9L58.6,6.9L58.6,7.4L59.6,7.4L59.6,9.6L59.1,9.6L59.1,10.1L52.9,10.1L52.9,9.1L49.5,9.1L49.5,8.9L53.1,8.9L53.1,9.9L58.9,9.9L58.9,9.4L59.4,9.4L59.4,7.6L58.4,7.6L58.4,7.1L57.9,7.1L57.9,6.1L57.4,6.1L57.4,5.6L54.9,5.6L54.9,5.1L50.9,5.1L50.9,4.1L47.4,4.1L47.4,3.6L38.1,3.6L38.1,4.1L37.6,4.1L37.6,5.6L37.1,5.6L37.1,6.6L35.1,6.6L35.1,7.1L14.6,7.1L14.6,7.6L14.1,7.6L14.1,9.1L13.5,9.1L13.5,8.9L13.9,8.9L13.9,7.4L14.4,7.4L14.4,6.9L34.9,6.9L34.9,6.6L21.4,6.6L21.4,6.1L21,6.1L21,5.9L21.6,5.9L21.6,6.4z" stroke="none"/><path d="M61.5,3.1L61.5,2.9L63,2.9L63,3.1z" stroke="none"/><path d="M84,12.1L84,11.9L84.9,11.9L84.9,10.9L85.4,10.9L85.4,10.5L85.6,10.5L85.6,11.1L85.1,11.1L85.1,12.1z" stroke="none"/><path d="M97.5,8.9L97.5,9.1L94.5,9.1L94.5,8.9z" stroke="none"/><path d="M67.5,10.6L67.5,10.4L68.1,10.4L68.1,11.4L70.4,11.4L70.4,10.4L72,10.4L72,10.6L70.6,10.6L70.6,11.6L67.9,11.6L67.9,10.6z" stroke="none"/><path d="M6.1,10.5L5.9,10.5L5.9,9.1L5.4,9.1L5.4,8.1L4.9,8.1L4.9,6.1L4.5,6.1L4.5,5.9L5.1,5.9L5.1,7.9L5.6,7.9L5.6,8.9L6.1,8.9z" stroke="none"/><path d="M12,4.4L12,4.6L2.6,4.6L2.6,5.6L2.1,5.6L2.1,8.4L3.1,8.4L3.1,9.4L4.1,9.4L4.1,10.4L4.6,10.4L4.6,10.9L5.6,10.9L5.6,11.4L6.4,11.4L6.4,10.9L6.9,10.9L6.9,7.9L7.4,7.9L7.4,7.5L7.6,7.5L7.6,8.1L7.1,8.1L7.1,11.1L6.6,11.1L6.6,11.6L5.4,11.6L5.4,11.1L4.4,11.1L4.4,10.6L3.9,10.6L3.9,9.6L2.9,9.6L2.9,8.6L1.9,8.6L1.9,5.4L2.4,5.4L2.4,4.4z" stroke="none"/><path d="M37.5,12.1L37.5,11.9L43.4,11.9L43.4,11.4L43.9,11.4L43.9,10.4L45,10.4L45,10.6L44.1,10.6L44.1,11.6L43.6,11.6L43.6,12.1z" stroke="none"/><path d="M48,3.1L48,2.9L53.6,2.9L53.6,3.4L54.1,3.4L54.1,3.9L54.6,3.9L54.6,4.4L55.5,4.4L55.5,4.6L54.4,4.6L54.4,4.1L53.9,4.1L53.9,3.6L53.4,3.6L53.4,3.1z" stroke="none"/><path d="M2.9,10.5L3.1,10.5L3.1,11.4L4.1,11.4L4.1,11.9L6.9,11.9L6.9,11.4L8.4,11.4L8.4,9.9L9.4,9.9L9.4,9.4L9.9,9.4L9.9,7.9L10.4,7.9L10.4,7.5L10.6,7.5L10.6,8.1L10.1,8.1L10.1,9.6L9.6,9.6L9.6,10.1L8.6,10.1L8.6,11.6L7.1,11.6L7.1,12.1L3.9,12.1L3.9,11.6L2.9,11.6z" stroke="none"/><path d="M64.5,12.1L64.5,11.9L72.9,11.9L72.9,11.4L73.4,11.4L73.4,10.4L75,10.4L75,10.6L73.6,10.6L73.6,11.6L73.1,11.6L73.1,12.1z" stroke="none"/><path d="M81,11.9L81,12.1L80.4,12.1L80.4,11.1L79.9,11.1L79.9,10.1L76.9,10.1L76.9,9.6L71.1,9.6L71.1,10.1L69.1,10.1L69.1,10.5L68.9,10.5L68.9,9.9L70.9,9.9L70.9,9.4L77.1,9.4L77.1,9.9L80.1,9.9L80.1,10.9L80.6,10.9L80.6,11.9z" stroke="none"/><path d="M76.5,10.6L76.5,10.4L79.6,10.4L79.6,11.4L80.1,11.4L80.1,12.4L80.6,12.4L80.6,12.9L84.4,12.9L84.4,12.4L85.9,12.4L85.9,11.4L86.9,11.4L86.9,10.4L87.9,10.4L87.9,9.9L88.9,9.9L88.9,9.4L89.9,9.4L89.9,9L90.1,9L90.1,9.6L89.1,9.6L89.1,10.1L88.1,10.1L88.1,10.6L87.1,10.6L87.1,11.6L86.1,11.6L86.1,12.6L84.6,12.6L84.6,13.1L80.4,13.1L80.4,12.6L79.9,12.6L79.9,11.6L79.4,11.6L79.4,10.6z" stroke="none"/><path d="M30,2.9L30,3.1L13.9,3.1L13.9,2.6L13.4,2.6L13.4,2.1L3.1,2.1L3.1,2.6L2.6,2.6L2.6,3.6L2.1,3.6L2.1,5.1L1.6,5.1L1.6,12.4L7.4,12.4L7.4,11.9L8.9,11.9L8.9,11.4L9.4,11.4L9.4,10.9L9.9,10.9L9.9,10.4L10.4,10.4L10.4,9.4L10.9,9.4L10.9,7.9L12.9,7.9L12.9,6.9L13.4,6.9L13.4,6.4L15.4,6.4L15.4,5.9L16.5,5.9L16.5,6.1L15.6,6.1L15.6,6.6L13.6,6.6L13.6,7.1L13.1,7.1L13.1,8.1L11.1,8.1L11.1,9.6L10.6,9.6L10.6,10.6L10.1,10.6L10.1,11.1L9.6,11.1L9.6,11.6L9.1,11.6L9.1,12.1L7.6,12.1L7.6,12.6L1.4,12.6L1.4,4.9L1.9,4.9L1.9,3.4L2.4,3.4L2.4,2.4L2.9,2.4L2.9,1.9L13.6,1.9L13.6,2.4L14.1,2.4L14.1,2.9z" stroke="none"/><path d="M102,11.9L102,12.1L98.4,12.1L98.4,11.6L97.9,11.6L97.9,11.1L94.9,11.1L94.9,10.6L93.4,10.6L93.4,10.1L91.9,10.1L91.9,9.6L91.4,9.6L91.4,8.6L90.4,8.6L90.4,8.1L88.4,8.1L88.4,7.5L88.6,7.5L88.6,7.9L90.6,7.9L90.6,8.4L91.6,8.4L91.6,9.4L92.1,9.4L92.1,9.9L93.6,9.9L93.6,10.4L95.1,10.4L95.1,10.9L98.1,10.9L98.1,11.4L98.6,11.4L98.6,11.9z" stroke="none"/><path d="M82.5,4.6L82.5,4.4L82.9,4.4L82.9,3.9L84.9,3.9L84.9,3.4L97.1,3.4L97.1,3.9L98.4,3.9L98.4,2.9L99,2.9L99,3.1L98.6,3.1L98.6,4.1L96.9,4.1L96.9,3.6L85.1,3.6L85.1,4.1L83.1,4.1L83.1,4.6z" stroke="none"/><path d="M61.5,10.4L61.5,10.6L60.6,10.6L60.6,11.1L46.1,11.1L46.1,11.6L45.6,11.6L45.6,12.1L45,12.1L45,11.9L45.4,11.9L45.4,11.4L45.9,11.4L45.9,10.9L60.4,10.9L60.4,10.4z" stroke="none"/><path d="M12,9.1L12,8.9L12.6,8.9L12.6,9.9L17.4,9.9L17.4,9.4L19.1,9.4L19.1,9.9L19.6,9.9L19.6,10.4L28.5,10.4L28.5,10.6L19.4,10.6L19.4,10.1L18.9,10.1L18.9,9.6L17.6,9.6L17.6,10.1L12.4,10.1L12.4,9.1z" stroke="none"/><path d="M79.5,3.1L79.5,2.9L97.5,2.9L97.5,3.1z" stroke="none"/><path d="M36,10.4L36,10.6L29.6,10.6L29.6,11.1L29.1,11.1L29.1,11.6L17.9,11.6L17.9,10.5L18.1,10.5L18.1,11.4L28.9,11.4L28.9,10.9L29.4,10.9L29.4,10.4z" stroke="none"/><path d="M90,5.9L90,6.1L71.9,6.1L71.9,4.5L72.1,4.5L72.1,5.9z" stroke="none"/><path d="M81,10.6L81,10.4L82.9,10.4L82.9,9.9L83.4,9.9L83.4,9.4L83.9,9.4L83.9,8.9L87.4,8.9L87.4,6.9L87.9,6.9L87.9,6.4L89.6,6.4L89.6,6.9L90.6,6.9L90.6,7.4L91.1,7.4L91.1,7.9L92.1,7.9L92.1,8.4L92.6,8.4L92.6,8.9L93.1,8.9L93.1,9.4L94.1,9.4L94.1,9.9L99.9,9.9L99.9,9.4L100.4,9.4L100.4,8.9L102,8.9L102,9.1L100.6,9.1L100.6,9.6L100.1,9.6L100.1,10.1L93.9,10.1L93.9,9.6L92.9,9.6L92.9,9.1L92.4,9.1L92.4,8.6L91.9,8.6L91.9,8.1L90.9,8.1L90.9,7.6L90.4,7.6L90.4,7.1L89.4,7.1L89.4,6.6L88.1,6.6L88.1,7.1L87.6,7.1L87.6,9.1L84.1,9.1L84.1,9.6L83.6,9.6L83.6,10.1L83.1,10.1L83.1,10.6z" stroke="none"/><path d="M69,8.9L69,9.1L63.1,9.1L63.1,10.6L62.6,10.6L62.6,11.1L62.1,11.1L62.1,11.6L48.1,11.6L48.1,12L47.9,12L47.9,11.4L61.9,11.4L61.9,10.9L62.4,10.9L62.4,10.4L62.9,10.4L62.9,8.9z" stroke="none"/><path d="M97.5,11.9L97.5,12.1L87.6,12.1L87.6,12.6L86.6,12.6L86.6,13.1L86.1,13.1L86.1,13.6L79.9,13.6L79.9,13.1L77.9,13.1L77.9,12.6L74.9,12.6L74.9,12L75.1,12L75.1,12.4L78.1,12.4L78.1,12.9L80.1,12.9L80.1,13.4L85.9,13.4L85.9,12.9L86.4,12.9L86.4,12.4L87.4,12.4L87.4,11.9z" stroke="none"/><path d="M33,11.9L33,12.1L9.6,12.1L9.6,12.6L8.6,12.6L8.6,13.1L0.9,13.1L0.9,2.4L1.4,2.4L1.4,1.9L1.9,1.9L1.9,1.4L68.1,1.4L68.1,3.4L68.6,3.4L68.6,3.9L69.1,3.9L69.1,4.9L69.6,4.9L69.6,5.4L71.6,5.4L71.6,7.4L72,7.4L72,7.6L71.4,7.6L71.4,5.6L69.4,5.6L69.4,5.1L68.9,5.1L68.9,4.1L68.4,4.1L68.4,3.6L67.9,3.6L67.9,1.6L2.1,1.6L2.1,2.1L1.6,2.1L1.6,2.6L1.1,2.6L1.1,12.9L8.4,12.9L8.4,12.4L9.4,12.4L9.4,11.9z" stroke="none"/></svg>