<svg version="1.1" width="105" height="15" xmlns="http://www.w3.org/2000/svg"><path d="M26.4,10.9L26.4,10.4L26.9,10.4L26.9,9.9L27.9,9.9L27.9,8.9L28.5,8.9L28.5,9.1L28.1,9.1L28.1,10.1L27.1,10.1L27.1,10.6L26.6,10.6L26.6,11.1L26.1,11.1L26.1,11.4L31.6,11.4L31.6,11.9L33,11.9L33,12.1L31.4,12.1L31.4,11.6L25.9,11.6L25.9,11.1L24.6,11.1L24.6,11.6L17.1,11.6L17.1,12.1L16.5,12.1L16.5,11.9L16.9,11.9L16.9,11.4L24.4,11.4L24.4,10.9z" stroke="none"/><path d="M67.9,5.9L67.9,5.4L68.4,5.4L68.4,4.9L80.6,4.9L80.6,5.4L83.9,5.4L83.9,4.9L84.4,4.9L84.4,4.4L87,4.4L87,4.6L84.6,4.6L84.6,5.1L84.1,5.1L84.1,5.6L80.4,5.6L80.4,5.1L68.6,5.1L68.6,5.6L68.1,5.6L68.1,6.1L67.1,6.1L67.1,6.6L51.1,6.6L51.1,7.5L50.9,7.5L50.9,6.4L66.9,6.4L66.9,6.1L63,6.1L63,5.9z" stroke="none"/><path d="M43.4,7.4L43.4,6.4L43.9,6.4L43.9,5.9L44.4,5.9L44.4,4.9L44.9,4.9L44.9,4.5L45.1,4.5L45.1,5.1L44.6,5.1L44.6,6.1L44.1,6.1L44.1,6.6L43.6,6.6L43.6,7.6L41.1,7.6L41.1,7.9L46.6,7.9L46.6,8.9L48,8.9L48,9.1L46.4,9.1L46.4,8.1L40.9,8.1L40.9,7.6L39.6,7.6L39.6,8.6L37.6,8.6L37.6,9.1L30,9.1L30,8.9L37.4,8.9L37.4,8.4L39.4,8.4L39.4,7.4z" stroke="none"/><path d="M26.4,5.4L26.4,4.9L30.9,4.9L30.9,4.4L31.4,4.4L31.4,3.9L32.4,3.9L32.4,3.4L37.1,3.4L37.1,3.9L37.6,3.9L37.6,4.5L37.4,4.5L37.4,4.1L36.9,4.1L36.9,3.6L32.6,3.6L32.6,4.1L31.6,4.1L31.6,4.6L31.1,4.6L31.1,5.1L26.6,5.1L26.6,5.4L33.6,5.4L33.6,5.9L36,5.9L36,6.1L33.4,6.1L33.4,5.6L26.6,5.6L26.6,6.9L27.1,6.9L27.1,7.5L26.9,7.5L26.9,7.1L26.4,7.1L26.4,5.6L12.4,5.6L12.4,5.1L5.9,5.1L5.9,4.5L6.1,4.5L6.1,4.9L12.6,4.9L12.6,5.4z" stroke="none"/><path d="M73.4,8.9L73.4,8.6L71.1,8.6L71.1,9.1L70.5,9.1L70.5,8.9L70.9,8.9L70.9,8.4L73.6,8.4L73.6,8.9L88.5,8.9L88.5,9.1L73.6,9.1L73.6,10.6L73.1,10.6L73.1,11.1L70.4,11.1L70.4,10.6L69.9,10.6L69.9,10.1L69.4,10.1L69.4,9.6L64.4,9.6L64.4,9L64.6,9L64.6,9.4L69.6,9.4L69.6,9.9L70.1,9.9L70.1,10.4L70.6,10.4L70.6,10.9L72.9,10.9L72.9,10.4L73.4,10.4L73.4,9.1L73.1,9.1L73.1,10.1L72.6,10.1L72.6,10.6L72,10.6L72,10.4L72.4,10.4L72.4,9.9L72.9,9.9L72.9,8.9z" stroke="none"/><path d="M38.9,6.4L38.9,5.9L40.4,5.9L40.4,4.9L40.9,4.9L40.9,3.9L41.4,3.9L41.4,3.4L43.9,3.4L43.9,2.9L53.1,2.9L53.1,5.1L51.6,5.1L51.6,5.6L51.1,5.6L51.1,6.1L50.6,6.1L50.6,7.1L50.1,7.1L50.1,9.4L50.6,9.4L50.6,9.9L55.4,9.9L55.4,9.4L56.4,9.4L56.4,8.9L57,8.9L57,9.1L56.6,9.1L56.6,9.6L55.6,9.6L55.6,10.1L50.4,10.1L50.4,9.6L49.9,9.6L49.9,6.9L50.4,6.9L50.4,5.9L50.9,5.9L50.9,5.4L51.4,5.4L51.4,4.9L52.9,4.9L52.9,3.1L44.1,3.1L44.1,3.6L41.6,3.6L41.6,4.1L41.1,4.1L41.1,5.1L40.6,5.1L40.6,6.1L39.1,6.1L39.1,6.4L40.9,6.4L40.9,5.4L41.4,5.4L41.4,4.4L42.4,4.4L42.4,3.9L44.4,3.9L44.4,3.4L52.1,3.4L52.1,3.9L52.6,3.9L52.6,4.5L52.4,4.5L52.4,4.1L51.9,4.1L51.9,3.6L44.6,3.6L44.6,4.1L42.6,4.1L42.6,4.6L41.6,4.6L41.6,5.6L41.1,5.6L41.1,6.6L39.1,6.6L39.1,7.1L37.6,7.1L37.6,8.1L27.6,8.1L27.6,8.6L26.4,8.6L26.4,8.1L25.9,8.1L25.9,7.6L25.4,7.6L25.4,7.1L14.4,7.1L14.4,6.1L12,6.1L12,5.9L14.6,5.9L14.6,6.9L25.6,6.9L25.6,7.4L26.1,7.4L26.1,7.9L26.6,7.9L26.6,8.4L27.4,8.4L27.4,7.9L37.4,7.9L37.4,6.9L38.9,6.9L38.9,6.6L36.6,6.6L36.6,7.1L35.6,7.1L35.6,7.6L34.5,7.6L34.5,7.4L35.4,7.4L35.4,6.9L36.4,6.9L36.4,6.4z" stroke="none"/><path d="M76.5,10.6L76.5,10.4L78,10.4L78,10.6z" stroke="none"/><path d="M70.5,7.4L70.5,7.6L69.9,7.6L69.9,6.6L68.9,6.6L68.9,6L69.1,6L69.1,6.4L70.1,6.4L70.1,7.4z" stroke="none"/><path d="M79.5,3.1L79.5,2.9L80.6,2.9L80.6,3.9L81.1,3.9L81.1,4.5L80.9,4.5L80.9,4.1L80.4,4.1L80.4,3.1z" stroke="none"/><path d="M94.5,10.4L94.5,10.6L93.4,10.6L93.4,7.4L94.5,7.4L94.5,7.6L93.6,7.6L93.6,10.4z" stroke="none"/><path d="M98.9,6L99.1,6L99.1,8.1L98.1,8.1L98.1,8.6L97.1,8.6L97.1,9.1L94.5,9.1L94.5,8.9L96.9,8.9L96.9,8.4L97.9,8.4L97.9,7.9L98.9,7.9z" stroke="none"/><path d="M52.5,7.6L52.5,7.4L58.5,7.4L58.5,7.6z" stroke="none"/><path d="M28.5,2.9L28.5,3.1L22.5,3.1L22.5,2.9z" stroke="none"/><path d="M2.9,3L3.1,3L3.1,4.4L3.6,4.4L3.6,5.4L4.1,5.4L4.1,5.9L5.1,5.9L5.1,6.4L5.6,6.4L5.6,6.9L7.4,6.9L7.4,6.4L8.9,6.4L8.9,6L9.1,6L9.1,6.6L7.6,6.6L7.6,7.1L5.4,7.1L5.4,6.6L4.9,6.6L4.9,6.1L3.9,6.1L3.9,5.6L3.4,5.6L3.4,4.6L2.9,4.6z" stroke="none"/><path d="M102,11.9L102,12.1L94.5,12.1L94.5,11.9z" stroke="none"/><path d="M85.5,6.1L85.5,5.9L93,5.9L93,6.1z" stroke="none"/><path d="M9,7.4L9,7.6L7.6,7.6L7.6,8.1L7.1,8.1L7.1,9.6L6.6,9.6L6.6,10.1L4.6,10.1L4.6,11.6L3.1,11.6L3.1,12L2.9,12L2.9,11.4L4.4,11.4L4.4,9.9L6.4,9.9L6.4,9.4L6.9,9.4L6.9,7.9L7.4,7.9L7.4,7.4z" stroke="none"/><path d="M69.1,12L68.9,12L68.9,11.6L67.4,11.6L67.4,11.1L66.4,11.1L66.4,10.6L63.4,10.6L63.4,10.1L61.9,10.1L61.9,9.1L61.5,9.1L61.5,8.9L62.1,8.9L62.1,9.9L63.6,9.9L63.6,10.4L66.6,10.4L66.6,10.9L67.6,10.9L67.6,11.4L69.1,11.4z" stroke="none"/><path d="M100.5,10.6L100.5,10.4L100.9,10.4L100.9,9.4L102.6,9.4L102.6,9.9L103.1,9.9L103.1,13.1L93.4,13.1L93.4,12.6L91.4,12.6L91.4,12L91.6,12L91.6,12.4L93.6,12.4L93.6,12.9L102.9,12.9L102.9,10.1L102.4,10.1L102.4,9.6L101.1,9.6L101.1,10.6z" stroke="none"/><path d="M40.5,11.9L40.5,12.1L38.1,12.1L38.1,12.6L36.6,12.6L36.6,13.1L15.4,13.1L15.4,11.4L15.9,11.4L15.9,10.9L23.4,10.9L23.4,10.4L24,10.4L24,10.6L23.6,10.6L23.6,11.1L16.1,11.1L16.1,11.6L15.6,11.6L15.6,12.9L36.4,12.9L36.4,12.4L37.9,12.4L37.9,11.9z" stroke="none"/><path d="M73.5,12.1L73.5,11.9L88.9,11.9L88.9,10.9L89.4,10.9L89.4,9.9L90.4,9.9L90.4,9.4L91.4,9.4L91.4,9L91.6,9L91.6,9.6L90.6,9.6L90.6,10.1L89.6,10.1L89.6,11.1L89.1,11.1L89.1,12.1z" stroke="none"/><path d="M41.9,10.5L42.1,10.5L42.1,11.6L41.6,11.6L41.6,12.6L41.1,12.6L41.1,13.1L37.1,13.1L37.1,13.6L14.9,13.6L14.9,10.9L15.4,10.9L15.4,10.4L20.9,10.4L20.9,9.4L21.4,9.4L21.4,8.9L22.5,8.9L22.5,9.1L21.6,9.1L21.6,9.6L21.1,9.6L21.1,10.6L15.6,10.6L15.6,11.1L15.1,11.1L15.1,13.4L36.9,13.4L36.9,12.9L40.9,12.9L40.9,12.4L41.4,12.4L41.4,11.4L41.9,11.4z" stroke="none"/><path d="M48,12.1L48,11.9L62.1,11.9L62.1,12.4L62.6,12.4L62.6,12.9L69.9,12.9L69.9,11.1L68.9,11.1L68.9,10.5L69.1,10.5L69.1,10.9L70.1,10.9L70.1,13.1L62.4,13.1L62.4,12.6L61.9,12.6L61.9,12.1z" stroke="none"/><path d="M102,10.4L102,10.6L101.6,10.6L101.6,11.1L101.1,11.1L101.1,11.6L99.9,11.6L99.9,11.1L99.4,11.1L99.4,6.4L99.9,6.4L99.9,5.6L99.4,5.6L99.4,5.1L87.6,5.1L87.6,5.6L85.9,5.6L85.9,5.1L85.1,5.1L85.1,5.6L84.6,5.6L84.6,6.1L79.5,6.1L79.5,5.9L84.4,5.9L84.4,5.4L84.9,5.4L84.9,4.9L86.1,4.9L86.1,5.4L87.4,5.4L87.4,4.9L99.6,4.9L99.6,5.4L100.1,5.4L100.1,6.6L99.6,6.6L99.6,10.9L100.1,10.9L100.1,11.4L100.9,11.4L100.9,10.9L101.4,10.9L101.4,10.4z" stroke="none"/><path d="M63.1,12L62.9,12L62.9,11.6L48.4,11.6L48.4,11.1L47.1,11.1L47.1,12.4L47.6,12.4L47.6,12.9L62.1,12.9L62.1,13.4L88.9,13.4L88.9,12.9L89.4,12.9L89.4,11.4L90.4,11.4L90.4,10.9L91.4,10.9L91.4,10.4L91.9,10.4L91.9,9.4L92.4,9.4L92.4,8.6L91.9,8.6L91.9,8.1L91.1,8.1L91.1,8.6L90.1,8.6L90.1,9L89.9,9L89.9,8.4L90.9,8.4L90.9,7.9L92.1,7.9L92.1,8.4L92.6,8.4L92.6,9.6L92.1,9.6L92.1,10.6L91.6,10.6L91.6,11.1L90.6,11.1L90.6,11.6L89.6,11.6L89.6,13.1L89.1,13.1L89.1,13.6L61.9,13.6L61.9,13.1L47.4,13.1L47.4,12.6L46.9,12.6L46.9,10.9L48.6,10.9L48.6,11.4L63.1,11.4z" stroke="none"/><path d="M36,12.1L36,11.9L37.4,11.9L37.4,10.9L38.4,10.9L38.4,10.4L40.4,10.4L40.4,9.4L42.6,9.4L42.6,9.9L43.1,9.9L43.1,11.1L42.6,11.1L42.6,12.1L42.1,12.1L42.1,13.6L38.1,13.6L38.1,14.1L11.4,14.1L11.4,13.1L7.4,13.1L7.4,12.6L6.4,12.6L6.4,12.1L6,12.1L6,11.9L6.6,11.9L6.6,12.4L7.6,12.4L7.6,12.9L11.6,12.9L11.6,13.9L37.9,13.9L37.9,13.4L41.9,13.4L41.9,11.9L42.4,11.9L42.4,10.9L42.9,10.9L42.9,10.1L42.4,10.1L42.4,9.6L40.6,9.6L40.6,10.6L38.6,10.6L38.6,11.1L37.6,11.1L37.6,12.1z" stroke="none"/><path d="M33,4.6L33,4.4L35.6,4.4L35.6,4.9L36.6,4.9L36.6,5.4L38.4,5.4L38.4,4.9L38.9,4.9L38.9,4.4L39.4,4.4L39.4,3.9L39.9,3.9L39.9,3.4L40.4,3.4L40.4,2.9L42.4,2.9L42.4,2.4L60.1,2.4L60.1,2.9L63,2.9L63,3.1L59.9,3.1L59.9,2.6L42.6,2.6L42.6,3.1L40.6,3.1L40.6,3.6L40.1,3.6L40.1,4.1L39.6,4.1L39.6,4.6L39.1,4.6L39.1,5.1L38.6,5.1L38.6,5.6L36.4,5.6L36.4,5.1L35.4,5.1L35.4,4.6z" stroke="none"/><path d="M16.5,8.9L16.5,9.1L7.6,9.1L7.6,10.6L5.1,10.6L5.1,12.4L5.6,12.4L5.6,12.9L7.1,12.9L7.1,13.4L10.1,13.4L10.1,13.9L10.6,13.9L10.6,14.4L41.9,14.4L41.9,13.9L42.4,13.9L42.4,12.9L42.9,12.9L42.9,11.9L43.4,11.9L43.4,10.9L46.4,10.9L46.4,10.4L56.4,10.4L56.4,9.9L57.9,9.9L57.9,8.6L57.4,8.6L57.4,8.1L56.6,8.1L56.6,8.6L55.1,8.6L55.1,9.1L51,9.1L51,8.9L54.9,8.9L54.9,8.4L56.4,8.4L56.4,7.9L57.6,7.9L57.6,8.4L58.1,8.4L58.1,10.1L56.6,10.1L56.6,10.6L46.6,10.6L46.6,11.1L43.6,11.1L43.6,12.1L43.1,12.1L43.1,13.1L42.6,13.1L42.6,14.1L42.1,14.1L42.1,14.6L10.4,14.6L10.4,14.1L9.9,14.1L9.9,13.6L6.9,13.6L6.9,13.1L5.4,13.1L5.4,12.6L4.9,12.6L4.9,10.4L7.4,10.4L7.4,8.9z" stroke="none"/><path d="M60,4.6L60,4.4L77.9,4.4L77.9,3.9L78.4,3.9L78.4,1.9L100.6,1.9L100.6,2.9L101.1,2.9L101.1,4.4L102,4.4L102,4.6L100.9,4.6L100.9,3.1L100.4,3.1L100.4,2.1L78.6,2.1L78.6,4.1L78.1,4.1L78.1,4.6z" stroke="none"/><path d="M6.1,6L5.9,6L5.9,5.6L5.4,5.6L5.4,5.1L4.9,5.1L4.9,3.9L5.4,3.9L5.4,3.4L20.9,3.4L20.9,2.9L21.4,2.9L21.4,2.4L21.9,2.4L21.9,1.9L63.6,1.9L63.6,2.4L64.1,2.4L64.1,3.6L63.6,3.6L63.6,4.1L60.4,4.1L60.4,3.6L57.1,3.6L57.1,4.1L55.6,4.1L55.6,4.5L55.4,4.5L55.4,3.9L56.9,3.9L56.9,3.4L60.6,3.4L60.6,3.9L63.4,3.9L63.4,3.4L63.9,3.4L63.9,2.6L63.4,2.6L63.4,2.1L22.1,2.1L22.1,2.6L21.6,2.6L21.6,3.1L21.1,3.1L21.1,3.6L5.6,3.6L5.6,4.1L5.1,4.1L5.1,4.9L5.6,4.9L5.6,5.4L6.1,5.4z" stroke="none"/></svg>