<svg version="1.1" width="105" height="15" xmlns="http://www.w3.org/2000/svg"><path d="M76.4,4.4L76.4,3.9L79.9,3.9L79.9,3.4L81.4,3.4L81.4,2.9L84,2.9L84,3.1L81.6,3.1L81.6,3.6L80.1,3.6L80.1,4.1L76.6,4.1L76.6,4.4L78,4.4L78,4.6L70.1,4.6L70.1,5.1L69.6,5.1L69.6,5.6L69.1,5.6L69.1,6L68.9,6L68.9,5.4L69.4,5.4L69.4,4.9L69.9,4.9L69.9,4.4z" stroke="none"/><path d="M78.9,7.4L78.9,6.6L78.4,6.6L78.4,6.1L78,6.1L78,5.9L78.6,5.9L78.6,6.4L79.1,6.4L79.1,7.4L88.5,7.4L88.5,7.6L71.1,7.6L71.1,8.6L70.6,8.6L70.6,9L70.4,9L70.4,8.4L70.9,8.4L70.9,7.4z" stroke="none"/><path d="M27.9,9.4L27.9,8.9L39.9,8.9L39.9,7.9L40.4,7.9L40.4,7.5L40.6,7.5L40.6,8.1L40.1,8.1L40.1,9.1L28.1,9.1L28.1,9.4L35.1,9.4L35.1,9.9L36.1,9.9L36.1,10.4L39,10.4L39,10.6L35.9,10.6L35.9,10.1L34.9,10.1L34.9,9.6L8.1,9.6L8.1,10.6L4.5,10.6L4.5,10.4L7.9,10.4L7.9,9.4z" stroke="none"/><path d="M42.9,4.4L42.9,2.4L50.4,2.4L50.4,1.9L69.6,1.9L69.6,2.4L70.1,2.4L70.1,2.9L70.5,2.9L70.5,3.1L69.9,3.1L69.9,2.6L69.4,2.6L69.4,2.1L50.6,2.1L50.6,2.6L43.1,2.6L43.1,4.4L43.4,4.4L43.4,3.9L43.9,3.9L43.9,2.9L45,2.9L45,3.1L44.1,3.1L44.1,4.1L43.6,4.1L43.6,4.6L43.1,4.6L43.1,5.1L36.1,5.1L36.1,5.6L35.6,5.6L35.6,6.1L34.6,6.1L34.6,6.6L25.4,6.6L25.4,6L25.6,6L25.6,6.4L34.4,6.4L34.4,5.9L35.4,5.9L35.4,5.4L35.9,5.4L35.9,4.9L42.9,4.9L42.9,4.6L35.6,4.6L35.6,5.1L35.1,5.1L35.1,5.6L32.6,5.6L32.6,6.1L31.5,6.1L31.5,5.9L32.4,5.9L32.4,5.4L34.9,5.4L34.9,4.9L35.4,4.9L35.4,4.4z" stroke="none"/><path d="M71.9,8.9L71.9,8.4L81.9,8.4L81.9,7.9L87.6,7.9L87.6,8.4L90.1,8.4L90.1,9.4L90.6,9.4L90.6,9.9L93.9,9.9L93.9,9.4L96.1,9.4L96.1,9.9L100.1,9.9L100.1,10.4L100.5,10.4L100.5,10.6L99.9,10.6L99.9,10.1L95.9,10.1L95.9,9.6L94.1,9.6L94.1,10.1L90.4,10.1L90.4,9.6L89.9,9.6L89.9,8.6L87.4,8.6L87.4,8.1L82.1,8.1L82.1,8.6L72.1,8.6L72.1,8.9L75.1,8.9L75.1,9.9L75.6,9.9L75.6,10.4L76.5,10.4L76.5,10.6L75.4,10.6L75.4,10.1L74.9,10.1L74.9,9.1L72.1,9.1L72.1,10.1L71.6,10.1L71.6,10.6L54.6,10.6L54.6,11.1L53.6,11.1L53.6,11.6L48.9,11.6L48.9,10.6L48.4,10.6L48.4,10.1L47.9,10.1L47.9,9.6L47.4,9.6L47.4,7.6L46.9,7.6L46.9,4.9L48.6,4.9L48.6,5.4L50.6,5.4L50.6,5.9L51,5.9L51,6.1L50.4,6.1L50.4,5.6L48.4,5.6L48.4,5.1L47.1,5.1L47.1,7.4L47.6,7.4L47.6,9.4L48.1,9.4L48.1,9.9L48.6,9.9L48.6,10.4L49.1,10.4L49.1,11.4L53.4,11.4L53.4,10.9L54.4,10.9L54.4,10.4L71.4,10.4L71.4,9.9L71.9,9.9L71.9,9.1L71.6,9.1L71.6,9.6L71.1,9.6L71.1,10.1L58.9,10.1L58.9,9.1L57,9.1L57,8.9L59.1,8.9L59.1,9.9L70.9,9.9L70.9,9.4L71.4,9.4L71.4,8.9z" stroke="none"/><path d="M56.4,7.4L56.4,6.9L62.1,6.9L62.1,7.9L62.6,7.9L62.6,8.4L63.1,8.4L63.1,8.9L64.5,8.9L64.5,9.1L62.9,9.1L62.9,8.6L62.4,8.6L62.4,8.1L61.9,8.1L61.9,7.1L56.6,7.1L56.6,7.4L61.5,7.4L61.5,7.6L56.6,7.6L56.6,8.6L56.1,8.6L56.1,9.1L55.6,9.1L55.6,9.6L55.1,9.6L55.1,10.1L53.6,10.1L53.6,10.6L52.5,10.6L52.5,10.4L53.4,10.4L53.4,9.9L54.9,9.9L54.9,9.4L55.4,9.4L55.4,8.9L55.9,8.9L55.9,8.4L56.4,8.4L56.4,7.6L47.9,7.6L47.9,6L48.1,6L48.1,7.4z" stroke="none"/><path d="M62.9,6L63.1,6L63.1,7.5L62.9,7.5z" stroke="none"/><path d="M85.5,10.4L85.5,10.6L84.9,10.6L84.9,9.6L83.9,9.6L83.9,9L84.1,9L84.1,9.4L85.1,9.4L85.1,10.4z" stroke="none"/><path d="M91.4,6L91.6,6L91.6,6.6L91.1,6.6L91.1,7.1L90.6,7.1L90.6,8.4L91.1,8.4L91.1,8.9L91.5,8.9L91.5,9.1L90.9,9.1L90.9,8.6L90.4,8.6L90.4,6.9L90.9,6.9L90.9,6.4L91.4,6.4z" stroke="none"/><path d="M7.4,3L7.6,3L7.6,6L7.4,6z" stroke="none"/><path d="M18,4.4L18,4.6L13.5,4.6L13.5,4.4z" stroke="none"/><path d="M94.5,2.9L94.5,3.1L91.1,3.1L91.1,4.1L90.1,4.1L90.1,5.6L89.1,5.6L89.1,6.1L88.5,6.1L88.5,5.9L88.9,5.9L88.9,5.4L89.9,5.4L89.9,3.9L90.9,3.9L90.9,2.9z" stroke="none"/><path d="M24.1,7.5L23.9,7.5L23.9,7.1L22.9,7.1L22.9,6.1L20.4,6.1L20.4,5.1L19.4,5.1L19.4,4.6L18.9,4.6L18.9,4.1L18.4,4.1L18.4,3.6L17.9,3.6L17.9,3L18.1,3L18.1,3.4L18.6,3.4L18.6,3.9L19.1,3.9L19.1,4.4L19.6,4.4L19.6,4.9L20.6,4.9L20.6,5.9L23.1,5.9L23.1,6.9L24.1,6.9z" stroke="none"/><path d="M10.4,3L10.6,3L10.6,6.1L9.1,6.1L9.1,7.1L4.6,7.1L4.6,7.5L4.4,7.5L4.4,6.9L8.9,6.9L8.9,5.9L10.4,5.9z" stroke="none"/><path d="M99,5.9L99,6.1L93.6,6.1L93.6,7.6L91.5,7.6L91.5,7.4L93.4,7.4L93.4,5.9z" stroke="none"/><path d="M87,12.1L87,11.9L90.4,11.9L90.4,11.4L90.9,11.4L90.9,10.9L94.4,10.9L94.4,10.5L94.6,10.5L94.6,11.1L91.1,11.1L91.1,11.6L90.6,11.6L90.6,12.1z" stroke="none"/><path d="M19.5,3.1L19.5,2.9L22.6,2.9L22.6,3.4L23.1,3.4L23.1,3.9L24.1,3.9L24.1,5.9L24.6,5.9L24.6,6.9L25.1,6.9L25.1,7.4L27,7.4L27,7.6L24.9,7.6L24.9,7.1L24.4,7.1L24.4,6.1L23.9,6.1L23.9,4.1L22.9,4.1L22.9,3.6L22.4,3.6L22.4,3.1z" stroke="none"/><path d="M13.6,3L13.4,3L13.4,2.6L10.9,2.6L10.9,2.1L6.6,2.1L6.6,2.6L6.1,2.6L6.1,3.1L4.5,3.1L4.5,2.9L5.9,2.9L5.9,2.4L6.4,2.4L6.4,1.9L11.1,1.9L11.1,2.4L13.6,2.4z" stroke="none"/><path d="M24,10.6L24,10.4L24.6,10.4L24.6,11.4L33.1,11.4L33.1,12L32.9,12L32.9,11.6L24.4,11.6L24.4,10.6z" stroke="none"/><path d="M91.5,11.9L91.5,12.1L91.1,12.1L91.1,12.6L90.6,12.6L90.6,13.1L84.4,13.1L84.4,11.1L83.4,11.1L83.4,10.1L82.9,10.1L82.9,9.6L82.4,9.6L82.4,9L82.6,9L82.6,9.4L83.1,9.4L83.1,9.9L83.6,9.9L83.6,10.9L84.6,10.9L84.6,12.9L90.4,12.9L90.4,12.4L90.9,12.4L90.9,11.9z" stroke="none"/><path d="M61.5,2.9L61.5,3.1L51,3.1L51,2.9z" stroke="none"/><path d="M25.5,10.6L25.5,10.4L35.1,10.4L35.1,10.9L38.1,10.9L38.1,11.4L39.4,11.4L39.4,10.9L39.9,10.9L39.9,9.4L40.4,9.4L40.4,8.9L40.9,8.9L40.9,8.4L41.4,8.4L41.4,7.1L40.9,7.1L40.9,6.6L38.1,6.6L38.1,7.1L37.6,7.1L37.6,7.5L37.4,7.5L37.4,6.9L37.9,6.9L37.9,6.4L41.1,6.4L41.1,6.9L41.6,6.9L41.6,8.6L41.1,8.6L41.1,9.1L40.6,9.1L40.6,9.6L40.1,9.6L40.1,11.1L39.6,11.1L39.6,11.6L37.9,11.6L37.9,11.1L34.9,11.1L34.9,10.6z" stroke="none"/><path d="M43.6,9L43.4,9L43.4,5.9L44.9,5.9L44.9,5.4L45.9,5.4L45.9,4.4L55.5,4.4L55.5,4.6L46.1,4.6L46.1,5.6L45.1,5.6L45.1,6.1L43.6,6.1z" stroke="none"/><path d="M25.6,4.5L25.4,4.5L25.4,3.1L24.4,3.1L24.4,2.6L23.9,2.6L23.9,2.1L12.4,2.1L12.4,1.6L3.6,1.6L3.6,8.4L9.9,8.4L9.9,7.9L10.4,7.9L10.4,7.5L10.6,7.5L10.6,8.1L10.1,8.1L10.1,8.6L3.4,8.6L3.4,1.4L12.6,1.4L12.6,1.9L24.1,1.9L24.1,2.4L24.6,2.4L24.6,2.9L25.6,2.9z" stroke="none"/><path d="M100.5,2.9L100.5,3.1L95.4,3.1L95.4,2.1L85.1,2.1L85.1,3.6L84.6,3.6L84.6,4.1L82.1,4.1L82.1,4.6L81,4.6L81,4.4L81.9,4.4L81.9,3.9L84.4,3.9L84.4,3.4L84.9,3.4L84.9,1.9L95.6,1.9L95.6,2.9z" stroke="none"/><path d="M34.5,4.6L34.5,4.4L34.9,4.4L34.9,3.9L41.4,3.9L41.4,3.4L41.9,3.4L41.9,2.4L42.4,2.4L42.4,1.9L49.9,1.9L49.9,1.4L70.6,1.4L70.6,1.9L71.6,1.9L71.6,3.6L71.1,3.6L71.1,4.1L67.6,4.1L67.6,4.5L67.4,4.5L67.4,3.9L70.9,3.9L70.9,3.4L71.4,3.4L71.4,2.1L70.4,2.1L70.4,1.6L50.1,1.6L50.1,2.1L42.6,2.1L42.6,2.6L42.1,2.6L42.1,3.6L41.6,3.6L41.6,4.1L35.1,4.1L35.1,4.6z" stroke="none"/><path d="M82.5,10.4L82.5,10.6L77.6,10.6L77.6,11.6L60.4,11.6L60.4,11.1L55.1,11.1L55.1,11.6L54.1,11.6L54.1,12.1L48,12.1L48,11.9L53.9,11.9L53.9,11.4L54.9,11.4L54.9,10.9L60.6,10.9L60.6,11.4L77.4,11.4L77.4,10.4z" stroke="none"/><path d="M97.5,11.9L97.5,12.1L95.6,12.1L95.6,12.6L92.1,12.6L92.1,13.1L91.6,13.1L91.6,13.6L60.9,13.6L60.9,13.1L60.4,13.1L60.4,12.6L59.9,12.6L59.9,12L60.1,12L60.1,12.4L60.6,12.4L60.6,12.9L61.1,12.9L61.1,13.4L91.4,13.4L91.4,12.9L91.9,12.9L91.9,12.4L95.4,12.4L95.4,11.9z" stroke="none"/><path d="M70.4,6L70.6,6L70.6,6.6L70.1,6.6L70.1,7.1L64.4,7.1L64.4,6.6L63.9,6.6L63.9,5.6L63.4,5.6L63.4,5.1L61.9,5.1L61.9,4.6L57.4,4.6L57.4,4.1L56.4,4.1L56.4,3.6L51.6,3.6L51.6,4.1L45.1,4.1L45.1,5.1L44.6,5.1L44.6,5.6L38.1,5.6L38.1,6.1L37.6,6.1L37.6,6.6L35.1,6.6L35.1,7.1L28.6,7.1L28.6,7.6L28.1,7.6L28.1,8.1L27.6,8.1L27.6,8.6L12.1,8.6L12.1,9.1L2.9,9.1L2.9,0.9L28.1,0.9L28.1,1.4L28.6,1.4L28.6,1.9L29.6,1.9L29.6,2.4L30.1,2.4L30.1,3L29.9,3L29.9,2.6L29.4,2.6L29.4,2.1L28.4,2.1L28.4,1.6L27.9,1.6L27.9,1.1L3.1,1.1L3.1,8.9L11.9,8.9L11.9,8.4L27.4,8.4L27.4,7.9L27.9,7.9L27.9,7.4L28.4,7.4L28.4,6.9L34.9,6.9L34.9,6.4L37.4,6.4L37.4,5.9L37.9,5.9L37.9,5.4L44.4,5.4L44.4,4.9L44.9,4.9L44.9,3.9L51.4,3.9L51.4,3.4L56.6,3.4L56.6,3.9L57.6,3.9L57.6,4.4L62.1,4.4L62.1,4.9L63.6,4.9L63.6,5.4L64.1,5.4L64.1,6.4L64.6,6.4L64.6,6.9L69.9,6.9L69.9,6.4L70.4,6.4z" stroke="none"/><path d="M7.5,12.1L7.5,11.9L32.1,11.9L32.1,12.4L32.6,12.4L32.6,12.9L54.9,12.9L54.9,11.9L55.5,11.9L55.5,12.1L55.1,12.1L55.1,13.1L32.4,13.1L32.4,12.6L31.9,12.6L31.9,12.1z" stroke="none"/></svg>