<svg version="1.1" width="105" height="15" xmlns="http://www.w3.org/2000/svg"><path d="M32.4,7.9L32.4,6.4L32.9,6.4L32.9,6L33.1,6L33.1,6.6L32.6,6.6L32.6,8.1L26.6,8.1L26.6,8.4L27.1,8.4L27.1,9.9L27.6,9.9L27.6,10.4L28.5,10.4L28.5,10.6L27.4,10.6L27.4,10.1L26.9,10.1L26.9,8.6L26.4,8.6L26.4,8.1L20.9,8.1L20.9,7.6L18,7.6L18,7.4L21.1,7.4L21.1,7.9z" stroke="none"/><path d="M74.4,9.4L74.4,8.4L74.9,8.4L74.9,7.4L75.9,7.4L75.9,6.9L89.1,6.9L89.1,7.4L89.6,7.4L89.6,8.9L90.6,8.9L90.6,9.4L91.6,9.4L91.6,9.9L92.6,9.9L92.6,10.4L93,10.4L93,10.6L92.4,10.6L92.4,10.1L91.4,10.1L91.4,9.6L90.4,9.6L90.4,9.1L89.4,9.1L89.4,7.6L88.9,7.6L88.9,7.1L76.1,7.1L76.1,7.6L75.1,7.6L75.1,8.6L74.6,8.6L74.6,9.4L75.4,9.4L75.4,8.4L75.9,8.4L75.9,7.9L76.4,7.9L76.4,7.4L78,7.4L78,7.6L76.6,7.6L76.6,8.1L76.1,8.1L76.1,8.6L75.6,8.6L75.6,9.6L73.9,9.6L73.9,9.1L73.4,9.1L73.4,8.6L56.1,8.6L56.1,9.1L55.6,9.1L55.6,9.6L54.6,9.6L54.6,10.1L53.1,10.1L53.1,10.6L52.5,10.6L52.5,10.4L52.9,10.4L52.9,9.9L54.4,9.9L54.4,9.4L55.4,9.4L55.4,8.9L55.9,8.9L55.9,8.4L73.6,8.4L73.6,8.9L74.1,8.9L74.1,9.4z" stroke="none"/><path d="M73.1,8.9L73.1,9.4L73.6,9.4L73.6,9.9L77.4,9.9L77.4,9.4L79.4,9.4L79.4,9L79.6,9L79.6,9.6L77.6,9.6L77.6,10.1L73.4,10.1L73.4,9.6L72.9,9.6L72.9,9.1L66.1,9.1L66.1,9.4L72.1,9.4L72.1,9.9L72.6,9.9L72.6,10.4L73.6,10.4L73.6,10.9L74.1,10.9L74.1,11.4L80.9,11.4L80.9,10.9L81.4,10.9L81.4,10.4L82.5,10.4L82.5,10.6L81.6,10.6L81.6,11.1L81.1,11.1L81.1,11.6L73.9,11.6L73.9,11.1L73.4,11.1L73.4,10.6L72.4,10.6L72.4,10.1L71.9,10.1L71.9,9.6L65.9,9.6L65.9,9.1L58.6,9.1L58.6,10.1L55.6,10.1L55.6,10.6L54.6,10.6L54.6,11.1L54.1,11.1L54.1,11.6L45.9,11.6L45.9,11.1L41.9,11.1L41.9,10.1L40.9,10.1L40.9,9.6L39.9,9.6L39.9,9.1L37.4,9.1L37.4,7.6L36,7.6L36,7.4L37.6,7.4L37.6,8.9L40.1,8.9L40.1,9.4L41.1,9.4L41.1,9.9L42.1,9.9L42.1,10.9L46.1,10.9L46.1,11.4L53.9,11.4L53.9,10.9L54.4,10.9L54.4,10.4L55.4,10.4L55.4,9.9L58.4,9.9L58.4,8.9z" stroke="none"/><path d="M31.9,8.9L31.9,8.4L32.9,8.4L32.9,6.9L34.4,6.9L34.4,6.4L43.6,6.4L43.6,6.9L44.1,6.9L44.1,7.4L45,7.4L45,7.6L43.9,7.6L43.9,7.1L43.4,7.1L43.4,6.6L34.6,6.6L34.6,7.1L33.1,7.1L33.1,8.6L32.1,8.6L32.1,8.9L33.1,8.9L33.1,9.4L33.6,9.4L33.6,10.4L34.5,10.4L34.5,10.6L33.4,10.6L33.4,9.6L32.9,9.6L32.9,9.1L32.1,9.1L32.1,10.1L31.6,10.1L31.6,10.5L31.4,10.5L31.4,9.9L31.9,9.9L31.9,9.1L31.1,9.1L31.1,10.6L30.6,10.6L30.6,11.6L23.9,11.6L23.9,11.1L17.9,11.1L17.9,9L18.1,9L18.1,10.9L24.1,10.9L24.1,11.4L30.4,11.4L30.4,10.4L30.9,10.4L30.9,8.9z" stroke="none"/><path d="M34.4,3.9L34.4,3.6L32.1,3.6L32.1,4.1L28.9,4.1L28.9,3.6L25.4,3.6L25.4,3.1L21,3.1L21,2.9L25.6,2.9L25.6,3.4L29.1,3.4L29.1,3.9L31.9,3.9L31.9,3.4L34.6,3.4L34.6,3.9L51.9,3.9L51.9,3.4L59.6,3.4L59.6,3.9L61.6,3.9L61.6,4.4L64.5,4.4L64.5,4.6L61.4,4.6L61.4,4.1L59.4,4.1L59.4,3.6L52.1,3.6L52.1,4.1L34.6,4.1L34.6,4.6L33.6,4.6L33.6,5.1L29.6,5.1L29.6,5.6L20.4,5.6L20.4,5.1L17.9,5.1L17.9,4.5L18.1,4.5L18.1,4.9L20.6,4.9L20.6,5.4L29.4,5.4L29.4,4.9L33.4,4.9L33.4,4.4L34.4,4.4L34.4,4.1L33.1,4.1L33.1,4.5L32.9,4.5L32.9,3.9z" stroke="none"/><path d="M74.9,5.4L74.9,4.9L79.4,4.9L79.4,4.4L79.9,4.4L79.9,3.4L85.1,3.4L85.1,3.9L94.6,3.9L94.6,4.4L99,4.4L99,4.6L94.4,4.6L94.4,4.1L84.9,4.1L84.9,3.6L80.1,3.6L80.1,4.6L79.6,4.6L79.6,5.1L75.1,5.1L75.1,5.4L91.6,5.4L91.6,7.5L91.4,7.5L91.4,5.6L75.1,5.6L75.1,6.1L52.5,6.1L52.5,5.9L74.9,5.9L74.9,5.6L60.4,5.6L60.4,5.1L59.9,5.1L59.9,4.6L58.5,4.6L58.5,4.4L60.1,4.4L60.1,4.9L60.6,4.9L60.6,5.4z" stroke="none"/><path d="M3.1,9L2.9,9L2.9,8.4L3.4,8.4L3.4,7.9L3.9,7.9L3.9,7.4L4.5,7.4L4.5,7.6L4.1,7.6L4.1,8.1L3.6,8.1L3.6,8.6L3.1,8.6z" stroke="none"/><path d="M76.5,9.1L76.5,8.9L78.4,8.9L78.4,8.4L78.9,8.4L78.9,7.9L80.1,7.9L80.1,8.4L80.6,8.4L80.6,9.6L80.1,9.6L80.1,10.1L78.6,10.1L78.6,10.6L78,10.6L78,10.4L78.4,10.4L78.4,9.9L79.9,9.9L79.9,9.4L80.4,9.4L80.4,8.6L79.9,8.6L79.9,8.1L79.1,8.1L79.1,8.6L78.6,8.6L78.6,9.1z" stroke="none"/><path d="M78,3.1L78,2.9L95.1,2.9L95.1,3.4L95.6,3.4L95.6,3.9L98.4,3.9L98.4,3.4L99.6,3.4L99.6,3.9L100.1,3.9L100.1,5.6L91.9,5.6L91.9,5.1L81.4,5.1L81.4,4.6L81,4.6L81,4.4L81.6,4.4L81.6,4.9L92.1,4.9L92.1,5.4L99.9,5.4L99.9,4.1L99.4,4.1L99.4,3.6L98.6,3.6L98.6,4.1L95.4,4.1L95.4,3.6L94.9,3.6L94.9,3.1z" stroke="none"/><path d="M4.6,12L4.4,12L4.4,9.9L4.9,9.9L4.9,9.4L6.4,9.4L6.4,8.9L7.5,8.9L7.5,9.1L6.6,9.1L6.6,9.6L5.1,9.6L5.1,10.1L4.6,10.1z" stroke="none"/><path d="M85.5,12.1L85.5,11.9L90,11.9L90,12.1z" stroke="none"/><path d="M97.5,9.1L97.5,8.9L97.9,8.9L97.9,8.4L98.4,8.4L98.4,7.9L99.4,7.9L99.4,7.4L102,7.4L102,7.6L99.6,7.6L99.6,8.1L98.6,8.1L98.6,8.6L98.1,8.6L98.1,9.1z" stroke="none"/><path d="M49.6,10.5L49.4,10.5L49.4,9.1L48.9,9.1L48.9,8.1L48.4,8.1L48.4,7.6L47.9,7.6L47.9,7.1L47.4,7.1L47.4,6.6L46.9,6.6L46.9,6.1L46.5,6.1L46.5,5.9L47.1,5.9L47.1,6.4L47.6,6.4L47.6,6.9L48.1,6.9L48.1,7.4L48.6,7.4L48.6,7.9L49.1,7.9L49.1,8.9L49.6,8.9z" stroke="none"/><path d="M96,3.1L96,2.9L100.1,2.9L100.1,3.4L100.6,3.4L100.6,6L100.4,6L100.4,3.6L99.9,3.6L99.9,3.1z" stroke="none"/><path d="M48,2.9L48,3.1L42,3.1L42,2.9z" stroke="none"/><path d="M60,7.4L60,7.6L54,7.6L54,7.4z" stroke="none"/><path d="M9,3.1L9,2.9L13.6,2.9L13.6,3.9L14.6,3.9L14.6,4.4L15.6,4.4L15.6,4.9L16.1,4.9L16.1,5.9L16.5,5.9L16.5,6.1L15.9,6.1L15.9,5.1L15.4,5.1L15.4,4.6L14.4,4.6L14.4,4.1L13.4,4.1L13.4,3.1z" stroke="none"/><path d="M84,10.6L84,10.4L92.1,10.4L92.1,10.9L92.6,10.9L92.6,11.9L94.5,11.9L94.5,12.1L92.4,12.1L92.4,11.1L91.9,11.1L91.9,10.6z" stroke="none"/><path d="M52.5,4.4L52.5,4.6L48.1,4.6L48.1,5.1L45.6,5.1L45.6,6.9L46.1,6.9L46.1,8.1L45.6,8.1L45.6,8.6L44.4,8.6L44.4,8.1L43.4,8.1L43.4,7.6L42,7.6L42,7.4L43.6,7.4L43.6,7.9L44.6,7.9L44.6,8.4L45.4,8.4L45.4,7.9L45.9,7.9L45.9,7.1L45.4,7.1L45.4,4.9L47.9,4.9L47.9,4.4z" stroke="none"/><path d="M37.5,11.9L37.5,12.1L22.5,12.1L22.5,11.9z" stroke="none"/><path d="M35.9,9L36.1,9L36.1,10.4L36.6,10.4L36.6,10.9L38.6,10.9L38.6,13.1L18.9,13.1L18.9,12.6L17.9,12.6L17.9,12.1L17.4,12.1L17.4,9.6L16.9,9.6L16.9,6.9L17.4,6.9L17.4,6.4L18.9,6.4L18.9,5.9L19.5,5.9L19.5,6.1L19.1,6.1L19.1,6.6L17.6,6.6L17.6,7.1L17.1,7.1L17.1,9.4L17.6,9.4L17.6,11.9L18.1,11.9L18.1,12.4L19.1,12.4L19.1,12.9L38.4,12.9L38.4,11.1L36.4,11.1L36.4,10.6L35.9,10.6z" stroke="none"/><path d="M73.5,12.1L73.5,11.9L84.1,11.9L84.1,12.4L85.1,12.4L85.1,12.9L95.4,12.9L95.4,12.4L95.9,12.4L95.9,12L96.1,12L96.1,12.6L95.6,12.6L95.6,13.1L84.9,13.1L84.9,12.6L83.9,12.6L83.9,12.1z" stroke="none"/><path d="M28.5,4.4L28.5,4.6L20.4,4.6L20.4,3.6L19.9,3.6L19.9,2.6L9.4,2.6L9.4,2.1L8.1,2.1L8.1,7.1L7.1,7.1L7.1,8.6L5.1,8.6L5.1,9.1L4.5,9.1L4.5,8.9L4.9,8.9L4.9,8.4L6.9,8.4L6.9,6.9L7.9,6.9L7.9,1.9L9.6,1.9L9.6,2.4L20.1,2.4L20.1,3.4L20.6,3.4L20.6,4.4z" stroke="none"/><path d="M49.5,7.6L49.5,7.4L52.9,7.4L52.9,6.9L53.4,6.9L53.4,6.4L89.6,6.4L89.6,6.9L90.6,6.9L90.6,8.4L94.9,8.4L94.9,7.9L97.9,7.9L97.9,7.4L98.9,7.4L98.9,6.9L101.4,6.9L101.4,3.6L100.9,3.6L100.9,3.1L100.4,3.1L100.4,2.6L99.9,2.6L99.9,2.1L75.6,2.1L75.6,2.6L75.1,2.6L75.1,3L74.9,3L74.9,2.4L75.4,2.4L75.4,1.9L100.1,1.9L100.1,2.4L100.6,2.4L100.6,2.9L101.1,2.9L101.1,3.4L101.6,3.4L101.6,7.1L99.1,7.1L99.1,7.6L98.1,7.6L98.1,8.1L95.1,8.1L95.1,8.6L90.4,8.6L90.4,7.1L89.4,7.1L89.4,6.6L53.6,6.6L53.6,7.1L53.1,7.1L53.1,7.6z" stroke="none"/><path d="M95.9,9L96.1,9L96.1,9.9L96.6,9.9L96.6,10.4L97.1,10.4L97.1,12.6L96.6,12.6L96.6,13.1L96.1,13.1L96.1,13.6L67.4,13.6L67.4,12.1L66.9,12.1L66.9,11.1L66.4,11.1L66.4,10.6L66,10.6L66,10.4L66.6,10.4L66.6,10.9L67.1,10.9L67.1,11.9L67.6,11.9L67.6,13.4L95.9,13.4L95.9,12.9L96.4,12.9L96.4,12.4L96.9,12.4L96.9,10.6L96.4,10.6L96.4,10.1L95.9,10.1z" stroke="none"/><path d="M10.5,12.1L10.5,11.9L15.6,11.9L15.6,12.9L18.6,12.9L18.6,13.4L44.4,13.4L44.4,12.4L44.9,12.4L44.9,12L45.1,12L45.1,12.6L44.6,12.6L44.6,13.6L18.4,13.6L18.4,13.1L15.4,13.1L15.4,12.1z" stroke="none"/><path d="M102,11.9L102,12.1L97.6,12.1L97.6,13.1L97.1,13.1L97.1,13.6L96.6,13.6L96.6,14.1L63.4,14.1L63.4,13.6L61.9,13.6L61.9,13.1L61.4,13.1L61.4,12L61.6,12L61.6,12.9L62.1,12.9L62.1,13.4L63.6,13.4L63.6,13.9L96.4,13.9L96.4,13.4L96.9,13.4L96.9,12.9L97.4,12.9L97.4,11.9z" stroke="none"/><path d="M31.5,3.1L31.5,2.9L39.9,2.9L39.9,2.4L41.4,2.4L41.4,1.9L70.6,1.9L70.6,2.4L71.1,2.4L71.1,3.4L72.1,3.4L72.1,4.5L71.9,4.5L71.9,3.6L70.9,3.6L70.9,2.6L70.4,2.6L70.4,2.1L41.6,2.1L41.6,2.6L40.1,2.6L40.1,3.1z" stroke="none"/><path d="M57,11.9L57,12.1L47.1,12.1L47.1,12.6L45.6,12.6L45.6,13.1L45.1,13.1L45.1,14.1L10.9,14.1L10.9,13.6L10.4,13.6L10.4,13.1L9.9,13.1L9.9,12.6L9.4,12.6L9.4,9.9L9.9,9.9L9.9,9.4L10.4,9.4L10.4,9L10.6,9L10.6,9.6L10.1,9.6L10.1,10.1L9.6,10.1L9.6,12.4L10.1,12.4L10.1,12.9L10.6,12.9L10.6,13.4L11.1,13.4L11.1,13.9L44.9,13.9L44.9,12.9L45.4,12.9L45.4,12.4L46.9,12.4L46.9,11.9z" stroke="none"/><path d="M16.5,11.9L16.5,12.1L15.9,12.1L15.9,11.6L15.4,11.6L15.4,11.1L14.9,11.1L14.9,10.1L13.9,10.1L13.9,9.6L13.4,9.6L13.4,9.1L12.9,9.1L12.9,8.6L11.4,8.6L11.4,8.1L10.1,8.1L10.1,8.6L9.1,8.6L9.1,12.9L9.6,12.9L9.6,13.9L10.6,13.9L10.6,14.4L59.9,14.4L59.9,13.4L60.4,13.4L60.4,10.9L64.6,10.9L64.6,12L64.4,12L64.4,11.1L60.6,11.1L60.6,13.6L60.1,13.6L60.1,14.6L10.4,14.6L10.4,14.1L9.4,14.1L9.4,13.1L8.9,13.1L8.9,8.4L9.9,8.4L9.9,7.9L11.6,7.9L11.6,8.4L13.1,8.4L13.1,8.9L13.6,8.9L13.6,9.4L14.1,9.4L14.1,9.9L15.1,9.9L15.1,10.9L15.6,10.9L15.6,11.4L16.1,11.4L16.1,11.9z" stroke="none"/></svg>