<svg version="1.1" width="105" height="15" xmlns="http://www.w3.org/2000/svg"><path d="M59.9,9.4L59.9,9L60.1,9L60.1,9.6L42.6,9.6L42.6,10.1L31.9,10.1L31.9,9.6L30.6,9.6L30.6,10.1L29.6,10.1L29.6,10.6L27,10.6L27,10.4L29.4,10.4L29.4,9.9L30.4,9.9L30.4,9.4L32.1,9.4L32.1,9.9L42.4,9.9L42.4,9.6L40.4,9.6L40.4,9L40.6,9L40.6,9.4z" stroke="none"/><path d="M78.6,10.9L78.6,11.4L90.1,11.4L90.1,11.9L91.5,11.9L91.5,12.1L89.9,12.1L89.9,11.6L78.4,11.6L78.4,11.1L71.1,11.1L71.1,11.6L53.1,11.6L53.1,12.1L52.5,12.1L52.5,11.9L52.9,11.9L52.9,11.4L70.9,11.4L70.9,11.1L69.4,11.1L69.4,10.6L68.9,10.6L68.9,9L69.1,9L69.1,10.4L69.6,10.4L69.6,10.9z" stroke="none"/><path d="M101.4,5.9L101.4,5.4L101.9,5.4L101.9,4.5L102.1,4.5L102.1,5.6L101.6,5.6L101.6,6.1L96.1,6.1L96.1,6.4L100.1,6.4L100.1,6.9L102.1,6.9L102.1,9L101.9,9L101.9,7.1L99.9,7.1L99.9,6.6L95.9,6.6L95.9,6.1L91.1,6.1L91.1,6.6L90.6,6.6L90.6,7.1L89.6,7.1L89.6,8.1L89.1,8.1L89.1,8.6L85.4,8.6L85.4,7.6L84.4,7.6L84.4,6.1L84,6.1L84,5.9L84.6,5.9L84.6,7.4L85.6,7.4L85.6,8.4L88.9,8.4L88.9,7.9L89.4,7.9L89.4,6.9L90.4,6.9L90.4,6.4L90.9,6.4L90.9,5.9z" stroke="none"/><path d="M23.9,4.4L23.9,3.6L23.4,3.6L23.4,3.1L22.5,3.1L22.5,2.9L23.6,2.9L23.6,3.4L24.1,3.4L24.1,4.4L39.9,4.4L39.9,3.4L40.4,3.4L40.4,3L40.6,3L40.6,3.6L40.1,3.6L40.1,4.6L24.1,4.6L24.1,6.1L21.6,6.1L21.6,6.6L21.1,6.6L21.1,7.1L20.6,7.1L20.6,7.6L17.6,7.6L17.6,8.1L15.9,8.1L15.9,7.6L15.4,7.6L15.4,7.1L14.9,7.1L14.9,6L15.1,6L15.1,6.9L15.6,6.9L15.6,7.4L16.1,7.4L16.1,7.9L17.4,7.9L17.4,7.4L20.4,7.4L20.4,6.9L20.9,6.9L20.9,6.4L21.4,6.4L21.4,5.9L23.9,5.9L23.9,4.6L23.6,4.6L23.6,5.6L21.1,5.6L21.1,6.1L20.6,6.1L20.6,6.6L20.1,6.6L20.1,7.1L16.6,7.1L16.6,7.5L16.4,7.5L16.4,6.9L19.9,6.9L19.9,6.4L20.4,6.4L20.4,5.9L20.9,5.9L20.9,5.4L23.4,5.4L23.4,4.4z" stroke="none"/><path d="M53.9,3.4L53.9,3.1L41.9,3.1L41.9,2.6L40.9,2.6L40.9,2.1L36.1,2.1L36.1,2.6L35.1,2.6L35.1,3.1L34.5,3.1L34.5,2.9L34.9,2.9L34.9,2.4L35.9,2.4L35.9,1.9L41.1,1.9L41.1,2.4L42.1,2.4L42.1,2.9L54.1,2.9L54.1,3.4L59.9,3.4L59.9,3L60.1,3L60.1,3.6L54.1,3.6L54.1,3.9L65.4,3.9L65.4,3.4L69.1,3.4L69.1,3.9L69.6,3.9L69.6,4.4L70.5,4.4L70.5,4.6L69.4,4.6L69.4,4.1L68.9,4.1L68.9,3.6L65.6,3.6L65.6,4.1L53.9,4.1L53.9,3.6L51.1,3.6L51.1,4.5L50.9,4.5L50.9,3.4z" stroke="none"/><path d="M65.9,8.4L65.9,8.1L57.6,8.1L57.6,8.6L49.9,8.6L49.9,7.6L49.5,7.6L49.5,7.4L50.1,7.4L50.1,8.4L57.4,8.4L57.4,7.9L66.1,7.9L66.1,8.4L68.4,8.4L68.4,7.9L70.9,7.9L70.9,7.4L72.4,7.4L72.4,6.9L72.9,6.9L72.9,6.4L73.4,6.4L73.4,6L73.6,6L73.6,6.6L73.1,6.6L73.1,7.1L72.6,7.1L72.6,7.6L71.1,7.6L71.1,8.1L68.6,8.1L68.6,8.6L66.1,8.6L66.1,9.1L64.1,9.1L64.1,9.6L63.1,9.6L63.1,10.6L59.6,10.6L59.6,11.1L51.6,11.1L51.6,12.4L52.1,12.4L52.1,12.9L91.9,12.9L91.9,12.4L92.4,12.4L92.4,11.6L91.9,11.6L91.9,11.1L85.4,11.1L85.4,10.5L85.6,10.5L85.6,10.9L92.1,10.9L92.1,11.4L92.6,11.4L92.6,12.6L92.1,12.6L92.1,13.1L51.9,13.1L51.9,12.6L51.4,12.6L51.4,10.9L59.4,10.9L59.4,10.4L62.9,10.4L62.9,9.4L63.9,9.4L63.9,8.9L65.9,8.9L65.9,8.6L63.1,8.6L63.1,9.1L61.1,9.1L61.1,9.6L60.6,9.6L60.6,10.1L59.1,10.1L59.1,10.6L55.5,10.6L55.5,10.4L58.9,10.4L58.9,9.9L60.4,9.9L60.4,9.4L60.9,9.4L60.9,8.9L62.9,8.9L62.9,8.4z" stroke="none"/><path d="M91.4,3L91.6,3L91.6,4.5L91.4,4.5z" stroke="none"/><path d="M31.5,10.4L31.5,10.6L31.1,10.6L31.1,11.6L30.6,11.6L30.6,12.1L30,12.1L30,11.9L30.4,11.9L30.4,11.4L30.9,11.4L30.9,10.4z" stroke="none"/><path d="M15,11.9L15,12.1L14.4,12.1L14.4,11.6L12.9,11.6L12.9,11.1L12.4,11.1L12.4,9.9L12.9,9.9L12.9,9.4L13.4,9.4L13.4,9L13.6,9L13.6,9.6L13.1,9.6L13.1,10.1L12.6,10.1L12.6,10.9L13.1,10.9L13.1,11.4L14.6,11.4L14.6,11.9z" stroke="none"/><path d="M79.5,2.9L79.5,3.1L79.1,3.1L79.1,3.6L78.1,3.6L78.1,4.1L77.6,4.1L77.6,4.6L76.5,4.6L76.5,4.4L77.4,4.4L77.4,3.9L77.9,3.9L77.9,3.4L78.9,3.4L78.9,2.9z" stroke="none"/><path d="M100.5,8.9L100.5,9.1L96,9.1L96,8.9z" stroke="none"/><path d="M13.5,10.6L13.5,10.4L13.9,10.4L13.9,9.9L14.4,9.9L14.4,9.4L18.1,9.4L18.1,10.5L17.9,10.5L17.9,9.6L14.6,9.6L14.6,10.1L14.1,10.1L14.1,10.6z" stroke="none"/><path d="M81,4.6L81,4.4L85.5,4.4L85.5,4.6z" stroke="none"/><path d="M34.5,12.1L34.5,11.9L39,11.9L39,12.1z" stroke="none"/><path d="M45,7.6L45,7.4L47.9,7.4L47.9,6.9L48.9,6.9L48.9,6.4L50.1,6.4L50.1,6.9L50.6,6.9L50.6,7.4L51,7.4L51,7.6L50.4,7.6L50.4,7.1L49.9,7.1L49.9,6.6L49.1,6.6L49.1,7.1L48.1,7.1L48.1,7.6z" stroke="none"/><path d="M39,8.9L39,9.1L38.4,9.1L38.4,8.6L36.4,8.6L36.4,8.1L35.4,8.1L35.4,7.6L33,7.6L33,7.4L35.6,7.4L35.6,7.9L36.6,7.9L36.6,8.4L38.6,8.4L38.6,8.9z" stroke="none"/><path d="M13.6,7.5L13.4,7.5L13.4,5.4L13.9,5.4L13.9,4.9L17.1,4.9L17.1,5.4L18.6,5.4L18.6,5.9L19.5,5.9L19.5,6.1L18.4,6.1L18.4,5.6L16.9,5.6L16.9,5.1L14.1,5.1L14.1,5.6L13.6,5.6z" stroke="none"/><path d="M7.5,12.1L7.5,11.9L13.1,11.9L13.1,12.4L14.6,12.4L14.6,12.9L15.4,12.9L15.4,12.4L15.9,12.4L15.9,11.1L14.9,11.1L14.9,10.5L15.1,10.5L15.1,10.9L16.1,10.9L16.1,12.6L15.6,12.6L15.6,13.1L14.4,13.1L14.4,12.6L12.9,12.6L12.9,12.1z" stroke="none"/><path d="M81,10.4L81,10.6L77.9,10.6L77.9,10.1L77.4,10.1L77.4,9.6L76.4,9.6L76.4,8.6L73.9,8.6L73.9,8.1L73.4,8.1L73.4,7.5L73.6,7.5L73.6,7.9L74.1,7.9L74.1,8.4L76.6,8.4L76.6,9.4L77.6,9.4L77.6,9.9L78.1,9.9L78.1,10.4z" stroke="none"/><path d="M57,7.6L57,7.4L63.4,7.4L63.4,5.9L63.9,5.9L63.9,4.9L64.4,4.9L64.4,4.4L66,4.4L66,4.6L64.6,4.6L64.6,5.1L64.1,5.1L64.1,6.1L63.6,6.1L63.6,7.6z" stroke="none"/><path d="M7.5,3.1L7.5,2.9L8.1,2.9L8.1,3.9L14.6,3.9L14.6,4.4L18,4.4L18,4.6L14.4,4.6L14.4,4.1L7.9,4.1L7.9,3.1z" stroke="none"/><path d="M36,8.9L36,9.1L27.1,9.1L27.1,9.6L26.6,9.6L26.6,10.1L26.1,10.1L26.1,12.1L25.5,12.1L25.5,11.9L25.9,11.9L25.9,9.9L26.4,9.9L26.4,9.4L26.9,9.4L26.9,8.9z" stroke="none"/><path d="M9,3.1L9,2.9L18.6,2.9L18.6,3.4L19.6,3.4L19.6,3.9L21.1,3.9L21.1,4.5L20.9,4.5L20.9,4.1L19.4,4.1L19.4,3.6L18.4,3.6L18.4,3.1z" stroke="none"/><path d="M100.5,4.4L100.5,4.6L92.6,4.6L92.6,5.6L90.6,5.6L90.6,6.1L90.1,6.1L90.1,6.6L89.1,6.6L89.1,7.1L88.6,7.1L88.6,7.5L88.4,7.5L88.4,6.9L88.9,6.9L88.9,6.4L89.9,6.4L89.9,5.9L90.4,5.9L90.4,5.4L92.4,5.4L92.4,4.4z" stroke="none"/><path d="M22.5,4.4L22.5,4.6L21.9,4.6L21.9,3.6L21.4,3.6L21.4,3.1L20.4,3.1L20.4,2.6L9.4,2.6L9.4,2.1L7.1,2.1L7.1,2.6L6.6,2.6L6.6,6.4L8.1,6.4L8.1,6.9L8.6,6.9L8.6,7.4L10.1,7.4L10.1,7.9L10.6,7.9L10.6,9L10.4,9L10.4,8.1L9.9,8.1L9.9,7.6L8.4,7.6L8.4,7.1L7.9,7.1L7.9,6.6L6.4,6.6L6.4,2.4L6.9,2.4L6.9,1.9L9.6,1.9L9.6,2.4L20.6,2.4L20.6,2.9L21.6,2.9L21.6,3.4L22.1,3.4L22.1,4.4z" stroke="none"/><path d="M102,2.9L102,3.1L92.9,3.1L92.9,2.6L92.4,2.6L92.4,2.1L91.1,2.1L91.1,2.6L90.6,2.6L90.6,4.6L90.1,4.6L90.1,5.6L89.1,5.6L89.1,6.1L88.5,6.1L88.5,5.9L88.9,5.9L88.9,5.4L89.9,5.4L89.9,4.4L90.4,4.4L90.4,2.4L90.9,2.4L90.9,1.9L92.6,1.9L92.6,2.4L93.1,2.4L93.1,2.9z" stroke="none"/><path d="M45,11.9L45,12.1L44.1,12.1L44.1,12.6L41.6,12.6L41.6,13.1L24.9,13.1L24.9,12.6L24.4,12.6L24.4,8.9L25.9,8.9L25.9,8.4L28.4,8.4L28.4,7.9L29.4,7.9L29.4,7.4L30,7.4L30,7.6L29.6,7.6L29.6,8.1L28.6,8.1L28.6,8.6L26.1,8.6L26.1,9.1L24.6,9.1L24.6,12.4L25.1,12.4L25.1,12.9L41.4,12.9L41.4,12.4L43.9,12.4L43.9,11.9z" stroke="none"/><path d="M54,5.9L54,6.1L27.6,6.1L27.6,6.6L27.1,6.6L27.1,8.1L24.1,8.1L24.1,12.9L24.6,12.9L24.6,13.4L92.9,13.4L92.9,10.6L86.4,10.6L86.4,10.1L85.9,10.1L85.9,9.6L78.4,9.6L78.4,8.6L77.9,8.6L77.9,8.1L75.9,8.1L75.9,7.6L75,7.6L75,7.4L76.1,7.4L76.1,7.9L78.1,7.9L78.1,8.4L78.6,8.4L78.6,9.4L86.1,9.4L86.1,9.9L86.6,9.9L86.6,10.4L93.1,10.4L93.1,13.6L24.4,13.6L24.4,13.1L23.9,13.1L23.9,7.9L26.9,7.9L26.9,6.4L27.4,6.4L27.4,5.9z" stroke="none"/><path d="M88.5,4.4L88.5,4.6L87.1,4.6L87.1,5.1L86.6,5.1L86.6,5.6L84.4,5.6L84.4,5.1L83.6,5.1L83.6,5.6L83.1,5.6L83.1,7.9L85.1,7.9L85.1,8.9L93.6,8.9L93.6,14.1L23.9,14.1L23.9,13.6L23.4,13.6L23.4,7.4L23.9,7.4L23.9,6.9L24.4,6.9L24.4,5.4L53.4,5.4L53.4,4.9L56.1,4.9L56.1,5.4L56.6,5.4L56.6,5.9L57,5.9L57,6.1L56.4,6.1L56.4,5.6L55.9,5.6L55.9,5.1L53.6,5.1L53.6,5.6L24.6,5.6L24.6,7.1L24.1,7.1L24.1,7.6L23.6,7.6L23.6,13.4L24.1,13.4L24.1,13.9L93.4,13.9L93.4,9.1L84.9,9.1L84.9,8.1L82.9,8.1L82.9,5.4L83.4,5.4L83.4,4.9L84.6,4.9L84.6,5.4L86.4,5.4L86.4,4.9L86.9,4.9L86.9,4.4z" stroke="none"/><path d="M95.9,7.5L96.1,7.5L96.1,8.1L95.6,8.1L95.6,8.6L95.1,8.6L95.1,9.4L95.6,9.4L95.6,9.9L102.4,9.9L102.4,9.4L102.9,9.4L102.9,2.6L102.4,2.6L102.4,2.1L93.4,2.1L93.4,1.6L65.6,1.6L65.6,2.1L65.1,2.1L65.1,2.6L64.6,2.6L64.6,3L64.4,3L64.4,2.4L64.9,2.4L64.9,1.9L65.4,1.9L65.4,1.4L93.6,1.4L93.6,1.9L102.6,1.9L102.6,2.4L103.1,2.4L103.1,9.6L102.6,9.6L102.6,10.1L95.4,10.1L95.4,9.6L94.9,9.6L94.9,8.4L95.4,8.4L95.4,7.9L95.9,7.9z" stroke="none"/></svg>