<svg version="1.1" width="105" height="15" xmlns="http://www.w3.org/2000/svg"><path d="M51.1,9.4L51.1,10.4L52.5,10.4L52.5,10.6L50.9,10.6L50.9,9.6L45.1,9.6L45.1,10.1L37.4,10.1L37.4,9L37.6,9L37.6,9.9L44.9,9.9L44.9,9.6L43.4,9.6L43.4,9L43.6,9L43.6,9.4z" stroke="none"/><path d="M43.9,6.4L43.9,5.4L44.9,5.4L44.9,4.5L45.1,4.5L45.1,5.6L44.1,5.6L44.1,6.6L23.1,6.6L23.1,7.1L19.6,7.1L19.6,9L19.4,9L19.4,6.9L22.9,6.9L22.9,6.6L14.1,6.6L14.1,7.1L9.1,7.1L9.1,8.1L8.6,8.1L8.6,8.6L6.6,8.6L6.6,9.1L6,9.1L6,8.9L6.4,8.9L6.4,8.4L8.4,8.4L8.4,7.9L8.9,7.9L8.9,6.9L13.9,6.9L13.9,6.4z" stroke="none"/><path d="M29.9,4.4L29.9,3.9L42.9,3.9L42.9,2.9L43.5,2.9L43.5,3.1L43.1,3.1L43.1,4.1L30.1,4.1L30.1,4.4L36,4.4L36,4.6L29.6,4.6L29.6,5.6L10.6,5.6L10.6,6L10.4,6L10.4,5.4L29.4,5.4L29.4,4.4z" stroke="none"/><path d="M48.9,6.4L48.9,5.9L52.9,5.9L52.9,5.4L53.4,5.4L53.4,4.9L60.6,4.9L60.6,5.4L61.1,5.4L61.1,5.9L61.5,5.9L61.5,6.1L60.9,6.1L60.9,5.6L60.4,5.6L60.4,5.1L53.6,5.1L53.6,5.6L53.1,5.6L53.1,6.1L49.1,6.1L49.1,6.4L53.1,6.4L53.1,6.9L56.1,6.9L56.1,7.4L56.6,7.4L56.6,7.9L57.6,7.9L57.6,8.4L58.1,8.4L58.1,8.9L59.1,8.9L59.1,9.9L59.6,9.9L59.6,10.4L60,10.4L60,10.6L59.4,10.6L59.4,10.1L58.9,10.1L58.9,9.1L57.9,9.1L57.9,8.6L57.4,8.6L57.4,8.1L56.4,8.1L56.4,7.6L55.9,7.6L55.9,7.1L52.9,7.1L52.9,6.6L49.1,6.6L49.1,7.1L48.1,7.1L48.1,7.5L47.9,7.5L47.9,6.9L48.9,6.9L48.9,6.6L45.1,6.6L45.1,7.1L24.1,7.1L24.1,7.5L23.9,7.5L23.9,6.9L44.9,6.9L44.9,6.4z" stroke="none"/><path d="M72.4,5.4L72.4,4.4L72.9,4.4L72.9,3.9L74.4,3.9L74.4,3.4L74.9,3.4L74.9,3L75.1,3L75.1,3.6L74.6,3.6L74.6,4.1L73.1,4.1L73.1,4.6L72.6,4.6L72.6,5.4L72.9,5.4L72.9,4.9L73.4,4.9L73.4,4.5L73.6,4.5L73.6,5.1L73.1,5.1L73.1,5.6L72.6,5.6L72.6,6.4L73.6,6.4L73.6,6.9L75.9,6.9L75.9,6.4L80.6,6.4L80.6,6.9L82.9,6.9L82.9,6.4L92.6,6.4L92.6,6.9L93.1,6.9L93.1,7.5L92.9,7.5L92.9,7.1L92.4,7.1L92.4,6.6L83.1,6.6L83.1,7.1L80.4,7.1L80.4,6.6L76.1,6.6L76.1,7.1L73.4,7.1L73.4,6.6L72.4,6.6L72.4,5.6L66.1,5.6L66.1,6.1L65.1,6.1L65.1,6.6L62.1,6.6L62.1,7.1L59.9,7.1L59.9,6.6L55.9,6.6L55.9,6.1L54,6.1L54,5.9L56.1,5.9L56.1,6.4L60.1,6.4L60.1,6.9L61.9,6.9L61.9,6.4L64.9,6.4L64.9,5.9L65.9,5.9L65.9,5.4z" stroke="none"/><path d="M76.9,4.4L76.9,3.9L78.4,3.9L78.4,3.4L79.9,3.4L79.9,2.9L84.9,2.9L84.9,2.4L87.6,2.4L87.6,2.9L91.1,2.9L91.1,3.4L92.1,3.4L92.1,3.9L95.1,3.9L95.1,4.4L95.6,4.4L95.6,5.4L96.6,5.4L96.6,6.4L97.1,6.4L97.1,7.4L97.5,7.4L97.5,7.6L96.9,7.6L96.9,6.6L96.4,6.6L96.4,5.6L95.4,5.6L95.4,4.6L94.9,4.6L94.9,4.1L91.9,4.1L91.9,3.6L90.9,3.6L90.9,3.1L87.4,3.1L87.4,2.6L85.1,2.6L85.1,3.1L80.1,3.1L80.1,3.6L78.6,3.6L78.6,4.1L77.1,4.1L77.1,4.4L79.9,4.4L79.9,3.9L80.4,3.9L80.4,3.4L85.4,3.4L85.4,2.9L87,2.9L87,3.1L85.6,3.1L85.6,3.6L80.6,3.6L80.6,4.1L80.1,4.1L80.1,4.6L77.1,4.6L77.1,5.1L76.1,5.1L76.1,6.1L75,6.1L75,5.9L75.9,5.9L75.9,4.9L76.9,4.9L76.9,4.6L76.4,4.6L76.4,2.1L52.1,2.1L52.1,2.6L50.1,2.6L50.1,3.1L49.5,3.1L49.5,2.9L49.9,2.9L49.9,2.4L51.9,2.4L51.9,1.9L76.6,1.9L76.6,4.4z" stroke="none"/><path d="M6,6.1L6,5.9L6.9,5.9L6.9,4.9L7.4,4.9L7.4,4.5L7.6,4.5L7.6,5.1L7.1,5.1L7.1,6.1z" stroke="none"/><path d="M85.5,4.6L85.5,4.4L88.5,4.4L88.5,4.6z" stroke="none"/><path d="M18,7.4L18,7.6L16.1,7.6L16.1,8.6L15.1,8.6L15.1,9L14.9,9L14.9,8.4L15.9,8.4L15.9,7.4z" stroke="none"/><path d="M7.5,12.1L7.5,11.9L8.6,11.9L8.6,12.4L10.1,12.4L10.1,12.9L10.9,12.9L10.9,12.4L11.9,12.4L11.9,12L12.1,12L12.1,12.6L11.1,12.6L11.1,13.1L9.9,13.1L9.9,12.6L8.4,12.6L8.4,12.1z" stroke="none"/><path d="M6,12.1L6,11.9L6.4,11.9L6.4,11.4L6.9,11.4L6.9,10.9L8.9,10.9L8.9,10.4L10.5,10.4L10.5,10.6L9.1,10.6L9.1,11.1L7.1,11.1L7.1,11.6L6.6,11.6L6.6,12.1z" stroke="none"/><path d="M82.6,12L82.4,12L82.4,11.6L81.9,11.6L81.9,11.1L80.9,11.1L80.9,10.1L80.4,10.1L80.4,9.1L79.9,9.1L79.9,8.1L79.4,8.1L79.4,7.5L79.6,7.5L79.6,7.9L80.1,7.9L80.1,8.9L80.6,8.9L80.6,9.9L81.1,9.9L81.1,10.9L82.1,10.9L82.1,11.4L82.6,11.4z" stroke="none"/><path d="M10.5,12.1L10.5,11.9L10.9,11.9L10.9,10.9L11.4,10.9L11.4,10.1L10.9,10.1L10.9,9.6L7.1,9.6L7.1,10.1L4.9,10.1L4.9,8.4L5.4,8.4L5.4,7.9L6.9,7.9L6.9,7.4L7.5,7.4L7.5,7.6L7.1,7.6L7.1,8.1L5.6,8.1L5.6,8.6L5.1,8.6L5.1,9.9L6.9,9.9L6.9,9.4L11.1,9.4L11.1,9.9L11.6,9.9L11.6,11.1L11.1,11.1L11.1,12.1z" stroke="none"/><path d="M84,7.6L84,7.4L90,7.4L90,7.6z" stroke="none"/><path d="M21,10.4L21,10.6L18.1,10.6L18.1,11.1L16.1,11.1L16.1,11.6L15.6,11.6L15.6,12.1L15,12.1L15,11.9L15.4,11.9L15.4,11.4L15.9,11.4L15.9,10.9L17.9,10.9L17.9,10.4z" stroke="none"/><path d="M100.5,4.4L100.5,4.6L96.4,4.6L96.4,3.6L94.4,3.6L94.4,3.1L93,3.1L93,2.9L94.6,2.9L94.6,3.4L96.6,3.4L96.6,4.4z" stroke="none"/><path d="M28.5,4.4L28.5,4.6L19.5,4.6L19.5,4.4z" stroke="none"/><path d="M72,12.1L72,11.9L81,11.9L81,12.1z" stroke="none"/><path d="M88.5,10.6L88.5,10.4L97.5,10.4L97.5,10.6z" stroke="none"/><path d="M52.5,2.9L52.5,3.1L50.6,3.1L50.6,3.6L50.1,3.6L50.1,4.1L47.4,4.1L47.4,2.1L42.6,2.1L42.6,2.6L42.1,2.6L42.1,3L41.9,3L41.9,2.4L42.4,2.4L42.4,1.9L47.6,1.9L47.6,3.9L49.9,3.9L49.9,3.4L50.4,3.4L50.4,2.9z" stroke="none"/><path d="M15,10.4L15,10.6L14.1,10.6L14.1,12.4L14.6,12.4L14.6,12.9L15.9,12.9L15.9,12.4L19.4,12.4L19.4,11.9L21.4,11.9L21.4,10.9L26.4,10.9L26.4,10.4L27,10.4L27,10.6L26.6,10.6L26.6,11.1L21.6,11.1L21.6,12.1L19.6,12.1L19.6,12.6L16.1,12.6L16.1,13.1L14.4,13.1L14.4,12.6L13.9,12.6L13.9,10.4z" stroke="none"/><path d="M56.9,9L57.1,9L57.1,10.6L56.6,10.6L56.6,11.1L56.1,11.1L56.1,13.1L45.4,13.1L45.4,12.6L44.9,12.6L44.9,12L45.1,12L45.1,12.4L45.6,12.4L45.6,12.9L55.9,12.9L55.9,10.9L56.4,10.9L56.4,10.4L56.9,10.4z" stroke="none"/><path d="M85.4,10.5L85.6,10.5L85.6,11.6L84.1,11.6L84.1,12.1L83.6,12.1L83.6,13.1L71.4,13.1L71.4,12.6L70.9,12.6L70.9,11.4L71.4,11.4L71.4,10.9L71.9,10.9L71.9,10.5L72.1,10.5L72.1,11.1L71.6,11.1L71.6,11.6L71.1,11.6L71.1,12.4L71.6,12.4L71.6,12.9L83.4,12.9L83.4,11.9L83.9,11.9L83.9,11.4L85.4,11.4z" stroke="none"/><path d="M81,6.1L81,5.9L93.1,5.9L93.1,6.4L93.6,6.4L93.6,6.9L94.1,6.9L94.1,8.1L93.6,8.1L93.6,8.6L88.1,8.6L88.1,9.6L87.6,9.6L87.6,11.1L87.1,11.1L87.1,12.1L86.6,12.1L86.6,12.6L85.6,12.6L85.6,13.6L70.4,13.6L70.4,11.6L69.9,11.6L69.9,11.1L68.4,11.1L68.4,10.6L67.9,10.6L67.9,10.1L66.9,10.1L66.9,8.1L66.4,8.1L66.4,7.6L66,7.6L66,7.4L66.6,7.4L66.6,7.9L67.1,7.9L67.1,9.9L68.1,9.9L68.1,10.4L68.6,10.4L68.6,10.9L70.1,10.9L70.1,11.4L70.6,11.4L70.6,13.4L85.4,13.4L85.4,12.4L86.4,12.4L86.4,11.9L86.9,11.9L86.9,10.9L87.4,10.9L87.4,9.4L87.9,9.4L87.9,8.4L93.4,8.4L93.4,7.9L93.9,7.9L93.9,7.1L93.4,7.1L93.4,6.6L92.9,6.6L92.9,6.1z" stroke="none"/><path d="M33,2.9L33,3.1L19.1,3.1L19.1,4.1L18.6,4.1L18.6,4.6L18,4.6L18,4.4L18.4,4.4L18.4,3.9L18.9,3.9L18.9,2.9z" stroke="none"/><path d="M81,4.6L81,4.4L84.6,4.4L84.6,5.4L93.6,5.4L93.6,5.9L95.1,5.9L95.1,7.9L97.1,7.9L97.1,8.4L98.1,8.4L98.1,9.4L98.6,9.4L98.6,11.6L87.6,11.6L87.6,12.6L87.1,12.6L87.1,13.1L86.6,13.1L86.6,14.1L67.4,14.1L67.4,13.6L66.9,13.6L66.9,12.6L65.9,12.6L65.9,12.1L64.4,12.1L64.4,10.1L63.4,10.1L63.4,9.6L62.9,9.6L62.9,9L63.1,9L63.1,9.4L63.6,9.4L63.6,9.9L64.6,9.9L64.6,11.9L66.1,11.9L66.1,12.4L67.1,12.4L67.1,13.4L67.6,13.4L67.6,13.9L86.4,13.9L86.4,12.9L86.9,12.9L86.9,12.4L87.4,12.4L87.4,11.4L98.4,11.4L98.4,9.6L97.9,9.6L97.9,8.6L96.9,8.6L96.9,8.1L94.9,8.1L94.9,6.1L93.4,6.1L93.4,5.6L84.4,5.6L84.4,4.6z" stroke="none"/><path d="M43.5,4.6L43.5,4.4L43.9,4.4L43.9,3.4L46.1,3.4L46.1,4.4L70.5,4.4L70.5,4.6L45.9,4.6L45.9,3.6L44.1,3.6L44.1,4.6z" stroke="none"/><path d="M52.5,8.9L52.5,9.1L44.4,9.1L44.4,8.6L43.9,8.6L43.9,8.1L29.6,8.1L29.6,8.6L29.1,8.6L29.1,11.6L25.6,11.6L25.6,12L25.4,12L25.4,11.4L28.9,11.4L28.9,8.4L29.4,8.4L29.4,7.9L44.1,7.9L44.1,8.4L44.6,8.4L44.6,8.9z" stroke="none"/><path d="M21,9.1L21,8.9L28.4,8.9L28.4,7.9L28.9,7.9L28.9,7.4L46.6,7.4L46.6,8.4L51.9,8.4L51.9,7.9L53.6,7.9L53.6,11.1L53.1,11.1L53.1,11.6L52.6,11.6L52.6,12L52.4,12L52.4,11.4L52.9,11.4L52.9,10.9L53.4,10.9L53.4,8.1L52.1,8.1L52.1,8.6L46.4,8.6L46.4,7.6L29.1,7.6L29.1,8.1L28.6,8.1L28.6,9.1z" stroke="none"/><path d="M30,10.6L30,10.4L42.1,10.4L42.1,10.9L43.6,10.9L43.6,11.9L44.1,11.9L44.1,12.4L44.6,12.4L44.6,13.4L56.4,13.4L56.4,12.9L56.9,12.9L56.9,11.4L60.4,11.4L60.4,10.9L60.9,10.9L60.9,9.4L61.4,9.4L61.4,8.9L61.9,8.9L61.9,8.4L62.4,8.4L62.4,7.9L64.9,7.9L64.9,6.9L65.4,6.9L65.4,6.4L69.6,6.4L69.6,6.9L71.1,6.9L71.1,7.4L74.1,7.4L74.1,9.9L75.1,9.9L75.1,10.5L74.9,10.5L74.9,10.1L73.9,10.1L73.9,7.6L70.9,7.6L70.9,7.1L69.4,7.1L69.4,6.6L65.6,6.6L65.6,7.1L65.1,7.1L65.1,8.1L62.6,8.1L62.6,8.6L62.1,8.6L62.1,9.1L61.6,9.1L61.6,9.6L61.1,9.6L61.1,11.1L60.6,11.1L60.6,11.6L57.1,11.6L57.1,13.1L56.6,13.1L56.6,13.6L44.4,13.6L44.4,12.6L43.9,12.6L43.9,12.1L43.4,12.1L43.4,11.1L41.9,11.1L41.9,10.6z" stroke="none"/></svg>