<svg version="1.1" width="105" height="15" xmlns="http://www.w3.org/2000/svg"><path d="M26.9,8.9L26.9,7.9L28.4,7.9L28.4,7.5L28.6,7.5L28.6,8.1L27.1,8.1L27.1,10.5L26.9,10.5L26.9,9.1L26.6,9.1L26.6,9.6L25.6,9.6L25.6,10.5L25.4,10.5L25.4,9.4L26.4,9.4L26.4,8.9z" stroke="none"/><path d="M10.4,9.9L10.4,9.6L8.1,9.6L8.1,10.1L6.4,10.1L6.4,9.1L4.5,9.1L4.5,8.9L6.6,8.9L6.6,9.9L7.9,9.9L7.9,9.4L10.6,9.4L10.6,9.9L11.4,9.9L11.4,9.4L17.6,9.4L17.6,9.9L19.1,9.9L19.1,10.4L19.5,10.4L19.5,10.6L18.9,10.6L18.9,10.1L17.4,10.1L17.4,9.6L11.6,9.6L11.6,10.1L8.6,10.1L8.6,10.6L7.5,10.6L7.5,10.4L8.4,10.4L8.4,9.9z" stroke="none"/><path d="M82.4,8.4L82.4,8.1L70.1,8.1L70.1,8.6L69.1,8.6L69.1,9L68.9,9L68.9,8.4L69.9,8.4L69.9,7.9L82.6,7.9L82.6,8.4L84.4,8.4L84.4,7.4L87.4,7.4L87.4,6.9L87.9,6.9L87.9,6.4L98.4,6.4L98.4,5.9L99,5.9L99,6.1L98.6,6.1L98.6,6.6L88.1,6.6L88.1,7.1L87.6,7.1L87.6,7.6L84.6,7.6L84.6,8.6L82.1,8.6L82.1,9.6L81.6,9.6L81.6,10.1L79.6,10.1L79.6,10.6L78,10.6L78,10.4L79.4,10.4L79.4,9.9L81.4,9.9L81.4,9.4L81.9,9.4L81.9,8.4z" stroke="none"/><path d="M52.4,7.4L52.4,6.9L54.1,6.9L54.1,7.9L54.6,7.9L54.6,10.9L55.6,10.9L55.6,11.4L60.9,11.4L60.9,10.9L62.6,10.9L62.6,11.4L72.9,11.4L72.9,10.4L75.9,10.4L75.9,9.9L76.9,9.9L76.9,9.4L77.9,9.4L77.9,8.9L81,8.9L81,9.1L78.1,9.1L78.1,9.6L77.1,9.6L77.1,10.1L76.1,10.1L76.1,10.6L73.1,10.6L73.1,11.6L62.4,11.6L62.4,11.1L61.1,11.1L61.1,11.6L55.4,11.6L55.4,11.1L54.4,11.1L54.4,8.1L53.9,8.1L53.9,7.1L52.6,7.1L52.6,7.4L53.6,7.4L53.6,8.4L54.1,8.4L54.1,9L53.9,9L53.9,8.6L53.4,8.6L53.4,7.6L52.6,7.6L52.6,8.1L38.4,8.1L38.4,7.1L37.9,7.1L37.9,6.1L36,6.1L36,5.9L38.1,5.9L38.1,6.9L38.6,6.9L38.6,7.9L52.4,7.9L52.4,7.6L38.9,7.6L38.9,6L39.1,6L39.1,7.4z" stroke="none"/><path d="M28.4,5.9L28.4,5.6L13.6,5.6L13.6,6.1L13.1,6.1L13.1,6.6L12.6,6.6L12.6,7.1L12.1,7.1L12.1,7.6L10.5,7.6L10.5,7.4L11.9,7.4L11.9,6.9L12.4,6.9L12.4,6.4L12.9,6.4L12.9,5.9L13.4,5.9L13.4,5.4L28.6,5.4L28.6,5.9L29.4,5.9L29.4,4.9L29.9,4.9L29.9,4.5L30.1,4.5L30.1,5.1L29.6,5.1L29.6,6.1L28.6,6.1L28.6,6.4L32.4,6.4L32.4,5.9L33.4,5.9L33.4,5.4L33.9,5.4L33.9,4.9L34.4,4.9L34.4,4.4L35.9,4.4L35.9,3.9L36.4,3.9L36.4,3.4L53.6,3.4L53.6,4.4L54,4.4L54,4.6L53.4,4.6L53.4,3.6L36.6,3.6L36.6,4.1L36.1,4.1L36.1,4.6L34.6,4.6L34.6,5.1L34.1,5.1L34.1,5.6L33.6,5.6L33.6,6.1L32.6,6.1L32.6,6.6L28.4,6.6L28.4,6.1L24.1,6.1L24.1,6.6L21.6,6.6L21.6,7.1L20.6,7.1L20.6,7.6L20.1,7.6L20.1,8.6L19.6,8.6L19.6,9L19.4,9L19.4,8.4L19.9,8.4L19.9,7.4L20.4,7.4L20.4,6.9L21.4,6.9L21.4,6.4L23.9,6.4L23.9,5.9z" stroke="none"/><path d="M68.4,7.4L68.4,7.1L63.9,7.1L63.9,6.6L60.4,6.6L60.4,6.1L59.9,6.1L59.9,4.6L57,4.6L57,4.4L60.1,4.4L60.1,5.9L60.6,5.9L60.6,6.4L64.1,6.4L64.1,6.9L68.6,6.9L68.6,7.4L83.9,7.4L83.9,6.9L86.9,6.9L86.9,5.9L97.9,5.9L97.9,5.4L98.4,5.4L98.4,4.9L99.6,4.9L99.6,5.4L100.1,5.4L100.1,6.6L99.6,6.6L99.6,7.1L93.6,7.1L93.6,7.6L93.1,7.6L93.1,8.1L91.6,8.1L91.6,8.6L91.1,8.6L91.1,9.1L88.5,9.1L88.5,8.9L90.9,8.9L90.9,8.4L91.4,8.4L91.4,7.9L92.9,7.9L92.9,7.4L93.4,7.4L93.4,6.9L99.4,6.9L99.4,6.4L99.9,6.4L99.9,5.6L99.4,5.6L99.4,5.1L98.6,5.1L98.6,5.6L98.1,5.6L98.1,6.1L87.1,6.1L87.1,7.1L84.1,7.1L84.1,7.6L68.6,7.6L68.6,8.6L68.1,8.6L68.1,9.4L68.6,9.4L68.6,9.9L69.9,9.9L69.9,9.4L70.4,9.4L70.4,9L70.6,9L70.6,9.6L70.1,9.6L70.1,10.1L68.4,10.1L68.4,9.6L67.9,9.6L67.9,8.4L68.4,8.4L68.4,7.6L64.6,7.6L64.6,8.1L64.1,8.1L64.1,8.6L58.6,8.6L58.6,9L58.4,9L58.4,8.4L63.9,8.4L63.9,7.9L64.4,7.9L64.4,7.4z" stroke="none"/><path d="M64.5,10.6L64.5,10.4L67.5,10.4L67.5,10.6z" stroke="none"/><path d="M34.5,5.9L34.5,6.1L34.1,6.1L34.1,7.1L32.1,7.1L32.1,7.6L31.5,7.6L31.5,7.4L31.9,7.4L31.9,6.9L33.9,6.9L33.9,5.9z" stroke="none"/><path d="M63,10.4L63,10.6L58.5,10.6L58.5,10.4z" stroke="none"/><path d="M48,4.4L48,4.6L42,4.6L42,4.4z" stroke="none"/><path d="M21,10.6L21,10.4L22.1,10.4L22.1,10.9L25.1,10.9L25.1,11.4L29.4,11.4L29.4,10.9L29.9,10.9L29.9,10.5L30.1,10.5L30.1,11.1L29.6,11.1L29.6,11.6L24.9,11.6L24.9,11.1L21.9,11.1L21.9,10.6z" stroke="none"/><path d="M25.5,4.4L25.5,4.6L15,4.6L15,4.4z" stroke="none"/><path d="M7.5,9.1L7.5,8.9L18,8.9L18,9.1z" stroke="none"/><path d="M22.5,11.9L22.5,12.1L14.9,12.1L14.9,11.6L13.9,11.6L13.9,11.1L11.9,11.1L11.9,10.5L12.1,10.5L12.1,10.9L14.1,10.9L14.1,11.4L15.1,11.4L15.1,11.9z" stroke="none"/><path d="M78,4.6L78,4.4L81.4,4.4L81.4,3.9L81.9,3.9L81.9,3.4L100.1,3.4L100.1,4.9L100.6,4.9L100.6,7.1L100.1,7.1L100.1,7.6L94.6,7.6L94.6,8.1L93.6,8.1L93.6,8.6L92.1,8.6L92.1,9.1L91.6,9.1L91.6,10.1L87.4,10.1L87.4,7.9L87.9,7.9L87.9,7.4L88.5,7.4L88.5,7.6L88.1,7.6L88.1,8.1L87.6,8.1L87.6,9.9L91.4,9.9L91.4,8.9L91.9,8.9L91.9,8.4L93.4,8.4L93.4,7.9L94.4,7.9L94.4,7.4L99.9,7.4L99.9,6.9L100.4,6.9L100.4,5.1L99.9,5.1L99.9,3.6L82.1,3.6L82.1,4.1L81.6,4.1L81.6,4.6z" stroke="none"/><path d="M13.5,11.9L13.5,12.1L5.4,12.1L5.4,11.1L4.9,11.1L4.9,10.6L3.9,10.6L3.9,10.1L3.4,10.1L3.4,9.1L3,9.1L3,8.9L3.6,8.9L3.6,9.9L4.1,9.9L4.1,10.4L5.1,10.4L5.1,10.9L5.6,10.9L5.6,11.9z" stroke="none"/><path d="M49.5,4.4L49.5,4.6L49.1,4.6L49.1,5.1L48.6,5.1L48.6,5.6L39.4,5.6L39.4,5.1L38.4,5.1L38.4,4.6L37.5,4.6L37.5,4.4L38.6,4.4L38.6,4.9L39.6,4.9L39.6,5.4L48.4,5.4L48.4,4.9L48.9,4.9L48.9,4.4z" stroke="none"/><path d="M49.5,11.9L49.5,12.1L40.4,12.1L40.4,11.6L39.4,11.6L39.4,11.1L38.9,11.1L38.9,9.6L37.9,9.6L37.9,8.6L37.4,8.6L37.4,7.5L37.6,7.5L37.6,8.4L38.1,8.4L38.1,9.4L39.1,9.4L39.1,10.9L39.6,10.9L39.6,11.4L40.6,11.4L40.6,11.9z" stroke="none"/><path d="M63,7.4L63,7.6L56.4,7.6L56.4,6.6L49.4,6.6L49.4,6L49.6,6L49.6,6.4L56.6,6.4L56.6,7.4z" stroke="none"/><path d="M35.9,9L36.1,9L36.1,10.4L36.6,10.4L36.6,10.9L37.1,10.9L37.1,11.4L38.6,11.4L38.6,11.9L39.6,11.9L39.6,12.4L49.1,12.4L49.1,12.9L50.4,12.9L50.4,12.4L50.9,12.4L50.9,12L51.1,12L51.1,12.6L50.6,12.6L50.6,13.1L48.9,13.1L48.9,12.6L39.4,12.6L39.4,12.1L38.4,12.1L38.4,11.6L36.9,11.6L36.9,11.1L36.4,11.1L36.4,10.6L35.9,10.6z" stroke="none"/><path d="M30,11.9L30,12.1L23.6,12.1L23.6,13.1L3.9,13.1L3.9,12.1L3.4,12.1L3.4,10.6L2.9,10.6L2.9,10.1L2.4,10.1L2.4,9.6L1.9,9.6L1.9,8.4L2.4,8.4L2.4,7.9L10.1,7.9L10.1,8.4L11.9,8.4L11.9,7.9L12.9,7.9L12.9,7.4L13.5,7.4L13.5,7.6L13.1,7.6L13.1,8.1L12.1,8.1L12.1,8.6L9.9,8.6L9.9,8.1L2.6,8.1L2.6,8.6L2.1,8.6L2.1,9.4L2.6,9.4L2.6,9.9L3.1,9.9L3.1,10.4L3.6,10.4L3.6,11.9L4.1,11.9L4.1,12.9L23.4,12.9L23.4,11.9z" stroke="none"/><path d="M12,5.9L12,6.1L10.1,6.1L10.1,7.1L2.1,7.1L2.1,8.1L1.6,8.1L1.6,9.9L2.1,9.9L2.1,10.4L2.6,10.4L2.6,11.4L3.1,11.4L3.1,12.9L3.6,12.9L3.6,13.4L28.9,13.4L28.9,12.9L30.4,12.9L30.4,12.4L30.9,12.4L30.9,9.6L29.6,9.6L29.6,10.1L29.1,10.1L29.1,10.6L28.5,10.6L28.5,10.4L28.9,10.4L28.9,9.9L29.4,9.9L29.4,9.4L31.1,9.4L31.1,12.6L30.6,12.6L30.6,13.1L29.1,13.1L29.1,13.6L3.4,13.6L3.4,13.1L2.9,13.1L2.9,11.6L2.4,11.6L2.4,10.6L1.9,10.6L1.9,10.1L1.4,10.1L1.4,7.9L1.9,7.9L1.9,6.9L9.9,6.9L9.9,5.9z" stroke="none"/><path d="M102,4.4L102,4.6L101.4,4.6L101.4,4.1L100.9,4.1L100.9,3.6L100.4,3.6L100.4,3.1L78.6,3.1L78.6,3.6L77.1,3.6L77.1,4.9L77.6,4.9L77.6,5.4L81.9,5.4L81.9,4.4L82.5,4.4L82.5,4.6L82.1,4.6L82.1,5.6L77.4,5.6L77.4,5.1L76.9,5.1L76.9,3.4L78.4,3.4L78.4,2.9L100.6,2.9L100.6,3.4L101.1,3.4L101.1,3.9L101.6,3.9L101.6,4.4z" stroke="none"/><path d="M61.5,12.1L61.5,11.9L85.5,11.9L85.5,12.1z" stroke="none"/><path d="M9,6.1L9,5.9L9.4,5.9L9.4,5.4L10.9,5.4L10.9,4.9L12.4,4.9L12.4,4.4L13.4,4.4L13.4,3.9L14.4,3.9L14.4,3.4L23.6,3.4L23.6,3.9L24.9,3.9L24.9,3.4L31.4,3.4L31.4,2.9L34.5,2.9L34.5,3.1L31.6,3.1L31.6,3.6L25.1,3.6L25.1,4.1L23.4,4.1L23.4,3.6L14.6,3.6L14.6,4.1L13.6,4.1L13.6,4.6L12.6,4.6L12.6,5.1L11.1,5.1L11.1,5.6L9.6,5.6L9.6,6.1z" stroke="none"/><path d="M100.6,9L100.4,9L100.4,7.9L100.9,7.9L100.9,5.9L101.9,5.9L101.9,5.4L102.9,5.4L102.9,3.6L101.4,3.6L101.4,2.6L75.6,2.6L75.6,3.6L75.1,3.6L75.1,4.5L74.9,4.5L74.9,3.4L75.4,3.4L75.4,2.4L101.6,2.4L101.6,3.4L103.1,3.4L103.1,5.6L102.1,5.6L102.1,6.1L101.1,6.1L101.1,8.1L100.6,8.1z" stroke="none"/><path d="M97.5,4.4L97.5,4.6L85.1,4.6L85.1,5.1L84.6,5.1L84.6,5.6L82.6,5.6L82.6,6.1L61.4,6.1L61.4,5.6L60.9,5.6L60.9,4.1L57.4,4.1L57.4,3.6L56.6,3.6L56.6,4.1L56.1,4.1L56.1,5.4L56.6,5.4L56.6,5.9L58.5,5.9L58.5,6.1L56.4,6.1L56.4,5.6L55.9,5.6L55.9,3.9L56.4,3.9L56.4,3.4L57.6,3.4L57.6,3.9L61.1,3.9L61.1,5.4L61.6,5.4L61.6,5.9L82.4,5.9L82.4,5.4L84.4,5.4L84.4,4.9L84.9,4.9L84.9,4.4z" stroke="none"/><path d="M63,4.4L63,4.6L61.9,4.6L61.9,4.1L61.4,4.1L61.4,3.6L57.9,3.6L57.9,3.1L35.9,3.1L35.9,2.6L35.4,2.6L35.4,2.1L26.1,2.1L26.1,2.6L24.1,2.6L24.1,3L23.9,3L23.9,2.4L25.9,2.4L25.9,1.9L35.6,1.9L35.6,2.4L36.1,2.4L36.1,2.9L58.1,2.9L58.1,3.4L61.6,3.4L61.6,3.9L62.1,3.9L62.1,4.4z" stroke="none"/><path d="M91.5,11.9L91.5,12.1L87.1,12.1L87.1,12.6L86.6,12.6L86.6,13.1L53.4,13.1L53.4,11.6L52.9,11.6L52.9,10.6L52.5,10.6L52.5,10.4L53.1,10.4L53.1,11.4L53.6,11.4L53.6,12.9L86.4,12.9L86.4,12.4L86.9,12.4L86.9,11.9z" stroke="none"/><path d="M97.5,8.9L97.5,9.1L94.6,9.1L94.6,10.1L94.1,10.1L94.1,10.6L93.6,10.6L93.6,11.1L93.1,11.1L93.1,12.6L92.1,12.6L92.1,13.1L87.1,13.1L87.1,13.6L52.9,13.6L52.9,12.6L52.4,12.6L52.4,11.6L51.9,11.6L51.9,11.1L50.9,11.1L50.9,9.6L49.9,9.6L49.9,9.1L49.5,9.1L49.5,8.9L50.1,8.9L50.1,9.4L51.1,9.4L51.1,10.9L52.1,10.9L52.1,11.4L52.6,11.4L52.6,12.4L53.1,12.4L53.1,13.4L86.9,13.4L86.9,12.9L91.9,12.9L91.9,12.4L92.9,12.4L92.9,10.9L93.4,10.9L93.4,10.4L93.9,10.4L93.9,9.9L94.4,9.9L94.4,8.9z" stroke="none"/></svg>