<svg version="1.1" width="105" height="15" xmlns="http://www.w3.org/2000/svg"><path d="M76.4,7.4L76.4,6.9L81.9,6.9L81.9,6.4L88.9,6.4L88.9,5.9L93,5.9L93,6.1L89.1,6.1L89.1,6.6L82.1,6.6L82.1,7.1L76.6,7.1L76.6,7.4L78,7.4L78,7.6L76.1,7.6L76.1,8.1L75.6,8.1L75.6,9.1L74.6,9.1L74.6,9.6L74.1,9.6L74.1,10.1L64.1,10.1L64.1,10.6L61.5,10.6L61.5,10.4L63.9,10.4L63.9,9.9L73.9,9.9L73.9,9.4L74.4,9.4L74.4,8.9L75.4,8.9L75.4,7.9L75.9,7.9L75.9,7.4z" stroke="none"/><path d="M18.9,8.6L18.4,8.6L18.4,8.1L17.9,8.1L17.9,7.5L18.1,7.5L18.1,7.9L18.6,7.9L18.6,8.4L19.1,8.4L19.1,9.9L22.1,9.9L22.1,10.4L22.5,10.4L22.5,10.6L21.9,10.6L21.9,10.1L19.1,10.1L19.1,11.6L17.1,11.6L17.1,12.1L16.5,12.1L16.5,11.9L16.9,11.9L16.9,11.4L18.9,11.4z" stroke="none"/><path d="M34.4,4.4L34.4,3.9L42.9,3.9L42.9,3.4L44.6,3.4L44.6,3.9L49.6,3.9L49.6,4.4L51,4.4L51,4.6L49.4,4.6L49.4,4.1L44.4,4.1L44.4,3.6L43.1,3.6L43.1,4.1L34.6,4.1L34.6,4.4L37.6,4.4L37.6,5.4L38.1,5.4L38.1,5.9L39,5.9L39,6.1L37.9,6.1L37.9,5.6L37.4,5.6L37.4,4.6L33.9,4.6L33.9,4.1L33.4,4.1L33.4,3.6L32.1,3.6L32.1,4.1L13.4,4.1L13.4,3L13.6,3L13.6,3.9L31.9,3.9L31.9,3.4L33.6,3.4L33.6,3.9L34.1,3.9L34.1,4.4z" stroke="none"/><path d="M29.9,10.4L29.9,10.1L27.9,10.1L27.9,9.6L27.4,9.6L27.4,8.4L27.9,8.4L27.9,7.9L50.6,7.9L50.6,8.4L51.9,8.4L51.9,7.9L53.1,7.9L53.1,8.4L55.6,8.4L55.6,9L55.4,9L55.4,8.6L52.9,8.6L52.9,8.1L52.1,8.1L52.1,8.6L50.4,8.6L50.4,8.1L28.1,8.1L28.1,8.6L27.6,8.6L27.6,9.4L28.1,9.4L28.1,9.9L30.1,9.9L30.1,10.4L30.6,10.4L30.6,12.6L29.1,12.6L29.1,13.1L8.4,13.1L8.4,12.6L7.4,12.6L7.4,12L7.6,12L7.6,12.4L8.6,12.4L8.6,12.9L28.9,12.9L28.9,12.4L30.4,12.4L30.4,10.6L30.1,10.6L30.1,12L29.9,12L29.9,10.6L26.9,10.6L26.9,9L27.1,9L27.1,10.4z" stroke="none"/><path d="M34.4,10.4L34.4,9.9L38.1,9.9L38.1,10.9L38.6,10.9L38.6,11.4L46.1,11.4L46.1,11.9L48,11.9L48,12.1L45.9,12.1L45.9,11.6L38.4,11.6L38.4,11.1L37.9,11.1L37.9,10.1L34.6,10.1L34.6,10.4L35.1,10.4L35.1,10.9L36.1,10.9L36.1,11.4L36.6,11.4L36.6,11.9L37.5,11.9L37.5,12.1L36.4,12.1L36.4,11.6L35.9,11.6L35.9,11.1L34.9,11.1L34.9,10.6L34.6,10.6L34.6,11.4L35.6,11.4L35.6,11.9L36.1,11.9L36.1,12.4L40.4,12.4L40.4,11.9L45,11.9L45,12.1L40.6,12.1L40.6,12.6L35.9,12.6L35.9,12.1L35.4,12.1L35.4,11.6L34.4,11.6L34.4,10.6L32.6,10.6L32.6,11.1L32.1,11.1L32.1,11.6L31.6,11.6L31.6,13.1L31.1,13.1L31.1,13.6L7.9,13.6L7.9,13.1L6.4,13.1L6.4,9.4L6.9,9.4L6.9,8.4L7.4,8.4L7.4,7.9L7.9,7.9L7.9,7.4L9,7.4L9,7.6L8.1,7.6L8.1,8.1L7.6,8.1L7.6,8.6L7.1,8.6L7.1,9.6L6.6,9.6L6.6,12.9L8.1,12.9L8.1,13.4L30.9,13.4L30.9,12.9L31.4,12.9L31.4,11.4L31.9,11.4L31.9,10.9L32.4,10.9L32.4,10.4z" stroke="none"/><path d="M52.4,10.4L52.4,10.1L51.9,10.1L51.9,9.6L51.4,9.6L51.4,9.1L28.5,9.1L28.5,8.9L51.6,8.9L51.6,9.4L52.1,9.4L52.1,9.9L52.6,9.9L52.6,10.4L60.1,10.4L60.1,10.9L61.1,10.9L61.1,11.4L66.1,11.4L66.1,11.9L67.5,11.9L67.5,12.1L65.9,12.1L65.9,11.6L60.9,11.6L60.9,11.1L59.9,11.1L59.9,10.6L52.6,10.6L52.6,10.9L59.1,10.9L59.1,11.4L60.6,11.4L60.6,11.9L65.1,11.9L65.1,12.4L73.4,12.4L73.4,11.9L73.9,11.9L73.9,11.4L74.4,11.4L74.4,10.4L74.9,10.4L74.9,9.9L75.4,9.9L75.4,9.4L75.9,9.4L75.9,8.9L76.5,8.9L76.5,9.1L76.1,9.1L76.1,9.6L75.6,9.6L75.6,10.1L75.1,10.1L75.1,10.6L74.6,10.6L74.6,11.6L74.1,11.6L74.1,12.1L73.6,12.1L73.6,12.6L64.9,12.6L64.9,12.1L60.4,12.1L60.4,11.6L58.9,11.6L58.9,11.1L52.4,11.1L52.4,10.6L50.9,10.6L50.9,9.6L41.1,9.6L41.1,10.1L40.1,10.1L40.1,10.6L39,10.6L39,10.4L39.9,10.4L39.9,9.9L40.9,9.9L40.9,9.4L51.1,9.4L51.1,10.4z" stroke="none"/><path d="M81,8.9L81,9.1L80.6,9.1L80.6,10.1L80.1,10.1L80.1,10.6L79.5,10.6L79.5,10.4L79.9,10.4L79.9,9.9L80.4,9.9L80.4,8.9z" stroke="none"/><path d="M94.5,10.6L94.5,10.4L97.6,10.4L97.6,12L97.4,12L97.4,10.6z" stroke="none"/><path d="M99.1,10.5L98.9,10.5L98.9,9.9L99.4,9.9L99.4,8.4L100.4,8.4L100.4,7.5L100.6,7.5L100.6,8.6L99.6,8.6L99.6,10.1L99.1,10.1z" stroke="none"/><path d="M88.4,9L88.6,9L88.6,11.4L90.6,11.4L90.6,11.9L91.5,11.9L91.5,12.1L90.4,12.1L90.4,11.6L88.4,11.6z" stroke="none"/><path d="M97.4,7.5L97.6,7.5L97.6,9.9L98.1,9.9L98.1,11.4L98.6,11.4L98.6,12.6L98.1,12.6L98.1,13.1L96.9,13.1L96.9,12.6L96.4,12.6L96.4,12.1L96,12.1L96,11.9L96.6,11.9L96.6,12.4L97.1,12.4L97.1,12.9L97.9,12.9L97.9,12.4L98.4,12.4L98.4,11.6L97.9,11.6L97.9,10.1L97.4,10.1z" stroke="none"/><path d="M15,10.4L15,10.6L14.4,10.6L14.4,9.6L13.9,9.6L13.9,8.6L13.4,8.6L13.4,6L13.6,6L13.6,8.4L14.1,8.4L14.1,9.4L14.6,9.4L14.6,10.4z" stroke="none"/><path d="M56.9,3L57.1,3L57.1,6.4L58.1,6.4L58.1,6.9L58.6,6.9L58.6,7.4L60,7.4L60,7.6L58.4,7.6L58.4,7.1L57.9,7.1L57.9,6.6L56.9,6.6z" stroke="none"/><path d="M28.6,12L28.4,12L28.4,11.1L26.4,11.1L26.4,10.6L25.9,10.6L25.9,8.6L25.4,8.6L25.4,7.5L25.6,7.5L25.6,8.4L26.1,8.4L26.1,10.4L26.6,10.4L26.6,10.9L28.6,10.9z" stroke="none"/><path d="M79.5,3.1L79.5,2.9L83.6,2.9L83.6,3.9L84.1,3.9L84.1,4.4L85.5,4.4L85.5,4.6L83.9,4.6L83.9,4.1L83.4,4.1L83.4,3.1z" stroke="none"/><path d="M3,4.6L3,4.4L9.9,4.4L9.9,3.9L10.4,3.9L10.4,3.4L11.9,3.4L11.9,3L12.1,3L12.1,3.6L10.6,3.6L10.6,4.1L10.1,4.1L10.1,4.6z" stroke="none"/><path d="M100.5,4.4L100.5,4.6L90,4.6L90,4.4z" stroke="none"/><path d="M73.5,8.9L73.5,9.1L61.5,9.1L61.5,8.9z" stroke="none"/><path d="M85.5,10.6L85.5,10.4L85.9,10.4L85.9,9.4L87.4,9.4L87.4,7.9L92.9,7.9L92.9,7.4L93.9,7.4L93.9,6.9L94.4,6.9L94.4,6.4L98.6,6.4L98.6,7.4L99,7.4L99,7.6L98.4,7.6L98.4,6.6L94.6,6.6L94.6,7.1L94.1,7.1L94.1,7.6L93.1,7.6L93.1,8.1L87.6,8.1L87.6,9.6L86.1,9.6L86.1,10.6z" stroke="none"/><path d="M30,5.9L30,6.1L14.4,6.1L14.4,5.1L4.1,5.1L4.1,5.6L2.4,5.6L2.4,5.1L1.9,5.1L1.9,3.9L2.4,3.9L2.4,3.4L9.9,3.4L9.9,2.9L10.9,2.9L10.9,1.9L16.1,1.9L16.1,2.4L16.6,2.4L16.6,3L16.4,3L16.4,2.6L15.9,2.6L15.9,2.1L11.1,2.1L11.1,3.1L10.1,3.1L10.1,3.6L2.6,3.6L2.6,4.1L2.1,4.1L2.1,4.9L2.6,4.9L2.6,5.4L3.9,5.4L3.9,4.9L14.6,4.9L14.6,5.9z" stroke="none"/><path d="M82.5,7.6L82.5,7.4L91.9,7.4L91.9,6.9L93.4,6.9L93.4,6.4L93.9,6.4L93.9,5.9L99,5.9L99,6.1L94.1,6.1L94.1,6.6L93.6,6.6L93.6,7.1L92.1,7.1L92.1,7.6z" stroke="none"/><path d="M48,6.1L48,5.9L51.4,5.9L51.4,4.9L51.9,4.9L51.9,4.1L51.4,4.1L51.4,3.6L44.9,3.6L44.9,3.1L31.5,3.1L31.5,2.9L45.1,2.9L45.1,3.4L51.6,3.4L51.6,3.9L52.1,3.9L52.1,5.1L51.6,5.1L51.6,6.1z" stroke="none"/><path d="M75,7.4L75,7.6L61.6,7.6L61.6,8.1L61.1,8.1L61.1,8.6L58.6,8.6L58.6,9.1L57.1,9.1L57.1,9.6L56.1,9.6L56.1,10.1L53.4,10.1L53.4,9.6L52.9,9.6L52.9,9.1L52.5,9.1L52.5,8.9L53.1,8.9L53.1,9.4L53.6,9.4L53.6,9.9L55.9,9.9L55.9,9.4L56.9,9.4L56.9,8.9L58.4,8.9L58.4,8.4L60.9,8.4L60.9,7.9L61.4,7.9L61.4,7.4z" stroke="none"/><path d="M6.1,9L5.9,9L5.9,7.9L6.4,7.9L6.4,7.4L7.4,7.4L7.4,6.9L8.4,6.9L8.4,6.4L10.1,6.4L10.1,6.9L10.6,6.9L10.6,7.9L11.1,7.9L11.1,8.4L11.6,8.4L11.6,9.4L13.1,9.4L13.1,10.4L13.6,10.4L13.6,10.9L14.1,10.9L14.1,11.4L15.4,11.4L15.4,10.9L15.9,10.9L15.9,8.9L16.4,8.9L16.4,7.4L16.9,7.4L16.9,6.9L17.4,6.9L17.4,6.4L29.6,6.4L29.6,6.9L30.4,6.9L30.4,6.4L30.9,6.4L30.9,5.4L32.4,5.4L32.4,4.9L32.9,4.9L32.9,4.5L33.1,4.5L33.1,5.1L32.6,5.1L32.6,5.6L31.1,5.6L31.1,6.6L30.6,6.6L30.6,7.1L29.4,7.1L29.4,6.6L17.6,6.6L17.6,7.1L17.1,7.1L17.1,7.6L16.6,7.6L16.6,9.1L16.1,9.1L16.1,11.1L15.6,11.1L15.6,11.6L13.9,11.6L13.9,11.1L13.4,11.1L13.4,10.6L12.9,10.6L12.9,9.6L11.4,9.6L11.4,8.6L10.9,8.6L10.9,8.1L10.4,8.1L10.4,7.1L9.9,7.1L9.9,6.6L8.6,6.6L8.6,7.1L7.6,7.1L7.6,7.6L6.6,7.6L6.6,8.1L6.1,8.1z" stroke="none"/><path d="M81,11.9L81,12.1L75.1,12.1L75.1,12.6L74.1,12.6L74.1,13.1L52.4,13.1L52.4,12L52.6,12L52.6,12.9L73.9,12.9L73.9,12.4L74.9,12.4L74.9,11.9z" stroke="none"/><path d="M82.5,4.4L82.5,4.6L62.4,4.6L62.4,4.1L61.9,4.1L61.9,3.6L60.9,3.6L60.9,3.1L60.4,3.1L60.4,2.6L59.9,2.6L59.9,2.1L56.1,2.1L56.1,5.1L55.1,5.1L55.1,6.6L53.1,6.6L53.1,7.1L51.1,7.1L51.1,7.5L50.9,7.5L50.9,6.9L52.9,6.9L52.9,6.4L54.9,6.4L54.9,4.9L55.9,4.9L55.9,1.9L60.1,1.9L60.1,2.4L60.6,2.4L60.6,2.9L61.1,2.9L61.1,3.4L62.1,3.4L62.1,3.9L62.6,3.9L62.6,4.4z" stroke="none"/><path d="M97.5,2.9L97.5,3.1L83.9,3.1L83.9,2.6L79.9,2.6L79.9,2.1L64.1,2.1L64.1,2.6L63.1,2.6L63.1,3L62.9,3L62.9,2.4L63.9,2.4L63.9,1.9L80.1,1.9L80.1,2.4L84.1,2.4L84.1,2.9z" stroke="none"/><path d="M84,11.9L84,12.1L82.6,12.1L82.6,12.6L82.1,12.6L82.1,13.1L74.6,13.1L74.6,13.6L51.9,13.6L51.9,13.1L51.4,13.1L51.4,11.1L49.9,11.1L49.9,10.6L49.5,10.6L49.5,10.4L50.1,10.4L50.1,10.9L51.6,10.9L51.6,12.9L52.1,12.9L52.1,13.4L74.4,13.4L74.4,12.9L81.9,12.9L81.9,12.4L82.4,12.4L82.4,11.9z" stroke="none"/><path d="M96,7.4L96,7.6L95.6,7.6L95.6,8.1L94.6,8.1L94.6,8.6L94.1,8.6L94.1,9.1L93.6,9.1L93.6,11.4L95.1,11.4L95.1,12.9L95.6,12.9L95.6,13.4L98.9,13.4L98.9,11.4L99.4,11.4L99.4,10.9L99.9,10.9L99.9,9.4L100.4,9.4L100.4,8.9L100.9,8.9L100.9,7.9L101.4,7.9L101.4,7.1L100.9,7.1L100.9,6.6L99.9,6.6L99.9,5.6L99.4,5.6L99.4,5.1L91.1,5.1L91.1,5.6L60.4,5.6L60.4,4.6L60,4.6L60,4.4L60.6,4.4L60.6,5.4L90.9,5.4L90.9,4.9L99.6,4.9L99.6,5.4L100.1,5.4L100.1,6.4L101.1,6.4L101.1,6.9L101.6,6.9L101.6,8.1L101.1,8.1L101.1,9.1L100.6,9.1L100.6,9.6L100.1,9.6L100.1,11.1L99.6,11.1L99.6,11.6L99.1,11.6L99.1,13.6L95.4,13.6L95.4,13.1L94.9,13.1L94.9,11.6L93.4,11.6L93.4,8.9L93.9,8.9L93.9,8.4L94.4,8.4L94.4,7.9L95.4,7.9L95.4,7.4z" stroke="none"/><path d="M43.5,4.6L43.5,4.4L45.1,4.4L45.1,4.9L46.6,4.9L46.6,5.4L47.1,5.4L47.1,6.4L47.6,6.4L47.6,6.9L49.9,6.9L49.9,6.4L51.9,6.4L51.9,5.9L52.4,5.9L52.4,3.9L53.4,3.9L53.4,1.9L53.9,1.9L53.9,1.4L98.6,1.4L98.6,3.6L98.1,3.6L98.1,4.1L93.9,4.1L93.9,3.6L89.6,3.6L89.6,4.1L89.1,4.1L89.1,4.6L88.5,4.6L88.5,4.4L88.9,4.4L88.9,3.9L89.4,3.9L89.4,3.4L94.1,3.4L94.1,3.9L97.9,3.9L97.9,3.4L98.4,3.4L98.4,1.6L54.1,1.6L54.1,2.1L53.6,2.1L53.6,4.1L52.6,4.1L52.6,6.1L52.1,6.1L52.1,6.6L50.1,6.6L50.1,7.1L47.4,7.1L47.4,6.6L46.9,6.6L46.9,5.6L46.4,5.6L46.4,5.1L44.9,5.1L44.9,4.6z" stroke="none"/></svg>