<svg version="1.1" width="105" height="15" xmlns="http://www.w3.org/2000/svg"><path d="M78.1,4.9L78.1,6L77.9,6L77.9,5.1L75.1,5.1L75.1,5.4L77.1,5.4L77.1,5.9L77.6,5.9L77.6,6.4L84.6,6.4L84.6,6.9L87.1,6.9L87.1,8.4L88.1,8.4L88.1,8.9L88.5,8.9L88.5,9.1L87.9,9.1L87.9,8.6L86.9,8.6L86.9,7.1L84.4,7.1L84.4,6.6L77.4,6.6L77.4,6.1L76.9,6.1L76.9,5.6L74.9,5.6L74.9,5.1L74.1,5.1L74.1,5.6L64.6,5.6L64.6,6L64.4,6L64.4,5.4L73.9,5.4L73.9,4.9z" stroke="none"/><path d="M26.6,5.9L26.6,6.9L27.6,6.9L27.6,7.4L28.5,7.4L28.5,7.6L27.4,7.6L27.4,7.1L26.4,7.1L26.4,6.1L21.1,6.1L21.1,6.4L24.1,6.4L24.1,6.9L25.1,6.9L25.1,8.4L26.6,8.4L26.6,9.4L28.6,9.4L28.6,10.5L28.4,10.5L28.4,9.6L26.4,9.6L26.4,8.6L24.9,8.6L24.9,7.1L23.9,7.1L23.9,6.6L20.9,6.6L20.9,6.1L20.4,6.1L20.4,5.6L18.9,5.6L18.9,5.1L12.6,5.1L12.6,6.1L12,6.1L12,5.9L12.4,5.9L12.4,4.9L19.1,4.9L19.1,5.4L20.6,5.4L20.6,5.9z" stroke="none"/><path d="M77.9,4.4L77.9,3.9L78.9,3.9L78.9,3.4L92.6,3.4L92.6,3.9L93.1,3.9L93.1,4.4L93.6,4.4L93.6,4.9L95.1,4.9L95.1,7.4L96.6,7.4L96.6,8.4L97.6,8.4L97.6,9L97.4,9L97.4,8.6L96.4,8.6L96.4,7.6L94.9,7.6L94.9,5.1L93.4,5.1L93.4,4.6L92.9,4.6L92.9,4.1L92.4,4.1L92.4,3.6L79.1,3.6L79.1,4.1L78.1,4.1L78.1,4.4L78.6,4.4L78.6,4.9L79.1,4.9L79.1,5.4L87.9,5.4L87.9,4.9L93.1,4.9L93.1,5.4L93.6,5.4L93.6,5.9L94.5,5.9L94.5,6.1L93.4,6.1L93.4,5.6L92.9,5.6L92.9,5.1L88.1,5.1L88.1,5.6L78.9,5.6L78.9,5.1L78.4,5.1L78.4,4.6L75.4,4.6L75.4,4.1L73.9,4.1L73.9,3.6L68.1,3.6L68.1,4.1L59.6,4.1L59.6,4.6L59.1,4.6L59.1,5.1L53.1,5.1L53.1,5.6L49.6,5.6L49.6,6.1L48,6.1L48,5.9L49.4,5.9L49.4,5.4L52.9,5.4L52.9,4.9L58.9,4.9L58.9,4.4L59.4,4.4L59.4,3.9L67.9,3.9L67.9,3.4L74.1,3.4L74.1,3.9L75.6,3.9L75.6,4.4z" stroke="none"/><path d="M74.4,7.4L74.4,6.9L84.1,6.9L84.1,7.4L85.6,7.4L85.6,7.9L86.1,7.9L86.1,8.4L86.6,8.4L86.6,8.9L87.1,8.9L87.1,9.4L88.1,9.4L88.1,9.9L88.9,9.9L88.9,9.4L90.6,9.4L90.6,9.9L91.1,9.9L91.1,10.4L91.5,10.4L91.5,10.6L90.9,10.6L90.9,10.1L90.4,10.1L90.4,9.6L89.1,9.6L89.1,10.1L87.9,10.1L87.9,9.6L86.9,9.6L86.9,9.1L86.4,9.1L86.4,8.6L85.9,8.6L85.9,8.1L85.4,8.1L85.4,7.6L83.9,7.6L83.9,7.1L74.6,7.1L74.6,7.4L75.1,7.4L75.1,8.4L76.1,8.4L76.1,8.9L76.6,8.9L76.6,10.5L76.4,10.5L76.4,9.1L75.9,9.1L75.9,8.6L74.9,8.6L74.9,7.6L74.6,7.6L74.6,8.9L75,8.9L75,9.1L74.4,9.1L74.4,7.6L63.1,7.6L63.1,9L62.9,9L62.9,7.4z" stroke="none"/><path d="M58.9,7.9L58.9,7.6L54.1,7.6L54.1,8.1L53.6,8.1L53.6,8.6L50.1,8.6L50.1,9.1L43.5,9.1L43.5,8.9L49.9,8.9L49.9,8.4L53.4,8.4L53.4,7.9L53.9,7.9L53.9,7.4L59.1,7.4L59.1,7.9L60.6,7.9L60.6,8.4L61.1,8.4L61.1,8.9L62.1,8.9L62.1,9.4L62.6,9.4L62.6,9.9L69.1,9.9L69.1,10.4L69.6,10.4L69.6,10.9L70.1,10.9L70.1,11.4L77.4,11.4L77.4,10.9L82.1,10.9L82.1,11.4L82.9,11.4L82.9,10.9L86.1,10.9L86.1,11.4L86.6,11.4L86.6,11.9L87,11.9L87,12.1L86.4,12.1L86.4,11.6L85.9,11.6L85.9,11.1L83.1,11.1L83.1,11.6L81.9,11.6L81.9,11.1L77.6,11.1L77.6,11.6L69.9,11.6L69.9,11.1L69.4,11.1L69.4,10.6L68.9,10.6L68.9,10.1L62.4,10.1L62.4,9.6L61.9,9.6L61.9,9.1L60.9,9.1L60.9,8.6L60.4,8.6L60.4,8.1L59.1,8.1L59.1,10.6L58.5,10.6L58.5,10.4L58.9,10.4L58.9,8.1L58.1,8.1L58.1,8.6L56.6,8.6L56.6,9.1L55.5,9.1L55.5,8.9L56.4,8.9L56.4,8.4L57.9,8.4L57.9,7.9z" stroke="none"/><path d="M46.4,2.9L46.4,2.4L67.6,2.4L67.6,3L67.4,3L67.4,2.6L46.6,2.6L46.6,2.9L50.6,2.9L50.6,4.4L52.5,4.4L52.5,4.6L50.4,4.6L50.4,3.1L46.6,3.1L46.6,5.9L47.1,5.9L47.1,6.4L47.6,6.4L47.6,6.9L49.9,6.9L49.9,6.4L52.1,6.4L52.1,7.4L52.5,7.4L52.5,7.6L51.9,7.6L51.9,6.6L50.1,6.6L50.1,7.1L47.4,7.1L47.4,6.6L46.9,6.6L46.9,6.1L46.4,6.1L46.4,3.1L46.1,3.1L46.1,3.6L45.6,3.6L45.6,4.1L43.1,4.1L43.1,5.6L41.6,5.6L41.6,6.6L41.1,6.6L41.1,7.1L33.1,7.1L33.1,7.6L32.6,7.6L32.6,9.1L32.1,9.1L32.1,9.6L30.6,9.6L30.6,10.1L30.1,10.1L30.1,10.6L29.6,10.6L29.6,11.1L29.1,11.1L29.1,11.6L21.4,11.6L21.4,10.6L20.9,10.6L20.9,9.1L20.4,9.1L20.4,8.6L18.4,8.6L18.4,6.6L17.9,6.6L17.9,6L18.1,6L18.1,6.4L18.6,6.4L18.6,8.4L20.6,8.4L20.6,8.9L21.1,8.9L21.1,10.4L21.6,10.4L21.6,11.4L28.9,11.4L28.9,10.9L29.4,10.9L29.4,10.4L29.9,10.4L29.9,9.9L30.4,9.9L30.4,9.4L31.9,9.4L31.9,8.9L32.4,8.9L32.4,7.4L32.9,7.4L32.9,6.9L40.9,6.9L40.9,6.4L41.4,6.4L41.4,5.4L42.9,5.4L42.9,3.9L45.4,3.9L45.4,3.4L45.9,3.4L45.9,2.9z" stroke="none"/><path d="M79.5,4.6L79.5,4.4L81,4.4L81,4.6z" stroke="none"/><path d="M73.5,4.4L73.5,4.6L72,4.6L72,4.4z" stroke="none"/><path d="M84,4.4L84,4.6L82.5,4.6L82.5,4.4z" stroke="none"/><path d="M88.5,6.1L88.5,5.9L91.5,5.9L91.5,6.1z" stroke="none"/><path d="M7.4,6L7.6,6L7.6,9.1L6,9.1L6,8.9L7.4,8.9z" stroke="none"/><path d="M70.5,10.4L70.5,10.6L69.9,10.6L69.9,9.6L67.4,9.6L67.4,9L67.6,9L67.6,9.4L70.1,9.4L70.1,10.4z" stroke="none"/><path d="M96,3.1L96,2.9L98.1,2.9L98.1,3.4L99.1,3.4L99.1,4.5L98.9,4.5L98.9,3.6L97.9,3.6L97.9,3.1z" stroke="none"/><path d="M36,10.6L36,10.4L39.1,10.4L39.1,11.4L39.6,11.4L39.6,11.9L40.5,11.9L40.5,12.1L39.4,12.1L39.4,11.6L38.9,11.6L38.9,10.6z" stroke="none"/><path d="M33,3.1L33,2.9L35.6,2.9L35.6,3.9L36.6,3.9L36.6,4.4L37.5,4.4L37.5,4.6L36.4,4.6L36.4,4.1L35.4,4.1L35.4,3.1z" stroke="none"/><path d="M101.9,3L102.1,3L102.1,4.6L101.6,4.6L101.6,5.1L100.6,5.1L100.6,5.6L97.6,5.6L97.6,6L97.4,6L97.4,5.4L100.4,5.4L100.4,4.9L101.4,4.9L101.4,4.4L101.9,4.4z" stroke="none"/><path d="M34.5,4.6L34.5,4.4L35.6,4.4L35.6,4.9L37.1,4.9L37.1,5.4L40.1,5.4L40.1,5.9L40.5,5.9L40.5,6.1L39.9,6.1L39.9,5.6L36.9,5.6L36.9,5.1L35.4,5.1L35.4,4.6z" stroke="none"/><path d="M91.5,9.1L91.5,8.9L96.6,8.9L96.6,9.9L97.9,9.9L97.9,9.4L98.4,9.4L98.4,8.6L97.9,8.6L97.9,8.1L97.4,8.1L97.4,7.1L96.9,7.1L96.9,6.6L96.4,6.6L96.4,5.6L95.9,5.6L95.9,4.5L96.1,4.5L96.1,5.4L96.6,5.4L96.6,6.4L97.1,6.4L97.1,6.9L97.6,6.9L97.6,7.9L98.1,7.9L98.1,8.4L98.6,8.4L98.6,9.6L98.1,9.6L98.1,10.1L96.4,10.1L96.4,9.1z" stroke="none"/><path d="M90,10.4L90,10.6L82.5,10.6L82.5,10.4z" stroke="none"/><path d="M13.5,11.9L13.5,12.1L6.9,12.1L6.9,11.1L5.4,11.1L5.4,9.6L4.9,9.6L4.9,8.4L5.4,8.4L5.4,7.4L6,7.4L6,7.6L5.6,7.6L5.6,8.6L5.1,8.6L5.1,9.4L5.6,9.4L5.6,10.9L7.1,10.9L7.1,11.9z" stroke="none"/><path d="M60,11.9L60,12.1L43.4,12.1L43.4,11.6L42.4,11.6L42.4,10.1L40.9,10.1L40.9,8.4L41.4,8.4L41.4,7.9L46.1,7.9L46.1,8.4L48.9,8.4L48.9,7.9L50.9,7.9L50.9,7.5L51.1,7.5L51.1,8.1L49.1,8.1L49.1,8.6L45.9,8.6L45.9,8.1L41.6,8.1L41.6,8.6L41.1,8.6L41.1,9.9L42.6,9.9L42.6,11.4L43.6,11.4L43.6,11.9z" stroke="none"/><path d="M84,12.1L84,11.9L85.1,11.9L85.1,12.4L86.6,12.4L86.6,12.9L94.9,12.9L94.9,11.9L95.4,11.9L95.4,10.4L96,10.4L96,10.6L95.6,10.6L95.6,12.1L95.1,12.1L95.1,13.1L86.4,13.1L86.4,12.6L84.9,12.6L84.9,12.1z" stroke="none"/><path d="M42,4.4L42,4.6L38.4,4.6L38.4,3.6L35.9,3.6L35.9,2.6L33.9,2.6L33.9,2.1L32.1,2.1L32.1,8.1L31.6,8.1L31.6,8.6L30.6,8.6L30.6,9.1L30,9.1L30,8.9L30.4,8.9L30.4,8.4L31.4,8.4L31.4,7.9L31.9,7.9L31.9,1.9L34.1,1.9L34.1,2.4L36.1,2.4L36.1,3.4L38.6,3.4L38.6,4.4z" stroke="none"/><path d="M81,11.9L81,12.1L80.6,12.1L80.6,13.1L67.9,13.1L67.9,12.6L65.9,12.6L65.9,12L66.1,12L66.1,12.4L68.1,12.4L68.1,12.9L80.4,12.9L80.4,11.9z" stroke="none"/><path d="M12,4.6L12,4.4L22.4,4.4L22.4,3.9L24.9,3.9L24.9,3.4L26.9,3.4L26.9,3L27.1,3L27.1,3.6L25.1,3.6L25.1,4.1L22.6,4.1L22.6,4.6z" stroke="none"/><path d="M61.4,12L61.6,12L61.6,13.1L41.9,13.1L41.9,11.6L41.4,11.6L41.4,10.6L40.4,10.6L40.4,7.9L40.9,7.9L40.9,7.4L46.5,7.4L46.5,7.6L41.1,7.6L41.1,8.1L40.6,8.1L40.6,10.4L41.6,10.4L41.6,11.4L42.1,11.4L42.1,12.9L61.4,12.9z" stroke="none"/><path d="M25.5,4.6L25.5,4.4L27.4,4.4L27.4,3.4L27.9,3.4L27.9,2.1L13.6,2.1L13.6,2.6L12.6,2.6L12.6,3.1L12.1,3.1L12.1,3.6L11.6,3.6L11.6,4.1L11.1,4.1L11.1,9.1L10.5,9.1L10.5,8.9L10.9,8.9L10.9,3.9L11.4,3.9L11.4,3.4L11.9,3.4L11.9,2.9L12.4,2.9L12.4,2.4L13.4,2.4L13.4,1.9L28.1,1.9L28.1,3.6L27.6,3.6L27.6,4.6z" stroke="none"/><path d="M6,4.6L6,4.4L8.9,4.4L8.9,3.9L9.4,3.9L9.4,3.4L10.4,3.4L10.4,2.4L11.9,2.4L11.9,1.9L12.9,1.9L12.9,1.4L43.1,1.4L43.1,1.9L43.6,1.9L43.6,2.9L45,2.9L45,3.1L43.4,3.1L43.4,2.1L42.9,2.1L42.9,1.6L13.1,1.6L13.1,2.1L12.1,2.1L12.1,2.6L10.6,2.6L10.6,3.6L9.6,3.6L9.6,4.1L9.1,4.1L9.1,4.6z" stroke="none"/><path d="M42,9.1L42,8.9L42.6,8.9L42.6,9.4L43.1,9.4L43.1,9.9L55.1,9.9L55.1,10.9L56.1,10.9L56.1,11.4L59.4,11.4L59.4,10.9L62.1,10.9L62.1,11.4L62.6,11.4L62.6,12.6L62.1,12.6L62.1,13.6L7.4,13.6L7.4,13.1L5.4,13.1L5.4,11.6L3.4,11.6L3.4,10.6L2.9,10.6L2.9,6L3.1,6L3.1,10.4L3.6,10.4L3.6,11.4L5.6,11.4L5.6,12.9L7.6,12.9L7.6,13.4L61.9,13.4L61.9,12.4L62.4,12.4L62.4,11.6L61.9,11.6L61.9,11.1L59.6,11.1L59.6,11.6L55.9,11.6L55.9,11.1L54.9,11.1L54.9,10.1L42.9,10.1L42.9,9.6L42.4,9.6L42.4,9.1z" stroke="none"/><path d="M79.5,11.9L79.5,12.1L68.4,12.1L68.4,11.6L66.4,11.6L66.4,11.1L65.1,11.1L65.1,11.6L64.6,11.6L64.6,13.1L64.1,13.1L64.1,13.6L62.6,13.6L62.6,14.1L4.9,14.1L4.9,13.6L4.4,13.6L4.4,12.6L2.4,12.6L2.4,6.6L1.9,6.6L1.9,5.4L2.4,5.4L2.4,4.9L5.6,4.9L5.6,5.4L6.9,5.4L6.9,4.9L8.1,4.9L8.1,5.4L8.6,5.4L8.6,7.4L9.1,7.4L9.1,8.4L9.6,8.4L9.6,9.4L10.1,9.4L10.1,9.9L20.6,9.9L20.6,10.9L21.1,10.9L21.1,11.9L29.9,11.9L29.9,10.9L30.9,10.9L30.9,10.4L31.5,10.4L31.5,10.6L31.1,10.6L31.1,11.1L30.1,11.1L30.1,12.1L20.9,12.1L20.9,11.1L20.4,11.1L20.4,10.1L9.9,10.1L9.9,9.6L9.4,9.6L9.4,8.6L8.9,8.6L8.9,7.6L8.4,7.6L8.4,5.6L7.9,5.6L7.9,5.1L7.1,5.1L7.1,5.6L5.4,5.6L5.4,5.1L2.6,5.1L2.6,5.6L2.1,5.6L2.1,6.4L2.6,6.4L2.6,12.4L4.6,12.4L4.6,13.4L5.1,13.4L5.1,13.9L62.4,13.9L62.4,13.4L63.9,13.4L63.9,12.9L64.4,12.9L64.4,11.4L64.9,11.4L64.9,10.9L66.6,10.9L66.6,11.4L68.6,11.4L68.6,11.9z" stroke="none"/></svg>