<svg version="1.1" width="105" height="15" xmlns="http://www.w3.org/2000/svg"><path d="M25.4,8.9L25.4,6L25.6,6L25.6,8.9L29.1,8.9L29.1,9.4L31.1,9.4L31.1,9.9L40.6,9.9L40.6,10.5L40.4,10.5L40.4,10.1L30.9,10.1L30.9,9.6L28.9,9.6L28.9,9.1L24.9,9.1L24.9,8.6L24.4,8.6L24.4,8.1L16.6,8.1L16.6,9.1L14.1,9.1L14.1,9.6L11.6,9.6L11.6,10.1L10.6,10.1L10.6,10.5L10.4,10.5L10.4,9.9L11.4,9.9L11.4,9.4L13.9,9.4L13.9,8.9L16.4,8.9L16.4,7.9L24.6,7.9L24.6,8.4L25.1,8.4L25.1,8.9z" stroke="none"/><path d="M97.5,4.4L97.5,4.6L94.6,4.6L94.6,4.9L98.6,4.9L98.6,5.4L99.9,5.4L99.9,4.9L102.1,4.9L102.1,6L101.9,6L101.9,5.1L100.1,5.1L100.1,5.6L98.4,5.6L98.4,5.1L94.4,5.1L94.4,4.6L90.9,4.6L90.9,4.1L90.4,4.1L90.4,3.6L87.9,3.6L87.9,3.1L84,3.1L84,2.9L88.1,2.9L88.1,3.4L90.6,3.4L90.6,3.9L91.1,3.9L91.1,4.4z" stroke="none"/><path d="M37.6,10.9L37.6,12.4L38.6,12.4L38.6,12.9L52.4,12.9L52.4,12.4L53.9,12.4L53.9,12L54.1,12L54.1,12.6L52.6,12.6L52.6,13.1L38.4,13.1L38.4,12.6L37.4,12.6L37.4,11.1L29.6,11.1L29.6,11.6L18.4,11.6L18.4,11.1L12.6,11.1L12.6,11.6L12.1,11.6L12.1,12.1L10.5,12.1L10.5,11.9L11.9,11.9L11.9,11.4L12.4,11.4L12.4,10.9L18.6,10.9L18.6,11.4L29.4,11.4L29.4,11.1L23.9,11.1L23.9,9L24.1,9L24.1,10.9z" stroke="none"/><path d="M70.4,7.4L70.4,6.1L55.9,6.1L55.9,5.6L55.1,5.6L55.1,7.6L54.6,7.6L54.6,9.1L53.1,9.1L53.1,9.6L52.1,9.6L52.1,10.6L51,10.6L51,10.4L51.9,10.4L51.9,9.4L52.9,9.4L52.9,8.9L54.4,8.9L54.4,7.4L54.9,7.4L54.9,5.4L56.1,5.4L56.1,5.9L70.6,5.9L70.6,7.4L73.5,7.4L73.5,7.6L70.6,7.6L70.6,7.9L73.9,7.9L73.9,6.4L82.1,6.4L82.1,6.9L83.4,6.9L83.4,6.4L91.1,6.4L91.1,6.9L93.4,6.9L93.4,6.4L100.4,6.4L100.4,6L100.6,6L100.6,6.6L93.6,6.6L93.6,7.1L90.9,7.1L90.9,6.6L83.6,6.6L83.6,7.1L81.9,7.1L81.9,6.6L74.1,6.6L74.1,8.1L70.4,8.1L70.4,7.6L69.9,7.6L69.9,7.1L69.4,7.1L69.4,6.6L55.4,6.6L55.4,6L55.6,6L55.6,6.4L69.6,6.4L69.6,6.9L70.1,6.9L70.1,7.4z" stroke="none"/><path d="M79.4,9.4L79.4,9.1L78.9,9.1L78.9,8.6L76.9,8.6L76.9,7.1L74.6,7.1L74.6,9.1L74.1,9.1L74.1,9.6L72.6,9.6L72.6,10.1L62.6,10.1L62.6,11.6L60.9,11.6L60.9,11.1L59.9,11.1L59.9,10.5L60.1,10.5L60.1,10.9L61.1,10.9L61.1,11.4L62.4,11.4L62.4,9.9L72.4,9.9L72.4,9.4L73.9,9.4L73.9,8.9L74.4,8.9L74.4,6.9L77.1,6.9L77.1,8.4L79.1,8.4L79.1,8.9L79.6,8.9L79.6,9.4L82.1,9.4L82.1,9.9L89.4,9.9L89.4,9.4L90.4,9.4L90.4,8.9L91.5,8.9L91.5,9.1L90.6,9.1L90.6,9.6L89.6,9.6L89.6,10.1L81.9,10.1L81.9,9.6L79.6,9.6L79.6,9.9L80.6,9.9L80.6,10.4L88.6,10.4L88.6,10.9L89.6,10.9L89.6,11.4L91.6,11.4L91.6,11.9L93,11.9L93,12.1L91.4,12.1L91.4,11.6L89.4,11.6L89.4,11.1L88.4,11.1L88.4,10.6L80.4,10.6L80.4,10.1L79.4,10.1L79.4,9.6L77.9,9.6L77.9,9.1L74.9,9.1L74.9,7.5L75.1,7.5L75.1,8.9L78.1,8.9L78.1,9.4z" stroke="none"/><path d="M55.9,9.4L55.9,8.9L61.9,8.9L61.9,8.4L62.4,8.4L62.4,7.9L63.9,7.9L63.9,7.4L69,7.4L69,7.6L64.1,7.6L64.1,8.1L62.6,8.1L62.6,8.6L62.1,8.6L62.1,9.1L56.1,9.1L56.1,9.4L61.6,9.4L61.6,10.5L61.4,10.5L61.4,9.6L56.1,9.6L56.1,9.9L59.1,9.9L59.1,10.9L59.6,10.9L59.6,11.4L60.6,11.4L60.6,11.9L63,11.9L63,12.1L60.4,12.1L60.4,11.6L59.4,11.6L59.4,11.1L58.9,11.1L58.9,10.1L55.9,10.1L55.9,9.6L55.1,9.6L55.1,10.1L53.1,10.1L53.1,10.6L52.6,10.6L52.6,11.1L52.1,11.1L52.1,11.6L42.4,11.6L42.4,11.1L41.9,11.1L41.9,10.1L41.4,10.1L41.4,9.6L32.4,9.6L32.4,9.1L31.5,9.1L31.5,8.9L32.6,8.9L32.6,9.4L41.6,9.4L41.6,9.9L42.1,9.9L42.1,10.9L42.6,10.9L42.6,11.4L51.9,11.4L51.9,10.9L52.4,10.9L52.4,10.4L52.9,10.4L52.9,9.9L54.9,9.9L54.9,9.4z" stroke="none"/><path d="M43.5,5.9L43.5,6.1L42,6.1L42,5.9z" stroke="none"/><path d="M82.5,9.1L82.5,8.9L84,8.9L84,9.1z" stroke="none"/><path d="M87,9.1L87,8.9L88.5,8.9L88.5,9.1z" stroke="none"/><path d="M100.5,10.6L100.5,10.4L102,10.4L102,10.6z" stroke="none"/><path d="M91.5,5.9L91.5,6.1L90.9,6.1L90.9,5.6L90.4,5.6L90.4,5.1L89.9,5.1L89.9,4.5L90.1,4.5L90.1,4.9L90.6,4.9L90.6,5.4L91.1,5.4L91.1,5.9z" stroke="none"/><path d="M7.5,10.4L7.5,10.6L5.4,10.6L5.4,9.6L3.9,9.6L3.9,9.1L3,9.1L3,8.9L4.1,8.9L4.1,9.4L5.6,9.4L5.6,10.4z" stroke="none"/><path d="M7.5,5.9L7.5,6.1L2.6,6.1L2.6,6.6L2.1,6.6L2.1,9.4L2.6,9.4L2.6,9.9L4.1,9.9L4.1,10.4L4.5,10.4L4.5,10.6L3.9,10.6L3.9,10.1L2.4,10.1L2.4,9.6L1.9,9.6L1.9,6.4L2.4,6.4L2.4,5.9z" stroke="none"/><path d="M63,4.6L63,4.4L67.4,4.4L67.4,3.4L68.9,3.4L68.9,3L69.1,3L69.1,3.6L67.6,3.6L67.6,4.6z" stroke="none"/><path d="M9,8.9L9,9.1L5.4,9.1L5.4,8.6L3.4,8.6L3.4,8.1L2.9,8.1L2.9,7.5L3.1,7.5L3.1,7.9L3.6,7.9L3.6,8.4L5.6,8.4L5.6,8.9z" stroke="none"/><path d="M72,8.9L72,9.1L63,9.1L63,8.9z" stroke="none"/><path d="M7.5,4.6L7.5,4.4L14.6,4.4L14.6,4.9L15.1,4.9L15.1,5.4L15.6,5.4L15.6,5.9L16.5,5.9L16.5,6.1L15.4,6.1L15.4,5.6L14.9,5.6L14.9,5.1L14.4,5.1L14.4,4.6z" stroke="none"/><path d="M84,7.6L84,7.4L94.5,7.4L94.5,7.6z" stroke="none"/><path d="M90,10.6L90,10.4L97.4,10.4L97.4,9.9L99.9,9.9L99.9,9.4L101.9,9.4L101.9,9L102.1,9L102.1,9.6L100.1,9.6L100.1,10.1L97.6,10.1L97.6,10.6z" stroke="none"/><path d="M55.5,2.9L55.5,3.1L43.1,3.1L43.1,3.6L41.6,3.6L41.6,4.1L39.4,4.1L39.4,3.1L39,3.1L39,2.9L39.6,2.9L39.6,3.9L41.4,3.9L41.4,3.4L42.9,3.4L42.9,2.9z" stroke="none"/><path d="M99,4.4L99,4.6L98.4,4.6L98.4,3.6L93.9,3.6L93.9,3.1L89.4,3.1L89.4,2.6L84.4,2.6L84.4,2.1L83.6,2.1L83.6,2.6L83.1,2.6L83.1,3.9L83.6,3.9L83.6,5.6L83.1,5.6L83.1,6.1L82.5,6.1L82.5,5.9L82.9,5.9L82.9,5.4L83.4,5.4L83.4,4.1L82.9,4.1L82.9,2.4L83.4,2.4L83.4,1.9L84.6,1.9L84.6,2.4L89.6,2.4L89.6,2.9L94.1,2.9L94.1,3.4L98.6,3.4L98.6,4.4z" stroke="none"/><path d="M46.5,4.6L46.5,4.4L58.4,4.4L58.4,3.9L58.9,3.9L58.9,3.4L65.9,3.4L65.9,3L66.1,3L66.1,3.6L59.1,3.6L59.1,4.1L58.6,4.1L58.6,4.6z" stroke="none"/><path d="M31.5,5.9L31.5,6.1L28.4,6.1L28.4,5.6L25.9,5.6L25.9,5.1L19.4,5.1L19.4,4.1L12.9,4.1L12.9,3.1L12,3.1L12,2.9L13.1,2.9L13.1,3.9L19.6,3.9L19.6,4.9L26.1,4.9L26.1,5.4L28.6,5.4L28.6,5.9z" stroke="none"/><path d="M82.5,4.4L82.5,4.6L82.1,4.6L82.1,5.6L62.4,5.6L62.4,5.1L61.4,5.1L61.4,4.5L61.6,4.5L61.6,4.9L62.6,4.9L62.6,5.4L81.9,5.4L81.9,4.4z" stroke="none"/><path d="M18,12.1L18,11.9L37.1,11.9L37.1,12.9L37.6,12.9L37.6,13.4L54.9,13.4L54.9,11.1L53.6,11.1L53.6,11.6L53.1,11.6L53.1,12.1L40.5,12.1L40.5,11.9L52.9,11.9L52.9,11.4L53.4,11.4L53.4,10.9L55.1,10.9L55.1,13.6L37.4,13.6L37.4,13.1L36.9,13.1L36.9,12.1z" stroke="none"/><path d="M7.5,3.1L7.5,2.9L9.4,2.9L9.4,2.4L10.4,2.4L10.4,1.9L28.6,1.9L28.6,2.4L29.1,2.4L29.1,2.9L29.6,2.9L29.6,3.9L31.1,3.9L31.1,4.4L32.1,4.4L32.1,4.9L32.6,4.9L32.6,7.1L31.6,7.1L31.6,7.5L31.4,7.5L31.4,6.9L32.4,6.9L32.4,5.1L31.9,5.1L31.9,4.6L30.9,4.6L30.9,4.1L29.4,4.1L29.4,3.1L28.9,3.1L28.9,2.6L28.4,2.6L28.4,2.1L10.6,2.1L10.6,2.6L9.6,2.6L9.6,3.1z" stroke="none"/><path d="M7.5,11.9L7.5,12.1L5.9,12.1L5.9,11.6L3.9,11.6L3.9,11.1L2.4,11.1L2.4,10.6L1.9,10.6L1.9,10.1L1.4,10.1L1.4,5.9L1.9,5.9L1.9,5.4L5.4,5.4L5.4,4.4L5.9,4.4L5.9,2.9L6.4,2.9L6.4,2.4L6.9,2.4L6.9,1.9L9.4,1.9L9.4,1.4L30.6,1.4L30.6,1.9L31.1,1.9L31.1,2.4L32.1,2.4L32.1,2.9L33.1,2.9L33.1,3.4L34.1,3.4L34.1,3.9L37.1,3.9L37.1,4.4L37.6,4.4L37.6,6.4L39.1,6.4L39.1,6.9L41.1,6.9L41.1,7.4L42.1,7.4L42.1,9.4L42.6,9.4L42.6,9.9L43.1,9.9L43.1,10.4L43.5,10.4L43.5,10.6L42.9,10.6L42.9,10.1L42.4,10.1L42.4,9.6L41.9,9.6L41.9,7.6L40.9,7.6L40.9,7.1L38.9,7.1L38.9,6.6L37.4,6.6L37.4,4.6L36.9,4.6L36.9,4.1L33.9,4.1L33.9,3.6L32.9,3.6L32.9,3.1L31.9,3.1L31.9,2.6L30.9,2.6L30.9,2.1L30.4,2.1L30.4,1.6L9.6,1.6L9.6,2.1L7.1,2.1L7.1,2.6L6.6,2.6L6.6,3.1L6.1,3.1L6.1,4.6L5.6,4.6L5.6,5.6L2.1,5.6L2.1,6.1L1.6,6.1L1.6,9.9L2.1,9.9L2.1,10.4L2.6,10.4L2.6,10.9L4.1,10.9L4.1,11.4L6.1,11.4L6.1,11.9z" stroke="none"/><path d="M81,4.4L81,4.6L70.4,4.6L70.4,3.6L69.9,3.6L69.9,2.6L69.4,2.6L69.4,2.1L41.6,2.1L41.6,2.6L41.1,2.6L41.1,3.1L40.5,3.1L40.5,2.9L40.9,2.9L40.9,2.4L41.4,2.4L41.4,1.9L69.6,1.9L69.6,2.4L70.1,2.4L70.1,3.4L70.6,3.4L70.6,4.4z" stroke="none"/><path d="M100.5,7.6L100.5,7.4L100.9,7.4L100.9,6.9L102.9,6.9L102.9,4.6L102.4,4.6L102.4,3.6L98.9,3.6L98.9,3.1L95.9,3.1L95.9,2.1L95.4,2.1L95.4,1.6L39.1,1.6L39.1,2.1L38.6,2.1L38.6,2.6L38.1,2.6L38.1,3.4L38.6,3.4L38.6,3.9L39.1,3.9L39.1,4.4L45.4,4.4L45.4,3.9L45.9,3.9L45.9,3.4L55.1,3.4L55.1,3.9L56.4,3.9L56.4,2.9L58.5,2.9L58.5,3.1L56.6,3.1L56.6,4.1L54.9,4.1L54.9,3.6L46.1,3.6L46.1,4.1L45.6,4.1L45.6,4.6L38.9,4.6L38.9,4.1L38.4,4.1L38.4,3.6L37.9,3.6L37.9,2.4L38.4,2.4L38.4,1.9L38.9,1.9L38.9,1.4L95.6,1.4L95.6,1.9L96.1,1.9L96.1,2.9L99.1,2.9L99.1,3.4L102.6,3.4L102.6,4.4L103.1,4.4L103.1,7.1L101.1,7.1L101.1,7.6z" stroke="none"/><path d="M51,7.4L51,7.6L43.9,7.6L43.9,7.1L41.4,7.1L41.4,6.6L40.9,6.6L40.9,5.6L40.4,5.6L40.4,5.1L37.9,5.1L37.9,4.1L37.4,4.1L37.4,3.6L34.4,3.6L34.4,3.1L33.4,3.1L33.4,2.6L32.4,2.6L32.4,2.1L31.4,2.1L31.4,1.6L30.9,1.6L30.9,1.1L8.1,1.1L8.1,1.6L6.6,1.6L6.6,2.1L5.6,2.1L5.6,3.1L5.1,3.1L5.1,4.1L4.6,4.1L4.6,4.5L4.4,4.5L4.4,3.9L4.9,3.9L4.9,2.9L5.4,2.9L5.4,1.9L6.4,1.9L6.4,1.4L7.9,1.4L7.9,0.9L31.1,0.9L31.1,1.4L31.6,1.4L31.6,1.9L32.6,1.9L32.6,2.4L33.6,2.4L33.6,2.9L34.6,2.9L34.6,3.4L37.6,3.4L37.6,3.9L38.1,3.9L38.1,4.9L40.6,4.9L40.6,5.4L41.1,5.4L41.1,6.4L41.6,6.4L41.6,6.9L44.1,6.9L44.1,7.4z" stroke="none"/></svg>