<svg version="1.1" width="105" height="15" xmlns="http://www.w3.org/2000/svg"><path d="M54.6,8.9L54.6,9.9L56.6,9.9L56.6,10.4L57.6,10.4L57.6,10.9L58.1,10.9L58.1,11.4L60.1,11.4L60.1,12L59.9,12L59.9,11.6L57.9,11.6L57.9,11.1L57.4,11.1L57.4,10.6L56.4,10.6L56.4,10.1L54.4,10.1L54.4,9.1L54.1,9.1L54.1,10.4L55.1,10.4L55.1,10.9L56.1,10.9L56.1,11.4L56.6,11.4L56.6,11.9L58.6,11.9L58.6,12.4L60.4,12.4L60.4,11.4L60.9,11.4L60.9,10.9L68.9,10.9L68.9,10.5L69.1,10.5L69.1,11.1L61.1,11.1L61.1,11.6L60.6,11.6L60.6,12.6L58.4,12.6L58.4,12.1L56.4,12.1L56.4,11.6L55.9,11.6L55.9,11.1L54.9,11.1L54.9,10.6L53.9,10.6L53.9,9.1L53.6,9.1L53.6,9.6L53.1,9.6L53.1,10.1L37.6,10.1L37.6,10.5L37.4,10.5L37.4,9.9L52.9,9.9L52.9,9.4L53.4,9.4L53.4,8.9z" stroke="none"/><path d="M34.1,4.4L34.1,4.9L35.1,4.9L35.1,5.4L41.4,5.4L41.4,4.4L43.5,4.4L43.5,4.6L41.6,4.6L41.6,5.6L34.9,5.6L34.9,5.1L33.9,5.1L33.9,4.6L32.1,4.6L32.1,4.9L33.6,4.9L33.6,5.9L52.5,5.9L52.5,6.1L33.4,6.1L33.4,5.1L31.9,5.1L31.9,4.6L31.1,4.6L31.1,5.1L29.1,5.1L29.1,5.6L28.6,5.6L28.6,6.1L28.1,6.1L28.1,6.6L27.1,6.6L27.1,7.1L26.6,7.1L26.6,7.6L19.6,7.6L19.6,8.1L19.1,8.1L19.1,8.6L6.1,8.6L6.1,9L5.9,9L5.9,8.4L18.9,8.4L18.9,7.9L19.4,7.9L19.4,7.4L26.4,7.4L26.4,6.9L26.9,6.9L26.9,6.4L27.9,6.4L27.9,5.9L28.4,5.9L28.4,5.4L28.9,5.4L28.9,4.9L30.9,4.9L30.9,4.4z" stroke="none"/><path d="M36.1,9.9L36.1,10.4L36.6,10.4L36.6,10.9L37.1,10.9L37.1,11.4L55.1,11.4L55.1,11.9L56.1,11.9L56.1,12.4L58.1,12.4L58.1,12.9L60.9,12.9L60.9,12.4L61.4,12.4L61.4,12L61.6,12L61.6,12.6L61.1,12.6L61.1,13.1L57.9,13.1L57.9,12.6L55.9,12.6L55.9,12.1L54.9,12.1L54.9,11.6L36.9,11.6L36.9,11.1L36.4,11.1L36.4,10.6L35.9,10.6L35.9,10.1L28.1,10.1L28.1,10.6L27.6,10.6L27.6,11.1L26.6,11.1L26.6,11.6L18.6,11.6L18.6,12.1L16.5,12.1L16.5,11.9L18.4,11.9L18.4,11.4L26.4,11.4L26.4,10.9L27.4,10.9L27.4,10.4L27.9,10.4L27.9,10.1L26.9,10.1L26.9,9.6L15.1,9.6L15.1,11.6L12.6,11.6L12.6,12.1L12,12.1L12,11.9L12.4,11.9L12.4,11.4L14.9,11.4L14.9,9.4L27.1,9.4L27.1,9.9z" stroke="none"/><path d="M82.9,3.9L82.9,2.4L84.6,2.4L84.6,4.4L85.1,4.4L85.1,5.9L85.6,5.9L85.6,7.5L85.4,7.5L85.4,6.1L84.9,6.1L84.9,4.6L84.4,4.6L84.4,2.6L83.1,2.6L83.1,3.9L83.4,3.9L83.4,3.4L83.9,3.4L83.9,3L84.1,3L84.1,3.6L83.6,3.6L83.6,4.1L83.1,4.1L83.1,6.1L82.5,6.1L82.5,5.9L82.9,5.9L82.9,4.1L82.6,4.1L82.6,5.6L82.1,5.6L82.1,6.4L82.6,6.4L82.6,7.4L83.1,7.4L83.1,7.9L83.6,7.9L83.6,8.4L85.4,8.4L85.4,7.9L89.9,7.9L89.9,7.5L90.1,7.5L90.1,8.1L85.6,8.1L85.6,8.6L83.4,8.6L83.4,8.1L82.9,8.1L82.9,7.6L82.4,7.6L82.4,6.6L81.9,6.6L81.9,5.4L82.4,5.4L82.4,3.9z" stroke="none"/><path d="M6.9,3.9L6.9,3.4L14.1,3.4L14.1,3.9L15.1,3.9L15.1,4.5L14.9,4.5L14.9,4.1L13.9,4.1L13.9,3.6L7.1,3.6L7.1,3.9L7.6,3.9L7.6,4.4L8.1,4.4L8.1,4.9L9.1,4.9L9.1,7.5L8.9,7.5L8.9,5.1L7.9,5.1L7.9,4.6L7.4,4.6L7.4,4.1L7.1,4.1L7.1,5.4L7.6,5.4L7.6,6L7.4,6L7.4,5.6L6.9,5.6L6.9,4.1L6.6,4.1L6.6,6.1L6,6.1L6,5.9L6.4,5.9L6.4,3.9z" stroke="none"/><path d="M21.9,3.4L21.9,3.1L19.6,3.1L19.6,3.6L19.1,3.6L19.1,6.1L17.1,6.1L17.1,7.1L16.6,7.1L16.6,7.5L16.4,7.5L16.4,6.9L16.9,6.9L16.9,5.9L18.9,5.9L18.9,3.4L19.4,3.4L19.4,2.9L22.1,2.9L22.1,3.4L34.6,3.4L34.6,3.9L35.1,3.9L35.1,4.4L36,4.4L36,4.6L34.9,4.6L34.9,4.1L34.4,4.1L34.4,3.6L22.1,3.6L22.1,4.4L22.6,4.4L22.6,4.9L23.1,4.9L23.1,5.4L25.1,5.4L25.1,5.9L25.5,5.9L25.5,6.1L24.9,6.1L24.9,5.6L22.9,5.6L22.9,5.1L22.4,5.1L22.4,4.6L21.9,4.6L21.9,3.6L20.1,3.6L20.1,4.6L19.5,4.6L19.5,4.4L19.9,4.4L19.9,3.4z" stroke="none"/><path d="M84.1,7.5L83.9,7.5L83.9,6L84.1,6z" stroke="none"/><path d="M24,4.6L24,4.4L25.5,4.4L25.5,4.6z" stroke="none"/><path d="M76.6,4.5L76.4,4.5L76.4,3L76.6,3z" stroke="none"/><path d="M87,9.1L87,8.9L88.5,8.9L88.5,9.1z" stroke="none"/><path d="M74.9,4.5L75.1,4.5L75.1,6.4L75.6,6.4L75.6,6.9L76.6,6.9L76.6,7.5L76.4,7.5L76.4,7.1L75.4,7.1L75.4,6.6L74.9,6.6z" stroke="none"/><path d="M55.4,4.5L55.6,4.5L55.6,6.6L55.1,6.6L55.1,7.1L54.6,7.1L54.6,8.4L55.1,8.4L55.1,8.9L55.5,8.9L55.5,9.1L54.9,9.1L54.9,8.6L54.4,8.6L54.4,6.9L54.9,6.9L54.9,6.4L55.4,6.4z" stroke="none"/><path d="M69,7.6L69,7.4L71.4,7.4L71.4,5.9L73.5,5.9L73.5,6.1L71.6,6.1L71.6,7.6z" stroke="none"/><path d="M46.5,8.9L46.5,9.1L40.5,9.1L40.5,8.9z" stroke="none"/><path d="M28.5,4.4L28.5,4.6L27.6,4.6L27.6,5.1L26.6,5.1L26.6,6.6L26.1,6.6L26.1,7.1L23.4,7.1L23.4,6.1L22.5,6.1L22.5,5.9L23.6,5.9L23.6,6.9L25.9,6.9L25.9,6.4L26.4,6.4L26.4,4.9L27.4,4.9L27.4,4.4z" stroke="none"/><path d="M70.5,12.1L70.5,11.9L76.9,11.9L76.9,11.4L77.9,11.4L77.9,10.5L78.1,10.5L78.1,11.6L77.1,11.6L77.1,12.1z" stroke="none"/><path d="M93.1,10.5L92.9,10.5L92.9,9.9L93.4,9.9L93.4,9.4L93.9,9.4L93.9,8.9L95.9,8.9L95.9,8.4L96.4,8.4L96.4,7.9L100.1,7.9L100.1,8.4L100.6,8.4L100.6,9L100.4,9L100.4,8.6L99.9,8.6L99.9,8.1L96.6,8.1L96.6,8.6L96.1,8.6L96.1,9.1L94.1,9.1L94.1,9.6L93.6,9.6L93.6,10.1L93.1,10.1z" stroke="none"/><path d="M97.5,8.9L97.5,9.1L96.6,9.1L96.6,9.6L95.1,9.6L95.1,11.1L94.1,11.1L94.1,11.6L91.9,11.6L91.9,7.1L91.4,7.1L91.4,6.6L89.9,6.6L89.9,6L90.1,6L90.1,6.4L91.6,6.4L91.6,6.9L92.1,6.9L92.1,11.4L93.9,11.4L93.9,10.9L94.9,10.9L94.9,9.4L96.4,9.4L96.4,8.9z" stroke="none"/><path d="M66,5.9L66,6.1L59.1,6.1L59.1,6.6L56.6,6.6L56.6,7.1L55.6,7.1L55.6,7.5L55.4,7.5L55.4,6.9L56.4,6.9L56.4,6.4L58.9,6.4L58.9,5.9z" stroke="none"/><path d="M75,7.6L75,7.4L75.6,7.4L75.6,8.4L76.9,8.4L76.9,7.9L78.4,7.9L78.4,6.4L78.9,6.4L78.9,5.4L80.4,5.4L80.4,4.4L81.9,4.4L81.9,3.4L82.4,3.4L82.4,1.9L85.1,1.9L85.1,2.4L85.6,2.4L85.6,3L85.4,3L85.4,2.6L84.9,2.6L84.9,2.1L82.6,2.1L82.6,3.6L82.1,3.6L82.1,4.6L80.6,4.6L80.6,5.6L79.1,5.6L79.1,6.6L78.6,6.6L78.6,8.1L77.1,8.1L77.1,8.6L75.4,8.6L75.4,7.6z" stroke="none"/><path d="M63,4.4L63,4.6L56.4,4.6L56.4,4.1L55.9,4.1L55.9,3.6L55.1,3.6L55.1,4.1L54.6,4.1L54.6,6.6L54.1,6.6L54.1,8.1L53.6,8.1L53.6,8.6L53.1,8.6L53.1,9.1L52.5,9.1L52.5,8.9L52.9,8.9L52.9,8.4L53.4,8.4L53.4,7.9L53.9,7.9L53.9,6.4L54.4,6.4L54.4,3.9L54.9,3.9L54.9,3.4L56.1,3.4L56.1,3.9L56.6,3.9L56.6,4.4z" stroke="none"/><path d="M76.5,10.4L76.5,10.6L73.1,10.6L73.1,11.6L70.9,11.6L70.9,11.1L70.4,11.1L70.4,10.6L69.9,10.6L69.9,10.1L69.4,10.1L69.4,9.6L58.6,9.6L58.6,10.5L58.4,10.5L58.4,9.4L69.6,9.4L69.6,9.9L70.1,9.9L70.1,10.4L70.6,10.4L70.6,10.9L71.1,10.9L71.1,11.4L72.9,11.4L72.9,10.4z" stroke="none"/><path d="M12.1,10.5L11.9,10.5L11.9,9.4L12.4,9.4L12.4,8.9L28.4,8.9L28.4,6.4L29.4,6.4L29.4,5.9L30,5.9L30,6.1L29.6,6.1L29.6,6.6L28.6,6.6L28.6,9.1L12.6,9.1L12.6,9.6L12.1,9.6z" stroke="none"/><path d="M78,6.1L78,5.9L78.4,5.9L78.4,4.9L78.9,4.9L78.9,4.4L79.9,4.4L79.9,3.9L80.4,3.9L80.4,2.9L80.9,2.9L80.9,2.4L81.4,2.4L81.4,1.9L81.9,1.9L81.9,1.4L98.1,1.4L98.1,2.4L98.6,2.4L98.6,5.4L100.1,5.4L100.1,6.4L100.6,6.4L100.6,6.9L101.1,6.9L101.1,8.4L101.6,8.4L101.6,9.6L101.1,9.6L101.1,10.1L99.9,10.1L99.9,9.6L98.6,9.6L98.6,10.1L97.6,10.1L97.6,10.5L97.4,10.5L97.4,9.9L98.4,9.9L98.4,9.4L100.1,9.4L100.1,9.9L100.9,9.9L100.9,9.4L101.4,9.4L101.4,8.6L100.9,8.6L100.9,7.1L100.4,7.1L100.4,6.6L99.9,6.6L99.9,5.6L98.4,5.6L98.4,2.6L97.9,2.6L97.9,1.6L82.1,1.6L82.1,2.1L81.6,2.1L81.6,2.6L81.1,2.6L81.1,3.1L80.6,3.1L80.6,4.1L80.1,4.1L80.1,4.6L79.1,4.6L79.1,5.1L78.6,5.1L78.6,6.1z" stroke="none"/><path d="M79.6,3L79.4,3L79.4,2.4L79.9,2.4L79.9,1.9L80.9,1.9L80.9,1.4L81.4,1.4L81.4,0.9L100.6,0.9L100.6,1.9L101.1,1.9L101.1,2.4L101.6,2.4L101.6,2.9L102,2.9L102,3.1L101.4,3.1L101.4,2.6L100.9,2.6L100.9,2.1L100.4,2.1L100.4,1.1L81.6,1.1L81.6,1.6L81.1,1.6L81.1,2.1L80.1,2.1L80.1,2.6L79.6,2.6z" stroke="none"/><path d="M95.9,10.5L96.1,10.5L96.1,11.1L95.6,11.1L95.6,11.6L94.6,11.6L94.6,12.1L90.4,12.1L90.4,10.6L78.9,10.6L78.9,10.1L78.4,10.1L78.4,9.6L74.4,9.6L74.4,9.1L72,9.1L72,8.9L74.6,8.9L74.6,9.4L78.6,9.4L78.6,9.9L79.1,9.9L79.1,10.4L90.6,10.4L90.6,11.9L94.4,11.9L94.4,11.4L95.4,11.4L95.4,10.9L95.9,10.9z" stroke="none"/><path d="M18.1,4.5L17.9,4.5L17.9,3.9L18.4,3.9L18.4,2.4L51.1,2.4L51.1,3.9L51.6,3.9L51.6,4.4L53.6,4.4L53.6,6.6L53.1,6.6L53.1,7.1L45.6,7.1L45.6,7.6L45,7.6L45,7.4L45.4,7.4L45.4,6.9L52.9,6.9L52.9,6.4L53.4,6.4L53.4,4.6L51.4,4.6L51.4,4.1L50.9,4.1L50.9,2.6L18.6,2.6L18.6,4.1L18.1,4.1z" stroke="none"/><path d="M99,10.4L99,10.6L98.6,10.6L98.6,11.6L96.6,11.6L96.6,12.1L95.1,12.1L95.1,12.6L72.6,12.6L72.6,13.1L68.4,13.1L68.4,12.6L67.9,12.6L67.9,12.1L67.5,12.1L67.5,11.9L68.1,11.9L68.1,12.4L68.6,12.4L68.6,12.9L72.4,12.9L72.4,12.4L94.9,12.4L94.9,11.9L96.4,11.9L96.4,11.4L98.4,11.4L98.4,10.4z" stroke="none"/><path d="M12,4.6L12,4.4L13.1,4.4L13.1,4.9L14.6,4.9L14.6,5.4L16.9,5.4L16.9,3.9L17.4,3.9L17.4,3.4L17.9,3.4L17.9,1.9L51.6,1.9L51.6,2.4L52.1,2.4L52.1,2.9L52.5,2.9L52.5,3.1L51.9,3.1L51.9,2.6L51.4,2.6L51.4,2.1L18.1,2.1L18.1,3.6L17.6,3.6L17.6,4.1L17.1,4.1L17.1,5.6L14.4,5.6L14.4,5.1L12.9,5.1L12.9,4.6z" stroke="none"/><path d="M25.5,10.4L25.5,10.6L16.1,10.6L16.1,11.6L15.6,11.6L15.6,12.1L13.1,12.1L13.1,12.6L12.6,12.6L12.6,13.1L6.9,13.1L6.9,11.1L4.9,11.1L4.9,5.4L5.4,5.4L5.4,3.9L5.9,3.9L5.9,3.4L6.4,3.4L6.4,2.9L15.9,2.9L15.9,2.4L16.4,2.4L16.4,1.9L16.9,1.9L16.9,1.4L62.6,1.4L62.6,1.9L63.1,1.9L63.1,2.4L63.6,2.4L63.6,3.4L64.6,3.4L64.6,3.9L65.1,3.9L65.1,4.4L66.6,4.4L66.6,5.4L67.1,5.4L67.1,7.9L68.1,7.9L68.1,8.9L70.6,8.9L70.6,9.9L71.6,9.9L71.6,10.4L72,10.4L72,10.6L71.4,10.6L71.4,10.1L70.4,10.1L70.4,9.1L67.9,9.1L67.9,8.1L66.9,8.1L66.9,5.6L66.4,5.6L66.4,4.6L64.9,4.6L64.9,4.1L64.4,4.1L64.4,3.6L63.4,3.6L63.4,2.6L62.9,2.6L62.9,2.1L62.4,2.1L62.4,1.6L17.1,1.6L17.1,2.1L16.6,2.1L16.6,2.6L16.1,2.6L16.1,3.1L6.6,3.1L6.6,3.6L6.1,3.6L6.1,4.1L5.6,4.1L5.6,5.6L5.1,5.6L5.1,10.9L7.1,10.9L7.1,12.9L12.4,12.9L12.4,12.4L12.9,12.4L12.9,11.9L15.4,11.9L15.4,11.4L15.9,11.4L15.9,10.4z" stroke="none"/></svg>