<svg version="1.1" width="105" height="105" xmlns="http://www.w3.org/2000/svg"><path d="M75.9,16.041421356237308L75.4,15.54142135623731L75.4,14.54142135623731L74.4,13.54142135623731L74.4,11.54142135623731L73.42928932188134,10.570710678118655L73.57071067811866,10.429289321881345L74.6,11.45857864376269L74.6,13.45857864376269L75.6,14.45857864376269L75.6,15.45857864376269L76.1,15.95857864376269L76.1,16.4L76.54142135623731,16.4L78.07071067811866,17.929289321881345L77.92928932188134,18.070710678118655L76.45857864376269,16.6L76.1,16.6L76.1,18.958578643762692L76.6,19.458578643762692L76.6,21L76.4,21L76.4,19.541421356237308L75.9,19.041421356237308z" stroke="none"/><path d="M85.9,76.45857864376269L85.9,75.45857864376269L87.4,73.95857864376269L87.4,72.95857864376269L89.4,70.95857864376269L89.4,70.45857864376269L89.9,69.95857864376269L89.9,69.45857864376269L90.4,68.95857864376269L90.4,68.45857864376269L90.9,67.95857864376269L90.9,67.45857864376269L91.4,66.95857864376269L91.4,65.95857864376269L92.92928932188134,64.42928932188134L93.07071067811866,64.57071067811866L91.6,66.04142135623731L91.6,67.04142135623731L91.1,67.54142135623731L91.1,68.04142135623731L90.6,68.54142135623731L90.6,69.04142135623731L90.1,69.54142135623731L90.1,70.04142135623731L89.6,70.54142135623731L89.6,71.04142135623731L87.6,73.04142135623731L87.6,74.04142135623731L86.1,75.54142135623731L86.1,76.25857864376269L86.45857864376269,75.9L86.95857864376269,75.9L87.95857864376269,74.9L88.45857864376269,74.9L89.92928932188134,73.42928932188134L90.07071067811866,73.57071067811866L88.54142135623731,75.1L88.04142135623731,75.1L87.04142135623731,76.1L86.54142135623731,76.1L79.1,83.54142135623731L79.1,84.54142135623731L78.6,85.04142135623731L78.6,87.04142135623731L78.1,87.54142135623731L78.1,88.04142135623731L75.6,90.54142135623731L75.6,91.04142135623731L75.07071067811866,91.57071067811866L74.92928932188134,91.42928932188134L75.4,90.95857864376269L75.4,90.45857864376269L77.9,87.95857864376269L77.9,87.45857864376269L78.4,86.95857864376269L78.4,84.95857864376269L78.9,84.45857864376269L78.9,83.45857864376269z" stroke="none"/><path d="M54.9,90.9L54.9,84.04142135623731L54.4,83.54142135623731L54.4,80.04142135623731L53.9,79.54142135623731L53.9,76.5L54.1,76.5L54.1,79.45857864376269L54.6,79.95857864376269L54.6,83.45857864376269L55.1,83.95857864376269L55.1,91.45857864376269L55.6,91.95857864376269L55.6,92.45857864376269L56.6,93.45857864376269L56.6,94.45857864376269L57.1,94.95857864376269L57.1,95.95857864376269L58.57071067811866,97.42928932188134L58.42928932188134,97.57071067811866L56.9,96.04142135623731L56.9,95.04142135623731L56.4,94.54142135623731L56.4,93.54142135623731L55.4,92.54142135623731L55.4,92.04142135623731L54.9,91.54142135623731L54.9,91.1L54.54142135623731,91.1L54.1,91.54142135623731L54.1,94.04142135623731L53.6,94.54142135623731L53.6,97.54142135623731L53.1,98.04142135623731L53.1,98.54142135623731L52.57071067811866,99.07071067811866L52.42928932188134,98.92928932188134L52.9,98.45857864376269L52.9,97.95857864376269L53.4,97.45857864376269L53.4,94.45857864376269L53.9,93.95857864376269L53.9,91.45857864376269L54.45857864376269,90.9z" stroke="none"/><path d="M26.041421356237308,53.4L26.541421356237308,53.4L27.070710678118655,53.92928932188134L26.929289321881345,54.07071067811866L26.458578643762692,53.6L25.958578643762692,53.6L21.1,48.74142135623731L21.1,49.45857864376269L26.6,54.95857864376269L26.6,55.45857864376269L27.6,56.45857864376269L27.6,56.95857864376269L28.1,57.45857864376269L28.1,57.95857864376269L30.070710678118655,59.92928932188134L29.929289321881345,60.07071067811866L27.9,58.04142135623731L27.9,57.54142135623731L27.4,57.04142135623731L27.4,56.54142135623731L26.4,55.54142135623731L26.4,55.04142135623731L20.9,49.54142135623731L20.9,48.54142135623731L10.4,38.04142135623731L10.4,37.04142135623731L6.9,33.54142135623731L6.9,33.04142135623731L5.9,32.04142135623731L5.9,31.5L6.1,31.5L6.1,31.958578643762692L7.1,32.95857864376269L7.1,33.45857864376269L10.6,36.95857864376269L10.6,37.95857864376269z" stroke="none"/><path d="M92.4,50.95857864376269L92.4,38.45857864376269L92.9,37.95857864376269L92.9,37.5L93.1,37.5L93.1,38.04142135623731L92.6,38.54142135623731L92.6,50.95857864376269L93.04142135623731,51.4L93.54142135623731,51.4L94.04142135623731,51.9L95.04142135623731,51.9L95.54142135623731,52.4L96.04142135623731,52.4L96.54142135623731,52.9L97.54142135623731,52.9L98.54142135623731,53.9L99.04142135623731,53.9L100.57071067811866,55.42928932188134L100.42928932188134,55.57071067811866L98.95857864376269,54.1L98.45857864376269,54.1L97.45857864376269,53.1L96.45857864376269,53.1L95.95857864376269,52.6L95.45857864376269,52.6L94.95857864376269,52.1L93.95857864376269,52.1L93.45857864376269,51.6L92.95857864376269,51.6L92.5,51.14142135623731L84.1,59.54142135623731L84.1,60L83.9,60L83.9,59.45857864376269z" stroke="none"/><path d="M37.4,60.25857864376269L37.4,57.54142135623731L35.9,56.04142135623731L35.9,55.54142135623731L35.4,55.04142135623731L35.4,53.54142135623731L34.9,53.04142135623731L34.9,52.54142135623731L34.4,52.04142135623731L34.4,51.54142135623731L33.9,51.04142135623731L33.9,50.54142135623731L32.92928932188134,49.57071067811866L33.07071067811866,49.42928932188134L34.1,50.45857864376269L34.1,50.95857864376269L34.6,51.45857864376269L34.6,51.95857864376269L35.1,52.45857864376269L35.1,52.95857864376269L35.6,53.45857864376269L35.6,54.95857864376269L36.1,55.45857864376269L36.1,55.95857864376269L37.6,57.45857864376269L37.6,60.45857864376269L39.1,61.95857864376269L39.1,62.45857864376269L39.6,62.95857864376269L39.6,64.45857864376269L42.1,66.95857864376269L42.1,67.95857864376269L43.6,69.45857864376269L43.6,71.45857864376269L44.6,72.45857864376269L44.6,73.95857864376269L47.1,76.45857864376269L47.1,76.95857864376269L47.6,77.45857864376269L47.6,78.45857864376269L48.1,78.95857864376269L48.1,79.5L47.9,79.5L47.9,79.04142135623731L47.4,78.54142135623731L47.4,77.54142135623731L46.9,77.04142135623731L46.9,76.54142135623731L44.4,74.04142135623731L44.4,72.54142135623731L43.4,71.54142135623731L43.4,69.54142135623731L41.9,68.04142135623731L41.9,67.04142135623731L39.4,64.54142135623731L39.4,63.04142135623731L38.9,62.54142135623731L38.9,62.04142135623731L34.9,58.04142135623731L34.9,57.54142135623731L33.4,56.04142135623731L33.4,55.54142135623731L32.9,55.04142135623731L32.9,54.54142135623731L32.4,54.04142135623731L32.4,53.54142135623731L31.429289321881345,52.57071067811866L31.570710678118655,52.42928932188134L32.6,53.45857864376269L32.6,53.95857864376269L33.1,54.45857864376269L33.1,54.95857864376269L33.6,55.45857864376269L33.6,55.95857864376269L35.1,57.45857864376269L35.1,57.95857864376269z" stroke="none"/><path d="M45.45857864376269,81.4L45.95857864376269,80.9L46.45857864376269,80.9L46.95857864376269,80.4L48.45857864376269,80.4L48.9,79.95857864376269L48.9,67.54142135623731L48.4,67.04142135623731L48.4,66.54142135623731L47.92928932188134,66.07071067811866L48.07071067811866,65.92928932188134L48.6,66.45857864376269L48.6,66.95857864376269L49.1,67.45857864376269L49.1,80.04142135623731L48.54142135623731,80.6L47.04142135623731,80.6L46.54142135623731,81.1L46.04142135623731,81.1L45.54142135623731,81.6L30.541421356237308,81.6L24.6,87.54142135623731L24.6,89.04142135623731L24.1,89.54142135623731L24.1,90L23.9,90L23.9,89.45857864376269L24.4,88.95857864376269L24.4,87.45857864376269L30.25857864376269,81.6L29.541421356237308,81.6L27.041421356237308,84.1L26.541421356237308,84.1L26.041421356237308,84.6L25.541421356237308,84.6L25.041421356237308,85.1L24.541421356237308,85.1L23.041421356237308,86.6L22.041421356237308,86.6L21.541421356237308,87.1L21.041421356237308,87.1L19.570710678118655,88.57071067811866L19.429289321881345,88.42928932188134L20.958578643762692,86.9L21.458578643762692,86.9L21.958578643762692,86.4L22.958578643762692,86.4L24.458578643762692,84.9L24.958578643762692,84.9L25.458578643762692,84.4L25.958578643762692,84.4L26.458578643762692,83.9L26.958578643762692,83.9L29.458578643762692,81.4z" stroke="none"/><path d="M88.45857864376269,45.4L88.9,44.95857864376269L88.9,44.45857864376269L89.9,43.45857864376269L89.9,42.95857864376269L90.4,42.45857864376269L90.4,39.45857864376269L91.4,38.45857864376269L91.4,37.95857864376269L91.9,37.45857864376269L91.9,36.95857864376269L92.4,36.45857864376269L92.4,35.95857864376269L93.4,34.95857864376269L93.4,32.95857864376269L93.9,32.45857864376269L93.9,31.958578643762692L94.42928932188134,31.429289321881345L94.57071067811866,31.570710678118655L94.1,32.04142135623731L94.1,32.54142135623731L93.6,33.04142135623731L93.6,35.04142135623731L92.6,36.04142135623731L92.6,36.54142135623731L92.1,37.04142135623731L92.1,37.54142135623731L91.6,38.04142135623731L91.6,38.54142135623731L90.6,39.54142135623731L90.6,42.54142135623731L90.1,43.04142135623731L90.1,43.54142135623731L89.1,44.54142135623731L89.1,45.04142135623731L88.6,45.54142135623731L88.6,46.04142135623731L87.6,47.04142135623731L87.6,48.04142135623731L87.1,48.54142135623731L87.1,49.54142135623731L86.6,50.04142135623731L86.6,51.54142135623731L85.6,52.54142135623731L85.6,53.54142135623731L85.1,54.04142135623731L85.1,56.04142135623731L84.1,57.04142135623731L84.1,57.54142135623731L83.6,58.04142135623731L83.6,59.04142135623731L83.1,59.54142135623731L83.1,60.45857864376269L83.54142135623731,60.9L90.95857864376269,60.9L91.45857864376269,60.4L91.95857864376269,60.4L93.95857864376269,58.4L94.5,58.4L94.5,58.6L94.04142135623731,58.6L92.04142135623731,60.6L91.54142135623731,60.6L91.04142135623731,61.1L83.45857864376269,61.1L82.9,60.54142135623731L82.9,59.45857864376269L83.4,58.95857864376269L83.4,57.95857864376269L83.9,57.45857864376269L83.9,56.95857864376269L84.9,55.95857864376269L84.9,53.95857864376269L85.4,53.45857864376269L85.4,52.45857864376269L86.4,51.45857864376269L86.4,49.95857864376269L86.9,49.45857864376269L86.9,48.45857864376269L87.4,47.95857864376269L87.4,46.95857864376269L88.4,45.95857864376269L88.4,45.6L88.04142135623731,45.6L87.54142135623731,46.1L75.54142135623731,46.1L75.07071067811866,46.57071067811866L74.92928932188134,46.42928932188134L75.45857864376269,45.9L87.45857864376269,45.9L87.95857864376269,45.4z" stroke="none"/><path d="M64.9,84.9L64.9,78.45857864376269L65.4,77.95857864376269L65.4,75.45857864376269L65.9,74.95857864376269L65.9,70.5L66.1,70.5L66.1,75.04142135623731L65.6,75.54142135623731L65.6,78.04142135623731L65.1,78.54142135623731L65.1,84.95857864376269L76.1,95.95857864376269L76.1,96.45857864376269L77.1,97.45857864376269L77.1,97.95857864376269L77.54142135623731,98.4L78.54142135623731,98.4L79.04142135623731,98.9L79.5,98.9L79.5,99.1L78.95857864376269,99.1L78.45857864376269,98.6L77.45857864376269,98.6L76.9,98.04142135623731L76.9,97.54142135623731L75.9,96.54142135623731L75.9,96.04142135623731L64.95857864376269,85.1L64.45857864376269,85.1L60.45857864376269,81.1L59.95857864376269,81.1L54.45857864376269,75.6L53.54142135623731,75.6L53.1,76.04142135623731L53.1,79.04142135623731L52.6,79.54142135623731L52.6,80.54142135623731L52.1,81.04142135623731L52.1,82.54142135623731L49.6,85.04142135623731L49.6,85.5L49.4,85.5L49.4,84.95857864376269L51.9,82.45857864376269L51.9,80.95857864376269L52.4,80.45857864376269L52.4,79.45857864376269L52.9,78.95857864376269L52.9,75.95857864376269L53.45857864376269,75.4L54.54142135623731,75.4L60.04142135623731,80.9L60.54142135623731,80.9L64.54142135623731,84.9z" stroke="none"/><path d="M46.04142135623731,21.9L56.45857864376269,21.9L59.45857864376269,18.9L60.45857864376269,18.9L61.42928932188134,17.929289321881345L61.57071067811866,18.070710678118655L60.54142135623731,19.1L59.54142135623731,19.1L56.54142135623731,22.1L46.04142135623731,22.1L44.6,23.541421356237308L44.6,24.041421356237308L44.1,24.541421356237308L44.1,32.54142135623731L42.1,34.54142135623731L42.1,36L41.9,36L41.9,34.45857864376269L43.9,32.45857864376269L43.9,24.458578643762692L44.4,23.958578643762692L44.4,23.458578643762692L45.85857864376269,22L37.95857864376269,14.1L37.45857864376269,14.1L35.95857864376269,12.6L35.45857864376269,12.6L34.95857864376269,12.1L34.5,12.1L34.5,11.9L35.04142135623731,11.9L35.54142135623731,12.4L36.04142135623731,12.4L37.54142135623731,13.9L38.04142135623731,13.9z" stroke="none"/><path d="M30.4,33.9L30.4,33.45857864376269L31.458578643762692,32.4L31.958578643762692,32.4L34.95857864376269,29.4L35.45857864376269,29.4L36.45857864376269,28.4L36.95857864376269,28.4L38.45857864376269,26.9L39,26.9L39,27.1L38.54142135623731,27.1L37.04142135623731,28.6L36.54142135623731,28.6L35.54142135623731,29.6L35.04142135623731,29.6L32.04142135623731,32.6L31.541421356237308,32.6L30.6,33.54142135623731L30.6,33.9L31.541421356237308,33.9L32.04142135623731,34.4L33,34.4L33,34.6L31.958578643762692,34.6L31.458578643762692,34.1L30.6,34.1L30.6,34.45857864376269L31.041421356237308,34.9L33.54142135623731,34.9L34.04142135623731,35.4L36.04142135623731,35.4L36.54142135623731,35.9L37.5,35.9L37.5,36.1L36.45857864376269,36.1L35.95857864376269,35.6L33.95857864376269,35.6L33.45857864376269,35.1L30.958578643762692,35.1L30.4,34.54142135623731L30.4,34.1L30.041421356237308,34.1L28.041421356237308,36.1L26.541421356237308,36.1L26.041421356237308,36.6L24.041421356237308,36.6L23.541421356237308,37.1L17.041421356237308,37.1L16.541421356237308,37.6L16.041421356237308,37.6L15.54142135623731,38.1L15.04142135623731,38.1L14.54142135623731,38.6L14.04142135623731,38.6L13.570710678118655,39.07071067811866L13.429289321881345,38.92928932188134L13.95857864376269,38.4L14.45857864376269,38.4L14.95857864376269,37.9L15.45857864376269,37.9L15.95857864376269,37.4L16.458578643762692,37.4L16.958578643762692,36.9L23.458578643762692,36.9L23.958578643762692,36.4L25.958578643762692,36.4L26.458578643762692,35.9L27.958578643762692,35.9L29.958578643762692,33.9z" stroke="none"/><path d="M32.54142135623731,58.4L33.04142135623731,58.4L33.6,58.95857864376269L33.6,62.04142135623731L33.04142135623731,62.6L26.041421356237308,62.6L25.541421356237308,63.1L24.541421356237308,63.1L23.541421356237308,64.1L22.541421356237308,64.1L16.541421356237308,70.1L15.54142135623731,70.1L15.070710678118655,70.57071067811866L14.929289321881345,70.42928932188134L15.45857864376269,69.9L16.458578643762692,69.9L22.458578643762692,63.9L23.458578643762692,63.9L24.458578643762692,62.9L25.458578643762692,62.9L25.958578643762692,62.4L32.95857864376269,62.4L33.4,61.95857864376269L33.4,59.04142135623731L32.95857864376269,58.6L32.6,58.6L32.6,60.95857864376269L33.07071067811866,61.42928932188134L32.92928932188134,61.57071067811866L32.4,61.04142135623731L32.4,58.6L31.458578643762692,58.6L30.9,58.04142135623731L30.9,57.04142135623731L30.4,56.54142135623731L30.4,54.04142135623731L29.9,53.54142135623731L29.9,50.45857864376269L30.4,49.95857864376269L30.4,49.45857864376269L31.958578643762692,47.9L34.45857864376269,47.9L35.45857864376269,46.9L38.45857864376269,46.9L38.95857864376269,46.4L39.45857864376269,46.4L40.45857864376269,45.4L42.95857864376269,45.4L43.42928932188134,44.92928932188134L43.57071067811866,45.07071067811866L43.04142135623731,45.6L40.54142135623731,45.6L39.54142135623731,46.6L39.04142135623731,46.6L38.54142135623731,47.1L35.54142135623731,47.1L34.54142135623731,48.1L32.04142135623731,48.1L30.6,49.54142135623731L30.6,50.04142135623731L30.1,50.54142135623731L30.1,53.45857864376269L30.6,53.95857864376269L30.6,56.45857864376269L31.1,56.95857864376269L31.1,57.95857864376269L31.541421356237308,58.4L32.25857864376269,58.4L31.9,58.04142135623731L31.9,57.04142135623731L30.9,56.04142135623731L30.9,53.54142135623731L30.4,53.04142135623731L30.4,50.95857864376269L31.9,49.45857864376269L31.9,48.95857864376269L32.45857864376269,48.4L33.54142135623731,48.4L34.1,48.95857864376269L34.1,49.45857864376269L35.1,50.45857864376269L35.1,50.95857864376269L36.1,51.95857864376269L36.1,52.45857864376269L37.1,53.45857864376269L37.1,54.45857864376269L38.1,55.45857864376269L38.1,56.95857864376269L38.6,57.45857864376269L38.6,57.95857864376269L39.07071067811866,58.42928932188134L38.92928932188134,58.57071067811866L38.4,58.04142135623731L38.4,57.54142135623731L37.9,57.04142135623731L37.9,55.54142135623731L36.9,54.54142135623731L36.9,53.54142135623731L35.9,52.54142135623731L35.9,52.04142135623731L34.9,51.04142135623731L34.9,50.54142135623731L33.9,49.54142135623731L33.9,49.04142135623731L33.45857864376269,48.6L32.54142135623731,48.6L32.1,49.04142135623731L32.1,49.54142135623731L30.6,51.04142135623731L30.6,52.95857864376269L31.1,53.45857864376269L31.1,55.95857864376269L32.1,56.95857864376269L32.1,57.95857864376269z" stroke="none"/><path d="M7.9,67.4L7.9,65.04142135623731L7.429289321881345,64.57071067811866L7.570710678118655,64.42928932188134L8.1,64.95857864376269L8.1,67.4L8.45857864376269,67.4L13.9,61.95857864376269L13.9,61.45857864376269L14.4,60.95857864376269L14.4,60.45857864376269L14.9,59.95857864376269L14.9,59.45857864376269L15.4,58.95857864376269L15.4,58.45857864376269L16.4,57.45857864376269L16.4,57L16.6,57L16.6,57.54142135623731L15.6,58.54142135623731L15.6,59.04142135623731L15.1,59.54142135623731L15.1,60.04142135623731L14.6,60.54142135623731L14.6,61.04142135623731L14.1,61.54142135623731L14.1,62.04142135623731L8.54142135623731,67.6L8.1,67.6L8.1,83.04142135623731L6.1,85.04142135623731L6.1,85.5L5.9,85.5L5.9,84.95857864376269L7.9,82.95857864376269L7.9,67.6L7.45857864376269,67.6L2.9292893218813454,63.07071067811866L3.0707106781186546,62.92928932188134L7.54142135623731,67.4z" stroke="none"/><path d="M72.04142135623731,41.4L75.04142135623731,41.4L75.54142135623731,41.9L76.5,41.9L76.5,42.1L75.45857864376269,42.1L74.95857864376269,41.6L72.1,41.6L72.1,41.95857864376269L72.54142135623731,42.4L82.54142135623731,42.4L83.54142135623731,43.4L84.54142135623731,43.4L85.54142135623731,44.4L86.54142135623731,44.4L87.07071067811866,44.92928932188134L86.92928932188134,45.07071067811866L86.45857864376269,44.6L85.45857864376269,44.6L84.45857864376269,43.6L83.45857864376269,43.6L82.45857864376269,42.6L72.45857864376269,42.6L71.9,42.04142135623731L71.9,41.74142135623731L68.54142135623731,45.1L67.04142135623731,45.1L66.54142135623731,45.6L66.04142135623731,45.6L64.54142135623731,47.1L61.04142135623731,47.1L60.07071067811866,48.07071067811866L59.92928932188134,47.92928932188134L60.95857864376269,46.9L64.45857864376269,46.9L65.95857864376269,45.4L66.45857864376269,45.4L66.95857864376269,44.9L68.45857864376269,44.9L71.85857864376268,41.5L71.4,41.04142135623731L71.4,40.54142135623731L70.4,39.54142135623731L70.4,38.04142135623731L69.9,37.54142135623731L69.9,37.04142135623731L66.9,34.04142135623731L66.9,33.04142135623731L66.4,32.54142135623731L66.4,32.04142135623731L65.92928932188134,31.570710678118655L66.07071067811866,31.429289321881345L66.6,31.958578643762692L66.6,32.45857864376269L67.1,32.95857864376269L67.1,33.95857864376269L70.1,36.95857864376269L70.1,37.45857864376269L70.6,37.95857864376269L70.6,39.45857864376269L71.6,40.45857864376269L71.6,40.95857864376269z" stroke="none"/><path d="M73.04142135623731,54.9L74.04142135623731,55.9L75.04142135623731,55.9L75.54142135623731,56.4L76.04142135623731,56.4L77.04142135623731,57.4L77.54142135623731,57.4L78.04142135623731,57.9L78.54142135623731,57.9L80.04142135623731,59.4L81.04142135623731,59.4L83.04142135623731,61.4L92.45857864376269,61.4L92.95857864376269,60.9L93.45857864376269,60.9L94.95857864376269,59.4L95.45857864376269,59.4L95.95857864376269,58.9L96.95857864376269,58.9L97.45857864376269,58.4L98.45857864376269,58.4L99.95857864376269,56.9L100.45857864376269,56.9L101.4,55.95857864376269L101.4,43.04142135623731L98.9,40.54142135623731L98.9,38.54142135623731L98.4,38.04142135623731L98.4,37.54142135623731L97.9,37.04142135623731L97.9,36.04142135623731L96.9,35.04142135623731L96.9,34.54142135623731L96.4,34.04142135623731L96.4,33.04142135623731L95.4,32.04142135623731L95.4,31.041421356237308L94.95857864376269,30.6L94.04142135623731,30.6L93.54142135623731,31.1L92.54142135623731,31.1L91.54142135623731,32.1L90.54142135623731,32.1L90.04142135623731,32.6L89.54142135623731,32.6L88.04142135623731,34.1L85.04142135623731,34.1L84.54142135623731,34.6L84.04142135623731,34.6L83.54142135623731,35.1L82.54142135623731,35.1L81.54142135623731,36.1L81,36.1L81,35.9L81.45857864376269,35.9L82.45857864376269,34.9L83.45857864376269,34.9L83.95857864376269,34.4L84.45857864376269,34.4L84.95857864376269,33.9L87.95857864376269,33.9L89.45857864376269,32.4L89.95857864376269,32.4L90.45857864376269,31.9L91.45857864376269,31.9L92.45857864376269,30.9L93.45857864376269,30.9L93.95857864376269,30.4L95.04142135623731,30.4L95.6,30.958578643762692L95.6,31.958578643762692L96.6,32.95857864376269L96.6,33.95857864376269L97.1,34.45857864376269L97.1,34.95857864376269L98.1,35.95857864376269L98.1,36.95857864376269L98.6,37.45857864376269L98.6,37.95857864376269L99.1,38.45857864376269L99.1,40.45857864376269L101.6,42.95857864376269L101.6,56.04142135623731L100.54142135623731,57.1L100.04142135623731,57.1L98.54142135623731,58.6L97.54142135623731,58.6L97.04142135623731,59.1L96.04142135623731,59.1L95.54142135623731,59.6L95.04142135623731,59.6L93.54142135623731,61.1L93.04142135623731,61.1L92.54142135623731,61.6L82.95857864376269,61.6L80.95857864376269,59.6L79.95857864376269,59.6L78.45857864376269,58.1L77.95857864376269,58.1L77.45857864376269,57.6L76.95857864376269,57.6L75.95857864376269,56.6L75.45857864376269,56.6L74.95857864376269,56.1L73.95857864376269,56.1L72.95857864376269,55.1L70.74142135623731,55.1L76.04142135623731,60.4L77.04142135623731,60.4L78.07071067811866,61.42928932188134L77.92928932188134,61.57071067811866L76.95857864376269,60.6L75.95857864376269,60.6L70.6,55.24142135623731L70.6,55.54142135623731L69.54142135623731,56.6L69.04142135623731,56.6L68.54142135623731,57.1L67.54142135623731,57.1L67.04142135623731,57.6L62.54142135623731,57.6L62.1,58.04142135623731L62.1,60.04142135623731L61.6,60.54142135623731L61.6,61.04142135623731L60.6,62.04142135623731L60.6,63.04142135623731L59.6,64.04142135623731L59.6,64.54142135623731L58.6,65.54142135623731L58.6,66L58.4,66L58.4,65.45857864376269L59.4,64.45857864376269L59.4,63.95857864376269L60.4,62.95857864376269L60.4,61.95857864376269L61.4,60.95857864376269L61.4,60.45857864376269L61.9,59.95857864376269L61.9,57.95857864376269L62.45857864376269,57.4L66.95857864376269,57.4L67.45857864376269,56.9L68.45857864376269,56.9L68.95857864376269,56.4L69.45857864376269,56.4L70.4,55.45857864376269L70.4,55.1L70.04142135623731,55.1L69.54142135623731,55.6L69.04142135623731,55.6L68.04142135623731,56.6L67.04142135623731,56.6L66.54142135623731,57.1L66,57.1L66,56.9L66.45857864376269,56.9L66.95857864376269,56.4L67.95857864376269,56.4L68.95857864376269,55.4L69.45857864376269,55.4L69.95857864376269,54.9z" stroke="none"/><path d="M89.54142135623731,23.9L90.04142135623731,24.4L90.54142135623731,24.4L91.04142135623731,24.9L96.04142135623731,24.9L96.54142135623731,25.4L99,25.4L99,25.6L96.45857864376269,25.6L95.95857864376269,25.1L90.95857864376269,25.1L90.45857864376269,24.6L89.95857864376269,24.6L89.45857864376269,24.1L88.74142135623731,24.1L90.1,25.458578643762692L90.1,26.458578643762692L90.6,26.958578643762692L90.6,27.458578643762692L91.1,27.958578643762692L91.1,28.958578643762692L91.6,29.458578643762692L91.6,30L91.4,30L91.4,29.541421356237308L90.9,29.041421356237308L90.9,28.041421356237308L90.4,27.541421356237308L90.4,27.041421356237308L89.9,26.541421356237308L89.9,25.541421356237308L88.6,24.24142135623731L88.6,26.041421356237308L88.1,26.541421356237308L88.1,27.041421356237308L87.6,27.541421356237308L87.6,28.041421356237308L87.1,28.541421356237308L87.1,33L86.9,33L86.9,28.458578643762692L87.4,27.958578643762692L87.4,27.458578643762692L87.9,26.958578643762692L87.9,26.458578643762692L88.4,25.958578643762692L88.4,24.1L80.45857864376269,24.1L79.45857864376269,23.1L76.95857864376269,23.1L76.45857864376269,22.6L74.45857864376269,22.6L73.95857864376269,22.1L73.45857864376269,22.1L72.95857864376269,21.6L72.45857864376269,21.6L67.9,17.041421356237308L67.9,14.45857864376269L68.9,13.45857864376269L68.9,12.45857864376269L69.9,11.45857864376269L69.9,10.45857864376269L71.95857864376269,8.4L72.95857864376269,8.4L73.45857864376269,7.9L76.95857864376269,7.9L77.45857864376269,7.4L78,7.4L78,7.6L77.54142135623731,7.6L77.04142135623731,8.1L73.54142135623731,8.1L73.04142135623731,8.6L72.04142135623731,8.6L70.1,10.54142135623731L70.1,11.54142135623731L69.1,12.54142135623731L69.1,13.54142135623731L68.1,14.54142135623731L68.1,16.958578643762692L72.54142135623731,21.4L73.04142135623731,21.4L73.54142135623731,21.9L74.04142135623731,21.9L74.54142135623731,22.4L76.54142135623731,22.4L77.04142135623731,22.9L79.54142135623731,22.9L80.54142135623731,23.9z" stroke="none"/><path d="M69.9,70.4L69.9,58.95857864376269L70.42928932188134,58.42928932188134L70.57071067811866,58.57071067811866L70.1,59.04142135623731L70.1,85.95857864376269L71.6,87.45857864376269L71.6,87.95857864376269L72.6,88.95857864376269L72.6,90.45857864376269L74.54142135623731,92.4L75.45857864376269,92.4L77.9,89.95857864376269L77.9,88.95857864376269L78.4,88.45857864376269L78.4,87.95857864376269L78.9,87.45857864376269L78.9,85.95857864376269L79.42928932188134,85.42928932188134L79.57071067811866,85.57071067811866L79.1,86.04142135623731L79.1,87.54142135623731L78.6,88.04142135623731L78.6,88.54142135623731L78.1,89.04142135623731L78.1,90.04142135623731L75.54142135623731,92.6L74.45857864376269,92.6L72.4,90.54142135623731L72.4,89.04142135623731L71.4,88.04142135623731L71.4,87.54142135623731L69.9,86.04142135623731L69.9,70.74142135623731L69.6,71.04142135623731L69.6,71.54142135623731L69.1,72.04142135623731L69.1,72.54142135623731L68.6,73.04142135623731L68.6,73.54142135623731L68.1,74.04142135623731L68.1,77.04142135623731L67.6,77.54142135623731L67.6,79.5L67.4,79.5L67.4,77.45857864376269L67.9,76.95857864376269L67.9,73.95857864376269L68.4,73.45857864376269L68.4,72.95857864376269L68.9,72.45857864376269L68.9,71.95857864376269L69.4,71.45857864376269L69.4,70.95857864376269L69.75857864376269,70.6L69.45857864376269,70.6L68.9,70.04142135623731L68.9,68.04142135623731L68.4,67.54142135623731L68.4,67.04142135623731L63.9,62.54142135623731L63.9,59.54142135623731L62.92928932188134,58.57071067811866L63.07071067811866,58.42928932188134L64.1,59.45857864376269L64.1,62.45857864376269L68.6,66.95857864376269L68.6,67.45857864376269L69.1,67.95857864376269L69.1,69.95857864376269L69.54142135623731,70.4z" stroke="none"/><path d="M58.4,25.4L58.4,24.958578643762692L60.4,22.958578643762692L60.4,21.458578643762692L61.9,19.958578643762692L61.9,19.458578643762692L62.4,18.958578643762692L62.4,17.541421356237308L61.95857864376269,17.1L57.95857864376269,17.1L50.45857864376269,9.6L48.45857864376269,9.6L47.92928932188134,9.070710678118655L48.07071067811866,8.929289321881345L48.54142135623731,9.4L50.54142135623731,9.4L58.04142135623731,16.9L62.04142135623731,16.9L62.6,17.458578643762692L62.6,19.041421356237308L62.1,19.541421356237308L62.1,20.041421356237308L60.6,21.541421356237308L60.6,23.041421356237308L58.6,25.041421356237308L58.6,25.4L59.54142135623731,25.4L60.54142135623731,26.4L61.04142135623731,26.4L61.54142135623731,26.9L63.04142135623731,26.9L63.54142135623731,27.4L64.54142135623731,27.4L70.6,33.45857864376269L70.6,33.95857864376269L71.6,34.95857864376269L71.6,35.45857864376269L72.07071067811866,35.92928932188134L71.92928932188134,36.07071067811866L71.4,35.54142135623731L71.4,35.04142135623731L70.4,34.04142135623731L70.4,33.54142135623731L64.45857864376269,27.6L63.45857864376269,27.6L62.95857864376269,27.1L61.45857864376269,27.1L60.95857864376269,26.6L60.45857864376269,26.6L59.45857864376269,25.6L58.74142135623731,25.6L61.54142135623731,28.4L62.54142135623731,28.4L63.04142135623731,28.9L65.04142135623731,28.9L69.07071067811866,32.92928932188134L68.92928932188134,33.07071067811866L64.95857864376269,29.1L62.95857864376269,29.1L62.45857864376269,28.6L61.45857864376269,28.6L58.45857864376269,25.6L55.54142135623731,25.6L54.54142135623731,26.6L52.04142135623731,26.6L51.54142135623731,27.1L45,27.1L45,26.9L51.45857864376269,26.9L51.95857864376269,26.4L54.45857864376269,26.4L55.45857864376269,25.4z" stroke="none"/><path d="M83.4,10.4L83.4,10.04142135623731L82.95857864376269,9.6L75.45857864376269,9.6L74.95857864376269,9.1L72.54142135623731,9.1L71.6,10.04142135623731L71.6,10.54142135623731L70.6,11.54142135623731L70.6,12.04142135623731L70.1,12.54142135623731L70.1,13.04142135623731L69.6,13.54142135623731L69.6,14.54142135623731L69.07071067811866,15.070710678118655L68.92928932188134,14.929289321881345L69.4,14.45857864376269L69.4,13.45857864376269L69.9,12.95857864376269L69.9,12.45857864376269L70.4,11.95857864376269L70.4,11.45857864376269L71.4,10.45857864376269L71.4,9.95857864376269L72.45857864376269,8.9L75.04142135623731,8.9L75.54142135623731,9.4L83.04142135623731,9.4L83.6,9.95857864376269L83.6,10.4L97.5,10.4L97.5,10.6L83.6,10.6L83.6,10.95857864376269L84.04142135623731,11.4L97.45857864376269,11.4L97.9,10.95857864376269L97.9,5.54142135623731L97.4,5.04142135623731L97.4,4.5L97.6,4.5L97.6,4.95857864376269L98.1,5.45857864376269L98.1,11.04142135623731L97.54142135623731,11.6L83.95857864376269,11.6L83.4,11.04142135623731L83.4,10.6L74.95857864376269,10.6L73.95857864376269,9.6L73.04142135623731,9.6L72.1,10.54142135623731L72.1,11.04142135623731L71.1,12.04142135623731L71.1,12.54142135623731L70.6,13.04142135623731L70.6,13.5L70.4,13.5L70.4,12.95857864376269L70.9,12.45857864376269L70.9,11.95857864376269L71.9,10.95857864376269L71.9,10.45857864376269L72.95857864376269,9.4L74.04142135623731,9.4L75.04142135623731,10.4z" stroke="none"/><path d="M47,41.35857864376269L53.4,34.95857864376269L53.4,34.45857864376269L56.4,31.458578643762692L56.4,30.958578643762692L56.9,30.458578643762692L56.9,30L57.1,30L57.1,30.541421356237308L56.6,31.041421356237308L56.6,31.541421356237308L53.6,34.54142135623731L53.6,35.04142135623731L47.14142135623731,41.5L49.54142135623731,43.9L50.04142135623731,43.9L58.1,51.95857864376269L58.1,52.95857864376269L58.6,53.45857864376269L58.6,54L58.4,54L58.4,53.54142135623731L57.9,53.04142135623731L57.9,52.04142135623731L49.95857864376269,44.1L49.45857864376269,44.1L47,41.64142135623731L46.6,42.04142135623731L46.6,43.04142135623731L45.1,44.54142135623731L45.1,46.04142135623731L44.6,46.54142135623731L44.6,48.04142135623731L44.1,48.54142135623731L44.1,49.54142135623731L43.6,50.04142135623731L43.6,51.54142135623731L42.6,52.54142135623731L42.6,53.04142135623731L42.1,53.54142135623731L42.1,55.5L41.9,55.5L41.9,53.45857864376269L42.4,52.95857864376269L42.4,52.45857864376269L43.4,51.45857864376269L43.4,49.95857864376269L43.9,49.45857864376269L43.9,48.45857864376269L44.4,47.95857864376269L44.4,46.45857864376269L44.9,45.95857864376269L44.9,44.45857864376269L46.4,42.95857864376269L46.4,41.95857864376269L46.85857864376269,41.5L43.45857864376269,38.1L42.95857864376269,38.1L42.45857864376269,37.6L41.95857864376269,37.6L40.9,36.54142135623731L40.9,28.541421356237308L39.9,27.541421356237308L39.9,26.541421356237308L39.45857864376269,26.1L36.04142135623731,26.1L35.54142135623731,26.6L32.54142135623731,26.6L32.04142135623731,27.1L31.5,27.1L31.5,26.9L31.958578643762692,26.9L32.45857864376269,26.4L35.45857864376269,26.4L35.95857864376269,25.9L39.54142135623731,25.9L40.1,26.458578643762692L40.1,27.458578643762692L41.1,28.458578643762692L41.1,36.45857864376269L42.04142135623731,37.4L42.54142135623731,37.4L43.04142135623731,37.9L43.54142135623731,37.9z" stroke="none"/><path d="M12,31.6L12,31.4L13.5,31.4L13.5,31.6z" stroke="none"/><path d="M58.4,82.5L58.6,82.5L58.6,85.5L58.4,85.5z" stroke="none"/><path d="M70.42928932188134,18.070710678118655L70.57071067811866,17.929289321881345L71.04142135623731,18.4L72.04142135623731,18.4L73.04142135623731,19.4L73.5,19.4L73.5,19.6L72.95857864376269,19.6L71.95857864376269,18.6L70.95857864376269,18.6z" stroke="none"/><path d="M39.1,78L38.9,78L38.9,73.5L39.1,73.5z" stroke="none"/><path d="M41.9,10.5L42.1,10.5L42.1,15L41.9,15z" stroke="none"/><path d="M93,66.1L93,65.9L97.5,65.9L97.5,66.1z" stroke="none"/><path d="M40.5,6.1L40.5,5.9L46.5,5.9L46.5,6.1z" stroke="none"/><path d="M62.92928932188134,31.429289321881345L63.07071067811866,31.570710678118655L58.57071067811866,36.07071067811866L58.42928932188134,35.92928932188134z" stroke="none"/><path d="M28.429289321881345,32.92928932188134L28.570710678118655,33.07071067811866L26.041421356237308,35.6L24.041421356237308,35.6L23.541421356237308,36.1L22.5,36.1L22.5,35.9L23.458578643762692,35.9L23.958578643762692,35.4L25.958578643762692,35.4z" stroke="none"/><path d="M73.42928932188134,43.42928932188134L73.57071067811866,43.57071067811866L72.1,45.04142135623731L72.1,46.04142135623731L71.6,46.54142135623731L71.6,47.04142135623731L71.1,47.54142135623731L71.1,49.04142135623731L70.57071067811866,49.57071067811866L70.42928932188134,49.42928932188134L70.9,48.95857864376269L70.9,47.45857864376269L71.4,46.95857864376269L71.4,46.45857864376269L71.9,45.95857864376269L71.9,44.95857864376269z" stroke="none"/><path d="M68.9,75L69.1,75L69.1,79.04142135623731L68.6,79.54142135623731L68.6,80.04142135623731L68.04142135623731,80.6L66.95857864376269,80.6L66.4,80.04142135623731L66.4,71.45857864376269L66.9,70.95857864376269L66.9,70.04142135623731L66.45857864376269,69.6L65.54142135623731,69.6L65.1,70.04142135623731L65.1,76.54142135623731L63.6,78.04142135623731L63.6,78.54142135623731L63.1,79.04142135623731L63.1,79.5L62.9,79.5L62.9,78.95857864376269L63.4,78.45857864376269L63.4,77.95857864376269L64.9,76.45857864376269L64.9,69.95857864376269L65.45857864376269,69.4L66.54142135623731,69.4L67.1,69.95857864376269L67.1,71.04142135623731L66.6,71.54142135623731L66.6,79.95857864376269L67.04142135623731,80.4L67.95857864376269,80.4L68.4,79.95857864376269L68.4,79.45857864376269L68.9,78.95857864376269z" stroke="none"/><path d="M22.570710678118655,92.92928932188134L22.429289321881345,93.07071067811866L18.4,89.04142135623731L18.4,87.95857864376269L19.958578643762692,86.4L20.458578643762692,86.4L20.958578643762692,85.9L21.458578643762692,85.9L21.958578643762692,85.4L22.5,85.4L22.5,85.6L22.041421356237308,85.6L21.541421356237308,86.1L21.041421356237308,86.1L20.541421356237308,86.6L20.041421356237308,86.6L18.6,88.04142135623731L18.6,88.95857864376269z" stroke="none"/><path d="M16.5,23.9L16.5,24.1L13.45857864376269,24.1L12.45857864376269,23.1L11.45857864376269,23.1L10.95857864376269,22.6L9,22.6L9,22.4L11.04142135623731,22.4L11.54142135623731,22.9L12.54142135623731,22.9L13.54142135623731,23.9z" stroke="none"/><path d="M79.57071067811866,93.07071067811866L79.42928932188134,92.92928932188134L81.9,90.45857864376269L81.9,89.95857864376269L82.9,88.95857864376269L82.9,87.45857864376269L86.4,83.95857864376269L86.4,80.95857864376269L88.9,78.45857864376269L88.9,77.95857864376269L91.9,74.95857864376269L91.9,74.45857864376269L94.9,71.45857864376269L94.9,70.95857864376269L95.9,69.95857864376269L95.9,69.45857864376269L96.9,68.45857864376269L96.9,67.95857864376269L98.4,66.45857864376269L98.4,65.54142135623731L97.95857864376269,65.1L94.95857864376269,65.1L93.45857864376269,63.6L92.54142135623731,63.6L80.6,75.54142135623731L80.6,76.04142135623731L80.1,76.54142135623731L80.1,77.04142135623731L79.1,78.04142135623731L79.1,79.04142135623731L78.6,79.54142135623731L78.6,83.54142135623731L78.07071067811866,84.07071067811866L77.92928932188134,83.92928932188134L78.4,83.45857864376269L78.4,79.45857864376269L78.9,78.95857864376269L78.9,77.95857864376269L79.9,76.95857864376269L79.9,76.45857864376269L80.4,75.95857864376269L80.4,75.45857864376269L92.45857864376269,63.4L93.54142135623731,63.4L95.04142135623731,64.9L98.04142135623731,64.9L98.6,65.45857864376269L98.6,66.54142135623731L97.1,68.04142135623731L97.1,68.54142135623731L96.1,69.54142135623731L96.1,70.04142135623731L95.1,71.04142135623731L95.1,71.54142135623731L92.1,74.54142135623731L92.1,75.04142135623731L89.1,78.04142135623731L89.1,78.54142135623731L86.6,81.04142135623731L86.6,84.04142135623731L83.1,87.54142135623731L83.1,89.04142135623731L82.1,90.04142135623731L82.1,90.54142135623731z" stroke="none"/><path d="M53.92928932188134,98.92928932188134L54.07071067811866,99.07071067811866L53.04142135623731,100.1L51.95857864376269,100.1L51.4,99.54142135623731L51.4,93.45857864376269L51.9,92.95857864376269L51.9,90.95857864376269L52.4,90.45857864376269L52.4,90L52.6,90L52.6,90.54142135623731L52.1,91.04142135623731L52.1,93.04142135623731L51.6,93.54142135623731L51.6,99.45857864376269L52.04142135623731,99.9L52.95857864376269,99.9z" stroke="none"/><path d="M12,11.9L12,12.1L9.04142135623731,12.1L8.04142135623731,13.1L7.04142135623731,13.1L6.54142135623731,13.6L5.04142135623731,13.6L3.5414213562373096,15.1L3,15.1L3,14.9L3.4585786437626904,14.9L4.95857864376269,13.4L6.45857864376269,13.4L6.95857864376269,12.9L7.95857864376269,12.9L8.95857864376269,11.9z" stroke="none"/><path d="M12,100.4L12,100.6L8.95857864376269,100.6L7.45857864376269,99.1L6.45857864376269,99.1L5.45857864376269,98.1L4.45857864376269,98.1L3.9585786437626904,97.6L3,97.6L3,97.4L4.04142135623731,97.4L4.54142135623731,97.9L5.54142135623731,97.9L6.54142135623731,98.9L7.54142135623731,98.9L9.04142135623731,100.4z" stroke="none"/><path d="M22.429289321881345,83.92928932188134L22.570710678118655,84.07071067811866L21.541421356237308,85.1L21.041421356237308,85.1L20.041421356237308,86.1L19.541421356237308,86.1L18.1,87.54142135623731L18.1,89.95857864376269L18.6,90.45857864376269L18.6,91.45857864376269L19.6,92.45857864376269L19.6,93L19.4,93L19.4,92.54142135623731L18.4,91.54142135623731L18.4,90.54142135623731L17.9,90.04142135623731L17.9,87.45857864376269L19.458578643762692,85.9L19.958578643762692,85.9L20.958578643762692,84.9L21.458578643762692,84.9z" stroke="none"/><path d="M85.5,35.9L85.5,36.1L82.54142135623731,36.1L81.54142135623731,37.1L80.45857864376269,37.1L79.9,36.54142135623731L79.9,35.04142135623731L79.4,34.54142135623731L79.4,32.54142135623731L78.9,32.04142135623731L78.9,31.541421356237308L77.9,30.541421356237308L77.9,30L78.1,30L78.1,30.458578643762692L79.1,31.458578643762692L79.1,31.958578643762692L79.6,32.45857864376269L79.6,34.45857864376269L80.1,34.95857864376269L80.1,36.45857864376269L80.54142135623731,36.9L81.45857864376269,36.9L82.45857864376269,35.9z" stroke="none"/><path d="M89.92928932188134,74.92928932188134L90.07071067811866,75.07071067811866L86.6,78.54142135623731L86.6,79.04142135623731L86.1,79.54142135623731L86.1,80.04142135623731L85.6,80.54142135623731L85.6,81.04142135623731L84.1,82.54142135623731L84.1,85.04142135623731L82.1,87.04142135623731L82.1,87.54142135623731L80.6,89.04142135623731L80.6,90.04142135623731L80.1,90.54142135623731L80.1,91.04142135623731L78.6,92.54142135623731L78.6,93.45857864376269L79.04142135623731,93.9L79.95857864376269,93.9L98.45857864376269,75.4L99.95857864376269,75.4L100.42928932188134,74.92928932188134L100.57071067811866,75.07071067811866L100.04142135623731,75.6L98.54142135623731,75.6L80.04142135623731,94.1L78.95857864376269,94.1L78.4,93.54142135623731L78.4,92.45857864376269L79.9,90.95857864376269L79.9,90.45857864376269L80.4,89.95857864376269L80.4,88.95857864376269L81.9,87.45857864376269L81.9,86.95857864376269L83.9,84.95857864376269L83.9,82.45857864376269L85.4,80.95857864376269L85.4,80.45857864376269L85.9,79.95857864376269L85.9,79.45857864376269L86.4,78.95857864376269L86.4,78.45857864376269z" stroke="none"/><path d="M22.6,19.5L22.4,19.5L22.4,18.041421356237308L21.9,17.541421356237308L21.9,17.041421356237308L20.9,16.041421356237308L20.9,9L21.1,9L21.1,15.95857864376269L22.1,16.958578643762692L22.1,17.458578643762692L22.6,17.958578643762692z" stroke="none"/><path d="M68.92928932188134,37.42928932188134L69.07071067811866,37.57071067811866L59.1,47.54142135623731L59.1,48.45857864376269L59.54142135623731,48.9L64.95857864376269,48.9L65.95857864376269,47.9L67.5,47.9L67.5,48.1L66.04142135623731,48.1L65.04142135623731,49.1L59.45857864376269,49.1L58.9,48.54142135623731L58.9,47.45857864376269z" stroke="none"/><path d="M60.07071067811866,79.42928932188134L59.92928932188134,79.57071067811866L56.95857864376269,76.6L56.45857864376269,76.6L54.95857864376269,75.1L53.04142135623731,75.1L52.6,75.54142135623731L52.6,77.54142135623731L52.1,78.04142135623731L52.1,78.54142135623731L51.6,79.04142135623731L51.6,80.04142135623731L51.1,80.54142135623731L51.1,81.04142135623731L49.6,82.54142135623731L49.6,83.04142135623731L49.1,83.54142135623731L49.1,84.54142135623731L48.6,85.04142135623731L48.6,85.95857864376269L49.04142135623731,86.4L49.95857864376269,86.4L50.92928932188134,85.42928932188134L51.07071067811866,85.57071067811866L50.04142135623731,86.6L48.95857864376269,86.6L48.4,86.04142135623731L48.4,84.95857864376269L48.9,84.45857864376269L48.9,83.45857864376269L49.4,82.95857864376269L49.4,82.45857864376269L50.9,80.95857864376269L50.9,80.45857864376269L51.4,79.95857864376269L51.4,78.95857864376269L51.9,78.45857864376269L51.9,77.95857864376269L52.4,77.45857864376269L52.4,75.45857864376269L52.95857864376269,74.9L55.04142135623731,74.9L56.54142135623731,76.4L57.04142135623731,76.4z" stroke="none"/><path d="M10.5,13.6L10.5,13.4L11.45857864376269,13.4L11.95857864376269,12.9L12.45857864376269,12.9L16.458578643762692,8.9L17.458578643762692,8.9L18.458578643762692,7.9L18.958578643762692,7.9L19.429289321881345,7.429289321881345L19.570710678118655,7.570710678118655L19.041421356237308,8.1L18.541421356237308,8.1L17.541421356237308,9.1L16.541421356237308,9.1L12.54142135623731,13.1L12.04142135623731,13.1L11.54142135623731,13.6z" stroke="none"/><path d="M61.57071067811866,24.070710678118655L61.42928932188134,23.929289321881345L61.9,23.458578643762692L61.9,22.958578643762692L62.4,22.458578643762692L62.4,21.958578643762692L62.9,21.458578643762692L62.9,17.041421356237308L62.45857864376269,16.6L61.45857864376269,16.6L59.95857864376269,15.1L59.45857864376269,15.1L57.95857864376269,13.6L57,13.6L57,13.4L58.04142135623731,13.4L59.54142135623731,14.9L60.04142135623731,14.9L61.54142135623731,16.4L62.54142135623731,16.4L63.1,16.958578643762692L63.1,21.541421356237308L62.6,22.041421356237308L62.6,22.541421356237308L62.1,23.041421356237308L62.1,23.541421356237308z" stroke="none"/><path d="M78,97.6L78,97.4L78.54142135623731,97.4L79.04142135623731,97.9L80.04142135623731,97.9L80.6,98.45857864376269L80.6,99.54142135623731L80.04142135623731,100.1L68.95857864376269,100.1L66.45857864376269,97.6L66,97.6L66,97.4L66.54142135623731,97.4L69.04142135623731,99.9L79.95857864376269,99.9L80.4,99.45857864376269L80.4,98.54142135623731L79.95857864376269,98.1L78.95857864376269,98.1L78.45857864376269,97.6z" stroke="none"/><path d="M27,31.4L27,31.6L15,31.6L15,31.4z" stroke="none"/><path d="M7.6,58.5L7.4,58.5L7.4,55.54142135623731L6.4,54.54142135623731L6.4,54.04142135623731L5.9,53.54142135623731L5.9,46.5L6.1,46.5L6.1,53.45857864376269L6.6,53.95857864376269L6.6,54.45857864376269L7.6,55.45857864376269z" stroke="none"/><path d="M19.5,28.6L19.5,28.4L20.041421356237308,28.4L20.541421356237308,28.9L21.041421356237308,28.9L21.541421356237308,29.4L26.541421356237308,29.4L27.041421356237308,29.9L28.541421356237308,29.9L29.041421356237308,30.4L29.541421356237308,30.4L30.541421356237308,31.4L31.5,31.4L31.5,31.6L30.458578643762692,31.6L29.458578643762692,30.6L28.958578643762692,30.6L28.458578643762692,30.1L26.958578643762692,30.1L26.458578643762692,29.6L21.458578643762692,29.6L20.958578643762692,29.1L20.458578643762692,29.1L19.958578643762692,28.6z" stroke="none"/><path d="M91.5,91.4L91.5,91.6L90.04142135623731,91.6L89.54142135623731,92.1L88.54142135623731,92.1L88.04142135623731,92.6L87.04142135623731,92.6L86.54142135623731,93.1L82.54142135623731,93.1L81.54142135623731,94.1L81.04142135623731,94.1L80.54142135623731,94.6L78.45857864376269,94.6L77.9,94.04142135623731L77.9,91.45857864376269L78.4,90.95857864376269L78.4,90.45857864376269L79.4,89.45857864376269L79.4,87.95857864376269L80.4,86.95857864376269L80.4,84.95857864376269L82.4,82.95857864376269L82.4,82.5L82.6,82.5L82.6,83.04142135623731L80.6,85.04142135623731L80.6,87.04142135623731L79.6,88.04142135623731L79.6,89.54142135623731L78.6,90.54142135623731L78.6,91.04142135623731L78.1,91.54142135623731L78.1,93.95857864376269L78.54142135623731,94.4L80.45857864376269,94.4L80.95857864376269,93.9L81.45857864376269,93.9L82.45857864376269,92.9L86.45857864376269,92.9L86.95857864376269,92.4L87.95857864376269,92.4L88.45857864376269,91.9L89.45857864376269,91.9L89.95857864376269,91.4z" stroke="none"/><path d="M67.42928932188134,22.570710678118655L67.57071067811866,22.429289321881345L76.57071067811866,31.429289321881345L76.42928932188134,31.570710678118655z" stroke="none"/><path d="M24.1,82.5L23.9,82.5L23.9,81.95857864376269L24.9,80.95857864376269L24.9,80.45857864376269L25.4,79.95857864376269L25.4,78.45857864376269L25.9,77.95857864376269L25.9,77.45857864376269L26.4,76.95857864376269L26.4,72.95857864376269L27.9,71.45857864376269L27.9,70.95857864376269L28.429289321881345,70.42928932188134L28.570710678118655,70.57071067811866L28.1,71.04142135623731L28.1,71.54142135623731L26.6,73.04142135623731L26.6,77.04142135623731L26.1,77.54142135623731L26.1,78.04142135623731L25.6,78.54142135623731L25.6,80.04142135623731L25.1,80.54142135623731L25.1,81.04142135623731L24.1,82.04142135623731z" stroke="none"/><path d="M83.92928932188134,25.429289321881345L84.07071067811866,25.570710678118655L82.54142135623731,27.1L81.54142135623731,27.1L81.04142135623731,27.6L77.54142135623731,27.6L77.1,28.041421356237308L77.1,30.458578643762692L77.6,30.958578643762692L77.6,33.95857864376269L78.1,34.45857864376269L78.1,34.95857864376269L79.1,35.95857864376269L79.1,36.45857864376269L80.04142135623731,37.4L86.95857864376269,37.4L87.45857864376269,36.9L89.95857864376269,36.9L90.95857864376269,35.9L91.5,35.9L91.5,36.1L91.04142135623731,36.1L90.04142135623731,37.1L87.54142135623731,37.1L87.04142135623731,37.6L79.95857864376269,37.6L78.9,36.54142135623731L78.9,36.04142135623731L77.9,35.04142135623731L77.9,34.54142135623731L77.4,34.04142135623731L77.4,31.041421356237308L76.9,30.541421356237308L76.9,27.958578643762692L77.45857864376269,27.4L80.95857864376269,27.4L81.45857864376269,26.9L82.45857864376269,26.9z" stroke="none"/><path d="M59.9,52.5L60.1,52.5L60.1,53.54142135623731L59.6,54.04142135623731L59.6,54.54142135623731L59.04142135623731,55.1L57.95857864376269,55.1L49.9,47.04142135623731L49.9,45.54142135623731L49.42928932188134,45.07071067811866L49.57071067811866,44.92928932188134L50.1,45.45857864376269L50.1,46.95857864376269L58.04142135623731,54.9L58.95857864376269,54.9L59.4,54.45857864376269L59.4,53.95857864376269L59.9,53.45857864376269z" stroke="none"/><path d="M32.92928932188134,66.07071067811866L33.07071067811866,65.92928932188134L40.1,72.95857864376269L40.1,75.45857864376269L40.6,75.95857864376269L40.6,76.5L40.4,76.5L40.4,76.04142135623731L39.9,75.54142135623731L39.9,73.04142135623731z" stroke="none"/><path d="M57.07071067811866,64.57071067811866L56.92928932188134,64.42928932188134L57.4,63.95857864376269L57.4,62.95857864376269L57.9,62.45857864376269L57.9,61.95857864376269L58.4,61.45857864376269L58.4,57.45857864376269L58.9,56.95857864376269L58.9,56.45857864376269L59.9,55.45857864376269L59.9,54.45857864376269L60.9,53.45857864376269L60.9,52.04142135623731L60.45857864376269,51.6L59.45857864376269,51.6L58.95857864376269,51.1L58.5,51.1L58.5,50.9L59.04142135623731,50.9L59.54142135623731,51.4L60.54142135623731,51.4L61.1,51.95857864376269L61.1,53.54142135623731L60.1,54.54142135623731L60.1,55.54142135623731L59.1,56.54142135623731L59.1,57.04142135623731L58.6,57.54142135623731L58.6,61.54142135623731L58.1,62.04142135623731L58.1,62.54142135623731L57.6,63.04142135623731L57.6,64.04142135623731z" stroke="none"/><path d="M52.5,5.9L52.5,6.1L52.04142135623731,6.1L51.54142135623731,6.6L51.04142135623731,6.6L50.04142135623731,7.6L46.54142135623731,7.6L46.04142135623731,8.1L41.04142135623731,8.1L40.54142135623731,8.6L39.54142135623731,8.6L39.07071067811866,9.070710678118655L38.92928932188134,8.929289321881345L39.45857864376269,8.4L40.45857864376269,8.4L40.95857864376269,7.9L45.95857864376269,7.9L46.45857864376269,7.4L49.95857864376269,7.4L50.95857864376269,6.4L51.45857864376269,6.4L51.95857864376269,5.9z" stroke="none"/><path d="M22.6,28.5L22.4,28.5L22.4,27.541421356237308L21.9,27.041421356237308L21.9,26.541421356237308L21.458578643762692,26.1L20.458578643762692,26.1L18.458578643762692,24.1L17.958578643762692,24.1L16.958578643762692,23.1L15.45857864376269,23.1L14.95857864376269,22.6L14.45857864376269,22.6L12.45857864376269,20.6L11.95857864376269,20.6L10.95857864376269,19.6L10.5,19.6L10.5,19.4L11.04142135623731,19.4L12.04142135623731,20.4L12.54142135623731,20.4L14.54142135623731,22.4L15.04142135623731,22.4L15.54142135623731,22.9L17.041421356237308,22.9L18.041421356237308,23.9L18.541421356237308,23.9L20.541421356237308,25.9L21.541421356237308,25.9L22.1,26.458578643762692L22.1,26.958578643762692L22.6,27.458578643762692z" stroke="none"/><path d="M37.42928932188134,48.07071067811866L37.57071067811866,47.92928932188134L38.1,48.45857864376269L38.1,48.95857864376269L39.1,49.95857864376269L39.1,50.95857864376269L41.1,52.95857864376269L41.1,55.95857864376269L43.04142135623731,57.9L43.54142135623731,57.9L45.04142135623731,59.4L45.54142135623731,59.4L46.04142135623731,59.9L46.5,59.9L46.5,60.1L45.95857864376269,60.1L45.45857864376269,59.6L44.95857864376269,59.6L43.45857864376269,58.1L42.95857864376269,58.1L40.9,56.04142135623731L40.9,53.04142135623731L38.9,51.04142135623731L38.9,50.04142135623731L37.9,49.04142135623731L37.9,48.54142135623731z" stroke="none"/><path d="M45,83.9L45,84.1L30,84.1L30,83.9z" stroke="none"/><path d="M27,88.6L27,88.4L29.041421356237308,88.4L30.041421356237308,89.4L33.54142135623731,89.4L34.04142135623731,89.9L42,89.9L42,90.1L33.95857864376269,90.1L33.45857864376269,89.6L29.958578643762692,89.6L28.958578643762692,88.6z" stroke="none"/><path d="M93,16.4L93,16.6L91.04142135623731,16.6L90.54142135623731,17.1L90.04142135623731,17.1L89.54142135623731,17.6L86.04142135623731,17.6L85.54142135623731,18.1L82.04142135623731,18.1L81.54142135623731,18.6L81.04142135623731,18.6L80.54142135623731,19.1L78.54142135623731,19.1L78.07071067811866,19.570710678118655L77.92928932188134,19.429289321881345L78.45857864376269,18.9L80.45857864376269,18.9L80.95857864376269,18.4L81.45857864376269,18.4L81.95857864376269,17.9L85.45857864376269,17.9L85.95857864376269,17.4L89.45857864376269,17.4L89.95857864376269,16.9L90.45857864376269,16.9L90.95857864376269,16.4z" stroke="none"/><path d="M16.429289321881345,42.07071067811866L16.570710678118655,41.92928932188134L28.1,53.45857864376269L28.1,54.95857864376269L28.6,55.45857864376269L28.6,55.95857864376269L30.1,57.45857864376269L30.1,57.95857864376269L31.1,58.95857864376269L31.1,60.54142135623731L30.541421356237308,61.1L29.458578643762692,61.1L28.958578643762692,60.6L23.458578643762692,60.6L22.958578643762692,60.1L22.458578643762692,60.1L21.958578643762692,59.6L21.458578643762692,59.6L20.458578643762692,58.6L19.958578643762692,58.6L18.458578643762692,57.1L17.958578643762692,57.1L16.958578643762692,56.1L13.54142135623731,56.1L13.04142135623731,56.6L12.54142135623731,56.6L12.070710678118655,57.07071067811866L11.929289321881345,56.92928932188134L12.45857864376269,56.4L12.95857864376269,56.4L13.45857864376269,55.9L17.041421356237308,55.9L18.041421356237308,56.9L18.541421356237308,56.9L20.041421356237308,58.4L20.541421356237308,58.4L21.541421356237308,59.4L22.041421356237308,59.4L22.541421356237308,59.9L23.041421356237308,59.9L23.541421356237308,60.4L29.041421356237308,60.4L29.541421356237308,60.9L30.458578643762692,60.9L30.9,60.45857864376269L30.9,59.04142135623731L29.9,58.04142135623731L29.9,57.54142135623731L28.4,56.04142135623731L28.4,55.54142135623731L27.9,55.04142135623731L27.9,53.54142135623731z" stroke="none"/><path d="M91.5,6.1L91.5,5.9L92.45857864376269,5.9L92.95857864376269,5.4L93.45857864376269,5.4L93.95857864376269,4.9L94.95857864376269,4.9L96.45857864376269,3.4L98.04142135623731,3.4L98.6,3.9585786437626904L98.6,12.04142135623731L94.1,16.541421356237308L94.1,17.041421356237308L93.04142135623731,18.1L92.54142135623731,18.1L92.04142135623731,18.6L91.04142135623731,18.6L89.04142135623731,20.6L88.04142135623731,20.6L87.54142135623731,21.1L87,21.1L87,20.9L87.45857864376269,20.9L87.95857864376269,20.4L88.95857864376269,20.4L90.95857864376269,18.4L91.95857864376269,18.4L92.45857864376269,17.9L92.95857864376269,17.9L93.9,16.958578643762692L93.9,16.458578643762692L98.4,11.95857864376269L98.4,4.04142135623731L97.95857864376269,3.6L96.54142135623731,3.6L95.04142135623731,5.1L94.04142135623731,5.1L93.54142135623731,5.6L93.04142135623731,5.6L92.54142135623731,6.1z" stroke="none"/><path d="M48,4.6L48,4.4L52.04142135623731,4.4L52.54142135623731,4.9L53.04142135623731,4.9L61.57071067811866,13.429289321881345L61.42928932188134,13.570710678118655L52.95857864376269,5.1L52.45857864376269,5.1L51.95857864376269,4.6z" stroke="none"/><path d="M36,79.4L36,79.6L34.04142135623731,79.6L33.54142135623731,80.1L32.54142135623731,80.1L32.04142135623731,80.6L30.041421356237308,80.6L29.541421356237308,81.1L29.041421356237308,81.1L27.541421356237308,82.6L27.041421356237308,82.6L26.541421356237308,83.1L25.541421356237308,83.1L25.041421356237308,83.6L23.458578643762692,83.6L22.958578643762692,83.1L22.041421356237308,83.1L19.541421356237308,85.6L19.041421356237308,85.6L17.6,87.04142135623731L17.6,92.45857864376269L19.041421356237308,93.9L32.04142135623731,93.9L34.04142135623731,95.9L36,95.9L36,96.1L33.95857864376269,96.1L31.958578643762692,94.1L18.958578643762692,94.1L17.4,92.54142135623731L17.4,86.95857864376269L18.958578643762692,85.4L19.458578643762692,85.4L21.958578643762692,82.9L23.041421356237308,82.9L23.541421356237308,83.4L24.958578643762692,83.4L25.458578643762692,82.9L26.458578643762692,82.9L26.958578643762692,82.4L27.458578643762692,82.4L28.958578643762692,80.9L29.458578643762692,80.9L29.958578643762692,80.4L31.958578643762692,80.4L32.45857864376269,79.9L33.45857864376269,79.9L33.95857864376269,79.4z" stroke="none"/><path d="M20.929289321881345,3.0707106781186546L21.070710678118655,2.9292893218813454L27.041421356237308,8.9L27.541421356237308,8.9L29.041421356237308,10.4L30.541421356237308,10.4L31.041421356237308,10.9L31.541421356237308,10.9L34.04142135623731,13.4L34.5,13.4L34.5,13.6L33.95857864376269,13.6L31.458578643762692,11.1L30.958578643762692,11.1L30.458578643762692,10.6L28.958578643762692,10.6L27.458578643762692,9.1L26.958578643762692,9.1z" stroke="none"/><path d="M28.429289321881345,91.57071067811866L28.570710678118655,91.42928932188134L30.041421356237308,92.9L32.54142135623731,92.9L33.54142135623731,93.9L35.04142135623731,93.9L36.04142135623731,94.9L36.54142135623731,94.9L37.1,95.45857864376269L37.1,96.54142135623731L36.54142135623731,97.1L23.958578643762692,97.1L23.458578643762692,96.6L22.958578643762692,96.6L21.958578643762692,95.6L20.458578643762692,95.6L19.958578643762692,95.1L19.458578643762692,95.1L18.958578643762692,94.6L18.458578643762692,94.6L16.9,93.04142135623731L16.9,86.45857864376269L19.9,83.45857864376269L19.9,82.45857864376269L20.9,81.45857864376269L20.9,80.95857864376269L21.4,80.45857864376269L21.4,79.95857864376269L22.9,78.45857864376269L22.9,77.95857864376269L23.4,77.45857864376269L23.4,75.45857864376269L23.929289321881345,74.92928932188134L24.070710678118655,75.07071067811866L23.6,75.54142135623731L23.6,77.54142135623731L23.1,78.04142135623731L23.1,78.54142135623731L21.6,80.04142135623731L21.6,80.54142135623731L21.1,81.04142135623731L21.1,81.54142135623731L20.1,82.54142135623731L20.1,83.54142135623731L17.1,86.54142135623731L17.1,92.95857864376269L18.541421356237308,94.4L19.041421356237308,94.4L19.541421356237308,94.9L20.041421356237308,94.9L20.541421356237308,95.4L22.041421356237308,95.4L23.041421356237308,96.4L23.541421356237308,96.4L24.041421356237308,96.9L36.45857864376269,96.9L36.9,96.45857864376269L36.9,95.54142135623731L36.45857864376269,95.1L35.95857864376269,95.1L34.95857864376269,94.1L33.45857864376269,94.1L32.45857864376269,93.1L29.958578643762692,93.1z" stroke="none"/><path d="M19.5,10.4L19.5,10.6L19.041421356237308,10.6L17.041421356237308,12.6L16.541421356237308,12.6L16.041421356237308,13.1L14.04142135623731,13.1L13.54142135623731,13.6L13.04142135623731,13.6L12.04142135623731,14.6L7.54142135623731,14.6L7.04142135623731,15.1L6.54142135623731,15.1L6.04142135623731,15.6L5.04142135623731,15.6L4.54142135623731,16.1L3.5414213562373096,16.1L3.0707106781186546,16.570710678118655L2.9292893218813454,16.429289321881345L3.4585786437626904,15.9L4.45857864376269,15.9L4.95857864376269,15.4L5.95857864376269,15.4L6.45857864376269,14.9L6.95857864376269,14.9L7.45857864376269,14.4L11.95857864376269,14.4L12.95857864376269,13.4L13.45857864376269,13.4L13.95857864376269,12.9L15.95857864376269,12.9L16.458578643762692,12.4L16.958578643762692,12.4L18.958578643762692,10.4z" stroke="none"/><path d="M13.570710678118655,28.429289321881345L13.429289321881345,28.570710678118655L7.9,23.041421356237308L7.9,21.958578643762692L8.9,20.958578643762692L8.9,19.458578643762692L9.95857864376269,18.4L12.45857864376269,18.4L18.458578643762692,12.4L18.958578643762692,12.4L19.429289321881345,11.929289321881345L19.570710678118655,12.070710678118655L19.041421356237308,12.6L18.541421356237308,12.6L12.54142135623731,18.6L10.04142135623731,18.6L9.1,19.541421356237308L9.1,21.041421356237308L8.1,22.041421356237308L8.1,22.958578643762692z" stroke="none"/><path d="M91.57071067811866,24.070710678118655L91.42928932188134,23.929289321881345L95.4,19.958578643762692L95.4,19.458578643762692L96.4,18.458578643762692L96.4,17.458578643762692L97.4,16.458578643762692L97.4,15.95857864376269L98.4,14.95857864376269L98.4,13.95857864376269L98.9,13.45857864376269L98.9,3.5414213562373096L98.45857864376269,3.1L94.04142135623731,3.1L93.54142135623731,3.6L93.04142135623731,3.6L92.54142135623731,4.1L92.04142135623731,4.1L90.6,5.54142135623731L90.6,6.45857864376269L91.04142135623731,6.9L92.95857864376269,6.9L93.45857864376269,6.4L93.95857864376269,6.4L94.42928932188134,5.929289321881345L94.57071067811866,6.070710678118655L94.04142135623731,6.6L93.54142135623731,6.6L93.04142135623731,7.1L90.95857864376269,7.1L90.4,6.54142135623731L90.4,5.45857864376269L91.95857864376269,3.9L92.45857864376269,3.9L92.95857864376269,3.4L93.45857864376269,3.4L93.95857864376269,2.9L98.54142135623731,2.9L99.1,3.4585786437626904L99.1,13.54142135623731L98.6,14.04142135623731L98.6,15.04142135623731L97.6,16.041421356237308L97.6,16.541421356237308L96.6,17.541421356237308L96.6,18.541421356237308L95.6,19.541421356237308L95.6,20.041421356237308z" stroke="none"/><path d="M96.1,24L95.9,24L95.9,22.958578643762692L96.4,22.458578643762692L96.4,21.458578643762692L97.4,20.458578643762692L97.4,17.458578643762692L98.9,15.95857864376269L98.9,14.45857864376269L99.4,13.95857864376269L99.4,3.0414213562373096L98.95857864376269,2.6L93.04142135623731,2.6L92.54142135623731,3.1L92.04142135623731,3.1L91.04142135623731,4.1L90.54142135623731,4.1L90.04142135623731,4.6L89.04142135623731,4.6L88.54142135623731,5.1L83.04142135623731,5.1L82.54142135623731,5.6L78.54142135623731,5.6L78.04142135623731,6.1L77.54142135623731,6.1L77.04142135623731,6.6L76.04142135623731,6.6L75.54142135623731,7.1L73.54142135623731,7.1L72.54142135623731,8.1L71.54142135623731,8.1L68.1,11.54142135623731L68.1,12.04142135623731L67.6,12.54142135623731L67.6,17.458578643762692L72.04142135623731,21.9L72.54142135623731,21.9L73.04142135623731,22.4L73.54142135623731,22.4L74.04142135623731,22.9L76.04142135623731,22.9L76.54142135623731,23.4L79.04142135623731,23.4L80.04142135623731,24.4L84.54142135623731,24.4L85.1,24.958578643762692L85.1,26.041421356237308L84.54142135623731,26.6L84.04142135623731,26.6L83.04142135623731,27.6L82.04142135623731,27.6L81.54142135623731,28.1L79.54142135623731,28.1L79.04142135623731,28.6L78,28.6L78,28.4L78.95857864376269,28.4L79.45857864376269,27.9L81.45857864376269,27.9L81.95857864376269,27.4L82.95857864376269,27.4L83.95857864376269,26.4L84.45857864376269,26.4L84.9,25.958578643762692L84.9,25.041421356237308L84.45857864376269,24.6L79.95857864376269,24.6L78.95857864376269,23.6L76.45857864376269,23.6L75.95857864376269,23.1L73.95857864376269,23.1L73.45857864376269,22.6L72.95857864376269,22.6L72.45857864376269,22.1L71.95857864376269,22.1L67.4,17.541421356237308L67.4,12.45857864376269L67.9,11.95857864376269L67.9,11.45857864376269L71.45857864376269,7.9L72.45857864376269,7.9L73.45857864376269,6.9L75.45857864376269,6.9L75.95857864376269,6.4L76.95857864376269,6.4L77.45857864376269,5.9L77.95857864376269,5.9L78.45857864376269,5.4L82.45857864376269,5.4L82.95857864376269,4.9L88.45857864376269,4.9L88.95857864376269,4.4L89.95857864376269,4.4L90.45857864376269,3.9L90.95857864376269,3.9L91.95857864376269,2.9L92.45857864376269,2.9L92.95857864376269,2.4L99.04142135623731,2.4L99.6,2.9585786437626904L99.6,14.04142135623731L99.1,14.54142135623731L99.1,16.041421356237308L97.6,17.541421356237308L97.6,20.541421356237308L96.6,21.541421356237308L96.6,22.541421356237308L96.1,23.041421356237308z" stroke="none"/><path d="M48.1,19.5L47.9,19.5L47.9,10.54142135623731L46.9,9.54142135623731L46.9,8.45857864376269L47.45857864376269,7.9L51.04142135623731,7.9L52.04142135623731,8.9L52.54142135623731,8.9L55.04142135623731,11.4L55.54142135623731,11.4L56.04142135623731,11.9L57.54142135623731,11.9L58.54142135623731,12.9L59.04142135623731,12.9L59.54142135623731,13.4L60.04142135623731,13.4L61.04142135623731,14.4L61.95857864376269,14.4L62.4,13.95857864376269L62.4,9.04142135623731L61.9,8.54142135623731L61.9,6.95857864376269L62.92928932188134,5.929289321881345L63.07071067811866,6.070710678118655L62.1,7.04142135623731L62.1,8.45857864376269L62.6,8.95857864376269L62.6,14.04142135623731L62.04142135623731,14.6L60.95857864376269,14.6L59.95857864376269,13.6L59.45857864376269,13.6L58.95857864376269,13.1L58.45857864376269,13.1L57.45857864376269,12.1L55.95857864376269,12.1L55.45857864376269,11.6L54.95857864376269,11.6L52.45857864376269,9.1L51.95857864376269,9.1L50.95857864376269,8.1L47.54142135623731,8.1L47.1,8.54142135623731L47.1,9.45857864376269L48.1,10.45857864376269z" stroke="none"/><path d="M97.5,94.4L97.5,94.6L83.54142135623731,94.6L83.04142135623731,95.1L77.95857864376269,95.1L76.9,94.04142135623731L76.9,93.54142135623731L76.42928932188134,93.07071067811866L76.57071067811866,92.92928932188134L77.1,93.45857864376269L77.1,93.95857864376269L78.04142135623731,94.9L82.95857864376269,94.9L83.45857864376269,94.4z" stroke="none"/><path d="M42,4.6L42,4.4L46.45857864376269,4.4L47.45857864376269,3.4L61.04142135623731,3.4L62.04142135623731,4.4L63.04142135623731,4.4L64.1,5.45857864376269L64.1,6.54142135623731L63.07071067811866,7.570710678118655L62.92928932188134,7.429289321881345L63.9,6.45857864376269L63.9,5.54142135623731L62.95857864376269,4.6L61.95857864376269,4.6L60.95857864376269,3.6L47.54142135623731,3.6L46.54142135623731,4.6z" stroke="none"/><path d="M9.070710678118655,93.07071067811866L8.929289321881345,92.92928932188134L16.4,85.45857864376269L16.4,84.95857864376269L17.4,83.95857864376269L17.4,83.45857864376269L17.9,82.95857864376269L17.9,82.45857864376269L18.4,81.95857864376269L18.4,81.45857864376269L21.9,77.95857864376269L21.9,77.45857864376269L22.4,76.95857864376269L22.4,76.5L22.6,76.5L22.6,77.04142135623731L22.1,77.54142135623731L22.1,78.04142135623731L18.6,81.54142135623731L18.6,82.04142135623731L18.1,82.54142135623731L18.1,83.04142135623731L17.6,83.54142135623731L17.6,84.04142135623731L16.6,85.04142135623731L16.6,85.54142135623731z" stroke="none"/><path d="M46.57071067811866,77.92928932188134L46.42928932188134,78.07071067811866L33.45857864376269,65.1L30.958578643762692,65.1L30.458578643762692,64.6L30,64.6L30,64.4L30.541421356237308,64.4L31.041421356237308,64.9L33.54142135623731,64.9z" stroke="none"/><path d="M97.57071067811866,22.570710678118655L97.42928932188134,22.429289321881345L98.4,21.458578643762692L98.4,19.958578643762692L98.9,19.458578643762692L98.9,17.958578643762692L99.4,17.458578643762692L99.4,15.45857864376269L99.9,14.95857864376269L99.9,2.5414213562373096L99.45857864376269,2.1L91.04142135623731,2.1L90.54142135623731,2.6L90.04142135623731,2.6L89.54142135623731,3.1L88.5,3.1L88.5,2.9L89.45857864376269,2.9L89.95857864376269,2.4L90.45857864376269,2.4L90.95857864376269,1.9L99.54142135623731,1.9L100.1,2.4585786437626904L100.1,15.04142135623731L99.6,15.54142135623731L99.6,17.541421356237308L99.1,18.041421356237308L99.1,19.541421356237308L98.6,20.041421356237308L98.6,21.541421356237308z" stroke="none"/><path d="M6.070710678118655,19.429289321881345L5.929289321881345,19.570710678118655L5.45857864376269,19.1L4.95857864376269,19.1L3.4585786437626904,17.6L2.4585786437626904,17.6L1.9,17.041421356237308L1.9,14.45857864376269L2.4585786437626904,13.9L2.9585786437626904,13.9L3.9585786437626904,12.9L5.95857864376269,12.9L6.45857864376269,12.4L6.95857864376269,12.4L7.95857864376269,11.4L8.95857864376269,11.4L10.45857864376269,9.9L10.95857864376269,9.9L11.45857864376269,9.4L11.95857864376269,9.4L12.95857864376269,8.4L15.45857864376269,8.4L17.458578643762692,6.4L20.041421356237308,6.4L22.1,8.45857864376269L22.1,14.95857864376269L22.6,15.45857864376269L22.6,16.458578643762692L23.6,17.458578643762692L23.6,18.458578643762692L24.1,18.958578643762692L24.1,20.958578643762692L24.6,21.458578643762692L24.6,22.458578643762692L25.6,23.458578643762692L25.6,23.958578643762692L26.1,24.458578643762692L26.1,26.958578643762692L26.6,27.458578643762692L26.6,27.958578643762692L27.070710678118655,28.429289321881345L26.929289321881345,28.570710678118655L26.4,28.041421356237308L26.4,27.541421356237308L25.9,27.041421356237308L25.9,24.541421356237308L25.4,24.041421356237308L25.4,23.541421356237308L24.4,22.541421356237308L24.4,21.541421356237308L23.9,21.041421356237308L23.9,19.041421356237308L23.4,18.541421356237308L23.4,17.541421356237308L22.4,16.541421356237308L22.4,15.54142135623731L21.9,15.04142135623731L21.9,8.54142135623731L19.958578643762692,6.6L17.541421356237308,6.6L15.54142135623731,8.6L13.04142135623731,8.6L12.04142135623731,9.6L11.54142135623731,9.6L11.04142135623731,10.1L10.54142135623731,10.1L9.04142135623731,11.6L8.04142135623731,11.6L7.04142135623731,12.6L6.54142135623731,12.6L6.04142135623731,13.1L4.04142135623731,13.1L3.0414213562373096,14.1L2.5414213562373096,14.1L2.1,14.54142135623731L2.1,16.958578643762692L2.5414213562373096,17.4L3.5414213562373096,17.4L5.04142135623731,18.9L5.54142135623731,18.9z" stroke="none"/><path d="M7.429289321881345,4.429289321881345L7.570710678118655,4.570710678118655L5.1,7.04142135623731L5.1,8.04142135623731L4.6,8.54142135623731L4.6,9.04142135623731L3.1,10.54142135623731L3.1,11.04142135623731L2.1,12.04142135623731L2.1,13.54142135623731L1.6,14.04142135623731L1.6,17.458578643762692L4.1,19.958578643762692L4.1,20.958578643762692L4.6,21.458578643762692L4.6,21.958578643762692L5.6,22.958578643762692L5.6,23.458578643762692L6.1,23.958578643762692L6.1,24.458578643762692L8.1,26.458578643762692L8.1,26.958578643762692L8.6,27.458578643762692L8.6,27.958578643762692L9.070710678118655,28.429289321881345L8.929289321881345,28.570710678118655L8.4,28.041421356237308L8.4,27.541421356237308L7.9,27.041421356237308L7.9,26.541421356237308L5.9,24.541421356237308L5.9,24.041421356237308L5.4,23.541421356237308L5.4,23.041421356237308L4.4,22.041421356237308L4.4,21.541421356237308L3.9,21.041421356237308L3.9,20.041421356237308L1.4,17.541421356237308L1.4,13.95857864376269L1.9,13.45857864376269L1.9,11.95857864376269L2.9,10.95857864376269L2.9,10.45857864376269L4.4,8.95857864376269L4.4,8.45857864376269L4.9,7.95857864376269L4.9,6.95857864376269z" stroke="none"/><path d="M25.570710678118655,74.92928932188134L25.429289321881345,75.07071067811866L24.458578643762692,74.1L23.541421356237308,74.1L15.6,82.04142135623731L15.6,83.04142135623731L15.1,83.54142135623731L15.1,84.04142135623731L14.1,85.04142135623731L14.1,85.54142135623731L13.6,86.04142135623731L13.6,86.54142135623731L9.6,90.54142135623731L9.6,91.04142135623731L8.1,92.54142135623731L8.1,93.45857864376269L8.54142135623731,93.9L9.04142135623731,93.9L9.54142135623731,94.4L10.54142135623731,94.4L11.04142135623731,94.9L11.54142135623731,94.9L12.04142135623731,95.4L13.04142135623731,95.4L13.570710678118655,95.92928932188134L13.429289321881345,96.07071067811866L12.95857864376269,95.6L11.95857864376269,95.6L11.45857864376269,95.1L10.95857864376269,95.1L10.45857864376269,94.6L9.45857864376269,94.6L8.95857864376269,94.1L8.45857864376269,94.1L7.9,93.54142135623731L7.9,92.45857864376269L9.4,90.95857864376269L9.4,90.45857864376269L13.4,86.45857864376269L13.4,85.95857864376269L13.9,85.45857864376269L13.9,84.95857864376269L14.9,83.95857864376269L14.9,83.45857864376269L15.4,82.95857864376269L15.4,81.95857864376269L23.458578643762692,73.9L24.541421356237308,73.9z" stroke="none"/><path d="M6.070710678118655,7.570710678118655L5.929289321881345,7.429289321881345L8.4,4.95857864376269L8.4,4.04142135623731L7.95857864376269,3.6L7.04142135623731,3.6L4.1,6.54142135623731L4.1,8.54142135623731L2.6,10.04142135623731L2.6,10.54142135623731L1.6,11.54142135623731L1.6,13.04142135623731L1.1,13.54142135623731L1.1,17.958578643762692L3.6,20.458578643762692L3.6,21.458578643762692L4.1,21.958578643762692L4.1,22.458578643762692L4.6,22.958578643762692L4.6,25.458578643762692L8.54142135623731,29.4L15.45857864376269,29.4L16.958578643762692,27.9L17.458578643762692,27.9L17.958578643762692,27.4L20.458578643762692,27.4L20.929289321881345,26.929289321881345L21.070710678118655,27.070710678118655L20.541421356237308,27.6L18.041421356237308,27.6L17.541421356237308,28.1L17.041421356237308,28.1L15.54142135623731,29.6L8.45857864376269,29.6L4.4,25.541421356237308L4.4,23.041421356237308L3.9,22.541421356237308L3.9,22.041421356237308L3.4,21.541421356237308L3.4,20.541421356237308L0.9,18.041421356237308L0.9,13.45857864376269L1.4,12.95857864376269L1.4,11.45857864376269L2.4,10.45857864376269L2.4,9.95857864376269L3.9,8.45857864376269L3.9,6.45857864376269L6.95857864376269,3.4L8.04142135623731,3.4L8.6,3.9585786437626904L8.6,5.04142135623731z" stroke="none"/><path d="M3.1,55.5L2.9,55.5L2.9,33.95857864376269L3.4,33.45857864376269L3.4,32.45857864376269L5.45857864376269,30.4L8.04142135623731,30.4L9.04142135623731,31.4L9.54142135623731,31.4L10.04142135623731,31.9L11.04142135623731,31.9L11.54142135623731,32.4L14.54142135623731,32.4L15.070710678118655,32.92928932188134L14.929289321881345,33.07071067811866L14.45857864376269,32.6L11.45857864376269,32.6L10.95857864376269,32.1L9.95857864376269,32.1L9.45857864376269,31.6L8.95857864376269,31.6L7.95857864376269,30.6L5.54142135623731,30.6L3.6,32.54142135623731L3.6,33.54142135623731L3.1,34.04142135623731z" stroke="none"/><path d="M39,88.6L39,88.4L40.54142135623731,88.4L41.04142135623731,88.9L42.54142135623731,88.9L48.6,94.95857864376269L48.6,95.95857864376269L49.1,96.45857864376269L49.1,97.45857864376269L50.1,98.45857864376269L50.1,98.95857864376269L51.54142135623731,100.4L53.95857864376269,100.4L54.95857864376269,99.4L55.95857864376269,99.4L56.45857864376269,98.9L57.45857864376269,98.9L57.95857864376269,98.4L58.95857864376269,98.4L61.95857864376269,95.4L62.45857864376269,95.4L62.95857864376269,94.9L63.45857864376269,94.9L63.95857864376269,94.4L64.5,94.4L64.5,94.6L64.04142135623731,94.6L63.54142135623731,95.1L63.04142135623731,95.1L62.54142135623731,95.6L62.04142135623731,95.6L59.04142135623731,98.6L58.04142135623731,98.6L57.54142135623731,99.1L56.54142135623731,99.1L56.04142135623731,99.6L55.04142135623731,99.6L54.04142135623731,100.6L51.45857864376269,100.6L49.9,99.04142135623731L49.9,98.54142135623731L48.9,97.54142135623731L48.9,96.54142135623731L48.4,96.04142135623731L48.4,95.04142135623731L42.45857864376269,89.1L40.95857864376269,89.1L40.45857864376269,88.6z" stroke="none"/><path d="M4.4,33L4.6,33L4.6,33.95857864376269L5.1,34.45857864376269L5.1,35.45857864376269L5.6,35.95857864376269L5.6,36.45857864376269L6.1,36.95857864376269L6.1,42.95857864376269L7.1,43.95857864376269L7.1,50.95857864376269L8.6,52.45857864376269L8.6,53.45857864376269L9.1,53.95857864376269L9.1,54.95857864376269L10.1,55.95857864376269L10.1,57.45857864376269L10.6,57.95857864376269L10.6,58.5L10.4,58.5L10.4,58.04142135623731L9.9,57.54142135623731L9.9,56.04142135623731L8.9,55.04142135623731L8.9,54.04142135623731L8.4,53.54142135623731L8.4,52.54142135623731L6.9,51.04142135623731L6.9,44.04142135623731L5.9,43.04142135623731L5.9,37.04142135623731L5.4,36.54142135623731L5.4,36.04142135623731L4.9,35.54142135623731L4.9,34.54142135623731L4.4,34.04142135623731z" stroke="none"/><path d="M78,52.4L78,52.6L72.54142135623731,52.6L71.54142135623731,53.6L71.04142135623731,53.6L70.54142135623731,54.1L70.04142135623731,54.1L69.54142135623731,54.6L69.04142135623731,54.6L68.54142135623731,55.1L65.54142135623731,55.1L65.04142135623731,55.6L63.54142135623731,55.6L61.6,57.54142135623731L61.6,59.04142135623731L59.1,61.54142135623731L59.1,63.54142135623731L58.1,64.54142135623731L58.1,65.04142135623731L57.54142135623731,65.6L56.04142135623731,65.6L55.57071067811866,66.07071067811866L55.42928932188134,65.92928932188134L55.95857864376269,65.4L57.45857864376269,65.4L57.9,64.95857864376269L57.9,64.45857864376269L58.9,63.45857864376269L58.9,61.45857864376269L61.4,58.95857864376269L61.4,57.45857864376269L63.45857864376269,55.4L64.95857864376269,55.4L65.45857864376269,54.9L68.45857864376269,54.9L68.95857864376269,54.4L69.45857864376269,54.4L69.95857864376269,53.9L70.45857864376269,53.9L70.95857864376269,53.4L71.45857864376269,53.4L72.45857864376269,52.4z" stroke="none"/><path d="M70.5,50.9L70.5,51.1L62.45857864376269,51.1L61.95857864376269,50.6L60.95857864376269,50.6L60.45857864376269,50.1L59.95857864376269,50.1L59.45857864376269,49.6L58.95857864376269,49.6L58.4,49.04142135623731L58.4,38.04142135623731L57.4,37.04142135623731L57.4,30.958578643762692L57.9,30.458578643762692L57.9,27.458578643762692L58.42928932188134,26.929289321881345L58.57071067811866,27.070710678118655L58.1,27.541421356237308L58.1,30.541421356237308L57.6,31.041421356237308L57.6,36.95857864376269L58.6,37.95857864376269L58.6,48.95857864376269L59.04142135623731,49.4L59.54142135623731,49.4L60.04142135623731,49.9L60.54142135623731,49.9L61.04142135623731,50.4L62.04142135623731,50.4L62.54142135623731,50.9z" stroke="none"/><path d="M10.429289321881345,76.42928932188134L10.570710678118655,76.57071067811866L9.6,77.54142135623731L9.6,80.54142135623731L9.1,81.04142135623731L9.1,82.54142135623731L8.6,83.04142135623731L8.6,83.54142135623731L7.6,84.54142135623731L7.6,85.54142135623731L6.54142135623731,86.6L5.45857864376269,86.6L4.9,86.04142135623731L4.9,71.04142135623731L4.4,70.54142135623731L4.4,68.04142135623731L3.4,67.04142135623731L3.4,66.04142135623731L2.9,65.54142135623731L2.9,65.04142135623731L1.9,64.04142135623731L1.9,62.45857864376269L2.4585786437626904,61.9L5.45857864376269,61.9L5.95857864376269,61.4L7.45857864376269,61.4L7.95857864376269,60.9L8.45857864376269,60.9L9.45857864376269,59.9L9.95857864376269,59.9L10.45857864376269,59.4L10.95857864376269,59.4L11.4,58.95857864376269L11.4,58.04142135623731L10.9,57.54142135623731L10.9,50.54142135623731L10.4,50.04142135623731L10.4,49.5L10.6,49.5L10.6,49.95857864376269L11.1,50.45857864376269L11.1,57.45857864376269L11.6,57.95857864376269L11.6,59.04142135623731L11.04142135623731,59.6L10.54142135623731,59.6L10.04142135623731,60.1L9.54142135623731,60.1L8.54142135623731,61.1L8.04142135623731,61.1L7.54142135623731,61.6L6.04142135623731,61.6L5.54142135623731,62.1L2.5414213562373096,62.1L2.1,62.54142135623731L2.1,63.95857864376269L3.1,64.95857864376269L3.1,65.45857864376269L3.6,65.95857864376269L3.6,66.95857864376269L4.6,67.95857864376269L4.6,70.45857864376269L5.1,70.95857864376269L5.1,85.95857864376269L5.54142135623731,86.4L6.45857864376269,86.4L7.4,85.45857864376269L7.4,84.45857864376269L8.4,83.45857864376269L8.4,82.95857864376269L8.9,82.45857864376269L8.9,80.95857864376269L9.4,80.45857864376269L9.4,77.45857864376269z" stroke="none"/><path d="M7.6,94.5L7.4,94.5L7.4,91.45857864376269L9.4,89.45857864376269L9.4,88.45857864376269L9.9,87.95857864376269L9.9,86.45857864376269L10.4,85.95857864376269L10.4,85.45857864376269L10.9,84.95857864376269L10.9,84.45857864376269L21.9,73.45857864376269L21.9,72.95857864376269L22.4,72.45857864376269L22.4,72L22.6,72L22.6,72.54142135623731L22.1,73.04142135623731L22.1,73.54142135623731L11.1,84.54142135623731L11.1,85.04142135623731L10.6,85.54142135623731L10.6,86.04142135623731L10.1,86.54142135623731L10.1,88.04142135623731L9.6,88.54142135623731L9.6,89.54142135623731L7.6,91.54142135623731z" stroke="none"/><path d="M34.4,60L34.6,60L34.6,61.04142135623731L34.1,61.54142135623731L34.1,62.54142135623731L33.54142135623731,63.1L30.541421356237308,63.1L30.041421356237308,63.6L29.541421356237308,63.6L12.6,80.54142135623731L12.6,81.04142135623731L12.1,81.54142135623731L12.1,82.04142135623731L11.6,82.54142135623731L11.6,83.04142135623731L10.6,84.04142135623731L10.6,84.54142135623731L10.1,85.04142135623731L10.1,85.54142135623731L9.6,86.04142135623731L9.6,87.54142135623731L8.1,89.04142135623731L8.1,90.04142135623731L7.1,91.04142135623731L7.1,93.54142135623731L6.6,94.04142135623731L6.6,94.95857864376269L7.04142135623731,95.4L10.04142135623731,95.4L11.04142135623731,96.4L12.54142135623731,96.4L13.04142135623731,96.9L23.041421356237308,96.9L23.541421356237308,97.4L36.95857864376269,97.4L37.4,96.95857864376269L37.4,95.04142135623731L35.95857864376269,93.6L35.45857864376269,93.6L34.45857864376269,92.6L31.958578643762692,92.6L31.458578643762692,92.1L30.958578643762692,92.1L29.458578643762692,90.6L27.958578643762692,90.6L27.458578643762692,90.1L26.958578643762692,90.1L25.9,89.04142135623731L25.9,87.95857864376269L26.458578643762692,87.4L40.45857864376269,87.4L40.95857864376269,86.9L41.45857864376269,86.9L41.95857864376269,86.4L42.45857864376269,86.4L43.45857864376269,85.4L44.45857864376269,85.4L44.95857864376269,84.9L45.45857864376269,84.9L48.4,81.95857864376269L48.4,81.45857864376269L49.4,80.45857864376269L49.4,79.95857864376269L49.9,79.45857864376269L49.9,78.45857864376269L50.9,77.45857864376269L50.9,76.95857864376269L51.9,75.95857864376269L51.9,74.95857864376269L52.45857864376269,74.4L58.45857864376269,74.4L58.95857864376269,73.9L59.45857864376269,73.9L59.92928932188134,73.42928932188134L60.07071067811866,73.57071067811866L59.54142135623731,74.1L59.04142135623731,74.1L58.54142135623731,74.6L52.54142135623731,74.6L52.1,75.04142135623731L52.1,76.04142135623731L51.1,77.04142135623731L51.1,77.54142135623731L50.1,78.54142135623731L50.1,79.54142135623731L49.6,80.04142135623731L49.6,80.54142135623731L48.6,81.54142135623731L48.6,82.04142135623731L45.54142135623731,85.1L45.04142135623731,85.1L44.54142135623731,85.6L43.54142135623731,85.6L42.54142135623731,86.6L42.04142135623731,86.6L41.54142135623731,87.1L41.04142135623731,87.1L40.54142135623731,87.6L26.541421356237308,87.6L26.1,88.04142135623731L26.1,88.95857864376269L27.041421356237308,89.9L27.541421356237308,89.9L28.041421356237308,90.4L29.541421356237308,90.4L31.041421356237308,91.9L31.541421356237308,91.9L32.04142135623731,92.4L34.54142135623731,92.4L35.54142135623731,93.4L36.04142135623731,93.4L37.6,94.95857864376269L37.6,97.04142135623731L37.04142135623731,97.6L23.458578643762692,97.6L22.958578643762692,97.1L12.95857864376269,97.1L12.45857864376269,96.6L10.95857864376269,96.6L9.95857864376269,95.6L6.95857864376269,95.6L6.4,95.04142135623731L6.4,93.95857864376269L6.9,93.45857864376269L6.9,90.95857864376269L7.9,89.95857864376269L7.9,88.95857864376269L9.4,87.45857864376269L9.4,85.95857864376269L9.9,85.45857864376269L9.9,84.95857864376269L10.4,84.45857864376269L10.4,83.95857864376269L11.4,82.95857864376269L11.4,82.45857864376269L11.9,81.95857864376269L11.9,81.45857864376269L12.4,80.95857864376269L12.4,80.45857864376269L29.458578643762692,63.4L29.958578643762692,63.4L30.458578643762692,62.9L33.45857864376269,62.9L33.9,62.45857864376269L33.9,61.45857864376269L34.4,60.95857864376269z" stroke="none"/><path d="M16.5,102.1L16.5,101.9L34.95857864376269,101.9L35.95857864376269,100.9L36.45857864376269,100.9L36.95857864376269,100.4L39.45857864376269,100.4L40.45857864376269,99.4L42.45857864376269,99.4L44.45857864376269,97.4L45,97.4L45,97.6L44.54142135623731,97.6L42.54142135623731,99.6L40.54142135623731,99.6L39.54142135623731,100.6L37.04142135623731,100.6L36.54142135623731,101.1L36.04142135623731,101.1L35.04142135623731,102.1z" stroke="none"/><path d="M10.5,7.6L10.5,7.4L15.45857864376269,7.4L16.958578643762692,5.9L20.541421356237308,5.9L22.6,7.95857864376269L22.6,9.45857864376269L24.6,11.45857864376269L24.6,11.95857864376269L25.6,12.95857864376269L25.6,13.95857864376269L28.6,16.958578643762692L28.6,17.458578643762692L31.1,19.958578643762692L31.1,20.458578643762692L32.6,21.958578643762692L32.6,22.458578643762692L34.1,23.958578643762692L34.1,24.458578643762692L34.6,24.958578643762692L34.6,25.5L34.4,25.5L34.4,25.041421356237308L33.9,24.541421356237308L33.9,24.041421356237308L32.4,22.541421356237308L32.4,22.041421356237308L30.9,20.541421356237308L30.9,20.041421356237308L28.4,17.541421356237308L28.4,17.041421356237308L25.4,14.04142135623731L25.4,13.04142135623731L24.4,12.04142135623731L24.4,11.54142135623731L22.4,9.54142135623731L22.4,8.04142135623731L20.458578643762692,6.1L17.041421356237308,6.1L15.54142135623731,7.6z" stroke="none"/><path d="M93,75.1L93,74.9L98.95857864376269,74.9L99.95857864376269,73.9L101.04142135623731,73.9L101.6,74.45857864376269L101.6,91.54142135623731L99.6,93.54142135623731L99.6,94.04142135623731L98.04142135623731,95.6L94.04142135623731,95.6L92.04142135623731,97.6L85.04142135623731,97.6L84.54142135623731,98.1L84.04142135623731,98.1L81.54142135623731,100.6L68.45857864376269,100.6L66.45857864376269,98.6L65.45857864376269,98.6L64.9,98.04142135623731L64.9,96.95857864376269L68.92928932188134,92.92928932188134L69.07071067811866,93.07071067811866L65.1,97.04142135623731L65.1,97.95857864376269L65.54142135623731,98.4L66.54142135623731,98.4L68.54142135623731,100.4L81.45857864376269,100.4L83.95857864376269,97.9L84.45857864376269,97.9L84.95857864376269,97.4L91.95857864376269,97.4L93.95857864376269,95.4L97.95857864376269,95.4L99.4,93.95857864376269L99.4,93.45857864376269L101.4,91.45857864376269L101.4,74.54142135623731L100.95857864376269,74.1L100.04142135623731,74.1L99.04142135623731,75.1z" stroke="none"/><path d="M13.5,3.1L13.5,2.9L16.041421356237308,2.9L17.041421356237308,3.9L18.541421356237308,3.9L19.041421356237308,4.4L19.541421356237308,4.4L20.541421356237308,5.4L21.541421356237308,5.4L23.041421356237308,6.9L23.541421356237308,6.9L26.541421356237308,9.9L27.041421356237308,9.9L30.541421356237308,13.4L31.041421356237308,13.4L32.04142135623731,14.4L33.04142135623731,14.4L33.54142135623731,14.9L35.04142135623731,14.9L39.04142135623731,18.9L40.04142135623731,18.9L40.57071067811866,19.429289321881345L40.42928932188134,19.570710678118655L39.95857864376269,19.1L38.95857864376269,19.1L34.95857864376269,15.1L33.45857864376269,15.1L32.95857864376269,14.6L31.958578643762692,14.6L30.958578643762692,13.6L30.458578643762692,13.6L26.958578643762692,10.1L26.458578643762692,10.1L23.458578643762692,7.1L22.958578643762692,7.1L21.458578643762692,5.6L20.458578643762692,5.6L19.458578643762692,4.6L18.958578643762692,4.6L18.458578643762692,4.1L16.958578643762692,4.1L15.95857864376269,3.1z" stroke="none"/><path d="M75,69.1L75,68.9L82.45857864376269,68.9L82.95857864376269,68.4L83.45857864376269,68.4L84.45857864376269,67.4L85.45857864376269,67.4L87.95857864376269,64.9L88.95857864376269,64.9L89.45857864376269,64.4L89.95857864376269,64.4L90.95857864376269,63.4L91.45857864376269,63.4L91.95857864376269,62.9L96.54142135623731,62.9L97.54142135623731,63.9L98.04142135623731,63.9L99.1,64.95857864376269L99.1,65.95857864376269L100.1,66.95857864376269L100.1,68.45857864376269L101.1,69.45857864376269L101.1,70.45857864376269L101.6,70.95857864376269L101.6,72.95857864376269L102.1,73.45857864376269L102.1,92.04142135623731L100.1,94.04142135623731L100.1,94.54142135623731L96.54142135623731,98.1L92.54142135623731,98.1L92.04142135623731,98.6L89.04142135623731,98.6L88.57071067811866,99.07071067811866L88.42928932188134,98.92928932188134L88.95857864376269,98.4L91.95857864376269,98.4L92.45857864376269,97.9L96.45857864376269,97.9L99.9,94.45857864376269L99.9,93.95857864376269L101.9,91.95857864376269L101.9,73.54142135623731L101.4,73.04142135623731L101.4,71.04142135623731L100.9,70.54142135623731L100.9,69.54142135623731L99.9,68.54142135623731L99.9,67.04142135623731L98.9,66.04142135623731L98.9,65.04142135623731L97.95857864376269,64.1L97.45857864376269,64.1L96.45857864376269,63.1L92.04142135623731,63.1L91.54142135623731,63.6L91.04142135623731,63.6L90.04142135623731,64.6L89.54142135623731,64.6L89.04142135623731,65.1L88.04142135623731,65.1L85.54142135623731,67.6L84.54142135623731,67.6L83.54142135623731,68.6L83.04142135623731,68.6L82.54142135623731,69.1z" stroke="none"/><path d="M25.570710678118655,34.57071067811866L25.429289321881345,34.42928932188134L27.9,31.958578643762692L27.9,31.041421356237308L27.458578643762692,30.6L8.95857864376269,30.6L8.45857864376269,30.1L7.95857864376269,30.1L0.9,23.041421356237308L0.9,22.541421356237308L0.4,22.041421356237308L0.4,10.45857864376269L1.4,9.45857864376269L1.4,8.95857864376269L2.4,7.95857864376269L2.4,7.45857864376269L2.9,6.95857864376269L2.9,6.45857864376269L6.45857864376269,2.9L11.45857864376269,2.9L12.45857864376269,1.9L21.541421356237308,1.9L25.041421356237308,5.4L25.541421356237308,5.4L26.541421356237308,6.4L28.041421356237308,6.4L28.541421356237308,6.9L30.041421356237308,6.9L34.04142135623731,10.9L35.04142135623731,10.9L35.54142135623731,11.4L36.04142135623731,11.4L37.54142135623731,12.9L38.04142135623731,12.9L44.54142135623731,19.4L46.04142135623731,19.4L46.54142135623731,19.9L47.04142135623731,19.9L47.54142135623731,20.4L48.45857864376269,20.4L48.9,19.958578643762692L48.9,19.458578643762692L49.4,18.958578643762692L49.4,16.458578643762692L49.9,15.95857864376269L49.9,13.45857864376269L50.4,12.95857864376269L50.4,12.45857864376269L50.92928932188134,11.929289321881345L51.07071067811866,12.070710678118655L50.6,12.54142135623731L50.6,13.04142135623731L50.1,13.54142135623731L50.1,16.041421356237308L49.6,16.541421356237308L49.6,19.041421356237308L49.1,19.541421356237308L49.1,20.041421356237308L48.54142135623731,20.6L47.45857864376269,20.6L46.95857864376269,20.1L46.45857864376269,20.1L45.95857864376269,19.6L44.45857864376269,19.6L37.95857864376269,13.1L37.45857864376269,13.1L35.95857864376269,11.6L35.45857864376269,11.6L34.95857864376269,11.1L33.95857864376269,11.1L29.958578643762692,7.1L28.458578643762692,7.1L27.958578643762692,6.6L26.458578643762692,6.6L25.458578643762692,5.6L24.958578643762692,5.6L21.458578643762692,2.1L12.54142135623731,2.1L11.54142135623731,3.1L6.54142135623731,3.1L3.1,6.54142135623731L3.1,7.04142135623731L2.6,7.54142135623731L2.6,8.04142135623731L1.6,9.04142135623731L1.6,9.54142135623731L0.6,10.54142135623731L0.6,21.958578643762692L1.1,22.458578643762692L1.1,22.958578643762692L8.04142135623731,29.9L8.54142135623731,29.9L9.04142135623731,30.4L27.541421356237308,30.4L28.1,30.958578643762692L28.1,32.04142135623731z" stroke="none"/><path d="M37.42928932188134,51.07071067811866L37.57071067811866,50.92928932188134L38.1,51.45857864376269L38.1,51.95857864376269L38.6,52.45857864376269L38.6,52.95857864376269L39.1,53.45857864376269L39.1,53.95857864376269L40.6,55.45857864376269L40.6,56.45857864376269L43.04142135623731,58.9L43.54142135623731,58.9L45.54142135623731,60.9L47.54142135623731,60.9L48.04142135623731,61.4L48.54142135623731,61.4L51.04142135623731,63.9L51.54142135623731,63.9L54.04142135623731,66.4L54.54142135623731,66.4L55.04142135623731,66.9L66.54142135623731,66.9L67.04142135623731,67.4L67.5,67.4L67.5,67.6L66.95857864376269,67.6L66.45857864376269,67.1L54.95857864376269,67.1L54.45857864376269,66.6L53.95857864376269,66.6L51.45857864376269,64.1L50.95857864376269,64.1L48.45857864376269,61.6L47.95857864376269,61.6L47.45857864376269,61.1L45.45857864376269,61.1L43.45857864376269,59.1L42.95857864376269,59.1L40.4,56.54142135623731L40.4,55.54142135623731L38.9,54.04142135623731L38.9,53.54142135623731L38.4,53.04142135623731L38.4,52.54142135623731L37.9,52.04142135623731L37.9,51.54142135623731z" stroke="none"/><path d="M10.4,78L10.6,78L10.6,80.04142135623731L10.1,80.54142135623731L10.1,81.54142135623731L9.6,82.04142135623731L9.6,85.04142135623731L9.1,85.54142135623731L9.1,86.04142135623731L8.6,86.54142135623731L8.6,87.54142135623731L6.6,89.54142135623731L6.6,92.04142135623731L6.1,92.54142135623731L6.1,95.45857864376269L9.04142135623731,98.4L9.54142135623731,98.4L10.04142135623731,98.9L11.54142135623731,98.9L12.04142135623731,99.4L12.54142135623731,99.4L16.041421356237308,102.9L35.45857864376269,102.9L35.95857864376269,102.4L36.95857864376269,102.4L37.42928932188134,101.92928932188134L37.57071067811866,102.07071067811866L37.04142135623731,102.6L36.04142135623731,102.6L35.54142135623731,103.1L15.95857864376269,103.1L12.45857864376269,99.6L11.95857864376269,99.6L11.45857864376269,99.1L9.95857864376269,99.1L9.45857864376269,98.6L8.95857864376269,98.6L5.9,95.54142135623731L5.9,92.45857864376269L6.4,91.95857864376269L6.4,89.45857864376269L8.4,87.45857864376269L8.4,86.45857864376269L8.9,85.95857864376269L8.9,85.45857864376269L9.4,84.95857864376269L9.4,81.95857864376269L9.9,81.45857864376269L9.9,80.45857864376269L10.4,79.95857864376269z" stroke="none"/><path d="M85.57071067811866,64.57071067811866L85.42928932188134,64.42928932188134L85.95857864376269,63.9L86.45857864376269,63.9L86.95857864376269,63.4L87.45857864376269,63.4L87.95857864376269,62.9L90.95857864376269,62.9L91.45857864376269,62.4L97.04142135623731,62.4L98.04142135623731,63.4L98.54142135623731,63.4L100.6,65.45857864376269L100.6,65.95857864376269L101.1,66.45857864376269L101.1,66.95857864376269L101.6,67.45857864376269L101.6,67.95857864376269L102.1,68.45857864376269L102.1,72.45857864376269L102.6,72.95857864376269L102.6,92.54142135623731L100.6,94.54142135623731L100.6,95.04142135623731L97.04142135623731,98.6L94.04142135623731,98.6L93.54142135623731,99.1L90.04142135623731,99.1L88.54142135623731,100.6L82.54142135623731,100.6L82.04142135623731,101.1L67.95857864376269,101.1L66.45857864376269,99.6L65.45857864376269,99.6L64.4,98.54142135623731L64.4,96.45857864376269L64.9,95.95857864376269L64.9,95.45857864376269L65.4,94.95857864376269L65.4,94.04142135623731L64.95857864376269,93.6L62.95857864376269,93.6L62.45857864376269,93.1L61.95857864376269,93.1L60.95857864376269,92.1L60.45857864376269,92.1L59.92928932188134,91.57071067811866L60.07071067811866,91.42928932188134L60.54142135623731,91.9L61.04142135623731,91.9L62.04142135623731,92.9L62.54142135623731,92.9L63.04142135623731,93.4L65.04142135623731,93.4L65.6,93.95857864376269L65.6,95.04142135623731L65.1,95.54142135623731L65.1,96.04142135623731L64.6,96.54142135623731L64.6,98.45857864376269L65.54142135623731,99.4L66.54142135623731,99.4L68.04142135623731,100.9L81.95857864376269,100.9L82.45857864376269,100.4L88.45857864376269,100.4L89.95857864376269,98.9L93.45857864376269,98.9L93.95857864376269,98.4L96.95857864376269,98.4L100.4,94.95857864376269L100.4,94.45857864376269L102.4,92.45857864376269L102.4,73.04142135623731L101.9,72.54142135623731L101.9,68.54142135623731L101.4,68.04142135623731L101.4,67.54142135623731L100.9,67.04142135623731L100.9,66.54142135623731L100.4,66.04142135623731L100.4,65.54142135623731L98.45857864376269,63.6L97.95857864376269,63.6L96.95857864376269,62.6L91.54142135623731,62.6L91.04142135623731,63.1L88.04142135623731,63.1L87.54142135623731,63.6L87.04142135623731,63.6L86.54142135623731,64.1L86.04142135623731,64.1z" stroke="none"/><path d="M102.1,6L101.9,6L101.9,3.5414213562373096L99.95857864376269,1.6L84.54142135623731,1.6L83.54142135623731,2.6L83.04142135623731,2.6L82.54142135623731,3.1L82.04142135623731,3.1L81.04142135623731,4.1L78.04142135623731,4.1L77.54142135623731,4.6L76.54142135623731,4.6L76.04142135623731,5.1L75.54142135623731,5.1L75.04142135623731,5.6L74.04142135623731,5.6L72.04142135623731,7.6L71.04142135623731,7.6L67.1,11.54142135623731L67.1,21.041421356237308L66.6,21.541421356237308L66.6,22.958578643762692L75.07071067811866,31.429289321881345L74.92928932188134,31.570710678118655L66.4,23.041421356237308L66.4,21.458578643762692L66.9,20.958578643762692L66.9,11.45857864376269L70.95857864376269,7.4L71.95857864376269,7.4L73.95857864376269,5.4L74.95857864376269,5.4L75.45857864376269,4.9L75.95857864376269,4.9L76.45857864376269,4.4L77.45857864376269,4.4L77.95857864376269,3.9L80.95857864376269,3.9L81.95857864376269,2.9L82.45857864376269,2.9L82.95857864376269,2.4L83.45857864376269,2.4L84.45857864376269,1.4L100.04142135623731,1.4L102.1,3.4585786437626904z" stroke="none"/></svg>