<svg version="1.1" width="105" height="105" xmlns="http://www.w3.org/2000/svg"><path d="M71.9,90.9L71.9,90.54142135623731L71.45857864376269,90.1L66.04142135623731,90.1L64.57071067811866,91.57071067811866L64.42928932188134,91.42928932188134L65.95857864376269,89.9L71.54142135623731,89.9L72.1,90.45857864376269L72.1,90.9L79.45857864376269,90.9L80.45857864376269,89.9L81,89.9L81,90.1L80.54142135623731,90.1L79.54142135623731,91.1L71.54142135623731,91.1L71.04142135623731,91.6L70.5,91.6L70.5,91.4L70.95857864376269,91.4L71.45857864376269,90.9z" stroke="none"/><path d="M88,16.35857864376269L90.4,13.95857864376269L90.4,13.45857864376269L90.9,12.95857864376269L90.9,12.45857864376269L91.42928932188134,11.929289321881345L91.57071067811866,12.070710678118655L91.1,12.54142135623731L91.1,13.04142135623731L90.6,13.54142135623731L90.6,14.04142135623731L88.1,16.541421356237308L88.1,20.041421356237308L87.6,20.541421356237308L87.6,22.958578643762692L88.1,23.458578643762692L88.1,23.958578643762692L90.6,26.458578643762692L90.6,26.958578643762692L91.1,27.458578643762692L91.1,27.958578643762692L91.57071067811866,28.429289321881345L91.42928932188134,28.570710678118655L90.9,28.041421356237308L90.9,27.541421356237308L90.4,27.041421356237308L90.4,26.541421356237308L87.9,24.041421356237308L87.9,23.541421356237308L87.4,23.041421356237308L87.4,20.458578643762692L87.9,19.958578643762692L87.9,16.541421356237308L81.4,10.04142135623731L81.4,9.54142135623731L80.92928932188134,9.070710678118655L81.07071067811866,8.929289321881345L81.6,9.45857864376269L81.6,9.95857864376269z" stroke="none"/><path d="M91.04142135623731,96.4L92.45857864376269,96.4L93.95857864376269,94.9L96.45857864376269,94.9L96.95857864376269,94.4L97.5,94.4L97.5,94.6L97.04142135623731,94.6L96.54142135623731,95.1L94.04142135623731,95.1L92.54142135623731,96.6L91.1,96.6L91.1,96.95857864376269L91.54142135623731,97.4L92.04142135623731,97.4L93.04142135623731,98.4L94.54142135623731,98.4L95.04142135623731,98.9L96.54142135623731,98.9L98.04142135623731,100.4L98.54142135623731,100.4L99.04142135623731,100.9L99.54142135623731,100.9L100.57071067811866,101.92928932188134L100.42928932188134,102.07071067811866L99.45857864376269,101.1L98.95857864376269,101.1L98.45857864376269,100.6L97.95857864376269,100.6L96.45857864376269,99.1L94.95857864376269,99.1L94.45857864376269,98.6L92.95857864376269,98.6L91.95857864376269,97.6L91.45857864376269,97.6L90.9,97.04142135623731L90.9,96.54142135623731L88.95857864376269,94.6L88.45857864376269,94.6L87.45857864376269,93.6L75.45857864376269,93.6L74.92928932188134,93.07071067811866L75.07071067811866,92.92928932188134L75.54142135623731,93.4L87.54142135623731,93.4L88.54142135623731,94.4L89.04142135623731,94.4z" stroke="none"/><path d="M94.4,15.95857864376269L94.4,14.45857864376269L94.9,13.95857864376269L94.9,11.45857864376269L95.4,10.95857864376269L95.4,5.95857864376269L95.9,5.45857864376269L95.9,4.95857864376269L96.4,4.45857864376269L96.4,3.9585786437626904L97.42928932188134,2.9292893218813454L97.57071067811866,3.0707106781186546L96.6,4.04142135623731L96.6,4.54142135623731L96.1,5.04142135623731L96.1,5.54142135623731L95.6,6.04142135623731L95.6,11.04142135623731L95.1,11.54142135623731L95.1,14.04142135623731L94.6,14.54142135623731L94.6,16.041421356237308L93.6,17.041421356237308L93.6,20.458578643762692L94.6,21.458578643762692L94.6,25.5L94.4,25.5L94.4,21.541421356237308L93.4,20.541421356237308L93.4,17.24142135623731L89.1,21.541421356237308L89.1,22.041421356237308L88.57071067811866,22.570710678118655L88.42928932188134,22.429289321881345L88.9,21.958578643762692L88.9,21.458578643762692z" stroke="none"/><path d="M51.5,90.85857864376268L55.4,86.95857864376269L55.4,85.95857864376269L55.9,85.45857864376269L55.9,84.95857864376269L56.92928932188134,83.92928932188134L57.07071067811866,84.07071067811866L56.1,85.04142135623731L56.1,85.54142135623731L55.6,86.04142135623731L55.6,87.04142135623731L51.6,91.04142135623731L51.6,99.45857864376269L52.1,99.95857864376269L52.1,100.45857864376269L52.6,100.95857864376269L52.6,102L52.4,102L52.4,101.04142135623731L51.9,100.54142135623731L51.9,100.04142135623731L51.4,99.54142135623731L51.4,91.04142135623731L49.95857864376269,89.6L48.95857864376269,89.6L48.45857864376269,89.1L47.45857864376269,89.1L45.95857864376269,87.6L45.45857864376269,87.6L44.92928932188134,87.07071067811866L45.07071067811866,86.92928932188134L45.54142135623731,87.4L46.04142135623731,87.4L47.54142135623731,88.9L48.54142135623731,88.9L49.04142135623731,89.4L50.04142135623731,89.4z" stroke="none"/><path d="M31.4,29.958578643762692L31.4,28.958578643762692L35.4,24.958578643762692L35.4,24.458578643762692L36.9,22.958578643762692L36.9,21.958578643762692L37.4,21.458578643762692L37.4,20.958578643762692L38.92928932188134,19.429289321881345L39.07071067811866,19.570710678118655L37.6,21.041421356237308L37.6,21.541421356237308L37.1,22.041421356237308L37.1,23.041421356237308L35.6,24.541421356237308L35.6,25.041421356237308L31.6,29.041421356237308L31.6,29.75857864376269L37.42928932188134,23.929289321881345L37.57071067811866,24.070710678118655L24.6,37.04142135623731L24.6,37.54142135623731L24.1,38.04142135623731L24.1,39.54142135623731L20.1,43.54142135623731L20.1,44.04142135623731L18.6,45.54142135623731L18.6,46.04142135623731L18.070710678118655,46.57071067811866L17.929289321881345,46.42928932188134L18.4,45.95857864376269L18.4,45.45857864376269L19.9,43.95857864376269L19.9,43.45857864376269L23.9,39.45857864376269L23.9,37.95857864376269L24.4,37.45857864376269L24.4,36.95857864376269z" stroke="none"/><path d="M19.9,64.45857864376269L19.9,61.95857864376269L20.4,61.45857864376269L20.4,60.95857864376269L21.4,59.95857864376269L21.4,57.45857864376269L21.9,56.95857864376269L21.9,56.45857864376269L22.4,55.95857864376269L22.4,53.45857864376269L22.9,52.95857864376269L22.9,51.95857864376269L23.4,51.45857864376269L23.4,50.45857864376269L25.4,48.45857864376269L25.4,48L25.6,48L25.6,48.54142135623731L23.6,50.54142135623731L23.6,51.54142135623731L23.1,52.04142135623731L23.1,53.04142135623731L22.6,53.54142135623731L22.6,56.04142135623731L22.1,56.54142135623731L22.1,57.04142135623731L21.6,57.54142135623731L21.6,60.04142135623731L20.6,61.04142135623731L20.6,61.54142135623731L20.1,62.04142135623731L20.1,71.04142135623731L19.6,71.54142135623731L19.6,73.5L19.4,73.5L19.4,71.45857864376269L19.9,70.95857864376269L19.9,64.74142135623731L16.1,68.54142135623731L16.1,69.04142135623731L15.6,69.54142135623731L15.6,70.04142135623731L15.1,70.54142135623731L15.1,72L14.9,72L14.9,70.45857864376269L15.4,69.95857864376269L15.4,69.45857864376269L15.9,68.95857864376269L15.9,68.45857864376269z" stroke="none"/><path d="M37.9,16.458578643762692L37.9,15.54142135623731L36.9,14.54142135623731L36.9,11.54142135623731L36.4,11.04142135623731L36.4,9.54142135623731L35.9,9.04142135623731L35.9,7.5L36.1,7.5L36.1,8.95857864376269L36.6,9.45857864376269L36.6,10.95857864376269L37.1,11.45857864376269L37.1,14.45857864376269L38.1,15.45857864376269L38.1,16.4L47.04142135623731,16.4L47.54142135623731,16.9L49.04142135623731,16.9L50.04142135623731,17.9L51.04142135623731,17.9L51.54142135623731,18.4L52.54142135623731,18.4L53.54142135623731,19.4L54,19.4L54,19.6L53.45857864376269,19.6L52.45857864376269,18.6L51.45857864376269,18.6L50.95857864376269,18.1L49.95857864376269,18.1L48.95857864376269,17.1L47.45857864376269,17.1L46.95857864376269,16.6L38.04142135623731,16.6L35.54142135623731,19.1L28.541421356237308,19.1L26.541421356237308,21.1L26.041421356237308,21.1L25.541421356237308,21.6L25.041421356237308,21.6L24.070710678118655,22.570710678118655L23.929289321881345,22.429289321881345L24.958578643762692,21.4L25.458578643762692,21.4L25.958578643762692,20.9L26.458578643762692,20.9L28.458578643762692,18.9L35.45857864376269,18.9z" stroke="none"/><path d="M63.04142135623731,52.4L64.54142135623731,52.4L65.04142135623731,52.9L66.04142135623731,52.9L66.54142135623731,53.4L68.04142135623731,53.4L68.54142135623731,53.9L75,53.9L75,54.1L68.45857864376269,54.1L67.95857864376269,53.6L66.45857864376269,53.6L65.95857864376269,53.1L64.95857864376269,53.1L64.45857864376269,52.6L63.1,52.6L63.1,53.54142135623731L62.6,54.04142135623731L62.6,55.04142135623731L62.1,55.54142135623731L62.1,57.54142135623731L61.6,58.04142135623731L61.6,59.54142135623731L60.6,60.54142135623731L60.6,61.04142135623731L60.07071067811866,61.57071067811866L59.92928932188134,61.42928932188134L60.4,60.95857864376269L60.4,60.45857864376269L61.4,59.45857864376269L61.4,57.95857864376269L61.9,57.45857864376269L61.9,55.45857864376269L62.4,54.95857864376269L62.4,53.95857864376269L62.9,53.45857864376269L62.9,52.54142135623731L55.9,45.54142135623731L55.9,45.04142135623731L55.4,44.54142135623731L55.4,44.04142135623731L54.9,43.54142135623731L54.9,43.04142135623731L53.92928932188134,42.07071067811866L54.07071067811866,41.92928932188134L55.1,42.95857864376269L55.1,43.45857864376269L55.6,43.95857864376269L55.6,44.45857864376269L56.1,44.95857864376269L56.1,45.45857864376269z" stroke="none"/><path d="M87.54142135623731,58.4L89.45857864376269,58.4L89.95857864376269,57.9L90.95857864376269,57.9L91.45857864376269,57.4L92.45857864376269,57.4L93.45857864376269,56.4L94.45857864376269,56.4L94.95857864376269,55.9L98.45857864376269,55.9L98.92928932188134,55.42928932188134L99.07071067811866,55.57071067811866L98.54142135623731,56.1L95.04142135623731,56.1L94.54142135623731,56.6L93.54142135623731,56.6L92.54142135623731,57.6L91.54142135623731,57.6L91.04142135623731,58.1L90.04142135623731,58.1L89.54142135623731,58.6L87.6,58.6L87.6,58.95857864376269L88.1,59.45857864376269L88.1,60.45857864376269L89.1,61.45857864376269L89.1,62.95857864376269L89.6,63.45857864376269L89.6,66.95857864376269L90.1,67.45857864376269L90.1,67.95857864376269L91.1,68.95857864376269L91.1,70.45857864376269L92.6,71.95857864376269L92.6,72.45857864376269L93.1,72.95857864376269L93.1,73.5L92.9,73.5L92.9,73.04142135623731L92.4,72.54142135623731L92.4,72.04142135623731L90.9,70.54142135623731L90.9,69.04142135623731L89.9,68.04142135623731L89.9,67.54142135623731L89.4,67.04142135623731L89.4,63.54142135623731L88.9,63.04142135623731L88.9,61.54142135623731L87.9,60.54142135623731L87.9,59.54142135623731L87.4,59.04142135623731L87.4,58.54142135623731L86.45857864376269,57.6L85.45857864376269,57.6L84.45857864376269,56.6L83.95857864376269,56.6L83.45857864376269,56.1L82.95857864376269,56.1L76.95857864376269,50.1L75.45857864376269,50.1L72.95857864376269,47.6L72.45857864376269,47.6L71.95857864376269,47.1L70.95857864376269,47.1L70.42928932188134,46.57071067811866L70.57071067811866,46.42928932188134L71.04142135623731,46.9L72.04142135623731,46.9L72.54142135623731,47.4L73.04142135623731,47.4L75.54142135623731,49.9L77.04142135623731,49.9L83.04142135623731,55.9L83.54142135623731,55.9L84.04142135623731,56.4L84.54142135623731,56.4L85.54142135623731,57.4L86.54142135623731,57.4z" stroke="none"/><path d="M75.9,54.95857864376269L75.9,53.54142135623731L69.4,47.04142135623731L69.4,45.95857864376269L69.95857864376269,45.4L75.95857864376269,45.4L76.42928932188134,44.92928932188134L76.57071067811866,45.07071067811866L76.04142135623731,45.6L70.04142135623731,45.6L69.6,46.04142135623731L69.6,46.95857864376269L76.1,53.45857864376269L76.1,54.9L78.54142135623731,54.9L79.04142135623731,55.4L79.5,55.4L79.5,55.6L78.95857864376269,55.6L78.45857864376269,55.1L76.1,55.1L76.1,66.54142135623731L75.6,67.04142135623731L75.6,69.04142135623731L75.1,69.54142135623731L75.1,70.04142135623731L71.1,74.04142135623731L71.1,74.54142135623731L70.57071067811866,75.07071067811866L70.42928932188134,74.92928932188134L70.9,74.45857864376269L70.9,73.95857864376269L74.9,69.95857864376269L74.9,69.45857864376269L75.4,68.95857864376269L75.4,66.95857864376269L75.9,66.45857864376269L75.9,55.24142135623731L73.54142135623731,57.6L72.54142135623731,57.6L71.54142135623731,58.6L70.54142135623731,58.6L69.54142135623731,59.6L68.04142135623731,59.6L67.04142135623731,60.6L64.54142135623731,60.6L64.04142135623731,61.1L63.54142135623731,61.1L62.54142135623731,62.1L61.04142135623731,62.1L60.54142135623731,62.6L59.45857864376269,62.6L58.9,62.04142135623731L58.9,54.04142135623731L58.4,53.54142135623731L58.4,52.54142135623731L56.9,51.04142135623731L56.9,49.54142135623731L55.9,48.54142135623731L55.9,48.04142135623731L53.9,46.04142135623731L53.9,45.54142135623731L53.4,45.04142135623731L53.4,44.54142135623731L52.9,44.04142135623731L52.9,41.45857864376269L53.45857864376269,40.9L68.04142135623731,40.9L69.04142135623731,41.9L69.54142135623731,41.9L70.54142135623731,42.9L71.04142135623731,42.9L71.54142135623731,43.4L73.54142135623731,43.4L74.04142135623731,43.9L76.54142135623731,43.9L77.54142135623731,44.9L78,44.9L78,45.1L77.45857864376269,45.1L76.45857864376269,44.1L73.95857864376269,44.1L73.45857864376269,43.6L71.45857864376269,43.6L70.95857864376269,43.1L70.45857864376269,43.1L69.45857864376269,42.1L68.95857864376269,42.1L67.95857864376269,41.1L53.54142135623731,41.1L53.1,41.54142135623731L53.1,43.95857864376269L53.6,44.45857864376269L53.6,44.95857864376269L54.1,45.45857864376269L54.1,45.95857864376269L56.1,47.95857864376269L56.1,48.45857864376269L57.1,49.45857864376269L57.1,50.95857864376269L58.6,52.45857864376269L58.6,53.45857864376269L59.1,53.95857864376269L59.1,61.95857864376269L59.54142135623731,62.4L60.45857864376269,62.4L60.95857864376269,61.9L62.45857864376269,61.9L63.45857864376269,60.9L63.95857864376269,60.9L64.45857864376269,60.4L66.95857864376269,60.4L67.95857864376269,59.4L69.45857864376269,59.4L70.45857864376269,58.4L71.45857864376269,58.4L72.45857864376269,57.4L73.45857864376269,57.4z" stroke="none"/><path d="M59.4,36.4L59.4,36.04142135623731L58.95857864376269,35.6L57.04142135623731,35.6L56.54142135623731,36.1L55.04142135623731,36.1L54.54142135623731,36.6L54.04142135623731,36.6L53.04142135623731,37.6L52.54142135623731,37.6L51.04142135623731,39.1L50.04142135623731,39.1L49.04142135623731,40.1L47.45857864376269,40.1L46.9,39.54142135623731L46.9,37.95857864376269L49.4,35.45857864376269L49.4,31.958578643762692L49.9,31.458578643762692L49.9,29.458578643762692L51.9,27.458578643762692L51.9,25.958578643762692L52.4,25.458578643762692L52.4,24L52.6,24L52.6,25.541421356237308L52.1,26.041421356237308L52.1,27.541421356237308L50.1,29.541421356237308L50.1,31.541421356237308L49.6,32.04142135623731L49.6,35.54142135623731L47.1,38.04142135623731L47.1,39.45857864376269L47.54142135623731,39.9L48.95857864376269,39.9L49.95857864376269,38.9L50.95857864376269,38.9L52.45857864376269,37.4L52.95857864376269,37.4L53.95857864376269,36.4L54.45857864376269,36.4L54.95857864376269,35.9L56.45857864376269,35.9L56.95857864376269,35.4L59.04142135623731,35.4L59.6,35.95857864376269L59.6,36.4L60.04142135623731,36.4L60.54142135623731,36.9L61.54142135623731,36.9L62.54142135623731,37.9L63.04142135623731,37.9L63.54142135623731,38.4L71.54142135623731,38.4L72.04142135623731,38.9L72.54142135623731,38.9L76.04142135623731,42.4L76.54142135623731,42.4L77.04142135623731,42.9L77.54142135623731,42.9L79.1,44.45857864376269L79.1,45.54142135623731L76.57071067811866,48.07071067811866L76.42928932188134,47.92928932188134L78.9,45.45857864376269L78.9,44.54142135623731L77.45857864376269,43.1L76.95857864376269,43.1L76.45857864376269,42.6L75.95857864376269,42.6L72.45857864376269,39.1L71.95857864376269,39.1L71.45857864376269,38.6L63.45857864376269,38.6L62.95857864376269,38.1L62.45857864376269,38.1L61.45857864376269,37.1L60.45857864376269,37.1L59.95857864376269,36.6L59.6,36.6L59.6,37.04142135623731L59.04142135623731,37.6L57.54142135623731,37.6L57.04142135623731,38.1L54.95857864376269,38.1L54.45857864376269,37.6L54,37.6L54,37.4L54.54142135623731,37.4L55.04142135623731,37.9L56.95857864376269,37.9L57.45857864376269,37.4L58.95857864376269,37.4L59.4,36.95857864376269L59.4,36.6L57.54142135623731,36.6L57.04142135623731,37.1L56.04142135623731,37.1L55.57071067811866,37.57071067811866L55.42928932188134,37.42928932188134L55.95857864376269,36.9L56.95857864376269,36.9L57.45857864376269,36.4z" stroke="none"/><path d="M80.9,82.4L80.9,81.54142135623731L80.4,81.04142135623731L80.4,80.54142135623731L79.4,79.54142135623731L79.4,76.5L79.6,76.5L79.6,79.45857864376269L80.6,80.45857864376269L80.6,80.95857864376269L81.1,81.45857864376269L81.1,82.4L81.45857864376269,82.4L81.9,81.95857864376269L81.9,81.54142135623731L81.4,81.04142135623731L81.4,80.04142135623731L80.9,79.54142135623731L80.9,78.54142135623731L80.4,78.04142135623731L80.4,76.54142135623731L79.95857864376269,76.1L75.54142135623731,76.1L75.04142135623731,76.6L74.54142135623731,76.6L74.04142135623731,77.1L73.54142135623731,77.1L70.1,80.54142135623731L70.1,81.45857864376269L72.04142135623731,83.4L76.04142135623731,83.4L77.54142135623731,84.9L79.54142135623731,84.9L80.04142135623731,85.4L80.54142135623731,85.4L81.04142135623731,85.9L81.54142135623731,85.9L82.54142135623731,86.9L83.54142135623731,86.9L85.04142135623731,88.4L86.04142135623731,88.4L87.04142135623731,89.4L90.04142135623731,89.4L90.54142135623731,89.9L91.54142135623731,89.9L92.04142135623731,90.4L93.04142135623731,90.4L93.54142135623731,90.9L94.04142135623731,90.9L96.54142135623731,93.4L98.04142135623731,93.4L98.6,93.95857864376269L98.6,96.04142135623731L97.6,97.04142135623731L97.6,97.5L97.4,97.5L97.4,96.95857864376269L98.4,95.95857864376269L98.4,94.04142135623731L97.95857864376269,93.6L96.45857864376269,93.6L93.95857864376269,91.1L93.45857864376269,91.1L92.95857864376269,90.6L91.95857864376269,90.6L91.45857864376269,90.1L90.45857864376269,90.1L89.95857864376269,89.6L86.95857864376269,89.6L85.95857864376269,88.6L84.95857864376269,88.6L83.45857864376269,87.1L82.45857864376269,87.1L81.45857864376269,86.1L80.95857864376269,86.1L80.45857864376269,85.6L79.95857864376269,85.6L79.45857864376269,85.1L77.45857864376269,85.1L75.95857864376269,83.6L71.95857864376269,83.6L69.9,81.54142135623731L69.9,80.45857864376269L73.45857864376269,76.9L73.95857864376269,76.9L74.45857864376269,76.4L74.95857864376269,76.4L75.45857864376269,75.9L80.04142135623731,75.9L80.6,76.45857864376269L80.6,77.95857864376269L81.1,78.45857864376269L81.1,79.45857864376269L81.6,79.95857864376269L81.6,80.95857864376269L82.1,81.45857864376269L82.1,82.04142135623731L81.54142135623731,82.6L81.1,82.6L81.1,83.04142135623731L80.54142135623731,83.6L78.95857864376269,83.6L78.45857864376269,83.1L73.95857864376269,83.1L73.45857864376269,82.6L72.95857864376269,82.6L71.45857864376269,81.1L70.5,81.1L70.5,80.9L71.54142135623731,80.9L73.04142135623731,82.4L73.54142135623731,82.4L74.04142135623731,82.9L78.54142135623731,82.9L79.04142135623731,83.4L80.45857864376269,83.4L80.9,82.95857864376269L80.9,82.6L80.45857864376269,82.6L77.9,80.04142135623731L77.9,78.04142135623731L76.42928932188134,76.57071067811866L76.57071067811866,76.42928932188134L78.1,77.95857864376269L78.1,79.95857864376269L80.54142135623731,82.4z" stroke="none"/><path d="M68.9,16.9L68.9,16.541421356237308L68.45857864376269,16.1L68.04142135623731,16.1L67.54142135623731,16.6L67.04142135623731,16.6L66.54142135623731,17.1L66.04142135623731,17.1L65.54142135623731,17.6L63.04142135623731,17.6L62.04142135623731,18.6L61.04142135623731,18.6L60.54142135623731,19.1L59.54142135623731,19.1L59.1,19.541421356237308L59.1,21.041421356237308L58.6,21.541421356237308L58.6,22.5L58.4,22.5L58.4,21.458578643762692L58.9,20.958578643762692L58.9,19.458578643762692L59.45857864376269,18.9L60.45857864376269,18.9L60.95857864376269,18.4L61.95857864376269,18.4L62.95857864376269,17.4L65.45857864376269,17.4L65.95857864376269,16.9L66.45857864376269,16.9L66.95857864376269,16.4L67.45857864376269,16.4L67.95857864376269,15.9L68.54142135623731,15.9L69.1,16.458578643762692L69.1,16.9L69.45857864376269,16.9L72.45857864376269,13.9L72.95857864376269,13.9L79.45857864376269,7.4L80.45857864376269,7.4L82.45857864376269,5.4L82.95857864376269,5.4L84.95857864376269,3.4L87.45857864376269,3.4L87.95857864376269,2.9L88.5,2.9L88.5,3.1L88.04142135623731,3.1L87.54142135623731,3.6L85.04142135623731,3.6L83.04142135623731,5.6L82.54142135623731,5.6L80.54142135623731,7.6L79.54142135623731,7.6L73.04142135623731,14.1L72.54142135623731,14.1L69.54142135623731,17.1L69.1,17.1L69.1,17.541421356237308L68.1,18.541421356237308L68.1,21.458578643762692L68.6,21.958578643762692L68.6,22.458578643762692L69.1,22.958578643762692L69.1,24L68.9,24L68.9,23.041421356237308L68.4,22.541421356237308L68.4,22.041421356237308L67.9,21.541421356237308L67.9,18.458578643762692L68.9,17.458578643762692L68.9,17.1L68.04142135623731,17.1L67.04142135623731,18.1L66.54142135623731,18.1L66.04142135623731,18.6L63.54142135623731,18.6L63.04142135623731,19.1L62.54142135623731,19.1L62.04142135623731,19.6L60,19.6L60,19.4L61.95857864376269,19.4L62.45857864376269,18.9L62.95857864376269,18.9L63.45857864376269,18.4L65.95857864376269,18.4L66.45857864376269,17.9L66.95857864376269,17.9L67.95857864376269,16.9z" stroke="none"/><path d="M78.54142135623731,94.9L82.04142135623731,98.4L82.54142135623731,98.4L83.54142135623731,99.4L84.04142135623731,99.4L84.54142135623731,99.9L85.04142135623731,99.9L85.57071067811866,100.42928932188134L85.42928932188134,100.57071067811866L84.95857864376269,100.1L84.45857864376269,100.1L83.95857864376269,99.6L83.45857864376269,99.6L82.45857864376269,98.6L81.95857864376269,98.6L78.6,95.24142135623731L78.6,96.54142135623731L74.04142135623731,101.1L72.95857864376269,101.1L65.45857864376269,93.6L64.95857864376269,93.6L63.4,92.04142135623731L63.4,90.95857864376269L63.95857864376269,90.4L64.45857864376269,90.4L65.45857864376269,89.4L65.95857864376269,89.4L66.95857864376269,88.4L67.5,88.4L67.5,88.6L67.04142135623731,88.6L66.04142135623731,89.6L65.54142135623731,89.6L64.54142135623731,90.6L64.04142135623731,90.6L63.6,91.04142135623731L63.6,91.95857864376269L65.04142135623731,93.4L65.54142135623731,93.4L73.04142135623731,100.9L73.95857864376269,100.9L78.4,96.45857864376269L78.4,95.24142135623731L74.1,99.54142135623731L74.1,100.04142135623731L73.57071067811866,100.57071067811866L73.42928932188134,100.42928932188134L73.9,99.95857864376269L73.9,99.45857864376269L78.25857864376269,95.1L75.95857864376269,95.1L75.45857864376269,94.6L74.95857864376269,94.6L73.9,93.54142135623731L73.9,92.45857864376269L74.45857864376269,91.9L87.45857864376269,91.9L87.95857864376269,91.4L88.5,91.4L88.5,91.6L88.04142135623731,91.6L87.54142135623731,92.1L74.54142135623731,92.1L74.1,92.54142135623731L74.1,93.45857864376269L75.04142135623731,94.4L75.54142135623731,94.4L76.04142135623731,94.9z" stroke="none"/><path d="M89.45857864376269,80.9L93.4,76.95857864376269L93.4,76.45857864376269L94.9,74.95857864376269L94.9,73.45857864376269L95.4,72.95857864376269L95.4,68.95857864376269L95.9,68.45857864376269L95.9,67.95857864376269L96.9,66.95857864376269L96.9,66.45857864376269L97.42928932188134,65.92928932188134L97.57071067811866,66.07071067811866L97.1,66.54142135623731L97.1,67.04142135623731L96.1,68.04142135623731L96.1,68.54142135623731L95.6,69.04142135623731L95.6,73.04142135623731L95.1,73.54142135623731L95.1,75.04142135623731L93.6,76.54142135623731L93.6,77.04142135623731L89.64142135623732,81L98.04142135623731,89.4L100.04142135623731,89.4L100.57071067811866,89.92928932188134L100.42928932188134,90.07071067811866L99.95857864376269,89.6L97.95857864376269,89.6L89.5,81.14142135623732L88.54142135623731,82.1L87.54142135623731,82.1L86.54142135623731,83.1L85.54142135623731,83.1L84.54142135623731,84.1L82.5,84.1L82.5,83.9L84.45857864376269,83.9L85.45857864376269,82.9L86.45857864376269,82.9L87.45857864376269,81.9L88.45857864376269,81.9L89.25857864376269,81.1L86.54142135623731,81.1L85.54142135623731,82.1L84.04142135623731,82.1L83.04142135623731,83.1L82.54142135623731,83.1L82.04142135623731,83.6L81.54142135623731,83.6L81.04142135623731,84.1L78,84.1L78,83.9L80.95857864376269,83.9L81.45857864376269,83.4L81.95857864376269,83.4L82.45857864376269,82.9L82.95857864376269,82.9L83.95857864376269,81.9L85.45857864376269,81.9L86.45857864376269,80.9z" stroke="none"/><path d="M20.458578643762692,33.4L22.958578643762692,30.9L23.458578643762692,30.9L23.958578643762692,30.4L24.458578643762692,30.4L26.458578643762692,28.4L27,28.4L27,28.6L26.541421356237308,28.6L24.541421356237308,30.6L24.041421356237308,30.6L23.541421356237308,31.1L23.041421356237308,31.1L20.74142135623731,33.4L21.458578643762692,33.4L21.958578643762692,32.9L22.458578643762692,32.9L24.458578643762692,30.9L24.958578643762692,30.9L26.958578643762692,28.9L27.458578643762692,28.9L30.958578643762692,25.4L31.5,25.4L31.5,25.6L31.041421356237308,25.6L27.541421356237308,29.1L27.041421356237308,29.1L25.041421356237308,31.1L24.541421356237308,31.1L22.541421356237308,33.1L22.041421356237308,33.1L21.541421356237308,33.6L20.541421356237308,33.6L15.070710678118655,39.07071067811866L14.929289321881345,38.92928932188134L20.25857864376269,33.6L19.541421356237308,33.6L13.04142135623731,40.1L11.54142135623731,40.1L10.54142135623731,41.1L10.04142135623731,41.1L9.070710678118655,42.07071067811866L8.929289321881345,41.92928932188134L9.95857864376269,40.9L10.45857864376269,40.9L11.45857864376269,39.9L12.95857864376269,39.9L19.458578643762692,33.4z" stroke="none"/><path d="M43.4,86.25857864376269L43.4,83.04142135623731L42.9,82.54142135623731L42.9,82.04142135623731L34.42928932188134,73.57071067811866L34.57071067811866,73.42928932188134L43.1,81.95857864376269L43.1,82.45857864376269L43.6,82.95857864376269L43.6,86.4L43.95857864376269,86.4L44.45857864376269,85.9L46.45857864376269,85.9L46.95857864376269,85.4L47.45857864376269,85.4L47.95857864376269,84.9L49.95857864376269,84.9L50.95857864376269,83.9L52.95857864376269,83.9L53.45857864376269,83.4L53.95857864376269,83.4L54.45857864376269,82.9L57.54142135623731,82.9L58.1,83.45857864376269L58.1,93.54142135623731L57.6,94.04142135623731L57.6,95.04142135623731L57.1,95.54142135623731L57.1,96L56.9,96L56.9,95.45857864376269L57.4,94.95857864376269L57.4,93.95857864376269L57.9,93.45857864376269L57.9,83.54142135623731L57.45857864376269,83.1L54.54142135623731,83.1L54.04142135623731,83.6L53.54142135623731,83.6L53.04142135623731,84.1L51.04142135623731,84.1L50.04142135623731,85.1L48.04142135623731,85.1L47.54142135623731,85.6L47.04142135623731,85.6L46.54142135623731,86.1L44.54142135623731,86.1L44.04142135623731,86.6L43.74142135623731,86.6L44.1,86.95857864376269L44.1,87.45857864376269L46.1,89.45857864376269L46.1,93.45857864376269L46.6,93.95857864376269L46.6,94.5L46.4,94.5L46.4,94.04142135623731L45.9,93.54142135623731L45.9,89.54142135623731L43.9,87.54142135623731L43.9,87.04142135623731L42.95857864376269,86.1L42.45857864376269,86.1L41.95857864376269,85.6L41.45857864376269,85.6L40.95857864376269,85.1L39.45857864376269,85.1L38.45857864376269,84.1L37.95857864376269,84.1L36.95857864376269,83.1L36.45857864376269,83.1L35.92928932188134,82.57071067811866L36.07071067811866,82.42928932188134L36.54142135623731,82.9L37.04142135623731,82.9L38.04142135623731,83.9L38.54142135623731,83.9L39.54142135623731,84.9L41.04142135623731,84.9L41.54142135623731,85.4L42.04142135623731,85.4L42.54142135623731,85.9L43.04142135623731,85.9z" stroke="none"/><path d="M52.4,29.458578643762692L52.4,27.958578643762692L53.4,26.958578643762692L53.4,23.541421356237308L52.95857864376269,23.1L44.45857864376269,23.1L42.45857864376269,21.1L41.95857864376269,21.1L39.45857864376269,18.6L38.54142135623731,18.6L37.57071067811866,19.570710678118655L37.42928932188134,19.429289321881345L38.45857864376269,18.4L39.54142135623731,18.4L42.04142135623731,20.9L42.54142135623731,20.9L44.54142135623731,22.9L53.04142135623731,22.9L53.6,23.458578643762692L53.6,27.041421356237308L52.6,28.041421356237308L52.6,29.25857864376269L55.9,25.958578643762692L55.9,24.958578643762692L57.45857864376269,23.4L58.95857864376269,23.4L59.92928932188134,22.429289321881345L60.07071067811866,22.570710678118655L59.04142135623731,23.6L57.54142135623731,23.6L56.1,25.041421356237308L56.1,26.041421356237308L52.64142135623731,29.5L54.54142135623731,31.4L55.04142135623731,31.4L57.54142135623731,33.9L58.04142135623731,33.9L59.04142135623731,34.9L60.54142135623731,34.9L61.54142135623731,35.9L63.04142135623731,35.9L64.57071067811866,37.42928932188134L64.42928932188134,37.57071067811866L62.95857864376269,36.1L61.45857864376269,36.1L60.45857864376269,35.1L58.95857864376269,35.1L57.95857864376269,34.1L57.45857864376269,34.1L54.95857864376269,31.6L54.45857864376269,31.6L52.5,29.64142135623731L51.6,30.541421356237308L51.6,32.04142135623731L50.6,33.04142135623731L50.6,35.04142135623731L50.1,35.54142135623731L50.1,36.04142135623731L48.1,38.04142135623731L48.1,39L47.9,39L47.9,37.95857864376269L49.9,35.95857864376269L49.9,35.45857864376269L50.4,34.95857864376269L50.4,32.95857864376269L51.4,31.958578643762692L51.4,30.458578643762692z" stroke="none"/><path d="M29.4,83.75857864376269L29.4,82.95857864376269L29.9,82.45857864376269L29.9,81.95857864376269L30.9,80.95857864376269L30.9,79.95857864376269L31.4,79.45857864376269L31.4,77.95857864376269L31.9,77.45857864376269L31.9,76.95857864376269L32.4,76.45857864376269L32.4,75.45857864376269L32.9,74.95857864376269L32.9,73.45857864376269L33.95857864376269,72.4L35.04142135623731,72.4L35.54142135623731,72.9L39.54142135623731,72.9L40.04142135623731,73.4L40.54142135623731,73.4L41.04142135623731,73.9L41.54142135623731,73.9L42.54142135623731,74.9L43.04142135623731,74.9L44.54142135623731,76.4L45,76.4L45,76.6L44.45857864376269,76.6L42.95857864376269,75.1L42.45857864376269,75.1L41.45857864376269,74.1L40.95857864376269,74.1L40.45857864376269,73.6L39.95857864376269,73.6L39.45857864376269,73.1L35.45857864376269,73.1L34.95857864376269,72.6L34.04142135623731,72.6L33.1,73.54142135623731L33.1,75.04142135623731L32.6,75.54142135623731L32.6,76.54142135623731L32.1,77.04142135623731L32.1,77.54142135623731L31.6,78.04142135623731L31.6,79.54142135623731L31.1,80.04142135623731L31.1,81.04142135623731L30.1,82.04142135623731L30.1,82.54142135623731L29.6,83.04142135623731L29.6,83.9L29.958578643762692,83.9L30.458578643762692,83.4L30.958578643762692,83.4L31.458578643762692,82.9L31.958578643762692,82.9L32.45857864376269,82.4L33.95857864376269,82.4L34.45857864376269,81.9L34.95857864376269,81.9L35.45857864376269,81.4L40.54142135623731,81.4L41.04142135623731,81.9L41.54142135623731,81.9L42.07071067811866,82.42928932188134L41.92928932188134,82.57071067811866L41.45857864376269,82.1L40.95857864376269,82.1L40.45857864376269,81.6L35.54142135623731,81.6L35.04142135623731,82.1L34.54142135623731,82.1L34.04142135623731,82.6L32.54142135623731,82.6L32.04142135623731,83.1L31.541421356237308,83.1L31.041421356237308,83.6L30.541421356237308,83.6L30.041421356237308,84.1L29.541421356237308,84.1L18.6,95.04142135623731L18.6,95.54142135623731L17.1,97.04142135623731L17.1,97.54142135623731L15.6,99.04142135623731L15.6,100.04142135623731L15.070710678118655,100.57071067811866L14.929289321881345,100.42928932188134L15.4,99.95857864376269L15.4,98.95857864376269L16.9,97.45857864376269L16.9,96.95857864376269L18.4,95.45857864376269L18.4,94.95857864376269L29.35857864376269,84L28.958578643762692,83.6L28.458578643762692,83.6L27.958578643762692,83.1L26.958578643762692,83.1L25.958578643762692,82.1L25.458578643762692,82.1L21.958578643762692,78.6L20.958578643762692,78.6L19.458578643762692,77.1L18.458578643762692,77.1L17.958578643762692,76.6L16.5,76.6L16.5,76.4L18.041421356237308,76.4L18.541421356237308,76.9L19.541421356237308,76.9L21.041421356237308,78.4L22.041421356237308,78.4L25.541421356237308,81.9L26.041421356237308,81.9L27.041421356237308,82.9L28.041421356237308,82.9L28.541421356237308,83.4L29.041421356237308,83.4z" stroke="none"/><path d="M25.6,67.5L25.4,67.5L25.4,64.5L25.6,64.5z" stroke="none"/><path d="M88.5,10.4L88.5,10.6L85.5,10.6L85.5,10.4z" stroke="none"/><path d="M91.42928932188134,86.92928932188134L91.57071067811866,87.07071067811866L91.04142135623731,87.6L90.04142135623731,87.6L89.04142135623731,88.6L88.5,88.6L88.5,88.4L88.95857864376269,88.4L89.95857864376269,87.4L90.95857864376269,87.4z" stroke="none"/><path d="M20.929289321881345,44.92928932188134L21.070710678118655,45.07071067811866L18.541421356237308,47.6L17.458578643762692,47.6L16.9,47.04142135623731L16.9,45.95857864376269L17.9,44.95857864376269L17.9,44.45857864376269L19.9,42.45857864376269L19.9,41.95857864376269L20.4,41.45857864376269L20.4,40.95857864376269L20.929289321881345,40.42928932188134L21.070710678118655,40.57071067811866L20.6,41.04142135623731L20.6,41.54142135623731L20.1,42.04142135623731L20.1,42.54142135623731L18.1,44.54142135623731L18.1,45.04142135623731L17.1,46.04142135623731L17.1,46.95857864376269L17.541421356237308,47.4L18.458578643762692,47.4z" stroke="none"/><path d="M36,28.6L36,28.4L37.45857864376269,28.4L38.95857864376269,26.9L40.5,26.9L40.5,27.1L39.04142135623731,27.1L37.54142135623731,28.6z" stroke="none"/><path d="M43.57071067811866,64.42928932188134L43.42928932188134,64.57071067811866L42.95857864376269,64.1L42.45857864376269,64.1L41.45857864376269,63.1L40.95857864376269,63.1L39.45857864376269,61.6L39,61.6L39,61.4L39.54142135623731,61.4L41.04142135623731,62.9L41.54142135623731,62.9L42.54142135623731,63.9L43.04142135623731,63.9z" stroke="none"/><path d="M72,4.4L72,4.6L66,4.6L66,4.4z" stroke="none"/><path d="M5.9,73.5L6.1,73.5L6.1,79.5L5.9,79.5z" stroke="none"/><path d="M10.5,88.4L10.5,88.6L4.5,88.6L4.5,88.4z" stroke="none"/><path d="M91.4,34.5L91.6,34.5L91.6,35.54142135623731L91.1,36.04142135623731L91.1,36.54142135623731L90.1,37.54142135623731L90.1,40.5L89.9,40.5L89.9,37.45857864376269L90.9,36.45857864376269L90.9,35.95857864376269L91.4,35.45857864376269z" stroke="none"/><path d="M88.5,7.6L88.5,7.4L89.95857864376269,7.4L91.45857864376269,5.9L94.5,5.9L94.5,6.1L91.54142135623731,6.1L90.04142135623731,7.6z" stroke="none"/><path d="M98.9,46.5L99.1,46.5L99.1,47.54142135623731L98.6,48.04142135623731L98.6,48.54142135623731L97.6,49.54142135623731L97.6,52.5L97.4,52.5L97.4,49.45857864376269L98.4,48.45857864376269L98.4,47.95857864376269L98.9,47.45857864376269z" stroke="none"/><path d="M33,8.9L33,9.1L32.45857864376269,9.1L31.458578643762692,8.1L30.958578643762692,8.1L30.458578643762692,7.6L28.458578643762692,7.6L26.929289321881345,6.070710678118655L27.070710678118655,5.929289321881345L28.541421356237308,7.4L30.541421356237308,7.4L31.041421356237308,7.9L31.541421356237308,7.9L32.54142135623731,8.9z" stroke="none"/><path d="M5.929289321881345,16.570710678118655L6.070710678118655,16.429289321881345L7.6,17.958578643762692L7.6,18.958578643762692L8.1,19.458578643762692L8.1,19.958578643762692L8.6,20.458578643762692L8.6,21.458578643762692L9.1,21.958578643762692L9.1,22.5L8.9,22.5L8.9,22.041421356237308L8.4,21.541421356237308L8.4,20.541421356237308L7.9,20.041421356237308L7.9,19.541421356237308L7.4,19.041421356237308L7.4,18.041421356237308z" stroke="none"/><path d="M80.92928932188134,14.929289321881345L81.07071067811866,15.070710678118655L79.6,16.541421356237308L79.6,17.541421356237308L79.1,18.041421356237308L79.1,18.541421356237308L78.6,19.041421356237308L78.6,20.541421356237308L78.07071067811866,21.070710678118655L77.92928932188134,20.929289321881345L78.4,20.458578643762692L78.4,18.958578643762692L78.9,18.458578643762692L78.9,17.958578643762692L79.4,17.458578643762692L79.4,16.458578643762692z" stroke="none"/><path d="M12.070710678118655,19.429289321881345L11.929289321881345,19.570710678118655L8.9,16.541421356237308L8.9,16.041421356237308L8.4,15.54142135623731L8.4,15.04142135623731L7.9,14.54142135623731L7.9,13.54142135623731L7.4,13.04142135623731L7.4,12L7.6,12L7.6,12.95857864376269L8.1,13.45857864376269L8.1,14.45857864376269L8.6,14.95857864376269L8.6,15.45857864376269L9.1,15.95857864376269L9.1,16.458578643762692z" stroke="none"/><path d="M59.9,94.5L60.1,94.5L60.1,95.04142135623731L59.6,95.54142135623731L59.6,96.54142135623731L58.1,98.04142135623731L58.1,98.54142135623731L55.6,101.04142135623731L55.6,102L55.4,102L55.4,100.95857864376269L57.9,98.45857864376269L57.9,97.95857864376269L59.4,96.45857864376269L59.4,95.45857864376269L59.9,94.95857864376269z" stroke="none"/><path d="M87.1,46.5L86.9,46.5L86.9,43.54142135623731L85.9,42.54142135623731L85.9,42.04142135623731L85.4,41.54142135623731L85.4,37.5L85.6,37.5L85.6,41.45857864376269L86.1,41.95857864376269L86.1,42.45857864376269L87.1,43.45857864376269z" stroke="none"/><path d="M41.92928932188134,29.929289321881345L42.07071067811866,30.070710678118655L41.1,31.041421356237308L41.1,31.541421356237308L40.6,32.04142135623731L40.6,32.54142135623731L39.6,33.54142135623731L39.6,34.04142135623731L39.1,34.54142135623731L39.1,35.04142135623731L38.6,35.54142135623731L38.6,36.04142135623731L37.6,37.04142135623731L37.6,39L37.4,39L37.4,36.95857864376269L38.4,35.95857864376269L38.4,35.45857864376269L38.9,34.95857864376269L38.9,34.45857864376269L39.4,33.95857864376269L39.4,33.45857864376269L40.4,32.45857864376269L40.4,31.958578643762692L40.9,31.458578643762692L40.9,30.958578643762692z" stroke="none"/><path d="M4.570710678118655,15.070710678118655L4.429289321881345,14.929289321881345L6.4,12.95857864376269L6.4,11.45857864376269L6.95857864376269,10.9L12.45857864376269,10.9L12.95857864376269,10.4L13.5,10.4L13.5,10.6L13.04142135623731,10.6L12.54142135623731,11.1L7.04142135623731,11.1L6.6,11.54142135623731L6.6,13.04142135623731z" stroke="none"/><path d="M84,6.1L84,5.9L84.45857864376269,5.9L84.95857864376269,5.4L85.45857864376269,5.4L85.95857864376269,4.9L86.45857864376269,4.9L87.45857864376269,3.9L88.95857864376269,3.9L89.4,3.4585786437626904L89.4,2.5414213562373096L88.95857864376269,2.1L86.04142135623731,2.1L85.54142135623731,2.6L85.04142135623731,2.6L83.04142135623731,4.6L82.54142135623731,4.6L80.04142135623731,7.1L79.04142135623731,7.1L76.04142135623731,10.1L75.54142135623731,10.1L75.07071067811866,10.570710678118655L74.92928932188134,10.429289321881345L75.45857864376269,9.9L75.95857864376269,9.9L78.95857864376269,6.9L79.95857864376269,6.9L82.45857864376269,4.4L82.95857864376269,4.4L84.95857864376269,2.4L85.45857864376269,2.4L85.95857864376269,1.9L89.04142135623731,1.9L89.6,2.4585786437626904L89.6,3.5414213562373096L89.04142135623731,4.1L87.54142135623731,4.1L86.54142135623731,5.1L86.04142135623731,5.1L85.54142135623731,5.6L85.04142135623731,5.6L84.54142135623731,6.1z" stroke="none"/><path d="M94.42928932188134,84.07071067811866L94.57071067811866,83.92928932188134L99.04142135623731,88.4L99.54142135623731,88.4L100.04142135623731,88.9L101.04142135623731,88.9L101.6,89.45857864376269L101.6,90.45857864376269L102.1,90.95857864376269L102.1,91.5L101.9,91.5L101.9,91.04142135623731L101.4,90.54142135623731L101.4,89.54142135623731L100.95857864376269,89.1L99.95857864376269,89.1L99.45857864376269,88.6L98.95857864376269,88.6z" stroke="none"/><path d="M13.6,19.5L13.4,19.5L13.4,12.45857864376269L14.4,11.45857864376269L14.4,10.04142135623731L13.95857864376269,9.6L12.45857864376269,9.6L11.929289321881345,9.070710678118655L12.070710678118655,8.929289321881345L12.54142135623731,9.4L14.04142135623731,9.4L14.6,9.95857864376269L14.6,11.54142135623731L13.6,12.54142135623731z" stroke="none"/><path d="M67.5,7.4L67.5,7.6L67.04142135623731,7.6L66.54142135623731,8.1L65.54142135623731,8.1L65.04142135623731,8.6L62.54142135623731,8.6L62.04142135623731,9.1L61.54142135623731,9.1L61.04142135623731,9.6L60.54142135623731,9.6L60.04142135623731,10.1L59.04142135623731,10.1L58.54142135623731,10.6L57,10.6L57,10.4L58.45857864376269,10.4L58.95857864376269,9.9L59.95857864376269,9.9L60.45857864376269,9.4L60.95857864376269,9.4L61.45857864376269,8.9L61.95857864376269,8.9L62.45857864376269,8.4L64.95857864376269,8.4L65.45857864376269,7.9L66.45857864376269,7.9L66.95857864376269,7.4z" stroke="none"/><path d="M61.57071067811866,52.42928932188134L61.42928932188134,52.57071067811866L55.4,46.54142135623731L55.4,46.04142135623731L54.9,45.54142135623731L54.9,45.04142135623731L53.9,44.04142135623731L53.9,43.5L54.1,43.5L54.1,43.95857864376269L55.1,44.95857864376269L55.1,45.45857864376269L55.6,45.95857864376269L55.6,46.45857864376269z" stroke="none"/><path d="M84.07071067811866,26.929289321881345L83.92928932188134,27.070710678118655L81.45857864376269,24.6L80.95857864376269,24.6L79.95857864376269,23.6L79.45857864376269,23.6L78.45857864376269,22.6L77.95857864376269,22.6L76.9,21.541421356237308L76.9,18.541421356237308L76.42928932188134,18.070710678118655L76.57071067811866,17.929289321881345L77.1,18.458578643762692L77.1,21.458578643762692L78.04142135623731,22.4L78.54142135623731,22.4L79.54142135623731,23.4L80.04142135623731,23.4L81.04142135623731,24.4L81.54142135623731,24.4z" stroke="none"/><path d="M12.1,97.5L11.9,97.5L11.9,96.45857864376269L12.4,95.95857864376269L12.4,93.95857864376269L12.9,93.45857864376269L12.9,92.45857864376269L13.4,91.95857864376269L13.4,85.5L13.6,85.5L13.6,92.04142135623731L13.1,92.54142135623731L13.1,93.54142135623731L12.6,94.04142135623731L12.6,96.04142135623731L12.1,96.54142135623731z" stroke="none"/><path d="M79.42928932188134,29.929289321881345L79.57071067811866,30.070710678118655L74.54142135623731,35.1L72.04142135623731,35.1L71.54142135623731,35.6L71.04142135623731,35.6L70.54142135623731,36.1L69,36.1L69,35.9L70.45857864376269,35.9L70.95857864376269,35.4L71.45857864376269,35.4L71.95857864376269,34.9L74.45857864376269,34.9z" stroke="none"/><path d="M22.429289321881345,22.429289321881345L22.570710678118655,22.570710678118655L22.041421356237308,23.1L21.041421356237308,23.1L20.541421356237308,23.6L20.041421356237308,23.6L17.541421356237308,26.1L17.041421356237308,26.1L16.541421356237308,26.6L13.04142135623731,26.6L12.54142135623731,27.1L10.5,27.1L10.5,26.9L12.45857864376269,26.9L12.95857864376269,26.4L16.458578643762692,26.4L16.958578643762692,25.9L17.458578643762692,25.9L19.958578643762692,23.4L20.458578643762692,23.4L20.958578643762692,22.9L21.958578643762692,22.9z" stroke="none"/><path d="M12.1,63L11.9,63L11.9,62.45857864376269L12.4,61.95857864376269L12.4,61.45857864376269L13.4,60.45857864376269L13.4,57.95857864376269L13.9,57.45857864376269L13.9,56.45857864376269L14.4,55.95857864376269L14.4,55.45857864376269L16.9,52.95857864376269L16.9,52.45857864376269L17.4,51.95857864376269L17.4,51.45857864376269L17.929289321881345,50.92928932188134L18.070710678118655,51.07071067811866L17.6,51.54142135623731L17.6,52.04142135623731L17.1,52.54142135623731L17.1,53.04142135623731L14.6,55.54142135623731L14.6,56.04142135623731L14.1,56.54142135623731L14.1,57.54142135623731L13.6,58.04142135623731L13.6,60.54142135623731L12.6,61.54142135623731L12.6,62.04142135623731L12.1,62.54142135623731z" stroke="none"/><path d="M100.5,38.9L100.5,39.1L99.54142135623731,39.1L99.04142135623731,39.6L98.54142135623731,39.6L97.04142135623731,41.1L96.54142135623731,41.1L94.54142135623731,43.1L94.04142135623731,43.1L93.04142135623731,44.1L92.04142135623731,44.1L91.54142135623731,44.6L90.54142135623731,44.6L90.04142135623731,45.1L88.5,45.1L88.5,44.9L89.95857864376269,44.9L90.45857864376269,44.4L91.45857864376269,44.4L91.95857864376269,43.9L92.95857864376269,43.9L93.95857864376269,42.9L94.45857864376269,42.9L96.45857864376269,40.9L96.95857864376269,40.9L98.45857864376269,39.4L98.95857864376269,39.4L99.45857864376269,38.9z" stroke="none"/><path d="M28.5,40.6L28.5,40.4L36.95857864376269,40.4L37.45857864376269,39.9L37.95857864376269,39.9L41.92928932188134,35.92928932188134L42.07071067811866,36.07071067811866L38.04142135623731,40.1L37.54142135623731,40.1L37.04142135623731,40.6z" stroke="none"/><path d="M79.42928932188134,71.92928932188134L79.57071067811866,72.07071067811866L77.04142135623731,74.6L75.04142135623731,74.6L74.54142135623731,75.1L74.04142135623731,75.1L73.04142135623731,76.1L69.95857864376269,76.1L69.4,75.54142135623731L69.4,70.95857864376269L69.9,70.45857864376269L69.9,68.95857864376269L70.4,68.45857864376269L70.4,66.95857864376269L71.4,65.95857864376269L71.4,65.45857864376269L71.9,64.95857864376269L71.9,64.45857864376269L72.4,63.95857864376269L72.4,63.45857864376269L72.9,62.95857864376269L72.9,61.95857864376269L74.4,60.45857864376269L74.4,58.95857864376269L74.92928932188134,58.42928932188134L75.07071067811866,58.57071067811866L74.6,59.04142135623731L74.6,60.54142135623731L73.1,62.04142135623731L73.1,63.04142135623731L72.6,63.54142135623731L72.6,64.04142135623731L72.1,64.54142135623731L72.1,65.04142135623731L71.6,65.54142135623731L71.6,66.04142135623731L70.6,67.04142135623731L70.6,68.54142135623731L70.1,69.04142135623731L70.1,70.54142135623731L69.6,71.04142135623731L69.6,75.45857864376269L70.04142135623731,75.9L72.95857864376269,75.9L73.95857864376269,74.9L74.45857864376269,74.9L74.95857864376269,74.4L76.95857864376269,74.4z" stroke="none"/><path d="M101.9,63L102.1,63L102.1,66.04142135623731L100.6,67.54142135623731L100.6,70.04142135623731L99.6,71.04142135623731L99.6,71.54142135623731L97.6,73.54142135623731L97.6,74.54142135623731L96.1,76.04142135623731L96.1,76.5L95.9,76.5L95.9,75.95857864376269L97.4,74.45857864376269L97.4,73.45857864376269L99.4,71.45857864376269L99.4,70.95857864376269L100.4,69.95857864376269L100.4,67.45857864376269L101.9,65.95857864376269z" stroke="none"/><path d="M81.07071067811866,29.929289321881345L80.92928932188134,30.070710678118655L72.45857864376269,21.6L71.95857864376269,21.6L71.45857864376269,21.1L70.95857864376269,21.1L69.95857864376269,20.1L69.45857864376269,20.1L68.92928932188134,19.570710678118655L69.07071067811866,19.429289321881345L69.54142135623731,19.9L70.04142135623731,19.9L71.04142135623731,20.9L71.54142135623731,20.9L72.04142135623731,21.4L72.54142135623731,21.4z" stroke="none"/><path d="M97.42928932188134,35.92928932188134L97.57071067811866,36.07071067811866L90.54142135623731,43.1L90.04142135623731,43.1L89.54142135623731,43.6L88.54142135623731,43.6L87.6,44.54142135623731L87.6,45.45857864376269L88.1,45.95857864376269L88.1,47.04142135623731L87.54142135623731,47.6L86.45857864376269,47.6L85.42928932188134,46.57071067811866L85.57071067811866,46.42928932188134L86.54142135623731,47.4L87.45857864376269,47.4L87.9,46.95857864376269L87.9,46.04142135623731L87.4,45.54142135623731L87.4,44.45857864376269L88.45857864376269,43.4L89.45857864376269,43.4L89.95857864376269,42.9L90.45857864376269,42.9z" stroke="none"/><path d="M80.9,64.5L81.1,64.5L81.1,68.54142135623731L80.6,69.04142135623731L80.6,72.54142135623731L78.54142135623731,74.6L78.04142135623731,74.6L77.54142135623731,75.1L75.54142135623731,75.1L74.54142135623731,76.1L74.04142135623731,76.1L73.54142135623731,76.6L69.45857864376269,76.6L66.9,74.04142135623731L66.9,71.04142135623731L64.9,69.04142135623731L64.9,68.54142135623731L64.4,68.04142135623731L64.4,67.5L64.6,67.5L64.6,67.95857864376269L65.1,68.45857864376269L65.1,68.95857864376269L67.1,70.95857864376269L67.1,73.95857864376269L69.54142135623731,76.4L73.45857864376269,76.4L73.95857864376269,75.9L74.45857864376269,75.9L75.45857864376269,74.9L77.45857864376269,74.9L77.95857864376269,74.4L78.45857864376269,74.4L80.4,72.45857864376269L80.4,68.95857864376269L80.9,68.45857864376269z" stroke="none"/><path d="M6.070710678118655,64.57071067811866L5.929289321881345,64.42928932188134L8.4,61.95857864376269L8.4,61.45857864376269L8.9,60.95857864376269L8.9,60.45857864376269L9.4,59.95857864376269L9.4,58.45857864376269L9.9,57.95857864376269L9.9,56.95857864376269L10.4,56.45857864376269L10.4,55.95857864376269L10.9,55.45857864376269L10.9,54.45857864376269L11.4,53.95857864376269L11.4,51.95857864376269L12.9,50.45857864376269L12.9,49.95857864376269L13.429289321881345,49.42928932188134L13.570710678118655,49.57071067811866L13.1,50.04142135623731L13.1,50.54142135623731L11.6,52.04142135623731L11.6,54.04142135623731L11.1,54.54142135623731L11.1,55.54142135623731L10.6,56.04142135623731L10.6,56.54142135623731L10.1,57.04142135623731L10.1,58.04142135623731L9.6,58.54142135623731L9.6,60.04142135623731L9.1,60.54142135623731L9.1,61.04142135623731L8.6,61.54142135623731L8.6,62.04142135623731z" stroke="none"/><path d="M10.5,30.1L10.5,29.9L11.45857864376269,29.9L12.45857864376269,28.9L15.95857864376269,28.9L16.958578643762692,27.9L17.458578643762692,27.9L18.458578643762692,26.9L19.458578643762692,26.9L20.458578643762692,25.9L20.958578643762692,25.9L21.458578643762692,25.4L22.458578643762692,25.4L25.429289321881345,22.429289321881345L25.570710678118655,22.570710678118655L22.541421356237308,25.6L21.541421356237308,25.6L21.041421356237308,26.1L20.541421356237308,26.1L19.541421356237308,27.1L18.541421356237308,27.1L17.541421356237308,28.1L17.041421356237308,28.1L16.041421356237308,29.1L12.54142135623731,29.1L11.54142135623731,30.1z" stroke="none"/><path d="M42,49.4L42,49.6L40.95857864376269,49.6L39.95857864376269,48.6L39.45857864376269,48.6L38.95857864376269,48.1L37.95857864376269,48.1L37.45857864376269,47.6L36.95857864376269,47.6L35.95857864376269,46.6L35.45857864376269,46.6L34.95857864376269,46.1L34.45857864376269,46.1L32.45857864376269,44.1L31.958578643762692,44.1L30.958578643762692,43.1L30.458578643762692,43.1L28.958578643762692,41.6L27.958578643762692,41.6L26.929289321881345,40.57071067811866L27.070710678118655,40.42928932188134L28.041421356237308,41.4L29.041421356237308,41.4L30.541421356237308,42.9L31.041421356237308,42.9L32.04142135623731,43.9L32.54142135623731,43.9L34.54142135623731,45.9L35.04142135623731,45.9L35.54142135623731,46.4L36.04142135623731,46.4L37.04142135623731,47.4L37.54142135623731,47.4L38.04142135623731,47.9L39.04142135623731,47.9L39.54142135623731,48.4L40.04142135623731,48.4L41.04142135623731,49.4z" stroke="none"/><path d="M100.42928932188134,50.92928932188134L100.57071067811866,51.07071067811866L98.04142135623731,53.6L90.04142135623731,53.6L89.54142135623731,54.1L82.5,54.1L82.5,53.9L89.45857864376269,53.9L89.95857864376269,53.4L97.95857864376269,53.4z" stroke="none"/><path d="M73.57071067811866,85.42928932188134L73.42928932188134,85.57071067811866L72.45857864376269,84.6L71.95857864376269,84.6L68.4,81.04142135623731L68.4,80.54142135623731L67.9,80.04142135623731L67.9,79.54142135623731L67.4,79.04142135623731L67.4,78.54142135623731L66.9,78.04142135623731L66.9,77.54142135623731L66.4,77.04142135623731L66.4,73.04142135623731L64.4,71.04142135623731L64.4,70.04142135623731L63.9,69.54142135623731L63.9,69.04142135623731L63.4,68.54142135623731L63.4,66.95857864376269L63.95857864376269,66.4L65.04142135623731,66.4L65.54142135623731,66.9L66.54142135623731,66.9L67.04142135623731,67.4L67.5,67.4L67.5,67.6L66.95857864376269,67.6L66.45857864376269,67.1L65.45857864376269,67.1L64.95857864376269,66.6L64.04142135623731,66.6L63.6,67.04142135623731L63.6,68.45857864376269L64.1,68.95857864376269L64.1,69.45857864376269L64.6,69.95857864376269L64.6,70.95857864376269L66.6,72.95857864376269L66.6,76.95857864376269L67.1,77.45857864376269L67.1,77.95857864376269L67.6,78.45857864376269L67.6,78.95857864376269L68.1,79.45857864376269L68.1,79.95857864376269L68.6,80.45857864376269L68.6,80.95857864376269L72.04142135623731,84.4L72.54142135623731,84.4z" stroke="none"/><path d="M22.4,67.5L22.6,67.5L22.6,69.54142135623731L22.1,70.04142135623731L22.1,71.04142135623731L21.1,72.04142135623731L21.1,73.04142135623731L20.6,73.54142135623731L20.6,74.04142135623731L20.041421356237308,74.6L19.041421356237308,74.6L18.541421356237308,75.1L18.041421356237308,75.1L17.541421356237308,75.6L16.041421356237308,75.6L14.04142135623731,77.6L13.54142135623731,77.6L11.04142135623731,80.1L10.54142135623731,80.1L9.54142135623731,81.1L9,81.1L9,80.9L9.45857864376269,80.9L10.45857864376269,79.9L10.95857864376269,79.9L13.45857864376269,77.4L13.95857864376269,77.4L15.95857864376269,75.4L17.458578643762692,75.4L17.958578643762692,74.9L18.458578643762692,74.9L18.958578643762692,74.4L19.958578643762692,74.4L20.4,73.95857864376269L20.4,73.45857864376269L20.9,72.95857864376269L20.9,71.95857864376269L21.9,70.95857864376269L21.9,69.95857864376269L22.4,69.45857864376269z" stroke="none"/><path d="M71.92928932188134,19.570710678118655L72.07071067811866,19.429289321881345L85.57071067811866,32.92928932188134L85.42928932188134,33.07071067811866z" stroke="none"/><path d="M72,32.9L72,33.1L71.54142135623731,33.1L69.54142135623731,35.1L68.54142135623731,35.1L68.1,35.54142135623731L68.1,36.45857864376269L68.54142135623731,36.9L77.95857864376269,36.9L78.45857864376269,36.4L78.95857864376269,36.4L79.45857864376269,35.9L81.45857864376269,35.9L81.95857864376269,35.4L82.95857864376269,35.4L83.45857864376269,34.9L83.95857864376269,34.9L84.45857864376269,34.4L84.95857864376269,34.4L85.45857864376269,33.9L85.95857864376269,33.9L86.4,33.45857864376269L86.4,24.541421356237308L84.9,23.041421356237308L84.9,21.541421356237308L84.4,21.041421356237308L84.4,20.541421356237308L83.9,20.041421356237308L83.9,19.541421356237308L83.4,19.041421356237308L83.4,18.041421356237308L82.9,17.541421356237308L82.9,15.54142135623731L82.4,15.04142135623731L82.4,12.04142135623731L79.9,9.54142135623731L79.9,8.45857864376269L80.45857864376269,7.9L83.95857864376269,7.9L85.95857864376269,5.9L86.95857864376269,5.9L87.45857864376269,5.4L88.45857864376269,5.4L89.9,3.9585786437626904L89.9,2.0414213562373096L89.45857864376269,1.6L85.54142135623731,1.6L85.04142135623731,2.1L84.54142135623731,2.1L83.04142135623731,3.6L82.54142135623731,3.6L79.54142135623731,6.6L78.54142135623731,6.6L75.54142135623731,9.6L74.54142135623731,9.6L69.54142135623731,14.6L69.04142135623731,14.6L68.54142135623731,15.1L67.04142135623731,15.1L66.54142135623731,15.6L65.54142135623731,15.6L64.54142135623731,16.6L63.54142135623731,16.6L63.04142135623731,17.1L62.54142135623731,17.1L62.04142135623731,17.6L61.04142135623731,17.6L60.54142135623731,18.1L60,18.1L60,17.9L60.45857864376269,17.9L60.95857864376269,17.4L61.95857864376269,17.4L62.45857864376269,16.9L62.95857864376269,16.9L63.45857864376269,16.4L64.45857864376269,16.4L65.45857864376269,15.4L66.45857864376269,15.4L66.95857864376269,14.9L68.45857864376269,14.9L68.95857864376269,14.4L69.45857864376269,14.4L74.45857864376269,9.4L75.45857864376269,9.4L78.45857864376269,6.4L79.45857864376269,6.4L82.45857864376269,3.4L82.95857864376269,3.4L84.45857864376269,1.9L84.95857864376269,1.9L85.45857864376269,1.4L89.54142135623731,1.4L90.1,1.9585786437626904L90.1,4.04142135623731L88.54142135623731,5.6L87.54142135623731,5.6L87.04142135623731,6.1L86.04142135623731,6.1L84.04142135623731,8.1L80.54142135623731,8.1L80.1,8.54142135623731L80.1,9.45857864376269L82.6,11.95857864376269L82.6,14.95857864376269L83.1,15.45857864376269L83.1,17.458578643762692L83.6,17.958578643762692L83.6,18.958578643762692L84.1,19.458578643762692L84.1,19.958578643762692L84.6,20.458578643762692L84.6,20.958578643762692L85.1,21.458578643762692L85.1,22.958578643762692L86.6,24.458578643762692L86.6,33.54142135623731L86.04142135623731,34.1L85.54142135623731,34.1L85.04142135623731,34.6L84.54142135623731,34.6L84.04142135623731,35.1L83.54142135623731,35.1L83.04142135623731,35.6L82.04142135623731,35.6L81.54142135623731,36.1L79.54142135623731,36.1L79.04142135623731,36.6L78.54142135623731,36.6L78.04142135623731,37.1L68.45857864376269,37.1L67.9,36.54142135623731L67.9,35.45857864376269L68.45857864376269,34.9L69.45857864376269,34.9L71.45857864376269,32.9z" stroke="none"/><path d="M19.5,29.9L19.5,30.1L14.04142135623731,30.1L13.04142135623731,31.1L9.95857864376269,31.1L9.4,30.541421356237308L9.4,26.458578643762692L10.45857864376269,25.4L10.95857864376269,25.4L11.45857864376269,24.9L14.45857864376269,24.9L15.45857864376269,23.9L17.458578643762692,23.9L17.958578643762692,23.4L18.458578643762692,23.4L19.958578643762692,21.9L21.458578643762692,21.9L21.958578643762692,21.4L22.958578643762692,21.4L23.458578643762692,20.9L23.958578643762692,20.9L24.958578643762692,19.9L25.458578643762692,19.9L25.958578643762692,19.4L26.458578643762692,19.4L27.458578643762692,18.4L33.45857864376269,18.4L33.95857864376269,17.9L34.5,17.9L34.5,18.1L34.04142135623731,18.1L33.54142135623731,18.6L27.541421356237308,18.6L26.541421356237308,19.6L26.041421356237308,19.6L25.541421356237308,20.1L25.041421356237308,20.1L24.041421356237308,21.1L23.541421356237308,21.1L23.041421356237308,21.6L22.041421356237308,21.6L21.541421356237308,22.1L20.041421356237308,22.1L18.541421356237308,23.6L18.041421356237308,23.6L17.541421356237308,24.1L15.54142135623731,24.1L14.54142135623731,25.1L11.54142135623731,25.1L11.04142135623731,25.6L10.54142135623731,25.6L9.6,26.541421356237308L9.6,30.458578643762692L10.04142135623731,30.9L12.95857864376269,30.9L13.95857864376269,29.9z" stroke="none"/><path d="M39,100.6L39,100.4L42.54142135623731,100.4L43.04142135623731,100.9L44.04142135623731,100.9L45.04142135623731,101.9L48.54142135623731,101.9L49.04142135623731,102.4L50.54142135623731,102.4L51.04142135623731,102.9L52.95857864376269,102.9L53.9,101.95857864376269L53.9,101.45857864376269L54.9,100.45857864376269L54.9,99.95857864376269L57.4,97.45857864376269L57.4,96.95857864376269L57.9,96.45857864376269L57.9,94.45857864376269L58.4,93.95857864376269L58.4,83.04142135623731L57.95857864376269,82.6L47.95857864376269,82.6L47.45857864376269,82.1L44.45857864376269,82.1L43.42928932188134,81.07071067811866L43.57071067811866,80.92928932188134L44.54142135623731,81.9L47.54142135623731,81.9L48.04142135623731,82.4L58.04142135623731,82.4L58.6,82.95857864376269L58.6,94.04142135623731L58.1,94.54142135623731L58.1,96.54142135623731L57.6,97.04142135623731L57.6,97.54142135623731L55.1,100.04142135623731L55.1,100.54142135623731L54.1,101.54142135623731L54.1,102.04142135623731L53.04142135623731,103.1L50.95857864376269,103.1L50.45857864376269,102.6L48.95857864376269,102.6L48.45857864376269,102.1L44.95857864376269,102.1L43.95857864376269,101.1L42.95857864376269,101.1L42.45857864376269,100.6z" stroke="none"/><path d="M54,80.9L54,81.1L52.45857864376269,81.1L50.95857864376269,79.6L50.45857864376269,79.6L47.95857864376269,77.1L47.45857864376269,77.1L46.95857864376269,76.6L46.45857864376269,76.6L45.45857864376269,75.6L44.95857864376269,75.6L44.45857864376269,75.1L43.95857864376269,75.1L42.95857864376269,74.1L42.45857864376269,74.1L41.95857864376269,73.6L41.45857864376269,73.6L40.95857864376269,73.1L40.45857864376269,73.1L39.95857864376269,72.6L36.95857864376269,72.6L36.45857864376269,72.1L36,72.1L36,71.9L36.54142135623731,71.9L37.04142135623731,72.4L40.04142135623731,72.4L40.54142135623731,72.9L41.04142135623731,72.9L41.54142135623731,73.4L42.04142135623731,73.4L42.54142135623731,73.9L43.04142135623731,73.9L44.04142135623731,74.9L44.54142135623731,74.9L45.04142135623731,75.4L45.54142135623731,75.4L46.54142135623731,76.4L47.04142135623731,76.4L47.54142135623731,76.9L48.04142135623731,76.9L50.54142135623731,79.4L51.04142135623731,79.4L52.54142135623731,80.9z" stroke="none"/><path d="M58.42928932188134,72.07071067811866L58.57071067811866,71.92928932188134L73.04142135623731,86.4L78.54142135623731,86.4L80.54142135623731,88.4L81.04142135623731,88.4L82.1,89.45857864376269L82.1,90.54142135623731L81.54142135623731,91.1L80.54142135623731,91.1L80.04142135623731,91.6L72.54142135623731,91.6L72.04142135623731,92.1L71.54142135623731,92.1L71.04142135623731,92.6L67.95857864376269,92.6L67.45857864376269,92.1L66.45857864376269,92.1L65.92928932188134,91.57071067811866L66.07071067811866,91.42928932188134L66.54142135623731,91.9L67.54142135623731,91.9L68.04142135623731,92.4L70.95857864376269,92.4L71.45857864376269,91.9L71.95857864376269,91.9L72.45857864376269,91.4L79.95857864376269,91.4L80.45857864376269,90.9L81.45857864376269,90.9L81.9,90.45857864376269L81.9,89.54142135623731L80.95857864376269,88.6L80.45857864376269,88.6L78.45857864376269,86.6L72.95857864376269,86.6z" stroke="none"/><path d="M7.5,6.1L7.5,5.9L25.458578643762692,5.9L26.458578643762692,4.9L27.541421356237308,4.9L28.570710678118655,5.929289321881345L28.429289321881345,6.070710678118655L27.458578643762692,5.1L26.541421356237308,5.1L25.541421356237308,6.1z" stroke="none"/><path d="M25.429289321881345,91.57071067811866L25.570710678118655,91.42928932188134L28.041421356237308,93.9L28.541421356237308,93.9L30.541421356237308,95.9L31.541421356237308,95.9L33.04142135623731,97.4L33.54142135623731,97.4L37.54142135623731,101.4L41.54142135623731,101.4L42.04142135623731,101.9L42.54142135623731,101.9L43.04142135623731,102.4L48.04142135623731,102.4L48.54142135623731,102.9L49.54142135623731,102.9L50.04142135623731,103.4L54.95857864376269,103.4L55.45857864376269,102.9L55.95857864376269,102.9L58.4,100.45857864376269L58.4,99.95857864376269L59.4,98.95857864376269L59.4,97.95857864376269L60.4,96.95857864376269L60.4,95.95857864376269L60.9,95.45857864376269L60.9,91.04142135623731L60.4,90.54142135623731L60.4,84.04142135623731L55.95857864376269,79.6L55.45857864376269,79.6L54.95857864376269,79.1L54.45857864376269,79.1L53.95857864376269,78.6L51.95857864376269,78.6L51.45857864376269,78.1L50.95857864376269,78.1L50.45857864376269,77.6L49.45857864376269,77.6L48.45857864376269,76.6L47.95857864376269,76.6L46.45857864376269,75.1L45.45857864376269,75.1L44.95857864376269,74.6L44.45857864376269,74.6L43.45857864376269,73.6L42.95857864376269,73.6L41.45857864376269,72.1L38.45857864376269,72.1L37.95857864376269,71.6L37.45857864376269,71.6L36.95857864376269,71.1L24.458578643762692,71.1L23.929289321881345,70.57071067811866L24.070710678118655,70.42928932188134L24.541421356237308,70.9L37.04142135623731,70.9L37.54142135623731,71.4L38.04142135623731,71.4L38.54142135623731,71.9L41.54142135623731,71.9L43.04142135623731,73.4L43.54142135623731,73.4L44.54142135623731,74.4L45.04142135623731,74.4L45.54142135623731,74.9L46.54142135623731,74.9L48.04142135623731,76.4L48.54142135623731,76.4L49.54142135623731,77.4L50.54142135623731,77.4L51.04142135623731,77.9L51.54142135623731,77.9L52.04142135623731,78.4L54.04142135623731,78.4L54.54142135623731,78.9L55.04142135623731,78.9L55.54142135623731,79.4L56.04142135623731,79.4L60.6,83.95857864376269L60.6,90.45857864376269L61.1,90.95857864376269L61.1,95.54142135623731L60.6,96.04142135623731L60.6,97.04142135623731L59.6,98.04142135623731L59.6,99.04142135623731L58.6,100.04142135623731L58.6,100.54142135623731L56.04142135623731,103.1L55.54142135623731,103.1L55.04142135623731,103.6L49.95857864376269,103.6L49.45857864376269,103.1L48.45857864376269,103.1L47.95857864376269,102.6L42.95857864376269,102.6L42.45857864376269,102.1L41.95857864376269,102.1L41.45857864376269,101.6L37.45857864376269,101.6L33.45857864376269,97.6L32.95857864376269,97.6L31.458578643762692,96.1L30.458578643762692,96.1L28.458578643762692,94.1L27.958578643762692,94.1z" stroke="none"/><path d="M100.4,81L100.6,81L100.6,85.45857864376269L101.1,85.95857864376269L101.1,86.45857864376269L101.6,86.95857864376269L101.6,87.45857864376269L102.1,87.95857864376269L102.1,88.45857864376269L103.1,89.45857864376269L103.1,101.04142135623731L101.04142135623731,103.1L99.95857864376269,103.1L98.92928932188134,102.07071067811866L99.07071067811866,101.92928932188134L100.04142135623731,102.9L100.95857864376269,102.9L102.9,100.95857864376269L102.9,89.54142135623731L101.9,88.54142135623731L101.9,88.04142135623731L101.4,87.54142135623731L101.4,87.04142135623731L100.9,86.54142135623731L100.9,86.04142135623731L100.4,85.54142135623731z" stroke="none"/><path d="M85.5,101.9L85.5,102.1L73.45857864376269,102.1L72.95857864376269,101.6L72.45857864376269,101.6L66.45857864376269,95.6L65.95857864376269,95.6L62.9,92.54142135623731L62.9,90.45857864376269L63.45857864376269,89.9L63.95857864376269,89.9L65.95857864376269,87.9L66.45857864376269,87.9L66.95857864376269,87.4L69.95857864376269,87.4L70.42928932188134,86.92928932188134L70.57071067811866,87.07071067811866L70.04142135623731,87.6L67.04142135623731,87.6L66.54142135623731,88.1L66.04142135623731,88.1L64.04142135623731,90.1L63.54142135623731,90.1L63.1,90.54142135623731L63.1,92.45857864376269L66.04142135623731,95.4L66.54142135623731,95.4L72.54142135623731,101.4L73.04142135623731,101.4L73.54142135623731,101.9z" stroke="none"/><path d="M65.92928932188134,99.07071067811866L66.07071067811866,98.92928932188134L66.54142135623731,99.4L67.04142135623731,99.4L67.54142135623731,99.9L68.04142135623731,99.9L68.54142135623731,100.4L70.04142135623731,100.4L72.04142135623731,102.4L84.54142135623731,102.4L85.04142135623731,102.9L85.95857864376269,102.9L86.4,102.45857864376269L86.4,94.95857864376269L86.92928932188134,94.42928932188134L87.07071067811866,94.57071067811866L86.6,95.04142135623731L86.6,102.54142135623731L86.04142135623731,103.1L84.95857864376269,103.1L84.45857864376269,102.6L71.95857864376269,102.6L69.95857864376269,100.6L68.45857864376269,100.6L67.95857864376269,100.1L67.45857864376269,100.1L66.95857864376269,99.6L66.45857864376269,99.6z" stroke="none"/><path d="M34.57071067811866,8.929289321881345L34.42928932188134,9.070710678118655L33.4,8.04142135623731L33.4,6.95857864376269L33.95857864376269,6.4L44.54142135623731,6.4L45.04142135623731,6.9L45.54142135623731,6.9L54.54142135623731,15.9L55.04142135623731,15.9L55.57071067811866,16.429289321881345L55.42928932188134,16.570710678118655L54.95857864376269,16.1L54.45857864376269,16.1L45.45857864376269,7.1L44.95857864376269,7.1L44.45857864376269,6.6L34.04142135623731,6.6L33.6,7.04142135623731L33.6,7.95857864376269z" stroke="none"/><path d="M21,19.4L21,19.6L20.041421356237308,19.6L19.541421356237308,20.1L19.041421356237308,20.1L17.541421356237308,21.6L17.041421356237308,21.6L15.04142135623731,23.6L13.54142135623731,23.6L13.04142135623731,24.1L11.54142135623731,24.1L10.54142135623731,25.1L10.04142135623731,25.1L8.6,26.541421356237308L8.6,27.541421356237308L8.1,28.041421356237308L8.1,36.54142135623731L7.6,37.04142135623731L7.6,37.5L7.4,37.5L7.4,36.95857864376269L7.9,36.45857864376269L7.9,27.958578643762692L8.4,27.458578643762692L8.4,26.458578643762692L9.95857864376269,24.9L10.45857864376269,24.9L11.45857864376269,23.9L12.95857864376269,23.9L13.45857864376269,23.4L14.95857864376269,23.4L16.958578643762692,21.4L17.458578643762692,21.4L18.958578643762692,19.9L19.458578643762692,19.9L19.958578643762692,19.4z" stroke="none"/><path d="M66,102.1L66,101.9L70.54142135623731,101.9L71.54142135623731,102.9L83.54142135623731,102.9L84.04142135623731,103.4L86.45857864376269,103.4L87.9,101.95857864376269L87.9,101.45857864376269L88.4,100.95857864376269L88.4,100.5L88.6,100.5L88.6,101.04142135623731L88.1,101.54142135623731L88.1,102.04142135623731L86.54142135623731,103.6L83.95857864376269,103.6L83.45857864376269,103.1L71.45857864376269,103.1L70.45857864376269,102.1z" stroke="none"/><path d="M3.1,88.5L2.9,88.5L2.9,75.45857864376269L3.4,74.95857864376269L3.4,74.45857864376269L3.9,73.95857864376269L3.9,73.45857864376269L4.9,72.45857864376269L4.9,71.45857864376269L14.9,61.45857864376269L14.9,60.95857864376269L17.4,58.45857864376269L17.4,57.45857864376269L18.9,55.95857864376269L18.9,54.95857864376269L20.9,52.95857864376269L20.9,51.95857864376269L22.4,50.45857864376269L22.4,49.45857864376269L24.958578643762692,46.9L26.041421356237308,46.9L26.6,47.45857864376269L26.6,52.54142135623731L25.6,53.54142135623731L25.6,54.04142135623731L25.1,54.54142135623731L25.1,55.04142135623731L24.6,55.54142135623731L24.6,56.04142135623731L23.6,57.04142135623731L23.6,68.54142135623731L23.1,69.04142135623731L23.1,74.54142135623731L22.6,75.04142135623731L22.6,76.5L22.4,76.5L22.4,74.95857864376269L22.9,74.45857864376269L22.9,68.95857864376269L23.4,68.45857864376269L23.4,56.95857864376269L24.4,55.95857864376269L24.4,55.45857864376269L24.9,54.95857864376269L24.9,54.45857864376269L25.4,53.95857864376269L25.4,53.45857864376269L26.4,52.45857864376269L26.4,47.54142135623731L25.958578643762692,47.1L25.041421356237308,47.1L22.6,49.54142135623731L22.6,50.54142135623731L21.1,52.04142135623731L21.1,53.04142135623731L19.1,55.04142135623731L19.1,56.04142135623731L17.6,57.54142135623731L17.6,58.54142135623731L15.1,61.04142135623731L15.1,61.54142135623731L5.1,71.54142135623731L5.1,72.54142135623731L4.1,73.54142135623731L4.1,74.04142135623731L3.6,74.54142135623731L3.6,75.04142135623731L3.1,75.54142135623731z" stroke="none"/><path d="M94.6,52.5L94.4,52.5L94.4,51.45857864376269L96.4,49.45857864376269L96.4,47.95857864376269L96.9,47.45857864376269L96.9,46.95857864376269L98.45857864376269,45.4L99.54142135623731,45.4L100.1,45.95857864376269L100.1,48.95857864376269L101.6,50.45857864376269L101.6,56.54142135623731L101.1,57.04142135623731L101.1,57.54142135623731L100.6,58.04142135623731L100.6,58.54142135623731L99.6,59.54142135623731L99.6,60.54142135623731L98.6,61.54142135623731L98.6,62.04142135623731L96.6,64.04142135623731L96.6,66.54142135623731L95.1,68.04142135623731L95.1,71.04142135623731L94.6,71.54142135623731L94.6,72.54142135623731L94.1,73.04142135623731L94.1,74.04142135623731L93.54142135623731,74.6L92.45857864376269,74.6L81.45857864376269,63.6L80.54142135623731,63.6L76.57071067811866,67.57071067811866L76.42928932188134,67.42928932188134L80.45857864376269,63.4L81.54142135623731,63.4L92.54142135623731,74.4L93.45857864376269,74.4L93.9,73.95857864376269L93.9,72.95857864376269L94.4,72.45857864376269L94.4,71.45857864376269L94.9,70.95857864376269L94.9,67.95857864376269L96.4,66.45857864376269L96.4,63.95857864376269L98.4,61.95857864376269L98.4,61.45857864376269L99.4,60.45857864376269L99.4,59.45857864376269L100.4,58.45857864376269L100.4,57.95857864376269L100.9,57.45857864376269L100.9,56.95857864376269L101.4,56.45857864376269L101.4,50.54142135623731L99.9,49.04142135623731L99.9,46.04142135623731L99.45857864376269,45.6L98.54142135623731,45.6L97.1,47.04142135623731L97.1,47.54142135623731L96.6,48.04142135623731L96.6,49.54142135623731L94.6,51.54142135623731z" stroke="none"/><path d="M48,98.9L48,99.1L46.45857864376269,99.1L44.95857864376269,97.6L43.45857864376269,97.6L42.95857864376269,97.1L41.45857864376269,97.1L39.45857864376269,95.1L36.95857864376269,95.1L35.95857864376269,94.1L33.95857864376269,94.1L33.45857864376269,93.6L32.95857864376269,93.6L31.458578643762692,92.1L29.958578643762692,92.1L29.458578643762692,91.6L27.958578643762692,91.6L27.458578643762692,91.1L26.958578643762692,91.1L26.458578643762692,90.6L25.041421356237308,90.6L24.6,91.04142135623731L24.6,91.95857864376269L32.54142135623731,99.9L33.54142135623731,99.9L34.54142135623731,100.9L35.54142135623731,100.9L36.54142135623731,101.9L40.54142135623731,101.9L41.04142135623731,102.4L42.04142135623731,102.4L42.54142135623731,102.9L47.04142135623731,102.9L47.54142135623731,103.4L49.04142135623731,103.4L49.54142135623731,103.9L55.95857864376269,103.9L59.4,100.45857864376269L59.4,99.95857864376269L59.9,99.45857864376269L59.9,98.95857864376269L60.9,97.95857864376269L60.9,96.95857864376269L61.4,96.45857864376269L61.4,91.95857864376269L61.9,91.45857864376269L61.9,90.95857864376269L62.4,90.45857864376269L62.4,89.95857864376269L65.45857864376269,86.9L67.95857864376269,86.9L68.45857864376269,86.4L68.95857864376269,86.4L69.45857864376269,85.9L71.04142135623731,85.9L71.6,86.45857864376269L71.6,87.54142135623731L71.04142135623731,88.1L69.54142135623731,88.1L69.07071067811866,88.57071067811866L68.92928932188134,88.42928932188134L69.45857864376269,87.9L70.95857864376269,87.9L71.4,87.45857864376269L71.4,86.54142135623731L70.95857864376269,86.1L69.54142135623731,86.1L69.04142135623731,86.6L68.54142135623731,86.6L68.04142135623731,87.1L65.54142135623731,87.1L62.6,90.04142135623731L62.6,90.54142135623731L62.1,91.04142135623731L62.1,91.54142135623731L61.6,92.04142135623731L61.6,96.54142135623731L61.1,97.04142135623731L61.1,98.04142135623731L60.1,99.04142135623731L60.1,99.54142135623731L59.6,100.04142135623731L59.6,100.54142135623731L56.04142135623731,104.1L49.45857864376269,104.1L48.95857864376269,103.6L47.45857864376269,103.6L46.95857864376269,103.1L42.45857864376269,103.1L41.95857864376269,102.6L40.95857864376269,102.6L40.45857864376269,102.1L36.45857864376269,102.1L35.45857864376269,101.1L34.45857864376269,101.1L33.45857864376269,100.1L32.45857864376269,100.1L24.4,92.04142135623731L24.4,90.95857864376269L24.958578643762692,90.4L26.541421356237308,90.4L27.041421356237308,90.9L27.541421356237308,90.9L28.041421356237308,91.4L29.541421356237308,91.4L30.041421356237308,91.9L31.541421356237308,91.9L33.04142135623731,93.4L33.54142135623731,93.4L34.04142135623731,93.9L36.04142135623731,93.9L37.04142135623731,94.9L39.54142135623731,94.9L41.54142135623731,96.9L43.04142135623731,96.9L43.54142135623731,97.4L45.04142135623731,97.4L46.54142135623731,98.9z" stroke="none"/><path d="M52.6,54L52.4,54L52.4,52.04142135623731L49.9,49.54142135623731L49.9,46.54142135623731L47.9,44.54142135623731L47.9,42.54142135623731L47.4,42.04142135623731L47.4,41.54142135623731L46.9,41.04142135623731L46.9,40.54142135623731L46.4,40.04142135623731L46.4,34.04142135623731L45.4,33.04142135623731L45.4,32.54142135623731L44.9,32.04142135623731L44.9,31.5L45.1,31.5L45.1,31.958578643762692L45.6,32.45857864376269L45.6,32.95857864376269L46.6,33.95857864376269L46.6,39.95857864376269L47.1,40.45857864376269L47.1,40.95857864376269L47.6,41.45857864376269L47.6,41.95857864376269L48.1,42.45857864376269L48.1,44.45857864376269L50.1,46.45857864376269L50.1,49.45857864376269L52.6,51.95857864376269z" stroke="none"/><path d="M45,89.9L45,90.1L24.541421356237308,90.1L19.6,95.04142135623731L19.6,95.54142135623731L17.6,97.54142135623731L17.6,98.04142135623731L16.6,99.04142135623731L16.6,99.54142135623731L16.1,100.04142135623731L16.1,101.04142135623731L15.54142135623731,101.6L14.45857864376269,101.6L13.9,101.04142135623731L13.9,99.95857864376269L14.9,98.95857864376269L14.9,98.45857864376269L16.4,96.95857864376269L16.4,96.45857864376269L17.9,94.95857864376269L17.9,94.45857864376269L18.4,93.95857864376269L18.4,93.45857864376269L18.9,92.95857864376269L18.9,92.45857864376269L19.9,91.45857864376269L19.9,90.95857864376269L20.4,90.45857864376269L20.4,89.45857864376269L20.9,88.95857864376269L20.9,88.5L21.1,88.5L21.1,89.04142135623731L20.6,89.54142135623731L20.6,90.54142135623731L20.1,91.04142135623731L20.1,91.54142135623731L19.1,92.54142135623731L19.1,93.04142135623731L18.6,93.54142135623731L18.6,94.04142135623731L18.1,94.54142135623731L18.1,95.04142135623731L16.6,96.54142135623731L16.6,97.04142135623731L15.1,98.54142135623731L15.1,99.04142135623731L14.1,100.04142135623731L14.1,100.95857864376269L14.54142135623731,101.4L15.45857864376269,101.4L15.9,100.95857864376269L15.9,99.95857864376269L16.4,99.45857864376269L16.4,98.95857864376269L17.4,97.95857864376269L17.4,97.45857864376269L19.4,95.45857864376269L19.4,94.95857864376269L24.458578643762692,89.9z" stroke="none"/><path d="M38.92928932188134,23.929289321881345L39.07071067811866,24.070710678118655L28.1,35.04142135623731L28.1,35.54142135623731L24.6,39.04142135623731L24.6,41.54142135623731L24.1,42.04142135623731L24.1,43.04142135623731L22.6,44.54142135623731L22.6,45.04142135623731L19.541421356237308,48.1L16.958578643762692,48.1L16.4,47.54142135623731L16.4,45.45857864376269L17.4,44.45857864376269L17.4,43.95857864376269L18.4,42.95857864376269L18.4,42.45857864376269L19.4,41.45857864376269L19.4,40.45857864376269L30.9,28.958578643762692L30.9,28.458578643762692L33.9,25.458578643762692L33.9,21.958578643762692L35.4,20.458578643762692L35.4,19.958578643762692L36.95857864376269,18.4L37.45857864376269,18.4L37.95857864376269,17.9L49.04142135623731,17.9L49.54142135623731,18.4L50.04142135623731,18.4L50.54142135623731,18.9L51.04142135623731,18.9L51.54142135623731,19.4L52.04142135623731,19.4L52.54142135623731,19.9L53.04142135623731,19.9L53.54142135623731,20.4L54.45857864376269,20.4L62.95857864376269,11.9L63.95857864376269,11.9L65.45857864376269,10.4L65.95857864376269,10.4L69.95857864376269,6.4L70.45857864376269,6.4L70.95857864376269,5.9L71.95857864376269,5.9L72.45857864376269,5.4L73.45857864376269,5.4L73.95857864376269,4.9L74.95857864376269,4.9L76.45857864376269,3.4L77.45857864376269,3.4L77.95857864376269,2.9L78.45857864376269,2.9L78.95857864376269,2.4L80.45857864376269,2.4L81.45857864376269,1.4L82.45857864376269,1.4L82.95857864376269,0.9L97.04142135623731,0.9L98.6,2.4585786437626904L98.6,6.54142135623731L98.1,7.04142135623731L98.1,21.041421356237308L97.1,22.041421356237308L97.1,23.541421356237308L96.1,24.541421356237308L96.1,25.541421356237308L85.54142135623731,36.1L84.04142135623731,36.1L83.54142135623731,36.6L82.54142135623731,36.6L82.04142135623731,37.1L79.54142135623731,37.1L79.04142135623731,37.6L67.95857864376269,37.6L67.4,37.04142135623731L67.4,30.541421356237308L66.4,29.541421356237308L66.4,29.041421356237308L64.4,27.041421356237308L64.4,23.541421356237308L62.9,22.041421356237308L62.9,21L63.1,21L63.1,21.958578643762692L64.6,23.458578643762692L64.6,26.958578643762692L66.6,28.958578643762692L66.6,29.458578643762692L67.6,30.458578643762692L67.6,36.95857864376269L68.04142135623731,37.4L78.95857864376269,37.4L79.45857864376269,36.9L81.95857864376269,36.9L82.45857864376269,36.4L83.45857864376269,36.4L83.95857864376269,35.9L85.45857864376269,35.9L95.9,25.458578643762692L95.9,24.458578643762692L96.9,23.458578643762692L96.9,21.958578643762692L97.9,20.958578643762692L97.9,6.95857864376269L98.4,6.45857864376269L98.4,2.5414213562373096L96.95857864376269,1.1L83.04142135623731,1.1L82.54142135623731,1.6L81.54142135623731,1.6L80.54142135623731,2.6L79.04142135623731,2.6L78.54142135623731,3.1L78.04142135623731,3.1L77.54142135623731,3.6L76.54142135623731,3.6L75.04142135623731,5.1L74.04142135623731,5.1L73.54142135623731,5.6L72.54142135623731,5.6L72.04142135623731,6.1L71.04142135623731,6.1L70.54142135623731,6.6L70.04142135623731,6.6L66.04142135623731,10.6L65.54142135623731,10.6L64.04142135623731,12.1L63.04142135623731,12.1L54.54142135623731,20.6L53.45857864376269,20.6L52.95857864376269,20.1L52.45857864376269,20.1L51.95857864376269,19.6L51.45857864376269,19.6L50.95857864376269,19.1L50.45857864376269,19.1L49.95857864376269,18.6L49.45857864376269,18.6L48.95857864376269,18.1L38.04142135623731,18.1L37.54142135623731,18.6L37.04142135623731,18.6L35.6,20.041421356237308L35.6,20.541421356237308L34.1,22.041421356237308L34.1,25.541421356237308L31.1,28.541421356237308L31.1,29.041421356237308L19.6,40.54142135623731L19.6,41.54142135623731L18.6,42.54142135623731L18.6,43.04142135623731L17.6,44.04142135623731L17.6,44.54142135623731L16.6,45.54142135623731L16.6,47.45857864376269L17.041421356237308,47.9L19.458578643762692,47.9L22.4,44.95857864376269L22.4,44.45857864376269L23.9,42.95857864376269L23.9,41.95857864376269L24.4,41.45857864376269L24.4,38.95857864376269L27.9,35.45857864376269L27.9,34.95857864376269z" stroke="none"/><path d="M98.9,7.5L99.1,7.5L99.1,23.541421356237308L91.6,31.041421356237308L91.6,31.5L91.4,31.5L91.4,30.958578643762692L98.9,23.458578643762692z" stroke="none"/><path d="M2.9,10.5L3.1,10.5L3.1,23.958578643762692L4.1,24.958578643762692L4.1,34.95857864376269L4.6,35.45857864376269L4.6,36L4.4,36L4.4,35.54142135623731L3.9,35.04142135623731L3.9,25.041421356237308L2.9,24.041421356237308z" stroke="none"/><path d="M12,42.1L12,41.9L14.95857864376269,41.9L21.458578643762692,35.4L21.958578643762692,35.4L30.458578643762692,26.9L30.958578643762692,26.9L31.458578643762692,26.4L31.958578643762692,26.4L32.4,25.958578643762692L32.4,25.041421356237308L31.458578643762692,24.1L30.458578643762692,24.1L28.958578643762692,22.6L28.5,22.6L28.5,22.4L29.041421356237308,22.4L30.541421356237308,23.9L31.541421356237308,23.9L32.6,24.958578643762692L32.6,26.041421356237308L32.04142135623731,26.6L31.541421356237308,26.6L31.041421356237308,27.1L30.541421356237308,27.1L22.041421356237308,35.6L21.541421356237308,35.6L15.04142135623731,42.1z" stroke="none"/><path d="M38.92928932188134,31.429289321881345L39.07071067811866,31.570710678118655L38.54142135623731,32.1L38.04142135623731,32.1L37.54142135623731,32.6L37.04142135623731,32.6L36.04142135623731,33.6L35.54142135623731,33.6L32.04142135623731,37.1L31.541421356237308,37.1L31.041421356237308,37.6L30.041421356237308,37.6L29.041421356237308,38.6L28.541421356237308,38.6L28.041421356237308,39.1L27.041421356237308,39.1L26.1,40.04142135623731L26.1,40.54142135623731L25.6,41.04142135623731L25.6,42.54142135623731L24.6,43.54142135623731L24.6,44.04142135623731L20.041421356237308,48.6L16.458578643762692,48.6L11.4,43.54142135623731L11.4,43.04142135623731L10.9,42.54142135623731L10.9,41.45857864376269L11.45857864376269,40.9L13.95857864376269,40.9L14.45857864376269,40.4L15,40.4L15,40.6L14.54142135623731,40.6L14.04142135623731,41.1L11.54142135623731,41.1L11.1,41.54142135623731L11.1,42.45857864376269L11.6,42.95857864376269L11.6,43.45857864376269L16.541421356237308,48.4L19.958578643762692,48.4L24.4,43.95857864376269L24.4,43.45857864376269L25.4,42.45857864376269L25.4,40.95857864376269L25.9,40.45857864376269L25.9,39.95857864376269L26.958578643762692,38.9L27.958578643762692,38.9L28.458578643762692,38.4L28.958578643762692,38.4L29.958578643762692,37.4L30.958578643762692,37.4L31.458578643762692,36.9L31.958578643762692,36.9L35.45857864376269,33.4L35.95857864376269,33.4L36.95857864376269,32.4L37.45857864376269,32.4L37.95857864376269,31.9L38.45857864376269,31.9z" stroke="none"/><path d="M34.5,11.9L34.5,12.1L32.04142135623731,12.1L31.541421356237308,12.6L31.041421356237308,12.6L30.541421356237308,13.1L30.041421356237308,13.1L29.541421356237308,13.6L28.541421356237308,13.6L28.041421356237308,14.1L27.541421356237308,14.1L26.041421356237308,15.6L25.041421356237308,15.6L24.541421356237308,16.1L23.041421356237308,16.1L22.041421356237308,17.1L20.541421356237308,17.1L17.541421356237308,20.1L16.541421356237308,20.1L15.04142135623731,21.6L14.04142135623731,21.6L12.54142135623731,23.1L12.04142135623731,23.1L11.54142135623731,23.6L11.04142135623731,23.6L10.54142135623731,24.1L10.04142135623731,24.1L8.1,26.041421356237308L8.1,26.541421356237308L7.6,27.041421356237308L7.6,36.04142135623731L6.6,37.04142135623731L6.6,39.95857864376269L7.6,40.95857864376269L7.6,41.95857864376269L13.04142135623731,47.4L13.54142135623731,47.4L14.04142135623731,47.9L14.54142135623731,47.9L15.54142135623731,48.9L21.458578643762692,48.9L23.458578643762692,46.9L23.958578643762692,46.9L24.458578643762692,46.4L32.54142135623731,46.4L33.04142135623731,46.9L33.54142135623731,46.9L34.54142135623731,47.9L36.04142135623731,47.9L36.54142135623731,48.4L38.54142135623731,48.4L40.04142135623731,49.9L41.04142135623731,49.9L41.54142135623731,50.4L42.45857864376269,50.4L42.9,49.95857864376269L42.9,29.541421356237308L42.45857864376269,29.1L40.54142135623731,29.1L39.04142135623731,30.6L38.54142135623731,30.6L37.04142135623731,32.1L36.54142135623731,32.1L35.54142135623731,33.1L35.04142135623731,33.1L33.54142135623731,34.6L33.04142135623731,34.6L31.541421356237308,36.1L31.041421356237308,36.1L30.541421356237308,36.6L30.041421356237308,36.6L29.041421356237308,37.6L28.5,37.6L28.5,37.4L28.958578643762692,37.4L29.958578643762692,36.4L30.458578643762692,36.4L30.958578643762692,35.9L31.458578643762692,35.9L32.95857864376269,34.4L33.45857864376269,34.4L34.95857864376269,32.9L35.45857864376269,32.9L36.45857864376269,31.9L36.95857864376269,31.9L38.45857864376269,30.4L38.95857864376269,30.4L40.45857864376269,28.9L42.54142135623731,28.9L43.1,29.458578643762692L43.1,50.04142135623731L42.54142135623731,50.6L41.45857864376269,50.6L40.95857864376269,50.1L39.95857864376269,50.1L38.45857864376269,48.6L36.45857864376269,48.6L35.95857864376269,48.1L34.45857864376269,48.1L33.45857864376269,47.1L32.95857864376269,47.1L32.45857864376269,46.6L24.541421356237308,46.6L24.041421356237308,47.1L23.541421356237308,47.1L21.541421356237308,49.1L15.45857864376269,49.1L14.45857864376269,48.1L13.95857864376269,48.1L13.45857864376269,47.6L12.95857864376269,47.6L7.4,42.04142135623731L7.4,41.04142135623731L6.4,40.04142135623731L6.4,36.95857864376269L7.4,35.95857864376269L7.4,26.958578643762692L7.9,26.458578643762692L7.9,25.958578643762692L9.95857864376269,23.9L10.45857864376269,23.9L10.95857864376269,23.4L11.45857864376269,23.4L11.95857864376269,22.9L12.45857864376269,22.9L13.95857864376269,21.4L14.95857864376269,21.4L16.458578643762692,19.9L17.458578643762692,19.9L20.458578643762692,16.9L21.958578643762692,16.9L22.958578643762692,15.9L24.458578643762692,15.9L24.958578643762692,15.4L25.958578643762692,15.4L27.458578643762692,13.9L27.958578643762692,13.9L28.458578643762692,13.4L29.458578643762692,13.4L29.958578643762692,12.9L30.458578643762692,12.9L30.958578643762692,12.4L31.458578643762692,12.4L31.958578643762692,11.9z" stroke="none"/><path d="M61.5,62.9L61.5,63.1L44.95857864376269,63.1L44.45857864376269,62.6L43.95857864376269,62.6L43.45857864376269,62.1L42.95857864376269,62.1L42.45857864376269,61.6L41.45857864376269,61.6L39.45857864376269,59.6L38.45857864376269,59.6L37.45857864376269,58.6L36.45857864376269,58.6L34.95857864376269,57.1L34.5,57.1L34.5,56.9L35.04142135623731,56.9L36.54142135623731,58.4L37.54142135623731,58.4L38.54142135623731,59.4L39.54142135623731,59.4L41.54142135623731,61.4L42.54142135623731,61.4L43.04142135623731,61.9L43.54142135623731,61.9L44.04142135623731,62.4L44.54142135623731,62.4L45.04142135623731,62.9z" stroke="none"/><path d="M5.929289321881345,72.07071067811866L6.070710678118655,71.92928932188134L7.1,72.95857864376269L7.1,81.45857864376269L8.1,82.45857864376269L8.1,83.45857864376269L9.6,84.95857864376269L9.6,85.45857864376269L11.1,86.95857864376269L11.1,87.45857864376269L11.6,87.95857864376269L11.6,89.04142135623731L11.04142135623731,89.6L2.4585786437626904,89.6L1.9,89.04142135623731L1.9,64.95857864376269L2.4,64.45857864376269L2.4,63.45857864376269L4.4,61.45857864376269L4.4,60.95857864376269L5.9,59.45857864376269L5.9,58.95857864376269L6.9,57.95857864376269L6.9,56.45857864376269L7.4,55.95857864376269L7.4,43.5L7.6,43.5L7.6,56.04142135623731L7.1,56.54142135623731L7.1,58.04142135623731L6.1,59.04142135623731L6.1,59.54142135623731L4.6,61.04142135623731L4.6,61.54142135623731L2.6,63.54142135623731L2.6,64.54142135623731L2.1,65.04142135623731L2.1,88.95857864376269L2.5414213562373096,89.4L10.95857864376269,89.4L11.4,88.95857864376269L11.4,88.04142135623731L10.9,87.54142135623731L10.9,87.04142135623731L9.4,85.54142135623731L9.4,85.04142135623731L7.9,83.54142135623731L7.9,82.54142135623731L6.9,81.54142135623731L6.9,73.04142135623731z" stroke="none"/><path d="M9.070710678118655,7.429289321881345L8.929289321881345,7.570710678118655L8.45857864376269,7.1L6.95857864376269,7.1L6.4,6.54142135623731L6.4,5.45857864376269L6.95857864376269,4.9L22.458578643762692,4.9L22.958578643762692,4.4L42.54142135623731,4.4L43.04142135623731,4.9L43.54142135623731,4.9L44.04142135623731,5.4L45.04142135623731,5.4L53.54142135623731,13.9L54.04142135623731,13.9L54.54142135623731,14.4L55.04142135623731,14.4L56.6,15.95857864376269L56.6,17.041421356237308L56.04142135623731,17.6L54.95857864376269,17.6L53.45857864376269,16.1L46.95857864376269,16.1L44.95857864376269,14.1L44.45857864376269,14.1L43.45857864376269,13.1L40.95857864376269,13.1L40.45857864376269,12.6L39.95857864376269,12.6L38.45857864376269,11.1L37.95857864376269,11.1L37.42928932188134,10.570710678118655L37.57071067811866,10.429289321881345L38.04142135623731,10.9L38.54142135623731,10.9L40.04142135623731,12.4L40.54142135623731,12.4L41.04142135623731,12.9L43.54142135623731,12.9L44.54142135623731,13.9L45.04142135623731,13.9L47.04142135623731,15.9L53.54142135623731,15.9L55.04142135623731,17.4L55.95857864376269,17.4L56.4,16.958578643762692L56.4,16.041421356237308L54.95857864376269,14.6L54.45857864376269,14.6L53.95857864376269,14.1L53.45857864376269,14.1L44.95857864376269,5.6L43.95857864376269,5.6L43.45857864376269,5.1L42.95857864376269,5.1L42.45857864376269,4.6L23.041421356237308,4.6L22.541421356237308,5.1L7.04142135623731,5.1L6.6,5.54142135623731L6.6,6.45857864376269L7.04142135623731,6.9L8.54142135623731,6.9z" stroke="none"/><path d="M34.42928932188134,7.570710678118655L34.57071067811866,7.429289321881345L35.6,8.45857864376269L35.6,9.54142135623731L35.04142135623731,10.1L16.958578643762692,10.1L16.458578643762692,9.6L15.95857864376269,9.6L14.95857864376269,8.6L13.45857864376269,8.6L12.95857864376269,8.1L10.54142135623731,8.1L10.04142135623731,8.6L7.95857864376269,8.6L7.45857864376269,8.1L6.95857864376269,8.1L5.9,7.04142135623731L5.9,4.95857864376269L6.45857864376269,4.4L20.958578643762692,4.4L21.458578643762692,3.9L32.95857864376269,3.9L33.95857864376269,2.9L61.95857864376269,2.9L62.45857864376269,2.4L76.45857864376269,2.4L76.95857864376269,1.9L78.95857864376269,1.9L79.95857864376269,0.9L81.95857864376269,0.9L82.45857864376269,0.4L97.54142135623731,0.4L99.1,1.9585786437626904L99.1,4.95857864376269L100.1,5.95857864376269L100.1,16.041421356237308L99.6,16.541421356237308L99.6,24.041421356237308L92.6,31.041421356237308L92.6,32.04142135623731L91.54142135623731,33.1L91.04142135623731,33.1L89.54142135623731,34.6L88.54142135623731,34.6L86.54142135623731,36.6L84.54142135623731,36.6L84.04142135623731,37.1L83.54142135623731,37.1L83.04142135623731,37.6L80.04142135623731,37.6L79.54142135623731,38.1L67.45857864376269,38.1L57.9,28.541421356237308L57.9,27.541421356237308L57.4,27.041421356237308L57.4,26.541421356237308L56.9,26.041421356237308L56.9,25.5L57.1,25.5L57.1,25.958578643762692L57.6,26.458578643762692L57.6,26.958578643762692L58.1,27.458578643762692L58.1,28.458578643762692L67.54142135623731,37.9L79.45857864376269,37.9L79.95857864376269,37.4L82.95857864376269,37.4L83.45857864376269,36.9L83.95857864376269,36.9L84.45857864376269,36.4L86.45857864376269,36.4L88.45857864376269,34.4L89.45857864376269,34.4L90.95857864376269,32.9L91.45857864376269,32.9L92.4,31.958578643762692L92.4,30.958578643762692L99.4,23.958578643762692L99.4,16.458578643762692L99.9,15.95857864376269L99.9,6.04142135623731L98.9,5.04142135623731L98.9,2.0414213562373096L97.45857864376269,0.6L82.54142135623731,0.6L82.04142135623731,1.1L80.04142135623731,1.1L79.04142135623731,2.1L77.04142135623731,2.1L76.54142135623731,2.6L62.54142135623731,2.6L62.04142135623731,3.1L34.04142135623731,3.1L33.04142135623731,4.1L21.541421356237308,4.1L21.041421356237308,4.6L6.54142135623731,4.6L6.1,5.04142135623731L6.1,6.95857864376269L7.04142135623731,7.9L7.54142135623731,7.9L8.04142135623731,8.4L9.95857864376269,8.4L10.45857864376269,7.9L13.04142135623731,7.9L13.54142135623731,8.4L15.04142135623731,8.4L16.041421356237308,9.4L16.541421356237308,9.4L17.041421356237308,9.9L34.95857864376269,9.9L35.4,9.45857864376269L35.4,8.54142135623731z" stroke="none"/><path d="M39.07071067811866,64.42928932188134L38.92928932188134,64.57071067811866L33.9,59.54142135623731L33.9,58.54142135623731L33.4,58.04142135623731L33.4,56.45857864376269L33.95857864376269,55.9L50.95857864376269,55.9L51.45857864376269,55.4L52.45857864376269,55.4L53.4,54.45857864376269L53.4,47.04142135623731L52.9,46.54142135623731L52.9,46.04142135623731L52.4,45.54142135623731L52.4,39L52.6,39L52.6,45.45857864376269L53.1,45.95857864376269L53.1,46.45857864376269L53.6,46.95857864376269L53.6,54.54142135623731L52.54142135623731,55.6L51.54142135623731,55.6L51.04142135623731,56.1L34.04142135623731,56.1L33.6,56.54142135623731L33.6,57.95857864376269L34.1,58.45857864376269L34.1,59.45857864376269z" stroke="none"/><path d="M97.42928932188134,71.92928932188134L97.57071067811866,72.07071067811866L96.1,73.54142135623731L96.1,74.54142135623731L95.6,75.04142135623731L95.6,75.54142135623731L95.1,76.04142135623731L95.1,76.95857864376269L96.54142135623731,78.4L97.04142135623731,78.4L97.54142135623731,78.9L99.54142135623731,78.9L100.04142135623731,79.4L100.54142135623731,79.4L101.6,80.45857864376269L101.6,84.95857864376269L102.1,85.45857864376269L102.1,86.95857864376269L102.6,87.45857864376269L102.6,87.95857864376269L103.6,88.95857864376269L103.6,101.54142135623731L101.54142135623731,103.6L93.95857864376269,103.6L93.45857864376269,103.1L92.95857864376269,103.1L90.45857864376269,100.6L90,100.6L90,100.4L90.54142135623731,100.4L93.04142135623731,102.9L93.54142135623731,102.9L94.04142135623731,103.4L101.45857864376269,103.4L103.4,101.45857864376269L103.4,89.04142135623731L102.4,88.04142135623731L102.4,87.54142135623731L101.9,87.04142135623731L101.9,85.54142135623731L101.4,85.04142135623731L101.4,80.54142135623731L100.45857864376269,79.6L99.95857864376269,79.6L99.45857864376269,79.1L97.45857864376269,79.1L96.95857864376269,78.6L96.45857864376269,78.6L94.9,77.04142135623731L94.9,75.95857864376269L95.4,75.45857864376269L95.4,74.95857864376269L95.9,74.45857864376269L95.9,73.45857864376269z" stroke="none"/><path d="M99.07071067811866,76.57071067811866L98.92928932188134,76.42928932188134L101.4,73.95857864376269L101.4,70.45857864376269L102.4,69.45857864376269L102.4,63.95857864376269L102.9,63.45857864376269L102.9,49.04142135623731L102.4,48.54142135623731L102.4,48.04142135623731L100.9,46.54142135623731L100.9,46.04142135623731L99.95857864376269,45.1L97.54142135623731,45.1L96.54142135623731,46.1L96.04142135623731,46.1L95.54142135623731,46.6L94.54142135623731,46.6L94.04142135623731,47.1L93.04142135623731,47.1L92.54142135623731,47.6L92.04142135623731,47.6L91.54142135623731,48.1L90.04142135623731,48.1L89.54142135623731,48.6L89.04142135623731,48.6L88.54142135623731,49.1L87.54142135623731,49.1L87.07071067811866,49.57071067811866L86.92928932188134,49.42928932188134L87.45857864376269,48.9L88.45857864376269,48.9L88.95857864376269,48.4L89.45857864376269,48.4L89.95857864376269,47.9L91.45857864376269,47.9L91.95857864376269,47.4L92.45857864376269,47.4L92.95857864376269,46.9L93.95857864376269,46.9L94.45857864376269,46.4L95.45857864376269,46.4L95.95857864376269,45.9L96.45857864376269,45.9L97.45857864376269,44.9L100.04142135623731,44.9L101.1,45.95857864376269L101.1,46.45857864376269L102.6,47.95857864376269L102.6,48.45857864376269L103.1,48.95857864376269L103.1,63.54142135623731L102.6,64.04142135623731L102.6,69.54142135623731L101.6,70.54142135623731L101.6,74.04142135623731z" stroke="none"/><path d="M85.4,43.5L85.6,43.5L85.6,45.04142135623731L84.6,46.04142135623731L84.6,46.95857864376269L85.54142135623731,47.9L87.95857864376269,47.9L88.45857864376269,47.4L90.95857864376269,47.4L91.95857864376269,46.4L92.45857864376269,46.4L93.45857864376269,45.4L94.45857864376269,45.4L95.95857864376269,43.9L96.45857864376269,43.9L97.95857864376269,42.4L98.45857864376269,42.4L101.4,39.45857864376269L101.4,20.041421356237308L100.9,19.541421356237308L100.9,19.041421356237308L100.4,18.541421356237308L100.4,18L100.6,18L100.6,18.458578643762692L101.1,18.958578643762692L101.1,19.458578643762692L101.6,19.958578643762692L101.6,39.54142135623731L98.54142135623731,42.6L98.04142135623731,42.6L96.54142135623731,44.1L96.04142135623731,44.1L94.54142135623731,45.6L93.54142135623731,45.6L92.54142135623731,46.6L92.04142135623731,46.6L91.04142135623731,47.6L88.54142135623731,47.6L88.04142135623731,48.1L85.45857864376269,48.1L84.4,47.04142135623731L84.4,45.95857864376269L85.4,44.95857864376269z" stroke="none"/><path d="M22.5,2.9L22.5,3.1L7.04142135623731,3.1L5.6,4.54142135623731L5.6,5.04142135623731L5.1,5.54142135623731L5.1,6.04142135623731L4.1,7.04142135623731L4.1,7.54142135623731L2.1,9.54142135623731L2.1,22.458578643762692L2.6,22.958578643762692L2.6,24.958578643762692L3.0707106781186546,25.429289321881345L2.9292893218813454,25.570710678118655L2.4,25.041421356237308L2.4,23.041421356237308L1.9,22.541421356237308L1.9,9.45857864376269L3.9,7.45857864376269L3.9,6.95857864376269L4.9,5.95857864376269L4.9,5.45857864376269L5.4,4.95857864376269L5.4,4.45857864376269L6.95857864376269,2.9z" stroke="none"/><path d="M33.1,69L32.9,69L32.9,55.95857864376269L33.45857864376269,55.4L36.95857864376269,55.4L40.45857864376269,51.9L41.45857864376269,51.9L41.95857864376269,51.4L42.45857864376269,51.4L43.4,50.45857864376269L43.4,46.95857864376269L43.9,46.45857864376269L43.9,45.95857864376269L44.4,45.45857864376269L44.4,44.95857864376269L44.9,44.45857864376269L44.9,43.95857864376269L46.4,42.45857864376269L46.4,42L46.6,42L46.6,42.54142135623731L45.1,44.04142135623731L45.1,44.54142135623731L44.6,45.04142135623731L44.6,45.54142135623731L44.1,46.04142135623731L44.1,46.54142135623731L43.6,47.04142135623731L43.6,50.54142135623731L42.54142135623731,51.6L42.04142135623731,51.6L41.54142135623731,52.1L40.54142135623731,52.1L37.04142135623731,55.6L33.54142135623731,55.6L33.1,56.04142135623731z" stroke="none"/><path d="M38.92928932188134,67.57071067811866L39.07071067811866,67.42928932188134L45.04142135623731,73.4L46.04142135623731,73.4L46.54142135623731,73.9L48.04142135623731,73.9L48.54142135623731,74.4L49.04142135623731,74.4L49.54142135623731,74.9L51.54142135623731,74.9L52.54142135623731,75.9L53.04142135623731,75.9L56.04142135623731,78.9L56.54142135623731,78.9L61.1,83.45857864376269L61.1,84.95857864376269L61.6,85.45857864376269L61.6,90L61.4,90L61.4,85.54142135623731L60.9,85.04142135623731L60.9,83.54142135623731L56.45857864376269,79.1L55.95857864376269,79.1L52.95857864376269,76.1L52.45857864376269,76.1L51.45857864376269,75.1L49.45857864376269,75.1L48.95857864376269,74.6L48.45857864376269,74.6L47.95857864376269,74.1L46.45857864376269,74.1L45.95857864376269,73.6L44.95857864376269,73.6z" stroke="none"/><path d="M10.4,70.5L10.6,70.5L10.6,76.04142135623731L9.1,77.54142135623731L9.1,79.54142135623731L8.1,80.54142135623731L8.1,81.45857864376269L10.1,83.45857864376269L10.1,83.95857864376269L11.1,84.95857864376269L11.1,85.45857864376269L11.6,85.95857864376269L11.6,86.45857864376269L12.1,86.95857864376269L12.1,93.54142135623731L11.6,94.04142135623731L11.6,95.54142135623731L11.1,96.04142135623731L11.1,98.45857864376269L11.6,98.95857864376269L11.6,99.45857864376269L14.04142135623731,101.9L21.958578643762692,101.9L23.458578643762692,100.4L24,100.4L24,100.6L23.541421356237308,100.6L22.041421356237308,102.1L13.95857864376269,102.1L11.4,99.54142135623731L11.4,99.04142135623731L10.9,98.54142135623731L10.9,95.95857864376269L11.4,95.45857864376269L11.4,93.95857864376269L11.9,93.45857864376269L11.9,87.04142135623731L11.4,86.54142135623731L11.4,86.04142135623731L10.9,85.54142135623731L10.9,85.04142135623731L9.9,84.04142135623731L9.9,83.54142135623731L7.9,81.54142135623731L7.9,80.45857864376269L8.9,79.45857864376269L8.9,77.45857864376269L10.4,75.95857864376269z" stroke="none"/></svg>