<svg version="1.1" width="105" height="105" xmlns="http://www.w3.org/2000/svg"><path d="M61,63.35857864376269L62.92928932188134,61.42928932188134L63.07071067811866,61.57071067811866L61.14142135623731,63.5L66.04142135623731,68.4L66.54142135623731,68.4L67.04142135623731,68.9L68.54142135623731,68.9L77.04142135623731,77.4L77.54142135623731,77.4L78.07071067811866,77.92928932188134L77.92928932188134,78.07071067811866L77.45857864376269,77.6L76.95857864376269,77.6L68.45857864376269,69.1L66.95857864376269,69.1L66.45857864376269,68.6L65.95857864376269,68.6L60.45857864376269,63.1L59.95857864376269,63.1L59.45857864376269,62.6L58.95857864376269,62.6L56.45857864376269,60.1L55.45857864376269,60.1L53.95857864376269,58.6L53.45857864376269,58.6L52.95857864376269,58.1L51.45857864376269,58.1L50.95857864376269,57.6L50.45857864376269,57.6L49.95857864376269,57.1L48,57.1L48,56.9L50.04142135623731,56.9L50.54142135623731,57.4L51.04142135623731,57.4L51.54142135623731,57.9L53.04142135623731,57.9L53.54142135623731,58.4L54.04142135623731,58.4L55.54142135623731,59.9L56.54142135623731,59.9L59.04142135623731,62.4L59.54142135623731,62.4L60.04142135623731,62.9L60.54142135623731,62.9z" stroke="none"/><path d="M27.458578643762692,21.4L27.958578643762692,20.9L28.458578643762692,20.9L29.929289321881345,19.429289321881345L30.070710678118655,19.570710678118655L28.541421356237308,21.1L28.041421356237308,21.1L27.64142135623731,21.5L31.041421356237308,24.9L34.04142135623731,24.9L34.54142135623731,25.4L35.04142135623731,25.4L42.04142135623731,32.4L42.54142135623731,32.4L43.04142135623731,32.9L43.5,32.9L43.5,33.1L42.95857864376269,33.1L42.45857864376269,32.6L41.95857864376269,32.6L34.95857864376269,25.6L34.45857864376269,25.6L33.95857864376269,25.1L30.958578643762692,25.1L27.458578643762692,21.6L25.958578643762692,21.6L24.458578643762692,20.1L23.958578643762692,20.1L23.458578643762692,19.6L17.958578643762692,19.6L17.458578643762692,19.1L16.958578643762692,19.1L16.458578643762692,18.6L15.45857864376269,18.6L14.929289321881345,18.070710678118655L15.070710678118655,17.929289321881345L15.54142135623731,18.4L16.541421356237308,18.4L17.041421356237308,18.9L17.541421356237308,18.9L18.041421356237308,19.4L23.541421356237308,19.4L24.041421356237308,19.9L24.541421356237308,19.9L26.041421356237308,21.4z" stroke="none"/><path d="M45.95857864376269,30.4L53.95857864376269,22.4L57.45857864376269,22.4L58.45857864376269,21.4L59.45857864376269,21.4L59.95857864376269,20.9L61.5,20.9L61.5,21.1L60.04142135623731,21.1L59.54142135623731,21.6L58.54142135623731,21.6L57.54142135623731,22.6L54.04142135623731,22.6L46.1,30.541421356237308L46.1,33.54142135623731L45.07071067811866,34.57071067811866L44.92928932188134,34.42928932188134L45.9,33.45857864376269L45.9,30.6L45.54142135623731,30.6L45.1,31.041421356237308L45.1,32.54142135623731L44.6,33.04142135623731L44.6,33.54142135623731L40.1,38.04142135623731L40.1,38.54142135623731L38.6,40.04142135623731L38.6,40.54142135623731L38.1,41.04142135623731L38.1,41.54142135623731L37.57071067811866,42.07071067811866L37.42928932188134,41.92928932188134L37.9,41.45857864376269L37.9,40.95857864376269L38.4,40.45857864376269L38.4,39.95857864376269L39.9,38.45857864376269L39.9,37.95857864376269L44.4,33.45857864376269L44.4,32.95857864376269L44.9,32.45857864376269L44.9,30.958578643762692L45.45857864376269,30.4z" stroke="none"/><path d="M19.958578643762692,79.9L20.458578643762692,79.4L21,79.4L21,79.6L20.541421356237308,79.6L20.041421356237308,80.1L15.6,80.1L15.6,80.45857864376269L18.6,83.45857864376269L18.6,83.95857864376269L20.6,85.95857864376269L20.6,86.45857864376269L21.070710678118655,86.92928932188134L20.929289321881345,87.07071067811866L20.4,86.54142135623731L20.4,86.04142135623731L18.4,84.04142135623731L18.4,83.54142135623731L15.4,80.54142135623731L15.4,80.1L10.95857864376269,80.1L10.429289321881345,79.57071067811866L10.570710678118655,79.42928932188134L11.04142135623731,79.9z" stroke="none"/><path d="M86.4,14.95857864376269L86.4,14.45857864376269L86.9,13.95857864376269L86.9,12.95857864376269L87.4,12.45857864376269L87.4,11.95857864376269L87.9,11.45857864376269L87.9,10.95857864376269L88.42928932188134,10.429289321881345L88.57071067811866,10.570710678118655L88.1,11.04142135623731L88.1,11.54142135623731L87.6,12.04142135623731L87.6,12.54142135623731L87.1,13.04142135623731L87.1,14.04142135623731L86.6,14.54142135623731L86.6,15.04142135623731L77.14142135623732,24.5L81.07071067811866,28.429289321881345L80.92928932188134,28.570710678118655L77,24.64142135623731L73.1,28.541421356237308L73.1,32.54142135623731L70.6,35.04142135623731L70.6,35.54142135623731L69.6,36.54142135623731L69.6,38.04142135623731L67.6,40.04142135623731L67.6,40.5L67.4,40.5L67.4,39.95857864376269L69.4,37.95857864376269L69.4,36.45857864376269L70.4,35.45857864376269L70.4,34.95857864376269L72.9,32.45857864376269L72.9,28.458578643762692z" stroke="none"/><path d="M34.9,86.45857864376269L34.9,85.95857864376269L35.4,85.45857864376269L35.4,78.95857864376269L35.9,78.45857864376269L35.9,76.5L36.1,76.5L36.1,78.54142135623731L35.6,79.04142135623731L35.6,85.54142135623731L35.1,86.04142135623731L35.1,86.54142135623731L31.14142135623731,90.5L33.1,92.45857864376269L33.1,99.95857864376269L34.1,100.95857864376269L34.1,101.45857864376269L34.57071067811866,101.92928932188134L34.42928932188134,102.07071067811866L33.9,101.54142135623731L33.9,101.04142135623731L32.9,100.04142135623731L32.9,92.54142135623731L31,90.64142135623732L30.6,91.04142135623731L30.6,92.04142135623731L30.1,92.54142135623731L30.1,93.04142135623731L29.6,93.54142135623731L29.6,95.54142135623731L29.1,96.04142135623731L29.1,97.04142135623731L28.6,97.54142135623731L28.6,99L28.4,99L28.4,97.45857864376269L28.9,96.95857864376269L28.9,95.95857864376269L29.4,95.45857864376269L29.4,93.45857864376269L29.9,92.95857864376269L29.9,92.45857864376269L30.4,91.95857864376269L30.4,90.95857864376269z" stroke="none"/><path d="M22.4,86.95857864376269L22.4,81.04142135623731L21.9,80.54142135623731L21.9,79.04142135623731L14.929289321881345,72.07071067811866L15.070710678118655,71.92928932188134L22.1,78.95857864376269L22.1,80.45857864376269L22.6,80.95857864376269L22.6,87.95857864376269L23.1,88.45857864376269L23.1,88.95857864376269L23.6,89.45857864376269L23.6,90.95857864376269L24.1,91.45857864376269L24.1,91.95857864376269L24.6,92.45857864376269L24.6,92.95857864376269L25.1,93.45857864376269L25.1,94.45857864376269L25.6,94.95857864376269L25.6,95.95857864376269L26.1,96.45857864376269L26.1,96.95857864376269L26.6,97.45857864376269L26.6,97.95857864376269L27.1,98.45857864376269L27.1,98.95857864376269L28.041421356237308,99.9L29.041421356237308,99.9L30.041421356237308,100.9L30.541421356237308,100.9L31.541421356237308,101.9L32.04142135623731,101.9L32.54142135623731,102.4L33.54142135623731,102.4L34.04142135623731,102.9L37.45857864376269,102.9L38.95857864376269,101.4L40.45857864376269,101.4L40.95857864376269,100.9L41.45857864376269,100.9L41.92928932188134,100.42928932188134L42.07071067811866,100.57071067811866L41.54142135623731,101.1L41.04142135623731,101.1L40.54142135623731,101.6L39.04142135623731,101.6L37.54142135623731,103.1L33.95857864376269,103.1L33.45857864376269,102.6L32.45857864376269,102.6L31.958578643762692,102.1L31.458578643762692,102.1L30.458578643762692,101.1L29.958578643762692,101.1L28.958578643762692,100.1L27.958578643762692,100.1L26.9,99.04142135623731L26.9,98.54142135623731L26.4,98.04142135623731L26.4,97.54142135623731L25.9,97.04142135623731L25.9,96.54142135623731L25.4,96.04142135623731L25.4,95.04142135623731L24.9,94.54142135623731L24.9,93.54142135623731L24.4,93.04142135623731L24.4,92.54142135623731L23.9,92.04142135623731L23.9,91.54142135623731L23.4,91.04142135623731L23.4,89.54142135623731L22.9,89.04142135623731L22.9,88.54142135623731L22.4,88.04142135623731L22.4,87.24142135623731L20.1,89.54142135623731L20.1,90.04142135623731L19.1,91.04142135623731L19.1,91.54142135623731L18.6,92.04142135623731L18.6,92.54142135623731L16.570710678118655,94.57071067811866L16.429289321881345,94.42928932188134L18.4,92.45857864376269L18.4,91.95857864376269L18.9,91.45857864376269L18.9,90.95857864376269L19.9,89.95857864376269L19.9,89.45857864376269z" stroke="none"/><path d="M75.54142135623731,45.4L76.04142135623731,45.9L77.04142135623731,45.9L78.04142135623731,46.9L84.04142135623731,46.9L85.04142135623731,47.9L85.5,47.9L85.5,48.1L84.95857864376269,48.1L83.95857864376269,47.1L77.95857864376269,47.1L76.95857864376269,46.1L75.95857864376269,46.1L75.45857864376269,45.6L75.1,45.6L75.1,45.95857864376269L80.04142135623731,50.9L80.54142135623731,50.9L81.54142135623731,51.9L83.04142135623731,51.9L83.54142135623731,52.4L85.5,52.4L85.5,52.6L83.45857864376269,52.6L82.95857864376269,52.1L81.45857864376269,52.1L80.45857864376269,51.1L79.95857864376269,51.1L74.9,46.04142135623731L74.9,45.6L73.45857864376269,45.6L72.95857864376269,45.1L71.45857864376269,45.1L70.95857864376269,44.6L67.45857864376269,44.6L66.95857864376269,44.1L63.45857864376269,44.1L61.95857864376269,42.6L60.45857864376269,42.6L59.92928932188134,42.07071067811866L60.07071067811866,41.92928932188134L60.54142135623731,42.4L62.04142135623731,42.4L63.54142135623731,43.9L67.04142135623731,43.9L67.54142135623731,44.4L71.04142135623731,44.4L71.54142135623731,44.9L73.04142135623731,44.9L73.54142135623731,45.4z" stroke="none"/><path d="M13.9,81.4L13.9,81.04142135623731L13.45857864376269,80.6L9.95857864376269,80.6L9.4,80.04142135623731L9.4,67.54142135623731L8.9,67.04142135623731L8.9,66L9.1,66L9.1,66.95857864376269L9.6,67.45857864376269L9.6,79.95857864376269L10.04142135623731,80.4L13.54142135623731,80.4L14.1,80.95857864376269L14.1,83.95857864376269L14.6,84.45857864376269L14.6,84.95857864376269L15.1,85.45857864376269L15.1,88.45857864376269L16.6,89.95857864376269L16.6,93L16.4,93L16.4,90.04142135623731L14.9,88.54142135623731L14.9,85.54142135623731L14.4,85.04142135623731L14.4,84.54142135623731L13.9,84.04142135623731L13.9,81.6L13.54142135623731,81.6L13.1,82.04142135623731L13.1,92.45857864376269L16.041421356237308,95.4L16.958578643762692,95.4L19.958578643762692,92.4L20.458578643762692,92.4L20.958578643762692,91.9L21.458578643762692,91.9L21.958578643762692,91.4L22.5,91.4L22.5,91.6L22.041421356237308,91.6L21.541421356237308,92.1L21.041421356237308,92.1L20.541421356237308,92.6L20.041421356237308,92.6L17.041421356237308,95.6L15.95857864376269,95.6L12.9,92.54142135623731L12.9,81.95857864376269L13.45857864376269,81.4z" stroke="none"/><path d="M90.45857864376269,37.4L99.9,27.958578643762692L99.9,27.458578643762692L100.42928932188134,26.929289321881345L100.57071067811866,27.070710678118655L100.1,27.541421356237308L100.1,28.041421356237308L90.64142135623732,37.5L92.1,38.95857864376269L92.1,40.95857864376269L92.6,41.45857864376269L92.6,42.45857864376269L93.1,42.95857864376269L93.1,45.45857864376269L93.6,45.95857864376269L93.6,46.95857864376269L94.1,47.45857864376269L94.1,49.45857864376269L95.6,50.95857864376269L95.6,51.45857864376269L99.1,54.95857864376269L99.1,55.5L98.9,55.5L98.9,55.04142135623731L95.4,51.54142135623731L95.4,51.04142135623731L93.9,49.54142135623731L93.9,47.54142135623731L93.4,47.04142135623731L93.4,46.04142135623731L92.9,45.54142135623731L92.9,43.04142135623731L92.4,42.54142135623731L92.4,41.54142135623731L91.9,41.04142135623731L91.9,39.04142135623731L90.45857864376269,37.6L88.45857864376269,37.6L87.45857864376269,36.6L84.95857864376269,36.6L84.45857864376269,36.1L78,36.1L78,35.9L84.54142135623731,35.9L85.04142135623731,36.4L87.54142135623731,36.4L88.54142135623731,37.4z" stroke="none"/><path d="M90.4,20.958578643762692L90.4,18.541421356237308L89.92928932188134,18.070710678118655L90.07071067811866,17.929289321881345L90.6,18.458578643762692L90.6,20.9L93.45857864376269,20.9L94.45857864376269,19.9L94.95857864376269,19.9L95.45857864376269,19.4L99,19.4L99,19.6L95.54142135623731,19.6L95.04142135623731,20.1L94.54142135623731,20.1L93.54142135623731,21.1L90.6,21.1L90.6,21.458578643762692L94.6,25.458578643762692L94.6,26.958578643762692L95.1,27.458578643762692L95.1,27.958578643762692L96.1,28.958578643762692L96.1,30L95.9,30L95.9,29.041421356237308L94.9,28.041421356237308L94.9,27.541421356237308L94.4,27.041421356237308L94.4,25.541421356237308L90.4,21.541421356237308L90.4,21.24142135623731L86.04142135623731,25.6L85.5,25.6L85.5,25.4L85.95857864376269,25.4z" stroke="none"/><path d="M44.4,66.4L44.4,65.95857864376269L44.9,65.45857864376269L44.9,64.95857864376269L45.4,64.45857864376269L45.4,62.95857864376269L45.9,62.45857864376269L45.9,60.95857864376269L46.9,59.95857864376269L46.9,55.95857864376269L48.9,53.95857864376269L48.9,53.45857864376269L49.4,52.95857864376269L49.4,52.45857864376269L50.92928932188134,50.92928932188134L51.07071067811866,51.07071067811866L49.6,52.54142135623731L49.6,53.04142135623731L49.1,53.54142135623731L49.1,54.04142135623731L47.1,56.04142135623731L47.1,60.04142135623731L46.1,61.04142135623731L46.1,62.54142135623731L45.6,63.04142135623731L45.6,64.54142135623731L45.1,65.04142135623731L45.1,65.54142135623731L44.6,66.04142135623731L44.6,66.4L45.04142135623731,66.4L49.1,70.45857864376269L49.1,70.95857864376269L49.6,71.45857864376269L49.6,73.45857864376269L50.1,73.95857864376269L50.1,74.95857864376269L50.6,75.45857864376269L50.6,76.95857864376269L52.1,78.45857864376269L52.1,78.95857864376269L52.57071067811866,79.42928932188134L52.42928932188134,79.57071067811866L51.9,79.04142135623731L51.9,78.54142135623731L50.4,77.04142135623731L50.4,75.54142135623731L49.9,75.04142135623731L49.9,74.04142135623731L49.4,73.54142135623731L49.4,71.54142135623731L48.9,71.04142135623731L48.9,70.54142135623731L44.95857864376269,66.6L44.6,66.6L44.6,68.45857864376269L45.1,68.95857864376269L45.1,70.5L44.9,70.5L44.9,69.04142135623731L44.4,68.54142135623731L44.4,66.6L43.04142135623731,66.6L41.6,68.04142135623731L41.6,69.04142135623731L41.1,69.54142135623731L41.1,70.04142135623731L40.6,70.54142135623731L40.6,71.04142135623731L40.1,71.54142135623731L40.1,72.54142135623731L39.07071067811866,73.57071067811866L38.92928932188134,73.42928932188134L39.9,72.45857864376269L39.9,71.45857864376269L40.4,70.95857864376269L40.4,70.45857864376269L40.9,69.95857864376269L40.9,69.45857864376269L41.4,68.95857864376269L41.4,67.95857864376269L42.95857864376269,66.4z" stroke="none"/><path d="M10.9,15.9L10.9,15.45857864376269L11.45857864376269,14.9L16.541421356237308,14.9L17.541421356237308,15.9L18.458578643762692,15.9L18.958578643762692,15.4L28.041421356237308,15.4L29.041421356237308,16.4L30,16.4L30,16.6L28.958578643762692,16.6L27.958578643762692,15.6L19.041421356237308,15.6L18.541421356237308,16.1L17.458578643762692,16.1L16.458578643762692,15.1L11.54142135623731,15.1L11.1,15.54142135623731L11.1,15.9L11.54142135623731,15.9L12.1,16.458578643762692L12.1,17.541421356237308L11.1,18.541421356237308L11.1,20.541421356237308L10.6,21.041421356237308L10.6,22.5L10.4,22.5L10.4,20.958578643762692L10.9,20.458578643762692L10.9,18.458578643762692L11.9,17.458578643762692L11.9,16.541421356237308L11.45857864376269,16.1L11.1,16.1L11.1,16.541421356237308L10.54142135623731,17.1L10.04142135623731,17.1L9.04142135623731,18.1L8.54142135623731,18.1L8.04142135623731,18.6L6.95857864376269,18.6L4.95857864376269,16.6L4.5,16.6L4.5,16.4L5.04142135623731,16.4L7.04142135623731,18.4L7.95857864376269,18.4L8.45857864376269,17.9L8.95857864376269,17.9L9.95857864376269,16.9L10.45857864376269,16.9L10.9,16.458578643762692L10.9,16.1L10.04142135623731,16.1L8.54142135623731,17.6L8.04142135623731,17.6L7.570710678118655,18.070710678118655L7.429289321881345,17.929289321881345L7.95857864376269,17.4L8.45857864376269,17.4L9.95857864376269,15.9z" stroke="none"/><path d="M56.9,54.4L56.9,53.95857864376269L57.45857864376269,53.4L63.45857864376269,53.4L68.92928932188134,47.92928932188134L69.07071067811866,48.07071067811866L63.54142135623731,53.6L57.54142135623731,53.6L57.1,54.04142135623731L57.1,54.4L57.54142135623731,54.4L58.54142135623731,55.4L59.04142135623731,55.4L59.54142135623731,55.9L61.04142135623731,55.9L61.54142135623731,56.4L67.54142135623731,56.4L68.04142135623731,56.9L69,56.9L69,57.1L67.95857864376269,57.1L67.45857864376269,56.6L61.45857864376269,56.6L60.95857864376269,56.1L59.45857864376269,56.1L58.95857864376269,55.6L58.45857864376269,55.6L57.45857864376269,54.6L57.1,54.6L57.1,54.95857864376269L58.1,55.95857864376269L58.1,56.95857864376269L58.6,57.45857864376269L58.6,58.5L58.4,58.5L58.4,57.54142135623731L57.9,57.04142135623731L57.9,56.04142135623731L56.9,55.04142135623731L56.9,54.6L56.45857864376269,54.6L51.95857864376269,50.1L50.54142135623731,50.1L48.6,52.04142135623731L48.6,53.54142135623731L42.6,59.54142135623731L42.6,60.54142135623731L41.1,62.04142135623731L41.1,62.54142135623731L40.57071067811866,63.07071067811866L40.42928932188134,62.92928932188134L40.9,62.45857864376269L40.9,61.95857864376269L42.4,60.45857864376269L42.4,59.45857864376269L48.4,53.45857864376269L48.4,51.95857864376269L50.45857864376269,49.9L52.04142135623731,49.9L56.54142135623731,54.4z" stroke="none"/><path d="M14.9,30.9L14.9,22.541421356237308L14.4,22.041421356237308L14.4,21.541421356237308L12.9,20.041421356237308L12.9,19.541421356237308L12.4,19.041421356237308L12.4,17.458578643762692L12.95857864376269,16.9L16.541421356237308,16.9L17.041421356237308,17.4L28.041421356237308,17.4L29.041421356237308,18.4L30.541421356237308,18.4L31.1,18.958578643762692L31.1,23.458578643762692L31.570710678118655,23.929289321881345L31.429289321881345,24.070710678118655L30.9,23.541421356237308L30.9,19.041421356237308L30.458578643762692,18.6L28.958578643762692,18.6L27.958578643762692,17.6L16.958578643762692,17.6L16.458578643762692,17.1L13.04142135623731,17.1L12.6,17.541421356237308L12.6,18.958578643762692L13.1,19.458578643762692L13.1,19.958578643762692L14.6,21.458578643762692L14.6,21.958578643762692L15.1,22.458578643762692L15.1,30.9L23.541421356237308,30.9L24.070710678118655,31.429289321881345L23.929289321881345,31.570710678118655L23.458578643762692,31.1L15.1,31.1L15.1,31.541421356237308L7.6,39.04142135623731L7.6,39.54142135623731L7.1,40.04142135623731L7.1,40.54142135623731L6.6,41.04142135623731L6.6,42.04142135623731L6.1,42.54142135623731L6.1,43.04142135623731L3.1,46.04142135623731L3.1,46.5L2.9,46.5L2.9,45.95857864376269L5.9,42.95857864376269L5.9,42.45857864376269L6.4,41.95857864376269L6.4,40.95857864376269L6.9,40.45857864376269L6.9,39.95857864376269L7.4,39.45857864376269L7.4,38.95857864376269L14.9,31.458578643762692L14.9,31.1L12.04142135623731,31.1L11.54142135623731,31.6L10.5,31.6L10.5,31.4L11.45857864376269,31.4L11.95857864376269,30.9z" stroke="none"/><path d="M72.4,95.9L72.4,95.45857864376269L73.45857864376269,94.4L73.95857864376269,94.4L74.45857864376269,93.9L80.45857864376269,93.9L81.95857864376269,92.4L84.54142135623731,92.4L85.1,92.95857864376269L85.1,95.45857864376269L85.6,95.95857864376269L85.6,96.45857864376269L86.1,96.95857864376269L86.1,98.95857864376269L86.6,99.45857864376269L86.6,101.45857864376269L87.07071067811866,101.92928932188134L86.92928932188134,102.07071067811866L86.4,101.54142135623731L86.4,99.54142135623731L85.9,99.04142135623731L85.9,97.04142135623731L85.4,96.54142135623731L85.4,96.04142135623731L84.9,95.54142135623731L84.9,93.04142135623731L84.45857864376269,92.6L82.04142135623731,92.6L80.54142135623731,94.1L74.54142135623731,94.1L74.04142135623731,94.6L73.54142135623731,94.6L72.6,95.54142135623731L72.6,95.9L73.45857864376269,95.9L74.95857864376269,94.4L81.45857864376269,94.4L82.95857864376269,92.9L84,92.9L84,93.1L83.04142135623731,93.1L81.54142135623731,94.6L75.04142135623731,94.6L73.54142135623731,96.1L72.6,96.1L72.6,96.54142135623731L72.04142135623731,97.1L70.04142135623731,97.1L69.54142135623731,97.6L67.04142135623731,97.6L62.54142135623731,102.1L61.5,102.1L61.5,101.9L62.45857864376269,101.9L66.95857864376269,97.4L69.45857864376269,97.4L69.95857864376269,96.9L71.95857864376269,96.9L72.4,96.45857864376269L72.4,96.1L66,96.1L66,95.9z" stroke="none"/><path d="M60.04142135623731,39.9L61.04142135623731,39.9L61.54142135623731,40.4L62.04142135623731,40.4L62.54142135623731,40.9L64.54142135623731,40.9L65.04142135623731,41.4L67.04142135623731,41.4L67.57071067811866,41.92928932188134L67.42928932188134,42.07071067811866L66.95857864376269,41.6L64.95857864376269,41.6L64.45857864376269,41.1L62.45857864376269,41.1L61.95857864376269,40.6L61.45857864376269,40.6L60.95857864376269,40.1L60.04142135623731,40.1L59.1,41.04142135623731L59.1,42.45857864376269L60.04142135623731,43.4L61.04142135623731,43.4L61.54142135623731,43.9L62.04142135623731,43.9L62.54142135623731,44.4L64.04142135623731,44.4L64.57071067811866,44.92928932188134L64.42928932188134,45.07071067811866L63.95857864376269,44.6L62.45857864376269,44.6L61.95857864376269,44.1L61.45857864376269,44.1L60.95857864376269,43.6L59.95857864376269,43.6L58.9,42.54142135623731L58.9,40.95857864376269L59.75857864376269,40.1L59.04142135623731,40.1L58.6,40.54142135623731L58.6,45.95857864376269L59.1,46.45857864376269L59.1,46.95857864376269L62.1,49.95857864376269L62.1,50.45857864376269L63.1,51.45857864376269L63.1,52.5L62.9,52.5L62.9,51.54142135623731L61.9,50.54142135623731L61.9,50.04142135623731L58.9,47.04142135623731L58.9,46.54142135623731L58.4,46.04142135623731L58.4,40.45857864376269L58.95857864376269,39.9L59.75857864376269,39.9L56.9,37.04142135623731L56.9,35.54142135623731L54.9,33.54142135623731L54.9,32.04142135623731L54.4,31.541421356237308L54.4,30.541421356237308L53.92928932188134,30.070710678118655L54.07071067811866,29.929289321881345L54.6,30.458578643762692L54.6,31.458578643762692L55.1,31.958578643762692L55.1,33.45857864376269L57.1,35.45857864376269L57.1,36.95857864376269z" stroke="none"/><path d="M42.9,92.4L42.9,91.95857864376269L45.4,89.45857864376269L45.4,88.95857864376269L46.4,87.95857864376269L46.4,87.45857864376269L46.9,86.95857864376269L46.9,85.95857864376269L47.9,84.95857864376269L47.9,84.45857864376269L48.9,83.45857864376269L48.9,82.95857864376269L49.4,82.45857864376269L49.4,81L49.6,81L49.6,82.54142135623731L49.1,83.04142135623731L49.1,83.54142135623731L48.1,84.54142135623731L48.1,85.04142135623731L47.1,86.04142135623731L47.1,87.04142135623731L46.6,87.54142135623731L46.6,88.04142135623731L45.6,89.04142135623731L45.6,89.54142135623731L43.1,92.04142135623731L43.1,92.4L46.04142135623731,92.4L47.04142135623731,93.4L48.04142135623731,93.4L48.54142135623731,93.9L53.54142135623731,93.9L54.04142135623731,94.4L55.5,94.4L55.5,94.6L53.95857864376269,94.6L53.45857864376269,94.1L48.45857864376269,94.1L47.95857864376269,93.6L46.95857864376269,93.6L45.95857864376269,92.6L43.1,92.6L43.1,93.95857864376269L47.1,97.95857864376269L47.1,98.95857864376269L48.1,99.95857864376269L48.1,100.5L47.9,100.5L47.9,100.04142135623731L46.9,99.04142135623731L46.9,98.04142135623731L42.9,94.04142135623731L42.9,92.6L42.54142135623731,92.6L42.1,93.04142135623731L42.1,98.95857864376269L43.1,99.95857864376269L43.1,101.04142135623731L42.04142135623731,102.1L41.54142135623731,102.1L41.04142135623731,102.6L40.54142135623731,102.6L40.04142135623731,103.1L39.54142135623731,103.1L39.04142135623731,103.6L31.958578643762692,103.6L31.458578643762692,103.1L30.958578643762692,103.1L30.458578643762692,102.6L29.458578643762692,102.6L28.958578643762692,102.1L28.5,102.1L28.5,101.9L29.041421356237308,101.9L29.541421356237308,102.4L30.541421356237308,102.4L31.041421356237308,102.9L31.541421356237308,102.9L32.04142135623731,103.4L38.95857864376269,103.4L39.45857864376269,102.9L39.95857864376269,102.9L40.45857864376269,102.4L40.95857864376269,102.4L41.45857864376269,101.9L41.95857864376269,101.9L42.9,100.95857864376269L42.9,100.04142135623731L41.9,99.04142135623731L41.9,92.95857864376269L42.45857864376269,92.4z" stroke="none"/><path d="M78.4,75.75857864376269L78.4,75.45857864376269L78.95857864376269,74.9L94.04142135623731,74.9L95.1,75.95857864376269L95.1,81.54142135623731L93.1,83.54142135623731L93.1,84L92.9,84L92.9,83.45857864376269L94.9,81.45857864376269L94.9,76.04142135623731L93.95857864376269,75.1L79.04142135623731,75.1L78.6,75.54142135623731L78.6,75.9L93.54142135623731,75.9L94.04142135623731,76.4L94.5,76.4L94.5,76.6L93.95857864376269,76.6L93.45857864376269,76.1L78.6,76.1L78.6,76.45857864376269L79.1,76.95857864376269L79.1,78.54142135623731L77.54142135623731,80.1L76.04142135623731,80.1L72.54142135623731,83.6L72.04142135623731,83.6L71.54142135623731,84.1L70.54142135623731,84.1L67.57071067811866,87.07071067811866L67.42928932188134,86.92928932188134L70.45857864376269,83.9L71.45857864376269,83.9L71.95857864376269,83.4L72.45857864376269,83.4L75.95857864376269,79.9L77.45857864376269,79.9L78.9,78.45857864376269L78.9,77.04142135623731L78.4,76.54142135623731L78.4,76.04142135623731L68.95857864376269,66.6L68.45857864376269,66.6L67.95857864376269,66.1L67.5,66.1L67.5,65.9L68.04142135623731,65.9L68.54142135623731,66.4L69.04142135623731,66.4z" stroke="none"/><path d="M57.95857864376269,23.4L60.45857864376269,23.4L62.4,21.458578643762692L62.4,20.541421356237308L61.95857864376269,20.1L43.95857864376269,20.1L42.95857864376269,19.1L42.45857864376269,19.1L41.95857864376269,18.6L40.95857864376269,18.6L40.42928932188134,18.070710678118655L40.57071067811866,17.929289321881345L41.04142135623731,18.4L42.04142135623731,18.4L42.54142135623731,18.9L43.04142135623731,18.9L44.04142135623731,19.9L62.04142135623731,19.9L62.6,20.458578643762692L62.6,21.541421356237308L60.54142135623731,23.6L58.04142135623731,23.6L55.24142135623731,26.4L55.95857864376269,26.4L56.45857864376269,25.9L56.95857864376269,25.9L57.95857864376269,24.9L59.45857864376269,24.9L59.95857864376269,24.4L60.45857864376269,24.4L63.4,21.458578643762692L63.4,20.958578643762692L63.9,20.458578643762692L63.9,19.958578643762692L65.9,17.958578643762692L65.9,17.458578643762692L68.4,14.95857864376269L68.4,14.45857864376269L68.9,13.95857864376269L68.9,13.5L69.1,13.5L69.1,14.04142135623731L68.6,14.54142135623731L68.6,15.04142135623731L66.1,17.541421356237308L66.1,18.041421356237308L64.1,20.041421356237308L64.1,20.541421356237308L63.6,21.041421356237308L63.6,21.541421356237308L60.54142135623731,24.6L60.04142135623731,24.6L59.54142135623731,25.1L58.04142135623731,25.1L57.04142135623731,26.1L56.54142135623731,26.1L56.04142135623731,26.6L55.1,26.6L55.1,26.958578643762692L55.54142135623731,27.4L55.95857864376269,27.4L56.45857864376269,26.9L56.95857864376269,26.9L57.45857864376269,26.4L58.45857864376269,26.4L58.95857864376269,25.9L59.45857864376269,25.9L60.45857864376269,24.9L61.95857864376269,24.9L62.45857864376269,24.4L63.95857864376269,24.4L64.95857864376269,23.4L67.45857864376269,23.4L67.95857864376269,22.9L68.45857864376269,22.9L79.95857864376269,11.4L80.95857864376269,11.4L81.45857864376269,10.9L81.95857864376269,10.9L82.45857864376269,10.4L84.95857864376269,10.4L85.95857864376269,9.4L89.04142135623731,9.4L89.6,9.95857864376269L89.6,11.04142135623731L88.6,12.04142135623731L88.6,12.54142135623731L88.1,13.04142135623731L88.1,13.54142135623731L87.6,14.04142135623731L87.6,14.54142135623731L87.1,15.04142135623731L87.1,15.54142135623731L84.6,18.041421356237308L84.6,18.541421356237308L84.1,19.041421356237308L84.1,19.541421356237308L83.6,20.041421356237308L83.6,21.041421356237308L83.1,21.541421356237308L83.1,23.041421356237308L82.6,23.541421356237308L82.6,25.541421356237308L82.1,26.041421356237308L82.1,29.041421356237308L71.04142135623731,40.1L69.54142135623731,40.1L69.07071067811866,40.57071067811866L68.92928932188134,40.42928932188134L69.45857864376269,39.9L70.95857864376269,39.9L81.9,28.958578643762692L81.9,25.958578643762692L82.4,25.458578643762692L82.4,23.458578643762692L82.9,22.958578643762692L82.9,21.458578643762692L83.4,20.958578643762692L83.4,19.958578643762692L83.9,19.458578643762692L83.9,18.958578643762692L84.4,18.458578643762692L84.4,17.958578643762692L86.9,15.45857864376269L86.9,14.95857864376269L87.4,14.45857864376269L87.4,13.95857864376269L87.9,13.45857864376269L87.9,12.95857864376269L88.4,12.45857864376269L88.4,11.95857864376269L89.4,10.95857864376269L89.4,10.04142135623731L88.95857864376269,9.6L86.04142135623731,9.6L85.04142135623731,10.6L82.54142135623731,10.6L82.04142135623731,11.1L81.54142135623731,11.1L81.04142135623731,11.6L80.04142135623731,11.6L68.54142135623731,23.1L68.04142135623731,23.1L67.54142135623731,23.6L65.04142135623731,23.6L64.04142135623731,24.6L62.54142135623731,24.6L62.04142135623731,25.1L60.54142135623731,25.1L59.54142135623731,26.1L59.04142135623731,26.1L58.54142135623731,26.6L57.54142135623731,26.6L57.04142135623731,27.1L56.54142135623731,27.1L56.04142135623731,27.6L55.45857864376269,27.6L54.9,27.041421356237308L54.9,26.74142135623731L53.1,28.541421356237308L53.1,33.04142135623731L52.6,33.54142135623731L52.6,34.04142135623731L51.6,35.04142135623731L51.6,35.54142135623731L51.1,36.04142135623731L51.1,36.54142135623731L50.6,37.04142135623731L50.6,39.54142135623731L50.1,40.04142135623731L50.1,41.54142135623731L49.57071067811866,42.07071067811866L49.42928932188134,41.92928932188134L49.9,41.45857864376269L49.9,39.95857864376269L50.4,39.45857864376269L50.4,36.95857864376269L50.9,36.45857864376269L50.9,35.95857864376269L51.4,35.45857864376269L51.4,34.95857864376269L52.4,33.95857864376269L52.4,33.45857864376269L52.9,32.95857864376269L52.9,28.458578643762692z" stroke="none"/><path d="M68.92928932188134,5.929289321881345L69.07071067811866,6.070710678118655L66.07071067811866,9.070710678118655L65.92928932188134,8.929289321881345z" stroke="none"/><path d="M102.1,48L101.9,48L101.9,43.5L102.1,43.5z" stroke="none"/><path d="M86.9,97.5L87.1,97.5L87.1,99.95857864376269L88.1,100.95857864376269L88.1,102.54142135623731L87.54142135623731,103.1L86.45857864376269,103.1L85.42928932188134,102.07071067811866L85.57071067811866,101.92928932188134L86.54142135623731,102.9L87.45857864376269,102.9L87.9,102.45857864376269L87.9,101.04142135623731L86.9,100.04142135623731z" stroke="none"/><path d="M97.42928932188134,16.570710678118655L97.57071067811866,16.429289321881345L100.1,18.958578643762692L100.1,20.041421356237308L99.07071067811866,21.070710678118655L98.92928932188134,20.929289321881345L99.9,19.958578643762692L99.9,19.041421356237308z" stroke="none"/><path d="M10.429289321881345,59.92928932188134L10.570710678118655,60.07071067811866L9.1,61.54142135623731L9.1,62.04142135623731L8.1,63.04142135623731L8.1,64.04142135623731L7.570710678118655,64.57071067811866L7.429289321881345,64.42928932188134L7.9,63.95857864376269L7.9,62.95857864376269L8.9,61.95857864376269L8.9,61.45857864376269z" stroke="none"/><path d="M35.92928932188134,19.570710678118655L36.07071067811866,19.429289321881345L36.54142135623731,19.9L37.04142135623731,19.9L38.04142135623731,20.9L38.54142135623731,20.9L40.04142135623731,22.4L40.5,22.4L40.5,22.6L39.95857864376269,22.6L38.45857864376269,21.1L37.95857864376269,21.1L36.95857864376269,20.1L36.45857864376269,20.1z" stroke="none"/><path d="M49.4,66L49.6,66L49.6,68.95857864376269L50.6,69.95857864376269L50.6,72.95857864376269L51.1,73.45857864376269L51.1,73.95857864376269L52.1,74.95857864376269L52.1,76.95857864376269L53.6,78.45857864376269L53.6,80.04142135623731L53.04142135623731,80.6L51.95857864376269,80.6L46.9,75.54142135623731L46.9,75.04142135623731L45.9,74.04142135623731L45.9,73.04142135623731L43.9,71.04142135623731L43.9,68.54142135623731L43.4,68.04142135623731L43.4,67.5L43.6,67.5L43.6,67.95857864376269L44.1,68.45857864376269L44.1,70.95857864376269L46.1,72.95857864376269L46.1,73.95857864376269L47.1,74.95857864376269L47.1,75.45857864376269L52.04142135623731,80.4L52.95857864376269,80.4L53.4,79.95857864376269L53.4,78.54142135623731L51.9,77.04142135623731L51.9,75.04142135623731L50.9,74.04142135623731L50.9,73.54142135623731L50.4,73.04142135623731L50.4,70.04142135623731L49.4,69.04142135623731z" stroke="none"/><path d="M16.5,13.4L16.5,13.6L14.95857864376269,13.6L13.45857864376269,12.1L10.5,12.1L10.5,11.9L13.54142135623731,11.9L15.04142135623731,13.4z" stroke="none"/><path d="M19.6,102L19.4,102L19.4,101.04142135623731L18.9,100.54142135623731L18.9,100.04142135623731L17.9,99.04142135623731L17.9,96L18.1,96L18.1,98.95857864376269L19.1,99.95857864376269L19.1,100.45857864376269L19.6,100.95857864376269z" stroke="none"/><path d="M94.42928932188134,5.929289321881345L94.57071067811866,6.070710678118655L93.1,7.54142135623731L93.1,8.54142135623731L92.6,9.04142135623731L92.6,9.54142135623731L92.1,10.04142135623731L92.1,11.54142135623731L91.57071067811866,12.070710678118655L91.42928932188134,11.929289321881345L91.9,11.45857864376269L91.9,9.95857864376269L92.4,9.45857864376269L92.4,8.95857864376269L92.9,8.45857864376269L92.9,7.45857864376269z" stroke="none"/><path d="M83.9,99L84.1,99L84.1,101.95857864376269L85.04142135623731,102.9L85.54142135623731,102.9L86.04142135623731,103.4L87.95857864376269,103.4L89.45857864376269,101.9L90,101.9L90,102.1L89.54142135623731,102.1L88.04142135623731,103.6L85.95857864376269,103.6L85.45857864376269,103.1L84.95857864376269,103.1L83.9,102.04142135623731z" stroke="none"/><path d="M34.5,13.4L34.5,13.6L33.45857864376269,13.6L32.45857864376269,12.6L31.958578643762692,12.6L30.958578643762692,11.6L29.458578643762692,11.6L28.429289321881345,10.570710678118655L28.570710678118655,10.429289321881345L29.541421356237308,11.4L31.041421356237308,11.4L32.04142135623731,12.4L32.54142135623731,12.4L33.54142135623731,13.4z" stroke="none"/><path d="M19.5,37.4L19.5,37.6L12,37.6L12,37.4z" stroke="none"/><path d="M61.42928932188134,67.42928932188134L61.57071067811866,67.57071067811866L58.1,71.04142135623731L58.1,72.04142135623731L57.6,72.54142135623731L57.6,73.04142135623731L57.07071067811866,73.57071067811866L56.92928932188134,73.42928932188134L57.4,72.95857864376269L57.4,72.45857864376269L57.9,71.95857864376269L57.9,70.95857864376269z" stroke="none"/><path d="M12.1,76.5L11.9,76.5L11.9,69.54142135623731L10.9,68.54142135623731L10.9,68.04142135623731L10.4,67.54142135623731L10.4,66.04142135623731L9.45857864376269,65.1L8.54142135623731,65.1L8.1,65.54142135623731L8.1,69.04142135623731L7.6,69.54142135623731L7.6,71.04142135623731L7.1,71.54142135623731L7.1,72.04142135623731L4.6,74.54142135623731L4.6,75L4.4,75L4.4,74.45857864376269L6.9,71.95857864376269L6.9,71.45857864376269L7.4,70.95857864376269L7.4,69.45857864376269L7.9,68.95857864376269L7.9,65.45857864376269L8.45857864376269,64.9L9.54142135623731,64.9L10.6,65.95857864376269L10.6,67.45857864376269L11.1,67.95857864376269L11.1,68.45857864376269L12.1,69.45857864376269z" stroke="none"/><path d="M33.07071067811866,62.92928932188134L32.92928932188134,63.07071067811866L31.958578643762692,62.1L31.458578643762692,62.1L30.458578643762692,61.1L28.958578643762692,61.1L27.958578643762692,60.1L27.458578643762692,60.1L26.958578643762692,59.6L26.458578643762692,59.6L25.429289321881345,58.57071067811866L25.570710678118655,58.42928932188134L26.541421356237308,59.4L27.041421356237308,59.4L27.541421356237308,59.9L28.041421356237308,59.9L29.041421356237308,60.9L30.541421356237308,60.9L31.541421356237308,61.9L32.04142135623731,61.9z" stroke="none"/><path d="M19.5,16.6L19.5,16.4L28.041421356237308,16.4L29.041421356237308,17.4L30.458578643762692,17.4L30.9,16.958578643762692L30.9,16.041421356237308L29.958578643762692,15.1L28.458578643762692,15.1L22.958578643762692,9.6L22.458578643762692,9.6L20.958578643762692,8.1L19.958578643762692,8.1L19.429289321881345,7.570710678118655L19.570710678118655,7.429289321881345L20.041421356237308,7.9L21.041421356237308,7.9L22.541421356237308,9.4L23.041421356237308,9.4L28.541421356237308,14.9L30.041421356237308,14.9L31.1,15.95857864376269L31.1,17.041421356237308L30.541421356237308,17.6L28.958578643762692,17.6L27.958578643762692,16.6z" stroke="none"/><path d="M12,53.9L12,54.1L3,54.1L3,53.9z" stroke="none"/><path d="M98.9,64.5L99.1,64.5L99.1,65.04142135623731L98.6,65.54142135623731L98.6,66.54142135623731L98.1,67.04142135623731L98.1,70.54142135623731L97.6,71.04142135623731L97.6,73.5L97.4,73.5L97.4,70.95857864376269L97.9,70.45857864376269L97.9,66.95857864376269L98.4,66.45857864376269L98.4,65.45857864376269L98.9,64.95857864376269z" stroke="none"/><path d="M6.1,51L5.9,51L5.9,47.95857864376269L6.9,46.95857864376269L6.9,46.45857864376269L7.4,45.95857864376269L7.4,45.45857864376269L8.9,43.95857864376269L8.9,42L9.1,42L9.1,44.04142135623731L7.6,45.54142135623731L7.6,46.04142135623731L7.1,46.54142135623731L7.1,47.04142135623731L6.1,48.04142135623731z" stroke="none"/><path d="M4.4,70.5L4.6,70.5L4.6,71.54142135623731L4.1,72.04142135623731L4.1,73.04142135623731L3.6,73.54142135623731L3.6,75.45857864376269L7.570710678118655,79.42928932188134L7.429289321881345,79.57071067811866L3.4,75.54142135623731L3.4,73.45857864376269L3.9,72.95857864376269L3.9,71.95857864376269L4.4,71.45857864376269z" stroke="none"/><path d="M57.07071067811866,10.570710678118655L56.92928932188134,10.429289321881345L58.45857864376269,8.9L58.95857864376269,8.9L59.95857864376269,7.9L60.45857864376269,7.9L61.45857864376269,6.9L61.95857864376269,6.9L64.42928932188134,4.429289321881345L64.57071067811866,4.570710678118655L62.04142135623731,7.1L61.54142135623731,7.1L60.54142135623731,8.1L60.04142135623731,8.1L59.04142135623731,9.1L58.54142135623731,9.1z" stroke="none"/><path d="M57.1,100.5L56.9,100.5L56.9,94.54142135623731L55.95857864376269,93.6L54.95857864376269,93.6L52.95857864376269,91.6L52.5,91.6L52.5,91.4L53.04142135623731,91.4L55.04142135623731,93.4L56.04142135623731,93.4L57.1,94.45857864376269z" stroke="none"/><path d="M81.07071067811866,8.929289321881345L80.92928932188134,9.070710678118655L80.45857864376269,8.6L79.95857864376269,8.6L77.95857864376269,6.6L75.95857864376269,6.6L72.45857864376269,3.1L72,3.1L72,2.9L72.54142135623731,2.9L76.04142135623731,6.4L78.04142135623731,6.4L80.04142135623731,8.4L80.54142135623731,8.4z" stroke="none"/><path d="M4.570710678118655,30.070710678118655L4.429289321881345,29.929289321881345L8.45857864376269,25.9L10.45857864376269,25.9L12.45857864376269,23.9L13.5,23.9L13.5,24.1L12.54142135623731,24.1L10.54142135623731,26.1L8.54142135623731,26.1z" stroke="none"/><path d="M7.5,12.1L7.5,11.9L8.04142135623731,11.9L8.54142135623731,12.4L9.04142135623731,12.4L10.04142135623731,13.4L12.54142135623731,13.4L13.04142135623731,13.9L15.04142135623731,13.9L15.54142135623731,14.4L17.041421356237308,14.4L17.541421356237308,14.9L18,14.9L18,15.1L17.458578643762692,15.1L16.958578643762692,14.6L15.45857864376269,14.6L14.95857864376269,14.1L12.95857864376269,14.1L12.45857864376269,13.6L9.95857864376269,13.6L8.95857864376269,12.6L8.45857864376269,12.6L7.95857864376269,12.1z" stroke="none"/><path d="M25.5,3.1L25.5,2.9L27.041421356237308,2.9L27.541421356237308,3.4L29.041421356237308,3.4L29.541421356237308,3.9L30.041421356237308,3.9L30.541421356237308,4.4L32.54142135623731,4.4L33.54142135623731,5.4L34.04142135623731,5.4L36.07071067811866,7.429289321881345L35.92928932188134,7.570710678118655L33.95857864376269,5.6L33.45857864376269,5.6L32.45857864376269,4.6L30.458578643762692,4.6L29.958578643762692,4.1L29.458578643762692,4.1L28.958578643762692,3.6L27.458578643762692,3.6L26.958578643762692,3.1z" stroke="none"/><path d="M21.1,13.5L20.9,13.5L20.9,13.04142135623731L19.9,12.04142135623731L19.9,11.54142135623731L18.4,10.04142135623731L18.4,6.54142135623731L17.9,6.04142135623731L17.9,5.04142135623731L17.4,4.54142135623731L17.4,4.04142135623731L16.429289321881345,3.0707106781186546L16.570710678118655,2.9292893218813454L17.6,3.9585786437626904L17.6,4.45857864376269L18.1,4.95857864376269L18.1,5.95857864376269L18.6,6.45857864376269L18.6,9.95857864376269L20.1,11.45857864376269L20.1,11.95857864376269L21.1,12.95857864376269z" stroke="none"/><path d="M73.5,89.9L73.5,90.1L71.04142135623731,90.1L69.54142135623731,91.6L61.5,91.6L61.5,91.4L69.45857864376269,91.4L70.95857864376269,89.9z" stroke="none"/><path d="M22.4,25.5L22.6,25.5L22.6,26.458578643762692L24.6,28.458578643762692L24.6,30.458578643762692L25.1,30.958578643762692L25.1,32.04142135623731L24.541421356237308,32.6L16.541421356237308,32.6L15.04142135623731,34.1L14.04142135623731,34.1L13.570710678118655,34.57071067811866L13.429289321881345,34.42928932188134L13.95857864376269,33.9L14.95857864376269,33.9L16.458578643762692,32.4L24.458578643762692,32.4L24.9,31.958578643762692L24.9,31.041421356237308L24.4,30.541421356237308L24.4,28.541421356237308L22.4,26.541421356237308z" stroke="none"/><path d="M86.92928932188134,96.07071067811866L87.07071067811866,95.92928932188134L87.54142135623731,96.4L88.54142135623731,96.4L89.04142135623731,96.9L89.54142135623731,96.9L90.04142135623731,97.4L90.54142135623731,97.4L91.04142135623731,97.9L93.04142135623731,97.9L93.54142135623731,98.4L95.04142135623731,98.4L95.54142135623731,98.9L97.54142135623731,98.9L99.07071067811866,100.42928932188134L98.92928932188134,100.57071067811866L97.45857864376269,99.1L95.45857864376269,99.1L94.95857864376269,98.6L93.45857864376269,98.6L92.95857864376269,98.1L90.95857864376269,98.1L90.45857864376269,97.6L89.95857864376269,97.6L89.45857864376269,97.1L88.95857864376269,97.1L88.45857864376269,96.6L87.45857864376269,96.6z" stroke="none"/><path d="M96.1,84L95.9,84L95.9,70.5L96.1,70.5z" stroke="none"/><path d="M88.5,94.4L88.5,94.6L86.95857864376269,94.6L85.4,93.04142135623731L85.4,92.54142135623731L84.95857864376269,92.1L77.04142135623731,92.1L76.04142135623731,93.1L75,93.1L75,92.9L75.95857864376269,92.9L76.95857864376269,91.9L85.04142135623731,91.9L85.6,92.45857864376269L85.6,92.95857864376269L87.04142135623731,94.4z" stroke="none"/><path d="M4.6,28.5L4.4,28.5L4.4,18.041421356237308L3.4,17.041421356237308L3.4,15.95857864376269L3.9585786437626904,15.4L7.45857864376269,15.4L7.95857864376269,14.9L9,14.9L9,15.1L8.04142135623731,15.1L7.54142135623731,15.6L4.04142135623731,15.6L3.6,16.041421356237308L3.6,16.958578643762692L4.6,17.958578643762692z" stroke="none"/><path d="M16.5,36.1L16.5,35.9L17.458578643762692,35.9L17.958578643762692,35.4L18.458578643762692,35.4L19.458578643762692,34.4L23.458578643762692,34.4L27.458578643762692,30.4L29.458578643762692,30.4L29.929289321881345,29.929289321881345L30.070710678118655,30.070710678118655L29.541421356237308,30.6L27.541421356237308,30.6L23.541421356237308,34.6L19.541421356237308,34.6L18.541421356237308,35.6L18.041421356237308,35.6L17.541421356237308,36.1z" stroke="none"/><path d="M49.4,58.5L49.6,58.5L49.6,63.45857864376269L50.1,63.95857864376269L50.1,64.95857864376269L50.6,65.45857864376269L50.6,67.95857864376269L51.1,68.45857864376269L51.1,70.95857864376269L52.1,71.95857864376269L52.1,73.95857864376269L52.6,74.45857864376269L52.6,74.95857864376269L53.1,75.45857864376269L53.1,76.45857864376269L54.1,77.45857864376269L54.1,80.54142135623731L53.54142135623731,81.1L51.45857864376269,81.1L50.45857864376269,80.1L49.95857864376269,80.1L46.45857864376269,76.6L43.45857864376269,76.6L41.95857864376269,75.1L39.45857864376269,75.1L38.95857864376269,74.6L38.45857864376269,74.6L37.9,74.04142135623731L37.9,51.04142135623731L37.4,50.54142135623731L37.4,49.5L37.6,49.5L37.6,50.45857864376269L38.1,50.95857864376269L38.1,73.95857864376269L38.54142135623731,74.4L39.04142135623731,74.4L39.54142135623731,74.9L42.04142135623731,74.9L43.54142135623731,76.4L46.54142135623731,76.4L50.04142135623731,79.9L50.54142135623731,79.9L51.54142135623731,80.9L53.45857864376269,80.9L53.9,80.45857864376269L53.9,77.54142135623731L52.9,76.54142135623731L52.9,75.54142135623731L52.4,75.04142135623731L52.4,74.54142135623731L51.9,74.04142135623731L51.9,72.04142135623731L50.9,71.04142135623731L50.9,68.54142135623731L50.4,68.04142135623731L50.4,65.54142135623731L49.9,65.04142135623731L49.9,64.04142135623731L49.4,63.54142135623731z" stroke="none"/><path d="M28.570710678118655,8.929289321881345L28.429289321881345,9.070710678118655L27.458578643762692,8.1L26.958578643762692,8.1L25.958578643762692,7.1L24.958578643762692,7.1L23.458578643762692,5.6L22.458578643762692,5.6L20.958578643762692,4.1L19.958578643762692,4.1L18.958578643762692,3.1L18.458578643762692,3.1L17.958578643762692,2.6L17.458578643762692,2.6L16.958578643762692,2.1L16.041421356237308,2.1L15.6,2.5414213562373096L15.6,6.54142135623731L15.1,7.04142135623731L15.1,8.54142135623731L14.1,9.54142135623731L14.1,10.04142135623731L13.570710678118655,10.570710678118655L13.429289321881345,10.429289321881345L13.9,9.95857864376269L13.9,9.45857864376269L14.9,8.45857864376269L14.9,6.95857864376269L15.4,6.45857864376269L15.4,2.4585786437626904L15.95857864376269,1.9L17.041421356237308,1.9L17.541421356237308,2.4L18.041421356237308,2.4L18.541421356237308,2.9L19.041421356237308,2.9L20.041421356237308,3.9L21.041421356237308,3.9L22.541421356237308,5.4L23.541421356237308,5.4L25.041421356237308,6.9L26.041421356237308,6.9L27.041421356237308,7.9L27.541421356237308,7.9z" stroke="none"/><path d="M37.57071067811866,23.929289321881345L37.42928932188134,24.070710678118655L34.9,21.541421356237308L34.9,14.45857864376269L35.4,13.95857864376269L35.4,13.04142135623731L28.458578643762692,6.1L26.958578643762692,6.1L25.958578643762692,5.1L24.458578643762692,5.1L23.458578643762692,4.1L22.958578643762692,4.1L22.458578643762692,3.6L21.458578643762692,3.6L19.958578643762692,2.1L17.958578643762692,2.1L17.458578643762692,1.6L15.54142135623731,1.6L4.1,13.04142135623731L4.1,13.54142135623731L3.6,14.04142135623731L3.6,14.54142135623731L3.1,15.04142135623731L3.1,45.04142135623731L2.1,46.04142135623731L2.1,46.95857864376269L2.5414213562373096,47.4L3.4585786437626904,47.4L4.9,45.95857864376269L4.9,45.45857864376269L7.4,42.95857864376269L7.4,41.95857864376269L8.45857864376269,40.9L8.95857864376269,40.9L9.45857864376269,40.4L10.45857864376269,40.4L10.95857864376269,39.9L11.45857864376269,39.9L11.95857864376269,39.4L31.958578643762692,39.4L32.45857864376269,38.9L33,38.9L33,39.1L32.54142135623731,39.1L32.04142135623731,39.6L12.04142135623731,39.6L11.54142135623731,40.1L11.04142135623731,40.1L10.54142135623731,40.6L9.54142135623731,40.6L9.04142135623731,41.1L8.54142135623731,41.1L7.6,42.04142135623731L7.6,43.04142135623731L5.1,45.54142135623731L5.1,46.04142135623731L3.5414213562373096,47.6L2.4585786437626904,47.6L1.9,47.04142135623731L1.9,45.95857864376269L2.9,44.95857864376269L2.9,14.95857864376269L3.4,14.45857864376269L3.4,13.95857864376269L3.9,13.45857864376269L3.9,12.95857864376269L15.45857864376269,1.4L17.541421356237308,1.4L18.041421356237308,1.9L20.041421356237308,1.9L21.541421356237308,3.4L22.541421356237308,3.4L23.041421356237308,3.9L23.541421356237308,3.9L24.541421356237308,4.9L26.041421356237308,4.9L27.041421356237308,5.9L28.541421356237308,5.9L35.6,12.95857864376269L35.6,14.04142135623731L35.1,14.54142135623731L35.1,21.458578643762692z" stroke="none"/><path d="M76.42928932188134,42.07071067811866L76.57071067811866,41.92928932188134L77.54142135623731,42.9L78.04142135623731,42.9L78.54142135623731,43.4L79.04142135623731,43.4L79.54142135623731,43.9L80.04142135623731,43.9L80.54142135623731,44.4L81.04142135623731,44.4L81.54142135623731,44.9L83.54142135623731,44.9L85.04142135623731,46.4L85.54142135623731,46.4L86.6,47.45857864376269L86.6,53.45857864376269L87.07071067811866,53.92928932188134L86.92928932188134,54.07071067811866L86.4,53.54142135623731L86.4,47.54142135623731L85.45857864376269,46.6L84.95857864376269,46.6L83.45857864376269,45.1L81.45857864376269,45.1L80.95857864376269,44.6L80.45857864376269,44.6L79.95857864376269,44.1L79.45857864376269,44.1L78.95857864376269,43.6L78.45857864376269,43.6L77.95857864376269,43.1L77.45857864376269,43.1z" stroke="none"/><path d="M82.4,37.5L82.6,37.5L82.6,37.95857864376269L84.1,39.45857864376269L84.1,39.95857864376269L84.6,40.45857864376269L84.6,41.95857864376269L85.1,42.45857864376269L85.1,43.45857864376269L85.6,43.95857864376269L85.6,44.45857864376269L86.1,44.95857864376269L86.1,45.45857864376269L86.6,45.95857864376269L86.6,46.45857864376269L87.1,46.95857864376269L87.1,50.45857864376269L87.6,50.95857864376269L87.6,51.45857864376269L88.1,51.95857864376269L88.1,54.54142135623731L87.54142135623731,55.1L85.45857864376269,55.1L84.45857864376269,54.1L83.95857864376269,54.1L82.95857864376269,53.1L80.95857864376269,53.1L80.45857864376269,52.6L79.95857864376269,52.6L79.45857864376269,52.1L78.95857864376269,52.1L78.45857864376269,51.6L77.95857864376269,51.6L76.95857864376269,50.6L74.95857864376269,50.6L74.45857864376269,50.1L73.45857864376269,50.1L72.95857864376269,49.6L72,49.6L72,49.4L73.04142135623731,49.4L73.54142135623731,49.9L74.54142135623731,49.9L75.04142135623731,50.4L77.04142135623731,50.4L78.04142135623731,51.4L78.54142135623731,51.4L79.04142135623731,51.9L79.54142135623731,51.9L80.04142135623731,52.4L80.54142135623731,52.4L81.04142135623731,52.9L83.04142135623731,52.9L84.04142135623731,53.9L84.54142135623731,53.9L85.54142135623731,54.9L87.45857864376269,54.9L87.9,54.45857864376269L87.9,52.04142135623731L87.4,51.54142135623731L87.4,51.04142135623731L86.9,50.54142135623731L86.9,47.04142135623731L86.4,46.54142135623731L86.4,46.04142135623731L85.9,45.54142135623731L85.9,45.04142135623731L85.4,44.54142135623731L85.4,44.04142135623731L84.9,43.54142135623731L84.9,42.54142135623731L84.4,42.04142135623731L84.4,40.54142135623731L83.9,40.04142135623731L83.9,39.54142135623731L82.4,38.04142135623731z" stroke="none"/><path d="M100.6,43.5L100.4,43.5L100.4,29.958578643762692L101.4,28.958578643762692L101.4,26.541421356237308L100.95857864376269,26.1L100.04142135623731,26.1L99.07071067811866,27.070710678118655L98.92928932188134,26.929289321881345L99.95857864376269,25.9L101.04142135623731,25.9L101.6,26.458578643762692L101.6,29.041421356237308L100.6,30.041421356237308z" stroke="none"/><path d="M69.1,63L68.9,63L68.9,58.95857864376269L69.4,58.45857864376269L69.4,57.95857864376269L69.9,57.45857864376269L69.9,48.95857864376269L71.4,47.45857864376269L71.4,46.95857864376269L71.92928932188134,46.42928932188134L72.07071067811866,46.57071067811866L71.6,47.04142135623731L71.6,47.54142135623731L70.1,49.04142135623731L70.1,57.54142135623731L69.6,58.04142135623731L69.6,58.54142135623731L69.1,59.04142135623731z" stroke="none"/><path d="M37.6,85.5L37.4,85.5L37.4,75.54142135623731L36.4,74.54142135623731L36.4,72.54142135623731L34.9,71.04142135623731L34.9,69.54142135623731L34.42928932188134,69.07071067811866L34.57071067811866,68.92928932188134L35.1,69.45857864376269L35.1,70.95857864376269L36.6,72.45857864376269L36.6,74.45857864376269L37.6,75.45857864376269z" stroke="none"/><path d="M52.57071067811866,16.429289321881345L52.42928932188134,16.570710678118655L43.95857864376269,8.1L41.95857864376269,8.1L40.45857864376269,6.6L39.95857864376269,6.6L39.45857864376269,6.1L39,6.1L39,5.9L39.54142135623731,5.9L40.04142135623731,6.4L40.54142135623731,6.4L42.04142135623731,7.9L44.04142135623731,7.9z" stroke="none"/><path d="M24.070710678118655,58.57071067811866L23.929289321881345,58.42928932188134L31.958578643762692,50.4L33.45857864376269,50.4L33.95857864376269,49.9L34.45857864376269,49.9L35.95857864376269,48.4L38.04142135623731,48.4L39.07071067811866,49.42928932188134L38.92928932188134,49.57071067811866L37.95857864376269,48.6L36.04142135623731,48.6L34.54142135623731,50.1L34.04142135623731,50.1L33.54142135623731,50.6L32.04142135623731,50.6z" stroke="none"/><path d="M102.07071067811866,101.92928932188134L101.92928932188134,102.07071067811866L94.95857864376269,95.1L94.45857864376269,95.1L93.45857864376269,94.1L89.95857864376269,94.1L89.45857864376269,93.6L87.95857864376269,93.6L87.45857864376269,93.1L87,93.1L87,92.9L87.54142135623731,92.9L88.04142135623731,93.4L89.54142135623731,93.4L90.04142135623731,93.9L93.54142135623731,93.9L94.54142135623731,94.9L95.04142135623731,94.9z" stroke="none"/><path d="M31.5,7.6L31.5,7.4L34.04142135623731,7.4L35.04142135623731,8.4L36.45857864376269,8.4L36.9,7.95857864376269L36.9,6.45857864376269L38.45857864376269,4.9L46.95857864376269,4.9L48.95857864376269,2.9L49.5,2.9L49.5,3.1L49.04142135623731,3.1L47.04142135623731,5.1L38.54142135623731,5.1L37.1,6.54142135623731L37.1,8.04142135623731L36.54142135623731,8.6L34.95857864376269,8.6L33.95857864376269,7.6z" stroke="none"/><path d="M61.42928932188134,5.929289321881345L61.57071067811866,6.070710678118655L60.04142135623731,7.6L59.54142135623731,7.6L59.04142135623731,8.1L58.54142135623731,8.1L57.54142135623731,9.1L57.04142135623731,9.1L54.1,12.04142135623731L54.1,16.041421356237308L53.6,16.541421356237308L53.6,17.041421356237308L53.04142135623731,17.6L41.45857864376269,17.6L40.95857864376269,17.1L40.04142135623731,17.1L39.6,17.541421356237308L39.6,18.458578643762692L40.04142135623731,18.9L41.54142135623731,18.9L42.04142135623731,19.4L42.54142135623731,19.4L43.54142135623731,20.4L49.04142135623731,20.4L49.54142135623731,20.9L50.04142135623731,20.9L50.54142135623731,21.4L51.54142135623731,21.4L52.57071067811866,22.429289321881345L52.42928932188134,22.570710678118655L51.45857864376269,21.6L50.45857864376269,21.6L49.95857864376269,21.1L49.45857864376269,21.1L48.95857864376269,20.6L43.45857864376269,20.6L42.45857864376269,19.6L41.95857864376269,19.6L41.45857864376269,19.1L39.95857864376269,19.1L39.4,18.541421356237308L39.4,17.458578643762692L39.95857864376269,16.9L41.04142135623731,16.9L41.54142135623731,17.4L52.95857864376269,17.4L53.4,16.958578643762692L53.4,16.458578643762692L53.9,15.95857864376269L53.9,11.95857864376269L56.95857864376269,8.9L57.45857864376269,8.9L58.45857864376269,7.9L58.95857864376269,7.9L59.45857864376269,7.4L59.95857864376269,7.4z" stroke="none"/><path d="M67.5,2.9L67.5,3.1L64.54142135623731,3.1L63.54142135623731,4.1L63.04142135623731,4.1L62.54142135623731,4.6L62.04142135623731,4.6L61.54142135623731,5.1L61.04142135623731,5.1L58.54142135623731,7.6L57.54142135623731,7.6L57.04142135623731,8.1L56.04142135623731,8.1L52.54142135623731,11.6L52.04142135623731,11.6L51.54142135623731,12.1L51,12.1L51,11.9L51.45857864376269,11.9L51.95857864376269,11.4L52.45857864376269,11.4L55.95857864376269,7.9L56.95857864376269,7.9L57.45857864376269,7.4L58.45857864376269,7.4L60.95857864376269,4.9L61.45857864376269,4.9L61.95857864376269,4.4L62.45857864376269,4.4L62.95857864376269,3.9L63.45857864376269,3.9L64.45857864376269,2.9z" stroke="none"/><path d="M3.1,84L2.9,84L2.9,68.45857864376269L5.4,65.95857864376269L5.4,64.95857864376269L6.9,63.45857864376269L6.9,62.95857864376269L7.9,61.95857864376269L7.9,61.45857864376269L8.9,60.45857864376269L8.9,59.95857864376269L9.95857864376269,58.9L11.04142135623731,58.9L11.6,59.45857864376269L11.6,62.04142135623731L11.1,62.54142135623731L11.1,65.95857864376269L12.1,66.95857864376269L12.1,67.5L11.9,67.5L11.9,67.04142135623731L10.9,66.04142135623731L10.9,62.45857864376269L11.4,61.95857864376269L11.4,59.54142135623731L10.95857864376269,59.1L10.04142135623731,59.1L9.1,60.04142135623731L9.1,60.54142135623731L8.1,61.54142135623731L8.1,62.04142135623731L7.1,63.04142135623731L7.1,63.54142135623731L5.6,65.04142135623731L5.6,66.04142135623731L3.1,68.54142135623731z" stroke="none"/><path d="M31.5,42.1L31.5,41.9L35.04142135623731,41.9L35.54142135623731,42.4L36.54142135623731,42.4L37.04142135623731,42.9L37.95857864376269,42.9L45.95857864376269,34.9L48.95857864376269,34.9L49.42928932188134,34.42928932188134L49.57071067811866,34.57071067811866L49.04142135623731,35.1L46.04142135623731,35.1L38.04142135623731,43.1L36.95857864376269,43.1L36.45857864376269,42.6L35.45857864376269,42.6L34.95857864376269,42.1z" stroke="none"/><path d="M12.1,64.5L11.9,64.5L11.9,59.04142135623731L11.45857864376269,58.6L9.54142135623731,58.6L6.1,62.04142135623731L6.1,62.54142135623731L5.6,63.04142135623731L5.6,63.54142135623731L3.1,66.04142135623731L3.1,66.54142135623731L2.6,67.04142135623731L2.6,83.04142135623731L2.1,83.54142135623731L2.1,84.45857864376269L2.5414213562373096,84.9L10.45857864376269,84.9L10.95857864376269,84.4L11.45857864376269,84.4L11.929289321881345,83.92928932188134L12.070710678118655,84.07071067811866L11.54142135623731,84.6L11.04142135623731,84.6L10.54142135623731,85.1L2.4585786437626904,85.1L1.9,84.54142135623731L1.9,83.45857864376269L2.4,82.95857864376269L2.4,66.95857864376269L2.9,66.45857864376269L2.9,65.95857864376269L5.4,63.45857864376269L5.4,62.95857864376269L5.9,62.45857864376269L5.9,61.95857864376269L9.45857864376269,58.4L11.54142135623731,58.4L12.1,58.95857864376269z" stroke="none"/><path d="M102,58.4L102,58.6L87.95857864376269,58.6L85.45857864376269,56.1L84.95857864376269,56.1L83.45857864376269,54.6L82.95857864376269,54.6L82.42928932188134,54.07071067811866L82.57071067811866,53.92928932188134L83.04142135623731,54.4L83.54142135623731,54.4L85.04142135623731,55.9L85.54142135623731,55.9L88.04142135623731,58.4z" stroke="none"/><path d="M40.57071067811866,64.42928932188134L40.42928932188134,64.57071067811866L39.4,63.54142135623731L39.4,62.45857864376269L41.4,60.45857864376269L41.4,59.95857864376269L41.9,59.45857864376269L41.9,58.95857864376269L46.9,53.95857864376269L46.9,53.45857864376269L47.4,52.95857864376269L47.4,51.95857864376269L50.45857864376269,48.9L50.95857864376269,48.9L51.95857864376269,47.9L52.5,47.9L52.5,48.1L52.04142135623731,48.1L51.04142135623731,49.1L50.54142135623731,49.1L47.6,52.04142135623731L47.6,53.04142135623731L47.1,53.54142135623731L47.1,54.04142135623731L42.1,59.04142135623731L42.1,59.54142135623731L41.6,60.04142135623731L41.6,60.54142135623731L39.6,62.54142135623731L39.6,63.45857864376269z" stroke="none"/><path d="M93,25.4L93,25.6L89.04142135623731,25.6L88.54142135623731,26.1L86.54142135623731,26.1L86.04142135623731,26.6L84.95857864376269,26.6L84.4,26.041421356237308L84.4,24.958578643762692L85.4,23.958578643762692L85.4,19.458578643762692L87.4,17.458578643762692L87.4,15.45857864376269L88.9,13.95857864376269L88.9,12.45857864376269L89.9,11.45857864376269L89.9,9.54142135623731L86.9,6.54142135623731L86.9,6L87.1,6L87.1,6.45857864376269L90.1,9.45857864376269L90.1,11.54142135623731L89.1,12.54142135623731L89.1,14.04142135623731L87.6,15.54142135623731L87.6,17.541421356237308L85.6,19.541421356237308L85.6,24.041421356237308L84.6,25.041421356237308L84.6,25.958578643762692L85.04142135623731,26.4L85.95857864376269,26.4L86.45857864376269,25.9L88.45857864376269,25.9L88.95857864376269,25.4z" stroke="none"/><path d="M62.9,81L63.1,81L63.1,86.54142135623731L62.1,87.54142135623731L62.1,88.04142135623731L60.6,89.54142135623731L60.6,95.95857864376269L61.1,96.45857864376269L61.1,100.04142135623731L60.6,100.54142135623731L60.6,102.45857864376269L61.04142135623731,102.9L64.45857864376269,102.9L65.45857864376269,101.9L65.95857864376269,101.9L66.45857864376269,101.4L67.45857864376269,101.4L67.95857864376269,100.9L68.45857864376269,100.9L68.92928932188134,100.42928932188134L69.07071067811866,100.57071067811866L68.54142135623731,101.1L68.04142135623731,101.1L67.54142135623731,101.6L66.54142135623731,101.6L66.04142135623731,102.1L65.54142135623731,102.1L64.54142135623731,103.1L60.95857864376269,103.1L60.4,102.54142135623731L60.4,100.45857864376269L60.9,99.95857864376269L60.9,96.54142135623731L60.4,96.04142135623731L60.4,89.45857864376269L61.9,87.95857864376269L61.9,87.45857864376269L62.9,86.45857864376269z" stroke="none"/><path d="M21.070710678118655,67.42928932188134L20.929289321881345,67.57071067811866L12.4,59.04142135623731L12.4,58.54142135623731L11.95857864376269,58.1L4.45857864376269,58.1L3.9585786437626904,57.6L3.4585786437626904,57.6L2.9292893218813454,57.07071067811866L3.0707106781186546,56.92928932188134L3.5414213562373096,57.4L4.04142135623731,57.4L4.54142135623731,57.9L12.04142135623731,57.9L12.6,58.45857864376269L12.6,58.95857864376269z" stroke="none"/><path d="M86.92928932188134,37.57071067811866L87.07071067811866,37.42928932188134L89.6,39.95857864376269L89.6,40.45857864376269L90.1,40.95857864376269L90.1,41.45857864376269L90.6,41.95857864376269L90.6,45.45857864376269L91.6,46.45857864376269L91.6,47.45857864376269L92.1,47.95857864376269L92.1,48.45857864376269L94.1,50.45857864376269L94.1,51.45857864376269L97.1,54.45857864376269L97.1,54.95857864376269L98.54142135623731,56.4L99.45857864376269,56.4L99.9,55.95857864376269L99.9,52.95857864376269L100.9,51.95857864376269L100.9,51.45857864376269L102.9,49.45857864376269L102.9,23.541421356237308L102.4,23.041421356237308L102.4,22.541421356237308L101.4,21.541421356237308L101.4,21.041421356237308L100.9,20.541421356237308L100.9,19.041421356237308L98.9,17.041421356237308L98.9,16.541421356237308L97.95857864376269,15.6L97.04142135623731,15.6L94.57071067811866,18.070710678118655L94.42928932188134,17.929289321881345L96.95857864376269,15.4L98.04142135623731,15.4L99.1,16.458578643762692L99.1,16.958578643762692L101.1,18.958578643762692L101.1,20.458578643762692L101.6,20.958578643762692L101.6,21.458578643762692L102.6,22.458578643762692L102.6,22.958578643762692L103.1,23.458578643762692L103.1,49.54142135623731L101.1,51.54142135623731L101.1,52.04142135623731L100.1,53.04142135623731L100.1,56.04142135623731L99.54142135623731,56.6L98.45857864376269,56.6L96.9,55.04142135623731L96.9,54.54142135623731L93.9,51.54142135623731L93.9,50.54142135623731L91.9,48.54142135623731L91.9,48.04142135623731L91.4,47.54142135623731L91.4,46.54142135623731L90.4,45.54142135623731L90.4,42.04142135623731L89.9,41.54142135623731L89.9,41.04142135623731L89.4,40.54142135623731L89.4,40.04142135623731z" stroke="none"/><path d="M59.9,97.5L60.1,97.5L60.1,102.95857864376269L60.54142135623731,103.4L70.45857864376269,103.4L72.45857864376269,101.4L72.95857864376269,101.4L74.45857864376269,99.9L74.95857864376269,99.9L75.45857864376269,99.4L77.45857864376269,99.4L78.95857864376269,97.9L80.45857864376269,97.9L80.92928932188134,97.42928932188134L81.07071067811866,97.57071067811866L80.54142135623731,98.1L79.04142135623731,98.1L77.54142135623731,99.6L75.54142135623731,99.6L75.04142135623731,100.1L74.54142135623731,100.1L73.04142135623731,101.6L72.54142135623731,101.6L70.54142135623731,103.6L60.45857864376269,103.6L59.9,103.04142135623731z" stroke="none"/><path d="M43.42928932188134,8.929289321881345L43.57071067811866,9.070710678118655L43.1,9.54142135623731L43.1,10.04142135623731L42.1,11.04142135623731L42.1,13.04142135623731L41.6,13.54142135623731L41.6,14.04142135623731L40.1,15.54142135623731L40.1,16.041421356237308L39.1,17.041421356237308L39.1,18.958578643762692L40.1,19.958578643762692L40.1,20.458578643762692L41.6,21.958578643762692L41.6,27.958578643762692L42.1,28.458578643762692L42.1,30L41.9,30L41.9,28.541421356237308L41.4,28.041421356237308L41.4,22.041421356237308L39.9,20.541421356237308L39.9,20.041421356237308L38.9,19.041421356237308L38.9,16.958578643762692L39.9,15.95857864376269L39.9,15.45857864376269L41.4,13.95857864376269L41.4,13.45857864376269L41.9,12.95857864376269L41.9,10.95857864376269L42.9,9.95857864376269L42.9,9.45857864376269z" stroke="none"/><path d="M55.4,67.5L55.6,67.5L55.6,76.95857864376269L56.1,77.45857864376269L56.1,77.95857864376269L56.6,78.45857864376269L56.6,84.45857864376269L59.6,87.45857864376269L59.6,87.95857864376269L60.07071067811866,88.42928932188134L59.92928932188134,88.57071067811866L59.4,88.04142135623731L59.4,87.54142135623731L56.4,84.54142135623731L56.4,78.54142135623731L55.9,78.04142135623731L55.9,77.54142135623731L55.4,77.04142135623731z" stroke="none"/><path d="M29.929289321881345,58.57071067811866L30.070710678118655,58.42928932188134L34.6,62.95857864376269L34.6,65.95857864376269L35.1,66.45857864376269L35.1,67.45857864376269L35.6,67.95857864376269L35.6,70.45857864376269L37.1,71.95857864376269L37.1,72.95857864376269L37.6,73.45857864376269L37.6,74.45857864376269L40.1,76.95857864376269L40.1,77.45857864376269L40.57071067811866,77.92928932188134L40.42928932188134,78.07071067811866L39.9,77.54142135623731L39.9,77.04142135623731L37.4,74.54142135623731L37.4,73.54142135623731L36.9,73.04142135623731L36.9,72.04142135623731L35.4,70.54142135623731L35.4,68.04142135623731L34.9,67.54142135623731L34.9,66.54142135623731L34.4,66.04142135623731L34.4,63.04142135623731z" stroke="none"/><path d="M13.429289321881345,18.070710678118655L13.570710678118655,17.929289321881345L19.041421356237308,23.4L20.541421356237308,23.4L21.041421356237308,23.9L23.541421356237308,23.9L25.541421356237308,25.9L26.041421356237308,25.9L27.041421356237308,26.9L27.541421356237308,26.9L28.041421356237308,27.4L29.041421356237308,27.4L31.1,29.458578643762692L31.1,31.458578643762692L31.6,31.958578643762692L31.6,32.45857864376269L32.1,32.95857864376269L32.1,36.45857864376269L34.1,38.45857864376269L34.1,39.54142135623731L33.54142135623731,40.1L15.04142135623731,40.1L14.54142135623731,40.6L13.5,40.6L13.5,40.4L14.45857864376269,40.4L14.95857864376269,39.9L33.45857864376269,39.9L33.9,39.45857864376269L33.9,38.54142135623731L31.9,36.54142135623731L31.9,33.04142135623731L31.4,32.54142135623731L31.4,32.04142135623731L30.9,31.541421356237308L30.9,29.541421356237308L28.958578643762692,27.6L27.958578643762692,27.6L27.458578643762692,27.1L26.958578643762692,27.1L25.958578643762692,26.1L25.458578643762692,26.1L23.458578643762692,24.1L20.958578643762692,24.1L20.458578643762692,23.6L18.958578643762692,23.6z" stroke="none"/><path d="M92.9,78L93.1,78L93.1,81.04142135623731L92.1,82.04142135623731L92.1,84.45857864376269L92.54142135623731,84.9L93.45857864376269,84.9L95.4,82.95857864376269L95.4,75.54142135623731L94.45857864376269,74.6L84.95857864376269,74.6L83.95857864376269,73.6L82.95857864376269,73.6L79.45857864376269,70.1L78.95857864376269,70.1L77.95857864376269,69.1L77.45857864376269,69.1L76.45857864376269,68.1L75.95857864376269,68.1L74.45857864376269,66.6L73.95857864376269,66.6L73.42928932188134,66.07071067811866L73.57071067811866,65.92928932188134L74.04142135623731,66.4L74.54142135623731,66.4L76.04142135623731,67.9L76.54142135623731,67.9L77.54142135623731,68.9L78.04142135623731,68.9L79.04142135623731,69.9L79.54142135623731,69.9L83.04142135623731,73.4L84.04142135623731,73.4L85.04142135623731,74.4L94.54142135623731,74.4L95.6,75.45857864376269L95.6,83.04142135623731L93.54142135623731,85.1L92.45857864376269,85.1L91.9,84.54142135623731L91.9,81.95857864376269L92.9,80.95857864376269z" stroke="none"/><path d="M100.4,72L100.6,72L100.6,73.04142135623731L99.6,74.04142135623731L99.6,74.54142135623731L98.6,75.54142135623731L98.6,79.04142135623731L98.1,79.54142135623731L98.1,80.54142135623731L97.6,81.04142135623731L97.6,83.54142135623731L97.1,84.04142135623731L97.1,84.54142135623731L96.54142135623731,85.1L95.04142135623731,85.1L94.54142135623731,85.6L88.95857864376269,85.6L87.95857864376269,84.6L86.95857864376269,84.6L86.45857864376269,84.1L84.95857864376269,84.1L84.45857864376269,83.6L82.45857864376269,83.6L81.95857864376269,83.1L81.45857864376269,83.1L80.95857864376269,82.6L79.5,82.6L79.5,82.4L81.04142135623731,82.4L81.54142135623731,82.9L82.04142135623731,82.9L82.54142135623731,83.4L84.54142135623731,83.4L85.04142135623731,83.9L86.54142135623731,83.9L87.04142135623731,84.4L88.04142135623731,84.4L89.04142135623731,85.4L94.45857864376269,85.4L94.95857864376269,84.9L96.45857864376269,84.9L96.9,84.45857864376269L96.9,83.95857864376269L97.4,83.45857864376269L97.4,80.95857864376269L97.9,80.45857864376269L97.9,79.45857864376269L98.4,78.95857864376269L98.4,75.45857864376269L99.4,74.45857864376269L99.4,73.95857864376269L100.4,72.95857864376269z" stroke="none"/><path d="M24,43.6L24,43.4L38.45857864376269,43.4L45.45857864376269,36.4L45.95857864376269,36.4L46.42928932188134,35.92928932188134L46.57071067811866,36.07071067811866L46.04142135623731,36.6L45.54142135623731,36.6L38.54142135623731,43.6z" stroke="none"/><path d="M60,22.4L60,22.6L59.04142135623731,22.6L58.54142135623731,23.1L57.54142135623731,23.1L52.6,28.041421356237308L52.6,32.54142135623731L51.6,33.54142135623731L51.6,34.04142135623731L44.04142135623731,41.6L43.04142135623731,41.6L42.04142135623731,42.6L41.04142135623731,42.6L39.54142135623731,44.1L25.541421356237308,44.1L25.041421356237308,44.6L22.041421356237308,44.6L21.041421356237308,45.6L20.541421356237308,45.6L20.041421356237308,46.1L19.541421356237308,46.1L17.541421356237308,48.1L16.541421356237308,48.1L16.041421356237308,48.6L14.04142135623731,48.6L12.54142135623731,50.1L12.04142135623731,50.1L11.54142135623731,50.6L11.04142135623731,50.6L10.54142135623731,51.1L10.04142135623731,51.1L9.54142135623731,51.6L7.04142135623731,51.6L6.54142135623731,52.1L5.45857864376269,52.1L1.9,48.54142135623731L1.9,48.04142135623731L1.4,47.54142135623731L1.4,14.95857864376269L3.4,12.95857864376269L3.4,12.45857864376269L14.95857864376269,0.9L72.04142135623731,0.9L72.54142135623731,1.4L73.04142135623731,1.4L73.54142135623731,1.9L74.04142135623731,1.9L74.54142135623731,2.4L75.04142135623731,2.4L76.04142135623731,3.4L76.54142135623731,3.4L77.04142135623731,3.9L77.54142135623731,3.9L78.07071067811866,4.429289321881345L77.92928932188134,4.570710678118655L77.45857864376269,4.1L76.95857864376269,4.1L76.45857864376269,3.6L75.95857864376269,3.6L74.95857864376269,2.6L74.45857864376269,2.6L73.95857864376269,2.1L73.45857864376269,2.1L72.95857864376269,1.6L72.45857864376269,1.6L71.95857864376269,1.1L15.04142135623731,1.1L3.6,12.54142135623731L3.6,13.04142135623731L1.6,15.04142135623731L1.6,47.45857864376269L2.1,47.95857864376269L2.1,48.45857864376269L5.54142135623731,51.9L6.45857864376269,51.9L6.95857864376269,51.4L9.45857864376269,51.4L9.95857864376269,50.9L10.45857864376269,50.9L10.95857864376269,50.4L11.45857864376269,50.4L11.95857864376269,49.9L12.45857864376269,49.9L13.95857864376269,48.4L15.95857864376269,48.4L16.458578643762692,47.9L17.458578643762692,47.9L19.458578643762692,45.9L19.958578643762692,45.9L20.458578643762692,45.4L20.958578643762692,45.4L21.958578643762692,44.4L24.958578643762692,44.4L25.458578643762692,43.9L39.45857864376269,43.9L40.95857864376269,42.4L41.95857864376269,42.4L42.95857864376269,41.4L43.95857864376269,41.4L51.4,33.95857864376269L51.4,33.45857864376269L52.4,32.45857864376269L52.4,27.958578643762692L57.45857864376269,22.9L58.45857864376269,22.9L58.95857864376269,22.4z" stroke="none"/><path d="M76.42928932188134,81.07071067811866L76.57071067811866,80.92928932188134L79.04142135623731,83.4L80.54142135623731,83.4L81.04142135623731,83.9L83.54142135623731,83.9L85.04142135623731,85.4L87.04142135623731,85.4L87.54142135623731,85.9L94.95857864376269,85.9L95.45857864376269,85.4L96.95857864376269,85.4L97.9,84.45857864376269L97.9,82.45857864376269L98.4,81.95857864376269L98.4,80.45857864376269L98.9,79.95857864376269L98.9,77.45857864376269L99.9,76.45857864376269L99.9,75.95857864376269L100.4,75.45857864376269L100.4,74.95857864376269L101.4,73.95857864376269L101.4,71.54142135623731L99.4,69.54142135623731L99.4,68.04142135623731L98.92928932188134,67.57071067811866L99.07071067811866,67.42928932188134L99.6,67.95857864376269L99.6,69.45857864376269L101.6,71.45857864376269L101.6,74.04142135623731L100.6,75.04142135623731L100.6,75.54142135623731L100.1,76.04142135623731L100.1,76.54142135623731L99.1,77.54142135623731L99.1,80.04142135623731L98.6,80.54142135623731L98.6,82.04142135623731L98.1,82.54142135623731L98.1,84.54142135623731L97.04142135623731,85.6L95.54142135623731,85.6L95.04142135623731,86.1L87.45857864376269,86.1L86.95857864376269,85.6L84.95857864376269,85.6L83.45857864376269,84.1L80.95857864376269,84.1L80.45857864376269,83.6L78.95857864376269,83.6z" stroke="none"/><path d="M25.429289321881345,10.570710678118655L25.570710678118655,10.429289321881345L27.541421356237308,12.4L28.041421356237308,12.4L30.041421356237308,14.4L30.541421356237308,14.4L31.6,15.45857864376269L31.6,18.458578643762692L32.1,18.958578643762692L32.1,19.458578643762692L32.6,19.958578643762692L32.6,21.458578643762692L33.6,22.458578643762692L33.6,22.958578643762692L41.54142135623731,30.9L42.45857864376269,30.9L47.4,25.958578643762692L47.4,24.958578643762692L47.9,24.458578643762692L47.9,24L48.1,24L48.1,24.541421356237308L47.6,25.041421356237308L47.6,26.041421356237308L42.54142135623731,31.1L41.45857864376269,31.1L33.4,23.041421356237308L33.4,22.541421356237308L32.4,21.541421356237308L32.4,20.041421356237308L31.9,19.541421356237308L31.9,19.041421356237308L31.4,18.541421356237308L31.4,15.54142135623731L30.458578643762692,14.6L29.958578643762692,14.6L27.958578643762692,12.6L27.458578643762692,12.6z" stroke="none"/><path d="M10.570710678118655,95.92928932188134L10.429289321881345,96.07071067811866L3.4,89.04142135623731L3.4,88.54142135623731L2.4,87.54142135623731L2.4,86.54142135623731L1.4,85.54142135623731L1.4,56.95857864376269L2.4585786437626904,55.9L8.54142135623731,55.9L9.04142135623731,56.4L9.54142135623731,56.4L10.04142135623731,56.9L11.04142135623731,56.9L11.54142135623731,57.4L12.54142135623731,57.4L28.570710678118655,73.42928932188134L28.429289321881345,73.57071067811866L12.45857864376269,57.6L11.45857864376269,57.6L10.95857864376269,57.1L9.95857864376269,57.1L9.45857864376269,56.6L8.95857864376269,56.6L8.45857864376269,56.1L2.5414213562373096,56.1L1.6,57.04142135623731L1.6,85.45857864376269L2.6,86.45857864376269L2.6,87.45857864376269L3.6,88.45857864376269L3.6,88.95857864376269z" stroke="none"/><path d="M97.5,57.1L97.5,56.9L101.54142135623731,56.9L102.04142135623731,57.4L102.54142135623731,57.4L103.1,57.95857864376269L103.1,59.04142135623731L102.54142135623731,59.6L78.54142135623731,59.6L76.54142135623731,61.6L76.04142135623731,61.6L74.54142135623731,63.1L74.04142135623731,63.1L73.54142135623731,63.6L72.04142135623731,63.6L71.54142135623731,64.1L71.04142135623731,64.1L70.54142135623731,64.6L69,64.6L69,64.4L70.45857864376269,64.4L70.95857864376269,63.9L71.45857864376269,63.9L71.95857864376269,63.4L73.45857864376269,63.4L73.95857864376269,62.9L74.45857864376269,62.9L75.95857864376269,61.4L76.45857864376269,61.4L78.45857864376269,59.4L102.45857864376269,59.4L102.9,58.95857864376269L102.9,58.04142135623731L102.45857864376269,57.6L101.95857864376269,57.6L101.45857864376269,57.1z" stroke="none"/><path d="M55.42928932188134,35.92928932188134L55.57071067811866,36.07071067811866L52.1,39.54142135623731L52.1,40.54142135623731L51.6,41.04142135623731L51.6,41.54142135623731L50.04142135623731,43.1L43.04142135623731,43.1L42.54142135623731,43.6L41.54142135623731,43.6L40.54142135623731,44.6L32.04142135623731,44.6L31.541421356237308,45.1L31.041421356237308,45.1L30.541421356237308,45.6L28.041421356237308,45.6L26.041421356237308,47.6L23.541421356237308,47.6L22.541421356237308,48.6L21.541421356237308,48.6L20.541421356237308,49.6L19.541421356237308,49.6L19.041421356237308,50.1L16.541421356237308,50.1L16.041421356237308,50.6L15.54142135623731,50.6L15.04142135623731,51.1L14.54142135623731,51.1L14.04142135623731,51.6L11.04142135623731,51.6L10.54142135623731,52.1L7.54142135623731,52.1L7.04142135623731,52.6L4.95857864376269,52.6L0.9,48.54142135623731L0.9,14.45857864376269L2.4,12.95857864376269L2.4,12.45857864376269L14.45857864376269,0.4L74.04142135623731,0.4L76.54142135623731,2.9L77.54142135623731,2.9L78.04142135623731,3.4L78.54142135623731,3.4L81.1,5.95857864376269L81.1,6.45857864376269L81.6,6.95857864376269L81.6,7.45857864376269L82.1,7.95857864376269L82.1,9.54142135623731L81.54142135623731,10.1L79.04142135623731,10.1L78.54142135623731,10.6L77.04142135623731,10.6L76.54142135623731,11.1L75.54142135623731,11.1L74.54142135623731,12.1L73.5,12.1L73.5,11.9L74.45857864376269,11.9L75.45857864376269,10.9L76.45857864376269,10.9L76.95857864376269,10.4L78.45857864376269,10.4L78.95857864376269,9.9L81.45857864376269,9.9L81.9,9.45857864376269L81.9,8.04142135623731L81.4,7.54142135623731L81.4,7.04142135623731L80.9,6.54142135623731L80.9,6.04142135623731L78.45857864376269,3.6L77.95857864376269,3.6L77.45857864376269,3.1L76.45857864376269,3.1L73.95857864376269,0.6L14.54142135623731,0.6L2.6,12.54142135623731L2.6,13.04142135623731L1.1,14.54142135623731L1.1,48.45857864376269L5.04142135623731,52.4L6.95857864376269,52.4L7.45857864376269,51.9L10.45857864376269,51.9L10.95857864376269,51.4L13.95857864376269,51.4L14.45857864376269,50.9L14.95857864376269,50.9L15.45857864376269,50.4L15.95857864376269,50.4L16.458578643762692,49.9L18.958578643762692,49.9L19.458578643762692,49.4L20.458578643762692,49.4L21.458578643762692,48.4L22.458578643762692,48.4L23.458578643762692,47.4L25.958578643762692,47.4L27.958578643762692,45.4L30.458578643762692,45.4L30.958578643762692,44.9L31.458578643762692,44.9L31.958578643762692,44.4L40.45857864376269,44.4L41.45857864376269,43.4L42.45857864376269,43.4L42.95857864376269,42.9L49.95857864376269,42.9L51.4,41.45857864376269L51.4,40.95857864376269L51.9,40.45857864376269L51.9,39.45857864376269z" stroke="none"/><path d="M69.1,21L68.9,21L68.9,16.458578643762692L69.4,15.95857864376269L69.4,15.45857864376269L69.9,14.95857864376269L69.9,5.54142135623731L69.4,5.04142135623731L69.4,3.5414213562373096L67.95857864376269,2.1L47.04142135623731,2.1L46.54142135623731,2.6L46.04142135623731,2.6L45.54142135623731,3.1L45,3.1L45,2.9L45.45857864376269,2.9L45.95857864376269,2.4L46.45857864376269,2.4L46.95857864376269,1.9L68.04142135623731,1.9L69.6,3.4585786437626904L69.6,4.95857864376269L70.1,5.45857864376269L70.1,15.04142135623731L69.6,15.54142135623731L69.6,16.041421356237308L69.1,16.541421356237308z" stroke="none"/><path d="M76.5,100.4L76.5,100.6L75.04142135623731,100.6L72.54142135623731,103.1L72.04142135623731,103.1L71.04142135623731,104.1L57.95857864376269,104.1L57.45857864376269,103.6L56.95857864376269,103.6L56.45857864376269,103.1L55.45857864376269,103.1L49.95857864376269,97.6L49.45857864376269,97.6L48.95857864376269,97.1L47.95857864376269,97.1L47.45857864376269,96.6L46.95857864376269,96.6L46.42928932188134,96.07071067811866L46.57071067811866,95.92928932188134L47.04142135623731,96.4L47.54142135623731,96.4L48.04142135623731,96.9L49.04142135623731,96.9L49.54142135623731,97.4L50.04142135623731,97.4L55.54142135623731,102.9L56.54142135623731,102.9L57.04142135623731,103.4L57.54142135623731,103.4L58.04142135623731,103.9L70.95857864376269,103.9L71.95857864376269,102.9L72.45857864376269,102.9L74.95857864376269,100.4z" stroke="none"/><path d="M30.1,82.5L29.9,82.5L29.9,69.04142135623731L29.4,68.54142135623731L29.4,67.54142135623731L28.4,66.54142135623731L28.4,66.04142135623731L23.4,61.04142135623731L23.4,59.54142135623731L22.9,59.04142135623731L22.9,57.95857864376269L30.458578643762692,50.4L30.958578643762692,50.4L31.458578643762692,49.9L32.95857864376269,49.9L34.95857864376269,47.9L38.54142135623731,47.9L39.04142135623731,48.4L39.54142135623731,48.4L40.1,48.95857864376269L40.1,53.45857864376269L40.57071067811866,53.92928932188134L40.42928932188134,54.07071067811866L39.9,53.54142135623731L39.9,49.04142135623731L39.45857864376269,48.6L38.95857864376269,48.6L38.45857864376269,48.1L35.04142135623731,48.1L33.04142135623731,50.1L31.541421356237308,50.1L31.041421356237308,50.6L30.541421356237308,50.6L23.1,58.04142135623731L23.1,58.95857864376269L23.6,59.45857864376269L23.6,60.95857864376269L28.6,65.95857864376269L28.6,66.45857864376269L29.6,67.45857864376269L29.6,68.45857864376269L30.1,68.95857864376269z" stroke="none"/><path d="M85.5,86.9L85.5,87.1L70.04142135623731,87.1L69.54142135623731,87.6L68.54142135623731,87.6L68.04142135623731,88.1L66.95857864376269,88.1L66.4,87.54142135623731L66.4,86.54142135623731L65.9,86.04142135623731L65.9,85.54142135623731L65.4,85.04142135623731L65.4,84.54142135623731L64.4,83.54142135623731L64.4,83.04142135623731L63.9,82.54142135623731L63.9,80.54142135623731L58.45857864376269,75.1L57.45857864376269,75.1L56.95857864376269,74.6L56.45857864376269,74.6L55.9,74.04142135623731L55.9,68.45857864376269L56.4,67.95857864376269L56.4,67.04142135623731L55.95857864376269,66.6L55.04142135623731,66.6L54.6,67.04142135623731L54.6,77.45857864376269L55.1,77.95857864376269L55.1,79.95857864376269L55.6,80.45857864376269L55.6,81L55.4,81L55.4,80.54142135623731L54.9,80.04142135623731L54.9,78.04142135623731L54.4,77.54142135623731L54.4,66.95857864376269L54.95857864376269,66.4L56.04142135623731,66.4L56.6,66.95857864376269L56.6,68.04142135623731L56.1,68.54142135623731L56.1,73.95857864376269L56.54142135623731,74.4L57.04142135623731,74.4L57.54142135623731,74.9L58.54142135623731,74.9L64.1,80.45857864376269L64.1,82.45857864376269L64.6,82.95857864376269L64.6,83.45857864376269L65.6,84.45857864376269L65.6,84.95857864376269L66.1,85.45857864376269L66.1,85.95857864376269L66.6,86.45857864376269L66.6,87.45857864376269L67.04142135623731,87.9L67.95857864376269,87.9L68.45857864376269,87.4L69.45857864376269,87.4L69.95857864376269,86.9z" stroke="none"/><path d="M43.5,102.1L43.5,101.9L53.54142135623731,101.9L55.04142135623731,103.4L56.04142135623731,103.4L56.54142135623731,103.9L57.04142135623731,103.9L57.54142135623731,104.4L100.45857864376269,104.4L100.95857864376269,103.9L101.45857864376269,103.9L102.9,102.45857864376269L102.9,101.54142135623731L89.95857864376269,88.6L89.45857864376269,88.6L88.95857864376269,88.1L88.45857864376269,88.1L87.95857864376269,87.6L87.45857864376269,87.6L85.95857864376269,86.1L70.95857864376269,86.1L70.42928932188134,85.57071067811866L70.57071067811866,85.42928932188134L71.04142135623731,85.9L86.04142135623731,85.9L87.54142135623731,87.4L88.04142135623731,87.4L88.54142135623731,87.9L89.04142135623731,87.9L89.54142135623731,88.4L90.04142135623731,88.4L103.1,101.45857864376269L103.1,102.54142135623731L101.54142135623731,104.1L101.04142135623731,104.1L100.54142135623731,104.6L57.45857864376269,104.6L56.95857864376269,104.1L56.45857864376269,104.1L55.95857864376269,103.6L54.95857864376269,103.6L53.45857864376269,102.1z" stroke="none"/><path d="M3.1,99L2.9,99L2.9,92.04142135623731L2.4,91.54142135623731L2.4,90.04142135623731L1.4,89.04142135623731L1.4,87.54142135623731L0.9,87.04142135623731L0.9,56.45857864376269L1.9585786437626904,55.4L10.04142135623731,55.4L10.54142135623731,55.9L11.04142135623731,55.9L11.54142135623731,56.4L12.04142135623731,56.4L12.54142135623731,56.9L13.04142135623731,56.9L25.541421356237308,69.4L26.041421356237308,69.4L29.6,72.95857864376269L29.6,81.54142135623731L29.1,82.04142135623731L29.1,82.95857864376269L29.541421356237308,83.4L30.041421356237308,83.4L31.541421356237308,84.9L32.54142135623731,84.9L33.07071067811866,85.42928932188134L32.92928932188134,85.57071067811866L32.45857864376269,85.1L31.458578643762692,85.1L29.958578643762692,83.6L29.458578643762692,83.6L28.9,83.04142135623731L28.9,81.95857864376269L29.4,81.45857864376269L29.4,73.04142135623731L25.958578643762692,69.6L25.458578643762692,69.6L12.95857864376269,57.1L12.45857864376269,57.1L11.95857864376269,56.6L11.45857864376269,56.6L10.95857864376269,56.1L10.45857864376269,56.1L9.95857864376269,55.6L2.0414213562373096,55.6L1.1,56.54142135623731L1.1,86.95857864376269L1.6,87.45857864376269L1.6,88.95857864376269L2.6,89.95857864376269L2.6,91.45857864376269L3.1,91.95857864376269z" stroke="none"/><path d="M100.6,90L100.4,90L100.4,76.45857864376269L100.9,75.95857864376269L100.9,75.45857864376269L101.9,74.45857864376269L101.9,68.54142135623731L100.4,67.04142135623731L100.4,65.54142135623731L99.9,65.04142135623731L99.9,64.04142135623731L99.45857864376269,63.6L77.54142135623731,63.6L77.04142135623731,64.1L74.04142135623731,64.1L73.57071067811866,64.57071067811866L73.42928932188134,64.42928932188134L73.95857864376269,63.9L76.95857864376269,63.9L77.45857864376269,63.4L99.54142135623731,63.4L100.1,63.95857864376269L100.1,64.95857864376269L100.6,65.45857864376269L100.6,66.95857864376269L102.1,68.45857864376269L102.1,74.54142135623731L101.1,75.54142135623731L101.1,76.04142135623731L100.6,76.54142135623731z" stroke="none"/><path d="M4.4,96L4.6,96L4.6,98.04142135623731L4.1,98.54142135623731L4.1,99.54142135623731L3.5414213562373096,100.1L2.4585786437626904,100.1L1.9,99.54142135623731L1.9,90.54142135623731L0.4,89.04142135623731L0.4,55.95857864376269L1.4585786437626904,54.9L11.04142135623731,54.9L12.04142135623731,55.9L12.54142135623731,55.9L13.04142135623731,56.4L13.54142135623731,56.4L20.041421356237308,62.9L20.541421356237308,62.9L21.041421356237308,63.4L22.541421356237308,63.4L23.541421356237308,64.4L25.041421356237308,64.4L26.541421356237308,65.9L27,65.9L27,66.1L26.458578643762692,66.1L24.958578643762692,64.6L23.458578643762692,64.6L22.458578643762692,63.6L20.958578643762692,63.6L20.458578643762692,63.1L19.958578643762692,63.1L13.45857864376269,56.6L12.95857864376269,56.6L12.45857864376269,56.1L11.95857864376269,56.1L10.95857864376269,55.1L1.5414213562373096,55.1L0.6,56.04142135623731L0.6,88.95857864376269L2.1,90.45857864376269L2.1,99.45857864376269L2.5414213562373096,99.9L3.4585786437626904,99.9L3.9,99.45857864376269L3.9,98.45857864376269L4.4,97.95857864376269z" stroke="none"/></svg>