<svg version="1.1" width="105" height="105" xmlns="http://www.w3.org/2000/svg"><path d="M29.5,13.85857864376269L35.95857864376269,7.4L37.95857864376269,7.4L38.95857864376269,6.4L40.95857864376269,6.4L41.45857864376269,5.9L42,5.9L42,6.1L41.54142135623731,6.1L41.04142135623731,6.6L39.04142135623731,6.6L38.04142135623731,7.6L36.04142135623731,7.6L20.541421356237308,23.1L20.041421356237308,23.1L19.541421356237308,23.6L18.541421356237308,23.6L18.070710678118655,24.070710678118655L17.929289321881345,23.929289321881345L18.458578643762692,23.4L19.458578643762692,23.4L19.958578643762692,22.9L20.458578643762692,22.9L29.35857864376269,14L28.9,13.54142135623731L28.9,12.54142135623731L28.429289321881345,12.070710678118655L28.570710678118655,11.929289321881345L29.1,12.45857864376269L29.1,13.45857864376269z" stroke="none"/><path d="M85.04142135623731,67.4L85.54142135623731,67.9L87.04142135623731,67.9L87.54142135623731,68.4L88.95857864376269,68.4L89.4,67.95857864376269L89.4,59.45857864376269L89.9,58.95857864376269L89.9,58.5L90.1,58.5L90.1,59.04142135623731L89.6,59.54142135623731L89.6,68.04142135623731L89.04142135623731,68.6L87.45857864376269,68.6L86.95857864376269,68.1L85.45857864376269,68.1L84.95857864376269,67.6L76.04142135623731,67.6L75.54142135623731,68.1L75.04142135623731,68.1L74.04142135623731,69.1L73.54142135623731,69.1L72.07071067811866,70.57071067811866L71.92928932188134,70.42928932188134L73.45857864376269,68.9L73.95857864376269,68.9L74.95857864376269,67.9L75.45857864376269,67.9L75.75857864376269,67.6L74.54142135623731,67.6L73.54142135623731,68.6L73.04142135623731,68.6L69.54142135623731,72.1L68.04142135623731,72.1L67.54142135623731,72.6L67.04142135623731,72.6L66.07071067811866,73.57071067811866L65.92928932188134,73.42928932188134L66.95857864376269,72.4L67.45857864376269,72.4L67.95857864376269,71.9L69.45857864376269,71.9L72.95857864376269,68.4L73.45857864376269,68.4L74.45857864376269,67.4z" stroke="none"/><path d="M28.9,75.4L28.9,74.95857864376269L32.4,71.45857864376269L32.4,70.95857864376269L33.9,69.45857864376269L33.9,68.95857864376269L34.4,68.45857864376269L34.4,67.95857864376269L34.9,67.45857864376269L34.9,65.95857864376269L35.4,65.45857864376269L35.4,64.95857864376269L35.92928932188134,64.42928932188134L36.07071067811866,64.57071067811866L35.6,65.04142135623731L35.6,65.54142135623731L35.1,66.04142135623731L35.1,67.54142135623731L34.6,68.04142135623731L34.6,68.54142135623731L34.1,69.04142135623731L34.1,69.54142135623731L32.6,71.04142135623731L32.6,71.54142135623731L29.1,75.04142135623731L29.1,75.4L33.45857864376269,75.4L33.95857864376269,74.9L34.5,74.9L34.5,75.1L34.04142135623731,75.1L33.54142135623731,75.6L28.541421356237308,75.6L27.541421356237308,76.6L27.041421356237308,76.6L16.570710678118655,87.07071067811866L16.429289321881345,86.92928932188134L26.958578643762692,76.4L27.458578643762692,76.4L28.458578643762692,75.4z" stroke="none"/><path d="M45.04142135623731,89.9L45.54142135623731,89.9L48.04142135623731,92.4L50.04142135623731,92.4L50.54142135623731,92.9L51.04142135623731,92.9L54.04142135623731,95.9L54.54142135623731,95.9L55.04142135623731,96.4L55.54142135623731,96.4L56.54142135623731,97.4L57,97.4L57,97.6L56.45857864376269,97.6L55.45857864376269,96.6L54.95857864376269,96.6L54.45857864376269,96.1L53.95857864376269,96.1L50.95857864376269,93.1L50.45857864376269,93.1L49.95857864376269,92.6L47.95857864376269,92.6L45.45857864376269,90.1L45.04142135623731,90.1L40.57071067811866,94.57071067811866L40.42928932188134,94.42928932188134L44.85857864376269,90L41.4,86.54142135623731L41.4,85.54142135623731L40.4,84.54142135623731L40.4,83.04142135623731L39.4,82.04142135623731L39.4,80.04142135623731L37.42928932188134,78.07071067811866L37.57071067811866,77.92928932188134L39.6,79.95857864376269L39.6,81.95857864376269L40.6,82.95857864376269L40.6,84.45857864376269L41.6,85.45857864376269L41.6,86.45857864376269z" stroke="none"/><path d="M33.95857864376269,21.9L43.95857864376269,11.9L45,11.9L45,12.1L44.04142135623731,12.1L34.1,22.041421356237308L34.1,23.041421356237308L33.6,23.541421356237308L33.6,24.541421356237308L33.1,25.041421356237308L33.1,26.041421356237308L32.6,26.541421356237308L32.6,31.541421356237308L31.6,32.54142135623731L31.6,33.04142135623731L30.070710678118655,34.57071067811866L29.929289321881345,34.42928932188134L31.4,32.95857864376269L31.4,32.45857864376269L32.4,31.458578643762692L32.4,26.458578643762692L32.9,25.958578643762692L32.9,24.958578643762692L33.4,24.458578643762692L33.4,23.458578643762692L33.9,22.958578643762692L33.9,22.1L33.45857864376269,22.1L31.958578643762692,20.6L29.958578643762692,20.6L28.958578643762692,19.6L27,19.6L27,19.4L29.041421356237308,19.4L30.041421356237308,20.4L32.04142135623731,20.4L33.54142135623731,21.9z" stroke="none"/><path d="M77.54142135623731,62.4L78.54142135623731,62.4L79.04142135623731,62.9L81.54142135623731,62.9L82.54142135623731,63.9L83.04142135623731,63.9L83.54142135623731,64.4L84.04142135623731,64.4L84.54142135623731,64.9L85.04142135623731,64.9L87.04142135623731,66.9L87.54142135623731,66.9L88.04142135623731,67.4L88.5,67.4L88.5,67.6L87.95857864376269,67.6L87.45857864376269,67.1L86.95857864376269,67.1L84.95857864376269,65.1L84.45857864376269,65.1L83.95857864376269,64.6L83.45857864376269,64.6L82.95857864376269,64.1L82.45857864376269,64.1L81.45857864376269,63.1L78.95857864376269,63.1L78.45857864376269,62.6L77.45857864376269,62.6L76.5,61.64142135623731L75.54142135623731,62.6L69.95857864376269,62.6L68.95857864376269,61.6L67.5,61.6L67.5,61.4L69.04142135623731,61.4L70.04142135623731,62.4L75.45857864376269,62.4L76.35857864376268,61.5L70.42928932188134,55.57071067811866L70.57071067811866,55.42928932188134z" stroke="none"/><path d="M94.4,82.45857864376269L94.4,76.95857864376269L94.9,76.45857864376269L94.9,75.95857864376269L95.4,75.45857864376269L95.4,71.45857864376269L95.9,70.95857864376269L95.9,69.95857864376269L96.4,69.45857864376269L96.4,68.95857864376269L96.9,68.45857864376269L96.9,67.45857864376269L98.4,65.95857864376269L98.4,65.45857864376269L98.9,64.95857864376269L98.9,64.5L99.1,64.5L99.1,65.04142135623731L98.6,65.54142135623731L98.6,66.04142135623731L97.1,67.54142135623731L97.1,68.54142135623731L96.6,69.04142135623731L96.6,69.54142135623731L96.1,70.04142135623731L96.1,71.04142135623731L95.6,71.54142135623731L95.6,75.54142135623731L95.1,76.04142135623731L95.1,76.54142135623731L94.6,77.04142135623731L94.6,82.45857864376269L100.57071067811866,88.42928932188134L100.42928932188134,88.57071067811866L94.5,82.64142135623732L84.6,92.54142135623731L84.6,93.54142135623731L84.1,94.04142135623731L84.1,94.5L83.9,94.5L83.9,93.95857864376269L84.4,93.45857864376269L84.4,92.45857864376269z" stroke="none"/><path d="M87.45857864376269,28.4L89.45857864376269,26.4L94.95857864376269,26.4L95.45857864376269,25.9L96.95857864376269,25.9L97.42928932188134,25.429289321881345L97.57071067811866,25.570710678118655L97.04142135623731,26.1L95.54142135623731,26.1L95.04142135623731,26.6L89.54142135623731,26.6L87.64142135623732,28.5L94.1,34.95857864376269L94.1,35.45857864376269L94.57071067811866,35.92928932188134L94.42928932188134,36.07071067811866L93.9,35.54142135623731L93.9,35.04142135623731L87.45857864376269,28.6L85.95857864376269,28.6L84.45857864376269,27.1L80.45857864376269,27.1L79.45857864376269,26.1L78.95857864376269,26.1L78.45857864376269,25.6L72.45857864376269,25.6L70.95857864376269,24.1L70.5,24.1L70.5,23.9L71.04142135623731,23.9L72.54142135623731,25.4L78.54142135623731,25.4L79.04142135623731,25.9L79.54142135623731,25.9L80.54142135623731,26.9L84.54142135623731,26.9L86.04142135623731,28.4z" stroke="none"/><path d="M30.4,31.9L30.4,31.541421356237308L29.958578643762692,31.1L29.458578643762692,31.1L28.958578643762692,30.6L28.458578643762692,30.6L27.958578643762692,30.1L27.458578643762692,30.1L23.958578643762692,26.6L23.458578643762692,26.6L22.958578643762692,26.1L20.458578643762692,26.1L19.458578643762692,25.1L17.458578643762692,25.1L16.9,24.541421356237308L16.9,21.958578643762692L17.4,21.458578643762692L17.4,20.458578643762692L17.9,19.958578643762692L17.9,19.5L18.1,19.5L18.1,20.041421356237308L17.6,20.541421356237308L17.6,21.541421356237308L17.1,22.041421356237308L17.1,24.458578643762692L17.541421356237308,24.9L19.541421356237308,24.9L20.541421356237308,25.9L23.041421356237308,25.9L23.541421356237308,26.4L24.041421356237308,26.4L27.541421356237308,29.9L28.041421356237308,29.9L28.541421356237308,30.4L29.041421356237308,30.4L29.541421356237308,30.9L30.041421356237308,30.9L30.6,31.458578643762692L30.6,32.54142135623731L29.1,34.04142135623731L29.1,39.54142135623731L28.6,40.04142135623731L28.6,40.54142135623731L27.070710678118655,42.07071067811866L26.929289321881345,41.92928932188134L28.4,40.45857864376269L28.4,39.95857864376269L28.9,39.45857864376269L28.9,33.95857864376269L30.4,32.45857864376269L30.4,32.1L30.041421356237308,32.1L28.6,33.54142135623731L28.6,36.54142135623731L28.1,37.04142135623731L28.1,38.54142135623731L27.6,39.04142135623731L27.6,40.54142135623731L26.6,41.54142135623731L26.6,42.45857864376269L27.041421356237308,42.9L31.458578643762692,42.9L31.958578643762692,42.4L33.45857864376269,42.4L33.95857864376269,41.9L34.95857864376269,41.9L35.45857864376269,41.4L36.45857864376269,41.4L37.95857864376269,39.9L38.45857864376269,39.9L40.45857864376269,37.9L42.45857864376269,37.9L45.95857864376269,34.4L46.5,34.4L46.5,34.6L46.04142135623731,34.6L42.54142135623731,38.1L40.54142135623731,38.1L38.54142135623731,40.1L38.04142135623731,40.1L36.54142135623731,41.6L35.54142135623731,41.6L35.04142135623731,42.1L34.04142135623731,42.1L33.54142135623731,42.6L32.04142135623731,42.6L31.541421356237308,43.1L26.958578643762692,43.1L26.4,42.54142135623731L26.4,41.45857864376269L27.4,40.45857864376269L27.4,38.95857864376269L27.9,38.45857864376269L27.9,36.95857864376269L28.4,36.45857864376269L28.4,33.45857864376269L29.958578643762692,31.9z" stroke="none"/><path d="M58.95857864376269,13.9L63.95857864376269,8.9L64.45857864376269,8.9L66.45857864376269,6.9L67.45857864376269,6.9L68.45857864376269,5.9L69,5.9L69,6.1L68.54142135623731,6.1L67.54142135623731,7.1L66.54142135623731,7.1L64.54142135623731,9.1L64.04142135623731,9.1L59.14142135623731,14L64.6,19.458578643762692L64.6,20.958578643762692L65.1,21.458578643762692L65.1,22.958578643762692L65.6,23.458578643762692L65.6,23.958578643762692L66.1,24.458578643762692L66.1,25.958578643762692L67.1,26.958578643762692L67.1,27.958578643762692L67.57071067811866,28.429289321881345L67.42928932188134,28.570710678118655L66.9,28.041421356237308L66.9,27.041421356237308L65.9,26.041421356237308L65.9,24.541421356237308L65.4,24.041421356237308L65.4,23.541421356237308L64.9,23.041421356237308L64.9,21.541421356237308L64.4,21.041421356237308L64.4,19.541421356237308L58.95857864376269,14.1L55.95857864376269,14.1L54.95857864376269,13.1L54.45857864376269,13.1L53.95857864376269,12.6L50.45857864376269,12.6L49.95857864376269,12.1L49.45857864376269,12.1L48.95857864376269,11.6L47.95857864376269,11.6L46.95857864376269,10.6L44.95857864376269,10.6L44.45857864376269,10.1L43.95857864376269,10.1L41.95857864376269,8.1L40.95857864376269,8.1L40.42928932188134,7.570710678118655L40.57071067811866,7.429289321881345L41.04142135623731,7.9L42.04142135623731,7.9L44.04142135623731,9.9L44.54142135623731,9.9L45.04142135623731,10.4L47.04142135623731,10.4L48.04142135623731,11.4L49.04142135623731,11.4L49.54142135623731,11.9L50.04142135623731,11.9L50.54142135623731,12.4L54.04142135623731,12.4L54.54142135623731,12.9L55.04142135623731,12.9L56.04142135623731,13.9z" stroke="none"/><path d="M53.4,89.25857864376269L53.4,88.04142135623731L51.4,86.04142135623731L51.4,84.54142135623731L50.9,84.04142135623731L50.9,83.54142135623731L49.9,82.54142135623731L49.9,81.54142135623731L49.42928932188134,81.07071067811866L49.57071067811866,80.92928932188134L50.1,81.45857864376269L50.1,82.45857864376269L51.1,83.45857864376269L51.1,83.95857864376269L51.6,84.45857864376269L51.6,85.95857864376269L53.6,87.95857864376269L53.6,89.4L56.04142135623731,89.4L56.54142135623731,89.9L57.04142135623731,89.9L58.04142135623731,90.9L60.54142135623731,90.9L61.04142135623731,91.4L62.04142135623731,91.4L62.54142135623731,91.9L63.54142135623731,91.9L64.04142135623731,92.4L65.54142135623731,92.4L66.07071067811866,92.92928932188134L65.92928932188134,93.07071067811866L65.45857864376269,92.6L63.95857864376269,92.6L63.45857864376269,92.1L62.45857864376269,92.1L61.95857864376269,91.6L60.95857864376269,91.6L60.45857864376269,91.1L57.95857864376269,91.1L56.95857864376269,90.1L56.45857864376269,90.1L55.95857864376269,89.6L53.74142135623731,89.6L55.1,90.95857864376269L55.1,91.95857864376269L56.1,92.95857864376269L56.1,93.45857864376269L57.1,94.45857864376269L57.1,95.45857864376269L58.1,96.45857864376269L58.1,98.04142135623731L57.54142135623731,98.6L49.95857864376269,98.6L49.45857864376269,98.1L48.45857864376269,98.1L47.92928932188134,97.57071067811866L48.07071067811866,97.42928932188134L48.54142135623731,97.9L49.54142135623731,97.9L50.04142135623731,98.4L57.45857864376269,98.4L57.9,97.95857864376269L57.9,96.54142135623731L56.9,95.54142135623731L56.9,94.54142135623731L55.9,93.54142135623731L55.9,93.04142135623731L54.9,92.04142135623731L54.9,91.04142135623731L50.92928932188134,87.07071067811866L51.07071067811866,86.92928932188134z" stroke="none"/><path d="M82.4,19.4L82.4,18.958578643762692L83.9,17.458578643762692L83.9,15.45857864376269L84.4,14.95857864376269L84.4,14.45857864376269L84.9,13.95857864376269L84.9,13.45857864376269L85.9,12.45857864376269L85.9,10.95857864376269L86.9,9.95857864376269L86.9,9L87.1,9L87.1,10.04142135623731L86.1,11.04142135623731L86.1,12.54142135623731L85.1,13.54142135623731L85.1,14.04142135623731L84.6,14.54142135623731L84.6,15.04142135623731L84.1,15.54142135623731L84.1,17.541421356237308L82.6,19.041421356237308L82.6,19.4L87,19.4L87,19.6L82.6,19.6L82.6,20.041421356237308L81.54142135623731,21.1L81.04142135623731,21.1L80.54142135623731,21.6L78.04142135623731,21.6L77.54142135623731,22.1L76.04142135623731,22.1L75.54142135623731,22.6L75.04142135623731,22.6L74.54142135623731,23.1L70.04142135623731,23.1L69.6,23.541421356237308L69.6,24.458578643762692L75.54142135623731,30.4L76.04142135623731,30.4L76.54142135623731,30.9L77.54142135623731,30.9L78.07071067811866,31.429289321881345L77.92928932188134,31.570710678118655L77.45857864376269,31.1L76.45857864376269,31.1L75.95857864376269,30.6L75.45857864376269,30.6L69.4,24.541421356237308L69.4,23.458578643762692L69.95857864376269,22.9L74.45857864376269,22.9L74.95857864376269,22.4L75.45857864376269,22.4L75.95857864376269,21.9L77.45857864376269,21.9L77.95857864376269,21.4L80.45857864376269,21.4L80.95857864376269,20.9L81.45857864376269,20.9L82.4,19.958578643762692L82.4,19.6L78,19.6L78,19.4z" stroke="none"/><path d="M74.9,46.9L74.9,46.54142135623731L71.9,43.54142135623731L71.9,41.04142135623731L71.4,40.54142135623731L71.4,40.04142135623731L70.4,39.04142135623731L70.4,37.54142135623731L69.4,36.54142135623731L69.4,33.54142135623731L68.92928932188134,33.07071067811866L69.07071067811866,32.92928932188134L69.6,33.45857864376269L69.6,36.45857864376269L70.6,37.45857864376269L70.6,38.95857864376269L71.6,39.95857864376269L71.6,40.45857864376269L72.1,40.95857864376269L72.1,43.45857864376269L75.1,46.45857864376269L75.1,46.9L75.54142135623731,46.9L85.04142135623731,56.4L86.54142135623731,56.4L87.07071067811866,56.92928932188134L86.92928932188134,57.07071067811866L86.45857864376269,56.6L84.95857864376269,56.6L75.45857864376269,47.1L75.1,47.1L75.1,52.5L74.9,52.5L74.9,47.1L71.95857864376269,47.1L71.45857864376269,46.6L70.5,46.6L70.5,46.4L71.54142135623731,46.4L72.04142135623731,46.9z" stroke="none"/><path d="M55.4,46.4L55.4,40.5L55.6,40.5L55.6,46.4L56.95857864376269,46.4L58.45857864376269,44.9L61.95857864376269,44.9L62.45857864376269,44.4L64.95857864376269,44.4L65.45857864376269,43.9L66.95857864376269,43.9L67.42928932188134,43.42928932188134L67.57071067811866,43.57071067811866L67.04142135623731,44.1L65.54142135623731,44.1L65.04142135623731,44.6L62.54142135623731,44.6L62.04142135623731,45.1L58.54142135623731,45.1L57.04142135623731,46.6L55.6,46.6L55.6,60.45857864376269L59.1,63.95857864376269L59.1,64.45857864376269L60.1,65.45857864376269L60.1,66L59.9,66L59.9,65.54142135623731L58.9,64.54142135623731L58.9,64.04142135623731L55.4,60.54142135623731L55.4,46.6L54.95857864376269,46.6L52.9,44.54142135623731L52.9,43.04142135623731L51.9,42.04142135623731L51.9,41.54142135623731L51.4,41.04142135623731L51.4,40.54142135623731L50.9,40.04142135623731L50.9,39.04142135623731L50.4,38.54142135623731L50.4,38.04142135623731L47.4,35.04142135623731L47.4,34.04142135623731L46.95857864376269,33.6L46.04142135623731,33.6L45.54142135623731,34.1L44.54142135623731,34.1L43.54142135623731,35.1L42.04142135623731,35.1L41.54142135623731,35.6L41.04142135623731,35.6L40.57071067811866,36.07071067811866L40.42928932188134,35.92928932188134L40.95857864376269,35.4L41.45857864376269,35.4L41.95857864376269,34.9L43.45857864376269,34.9L44.45857864376269,33.9L45.45857864376269,33.9L45.95857864376269,33.4L47.04142135623731,33.4L47.6,33.95857864376269L47.6,34.95857864376269L50.6,37.95857864376269L50.6,38.45857864376269L51.1,38.95857864376269L51.1,39.95857864376269L51.6,40.45857864376269L51.6,40.95857864376269L52.1,41.45857864376269L52.1,41.95857864376269L53.1,42.95857864376269L53.1,44.45857864376269L55.04142135623731,46.4z" stroke="none"/><path d="M90.9,38.9L90.9,38.45857864376269L91.45857864376269,37.9L93.95857864376269,37.9L94.45857864376269,37.4L97.5,37.4L97.5,37.6L94.54142135623731,37.6L94.04142135623731,38.1L91.54142135623731,38.1L91.1,38.54142135623731L91.1,38.9L91.54142135623731,38.9L92.54142135623731,39.9L93.54142135623731,39.9L94.04142135623731,40.4L97.5,40.4L97.5,40.6L93.95857864376269,40.6L93.45857864376269,40.1L92.45857864376269,40.1L91.45857864376269,39.1L91.1,39.1L91.1,53.54142135623731L90.6,54.04142135623731L90.6,55.04142135623731L87.54142135623731,58.1L86.45857864376269,58.1L85.95857864376269,57.6L85.45857864376269,57.6L84.95857864376269,57.1L84.45857864376269,57.1L80.45857864376269,53.1L79.95857864376269,53.1L79.42928932188134,52.57071067811866L79.57071067811866,52.42928932188134L80.04142135623731,52.9L80.54142135623731,52.9L84.54142135623731,56.9L85.04142135623731,56.9L85.54142135623731,57.4L86.04142135623731,57.4L86.54142135623731,57.9L87.45857864376269,57.9L90.4,54.95857864376269L90.4,53.95857864376269L90.9,53.45857864376269L90.9,39.1L90.45857864376269,39.1L89.9,38.54142135623731L89.9,37.95857864376269L90.45857864376269,37.4L92.95857864376269,37.4L93.45857864376269,36.9L94.95857864376269,36.9L95.4,36.45857864376269L95.4,29.958578643762692L95.9,29.458578643762692L95.9,28.458578643762692L98.4,25.958578643762692L98.4,25.041421356237308L97.95857864376269,24.6L92.04142135623731,24.6L91.54142135623731,25.1L90.54142135623731,25.1L90.07071067811866,25.570710678118655L89.92928932188134,25.429289321881345L90.45857864376269,24.9L91.45857864376269,24.9L91.95857864376269,24.4L98.04142135623731,24.4L98.6,24.958578643762692L98.6,26.041421356237308L96.1,28.541421356237308L96.1,29.541421356237308L95.6,30.041421356237308L95.6,36.54142135623731L95.04142135623731,37.1L93.54142135623731,37.1L93.04142135623731,37.6L90.54142135623731,37.6L90.1,38.04142135623731L90.1,38.45857864376269L90.54142135623731,38.9z" stroke="none"/><path d="M21.9,76.9L21.9,76.45857864376269L22.4,75.95857864376269L22.4,75.45857864376269L23.4,74.45857864376269L23.4,72.95857864376269L23.9,72.45857864376269L23.9,71.95857864376269L25.429289321881345,70.42928932188134L25.570710678118655,70.57071067811866L24.1,72.04142135623731L24.1,72.54142135623731L23.6,73.04142135623731L23.6,74.54142135623731L22.6,75.54142135623731L22.6,76.04142135623731L22.1,76.54142135623731L22.1,76.9L22.541421356237308,76.9L23.1,77.45857864376269L23.1,78.04142135623731L22.6,78.54142135623731L22.6,79.04142135623731L17.1,84.54142135623731L17.1,85.04142135623731L15.6,86.54142135623731L15.6,87.45857864376269L16.041421356237308,87.9L32.45857864376269,87.9L34.95857864376269,85.4L35.45857864376269,85.4L36.45857864376269,84.4L36.95857864376269,84.4L37.42928932188134,83.92928932188134L37.57071067811866,84.07071067811866L37.04142135623731,84.6L36.54142135623731,84.6L35.54142135623731,85.6L35.04142135623731,85.6L32.54142135623731,88.1L15.95857864376269,88.1L15.4,87.54142135623731L15.4,86.45857864376269L16.9,84.95857864376269L16.9,84.45857864376269L22.4,78.95857864376269L22.4,78.45857864376269L22.9,77.95857864376269L22.9,77.54142135623731L22.458578643762692,77.1L22.1,77.1L22.1,78.54142135623731L20.541421356237308,80.1L19.041421356237308,80.1L18.541421356237308,80.6L11.54142135623731,80.6L10.04142135623731,82.1L9.54142135623731,82.1L9.070710678118655,82.57071067811866L8.929289321881345,82.42928932188134L9.45857864376269,81.9L9.95857864376269,81.9L11.45857864376269,80.4L18.458578643762692,80.4L18.958578643762692,79.9L20.458578643762692,79.9L21.9,78.45857864376269L21.9,77.1L21.458578643762692,77.1L20.458578643762692,76.1L19.958578643762692,76.1L19.458578643762692,75.6L18.958578643762692,75.6L17.958578643762692,74.6L17.458578643762692,74.6L16.958578643762692,74.1L15.45857864376269,74.1L14.929289321881345,73.57071067811866L15.070710678118655,73.42928932188134L15.54142135623731,73.9L17.041421356237308,73.9L17.541421356237308,74.4L18.041421356237308,74.4L19.041421356237308,75.4L19.541421356237308,75.4L20.041421356237308,75.9L20.541421356237308,75.9L21.541421356237308,76.9z" stroke="none"/><path d="M61.5,71.85857864376268L64.45857864376269,68.9L64.95857864376269,68.9L66.95857864376269,66.9L67.45857864376269,66.9L68.45857864376269,65.9L69,65.9L69,66.1L68.54142135623731,66.1L67.54142135623731,67.1L67.04142135623731,67.1L65.04142135623731,69.1L64.54142135623731,69.1L61.64142135623731,72L64.1,74.45857864376269L64.1,75.95857864376269L64.6,76.45857864376269L64.6,76.95857864376269L65.1,77.45857864376269L65.1,77.95857864376269L66.1,78.95857864376269L66.1,79.5L65.9,79.5L65.9,79.04142135623731L64.9,78.04142135623731L64.9,77.54142135623731L64.4,77.04142135623731L64.4,76.54142135623731L63.9,76.04142135623731L63.9,74.54142135623731L61.5,72.14142135623732L55.57071067811866,78.07071067811866L55.42928932188134,77.92928932188134L61.35857864376269,72L59.4,70.04142135623731L59.4,69.54142135623731L58.9,69.04142135623731L58.9,68.04142135623731L56.92928932188134,66.07071067811866L57.07071067811866,65.92928932188134L59.1,67.95857864376269L59.1,68.95857864376269L59.6,69.45857864376269L59.6,69.95857864376269z" stroke="none"/><path d="M15,35.85857864376269L15.4,35.45857864376269L15.4,34.95857864376269L15.9,34.45857864376269L15.9,33.95857864376269L16.4,33.45857864376269L16.4,32.95857864376269L19.429289321881345,29.929289321881345L19.570710678118655,30.070710678118655L16.6,33.04142135623731L16.6,33.54142135623731L16.1,34.04142135623731L16.1,34.54142135623731L15.6,35.04142135623731L15.6,35.54142135623731L15.241421356237309,35.9L16.458578643762692,35.9L16.958578643762692,35.4L17.458578643762692,35.4L17.958578643762692,34.9L22.458578643762692,34.9L22.958578643762692,34.4L25.458578643762692,34.4L26.929289321881345,32.92928932188134L27.070710678118655,33.07071067811866L25.541421356237308,34.6L23.041421356237308,34.6L22.541421356237308,35.1L18.041421356237308,35.1L17.541421356237308,35.6L17.041421356237308,35.6L16.541421356237308,36.1L15.04142135623731,36.1L14.1,37.04142135623731L14.1,38.54142135623731L13.6,39.04142135623731L13.6,44.54142135623731L12.6,45.54142135623731L12.6,46.04142135623731L12.1,46.54142135623731L12.1,48.04142135623731L11.6,48.54142135623731L11.6,50.04142135623731L9.1,52.54142135623731L9.1,53.54142135623731L8.1,54.54142135623731L8.1,55.04142135623731L7.570710678118655,55.57071067811866L7.429289321881345,55.42928932188134L7.9,54.95857864376269L7.9,54.45857864376269L8.9,53.45857864376269L8.9,52.45857864376269L11.4,49.95857864376269L11.4,48.45857864376269L11.9,47.95857864376269L11.9,46.45857864376269L12.4,45.95857864376269L12.4,45.45857864376269L13.4,44.45857864376269L13.4,38.95857864376269L13.9,38.45857864376269L13.9,36.95857864376269L14.85857864376269,36L5.929289321881345,27.070710678118655L6.070710678118655,26.929289321881345z" stroke="none"/><path d="M46.4,16.4L46.4,12.04142135623731L45.45857864376269,11.1L39.95857864376269,11.1L39.45857864376269,10.6L39,10.6L39,10.4L39.54142135623731,10.4L40.04142135623731,10.9L45.54142135623731,10.9L46.6,11.95857864376269L46.6,16.4L47.04142135623731,16.4L47.6,16.958578643762692L47.6,18.958578643762692L48.1,19.458578643762692L48.1,19.958578643762692L48.6,20.458578643762692L48.6,25.458578643762692L50.1,26.958578643762692L50.1,27.458578643762692L51.07071067811866,28.429289321881345L50.92928932188134,28.570710678118655L49.9,27.541421356237308L49.9,27.041421356237308L48.4,25.541421356237308L48.4,20.541421356237308L47.9,20.041421356237308L47.9,19.541421356237308L47.4,19.041421356237308L47.4,17.041421356237308L46.95857864376269,16.6L46.6,16.6L46.6,18.458578643762692L47.1,18.958578643762692L47.1,19.958578643762692L47.6,20.458578643762692L47.6,20.958578643762692L48.1,21.458578643762692L48.1,25.5L47.9,25.5L47.9,21.541421356237308L47.4,21.041421356237308L47.4,20.541421356237308L46.9,20.041421356237308L46.9,19.041421356237308L46.4,18.541421356237308L46.4,16.6L46.04142135623731,16.6L45.6,17.041421356237308L45.6,21.958578643762692L46.1,22.458578643762692L46.1,22.958578643762692L46.6,23.458578643762692L46.6,24.458578643762692L47.1,24.958578643762692L47.1,25.458578643762692L50.54142135623731,28.9L66.04142135623731,28.9L66.54142135623731,29.4L67.95857864376269,29.4L68.4,28.958578643762692L68.4,10.45857864376269L68.9,9.95857864376269L68.9,8.95857864376269L69.4,8.45857864376269L69.4,7.45857864376269L69.9,6.95857864376269L69.9,5.54142135623731L69.45857864376269,5.1L66.45857864376269,5.1L64.45857864376269,3.1L48,3.1L48,2.9L64.54142135623731,2.9L66.54142135623731,4.9L69.54142135623731,4.9L70.1,5.45857864376269L70.1,7.04142135623731L69.6,7.54142135623731L69.6,8.54142135623731L69.1,9.04142135623731L69.1,10.04142135623731L68.6,10.54142135623731L68.6,29.041421356237308L68.04142135623731,29.6L66.45857864376269,29.6L65.95857864376269,29.1L50.45857864376269,29.1L46.9,25.541421356237308L46.9,25.041421356237308L46.4,24.541421356237308L46.4,23.541421356237308L45.9,23.041421356237308L45.9,22.541421356237308L45.4,22.041421356237308L45.4,16.958578643762692L45.95857864376269,16.4z" stroke="none"/><path d="M12.4,68.4L12.4,56.54142135623731L11.9,56.04142135623731L11.9,55.5L12.1,55.5L12.1,55.95857864376269L12.6,56.45857864376269L12.6,68.4L26.458578643762692,68.4L26.958578643762692,67.9L28.458578643762692,67.9L29.958578643762692,66.4L30.458578643762692,66.4L31.458578643762692,65.4L31.958578643762692,65.4L32.95857864376269,64.4L33.95857864376269,64.4L34.95857864376269,63.4L36.54142135623731,63.4L37.1,63.95857864376269L37.1,70.04142135623731L36.6,70.54142135623731L36.6,72.54142135623731L36.1,73.04142135623731L36.1,74.54142135623731L35.6,75.04142135623731L35.6,75.54142135623731L35.04142135623731,76.1L30.041421356237308,76.1L29.541421356237308,76.6L29.041421356237308,76.6L27.541421356237308,78.1L27,78.1L27,77.9L27.458578643762692,77.9L28.958578643762692,76.4L29.458578643762692,76.4L29.958578643762692,75.9L34.95857864376269,75.9L35.4,75.45857864376269L35.4,74.95857864376269L35.9,74.45857864376269L35.9,72.95857864376269L36.4,72.45857864376269L36.4,70.45857864376269L36.9,69.95857864376269L36.9,64.04142135623731L36.45857864376269,63.6L35.04142135623731,63.6L34.04142135623731,64.6L33.04142135623731,64.6L32.04142135623731,65.6L31.541421356237308,65.6L30.541421356237308,66.6L30.041421356237308,66.6L28.541421356237308,68.1L27.041421356237308,68.1L26.541421356237308,68.6L12.6,68.6L12.6,70.54142135623731L12.1,71.04142135623731L12.1,71.54142135623731L11.6,72.04142135623731L11.6,73.54142135623731L11.1,74.04142135623731L11.1,74.54142135623731L10.6,75.04142135623731L10.6,75.54142135623731L6.1,80.04142135623731L6.1,81.54142135623731L3.6,84.04142135623731L3.6,85.04142135623731L3.0707106781186546,85.57071067811866L2.9292893218813454,85.42928932188134L3.4,84.95857864376269L3.4,83.95857864376269L5.9,81.45857864376269L5.9,79.95857864376269L10.4,75.45857864376269L10.4,74.95857864376269L10.9,74.45857864376269L10.9,73.95857864376269L11.4,73.45857864376269L11.4,71.95857864376269L11.9,71.45857864376269L11.9,70.95857864376269L12.4,70.45857864376269L12.4,68.6L11.95857864376269,68.6L10.9,67.54142135623731L10.9,66.54142135623731L10.4,66.04142135623731L10.4,62.54142135623731L9.9,62.04142135623731L9.9,61.54142135623731L9.4,61.04142135623731L9.4,56.54142135623731L8.9,56.04142135623731L8.9,55.5L9.1,55.5L9.1,55.95857864376269L9.6,56.45857864376269L9.6,60.95857864376269L10.1,61.45857864376269L10.1,61.95857864376269L10.6,62.45857864376269L10.6,65.95857864376269L11.1,66.45857864376269L11.1,67.45857864376269L12.04142135623731,68.4z" stroke="none"/><path d="M89.9,82.5L90.1,82.5L90.1,84L89.9,84z" stroke="none"/><path d="M29.929289321881345,54.07071067811866L30.070710678118655,53.92928932188134L31.570710678118655,55.42928932188134L31.429289321881345,55.57071067811866z" stroke="none"/><path d="M18.070710678118655,72.07071067811866L17.929289321881345,71.92928932188134L19.429289321881345,70.42928932188134L19.570710678118655,70.57071067811866z" stroke="none"/><path d="M18,18.1L18,17.9L21,17.9L21,18.1z" stroke="none"/><path d="M51.1,97.5L50.9,97.5L50.9,94.5L51.1,94.5z" stroke="none"/><path d="M28.429289321881345,54.07071067811866L28.570710678118655,53.92928932188134L31.570710678118655,56.92928932188134L31.429289321881345,57.07071067811866z" stroke="none"/><path d="M19.429289321881345,49.57071067811866L19.570710678118655,49.42928932188134L22.570710678118655,52.42928932188134L22.429289321881345,52.57071067811866z" stroke="none"/><path d="M76.5,45.1L76.5,44.9L81,44.9L81,45.1z" stroke="none"/><path d="M11.929289321881345,97.57071067811866L12.070710678118655,97.42928932188134L13.1,98.45857864376269L13.1,99.95857864376269L13.6,100.45857864376269L13.6,102L13.4,102L13.4,100.54142135623731L12.9,100.04142135623731L12.9,98.54142135623731z" stroke="none"/><path d="M30,51.1L30,50.9L36,50.9L36,51.1z" stroke="none"/><path d="M3,9.1L3,8.9L9,8.9L9,9.1z" stroke="none"/><path d="M33.1,49.5L32.9,49.5L32.9,43.5L33.1,43.5z" stroke="none"/><path d="M4.5,13.6L4.5,13.4L5.04142135623731,13.4L5.54142135623731,13.9L6.54142135623731,13.9L7.54142135623731,14.9L10.5,14.9L10.5,15.1L7.45857864376269,15.1L6.45857864376269,14.1L5.45857864376269,14.1L4.95857864376269,13.6z" stroke="none"/><path d="M17.929289321881345,10.570710678118655L18.070710678118655,10.429289321881345L18.541421356237308,10.9L19.541421356237308,10.9L20.541421356237308,11.9L22.041421356237308,11.9L23.041421356237308,12.9L23.541421356237308,12.9L24.070710678118655,13.429289321881345L23.929289321881345,13.570710678118655L23.458578643762692,13.1L22.958578643762692,13.1L21.958578643762692,12.1L20.458578643762692,12.1L19.458578643762692,11.1L18.458578643762692,11.1z" stroke="none"/><path d="M25.429289321881345,4.429289321881345L25.570710678118655,4.570710678118655L25.041421356237308,5.1L24.041421356237308,5.1L23.041421356237308,6.1L22.541421356237308,6.1L21.541421356237308,7.1L20.541421356237308,7.1L20.041421356237308,7.6L19.5,7.6L19.5,7.4L19.958578643762692,7.4L20.458578643762692,6.9L21.458578643762692,6.9L22.458578643762692,5.9L22.958578643762692,5.9L23.958578643762692,4.9L24.958578643762692,4.9z" stroke="none"/><path d="M73.5,37.6L73.5,37.4L76.45857864376269,37.4L77.45857864376269,36.4L80.45857864376269,36.4L80.92928932188134,35.92928932188134L81.07071067811866,36.07071067811866L80.54142135623731,36.6L77.54142135623731,36.6L76.54142135623731,37.6z" stroke="none"/><path d="M85.6,43.5L85.4,43.5L85.4,42.04142135623731L84.9,41.54142135623731L84.9,40.04142135623731L84.4,39.54142135623731L84.4,38.04142135623731L83.9,37.54142135623731L83.9,36L84.1,36L84.1,37.45857864376269L84.6,37.95857864376269L84.6,39.45857864376269L85.1,39.95857864376269L85.1,41.45857864376269L85.6,41.95857864376269z" stroke="none"/><path d="M13.5,76.6L13.5,76.4L16.541421356237308,76.4L17.541421356237308,77.4L20.041421356237308,77.4L20.541421356237308,77.9L21,77.9L21,78.1L20.458578643762692,78.1L19.958578643762692,77.6L17.458578643762692,77.6L16.458578643762692,76.6z" stroke="none"/><path d="M82.5,58.4L82.5,58.6L79.95857864376269,58.6L78.95857864376269,57.6L77.45857864376269,57.6L76.95857864376269,57.1L76.45857864376269,57.1L75.45857864376269,56.1L74.95857864376269,56.1L74.45857864376269,55.6L72.95857864376269,55.6L72.45857864376269,55.1L71.45857864376269,55.1L70.95857864376269,54.6L70.04142135623731,54.6L69.6,55.04142135623731L69.6,55.95857864376269L75.07071067811866,61.42928932188134L74.92928932188134,61.57071067811866L69.4,56.04142135623731L69.4,54.95857864376269L69.95857864376269,54.4L71.04142135623731,54.4L71.54142135623731,54.9L72.54142135623731,54.9L73.04142135623731,55.4L74.54142135623731,55.4L75.04142135623731,55.9L75.54142135623731,55.9L76.54142135623731,56.9L77.04142135623731,56.9L77.54142135623731,57.4L79.04142135623731,57.4L80.04142135623731,58.4z" stroke="none"/><path d="M40.42928932188134,48.07071067811866L40.57071067811866,47.92928932188134L42.04142135623731,49.4L42.54142135623731,49.4L43.54142135623731,50.4L46.54142135623731,50.4L47.04142135623731,50.9L48,50.9L48,51.1L46.95857864376269,51.1L46.45857864376269,50.6L43.45857864376269,50.6L42.45857864376269,49.6L41.95857864376269,49.6z" stroke="none"/><path d="M30.1,99L29.9,99L29.9,90L30.1,90z" stroke="none"/><path d="M39.1,67.5L38.9,67.5L38.9,65.45857864376269L39.9,64.45857864376269L39.9,62.45857864376269L42.4,59.95857864376269L42.4,59.45857864376269L43.42928932188134,58.42928932188134L43.57071067811866,58.57071067811866L42.6,59.54142135623731L42.6,60.04142135623731L40.1,62.54142135623731L40.1,64.54142135623731L39.1,65.54142135623731z" stroke="none"/><path d="M94.42928932188134,22.570710678118655L94.57071067811866,22.429289321881345L95.54142135623731,23.4L97.95857864376269,23.4L98.45857864376269,22.9L99.54142135623731,22.9L100.1,23.458578643762692L100.1,25.041421356237308L99.6,25.541421356237308L99.6,31.041421356237308L99.07071067811866,31.570710678118655L98.92928932188134,31.429289321881345L99.4,30.958578643762692L99.4,25.458578643762692L99.9,24.958578643762692L99.9,23.541421356237308L99.45857864376269,23.1L98.54142135623731,23.1L98.04142135623731,23.6L95.45857864376269,23.6z" stroke="none"/><path d="M78.07071067811866,100.42928932188134L77.92928932188134,100.57071067811866L76.95857864376269,99.6L70.45857864376269,99.6L69.95857864376269,99.1L67.5,99.1L67.5,98.9L70.04142135623731,98.9L70.54142135623731,99.4L77.04142135623731,99.4z" stroke="none"/><path d="M96,22.6L96,22.4L100.04142135623731,22.4L100.6,22.958578643762692L100.6,30.541421356237308L100.1,31.041421356237308L100.1,32.04142135623731L99.07071067811866,33.07071067811866L98.92928932188134,32.92928932188134L99.9,31.958578643762692L99.9,30.958578643762692L100.4,30.458578643762692L100.4,23.041421356237308L99.95857864376269,22.6z" stroke="none"/><path d="M60.07071067811866,40.57071067811866L59.92928932188134,40.42928932188134L68.45857864376269,31.9L69.54142135623731,31.9L70.1,32.45857864376269L70.1,35.45857864376269L70.57071067811866,35.92928932188134L70.42928932188134,36.07071067811866L69.9,35.54142135623731L69.9,32.54142135623731L69.45857864376269,32.1L68.54142135623731,32.1z" stroke="none"/><path d="M7.4,67.5L7.6,67.5L7.6,77.54142135623731L5.6,79.54142135623731L5.6,80.04142135623731L3.1,82.54142135623731L3.1,83.04142135623731L2.1,84.04142135623731L2.1,85.95857864376269L2.5414213562373096,86.4L3.4585786437626904,86.4L11.4,78.45857864376269L11.4,77.95857864376269L12.4,76.95857864376269L12.4,75.95857864376269L12.95857864376269,75.4L15.45857864376269,75.4L15.95857864376269,74.9L16.5,74.9L16.5,75.1L16.041421356237308,75.1L15.54142135623731,75.6L13.04142135623731,75.6L12.6,76.04142135623731L12.6,77.04142135623731L11.6,78.04142135623731L11.6,78.54142135623731L3.5414213562373096,86.6L2.4585786437626904,86.6L1.9,86.04142135623731L1.9,83.95857864376269L2.9,82.95857864376269L2.9,82.45857864376269L5.4,79.95857864376269L5.4,79.45857864376269L7.4,77.45857864376269z" stroke="none"/><path d="M40.57071067811866,67.57071067811866L40.42928932188134,67.42928932188134L44.9,62.95857864376269L44.9,62.45857864376269L45.4,61.95857864376269L45.4,61.45857864376269L46.9,59.95857864376269L46.9,59.45857864376269L47.92928932188134,58.42928932188134L48.07071067811866,58.57071067811866L47.1,59.54142135623731L47.1,60.04142135623731L45.6,61.54142135623731L45.6,62.04142135623731L45.1,62.54142135623731L45.1,63.04142135623731z" stroke="none"/><path d="M16.429289321881345,17.929289321881345L16.570710678118655,18.070710678118655L14.04142135623731,20.6L13.54142135623731,20.6L12.04142135623731,22.1L8.54142135623731,22.1L7.04142135623731,23.6L6.54142135623731,23.6L6.070710678118655,24.070710678118655L5.929289321881345,23.929289321881345L6.45857864376269,23.4L6.95857864376269,23.4L8.45857864376269,21.9L11.95857864376269,21.9L13.45857864376269,20.4L13.95857864376269,20.4z" stroke="none"/><path d="M79.4,7.5L79.6,7.5L79.6,8.04142135623731L76.6,11.04142135623731L76.6,12.04142135623731L74.1,14.54142135623731L74.1,15.04142135623731L73.6,15.54142135623731L73.6,18L73.4,18L73.4,15.45857864376269L73.9,14.95857864376269L73.9,14.45857864376269L76.4,11.95857864376269L76.4,10.95857864376269L79.4,7.95857864376269z" stroke="none"/><path d="M78.07071067811866,13.570710678118655L77.92928932188134,13.429289321881345L82.45857864376269,8.9L83.95857864376269,8.9L84.45857864376269,8.4L84.95857864376269,8.4L85.45857864376269,7.9L87.54142135623731,7.9L88.1,8.45857864376269L88.1,12.95857864376269L88.6,13.45857864376269L88.6,13.95857864376269L90.1,15.45857864376269L90.1,16.5L89.9,16.5L89.9,15.54142135623731L88.4,14.04142135623731L88.4,13.54142135623731L87.9,13.04142135623731L87.9,8.54142135623731L87.45857864376269,8.1L85.54142135623731,8.1L85.04142135623731,8.6L84.54142135623731,8.6L84.04142135623731,9.1L82.54142135623731,9.1z" stroke="none"/><path d="M52.5,46.4L52.5,46.6L50.95857864376269,46.6L48.45857864376269,44.1L45.45857864376269,44.1L44.95857864376269,43.6L40.5,43.6L40.5,43.4L45.04142135623731,43.4L45.54142135623731,43.9L48.54142135623731,43.9L51.04142135623731,46.4z" stroke="none"/><path d="M75,57.1L75,56.9L75.54142135623731,56.9L77.04142135623731,58.4L78.54142135623731,58.4L79.04142135623731,58.9L81.54142135623731,58.9L82.04142135623731,59.4L82.95857864376269,59.4L83.4,58.95857864376269L83.4,58.04142135623731L82.95857864376269,57.6L80.95857864376269,57.6L80.45857864376269,57.1L79.45857864376269,57.1L78.45857864376269,56.1L77.45857864376269,56.1L76.95857864376269,55.6L76.45857864376269,55.6L75.95857864376269,55.1L73.95857864376269,55.1L73.45857864376269,54.6L71.95857864376269,54.6L71.45857864376269,54.1L69.54142135623731,54.1L69.1,54.54142135623731L69.1,55.54142135623731L68.1,56.54142135623731L68.1,57.04142135623731L67.6,57.54142135623731L67.6,58.54142135623731L67.1,59.04142135623731L67.1,60.04142135623731L66.6,60.54142135623731L66.6,61.95857864376269L67.04142135623731,62.4L69.04142135623731,62.4L69.54142135623731,62.9L76.54142135623731,62.9L78.54142135623731,64.9L82.04142135623731,64.9L82.54142135623731,65.4L83.04142135623731,65.4L83.54142135623731,65.9L84,65.9L84,66.1L83.45857864376269,66.1L82.95857864376269,65.6L82.45857864376269,65.6L81.95857864376269,65.1L78.45857864376269,65.1L76.45857864376269,63.1L69.45857864376269,63.1L68.95857864376269,62.6L66.95857864376269,62.6L66.4,62.04142135623731L66.4,60.45857864376269L66.9,59.95857864376269L66.9,58.95857864376269L67.4,58.45857864376269L67.4,57.45857864376269L67.9,56.95857864376269L67.9,56.45857864376269L68.9,55.45857864376269L68.9,54.45857864376269L69.45857864376269,53.9L71.54142135623731,53.9L72.04142135623731,54.4L73.54142135623731,54.4L74.04142135623731,54.9L76.04142135623731,54.9L76.54142135623731,55.4L77.04142135623731,55.4L77.54142135623731,55.9L78.54142135623731,55.9L79.54142135623731,56.9L80.54142135623731,56.9L81.04142135623731,57.4L83.04142135623731,57.4L83.6,57.95857864376269L83.6,59.04142135623731L83.04142135623731,59.6L81.95857864376269,59.6L81.45857864376269,59.1L78.95857864376269,59.1L78.45857864376269,58.6L76.95857864376269,58.6L75.45857864376269,57.1z" stroke="none"/><path d="M90,100.4L90,100.6L88.95857864376269,100.6L87.45857864376269,99.1L80.95857864376269,99.1L79.95857864376269,98.1L79.45857864376269,98.1L78.95857864376269,97.6L76.5,97.6L76.5,97.4L79.04142135623731,97.4L79.54142135623731,97.9L80.04142135623731,97.9L81.04142135623731,98.9L87.54142135623731,98.9L89.04142135623731,100.4z" stroke="none"/><path d="M52.5,85.6L52.5,85.4L54.04142135623731,85.4L56.04142135623731,87.4L57.04142135623731,87.4L57.54142135623731,87.9L58.54142135623731,87.9L61.04142135623731,90.4L61.54142135623731,90.4L62.04142135623731,90.9L63.04142135623731,90.9L63.54142135623731,91.4L65.54142135623731,91.4L66.04142135623731,91.9L66.54142135623731,91.9L67.1,92.45857864376269L67.1,93.54142135623731L64.04142135623731,96.6L62.54142135623731,96.6L62.04142135623731,97.1L61.04142135623731,97.1L60.54142135623731,97.6L60,97.6L60,97.4L60.45857864376269,97.4L60.95857864376269,96.9L61.95857864376269,96.9L62.45857864376269,96.4L63.95857864376269,96.4L66.9,93.45857864376269L66.9,92.54142135623731L66.45857864376269,92.1L65.95857864376269,92.1L65.45857864376269,91.6L63.45857864376269,91.6L62.95857864376269,91.1L61.95857864376269,91.1L61.45857864376269,90.6L60.95857864376269,90.6L58.45857864376269,88.1L57.45857864376269,88.1L56.95857864376269,87.6L55.95857864376269,87.6L53.95857864376269,85.6z" stroke="none"/><path d="M76.57071067811866,87.07071067811866L76.42928932188134,86.92928932188134L86.92928932188134,76.42928932188134L87.07071067811866,76.57071067811866z" stroke="none"/><path d="M92.92928932188134,79.42928932188134L93.07071067811866,79.57071067811866L91.54142135623731,81.1L91.04142135623731,81.1L90.54142135623731,81.6L89.54142135623731,81.6L83.54142135623731,87.6L83.04142135623731,87.6L82.54142135623731,88.1L82.04142135623731,88.1L81.54142135623731,88.6L81,88.6L81,88.4L81.45857864376269,88.4L81.95857864376269,87.9L82.45857864376269,87.9L82.95857864376269,87.4L83.45857864376269,87.4L89.45857864376269,81.4L90.45857864376269,81.4L90.95857864376269,80.9L91.45857864376269,80.9z" stroke="none"/><path d="M97.6,55.5L97.4,55.5L97.4,54.95857864376269L97.9,54.45857864376269L97.9,53.95857864376269L98.4,53.45857864376269L98.4,52.95857864376269L98.9,52.45857864376269L98.9,51.95857864376269L99.4,51.45857864376269L99.4,46.95857864376269L99.9,46.45857864376269L99.9,42.45857864376269L100.4,41.95857864376269L100.4,40.5L100.6,40.5L100.6,42.04142135623731L100.1,42.54142135623731L100.1,46.54142135623731L99.6,47.04142135623731L99.6,51.54142135623731L99.1,52.04142135623731L99.1,52.54142135623731L98.6,53.04142135623731L98.6,53.54142135623731L98.1,54.04142135623731L98.1,54.54142135623731L97.6,55.04142135623731z" stroke="none"/><path d="M12.070710678118655,98.92928932188134L11.929289321881345,99.07071067811866L10.9,98.04142135623731L10.9,96.95857864376269L11.45857864376269,96.4L11.95857864376269,96.4L12.95857864376269,95.4L13.95857864376269,95.4L14.45857864376269,94.9L23.958578643762692,94.9L25.458578643762692,93.4L26.458578643762692,93.4L26.929289321881345,92.92928932188134L27.070710678118655,93.07071067811866L26.541421356237308,93.6L25.541421356237308,93.6L24.041421356237308,95.1L14.54142135623731,95.1L14.04142135623731,95.6L13.04142135623731,95.6L12.04142135623731,96.6L11.54142135623731,96.6L11.1,97.04142135623731L11.1,97.95857864376269z" stroke="none"/><path d="M11.9,13.5L12.1,13.5L12.1,15.04142135623731L6.6,20.541421356237308L6.6,21.041421356237308L6.1,21.541421356237308L6.1,22.041421356237308L5.1,23.041421356237308L5.1,24.458578643762692L5.54142135623731,24.9L6.54142135623731,24.9L11.54142135623731,29.9L12,29.9L12,30.1L11.45857864376269,30.1L6.45857864376269,25.1L5.45857864376269,25.1L4.9,24.541421356237308L4.9,22.958578643762692L5.9,21.958578643762692L5.9,21.458578643762692L6.4,20.958578643762692L6.4,20.458578643762692L11.9,14.95857864376269z" stroke="none"/><path d="M79.5,88.4L79.5,88.6L76.45857864376269,88.6L75.4,87.54142135623731L75.4,82.95857864376269L75.9,82.45857864376269L75.9,80.95857864376269L76.4,80.45857864376269L76.4,79.45857864376269L76.9,78.95857864376269L76.9,77.95857864376269L77.4,77.45857864376269L77.4,76.95857864376269L79.4,74.95857864376269L79.4,74.45857864376269L79.9,73.95857864376269L79.9,73.45857864376269L80.4,72.95857864376269L80.4,72.45857864376269L80.92928932188134,71.92928932188134L81.07071067811866,72.07071067811866L80.6,72.54142135623731L80.6,73.04142135623731L80.1,73.54142135623731L80.1,74.04142135623731L79.6,74.54142135623731L79.6,75.04142135623731L77.6,77.04142135623731L77.6,77.54142135623731L77.1,78.04142135623731L77.1,79.04142135623731L76.6,79.54142135623731L76.6,80.54142135623731L76.1,81.04142135623731L76.1,82.54142135623731L75.6,83.04142135623731L75.6,87.45857864376269L76.54142135623731,88.4z" stroke="none"/><path d="M19.4,46.5L19.6,46.5L19.6,47.54142135623731L18.1,49.04142135623731L18.1,49.54142135623731L17.6,50.04142135623731L17.6,54.04142135623731L17.1,54.54142135623731L17.1,62.54142135623731L16.570710678118655,63.07071067811866L16.429289321881345,62.92928932188134L16.9,62.45857864376269L16.9,54.45857864376269L17.4,53.95857864376269L17.4,49.95857864376269L17.9,49.45857864376269L17.9,48.95857864376269L19.4,47.45857864376269z" stroke="none"/><path d="M94.42928932188134,86.92928932188134L94.57071067811866,87.07071067811866L88.54142135623731,93.1L87.04142135623731,93.1L84.54142135623731,95.6L83.45857864376269,95.6L82.9,95.04142135623731L82.9,93.95857864376269L83.9,92.95857864376269L83.9,91.95857864376269L93.9,81.95857864376269L93.9,77.54142135623731L92.9,76.54142135623731L92.9,76.04142135623731L90.9,74.04142135623731L90.9,72.04142135623731L89.9,71.04142135623731L89.9,70.5L90.1,70.5L90.1,70.95857864376269L91.1,71.95857864376269L91.1,73.95857864376269L93.1,75.95857864376269L93.1,76.45857864376269L94.1,77.45857864376269L94.1,82.04142135623731L84.1,92.04142135623731L84.1,93.04142135623731L83.1,94.04142135623731L83.1,94.95857864376269L83.54142135623731,95.4L84.45857864376269,95.4L86.95857864376269,92.9L88.45857864376269,92.9z" stroke="none"/><path d="M51.1,63L50.9,63L50.9,62.54142135623731L49.9,61.54142135623731L49.9,60.54142135623731L49.4,60.04142135623731L49.4,59.04142135623731L48.9,58.54142135623731L48.9,58.04142135623731L48.45857864376269,57.6L41.95857864376269,57.6L41.45857864376269,57.1L39.95857864376269,57.1L39.45857864376269,56.6L38.95857864376269,56.6L36.95857864376269,54.6L36.45857864376269,54.6L35.92928932188134,54.07071067811866L36.07071067811866,53.92928932188134L36.54142135623731,54.4L37.04142135623731,54.4L39.04142135623731,56.4L39.54142135623731,56.4L40.04142135623731,56.9L41.54142135623731,56.9L42.04142135623731,57.4L48.54142135623731,57.4L49.1,57.95857864376269L49.1,58.45857864376269L49.6,58.95857864376269L49.6,59.95857864376269L50.1,60.45857864376269L50.1,61.45857864376269L51.1,62.45857864376269z" stroke="none"/><path d="M21,96.1L21,95.9L22.458578643762692,95.9L22.958578643762692,95.4L24.958578643762692,95.4L25.958578643762692,94.4L26.958578643762692,94.4L27.9,93.45857864376269L27.9,91.45857864376269L28.9,90.45857864376269L28.9,89.45857864376269L29.458578643762692,88.9L36.04142135623731,88.9L36.54142135623731,89.4L37.04142135623731,89.4L37.57071067811866,89.92928932188134L37.42928932188134,90.07071067811866L36.95857864376269,89.6L36.45857864376269,89.6L35.95857864376269,89.1L29.541421356237308,89.1L29.1,89.54142135623731L29.1,90.54142135623731L28.1,91.54142135623731L28.1,93.54142135623731L27.041421356237308,94.6L26.041421356237308,94.6L25.041421356237308,95.6L23.041421356237308,95.6L22.541421356237308,96.1z" stroke="none"/><path d="M63,102.1L63,101.9L81,101.9L81,102.1z" stroke="none"/><path d="M74.9,81L75.1,81L75.1,87.95857864376269L83.04142135623731,95.9L84.95857864376269,95.9L86.45857864376269,94.4L87,94.4L87,94.6L86.54142135623731,94.6L85.04142135623731,96.1L82.95857864376269,96.1L74.9,88.04142135623731z" stroke="none"/><path d="M81,22.6L81,22.4L83.95857864376269,22.4L84.95857864376269,21.4L85.95857864376269,21.4L86.45857864376269,20.9L86.95857864376269,20.9L90.9,16.958578643762692L90.9,11.95857864376269L92.4,10.45857864376269L92.4,9.95857864376269L92.9,9.45857864376269L92.9,9L93.1,9L93.1,9.54142135623731L92.6,10.04142135623731L92.6,10.54142135623731L91.1,12.04142135623731L91.1,17.041421356237308L87.04142135623731,21.1L86.54142135623731,21.1L86.04142135623731,21.6L85.04142135623731,21.6L84.04142135623731,22.6z" stroke="none"/><path d="M76.5,100.4L76.5,100.6L57,100.6L57,100.4z" stroke="none"/><path d="M46.5,38.9L46.5,39.1L46.04142135623731,39.1L45.54142135623731,39.6L45.04142135623731,39.6L43.54142135623731,41.1L43.04142135623731,41.1L42.54142135623731,41.6L41.54142135623731,41.6L40.54142135623731,42.6L40.04142135623731,42.6L39.6,43.04142135623731L39.6,45.54142135623731L39.1,46.04142135623731L39.1,47.04142135623731L38.1,48.04142135623731L38.1,49.54142135623731L37.6,50.04142135623731L37.6,51.04142135623731L35.1,53.54142135623731L35.1,54.45857864376269L36.07071067811866,55.42928932188134L35.92928932188134,55.57071067811866L34.9,54.54142135623731L34.9,53.45857864376269L37.4,50.95857864376269L37.4,49.95857864376269L37.9,49.45857864376269L37.9,47.95857864376269L38.9,46.95857864376269L38.9,45.95857864376269L39.4,45.45857864376269L39.4,42.95857864376269L39.95857864376269,42.4L40.45857864376269,42.4L41.45857864376269,41.4L42.45857864376269,41.4L42.95857864376269,40.9L43.45857864376269,40.9L44.95857864376269,39.4L45.45857864376269,39.4L45.95857864376269,38.9z" stroke="none"/><path d="M76.5,3.1L76.5,2.9L90.04142135623731,2.9L91.04142135623731,3.9L92.04142135623731,3.9L95.04142135623731,6.9L95.54142135623731,6.9L96.07071067811866,7.429289321881345L95.92928932188134,7.570710678118655L95.45857864376269,7.1L94.95857864376269,7.1L91.95857864376269,4.1L90.95857864376269,4.1L89.95857864376269,3.1z" stroke="none"/><path d="M52.57071067811866,101.92928932188134L52.42928932188134,102.07071067811866L49.95857864376269,99.6L49.45857864376269,99.6L48.95857864376269,99.1L48.45857864376269,99.1L47.95857864376269,98.6L46.95857864376269,98.6L46.45857864376269,98.1L45.45857864376269,98.1L44.95857864376269,97.6L42.45857864376269,97.6L40.45857864376269,95.6L39.95857864376269,95.6L39.4,95.04142135623731L39.4,92.04142135623731L38.4,91.04142135623731L38.4,89.54142135623731L37.42928932188134,88.57071067811866L37.57071067811866,88.42928932188134L38.6,89.45857864376269L38.6,90.95857864376269L39.6,91.95857864376269L39.6,94.95857864376269L40.04142135623731,95.4L40.54142135623731,95.4L42.54142135623731,97.4L45.04142135623731,97.4L45.54142135623731,97.9L46.54142135623731,97.9L47.04142135623731,98.4L48.04142135623731,98.4L48.54142135623731,98.9L49.04142135623731,98.9L49.54142135623731,99.4L50.04142135623731,99.4z" stroke="none"/><path d="M40.5,2.9L40.5,3.1L30.041421356237308,3.1L29.541421356237308,3.6L28.541421356237308,3.6L28.041421356237308,4.1L27.541421356237308,4.1L26.041421356237308,5.6L25.541421356237308,5.6L22.541421356237308,8.6L21.541421356237308,8.6L21.070710678118655,9.070710678118655L20.929289321881345,8.929289321881345L21.458578643762692,8.4L22.458578643762692,8.4L25.458578643762692,5.4L25.958578643762692,5.4L27.458578643762692,3.9L27.958578643762692,3.9L28.458578643762692,3.4L29.458578643762692,3.4L29.958578643762692,2.9z" stroke="none"/><path d="M46.5,66.1L46.5,65.9L48.95857864376269,65.9L49.95857864376269,64.9L50.45857864376269,64.9L51.9,63.45857864376269L51.9,53.04142135623731L51.4,52.54142135623731L51.4,51.04142135623731L48.9,48.54142135623731L48.9,48.04142135623731L48.4,47.54142135623731L48.4,46.04142135623731L47.9,45.54142135623731L47.9,45L48.1,45L48.1,45.45857864376269L48.6,45.95857864376269L48.6,47.45857864376269L49.1,47.95857864376269L49.1,48.45857864376269L51.6,50.95857864376269L51.6,52.45857864376269L52.1,52.95857864376269L52.1,63.54142135623731L50.54142135623731,65.1L50.04142135623731,65.1L49.04142135623731,66.1z" stroke="none"/><path d="M99.1,97.5L98.9,97.5L98.9,96.45857864376269L99.9,95.45857864376269L99.9,94.95857864376269L100.4,94.45857864376269L100.4,93.45857864376269L100.9,92.95857864376269L100.9,90.95857864376269L101.4,90.45857864376269L101.4,83.04142135623731L98.9,80.54142135623731L98.9,80.04142135623731L96.4,77.54142135623731L96.4,77.04142135623731L95.92928932188134,76.57071067811866L96.07071067811866,76.42928932188134L96.6,76.95857864376269L96.6,77.45857864376269L99.1,79.95857864376269L99.1,80.45857864376269L101.6,82.95857864376269L101.6,90.54142135623731L101.1,91.04142135623731L101.1,93.04142135623731L100.6,93.54142135623731L100.6,94.54142135623731L100.1,95.04142135623731L100.1,95.54142135623731L99.1,96.54142135623731z" stroke="none"/><path d="M99.1,73.5L98.9,73.5L98.9,67.45857864376269L99.4,66.95857864376269L99.4,65.45857864376269L99.9,64.95857864376269L99.9,64.04142135623731L99.45857864376269,63.6L97.04142135623731,63.6L96.04142135623731,64.6L94.54142135623731,64.6L93.54142135623731,65.6L93.04142135623731,65.6L89.54142135623731,69.1L78,69.1L78,68.9L89.45857864376269,68.9L92.95857864376269,65.4L93.45857864376269,65.4L94.45857864376269,64.4L95.95857864376269,64.4L96.95857864376269,63.4L99.54142135623731,63.4L100.1,63.95857864376269L100.1,65.04142135623731L99.6,65.54142135623731L99.6,67.04142135623731L99.1,67.54142135623731z" stroke="none"/><path d="M99,23.9L99,24.1L94.45857864376269,24.1L93.4,23.041421356237308L93.4,10.45857864376269L93.9,9.95857864376269L93.9,8.54142135623731L93.45857864376269,8.1L89.45857864376269,8.1L88.95857864376269,7.6L84.04142135623731,7.6L83.54142135623731,8.1L82.54142135623731,8.1L78.04142135623731,12.6L77.54142135623731,12.6L77.1,13.04142135623731L77.1,14.95857864376269L77.6,15.45857864376269L77.6,17.458578643762692L78.07071067811866,17.929289321881345L77.92928932188134,18.070710678118655L77.4,17.541421356237308L77.4,15.54142135623731L76.9,15.04142135623731L76.9,12.95857864376269L77.45857864376269,12.4L77.95857864376269,12.4L82.45857864376269,7.9L83.45857864376269,7.9L83.95857864376269,7.4L89.04142135623731,7.4L89.54142135623731,7.9L93.54142135623731,7.9L94.1,8.45857864376269L94.1,10.04142135623731L93.6,10.54142135623731L93.6,22.958578643762692L94.54142135623731,23.9z" stroke="none"/><path d="M22.5,26.9L22.5,27.1L20.041421356237308,27.1L19.041421356237308,28.1L18.541421356237308,28.1L18.041421356237308,28.6L17.541421356237308,28.6L16.541421356237308,29.6L16.041421356237308,29.6L15.54142135623731,30.1L15.04142135623731,30.1L14.54142135623731,30.6L13.04142135623731,30.6L12.54142135623731,31.1L11.45857864376269,31.1L6.45857864376269,26.1L5.45857864376269,26.1L4.4,25.041421356237308L4.4,17.041421356237308L3.4,16.041421356237308L3.4,12.95857864376269L3.9585786437626904,12.4L6.45857864376269,12.4L6.95857864376269,11.9L7.45857864376269,11.9L9.95857864376269,9.4L10.45857864376269,9.4L13.45857864376269,6.4L13.95857864376269,6.4L14.45857864376269,5.9L15,5.9L15,6.1L14.54142135623731,6.1L14.04142135623731,6.6L13.54142135623731,6.6L10.54142135623731,9.6L10.04142135623731,9.6L7.54142135623731,12.1L7.04142135623731,12.1L6.54142135623731,12.6L4.04142135623731,12.6L3.6,13.04142135623731L3.6,15.95857864376269L4.6,16.958578643762692L4.6,24.958578643762692L5.54142135623731,25.9L6.54142135623731,25.9L11.54142135623731,30.9L12.45857864376269,30.9L12.95857864376269,30.4L14.45857864376269,30.4L14.95857864376269,29.9L15.45857864376269,29.9L15.95857864376269,29.4L16.458578643762692,29.4L17.458578643762692,28.4L17.958578643762692,28.4L18.458578643762692,27.9L18.958578643762692,27.9L19.958578643762692,26.9z" stroke="none"/><path d="M70.57071067811866,79.42928932188134L70.42928932188134,79.57071067811866L64.9,74.04142135623731L64.9,72.95857864376269L65.9,71.95857864376269L65.9,70.95857864376269L69.9,66.95857864376269L69.9,65.54142135623731L69.45857864376269,65.1L66.45857864376269,65.1L64.95857864376269,63.6L64.45857864376269,63.6L63.45857864376269,62.6L62.95857864376269,62.6L62.45857864376269,62.1L61.45857864376269,62.1L59.45857864376269,60.1L58.5,60.1L58.5,59.9L59.54142135623731,59.9L61.54142135623731,61.9L62.54142135623731,61.9L63.04142135623731,62.4L63.54142135623731,62.4L64.54142135623731,63.4L65.04142135623731,63.4L66.54142135623731,64.9L69.54142135623731,64.9L70.1,65.45857864376269L70.1,67.04142135623731L66.1,71.04142135623731L66.1,72.04142135623731L65.1,73.04142135623731L65.1,73.95857864376269z" stroke="none"/><path d="M74.92928932188134,91.57071067811866L75.07071067811866,91.42928932188134L79.54142135623731,95.9L81.54142135623731,95.9L82.04142135623731,96.4L96.54142135623731,96.4L97.57071067811866,97.42928932188134L97.42928932188134,97.57071067811866L96.45857864376269,96.6L81.95857864376269,96.6L81.45857864376269,96.1L79.45857864376269,96.1z" stroke="none"/><path d="M67.42928932188134,85.57071067811866L67.57071067811866,85.42928932188134L75.1,92.95857864376269L75.1,96.45857864376269L75.6,96.95857864376269L75.6,97.95857864376269L76.04142135623731,98.4L79.54142135623731,98.4L80.54142135623731,99.4L84.04142135623731,99.4L85.04142135623731,100.4L85.5,100.4L85.5,100.6L84.95857864376269,100.6L83.95857864376269,99.6L80.45857864376269,99.6L79.45857864376269,98.6L75.95857864376269,98.6L75.4,98.04142135623731L75.4,97.04142135623731L74.9,96.54142135623731L74.9,93.04142135623731z" stroke="none"/><path d="M10.6,58.5L10.4,58.5L10.4,55.95857864376269L10.9,55.45857864376269L10.9,54.95857864376269L11.9,53.95857864376269L11.9,52.95857864376269L12.4,52.45857864376269L12.4,51.45857864376269L12.9,50.95857864376269L12.9,50.45857864376269L13.9,49.45857864376269L13.9,48.95857864376269L14.4,48.45857864376269L14.4,45.95857864376269L15.4,44.95857864376269L15.4,44.45857864376269L15.9,43.95857864376269L15.9,43.45857864376269L20.4,38.95857864376269L20.4,38.45857864376269L20.9,37.95857864376269L20.9,37.5L21.1,37.5L21.1,38.04142135623731L20.6,38.54142135623731L20.6,39.04142135623731L16.1,43.54142135623731L16.1,44.04142135623731L15.6,44.54142135623731L15.6,45.04142135623731L14.6,46.04142135623731L14.6,48.54142135623731L14.1,49.04142135623731L14.1,49.54142135623731L13.1,50.54142135623731L13.1,51.04142135623731L12.6,51.54142135623731L12.6,52.54142135623731L12.1,53.04142135623731L12.1,54.04142135623731L11.1,55.04142135623731L11.1,55.54142135623731L10.6,56.04142135623731z" stroke="none"/><path d="M100.6,75L100.4,75L100.4,61.54142135623731L99.9,61.04142135623731L99.9,60.54142135623731L93.9,54.54142135623731L93.9,54.04142135623731L93.4,53.54142135623731L93.4,53.04142135623731L92.92928932188134,52.57071067811866L93.07071067811866,52.42928932188134L93.6,52.95857864376269L93.6,53.45857864376269L94.1,53.95857864376269L94.1,54.45857864376269L100.1,60.45857864376269L100.1,60.95857864376269L100.6,61.45857864376269z" stroke="none"/><path d="M46.57071067811866,73.57071067811866L46.42928932188134,73.42928932188134L50.9,68.95857864376269L50.9,68.45857864376269L51.4,67.95857864376269L51.4,66.45857864376269L52.4,65.45857864376269L52.4,53.45857864376269L53.4,52.45857864376269L53.4,51.95857864376269L53.9,51.45857864376269L53.9,51L54.1,51L54.1,51.54142135623731L53.6,52.04142135623731L53.6,52.54142135623731L52.6,53.54142135623731L52.6,65.54142135623731L51.6,66.54142135623731L51.6,68.04142135623731L51.1,68.54142135623731L51.1,69.04142135623731z" stroke="none"/><path d="M18,57.1L18,56.9L28.541421356237308,56.9L29.041421356237308,57.4L30.041421356237308,57.4L30.541421356237308,57.9L34.04142135623731,57.9L34.54142135623731,58.4L42,58.4L42,58.6L34.45857864376269,58.6L33.95857864376269,58.1L30.458578643762692,58.1L29.958578643762692,57.6L28.958578643762692,57.6L28.458578643762692,57.1z" stroke="none"/><path d="M35.9,43.5L36.1,43.5L36.1,46.54142135623731L34.6,48.04142135623731L34.6,48.54142135623731L34.1,49.04142135623731L34.1,50.04142135623731L33.54142135623731,50.6L32.45857864376269,50.6L30.9,49.04142135623731L30.9,48.54142135623731L25.9,43.54142135623731L25.9,37.45857864376269L26.4,36.95857864376269L26.4,36.45857864376269L27.4,35.45857864376269L27.4,34.45857864376269L27.9,33.95857864376269L27.9,32.54142135623731L27.458578643762692,32.1L24.458578643762692,32.1L23.958578643762692,31.6L23.458578643762692,31.6L21.958578643762692,30.1L21.458578643762692,30.1L20.458578643762692,29.1L19.041421356237308,29.1L17.041421356237308,31.1L15.54142135623731,31.1L15.070710678118655,31.570710678118655L14.929289321881345,31.429289321881345L15.45857864376269,30.9L16.958578643762692,30.9L18.958578643762692,28.9L20.541421356237308,28.9L21.541421356237308,29.9L22.041421356237308,29.9L23.541421356237308,31.4L24.041421356237308,31.4L24.541421356237308,31.9L27.541421356237308,31.9L28.1,32.45857864376269L28.1,34.04142135623731L27.6,34.54142135623731L27.6,35.54142135623731L26.6,36.54142135623731L26.6,37.04142135623731L26.1,37.54142135623731L26.1,43.45857864376269L31.1,48.45857864376269L31.1,48.95857864376269L32.54142135623731,50.4L33.45857864376269,50.4L33.9,49.95857864376269L33.9,48.95857864376269L34.4,48.45857864376269L34.4,47.95857864376269L35.9,46.45857864376269z" stroke="none"/><path d="M87.07071067811866,47.92928932188134L86.92928932188134,48.07071067811866L82.95857864376269,44.1L81.95857864376269,44.1L81.45857864376269,43.6L80.95857864376269,43.6L80.45857864376269,43.1L79.95857864376269,43.1L78.95857864376269,42.1L78.45857864376269,42.1L76.95857864376269,40.6L75.95857864376269,40.6L75.45857864376269,40.1L74.45857864376269,40.1L72.4,38.04142135623731L72.4,34.54142135623731L71.4,33.54142135623731L71.4,33.04142135623731L69.95857864376269,31.6L68.04142135623731,31.6L60.04142135623731,39.6L59.54142135623731,39.6L59.1,40.04142135623731L59.1,40.95857864376269L59.54142135623731,41.4L60.95857864376269,41.4L61.45857864376269,40.9L61.95857864376269,40.9L63.45857864376269,39.4L63.95857864376269,39.4L64.42928932188134,38.92928932188134L64.57071067811866,39.07071067811866L64.04142135623731,39.6L63.54142135623731,39.6L62.04142135623731,41.1L61.54142135623731,41.1L61.04142135623731,41.6L59.45857864376269,41.6L58.9,41.04142135623731L58.9,39.95857864376269L59.45857864376269,39.4L59.95857864376269,39.4L67.95857864376269,31.4L70.04142135623731,31.4L71.6,32.95857864376269L71.6,33.45857864376269L72.6,34.45857864376269L72.6,37.95857864376269L74.54142135623731,39.9L75.54142135623731,39.9L76.04142135623731,40.4L77.04142135623731,40.4L78.54142135623731,41.9L79.04142135623731,41.9L80.04142135623731,42.9L80.54142135623731,42.9L81.04142135623731,43.4L81.54142135623731,43.4L82.04142135623731,43.9L83.04142135623731,43.9z" stroke="none"/><path d="M3.1,27L2.9,27L2.9,12.54142135623731L2.4,12.04142135623731L2.4,10.04142135623731L1.9,9.54142135623731L1.9,8.45857864376269L2.4585786437626904,7.9L4.45857864376269,7.9L4.95857864376269,7.4L9.45857864376269,7.4L10.45857864376269,6.4L10.95857864376269,6.4L11.45857864376269,5.9L12.95857864376269,5.9L13.45857864376269,5.4L13.95857864376269,5.4L14.45857864376269,4.9L16.958578643762692,4.9L17.458578643762692,4.4L18,4.4L18,4.6L17.541421356237308,4.6L17.041421356237308,5.1L14.54142135623731,5.1L14.04142135623731,5.6L13.54142135623731,5.6L13.04142135623731,6.1L11.54142135623731,6.1L11.04142135623731,6.6L10.54142135623731,6.6L9.54142135623731,7.6L5.04142135623731,7.6L4.54142135623731,8.1L2.5414213562373096,8.1L2.1,8.54142135623731L2.1,9.45857864376269L2.6,9.95857864376269L2.6,11.95857864376269L3.1,12.45857864376269z" stroke="none"/><path d="M39,4.6L39,4.4L39.95857864376269,4.4L40.45857864376269,3.9L40.95857864376269,3.9L41.4,3.4585786437626904L41.4,2.5414213562373096L40.95857864376269,2.1L16.041421356237308,2.1L15.54142135623731,2.6L13.04142135623731,2.6L12.54142135623731,3.1L12,3.1L12,2.9L12.45857864376269,2.9L12.95857864376269,2.4L15.45857864376269,2.4L15.95857864376269,1.9L41.04142135623731,1.9L41.6,2.4585786437626904L41.6,3.5414213562373096L41.04142135623731,4.1L40.54142135623731,4.1L40.04142135623731,4.6z" stroke="none"/><path d="M95.92928932188134,97.57071067811866L96.07071067811866,97.42928932188134L97.04142135623731,98.4L99.45857864376269,98.4L100.4,97.45857864376269L100.4,96.95857864376269L100.9,96.45857864376269L100.9,94.45857864376269L101.4,93.95857864376269L101.4,91.45857864376269L101.9,90.95857864376269L101.9,70.5L102.1,70.5L102.1,91.04142135623731L101.6,91.54142135623731L101.6,94.04142135623731L101.1,94.54142135623731L101.1,96.54142135623731L100.6,97.04142135623731L100.6,97.54142135623731L99.54142135623731,98.6L96.95857864376269,98.6z" stroke="none"/><path d="M19.429289321881345,9.070710678118655L19.570710678118655,8.929289321881345L20.541421356237308,9.9L30.958578643762692,9.9L31.458578643762692,9.4L31.958578643762692,9.4L32.45857864376269,8.9L32.95857864376269,8.9L33.45857864376269,8.4L33.95857864376269,8.4L35.45857864376269,6.9L36.45857864376269,6.9L36.95857864376269,6.4L37.45857864376269,6.4L38.45857864376269,5.4L39.95857864376269,5.4L40.95857864376269,4.4L41.95857864376269,4.4L43.45857864376269,2.9L44.45857864376269,2.9L45.45857864376269,1.9L65.54142135623731,1.9L66.04142135623731,2.4L66.54142135623731,2.4L67.04142135623731,2.9L68.54142135623731,2.9L70.6,4.95857864376269L70.6,21.041421356237308L70.1,21.541421356237308L70.1,22.041421356237308L69.1,23.041421356237308L69.1,29.541421356237308L68.54142135623731,30.1L40.54142135623731,30.1L39.54142135623731,31.1L38.54142135623731,31.1L38.04142135623731,31.6L37.5,31.6L37.5,31.4L37.95857864376269,31.4L38.45857864376269,30.9L39.45857864376269,30.9L40.45857864376269,29.9L68.45857864376269,29.9L68.9,29.458578643762692L68.9,22.958578643762692L69.9,21.958578643762692L69.9,21.458578643762692L70.4,20.958578643762692L70.4,5.04142135623731L68.45857864376269,3.1L66.95857864376269,3.1L66.45857864376269,2.6L65.95857864376269,2.6L65.45857864376269,2.1L45.54142135623731,2.1L44.54142135623731,3.1L43.54142135623731,3.1L42.04142135623731,4.6L41.04142135623731,4.6L40.04142135623731,5.6L38.54142135623731,5.6L37.54142135623731,6.6L37.04142135623731,6.6L36.54142135623731,7.1L35.54142135623731,7.1L34.04142135623731,8.6L33.54142135623731,8.6L33.04142135623731,9.1L32.54142135623731,9.1L32.04142135623731,9.6L31.541421356237308,9.6L31.041421356237308,10.1L20.458578643762692,10.1z" stroke="none"/><path d="M97.6,21L97.4,21L97.4,13.54142135623731L94.4,10.54142135623731L94.4,8.04142135623731L93.95857864376269,7.6L90.45857864376269,7.6L89.95857864376269,7.1L80.45857864376269,7.1L79.95857864376269,6.6L77.04142135623731,6.6L76.54142135623731,7.1L72.54142135623731,7.1L72.07071067811866,7.570710678118655L71.92928932188134,7.429289321881345L72.45857864376269,6.9L76.45857864376269,6.9L76.95857864376269,6.4L80.04142135623731,6.4L80.54142135623731,6.9L90.04142135623731,6.9L90.54142135623731,7.4L94.04142135623731,7.4L94.6,7.95857864376269L94.6,10.45857864376269L97.6,13.45857864376269z" stroke="none"/><path d="M34.6,81L34.4,81L34.4,78.95857864376269L34.9,78.45857864376269L34.9,77.95857864376269L35.4,77.45857864376269L35.4,76.95857864376269L35.9,76.45857864376269L35.9,75.95857864376269L36.4,75.45857864376269L36.4,73.45857864376269L36.9,72.95857864376269L36.9,71.95857864376269L37.4,71.45857864376269L37.4,63.54142135623731L36.95857864376269,63.1L19.041421356237308,63.1L18.541421356237308,63.6L18.041421356237308,63.6L17.541421356237308,64.1L15.95857864376269,64.1L15.4,63.54142135623731L15.4,51.95857864376269L15.9,51.45857864376269L15.9,50.95857864376269L16.4,50.45857864376269L16.4,49.95857864376269L17.4,48.95857864376269L17.4,46.95857864376269L18.958578643762692,45.4L20.041421356237308,45.4L20.6,45.95857864376269L20.6,46.45857864376269L21.6,47.45857864376269L21.6,47.95857864376269L22.1,48.45857864376269L22.1,48.95857864376269L22.6,49.45857864376269L22.6,49.95857864376269L23.1,50.45857864376269L23.1,50.95857864376269L23.6,51.45857864376269L23.6,53.04142135623731L23.041421356237308,53.6L20.541421356237308,53.6L19.541421356237308,54.6L19.041421356237308,54.6L18.070710678118655,55.57071067811866L17.929289321881345,55.42928932188134L18.958578643762692,54.4L19.458578643762692,54.4L20.458578643762692,53.4L22.958578643762692,53.4L23.4,52.95857864376269L23.4,51.54142135623731L22.9,51.04142135623731L22.9,50.54142135623731L22.4,50.04142135623731L22.4,49.54142135623731L21.9,49.04142135623731L21.9,48.54142135623731L21.4,48.04142135623731L21.4,47.54142135623731L20.4,46.54142135623731L20.4,46.04142135623731L19.958578643762692,45.6L19.041421356237308,45.6L17.6,47.04142135623731L17.6,49.04142135623731L16.6,50.04142135623731L16.6,50.54142135623731L16.1,51.04142135623731L16.1,51.54142135623731L15.6,52.04142135623731L15.6,63.45857864376269L16.041421356237308,63.9L17.458578643762692,63.9L17.958578643762692,63.4L18.458578643762692,63.4L18.958578643762692,62.9L37.04142135623731,62.9L37.6,63.45857864376269L37.6,71.54142135623731L37.1,72.04142135623731L37.1,73.04142135623731L36.6,73.54142135623731L36.6,75.54142135623731L36.1,76.04142135623731L36.1,76.54142135623731L35.6,77.04142135623731L35.6,77.54142135623731L35.1,78.04142135623731L35.1,78.54142135623731L34.6,79.04142135623731z" stroke="none"/><path d="M6.1,67.5L5.9,67.5L5.9,51.45857864376269L6.9,50.45857864376269L6.9,49.95857864376269L8.4,48.45857864376269L8.4,47.45857864376269L8.9,46.95857864376269L8.9,45.45857864376269L9.4,44.95857864376269L9.4,43.45857864376269L10.4,42.45857864376269L10.4,41.95857864376269L10.9,41.45857864376269L10.9,39.95857864376269L11.4,39.45857864376269L11.4,37.95857864376269L11.929289321881345,37.42928932188134L12.070710678118655,37.57071067811866L11.6,38.04142135623731L11.6,39.54142135623731L11.1,40.04142135623731L11.1,41.54142135623731L10.6,42.04142135623731L10.6,42.54142135623731L9.6,43.54142135623731L9.6,45.04142135623731L9.1,45.54142135623731L9.1,47.04142135623731L8.6,47.54142135623731L8.6,48.54142135623731L7.1,50.04142135623731L7.1,50.54142135623731L6.1,51.54142135623731z" stroke="none"/><path d="M61.5,95.9L61.5,96.1L60.54142135623731,96.1L60.04142135623731,96.6L59.54142135623731,96.6L59.1,97.04142135623731L59.1,97.95857864376269L59.54142135623731,98.4L61.45857864376269,98.4L62.45857864376269,97.4L63.95857864376269,97.4L67.4,93.95857864376269L67.4,92.04142135623731L66.45857864376269,91.1L65.45857864376269,91.1L64.95857864376269,90.6L64.45857864376269,90.6L51.45857864376269,77.6L50.45857864376269,77.6L49.95857864376269,77.1L49.45857864376269,77.1L47.95857864376269,75.6L46.95857864376269,75.6L45.4,74.04142135623731L45.4,71.54142135623731L44.4,70.54142135623731L44.4,70.04142135623731L43.42928932188134,69.07071067811866L43.57071067811866,68.92928932188134L44.6,69.95857864376269L44.6,70.45857864376269L45.6,71.45857864376269L45.6,73.95857864376269L47.04142135623731,75.4L48.04142135623731,75.4L49.54142135623731,76.9L50.04142135623731,76.9L50.54142135623731,77.4L51.54142135623731,77.4L64.54142135623731,90.4L65.04142135623731,90.4L65.54142135623731,90.9L66.54142135623731,90.9L67.6,91.95857864376269L67.6,94.04142135623731L64.04142135623731,97.6L62.54142135623731,97.6L61.54142135623731,98.6L59.45857864376269,98.6L58.9,98.04142135623731L58.9,96.95857864376269L59.45857864376269,96.4L59.95857864376269,96.4L60.45857864376269,95.9z" stroke="none"/><path d="M57.07071067811866,67.42928932188134L56.92928932188134,67.57071067811866L55.9,66.54142135623731L55.9,65.45857864376269L56.45857864376269,64.9L57.54142135623731,64.9L59.54142135623731,66.9L60.45857864376269,66.9L60.9,66.45857864376269L60.9,65.54142135623731L59.4,64.04142135623731L59.4,63.54142135623731L57.9,62.04142135623731L57.9,61.54142135623731L57.4,61.04142135623731L57.4,59.45857864376269L65.9,50.95857864376269L65.9,49.45857864376269L66.4,48.95857864376269L66.4,47.95857864376269L67.4,46.95857864376269L67.4,45.95857864376269L68.4,44.95857864376269L68.4,43.04142135623731L67.95857864376269,42.6L59.45857864376269,42.6L58.4,41.54142135623731L58.4,39.45857864376269L66.95857864376269,30.9L70.54142135623731,30.9L72.54142135623731,32.9L73.54142135623731,32.9L74.54142135623731,33.9L77.04142135623731,33.9L78.04142135623731,34.9L81.54142135623731,34.9L82.1,35.45857864376269L82.1,40.95857864376269L83.1,41.95857864376269L83.1,42.45857864376269L88.1,47.45857864376269L88.1,48.54142135623731L87.54142135623731,49.1L85.04142135623731,49.1L84.54142135623731,49.6L84,49.6L84,49.4L84.45857864376269,49.4L84.95857864376269,48.9L87.45857864376269,48.9L87.9,48.45857864376269L87.9,47.54142135623731L82.9,42.54142135623731L82.9,42.04142135623731L81.9,41.04142135623731L81.9,35.54142135623731L81.45857864376269,35.1L77.95857864376269,35.1L76.95857864376269,34.1L74.45857864376269,34.1L73.45857864376269,33.1L72.45857864376269,33.1L70.45857864376269,31.1L67.04142135623731,31.1L58.6,39.54142135623731L58.6,41.45857864376269L59.54142135623731,42.4L68.04142135623731,42.4L68.6,42.95857864376269L68.6,45.04142135623731L67.6,46.04142135623731L67.6,47.04142135623731L66.6,48.04142135623731L66.6,49.04142135623731L66.1,49.54142135623731L66.1,51.04142135623731L57.6,59.54142135623731L57.6,60.95857864376269L58.1,61.45857864376269L58.1,61.95857864376269L59.6,63.45857864376269L59.6,63.95857864376269L61.1,65.45857864376269L61.1,66.54142135623731L60.54142135623731,67.1L59.45857864376269,67.1L57.45857864376269,65.1L56.54142135623731,65.1L56.1,65.54142135623731L56.1,66.45857864376269z" stroke="none"/><path d="M76.42928932188134,76.42928932188134L76.57071067811866,76.57071067811866L68.54142135623731,84.6L67.04142135623731,84.6L66.6,85.04142135623731L66.6,85.95857864376269L71.1,90.45857864376269L71.1,91.45857864376269L71.6,91.95857864376269L71.6,92.45857864376269L72.6,93.45857864376269L72.6,94.45857864376269L73.1,94.95857864376269L73.1,95.95857864376269L74.1,96.95857864376269L74.1,97.45857864376269L75.54142135623731,98.9L78.04142135623731,98.9L78.54142135623731,99.4L79.54142135623731,99.4L80.04142135623731,99.9L83.54142135623731,99.9L85.04142135623731,101.4L96.45857864376269,101.4L96.95857864376269,100.9L97.95857864376269,100.9L98.45857864376269,100.4L99,100.4L99,100.6L98.54142135623731,100.6L98.04142135623731,101.1L97.04142135623731,101.1L96.54142135623731,101.6L84.95857864376269,101.6L83.45857864376269,100.1L79.95857864376269,100.1L79.45857864376269,99.6L78.45857864376269,99.6L77.95857864376269,99.1L75.45857864376269,99.1L73.9,97.54142135623731L73.9,97.04142135623731L72.9,96.04142135623731L72.9,95.04142135623731L72.4,94.54142135623731L72.4,93.54142135623731L71.4,92.54142135623731L71.4,92.04142135623731L70.9,91.54142135623731L70.9,90.54142135623731L66.4,86.04142135623731L66.4,84.95857864376269L66.95857864376269,84.4L68.45857864376269,84.4z" stroke="none"/><path d="M93,39.1L93,38.9L96.54142135623731,38.9L97.04142135623731,39.4L98.04142135623731,39.4L98.6,39.95857864376269L98.6,41.54142135623731L98.1,42.04142135623731L98.1,42.54142135623731L97.6,43.04142135623731L97.6,43.54142135623731L97.1,44.04142135623731L97.1,44.54142135623731L95.6,46.04142135623731L95.6,47.04142135623731L94.6,48.04142135623731L94.6,48.54142135623731L94.1,49.04142135623731L94.1,49.54142135623731L93.1,50.54142135623731L93.1,51.04142135623731L92.1,52.04142135623731L92.1,54.54142135623731L88.04142135623731,58.6L85.45857864376269,58.6L84.95857864376269,58.1L84.45857864376269,58.1L83.45857864376269,57.1L81.45857864376269,57.1L80.45857864376269,56.1L79.45857864376269,56.1L78.95857864376269,55.6L77.95857864376269,55.6L77.45857864376269,55.1L76.95857864376269,55.1L76.45857864376269,54.6L74.45857864376269,54.6L73.95857864376269,54.1L72.95857864376269,54.1L72.45857864376269,53.6L69.04142135623731,53.6L67.1,55.54142135623731L67.1,56.04142135623731L65.6,57.54142135623731L65.6,58.54142135623731L65.1,59.04142135623731L65.1,59.54142135623731L64.57071067811866,60.07071067811866L64.42928932188134,59.92928932188134L64.9,59.45857864376269L64.9,58.95857864376269L65.4,58.45857864376269L65.4,57.45857864376269L66.9,55.95857864376269L66.9,55.45857864376269L68.95857864376269,53.4L72.54142135623731,53.4L73.04142135623731,53.9L74.04142135623731,53.9L74.54142135623731,54.4L76.54142135623731,54.4L77.04142135623731,54.9L77.54142135623731,54.9L78.04142135623731,55.4L79.04142135623731,55.4L79.54142135623731,55.9L80.54142135623731,55.9L81.54142135623731,56.9L83.54142135623731,56.9L84.54142135623731,57.9L85.04142135623731,57.9L85.54142135623731,58.4L87.95857864376269,58.4L91.9,54.45857864376269L91.9,51.95857864376269L92.9,50.95857864376269L92.9,50.45857864376269L93.9,49.45857864376269L93.9,48.95857864376269L94.4,48.45857864376269L94.4,47.95857864376269L95.4,46.95857864376269L95.4,45.95857864376269L96.9,44.45857864376269L96.9,43.95857864376269L97.4,43.45857864376269L97.4,42.95857864376269L97.9,42.45857864376269L97.9,41.95857864376269L98.4,41.45857864376269L98.4,40.04142135623731L97.95857864376269,39.6L96.95857864376269,39.6L96.45857864376269,39.1z" stroke="none"/><path d="M94.5,70.4L94.5,70.6L92.45857864376269,70.6L91.95857864376269,70.1L91.45857864376269,70.1L90.95857864376269,69.6L83.04142135623731,69.6L82.54142135623731,70.1L81.54142135623731,70.1L69.54142135623731,82.1L69.04142135623731,82.1L68.54142135623731,82.6L68.04142135623731,82.6L66.1,84.54142135623731L66.1,87.95857864376269L67.1,88.95857864376269L67.1,89.45857864376269L67.6,89.95857864376269L67.6,90.45857864376269L68.1,90.95857864376269L68.1,95.54142135623731L67.57071067811866,96.07071067811866L67.42928932188134,95.92928932188134L67.9,95.45857864376269L67.9,91.04142135623731L67.4,90.54142135623731L67.4,90.04142135623731L66.9,89.54142135623731L66.9,89.04142135623731L65.9,88.04142135623731L65.9,84.45857864376269L67.95857864376269,82.4L68.45857864376269,82.4L68.95857864376269,81.9L69.45857864376269,81.9L81.45857864376269,69.9L82.45857864376269,69.9L82.95857864376269,69.4L91.04142135623731,69.4L91.54142135623731,69.9L92.04142135623731,69.9L92.54142135623731,70.4z" stroke="none"/><path d="M72,95.9L72,96.1L69.04142135623731,96.1L68.04142135623731,97.1L66.04142135623731,97.1L65.54142135623731,97.6L65.04142135623731,97.6L64.54142135623731,98.1L63.04142135623731,98.1L62.04142135623731,99.1L57.04142135623731,99.1L53.04142135623731,103.1L12.95857864376269,103.1L11.4,101.54142135623731L11.4,100.54142135623731L10.9,100.04142135623731L10.9,99.04142135623731L10.4,98.54142135623731L10.4,96.45857864376269L11.45857864376269,95.4L11.95857864376269,95.4L12.45857864376269,94.9L13.45857864376269,94.9L13.95857864376269,94.4L21.958578643762692,94.4L26.458578643762692,89.9L26.958578643762692,89.9L27.458578643762692,89.4L27.958578643762692,89.4L28.958578643762692,88.4L32.95857864376269,88.4L34.95857864376269,86.4L35.45857864376269,86.4L35.95857864376269,85.9L36.95857864376269,85.9L38.4,84.45857864376269L38.4,83.54142135623731L37.9,83.04142135623731L37.9,82.04142135623731L36.9,81.04142135623731L36.9,79.54142135623731L36.4,79.04142135623731L36.4,77.45857864376269L39.9,73.95857864376269L39.9,73.45857864376269L40.9,72.45857864376269L40.9,70.45857864376269L41.9,69.45857864376269L41.9,68.45857864376269L42.9,67.45857864376269L42.9,66.95857864376269L43.4,66.45857864376269L43.4,66L43.6,66L43.6,66.54142135623731L43.1,67.04142135623731L43.1,67.54142135623731L42.1,68.54142135623731L42.1,69.54142135623731L41.1,70.54142135623731L41.1,72.54142135623731L40.1,73.54142135623731L40.1,74.04142135623731L36.6,77.54142135623731L36.6,78.95857864376269L37.1,79.45857864376269L37.1,80.95857864376269L38.1,81.95857864376269L38.1,82.95857864376269L38.6,83.45857864376269L38.6,84.54142135623731L37.04142135623731,86.1L36.04142135623731,86.1L35.54142135623731,86.6L35.04142135623731,86.6L33.04142135623731,88.6L29.041421356237308,88.6L28.041421356237308,89.6L27.541421356237308,89.6L27.041421356237308,90.1L26.541421356237308,90.1L22.041421356237308,94.6L14.04142135623731,94.6L13.54142135623731,95.1L12.54142135623731,95.1L12.04142135623731,95.6L11.54142135623731,95.6L10.6,96.54142135623731L10.6,98.45857864376269L11.1,98.95857864376269L11.1,99.95857864376269L11.6,100.45857864376269L11.6,101.45857864376269L13.04142135623731,102.9L52.95857864376269,102.9L56.95857864376269,98.9L61.95857864376269,98.9L62.95857864376269,97.9L64.45857864376269,97.9L64.95857864376269,97.4L65.45857864376269,97.4L65.95857864376269,96.9L67.95857864376269,96.9L68.95857864376269,95.9z" stroke="none"/></svg>