<svg version="1.1" width="105" height="105" xmlns="http://www.w3.org/2000/svg"><path d="M99.04142135623731,85.9L101.45857864376269,85.9L101.92928932188134,85.42928932188134L102.07071067811866,85.57071067811866L101.54142135623731,86.1L99.04142135623731,86.1L98.6,86.54142135623731L98.6,87.04142135623731L97.6,88.04142135623731L97.6,88.5L97.4,88.5L97.4,87.95857864376269L98.4,86.95857864376269L98.4,86.45857864376269L98.85857864376268,86L98.4,85.54142135623731L98.4,85.04142135623731L97.42928932188134,84.07071067811866L97.57071067811866,83.92928932188134L98.6,84.95857864376269L98.6,85.45857864376269z" stroke="none"/><path d="M21.541421356237308,18.4L22.541421356237308,19.4L23.041421356237308,19.4L23.541421356237308,19.9L27.041421356237308,19.9L27.541421356237308,20.4L28.041421356237308,20.4L28.541421356237308,20.9L30,20.9L30,21.1L28.458578643762692,21.1L27.958578643762692,20.6L27.458578643762692,20.6L26.958578643762692,20.1L23.458578643762692,20.1L22.958578643762692,19.6L22.458578643762692,19.6L21.458578643762692,18.6L20.6,18.6L20.6,19.458578643762692L21.1,19.958578643762692L21.1,21L20.9,21L20.9,20.041421356237308L20.4,19.541421356237308L20.4,18.6L19.958578643762692,18.6L19.458578643762692,18.1L18.958578643762692,18.1L18.458578643762692,17.6L17.958578643762692,17.6L17.458578643762692,17.1L16.958578643762692,17.1L14.95857864376269,15.1L14.45857864376269,15.1L13.95857864376269,14.6L13.45857864376269,14.6L12.45857864376269,13.6L10.5,13.6L10.5,13.4L12.54142135623731,13.4L13.54142135623731,14.4L14.04142135623731,14.4L14.54142135623731,14.9L15.04142135623731,14.9L17.041421356237308,16.9L17.541421356237308,16.9L18.041421356237308,17.4L18.541421356237308,17.4L19.041421356237308,17.9L19.541421356237308,17.9L20.041421356237308,18.4z" stroke="none"/><path d="M50.45857864376269,12.9L54.45857864376269,12.9L56.45857864376269,10.9L57.95857864376269,10.9L59.92928932188134,8.929289321881345L60.07071067811866,9.070710678118655L58.04142135623731,11.1L56.54142135623731,11.1L54.54142135623731,13.1L50.54142135623731,13.1L48.64142135623731,15L49.54142135623731,15.9L50.54142135623731,15.9L51.07071067811866,16.429289321881345L50.92928932188134,16.570710678118655L50.45857864376269,16.1L49.45857864376269,16.1L48.5,15.14142135623731L47.04142135623731,16.6L46.04142135623731,16.6L45.54142135623731,17.1L40.54142135623731,17.1L40.04142135623731,17.6L37.54142135623731,17.6L36.54142135623731,18.6L36.04142135623731,18.6L35.54142135623731,19.1L35.04142135623731,19.1L34.57071067811866,19.570710678118655L34.42928932188134,19.429289321881345L34.95857864376269,18.9L35.45857864376269,18.9L35.95857864376269,18.4L36.45857864376269,18.4L37.45857864376269,17.4L39.95857864376269,17.4L40.45857864376269,16.9L45.45857864376269,16.9L45.95857864376269,16.4L46.95857864376269,16.4z" stroke="none"/><path d="M22.5,25.4L22.5,25.6L18.1,25.6L18.1,25.958578643762692L18.541421356237308,26.4L19.458578643762692,26.4L19.958578643762692,25.9L21.541421356237308,25.9L22.570710678118655,26.929289321881345L22.429289321881345,27.070710678118655L21.458578643762692,26.1L20.041421356237308,26.1L19.541421356237308,26.6L18.458578643762692,26.6L17.9,26.041421356237308L17.9,25.6L14.95857864376269,25.6L13.45857864376269,24.1L9,24.1L9,23.9L13.54142135623731,23.9L15.04142135623731,25.4z" stroke="none"/><path d="M63.45857864376269,92.4L68.4,87.45857864376269L68.4,86.95857864376269L69.4,85.95857864376269L69.4,84.95857864376269L70.42928932188134,83.92928932188134L70.57071067811866,84.07071067811866L69.6,85.04142135623731L69.6,86.04142135623731L68.6,87.04142135623731L68.6,87.54142135623731L63.64142135623731,92.5L68.54142135623731,97.4L69,97.4L69,97.6L68.45857864376269,97.6L63.45857864376269,92.6L61.54142135623731,92.6L60.04142135623731,94.1L54.04142135623731,94.1L53.54142135623731,94.6L52.54142135623731,94.6L51.07071067811866,96.07071067811866L50.92928932188134,95.92928932188134L52.45857864376269,94.4L53.45857864376269,94.4L53.95857864376269,93.9L59.95857864376269,93.9L61.45857864376269,92.4z" stroke="none"/><path d="M17.041421356237308,67.9L18.541421356237308,67.9L22.041421356237308,71.4L22.541421356237308,71.4L24.041421356237308,72.9L25.041421356237308,72.9L25.570710678118655,73.42928932188134L25.429289321881345,73.57071067811866L24.958578643762692,73.1L23.958578643762692,73.1L22.458578643762692,71.6L21.958578643762692,71.6L18.458578643762692,68.1L17.1,68.1L17.1,70.54142135623731L16.6,71.04142135623731L16.6,71.54142135623731L16.1,72.04142135623731L16.1,73.54142135623731L15.6,74.04142135623731L15.6,80.54142135623731L15.070710678118655,81.07071067811866L14.929289321881345,80.92928932188134L15.4,80.45857864376269L15.4,73.95857864376269L15.9,73.45857864376269L15.9,71.95857864376269L16.4,71.45857864376269L16.4,70.95857864376269L16.9,70.45857864376269L16.9,68.04142135623731L16.4,67.54142135623731L16.4,65.54142135623731L15.9,65.04142135623731L15.9,63.04142135623731L15.4,62.54142135623731L15.4,61.04142135623731L14.9,60.54142135623731L14.9,58.54142135623731L14.4,58.04142135623731L14.4,56.04142135623731L13.9,55.54142135623731L13.9,55.04142135623731L13.4,54.54142135623731L13.4,54.04142135623731L12.4,53.04142135623731L12.4,51.54142135623731L11.929289321881345,51.07071067811866L12.070710678118655,50.92928932188134L12.6,51.45857864376269L12.6,52.95857864376269L13.6,53.95857864376269L13.6,54.45857864376269L14.1,54.95857864376269L14.1,55.45857864376269L14.6,55.95857864376269L14.6,57.95857864376269L15.1,58.45857864376269L15.1,60.45857864376269L15.6,60.95857864376269L15.6,62.45857864376269L16.1,62.95857864376269L16.1,64.95857864376269L16.6,65.45857864376269L16.6,67.45857864376269z" stroke="none"/><path d="M66.45857864376269,31.9L69.4,28.958578643762692L69.4,28.458578643762692L71.4,26.458578643762692L71.4,25.958578643762692L83.92928932188134,13.429289321881345L84.07071067811866,13.570710678118655L71.6,26.041421356237308L71.6,26.541421356237308L69.6,28.541421356237308L69.6,29.041421356237308L60.6,38.04142135623731L60.6,40.04142135623731L60.07071067811866,40.57071067811866L59.92928932188134,40.42928932188134L60.4,39.95857864376269L60.4,37.95857864376269L66.25857864376269,32.1L65.54142135623731,32.1L55.57071067811866,42.07071067811866L55.42928932188134,41.92928932188134L65.45857864376269,31.9z" stroke="none"/><path d="M30.9,22.958578643762692L30.9,20.541421356237308L30.4,20.041421356237308L30.4,19.541421356237308L29.9,19.041421356237308L29.9,15.54142135623731L29.4,15.04142135623731L29.4,13.54142135623731L28.4,12.54142135623731L28.4,12L28.6,12L28.6,12.45857864376269L29.6,13.45857864376269L29.6,14.95857864376269L30.1,15.45857864376269L30.1,18.958578643762692L30.6,19.458578643762692L30.6,19.958578643762692L31.1,20.458578643762692L31.1,22.9L31.541421356237308,22.9L33.04142135623731,24.4L34.04142135623731,24.4L34.54142135623731,24.9L36.04142135623731,24.9L38.04142135623731,26.9L38.54142135623731,26.9L39.54142135623731,27.9L41.04142135623731,27.9L42.54142135623731,29.4L43.04142135623731,29.4L43.57071067811866,29.929289321881345L43.42928932188134,30.070710678118655L42.95857864376269,29.6L42.45857864376269,29.6L40.95857864376269,28.1L39.45857864376269,28.1L38.45857864376269,27.1L37.95857864376269,27.1L35.95857864376269,25.1L34.45857864376269,25.1L33.95857864376269,24.6L32.95857864376269,24.6L31.458578643762692,23.1L31.041421356237308,23.1L30.541421356237308,23.6L29.541421356237308,23.6L29.041421356237308,24.1L28.541421356237308,24.1L27.541421356237308,25.1L26.541421356237308,25.1L25.541421356237308,26.1L25.041421356237308,26.1L23.041421356237308,28.1L21.958578643762692,28.1L20.929289321881345,27.070710678118655L21.070710678118655,26.929289321881345L22.041421356237308,27.9L22.958578643762692,27.9L24.958578643762692,25.9L25.458578643762692,25.9L26.458578643762692,24.9L27.458578643762692,24.9L28.458578643762692,23.9L28.958578643762692,23.9L29.458578643762692,23.4L30.458578643762692,23.4z" stroke="none"/><path d="M85.9,32.4L85.9,29.541421356237308L84.9,28.541421356237308L84.9,25.041421356237308L84.4,24.541421356237308L84.4,22.041421356237308L83.9,21.541421356237308L83.9,21L84.1,21L84.1,21.458578643762692L84.6,21.958578643762692L84.6,24.458578643762692L85.1,24.958578643762692L85.1,28.458578643762692L86.1,29.458578643762692L86.1,32.45857864376269L101.1,47.45857864376269L101.1,47.95857864376269L101.6,48.45857864376269L101.6,48.95857864376269L102.07071067811866,49.42928932188134L101.92928932188134,49.57071067811866L101.4,49.04142135623731L101.4,48.54142135623731L100.9,48.04142135623731L100.9,47.54142135623731L85.95857864376269,32.6L84.45857864376269,32.6L82.95857864376269,31.1L82.45857864376269,31.1L81.95857864376269,30.6L80.95857864376269,30.6L79.95857864376269,29.6L79.45857864376269,29.6L78.95857864376269,29.1L78.45857864376269,29.1L77.95857864376269,28.6L76.95857864376269,28.6L73.95857864376269,25.6L73.5,25.6L73.5,25.4L74.04142135623731,25.4L77.04142135623731,28.4L78.04142135623731,28.4L78.54142135623731,28.9L79.04142135623731,28.9L79.54142135623731,29.4L80.04142135623731,29.4L81.04142135623731,30.4L82.04142135623731,30.4L82.54142135623731,30.9L83.04142135623731,30.9L84.54142135623731,32.4z" stroke="none"/><path d="M43.4,37.4L43.4,36.95857864376269L43.9,36.45857864376269L43.9,35.45857864376269L45.4,33.95857864376269L45.4,33.45857864376269L46.4,32.45857864376269L46.4,31.958578643762692L48.4,29.958578643762692L48.4,29.458578643762692L50.92928932188134,26.929289321881345L51.07071067811866,27.070710678118655L48.6,29.541421356237308L48.6,30.041421356237308L46.6,32.04142135623731L46.6,32.54142135623731L45.6,33.54142135623731L45.6,34.04142135623731L44.1,35.54142135623731L44.1,36.54142135623731L43.6,37.04142135623731L43.6,37.45857864376269L51.1,44.95857864376269L51.1,45.45857864376269L51.6,45.95857864376269L51.6,46.45857864376269L52.1,46.95857864376269L52.1,48.95857864376269L52.57071067811866,49.42928932188134L52.42928932188134,49.57071067811866L51.9,49.04142135623731L51.9,47.04142135623731L51.4,46.54142135623731L51.4,46.04142135623731L50.9,45.54142135623731L50.9,45.04142135623731L43.45857864376269,37.6L28.958578643762692,37.6L27.958578643762692,36.6L27.458578643762692,36.6L26.929289321881345,36.07071067811866L27.070710678118655,35.92928932188134L27.541421356237308,36.4L28.041421356237308,36.4L29.041421356237308,37.4z" stroke="none"/><path d="M76.4,55.95857864376269L76.4,55.04142135623731L74.4,53.04142135623731L74.4,51.54142135623731L73.9,51.04142135623731L73.9,50.04142135623731L65.9,42.04142135623731L65.9,41.54142135623731L64.9,40.54142135623731L64.9,40.04142135623731L64.4,39.54142135623731L64.4,39L64.6,39L64.6,39.45857864376269L65.1,39.95857864376269L65.1,40.45857864376269L66.1,41.45857864376269L66.1,41.95857864376269L74.1,49.95857864376269L74.1,50.95857864376269L74.6,51.45857864376269L74.6,52.95857864376269L76.6,54.95857864376269L76.6,55.9L78.04142135623731,55.9L78.54142135623731,56.4L79.04142135623731,56.4L79.57071067811866,56.92928932188134L79.42928932188134,57.07071067811866L78.95857864376269,56.6L78.45857864376269,56.6L77.95857864376269,56.1L76.6,56.1L76.6,56.45857864376269L77.04142135623731,56.9L78.04142135623731,56.9L78.54142135623731,57.4L89.04142135623731,57.4L89.54142135623731,57.9L90.54142135623731,57.9L92.04142135623731,59.4L92.54142135623731,59.4L93.07071067811866,59.92928932188134L92.92928932188134,60.07071067811866L92.45857864376269,59.6L91.95857864376269,59.6L90.45857864376269,58.1L89.45857864376269,58.1L88.95857864376269,57.6L78.45857864376269,57.6L77.95857864376269,57.1L76.95857864376269,57.1L76.4,56.54142135623731L76.4,56.24142135623731L75.6,57.04142135623731L75.6,58.54142135623731L75.1,59.04142135623731L75.1,60.54142135623731L74.6,61.04142135623731L74.6,61.54142135623731L74.1,62.04142135623731L74.1,64.54142135623731L71.1,67.54142135623731L71.1,68.54142135623731L70.57071067811866,69.07071067811866L70.42928932188134,68.92928932188134L70.9,68.45857864376269L70.9,67.45857864376269L73.9,64.45857864376269L73.9,61.95857864376269L74.4,61.45857864376269L74.4,60.95857864376269L74.9,60.45857864376269L74.9,58.95857864376269L75.4,58.45857864376269L75.4,56.95857864376269z" stroke="none"/><path d="M41.9,88.9L41.9,85.5L42.1,85.5L42.1,88.9L49.45857864376269,88.9L49.95857864376269,88.4L52.5,88.4L52.5,88.6L50.04142135623731,88.6L49.54142135623731,89.1L42.1,89.1L42.1,89.54142135623731L36.6,95.04142135623731L36.6,95.54142135623731L36.1,96.04142135623731L36.1,97.04142135623731L35.6,97.54142135623731L35.6,98.54142135623731L34.6,99.54142135623731L34.6,100.5L34.4,100.5L34.4,99.45857864376269L35.4,98.45857864376269L35.4,97.45857864376269L35.9,96.95857864376269L35.9,95.95857864376269L36.4,95.45857864376269L36.4,94.95857864376269L41.9,89.45857864376269L41.9,89.1L41.45857864376269,89.1L39.4,87.04142135623731L39.4,84.54142135623731L38.9,84.04142135623731L38.9,82.5L39.1,82.5L39.1,83.95857864376269L39.6,84.45857864376269L39.6,86.95857864376269L41.54142135623731,88.9z" stroke="none"/><path d="M78.9,21.9L78.9,20.958578643762692L85.9,13.95857864376269L85.9,8.45857864376269L86.4,7.95857864376269L86.4,6.95857864376269L86.9,6.45857864376269L86.9,6L87.1,6L87.1,6.54142135623731L86.6,7.04142135623731L86.6,8.04142135623731L86.1,8.54142135623731L86.1,14.04142135623731L79.1,21.041421356237308L79.1,21.75857864376269L79.95857864376269,20.9L80.45857864376269,20.9L80.95857864376269,20.4L82.95857864376269,20.4L83.45857864376269,19.9L84.54142135623731,19.9L85.1,20.458578643762692L85.1,23.958578643762692L85.6,24.458578643762692L85.6,27.958578643762692L86.6,28.958578643762692L86.6,30.458578643762692L87.1,30.958578643762692L87.1,31.5L86.9,31.5L86.9,31.041421356237308L86.4,30.541421356237308L86.4,29.041421356237308L85.4,28.041421356237308L85.4,24.541421356237308L84.9,24.041421356237308L84.9,20.541421356237308L84.45857864376269,20.1L83.54142135623731,20.1L83.04142135623731,20.6L81.04142135623731,20.6L80.54142135623731,21.1L80.04142135623731,21.1L79.14142135623732,22L82.57071067811866,25.429289321881345L82.42928932188134,25.570710678118655L78.95857864376269,22.1L78.45857864376269,22.1L77.9,21.541421356237308L77.9,20.958578643762692L84.9,13.95857864376269L84.9,13.04142135623731L84.45857864376269,12.6L83.54142135623731,12.6L82.54142135623731,13.6L82.04142135623731,13.6L79.54142135623731,16.1L78.04142135623731,16.1L76.54142135623731,17.6L75.54142135623731,17.6L73.54142135623731,19.6L73.04142135623731,19.6L72.04142135623731,20.6L69.54142135623731,20.6L69.04142135623731,21.1L68.54142135623731,21.1L68.04142135623731,21.6L67.04142135623731,21.6L64.54142135623731,24.1L63.54142135623731,24.1L63.04142135623731,24.6L61.54142135623731,24.6L61.04142135623731,25.1L60.54142135623731,25.1L60.07071067811866,25.570710678118655L59.92928932188134,25.429289321881345L60.45857864376269,24.9L60.95857864376269,24.9L61.45857864376269,24.4L62.95857864376269,24.4L63.45857864376269,23.9L64.45857864376269,23.9L66.95857864376269,21.4L67.95857864376269,21.4L68.45857864376269,20.9L68.95857864376269,20.9L69.45857864376269,20.4L71.95857864376269,20.4L72.95857864376269,19.4L73.45857864376269,19.4L75.45857864376269,17.4L76.45857864376269,17.4L77.95857864376269,15.9L79.45857864376269,15.9L81.95857864376269,13.4L82.45857864376269,13.4L83.45857864376269,12.4L84.54142135623731,12.4L85.1,12.95857864376269L85.1,14.04142135623731L78.1,21.041421356237308L78.1,21.458578643762692L78.54142135623731,21.9z" stroke="none"/><path d="M62.4,61.9L62.4,61.45857864376269L62.9,60.95857864376269L62.9,60.45857864376269L63.4,59.95857864376269L63.4,59.45857864376269L63.9,58.95857864376269L63.9,55.95857864376269L64.42928932188134,55.42928932188134L64.57071067811866,55.57071067811866L64.1,56.04142135623731L64.1,59.04142135623731L63.6,59.54142135623731L63.6,60.04142135623731L63.1,60.54142135623731L63.1,61.04142135623731L62.6,61.54142135623731L62.6,61.95857864376269L69.6,68.95857864376269L69.6,69.45857864376269L70.04142135623731,69.9L70.95857864376269,69.9L72.95857864376269,67.9L73.45857864376269,67.9L74.95857864376269,66.4L75.95857864376269,66.4L76.42928932188134,65.92928932188134L76.57071067811866,66.07071067811866L76.04142135623731,66.6L75.04142135623731,66.6L73.54142135623731,68.1L73.04142135623731,68.1L71.04142135623731,70.1L69.95857864376269,70.1L69.4,69.54142135623731L69.4,69.04142135623731L62.6,62.24142135623731L62.6,62.95857864376269L64.1,64.45857864376269L64.1,64.95857864376269L65.1,65.95857864376269L65.1,66.45857864376269L65.6,66.95857864376269L65.6,70.04142135623731L64.6,71.04142135623731L64.6,72.04142135623731L63.6,73.04142135623731L63.6,75.04142135623731L57.6,81.04142135623731L57.6,81.54142135623731L55.1,84.04142135623731L55.1,84.54142135623731L54.6,85.04142135623731L54.6,85.54142135623731L54.1,86.04142135623731L54.1,87.04142135623731L53.6,87.54142135623731L53.6,89.04142135623731L48.04142135623731,94.6L47.54142135623731,94.6L46.04142135623731,96.1L44.54142135623731,96.1L43.54142135623731,97.1L43.04142135623731,97.1L42.54142135623731,97.6L42.04142135623731,97.6L40.54142135623731,99.1L39.04142135623731,99.1L38.54142135623731,99.6L38.04142135623731,99.6L37.54142135623731,100.1L37.04142135623731,100.1L36.04142135623731,101.1L35.54142135623731,101.1L35.04142135623731,101.6L33.95857864376269,101.6L33.4,101.04142135623731L33.4,84.95857864376269L39.45857864376269,78.9L39.95857864376269,78.9L42.95857864376269,75.9L43.45857864376269,75.9L45.45857864376269,73.9L45.95857864376269,73.9L46.42928932188134,73.42928932188134L46.57071067811866,73.57071067811866L46.04142135623731,74.1L45.54142135623731,74.1L43.54142135623731,76.1L43.04142135623731,76.1L40.04142135623731,79.1L39.54142135623731,79.1L33.6,85.04142135623731L33.6,100.95857864376269L34.04142135623731,101.4L34.95857864376269,101.4L35.45857864376269,100.9L35.95857864376269,100.9L36.95857864376269,99.9L37.45857864376269,99.9L37.95857864376269,99.4L38.45857864376269,99.4L38.95857864376269,98.9L40.45857864376269,98.9L41.95857864376269,97.4L42.45857864376269,97.4L42.95857864376269,96.9L43.45857864376269,96.9L44.45857864376269,95.9L45.95857864376269,95.9L47.45857864376269,94.4L47.95857864376269,94.4L53.4,88.95857864376269L53.4,87.45857864376269L53.9,86.95857864376269L53.9,85.95857864376269L54.4,85.45857864376269L54.4,84.95857864376269L54.9,84.45857864376269L54.9,83.95857864376269L57.4,81.45857864376269L57.4,80.95857864376269L63.4,74.95857864376269L63.4,72.95857864376269L64.4,71.95857864376269L64.4,70.95857864376269L65.4,69.95857864376269L65.4,67.04142135623731L64.9,66.54142135623731L64.9,66.04142135623731L63.9,65.04142135623731L63.9,64.54142135623731L62.4,63.04142135623731L62.4,62.1L61.95857864376269,62.1L61.4,61.54142135623731L61.4,58.95857864376269L61.9,58.45857864376269L61.9,56.45857864376269L62.4,55.95857864376269L62.4,54.45857864376269L62.92928932188134,53.92928932188134L63.07071067811866,54.07071067811866L62.6,54.54142135623731L62.6,56.04142135623731L62.1,56.54142135623731L62.1,58.54142135623731L61.6,59.04142135623731L61.6,61.45857864376269L62.04142135623731,61.9z" stroke="none"/><path d="M57.4,27.4L57.4,16.958578643762692L57.9,16.458578643762692L57.9,14.95857864376269L58.4,14.45857864376269L58.4,13.45857864376269L60.4,11.45857864376269L60.4,9.95857864376269L60.9,9.45857864376269L60.9,8.54142135623731L60.45857864376269,8.1L58.54142135623731,8.1L58.04142135623731,8.6L57.04142135623731,8.6L56.04142135623731,9.6L55.54142135623731,9.6L55.04142135623731,10.1L54.54142135623731,10.1L52.04142135623731,12.6L50.04142135623731,12.6L49.54142135623731,13.1L49.04142135623731,13.1L48.54142135623731,13.6L48,13.6L48,13.4L48.45857864376269,13.4L48.95857864376269,12.9L49.45857864376269,12.9L49.95857864376269,12.4L51.95857864376269,12.4L54.45857864376269,9.9L54.95857864376269,9.9L55.45857864376269,9.4L55.95857864376269,9.4L56.95857864376269,8.4L57.95857864376269,8.4L58.45857864376269,7.9L60.54142135623731,7.9L61.1,8.45857864376269L61.1,9.54142135623731L60.6,10.04142135623731L60.6,11.54142135623731L58.6,13.54142135623731L58.6,14.54142135623731L58.1,15.04142135623731L58.1,16.541421356237308L57.6,17.041421356237308L57.6,27.4L58.95857864376269,27.4L59.45857864376269,26.9L59.95857864376269,26.9L60.45857864376269,26.4L63.45857864376269,26.4L64.42928932188134,25.429289321881345L64.57071067811866,25.570710678118655L63.54142135623731,26.6L60.54142135623731,26.6L60.04142135623731,27.1L59.54142135623731,27.1L59.04142135623731,27.6L57.54142135623731,27.6L56.1,29.041421356237308L56.1,35.54142135623731L55.6,36.04142135623731L55.6,40.04142135623731L55.1,40.54142135623731L55.1,41.04142135623731L54.6,41.54142135623731L54.6,42.45857864376269L55.04142135623731,42.9L56.95857864376269,42.9L58.45857864376269,41.4L60.45857864376269,41.4L67.95857864376269,33.9L68.45857864376269,33.9L68.95857864376269,33.4L70.95857864376269,33.4L71.45857864376269,32.9L72,32.9L72,33.1L71.54142135623731,33.1L71.04142135623731,33.6L69.04142135623731,33.6L68.54142135623731,34.1L68.04142135623731,34.1L60.54142135623731,41.6L58.54142135623731,41.6L57.04142135623731,43.1L54.95857864376269,43.1L54.4,42.54142135623731L54.4,41.45857864376269L54.9,40.95857864376269L54.9,40.45857864376269L55.4,39.95857864376269L55.4,35.95857864376269L55.9,35.45857864376269L55.9,28.958578643762692L57.25857864376269,27.6L56.54142135623731,27.6L49.1,35.04142135623731L49.1,35.54142135623731L48.1,36.54142135623731L48.1,37.04142135623731L47.6,37.54142135623731L47.6,38.04142135623731L46.57071067811866,39.07071067811866L46.42928932188134,38.92928932188134L47.4,37.95857864376269L47.4,37.45857864376269L47.9,36.95857864376269L47.9,36.45857864376269L48.9,35.45857864376269L48.9,34.95857864376269L56.45857864376269,27.4z" stroke="none"/><path d="M97.54142135623731,48.9L98.04142135623731,48.9L98.54142135623731,49.4L99.54142135623731,49.4L100.54142135623731,50.4L102.45857864376269,50.4L102.9,49.95857864376269L102.9,47.04142135623731L101.9,46.04142135623731L101.9,45.54142135623731L99.4,43.04142135623731L99.4,42.54142135623731L98.9,42.04142135623731L98.9,41.54142135623731L97.4,40.04142135623731L97.4,39.04142135623731L96.4,38.04142135623731L96.4,36.04142135623731L95.9,35.54142135623731L95.9,34.5L96.1,34.5L96.1,35.45857864376269L96.6,35.95857864376269L96.6,37.95857864376269L97.6,38.95857864376269L97.6,39.95857864376269L99.1,41.45857864376269L99.1,41.95857864376269L99.6,42.45857864376269L99.6,42.95857864376269L102.1,45.45857864376269L102.1,45.95857864376269L103.1,46.95857864376269L103.1,50.04142135623731L102.54142135623731,50.6L100.45857864376269,50.6L99.45857864376269,49.6L98.45857864376269,49.6L97.95857864376269,49.1L97.45857864376269,49.1L92.1,43.74142135623731L92.1,44.45857864376269L97.54142135623731,49.9L98.54142135623731,49.9L99.04142135623731,50.4L99.54142135623731,50.4L100.04142135623731,50.9L102.95857864376269,50.9L103.4,50.45857864376269L103.4,46.54142135623731L102.9,46.04142135623731L102.9,45.04142135623731L102.4,44.54142135623731L102.4,44.04142135623731L101.92928932188134,43.57071067811866L102.07071067811866,43.42928932188134L102.6,43.95857864376269L102.6,44.45857864376269L103.1,44.95857864376269L103.1,45.95857864376269L103.6,46.45857864376269L103.6,50.54142135623731L103.04142135623731,51.1L99.95857864376269,51.1L99.45857864376269,50.6L98.95857864376269,50.6L98.45857864376269,50.1L97.45857864376269,50.1L91.9,44.54142135623731L91.9,43.6L91.54142135623731,43.6L91.1,44.04142135623731L91.1,55.45857864376269L92.6,56.95857864376269L92.6,57.45857864376269L94.1,58.95857864376269L94.1,60.54142135623731L93.54142135623731,61.1L86.04142135623731,61.1L85.57071067811866,61.57071067811866L85.42928932188134,61.42928932188134L85.95857864376269,60.9L93.45857864376269,60.9L93.9,60.45857864376269L93.9,59.04142135623731L92.4,57.54142135623731L92.4,57.04142135623731L90.9,55.54142135623731L90.9,43.95857864376269L91.45857864376269,43.4L91.75857864376269,43.4L91.4,43.04142135623731L91.4,42.54142135623731L90.4,41.54142135623731L90.4,41.04142135623731L89.9,40.54142135623731L89.9,40.04142135623731L88.4,38.54142135623731L88.4,38.04142135623731L86.9,36.54142135623731L86.9,36.04142135623731L85.42928932188134,34.57071067811866L85.57071067811866,34.42928932188134L87.1,35.95857864376269L87.1,36.45857864376269L88.6,37.95857864376269L88.6,38.45857864376269L90.1,39.95857864376269L90.1,40.45857864376269L90.6,40.95857864376269L90.6,41.45857864376269L91.6,42.45857864376269L91.6,42.95857864376269z" stroke="none"/><path d="M28.9,31.9L28.9,31.541421356237308L28.458578643762692,31.1L27.541421356237308,31.1L27.041421356237308,31.6L22.541421356237308,31.6L22.041421356237308,32.1L21.541421356237308,32.1L21.041421356237308,32.6L18.041421356237308,32.6L17.541421356237308,33.1L16.5,33.1L16.5,32.9L17.458578643762692,32.9L17.958578643762692,32.4L20.958578643762692,32.4L21.458578643762692,31.9L21.958578643762692,31.9L22.458578643762692,31.4L26.958578643762692,31.4L27.458578643762692,30.9L28.541421356237308,30.9L29.1,31.458578643762692L29.1,31.9L41.45857864376269,31.9L41.95857864376269,31.4L43.45857864376269,31.4L44.4,30.458578643762692L44.4,29.541421356237308L42.45857864376269,27.6L40.95857864376269,27.6L39.45857864376269,26.1L38.95857864376269,26.1L37.95857864376269,25.1L36.95857864376269,25.1L35.92928932188134,24.070710678118655L36.07071067811866,23.929289321881345L37.04142135623731,24.9L38.04142135623731,24.9L39.04142135623731,25.9L39.54142135623731,25.9L41.04142135623731,27.4L42.54142135623731,27.4L44.6,29.458578643762692L44.6,30.541421356237308L43.54142135623731,31.6L42.04142135623731,31.6L41.54142135623731,32.1L29.1,32.1L29.1,32.45857864376269L29.541421356237308,32.9L41.45857864376269,32.9L41.95857864376269,32.4L43.45857864376269,32.4L49.95857864376269,25.9L51.54142135623731,25.9L52.1,26.458578643762692L52.1,27.541421356237308L51.1,28.541421356237308L51.1,29.041421356237308L47.6,32.54142135623731L47.6,33.04142135623731L45.6,35.04142135623731L45.6,35.54142135623731L45.07071067811866,36.07071067811866L44.92928932188134,35.92928932188134L45.4,35.45857864376269L45.4,34.95857864376269L47.4,32.95857864376269L47.4,32.45857864376269L50.9,28.958578643762692L50.9,28.458578643762692L51.9,27.458578643762692L51.9,26.541421356237308L51.45857864376269,26.1L50.04142135623731,26.1L43.54142135623731,32.6L42.04142135623731,32.6L41.54142135623731,33.1L29.458578643762692,33.1L28.9,32.54142135623731L28.9,32.1L27.041421356237308,32.1L26.541421356237308,32.6L26.041421356237308,32.6L25.541421356237308,33.1L24.541421356237308,33.1L24.041421356237308,33.6L23.541421356237308,33.6L23.041421356237308,34.1L22.541421356237308,34.1L21.541421356237308,35.1L21.041421356237308,35.1L20.041421356237308,36.1L19.5,36.1L19.5,35.9L19.958578643762692,35.9L20.958578643762692,34.9L21.458578643762692,34.9L22.458578643762692,33.9L22.958578643762692,33.9L23.458578643762692,33.4L23.958578643762692,33.4L24.458578643762692,32.9L25.458578643762692,32.9L25.958578643762692,32.4L26.458578643762692,32.4L26.958578643762692,31.9z" stroke="none"/><path d="M49.4,49.4L49.4,49.04142135623731L47.95857864376269,47.6L47.45857864376269,47.6L46.95857864376269,47.1L46.45857864376269,47.1L45.45857864376269,46.1L44.45857864376269,46.1L42.45857864376269,44.1L41.95857864376269,44.1L41.45857864376269,43.6L40.95857864376269,43.6L37.95857864376269,40.6L37.5,40.6L37.5,40.4L38.04142135623731,40.4L41.04142135623731,43.4L41.54142135623731,43.4L42.04142135623731,43.9L42.54142135623731,43.9L44.54142135623731,45.9L45.54142135623731,45.9L46.54142135623731,46.9L47.04142135623731,46.9L47.54142135623731,47.4L48.04142135623731,47.4L49.6,48.95857864376269L49.6,49.45857864376269L50.54142135623731,50.4L52.95857864376269,50.4L53.4,49.95857864376269L53.4,47.04142135623731L52.9,46.54142135623731L52.9,46.04142135623731L50.4,43.54142135623731L50.4,43.04142135623731L48.9,41.54142135623731L48.9,41.04142135623731L48.4,40.54142135623731L48.4,40.04142135623731L47.9,39.54142135623731L47.9,39L48.1,39L48.1,39.45857864376269L48.6,39.95857864376269L48.6,40.45857864376269L49.1,40.95857864376269L49.1,41.45857864376269L50.6,42.95857864376269L50.6,43.45857864376269L53.1,45.95857864376269L53.1,46.45857864376269L53.6,46.95857864376269L53.6,50.04142135623731L53.04142135623731,50.6L50.45857864376269,50.6L49.6,49.74142135623731L49.6,50.45857864376269L50.6,51.45857864376269L50.6,51.95857864376269L51.1,52.45857864376269L51.1,55.95857864376269L51.6,56.45857864376269L51.6,60.45857864376269L52.57071067811866,61.42928932188134L52.42928932188134,61.57071067811866L51.4,60.54142135623731L51.4,56.54142135623731L50.9,56.04142135623731L50.9,52.54142135623731L50.4,52.04142135623731L50.4,51.54142135623731L49.4,50.54142135623731L49.4,49.6L49.04142135623731,49.6L48.6,50.04142135623731L48.6,56.95857864376269L49.1,57.45857864376269L49.1,58.95857864376269L52.04142135623731,61.9L54.45857864376269,61.9L54.95857864376269,61.4L56.45857864376269,61.4L58.95857864376269,58.9L59.45857864376269,58.9L59.92928932188134,58.42928932188134L60.07071067811866,58.57071067811866L59.54142135623731,59.1L59.04142135623731,59.1L56.54142135623731,61.6L55.04142135623731,61.6L54.54142135623731,62.1L51.95857864376269,62.1L48.9,59.04142135623731L48.9,57.54142135623731L48.4,57.04142135623731L48.4,49.95857864376269L48.95857864376269,49.4z" stroke="none"/><path d="M49.4,73.4L49.4,72.95857864376269L57.9,64.45857864376269L57.9,63.45857864376269L58.9,62.45857864376269L58.9,61.95857864376269L60.4,60.45857864376269L60.4,59.45857864376269L60.9,58.95857864376269L60.9,58.04142135623731L59.92928932188134,57.07071067811866L60.07071067811866,56.92928932188134L61.1,57.95857864376269L61.1,59.04142135623731L60.6,59.54142135623731L60.6,60.54142135623731L59.1,62.04142135623731L59.1,62.54142135623731L58.1,63.54142135623731L58.1,64.54142135623731L49.6,73.04142135623731L49.6,73.4L51.45857864376269,73.4L53.45857864376269,71.4L55.45857864376269,71.4L55.95857864376269,70.9L56.45857864376269,70.9L56.95857864376269,70.4L57.95857864376269,70.4L58.45857864376269,69.9L60.95857864376269,69.9L62.45857864376269,68.4L63.45857864376269,68.4L64.42928932188134,67.42928932188134L64.57071067811866,67.57071067811866L63.54142135623731,68.6L62.54142135623731,68.6L61.04142135623731,70.1L58.54142135623731,70.1L58.04142135623731,70.6L57.04142135623731,70.6L56.54142135623731,71.1L56.04142135623731,71.1L55.54142135623731,71.6L53.54142135623731,71.6L51.54142135623731,73.6L49.54142135623731,73.6L43.6,79.54142135623731L43.6,80.04142135623731L42.6,81.04142135623731L42.6,81.54142135623731L42.1,82.04142135623731L42.1,82.54142135623731L40.57071067811866,84.07071067811866L40.42928932188134,83.92928932188134L41.9,82.45857864376269L41.9,81.95857864376269L42.4,81.45857864376269L42.4,80.95857864376269L43.4,79.95857864376269L43.4,79.45857864376269L49.25857864376269,73.6L48.54142135623731,73.6L44.04142135623731,78.1L43.54142135623731,78.1L43.04142135623731,78.6L42.54142135623731,78.6L41.04142135623731,80.1L40.54142135623731,80.1L40.04142135623731,80.6L39.54142135623731,80.6L34.57071067811866,85.57071067811866L34.42928932188134,85.42928932188134L39.45857864376269,80.4L39.95857864376269,80.4L40.45857864376269,79.9L40.95857864376269,79.9L42.45857864376269,78.4L42.95857864376269,78.4L43.45857864376269,77.9L43.95857864376269,77.9L48.45857864376269,73.4z" stroke="none"/><path d="M32.04142135623731,60.4L33.95857864376269,60.4L34.95857864376269,59.4L36.95857864376269,59.4L37.45857864376269,58.9L38.95857864376269,58.9L39.45857864376269,58.4L39.95857864376269,58.4L41.45857864376269,56.9L42.45857864376269,56.9L42.95857864376269,56.4L43.45857864376269,56.4L44.95857864376269,54.9L45.45857864376269,54.9L46.42928932188134,53.92928932188134L46.57071067811866,54.07071067811866L45.54142135623731,55.1L45.04142135623731,55.1L43.54142135623731,56.6L43.04142135623731,56.6L42.54142135623731,57.1L41.54142135623731,57.1L40.04142135623731,58.6L39.54142135623731,58.6L39.04142135623731,59.1L37.54142135623731,59.1L37.04142135623731,59.6L35.04142135623731,59.6L34.04142135623731,60.6L32.1,60.6L32.1,60.95857864376269L43.6,72.45857864376269L43.6,73.5L43.4,73.5L43.4,72.54142135623731L31.9,61.04142135623731L31.9,60.74142135623731L29.6,63.04142135623731L29.6,63.54142135623731L29.1,64.04142135623731L29.1,66.54142135623731L28.6,67.04142135623731L28.6,68.04142135623731L28.1,68.54142135623731L28.1,72.04142135623731L26.6,73.54142135623731L26.6,74.04142135623731L26.041421356237308,74.6L24.958578643762692,74.6L23.958578643762692,73.6L23.458578643762692,73.6L21.958578643762692,72.1L21.458578643762692,72.1L18.958578643762692,69.6L18.458578643762692,69.6L17.929289321881345,69.07071067811866L18.070710678118655,68.92928932188134L18.541421356237308,69.4L19.041421356237308,69.4L21.541421356237308,71.9L22.041421356237308,71.9L23.541421356237308,73.4L24.041421356237308,73.4L25.041421356237308,74.4L25.958578643762692,74.4L26.4,73.95857864376269L26.4,73.45857864376269L27.9,71.95857864376269L27.9,68.45857864376269L28.4,67.95857864376269L28.4,66.95857864376269L28.9,66.45857864376269L28.9,63.95857864376269L29.4,63.45857864376269L29.4,62.95857864376269L31.85857864376269,60.5L30.9,59.54142135623731L30.9,58.04142135623731L30.4,57.54142135623731L30.4,56.54142135623731L20.9,47.04142135623731L20.9,46.5L21.1,46.5L21.1,46.95857864376269L30.6,56.45857864376269L30.6,57.45857864376269L31.1,57.95857864376269L31.1,59.45857864376269z" stroke="none"/><path d="M19.5,30.1L19.5,29.9L21,29.9L21,30.1z" stroke="none"/><path d="M66,73.4L66,73.6L64.5,73.6L64.5,73.4z" stroke="none"/><path d="M101.92928932188134,59.92928932188134L102.07071067811866,60.07071067811866L100.57071067811866,61.57071067811866L100.42928932188134,61.42928932188134z" stroke="none"/><path d="M74.9,37.5L75.1,37.5L75.1,40.5L74.9,40.5z" stroke="none"/><path d="M65.92928932188134,55.57071067811866L66.07071067811866,55.42928932188134L69.07071067811866,58.42928932188134L68.92928932188134,58.57071067811866z" stroke="none"/><path d="M28.570710678118655,52.57071067811866L28.429289321881345,52.42928932188134L31.429289321881345,49.42928932188134L31.570710678118655,49.57071067811866z" stroke="none"/><path d="M98.9,31.5L99.1,31.5L99.1,36L98.9,36z" stroke="none"/><path d="M7.5,61.6L7.5,61.4L12,61.4L12,61.6z" stroke="none"/><path d="M15,37.4L15,37.6L14.54142135623731,37.6L13.54142135623731,38.6L13.04142135623731,38.6L12.54142135623731,39.1L10.5,39.1L10.5,38.9L12.45857864376269,38.9L12.95857864376269,38.4L13.45857864376269,38.4L14.45857864376269,37.4z" stroke="none"/><path d="M19.429289321881345,91.42928932188134L19.570710678118655,91.57071067811866L17.1,94.04142135623731L17.1,94.54142135623731L16.6,95.04142135623731L16.6,96L16.4,96L16.4,94.95857864376269L16.9,94.45857864376269L16.9,93.95857864376269z" stroke="none"/><path d="M76.5,51.1L76.5,50.9L77.04142135623731,50.9L77.54142135623731,51.4L78.54142135623731,51.4L79.54142135623731,52.4L82.5,52.4L82.5,52.6L79.45857864376269,52.6L78.45857864376269,51.6L77.45857864376269,51.6L76.95857864376269,51.1z" stroke="none"/><path d="M95.92928932188134,58.57071067811866L96.07071067811866,58.42928932188134L97.6,59.95857864376269L97.6,60.95857864376269L98.1,61.45857864376269L98.1,61.95857864376269L98.6,62.45857864376269L98.6,63.45857864376269L99.1,63.95857864376269L99.1,64.5L98.9,64.5L98.9,64.04142135623731L98.4,63.54142135623731L98.4,62.54142135623731L97.9,62.04142135623731L97.9,61.54142135623731L97.4,61.04142135623731L97.4,60.04142135623731z" stroke="none"/><path d="M94.57071067811866,27.070710678118655L94.42928932188134,26.929289321881345L95.9,25.458578643762692L95.9,24.458578643762692L96.4,23.958578643762692L96.4,23.458578643762692L96.9,22.958578643762692L96.9,21.958578643762692L97.4,21.458578643762692L97.4,21L97.6,21L97.6,21.541421356237308L97.1,22.041421356237308L97.1,23.041421356237308L96.6,23.541421356237308L96.6,24.041421356237308L96.1,24.541421356237308L96.1,25.541421356237308z" stroke="none"/><path d="M13.429289321881345,5.929289321881345L13.570710678118655,6.070710678118655L10.1,9.54142135623731L10.1,10.54142135623731L9.6,11.04142135623731L9.6,11.54142135623731L9.070710678118655,12.070710678118655L8.929289321881345,11.929289321881345L9.4,11.45857864376269L9.4,10.95857864376269L9.9,10.45857864376269L9.9,9.45857864376269z" stroke="none"/><path d="M93,73.6L93,73.4L95.54142135623731,73.4L96.04142135623731,73.9L96.54142135623731,73.9L97.04142135623731,74.4L97.54142135623731,74.4L98.04142135623731,74.9L100.5,74.9L100.5,75.1L97.95857864376269,75.1L97.45857864376269,74.6L96.95857864376269,74.6L96.45857864376269,74.1L95.95857864376269,74.1L95.45857864376269,73.6z" stroke="none"/><path d="M73.42928932188134,55.42928932188134L73.57071067811866,55.57071067811866L67.57071067811866,61.57071067811866L67.42928932188134,61.42928932188134z" stroke="none"/><path d="M17.929289321881345,74.92928932188134L18.070710678118655,75.07071067811866L17.1,76.04142135623731L17.1,77.04142135623731L16.6,77.54142135623731L16.6,80.04142135623731L16.1,80.54142135623731L16.1,81.54142135623731L15.54142135623731,82.1L14.45857864376269,82.1L12.45857864376269,80.1L11.45857864376269,80.1L10.95857864376269,79.6L10.5,79.6L10.5,79.4L11.04142135623731,79.4L11.54142135623731,79.9L12.54142135623731,79.9L14.54142135623731,81.9L15.45857864376269,81.9L15.9,81.45857864376269L15.9,80.45857864376269L16.4,79.95857864376269L16.4,77.45857864376269L16.9,76.95857864376269L16.9,75.95857864376269z" stroke="none"/><path d="M96.1,18L95.9,18L95.9,15.04142135623731L94.9,14.04142135623731L94.9,13.54142135623731L94.4,13.04142135623731L94.4,9L94.6,9L94.6,12.95857864376269L95.1,13.45857864376269L95.1,13.95857864376269L96.1,14.95857864376269z" stroke="none"/><path d="M40.5,76.4L40.5,76.6L37.45857864376269,76.6L35.95857864376269,75.1L31.5,75.1L31.5,74.9L36.04142135623731,74.9L37.54142135623731,76.4z" stroke="none"/><path d="M23.9,6L24.1,6L24.1,7.95857864376269L24.6,8.45857864376269L24.6,9.45857864376269L25.1,9.95857864376269L25.1,10.45857864376269L25.6,10.95857864376269L25.6,15L25.4,15L25.4,11.04142135623731L24.9,10.54142135623731L24.9,10.04142135623731L24.4,9.54142135623731L24.4,8.54142135623731L23.9,8.04142135623731z" stroke="none"/><path d="M16.570710678118655,87.07071067811866L16.429289321881345,86.92928932188134L16.9,86.45857864376269L16.9,85.45857864376269L17.4,84.95857864376269L17.4,81.95857864376269L17.9,81.45857864376269L17.9,79.45857864376269L19.429289321881345,77.92928932188134L19.570710678118655,78.07071067811866L18.1,79.54142135623731L18.1,81.54142135623731L17.6,82.04142135623731L17.6,85.04142135623731L17.1,85.54142135623731L17.1,86.54142135623731z" stroke="none"/><path d="M46.5,25.4L46.5,25.6L43.45857864376269,25.6L41.95857864376269,24.1L40.95857864376269,24.1L39.95857864376269,23.1L38.95857864376269,23.1L38.45857864376269,22.6L37.5,22.6L37.5,22.4L38.54142135623731,22.4L39.04142135623731,22.9L40.04142135623731,22.9L41.04142135623731,23.9L42.04142135623731,23.9L43.54142135623731,25.4z" stroke="none"/><path d="M3.1,24L2.9,24L2.9,22.958578643762692L3.4,22.458578643762692L3.4,21.958578643762692L4.9,20.458578643762692L4.9,17.958578643762692L5.4,17.458578643762692L5.4,16.958578643762692L7.429289321881345,14.929289321881345L7.570710678118655,15.070710678118655L5.6,17.041421356237308L5.6,17.541421356237308L5.1,18.041421356237308L5.1,20.541421356237308L3.6,22.041421356237308L3.6,22.541421356237308L3.1,23.041421356237308z" stroke="none"/><path d="M4.6,96L4.4,96L4.4,95.54142135623731L3.9,95.04142135623731L3.9,94.04142135623731L3.4,93.54142135623731L3.4,88.95857864376269L3.9,88.45857864376269L3.9,86.45857864376269L4.4,85.95857864376269L4.4,85.5L4.6,85.5L4.6,86.04142135623731L4.1,86.54142135623731L4.1,88.54142135623731L3.6,89.04142135623731L3.6,93.45857864376269L4.1,93.95857864376269L4.1,94.95857864376269L4.6,95.45857864376269z" stroke="none"/><path d="M27,23.9L27,24.1L14.45857864376269,24.1L13.95857864376269,23.6L10.45857864376269,23.6L9.95857864376269,23.1L8.54142135623731,23.1L8.1,23.541421356237308L8.1,24.458578643762692L15.6,31.958578643762692L15.6,33.45857864376269L19.041421356237308,36.9L20.958578643762692,36.9L22.458578643762692,35.4L25.958578643762692,35.4L26.458578643762692,34.9L27.458578643762692,34.9L27.958578643762692,34.4L28.5,34.4L28.5,34.6L28.041421356237308,34.6L27.541421356237308,35.1L26.541421356237308,35.1L26.041421356237308,35.6L22.541421356237308,35.6L21.041421356237308,37.1L18.958578643762692,37.1L15.4,33.54142135623731L15.4,32.04142135623731L7.9,24.541421356237308L7.9,23.458578643762692L8.45857864376269,22.9L10.04142135623731,22.9L10.54142135623731,23.4L14.04142135623731,23.4L14.54142135623731,23.9z" stroke="none"/><path d="M8.9,49.5L9.1,49.5L9.1,50.45857864376269L9.6,50.95857864376269L9.6,51.45857864376269L11.1,52.95857864376269L11.1,57.95857864376269L12.1,58.95857864376269L12.1,60L11.9,60L11.9,59.04142135623731L10.9,58.04142135623731L10.9,53.04142135623731L9.4,51.54142135623731L9.4,51.04142135623731L8.9,50.54142135623731z" stroke="none"/><path d="M43.5,52.6L43.5,52.4L46.54142135623731,52.4L47.6,53.45857864376269L47.6,54.54142135623731L39.07071067811866,63.07071067811866L38.92928932188134,62.92928932188134L47.4,54.45857864376269L47.4,53.54142135623731L46.45857864376269,52.6z" stroke="none"/><path d="M69,49.4L69,49.6L57,49.6L57,49.4z" stroke="none"/><path d="M98.92928932188134,2.9292893218813454L99.07071067811866,3.0707106781186546L94.04142135623731,8.1L93.54142135623731,8.1L93.04142135623731,8.6L91.54142135623731,8.6L91.04142135623731,9.1L90.54142135623731,9.1L90.04142135623731,9.6L89.54142135623731,9.6L88.57071067811866,10.570710678118655L88.42928932188134,10.429289321881345L89.45857864376269,9.4L89.95857864376269,9.4L90.45857864376269,8.9L90.95857864376269,8.9L91.45857864376269,8.4L92.95857864376269,8.4L93.45857864376269,7.9L93.95857864376269,7.9z" stroke="none"/><path d="M15,2.9L15,3.1L14.04142135623731,3.1L13.54142135623731,3.6L13.04142135623731,3.6L12.04142135623731,4.6L9.54142135623731,4.6L7.04142135623731,7.1L5.04142135623731,7.1L3.0707106781186546,9.070710678118655L2.9292893218813454,8.929289321881345L4.95857864376269,6.9L6.95857864376269,6.9L9.45857864376269,4.4L11.95857864376269,4.4L12.95857864376269,3.4L13.45857864376269,3.4L13.95857864376269,2.9z" stroke="none"/><path d="M101.92928932188134,53.92928932188134L102.07071067811866,54.07071067811866L101.1,55.04142135623731L101.1,56.04142135623731L100.1,57.04142135623731L100.1,59.04142135623731L99.6,59.54142135623731L99.6,63.45857864376269L100.1,63.95857864376269L100.1,65.04142135623731L97.57071067811866,67.57071067811866L97.42928932188134,67.42928932188134L99.9,64.95857864376269L99.9,64.04142135623731L99.4,63.54142135623731L99.4,59.45857864376269L99.9,58.95857864376269L99.9,56.95857864376269L100.9,55.95857864376269L100.9,54.95857864376269z" stroke="none"/><path d="M21.070710678118655,58.42928932188134L20.929289321881345,58.57071067811866L11.45857864376269,49.1L10.95857864376269,49.1L10.45857864376269,48.6L8.54142135623731,48.6L8.1,49.04142135623731L8.1,58.04142135623731L7.6,58.54142135623731L7.6,59.54142135623731L6.6,60.54142135623731L6.6,61.04142135623731L6.070710678118655,61.57071067811866L5.929289321881345,61.42928932188134L6.4,60.95857864376269L6.4,60.45857864376269L7.4,59.45857864376269L7.4,58.45857864376269L7.9,57.95857864376269L7.9,48.95857864376269L8.45857864376269,48.4L10.54142135623731,48.4L11.04142135623731,48.9L11.54142135623731,48.9z" stroke="none"/><path d="M60.07071067811866,13.570710678118655L59.92928932188134,13.429289321881345L60.4,12.95857864376269L60.4,12.45857864376269L60.9,11.95857864376269L60.9,10.45857864376269L61.4,9.95857864376269L61.4,8.04142135623731L60.95857864376269,7.6L53.54142135623731,7.6L53.04142135623731,8.1L52.04142135623731,8.1L49.04142135623731,11.1L48.04142135623731,11.1L47.54142135623731,11.6L46.04142135623731,11.6L45.04142135623731,12.6L43.54142135623731,12.6L41.54142135623731,14.6L39.04142135623731,14.6L37.04142135623731,16.6L36.54142135623731,16.6L35.04142135623731,18.1L34.54142135623731,18.1L33.6,19.041421356237308L33.6,19.958578643762692L34.04142135623731,20.4L42.95857864376269,20.4L43.45857864376269,19.9L43.95857864376269,19.9L44.45857864376269,19.4L45,19.4L45,19.6L44.54142135623731,19.6L44.04142135623731,20.1L43.54142135623731,20.1L43.04142135623731,20.6L33.95857864376269,20.6L33.4,20.041421356237308L33.4,18.958578643762692L34.45857864376269,17.9L34.95857864376269,17.9L36.45857864376269,16.4L36.95857864376269,16.4L38.95857864376269,14.4L41.45857864376269,14.4L43.45857864376269,12.4L44.95857864376269,12.4L45.95857864376269,11.4L47.45857864376269,11.4L47.95857864376269,10.9L48.95857864376269,10.9L51.95857864376269,7.9L52.95857864376269,7.9L53.45857864376269,7.4L61.04142135623731,7.4L61.6,7.95857864376269L61.6,10.04142135623731L61.1,10.54142135623731L61.1,12.04142135623731L60.6,12.54142135623731L60.6,13.04142135623731z" stroke="none"/><path d="M78.07071067811866,95.92928932188134L77.92928932188134,96.07071067811866L77.4,95.54142135623731L77.4,95.04142135623731L76.9,94.54142135623731L76.9,93.54142135623731L76.4,93.04142135623731L76.4,92.04142135623731L73.9,89.54142135623731L73.9,86.04142135623731L70.95857864376269,83.1L69.45857864376269,83.1L68.92928932188134,82.57071067811866L69.07071067811866,82.42928932188134L69.54142135623731,82.9L71.04142135623731,82.9L74.1,85.95857864376269L74.1,89.45857864376269L76.6,91.95857864376269L76.6,92.95857864376269L77.1,93.45857864376269L77.1,94.45857864376269L77.6,94.95857864376269L77.6,95.45857864376269z" stroke="none"/><path d="M36,101.9L36,102.1L31.458578643762692,102.1L30.458578643762692,101.1L21.041421356237308,101.1L20.041421356237308,102.1L19.5,102.1L19.5,101.9L19.958578643762692,101.9L20.958578643762692,100.9L30.541421356237308,100.9L31.541421356237308,101.9z" stroke="none"/><path d="M91.42928932188134,22.570710678118655L91.57071067811866,22.429289321881345L92.1,22.958578643762692L92.1,23.958578643762692L92.6,24.458578643762692L92.6,25.958578643762692L93.1,26.458578643762692L93.1,26.958578643762692L93.6,27.458578643762692L93.6,27.958578643762692L94.1,28.458578643762692L94.1,36.45857864376269L94.6,36.95857864376269L94.6,39L94.4,39L94.4,37.04142135623731L93.9,36.54142135623731L93.9,28.541421356237308L93.4,28.041421356237308L93.4,27.541421356237308L92.9,27.041421356237308L92.9,26.541421356237308L92.4,26.041421356237308L92.4,24.541421356237308L91.9,24.041421356237308L91.9,23.041421356237308z" stroke="none"/><path d="M75.1,87L74.9,87L74.9,86.45857864376269L76.4,84.95857864376269L76.4,84.45857864376269L76.9,83.95857864376269L76.9,82.45857864376269L77.4,81.95857864376269L77.4,77.95857864376269L77.9,77.45857864376269L77.9,76.45857864376269L78.9,75.45857864376269L78.9,74.95857864376269L79.4,74.45857864376269L79.4,73.45857864376269L80.4,72.45857864376269L80.4,71.45857864376269L80.9,70.95857864376269L80.9,70.5L81.1,70.5L81.1,71.04142135623731L80.6,71.54142135623731L80.6,72.54142135623731L79.6,73.54142135623731L79.6,74.54142135623731L79.1,75.04142135623731L79.1,75.54142135623731L78.1,76.54142135623731L78.1,77.54142135623731L77.6,78.04142135623731L77.6,82.04142135623731L77.1,82.54142135623731L77.1,84.04142135623731L76.6,84.54142135623731L76.6,85.04142135623731L75.1,86.54142135623731z" stroke="none"/><path d="M25.5,76.4L25.5,76.6L21.041421356237308,76.6L20.541421356237308,77.1L19.041421356237308,77.1L18.6,77.54142135623731L18.6,78.04142135623731L17.1,79.54142135623731L17.1,80.54142135623731L16.6,81.04142135623731L16.6,82.04142135623731L16.041421356237308,82.6L9,82.6L9,82.4L15.95857864376269,82.4L16.4,81.95857864376269L16.4,80.95857864376269L16.9,80.45857864376269L16.9,79.45857864376269L18.4,77.95857864376269L18.4,77.45857864376269L18.958578643762692,76.9L20.458578643762692,76.9L20.958578643762692,76.4z" stroke="none"/><path d="M10.5,42.1L10.5,41.9L23.041421356237308,41.9L23.541421356237308,42.4L24.041421356237308,42.4L24.541421356237308,42.9L25.541421356237308,42.9L26.541421356237308,43.9L27.041421356237308,43.9L28.041421356237308,44.9L28.5,44.9L28.5,45.1L27.958578643762692,45.1L26.958578643762692,44.1L26.458578643762692,44.1L25.458578643762692,43.1L24.458578643762692,43.1L23.958578643762692,42.6L23.458578643762692,42.6L22.958578643762692,42.1z" stroke="none"/><path d="M95.92928932188134,74.92928932188134L96.07071067811866,75.07071067811866L92.54142135623731,78.6L92.04142135623731,78.6L91.54142135623731,79.1L91.04142135623731,79.1L89.54142135623731,80.6L88.54142135623731,80.6L88.04142135623731,81.1L87.54142135623731,81.1L86.04142135623731,82.6L85.54142135623731,82.6L84.04142135623731,84.1L83.54142135623731,84.1L82.54142135623731,85.1L81.54142135623731,85.1L81.07071067811866,85.57071067811866L80.92928932188134,85.42928932188134L81.45857864376269,84.9L82.45857864376269,84.9L83.45857864376269,83.9L83.95857864376269,83.9L85.45857864376269,82.4L85.95857864376269,82.4L87.45857864376269,80.9L87.95857864376269,80.9L88.45857864376269,80.4L89.45857864376269,80.4L90.95857864376269,78.9L91.45857864376269,78.9L91.95857864376269,78.4L92.45857864376269,78.4z" stroke="none"/><path d="M91.57071067811866,98.92928932188134L91.42928932188134,99.07071067811866L83.4,91.04142135623731L83.4,90.54142135623731L82.9,90.04142135623731L82.9,89.54142135623731L82.4,89.04142135623731L82.4,88.54142135623731L79.9,86.04142135623731L79.9,83.45857864376269L80.45857864376269,82.9L81.45857864376269,82.9L81.95857864376269,82.4L82.5,82.4L82.5,82.6L82.04142135623731,82.6L81.54142135623731,83.1L80.54142135623731,83.1L80.1,83.54142135623731L80.1,85.95857864376269L82.6,88.45857864376269L82.6,88.95857864376269L83.1,89.45857864376269L83.1,89.95857864376269L83.6,90.45857864376269L83.6,90.95857864376269z" stroke="none"/><path d="M7.6,84L7.4,84L7.4,72.95857864376269L7.9,72.45857864376269L7.9,71.95857864376269L12.9,66.95857864376269L12.9,66.45857864376269L13.429289321881345,65.92928932188134L13.570710678118655,66.07071067811866L13.1,66.54142135623731L13.1,67.04142135623731L8.1,72.04142135623731L8.1,72.54142135623731L7.6,73.04142135623731z" stroke="none"/><path d="M4.4,81L4.6,81L4.6,81.45857864376269L5.1,81.95857864376269L5.1,82.45857864376269L6.6,83.95857864376269L6.6,84.45857864376269L12.1,89.95857864376269L12.1,91.45857864376269L13.6,92.95857864376269L13.6,93.45857864376269L15.6,95.45857864376269L15.6,96.45857864376269L16.041421356237308,96.9L16.958578643762692,96.9L17.4,96.45857864376269L17.4,95.45857864376269L17.9,94.95857864376269L17.9,94.5L18.1,94.5L18.1,95.04142135623731L17.6,95.54142135623731L17.6,96.54142135623731L17.041421356237308,97.1L15.95857864376269,97.1L15.4,96.54142135623731L15.4,95.54142135623731L13.4,93.54142135623731L13.4,93.04142135623731L11.9,91.54142135623731L11.9,90.04142135623731L6.4,84.54142135623731L6.4,84.04142135623731L4.9,82.54142135623731L4.9,82.04142135623731L4.4,81.54142135623731z" stroke="none"/><path d="M102,2.9L102,3.1L100.45857864376269,3.1L99.45857864376269,2.1L97.54142135623731,2.1L93.04142135623731,6.6L92.54142135623731,6.6L90.54142135623731,8.6L89.54142135623731,8.6L89.04142135623731,9.1L88.54142135623731,9.1L87.6,10.04142135623731L87.6,14.95857864376269L88.1,15.45857864376269L88.1,15.95857864376269L88.57071067811866,16.429289321881345L88.42928932188134,16.570710678118655L87.9,16.041421356237308L87.9,15.54142135623731L87.4,15.04142135623731L87.4,9.95857864376269L88.45857864376269,8.9L88.95857864376269,8.9L89.45857864376269,8.4L90.45857864376269,8.4L92.45857864376269,6.4L92.95857864376269,6.4L97.45857864376269,1.9L99.54142135623731,1.9L100.54142135623731,2.9z" stroke="none"/><path d="M100.5,87.1L100.5,86.9L101.95857864376269,86.9L102.9,85.95857864376269L102.9,79.54142135623731L102.4,79.04142135623731L102.4,77.04142135623731L101.4,76.04142135623731L101.4,74.54142135623731L100.45857864376269,73.6L96.45857864376269,73.6L95.95857864376269,73.1L94.45857864376269,73.1L93.95857864376269,72.6L91.45857864376269,72.6L90.95857864376269,72.1L88.5,72.1L88.5,71.9L91.04142135623731,71.9L91.54142135623731,72.4L94.04142135623731,72.4L94.54142135623731,72.9L96.04142135623731,72.9L96.54142135623731,73.4L100.54142135623731,73.4L101.6,74.45857864376269L101.6,75.95857864376269L102.6,76.95857864376269L102.6,78.95857864376269L103.1,79.45857864376269L103.1,86.04142135623731L102.04142135623731,87.1z" stroke="none"/><path d="M81,5.9L81,6.1L66.95857864376269,6.1L66.45857864376269,5.6L64.95857864376269,5.6L62.95857864376269,3.6L61.95857864376269,3.6L61.42928932188134,3.0707106781186546L61.57071067811866,2.9292893218813454L62.04142135623731,3.4L63.04142135623731,3.4L65.04142135623731,5.4L66.54142135623731,5.4L67.04142135623731,5.9z" stroke="none"/><path d="M100.4,18L100.6,18L100.6,19.041421356237308L100.1,19.541421356237308L100.1,20.541421356237308L99.1,21.541421356237308L99.1,27.541421356237308L98.6,28.041421356237308L98.6,30.541421356237308L98.1,31.041421356237308L98.1,35.04142135623731L97.6,35.54142135623731L97.6,37.5L97.4,37.5L97.4,35.45857864376269L97.9,34.95857864376269L97.9,30.958578643762692L98.4,30.458578643762692L98.4,27.958578643762692L98.9,27.458578643762692L98.9,21.458578643762692L99.9,20.458578643762692L99.9,19.458578643762692L100.4,18.958578643762692z" stroke="none"/><path d="M70.5,97.6L70.5,97.4L83.04142135623731,97.4L83.54142135623731,97.9L85.04142135623731,97.9L88.04142135623731,100.9L88.54142135623731,100.9L89.54142135623731,101.9L90,101.9L90,102.1L89.45857864376269,102.1L88.45857864376269,101.1L87.95857864376269,101.1L84.95857864376269,98.1L83.45857864376269,98.1L82.95857864376269,97.6z" stroke="none"/><path d="M85.42928932188134,3.0707106781186546L85.57071067811866,2.9292893218813454L88.1,5.45857864376269L88.1,8.54142135623731L87.1,9.54142135623731L87.1,15.95857864376269L87.6,16.458578643762692L87.6,16.958578643762692L88.04142135623731,17.4L92.54142135623731,17.4L94.04142135623731,18.9L96.45857864376269,18.9L96.95857864376269,18.4L97.95857864376269,18.4L98.45857864376269,17.9L99,17.9L99,18.1L98.54142135623731,18.1L98.04142135623731,18.6L97.04142135623731,18.6L96.54142135623731,19.1L93.95857864376269,19.1L92.45857864376269,17.6L87.95857864376269,17.6L87.4,17.041421356237308L87.4,16.541421356237308L86.9,16.041421356237308L86.9,9.45857864376269L87.9,8.45857864376269L87.9,5.54142135623731z" stroke="none"/><path d="M6.070710678118655,19.570710678118655L5.929289321881345,19.429289321881345L8.4,16.958578643762692L8.4,15.45857864376269L8.9,14.95857864376269L8.9,13.45857864376269L14.95857864376269,7.4L15.45857864376269,7.4L17.958578643762692,4.9L18.958578643762692,4.9L19.429289321881345,4.429289321881345L19.570710678118655,4.570710678118655L19.041421356237308,5.1L18.041421356237308,5.1L15.54142135623731,7.6L15.04142135623731,7.6L9.1,13.54142135623731L9.1,15.04142135623731L8.6,15.54142135623731L8.6,17.041421356237308z" stroke="none"/><path d="M4.6,43.5L4.4,43.5L4.4,28.958578643762692L4.9,28.458578643762692L4.9,25.958578643762692L5.9,24.958578643762692L5.9,24.458578643762692L7.4,22.958578643762692L7.4,22.5L7.6,22.5L7.6,23.041421356237308L6.1,24.541421356237308L6.1,25.041421356237308L5.1,26.041421356237308L5.1,28.541421356237308L4.6,29.041421356237308z" stroke="none"/><path d="M18.1,15L17.9,15L17.9,10.95857864376269L18.4,10.45857864376269L18.4,9.45857864376269L19.4,8.45857864376269L19.4,6.95857864376269L19.9,6.45857864376269L19.9,5.45857864376269L20.4,4.95857864376269L20.4,4.04142135623731L19.958578643762692,3.6L16.541421356237308,3.6L16.041421356237308,4.1L14.04142135623731,4.1L7.1,11.04142135623731L7.1,11.54142135623731L6.6,12.04142135623731L6.6,13.04142135623731L6.1,13.54142135623731L6.1,15.54142135623731L5.1,16.541421356237308L5.1,17.041421356237308L4.6,17.541421356237308L4.6,19.041421356237308L3.6,20.041421356237308L3.6,20.541421356237308L3.1,21.041421356237308L3.1,22.041421356237308L2.1,23.041421356237308L2.1,40.95857864376269L3.6,42.45857864376269L3.6,43.95857864376269L4.04142135623731,44.4L4.95857864376269,44.4L5.4,43.95857864376269L5.4,33.45857864376269L5.929289321881345,32.92928932188134L6.070710678118655,33.07071067811866L5.6,33.54142135623731L5.6,44.04142135623731L5.04142135623731,44.6L3.9585786437626904,44.6L3.4,44.04142135623731L3.4,42.54142135623731L1.9,41.04142135623731L1.9,22.958578643762692L2.9,21.958578643762692L2.9,20.958578643762692L3.4,20.458578643762692L3.4,19.958578643762692L4.4,18.958578643762692L4.4,17.458578643762692L4.9,16.958578643762692L4.9,16.458578643762692L5.9,15.45857864376269L5.9,13.45857864376269L6.4,12.95857864376269L6.4,11.95857864376269L6.9,11.45857864376269L6.9,10.95857864376269L13.95857864376269,3.9L15.95857864376269,3.9L16.458578643762692,3.4L20.041421356237308,3.4L20.6,3.9585786437626904L20.6,5.04142135623731L20.1,5.54142135623731L20.1,6.54142135623731L19.6,7.04142135623731L19.6,8.54142135623731L18.6,9.54142135623731L18.6,10.54142135623731L18.1,11.04142135623731z" stroke="none"/><path d="M76.42928932188134,19.429289321881345L76.57071067811866,19.570710678118655L74.54142135623731,21.6L74.04142135623731,21.6L73.04142135623731,22.6L72.54142135623731,22.6L72.04142135623731,23.1L71.54142135623731,23.1L71.04142135623731,23.6L70.54142135623731,23.6L70.04142135623731,24.1L69.04142135623731,24.1L68.54142135623731,24.6L68.04142135623731,24.6L67.54142135623731,25.1L66.54142135623731,25.1L65.04142135623731,26.6L64.54142135623731,26.6L64.04142135623731,27.1L62.04142135623731,27.1L61.54142135623731,27.6L61.04142135623731,27.6L60.04142135623731,28.6L59.04142135623731,28.6L58.04142135623731,29.6L57.54142135623731,29.6L57.07071067811866,30.070710678118655L56.92928932188134,29.929289321881345L57.45857864376269,29.4L57.95857864376269,29.4L58.95857864376269,28.4L59.95857864376269,28.4L60.95857864376269,27.4L61.45857864376269,27.4L61.95857864376269,26.9L63.95857864376269,26.9L64.45857864376269,26.4L64.95857864376269,26.4L66.45857864376269,24.9L67.45857864376269,24.9L67.95857864376269,24.4L68.45857864376269,24.4L68.95857864376269,23.9L69.95857864376269,23.9L70.45857864376269,23.4L70.95857864376269,23.4L71.45857864376269,22.9L71.95857864376269,22.9L72.45857864376269,22.4L72.95857864376269,22.4L73.95857864376269,21.4L74.45857864376269,21.4z" stroke="none"/><path d="M76.5,100.6L76.5,100.4L85.54142135623731,100.4L86.04142135623731,100.9L87.04142135623731,100.9L87.54142135623731,101.4L88.04142135623731,101.4L89.54142135623731,102.9L94.45857864376269,102.9L95.45857864376269,101.9L96.95857864376269,101.9L97.45857864376269,101.4L97.95857864376269,101.4L98.92928932188134,100.42928932188134L99.07071067811866,100.57071067811866L98.04142135623731,101.6L97.54142135623731,101.6L97.04142135623731,102.1L95.54142135623731,102.1L94.54142135623731,103.1L89.45857864376269,103.1L87.95857864376269,101.6L87.45857864376269,101.6L86.95857864376269,101.1L85.95857864376269,101.1L85.45857864376269,100.6z" stroke="none"/><path d="M7.429289321881345,37.57071067811866L7.570710678118655,37.42928932188134L10.04142135623731,39.9L26.041421356237308,39.9L26.541421356237308,40.4L30,40.4L30,40.6L26.458578643762692,40.6L25.958578643762692,40.1L9.95857864376269,40.1z" stroke="none"/><path d="M97.5,100.4L97.5,100.6L91.45857864376269,100.6L81.4,90.54142135623731L81.4,90.04142135623731L80.9,89.54142135623731L80.9,89.04142135623731L79.4,87.54142135623731L79.4,82.95857864376269L80.95857864376269,81.4L83.04142135623731,81.4L83.6,81.95857864376269L83.6,83.04142135623731L83.04142135623731,83.6L81.54142135623731,83.6L81.07071067811866,84.07071067811866L80.92928932188134,83.92928932188134L81.45857864376269,83.4L82.95857864376269,83.4L83.4,82.95857864376269L83.4,82.04142135623731L82.95857864376269,81.6L81.04142135623731,81.6L79.6,83.04142135623731L79.6,87.45857864376269L81.1,88.95857864376269L81.1,89.45857864376269L81.6,89.95857864376269L81.6,90.45857864376269L91.54142135623731,100.4z" stroke="none"/><path d="M7.5,4.6L7.5,4.4L7.95857864376269,4.4L8.45857864376269,3.9L9.45857864376269,3.9L10.95857864376269,2.4L13.95857864376269,2.4L14.45857864376269,1.9L20.041421356237308,1.9L20.541421356237308,2.4L21.041421356237308,2.4L23.541421356237308,4.9L24.541421356237308,4.9L25.1,5.45857864376269L25.1,8.95857864376269L25.6,9.45857864376269L25.6,9.95857864376269L26.1,10.45857864376269L26.1,10.95857864376269L26.6,11.45857864376269L26.6,11.95857864376269L27.6,12.95857864376269L27.6,13.45857864376269L28.6,14.45857864376269L28.6,15L28.4,15L28.4,14.54142135623731L27.4,13.54142135623731L27.4,13.04142135623731L26.4,12.04142135623731L26.4,11.54142135623731L25.9,11.04142135623731L25.9,10.54142135623731L25.4,10.04142135623731L25.4,9.54142135623731L24.9,9.04142135623731L24.9,5.54142135623731L24.458578643762692,5.1L23.458578643762692,5.1L20.958578643762692,2.6L20.458578643762692,2.6L19.958578643762692,2.1L14.54142135623731,2.1L14.04142135623731,2.6L11.04142135623731,2.6L9.54142135623731,4.1L8.54142135623731,4.1L8.04142135623731,4.6z" stroke="none"/><path d="M16.4,84L16.6,84L16.6,85.54142135623731L15.6,86.54142135623731L15.6,87.45857864376269L16.041421356237308,87.9L16.958578643762692,87.9L27.4,77.45857864376269L27.4,74.45857864376269L27.9,73.95857864376269L27.9,72.95857864376269L28.4,72.45857864376269L28.4,71.45857864376269L28.9,70.95857864376269L28.9,70.45857864376269L29.4,69.95857864376269L29.4,65.45857864376269L29.9,64.95857864376269L29.9,64.5L30.1,64.5L30.1,65.04142135623731L29.6,65.54142135623731L29.6,70.04142135623731L29.1,70.54142135623731L29.1,71.04142135623731L28.6,71.54142135623731L28.6,72.54142135623731L28.1,73.04142135623731L28.1,74.04142135623731L27.6,74.54142135623731L27.6,77.54142135623731L17.041421356237308,88.1L15.95857864376269,88.1L15.4,87.54142135623731L15.4,86.45857864376269L16.4,85.45857864376269z" stroke="none"/><path d="M33,4.6L33,4.4L54.95857864376269,4.4L55.95857864376269,3.4L56.45857864376269,3.4L56.92928932188134,2.9292893218813454L57.07071067811866,3.0707106781186546L56.54142135623731,3.6L56.04142135623731,3.6L55.04142135623731,4.6z" stroke="none"/><path d="M14.9,66L15.1,66L15.1,68.04142135623731L13.6,69.54142135623731L13.6,70.04142135623731L12.6,71.04142135623731L12.6,72.54142135623731L12.1,73.04142135623731L12.1,75.04142135623731L11.6,75.54142135623731L11.6,76.04142135623731L11.1,76.54142135623731L11.1,77.04142135623731L10.6,77.54142135623731L10.6,78.04142135623731L9.6,79.04142135623731L9.6,80.54142135623731L8.1,82.04142135623731L8.1,82.95857864376269L14.54142135623731,89.4L16.541421356237308,89.4L17.041421356237308,89.9L21,89.9L21,90.1L16.958578643762692,90.1L16.458578643762692,89.6L14.45857864376269,89.6L7.9,83.04142135623731L7.9,81.95857864376269L9.4,80.45857864376269L9.4,78.95857864376269L10.4,77.95857864376269L10.4,77.45857864376269L10.9,76.95857864376269L10.9,76.45857864376269L11.4,75.95857864376269L11.4,75.45857864376269L11.9,74.95857864376269L11.9,72.95857864376269L12.4,72.45857864376269L12.4,70.95857864376269L13.4,69.95857864376269L13.4,69.45857864376269L14.9,67.95857864376269z" stroke="none"/><path d="M31.5,45.1L31.5,44.9L32.04142135623731,44.9L32.54142135623731,45.4L33.04142135623731,45.4L34.04142135623731,46.4L35.04142135623731,46.4L35.54142135623731,46.9L36.54142135623731,46.9L37.04142135623731,47.4L37.54142135623731,47.4L38.04142135623731,47.9L40.54142135623731,47.9L41.04142135623731,48.4L42.04142135623731,48.4L43.04142135623731,49.4L44.54142135623731,49.4L48.1,52.95857864376269L48.1,56.54142135623731L47.6,57.04142135623731L47.6,58.54142135623731L47.1,59.04142135623731L47.1,59.54142135623731L46.6,60.04142135623731L46.6,62.54142135623731L46.1,63.04142135623731L46.1,65.04142135623731L45.07071067811866,66.07071067811866L44.92928932188134,65.92928932188134L45.9,64.95857864376269L45.9,62.95857864376269L46.4,62.45857864376269L46.4,59.95857864376269L46.9,59.45857864376269L46.9,58.95857864376269L47.4,58.45857864376269L47.4,56.95857864376269L47.9,56.45857864376269L47.9,53.04142135623731L44.45857864376269,49.6L42.95857864376269,49.6L41.95857864376269,48.6L40.95857864376269,48.6L40.45857864376269,48.1L37.95857864376269,48.1L37.45857864376269,47.6L36.95857864376269,47.6L36.45857864376269,47.1L35.45857864376269,47.1L34.95857864376269,46.6L33.95857864376269,46.6L32.95857864376269,45.6L32.45857864376269,45.6L31.958578643762692,45.1z" stroke="none"/><path d="M83.92928932188134,64.57071067811866L84.07071067811866,64.42928932188134L86.54142135623731,66.9L87.54142135623731,66.9L88.54142135623731,67.9L90.54142135623731,67.9L92.04142135623731,69.4L95.04142135623731,69.4L95.54142135623731,69.9L96.04142135623731,69.9L98.04142135623731,71.9L100.04142135623731,71.9L102.6,74.45857864376269L102.6,75.95857864376269L103.1,76.45857864376269L103.1,78.45857864376269L103.6,78.95857864376269L103.6,86.54142135623731L100.54142135623731,89.6L99.54142135623731,89.6L98.04142135623731,91.1L95.95857864376269,91.1L94.45857864376269,89.6L93.95857864376269,89.6L93.45857864376269,89.1L92.45857864376269,89.1L91.95857864376269,88.6L91.5,88.6L91.5,88.4L92.04142135623731,88.4L92.54142135623731,88.9L93.54142135623731,88.9L94.04142135623731,89.4L94.54142135623731,89.4L96.04142135623731,90.9L97.95857864376269,90.9L99.45857864376269,89.4L100.45857864376269,89.4L103.4,86.45857864376269L103.4,79.04142135623731L102.9,78.54142135623731L102.9,76.54142135623731L102.4,76.04142135623731L102.4,74.54142135623731L99.95857864376269,72.1L97.95857864376269,72.1L95.95857864376269,70.1L95.45857864376269,70.1L94.95857864376269,69.6L91.95857864376269,69.6L90.45857864376269,68.1L88.45857864376269,68.1L87.45857864376269,67.1L86.45857864376269,67.1z" stroke="none"/><path d="M56.92928932188134,11.929289321881345L57.07071067811866,12.070710678118655L51.54142135623731,17.6L50.54142135623731,17.6L50.04142135623731,18.1L49.54142135623731,18.1L49.04142135623731,18.6L48.04142135623731,18.6L47.54142135623731,19.1L47.04142135623731,19.1L45.54142135623731,20.6L44.04142135623731,20.6L43.54142135623731,21.1L33.45857864376269,21.1L32.9,20.541421356237308L32.9,18.458578643762692L38.95857864376269,12.4L39.45857864376269,12.4L39.95857864376269,11.9L40.45857864376269,11.9L42.45857864376269,9.9L44.95857864376269,9.9L46.45857864376269,8.4L49.45857864376269,8.4L50.45857864376269,7.4L52.45857864376269,7.4L52.95857864376269,6.9L61.54142135623731,6.9L62.04142135623731,7.4L76.54142135623731,7.4L77.54142135623731,8.4L80.04142135623731,8.4L82.04142135623731,10.4L82.5,10.4L82.5,10.6L81.95857864376269,10.6L79.95857864376269,8.6L77.45857864376269,8.6L76.45857864376269,7.6L61.95857864376269,7.6L61.45857864376269,7.1L53.04142135623731,7.1L52.54142135623731,7.6L50.54142135623731,7.6L49.54142135623731,8.6L46.54142135623731,8.6L45.04142135623731,10.1L42.54142135623731,10.1L40.54142135623731,12.1L40.04142135623731,12.1L39.54142135623731,12.6L39.04142135623731,12.6L33.1,18.541421356237308L33.1,20.458578643762692L33.54142135623731,20.9L43.45857864376269,20.9L43.95857864376269,20.4L45.45857864376269,20.4L46.95857864376269,18.9L47.45857864376269,18.9L47.95857864376269,18.4L48.95857864376269,18.4L49.45857864376269,17.9L49.95857864376269,17.9L50.45857864376269,17.4L51.45857864376269,17.4z" stroke="none"/><path d="M97.5,89.9L97.5,90.1L96.45857864376269,90.1L95.45857864376269,89.1L94.95857864376269,89.1L94.45857864376269,88.6L93.95857864376269,88.6L93.45857864376269,88.1L92.45857864376269,88.1L91.95857864376269,87.6L91.04142135623731,87.6L90.6,88.04142135623731L90.6,88.95857864376269L91.04142135623731,89.4L92.04142135623731,89.4L93.04142135623731,90.4L93.54142135623731,90.4L94.54142135623731,91.4L98.45857864376269,91.4L99.95857864376269,89.9L100.95857864376269,89.9L103.9,86.95857864376269L103.9,76.54142135623731L102.9,75.54142135623731L102.9,74.04142135623731L99.45857864376269,70.6L97.95857864376269,70.6L96.95857864376269,69.6L95.95857864376269,69.6L95.45857864376269,69.1L94.45857864376269,69.1L93.95857864376269,68.6L91.95857864376269,68.6L90.95857864376269,67.6L88.95857864376269,67.6L87.45857864376269,66.1L87,66.1L87,65.9L87.54142135623731,65.9L89.04142135623731,67.4L91.04142135623731,67.4L92.04142135623731,68.4L94.04142135623731,68.4L94.54142135623731,68.9L95.54142135623731,68.9L96.04142135623731,69.4L97.04142135623731,69.4L98.04142135623731,70.4L99.54142135623731,70.4L103.1,73.95857864376269L103.1,75.45857864376269L104.1,76.45857864376269L104.1,87.04142135623731L101.04142135623731,90.1L100.04142135623731,90.1L98.54142135623731,91.6L94.45857864376269,91.6L93.45857864376269,90.6L92.95857864376269,90.6L91.95857864376269,89.6L90.95857864376269,89.6L90.4,89.04142135623731L90.4,87.95857864376269L90.95857864376269,87.4L92.04142135623731,87.4L92.54142135623731,87.9L93.54142135623731,87.9L94.04142135623731,88.4L94.54142135623731,88.4L95.04142135623731,88.9L95.54142135623731,88.9L96.54142135623731,89.9z" stroke="none"/><path d="M72,100.6L72,100.4L73.54142135623731,100.4L74.04142135623731,100.9L75.54142135623731,100.9L76.04142135623731,101.4L78.54142135623731,101.4L79.04142135623731,101.9L83.04142135623731,101.9L83.54142135623731,102.4L84.04142135623731,102.4L84.54142135623731,102.9L87.54142135623731,102.9L88.04142135623731,103.4L96.95857864376269,103.4L98.45857864376269,101.9L98.95857864376269,101.9L99.9,100.95857864376269L99.9,100.04142135623731L98.9,99.04142135623731L98.9,98.54142135623731L97.9,97.54142135623731L97.9,96.04142135623731L97.4,95.54142135623731L97.4,94.5L97.6,94.5L97.6,95.45857864376269L98.1,95.95857864376269L98.1,97.45857864376269L99.1,98.45857864376269L99.1,98.95857864376269L100.1,99.95857864376269L100.1,101.04142135623731L99.04142135623731,102.1L98.54142135623731,102.1L97.04142135623731,103.6L87.95857864376269,103.6L87.45857864376269,103.1L84.45857864376269,103.1L83.95857864376269,102.6L83.45857864376269,102.6L82.95857864376269,102.1L78.95857864376269,102.1L78.45857864376269,101.6L75.95857864376269,101.6L75.45857864376269,101.1L73.95857864376269,101.1L73.45857864376269,100.6z" stroke="none"/><path d="M3,102.1L3,101.9L18.041421356237308,101.9L19.041421356237308,102.9L25.958578643762692,102.9L26.458578643762692,102.4L26.958578643762692,102.4L27.458578643762692,101.9L30,101.9L30,102.1L27.541421356237308,102.1L27.041421356237308,102.6L26.541421356237308,102.6L26.041421356237308,103.1L18.958578643762692,103.1L17.958578643762692,102.1z" stroke="none"/><path d="M85.6,73.5L85.4,73.5L85.4,71.04142135623731L84.9,70.54142135623731L84.9,70.04142135623731L84.4,69.54142135623731L84.4,68.54142135623731L83.9,68.04142135623731L83.9,67.04142135623731L83.4,66.54142135623731L83.4,65.54142135623731L82.9,65.04142135623731L82.9,63.95857864376269L83.45857864376269,63.4L88.04142135623731,63.4L88.54142135623731,63.9L90.04142135623731,63.9L91.54142135623731,65.4L92.54142135623731,65.4L94.54142135623731,67.4L95.04142135623731,67.4L96.04142135623731,68.4L96.54142135623731,68.4L97.04142135623731,68.9L97.54142135623731,68.9L98.54142135623731,69.9L100.04142135623731,69.9L103.6,73.45857864376269L103.6,74.45857864376269L104.6,75.45857864376269L104.6,89.54142135623731L103.1,91.04142135623731L103.1,91.54142135623731L102.1,92.54142135623731L102.1,93.54142135623731L101.6,94.04142135623731L101.6,94.54142135623731L101.1,95.04142135623731L101.1,95.54142135623731L100.57071067811866,96.07071067811866L100.42928932188134,95.92928932188134L100.9,95.45857864376269L100.9,94.95857864376269L101.4,94.45857864376269L101.4,93.95857864376269L101.9,93.45857864376269L101.9,92.45857864376269L102.9,91.45857864376269L102.9,90.95857864376269L104.4,89.45857864376269L104.4,75.54142135623731L103.4,74.54142135623731L103.4,73.54142135623731L99.95857864376269,70.1L98.45857864376269,70.1L97.45857864376269,69.1L96.95857864376269,69.1L96.45857864376269,68.6L95.95857864376269,68.6L94.95857864376269,67.6L94.45857864376269,67.6L92.45857864376269,65.6L91.45857864376269,65.6L89.95857864376269,64.1L88.45857864376269,64.1L87.95857864376269,63.6L83.54142135623731,63.6L83.1,64.04142135623731L83.1,64.95857864376269L83.6,65.45857864376269L83.6,66.45857864376269L84.1,66.95857864376269L84.1,67.95857864376269L84.6,68.45857864376269L84.6,69.45857864376269L85.1,69.95857864376269L85.1,70.45857864376269L85.6,70.95857864376269z" stroke="none"/><path d="M100.4,36L100.6,36L100.6,37.45857864376269L102.1,38.95857864376269L102.1,39.95857864376269L102.6,40.45857864376269L102.6,42.45857864376269L103.1,42.95857864376269L103.1,43.95857864376269L104.1,44.95857864376269L104.1,51.04142135623731L102.54142135623731,52.6L102.04142135623731,52.6L98.04142135623731,56.6L97.54142135623731,56.6L96.54142135623731,57.6L95.54142135623731,57.6L95.1,58.04142135623731L95.1,59.54142135623731L94.6,60.04142135623731L94.6,61.04142135623731L94.04142135623731,61.6L87.54142135623731,61.6L87.04142135623731,62.1L86.54142135623731,62.1L86.04142135623731,62.6L84.95857864376269,62.6L84.4,62.04142135623731L84.4,60.95857864376269L84.95857864376269,60.4L86.45857864376269,60.4L86.92928932188134,59.92928932188134L87.07071067811866,60.07071067811866L86.54142135623731,60.6L85.04142135623731,60.6L84.6,61.04142135623731L84.6,61.95857864376269L85.04142135623731,62.4L85.95857864376269,62.4L86.45857864376269,61.9L86.95857864376269,61.9L87.45857864376269,61.4L93.95857864376269,61.4L94.4,60.95857864376269L94.4,59.95857864376269L94.9,59.45857864376269L94.9,57.95857864376269L95.45857864376269,57.4L96.45857864376269,57.4L97.45857864376269,56.4L97.95857864376269,56.4L101.95857864376269,52.4L102.45857864376269,52.4L103.9,50.95857864376269L103.9,45.04142135623731L102.9,44.04142135623731L102.9,43.04142135623731L102.4,42.54142135623731L102.4,40.54142135623731L101.9,40.04142135623731L101.9,39.04142135623731L100.4,37.54142135623731z" stroke="none"/><path d="M15,88.6L15,88.4L20.541421356237308,88.4L21.041421356237308,88.9L21.541421356237308,88.9L22.1,89.45857864376269L22.1,90.54142135623731L21.6,91.04142135623731L21.6,92.04142135623731L20.6,93.04142135623731L20.6,93.54142135623731L20.1,94.04142135623731L20.1,94.54142135623731L18.6,96.04142135623731L18.6,96.54142135623731L17.541421356237308,97.6L13.04142135623731,97.6L11.54142135623731,99.1L11.04142135623731,99.1L10.54142135623731,99.6L10.04142135623731,99.6L9.54142135623731,100.1L8.04142135623731,100.1L7.04142135623731,101.1L2.5414213562373096,101.1L2.1,101.54142135623731L2.1,102.45857864376269L2.5414213562373096,102.9L18.041421356237308,102.9L18.541421356237308,103.4L36.45857864376269,103.4L37.45857864376269,102.4L37.95857864376269,102.4L38.45857864376269,101.9L39,101.9L39,102.1L38.54142135623731,102.1L38.04142135623731,102.6L37.54142135623731,102.6L36.54142135623731,103.6L18.458578643762692,103.6L17.958578643762692,103.1L2.4585786437626904,103.1L1.9,102.54142135623731L1.9,101.45857864376269L2.4585786437626904,100.9L6.95857864376269,100.9L7.95857864376269,99.9L9.45857864376269,99.9L9.95857864376269,99.4L10.45857864376269,99.4L10.95857864376269,98.9L11.45857864376269,98.9L12.95857864376269,97.4L17.458578643762692,97.4L18.4,96.45857864376269L18.4,95.95857864376269L19.9,94.45857864376269L19.9,93.95857864376269L20.4,93.45857864376269L20.4,92.95857864376269L21.4,91.95857864376269L21.4,90.95857864376269L21.9,90.45857864376269L21.9,89.54142135623731L21.458578643762692,89.1L20.958578643762692,89.1L20.458578643762692,88.6z" stroke="none"/><path d="M7.4,64.5L7.6,64.5L7.6,65.04142135623731L7.1,65.54142135623731L7.1,66.04142135623731L6.6,66.54142135623731L6.6,67.04142135623731L5.6,68.04142135623731L5.6,76.54142135623731L4.6,77.54142135623731L4.6,79.54142135623731L3.6,80.54142135623731L3.6,81.45857864376269L4.1,81.95857864376269L4.1,82.45857864376269L5.6,83.95857864376269L5.6,91.54142135623731L4.6,92.54142135623731L4.6,93L4.4,93L4.4,92.45857864376269L5.4,91.45857864376269L5.4,84.04142135623731L3.9,82.54142135623731L3.9,82.04142135623731L3.4,81.54142135623731L3.4,80.45857864376269L4.4,79.45857864376269L4.4,77.45857864376269L5.4,76.45857864376269L5.4,67.95857864376269L6.4,66.95857864376269L6.4,66.45857864376269L6.9,65.95857864376269L6.9,65.45857864376269L7.4,64.95857864376269z" stroke="none"/><path d="M8.9,30L9.1,30L9.1,33.04142135623731L8.6,33.54142135623731L8.6,34.54142135623731L8.1,35.04142135623731L8.1,35.54142135623731L6.6,37.04142135623731L6.6,44.04142135623731L5.54142135623731,45.1L3.4585786437626904,45.1L2.9,44.54142135623731L2.9,44.04142135623731L2.4,43.54142135623731L2.4,43.04142135623731L1.4,42.04142135623731L1.4,8.95857864376269L6.95857864376269,3.4L7.45857864376269,3.4L7.95857864376269,2.9L9.45857864376269,2.9L10.45857864376269,1.9L12.95857864376269,1.9L13.45857864376269,1.4L20.541421356237308,1.4L21.041421356237308,1.9L21.541421356237308,1.9L24.041421356237308,4.4L25.041421356237308,4.4L27.6,6.95857864376269L27.6,7.45857864376269L30.1,9.95857864376269L30.1,10.5L29.9,10.5L29.9,10.04142135623731L27.4,7.54142135623731L27.4,7.04142135623731L24.958578643762692,4.6L23.958578643762692,4.6L21.458578643762692,2.1L20.958578643762692,2.1L20.458578643762692,1.6L13.54142135623731,1.6L13.04142135623731,2.1L10.54142135623731,2.1L9.54142135623731,3.1L8.04142135623731,3.1L7.54142135623731,3.6L7.04142135623731,3.6L1.6,9.04142135623731L1.6,41.95857864376269L2.6,42.95857864376269L2.6,43.45857864376269L3.1,43.95857864376269L3.1,44.45857864376269L3.5414213562373096,44.9L5.45857864376269,44.9L6.4,43.95857864376269L6.4,36.95857864376269L7.9,35.45857864376269L7.9,34.95857864376269L8.4,34.45857864376269L8.4,33.45857864376269L8.9,32.95857864376269z" stroke="none"/><path d="M45.07071067811866,44.92928932188134L44.92928932188134,45.07071067811866L41.95857864376269,42.1L40.95857864376269,42.1L39.45857864376269,40.6L38.95857864376269,40.6L37.95857864376269,39.6L36.54142135623731,39.6L35.54142135623731,40.6L35.04142135623731,40.6L32.04142135623731,43.6L31.541421356237308,43.6L29.041421356237308,46.1L23.958578643762692,46.1L23.458578643762692,45.6L2.9585786437626904,45.6L1.9,44.54142135623731L1.9,44.04142135623731L0.9,43.04142135623731L0.9,8.45857864376269L6.95857864376269,2.4L8.45857864376269,2.4L8.95857864376269,1.9L9.45857864376269,1.9L9.95857864376269,1.4L12.45857864376269,1.4L12.95857864376269,0.9L21.041421356237308,0.9L21.541421356237308,1.4L22.041421356237308,1.4L24.041421356237308,3.4L24.541421356237308,3.4L25.041421356237308,3.9L25.541421356237308,3.9L30.6,8.95857864376269L30.6,9.45857864376269L31.1,9.95857864376269L31.1,18.458578643762692L31.6,18.958578643762692L31.6,19.5L31.4,19.5L31.4,19.041421356237308L30.9,18.541421356237308L30.9,10.04142135623731L30.4,9.54142135623731L30.4,9.04142135623731L25.458578643762692,4.1L24.958578643762692,4.1L24.458578643762692,3.6L23.958578643762692,3.6L21.958578643762692,1.6L21.458578643762692,1.6L20.958578643762692,1.1L13.04142135623731,1.1L12.54142135623731,1.6L10.04142135623731,1.6L9.54142135623731,2.1L9.04142135623731,2.1L8.54142135623731,2.6L7.04142135623731,2.6L1.1,8.54142135623731L1.1,42.95857864376269L2.1,43.95857864376269L2.1,44.45857864376269L3.0414213562373096,45.4L23.541421356237308,45.4L24.041421356237308,45.9L28.958578643762692,45.9L31.458578643762692,43.4L31.958578643762692,43.4L34.95857864376269,40.4L35.45857864376269,40.4L36.45857864376269,39.4L38.04142135623731,39.4L39.04142135623731,40.4L39.54142135623731,40.4L41.04142135623731,41.9L42.04142135623731,41.9z" stroke="none"/><path d="M3.1,78L2.9,78L2.9,55.45857864376269L4.9,53.45857864376269L4.9,52.45857864376269L5.4,51.95857864376269L5.4,51.45857864376269L7.4,49.45857864376269L7.4,48.45857864376269L7.95857864376269,47.9L11.54142135623731,47.9L13.04142135623731,49.4L13.54142135623731,49.4L17.041421356237308,52.9L17.541421356237308,52.9L18.041421356237308,53.4L18.541421356237308,53.4L20.541421356237308,55.4L21.041421356237308,55.4L22.041421356237308,56.4L23.541421356237308,56.4L24.070710678118655,56.92928932188134L23.929289321881345,57.07071067811866L23.458578643762692,56.6L21.958578643762692,56.6L20.958578643762692,55.6L20.458578643762692,55.6L18.458578643762692,53.6L17.958578643762692,53.6L17.458578643762692,53.1L16.958578643762692,53.1L13.45857864376269,49.6L12.95857864376269,49.6L11.45857864376269,48.1L8.04142135623731,48.1L7.6,48.54142135623731L7.6,49.54142135623731L5.6,51.54142135623731L5.6,52.04142135623731L5.1,52.54142135623731L5.1,53.54142135623731L3.1,55.54142135623731z" stroke="none"/><path d="M43.57071067811866,99.07071067811866L43.42928932188134,98.92928932188134L43.95857864376269,98.4L44.45857864376269,98.4L47.95857864376269,94.9L48.45857864376269,94.9L53.45857864376269,89.9L53.95857864376269,89.9L54.45857864376269,89.4L54.95857864376269,89.4L62.45857864376269,81.9L62.95857864376269,81.9L64.95857864376269,79.9L65.45857864376269,79.9L65.92928932188134,79.42928932188134L66.07071067811866,79.57071067811866L65.54142135623731,80.1L65.04142135623731,80.1L63.04142135623731,82.1L62.54142135623731,82.1L55.04142135623731,89.6L54.54142135623731,89.6L54.04142135623731,90.1L53.54142135623731,90.1L48.54142135623731,95.1L48.04142135623731,95.1L44.54142135623731,98.6L44.04142135623731,98.6z" stroke="none"/><path d="M61.42928932188134,85.42928932188134L61.57071067811866,85.57071067811866L53.54142135623731,93.6L52.54142135623731,93.6L51.54142135623731,94.6L51.04142135623731,94.6L50.1,95.54142135623731L50.1,96.45857864376269L50.54142135623731,96.9L61.54142135623731,96.9L62.04142135623731,97.4L62.54142135623731,97.4L63.04142135623731,97.9L63.54142135623731,97.9L65.04142135623731,99.4L67.54142135623731,99.4L68.04142135623731,99.9L70.04142135623731,99.9L71.54142135623731,101.4L74.04142135623731,101.4L74.54142135623731,101.9L78.04142135623731,101.9L78.54142135623731,102.4L82.54142135623731,102.4L83.04142135623731,102.9L83.54142135623731,102.9L84.04142135623731,103.4L87.04142135623731,103.4L87.54142135623731,103.9L97.95857864376269,103.9L100.4,101.45857864376269L100.4,99.04142135623731L99.9,98.54142135623731L99.9,97.54142135623731L99.4,97.04142135623731L99.4,95.04142135623731L97.95857864376269,93.6L95.45857864376269,93.6L92.95857864376269,91.1L92.45857864376269,91.1L91.95857864376269,90.6L91.45857864376269,90.6L90.95857864376269,90.1L90.45857864376269,90.1L89.9,89.54142135623731L89.9,84.45857864376269L90.4,83.95857864376269L90.4,83.45857864376269L91.42928932188134,82.42928932188134L91.57071067811866,82.57071067811866L90.6,83.54142135623731L90.6,84.04142135623731L90.1,84.54142135623731L90.1,89.45857864376269L90.54142135623731,89.9L91.04142135623731,89.9L91.54142135623731,90.4L92.04142135623731,90.4L92.54142135623731,90.9L93.04142135623731,90.9L95.54142135623731,93.4L98.04142135623731,93.4L99.6,94.95857864376269L99.6,96.95857864376269L100.1,97.45857864376269L100.1,98.45857864376269L100.6,98.95857864376269L100.6,101.54142135623731L98.04142135623731,104.1L87.45857864376269,104.1L86.95857864376269,103.6L83.95857864376269,103.6L83.45857864376269,103.1L82.95857864376269,103.1L82.45857864376269,102.6L78.45857864376269,102.6L77.95857864376269,102.1L74.45857864376269,102.1L73.95857864376269,101.6L71.45857864376269,101.6L69.95857864376269,100.1L67.95857864376269,100.1L67.45857864376269,99.6L64.95857864376269,99.6L63.45857864376269,98.1L62.95857864376269,98.1L62.45857864376269,97.6L61.95857864376269,97.6L61.45857864376269,97.1L50.45857864376269,97.1L49.9,96.54142135623731L49.9,95.45857864376269L50.95857864376269,94.4L51.45857864376269,94.4L52.45857864376269,93.4L53.45857864376269,93.4z" stroke="none"/><path d="M12,94.4L12,94.6L9.54142135623731,94.6L8.04142135623731,96.1L7.54142135623731,96.1L7.04142135623731,96.6L6.54142135623731,96.6L5.04142135623731,98.1L4.54142135623731,98.1L1.6,101.04142135623731L1.6,102.95857864376269L2.0414213562373096,103.4L17.541421356237308,103.4L18.041421356237308,103.9L37.45857864376269,103.9L37.95857864376269,103.4L39.45857864376269,103.4L39.95857864376269,102.9L40.45857864376269,102.9L41.45857864376269,101.9L42,101.9L42,102.1L41.54142135623731,102.1L40.54142135623731,103.1L40.04142135623731,103.1L39.54142135623731,103.6L38.04142135623731,103.6L37.54142135623731,104.1L17.958578643762692,104.1L17.458578643762692,103.6L1.9585786437626904,103.6L1.4,103.04142135623731L1.4,100.95857864376269L4.45857864376269,97.9L4.95857864376269,97.9L6.45857864376269,96.4L6.95857864376269,96.4L7.45857864376269,95.9L7.95857864376269,95.9L9.45857864376269,94.4z" stroke="none"/><path d="M90.07071067811866,7.570710678118655L89.92928932188134,7.429289321881345L94.95857864376269,2.4L95.45857864376269,2.4L96.45857864376269,1.4L101.04142135623731,1.4L101.54142135623731,1.9L102.54142135623731,1.9L103.1,2.4585786437626904L103.1,36.04142135623731L102.1,37.04142135623731L102.1,37.5L101.9,37.5L101.9,36.95857864376269L102.9,35.95857864376269L102.9,2.5414213562373096L102.45857864376269,2.1L101.45857864376269,2.1L100.95857864376269,1.6L96.54142135623731,1.6L95.54142135623731,2.6L95.04142135623731,2.6z" stroke="none"/><path d="M21.1,97.5L20.9,97.5L20.9,93.45857864376269L21.9,92.45857864376269L21.9,91.45857864376269L22.4,90.95857864376269L22.4,83.95857864376269L22.9,83.45857864376269L22.9,82.95857864376269L29.9,75.95857864376269L29.9,75.45857864376269L30.4,74.95857864376269L30.4,74.45857864376269L30.958578643762692,73.9L41.54142135623731,73.9L42.04142135623731,74.4L43.95857864376269,74.4L44.4,73.95857864376269L44.4,73.04142135623731L43.9,72.54142135623731L43.9,72.04142135623731L42.4,70.54142135623731L42.4,70.04142135623731L41.9,69.54142135623731L41.9,69L42.1,69L42.1,69.45857864376269L42.6,69.95857864376269L42.6,70.45857864376269L44.1,71.95857864376269L44.1,72.45857864376269L44.6,72.95857864376269L44.6,74.04142135623731L44.04142135623731,74.6L41.95857864376269,74.6L41.45857864376269,74.1L31.041421356237308,74.1L30.6,74.54142135623731L30.6,75.04142135623731L30.1,75.54142135623731L30.1,76.04142135623731L23.1,83.04142135623731L23.1,83.54142135623731L22.6,84.04142135623731L22.6,91.04142135623731L22.1,91.54142135623731L22.1,92.54142135623731L21.1,93.54142135623731z" stroke="none"/><path d="M10.429289321881345,51.07071067811866L10.570710678118655,50.92928932188134L11.6,51.95857864376269L11.6,54.95857864376269L12.1,55.45857864376269L12.1,55.95857864376269L12.6,56.45857864376269L12.6,58.95857864376269L13.1,59.45857864376269L13.1,62.04142135623731L12.54142135623731,62.6L9.54142135623731,62.6L8.54142135623731,63.6L7.04142135623731,63.6L5.1,65.54142135623731L5.1,74.54142135623731L4.6,75.04142135623731L4.6,76.54142135623731L4.1,77.04142135623731L4.1,78.54142135623731L3.5414213562373096,79.1L2.4585786437626904,79.1L1.9,78.54142135623731L1.9,46.54142135623731L1.4,46.04142135623731L1.4,45.04142135623731L0.9,44.54142135623731L0.9,44.04142135623731L0.4,43.54142135623731L0.4,7.95857864376269L6.45857864376269,1.9L7.45857864376269,1.9L8.45857864376269,0.9L11.45857864376269,0.9L11.95857864376269,0.4L21.541421356237308,0.4L22.041421356237308,0.9L22.541421356237308,0.9L24.541421356237308,2.9L25.041421356237308,2.9L25.541421356237308,3.4L26.041421356237308,3.4L31.1,8.45857864376269L31.1,8.95857864376269L31.6,9.45857864376269L31.6,17.458578643762692L32.1,17.958578643762692L32.1,18.458578643762692L32.6,18.958578643762692L32.6,20.958578643762692L33.54142135623731,21.9L34.04142135623731,21.9L34.54142135623731,22.4L36.04142135623731,22.4L37.57071067811866,23.929289321881345L37.42928932188134,24.070710678118655L35.95857864376269,22.6L34.45857864376269,22.6L33.95857864376269,22.1L33.45857864376269,22.1L32.4,21.041421356237308L32.4,19.041421356237308L31.9,18.541421356237308L31.9,18.041421356237308L31.4,17.541421356237308L31.4,9.54142135623731L30.9,9.04142135623731L30.9,8.54142135623731L25.958578643762692,3.6L25.458578643762692,3.6L24.958578643762692,3.1L24.458578643762692,3.1L22.458578643762692,1.1L21.958578643762692,1.1L21.458578643762692,0.6L12.04142135623731,0.6L11.54142135623731,1.1L8.54142135623731,1.1L7.54142135623731,2.1L6.54142135623731,2.1L0.6,8.04142135623731L0.6,43.45857864376269L1.1,43.95857864376269L1.1,44.45857864376269L1.6,44.95857864376269L1.6,45.95857864376269L2.1,46.45857864376269L2.1,78.45857864376269L2.5414213562373096,78.9L3.4585786437626904,78.9L3.9,78.45857864376269L3.9,76.95857864376269L4.4,76.45857864376269L4.4,74.95857864376269L4.9,74.45857864376269L4.9,65.45857864376269L6.95857864376269,63.4L8.45857864376269,63.4L9.45857864376269,62.4L12.45857864376269,62.4L12.9,61.95857864376269L12.9,59.54142135623731L12.4,59.04142135623731L12.4,56.54142135623731L11.9,56.04142135623731L11.9,55.54142135623731L11.4,55.04142135623731L11.4,52.04142135623731z" stroke="none"/><path d="M73.42928932188134,94.57071067811866L73.57071067811866,94.42928932188134L75.04142135623731,95.9L76.04142135623731,95.9L76.54142135623731,96.4L77.04142135623731,96.4L77.54142135623731,96.9L78.45857864376269,96.9L78.9,96.45857864376269L78.9,80.45857864376269L79.4,79.95857864376269L79.4,77.95857864376269L79.9,77.45857864376269L79.9,76.45857864376269L80.4,75.95857864376269L80.4,74.95857864376269L80.9,74.45857864376269L80.9,72.45857864376269L81.4,71.95857864376269L81.4,71.45857864376269L81.9,70.95857864376269L81.9,64.45857864376269L82.4,63.95857864376269L82.4,63.45857864376269L82.95857864376269,62.9L93.04142135623731,62.9L94.04142135623731,63.9L96.54142135623731,63.9L97.04142135623731,64.4L97.5,64.4L97.5,64.6L96.95857864376269,64.6L96.45857864376269,64.1L93.95857864376269,64.1L92.95857864376269,63.1L83.04142135623731,63.1L82.6,63.54142135623731L82.6,64.04142135623731L82.1,64.54142135623731L82.1,71.04142135623731L81.6,71.54142135623731L81.6,72.04142135623731L81.1,72.54142135623731L81.1,74.54142135623731L80.6,75.04142135623731L80.6,76.04142135623731L80.1,76.54142135623731L80.1,77.54142135623731L79.6,78.04142135623731L79.6,80.04142135623731L79.1,80.54142135623731L79.1,96.54142135623731L78.54142135623731,97.1L77.45857864376269,97.1L76.95857864376269,96.6L76.45857864376269,96.6L75.95857864376269,96.1L74.95857864376269,96.1z" stroke="none"/></svg>