<svg version="1.1" width="105" height="105" xmlns="http://www.w3.org/2000/svg"><path d="M5.9,93L6.1,93L6.1,94.4L6.6,94.4L6.6,94.9L7.1,94.9L7.1,95.4L9.1,95.4L9.1,95.9L9.6,95.9L9.6,96.4L10.1,96.4L10.1,97.4L10.5,97.4L10.5,97.6L9.9,97.6L9.9,96.6L9.4,96.6L9.4,96.1L8.9,96.1L8.9,95.6L6.9,95.6L6.9,95.1L6.4,95.1L6.4,94.6L6.1,94.6L6.1,96.9L7.6,96.9L7.6,97.5L7.4,97.5L7.4,97.1L5.9,97.1z" stroke="none"/><path d="M37.4,42.4L37.4,37.5L37.6,37.5L37.6,42.4L38.1,42.4L38.1,43.4L39.1,43.4L39.1,43.9L39.6,43.9L39.6,45.4L41.1,45.4L41.1,46.4L42.1,46.4L42.1,46.9L43.1,46.9L43.1,47.4L43.6,47.4L43.6,48.9L44.1,48.9L44.1,49.9L44.6,49.9L44.6,50.9L45.1,50.9L45.1,51.9L46.6,51.9L46.6,52.5L46.4,52.5L46.4,52.1L44.9,52.1L44.9,51.1L44.4,51.1L44.4,50.1L43.9,50.1L43.9,49.1L43.4,49.1L43.4,47.6L42.9,47.6L42.9,47.1L41.9,47.1L41.9,46.6L40.9,46.6L40.9,45.6L39.4,45.6L39.4,44.1L38.9,44.1L38.9,43.6L37.9,43.6L37.9,42.6L36.6,42.6L36.6,43.1L34.6,43.1L34.6,43.5L34.4,43.5L34.4,42.9L36.4,42.9L36.4,42.4z" stroke="none"/><path d="M39.9,36.1L38.4,36.1L38.4,35.1L37.4,35.1L37.4,34.5L37.6,34.5L37.6,34.9L38.6,34.9L38.6,35.9L40.1,35.9L40.1,36.4L40.4,36.4L40.4,27.1L38.4,27.1L38.4,26.6L37.9,26.6L37.9,25.6L37.5,25.6L37.5,25.4L38.1,25.4L38.1,26.4L38.6,26.4L38.6,26.9L40.6,26.9L40.6,36.6L40.1,36.6L40.1,43.4L41.1,43.4L41.1,43.9L42.6,43.9L42.6,44.9L43.1,44.9L43.1,45.4L43.6,45.4L43.6,46.9L44.1,46.9L44.1,48.4L44.6,48.4L44.6,49.4L45.6,49.4L45.6,49.9L46.1,49.9L46.1,50.9L46.6,50.9L46.6,51.4L47.1,51.4L47.1,51.9L48.1,51.9L48.1,52.4L48.6,52.4L48.6,53.9L50.1,53.9L50.1,55.4L51,55.4L51,55.6L49.9,55.6L49.9,54.1L48.4,54.1L48.4,52.6L47.9,52.6L47.9,52.1L46.9,52.1L46.9,51.6L46.4,51.6L46.4,51.1L45.9,51.1L45.9,50.1L45.4,50.1L45.4,49.6L44.4,49.6L44.4,48.6L43.9,48.6L43.9,47.1L43.4,47.1L43.4,45.6L42.9,45.6L42.9,45.1L42.4,45.1L42.4,44.1L40.9,44.1L40.9,43.6L39.9,43.6z" stroke="none"/><path d="M97.5,94.4L97.5,94.6L79.6,94.6L79.6,100.6L77.6,100.6L77.6,101.1L76.1,101.1L76.1,101.6L75.1,101.6L75.1,102.1L73.5,102.1L73.5,101.9L74.9,101.9L74.9,101.4L75.9,101.4L75.9,100.9L77.4,100.9L77.4,100.4L79.4,100.4L79.4,94.6L77.9,94.6L77.9,93.6L76.4,93.6L76.4,93.1L73.5,93.1L73.5,92.9L76.6,92.9L76.6,93.4L78.1,93.4L78.1,94.4z" stroke="none"/><path d="M26.4,71.4L26.4,70.4L26.9,70.4L26.9,69.4L27.4,69.4L27.4,68.9L27.9,68.9L27.9,68.4L29.4,68.4L29.4,67.9L29.9,67.9L29.9,67.4L30.9,67.4L30.9,65.4L31.4,65.4L31.4,62.9L32.9,62.9L32.9,60.9L33.4,60.9L33.4,60.4L34.4,60.4L34.4,59.4L35.4,59.4L35.4,58.9L37.4,58.9L37.4,58.5L37.6,58.5L37.6,59.1L35.6,59.1L35.6,59.6L34.6,59.6L34.6,60.6L33.6,60.6L33.6,61.1L33.1,61.1L33.1,63.1L31.6,63.1L31.6,65.6L31.1,65.6L31.1,67.6L30.1,67.6L30.1,68.1L29.6,68.1L29.6,68.6L28.1,68.6L28.1,69.1L27.6,69.1L27.6,69.6L27.1,69.6L27.1,70.6L26.6,70.6L26.6,71.6L21.1,71.6L21.1,75.6L20.6,75.6L20.6,76.1L19.1,76.1L19.1,77.1L18.6,77.1L18.6,77.6L18.1,77.6L18.1,78L17.9,78L17.9,77.4L18.4,77.4L18.4,76.9L18.9,76.9L18.9,75.9L20.4,75.9L20.4,75.4L20.9,75.4L20.9,71.6L19.6,71.6L19.6,72.1L19.1,72.1L19.1,74.1L18.6,74.1L18.6,74.6L18.1,74.6L18.1,75.1L17.6,75.1L17.6,83.1L16.6,83.1L16.6,83.6L14.1,83.6L14.1,84.1L13.5,84.1L13.5,83.9L13.9,83.9L13.9,83.4L16.4,83.4L16.4,82.9L17.4,82.9L17.4,74.9L17.9,74.9L17.9,74.4L18.4,74.4L18.4,73.9L18.9,73.9L18.9,71.9L19.4,71.9L19.4,71.4z" stroke="none"/><path d="M47.4,80.9L47.4,77.4L48.4,77.4L48.4,76.9L51.9,76.9L51.9,76.4L52.4,76.4L52.4,75.9L53.4,75.9L53.4,75.4L54.4,75.4L54.4,74.4L55.4,74.4L55.4,73.9L55.9,73.9L55.9,73.4L57.4,73.4L57.4,72.9L57.9,72.9L57.9,72.4L58.4,72.4L58.4,71.4L60.9,71.4L60.9,70.9L61.9,70.9L61.9,70.4L62.9,70.4L62.9,69.9L63.9,69.9L63.9,69.4L64.4,69.4L64.4,69L64.6,69L64.6,69.6L64.1,69.6L64.1,70.1L63.1,70.1L63.1,70.6L62.1,70.6L62.1,71.1L61.1,71.1L61.1,71.6L58.6,71.6L58.6,72.6L58.1,72.6L58.1,73.1L57.6,73.1L57.6,73.6L56.1,73.6L56.1,74.1L55.6,74.1L55.6,74.6L54.6,74.6L54.6,75.6L53.6,75.6L53.6,76.1L52.6,76.1L52.6,76.6L52.1,76.6L52.1,77.1L48.6,77.1L48.6,77.6L47.6,77.6L47.6,95.1L47.1,95.1L47.1,97.6L45.6,97.6L45.6,98.1L45.1,98.1L45.1,99L44.9,99L44.9,97.9L45.4,97.9L45.4,97.4L46.9,97.4L46.9,94.9L47.4,94.9L47.4,81.1L39,81.1L39,80.9z" stroke="none"/><path d="M82.9,78.6L81.9,78.6L81.9,77.6L81.4,77.6L81.4,76.6L79.5,76.6L79.5,76.4L81.6,76.4L81.6,77.4L82.1,77.4L82.1,78.4L83.1,78.4L83.1,84.4L93.1,84.4L93.1,84.9L94.1,84.9L94.1,86.4L94.6,86.4L94.6,87.4L95.1,87.4L95.1,87.9L95.6,87.9L95.6,88.4L96.6,88.4L96.6,89.9L98.1,89.9L98.1,90.4L98.6,90.4L98.6,91.9L99.6,91.9L99.6,92.4L100.1,92.4L100.1,92.9L100.5,92.9L100.5,93.1L99.9,93.1L99.9,92.6L99.4,92.6L99.4,92.1L98.4,92.1L98.4,90.6L97.9,90.6L97.9,90.1L96.4,90.1L96.4,88.6L95.4,88.6L95.4,88.1L94.9,88.1L94.9,87.6L94.4,87.6L94.4,86.6L93.9,86.6L93.9,85.1L92.9,85.1L92.9,84.6L83.1,84.6L83.1,85.6L81.6,85.6L81.6,86.1L78.1,86.1L78.1,86.6L77.1,86.6L77.1,88.1L76.1,88.1L76.1,88.6L75.1,88.6L75.1,90L74.9,90L74.9,88.4L75.9,88.4L75.9,87.9L76.9,87.9L76.9,86.4L77.9,86.4L77.9,85.9L81.4,85.9L81.4,85.4L82.9,85.4z" stroke="none"/><path d="M37.9,63.9L39.9,63.9L39.9,63.4L40.4,63.4L40.4,62.9L40.9,62.9L40.9,60.4L41.4,60.4L41.4,56.9L41.9,56.9L41.9,55.5L42.1,55.5L42.1,57.1L41.6,57.1L41.6,60.6L41.1,60.6L41.1,63.1L40.6,63.1L40.6,63.6L40.1,63.6L40.1,64.1L38.1,64.1L38.1,66.9L40.1,66.9L40.1,67.9L40.6,67.9L40.6,68.4L41.1,68.4L41.1,68.9L41.6,68.9L41.6,69.4L42.1,69.4L42.1,69.9L43.1,69.9L43.1,71.4L43.6,71.4L43.6,71.9L45.1,71.9L45.1,73.5L44.9,73.5L44.9,72.1L43.4,72.1L43.4,71.6L42.9,71.6L42.9,70.1L41.9,70.1L41.9,69.6L41.4,69.6L41.4,69.1L40.9,69.1L40.9,68.6L40.4,68.6L40.4,68.1L39.9,68.1L39.9,67.1L38.1,67.1L38.1,76.6L36.6,76.6L36.6,77.1L35.6,77.1L35.6,77.6L33.6,77.6L33.6,78.1L33,78.1L33,77.9L33.4,77.9L33.4,77.4L35.4,77.4L35.4,76.9L36.4,76.9L36.4,76.4L37.9,76.4z" stroke="none"/><path d="M91.1,66.4L91.1,66.9L92.9,66.9L92.9,66L93.1,66L93.1,67.1L90.9,67.1L90.9,66.6L81.1,66.6L81.1,71.9L82.6,71.9L82.6,72.9L83.1,72.9L83.1,73.4L83.6,73.4L83.6,73.9L84.6,73.9L84.6,74.9L85.5,74.9L85.5,75.1L84.4,75.1L84.4,74.1L83.4,74.1L83.4,73.6L82.9,73.6L82.9,73.1L82.4,73.1L82.4,72.1L80.9,72.1L80.9,66.6L77.4,66.6L77.4,66.1L76.4,66.1L76.4,65.6L75.9,65.6L75.9,64.6L70.5,64.6L70.5,64.4L76.1,64.4L76.1,65.4L76.6,65.4L76.6,65.9L77.6,65.9L77.6,66.4z" stroke="none"/><path d="M15.1,13.4L15.1,13.9L16.1,13.9L16.1,14.4L21.6,14.4L21.6,14.9L24.1,14.9L24.1,15.4L25.1,15.4L25.1,15.9L30.6,15.9L30.6,17.4L31.1,17.4L31.1,17.9L31.5,17.9L31.5,18.1L30.9,18.1L30.9,17.6L30.4,17.6L30.4,16.1L24.9,16.1L24.9,15.6L23.9,15.6L23.9,15.1L21.4,15.1L21.4,14.6L15.9,14.6L15.9,14.1L14.9,14.1L14.9,13.6L11.1,13.6L11.1,16.6L10.6,16.6L10.6,17.1L9.1,17.1L9.1,17.6L8.6,17.6L8.6,19.1L8.1,19.1L8.1,19.6L7.6,19.6L7.6,20.1L6.1,20.1L6.1,20.6L5.1,20.6L5.1,21.6L4.6,21.6L4.6,22.5L4.4,22.5L4.4,21.4L4.9,21.4L4.9,20.4L5.9,20.4L5.9,19.9L7.4,19.9L7.4,19.4L7.9,19.4L7.9,18.9L8.4,18.9L8.4,17.4L8.9,17.4L8.9,16.9L10.4,16.9L10.4,16.4L10.9,16.4L10.9,13.6L8.4,13.6L8.4,12.6L7.9,12.6L7.9,12.1L7.4,12.1L7.4,10.1L6.4,10.1L6.4,9.6L5.9,9.6L5.9,8.6L4.9,8.6L4.9,8.1L4.4,8.1L4.4,7.6L3.9,7.6L3.9,6.1L3,6.1L3,5.9L4.1,5.9L4.1,7.4L4.6,7.4L4.6,7.9L5.1,7.9L5.1,8.4L6.1,8.4L6.1,9.4L6.6,9.4L6.6,9.9L7.6,9.9L7.6,11.9L8.1,11.9L8.1,12.4L8.6,12.4L8.6,13.4z" stroke="none"/><path d="M84.9,12.9L84.9,12.6L83.9,12.6L83.9,12L84.1,12L84.1,12.4L85.1,12.4L85.1,12.9L87.4,12.9L87.4,11.9L88.4,11.9L88.4,10.9L88.9,10.9L88.9,10.4L91.9,10.4L91.9,9.4L93.9,9.4L93.9,7.9L94.4,7.9L94.4,7.5L94.6,7.5L94.6,8.1L94.1,8.1L94.1,9.6L92.1,9.6L92.1,10.6L89.1,10.6L89.1,11.1L88.6,11.1L88.6,12.1L87.6,12.1L87.6,13.1L85.1,13.1L85.1,13.4L92.9,13.4L92.9,11.9L93.4,11.9L93.4,11.4L93.9,11.4L93.9,10.9L94.4,10.9L94.4,8.9L100.6,8.9L100.6,18.6L100.1,18.6L100.1,19.1L99.6,19.1L99.6,31.6L99.1,31.6L99.1,32.1L98.6,32.1L98.6,32.6L97.6,32.6L97.6,33L97.4,33L97.4,32.4L98.4,32.4L98.4,31.9L98.9,31.9L98.9,31.4L99.4,31.4L99.4,18.9L99.9,18.9L99.9,18.4L100.4,18.4L100.4,9.1L94.6,9.1L94.6,11.1L94.1,11.1L94.1,11.6L93.6,11.6L93.6,12.1L93.1,12.1L93.1,13.6L84.9,13.6L84.9,13.1L83.4,13.1L83.4,11.1L79.4,11.1L79.4,10.6L78.9,10.6L78.9,10.1L78.4,10.1L78.4,9.6L70.4,9.6L70.4,9L70.6,9L70.6,9.4L78.6,9.4L78.6,9.9L79.1,9.9L79.1,10.4L79.6,10.4L79.6,10.9L83.6,10.9L83.6,12.9z" stroke="none"/><path d="M18.9,37.4L18.9,36.9L21.6,36.9L21.6,37.4L22.1,37.4L22.1,37.9L22.6,37.9L22.6,38.4L32.1,38.4L32.1,39.4L33.6,39.4L33.6,40.4L34.1,40.4L34.1,40.9L36.1,40.9L36.1,42L35.9,42L35.9,41.1L33.9,41.1L33.9,40.6L33.4,40.6L33.4,39.6L31.9,39.6L31.9,38.6L22.4,38.6L22.4,38.1L21.9,38.1L21.9,37.6L21.4,37.6L21.4,37.1L19.1,37.1L19.1,37.4L19.6,37.4L19.6,38.4L20.1,38.4L20.1,52.4L21.1,52.4L21.1,53.4L22.1,53.4L22.1,53.9L22.5,53.9L22.5,54.1L21.9,54.1L21.9,53.6L20.9,53.6L20.9,52.6L19.9,52.6L19.9,38.6L19.4,38.6L19.4,37.6L19.1,37.6L19.1,38.9L19.5,38.9L19.5,39.1L18.9,39.1L18.9,37.6L18.4,37.6L18.4,36.1L17.4,36.1L17.4,34.6L14.9,34.6L14.9,34.1L14.4,34.1L14.4,33.6L13.4,33.6L13.4,31.6L11.4,31.6L11.4,31.1L10.9,31.1L10.9,30.1L9.9,30.1L9.9,28.1L9.4,28.1L9.4,26.1L6.9,26.1L6.9,25.6L6,25.6L6,25.4L7.1,25.4L7.1,25.9L9.6,25.9L9.6,27.9L10.1,27.9L10.1,29.9L11.1,29.9L11.1,30.9L11.6,30.9L11.6,31.4L13.6,31.4L13.6,33.4L14.6,33.4L14.6,33.9L15.1,33.9L15.1,34.4L17.6,34.4L17.6,35.9L18.6,35.9L18.6,37.4z" stroke="none"/><path d="M62.4,6.4L62.4,5.9L68.1,5.9L68.1,6.4L68.6,6.4L68.6,6.9L71.1,6.9L71.1,7.4L72,7.4L72,7.6L70.9,7.6L70.9,7.1L68.4,7.1L68.4,6.6L67.9,6.6L67.9,6.1L62.6,6.1L62.6,6.4L64.1,6.4L64.1,7.4L65.6,7.4L65.6,7.9L66.1,7.9L66.1,8.4L66.6,8.4L66.6,9.9L67.1,9.9L67.1,10.4L67.6,10.4L67.6,12L67.4,12L67.4,10.6L66.9,10.6L66.9,10.1L66.4,10.1L66.4,8.6L65.9,8.6L65.9,8.1L65.4,8.1L65.4,7.6L63.9,7.6L63.9,6.6L62.6,6.6L62.6,10.1L62.1,10.1L62.1,10.6L61.5,10.6L61.5,10.4L61.9,10.4L61.9,9.9L62.4,9.9L62.4,6.6L58.9,6.6L58.9,5.6L58.4,5.6L58.4,4.5L58.6,4.5L58.6,5.4L59.1,5.4L59.1,6.4z" stroke="none"/><path d="M51.9,70.4L51.9,66.6L51.4,66.6L51.4,62.9L52.4,62.9L52.4,61.5L52.6,61.5L52.6,63.1L51.6,63.1L51.6,66.4L52.1,66.4L52.1,70.4L54.4,70.4L54.4,68.9L55.4,68.9L55.4,67.9L56.4,67.9L56.4,66.9L56.9,66.9L56.9,66L57.1,66L57.1,67.1L56.6,67.1L56.6,68.1L55.6,68.1L55.6,69.1L54.6,69.1L54.6,70.6L52.1,70.6L52.1,73.6L51.6,73.6L51.6,75.1L51,75.1L51,74.9L51.4,74.9L51.4,73.4L51.9,73.4L51.9,70.6L51.6,70.6L51.6,72.6L51.1,72.6L51.1,74.6L50.6,74.6L50.6,75.4L52.4,75.4L52.4,74.4L53.4,74.4L53.4,73.9L54.9,73.9L54.9,73.4L55.4,73.4L55.4,72.9L56.9,72.9L56.9,71.9L57.4,71.9L57.4,70.9L60.4,70.9L60.4,70.4L60.9,70.4L60.9,69.9L61.9,69.9L61.9,69.4L62.9,69.4L62.9,67.9L65.1,67.9L65.1,68.4L65.6,68.4L65.6,77.1L64.6,77.1L64.6,78.6L64.1,78.6L64.1,79.6L62.6,79.6L62.6,80.6L61.6,80.6L61.6,81.1L59.6,81.1L59.6,82.6L59.1,82.6L59.1,84.1L58.6,84.1L58.6,85.1L58.1,85.1L58.1,85.6L57.6,85.6L57.6,87.1L57.1,87.1L57.1,88.5L56.9,88.5L56.9,86.9L57.4,86.9L57.4,85.4L57.9,85.4L57.9,84.9L58.4,84.9L58.4,83.9L58.9,83.9L58.9,82.4L59.4,82.4L59.4,80.9L61.4,80.9L61.4,80.4L62.4,80.4L62.4,79.4L63.9,79.4L63.9,78.4L64.4,78.4L64.4,76.9L65.4,76.9L65.4,68.6L64.9,68.6L64.9,68.1L63.1,68.1L63.1,69.6L62.1,69.6L62.1,70.1L61.1,70.1L61.1,70.6L60.6,70.6L60.6,71.1L57.6,71.1L57.6,72.1L57.1,72.1L57.1,73.1L55.6,73.1L55.6,73.6L55.1,73.6L55.1,74.1L53.6,74.1L53.6,74.6L52.6,74.6L52.6,75.6L50.4,75.6L50.4,74.4L50.9,74.4L50.9,72.4L51.4,72.4L51.4,70.4z" stroke="none"/><path d="M74.4,14.4L74.4,13.9L75.4,13.9L75.4,12.9L76.9,12.9L76.9,12.4L77.4,12.4L77.4,11.9L77.9,11.9L77.9,10.5L78.1,10.5L78.1,12.1L77.6,12.1L77.6,12.6L77.1,12.6L77.1,13.1L75.6,13.1L75.6,14.1L74.6,14.1L74.6,14.4L92.9,14.4L92.9,13.9L93.4,13.9L93.4,13.4L93.9,13.4L93.9,12.4L95.4,12.4L95.4,11.9L95.9,11.9L95.9,10.9L96.9,10.9L96.9,10.4L97.9,10.4L97.9,9.4L100.1,9.4L100.1,16.6L99.6,16.6L99.6,17.1L99.1,17.1L99.1,19.6L98.6,19.6L98.6,20.1L98.1,20.1L98.1,20.6L97.6,20.6L97.6,22.1L96.6,22.1L96.6,22.6L96.1,22.6L96.1,23.6L95.6,23.6L95.6,24.1L94.1,24.1L94.1,24.6L93.1,24.6L93.1,25.1L92.6,25.1L92.6,25.6L89.6,25.6L89.6,26.1L89.1,26.1L89.1,26.6L88.1,26.6L88.1,32.1L87.6,32.1L87.6,33.6L86.6,33.6L86.6,34.1L86.1,34.1L86.1,34.6L85.5,34.6L85.5,34.4L85.9,34.4L85.9,33.9L86.4,33.9L86.4,33.4L87.4,33.4L87.4,31.9L87.9,31.9L87.9,26.4L88.9,26.4L88.9,25.9L89.4,25.9L89.4,25.4L92.4,25.4L92.4,24.9L92.9,24.9L92.9,24.4L93.9,24.4L93.9,23.9L95.4,23.9L95.4,23.4L95.9,23.4L95.9,22.4L96.4,22.4L96.4,21.9L97.4,21.9L97.4,20.4L97.9,20.4L97.9,19.9L98.4,19.9L98.4,19.4L98.9,19.4L98.9,16.9L99.4,16.9L99.4,16.4L99.9,16.4L99.9,9.6L98.1,9.6L98.1,10.6L97.1,10.6L97.1,11.1L96.1,11.1L96.1,12.1L95.6,12.1L95.6,12.6L94.1,12.6L94.1,13.6L93.6,13.6L93.6,14.1L93.1,14.1L93.1,14.6L74.6,14.6L74.6,15.1L72.4,15.1L72.4,14.1L71.4,14.1L71.4,12.6L70.9,12.6L70.9,12.1L70.5,12.1L70.5,11.9L71.1,11.9L71.1,12.4L71.6,12.4L71.6,13.9L72.6,13.9L72.6,14.9L74.4,14.9L74.4,14.6L73.9,14.6L73.9,13.6L73.4,13.6L73.4,13.1L72.4,13.1L72.4,11.1L71.9,11.1L71.9,10.5L72.1,10.5L72.1,10.9L72.6,10.9L72.6,12.9L73.6,12.9L73.6,13.4L74.1,13.4L74.1,14.4z" stroke="none"/><path d="M83.4,18.9L83.4,18.4L90.4,18.4L90.4,17.9L91.4,17.9L91.4,16.9L92.9,16.9L92.9,14.9L93.4,14.9L93.4,14.4L95.4,14.4L95.4,13.9L95.9,13.9L95.9,13.4L96.4,13.4L96.4,11.4L98.4,11.4L98.4,9.9L99.6,9.9L99.6,15.6L99.1,15.6L99.1,16.6L98.6,16.6L98.6,17.6L97.6,17.6L97.6,18.1L97.1,18.1L97.1,18.6L96.6,18.6L96.6,19.1L96.1,19.1L96.1,19.6L86.1,19.6L86.1,20.1L85.6,20.1L85.6,20.6L85.1,20.6L85.1,21.1L83.6,21.1L83.6,21.6L82.1,21.6L82.1,22.1L81.1,22.1L81.1,23.1L80.1,23.1L80.1,23.6L79.6,23.6L79.6,24.6L77.4,24.6L77.4,24.1L76.9,24.1L76.9,21.1L76.4,21.1L76.4,20.6L75.9,20.6L75.9,19.6L73.4,19.6L73.4,19.1L72.9,19.1L72.9,18.6L71.9,18.6L71.9,18.1L71.4,18.1L71.4,17.1L70.9,17.1L70.9,16.6L68.9,16.6L68.9,7.9L71.6,7.9L71.6,8.4L91.9,8.4L91.9,7.4L92.4,7.4L92.4,6.9L92.9,6.9L92.9,6.4L96.1,6.4L96.1,6.9L98.1,6.9L98.1,8.4L101.1,8.4L101.1,18.9L101.6,18.9L101.6,30.1L101.1,30.1L101.1,32.6L100.6,32.6L100.6,33.1L100.1,33.1L100.1,34.1L99.6,34.1L99.6,35.1L99.1,35.1L99.1,36.1L98.6,36.1L98.6,38.1L97.6,38.1L97.6,39.1L95.6,39.1L95.6,39.6L95.1,39.6L95.1,40.1L94.6,40.1L94.6,40.5L94.4,40.5L94.4,39.9L94.9,39.9L94.9,39.4L95.4,39.4L95.4,38.9L97.4,38.9L97.4,37.9L98.4,37.9L98.4,35.9L98.9,35.9L98.9,34.9L99.4,34.9L99.4,33.9L99.9,33.9L99.9,32.9L100.4,32.9L100.4,32.4L100.9,32.4L100.9,29.9L101.4,29.9L101.4,19.1L100.9,19.1L100.9,8.6L97.9,8.6L97.9,7.1L95.9,7.1L95.9,6.6L93.1,6.6L93.1,7.1L92.6,7.1L92.6,7.6L92.1,7.6L92.1,8.6L71.4,8.6L71.4,8.1L69.1,8.1L69.1,16.4L71.1,16.4L71.1,16.9L71.6,16.9L71.6,17.9L72.1,17.9L72.1,18.4L73.1,18.4L73.1,18.9L73.6,18.9L73.6,19.4L76.1,19.4L76.1,20.4L76.6,20.4L76.6,20.9L77.1,20.9L77.1,23.9L77.6,23.9L77.6,24.4L79.4,24.4L79.4,23.4L79.9,23.4L79.9,22.9L80.9,22.9L80.9,21.9L81.9,21.9L81.9,21.4L83.4,21.4L83.4,20.9L84.9,20.9L84.9,20.4L85.4,20.4L85.4,19.9L85.9,19.9L85.9,19.4L95.9,19.4L95.9,18.9L96.4,18.9L96.4,18.4L96.9,18.4L96.9,17.9L97.4,17.9L97.4,17.4L98.4,17.4L98.4,16.4L98.9,16.4L98.9,15.4L99.4,15.4L99.4,10.1L98.6,10.1L98.6,11.6L96.6,11.6L96.6,13.6L96.1,13.6L96.1,14.1L95.6,14.1L95.6,14.6L93.6,14.6L93.6,15.1L93.1,15.1L93.1,17.1L91.6,17.1L91.6,18.1L90.6,18.1L90.6,18.6L83.6,18.6L83.6,18.9L94.9,18.9L94.9,17.4L95.9,17.4L95.9,16.9L96.9,16.9L96.9,16.4L97.4,16.4L97.4,13.9L97.9,13.9L97.9,13.4L98.4,13.4L98.4,11.9L98.9,11.9L98.9,10.5L99.1,10.5L99.1,12.1L98.6,12.1L98.6,13.6L98.1,13.6L98.1,14.1L97.6,14.1L97.6,16.6L97.1,16.6L97.1,17.1L96.1,17.1L96.1,17.6L95.1,17.6L95.1,19.1L83.6,19.1L83.6,20.1L83.1,20.1L83.1,20.6L81.6,20.6L81.6,21.6L80.6,21.6L80.6,22.1L80.1,22.1L80.1,22.6L79.1,22.6L79.1,23.6L78.6,23.6L78.6,24.1L78,24.1L78,23.9L78.4,23.9L78.4,23.4L78.9,23.4L78.9,22.4L79.9,22.4L79.9,21.9L80.4,21.9L80.4,21.4L81.4,21.4L81.4,20.4L82.9,20.4L82.9,19.9L83.4,19.9L83.4,19.1L74.4,19.1L74.4,17.6L73.9,17.6L73.9,17.1L71.9,17.1L71.9,16.6L71.4,16.6L71.4,16.1L69.9,16.1L69.9,15.1L69.4,15.1L69.4,11.4L69.9,11.4L69.9,10.9L70.4,10.9L70.4,10.5L70.6,10.5L70.6,11.1L70.1,11.1L70.1,11.6L69.6,11.6L69.6,14.9L70.1,14.9L70.1,15.9L71.6,15.9L71.6,16.4L72.1,16.4L72.1,16.9L74.1,16.9L74.1,17.4L74.6,17.4L74.6,18.9z" stroke="none"/><path d="M45.9,25.4L45.9,23.4L46.4,23.4L46.4,22.9L51.4,22.9L51.4,22.4L51.9,22.4L51.9,21.4L59.4,21.4L59.4,20.9L60,20.9L60,21.1L59.6,21.1L59.6,21.6L52.1,21.6L52.1,22.6L51.6,22.6L51.6,23.1L46.6,23.1L46.6,23.6L46.1,23.6L46.1,25.4L46.6,25.4L46.6,32.4L47.1,32.4L47.1,33.9L48.1,33.9L48.1,34.4L48.6,34.4L48.6,34.9L49.1,34.9L49.1,37.4L49.6,37.4L49.6,38.4L50.1,38.4L50.1,39.4L51.1,39.4L51.1,39.9L52.1,39.9L52.1,40.4L52.5,40.4L52.5,40.6L51.9,40.6L51.9,40.1L50.9,40.1L50.9,39.6L49.9,39.6L49.9,38.6L49.4,38.6L49.4,37.6L48.9,37.6L48.9,35.1L48.4,35.1L48.4,34.6L47.9,34.6L47.9,34.1L46.9,34.1L46.9,32.6L46.4,32.6L46.4,25.6L46.1,25.6L46.1,26.6L45.6,26.6L45.6,27.1L44.6,27.1L44.6,29.6L44.1,29.6L44.1,32.1L43.6,32.1L43.6,33L43.4,33L43.4,31.9L43.9,31.9L43.9,29.4L44.4,29.4L44.4,26.9L45.4,26.9L45.4,26.4L45.9,26.4L45.9,25.6L39.4,25.6L39.4,18.6L37.9,18.6L37.9,17.1L37.4,17.1L37.4,16.5L37.6,16.5L37.6,16.9L38.1,16.9L38.1,18.4L39.6,18.4L39.6,25.4z" stroke="none"/><path d="M81.4,52.4L81.4,50.1L80.9,50.1L80.9,49.6L78.9,49.6L78.9,48.6L78.4,48.6L78.4,48.1L76.9,48.1L76.9,47.1L72.9,47.1L72.9,46.1L71.6,46.1L71.6,62.6L71.1,62.6L71.1,63.1L69.6,63.1L69.6,65.4L73.1,65.4L73.1,68.9L75.6,68.9L75.6,69.4L76.6,69.4L76.6,69.9L77.6,69.9L77.6,70.9L78.1,70.9L78.1,71.4L79.1,71.4L79.1,72.9L79.6,72.9L79.6,73.4L80.1,73.4L80.1,74.4L80.6,74.4L80.6,75.4L82.6,75.4L82.6,75.9L85.9,75.9L85.9,75.4L86.4,75.4L86.4,71.1L84.4,71.1L84.4,70.6L84,70.6L84,70.4L84.6,70.4L84.6,70.9L86.6,70.9L86.6,75.6L86.1,75.6L86.1,76.1L82.4,76.1L82.4,75.6L80.4,75.6L80.4,74.6L79.9,74.6L79.9,73.6L79.4,73.6L79.4,73.1L78.9,73.1L78.9,71.6L77.9,71.6L77.9,71.1L77.4,71.1L77.4,70.1L76.4,70.1L76.4,69.6L75.4,69.6L75.4,69.1L72.9,69.1L72.9,65.6L69.4,65.6L69.4,62.9L70.9,62.9L70.9,62.4L71.4,62.4L71.4,45.9L73.1,45.9L73.1,46.9L77.1,46.9L77.1,47.9L78.6,47.9L78.6,48.4L79.1,48.4L79.1,49.4L81.1,49.4L81.1,49.9L81.6,49.9L81.6,52.4L81.9,52.4L81.9,51.9L82.9,51.9L82.9,50.9L83.4,50.9L83.4,48.9L85.9,48.9L85.9,48.4L86.4,48.4L86.4,47.4L87.9,47.4L87.9,46.9L89.4,46.9L89.4,46.4L89.9,46.4L89.9,40.5L90.1,40.5L90.1,46.6L89.6,46.6L89.6,47.1L88.1,47.1L88.1,47.6L86.6,47.6L86.6,48.6L86.1,48.6L86.1,49.1L83.6,49.1L83.6,51.1L83.1,51.1L83.1,52.1L82.1,52.1L82.1,52.6L81.6,52.6L81.6,56.4L82.1,56.4L82.1,56.9L83.1,56.9L83.1,57.4L84.6,57.4L84.6,58.4L85.1,58.4L85.1,58.9L86.1,58.9L86.1,59.4L86.6,59.4L86.6,59.9L87.1,59.9L87.1,60.4L88.1,60.4L88.1,60.9L88.6,60.9L88.6,61.5L88.4,61.5L88.4,61.1L87.9,61.1L87.9,60.6L86.9,60.6L86.9,60.1L86.4,60.1L86.4,59.6L85.9,59.6L85.9,59.1L84.9,59.1L84.9,58.6L84.4,58.6L84.4,57.6L82.9,57.6L82.9,57.1L81.9,57.1L81.9,56.6L81.4,56.6L81.4,52.6L75.4,52.6L75.4,52.1L74.9,52.1L74.9,49.6L73.9,49.6L73.9,49.1L73.4,49.1L73.4,48.1L72.9,48.1L72.9,47.6L72.4,47.6L72.4,46.6L72,46.6L72,46.4L72.6,46.4L72.6,47.4L73.1,47.4L73.1,47.9L73.6,47.9L73.6,48.9L74.1,48.9L74.1,49.4L75.1,49.4L75.1,51.9L75.6,51.9L75.6,52.4z" stroke="none"/><path d="M18.4,56.4L18.4,49.6L17.4,49.6L17.4,49.1L16.9,49.1L16.9,48.6L16.4,48.6L16.4,48.1L13.4,48.1L13.4,47.1L12.9,47.1L12.9,45.1L12,45.1L12,44.9L13.1,44.9L13.1,46.9L13.6,46.9L13.6,47.9L16.6,47.9L16.6,48.4L17.1,48.4L17.1,48.9L17.6,48.9L17.6,49.4L18.6,49.4L18.6,56.4L20.6,56.4L20.6,56.9L21.1,56.9L21.1,57.9L26.1,57.9L26.1,58.4L26.6,58.4L26.6,58.9L27.1,58.9L27.1,60.4L28.6,60.4L28.6,61.4L29.1,61.4L29.1,62.9L29.6,62.9L29.6,64.4L30,64.4L30,64.6L29.4,64.6L29.4,63.1L28.9,63.1L28.9,61.6L28.4,61.6L28.4,60.6L26.9,60.6L26.9,59.1L26.4,59.1L26.4,58.6L25.9,58.6L25.9,58.1L20.9,58.1L20.9,57.1L20.4,57.1L20.4,56.6L18.6,56.6L18.6,56.9L19.1,56.9L19.1,57.4L20.1,57.4L20.1,57.9L20.6,57.9L20.6,58.4L25.6,58.4L25.6,58.9L26.1,58.9L26.1,60.4L26.6,60.4L26.6,60.9L27.1,60.9L27.1,61.9L27.6,61.9L27.6,63.9L28.6,63.9L28.6,64.4L29.1,64.4L29.1,64.9L30.4,64.9L30.4,62.4L30.9,62.4L30.9,61.9L31.4,61.9L31.4,60.9L32.4,60.9L32.4,59.9L32.9,59.9L32.9,58.9L34.4,58.9L34.4,58.4L35.4,58.4L35.4,57.4L38.6,57.4L38.6,61.6L37.6,61.6L37.6,62.1L37.1,62.1L37.1,62.6L36.6,62.6L36.6,72.1L36.1,72.1L36.1,73.1L34.6,73.1L34.6,73.5L34.4,73.5L34.4,72.9L35.9,72.9L35.9,71.9L36.4,71.9L36.4,62.4L36.9,62.4L36.9,61.9L37.4,61.9L37.4,61.4L38.4,61.4L38.4,57.6L35.6,57.6L35.6,58.6L34.6,58.6L34.6,59.1L33.1,59.1L33.1,60.1L32.6,60.1L32.6,61.1L31.6,61.1L31.6,62.1L31.1,62.1L31.1,62.6L30.6,62.6L30.6,65.1L28.9,65.1L28.9,64.6L28.4,64.6L28.4,64.1L27.4,64.1L27.4,62.1L26.9,62.1L26.9,61.1L26.4,61.1L26.4,60.6L25.9,60.6L25.9,59.1L25.4,59.1L25.4,58.6L20.4,58.6L20.4,58.1L19.9,58.1L19.9,57.6L18.9,57.6L18.9,57.1L18.4,57.1L18.4,56.6L17.4,56.6L17.4,56.1L6.9,56.1L6.9,54.6L6.4,54.6L6.4,52.6L6,52.6L6,52.4L6.6,52.4L6.6,54.4L7.1,54.4L7.1,55.9L17.6,55.9L17.6,56.4z" stroke="none"/><path d="M75.9,37.9L75.9,28.6L72.9,28.6L72.9,27.1L67.9,27.1L67.9,25.6L64.5,25.6L64.5,25.4L68.1,25.4L68.1,26.9L73.1,26.9L73.1,28.4L76.1,28.4L76.1,37.9L87.4,37.9L87.4,36.9L87.9,36.9L87.9,32.4L88.4,32.4L88.4,28.9L89.4,28.9L89.4,28.4L90,28.4L90,28.6L89.6,28.6L89.6,29.1L88.6,29.1L88.6,32.6L88.1,32.6L88.1,37.1L87.6,37.1L87.6,38.1L76.1,38.1L76.1,38.4L90.6,38.4L90.6,38.9L91.1,38.9L91.1,47.1L90.6,47.1L90.6,48.1L90.1,48.1L90.1,48.6L89.6,48.6L89.6,49.6L88.6,49.6L88.6,51L88.4,51L88.4,49.4L89.4,49.4L89.4,48.4L89.9,48.4L89.9,47.9L90.4,47.9L90.4,46.9L90.9,46.9L90.9,39.1L90.4,39.1L90.4,38.6L75.9,38.6L75.9,38.1L75.6,38.1L75.6,39.6L75.1,39.6L75.1,40.6L74.6,40.6L74.6,41.1L74.1,41.1L74.1,41.6L72.1,41.6L72.1,45.1L71.1,45.1L71.1,53.1L69.6,53.1L69.6,55.6L69,55.6L69,55.4L69.4,55.4L69.4,52.9L70.9,52.9L70.9,44.9L71.9,44.9L71.9,41.4L73.9,41.4L73.9,40.9L74.4,40.9L74.4,40.4L74.9,40.4L74.9,39.4L75.4,39.4L75.4,37.9z" stroke="none"/><path d="M7.5,35.9L7.5,36.1L7.1,36.1L7.1,37.1L6.6,37.1L6.6,37.6L6,37.6L6,37.4L6.4,37.4L6.4,36.9L6.9,36.9L6.9,35.9z" stroke="none"/><path d="M63,15.1L63,14.9L66,14.9L66,15.1z" stroke="none"/><path d="M25.5,91.4L25.5,91.6L25.1,91.6L25.1,92.1L24.1,92.1L24.1,92.6L23.6,92.6L23.6,93.1L22.5,93.1L22.5,92.9L23.4,92.9L23.4,92.4L23.9,92.4L23.9,91.9L24.9,91.9L24.9,91.4z" stroke="none"/><path d="M15,25.4L15,25.6L14.6,25.6L14.6,26.1L14.1,26.1L14.1,27.1L13.6,27.1L13.6,28.5L13.4,28.5L13.4,26.9L13.9,26.9L13.9,25.9L14.4,25.9L14.4,25.4z" stroke="none"/><path d="M16.5,49.4L16.5,49.6L13.4,49.6L13.4,48.6L12.9,48.6L12.9,48.1L12.4,48.1L12.4,47.6L11.9,47.6L11.9,47.1L11.4,47.1L11.4,45.6L10.9,45.6L10.9,44.4L11.4,44.4L11.4,43.9L15.6,43.9L15.6,45.4L17.1,45.4L17.1,45.9L17.6,45.9L17.6,46.4L18,46.4L18,46.6L17.4,46.6L17.4,46.1L16.9,46.1L16.9,45.6L15.4,45.6L15.4,44.1L11.6,44.1L11.6,44.6L11.1,44.6L11.1,45.4L11.6,45.4L11.6,46.9L12.1,46.9L12.1,47.4L12.6,47.4L12.6,47.9L13.1,47.9L13.1,48.4L13.6,48.4L13.6,49.4z" stroke="none"/><path d="M16.5,56.9L16.5,57.1L16.1,57.1L16.1,59.1L15.1,59.1L15.1,60.1L13.5,60.1L13.5,59.9L14.9,59.9L14.9,58.9L15.9,58.9L15.9,56.9z" stroke="none"/><path d="M93.1,64.5L92.9,64.5L92.9,60L93.1,60z" stroke="none"/><path d="M99,77.9L99,78.1L96.9,78.1L96.9,77.6L95.9,77.6L95.9,76.6L94.9,76.6L94.9,75.6L94.4,75.6L94.4,75L94.6,75L94.6,75.4L95.1,75.4L95.1,76.4L96.1,76.4L96.1,77.4L97.1,77.4L97.1,77.9z" stroke="none"/><path d="M58.5,19.6L58.5,19.4L61.1,19.4L61.1,21.6L60.6,21.6L60.6,22.1L54.1,22.1L54.1,22.5L53.9,22.5L53.9,21.9L60.4,21.9L60.4,21.4L60.9,21.4L60.9,19.6z" stroke="none"/><path d="M31.4,97.5L31.6,97.5L31.6,97.9L32.6,97.9L32.6,98.9L33.6,98.9L33.6,99.4L34.1,99.4L34.1,99.9L34.6,99.9L34.6,100.4L36,100.4L36,100.6L34.4,100.6L34.4,100.1L33.9,100.1L33.9,99.6L33.4,99.6L33.4,99.1L32.4,99.1L32.4,98.1L31.4,98.1z" stroke="none"/><path d="M39,87.1L39,86.9L40.4,86.9L40.4,85.9L41.4,85.9L41.4,84.4L41.9,84.4L41.9,82.5L42.1,82.5L42.1,84.6L41.6,84.6L41.6,86.1L40.6,86.1L40.6,87.1z" stroke="none"/><path d="M9,73.6L9,73.4L12.9,73.4L12.9,71.9L15,71.9L15,72.1L13.1,72.1L13.1,73.6z" stroke="none"/><path d="M19.5,87.1L19.5,86.9L22.4,86.9L22.4,85.4L22.9,85.4L22.9,82.4L24,82.4L24,82.6L23.1,82.6L23.1,85.6L22.6,85.6L22.6,87.1z" stroke="none"/><path d="M57,19.4L57,19.6L51.9,19.6L51.9,17.1L51.4,17.1L51.4,15.6L50.9,15.6L50.9,15L51.1,15L51.1,15.4L51.6,15.4L51.6,16.9L52.1,16.9L52.1,19.4z" stroke="none"/><path d="M70.6,34.5L70.4,34.5L70.4,32.1L69.9,32.1L69.9,31.1L69.4,31.1L69.4,30.6L67.9,30.6L67.9,29.6L66.4,29.6L66.4,28.6L66,28.6L66,28.4L66.6,28.4L66.6,29.4L68.1,29.4L68.1,30.4L69.6,30.4L69.6,30.9L70.1,30.9L70.1,31.9L70.6,31.9z" stroke="none"/><path d="M76.5,5.9L76.5,6.1L69,6.1L69,5.9z" stroke="none"/><path d="M73.5,32.9L73.5,33.1L71.4,33.1L71.4,32.6L70.9,32.6L70.9,30.1L68.9,30.1L68.9,29.1L66.9,29.1L66.9,28.1L66.4,28.1L66.4,27.6L63.9,27.6L63.9,26.1L63.4,26.1L63.4,24.4L74.6,24.4L74.6,24.9L75.1,24.9L75.1,25.9L76.1,25.9L76.1,26.4L76.6,26.4L76.6,27.9L78.6,27.9L78.6,29.9L79.1,29.9L79.1,30.9L79.6,30.9L79.6,31.4L81,31.4L81,31.6L79.4,31.6L79.4,31.1L78.9,31.1L78.9,30.1L78.4,30.1L78.4,28.1L76.4,28.1L76.4,26.6L75.9,26.6L75.9,26.1L74.9,26.1L74.9,25.1L74.4,25.1L74.4,24.6L63.6,24.6L63.6,25.9L64.1,25.9L64.1,27.4L66.6,27.4L66.6,27.9L67.1,27.9L67.1,28.9L69.1,28.9L69.1,29.9L71.1,29.9L71.1,32.4L71.6,32.4L71.6,32.9z" stroke="none"/><path d="M48.1,21L47.9,21L47.9,17.9L48.9,17.9L48.9,15.9L49.4,15.9L49.4,14.4L50.4,14.4L50.4,13.9L52.1,13.9L52.1,15.9L52.6,15.9L52.6,16.4L53.1,16.4L53.1,16.9L53.6,16.9L53.6,17.4L55.1,17.4L55.1,17.9L55.5,17.9L55.5,18.1L54.9,18.1L54.9,17.6L53.4,17.6L53.4,17.1L52.9,17.1L52.9,16.6L52.4,16.6L52.4,16.1L51.9,16.1L51.9,14.1L50.6,14.1L50.6,14.6L49.6,14.6L49.6,16.1L49.1,16.1L49.1,18.1L48.1,18.1z" stroke="none"/><path d="M62.9,85.5L63.1,85.5L63.1,92.1L61.6,92.1L61.6,92.6L59.1,92.6L59.1,93.1L58.5,93.1L58.5,92.9L58.9,92.9L58.9,92.4L61.4,92.4L61.4,91.9L62.9,91.9z" stroke="none"/><path d="M12,50.9L12,51.1L6.1,51.1L6.1,51.6L5.6,51.6L5.6,52.1L5.1,52.1L5.1,58.9L6.1,58.9L6.1,59.4L7.6,59.4L7.6,60L7.4,60L7.4,59.6L5.9,59.6L5.9,59.1L4.9,59.1L4.9,51.9L5.4,51.9L5.4,51.4L5.9,51.4L5.9,50.9z" stroke="none"/><path d="M25.5,15.1L25.5,14.9L30.4,14.9L30.4,13.9L30.9,13.9L30.9,13.4L31.4,13.4L31.4,11.9L33.4,11.9L33.4,10.9L34.4,10.9L34.4,10.5L34.6,10.5L34.6,11.1L33.6,11.1L33.6,12.1L31.6,12.1L31.6,13.6L31.1,13.6L31.1,14.1L30.6,14.1L30.6,15.1z" stroke="none"/><path d="M26.9,90L27.1,90L27.1,94.1L26.6,94.1L26.6,94.6L24.6,94.6L24.6,95.1L23.6,95.1L23.6,96.1L23.1,96.1L23.1,96.6L22.1,96.6L22.1,97.1L20.1,97.1L20.1,97.6L19.5,97.6L19.5,97.4L19.9,97.4L19.9,96.9L21.9,96.9L21.9,96.4L22.9,96.4L22.9,95.9L23.4,95.9L23.4,94.9L24.4,94.9L24.4,94.4L26.4,94.4L26.4,93.9L26.9,93.9z" stroke="none"/><path d="M51,93.1L51,92.9L57.6,92.9L57.6,93.4L58.1,93.4L58.1,93.9L61.6,93.9L61.6,94.5L61.4,94.5L61.4,94.1L57.9,94.1L57.9,93.6L57.4,93.6L57.4,93.1z" stroke="none"/><path d="M97.6,79.5L97.4,79.5L97.4,78.6L95.9,78.6L95.9,78.1L95.4,78.1L95.4,77.1L93.9,77.1L93.9,75.6L93.4,75.6L93.4,72.1L92.4,72.1L92.4,71.6L90.4,71.6L90.4,71.1L89.9,71.1L89.9,70.5L90.1,70.5L90.1,70.9L90.6,70.9L90.6,71.4L92.6,71.4L92.6,71.9L93.6,71.9L93.6,75.4L94.1,75.4L94.1,76.9L95.6,76.9L95.6,77.9L96.1,77.9L96.1,78.4L97.6,78.4z" stroke="none"/><path d="M81,82.4L81,82.6L72.4,82.6L72.4,81.6L71.9,81.6L71.9,81.1L69,81.1L69,80.9L72.1,80.9L72.1,81.4L72.6,81.4L72.6,82.4z" stroke="none"/><path d="M75.1,96L74.9,96L74.9,95.6L74.4,95.6L74.4,95.1L72.4,95.1L72.4,94.1L70.9,94.1L70.9,85.9L71.9,85.9L71.9,85.4L72.4,85.4L72.4,84.9L74.4,84.9L74.4,84.4L76.4,84.4L76.4,84L76.6,84L76.6,84.6L74.6,84.6L74.6,85.1L72.6,85.1L72.6,85.6L72.1,85.6L72.1,86.1L71.1,86.1L71.1,93.9L72.6,93.9L72.6,94.9L74.6,94.9L74.6,95.4L75.1,95.4z" stroke="none"/><path d="M69,92.9L69,93.1L68.6,93.1L68.6,93.6L68.1,93.6L68.1,94.1L63.1,94.1L63.1,94.6L62.6,94.6L62.6,95.6L61.1,95.6L61.1,96.1L60.6,96.1L60.6,98.6L59.6,98.6L59.6,99.1L58.5,99.1L58.5,98.9L59.4,98.9L59.4,98.4L60.4,98.4L60.4,95.9L60.9,95.9L60.9,95.4L62.4,95.4L62.4,94.4L62.9,94.4L62.9,93.9L67.9,93.9L67.9,93.4L68.4,93.4L68.4,92.9z" stroke="none"/><path d="M62.9,31.5L63.1,31.5L63.1,43.6L61.5,43.6L61.5,43.4L62.9,43.4z" stroke="none"/><path d="M7.5,82.6L7.5,82.4L8.6,82.4L8.6,82.9L10.1,82.9L10.1,83.4L10.6,83.4L10.6,83.9L11.1,83.9L11.1,84.4L11.6,84.4L11.6,84.9L17.9,84.9L17.9,81.9L19.9,81.9L19.9,81.4L20.4,81.4L20.4,80.9L21,80.9L21,81.1L20.6,81.1L20.6,81.6L20.1,81.6L20.1,82.1L18.1,82.1L18.1,85.1L11.4,85.1L11.4,84.6L10.9,84.6L10.9,84.1L10.4,84.1L10.4,83.6L9.9,83.6L9.9,83.1L8.4,83.1L8.4,82.6z" stroke="none"/><path d="M24,87.1L24,86.9L25.6,86.9L25.6,87.4L27.1,87.4L27.1,87.9L27.6,87.9L27.6,88.4L28.1,88.4L28.1,100.1L27.1,100.1L27.1,100.5L26.9,100.5L26.9,99.9L27.9,99.9L27.9,88.6L27.4,88.6L27.4,88.1L26.9,88.1L26.9,87.6L25.4,87.6L25.4,87.1z" stroke="none"/><path d="M41.9,49.5L42.1,49.5L42.1,50.9L42.6,50.9L42.6,51.4L43.6,51.4L43.6,51.9L44.1,51.9L44.1,52.9L45.1,52.9L45.1,53.4L47.1,53.4L47.1,54.4L48.6,54.4L48.6,54.9L49.1,54.9L49.1,55.4L49.6,55.4L49.6,55.9L50.6,55.9L50.6,56.4L53.6,56.4L53.6,56.9L54,56.9L54,57.1L53.4,57.1L53.4,56.6L50.4,56.6L50.4,56.1L49.4,56.1L49.4,55.6L48.9,55.6L48.9,55.1L48.4,55.1L48.4,54.6L46.9,54.6L46.9,53.6L44.9,53.6L44.9,53.1L43.9,53.1L43.9,52.1L43.4,52.1L43.4,51.6L42.4,51.6L42.4,51.1L41.9,51.1z" stroke="none"/><path d="M43.6,21L43.4,21L43.4,19.9L43.9,19.9L43.9,19.4L45.4,19.4L45.4,18.9L45.9,18.9L45.9,17.4L46.9,17.4L46.9,16.9L47.4,16.9L47.4,15.4L47.9,15.4L47.9,13.9L49.9,13.9L49.9,13.4L52.6,13.4L52.6,14.9L55.6,14.9L55.6,15.9L56.6,15.9L56.6,16.9L59.1,16.9L59.1,17.4L60.1,17.4L60.1,18.4L61.1,18.4L61.1,18.9L61.6,18.9L61.6,24.1L60.6,24.1L60.6,24.6L58.6,24.6L58.6,25.1L57.6,25.1L57.6,26.6L56.1,26.6L56.1,28.1L55.6,28.1L55.6,28.5L55.4,28.5L55.4,27.9L55.9,27.9L55.9,26.4L57.4,26.4L57.4,24.9L58.4,24.9L58.4,24.4L60.4,24.4L60.4,23.9L61.4,23.9L61.4,19.1L60.9,19.1L60.9,18.6L59.9,18.6L59.9,17.6L58.9,17.6L58.9,17.1L56.4,17.1L56.4,16.1L55.4,16.1L55.4,15.1L52.4,15.1L52.4,13.6L50.1,13.6L50.1,14.1L48.1,14.1L48.1,15.6L47.6,15.6L47.6,17.1L47.1,17.1L47.1,17.6L46.1,17.6L46.1,19.1L45.6,19.1L45.6,19.6L44.1,19.6L44.1,20.1L43.6,20.1z" stroke="none"/><path d="M18,40.4L18,40.6L6.9,40.6L6.9,39.1L6.4,39.1L6.4,38.6L5.4,38.6L5.4,38.1L4.9,38.1L4.9,37.1L4.4,37.1L4.4,36L4.6,36L4.6,36.9L5.1,36.9L5.1,37.9L5.6,37.9L5.6,38.4L6.6,38.4L6.6,38.9L7.1,38.9L7.1,40.4z" stroke="none"/><path d="M24.1,37.5L23.9,37.5L23.9,34.1L18.4,34.1L18.4,33.6L17.9,33.6L17.9,32.6L17.4,32.6L17.4,32.1L16.9,32.1L16.9,31.6L15.9,31.6L15.9,30.6L13.4,30.6L13.4,30.1L12.9,30.1L12.9,29.1L11.4,29.1L11.4,28.6L10.9,28.6L10.9,27.1L9.9,27.1L9.9,25.6L7.9,25.6L7.9,25.1L6.9,25.1L6.9,24.6L5.6,24.6L5.6,25.1L5.1,25.1L5.1,27.9L6.1,27.9L6.1,28.9L8.6,28.9L8.6,30.4L9.1,30.4L9.1,30.9L9.6,30.9L9.6,31.4L10.5,31.4L10.5,31.6L9.4,31.6L9.4,31.1L8.9,31.1L8.9,30.6L8.4,30.6L8.4,29.1L5.9,29.1L5.9,28.1L4.9,28.1L4.9,24.9L5.4,24.9L5.4,24.4L7.1,24.4L7.1,24.9L8.1,24.9L8.1,25.4L10.1,25.4L10.1,26.9L11.1,26.9L11.1,28.4L11.6,28.4L11.6,28.9L13.1,28.9L13.1,29.9L13.6,29.9L13.6,30.4L16.1,30.4L16.1,31.4L17.1,31.4L17.1,31.9L17.6,31.9L17.6,32.4L18.1,32.4L18.1,33.4L18.6,33.4L18.6,33.9L24.1,33.9z" stroke="none"/><path d="M82.5,102.1L82.5,101.9L91.9,101.9L91.9,99.9L92.4,99.9L92.4,99.4L92.9,99.4L92.9,97.9L93.9,97.9L93.9,96.4L95.4,96.4L95.4,95.9L96,95.9L96,96.1L95.6,96.1L95.6,96.6L94.1,96.6L94.1,98.1L93.1,98.1L93.1,99.6L92.6,99.6L92.6,100.1L92.1,100.1L92.1,102.1z" stroke="none"/><path d="M19.4,3L19.6,3L19.6,7.4L20.1,7.4L20.1,7.9L20.6,7.9L20.6,8.4L21.1,8.4L21.1,8.9L22.1,8.9L22.1,9.9L23.6,9.9L23.6,10.4L25.6,10.4L25.6,11.4L26.1,11.4L26.1,12.4L27.1,12.4L27.1,12.9L29.6,12.9L29.6,13.4L30,13.4L30,13.6L29.4,13.6L29.4,13.1L26.9,13.1L26.9,12.6L25.9,12.6L25.9,11.6L25.4,11.6L25.4,10.6L23.4,10.6L23.4,10.1L21.9,10.1L21.9,9.1L20.9,9.1L20.9,8.6L20.4,8.6L20.4,8.1L19.9,8.1L19.9,7.6L19.4,7.6z" stroke="none"/><path d="M26.9,43.5L27.1,43.5L27.1,48.1L26.1,48.1L26.1,48.6L25.1,48.6L25.1,50.1L24.6,50.1L24.6,51.1L24.1,51.1L24.1,53.1L23.6,53.1L23.6,54.6L23.1,54.6L23.1,55.1L21.4,55.1L21.4,54.1L20.4,54.1L20.4,53.1L19.4,53.1L19.4,40.6L18.9,40.6L18.9,40.1L18.4,40.1L18.4,39.6L16.4,39.6L16.4,39.1L14.9,39.1L14.9,37.1L13.4,37.1L13.4,36L13.6,36L13.6,36.9L15.1,36.9L15.1,38.9L16.6,38.9L16.6,39.4L18.6,39.4L18.6,39.9L19.1,39.9L19.1,40.4L19.6,40.4L19.6,52.9L20.6,52.9L20.6,53.9L21.6,53.9L21.6,54.9L22.9,54.9L22.9,54.4L23.4,54.4L23.4,52.9L23.9,52.9L23.9,50.9L24.4,50.9L24.4,49.9L24.9,49.9L24.9,48.4L25.9,48.4L25.9,47.9L26.9,47.9z" stroke="none"/><path d="M97.6,76.5L97.4,76.5L97.4,65.9L97.9,65.9L97.9,65.4L99.4,65.4L99.4,63.9L100.4,63.9L100.4,61.4L102,61.4L102,61.6L100.6,61.6L100.6,64.1L99.6,64.1L99.6,65.6L98.1,65.6L98.1,66.1L97.6,66.1z" stroke="none"/><path d="M100.4,19.5L100.6,19.5L100.6,32.1L100.1,32.1L100.1,32.6L99.6,32.6L99.6,33.1L98.6,33.1L98.6,33.6L98.1,33.6L98.1,34.1L97.1,34.1L97.1,34.6L96,34.6L96,34.4L96.9,34.4L96.9,33.9L97.9,33.9L97.9,33.4L98.4,33.4L98.4,32.9L99.4,32.9L99.4,32.4L99.9,32.4L99.9,31.9L100.4,31.9z" stroke="none"/><path d="M49.5,91.6L49.5,91.4L57.4,91.4L57.4,88.9L57.9,88.9L57.9,88.4L58.4,88.4L58.4,87.4L60.4,87.4L60.4,86.4L60.9,86.4L60.9,85.9L61.4,85.9L61.4,85.4L61.9,85.4L61.9,84.9L62.4,84.9L62.4,84.4L63.6,84.4L63.6,84.9L64.1,84.9L64.1,88.4L65.6,88.4L65.6,88.9L66.1,88.9L66.1,90L65.9,90L65.9,89.1L65.4,89.1L65.4,88.6L63.9,88.6L63.9,85.1L63.4,85.1L63.4,84.6L62.6,84.6L62.6,85.1L62.1,85.1L62.1,85.6L61.6,85.6L61.6,86.1L61.1,86.1L61.1,86.6L60.6,86.6L60.6,87.6L58.6,87.6L58.6,88.6L58.1,88.6L58.1,89.1L57.6,89.1L57.6,91.6z" stroke="none"/><path d="M33,20.9L33,21.1L18.9,21.1L18.9,20.6L18.4,20.6L18.4,20.1L16.4,20.1L16.4,19.5L16.6,19.5L16.6,19.9L18.6,19.9L18.6,20.4L19.1,20.4L19.1,20.9z" stroke="none"/><path d="M82.5,90.1L82.5,89.9L95.6,89.9L95.6,90.4L96.1,90.4L96.1,90.9L97.1,90.9L97.1,91.4L97.6,91.4L97.6,92.4L99.1,92.4L99.1,93.4L99.6,93.4L99.6,93.9L100.9,93.9L100.9,93.4L101.4,93.4L101.4,85.6L100.4,85.6L100.4,85.1L98.4,85.1L98.4,83.6L97.9,83.6L97.9,83.1L97.4,83.1L97.4,82.5L97.6,82.5L97.6,82.9L98.1,82.9L98.1,83.4L98.6,83.4L98.6,84.9L100.6,84.9L100.6,85.4L101.6,85.4L101.6,93.6L101.1,93.6L101.1,94.1L99.4,94.1L99.4,93.6L98.9,93.6L98.9,92.6L97.4,92.6L97.4,91.6L96.9,91.6L96.9,91.1L95.9,91.1L95.9,90.6L95.4,90.6L95.4,90.1z" stroke="none"/><path d="M33,88.6L33,88.4L36.6,88.4L36.6,89.9L37.1,89.9L37.1,90.4L38.1,90.4L38.1,91.4L39.6,91.4L39.6,92.9L40.1,92.9L40.1,94.4L42.6,94.4L42.6,97.4L43.1,97.4L43.1,97.9L43.6,97.9L43.6,98.4L44.1,98.4L44.1,99.9L45.4,99.9L45.4,99.4L46.4,99.4L46.4,98.4L47.4,98.4L47.4,95.9L48,95.9L48,96.1L47.6,96.1L47.6,98.6L46.6,98.6L46.6,99.6L45.6,99.6L45.6,100.1L43.9,100.1L43.9,98.6L43.4,98.6L43.4,98.1L42.9,98.1L42.9,97.6L42.4,97.6L42.4,94.6L39.9,94.6L39.9,93.1L39.4,93.1L39.4,91.6L37.9,91.6L37.9,90.6L36.9,90.6L36.9,90.1L36.4,90.1L36.4,88.6z" stroke="none"/><path d="M102.1,57L101.9,57L101.9,45.6L101.4,45.6L101.4,43.1L94.9,43.1L94.9,42.1L93,42.1L93,41.9L95.1,41.9L95.1,42.9L101.6,42.9L101.6,45.4L102.1,45.4z" stroke="none"/><path d="M51.1,88.5L50.9,88.5L50.9,81.4L51.9,81.4L51.9,79.9L52.9,79.9L52.9,79.4L53.4,79.4L53.4,78.4L53.9,78.4L53.9,77.9L56.9,77.9L56.9,75.9L57.4,75.9L57.4,75.4L57.9,75.4L57.9,74.4L59.4,74.4L59.4,73.4L60,73.4L60,73.6L59.6,73.6L59.6,74.6L58.1,74.6L58.1,75.6L57.6,75.6L57.6,76.1L57.1,76.1L57.1,78.1L54.1,78.1L54.1,78.6L53.6,78.6L53.6,79.6L53.1,79.6L53.1,80.1L52.1,80.1L52.1,81.6L51.1,81.6z" stroke="none"/><path d="M2.9,52.5L3.1,52.5L3.1,54.4L3.6,54.4L3.6,54.9L4.1,54.9L4.1,55.9L4.6,55.9L4.6,59.9L5.6,59.9L5.6,60.4L7.1,60.4L7.1,60.9L17.4,60.9L17.4,60.4L17.9,60.4L17.9,59.4L18.4,59.4L18.4,58.4L19.5,58.4L19.5,58.6L18.6,58.6L18.6,59.6L18.1,59.6L18.1,60.6L17.6,60.6L17.6,61.1L6.9,61.1L6.9,60.6L5.4,60.6L5.4,60.1L4.4,60.1L4.4,56.1L3.9,56.1L3.9,55.1L3.4,55.1L3.4,54.6L2.9,54.6z" stroke="none"/><path d="M19.5,22.4L19.5,22.6L7.1,22.6L7.1,23.1L6.1,23.1L6.1,23.6L3.4,23.6L3.4,7.6L2.4,7.6L2.4,6.6L1.9,6.6L1.9,5.4L2.4,5.4L2.4,4.9L12.1,4.9L12.1,5.9L13.5,5.9L13.5,6.1L11.9,6.1L11.9,5.1L2.6,5.1L2.6,5.6L2.1,5.6L2.1,6.4L2.6,6.4L2.6,7.4L3.6,7.4L3.6,23.4L5.9,23.4L5.9,22.9L6.9,22.9L6.9,22.4z" stroke="none"/><path d="M72,93.1L72,92.9L72.4,92.9L72.4,92.4L72.9,92.4L72.9,91.9L83.6,91.9L83.6,92.4L88.9,92.4L88.9,91.9L89.9,91.9L89.9,91.5L90.1,91.5L90.1,92.1L89.1,92.1L89.1,92.6L83.4,92.6L83.4,92.1L73.1,92.1L73.1,92.6L72.6,92.6L72.6,93.1z" stroke="none"/><path d="M15,27.1L15,26.9L30.1,26.9L30.1,27.4L33.1,27.4L33.1,28.5L32.9,28.5L32.9,27.6L29.9,27.6L29.9,27.1z" stroke="none"/><path d="M16.6,13.5L16.4,13.5L16.4,1.9L26.6,1.9L26.6,2.4L27.6,2.4L27.6,2.9L29.1,2.9L29.1,4.4L29.6,4.4L29.6,4.9L30.6,4.9L30.6,5.4L31.1,5.4L31.1,8.9L32.1,8.9L32.1,9.4L35.1,9.4L35.1,9.9L35.6,9.9L35.6,20.1L35.1,20.1L35.1,20.6L34.1,20.6L34.1,21.6L33.6,21.6L33.6,22.1L33.1,22.1L33.1,22.5L32.9,22.5L32.9,21.9L33.4,21.9L33.4,21.4L33.9,21.4L33.9,20.4L34.9,20.4L34.9,19.9L35.4,19.9L35.4,10.1L34.9,10.1L34.9,9.6L31.9,9.6L31.9,9.1L30.9,9.1L30.9,5.6L30.4,5.6L30.4,5.1L29.4,5.1L29.4,4.6L28.9,4.6L28.9,3.1L27.4,3.1L27.4,2.6L26.4,2.6L26.4,2.1L16.6,2.1z" stroke="none"/><path d="M91.5,65.9L91.5,66.1L84.9,66.1L84.9,65.6L82.9,65.6L82.9,65.1L81.9,65.1L81.9,64.1L80.9,64.1L80.9,63.1L80.4,63.1L80.4,62.6L78.4,62.6L78.4,62.1L75.4,62.1L75.4,61.6L74.9,61.6L74.9,60.1L73.5,60.1L73.5,59.9L75.1,59.9L75.1,61.4L75.6,61.4L75.6,61.9L78.6,61.9L78.6,62.4L80.6,62.4L80.6,62.9L81.1,62.9L81.1,63.9L82.1,63.9L82.1,64.9L83.1,64.9L83.1,65.4L85.1,65.4L85.1,65.9z" stroke="none"/><path d="M39,31.4L39,31.6L36.9,31.6L36.9,29.6L36.4,29.6L36.4,29.1L35.9,29.1L35.9,28.1L35.4,28.1L35.4,27.6L33.4,27.6L33.4,27.1L31.4,27.1L31.4,26.6L21.4,26.6L21.4,26.1L20.9,26.1L20.9,25.5L21.1,25.5L21.1,25.9L21.6,25.9L21.6,26.4L31.6,26.4L31.6,26.9L33.6,26.9L33.6,27.4L35.6,27.4L35.6,27.9L36.1,27.9L36.1,28.9L36.6,28.9L36.6,29.4L37.1,29.4L37.1,31.4z" stroke="none"/><path d="M22.4,97.5L22.6,97.5L22.6,98.1L21.1,98.1L21.1,98.6L18.9,98.6L18.9,98.1L18.4,98.1L18.4,96.1L17.9,96.1L17.9,94.6L16.9,94.6L16.9,93.6L15.4,93.6L15.4,93.1L14.4,93.1L14.4,91.1L12.4,91.1L12.4,90.6L11.4,90.6L11.4,89.6L10.4,89.6L10.4,88.6L8.9,88.6L8.9,87.1L6,87.1L6,86.9L9.1,86.9L9.1,88.4L10.6,88.4L10.6,89.4L11.6,89.4L11.6,90.4L12.6,90.4L12.6,90.9L14.6,90.9L14.6,92.9L15.6,92.9L15.6,93.4L17.1,93.4L17.1,94.4L18.1,94.4L18.1,95.9L18.6,95.9L18.6,97.9L19.1,97.9L19.1,98.4L20.9,98.4L20.9,97.9L22.4,97.9z" stroke="none"/><path d="M64.5,31.4L64.5,31.6L63.9,31.6L63.9,30.6L62.6,30.6L62.6,31.1L62.1,31.1L62.1,33.1L61.6,33.1L61.6,33.6L61.1,33.6L61.1,35.1L60.6,35.1L60.6,35.6L59.6,35.6L59.6,36.1L58.6,36.1L58.6,36.6L57.6,36.6L57.6,37.6L57.1,37.6L57.1,38.1L56.6,38.1L56.6,39.1L55.1,39.1L55.1,39.6L54.1,39.6L54.1,40.6L53.6,40.6L53.6,41.1L53.1,41.1L53.1,41.6L49.9,41.6L49.9,41.1L49.4,41.1L49.4,40.6L48.9,40.6L48.9,39.1L48.4,39.1L48.4,38.1L47.9,38.1L47.9,36.1L47.4,36.1L47.4,35.6L46.9,35.6L46.9,34.6L46.4,34.6L46.4,33.6L45.9,33.6L45.9,31.6L44.9,31.6L44.9,30L45.1,30L45.1,31.4L46.1,31.4L46.1,33.4L46.6,33.4L46.6,34.4L47.1,34.4L47.1,35.4L47.6,35.4L47.6,35.9L48.1,35.9L48.1,37.9L48.6,37.9L48.6,38.9L49.1,38.9L49.1,40.4L49.6,40.4L49.6,40.9L50.1,40.9L50.1,41.4L52.9,41.4L52.9,40.9L53.4,40.9L53.4,40.4L53.9,40.4L53.9,39.4L54.9,39.4L54.9,38.9L56.4,38.9L56.4,37.9L56.9,37.9L56.9,37.4L57.4,37.4L57.4,36.4L58.4,36.4L58.4,35.9L59.4,35.9L59.4,35.4L60.4,35.4L60.4,34.9L60.9,34.9L60.9,33.4L61.4,33.4L61.4,32.9L61.9,32.9L61.9,30.9L62.4,30.9L62.4,30.4L64.1,30.4L64.1,31.4z" stroke="none"/><path d="M102.1,102L101.9,102L101.9,98.1L100.4,98.1L100.4,97.6L98.9,97.6L98.9,94.1L97.9,94.1L97.9,93.6L96.4,93.6L96.4,92.1L92.4,92.1L92.4,91.6L91.4,91.6L91.4,91.1L90.9,91.1L90.9,90.6L87.1,90.6L87.1,91.1L86.1,91.1L86.1,91.6L85.5,91.6L85.5,91.4L85.9,91.4L85.9,90.9L86.9,90.9L86.9,90.4L91.1,90.4L91.1,90.9L91.6,90.9L91.6,91.4L92.6,91.4L92.6,91.9L96.6,91.9L96.6,93.4L98.1,93.4L98.1,93.9L99.1,93.9L99.1,97.4L100.6,97.4L100.6,97.9L102.1,97.9z" stroke="none"/><path d="M50.9,48L51.1,48L51.1,51.4L51.6,51.4L51.6,53.4L52.1,53.4L52.1,53.9L52.6,53.9L52.6,54.4L54.1,54.4L54.1,54.9L54.6,54.9L54.6,55.4L55.1,55.4L55.1,59.1L54.6,59.1L54.6,59.6L44.9,59.6L44.9,59.1L44.4,59.1L44.4,57.6L43.9,57.6L43.9,57.1L43.4,57.1L43.4,54.6L41.6,54.6L41.6,55.1L41.1,55.1L41.1,60.1L40.6,60.1L40.6,62.6L38.1,62.6L38.1,63.1L37.5,63.1L37.5,62.9L37.9,62.9L37.9,62.4L40.4,62.4L40.4,59.9L40.9,59.9L40.9,54.9L41.4,54.9L41.4,54.4L43.6,54.4L43.6,56.9L44.1,56.9L44.1,57.4L44.6,57.4L44.6,58.9L45.1,58.9L45.1,59.4L54.4,59.4L54.4,58.9L54.9,58.9L54.9,55.6L54.4,55.6L54.4,55.1L53.9,55.1L53.9,54.6L52.4,54.6L52.4,54.1L51.9,54.1L51.9,53.6L51.4,53.6L51.4,51.6L50.9,51.6z" stroke="none"/><path d="M56.9,4.5L57.1,4.5L57.1,14.9L57.6,14.9L57.6,15.4L58.1,15.4L58.1,16.4L59.6,16.4L59.6,16.9L60.6,16.9L60.6,17.9L61.6,17.9L61.6,18.4L62.1,18.4L62.1,24.6L61.1,24.6L61.1,25.1L60.1,25.1L60.1,25.6L59.6,25.6L59.6,26.1L59.1,26.1L59.1,26.6L58.6,26.6L58.6,27.1L57.1,27.1L57.1,28.1L56.6,28.1L56.6,29.6L54.9,29.6L54.9,29.1L54.4,29.1L54.4,26.1L52.9,26.1L52.9,25.1L51.9,25.1L51.9,24.6L50.9,24.6L50.9,24L51.1,24L51.1,24.4L52.1,24.4L52.1,24.9L53.1,24.9L53.1,25.9L54.6,25.9L54.6,28.9L55.1,28.9L55.1,29.4L56.4,29.4L56.4,27.9L56.9,27.9L56.9,26.9L58.4,26.9L58.4,26.4L58.9,26.4L58.9,25.9L59.4,25.9L59.4,25.4L59.9,25.4L59.9,24.9L60.9,24.9L60.9,24.4L61.9,24.4L61.9,18.6L61.4,18.6L61.4,18.1L60.4,18.1L60.4,17.1L59.4,17.1L59.4,16.6L57.9,16.6L57.9,15.6L57.4,15.6L57.4,15.1L56.9,15.1z" stroke="none"/><path d="M13.4,64.5L13.6,64.5L13.6,65.6L12.6,65.6L12.6,66.1L11.6,66.1L11.6,67.1L11.1,67.1L11.1,68.1L10.6,68.1L10.6,69.1L9.6,69.1L9.6,69.6L9.1,69.6L9.1,70.6L8.6,70.6L8.6,71.6L8.1,71.6L8.1,81.6L6.6,81.6L6.6,83.4L9.6,83.4L9.6,84.4L10.1,84.4L10.1,84.9L11.1,84.9L11.1,85.4L19.4,85.4L19.4,84.9L20.4,84.9L20.4,84.4L20.9,84.4L20.9,83.4L21.4,83.4L21.4,82.9L21.9,82.9L21.9,81.9L22.4,81.9L22.4,81.4L25.4,81.4L25.4,81L25.6,81L25.6,81.6L22.6,81.6L22.6,82.1L22.1,82.1L22.1,83.1L21.6,83.1L21.6,83.6L21.1,83.6L21.1,84.6L20.6,84.6L20.6,85.1L19.6,85.1L19.6,85.6L10.9,85.6L10.9,85.1L9.9,85.1L9.9,84.6L9.4,84.6L9.4,83.6L6.4,83.6L6.4,81.4L7.9,81.4L7.9,71.4L8.4,71.4L8.4,70.4L8.9,70.4L8.9,69.4L9.4,69.4L9.4,68.9L10.4,68.9L10.4,67.9L10.9,67.9L10.9,66.9L11.4,66.9L11.4,65.9L12.4,65.9L12.4,65.4L13.4,65.4z" stroke="none"/><path d="M64.5,93.1L64.5,92.9L67.4,92.9L67.4,92.4L68.4,92.4L68.4,91.9L70.1,91.9L70.1,98.9L72.1,98.9L72.1,101.9L72.6,101.9L72.6,102.4L73.1,102.4L73.1,102.9L78.4,102.9L78.4,102.4L78.9,102.4L78.9,101.9L79.4,101.9L79.4,101.4L81.9,101.4L81.9,100.9L83.4,100.9L83.4,100.4L84,100.4L84,100.6L83.6,100.6L83.6,101.1L82.1,101.1L82.1,101.6L79.6,101.6L79.6,102.1L79.1,102.1L79.1,102.6L78.6,102.6L78.6,103.1L72.9,103.1L72.9,102.6L72.4,102.6L72.4,102.1L71.9,102.1L71.9,99.1L69.9,99.1L69.9,92.1L68.6,92.1L68.6,92.6L67.6,92.6L67.6,93.1z" stroke="none"/><path d="M4.4,67.5L4.6,67.5L4.6,88.4L7.5,88.4L7.5,88.6L4.4,88.6z" stroke="none"/><path d="M91.4,34.5L91.6,34.5L91.6,42.4L92.6,42.4L92.6,42.9L94.1,42.9L94.1,43.4L95.1,43.4L95.1,44.4L95.6,44.4L95.6,45.4L96.6,45.4L96.6,45.9L97.6,45.9L97.6,47.4L98.6,47.4L98.6,47.9L100.6,47.9L100.6,54L100.4,54L100.4,48.1L98.4,48.1L98.4,47.6L97.4,47.6L97.4,46.1L96.4,46.1L96.4,45.6L95.4,45.6L95.4,44.6L94.9,44.6L94.9,43.6L93.9,43.6L93.9,43.1L92.4,43.1L92.4,42.6L91.4,42.6z" stroke="none"/><path d="M33,51.1L33,50.9L35.1,50.9L35.1,51.4L35.6,51.4L35.6,51.9L37.1,51.9L37.1,52.4L39.6,52.4L39.6,52.9L43.6,52.9L43.6,53.4L44.1,53.4L44.1,53.9L45.1,53.9L45.1,54.4L46.6,54.4L46.6,54.9L48.1,54.9L48.1,55.9L48.6,55.9L48.6,56.4L49.6,56.4L49.6,56.9L52.6,56.9L52.6,57.4L53.6,57.4L53.6,57.9L54.1,57.9L54.1,58.5L53.9,58.5L53.9,58.1L53.4,58.1L53.4,57.6L52.4,57.6L52.4,57.1L49.4,57.1L49.4,56.6L48.4,56.6L48.4,56.1L47.9,56.1L47.9,55.1L46.4,55.1L46.4,54.6L44.9,54.6L44.9,54.1L43.9,54.1L43.9,53.6L43.4,53.6L43.4,53.1L39.4,53.1L39.4,52.6L36.9,52.6L36.9,52.1L35.4,52.1L35.4,51.6L34.9,51.6L34.9,51.1z" stroke="none"/><path d="M84,91.4L84,91.6L77.4,91.6L77.4,91.1L73.9,91.1L73.9,88.9L74.4,88.9L74.4,87.9L74.9,87.9L74.9,87.4L75.9,87.4L75.9,86.9L76.4,86.9L76.4,85.9L76.9,85.9L76.9,84.4L77.4,84.4L77.4,83.1L70.4,83.1L70.4,82.6L69.9,82.6L69.9,82.1L67.9,82.1L67.9,75.4L68.9,75.4L68.9,75L69.1,75L69.1,75.6L68.1,75.6L68.1,81.9L70.1,81.9L70.1,82.4L70.6,82.4L70.6,82.9L77.6,82.9L77.6,84.6L77.1,84.6L77.1,86.1L76.6,86.1L76.6,87.1L76.1,87.1L76.1,87.6L75.1,87.6L75.1,88.1L74.6,88.1L74.6,89.1L74.1,89.1L74.1,90.9L77.6,90.9L77.6,91.4z" stroke="none"/><path d="M64.6,58.5L64.4,58.5L64.4,36L64.6,36z" stroke="none"/><path d="M6.1,100.5L5.9,100.5L5.9,99.1L5.4,99.1L5.4,94.1L4.9,94.1L4.9,89.6L4.4,89.6L4.4,89.1L3.9,89.1L3.9,68.1L3.4,68.1L3.4,66.4L7.9,66.4L7.9,65.9L8.9,65.9L8.9,65.4L10.4,65.4L10.4,64.9L11.9,64.9L11.9,64.4L12.4,64.4L12.4,63.9L12.9,63.9L12.9,63.4L14.1,63.4L14.1,63.9L14.6,63.9L14.6,64.4L15.1,64.4L15.1,65.9L16.1,65.9L16.1,77.1L15.6,77.1L15.6,79.6L15,79.6L15,79.4L15.4,79.4L15.4,76.9L15.9,76.9L15.9,66.1L14.9,66.1L14.9,64.6L14.4,64.6L14.4,64.1L13.9,64.1L13.9,63.6L13.1,63.6L13.1,64.1L12.6,64.1L12.6,64.6L12.1,64.6L12.1,65.1L10.6,65.1L10.6,65.6L9.1,65.6L9.1,66.1L8.1,66.1L8.1,66.6L3.6,66.6L3.6,67.9L4.1,67.9L4.1,88.9L4.6,88.9L4.6,89.4L5.1,89.4L5.1,93.9L5.6,93.9L5.6,98.9L6.1,98.9z" stroke="none"/><path d="M85.5,71.9L85.5,72.1L84.4,72.1L84.4,71.6L83.4,71.6L83.4,71.1L82.9,71.1L82.9,69.4L85.1,69.4L85.1,69.9L86.6,69.9L86.6,70.4L87.1,70.4L87.1,76.1L86.6,76.1L86.6,76.6L81.9,76.6L81.9,76.1L79.9,76.1L79.9,75.6L69.9,75.6L69.9,74.1L68.6,74.1L68.6,74.6L67.6,74.6L67.6,80.1L65.6,80.1L65.6,80.6L64.6,80.6L64.6,81L64.4,81L64.4,80.4L65.4,80.4L65.4,79.9L67.4,79.9L67.4,74.4L68.4,74.4L68.4,73.9L70.1,73.9L70.1,75.4L80.1,75.4L80.1,75.9L82.1,75.9L82.1,76.4L86.4,76.4L86.4,75.9L86.9,75.9L86.9,70.6L86.4,70.6L86.4,70.1L84.9,70.1L84.9,69.6L83.1,69.6L83.1,70.9L83.6,70.9L83.6,71.4L84.6,71.4L84.6,71.9z" stroke="none"/><path d="M63,4.4L63,4.6L59.9,4.6L59.9,4.1L58.9,4.1L58.9,3.6L53.1,3.6L53.1,4.1L52.6,4.1L52.6,5.1L52.1,5.1L52.1,7.1L50.6,7.1L50.6,8.1L48.6,8.1L48.6,8.6L48.1,8.6L48.1,9.1L47.1,9.1L47.1,9.6L46.6,9.6L46.6,10.1L45.1,10.1L45.1,10.6L44.6,10.6L44.6,12.1L41.6,12.1L41.6,13.1L41.1,13.1L41.1,13.6L40.1,13.6L40.1,14.6L38.1,14.6L38.1,15.1L37.6,15.1L37.6,15.6L37.1,15.6L37.1,16.1L36.6,16.1L36.6,22.4L37.6,22.4L37.6,23.4L38.1,23.4L38.1,23.9L38.6,23.9L38.6,24.9L39.1,24.9L39.1,25.9L40.6,25.9L40.6,26.4L41.1,26.4L41.1,34.9L41.6,34.9L41.6,35.4L43.1,35.4L43.1,37.4L44.1,37.4L44.1,38.4L46.1,38.4L46.1,38.9L47.6,38.9L47.6,39.4L48.1,39.4L48.1,40.4L48.6,40.4L48.6,41.4L49.6,41.4L49.6,41.9L59.1,41.9L59.1,42.4L59.6,42.4L59.6,43.9L60.1,43.9L60.1,44.4L62.9,44.4L62.9,43.9L63.4,43.9L63.4,34.4L64.4,34.4L64.4,32.4L64.9,32.4L64.9,31.9L65.4,31.9L65.4,30.6L64.9,30.6L64.9,30.1L53.9,30.1L53.9,26.6L51.4,26.6L51.4,25.6L51,25.6L51,25.4L51.6,25.4L51.6,26.4L54.1,26.4L54.1,29.9L65.1,29.9L65.1,30.4L65.6,30.4L65.6,32.1L65.1,32.1L65.1,32.6L64.6,32.6L64.6,34.6L63.6,34.6L63.6,44.1L63.1,44.1L63.1,44.6L59.9,44.6L59.9,44.1L59.4,44.1L59.4,42.6L58.9,42.6L58.9,42.1L49.4,42.1L49.4,41.6L48.4,41.6L48.4,40.6L47.9,40.6L47.9,39.6L47.4,39.6L47.4,39.1L45.9,39.1L45.9,38.6L43.9,38.6L43.9,37.6L42.9,37.6L42.9,35.6L41.4,35.6L41.4,35.1L40.9,35.1L40.9,26.6L40.4,26.6L40.4,26.1L38.9,26.1L38.9,25.1L38.4,25.1L38.4,24.1L37.9,24.1L37.9,23.6L37.4,23.6L37.4,22.6L36.4,22.6L36.4,15.9L36.9,15.9L36.9,15.4L37.4,15.4L37.4,14.9L37.9,14.9L37.9,14.4L39.9,14.4L39.9,13.4L40.9,13.4L40.9,12.9L41.4,12.9L41.4,11.9L44.4,11.9L44.4,10.4L44.9,10.4L44.9,9.9L46.4,9.9L46.4,9.4L46.9,9.4L46.9,8.9L47.9,8.9L47.9,8.4L48.4,8.4L48.4,7.9L50.4,7.9L50.4,6.9L51.9,6.9L51.9,4.9L52.4,4.9L52.4,3.9L52.9,3.9L52.9,3.4L59.1,3.4L59.1,3.9L60.1,3.9L60.1,4.4z" stroke="none"/><path d="M62.9,46.5L63.1,46.5L63.1,58.9L63.6,58.9L63.6,59.4L64.9,59.4L64.9,58.9L65.4,58.9L65.4,32.4L65.9,32.4L65.9,29.6L65.4,29.6L65.4,29.1L64.4,29.1L64.4,28.6L63.9,28.6L63.9,28.1L63.4,28.1L63.4,26.6L62.9,26.6L62.9,23.9L75.1,23.9L75.1,24.4L76.1,24.4L76.1,25.4L76.5,25.4L76.5,25.6L75.9,25.6L75.9,24.6L74.9,24.6L74.9,24.1L63.1,24.1L63.1,26.4L63.6,26.4L63.6,27.9L64.1,27.9L64.1,28.4L64.6,28.4L64.6,28.9L65.6,28.9L65.6,29.4L66.1,29.4L66.1,32.6L65.6,32.6L65.6,59.1L65.1,59.1L65.1,59.6L63.4,59.6L63.4,59.1L62.9,59.1z" stroke="none"/><path d="M43.5,42.1L43.5,41.9L45.6,41.9L45.6,42.4L46.1,42.4L46.1,43.9L46.6,43.9L46.6,44.4L47.6,44.4L47.6,44.9L48.1,44.9L48.1,45.4L48.6,45.4L48.6,45.9L49.6,45.9L49.6,46.4L51.1,46.4L51.1,46.9L51.6,46.9L51.6,47.4L52.1,47.4L52.1,51.9L53.1,51.9L53.1,52.4L54.1,52.4L54.1,53.4L54.6,53.4L54.6,53.9L55.1,53.9L55.1,54.9L55.6,54.9L55.6,62.6L54.6,62.6L54.6,63.1L54.1,63.1L54.1,65.1L53.6,65.1L53.6,65.6L53.1,65.6L53.1,66.1L52.5,66.1L52.5,65.9L52.9,65.9L52.9,65.4L53.4,65.4L53.4,64.9L53.9,64.9L53.9,62.9L54.4,62.9L54.4,62.4L55.4,62.4L55.4,55.1L54.9,55.1L54.9,54.1L54.4,54.1L54.4,53.6L53.9,53.6L53.9,52.6L52.9,52.6L52.9,52.1L51.9,52.1L51.9,47.6L51.4,47.6L51.4,47.1L50.9,47.1L50.9,46.6L49.4,46.6L49.4,46.1L48.4,46.1L48.4,45.6L47.9,45.6L47.9,45.1L47.4,45.1L47.4,44.6L46.4,44.6L46.4,44.1L45.9,44.1L45.9,42.6L45.4,42.6L45.4,42.1z" stroke="none"/><path d="M30,78.1L30,77.9L32.1,77.9L32.1,78.9L41.9,78.9L41.9,78.4L42.4,78.4L42.4,77.4L42.9,77.4L42.9,75.9L43.4,75.9L43.4,74.9L44.4,74.9L44.4,74.4L45.4,74.4L45.4,73.9L45.9,73.9L45.9,64.4L46.4,64.4L46.4,63.9L46.9,63.9L46.9,62.9L47.4,62.9L47.4,62.4L49.4,62.4L49.4,61.4L51.4,61.4L51.4,60.9L51.9,60.9L51.9,60.4L53.1,60.4L53.1,60.9L53.6,60.9L53.6,64.6L52.5,64.6L52.5,64.4L53.4,64.4L53.4,61.1L52.9,61.1L52.9,60.6L52.1,60.6L52.1,61.1L51.6,61.1L51.6,61.6L49.6,61.6L49.6,62.6L47.6,62.6L47.6,63.1L47.1,63.1L47.1,64.1L46.6,64.1L46.6,64.6L46.1,64.6L46.1,74.1L45.6,74.1L45.6,74.6L44.6,74.6L44.6,75.1L43.6,75.1L43.6,76.1L43.1,76.1L43.1,77.6L42.6,77.6L42.6,78.6L42.1,78.6L42.1,79.1L31.9,79.1L31.9,78.1z" stroke="none"/><path d="M27,19.4L27,19.6L17.4,19.6L17.4,19.1L16.9,19.1L16.9,18.6L15.6,18.6L15.6,19.9L16.1,19.9L16.1,20.4L17.1,20.4L17.1,20.9L18.6,20.9L18.6,21.4L20.1,21.4L20.1,21.9L20.6,21.9L20.6,23.6L7.1,23.6L7.1,24.1L5.1,24.1L5.1,24.6L4.6,24.6L4.6,34.5L4.4,34.5L4.4,24.4L4.9,24.4L4.9,23.9L6.9,23.9L6.9,23.4L20.4,23.4L20.4,22.1L19.9,22.1L19.9,21.6L18.4,21.6L18.4,21.1L16.9,21.1L16.9,20.6L15.9,20.6L15.9,20.1L15.4,20.1L15.4,18.4L17.1,18.4L17.1,18.9L17.6,18.9L17.6,19.4z" stroke="none"/><path d="M99.1,87L98.9,87L98.9,85.6L97.9,85.6L97.9,84.6L96.4,84.6L96.4,81.4L99.1,81.4L99.1,82.9L99.6,82.9L99.6,83.4L100.1,83.4L100.1,84.4L101.1,84.4L101.1,84.9L102.1,84.9L102.1,95.9L102.6,95.9L102.6,99.9L103.1,99.9L103.1,102.6L102.6,102.6L102.6,103.1L101.4,103.1L101.4,102.6L100.9,102.6L100.9,99.6L98.9,99.6L98.9,98.1L98.4,98.1L98.4,96.6L97.4,96.6L97.4,96.1L96.9,96.1L96.9,95.6L96.4,95.6L96.4,95.1L90.1,95.1L90.1,95.6L89.1,95.6L89.1,96.1L87.6,96.1L87.6,96.6L86.1,96.6L86.1,97.1L85.1,97.1L85.1,98.6L84.6,98.6L84.6,99.1L83.1,99.1L83.1,100.1L80.6,100.1L80.6,100.6L80.1,100.6L80.1,101.1L78.1,101.1L78.1,101.6L77.6,101.6L77.6,102.1L76.5,102.1L76.5,101.9L77.4,101.9L77.4,101.4L77.9,101.4L77.9,100.9L79.9,100.9L79.9,100.4L80.4,100.4L80.4,99.9L82.9,99.9L82.9,98.9L84.4,98.9L84.4,98.4L84.9,98.4L84.9,96.9L85.9,96.9L85.9,96.4L87.4,96.4L87.4,95.9L88.9,95.9L88.9,95.4L89.9,95.4L89.9,94.9L96.6,94.9L96.6,95.4L97.1,95.4L97.1,95.9L97.6,95.9L97.6,96.4L98.6,96.4L98.6,97.9L99.1,97.9L99.1,99.4L101.1,99.4L101.1,102.4L101.6,102.4L101.6,102.9L102.4,102.9L102.4,102.4L102.9,102.4L102.9,100.1L102.4,100.1L102.4,96.1L101.9,96.1L101.9,85.1L100.9,85.1L100.9,84.6L99.9,84.6L99.9,83.6L99.4,83.6L99.4,83.1L98.9,83.1L98.9,81.6L96.6,81.6L96.6,84.4L98.1,84.4L98.1,85.4L99.1,85.4z" stroke="none"/><path d="M88.5,55.6L88.5,55.4L98.6,55.4L98.6,55.9L99.1,55.9L99.1,56.4L100.1,56.4L100.1,57.9L102.4,57.9L102.4,57.4L102.9,57.4L102.9,32.6L102.4,32.6L102.4,32.1L101.9,32.1L101.9,31.5L102.1,31.5L102.1,31.9L102.6,31.9L102.6,32.4L103.1,32.4L103.1,57.6L102.6,57.6L102.6,58.1L99.9,58.1L99.9,56.6L98.9,56.6L98.9,56.1L98.4,56.1L98.4,55.6z" stroke="none"/><path d="M18,43.4L18,43.6L7.1,43.6L7.1,44.1L6.6,44.1L6.6,44.6L5.1,44.6L5.1,46.1L4.6,46.1L4.6,47.1L3.6,47.1L3.6,48.1L3.1,48.1L3.1,51.1L2.6,51.1L2.6,51.6L2.1,51.6L2.1,55.9L2.6,55.9L2.6,58.9L3.6,58.9L3.6,60.4L4.1,60.4L4.1,61.4L16.6,61.4L16.6,67.9L17.1,67.9L17.1,69.4L21.1,69.4L21.1,69.9L23.6,69.9L23.6,70.4L25.5,70.4L25.5,70.6L23.4,70.6L23.4,70.1L20.9,70.1L20.9,69.6L16.9,69.6L16.9,68.1L16.4,68.1L16.4,61.6L3.9,61.6L3.9,60.6L3.4,60.6L3.4,59.1L2.4,59.1L2.4,56.1L1.9,56.1L1.9,51.4L2.4,51.4L2.4,50.9L2.9,50.9L2.9,47.9L3.4,47.9L3.4,46.9L4.4,46.9L4.4,45.9L4.9,45.9L4.9,44.4L6.4,44.4L6.4,43.9L6.9,43.9L6.9,43.4z" stroke="none"/><path d="M34.4,63L34.6,63L34.6,72.6L34.1,72.6L34.1,73.1L33.6,73.1L33.6,75.1L33.1,75.1L33.1,75.6L29.6,75.6L29.6,77.6L29.1,77.6L29.1,100.6L28.1,100.6L28.1,101.1L27.6,101.1L27.6,101.6L5.4,101.6L5.4,101.1L4.9,101.1L4.9,95.1L4.4,95.1L4.4,93.1L3.9,93.1L3.9,90.1L3.4,90.1L3.4,68.6L2.9,68.6L2.9,65.4L3.9,65.4L3.9,63.4L4.4,63.4L4.4,63L4.6,63L4.6,63.6L4.1,63.6L4.1,65.6L3.1,65.6L3.1,68.4L3.6,68.4L3.6,89.9L4.1,89.9L4.1,92.9L4.6,92.9L4.6,94.9L5.1,94.9L5.1,100.9L5.6,100.9L5.6,101.4L27.4,101.4L27.4,100.9L27.9,100.9L27.9,100.4L28.9,100.4L28.9,77.4L29.4,77.4L29.4,75.4L32.9,75.4L32.9,74.9L33.4,74.9L33.4,72.9L33.9,72.9L33.9,72.4L34.4,72.4z" stroke="none"/><path d="M12.1,12L11.9,12L11.9,7.4L12.4,7.4L12.4,6.9L13.9,6.9L13.9,6.4L14.4,6.4L14.4,5.1L13.4,5.1L13.4,4.6L2.1,4.6L2.1,5.1L1.6,5.1L1.6,35.4L2.1,35.4L2.1,36.9L3.6,36.9L3.6,37.4L4.1,37.4L4.1,37.9L4.6,37.9L4.6,38.4L5.1,38.4L5.1,38.9L6.1,38.9L6.1,39.4L6.6,39.4L6.6,40.9L17.6,40.9L17.6,41.9L18.1,41.9L18.1,42.4L18.6,42.4L18.6,42.9L19.1,42.9L19.1,55.4L23.4,55.4L23.4,54.9L23.9,54.9L23.9,53.4L24.4,53.4L24.4,52.4L24.9,52.4L24.9,50.4L25.9,50.4L25.9,49.4L26.9,49.4L26.9,48.4L27.4,48.4L27.4,43.9L27.9,43.9L27.9,42.6L25.9,42.6L25.9,41.1L24.4,41.1L24.4,40.6L24,40.6L24,40.4L24.6,40.4L24.6,40.9L26.1,40.9L26.1,42.4L28.1,42.4L28.1,44.1L27.6,44.1L27.6,48.6L27.1,48.6L27.1,49.6L26.1,49.6L26.1,50.6L25.1,50.6L25.1,52.6L24.6,52.6L24.6,53.6L24.1,53.6L24.1,55.1L23.6,55.1L23.6,55.6L18.9,55.6L18.9,43.1L18.4,43.1L18.4,42.6L17.9,42.6L17.9,42.1L17.4,42.1L17.4,41.1L6.4,41.1L6.4,39.6L5.9,39.6L5.9,39.1L4.9,39.1L4.9,38.6L4.4,38.6L4.4,38.1L3.9,38.1L3.9,37.6L3.4,37.6L3.4,37.1L1.9,37.1L1.9,35.6L1.4,35.6L1.4,4.9L1.9,4.9L1.9,4.4L13.6,4.4L13.6,4.9L14.6,4.9L14.6,6.6L14.1,6.6L14.1,7.1L12.6,7.1L12.6,7.6L12.1,7.6z" stroke="none"/><path d="M10.5,12.1L10.5,11.9L11.1,11.9L11.1,12.4L11.6,12.4L11.6,12.9L12.4,12.9L12.4,12.4L12.9,12.4L12.9,8.9L13.9,8.9L13.9,7.9L14.4,7.9L14.4,7.4L14.9,7.4L14.9,2.9L15.9,2.9L15.9,1.4L28.6,1.4L28.6,1.9L29.6,1.9L29.6,3.4L30.1,3.4L30.1,3.9L31.1,3.9L31.1,4.4L31.6,4.4L31.6,4.9L32.1,4.9L32.1,5.4L32.6,5.4L32.6,5.9L33.1,5.9L33.1,7.4L33.6,7.4L33.6,7.9L34.1,7.9L34.1,8.4L35.1,8.4L35.1,8.9L36.1,8.9L36.1,27.4L38.1,27.4L38.1,28.9L39.1,28.9L39.1,29.9L39.6,29.9L39.6,30.4L40.1,30.4L40.1,32.6L36.9,32.6L36.9,32.1L35.9,32.1L35.9,31.5L36.1,31.5L36.1,31.9L37.1,31.9L37.1,32.4L39.9,32.4L39.9,30.6L39.4,30.6L39.4,30.1L38.9,30.1L38.9,29.1L37.9,29.1L37.9,27.6L35.9,27.6L35.9,9.1L34.9,9.1L34.9,8.6L33.9,8.6L33.9,8.1L33.4,8.1L33.4,7.6L32.9,7.6L32.9,6.1L32.4,6.1L32.4,5.6L31.9,5.6L31.9,5.1L31.4,5.1L31.4,4.6L30.9,4.6L30.9,4.1L29.9,4.1L29.9,3.6L29.4,3.6L29.4,2.1L28.4,2.1L28.4,1.6L16.1,1.6L16.1,3.1L15.1,3.1L15.1,7.6L14.6,7.6L14.6,8.1L14.1,8.1L14.1,9.1L13.1,9.1L13.1,12.6L12.6,12.6L12.6,13.1L11.4,13.1L11.4,12.6L10.9,12.6L10.9,12.1z" stroke="none"/><path d="M78,54.1L78,53.9L78.6,53.9L78.6,54.4L79.1,54.4L79.1,54.9L80.6,54.9L80.6,56.9L81.6,56.9L81.6,57.4L82.6,57.4L82.6,57.9L83.6,57.9L83.6,59.4L85.1,59.4L85.1,60.4L86.6,60.4L86.6,60.9L87.1,60.9L87.1,61.4L87.6,61.4L87.6,61.9L88.1,61.9L88.1,62.4L88.9,62.4L88.9,61.9L89.4,61.9L89.4,60.4L89.9,60.4L89.9,59.9L90.4,59.9L90.4,59.4L91.9,59.4L91.9,58.9L102.6,58.9L102.6,60.4L103.1,60.4L103.1,95.9L103.6,95.9L103.6,103.6L61.9,103.6L61.9,101.6L60.4,101.6L60.4,101.1L58.9,101.1L58.9,100.6L57.9,100.6L57.9,100.1L57.4,100.1L57.4,99.6L56.9,99.6L56.9,99.1L56.4,99.1L56.4,98.6L55.9,98.6L55.9,98.1L55.4,98.1L55.4,97.6L54.4,97.6L54.4,97.1L53.4,97.1L53.4,96.6L52.9,96.6L52.9,96.1L52.4,96.1L52.4,95.1L51.4,95.1L51.4,94.6L50.9,94.6L50.9,94.1L50.4,94.1L50.4,93.6L49.9,93.6L49.9,92.6L48.9,92.6L48.9,92.1L48.4,92.1L48.4,90.4L50.9,90.4L50.9,89.4L51.4,89.4L51.4,88.9L52.4,88.9L52.4,88.4L53.9,88.4L53.9,87.9L54.4,87.9L54.4,87.4L54.9,87.4L54.9,86.9L55.4,86.9L55.4,85.4L56.4,85.4L56.4,84.4L56.9,84.4L56.9,84L57.1,84L57.1,84.6L56.6,84.6L56.6,85.6L55.6,85.6L55.6,87.1L55.1,87.1L55.1,87.6L54.6,87.6L54.6,88.1L54.1,88.1L54.1,88.6L52.6,88.6L52.6,89.1L51.6,89.1L51.6,89.6L51.1,89.6L51.1,90.6L48.6,90.6L48.6,91.9L49.1,91.9L49.1,92.4L50.1,92.4L50.1,93.4L50.6,93.4L50.6,93.9L51.1,93.9L51.1,94.4L51.6,94.4L51.6,94.9L52.6,94.9L52.6,95.9L53.1,95.9L53.1,96.4L53.6,96.4L53.6,96.9L54.6,96.9L54.6,97.4L55.6,97.4L55.6,97.9L56.1,97.9L56.1,98.4L56.6,98.4L56.6,98.9L57.1,98.9L57.1,99.4L57.6,99.4L57.6,99.9L58.1,99.9L58.1,100.4L59.1,100.4L59.1,100.9L60.6,100.9L60.6,101.4L62.1,101.4L62.1,103.4L103.4,103.4L103.4,96.1L102.9,96.1L102.9,60.6L102.4,60.6L102.4,59.1L92.1,59.1L92.1,59.6L90.6,59.6L90.6,60.1L90.1,60.1L90.1,60.6L89.6,60.6L89.6,62.1L89.1,62.1L89.1,62.6L87.9,62.6L87.9,62.1L87.4,62.1L87.4,61.6L86.9,61.6L86.9,61.1L86.4,61.1L86.4,60.6L84.9,60.6L84.9,59.6L83.4,59.6L83.4,58.1L82.4,58.1L82.4,57.6L81.4,57.6L81.4,57.1L80.4,57.1L80.4,55.1L78.9,55.1L78.9,54.6L78.4,54.6L78.4,54.1z" stroke="none"/><path d="M32.9,70.5L33.1,70.5L33.1,72.6L32.6,72.6L32.6,73.1L32.1,73.1L32.1,74.1L29.6,74.1L29.6,75.1L29.1,75.1L29.1,77.1L28.6,77.1L28.6,79.6L28.1,79.6L28.1,80.6L26.6,80.6L26.6,81.6L26.1,81.6L26.1,84.6L25.6,84.6L25.6,85.1L24.1,85.1L24.1,86.1L23.6,86.1L23.6,86.6L23.1,86.6L23.1,87.6L20.1,87.6L20.1,88.1L12.4,88.1L12.4,87.1L11.4,87.1L11.4,86.6L6.4,86.6L6.4,86.1L5.1,86.1L5.1,87.4L5.6,87.4L5.6,87.9L6.9,87.9L6.9,87.4L8.1,87.4L8.1,87.9L8.6,87.9L8.6,90.9L9.1,90.9L9.1,92.9L9.6,92.9L9.6,93.4L10.1,93.4L10.1,95.9L10.6,95.9L10.6,96.4L11.1,96.4L11.1,96.9L11.6,96.9L11.6,98.1L11.1,98.1L11.1,98.6L9.1,98.6L9.1,99L8.9,99L8.9,98.4L10.9,98.4L10.9,97.9L11.4,97.9L11.4,97.1L10.9,97.1L10.9,96.6L10.4,96.6L10.4,96.1L9.9,96.1L9.9,93.6L9.4,93.6L9.4,93.1L8.9,93.1L8.9,91.1L8.4,91.1L8.4,88.1L7.9,88.1L7.9,87.6L7.1,87.6L7.1,88.1L5.4,88.1L5.4,87.6L4.9,87.6L4.9,85.9L6.6,85.9L6.6,86.4L11.6,86.4L11.6,86.9L12.6,86.9L12.6,87.9L19.9,87.9L19.9,87.4L22.9,87.4L22.9,86.4L23.4,86.4L23.4,85.9L23.9,85.9L23.9,84.9L25.4,84.9L25.4,84.4L25.9,84.4L25.9,81.4L26.4,81.4L26.4,80.4L27.9,80.4L27.9,79.4L28.4,79.4L28.4,76.9L28.9,76.9L28.9,74.9L29.4,74.9L29.4,73.9L31.9,73.9L31.9,72.9L32.4,72.9L32.4,72.4L32.9,72.4z" stroke="none"/><path d="M64.4,70.5L64.6,70.5L64.6,71.1L62.6,71.1L62.6,71.6L62.1,71.6L62.1,72.1L59.6,72.1L59.6,73.1L59.1,73.1L59.1,73.6L58.1,73.6L58.1,74.1L57.6,74.1L57.6,74.6L57.1,74.6L57.1,75.6L56.6,75.6L56.6,76.6L54.1,76.6L54.1,77.1L53.6,77.1L53.6,78.1L53.1,78.1L53.1,79.1L51.6,79.1L51.6,80.1L51.1,80.1L51.1,80.6L50.6,80.6L50.6,87.6L50.1,87.6L50.1,89.1L49.6,89.1L49.6,90.1L48.1,90.1L48.1,94.9L48.6,94.9L48.6,95.4L49.1,95.4L49.1,99.1L48.6,99.1L48.6,99.6L47.1,99.6L47.1,100.1L46.1,100.1L46.1,100.6L43.4,100.6L43.4,100.1L42.9,100.1L42.9,99.6L38.9,99.6L38.9,99.1L36,99.1L36,98.9L39.1,98.9L39.1,99.4L43.1,99.4L43.1,99.9L43.6,99.9L43.6,100.4L45.9,100.4L45.9,99.9L46.9,99.9L46.9,99.4L48.4,99.4L48.4,98.9L48.9,98.9L48.9,95.6L48.4,95.6L48.4,95.1L47.9,95.1L47.9,89.9L49.4,89.9L49.4,88.9L49.9,88.9L49.9,87.4L50.4,87.4L50.4,80.4L50.9,80.4L50.9,79.9L51.4,79.9L51.4,78.9L52.9,78.9L52.9,77.9L53.4,77.9L53.4,76.9L53.9,76.9L53.9,76.4L56.4,76.4L56.4,75.4L56.9,75.4L56.9,74.4L57.4,74.4L57.4,73.9L57.9,73.9L57.9,73.4L58.9,73.4L58.9,72.9L59.4,72.9L59.4,71.9L61.9,71.9L61.9,71.4L62.4,71.4L62.4,70.9L64.4,70.9z" stroke="none"/></svg>