<svg version="1.1" width="105" height="105" xmlns="http://www.w3.org/2000/svg"><path d="M25.4,45.9L35.4,45.9L35.4,44.4L36.4,44.4L36.4,43.9L37.4,43.9L37.4,43.4L38.9,43.4L38.9,42.4L40.9,42.4L40.9,38.9L42,38.9L42,39.1L41.1,39.1L41.1,42.6L39.1,42.6L39.1,43.6L37.6,43.6L37.6,44.1L36.6,44.1L36.6,44.6L35.6,44.6L35.6,46.1L25.6,46.1L25.6,46.4L26.6,46.4L26.6,47.4L27.1,47.4L27.1,48L26.9,48L26.9,47.6L26.4,47.6L26.4,46.6L25.6,46.6L25.6,50.1L22.6,50.1L22.6,51.1L21.1,51.1L21.1,51.6L20.6,51.6L20.6,52.6L19.1,52.6L19.1,53.1L18.6,53.1L18.6,56.6L17.1,56.6L17.1,57.1L16.1,57.1L16.1,58.1L13.6,58.1L13.6,58.5L13.4,58.5L13.4,57.9L15.9,57.9L15.9,56.9L16.9,56.9L16.9,56.4L18.4,56.4L18.4,52.9L18.9,52.9L18.9,52.4L20.4,52.4L20.4,51.4L20.9,51.4L20.9,50.9L22.4,50.9L22.4,49.9L25.4,49.9z" stroke="none"/><path d="M95.4,81.9L95.4,79.9L95.9,79.9L95.9,79.5L96.1,79.5L96.1,80.1L95.6,80.1L95.6,95.4L96.1,95.4L96.1,95.9L97.1,95.9L97.1,96.4L97.6,96.4L97.6,97.4L98.1,97.4L98.1,97.9L98.6,97.9L98.6,98.4L100.1,98.4L100.1,98.9L100.5,98.9L100.5,99.1L99.9,99.1L99.9,98.6L98.4,98.6L98.4,98.1L97.9,98.1L97.9,97.6L97.4,97.6L97.4,96.6L96.9,96.6L96.9,96.1L95.9,96.1L95.9,95.6L95.4,95.6L95.4,82.1L94.9,82.1L94.9,75.9L95.4,75.9L95.4,75.4L95.9,75.4L95.9,73.5L96.1,73.5L96.1,75.6L95.6,75.6L95.6,76.1L95.1,76.1L95.1,81.9z" stroke="none"/><path d="M84.9,60.4L87.4,60.4L87.4,59.9L88.4,59.9L88.4,59.4L91.4,59.4L91.4,58.9L91.9,58.9L91.9,58.4L94.5,58.4L94.5,58.6L92.1,58.6L92.1,59.1L91.6,59.1L91.6,59.6L88.6,59.6L88.6,60.1L87.6,60.1L87.6,60.6L85.1,60.6L85.1,60.9L87.9,60.9L87.9,60.4L88.9,60.4L88.9,59.9L90,59.9L90,60.1L89.1,60.1L89.1,60.6L88.1,60.6L88.1,61.1L85.1,61.1L85.1,65.1L84.1,65.1L84.1,65.6L82.6,65.6L82.6,66.1L81.6,66.1L81.6,67.6L79.6,67.6L79.6,68.1L77.1,68.1L77.1,68.6L76.6,68.6L76.6,70.5L76.4,70.5L76.4,68.4L76.9,68.4L76.9,67.9L79.4,67.9L79.4,67.4L81.4,67.4L81.4,65.9L82.4,65.9L82.4,65.4L83.9,65.4L83.9,64.9L84.9,64.9z" stroke="none"/><path d="M61.4,27.6L60.9,27.6L60.9,26.6L58.9,26.6L58.9,26.1L58.4,26.1L58.4,25.5L58.6,25.5L58.6,25.9L59.1,25.9L59.1,26.4L61.1,26.4L61.1,27.4L61.6,27.4L61.6,31.4L64.6,31.4L64.6,31.9L65.6,31.9L65.6,32.4L66.6,32.4L66.6,32.9L67.1,32.9L67.1,35.9L68.1,35.9L68.1,37.4L69,37.4L69,37.6L67.9,37.6L67.9,36.1L66.9,36.1L66.9,33.1L66.4,33.1L66.4,32.6L65.4,32.6L65.4,32.1L64.4,32.1L64.4,31.6L61.6,31.6L61.6,31.9L62.1,31.9L62.1,32.4L62.6,32.4L62.6,37.4L63.1,37.4L63.1,39L62.9,39L62.9,37.6L62.4,37.6L62.4,32.6L61.9,32.6L61.9,32.1L61.4,32.1z" stroke="none"/><path d="M56.4,68.1L54.9,68.1L54.9,67.1L53.9,67.1L53.9,66.6L53.4,66.6L53.4,65.6L51.4,65.6L51.4,65.1L50.9,65.1L50.9,63.6L49.9,63.6L49.9,62.1L49.4,62.1L49.4,61.6L48,61.6L48,61.4L49.6,61.4L49.6,61.9L50.1,61.9L50.1,63.4L51.1,63.4L51.1,64.9L51.6,64.9L51.6,65.4L53.6,65.4L53.6,66.4L54.1,66.4L54.1,66.9L55.1,66.9L55.1,67.9L56.6,67.9L56.6,73.9L65.1,73.9L65.1,75.4L66.1,75.4L66.1,77.9L66.6,77.9L66.6,79.4L69.6,79.4L69.6,79.9L70.1,79.9L70.1,80.4L71.1,80.4L71.1,81.9L71.6,81.9L71.6,85.9L73.1,85.9L73.1,86.4L74.1,86.4L74.1,86.9L75,86.9L75,87.1L73.9,87.1L73.9,86.6L72.9,86.6L72.9,86.1L71.4,86.1L71.4,82.1L70.9,82.1L70.9,80.6L69.9,80.6L69.9,80.1L69.4,80.1L69.4,79.6L66.4,79.6L66.4,78.1L65.9,78.1L65.9,75.6L64.9,75.6L64.9,74.1L56.6,74.1L56.6,78.1L53.6,78.1L53.6,78.6L53.1,78.6L53.1,79.1L52.6,79.1L52.6,79.5L52.4,79.5L52.4,78.9L52.9,78.9L52.9,78.4L53.4,78.4L53.4,77.9L56.4,77.9z" stroke="none"/><path d="M99.1,45.9L99.1,46.4L100.5,46.4L100.5,46.6L98.9,46.6L98.9,46.1L93.6,46.1L93.6,49.9L94.6,49.9L94.6,50.4L95.6,50.4L95.6,53.9L98.1,53.9L98.1,55.4L99.1,55.4L99.1,55.9L101.1,55.9L101.1,56.4L102.1,56.4L102.1,57L101.9,57L101.9,56.6L100.9,56.6L100.9,56.1L98.9,56.1L98.9,55.6L97.9,55.6L97.9,54.1L95.4,54.1L95.4,50.6L94.4,50.6L94.4,50.1L93.4,50.1L93.4,46.1L85.4,46.1L85.4,45.1L84.9,45.1L84.9,43.6L84.4,43.6L84.4,41.1L83.9,41.1L83.9,40.5L84.1,40.5L84.1,40.9L84.6,40.9L84.6,43.4L85.1,43.4L85.1,44.9L85.6,44.9L85.6,45.9z" stroke="none"/><path d="M27.4,9.4L27.4,8.9L31.6,8.9L31.6,9.4L33.6,9.4L33.6,9.9L34.1,9.9L34.1,10.4L34.6,10.4L34.6,10.9L37.6,10.9L37.6,12.4L38.6,12.4L38.6,13.4L39.1,13.4L39.1,15L38.9,15L38.9,13.6L38.4,13.6L38.4,12.6L37.4,12.6L37.4,11.1L34.4,11.1L34.4,10.6L33.9,10.6L33.9,10.1L33.4,10.1L33.4,9.6L31.4,9.6L31.4,9.1L27.6,9.1L27.6,9.4L30.6,9.4L30.6,12.9L31.1,12.9L31.1,13.4L31.6,13.4L31.6,13.9L32.6,13.9L32.6,14.4L33.1,14.4L33.1,15L32.9,15L32.9,14.6L32.4,14.6L32.4,14.1L31.4,14.1L31.4,13.6L30.9,13.6L30.9,13.1L30.4,13.1L30.4,9.6L25.9,9.6L25.9,9.1L23.4,9.1L23.4,8.6L22.4,8.6L22.4,8.1L21.9,8.1L21.9,7.1L20.4,7.1L20.4,5.6L19.9,5.6L19.9,5.1L19.4,5.1L19.4,4.6L16.5,4.6L16.5,4.4L19.6,4.4L19.6,4.9L20.1,4.9L20.1,5.4L20.6,5.4L20.6,6.9L22.1,6.9L22.1,7.9L22.6,7.9L22.6,8.4L23.6,8.4L23.6,8.9L26.1,8.9L26.1,9.4z" stroke="none"/><path d="M10.9,16.1L10.4,16.1L10.4,14.1L9.4,14.1L9.4,13.6L8.9,13.6L8.9,12.1L8.4,12.1L8.4,11.1L7.4,11.1L7.4,10.5L7.6,10.5L7.6,10.9L8.6,10.9L8.6,11.9L9.1,11.9L9.1,13.4L9.6,13.4L9.6,13.9L10.6,13.9L10.6,15.9L11.1,15.9L11.1,18.4L18.4,18.4L18.4,17.9L18.9,17.9L18.9,16.9L19.9,16.9L19.9,15.4L20.4,15.4L20.4,14.9L20.9,14.9L20.9,13.9L21.9,13.9L21.9,12.9L22.4,12.9L22.4,12.4L22.9,12.4L22.9,11.9L24.4,11.9L24.4,11.4L24.9,11.4L24.9,10.9L25.4,10.9L25.4,10.5L25.6,10.5L25.6,11.1L25.1,11.1L25.1,11.6L24.6,11.6L24.6,12.1L23.1,12.1L23.1,12.6L22.6,12.6L22.6,13.1L22.1,13.1L22.1,14.1L21.1,14.1L21.1,15.1L20.6,15.1L20.6,15.6L20.1,15.6L20.1,17.1L19.1,17.1L19.1,18.1L18.6,18.1L18.6,18.6L11.1,18.6L11.1,34.6L10.6,34.6L10.6,37.6L9.6,37.6L9.6,38.1L8.1,38.1L8.1,38.6L7.1,38.6L7.1,39.1L6.6,39.1L6.6,40.1L6.1,40.1L6.1,40.5L5.9,40.5L5.9,39.9L6.4,39.9L6.4,38.9L6.9,38.9L6.9,38.4L7.9,38.4L7.9,37.9L9.4,37.9L9.4,37.4L10.4,37.4L10.4,34.4L10.9,34.4z" stroke="none"/><path d="M51.4,48.9L51.4,48.4L59.4,48.4L59.4,47.4L61.4,47.4L61.4,44.4L62.9,44.4L62.9,43.5L63.1,43.5L63.1,44.6L61.6,44.6L61.6,47.6L59.6,47.6L59.6,48.6L51.6,48.6L51.6,48.9L57.6,48.9L57.6,49.4L58.6,49.4L58.6,49.9L59.6,49.9L59.6,50.4L60.1,50.4L60.1,51L59.9,51L59.9,50.6L59.4,50.6L59.4,50.1L58.4,50.1L58.4,49.6L57.4,49.6L57.4,49.1L47.1,49.1L47.1,50.1L46.1,50.1L46.1,50.6L45.6,50.6L45.6,51.1L44.6,51.1L44.6,52.6L44.1,52.6L44.1,54.1L43.1,54.1L43.1,54.6L42.6,54.6L42.6,55.1L42.1,55.1L42.1,55.6L40.6,55.6L40.6,57.1L39.1,57.1L39.1,58.6L37.5,58.6L37.5,58.4L38.9,58.4L38.9,56.9L40.4,56.9L40.4,55.4L41.9,55.4L41.9,54.9L42.4,54.9L42.4,54.4L42.9,54.4L42.9,53.9L43.9,53.9L43.9,52.4L44.4,52.4L44.4,50.9L45.4,50.9L45.4,50.4L45.9,50.4L45.9,49.9L46.9,49.9L46.9,48.9z" stroke="none"/><path d="M17.9,69.1L17.4,69.1L17.4,66.6L16.4,66.6L16.4,66.1L15.9,66.1L15.9,64.6L15.4,64.6L15.4,64.1L14.9,64.1L14.9,63.6L13.4,63.6L13.4,62.1L12.4,62.1L12.4,61.6L12,61.6L12,61.4L12.6,61.4L12.6,61.9L13.6,61.9L13.6,63.4L15.1,63.4L15.1,63.9L15.6,63.9L15.6,64.4L16.1,64.4L16.1,65.9L16.6,65.9L16.6,66.4L17.6,66.4L17.6,68.9L18.1,68.9L18.1,69.9L27.4,69.9L27.4,68.4L28.4,68.4L28.4,67.4L29.9,67.4L29.9,66.9L30.4,66.9L30.4,66.4L30.9,66.4L30.9,65.9L31.4,65.9L31.4,64.5L31.6,64.5L31.6,66.1L31.1,66.1L31.1,66.6L30.6,66.6L30.6,67.1L30.1,67.1L30.1,67.6L28.6,67.6L28.6,68.6L27.6,68.6L27.6,70.1L18.1,70.1L18.1,89.6L17.6,89.6L17.6,90.1L16.5,90.1L16.5,89.9L17.4,89.9L17.4,89.4L17.9,89.4z" stroke="none"/><path d="M35.4,22.9L35.4,20.9L37.4,20.9L37.4,20.4L37.9,20.4L37.9,18.4L38.4,18.4L38.4,17.9L38.9,17.9L38.9,16.9L39.4,16.9L39.4,15.4L39.9,15.4L39.9,11.6L39.4,11.6L39.4,11.1L38.9,11.1L38.9,10.5L39.1,10.5L39.1,10.9L39.6,10.9L39.6,11.4L40.1,11.4L40.1,15.6L39.6,15.6L39.6,17.1L39.1,17.1L39.1,18.1L38.6,18.1L38.6,18.6L38.1,18.6L38.1,20.6L37.6,20.6L37.6,21.1L35.6,21.1L35.6,22.9L43.1,22.9L43.1,23.4L45.1,23.4L45.1,24L44.9,24L44.9,23.6L42.9,23.6L42.9,23.1L35.6,23.1L35.6,25.1L34.6,25.1L34.6,25.5L34.4,25.5L34.4,24.9L35.4,24.9L35.4,23.1L35.1,23.1L35.1,23.6L34.6,23.6L34.6,24.1L34.1,24.1L34.1,36.6L33.6,36.6L33.6,37.1L33.1,37.1L33.1,37.6L31.6,37.6L31.6,38.1L30.6,38.1L30.6,38.6L27.1,38.6L27.1,39.1L26.6,39.1L26.6,39.6L26.1,39.6L26.1,40.1L25.6,40.1L25.6,41.1L24.6,41.1L24.6,41.6L24.1,41.6L24.1,42.1L23.6,42.1L23.6,43.1L23.1,43.1L23.1,43.9L23.6,43.9L23.6,44.4L29.4,44.4L29.4,43.9L29.9,43.9L29.9,42.9L31.4,42.9L31.4,41.4L31.9,41.4L31.9,40.9L32.9,40.9L32.9,40.5L33.1,40.5L33.1,41.1L32.1,41.1L32.1,41.6L31.6,41.6L31.6,43.1L30.1,43.1L30.1,44.1L29.6,44.1L29.6,44.6L23.4,44.6L23.4,44.1L22.9,44.1L22.9,42.9L23.4,42.9L23.4,41.9L23.9,41.9L23.9,41.4L24.4,41.4L24.4,40.9L25.4,40.9L25.4,39.9L25.9,39.9L25.9,39.4L26.4,39.4L26.4,38.9L26.9,38.9L26.9,38.4L30.4,38.4L30.4,37.9L31.4,37.9L31.4,37.4L32.9,37.4L32.9,36.9L33.4,36.9L33.4,36.4L33.9,36.4L33.9,23.9L34.4,23.9L34.4,23.4L34.9,23.4L34.9,22.9z" stroke="none"/><path d="M31.9,88.4L31.9,79.4L32.4,79.4L32.4,78.9L32.9,78.9L32.9,78.4L34.4,78.4L34.4,77.4L34.9,77.4L34.9,76.4L35.4,76.4L35.4,74.9L37.5,74.9L37.5,75.1L35.6,75.1L35.6,76.6L35.1,76.6L35.1,77.6L34.6,77.6L34.6,78.6L33.1,78.6L33.1,79.1L32.6,79.1L32.6,79.6L32.1,79.6L32.1,88.4L33.1,88.4L33.1,89.9L34.5,89.9L34.5,90.1L32.9,90.1L32.9,88.6L32.1,88.6L32.1,95.4L36.6,95.4L36.6,95.9L37.5,95.9L37.5,96.1L36.4,96.1L36.4,95.6L31.9,95.6L31.9,88.6L31.6,88.6L31.6,95.6L31.1,95.6L31.1,97.6L30.6,97.6L30.6,98.1L30.1,98.1L30.1,99.1L29.1,99.1L29.1,100.6L27.6,100.6L27.6,101.6L27.1,101.6L27.1,102L26.9,102L26.9,101.4L27.4,101.4L27.4,100.4L28.9,100.4L28.9,98.9L29.9,98.9L29.9,97.9L30.4,97.9L30.4,97.4L30.9,97.4L30.9,95.4L31.4,95.4L31.4,88.4z" stroke="none"/><path d="M18.4,64.9L18.4,61.6L18,61.6L18,61.4L18.6,61.4L18.6,64.9L26.9,64.9L26.9,64.5L27.1,64.5L27.1,65.1L18.6,65.1L18.6,65.4L27.4,65.4L27.4,64.9L28.4,64.9L28.4,61.9L29.4,61.9L29.4,61.4L30,61.4L30,61.6L29.6,61.6L29.6,62.1L28.6,62.1L28.6,65.1L27.6,65.1L27.6,65.6L18.4,65.6L18.4,65.1L17.9,65.1L17.9,64.6L17.4,64.6L17.4,64.1L15.9,64.1L15.9,63.6L15.4,63.6L15.4,63.1L14.9,63.1L14.9,61.6L12.9,61.6L12.9,60.6L11.1,60.6L11.1,69.9L11.6,69.9L11.6,74.1L11.1,74.1L11.1,79.1L9.6,79.1L9.6,79.6L9.1,79.6L9.1,80.1L8.6,80.1L8.6,80.6L7.6,80.6L7.6,81L7.4,81L7.4,80.4L8.4,80.4L8.4,79.9L8.9,79.9L8.9,79.4L9.4,79.4L9.4,78.9L10.9,78.9L10.9,73.9L11.4,73.9L11.4,70.1L10.9,70.1L10.9,60.4L13.1,60.4L13.1,61.4L15.1,61.4L15.1,62.9L15.6,62.9L15.6,63.4L16.1,63.4L16.1,63.9L17.6,63.9L17.6,64.4L18.1,64.4L18.1,64.9z" stroke="none"/><path d="M51.4,86.4L51.4,85.1L50.4,85.1L50.4,83.6L49.9,83.6L49.9,82.6L49.5,82.6L49.5,82.4L50.1,82.4L50.1,83.4L50.6,83.4L50.6,84.9L51.6,84.9L51.6,86.4L55.9,86.4L55.9,85.9L56.9,85.9L56.9,84.9L57.9,84.9L57.9,83.4L58.4,83.4L58.4,82.9L59.4,82.9L59.4,82.4L60,82.4L60,82.6L59.6,82.6L59.6,83.1L58.6,83.1L58.6,83.6L58.1,83.6L58.1,85.1L57.1,85.1L57.1,86.1L56.1,86.1L56.1,86.6L51.6,86.6L51.6,90.4L52.1,90.4L52.1,90.9L61.1,90.9L61.1,91.4L62.1,91.4L62.1,92.4L64.6,92.4L64.6,92.9L65.1,92.9L65.1,94.4L67.1,94.4L67.1,95.9L67.5,95.9L67.5,96.1L66.9,96.1L66.9,94.6L64.9,94.6L64.9,93.1L64.4,93.1L64.4,92.6L61.9,92.6L61.9,91.6L60.9,91.6L60.9,91.1L51.9,91.1L51.9,90.6L51.4,90.6L51.4,86.6L44.1,86.6L44.1,87.1L43.1,87.1L43.1,88.1L42.6,88.1L42.6,88.6L40.6,88.6L40.6,89.1L40.1,89.1L40.1,91.1L38.1,91.1L38.1,92.1L37.6,92.1L37.6,94.5L37.4,94.5L37.4,91.9L37.9,91.9L37.9,90.9L39.9,90.9L39.9,88.9L40.4,88.9L40.4,88.4L42.4,88.4L42.4,87.9L42.9,87.9L42.9,86.9L43.9,86.9L43.9,86.4z" stroke="none"/><path d="M74.9,44.4L74.9,43.1L73.9,43.1L73.9,41.1L73.4,41.1L73.4,40.6L72,40.6L72,40.4L73.6,40.4L73.6,40.9L74.1,40.9L74.1,42.9L75.1,42.9L75.1,44.4L75.4,44.4L75.4,43.4L75.9,43.4L75.9,42.9L76.4,42.9L76.4,41.9L76.9,41.9L76.9,41.4L77.4,41.4L77.4,39.4L78.9,39.4L78.9,37.9L79.9,37.9L79.9,37.4L81,37.4L81,37.6L80.1,37.6L80.1,38.1L79.1,38.1L79.1,39.6L77.6,39.6L77.6,41.6L77.1,41.6L77.1,42.1L76.6,42.1L76.6,43.1L76.1,43.1L76.1,43.6L75.6,43.6L75.6,44.6L75.1,44.6L75.1,44.9L76.1,44.9L76.1,45.4L77.1,45.4L77.1,45.9L85.1,45.9L85.1,46.4L86.6,46.4L86.6,46.9L88.6,46.9L88.6,47.4L89.1,47.4L89.1,48.4L89.6,48.4L89.6,48.9L91.1,48.9L91.1,49.9L91.6,49.9L91.6,53.4L92.1,53.4L92.1,54.9L92.6,54.9L92.6,55.4L93.1,55.4L93.1,56.4L94.6,56.4L94.6,56.9L95.1,56.9L95.1,57.4L95.6,57.4L95.6,61.1L94.1,61.1L94.1,62.1L93.6,62.1L93.6,62.6L91.6,62.6L91.6,63L91.4,63L91.4,62.4L93.4,62.4L93.4,61.9L93.9,61.9L93.9,60.9L95.4,60.9L95.4,57.6L94.9,57.6L94.9,57.1L94.4,57.1L94.4,56.6L92.9,56.6L92.9,55.6L92.4,55.6L92.4,55.1L91.9,55.1L91.9,53.6L91.4,53.6L91.4,50.1L90.9,50.1L90.9,49.1L89.4,49.1L89.4,48.6L88.9,48.6L88.9,47.6L88.4,47.6L88.4,47.1L86.4,47.1L86.4,46.6L84.9,46.6L84.9,46.1L76.9,46.1L76.9,45.6L75.9,45.6L75.9,45.1L74.9,45.1L74.9,44.6L71.6,44.6L71.6,45.1L71.1,45.1L71.1,45.6L70.6,45.6L70.6,46.1L67.1,46.1L67.1,46.6L64.5,46.6L64.5,46.4L66.9,46.4L66.9,45.9L70.4,45.9L70.4,45.4L70.9,45.4L70.9,44.9L71.4,44.9L71.4,44.4z" stroke="none"/><path d="M26.4,19.9L26.4,15.4L27.4,15.4L27.4,14.9L28.5,14.9L28.5,15.1L27.6,15.1L27.6,15.6L26.6,15.6L26.6,19.9L27.1,19.9L27.1,28.1L26.6,28.1L26.6,28.6L26.1,28.6L26.1,29.1L25.1,29.1L25.1,30.6L24.6,30.6L24.6,31.1L23.1,31.1L23.1,32.1L22.6,32.1L22.6,35.1L14.1,35.1L14.1,35.6L13.6,35.6L13.6,36.1L12.1,36.1L12.1,37.6L11.1,37.6L11.1,38.1L10.1,38.1L10.1,38.6L9.1,38.6L9.1,39.1L8.1,39.1L8.1,40.6L7.6,40.6L7.6,41.1L6.6,41.1L6.6,41.6L4.9,41.6L4.9,11.9L5.4,11.9L5.4,10.9L5.9,10.9L5.9,10.4L6.4,10.4L6.4,9.9L6.9,9.9L6.9,9.4L12.4,9.4L12.4,8.9L12.9,8.9L12.9,7.4L13.4,7.4L13.4,5.4L14.4,5.4L14.4,4.9L14.9,4.9L14.9,4.4L15.4,4.4L15.4,3.9L15.9,3.9L15.9,3.4L39.1,3.4L39.1,4.4L39.6,4.4L39.6,4.9L40.1,4.9L40.1,6.4L41.6,6.4L41.6,7.9L42.6,7.9L42.6,8.9L43.5,8.9L43.5,9.1L42.4,9.1L42.4,8.1L41.4,8.1L41.4,6.6L39.9,6.6L39.9,5.1L39.4,5.1L39.4,4.6L38.9,4.6L38.9,3.6L16.1,3.6L16.1,4.1L15.6,4.1L15.6,4.6L15.1,4.6L15.1,5.1L14.6,5.1L14.6,5.6L13.6,5.6L13.6,7.6L13.1,7.6L13.1,9.1L12.6,9.1L12.6,9.6L7.1,9.6L7.1,10.1L6.6,10.1L6.6,10.6L6.1,10.6L6.1,11.1L5.6,11.1L5.6,12.1L5.1,12.1L5.1,41.4L6.4,41.4L6.4,40.9L7.4,40.9L7.4,40.4L7.9,40.4L7.9,38.9L8.9,38.9L8.9,38.4L9.9,38.4L9.9,37.9L10.9,37.9L10.9,37.4L11.9,37.4L11.9,35.9L13.4,35.9L13.4,35.4L13.9,35.4L13.9,34.9L22.4,34.9L22.4,31.9L22.9,31.9L22.9,30.9L24.4,30.9L24.4,30.4L24.9,30.4L24.9,28.9L25.9,28.9L25.9,28.4L26.4,28.4L26.4,27.9L26.9,27.9L26.9,20.1L26.6,20.1L26.6,27.6L26.1,27.6L26.1,28.1L25.6,28.1L25.6,28.6L24.1,28.6L24.1,30L23.9,30L23.9,28.4L25.4,28.4L25.4,27.9L25.9,27.9L25.9,27.4L26.4,27.4L26.4,20.1L26.1,20.1L26.1,27.1L25.6,27.1L25.6,27.6L24.1,27.6L24.1,28.1L23.6,28.1L23.6,30.6L22.1,30.6L22.1,31.1L20.1,31.1L20.1,33.6L19.6,33.6L19.6,34.5L19.4,34.5L19.4,33.4L19.9,33.4L19.9,30.9L21.9,30.9L21.9,30.4L23.4,30.4L23.4,27.9L23.9,27.9L23.9,27.4L25.4,27.4L25.4,26.9L25.9,26.9L25.9,19.9z" stroke="none"/><path d="M9.4,57.9L9.4,52.9L9.9,52.9L9.9,51.4L11.4,51.4L11.4,49.4L12,49.4L12,49.6L11.6,49.6L11.6,51.6L10.1,51.6L10.1,53.1L9.6,53.1L9.6,57.9L12.6,57.9L12.6,58.9L13.1,58.9L13.1,59.4L15.9,59.4L15.9,58.9L16.9,58.9L16.9,57.9L17.4,57.9L17.4,56.9L19.4,56.9L19.4,55.5L19.6,55.5L19.6,57.1L17.6,57.1L17.6,58.1L17.1,58.1L17.1,59.1L16.1,59.1L16.1,59.6L12.9,59.6L12.9,59.1L12.4,59.1L12.4,58.1L9.6,58.1L9.6,67.9L10.6,67.9L10.6,70.5L10.4,70.5L10.4,68.1L9.4,68.1L9.4,58.1L7.1,58.1L7.1,60.1L6.6,60.1L6.6,60.6L6.1,60.6L6.1,62.1L5.6,62.1L5.6,62.6L5.1,62.6L5.1,64.6L4.5,64.6L4.5,64.4L4.9,64.4L4.9,62.4L5.4,62.4L5.4,61.9L5.9,61.9L5.9,60.4L6.4,60.4L6.4,59.9L6.9,59.9L6.9,57.9z" stroke="none"/><path d="M66.9,76.4L66.9,68.4L67.4,68.4L67.4,67.4L69,67.4L69,67.6L67.6,67.6L67.6,68.6L67.1,68.6L67.1,76.4L75.9,76.4L75.9,74.9L76.9,74.9L76.9,72.9L77.4,72.9L77.4,72.4L77.9,72.4L77.9,72L78.1,72L78.1,72.6L77.6,72.6L77.6,73.1L77.1,73.1L77.1,75.1L76.1,75.1L76.1,76.6L67.1,76.6L67.1,77.4L68.1,77.4L68.1,77.9L68.6,77.9L68.6,78.4L69.6,78.4L69.6,78.9L70.1,78.9L70.1,79.4L70.6,79.4L70.6,79.9L71.6,79.9L71.6,81.4L72.1,81.4L72.1,82.9L72.6,82.9L72.6,83.4L73.1,83.4L73.1,83.9L74.1,83.9L74.1,84.9L75.1,84.9L75.1,85.4L76.1,85.4L76.1,88.9L76.6,88.9L76.6,90L76.4,90L76.4,89.1L75.9,89.1L75.9,85.6L74.9,85.6L74.9,85.1L73.9,85.1L73.9,84.1L72.9,84.1L72.9,83.6L72.4,83.6L72.4,83.1L71.9,83.1L71.9,81.6L71.4,81.6L71.4,80.1L70.4,80.1L70.4,79.6L69.9,79.6L69.9,79.1L69.4,79.1L69.4,78.6L68.4,78.6L68.4,78.1L67.9,78.1L67.9,77.6L66.9,77.6L66.9,76.6L66.4,76.6L66.4,74.1L65.4,74.1L65.4,73.6L61.4,73.6L61.4,73.1L59.9,73.1L59.9,70.6L58.4,70.6L58.4,69.1L57.4,69.1L57.4,68.1L56.9,68.1L56.9,67.6L55.9,67.6L55.9,65.6L55.4,65.6L55.4,65.1L51.9,65.1L51.9,64.6L51.4,64.6L51.4,63.1L50.4,63.1L50.4,61.6L49.9,61.6L49.9,61.1L48.4,61.1L48.4,60.6L47.1,60.6L47.1,77.6L46.6,77.6L46.6,78.1L46.1,78.1L46.1,78.6L45.6,78.6L45.6,80.4L47.1,80.4L47.1,80.9L48.6,80.9L48.6,81.4L50.6,81.4L50.6,82.9L51.1,82.9L51.1,83.9L52.6,83.9L52.6,85.5L52.4,85.5L52.4,84.1L50.9,84.1L50.9,83.1L50.4,83.1L50.4,81.6L48.4,81.6L48.4,81.1L46.9,81.1L46.9,80.6L45.4,80.6L45.4,78.4L45.9,78.4L45.9,77.9L46.4,77.9L46.4,77.4L46.9,77.4L46.9,60.4L48.6,60.4L48.6,60.9L50.1,60.9L50.1,61.4L50.6,61.4L50.6,62.9L51.6,62.9L51.6,64.4L52.1,64.4L52.1,64.9L55.6,64.9L55.6,65.4L56.1,65.4L56.1,67.4L57.1,67.4L57.1,67.9L57.6,67.9L57.6,68.9L58.6,68.9L58.6,70.4L60.1,70.4L60.1,72.9L61.6,72.9L61.6,73.4L65.6,73.4L65.6,73.9L66.6,73.9L66.6,76.4z" stroke="none"/><path d="M57.9,78.9L57.9,78.4L63.1,78.4L63.1,79.4L65.1,79.4L65.1,81.9L66.1,81.9L66.1,83.4L68.1,83.4L68.1,84.4L69.6,84.4L69.6,85.4L70.6,85.4L70.6,86.4L72.6,86.4L72.6,86.9L73.1,86.9L73.1,88.4L73.6,88.4L73.6,89.4L75.6,89.4L75.6,90.4L76.1,90.4L76.1,90.9L76.9,90.9L76.9,90.4L77.4,90.4L77.4,73.4L78.4,73.4L78.4,72.9L78.9,72.9L78.9,71.6L78.4,71.6L78.4,71.1L77.6,71.1L77.6,71.6L74.9,71.6L74.9,71.1L74.4,71.1L74.4,70.6L73.9,70.6L73.9,69.6L73.4,69.6L73.4,69L73.6,69L73.6,69.4L74.1,69.4L74.1,70.4L74.6,70.4L74.6,70.9L75.1,70.9L75.1,71.4L77.4,71.4L77.4,70.9L78.6,70.9L78.6,71.4L79.1,71.4L79.1,73.1L78.6,73.1L78.6,73.6L77.6,73.6L77.6,90.6L77.1,90.6L77.1,91.1L75.9,91.1L75.9,90.6L75.4,90.6L75.4,89.6L73.4,89.6L73.4,88.6L72.9,88.6L72.9,87.1L72.4,87.1L72.4,86.6L70.4,86.6L70.4,85.6L69.4,85.6L69.4,84.6L67.9,84.6L67.9,83.6L65.9,83.6L65.9,82.1L64.9,82.1L64.9,79.6L62.9,79.6L62.9,78.6L58.1,78.6L58.1,78.9L61.1,78.9L61.1,79.4L61.6,79.4L61.6,80.9L62.1,80.9L62.1,81.9L62.6,81.9L62.6,82.9L63.1,82.9L63.1,83.9L63.6,83.9L63.6,84.9L64.6,84.9L64.6,85.9L65.1,85.9L65.1,87.6L57.6,87.6L57.6,88.1L56.6,88.1L56.6,88.6L56.1,88.6L56.1,89.1L55.6,89.1L55.6,90L55.4,90L55.4,88.9L55.9,88.9L55.9,88.4L56.4,88.4L56.4,87.9L57.4,87.9L57.4,87.4L64.9,87.4L64.9,86.1L64.4,86.1L64.4,85.1L63.4,85.1L63.4,84.1L62.9,84.1L62.9,83.1L62.4,83.1L62.4,82.1L61.9,82.1L61.9,81.1L61.4,81.1L61.4,79.6L60.9,79.6L60.9,79.1L58.1,79.1L58.1,79.9L59.6,79.9L59.6,80.4L60.1,80.4L60.1,81.4L61.1,81.4L61.1,82.9L61.6,82.9L61.6,83.4L62.1,83.4L62.1,83.9L62.6,83.9L62.6,84.4L63.1,84.4L63.1,85.9L63.6,85.9L63.6,86.9L64.5,86.9L64.5,87.1L63.4,87.1L63.4,86.1L62.9,86.1L62.9,84.6L62.4,84.6L62.4,84.1L61.9,84.1L61.9,83.6L61.4,83.6L61.4,83.1L60.9,83.1L60.9,81.6L59.9,81.6L59.9,80.6L59.4,80.6L59.4,80.1L57.9,80.1L57.9,79.1L53.6,79.1L53.6,80.1L53.1,80.1L53.1,80.6L47.4,80.6L47.4,80.1L46.4,80.1L46.4,79.5L46.6,79.5L46.6,79.9L47.6,79.9L47.6,80.4L52.9,80.4L52.9,79.9L53.4,79.9L53.4,78.9z" stroke="none"/><path d="M33.4,49.9L33.4,47.9L35.4,47.9L35.4,47.4L36.9,47.4L36.9,46.4L37.9,46.4L37.9,45.9L38.4,45.9L38.4,45.4L38.9,45.4L38.9,44.9L40.9,44.9L40.9,44.4L41.4,44.4L41.4,40.9L42.4,40.9L42.4,40.4L42.9,40.4L42.9,38.6L42.4,38.6L42.4,38.1L32.1,38.1L32.1,38.6L31.6,38.6L31.6,39.6L30.1,39.6L30.1,40.1L29.1,40.1L29.1,40.6L28.1,40.6L28.1,42.1L26.1,42.1L26.1,43.1L24.6,43.1L24.6,43.6L24,43.6L24,43.4L24.4,43.4L24.4,42.9L25.9,42.9L25.9,41.9L27.9,41.9L27.9,40.4L28.9,40.4L28.9,39.9L29.9,39.9L29.9,39.4L31.4,39.4L31.4,38.4L31.9,38.4L31.9,37.9L42.6,37.9L42.6,38.4L43.1,38.4L43.1,40.6L42.6,40.6L42.6,41.1L41.6,41.1L41.6,44.6L41.1,44.6L41.1,45.1L39.1,45.1L39.1,45.6L38.6,45.6L38.6,46.1L38.1,46.1L38.1,46.6L37.1,46.6L37.1,47.6L35.6,47.6L35.6,48.1L33.6,48.1L33.6,49.9L41.4,49.9L41.4,49.4L41.9,49.4L41.9,48.9L43.9,48.9L43.9,46.9L45.4,46.9L45.4,45.9L45.9,45.9L45.9,44.4L46.4,44.4L46.4,42.4L48.4,42.4L48.4,41.9L49.4,41.9L49.4,40.5L49.6,40.5L49.6,42.1L48.6,42.1L48.6,42.6L46.6,42.6L46.6,44.6L46.1,44.6L46.1,46.1L45.6,46.1L45.6,47.1L44.1,47.1L44.1,49.1L42.1,49.1L42.1,49.6L41.6,49.6L41.6,50.1L33.6,50.1L33.6,56.4L34.6,56.4L34.6,56.9L35.6,56.9L35.6,57.4L36.1,57.4L36.1,57.9L36.6,57.9L36.6,58.9L37.1,58.9L37.1,59.4L39.4,59.4L39.4,58.9L40.4,58.9L40.4,58.5L40.6,58.5L40.6,59.1L39.6,59.1L39.6,59.6L36.9,59.6L36.9,59.1L36.4,59.1L36.4,58.1L35.9,58.1L35.9,57.6L35.4,57.6L35.4,57.1L34.4,57.1L34.4,56.6L33.4,56.6L33.4,50.1L33.1,50.1L33.1,63.1L32.6,63.1L32.6,63.6L31.1,63.6L31.1,64.1L30.6,64.1L30.6,65.1L29.6,65.1L29.6,66.1L28.5,66.1L28.5,65.9L29.4,65.9L29.4,64.9L30.4,64.9L30.4,63.9L30.9,63.9L30.9,63.4L32.4,63.4L32.4,62.9L32.9,62.9L32.9,49.9z" stroke="none"/><path d="M52.5,63.1L52.5,62.9L55.5,62.9L55.5,63.1z" stroke="none"/><path d="M8.9,28.5L9.1,28.5L9.1,31.5L8.9,31.5z" stroke="none"/><path d="M10.5,93.1L10.5,92.9L10.9,92.9L10.9,92.4L11.4,92.4L11.4,90.4L11.9,90.4L11.9,90L12.1,90L12.1,90.6L11.6,90.6L11.6,92.6L11.1,92.6L11.1,93.1z" stroke="none"/><path d="M90,7.4L90,7.6L87.4,7.6L87.4,7.1L86.9,7.1L86.9,6L87.1,6L87.1,6.9L87.6,6.9L87.6,7.4z" stroke="none"/><path d="M66,91.6L66,91.4L67.4,91.4L67.4,90.4L68.4,90.4L68.4,89.4L68.9,89.4L68.9,88.5L69.1,88.5L69.1,89.6L68.6,89.6L68.6,90.6L67.6,90.6L67.6,91.6z" stroke="none"/><path d="M43.5,19.6L43.5,19.4L48,19.4L48,19.6z" stroke="none"/><path d="M82.5,30.1L82.5,29.9L84.9,29.9L84.9,28.4L87,28.4L87,28.6L85.1,28.6L85.1,30.1z" stroke="none"/><path d="M46.4,10.5L46.6,10.5L46.6,11.9L47.1,11.9L47.1,12.4L47.6,12.4L47.6,12.9L48.1,12.9L48.1,15L47.9,15L47.9,13.1L47.4,13.1L47.4,12.6L46.9,12.6L46.9,12.1L46.4,12.1z" stroke="none"/><path d="M97.4,85.5L97.6,85.5L97.6,87.9L98.1,87.9L98.1,89.4L99.6,89.4L99.6,89.9L100.5,89.9L100.5,90.1L99.4,90.1L99.4,89.6L97.9,89.6L97.9,88.1L97.4,88.1z" stroke="none"/><path d="M90.1,16.5L89.9,16.5L89.9,15.6L89.4,15.6L89.4,14.1L88.9,14.1L88.9,13.6L88.4,13.6L88.4,10.5L88.6,10.5L88.6,13.4L89.1,13.4L89.1,13.9L89.6,13.9L89.6,15.4L90.1,15.4z" stroke="none"/><path d="M94.4,13.5L94.6,13.5L94.6,15.4L95.1,15.4L95.1,15.9L95.6,15.9L95.6,16.9L96.1,16.9L96.1,17.4L97.6,17.4L97.6,17.9L99,17.9L99,18.1L97.4,18.1L97.4,17.6L95.9,17.6L95.9,17.1L95.4,17.1L95.4,16.1L94.9,16.1L94.9,15.6L94.4,15.6z" stroke="none"/><path d="M102,10.4L102,10.6L101.6,10.6L101.6,11.1L101.1,11.1L101.1,11.6L100.1,11.6L100.1,12.1L99.6,12.1L99.6,12.6L99.1,12.6L99.1,13.1L96.6,13.1L96.6,13.6L96,13.6L96,13.4L96.4,13.4L96.4,12.9L98.9,12.9L98.9,12.4L99.4,12.4L99.4,11.9L99.9,11.9L99.9,11.4L100.9,11.4L100.9,10.9L101.4,10.9L101.4,10.4z" stroke="none"/><path d="M81,98.9L81,99.1L75.1,99.1L75.1,100.6L73.5,100.6L73.5,100.4L74.9,100.4L74.9,98.9z" stroke="none"/><path d="M36,25.6L36,25.4L45.9,25.4L45.9,23.6L45.4,23.6L45.4,23.1L44.4,23.1L44.4,22.6L43.5,22.6L43.5,22.4L44.6,22.4L44.6,22.9L45.6,22.9L45.6,23.4L46.1,23.4L46.1,25.6z" stroke="none"/><path d="M84,93.1L84,92.9L84.4,92.9L84.4,92.4L84.9,92.4L84.9,89.9L85.9,89.9L85.9,89.4L86.4,89.4L86.4,87.9L87.4,87.9L87.4,85.9L88.4,85.9L88.4,85.5L88.6,85.5L88.6,86.1L87.6,86.1L87.6,88.1L86.6,88.1L86.6,89.6L86.1,89.6L86.1,90.1L85.1,90.1L85.1,92.6L84.6,92.6L84.6,93.1z" stroke="none"/><path d="M99,97.6L99,97.4L101.1,97.4L101.1,98.4L101.6,98.4L101.6,99.6L101.1,99.6L101.1,100.1L97.9,100.1L97.9,99.1L97.4,99.1L97.4,98.1L96.4,98.1L96.4,97.1L95.9,97.1L95.9,96.6L95.4,96.6L95.4,96.1L94.9,96.1L94.9,90.1L94.5,90.1L94.5,89.9L95.1,89.9L95.1,95.9L95.6,95.9L95.6,96.4L96.1,96.4L96.1,96.9L96.6,96.9L96.6,97.9L97.6,97.9L97.6,98.9L98.1,98.9L98.1,99.9L100.9,99.9L100.9,99.4L101.4,99.4L101.4,98.6L100.9,98.6L100.9,97.6z" stroke="none"/><path d="M93,88.4L93,88.6L88.6,88.6L88.6,90.1L88.1,90.1L88.1,91.1L87.6,91.1L87.6,92.1L85.6,92.1L85.6,93.1L85.1,93.1L85.1,94.1L83.4,94.1L83.4,93.6L82.9,93.6L82.9,91.9L83.9,91.9L83.9,91.5L84.1,91.5L84.1,92.1L83.1,92.1L83.1,93.4L83.6,93.4L83.6,93.9L84.9,93.9L84.9,92.9L85.4,92.9L85.4,91.9L87.4,91.9L87.4,90.9L87.9,90.9L87.9,89.9L88.4,89.9L88.4,88.4z" stroke="none"/><path d="M79.5,12.1L79.5,11.9L83.1,11.9L83.1,12.9L83.6,12.9L83.6,14.4L85.1,14.4L85.1,15.4L85.6,15.4L85.6,15.9L86.1,15.9L86.1,16.4L86.6,16.4L86.6,17.4L87.1,17.4L87.1,18L86.9,18L86.9,17.6L86.4,17.6L86.4,16.6L85.9,16.6L85.9,16.1L85.4,16.1L85.4,15.6L84.9,15.6L84.9,14.6L83.4,14.6L83.4,13.1L82.9,13.1L82.9,12.1z" stroke="none"/><path d="M10.5,10.6L10.5,10.4L15.1,10.4L15.1,10.9L15.6,10.9L15.6,12.4L16.6,12.4L16.6,13.4L18.6,13.4L18.6,14.9L19.5,14.9L19.5,15.1L18.4,15.1L18.4,13.6L16.4,13.6L16.4,12.6L15.4,12.6L15.4,11.1L14.9,11.1L14.9,10.6z" stroke="none"/><path d="M48,43.6L48,43.4L58.5,43.4L58.5,43.6z" stroke="none"/><path d="M25.6,99L25.4,99L25.4,88.5L25.6,88.5z" stroke="none"/><path d="M66.1,28.5L65.9,28.5L65.9,18.9L66.4,18.9L66.4,17.9L67.5,17.9L67.5,18.1L66.6,18.1L66.6,19.1L66.1,19.1z" stroke="none"/><path d="M79.5,15.1L79.5,14.9L80.1,14.9L80.1,15.4L83.1,15.4L83.1,15.9L83.6,15.9L83.6,16.4L84.1,16.4L84.1,17.4L85.6,17.4L85.6,17.9L86.1,17.9L86.1,18.4L86.6,18.4L86.6,18.9L87.6,18.9L87.6,19.4L88.1,19.4L88.1,20.9L88.5,20.9L88.5,21.1L87.9,21.1L87.9,19.6L87.4,19.6L87.4,19.1L86.4,19.1L86.4,18.6L85.9,18.6L85.9,18.1L85.4,18.1L85.4,17.6L83.9,17.6L83.9,16.6L83.4,16.6L83.4,16.1L82.9,16.1L82.9,15.6L79.9,15.6L79.9,15.1z" stroke="none"/><path d="M19.5,21.1L19.5,20.9L21.9,20.9L21.9,20.4L23.9,20.4L23.9,19.9L24.4,19.9L24.4,19.4L24.9,19.4L24.9,17.4L25.4,17.4L25.4,15.9L25.9,15.9L25.9,14.4L27.9,14.4L27.9,13.9L29.1,13.9L29.1,14.4L29.6,14.4L29.6,17.9L30,17.9L30,18.1L29.4,18.1L29.4,14.6L28.9,14.6L28.9,14.1L28.1,14.1L28.1,14.6L26.1,14.6L26.1,16.1L25.6,16.1L25.6,17.6L25.1,17.6L25.1,19.6L24.6,19.6L24.6,20.1L24.1,20.1L24.1,20.6L22.1,20.6L22.1,21.1z" stroke="none"/><path d="M58.4,3L58.6,3L58.6,8.9L59.1,8.9L59.1,9.4L60.1,9.4L60.1,9.9L60.6,9.9L60.6,11.9L61.1,11.9L61.1,13.4L61.5,13.4L61.5,13.6L60.9,13.6L60.9,12.1L60.4,12.1L60.4,10.1L59.9,10.1L59.9,9.6L58.9,9.6L58.9,9.1L58.4,9.1z" stroke="none"/><path d="M70.5,63.1L70.5,62.9L78.9,62.9L78.9,60.9L79.4,60.9L79.4,59.9L80.4,59.9L80.4,58.4L81,58.4L81,58.6L80.6,58.6L80.6,60.1L79.6,60.1L79.6,61.1L79.1,61.1L79.1,63.1z" stroke="none"/><path d="M91.5,16.6L91.5,16.4L92.1,16.4L92.1,16.9L94.1,16.9L94.1,17.4L95.1,17.4L95.1,17.9L95.6,17.9L95.6,18.9L96.1,18.9L96.1,19.4L100.1,19.4L100.1,19.9L101.6,19.9L101.6,20.9L102,20.9L102,21.1L101.4,21.1L101.4,20.1L99.9,20.1L99.9,19.6L95.9,19.6L95.9,19.1L95.4,19.1L95.4,18.1L94.9,18.1L94.9,17.6L93.9,17.6L93.9,17.1L91.9,17.1L91.9,16.6z" stroke="none"/><path d="M101.9,73.5L102.1,73.5L102.1,82.6L100.1,82.6L100.1,83.1L99.6,83.1L99.6,83.6L97.6,83.6L97.6,84L97.4,84L97.4,83.4L99.4,83.4L99.4,82.9L99.9,82.9L99.9,82.4L101.9,82.4z" stroke="none"/><path d="M49.6,22.5L49.4,22.5L49.4,13.4L51.4,13.4L51.4,12.9L52.4,12.9L52.4,12.4L53.4,12.4L53.4,11.9L54,11.9L54,12.1L53.6,12.1L53.6,12.6L52.6,12.6L52.6,13.1L51.6,13.1L51.6,13.6L49.6,13.6z" stroke="none"/><path d="M4.5,87.1L4.5,86.9L5.9,86.9L5.9,84.9L6.9,84.9L6.9,83.9L7.4,83.9L7.4,83.4L8.9,83.4L8.9,82.4L9.4,82.4L9.4,81.4L10.4,81.4L10.4,80.9L10.9,80.9L10.9,79.4L11.4,79.4L11.4,77.9L12,77.9L12,78.1L11.6,78.1L11.6,79.6L11.1,79.6L11.1,81.1L10.6,81.1L10.6,81.6L9.6,81.6L9.6,82.6L9.1,82.6L9.1,83.6L7.6,83.6L7.6,84.1L7.1,84.1L7.1,85.1L6.1,85.1L6.1,87.1z" stroke="none"/><path d="M86.9,12L87.1,12L87.1,13.4L87.6,13.4L87.6,13.9L88.1,13.9L88.1,16.9L88.6,16.9L88.6,17.4L91.1,17.4L91.1,17.9L91.6,17.9L91.6,18.9L92.1,18.9L92.1,19.4L92.6,19.4L92.6,19.9L94.6,19.9L94.6,21L94.4,21L94.4,20.1L92.4,20.1L92.4,19.6L91.9,19.6L91.9,19.1L91.4,19.1L91.4,18.1L90.9,18.1L90.9,17.6L88.4,17.6L88.4,17.1L87.9,17.1L87.9,14.1L87.4,14.1L87.4,13.6L86.9,13.6z" stroke="none"/><path d="M96,4.4L96,4.6L84.9,4.6L84.9,3.1L84,3.1L84,2.9L85.1,2.9L85.1,4.4z" stroke="none"/><path d="M85.4,79.5L85.6,79.5L85.6,89.6L84.6,89.6L84.6,90.1L84.1,90.1L84.1,90.6L83.6,90.6L83.6,91.1L83.1,91.1L83.1,91.6L82.5,91.6L82.5,91.4L82.9,91.4L82.9,90.9L83.4,90.9L83.4,90.4L83.9,90.4L83.9,89.9L84.4,89.9L84.4,89.4L85.4,89.4z" stroke="none"/><path d="M99.1,52.5L98.9,52.5L98.9,48.9L99.4,48.9L99.4,48.4L99.9,48.4L99.9,47.9L100.4,47.9L100.4,47.4L101.4,47.4L101.4,45.6L98.4,45.6L98.4,44.6L96.9,44.6L96.9,43.1L96.4,43.1L96.4,41.1L95.9,41.1L95.9,40.5L96.1,40.5L96.1,40.9L96.6,40.9L96.6,42.9L97.1,42.9L97.1,44.4L98.6,44.4L98.6,45.4L101.6,45.4L101.6,47.6L100.6,47.6L100.6,48.1L100.1,48.1L100.1,48.6L99.6,48.6L99.6,49.1L99.1,49.1z" stroke="none"/><path d="M97.4,24L97.6,24L97.6,30.4L98.1,30.4L98.1,30.9L99.6,30.9L99.6,32.4L100.6,32.4L100.6,32.9L101.1,32.9L101.1,34.9L101.6,34.9L101.6,35.9L102,35.9L102,36.1L101.4,36.1L101.4,35.1L100.9,35.1L100.9,33.1L100.4,33.1L100.4,32.6L99.4,32.6L99.4,31.1L97.9,31.1L97.9,30.6L97.4,30.6z" stroke="none"/><path d="M97.4,64.5L97.6,64.5L97.6,70.6L94.1,70.6L94.1,73.1L93.6,73.1L93.6,74.1L91.1,74.1L91.1,74.6L90.6,74.6L90.6,75.1L90,75.1L90,74.9L90.4,74.9L90.4,74.4L90.9,74.4L90.9,73.9L93.4,73.9L93.4,72.9L93.9,72.9L93.9,70.4L97.4,70.4z" stroke="none"/><path d="M82.5,27.1L82.5,26.9L94.1,26.9L94.1,27.4L95.1,27.4L95.1,28.4L96,28.4L96,28.6L94.9,28.6L94.9,27.6L93.9,27.6L93.9,27.1z" stroke="none"/><path d="M18.1,33L17.9,33L17.9,28.1L17.4,28.1L17.4,27.6L16.4,27.6L16.4,19.5L16.6,19.5L16.6,27.4L17.6,27.4L17.6,27.9L18.1,27.9z" stroke="none"/><path d="M5.9,16.5L6.1,16.5L6.1,26.9L6.6,26.9L6.6,28.9L7.6,28.9L7.6,30L7.4,30L7.4,29.1L6.4,29.1L6.4,27.1L5.9,27.1z" stroke="none"/><path d="M88.5,25.6L88.5,25.4L95.4,25.4L95.4,24.4L95.9,24.4L95.9,23.4L96.9,23.4L96.9,22.9L98.6,22.9L98.6,25.4L99.6,25.4L99.6,26.4L100.1,26.4L100.1,26.9L100.6,26.9L100.6,27.4L101.1,27.4L101.1,27.9L101.6,27.9L101.6,28.4L102,28.4L102,28.6L101.4,28.6L101.4,28.1L100.9,28.1L100.9,27.6L100.4,27.6L100.4,27.1L99.9,27.1L99.9,26.6L99.4,26.6L99.4,25.6L98.4,25.6L98.4,23.1L97.1,23.1L97.1,23.6L96.1,23.6L96.1,24.6L95.6,24.6L95.6,25.6z" stroke="none"/><path d="M80.9,87L81.1,87L81.1,95.9L82.1,95.9L82.1,100.1L78.1,100.1L78.1,100.5L77.9,100.5L77.9,99.9L81.9,99.9L81.9,96.1L80.9,96.1z" stroke="none"/><path d="M94.4,87L94.6,87L94.6,89.1L94.1,89.1L94.1,89.6L91.6,89.6L91.6,90.6L89.6,90.6L89.6,91.1L89.1,91.1L89.1,91.6L88.1,91.6L88.1,94.1L86.1,94.1L86.1,95.6L85.6,95.6L85.6,96.1L84.6,96.1L84.6,97.1L84.1,97.1L84.1,97.5L83.9,97.5L83.9,96.9L84.4,96.9L84.4,95.9L85.4,95.9L85.4,95.4L85.9,95.4L85.9,93.9L87.9,93.9L87.9,91.4L88.9,91.4L88.9,90.9L89.4,90.9L89.4,90.4L91.4,90.4L91.4,89.4L93.9,89.4L93.9,88.9L94.4,88.9z" stroke="none"/><path d="M77.9,51L78.1,51L78.1,57.1L75.1,57.1L75.1,59.6L73.1,59.6L73.1,60.1L70.1,60.1L70.1,60.6L68.1,60.6L68.1,61.6L67.5,61.6L67.5,61.4L67.9,61.4L67.9,60.4L69.9,60.4L69.9,59.9L72.9,59.9L72.9,59.4L74.9,59.4L74.9,56.9L77.9,56.9z" stroke="none"/><path d="M76.5,31.6L76.5,31.4L81.6,31.4L81.6,31.9L82.6,31.9L82.6,34.4L83.1,34.4L83.1,35.9L83.6,35.9L83.6,36.9L84.1,36.9L84.1,39.4L84.6,39.4L84.6,39.9L85.1,39.9L85.1,40.9L87.6,40.9L87.6,41.9L88.5,41.9L88.5,42.1L87.4,42.1L87.4,41.1L84.9,41.1L84.9,40.1L84.4,40.1L84.4,39.6L83.9,39.6L83.9,37.1L83.4,37.1L83.4,36.1L82.9,36.1L82.9,34.6L82.4,34.6L82.4,32.1L81.4,32.1L81.4,31.6z" stroke="none"/><path d="M102.1,96L101.9,96L101.9,93.6L100.9,93.6L100.9,93.1L100.4,93.1L100.4,91.1L99.9,91.1L99.9,90.6L97.9,90.6L97.9,90.1L97.4,90.1L97.4,88.6L96.9,88.6L96.9,86.6L96.4,86.6L96.4,80.4L96.9,80.4L96.9,72.6L95.6,72.6L95.6,73.1L95.1,73.1L95.1,75.6L94.6,75.6L94.6,79.1L94.1,79.1L94.1,80.6L93.6,80.6L93.6,82.6L93,82.6L93,82.4L93.4,82.4L93.4,80.4L93.9,80.4L93.9,78.9L94.4,78.9L94.4,75.4L94.9,75.4L94.9,72.9L95.4,72.9L95.4,72.4L97.1,72.4L97.1,80.6L96.6,80.6L96.6,86.4L97.1,86.4L97.1,88.4L97.6,88.4L97.6,89.9L98.1,89.9L98.1,90.4L100.1,90.4L100.1,90.9L100.6,90.9L100.6,92.9L101.1,92.9L101.1,93.4L102.1,93.4z" stroke="none"/><path d="M33,75.1L33,74.9L34.9,74.9L34.9,74.4L36.9,74.4L36.9,73.9L38.6,73.9L38.6,87.1L36.6,87.1L36.6,87.6L35.6,87.6L35.6,90.6L35.1,90.6L35.1,91.1L33.1,91.1L33.1,91.5L32.9,91.5L32.9,90.9L34.9,90.9L34.9,90.4L35.4,90.4L35.4,87.4L36.4,87.4L36.4,86.9L38.4,86.9L38.4,74.1L37.1,74.1L37.1,74.6L35.1,74.6L35.1,75.1z" stroke="none"/><path d="M48,99.1L48,98.9L63.6,98.9L63.6,99.4L64.6,99.4L64.6,100.5L64.4,100.5L64.4,99.6L63.4,99.6L63.4,99.1z" stroke="none"/><path d="M84,10.4L84,10.6L72.1,10.6L72.1,11.6L69.6,11.6L69.6,12.1L67.5,12.1L67.5,11.9L69.4,11.9L69.4,11.4L71.9,11.4L71.9,10.4z" stroke="none"/><path d="M25.5,12.1L25.5,11.9L26.6,11.9L26.6,12.4L27.6,12.4L27.6,13.4L29.6,13.4L29.6,13.9L30.1,13.9L30.1,16.4L31.1,16.4L31.1,28.1L29.6,28.1L29.6,29.1L28.1,29.1L28.1,30.1L25.6,30.1L25.6,31.6L24.6,31.6L24.6,32.6L24.1,32.6L24.1,33.6L23.1,33.6L23.1,35.6L15.1,35.6L15.1,36.1L14.6,36.1L14.6,36.6L13.1,36.6L13.1,38.1L12.6,38.1L12.6,38.6L10.6,38.6L10.6,39.1L10.1,39.1L10.1,39.6L9.1,39.6L9.1,41.6L7.1,41.6L7.1,42.1L4.4,42.1L4.4,10.4L4.9,10.4L4.9,9.9L5.4,9.9L5.4,9.4L6.4,9.4L6.4,8.9L9.9,8.9L9.9,8.4L10.4,8.4L10.4,7.9L11.4,7.9L11.4,7.4L11.9,7.4L11.9,6.9L12.4,6.9L12.4,5.9L12.9,5.9L12.9,4.4L13.9,4.4L13.9,3.9L14.9,3.9L14.9,2.9L39.6,2.9L39.6,3.4L40.6,3.4L40.6,4.5L40.4,4.5L40.4,3.6L39.4,3.6L39.4,3.1L15.1,3.1L15.1,4.1L14.1,4.1L14.1,4.6L13.1,4.6L13.1,6.1L12.6,6.1L12.6,7.1L12.1,7.1L12.1,7.6L11.6,7.6L11.6,8.1L10.6,8.1L10.6,8.6L10.1,8.6L10.1,9.1L6.6,9.1L6.6,9.6L5.6,9.6L5.6,10.1L5.1,10.1L5.1,10.6L4.6,10.6L4.6,41.9L6.9,41.9L6.9,41.4L8.9,41.4L8.9,39.4L9.9,39.4L9.9,38.9L10.4,38.9L10.4,38.4L12.4,38.4L12.4,37.9L12.9,37.9L12.9,36.4L14.4,36.4L14.4,35.9L14.9,35.9L14.9,35.4L22.9,35.4L22.9,33.4L23.9,33.4L23.9,32.4L24.4,32.4L24.4,31.4L25.4,31.4L25.4,29.9L27.9,29.9L27.9,28.9L29.4,28.9L29.4,27.9L30.9,27.9L30.9,16.6L29.9,16.6L29.9,14.1L29.4,14.1L29.4,13.6L27.4,13.6L27.4,12.6L26.4,12.6L26.4,12.1z" stroke="none"/><path d="M82.5,13.4L82.5,13.6L68.1,13.6L68.1,14.1L67.6,14.1L67.6,14.6L67.1,14.6L67.1,15.1L64.5,15.1L64.5,14.9L66.9,14.9L66.9,14.4L67.4,14.4L67.4,13.9L67.9,13.9L67.9,13.4z" stroke="none"/><path d="M87.1,84L86.9,84L86.9,81.4L87.9,81.4L87.9,79.9L88.4,79.9L88.4,66L88.6,66L88.6,80.1L88.1,80.1L88.1,81.6L87.1,81.6z" stroke="none"/><path d="M58.6,21L58.4,21L58.4,10.1L57.9,10.1L57.9,4.1L57.4,4.1L57.4,3.6L55.9,3.6L55.9,3.1L54,3.1L54,2.9L56.1,2.9L56.1,3.4L57.6,3.4L57.6,3.9L58.1,3.9L58.1,9.9L58.6,9.9z" stroke="none"/><path d="M78,21.1L78,20.9L86.6,20.9L86.6,21.4L88.1,21.4L88.1,21.9L88.9,21.9L88.9,21.4L89.4,21.4L89.4,19.6L88.9,19.6L88.9,19.1L87.9,19.1L87.9,17.6L87.4,17.6L87.4,15.1L86.4,15.1L86.4,12.6L85.9,12.6L85.9,10.9L86.9,10.9L86.9,9.4L89.9,9.4L89.9,8.9L90.9,8.9L90.9,7.9L91.4,7.9L91.4,7.5L91.6,7.5L91.6,8.1L91.1,8.1L91.1,9.1L90.1,9.1L90.1,9.6L87.1,9.6L87.1,11.1L86.1,11.1L86.1,12.4L86.6,12.4L86.6,14.9L87.6,14.9L87.6,17.4L88.1,17.4L88.1,18.9L89.1,18.9L89.1,19.4L89.6,19.4L89.6,21.6L89.1,21.6L89.1,22.1L87.9,22.1L87.9,21.6L86.4,21.6L86.4,21.1z" stroke="none"/><path d="M81.1,39L80.9,39L80.9,38.4L81.4,38.4L81.4,37.9L81.9,37.9L81.9,37.1L81.4,37.1L81.4,36.6L73.1,36.6L73.1,37.1L72.6,37.1L72.6,38.1L69.6,38.1L69.6,38.6L66.1,38.6L66.1,39.1L65.6,39.1L65.6,39.6L64.6,39.6L64.6,40.1L62.4,40.1L62.4,39.6L61.9,39.6L61.9,33.6L61.4,33.6L61.4,33L61.6,33L61.6,33.4L62.1,33.4L62.1,39.4L62.6,39.4L62.6,39.9L64.4,39.9L64.4,39.4L65.4,39.4L65.4,38.9L65.9,38.9L65.9,38.4L69.4,38.4L69.4,37.9L72.4,37.9L72.4,36.9L72.9,36.9L72.9,36.4L81.6,36.4L81.6,36.9L82.1,36.9L82.1,38.1L81.6,38.1L81.6,38.6L81.1,38.6z" stroke="none"/><path d="M100.5,49.6L100.5,49.4L100.9,49.4L100.9,48.4L101.4,48.4L101.4,47.9L101.9,47.9L101.9,44.6L99.9,44.6L99.9,42.6L99.4,42.6L99.4,42.1L98.4,42.1L98.4,41.6L97.9,41.6L97.9,41.1L97.4,41.1L97.4,40.6L96.9,40.6L96.9,40.1L96.4,40.1L96.4,39.6L92.9,39.6L92.9,39.1L91.9,39.1L91.9,38.6L91.4,38.6L91.4,37.1L90.9,37.1L90.9,36.6L88.9,36.6L88.9,33.6L88.4,33.6L88.4,33L88.6,33L88.6,33.4L89.1,33.4L89.1,36.4L91.1,36.4L91.1,36.9L91.6,36.9L91.6,38.4L92.1,38.4L92.1,38.9L93.1,38.9L93.1,39.4L96.6,39.4L96.6,39.9L97.1,39.9L97.1,40.4L97.6,40.4L97.6,40.9L98.1,40.9L98.1,41.4L98.6,41.4L98.6,41.9L99.6,41.9L99.6,42.4L100.1,42.4L100.1,44.4L102.1,44.4L102.1,48.1L101.6,48.1L101.6,48.6L101.1,48.6L101.1,49.6z" stroke="none"/><path d="M76.5,40.4L76.5,40.6L73.9,40.6L73.9,40.1L73.4,40.1L73.4,39.6L69.6,39.6L69.6,40.1L69.1,40.1L69.1,41.1L68.6,41.1L68.6,42.1L68.1,42.1L68.1,42.6L67.1,42.6L67.1,43.6L66.1,43.6L66.1,44.1L65.6,44.1L65.6,45.1L64.6,45.1L64.6,45.6L63.6,45.6L63.6,46.9L64.1,46.9L64.1,47.4L79.1,47.4L79.1,47.9L80.1,47.9L80.1,48.9L81.6,48.9L81.6,49.4L85.1,49.4L85.1,49.9L86.1,49.9L86.1,51.9L88.6,51.9L88.6,52.4L90.6,52.4L90.6,53.9L91.6,53.9L91.6,55.5L91.4,55.5L91.4,54.1L90.4,54.1L90.4,52.6L88.4,52.6L88.4,52.1L85.9,52.1L85.9,50.1L84.9,50.1L84.9,49.6L81.4,49.6L81.4,49.1L79.9,49.1L79.9,48.1L78.9,48.1L78.9,47.6L63.9,47.6L63.9,47.1L63.4,47.1L63.4,45.4L64.4,45.4L64.4,44.9L65.4,44.9L65.4,43.9L65.9,43.9L65.9,43.4L66.9,43.4L66.9,42.4L67.9,42.4L67.9,41.9L68.4,41.9L68.4,40.9L68.9,40.9L68.9,39.9L69.4,39.9L69.4,39.4L73.6,39.4L73.6,39.9L74.1,39.9L74.1,40.4z" stroke="none"/><path d="M13.4,73.5L13.6,73.5L13.6,93.6L11.1,93.6L11.1,94.6L10.5,94.6L10.5,94.4L10.9,94.4L10.9,93.4L13.4,93.4z" stroke="none"/><path d="M98.9,3L99.1,3L99.1,4.9L99.6,4.9L99.6,5.4L100.1,5.4L100.1,5.9L100.6,5.9L100.6,6.4L101.1,6.4L101.1,7.4L102.1,7.4L102.1,8.4L102.6,8.4L102.6,9.4L103.1,9.4L103.1,21.6L102.6,21.6L102.6,22.1L90.6,22.1L90.6,22.6L76.9,22.6L76.9,20.4L77.4,20.4L77.4,19.9L78.9,19.9L78.9,18.9L81.4,18.9L81.4,18.4L81.9,18.4L81.9,16.9L82.4,16.9L82.4,16.5L82.6,16.5L82.6,17.1L82.1,17.1L82.1,18.6L81.6,18.6L81.6,19.1L79.1,19.1L79.1,20.1L77.6,20.1L77.6,20.6L77.1,20.6L77.1,22.4L90.4,22.4L90.4,21.9L102.4,21.9L102.4,21.4L102.9,21.4L102.9,9.6L102.4,9.6L102.4,8.6L101.9,8.6L101.9,7.6L100.9,7.6L100.9,6.6L100.4,6.6L100.4,6.1L99.9,6.1L99.9,5.6L99.4,5.6L99.4,5.1L98.9,5.1z" stroke="none"/><path d="M51,60.1L51,59.9L60.6,59.9L60.6,60.4L61.6,60.4L61.6,61.4L65.6,61.4L65.6,63.4L66.6,63.4L66.6,63.9L67.6,63.9L67.6,65.9L68.1,65.9L68.1,66.4L70.1,66.4L70.1,68.9L70.5,68.9L70.5,69.1L69.9,69.1L69.9,66.6L67.9,66.6L67.9,66.1L67.4,66.1L67.4,64.1L66.4,64.1L66.4,63.6L65.4,63.6L65.4,61.6L61.4,61.6L61.4,60.6L60.4,60.6L60.4,60.1z" stroke="none"/><path d="M54,57.1L54,56.9L64.6,56.9L64.6,57.4L65.1,57.4L65.1,58.9L65.6,58.9L65.6,59.9L66.1,59.9L66.1,61.9L67.1,61.9L67.1,62.4L68.6,62.4L68.6,62.9L69.1,62.9L69.1,63.4L70.1,63.4L70.1,63.9L71.6,63.9L71.6,64.4L72.1,64.4L72.1,64.9L72.6,64.9L72.6,66.4L73.1,66.4L73.1,67.4L73.5,67.4L73.5,67.6L72.9,67.6L72.9,66.6L72.4,66.6L72.4,65.1L71.9,65.1L71.9,64.6L71.4,64.6L71.4,64.1L69.9,64.1L69.9,63.6L68.9,63.6L68.9,63.1L68.4,63.1L68.4,62.6L66.9,62.6L66.9,62.1L65.9,62.1L65.9,60.1L65.4,60.1L65.4,59.1L64.9,59.1L64.9,57.6L64.4,57.6L64.4,57.1z" stroke="none"/><path d="M10.5,91.4L10.5,91.6L10.1,91.6L10.1,92.6L9.6,92.6L9.6,94.9L10.1,94.9L10.1,95.4L17.4,95.4L17.4,90.4L17.9,90.4L17.9,89.9L18.4,89.9L18.4,74.4L18.9,74.4L18.9,73.9L19.9,73.9L19.9,72.9L20.9,72.9L20.9,71.9L22.5,71.9L22.5,72.1L21.1,72.1L21.1,73.1L20.1,73.1L20.1,74.1L19.1,74.1L19.1,74.6L18.6,74.6L18.6,90.1L18.1,90.1L18.1,90.6L17.6,90.6L17.6,95.6L9.9,95.6L9.9,95.1L9.4,95.1L9.4,92.4L9.9,92.4L9.9,91.4z" stroke="none"/><path d="M85.5,101.9L85.5,102.1L71.9,102.1L71.9,101.6L71.4,101.6L71.4,101.1L65.4,101.1L65.4,100.1L64.9,100.1L64.9,98.6L64.4,98.6L64.4,98.1L63.9,98.1L63.9,97.6L63,97.6L63,97.4L64.1,97.4L64.1,97.9L64.6,97.9L64.6,98.4L65.1,98.4L65.1,99.9L65.6,99.9L65.6,100.9L71.6,100.9L71.6,101.4L72.1,101.4L72.1,101.9z" stroke="none"/><path d="M78.1,45L77.9,45L77.9,43.9L78.9,43.9L78.9,43.4L79.4,43.4L79.4,42.4L79.9,42.4L79.9,41.9L80.9,41.9L80.9,41.4L81.4,41.4L81.4,39.4L81.9,39.4L81.9,38.9L82.4,38.9L82.4,36.6L81.9,36.6L81.9,36.1L78.4,36.1L78.4,35.1L77.9,35.1L77.9,34.1L76.9,34.1L76.9,33.1L76.4,33.1L76.4,32.6L75.4,32.6L75.4,30.4L82.1,30.4L82.1,30.9L88.1,30.9L88.1,31.4L89.1,31.4L89.1,32.4L89.6,32.4L89.6,35.4L91.6,35.4L91.6,35.9L92.1,35.9L92.1,36.9L95.1,36.9L95.1,37.4L98.6,37.4L98.6,38.4L99.1,38.4L99.1,39.4L99.6,39.4L99.6,39.9L100.1,39.9L100.1,40.4L100.6,40.4L100.6,43.4L101.6,43.4L101.6,43.9L102.6,43.9L102.6,52.1L101.1,52.1L101.1,52.6L100.5,52.6L100.5,52.4L100.9,52.4L100.9,51.9L102.4,51.9L102.4,44.1L101.4,44.1L101.4,43.6L100.4,43.6L100.4,40.6L99.9,40.6L99.9,40.1L99.4,40.1L99.4,39.6L98.9,39.6L98.9,38.6L98.4,38.6L98.4,37.6L94.9,37.6L94.9,37.1L91.9,37.1L91.9,36.1L91.4,36.1L91.4,35.6L89.4,35.6L89.4,32.6L88.9,32.6L88.9,31.6L87.9,31.6L87.9,31.1L81.9,31.1L81.9,30.6L75.6,30.6L75.6,32.4L76.6,32.4L76.6,32.9L77.1,32.9L77.1,33.9L78.1,33.9L78.1,34.9L78.6,34.9L78.6,35.9L82.1,35.9L82.1,36.4L82.6,36.4L82.6,39.1L82.1,39.1L82.1,39.6L81.6,39.6L81.6,41.6L81.1,41.6L81.1,42.1L80.1,42.1L80.1,42.6L79.6,42.6L79.6,43.6L79.1,43.6L79.1,44.1L78.1,44.1z" stroke="none"/><path d="M101.9,6L102.1,6L102.1,6.9L103.1,6.9L103.1,7.4L103.6,7.4L103.6,22.6L91.6,22.6L91.6,23.1L76.4,23.1L76.4,19.4L78.4,19.4L78.4,18.4L79.9,18.4L79.9,17.9L81,17.9L81,18.1L80.1,18.1L80.1,18.6L78.6,18.6L78.6,19.6L76.6,19.6L76.6,22.9L91.4,22.9L91.4,22.4L103.4,22.4L103.4,7.6L102.9,7.6L102.9,7.1L101.9,7.1z" stroke="none"/><path d="M49.6,34.5L49.4,34.5L49.4,25.1L48.4,25.1L48.4,20.4L48.9,20.4L48.9,18.1L48.4,18.1L48.4,17.6L47.9,17.6L47.9,16.6L47.4,16.6L47.4,15.6L46.9,15.6L46.9,13.1L45.4,13.1L45.4,10.6L45,10.6L45,10.4L45.6,10.4L45.6,12.9L47.1,12.9L47.1,15.4L47.6,15.4L47.6,16.4L48.1,16.4L48.1,17.4L48.6,17.4L48.6,17.9L49.1,17.9L49.1,20.6L48.6,20.6L48.6,24.9L49.6,24.9z" stroke="none"/><path d="M57.1,27L56.9,27L56.9,23.9L57.4,23.9L57.4,23.4L57.9,23.4L57.9,22.9L58.4,22.9L58.4,22.4L58.9,22.4L58.9,21.9L59.4,21.9L59.4,15.4L60.9,15.4L60.9,14.4L62.4,14.4L62.4,12.4L62.9,12.4L62.9,11.4L65.4,11.4L65.4,10.9L65.9,10.9L65.9,10.4L68.9,10.4L68.9,9.4L70.9,9.4L70.9,7.9L71.9,7.9L71.9,7.5L72.1,7.5L72.1,8.1L71.1,8.1L71.1,9.6L69.1,9.6L69.1,10.6L66.1,10.6L66.1,11.1L65.6,11.1L65.6,11.6L63.1,11.6L63.1,12.6L62.6,12.6L62.6,14.6L61.1,14.6L61.1,15.6L59.6,15.6L59.6,22.1L59.1,22.1L59.1,22.6L58.6,22.6L58.6,23.1L58.1,23.1L58.1,23.6L57.6,23.6L57.6,24.1L57.1,24.1z" stroke="none"/><path d="M70.5,10.6L70.5,10.4L71.4,10.4L71.4,9.9L79.9,9.9L79.9,8.4L80.9,8.4L80.9,7.9L81.4,7.9L81.4,6.9L82.9,6.9L82.9,6.4L84.9,6.4L84.9,5.9L85.4,5.9L85.4,4.9L89.1,4.9L89.1,5.9L90.1,5.9L90.1,6.4L92.1,6.4L92.1,6.9L92.6,6.9L92.6,13.9L93.1,13.9L93.1,14.9L93.6,14.9L93.6,15.4L94.1,15.4L94.1,15.9L94.6,15.9L94.6,16.5L94.4,16.5L94.4,16.1L93.9,16.1L93.9,15.6L93.4,15.6L93.4,15.1L92.9,15.1L92.9,14.1L92.4,14.1L92.4,7.1L91.9,7.1L91.9,6.6L89.9,6.6L89.9,6.1L88.9,6.1L88.9,5.1L85.6,5.1L85.6,6.1L85.1,6.1L85.1,6.6L83.1,6.6L83.1,7.1L81.6,7.1L81.6,8.1L81.1,8.1L81.1,8.6L80.1,8.6L80.1,10.1L71.6,10.1L71.6,10.6z" stroke="none"/><path d="M22.4,81L22.6,81L22.6,90.6L22.1,90.6L22.1,91.1L21.1,91.1L21.1,92.1L20.6,92.1L20.6,93.1L20.1,93.1L20.1,93.6L19.1,93.6L19.1,96.1L9.4,96.1L9.4,95.6L8.9,95.6L8.9,95.1L7.9,95.1L7.9,94.1L6.9,94.1L6.9,91.1L5.9,91.1L5.9,90.6L5.4,90.6L5.4,90.1L3.9,90.1L3.9,87.6L3.4,87.6L3.4,61.9L4.4,61.9L4.4,61.5L4.6,61.5L4.6,62.1L3.6,62.1L3.6,87.4L4.1,87.4L4.1,89.9L5.6,89.9L5.6,90.4L6.1,90.4L6.1,90.9L7.1,90.9L7.1,93.9L8.1,93.9L8.1,94.9L9.1,94.9L9.1,95.4L9.6,95.4L9.6,95.9L18.9,95.9L18.9,93.4L19.9,93.4L19.9,92.9L20.4,92.9L20.4,91.9L20.9,91.9L20.9,90.9L21.9,90.9L21.9,90.4L22.4,90.4z" stroke="none"/><path d="M82.5,67.6L82.5,67.4L83.4,67.4L83.4,66.4L85.4,66.4L85.4,65.9L87.4,65.9L87.4,65.4L87.9,65.4L87.9,64.9L93.4,64.9L93.4,63.9L95.9,63.9L95.9,63.4L98.1,63.4L98.1,63.9L98.6,63.9L98.6,64.4L99.6,64.4L99.6,69.9L100.1,69.9L100.1,70.4L100.6,70.4L100.6,71.4L101.1,71.4L101.1,71.9L102.1,71.9L102.1,72.4L102.6,72.4L102.6,72.9L103.1,72.9L103.1,84.6L102.6,84.6L102.6,85.6L102.1,85.6L102.1,86.1L101.1,86.1L101.1,86.6L99.6,86.6L99.6,88.1L99.1,88.1L99.1,88.5L98.9,88.5L98.9,87.9L99.4,87.9L99.4,86.4L100.9,86.4L100.9,85.9L101.9,85.9L101.9,85.4L102.4,85.4L102.4,84.4L102.9,84.4L102.9,73.1L102.4,73.1L102.4,72.6L101.9,72.6L101.9,72.1L100.9,72.1L100.9,71.6L100.4,71.6L100.4,70.6L99.9,70.6L99.9,70.1L99.4,70.1L99.4,64.6L98.4,64.6L98.4,64.1L97.9,64.1L97.9,63.6L96.1,63.6L96.1,64.1L93.6,64.1L93.6,65.1L88.1,65.1L88.1,65.6L87.6,65.6L87.6,66.1L85.6,66.1L85.6,66.6L83.6,66.6L83.6,67.6z" stroke="none"/><path d="M4.4,91.5L4.6,91.5L4.6,93.9L5.1,93.9L5.1,94.4L7.1,94.4L7.1,94.9L7.6,94.9L7.6,95.4L8.1,95.4L8.1,95.9L9.1,95.9L9.1,96.4L19.4,96.4L19.4,94.9L20.4,94.9L20.4,93.9L20.9,93.9L20.9,92.4L21.4,92.4L21.4,91.9L22.4,91.9L22.4,90.9L22.9,90.9L22.9,82.9L23.4,82.9L23.4,81.9L23.9,81.9L23.9,80.4L25.4,80.4L25.4,78.4L25.9,78.4L25.9,76.4L27,76.4L27,76.6L26.1,76.6L26.1,78.6L25.6,78.6L25.6,80.6L24.1,80.6L24.1,82.1L23.6,82.1L23.6,83.1L23.1,83.1L23.1,91.1L22.6,91.1L22.6,92.1L21.6,92.1L21.6,92.6L21.1,92.6L21.1,94.1L20.6,94.1L20.6,95.1L19.6,95.1L19.6,96.6L8.9,96.6L8.9,96.1L7.9,96.1L7.9,95.6L7.4,95.6L7.4,95.1L6.9,95.1L6.9,94.6L4.9,94.6L4.9,94.1L4.4,94.1z" stroke="none"/><path d="M43.4,63L43.6,63L43.6,65.1L42.6,65.1L42.6,65.6L41.6,65.6L41.6,66.1L40.1,66.1L40.1,67.1L39.6,67.1L39.6,68.1L39.1,68.1L39.1,68.6L38.6,68.6L38.6,69.1L37.1,69.1L37.1,69.6L36.1,69.6L36.1,70.1L35.1,70.1L35.1,70.6L34.6,70.6L34.6,71.1L34.1,71.1L34.1,73.1L33.6,73.1L33.6,73.6L32.1,73.6L32.1,79.1L31.6,79.1L31.6,88.1L31.1,88.1L31.1,94.6L30.6,94.6L30.6,95.6L30.1,95.6L30.1,97.1L29.6,97.1L29.6,98.1L29.1,98.1L29.1,98.6L28.6,98.6L28.6,99.1L28.1,99.1L28.1,100.1L27.1,100.1L27.1,101.1L26.1,101.1L26.1,102.9L37.4,102.9L37.4,101.9L37.9,101.9L37.9,100.4L38.4,100.4L38.4,99.9L38.9,99.9L38.9,99.4L39.9,99.4L39.9,94.4L40.4,94.4L40.4,93.9L40.9,93.9L40.9,93.4L42.4,93.4L42.4,92.9L42.9,92.9L42.9,91.4L43.4,91.4L43.4,89.9L45,89.9L45,90.1L43.6,90.1L43.6,91.6L43.1,91.6L43.1,93.1L42.6,93.1L42.6,93.6L41.1,93.6L41.1,94.1L40.6,94.1L40.6,94.6L40.1,94.6L40.1,99.6L39.1,99.6L39.1,100.1L38.6,100.1L38.6,100.6L38.1,100.6L38.1,102.1L37.6,102.1L37.6,103.1L25.9,103.1L25.9,100.9L26.9,100.9L26.9,99.9L27.9,99.9L27.9,98.9L28.4,98.9L28.4,98.4L28.9,98.4L28.9,97.9L29.4,97.9L29.4,96.9L29.9,96.9L29.9,95.4L30.4,95.4L30.4,94.4L30.9,94.4L30.9,87.9L31.4,87.9L31.4,78.9L31.9,78.9L31.9,73.4L33.4,73.4L33.4,72.9L33.9,72.9L33.9,70.9L34.4,70.9L34.4,70.4L34.9,70.4L34.9,69.9L35.9,69.9L35.9,69.4L36.9,69.4L36.9,68.9L38.4,68.9L38.4,68.4L38.9,68.4L38.9,67.9L39.4,67.9L39.4,66.9L39.9,66.9L39.9,65.9L41.4,65.9L41.4,65.4L42.4,65.4L42.4,64.9L43.4,64.9z" stroke="none"/><path d="M5.9,57L6.1,57L6.1,59.6L5.1,59.6L5.1,60.1L4.6,60.1L4.6,60.6L4.1,60.6L4.1,61.1L3.1,61.1L3.1,94.9L4.6,94.9L4.6,95.4L7.1,95.4L7.1,95.9L7.6,95.9L7.6,96.4L8.6,96.4L8.6,96.9L20.9,96.9L20.9,95.4L21.9,95.4L21.9,92.9L22.4,92.9L22.4,92.4L22.9,92.4L22.9,91.4L23.4,91.4L23.4,83.9L23.9,83.9L23.9,82.4L24.9,82.4L24.9,81.4L25.4,81.4L25.4,80.9L25.9,80.9L25.9,78.9L26.4,78.9L26.4,78.4L27.9,78.4L27.9,75.6L26.6,75.6L26.6,76.1L25.6,76.1L25.6,78.1L25.1,78.1L25.1,78.6L24.6,78.6L24.6,79.1L21.1,79.1L21.1,79.6L20.1,79.6L20.1,80.6L19.6,80.6L19.6,81L19.4,81L19.4,80.4L19.9,80.4L19.9,79.4L20.9,79.4L20.9,78.9L24.4,78.9L24.4,78.4L24.9,78.4L24.9,77.9L25.4,77.9L25.4,75.9L26.4,75.9L26.4,75.4L28.1,75.4L28.1,78.6L26.6,78.6L26.6,79.1L26.1,79.1L26.1,81.1L25.6,81.1L25.6,81.6L25.1,81.6L25.1,82.6L24.1,82.6L24.1,84.1L23.6,84.1L23.6,91.6L23.1,91.6L23.1,92.6L22.6,92.6L22.6,93.1L22.1,93.1L22.1,95.6L21.1,95.6L21.1,97.1L8.4,97.1L8.4,96.6L7.4,96.6L7.4,96.1L6.9,96.1L6.9,95.6L4.4,95.6L4.4,95.1L2.9,95.1L2.9,60.9L3.9,60.9L3.9,60.4L4.4,60.4L4.4,59.9L4.9,59.9L4.9,59.4L5.9,59.4z" stroke="none"/><path d="M63.1,48L62.9,48L62.9,44.9L63.4,44.9L63.4,44.4L63.9,44.4L63.9,41.1L62.4,41.1L62.4,40.6L61.4,40.6L61.4,34.1L60.9,34.1L60.9,33.6L60.4,33.6L60.4,27.6L58.9,27.6L58.9,27.1L57.9,27.1L57.9,26.6L57.4,26.6L57.4,24.9L57.9,24.9L57.9,24.4L59.1,24.4L59.1,24.9L59.6,24.9L59.6,25.9L61.6,25.9L61.6,26.9L62.1,26.9L62.1,28.4L63.1,28.4L63.1,28.9L65.6,28.9L65.6,29.4L81.9,29.4L81.9,28.9L84.4,28.9L84.4,27.9L86.4,27.9L86.4,27.4L87.6,27.4L87.6,27.9L88.1,27.9L88.1,28.4L89.1,28.4L89.1,29.9L91.1,29.9L91.1,30.9L92.1,30.9L92.1,31.4L92.6,31.4L92.6,31.9L93.1,31.9L93.1,32.4L93.6,32.4L93.6,32.9L94.1,32.9L94.1,33.4L95.6,33.4L95.6,33.9L96.6,33.9L96.6,34.4L97.1,34.4L97.1,36.9L99.1,36.9L99.1,37.4L99.6,37.4L99.6,38.4L100.1,38.4L100.1,38.9L100.6,38.9L100.6,39.4L101.1,39.4L101.1,41.4L101.6,41.4L101.6,41.9L102.1,41.9L102.1,42.4L103.1,42.4L103.1,58.1L99.6,58.1L99.6,60.6L99.1,60.6L99.1,61.1L96.1,61.1L96.1,61.6L95.6,61.6L95.6,62.1L94.6,62.1L94.6,63.1L92.6,63.1L92.6,63.6L92.1,63.6L92.1,64.1L87.9,64.1L87.9,63.1L87,63.1L87,62.9L88.1,62.9L88.1,63.9L91.9,63.9L91.9,63.4L92.4,63.4L92.4,62.9L94.4,62.9L94.4,61.9L95.4,61.9L95.4,61.4L95.9,61.4L95.9,60.9L98.9,60.9L98.9,60.4L99.4,60.4L99.4,57.9L102.9,57.9L102.9,42.6L101.9,42.6L101.9,42.1L101.4,42.1L101.4,41.6L100.9,41.6L100.9,39.6L100.4,39.6L100.4,39.1L99.9,39.1L99.9,38.6L99.4,38.6L99.4,37.6L98.9,37.6L98.9,37.1L96.9,37.1L96.9,34.6L96.4,34.6L96.4,34.1L95.4,34.1L95.4,33.6L93.9,33.6L93.9,33.1L93.4,33.1L93.4,32.6L92.9,32.6L92.9,32.1L92.4,32.1L92.4,31.6L91.9,31.6L91.9,31.1L90.9,31.1L90.9,30.1L88.9,30.1L88.9,28.6L87.9,28.6L87.9,28.1L87.4,28.1L87.4,27.6L86.6,27.6L86.6,28.1L84.6,28.1L84.6,29.1L82.1,29.1L82.1,29.6L65.4,29.6L65.4,29.1L62.9,29.1L62.9,28.6L61.9,28.6L61.9,27.1L61.4,27.1L61.4,26.1L59.4,26.1L59.4,25.1L58.9,25.1L58.9,24.6L58.1,24.6L58.1,25.1L57.6,25.1L57.6,26.4L58.1,26.4L58.1,26.9L59.1,26.9L59.1,27.4L60.6,27.4L60.6,33.4L61.1,33.4L61.1,33.9L61.6,33.9L61.6,40.4L62.6,40.4L62.6,40.9L64.1,40.9L64.1,44.6L63.6,44.6L63.6,45.1L63.1,45.1z" stroke="none"/><path d="M92.9,84L93.1,84L93.1,84.6L88.1,84.6L88.1,85.1L86.4,85.1L86.4,84.6L85.9,84.6L85.9,79.9L86.4,79.9L86.4,79.1L85.9,79.1L85.9,78.6L85.1,78.6L85.1,79.1L84.6,79.1L84.6,88.6L83.6,88.6L83.6,89.1L82.6,89.1L82.6,89.6L82.1,89.6L82.1,90.6L81.6,90.6L81.6,94.9L82.6,94.9L82.6,97.4L83.1,97.4L83.1,97.9L83.6,97.9L83.6,99.9L84.6,99.9L84.6,100.4L85.1,100.4L85.1,100.9L86.6,100.9L86.6,103.1L70.4,103.1L70.4,102L70.6,102L70.6,102.9L86.4,102.9L86.4,101.1L84.9,101.1L84.9,100.6L84.4,100.6L84.4,100.1L83.4,100.1L83.4,98.1L82.9,98.1L82.9,97.6L82.4,97.6L82.4,95.1L81.4,95.1L81.4,90.4L81.9,90.4L81.9,89.4L82.4,89.4L82.4,88.9L83.4,88.9L83.4,88.4L84.4,88.4L84.4,78.9L84.9,78.9L84.9,78.4L86.1,78.4L86.1,78.9L86.6,78.9L86.6,80.1L86.1,80.1L86.1,84.4L86.6,84.4L86.6,84.9L87.9,84.9L87.9,84.4L92.9,84.4z" stroke="none"/><path d="M28.6,102L28.4,102L28.4,100.9L29.4,100.9L29.4,100.4L30.9,100.4L30.9,99.4L32.4,99.4L32.4,98.9L33.9,98.9L33.9,98.4L35.9,98.4L35.9,97.9L36.4,97.9L36.4,97.4L37.9,97.4L37.9,96.4L38.4,96.4L38.4,93.9L39.4,93.9L39.4,93.4L39.9,93.4L39.9,92.9L40.9,92.9L40.9,90.4L42.4,90.4L42.4,89.9L42.9,89.9L42.9,89.4L43.9,89.4L43.9,88.9L46.1,88.9L46.1,94.1L45.6,94.1L45.6,94.6L45.1,94.6L45.1,96.6L44.6,96.6L44.6,97.6L44.1,97.6L44.1,98.1L42.6,98.1L42.6,98.6L42.1,98.6L42.1,100.1L39.6,100.1L39.6,101.6L38.6,101.6L38.6,102.6L38.1,102.6L38.1,103.6L25.4,103.6L25.4,99.9L26.4,99.9L26.4,79.9L27.4,79.9L27.4,79.4L27.9,79.4L27.9,78.9L28.4,78.9L28.4,71.9L29.4,71.9L29.4,70.4L29.9,70.4L29.9,69.9L31.9,69.9L31.9,68.9L32.4,68.9L32.4,68.4L33.4,68.4L33.4,67.9L33.9,67.9L33.9,67.4L34.4,67.4L34.4,65.9L34.9,65.9L34.9,65.4L35.9,65.4L35.9,64.4L37.4,64.4L37.4,63.9L38.9,63.9L38.9,62.9L39.9,62.9L39.9,62.4L41.9,62.4L41.9,61.9L44.1,61.9L44.1,62.4L44.6,62.4L44.6,65.1L44.1,65.1L44.1,65.6L43.6,65.6L43.6,66.1L42.1,66.1L42.1,66.6L41.6,66.6L41.6,67.6L40.6,67.6L40.6,68.6L40.1,68.6L40.1,69.1L39.6,69.1L39.6,69.6L37.6,69.6L37.6,72.1L37.1,72.1L37.1,73.1L35.1,73.1L35.1,73.6L34.5,73.6L34.5,73.4L34.9,73.4L34.9,72.9L36.9,72.9L36.9,71.9L37.4,71.9L37.4,69.4L39.4,69.4L39.4,68.9L39.9,68.9L39.9,68.4L40.4,68.4L40.4,67.4L41.4,67.4L41.4,66.4L41.9,66.4L41.9,65.9L43.4,65.9L43.4,65.4L43.9,65.4L43.9,64.9L44.4,64.9L44.4,62.6L43.9,62.6L43.9,62.1L42.1,62.1L42.1,62.6L40.1,62.6L40.1,63.1L39.1,63.1L39.1,64.1L37.6,64.1L37.6,64.6L36.1,64.6L36.1,65.6L35.1,65.6L35.1,66.1L34.6,66.1L34.6,67.6L34.1,67.6L34.1,68.1L33.6,68.1L33.6,68.6L32.6,68.6L32.6,69.1L32.1,69.1L32.1,70.1L30.1,70.1L30.1,70.6L29.6,70.6L29.6,72.1L28.6,72.1L28.6,79.1L28.1,79.1L28.1,79.6L27.6,79.6L27.6,80.1L26.6,80.1L26.6,100.1L25.6,100.1L25.6,103.4L37.9,103.4L37.9,102.4L38.4,102.4L38.4,101.4L39.4,101.4L39.4,99.9L41.9,99.9L41.9,98.4L42.4,98.4L42.4,97.9L43.9,97.9L43.9,97.4L44.4,97.4L44.4,96.4L44.9,96.4L44.9,94.4L45.4,94.4L45.4,93.9L45.9,93.9L45.9,89.1L44.1,89.1L44.1,89.6L43.1,89.6L43.1,90.1L42.6,90.1L42.6,90.6L41.1,90.6L41.1,93.1L40.1,93.1L40.1,93.6L39.6,93.6L39.6,94.1L38.6,94.1L38.6,96.6L38.1,96.6L38.1,97.6L36.6,97.6L36.6,98.1L36.1,98.1L36.1,98.6L34.1,98.6L34.1,99.1L32.6,99.1L32.6,99.6L31.1,99.6L31.1,100.6L29.6,100.6L29.6,101.1L28.6,101.1z" stroke="none"/><path d="M46.5,6.1L46.5,5.9L53.1,5.9L53.1,6.4L53.6,6.4L53.6,10.4L54.1,10.4L54.1,10.9L54.6,10.9L54.6,11.4L55.1,11.4L55.1,32.9L56.1,32.9L56.1,33.4L57.1,33.4L57.1,34.5L56.9,34.5L56.9,33.6L55.9,33.6L55.9,33.1L54.9,33.1L54.9,11.6L54.4,11.6L54.4,11.1L53.9,11.1L53.9,10.6L53.4,10.6L53.4,6.6L52.9,6.6L52.9,6.1z" stroke="none"/><path d="M58.5,37.4L58.5,37.6L51.9,37.6L51.9,37.1L49.9,37.1L49.9,36.6L49.4,36.6L49.4,36.1L48.9,36.1L48.9,35.1L48.4,35.1L48.4,25.6L47.4,25.6L47.4,24.1L46.9,24.1L46.9,23.1L45.9,23.1L45.9,22.6L44.9,22.6L44.9,22.1L43.9,22.1L43.9,21.1L42.9,21.1L42.9,20.6L42.4,20.6L42.4,14.1L41.4,14.1L41.4,13.1L40.9,13.1L40.9,11.6L40.4,11.6L40.4,10.6L39.9,10.6L39.9,9.6L37.4,9.6L37.4,7.6L36,7.6L36,7.4L37.6,7.4L37.6,9.4L40.1,9.4L40.1,10.4L40.6,10.4L40.6,11.4L41.1,11.4L41.1,12.9L41.6,12.9L41.6,13.9L42.6,13.9L42.6,20.4L43.1,20.4L43.1,20.9L44.1,20.9L44.1,21.9L45.1,21.9L45.1,22.4L46.1,22.4L46.1,22.9L47.1,22.9L47.1,23.9L47.6,23.9L47.6,25.4L48.6,25.4L48.6,34.9L49.1,34.9L49.1,35.9L49.6,35.9L49.6,36.4L50.1,36.4L50.1,36.9L52.1,36.9L52.1,37.4z" stroke="none"/><path d="M40.5,51.1L40.5,50.9L43.4,50.9L43.4,50.4L44.4,50.4L44.4,49.9L45.4,49.9L45.4,48.9L46.4,48.9L46.4,48.4L50.9,48.4L50.9,47.9L51.9,47.9L51.9,47.4L53.4,47.4L53.4,46.9L55.4,46.9L55.4,46.4L57.4,46.4L57.4,44.9L58.9,44.9L58.9,44.4L59.4,44.4L59.4,34.6L58.9,34.6L58.9,34.1L57.9,34.1L57.9,32.6L57.4,32.6L57.4,32.1L56.4,32.1L56.4,29.6L55.9,29.6L55.9,5.1L54.4,5.1L54.4,4.6L53.9,4.6L53.9,4.1L53.4,4.1L53.4,3.6L52.9,3.6L52.9,2.4L53.4,2.4L53.4,1.9L101.1,1.9L101.1,2.4L101.6,2.4L101.6,3.4L103.1,3.4L103.1,5.9L103.6,5.9L103.6,6.4L104.1,6.4L104.1,37.1L100.4,37.1L100.4,36.6L99.9,36.6L99.9,34.6L99.4,34.6L99.4,34.1L97.9,34.1L97.9,33.1L96.9,33.1L96.9,28.1L96.4,28.1L96.4,27.6L95.4,27.6L95.4,27.1L94.4,27.1L94.4,26.6L85.9,26.6L85.9,26.1L77.9,26.1L77.9,25.1L76.4,25.1L76.4,23.6L75.9,23.6L75.9,22.1L74.9,22.1L74.9,21.6L73.9,21.6L73.9,21.1L71.9,21.1L71.9,20.6L71.4,20.6L71.4,19.1L70.9,19.1L70.9,18.6L70.4,18.6L70.4,18.1L69.9,18.1L69.9,17.6L68.4,17.6L68.4,17.1L66.1,17.1L66.1,18.6L65.6,18.6L65.6,19.1L64.6,19.1L64.6,19.6L63.6,19.6L63.6,20.1L63.1,20.1L63.1,21L62.9,21L62.9,19.9L63.4,19.9L63.4,19.4L64.4,19.4L64.4,18.9L65.4,18.9L65.4,18.4L65.9,18.4L65.9,16.9L68.6,16.9L68.6,17.4L70.1,17.4L70.1,17.9L70.6,17.9L70.6,18.4L71.1,18.4L71.1,18.9L71.6,18.9L71.6,20.4L72.1,20.4L72.1,20.9L74.1,20.9L74.1,21.4L75.1,21.4L75.1,21.9L76.1,21.9L76.1,23.4L76.6,23.4L76.6,24.9L78.1,24.9L78.1,25.9L86.1,25.9L86.1,26.4L94.6,26.4L94.6,26.9L95.6,26.9L95.6,27.4L96.6,27.4L96.6,27.9L97.1,27.9L97.1,32.9L98.1,32.9L98.1,33.9L99.6,33.9L99.6,34.4L100.1,34.4L100.1,36.4L100.6,36.4L100.6,36.9L103.9,36.9L103.9,6.6L103.4,6.6L103.4,6.1L102.9,6.1L102.9,3.6L101.4,3.6L101.4,2.6L100.9,2.6L100.9,2.1L53.6,2.1L53.6,2.6L53.1,2.6L53.1,3.4L53.6,3.4L53.6,3.9L54.1,3.9L54.1,4.4L54.6,4.4L54.6,4.9L56.1,4.9L56.1,29.4L56.6,29.4L56.6,31.9L57.6,31.9L57.6,32.4L58.1,32.4L58.1,33.9L59.1,33.9L59.1,34.4L59.6,34.4L59.6,44.6L59.1,44.6L59.1,45.1L57.6,45.1L57.6,46.6L55.6,46.6L55.6,47.1L53.6,47.1L53.6,47.6L52.1,47.6L52.1,48.1L51.1,48.1L51.1,48.6L46.6,48.6L46.6,49.1L45.6,49.1L45.6,50.1L44.6,50.1L44.6,50.6L43.6,50.6L43.6,51.1z" stroke="none"/><path d="M2.9,4.5L3.1,4.5L3.1,39.9L4.1,39.9L4.1,42.4L18.9,42.4L18.9,41.9L19.4,41.9L19.4,40.4L19.9,40.4L19.9,39.4L21.4,39.4L21.4,36.9L22.4,36.9L22.4,36.4L22.9,36.4L22.9,35.9L23.4,35.9L23.4,35.4L26.4,35.4L26.4,34.9L26.9,34.9L26.9,34.4L27.4,34.4L27.4,33.4L28.4,33.4L28.4,32.4L29.4,32.4L29.4,30.9L29.9,30.9L29.9,30.4L31.9,30.4L31.9,29.9L33,29.9L33,30.1L32.1,30.1L32.1,30.6L30.1,30.6L30.1,31.1L29.6,31.1L29.6,32.6L28.6,32.6L28.6,33.6L27.6,33.6L27.6,34.6L27.1,34.6L27.1,35.1L26.6,35.1L26.6,35.6L23.6,35.6L23.6,36.1L23.1,36.1L23.1,36.6L22.6,36.6L22.6,37.1L21.6,37.1L21.6,39.6L20.1,39.6L20.1,40.6L19.6,40.6L19.6,42.1L19.1,42.1L19.1,42.6L3.9,42.6L3.9,40.1L2.9,40.1z" stroke="none"/><path d="M86.9,72L87.1,72L87.1,78.1L84.1,78.1L84.1,81.6L83.6,81.6L83.6,82.6L83.1,82.6L83.1,84.6L82.1,84.6L82.1,85.1L81.6,85.1L81.6,86.1L80.1,86.1L80.1,90.1L79.6,90.1L79.6,91.1L77.6,91.1L77.6,92.1L76.6,92.1L76.6,92.6L74.6,92.6L74.6,93.6L72.1,93.6L72.1,94.1L69.6,94.1L69.6,94.6L69.1,94.6L69.1,95.1L68.6,95.1L68.6,96.6L68.1,96.6L68.1,97.1L63.4,97.1L63.4,96.6L48.1,96.6L48.1,97.1L47.6,97.1L47.6,97.6L47.1,97.6L47.1,99.4L47.6,99.4L47.6,99.9L57.6,99.9L57.6,100.4L58.5,100.4L58.5,100.6L57.4,100.6L57.4,100.1L47.4,100.1L47.4,99.6L46.9,99.6L46.9,97.4L47.4,97.4L47.4,96.9L47.9,96.9L47.9,96.4L63.6,96.4L63.6,96.9L67.9,96.9L67.9,96.4L68.4,96.4L68.4,94.9L68.9,94.9L68.9,94.4L69.4,94.4L69.4,93.9L71.9,93.9L71.9,93.4L74.4,93.4L74.4,92.4L76.4,92.4L76.4,91.9L77.4,91.9L77.4,90.9L79.4,90.9L79.4,89.9L79.9,89.9L79.9,85.9L81.4,85.9L81.4,84.9L81.9,84.9L81.9,84.4L82.9,84.4L82.9,82.4L83.4,82.4L83.4,81.4L83.9,81.4L83.9,77.9L86.9,77.9z" stroke="none"/></svg>