<svg version="1.1" width="105" height="105" xmlns="http://www.w3.org/2000/svg"><path d="M28.5,74.9L28.5,75.1L27.1,75.1L27.1,75.4L32.1,75.4L32.1,75.9L33.1,75.9L33.1,77.4L33.6,77.4L33.6,80.9L36.1,80.9L36.1,81.4L37.1,81.4L37.1,82.4L37.5,82.4L37.5,82.6L36.9,82.6L36.9,81.6L35.9,81.6L35.9,81.1L33.4,81.1L33.4,77.6L32.9,77.6L32.9,76.1L31.9,76.1L31.9,75.6L26.9,75.6L26.9,75.1L25.4,75.1L25.4,74.1L24.9,74.1L24.9,73.6L23.9,73.6L23.9,73.1L23.4,73.1L23.4,72.1L22.9,72.1L22.9,71.6L21.9,71.6L21.9,71.1L19.9,71.1L19.9,70.6L18.4,70.6L18.4,70.1L17.4,70.1L17.4,69.6L15.9,69.6L15.9,68.6L14.9,68.6L14.9,67.5L15.1,67.5L15.1,68.4L16.1,68.4L16.1,69.4L17.6,69.4L17.6,69.9L18.6,69.9L18.6,70.4L20.1,70.4L20.1,70.9L22.1,70.9L22.1,71.4L23.1,71.4L23.1,71.9L23.6,71.9L23.6,72.9L24.1,72.9L24.1,73.4L25.1,73.4L25.1,73.9L25.6,73.9L25.6,74.9z" stroke="none"/><path d="M60.9,4.9L60.9,4.4L61.4,4.4L61.4,3.9L62.4,3.9L62.4,2.9L63,2.9L63,3.1L62.6,3.1L62.6,4.1L61.6,4.1L61.6,4.6L61.1,4.6L61.1,5.1L60.6,5.1L60.6,5.4L66.1,5.4L66.1,5.9L67.5,5.9L67.5,6.1L65.9,6.1L65.9,5.6L60.4,5.6L60.4,5.1L52.1,5.1L52.1,5.6L51.1,5.6L51.1,6L50.9,6L50.9,5.4L51.9,5.4L51.9,4.9z" stroke="none"/><path d="M13.9,87.4L13.9,84.1L13.5,84.1L13.5,83.9L14.1,83.9L14.1,87.4L21.1,87.4L21.1,87.9L22.1,87.9L22.1,88.4L22.6,88.4L22.6,88.9L23.6,88.9L23.6,89.4L24.6,89.4L24.6,90.9L25.1,90.9L25.1,98.6L24.1,98.6L24.1,99L23.9,99L23.9,98.4L24.9,98.4L24.9,91.1L24.4,91.1L24.4,89.6L23.4,89.6L23.4,89.1L22.4,89.1L22.4,88.6L21.9,88.6L21.9,88.1L20.9,88.1L20.9,87.6L13.4,87.6L13.4,84.6L12.9,84.6L12.9,84.1L11.9,84.1L11.9,83.6L11.4,83.6L11.4,83.1L9.4,83.1L9.4,82.1L8.9,82.1L8.9,81.6L7.9,81.6L7.9,81.1L6.4,81.1L6.4,80.6L5.4,80.6L5.4,79.6L4.5,79.6L4.5,79.4L5.6,79.4L5.6,80.4L6.6,80.4L6.6,80.9L8.1,80.9L8.1,81.4L9.1,81.4L9.1,81.9L9.6,81.9L9.6,82.9L11.6,82.9L11.6,83.4L12.1,83.4L12.1,83.9L13.1,83.9L13.1,84.4L13.6,84.4L13.6,87.4z" stroke="none"/><path d="M68.9,16.4L68.9,13.9L69.4,13.9L69.4,12.4L69.9,12.4L69.9,11.9L70.4,11.9L70.4,9L70.6,9L70.6,12.1L70.1,12.1L70.1,12.6L69.6,12.6L69.6,14.1L69.1,14.1L69.1,16.4L70.1,16.4L70.1,18.4L72.1,18.4L72.1,19.5L71.9,19.5L71.9,18.6L69.9,18.6L69.9,16.6L68.6,16.6L68.6,17.1L67.1,17.1L67.1,17.6L65.1,17.6L65.1,18.1L64.6,18.1L64.6,21L64.4,21L64.4,17.9L64.9,17.9L64.9,17.4L66.9,17.4L66.9,16.9L68.4,16.9L68.4,16.4z" stroke="none"/><path d="M67.4,26.9L67.4,26.4L69.4,26.4L69.4,25.4L70.4,25.4L70.4,24.4L71.9,24.4L71.9,24L72.1,24L72.1,24.6L70.6,24.6L70.6,25.6L69.6,25.6L69.6,26.6L67.6,26.6L67.6,27.1L60.6,27.1L60.6,27.6L58.1,27.6L58.1,28.1L56.1,28.1L56.1,30.1L55.6,30.1L55.6,30.6L55.1,30.6L55.1,32.6L54.1,32.6L54.1,33L53.9,33L53.9,32.4L54.9,32.4L54.9,30.4L55.4,30.4L55.4,29.9L55.9,29.9L55.9,27.9L57.9,27.9L57.9,27.4L60.4,27.4L60.4,27.1L57.9,27.1L57.9,26.1L56.4,26.1L56.4,25.6L55.9,25.6L55.9,24.6L55.4,24.6L55.4,24L55.6,24L55.6,24.4L56.1,24.4L56.1,25.4L56.6,25.4L56.6,25.9L58.1,25.9L58.1,26.9z" stroke="none"/><path d="M86.9,38.9L86.9,32.9L88.4,32.9L88.4,31.9L89.4,31.9L89.4,31.4L90,31.4L90,31.6L89.6,31.6L89.6,32.1L88.6,32.1L88.6,33.1L87.1,33.1L87.1,38.9L90.1,38.9L90.1,40.4L90.6,40.4L90.6,41.4L91.1,41.4L91.1,41.9L91.6,41.9L91.6,43.5L91.4,43.5L91.4,42.1L90.9,42.1L90.9,41.6L90.4,41.6L90.4,40.6L89.9,40.6L89.9,39.1L82.1,39.1L82.1,39.6L80.1,39.6L80.1,42.1L79.5,42.1L79.5,41.9L79.9,41.9L79.9,39.4L81.9,39.4L81.9,38.9z" stroke="none"/><path d="M14.4,21.1L13.9,21.1L13.9,20.6L11.4,20.6L11.4,20.1L10.9,20.1L10.9,18.6L9.9,18.6L9.9,18.1L8.9,18.1L8.9,16.6L8.4,16.6L8.4,14.6L5.9,14.6L5.9,10.1L3.9,10.1L3.9,9.6L3.4,9.6L3.4,8.1L2.9,8.1L2.9,7.5L3.1,7.5L3.1,7.9L3.6,7.9L3.6,9.4L4.1,9.4L4.1,9.9L6.1,9.9L6.1,14.4L8.6,14.4L8.6,16.4L9.1,16.4L9.1,17.9L10.1,17.9L10.1,18.4L11.1,18.4L11.1,19.9L11.6,19.9L11.6,20.4L14.1,20.4L14.1,20.9L14.6,20.9L14.6,25.4L15.1,25.4L15.1,29.4L16.1,29.4L16.1,29.9L16.6,29.9L16.6,30.4L17.6,30.4L17.6,30.9L18.6,30.9L18.6,33.9L19.6,33.9L19.6,35.9L20.6,35.9L20.6,36.4L21.6,36.4L21.6,36.9L22.1,36.9L22.1,37.4L22.5,37.4L22.5,37.6L21.9,37.6L21.9,37.1L21.4,37.1L21.4,36.6L20.4,36.6L20.4,36.1L19.4,36.1L19.4,34.1L18.4,34.1L18.4,31.1L17.4,31.1L17.4,30.6L16.4,30.6L16.4,30.1L15.9,30.1L15.9,29.6L14.9,29.6L14.9,25.6L14.6,25.6L14.6,30.4L16.1,30.4L16.1,30.9L16.6,30.9L16.6,31.4L18,31.4L18,31.6L16.4,31.6L16.4,31.1L15.9,31.1L15.9,30.6L14.4,30.6z" stroke="none"/><path d="M20.6,89.4L20.6,89.9L21.1,89.9L21.1,90.4L23.1,90.4L23.1,90.9L23.6,90.9L23.6,91.4L24,91.4L24,91.6L23.4,91.6L23.4,91.1L22.9,91.1L22.9,90.6L20.9,90.6L20.9,90.1L20.4,90.1L20.4,89.6L14.6,89.6L14.6,100.4L16.1,100.4L16.1,100.9L16.6,100.9L16.6,102L16.4,102L16.4,101.1L15.9,101.1L15.9,100.6L14.4,100.6L14.4,89.6L10.9,89.6L10.9,89.1L10.4,89.1L10.4,87.6L9.9,87.6L9.9,87.1L9.4,87.1L9.4,83.6L8.9,83.6L8.9,83.1L8.4,83.1L8.4,82.6L5.4,82.6L5.4,81.6L4.9,81.6L4.9,80.6L3.9,80.6L3.9,80.1L3.4,80.1L3.4,76.6L2.9,76.6L2.9,75L3.1,75L3.1,76.4L3.6,76.4L3.6,79.9L4.1,79.9L4.1,80.4L5.1,80.4L5.1,81.4L5.6,81.4L5.6,82.4L8.6,82.4L8.6,82.9L9.1,82.9L9.1,83.4L9.6,83.4L9.6,86.9L10.1,86.9L10.1,87.4L10.6,87.4L10.6,88.9L11.1,88.9L11.1,89.4z" stroke="none"/><path d="M43.9,41.4L43.9,35.4L44.9,35.4L44.9,34.4L47.4,34.4L47.4,33.9L47.9,33.9L47.9,33.4L49.4,33.4L49.4,33L49.6,33L49.6,33.6L48.1,33.6L48.1,34.1L47.6,34.1L47.6,34.6L45.1,34.6L45.1,35.6L44.1,35.6L44.1,43.9L44.6,43.9L44.6,44.4L45.6,44.4L45.6,46.4L48.1,46.4L48.1,47.9L48.6,47.9L48.6,48.4L49.6,48.4L49.6,48.9L50.1,48.9L50.1,49.4L52.6,49.4L52.6,51L52.4,51L52.4,49.6L49.9,49.6L49.9,49.1L49.4,49.1L49.4,48.6L48.4,48.6L48.4,48.1L47.9,48.1L47.9,46.6L45.4,46.6L45.4,44.6L44.4,44.6L44.4,44.1L43.9,44.1L43.9,41.6L32.4,41.6L32.4,40.6L30,40.6L30,40.4L32.6,40.4L32.6,41.4z" stroke="none"/><path d="M46.4,62.4L46.4,58.4L46.9,58.4L46.9,55.9L47.4,55.9L47.4,54.9L48.4,54.9L48.4,52.9L49.4,52.9L49.4,52.5L49.6,52.5L49.6,53.1L48.6,53.1L48.6,55.1L47.6,55.1L47.6,56.1L47.1,56.1L47.1,58.6L46.6,58.6L46.6,71.4L48.1,71.4L48.1,71.9L48.6,71.9L48.6,72.4L50.1,72.4L50.1,72.9L50.6,72.9L50.6,73.9L51.6,73.9L51.6,74.9L52.6,74.9L52.6,75.9L53.1,75.9L53.1,76.4L54.1,76.4L54.1,78L53.9,78L53.9,76.6L52.9,76.6L52.9,76.1L52.4,76.1L52.4,75.1L51.4,75.1L51.4,74.1L50.4,74.1L50.4,73.1L49.9,73.1L49.9,72.6L48.4,72.6L48.4,72.1L47.9,72.1L47.9,71.6L46.4,71.6L46.4,62.6L41.9,62.6L41.9,62.1L40.9,62.1L40.9,61.6L39.4,61.6L39.4,61.1L38.4,61.1L38.4,60.6L37.9,60.6L37.9,59.6L36.9,59.6L36.9,57.6L35.9,57.6L35.9,57L36.1,57L36.1,57.4L37.1,57.4L37.1,59.4L38.1,59.4L38.1,60.4L38.6,60.4L38.6,60.9L39.6,60.9L39.6,61.4L41.1,61.4L41.1,61.9L42.1,61.9L42.1,62.4z" stroke="none"/><path d="M37.4,35.9L37.4,30.6L36.9,30.6L36.9,29.6L34.4,29.6L34.4,28.1L31.9,28.1L31.9,27.1L29.9,27.1L29.9,26.6L29.4,26.6L29.4,26.1L28.9,26.1L28.9,25.6L28.4,25.6L28.4,24.1L27.9,24.1L27.9,23.1L27.4,23.1L27.4,18.9L28.4,18.9L28.4,18.4L29.9,18.4L29.9,17.9L31.5,17.9L31.5,18.1L30.1,18.1L30.1,18.6L28.6,18.6L28.6,19.1L27.6,19.1L27.6,22.9L28.1,22.9L28.1,23.9L28.6,23.9L28.6,25.4L29.1,25.4L29.1,25.9L29.6,25.9L29.6,26.4L30.1,26.4L30.1,26.9L32.1,26.9L32.1,27.9L34.6,27.9L34.6,29.4L37.1,29.4L37.1,30.4L37.6,30.4L37.6,35.9L41.9,35.9L41.9,35.4L42.4,35.4L42.4,34.9L43.9,34.9L43.9,33.9L46.4,33.9L46.4,32.9L47.4,32.9L47.4,32.4L48.9,32.4L48.9,31.9L50.1,31.9L50.1,32.4L50.6,32.4L50.6,37.4L51.1,37.4L51.1,37.9L51.6,37.9L51.6,38.4L52.1,38.4L52.1,38.9L52.6,38.9L52.6,39.4L53.6,39.4L53.6,42.4L54.1,42.4L54.1,43.5L53.9,43.5L53.9,42.6L53.4,42.6L53.4,39.6L52.4,39.6L52.4,39.1L51.9,39.1L51.9,38.6L51.4,38.6L51.4,38.1L50.9,38.1L50.9,37.6L50.4,37.6L50.4,32.6L49.9,32.6L49.9,32.1L49.1,32.1L49.1,32.6L47.6,32.6L47.6,33.1L46.6,33.1L46.6,34.1L44.1,34.1L44.1,35.1L42.6,35.1L42.6,35.6L42.1,35.6L42.1,36.1L37.6,36.1L37.6,36.6L36.6,36.6L36.6,37.1L34.6,37.1L34.6,37.6L33.1,37.6L33.1,38.1L31.6,38.1L31.6,38.6L31.1,38.6L31.1,39.1L30.1,39.1L30.1,39.6L29.6,39.6L29.6,40.1L29.1,40.1L29.1,47.9L30,47.9L30,48.1L28.9,48.1L28.9,39.9L29.4,39.9L29.4,39.4L29.9,39.4L29.9,38.9L30.9,38.9L30.9,38.4L31.4,38.4L31.4,37.9L32.9,37.9L32.9,37.4L34.4,37.4L34.4,36.9L36.4,36.9L36.4,36.4L37.4,36.4L37.4,36.1L34.9,36.1L34.9,35.6L34.4,35.6L34.4,34.5L34.6,34.5L34.6,35.4L35.1,35.4L35.1,35.9z" stroke="none"/><path d="M18.4,13.4L18.4,11.1L17.9,11.1L17.9,10.6L16.5,10.6L16.5,10.4L18.1,10.4L18.1,10.9L18.6,10.9L18.6,13.4L18.9,13.4L18.9,8.4L19.4,8.4L19.4,7.9L20.4,7.9L20.4,7.4L21.4,7.4L21.4,6.9L21.9,6.9L21.9,6.4L22.4,6.4L22.4,5.9L23.9,5.9L23.9,5.4L24.4,5.4L24.4,4.4L25.5,4.4L25.5,4.6L24.6,4.6L24.6,5.6L24.1,5.6L24.1,6.1L22.6,6.1L22.6,6.6L22.1,6.6L22.1,7.1L21.6,7.1L21.6,7.6L20.6,7.6L20.6,8.1L19.6,8.1L19.6,8.6L19.1,8.6L19.1,13.6L18.6,13.6L18.6,13.9L28.9,13.9L28.9,13.4L30,13.4L30,13.6L29.1,13.6L29.1,14.1L18.4,14.1L18.4,13.6L17.9,13.6L17.9,12.6L13.9,12.6L13.9,11.1L11.4,11.1L11.4,10.1L10.9,10.1L10.9,9.6L4.9,9.6L4.9,7.6L3.9,7.6L3.9,7.1L3.4,7.1L3.4,6.6L2.6,6.6L2.6,7.1L2.1,7.1L2.1,24.9L2.6,24.9L2.6,25.4L3,25.4L3,25.6L2.4,25.6L2.4,25.1L1.9,25.1L1.9,6.9L2.4,6.9L2.4,6.4L3.6,6.4L3.6,6.9L4.1,6.9L4.1,7.4L5.1,7.4L5.1,9.4L11.1,9.4L11.1,9.9L11.6,9.9L11.6,10.9L14.1,10.9L14.1,12.4L18.1,12.4L18.1,13.4z" stroke="none"/><path d="M43.4,57.9L43.4,57.6L37.4,57.6L37.4,57.1L36.9,57.1L36.9,56.6L36.4,56.6L36.4,56.1L35.6,56.1L35.6,56.6L35.1,56.6L35.1,60.4L35.6,60.4L35.6,61.9L37.6,61.9L37.6,62.4L38.6,62.4L38.6,62.9L39,62.9L39,63.1L38.4,63.1L38.4,62.6L37.4,62.6L37.4,62.1L35.4,62.1L35.4,60.6L34.9,60.6L34.9,56.4L35.4,56.4L35.4,55.9L36.6,55.9L36.6,56.4L37.1,56.4L37.1,56.9L37.6,56.9L37.6,57.4L43.6,57.4L43.6,57.9L43.9,57.9L43.9,57.1L37.9,57.1L37.9,56.1L36.9,56.1L36.9,55.6L35.1,55.6L35.1,56.1L34.6,56.1L34.6,60.1L34.1,60.1L34.1,60.6L33.6,60.6L33.6,68.1L33.1,68.1L33.1,69L32.9,69L32.9,67.9L33.4,67.9L33.4,60.4L33.9,60.4L33.9,59.9L34.4,59.9L34.4,55.9L34.9,55.9L34.9,55.4L37.1,55.4L37.1,55.9L38.1,55.9L38.1,56.9L44.1,56.9L44.1,58.1L43.6,58.1L43.6,58.4L45.4,58.4L45.4,55.9L46.4,55.9L46.4,54.9L46.9,54.9L46.9,54.4L47.4,54.4L47.4,52.4L47.9,52.4L47.9,51.9L48.4,51.9L48.4,51.4L52.1,51.4L52.1,51.9L52.9,51.9L52.9,51.4L53.4,51.4L53.4,50.9L53.9,50.9L53.9,50.4L54.9,50.4L54.9,48.4L55.4,48.4L55.4,47.9L56.4,47.9L56.4,47.4L57.4,47.4L57.4,46.9L58.4,46.9L58.4,46.4L58.9,46.4L58.9,45.9L60.4,45.9L60.4,44.9L60.9,44.9L60.9,44.4L61.4,44.4L61.4,43.4L61.9,43.4L61.9,42.9L62.4,42.9L62.4,42.4L62.9,42.4L62.9,42L63.1,42L63.1,42.6L62.6,42.6L62.6,43.1L62.1,43.1L62.1,43.6L61.6,43.6L61.6,44.6L61.1,44.6L61.1,45.1L60.6,45.1L60.6,46.1L59.1,46.1L59.1,46.6L58.6,46.6L58.6,47.1L57.6,47.1L57.6,47.6L56.6,47.6L56.6,48.1L55.6,48.1L55.6,48.6L55.1,48.6L55.1,50.6L54.1,50.6L54.1,51.1L53.6,51.1L53.6,51.6L53.1,51.6L53.1,52.1L51.9,52.1L51.9,51.6L48.6,51.6L48.6,52.1L48.1,52.1L48.1,52.6L47.6,52.6L47.6,54.6L47.1,54.6L47.1,55.1L46.6,55.1L46.6,56.1L45.6,56.1L45.6,58.6L43.4,58.6L43.4,58.1L39.6,58.1L39.6,58.6L39,58.6L39,58.4L39.4,58.4L39.4,57.9z" stroke="none"/><path d="M91.4,62.9L91.4,58.4L91.9,58.4L91.9,57.9L100.4,57.9L100.4,57.4L100.9,57.4L100.9,56.9L102,56.9L102,57.1L101.1,57.1L101.1,57.6L100.6,57.6L100.6,58.1L92.1,58.1L92.1,58.6L91.6,58.6L91.6,62.9L92.9,62.9L92.9,61.9L93.9,61.9L93.9,60.4L94.4,60.4L94.4,58.5L94.6,58.5L94.6,60.6L94.1,60.6L94.1,62.1L93.1,62.1L93.1,63.1L91.6,63.1L91.6,70.4L92.1,70.4L92.1,71.4L92.6,71.4L92.6,79.9L93.1,79.9L93.1,81.9L93.6,81.9L93.6,82.4L96,82.4L96,82.6L93.4,82.6L93.4,82.1L92.9,82.1L92.9,80.1L92.4,80.1L92.4,71.6L91.9,71.6L91.9,70.6L91.4,70.6L91.4,63.1L78.9,63.1L78.9,62.6L75.9,62.6L75.9,61.6L75.4,61.6L75.4,61.1L74.4,61.1L74.4,60.6L73.9,60.6L73.9,55.4L74.4,55.4L74.4,53.9L75,53.9L75,54.1L74.6,54.1L74.6,55.6L74.1,55.6L74.1,60.4L74.6,60.4L74.6,60.9L75.6,60.9L75.6,61.4L76.1,61.4L76.1,62.4L79.1,62.4L79.1,62.9z" stroke="none"/><path d="M48.9,14.9L48.9,14.6L48.4,14.6L48.4,12.6L47.9,12.6L47.9,9.1L46.5,9.1L46.5,8.9L48.1,8.9L48.1,12.4L48.6,12.4L48.6,14.4L49.1,14.4L49.1,14.9L49.6,14.9L49.6,22.4L50.1,22.4L50.1,22.9L51.1,22.9L51.1,23.4L51.6,23.4L51.6,23.9L52.1,23.9L52.1,24.4L52.6,24.4L52.6,25.4L53.1,25.4L53.1,26.9L57,26.9L57,27.1L52.9,27.1L52.9,25.6L52.4,25.6L52.4,24.6L51.9,24.6L51.9,24.1L51.4,24.1L51.4,23.6L50.9,23.6L50.9,23.1L49.9,23.1L49.9,22.6L49.4,22.6L49.4,15.1L49.1,15.1L49.1,20.1L48.1,20.1L48.1,21L47.9,21L47.9,19.9L48.9,19.9L48.9,15.1L47.9,15.1L47.9,13.1L47.4,13.1L47.4,10.6L46.9,10.6L46.9,10.1L45.9,10.1L45.9,9.6L45.4,9.6L45.4,6.1L44.9,6.1L44.9,4.5L45.1,4.5L45.1,5.9L45.6,5.9L45.6,9.4L46.1,9.4L46.1,9.9L47.1,9.9L47.1,10.4L47.6,10.4L47.6,12.9L48.1,12.9L48.1,14.9z" stroke="none"/><path d="M34.9,18.9L34.9,18.6L33.4,18.6L33.4,18.1L32.9,18.1L32.9,17.6L31.9,17.6L31.9,17.1L23.9,17.1L23.9,16.5L24.1,16.5L24.1,16.9L32.1,16.9L32.1,17.4L33.1,17.4L33.1,17.9L33.6,17.9L33.6,18.4L35.1,18.4L35.1,18.9L35.4,18.9L35.4,16.4L36.4,16.4L36.4,15.9L37.4,15.9L37.4,15.4L37.9,15.4L37.9,14.9L38.4,14.9L38.4,13.9L38.9,13.9L38.9,13.4L39.4,13.4L39.4,12.4L40.9,12.4L40.9,11.9L42.4,11.9L42.4,11.4L43.4,11.4L43.4,10.5L43.6,10.5L43.6,11.6L42.6,11.6L42.6,12.1L41.1,12.1L41.1,12.6L39.6,12.6L39.6,13.6L39.1,13.6L39.1,14.1L38.6,14.1L38.6,15.1L38.1,15.1L38.1,15.6L37.6,15.6L37.6,16.1L36.6,16.1L36.6,16.6L35.6,16.6L35.6,19.1L35.1,19.1L35.1,19.4L39.1,19.4L39.1,20.4L41.1,20.4L41.1,21.9L41.6,21.9L41.6,22.9L42.1,22.9L42.1,25.4L43.1,25.4L43.1,26.9L45,26.9L45,27.1L42.9,27.1L42.9,25.6L41.9,25.6L41.9,23.1L41.4,23.1L41.4,22.1L40.9,22.1L40.9,20.6L38.9,20.6L38.9,19.6L34.9,19.6L34.9,19.1L29.1,19.1L29.1,19.6L28.6,19.6L28.6,22.5L28.4,22.5L28.4,19.4L28.9,19.4L28.9,18.9z" stroke="none"/><path d="M78.9,77.9L78.9,75.9L80.9,75.9L80.9,74.9L81.9,74.9L81.9,74.4L82.9,74.4L82.9,73.9L83.4,73.9L83.4,72.9L86.1,72.9L86.1,84.4L87.6,84.4L87.6,84.9L88.1,84.9L88.1,85.4L89.1,85.4L89.1,86.9L91.1,86.9L91.1,88.4L91.5,88.4L91.5,88.6L90.9,88.6L90.9,87.1L88.9,87.1L88.9,85.6L87.9,85.6L87.9,85.1L87.4,85.1L87.4,84.6L85.9,84.6L85.9,73.1L83.6,73.1L83.6,74.1L83.1,74.1L83.1,74.6L82.1,74.6L82.1,75.1L81.1,75.1L81.1,76.1L79.1,76.1L79.1,77.9L80.9,77.9L80.9,77.4L81.4,77.4L81.4,76.4L81.9,76.4L81.9,75.4L82.9,75.4L82.9,74.9L83.9,74.9L83.9,74.4L84.4,74.4L84.4,73.4L85.5,73.4L85.5,73.6L84.6,73.6L84.6,74.6L84.1,74.6L84.1,75.1L83.1,75.1L83.1,75.6L82.1,75.6L82.1,76.6L81.6,76.6L81.6,77.6L81.1,77.6L81.1,78.1L79.1,78.1L79.1,81.6L78.6,81.6L78.6,82.6L77.6,82.6L77.6,83.6L75.6,83.6L75.6,85.1L73.1,85.1L73.1,85.6L72.6,85.6L72.6,86.1L71.1,86.1L71.1,86.6L69.6,86.6L69.6,87.1L69,87.1L69,86.9L69.4,86.9L69.4,86.4L70.9,86.4L70.9,85.9L72.4,85.9L72.4,85.4L72.9,85.4L72.9,84.9L75.4,84.9L75.4,83.4L77.4,83.4L77.4,82.4L78.4,82.4L78.4,81.4L78.9,81.4L78.9,78.1L78.4,78.1L78.4,66.6L77.9,66.6L77.9,66.1L74.9,66.1L74.9,65.6L73.9,65.6L73.9,65.1L73.4,65.1L73.4,63.1L70.5,63.1L70.5,62.9L73.6,62.9L73.6,64.9L74.1,64.9L74.1,65.4L75.1,65.4L75.1,65.9L78.1,65.9L78.1,66.4L78.6,66.4L78.6,77.9z" stroke="none"/><path d="M17.9,85.4L17.9,80.6L16.9,80.6L16.9,77.1L15.4,77.1L15.4,76.6L15,76.6L15,76.4L15.6,76.4L15.6,76.9L17.1,76.9L17.1,80.4L18.1,80.4L18.1,85.4L36.9,85.4L36.9,84.4L37.4,84.4L37.4,83.9L37.9,83.9L37.9,83.4L38.4,83.4L38.4,77.1L37.4,77.1L37.4,76.1L35.9,76.1L35.9,75.1L30.9,75.1L30.9,74.6L30.4,74.6L30.4,74.1L26.9,74.1L26.9,73.1L25.4,73.1L25.4,72.6L23.9,72.6L23.9,71.1L22.4,71.1L22.4,70.5L22.6,70.5L22.6,70.9L24.1,70.9L24.1,72.4L25.6,72.4L25.6,72.9L27.1,72.9L27.1,73.9L30.6,73.9L30.6,74.4L31.1,74.4L31.1,74.9L36.1,74.9L36.1,75.9L37.6,75.9L37.6,76.9L38.6,76.9L38.6,83.6L38.1,83.6L38.1,84.1L37.6,84.1L37.6,84.6L37.1,84.6L37.1,85.6L18.1,85.6L18.1,85.9L20.1,85.9L20.1,86.4L20.6,86.4L20.6,86.9L21.6,86.9L21.6,87.4L22.6,87.4L22.6,87.9L23.1,87.9L23.1,88.4L24.1,88.4L24.1,88.9L25.1,88.9L25.1,89.9L25.6,89.9L25.6,97.9L26.6,97.9L26.6,98.4L27.1,98.4L27.1,98.9L27.6,98.9L27.6,99.4L31.1,99.4L31.1,100.4L31.5,100.4L31.5,100.6L30.9,100.6L30.9,99.6L27.4,99.6L27.4,99.1L26.9,99.1L26.9,98.6L26.4,98.6L26.4,98.1L25.4,98.1L25.4,90.1L24.9,90.1L24.9,89.1L23.9,89.1L23.9,88.6L22.9,88.6L22.9,88.1L22.4,88.1L22.4,87.6L21.4,87.6L21.4,87.1L20.4,87.1L20.4,86.6L19.9,86.6L19.9,86.1L17.9,86.1L17.9,85.6L17.4,85.6L17.4,84.1L15.4,84.1L15.4,83.6L14.4,83.6L14.4,83.1L13.4,83.1L13.4,82.6L12.4,82.6L12.4,82.1L10.4,82.1L10.4,81.1L9.9,81.1L9.9,80.6L8.4,80.6L8.4,80.1L7.9,80.1L7.9,76.6L5.9,76.6L5.9,75.6L4.9,75.6L4.9,75.1L3.9,75.1L3.9,74.6L3.4,74.6L3.4,74.1L2.1,74.1L2.1,93.9L4.1,93.9L4.1,94.4L4.5,94.4L4.5,94.6L3.9,94.6L3.9,94.1L1.9,94.1L1.9,73.9L3.6,73.9L3.6,74.4L4.1,74.4L4.1,74.9L5.1,74.9L5.1,75.4L6.1,75.4L6.1,76.4L8.1,76.4L8.1,79.9L8.6,79.9L8.6,80.4L10.1,80.4L10.1,80.9L10.6,80.9L10.6,81.9L12.6,81.9L12.6,82.4L13.6,82.4L13.6,82.9L14.6,82.9L14.6,83.4L15.6,83.4L15.6,83.9L17.6,83.9L17.6,85.4z" stroke="none"/><path d="M18.4,67.4L18.4,58.4L18.9,58.4L18.9,57.9L19.4,57.9L19.4,55.4L20.9,55.4L20.9,54L21.1,54L21.1,55.6L19.6,55.6L19.6,58.1L19.1,58.1L19.1,58.6L18.6,58.6L18.6,67.4L21.9,67.4L21.9,66.9L22.4,66.9L22.4,65.9L23.9,65.9L23.9,64.9L24.4,64.9L24.4,59.9L25.4,59.9L25.4,58.9L26.4,58.9L26.4,58.4L27,58.4L27,58.6L26.6,58.6L26.6,59.1L25.6,59.1L25.6,60.1L24.6,60.1L24.6,65.1L24.1,65.1L24.1,66.1L22.6,66.1L22.6,67.1L22.1,67.1L22.1,67.6L18.6,67.6L18.6,67.9L23.9,67.9L23.9,67.4L24.4,67.4L24.4,65.9L24.9,65.9L24.9,60.4L26.4,60.4L26.4,59.4L27.4,59.4L27.4,58.1L24.4,58.1L24.4,56.6L22.4,56.6L22.4,56.1L21.4,56.1L21.4,53.6L20.1,53.6L20.1,54.6L19.6,54.6L19.6,55.1L19.1,55.1L19.1,57.6L18.6,57.6L18.6,58.1L18.1,58.1L18.1,60.1L17.6,60.1L17.6,61.1L17.1,61.1L17.1,61.6L16.6,61.6L16.6,62.6L16.1,62.6L16.1,63.1L15.6,63.1L15.6,64.1L14.6,64.1L14.6,66.1L13.6,66.1L13.6,72.6L12.6,72.6L12.6,74.1L12.1,74.1L12.1,75.6L11.1,75.6L11.1,76.1L10.6,76.1L10.6,76.6L10.1,76.6L10.1,77.6L9.6,77.6L9.6,79.1L9.1,79.1L9.1,79.5L8.9,79.5L8.9,78.9L9.4,78.9L9.4,77.4L9.9,77.4L9.9,76.4L10.4,76.4L10.4,75.9L10.9,75.9L10.9,75.4L11.9,75.4L11.9,73.9L12.4,73.9L12.4,72.4L13.4,72.4L13.4,65.9L14.4,65.9L14.4,63.9L15.4,63.9L15.4,62.9L15.9,62.9L15.9,62.4L16.4,62.4L16.4,61.4L16.9,61.4L16.9,60.9L17.4,60.9L17.4,59.9L17.9,59.9L17.9,57.9L18.4,57.9L18.4,57.4L18.9,57.4L18.9,54.9L19.4,54.9L19.4,54.4L19.9,54.4L19.9,53.4L21.6,53.4L21.6,55.9L22.6,55.9L22.6,56.4L24.6,56.4L24.6,57.9L27.6,57.9L27.6,59.6L26.6,59.6L26.6,60.6L25.1,60.6L25.1,66.1L24.6,66.1L24.6,67.6L24.1,67.6L24.1,68.1L18.4,68.1L18.4,67.6L16.9,67.6L16.9,67.1L15.9,67.1L15.9,66.6L14.6,66.6L14.6,67.1L14.1,67.1L14.1,74.9L15.1,74.9L15.1,75.4L16.6,75.4L16.6,75.9L17.1,75.9L17.1,76.4L17.6,76.4L17.6,78.4L18.1,78.4L18.1,79.5L17.9,79.5L17.9,78.6L17.4,78.6L17.4,76.6L16.9,76.6L16.9,76.1L16.4,76.1L16.4,75.6L14.9,75.6L14.9,75.1L13.9,75.1L13.9,66.9L14.4,66.9L14.4,66.4L16.1,66.4L16.1,66.9L17.1,66.9L17.1,67.4z" stroke="none"/><path d="M84.9,49.4L84.9,48.9L88.9,48.9L88.9,47.9L89.4,47.9L89.4,47.4L90.9,47.4L90.9,45.9L91.4,45.9L91.4,44.4L92.4,44.4L92.4,39.4L93.9,39.4L93.9,36.9L94.9,36.9L94.9,35.4L95.4,35.4L95.4,34.4L96,34.4L96,34.6L95.6,34.6L95.6,35.6L95.1,35.6L95.1,37.1L94.1,37.1L94.1,39.6L92.6,39.6L92.6,44.6L91.6,44.6L91.6,46.1L91.1,46.1L91.1,47.6L89.6,47.6L89.6,48.1L89.1,48.1L89.1,49.1L85.1,49.1L85.1,49.4L97.9,49.4L97.9,45.9L98.4,45.9L98.4,43.4L99,43.4L99,43.6L98.6,43.6L98.6,46.1L98.1,46.1L98.1,49.6L85.1,49.6L85.1,54.1L82.6,54.1L82.6,55.6L81.6,55.6L81.6,56.1L80.6,56.1L80.6,58.1L79.1,58.1L79.1,59.1L75.1,59.1L75.1,60L74.9,60L74.9,58.9L78.9,58.9L78.9,57.9L80.4,57.9L80.4,55.9L81.4,55.9L81.4,55.4L82.4,55.4L82.4,53.9L84.9,53.9L84.9,49.6L78.1,49.6L78.1,50.1L77.6,50.1L77.6,51.6L74.6,51.6L74.6,53.1L74.1,53.1L74.1,55.1L73.6,55.1L73.6,57.1L73.1,57.1L73.1,58.1L72.1,58.1L72.1,58.6L71.6,58.6L71.6,59.6L71.1,59.6L71.1,61.1L70.6,61.1L70.6,61.5L70.4,61.5L70.4,60.9L70.9,60.9L70.9,59.4L71.4,59.4L71.4,58.4L71.9,58.4L71.9,57.9L72.9,57.9L72.9,56.9L73.4,56.9L73.4,54.9L73.9,54.9L73.9,52.9L74.4,52.9L74.4,51.4L77.4,51.4L77.4,49.9L77.9,49.9L77.9,49.4z" stroke="none"/><path d="M66,16.4L66,16.6L65.1,16.6L65.1,17.1L64.6,17.1L64.6,17.6L64.1,17.6L64.1,20.1L63.6,20.1L63.6,21.9L65.4,21.9L65.4,19.9L66.9,19.9L66.9,18.4L67.4,18.4L67.4,18L67.6,18L67.6,18.6L67.1,18.6L67.1,20.1L65.6,20.1L65.6,22.1L63.4,22.1L63.4,19.9L63.9,19.9L63.9,17.4L64.4,17.4L64.4,16.9L64.9,16.9L64.9,16.4z" stroke="none"/><path d="M92.9,34.5L93.1,34.5L93.1,37.5L92.9,37.5z" stroke="none"/><path d="M99.1,9L98.9,9L98.9,8.4L99.4,8.4L99.4,6.9L99.9,6.9L99.9,5.9L100.5,5.9L100.5,6.1L100.1,6.1L100.1,7.1L99.6,7.1L99.6,8.6L99.1,8.6z" stroke="none"/><path d="M53.9,13.5L54.1,13.5L54.1,15.9L55.6,15.9L55.6,16.5L55.4,16.5L55.4,16.1L53.9,16.1z" stroke="none"/><path d="M79.5,97.6L79.5,97.4L80.1,97.4L80.1,97.9L81.1,97.9L81.1,98.4L81.6,98.4L81.6,98.9L82.5,98.9L82.5,99.1L81.4,99.1L81.4,98.6L80.9,98.6L80.9,98.1L79.9,98.1L79.9,97.6z" stroke="none"/><path d="M10.4,34.5L10.6,34.5L10.6,36.9L12.1,36.9L12.1,37.5L11.9,37.5L11.9,37.1L10.4,37.1z" stroke="none"/><path d="M91.5,99.1L91.5,98.9L96,98.9L96,99.1z" stroke="none"/><path d="M18,74.9L18,75.1L17.4,75.1L17.4,74.1L16.9,74.1L16.9,73.1L16.4,73.1L16.4,70.5L16.6,70.5L16.6,72.9L17.1,72.9L17.1,73.9L17.6,73.9L17.6,74.9z" stroke="none"/><path d="M3,54.1L3,53.9L8.6,53.9L8.6,54.9L9.6,54.9L9.6,55.4L10.5,55.4L10.5,55.6L9.4,55.6L9.4,55.1L8.4,55.1L8.4,54.1z" stroke="none"/><path d="M16.6,55.5L16.4,55.5L16.4,52.1L15.9,52.1L15.9,51.6L15.4,51.6L15.4,49.9L15.9,49.9L15.9,49.1L15.4,49.1L15.4,48.1L15,48.1L15,47.9L15.6,47.9L15.6,48.9L16.1,48.9L16.1,50.1L15.6,50.1L15.6,51.4L16.1,51.4L16.1,51.9L16.6,51.9z" stroke="none"/><path d="M60,70.4L60,70.6L56.4,70.6L56.4,70.1L55.9,70.1L55.9,69.6L52.4,69.6L52.4,69L52.6,69L52.6,69.4L56.1,69.4L56.1,69.9L56.6,69.9L56.6,70.4z" stroke="none"/><path d="M63.1,79.5L62.9,79.5L62.9,74.4L63.4,74.4L63.4,73.9L63.9,73.9L63.9,73.4L64.9,73.4L64.9,71.9L66,71.9L66,72.1L65.1,72.1L65.1,73.6L64.1,73.6L64.1,74.1L63.6,74.1L63.6,74.6L63.1,74.6z" stroke="none"/><path d="M79.5,102.1L79.5,101.9L84.4,101.9L84.4,101.4L84.9,101.4L84.9,100.9L85.4,100.9L85.4,100.4L85.9,100.4L85.9,99.9L86.4,99.9L86.4,98.9L87,98.9L87,99.1L86.6,99.1L86.6,100.1L86.1,100.1L86.1,100.6L85.6,100.6L85.6,101.1L85.1,101.1L85.1,101.6L84.6,101.6L84.6,102.1z" stroke="none"/><path d="M61.6,97.5L61.4,97.5L61.4,90.9L61.9,90.9L61.9,90.4L65.4,90.4L65.4,89.9L66,89.9L66,90.1L65.6,90.1L65.6,90.6L62.1,90.6L62.1,91.1L61.6,91.1z" stroke="none"/><path d="M16.4,42L16.6,42L16.6,51L16.4,51z" stroke="none"/><path d="M19.5,37.4L19.5,37.6L17.1,37.6L17.1,40.1L16.6,40.1L16.6,40.6L15.6,40.6L15.6,46.1L15.1,46.1L15.1,46.5L14.9,46.5L14.9,45.9L15.4,45.9L15.4,40.4L16.4,40.4L16.4,39.9L16.9,39.9L16.9,37.4z" stroke="none"/><path d="M40.5,46.4L40.5,46.6L30,46.6L30,46.4z" stroke="none"/><path d="M23.9,42L24.1,42L24.1,48.9L25.6,48.9L25.6,52.5L25.4,52.5L25.4,49.1L23.9,49.1z" stroke="none"/><path d="M43.6,81L43.4,81L43.4,75.6L40.9,75.6L40.9,73.1L40.4,73.1L40.4,70.5L40.6,70.5L40.6,72.9L41.1,72.9L41.1,75.4L43.6,75.4z" stroke="none"/><path d="M40.5,9.1L40.5,8.9L44.1,8.9L44.1,9.4L44.6,9.4L44.6,15.6L43.6,15.6L43.6,19.5L43.4,19.5L43.4,15.4L44.4,15.4L44.4,9.6L43.9,9.6L43.9,9.1z" stroke="none"/><path d="M85.5,37.4L85.5,37.6L78.1,37.6L78.1,38.6L77.6,38.6L77.6,39.1L73.5,39.1L73.5,38.9L77.4,38.9L77.4,38.4L77.9,38.4L77.9,37.4z" stroke="none"/><path d="M46.5,40.6L46.5,40.4L51.6,40.4L51.6,42.4L52.6,42.4L52.6,43.4L53.1,43.4L53.1,44.4L54.4,44.4L54.4,43.9L55.9,43.9L55.9,43.4L56.4,43.4L56.4,42.4L58.4,42.4L58.4,42L58.6,42L58.6,42.6L56.6,42.6L56.6,43.6L56.1,43.6L56.1,44.1L54.6,44.1L54.6,44.6L52.9,44.6L52.9,43.6L52.4,43.6L52.4,42.6L51.4,42.6L51.4,40.6z" stroke="none"/><path d="M9.1,64.5L8.9,64.5L8.9,63.9L13.4,63.9L13.4,63.4L14.9,63.4L14.9,62.4L15.4,62.4L15.4,61.4L15.9,61.4L15.9,57.4L16.9,57.4L16.9,56.9L17.4,56.9L17.4,53.9L19.4,53.9L19.4,52.9L22.1,52.9L22.1,53.4L22.6,53.4L22.6,54.4L24.1,54.4L24.1,54.9L24.6,54.9L24.6,55.4L25.1,55.4L25.1,55.9L25.6,55.9L25.6,56.4L26.1,56.4L26.1,56.9L27.1,56.9L27.1,57.4L28.1,57.4L28.1,66.1L27.6,66.1L27.6,66.6L25.1,66.6L25.1,68.1L24.6,68.1L24.6,68.6L21.6,68.6L21.6,69.1L21,69.1L21,68.9L21.4,68.9L21.4,68.4L24.4,68.4L24.4,67.9L24.9,67.9L24.9,66.4L27.4,66.4L27.4,65.9L27.9,65.9L27.9,57.6L26.9,57.6L26.9,57.1L25.9,57.1L25.9,56.6L25.4,56.6L25.4,56.1L24.9,56.1L24.9,55.6L24.4,55.6L24.4,55.1L23.9,55.1L23.9,54.6L22.4,54.6L22.4,53.6L21.9,53.6L21.9,53.1L19.6,53.1L19.6,54.1L17.6,54.1L17.6,57.1L17.1,57.1L17.1,57.6L16.1,57.6L16.1,61.6L15.6,61.6L15.6,62.6L15.1,62.6L15.1,63.6L13.6,63.6L13.6,64.1L9.1,64.1z" stroke="none"/><path d="M91.5,29.9L91.5,30.1L86.9,30.1L86.9,29.6L82.9,29.6L82.9,28.1L82.4,28.1L82.4,27.6L81.9,27.6L81.9,27.1L81.4,27.1L81.4,26.1L79.4,26.1L79.4,25.5L79.6,25.5L79.6,25.9L81.6,25.9L81.6,26.9L82.1,26.9L82.1,27.4L82.6,27.4L82.6,27.9L83.1,27.9L83.1,29.4L87.1,29.4L87.1,29.9z" stroke="none"/><path d="M99,17.9L99,18.1L95.9,18.1L95.9,17.1L95.4,17.1L95.4,16.1L94.4,16.1L94.4,15.6L92.4,15.6L92.4,14.6L91.9,14.6L91.9,14.1L90.9,14.1L90.9,13.6L90.4,13.6L90.4,12.6L89.4,12.6L89.4,11.1L88.9,11.1L88.9,10.6L88.5,10.6L88.5,10.4L89.1,10.4L89.1,10.9L89.6,10.9L89.6,12.4L90.6,12.4L90.6,13.4L91.1,13.4L91.1,13.9L92.1,13.9L92.1,14.4L92.6,14.4L92.6,15.4L94.6,15.4L94.6,15.9L95.6,15.9L95.6,16.9L96.1,16.9L96.1,17.9z" stroke="none"/><path d="M37.5,43.6L37.5,43.4L40.1,43.4L40.1,44.9L40.6,44.9L40.6,45.4L41.1,45.4L41.1,45.9L41.6,45.9L41.6,47.6L33.1,47.6L33.1,48.6L32.6,48.6L32.6,49.1L28.4,49.1L28.4,39.6L27.4,39.6L27.4,38.6L25.9,38.6L25.9,37.6L25.5,37.6L25.5,37.4L26.1,37.4L26.1,38.4L27.6,38.4L27.6,39.4L28.6,39.4L28.6,48.9L32.4,48.9L32.4,48.4L32.9,48.4L32.9,47.4L41.4,47.4L41.4,46.1L40.9,46.1L40.9,45.6L40.4,45.6L40.4,45.1L39.9,45.1L39.9,43.6z" stroke="none"/><path d="M100.5,41.9L100.5,42.1L99.9,42.1L99.9,41.6L99.4,41.6L99.4,34.6L98.4,34.6L98.4,33.6L97.4,33.6L97.4,33.1L96.9,33.1L96.9,31.6L95.9,31.6L95.9,31.1L94.4,31.1L94.4,30L94.6,30L94.6,30.9L96.1,30.9L96.1,31.4L97.1,31.4L97.1,32.9L97.6,32.9L97.6,33.4L98.6,33.4L98.6,34.4L99.6,34.4L99.6,41.4L100.1,41.4L100.1,41.9z" stroke="none"/><path d="M84,4.4L84,4.6L77.6,4.6L77.6,5.1L76.1,5.1L76.1,6.1L75.1,6.1L75.1,7.1L73.6,7.1L73.6,8.6L72.1,8.6L72.1,10.5L71.9,10.5L71.9,8.4L73.4,8.4L73.4,6.9L74.9,6.9L74.9,5.9L75.9,5.9L75.9,4.9L77.4,4.9L77.4,4.4z" stroke="none"/><path d="M58.5,24.1L58.5,23.9L68.4,23.9L68.4,22.9L72.6,22.9L72.6,23.4L73.1,23.4L73.1,24.6L72.6,24.6L72.6,25.1L71.6,25.1L71.6,26.1L70.6,26.1L70.6,26.6L70.1,26.6L70.1,27.1L68.1,27.1L68.1,27.6L66.1,27.6L66.1,28.1L65.6,28.1L65.6,30.1L64.6,30.1L64.6,32.1L63.6,32.1L63.6,33.6L63.1,33.6L63.1,34.6L62.6,34.6L62.6,35.6L62.1,35.6L62.1,36.6L61.6,36.6L61.6,37.6L60,37.6L60,37.4L61.4,37.4L61.4,36.4L61.9,36.4L61.9,35.4L62.4,35.4L62.4,34.4L62.9,34.4L62.9,33.4L63.4,33.4L63.4,31.9L64.4,31.9L64.4,29.9L65.4,29.9L65.4,27.9L65.9,27.9L65.9,27.4L67.9,27.4L67.9,26.9L69.9,26.9L69.9,26.4L70.4,26.4L70.4,25.9L71.4,25.9L71.4,24.9L72.4,24.9L72.4,24.4L72.9,24.4L72.9,23.6L72.4,23.6L72.4,23.1L68.6,23.1L68.6,24.1z" stroke="none"/><path d="M10.4,46.5L10.6,46.5L10.6,52.9L11.6,52.9L11.6,56.1L11.1,56.1L11.1,57.6L10.6,57.6L10.6,58.6L9.6,58.6L9.6,59.6L9.1,59.6L9.1,60L8.9,60L8.9,59.4L9.4,59.4L9.4,58.4L10.4,58.4L10.4,57.4L10.9,57.4L10.9,55.9L11.4,55.9L11.4,53.1L10.4,53.1z" stroke="none"/><path d="M52.6,12L52.4,12L52.4,8.1L51.4,8.1L51.4,7.6L49.9,7.6L49.9,5.6L47.4,5.6L47.4,5.1L45.9,5.1L45.9,4.1L45.4,4.1L45.4,3.6L42.9,3.6L42.9,3.1L42,3.1L42,2.9L43.1,2.9L43.1,3.4L45.6,3.4L45.6,3.9L46.1,3.9L46.1,4.9L47.6,4.9L47.6,5.4L50.1,5.4L50.1,7.4L51.6,7.4L51.6,7.9L52.6,7.9z" stroke="none"/><path d="M45,53.9L45,54.1L37.1,54.1L37.1,54.6L36.6,54.6L36.6,55.1L34.6,55.1L34.6,55.6L34.1,55.6L34.1,59.6L33.1,59.6L33.1,67.6L32.6,67.6L32.6,68.6L32.1,68.6L32.1,69.4L32.6,69.4L32.6,69.9L33.4,69.9L33.4,69.4L33.9,69.4L33.9,68.9L35.4,68.9L35.4,64.4L36,64.4L36,64.6L35.6,64.6L35.6,69.1L34.1,69.1L34.1,69.6L33.6,69.6L33.6,70.1L32.4,70.1L32.4,69.6L31.9,69.6L31.9,68.4L32.4,68.4L32.4,67.4L32.9,67.4L32.9,59.4L33.9,59.4L33.9,55.4L34.4,55.4L34.4,54.9L36.4,54.9L36.4,54.4L36.9,54.4L36.9,53.9z" stroke="none"/><path d="M53.9,88.5L54.1,88.5L54.1,99.1L53.1,99.1L53.1,99.6L52.1,99.6L52.1,102.1L51,102.1L51,101.9L51.9,101.9L51.9,99.4L52.9,99.4L52.9,98.9L53.9,98.9z" stroke="none"/><path d="M61.5,100.6L61.5,100.4L70.4,100.4L70.4,99.4L71.4,99.4L71.4,98.4L71.9,98.4L71.9,96.9L72.4,96.9L72.4,96.4L73.4,96.4L73.4,93L73.6,93L73.6,96.6L72.6,96.6L72.6,97.1L72.1,97.1L72.1,98.6L71.6,98.6L71.6,99.6L70.6,99.6L70.6,100.6z" stroke="none"/><path d="M43.4,64.5L43.6,64.5L43.6,72.4L45.1,72.4L45.1,73.4L48.1,73.4L48.1,73.9L48.6,73.9L48.6,74.4L49.1,74.4L49.1,76.9L51.1,76.9L51.1,77.4L52.1,77.4L52.1,77.9L52.6,77.9L52.6,78.9L54.4,78.9L54.4,78.4L54.9,78.4L54.9,76.6L54.4,76.6L54.4,73.6L53.9,73.6L53.9,73.1L52.9,73.1L52.9,70.1L51.9,70.1L51.9,69.6L51.4,69.6L51.4,55.9L51.9,55.9L51.9,54.9L53.4,54.9L53.4,53.9L54,53.9L54,54.1L53.6,54.1L53.6,55.1L52.1,55.1L52.1,56.1L51.6,56.1L51.6,69.4L52.1,69.4L52.1,69.9L53.1,69.9L53.1,72.9L54.1,72.9L54.1,73.4L54.6,73.4L54.6,76.4L55.1,76.4L55.1,78.6L54.6,78.6L54.6,79.1L52.4,79.1L52.4,78.1L51.9,78.1L51.9,77.6L50.9,77.6L50.9,77.1L48.9,77.1L48.9,74.6L48.4,74.6L48.4,74.1L47.9,74.1L47.9,73.6L44.9,73.6L44.9,72.6L43.4,72.6z" stroke="none"/><path d="M7.6,51L7.4,51L7.4,36L7.6,36z" stroke="none"/><path d="M96.1,73.5L95.9,73.5L95.9,71.4L96.9,71.4L96.9,69.4L97.4,69.4L97.4,68.4L97.9,68.4L97.9,67.9L99.4,67.9L99.4,67.4L99.9,67.4L99.9,65.9L100.4,65.9L100.4,63.4L100.9,63.4L100.9,62.9L101.4,62.9L101.4,62.4L102.4,62.4L102.4,60.4L102.9,60.4L102.9,56.1L92.1,56.1L92.1,57.6L91.1,57.6L91.1,60.1L90.6,60.1L90.6,60.6L89.1,60.6L89.1,61.1L87.1,61.1L87.1,61.5L86.9,61.5L86.9,60.9L88.9,60.9L88.9,60.4L90.4,60.4L90.4,59.9L90.9,59.9L90.9,57.4L91.9,57.4L91.9,55.9L103.1,55.9L103.1,60.6L102.6,60.6L102.6,62.6L101.6,62.6L101.6,63.1L101.1,63.1L101.1,63.6L100.6,63.6L100.6,66.1L100.1,66.1L100.1,67.6L99.6,67.6L99.6,68.1L98.1,68.1L98.1,68.6L97.6,68.6L97.6,69.6L97.1,69.6L97.1,71.6L96.1,71.6z" stroke="none"/><path d="M52.5,97.4L52.5,97.6L51.6,97.6L51.6,100.6L50.6,100.6L50.6,101.6L50.1,101.6L50.1,102.9L55.4,102.9L55.4,102.4L56.9,102.4L56.9,100.4L59.4,100.4L59.4,99.9L60.4,99.9L60.4,99.4L65.9,99.4L65.9,98.9L66.9,98.9L66.9,97.4L67.5,97.4L67.5,97.6L67.1,97.6L67.1,99.1L66.1,99.1L66.1,99.6L60.6,99.6L60.6,100.1L59.6,100.1L59.6,100.6L57.1,100.6L57.1,102.6L55.6,102.6L55.6,103.1L49.9,103.1L49.9,101.4L50.4,101.4L50.4,100.4L51.4,100.4L51.4,97.4z" stroke="none"/><path d="M10.4,15L10.6,15L10.6,17.4L11.1,17.4L11.1,17.9L11.6,17.9L11.6,18.9L12.1,18.9L12.1,19.4L14.1,19.4L14.1,19.9L14.6,19.9L14.6,20.4L15.1,20.4L15.1,24.9L15.6,24.9L15.6,27.9L16.6,27.9L16.6,28.4L19.1,28.4L19.1,30.4L19.6,30.4L19.6,30.9L20.6,30.9L20.6,32.4L21.1,32.4L21.1,33.4L21.6,33.4L21.6,34.4L22.6,34.4L22.6,35.9L23.1,35.9L23.1,36.9L23.6,36.9L23.6,38.6L20.4,38.6L20.4,37.1L19.9,37.1L19.9,36.6L18.9,36.6L18.9,35.6L18.4,35.6L18.4,34.6L17.4,34.6L17.4,33.6L14.4,33.6L14.4,33.1L11.4,33.1L11.4,32.1L10.9,32.1L10.9,30.6L9.9,30.6L9.9,30.1L9,30.1L9,29.9L10.1,29.9L10.1,30.4L11.1,30.4L11.1,31.9L11.6,31.9L11.6,32.9L14.6,32.9L14.6,33.4L17.6,33.4L17.6,34.4L18.6,34.4L18.6,35.4L19.1,35.4L19.1,36.4L20.1,36.4L20.1,36.9L20.6,36.9L20.6,38.4L23.4,38.4L23.4,37.1L22.9,37.1L22.9,36.1L22.4,36.1L22.4,34.6L21.4,34.6L21.4,33.6L20.9,33.6L20.9,32.6L20.4,32.6L20.4,31.1L19.4,31.1L19.4,30.6L18.9,30.6L18.9,28.6L16.4,28.6L16.4,28.1L15.4,28.1L15.4,25.1L14.9,25.1L14.9,20.6L14.4,20.6L14.4,20.1L13.9,20.1L13.9,19.6L11.9,19.6L11.9,19.1L11.4,19.1L11.4,18.1L10.9,18.1L10.9,17.6L10.4,17.6z" stroke="none"/><path d="M96,89.9L96,90.1L82.9,90.1L82.9,89.6L82.4,89.6L82.4,89.1L81.4,89.1L81.4,87.1L81,87.1L81,86.9L81.6,86.9L81.6,88.9L82.6,88.9L82.6,89.4L83.1,89.4L83.1,89.9z" stroke="none"/><path d="M64.4,46.5L64.6,46.5L64.6,57.9L65.1,57.9L65.1,61.4L69,61.4L69,61.6L64.9,61.6L64.9,58.1L64.4,58.1z" stroke="none"/><path d="M55.4,70.5L55.6,70.5L55.6,70.9L59.6,70.9L59.6,71.4L60.4,71.4L60.4,70.9L60.9,70.9L60.9,55.4L61.5,55.4L61.5,55.6L61.1,55.6L61.1,71.1L60.6,71.1L60.6,71.6L59.4,71.6L59.4,71.1L55.4,71.1z" stroke="none"/><path d="M74.9,3L75.1,3L75.1,5.6L74.6,5.6L74.6,6.6L73.1,6.6L73.1,7.6L72.1,7.6L72.1,8.1L71.6,8.1L71.6,10.1L71.1,10.1L71.1,16.9L71.6,16.9L71.6,17.4L73.1,17.4L73.1,19.4L73.5,19.4L73.5,19.6L72.9,19.6L72.9,17.6L71.4,17.6L71.4,17.1L70.9,17.1L70.9,9.9L71.4,9.9L71.4,7.9L71.9,7.9L71.9,7.4L72.9,7.4L72.9,6.4L74.4,6.4L74.4,5.4L74.9,5.4z" stroke="none"/><path d="M19.5,23.9L19.5,24.1L17.4,24.1L17.4,23.1L16.4,23.1L16.4,18.6L15.9,18.6L15.9,18.1L15.4,18.1L15.4,17.1L13.9,17.1L13.9,16.6L13.4,16.6L13.4,15.1L12.9,15.1L12.9,14.6L11.4,14.6L11.4,14.1L10.4,14.1L10.4,12.6L9.4,12.6L9.4,11.1L8.9,11.1L8.9,10.5L9.1,10.5L9.1,10.9L9.6,10.9L9.6,12.4L10.6,12.4L10.6,13.9L11.6,13.9L11.6,14.4L13.1,14.4L13.1,14.9L13.6,14.9L13.6,16.4L14.1,16.4L14.1,16.9L15.6,16.9L15.6,17.9L16.1,17.9L16.1,18.4L16.6,18.4L16.6,22.9L17.6,22.9L17.6,23.9z" stroke="none"/><path d="M85.4,7.5L85.6,7.5L85.6,20.9L86.1,20.9L86.1,21.4L87.1,21.4L87.1,22.4L87.6,22.4L87.6,23.4L89.6,23.4L89.6,23.9L90,23.9L90,24.1L89.4,24.1L89.4,23.6L87.4,23.6L87.4,22.6L86.9,22.6L86.9,21.6L85.9,21.6L85.9,21.1L85.4,21.1z" stroke="none"/><path d="M71.9,69L72.1,69L72.1,76.6L69.1,76.6L69.1,77.6L68.6,77.6L68.6,78.6L68.1,78.6L68.1,79.1L66.6,79.1L66.6,79.6L64.6,79.6L64.6,80.1L64.1,80.1L64.1,81.1L63.6,81.1L63.6,82.1L62.1,82.1L62.1,82.6L60,82.6L60,82.4L61.9,82.4L61.9,81.9L63.4,81.9L63.4,80.9L63.9,80.9L63.9,79.9L64.4,79.9L64.4,79.4L66.4,79.4L66.4,78.9L67.9,78.9L67.9,78.4L68.4,78.4L68.4,77.4L68.9,77.4L68.9,76.4L71.9,76.4z" stroke="none"/><path d="M91.6,40.5L91.4,40.5L91.4,31.6L90.9,31.6L90.9,31.1L90.4,31.1L90.4,30.6L89.6,30.6L89.6,31.1L89.1,31.1L89.1,31.6L87.6,31.6L87.6,32.1L86.6,32.1L86.6,38.1L86.1,38.1L86.1,38.6L78.6,38.6L78.6,39.6L75.6,39.6L75.6,40.6L75.1,40.6L75.1,42.1L73.5,42.1L73.5,41.9L74.9,41.9L74.9,40.4L75.4,40.4L75.4,39.4L78.4,39.4L78.4,38.4L85.9,38.4L85.9,37.9L86.4,37.9L86.4,31.9L87.4,31.9L87.4,31.4L88.9,31.4L88.9,30.9L89.4,30.9L89.4,30.4L90.6,30.4L90.6,30.9L91.1,30.9L91.1,31.4L91.6,31.4z" stroke="none"/><path d="M48,90.1L48,89.9L52.9,89.9L52.9,87.4L55.1,87.4L55.1,93.9L58.1,93.9L58.1,94.4L58.6,94.4L58.6,95.9L59.1,95.9L59.1,97.4L60.1,97.4L60.1,97.9L61.1,97.9L61.1,98.4L63.4,98.4L63.4,97.9L63.9,97.9L63.9,97.4L64.5,97.4L64.5,97.6L64.1,97.6L64.1,98.1L63.6,98.1L63.6,98.6L60.9,98.6L60.9,98.1L59.9,98.1L59.9,97.6L58.9,97.6L58.9,96.1L58.4,96.1L58.4,94.6L57.9,94.6L57.9,94.1L54.9,94.1L54.9,87.6L53.1,87.6L53.1,90.1z" stroke="none"/><path d="M40.5,100.4L40.5,100.6L33.6,100.6L33.6,101.6L27.4,101.6L27.4,101.1L25.9,101.1L25.9,100.6L23.9,100.6L23.9,100.1L22.9,100.1L22.9,98.1L22.4,98.1L22.4,97.5L22.6,97.5L22.6,97.9L23.1,97.9L23.1,99.9L24.1,99.9L24.1,100.4L26.1,100.4L26.1,100.9L27.6,100.9L27.6,101.4L33.4,101.4L33.4,100.4z" stroke="none"/><path d="M77.9,18L78.1,18L78.1,25.9L79.1,25.9L79.1,26.4L79.6,26.4L79.6,28.4L80.6,28.4L80.6,28.9L81.1,28.9L81.1,29.9L81.6,29.9L81.6,31.9L82.6,31.9L82.6,32.9L84.1,32.9L84.1,34.4L84.6,34.4L84.6,34.9L85.1,34.9L85.1,35.9L85.5,35.9L85.5,36.1L84.9,36.1L84.9,35.1L84.4,35.1L84.4,34.6L83.9,34.6L83.9,33.1L82.4,33.1L82.4,32.1L81.4,32.1L81.4,30.1L80.9,30.1L80.9,29.1L80.4,29.1L80.4,28.6L79.4,28.6L79.4,26.6L78.9,26.6L78.9,26.1L77.9,26.1z" stroke="none"/><path d="M100.6,40.5L100.4,40.5L100.4,31.6L99.9,31.6L99.9,30.1L95.4,30.1L95.4,29.6L94.9,29.6L94.9,29.1L88.4,29.1L88.4,28.6L87.9,28.6L87.9,28.1L87.4,28.1L87.4,27.6L86.9,27.6L86.9,27.1L86.4,27.1L86.4,26.6L85.9,26.6L85.9,26.1L85.4,26.1L85.4,24.1L84.4,24.1L84.4,21.1L83.9,21.1L83.9,20.6L83.4,20.6L83.4,20.1L82.9,20.1L82.9,19.1L81.9,19.1L81.9,18.1L81.4,18.1L81.4,17.6L78.4,17.6L78.4,17.1L77.1,17.1L77.1,33.1L76.6,33.1L76.6,33.6L76.1,33.6L76.1,34.1L75.6,34.1L75.6,35.6L75.1,35.6L75.1,36.6L74.6,36.6L74.6,37.1L74.1,37.1L74.1,37.6L73.1,37.6L73.1,38.6L72.6,38.6L72.6,42.9L80.4,42.9L80.4,40.4L81,40.4L81,40.6L80.6,40.6L80.6,43.1L72.4,43.1L72.4,38.4L72.9,38.4L72.9,37.4L73.9,37.4L73.9,36.9L74.4,36.9L74.4,36.4L74.9,36.4L74.9,35.4L75.4,35.4L75.4,33.9L75.9,33.9L75.9,33.4L76.4,33.4L76.4,32.9L76.9,32.9L76.9,16.9L78.6,16.9L78.6,17.4L81.6,17.4L81.6,17.9L82.1,17.9L82.1,18.9L83.1,18.9L83.1,19.9L83.6,19.9L83.6,20.4L84.1,20.4L84.1,20.9L84.6,20.9L84.6,23.9L85.6,23.9L85.6,25.9L86.1,25.9L86.1,26.4L86.6,26.4L86.6,26.9L87.1,26.9L87.1,27.4L87.6,27.4L87.6,27.9L88.1,27.9L88.1,28.4L88.6,28.4L88.6,28.9L95.1,28.9L95.1,29.4L95.6,29.4L95.6,29.9L100.1,29.9L100.1,31.4L100.6,31.4z" stroke="none"/><path d="M101.9,81L102.1,81L102.1,83.6L101.6,83.6L101.6,85.1L99.6,85.1L99.6,86.6L99.1,86.6L99.1,87.1L98.6,87.1L98.6,87.6L98.1,87.6L98.1,89.1L97.6,89.1L97.6,90.1L97.1,90.1L97.1,90.6L96.6,90.6L96.6,91.1L90.6,91.1L90.6,91.6L85.5,91.6L85.5,91.4L90.4,91.4L90.4,90.9L96.4,90.9L96.4,90.4L96.9,90.4L96.9,89.9L97.4,89.9L97.4,88.9L97.9,88.9L97.9,87.4L98.4,87.4L98.4,86.9L98.9,86.9L98.9,86.4L99.4,86.4L99.4,84.9L101.4,84.9L101.4,83.4L101.9,83.4z" stroke="none"/><path d="M20.9,93L21.1,93L21.1,98.4L21.6,98.4L21.6,99.4L22.1,99.4L22.1,100.4L23.1,100.4L23.1,100.9L25.6,100.9L25.6,101.4L27.1,101.4L27.1,101.9L41.9,101.9L41.9,101.4L42.9,101.4L42.9,95.6L42.4,95.6L42.4,94.6L41.9,94.6L41.9,94.1L40.9,94.1L40.9,91.6L40.5,91.6L40.5,91.4L41.1,91.4L41.1,93.9L42.1,93.9L42.1,94.4L42.6,94.4L42.6,95.4L43.1,95.4L43.1,101.6L42.1,101.6L42.1,102.1L26.9,102.1L26.9,101.6L25.4,101.6L25.4,101.1L22.9,101.1L22.9,100.6L21.9,100.6L21.9,99.6L21.4,99.6L21.4,98.6L20.9,98.6z" stroke="none"/><path d="M48,4.6L48,4.4L59.9,4.4L59.9,2.4L60.4,2.4L60.4,1.9L65.6,1.9L65.6,2.4L66.6,2.4L66.6,3.9L67.1,3.9L67.1,4.4L67.6,4.4L67.6,4.9L68.1,4.9L68.1,5.4L68.6,5.4L68.6,7.6L67.5,7.6L67.5,7.4L68.4,7.4L68.4,5.6L67.9,5.6L67.9,5.1L67.4,5.1L67.4,4.6L66.9,4.6L66.9,4.1L66.4,4.1L66.4,2.6L65.4,2.6L65.4,2.1L60.6,2.1L60.6,2.6L60.1,2.6L60.1,4.6z" stroke="none"/><path d="M71.9,82.5L72.1,82.5L72.1,84.1L71.6,84.1L71.6,84.6L70.1,84.6L70.1,85.1L69.6,85.1L69.6,85.6L69.1,85.6L69.1,86.1L68.6,86.1L68.6,86.6L68.1,86.6L68.1,87.4L68.6,87.4L68.6,87.9L69.6,87.9L69.6,88.9L70.1,88.9L70.1,89.4L71.1,89.4L71.1,89.9L73.1,89.9L73.1,91.4L74.1,91.4L74.1,91.9L74.6,91.9L74.6,101.4L75.1,101.4L75.1,102L74.9,102L74.9,101.6L74.4,101.6L74.4,92.1L73.9,92.1L73.9,91.6L72.9,91.6L72.9,90.1L70.9,90.1L70.9,89.6L69.9,89.6L69.9,89.1L69.4,89.1L69.4,88.1L68.4,88.1L68.4,87.6L67.9,87.6L67.9,86.4L68.4,86.4L68.4,85.9L68.9,85.9L68.9,85.4L69.4,85.4L69.4,84.9L69.9,84.9L69.9,84.4L71.4,84.4L71.4,83.9L71.9,83.9z" stroke="none"/><path d="M41.9,18L42.1,18L42.1,19.4L42.6,19.4L42.6,19.9L43.1,19.9L43.1,20.4L43.9,20.4L43.9,19.9L44.4,19.9L44.4,16.4L44.9,16.4L44.9,6.6L43.4,6.6L43.4,6.1L41.9,6.1L41.9,4.6L41.4,4.6L41.4,4.1L40.9,4.1L40.9,1.9L59.4,1.9L59.4,1.4L67.1,1.4L67.1,3.4L67.6,3.4L67.6,3.9L68.6,3.9L68.6,4.9L69.1,4.9L69.1,8.1L68.6,8.1L68.6,8.6L61.6,8.6L61.6,9.1L60,9.1L60,8.9L61.4,8.9L61.4,8.4L68.4,8.4L68.4,7.9L68.9,7.9L68.9,5.1L68.4,5.1L68.4,4.1L67.4,4.1L67.4,3.6L66.9,3.6L66.9,1.6L59.6,1.6L59.6,2.1L41.1,2.1L41.1,3.9L41.6,3.9L41.6,4.4L42.1,4.4L42.1,5.9L43.6,5.9L43.6,6.4L45.1,6.4L45.1,16.6L44.6,16.6L44.6,20.1L44.1,20.1L44.1,20.6L42.9,20.6L42.9,20.1L42.4,20.1L42.4,19.6L41.9,19.6z" stroke="none"/><path d="M33,96.1L33,95.9L38.4,95.9L38.4,95.4L38.9,95.4L38.9,90.9L39.9,90.9L39.9,90.4L42.9,90.4L42.9,89.9L43.4,89.9L43.4,88.9L43.9,88.9L43.9,87.9L44.4,87.9L44.4,86.9L45.4,86.9L45.4,85.9L45.9,85.9L45.9,84.9L46.9,84.9L46.9,84.4L47.4,84.4L47.4,83.4L48.9,83.4L48.9,82.4L49.5,82.4L49.5,82.6L49.1,82.6L49.1,83.6L47.6,83.6L47.6,84.6L47.1,84.6L47.1,85.1L46.1,85.1L46.1,86.1L45.6,86.1L45.6,87.1L44.6,87.1L44.6,88.1L44.1,88.1L44.1,89.1L43.6,89.1L43.6,90.1L43.1,90.1L43.1,90.6L40.1,90.6L40.1,91.1L39.1,91.1L39.1,95.6L38.6,95.6L38.6,96.1z" stroke="none"/><path d="M51.1,84L50.9,84L50.9,79.1L48.4,79.1L48.4,78.6L47.4,78.6L47.4,77.6L46.4,77.6L46.4,77.1L45.9,77.1L45.9,75.6L44.9,75.6L44.9,74.6L44.4,74.6L44.4,73.1L42.9,73.1L42.9,71.6L42.4,71.6L42.4,71.1L41.4,71.1L41.4,70.1L40.9,70.1L40.9,69.6L38.4,69.6L38.4,69.1L37.9,69.1L37.9,68.6L37.4,68.6L37.4,67.5L37.6,67.5L37.6,68.4L38.1,68.4L38.1,68.9L38.6,68.9L38.6,69.4L41.1,69.4L41.1,69.9L41.6,69.9L41.6,70.9L42.6,70.9L42.6,71.4L43.1,71.4L43.1,72.9L44.6,72.9L44.6,74.4L45.1,74.4L45.1,75.4L46.1,75.4L46.1,76.9L46.6,76.9L46.6,77.4L47.6,77.4L47.6,78.4L48.6,78.4L48.6,78.9L51.1,78.9z" stroke="none"/><path d="M85.5,102.1L85.5,101.9L88.9,101.9L88.9,100.4L89.4,100.4L89.4,99.4L90.4,99.4L90.4,98.4L90.9,98.4L90.9,97.9L93.9,97.9L93.9,96.4L95.9,96.4L95.9,94.9L96.9,94.9L96.9,93.9L97.4,93.9L97.4,92.9L98.4,92.9L98.4,92.4L98.9,92.4L98.9,90.4L101.9,90.4L101.9,88.5L102.1,88.5L102.1,90.6L99.1,90.6L99.1,92.6L98.6,92.6L98.6,93.1L97.6,93.1L97.6,94.1L97.1,94.1L97.1,95.1L96.1,95.1L96.1,96.6L94.1,96.6L94.1,98.1L91.1,98.1L91.1,98.6L90.6,98.6L90.6,99.6L89.6,99.6L89.6,100.6L89.1,100.6L89.1,102.1z" stroke="none"/><path d="M39.1,85.5L38.9,85.5L38.9,75.6L37.4,75.6L37.4,74.1L36.9,74.1L36.9,73.6L34.4,73.6L34.4,73.1L31.9,73.1L31.9,72.6L31.4,72.6L31.4,72.1L30.9,72.1L30.9,70.6L29.4,70.6L29.4,70.1L28.9,70.1L28.9,69.6L27.9,69.6L27.9,67.6L27,67.6L27,67.4L28.1,67.4L28.1,69.4L29.1,69.4L29.1,69.9L29.6,69.9L29.6,70.4L31.1,70.4L31.1,71.9L31.6,71.9L31.6,72.4L32.1,72.4L32.1,72.9L34.6,72.9L34.6,73.4L37.1,73.4L37.1,73.9L37.6,73.9L37.6,75.4L39.1,75.4z" stroke="none"/><path d="M10.4,91.5L10.6,91.5L10.6,92.6L10.1,92.6L10.1,93.6L9.6,93.6L9.6,94.6L8.1,94.6L8.1,95.1L6.1,95.1L6.1,95.6L3.9,95.6L3.9,95.1L1.9,95.1L1.9,94.6L1.4,94.6L1.4,71.4L1.9,71.4L1.9,70.9L2.4,70.9L2.4,70.4L3,70.4L3,70.6L2.6,70.6L2.6,71.1L2.1,71.1L2.1,71.6L1.6,71.6L1.6,94.4L2.1,94.4L2.1,94.9L4.1,94.9L4.1,95.4L5.9,95.4L5.9,94.9L7.9,94.9L7.9,94.4L9.4,94.4L9.4,93.4L9.9,93.4L9.9,92.4L10.4,92.4z" stroke="none"/><path d="M15.1,49.5L14.9,49.5L14.9,49.1L14.4,49.1L14.4,48.6L13.9,48.6L13.9,35.1L12.9,35.1L12.9,34.6L12.4,34.6L12.4,34.1L10.9,34.1L10.9,33.1L9.9,33.1L9.9,32.6L9.4,32.6L9.4,31.1L8.4,31.1L8.4,30.6L7.9,30.6L7.9,29.1L7.4,29.1L7.4,28.5L7.6,28.5L7.6,28.9L8.1,28.9L8.1,30.4L8.6,30.4L8.6,30.9L9.6,30.9L9.6,32.4L10.1,32.4L10.1,32.9L11.1,32.9L11.1,33.9L12.6,33.9L12.6,34.4L13.1,34.4L13.1,34.9L14.1,34.9L14.1,48.4L14.6,48.4L14.6,48.9L15.1,48.9z" stroke="none"/><path d="M59.9,34.5L60.1,34.5L60.1,36.6L59.6,36.6L59.6,37.1L59.1,37.1L59.1,37.9L59.6,37.9L59.6,38.4L61.9,38.4L61.9,37.9L62.4,37.9L62.4,36.4L62.9,36.4L62.9,35.9L63.4,35.9L63.4,34.4L63.9,34.4L63.9,32.4L64.9,32.4L64.9,31.4L65.9,31.4L65.9,30.9L67.4,30.9L67.4,30.4L68.4,30.4L68.4,29.9L70.9,29.9L70.9,29.4L71.4,29.4L71.4,26.4L71.9,26.4L71.9,25.4L72.9,25.4L72.9,24.9L73.4,24.9L73.4,20.4L74.4,20.4L74.4,16.4L75,16.4L75,16.6L74.6,16.6L74.6,20.6L73.6,20.6L73.6,25.1L73.1,25.1L73.1,25.6L72.1,25.6L72.1,26.6L71.6,26.6L71.6,29.6L71.1,29.6L71.1,30.1L68.6,30.1L68.6,30.6L67.6,30.6L67.6,31.1L66.1,31.1L66.1,31.6L65.1,31.6L65.1,32.6L64.1,32.6L64.1,34.6L63.6,34.6L63.6,36.1L63.1,36.1L63.1,36.6L62.6,36.6L62.6,38.1L62.1,38.1L62.1,38.6L59.4,38.6L59.4,38.1L58.9,38.1L58.9,36.9L59.4,36.9L59.4,36.4L59.9,36.4z" stroke="none"/><path d="M101.9,3L102.1,3L102.1,15.6L101.6,15.6L101.6,17.1L100.6,17.1L100.6,17.6L100.1,17.6L100.1,19.1L95.6,19.1L95.6,20.1L95.1,20.1L95.1,21.6L93.1,21.6L93.1,22.6L88.5,22.6L88.5,22.4L92.9,22.4L92.9,21.4L94.9,21.4L94.9,19.9L95.4,19.9L95.4,18.9L99.9,18.9L99.9,17.4L100.4,17.4L100.4,16.9L101.4,16.9L101.4,15.4L101.9,15.4z" stroke="none"/><path d="M100.5,88.4L100.5,88.6L100.1,88.6L100.1,89.1L98.6,89.1L98.6,89.6L98.1,89.6L98.1,90.6L97.6,90.6L97.6,91.1L97.1,91.1L97.1,91.6L95.1,91.6L95.1,92.1L86.1,92.1L86.1,92.6L80.4,92.6L80.4,92.1L77.9,92.1L77.9,91.6L76.9,91.6L76.9,90.1L76.5,90.1L76.5,89.9L77.1,89.9L77.1,91.4L78.1,91.4L78.1,91.9L80.6,91.9L80.6,92.4L85.9,92.4L85.9,91.9L94.9,91.9L94.9,91.4L96.9,91.4L96.9,90.9L97.4,90.9L97.4,90.4L97.9,90.4L97.9,89.4L98.4,89.4L98.4,88.9L99.9,88.9L99.9,88.4z" stroke="none"/><path d="M99.1,73.5L98.9,73.5L98.9,69.9L99.4,69.9L99.4,69.4L99.9,69.4L99.9,68.9L100.4,68.9L100.4,66.4L100.9,66.4L100.9,64.9L101.4,64.9L101.4,63.9L102.4,63.9L102.4,63.4L102.9,63.4L102.9,62.4L103.4,62.4L103.4,55.6L90.9,55.6L90.9,54.6L89.4,54.6L89.4,54.1L88.4,54.1L88.4,53.1L86.9,53.1L86.9,52.5L87.1,52.5L87.1,52.9L88.6,52.9L88.6,53.9L89.6,53.9L89.6,54.4L91.1,54.4L91.1,55.4L103.6,55.4L103.6,62.6L103.1,62.6L103.1,63.6L102.6,63.6L102.6,64.1L101.6,64.1L101.6,65.1L101.1,65.1L101.1,66.6L100.6,66.6L100.6,69.1L100.1,69.1L100.1,69.6L99.6,69.6L99.6,70.1L99.1,70.1z" stroke="none"/><path d="M47.9,76.5L48.1,76.5L48.1,77.4L49.6,77.4L49.6,77.9L51.6,77.9L51.6,83.4L52.1,83.4L52.1,85.1L49.9,85.1L49.9,83.4L50.4,83.4L50.4,82.1L49.9,82.1L49.9,81.6L49.1,81.6L49.1,82.1L48.6,82.1L48.6,83.1L47.1,83.1L47.1,84.1L46.1,84.1L46.1,84.6L45.6,84.6L45.6,85.6L45.1,85.6L45.1,86.1L44.6,86.1L44.6,86.6L44.1,86.6L44.1,87.6L43.6,87.6L43.6,88.6L43.1,88.6L43.1,89.6L40.6,89.6L40.6,90.1L39.1,90.1L39.1,90.6L38.6,90.6L38.6,92.6L37.1,92.6L37.1,93.1L33.6,93.1L33.6,93.6L32.6,93.6L32.6,95.6L32.1,95.6L32.1,96.4L32.6,96.4L32.6,96.9L33.1,96.9L33.1,97.4L33.6,97.4L33.6,97.9L34.1,97.9L34.1,98.4L34.6,98.4L34.6,99.4L41.1,99.4L41.1,99.9L42.1,99.9L42.1,100.5L41.9,100.5L41.9,100.1L40.9,100.1L40.9,99.6L34.4,99.6L34.4,98.6L33.9,98.6L33.9,98.1L33.4,98.1L33.4,97.6L32.9,97.6L32.9,97.1L32.4,97.1L32.4,96.6L31.9,96.6L31.9,95.4L32.4,95.4L32.4,93.4L33.4,93.4L33.4,92.9L36.9,92.9L36.9,92.4L38.4,92.4L38.4,90.4L38.9,90.4L38.9,89.9L40.4,89.9L40.4,89.4L42.9,89.4L42.9,88.4L43.4,88.4L43.4,87.4L43.9,87.4L43.9,86.4L44.4,86.4L44.4,85.9L44.9,85.9L44.9,85.4L45.4,85.4L45.4,84.4L45.9,84.4L45.9,83.9L46.9,83.9L46.9,82.9L48.4,82.9L48.4,81.9L48.9,81.9L48.9,81.4L50.1,81.4L50.1,81.9L50.6,81.9L50.6,83.6L50.1,83.6L50.1,84.9L51.9,84.9L51.9,83.6L51.4,83.6L51.4,78.1L49.4,78.1L49.4,77.6L47.9,77.6z" stroke="none"/><path d="M84,57.1L84,56.9L84.9,56.9L84.9,54.9L85.4,54.9L85.4,51.9L86.4,51.9L86.4,51.4L93.6,51.4L93.6,51.9L94.1,51.9L94.1,52.4L95.1,52.4L95.1,52.9L102.6,52.9L102.6,53.9L103.1,53.9L103.1,54.4L103.6,54.4L103.6,54.9L104.1,54.9L104.1,70.6L102.6,70.6L102.6,71.6L102.1,71.6L102.1,72.1L101.6,72.1L101.6,72.6L100.6,72.6L100.6,73.6L100.1,73.6L100.1,74.6L99.6,74.6L99.6,75.1L99.1,75.1L99.1,75.6L98.1,75.6L98.1,77.6L97.6,77.6L97.6,78L97.4,78L97.4,77.4L97.9,77.4L97.9,75.4L98.9,75.4L98.9,74.9L99.4,74.9L99.4,74.4L99.9,74.4L99.9,73.4L100.4,73.4L100.4,72.4L101.4,72.4L101.4,71.9L101.9,71.9L101.9,71.4L102.4,71.4L102.4,70.4L103.9,70.4L103.9,55.1L103.4,55.1L103.4,54.6L102.9,54.6L102.9,54.1L102.4,54.1L102.4,53.1L94.9,53.1L94.9,52.6L93.9,52.6L93.9,52.1L93.4,52.1L93.4,51.6L86.6,51.6L86.6,52.1L85.6,52.1L85.6,55.1L85.1,55.1L85.1,57.1z" stroke="none"/><path d="M30,8.9L30,9.1L28.9,9.1L28.9,7.1L28.4,7.1L28.4,4.6L27.9,4.6L27.9,4.1L26.4,4.1L26.4,3.6L5.6,3.6L5.6,4.1L4.1,4.1L4.1,4.6L3.6,4.6L3.6,5.1L2.6,5.1L2.6,6.1L2.1,6.1L2.1,6.6L1.6,6.6L1.6,26.4L3.4,26.4L3.4,25.9L3.9,25.9L3.9,11.9L4.5,11.9L4.5,12.1L4.1,12.1L4.1,26.1L3.6,26.1L3.6,26.6L1.4,26.6L1.4,6.4L1.9,6.4L1.9,5.9L2.4,5.9L2.4,4.9L3.4,4.9L3.4,4.4L3.9,4.4L3.9,3.9L5.4,3.9L5.4,3.4L26.6,3.4L26.6,3.9L28.1,3.9L28.1,4.4L28.6,4.4L28.6,6.9L29.1,6.9L29.1,8.9z" stroke="none"/><path d="M72.1,16.5L71.9,16.5L71.9,15.9L72.9,15.9L72.9,15.4L75.6,15.4L75.6,15.9L76.1,15.9L76.1,24.6L75.6,24.6L75.6,25.1L75.1,25.1L75.1,27.6L74.1,27.6L74.1,29.1L72.1,29.1L72.1,30.1L71.6,30.1L71.6,30.6L69.1,30.6L69.1,31.1L68.1,31.1L68.1,31.6L66.6,31.6L66.6,32.6L66.1,32.6L66.1,33.1L65.1,33.1L65.1,34.6L64.6,34.6L64.6,36.6L63.6,36.6L63.6,37.1L63.1,37.1L63.1,39.1L54.4,39.1L54.4,38.1L53.9,38.1L53.9,37.6L52.9,37.6L52.9,36.1L52.4,36.1L52.4,35.6L51.9,35.6L51.9,31.1L50.9,31.1L50.9,30.1L50.4,30.1L50.4,29.6L49.9,29.6L49.9,29.1L48.4,29.1L48.4,27.1L48,27.1L48,26.9L48.6,26.9L48.6,28.9L50.1,28.9L50.1,29.4L50.6,29.4L50.6,29.9L51.1,29.9L51.1,30.9L52.1,30.9L52.1,35.4L52.6,35.4L52.6,35.9L53.1,35.9L53.1,37.4L54.1,37.4L54.1,37.9L54.6,37.9L54.6,38.9L62.9,38.9L62.9,36.9L63.4,36.9L63.4,36.4L64.4,36.4L64.4,34.4L64.9,34.4L64.9,32.9L65.9,32.9L65.9,32.4L66.4,32.4L66.4,31.4L67.9,31.4L67.9,30.9L68.9,30.9L68.9,30.4L71.4,30.4L71.4,29.9L71.9,29.9L71.9,28.9L73.9,28.9L73.9,27.4L74.9,27.4L74.9,24.9L75.4,24.9L75.4,24.4L75.9,24.4L75.9,16.1L75.4,16.1L75.4,15.6L73.1,15.6L73.1,16.1L72.1,16.1z" stroke="none"/><path d="M86.9,81L87.1,81L87.1,81.4L87.6,81.4L87.6,82.4L88.1,82.4L88.1,83.4L88.6,83.4L88.6,84.9L90.1,84.9L90.1,85.4L90.6,85.4L90.6,85.9L91.1,85.9L91.1,86.4L92.6,86.4L92.6,89.1L92.1,89.1L92.1,89.6L90.9,89.6L90.9,89.1L90.4,89.1L90.4,88.1L89.9,88.1L89.9,87.6L83.9,87.6L83.9,86.6L82.4,86.6L82.4,86.1L77.1,86.1L77.1,86.6L76.1,86.6L76.1,89.1L75.6,89.1L75.6,100.9L76.1,100.9L76.1,102.6L75.6,102.6L75.6,103.1L56.1,103.1L56.1,103.6L49.4,103.6L49.4,94.1L48.9,94.1L48.9,93.6L48.4,93.6L48.4,93.1L47.9,93.1L47.9,92.6L47.4,92.6L47.4,92.1L46.9,92.1L46.9,89.4L47.4,89.4L47.4,88.9L52.4,88.9L52.4,86.9L58.6,86.9L58.6,87.4L60.1,87.4L60.1,88.4L60.6,88.4L60.6,89.9L61.5,89.9L61.5,90.1L60.4,90.1L60.4,88.6L59.9,88.6L59.9,87.6L58.4,87.6L58.4,87.1L52.6,87.1L52.6,89.1L47.6,89.1L47.6,89.6L47.1,89.6L47.1,91.9L47.6,91.9L47.6,92.4L48.1,92.4L48.1,92.9L48.6,92.9L48.6,93.4L49.1,93.4L49.1,93.9L49.6,93.9L49.6,103.4L55.9,103.4L55.9,102.9L75.4,102.9L75.4,102.4L75.9,102.4L75.9,101.1L75.4,101.1L75.4,88.9L75.9,88.9L75.9,86.4L76.9,86.4L76.9,85.9L82.6,85.9L82.6,86.4L84.1,86.4L84.1,87.4L90.1,87.4L90.1,87.9L90.6,87.9L90.6,88.9L91.1,88.9L91.1,89.4L91.9,89.4L91.9,88.9L92.4,88.9L92.4,86.6L90.9,86.6L90.9,86.1L90.4,86.1L90.4,85.6L89.9,85.6L89.9,85.1L88.4,85.1L88.4,83.6L87.9,83.6L87.9,82.6L87.4,82.6L87.4,81.6L86.9,81.6z" stroke="none"/><path d="M96,42.1L96,41.9L99.6,41.9L99.6,42.9L100.1,42.9L100.1,51.4L100.6,51.4L100.6,51.9L102.1,51.9L102.1,52.4L103.1,52.4L103.1,53.4L103.6,53.4L103.6,53.9L104.1,53.9L104.1,54.4L104.6,54.4L104.6,75.6L103.6,75.6L103.6,77.1L102.6,77.1L102.6,78.1L101.1,78.1L101.1,78.6L99.6,78.6L99.6,79.1L96.9,79.1L96.9,78.6L96.4,78.6L96.4,75.9L96.9,75.9L96.9,71.9L97.4,71.9L97.4,70.4L97.9,70.4L97.9,68.9L99,68.9L99,69.1L98.1,69.1L98.1,70.6L97.6,70.6L97.6,72.1L97.1,72.1L97.1,76.1L96.6,76.1L96.6,78.4L97.1,78.4L97.1,78.9L99.4,78.9L99.4,78.4L100.9,78.4L100.9,77.9L102.4,77.9L102.4,76.9L103.4,76.9L103.4,75.4L104.4,75.4L104.4,54.6L103.9,54.6L103.9,54.1L103.4,54.1L103.4,53.6L102.9,53.6L102.9,52.6L101.9,52.6L101.9,52.1L100.4,52.1L100.4,51.6L99.9,51.6L99.9,43.1L99.4,43.1L99.4,42.1z" stroke="none"/><path d="M82.5,44.9L82.5,45.1L62.6,45.1L62.6,45.6L62.1,45.6L62.1,54.9L62.6,54.9L62.6,74.1L62.1,74.1L62.1,74.6L61.1,74.6L61.1,76.6L60.6,76.6L60.6,78.6L58.6,78.6L58.6,80.1L57.6,80.1L57.6,81.1L56.6,81.1L56.6,82.1L55.6,82.1L55.6,83.6L54.6,83.6L54.6,85.6L50.6,85.6L50.6,86.1L50.1,86.1L50.1,86.6L48.6,86.6L48.6,87.1L47.6,87.1L47.6,88.6L47.1,88.6L47.1,89.1L46.6,89.1L46.6,102.4L47.1,102.4L47.1,102.9L48.6,102.9L48.6,103.9L91.9,103.9L91.9,103.4L92.9,103.4L92.9,102.9L93.4,102.9L93.4,102.4L93.9,102.4L93.9,101.9L94.4,101.9L94.4,101.4L94.9,101.4L94.9,100.4L96.4,100.4L96.4,99.9L96.9,99.9L96.9,95.9L97.4,95.9L97.4,95.4L98.9,95.4L98.9,94.4L99.4,94.4L99.4,93.9L100.9,93.9L100.9,92.4L101.4,92.4L101.4,91.4L101.9,91.4L101.9,90.9L102.4,90.9L102.4,90.4L102.9,90.4L102.9,80.1L100.1,80.1L100.1,80.6L99.6,80.6L99.6,82.6L99.1,82.6L99.1,83.1L98.6,83.1L98.6,83.6L92.9,83.6L92.9,83.1L92.4,83.1L92.4,80.6L91.9,80.6L91.9,72.6L91.4,72.6L91.4,72L91.6,72L91.6,72.4L92.1,72.4L92.1,80.4L92.6,80.4L92.6,82.9L93.1,82.9L93.1,83.4L98.4,83.4L98.4,82.9L98.9,82.9L98.9,82.4L99.4,82.4L99.4,80.4L99.9,80.4L99.9,79.9L103.1,79.9L103.1,90.6L102.6,90.6L102.6,91.1L102.1,91.1L102.1,91.6L101.6,91.6L101.6,92.6L101.1,92.6L101.1,94.1L99.6,94.1L99.6,94.6L99.1,94.6L99.1,95.6L97.6,95.6L97.6,96.1L97.1,96.1L97.1,100.1L96.6,100.1L96.6,100.6L95.1,100.6L95.1,101.6L94.6,101.6L94.6,102.1L94.1,102.1L94.1,102.6L93.6,102.6L93.6,103.1L93.1,103.1L93.1,103.6L92.1,103.6L92.1,104.1L48.4,104.1L48.4,103.1L46.9,103.1L46.9,102.6L46.4,102.6L46.4,88.9L46.9,88.9L46.9,88.4L47.4,88.4L47.4,86.9L48.4,86.9L48.4,86.4L49.9,86.4L49.9,85.9L50.4,85.9L50.4,85.4L54.4,85.4L54.4,83.4L55.4,83.4L55.4,81.9L56.4,81.9L56.4,80.9L57.4,80.9L57.4,79.9L58.4,79.9L58.4,78.4L60.4,78.4L60.4,76.4L60.9,76.4L60.9,74.4L61.9,74.4L61.9,73.9L62.4,73.9L62.4,55.1L61.9,55.1L61.9,45.4L62.4,45.4L62.4,44.9z" stroke="none"/><path d="M87,44.9L87,45.1L83.4,45.1L83.4,44.6L82.9,44.6L82.9,44.1L67.9,44.1L67.9,43.6L66.4,43.6L66.4,42.1L63.9,42.1L63.9,41.6L63.4,41.6L63.4,41.1L58.4,41.1L58.4,40.5L58.6,40.5L58.6,40.9L63.6,40.9L63.6,41.4L64.1,41.4L64.1,41.9L66.6,41.9L66.6,43.4L68.1,43.4L68.1,43.9L83.1,43.9L83.1,44.4L83.6,44.4L83.6,44.9z" stroke="none"/><path d="M27,90.1L27,89.9L36.4,89.9L36.4,89.4L36.9,89.4L36.9,88.9L37.4,88.9L37.4,87.9L37.9,87.9L37.9,87.4L38.4,87.4L38.4,86.9L38.9,86.9L38.9,86.4L39.4,86.4L39.4,85.9L39.9,85.9L39.9,74.1L39.4,74.1L39.4,73.6L38.9,73.6L38.9,71.6L38.4,71.6L38.4,71.1L37.9,71.1L37.9,70.1L36.9,70.1L36.9,68.6L36.4,68.6L36.4,66.9L36.9,66.9L36.9,66.4L39.9,66.4L39.9,64.9L40.4,64.9L40.4,64.5L40.6,64.5L40.6,65.1L40.1,65.1L40.1,66.6L37.1,66.6L37.1,67.1L36.6,67.1L36.6,68.4L37.1,68.4L37.1,69.9L38.1,69.9L38.1,70.9L38.6,70.9L38.6,71.4L39.1,71.4L39.1,73.4L39.6,73.4L39.6,73.9L40.1,73.9L40.1,86.1L39.6,86.1L39.6,86.6L39.1,86.6L39.1,87.1L38.6,87.1L38.6,87.6L38.1,87.6L38.1,88.1L37.6,88.1L37.6,89.1L37.1,89.1L37.1,89.6L36.6,89.6L36.6,90.1z" stroke="none"/><path d="M99.1,100.5L98.9,100.5L98.9,96.4L99.4,96.4L99.4,95.9L99.9,95.9L99.9,95.4L100.9,95.4L100.9,94.9L101.4,94.9L101.4,93.9L102.4,93.9L102.4,92.4L103.4,92.4L103.4,79.6L96.4,79.6L96.4,79.1L95.9,79.1L95.9,76.6L95.4,76.6L95.4,75.1L94.9,75.1L94.9,71.4L95.4,71.4L95.4,70.9L95.9,70.9L95.9,70.5L96.1,70.5L96.1,71.1L95.6,71.1L95.6,71.6L95.1,71.6L95.1,74.9L95.6,74.9L95.6,76.4L96.1,76.4L96.1,78.9L96.6,78.9L96.6,79.4L103.6,79.4L103.6,92.6L102.6,92.6L102.6,94.1L101.6,94.1L101.6,95.1L101.1,95.1L101.1,95.6L100.1,95.6L100.1,96.1L99.6,96.1L99.6,96.6L99.1,96.6z" stroke="none"/><path d="M23.9,33L24.1,33L24.1,40.4L24.6,40.4L24.6,40.9L25.1,40.9L25.1,46.4L25.6,46.4L25.6,47.9L26.1,47.9L26.1,50.9L27.1,50.9L27.1,52.9L27.6,52.9L27.6,54.4L28.1,54.4L28.1,55.4L28.6,55.4L28.6,64.4L29.1,64.4L29.1,65.9L30.1,65.9L30.1,67.4L30.6,67.4L30.6,68.4L31.1,68.4L31.1,69.4L31.6,69.4L31.6,70.4L34.4,70.4L34.4,69.9L34.9,69.9L34.9,69.4L35.9,69.4L35.9,65.4L36.4,65.4L36.4,64.9L36.9,64.9L36.9,64.1L36.4,64.1L36.4,63.6L35.4,63.6L35.4,63.1L34.9,63.1L34.9,61.6L34.5,61.6L34.5,61.4L35.1,61.4L35.1,62.9L35.6,62.9L35.6,63.4L36.6,63.4L36.6,63.9L37.1,63.9L37.1,65.1L36.6,65.1L36.6,65.6L36.1,65.6L36.1,69.6L35.1,69.6L35.1,70.1L34.6,70.1L34.6,70.6L31.4,70.6L31.4,69.6L30.9,69.6L30.9,68.6L30.4,68.6L30.4,67.6L29.9,67.6L29.9,66.1L28.9,66.1L28.9,64.6L28.4,64.6L28.4,55.6L27.9,55.6L27.9,54.6L27.4,54.6L27.4,53.1L26.9,53.1L26.9,51.1L25.9,51.1L25.9,48.1L25.4,48.1L25.4,46.6L24.9,46.6L24.9,41.1L24.4,41.1L24.4,40.6L23.9,40.6z" stroke="none"/><path d="M91.6,15L91.4,15L91.4,14.6L87.9,14.6L87.9,11.1L87.4,11.1L87.4,7.6L86.4,7.6L86.4,7.1L85.9,7.1L85.9,6.6L84.6,6.6L84.6,12.1L83.1,12.1L83.1,12.6L81.6,12.6L81.6,13.6L81.1,13.6L81.1,15.1L80.1,15.1L80.1,15.6L78.1,15.6L78.1,16.1L77.1,16.1L77.1,16.6L76.6,16.6L76.6,32.1L76.1,32.1L76.1,33.1L75.6,33.1L75.6,33.6L75.1,33.6L75.1,34.1L74.6,34.1L74.6,34.6L74.1,34.6L74.1,35.6L73.1,35.6L73.1,36.1L71.1,36.1L71.1,36.6L70.6,36.6L70.6,37.5L70.4,37.5L70.4,36.4L70.9,36.4L70.9,35.9L72.9,35.9L72.9,35.4L73.9,35.4L73.9,34.4L74.4,34.4L74.4,33.9L74.9,33.9L74.9,33.4L75.4,33.4L75.4,32.9L75.9,32.9L75.9,31.9L76.4,31.9L76.4,16.4L76.9,16.4L76.9,15.9L77.9,15.9L77.9,15.4L79.9,15.4L79.9,14.9L80.9,14.9L80.9,13.4L81.4,13.4L81.4,12.4L82.9,12.4L82.9,11.9L84.4,11.9L84.4,6.4L86.1,6.4L86.1,6.9L86.6,6.9L86.6,7.4L87.6,7.4L87.6,10.9L88.1,10.9L88.1,14.4L91.6,14.4z" stroke="none"/><path d="M37.5,28.6L37.5,28.4L42.1,28.4L42.1,28.9L43.1,28.9L43.1,29.4L45.1,29.4L45.1,29.9L46.6,29.9L46.6,30.4L48.6,30.4L48.6,31.4L51.1,31.4L51.1,36.4L51.6,36.4L51.6,37.4L52.1,37.4L52.1,37.9L53.1,37.9L53.1,38.9L54.1,38.9L54.1,39.4L70.6,39.4L70.6,41.4L72.1,41.4L72.1,43.4L87.6,43.4L87.6,43.9L88.1,43.9L88.1,45.6L87.6,45.6L87.6,46.1L64.9,46.1L64.9,45.6L64.1,45.6L64.1,46.1L63.1,46.1L63.1,46.5L62.9,46.5L62.9,45.9L63.9,45.9L63.9,45.4L65.1,45.4L65.1,45.9L87.4,45.9L87.4,45.4L87.9,45.4L87.9,44.1L87.4,44.1L87.4,43.6L71.9,43.6L71.9,41.6L70.4,41.6L70.4,39.6L53.9,39.6L53.9,39.1L52.9,39.1L52.9,38.1L51.9,38.1L51.9,37.6L51.4,37.6L51.4,36.6L50.9,36.6L50.9,31.6L48.4,31.6L48.4,30.6L46.4,30.6L46.4,30.1L44.9,30.1L44.9,29.6L42.9,29.6L42.9,29.1L41.9,29.1L41.9,28.6z" stroke="none"/><path d="M57,7.6L57,7.4L58.1,7.4L58.1,7.9L58.6,7.9L58.6,9.4L59.6,9.4L59.6,9.9L67.9,9.9L67.9,9.4L68.9,9.4L68.9,8.9L69.4,8.9L69.4,3.6L68.9,3.6L68.9,2.1L68.4,2.1L68.4,1.1L41.6,1.1L41.6,1.6L40.6,1.6L40.6,8.1L40.1,8.1L40.1,8.6L38.1,8.6L38.1,9.6L37.6,9.6L37.6,10.6L36.6,10.6L36.6,11.1L35.1,11.1L35.1,11.6L34.1,11.6L34.1,12.1L33.6,12.1L33.6,12.6L33.1,12.6L33.1,13.1L32.6,13.1L32.6,13.6L32.1,13.6L32.1,14.1L30.6,14.1L30.6,14.6L24.6,14.6L24.6,15.1L23.1,15.1L23.1,24.4L23.6,24.4L23.6,24.9L24.6,24.9L24.6,26.9L25.6,26.9L25.6,27.4L26.1,27.4L26.1,27.9L27.6,27.9L27.6,28.4L28.5,28.4L28.5,28.6L27.4,28.6L27.4,28.1L25.9,28.1L25.9,27.6L25.4,27.6L25.4,27.1L24.4,27.1L24.4,25.1L23.4,25.1L23.4,24.6L22.9,24.6L22.9,14.9L24.4,14.9L24.4,14.4L30.4,14.4L30.4,13.9L31.9,13.9L31.9,13.4L32.4,13.4L32.4,12.9L32.9,12.9L32.9,12.4L33.4,12.4L33.4,11.9L33.9,11.9L33.9,11.4L34.9,11.4L34.9,10.9L36.4,10.9L36.4,10.4L37.4,10.4L37.4,9.4L37.9,9.4L37.9,8.4L39.9,8.4L39.9,7.9L40.4,7.9L40.4,1.4L41.4,1.4L41.4,0.9L68.6,0.9L68.6,1.9L69.1,1.9L69.1,3.4L69.6,3.4L69.6,9.1L69.1,9.1L69.1,9.6L68.1,9.6L68.1,10.1L59.4,10.1L59.4,9.6L58.4,9.6L58.4,8.1L57.9,8.1L57.9,7.6z" stroke="none"/></svg>