<svg version="1.1" width="105" height="105" xmlns="http://www.w3.org/2000/svg"><path d="M95.9,4.9L95.9,4.5L96.1,4.5L96.1,5.1L93.6,5.1L93.6,5.4L99.1,5.4L99.1,6L98.9,6L98.9,5.6L93.4,5.6L93.4,5.1L85.4,5.1L85.4,4.5L85.6,4.5L85.6,4.9z" stroke="none"/><path d="M42.9,86.4L42.9,84.9L43.4,84.9L43.4,84.4L43.9,84.4L43.9,83.9L45,83.9L45,84.1L44.1,84.1L44.1,84.6L43.6,84.6L43.6,85.1L43.1,85.1L43.1,86.4L48.1,86.4L48.1,87.4L49.6,87.4L49.6,88.5L49.4,88.5L49.4,87.6L47.9,87.6L47.9,86.6L34.6,86.6L34.6,87L34.4,87L34.4,86.4z" stroke="none"/><path d="M36.9,17.1L36.4,17.1L36.4,16.6L35.9,16.6L35.9,16.1L32.9,16.1L32.9,14.6L31.9,14.6L31.9,13.6L31.4,13.6L31.4,13.1L30.9,13.1L30.9,12.6L30.4,12.6L30.4,12.1L30,12.1L30,11.9L30.6,11.9L30.6,12.4L31.1,12.4L31.1,12.9L31.6,12.9L31.6,13.4L32.1,13.4L32.1,14.4L33.1,14.4L33.1,15.9L36.1,15.9L36.1,16.4L36.6,16.4L36.6,16.9L37.1,16.9L37.1,19.4L41.9,19.4L41.9,18L42.1,18L42.1,19.6L37.1,19.6L37.1,27.9L38.1,27.9L38.1,28.4L39,28.4L39,28.6L37.9,28.6L37.9,28.1L36.9,28.1z" stroke="none"/><path d="M19.9,21.1L18.9,21.1L18.9,20.1L17.4,20.1L17.4,19.1L14.9,19.1L14.9,18L15.1,18L15.1,18.9L17.6,18.9L17.6,19.9L19.1,19.9L19.1,20.9L20.1,20.9L20.1,21.4L20.4,21.4L20.4,18.9L20.9,18.9L20.9,16.9L22.4,16.9L22.4,16.4L23.4,16.4L23.4,14.4L23.9,14.4L23.9,13.9L24.4,13.9L24.4,10.9L24.9,10.9L24.9,9.9L25.9,9.9L25.9,8.9L27,8.9L27,9.1L26.1,9.1L26.1,10.1L25.1,10.1L25.1,11.1L24.6,11.1L24.6,14.1L24.1,14.1L24.1,14.6L23.6,14.6L23.6,16.6L22.6,16.6L22.6,17.1L21.1,17.1L21.1,19.1L20.6,19.1L20.6,21.6L20.1,21.6L20.1,33.6L18.6,33.6L18.6,36.6L18.1,36.6L18.1,37.5L17.9,37.5L17.9,36.4L18.4,36.4L18.4,33.4L19.9,33.4z" stroke="none"/><path d="M62.4,6.9L62.4,6.6L57.1,6.6L57.1,7.1L56.6,7.1L56.6,7.6L55.5,7.6L55.5,7.4L56.4,7.4L56.4,6.9L56.9,6.9L56.9,6.4L62.6,6.4L62.6,6.9L72.4,6.9L72.4,6.4L73.4,6.4L73.4,5.9L73.9,5.9L73.9,5.4L74.4,5.4L74.4,2.9L75,2.9L75,3.1L74.6,3.1L74.6,5.6L74.1,5.6L74.1,6.1L73.6,6.1L73.6,6.6L72.6,6.6L72.6,7.1L57.6,7.1L57.6,10.6L57,10.6L57,10.4L57.4,10.4L57.4,6.9z" stroke="none"/><path d="M50.6,96.4L50.6,96.9L56.1,96.9L56.1,97.4L57.1,97.4L57.1,97.9L58.1,97.9L58.1,98.4L58.6,98.4L58.6,98.9L59.1,98.9L59.1,99.9L59.6,99.9L59.6,100.4L60,100.4L60,100.6L59.4,100.6L59.4,100.1L58.9,100.1L58.9,99.1L58.4,99.1L58.4,98.6L57.9,98.6L57.9,98.1L56.9,98.1L56.9,97.6L55.9,97.6L55.9,97.1L50.4,97.1L50.4,96.6L44.6,96.6L44.6,97.1L36.9,97.1L36.9,96.6L35.9,96.6L35.9,96L36.1,96L36.1,96.4L37.1,96.4L37.1,96.9L44.4,96.9L44.4,96.6L43.9,96.6L43.9,96.1L41.9,96.1L41.9,95.6L39.4,95.6L39.4,95.1L38.9,95.1L38.9,94.1L37.9,94.1L37.9,93.1L37.5,93.1L37.5,92.9L38.1,92.9L38.1,93.9L39.1,93.9L39.1,94.9L39.6,94.9L39.6,95.4L42.1,95.4L42.1,95.9L44.1,95.9L44.1,96.4z" stroke="none"/><path d="M71.9,18.9L73.4,18.9L73.4,17.4L74.9,17.4L74.9,16.9L75.9,16.9L75.9,15.4L76.9,15.4L76.9,14.9L78.4,14.9L78.4,14.4L78.9,14.4L78.9,13.9L79.4,13.9L79.4,13.5L79.6,13.5L79.6,14.1L79.1,14.1L79.1,14.6L78.6,14.6L78.6,15.1L77.1,15.1L77.1,15.6L76.1,15.6L76.1,17.1L75.1,17.1L75.1,17.6L73.6,17.6L73.6,19.1L72.1,19.1L72.1,19.9L79.9,19.9L79.9,18.9L80.4,18.9L80.4,18.4L80.9,18.4L80.9,18L81.1,18L81.1,18.6L80.6,18.6L80.6,19.1L80.1,19.1L80.1,20.1L72.1,20.1L72.1,22.1L71.1,22.1L71.1,22.6L69.1,22.6L69.1,23.1L68.1,23.1L68.1,23.6L65.1,23.6L65.1,24.1L64.6,24.1L64.6,24.6L62.6,24.6L62.6,25.1L62.1,25.1L62.1,26.1L59.6,26.1L59.6,28.1L59.1,28.1L59.1,28.6L55.5,28.6L55.5,28.4L58.9,28.4L58.9,27.9L59.4,27.9L59.4,25.9L61.9,25.9L61.9,24.9L62.4,24.9L62.4,24.4L64.4,24.4L64.4,23.9L64.9,23.9L64.9,23.4L67.9,23.4L67.9,22.9L68.9,22.9L68.9,22.4L70.9,22.4L70.9,21.9L71.9,21.9z" stroke="none"/><path d="M88.4,73.4L88.4,67.9L89.9,67.9L89.9,67.4L90.4,67.4L90.4,66.4L90.9,66.4L90.9,65.4L91.4,65.4L91.4,64.5L91.6,64.5L91.6,65.6L91.1,65.6L91.1,66.6L90.6,66.6L90.6,67.6L90.1,67.6L90.1,68.1L88.6,68.1L88.6,86.9L89.1,86.9L89.1,87.4L89.6,87.4L89.6,88.9L90.6,88.9L90.6,89.9L91.1,89.9L91.1,91.4L91.5,91.4L91.5,91.6L90.9,91.6L90.9,90.1L90.4,90.1L90.4,89.1L89.4,89.1L89.4,87.6L88.9,87.6L88.9,87.1L88.4,87.1L88.4,73.6L87.9,73.6L87.9,69.1L86.9,69.1L86.9,68.6L85.9,68.6L85.9,67.6L85.4,67.6L85.4,65.6L83.9,65.6L83.9,65.1L83.4,65.1L83.4,64.6L82.5,64.6L82.5,64.4L83.6,64.4L83.6,64.9L84.1,64.9L84.1,65.4L85.6,65.4L85.6,67.4L86.1,67.4L86.1,68.4L87.1,68.4L87.1,68.9L88.1,68.9L88.1,73.4z" stroke="none"/><path d="M12.9,33.4L12.9,22.4L13.4,22.4L13.4,21.9L13.9,21.9L13.9,19.9L14.4,19.9L14.4,19.1L13.9,19.1L13.9,17.4L14.4,17.4L14.4,16.9L16.6,16.9L16.6,17.4L18.1,17.4L18.1,17.9L19.5,17.9L19.5,18.1L17.9,18.1L17.9,17.6L16.4,17.6L16.4,17.1L14.6,17.1L14.6,17.6L14.1,17.6L14.1,18.9L14.6,18.9L14.6,20.1L14.1,20.1L14.1,22.1L13.6,22.1L13.6,22.6L13.1,22.6L13.1,43.9L13.6,43.9L13.6,44.4L14.1,44.4L14.1,44.9L14.6,44.9L14.6,45.9L16.1,45.9L16.1,46.4L16.6,46.4L16.6,48L16.4,48L16.4,46.6L15.9,46.6L15.9,46.1L14.4,46.1L14.4,45.1L13.9,45.1L13.9,44.6L13.4,44.6L13.4,44.1L12.9,44.1L12.9,33.6L4.6,33.6L4.6,34.6L3,34.6L3,34.4L4.4,34.4L4.4,33.4z" stroke="none"/><path d="M41.4,60.4L41.4,59.4L41.9,59.4L41.9,57.9L42.9,57.9L42.9,48.9L43.4,48.9L43.4,48.4L43.9,48.4L43.9,46.9L44.4,46.9L44.4,46.4L45.4,46.4L45.4,45.9L45.9,45.9L45.9,45.4L46.4,45.4L46.4,44.9L47.9,44.9L47.9,44.4L48.4,44.4L48.4,42.9L48.9,42.9L48.9,41.9L49.4,41.9L49.4,41.4L49.9,41.4L49.9,40.4L51,40.4L51,40.6L50.1,40.6L50.1,41.6L49.6,41.6L49.6,42.1L49.1,42.1L49.1,43.1L48.6,43.1L48.6,44.6L48.1,44.6L48.1,45.1L46.6,45.1L46.6,45.6L46.1,45.6L46.1,46.1L45.6,46.1L45.6,46.6L44.6,46.6L44.6,47.1L44.1,47.1L44.1,48.6L43.6,48.6L43.6,49.1L43.1,49.1L43.1,58.1L42.1,58.1L42.1,59.6L41.6,59.6L41.6,64.4L42.6,64.4L42.6,65.4L43.1,65.4L43.1,67.9L43.6,67.9L43.6,70.5L43.4,70.5L43.4,68.1L42.9,68.1L42.9,65.6L42.4,65.6L42.4,64.6L41.4,64.6L41.4,60.6L41.1,60.6L41.1,63.1L40.6,63.1L40.6,64.1L40.1,64.1L40.1,65.1L39.6,65.1L39.6,66.6L38.1,66.6L38.1,67.1L33.6,67.1L33.6,67.6L33.1,67.6L33.1,68.1L32.1,68.1L32.1,68.6L31.1,68.6L31.1,69.1L30.6,69.1L30.6,69.6L30.1,69.6L30.1,70.5L29.9,70.5L29.9,69.4L30.4,69.4L30.4,68.9L30.9,68.9L30.9,68.4L31.9,68.4L31.9,67.9L32.9,67.9L32.9,67.4L33.4,67.4L33.4,66.9L37.9,66.9L37.9,66.4L39.4,66.4L39.4,64.9L39.9,64.9L39.9,63.9L40.4,63.9L40.4,62.9L40.9,62.9L40.9,60.4z" stroke="none"/><path d="M88.4,92.9L88.4,92.6L86.6,92.6L86.6,93.1L86.1,93.1L86.1,93.6L84.1,93.6L84.1,94.5L83.9,94.5L83.9,93.4L85.9,93.4L85.9,92.9L86.4,92.9L86.4,92.4L88.6,92.4L88.6,92.9L90.4,92.9L90.4,92.4L92.4,92.4L92.4,91.9L93.4,91.9L93.4,91.4L93.9,91.4L93.9,90.4L94.4,90.4L94.4,90L94.6,90L94.6,90.6L94.1,90.6L94.1,91.6L93.6,91.6L93.6,92.1L92.6,92.1L92.6,92.6L90.6,92.6L90.6,93.1L88.6,93.1L88.6,94.5L88.4,94.5L88.4,93.1L88.1,93.1L88.1,93.6L87.6,93.6L87.6,94.1L87.1,94.1L87.1,94.5L86.9,94.5L86.9,93.9L87.4,93.9L87.4,93.4L87.9,93.4L87.9,92.9z" stroke="none"/><path d="M60.4,22.4L60.4,18.9L60.9,18.9L60.9,17.9L61.5,17.9L61.5,18.1L61.1,18.1L61.1,19.1L60.6,19.1L60.6,22.4L61.1,22.4L61.1,23.6L60.1,23.6L60.1,24.6L59.6,24.6L59.6,25.1L58.6,25.1L58.6,26.6L57.6,26.6L57.6,27.1L55.6,27.1L55.6,27.6L55.1,27.6L55.1,28.1L54.6,28.1L54.6,28.9L55.1,28.9L55.1,29.4L69.4,29.4L69.4,28.9L70.9,28.9L70.9,28.4L71.4,28.4L71.4,27.9L72.4,27.9L72.4,27.4L73.4,27.4L73.4,26.9L74.9,26.9L74.9,24.9L75.9,24.9L75.9,24.4L77.1,24.4L77.1,24.9L77.6,24.9L77.6,26.1L77.1,26.1L77.1,28.6L76.6,28.6L76.6,29.1L76.1,29.1L76.1,29.6L75.1,29.6L75.1,30.1L74.6,30.1L74.6,30.6L74.1,30.6L74.1,32.6L73.6,32.6L73.6,33L73.4,33L73.4,32.4L73.9,32.4L73.9,30.4L74.4,30.4L74.4,29.9L74.9,29.9L74.9,29.4L75.9,29.4L75.9,28.9L76.4,28.9L76.4,28.4L76.9,28.4L76.9,25.9L77.4,25.9L77.4,25.1L76.9,25.1L76.9,24.6L76.1,24.6L76.1,25.1L75.1,25.1L75.1,27.1L73.6,27.1L73.6,27.6L72.6,27.6L72.6,28.1L71.6,28.1L71.6,28.6L71.1,28.6L71.1,29.1L69.6,29.1L69.6,29.6L54.9,29.6L54.9,29.1L54.4,29.1L54.4,27.9L54.9,27.9L54.9,27.4L55.4,27.4L55.4,26.9L57.4,26.9L57.4,26.4L58.4,26.4L58.4,24.9L59.4,24.9L59.4,24.4L59.9,24.4L59.9,23.4L60.9,23.4L60.9,22.6L60.6,22.6L60.6,23.1L59.6,23.1L59.6,24.1L58.5,24.1L58.5,23.9L59.4,23.9L59.4,22.9L60.4,22.9L60.4,22.6L52.9,22.6L52.9,21.6L52.4,21.6L52.4,20.6L51.9,20.6L51.9,20.1L51.4,20.1L51.4,17.6L49.9,17.6L49.9,15.6L49.4,15.6L49.4,15L49.6,15L49.6,15.4L50.1,15.4L50.1,17.4L51.6,17.4L51.6,19.9L52.1,19.9L52.1,20.4L52.6,20.4L52.6,21.4L53.1,21.4L53.1,22.4z" stroke="none"/><path d="M89.4,73.4L89.4,71.4L90.9,71.4L90.9,66.9L91.4,66.9L91.4,66.4L91.9,66.4L91.9,64.9L92.4,64.9L92.4,64.1L91.9,64.1L91.9,63.6L82.1,63.6L82.1,64.1L81.6,64.1L81.6,70.4L82.6,70.4L82.6,70.9L83.1,70.9L83.1,71.4L83.6,71.4L83.6,72.4L84.1,72.4L84.1,73.9L85.1,73.9L85.1,74.9L87,74.9L87,75.1L84.9,75.1L84.9,74.1L83.9,74.1L83.9,72.6L83.4,72.6L83.4,71.6L82.9,71.6L82.9,71.1L82.4,71.1L82.4,70.6L81.4,70.6L81.4,63.9L81.9,63.9L81.9,63.4L92.1,63.4L92.1,63.9L92.6,63.9L92.6,65.1L92.1,65.1L92.1,66.6L91.6,66.6L91.6,67.1L91.1,67.1L91.1,71.6L89.6,71.6L89.6,73.4L92.4,73.4L92.4,71.9L93,71.9L93,72.1L92.6,72.1L92.6,73.6L89.6,73.6L89.6,73.9L92.9,73.9L92.9,73.4L93.4,73.4L93.4,64.1L92.9,64.1L92.9,63.6L92.4,63.6L92.4,63.1L81,63.1L81,62.9L92.6,62.9L92.6,63.4L93.1,63.4L93.1,63.9L93.6,63.9L93.6,73.6L93.1,73.6L93.1,74.1L89.4,74.1L89.4,73.6L89.1,73.6L89.1,75.4L89.6,75.4L89.6,75.9L90.6,75.9L90.6,76.4L91.1,76.4L91.1,77.9L91.6,77.9L91.6,78.4L92.1,78.4L92.1,79.4L93.1,79.4L93.1,79.9L95.1,79.9L95.1,81.9L95.6,81.9L95.6,82.4L96.1,82.4L96.1,83.9L96.6,83.9L96.6,85.4L97.1,85.4L97.1,85.9L97.6,85.9L97.6,87L97.4,87L97.4,86.1L96.9,86.1L96.9,85.6L96.4,85.6L96.4,84.1L95.9,84.1L95.9,82.6L95.4,82.6L95.4,82.1L94.9,82.1L94.9,80.1L92.9,80.1L92.9,79.6L91.9,79.6L91.9,78.6L91.4,78.6L91.4,78.1L90.9,78.1L90.9,76.6L90.4,76.6L90.4,76.1L89.4,76.1L89.4,75.6L88.9,75.6L88.9,73.4z" stroke="none"/><path d="M87.9,56.9L87.9,54.4L88.4,54.4L88.4,53.9L90,53.9L90,54.1L88.6,54.1L88.6,54.6L88.1,54.6L88.1,56.9L88.4,56.9L88.4,55.9L88.9,55.9L88.9,54.9L90.4,54.9L90.4,53.4L90.9,53.4L90.9,52.9L91.4,52.9L91.4,51.4L92.9,51.4L92.9,49.5L93.1,49.5L93.1,51.6L91.6,51.6L91.6,53.1L91.1,53.1L91.1,53.6L90.6,53.6L90.6,55.1L89.1,55.1L89.1,56.1L88.6,56.1L88.6,57.1L88.1,57.1L88.1,57.6L85.6,57.6L85.6,58.1L85.1,58.1L85.1,58.6L84.6,58.6L84.6,59.6L83.6,59.6L83.6,60.1L83.1,60.1L83.1,60.6L82.6,60.6L82.6,61.1L81.6,61.1L81.6,61.6L81.1,61.6L81.1,62.1L80.6,62.1L80.6,62.6L80.1,62.6L80.1,69.9L80.6,69.9L80.6,71.4L81.1,71.4L81.1,72.4L81.6,72.4L81.6,74.9L82.1,74.9L82.1,75.9L83.6,75.9L83.6,76.4L84,76.4L84,76.6L83.4,76.6L83.4,76.1L81.9,76.1L81.9,75.1L81.4,75.1L81.4,72.6L80.9,72.6L80.9,71.6L80.4,71.6L80.4,70.1L79.9,70.1L79.9,62.4L80.4,62.4L80.4,61.9L80.9,61.9L80.9,61.4L81.4,61.4L81.4,60.9L82.4,60.9L82.4,60.4L82.9,60.4L82.9,59.9L83.4,59.9L83.4,59.4L84.4,59.4L84.4,58.4L84.9,58.4L84.9,57.9L85.4,57.9L85.4,57.4L87.9,57.4L87.9,57.1L87.4,57.1L87.4,53.1L86.9,53.1L86.9,51.6L85.9,51.6L85.9,51.1L85.4,51.1L85.4,49.5L85.6,49.5L85.6,50.9L86.1,50.9L86.1,51.4L87.1,51.4L87.1,52.9L87.6,52.9L87.6,56.9z" stroke="none"/><path d="M73.9,91.4L73.9,90.9L77.4,90.9L77.4,89.4L77.9,89.4L77.9,88.9L78.4,88.9L78.4,88.4L79.4,88.4L79.4,87.9L80.4,87.9L80.4,85.4L81.4,85.4L81.4,84.4L82.9,84.4L82.9,83.9L83.4,83.9L83.4,82.9L84.4,82.9L84.4,80.9L84.9,80.9L84.9,77.9L86.9,77.9L86.9,77.4L87.4,77.4L87.4,75.4L87.9,75.4L87.9,74.1L85.9,74.1L85.9,73.6L85.5,73.6L85.5,73.4L86.1,73.4L86.1,73.9L88.1,73.9L88.1,75.6L87.6,75.6L87.6,77.6L87.1,77.6L87.1,78.1L85.1,78.1L85.1,81.1L84.6,81.1L84.6,83.1L83.6,83.1L83.6,84.1L83.1,84.1L83.1,84.6L81.6,84.6L81.6,85.6L80.6,85.6L80.6,88.1L79.6,88.1L79.6,88.6L78.6,88.6L78.6,89.1L78.1,89.1L78.1,89.6L77.6,89.6L77.6,91.1L74.1,91.1L74.1,91.4L79.1,91.4L79.1,92.9L81.6,92.9L81.6,94.9L82.1,94.9L82.1,95.4L82.6,95.4L82.6,96.4L83.1,96.4L83.1,96.9L85.1,96.9L85.1,97.4L85.5,97.4L85.5,97.6L84.9,97.6L84.9,97.1L82.9,97.1L82.9,96.6L82.4,96.6L82.4,95.6L81.9,95.6L81.9,95.1L81.4,95.1L81.4,93.1L78.9,93.1L78.9,91.6L74.1,91.6L74.1,92.1L73.6,92.1L73.6,93.1L72.6,93.1L72.6,93.6L71.1,93.6L71.1,94.1L70.6,94.1L70.6,94.6L69,94.6L69,94.4L70.4,94.4L70.4,93.9L70.9,93.9L70.9,93.4L72.4,93.4L72.4,92.9L73.4,92.9L73.4,91.9L73.9,91.9L73.9,91.6L72.1,91.6L72.1,93.1L70.6,93.1L70.6,93.6L70.1,93.6L70.1,94.1L68.6,94.1L68.6,102.6L68.1,102.6L68.1,103.1L57.4,103.1L57.4,101.1L56.9,101.1L56.9,100.5L57.1,100.5L57.1,100.9L57.6,100.9L57.6,102.9L67.9,102.9L67.9,102.4L68.4,102.4L68.4,93.9L69.9,93.9L69.9,93.4L70.4,93.4L70.4,92.9L71.9,92.9L71.9,91.4z" stroke="none"/><path d="M72.9,89.9L72.9,89.1L72.4,89.1L72.4,88.1L71.9,88.1L71.9,87.6L71.4,87.6L71.4,86.1L69.4,86.1L69.4,85.1L68.6,85.1L68.6,90.1L68.1,90.1L68.1,93.1L67.6,93.1L67.6,96.1L66.6,96.1L66.6,97.1L66.1,97.1L66.1,97.6L65.6,97.6L65.6,100.9L66.1,100.9L66.1,101.4L67.1,101.4L67.1,101.9L67.5,101.9L67.5,102.1L66.9,102.1L66.9,101.6L65.9,101.6L65.9,101.1L65.4,101.1L65.4,97.4L65.9,97.4L65.9,96.9L66.4,96.9L66.4,95.9L67.4,95.9L67.4,92.9L67.9,92.9L67.9,89.9L68.4,89.9L68.4,84.9L69.6,84.9L69.6,85.9L71.6,85.9L71.6,87.4L72.1,87.4L72.1,87.9L72.6,87.9L72.6,88.9L73.1,88.9L73.1,89.9L73.4,89.9L73.4,60.9L73.9,60.9L73.9,60.4L74.4,60.4L74.4,59.4L75.9,59.4L75.9,58.9L76.4,58.9L76.4,57.9L77.9,57.9L77.9,56.9L80.9,56.9L80.9,56.4L81.4,56.4L81.4,55.4L81.9,55.4L81.9,49.9L82.9,49.9L82.9,49.4L83.4,49.4L83.4,48.9L83.9,48.9L83.9,48.4L93.6,48.4L93.6,48.9L94.1,48.9L94.1,50.6L93.6,50.6L93.6,63.4L94.1,63.4L94.1,74.6L93.6,74.6L93.6,75.1L90,75.1L90,74.9L93.4,74.9L93.4,74.4L93.9,74.4L93.9,63.6L93.4,63.6L93.4,50.4L93.9,50.4L93.9,49.1L93.4,49.1L93.4,48.6L84.1,48.6L84.1,49.1L83.6,49.1L83.6,49.6L83.1,49.6L83.1,50.1L82.1,50.1L82.1,55.6L81.6,55.6L81.6,56.6L81.1,56.6L81.1,57.1L78.1,57.1L78.1,58.1L76.6,58.1L76.6,59.1L76.1,59.1L76.1,59.6L74.6,59.6L74.6,60.6L74.1,60.6L74.1,61.1L73.6,61.1L73.6,90.1L73.1,90.1L73.1,90.6L71.1,90.6L71.1,91.1L69.6,91.1L69.6,92.1L69.1,92.1L69.1,92.6L68.6,92.6L68.6,93.6L68.1,93.6L68.1,96.6L67.6,96.6L67.6,97.1L67.1,97.1L67.1,97.6L66.6,97.6L66.6,98.1L66.1,98.1L66.1,99L65.9,99L65.9,97.9L66.4,97.9L66.4,97.4L66.9,97.4L66.9,96.9L67.4,96.9L67.4,96.4L67.9,96.4L67.9,93.4L68.4,93.4L68.4,92.4L68.9,92.4L68.9,91.9L69.4,91.9L69.4,90.9L70.9,90.9L70.9,90.4L72.9,90.4L72.9,90.1L69.4,90.1L69.4,87.6L68.9,87.6L68.9,85.5L69.1,85.5L69.1,87.4L69.6,87.4L69.6,89.9z" stroke="none"/><path d="M17.9,68.9L17.9,67.4L19.4,67.4L19.4,66.4L21.9,66.4L21.9,65.4L23.4,65.4L23.4,63.4L23.9,63.4L23.9,63L24.1,63L24.1,63.6L23.6,63.6L23.6,65.6L22.1,65.6L22.1,66.6L19.6,66.6L19.6,67.6L18.1,67.6L18.1,68.9L25.1,68.9L25.1,69.4L27.6,69.4L27.6,70.4L28.6,70.4L28.6,70.9L29.1,70.9L29.1,71.4L31.9,71.4L31.9,70.9L32.4,70.9L32.4,70.4L33,70.4L33,70.6L32.6,70.6L32.6,71.1L32.1,71.1L32.1,71.6L28.9,71.6L28.9,71.1L28.4,71.1L28.4,70.6L27.4,70.6L27.4,69.6L24.9,69.6L24.9,69.1L18.1,69.1L18.1,76.1L15.1,76.1L15.1,77.1L14.1,77.1L14.1,77.6L11.1,77.6L11.1,78.1L10.6,78.1L10.6,78.6L10.1,78.6L10.1,79.1L9.1,79.1L9.1,80.1L8.1,80.1L8.1,80.6L7.6,80.6L7.6,81.1L6.6,81.1L6.6,81.6L6.1,81.6L6.1,82.6L5.6,82.6L5.6,83.1L5.1,83.1L5.1,83.6L4.6,83.6L4.6,85.1L3.6,85.1L3.6,85.6L3,85.6L3,85.4L3.4,85.4L3.4,84.9L4.4,84.9L4.4,83.4L4.9,83.4L4.9,82.9L5.4,82.9L5.4,82.4L5.9,82.4L5.9,81.4L6.4,81.4L6.4,80.9L7.4,80.9L7.4,80.4L7.9,80.4L7.9,79.9L8.9,79.9L8.9,78.9L9.9,78.9L9.9,78.4L10.4,78.4L10.4,77.9L10.9,77.9L10.9,77.4L13.9,77.4L13.9,76.9L14.9,76.9L14.9,75.9L17.9,75.9L17.9,69.1L17.4,69.1L17.4,60.1L16.9,60.1L16.9,58.6L16.4,58.6L16.4,58.1L15.9,58.1L15.9,57.6L13.9,57.6L13.9,57.1L13.5,57.1L13.5,56.9L14.1,56.9L14.1,57.4L16.1,57.4L16.1,57.9L16.6,57.9L16.6,58.4L17.1,58.4L17.1,59.9L17.6,59.9L17.6,68.9z" stroke="none"/><path d="M23.9,32.9L23.9,16.4L24.9,16.4L24.9,14.9L25.4,14.9L25.4,13.4L25.9,13.4L25.9,12.4L26.9,12.4L26.9,9.9L27.4,9.9L27.4,9.4L27.9,9.4L27.9,8.1L23.1,8.1L23.1,8.6L22.1,8.6L22.1,10.6L20.6,10.6L20.6,11.6L19.1,11.6L19.1,13.1L18.6,13.1L18.6,13.6L18.1,13.6L18.1,14.1L17.6,14.1L17.6,15.1L16.6,15.1L16.6,15.6L15.1,15.6L15.1,16.1L14.6,16.1L14.6,16.6L14.1,16.6L14.1,17.1L13.6,17.1L13.6,19.5L13.4,19.5L13.4,16.9L13.9,16.9L13.9,16.4L14.4,16.4L14.4,15.9L14.9,15.9L14.9,15.4L16.4,15.4L16.4,14.9L17.4,14.9L17.4,13.9L17.9,13.9L17.9,13.4L18.4,13.4L18.4,12.9L18.9,12.9L18.9,11.4L20.4,11.4L20.4,10.4L21.9,10.4L21.9,8.4L22.9,8.4L22.9,7.9L28.1,7.9L28.1,9.6L27.6,9.6L27.6,10.1L27.1,10.1L27.1,12.6L26.1,12.6L26.1,13.6L25.6,13.6L25.6,15.1L25.1,15.1L25.1,16.6L24.1,16.6L24.1,32.9L28.1,32.9L28.1,33.4L29.1,33.4L29.1,34.4L29.6,34.4L29.6,34.9L30.1,34.9L30.1,35.4L30.6,35.4L30.6,35.9L32.1,35.9L32.1,36.4L33.6,36.4L33.6,47.6L33.1,47.6L33.1,48L32.9,48L32.9,47.4L33.4,47.4L33.4,36.6L31.9,36.6L31.9,36.1L30.4,36.1L30.4,35.6L29.9,35.6L29.9,35.1L29.4,35.1L29.4,34.6L28.9,34.6L28.9,33.6L27.9,33.6L27.9,33.1L24.1,33.1L24.1,33.4L24.6,33.4L24.6,34.4L25.1,34.4L25.1,34.9L27.6,34.9L27.6,35.4L28.1,35.4L28.1,35.9L29.6,35.9L29.6,36.4L30.1,36.4L30.1,36.9L31.1,36.9L31.1,37.9L32.1,37.9L32.1,38.4L33.1,38.4L33.1,39L32.9,39L32.9,38.6L31.9,38.6L31.9,38.1L30.9,38.1L30.9,37.1L29.9,37.1L29.9,36.6L29.4,36.6L29.4,36.1L27.9,36.1L27.9,35.6L27.4,35.6L27.4,35.1L24.9,35.1L24.9,34.6L24.4,34.6L24.4,33.6L23.9,33.6L23.9,33.1L22.6,33.1L22.6,34.1L20.1,34.1L20.1,35.1L19.6,35.1L19.6,36.1L19.1,36.1L19.1,38.1L18.6,38.1L18.6,38.6L16.9,38.6L16.9,26.4L17.4,26.4L17.4,25.9L17.9,25.9L17.9,25.5L18.1,25.5L18.1,26.1L17.6,26.1L17.6,26.6L17.1,26.6L17.1,38.4L18.4,38.4L18.4,37.9L18.9,37.9L18.9,35.9L19.4,35.9L19.4,34.9L19.9,34.9L19.9,33.9L22.4,33.9L22.4,32.9z" stroke="none"/><path d="M52.4,58.4L52.4,40.1L51.4,40.1L51.4,39.6L50.6,39.6L50.6,40.1L49.6,40.1L49.6,41.1L48.6,41.1L48.6,42.6L48.1,42.6L48.1,43.6L47.1,43.6L47.1,44.1L46.1,44.1L46.1,45.1L45.6,45.1L45.6,45.6L44.6,45.6L44.6,46.1L44.1,46.1L44.1,46.6L43.6,46.6L43.6,48.1L43.1,48.1L43.1,48.6L42.6,48.6L42.6,55.6L42,55.6L42,55.4L42.4,55.4L42.4,48.4L42.9,48.4L42.9,47.9L43.4,47.9L43.4,46.4L43.9,46.4L43.9,45.9L44.4,45.9L44.4,45.4L45.4,45.4L45.4,44.9L45.9,44.9L45.9,43.9L46.9,43.9L46.9,43.4L47.9,43.4L47.9,42.4L48.4,42.4L48.4,40.9L49.4,40.9L49.4,39.9L50.4,39.9L50.4,39.4L51.6,39.4L51.6,39.9L52.6,39.9L52.6,58.4L52.9,58.4L52.9,39.6L51.9,39.6L51.9,39.1L47.6,39.1L47.6,40.1L46.1,40.1L46.1,40.6L45.6,40.6L45.6,41.6L45.1,41.6L45.1,42.6L43.6,42.6L43.6,43.1L42.6,43.1L42.6,44.1L42.1,44.1L42.1,44.6L41.6,44.6L41.6,45.1L41.1,45.1L41.1,46.1L40.6,46.1L40.6,46.5L40.4,46.5L40.4,45.9L40.9,45.9L40.9,44.9L41.4,44.9L41.4,44.4L41.9,44.4L41.9,43.9L42.4,43.9L42.4,42.9L43.4,42.9L43.4,42.4L44.9,42.4L44.9,41.4L45.4,41.4L45.4,40.4L45.9,40.4L45.9,39.9L47.4,39.9L47.4,38.9L52.1,38.9L52.1,39.4L53.1,39.4L53.1,58.6L52.6,58.6L52.6,60.9L53.1,60.9L53.1,61.4L53.6,61.4L53.6,61.9L54.1,61.9L54.1,62.4L54.6,62.4L54.6,62.9L55.1,62.9L55.1,63.9L55.6,63.9L55.6,64.4L56.1,64.4L56.1,64.9L57.1,64.9L57.1,67.4L57.6,67.4L57.6,67.9L58.6,67.9L58.6,69L58.4,69L58.4,68.1L57.4,68.1L57.4,67.6L56.9,67.6L56.9,65.1L55.9,65.1L55.9,64.6L55.4,64.6L55.4,64.1L54.9,64.1L54.9,63.1L54.4,63.1L54.4,62.6L53.9,62.6L53.9,62.1L53.4,62.1L53.4,61.6L52.9,61.6L52.9,61.1L52.4,61.1L52.4,58.6L52.1,58.6L52.1,63.4L54.1,63.4L54.1,64.4L54.6,64.4L54.6,64.9L55.1,64.9L55.1,65.4L55.6,65.4L55.6,66.4L56.1,66.4L56.1,67.4L56.6,67.4L56.6,68.4L57.1,68.4L57.1,68.9L58.1,68.9L58.1,69.4L63.4,69.4L63.4,68.9L63.9,68.9L63.9,67.9L64.4,67.9L64.4,67.4L66.4,67.4L66.4,66.9L67.4,66.9L67.4,66.4L67.9,66.4L67.9,64.9L68.4,64.9L68.4,63.9L68.9,63.9L68.9,63L69.1,63L69.1,64.1L68.6,64.1L68.6,65.1L68.1,65.1L68.1,66.6L67.6,66.6L67.6,67.1L66.6,67.1L66.6,67.6L64.6,67.6L64.6,68.1L64.1,68.1L64.1,69.1L63.6,69.1L63.6,69.6L57.9,69.6L57.9,69.1L56.9,69.1L56.9,68.6L56.4,68.6L56.4,67.6L55.9,67.6L55.9,66.6L55.4,66.6L55.4,65.6L54.9,65.6L54.9,65.1L54.4,65.1L54.4,64.6L53.9,64.6L53.9,63.6L51.9,63.6L51.9,58.4z" stroke="none"/><path d="M61.9,33.4L61.9,32.9L70.4,32.9L70.4,30.9L71.4,30.9L71.4,30.4L71.9,30.4L71.9,29.4L72.4,29.4L72.4,28.4L73.4,28.4L73.4,27.9L74.4,27.9L74.4,27.4L75.4,27.4L75.4,25.4L76.5,25.4L76.5,25.6L75.6,25.6L75.6,27.6L74.6,27.6L74.6,28.1L73.6,28.1L73.6,28.6L72.6,28.6L72.6,29.6L72.1,29.6L72.1,30.6L71.6,30.6L71.6,31.1L70.6,31.1L70.6,33.1L62.1,33.1L62.1,33.4L62.6,33.4L62.6,45.9L63.1,45.9L63.1,46.4L64.5,46.4L64.5,46.6L62.9,46.6L62.9,46.1L62.4,46.1L62.4,33.6L62.1,33.6L62.1,36.6L61.6,36.6L61.6,37.6L61.1,37.6L61.1,38.1L60.6,38.1L60.6,38.6L59.6,38.6L59.6,39.1L59.1,39.1L59.1,39.6L58.6,39.6L58.6,40.1L58.1,40.1L58.1,41.1L57.6,41.1L57.6,43.6L55.5,43.6L55.5,43.4L57.4,43.4L57.4,40.9L57.9,40.9L57.9,39.9L58.4,39.9L58.4,39.4L58.9,39.4L58.9,38.9L59.4,38.9L59.4,38.4L60.4,38.4L60.4,37.9L60.9,37.9L60.9,37.4L61.4,37.4L61.4,36.4L61.9,36.4L61.9,33.6L56.9,33.6L56.9,31.6L56.4,31.6L56.4,31.1L55.4,31.1L55.4,30.6L54.9,30.6L54.9,30.1L53.9,30.1L53.9,29.6L53.4,29.6L53.4,29.1L52.9,29.1L52.9,28.6L51.4,28.6L51.4,24.1L50.9,24.1L50.9,19.6L50.4,19.6L50.4,19.1L49.9,19.1L49.9,18.1L49.4,18.1L49.4,16.1L48.9,16.1L48.9,15.6L48.4,15.6L48.4,13.9L50.1,13.9L50.1,14.4L50.6,14.4L50.6,14.9L52.1,14.9L52.1,18.9L52.6,18.9L52.6,19.5L52.4,19.5L52.4,19.1L51.9,19.1L51.9,15.1L50.4,15.1L50.4,14.6L49.9,14.6L49.9,14.1L48.6,14.1L48.6,15.4L49.1,15.4L49.1,15.9L49.6,15.9L49.6,17.9L50.1,17.9L50.1,18.9L50.6,18.9L50.6,19.4L51.1,19.4L51.1,23.9L51.6,23.9L51.6,28.4L53.1,28.4L53.1,28.9L53.6,28.9L53.6,29.4L54.1,29.4L54.1,29.9L55.1,29.9L55.1,30.4L55.6,30.4L55.6,30.9L56.6,30.9L56.6,31.4L57.1,31.4L57.1,33.4z" stroke="none"/><path d="M98.9,90L99.1,90L99.1,92.4L100.6,92.4L100.6,93L100.4,93L100.4,92.6L98.9,92.6z" stroke="none"/><path d="M15,10.6L15,10.4L16.4,10.4L16.4,9.4L17.4,9.4L17.4,8.4L17.9,8.4L17.9,7.5L18.1,7.5L18.1,8.6L17.6,8.6L17.6,9.6L16.6,9.6L16.6,10.6z" stroke="none"/><path d="M34.4,75L34.6,75L34.6,75.4L35.1,75.4L35.1,75.9L35.6,75.9L35.6,76.9L36.1,76.9L36.1,79.5L35.9,79.5L35.9,77.1L35.4,77.1L35.4,76.1L34.9,76.1L34.9,75.6L34.4,75.6z" stroke="none"/><path d="M89.9,24L90.1,24L90.1,24.4L90.6,24.4L90.6,24.9L91.1,24.9L91.1,25.9L91.6,25.9L91.6,28.5L91.4,28.5L91.4,26.1L90.9,26.1L90.9,25.1L90.4,25.1L90.4,24.6L89.9,24.6z" stroke="none"/><path d="M64.6,55.5L64.4,55.5L64.4,55.1L63.9,55.1L63.9,54.6L62.4,54.6L62.4,53.6L59.9,53.6L59.9,52.5L60.1,52.5L60.1,53.4L62.6,53.4L62.6,54.4L64.1,54.4L64.1,54.9L64.6,54.9z" stroke="none"/><path d="M4.6,27L4.4,27L4.4,20.9L6,20.9L6,21.1L4.6,21.1z" stroke="none"/><path d="M8.9,34.5L9.1,34.5L9.1,37.6L8.6,37.6L8.6,38.1L8.1,38.1L8.1,38.6L7.6,38.6L7.6,40.5L7.4,40.5L7.4,38.4L7.9,38.4L7.9,37.9L8.4,37.9L8.4,37.4L8.9,37.4z" stroke="none"/><path d="M94.5,100.6L94.5,100.4L97.9,100.4L97.9,99.4L98.4,99.4L98.4,98.9L100.5,98.9L100.5,99.1L98.6,99.1L98.6,99.6L98.1,99.6L98.1,100.6z" stroke="none"/><path d="M22.5,7.6L22.5,7.4L28.6,7.4L28.6,12.1L28.1,12.1L28.1,13.1L27.1,13.1L27.1,13.5L26.9,13.5L26.9,12.9L27.9,12.9L27.9,11.9L28.4,11.9L28.4,7.6z" stroke="none"/><path d="M80.9,25.5L81.1,25.5L81.1,26.9L81.6,26.9L81.6,27.9L82.1,27.9L82.1,29.4L82.6,29.4L82.6,30.4L83.6,30.4L83.6,30.9L84.1,30.9L84.1,31.9L85.1,31.9L85.1,32.4L85.6,32.4L85.6,33L85.4,33L85.4,32.6L84.9,32.6L84.9,32.1L83.9,32.1L83.9,31.1L83.4,31.1L83.4,30.6L82.4,30.6L82.4,29.6L81.9,29.6L81.9,28.1L81.4,28.1L81.4,27.1L80.9,27.1z" stroke="none"/><path d="M96.1,72L95.9,72L95.9,69.4L96.4,69.4L96.4,68.9L96.9,68.9L96.9,68.4L97.9,68.4L97.9,65.9L99.4,65.9L99.4,64.4L100.5,64.4L100.5,64.6L99.6,64.6L99.6,66.1L98.1,66.1L98.1,68.6L97.1,68.6L97.1,69.1L96.6,69.1L96.6,69.6L96.1,69.6z" stroke="none"/><path d="M91.5,98.9L91.5,99.1L82.5,99.1L82.5,98.9z" stroke="none"/><path d="M52.6,7.5L52.4,7.5L52.4,5.4L56.4,5.4L56.4,4.9L60.9,4.9L60.9,4.4L61.5,4.4L61.5,4.6L61.1,4.6L61.1,5.1L56.6,5.1L56.6,5.6L52.6,5.6z" stroke="none"/><path d="M19.6,9L19.4,9L19.4,7.1L18.4,7.1L18.4,6.6L12.9,6.6L12.9,6.1L10.5,6.1L10.5,5.9L13.1,5.9L13.1,6.4L18.6,6.4L18.6,6.9L19.6,6.9z" stroke="none"/><path d="M101.9,94.5L102.1,94.5L102.1,99.6L101.1,99.6L101.1,100.1L99.1,100.1L99.1,101.1L96.6,101.1L96.6,101.6L96.1,101.6L96.1,102L95.9,102L95.9,101.4L96.4,101.4L96.4,100.9L98.9,100.9L98.9,99.9L100.9,99.9L100.9,99.4L101.9,99.4z" stroke="none"/><path d="M97.4,9L97.6,9L97.6,13.1L97.1,13.1L97.1,13.6L94.1,13.6L94.1,14.1L92.6,14.1L92.6,14.6L90.6,14.6L90.6,15.1L90,15.1L90,14.9L90.4,14.9L90.4,14.4L92.4,14.4L92.4,13.9L93.9,13.9L93.9,13.4L96.9,13.4L96.9,12.9L97.4,12.9z" stroke="none"/><path d="M52.5,84.1L52.5,83.9L58.6,83.9L58.6,85.4L59.6,85.4L59.6,85.9L60.1,85.9L60.1,86.9L60.6,86.9L60.6,87.4L61.1,87.4L61.1,87.9L61.6,87.9L61.6,88.5L61.4,88.5L61.4,88.1L60.9,88.1L60.9,87.6L60.4,87.6L60.4,87.1L59.9,87.1L59.9,86.1L59.4,86.1L59.4,85.6L58.4,85.6L58.4,84.1z" stroke="none"/><path d="M16.5,77.9L16.5,78.1L15.1,78.1L15.1,78.6L12.1,78.6L12.1,79.1L10.6,79.1L10.6,79.6L10.1,79.6L10.1,80.1L9.6,80.1L9.6,81.1L9.1,81.1L9.1,82.1L8.6,82.1L8.6,82.6L7.1,82.6L7.1,83.6L5.6,83.6L5.6,84.1L5.1,84.1L5.1,85.6L4.1,85.6L4.1,86.1L3.6,86.1L3.6,86.6L2.4,86.6L2.4,86.1L1.9,86.1L1.9,77.9L2.4,77.9L2.4,77.4L2.9,77.4L2.9,76.4L3.4,76.4L3.4,75.9L4.9,75.9L4.9,74.9L5.4,74.9L5.4,74.4L6.4,74.4L6.4,73.9L7.4,73.9L7.4,73.5L7.6,73.5L7.6,74.1L6.6,74.1L6.6,74.6L5.6,74.6L5.6,75.1L5.1,75.1L5.1,76.1L3.6,76.1L3.6,76.6L3.1,76.6L3.1,77.6L2.6,77.6L2.6,78.1L2.1,78.1L2.1,85.9L2.6,85.9L2.6,86.4L3.4,86.4L3.4,85.9L3.9,85.9L3.9,85.4L4.9,85.4L4.9,83.9L5.4,83.9L5.4,83.4L6.9,83.4L6.9,82.4L8.4,82.4L8.4,81.9L8.9,81.9L8.9,80.9L9.4,80.9L9.4,79.9L9.9,79.9L9.9,79.4L10.4,79.4L10.4,78.9L11.9,78.9L11.9,78.4L14.9,78.4L14.9,77.9z" stroke="none"/><path d="M84.1,79.5L83.9,79.5L83.9,79.1L82.9,79.1L82.9,76.6L81.4,76.6L81.4,75.6L80.9,75.6L80.9,75.1L80.4,75.1L80.4,72.1L79.9,72.1L79.9,70.6L79.5,70.6L79.5,70.4L80.1,70.4L80.1,71.9L80.6,71.9L80.6,74.9L81.1,74.9L81.1,75.4L81.6,75.4L81.6,76.4L83.1,76.4L83.1,78.9L84.1,78.9z" stroke="none"/><path d="M13.5,4.4L13.5,4.6L12.1,4.6L12.1,5.1L10.1,5.1L10.1,5.6L9.6,5.6L9.6,11.4L10.6,11.4L10.6,11.9L11.1,11.9L11.1,13.4L12.1,13.4L12.1,13.9L13.1,13.9L13.1,14.4L13.6,14.4L13.6,15L13.4,15L13.4,14.6L12.9,14.6L12.9,14.1L11.9,14.1L11.9,13.6L10.9,13.6L10.9,12.1L10.4,12.1L10.4,11.6L9.4,11.6L9.4,5.4L9.9,5.4L9.9,4.9L11.9,4.9L11.9,4.4z" stroke="none"/><path d="M52.4,85.5L52.6,85.5L52.6,91.4L57.1,91.4L57.1,91.9L58.1,91.9L58.1,92.4L60.1,92.4L60.1,93L59.9,93L59.9,92.6L57.9,92.6L57.9,92.1L56.9,92.1L56.9,91.6L52.4,91.6z" stroke="none"/><path d="M45,27.1L45,26.9L48.1,26.9L48.1,27.9L50.6,27.9L50.6,29.9L51.1,29.9L51.1,30.4L52.1,30.4L52.1,30.9L52.6,30.9L52.6,32.4L53.6,32.4L53.6,32.9L54,32.9L54,33.1L53.4,33.1L53.4,32.6L52.4,32.6L52.4,31.1L51.9,31.1L51.9,30.6L50.9,30.6L50.9,30.1L50.4,30.1L50.4,28.1L47.9,28.1L47.9,27.1z" stroke="none"/><path d="M3,102.1L3,101.9L15,101.9L15,102.1z" stroke="none"/><path d="M2.9,10.5L3.1,10.5L3.1,22.5L2.9,22.5z" stroke="none"/><path d="M4.6,69L4.4,69L4.4,61.4L5.4,61.4L5.4,60.9L5.9,60.9L5.9,60.4L6.4,60.4L6.4,58.9L6.9,58.9L6.9,56.9L7.5,56.9L7.5,57.1L7.1,57.1L7.1,59.1L6.6,59.1L6.6,60.6L6.1,60.6L6.1,61.1L5.6,61.1L5.6,61.6L4.6,61.6z" stroke="none"/><path d="M87,18.1L87,17.9L93.6,17.9L93.6,18.4L95.1,18.4L95.1,18.9L95.6,18.9L95.6,20.9L96.6,20.9L96.6,21.4L97.6,21.4L97.6,21.9L99.1,21.9L99.1,22.5L98.9,22.5L98.9,22.1L97.4,22.1L97.4,21.6L96.4,21.6L96.4,21.1L95.4,21.1L95.4,19.1L94.9,19.1L94.9,18.6L93.4,18.6L93.4,18.1z" stroke="none"/><path d="M43.5,81.1L43.5,80.9L57,80.9L57,81.1z" stroke="none"/><path d="M29.9,46.5L30.1,46.5L30.1,59.6L28.6,59.6L28.6,60L28.4,60L28.4,59.4L29.9,59.4z" stroke="none"/><path d="M45.1,60L44.9,60L44.9,48.4L45.4,48.4L45.4,47.9L46.4,47.9L46.4,46.5L46.6,46.5L46.6,48.1L45.6,48.1L45.6,48.6L45.1,48.6z" stroke="none"/><path d="M87,7.6L87,7.4L99.9,7.4L99.9,6.9L100.4,6.9L100.4,6L100.6,6L100.6,7.1L100.1,7.1L100.1,7.6z" stroke="none"/><path d="M87.1,37.5L86.9,37.5L86.9,35.6L85.9,35.6L85.9,35.1L85.4,35.1L85.4,34.6L84.9,34.6L84.9,34.1L84.4,34.1L84.4,32.6L83.4,32.6L83.4,31.6L82.9,31.6L82.9,31.1L81.4,31.1L81.4,28.6L80.9,28.6L80.9,28.1L78.9,28.1L78.9,27.1L78,27.1L78,26.9L79.1,26.9L79.1,27.9L81.1,27.9L81.1,28.4L81.6,28.4L81.6,30.9L83.1,30.9L83.1,31.4L83.6,31.4L83.6,32.4L84.6,32.4L84.6,33.9L85.1,33.9L85.1,34.4L85.6,34.4L85.6,34.9L86.1,34.9L86.1,35.4L87.1,35.4z" stroke="none"/><path d="M21.1,97.5L20.9,97.5L20.9,94.6L20.4,94.6L20.4,93.1L19.4,93.1L19.4,92.6L18.9,92.6L18.9,92.1L17.4,92.1L17.4,91.6L16.9,91.6L16.9,90.6L15.9,90.6L15.9,90.1L14.4,90.1L14.4,88.1L13.9,88.1L13.9,87.6L13.4,87.6L13.4,87.1L12,87.1L12,86.9L13.6,86.9L13.6,87.4L14.1,87.4L14.1,87.9L14.6,87.9L14.6,89.9L16.1,89.9L16.1,90.4L17.1,90.4L17.1,91.4L17.6,91.4L17.6,91.9L19.1,91.9L19.1,92.4L19.6,92.4L19.6,92.9L20.6,92.9L20.6,94.4L21.1,94.4z" stroke="none"/><path d="M57,55.6L57,55.4L58.4,55.4L58.4,54.9L58.9,54.9L58.9,51.9L59.4,51.9L59.4,51.4L61.4,51.4L61.4,50.9L61.9,50.9L61.9,49.4L62.4,49.4L62.4,48.9L62.9,48.9L62.9,47.9L63.4,47.9L63.4,47.4L65.4,47.4L65.4,45.9L65.9,45.9L65.9,45L66.1,45L66.1,46.1L65.6,46.1L65.6,47.6L63.6,47.6L63.6,48.1L63.1,48.1L63.1,49.1L62.6,49.1L62.6,49.6L62.1,49.6L62.1,51.1L61.6,51.1L61.6,51.6L59.6,51.6L59.6,52.1L59.1,52.1L59.1,55.1L58.6,55.1L58.6,55.6z" stroke="none"/><path d="M88.5,3.1L88.5,2.9L91.6,2.9L91.6,3.4L94.1,3.4L94.1,3.9L95.4,3.9L95.4,3.4L99.6,3.4L99.6,3.9L100.1,3.9L100.1,4.9L101.1,4.9L101.1,5.4L101.6,5.4L101.6,6.9L102.1,6.9L102.1,7.5L101.9,7.5L101.9,7.1L101.4,7.1L101.4,5.6L100.9,5.6L100.9,5.1L99.9,5.1L99.9,4.1L99.4,4.1L99.4,3.6L95.6,3.6L95.6,4.1L93.9,4.1L93.9,3.6L91.4,3.6L91.4,3.1z" stroke="none"/><path d="M73.5,22.6L73.5,22.4L88.5,22.4L88.5,22.6z" stroke="none"/><path d="M94.5,3.1L94.5,2.9L101.6,2.9L101.6,3.9L102.1,3.9L102.1,5.4L102.6,5.4L102.6,6.9L103.1,6.9L103.1,9.1L102.6,9.1L102.6,9.6L102.1,9.6L102.1,10.1L101.6,10.1L101.6,11.1L101.1,11.1L101.1,12.1L100.6,12.1L100.6,12.6L98.6,12.6L98.6,13.6L97.6,13.6L97.6,14.1L97.1,14.1L97.1,17.6L96.6,17.6L96.6,18.1L96,18.1L96,17.9L96.4,17.9L96.4,17.4L96.9,17.4L96.9,13.9L97.4,13.9L97.4,13.4L98.4,13.4L98.4,12.4L100.4,12.4L100.4,11.9L100.9,11.9L100.9,10.9L101.4,10.9L101.4,9.9L101.9,9.9L101.9,9.4L102.4,9.4L102.4,8.9L102.9,8.9L102.9,7.1L102.4,7.1L102.4,5.6L101.9,5.6L101.9,4.1L101.4,4.1L101.4,3.1z" stroke="none"/><path d="M102,44.9L102,45.1L99.1,45.1L99.1,45.6L97.1,45.6L97.1,46.1L88.1,46.1L88.1,46.6L87,46.6L87,46.4L87.9,46.4L87.9,45.9L96.9,45.9L96.9,45.4L98.9,45.4L98.9,44.9z" stroke="none"/><path d="M18.1,28.5L17.9,28.5L17.9,26.9L18.4,26.9L18.4,25.9L18.9,25.9L18.9,25.1L18.4,25.1L18.4,24.6L17.6,24.6L17.6,25.1L17.1,25.1L17.1,26.1L16.6,26.1L16.6,44.9L17.1,44.9L17.1,46.9L17.6,46.9L17.6,48.6L17.1,48.6L17.1,49.1L14.4,49.1L14.4,48.1L13.9,48.1L13.9,47.6L12.4,47.6L12.4,46.6L10.4,46.6L10.4,46.1L9.9,46.1L9.9,45.6L9.4,45.6L9.4,45.1L8.4,45.1L8.4,42.6L7.9,42.6L7.9,41.6L6.9,41.6L6.9,41.1L6.4,41.1L6.4,39.6L5.4,39.6L5.4,39.1L4.9,39.1L4.9,37.6L3.4,37.6L3.4,36.1L2.4,36.1L2.4,35.1L1.9,35.1L1.9,24.4L2.9,24.4L2.9,24L3.1,24L3.1,24.6L2.1,24.6L2.1,34.9L2.6,34.9L2.6,35.9L3.6,35.9L3.6,37.4L5.1,37.4L5.1,38.9L5.6,38.9L5.6,39.4L6.6,39.4L6.6,40.9L7.1,40.9L7.1,41.4L8.1,41.4L8.1,42.4L8.6,42.4L8.6,44.9L9.6,44.9L9.6,45.4L10.1,45.4L10.1,45.9L10.6,45.9L10.6,46.4L12.6,46.4L12.6,47.4L14.1,47.4L14.1,47.9L14.6,47.9L14.6,48.9L16.9,48.9L16.9,48.4L17.4,48.4L17.4,47.1L16.9,47.1L16.9,45.1L16.4,45.1L16.4,25.9L16.9,25.9L16.9,24.9L17.4,24.9L17.4,24.4L18.6,24.4L18.6,24.9L19.1,24.9L19.1,26.1L18.6,26.1L18.6,27.1L18.1,27.1z" stroke="none"/><path d="M93,95.9L93,96.1L92.1,96.1L92.1,96.6L91.6,96.6L91.6,97.1L91.1,97.1L91.1,97.6L86.6,97.6L86.6,98.1L86.1,98.1L86.1,98.6L82.9,98.6L82.9,98.1L78.1,98.1L78.1,98.6L76.6,98.6L76.6,99L76.4,99L76.4,98.4L77.9,98.4L77.9,97.9L83.1,97.9L83.1,98.4L85.9,98.4L85.9,97.9L86.4,97.9L86.4,97.4L90.9,97.4L90.9,96.9L91.4,96.9L91.4,96.4L91.9,96.4L91.9,95.9z" stroke="none"/><path d="M97.6,63L97.4,63L97.4,50.4L99.4,50.4L99.4,47.9L99.9,47.9L99.9,46.4L102.9,46.4L102.9,44.6L102.4,44.6L102.4,44.1L96.6,44.1L96.6,44.6L96.1,44.6L96.1,45L95.9,45L95.9,44.4L96.4,44.4L96.4,43.9L102.6,43.9L102.6,44.4L103.1,44.4L103.1,46.6L100.1,46.6L100.1,48.1L99.6,48.1L99.6,50.6L97.6,50.6z" stroke="none"/><path d="M7.6,64.5L7.4,64.5L7.4,58.4L7.9,58.4L7.9,57.4L8.4,57.4L8.4,48.6L7.4,48.6L7.4,47.1L6.4,47.1L6.4,46.6L6,46.6L6,46.4L6.6,46.4L6.6,46.9L7.6,46.9L7.6,48.4L8.6,48.4L8.6,57.6L8.1,57.6L8.1,58.6L7.6,58.6z" stroke="none"/><path d="M14.9,91.5L15.1,91.5L15.1,94.9L15.6,94.9L15.6,96.4L17.6,96.4L17.6,96.9L18.1,96.9L18.1,97.4L19.6,97.4L19.6,98.4L31.6,98.4L31.6,99L31.4,99L31.4,98.6L19.4,98.6L19.4,97.6L17.9,97.6L17.9,97.1L17.4,97.1L17.4,96.6L15.4,96.6L15.4,95.1L14.9,95.1z" stroke="none"/><path d="M28.6,57L28.4,57L28.4,45.9L28.9,45.9L28.9,45.4L29.4,45.4L29.4,41.4L29.9,41.4L29.9,39.4L30.4,39.4L30.4,38.9L31.5,38.9L31.5,39.1L30.6,39.1L30.6,39.6L30.1,39.6L30.1,41.6L29.6,41.6L29.6,45.6L29.1,45.6L29.1,46.1L28.6,46.1z" stroke="none"/><path d="M31.4,76.5L31.6,76.5L31.6,80.6L31.1,80.6L31.1,82.1L30.6,82.1L30.6,93.1L29.6,93.1L29.6,93.6L29.1,93.6L29.1,94.1L27.6,94.1L27.6,94.6L25.5,94.6L25.5,94.4L27.4,94.4L27.4,93.9L28.9,93.9L28.9,93.4L29.4,93.4L29.4,92.9L30.4,92.9L30.4,81.9L30.9,81.9L30.9,80.4L31.4,80.4z" stroke="none"/><path d="M81,42.1L81,41.9L95.4,41.9L95.4,39.9L96.9,39.9L96.9,39.4L97.4,39.4L97.4,38.9L97.9,38.9L97.9,38.4L98.4,38.4L98.4,37.4L100.5,37.4L100.5,37.6L98.6,37.6L98.6,38.6L98.1,38.6L98.1,39.1L97.6,39.1L97.6,39.6L97.1,39.6L97.1,40.1L95.6,40.1L95.6,42.1z" stroke="none"/><path d="M95.9,24L96.1,24L96.1,32.1L94.1,32.1L94.1,33.6L93.1,33.6L93.1,34.6L92.1,34.6L92.1,35.1L91.6,35.1L91.6,36.1L91.1,36.1L91.1,37.1L90.6,37.1L90.6,37.6L89.6,37.6L89.6,38.6L81.9,38.6L81.9,37.6L81.4,37.6L81.4,37.1L80.9,37.1L80.9,36.6L80.4,36.6L80.4,36.1L79.9,36.1L79.9,35.6L79.4,35.6L79.4,35.1L77.9,35.1L77.9,34.5L78.1,34.5L78.1,34.9L79.6,34.9L79.6,35.4L80.1,35.4L80.1,35.9L80.6,35.9L80.6,36.4L81.1,36.4L81.1,36.9L81.6,36.9L81.6,37.4L82.1,37.4L82.1,38.4L89.4,38.4L89.4,37.4L90.4,37.4L90.4,36.9L90.9,36.9L90.9,35.9L91.4,35.9L91.4,34.9L91.9,34.9L91.9,34.4L92.9,34.4L92.9,33.4L93.9,33.4L93.9,31.9L95.9,31.9z" stroke="none"/><path d="M82.4,93L82.6,93L82.6,94.4L83.1,94.4L83.1,95.4L92.4,95.4L92.4,94.9L93.6,94.9L93.6,95.4L94.1,95.4L94.1,99.6L93.6,99.6L93.6,100.9L94.1,100.9L94.1,101.4L94.6,101.4L94.6,101.9L95.1,101.9L95.1,102.4L95.6,102.4L95.6,102.9L101.4,102.9L101.4,100.9L101.9,100.9L101.9,100.5L102.1,100.5L102.1,101.1L101.6,101.1L101.6,103.1L95.4,103.1L95.4,102.6L94.9,102.6L94.9,102.1L94.4,102.1L94.4,101.6L93.9,101.6L93.9,101.1L93.4,101.1L93.4,99.4L93.9,99.4L93.9,95.6L93.4,95.6L93.4,95.1L92.6,95.1L92.6,95.6L82.9,95.6L82.9,94.6L82.4,94.6z" stroke="none"/><path d="M33,10.6L33,10.4L45.9,10.4L45.9,9.4L47.4,9.4L47.4,8.9L47.9,8.9L47.9,8.4L48.4,8.4L48.4,7.4L48.9,7.4L48.9,6.4L49.4,6.4L49.4,5.9L50.9,5.9L50.9,5.4L51.9,5.4L51.9,4.4L52.4,4.4L52.4,3L52.6,3L52.6,4.6L52.1,4.6L52.1,5.6L51.1,5.6L51.1,6.1L49.6,6.1L49.6,6.6L49.1,6.6L49.1,7.6L48.6,7.6L48.6,8.6L48.1,8.6L48.1,9.1L47.6,9.1L47.6,9.6L46.1,9.6L46.1,10.6z" stroke="none"/><path d="M101.9,18L102.1,18L102.1,22.6L101.6,22.6L101.6,23.6L98.4,23.6L98.4,23.1L93.9,23.1L93.9,22.6L91.4,22.6L91.4,20.6L88.4,20.6L88.4,20.1L87.4,20.1L87.4,19.6L86.9,19.6L86.9,19.1L86.4,19.1L86.4,18.6L85.9,18.6L85.9,11.1L85.4,11.1L85.4,10.6L83.9,10.6L83.9,9.1L82.5,9.1L82.5,8.9L84.1,8.9L84.1,10.4L85.6,10.4L85.6,10.9L86.1,10.9L86.1,18.4L86.6,18.4L86.6,18.9L87.1,18.9L87.1,19.4L87.6,19.4L87.6,19.9L88.6,19.9L88.6,20.4L91.6,20.4L91.6,22.4L94.1,22.4L94.1,22.9L98.6,22.9L98.6,23.4L101.4,23.4L101.4,22.4L101.9,22.4z" stroke="none"/><path d="M41.9,66L42.1,66L42.1,79.1L39.6,79.1L39.6,80.1L37.6,80.1L37.6,81.1L37.1,81.1L37.1,81.6L36.6,81.6L36.6,82.1L36.1,82.1L36.1,82.6L35.6,82.6L35.6,83.1L35.1,83.1L35.1,83.6L34.6,83.6L34.6,84.1L34.1,84.1L34.1,84.6L33.6,84.6L33.6,85.1L33.1,85.1L33.1,85.5L32.9,85.5L32.9,84.9L33.4,84.9L33.4,84.4L33.9,84.4L33.9,83.9L34.4,83.9L34.4,83.4L34.9,83.4L34.9,82.9L35.4,82.9L35.4,82.4L35.9,82.4L35.9,81.9L36.4,81.9L36.4,81.4L36.9,81.4L36.9,80.9L37.4,80.9L37.4,79.9L39.4,79.9L39.4,78.9L41.9,78.9z" stroke="none"/><path d="M7.6,94.5L7.4,94.5L7.4,93.1L5.9,93.1L5.9,92.6L5.4,92.6L5.4,92.1L4.9,92.1L4.9,91.6L3.9,91.6L3.9,91.1L3.4,91.1L3.4,89.6L2.4,89.6L2.4,88.6L1.9,88.6L1.9,87.1L1.4,87.1L1.4,75.4L3.9,75.4L3.9,74.9L4.4,74.9L4.4,74.4L4.9,74.4L4.9,73.9L5.4,73.9L5.4,73.4L5.9,73.4L5.9,72.9L6.9,72.9L6.9,72.4L12.1,72.4L12.1,73.5L11.9,73.5L11.9,72.6L7.1,72.6L7.1,73.1L6.1,73.1L6.1,73.6L5.6,73.6L5.6,74.1L5.1,74.1L5.1,74.6L4.6,74.6L4.6,75.1L4.1,75.1L4.1,75.6L1.6,75.6L1.6,86.9L2.1,86.9L2.1,88.4L2.6,88.4L2.6,89.4L3.6,89.4L3.6,90.9L4.1,90.9L4.1,91.4L5.1,91.4L5.1,91.9L5.6,91.9L5.6,92.4L6.1,92.4L6.1,92.9L7.6,92.9z" stroke="none"/><path d="M72,2.9L72,3.1L62.6,3.1L62.6,5.1L62.1,5.1L62.1,5.6L58.1,5.6L58.1,6.1L56.1,6.1L56.1,6.6L55.1,6.6L55.1,7.1L54.6,7.1L54.6,14.1L54.1,14.1L54.1,15L53.9,15L53.9,13.9L54.4,13.9L54.4,6.9L54.9,6.9L54.9,6.4L55.9,6.4L55.9,5.9L57.9,5.9L57.9,5.4L61.9,5.4L61.9,4.9L62.4,4.9L62.4,2.9z" stroke="none"/><path d="M79.5,46.6L79.5,46.4L85.6,46.4L85.6,47.4L94.1,47.4L94.1,48.4L94.6,48.4L94.6,51.4L95.1,51.4L95.1,51.9L95.6,51.9L95.6,63.4L97.1,63.4L97.1,63.9L98.4,63.9L98.4,60.9L98.9,60.9L98.9,57L99.1,57L99.1,61.1L98.6,61.1L98.6,64.1L96.9,64.1L96.9,63.6L95.4,63.6L95.4,52.1L94.9,52.1L94.9,51.6L94.4,51.6L94.4,48.6L93.9,48.6L93.9,47.6L85.4,47.6L85.4,46.6z" stroke="none"/><path d="M58.4,9L58.6,9L58.6,12.6L56.6,12.6L56.6,15.6L55.6,15.6L55.6,16.1L53.4,16.1L53.4,15.6L52.9,15.6L52.9,14.6L52.4,14.6L52.4,14.1L50.9,14.1L50.9,13.6L48.1,13.6L48.1,24.6L44.1,24.6L44.1,25.6L43.5,25.6L43.5,25.4L43.9,25.4L43.9,24.4L47.9,24.4L47.9,13.4L51.1,13.4L51.1,13.9L52.6,13.9L52.6,14.4L53.1,14.4L53.1,15.4L53.6,15.4L53.6,15.9L55.4,15.9L55.4,15.4L56.4,15.4L56.4,12.4L58.4,12.4z" stroke="none"/><path d="M9,76.6L9,76.4L11.9,76.4L11.9,74.4L12.4,74.4L12.4,73.9L12.9,73.9L12.9,57.6L12.4,57.6L12.4,55.9L15.9,55.9L15.9,55.4L16.5,55.4L16.5,55.6L16.1,55.6L16.1,56.1L12.6,56.1L12.6,57.4L13.1,57.4L13.1,74.1L12.6,74.1L12.6,74.6L12.1,74.6L12.1,76.6z" stroke="none"/><path d="M73.6,60L73.4,60L73.4,39.1L71.9,39.1L71.9,37.5L72.1,37.5L72.1,38.9L73.6,38.9z" stroke="none"/><path d="M52.4,9L52.6,9L52.6,10.1L52.1,10.1L52.1,10.6L49.6,10.6L49.6,11.1L49.1,11.1L49.1,11.6L48.6,11.6L48.6,12.1L47.6,12.1L47.6,23.1L46.6,23.1L46.6,23.6L43.1,23.6L43.1,24.1L42.6,24.1L42.6,29.4L43.6,29.4L43.6,30L43.4,30L43.4,29.6L42.4,29.6L42.4,23.9L42.9,23.9L42.9,23.4L46.4,23.4L46.4,22.9L47.4,22.9L47.4,11.9L48.4,11.9L48.4,11.4L48.9,11.4L48.9,10.9L49.4,10.9L49.4,10.4L51.9,10.4L51.9,9.9L52.4,9.9z" stroke="none"/><path d="M73.5,37.6L73.5,37.4L80.6,37.4L80.6,37.9L81.6,37.9L81.6,38.9L94.4,38.9L94.4,38.4L94.9,38.4L94.9,37.4L96.4,37.4L96.4,36.4L96.9,36.4L96.9,35.9L97.5,35.9L97.5,36.1L97.1,36.1L97.1,36.6L96.6,36.6L96.6,37.6L95.1,37.6L95.1,38.6L94.6,38.6L94.6,39.1L81.4,39.1L81.4,38.1L80.4,38.1L80.4,37.6z" stroke="none"/><path d="M28.5,80.9L28.5,81.1L20.6,81.1L20.6,81.6L19.6,81.6L19.6,82.1L19.1,82.1L19.1,82.6L17.1,82.6L17.1,83.1L16.6,83.1L16.6,84.1L15.1,84.1L15.1,85.1L14.6,85.1L14.6,85.6L12.1,85.6L12.1,86.1L11.1,86.1L11.1,90.4L11.6,90.4L11.6,95.9L12.1,95.9L12.1,96.4L13.1,96.4L13.1,96.9L13.6,96.9L13.6,97.4L14.1,97.4L14.1,98.4L14.6,98.4L14.6,98.9L15.1,98.9L15.1,99.4L15.6,99.4L15.6,100.4L16.1,100.4L16.1,100.9L16.6,100.9L16.6,102L16.4,102L16.4,101.1L15.9,101.1L15.9,100.6L15.4,100.6L15.4,99.6L14.9,99.6L14.9,99.1L14.4,99.1L14.4,98.6L13.9,98.6L13.9,97.6L13.4,97.6L13.4,97.1L12.9,97.1L12.9,96.6L11.9,96.6L11.9,96.1L11.4,96.1L11.4,90.6L10.9,90.6L10.9,85.9L11.9,85.9L11.9,85.4L14.4,85.4L14.4,84.9L14.9,84.9L14.9,83.9L16.4,83.9L16.4,82.9L16.9,82.9L16.9,82.4L18.9,82.4L18.9,81.9L19.4,81.9L19.4,81.4L20.4,81.4L20.4,80.9z" stroke="none"/><path d="M66.1,54L65.9,54L65.9,46.9L66.4,46.9L66.4,45.4L66.9,45.4L66.9,40.9L67.4,40.9L67.4,39.9L68.4,39.9L68.4,38.4L68.9,38.4L68.9,37.9L69.4,37.9L69.4,37.4L69.9,37.4L69.9,36.4L74.4,36.4L74.4,35.4L75.4,35.4L75.4,34.9L75.9,34.9L75.9,34.4L76.4,34.4L76.4,33.9L76.9,33.9L76.9,33.4L82.6,33.4L82.6,33.9L83.1,33.9L83.1,36.9L84.1,36.9L84.1,37.5L83.9,37.5L83.9,37.1L82.9,37.1L82.9,34.1L82.4,34.1L82.4,33.6L77.1,33.6L77.1,34.1L76.6,34.1L76.6,34.6L76.1,34.6L76.1,35.1L75.6,35.1L75.6,35.6L74.6,35.6L74.6,36.6L70.1,36.6L70.1,37.6L69.6,37.6L69.6,38.1L69.1,38.1L69.1,38.6L68.6,38.6L68.6,40.1L67.6,40.1L67.6,41.1L67.1,41.1L67.1,45.6L66.6,45.6L66.6,47.1L66.1,47.1z" stroke="none"/><path d="M61.5,71.9L61.5,72.1L56.1,72.1L56.1,73.1L55.1,73.1L55.1,73.6L54.6,73.6L54.6,74.1L54.1,74.1L54.1,74.6L47.1,74.6L47.1,75.1L45.1,75.1L45.1,76.6L44.6,76.6L44.6,77.1L44.1,77.1L44.1,79.1L42.6,79.1L42.6,79.6L42.1,79.6L42.1,80.1L41.6,80.1L41.6,80.6L40.6,80.6L40.6,81.1L38.6,81.1L38.6,83.1L38.1,83.1L38.1,83.6L37.1,83.6L37.1,84.6L36.6,84.6L36.6,85.1L34.1,85.1L34.1,86.1L33.6,86.1L33.6,86.6L31.9,86.6L31.9,84.4L32.9,84.4L32.9,83.4L33.9,83.4L33.9,82.9L34.4,82.9L34.4,82.4L34.9,82.4L34.9,81.9L35.4,81.9L35.4,81.4L35.9,81.4L35.9,80.9L36.4,80.9L36.4,80.4L36.9,80.4L36.9,78.4L37.4,78.4L37.4,78L37.6,78L37.6,78.6L37.1,78.6L37.1,80.6L36.6,80.6L36.6,81.1L36.1,81.1L36.1,81.6L35.6,81.6L35.6,82.1L35.1,82.1L35.1,82.6L34.6,82.6L34.6,83.1L34.1,83.1L34.1,83.6L33.1,83.6L33.1,84.6L32.1,84.6L32.1,86.4L33.4,86.4L33.4,85.9L33.9,85.9L33.9,84.9L36.4,84.9L36.4,84.4L36.9,84.4L36.9,83.4L37.9,83.4L37.9,82.9L38.4,82.9L38.4,80.9L40.4,80.9L40.4,80.4L41.4,80.4L41.4,79.9L41.9,79.9L41.9,79.4L42.4,79.4L42.4,78.9L43.9,78.9L43.9,76.9L44.4,76.9L44.4,76.4L44.9,76.4L44.9,74.9L46.9,74.9L46.9,74.4L53.9,74.4L53.9,73.9L54.4,73.9L54.4,73.4L54.9,73.4L54.9,72.9L55.9,72.9L55.9,71.9z" stroke="none"/><path d="M21,59.9L21,60.1L19.9,60.1L19.9,58.6L19.4,58.6L19.4,58.1L17.9,58.1L17.9,56.6L17.4,56.6L17.4,54.6L12.6,54.6L12.6,55.6L12.1,55.6L12.1,62.6L11.1,62.6L11.1,64.6L10.6,64.6L10.6,66.1L9.6,66.1L9.6,66.6L8.6,66.6L8.6,67.6L8.1,67.6L8.1,68.1L7.6,68.1L7.6,68.6L7.1,68.6L7.1,69.1L6.6,69.1L6.6,70.1L6.1,70.1L6.1,70.6L5.1,70.6L5.1,72.1L4.1,72.1L4.1,72.6L3.1,72.6L3.1,73.1L2.6,73.1L2.6,74.1L2.1,74.1L2.1,74.6L1.6,74.6L1.6,75.1L1.1,75.1L1.1,89.4L1.6,89.4L1.6,89.9L2.1,89.9L2.1,90.4L3.1,90.4L3.1,91.9L4.1,91.9L4.1,92.4L4.6,92.4L4.6,92.9L5.6,92.9L5.6,93.9L6.1,93.9L6.1,94.4L6.6,94.4L6.6,94.9L7.1,94.9L7.1,95.4L8.4,95.4L8.4,88.9L8.9,88.9L8.9,87.9L9.4,87.9L9.4,87.4L9.9,87.4L9.9,84.9L10.4,84.9L10.4,84.4L14.4,84.4L14.4,83.4L15.4,83.4L15.4,82.9L15.9,82.9L15.9,82.4L16.4,82.4L16.4,81.9L18.4,81.9L18.4,81.4L18.9,81.4L18.9,80.9L19.9,80.9L19.9,80.4L25.4,80.4L25.4,79.9L25.9,79.9L25.9,78.4L26.4,78.4L26.4,77.9L26.9,77.9L26.9,77.4L27.9,77.4L27.9,76.9L28.9,76.9L28.9,75.9L29.4,75.9L29.4,75.4L32.6,75.4L32.6,79.6L32.1,79.6L32.1,82.6L31.5,82.6L31.5,82.4L31.9,82.4L31.9,79.4L32.4,79.4L32.4,75.6L29.6,75.6L29.6,76.1L29.1,76.1L29.1,77.1L28.1,77.1L28.1,77.6L27.1,77.6L27.1,78.1L26.6,78.1L26.6,78.6L26.1,78.6L26.1,80.1L25.6,80.1L25.6,80.6L20.1,80.6L20.1,81.1L19.1,81.1L19.1,81.6L18.6,81.6L18.6,82.1L16.6,82.1L16.6,82.6L16.1,82.6L16.1,83.1L15.6,83.1L15.6,83.6L14.6,83.6L14.6,84.6L10.6,84.6L10.6,85.1L10.1,85.1L10.1,87.6L9.6,87.6L9.6,88.1L9.1,88.1L9.1,89.1L8.6,89.1L8.6,95.6L6.9,95.6L6.9,95.1L6.4,95.1L6.4,94.6L5.9,94.6L5.9,94.1L5.4,94.1L5.4,93.1L4.4,93.1L4.4,92.6L3.9,92.6L3.9,92.1L2.9,92.1L2.9,90.6L1.9,90.6L1.9,90.1L1.4,90.1L1.4,89.6L0.9,89.6L0.9,74.9L1.4,74.9L1.4,74.4L1.9,74.4L1.9,73.9L2.4,73.9L2.4,72.9L2.9,72.9L2.9,72.4L3.9,72.4L3.9,71.9L4.9,71.9L4.9,70.4L5.9,70.4L5.9,69.9L6.4,69.9L6.4,68.9L6.9,68.9L6.9,68.4L7.4,68.4L7.4,67.9L7.9,67.9L7.9,67.4L8.4,67.4L8.4,66.4L9.4,66.4L9.4,65.9L10.4,65.9L10.4,64.4L10.9,64.4L10.9,62.4L11.9,62.4L11.9,55.4L12.4,55.4L12.4,54.4L17.6,54.4L17.6,56.4L18.1,56.4L18.1,57.9L19.6,57.9L19.6,58.4L20.1,58.4L20.1,59.9z" stroke="none"/><path d="M96.1,97.5L95.9,97.5L95.9,88.4L97.4,88.4L97.4,87.9L97.9,87.9L97.9,87.4L98.4,87.4L98.4,73.4L98.9,73.4L98.9,72L99.1,72L99.1,73.6L98.6,73.6L98.6,87.6L98.1,87.6L98.1,88.1L97.6,88.1L97.6,88.6L96.1,88.6z" stroke="none"/><path d="M94.4,52.5L94.6,52.5L94.6,63.9L96.1,63.9L96.1,64.4L98.9,64.4L98.9,61.4L99.4,61.4L99.4,60.4L99.9,60.4L99.9,54.4L100.4,54.4L100.4,49.9L100.9,49.9L100.9,49.4L101.4,49.4L101.4,48.9L102.4,48.9L102.4,48.4L102.9,48.4L102.9,47.4L103.4,47.4L103.4,32.6L102.4,32.6L102.4,32.1L101.9,32.1L101.9,31.1L100.9,31.1L100.9,28.1L100.4,28.1L100.4,27L100.6,27L100.6,27.9L101.1,27.9L101.1,30.9L102.1,30.9L102.1,31.9L102.6,31.9L102.6,32.4L103.6,32.4L103.6,47.6L103.1,47.6L103.1,48.6L102.6,48.6L102.6,49.1L101.6,49.1L101.6,49.6L101.1,49.6L101.1,50.1L100.6,50.1L100.6,54.6L100.1,54.6L100.1,60.6L99.6,60.6L99.6,61.6L99.1,61.6L99.1,64.6L95.9,64.6L95.9,64.1L94.4,64.1z" stroke="none"/><path d="M44.9,25.5L45.1,25.5L45.1,26.1L44.1,26.1L44.1,28.9L44.6,28.9L44.6,30.6L44.1,30.6L44.1,31.1L41.9,31.1L41.9,20.4L42.4,20.4L42.4,18.4L42.9,18.4L42.9,17.1L37.4,17.1L37.4,16.6L36.9,16.6L36.9,15.6L35.4,15.6L35.4,14.1L34.4,14.1L34.4,13.1L33.9,13.1L33.9,12.6L33.4,12.6L33.4,12.1L32.9,12.1L32.9,11.6L32.4,11.6L32.4,11.1L31.9,11.1L31.9,9.9L32.4,9.9L32.4,9.4L44.4,9.4L44.4,6.9L44.9,6.9L44.9,6.4L45.9,6.4L45.9,5.4L46.4,5.4L46.4,4.4L50.4,4.4L50.4,2.9L50.9,2.9L50.9,2.4L51.4,2.4L51.4,1.9L76.1,1.9L76.1,9.6L74.1,9.6L74.1,10.1L73.6,10.1L73.6,10.6L73.1,10.6L73.1,11.1L72.1,11.1L72.1,12.1L71.6,12.1L71.6,12.6L70.1,12.6L70.1,13.1L69.1,13.1L69.1,15L68.9,15L68.9,12.9L69.9,12.9L69.9,12.4L71.4,12.4L71.4,11.9L71.9,11.9L71.9,10.9L72.9,10.9L72.9,10.4L73.4,10.4L73.4,9.9L73.9,9.9L73.9,9.4L75.9,9.4L75.9,2.1L51.6,2.1L51.6,2.6L51.1,2.6L51.1,3.1L50.6,3.1L50.6,4.6L46.6,4.6L46.6,5.6L46.1,5.6L46.1,6.6L45.1,6.6L45.1,7.1L44.6,7.1L44.6,9.6L32.6,9.6L32.6,10.1L32.1,10.1L32.1,10.9L32.6,10.9L32.6,11.4L33.1,11.4L33.1,11.9L33.6,11.9L33.6,12.4L34.1,12.4L34.1,12.9L34.6,12.9L34.6,13.9L35.6,13.9L35.6,15.4L37.1,15.4L37.1,16.4L37.6,16.4L37.6,16.9L43.1,16.9L43.1,18.6L42.6,18.6L42.6,20.6L42.1,20.6L42.1,30.9L43.9,30.9L43.9,30.4L44.4,30.4L44.4,29.1L43.9,29.1L43.9,25.9L44.9,25.9z" stroke="none"/><path d="M76.5,101.9L76.5,102.1L74.1,102.1L74.1,102.6L72.6,102.6L72.6,103.1L69.1,103.1L69.1,103.6L56.9,103.6L56.9,103.1L55.9,103.1L55.9,99.9L56.4,99.9L56.4,99.4L57.6,99.4L57.6,99.9L58.1,99.9L58.1,100.9L59.1,100.9L59.1,101.4L60.9,101.4L60.9,99.6L60.4,99.6L60.4,98.1L58.9,98.1L58.9,97.6L57.4,97.6L57.4,97.1L56.4,97.1L56.4,96.6L50.9,96.6L50.9,96L51.1,96L51.1,96.4L56.6,96.4L56.6,96.9L57.6,96.9L57.6,97.4L59.1,97.4L59.1,97.9L60.6,97.9L60.6,99.4L61.1,99.4L61.1,101.6L58.9,101.6L58.9,101.1L57.9,101.1L57.9,100.1L57.4,100.1L57.4,99.6L56.6,99.6L56.6,100.1L56.1,100.1L56.1,102.9L57.1,102.9L57.1,103.4L68.9,103.4L68.9,102.9L72.4,102.9L72.4,102.4L73.9,102.4L73.9,101.9z" stroke="none"/><path d="M63.1,91.5L62.9,91.5L62.9,72.1L62.4,72.1L62.4,71.6L61.9,71.6L61.9,71.1L56.9,71.1L56.9,70.6L46.5,70.6L46.5,70.4L57.1,70.4L57.1,70.9L62.1,70.9L62.1,71.4L62.6,71.4L62.6,71.9L63.1,71.9z" stroke="none"/><path d="M48,79.6L48,79.4L56.6,79.4L56.6,79.9L57.6,79.9L57.6,80.4L58.1,80.4L58.1,82.4L58.6,82.4L58.6,82.9L59.1,82.9L59.1,83.9L60.1,83.9L60.1,84.4L60.6,84.4L60.6,85.9L61.1,85.9L61.1,86.4L61.6,86.4L61.6,86.9L62.1,86.9L62.1,87.9L62.6,87.9L62.6,90.6L62.1,90.6L62.1,92.4L63.4,92.4L63.4,91.9L63.9,91.9L63.9,71.6L62.9,71.6L62.9,71.1L62.4,71.1L62.4,70.6L57.4,70.6L57.4,70.1L55.9,70.1L55.9,69.1L55.4,69.1L55.4,68.1L54.9,68.1L54.9,67.1L54.4,67.1L54.4,66.6L53.9,66.6L53.9,66.1L53.4,66.1L53.4,65.6L52.9,65.6L52.9,65.1L51.9,65.1L51.9,64.1L51.4,64.1L51.4,54.1L50.9,54.1L50.9,52.5L51.1,52.5L51.1,53.9L51.6,53.9L51.6,63.9L52.1,63.9L52.1,64.9L53.1,64.9L53.1,65.4L53.6,65.4L53.6,65.9L54.1,65.9L54.1,66.4L54.6,66.4L54.6,66.9L55.1,66.9L55.1,67.9L55.6,67.9L55.6,68.9L56.1,68.9L56.1,69.9L57.6,69.9L57.6,70.4L62.6,70.4L62.6,70.9L63.1,70.9L63.1,71.4L64.1,71.4L64.1,92.1L63.6,92.1L63.6,92.6L61.9,92.6L61.9,90.4L62.4,90.4L62.4,88.1L61.9,88.1L61.9,87.1L61.4,87.1L61.4,86.6L60.9,86.6L60.9,86.1L60.4,86.1L60.4,84.6L59.9,84.6L59.9,84.1L58.9,84.1L58.9,83.1L58.4,83.1L58.4,82.6L57.9,82.6L57.9,80.6L57.4,80.6L57.4,80.1L56.4,80.1L56.4,79.6z" stroke="none"/><path d="M72,102.1L72,101.9L73.4,101.9L73.4,101.4L75.9,101.4L75.9,100.9L93.1,100.9L93.1,102.4L93.6,102.4L93.6,102.9L94.6,102.9L94.6,103.4L101.9,103.4L101.9,101.4L102.9,101.4L102.9,94.1L102.4,94.1L102.4,93.6L101.1,93.6L101.1,94.1L99.1,94.1L99.1,94.5L98.9,94.5L98.9,93.9L100.9,93.9L100.9,93.4L102.6,93.4L102.6,93.9L103.1,93.9L103.1,101.6L102.1,101.6L102.1,103.6L94.4,103.6L94.4,103.1L93.4,103.1L93.4,102.6L92.9,102.6L92.9,101.1L76.1,101.1L76.1,101.6L73.6,101.6L73.6,102.1z" stroke="none"/><path d="M19.5,102.1L19.5,101.9L41.4,101.9L41.4,100.9L44.9,100.9L44.9,100.4L48,100.4L48,100.6L45.1,100.6L45.1,101.1L41.6,101.1L41.6,102.1z" stroke="none"/><path d="M40.5,37.6L40.5,37.4L53.1,37.4L53.1,38.4L53.6,38.4L53.6,53.9L54.1,53.9L54.1,54.9L54.6,54.9L54.6,55.4L55.6,55.4L55.6,56.4L65.4,56.4L65.4,55.4L65.9,55.4L65.9,54.9L66.4,54.9L66.4,54.4L66.9,54.4L66.9,49.9L67.4,49.9L67.4,49.5L67.6,49.5L67.6,50.1L67.1,50.1L67.1,54.6L66.6,54.6L66.6,55.1L66.1,55.1L66.1,55.6L65.6,55.6L65.6,56.6L55.4,56.6L55.4,55.6L54.4,55.6L54.4,55.1L53.9,55.1L53.9,54.1L53.4,54.1L53.4,38.6L52.9,38.6L52.9,37.6z" stroke="none"/><path d="M63,25.6L63,25.4L67.9,25.4L67.9,24.4L68.4,24.4L68.4,23.4L70.9,23.4L70.9,22.9L71.4,22.9L71.4,22.4L72.4,22.4L72.4,21.9L72.9,21.9L72.9,21.4L80.4,21.4L80.4,19.4L80.9,19.4L80.9,18.9L81.9,18.9L81.9,10.1L81.4,10.1L81.4,8.4L81.9,8.4L81.9,7.9L86.1,7.9L86.1,8.4L87.1,8.4L87.1,8.9L88.5,8.9L88.5,9.1L86.9,9.1L86.9,8.6L85.9,8.6L85.9,8.1L82.1,8.1L82.1,8.6L81.6,8.6L81.6,9.9L82.1,9.9L82.1,19.1L81.1,19.1L81.1,19.6L80.6,19.6L80.6,21.6L73.1,21.6L73.1,22.1L72.6,22.1L72.6,22.6L71.6,22.6L71.6,23.1L71.1,23.1L71.1,23.6L68.6,23.6L68.6,24.6L68.1,24.6L68.1,25.6z" stroke="none"/><path d="M100.4,25.5L100.6,25.5L100.6,26.1L100.1,26.1L100.1,26.6L99.6,26.6L99.6,37.1L98.1,37.1L98.1,38.1L95.6,38.1L95.6,39.6L82.6,39.6L82.6,40.1L81.1,40.1L81.1,40.6L80.6,40.6L80.6,41.6L80.1,41.6L80.1,45.1L79.6,45.1L79.6,45.6L79.1,45.6L79.1,46.1L78.6,46.1L78.6,48.4L80.1,48.4L80.1,49.4L81,49.4L81,49.6L79.9,49.6L79.9,48.6L78.4,48.6L78.4,45.9L78.9,45.9L78.9,45.4L79.4,45.4L79.4,44.9L79.9,44.9L79.9,41.4L80.4,41.4L80.4,40.4L80.9,40.4L80.9,39.9L82.4,39.9L82.4,39.4L95.4,39.4L95.4,37.9L97.9,37.9L97.9,36.9L99.4,36.9L99.4,26.4L99.9,26.4L99.9,25.9L100.4,25.9z" stroke="none"/><path d="M57,38.9L57,39.1L56.4,39.1L56.4,38.1L55.4,38.1L55.4,37.1L44.4,37.1L44.4,35.6L43.9,35.6L43.9,35.1L41.9,35.1L41.9,34.6L39.4,34.6L39.4,34.1L38.9,34.1L38.9,33.6L37.4,33.6L37.4,32.6L36.9,32.6L36.9,30.6L36.4,30.6L36.4,19.6L31.5,19.6L31.5,19.4L36.6,19.4L36.6,30.4L37.1,30.4L37.1,32.4L37.6,32.4L37.6,33.4L39.1,33.4L39.1,33.9L39.6,33.9L39.6,34.4L42.1,34.4L42.1,34.9L44.1,34.9L44.1,35.4L44.6,35.4L44.6,36.9L55.6,36.9L55.6,37.9L56.6,37.9L56.6,38.9z" stroke="none"/><path d="M34.5,88.6L34.5,88.4L45.1,88.4L45.1,88.9L46.6,88.9L46.6,89.4L48.6,89.4L48.6,89.9L49.6,89.9L49.6,90.4L51.1,90.4L51.1,91.9L56.1,91.9L56.1,92.4L57.6,92.4L57.6,92.9L58.1,92.9L58.1,93.4L59.6,93.4L59.6,93.9L62.9,93.9L62.9,93.4L63.4,93.4L63.4,92.9L64.4,92.9L64.4,70.9L65.4,70.9L65.4,70.4L68.4,70.4L68.4,69.9L68.9,69.9L68.9,64.9L69.4,64.9L69.4,63.4L69.9,63.4L69.9,62.6L69.4,62.6L69.4,62.1L66.6,62.1L66.6,62.6L65.6,62.6L65.6,63.1L64.6,63.1L64.6,64.6L61.6,64.6L61.6,65.6L59.1,65.6L59.1,66.1L58.5,66.1L58.5,65.9L58.9,65.9L58.9,65.4L61.4,65.4L61.4,64.4L64.4,64.4L64.4,62.9L65.4,62.9L65.4,62.4L66.4,62.4L66.4,61.9L69.6,61.9L69.6,62.4L70.1,62.4L70.1,63.6L69.6,63.6L69.6,65.1L69.1,65.1L69.1,70.1L68.6,70.1L68.6,70.6L65.6,70.6L65.6,71.1L64.6,71.1L64.6,93.1L63.6,93.1L63.6,93.6L63.1,93.6L63.1,94.1L59.4,94.1L59.4,93.6L57.9,93.6L57.9,93.1L57.4,93.1L57.4,92.6L55.9,92.6L55.9,92.1L50.9,92.1L50.9,90.6L49.4,90.6L49.4,90.1L48.4,90.1L48.4,89.6L46.4,89.6L46.4,89.1L44.9,89.1L44.9,88.6z" stroke="none"/><path d="M57,19.6L57,19.4L58.9,19.4L58.9,18.9L59.4,18.9L59.4,17.9L59.9,17.9L59.9,16.9L69.9,16.9L69.9,16.4L70.9,16.4L70.9,14.9L71.4,14.9L71.4,12.9L74.4,12.9L74.4,12.4L74.9,12.4L74.9,11.9L75.4,11.9L75.4,11.4L75.9,11.4L75.9,10.4L76.4,10.4L76.4,1.6L41.1,1.6L41.1,2.1L40.6,2.1L40.6,3.1L40.1,3.1L40.1,3.6L39.6,3.6L39.6,4.6L39.1,4.6L39.1,5.1L38.1,5.1L38.1,5.6L36.6,5.6L36.6,6.1L35.6,6.1L35.6,6.6L35.1,6.6L35.1,7.1L34.1,7.1L34.1,7.6L32.6,7.6L32.6,8.1L32.1,8.1L32.1,8.6L31.6,8.6L31.6,10.1L31.1,10.1L31.1,10.6L30.6,10.6L30.6,11.1L29.6,11.1L29.6,11.6L29.1,11.6L29.1,29.4L30.1,29.4L30.1,29.9L31.6,29.9L31.6,30.9L32.6,30.9L32.6,31.4L33.1,31.4L33.1,31.9L33.6,31.9L33.6,35.9L34.1,35.9L34.1,48.6L33.6,48.6L33.6,49.1L32.4,49.1L32.4,48.6L31.9,48.6L31.9,42.1L31.5,42.1L31.5,41.9L32.1,41.9L32.1,48.4L32.6,48.4L32.6,48.9L33.4,48.9L33.4,48.4L33.9,48.4L33.9,36.1L33.4,36.1L33.4,32.1L32.9,32.1L32.9,31.6L32.4,31.6L32.4,31.1L31.4,31.1L31.4,30.1L29.9,30.1L29.9,29.6L28.9,29.6L28.9,11.4L29.4,11.4L29.4,10.9L30.4,10.9L30.4,10.4L30.9,10.4L30.9,9.9L31.4,9.9L31.4,8.4L31.9,8.4L31.9,7.9L32.4,7.9L32.4,7.4L33.9,7.4L33.9,6.9L34.9,6.9L34.9,6.4L35.4,6.4L35.4,5.9L36.4,5.9L36.4,5.4L37.9,5.4L37.9,4.9L38.9,4.9L38.9,4.4L39.4,4.4L39.4,3.4L39.9,3.4L39.9,2.9L40.4,2.9L40.4,1.9L40.9,1.9L40.9,1.4L76.6,1.4L76.6,10.6L76.1,10.6L76.1,11.6L75.6,11.6L75.6,12.1L75.1,12.1L75.1,12.6L74.6,12.6L74.6,13.1L71.6,13.1L71.6,15.1L71.1,15.1L71.1,16.6L70.1,16.6L70.1,17.1L60.1,17.1L60.1,18.1L59.6,18.1L59.6,19.1L59.1,19.1L59.1,19.6z" stroke="none"/><path d="M31.4,49.5L31.6,49.5L31.6,52.1L31.1,52.1L31.1,53.6L30.6,53.6L30.6,61.1L27.4,61.1L27.4,60.6L26.9,60.6L26.9,59.6L25.4,59.6L25.4,59.1L23.4,59.1L23.4,58.1L21.9,58.1L21.9,57.1L21.4,57.1L21.4,56.6L20.9,56.6L20.9,55.6L20.4,55.6L20.4,55.1L19.4,55.1L19.4,53.6L18.4,53.6L18.4,53.1L17.9,53.1L17.9,51.6L14.9,51.6L14.9,51.1L14.4,51.1L14.4,49.6L12.4,49.6L12.4,49.1L11.9,49.1L11.9,48.6L10.9,48.6L10.9,48.1L10.4,48.1L10.4,47.6L9.9,47.6L9.9,46.6L9.4,46.6L9.4,46.1L8.4,46.1L8.4,45.6L7.9,45.6L7.9,43.1L7.4,43.1L7.4,42.1L6.4,42.1L6.4,41.6L5.4,41.6L5.4,40.6L4.9,40.6L4.9,40.1L4.4,40.1L4.4,39.6L3.4,39.6L3.4,39.1L2.9,39.1L2.9,38.1L2.4,38.1L2.4,36.6L1.9,36.6L1.9,35.6L1.4,35.6L1.4,9.9L2.4,9.9L2.4,9.4L3.6,9.4L3.6,9.9L4.1,9.9L4.1,12.9L4.6,12.9L4.6,13.9L5.6,13.9L5.6,15.9L6.1,15.9L6.1,16.4L6.6,16.4L6.6,16.9L7.1,16.9L7.1,18.4L9.6,18.4L9.6,19.4L10.6,19.4L10.6,19.9L11.6,19.9L11.6,20.9L12,20.9L12,21.1L11.4,21.1L11.4,20.1L10.4,20.1L10.4,19.6L9.4,19.6L9.4,18.6L6.9,18.6L6.9,17.1L6.4,17.1L6.4,16.6L5.9,16.6L5.9,16.1L5.4,16.1L5.4,14.1L4.4,14.1L4.4,13.1L3.9,13.1L3.9,10.1L3.4,10.1L3.4,9.6L2.6,9.6L2.6,10.1L1.6,10.1L1.6,35.4L2.1,35.4L2.1,36.4L2.6,36.4L2.6,37.9L3.1,37.9L3.1,38.9L3.6,38.9L3.6,39.4L4.6,39.4L4.6,39.9L5.1,39.9L5.1,40.4L5.6,40.4L5.6,41.4L6.6,41.4L6.6,41.9L7.6,41.9L7.6,42.9L8.1,42.9L8.1,45.4L8.6,45.4L8.6,45.9L9.6,45.9L9.6,46.4L10.1,46.4L10.1,47.4L10.6,47.4L10.6,47.9L11.1,47.9L11.1,48.4L12.1,48.4L12.1,48.9L12.6,48.9L12.6,49.4L14.6,49.4L14.6,50.9L15.1,50.9L15.1,51.4L18.1,51.4L18.1,52.9L18.6,52.9L18.6,53.4L19.6,53.4L19.6,54.9L20.6,54.9L20.6,55.4L21.1,55.4L21.1,56.4L21.6,56.4L21.6,56.9L22.1,56.9L22.1,57.9L23.6,57.9L23.6,58.9L25.6,58.9L25.6,59.4L27.1,59.4L27.1,60.4L27.6,60.4L27.6,60.9L30.4,60.9L30.4,53.4L30.9,53.4L30.9,51.9L31.4,51.9z" stroke="none"/><path d="M71.9,79.5L72.1,79.5L72.1,82.6L71.6,82.6L71.6,83.1L70.1,83.1L70.1,83.6L68.6,83.6L68.6,84.6L68.1,84.6L68.1,89.1L67.6,89.1L67.6,92.6L67.1,92.6L67.1,94.1L63.6,94.1L63.6,94.6L40.4,94.6L40.4,94.1L39.4,94.1L39.4,93.1L38.4,93.1L38.4,92.6L37.9,92.6L37.9,92.1L37.1,92.1L37.1,92.6L36.6,92.6L36.6,95.1L35.1,95.1L35.1,96.4L35.6,96.4L35.6,96.9L36.6,96.9L36.6,97.4L48.6,97.4L48.6,99.9L49.1,99.9L49.1,101.1L48.6,101.1L48.6,101.6L45.6,101.6L45.6,102.1L45,102.1L45,101.9L45.4,101.9L45.4,101.4L48.4,101.4L48.4,100.9L48.9,100.9L48.9,100.1L48.4,100.1L48.4,97.6L36.4,97.6L36.4,97.1L35.4,97.1L35.4,96.6L34.9,96.6L34.9,94.9L36.4,94.9L36.4,92.4L36.9,92.4L36.9,91.9L38.1,91.9L38.1,92.4L38.6,92.4L38.6,92.9L39.6,92.9L39.6,93.9L40.6,93.9L40.6,94.4L63.4,94.4L63.4,93.9L66.9,93.9L66.9,92.4L67.4,92.4L67.4,88.9L67.9,88.9L67.9,84.4L68.4,84.4L68.4,83.4L69.9,83.4L69.9,82.9L71.4,82.9L71.4,82.4L71.9,82.4z" stroke="none"/><path d="M3,30.1L3,29.9L6.4,29.9L6.4,29.4L6.9,29.4L6.9,28.9L7.9,28.9L7.9,27.9L9.4,27.9L9.4,24.9L10.9,24.9L10.9,24.4L11.4,24.4L11.4,23.9L11.9,23.9L11.9,22.9L12.4,22.9L12.4,21.4L12.9,21.4L12.9,20.1L11.9,20.1L11.9,18.6L11.4,18.6L11.4,14.1L8.4,14.1L8.4,13.6L7.9,13.6L7.9,12.6L7.4,12.6L7.4,12.1L6.9,12.1L6.9,11.6L6.4,11.6L6.4,11.1L5.9,11.1L5.9,9.6L4.9,9.6L4.9,9.1L2.1,9.1L2.1,9.6L1.1,9.6L1.1,37.4L1.6,37.4L1.6,37.9L2.1,37.9L2.1,38.4L2.6,38.4L2.6,39.4L3.1,39.4L3.1,39.9L3.6,39.9L3.6,40.9L4.1,40.9L4.1,41.4L4.6,41.4L4.6,43.4L7.1,43.4L7.1,46.4L8.6,46.4L8.6,46.9L9.1,46.9L9.1,47.4L9.6,47.4L9.6,48.4L10.1,48.4L10.1,48.9L10.6,48.9L10.6,49.4L11.6,49.4L11.6,49.9L12.1,49.9L12.1,50.4L12.6,50.4L12.6,50.9L14.1,50.9L14.1,51.4L14.6,51.4L14.6,51.9L15.6,51.9L15.6,52.9L16.1,52.9L16.1,53.4L18.1,53.4L18.1,53.9L18.6,53.9L18.6,55.4L19.1,55.4L19.1,55.9L19.6,55.9L19.6,56.4L20.1,56.4L20.1,57.4L20.6,57.4L20.6,58.4L23.1,58.4L23.1,59.9L24.1,59.9L24.1,60.4L26.1,60.4L26.1,61.4L30.9,61.4L30.9,54.4L31.4,54.4L31.4,54L31.6,54L31.6,54.6L31.1,54.6L31.1,61.6L25.9,61.6L25.9,60.6L23.9,60.6L23.9,60.1L22.9,60.1L22.9,58.6L20.4,58.6L20.4,57.6L19.9,57.6L19.9,56.6L19.4,56.6L19.4,56.1L18.9,56.1L18.9,55.6L18.4,55.6L18.4,54.1L17.9,54.1L17.9,53.6L15.9,53.6L15.9,53.1L15.4,53.1L15.4,52.1L14.4,52.1L14.4,51.6L13.9,51.6L13.9,51.1L12.4,51.1L12.4,50.6L11.9,50.6L11.9,50.1L11.4,50.1L11.4,49.6L10.4,49.6L10.4,49.1L9.9,49.1L9.9,48.6L9.4,48.6L9.4,47.6L8.9,47.6L8.9,47.1L8.4,47.1L8.4,46.6L6.9,46.6L6.9,43.6L4.4,43.6L4.4,41.6L3.9,41.6L3.9,41.1L3.4,41.1L3.4,40.1L2.9,40.1L2.9,39.6L2.4,39.6L2.4,38.6L1.9,38.6L1.9,38.1L1.4,38.1L1.4,37.6L0.9,37.6L0.9,9.4L1.9,9.4L1.9,8.9L5.1,8.9L5.1,9.4L6.1,9.4L6.1,10.9L6.6,10.9L6.6,11.4L7.1,11.4L7.1,11.9L7.6,11.9L7.6,12.4L8.1,12.4L8.1,13.4L8.6,13.4L8.6,13.9L11.6,13.9L11.6,18.4L12.1,18.4L12.1,19.9L13.1,19.9L13.1,21.6L12.6,21.6L12.6,23.1L12.1,23.1L12.1,24.1L11.6,24.1L11.6,24.6L11.1,24.6L11.1,25.1L9.6,25.1L9.6,28.1L8.1,28.1L8.1,29.1L7.1,29.1L7.1,29.6L6.6,29.6L6.6,30.1z" stroke="none"/><path d="M40.4,67.5L40.6,67.5L40.6,69.6L40.1,69.6L40.1,70.1L36.6,70.1L36.6,70.6L35.1,70.6L35.1,71.1L34.6,71.1L34.6,71.6L34.1,71.6L34.1,74.6L33.6,74.6L33.6,80.1L33.1,80.1L33.1,83.1L32.6,83.1L32.6,84.1L31.6,84.1L31.6,96.9L32.1,96.9L32.1,98.4L32.6,98.4L32.6,99.6L32.1,99.6L32.1,100.1L18.6,100.1L18.6,102.1L18.1,102.1L18.1,102.6L17.1,102.6L17.1,103.1L2.4,103.1L2.4,102.6L1.9,102.6L1.9,101.4L2.4,101.4L2.4,100.9L6.9,100.9L6.9,100.4L7.4,100.4L7.4,99.9L7.9,99.9L7.9,96.4L8.4,96.4L8.4,95.9L8.9,95.9L8.9,93.4L9.4,93.4L9.4,92.9L9.9,92.9L9.9,91.9L10.4,91.9L10.4,91.5L10.6,91.5L10.6,92.1L10.1,92.1L10.1,93.1L9.6,93.1L9.6,93.6L9.1,93.6L9.1,96.1L8.6,96.1L8.6,96.6L8.1,96.6L8.1,100.1L7.6,100.1L7.6,100.6L7.1,100.6L7.1,101.1L2.6,101.1L2.6,101.6L2.1,101.6L2.1,102.4L2.6,102.4L2.6,102.9L16.9,102.9L16.9,102.4L17.9,102.4L17.9,101.9L18.4,101.9L18.4,99.9L31.9,99.9L31.9,99.4L32.4,99.4L32.4,98.6L31.9,98.6L31.9,97.1L31.4,97.1L31.4,83.9L32.4,83.9L32.4,82.9L32.9,82.9L32.9,79.9L33.4,79.9L33.4,74.4L33.9,74.4L33.9,71.4L34.4,71.4L34.4,70.9L34.9,70.9L34.9,70.4L36.4,70.4L36.4,69.9L39.9,69.9L39.9,69.4L40.4,69.4z" stroke="none"/></svg>