<svg version="1.1" width="105" height="105" xmlns="http://www.w3.org/2000/svg"><path d="M98.9,85.9L98.9,82.9L99.9,82.9L99.9,82.4L100.5,82.4L100.5,82.6L100.1,82.6L100.1,83.1L99.1,83.1L99.1,86.4L99.6,86.4L99.6,87.4L100.1,87.4L100.1,87.9L100.6,87.9L100.6,88.4L101.1,88.4L101.1,88.9L102.1,88.9L102.1,90L101.9,90L101.9,89.1L100.9,89.1L100.9,88.6L100.4,88.6L100.4,88.1L99.9,88.1L99.9,87.6L99.4,87.6L99.4,86.6L98.9,86.6L98.9,86.1L98.6,86.1L98.6,89.9L99.6,89.9L99.6,90.4L100.1,90.4L100.1,91.4L100.5,91.4L100.5,91.6L99.9,91.6L99.9,90.6L99.4,90.6L99.4,90.1L98.4,90.1L98.4,85.9z" stroke="none"/><path d="M16.4,88.6L15.4,88.6L15.4,88.1L14.9,88.1L14.9,85.5L15.1,85.5L15.1,87.9L15.6,87.9L15.6,88.4L16.6,88.4L16.6,89.4L29.6,89.4L29.6,89.9L30.1,89.9L30.1,91.5L29.9,91.5L29.9,90.1L29.4,90.1L29.4,89.6L16.6,89.6L16.6,95.1L15.1,95.1L15.1,95.6L13.6,95.6L13.6,97.1L11.1,97.1L11.1,97.6L10.5,97.6L10.5,97.4L10.9,97.4L10.9,96.9L13.4,96.9L13.4,95.4L14.9,95.4L14.9,94.9L16.4,94.9z" stroke="none"/><path d="M61.9,40.9L61.9,39.9L62.9,39.9L62.9,39.4L64.4,39.4L64.4,39L64.6,39L64.6,39.6L63.1,39.6L63.1,40.1L62.1,40.1L62.1,41.1L60.6,41.1L60.6,41.4L64.6,41.4L64.6,41.9L65.1,41.9L65.1,42.4L66.6,42.4L66.6,44.4L67.6,44.4L67.6,44.9L68.1,44.9L68.1,45.4L68.6,45.4L68.6,45.9L69.6,45.9L69.6,46.4L70.1,46.4L70.1,47.4L71.6,47.4L71.6,49.4L72.1,49.4L72.1,49.9L73.1,49.9L73.1,50.9L73.6,50.9L73.6,52.4L75,52.4L75,52.6L73.4,52.6L73.4,51.1L72.9,51.1L72.9,50.1L71.9,50.1L71.9,49.6L71.4,49.6L71.4,47.6L69.9,47.6L69.9,46.6L69.4,46.6L69.4,46.1L68.4,46.1L68.4,45.6L67.9,45.6L67.9,45.1L67.4,45.1L67.4,44.6L66.4,44.6L66.4,42.6L64.9,42.6L64.9,42.1L64.4,42.1L64.4,41.6L60.4,41.6L60.4,41.1L57.4,41.1L57.4,40.6L56.9,40.6L56.9,39.6L56.4,39.6L56.4,39.1L55.9,39.1L55.9,38.1L52.9,38.1L52.9,36.6L48.6,36.6L48.6,37.1L48.1,37.1L48.1,37.5L47.9,37.5L47.9,36.9L48.4,36.9L48.4,36.4L53.1,36.4L53.1,37.9L56.1,37.9L56.1,38.9L56.6,38.9L56.6,39.4L57.1,39.4L57.1,40.4L57.6,40.4L57.6,40.9z" stroke="none"/><path d="M64.4,83.9L64.4,81.4L64.9,81.4L64.9,79.9L67.4,79.9L67.4,79.5L67.6,79.5L67.6,80.1L65.1,80.1L65.1,81.6L64.6,81.6L64.6,83.9L66.1,83.9L66.1,84.4L66.6,84.4L66.6,84.9L69.1,84.9L69.1,86.4L69.6,86.4L69.6,86.9L70.6,86.9L70.6,87.9L71.1,87.9L71.1,88.9L71.6,88.9L71.6,89.4L76.1,89.4L76.1,89.9L76.6,89.9L76.6,91.5L76.4,91.5L76.4,90.1L75.9,90.1L75.9,89.6L71.4,89.6L71.4,89.1L70.9,89.1L70.9,88.1L70.4,88.1L70.4,87.1L69.4,87.1L69.4,86.6L68.9,86.6L68.9,85.1L66.4,85.1L66.4,84.6L65.9,84.6L65.9,84.1L58.1,84.1L58.1,85.1L56.6,85.1L56.6,86.6L55.6,86.6L55.6,87L55.4,87L55.4,86.4L56.4,86.4L56.4,84.9L57.9,84.9L57.9,83.9z" stroke="none"/><path d="M65.9,76.4L65.9,75.9L66.9,75.9L66.9,75.4L67.4,75.4L67.4,74.9L67.9,74.9L67.9,73.9L68.4,73.9L68.4,73.4L69.9,73.4L69.9,72.4L71.9,72.4L71.9,67.9L73.4,67.9L73.4,67.5L73.6,67.5L73.6,68.1L72.1,68.1L72.1,72.6L70.1,72.6L70.1,73.6L68.6,73.6L68.6,74.1L68.1,74.1L68.1,75.1L67.6,75.1L67.6,75.6L67.1,75.6L67.1,76.1L66.1,76.1L66.1,76.4L72,76.4L72,76.6L65.1,76.6L65.1,77.1L64.1,77.1L64.1,77.6L58.1,77.6L58.1,83.6L57.6,83.6L57.6,84.6L55.6,84.6L55.6,85.6L54.6,85.6L54.6,89.4L55.6,89.4L55.6,89.9L56.1,89.9L56.1,90.4L56.6,90.4L56.6,90.9L58.1,90.9L58.1,91.4L58.5,91.4L58.5,91.6L57.9,91.6L57.9,91.1L56.4,91.1L56.4,90.6L55.9,90.6L55.9,90.1L55.4,90.1L55.4,89.6L54.4,89.6L54.4,85.4L55.4,85.4L55.4,84.4L57.4,84.4L57.4,83.4L57.9,83.4L57.9,77.4L63.9,77.4L63.9,76.9L64.9,76.9L64.9,76.4z" stroke="none"/><path d="M79.1,93.9L79.1,94.9L79.6,94.9L79.6,96L79.4,96L79.4,95.1L78.9,95.1L78.9,94.1L58.6,94.1L58.6,94.6L58.1,94.6L58.1,95.1L57.1,95.1L57.1,96.6L55.6,96.6L55.6,98.6L54.6,98.6L54.6,99.1L54.1,99.1L54.1,99.6L53.1,99.6L53.1,100.1L52.1,100.1L52.1,100.6L49.6,100.6L49.6,102L49.4,102L49.4,100.4L51.9,100.4L51.9,99.9L52.9,99.9L52.9,99.4L53.9,99.4L53.9,98.9L54.4,98.9L54.4,98.4L55.4,98.4L55.4,96.4L56.9,96.4L56.9,94.9L57.9,94.9L57.9,94.4L58.4,94.4L58.4,94.1L53.9,94.1L53.9,93.1L53.4,93.1L53.4,91.6L52.9,91.6L52.9,90.6L52.4,90.6L52.4,90L52.6,90L52.6,90.4L53.1,90.4L53.1,91.4L53.6,91.4L53.6,92.9L54.1,92.9L54.1,93.9z" stroke="none"/><path d="M7.9,77.1L7.4,77.1L7.4,76.5L7.6,76.5L7.6,76.9L8.1,76.9L8.1,83.9L14.4,83.9L14.4,83.4L14.9,83.4L14.9,81.9L15.4,81.9L15.4,80.9L15.9,80.9L15.9,79.9L17.9,79.9L17.9,79.5L18.1,79.5L18.1,80.1L16.1,80.1L16.1,81.1L15.6,81.1L15.6,82.1L15.1,82.1L15.1,83.6L14.6,83.6L14.6,84.1L8.1,84.1L8.1,99.6L7.6,99.6L7.6,101.1L6.6,101.1L6.6,101.6L5.1,101.6L5.1,102.1L4.5,102.1L4.5,101.9L4.9,101.9L4.9,101.4L6.4,101.4L6.4,100.9L7.4,100.9L7.4,99.4L7.9,99.4z" stroke="none"/><path d="M52.6,36.9L52.6,39.9L53.1,39.9L53.1,40.9L54.1,40.9L54.1,41.9L54.6,41.9L54.6,42.4L56.6,42.4L56.6,42.9L57.1,42.9L57.1,44.9L57.6,44.9L57.6,45.4L58.1,45.4L58.1,45.9L58.6,45.9L58.6,46.9L59.1,46.9L59.1,47.4L59.6,47.4L59.6,48.9L61.6,48.9L61.6,49.5L61.4,49.5L61.4,49.1L59.4,49.1L59.4,47.6L58.9,47.6L58.9,47.1L58.4,47.1L58.4,46.1L57.9,46.1L57.9,45.6L57.4,45.6L57.4,45.1L56.9,45.1L56.9,43.1L56.4,43.1L56.4,42.6L54.4,42.6L54.4,42.1L53.9,42.1L53.9,41.1L52.9,41.1L52.9,40.1L52.4,40.1L52.4,37.1L52.1,37.1L52.1,39.6L50.6,39.6L50.6,40.1L50.1,40.1L50.1,41.1L49.1,41.1L49.1,41.6L48.6,41.6L48.6,42.1L48.1,42.1L48.1,43.5L47.9,43.5L47.9,41.9L48.4,41.9L48.4,41.4L48.9,41.4L48.9,40.9L49.9,40.9L49.9,39.9L50.4,39.9L50.4,39.4L51.9,39.4L51.9,37.1L49.1,37.1L49.1,38.1L48.6,38.1L48.6,38.6L46.9,38.6L46.9,28.9L47.4,28.9L47.4,28.4L48.4,28.4L48.4,26.9L49.4,26.9L49.4,25.9L49.9,25.9L49.9,23.9L52.5,23.9L52.5,24.1L50.1,24.1L50.1,26.1L49.6,26.1L49.6,27.1L48.6,27.1L48.6,28.6L47.6,28.6L47.6,29.1L47.1,29.1L47.1,38.4L48.4,38.4L48.4,37.9L48.9,37.9L48.9,36.9z" stroke="none"/><path d="M47.4,53.1L46.9,53.1L46.9,52.1L45.9,52.1L45.9,51.6L45.4,51.6L45.4,51.1L44.9,51.1L44.9,50.6L43.4,50.6L43.4,50.1L42.9,50.1L42.9,49.1L42.4,49.1L42.4,48.1L40.9,48.1L40.9,47.1L40.4,47.1L40.4,46.5L40.6,46.5L40.6,46.9L41.1,46.9L41.1,47.9L42.6,47.9L42.6,48.9L43.1,48.9L43.1,49.9L43.6,49.9L43.6,50.4L45.1,50.4L45.1,50.9L45.6,50.9L45.6,51.4L46.1,51.4L46.1,51.9L47.1,51.9L47.1,52.9L47.6,52.9L47.6,57.9L59.1,57.9L59.1,58.4L61.6,58.4L61.6,59.4L62.1,59.4L62.1,60.9L63.1,60.9L63.1,61.4L64.1,61.4L64.1,61.9L64.6,61.9L64.6,62.9L66,62.9L66,63.1L64.4,63.1L64.4,62.1L63.9,62.1L63.9,61.6L62.9,61.6L62.9,61.1L61.9,61.1L61.9,59.6L61.4,59.6L61.4,58.6L58.9,58.6L58.9,58.1L47.6,58.1L47.6,65.6L47.1,65.6L47.1,66.6L46.6,66.6L46.6,68.6L44.6,68.6L44.6,70.1L43.1,70.1L43.1,70.6L42,70.6L42,70.4L42.9,70.4L42.9,69.9L44.4,69.9L44.4,68.4L46.4,68.4L46.4,66.4L46.9,66.4L46.9,65.4L47.4,65.4z" stroke="none"/><path d="M94.9,29.4L94.9,27.9L95.4,27.9L95.4,27.4L95.9,27.4L95.9,25.4L97.9,25.4L97.9,24.9L98.9,24.9L98.9,23.9L100.5,23.9L100.5,24.1L99.1,24.1L99.1,25.1L98.1,25.1L98.1,25.6L96.1,25.6L96.1,27.6L95.6,27.6L95.6,28.1L95.1,28.1L95.1,29.6L87.6,29.6L87.6,30.4L88.1,30.4L88.1,30.9L89.1,30.9L89.1,31.4L91.1,31.4L91.1,31.9L91.6,31.9L91.6,32.9L92.1,32.9L92.1,33.4L92.6,33.4L92.6,33.9L94.1,33.9L94.1,34.4L94.6,34.4L94.6,35.4L96.1,35.4L96.1,36.9L96.6,36.9L96.6,38.9L97.5,38.9L97.5,39.1L96.4,39.1L96.4,37.1L95.9,37.1L95.9,35.6L94.4,35.6L94.4,34.6L93.9,34.6L93.9,34.1L92.4,34.1L92.4,33.6L91.9,33.6L91.9,33.1L91.4,33.1L91.4,32.1L90.9,32.1L90.9,31.6L88.9,31.6L88.9,31.1L87.9,31.1L87.9,30.6L87.4,30.6L87.4,29.6L80.1,29.6L80.1,30.1L77.1,30.1L77.1,30.6L74.1,30.6L74.1,31.1L71.6,31.1L71.6,31.6L70.5,31.6L70.5,31.4L71.4,31.4L71.4,30.9L73.9,30.9L73.9,30.4L76.9,30.4L76.9,29.9L79.9,29.9L79.9,29.4z" stroke="none"/><path d="M21.9,87.9L21.9,86.9L22.4,86.9L22.4,86.4L28.1,86.4L28.1,86.9L28.5,86.9L28.5,87.1L27.9,87.1L27.9,86.6L22.6,86.6L22.6,87.1L22.1,87.1L22.1,87.9L22.9,87.9L22.9,86.9L24,86.9L24,87.1L23.1,87.1L23.1,88.1L22.1,88.1L22.1,88.4L30.6,88.4L30.6,89.9L31.1,89.9L31.1,92.1L30.6,92.1L30.6,92.6L26.4,92.6L26.4,92.1L18.6,92.1L18.6,93.1L18,93.1L18,92.9L18.4,92.9L18.4,91.9L26.6,91.9L26.6,92.4L30.4,92.4L30.4,91.9L30.9,91.9L30.9,90.1L30.4,90.1L30.4,88.6L21.9,88.6L21.9,88.1L21.4,88.1L21.4,85.9L30.1,85.9L30.1,86.4L30.6,86.4L30.6,86.9L31.1,86.9L31.1,89.4L31.6,89.4L31.6,92.6L31.1,92.6L31.1,93.1L28.6,93.1L28.6,93.6L26.1,93.6L26.1,94.6L25.5,94.6L25.5,94.4L25.9,94.4L25.9,93.4L28.4,93.4L28.4,92.9L30.9,92.9L30.9,92.4L31.4,92.4L31.4,89.6L30.9,89.6L30.9,87.1L30.4,87.1L30.4,86.6L29.9,86.6L29.9,86.1L21.6,86.1L21.6,87.9z" stroke="none"/><path d="M57.4,15.4L57.4,8.1L56.9,8.1L56.9,7.6L56.4,7.6L56.4,5.6L55.4,5.6L55.4,5.1L53.4,5.1L53.4,3.6L52.4,3.6L52.4,3.1L51,3.1L51,2.9L52.6,2.9L52.6,3.4L53.6,3.4L53.6,4.9L55.6,4.9L55.6,5.4L56.6,5.4L56.6,7.4L57.1,7.4L57.1,7.9L57.6,7.9L57.6,15.4L58.6,15.4L58.6,16.4L62.1,16.4L62.1,16.9L62.6,16.9L62.6,17.4L73.4,17.4L73.4,16.4L73.9,16.4L73.9,15.9L74.4,15.9L74.4,13.9L74.9,13.9L74.9,11.9L76.9,11.9L76.9,10.9L78.6,10.9L78.6,11.4L79.1,11.4L79.1,23.6L78.1,23.6L78.1,24.1L77.1,24.1L77.1,24.6L76.6,24.6L76.6,25.1L76.1,25.1L76.1,26.1L75.6,26.1L75.6,26.6L75.1,26.6L75.1,27.6L74.6,27.6L74.6,30.1L73.5,30.1L73.5,29.9L74.4,29.9L74.4,27.4L74.9,27.4L74.9,26.4L75.4,26.4L75.4,25.9L75.9,25.9L75.9,24.9L76.4,24.9L76.4,24.4L76.9,24.4L76.9,23.9L77.9,23.9L77.9,23.4L78.9,23.4L78.9,11.6L78.4,11.6L78.4,11.1L77.1,11.1L77.1,12.1L75.1,12.1L75.1,14.1L74.6,14.1L74.6,16.1L74.1,16.1L74.1,16.6L73.6,16.6L73.6,17.6L62.4,17.6L62.4,17.1L61.9,17.1L61.9,16.6L58.4,16.6L58.4,15.6L57.6,15.6L57.6,23.4L58.6,23.4L58.6,24L58.4,24L58.4,23.6L57.4,23.6L57.4,15.6L55.9,15.6L55.9,15.1L55.4,15.1L55.4,13.5L55.6,13.5L55.6,14.9L56.1,14.9L56.1,15.4z" stroke="none"/><path d="M14.9,7.4L14.9,7.1L8.4,7.1L8.4,6.6L7.4,6.6L7.4,6.1L6,6.1L6,5.9L7.6,5.9L7.6,6.4L8.6,6.4L8.6,6.9L15.1,6.9L15.1,7.4L24,7.4L24,7.6L15.1,7.6L15.1,7.9L22.6,7.9L22.6,9.9L24.6,9.9L24.6,10.4L25.6,10.4L25.6,11.4L26.1,11.4L26.1,12.4L26.6,12.4L26.6,14.4L27.1,14.4L27.1,15L26.9,15L26.9,14.6L26.4,14.6L26.4,12.6L25.9,12.6L25.9,11.6L25.4,11.6L25.4,10.6L24.4,10.6L24.4,10.1L22.4,10.1L22.4,8.1L14.9,8.1L14.9,7.6L14.6,7.6L14.6,9.6L13.6,9.6L13.6,10.6L12,10.6L12,10.4L13.4,10.4L13.4,9.4L14.4,9.4L14.4,7.4z" stroke="none"/><path d="M12.4,18.9L12.4,18.4L14.9,18.4L14.9,17.9L15.9,17.9L15.9,17.4L24.1,17.4L24.1,17.9L24.6,17.9L24.6,18.9L25.1,18.9L25.1,19.4L27,19.4L27,19.6L24.9,19.6L24.9,19.1L24.4,19.1L24.4,18.1L23.9,18.1L23.9,17.6L16.1,17.6L16.1,18.1L15.1,18.1L15.1,18.6L12.6,18.6L12.6,18.9L16.9,18.9L16.9,17.9L18,17.9L18,18.1L17.1,18.1L17.1,19.1L12.6,19.1L12.6,24.1L10.6,24.1L10.6,25.1L9.6,25.1L9.6,25.6L9,25.6L9,25.4L9.4,25.4L9.4,24.9L10.4,24.9L10.4,23.9L12.4,23.9L12.4,19.1L6.6,19.1L6.6,19.6L5.1,19.6L5.1,20.1L4.6,20.1L4.6,21L4.4,21L4.4,19.9L4.9,19.9L4.9,19.4L6.4,19.4L6.4,18.9z" stroke="none"/><path d="M66.9,27.9L66.9,27.6L66.1,27.6L66.1,33.6L64.6,33.6L64.6,34.6L64.1,34.6L64.1,35.6L63.6,35.6L63.6,37.6L63,37.6L63,37.4L63.4,37.4L63.4,35.4L63.9,35.4L63.9,34.4L64.4,34.4L64.4,33.4L65.9,33.4L65.9,27.4L67.1,27.4L67.1,27.9L69.4,27.9L69.4,27.4L70.4,27.4L70.4,24.9L70.9,24.9L70.9,23.9L71.4,23.9L71.4,22.4L72.4,22.4L72.4,21.9L72.9,21.9L72.9,19.9L75.4,19.9L75.4,18.9L76.4,18.9L76.4,17.9L77.4,17.9L77.4,12.9L77.9,12.9L77.9,12L78.1,12L78.1,13.1L77.6,13.1L77.6,18.1L76.6,18.1L76.6,19.1L75.6,19.1L75.6,20.1L73.1,20.1L73.1,22.1L72.6,22.1L72.6,22.6L71.6,22.6L71.6,24.1L71.1,24.1L71.1,25.1L70.6,25.1L70.6,27.6L69.6,27.6L69.6,28.1L67.1,28.1L67.1,31.9L67.6,31.9L67.6,32.4L70.6,32.4L70.6,33L70.4,33L70.4,32.6L67.4,32.6L67.4,32.1L66.9,32.1L66.9,28.1L66.6,28.1L66.6,36.1L64.6,36.1L64.6,37.5L64.4,37.5L64.4,35.9L66.4,35.9L66.4,27.9z" stroke="none"/><path d="M78.9,59.9L78.9,59.6L70.4,59.6L70.4,58.5L70.6,58.5L70.6,59.4L79.1,59.4L79.1,59.9L82.1,59.9L82.1,61.4L85.5,61.4L85.5,61.6L81.9,61.6L81.9,60.1L79.1,60.1L79.1,60.4L80.6,60.4L80.6,61.4L81.1,61.4L81.1,61.9L95.1,61.9L95.1,62.4L95.6,62.4L95.6,62.9L96.1,62.9L96.1,64.5L95.9,64.5L95.9,63.1L95.4,63.1L95.4,62.6L94.9,62.6L94.9,62.1L80.9,62.1L80.9,61.6L80.4,61.6L80.4,60.6L78.9,60.6L78.9,60.1L78.1,60.1L78.1,60.6L76.1,60.6L76.1,61.1L75.6,61.1L75.6,63.1L75.1,63.1L75.1,63.6L74.1,63.6L74.1,64.1L72.1,64.1L72.1,64.5L71.9,64.5L71.9,63.9L73.9,63.9L73.9,63.4L74.9,63.4L74.9,62.9L75.4,62.9L75.4,60.9L75.9,60.9L75.9,60.4L77.9,60.4L77.9,59.9z" stroke="none"/><path d="M62.9,68.4L62.9,67.9L68.4,67.9L68.4,67.4L69.9,67.4L69.9,66.4L71.4,66.4L71.4,65.9L76.9,65.9L76.9,65.4L77.4,65.4L77.4,64.9L95.6,64.9L95.6,65.4L96.9,65.4L96.9,61.1L87.4,61.1L87.4,60.6L82.9,60.6L82.9,59.6L80.9,59.6L80.9,58.5L81.1,58.5L81.1,59.4L83.1,59.4L83.1,60.4L87.6,60.4L87.6,60.9L97.1,60.9L97.1,65.6L95.4,65.6L95.4,65.1L77.6,65.1L77.6,65.6L77.1,65.6L77.1,66.1L71.6,66.1L71.6,66.6L70.1,66.6L70.1,67.6L68.6,67.6L68.6,68.1L63.1,68.1L63.1,68.4L70.4,68.4L70.4,67.9L70.9,67.9L70.9,67.4L71.9,67.4L71.9,66.4L74.1,66.4L74.1,66.9L74.6,66.9L74.6,68.6L74.1,68.6L74.1,76.6L73.6,76.6L73.6,77.1L72.6,77.1L72.6,77.6L70.6,77.6L70.6,78.6L69.6,78.6L69.6,79.6L69.1,79.6L69.1,80.6L67.1,80.6L67.1,81.1L66,81.1L66,80.9L66.9,80.9L66.9,80.4L68.9,80.4L68.9,79.4L69.4,79.4L69.4,78.4L70.4,78.4L70.4,77.4L72.4,77.4L72.4,76.9L73.4,76.9L73.4,76.4L73.9,76.4L73.9,68.4L74.4,68.4L74.4,67.1L73.9,67.1L73.9,66.6L72.1,66.6L72.1,67.6L71.1,67.6L71.1,68.1L70.6,68.1L70.6,68.6L63.1,68.6L63.1,76.5L62.9,76.5L62.9,68.6L50.9,68.6L50.9,66L51.1,66L51.1,68.4z" stroke="none"/><path d="M78.9,53.4L78.9,45.6L77.9,45.6L77.9,44.6L75.9,44.6L75.9,44.1L74.9,44.1L74.9,43.6L72.9,43.6L72.9,43.1L71.4,43.1L71.4,42.1L70.4,42.1L70.4,41.1L69.9,41.1L69.9,40.1L69.4,40.1L69.4,37.6L67.5,37.6L67.5,37.4L69.6,37.4L69.6,39.9L70.1,39.9L70.1,40.9L70.6,40.9L70.6,41.9L71.6,41.9L71.6,42.9L73.1,42.9L73.1,43.4L75.1,43.4L75.1,43.9L76.1,43.9L76.1,44.4L78.1,44.4L78.1,45.4L79.1,45.4L79.1,53.4L87.1,53.4L87.1,54L86.9,54L86.9,53.6L79.1,53.6L79.1,53.9L82.6,53.9L82.6,54.9L83.6,54.9L83.6,55.4L84.6,55.4L84.6,56.4L95.6,56.4L95.6,56.9L96.1,56.9L96.1,58.4L97.1,58.4L97.1,59.9L97.6,59.9L97.6,66.1L95.1,66.1L95.1,67.6L94.5,67.6L94.5,67.4L94.9,67.4L94.9,65.9L97.4,65.9L97.4,60.1L96.9,60.1L96.9,58.6L95.9,58.6L95.9,57.1L95.4,57.1L95.4,56.6L84.4,56.6L84.4,55.6L83.4,55.6L83.4,55.1L82.4,55.1L82.4,54.1L78.9,54.1L78.9,53.6L76.6,53.6L76.6,54.1L76.1,54.1L76.1,54.6L74.6,54.6L74.6,55.1L73.1,55.1L73.1,55.6L72.6,55.6L72.6,56.1L72.1,56.1L72.1,56.6L71.6,56.6L71.6,57.1L70.6,57.1L70.6,57.6L69.6,57.6L69.6,61.4L70.1,61.4L70.1,62.9L70.6,62.9L70.6,63.9L71.1,63.9L71.1,64.9L71.6,64.9L71.6,65.4L74.4,65.4L74.4,64.4L75,64.4L75,64.6L74.6,64.6L74.6,65.6L71.4,65.6L71.4,65.1L70.9,65.1L70.9,64.1L70.4,64.1L70.4,63.1L69.9,63.1L69.9,61.6L69.4,61.6L69.4,57.4L70.4,57.4L70.4,56.9L71.4,56.9L71.4,56.4L71.9,56.4L71.9,55.9L72.4,55.9L72.4,55.4L72.9,55.4L72.9,54.9L74.4,54.9L74.4,54.4L75.9,54.4L75.9,53.9L76.4,53.9L76.4,53.4z" stroke="none"/><path d="M59.9,12.4L59.9,6.1L59.4,6.1L59.4,4.1L58.4,4.1L58.4,3L58.6,3L58.6,3.9L59.6,3.9L59.6,5.9L60.1,5.9L60.1,12.4L61.1,12.4L61.1,12.9L61.6,12.9L61.6,13.4L62.6,13.4L62.6,13.9L63.1,13.9L63.1,15.4L68.6,15.4L68.6,15.9L69.1,15.9L69.1,16.4L70.5,16.4L70.5,16.6L68.9,16.6L68.9,16.1L68.4,16.1L68.4,15.6L62.9,15.6L62.9,14.1L62.4,14.1L62.4,13.6L61.4,13.6L61.4,13.1L60.9,13.1L60.9,12.6L60.1,12.6L60.1,12.9L60.6,12.9L60.6,13.4L61.1,13.4L61.1,13.9L61.6,13.9L61.6,14.4L62.6,14.4L62.6,15.9L64.6,15.9L64.6,16.4L66.1,16.4L66.1,16.9L70.9,16.9L70.9,8.4L71.4,8.4L71.4,7.4L71.9,7.4L71.9,6L72.1,6L72.1,7.6L71.6,7.6L71.6,8.6L71.1,8.6L71.1,17.1L65.9,17.1L65.9,16.6L64.4,16.6L64.4,16.1L62.4,16.1L62.4,14.6L61.4,14.6L61.4,14.1L60.9,14.1L60.9,13.6L60.4,13.6L60.4,13.1L59.9,13.1L59.9,12.6L59.4,12.6L59.4,9.1L58.9,9.1L58.9,5.6L58.4,5.6L58.4,5.1L55.9,5.1L55.9,4.1L53.9,4.1L53.9,3.1L53.4,3.1L53.4,2.6L51.4,2.6L51.4,2.1L50.6,2.1L50.6,2.6L50.1,2.6L50.1,19.9L50.6,19.9L50.6,20.4L51.6,20.4L51.6,21.4L52.6,21.4L52.6,22.4L53.6,22.4L53.6,31.6L53.1,31.6L53.1,32.1L51.1,32.1L51.1,32.6L48.6,32.6L48.6,33.1L48,33.1L48,32.9L48.4,32.9L48.4,32.4L50.9,32.4L50.9,31.9L52.9,31.9L52.9,31.4L53.4,31.4L53.4,22.6L52.4,22.6L52.4,21.6L51.4,21.6L51.4,20.6L50.4,20.6L50.4,20.1L49.9,20.1L49.9,2.4L50.4,2.4L50.4,1.9L51.6,1.9L51.6,2.4L53.6,2.4L53.6,2.9L54.1,2.9L54.1,3.9L56.1,3.9L56.1,4.9L58.6,4.9L58.6,5.4L59.1,5.4L59.1,8.9L59.6,8.9L59.6,12.4z" stroke="none"/><path d="M88.4,35.9L88.4,35.6L76.1,35.6L76.1,36.1L75.6,36.1L75.6,36.6L74.6,36.6L74.6,39.4L75.6,39.4L75.6,40.9L76.1,40.9L76.1,41.4L77.1,41.4L77.1,41.9L77.6,41.9L77.6,42.4L78.1,42.4L78.1,43.4L78.6,43.4L78.6,44.4L79.1,44.4L79.1,44.9L79.6,44.9L79.6,47.9L80.6,47.9L80.6,49.4L82.6,49.4L82.6,49.9L83.1,49.9L83.1,50.9L84.1,50.9L84.1,51.9L86.6,51.9L86.6,52.4L87.6,52.4L87.6,52.9L88.1,52.9L88.1,55.1L85.6,55.1L85.6,55.5L85.4,55.5L85.4,54.9L87.9,54.9L87.9,53.1L87.4,53.1L87.4,52.6L86.4,52.6L86.4,52.1L83.9,52.1L83.9,51.1L82.9,51.1L82.9,50.1L82.4,50.1L82.4,49.6L80.4,49.6L80.4,48.1L79.4,48.1L79.4,45.1L78.9,45.1L78.9,44.6L78.4,44.6L78.4,43.6L77.9,43.6L77.9,42.6L77.4,42.6L77.4,42.1L76.9,42.1L76.9,41.6L75.9,41.6L75.9,41.1L75.4,41.1L75.4,39.6L74.4,39.6L74.4,36.4L75.4,36.4L75.4,35.9L75.9,35.9L75.9,35.4L88.6,35.4L88.6,35.9L90.1,35.9L90.1,37.4L90.6,37.4L90.6,37.9L91.6,37.9L91.6,38.4L92.1,38.4L92.1,38.9L94.6,38.9L94.6,39.4L96.6,39.4L96.6,39.9L98.4,39.9L98.4,31.4L99.9,31.4L99.9,30.9L100.4,30.9L100.4,30L100.6,30L100.6,31.1L100.1,31.1L100.1,31.6L98.6,31.6L98.6,40.1L96.4,40.1L96.4,39.6L94.4,39.6L94.4,39.1L91.9,39.1L91.9,38.6L91.4,38.6L91.4,38.1L90.4,38.1L90.4,37.6L89.9,37.6L89.9,36.1L88.6,36.1L88.6,38.4L90.6,38.4L90.6,38.9L91.6,38.9L91.6,39.4L92.6,39.4L92.6,39.9L96.1,39.9L96.1,40.4L98.9,40.4L98.9,34.4L99.4,34.4L99.4,33.9L100.4,33.9L100.4,31.4L100.9,31.4L100.9,29.4L101.4,29.4L101.4,28.9L101.9,28.9L101.9,28.5L102.1,28.5L102.1,29.1L101.6,29.1L101.6,29.6L101.1,29.6L101.1,31.6L100.6,31.6L100.6,34.1L99.6,34.1L99.6,34.6L99.1,34.6L99.1,40.6L95.9,40.6L95.9,40.1L92.4,40.1L92.4,39.6L91.4,39.6L91.4,39.1L90.4,39.1L90.4,38.6L88.4,38.6L88.4,36.1L81.6,36.1L81.6,36.6L78.1,36.6L78.1,37.1L76.1,37.1L76.1,37.6L75,37.6L75,37.4L75.9,37.4L75.9,36.9L77.9,36.9L77.9,36.4L81.4,36.4L81.4,35.9z" stroke="none"/><path d="M37.5,69.1L37.5,68.9L39,68.9L39,69.1z" stroke="none"/><path d="M88.4,4.5L88.6,4.5L88.6,6L88.4,6z" stroke="none"/><path d="M6.1,64.5L5.9,64.5L5.9,63L6.1,63z" stroke="none"/><path d="M91.5,11.9L91.5,12.1L91.1,12.1L91.1,13.1L90.6,13.1L90.6,13.6L90,13.6L90,13.4L90.4,13.4L90.4,12.9L90.9,12.9L90.9,11.9z" stroke="none"/><path d="M84,17.9L84,18.1L83.4,18.1L83.4,17.1L82.4,17.1L82.4,16.5L82.6,16.5L82.6,16.9L83.6,16.9L83.6,17.9z" stroke="none"/><path d="M78.1,6L77.9,6L77.9,3L78.1,3z" stroke="none"/><path d="M73.4,96L73.6,96L73.6,99L73.4,99z" stroke="none"/><path d="M24,4.6L24,4.4L24.6,4.4L24.6,4.9L26.1,4.9L26.1,5.4L26.6,5.4L26.6,5.9L27,5.9L27,6.1L26.4,6.1L26.4,5.6L25.9,5.6L25.9,5.1L24.4,5.1L24.4,4.6z" stroke="none"/><path d="M5.9,96L6.1,96L6.1,100.1L4.6,100.1L4.6,100.6L3.6,100.6L3.6,102.9L7.9,102.9L7.9,99.9L8.4,99.9L8.4,94.9L8.9,94.9L8.9,94.4L10.5,94.4L10.5,94.6L9.1,94.6L9.1,95.1L8.6,95.1L8.6,100.1L8.1,100.1L8.1,103.1L3.4,103.1L3.4,100.4L4.4,100.4L4.4,99.9L5.9,99.9z" stroke="none"/><path d="M54,21.1L54,20.9L54.6,20.9L54.6,21.4L55.1,21.4L55.1,21.9L56.1,21.9L56.1,22.4L56.6,22.4L56.6,22.9L57.1,22.9L57.1,23.9L57.6,23.9L57.6,24.4L58.1,24.4L58.1,24.9L59.4,24.9L59.4,22.9L59.9,22.9L59.9,22.5L60.1,22.5L60.1,23.1L59.6,23.1L59.6,25.1L57.9,25.1L57.9,24.6L57.4,24.6L57.4,24.1L56.9,24.1L56.9,23.1L56.4,23.1L56.4,22.6L55.9,22.6L55.9,22.1L54.9,22.1L54.9,21.6L54.4,21.6L54.4,21.1z" stroke="none"/><path d="M58.5,90.1L58.5,89.9L59.1,89.9L59.1,90.9L59.6,90.9L59.6,92.1L59.1,92.1L59.1,92.6L55.9,92.6L55.9,91.1L55.4,91.1L55.4,90.6L53.4,90.6L53.4,89.6L52.9,89.6L52.9,89.1L50.9,89.1L50.9,88.5L51.1,88.5L51.1,88.9L53.1,88.9L53.1,89.4L53.6,89.4L53.6,90.4L55.6,90.4L55.6,90.9L56.1,90.9L56.1,92.4L58.9,92.4L58.9,91.9L59.4,91.9L59.4,91.1L58.9,91.1L58.9,90.1z" stroke="none"/><path d="M10.4,58.5L10.6,58.5L10.6,66.1L9,66.1L9,65.9L10.4,65.9z" stroke="none"/><path d="M42.1,102L41.9,102L41.9,96.9L42.4,96.9L42.4,96.4L42.9,96.4L42.9,95.9L43.9,95.9L43.9,94.4L45,94.4L45,94.6L44.1,94.6L44.1,96.1L43.1,96.1L43.1,96.6L42.6,96.6L42.6,97.1L42.1,97.1z" stroke="none"/><path d="M10.6,36L10.4,36L10.4,30.4L10.9,30.4L10.9,28.9L12.9,28.9L12.9,28.4L13.5,28.4L13.5,28.6L13.1,28.6L13.1,29.1L11.1,29.1L11.1,30.6L10.6,30.6z" stroke="none"/><path d="M31.6,81L31.4,81L31.4,74.4L31.9,74.4L31.9,73.9L32.4,73.9L32.4,73.4L34.5,73.4L34.5,73.6L32.6,73.6L32.6,74.1L32.1,74.1L32.1,74.6L31.6,74.6z" stroke="none"/><path d="M66,4.4L66,4.6L60.4,4.6L60.4,4.1L59.9,4.1L59.9,3.6L59.4,3.6L59.4,2.1L58.1,2.1L58.1,2.6L57.6,2.6L57.6,3.1L57,3.1L57,2.9L57.4,2.9L57.4,2.4L57.9,2.4L57.9,1.9L59.6,1.9L59.6,3.4L60.1,3.4L60.1,3.9L60.6,3.9L60.6,4.4z" stroke="none"/><path d="M88.5,34.4L88.5,34.6L79.9,34.6L79.9,33.6L77.9,33.6L77.9,33L78.1,33L78.1,33.4L80.1,33.4L80.1,34.4z" stroke="none"/><path d="M96.1,34.5L95.9,34.5L95.9,32.4L97.4,32.4L97.4,30.9L97.9,30.9L97.9,29.4L99.9,29.4L99.9,28.9L100.4,28.9L100.4,27.4L100.9,27.4L100.9,25.4L102,25.4L102,25.6L101.1,25.6L101.1,27.6L100.6,27.6L100.6,29.1L100.1,29.1L100.1,29.6L98.1,29.6L98.1,31.1L97.6,31.1L97.6,32.6L96.1,32.6z" stroke="none"/><path d="M6.1,75L5.9,75L5.9,65.6L3.9,65.6L3.9,65.1L3.4,65.1L3.4,64.6L3,64.6L3,64.4L3.6,64.4L3.6,64.9L4.1,64.9L4.1,65.4L6.1,65.4z" stroke="none"/><path d="M13.5,25.4L13.5,25.6L10.1,25.6L10.1,26.1L9.6,26.1L9.6,26.6L8.1,26.6L8.1,27.6L4.1,27.6L4.1,28.1L3.1,28.1L3.1,28.5L2.9,28.5L2.9,27.9L3.9,27.9L3.9,27.4L7.9,27.4L7.9,26.4L9.4,26.4L9.4,25.9L9.9,25.9L9.9,25.4z" stroke="none"/><path d="M97.4,82.5L97.6,82.5L97.6,90.9L98.6,90.9L98.6,91.4L99.1,91.4L99.1,92.4L100.6,92.4L100.6,92.9L102,92.9L102,93.1L100.4,93.1L100.4,92.6L98.9,92.6L98.9,91.6L98.4,91.6L98.4,91.1L97.4,91.1z" stroke="none"/><path d="M70.5,90.1L70.5,89.9L74.1,89.9L74.1,90.4L74.6,90.4L74.6,90.9L75.6,90.9L75.6,91.9L76.1,91.9L76.1,92.4L76.9,92.4L76.9,91.9L77.4,91.9L77.4,80.9L78,80.9L78,81.1L77.6,81.1L77.6,92.1L77.1,92.1L77.1,92.6L75.9,92.6L75.9,92.1L75.4,92.1L75.4,91.1L74.4,91.1L74.4,90.6L73.9,90.6L73.9,90.1z" stroke="none"/><path d="M9,45.1L9,44.9L20.9,44.9L20.9,42L21.1,42L21.1,45.1z" stroke="none"/><path d="M37.5,67.6L37.5,67.4L39.6,67.4L39.6,67.9L40.1,67.9L40.1,69.4L40.6,69.4L40.6,70.9L41.1,70.9L41.1,71.4L47.4,71.4L47.4,70.4L49.5,70.4L49.5,70.6L47.6,70.6L47.6,71.6L40.9,71.6L40.9,71.1L40.4,71.1L40.4,69.6L39.9,69.6L39.9,68.1L39.4,68.1L39.4,67.6z" stroke="none"/><path d="M45,61.4L45,61.6L36.9,61.6L36.9,60.6L34.9,60.6L34.9,60.1L34.4,60.1L34.4,59.6L33.9,59.6L33.9,59.1L33.4,59.1L33.4,58.6L33,58.6L33,58.4L33.6,58.4L33.6,58.9L34.1,58.9L34.1,59.4L34.6,59.4L34.6,59.9L35.1,59.9L35.1,60.4L37.1,60.4L37.1,61.4z" stroke="none"/><path d="M66,55.4L66,55.6L61.4,55.6L61.4,55.1L57.9,55.1L57.9,54.6L57.4,54.6L57.4,53.6L56.4,53.6L56.4,53.1L55.9,53.1L55.9,51.6L54.4,51.6L54.4,51.1L54,51.1L54,50.9L54.6,50.9L54.6,51.4L56.1,51.4L56.1,52.9L56.6,52.9L56.6,53.4L57.6,53.4L57.6,54.4L58.1,54.4L58.1,54.9L61.6,54.9L61.6,55.4z" stroke="none"/><path d="M85.5,12.1L85.5,11.9L87.9,11.9L87.9,11.4L89.4,11.4L89.4,10.9L94.4,10.9L94.4,8.9L95.4,8.9L95.4,6.9L96.4,6.9L96.4,6.4L96.9,6.4L96.9,5.9L97.5,5.9L97.5,6.1L97.1,6.1L97.1,6.6L96.6,6.6L96.6,7.1L95.6,7.1L95.6,9.1L94.6,9.1L94.6,11.1L89.6,11.1L89.6,11.6L88.1,11.6L88.1,12.1z" stroke="none"/><path d="M79.4,39L79.6,39L79.6,44.4L80.1,44.4L80.1,45.4L82.1,45.4L82.1,48.4L83.1,48.4L83.1,48.9L84.1,48.9L84.1,49.9L84.6,49.9L84.6,50.4L85.1,50.4L85.1,50.9L85.5,50.9L85.5,51.1L84.9,51.1L84.9,50.6L84.4,50.6L84.4,50.1L83.9,50.1L83.9,49.1L82.9,49.1L82.9,48.6L81.9,48.6L81.9,45.6L79.9,45.6L79.9,44.6L79.4,44.6z" stroke="none"/><path d="M37.5,62.9L37.5,63.1L24.4,63.1L24.4,62.6L23.9,62.6L23.9,61.5L24.1,61.5L24.1,62.4L24.6,62.4L24.6,62.9z" stroke="none"/><path d="M69.1,15L68.9,15L68.9,6.4L69.4,6.4L69.4,5.4L70.9,5.4L70.9,4.9L77.1,4.9L77.1,6.4L77.6,6.4L77.6,6.9L78.6,6.9L78.6,8.4L79.1,8.4L79.1,9.4L81.1,9.4L81.1,10.4L82.1,10.4L82.1,13.4L82.5,13.4L82.5,13.6L81.9,13.6L81.9,10.6L80.9,10.6L80.9,9.6L78.9,9.6L78.9,8.6L78.4,8.6L78.4,7.1L77.4,7.1L77.4,6.6L76.9,6.6L76.9,5.1L71.1,5.1L71.1,5.6L69.6,5.6L69.6,6.6L69.1,6.6z" stroke="none"/><path d="M23.9,78L24.1,78L24.1,81.9L25.1,81.9L25.1,82.4L26.1,82.4L26.1,82.9L27.1,82.9L27.1,83.9L28.1,83.9L28.1,84.4L29.1,84.4L29.1,84.9L30.1,84.9L30.1,85.4L30.6,85.4L30.6,85.9L32.1,85.9L32.1,93.1L31.6,93.1L31.6,93.6L30.6,93.6L30.6,94.1L28.1,94.1L28.1,94.6L27.1,94.6L27.1,95.1L26.6,95.1L26.6,95.6L24.9,95.6L24.9,95.1L24.4,95.1L24.4,93.9L24.9,93.9L24.9,92.9L25.5,92.9L25.5,93.1L25.1,93.1L25.1,94.1L24.6,94.1L24.6,94.9L25.1,94.9L25.1,95.4L26.4,95.4L26.4,94.9L26.9,94.9L26.9,94.4L27.9,94.4L27.9,93.9L30.4,93.9L30.4,93.4L31.4,93.4L31.4,92.9L31.9,92.9L31.9,86.1L30.4,86.1L30.4,85.6L29.9,85.6L29.9,85.1L28.9,85.1L28.9,84.6L27.9,84.6L27.9,84.1L26.9,84.1L26.9,83.1L25.9,83.1L25.9,82.6L24.9,82.6L24.9,82.1L23.9,82.1z" stroke="none"/><path d="M28.5,91.4L28.5,91.6L18.1,91.6L18.1,92.1L17.6,92.1L17.6,92.6L17.1,92.6L17.1,93.9L22.6,93.9L22.6,94.9L23.6,94.9L23.6,95.9L28.4,95.9L28.4,94.9L30.4,94.9L30.4,94.4L31.4,94.4L31.4,93.9L31.9,93.9L31.9,93.4L32.4,93.4L32.4,89.9L33.4,89.9L33.4,88.9L33.9,88.9L33.9,77.1L33.4,77.1L33.4,76.6L33,76.6L33,76.4L33.6,76.4L33.6,76.9L34.1,76.9L34.1,89.1L33.6,89.1L33.6,90.1L32.6,90.1L32.6,93.6L32.1,93.6L32.1,94.1L31.6,94.1L31.6,94.6L30.6,94.6L30.6,95.1L28.6,95.1L28.6,96.1L23.4,96.1L23.4,95.1L22.4,95.1L22.4,94.1L16.9,94.1L16.9,92.4L17.4,92.4L17.4,91.9L17.9,91.9L17.9,91.4z" stroke="none"/><path d="M52.4,85.5L52.6,85.5L52.6,87.1L51.6,87.1L51.6,87.6L50.1,87.6L50.1,99.1L49.1,99.1L49.1,100.1L48.1,100.1L48.1,100.5L47.9,100.5L47.9,99.9L48.9,99.9L48.9,98.9L49.9,98.9L49.9,87.4L51.4,87.4L51.4,86.9L52.4,86.9z" stroke="none"/><path d="M13.5,101.9L13.5,102.1L8.6,102.1L8.6,103.6L2.9,103.6L2.9,101.1L2.4,101.1L2.4,98.1L1.9,98.1L1.9,90.4L2.9,90.4L2.9,90L3.1,90L3.1,90.6L2.1,90.6L2.1,97.9L2.6,97.9L2.6,100.9L3.1,100.9L3.1,103.4L8.4,103.4L8.4,101.9z" stroke="none"/><path d="M79.5,100.4L79.5,100.6L64.1,100.6L64.1,101.1L63.1,101.1L63.1,102L62.9,102L62.9,100.9L63.9,100.9L63.9,100.4z" stroke="none"/><path d="M15,16.6L15,16.4L31.1,16.4L31.1,16.9L33.1,16.9L33.1,18L32.9,18L32.9,17.1L30.9,17.1L30.9,16.6z" stroke="none"/><path d="M33,30.1L33,29.9L35.4,29.9L35.4,29.4L37.4,29.4L37.4,28.9L38.4,28.9L38.4,26.9L41.4,26.9L41.4,26.4L41.9,26.4L41.9,25.9L42.4,25.9L42.4,25.4L42.9,25.4L42.9,24.4L44.4,24.4L44.4,23.9L45.4,23.9L45.4,23.4L46.4,23.4L46.4,18L46.6,18L46.6,23.6L45.6,23.6L45.6,24.1L44.6,24.1L44.6,24.6L43.1,24.6L43.1,25.6L42.6,25.6L42.6,26.1L42.1,26.1L42.1,26.6L41.6,26.6L41.6,27.1L38.6,27.1L38.6,29.1L37.6,29.1L37.6,29.6L35.6,29.6L35.6,30.1z" stroke="none"/><path d="M96.1,6L95.9,6L95.9,5.4L96.9,5.4L96.9,4.9L98.6,4.9L98.6,11.6L98.1,11.6L98.1,12.1L96.6,12.1L96.6,12.6L96.1,12.6L96.1,13.1L95.6,13.1L95.6,14.1L95.1,14.1L95.1,15.1L94.1,15.1L94.1,15.6L93.6,15.6L93.6,16.1L92.6,16.1L92.6,17.1L92.1,17.1L92.1,18.1L91.6,18.1L91.6,19.6L91.1,19.6L91.1,20.6L90.6,20.6L90.6,21.1L89.6,21.1L89.6,21.6L89.1,21.6L89.1,22.1L88.6,22.1L88.6,22.5L88.4,22.5L88.4,21.9L88.9,21.9L88.9,21.4L89.4,21.4L89.4,20.9L90.4,20.9L90.4,20.4L90.9,20.4L90.9,19.4L91.4,19.4L91.4,17.9L91.9,17.9L91.9,16.9L92.4,16.9L92.4,15.9L93.4,15.9L93.4,15.4L93.9,15.4L93.9,14.9L94.9,14.9L94.9,13.9L95.4,13.9L95.4,12.9L95.9,12.9L95.9,12.4L96.4,12.4L96.4,11.9L97.9,11.9L97.9,11.4L98.4,11.4L98.4,5.1L97.1,5.1L97.1,5.6L96.1,5.6z" stroke="none"/><path d="M13.5,22.6L13.5,22.4L24.6,22.4L24.6,22.9L25.1,22.9L25.1,23.4L25.6,23.4L25.6,23.9L26.6,23.9L26.6,24.4L27.6,24.4L27.6,24.9L29.6,24.9L29.6,25.4L31.5,25.4L31.5,25.6L29.4,25.6L29.4,25.1L27.4,25.1L27.4,24.6L26.4,24.6L26.4,24.1L25.4,24.1L25.4,23.6L24.9,23.6L24.9,23.1L24.4,23.1L24.4,22.6z" stroke="none"/><path d="M40.6,63L40.4,63L40.4,62.6L39.9,62.6L39.9,62.1L33.9,62.1L33.9,60.1L33.4,60.1L33.4,59.6L31.9,59.6L31.9,58.6L31.4,58.6L31.4,58.1L30.9,58.1L30.9,57.6L30.4,57.6L30.4,57.1L29.9,57.1L29.9,55.6L28.9,55.6L28.9,55.1L27.9,55.1L27.9,53.1L25.4,53.1L25.4,52.5L25.6,52.5L25.6,52.9L28.1,52.9L28.1,54.9L29.1,54.9L29.1,55.4L30.1,55.4L30.1,56.9L30.6,56.9L30.6,57.4L31.1,57.4L31.1,57.9L31.6,57.9L31.6,58.4L32.1,58.4L32.1,59.4L33.6,59.4L33.6,59.9L34.1,59.9L34.1,61.9L40.1,61.9L40.1,62.4L40.6,62.4z" stroke="none"/><path d="M96,101.9L96,102.1L95.4,102.1L95.4,101.1L87.4,101.1L87.4,98.1L86.4,98.1L86.4,95.6L85.9,95.6L85.9,87.6L85.4,87.6L85.4,87L85.6,87L85.6,87.4L86.1,87.4L86.1,95.4L86.6,95.4L86.6,97.9L87.6,97.9L87.6,100.9L95.6,100.9L95.6,101.9z" stroke="none"/><path d="M25.5,50.9L25.5,51.1L25.1,51.1L25.1,52.1L24.6,52.1L24.6,59.1L23.6,59.1L23.6,61.1L23.1,61.1L23.1,61.9L23.6,61.9L23.6,62.9L24.1,62.9L24.1,63.4L37.1,63.4L37.1,63.9L39.1,63.9L39.1,64.5L38.9,64.5L38.9,64.1L36.9,64.1L36.9,63.6L23.9,63.6L23.9,63.1L23.4,63.1L23.4,62.1L22.9,62.1L22.9,60.9L23.4,60.9L23.4,58.9L24.4,58.9L24.4,51.9L24.9,51.9L24.9,50.9z" stroke="none"/><path d="M21,19.6L21,19.4L24.1,19.4L24.1,19.9L26.6,19.9L26.6,20.4L31.9,20.4L31.9,19.9L32.4,19.9L32.4,19.4L33.9,19.4L33.9,7.1L33.4,7.1L33.4,6.6L32.9,6.6L32.9,4.5L33.1,4.5L33.1,6.4L33.6,6.4L33.6,6.9L34.1,6.9L34.1,19.6L32.6,19.6L32.6,20.1L32.1,20.1L32.1,20.6L26.4,20.6L26.4,20.1L23.9,20.1L23.9,19.6z" stroke="none"/><path d="M4.6,99L4.4,99L4.4,77.9L5.9,77.9L5.9,76.9L6.4,76.9L6.4,75.4L8.1,75.4L8.1,75.9L8.6,75.9L8.6,79.4L9,79.4L9,79.6L8.4,79.6L8.4,76.1L7.9,76.1L7.9,75.6L6.6,75.6L6.6,77.1L6.1,77.1L6.1,78.1L4.6,78.1z" stroke="none"/><path d="M91.4,49.5L91.6,49.5L91.6,51.9L92.6,51.9L92.6,52.4L93.1,52.4L93.1,52.9L93.6,52.9L93.6,53.4L94.1,53.4L94.1,54.9L95.6,54.9L95.6,55.4L96.6,55.4L96.6,57.9L97.6,57.9L97.6,58.9L98.1,58.9L98.1,67.1L97.1,67.1L97.1,67.6L96.6,67.6L96.6,68.1L96.1,68.1L96.1,68.6L88.9,68.6L88.9,68.1L80.9,68.1L80.9,67.6L80.4,67.6L80.4,66.6L79.4,66.6L79.4,66L79.6,66L79.6,66.4L80.6,66.4L80.6,67.4L81.1,67.4L81.1,67.9L89.1,67.9L89.1,68.4L95.9,68.4L95.9,67.9L96.4,67.9L96.4,67.4L96.9,67.4L96.9,66.9L97.9,66.9L97.9,59.1L97.4,59.1L97.4,58.1L96.4,58.1L96.4,55.6L95.4,55.6L95.4,55.1L93.9,55.1L93.9,53.6L93.4,53.6L93.4,53.1L92.9,53.1L92.9,52.6L92.4,52.6L92.4,52.1L91.4,52.1z" stroke="none"/><path d="M47.9,9L48.1,9L48.1,14.1L47.6,14.1L47.6,14.6L47.1,14.6L47.1,15.1L46.6,15.1L46.6,16.1L46.1,16.1L46.1,16.6L45.1,16.6L45.1,17.6L44.1,17.6L44.1,19.1L43.6,19.1L43.6,19.6L43.1,19.6L43.1,22.1L42.6,22.1L42.6,23.1L41.1,23.1L41.1,24.6L40.1,24.6L40.1,25.6L36,25.6L36,25.4L39.9,25.4L39.9,24.4L40.9,24.4L40.9,22.9L42.4,22.9L42.4,21.9L42.9,21.9L42.9,19.4L43.4,19.4L43.4,18.9L43.9,18.9L43.9,17.4L44.9,17.4L44.9,16.4L45.9,16.4L45.9,15.9L46.4,15.9L46.4,14.9L46.9,14.9L46.9,14.4L47.4,14.4L47.4,13.9L47.9,13.9z" stroke="none"/><path d="M75.1,51L74.9,51L74.9,47.1L73.4,47.1L73.4,45.6L72.9,45.6L72.9,45.1L71.9,45.1L71.9,44.6L71.4,44.6L71.4,44.1L70.4,44.1L70.4,43.6L69.9,43.6L69.9,42.1L69.4,42.1L69.4,41.1L68.4,41.1L68.4,40.1L67.9,40.1L67.9,39.6L67.4,39.6L67.4,39.1L66.9,39.1L66.9,38.6L66.4,38.6L66.4,36.9L66.9,36.9L66.9,36.4L72.9,36.4L72.9,35.9L74.4,35.9L74.4,35.4L75.4,35.4L75.4,34.9L76.4,34.9L76.4,32.9L76.9,32.9L76.9,32.4L77.4,32.4L77.4,31.9L79.9,31.9L79.9,31.4L82.5,31.4L82.5,31.6L80.1,31.6L80.1,32.1L77.6,32.1L77.6,32.6L77.1,32.6L77.1,33.1L76.6,33.1L76.6,35.1L75.6,35.1L75.6,35.6L74.6,35.6L74.6,36.1L73.1,36.1L73.1,36.6L67.1,36.6L67.1,37.1L66.6,37.1L66.6,38.4L67.1,38.4L67.1,38.9L67.6,38.9L67.6,39.4L68.1,39.4L68.1,39.9L68.6,39.9L68.6,40.9L69.6,40.9L69.6,41.9L70.1,41.9L70.1,43.4L70.6,43.4L70.6,43.9L71.6,43.9L71.6,44.4L72.1,44.4L72.1,44.9L73.1,44.9L73.1,45.4L73.6,45.4L73.6,46.9L75.1,46.9z" stroke="none"/><path d="M27,4.6L27,4.4L31.9,4.4L31.9,3.9L32.4,3.9L32.4,3.4L34.1,3.4L34.1,3.9L45.6,3.9L45.6,4.4L48,4.4L48,4.6L45.4,4.6L45.4,4.1L33.9,4.1L33.9,3.6L32.6,3.6L32.6,4.1L32.1,4.1L32.1,4.6z" stroke="none"/><path d="M97.4,52.5L97.6,52.5L97.6,57.4L98.1,57.4L98.1,58.4L98.6,58.4L98.6,72.4L100.6,72.4L100.6,75L100.4,75L100.4,72.6L98.4,72.6L98.4,58.6L97.9,58.6L97.9,57.6L97.4,57.6z" stroke="none"/><path d="M25.5,39.1L25.5,38.9L38.1,38.9L38.1,39.9L38.6,39.9L38.6,40.4L39.1,40.4L39.1,41.4L40.6,41.4L40.6,42.4L41.1,42.4L41.1,42.9L41.6,42.9L41.6,44.4L42.1,44.4L42.1,45.4L43.1,45.4L43.1,45.9L43.6,45.9L43.6,47.4L44.6,47.4L44.6,49.4L45.1,49.4L45.1,49.9L45.6,49.9L45.6,50.4L46.1,50.4L46.1,50.9L46.5,50.9L46.5,51.1L45.9,51.1L45.9,50.6L45.4,50.6L45.4,50.1L44.9,50.1L44.9,49.6L44.4,49.6L44.4,47.6L43.4,47.6L43.4,46.1L42.9,46.1L42.9,45.6L41.9,45.6L41.9,44.6L41.4,44.6L41.4,43.1L40.9,43.1L40.9,42.6L40.4,42.6L40.4,41.6L38.9,41.6L38.9,40.6L38.4,40.6L38.4,40.1L37.9,40.1L37.9,39.1z" stroke="none"/><path d="M37.5,98.9L37.5,99.1L9.4,99.1L9.4,96.9L9.9,96.9L9.9,96.4L11.4,96.4L11.4,92.4L12.4,92.4L12.4,91.4L13.5,91.4L13.5,91.6L12.6,91.6L12.6,92.6L11.6,92.6L11.6,96.6L10.1,96.6L10.1,97.1L9.6,97.1L9.6,98.9z" stroke="none"/><path d="M88.5,69.1L88.5,68.9L91.1,68.9L91.1,69.9L92.6,69.9L92.6,71.4L94.1,71.4L94.1,71.9L94.6,71.9L94.6,72.4L95.1,72.4L95.1,72.9L96.6,72.9L96.6,74.4L97.1,74.4L97.1,75.4L100.1,75.4L100.1,75.9L100.9,75.9L100.9,75.4L101.4,75.4L101.4,59.6L100.9,59.6L100.9,58.1L100.4,58.1L100.4,56.1L99.9,56.1L99.9,54.1L99.4,54.1L99.4,53.1L98.9,53.1L98.9,51.6L93.9,51.6L93.9,51.1L93.4,51.1L93.4,50.6L92.9,50.6L92.9,49.1L92.4,49.1L92.4,48.6L87.4,48.6L87.4,46.1L86.9,46.1L86.9,43.5L87.1,43.5L87.1,45.9L87.6,45.9L87.6,48.4L92.6,48.4L92.6,48.9L93.1,48.9L93.1,50.4L93.6,50.4L93.6,50.9L94.1,50.9L94.1,51.4L99.1,51.4L99.1,52.9L99.6,52.9L99.6,53.9L100.1,53.9L100.1,55.9L100.6,55.9L100.6,57.9L101.1,57.9L101.1,59.4L101.6,59.4L101.6,75.6L101.1,75.6L101.1,76.1L99.9,76.1L99.9,75.6L96.9,75.6L96.9,74.6L96.4,74.6L96.4,73.1L94.9,73.1L94.9,72.6L94.4,72.6L94.4,72.1L93.9,72.1L93.9,71.6L92.4,71.6L92.4,70.1L90.9,70.1L90.9,69.1z" stroke="none"/><path d="M14.9,12L15.1,12L15.1,13.6L14.6,13.6L14.6,14.6L13.6,14.6L13.6,15.1L10.6,15.1L10.6,15.6L10.1,15.6L10.1,16.6L9.6,16.6L9.6,17.1L9.1,17.1L9.1,17.6L6.1,17.6L6.1,18.1L5.1,18.1L5.1,18.6L4.6,18.6L4.6,19.1L4.1,19.1L4.1,20.6L3.6,20.6L3.6,25.1L3.1,25.1L3.1,26.1L2.6,26.1L2.6,26.6L2.1,26.6L2.1,28.9L2.6,28.9L2.6,29.4L7.9,29.4L7.9,28.9L8.4,28.9L8.4,28.4L11.4,28.4L11.4,27.9L12.9,27.9L12.9,27.4L14.1,27.4L14.1,27.9L29.4,27.9L29.4,27.4L33.4,27.4L33.4,26.9L34.4,26.9L34.4,25.4L34.9,25.4L34.9,24.4L37.9,24.4L37.9,21.4L38.4,21.4L38.4,20.9L39,20.9L39,21.1L38.6,21.1L38.6,21.6L38.1,21.6L38.1,24.6L35.1,24.6L35.1,25.6L34.6,25.6L34.6,27.1L33.6,27.1L33.6,27.6L29.6,27.6L29.6,28.1L13.9,28.1L13.9,27.6L13.1,27.6L13.1,28.1L11.6,28.1L11.6,28.6L8.6,28.6L8.6,29.1L8.1,29.1L8.1,29.6L2.4,29.6L2.4,29.1L1.9,29.1L1.9,26.4L2.4,26.4L2.4,25.9L2.9,25.9L2.9,24.9L3.4,24.9L3.4,20.4L3.9,20.4L3.9,18.9L4.4,18.9L4.4,18.4L4.9,18.4L4.9,17.9L5.9,17.9L5.9,17.4L8.9,17.4L8.9,16.9L9.4,16.9L9.4,16.4L9.9,16.4L9.9,15.4L10.4,15.4L10.4,14.9L13.4,14.9L13.4,14.4L14.4,14.4L14.4,13.4L14.9,13.4z" stroke="none"/><path d="M11.9,30L12.1,30L12.1,37.1L6.9,37.1L6.9,36.1L6.4,36.1L6.4,35.1L5.4,35.1L5.4,34.6L4.4,34.6L4.4,33.6L3.9,33.6L3.9,33.1L2.9,33.1L2.9,31.1L1.4,31.1L1.4,6.4L2.4,6.4L2.4,5.9L3,5.9L3,6.1L2.6,6.1L2.6,6.6L1.6,6.6L1.6,30.9L3.1,30.9L3.1,32.9L4.1,32.9L4.1,33.4L4.6,33.4L4.6,34.4L5.6,34.4L5.6,34.9L6.6,34.9L6.6,35.9L7.1,35.9L7.1,36.9L11.9,36.9z" stroke="none"/><path d="M19.5,40.4L19.5,40.6L13.1,40.6L13.1,41.1L12.6,41.1L12.6,41.6L11.1,41.6L11.1,42.1L10.6,42.1L10.6,42.6L10.1,42.6L10.1,43.1L9.1,43.1L9.1,44.1L8.6,44.1L8.6,44.6L8.1,44.6L8.1,57.9L8.6,57.9L8.6,59.9L9.1,59.9L9.1,64.5L8.9,64.5L8.9,60.1L8.4,60.1L8.4,58.1L7.9,58.1L7.9,44.4L8.4,44.4L8.4,43.9L8.9,43.9L8.9,42.9L9.9,42.9L9.9,42.4L10.4,42.4L10.4,41.9L10.9,41.9L10.9,41.4L12.4,41.4L12.4,40.9L12.9,40.9L12.9,40.4z" stroke="none"/><path d="M94.5,101.9L94.5,102.1L86.9,102.1L86.9,100.6L86.4,100.6L86.4,98.6L85.9,98.6L85.9,96.1L85.4,96.1L85.4,89.1L84.4,89.1L84.4,86.6L83.4,86.6L83.4,85.6L81.9,85.6L81.9,84.6L81.4,84.6L81.4,84.1L80.9,84.1L80.9,83.1L80.4,83.1L80.4,81.6L79.4,81.6L79.4,80.6L78.4,80.6L78.4,80.1L77.1,80.1L77.1,83.6L76.1,83.6L76.1,84.1L75.1,84.1L75.1,84.6L73.6,84.6L73.6,85.6L73.1,85.6L73.1,86.1L72.6,86.1L72.6,88.6L72,88.6L72,88.4L72.4,88.4L72.4,85.9L72.9,85.9L72.9,85.4L73.4,85.4L73.4,84.4L74.9,84.4L74.9,83.9L75.9,83.9L75.9,83.4L76.9,83.4L76.9,79.9L78.6,79.9L78.6,80.4L79.6,80.4L79.6,81.4L80.6,81.4L80.6,82.9L81.1,82.9L81.1,83.9L81.6,83.9L81.6,84.4L82.1,84.4L82.1,85.4L83.6,85.4L83.6,86.4L84.6,86.4L84.6,88.9L85.6,88.9L85.6,95.9L86.1,95.9L86.1,98.4L86.6,98.4L86.6,100.4L87.1,100.4L87.1,101.9z" stroke="none"/><path d="M74.9,69L75.1,69L75.1,76.4L75.6,76.4L75.6,76.9L77.1,76.9L77.1,78.4L77.6,78.4L77.6,78.9L80.1,78.9L80.1,79.9L80.6,79.9L80.6,80.4L81.1,80.4L81.1,81.9L81.6,81.9L81.6,82.9L82.6,82.9L82.6,83.4L83.6,83.4L83.6,83.9L84.6,83.9L84.6,84.9L85.6,84.9L85.6,85.4L86.1,85.4L86.1,86.4L86.6,86.4L86.6,91.4L87.1,91.4L87.1,92.4L87.6,92.4L87.6,92.9L88.1,92.9L88.1,93.4L89.1,93.4L89.1,93.9L90.1,93.9L90.1,94.9L91.1,94.9L91.1,95.9L91.6,95.9L91.6,96.9L94.6,96.9L94.6,97.9L95.1,97.9L95.1,98.9L95.6,98.9L95.6,99.9L96.6,99.9L96.6,100.4L97.1,100.4L97.1,103.1L47.4,103.1L47.4,101.1L46.9,101.1L46.9,90.9L47.4,90.9L47.4,89.9L47.9,89.9L47.9,87.4L48.4,87.4L48.4,86.9L50.9,86.9L50.9,85.9L51.4,85.9L51.4,84.9L51.9,84.9L51.9,82.9L52.4,82.9L52.4,82.5L52.6,82.5L52.6,83.1L52.1,83.1L52.1,85.1L51.6,85.1L51.6,86.1L51.1,86.1L51.1,87.1L48.6,87.1L48.6,87.6L48.1,87.6L48.1,90.1L47.6,90.1L47.6,91.1L47.1,91.1L47.1,100.9L47.6,100.9L47.6,102.9L96.9,102.9L96.9,100.6L96.4,100.6L96.4,100.1L95.4,100.1L95.4,99.1L94.9,99.1L94.9,98.1L94.4,98.1L94.4,97.1L91.4,97.1L91.4,96.1L90.9,96.1L90.9,95.1L89.9,95.1L89.9,94.1L88.9,94.1L88.9,93.6L87.9,93.6L87.9,93.1L87.4,93.1L87.4,92.6L86.9,92.6L86.9,91.6L86.4,91.6L86.4,86.6L85.9,86.6L85.9,85.6L85.4,85.6L85.4,85.1L84.4,85.1L84.4,84.1L83.4,84.1L83.4,83.6L82.4,83.6L82.4,83.1L81.4,83.1L81.4,82.1L80.9,82.1L80.9,80.6L80.4,80.6L80.4,80.1L79.9,80.1L79.9,79.1L77.4,79.1L77.4,78.6L76.9,78.6L76.9,77.1L75.4,77.1L75.4,76.6L74.9,76.6z" stroke="none"/><path d="M10.5,10.4L10.5,10.6L9.4,10.6L9.4,10.1L8.9,10.1L8.9,9.6L7.4,9.6L7.4,8.6L6.9,8.6L6.9,8.1L5.9,8.1L5.9,7.6L5.4,7.6L5.4,7.1L4.9,7.1L4.9,5.4L5.4,5.4L5.4,4.9L22.9,4.9L22.9,3.9L23.4,3.9L23.4,3.4L31.9,3.4L31.9,2.9L36,2.9L36,3.1L32.1,3.1L32.1,3.6L23.6,3.6L23.6,4.1L23.1,4.1L23.1,5.1L5.6,5.1L5.6,5.6L5.1,5.6L5.1,6.9L5.6,6.9L5.6,7.4L6.1,7.4L6.1,7.9L7.1,7.9L7.1,8.4L7.6,8.4L7.6,9.4L9.1,9.4L9.1,9.9L9.6,9.9L9.6,10.4z" stroke="none"/><path d="M40.5,19.4L40.5,19.6L37.6,19.6L37.6,20.1L36.1,20.1L36.1,20.6L35.6,20.6L35.6,21.1L35.1,21.1L35.1,21.6L34.6,21.6L34.6,25.1L33.6,25.1L33.6,26.1L32.1,26.1L32.1,26.6L19.6,26.6L19.6,27.1L15,27.1L15,26.9L19.4,26.9L19.4,26.4L31.9,26.4L31.9,25.9L33.4,25.9L33.4,24.9L34.4,24.9L34.4,21.4L34.9,21.4L34.9,20.9L35.4,20.9L35.4,20.4L35.9,20.4L35.9,19.9L37.4,19.9L37.4,19.4z" stroke="none"/><path d="M15.1,75L14.9,75L14.9,60.1L14.4,60.1L14.4,54.1L13.9,54.1L13.9,51.6L13.4,51.6L13.4,48L13.6,48L13.6,51.4L14.1,51.4L14.1,53.9L14.6,53.9L14.6,59.9L15.1,59.9z" stroke="none"/><path d="M3.1,96L2.9,96L2.9,90.9L3.4,90.9L3.4,90.4L3.9,90.4L3.9,69.9L4.4,69.9L4.4,69L4.6,69L4.6,70.1L4.1,70.1L4.1,90.6L3.6,90.6L3.6,91.1L3.1,91.1z" stroke="none"/><path d="M49.6,49.5L49.4,49.5L49.4,48.6L48.9,48.6L48.9,48.1L47.9,48.1L47.9,46.6L44.9,46.6L44.9,46.1L44.4,46.1L44.4,45.6L43.4,45.6L43.4,45.1L42.4,45.1L42.4,43.1L41.9,43.1L41.9,42.6L41.4,42.6L41.4,41.6L40.9,41.6L40.9,41.1L40.4,41.1L40.4,40.1L39.9,40.1L39.9,39.6L38.4,39.6L38.4,38.6L26.4,38.6L26.4,38.1L25.1,38.1L25.1,38.6L24.6,38.6L24.6,45.1L24.1,45.1L24.1,45.6L23.6,45.6L23.6,46.1L22.6,46.1L22.6,46.5L22.4,46.5L22.4,45.9L23.4,45.9L23.4,45.4L23.9,45.4L23.9,44.9L24.4,44.9L24.4,38.4L24.9,38.4L24.9,37.9L26.6,37.9L26.6,38.4L38.6,38.4L38.6,39.4L40.1,39.4L40.1,39.9L40.6,39.9L40.6,40.9L41.1,40.9L41.1,41.4L41.6,41.4L41.6,42.4L42.1,42.4L42.1,42.9L42.6,42.9L42.6,44.9L43.6,44.9L43.6,45.4L44.6,45.4L44.6,45.9L45.1,45.9L45.1,46.4L48.1,46.4L48.1,47.9L49.1,47.9L49.1,48.4L49.6,48.4z" stroke="none"/><path d="M102.1,102L101.9,102L101.9,95.6L100.9,95.6L100.9,95.1L99.9,95.1L99.9,94.6L99.4,94.6L99.4,94.1L97.9,94.1L97.9,92.6L97.4,92.6L97.4,92.1L96.9,92.1L96.9,83.1L96.4,83.1L96.4,77.6L95.9,77.6L95.9,77.1L94.9,77.1L94.9,76.6L91.5,76.6L91.5,76.4L95.1,76.4L95.1,76.9L96.1,76.9L96.1,77.4L96.6,77.4L96.6,82.9L97.1,82.9L97.1,91.9L97.6,91.9L97.6,92.4L98.1,92.4L98.1,93.9L99.6,93.9L99.6,94.4L100.1,94.4L100.1,94.9L101.1,94.9L101.1,95.4L102.1,95.4z" stroke="none"/><path d="M23.9,46.5L24.1,46.5L24.1,47.6L21.9,47.6L21.9,47.1L21.4,47.1L21.4,45.4L21.9,45.4L21.9,43.9L22.4,43.9L22.4,43.4L22.9,43.4L22.9,42.4L23.4,42.4L23.4,38.4L23.9,38.4L23.9,37.4L44.6,37.4L44.6,39.9L45.1,39.9L45.1,41.9L46.6,41.9L46.6,43.9L47.1,43.9L47.1,44.4L48.4,44.4L48.4,43.9L48.9,43.9L48.9,42.4L49.9,42.4L49.9,41.9L50.4,41.9L50.4,41.4L50.9,41.4L50.9,40.5L51.1,40.5L51.1,41.6L50.6,41.6L50.6,42.1L50.1,42.1L50.1,42.6L49.1,42.6L49.1,44.1L48.6,44.1L48.6,44.6L46.9,44.6L46.9,44.1L46.4,44.1L46.4,42.1L44.9,42.1L44.9,40.1L44.4,40.1L44.4,37.6L24.1,37.6L24.1,38.6L23.6,38.6L23.6,42.6L23.1,42.6L23.1,43.6L22.6,43.6L22.6,44.1L22.1,44.1L22.1,45.6L21.6,45.6L21.6,46.9L22.1,46.9L22.1,47.4L23.9,47.4z" stroke="none"/><path d="M13.6,93L13.4,93L13.4,92.4L13.9,92.4L13.9,91.9L14.4,91.9L14.4,86.1L13.9,86.1L13.9,84.9L14.4,84.9L14.4,84.4L14.9,84.4L14.9,83.9L15.4,83.9L15.4,82.9L15.9,82.9L15.9,81.4L16.9,81.4L16.9,80.9L17.4,80.9L17.4,80.4L18.4,80.4L18.4,79.9L18.9,79.9L18.9,66.4L19.4,66.4L19.4,66L19.6,66L19.6,66.6L19.1,66.6L19.1,80.1L18.6,80.1L18.6,80.6L17.6,80.6L17.6,81.1L17.1,81.1L17.1,81.6L16.1,81.6L16.1,83.1L15.6,83.1L15.6,84.1L15.1,84.1L15.1,84.6L14.6,84.6L14.6,85.1L14.1,85.1L14.1,85.9L14.6,85.9L14.6,92.1L14.1,92.1L14.1,92.6L13.6,92.6z" stroke="none"/><path d="M5.9,3L6.1,3L6.1,3.6L5.6,3.6L5.6,4.1L5.1,4.1L5.1,5.1L4.6,5.1L4.6,7.4L5.1,7.4L5.1,7.9L5.6,7.9L5.6,8.4L6.6,8.4L6.6,8.9L7.1,8.9L7.1,9.9L7.6,9.9L7.6,10.4L8.6,10.4L8.6,11.4L14.4,11.4L14.4,10.9L16.1,10.9L16.1,11.4L23.1,11.4L23.1,12.9L23.6,12.9L23.6,13.4L24.6,13.4L24.6,15.4L25.1,15.4L25.1,15.9L27.9,15.9L27.9,9.9L28.4,9.9L28.4,9.4L32.9,9.4L32.9,9L33.1,9L33.1,9.6L28.6,9.6L28.6,10.1L28.1,10.1L28.1,16.1L24.9,16.1L24.9,15.6L24.4,15.6L24.4,13.6L23.4,13.6L23.4,13.1L22.9,13.1L22.9,11.6L15.9,11.6L15.9,11.1L14.6,11.1L14.6,11.6L8.4,11.6L8.4,10.6L7.4,10.6L7.4,10.1L6.9,10.1L6.9,9.1L6.4,9.1L6.4,8.6L5.4,8.6L5.4,8.1L4.9,8.1L4.9,7.6L4.4,7.6L4.4,4.9L4.9,4.9L4.9,3.9L5.4,3.9L5.4,3.4L5.9,3.4z" stroke="none"/><path d="M102.1,34.5L101.9,34.5L101.9,29.9L102.4,29.9L102.4,28.9L102.9,28.9L102.9,23.6L102.4,23.6L102.4,23.1L89.1,23.1L89.1,23.6L87.4,23.6L87.4,13.6L85.9,13.6L85.9,13.1L84.9,13.1L84.9,12.6L84.4,12.6L84.4,10.9L86.9,10.9L86.9,10.5L87.1,10.5L87.1,11.1L84.6,11.1L84.6,12.4L85.1,12.4L85.1,12.9L86.1,12.9L86.1,13.4L87.6,13.4L87.6,23.4L88.9,23.4L88.9,22.9L102.6,22.9L102.6,23.4L103.1,23.4L103.1,29.1L102.6,29.1L102.6,30.1L102.1,30.1z" stroke="none"/><path d="M78.1,39L77.9,39L77.9,38.4L78.4,38.4L78.4,37.9L81.1,37.9L81.1,38.4L81.6,38.4L81.6,39.4L82.1,39.4L82.1,40.4L83.1,40.4L83.1,40.9L84.1,40.9L84.1,41.4L85.1,41.4L85.1,41.9L86.6,41.9L86.6,42.4L87.6,42.4L87.6,42.9L88.1,42.9L88.1,43.9L88.6,43.9L88.6,44.4L90.1,44.4L90.1,44.9L91.6,44.9L91.6,45.4L94.1,45.4L94.1,45.9L94.6,45.9L94.6,46.4L95.1,46.4L95.1,47.9L95.6,47.9L95.6,48.4L96.6,48.4L96.6,50.4L98.6,50.4L98.6,50.9L99.6,50.9L99.6,51.9L100.1,51.9L100.1,53.4L100.6,53.4L100.6,55.4L101.1,55.4L101.1,57.4L101.6,57.4L101.6,58.9L102.1,58.9L102.1,76.6L96.9,76.6L96.9,76.1L92.4,76.1L92.4,75.6L85.4,75.6L85.4,74.6L84.9,74.6L84.9,74.1L84.4,74.1L84.4,73.6L83.4,73.6L83.4,72.6L81.9,72.6L81.9,72.1L81.4,72.1L81.4,71.1L79.9,71.1L79.9,69.6L78.9,69.6L78.9,68.1L78.4,68.1L78.4,67.6L78,67.6L78,67.4L78.6,67.4L78.6,67.9L79.1,67.9L79.1,69.4L80.1,69.4L80.1,70.9L81.6,70.9L81.6,71.9L82.1,71.9L82.1,72.4L83.6,72.4L83.6,73.4L84.6,73.4L84.6,73.9L85.1,73.9L85.1,74.4L85.6,74.4L85.6,75.4L92.6,75.4L92.6,75.9L97.1,75.9L97.1,76.4L101.9,76.4L101.9,59.1L101.4,59.1L101.4,57.6L100.9,57.6L100.9,55.6L100.4,55.6L100.4,53.6L99.9,53.6L99.9,52.1L99.4,52.1L99.4,51.1L98.4,51.1L98.4,50.6L96.4,50.6L96.4,48.6L95.4,48.6L95.4,48.1L94.9,48.1L94.9,46.6L94.4,46.6L94.4,46.1L93.9,46.1L93.9,45.6L91.4,45.6L91.4,45.1L89.9,45.1L89.9,44.6L88.4,44.6L88.4,44.1L87.9,44.1L87.9,43.1L87.4,43.1L87.4,42.6L86.4,42.6L86.4,42.1L84.9,42.1L84.9,41.6L83.9,41.6L83.9,41.1L82.9,41.1L82.9,40.6L81.9,40.6L81.9,39.6L81.4,39.6L81.4,38.6L80.9,38.6L80.9,38.1L78.6,38.1L78.6,38.6L78.1,38.6z" stroke="none"/><path d="M10.4,39L10.6,39L10.6,41.1L10.1,41.1L10.1,41.6L9.6,41.6L9.6,42.6L8.6,42.6L8.6,43.6L8.1,43.6L8.1,44.1L7.6,44.1L7.6,64.9L8.1,64.9L8.1,66.4L8.6,66.4L8.6,67.4L9,67.4L9,67.6L8.4,67.6L8.4,66.6L7.9,66.6L7.9,65.1L7.4,65.1L7.4,43.9L7.9,43.9L7.9,43.4L8.4,43.4L8.4,42.4L9.4,42.4L9.4,41.4L9.9,41.4L9.9,40.9L10.4,40.9z" stroke="none"/><path d="M22.6,42L22.4,42L22.4,40.6L21.9,40.6L21.9,40.1L21.4,40.1L21.4,39.6L12.4,39.6L12.4,39.1L11.9,39.1L11.9,38.6L11.4,38.6L11.4,38.1L9.6,38.1L9.6,41.1L9.1,41.1L9.1,41.6L8.6,41.6L8.6,42.1L8.1,42.1L8.1,43.1L7.6,43.1L7.6,43.6L7.1,43.6L7.1,68.4L7.6,68.4L7.6,68.9L8.1,68.9L8.1,69.4L8.6,69.4L8.6,69.9L10.6,69.9L10.6,70.9L11.6,70.9L11.6,71.9L12.1,71.9L12.1,72.9L12.6,72.9L12.6,73.4L13.1,73.4L13.1,73.9L13.6,73.9L13.6,74.4L14.1,74.4L14.1,75.4L14.6,75.4L14.6,75.9L15.4,75.9L15.4,75.4L15.9,75.4L15.9,74.4L16.4,74.4L16.4,73.4L17.4,73.4L17.4,66.9L17.9,66.9L17.9,65.9L18.4,65.9L18.4,65.4L18.9,65.4L18.9,64.9L21.1,64.9L21.1,65.4L21.6,65.4L21.6,66.9L22.1,66.9L22.1,68.9L23.1,68.9L23.1,70.4L24,70.4L24,70.6L22.9,70.6L22.9,69.1L21.9,69.1L21.9,67.1L21.4,67.1L21.4,65.6L20.9,65.6L20.9,65.1L19.1,65.1L19.1,65.6L18.6,65.6L18.6,66.1L18.1,66.1L18.1,67.1L17.6,67.1L17.6,73.6L16.6,73.6L16.6,74.6L16.1,74.6L16.1,75.6L15.6,75.6L15.6,76.1L14.4,76.1L14.4,75.6L13.9,75.6L13.9,74.6L13.4,74.6L13.4,74.1L12.9,74.1L12.9,73.6L12.4,73.6L12.4,73.1L11.9,73.1L11.9,72.1L11.4,72.1L11.4,71.1L10.4,71.1L10.4,70.1L8.4,70.1L8.4,69.6L7.9,69.6L7.9,69.1L7.4,69.1L7.4,68.6L6.9,68.6L6.9,43.4L7.4,43.4L7.4,42.9L7.9,42.9L7.9,41.9L8.4,41.9L8.4,41.4L8.9,41.4L8.9,40.9L9.4,40.9L9.4,37.9L11.6,37.9L11.6,38.4L12.1,38.4L12.1,38.9L12.6,38.9L12.6,39.4L21.6,39.4L21.6,39.9L22.1,39.9L22.1,40.4L22.6,40.4z" stroke="none"/><path d="M101.9,57L102.1,57L102.1,57.9L102.6,57.9L102.6,84.1L101.6,84.1L101.6,84.6L101.1,84.6L101.1,85.6L100.5,85.6L100.5,85.4L100.9,85.4L100.9,84.4L101.4,84.4L101.4,83.9L102.4,83.9L102.4,58.1L101.9,58.1z" stroke="none"/><path d="M102,5.9L102,6.1L100.4,6.1L100.4,5.1L99.9,5.1L99.9,4.6L93.6,4.6L93.6,6.1L91.1,6.1L91.1,6.6L90.6,6.6L90.6,7.1L88.6,7.1L88.6,8.6L86.6,8.6L86.6,9.6L86.1,9.6L86.1,10.1L84.6,10.1L84.6,10.6L84.1,10.6L84.1,14.1L83.1,14.1L83.1,14.6L82.6,14.6L82.6,15.1L82.1,15.1L82.1,16.1L81.6,16.1L81.6,25.1L81.1,25.1L81.1,25.5L80.9,25.5L80.9,24.9L81.4,24.9L81.4,15.9L81.9,15.9L81.9,14.9L82.4,14.9L82.4,14.4L82.9,14.4L82.9,13.9L83.9,13.9L83.9,10.4L84.4,10.4L84.4,9.9L85.9,9.9L85.9,9.4L86.4,9.4L86.4,8.4L88.4,8.4L88.4,6.9L90.4,6.9L90.4,6.4L90.9,6.4L90.9,5.9L93.4,5.9L93.4,4.4L100.1,4.4L100.1,4.9L100.6,4.9L100.6,5.9z" stroke="none"/><path d="M31.5,28.4L31.5,28.6L26.6,28.6L26.6,29.1L26.1,29.1L26.1,31.1L22.1,31.1L22.1,31.6L21.1,31.6L21.1,33.1L20.1,33.1L20.1,33.6L19.6,33.6L19.6,34.1L18.6,34.1L18.6,34.6L15.6,34.6L15.6,35.1L15.1,35.1L15.1,35.6L14.6,35.6L14.6,36.6L14.1,36.6L14.1,37.1L12.6,37.1L12.6,37.6L9.1,37.6L9.1,40.1L8.1,40.1L8.1,41.6L7.6,41.6L7.6,42.1L7.1,42.1L7.1,43.1L6.6,43.1L6.6,62.1L4.6,62.1L4.6,62.6L4.1,62.6L4.1,63.1L3.6,63.1L3.6,63.6L2.6,63.6L2.6,64.1L2.1,64.1L2.1,89.1L1.6,89.1L1.6,101.9L2.1,101.9L2.1,102.9L2.6,102.9L2.6,103.9L32.9,103.9L32.9,103.4L33.4,103.4L33.4,102.9L34.4,102.9L34.4,102.4L34.9,102.4L34.9,101.9L35.4,101.9L35.4,101.4L35.9,101.4L35.9,100.9L36.4,100.9L36.4,100.4L37.4,100.4L37.4,99.9L37.9,99.9L37.9,99.4L38.4,99.4L38.4,74.1L37.9,74.1L37.9,73.6L37.4,73.6L37.4,73.1L36.9,73.1L36.9,72.6L31.9,72.6L31.9,72.1L31.4,72.1L31.4,70.6L30.4,70.6L30.4,69.6L29.4,69.6L29.4,67.1L28.9,67.1L28.9,66.6L27.9,66.6L27.9,66.1L27.4,66.1L27.4,65.1L26.4,65.1L26.4,64.6L22.9,64.6L22.9,63.6L22.4,63.6L22.4,62.1L21.9,62.1L21.9,61.6L21.4,61.6L21.4,61.1L20.4,61.1L20.4,59.1L19.9,59.1L19.9,57.1L19.4,57.1L19.4,56.6L18.4,56.6L18.4,54.1L18,54.1L18,53.9L18.6,53.9L18.6,56.4L19.6,56.4L19.6,56.9L20.1,56.9L20.1,58.9L20.6,58.9L20.6,60.9L21.6,60.9L21.6,61.4L22.1,61.4L22.1,61.9L22.6,61.9L22.6,63.4L23.1,63.4L23.1,64.4L26.6,64.4L26.6,64.9L27.6,64.9L27.6,65.9L28.1,65.9L28.1,66.4L29.1,66.4L29.1,66.9L29.6,66.9L29.6,69.4L30.6,69.4L30.6,70.4L31.6,70.4L31.6,71.9L32.1,71.9L32.1,72.4L37.1,72.4L37.1,72.9L37.6,72.9L37.6,73.4L38.1,73.4L38.1,73.9L38.6,73.9L38.6,99.6L38.1,99.6L38.1,100.1L37.6,100.1L37.6,100.6L36.6,100.6L36.6,101.1L36.1,101.1L36.1,101.6L35.6,101.6L35.6,102.1L35.1,102.1L35.1,102.6L34.6,102.6L34.6,103.1L33.6,103.1L33.6,103.6L33.1,103.6L33.1,104.1L2.4,104.1L2.4,103.1L1.9,103.1L1.9,102.1L1.4,102.1L1.4,88.9L1.9,88.9L1.9,63.9L2.4,63.9L2.4,63.4L3.4,63.4L3.4,62.9L3.9,62.9L3.9,62.4L4.4,62.4L4.4,61.9L6.4,61.9L6.4,42.9L6.9,42.9L6.9,41.9L7.4,41.9L7.4,41.4L7.9,41.4L7.9,39.9L8.9,39.9L8.9,37.4L12.4,37.4L12.4,36.9L13.9,36.9L13.9,36.4L14.4,36.4L14.4,35.4L14.9,35.4L14.9,34.9L15.4,34.9L15.4,34.4L18.4,34.4L18.4,33.9L19.4,33.9L19.4,33.4L19.9,33.4L19.9,32.9L20.9,32.9L20.9,31.4L21.9,31.4L21.9,30.9L25.9,30.9L25.9,28.9L26.4,28.9L26.4,28.4z" stroke="none"/><path d="M33.1,88.5L32.9,88.5L32.9,84.1L32.4,84.1L32.4,83.6L30.9,83.6L30.9,81.6L30.4,81.6L30.4,73.6L28.9,73.6L28.9,73.1L27.9,73.1L27.9,72.6L27.4,72.6L27.4,72.1L26.9,72.1L26.9,71.6L26.4,71.6L26.4,69.1L25.4,69.1L25.4,68.6L24.4,68.6L24.4,67.1L23.9,67.1L23.9,66.6L22.9,66.6L22.9,66.1L22.4,66.1L22.4,65.1L21.4,65.1L21.4,64.6L20.9,64.6L20.9,63.6L19.9,63.6L19.9,59.6L19.4,59.6L19.4,59.1L18.9,59.1L18.9,57.6L18.4,57.6L18.4,57.1L17.9,57.1L17.9,56.1L17.4,56.1L17.4,54.6L16.9,54.6L16.9,53.4L17.4,53.4L17.4,52.9L23.4,52.9L23.4,52.4L23.9,52.4L23.9,50.9L24.4,50.9L24.4,50.4L24.9,50.4L24.9,49.9L30.6,49.9L30.6,50.4L31.1,50.4L31.1,50.9L31.6,50.9L31.6,51.4L32.1,51.4L32.1,51.9L32.6,51.9L32.6,53.4L33.6,53.4L33.6,53.9L34.1,53.9L34.1,54.9L34.6,54.9L34.6,56.9L35.1,56.9L35.1,57.4L36.6,57.4L36.6,57.9L37.6,57.9L37.6,58.5L37.4,58.5L37.4,58.1L36.4,58.1L36.4,57.6L34.9,57.6L34.9,57.1L34.4,57.1L34.4,55.1L33.9,55.1L33.9,54.1L33.4,54.1L33.4,53.6L32.4,53.6L32.4,52.1L31.9,52.1L31.9,51.6L31.4,51.6L31.4,51.1L30.9,51.1L30.9,50.6L30.4,50.6L30.4,50.1L25.1,50.1L25.1,50.6L24.6,50.6L24.6,51.1L24.1,51.1L24.1,52.6L23.6,52.6L23.6,53.1L17.6,53.1L17.6,53.6L17.1,53.6L17.1,54.4L17.6,54.4L17.6,55.9L18.1,55.9L18.1,56.9L18.6,56.9L18.6,57.4L19.1,57.4L19.1,58.9L19.6,58.9L19.6,59.4L20.1,59.4L20.1,63.4L21.1,63.4L21.1,64.4L21.6,64.4L21.6,64.9L22.6,64.9L22.6,65.9L23.1,65.9L23.1,66.4L24.1,66.4L24.1,66.9L24.6,66.9L24.6,68.4L25.6,68.4L25.6,68.9L26.6,68.9L26.6,71.4L27.1,71.4L27.1,71.9L27.6,71.9L27.6,72.4L28.1,72.4L28.1,72.9L29.1,72.9L29.1,73.4L30.6,73.4L30.6,81.4L31.1,81.4L31.1,83.4L32.6,83.4L32.6,83.9L33.1,83.9z" stroke="none"/><path d="M80.9,78L81.1,78L81.1,79.9L81.6,79.9L81.6,81.4L82.1,81.4L82.1,82.4L84.1,82.4L84.1,82.9L85.6,82.9L85.6,83.9L86.1,83.9L86.1,84.9L86.6,84.9L86.6,85.9L87.1,85.9L87.1,88.9L87.6,88.9L87.6,89.9L89.1,89.9L89.1,91.4L90.1,91.4L90.1,92.4L90.6,92.4L90.6,93.4L91.1,93.4L91.1,93.9L91.6,93.9L91.6,94.4L92.6,94.4L92.6,94.9L94.6,94.9L94.6,95.4L95.1,95.4L95.1,95.9L95.6,95.9L95.6,97.9L96.1,97.9L96.1,98.4L97.1,98.4L97.1,99.9L97.6,99.9L97.6,103.6L46.4,103.6L46.4,75.4L46.9,75.4L46.9,74.9L47.9,74.9L47.9,74.4L48.4,74.4L48.4,73.4L48.9,73.4L48.9,72.9L49.4,72.9L49.4,71.9L49.9,71.9L49.9,70.9L50.4,70.9L50.4,66.6L49.9,66.6L49.9,65.4L50.4,65.4L50.4,64.9L65.9,64.9L65.9,64.4L66.9,64.4L66.9,62.1L65.4,62.1L65.4,61.1L63.9,61.1L63.9,60.6L62.9,60.6L62.9,59.6L62.4,59.6L62.4,58.6L61.9,58.6L61.9,58.1L60.4,58.1L60.4,57.6L58.9,57.6L58.9,57.1L58.5,57.1L58.5,56.9L59.1,56.9L59.1,57.4L60.6,57.4L60.6,57.9L62.1,57.9L62.1,58.4L62.6,58.4L62.6,59.4L63.1,59.4L63.1,60.4L64.1,60.4L64.1,60.9L65.6,60.9L65.6,61.9L67.1,61.9L67.1,64.6L66.1,64.6L66.1,65.1L50.6,65.1L50.6,65.6L50.1,65.6L50.1,66.4L50.6,66.4L50.6,71.1L50.1,71.1L50.1,72.1L49.6,72.1L49.6,73.1L49.1,73.1L49.1,73.6L48.6,73.6L48.6,74.6L48.1,74.6L48.1,75.1L47.1,75.1L47.1,75.6L46.6,75.6L46.6,103.4L97.4,103.4L97.4,100.1L96.9,100.1L96.9,98.6L95.9,98.6L95.9,98.1L95.4,98.1L95.4,96.1L94.9,96.1L94.9,95.6L94.4,95.6L94.4,95.1L92.4,95.1L92.4,94.6L91.4,94.6L91.4,94.1L90.9,94.1L90.9,93.6L90.4,93.6L90.4,92.6L89.9,92.6L89.9,91.6L88.9,91.6L88.9,90.1L87.4,90.1L87.4,89.1L86.9,89.1L86.9,86.1L86.4,86.1L86.4,85.1L85.9,85.1L85.9,84.1L85.4,84.1L85.4,83.1L83.9,83.1L83.9,82.6L81.9,82.6L81.9,81.6L81.4,81.6L81.4,80.1L80.9,80.1z" stroke="none"/><path d="M7.6,16.5L7.4,16.5L7.4,13.1L6.9,13.1L6.9,11.6L6.4,11.6L6.4,10.6L5.9,10.6L5.9,9.1L4.9,9.1L4.9,8.6L4.4,8.6L4.4,8.1L3.9,8.1L3.9,5.1L2.6,5.1L2.6,5.6L2.1,5.6L2.1,6.1L1.1,6.1L1.1,103.9L2.1,103.9L2.1,104.4L33.9,104.4L33.9,103.9L34.4,103.9L34.4,103.4L34.9,103.4L34.9,102.9L35.4,102.9L35.4,102.4L35.9,102.4L35.9,101.9L38.9,101.9L38.9,71.6L38.4,71.6L38.4,70.6L37.4,70.6L37.4,70.1L36.9,70.1L36.9,69.6L36.4,69.6L36.4,66.9L36.9,66.9L36.9,66.4L43.4,66.4L43.4,65.9L43.9,65.9L43.9,65.4L44.9,65.4L44.9,64.9L45.4,64.9L45.4,63.9L45.9,63.9L45.9,61.1L45.4,61.1L45.4,60.6L44.4,60.6L44.4,59.6L42.4,59.6L42.4,59.1L40.9,59.1L40.9,58.1L40.4,58.1L40.4,57.6L39.4,57.6L39.4,54.1L38.4,54.1L38.4,52.1L37.9,52.1L37.9,51.6L35.9,51.6L35.9,51.1L34.9,51.1L34.9,50.6L33.4,50.6L33.4,49.6L29.4,49.6L29.4,47.6L28.9,47.6L28.9,46.6L28.4,46.6L28.4,40.5L28.6,40.5L28.6,46.4L29.1,46.4L29.1,47.4L29.6,47.4L29.6,49.4L33.6,49.4L33.6,50.4L35.1,50.4L35.1,50.9L36.1,50.9L36.1,51.4L38.1,51.4L38.1,51.9L38.6,51.9L38.6,53.9L39.6,53.9L39.6,57.4L40.6,57.4L40.6,57.9L41.1,57.9L41.1,58.9L42.6,58.9L42.6,59.4L44.6,59.4L44.6,60.4L45.6,60.4L45.6,60.9L46.1,60.9L46.1,64.1L45.6,64.1L45.6,65.1L45.1,65.1L45.1,65.6L44.1,65.6L44.1,66.1L43.6,66.1L43.6,66.6L37.1,66.6L37.1,67.1L36.6,67.1L36.6,69.4L37.1,69.4L37.1,69.9L37.6,69.9L37.6,70.4L38.6,70.4L38.6,71.4L39.1,71.4L39.1,102.1L36.1,102.1L36.1,102.6L35.6,102.6L35.6,103.1L35.1,103.1L35.1,103.6L34.6,103.6L34.6,104.1L34.1,104.1L34.1,104.6L1.9,104.6L1.9,104.1L0.9,104.1L0.9,5.9L1.9,5.9L1.9,5.4L2.4,5.4L2.4,4.9L4.1,4.9L4.1,7.9L4.6,7.9L4.6,8.4L5.1,8.4L5.1,8.9L6.1,8.9L6.1,10.4L6.6,10.4L6.6,11.4L7.1,11.4L7.1,12.9L7.6,12.9z" stroke="none"/><path d="M77.9,70.5L78.1,70.5L78.1,74.4L78.6,74.4L78.6,75.4L80.1,75.4L80.1,76.4L81.1,76.4L81.1,76.9L81.6,76.9L81.6,77.4L82.1,77.4L82.1,77.9L82.6,77.9L82.6,78.9L83.1,78.9L83.1,79.9L84.6,79.9L84.6,81.4L85.6,81.4L85.6,82.4L87.1,82.4L87.1,83.9L87.6,83.9L87.6,85.4L88.1,85.4L88.1,86.4L88.6,86.4L88.6,87.9L89.6,87.9L89.6,88.4L90.1,88.4L90.1,89.4L91.1,89.4L91.1,90.9L91.6,90.9L91.6,93.4L92.6,93.4L92.6,93.9L93.1,93.9L93.1,94.4L95.6,94.4L95.6,94.9L96.1,94.9L96.1,96.4L97.6,96.4L97.6,98.9L98.1,98.9L98.1,100.9L99.1,100.9L99.1,101.9L99.6,101.9L99.6,102.4L100.6,102.4L100.6,102.9L102.4,102.9L102.4,102.4L102.9,102.4L102.9,50.6L102.4,50.6L102.4,49.6L101.4,49.6L101.4,49.1L100.9,49.1L100.9,48.1L100.4,48.1L100.4,45.6L98.9,45.6L98.9,44.6L98.4,44.6L98.4,44.1L97.4,44.1L97.4,43.5L97.6,43.5L97.6,43.9L98.6,43.9L98.6,44.4L99.1,44.4L99.1,45.4L100.6,45.4L100.6,47.9L101.1,47.9L101.1,48.9L101.6,48.9L101.6,49.4L102.6,49.4L102.6,50.4L103.1,50.4L103.1,102.6L102.6,102.6L102.6,103.1L100.4,103.1L100.4,102.6L99.4,102.6L99.4,102.1L98.9,102.1L98.9,101.1L97.9,101.1L97.9,99.1L97.4,99.1L97.4,96.6L95.9,96.6L95.9,95.1L95.4,95.1L95.4,94.6L92.9,94.6L92.9,94.1L92.4,94.1L92.4,93.6L91.4,93.6L91.4,91.1L90.9,91.1L90.9,89.6L89.9,89.6L89.9,88.6L89.4,88.6L89.4,88.1L88.4,88.1L88.4,86.6L87.9,86.6L87.9,85.6L87.4,85.6L87.4,84.1L86.9,84.1L86.9,82.6L85.4,82.6L85.4,81.6L84.4,81.6L84.4,80.1L82.9,80.1L82.9,79.1L82.4,79.1L82.4,78.1L81.9,78.1L81.9,77.6L81.4,77.6L81.4,77.1L80.9,77.1L80.9,76.6L79.9,76.6L79.9,75.6L78.4,75.6L78.4,74.6L77.9,74.6z" stroke="none"/><path d="M24,33.1L24,32.9L28.9,32.9L28.9,32.4L29.9,32.4L29.9,31.9L30.9,31.9L30.9,30.4L31.4,30.4L31.4,29.4L32.4,29.4L32.4,28.9L33.4,28.9L33.4,28.4L33.9,28.4L33.9,27.9L35.9,27.9L35.9,27.4L36.4,27.4L36.4,26.9L37.4,26.9L37.4,26.4L40.9,26.4L40.9,25.9L41.4,25.9L41.4,23.9L42.9,23.9L42.9,22.9L43.4,22.9L43.4,21.4L43.9,21.4L43.9,19.4L44.4,19.4L44.4,17.9L45.4,17.9L45.4,17.4L45.9,17.4L45.9,16.9L46.9,16.9L46.9,16.4L47.4,16.4L47.4,15.9L47.9,15.9L47.9,14.4L48.4,14.4L48.4,9.4L48.9,9.4L48.9,4.1L48.4,4.1L48.4,3.6L37.4,3.6L37.4,2.6L36.4,2.6L36.4,2.1L11.6,2.1L11.6,2.6L8.6,2.6L8.6,3.1L7.5,3.1L7.5,2.9L8.4,2.9L8.4,2.4L11.4,2.4L11.4,1.9L36.6,1.9L36.6,2.4L37.6,2.4L37.6,3.4L48.6,3.4L48.6,3.9L49.1,3.9L49.1,9.6L48.6,9.6L48.6,14.6L48.1,14.6L48.1,16.1L47.6,16.1L47.6,16.6L47.1,16.6L47.1,17.1L46.1,17.1L46.1,17.6L45.6,17.6L45.6,18.1L44.6,18.1L44.6,19.6L44.1,19.6L44.1,21.6L43.6,21.6L43.6,23.1L43.1,23.1L43.1,24.1L41.6,24.1L41.6,26.1L41.1,26.1L41.1,26.6L37.6,26.6L37.6,27.1L36.6,27.1L36.6,27.6L36.1,27.6L36.1,28.1L34.1,28.1L34.1,28.6L33.6,28.6L33.6,29.1L32.6,29.1L32.6,29.6L31.6,29.6L31.6,30.6L31.1,30.6L31.1,32.1L30.1,32.1L30.1,32.6L29.1,32.6L29.1,33.1z" stroke="none"/><path d="M67.5,2.9L67.5,3.1L62.4,3.1L62.4,2.6L61.4,2.6L61.4,2.1L60.4,2.1L60.4,1.6L50.1,1.6L50.1,2.1L49.6,2.1L49.6,23.1L48.1,23.1L48.1,24.6L46.6,24.6L46.6,25.1L46.1,25.1L46.1,27.1L44.1,27.1L44.1,28.1L43.6,28.1L43.6,28.5L43.4,28.5L43.4,27.9L43.9,27.9L43.9,26.9L45.9,26.9L45.9,24.9L46.4,24.9L46.4,24.4L47.9,24.4L47.9,22.9L49.4,22.9L49.4,1.9L49.9,1.9L49.9,1.4L60.6,1.4L60.6,1.9L61.6,1.9L61.6,2.4L62.6,2.4L62.6,2.9z" stroke="none"/><path d="M16.6,72L16.4,72L16.4,52.4L20.4,52.4L20.4,51.4L20.9,51.4L20.9,50.9L21.4,50.9L21.4,50.4L22.4,50.4L22.4,49.4L23.9,49.4L23.9,48.4L24.9,48.4L24.9,44.4L25.4,44.4L25.4,43.9L25.9,43.9L25.9,43.4L26.4,43.4L26.4,41.9L26.9,41.9L26.9,39.9L27.4,39.9L27.4,39.4L34.1,39.4L34.1,39.9L36.1,39.9L36.1,40.4L37.6,40.4L37.6,42.9L39.1,42.9L39.1,43.5L38.9,43.5L38.9,43.1L37.4,43.1L37.4,40.6L35.9,40.6L35.9,40.1L33.9,40.1L33.9,39.6L27.6,39.6L27.6,40.1L27.1,40.1L27.1,42.1L26.6,42.1L26.6,43.6L26.1,43.6L26.1,44.1L25.6,44.1L25.6,44.6L25.1,44.6L25.1,48.6L24.1,48.6L24.1,49.6L22.6,49.6L22.6,50.6L21.6,50.6L21.6,51.1L21.1,51.1L21.1,51.6L20.6,51.6L20.6,52.6L16.6,52.6z" stroke="none"/></svg>