<svg version="1.1" width="105" height="105" xmlns="http://www.w3.org/2000/svg"><path d="M75.9,65.9L75.9,55.4L76.4,55.4L76.4,54.9L78.9,54.9L78.9,53.9L80.9,53.9L80.9,52.9L81.4,52.9L81.4,50.9L84,50.9L84,51.1L81.6,51.1L81.6,53.1L81.1,53.1L81.1,54.1L79.1,54.1L79.1,55.1L76.6,55.1L76.6,55.6L76.1,55.6L76.1,73.1L75.1,73.1L75.1,73.6L74.6,73.6L74.6,74.1L74.1,74.1L74.1,76.6L73.1,76.6L73.1,79.1L72.1,79.1L72.1,79.6L70.6,79.6L70.6,81L70.4,81L70.4,79.4L71.9,79.4L71.9,78.9L72.9,78.9L72.9,76.4L73.9,76.4L73.9,73.9L74.4,73.9L74.4,73.4L74.9,73.4L74.9,72.9L75.9,72.9L75.9,66.1L73.5,66.1L73.5,65.9z" stroke="none"/><path d="M79.4,22.5L79.6,22.5L79.6,32.4L80.6,32.4L80.6,33.9L81.1,33.9L81.1,34.4L82.5,34.4L82.5,34.6L80.9,34.6L80.9,34.1L80.4,34.1L80.4,32.6L79.6,32.6L79.6,37.6L78.6,37.6L78.6,39.1L76.6,39.1L76.6,40.5L76.4,40.5L76.4,38.9L78.4,38.9L78.4,37.4L79.4,37.4z" stroke="none"/><path d="M22.4,58.9L22.4,56.6L20.9,56.6L20.9,56.1L20.4,56.1L20.4,54.1L19.5,54.1L19.5,53.9L20.6,53.9L20.6,55.9L21.1,55.9L21.1,56.4L22.6,56.4L22.6,60.4L23.1,60.4L23.1,61.4L23.6,61.4L23.6,62.4L25.1,62.4L25.1,62.9L25.6,62.9L25.6,65.4L26.6,65.4L26.6,65.9L27.1,65.9L27.1,66.4L27.6,66.4L27.6,68.4L28.6,68.4L28.6,68.9L29.6,68.9L29.6,69.9L31.6,69.9L31.6,70.5L31.4,70.5L31.4,70.1L29.4,70.1L29.4,69.1L28.4,69.1L28.4,68.6L27.4,68.6L27.4,66.6L26.9,66.6L26.9,66.1L26.4,66.1L26.4,65.6L25.4,65.6L25.4,63.1L24.9,63.1L24.9,62.6L23.4,62.6L23.4,61.6L22.9,61.6L22.9,60.6L22.4,60.6L22.4,59.1L20.9,59.1L20.9,57.6L20.4,57.6L20.4,57.1L19.9,57.1L19.9,55.6L19.4,55.6L19.4,55.1L17.4,55.1L17.4,54.6L16.9,54.6L16.9,52.6L16.5,52.6L16.5,52.4L17.1,52.4L17.1,54.4L17.6,54.4L17.6,54.9L19.6,54.9L19.6,55.4L20.1,55.4L20.1,56.9L20.6,56.9L20.6,57.4L21.1,57.4L21.1,58.9z" stroke="none"/><path d="M86.4,86.1L85.9,86.1L85.9,83.1L85.4,83.1L85.4,82.5L85.6,82.5L85.6,82.9L86.1,82.9L86.1,85.9L86.6,85.9L86.6,88.4L93,88.4L93,88.6L86.6,88.6L86.6,89.1L86.1,89.1L86.1,95.6L83.6,95.6L83.6,96.1L81,96.1L81,95.9L83.4,95.9L83.4,95.4L85.9,95.4L85.9,88.9L86.4,88.9z" stroke="none"/><path d="M30.9,82.9L30.9,76.4L31.5,76.4L31.5,76.6L31.1,76.6L31.1,91.9L33.6,91.9L33.6,93.4L34.1,93.4L34.1,93.9L35.6,93.9L35.6,94.4L43.5,94.4L43.5,94.6L35.4,94.6L35.4,94.1L33.9,94.1L33.9,93.6L33.4,93.6L33.4,92.1L30.9,92.1L30.9,83.1L30.4,83.1L30.4,77.6L29.9,77.6L29.9,76.1L28.9,76.1L28.9,75.6L23.6,75.6L23.6,76.1L22.1,76.1L22.1,77.1L21.1,77.1L21.1,77.6L18.1,77.6L18.1,78L17.9,78L17.9,77.4L20.9,77.4L20.9,76.9L21.9,76.9L21.9,75.9L23.4,75.9L23.4,75.4L29.1,75.4L29.1,75.9L30.1,75.9L30.1,77.4L30.6,77.4L30.6,82.9z" stroke="none"/><path d="M91.9,67.9L91.9,67.4L96.4,67.4L96.4,65.4L96.9,65.4L96.9,64.4L99.4,64.4L99.4,63.9L99.9,63.9L99.9,63.4L100.4,63.4L100.4,63L100.6,63L100.6,63.6L100.1,63.6L100.1,64.1L99.6,64.1L99.6,64.6L97.1,64.6L97.1,65.6L96.6,65.6L96.6,67.6L92.1,67.6L92.1,67.9L98.4,67.9L98.4,66.9L98.9,66.9L98.9,66L99.1,66L99.1,67.1L98.6,67.1L98.6,68.1L88.1,68.1L88.1,68.6L84.1,68.6L84.1,69.1L83.6,69.1L83.6,69.6L83.1,69.6L83.1,71.1L82.6,71.1L82.6,72.1L82.1,72.1L82.1,72.6L79.1,72.6L79.1,74.1L78.6,74.1L78.6,74.6L78.1,74.6L78.1,75.1L76.5,75.1L76.5,74.9L77.9,74.9L77.9,74.4L78.4,74.4L78.4,73.9L78.9,73.9L78.9,72.4L81.9,72.4L81.9,71.9L82.4,71.9L82.4,70.9L82.9,70.9L82.9,69.4L83.4,69.4L83.4,68.9L83.9,68.9L83.9,68.4L87.9,68.4L87.9,67.9z" stroke="none"/><path d="M21.4,26.4L21.4,26.1L20.9,26.1L20.9,25.6L19.9,25.6L19.9,24.6L19.4,24.6L19.4,23.6L18.9,23.6L18.9,23.1L18.4,23.1L18.4,22.1L17.9,22.1L17.9,19.6L17.4,19.6L17.4,18.6L16.4,18.6L16.4,18L16.6,18L16.6,18.4L17.6,18.4L17.6,19.4L18.1,19.4L18.1,21.9L18.6,21.9L18.6,22.9L19.1,22.9L19.1,23.4L19.6,23.4L19.6,24.4L20.1,24.4L20.1,25.4L21.1,25.4L21.1,25.9L21.6,25.9L21.6,27.9L23.1,27.9L23.1,28.4L25.6,28.4L25.6,28.9L27.6,28.9L27.6,29.4L28.1,29.4L28.1,29.9L28.6,29.9L28.6,30.9L31.1,30.9L31.1,31.4L32.1,31.4L32.1,31.9L33.1,31.9L33.1,32.4L34.1,32.4L34.1,32.9L34.5,32.9L34.5,33.1L33.9,33.1L33.9,32.6L32.9,32.6L32.9,32.1L31.9,32.1L31.9,31.6L30.9,31.6L30.9,31.1L28.4,31.1L28.4,30.1L27.9,30.1L27.9,29.6L27.4,29.6L27.4,29.1L25.4,29.1L25.4,28.6L22.9,28.6L22.9,28.1L21.4,28.1L21.4,26.6L13.6,26.6L13.6,28.5L13.4,28.5L13.4,26.4z" stroke="none"/><path d="M27.4,77.9L27.4,77.4L27.9,77.4L27.9,76.9L28.4,76.9L28.4,76.5L28.6,76.5L28.6,77.1L28.1,77.1L28.1,77.6L27.6,77.6L27.6,78.1L19.6,78.1L19.6,83.9L20.1,83.9L20.1,84.9L20.6,84.9L20.6,86.4L22.1,86.4L22.1,86.9L22.5,86.9L22.5,87.1L21.9,87.1L21.9,86.6L20.4,86.6L20.4,85.1L19.9,85.1L19.9,84.1L19.4,84.1L19.4,78.1L19.1,78.1L19.1,78.6L18.6,78.6L18.6,79.1L13.9,79.1L13.9,77.6L11.4,77.6L11.4,76.6L10.4,76.6L10.4,75.1L9.9,75.1L9.9,74.1L8.9,74.1L8.9,73.1L8.4,73.1L8.4,72.6L7.4,72.6L7.4,72.1L6.9,72.1L6.9,71.6L6.4,71.6L6.4,71.1L5.9,71.1L5.9,70.5L6.1,70.5L6.1,70.9L6.6,70.9L6.6,71.4L7.1,71.4L7.1,71.9L7.6,71.9L7.6,72.4L8.6,72.4L8.6,72.9L9.1,72.9L9.1,73.9L10.1,73.9L10.1,74.9L10.6,74.9L10.6,76.4L11.6,76.4L11.6,77.4L14.1,77.4L14.1,78.9L18.4,78.9L18.4,78.4L18.9,78.4L18.9,77.9z" stroke="none"/><path d="M94.6,46.9L94.6,47.4L98.6,47.4L98.6,47.9L99,47.9L99,48.1L98.4,48.1L98.4,47.6L94.4,47.6L94.4,47.1L86.6,47.1L86.6,57.9L87.1,57.9L87.1,58.5L86.9,58.5L86.9,58.1L86.4,58.1L86.4,47.1L79.4,47.1L79.4,46.6L78.4,46.6L78.4,43.6L76.9,43.6L76.9,41.6L75.9,41.6L75.9,41.1L75.4,41.1L75.4,38.6L73.9,38.6L73.9,34.6L73.5,34.6L73.5,34.4L74.1,34.4L74.1,38.4L75.6,38.4L75.6,40.9L76.1,40.9L76.1,41.4L77.1,41.4L77.1,43.4L78.6,43.4L78.6,46.4L79.6,46.4L79.6,46.9z" stroke="none"/><path d="M64.9,74.9L65.4,74.9L65.4,74.4L67.9,74.4L67.9,73.9L68.4,73.9L68.4,73.4L69,73.4L69,73.6L68.6,73.6L68.6,74.1L68.1,74.1L68.1,74.6L65.6,74.6L65.6,75.1L65.1,75.1L65.1,89.9L71.1,89.9L71.1,90.4L71.6,90.4L71.6,90.9L73.6,90.9L73.6,91.4L74.6,91.4L74.6,92.9L75.1,92.9L75.1,93.9L76.6,93.9L76.6,94.5L76.4,94.5L76.4,94.1L74.9,94.1L74.9,93.1L74.4,93.1L74.4,91.6L73.4,91.6L73.4,91.1L71.4,91.1L71.4,90.6L70.9,90.6L70.9,90.1L65.1,90.1L65.1,97.6L62.6,97.6L62.6,98.1L59.6,98.1L59.6,98.6L58.1,98.6L58.1,99.6L57.6,99.6L57.6,100.1L55.6,100.1L55.6,101.6L51.6,101.6L51.6,102.1L49.5,102.1L49.5,101.9L51.4,101.9L51.4,101.4L55.4,101.4L55.4,99.9L57.4,99.9L57.4,99.4L57.9,99.4L57.9,98.4L59.4,98.4L59.4,97.9L62.4,97.9L62.4,97.4L64.9,97.4z" stroke="none"/><path d="M68.4,33.4L68.4,31.9L68.9,31.9L68.9,31.5L69.1,31.5L69.1,32.1L68.6,32.1L68.6,33.4L69.1,33.4L69.1,36.4L69.6,36.4L69.6,36.9L70.6,36.9L70.6,37.9L71.6,37.9L71.6,38.4L72.1,38.4L72.1,38.9L72.6,38.9L72.6,40.9L73.6,40.9L73.6,41.4L74.1,41.4L74.1,42.9L74.6,42.9L74.6,43.4L75.6,43.4L75.6,44.9L76.1,44.9L76.1,45.4L76.6,45.4L76.6,45.9L77.6,45.9L77.6,46.4L78.1,46.4L78.1,46.9L79.1,46.9L79.1,47.4L79.6,47.4L79.6,48L79.4,48L79.4,47.6L78.9,47.6L78.9,47.1L77.9,47.1L77.9,46.6L77.4,46.6L77.4,46.1L76.4,46.1L76.4,45.6L75.9,45.6L75.9,45.1L75.4,45.1L75.4,43.6L74.4,43.6L74.4,43.1L73.9,43.1L73.9,41.6L73.4,41.6L73.4,41.1L72.4,41.1L72.4,39.1L71.9,39.1L71.9,38.6L71.4,38.6L71.4,38.1L70.4,38.1L70.4,37.1L69.4,37.1L69.4,36.6L68.9,36.6L68.9,33.6L68.6,33.6L68.6,34.1L67.4,34.1L67.4,33.6L66.9,33.6L66.9,27.1L65.9,27.1L65.9,25.1L64.9,25.1L64.9,24.6L62.9,24.6L62.9,24.1L58.5,24.1L58.5,23.9L63.1,23.9L63.1,24.4L65.1,24.4L65.1,24.9L66.1,24.9L66.1,26.9L67.1,26.9L67.1,33.4L67.6,33.4L67.6,33.9L68.4,33.9L68.4,33.6L67.9,33.6L67.9,31.6L67.5,31.6L67.5,31.4L68.1,31.4L68.1,33.4z" stroke="none"/><path d="M37.4,61.9L37.4,60.4L37.9,60.4L37.9,59.9L39,59.9L39,60.1L38.1,60.1L38.1,60.6L37.6,60.6L37.6,61.9L45.1,61.9L45.1,62.4L48.1,62.4L48.1,63L47.9,63L47.9,62.6L44.9,62.6L44.9,62.1L37.6,62.1L37.6,68.6L37.1,68.6L37.1,69.1L36.6,69.1L36.6,69.6L36.1,69.6L36.1,70.1L33.6,70.1L33.6,70.6L33.1,70.6L33.1,71.1L32.6,71.1L32.6,71.6L29.4,71.6L29.4,71.1L28.4,71.1L28.4,70.1L27.4,70.1L27.4,69.6L26.9,69.6L26.9,69L27.1,69L27.1,69.4L27.6,69.4L27.6,69.9L28.6,69.9L28.6,70.9L29.6,70.9L29.6,71.4L32.4,71.4L32.4,70.9L32.9,70.9L32.9,70.4L33.4,70.4L33.4,69.9L35.9,69.9L35.9,69.4L36.4,69.4L36.4,68.9L36.9,68.9L36.9,68.4L37.4,68.4L37.4,62.1L36.9,62.1L36.9,57.6L35.9,57.6L35.9,57L36.1,57L36.1,57.4L37.1,57.4L37.1,61.9z" stroke="none"/><path d="M76.9,91.9L76.9,91.4L80.9,91.4L80.9,89.9L81.4,89.9L81.4,89.4L81.9,89.4L81.9,85.4L82.5,85.4L82.5,85.6L82.1,85.6L82.1,89.6L81.6,89.6L81.6,90.1L81.1,90.1L81.1,91.6L77.1,91.6L77.1,91.9L77.6,91.9L77.6,92.4L78.6,92.4L78.6,92.9L79.5,92.9L79.5,93.1L78.4,93.1L78.4,92.6L77.4,92.6L77.4,92.1L77.1,92.1L77.1,92.9L78.1,92.9L78.1,94.4L78.6,94.4L78.6,95.9L79.6,95.9L79.6,96.9L81.9,96.9L81.9,96.4L85.4,96.4L85.4,95.9L86.4,95.9L86.4,90.4L86.9,90.4L86.9,90L87.1,90L87.1,90.6L86.6,90.6L86.6,96.1L85.6,96.1L85.6,96.6L82.1,96.6L82.1,97.1L79.4,97.1L79.4,96.1L78.4,96.1L78.4,94.6L77.9,94.6L77.9,93.1L76.9,93.1L76.9,92.1L76.6,92.1L76.6,93.4L77.1,93.4L77.1,93.9L77.6,93.9L77.6,95.6L76.1,95.6L76.1,96.1L74.6,96.1L74.6,97.1L74.1,97.1L74.1,97.6L68.1,97.6L68.1,98.1L63.6,98.1L63.6,98.6L62.6,98.6L62.6,100.1L61.1,100.1L61.1,100.6L60,100.6L60,100.4L60.9,100.4L60.9,99.9L62.4,99.9L62.4,98.4L63.4,98.4L63.4,97.9L67.9,97.9L67.9,97.4L73.9,97.4L73.9,96.9L74.4,96.9L74.4,95.9L75.9,95.9L75.9,95.4L77.4,95.4L77.4,94.1L76.9,94.1L76.9,93.6L76.4,93.6L76.4,91.9z" stroke="none"/><path d="M58.4,48.4L58.4,48.1L55.9,48.1L55.9,46.6L54.4,46.6L54.4,45.6L52.4,45.6L52.4,45L52.6,45L52.6,45.4L54.6,45.4L54.6,46.4L56.1,46.4L56.1,47.9L58.6,47.9L58.6,48.4L58.9,48.4L58.9,26.1L57.9,26.1L57.9,24.6L57.4,24.6L57.4,22.9L65.1,22.9L65.1,23.4L65.6,23.4L65.6,23.9L66.1,23.9L66.1,24.4L66.6,24.4L66.6,26.4L67.6,26.4L67.6,26.9L68.1,26.9L68.1,27.4L68.6,27.4L68.6,27.9L70.6,27.9L70.6,28.4L71.1,28.4L71.1,29.9L72.1,29.9L72.1,30.4L72.6,30.4L72.6,30.9L73.1,30.9L73.1,31.4L73.6,31.4L73.6,31.9L74.1,31.9L74.1,32.9L76.6,32.9L76.6,37.5L76.4,37.5L76.4,33.1L73.9,33.1L73.9,32.1L73.4,32.1L73.4,31.6L72.9,31.6L72.9,31.1L72.4,31.1L72.4,30.6L71.9,30.6L71.9,30.1L70.9,30.1L70.9,28.6L70.4,28.6L70.4,28.1L68.4,28.1L68.4,27.6L67.9,27.6L67.9,27.1L67.4,27.1L67.4,26.6L66.4,26.6L66.4,24.6L65.9,24.6L65.9,24.1L65.4,24.1L65.4,23.6L64.9,23.6L64.9,23.1L57.6,23.1L57.6,24.4L58.1,24.4L58.1,25.9L59.1,25.9L59.1,48.6L58.6,48.6L58.6,53.1L56.1,53.1L56.1,53.6L55.1,53.6L55.1,54.6L54.6,54.6L54.6,60.6L51.6,60.6L51.6,61.1L49.6,61.1L49.6,61.5L49.4,61.5L49.4,60.9L51.4,60.9L51.4,60.4L54.4,60.4L54.4,54.4L54.9,54.4L54.9,53.4L55.9,53.4L55.9,52.9L58.4,52.9L58.4,48.6L56.6,48.6L56.6,49.1L56.1,49.1L56.1,50.1L55.6,50.1L55.6,51L55.4,51L55.4,49.9L55.9,49.9L55.9,48.9L56.4,48.9L56.4,48.4z" stroke="none"/><path d="M81.4,15.9L81.4,13.4L82.4,13.4L82.4,12L82.6,12L82.6,13.6L81.6,13.6L81.6,15.9L83.6,15.9L83.6,16.9L84.1,16.9L84.1,17.4L84.6,17.4L84.6,18.4L85.1,18.4L85.1,18.9L91.1,18.9L91.1,19.4L91.5,19.4L91.5,19.6L90.9,19.6L90.9,19.1L84.9,19.1L84.9,18.6L84.4,18.6L84.4,17.6L83.9,17.6L83.9,17.1L83.4,17.1L83.4,16.1L81.6,16.1L81.6,21.4L84.1,21.4L84.1,22.9L84.6,22.9L84.6,24.4L85.6,24.4L85.6,25.5L85.4,25.5L85.4,24.6L84.4,24.6L84.4,23.1L83.9,23.1L83.9,21.6L81.4,21.6L81.4,16.1L76.9,16.1L76.9,15.1L75.9,15.1L75.9,14.6L75.4,14.6L75.4,13.1L73.4,13.1L73.4,11.6L72.4,11.6L72.4,10.1L69.4,10.1L69.4,9.6L68.4,9.6L68.4,9.1L67.4,9.1L67.4,7.5L67.6,7.5L67.6,8.9L68.6,8.9L68.6,9.4L69.6,9.4L69.6,9.9L72.6,9.9L72.6,11.4L73.6,11.4L73.6,12.9L75.6,12.9L75.6,14.4L76.1,14.4L76.1,14.9L77.1,14.9L77.1,15.9z" stroke="none"/><path d="M49.4,90.4L49.4,89.9L49.9,89.9L49.9,86.9L50.9,86.9L50.9,85.4L52.5,85.4L52.5,85.6L51.1,85.6L51.1,87.1L50.1,87.1L50.1,90.1L49.6,90.1L49.6,90.4L52.1,90.4L52.1,90.9L53.1,90.9L53.1,95.4L55.1,95.4L55.1,95.9L55.5,95.9L55.5,96.1L54.9,96.1L54.9,95.6L52.9,95.6L52.9,91.1L51.9,91.1L51.9,90.6L49.6,90.6L49.6,97.6L42.1,97.6L42.1,98.6L40.6,98.6L40.6,99.6L38.6,99.6L38.6,100.6L37.5,100.6L37.5,100.4L38.4,100.4L38.4,99.4L40.4,99.4L40.4,98.4L41.9,98.4L41.9,97.4L49.4,97.4L49.4,90.6L48.9,90.6L48.9,86.4L50.4,86.4L50.4,84.9L51.4,84.9L51.4,83.4L51.9,83.4L51.9,80.9L52.5,80.9L52.5,81.1L52.1,81.1L52.1,83.6L51.6,83.6L51.6,85.1L50.6,85.1L50.6,86.6L49.1,86.6L49.1,90.4z" stroke="none"/><path d="M94.9,12.4L94.9,11.9L99.4,11.9L99.4,10.4L100.4,10.4L100.4,9L100.6,9L100.6,10.6L99.6,10.6L99.6,12.1L95.1,12.1L95.1,12.4L99.6,12.4L99.6,14.9L100.5,14.9L100.5,15.1L99.4,15.1L99.4,12.6L95.1,12.6L95.1,12.9L97.1,12.9L97.1,13.9L98.1,13.9L98.1,14.9L98.6,14.9L98.6,15.4L100.6,15.4L100.6,16.4L101.1,16.4L101.1,16.9L101.6,16.9L101.6,17.4L102.1,17.4L102.1,18L101.9,18L101.9,17.6L101.4,17.6L101.4,17.1L100.9,17.1L100.9,16.6L100.4,16.6L100.4,15.6L98.4,15.6L98.4,15.1L97.9,15.1L97.9,14.1L96.9,14.1L96.9,13.1L94.9,13.1L94.9,12.6L89.4,12.6L89.4,12.1L88.9,12.1L88.9,11.1L88.4,11.1L88.4,10.6L81.9,10.6L81.9,9.6L78.4,9.6L78.4,9.1L78,9.1L78,8.9L78.6,8.9L78.6,9.4L82.1,9.4L82.1,10.4L88.6,10.4L88.6,10.9L89.1,10.9L89.1,11.9L89.6,11.9L89.6,12.4z" stroke="none"/><path d="M70.4,57.9L70.4,49.6L68.9,49.6L68.9,49.1L66.4,49.1L66.4,48.6L65.9,48.6L65.9,47.1L64.9,47.1L64.9,46.6L64.5,46.6L64.5,46.4L65.1,46.4L65.1,46.9L66.1,46.9L66.1,48.4L66.6,48.4L66.6,48.9L69.1,48.9L69.1,49.4L70.6,49.4L70.6,57.9L72.4,57.9L72.4,57.4L72.9,57.4L72.9,56.9L73.9,56.9L73.9,54.4L74.4,54.4L74.4,53.9L75.4,53.9L75.4,52.9L76.4,52.9L76.4,52.4L79.4,52.4L79.4,50.9L80.4,50.9L80.4,50.4L82.4,50.4L82.4,49.9L85.1,49.9L85.1,52.1L83.6,52.1L83.6,52.6L83.1,52.6L83.1,53.6L82.6,53.6L82.6,54.1L82.1,54.1L82.1,54.6L81.6,54.6L81.6,57.1L81.1,57.1L81.1,58.1L79.6,58.1L79.6,58.6L78,58.6L78,58.4L79.4,58.4L79.4,57.9L80.9,57.9L80.9,56.9L81.4,56.9L81.4,54.4L81.9,54.4L81.9,53.9L82.4,53.9L82.4,53.4L82.9,53.4L82.9,52.4L83.4,52.4L83.4,51.9L84.9,51.9L84.9,50.1L82.6,50.1L82.6,50.6L80.6,50.6L80.6,51.1L79.6,51.1L79.6,52.6L76.6,52.6L76.6,53.1L75.6,53.1L75.6,54.1L74.6,54.1L74.6,54.6L74.1,54.6L74.1,57.1L73.1,57.1L73.1,57.6L72.6,57.6L72.6,58.1L70.6,58.1L70.6,78.1L70.1,78.1L70.1,80.6L69.6,80.6L69.6,81.9L76.9,81.9L76.9,81.4L78.4,81.4L78.4,80.9L78.9,80.9L78.9,79.4L79.4,79.4L79.4,78.9L80.9,78.9L80.9,78.4L81.4,78.4L81.4,75.4L81.9,75.4L81.9,74.4L82.9,74.4L82.9,73.4L83.4,73.4L83.4,72.9L83.9,72.9L83.9,71.9L85.5,71.9L85.5,72.1L84.1,72.1L84.1,73.1L83.6,73.1L83.6,73.6L83.1,73.6L83.1,74.6L82.1,74.6L82.1,75.6L81.6,75.6L81.6,78.6L81.1,78.6L81.1,79.1L79.6,79.1L79.6,79.6L79.1,79.6L79.1,81.1L78.6,81.1L78.6,81.6L77.1,81.6L77.1,82.1L69.4,82.1L69.4,80.4L69.9,80.4L69.9,77.9L70.4,77.9L70.4,58.1L56.4,58.1L56.4,57.6L55.9,57.6L55.9,56.6L55.4,56.6L55.4,55.5L55.6,55.5L55.6,56.4L56.1,56.4L56.1,57.4L56.6,57.4L56.6,57.9z" stroke="none"/><path d="M46.9,83.4L46.9,81.9L47.4,81.9L47.4,81.4L48.4,81.4L48.4,79.4L49.4,79.4L49.4,78.9L51.9,78.9L51.9,78.4L55.1,78.4L55.1,80.4L55.6,80.4L55.6,80.9L57.1,80.9L57.1,81.9L57.6,81.9L57.6,82.9L58.1,82.9L58.1,83.4L58.6,83.4L58.6,84L58.4,84L58.4,83.6L57.9,83.6L57.9,83.1L57.4,83.1L57.4,82.1L56.9,82.1L56.9,81.1L55.4,81.1L55.4,80.6L54.9,80.6L54.9,78.6L52.1,78.6L52.1,79.1L49.6,79.1L49.6,79.6L48.6,79.6L48.6,81.6L47.6,81.6L47.6,82.1L47.1,82.1L47.1,83.4L47.6,83.4L47.6,92.6L46.6,92.6L46.6,93.1L46.1,93.1L46.1,93.6L45.6,93.6L45.6,96.1L44.6,96.1L44.6,96.6L44.1,96.6L44.1,97.1L32.9,97.1L32.9,96.1L31.5,96.1L31.5,95.9L33.1,95.9L33.1,96.9L43.9,96.9L43.9,96.4L44.4,96.4L44.4,95.9L45.4,95.9L45.4,93.4L45.9,93.4L45.9,92.9L46.4,92.9L46.4,92.4L47.4,92.4L47.4,83.6L47.1,83.6L47.1,84.1L39.4,84.1L39.4,81.6L38.9,81.6L38.9,80.6L37.4,80.6L37.4,80.1L36.9,80.1L36.9,77.4L58.4,77.4L58.4,76.4L61.5,76.4L61.5,76.6L58.6,76.6L58.6,77.6L37.1,77.6L37.1,79.9L37.6,79.9L37.6,80.4L39.1,80.4L39.1,81.4L39.6,81.4L39.6,83.9L46.9,83.9L46.9,83.6L45.4,83.6L45.4,82.6L43.4,82.6L43.4,81.6L42.4,81.6L42.4,80.6L41.9,80.6L41.9,80.1L40.4,80.1L40.4,79.1L38.9,79.1L38.9,78.6L37.9,78.6L37.9,78.1L37.5,78.1L37.5,77.9L38.1,77.9L38.1,78.4L39.1,78.4L39.1,78.9L40.6,78.9L40.6,79.9L42.1,79.9L42.1,80.4L42.6,80.4L42.6,81.4L43.6,81.4L43.6,82.4L45.6,82.4L45.6,83.4z" stroke="none"/><path d="M36.9,23.4L36.9,14.6L35.9,14.6L35.9,13.1L34.4,13.1L34.4,12.6L33.9,12.6L33.9,12.1L33,12.1L33,11.9L34.1,11.9L34.1,12.4L34.6,12.4L34.6,12.9L36.1,12.9L36.1,14.4L37.1,14.4L37.1,23.4L42.4,23.4L42.4,22.9L43.4,22.9L43.4,22.4L43.9,22.4L43.9,21.9L44.4,21.9L44.4,18.4L45.4,18.4L45.4,17.9L45.9,17.9L45.9,15.9L46.4,15.9L46.4,15.4L47.4,15.4L47.4,13.4L48,13.4L48,13.6L47.6,13.6L47.6,15.6L46.6,15.6L46.6,16.1L46.1,16.1L46.1,18.1L45.6,18.1L45.6,18.6L44.6,18.6L44.6,22.1L44.1,22.1L44.1,22.6L43.6,22.6L43.6,23.1L42.6,23.1L42.6,23.6L37.1,23.6L37.1,40.9L37.6,40.9L37.6,41.9L42,41.9L42,42.1L37.4,42.1L37.4,41.1L36.9,41.1L36.9,23.6L34.6,23.6L34.6,24.1L31.1,24.1L31.1,24.6L27.1,24.6L27.1,25.1L26.6,25.1L26.6,26.6L26.1,26.6L26.1,27.1L25.5,27.1L25.5,26.9L25.9,26.9L25.9,26.4L26.4,26.4L26.4,24.9L26.9,24.9L26.9,24.4L30.9,24.4L30.9,23.9L34.4,23.9L34.4,23.4z" stroke="none"/><path d="M40.4,75L40.6,75L40.6,76.5L40.4,76.5z" stroke="none"/><path d="M93,37.4L93,37.6L91.5,37.6L91.5,37.4z" stroke="none"/><path d="M58.5,3.1L58.5,2.9L59.1,2.9L59.1,3.4L60.1,3.4L60.1,3.9L60.6,3.9L60.6,4.4L61.5,4.4L61.5,4.6L60.4,4.6L60.4,4.1L59.9,4.1L59.9,3.6L58.9,3.6L58.9,3.1z" stroke="none"/><path d="M76.4,4.5L76.6,4.5L76.6,9L76.4,9z" stroke="none"/><path d="M72.1,90L71.9,90L71.9,85.5L72.1,85.5z" stroke="none"/><path d="M91.5,17.9L91.5,18.1L87,18.1L87,17.9z" stroke="none"/><path d="M75.1,37.5L74.9,37.5L74.9,35.1L74.4,35.1L74.4,33.6L73.1,33.6L73.1,34.1L72.6,34.1L72.6,34.6L72.1,34.6L72.1,35.1L71.1,35.1L71.1,36.1L70.5,36.1L70.5,35.9L70.9,35.9L70.9,34.9L71.9,34.9L71.9,34.4L72.4,34.4L72.4,33.9L72.9,33.9L72.9,33.4L74.6,33.4L74.6,34.9L75.1,34.9z" stroke="none"/><path d="M67.6,15L67.4,15L67.4,11.9L68.9,11.9L68.9,10.5L69.1,10.5L69.1,12.1L67.6,12.1z" stroke="none"/><path d="M87,85.6L87,85.4L89.6,85.4L89.6,86.4L90.1,86.4L90.1,86.9L91.5,86.9L91.5,87.1L89.9,87.1L89.9,86.6L89.4,86.6L89.4,85.6z" stroke="none"/><path d="M10.4,43.5L10.6,43.5L10.6,45.4L11.6,45.4L11.6,45.9L13.6,45.9L13.6,48L13.4,48L13.4,46.1L11.4,46.1L11.4,45.6L10.4,45.6z" stroke="none"/><path d="M19.4,93L19.6,93L19.6,95.1L16.6,95.1L16.6,96.1L15.1,96.1L15.1,97.5L14.9,97.5L14.9,95.9L16.4,95.9L16.4,94.9L19.4,94.9z" stroke="none"/><path d="M95.9,85.5L96.1,85.5L96.1,86.9L96.6,86.9L96.6,87.4L97.1,87.4L97.1,87.9L102.1,87.9L102.1,88.5L101.9,88.5L101.9,88.1L96.9,88.1L96.9,87.6L96.4,87.6L96.4,87.1L95.9,87.1z" stroke="none"/><path d="M81,10.4L81,10.6L73.5,10.6L73.5,10.4z" stroke="none"/><path d="M94.4,16.5L94.6,16.5L94.6,20.4L95.1,20.4L95.1,20.9L96.1,20.9L96.1,21.4L96.6,21.4L96.6,21.9L98.1,21.9L98.1,22.4L99,22.4L99,22.6L97.9,22.6L97.9,22.1L96.4,22.1L96.4,21.6L95.9,21.6L95.9,21.1L94.9,21.1L94.9,20.6L94.4,20.6z" stroke="none"/><path d="M8.9,39L9.1,39L9.1,46.5L8.9,46.5z" stroke="none"/><path d="M91.4,57L91.6,57L91.6,57.6L88.6,57.6L88.6,58.1L88.1,58.1L88.1,59.1L87.6,59.1L87.6,59.6L86.1,59.6L86.1,61.6L85.5,61.6L85.5,61.4L85.9,61.4L85.9,59.4L87.4,59.4L87.4,58.9L87.9,58.9L87.9,57.9L88.4,57.9L88.4,57.4L91.4,57.4z" stroke="none"/><path d="M47.9,3L48.1,3L48.1,7.9L48.6,7.9L48.6,8.4L49.6,8.4L49.6,10.5L49.4,10.5L49.4,8.6L48.4,8.6L48.4,8.1L47.9,8.1z" stroke="none"/><path d="M96,94.4L96,94.6L93.9,94.6L93.9,93.6L89.9,93.6L89.9,92.6L88.9,92.6L88.9,92.1L88.4,92.1L88.4,91.5L88.6,91.5L88.6,91.9L89.1,91.9L89.1,92.4L90.1,92.4L90.1,93.4L94.1,93.4L94.1,94.4z" stroke="none"/><path d="M15,7.6L15,7.4L19.9,7.4L19.9,5.9L22.4,5.9L22.4,4.5L22.6,4.5L22.6,6.1L20.1,6.1L20.1,7.6z" stroke="none"/><path d="M5.9,15L6.1,15L6.1,22.6L5.6,22.6L5.6,23.1L5.1,23.1L5.1,23.6L4.6,23.6L4.6,24L4.4,24L4.4,23.4L4.9,23.4L4.9,22.9L5.4,22.9L5.4,22.4L5.9,22.4z" stroke="none"/><path d="M14.9,12L15.1,12L15.1,19.1L14.6,19.1L14.6,19.6L13.1,19.6L13.1,20.6L12.6,20.6L12.6,21.1L12,21.1L12,20.9L12.4,20.9L12.4,20.4L12.9,20.4L12.9,19.4L14.4,19.4L14.4,18.9L14.9,18.9z" stroke="none"/><path d="M26.9,79.5L27.1,79.5L27.1,86.1L26.6,86.1L26.6,87.1L25.1,87.1L25.1,87.6L24.6,87.6L24.6,88.1L20.9,88.1L20.9,87.6L19.9,87.6L19.9,87.1L19.4,87.1L19.4,85.5L19.6,85.5L19.6,86.9L20.1,86.9L20.1,87.4L21.1,87.4L21.1,87.9L24.4,87.9L24.4,87.4L24.9,87.4L24.9,86.9L26.4,86.9L26.4,85.9L26.9,85.9z" stroke="none"/><path d="M95.9,78L96.1,78L96.1,84.6L95.6,84.6L95.6,85.1L95.1,85.1L95.1,86.9L95.6,86.9L95.6,87.4L96.1,87.4L96.1,88.5L95.9,88.5L95.9,87.6L95.4,87.6L95.4,87.1L94.9,87.1L94.9,84.9L95.4,84.9L95.4,84.4L95.9,84.4z" stroke="none"/><path d="M19.6,19.5L19.4,19.5L19.4,11.1L13.1,11.1L13.1,12.1L12,12.1L12,11.9L12.9,11.9L12.9,10.9L19.6,10.9z" stroke="none"/><path d="M100.4,55.5L100.6,55.5L100.6,61.6L96.1,61.6L96.1,62.1L93.6,62.1L93.6,62.6L93.1,62.6L93.1,63L92.9,63L92.9,62.4L93.4,62.4L93.4,61.9L95.9,61.9L95.9,61.4L100.4,61.4z" stroke="none"/><path d="M98.9,70.5L99.1,70.5L99.1,79.9L99.6,79.9L99.6,80.9L100.5,80.9L100.5,81.1L99.4,81.1L99.4,80.1L98.9,80.1z" stroke="none"/><path d="M33.1,61.5L32.9,61.5L32.9,58.9L33.4,58.9L33.4,57.9L33.9,57.9L33.9,56.9L34.4,56.9L34.4,56.4L35.4,56.4L35.4,55.9L37.6,55.9L37.6,56.4L40.1,56.4L40.1,56.9L40.6,56.9L40.6,57.4L42.1,57.4L42.1,57.9L43.6,57.9L43.6,58.5L43.4,58.5L43.4,58.1L41.9,58.1L41.9,57.6L40.4,57.6L40.4,57.1L39.9,57.1L39.9,56.6L37.4,56.6L37.4,56.1L35.6,56.1L35.6,56.6L34.6,56.6L34.6,57.1L34.1,57.1L34.1,58.1L33.6,58.1L33.6,59.1L33.1,59.1z" stroke="none"/><path d="M9.1,58.5L8.9,58.5L8.9,55.6L8.4,55.6L8.4,52.6L7.9,52.6L7.9,52.1L6.9,52.1L6.9,51.6L6.4,51.6L6.4,51.1L5.4,51.1L5.4,50.6L4.9,50.6L4.9,50.1L4.4,50.1L4.4,48L4.6,48L4.6,49.9L5.1,49.9L5.1,50.4L5.6,50.4L5.6,50.9L6.6,50.9L6.6,51.4L7.1,51.4L7.1,51.9L8.1,51.9L8.1,52.4L8.6,52.4L8.6,55.4L9.1,55.4z" stroke="none"/><path d="M45,73.6L45,73.4L52.1,73.4L52.1,73.9L55.1,73.9L55.1,74.9L57,74.9L57,75.1L54.9,75.1L54.9,74.1L51.9,74.1L51.9,73.6z" stroke="none"/><path d="M30,50.9L30,51.1L23.1,51.1L23.1,51.6L21.1,51.6L21.1,52.1L20.6,52.1L20.6,52.6L19.1,52.6L19.1,53.6L18.6,53.6L18.6,54.1L18,54.1L18,53.9L18.4,53.9L18.4,53.4L18.9,53.4L18.9,52.4L20.4,52.4L20.4,51.9L20.9,51.9L20.9,51.4L22.9,51.4L22.9,50.9z" stroke="none"/><path d="M65.9,18L66.1,18L66.1,23.4L66.6,23.4L66.6,23.9L69.6,23.9L69.6,24.9L70.6,24.9L70.6,25.4L71.1,25.4L71.1,25.9L72.1,25.9L72.1,26.4L74.1,26.4L74.1,26.9L75,26.9L75,27.1L73.9,27.1L73.9,26.6L71.9,26.6L71.9,26.1L70.9,26.1L70.9,25.6L70.4,25.6L70.4,25.1L69.4,25.1L69.4,24.1L66.4,24.1L66.4,23.6L65.9,23.6z" stroke="none"/><path d="M90.1,82.5L89.9,82.5L89.9,82.1L87.9,82.1L87.9,81.6L85.1,81.6L85.1,82.1L84.1,82.1L84.1,83.1L82.6,83.1L82.6,84.1L81.6,84.1L81.6,85.6L81.1,85.6L81.1,86.1L80.6,86.1L80.6,86.6L79.1,86.6L79.1,87.1L78,87.1L78,86.9L78.9,86.9L78.9,86.4L80.4,86.4L80.4,85.9L80.9,85.9L80.9,85.4L81.4,85.4L81.4,83.9L82.4,83.9L82.4,82.9L83.9,82.9L83.9,81.9L84.9,81.9L84.9,81.4L88.1,81.4L88.1,81.9L90.1,81.9z" stroke="none"/><path d="M27.1,61.5L26.9,61.5L26.9,56.9L28.9,56.9L28.9,56.4L30.4,56.4L30.4,54.4L30.9,54.4L30.9,53.9L33.4,53.9L33.4,52.9L33.9,52.9L33.9,50.9L34.5,50.9L34.5,51.1L34.1,51.1L34.1,53.1L33.6,53.1L33.6,54.1L31.1,54.1L31.1,54.6L30.6,54.6L30.6,56.6L29.1,56.6L29.1,57.1L27.1,57.1z" stroke="none"/><path d="M30,54.1L30,53.9L30.4,53.9L30.4,53.4L31.9,53.4L31.9,52.9L32.9,52.9L32.9,52.4L33.4,52.4L33.4,50.4L33.9,50.4L33.9,49.9L35.1,49.9L35.1,50.4L35.6,50.4L35.6,52.9L36.1,52.9L36.1,53.4L39.1,53.4L39.1,53.9L40.1,53.9L40.1,54.4L40.6,54.4L40.6,54.9L41.1,54.9L41.1,55.4L42.1,55.4L42.1,56.4L42.6,56.4L42.6,56.9L43.6,56.9L43.6,57.4L44.6,57.4L44.6,59.1L44.1,59.1L44.1,60.1L42,60.1L42,59.9L43.9,59.9L43.9,58.9L44.4,58.9L44.4,57.6L43.4,57.6L43.4,57.1L42.4,57.1L42.4,56.6L41.9,56.6L41.9,55.6L40.9,55.6L40.9,55.1L40.4,55.1L40.4,54.6L39.9,54.6L39.9,54.1L38.9,54.1L38.9,53.6L35.9,53.6L35.9,53.1L35.4,53.1L35.4,50.6L34.9,50.6L34.9,50.1L34.1,50.1L34.1,50.6L33.6,50.6L33.6,52.6L33.1,52.6L33.1,53.1L32.1,53.1L32.1,53.6L30.6,53.6L30.6,54.1z" stroke="none"/><path d="M93,75.1L93,74.9L95.4,74.9L95.4,70.9L96.9,70.9L96.9,69.4L97.9,69.4L97.9,68.9L98.4,68.9L98.4,68.4L98.9,68.4L98.9,67.9L99.4,67.9L99.4,67.4L100.4,67.4L100.4,66.9L100.9,66.9L100.9,66.4L101.4,66.4L101.4,62.1L100.1,62.1L100.1,62.6L99.1,62.6L99.1,63L98.9,63L98.9,62.4L99.9,62.4L99.9,61.9L101.6,61.9L101.6,66.6L101.1,66.6L101.1,67.1L100.6,67.1L100.6,67.6L99.6,67.6L99.6,68.1L99.1,68.1L99.1,68.6L98.6,68.6L98.6,69.1L98.1,69.1L98.1,69.6L97.1,69.6L97.1,71.1L95.6,71.1L95.6,75.1z" stroke="none"/><path d="M91.5,102.1L91.5,101.9L95.9,101.9L95.9,101.4L97.4,101.4L97.4,99.9L98.4,99.9L98.4,99.4L98.9,99.4L98.9,98.9L99.9,98.9L99.9,98.4L100.4,98.4L100.4,97.4L101.4,97.4L101.4,95.4L101.9,95.4L101.9,93L102.1,93L102.1,95.6L101.6,95.6L101.6,97.6L100.6,97.6L100.6,98.6L100.1,98.6L100.1,99.1L99.1,99.1L99.1,99.6L98.6,99.6L98.6,100.1L97.6,100.1L97.6,101.6L96.1,101.6L96.1,102.1z" stroke="none"/><path d="M84,67.6L84,67.4L87.9,67.4L87.9,66.4L88.4,66.4L88.4,65.9L89.4,65.9L89.4,64.4L89.9,64.4L89.9,62.9L90.4,62.9L90.4,62.4L92.4,62.4L92.4,61.9L92.9,61.9L92.9,61.4L93.4,61.4L93.4,60.9L93.9,60.9L93.9,59.9L94.4,59.9L94.4,57.9L94.9,57.9L94.9,56.9L95.4,56.9L95.4,56.4L95.9,56.4L95.9,55.9L96.9,55.9L96.9,55.4L98.9,55.4L98.9,54.9L99.9,54.9L99.9,54.4L101.1,54.4L101.1,54.9L101.6,54.9L101.6,60.9L102.1,60.9L102.1,67.1L101.6,67.1L101.6,67.6L101.1,67.6L101.1,68.6L100.1,68.6L100.1,69.1L99.1,69.1L99.1,69.6L98.6,69.6L98.6,70.1L98.1,70.1L98.1,71.1L97.6,71.1L97.6,72L97.4,72L97.4,70.9L97.9,70.9L97.9,69.9L98.4,69.9L98.4,69.4L98.9,69.4L98.9,68.9L99.9,68.9L99.9,68.4L100.9,68.4L100.9,67.4L101.4,67.4L101.4,66.9L101.9,66.9L101.9,61.1L101.4,61.1L101.4,55.1L100.9,55.1L100.9,54.6L100.1,54.6L100.1,55.1L99.1,55.1L99.1,55.6L97.1,55.6L97.1,56.1L96.1,56.1L96.1,56.6L95.6,56.6L95.6,57.1L95.1,57.1L95.1,58.1L94.6,58.1L94.6,60.1L94.1,60.1L94.1,61.1L93.6,61.1L93.6,61.6L93.1,61.6L93.1,62.1L92.6,62.1L92.6,62.6L90.6,62.6L90.6,63.1L90.1,63.1L90.1,64.6L89.6,64.6L89.6,66.1L88.6,66.1L88.6,66.6L88.1,66.6L88.1,67.6z" stroke="none"/><path d="M12,31.6L12,31.4L17.6,31.4L17.6,31.9L19.1,31.9L19.1,32.9L20.1,32.9L20.1,33.4L20.6,33.4L20.6,33.9L22.6,33.9L22.6,36.4L23.6,36.4L23.6,37.4L25.5,37.4L25.5,37.6L23.4,37.6L23.4,36.6L22.4,36.6L22.4,34.1L20.4,34.1L20.4,33.6L19.9,33.6L19.9,33.1L18.9,33.1L18.9,32.1L17.4,32.1L17.4,31.6z" stroke="none"/><path d="M6.1,43.5L5.9,43.5L5.9,40.4L6.4,40.4L6.4,39.4L7.9,39.4L7.9,37.9L17.9,37.9L17.9,37.4L18.9,37.4L18.9,35.9L19.5,35.9L19.5,36.1L19.1,36.1L19.1,37.6L18.1,37.6L18.1,38.1L8.1,38.1L8.1,39.6L6.6,39.6L6.6,40.6L6.1,40.6z" stroke="none"/><path d="M49.4,4.5L49.6,4.5L49.6,5.9L50.1,5.9L50.1,9.9L50.6,9.9L50.6,11.6L34.9,11.6L34.9,10.6L34.5,10.6L34.5,10.4L35.1,10.4L35.1,11.4L50.4,11.4L50.4,10.1L49.9,10.1L49.9,6.1L49.4,6.1z" stroke="none"/><path d="M91.5,74.9L91.5,75.1L87.9,75.1L87.9,72.6L87.4,72.6L87.4,72.1L86.9,72.1L86.9,71.6L86.4,71.6L86.4,71.1L83.6,71.1L83.6,72.6L82.6,72.6L82.6,73.1L80.6,73.1L80.6,73.6L80.1,73.6L80.1,74.1L79.6,74.1L79.6,75.6L77.1,75.6L77.1,76.1L74.9,76.1L74.9,75L75.1,75L75.1,75.9L76.9,75.9L76.9,75.4L79.4,75.4L79.4,73.9L79.9,73.9L79.9,73.4L80.4,73.4L80.4,72.9L82.4,72.9L82.4,72.4L83.4,72.4L83.4,70.9L86.6,70.9L86.6,71.4L87.1,71.4L87.1,71.9L87.6,71.9L87.6,72.4L88.1,72.4L88.1,74.9z" stroke="none"/><path d="M82.5,97.6L82.5,97.4L83.6,97.4L83.6,98.4L84.1,98.4L84.1,98.9L84.6,98.9L84.6,99.4L88.6,99.4L88.6,101.4L89.1,101.4L89.1,102.4L91.1,102.4L91.1,102.9L97.9,102.9L97.9,100.9L98.9,100.9L98.9,100.5L99.1,100.5L99.1,101.1L98.1,101.1L98.1,103.1L90.9,103.1L90.9,102.6L88.9,102.6L88.9,101.6L88.4,101.6L88.4,99.6L84.4,99.6L84.4,99.1L83.9,99.1L83.9,98.6L83.4,98.6L83.4,97.6z" stroke="none"/><path d="M9.1,97.5L8.9,97.5L8.9,81.6L7.4,81.6L7.4,81.1L3,81.1L3,80.9L7.6,80.9L7.6,81.4L9.1,81.4z" stroke="none"/><path d="M55.5,88.6L55.5,88.4L55.9,88.4L55.9,87.9L56.4,87.9L56.4,86.4L57.4,86.4L57.4,85.9L57.9,85.9L57.9,85.4L58.4,85.4L58.4,84.9L59.4,84.9L59.4,80.9L59.9,80.9L59.9,80.4L60.4,80.4L60.4,77.9L60.9,77.9L60.9,77.4L61.9,77.4L61.9,76.9L62.4,76.9L62.4,74.1L61.9,74.1L61.9,72.6L61.4,72.6L61.4,72L61.6,72L61.6,72.4L62.1,72.4L62.1,73.9L62.6,73.9L62.6,77.1L62.1,77.1L62.1,77.6L61.1,77.6L61.1,78.1L60.6,78.1L60.6,80.6L60.1,80.6L60.1,81.1L59.6,81.1L59.6,85.1L58.6,85.1L58.6,85.6L58.1,85.6L58.1,86.1L57.6,86.1L57.6,86.6L56.6,86.6L56.6,88.1L56.1,88.1L56.1,88.6z" stroke="none"/><path d="M27,4.4L27,4.6L24.6,4.6L24.6,5.1L24.1,5.1L24.1,5.6L23.6,5.6L23.6,6.6L22.1,6.6L22.1,7.1L21.6,7.1L21.6,8.1L16.1,8.1L16.1,8.6L13.6,8.6L13.6,9.6L12.1,9.6L12.1,10.6L11.6,10.6L11.6,11.1L11.1,11.1L11.1,15.9L13.6,15.9L13.6,16.5L13.4,16.5L13.4,16.1L10.9,16.1L10.9,10.9L11.4,10.9L11.4,10.4L11.9,10.4L11.9,9.4L13.4,9.4L13.4,8.4L15.9,8.4L15.9,7.9L21.4,7.9L21.4,6.9L21.9,6.9L21.9,6.4L23.4,6.4L23.4,5.4L23.9,5.4L23.9,4.9L24.4,4.9L24.4,4.4z" stroke="none"/><path d="M63,73.4L63,73.6L62.4,73.6L62.4,71.6L61.9,71.6L61.9,71.1L52.4,71.1L52.4,70.6L45,70.6L45,70.4L52.6,70.4L52.6,70.9L62.1,70.9L62.1,71.4L62.6,71.4L62.6,73.4z" stroke="none"/><path d="M13.6,84L13.4,84L13.4,80.6L11.9,80.6L11.9,78.1L10.9,78.1L10.9,77.1L9.9,77.1L9.9,76.1L9.4,76.1L9.4,75.1L8.9,75.1L8.9,74.6L8.4,74.6L8.4,73.6L7.9,73.6L7.9,73.1L6.4,73.1L6.4,72.1L5.9,72.1L5.9,71.6L5.4,71.6L5.4,71.1L4.9,71.1L4.9,69.9L5.4,69.9L5.4,69.4L8.4,69.4L8.4,68.4L8.9,68.4L8.9,66.9L9.4,66.9L9.4,66.4L9.9,66.4L9.9,65.4L11.9,65.4L11.9,64.5L12.1,64.5L12.1,65.6L10.1,65.6L10.1,66.6L9.6,66.6L9.6,67.1L9.1,67.1L9.1,68.6L8.6,68.6L8.6,69.6L5.6,69.6L5.6,70.1L5.1,70.1L5.1,70.9L5.6,70.9L5.6,71.4L6.1,71.4L6.1,71.9L6.6,71.9L6.6,72.9L8.1,72.9L8.1,73.4L8.6,73.4L8.6,74.4L9.1,74.4L9.1,74.9L9.6,74.9L9.6,75.9L10.1,75.9L10.1,76.9L11.1,76.9L11.1,77.9L12.1,77.9L12.1,80.4L13.6,80.4z" stroke="none"/><path d="M69,76.6L69,76.4L69.4,76.4L69.4,75.9L69.9,75.9L69.9,73.1L69.4,73.1L69.4,72.6L63.4,72.6L63.4,72.1L62.9,72.1L62.9,71.1L62.4,71.1L62.4,70.6L53.4,70.6L53.4,70.1L45.4,70.1L45.4,69.6L44.1,69.6L44.1,70.9L44.6,70.9L44.6,71.4L48.6,71.4L48.6,71.9L49.5,71.9L49.5,72.1L48.4,72.1L48.4,71.6L44.4,71.6L44.4,71.1L43.9,71.1L43.9,69.4L45.6,69.4L45.6,69.9L53.6,69.9L53.6,70.4L62.6,70.4L62.6,70.9L63.1,70.9L63.1,71.9L63.6,71.9L63.6,72.4L69.6,72.4L69.6,72.9L70.1,72.9L70.1,76.1L69.6,76.1L69.6,76.6z" stroke="none"/><path d="M55.5,7.6L55.5,7.4L63.9,7.4L63.9,6.4L68.9,6.4L68.9,5.9L69.9,5.9L69.9,5.4L70.9,5.4L70.9,4.9L71.9,4.9L71.9,4.4L73.4,4.4L73.4,3.4L73.9,3.4L73.9,2.9L75,2.9L75,3.1L74.1,3.1L74.1,3.6L73.6,3.6L73.6,4.6L72.1,4.6L72.1,5.1L71.1,5.1L71.1,5.6L70.1,5.6L70.1,6.1L69.1,6.1L69.1,6.6L64.1,6.6L64.1,7.6z" stroke="none"/><path d="M42.1,91.5L41.9,91.5L41.9,88.1L39.4,88.1L39.4,87.6L38.9,87.6L38.9,83.1L38.4,83.1L38.4,82.6L36.9,82.6L36.9,80.6L36.4,80.6L36.4,73.1L35.9,73.1L35.9,72.6L34.9,72.6L34.9,72.1L34.5,72.1L34.5,71.9L35.1,71.9L35.1,72.4L36.1,72.4L36.1,72.9L36.6,72.9L36.6,80.4L37.1,80.4L37.1,82.4L38.6,82.4L38.6,82.9L39.1,82.9L39.1,87.4L39.6,87.4L39.6,87.9L42.1,87.9z" stroke="none"/><path d="M31.5,46.6L31.5,46.4L33.6,46.4L33.6,47.4L35.1,47.4L35.1,49.4L35.6,49.4L35.6,49.9L37.1,49.9L37.1,50.4L39.1,50.4L39.1,50.9L39.6,50.9L39.6,52.4L40.1,52.4L40.1,53.4L42.6,53.4L42.6,54.4L43.1,54.4L43.1,55.4L44.1,55.4L44.1,55.9L45.1,55.9L45.1,60.4L45.6,60.4L45.6,61.4L46.5,61.4L46.5,61.6L45.4,61.6L45.4,60.6L44.9,60.6L44.9,56.1L43.9,56.1L43.9,55.6L42.9,55.6L42.9,54.6L42.4,54.6L42.4,53.6L39.9,53.6L39.9,52.6L39.4,52.6L39.4,51.1L38.9,51.1L38.9,50.6L36.9,50.6L36.9,50.1L35.4,50.1L35.4,49.6L34.9,49.6L34.9,47.6L33.4,47.6L33.4,46.6z" stroke="none"/><path d="M4.4,31.5L4.6,31.5L4.6,46.9L5.6,46.9L5.6,47.4L6.6,47.4L6.6,47.9L8.1,47.9L8.1,48.4L9.1,48.4L9.1,48.9L10.1,48.9L10.1,49.4L11.1,49.4L11.1,49.9L11.6,49.9L11.6,50.4L12.6,50.4L12.6,50.9L13.5,50.9L13.5,51.1L12.4,51.1L12.4,50.6L11.4,50.6L11.4,50.1L10.9,50.1L10.9,49.6L9.9,49.6L9.9,49.1L8.9,49.1L8.9,48.6L7.9,48.6L7.9,48.1L6.4,48.1L6.4,47.6L5.4,47.6L5.4,47.1L4.4,47.1z" stroke="none"/><path d="M100.4,3L100.6,3L100.6,7.9L101.6,7.9L101.6,16.4L102.6,16.4L102.6,17.4L103.1,17.4L103.1,18.6L102.6,18.6L102.6,19.1L100.9,19.1L100.9,17.6L99.9,17.6L99.9,16.6L99.4,16.6L99.4,16.1L94.9,16.1L94.9,15.6L87.4,15.6L87.4,15.1L86.9,15.1L86.9,14.6L85.9,14.6L85.9,14.1L85.4,14.1L85.4,13.6L84.9,13.6L84.9,11.6L84.4,11.6L84.4,11.1L81.6,11.1L81.6,12.1L81,12.1L81,11.9L81.4,11.9L81.4,10.9L84.6,10.9L84.6,11.4L85.1,11.4L85.1,13.4L85.6,13.4L85.6,13.9L86.1,13.9L86.1,14.4L87.1,14.4L87.1,14.9L87.6,14.9L87.6,15.4L95.1,15.4L95.1,15.9L99.6,15.9L99.6,16.4L100.1,16.4L100.1,17.4L101.1,17.4L101.1,18.9L102.4,18.9L102.4,18.4L102.9,18.4L102.9,17.6L102.4,17.6L102.4,16.6L101.4,16.6L101.4,8.1L100.4,8.1z" stroke="none"/><path d="M27,48.1L27,47.9L28.4,47.9L28.4,47.4L29.9,47.4L29.9,45.9L30.4,45.9L30.4,45.4L35.6,45.4L35.6,45.9L36.1,45.9L36.1,46.4L36.6,46.4L36.6,46.9L37.1,46.9L37.1,47.4L39.1,47.4L39.1,48.9L40.1,48.9L40.1,49.9L40.6,49.9L40.6,50.4L41.1,50.4L41.1,50.9L41.6,50.9L41.6,51.4L42.6,51.4L42.6,51.9L43.1,51.9L43.1,52.4L44.1,52.4L44.1,52.9L44.6,52.9L44.6,53.4L46.6,53.4L46.6,57L46.4,57L46.4,53.6L44.4,53.6L44.4,53.1L43.9,53.1L43.9,52.6L42.9,52.6L42.9,52.1L42.4,52.1L42.4,51.6L41.4,51.6L41.4,51.1L40.9,51.1L40.9,50.6L40.4,50.6L40.4,50.1L39.9,50.1L39.9,49.1L38.9,49.1L38.9,47.6L36.9,47.6L36.9,47.1L36.4,47.1L36.4,46.6L35.9,46.6L35.9,46.1L35.4,46.1L35.4,45.6L30.6,45.6L30.6,46.1L30.1,46.1L30.1,47.6L28.6,47.6L28.6,48.1z" stroke="none"/><path d="M7.5,99.1L7.5,98.9L28.4,98.9L28.4,98.4L28.9,98.4L28.9,97.4L30,97.4L30,97.6L29.1,97.6L29.1,98.6L28.6,98.6L28.6,99.1z" stroke="none"/><path d="M3.1,42L2.9,42L2.9,30.4L5.9,30.4L5.9,28.4L6.4,28.4L6.4,27.9L6.9,27.9L6.9,27.4L7.4,27.4L7.4,26.9L7.9,26.9L7.9,26.4L8.4,26.4L8.4,25.9L8.9,25.9L8.9,24.9L10.4,24.9L10.4,23.4L11.9,23.4L11.9,22.4L12.9,22.4L12.9,20.9L13.5,20.9L13.5,21.1L13.1,21.1L13.1,22.6L12.1,22.6L12.1,23.6L10.6,23.6L10.6,25.1L9.1,25.1L9.1,26.1L8.6,26.1L8.6,26.6L8.1,26.6L8.1,27.1L7.6,27.1L7.6,27.6L7.1,27.6L7.1,28.1L6.6,28.1L6.6,28.6L6.1,28.6L6.1,30.6L3.1,30.6z" stroke="none"/><path d="M98.9,90L99.1,90L99.1,90.4L100.6,90.4L100.6,90.9L101.1,90.9L101.1,91.9L102.6,91.9L102.6,92.4L103.1,92.4L103.1,97.6L102.6,97.6L102.6,98.1L101.1,98.1L101.1,100.6L100.6,100.6L100.6,101.1L100.1,101.1L100.1,101.6L99.1,101.6L99.1,102.1L98.6,102.1L98.6,103.6L80.9,103.6L80.9,102.6L79.9,102.6L79.9,101.1L78.9,101.1L78.9,100.6L78,100.6L78,100.4L79.1,100.4L79.1,100.9L80.1,100.9L80.1,102.4L81.1,102.4L81.1,103.4L98.4,103.4L98.4,101.9L98.9,101.9L98.9,101.4L99.9,101.4L99.9,100.9L100.4,100.9L100.4,100.4L100.9,100.4L100.9,97.9L102.4,97.9L102.4,97.4L102.9,97.4L102.9,92.6L102.4,92.6L102.4,92.1L100.9,92.1L100.9,91.1L100.4,91.1L100.4,90.6L98.9,90.6z" stroke="none"/><path d="M34.5,5.9L34.5,6.1L29.4,6.1L29.4,5.6L28.9,5.6L28.9,4.6L28.4,4.6L28.4,4.1L27.4,4.1L27.4,3.6L16.6,3.6L16.6,4.1L15.1,4.1L15.1,5.1L14.1,5.1L14.1,5.6L13.6,5.6L13.6,6.6L13.1,6.6L13.1,7.6L12.1,7.6L12.1,9.1L11.6,9.1L11.6,9.6L10.6,9.6L10.6,10.5L10.4,10.5L10.4,9.4L11.4,9.4L11.4,8.9L11.9,8.9L11.9,7.4L12.9,7.4L12.9,6.4L13.4,6.4L13.4,5.4L13.9,5.4L13.9,4.9L14.9,4.9L14.9,3.9L16.4,3.9L16.4,3.4L27.6,3.4L27.6,3.9L28.6,3.9L28.6,4.4L29.1,4.4L29.1,5.4L29.6,5.4L29.6,5.9z" stroke="none"/><path d="M26.9,37.5L27.1,37.5L27.1,37.9L32.1,37.9L32.1,38.4L33.1,38.4L33.1,38.9L33.6,38.9L33.6,40.4L35.1,40.4L35.1,40.9L36.1,40.9L36.1,41.9L36.6,41.9L36.6,42.4L41.6,42.4L41.6,42.9L43.6,42.9L43.6,43.4L44.1,43.4L44.1,43.9L45.1,43.9L45.1,46.4L45.6,46.4L45.6,46.9L46.1,46.9L46.1,47.4L46.6,47.4L46.6,47.9L49.1,47.9L49.1,48.9L49.6,48.9L49.6,49.5L49.4,49.5L49.4,49.1L48.9,49.1L48.9,48.1L46.4,48.1L46.4,47.6L45.9,47.6L45.9,47.1L45.4,47.1L45.4,46.6L44.9,46.6L44.9,44.1L43.9,44.1L43.9,43.6L43.4,43.6L43.4,43.1L41.4,43.1L41.4,42.6L36.4,42.6L36.4,42.1L35.9,42.1L35.9,41.1L34.9,41.1L34.9,40.6L33.4,40.6L33.4,39.1L32.9,39.1L32.9,38.6L31.9,38.6L31.9,38.1L26.9,38.1z" stroke="none"/><path d="M9.1,102L8.9,102L8.9,101.1L7.4,101.1L7.4,100.6L6.9,100.6L6.9,99.6L6.4,99.6L6.4,93.6L5.9,93.6L5.9,92.6L5.4,92.6L5.4,92.1L4.9,92.1L4.9,91.6L2.9,91.6L2.9,85.1L2.4,85.1L2.4,83.6L1.9,83.6L1.9,77.4L2.4,77.4L2.4,76.4L3,76.4L3,76.6L2.6,76.6L2.6,77.6L2.1,77.6L2.1,83.4L2.6,83.4L2.6,84.9L3.1,84.9L3.1,91.4L5.1,91.4L5.1,91.9L5.6,91.9L5.6,92.4L6.1,92.4L6.1,93.4L6.6,93.4L6.6,99.4L7.1,99.4L7.1,100.4L7.6,100.4L7.6,100.9L9.1,100.9z" stroke="none"/><path d="M85.6,18L85.4,18L85.4,17.4L86.4,17.4L86.4,16.9L92.6,16.9L92.6,21.9L93.1,21.9L93.1,22.4L93.6,22.4L93.6,22.9L95.6,22.9L95.6,23.4L96.1,23.4L96.1,23.9L96.6,23.9L96.6,24.4L97.1,24.4L97.1,24.9L97.6,24.9L97.6,25.4L99.1,25.4L99.1,27.4L100.6,27.4L100.6,30.4L101.1,30.4L101.1,31.4L102.1,31.4L102.1,39L101.9,39L101.9,31.6L100.9,31.6L100.9,30.6L100.4,30.6L100.4,27.6L98.9,27.6L98.9,25.6L97.4,25.6L97.4,25.1L96.9,25.1L96.9,24.6L96.4,24.6L96.4,24.1L95.9,24.1L95.9,23.6L95.4,23.6L95.4,23.1L93.4,23.1L93.4,22.6L92.9,22.6L92.9,22.1L92.4,22.1L92.4,17.1L86.6,17.1L86.6,17.6L85.6,17.6z" stroke="none"/><path d="M15.1,78L14.9,78L14.9,51L15.1,51z" stroke="none"/><path d="M90,5.9L90,6.1L81.9,6.1L81.9,5.1L80.4,5.1L80.4,4.6L79.9,4.6L79.9,4.1L77.9,4.1L77.9,3.1L76.9,3.1L76.9,2.6L75.4,2.6L75.4,2.1L57.6,2.1L57.6,4.1L56.1,4.1L56.1,5.6L55.1,5.6L55.1,7.1L54.6,7.1L54.6,8.4L55.1,8.4L55.1,9.4L58.6,9.4L58.6,9.9L60.1,9.9L60.1,10.4L61.1,10.4L61.1,10.9L61.6,10.9L61.6,11.4L62.6,11.4L62.6,12.4L63.1,12.4L63.1,14.4L64.6,14.4L64.6,15L64.4,15L64.4,14.6L62.9,14.6L62.9,12.6L62.4,12.6L62.4,11.6L61.4,11.6L61.4,11.1L60.9,11.1L60.9,10.6L59.9,10.6L59.9,10.1L58.4,10.1L58.4,9.6L54.9,9.6L54.9,8.6L54.4,8.6L54.4,6.9L54.9,6.9L54.9,5.4L55.9,5.4L55.9,3.9L57.4,3.9L57.4,1.9L75.6,1.9L75.6,2.4L77.1,2.4L77.1,2.9L78.1,2.9L78.1,3.9L80.1,3.9L80.1,4.4L80.6,4.4L80.6,4.9L82.1,4.9L82.1,5.9z" stroke="none"/><path d="M49.6,3L49.4,3L49.4,2.6L48.9,2.6L48.9,2.1L40.1,2.1L40.1,2.6L39.6,2.6L39.6,3.1L39.1,3.1L39.1,4.1L36.6,4.1L36.6,6.1L36.1,6.1L36.1,6.6L35.1,6.6L35.1,7.1L22.6,7.1L22.6,7.5L22.4,7.5L22.4,6.9L34.9,6.9L34.9,6.4L35.9,6.4L35.9,5.9L36.4,5.9L36.4,3.9L38.9,3.9L38.9,2.9L39.4,2.9L39.4,2.4L39.9,2.4L39.9,1.9L49.1,1.9L49.1,2.4L49.6,2.4z" stroke="none"/><path d="M30,12.1L30,11.9L31.9,11.9L31.9,10.9L33.6,10.9L33.6,11.4L34.6,11.4L34.6,11.9L48.6,11.9L48.6,12.4L49.1,12.4L49.1,17.4L50.1,17.4L50.1,17.9L52.1,17.9L52.1,19.4L53.1,19.4L53.1,19.9L53.6,19.9L53.6,20.4L54.1,20.4L54.1,21.9L55.1,21.9L55.1,22.4L55.5,22.4L55.5,22.6L54.9,22.6L54.9,22.1L53.9,22.1L53.9,20.6L53.4,20.6L53.4,20.1L52.9,20.1L52.9,19.6L51.9,19.6L51.9,18.1L49.9,18.1L49.9,17.6L48.9,17.6L48.9,12.6L48.4,12.6L48.4,12.1L34.4,12.1L34.4,11.6L33.4,11.6L33.4,11.1L32.1,11.1L32.1,12.1z" stroke="none"/><path d="M81.1,69L80.9,69L80.9,67.9L82.4,67.9L82.4,67.4L82.9,67.4L82.9,66.4L86.4,66.4L86.4,65.9L86.9,65.9L86.9,65.4L88.9,65.4L88.9,62.4L89.4,62.4L89.4,61.9L90.4,61.9L90.4,61.4L90.9,61.4L90.9,60.9L92.4,60.9L92.4,58.9L92.9,58.9L92.9,56.9L93.9,56.9L93.9,56.4L94.4,56.4L94.4,55.4L95.9,55.4L95.9,54.9L98.4,54.9L98.4,53.9L101.6,53.9L101.6,54.4L102.1,54.4L102.1,60.4L102.6,60.4L102.6,87.9L103.1,87.9L103.1,89.6L99.4,89.6L99.4,89.1L98.6,89.1L98.6,89.6L98.1,89.6L98.1,95.6L93.4,95.6L93.4,95.1L92.9,95.1L92.9,94.5L93.1,94.5L93.1,94.9L93.6,94.9L93.6,95.4L97.9,95.4L97.9,89.4L98.4,89.4L98.4,88.9L99.6,88.9L99.6,89.4L102.9,89.4L102.9,88.1L102.4,88.1L102.4,60.6L101.9,60.6L101.9,54.6L101.4,54.6L101.4,54.1L98.6,54.1L98.6,55.1L96.1,55.1L96.1,55.6L94.6,55.6L94.6,56.6L94.1,56.6L94.1,57.1L93.1,57.1L93.1,59.1L92.6,59.1L92.6,61.1L91.1,61.1L91.1,61.6L90.6,61.6L90.6,62.1L89.6,62.1L89.6,62.6L89.1,62.6L89.1,65.6L87.1,65.6L87.1,66.1L86.6,66.1L86.6,66.6L83.1,66.6L83.1,67.6L82.6,67.6L82.6,68.1L81.1,68.1z" stroke="none"/><path d="M4.5,102.1L4.5,101.9L7.1,101.9L7.1,102.9L25.4,102.9L25.4,101.9L26.9,101.9L26.9,100.4L28.4,100.4L28.4,99.4L28.9,99.4L28.9,98.9L29.4,98.9L29.4,98.4L30.4,98.4L30.4,97.9L30.9,97.9L30.9,96.6L30.4,96.6L30.4,90.1L30,90.1L30,89.9L30.6,89.9L30.6,96.4L31.1,96.4L31.1,98.1L30.6,98.1L30.6,98.6L29.6,98.6L29.6,99.1L29.1,99.1L29.1,99.6L28.6,99.6L28.6,100.6L27.1,100.6L27.1,102.1L25.6,102.1L25.6,103.1L6.9,103.1L6.9,102.1z" stroke="none"/><path d="M91.4,49.5L91.6,49.5L91.6,55.9L92.1,55.9L92.1,56.4L92.6,56.4L92.6,58.6L92.1,58.6L92.1,59.1L89.1,59.1L89.1,59.6L88.6,59.6L88.6,60.1L88.1,60.1L88.1,60.6L86.6,60.6L86.6,62.6L84.4,62.6L84.4,52.9L85.4,52.9L85.4,49.6L71.9,49.6L71.9,49.1L69.4,49.1L69.4,48.6L68.4,48.6L68.4,48.1L67.9,48.1L67.9,47.1L66.4,47.1L66.4,46.6L65.4,46.6L65.4,45.6L64.1,45.6L64.1,46.1L63.6,46.1L63.6,50.6L63.1,50.6L63.1,51L62.9,51L62.9,50.4L63.4,50.4L63.4,45.9L63.9,45.9L63.9,45.4L65.6,45.4L65.6,46.4L66.6,46.4L66.6,46.9L68.1,46.9L68.1,47.9L68.6,47.9L68.6,48.4L69.6,48.4L69.6,48.9L72.1,48.9L72.1,49.4L85.6,49.4L85.6,53.1L84.6,53.1L84.6,62.4L86.4,62.4L86.4,60.4L87.9,60.4L87.9,59.9L88.4,59.9L88.4,59.4L88.9,59.4L88.9,58.9L91.9,58.9L91.9,58.4L92.4,58.4L92.4,56.6L91.9,56.6L91.9,56.1L91.4,56.1z" stroke="none"/><path d="M52.5,79.6L52.5,79.4L53.1,79.4L53.1,79.9L53.6,79.9L53.6,93.4L54.6,93.4L54.6,93.9L55.1,93.9L55.1,94.4L55.6,94.4L55.6,94.9L56.1,94.9L56.1,95.4L56.6,95.4L56.6,96.6L56.1,96.6L56.1,97.1L53.1,97.1L53.1,98.6L52.6,98.6L52.6,99.1L52.1,99.1L52.1,100.6L49.6,100.6L49.6,101.1L49.1,101.1L49.1,101.6L48.6,101.6L48.6,102.4L49.1,102.4L49.1,102.9L70.4,102.9L70.4,102.4L71.4,102.4L71.4,101.4L71.9,101.4L71.9,100.9L72.4,100.9L72.4,99.4L72.9,99.4L72.9,97.9L74.9,97.9L74.9,97.5L75.1,97.5L75.1,98.1L73.1,98.1L73.1,99.6L72.6,99.6L72.6,101.1L72.1,101.1L72.1,101.6L71.6,101.6L71.6,102.6L70.6,102.6L70.6,103.1L48.9,103.1L48.9,102.6L48.4,102.6L48.4,101.4L48.9,101.4L48.9,100.9L49.4,100.9L49.4,100.4L51.9,100.4L51.9,98.9L52.4,98.9L52.4,98.4L52.9,98.4L52.9,96.9L55.9,96.9L55.9,96.4L56.4,96.4L56.4,95.6L55.9,95.6L55.9,95.1L55.4,95.1L55.4,94.6L54.9,94.6L54.9,94.1L54.4,94.1L54.4,93.6L53.4,93.6L53.4,80.1L52.9,80.1L52.9,79.6z" stroke="none"/><path d="M14.9,28.5L15.1,28.5L15.1,29.6L11.6,29.6L11.6,30.1L11.1,30.1L11.1,31.9L11.6,31.9L11.6,32.4L14.1,32.4L14.1,32.9L14.6,32.9L14.6,33.4L19.6,33.4L19.6,33.9L20.1,33.9L20.1,34.4L20.6,34.4L20.6,34.9L21.1,34.9L21.1,35.9L21.6,35.9L21.6,36.4L22.1,36.4L22.1,36.9L23.1,36.9L23.1,37.9L24.6,37.9L24.6,38.4L30.1,38.4L30.1,38.9L32.6,38.9L32.6,40.4L33.1,40.4L33.1,40.9L33.6,40.9L33.6,41.4L34.1,41.4L34.1,41.9L35.1,41.9L35.1,42.4L36.1,42.4L36.1,42.9L41.1,42.9L41.1,43.4L42.6,43.4L42.6,43.9L43.6,43.9L43.6,44.4L44.1,44.4L44.1,46.9L45.1,46.9L45.1,47.9L46.1,47.9L46.1,48.4L48.6,48.4L48.6,50.4L49.9,50.4L49.9,49.9L50.4,49.9L50.4,38.1L48.9,38.1L48.9,37.1L47.9,37.1L47.9,36.6L46.9,36.6L46.9,36.1L45.9,36.1L45.9,35.1L45.4,35.1L45.4,33.6L44.9,33.6L44.9,33L45.1,33L45.1,33.4L45.6,33.4L45.6,34.9L46.1,34.9L46.1,35.9L47.1,35.9L47.1,36.4L48.1,36.4L48.1,36.9L49.1,36.9L49.1,37.9L50.6,37.9L50.6,50.1L50.1,50.1L50.1,50.6L48.4,50.6L48.4,48.6L45.9,48.6L45.9,48.1L44.9,48.1L44.9,47.1L43.9,47.1L43.9,44.6L43.4,44.6L43.4,44.1L42.4,44.1L42.4,43.6L40.9,43.6L40.9,43.1L35.9,43.1L35.9,42.6L34.9,42.6L34.9,42.1L33.9,42.1L33.9,41.6L33.4,41.6L33.4,41.1L32.9,41.1L32.9,40.6L32.4,40.6L32.4,39.1L29.9,39.1L29.9,38.6L24.4,38.6L24.4,38.1L22.9,38.1L22.9,37.1L21.9,37.1L21.9,36.6L21.4,36.6L21.4,36.1L20.9,36.1L20.9,35.1L20.4,35.1L20.4,34.6L19.9,34.6L19.9,34.1L19.4,34.1L19.4,33.6L14.4,33.6L14.4,33.1L13.9,33.1L13.9,32.6L11.4,32.6L11.4,32.1L10.9,32.1L10.9,29.9L11.4,29.9L11.4,29.4L14.9,29.4z" stroke="none"/><path d="M15,89.9L15,90.1L14.4,90.1L14.4,89.6L13.9,89.6L13.9,89.1L12.4,89.1L12.4,82.1L11.9,82.1L11.9,81.1L11.4,81.1L11.4,78.6L10.4,78.6L10.4,77.6L9.4,77.6L9.4,77.1L8.9,77.1L8.9,76.1L8.4,76.1L8.4,75.6L7.9,75.6L7.9,75.1L7.4,75.1L7.4,74.1L6.4,74.1L6.4,73.6L5.4,73.6L5.4,73.1L4.9,73.1L4.9,72.1L4.4,72.1L4.4,67.9L4.9,67.9L4.9,66.4L5.9,66.4L5.9,65.4L6.9,65.4L6.9,63.9L8.4,63.9L8.4,62.4L8.9,62.4L8.9,60.9L9.9,60.9L9.9,59.9L10.5,59.9L10.5,60.1L10.1,60.1L10.1,61.1L9.1,61.1L9.1,62.6L8.6,62.6L8.6,64.1L7.1,64.1L7.1,65.6L6.1,65.6L6.1,66.6L5.1,66.6L5.1,68.1L4.6,68.1L4.6,71.9L5.1,71.9L5.1,72.9L5.6,72.9L5.6,73.4L6.6,73.4L6.6,73.9L7.6,73.9L7.6,74.9L8.1,74.9L8.1,75.4L8.6,75.4L8.6,75.9L9.1,75.9L9.1,76.9L9.6,76.9L9.6,77.4L10.6,77.4L10.6,78.4L11.6,78.4L11.6,80.9L12.1,80.9L12.1,81.9L12.6,81.9L12.6,88.9L14.1,88.9L14.1,89.4L14.6,89.4L14.6,89.9z" stroke="none"/><path d="M54.1,6L53.9,6L53.9,5.4L54.4,5.4L54.4,4.4L55.4,4.4L55.4,3.4L56.4,3.4L56.4,2.9L56.9,2.9L56.9,1.4L101.1,1.4L101.1,1.9L101.6,1.9L101.6,5.4L102.1,5.4L102.1,15.9L103.1,15.9L103.1,16.4L103.6,16.4L103.6,19.6L103.1,19.6L103.1,20.1L102.6,20.1L102.6,20.6L101.1,20.6L101.1,22.1L100.1,22.1L100.1,23.1L99.6,23.1L99.6,23.6L96.4,23.6L96.4,22.6L94.4,22.6L94.4,22.1L93.9,22.1L93.9,19.6L93.4,19.6L93.4,16.6L85.9,16.6L85.9,16.1L85.4,16.1L85.4,15.1L84.9,15.1L84.9,14.1L84.4,14.1L84.4,12.1L84,12.1L84,11.9L84.6,11.9L84.6,13.9L85.1,13.9L85.1,14.9L85.6,14.9L85.6,15.9L86.1,15.9L86.1,16.4L93.6,16.4L93.6,19.4L94.1,19.4L94.1,21.9L94.6,21.9L94.6,22.4L96.6,22.4L96.6,23.4L99.4,23.4L99.4,22.9L99.9,22.9L99.9,21.9L100.9,21.9L100.9,20.4L102.4,20.4L102.4,19.9L102.9,19.9L102.9,19.4L103.4,19.4L103.4,16.6L102.9,16.6L102.9,16.1L101.9,16.1L101.9,5.6L101.4,5.6L101.4,2.1L100.9,2.1L100.9,1.6L57.1,1.6L57.1,3.1L56.6,3.1L56.6,3.6L55.6,3.6L55.6,4.6L54.6,4.6L54.6,5.6L54.1,5.6z" stroke="none"/><path d="M43.5,96.1L43.5,95.9L43.9,95.9L43.9,94.9L44.4,94.9L44.4,92.6L40.9,92.6L40.9,89.6L40.4,89.6L40.4,89.1L38.9,89.1L38.9,88.1L38.4,88.1L38.4,86.6L37.9,86.6L37.9,86.1L37.4,86.1L37.4,83.6L36.9,83.6L36.9,83.1L36.4,83.1L36.4,81.1L35.9,81.1L35.9,78.1L35.4,78.1L35.4,77.6L34.4,77.6L34.4,77.1L33.9,77.1L33.9,76.6L32.9,76.6L32.9,76.1L32.4,76.1L32.4,75.6L29.4,75.6L29.4,75.1L22.1,75.1L22.1,75.6L21.6,75.6L21.6,76.1L20.1,76.1L20.1,76.6L19.5,76.6L19.5,76.4L19.9,76.4L19.9,75.9L21.4,75.9L21.4,75.4L21.9,75.4L21.9,74.9L29.6,74.9L29.6,75.4L32.6,75.4L32.6,75.9L33.1,75.9L33.1,76.4L34.1,76.4L34.1,76.9L34.6,76.9L34.6,77.4L35.6,77.4L35.6,77.9L36.1,77.9L36.1,80.9L36.6,80.9L36.6,82.9L37.1,82.9L37.1,83.4L37.6,83.4L37.6,85.9L38.1,85.9L38.1,86.4L38.6,86.4L38.6,87.9L39.1,87.9L39.1,88.9L40.6,88.9L40.6,89.4L41.1,89.4L41.1,92.4L44.6,92.4L44.6,95.1L44.1,95.1L44.1,96.1z" stroke="none"/><path d="M43.5,64.6L43.5,64.4L47.9,64.4L47.9,63.9L48.4,63.9L48.4,63.4L48.9,63.4L48.9,62.6L48.4,62.6L48.4,55.1L47.4,55.1L47.4,53.6L46.9,53.6L46.9,53.1L45.9,53.1L45.9,52.6L44.9,52.6L44.9,52.1L43.4,52.1L43.4,51.6L42.9,51.6L42.9,51.1L41.9,51.1L41.9,50.6L41.4,50.6L41.4,49.1L40.9,49.1L40.9,48.6L40.4,48.6L40.4,47.6L39.4,47.6L39.4,47.1L37.9,47.1L37.9,46.6L37.4,46.6L37.4,46.1L36.4,46.1L36.4,45.6L35.9,45.6L35.9,45.1L26.9,45.1L26.9,43.6L25.4,43.6L25.4,42.6L24.4,42.6L24.4,42.1L23.9,42.1L23.9,40.6L23.4,40.6L23.4,40.1L22.9,40.1L22.9,38.6L22.4,38.6L22.4,37.6L21.4,37.6L21.4,37.1L20.4,37.1L20.4,35.6L19.9,35.6L19.9,35.1L11.9,35.1L11.9,34.6L11.4,34.6L11.4,34.1L10.9,34.1L10.9,32.6L10.4,32.6L10.4,27.4L10.9,27.4L10.9,25.9L11.4,25.9L11.4,24.4L12.9,24.4L12.9,23.4L13.4,23.4L13.4,22.4L13.9,22.4L13.9,21.4L14.4,21.4L14.4,20.4L14.9,20.4L14.9,19.4L15.4,19.4L15.4,16.9L17.1,16.9L17.1,17.4L17.6,17.4L17.6,17.9L18.1,17.9L18.1,18.4L18.6,18.4L18.6,19.9L19.1,19.9L19.1,20.4L20.1,20.4L20.1,21.9L20.6,21.9L20.6,22.9L22.1,22.9L22.1,23.4L22.6,23.4L22.6,23.9L23.1,23.9L23.1,25.4L23.6,25.4L23.6,26.4L24.1,26.4L24.1,27.4L25.1,27.4L25.1,27.9L29.6,27.9L29.6,28.9L30.6,28.9L30.6,29.4L32.6,29.4L32.6,29.9L33.1,29.9L33.1,30.9L33.6,30.9L33.6,31.9L35.6,31.9L35.6,33.6L35.1,33.6L35.1,34.1L31.6,34.1L31.6,34.5L31.4,34.5L31.4,33.9L34.9,33.9L34.9,33.4L35.4,33.4L35.4,32.1L33.4,32.1L33.4,31.1L32.9,31.1L32.9,30.1L32.4,30.1L32.4,29.6L30.4,29.6L30.4,29.1L29.4,29.1L29.4,28.1L24.9,28.1L24.9,27.6L23.9,27.6L23.9,26.6L23.4,26.6L23.4,25.6L22.9,25.6L22.9,24.1L22.4,24.1L22.4,23.6L21.9,23.6L21.9,23.1L20.4,23.1L20.4,22.1L19.9,22.1L19.9,20.6L18.9,20.6L18.9,20.1L18.4,20.1L18.4,18.6L17.9,18.6L17.9,18.1L17.4,18.1L17.4,17.6L16.9,17.6L16.9,17.1L15.6,17.1L15.6,19.6L15.1,19.6L15.1,20.6L14.6,20.6L14.6,21.6L14.1,21.6L14.1,22.6L13.6,22.6L13.6,23.6L13.1,23.6L13.1,24.6L11.6,24.6L11.6,26.1L11.1,26.1L11.1,27.6L10.6,27.6L10.6,32.4L11.1,32.4L11.1,33.9L11.6,33.9L11.6,34.4L12.1,34.4L12.1,34.9L20.1,34.9L20.1,35.4L20.6,35.4L20.6,36.9L21.6,36.9L21.6,37.4L22.6,37.4L22.6,38.4L23.1,38.4L23.1,39.9L23.6,39.9L23.6,40.4L24.1,40.4L24.1,41.9L24.6,41.9L24.6,42.4L25.6,42.4L25.6,43.4L27.1,43.4L27.1,44.9L36.1,44.9L36.1,45.4L36.6,45.4L36.6,45.9L37.6,45.9L37.6,46.4L38.1,46.4L38.1,46.9L39.6,46.9L39.6,47.4L40.6,47.4L40.6,48.4L41.1,48.4L41.1,48.9L41.6,48.9L41.6,50.4L42.1,50.4L42.1,50.9L43.1,50.9L43.1,51.4L43.6,51.4L43.6,51.9L45.1,51.9L45.1,52.4L46.1,52.4L46.1,52.9L47.1,52.9L47.1,53.4L47.6,53.4L47.6,54.9L48.6,54.9L48.6,62.4L49.1,62.4L49.1,63.6L48.6,63.6L48.6,64.1L48.1,64.1L48.1,64.6z" stroke="none"/><path d="M4.5,12.1L4.5,11.9L7.9,11.9L7.9,11.4L8.4,11.4L8.4,10.9L8.9,10.9L8.9,10.4L9.4,10.4L9.4,8.9L10.4,8.9L10.4,7.9L10.9,7.9L10.9,7.4L11.4,7.4L11.4,6.9L11.9,6.9L11.9,6.4L12.4,6.4L12.4,4.9L12.9,4.9L12.9,3.9L13.9,3.9L13.9,3.4L15.9,3.4L15.9,2.9L37.9,2.9L37.9,2.4L38.4,2.4L38.4,1.4L50.1,1.4L50.1,1.9L50.6,1.9L50.6,9.4L51.1,9.4L51.1,15.4L51.6,15.4L51.6,16.4L52.1,16.4L52.1,16.9L52.6,16.9L52.6,17.4L54.1,17.4L54.1,18.4L54.6,18.4L54.6,19.4L55.6,19.4L55.6,20.9L56.1,20.9L56.1,21.9L56.6,21.9L56.6,40.1L56.1,40.1L56.1,42.1L55.6,42.1L55.6,42.6L54.6,42.6L54.6,43.1L52.1,43.1L52.1,44.6L51.6,44.6L51.6,49.6L51.1,49.6L51.1,50.6L50.6,50.6L50.6,51.1L46.4,51.1L46.4,50.6L45.9,50.6L45.9,49.1L44.9,49.1L44.9,48.6L42.9,48.6L42.9,48.1L42.4,48.1L42.4,47.6L41.9,47.6L41.9,47.1L40.4,47.1L40.4,46.6L38.9,46.6L38.9,46.1L37.9,46.1L37.9,45.1L37.4,45.1L37.4,44.6L33.4,44.6L33.4,42.1L30.4,42.1L30.4,41.6L27.9,41.6L27.9,41.1L27.4,41.1L27.4,40.6L24.4,40.6L24.4,39.1L24,39.1L24,38.9L24.6,38.9L24.6,40.4L27.6,40.4L27.6,40.9L28.1,40.9L28.1,41.4L30.6,41.4L30.6,41.9L33.6,41.9L33.6,44.4L37.6,44.4L37.6,44.9L38.1,44.9L38.1,45.9L39.1,45.9L39.1,46.4L40.6,46.4L40.6,46.9L42.1,46.9L42.1,47.4L42.6,47.4L42.6,47.9L43.1,47.9L43.1,48.4L45.1,48.4L45.1,48.9L46.1,48.9L46.1,50.4L46.6,50.4L46.6,50.9L50.4,50.9L50.4,50.4L50.9,50.4L50.9,49.4L51.4,49.4L51.4,44.4L51.9,44.4L51.9,42.9L54.4,42.9L54.4,42.4L55.4,42.4L55.4,41.9L55.9,41.9L55.9,39.9L56.4,39.9L56.4,22.1L55.9,22.1L55.9,21.1L55.4,21.1L55.4,19.6L54.4,19.6L54.4,18.6L53.9,18.6L53.9,17.6L52.4,17.6L52.4,17.1L51.9,17.1L51.9,16.6L51.4,16.6L51.4,15.6L50.9,15.6L50.9,9.6L50.4,9.6L50.4,2.1L49.9,2.1L49.9,1.6L38.6,1.6L38.6,2.6L38.1,2.6L38.1,3.1L16.1,3.1L16.1,3.6L14.1,3.6L14.1,4.1L13.1,4.1L13.1,5.1L12.6,5.1L12.6,6.6L12.1,6.6L12.1,7.1L11.6,7.1L11.6,7.6L11.1,7.6L11.1,8.1L10.6,8.1L10.6,9.1L9.6,9.1L9.6,10.6L9.1,10.6L9.1,11.1L8.6,11.1L8.6,11.6L8.1,11.6L8.1,12.1z" stroke="none"/><path d="M97.5,49.6L97.5,49.4L99.4,49.4L99.4,48.4L99.9,48.4L99.9,41.1L98.4,41.1L98.4,40.6L97.4,40.6L97.4,39.6L96.9,39.6L96.9,38.6L96.4,38.6L96.4,37.1L93.4,37.1L93.4,36.6L90.4,36.6L90.4,34.6L88.9,34.6L88.9,30.6L87.9,30.6L87.9,30.1L86.4,30.1L86.4,29.6L85.9,29.6L85.9,29.1L85.4,29.1L85.4,28.6L84.9,28.6L84.9,26.6L84.4,26.6L84.4,25.6L83.4,25.6L83.4,25.1L82.4,25.1L82.4,23.6L81.4,23.6L81.4,22.6L80.9,22.6L80.9,21.6L78.1,21.6L78.1,22.5L77.9,22.5L77.9,21.4L81.1,21.4L81.1,22.4L81.6,22.4L81.6,23.4L82.6,23.4L82.6,24.9L83.6,24.9L83.6,25.4L84.6,25.4L84.6,26.4L85.1,26.4L85.1,28.4L85.6,28.4L85.6,28.9L86.1,28.9L86.1,29.4L86.6,29.4L86.6,29.9L88.1,29.9L88.1,30.4L89.1,30.4L89.1,34.4L90.6,34.4L90.6,36.4L93.6,36.4L93.6,36.9L96.6,36.9L96.6,38.4L97.1,38.4L97.1,39.4L97.6,39.4L97.6,40.4L98.6,40.4L98.6,40.9L100.1,40.9L100.1,48.6L99.6,48.6L99.6,49.6z" stroke="none"/><path d="M25.5,94.4L25.5,94.6L20.9,94.6L20.9,94.1L20.4,94.1L20.4,92.6L19.9,92.6L19.9,92.1L14.9,92.1L14.9,91.1L14.4,91.1L14.4,90.6L13.4,90.6L13.4,90.1L12.9,90.1L12.9,89.6L11.9,89.6L11.9,83.1L11.4,83.1L11.4,82.1L10.9,82.1L10.9,81.1L10.4,81.1L10.4,80.6L9.9,80.6L9.9,78.1L8.9,78.1L8.9,77.6L8.4,77.6L8.4,77.1L7.9,77.1L7.9,76.6L7.4,76.6L7.4,75.6L6.9,75.6L6.9,75.1L6.4,75.1L6.4,74.6L5.4,74.6L5.4,74.1L4.4,74.1L4.4,72.6L3.9,72.6L3.9,62.9L4.4,62.9L4.4,61.9L5.4,61.9L5.4,61.4L6.4,61.4L6.4,60.4L7.4,60.4L7.4,59.9L8.9,59.9L8.9,59.4L9.4,59.4L9.4,58.9L11.1,58.9L11.1,59.4L11.6,59.4L11.6,63.6L11.1,63.6L11.1,64.6L8.1,64.6L8.1,65.6L7.6,65.6L7.6,66L7.4,66L7.4,65.4L7.9,65.4L7.9,64.4L10.9,64.4L10.9,63.4L11.4,63.4L11.4,59.6L10.9,59.6L10.9,59.1L9.6,59.1L9.6,59.6L9.1,59.6L9.1,60.1L7.6,60.1L7.6,60.6L6.6,60.6L6.6,61.6L5.6,61.6L5.6,62.1L4.6,62.1L4.6,63.1L4.1,63.1L4.1,72.4L4.6,72.4L4.6,73.9L5.6,73.9L5.6,74.4L6.6,74.4L6.6,74.9L7.1,74.9L7.1,75.4L7.6,75.4L7.6,76.4L8.1,76.4L8.1,76.9L8.6,76.9L8.6,77.4L9.1,77.4L9.1,77.9L10.1,77.9L10.1,80.4L10.6,80.4L10.6,80.9L11.1,80.9L11.1,81.9L11.6,81.9L11.6,82.9L12.1,82.9L12.1,89.4L13.1,89.4L13.1,89.9L13.6,89.9L13.6,90.4L14.6,90.4L14.6,90.9L15.1,90.9L15.1,91.9L20.1,91.9L20.1,92.4L20.6,92.4L20.6,93.9L21.1,93.9L21.1,94.4z" stroke="none"/><path d="M86.9,24L87.1,24L87.1,27.9L87.6,27.9L87.6,28.4L88.6,28.4L88.6,28.9L89.6,28.9L89.6,30.9L90.1,30.9L90.1,31.9L92.6,31.9L92.6,32.4L93.6,32.4L93.6,33.4L94.1,33.4L94.1,33.9L96.1,33.9L96.1,34.4L96.6,34.4L96.6,34.9L97.1,34.9L97.1,35.4L97.6,35.4L97.6,35.9L99.1,35.9L99.1,36.4L99.6,36.4L99.6,38.9L101.1,38.9L101.1,39.4L101.6,39.4L101.6,39.9L102.4,39.9L102.4,39.4L102.9,39.4L102.9,20.4L103.4,20.4L103.4,19.9L103.9,19.9L103.9,3.1L102.4,3.1L102.4,1.6L101.9,1.6L101.9,1.1L56.6,1.1L56.6,2.6L56.1,2.6L56.1,3.1L55.1,3.1L55.1,3.6L54.1,3.6L54.1,5.1L53.6,5.1L53.6,5.6L53.1,5.6L53.1,13.9L54.1,13.9L54.1,14.4L54.6,14.4L54.6,17.4L55.6,17.4L55.6,17.9L56.1,17.9L56.1,18.4L57.1,18.4L57.1,46.5L56.9,46.5L56.9,18.6L55.9,18.6L55.9,18.1L55.4,18.1L55.4,17.6L54.4,17.6L54.4,14.6L53.9,14.6L53.9,14.1L52.9,14.1L52.9,5.4L53.4,5.4L53.4,4.9L53.9,4.9L53.9,3.4L54.9,3.4L54.9,2.9L55.9,2.9L55.9,2.4L56.4,2.4L56.4,0.9L102.1,0.9L102.1,1.4L102.6,1.4L102.6,2.9L104.1,2.9L104.1,20.1L103.6,20.1L103.6,20.6L103.1,20.6L103.1,39.6L102.6,39.6L102.6,40.1L101.4,40.1L101.4,39.6L100.9,39.6L100.9,39.1L99.4,39.1L99.4,36.6L98.9,36.6L98.9,36.1L97.4,36.1L97.4,35.6L96.9,35.6L96.9,35.1L96.4,35.1L96.4,34.6L95.9,34.6L95.9,34.1L93.9,34.1L93.9,33.6L93.4,33.6L93.4,32.6L92.4,32.6L92.4,32.1L89.9,32.1L89.9,31.1L89.4,31.1L89.4,29.1L88.4,29.1L88.4,28.6L87.4,28.6L87.4,28.1L86.9,28.1z" stroke="none"/><path d="M42.1,73.5L41.9,73.5L41.9,73.1L41.4,73.1L41.4,72.6L40.9,72.6L40.9,72.1L35.9,72.1L35.9,71.1L33.6,71.1L33.6,72.1L27.9,72.1L27.9,71.6L26.9,71.6L26.9,70.1L26.4,70.1L26.4,69.6L25.9,69.6L25.9,66.6L25.4,66.6L25.4,66.1L24.4,66.1L24.4,64.1L23.9,64.1L23.9,63.1L22.9,63.1L22.9,62.6L22.4,62.6L22.4,61.1L21.9,61.1L21.9,60.6L21.4,60.6L21.4,59.6L20.4,59.6L20.4,58.1L19.9,58.1L19.9,57.6L19.4,57.6L19.4,56.6L18.9,56.6L18.9,56.1L18.4,56.1L18.4,55.6L16.9,55.6L16.9,55.1L16.4,55.1L16.4,53.6L15.9,53.6L15.9,53.1L15.4,53.1L15.4,51.4L15.9,51.4L15.9,44.9L16.4,44.9L16.4,44.4L17.4,44.4L17.4,43.4L18,43.4L18,43.6L17.6,43.6L17.6,44.6L16.6,44.6L16.6,45.1L16.1,45.1L16.1,51.6L15.6,51.6L15.6,52.9L16.1,52.9L16.1,53.4L16.6,53.4L16.6,54.9L17.1,54.9L17.1,55.4L18.6,55.4L18.6,55.9L19.1,55.9L19.1,56.4L19.6,56.4L19.6,57.4L20.1,57.4L20.1,57.9L20.6,57.9L20.6,59.4L21.6,59.4L21.6,60.4L22.1,60.4L22.1,60.9L22.6,60.9L22.6,62.4L23.1,62.4L23.1,62.9L24.1,62.9L24.1,63.9L24.6,63.9L24.6,65.9L25.6,65.9L25.6,66.4L26.1,66.4L26.1,69.4L26.6,69.4L26.6,69.9L27.1,69.9L27.1,71.4L28.1,71.4L28.1,71.9L33.4,71.9L33.4,70.9L36.1,70.9L36.1,71.9L41.1,71.9L41.1,72.4L41.6,72.4L41.6,72.9L42.1,72.9z" stroke="none"/><path d="M33,98.9L33,99.1L32.6,99.1L32.6,100.1L31.6,100.1L31.6,101.1L29.1,101.1L29.1,102.1L27.6,102.1L27.6,102.6L26.1,102.6L26.1,103.6L4.9,103.6L4.9,103.1L3.9,103.1L3.9,102.6L3.4,102.6L3.4,93.6L2.9,93.6L2.9,92.6L2.4,92.6L2.4,85.6L1.9,85.6L1.9,84.1L1.4,84.1L1.4,71.4L1.9,71.4L1.9,70.9L2.9,70.9L2.9,70.5L3.1,70.5L3.1,71.1L2.1,71.1L2.1,71.6L1.6,71.6L1.6,83.9L2.1,83.9L2.1,85.4L2.6,85.4L2.6,92.4L3.1,92.4L3.1,93.4L3.6,93.4L3.6,102.4L4.1,102.4L4.1,102.9L5.1,102.9L5.1,103.4L25.9,103.4L25.9,102.4L27.4,102.4L27.4,101.9L28.9,101.9L28.9,100.9L31.4,100.9L31.4,99.9L32.4,99.9L32.4,98.9z" stroke="none"/><circle cx="73.5" cy="66" r="0.25" stroke-width="0" fill="#000" /><circle cx="70.5" cy="81" r="0.25" stroke-width="0" fill="#000" /><circle cx="84" cy="51" r="0.25" stroke-width="0" fill="#000" /><circle cx="82.5" cy="34.5" r="0.25" stroke-width="0" fill="#000" /><circle cx="76.5" cy="40.5" r="0.25" stroke-width="0" fill="#000" /><circle cx="79.5" cy="22.5" r="0.25" stroke-width="0" fill="#000" /><circle cx="19.5" cy="54" r="0.25" stroke-width="0" fill="#000" /><circle cx="16.5" cy="52.5" r="0.25" stroke-width="0" fill="#000" /><circle cx="31.5" cy="70.5" r="0.25" stroke-width="0" fill="#000" /><circle cx="85.5" cy="82.5" r="0.25" stroke-width="0" fill="#000" /><circle cx="93" cy="88.5" r="0.25" stroke-width="0" fill="#000" /><circle cx="81" cy="96" r="0.25" stroke-width="0" fill="#000" /><circle cx="31.5" cy="76.5" r="0.25" stroke-width="0" fill="#000" /><circle cx="18" cy="78" r="0.25" stroke-width="0" fill="#000" /><circle cx="43.5" cy="94.5" r="0.25" stroke-width="0" fill="#000" /><circle cx="99" cy="66" r="0.25" stroke-width="0" fill="#000" /><circle cx="100.5" cy="63" r="0.25" stroke-width="0" fill="#000" /><circle cx="76.5" cy="75" r="0.25" stroke-width="0" fill="#000" /><circle cx="13.5" cy="28.5" r="0.25" stroke-width="0" fill="#000" /><circle cx="16.5" cy="18" r="0.25" stroke-width="0" fill="#000" /><circle cx="34.5" cy="33" r="0.25" stroke-width="0" fill="#000" /><circle cx="28.5" cy="76.5" r="0.25" stroke-width="0" fill="#000" /><circle cx="22.5" cy="87" r="0.25" stroke-width="0" fill="#000" /><circle cx="6" cy="70.5" r="0.25" stroke-width="0" fill="#000" /><circle cx="87" cy="58.5" r="0.25" stroke-width="0" fill="#000" /><circle cx="99" cy="48" r="0.25" stroke-width="0" fill="#000" /><circle cx="73.5" cy="34.5" r="0.25" stroke-width="0" fill="#000" /><circle cx="76.5" cy="94.5" r="0.25" stroke-width="0" fill="#000" /><circle cx="69" cy="73.5" r="0.25" stroke-width="0" fill="#000" /><circle cx="49.5" cy="102" r="0.25" stroke-width="0" fill="#000" /><circle cx="69" cy="31.5" r="0.25" stroke-width="0" fill="#000" /><circle cx="67.5" cy="31.5" r="0.25" stroke-width="0" fill="#000" /><circle cx="58.5" cy="24" r="0.25" stroke-width="0" fill="#000" /><circle cx="79.5" cy="48" r="0.25" stroke-width="0" fill="#000" /><circle cx="39" cy="60" r="0.25" stroke-width="0" fill="#000" /><circle cx="36" cy="57" r="0.25" stroke-width="0" fill="#000" /><circle cx="48" cy="63" r="0.25" stroke-width="0" fill="#000" /><circle cx="27" cy="69" r="0.25" stroke-width="0" fill="#000" /><circle cx="79.5" cy="93" r="0.25" stroke-width="0" fill="#000" /><circle cx="82.5" cy="85.5" r="0.25" stroke-width="0" fill="#000" /><circle cx="87" cy="90" r="0.25" stroke-width="0" fill="#000" /><circle cx="60" cy="100.5" r="0.25" stroke-width="0" fill="#000" /><circle cx="55.5" cy="51" r="0.25" stroke-width="0" fill="#000" /><circle cx="52.5" cy="45" r="0.25" stroke-width="0" fill="#000" /><circle cx="49.5" cy="61.5" r="0.25" stroke-width="0" fill="#000" /><circle cx="76.5" cy="37.5" r="0.25" stroke-width="0" fill="#000" /><circle cx="82.5" cy="12" r="0.25" stroke-width="0" fill="#000" /><circle cx="85.5" cy="25.5" r="0.25" stroke-width="0" fill="#000" /><circle cx="91.5" cy="19.5" r="0.25" stroke-width="0" fill="#000" /><circle cx="67.5" cy="7.5" r="0.25" stroke-width="0" fill="#000" /><circle cx="52.5" cy="85.5" r="0.25" stroke-width="0" fill="#000" /><circle cx="55.5" cy="96" r="0.25" stroke-width="0" fill="#000" /><circle cx="52.5" cy="81" r="0.25" stroke-width="0" fill="#000" /><circle cx="37.5" cy="100.5" r="0.25" stroke-width="0" fill="#000" /><circle cx="100.5" cy="15" r="0.25" stroke-width="0" fill="#000" /><circle cx="100.5" cy="9" r="0.25" stroke-width="0" fill="#000" /><circle cx="102" cy="18" r="0.25" stroke-width="0" fill="#000" /><circle cx="78" cy="9" r="0.25" stroke-width="0" fill="#000" /><circle cx="78" cy="58.5" r="0.25" stroke-width="0" fill="#000" /><circle cx="64.5" cy="46.5" r="0.25" stroke-width="0" fill="#000" /><circle cx="55.5" cy="55.5" r="0.25" stroke-width="0" fill="#000" /><circle cx="85.5" cy="72" r="0.25" stroke-width="0" fill="#000" /><circle cx="37.5" cy="78" r="0.25" stroke-width="0" fill="#000" /><circle cx="58.5" cy="84" r="0.25" stroke-width="0" fill="#000" /><circle cx="61.5" cy="76.5" r="0.25" stroke-width="0" fill="#000" /><circle cx="31.5" cy="96" r="0.25" stroke-width="0" fill="#000" /><circle cx="25.5" cy="27" r="0.25" stroke-width="0" fill="#000" /><circle cx="33" cy="12" r="0.25" stroke-width="0" fill="#000" /><circle cx="48" cy="13.5" r="0.25" stroke-width="0" fill="#000" /><circle cx="42" cy="42" r="0.25" stroke-width="0" fill="#000" /><circle cx="40.5" cy="75" r="0.25" stroke-width="0" fill="#000" /><circle cx="40.5" cy="76.5" r="0.25" stroke-width="0" fill="#000" /><circle cx="93" cy="37.5" r="0.25" stroke-width="0" fill="#000" /><circle cx="91.5" cy="37.5" r="0.25" stroke-width="0" fill="#000" /><circle cx="58.5" cy="3" r="0.25" stroke-width="0" fill="#000" /><circle cx="61.5" cy="4.5" r="0.25" stroke-width="0" fill="#000" /><circle cx="76.5" cy="4.5" r="0.25" stroke-width="0" fill="#000" /><circle cx="76.5" cy="9" r="0.25" stroke-width="0" fill="#000" /><circle cx="72" cy="90" r="0.25" stroke-width="0" fill="#000" /><circle cx="72" cy="85.5" r="0.25" stroke-width="0" fill="#000" /><circle cx="91.5" cy="18" r="0.25" stroke-width="0" fill="#000" /><circle cx="87" cy="18" r="0.25" stroke-width="0" fill="#000" /><circle cx="75" cy="37.5" r="0.25" stroke-width="0" fill="#000" /><circle cx="70.5" cy="36" r="0.25" stroke-width="0" fill="#000" /><circle cx="67.5" cy="15" r="0.25" stroke-width="0" fill="#000" /><circle cx="69" cy="10.5" r="0.25" stroke-width="0" fill="#000" /><circle cx="87" cy="85.5" r="0.25" stroke-width="0" fill="#000" /><circle cx="91.5" cy="87" r="0.25" stroke-width="0" fill="#000" /><circle cx="10.5" cy="43.5" r="0.25" stroke-width="0" fill="#000" /><circle cx="13.5" cy="48" r="0.25" stroke-width="0" fill="#000" /><circle cx="19.5" cy="93" r="0.25" stroke-width="0" fill="#000" /><circle cx="15" cy="97.5" r="0.25" stroke-width="0" fill="#000" /><circle cx="96" cy="85.5" r="0.25" stroke-width="0" fill="#000" /><circle cx="102" cy="88.5" r="0.25" stroke-width="0" fill="#000" /><circle cx="81" cy="10.5" r="0.25" stroke-width="0" fill="#000" /><circle cx="73.5" cy="10.5" r="0.25" stroke-width="0" fill="#000" /><circle cx="94.5" cy="16.5" r="0.25" stroke-width="0" fill="#000" /><circle cx="99" cy="22.5" r="0.25" stroke-width="0" fill="#000" /><circle cx="9" cy="39" r="0.25" stroke-width="0" fill="#000" /><circle cx="9" cy="46.5" r="0.25" stroke-width="0" fill="#000" /><circle cx="91.5" cy="57" r="0.25" stroke-width="0" fill="#000" /><circle cx="85.5" cy="61.5" r="0.25" stroke-width="0" fill="#000" /><circle cx="48" cy="3" r="0.25" stroke-width="0" fill="#000" /><circle cx="49.5" cy="10.5" r="0.25" stroke-width="0" fill="#000" /><circle cx="96" cy="94.5" r="0.25" stroke-width="0" fill="#000" /><circle cx="88.5" cy="91.5" r="0.25" stroke-width="0" fill="#000" /><circle cx="15" cy="7.5" r="0.25" stroke-width="0" fill="#000" /><circle cx="22.5" cy="4.5" r="0.25" stroke-width="0" fill="#000" /><circle cx="6" cy="15" r="0.25" stroke-width="0" fill="#000" /><circle cx="4.5" cy="24" r="0.25" stroke-width="0" fill="#000" /><circle cx="15" cy="12" r="0.25" stroke-width="0" fill="#000" /><circle cx="12" cy="21" r="0.25" stroke-width="0" fill="#000" /><circle cx="27" cy="79.5" r="0.25" stroke-width="0" fill="#000" /><circle cx="19.5" cy="85.5" r="0.25" stroke-width="0" fill="#000" /><circle cx="96" cy="78" r="0.25" stroke-width="0" fill="#000" /><circle cx="96" cy="88.5" r="0.25" stroke-width="0" fill="#000" /><circle cx="19.5" cy="19.5" r="0.25" stroke-width="0" fill="#000" /><circle cx="12" cy="12" r="0.25" stroke-width="0" fill="#000" /><circle cx="100.5" cy="55.5" r="0.25" stroke-width="0" fill="#000" /><circle cx="93" cy="63" r="0.25" stroke-width="0" fill="#000" /><circle cx="99" cy="70.5" r="0.25" stroke-width="0" fill="#000" /><circle cx="100.5" cy="81" r="0.25" stroke-width="0" fill="#000" /><circle cx="33" cy="61.5" r="0.25" stroke-width="0" fill="#000" /><circle cx="43.5" cy="58.5" r="0.25" stroke-width="0" fill="#000" /><circle cx="9" cy="58.5" r="0.25" stroke-width="0" fill="#000" /><circle cx="4.5" cy="48" r="0.25" stroke-width="0" fill="#000" /><circle cx="45" cy="73.5" r="0.25" stroke-width="0" fill="#000" /><circle cx="57" cy="75" r="0.25" stroke-width="0" fill="#000" /><circle cx="30" cy="51" r="0.25" stroke-width="0" fill="#000" /><circle cx="18" cy="54" r="0.25" stroke-width="0" fill="#000" /><circle cx="66" cy="18" r="0.25" stroke-width="0" fill="#000" /><circle cx="75" cy="27" r="0.25" stroke-width="0" fill="#000" /><circle cx="90" cy="82.5" r="0.25" stroke-width="0" fill="#000" /><circle cx="78" cy="87" r="0.25" stroke-width="0" fill="#000" /><circle cx="27" cy="61.5" r="0.25" stroke-width="0" fill="#000" /><circle cx="34.5" cy="51" r="0.25" stroke-width="0" fill="#000" /><circle cx="30" cy="54" r="0.25" stroke-width="0" fill="#000" /><circle cx="42" cy="60" r="0.25" stroke-width="0" fill="#000" /><circle cx="93" cy="75" r="0.25" stroke-width="0" fill="#000" /><circle cx="99" cy="63" r="0.25" stroke-width="0" fill="#000" /><circle cx="91.5" cy="102" r="0.25" stroke-width="0" fill="#000" /><circle cx="102" cy="93" r="0.25" stroke-width="0" fill="#000" /><circle cx="84" cy="67.5" r="0.25" stroke-width="0" fill="#000" /><circle cx="97.5" cy="72" r="0.25" stroke-width="0" fill="#000" /><circle cx="12" cy="31.5" r="0.25" stroke-width="0" fill="#000" /><circle cx="25.5" cy="37.5" r="0.25" stroke-width="0" fill="#000" /><circle cx="6" cy="43.5" r="0.25" stroke-width="0" fill="#000" /><circle cx="19.5" cy="36" r="0.25" stroke-width="0" fill="#000" /><circle cx="49.5" cy="4.5" r="0.25" stroke-width="0" fill="#000" /><circle cx="34.5" cy="10.5" r="0.25" stroke-width="0" fill="#000" /><circle cx="91.5" cy="75" r="0.25" stroke-width="0" fill="#000" /><circle cx="75" cy="75" r="0.25" stroke-width="0" fill="#000" /><circle cx="82.5" cy="97.5" r="0.25" stroke-width="0" fill="#000" /><circle cx="99" cy="100.5" r="0.25" stroke-width="0" fill="#000" /><circle cx="9" cy="97.5" r="0.25" stroke-width="0" fill="#000" /><circle cx="3" cy="81" r="0.25" stroke-width="0" fill="#000" /><circle cx="55.5" cy="88.5" r="0.25" stroke-width="0" fill="#000" /><circle cx="61.5" cy="72" r="0.25" stroke-width="0" fill="#000" /><circle cx="27" cy="4.5" r="0.25" stroke-width="0" fill="#000" /><circle cx="13.5" cy="16.5" r="0.25" stroke-width="0" fill="#000" /><circle cx="63" cy="73.5" r="0.25" stroke-width="0" fill="#000" /><circle cx="45" cy="70.5" r="0.25" stroke-width="0" fill="#000" /><circle cx="13.5" cy="84" r="0.25" stroke-width="0" fill="#000" /><circle cx="12" cy="64.5" r="0.25" stroke-width="0" fill="#000" /><circle cx="69" cy="76.5" r="0.25" stroke-width="0" fill="#000" /><circle cx="49.5" cy="72" r="0.25" stroke-width="0" fill="#000" /><circle cx="55.5" cy="7.5" r="0.25" stroke-width="0" fill="#000" /><circle cx="75" cy="3" r="0.25" stroke-width="0" fill="#000" /><circle cx="42" cy="91.5" r="0.25" stroke-width="0" fill="#000" /><circle cx="34.5" cy="72" r="0.25" stroke-width="0" fill="#000" /><circle cx="31.5" cy="46.5" r="0.25" stroke-width="0" fill="#000" /><circle cx="46.5" cy="61.5" r="0.25" stroke-width="0" fill="#000" /><circle cx="4.5" cy="31.5" r="0.25" stroke-width="0" fill="#000" /><circle cx="13.5" cy="51" r="0.25" stroke-width="0" fill="#000" /><circle cx="100.5" cy="3" r="0.25" stroke-width="0" fill="#000" /><circle cx="81" cy="12" r="0.25" stroke-width="0" fill="#000" /><circle cx="27" cy="48" r="0.25" stroke-width="0" fill="#000" /><circle cx="46.5" cy="57" r="0.25" stroke-width="0" fill="#000" /><circle cx="7.5" cy="99" r="0.25" stroke-width="0" fill="#000" /><circle cx="30" cy="97.5" r="0.25" stroke-width="0" fill="#000" /><circle cx="3" cy="42" r="0.25" stroke-width="0" fill="#000" /><circle cx="13.5" cy="21" r="0.25" stroke-width="0" fill="#000" /><circle cx="99" cy="90" r="0.25" stroke-width="0" fill="#000" /><circle cx="78" cy="100.5" r="0.25" stroke-width="0" fill="#000" /><circle cx="34.5" cy="6" r="0.25" stroke-width="0" fill="#000" /><circle cx="10.5" cy="10.5" r="0.25" stroke-width="0" fill="#000" /><circle cx="27" cy="37.5" r="0.25" stroke-width="0" fill="#000" /><circle cx="49.5" cy="49.5" r="0.25" stroke-width="0" fill="#000" /><circle cx="9" cy="102" r="0.25" stroke-width="0" fill="#000" /><circle cx="3" cy="76.5" r="0.25" stroke-width="0" fill="#000" /><circle cx="85.5" cy="18" r="0.25" stroke-width="0" fill="#000" /><circle cx="102" cy="39" r="0.25" stroke-width="0" fill="#000" /><circle cx="15" cy="78" r="0.25" stroke-width="0" fill="#000" /><circle cx="15" cy="51" r="0.25" stroke-width="0" fill="#000" /><circle cx="90" cy="6" r="0.25" stroke-width="0" fill="#000" /><circle cx="64.5" cy="15" r="0.25" stroke-width="0" fill="#000" /><circle cx="49.5" cy="3" r="0.25" stroke-width="0" fill="#000" /><circle cx="22.5" cy="7.5" r="0.25" stroke-width="0" fill="#000" /><circle cx="30" cy="12" r="0.25" stroke-width="0" fill="#000" /><circle cx="55.5" cy="22.5" r="0.25" stroke-width="0" fill="#000" /><circle cx="81" cy="69" r="0.25" stroke-width="0" fill="#000" /><circle cx="93" cy="94.5" r="0.25" stroke-width="0" fill="#000" /><circle cx="4.5" cy="102" r="0.25" stroke-width="0" fill="#000" /><circle cx="30" cy="90" r="0.25" stroke-width="0" fill="#000" /><circle cx="91.5" cy="49.5" r="0.25" stroke-width="0" fill="#000" /><circle cx="63" cy="51" r="0.25" stroke-width="0" fill="#000" /><circle cx="52.5" cy="79.5" r="0.25" stroke-width="0" fill="#000" /><circle cx="75" cy="97.5" r="0.25" stroke-width="0" fill="#000" /><circle cx="15" cy="28.5" r="0.25" stroke-width="0" fill="#000" /><circle cx="45" cy="33" r="0.25" stroke-width="0" fill="#000" /><circle cx="15" cy="90" r="0.25" stroke-width="0" fill="#000" /><circle cx="10.5" cy="60" r="0.25" stroke-width="0" fill="#000" /><circle cx="54" cy="6" r="0.25" stroke-width="0" fill="#000" /><circle cx="84" cy="12" r="0.25" stroke-width="0" fill="#000" /><circle cx="43.5" cy="96" r="0.25" stroke-width="0" fill="#000" /><circle cx="19.5" cy="76.5" r="0.25" stroke-width="0" fill="#000" /><circle cx="43.5" cy="64.5" r="0.25" stroke-width="0" fill="#000" /><circle cx="31.5" cy="34.5" r="0.25" stroke-width="0" fill="#000" /><circle cx="4.5" cy="12" r="0.25" stroke-width="0" fill="#000" /><circle cx="24" cy="39" r="0.25" stroke-width="0" fill="#000" /><circle cx="97.5" cy="49.5" r="0.25" stroke-width="0" fill="#000" /><circle cx="78" cy="22.5" r="0.25" stroke-width="0" fill="#000" /><circle cx="25.5" cy="94.5" r="0.25" stroke-width="0" fill="#000" /><circle cx="7.5" cy="66" r="0.25" stroke-width="0" fill="#000" /><circle cx="87" cy="24" r="0.25" stroke-width="0" fill="#000" /><circle cx="57" cy="46.5" r="0.25" stroke-width="0" fill="#000" /><circle cx="42" cy="73.5" r="0.25" stroke-width="0" fill="#000" /><circle cx="18" cy="43.5" r="0.25" stroke-width="0" fill="#000" /><circle cx="33" cy="99" r="0.25" stroke-width="0" fill="#000" /><circle cx="3" cy="70.5" r="0.25" stroke-width="0" fill="#000" /><rect x="0" y="0" width="105" height="105" stroke-width="0.4" stroke="#000" fill="none" /></svg>