<svg version="1.1" width="105" height="105" xmlns="http://www.w3.org/2000/svg"><path d="M66.4,56.9L67.5,56.9L67.5,57.1L66.6,57.1L66.6,58.9L66.9,58.9L66.9,57.4L68.4,57.4L68.4,56.4L69.4,56.4L69.4,55.4L69.9,55.4L69.9,54.4L70.4,54.4L70.4,53.4L71.4,53.4L71.4,51.4L72.4,51.4L72.4,50.9L72.9,50.9L72.9,50.4L74.4,50.4L74.4,49.4L74.9,49.4L74.9,48.9L75.9,48.9L75.9,48.4L76.4,48.4L76.4,48L76.6,48L76.6,48.6L76.1,48.6L76.1,49.1L75.1,49.1L75.1,49.6L74.6,49.6L74.6,50.6L73.1,50.6L73.1,51.1L72.6,51.1L72.6,51.6L71.6,51.6L71.6,53.6L70.6,53.6L70.6,54.6L70.1,54.6L70.1,55.6L69.6,55.6L69.6,56.6L68.6,56.6L68.6,57.6L67.1,57.6L67.1,59.1L66.6,59.1L66.6,69.1L64.6,69.1L64.6,69.6L62.6,69.6L62.6,70.1L61.6,70.1L61.6,78L61.4,78L61.4,69.9L62.4,69.9L62.4,69.4L64.4,69.4L64.4,68.9L66.4,68.9z" stroke="none"/><path d="M8.9,38.9L8.9,33.9L10.4,33.9L10.4,30L10.6,30L10.6,34.1L9.1,34.1L9.1,38.9L12.1,38.9L12.1,39.9L12.6,39.9L12.6,40.4L13.5,40.4L13.5,40.6L12.4,40.6L12.4,40.1L11.9,40.1L11.9,39.1L7.9,39.1L7.9,38.6L7.4,38.6L7.4,38.1L3.6,38.1L3.6,46.9L4.1,46.9L4.1,47.4L5.1,47.4L5.1,48.4L6.1,48.4L6.1,49.4L6.6,49.4L6.6,49.9L7.1,49.9L7.1,50.4L7.6,50.4L7.6,50.9L8.1,50.9L8.1,51.9L9.1,51.9L9.1,52.5L8.9,52.5L8.9,52.1L7.9,52.1L7.9,51.1L7.4,51.1L7.4,50.6L6.9,50.6L6.9,50.1L6.4,50.1L6.4,49.6L5.9,49.6L5.9,48.6L4.9,48.6L4.9,47.6L3.9,47.6L3.9,47.1L3.4,47.1L3.4,37.9L7.6,37.9L7.6,38.4L8.1,38.4L8.1,38.9z" stroke="none"/><path d="M84.4,89.9L84.4,88.9L89.1,88.9L89.1,89.4L95.1,89.4L95.1,89.9L96,89.9L96,90.1L94.9,90.1L94.9,89.6L88.9,89.6L88.9,89.1L84.6,89.1L84.6,90.1L84.1,90.1L84.1,97.5L83.9,97.5L83.9,90.1L82.4,90.1L82.4,89.1L80.9,89.1L80.9,88.6L78,88.6L78,88.4L81.1,88.4L81.1,88.9L82.6,88.9L82.6,89.9z" stroke="none"/><path d="M6.9,9.4L7.4,9.4L7.4,8.4L8.4,8.4L8.4,4.9L10.4,4.9L10.4,4.5L10.6,4.5L10.6,5.1L8.6,5.1L8.6,8.6L7.6,8.6L7.6,9.6L7.1,9.6L7.1,15.4L11.4,15.4L11.4,14.9L12.9,14.9L12.9,14.4L13.4,14.4L13.4,13.5L13.6,13.5L13.6,14.6L13.1,14.6L13.1,15.1L11.6,15.1L11.6,15.6L7.1,15.6L7.1,32.1L5.6,32.1L5.6,32.6L4.6,32.6L4.6,33.6L4.1,33.6L4.1,34.6L3,34.6L3,34.4L3.9,34.4L3.9,33.4L4.4,33.4L4.4,32.4L5.4,32.4L5.4,31.9L6.9,31.9z" stroke="none"/><path d="M10.6,45.4L10.6,45.9L11.1,45.9L11.1,46.9L11.6,46.9L11.6,47.9L13.6,47.9L13.6,50.4L14.1,50.4L14.1,50.9L15,50.9L15,51.1L13.9,51.1L13.9,50.6L13.4,50.6L13.4,48.1L11.4,48.1L11.4,47.1L10.9,47.1L10.9,46.1L10.4,46.1L10.4,45.6L10.1,45.6L10.1,49.4L10.6,49.4L10.6,49.9L12.6,49.9L12.6,50.9L13.1,50.9L13.1,51.4L16.6,51.4L16.6,52.5L16.4,52.5L16.4,51.6L12.9,51.6L12.9,51.1L12.4,51.1L12.4,50.1L10.4,50.1L10.4,49.6L9.9,49.6L9.9,45.6L9.4,45.6L9.4,43.6L6.9,43.6L6.9,43.1L6.4,43.1L6.4,40.1L5.4,40.1L5.4,39.6L4.4,39.6L4.4,39L4.6,39L4.6,39.4L5.6,39.4L5.6,39.9L6.6,39.9L6.6,42.9L7.1,42.9L7.1,43.4L9.6,43.4L9.6,45.4z" stroke="none"/><path d="M43.4,6.4L45.9,6.4L45.9,5.9L46.5,5.9L46.5,6.1L46.1,6.1L46.1,6.6L43.6,6.6L43.6,16.4L44.1,16.4L44.1,19.9L45.1,19.9L45.1,20.4L45.6,20.4L45.6,21.4L46.1,21.4L46.1,21.9L46.6,21.9L46.6,23.9L47.1,23.9L47.1,24.9L48.1,24.9L48.1,25.5L47.9,25.5L47.9,25.1L46.9,25.1L46.9,24.1L46.4,24.1L46.4,22.1L45.9,22.1L45.9,21.6L45.4,21.6L45.4,20.6L44.9,20.6L44.9,20.1L43.9,20.1L43.9,16.6L43.6,16.6L43.6,21.6L42.6,21.6L42.6,22.6L42.1,22.6L42.1,24L41.9,24L41.9,22.4L42.4,22.4L42.4,21.4L43.4,21.4z" stroke="none"/><path d="M37.4,37.9L37.4,37.4L39.4,37.4L39.4,36.9L39.9,36.9L39.9,36.4L42.9,36.4L42.9,35.4L44.4,35.4L44.4,34.9L47.9,34.9L47.9,34.4L48.9,34.4L48.9,32.9L49.4,32.9L49.4,30L49.6,30L49.6,33.1L49.1,33.1L49.1,34.6L48.1,34.6L48.1,35.1L44.6,35.1L44.6,35.6L43.1,35.6L43.1,36.6L40.1,36.6L40.1,37.1L39.6,37.1L39.6,37.6L37.6,37.6L37.6,38.1L32.6,38.1L32.6,43.1L32.1,43.1L32.1,48.1L31.6,48.1L31.6,49.6L30.1,49.6L30.1,51L29.9,51L29.9,49.4L31.4,49.4L31.4,47.9L31.9,47.9L31.9,42.9L32.4,42.9L32.4,38.1L29.1,38.1L29.1,38.6L27.1,38.6L27.1,39.1L24,39.1L24,38.9L26.9,38.9L26.9,38.4L28.9,38.4L28.9,37.9z" stroke="none"/><path d="M48.9,47.6L47.4,47.6L47.4,47.1L44.9,47.1L44.9,46.1L36.9,46.1L36.9,45.1L36,45.1L36,44.9L37.1,44.9L37.1,45.9L45.1,45.9L45.1,46.9L47.6,46.9L47.6,47.4L49.1,47.4L49.1,57.9L55.1,57.9L55.1,58.4L56.6,58.4L56.6,59.4L57.1,59.4L57.1,61.5L56.9,61.5L56.9,59.6L56.4,59.6L56.4,58.6L54.9,58.6L54.9,58.1L49.1,58.1L49.1,68.4L50.6,68.4L50.6,69.4L51.6,69.4L51.6,69.9L52.1,69.9L52.1,70.4L52.6,70.4L52.6,70.9L53.1,70.9L53.1,71.4L54.6,71.4L54.6,73.4L60,73.4L60,73.6L54.4,73.6L54.4,71.6L52.9,71.6L52.9,71.1L52.4,71.1L52.4,70.6L51.9,70.6L51.9,70.1L51.4,70.1L51.4,69.6L50.4,69.6L50.4,68.6L48.9,68.6z" stroke="none"/><path d="M57.4,85.9L57.4,85.4L57.9,85.4L57.9,82.9L58.4,82.9L58.4,81.9L58.9,81.9L58.9,80.9L59.9,80.9L59.9,79.5L60.1,79.5L60.1,81.1L59.1,81.1L59.1,82.1L58.6,82.1L58.6,83.1L58.1,83.1L58.1,85.6L57.6,85.6L57.6,86.1L52.1,86.1L52.1,86.4L57.6,86.4L57.6,86.9L58.6,86.9L58.6,87.9L60.1,87.9L60.1,88.4L60.6,88.4L60.6,88.9L61.1,88.9L61.1,89.9L62.1,89.9L62.1,90.4L63.1,90.4L63.1,91.5L62.9,91.5L62.9,90.6L61.9,90.6L61.9,90.1L60.9,90.1L60.9,89.1L60.4,89.1L60.4,88.6L59.9,88.6L59.9,88.1L58.4,88.1L58.4,87.1L57.4,87.1L57.4,86.6L51.9,86.6L51.9,86.1L47.6,86.1L47.6,87.6L47.1,87.6L47.1,88.1L45.1,88.1L45.1,89.1L44.6,89.1L44.6,89.6L44.1,89.6L44.1,90.1L42.6,90.1L42.6,90.6L41.6,90.6L41.6,92.1L41.1,92.1L41.1,92.6L39.6,92.6L39.6,93.1L39,93.1L39,92.9L39.4,92.9L39.4,92.4L40.9,92.4L40.9,91.9L41.4,91.9L41.4,90.4L42.4,90.4L42.4,89.9L43.9,89.9L43.9,89.4L44.4,89.4L44.4,88.9L44.9,88.9L44.9,87.9L46.9,87.9L46.9,87.4L47.4,87.4L47.4,85.9z" stroke="none"/><path d="M25.9,86.4L25.9,82.9L27.4,82.9L27.4,81.4L29.4,81.4L29.4,80.9L31.4,80.9L31.4,80.4L31.9,80.4L31.9,78.9L32.4,78.9L32.4,77.9L33,77.9L33,78.1L32.6,78.1L32.6,79.1L32.1,79.1L32.1,80.6L31.6,80.6L31.6,81.1L29.6,81.1L29.6,81.6L27.6,81.6L27.6,83.1L26.1,83.1L26.1,86.6L25.6,86.6L25.6,86.9L35.1,86.9L35.1,89.4L36.1,89.4L36.1,89.9L37.1,89.9L37.1,90.4L37.6,90.4L37.6,91.5L37.4,91.5L37.4,90.6L36.9,90.6L36.9,90.1L35.9,90.1L35.9,89.6L34.9,89.6L34.9,87.1L25.4,87.1L25.4,86.6L25.1,86.6L25.1,92.1L22.1,92.1L22.1,92.6L20.1,92.6L20.1,93.6L19.6,93.6L19.6,94.1L17.6,94.1L17.6,94.6L17.1,94.6L17.1,95.1L14.1,95.1L14.1,95.6L13.6,95.6L13.6,96.1L12,96.1L12,95.9L13.4,95.9L13.4,95.4L13.9,95.4L13.9,94.9L16.9,94.9L16.9,94.4L17.4,94.4L17.4,93.9L19.4,93.9L19.4,93.4L19.9,93.4L19.9,92.4L21.9,92.4L21.9,91.9L24.9,91.9L24.9,86.4z" stroke="none"/><path d="M71.4,27.4L71.4,27.1L65.1,27.1L65.1,27.6L64.1,27.6L64.1,28.6L63,28.6L63,28.4L63.9,28.4L63.9,27.4L64.9,27.4L64.9,26.9L71.6,26.9L71.6,27.4L84.9,27.4L84.9,26.9L86.9,26.9L86.9,26.4L87.9,26.4L87.9,24.9L88.4,24.9L88.4,24.4L89.4,24.4L89.4,22.9L90.4,22.9L90.4,22.4L91.5,22.4L91.5,22.6L90.6,22.6L90.6,23.1L89.6,23.1L89.6,24.6L88.6,24.6L88.6,25.1L88.1,25.1L88.1,26.6L87.1,26.6L87.1,27.1L85.1,27.1L85.1,27.6L71.6,27.6L71.6,32.4L72.1,32.4L72.1,33L71.9,33L71.9,32.6L71.4,32.6L71.4,27.6L71.1,27.6L71.1,32.1L70.1,32.1L70.1,33.6L68.1,33.6L68.1,34.1L67.6,34.1L67.6,34.5L67.4,34.5L67.4,33.9L67.9,33.9L67.9,33.4L69.9,33.4L69.9,31.9L70.9,31.9L70.9,27.4z" stroke="none"/><path d="M83.9,43.4L83.9,40.4L84.4,40.4L84.4,39.4L86.9,39.4L86.9,38.9L87.4,38.9L87.4,38.4L87.9,38.4L87.9,37.9L88.9,37.9L88.9,36.9L89.4,36.9L89.4,35.9L90.4,35.9L90.4,35.4L92.6,35.4L92.6,35.9L93.1,35.9L93.1,36.4L93.6,36.4L93.6,37.9L95.1,37.9L95.1,38.4L95.6,38.4L95.6,38.9L96,38.9L96,39.1L95.4,39.1L95.4,38.6L94.9,38.6L94.9,38.1L93.4,38.1L93.4,36.6L92.9,36.6L92.9,36.1L92.4,36.1L92.4,35.6L90.6,35.6L90.6,36.1L89.6,36.1L89.6,37.1L89.1,37.1L89.1,38.1L88.1,38.1L88.1,38.6L87.6,38.6L87.6,39.1L87.1,39.1L87.1,39.6L84.6,39.6L84.6,40.6L84.1,40.6L84.1,43.4L84.4,43.4L84.4,42.9L85.4,42.9L85.4,41.9L85.9,41.9L85.9,41.4L86.4,41.4L86.4,40.9L87.4,40.9L87.4,39.9L88.4,39.9L88.4,38.4L89.4,38.4L89.4,37.4L89.9,37.4L89.9,36.4L90.9,36.4L90.9,35.9L91.5,35.9L91.5,36.1L91.1,36.1L91.1,36.6L90.1,36.6L90.1,37.6L89.6,37.6L89.6,38.6L88.6,38.6L88.6,40.1L87.6,40.1L87.6,41.1L86.6,41.1L86.6,41.6L86.1,41.6L86.1,42.1L85.6,42.1L85.6,43.1L84.6,43.1L84.6,43.6L84.1,43.6L84.1,47.4L84.6,47.4L84.6,47.9L85.6,47.9L85.6,48.4L86.1,48.4L86.1,48.9L87.6,48.9L87.6,49.4L88.5,49.4L88.5,49.6L87.4,49.6L87.4,49.1L85.9,49.1L85.9,48.6L85.4,48.6L85.4,48.1L84.4,48.1L84.4,47.6L83.9,47.6L83.9,43.6L83.4,43.6L83.4,42.6L82.9,42.6L82.9,41.6L81.4,41.6L81.4,41.1L80.6,41.1L80.6,41.6L80.1,41.6L80.1,48.9L83.1,48.9L83.1,49.4L84.6,49.4L84.6,49.9L85.1,49.9L85.1,50.4L86.1,50.4L86.1,50.9L91.6,50.9L91.6,51.4L92.6,51.4L92.6,52.9L93.1,52.9L93.1,54.4L93.6,54.4L93.6,56.4L94.1,56.4L94.1,60.6L93.6,60.6L93.6,61.1L93.1,61.1L93.1,62.1L90.1,62.1L90.1,62.6L70.9,62.6L70.9,60.6L69.9,60.6L69.9,59.6L69.4,59.6L69.4,59.1L68.9,59.1L68.9,58.5L69.1,58.5L69.1,58.9L69.6,58.9L69.6,59.4L70.1,59.4L70.1,60.4L71.1,60.4L71.1,62.4L89.9,62.4L89.9,61.9L92.9,61.9L92.9,60.9L93.4,60.9L93.4,60.4L93.9,60.4L93.9,56.6L93.4,56.6L93.4,54.6L92.9,54.6L92.9,53.1L92.4,53.1L92.4,51.6L91.4,51.6L91.4,51.1L85.9,51.1L85.9,50.6L84.9,50.6L84.9,50.1L84.4,50.1L84.4,49.6L82.9,49.6L82.9,49.1L79.9,49.1L79.9,41.4L80.4,41.4L80.4,40.9L81.6,40.9L81.6,41.4L83.1,41.4L83.1,42.4L83.6,42.4L83.6,43.4z" stroke="none"/><path d="M77.9,48.9L77.9,47.1L74.6,47.1L74.6,48.1L74.1,48.1L74.1,49.6L72.6,49.6L72.6,50.6L70.6,50.6L70.6,51L70.4,51L70.4,50.4L72.4,50.4L72.4,49.4L73.9,49.4L73.9,47.9L74.4,47.9L74.4,46.9L78.1,46.9L78.1,48.9L78.4,48.9L78.4,41.4L79.4,41.4L79.4,38.9L80.9,38.9L80.9,37.9L81.4,37.9L81.4,37.4L82.4,37.4L82.4,36.9L84.9,36.9L84.9,35.9L85.5,35.9L85.5,36.1L85.1,36.1L85.1,37.1L82.6,37.1L82.6,37.6L81.6,37.6L81.6,38.1L81.1,38.1L81.1,39.1L79.6,39.1L79.6,41.6L78.6,41.6L78.6,49.1L78.1,49.1L78.1,59.1L75.6,59.1L75.6,60.1L75.1,60.1L75.1,60.6L73.6,60.6L73.6,61.6L72,61.6L72,61.4L73.4,61.4L73.4,60.4L74.9,60.4L74.9,59.9L75.4,59.9L75.4,58.9L77.9,58.9L77.9,49.1L77.6,49.1L77.6,55.6L77.1,55.6L77.1,57.6L74.1,57.6L74.1,59.1L72.6,59.1L72.6,59.6L72.1,59.6L72.1,61.1L71.6,61.1L71.6,61.9L88.4,61.9L88.4,60.9L89.4,60.9L89.4,60.4L90.4,60.4L90.4,59.9L90.9,59.9L90.9,57.4L91.9,57.4L91.9,56.9L93,56.9L93,57.1L92.1,57.1L92.1,57.6L91.1,57.6L91.1,60.1L90.6,60.1L90.6,60.6L89.6,60.6L89.6,61.1L88.6,61.1L88.6,62.1L71.4,62.1L71.4,60.9L71.9,60.9L71.9,59.4L72.4,59.4L72.4,58.9L73.9,58.9L73.9,57.4L76.9,57.4L76.9,55.4L77.4,55.4L77.4,48.9z" stroke="none"/><path d="M45.9,88.9L45.9,88.4L51.9,88.4L51.9,87.9L55.6,87.9L55.6,88.9L56.1,88.9L56.1,89.4L57.1,89.4L57.1,89.9L57.6,89.9L57.6,101.1L51.9,101.1L51.9,100.1L50.9,100.1L50.9,99.6L45.9,99.6L45.9,99.1L44.9,99.1L44.9,98.6L43.9,98.6L43.9,98.1L40.4,98.1L40.4,96.6L39.9,96.6L39.9,96.1L39.4,96.1L39.4,95.6L38.4,95.6L38.4,95.1L37.9,95.1L37.9,92.4L38.4,92.4L38.4,88.6L36.9,88.6L36.9,88.1L35.9,88.1L35.9,87.1L35.4,87.1L35.4,86.6L30.4,86.6L30.4,86.1L29.9,86.1L29.9,85.6L28.4,85.6L28.4,85.1L27.9,85.1L27.9,84.6L27.4,84.6L27.4,84.1L27,84.1L27,83.9L27.6,83.9L27.6,84.4L28.1,84.4L28.1,84.9L28.6,84.9L28.6,85.4L30.1,85.4L30.1,85.9L30.6,85.9L30.6,86.4L35.6,86.4L35.6,86.9L36.1,86.9L36.1,87.9L37.1,87.9L37.1,88.4L38.6,88.4L38.6,92.6L38.1,92.6L38.1,94.9L38.6,94.9L38.6,95.4L39.6,95.4L39.6,95.9L40.1,95.9L40.1,96.4L40.6,96.4L40.6,97.9L44.1,97.9L44.1,98.4L45.1,98.4L45.1,98.9L46.1,98.9L46.1,99.4L51.1,99.4L51.1,99.9L52.1,99.9L52.1,100.9L57.4,100.9L57.4,90.1L56.9,90.1L56.9,89.6L55.9,89.6L55.9,89.1L55.4,89.1L55.4,88.1L52.1,88.1L52.1,88.6L46.1,88.6L46.1,88.9L52.9,88.9L52.9,88.4L54,88.4L54,88.6L53.1,88.6L53.1,89.1L46.1,89.1L46.1,89.4L52.6,89.4L52.6,89.9L53.1,89.9L53.1,91.4L57,91.4L57,91.6L52.9,91.6L52.9,90.1L52.4,90.1L52.4,89.6L45.9,89.6L45.9,89.1L45.6,89.1L45.6,89.9L46.6,89.9L46.6,91.4L47.1,91.4L47.1,92.4L48.6,92.4L48.6,92.9L49.1,92.9L49.1,93.4L50.1,93.4L50.1,93.9L50.6,93.9L50.6,95.9L52.1,95.9L52.1,96.9L52.6,96.9L52.6,97.4L53.6,97.4L53.6,97.9L54.6,97.9L54.6,98.4L55.1,98.4L55.1,98.9L55.6,98.9L55.6,100.5L55.4,100.5L55.4,99.1L54.9,99.1L54.9,98.6L54.4,98.6L54.4,98.1L53.4,98.1L53.4,97.6L52.4,97.6L52.4,97.1L51.9,97.1L51.9,96.1L50.4,96.1L50.4,94.1L49.9,94.1L49.9,93.6L48.9,93.6L48.9,93.1L48.4,93.1L48.4,92.6L46.9,92.6L46.9,91.6L46.4,91.6L46.4,90.1L45.4,90.1L45.4,88.9z" stroke="none"/><path d="M21.9,31.4L21.9,26.1L19.9,26.1L19.9,25.6L18.4,25.6L18.4,24.6L17.4,24.6L17.4,22.1L16.4,22.1L16.4,21.1L13.5,21.1L13.5,20.9L16.6,20.9L16.6,21.9L17.6,21.9L17.6,24.4L18.6,24.4L18.6,25.4L20.1,25.4L20.1,25.9L22.1,25.9L22.1,31.4L34.4,31.4L34.4,30.4L34.9,30.4L34.9,29.4L35.4,29.4L35.4,28.9L39.9,28.9L39.9,28.4L40.5,28.4L40.5,28.6L40.1,28.6L40.1,29.1L35.6,29.1L35.6,29.6L35.1,29.6L35.1,30.6L34.6,30.6L34.6,31.6L22.1,31.6L22.1,40.9L22.6,40.9L22.6,41.4L23.1,41.4L23.1,41.9L23.6,41.9L23.6,42.9L24.1,42.9L24.1,43.4L24.6,43.4L24.6,44.9L26.1,44.9L26.1,45.9L26.6,45.9L26.6,47.4L27.1,47.4L27.1,50.4L28.6,50.4L28.6,51L28.4,51L28.4,50.6L26.9,50.6L26.9,47.6L26.4,47.6L26.4,46.1L25.9,46.1L25.9,45.1L24.4,45.1L24.4,43.6L23.9,43.6L23.9,43.1L23.4,43.1L23.4,42.1L22.9,42.1L22.9,41.6L22.4,41.6L22.4,41.1L21.9,41.1L21.9,31.6L18.1,31.6L18.1,32.1L17.1,32.1L17.1,34.1L13.6,34.1L13.6,34.5L13.4,34.5L13.4,33.9L16.9,33.9L16.9,31.9L17.9,31.9L17.9,31.4z" stroke="none"/><path d="M19.4,69.9L19.4,57.4L19.9,57.4L19.9,56.9L20.9,56.9L20.9,56.4L21.4,56.4L21.4,54.4L28.4,54.4L28.4,53.9L30,53.9L30,54.1L28.6,54.1L28.6,54.6L21.6,54.6L21.6,56.6L21.1,56.6L21.1,57.1L20.1,57.1L20.1,57.6L19.6,57.6L19.6,69.9L20.1,69.9L20.1,70.4L21.1,70.4L21.1,70.9L24.6,70.9L24.6,71.4L25.1,71.4L25.1,71.9L27.1,71.9L27.1,72.4L28.1,72.4L28.1,73.4L29.1,73.4L29.1,74.4L29.6,74.4L29.6,74.9L31.1,74.9L31.1,75.9L31.6,75.9L31.6,76.4L33.1,76.4L33.1,76.9L33.6,76.9L33.6,77.4L34.1,77.4L34.1,82.4L34.6,82.4L34.6,84L34.4,84L34.4,82.6L33.9,82.6L33.9,77.6L33.4,77.6L33.4,77.1L32.9,77.1L32.9,76.6L31.4,76.6L31.4,76.1L30.9,76.1L30.9,75.1L29.4,75.1L29.4,74.6L28.9,74.6L28.9,73.6L27.9,73.6L27.9,72.6L26.9,72.6L26.9,72.1L24.9,72.1L24.9,71.6L24.4,71.6L24.4,71.1L20.9,71.1L20.9,70.6L19.9,70.6L19.9,70.1L19.6,70.1L19.6,76.1L19.1,76.1L19.1,77.6L16.1,77.6L16.1,78.6L15.6,78.6L15.6,79.1L13.6,79.1L13.6,79.6L12,79.6L12,79.4L13.4,79.4L13.4,78.9L15.4,78.9L15.4,78.4L15.9,78.4L15.9,77.4L18.9,77.4L18.9,75.9L19.4,75.9L19.4,70.1L13.1,70.1L13.1,70.6L12.1,70.6L12.1,71.1L11.1,71.1L11.1,71.6L10.6,71.6L10.6,72L10.4,72L10.4,71.4L10.9,71.4L10.9,70.9L11.9,70.9L11.9,70.4L12.9,70.4L12.9,69.9z" stroke="none"/><path d="M92.4,43.4L92.4,42.9L95.4,42.9L95.4,41.9L96.4,41.9L96.4,41.4L97.4,41.4L97.4,40.9L97.9,40.9L97.9,39.9L98.9,39.9L98.9,38.9L99.4,38.9L99.4,36.9L99.9,36.9L99.9,36.4L100.9,36.4L100.9,35.9L102,35.9L102,36.1L101.1,36.1L101.1,36.6L100.1,36.6L100.1,37.1L99.6,37.1L99.6,39.1L99.1,39.1L99.1,40.1L98.1,40.1L98.1,41.1L97.6,41.1L97.6,41.6L96.6,41.6L96.6,42.1L95.6,42.1L95.6,43.1L92.6,43.1L92.6,43.4L98.9,43.4L98.9,42.4L100.4,42.4L100.4,41.9L100.9,41.9L100.9,41.4L101.4,41.4L101.4,40.9L101.9,40.9L101.9,40.5L102.1,40.5L102.1,41.1L101.6,41.1L101.6,41.6L101.1,41.6L101.1,42.1L100.6,42.1L100.6,42.6L99.1,42.6L99.1,43.6L92.6,43.6L92.6,44.1L92.1,44.1L92.1,45.6L91.6,45.6L91.6,46.1L91.1,46.1L91.1,47.6L90.6,47.6L90.6,50.1L89.1,50.1L89.1,50.6L87.4,50.6L87.4,50.1L85.9,50.1L85.9,49.6L85.4,49.6L85.4,49.1L83.9,49.1L83.9,48.6L83.4,48.6L83.4,44.6L82.9,44.6L82.9,43.1L81.9,43.1L81.9,42.6L81.4,42.6L81.4,42.1L81,42.1L81,41.9L81.6,41.9L81.6,42.4L82.1,42.4L82.1,42.9L83.1,42.9L83.1,44.4L83.6,44.4L83.6,48.4L84.1,48.4L84.1,48.9L85.6,48.9L85.6,49.4L86.1,49.4L86.1,49.9L87.6,49.9L87.6,50.4L88.9,50.4L88.9,49.9L90.4,49.9L90.4,47.4L90.9,47.4L90.9,45.9L91.4,45.9L91.4,45.4L91.9,45.4L91.9,43.9L92.4,43.9L92.4,43.6L91.9,43.6L91.9,42.4L93.4,42.4L93.4,41.9L94.4,41.9L94.4,41.4L94.9,41.4L94.9,40.4L95.9,40.4L95.9,39.9L96.4,39.9L96.4,39.4L96.9,39.4L96.9,37.4L97.9,37.4L97.9,36.4L99.4,36.4L99.4,35.9L100.4,35.9L100.4,35.4L102.6,35.4L102.6,61.6L99.1,61.6L99.1,62.6L98.1,62.6L98.1,63.6L96.1,63.6L96.1,64.1L94.6,64.1L94.6,64.5L94.4,64.5L94.4,63.9L95.9,63.9L95.9,63.4L97.9,63.4L97.9,62.4L98.9,62.4L98.9,61.4L102.4,61.4L102.4,35.6L100.6,35.6L100.6,36.1L99.6,36.1L99.6,36.6L98.1,36.6L98.1,37.6L97.1,37.6L97.1,39.6L96.6,39.6L96.6,40.1L96.1,40.1L96.1,40.6L95.1,40.6L95.1,41.6L94.6,41.6L94.6,42.1L93.6,42.1L93.6,42.6L92.1,42.6L92.1,43.4z" stroke="none"/><path d="M54.4,16.4L54.4,8.4L54.9,8.4L54.9,6.6L54.4,6.6L54.4,6.1L54,6.1L54,5.9L54.6,5.9L54.6,6.4L55.1,6.4L55.1,8.6L54.6,8.6L54.6,16.4L55.4,16.4L55.4,15.4L56.9,15.4L56.9,14.9L57.9,14.9L57.9,13.9L58.9,13.9L58.9,13.4L59.4,13.4L59.4,12.9L60.9,12.9L60.9,12.4L61.9,12.4L61.9,8.4L62.4,8.4L62.4,6.9L63.4,6.9L63.4,5.4L63.9,5.4L63.9,4.4L64.5,4.4L64.5,4.6L64.1,4.6L64.1,5.6L63.6,5.6L63.6,7.1L62.6,7.1L62.6,8.6L62.1,8.6L62.1,12.6L61.1,12.6L61.1,13.1L59.6,13.1L59.6,13.6L59.1,13.6L59.1,14.1L58.1,14.1L58.1,15.1L57.1,15.1L57.1,15.6L55.6,15.6L55.6,16.6L54.6,16.6L54.6,16.9L61.9,16.9L61.9,15.9L62.9,15.9L62.9,14.4L63.4,14.4L63.4,13.9L63.9,13.9L63.9,13.4L64.4,13.4L64.4,12.9L65.4,12.9L65.4,12.4L66.6,12.4L66.6,12.9L67.1,12.9L67.1,24.6L65.6,24.6L65.6,25.1L65.1,25.1L65.1,25.6L64.6,25.6L64.6,26.1L64.1,26.1L64.1,27.1L63.6,27.1L63.6,27.6L62.6,27.6L62.6,28.1L62.1,28.1L62.1,32.1L61.6,32.1L61.6,32.6L61.1,32.6L61.1,34.1L60.6,34.1L60.6,34.6L60,34.6L60,34.4L60.4,34.4L60.4,33.9L60.9,33.9L60.9,32.4L61.4,32.4L61.4,31.9L61.9,31.9L61.9,27.9L62.4,27.9L62.4,27.4L63.4,27.4L63.4,26.9L63.9,26.9L63.9,25.9L64.4,25.9L64.4,25.4L64.9,25.4L64.9,24.9L65.4,24.9L65.4,24.4L66.9,24.4L66.9,13.1L66.4,13.1L66.4,12.6L65.6,12.6L65.6,13.1L64.6,13.1L64.6,13.6L64.1,13.6L64.1,14.1L63.6,14.1L63.6,14.6L63.1,14.6L63.1,16.1L62.1,16.1L62.1,17.1L54.4,17.1L54.4,16.6L53.9,16.6L53.9,10.1L50.4,10.1L50.4,9.6L48.9,9.6L48.9,7.1L48.4,7.1L48.4,6.6L47.1,6.6L47.1,18.4L47.6,18.4L47.6,18.9L48.1,18.9L48.1,23.4L48.6,23.4L48.6,23.9L49.1,23.9L49.1,27.6L48.1,27.6L48.1,30L47.9,30L47.9,27.4L48.9,27.4L48.9,24.1L48.4,24.1L48.4,23.6L47.9,23.6L47.9,19.1L47.4,19.1L47.4,18.6L46.9,18.6L46.9,6.4L48.6,6.4L48.6,6.9L49.1,6.9L49.1,9.4L50.6,9.4L50.6,9.9L54.1,9.9L54.1,16.4z" stroke="none"/><path d="M30.9,24.4L30.9,18.6L29.4,18.6L29.4,17.6L24.9,17.6L24.9,16.6L23.9,16.6L23.9,16.1L22.4,16.1L22.4,15.1L18,15.1L18,14.9L22.6,14.9L22.6,15.9L24.1,15.9L24.1,16.4L25.1,16.4L25.1,17.4L29.6,17.4L29.6,18.4L31.1,18.4L31.1,24.4L32.9,24.4L32.9,23.4L33.4,23.4L33.4,21.9L34.9,21.9L34.9,21.4L35.9,21.4L35.9,20.9L36.9,20.9L36.9,17.4L38.4,17.4L38.4,16.4L39,16.4L39,16.6L38.6,16.6L38.6,17.6L37.1,17.6L37.1,21.1L36.1,21.1L36.1,21.6L35.1,21.6L35.1,22.1L33.6,22.1L33.6,23.6L33.1,23.6L33.1,24.6L31.1,24.6L31.1,24.9L37.1,24.9L37.1,25.4L37.6,25.4L37.6,25.9L38.6,25.9L38.6,26.4L39.6,26.4L39.6,26.9L40.1,26.9L40.1,27.4L41.1,27.4L41.1,27.9L41.6,27.9L41.6,29.9L42.6,29.9L42.6,30.4L43.1,30.4L43.1,30.9L43.6,30.9L43.6,31.5L43.4,31.5L43.4,31.1L42.9,31.1L42.9,30.6L42.4,30.6L42.4,30.1L41.4,30.1L41.4,28.1L40.9,28.1L40.9,27.6L39.9,27.6L39.9,27.1L39.4,27.1L39.4,26.6L38.4,26.6L38.4,26.1L37.4,26.1L37.4,25.6L36.9,25.6L36.9,25.1L30.9,25.1L30.9,24.6L19.9,24.6L19.9,23.6L19.4,23.6L19.4,23.1L18.9,23.1L18.9,22.6L17.9,22.6L17.9,21.6L16.9,21.6L16.9,20.6L13.9,20.6L13.9,20.1L13.1,20.1L13.1,20.6L12.6,20.6L12.6,34.9L13.1,34.9L13.1,35.4L13.6,35.4L13.6,35.9L14.1,35.9L14.1,36.4L14.6,36.4L14.6,36.9L15.1,36.9L15.1,37.4L16.1,37.4L16.1,38.4L18.1,38.4L18.1,39.9L18.6,39.9L18.6,41.4L19.1,41.4L19.1,41.9L20.1,41.9L20.1,42.4L20.6,42.4L20.6,42.9L21.1,42.9L21.1,43.9L21.6,43.9L21.6,44.9L22.1,44.9L22.1,45.9L22.6,45.9L22.6,46.9L25.6,46.9L25.6,47.9L26.6,47.9L26.6,51.4L27.6,51.4L27.6,51.9L31.4,51.9L31.4,51.4L31.9,51.4L31.9,50.4L32.4,50.4L32.4,44.4L32.9,44.4L32.9,43.5L33.1,43.5L33.1,44.6L32.6,44.6L32.6,50.6L32.1,50.6L32.1,51.6L31.6,51.6L31.6,52.1L27.4,52.1L27.4,51.6L26.4,51.6L26.4,48.1L25.4,48.1L25.4,47.1L22.4,47.1L22.4,46.1L21.9,46.1L21.9,45.1L21.4,45.1L21.4,44.1L20.9,44.1L20.9,43.1L20.4,43.1L20.4,42.6L19.9,42.6L19.9,42.1L18.9,42.1L18.9,41.6L18.4,41.6L18.4,40.1L17.9,40.1L17.9,38.6L15.9,38.6L15.9,37.6L14.9,37.6L14.9,37.1L14.4,37.1L14.4,36.6L13.9,36.6L13.9,36.1L13.4,36.1L13.4,35.6L12.9,35.6L12.9,35.1L12.4,35.1L12.4,20.4L12.9,20.4L12.9,19.9L14.1,19.9L14.1,20.4L17.1,20.4L17.1,21.4L18.1,21.4L18.1,22.4L19.1,22.4L19.1,22.9L19.6,22.9L19.6,23.4L20.1,23.4L20.1,24.4z" stroke="none"/><path d="M53.4,18.4L53.4,15.1L52.9,15.1L52.9,10.6L48.9,10.6L48.9,10.1L48.4,10.1L48.4,8.6L47.9,8.6L47.9,7.5L48.1,7.5L48.1,8.4L48.6,8.4L48.6,9.9L49.1,9.9L49.1,10.4L53.1,10.4L53.1,14.9L53.6,14.9L53.6,18.4L57.1,18.4L57.1,18.9L57.6,18.9L57.6,19.4L58.6,19.4L58.6,19.9L59.1,19.9L59.1,20.4L59.6,20.4L59.6,20.9L60.6,20.9L60.6,22.4L61.6,22.4L61.6,23.9L62.1,23.9L62.1,24.4L62.6,24.4L62.6,25.4L63,25.4L63,25.6L62.4,25.6L62.4,24.6L61.9,24.6L61.9,24.1L61.4,24.1L61.4,22.6L60.4,22.6L60.4,21.1L59.4,21.1L59.4,20.6L58.9,20.6L58.9,20.1L58.4,20.1L58.4,19.6L57.4,19.6L57.4,19.1L56.9,19.1L56.9,18.6L53.6,18.6L53.6,21.9L54.1,21.9L54.1,22.4L54.6,22.4L54.6,23.4L58.6,23.4L58.6,23.9L59.6,23.9L59.6,25.4L60.1,25.4L60.1,25.9L63.4,25.9L63.4,20.4L63.9,20.4L63.9,18.9L64.4,18.9L64.4,16.4L64.9,16.4L64.9,14.9L65.4,14.9L65.4,13.4L66,13.4L66,13.6L65.6,13.6L65.6,15.1L65.1,15.1L65.1,16.6L64.6,16.6L64.6,19.1L64.1,19.1L64.1,20.6L63.6,20.6L63.6,26.1L59.9,26.1L59.9,25.6L59.4,25.6L59.4,24.1L58.4,24.1L58.4,23.6L54.4,23.6L54.4,22.6L53.9,22.6L53.9,22.1L53.4,22.1L53.4,18.6L53.1,18.6L53.1,32.1L51.6,32.1L51.6,33.1L51.1,33.1L51.1,33.6L50.6,33.6L50.6,35.1L49.6,35.1L49.6,35.6L46.1,35.6L46.1,36.1L45,36.1L45,35.9L45.9,35.9L45.9,35.4L49.4,35.4L49.4,34.9L50.4,34.9L50.4,33.4L50.9,33.4L50.9,32.9L51.4,32.9L51.4,31.9L52.9,31.9L52.9,18.4z" stroke="none"/><path d="M81,81.1L81,80.9L82.5,80.9L82.5,81.1z" stroke="none"/><path d="M64.5,6.1L64.5,5.9L66,5.9L66,6.1z" stroke="none"/><path d="M97.4,69L97.6,69L97.6,70.5L97.4,70.5z" stroke="none"/><path d="M30,82.4L30,82.6L28.5,82.6L28.5,82.4z" stroke="none"/><path d="M67.5,43.6L67.5,43.4L68.4,43.4L68.4,42.4L68.9,42.4L68.9,42L69.1,42L69.1,42.6L68.6,42.6L68.6,43.6z" stroke="none"/><path d="M87,10.4L87,10.6L86.6,10.6L86.6,11.6L86.1,11.6L86.1,12.1L85.5,12.1L85.5,11.9L85.9,11.9L85.9,11.4L86.4,11.4L86.4,10.4z" stroke="none"/><path d="M6,96.1L6,95.9L6.9,95.9L6.9,94.9L7.4,94.9L7.4,94.5L7.6,94.5L7.6,95.1L7.1,95.1L7.1,96.1z" stroke="none"/><path d="M39,55.6L39,55.4L41.4,55.4L41.4,53.9L42,53.9L42,54.1L41.6,54.1L41.6,55.6z" stroke="none"/><path d="M18,76.4L18,76.6L17.1,76.6L17.1,77.1L15.6,77.1L15.6,77.6L15.1,77.6L15.1,78L14.9,78L14.9,77.4L15.4,77.4L15.4,76.9L16.9,76.9L16.9,76.4z" stroke="none"/><path d="M94.4,79.5L94.6,79.5L94.6,84L94.4,84z" stroke="none"/><path d="M30,100.4L30,100.6L24,100.6L24,100.4z" stroke="none"/><path d="M5.9,82.5L6.1,82.5L6.1,88.5L5.9,88.5z" stroke="none"/><path d="M81,71.9L81,72.1L75,72.1L75,71.9z" stroke="none"/><path d="M57.1,12L56.9,12L56.9,5.9L58.5,5.9L58.5,6.1L57.1,6.1z" stroke="none"/><path d="M55.6,13.5L55.4,13.5L55.4,5.1L53.6,5.1L53.6,5.6L53.1,5.6L53.1,6.9L53.6,6.9L53.6,7.4L54,7.4L54,7.6L53.4,7.6L53.4,7.1L52.9,7.1L52.9,5.4L53.4,5.4L53.4,4.9L55.6,4.9z" stroke="none"/><path d="M24,33.1L24,32.9L26.1,32.9L26.1,34.9L27.1,34.9L27.1,35.9L28.1,35.9L28.1,36.9L28.6,36.9L28.6,37.5L28.4,37.5L28.4,37.1L27.9,37.1L27.9,36.1L26.9,36.1L26.9,35.1L25.9,35.1L25.9,33.1z" stroke="none"/><path d="M87,20.9L87,21.1L83.9,21.1L83.9,20.1L82.4,20.1L82.4,19.1L81.9,19.1L81.9,16.6L81,16.6L81,16.4L82.1,16.4L82.1,18.9L82.6,18.9L82.6,19.9L84.1,19.9L84.1,20.9z" stroke="none"/><path d="M7.5,49.6L7.5,49.4L9.1,49.4L9.1,49.9L9.6,49.9L9.6,50.4L11.6,50.4L11.6,50.9L12.1,50.9L12.1,52.4L12.6,52.4L12.6,52.9L14.6,52.9L14.6,53.4L15.1,53.4L15.1,54L14.9,54L14.9,53.6L14.4,53.6L14.4,53.1L12.4,53.1L12.4,52.6L11.9,52.6L11.9,51.1L11.4,51.1L11.4,50.6L9.4,50.6L9.4,50.1L8.9,50.1L8.9,49.6z" stroke="none"/><path d="M78.1,85.5L77.9,85.5L77.9,80.6L77.4,80.6L77.4,79.6L76.9,79.6L76.9,79.1L74.9,79.1L74.9,78.6L73.4,78.6L73.4,78L73.6,78L73.6,78.4L75.1,78.4L75.1,78.9L77.1,78.9L77.1,79.4L77.6,79.4L77.6,80.4L78.1,80.4z" stroke="none"/><path d="M7.4,79.5L7.6,79.5L7.6,81.1L7.1,81.1L7.1,81.6L5.6,81.6L5.6,82.1L5.1,82.1L5.1,85.1L3.6,85.1L3.6,86.6L3.1,86.6L3.1,87L2.9,87L2.9,86.4L3.4,86.4L3.4,84.9L4.9,84.9L4.9,81.9L5.4,81.9L5.4,81.4L6.9,81.4L6.9,80.9L7.4,80.9z" stroke="none"/><path d="M101.9,13.5L102.1,13.5L102.1,22.5L101.9,22.5z" stroke="none"/><path d="M12,4.4L12,4.6L11.4,4.6L11.4,3.6L4.9,3.6L4.9,3.1L3,3.1L3,2.9L5.1,2.9L5.1,3.4L11.6,3.4L11.6,4.4z" stroke="none"/><path d="M90,70.6L90,70.4L96.1,70.4L96.1,70.9L96.6,70.9L96.6,71.4L97.9,71.4L97.9,70.9L98.4,70.9L98.4,69.4L98.9,69.4L98.9,69L99.1,69L99.1,69.6L98.6,69.6L98.6,71.1L98.1,71.1L98.1,71.6L96.4,71.6L96.4,71.1L95.9,71.1L95.9,70.6z" stroke="none"/><path d="M7.4,85.5L7.6,85.5L7.6,92.6L7.1,92.6L7.1,93.1L4.6,93.1L4.6,94.1L3.1,94.1L3.1,94.5L2.9,94.5L2.9,93.9L4.4,93.9L4.4,92.9L6.9,92.9L6.9,92.4L7.4,92.4z" stroke="none"/><path d="M79.5,23.9L79.5,24.1L72.6,24.1L72.6,24.6L71.1,24.6L71.1,25.1L70.6,25.1L70.6,25.6L69,25.6L69,25.4L70.4,25.4L70.4,24.9L70.9,24.9L70.9,24.4L72.4,24.4L72.4,23.9z" stroke="none"/><path d="M100.5,23.9L100.5,24.1L97.4,24.1L97.4,23.6L95.9,23.6L95.9,23.1L94.9,23.1L94.9,22.1L93.4,22.1L93.4,18.6L91.9,18.6L91.9,18.1L91.5,18.1L91.5,17.9L92.1,17.9L92.1,18.4L93.6,18.4L93.6,21.9L95.1,21.9L95.1,22.9L96.1,22.9L96.1,23.4L97.6,23.4L97.6,23.9z" stroke="none"/><path d="M96.1,15L95.9,15L95.9,10.1L95.4,10.1L95.4,9.6L94.9,9.6L94.9,8.1L94.4,8.1L94.4,7.1L91.9,7.1L91.9,6.6L89.9,6.6L89.9,6L90.1,6L90.1,6.4L92.1,6.4L92.1,6.9L94.6,6.9L94.6,7.9L95.1,7.9L95.1,9.4L95.6,9.4L95.6,9.9L96.1,9.9z" stroke="none"/><path d="M71.9,3L72.1,3L72.1,9.6L71.1,9.6L71.1,11.6L70.6,11.6L70.6,12.1L70.1,12.1L70.1,13.1L69.6,13.1L69.6,13.6L69,13.6L69,13.4L69.4,13.4L69.4,12.9L69.9,12.9L69.9,11.9L70.4,11.9L70.4,11.4L70.9,11.4L70.9,9.4L71.9,9.4z" stroke="none"/><path d="M37.5,7.4L37.5,7.6L32.4,7.6L32.4,7.1L30.9,7.1L30.9,6.6L29.9,6.6L29.9,6.1L27.9,6.1L27.9,4.6L27.4,4.6L27.4,3.1L27,3.1L27,2.9L27.6,2.9L27.6,4.4L28.1,4.4L28.1,5.9L30.1,5.9L30.1,6.4L31.1,6.4L31.1,6.9L32.6,6.9L32.6,7.4z" stroke="none"/><path d="M90,78.1L90,77.9L94.1,77.9L94.1,78.4L95.1,78.4L95.1,78.9L95.6,78.9L95.6,85.9L96.1,85.9L96.1,86.4L96.6,86.4L96.6,86.9L97.5,86.9L97.5,87.1L96.4,87.1L96.4,86.6L95.9,86.6L95.9,86.1L95.4,86.1L95.4,79.1L94.9,79.1L94.9,78.6L93.9,78.6L93.9,78.1z" stroke="none"/><path d="M82.5,70.6L82.5,70.4L88.4,70.4L88.4,69.9L88.9,69.9L88.9,69.4L91.4,69.4L91.4,64.9L91.9,64.9L91.9,64.4L93,64.4L93,64.6L92.1,64.6L92.1,65.1L91.6,65.1L91.6,69.6L89.1,69.6L89.1,70.1L88.6,70.1L88.6,70.6z" stroke="none"/><path d="M20.9,87L21.1,87L21.1,87.6L20.1,87.6L20.1,89.1L19.1,89.1L19.1,89.6L18.6,89.6L18.6,90.6L18.1,90.6L18.1,91.6L15.6,91.6L15.6,92.1L15.1,92.1L15.1,92.6L13.6,92.6L13.6,93.1L13.1,93.1L13.1,95.1L11.1,95.1L11.1,96.4L11.6,96.4L11.6,96.9L19.4,96.9L19.4,96.4L29.9,96.4L29.9,96L30.1,96L30.1,96.6L19.6,96.6L19.6,97.1L11.4,97.1L11.4,96.6L10.9,96.6L10.9,94.9L12.9,94.9L12.9,92.9L13.4,92.9L13.4,92.4L14.9,92.4L14.9,91.9L15.4,91.9L15.4,91.4L17.9,91.4L17.9,90.4L18.4,90.4L18.4,89.4L18.9,89.4L18.9,88.9L19.9,88.9L19.9,87.4L20.9,87.4z" stroke="none"/><path d="M82.5,13.6L82.5,13.4L91.6,13.4L91.6,14.4L92.1,14.4L92.1,14.9L93.6,14.9L93.6,16.4L94.1,16.4L94.1,17.4L94.6,17.4L94.6,18L94.4,18L94.4,17.6L93.9,17.6L93.9,16.6L93.4,16.6L93.4,15.1L91.9,15.1L91.9,14.6L91.4,14.6L91.4,13.6z" stroke="none"/><path d="M7.6,63L7.4,63L7.4,61.9L7.9,61.9L7.9,61.4L8.4,61.4L8.4,60.4L10.9,60.4L10.9,58.9L11.9,58.9L11.9,58.4L12.4,58.4L12.4,56.9L12.9,56.9L12.9,55.9L13.4,55.9L13.4,55.4L14.4,55.4L14.4,54.9L15.4,54.9L15.4,54.4L15.9,54.4L15.9,53.6L15.4,53.6L15.4,52.6L15,52.6L15,52.4L15.6,52.4L15.6,53.4L16.1,53.4L16.1,54.6L15.6,54.6L15.6,55.1L14.6,55.1L14.6,55.6L13.6,55.6L13.6,56.1L13.1,56.1L13.1,57.1L12.6,57.1L12.6,58.6L12.1,58.6L12.1,59.1L11.1,59.1L11.1,60.6L8.6,60.6L8.6,61.6L8.1,61.6L8.1,62.1L7.6,62.1z" stroke="none"/><path d="M96.1,9L95.9,9L95.9,6.1L95.4,6.1L95.4,5.6L90.9,5.6L90.9,5.1L86.1,5.1L86.1,5.6L85.1,5.6L85.1,6.1L84.6,6.1L84.6,7.1L84.1,7.1L84.1,7.6L83.1,7.6L83.1,8.6L82.6,8.6L82.6,9L82.4,9L82.4,8.4L82.9,8.4L82.9,7.4L83.9,7.4L83.9,6.9L84.4,6.9L84.4,5.9L84.9,5.9L84.9,5.4L85.9,5.4L85.9,4.9L91.1,4.9L91.1,5.4L95.6,5.4L95.6,5.9L96.1,5.9z" stroke="none"/><path d="M85.5,87.1L85.5,86.9L96.1,86.9L96.1,87.4L96.6,87.4L96.6,87.9L97.9,87.9L97.9,87.4L98.4,87.4L98.4,85.4L99,85.4L99,85.6L98.6,85.6L98.6,87.6L98.1,87.6L98.1,88.1L96.4,88.1L96.4,87.6L95.9,87.6L95.9,87.1z" stroke="none"/><path d="M61.6,94.5L61.4,94.5L61.4,93.9L61.9,93.9L61.9,93.4L62.4,93.4L62.4,92.9L62.9,92.9L62.9,92.4L63.9,92.4L63.9,83.1L63.4,83.1L63.4,81.1L63,81.1L63,80.9L63.6,80.9L63.6,82.9L64.1,82.9L64.1,92.6L63.1,92.6L63.1,93.1L62.6,93.1L62.6,93.6L62.1,93.6L62.1,94.1L61.6,94.1z" stroke="none"/><path d="M3.1,6L2.9,6L2.9,4.1L1.9,4.1L1.9,1.9L10.6,1.9L10.6,2.4L11.6,2.4L11.6,2.9L12.6,2.9L12.6,3.9L13.1,3.9L13.1,10.9L13.6,10.9L13.6,11.4L14.1,11.4L14.1,12.4L14.6,12.4L14.6,16.1L12.6,16.1L12.6,16.6L12,16.6L12,16.4L12.4,16.4L12.4,15.9L14.4,15.9L14.4,12.6L13.9,12.6L13.9,11.6L13.4,11.6L13.4,11.1L12.9,11.1L12.9,4.1L12.4,4.1L12.4,3.1L11.4,3.1L11.4,2.6L10.4,2.6L10.4,2.1L2.1,2.1L2.1,3.9L3.1,3.9z" stroke="none"/><path d="M30.1,15L29.9,15L29.9,9.6L28.9,9.6L28.9,9.1L27.9,9.1L27.9,6.6L27.4,6.6L27.4,5.6L26.9,5.6L26.9,5.1L25.4,5.1L25.4,4.6L23.4,4.6L23.4,4.1L22.4,4.1L22.4,3L22.6,3L22.6,3.9L23.6,3.9L23.6,4.4L25.6,4.4L25.6,4.9L27.1,4.9L27.1,5.4L27.6,5.4L27.6,6.4L28.1,6.4L28.1,8.9L29.1,8.9L29.1,9.4L30.1,9.4z" stroke="none"/><path d="M96,34.6L96,34.4L102.6,34.4L102.6,34.9L103.1,34.9L103.1,68.1L102.6,68.1L102.6,68.6L101.6,68.6L101.6,69.1L101.1,69.1L101.1,70.1L100.6,70.1L100.6,71.6L98.6,71.6L98.6,72.1L81.9,72.1L81.9,71.1L81.4,71.1L81.4,69.9L81.9,69.9L81.9,69.4L88.4,69.4L88.4,68.9L89.9,68.9L89.9,68.4L90.4,68.4L90.4,67.4L90.9,67.4L90.9,64.4L91.4,64.4L91.4,63.9L91.9,63.9L91.9,63.4L92.4,63.4L92.4,62.9L92.9,62.9L92.9,62.4L93.4,62.4L93.4,61.9L93.9,61.9L93.9,60.9L94.4,60.9L94.4,50.9L94.9,50.9L94.9,50.4L95.9,50.4L95.9,49.9L97.4,49.9L97.4,49.4L98.4,49.4L98.4,47.9L100.5,47.9L100.5,48.1L98.6,48.1L98.6,49.6L97.6,49.6L97.6,50.1L96.1,50.1L96.1,50.6L95.1,50.6L95.1,51.1L94.6,51.1L94.6,61.1L94.1,61.1L94.1,62.1L93.6,62.1L93.6,62.6L93.1,62.6L93.1,63.1L92.6,63.1L92.6,63.6L92.1,63.6L92.1,64.1L91.6,64.1L91.6,64.6L91.1,64.6L91.1,67.6L90.6,67.6L90.6,68.6L90.1,68.6L90.1,69.1L88.6,69.1L88.6,69.6L82.1,69.6L82.1,70.1L81.6,70.1L81.6,70.9L82.1,70.9L82.1,71.9L98.4,71.9L98.4,71.4L100.4,71.4L100.4,69.9L100.9,69.9L100.9,68.9L101.4,68.9L101.4,68.4L102.4,68.4L102.4,67.9L102.9,67.9L102.9,35.1L102.4,35.1L102.4,34.6z" stroke="none"/><path d="M99,94.4L99,94.6L90.4,94.6L90.4,94.1L88.9,94.1L88.9,93.1L88.4,93.1L88.4,92.1L87.4,92.1L87.4,90.1L85.5,90.1L85.5,89.9L87.6,89.9L87.6,91.9L88.6,91.9L88.6,92.9L89.1,92.9L89.1,93.9L90.6,93.9L90.6,94.4z" stroke="none"/><path d="M90,88.4L90,88.6L81.9,88.6L81.9,88.1L78.4,88.1L78.4,87.6L77.6,87.6L77.6,88.1L77.1,88.1L77.1,97.9L77.6,97.9L77.6,98.4L78.1,98.4L78.1,98.9L78.6,98.9L78.6,99.4L79.6,99.4L79.6,100.5L79.4,100.5L79.4,99.6L78.4,99.6L78.4,99.1L77.9,99.1L77.9,98.6L77.4,98.6L77.4,98.1L76.9,98.1L76.9,87.9L77.4,87.9L77.4,87.4L78.6,87.4L78.6,87.9L82.1,87.9L82.1,88.4z" stroke="none"/><path d="M44.9,75L45.1,75L45.1,76.6L44.6,76.6L44.6,77.6L43.6,77.6L43.6,78.6L42.6,78.6L42.6,80.1L40.1,80.1L40.1,80.6L39.6,80.6L39.6,81.6L37.6,81.6L37.6,83.6L37.1,83.6L37.1,84.1L36.1,84.1L36.1,84.6L35.6,84.6L35.6,85.1L32.9,85.1L32.9,84.6L31.4,84.6L31.4,84L31.6,84L31.6,84.4L33.1,84.4L33.1,84.9L35.4,84.9L35.4,84.4L35.9,84.4L35.9,83.9L36.9,83.9L36.9,83.4L37.4,83.4L37.4,81.4L39.4,81.4L39.4,80.4L39.9,80.4L39.9,79.9L42.4,79.9L42.4,78.4L43.4,78.4L43.4,77.4L44.4,77.4L44.4,76.4L44.9,76.4z" stroke="none"/><path d="M10.6,76.5L10.4,76.5L10.4,74.1L9.9,74.1L9.9,72.6L9.4,72.6L9.4,67.9L9.9,67.9L9.9,66.9L10.4,66.9L10.4,66.4L12.9,66.4L12.9,65.4L13.4,65.4L13.4,64.9L13.9,64.9L13.9,63.9L14.4,63.9L14.4,63.4L14.9,63.4L14.9,62.9L15.4,62.9L15.4,62.4L15.9,62.4L15.9,61.9L16.9,61.9L16.9,59.4L17.9,59.4L17.9,58.9L18.4,58.9L18.4,57.4L18.9,57.4L18.9,56.9L19.4,56.9L19.4,56.4L20.4,56.4L20.4,54.4L20.9,54.4L20.9,53.9L26.4,53.9L26.4,53.4L28.4,53.4L28.4,52.9L31.1,52.9L31.1,59.6L29.1,59.6L29.1,61.1L27.6,61.1L27.6,61.6L26.6,61.6L26.6,62.1L25.6,62.1L25.6,62.6L23.6,62.6L23.6,63.6L23.1,63.6L23.1,64.1L22.6,64.1L22.6,64.5L22.4,64.5L22.4,63.9L22.9,63.9L22.9,63.4L23.4,63.4L23.4,62.4L25.4,62.4L25.4,61.9L26.4,61.9L26.4,61.4L27.4,61.4L27.4,60.9L28.9,60.9L28.9,59.4L30.9,59.4L30.9,53.1L28.6,53.1L28.6,53.6L26.6,53.6L26.6,54.1L21.1,54.1L21.1,54.6L20.6,54.6L20.6,56.6L19.6,56.6L19.6,57.1L19.1,57.1L19.1,57.6L18.6,57.6L18.6,59.1L18.1,59.1L18.1,59.6L17.1,59.6L17.1,62.1L16.1,62.1L16.1,62.6L15.6,62.6L15.6,63.1L15.1,63.1L15.1,63.6L14.6,63.6L14.6,64.1L14.1,64.1L14.1,65.1L13.6,65.1L13.6,65.6L13.1,65.6L13.1,66.6L10.6,66.6L10.6,67.1L10.1,67.1L10.1,68.1L9.6,68.1L9.6,72.4L10.1,72.4L10.1,73.9L10.6,73.9z" stroke="none"/><path d="M53.9,55.5L54.1,55.5L54.1,56.9L54.6,56.9L54.6,57.4L56.6,57.4L56.6,57.9L57.1,57.9L57.1,58.4L57.6,58.4L57.6,60.9L58.1,60.9L58.1,71.4L58.6,71.4L58.6,72L58.4,72L58.4,71.6L57.9,71.6L57.9,61.1L57.4,61.1L57.4,58.6L56.9,58.6L56.9,58.1L56.4,58.1L56.4,57.6L54.4,57.6L54.4,57.1L53.9,57.1z" stroke="none"/><path d="M85.4,4.5L85.6,4.5L85.6,5.1L83.6,5.1L83.6,5.6L82.6,5.6L82.6,8.1L82.1,8.1L82.1,8.6L81.6,8.6L81.6,15.1L80.6,15.1L80.6,16.1L80.1,16.1L80.1,18.6L78.6,18.6L78.6,21.1L78,21.1L78,20.9L78.4,20.9L78.4,18.4L79.9,18.4L79.9,15.9L80.4,15.9L80.4,14.9L81.4,14.9L81.4,8.4L81.9,8.4L81.9,7.9L82.4,7.9L82.4,5.4L83.4,5.4L83.4,4.9L85.4,4.9z" stroke="none"/><path d="M73.5,88.6L73.5,88.4L74.4,88.4L74.4,87.9L75.4,87.9L75.4,87.4L76.9,87.4L76.9,86.9L84.1,86.9L84.1,87.4L85.1,87.4L85.1,87.9L88.9,87.9L88.9,87.4L94.6,87.4L94.6,87.9L95.1,87.9L95.1,88.4L96.1,88.4L96.1,88.9L96.6,88.9L96.6,89.4L97.1,89.4L97.1,90.6L96.6,90.6L96.6,91.1L92.1,91.1L92.1,92.6L91.6,92.6L91.6,93L91.4,93L91.4,92.4L91.9,92.4L91.9,90.9L96.4,90.9L96.4,90.4L96.9,90.4L96.9,89.6L96.4,89.6L96.4,89.1L95.9,89.1L95.9,88.6L94.9,88.6L94.9,88.1L94.4,88.1L94.4,87.6L89.1,87.6L89.1,88.1L84.9,88.1L84.9,87.6L83.9,87.6L83.9,87.1L77.1,87.1L77.1,87.6L75.6,87.6L75.6,88.1L74.6,88.1L74.6,88.6z" stroke="none"/><path d="M85.4,91.5L85.6,91.5L85.6,91.9L86.6,91.9L86.6,92.9L87.6,92.9L87.6,93.4L88.6,93.4L88.6,94.4L90.1,94.4L90.1,94.9L97.1,94.9L97.1,95.4L99.4,95.4L99.4,94.9L99.9,94.9L99.9,78.6L97.9,78.6L97.9,78.1L97.4,78.1L97.4,76.5L97.6,76.5L97.6,77.9L98.1,77.9L98.1,78.4L100.1,78.4L100.1,95.1L99.6,95.1L99.6,95.6L96.9,95.6L96.9,95.1L89.9,95.1L89.9,94.6L88.4,94.6L88.4,93.6L87.4,93.6L87.4,93.1L86.4,93.1L86.4,92.1L85.4,92.1z" stroke="none"/><path d="M97.6,81L97.4,81L97.4,79.6L96.9,79.6L96.9,77.1L96.4,77.1L96.4,75.9L96.9,75.9L96.9,75.4L98.1,75.4L98.1,75.9L98.6,75.9L98.6,76.4L99.1,76.4L99.1,77.4L100.1,77.4L100.1,77.9L100.6,77.9L100.6,99.1L98.6,99.1L98.6,99.6L98.1,99.6L98.1,100.6L97.5,100.6L97.5,100.4L97.9,100.4L97.9,99.4L98.4,99.4L98.4,98.9L100.4,98.9L100.4,78.1L99.9,78.1L99.9,77.6L98.9,77.6L98.9,76.6L98.4,76.6L98.4,76.1L97.9,76.1L97.9,75.6L97.1,75.6L97.1,76.1L96.6,76.1L96.6,76.9L97.1,76.9L97.1,79.4L97.6,79.4z" stroke="none"/><path d="M2.9,81L3.1,81L3.1,83.1L2.6,83.1L2.6,83.6L2.1,83.6L2.1,101.4L4.6,101.4L4.6,102L4.4,102L4.4,101.6L1.9,101.6L1.9,83.4L2.4,83.4L2.4,82.9L2.9,82.9z" stroke="none"/><path d="M18,10.6L18,10.4L23.6,10.4L23.6,10.9L24.1,10.9L24.1,13.9L24.6,13.9L24.6,14.4L26.1,14.4L26.1,15.4L28.1,15.4L28.1,15.9L30.4,15.9L30.4,15.4L30.9,15.4L30.9,11.4L33.4,11.4L33.4,10.4L35.4,10.4L35.4,9.9L37.9,9.9L37.9,9.4L38.4,9.4L38.4,8.9L39,8.9L39,9.1L38.6,9.1L38.6,9.6L38.1,9.6L38.1,10.1L35.6,10.1L35.6,10.6L33.6,10.6L33.6,11.6L31.1,11.6L31.1,15.6L30.6,15.6L30.6,16.1L27.9,16.1L27.9,15.6L25.9,15.6L25.9,14.6L24.4,14.6L24.4,14.1L23.9,14.1L23.9,11.1L23.4,11.1L23.4,10.6z" stroke="none"/><path d="M57,78.1L57,77.9L60.6,77.9L60.6,78.4L61.1,78.4L61.1,78.9L63.6,78.9L63.6,80.4L64.1,80.4L64.1,82.4L64.6,82.4L64.6,83.4L65.6,83.4L65.6,84.9L66.6,84.9L66.6,85.4L67.6,85.4L67.6,86.4L68.1,86.4L68.1,87.9L68.6,87.9L68.6,88.4L69.6,88.4L69.6,88.9L70.1,88.9L70.1,89.9L70.6,89.9L70.6,90.4L72.6,90.4L72.6,90.9L73.6,90.9L73.6,91.5L73.4,91.5L73.4,91.1L72.4,91.1L72.4,90.6L70.4,90.6L70.4,90.1L69.9,90.1L69.9,89.1L69.4,89.1L69.4,88.6L68.4,88.6L68.4,88.1L67.9,88.1L67.9,86.6L67.4,86.6L67.4,85.6L66.4,85.6L66.4,85.1L65.4,85.1L65.4,83.6L64.4,83.6L64.4,82.6L63.9,82.6L63.9,80.6L63.4,80.6L63.4,79.1L60.9,79.1L60.9,78.6L60.4,78.6L60.4,78.1z" stroke="none"/><path d="M34.5,2.9L34.5,3.1L29.9,3.1L29.9,2.6L27.4,2.6L27.4,2.1L22.1,2.1L22.1,2.6L20.6,2.6L20.6,4.6L20.1,4.6L20.1,5.1L19.1,5.1L19.1,8.1L18.1,8.1L18.1,9.6L17.6,9.6L17.6,10.1L17.1,10.1L17.1,15.9L18.1,15.9L18.1,16.5L17.9,16.5L17.9,16.1L16.9,16.1L16.9,9.9L17.4,9.9L17.4,9.4L17.9,9.4L17.9,7.9L18.9,7.9L18.9,4.9L19.9,4.9L19.9,4.4L20.4,4.4L20.4,2.4L21.9,2.4L21.9,1.9L27.6,1.9L27.6,2.4L30.1,2.4L30.1,2.9z" stroke="none"/><path d="M49.5,76.6L49.5,76.4L55.9,76.4L55.9,75.9L56.4,75.9L56.4,75.4L56.9,75.4L56.9,74.9L57.9,74.9L57.9,74.4L60.9,74.4L60.9,58.9L61.4,58.9L61.4,58.5L61.6,58.5L61.6,59.1L61.1,59.1L61.1,74.6L58.1,74.6L58.1,75.1L57.1,75.1L57.1,75.6L56.6,75.6L56.6,76.1L56.1,76.1L56.1,76.6z" stroke="none"/><path d="M75.1,102L74.9,102L74.9,91.1L73.9,91.1L73.9,90.1L72.9,90.1L72.9,89.1L72.4,89.1L72.4,86.9L75.9,86.9L75.9,86.4L84.9,86.4L84.9,85.9L89.4,85.9L89.4,85.4L90,85.4L90,85.6L89.6,85.6L89.6,86.1L85.1,86.1L85.1,86.6L76.1,86.6L76.1,87.1L72.6,87.1L72.6,88.9L73.1,88.9L73.1,89.9L74.1,89.9L74.1,90.9L75.1,90.9z" stroke="none"/><path d="M43.5,99.1L43.5,98.9L44.6,98.9L44.6,99.4L45.6,99.4L45.6,99.9L49.1,99.9L49.1,100.9L51.6,100.9L51.6,101.4L57.9,101.4L57.9,100.9L64.4,100.9L64.4,100.4L64.9,100.4L64.9,98.9L66,98.9L66,99.1L65.1,99.1L65.1,100.6L64.6,100.6L64.6,101.1L58.1,101.1L58.1,101.6L51.4,101.6L51.4,101.1L48.9,101.1L48.9,100.1L45.4,100.1L45.4,99.6L44.4,99.6L44.4,99.1z" stroke="none"/><path d="M99,4.4L99,4.6L86.4,4.6L86.4,4.1L85.9,4.1L85.9,3.6L82.1,3.6L82.1,7.6L81.6,7.6L81.6,8.1L81.1,8.1L81.1,14.1L80.6,14.1L80.6,14.6L80.1,14.6L80.1,15.1L79.6,15.1L79.6,18.1L78.1,18.1L78.1,20.1L77.6,20.1L77.6,20.6L77.1,20.6L77.1,21.9L78.9,21.9L78.9,19.9L79.9,19.9L79.9,19.4L80.4,19.4L80.4,18.4L80.9,18.4L80.9,18L81.1,18L81.1,18.6L80.6,18.6L80.6,19.6L80.1,19.6L80.1,20.1L79.1,20.1L79.1,22.1L76.9,22.1L76.9,20.4L77.4,20.4L77.4,19.9L77.9,19.9L77.9,17.9L79.4,17.9L79.4,14.9L79.9,14.9L79.9,14.4L80.4,14.4L80.4,13.9L80.9,13.9L80.9,7.9L81.4,7.9L81.4,7.4L81.9,7.4L81.9,3.4L86.1,3.4L86.1,3.9L86.6,3.9L86.6,4.4z" stroke="none"/><path d="M30,4.6L30,4.4L35.4,4.4L35.4,2.6L34.9,2.6L34.9,2.1L27.9,2.1L27.9,1.6L1.6,1.6L1.6,4.9L2.1,4.9L2.1,6.4L2.6,6.4L2.6,6.9L7.6,6.9L7.6,7.5L7.4,7.5L7.4,7.1L2.4,7.1L2.4,6.6L1.9,6.6L1.9,5.1L1.4,5.1L1.4,1.4L28.1,1.4L28.1,1.9L35.1,1.9L35.1,2.4L35.6,2.4L35.6,4.6z" stroke="none"/><path d="M21,97.4L21,97.6L10.9,97.6L10.9,97.1L10.4,97.1L10.4,90.4L10.9,90.4L10.9,89.9L11.9,89.9L11.9,88.4L12.9,88.4L12.9,86.9L13.4,86.9L13.4,85.9L15.9,85.9L15.9,84.4L16.9,84.4L16.9,83.9L17.4,83.9L17.4,82.9L17.9,82.9L17.9,81.4L18.4,81.4L18.4,80.9L18.9,80.9L18.9,80.4L19.9,80.4L19.9,79.9L20.4,79.9L20.4,78.9L21.4,78.9L21.4,78.4L22.4,78.4L22.4,77.4L23.9,77.4L23.9,76.4L24.9,76.4L24.9,75.9L25.4,75.9L25.4,75L25.6,75L25.6,76.1L25.1,76.1L25.1,76.6L24.1,76.6L24.1,77.6L22.6,77.6L22.6,78.6L21.6,78.6L21.6,79.1L20.6,79.1L20.6,80.1L20.1,80.1L20.1,80.6L19.1,80.6L19.1,81.1L18.6,81.1L18.6,81.6L18.1,81.6L18.1,83.1L17.6,83.1L17.6,84.1L17.1,84.1L17.1,84.6L16.1,84.6L16.1,86.1L13.6,86.1L13.6,87.1L13.1,87.1L13.1,88.6L12.1,88.6L12.1,90.1L11.1,90.1L11.1,90.6L10.6,90.6L10.6,96.9L11.1,96.9L11.1,97.4z" stroke="none"/><path d="M70.5,42.1L70.5,41.9L73.4,41.9L73.4,41.4L73.9,41.4L73.9,40.4L74.4,40.4L74.4,39.4L74.9,39.4L74.9,38.4L76.4,38.4L76.4,35.9L76.9,35.9L76.9,34.9L79.4,34.9L79.4,34.4L79.9,34.4L79.9,33.9L80.4,33.9L80.4,33.4L80.9,33.4L80.9,32.4L81.9,32.4L81.9,31.4L83.4,31.4L83.4,30.9L84.9,30.9L84.9,28.9L86.4,28.9L86.4,28.4L86.9,28.4L86.9,27.4L87.4,27.4L87.4,26.9L88.4,26.9L88.4,25.9L88.9,25.9L88.9,24.9L90.9,24.9L90.9,23.4L92.4,23.4L92.4,22.1L91.9,22.1L91.9,21.6L89.6,21.6L89.6,22.6L89.1,22.6L89.1,23.6L88.6,23.6L88.6,24.1L88.1,24.1L88.1,24.6L87.6,24.6L87.6,25.1L87.1,25.1L87.1,25.5L86.9,25.5L86.9,24.9L87.4,24.9L87.4,24.4L87.9,24.4L87.9,23.9L88.4,23.9L88.4,23.4L88.9,23.4L88.9,22.4L89.4,22.4L89.4,21.4L92.1,21.4L92.1,21.9L92.6,21.9L92.6,23.6L91.1,23.6L91.1,25.1L89.1,25.1L89.1,26.1L88.6,26.1L88.6,27.1L87.6,27.1L87.6,27.6L87.1,27.6L87.1,28.6L86.6,28.6L86.6,29.1L85.1,29.1L85.1,31.1L83.6,31.1L83.6,31.6L82.1,31.6L82.1,32.6L81.1,32.6L81.1,33.6L80.6,33.6L80.6,34.1L80.1,34.1L80.1,34.6L79.6,34.6L79.6,35.1L77.1,35.1L77.1,36.1L76.6,36.1L76.6,38.6L75.1,38.6L75.1,39.6L74.6,39.6L74.6,40.6L74.1,40.6L74.1,41.6L73.6,41.6L73.6,42.1z" stroke="none"/><path d="M3,72.1L3,71.9L5.9,71.9L5.9,70.4L6.9,70.4L6.9,68.9L7.9,68.9L7.9,67.9L8.4,67.9L8.4,67.4L9.4,67.4L9.4,66.4L9.9,66.4L9.9,65.9L10.9,65.9L10.9,65.4L11.9,65.4L11.9,63.9L12.4,63.9L12.4,60.9L13.4,60.9L13.4,60.4L14.4,60.4L14.4,59.9L15.4,59.9L15.4,59.4L16.4,59.4L16.4,58.9L17.4,58.9L17.4,55.9L17.9,55.9L17.9,55.4L19.5,55.4L19.5,55.6L18.1,55.6L18.1,56.1L17.6,56.1L17.6,59.1L16.6,59.1L16.6,59.6L15.6,59.6L15.6,60.1L14.6,60.1L14.6,60.6L13.6,60.6L13.6,61.1L12.6,61.1L12.6,64.1L12.1,64.1L12.1,65.6L11.1,65.6L11.1,66.1L10.1,66.1L10.1,66.6L9.6,66.6L9.6,67.6L8.6,67.6L8.6,68.1L8.1,68.1L8.1,69.1L7.1,69.1L7.1,70.6L6.1,70.6L6.1,72.1z" stroke="none"/><path d="M67.4,91.5L67.6,91.5L67.6,100.4L68.1,100.4L68.1,100.9L70.6,100.9L70.6,101.4L71.1,101.4L71.1,101.9L72.6,101.9L72.6,102.4L74.1,102.4L74.1,102.9L98.4,102.9L98.4,101.4L98.9,101.4L98.9,100.9L99.4,100.9L99.4,99.9L100.9,99.9L100.9,77.1L99.9,77.1L99.9,76.6L99.4,76.6L99.4,76.1L98.9,76.1L98.9,75.6L98.4,75.6L98.4,75.1L88.6,75.1L88.6,75.6L88.1,75.6L88.1,76.1L87.6,76.1L87.6,78.1L87,78.1L87,77.9L87.4,77.9L87.4,75.9L87.9,75.9L87.9,75.4L88.4,75.4L88.4,74.9L98.6,74.9L98.6,75.4L99.1,75.4L99.1,75.9L99.6,75.9L99.6,76.4L100.1,76.4L100.1,76.9L101.1,76.9L101.1,100.1L99.6,100.1L99.6,101.1L99.1,101.1L99.1,101.6L98.6,101.6L98.6,103.1L73.9,103.1L73.9,102.6L72.4,102.6L72.4,102.1L70.9,102.1L70.9,101.6L70.4,101.6L70.4,101.1L67.9,101.1L67.9,100.6L67.4,100.6z" stroke="none"/><path d="M88.4,15L88.6,15L88.6,21.6L88.1,21.6L88.1,22.1L79.6,22.1L79.6,22.6L72.9,22.6L72.9,20.1L72.4,20.1L72.4,19.1L71.4,19.1L71.4,18.6L70.4,18.6L70.4,17.6L69.9,17.6L69.9,16.1L69.4,16.1L69.4,15.6L68.4,15.6L68.4,15.1L67.9,15.1L67.9,12.1L65.9,12.1L65.9,10.6L64.5,10.6L64.5,10.4L66.1,10.4L66.1,11.9L68.1,11.9L68.1,14.9L68.6,14.9L68.6,15.4L69.6,15.4L69.6,15.9L70.1,15.9L70.1,17.4L70.6,17.4L70.6,18.4L71.6,18.4L71.6,18.9L72.6,18.9L72.6,19.9L73.1,19.9L73.1,22.4L79.4,22.4L79.4,21.9L87.9,21.9L87.9,21.4L88.4,21.4z" stroke="none"/><path d="M52.6,52.5L52.4,52.5L52.4,34.9L52.9,34.9L52.9,34.4L54.4,34.4L54.4,33.9L54.9,33.9L54.9,30.9L57.4,30.9L57.4,28.9L57.9,28.9L57.9,28.4L58.5,28.4L58.5,28.6L58.1,28.6L58.1,29.1L57.6,29.1L57.6,31.1L55.1,31.1L55.1,34.1L54.6,34.1L54.6,34.6L53.1,34.6L53.1,35.1L52.6,35.1z" stroke="none"/><path d="M58.5,102.1L58.5,101.9L70.1,101.9L70.1,102.9L72.6,102.9L72.6,103.4L99.4,103.4L99.4,102.9L99.9,102.9L99.9,102.4L100.4,102.4L100.4,101.9L100.9,101.9L100.9,100.4L101.4,100.4L101.4,75.6L100.9,75.6L100.9,74.6L76.1,74.6L76.1,75.1L74.6,75.1L74.6,75.6L74.1,75.6L74.1,76.1L72.6,76.1L72.6,80.9L73.1,80.9L73.1,81.4L73.6,81.4L73.6,81.9L74.1,81.9L74.1,82.4L75,82.4L75,82.6L73.9,82.6L73.9,82.1L73.4,82.1L73.4,81.6L72.9,81.6L72.9,81.1L72.4,81.1L72.4,75.9L73.9,75.9L73.9,75.4L74.4,75.4L74.4,74.9L75.9,74.9L75.9,74.4L101.1,74.4L101.1,75.4L101.6,75.4L101.6,100.6L101.1,100.6L101.1,102.1L100.6,102.1L100.6,102.6L100.1,102.6L100.1,103.1L99.6,103.1L99.6,103.6L72.4,103.6L72.4,103.1L69.9,103.1L69.9,102.1z" stroke="none"/><path d="M34.5,101.9L34.5,102.1L12.9,102.1L12.9,99.6L12.4,99.6L12.4,98.6L10.9,98.6L10.9,98.1L10.4,98.1L10.4,97.6L9.4,97.6L9.4,95.6L8.9,95.6L8.9,94.5L9.1,94.5L9.1,95.4L9.6,95.4L9.6,97.4L10.6,97.4L10.6,97.9L11.1,97.9L11.1,98.4L12.6,98.4L12.6,99.4L13.1,99.4L13.1,101.9z" stroke="none"/><path d="M46.5,3.1L46.5,2.9L70.9,2.9L70.9,1.9L72.6,1.9L72.6,2.4L73.1,2.4L73.1,5.1L72.6,5.1L72.6,10.1L72.1,10.1L72.1,10.5L71.9,10.5L71.9,9.9L72.4,9.9L72.4,4.9L72.9,4.9L72.9,2.6L72.4,2.6L72.4,2.1L71.1,2.1L71.1,3.1z" stroke="none"/><path d="M42.1,72L41.9,72L41.9,61.6L41.4,61.6L41.4,60.1L40.9,60.1L40.9,59.6L39.9,59.6L39.9,59.1L39.4,59.1L39.4,58.1L38.9,58.1L38.9,57.6L38.4,57.6L38.4,56.1L37.9,56.1L37.9,49.1L36.9,49.1L36.9,48.1L36.4,48.1L36.4,47.6L35.4,47.6L35.4,46.6L34.9,46.6L34.9,44.4L35.4,44.4L35.4,43.9L46.1,43.9L46.1,44.4L47.1,44.4L47.1,44.9L48,44.9L48,45.1L46.9,45.1L46.9,44.6L45.9,44.6L45.9,44.1L35.6,44.1L35.6,44.6L35.1,44.6L35.1,46.4L35.6,46.4L35.6,47.4L36.6,47.4L36.6,47.9L37.1,47.9L37.1,48.9L38.1,48.9L38.1,55.9L38.6,55.9L38.6,57.4L39.1,57.4L39.1,57.9L39.6,57.9L39.6,58.9L40.1,58.9L40.1,59.4L41.1,59.4L41.1,59.9L41.6,59.9L41.6,61.4L42.1,61.4z" stroke="none"/><path d="M53.9,40.5L54.1,40.5L54.1,53.6L51.9,53.6L51.9,53.1L51.4,53.1L51.4,49.1L50.9,49.1L50.9,47.6L50.4,47.6L50.4,47.1L49.9,47.1L49.9,45.6L49.4,45.6L49.4,44.6L48.4,44.6L48.4,44.1L46.4,44.1L46.4,43.6L35.1,43.6L35.1,44.1L34.6,44.1L34.6,62.4L35.6,62.4L35.6,62.9L36,62.9L36,63.1L35.4,63.1L35.4,62.6L34.4,62.6L34.4,43.9L34.9,43.9L34.9,43.4L46.6,43.4L46.6,43.9L48.6,43.9L48.6,44.4L49.6,44.4L49.6,45.4L50.1,45.4L50.1,46.9L50.6,46.9L50.6,47.4L51.1,47.4L51.1,48.9L51.6,48.9L51.6,52.9L52.1,52.9L52.1,53.4L53.9,53.4z" stroke="none"/><path d="M35.9,97.5L36.1,97.5L36.1,102.6L35.1,102.6L35.1,103.1L12.9,103.1L12.9,102.6L12.4,102.6L12.4,102.1L10.4,102.1L10.4,101.6L9.4,101.6L9.4,101.1L8.9,101.1L8.9,100.6L8.4,100.6L8.4,100.1L7.4,100.1L7.4,98.6L5.9,98.6L5.9,97.1L4.9,97.1L4.9,94.9L5.4,94.9L5.4,93.9L5.9,93.9L5.9,93.4L7.4,93.4L7.4,92.9L7.9,92.9L7.9,87.4L8.4,87.4L8.4,79.9L8.9,79.9L8.9,79.4L9.4,79.4L9.4,78.9L10.4,78.9L10.4,78.4L12.4,78.4L12.4,77.9L13.4,77.9L13.4,77.4L14.4,77.4L14.4,76.9L14.9,76.9L14.9,76.5L15.1,76.5L15.1,77.1L14.6,77.1L14.6,77.6L13.6,77.6L13.6,78.1L12.6,78.1L12.6,78.6L10.6,78.6L10.6,79.1L9.6,79.1L9.6,79.6L9.1,79.6L9.1,80.1L8.6,80.1L8.6,87.6L8.1,87.6L8.1,93.1L7.6,93.1L7.6,93.6L6.1,93.6L6.1,94.1L5.6,94.1L5.6,95.1L5.1,95.1L5.1,96.9L6.1,96.9L6.1,98.4L7.6,98.4L7.6,99.9L8.6,99.9L8.6,100.4L9.1,100.4L9.1,100.9L9.6,100.9L9.6,101.4L10.6,101.4L10.6,101.9L12.6,101.9L12.6,102.4L13.1,102.4L13.1,102.9L34.9,102.9L34.9,102.4L35.9,102.4z" stroke="none"/><path d="M72.1,82.5L71.9,82.5L71.9,75.4L72.4,75.4L72.4,74.9L72.9,74.9L72.9,74.4L74.9,74.4L74.9,73.9L101.6,73.9L101.6,74.9L102.1,74.9L102.1,103.1L100.6,103.1L100.6,104.1L51.4,104.1L51.4,103.6L48.9,103.6L48.9,103.1L48.4,103.1L48.4,102.1L48,102.1L48,101.9L48.6,101.9L48.6,102.9L49.1,102.9L49.1,103.4L51.6,103.4L51.6,103.9L100.4,103.9L100.4,102.9L101.9,102.9L101.9,75.1L101.4,75.1L101.4,74.1L75.1,74.1L75.1,74.6L73.1,74.6L73.1,75.1L72.6,75.1L72.6,75.6L72.1,75.6z" stroke="none"/><path d="M100.6,4.5L100.4,4.5L100.4,4.1L99.4,4.1L99.4,3.6L86.4,3.6L86.4,3.1L81.6,3.1L81.6,4.6L81.1,4.6L81.1,6.6L80.6,6.6L80.6,11.6L80.1,11.6L80.1,12.1L79.6,12.1L79.6,12.6L79.1,12.6L79.1,13.1L77.6,13.1L77.6,13.6L76.1,13.6L76.1,14.1L75.6,14.1L75.6,17.6L74.1,17.6L74.1,18.1L72,18.1L72,17.9L73.9,17.9L73.9,17.4L75.4,17.4L75.4,13.9L75.9,13.9L75.9,13.4L77.4,13.4L77.4,12.9L78.9,12.9L78.9,12.4L79.4,12.4L79.4,11.9L79.9,11.9L79.9,11.4L80.4,11.4L80.4,6.4L80.9,6.4L80.9,4.4L81.4,4.4L81.4,2.9L86.6,2.9L86.6,3.4L99.6,3.4L99.6,3.9L100.6,3.9z" stroke="none"/><path d="M3.1,84L2.9,84L2.9,83.4L3.4,83.4L3.4,82.4L3.9,82.4L3.9,74.6L2.9,74.6L2.9,73.1L1.9,73.1L1.9,66.4L2.4,66.4L2.4,63.9L2.9,63.9L2.9,63.4L3.4,63.4L3.4,61.9L5.4,61.9L5.4,59.9L6.4,59.9L6.4,58.9L7.9,58.9L7.9,57.9L8.9,57.9L8.9,56.9L9.4,56.9L9.4,56.4L10.4,56.4L10.4,55.4L11.4,55.4L11.4,54.9L13.4,54.9L13.4,54L13.6,54L13.6,55.1L11.6,55.1L11.6,55.6L10.6,55.6L10.6,56.6L9.6,56.6L9.6,57.1L9.1,57.1L9.1,58.1L8.1,58.1L8.1,59.1L6.6,59.1L6.6,60.1L5.6,60.1L5.6,62.1L3.6,62.1L3.6,63.6L3.1,63.6L3.1,64.1L2.6,64.1L2.6,66.6L2.1,66.6L2.1,72.9L3.1,72.9L3.1,74.4L4.1,74.4L4.1,82.6L3.6,82.6L3.6,83.6L3.1,83.6z" stroke="none"/><path d="M76.5,25.6L76.5,25.4L84.9,25.4L84.9,24.4L85.9,24.4L85.9,23.9L86.9,23.9L86.9,23.4L87.9,23.4L87.9,22.9L88.4,22.9L88.4,21.9L88.9,21.9L88.9,20.9L93.1,20.9L93.1,27.1L90.1,27.1L90.1,29.6L89.6,29.6L89.6,30.1L88.6,30.1L88.6,31.1L88.1,31.1L88.1,31.6L84.1,31.6L84.1,32.1L83.6,32.1L83.6,32.6L82.6,32.6L82.6,34.6L81.1,34.6L81.1,36.1L80.6,36.1L80.6,38.1L79.6,38.1L79.6,38.6L79.1,38.6L79.1,40.6L78.6,40.6L78.6,41.1L76.1,41.1L76.1,41.6L74.6,41.6L74.6,42.6L73.6,42.6L73.6,43.1L73.1,43.1L73.1,43.6L71.1,43.6L71.1,44.1L70.6,44.1L70.6,44.6L60.1,44.6L60.1,45.1L59.1,45.1L59.1,46.1L57.1,46.1L57.1,46.6L56.1,46.6L56.1,48.6L55.6,48.6L55.6,49.5L55.4,49.5L55.4,48.4L55.9,48.4L55.9,46.4L56.9,46.4L56.9,45.9L58.9,45.9L58.9,44.9L59.9,44.9L59.9,44.4L70.4,44.4L70.4,43.9L70.9,43.9L70.9,43.4L72.9,43.4L72.9,42.9L73.4,42.9L73.4,42.4L74.4,42.4L74.4,41.4L75.9,41.4L75.9,40.9L78.4,40.9L78.4,40.4L78.9,40.4L78.9,38.4L79.4,38.4L79.4,37.9L80.4,37.9L80.4,35.9L80.9,35.9L80.9,34.4L82.4,34.4L82.4,32.4L83.4,32.4L83.4,31.9L83.9,31.9L83.9,31.4L87.9,31.4L87.9,30.9L88.4,30.9L88.4,29.9L89.4,29.9L89.4,29.4L89.9,29.4L89.9,26.9L92.9,26.9L92.9,21.1L89.1,21.1L89.1,22.1L88.6,22.1L88.6,23.1L88.1,23.1L88.1,23.6L87.1,23.6L87.1,24.1L86.1,24.1L86.1,24.6L85.1,24.6L85.1,25.6z" stroke="none"/><path d="M44.9,100.5L45.1,100.5L45.1,101.9L46.6,101.9L46.6,102.4L47.1,102.4L47.1,103.4L48.6,103.4L48.6,103.9L50.6,103.9L50.6,104.4L100.9,104.4L100.9,103.9L102.4,103.9L102.4,74.6L101.9,74.6L101.9,73.6L69.6,73.6L69.6,74.1L69.1,74.1L69.1,75.1L68.1,75.1L68.1,76.1L67.6,76.1L67.6,76.5L67.4,76.5L67.4,75.9L67.9,75.9L67.9,74.9L68.9,74.9L68.9,73.9L69.4,73.9L69.4,73.4L102.1,73.4L102.1,74.4L102.6,74.4L102.6,104.1L101.1,104.1L101.1,104.6L50.4,104.6L50.4,104.1L48.4,104.1L48.4,103.6L46.9,103.6L46.9,102.6L46.4,102.6L46.4,102.1L44.9,102.1z" stroke="none"/><path d="M25.4,57L25.6,57L25.6,60.6L24.6,60.6L24.6,61.6L24.1,61.6L24.1,62.1L23.1,62.1L23.1,63.1L22.6,63.1L22.6,63.6L22.1,63.6L22.1,64.1L21.6,64.1L21.6,64.9L22.1,64.9L22.1,65.4L31.6,65.4L31.6,65.9L32.1,65.9L32.1,66.4L35.6,66.4L35.6,70.9L37.6,70.9L37.6,71.4L39.1,71.4L39.1,71.9L39.6,71.9L39.6,72.4L41.6,72.4L41.6,72.9L44.6,72.9L44.6,73.9L46.1,73.9L46.1,80.9L48,80.9L48,81.1L45.9,81.1L45.9,74.1L44.4,74.1L44.4,73.1L41.4,73.1L41.4,72.6L39.4,72.6L39.4,72.1L38.9,72.1L38.9,71.6L37.4,71.6L37.4,71.1L35.4,71.1L35.4,66.6L31.9,66.6L31.9,66.1L31.4,66.1L31.4,65.6L21.9,65.6L21.9,65.1L21.4,65.1L21.4,63.9L21.9,63.9L21.9,63.4L22.4,63.4L22.4,62.9L22.9,62.9L22.9,61.9L23.9,61.9L23.9,61.4L24.4,61.4L24.4,60.4L25.4,60.4z" stroke="none"/><path d="M40.5,37.4L40.5,37.6L40.1,37.6L40.1,39.1L38.6,39.1L38.6,40.6L37.6,40.6L37.6,41.6L36.1,41.6L36.1,42.6L34.6,42.6L34.6,43.6L34.1,43.6L34.1,51.6L33.6,51.6L33.6,52.1L32.1,52.1L32.1,52.6L25.9,52.6L25.9,49.1L24.4,49.1L24.4,48.1L21.4,48.1L21.4,46.1L19.9,46.1L19.9,45.6L19.4,45.6L19.4,45.1L18.9,45.1L18.9,44.1L18.4,44.1L18.4,43.6L17.4,43.6L17.4,42.1L16.4,42.1L16.4,41.6L15.9,41.6L15.9,41.1L15.4,41.1L15.4,39.6L14.9,39.6L14.9,39.1L14.4,39.1L14.4,38.1L12.9,38.1L12.9,36.6L12.4,36.6L12.4,35.6L11.9,35.6L11.9,31.1L11.4,31.1L11.4,29.6L10.9,29.6L10.9,29.1L10.1,29.1L10.1,29.6L9.6,29.6L9.6,33.6L8.6,33.6L8.6,34.6L7.6,34.6L7.6,35.1L5.1,35.1L5.1,35.6L4.6,35.6L4.6,36.1L3.6,36.1L3.6,36.6L3.1,36.6L3.1,48.9L3.6,48.9L3.6,49.4L4.1,49.4L4.1,49.9L5.1,49.9L5.1,50.4L5.6,50.4L5.6,51.9L7.1,51.9L7.1,52.4L7.6,52.4L7.6,52.9L8.6,52.9L8.6,53.4L11.6,53.4L11.6,53.9L12,53.9L12,54.1L11.4,54.1L11.4,53.6L8.4,53.6L8.4,53.1L7.4,53.1L7.4,52.6L6.9,52.6L6.9,52.1L5.4,52.1L5.4,50.6L4.9,50.6L4.9,50.1L3.9,50.1L3.9,49.6L3.4,49.6L3.4,49.1L2.9,49.1L2.9,36.4L3.4,36.4L3.4,35.9L4.4,35.9L4.4,35.4L4.9,35.4L4.9,34.9L7.4,34.9L7.4,34.4L8.4,34.4L8.4,33.4L9.4,33.4L9.4,29.4L9.9,29.4L9.9,28.9L11.1,28.9L11.1,29.4L11.6,29.4L11.6,30.9L12.1,30.9L12.1,35.4L12.6,35.4L12.6,36.4L13.1,36.4L13.1,37.9L14.6,37.9L14.6,38.9L15.1,38.9L15.1,39.4L15.6,39.4L15.6,40.9L16.1,40.9L16.1,41.4L16.6,41.4L16.6,41.9L17.6,41.9L17.6,43.4L18.6,43.4L18.6,43.9L19.1,43.9L19.1,44.9L19.6,44.9L19.6,45.4L20.1,45.4L20.1,45.9L21.6,45.9L21.6,47.9L24.6,47.9L24.6,48.9L26.1,48.9L26.1,52.4L31.9,52.4L31.9,51.9L33.4,51.9L33.4,51.4L33.9,51.4L33.9,43.4L34.4,43.4L34.4,42.4L35.9,42.4L35.9,41.4L37.4,41.4L37.4,40.4L38.4,40.4L38.4,38.9L39.9,38.9L39.9,37.4z" stroke="none"/><path d="M3.1,21L2.9,21L2.9,9.6L2.4,9.6L2.4,8.1L1.9,8.1L1.9,7.6L1.4,7.6L1.4,5.6L0.9,5.6L0.9,0.9L35.1,0.9L35.1,1.4L36.1,1.4L36.1,4.9L36.6,4.9L36.6,5.9L37.6,5.9L37.6,6.4L38.1,6.4L38.1,6.9L38.6,6.9L38.6,7.4L39.1,7.4L39.1,7.9L39.6,7.9L39.6,8.4L40.1,8.4L40.1,25.4L41.1,25.4L41.1,26.4L41.6,26.4L41.6,27.4L42.1,27.4L42.1,29.4L43.1,29.4L43.1,29.9L43.6,29.9L43.6,30.4L44.1,30.4L44.1,30.9L44.6,30.9L44.6,32.1L44.1,32.1L44.1,32.6L24.4,32.6L24.4,32.1L23.1,32.1L23.1,39.4L23.6,39.4L23.6,39.9L24.1,39.9L24.1,40.4L26.6,40.4L26.6,41.4L28.6,41.4L28.6,42L28.4,42L28.4,41.6L26.4,41.6L26.4,40.6L23.9,40.6L23.9,40.1L23.4,40.1L23.4,39.6L22.9,39.6L22.9,31.9L24.6,31.9L24.6,32.4L43.9,32.4L43.9,31.9L44.4,31.9L44.4,31.1L43.9,31.1L43.9,30.6L43.4,30.6L43.4,30.1L42.9,30.1L42.9,29.6L41.9,29.6L41.9,27.6L41.4,27.6L41.4,26.6L40.9,26.6L40.9,25.6L39.9,25.6L39.9,8.6L39.4,8.6L39.4,8.1L38.9,8.1L38.9,7.6L38.4,7.6L38.4,7.1L37.9,7.1L37.9,6.6L37.4,6.6L37.4,6.1L36.4,6.1L36.4,5.1L35.9,5.1L35.9,1.6L34.9,1.6L34.9,1.1L1.1,1.1L1.1,5.4L1.6,5.4L1.6,7.4L2.1,7.4L2.1,7.9L2.6,7.9L2.6,9.4L3.1,9.4z" stroke="none"/><path d="M34.6,100.5L34.4,100.5L34.4,96.4L36.6,96.4L36.6,96.9L37.1,96.9L37.1,102.1L36.6,102.1L36.6,103.1L35.6,103.1L35.6,103.6L3.9,103.6L3.9,102.6L2.4,102.6L2.4,102.1L1.4,102.1L1.4,8.1L0.9,8.1L0.9,6.1L0.4,6.1L0.4,0.4L92.6,0.4L92.6,0.9L93.1,0.9L93.1,1.4L96.1,1.4L96.1,1.9L96.6,1.9L96.6,2.4L99.1,2.4L99.1,2.9L100.1,2.9L100.1,3.4L101.6,3.4L101.6,11.4L102.6,11.4L102.6,12.9L103.1,12.9L103.1,34.4L103.6,34.4L103.6,70.6L101.6,70.6L101.6,71.6L101.1,71.6L101.1,72.1L100.1,72.1L100.1,72.6L81.6,72.6L81.6,73.1L64.6,73.1L64.6,74.1L64.1,74.1L64.1,75.1L63,75.1L63,74.9L63.9,74.9L63.9,73.9L64.4,73.9L64.4,72.9L81.4,72.9L81.4,72.4L99.9,72.4L99.9,71.9L100.9,71.9L100.9,71.4L101.4,71.4L101.4,70.4L103.4,70.4L103.4,34.6L102.9,34.6L102.9,13.1L102.4,13.1L102.4,11.6L101.4,11.6L101.4,3.6L99.9,3.6L99.9,3.1L98.9,3.1L98.9,2.6L96.4,2.6L96.4,2.1L95.9,2.1L95.9,1.6L92.9,1.6L92.9,1.1L92.4,1.1L92.4,0.6L0.6,0.6L0.6,5.9L1.1,5.9L1.1,7.9L1.6,7.9L1.6,101.9L2.6,101.9L2.6,102.4L4.1,102.4L4.1,103.4L35.4,103.4L35.4,102.9L36.4,102.9L36.4,101.9L36.9,101.9L36.9,97.1L36.4,97.1L36.4,96.6L34.6,96.6z" stroke="none"/><path d="M73.6,6L73.4,6L73.4,2.1L72.9,2.1L72.9,1.6L46.1,1.6L46.1,2.1L45.6,2.1L45.6,5.6L44.1,5.6L44.1,6.1L43.1,6.1L43.1,21.1L42.1,21.1L42.1,22.1L41.6,22.1L41.6,23.1L41.1,23.1L41.1,24.9L42.1,24.9L42.1,26.4L42.6,26.4L42.6,26.9L43.1,26.9L43.1,28.4L44.1,28.4L44.1,29.9L44.6,29.9L44.6,30.4L45.1,30.4L45.1,33.6L44.1,33.6L44.1,34.1L43.6,34.1L43.6,34.5L43.4,34.5L43.4,33.9L43.9,33.9L43.9,33.4L44.9,33.4L44.9,30.6L44.4,30.6L44.4,30.1L43.9,30.1L43.9,28.6L42.9,28.6L42.9,27.1L42.4,27.1L42.4,26.6L41.9,26.6L41.9,25.1L40.9,25.1L40.9,22.9L41.4,22.9L41.4,21.9L41.9,21.9L41.9,20.9L42.9,20.9L42.9,5.9L43.9,5.9L43.9,5.4L45.4,5.4L45.4,1.9L45.9,1.9L45.9,1.4L73.1,1.4L73.1,1.9L73.6,1.9z" stroke="none"/></svg>