<svg version="1.1" width="30" height="15" xmlns="http://www.w3.org/2000/svg"><path d="M2.8,6.082842712474619L2.8,4.417157287525381L4.358578643762691,2.8585786437626903L4.641421356237309,3.1414213562373097L3.2,4.582842712474619L3.2,5.8L12,5.8L12,6.2L3.482842712474619,6.2L4.582842712474619,7.3L6,7.3L6,7.7L4.417157287525381,7.7z" stroke="none"/><path d="M16.3,7.3L16.3,5.917157287525381L17.91715728752538,4.3L19.58284271247462,4.3L22.58284271247462,7.3L24.08284271247462,7.3L25.7,8.91715728752538L25.7,12.08284271247462L24.08284271247462,13.7L20.91715728752538,13.7L19.35857864376269,12.14142135623731L19.64142135623731,11.85857864376269L21.08284271247462,13.3L23.91715728752538,13.3L25.3,11.91715728752538L25.3,9.08284271247462L23.91715728752538,7.7L22.41715728752538,7.7L19.41715728752538,4.7L18.08284271247462,4.7L16.7,6.082842712474619L16.7,7.3L18.08284271247462,7.3L19.64142135623731,8.85857864376269L19.35857864376269,9.14142135623731L17.91715728752538,7.7L16.7,7.7L16.7,10.5L16.3,10.5L16.3,7.7L15.08284271247462,7.7L13.7,9.08284271247462L13.7,10.41715728752538L15.08284271247462,11.8L17.91715728752538,11.8L19.41715728752538,10.3L21,10.3L21,10.7L19.58284271247462,10.7L18.08284271247462,12.2L14.91715728752538,12.2L13.3,10.58284271247462L13.3,8.91715728752538L14.91715728752538,7.3z" stroke="none"/><path d="M27.2,12L26.8,12L26.8,10.5L27.2,10.5z" stroke="none"/><path d="M3,9.2L3,8.8L4.5,8.8L4.5,9.2z" stroke="none"/><path d="M7.5,7.7L7.5,7.3L9,7.3L9,7.7z" stroke="none"/><path d="M9,3.2L9,2.8L10.5,2.8L10.5,3.2z" stroke="none"/><path d="M9,4.7L9,4.3L10.5,4.3L10.5,4.7z" stroke="none"/><path d="M24.14142135623731,10.35857864376269L23.85857864376269,10.64142135623731L22.41715728752538,9.2L21,9.2L21,8.8L22.58284271247462,8.8z" stroke="none"/><path d="M25.3,3L25.7,3L25.7,5.917157287525381L27.14142135623731,7.358578643762691L26.85857864376269,7.641421356237309L25.3,6.082842712474619z" stroke="none"/><path d="M24.14142135623731,5.858578643762691L23.85857864376269,6.141421356237309L20.91715728752538,3.2L13.5,3.2L13.5,2.8L21.08284271247462,2.8z" stroke="none"/></svg>