<svg version="1.1" width="30" height="15" xmlns="http://www.w3.org/2000/svg"><path d="M20.91715728752538,5.8L27,5.8L27,6.2L21.2,6.2L21.2,7.417157287525381L22.64142135623731,8.85857864376269L22.35857864376269,9.14142135623731L20.8,7.582842712474619L20.8,6.4828427124746195L19.58284271247462,7.7L18,7.7L18,7.3L19.41715728752538,7.3z" stroke="none"/><path d="M12,5.717157287525381L13.41715728752538,4.3L15,4.3L15,4.7L13.58284271247462,4.7L12.48284271247462,5.8L15.08284271247462,5.8L16.64142135623731,7.358578643762691L16.35857864376269,7.641421356237309L14.91715728752538,6.2L12.08284271247462,6.2L10.58284271247462,7.7L9,7.7L9,7.3L10.41715728752538,7.3L11.717157287525382,6L10.41715728752538,4.7L9,4.7L9,4.3L10.58284271247462,4.3z" stroke="none"/><path d="M22.5,2.8L22.5,3.2L21,3.2L21,2.8z" stroke="none"/><path d="M7.641421356237309,12.14142135623731L7.358578643762691,11.85857864376269L8.85857864376269,10.35857864376269L9.14142135623731,10.64142135623731z" stroke="none"/><path d="M12.14142135623731,12.14142135623731L11.85857864376269,11.85857864376269L13.35857864376269,10.35857864376269L13.64142135623731,10.64142135623731z" stroke="none"/><path d="M3,6.2L3,5.8L6,5.8L6,6.2z" stroke="none"/><path d="M16.7,4.5L16.3,4.5L16.3,3.082842712474619L14.91715728752538,1.7L9.08284271247462,1.7L7.7,3.082842712474619L7.7,7.582842712474619L6.082842712474619,9.2L2.917157287525381,9.2L1.3,7.582842712474619L1.3,4.417157287525381L2.917157287525381,2.8L13.5,2.8L13.5,3.2L3.082842712474619,3.2L1.7,4.582842712474619L1.7,7.417157287525381L3.082842712474619,8.8L5.917157287525381,8.8L7.3,7.417157287525381L7.3,2.917157287525381L8.91715728752538,1.3L15.08284271247462,1.3L16.7,2.917157287525381z" stroke="none"/><path d="M19.5,12.2L19.5,11.8L22.41715728752538,11.8L23.8,10.41715728752538L23.8,7.5L24.2,7.5L24.2,10.58284271247462L22.58284271247462,12.2z" stroke="none"/><path d="M16.3,10.5L16.7,10.5L16.7,11.91715728752538L18.08284271247462,13.3L23.91715728752538,13.3L25.3,11.91715728752538L25.3,10.5L25.7,10.5L25.7,12.08284271247462L24.08284271247462,13.7L17.91715728752538,13.7L16.3,12.08284271247462z" stroke="none"/><path d="M12,9.2L12,8.8L18.08284271247462,8.8L19.58284271247462,10.3L21,10.3L21,10.7L19.41715728752538,10.7L17.91715728752538,9.2z" stroke="none"/></svg>