<svg version="1.1" width="30" height="15" xmlns="http://www.w3.org/2000/svg"><path d="M24,7.3L24,7.7L21.2,7.7L21.2,8.91715728752538L22.64142135623731,10.35857864376269L22.35857864376269,10.64142135623731L20.8,9.08284271247462L20.8,7.7L19.58284271247462,7.7L18.2,9.08284271247462L18.2,10.41715728752538L19.58284271247462,11.8L24,11.8L24,12.2L19.41715728752538,12.2L17.8,10.58284271247462L17.8,8.91715728752538L19.41715728752538,7.3z" stroke="none"/><path d="M19.3,4.0171572875253805L19.3,2.917157287525381L20.91715728752538,1.3L25.58284271247462,1.3L27.2,2.917157287525381L27.2,12.08284271247462L25.58284271247462,13.7L17.91715728752538,13.7L14.8,10.58284271247462L14.8,9.08284271247462L13.3,7.582842712474619L13.3,6L13.7,6L13.7,7.417157287525381L15.2,8.91715728752538L15.2,10.41715728752538L18.08284271247462,13.3L25.41715728752538,13.3L26.8,11.91715728752538L26.8,3.082842712474619L25.41715728752538,1.7L21.08284271247462,1.7L19.7,3.082842712474619L19.7,4.3L21.08284271247462,4.3L22.58284271247462,5.8L24,5.8L24,6.2L22.41715728752538,6.2L20.91715728752538,4.7L19.58284271247462,4.7L16.64142135623731,7.641421356237309L16.35857864376269,7.358578643762691L19.21715728752538,4.5L17.91715728752538,3.2L13.5,3.2L13.5,2.8L18.08284271247462,2.8z" stroke="none"/><path d="M4.3,9L4.7,9L4.7,10.5L4.3,10.5z" stroke="none"/><path d="M16.5,4.3L16.5,4.7L13.5,4.7L13.5,4.3z" stroke="none"/><path d="M7.5,12.2L7.5,11.8L10.5,11.8L10.5,12.2z" stroke="none"/><path d="M6,3.2L6,2.8L9,2.8L9,3.2z" stroke="none"/><path d="M6,7.7L6,7.3L7.582842712474619,7.3L9.2,8.91715728752538L9.2,10.5L8.8,10.5L8.8,9.08284271247462L7.417157287525381,7.7z" stroke="none"/><path d="M25.3,4.5L25.7,4.5L25.7,9L25.3,9z" stroke="none"/><path d="M5.8,9L6.2,9L6.2,12.08284271247462L4.582842712474619,13.7L2.917157287525381,13.7L1.3,12.08284271247462L1.3,8.91715728752538L4.417157287525381,5.8L9.08284271247462,5.8L10.7,7.417157287525381L10.7,10.5L10.3,10.5L10.3,7.582842712474619L8.91715728752538,6.2L4.582842712474619,6.2L1.7,9.08284271247462L1.7,11.91715728752538L3.082842712474619,13.3L4.417157287525381,13.3L5.8,11.91715728752538z" stroke="none"/><path d="M2.8585786437626903,3.1414213562373097L3.1414213562373097,2.8585786437626903L4.582842712474619,4.3L10.58284271247462,4.3L12.14142135623731,5.858578643762691L11.85857864376269,6.141421356237309L10.41715728752538,4.7L4.417157287525381,4.7z" stroke="none"/></svg>