<svg version="1.1" width="30" height="15" xmlns="http://www.w3.org/2000/svg"><path d="M22.3,10.41715728752538L22.3,8.91715728752538L23.91715728752538,7.3L27.08284271247462,7.3L28.7,8.91715728752538L28.7,10.58284271247462L27.08284271247462,12.2L25.5,12.2L25.5,11.8L26.91715728752538,11.8L28.3,10.41715728752538L28.3,9.08284271247462L26.91715728752538,7.7L24.08284271247462,7.7L22.7,9.08284271247462L22.7,10.3L25.5,10.3L25.5,10.7L22.58284271247462,10.7L21.08284271247462,12.2L16.5,12.2L16.5,11.8L20.91715728752538,11.8z" stroke="none"/><path d="M20.8,4.3L20.8,2.917157287525381L22.41715728752538,1.3L27.08284271247462,1.3L28.7,2.917157287525381L28.7,4.582842712474619L27.08284271247462,6.2L25.5,6.2L25.5,5.8L26.91715728752538,5.8L28.3,4.417157287525381L28.3,3.082842712474619L26.91715728752538,1.7L22.58284271247462,1.7L21.2,3.082842712474619L21.2,4.3L25.5,4.3L25.5,4.7L21.2,4.7L21.2,6.082842712474619L19.64142135623731,7.641421356237309L19.35857864376269,7.358578643762691L20.8,5.917157287525381L20.8,4.7L17.91715728752538,4.7L16.41715728752538,3.2L15,3.2L15,2.8L16.58284271247462,2.8L18.08284271247462,4.3z" stroke="none"/><path d="M5.858578643762691,9.14142135623731L6.141421356237309,8.85857864376269L7.582842712474619,10.3L9,10.3L9,10.7L7.417157287525381,10.7z" stroke="none"/><path d="M13.3,3L13.7,3L13.7,4.417157287525381L15.2,5.917157287525381L15.2,7.5L14.8,7.5L14.8,6.082842712474619L13.3,4.582842712474619z" stroke="none"/><path d="M7.5,6.2L7.5,5.8L10.41715728752538,5.8L11.8,4.417157287525381L11.8,3L12.2,3L12.2,4.582842712474619L10.58284271247462,6.2z" stroke="none"/><path d="M9,2.8L9,3.2L3,3.2L3,2.8z" stroke="none"/><path d="M4.7,9L4.3,9L4.3,5.917157287525381L5.917157287525381,4.3L9,4.3L9,4.7L6.082842712474619,4.7L4.7,6.082842712474619z" stroke="none"/><path d="M6,7.7L6,7.3L13.5,7.3L13.5,7.7z" stroke="none"/><path d="M7.5,12.2L7.5,11.8L10.41715728752538,11.8L11.91715728752538,10.3L16.5,10.3L16.5,10.7L12.08284271247462,10.7L10.58284271247462,12.2z" stroke="none"/><path d="M9,9.2L9,8.8L18.08284271247462,8.8L19.64142135623731,10.35857864376269L19.35857864376269,10.64142135623731L17.91715728752538,9.2z" stroke="none"/></svg>