<svg version="1.1" width="30" height="15" xmlns="http://www.w3.org/2000/svg"><path d="M8.8,8.91715728752538L10.41715728752538,7.3L12,7.3L12,7.7L10.58284271247462,7.7L9.48284271247462,8.8L10.58284271247462,8.8L12.08284271247462,10.3L13.5,10.3L13.5,10.7L11.91715728752538,10.7L10.41715728752538,9.2L9.2,9.2L9.2,10.41715728752538L10.64142135623731,11.85857864376269L10.35857864376269,12.14142135623731L8.8,10.58284271247462z" stroke="none"/><path d="M9.08284271247462,5.8L10.5,5.8L10.5,6.2L8.91715728752538,6.2L7.7,4.9828427124746195L7.7,6.082842712474619L6.141421356237309,7.641421356237309L5.858578643762691,7.358578643762691L7.3,5.917157287525381L7.3,4.7L6.082842712474619,4.7L4.582842712474619,6.2L3,6.2L3,5.8L4.417157287525381,5.8L5.917157287525381,4.3L7.0171572875253805,4.3L5.917157287525381,3.2L4.5,3.2L4.5,2.8L6.082842712474619,2.8z" stroke="none"/><path d="M6.2,12L5.8,12L5.8,10.5L6.2,10.5z" stroke="none"/><path d="M16.7,6L16.3,6L16.3,4.417157287525381L17.91715728752538,2.8L19.58284271247462,2.8L21.2,4.417157287525381L21.2,6.082842712474619L19.58284271247462,7.7L18,7.7L18,7.3L19.41715728752538,7.3L20.8,5.917157287525381L20.8,4.582842712474619L19.41715728752538,3.2L18.08284271247462,3.2L16.7,4.582842712474619z" stroke="none"/><path d="M26.8,9L27.2,9L27.2,10.58284271247462L25.64142135623731,12.14142135623731L25.35857864376269,11.85857864376269L26.8,10.41715728752538z" stroke="none"/><path d="M24,6.2L24,5.8L25.41715728752538,5.8L26.8,4.417157287525381L26.8,3.082842712474619L25.41715728752538,1.7L24.08284271247462,1.7L22.64142135623731,3.1414213562373097L22.35857864376269,2.8585786437626903L23.91715728752538,1.3L25.58284271247462,1.3L27.2,2.917157287525381L27.2,4.582842712474619L25.58284271247462,6.2z" stroke="none"/><path d="M16.7,12L16.3,12L16.3,7.5L16.7,7.5z" stroke="none"/><path d="M22.3,4.5L22.7,4.5L22.7,7.417157287525381L24.08284271247462,8.8L25.5,8.8L25.5,9.2L23.91715728752538,9.2L22.3,7.582842712474619z" stroke="none"/><path d="M13.35857864376269,11.85857864376269L13.64142135623731,12.14142135623731L12.08284271247462,13.7L4.417157287525381,13.7L2.8585786437626903,12.14142135623731L3.1414213562373097,11.85857864376269L4.582842712474619,13.3L11.91715728752538,13.3z" stroke="none"/><path d="M3.2,10.5L2.8,10.5L2.8,9.08284271247462L1.3,7.582842712474619L1.3,2.917157287525381L2.917157287525381,1.3L7.582842712474619,1.3L10.58284271247462,4.3L12.08284271247462,4.3L15.14142135623731,7.358578643762691L14.85857864376269,7.641421356237309L11.91715728752538,4.7L10.41715728752538,4.7L7.417157287525381,1.7L3.082842712474619,1.7L1.7,3.082842712474619L1.7,7.417157287525381L3.2,8.91715728752538z" stroke="none"/></svg>