<svg version="1.1" width="30" height="15" xmlns="http://www.w3.org/2000/svg"><path d="M11.91715728752538,5.8L13.41715728752538,4.3L16.58284271247462,4.3L18.2,5.917157287525381L18.2,7.5L17.8,7.5L17.8,6.082842712474619L16.41715728752538,4.7L13.58284271247462,4.7L12.2,6.082842712474619L12.2,9L11.8,9L11.8,6.2L10.58284271247462,6.2L9.2,7.582842712474619L9.2,12L8.8,12L8.8,7.417157287525381L10.41715728752538,5.8z" stroke="none"/><path d="M22.41715728752538,8.8L23.91715728752538,7.3L25.58284271247462,7.3L27.2,8.91715728752538L27.2,10.5L26.8,10.5L26.8,9.08284271247462L25.41715728752538,7.7L24.08284271247462,7.7L22.78284271247462,9L24.08284271247462,10.3L25.5,10.3L25.5,10.7L23.91715728752538,10.7L22.7,9.48284271247462L22.7,10.58284271247462L21.14142135623731,12.14142135623731L20.85857864376269,11.85857864376269L22.3,10.41715728752538L22.3,9.2L21.08284271247462,9.2L19.7,10.58284271247462L19.7,12L19.3,12L19.3,10.41715728752538L20.91715728752538,8.8z" stroke="none"/><path d="M4.5,12.2L4.5,11.8L6,11.8L6,12.2z" stroke="none"/><path d="M16.64142135623731,7.358578643762691L16.35857864376269,7.641421356237309L14.85857864376269,6.141421356237309L15.14142135623731,5.858578643762691z" stroke="none"/><path d="M6.141421356237309,7.358578643762691L5.858578643762691,7.641421356237309L2.8585786437626903,4.641421356237309L3.1414213562373097,4.358578643762691z" stroke="none"/><path d="M24,5.8L24,6.2L22.41715728752538,6.2L20.91715728752538,4.7L19.5,4.7L19.5,4.3L21.08284271247462,4.3L22.58284271247462,5.8z" stroke="none"/><path d="M7.641421356237309,10.35857864376269L7.358578643762691,10.64142135623731L5.917157287525381,9.2L3.082842712474619,9.2L1.7,10.58284271247462L1.7,11.91715728752538L3.082842712474619,13.3L10.41715728752538,13.3L13.35857864376269,10.35857864376269L13.64142135623731,10.64142135623731L10.58284271247462,13.7L2.917157287525381,13.7L1.3,12.08284271247462L1.3,10.41715728752538L2.917157287525381,8.8L6.082842712474619,8.8z" stroke="none"/><path d="M25.5,2.8L25.5,3.2L19.5,3.2L19.5,2.8z" stroke="none"/><path d="M9.14142135623731,4.358578643762691L8.85857864376269,4.641421356237309L5.917157287525381,1.7L3.082842712474619,1.7L1.7,3.082842712474619L1.7,5.917157287525381L3.1414213562373097,7.358578643762691L2.8585786437626903,7.641421356237309L1.3,6.082842712474619L1.3,2.917157287525381L2.917157287525381,1.3L6.082842712474619,1.3z" stroke="none"/><path d="M25.5,11.8L25.5,12.2L24.08284271247462,12.2L22.58284271247462,13.7L17.91715728752538,13.7L16.3,12.08284271247462L16.3,10.58284271247462L14.91715728752538,9.2L13.5,9.2L13.5,8.8L15.08284271247462,8.8L16.7,10.41715728752538L16.7,11.91715728752538L18.08284271247462,13.3L22.41715728752538,13.3L23.91715728752538,11.8z" stroke="none"/></svg>