<svg version="1.1" width="30" height="15" xmlns="http://www.w3.org/2000/svg"><path d="M16.41715728752538,7.3L17.91715728752538,5.8L19.5,5.8L19.5,6.2L18.08284271247462,6.2L16.58284271247462,7.7L12.48284271247462,7.7L13.7,8.91715728752538L13.7,10.5L13.3,10.5L13.3,9.08284271247462L11.91715728752538,7.7L10.58284271247462,7.7L9.2,9.08284271247462L9.2,10.5L8.8,10.5L8.8,8.91715728752538L10.41715728752538,7.3z" stroke="none"/><path d="M14.8,5.5171572875253805L14.8,2.917157287525381L16.41715728752538,1.3L19.58284271247462,1.3L22.7,4.417157287525381L22.7,6.082842712474619L21.08284271247462,7.7L19.5,7.7L19.5,7.3L20.91715728752538,7.3L22.3,5.917157287525381L22.3,4.582842712474619L19.41715728752538,1.7L16.58284271247462,1.7L15.2,3.082842712474619L15.2,5.5171572875253805L17.85857864376269,2.8585786437626903L18.14142135623731,3.1414213562373097L15.08284271247462,6.2L10.41715728752538,6.2L8.8,4.582842712474619L8.8,3.082842712474619L7.417157287525381,1.7L6.082842712474619,1.7L4.7,3.082842712474619L4.7,4.417157287525381L6.082842712474619,5.8L7.417157287525381,5.8L8.91715728752538,4.3L10.5,4.3L10.5,4.7L9.08284271247462,4.7L7.582842712474619,6.2L5.917157287525381,6.2L4.3,4.582842712474619L4.3,2.917157287525381L5.917157287525381,1.3L7.582842712474619,1.3L9.2,2.917157287525381L9.2,4.417157287525381L10.58284271247462,5.8L14.51715728752538,5.8L13.41715728752538,4.7L12,4.7L12,4.3L13.58284271247462,4.3z" stroke="none"/><path d="M3.2,6L2.8,6L2.8,4.5L3.2,4.5z" stroke="none"/><path d="M10.5,10.7L10.5,10.3L12,10.3L12,10.7z" stroke="none"/><path d="M13.5,2.8L13.5,3.2L10.5,3.2L10.5,2.8z" stroke="none"/><path d="M24.2,6L23.8,6L23.8,4.417157287525381L25.35857864376269,2.8585786437626903L25.64142135623731,3.1414213562373097L24.2,4.582842712474619z" stroke="none"/><path d="M21.14142135623731,10.64142135623731L20.85857864376269,10.35857864376269L23.91715728752538,7.3L25.58284271247462,7.3L27.2,8.91715728752538L27.2,10.5L26.8,10.5L26.8,9.08284271247462L25.41715728752538,7.7L24.08284271247462,7.7z" stroke="none"/><path d="M19.5,12.2L19.5,11.8L22.41715728752538,11.8L23.91715728752538,10.3L25.5,10.3L25.5,10.7L24.08284271247462,10.7L22.58284271247462,12.2z" stroke="none"/><path d="M5.8,7.5L6.2,7.5L6.2,10.41715728752538L9.08284271247462,13.3L13.41715728752538,13.3L14.8,11.91715728752538L14.8,9L15.2,9L15.2,12.08284271247462L13.58284271247462,13.7L8.91715728752538,13.7L5.8,10.58284271247462z" stroke="none"/><path d="M27,11.8L27,12.2L25.58284271247462,12.2L24.08284271247462,13.7L17.91715728752538,13.7L16.35857864376269,12.14142135623731L16.64142135623731,11.85857864376269L18.08284271247462,13.3L23.91715728752538,13.3L25.41715728752538,11.8z" stroke="none"/></svg>