<svg version="1.1" width="30" height="15" xmlns="http://www.w3.org/2000/svg"><path d="M19.7,4.417157287525381L19.7,6.082842712474619L18.14142135623731,7.641421356237309L17.85857864376269,7.358578643762691L19.3,5.917157287525381L19.3,4.7L18.08284271247462,4.7L16.7,6.082842712474619L16.7,7.5L16.3,7.5L16.3,5.917157287525381L17.91715728752538,4.3L19.017157287525382,4.3L17.91715728752538,3.2L16.5,3.2L16.5,2.8L18.08284271247462,2.8z" stroke="none"/><path d="M10.3,5.8L10.3,3L10.7,3L10.7,5.8L11.91715728752538,5.8L13.35857864376269,4.358578643762691L13.64142135623731,4.641421356237309L12.08284271247462,6.2L10.7,6.2L10.7,7.417157287525381L12.08284271247462,8.8L13.41715728752538,8.8L14.8,7.417157287525381L14.8,4.5L15.2,4.5L15.2,7.582842712474619L13.58284271247462,9.2L11.91715728752538,9.2L10.3,7.582842712474619L10.3,6.2L6,6.2L6,5.8z" stroke="none"/><path d="M10.7,12L10.3,12L10.3,10.5L10.7,10.5z" stroke="none"/><path d="M22.64142135623731,10.64142135623731L22.35857864376269,10.35857864376269L23.85857864376269,8.85857864376269L24.14142135623731,9.14142135623731z" stroke="none"/><path d="M15.2,12L14.8,12L14.8,10.41715728752538L16.35857864376269,8.85857864376269L16.64142135623731,9.14142135623731L15.2,10.58284271247462z" stroke="none"/><path d="M3,10.7L3,10.3L7.5,10.3L7.5,10.7z" stroke="none"/><path d="M2.8585786437626903,12.14142135623731L3.1414213562373097,11.85857864376269L4.582842712474619,13.3L7.417157287525381,13.3L8.8,11.91715728752538L8.8,9.08284271247462L7.417157287525381,7.7L6,7.7L6,7.3L7.582842712474619,7.3L9.2,8.91715728752538L9.2,12.08284271247462L7.582842712474619,13.7L4.417157287525381,13.7z" stroke="none"/><path d="M19.35857864376269,10.64142135623731L19.64142135623731,10.35857864376269L21.08284271247462,11.8L23.91715728752538,11.8L25.3,10.41715728752538L25.3,9L25.7,9L25.7,10.58284271247462L24.08284271247462,12.2L20.91715728752538,12.2z" stroke="none"/><path d="M27,2.8L27,3.2L25.58284271247462,3.2L21.14142135623731,7.641421356237309L20.85857864376269,7.358578643762691L25.41715728752538,2.8z" stroke="none"/><path d="M4.7,6L4.3,6L4.3,4.417157287525381L5.917157287525381,2.8L7.417157287525381,2.8L8.91715728752538,1.3L12.08284271247462,1.3L13.58284271247462,2.8L15,2.8L15,3.2L13.41715728752538,3.2L11.91715728752538,1.7L9.08284271247462,1.7L7.582842712474619,3.2L6.082842712474619,3.2L4.7,4.582842712474619z" stroke="none"/></svg>