<svg version="1.1" width="30" height="15" xmlns="http://www.w3.org/2000/svg"><path d="M25.3,11.8L25.3,10.58284271247462L23.85857864376269,9.14142135623731L24.14142135623731,8.85857864376269L25.7,10.41715728752538L25.7,11.8L26.91715728752538,11.8L28.3,10.41715728752538L28.3,9.08284271247462L26.91715728752538,7.7L25.5,7.7L25.5,7.3L27.08284271247462,7.3L28.7,8.91715728752538L28.7,10.58284271247462L27.08284271247462,12.2L22.58284271247462,12.2L21.08284271247462,13.7L17.91715728752538,13.7L16.35857864376269,12.14142135623731L16.64142135623731,11.85857864376269L18.08284271247462,13.3L20.91715728752538,13.3L22.41715728752538,11.8z" stroke="none"/><path d="M8.8,5.8L8.8,3L9.2,3L9.2,5.8L10.41715728752538,5.8L11.85857864376269,4.358578643762691L12.14142135623731,4.641421356237309L10.58284271247462,6.2L9.2,6.2L9.2,7.582842712474619L4.582842712474619,12.2L2.917157287525381,12.2L1.3,10.58284271247462L1.3,8.91715728752538L2.917157287525381,7.3L11.91715728752538,7.3L13.3,5.917157287525381L13.3,4.5L13.7,4.5L13.7,6.082842712474619L12.08284271247462,7.7L3.082842712474619,7.7L1.7,9.08284271247462L1.7,10.41715728752538L3.082842712474619,11.8L4.417157287525381,11.8L8.8,7.417157287525381L8.8,6.2L4.5,6.2L4.5,5.8z" stroke="none"/><path d="M10.5,10.3L10.5,10.7L9,10.7L9,10.3z" stroke="none"/><path d="M27,4.3L27,4.7L25.5,4.7L25.5,4.3z" stroke="none"/><path d="M19.5,7.7L19.5,7.3L21,7.3L21,7.7z" stroke="none"/><path d="M3,4.7L3,4.3L6,4.3L6,4.7z" stroke="none"/><path d="M19.64142135623731,12.14142135623731L19.35857864376269,11.85857864376269L20.91715728752538,10.3L22.5,10.3L22.5,10.7L21.08284271247462,10.7z" stroke="none"/><path d="M12.2,12L11.8,12L11.8,10.41715728752538L13.35857864376269,8.85857864376269L13.64142135623731,9.14142135623731L12.2,10.58284271247462z" stroke="none"/><path d="M7.5,12.2L7.5,11.8L9.08284271247462,11.8L10.58284271247462,13.3L13.41715728752538,13.3L14.8,11.91715728752538L14.8,10.41715728752538L17.85857864376269,7.358578643762691L18.14142135623731,7.641421356237309L15.2,10.58284271247462L15.2,12.08284271247462L13.58284271247462,13.7L10.41715728752538,13.7L8.91715728752538,12.2z" stroke="none"/><path d="M3,3.2L3,2.8L5.917157287525381,2.8L7.417157287525381,1.3L13.58284271247462,1.3L15.2,2.917157287525381L15.2,4.5L14.8,4.5L14.8,3.082842712474619L13.41715728752538,1.7L7.582842712474619,1.7L6.082842712474619,3.2z" stroke="none"/></svg>