<svg version="1.1" width="30" height="15" xmlns="http://www.w3.org/2000/svg"><path d="M6,11.717157287525382L7.417157287525381,10.3L9,10.3L9,10.7L7.582842712474619,10.7L6.4828427124746195,11.8L7.582842712474619,11.8L9.08284271247462,13.3L13.41715728752538,13.3L14.8,11.91715728752538L14.8,9L15.2,9L15.2,12.08284271247462L13.58284271247462,13.7L8.91715728752538,13.7L7.417157287525381,12.2L5.917157287525381,12.2L4.3,10.58284271247462L4.3,9L4.7,9L4.7,10.41715728752538z" stroke="none"/><path d="M5.8,5.8L5.8,4.417157287525381L7.417157287525381,2.8L9.08284271247462,2.8L10.7,4.417157287525381L10.7,7.5L10.3,7.5L10.3,4.582842712474619L8.91715728752538,3.2L7.582842712474619,3.2L6.2,4.582842712474619L6.2,5.8L9,5.8L9,6.2L6.2,6.2L6.2,9L5.8,9L5.8,6.2L4.417157287525381,6.2L2.8,4.582842712474619L2.8,2.917157287525381L4.417157287525381,1.3L10.58284271247462,1.3L12.2,2.917157287525381L12.2,9.08284271247462L10.64142135623731,10.64142135623731L10.35857864376269,10.35857864376269L11.8,8.91715728752538L11.8,3.082842712474619L10.41715728752538,1.7L4.582842712474619,1.7L3.2,3.082842712474619L3.2,4.417157287525381L4.582842712474619,5.8z" stroke="none"/><path d="M12,11.8L12,12.2L10.5,12.2L10.5,11.8z" stroke="none"/><path d="M27,8.8L27,9.2L25.5,9.2L25.5,8.8z" stroke="none"/><path d="M25.35857864376269,4.358578643762691L25.64142135623731,4.641421356237309L24.14142135623731,6.141421356237309L23.85857864376269,5.858578643762691z" stroke="none"/><path d="M23.85857864376269,10.64142135623731L24.14142135623731,10.35857864376269L25.64142135623731,11.85857864376269L25.35857864376269,12.14142135623731z" stroke="none"/><path d="M13.3,4.5L13.7,4.5L13.7,9L13.3,9z" stroke="none"/><path d="M20.85857864376269,7.358578643762691L21.14142135623731,7.641421356237309L19.58284271247462,9.2L18.08284271247462,9.2L16.64142135623731,10.64142135623731L16.35857864376269,10.35857864376269L17.91715728752538,8.8L19.41715728752538,8.8z" stroke="none"/><path d="M16.64142135623731,6.141421356237309L16.35857864376269,5.858578643762691L17.91715728752538,4.3L21.08284271247462,4.3L22.7,5.917157287525381L22.7,11.91715728752538L24.08284271247462,13.3L26.91715728752538,13.3L28.3,11.91715728752538L28.3,6.082842712474619L26.85857864376269,4.641421356237309L27.14142135623731,4.358578643762691L28.7,5.917157287525381L28.7,12.08284271247462L27.08284271247462,13.7L23.91715728752538,13.7L22.3,12.08284271247462L22.3,6.082842712474619L20.91715728752538,4.7L18.08284271247462,4.7z" stroke="none"/><path d="M15.2,6L14.8,6L14.8,4.417157287525381L16.41715728752538,2.8L25.5,2.8L25.5,3.2L16.58284271247462,3.2L15.2,4.582842712474619z" stroke="none"/><circle cx="9" cy="10.5" r="0.25" stroke-width="0" fill="#000" /><circle cx="4.5" cy="9" r="0.25" stroke-width="0" fill="#000" /><circle cx="15" cy="9" r="0.25" stroke-width="0" fill="#000" /><circle cx="9" cy="6" r="0.25" stroke-width="0" fill="#000" /><circle cx="6" cy="9" r="0.25" stroke-width="0" fill="#000" /><circle cx="10.5" cy="7.5" r="0.25" stroke-width="0" fill="#000" /><circle cx="10.5" cy="10.5" r="0.25" stroke-width="0" fill="#000" /><circle cx="12" cy="12" r="0.25" stroke-width="0" fill="#000" /><circle cx="10.5" cy="12" r="0.25" stroke-width="0" fill="#000" /><circle cx="27" cy="9" r="0.25" stroke-width="0" fill="#000" /><circle cx="25.5" cy="9" r="0.25" stroke-width="0" fill="#000" /><circle cx="25.5" cy="4.5" r="0.25" stroke-width="0" fill="#000" /><circle cx="24" cy="6" r="0.25" stroke-width="0" fill="#000" /><circle cx="24" cy="10.5" r="0.25" stroke-width="0" fill="#000" /><circle cx="25.5" cy="12" r="0.25" stroke-width="0" fill="#000" /><circle cx="13.5" cy="4.5" r="0.25" stroke-width="0" fill="#000" /><circle cx="13.5" cy="9" r="0.25" stroke-width="0" fill="#000" /><circle cx="21" cy="7.5" r="0.25" stroke-width="0" fill="#000" /><circle cx="16.5" cy="10.5" r="0.25" stroke-width="0" fill="#000" /><circle cx="16.5" cy="6" r="0.25" stroke-width="0" fill="#000" /><circle cx="27" cy="4.5" r="0.25" stroke-width="0" fill="#000" /><circle cx="15" cy="6" r="0.25" stroke-width="0" fill="#000" /><circle cx="25.5" cy="3" r="0.25" stroke-width="0" fill="#000" /><rect x="0" y="0" width="30" height="15" stroke-width="0.8" stroke="#000" fill="none" /></svg>