<svg version="1.1" width="30" height="15" xmlns="http://www.w3.org/2000/svg"><path d="M2.8,8.91715728752538L4.417157287525381,7.3L6,7.3L6,7.7L4.582842712474619,7.7L3.482842712474619,8.8L9,8.8L9,9.2L3.2,9.2L3.2,10.41715728752538L4.641421356237309,11.85857864376269L4.358578643762691,12.14142135623731L2.8,10.58284271247462z" stroke="none"/><path d="M14.91715728752538,2.8L19.58284271247462,2.8L21.08284271247462,4.3L22.5,4.3L22.5,4.7L20.91715728752538,4.7L19.41715728752538,3.2L15.48284271247462,3.2L16.58284271247462,4.3L18,4.3L18,4.7L16.41715728752538,4.7L15.2,3.482842712474619L15.2,6.082842712474619L13.58284271247462,7.7L11.91715728752538,7.7L10.3,6.082842712474619L10.3,3L10.7,3L10.7,5.917157287525381L12.08284271247462,7.3L13.41715728752538,7.3L14.8,5.917157287525381L14.8,3.482842712474619L13.58284271247462,4.7L12,4.7L12,4.3L13.41715728752538,4.3z" stroke="none"/><path d="M16.7,12L16.3,12L16.3,10.5L16.7,10.5z" stroke="none"/><path d="M11.85857864376269,10.64142135623731L12.14142135623731,10.35857864376269L13.64142135623731,11.85857864376269L13.35857864376269,12.14142135623731z" stroke="none"/><path d="M8.85857864376269,10.35857864376269L9.14142135623731,10.64142135623731L7.641421356237309,12.14142135623731L7.358578643762691,11.85857864376269z" stroke="none"/><path d="M24.2,10.5L23.8,10.5L23.8,8.91715728752538L25.35857864376269,7.358578643762691L25.64142135623731,7.641421356237309L24.2,9.08284271247462z" stroke="none"/><path d="M4.5,4.7L4.5,4.3L6.082842712474619,4.3L7.7,5.917157287525381L7.7,7.5L7.3,7.5L7.3,6.082842712474619L5.917157287525381,4.7z" stroke="none"/><path d="M22.3,6L22.7,6L22.7,9.08284271247462L21.14142135623731,10.64142135623731L20.85857864376269,10.35857864376269L22.3,8.91715728752538z" stroke="none"/><path d="M20.85857864376269,7.358578643762691L21.14142135623731,7.641421356237309L19.7,9.08284271247462L19.7,11.91715728752538L21.08284271247462,13.3L22.41715728752538,13.3L23.91715728752538,11.8L25.41715728752538,11.8L26.8,10.41715728752538L26.8,7.5L27.2,7.5L27.2,10.58284271247462L25.58284271247462,12.2L24.08284271247462,12.2L22.58284271247462,13.7L20.91715728752538,13.7L19.3,12.08284271247462L19.3,8.91715728752538z" stroke="none"/><path d="M4.5,3.2L4.5,2.8L7.417157287525381,2.8L8.91715728752538,1.3L27.08284271247462,1.3L28.7,2.917157287525381L28.7,4.582842712474619L27.08284271247462,6.2L25.41715728752538,6.2L23.8,4.582842712474619L23.8,3.082842712474619L22.41715728752538,1.7L13.58284271247462,1.7L12.14142135623731,3.1414213562373097L11.85857864376269,2.8585786437626903L13.41715728752538,1.3L22.58284271247462,1.3L24.2,2.917157287525381L24.2,4.417157287525381L25.58284271247462,5.8L26.91715728752538,5.8L28.3,4.417157287525381L28.3,3.082842712474619L26.91715728752538,1.7L9.08284271247462,1.7L7.582842712474619,3.2z" stroke="none"/></svg>