<svg version="1.1" width="30" height="15" xmlns="http://www.w3.org/2000/svg"><path d="M12,2.8L12,3.2L7.9828427124746195,3.2L9.08284271247462,4.3L10.5,4.3L10.5,4.7L8.91715728752538,4.7L7.417157287525381,3.2L4.582842712474619,3.2L3.2,4.582842712474619L3.2,6L2.8,6L2.8,4.417157287525381L4.417157287525381,2.8z" stroke="none"/><path d="M22.5,7.217157287525381L23.91715728752538,5.8L25.5,5.8L25.5,6.2L24.08284271247462,6.2L22.982842712474618,7.3L27,7.3L27,7.7L18.08284271247462,7.7L16.64142135623731,9.14142135623731L16.35857864376269,8.85857864376269L17.91715728752538,7.3L22.017157287525382,7.3L20.91715728752538,6.2L19.5,6.2L19.5,5.8L21.08284271247462,5.8z" stroke="none"/><path d="M27,2.8L27,3.2L25.5,3.2L25.5,2.8z" stroke="none"/><path d="M13.3,3L13.7,3L13.7,4.5L13.3,4.5z" stroke="none"/><path d="M7.358578643762691,9.14142135623731L7.641421356237309,8.85857864376269L9.14142135623731,10.35857864376269L8.85857864376269,10.64142135623731z" stroke="none"/><path d="M11.8,4.5L12.2,4.5L12.2,5.917157287525381L13.58284271247462,7.3L15,7.3L15,7.7L13.41715728752538,7.7L11.8,6.082842712474619z" stroke="none"/><path d="M18,12.2L18,11.8L22.5,11.8L22.5,12.2z" stroke="none"/><path d="M19.5,9.2L19.5,8.8L24.08284271247462,8.8L25.58284271247462,10.3L26.91715728752538,10.3L28.3,8.91715728752538L28.3,6.082842712474619L26.91715728752538,4.7L21,4.7L21,4.3L27.08284271247462,4.3L28.7,5.917157287525381L28.7,9.08284271247462L27.08284271247462,10.7L25.41715728752538,10.7L23.91715728752538,9.2z" stroke="none"/><path d="M5.8,6L6.2,6L6.2,9.08284271247462L4.641421356237309,10.64142135623731L4.358578643762691,10.35857864376269L5.8,8.91715728752538z" stroke="none"/><path d="M4.3,6L4.7,6L4.7,7.582842712474619L3.2,9.08284271247462L3.2,11.91715728752538L4.582842712474619,13.3L8.91715728752538,13.3L10.3,11.91715728752538L10.3,10.41715728752538L11.91715728752538,8.8L13.58284271247462,8.8L15.2,10.41715728752538L15.2,12.08284271247462L13.58284271247462,13.7L4.417157287525381,13.7L2.8,12.08284271247462L2.8,10.58284271247462L1.3,9.08284271247462L1.3,2.917157287525381L2.917157287525381,1.3L15.08284271247462,1.3L16.64142135623731,2.8585786437626903L16.35857864376269,3.1414213562373097L14.91715728752538,1.7L3.082842712474619,1.7L1.7,3.082842712474619L1.7,8.91715728752538L3.2,10.41715728752538L3.2,11.91715728752538L4.582842712474619,13.3L13.41715728752538,13.3L14.8,11.91715728752538L14.8,10.58284271247462L13.41715728752538,9.2L12.08284271247462,9.2L10.7,10.58284271247462L10.7,12.08284271247462L9.08284271247462,13.7L4.417157287525381,13.7L2.8,12.08284271247462L2.8,8.91715728752538L4.3,7.417157287525381z" stroke="none"/></svg>