<svg version="1.1" width="30" height="15" xmlns="http://www.w3.org/2000/svg"><path d="M23.91715728752538,5.8L25.5,5.8L25.5,6.2L24.08284271247462,6.2L22.78284271247462,7.5L24.08284271247462,8.8L25.41715728752538,8.8L26.8,7.417157287525381L26.8,6L27.2,6L27.2,7.582842712474619L25.58284271247462,9.2L23.91715728752538,9.2L22.5,7.782842712474619L21.08284271247462,9.2L19.5,9.2L19.5,8.8L20.91715728752538,8.8z" stroke="none"/><path d="M13.58284271247462,5.8L15,5.8L15,6.2L13.41715728752538,6.2L12.2,4.9828427124746195L12.2,7.417157287525381L13.58284271247462,8.8L14.91715728752538,8.8L16.35857864376269,7.358578643762691L16.64142135623731,7.641421356237309L15.08284271247462,9.2L13.41715728752538,9.2L11.8,7.582842712474619L11.8,4.7L10.58284271247462,4.7L9.08284271247462,6.2L7.5,6.2L7.5,5.8L8.91715728752538,5.8L10.41715728752538,4.3L11.51715728752538,4.3L10.41715728752538,3.2L9,3.2L9,2.8L10.58284271247462,2.8z" stroke="none"/><path d="M19.5,10.3L19.5,10.7L18,10.7L18,10.3z" stroke="none"/><path d="M4.7,9L4.3,9L4.3,7.5L4.7,7.5z" stroke="none"/><path d="M24,10.3L24,10.7L22.5,10.7L22.5,10.3z" stroke="none"/><path d="M4.5,10.7L4.5,10.3L9,10.3L9,10.7z" stroke="none"/><path d="M17.85857864376269,3.1414213562373097L18.14142135623731,2.8585786437626903L19.58284271247462,4.3L24,4.3L24,4.7L19.41715728752538,4.7z" stroke="none"/><path d="M2.8,9L3.2,9L3.2,11.91715728752538L4.582842712474619,13.3L7.417157287525381,13.3L8.91715728752538,11.8L10.5,11.8L10.5,12.2L9.08284271247462,12.2L7.582842712474619,13.7L4.417157287525381,13.7L2.8,12.08284271247462z" stroke="none"/><path d="M24,2.8L24,3.2L20.91715728752538,3.2L19.41715728752538,1.7L16.58284271247462,1.7L15.14142135623731,3.1414213562373097L14.85857864376269,2.8585786437626903L16.41715728752538,1.3L19.58284271247462,1.3L21.08284271247462,2.8z" stroke="none"/><path d="M3.1414213562373097,7.358578643762691L2.8585786437626903,7.641421356237309L1.3,6.082842712474619L1.3,4.417157287525381L2.917157287525381,2.8L4.582842712474619,2.8L6.2,4.417157287525381L6.2,7.417157287525381L7.582842712474619,8.8L10.58284271247462,8.8L12.14142135623731,10.35857864376269L11.85857864376269,10.64142135623731L10.41715728752538,9.2L7.417157287525381,9.2L5.8,7.582842712474619L5.8,4.582842712474619L4.417157287525381,3.2L3.082842712474619,3.2L1.7,4.582842712474619L1.7,5.917157287525381z" stroke="none"/></svg>