<svg version="1.1" width="30" height="15" xmlns="http://www.w3.org/2000/svg"><path d="M4.3,7.417157287525381L5.8,5.917157287525381L5.8,4.582842712474619L4.417157287525381,3.2L3.082842712474619,3.2L1.7,4.582842712474619L1.7,8.91715728752538L3.1414213562373097,10.35857864376269L2.8585786437626903,10.64142135623731L1.3,9.08284271247462L1.3,4.417157287525381L2.917157287525381,2.8L4.582842712474619,2.8L6.2,4.417157287525381L6.2,6.082842712474619L4.9828427124746195,7.3L10.41715728752538,7.3L11.85857864376269,5.858578643762691L12.14142135623731,6.141421356237309L10.58284271247462,7.7L4.7,7.7L4.7,10.5L4.3,10.5z" stroke="none"/><path d="M20.8,4.3L20.8,2.917157287525381L22.41715728752538,1.3L24.08284271247462,1.3L25.64142135623731,2.8585786437626903L25.35857864376269,3.1414213562373097L23.91715728752538,1.7L22.58284271247462,1.7L21.2,3.082842712474619L21.2,4.3L22.58284271247462,4.3L24.08284271247462,5.8L25.5,5.8L25.5,6.2L23.91715728752538,6.2L22.41715728752538,4.7L21.2,4.7L21.2,7.5L20.8,7.5L20.8,4.7L16.41715728752538,4.7L14.91715728752538,3.2L13.5,3.2L13.5,2.8L15.08284271247462,2.8L16.58284271247462,4.3z" stroke="none"/><path d="M19.5,8.8L19.5,9.2L18,9.2L18,8.8z" stroke="none"/><path d="M7.358578643762691,8.85857864376269L7.641421356237309,9.14142135623731L6.141421356237309,10.64142135623731L5.858578643762691,10.35857864376269z" stroke="none"/><path d="M24,7.7L24,7.3L27,7.3L27,7.7z" stroke="none"/><path d="M17.85857864376269,5.858578643762691L18.14142135623731,6.141421356237309L16.7,7.582842712474619L16.7,10.5L16.3,10.5L16.3,7.417157287525381z" stroke="none"/><path d="M16.5,12.2L16.5,11.8L17.91715728752538,11.8L19.41715728752538,10.3L20.91715728752538,10.3L22.41715728752538,8.8L24,8.8L24,9.2L22.58284271247462,9.2L21.08284271247462,10.7L19.58284271247462,10.7L18.08284271247462,12.2z" stroke="none"/><path d="M9.14142135623731,6.141421356237309L8.85857864376269,5.858578643762691L10.3,4.417157287525381L10.3,2.917157287525381L11.91715728752538,1.3L16.58284271247462,1.3L18.14142135623731,2.8585786437626903L17.85857864376269,3.1414213562373097L16.41715728752538,1.7L12.08284271247462,1.7L10.7,3.082842712474619L10.7,4.582842712474619z" stroke="none"/><path d="M3,12.2L3,11.8L8.91715728752538,11.8L10.41715728752538,10.3L13.58284271247462,10.3L15.14142135623731,11.85857864376269L14.85857864376269,12.14142135623731L13.41715728752538,10.7L10.58284271247462,10.7L9.08284271247462,12.2z" stroke="none"/><path d="M23.85857864376269,10.35857864376269L24.14142135623731,10.64142135623731L22.58284271247462,12.2L21.08284271247462,12.2L19.58284271247462,13.7L13.41715728752538,13.7L11.85857864376269,12.14142135623731L12.14142135623731,11.85857864376269L13.58284271247462,13.3L19.41715728752538,13.3L20.91715728752538,11.8L22.41715728752538,11.8z" stroke="none"/></svg>