<svg version="1.1" width="30" height="15" xmlns="http://www.w3.org/2000/svg"><path d="M9.08284271247462,8.8L16.5,8.8L16.5,9.2L9.08284271247462,9.2L7.582842712474619,10.7L6,10.7L6,10.3L7.417157287525381,10.3L8.717157287525382,9L5.858578643762691,6.141421356237309L6.141421356237309,5.858578643762691z" stroke="none"/><path d="M11.8,4.3L11.8,2.917157287525381L13.41715728752538,1.3L15.08284271247462,1.3L16.7,2.917157287525381L16.7,4.5L16.3,4.5L16.3,3.082842712474619L14.91715728752538,1.7L13.58284271247462,1.7L12.2,3.082842712474619L12.2,4.3L13.58284271247462,4.3L15.2,5.917157287525381L15.2,7.5L14.8,7.5L14.8,6.082842712474619L13.41715728752538,4.7L12.2,4.7L12.2,7.5L11.8,7.5L11.8,4.7L10.58284271247462,4.7L9.14142135623731,6.141421356237309L8.85857864376269,5.858578643762691L10.41715728752538,4.3z" stroke="none"/><path d="M21.14142135623731,8.85857864376269L20.85857864376269,9.14142135623731L19.35857864376269,7.641421356237309L19.64142135623731,7.358578643762691z" stroke="none"/><path d="M12.14142135623731,12.14142135623731L11.85857864376269,11.85857864376269L13.35857864376269,10.35857864376269L13.64142135623731,10.64142135623731z" stroke="none"/><path d="M3.2,7.5L2.8,7.5L2.8,5.917157287525381L4.358578643762691,4.358578643762691L4.641421356237309,4.641421356237309L3.2,6.082842712474619z" stroke="none"/><path d="M9,11.8L9,12.2L4.5,12.2L4.5,11.8z" stroke="none"/><path d="M23.8,3L24.2,3L24.2,5.917157287525381L25.64142135623731,7.358578643762691L25.35857864376269,7.641421356237309L23.8,6.082842712474619z" stroke="none"/><path d="M27,11.8L27,12.2L21,12.2L21,11.8z" stroke="none"/><path d="M27.14142135623731,2.8585786437626903L26.85857864376269,3.1414213562373097L25.41715728752538,1.7L22.58284271247462,1.7L21.08284271247462,3.2L19.5,3.2L19.5,2.8L20.91715728752538,2.8L22.41715728752538,1.3L25.58284271247462,1.3z" stroke="none"/><path d="M17.8,4.5L18.2,4.5L18.2,10.58284271247462L15.08284271247462,13.7L2.917157287525381,13.7L1.3,12.08284271247462L1.3,4.417157287525381L2.917157287525381,2.8L9,2.8L9,3.2L3.082842712474619,3.2L1.7,4.582842712474619L1.7,11.91715728752538L3.082842712474619,13.3L14.91715728752538,13.3L17.8,10.41715728752538z" stroke="none"/></svg>