<svg version="1.1" width="30" height="15" xmlns="http://www.w3.org/2000/svg"><path d="M22.58284271247462,8.8L24.08284271247462,10.3L25.5,10.3L25.5,10.7L23.91715728752538,10.7L22.41715728752538,9.2L21.2,9.2L21.2,12L20.8,12L20.8,9.2L16.5,9.2L16.5,8.8z" stroke="none"/><path d="M11.8,4.3L11.8,2.917157287525381L13.41715728752538,1.3L15.08284271247462,1.3L16.58284271247462,2.8L18,2.8L18,3.2L16.41715728752538,3.2L14.91715728752538,1.7L13.58284271247462,1.7L12.2,3.082842712474619L12.2,4.3L16.5,4.3L16.5,4.7L12.08284271247462,4.7L9.14142135623731,7.641421356237309L8.85857864376269,7.358578643762691L11.51715728752538,4.7L8.91715728752538,4.7L7.417157287525381,3.2L6,3.2L6,2.8L7.582842712474619,2.8L9.08284271247462,4.3z" stroke="none"/><path d="M3.2,10.5L2.8,10.5L2.8,9L3.2,9z" stroke="none"/><path d="M25.7,9L25.3,9L25.3,7.5L25.7,7.5z" stroke="none"/><path d="M16.7,12L16.3,12L16.3,10.5L16.7,10.5z" stroke="none"/><path d="M10.64142135623731,10.35857864376269L10.35857864376269,10.64142135623731L8.85857864376269,9.14142135623731L9.14142135623731,8.85857864376269z" stroke="none"/><path d="M15,11.8L15,12.2L10.5,12.2L10.5,11.8z" stroke="none"/><path d="M2.8585786437626903,4.641421356237309L3.1414213562373097,4.358578643762691L7.641421356237309,8.85857864376269L7.358578643762691,9.14142135623731z" stroke="none"/><path d="M5.858578643762691,12.14142135623731L6.141421356237309,11.85857864376269L7.582842712474619,13.3L25.41715728752538,13.3L26.8,11.91715728752538L26.8,6.082842712474619L25.41715728752538,4.7L22.58284271247462,4.7L21.08284271247462,6.2L13.58284271247462,6.2L12.2,7.582842712474619L12.2,8.91715728752538L13.64142135623731,10.35857864376269L13.35857864376269,10.64142135623731L11.8,9.08284271247462L11.8,7.417157287525381L13.41715728752538,5.8L20.91715728752538,5.8L22.41715728752538,4.3L25.58284271247462,4.3L27.2,5.917157287525381L27.2,12.08284271247462L25.58284271247462,13.7L7.417157287525381,13.7z" stroke="none"/><path d="M23.85857864376269,5.858578643762691L24.14142135623731,6.141421356237309L22.58284271247462,7.7L15,7.7L15,7.3L22.41715728752538,7.3z" stroke="none"/></svg>