<svg version="1.1" width="30" height="15" xmlns="http://www.w3.org/2000/svg"><path d="M12,4.3L12,4.7L6.2,4.7L6.2,5.917157287525381L7.641421356237309,7.358578643762691L7.358578643762691,7.641421356237309L5.8,6.082842712474619L5.8,4.7L3,4.7L3,4.3z" stroke="none"/><path d="M20.8,5.8L20.8,2.917157287525381L22.41715728752538,1.3L24.08284271247462,1.3L27.2,4.417157287525381L27.2,9L26.8,9L26.8,4.582842712474619L23.91715728752538,1.7L22.58284271247462,1.7L21.2,3.082842712474619L21.2,5.5171572875253805L22.41715728752538,4.3L24.08284271247462,4.3L25.7,5.917157287525381L25.7,7.582842712474619L24.08284271247462,9.2L22.5,9.2L22.5,8.8L23.91715728752538,8.8L25.3,7.417157287525381L25.3,6.082842712474619L23.91715728752538,4.7L22.58284271247462,4.7L21.2,6.082842712474619L21.2,7.582842712474619L19.64142135623731,9.14142135623731L19.35857864376269,8.85857864376269L20.8,7.417157287525381L20.8,6.2L19.41715728752538,6.2L17.91715728752538,4.7L16.5,4.7L16.5,4.3L18.08284271247462,4.3L19.58284271247462,5.8z" stroke="none"/><path d="M13.3,3L13.7,3L13.7,4.5L13.3,4.5z" stroke="none"/><path d="M10.35857864376269,9.14142135623731L10.64142135623731,8.85857864376269L12.14142135623731,10.35857864376269L11.85857864376269,10.64142135623731z" stroke="none"/><path d="M19.64142135623731,2.8585786437626903L19.35857864376269,3.1414213562373097L17.91715728752538,1.7L16.58284271247462,1.7L15.2,3.082842712474619L15.2,4.5L14.8,4.5L14.8,2.917157287525381L16.41715728752538,1.3L18.08284271247462,1.3z" stroke="none"/><path d="M9,2.8L9,3.2L7.417157287525381,3.2L5.917157287525381,1.7L3.082842712474619,1.7L1.7,3.082842712474619L1.7,5.917157287525381L3.082842712474619,7.3L4.5,7.3L4.5,7.7L2.917157287525381,7.7L1.3,6.082842712474619L1.3,2.917157287525381L2.917157287525381,1.3L6.082842712474619,1.3L7.582842712474619,2.8z" stroke="none"/><path d="M23.85857864376269,10.35857864376269L24.14142135623731,10.64142135623731L22.58284271247462,12.2L19.41715728752538,12.2L17.8,10.58284271247462L17.8,7.5L18.2,7.5L18.2,10.41715728752538L19.58284271247462,11.8L22.41715728752538,11.8z" stroke="none"/><path d="M16.64142135623731,8.85857864376269L16.35857864376269,9.14142135623731L13.41715728752538,6.2L10.58284271247462,6.2L9.2,7.582842712474619L9.2,9.08284271247462L7.641421356237309,10.64142135623731L7.358578643762691,10.35857864376269L8.8,8.91715728752538L8.8,7.417157287525381L10.41715728752538,5.8L13.58284271247462,5.8z" stroke="none"/><path d="M26.85857864376269,10.35857864376269L27.14142135623731,10.64142135623731L24.08284271247462,13.7L17.91715728752538,13.7L16.3,12.08284271247462L16.3,10.5L16.7,10.5L16.7,11.91715728752538L18.08284271247462,13.3L23.91715728752538,13.3z" stroke="none"/><path d="M4.3,9L4.7,9L4.7,10.41715728752538L6.082842712474619,11.8L13.41715728752538,11.8L14.85857864376269,10.35857864376269L15.14142135623731,10.64142135623731L13.58284271247462,12.2L5.917157287525381,12.2L4.3,10.58284271247462z" stroke="none"/></svg>