<svg version="1.1" width="30" height="15" xmlns="http://www.w3.org/2000/svg"><path d="M22.3,9.08284271247462L20.85857864376269,7.641421356237309L21.14142135623731,7.358578643762691L22.7,8.91715728752538L22.7,10.3L25.5,10.3L25.5,10.7L22.7,10.7L22.7,11.91715728752538L24.08284271247462,13.3L25.41715728752538,13.3L26.8,11.91715728752538L26.8,10.5L27.2,10.5L27.2,12.08284271247462L25.58284271247462,13.7L23.91715728752538,13.7L22.3,12.08284271247462z" stroke="none"/><path d="M10.3,10.3L10.3,7.5L10.7,7.5L10.7,10.3L11.91715728752538,10.3L13.35857864376269,8.85857864376269L13.64142135623731,9.14142135623731L12.08284271247462,10.7L10.58284271247462,10.7L9.08284271247462,12.2L7.5,12.2L7.5,11.8L8.91715728752538,11.8L10.01715728752538,10.7L5.917157287525381,10.7L4.3,9.08284271247462L4.3,7.5L4.7,7.5L4.7,8.91715728752538L6.082842712474619,10.3z" stroke="none"/><path d="M16.5,9.2L16.5,8.8L18,8.8L18,9.2z" stroke="none"/><path d="M9.14142135623731,6.141421356237309L8.85857864376269,5.858578643762691L10.41715728752538,4.3L12,4.3L12,4.7L10.58284271247462,4.7z" stroke="none"/><path d="M7.7,9L7.3,9L7.3,7.582842712474619L5.917157287525381,6.2L4.5,6.2L4.5,5.8L6.082842712474619,5.8L7.7,7.417157287525381z" stroke="none"/><path d="M25.5,7.3L25.5,7.7L23.91715728752538,7.7L20.85857864376269,4.641421356237309L21.14142135623731,4.358578643762691L24.08284271247462,7.3z" stroke="none"/><path d="M16.5,12.2L16.5,11.8L17.91715728752538,11.8L19.3,10.41715728752538L19.3,7.5L19.7,7.5L19.7,10.58284271247462L18.08284271247462,12.2z" stroke="none"/><path d="M25.64142135623731,5.858578643762691L25.35857864376269,6.141421356237309L22.41715728752538,3.2L19.58284271247462,3.2L18.14142135623731,4.641421356237309L17.85857864376269,4.358578643762691L19.41715728752538,2.8L22.58284271247462,2.8z" stroke="none"/><path d="M16.64142135623731,3.1414213562373097L16.35857864376269,2.8585786437626903L17.91715728752538,1.3L24.08284271247462,1.3L27.2,4.417157287525381L27.2,6L26.8,6L26.8,4.582842712474619L23.91715728752538,1.7L18.08284271247462,1.7z" stroke="none"/><path d="M2.8585786437626903,12.14142135623731L3.1414213562373097,11.85857864376269L4.582842712474619,13.3L11.91715728752538,13.3L14.8,10.41715728752538L14.8,9L15.2,9L15.2,10.58284271247462L12.08284271247462,13.7L4.417157287525381,13.7z" stroke="none"/><circle cx="25.5" cy="10.5" r="0.25" stroke-width="0" fill="#000" /><circle cx="21" cy="7.5" r="0.25" stroke-width="0" fill="#000" /><circle cx="27" cy="10.5" r="0.25" stroke-width="0" fill="#000" /><circle cx="10.5" cy="7.5" r="0.25" stroke-width="0" fill="#000" /><circle cx="13.5" cy="9" r="0.25" stroke-width="0" fill="#000" /><circle cx="7.5" cy="12" r="0.25" stroke-width="0" fill="#000" /><circle cx="4.5" cy="7.5" r="0.25" stroke-width="0" fill="#000" /><circle cx="16.5" cy="9" r="0.25" stroke-width="0" fill="#000" /><circle cx="18" cy="9" r="0.25" stroke-width="0" fill="#000" /><circle cx="9" cy="6" r="0.25" stroke-width="0" fill="#000" /><circle cx="12" cy="4.5" r="0.25" stroke-width="0" fill="#000" /><circle cx="7.5" cy="9" r="0.25" stroke-width="0" fill="#000" /><circle cx="4.5" cy="6" r="0.25" stroke-width="0" fill="#000" /><circle cx="25.5" cy="7.5" r="0.25" stroke-width="0" fill="#000" /><circle cx="21" cy="4.5" r="0.25" stroke-width="0" fill="#000" /><circle cx="16.5" cy="12" r="0.25" stroke-width="0" fill="#000" /><circle cx="19.5" cy="7.5" r="0.25" stroke-width="0" fill="#000" /><circle cx="25.5" cy="6" r="0.25" stroke-width="0" fill="#000" /><circle cx="18" cy="4.5" r="0.25" stroke-width="0" fill="#000" /><circle cx="16.5" cy="3" r="0.25" stroke-width="0" fill="#000" /><circle cx="27" cy="6" r="0.25" stroke-width="0" fill="#000" /><circle cx="3" cy="12" r="0.25" stroke-width="0" fill="#000" /><circle cx="15" cy="9" r="0.25" stroke-width="0" fill="#000" /><rect x="0" y="0" width="30" height="15" stroke-width="0.8" stroke="#000" fill="none" /></svg>