<svg version="1.1" width="30" height="15" xmlns="http://www.w3.org/2000/svg"><path d="M25.58284271247462,2.8L27.14142135623731,4.358578643762691L26.85857864376269,4.641421356237309L25.41715728752538,3.2L24.2,3.2L24.2,4.417157287525381L25.64142135623731,5.858578643762691L25.35857864376269,6.141421356237309L23.8,4.582842712474619L23.8,3.2L19.5,3.2L19.5,2.8z" stroke="none"/><path d="M17.8,7.3L17.8,5.917157287525381L19.41715728752538,4.3L21.08284271247462,4.3L27.14142135623731,10.35857864376269L26.85857864376269,10.64142135623731L20.91715728752538,4.7L19.58284271247462,4.7L18.2,6.082842712474619L18.2,7.3L19.58284271247462,7.3L21.2,8.91715728752538L21.2,12.08284271247462L19.58284271247462,13.7L17.91715728752538,13.7L14.85857864376269,10.64142135623731L15.14142135623731,10.35857864376269L18.08284271247462,13.3L19.41715728752538,13.3L20.8,11.91715728752538L20.8,9.08284271247462L19.41715728752538,7.7L18.2,7.7L18.2,8.91715728752538L19.64142135623731,10.35857864376269L19.35857864376269,10.64142135623731L17.8,9.08284271247462L17.8,7.7L15,7.7L15,7.3z" stroke="none"/><path d="M24,10.3L24,10.7L22.5,10.7L22.5,10.3z" stroke="none"/><path d="M9.2,6L8.8,6L8.8,4.5L9.2,4.5z" stroke="none"/><path d="M5.8,6L6.2,6L6.2,9L5.8,9z" stroke="none"/><path d="M10.5,10.3L10.5,10.7L8.91715728752538,10.7L7.3,9.08284271247462L7.3,7.5L7.7,7.5L7.7,8.91715728752538L9.08284271247462,10.3z" stroke="none"/><path d="M3,4.7L3,4.3L7.5,4.3L7.5,4.7z" stroke="none"/><path d="M3,3.2L3,2.8L7.5,2.8L7.5,3.2z" stroke="none"/><path d="M6,12.2L6,11.8L11.91715728752538,11.8L13.35857864376269,10.35857864376269L13.64142135623731,10.64142135623731L12.08284271247462,12.2z" stroke="none"/><path d="M9,7.7L9,7.3L10.41715728752538,7.3L14.91715728752538,2.8L16.5,2.8L16.5,3.2L15.08284271247462,3.2L10.58284271247462,7.7z" stroke="none"/></svg>