<svg version="1.1" width="30" height="15" xmlns="http://www.w3.org/2000/svg"><path d="M16.5,7.3L16.5,7.7L12.2,7.7L12.2,8.91715728752538L13.64142135623731,10.35857864376269L13.35857864376269,10.64142135623731L11.8,9.08284271247462L11.8,7.7L10.58284271247462,7.7L9.08284271247462,9.2L7.417157287525381,9.2L5.8,7.582842712474619L5.8,6L6.2,6L6.2,7.417157287525381L7.582842712474619,8.8L8.91715728752538,8.8L10.41715728752538,7.3z" stroke="none"/><path d="M18.08284271247462,2.8L19.58284271247462,2.8L21.2,4.417157287525381L21.2,5.917157287525381L22.64142135623731,7.358578643762691L22.35857864376269,7.641421356237309L20.8,6.082842712474619L20.8,4.582842712474619L19.41715728752538,3.2L18.2,3.2L18.2,4.417157287525381L19.64142135623731,5.858578643762691L19.35857864376269,6.141421356237309L17.8,4.582842712474619L17.8,3.482842712474619L16.58284271247462,4.7L15,4.7L15,4.3L16.41715728752538,4.3L17.71715728752538,3L16.41715728752538,1.7L15.08284271247462,1.7L13.7,3.082842712474619L13.7,4.5L13.3,4.5L13.3,2.917157287525381L14.91715728752538,1.3L16.58284271247462,1.3z" stroke="none"/><path d="M4.3,6L4.7,6L4.7,7.5L4.3,7.5z" stroke="none"/><path d="M4.358578643762691,3.1414213562373097L4.641421356237309,2.8585786437626903L6.141421356237309,4.358578643762691L5.858578643762691,4.641421356237309z" stroke="none"/><path d="M25.64142135623731,4.641421356237309L25.35857864376269,4.358578643762691L26.85857864376269,2.8585786437626903L27.14142135623731,3.1414213562373097z" stroke="none"/><path d="M3.1414213562373097,7.358578643762691L2.8585786437626903,7.641421356237309L1.3,6.082842712474619L1.3,2.917157287525381L2.917157287525381,1.3L6.082842712474619,1.3L7.7,2.917157287525381L7.7,6L7.3,6L7.3,3.082842712474619L5.917157287525381,1.7L3.082842712474619,1.7L1.7,3.082842712474619L1.7,5.917157287525381z" stroke="none"/><path d="M16.5,5.8L16.5,6.2L11.91715728752538,6.2L10.35857864376269,4.641421356237309L10.64142135623731,4.358578643762691L12.08284271247462,5.8z" stroke="none"/><path d="M16.5,9.2L16.5,8.8L22.58284271247462,8.8L24.08284271247462,10.3L25.41715728752538,10.3L26.8,8.91715728752538L26.8,7.582842712474619L25.41715728752538,6.2L24,6.2L24,5.8L25.58284271247462,5.8L27.2,7.417157287525381L27.2,9.08284271247462L25.58284271247462,10.7L23.91715728752538,10.7L22.41715728752538,9.2z" stroke="none"/><path d="M21,10.3L21,10.7L16.58284271247462,10.7L15.08284271247462,12.2L11.91715728752538,12.2L10.35857864376269,10.64142135623731L10.64142135623731,10.35857864376269L12.08284271247462,11.8L14.91715728752538,11.8L16.41715728752538,10.3z" stroke="none"/><path d="M7.5,12.2L7.5,11.8L9.08284271247462,11.8L10.58284271247462,13.3L16.41715728752538,13.3L17.91715728752538,11.8L19.5,11.8L19.5,12.2L18.08284271247462,12.2L16.58284271247462,13.7L10.41715728752538,13.7L8.91715728752538,12.2z" stroke="none"/></svg>