<svg version="1.1" width="30" height="15" xmlns="http://www.w3.org/2000/svg"><path d="M22.58284271247462,2.8L24.08284271247462,4.3L25.5,4.3L25.5,4.7L23.91715728752538,4.7L22.7,3.482842712474619L22.7,4.582842712474619L21.08284271247462,6.2L19.41715728752538,6.2L16.41715728752538,3.2L15,3.2L15,2.8L16.58284271247462,2.8L19.58284271247462,5.8L20.91715728752538,5.8L22.3,4.417157287525381L22.3,3.2L19.5,3.2L19.5,2.8z" stroke="none"/><path d="M17.8,10.3L17.8,8.91715728752538L19.35857864376269,7.358578643762691L19.64142135623731,7.641421356237309L18.2,9.08284271247462L18.2,10.41715728752538L19.58284271247462,11.8L21,11.8L21,12.2L19.41715728752538,12.2L18,10.782842712474618L16.58284271247462,12.2L15,12.2L15,11.8L16.41715728752538,11.8L17.517157287525382,10.7L16.41715728752538,10.7L14.91715728752538,9.2L13.41715728752538,9.2L11.85857864376269,7.641421356237309L12.14142135623731,7.358578643762691L13.58284271247462,8.8L15.08284271247462,8.8L16.58284271247462,10.3z" stroke="none"/><path d="M6.141421356237309,11.85857864376269L5.858578643762691,12.14142135623731L4.358578643762691,10.64142135623731L4.641421356237309,10.35857864376269z" stroke="none"/><path d="M22.7,12L22.3,12L22.3,10.41715728752538L23.85857864376269,8.85857864376269L24.14142135623731,9.14142135623731L22.7,10.58284271247462z" stroke="none"/><path d="M7.7,9L7.3,9L7.3,7.417157287525381L8.85857864376269,5.858578643762691L9.14142135623731,6.141421356237309L7.7,7.582842712474619z" stroke="none"/><path d="M5.858578643762691,2.8585786437626903L6.141421356237309,3.1414213562373097L3.1414213562373097,6.141421356237309L2.8585786437626903,5.858578643762691z" stroke="none"/><path d="M6.2,7.5L5.8,7.5L5.8,5.917157287525381L7.3,4.417157287525381L7.3,3L7.7,3L7.7,4.582842712474619L6.2,6.082842712474619z" stroke="none"/><path d="M8.8,10.5L9.2,10.5L9.2,12.08284271247462L7.582842712474619,13.7L4.417157287525381,13.7L2.8,12.08284271247462L2.8,10.5L3.2,10.5L3.2,11.91715728752538L4.582842712474619,13.3L7.417157287525381,13.3L8.8,11.91715728752538z" stroke="none"/><path d="M6,8.8L6,9.2L2.917157287525381,9.2L1.3,7.582842712474619L1.3,4.417157287525381L4.417157287525381,1.3L12.08284271247462,1.3L13.7,2.917157287525381L13.7,4.417157287525381L15.2,5.917157287525381L15.2,7.5L14.8,7.5L14.8,6.082842712474619L13.3,4.582842712474619L13.3,3.082842712474619L11.91715728752538,1.7L4.582842712474619,1.7L1.7,4.582842712474619L1.7,7.417157287525381L3.082842712474619,8.8z" stroke="none"/><path d="M11.85857864376269,4.358578643762691L12.14142135623731,4.641421356237309L10.7,6.082842712474619L10.7,8.91715728752538L12.2,10.41715728752538L12.2,11.91715728752538L13.58284271247462,13.3L23.91715728752538,13.3L25.3,11.91715728752538L25.3,7.582842712474619L23.85857864376269,6.141421356237309L24.14142135623731,5.858578643762691L25.7,7.417157287525381L25.7,12.08284271247462L24.08284271247462,13.7L13.41715728752538,13.7L11.8,12.08284271247462L11.8,10.58284271247462L10.3,9.08284271247462L10.3,5.917157287525381z" stroke="none"/></svg>