<svg version="1.1" width="30" height="15" xmlns="http://www.w3.org/2000/svg"><path d="M4.417157287525381,2.8L7.5,2.8L7.5,3.2L4.7,3.2L4.7,4.417157287525381L6.141421356237309,5.858578643762691L5.858578643762691,6.141421356237309L4.3,4.582842712474619L4.3,3.482842712474619L3.2,4.582842712474619L3.2,5.917157287525381L4.582842712474619,7.3L5.917157287525381,7.3L7.3,5.917157287525381L7.3,4.5L7.7,4.5L7.7,6.082842712474619L6.082842712474619,7.7L4.417157287525381,7.7L2.8,6.082842712474619L2.8,4.417157287525381z" stroke="none"/><path d="M20.8,10.3L20.8,8.91715728752538L22.35857864376269,7.358578643762691L22.64142135623731,7.641421356237309L21.2,9.08284271247462L21.2,10.3L25.5,10.3L25.5,10.7L21.2,10.7L21.2,12.08284271247462L19.58284271247462,13.7L16.41715728752538,13.7L13.3,10.58284271247462L13.3,6L13.7,6L13.7,10.41715728752538L16.58284271247462,13.3L19.41715728752538,13.3L20.8,11.91715728752538L20.8,10.7L18,10.7L18,10.3z" stroke="none"/><path d="M25.5,2.8L25.5,3.2L24,3.2L24,2.8z" stroke="none"/><path d="M12.2,6L11.8,6L11.8,4.5L12.2,4.5z" stroke="none"/><path d="M16.7,6L16.3,6L16.3,4.417157287525381L17.91715728752538,2.8L19.58284271247462,2.8L21.2,4.417157287525381L21.2,6L20.8,6L20.8,4.582842712474619L19.41715728752538,3.2L18.08284271247462,3.2L16.7,4.582842712474619z" stroke="none"/><path d="M4.5,10.7L4.5,10.3L6.082842712474619,10.3L7.582842712474619,11.8L9,11.8L9,12.2L7.417157287525381,12.2L5.917157287525381,10.7z" stroke="none"/><path d="M17.8,6L18.2,6L18.2,7.582842712474619L16.7,9.08284271247462L16.7,10.5L16.3,10.5L16.3,8.91715728752538L17.8,7.417157287525381z" stroke="none"/><path d="M4.5,9.2L4.5,8.8L7.417157287525381,8.8L8.85857864376269,7.358578643762691L9.14142135623731,7.641421356237309L7.582842712474619,9.2z" stroke="none"/><path d="M3.2,12L2.8,12L2.8,9.08284271247462L1.3,7.582842712474619L1.3,2.917157287525381L2.917157287525381,1.3L9.08284271247462,1.3L10.7,2.917157287525381L10.7,9.08284271247462L9.14142135623731,10.64142135623731L8.85857864376269,10.35857864376269L10.3,8.91715728752538L10.3,3.082842712474619L8.91715728752538,1.7L3.082842712474619,1.7L1.7,3.082842712474619L1.7,7.417157287525381L3.2,8.91715728752538z" stroke="none"/><path d="M24.2,9L23.8,9L23.8,6.082842712474619L22.3,4.582842712474619L22.3,3.082842712474619L20.91715728752538,1.7L16.58284271247462,1.7L15.2,3.082842712474619L15.2,6L14.8,6L14.8,2.917157287525381L16.41715728752538,1.3L21.08284271247462,1.3L22.7,2.917157287525381L22.7,4.417157287525381L24.2,5.917157287525381z" stroke="none"/></svg>