<svg version="1.1" width="105" height="15" xmlns="http://www.w3.org/2000/svg"><path d="M27,8.95L27,9.05L25.55,9.05L25.55,9.164285714285715L31.12142857142857,9.164285714285715L31.12142857142857,9.378571428571426L34.55,9.378571428571426L34.55,9.592857142857142L34.97857142857143,9.592857142857142L34.97857142857143,10.021428571428569L35.192857142857136,10.021428571428569L35.192857142857136,10.235714285714284L35.83571428571428,10.235714285714284L35.83571428571428,10.45L36,10.45L36,10.55L35.73571428571429,10.55L35.73571428571429,10.335714285714285L35.09285714285714,10.335714285714285L35.09285714285714,10.12142857142857L34.87857142857143,10.12142857142857L34.87857142857143,9.692857142857143L34.45,9.692857142857143L34.45,9.478571428571428L31.02142857142857,9.478571428571428L31.02142857142857,9.264285714285716L25.45,9.264285714285716L25.45,9.05L16.664285714285715,9.05L16.664285714285715,8.835714285714285L16.235714285714284,8.835714285714285L16.235714285714284,8.62142857142857L15.378571428571426,8.62142857142857L15.378571428571426,8.192857142857143L15.164285714285715,8.192857142857143L15.164285714285715,7.978571428571428L14.307142857142857,7.978571428571428L14.307142857142857,7.764285714285714L14.092857142857142,7.764285714285714L14.092857142857142,7.55L13.5,7.55L13.5,7.45L14.192857142857143,7.45L14.192857142857143,7.664285714285715L14.407142857142858,7.664285714285715L14.407142857142858,7.878571428571428L15.264285714285716,7.878571428571428L15.264285714285716,8.092857142857142L15.478571428571428,8.092857142857142L15.478571428571428,8.521428571428569L16.335714285714285,8.521428571428569L16.335714285714285,8.735714285714284L16.764285714285716,8.735714285714284L16.764285714285716,8.95z" stroke="none"/><path d="M43.45,6.807142857142857L43.45,6.5928571428571425L47.52142857142857,6.5928571428571425L47.52142857142857,6.164285714285715L47.95,6.164285714285715L47.95,6L48.05,6L48.05,6.264285714285714L47.62142857142857,6.264285714285714L47.62142857142857,6.692857142857142L43.55,6.692857142857142L43.55,6.807142857142857L43.97857142857143,6.807142857142857L43.97857142857143,7.021428571428571L44.192857142857136,7.021428571428571L44.192857142857136,7.235714285714286L44.40714285714285,7.235714285714286L44.40714285714285,7.45L45,7.45L45,7.55L44.30714285714286,7.55L44.30714285714286,7.335714285714285L44.09285714285714,7.335714285714285L44.09285714285714,7.121428571428571L43.87857142857143,7.121428571428571L43.87857142857143,6.907142857142857L40.33571428571428,6.907142857142857L40.33571428571428,7.121428571428571L37.97857142857143,7.121428571428571L37.97857142857143,7.335714285714285L37.55,7.335714285714285L37.55,7.5L37.45,7.5L37.45,7.235714285714286L37.87857142857143,7.235714285714286L37.87857142857143,7.021428571428571L40.23571428571429,7.021428571428571L40.23571428571429,6.807142857142857z" stroke="none"/><path d="M97.66428571428571,9.807142857142857L97.66428571428571,8.95L98.09285714285713,8.95L98.09285714285713,8.521428571428569L98.30714285714285,8.521428571428569L98.30714285714285,8.092857142857142L98.52142857142856,8.092857142857142L98.52142857142856,7.664285714285715L98.94999999999999,7.664285714285715L98.94999999999999,7.5L99.04999999999998,7.5L99.04999999999998,7.764285714285714L98.62142857142855,7.764285714285714L98.62142857142855,8.192857142857143L98.40714285714284,8.192857142857143L98.40714285714284,8.62142857142857L98.19285714285712,8.62142857142857L98.19285714285712,9.05L97.7642857142857,9.05L97.7642857142857,9.907142857142858L96.47857142857141,9.907142857142858L96.47857142857141,10.878571428571426L97.12142857142855,10.878571428571426L97.12142857142855,11.307142857142857L97.33571428571427,11.307142857142857L97.33571428571427,11.735714285714284L97.54999999999998,11.735714285714284L97.54999999999998,12L97.44999999999999,12L97.44999999999999,11.835714285714285L97.23571428571428,11.835714285714285L97.23571428571428,11.407142857142858L97.02142857142856,11.407142857142858L97.02142857142856,10.978571428571428L96.37857142857142,10.978571428571428L96.37857142857142,9.907142857142858L93.69285714285712,9.907142857142858L93.69285714285712,10.12142857142857L93.47857142857141,10.12142857142857L93.47857142857141,10.335714285714285L93.04999999999998,10.335714285714285L93.04999999999998,10.5L92.94999999999999,10.5L92.94999999999999,10.235714285714284L93.37857142857142,10.235714285714284L93.37857142857142,10.021428571428569L93.59285714285713,10.021428571428569L93.59285714285713,9.807142857142857z" stroke="none"/><path d="M75.16428571428571,3.3785714285714286L75.16428571428571,3.1642857142857146L75.37857142857142,3.1642857142857146L75.37857142857142,2.95L76.49999999999999,2.95L76.49999999999999,3.05L75.47857142857141,3.05L75.47857142857141,3.2642857142857142L75.2642857142857,3.2642857142857142L75.2642857142857,3.478571428571428L72.47857142857141,3.478571428571428L72.47857142857141,3.592857142857143L87.80714285714285,3.592857142857143L87.80714285714285,3.1642857142857146L88.02142857142856,3.1642857142857146L88.02142857142856,2.95L89.99999999999999,2.95L89.99999999999999,3.05L88.12142857142855,3.05L88.12142857142855,3.2642857142857142L87.90714285714284,3.2642857142857142L87.90714285714284,3.6928571428571426L72.37857142857142,3.6928571428571426L72.37857142857142,3.478571428571428L56.192857142857136,3.478571428571428L56.192857142857136,3.907142857142857L55.33571428571428,3.907142857142857L55.33571428571428,4.121428571428571L55.12142857142857,4.121428571428571L55.12142857142857,4.335714285714285L51.47857142857142,4.335714285714285L51.47857142857142,4.55L51,4.55L51,4.45L51.378571428571426,4.45L51.378571428571426,4.235714285714286L55.02142857142857,4.235714285714286L55.02142857142857,4.021428571428571L55.23571428571429,4.021428571428571L55.23571428571429,3.8071428571428574L56.09285714285714,3.8071428571428574L56.09285714285714,3.3785714285714286z" stroke="none"/><path d="M37.87857142857143,4.878571428571429L37.87857142857143,4.664285714285715L49.878571428571426,4.664285714285715L49.878571428571426,4.45L50.09285714285714,4.45L50.09285714285714,4.235714285714286L50.30714285714286,4.235714285714286L50.30714285714286,4.021428571428571L52.878571428571426,4.021428571428571L52.878571428571426,3.3785714285714286L53.09285714285714,3.3785714285714286L53.09285714285714,3.1642857142857146L53.30714285714286,3.1642857142857146L53.30714285714286,2.95L54,2.95L54,3.05L53.40714285714285,3.05L53.40714285714285,3.2642857142857142L53.192857142857136,3.2642857142857142L53.192857142857136,3.478571428571428L52.97857142857142,3.478571428571428L52.97857142857142,4.121428571428571L50.40714285714285,4.121428571428571L50.40714285714285,4.335714285714285L50.192857142857136,4.335714285714285L50.192857142857136,4.55L49.97857142857142,4.55L49.97857142857142,4.764285714285714L37.97857142857143,4.764285714285714L37.97857142857143,4.878571428571429L40.97857142857143,4.878571428571429L40.97857142857143,5.0928571428571425L42.47857142857143,5.0928571428571425L42.47857142857143,5.521428571428571L43.76428571428571,5.521428571428571L43.76428571428571,5.735714285714286L44.192857142857136,5.735714285714286L44.192857142857136,5.95L45,5.95L45,6.05L44.09285714285714,6.05L44.09285714285714,5.835714285714285L43.66428571428572,5.835714285714285L43.66428571428572,5.621428571428571L42.37857142857143,5.621428571428571L42.37857142857143,5.192857142857142L40.87857142857143,5.192857142857142L40.87857142857143,4.978571428571429L17.835714285714285,4.978571428571429L17.835714285714285,5.192857142857142L17.621428571428574,5.192857142857142L17.621428571428574,5.835714285714285L17.40714285714286,5.835714285714285L17.40714285714286,6.05L15,6.05L15,5.95L17.307142857142857,5.95L17.307142857142857,5.735714285714286L17.521428571428572,5.735714285714286L17.521428571428572,5.0928571428571425L17.735714285714284,5.0928571428571425L17.735714285714284,4.878571428571429z" stroke="none"/><path d="M69.80714285714285,4.664285714285715L69.80714285714285,4.55L64.87857142857142,4.55L64.87857142857142,4.121428571428571L62.40714285714285,4.121428571428571L62.40714285714285,4.335714285714285L61.55,4.335714285714285L61.55,4.5L61.45,4.5L61.45,4.235714285714286L62.30714285714286,4.235714285714286L62.30714285714286,4.021428571428571L64.97857142857141,4.021428571428571L64.97857142857141,4.45L69.90714285714284,4.45L69.90714285714284,4.664285714285715L70.23571428571428,4.664285714285715L70.23571428571428,4.45L70.49999999999999,4.45L70.49999999999999,4.55L70.33571428571427,4.55L70.33571428571427,4.764285714285714L69.90714285714284,4.764285714285714L69.90714285714284,4.878571428571429L84.59285714285714,4.878571428571429L84.59285714285714,4.45L85.49999999999999,4.45L85.49999999999999,4.55L84.69285714285714,4.55L84.69285714285714,4.978571428571429L69.80714285714285,4.978571428571429L69.80714285714285,4.764285714285714L66.90714285714284,4.764285714285714L66.90714285714284,4.978571428571429L64.12142857142857,4.978571428571429L64.12142857142857,5.192857142857142L63.90714285714285,5.192857142857142L63.90714285714285,5.407142857142857L63.692857142857136,5.407142857142857L63.692857142857136,5.621428571428571L63.47857142857142,5.621428571428571L63.47857142857142,5.835714285714285L63.26428571428571,5.835714285714285L63.26428571428571,6.05L63,6.05L63,5.95L63.16428571428572,5.95L63.16428571428572,5.735714285714286L63.378571428571426,5.735714285714286L63.378571428571426,5.521428571428571L63.59285714285714,5.521428571428571L63.59285714285714,5.307142857142857L63.80714285714286,5.307142857142857L63.80714285714286,5.0928571428571425L64.02142857142857,5.0928571428571425L64.02142857142857,4.878571428571429L66.80714285714285,4.878571428571429L66.80714285714285,4.664285714285715z" stroke="none"/><path d="M36.59285714285714,10.45L36.59285714285714,10.235714285714284L44.09285714285714,10.235714285714284L44.09285714285714,10.021428571428569L44.30714285714286,10.021428571428569L44.30714285714286,9.807142857142857L44.52142857142857,9.807142857142857L44.52142857142857,9.378571428571426L45.16428571428572,9.378571428571426L45.16428571428572,8.735714285714284L45.37857142857143,8.735714285714284L45.37857142857143,8.521428571428569L46.02142857142857,8.521428571428569L46.02142857142857,8.307142857142857L46.45,8.307142857142857L46.45,7.5L46.55,7.5L46.55,8.407142857142858L46.12142857142857,8.407142857142858L46.12142857142857,8.62142857142857L45.47857142857143,8.62142857142857L45.47857142857143,8.835714285714285L45.26428571428571,8.835714285714285L45.26428571428571,9.478571428571428L44.62142857142857,9.478571428571428L44.62142857142857,9.907142857142858L44.40714285714285,9.907142857142858L44.40714285714285,10.12142857142857L44.192857142857136,10.12142857142857L44.192857142857136,10.335714285714285L36.692857142857136,10.335714285714285L36.692857142857136,10.45L37.5,10.45L37.5,10.55L36.692857142857136,10.55L36.692857142857136,10.664285714285715L37.12142857142857,10.664285714285715L37.12142857142857,10.878571428571426L37.33571428571428,10.878571428571426L37.33571428571428,11.092857142857142L37.55,11.092857142857142L37.55,11.307142857142857L37.76428571428571,11.307142857142857L37.76428571428571,11.521428571428569L38.192857142857136,11.521428571428569L38.192857142857136,11.735714285714284L38.40714285714285,11.735714285714284L38.40714285714285,11.95L39,11.95L39,12.05L38.30714285714286,12.05L38.30714285714286,11.835714285714285L38.09285714285714,11.835714285714285L38.09285714285714,11.62142857142857L37.66428571428572,11.62142857142857L37.66428571428572,11.407142857142858L37.45,11.407142857142858L37.45,11.192857142857143L37.23571428571429,11.192857142857143L37.23571428571429,10.978571428571428L37.02142857142857,10.978571428571428L37.02142857142857,10.764285714285716L36.59285714285714,10.764285714285716L36.59285714285714,10.55L36.47857142857143,10.55L36.47857142857143,11.835714285714285L36.26428571428571,11.835714285714285L36.26428571428571,12.05L36.05,12.05L36.05,12.264285714285716L35.62142857142857,12.264285714285716L35.62142857142857,12.478571428571428L22.021428571428572,12.478571428571428L22.021428571428572,12.264285714285716L20.95,12.264285714285716L20.95,12L21.05,12L21.05,12.164285714285715L22.121428571428574,12.164285714285715L22.121428571428574,12.378571428571426L35.52142857142857,12.378571428571426L35.52142857142857,12.164285714285715L35.95,12.164285714285715L35.95,11.95L36.16428571428572,11.95L36.16428571428572,11.735714285714284L36.37857142857143,11.735714285714284L36.37857142857143,10.45z" stroke="none"/><path d="M77.09285714285714,8.95L77.09285714285714,8.835714285714285L76.23571428571428,8.835714285714285L76.23571428571428,8.62142857142857L75.59285714285714,8.62142857142857L75.59285714285714,8.407142857142858L74.52142857142856,8.407142857142858L74.52142857142856,7.978571428571428L74.30714285714285,7.978571428571428L74.30714285714285,7.764285714285714L74.09285714285714,7.764285714285714L74.09285714285714,7.55L73.66428571428571,7.55L73.66428571428571,7.335714285714285L73.12142857142855,7.335714285714285L73.12142857142855,7.55L71.62142857142855,7.55L71.62142857142855,7.764285714285714L71.40714285714284,7.764285714285714L71.40714285714284,7.978571428571428L66.04999999999998,7.978571428571428L66.04999999999998,8.407142857142858L65.62142857142855,8.407142857142858L65.62142857142855,8.62142857142857L65.40714285714284,8.62142857142857L65.40714285714284,9.05L65.19285714285714,9.05L65.19285714285714,9.478571428571428L64.97857142857141,9.478571428571428L64.97857142857141,9.907142857142858L63.47857142857142,9.907142857142858L63.47857142857142,10.12142857142857L63.26428571428571,10.12142857142857L63.26428571428571,10.55L63,10.55L63,10.45L63.16428571428572,10.45L63.16428571428572,10.021428571428569L63.378571428571426,10.021428571428569L63.378571428571426,9.807142857142857L64.87857142857142,9.807142857142857L64.87857142857142,9.378571428571426L65.09285714285714,9.378571428571426L65.09285714285714,8.95L65.30714285714285,8.95L65.30714285714285,8.521428571428569L65.52142857142856,8.521428571428569L65.52142857142856,8.307142857142857L65.94999999999999,8.307142857142857L65.94999999999999,7.878571428571428L71.30714285714285,7.878571428571428L71.30714285714285,7.664285714285715L71.52142857142856,7.664285714285715L71.52142857142856,7.45L73.02142857142856,7.45L73.02142857142856,7.235714285714286L73.7642857142857,7.235714285714286L73.7642857142857,7.45L74.19285714285714,7.45L74.19285714285714,7.664285714285715L74.40714285714284,7.664285714285715L74.40714285714284,7.878571428571428L74.62142857142855,7.878571428571428L74.62142857142855,8.307142857142857L75.69285714285714,8.307142857142857L75.69285714285714,8.521428571428569L76.33571428571427,8.521428571428569L76.33571428571427,8.735714285714284L77.19285714285714,8.735714285714284L77.19285714285714,8.95L77.52142857142856,8.95L77.52142857142856,8.521428571428569L81.16428571428571,8.521428571428569L81.16428571428571,8.307142857142857L81.37857142857142,8.307142857142857L81.37857142857142,8.092857142857142L81.59285714285714,8.092857142857142L81.59285714285714,7.878571428571428L83.09285714285714,7.878571428571428L83.09285714285714,7.45L83.99999999999999,7.45L83.99999999999999,7.55L83.19285714285714,7.55L83.19285714285714,7.978571428571428L81.69285714285714,7.978571428571428L81.69285714285714,8.192857142857143L81.47857142857141,8.192857142857143L81.47857142857141,8.407142857142858L81.2642857142857,8.407142857142858L81.2642857142857,8.62142857142857L77.62142857142855,8.62142857142857L77.62142857142855,9.05L77.19285714285714,9.05L77.19285714285714,9.164285714285715L77.62142857142855,9.164285714285715L77.62142857142855,9.378571428571426L87.2642857142857,9.378571428571426L87.2642857142857,9.592857142857142L87.69285714285714,9.592857142857142L87.69285714285714,9.807142857142857L87.90714285714284,9.807142857142857L87.90714285714284,10.235714285714284L88.12142857142855,10.235714285714284L88.12142857142855,10.45L88.49999999999999,10.45L88.49999999999999,10.55L88.02142857142856,10.55L88.02142857142856,10.335714285714285L87.80714285714285,10.335714285714285L87.80714285714285,9.907142857142858L87.59285714285714,9.907142857142858L87.59285714285714,9.692857142857143L87.16428571428571,9.692857142857143L87.16428571428571,9.478571428571428L77.52142857142856,9.478571428571428L77.52142857142856,9.264285714285716L77.09285714285714,9.264285714285716L77.09285714285714,9.05L75.80714285714285,9.05L75.80714285714285,8.835714285714285L75.37857142857142,8.835714285714285L75.37857142857142,8.62142857142857L74.30714285714285,8.62142857142857L74.30714285714285,8.192857142857143L74.09285714285714,8.192857142857143L74.09285714285714,7.978571428571428L73.66428571428571,7.978571428571428L73.66428571428571,7.764285714285714L73.44999999999999,7.764285714285714L73.44999999999999,7.5L73.54999999999998,7.5L73.54999999999998,7.664285714285715L73.7642857142857,7.664285714285715L73.7642857142857,7.878571428571428L74.19285714285714,7.878571428571428L74.19285714285714,8.092857142857142L74.40714285714284,8.092857142857142L74.40714285714284,8.521428571428569L75.47857142857141,8.521428571428569L75.47857142857141,8.735714285714284L75.90714285714284,8.735714285714284L75.90714285714284,8.95z" stroke="none"/><path d="M23.95,10.664285714285715L23.95,10.45L34.12142857142857,10.45L34.12142857142857,10.664285714285715L34.33571428571428,10.664285714285715L34.33571428571428,10.878571428571426L34.55,10.878571428571426L34.55,11.735714285714284L34.76428571428571,11.735714285714284L34.76428571428571,12.264285714285716L22.235714285714284,12.264285714285716L22.235714285714284,12.05L21.807142857142857,12.05L21.807142857142857,11.62142857142857L20.621428571428574,11.62142857142857L20.621428571428574,12.378571428571426L21.692857142857143,12.378571428571426L21.692857142857143,12.592857142857142L41.30714285714286,12.592857142857142L41.30714285714286,12.378571428571426L41.52142857142857,12.378571428571426L41.52142857142857,11.95L42,11.95L42,12.05L41.62142857142857,12.05L41.62142857142857,12.478571428571428L41.40714285714285,12.478571428571428L41.40714285714285,12.692857142857143L21.59285714285714,12.692857142857143L21.59285714285714,12.478571428571428L20.521428571428572,12.478571428571428L20.521428571428572,11.521428571428569L21.90714285714286,11.521428571428569L21.90714285714286,11.95L22.335714285714285,11.95L22.335714285714285,12.164285714285715L34.66428571428572,12.164285714285715L34.66428571428572,11.835714285714285L34.45,11.835714285714285L34.45,10.978571428571428L34.23571428571429,10.978571428571428L34.23571428571429,10.764285714285716L34.02142857142857,10.764285714285716L34.02142857142857,10.55L24.05,10.55L24.05,10.664285714285715L32.192857142857136,10.664285714285715L32.192857142857136,10.878571428571426L33.47857142857143,10.878571428571426L33.47857142857143,11.307142857142857L33.90714285714285,11.307142857142857L33.90714285714285,11.521428571428569L34.12142857142857,11.521428571428569L34.12142857142857,11.735714285714284L34.33571428571428,11.735714285714284L34.33571428571428,11.95L34.5,11.95L34.5,12.05L34.23571428571429,12.05L34.23571428571429,11.835714285714285L34.02142857142857,11.835714285714285L34.02142857142857,11.62142857142857L33.80714285714286,11.62142857142857L33.80714285714286,11.407142857142858L33.37857142857143,11.407142857142858L33.37857142857143,10.978571428571428L32.09285714285714,10.978571428571428L32.09285714285714,10.764285714285716L24.05,10.764285714285716L24.05,10.978571428571428L9.378571428571426,10.978571428571428L9.378571428571426,10.764285714285716L8.307142857142857,10.764285714285716L8.307142857142857,10.55L6,10.55L6,10.45L8.407142857142858,10.45L8.407142857142858,10.664285714285715L9.478571428571428,10.664285714285715L9.478571428571428,10.878571428571426L23.95,10.878571428571426L23.95,10.764285714285716L17.521428571428572,10.764285714285716L17.521428571428572,10.335714285714285L17.307142857142857,10.335714285714285L17.307142857142857,10.12142857142857L14.521428571428569,10.12142857142857L14.521428571428569,9.907142857142858L14.307142857142857,9.907142857142858L14.307142857142857,9.264285714285716L13.45,9.264285714285716L13.45,9L13.55,9L13.55,9.164285714285715L14.407142857142858,9.164285714285715L14.407142857142858,9.807142857142857L14.62142857142857,9.807142857142857L14.62142857142857,10.021428571428569L17.40714285714286,10.021428571428569L17.40714285714286,10.235714285714284L17.621428571428574,10.235714285714284L17.621428571428574,10.664285714285715z" stroke="none"/><path d="M77.52142857142856,5.521428571428571L77.52142857142856,5.307142857142857L87.59285714285714,5.307142857142857L87.59285714285714,4.878571428571429L88.02142857142856,4.878571428571429L88.02142857142856,4.235714285714286L91.97857142857141,4.235714285714286L91.97857142857141,4.878571428571429L92.62142857142855,4.878571428571429L92.62142857142855,5.0928571428571425L92.83571428571427,5.0928571428571425L92.83571428571427,5.307142857142857L93.47857142857141,5.307142857142857L93.47857142857141,6.5928571428571425L93.69285714285712,6.5928571428571425L93.69285714285712,6.807142857142857L93.90714285714284,6.807142857142857L93.90714285714284,7.235714285714286L94.12142857142855,7.235714285714286L94.12142857142855,7.45L94.49999999999999,7.45L94.49999999999999,7.55L94.02142857142856,7.55L94.02142857142856,7.335714285714285L93.80714285714285,7.335714285714285L93.80714285714285,6.907142857142857L93.59285714285713,6.907142857142857L93.59285714285713,6.692857142857142L93.37857142857142,6.692857142857142L93.37857142857142,5.407142857142857L92.73571428571428,5.407142857142857L92.73571428571428,5.192857142857142L92.52142857142856,5.192857142857142L92.52142857142856,4.978571428571429L91.87857142857142,4.978571428571429L91.87857142857142,4.335714285714285L88.12142857142855,4.335714285714285L88.12142857142855,4.978571428571429L87.69285714285714,4.978571428571429L87.69285714285714,5.407142857142857L77.62142857142855,5.407142857142857L77.62142857142855,5.521428571428571L88.02142857142856,5.521428571428571L88.02142857142856,5.307142857142857L88.44999999999999,5.307142857142857L88.44999999999999,5.0928571428571425L88.66428571428571,5.0928571428571425L88.66428571428571,4.878571428571429L89.09285714285714,4.878571428571429L89.09285714285714,4.664285714285715L89.30714285714285,4.664285714285715L89.30714285714285,4.45L89.99999999999999,4.45L89.99999999999999,4.55L89.40714285714284,4.55L89.40714285714284,4.764285714285714L89.19285714285714,4.764285714285714L89.19285714285714,4.978571428571429L88.7642857142857,4.978571428571429L88.7642857142857,5.192857142857142L88.54999999999998,5.192857142857142L88.54999999999998,5.407142857142857L88.12142857142855,5.407142857142857L88.12142857142855,5.621428571428571L77.62142857142855,5.621428571428571L77.62142857142855,5.835714285714285L64.54999999999998,5.835714285714285L64.54999999999998,6.05L64.33571428571427,6.05L64.33571428571427,6.264285714285714L63.90714285714285,6.264285714285714L63.90714285714285,6.478571428571428L63.692857142857136,6.478571428571428L63.692857142857136,6.692857142857142L61.66428571428572,6.692857142857142L61.66428571428572,6.264285714285714L61.45,6.264285714285714L61.45,6L61.55,6L61.55,6.164285714285715L61.76428571428571,6.164285714285715L61.76428571428571,6.5928571428571425L63.59285714285714,6.5928571428571425L63.59285714285714,6.378571428571428L63.80714285714286,6.378571428571428L63.80714285714286,6.164285714285715L64.23571428571428,6.164285714285715L64.23571428571428,5.95L64.44999999999999,5.95L64.44999999999999,5.735714285714286L77.52142857142856,5.735714285714286L77.52142857142856,5.621428571428571L64.33571428571427,5.621428571428571L64.33571428571427,5.835714285714285L64.12142857142857,5.835714285714285L64.12142857142857,6.05L63.692857142857136,6.05L63.692857142857136,6.264285714285714L63.47857142857142,6.264285714285714L63.47857142857142,6.478571428571428L62.52142857142857,6.478571428571428L62.52142857142857,5.521428571428571L62.73571428571429,5.521428571428571L62.73571428571429,5.0928571428571425L63.378571428571426,5.0928571428571425L63.378571428571426,4.664285714285715L64.02142857142857,4.664285714285715L64.02142857142857,4.45L64.49999999999999,4.45L64.49999999999999,4.55L64.12142857142857,4.55L64.12142857142857,4.764285714285714L63.47857142857142,4.764285714285714L63.47857142857142,5.192857142857142L62.83571428571428,5.192857142857142L62.83571428571428,5.621428571428571L62.62142857142857,5.621428571428571L62.62142857142857,6.378571428571428L63.378571428571426,6.378571428571428L63.378571428571426,6.164285714285715L63.59285714285714,6.164285714285715L63.59285714285714,5.95L64.02142857142857,5.95L64.02142857142857,5.735714285714286L64.23571428571428,5.735714285714286L64.23571428571428,5.521428571428571z" stroke="none"/><path d="M90.04999999999998,12L89.94999999999999,12L89.94999999999999,10.5L90.04999999999998,10.5z" stroke="none"/><path d="M4.45,9L4.55,9L4.55,10.5L4.45,10.5z" stroke="none"/><path d="M55.5,10.45L55.5,10.55L54.80714285714286,10.55L54.80714285714286,10.335714285714285L54.378571428571426,10.335714285714285L54.378571428571426,9.907142857142858L54.16428571428572,9.907142857142858L54.16428571428572,9.264285714285716L53.95,9.264285714285716L53.95,9L54.05,9L54.05,9.164285714285715L54.26428571428571,9.164285714285715L54.26428571428571,9.807142857142857L54.47857142857142,9.807142857142857L54.47857142857142,10.235714285714284L54.90714285714285,10.235714285714284L54.90714285714285,10.45z" stroke="none"/><path d="M89.99999999999999,6.05L89.99999999999999,5.95L90.80714285714285,5.95L90.80714285714285,5.735714285714286L91.02142857142856,5.735714285714286L91.02142857142856,5.521428571428571L92.40714285714284,5.521428571428571L92.40714285714284,5.735714285714286L92.83571428571427,5.735714285714286L92.83571428571427,5.95L92.99999999999999,5.95L92.99999999999999,6.05L92.73571428571428,6.05L92.73571428571428,5.835714285714285L92.30714285714285,5.835714285714285L92.30714285714285,5.621428571428571L91.12142857142855,5.621428571428571L91.12142857142855,5.835714285714285L90.90714285714284,5.835714285714285L90.90714285714284,6.05z" stroke="none"/><path d="M56.95,9L57.05,9L57.05,11.092857142857142L57.692857142857136,11.092857142857142L57.692857142857136,11.521428571428569L57.90714285714285,11.521428571428569L57.90714285714285,11.95L58.5,11.95L58.5,12.05L57.80714285714286,12.05L57.80714285714286,11.62142857142857L57.59285714285714,11.62142857142857L57.59285714285714,11.192857142857143L56.95,11.192857142857143z" stroke="none"/><path d="M27,3.05L27,2.95L28.55,2.95L28.55,3.1642857142857146L28.764285714285716,3.1642857142857146L28.764285714285716,3.3785714285714286L29.40714285714286,3.3785714285714286L29.40714285714286,3.592857142857143L29.62142857142857,3.592857142857143L29.62142857142857,3.8071428571428574L29.835714285714285,3.8071428571428574L29.835714285714285,4.45L30,4.45L30,4.55L29.735714285714284,4.55L29.735714285714284,3.907142857142857L29.52142857142857,3.907142857142857L29.52142857142857,3.6928571428571426L29.307142857142857,3.6928571428571426L29.307142857142857,3.478571428571428L28.664285714285715,3.478571428571428L28.664285714285715,3.2642857142857142L28.45,3.2642857142857142L28.45,3.05z" stroke="none"/><path d="M36,4.45L36,4.55L31.45,4.55L31.45,4.335714285714285L30.807142857142857,4.335714285714285L30.807142857142857,4.121428571428571L30.378571428571426,4.121428571428571L30.378571428571426,3.478571428571428L29.95,3.478571428571428L29.95,3.2642857142857142L29.09285714285714,3.2642857142857142L29.09285714285714,3.05L28.664285714285715,3.05L28.664285714285715,2.8357142857142854L27.378571428571426,2.8357142857142854L27.378571428571426,2.6214285714285714L20.40714285714286,2.6214285714285714L20.40714285714286,3.05L20.192857142857143,3.05L20.192857142857143,3.478571428571428L19.764285714285716,3.478571428571428L19.764285714285716,4.121428571428571L19.55,4.121428571428571L19.55,4.335714285714285L18.478571428571428,4.335714285714285L18.478571428571428,4.55L17.835714285714285,4.55L17.835714285714285,4.764285714285714L16.764285714285716,4.764285714285714L16.764285714285716,4.978571428571429L14.62142857142857,4.978571428571429L14.62142857142857,6.378571428571428L32.192857142857136,6.378571428571428L32.192857142857136,6.5928571428571425L32.40714285714285,6.5928571428571425L32.40714285714285,7.021428571428571L32.83571428571428,7.021428571428571L32.83571428571428,7.235714285714286L33.05,7.235714285714286L33.05,7.5L32.95,7.5L32.95,7.335714285714285L32.73571428571429,7.335714285714285L32.73571428571429,7.121428571428571L32.30714285714286,7.121428571428571L32.30714285714286,6.692857142857142L32.09285714285714,6.692857142857142L32.09285714285714,6.478571428571428L14.521428571428569,6.478571428571428L14.521428571428569,4.878571428571429L16.664285714285715,4.878571428571429L16.664285714285715,4.664285714285715L17.735714285714284,4.664285714285715L17.735714285714284,4.45L18.378571428571426,4.45L18.378571428571426,4.235714285714286L19.45,4.235714285714286L19.45,4.021428571428571L19.664285714285715,4.021428571428571L19.664285714285715,3.3785714285714286L20.09285714285714,3.3785714285714286L20.09285714285714,2.95L20.307142857142857,2.95L20.307142857142857,2.521428571428572L27.478571428571428,2.521428571428572L27.478571428571428,2.7357142857142858L28.764285714285716,2.7357142857142858L28.764285714285716,2.95L29.192857142857143,2.95L29.192857142857143,3.1642857142857146L30.05,3.1642857142857146L30.05,3.3785714285714286L30.478571428571428,3.3785714285714286L30.478571428571428,4.021428571428571L30.90714285714286,4.021428571428571L30.90714285714286,4.235714285714286L31.55,4.235714285714286L31.55,4.45z" stroke="none"/><path d="M64.49999999999999,7.45L64.49999999999999,7.55L63.59285714285714,7.55L63.59285714285714,7.335714285714285L63.378571428571426,7.335714285714285L63.378571428571426,7.121428571428571L61.33571428571428,7.121428571428571L61.33571428571428,7.55L60,7.55L60,7.45L61.23571428571429,7.45L61.23571428571429,7.021428571428571L63.47857142857142,7.021428571428571L63.47857142857142,7.235714285714286L63.692857142857136,7.235714285714286L63.692857142857136,7.45z" stroke="none"/><path d="M11.95,3L12.05,3L12.05,7.5L11.95,7.5z" stroke="none"/><path d="M6.05,12L5.95,12L5.95,11.192857142857143L5.521428571428571,11.192857142857143L5.521428571428571,10.021428571428569L10.335714285714285,10.021428571428569L10.335714285714285,10.45L10.5,10.45L10.5,10.55L10.235714285714284,10.55L10.235714285714284,10.12142857142857L5.621428571428571,10.12142857142857L5.621428571428571,11.092857142857142L6.05,11.092857142857142z" stroke="none"/><path d="M94.49999999999999,3.05L94.49999999999999,2.95L97.33571428571427,2.95L97.33571428571427,3.1642857142857146L97.54999999999998,3.1642857142857146L97.54999999999998,3.592857142857143L97.7642857142857,3.592857142857143L97.7642857142857,3.8071428571428574L98.40714285714284,3.8071428571428574L98.40714285714284,4.235714285714286L98.62142857142855,4.235714285714286L98.62142857142855,4.45L98.99999999999999,4.45L98.99999999999999,4.55L98.52142857142856,4.55L98.52142857142856,4.335714285714285L98.30714285714285,4.335714285714285L98.30714285714285,3.907142857142857L97.66428571428571,3.907142857142857L97.66428571428571,3.6928571428571426L97.44999999999999,3.6928571428571426L97.44999999999999,3.2642857142857142L97.23571428571428,3.2642857142857142L97.23571428571428,3.05z" stroke="none"/><path d="M65.99999999999999,10.55L65.99999999999999,10.45L66.47857142857141,10.45L66.47857142857141,10.664285714285715L67.12142857142855,10.664285714285715L67.12142857142855,10.878571428571426L68.19285714285714,10.878571428571426L68.19285714285714,11.092857142857142L69.04999999999998,11.092857142857142L69.04999999999998,11.521428571428569L69.2642857142857,11.521428571428569L69.2642857142857,11.735714285714284L70.33571428571427,11.735714285714284L70.33571428571427,11.95L70.49999999999999,11.95L70.49999999999999,12.05L70.23571428571428,12.05L70.23571428571428,11.835714285714285L69.16428571428571,11.835714285714285L69.16428571428571,11.62142857142857L68.94999999999999,11.62142857142857L68.94999999999999,11.192857142857143L68.09285714285714,11.192857142857143L68.09285714285714,10.978571428571428L67.02142857142856,10.978571428571428L67.02142857142856,10.764285714285716L66.37857142857142,10.764285714285716L66.37857142857142,10.55z" stroke="none"/><path d="M6,7.55L6,7.45L8.307142857142857,7.45L8.307142857142857,7.021428571428571L9.378571428571426,7.021428571428571L9.378571428571426,6.807142857142857L9.592857142857142,6.807142857142857L9.592857142857142,6.5928571428571425L9.807142857142857,6.5928571428571425L9.807142857142857,6.378571428571428L10.235714285714284,6.378571428571428L10.235714285714284,5.95L10.5,5.95L10.5,6.05L10.335714285714285,6.05L10.335714285714285,6.478571428571428L9.907142857142858,6.478571428571428L9.907142857142858,6.692857142857142L9.692857142857143,6.692857142857142L9.692857142857143,6.907142857142857L9.478571428571428,6.907142857142857L9.478571428571428,7.121428571428571L8.407142857142858,7.121428571428571L8.407142857142858,7.55z" stroke="none"/><path d="M80.99999999999999,7.55L80.99999999999999,7.45L82.87857142857142,7.45L82.87857142857142,7.021428571428571L86.40714285714284,7.021428571428571L86.40714285714284,7.235714285714286L86.62142857142855,7.235714285714286L86.62142857142855,7.664285714285715L87.04999999999998,7.664285714285715L87.04999999999998,7.878571428571428L87.2642857142857,7.878571428571428L87.2642857142857,8.092857142857142L87.69285714285714,8.092857142857142L87.69285714285714,8.307142857142857L87.90714285714284,8.307142857142857L87.90714285714284,8.521428571428569L88.12142857142855,8.521428571428569L88.12142857142855,8.735714285714284L88.33571428571427,8.735714285714284L88.33571428571427,9.807142857142857L88.7642857142857,9.807142857142857L88.7642857142857,10.021428571428569L88.97857142857141,10.021428571428569L88.97857142857141,10.978571428571428L85.97857142857141,10.978571428571428L85.97857142857141,11.192857142857143L85.54999999999998,11.192857142857143L85.54999999999998,11.407142857142858L85.12142857142855,11.407142857142858L85.12142857142855,11.62142857142857L84.69285714285714,11.62142857142857L84.69285714285714,11.835714285714285L84.47857142857141,11.835714285714285L84.47857142857141,12.05L83.99999999999999,12.05L83.99999999999999,11.95L84.37857142857142,11.95L84.37857142857142,11.735714285714284L84.59285714285714,11.735714285714284L84.59285714285714,11.521428571428569L85.02142857142856,11.521428571428569L85.02142857142856,11.307142857142857L85.44999999999999,11.307142857142857L85.44999999999999,11.092857142857142L85.87857142857142,11.092857142857142L85.87857142857142,10.878571428571426L88.87857142857142,10.878571428571426L88.87857142857142,10.12142857142857L88.66428571428571,10.12142857142857L88.66428571428571,9.907142857142858L88.23571428571428,9.907142857142858L88.23571428571428,8.835714285714285L88.02142857142856,8.835714285714285L88.02142857142856,8.62142857142857L87.80714285714285,8.62142857142857L87.80714285714285,8.407142857142858L87.59285714285714,8.407142857142858L87.59285714285714,8.192857142857143L87.16428571428571,8.192857142857143L87.16428571428571,7.978571428571428L86.94999999999999,7.978571428571428L86.94999999999999,7.764285714285714L86.52142857142856,7.764285714285714L86.52142857142856,7.335714285714285L86.30714285714285,7.335714285714285L86.30714285714285,7.121428571428571L82.97857142857141,7.121428571428571L82.97857142857141,7.55z" stroke="none"/><path d="M91.49999999999999,11.95L91.49999999999999,12.05L91.33571428571427,12.05L91.33571428571427,12.478571428571428L83.52142857142856,12.478571428571428L83.52142857142856,11.521428571428569L84.37857142857142,11.521428571428569L84.37857142857142,11.307142857142857L84.59285714285714,11.307142857142857L84.59285714285714,11.092857142857142L85.02142857142856,11.092857142857142L85.02142857142856,10.45L85.49999999999999,10.45L85.49999999999999,10.55L85.12142857142855,10.55L85.12142857142855,11.192857142857143L84.69285714285714,11.192857142857143L84.69285714285714,11.407142857142858L84.47857142857141,11.407142857142858L84.47857142857141,11.62142857142857L83.62142857142855,11.62142857142857L83.62142857142855,12.378571428571426L91.23571428571428,12.378571428571426L91.23571428571428,11.95z" stroke="none"/><path d="M79.49999999999999,11.95L79.49999999999999,12.05L77.73571428571428,12.05L77.73571428571428,11.62142857142857L76.02142857142856,11.62142857142857L76.02142857142856,11.192857142857143L74.94999999999999,11.192857142857143L74.94999999999999,10.978571428571428L74.52142857142856,10.978571428571428L74.52142857142856,9.907142857142858L74.30714285714285,9.907142857142858L74.30714285714285,9.692857142857143L73.66428571428571,9.692857142857143L73.66428571428571,9.264285714285716L73.44999999999999,9.264285714285716L73.44999999999999,9L73.54999999999998,9L73.54999999999998,9.164285714285715L73.7642857142857,9.164285714285715L73.7642857142857,9.592857142857142L74.40714285714284,9.592857142857142L74.40714285714284,9.807142857142857L74.62142857142855,9.807142857142857L74.62142857142855,10.878571428571426L75.04999999999998,10.878571428571426L75.04999999999998,11.092857142857142L76.12142857142855,11.092857142857142L76.12142857142855,11.521428571428569L77.83571428571427,11.521428571428569L77.83571428571427,11.95z" stroke="none"/><path d="M77.99999999999999,9.05L77.99999999999999,8.95L85.49999999999999,8.95L85.49999999999999,9.05z" stroke="none"/><path d="M9,7.55L9,7.45L9.807142857142857,7.45L9.807142857142857,7.235714285714286L10.878571428571426,7.235714285714286L10.878571428571426,4.021428571428571L11.092857142857142,4.021428571428571L11.092857142857142,3.8071428571428574L11.307142857142857,3.8071428571428574L11.307142857142857,2.95L11.521428571428569,2.95L11.521428571428569,2.521428571428572L15.05,2.521428571428572L15.05,2.7357142857142858L16.335714285714285,2.7357142857142858L16.335714285714285,2.95L16.5,2.95L16.5,3.05L16.235714285714284,3.05L16.235714285714284,2.8357142857142854L14.95,2.8357142857142854L14.95,2.6214285714285714L11.62142857142857,2.6214285714285714L11.62142857142857,3.05L11.407142857142858,3.05L11.407142857142858,3.907142857142857L11.192857142857143,3.907142857142857L11.192857142857143,4.121428571428571L10.978571428571428,4.121428571428571L10.978571428571428,7.335714285714285L9.907142857142858,7.335714285714285L9.907142857142858,7.55z" stroke="none"/><path d="M100.44999999999999,3L100.54999999999998,3L100.54999999999998,4.335714285714285L99.90714285714284,4.335714285714285L99.90714285714284,4.55L99.69285714285712,4.55L99.69285714285712,4.978571428571429L97.12142857142855,4.978571428571429L97.12142857142855,5.835714285714285L96.90714285714284,5.835714285714285L96.90714285714284,6.478571428571428L96.69285714285712,6.478571428571428L96.69285714285712,6.692857142857142L96.47857142857141,6.692857142857142L96.47857142857141,7.335714285714285L95.40714285714284,7.335714285714285L95.40714285714284,7.764285714285714L94.97857142857141,7.764285714285714L94.97857142857141,7.978571428571428L94.02142857142856,7.978571428571428L94.02142857142856,7.764285714285714L92.30714285714285,7.764285714285714L92.30714285714285,7.121428571428571L92.09285714285713,7.121428571428571L92.09285714285713,6.692857142857142L91.87857142857142,6.692857142857142L91.87857142857142,6.478571428571428L91.66428571428571,6.478571428571428L91.66428571428571,6.05L91.49999999999999,6.05L91.49999999999999,5.95L91.7642857142857,5.95L91.7642857142857,6.378571428571428L91.97857142857141,6.378571428571428L91.97857142857141,6.5928571428571425L92.19285714285712,6.5928571428571425L92.19285714285712,7.021428571428571L92.40714285714284,7.021428571428571L92.40714285714284,7.664285714285715L94.12142857142855,7.664285714285715L94.12142857142855,7.878571428571428L94.87857142857142,7.878571428571428L94.87857142857142,7.664285714285715L95.30714285714285,7.664285714285715L95.30714285714285,7.235714285714286L96.37857142857142,7.235714285714286L96.37857142857142,6.5928571428571425L96.59285714285713,6.5928571428571425L96.59285714285713,6.378571428571428L96.80714285714285,6.378571428571428L96.80714285714285,5.735714285714286L97.02142857142856,5.735714285714286L97.02142857142856,4.878571428571429L99.59285714285713,4.878571428571429L99.59285714285713,4.45L99.80714285714285,4.45L99.80714285714285,4.235714285714286L100.44999999999999,4.235714285714286z" stroke="none"/><path d="M13.55,10.5L13.45,10.5L13.45,10.335714285714285L10.878571428571426,10.335714285714285L10.878571428571426,9.907142857142858L5.407142857142857,9.907142857142858L5.407142857142857,10.764285714285716L4.978571428571429,10.764285714285716L4.978571428571429,10.978571428571428L2.95,10.978571428571428L2.95,10.5L3.05,10.5L3.05,10.878571428571426L4.878571428571429,10.878571428571426L4.878571428571429,10.664285714285715L5.307142857142857,10.664285714285715L5.307142857142857,9.807142857142857L10.978571428571428,9.807142857142857L10.978571428571428,10.235714285714284L13.55,10.235714285714284z" stroke="none"/><path d="M39,3.05L39,2.95L49.5,2.95L49.5,3.05z" stroke="none"/><path d="M74.99999999999999,8.95L74.99999999999999,9.05L74.09285714285714,9.05L74.09285714285714,8.835714285714285L73.87857142857142,8.835714285714285L73.87857142857142,8.62142857142857L72.69285714285714,8.62142857142857L72.69285714285714,9.264285714285716L67.97857142857141,9.264285714285716L67.97857142857141,9.478571428571428L66.90714285714284,9.478571428571428L66.90714285714284,9.907142857142858L66.04999999999998,9.907142857142858L66.04999999999998,10.12142857142857L65.19285714285714,10.12142857142857L65.19285714285714,10.335714285714285L64.54999999999998,10.335714285714285L64.54999999999998,10.5L64.44999999999999,10.5L64.44999999999999,10.235714285714284L65.09285714285714,10.235714285714284L65.09285714285714,10.021428571428569L65.94999999999999,10.021428571428569L65.94999999999999,9.807142857142857L66.80714285714285,9.807142857142857L66.80714285714285,9.378571428571426L67.87857142857142,9.378571428571426L67.87857142857142,9.164285714285715L72.59285714285714,9.164285714285715L72.59285714285714,8.521428571428569L73.97857142857141,8.521428571428569L73.97857142857141,8.735714285714284L74.19285714285714,8.735714285714284L74.19285714285714,8.95z" stroke="none"/><path d="M40.5,9.05L40.5,8.95L44.73571428571429,8.95L44.73571428571429,8.521428571428569L45.16428571428572,8.521428571428569L45.16428571428572,8.307142857142857L45.59285714285714,8.307142857142857L45.59285714285714,7.878571428571428L45.80714285714286,7.878571428571428L45.80714285714286,7.021428571428571L46.97857142857142,7.021428571428571L46.97857142857142,9.592857142857142L47.40714285714285,9.592857142857142L47.40714285714285,10.021428571428569L47.62142857142857,10.021428571428569L47.62142857142857,10.235714285714284L47.83571428571428,10.235714285714284L47.83571428571428,10.45L48.05,10.45L48.05,10.664285714285715L48.26428571428571,10.664285714285715L48.26428571428571,11.307142857142857L48.692857142857136,11.307142857142857L48.692857142857136,11.521428571428569L49.33571428571428,11.521428571428569L49.33571428571428,11.95L52.5,11.95L52.5,12.05L49.23571428571429,12.05L49.23571428571429,11.62142857142857L48.59285714285714,11.62142857142857L48.59285714285714,11.407142857142858L48.16428571428572,11.407142857142858L48.16428571428572,10.764285714285716L47.95,10.764285714285716L47.95,10.55L47.73571428571429,10.55L47.73571428571429,10.335714285714285L47.52142857142857,10.335714285714285L47.52142857142857,10.12142857142857L47.30714285714286,10.12142857142857L47.30714285714286,9.692857142857143L46.878571428571426,9.692857142857143L46.878571428571426,7.121428571428571L45.90714285714285,7.121428571428571L45.90714285714285,7.978571428571428L45.692857142857136,7.978571428571428L45.692857142857136,8.407142857142858L45.26428571428571,8.407142857142858L45.26428571428571,8.62142857142857L44.83571428571428,8.62142857142857L44.83571428571428,9.05z" stroke="none"/><path d="M94.49999999999999,10.45L94.49999999999999,10.55L94.12142857142855,10.55L94.12142857142855,10.764285714285716L93.69285714285712,10.764285714285716L93.69285714285712,10.978571428571428L92.62142857142855,10.978571428571428L92.62142857142855,11.407142857142858L92.40714285714284,11.407142857142858L92.40714285714284,11.62142857142857L92.19285714285712,11.62142857142857L92.19285714285712,11.835714285714285L91.97857142857141,11.835714285714285L91.97857142857141,12.478571428571428L91.7642857142857,12.478571428571428L91.7642857142857,12.692857142857143L82.02142857142856,12.692857142857143L82.02142857142856,11.835714285714285L81.37857142857142,11.835714285714285L81.37857142857142,10.55L80.99999999999999,10.55L80.99999999999999,10.45L81.47857142857141,10.45L81.47857142857141,11.735714285714284L82.12142857142855,11.735714285714284L82.12142857142855,12.592857142857142L91.66428571428571,12.592857142857142L91.66428571428571,12.378571428571426L91.87857142857142,12.378571428571426L91.87857142857142,11.735714285714284L92.09285714285713,11.735714285714284L92.09285714285713,11.521428571428569L92.30714285714285,11.521428571428569L92.30714285714285,11.307142857142857L92.52142857142856,11.307142857142857L92.52142857142856,10.878571428571426L93.59285714285713,10.878571428571426L93.59285714285713,10.664285714285715L94.02142857142856,10.664285714285715L94.02142857142856,10.45z" stroke="none"/><path d="M74.99999999999999,11.95L74.99999999999999,12.05L71.19285714285714,12.05L71.19285714285714,12.264285714285716L70.97857142857141,12.264285714285716L70.97857142857141,12.478571428571428L63.59285714285714,12.478571428571428L63.59285714285714,12.264285714285716L62.95,12.264285714285716L62.95,11.407142857142858L62.52142857142857,11.407142857142858L62.52142857142857,11.192857142857143L61.66428571428572,11.192857142857143L61.66428571428572,10.764285714285716L61.45,10.764285714285716L61.45,10.5L61.55,10.5L61.55,10.664285714285715L61.76428571428571,10.664285714285715L61.76428571428571,11.092857142857142L62.62142857142857,11.092857142857142L62.62142857142857,11.307142857142857L63.05,11.307142857142857L63.05,12.164285714285715L63.692857142857136,12.164285714285715L63.692857142857136,12.378571428571426L70.87857142857142,12.378571428571426L70.87857142857142,12.164285714285715L71.09285714285714,12.164285714285715L71.09285714285714,11.95z" stroke="none"/><path d="M63,4.45L63,4.55L62.40714285714285,4.55L62.40714285714285,4.764285714285714L62.192857142857136,4.764285714285714L62.192857142857136,4.978571428571429L61.55,4.978571428571429L61.55,5.621428571428571L61.12142857142857,5.621428571428571L61.12142857142857,6.807142857142857L79.87857142857142,6.807142857142857L79.87857142857142,6.5928571428571425L80.73571428571428,6.5928571428571425L80.73571428571428,6.164285714285715L80.94999999999999,6.164285714285715L80.94999999999999,6L81.04999999999998,6L81.04999999999998,6.264285714285714L80.83571428571427,6.264285714285714L80.83571428571427,6.692857142857142L79.97857142857141,6.692857142857142L79.97857142857141,6.907142857142857L61.02142857142857,6.907142857142857L61.02142857142857,5.521428571428571L61.45,5.521428571428571L61.45,4.878571428571429L62.09285714285714,4.878571428571429L62.09285714285714,4.664285714285715L62.30714285714286,4.664285714285715L62.30714285714286,4.45z" stroke="none"/><path d="M36,7.45L36,7.55L34.97857142857143,7.55L34.97857142857143,7.764285714285714L33.692857142857136,7.764285714285714L33.692857142857136,7.978571428571428L15.807142857142857,7.978571428571428L15.807142857142857,7.764285714285714L14.521428571428569,7.764285714285714L14.521428571428569,7.55L14.307142857142857,7.55L14.307142857142857,7.335714285714285L13.878571428571426,7.335714285714285L13.878571428571426,7.121428571428571L13.12142857142857,7.121428571428571L13.12142857142857,9.378571428571426L13.55,9.378571428571426L13.55,9.592857142857142L13.978571428571428,9.592857142857142L13.978571428571428,10.021428571428569L14.407142857142858,10.021428571428569L14.407142857142858,10.235714285714284L16.12142857142857,10.235714285714284L16.12142857142857,10.45L16.5,10.45L16.5,10.55L16.02142857142857,10.55L16.02142857142857,10.335714285714285L14.307142857142857,10.335714285714285L14.307142857142857,10.12142857142857L13.878571428571426,10.12142857142857L13.878571428571426,9.692857142857143L13.45,9.692857142857143L13.45,9.478571428571428L13.021428571428569,9.478571428571428L13.021428571428569,7.021428571428571L13.978571428571428,7.021428571428571L13.978571428571428,7.235714285714286L14.407142857142858,7.235714285714286L14.407142857142858,7.45L14.62142857142857,7.45L14.62142857142857,7.664285714285715L15.907142857142858,7.664285714285715L15.907142857142858,7.878571428571428L33.59285714285714,7.878571428571428L33.59285714285714,7.664285714285715L34.87857142857143,7.664285714285715L34.87857142857143,7.45z" stroke="none"/><path d="M86.99999999999999,2.95L86.99999999999999,3.05L78.59285714285714,3.05L78.59285714285714,2.8357142857142854L78.37857142857142,2.8357142857142854L78.37857142857142,2.6214285714285714L76.12142857142855,2.6214285714285714L76.12142857142855,2.8357142857142854L67.33571428571427,2.8357142857142854L67.33571428571427,3.05L65.99999999999999,3.05L65.99999999999999,2.95L67.23571428571428,2.95L67.23571428571428,2.7357142857142858L76.02142857142856,2.7357142857142858L76.02142857142856,2.521428571428572L78.47857142857141,2.521428571428572L78.47857142857141,2.7357142857142858L78.69285714285714,2.7357142857142858L78.69285714285714,2.95z" stroke="none"/><path d="M49.5,9.05L49.5,8.95L52.45,8.95L52.45,8.735714285714284L53.52142857142857,8.735714285714284L53.52142857142857,8.521428571428569L64.87857142857142,8.521428571428569L64.87857142857142,8.307142857142857L65.09285714285714,8.307142857142857L65.09285714285714,8.092857142857142L65.30714285714285,8.092857142857142L65.30714285714285,7.664285714285715L69.59285714285714,7.664285714285715L69.59285714285714,7.45L70.49999999999999,7.45L70.49999999999999,7.55L69.69285714285714,7.55L69.69285714285714,7.764285714285714L65.40714285714284,7.764285714285714L65.40714285714284,8.192857142857143L65.19285714285714,8.192857142857143L65.19285714285714,8.407142857142858L64.97857142857141,8.407142857142858L64.97857142857141,8.62142857142857L53.62142857142857,8.62142857142857L53.62142857142857,8.835714285714285L52.55,8.835714285714285L52.55,9.05z" stroke="none"/><path d="M76.49999999999999,12.05L76.49999999999999,11.95L77.62142857142855,11.95L77.62142857142855,12.164285714285715L79.12142857142855,12.164285714285715L79.12142857142855,12.378571428571426L81.90714285714284,12.378571428571426L81.90714285714284,12.807142857142857L97.23571428571428,12.807142857142857L97.23571428571428,12.592857142857142L97.66428571428571,12.592857142857142L97.66428571428571,12.378571428571426L97.87857142857142,12.378571428571426L97.87857142857142,9.164285714285715L98.30714285714285,9.164285714285715L98.30714285714285,8.95L98.52142857142856,8.95L98.52142857142856,8.307142857142857L99.16428571428571,8.307142857142857L99.16428571428571,8.092857142857142L99.37857142857142,8.092857142857142L99.37857142857142,7.121428571428571L97.97857142857141,7.121428571428571L97.97857142857141,7.55L97.49999999999999,7.55L97.49999999999999,7.45L97.87857142857142,7.45L97.87857142857142,7.021428571428571L99.47857142857141,7.021428571428571L99.47857142857141,8.192857142857143L99.2642857142857,8.192857142857143L99.2642857142857,8.407142857142858L98.62142857142855,8.407142857142858L98.62142857142855,9.05L98.40714285714284,9.05L98.40714285714284,9.264285714285716L97.97857142857141,9.264285714285716L97.97857142857141,12.478571428571428L97.7642857142857,12.478571428571428L97.7642857142857,12.692857142857143L97.33571428571427,12.692857142857143L97.33571428571427,12.907142857142858L81.80714285714285,12.907142857142858L81.80714285714285,12.478571428571428L79.02142857142856,12.478571428571428L79.02142857142856,12.264285714285716L77.52142857142856,12.264285714285716L77.52142857142856,12.05z" stroke="none"/><path d="M100.54999999999998,9L100.44999999999999,9L100.44999999999999,8.835714285714285L100.23571428571428,8.835714285714285L100.23571428571428,8.407142857142858L100.02142857142856,8.407142857142858L100.02142857142856,8.192857142857143L99.80714285714285,8.192857142857143L99.80714285714285,7.978571428571428L99.59285714285713,7.978571428571428L99.59285714285713,6.907142857142857L97.33571428571427,6.907142857142857L97.33571428571427,7.121428571428571L97.12142857142855,7.121428571428571L97.12142857142855,7.335714285714285L96.90714285714284,7.335714285714285L96.90714285714284,7.55L95.62142857142855,7.55L95.62142857142855,7.978571428571428L95.19285714285712,7.978571428571428L95.19285714285712,8.192857142857143L88.02142857142856,8.192857142857143L88.02142857142856,7.978571428571428L87.80714285714285,7.978571428571428L87.80714285714285,7.764285714285714L87.16428571428571,7.764285714285714L87.16428571428571,7.55L86.94999999999999,7.55L86.94999999999999,7.335714285714285L86.73571428571428,7.335714285714285L86.73571428571428,7.121428571428571L86.52142857142856,7.121428571428571L86.52142857142856,6.907142857142857L81.47857142857141,6.907142857142857L81.47857142857141,7.121428571428571L78.2642857142857,7.121428571428571L78.2642857142857,7.55L77.99999999999999,7.55L77.99999999999999,7.45L78.16428571428571,7.45L78.16428571428571,7.021428571428571L81.37857142857142,7.021428571428571L81.37857142857142,6.807142857142857L86.62142857142855,6.807142857142857L86.62142857142855,7.021428571428571L86.83571428571427,7.021428571428571L86.83571428571427,7.235714285714286L87.04999999999998,7.235714285714286L87.04999999999998,7.45L87.2642857142857,7.45L87.2642857142857,7.664285714285715L87.90714285714284,7.664285714285715L87.90714285714284,7.878571428571428L88.12142857142855,7.878571428571428L88.12142857142855,8.092857142857142L95.09285714285713,8.092857142857142L95.09285714285713,7.878571428571428L95.52142857142856,7.878571428571428L95.52142857142856,7.45L96.80714285714285,7.45L96.80714285714285,7.235714285714286L97.02142857142856,7.235714285714286L97.02142857142856,7.021428571428571L97.23571428571428,7.021428571428571L97.23571428571428,6.807142857142857L99.69285714285712,6.807142857142857L99.69285714285712,7.878571428571428L99.90714285714284,7.878571428571428L99.90714285714284,8.092857142857142L100.12142857142855,8.092857142857142L100.12142857142855,8.307142857142857L100.33571428571427,8.307142857142857L100.33571428571427,8.735714285714284L100.54999999999998,8.735714285714284z" stroke="none"/><path d="M31.5,9.05L31.5,8.95L39.16428571428572,8.95L39.16428571428572,8.735714285714284L39.80714285714286,8.735714285714284L39.80714285714286,8.521428571428569L44.30714285714286,8.521428571428569L44.30714285714286,8.307142857142857L44.95,8.307142857142857L44.95,8.092857142857142L45.16428571428572,8.092857142857142L45.16428571428572,7.878571428571428L45.37857142857143,7.878571428571428L45.37857142857143,7.235714285714286L45.59285714285714,7.235714285714286L45.59285714285714,6.807142857142857L53.52142857142857,6.807142857142857L53.52142857142857,5.95L54,5.95L54,6.05L53.62142857142857,6.05L53.62142857142857,6.907142857142857L45.692857142857136,6.907142857142857L45.692857142857136,7.335714285714285L45.47857142857143,7.335714285714285L45.47857142857143,7.978571428571428L45.26428571428571,7.978571428571428L45.26428571428571,8.192857142857143L45.05,8.192857142857143L45.05,8.407142857142858L44.40714285714285,8.407142857142858L44.40714285714285,8.62142857142857L39.90714285714285,8.62142857142857L39.90714285714285,8.835714285714285L39.26428571428571,8.835714285714285L39.26428571428571,9.05z" stroke="none"/><path d="M77.99999999999999,3.05L77.99999999999999,2.95L78.47857142857141,2.95L78.47857142857141,3.1642857142857146L86.62142857142855,3.1642857142857146L86.62142857142855,3.3785714285714286L87.59285714285714,3.3785714285714286L87.59285714285714,2.95L87.80714285714285,2.95L87.80714285714285,2.7357142857142858L89.52142857142856,2.7357142857142858L89.52142857142856,2.521428571428572L100.97857142857141,2.521428571428572L100.97857142857141,4.235714285714286L102.04999999999998,4.235714285714286L102.04999999999998,4.5L101.94999999999999,4.5L101.94999999999999,4.335714285714285L100.87857142857142,4.335714285714285L100.87857142857142,2.6214285714285714L89.62142857142855,2.6214285714285714L89.62142857142855,2.8357142857142854L87.90714285714284,2.8357142857142854L87.90714285714284,3.05L87.69285714285714,3.05L87.69285714285714,3.478571428571428L86.52142857142856,3.478571428571428L86.52142857142856,3.2642857142857142L78.37857142857142,3.2642857142857142L78.37857142857142,3.05z" stroke="none"/><path d="M97.49999999999999,6.05L97.49999999999999,5.95L98.62142857142855,5.95L98.62142857142855,6.164285714285715L98.83571428571427,6.164285714285715L98.83571428571427,6.5928571428571425L99.90714285714284,6.5928571428571425L99.90714285714284,7.664285714285715L100.12142857142855,7.664285714285715L100.12142857142855,7.878571428571428L100.33571428571427,7.878571428571428L100.33571428571427,8.092857142857142L100.97857142857141,8.092857142857142L100.97857142857141,9.692857142857143L100.7642857142857,9.692857142857143L100.7642857142857,9.907142857142858L98.83571428571427,9.907142857142858L98.83571428571427,10.12142857142857L98.62142857142855,10.12142857142857L98.62142857142855,11.192857142857143L98.40714285714284,11.192857142857143L98.40714285714284,11.62142857142857L98.19285714285712,11.62142857142857L98.19285714285712,12.907142857142858L97.54999999999998,12.907142857142858L97.54999999999998,13.12142857142857L77.73571428571428,13.12142857142857L77.73571428571428,12.907142857142858L75.80714285714285,12.907142857142858L75.80714285714285,12.692857142857143L75.59285714285714,12.692857142857143L75.59285714285714,11.835714285714285L75.37857142857142,11.835714285714285L75.37857142857142,11.62142857142857L70.23571428571428,11.62142857142857L70.23571428571428,11.192857142857143L69.59285714285714,11.192857142857143L69.59285714285714,10.978571428571428L68.52142857142856,10.978571428571428L68.52142857142856,10.764285714285716L68.30714285714285,10.764285714285716L68.30714285714285,10.55L67.49999999999999,10.55L67.49999999999999,10.45L68.40714285714284,10.45L68.40714285714284,10.664285714285715L68.62142857142855,10.664285714285715L68.62142857142855,10.878571428571426L69.69285714285714,10.878571428571426L69.69285714285714,11.092857142857142L70.33571428571427,11.092857142857142L70.33571428571427,11.521428571428569L75.47857142857141,11.521428571428569L75.47857142857141,11.735714285714284L75.69285714285714,11.735714285714284L75.69285714285714,12.592857142857142L75.90714285714284,12.592857142857142L75.90714285714284,12.807142857142857L77.83571428571427,12.807142857142857L77.83571428571427,13.021428571428569L97.44999999999999,13.021428571428569L97.44999999999999,12.807142857142857L98.09285714285713,12.807142857142857L98.09285714285713,11.521428571428569L98.30714285714285,11.521428571428569L98.30714285714285,11.092857142857142L98.52142857142856,11.092857142857142L98.52142857142856,10.021428571428569L98.73571428571428,10.021428571428569L98.73571428571428,9.807142857142857L100.66428571428571,9.807142857142857L100.66428571428571,9.592857142857142L100.87857142857142,9.592857142857142L100.87857142857142,8.192857142857143L100.23571428571428,8.192857142857143L100.23571428571428,7.978571428571428L100.02142857142856,7.978571428571428L100.02142857142856,7.764285714285714L99.80714285714285,7.764285714285714L99.80714285714285,6.692857142857142L98.73571428571428,6.692857142857142L98.73571428571428,6.264285714285714L98.52142857142856,6.264285714285714L98.52142857142856,6.05z" stroke="none"/><path d="M98.94999999999999,10.5L99.04999999999998,10.5L99.04999999999998,12.478571428571428L98.83571428571427,12.478571428571428L98.83571428571427,12.907142857142858L98.40714285714284,12.907142857142858L98.40714285714284,13.12142857142857L97.7642857142857,13.12142857142857L97.7642857142857,13.335714285714285L62.30714285714286,13.335714285714285L62.30714285714286,13.12142857142857L61.66428571428572,13.12142857142857L61.66428571428572,12.692857142857143L61.23571428571429,12.692857142857143L61.23571428571429,12.478571428571428L60.59285714285714,12.478571428571428L60.59285714285714,12.264285714285716L60.16428571428572,12.264285714285716L60.16428571428572,12.05L60,12.05L60,11.95L60.26428571428571,11.95L60.26428571428571,12.164285714285715L60.692857142857136,12.164285714285715L60.692857142857136,12.378571428571426L61.33571428571428,12.378571428571426L61.33571428571428,12.592857142857142L61.76428571428571,12.592857142857142L61.76428571428571,13.021428571428569L62.40714285714285,13.021428571428569L62.40714285714285,13.235714285714284L97.66428571428571,13.235714285714284L97.66428571428571,13.021428571428569L98.30714285714285,13.021428571428569L98.30714285714285,12.807142857142857L98.73571428571428,12.807142857142857L98.73571428571428,12.378571428571426L98.94999999999999,12.378571428571426z" stroke="none"/><path d="M4.5,12.05L4.5,11.95L5.192857142857142,11.95L5.192857142857142,12.164285714285715L5.621428571428571,12.164285714285715L5.621428571428571,12.378571428571426L20.192857142857143,12.378571428571426L20.192857142857143,12.592857142857142L21.478571428571428,12.592857142857142L21.478571428571428,12.807142857142857L45.16428571428572,12.807142857142857L45.16428571428572,12.592857142857142L45.80714285714286,12.592857142857142L45.80714285714286,12.164285714285715L46.02142857142857,12.164285714285715L46.02142857142857,11.95L46.5,11.95L46.5,12.05L46.12142857142857,12.05L46.12142857142857,12.264285714285716L45.90714285714285,12.264285714285716L45.90714285714285,12.692857142857143L45.26428571428571,12.692857142857143L45.26428571428571,12.907142857142858L21.378571428571426,12.907142857142858L21.378571428571426,12.692857142857143L20.09285714285714,12.692857142857143L20.09285714285714,12.478571428571428L5.521428571428571,12.478571428571428L5.521428571428571,12.264285714285716L5.0928571428571425,12.264285714285716L5.0928571428571425,12.05z" stroke="none"/><path d="M2.95,9L3.05,9L3.05,10.12142857142857L2.6214285714285714,10.12142857142857L2.6214285714285714,11.092857142857142L2.8357142857142854,11.092857142857142L2.8357142857142854,11.307142857142857L3.05,11.307142857142857L3.05,11.521428571428569L3.2642857142857142,11.521428571428569L3.2642857142857142,11.95L3.478571428571428,11.95L3.478571428571428,12.164285714285715L3.907142857142857,12.164285714285715L3.907142857142857,12.378571428571426L5.407142857142857,12.378571428571426L5.407142857142857,12.592857142857142L19.978571428571428,12.592857142857142L19.978571428571428,12.807142857142857L20.40714285714286,12.807142857142857L20.40714285714286,13.021428571428569L45.80714285714286,13.021428571428569L45.80714285714286,12.807142857142857L46.02142857142857,12.807142857142857L46.02142857142857,12.592857142857142L46.878571428571426,12.592857142857142L46.878571428571426,11.62142857142857L46.45,11.62142857142857L46.45,11.192857142857143L45.80714285714286,11.192857142857143L45.80714285714286,10.978571428571428L45.37857142857143,10.978571428571428L45.37857142857143,10.764285714285716L44.95,10.764285714285716L44.95,10.5L45.05,10.5L45.05,10.664285714285715L45.47857142857143,10.664285714285715L45.47857142857143,10.878571428571426L45.90714285714285,10.878571428571426L45.90714285714285,11.092857142857142L46.55,11.092857142857142L46.55,11.521428571428569L46.97857142857142,11.521428571428569L46.97857142857142,12.692857142857143L46.12142857142857,12.692857142857143L46.12142857142857,12.907142857142858L45.90714285714285,12.907142857142858L45.90714285714285,13.12142857142857L20.307142857142857,13.12142857142857L20.307142857142857,12.907142857142858L19.878571428571426,12.907142857142858L19.878571428571426,12.692857142857143L5.307142857142857,12.692857142857143L5.307142857142857,12.478571428571428L3.8071428571428574,12.478571428571428L3.8071428571428574,12.264285714285716L3.3785714285714286,12.264285714285716L3.3785714285714286,12.05L3.1642857142857146,12.05L3.1642857142857146,11.62142857142857L2.95,11.62142857142857L2.95,11.407142857142858L2.7357142857142858,11.407142857142858L2.7357142857142858,11.192857142857143L2.521428571428572,11.192857142857143L2.521428571428572,10.021428571428569L2.95,10.021428571428569z" stroke="none"/><path d="M34.5,6.05L34.5,5.95L43.97857142857143,5.95L43.97857142857143,6.164285714285715L44.62142857142857,6.164285714285715L44.62142857142857,6.378571428571428L45.59285714285714,6.378571428571428L45.59285714285714,6.164285714285715L47.30714285714286,6.164285714285715L47.30714285714286,5.95L47.52142857142857,5.95L47.52142857142857,5.521428571428571L58.878571428571426,5.521428571428571L58.878571428571426,5.307142857142857L59.09285714285714,5.307142857142857L59.09285714285714,4.878571428571429L59.30714285714286,4.878571428571429L59.30714285714286,4.45L59.95,4.45L59.95,4.235714285714286L60.16428571428572,4.235714285714286L60.16428571428572,4.021428571428571L61.878571428571426,4.021428571428571L61.878571428571426,3.8071428571428574L77.19285714285714,3.8071428571428574L77.19285714285714,4.021428571428571L77.62142857142855,4.021428571428571L77.62142857142855,4.45L77.99999999999999,4.45L77.99999999999999,4.55L77.52142857142856,4.55L77.52142857142856,4.121428571428571L77.09285714285714,4.121428571428571L77.09285714285714,3.907142857142857L61.97857142857142,3.907142857142857L61.97857142857142,4.121428571428571L60.26428571428571,4.121428571428571L60.26428571428571,4.335714285714285L60.05,4.335714285714285L60.05,4.55L59.40714285714285,4.55L59.40714285714285,4.978571428571429L59.192857142857136,4.978571428571429L59.192857142857136,5.407142857142857L58.97857142857142,5.407142857142857L58.97857142857142,5.621428571428571L47.62142857142857,5.621428571428571L47.62142857142857,6.05L47.40714285714285,6.05L47.40714285714285,6.264285714285714L45.692857142857136,6.264285714285714L45.692857142857136,6.478571428571428L44.52142857142857,6.478571428571428L44.52142857142857,6.264285714285714L43.87857142857143,6.264285714285714L43.87857142857143,6.05z" stroke="none"/><path d="M18,7.45L18,7.55L15.592857142857142,7.55L15.592857142857142,7.335714285714285L15.378571428571426,7.335714285714285L15.378571428571426,7.121428571428571L14.092857142857142,7.121428571428571L14.092857142857142,6.907142857142857L12.907142857142858,6.907142857142857L12.907142857142858,7.764285714285714L12.692857142857143,7.764285714285714L12.692857142857143,7.978571428571428L3.478571428571428,7.978571428571428L3.478571428571428,8.407142857142858L3.2642857142857142,8.407142857142858L3.2642857142857142,8.62142857142857L2.6214285714285714,8.62142857142857L2.6214285714285714,9.907142857142858L2.407142857142857,9.907142857142858L2.407142857142857,12.164285714285715L2.6214285714285714,12.164285714285715L2.6214285714285714,12.378571428571426L3.6928571428571426,12.378571428571426L3.6928571428571426,12.592857142857142L4.978571428571429,12.592857142857142L4.978571428571429,12.807142857142857L19.764285714285716,12.807142857142857L19.764285714285716,13.021428571428569L19.978571428571428,13.021428571428569L19.978571428571428,13.235714285714284L52.66428571428572,13.235714285714284L52.66428571428572,12.378571428571426L52.878571428571426,12.378571428571426L52.878571428571426,11.62142857142857L51.80714285714286,11.62142857142857L51.80714285714286,10.764285714285716L51.59285714285714,10.764285714285716L51.59285714285714,10.55L50.95,10.55L50.95,10.335714285714285L49.66428571428572,10.335714285714285L49.66428571428572,9.478571428571428L49.02142857142857,9.478571428571428L49.02142857142857,8.521428571428569L53.30714285714286,8.521428571428569L53.30714285714286,8.307142857142857L62.52142857142857,8.307142857142857L62.52142857142857,8.092857142857142L62.95,8.092857142857142L62.95,7.5L63.05,7.5L63.05,8.192857142857143L62.62142857142857,8.192857142857143L62.62142857142857,8.407142857142858L53.40714285714285,8.407142857142858L53.40714285714285,8.62142857142857L49.12142857142857,8.62142857142857L49.12142857142857,9.378571428571426L49.76428571428571,9.378571428571426L49.76428571428571,10.235714285714284L51.05,10.235714285714284L51.05,10.45L51.692857142857136,10.45L51.692857142857136,10.664285714285715L51.90714285714285,10.664285714285715L51.90714285714285,11.521428571428569L52.97857142857142,11.521428571428569L52.97857142857142,12.478571428571428L52.76428571428571,12.478571428571428L52.76428571428571,13.335714285714285L19.878571428571426,13.335714285714285L19.878571428571426,13.12142857142857L19.664285714285715,13.12142857142857L19.664285714285715,12.907142857142858L4.878571428571429,12.907142857142858L4.878571428571429,12.692857142857143L3.592857142857143,12.692857142857143L3.592857142857143,12.478571428571428L2.521428571428572,12.478571428571428L2.521428571428572,12.264285714285716L2.3071428571428574,12.264285714285716L2.3071428571428574,9.807142857142857L2.521428571428572,9.807142857142857L2.521428571428572,8.521428571428569L3.1642857142857146,8.521428571428569L3.1642857142857146,8.307142857142857L3.3785714285714286,8.307142857142857L3.3785714285714286,7.878571428571428L12.592857142857142,7.878571428571428L12.592857142857142,7.664285714285715L12.807142857142857,7.664285714285715L12.807142857142857,6.807142857142857L14.192857142857143,6.807142857142857L14.192857142857143,7.021428571428571L15.478571428571428,7.021428571428571L15.478571428571428,7.235714285714286L15.692857142857143,7.235714285714286L15.692857142857143,7.45z" stroke="none"/><path d="M63,2.95L63,3.05L56.73571428571429,3.05L56.73571428571429,2.8357142857142854L54.378571428571426,2.8357142857142854L54.378571428571426,2.6214285714285714L27.807142857142857,2.6214285714285714L27.807142857142857,2.407142857142857L18.264285714285716,2.407142857142857L18.264285714285716,2.8357142857142854L18.05,2.8357142857142854L18.05,3L17.95,3L17.95,2.7357142857142858L18.164285714285715,2.7357142857142858L18.164285714285715,2.3071428571428574L27.90714285714286,2.3071428571428574L27.90714285714286,2.521428571428572L54.47857142857142,2.521428571428572L54.47857142857142,2.7357142857142858L56.83571428571428,2.7357142857142858L56.83571428571428,2.95z" stroke="none"/></svg>