<svg version="1.1" width="105" height="15" xmlns="http://www.w3.org/2000/svg"><path d="M99.90714285714284,7.878571428571428L99.90714285714284,8.092857142857142L100.12142857142855,8.092857142857142L100.12142857142855,8.307142857142857L100.33571428571427,8.307142857142857L100.33571428571427,8.521428571428569L100.54999999999998,8.521428571428569L100.54999999999998,9L100.44999999999999,9L100.44999999999999,8.62142857142857L100.23571428571428,8.62142857142857L100.23571428571428,8.407142857142858L100.02142857142856,8.407142857142858L100.02142857142856,8.192857142857143L99.80714285714285,8.192857142857143L99.80714285714285,7.978571428571428L84.04999999999998,7.978571428571428L84.04999999999998,9L83.94999999999999,9L83.94999999999999,7.978571428571428L70.23571428571428,7.978571428571428L70.23571428571428,7.55L69.59285714285714,7.55L69.59285714285714,7.335714285714285L69.37857142857142,7.335714285714285L69.37857142857142,6.907142857142857L68.73571428571428,6.907142857142857L68.73571428571428,6.478571428571428L68.52142857142856,6.478571428571428L68.52142857142856,6.264285714285714L67.87857142857142,6.264285714285714L67.87857142857142,6.05L67.49999999999999,6.05L67.49999999999999,5.95L67.97857142857141,5.95L67.97857142857141,6.164285714285715L68.62142857142855,6.164285714285715L68.62142857142855,6.378571428571428L68.83571428571427,6.378571428571428L68.83571428571427,6.807142857142857L69.47857142857141,6.807142857142857L69.47857142857141,7.235714285714286L69.69285714285714,7.235714285714286L69.69285714285714,7.45L70.33571428571427,7.45L70.33571428571427,7.878571428571428z" stroke="none"/><path d="M54.378571428571426,3.3785714285714286L54.378571428571426,3.1642857142857146L65.73571428571428,3.1642857142857146L65.73571428571428,2.95L65.99999999999999,2.95L65.99999999999999,3.05L65.83571428571427,3.05L65.83571428571427,3.2642857142857142L54.47857142857142,3.2642857142857142L54.47857142857142,3.3785714285714286L54.90714285714285,3.3785714285714286L54.90714285714285,4.021428571428571L55.33571428571428,4.021428571428571L55.33571428571428,4.45L55.5,4.45L55.5,4.55L55.23571428571429,4.55L55.23571428571429,4.121428571428571L54.80714285714286,4.121428571428571L54.80714285714286,3.478571428571428L41.95,3.478571428571428L41.95,3L42.05,3L42.05,3.3785714285714286z" stroke="none"/><path d="M45.37857142857143,11.307142857142857L45.37857142857143,11.192857142857143L41.95,11.192857142857143L41.95,10.978571428571428L40.87857142857143,10.978571428571428L40.87857142857143,10.764285714285716L40.45,10.764285714285716L40.45,10.5L40.55,10.5L40.55,10.664285714285715L40.97857142857143,10.664285714285715L40.97857142857143,10.878571428571426L42.05,10.878571428571426L42.05,11.092857142857142L45.47857142857143,11.092857142857142L45.47857142857143,11.307142857142857L53.192857142857136,11.307142857142857L53.192857142857136,11.521428571428569L53.62142857142857,11.521428571428569L53.62142857142857,11.735714285714284L54.05,11.735714285714284L54.05,12L53.95,12L53.95,11.835714285714285L53.52142857142857,11.835714285714285L53.52142857142857,11.62142857142857L53.09285714285714,11.62142857142857L53.09285714285714,11.407142857142858L43.12142857142857,11.407142857142858L43.12142857142857,11.62142857142857L42.90714285714285,11.62142857142857L42.90714285714285,11.835714285714285L42.692857142857136,11.835714285714285L42.692857142857136,12.05L42,12.05L42,11.95L42.59285714285714,11.95L42.59285714285714,11.735714285714284L42.80714285714286,11.735714285714284L42.80714285714286,11.521428571428569L43.02142857142857,11.521428571428569L43.02142857142857,11.307142857142857z" stroke="none"/><path d="M36.80714285714286,5.95L36.80714285714286,5.735714285714286L37.66428571428572,5.735714285714286L37.66428571428572,5.521428571428571L38.09285714285714,5.521428571428571L38.09285714285714,5.307142857142857L38.52142857142857,5.307142857142857L38.52142857142857,4.878571428571429L38.73571428571429,4.878571428571429L38.73571428571429,4.664285714285715L38.95,4.664285714285715L38.95,4.5L39.05,4.5L39.05,4.764285714285714L38.83571428571428,4.764285714285714L38.83571428571428,4.978571428571429L38.62142857142857,4.978571428571429L38.62142857142857,5.407142857142857L38.192857142857136,5.407142857142857L38.192857142857136,5.621428571428571L37.76428571428571,5.621428571428571L37.76428571428571,5.835714285714285L36.90714285714285,5.835714285714285L36.90714285714285,6.05L29.40714285714286,6.05L29.40714285714286,6.164285714285715L40.23571428571429,6.164285714285715L40.23571428571429,5.95L40.5,5.95L40.5,6.05L40.33571428571428,6.05L40.33571428571428,6.264285714285714L29.307142857142857,6.264285714285714L29.307142857142857,6.05L28.978571428571428,6.05L28.978571428571428,6.478571428571428L9.907142857142858,6.478571428571428L9.907142857142858,6.692857142857142L9.692857142857143,6.692857142857142L9.692857142857143,7.121428571428571L9.264285714285716,7.121428571428571L9.264285714285716,7.335714285714285L9.05,7.335714285714285L9.05,7.5L8.95,7.5L8.95,7.235714285714286L9.164285714285715,7.235714285714286L9.164285714285715,7.021428571428571L9.592857142857142,7.021428571428571L9.592857142857142,6.5928571428571425L9.807142857142857,6.5928571428571425L9.807142857142857,6.378571428571428L28.878571428571426,6.378571428571428L28.878571428571426,5.95z" stroke="none"/><path d="M41.09285714285714,10.45L41.09285714285714,9.907142857142858L29.09285714285714,9.907142857142858L29.09285714285714,9.478571428571428L25.878571428571426,9.478571428571428L25.878571428571426,9.264285714285716L25.664285714285715,9.264285714285716L25.664285714285715,9.05L25.5,9.05L25.5,8.95L25.764285714285716,8.95L25.764285714285716,9.164285714285715L25.978571428571428,9.164285714285715L25.978571428571428,9.378571428571426L29.192857142857143,9.378571428571426L29.192857142857143,9.807142857142857L41.192857142857136,9.807142857142857L41.192857142857136,10.45L43.12142857142857,10.45L43.12142857142857,10.878571428571426L71.52142857142856,10.878571428571426L71.52142857142856,10.664285714285715L71.94999999999999,10.664285714285715L71.94999999999999,10.5L72.04999999999998,10.5L72.04999999999998,10.764285714285716L71.62142857142855,10.764285714285716L71.62142857142855,10.978571428571428L43.02142857142857,10.978571428571428L43.02142857142857,10.55L40.87857142857143,10.55L40.87857142857143,10.12142857142857L27.264285714285716,10.12142857142857L27.264285714285716,10.335714285714285L27.05,10.335714285714285L27.05,11.407142857142858L26.40714285714286,11.407142857142858L26.40714285714286,11.62142857142857L26.192857142857143,11.62142857142857L26.192857142857143,11.835714285714285L25.764285714285716,11.835714285714285L25.764285714285716,12.05L25.5,12.05L25.5,11.95L25.664285714285715,11.95L25.664285714285715,11.735714285714284L26.09285714285714,11.735714285714284L26.09285714285714,11.521428571428569L26.307142857142857,11.521428571428569L26.307142857142857,11.307142857142857L26.95,11.307142857142857L26.95,10.235714285714284L27.164285714285715,10.235714285714284L27.164285714285715,10.021428571428569L40.97857142857143,10.021428571428569L40.97857142857143,10.45z" stroke="none"/><path d="M76.44999999999999,9.592857142857142L76.44999999999999,9L76.54999999999998,9L76.54999999999998,9.592857142857142L101.19285714285712,9.592857142857142L101.19285714285712,9.807142857142857L101.40714285714284,9.807142857142857L101.40714285714284,10.021428571428569L101.62142857142855,10.021428571428569L101.62142857142855,11.95L101.99999999999999,11.95L101.99999999999999,12.05L101.52142857142856,12.05L101.52142857142856,10.12142857142857L101.30714285714285,10.12142857142857L101.30714285714285,9.907142857142858L101.09285714285713,9.907142857142858L101.09285714285713,9.692857142857143L76.54999999999998,9.692857142857143L76.54999999999998,9.907142857142858L60.26428571428571,9.907142857142858L60.26428571428571,10.12142857142857L60.05,10.12142857142857L60.05,10.335714285714285L59.83571428571428,10.335714285714285L59.83571428571428,10.55L58.5,10.55L58.5,10.45L59.73571428571429,10.45L59.73571428571429,10.235714285714284L59.95,10.235714285714284L59.95,10.021428571428569L60.16428571428572,10.021428571428569L60.16428571428572,9.807142857142857L76.44999999999999,9.807142857142857L76.44999999999999,9.692857142857143L70.23571428571428,9.692857142857143L70.23571428571428,9.478571428571428L70.02142857142856,9.478571428571428L70.02142857142856,9.264285714285716L69.80714285714285,9.264285714285716L69.80714285714285,8.407142857142858L69.59285714285714,8.407142857142858L69.59285714285714,7.764285714285714L69.37857142857142,7.764285714285714L69.37857142857142,7.55L68.99999999999999,7.55L68.99999999999999,7.45L69.47857142857141,7.45L69.47857142857141,7.664285714285715L69.69285714285714,7.664285714285715L69.69285714285714,8.307142857142857L69.90714285714284,8.307142857142857L69.90714285714284,9.164285714285715L70.12142857142855,9.164285714285715L70.12142857142855,9.378571428571426L70.33571428571427,9.378571428571426L70.33571428571427,9.592857142857142z" stroke="none"/><path d="M74.94999999999999,6.164285714285715L74.94999999999999,6.05L73.23571428571428,6.05L73.23571428571428,5.835714285714285L68.73571428571428,5.835714285714285L68.73571428571428,5.621428571428571L66.59285714285714,5.621428571428571L66.59285714285714,5.407142857142857L66.16428571428571,5.407142857142857L66.16428571428571,4.55L65.99999999999999,4.55L65.99999999999999,4.45L66.2642857142857,4.45L66.2642857142857,5.307142857142857L66.69285714285714,5.307142857142857L66.69285714285714,5.521428571428571L68.83571428571427,5.521428571428571L68.83571428571427,5.735714285714286L73.33571428571427,5.735714285714286L73.33571428571427,5.95L75.04999999999998,5.95L75.04999999999998,6.164285714285715L75.16428571428571,6.164285714285715L75.16428571428571,5.835714285714285L74.73571428571428,5.835714285714285L74.73571428571428,5.621428571428571L68.94999999999999,5.621428571428571L68.94999999999999,5.407142857142857L68.30714285714285,5.407142857142857L68.30714285714285,4.978571428571429L67.02142857142856,4.978571428571429L67.02142857142856,4.764285714285714L66.80714285714285,4.764285714285714L66.80714285714285,4.335714285714285L65.83571428571427,4.335714285714285L65.83571428571427,6.907142857142857L65.62142857142855,6.907142857142857L65.62142857142855,7.121428571428571L65.40714285714284,7.121428571428571L65.40714285714284,7.55L64.97857142857141,7.55L64.97857142857141,7.978571428571428L62.09285714285714,7.978571428571428L62.09285714285714,7.55L61.5,7.55L61.5,7.45L62.192857142857136,7.45L62.192857142857136,7.878571428571428L64.87857142857142,7.878571428571428L64.87857142857142,7.45L65.30714285714285,7.45L65.30714285714285,7.021428571428571L65.52142857142856,7.021428571428571L65.52142857142856,6.807142857142857L65.73571428571428,6.807142857142857L65.73571428571428,4.235714285714286L66.90714285714284,4.235714285714286L66.90714285714284,4.664285714285715L67.12142857142855,4.664285714285715L67.12142857142855,4.878571428571429L68.40714285714284,4.878571428571429L68.40714285714284,5.307142857142857L69.04999999999998,5.307142857142857L69.04999999999998,5.521428571428571L74.83571428571427,5.521428571428571L74.83571428571427,5.735714285714286L75.2642857142857,5.735714285714286L75.2642857142857,6.264285714285714L75.04999999999998,6.264285714285714L75.04999999999998,6.378571428571428L99.47857142857141,6.378571428571428L99.47857142857141,6.5928571428571425L99.69285714285712,6.5928571428571425L99.69285714285712,7.021428571428571L100.54999999999998,7.021428571428571L100.54999999999998,7.5L100.44999999999999,7.5L100.44999999999999,7.121428571428571L99.59285714285713,7.121428571428571L99.59285714285713,6.692857142857142L99.37857142857142,6.692857142857142L99.37857142857142,6.478571428571428L74.94999999999999,6.478571428571428L74.94999999999999,6.264285714285714L72.80714285714285,6.264285714285714L72.80714285714285,6.05L71.99999999999999,6.05L71.99999999999999,5.95L72.90714285714284,5.95L72.90714285714284,6.164285714285715z" stroke="none"/><path d="M57.59285714285714,4.664285714285715L57.59285714285714,4.45L65.52142857142856,4.45L65.52142857142856,4.021428571428571L69.37857142857142,4.021428571428571L69.37857142857142,3.592857142857143L69.59285714285714,3.592857142857143L69.59285714285714,3.3785714285714286L70.44999999999999,3.3785714285714286L70.44999999999999,3L70.54999999999998,3L70.54999999999998,3.478571428571428L69.69285714285714,3.478571428571428L69.69285714285714,3.6928571428571426L69.47857142857141,3.6928571428571426L69.47857142857141,4.121428571428571L65.62142857142855,4.121428571428571L65.62142857142855,4.55L57.692857142857136,4.55L57.692857142857136,4.664285714285715L61.97857142857142,4.664285714285715L61.97857142857142,4.878571428571429L62.192857142857136,4.878571428571429L62.192857142857136,5.0928571428571425L62.62142857142857,5.0928571428571425L62.62142857142857,5.307142857142857L62.83571428571428,5.307142857142857L62.83571428571428,6.164285714285715L63.26428571428571,6.164285714285715L63.26428571428571,6.378571428571428L63.692857142857136,6.378571428571428L63.692857142857136,7.45L64.49999999999999,7.45L64.49999999999999,7.55L63.59285714285714,7.55L63.59285714285714,6.478571428571428L63.16428571428572,6.478571428571428L63.16428571428572,6.264285714285714L62.73571428571429,6.264285714285714L62.73571428571429,5.407142857142857L62.52142857142857,5.407142857142857L62.52142857142857,5.192857142857142L62.09285714285714,5.192857142857142L62.09285714285714,4.978571428571429L61.878571428571426,4.978571428571429L61.878571428571426,4.764285714285714L57.692857142857136,4.764285714285714L57.692857142857136,5.192857142857142L47.52142857142857,5.192857142857142L47.52142857142857,4.978571428571429L46.45,4.978571428571429L46.45,4.5L46.55,4.5L46.55,4.878571428571429L47.62142857142857,4.878571428571429L47.62142857142857,5.0928571428571425L57.59285714285714,5.0928571428571425L57.59285714285714,4.764285714285714L57.47857142857142,4.764285714285714L57.47857142857142,4.978571428571429L48.80714285714286,4.978571428571429L48.80714285714286,4.55L48,4.55L48,4.45L48.90714285714285,4.45L48.90714285714285,4.878571428571429L57.378571428571426,4.878571428571429L57.378571428571426,4.664285714285715z" stroke="none"/><path d="M32.52142857142857,7.021428571428571L32.52142857142857,6.907142857142857L21.692857142857143,6.907142857142857L21.692857142857143,7.121428571428571L21.478571428571428,7.121428571428571L21.478571428571428,7.335714285714285L21.264285714285716,7.335714285714285L21.264285714285716,7.55L18.264285714285716,7.55L18.264285714285716,7.978571428571428L17.835714285714285,7.978571428571428L17.835714285714285,8.192857142857143L17.621428571428574,8.192857142857143L17.621428571428574,8.407142857142858L17.40714285714286,8.407142857142858L17.40714285714286,8.62142857142857L16.978571428571428,8.62142857142857L16.978571428571428,9.05L13.5,9.05L13.5,8.95L16.878571428571426,8.95L16.878571428571426,8.521428571428569L17.307142857142857,8.521428571428569L17.307142857142857,8.307142857142857L17.521428571428572,8.307142857142857L17.521428571428572,8.092857142857142L17.735714285714284,8.092857142857142L17.735714285714284,7.878571428571428L18.164285714285715,7.878571428571428L18.164285714285715,7.45L21.164285714285715,7.45L21.164285714285715,7.235714285714286L21.378571428571426,7.235714285714286L21.378571428571426,7.021428571428571L21.59285714285714,7.021428571428571L21.59285714285714,6.807142857142857L32.62142857142857,6.807142857142857L32.62142857142857,7.021428571428571L40.45,7.021428571428571L40.45,6.807142857142857L40.66428571428572,6.807142857142857L40.66428571428572,6.378571428571428L40.87857142857143,6.378571428571428L40.87857142857143,5.621428571428571L40.23571428571429,5.621428571428571L40.23571428571429,5.407142857142857L40.02142857142857,5.407142857142857L40.02142857142857,4.335714285714285L39.37857142857143,4.335714285714285L39.37857142857143,4.121428571428571L24.478571428571428,4.121428571428571L24.478571428571428,4.335714285714285L24.05,4.335714285714285L24.05,4.5L23.95,4.5L23.95,4.235714285714286L24.378571428571426,4.235714285714286L24.378571428571426,4.021428571428571L39.47857142857143,4.021428571428571L39.47857142857143,4.235714285714286L40.12142857142857,4.235714285714286L40.12142857142857,5.307142857142857L40.33571428571428,5.307142857142857L40.33571428571428,5.521428571428571L40.97857142857143,5.521428571428571L40.97857142857143,6.478571428571428L40.76428571428571,6.478571428571428L40.76428571428571,6.907142857142857L40.55,6.907142857142857L40.55,7.121428571428571L32.62142857142857,7.121428571428571L32.62142857142857,7.235714285714286L38.40714285714285,7.235714285714286L38.40714285714285,7.45L38.62142857142857,7.45L38.62142857142857,7.878571428571428L43.87857142857143,7.878571428571428L43.87857142857143,7.235714285714286L44.09285714285714,7.235714285714286L44.09285714285714,6.378571428571428L44.52142857142857,6.378571428571428L44.52142857142857,6.164285714285715L44.95,6.164285714285715L44.95,6L45.05,6L45.05,6.264285714285714L44.62142857142857,6.264285714285714L44.62142857142857,6.478571428571428L44.192857142857136,6.478571428571428L44.192857142857136,7.335714285714285L43.97857142857143,7.335714285714285L43.97857142857143,7.978571428571428L38.52142857142857,7.978571428571428L38.52142857142857,7.55L38.30714285714286,7.55L38.30714285714286,7.335714285714285L32.52142857142857,7.335714285714285L32.52142857142857,7.121428571428571L32.40714285714285,7.121428571428571L32.40714285714285,7.45L35.83571428571428,7.45L35.83571428571428,7.664285714285715L36.05,7.664285714285715L36.05,7.878571428571428L38.192857142857136,7.878571428571428L38.192857142857136,8.092857142857142L48.05,8.092857142857142L48.05,9L47.95,9L47.95,8.192857142857143L38.09285714285714,8.192857142857143L38.09285714285714,7.978571428571428L35.95,7.978571428571428L35.95,7.764285714285714L35.73571428571429,7.764285714285714L35.73571428571429,7.55L32.30714285714286,7.55L32.30714285714286,7.021428571428571z" stroke="none"/><path d="M33.16428571428572,8.092857142857142L33.16428571428572,7.978571428571428L24.692857142857143,7.978571428571428L24.692857142857143,8.192857142857143L23.835714285714285,8.192857142857143L23.835714285714285,8.62142857142857L23.62142857142857,8.62142857142857L23.62142857142857,8.835714285714285L19.121428571428574,8.835714285714285L19.121428571428574,9.264285714285716L13.978571428571428,9.264285714285716L13.978571428571428,9.478571428571428L7.878571428571428,9.478571428571428L7.878571428571428,9.264285714285716L7.664285714285715,9.264285714285716L7.664285714285715,9.05L7.5,9.05L7.5,8.95L7.764285714285714,8.95L7.764285714285714,9.164285714285715L7.978571428571428,9.164285714285715L7.978571428571428,9.378571428571426L13.878571428571426,9.378571428571426L13.878571428571426,9.164285714285715L19.021428571428572,9.164285714285715L19.021428571428572,8.735714285714284L23.52142857142857,8.735714285714284L23.52142857142857,8.521428571428569L23.735714285714284,8.521428571428569L23.735714285714284,8.092857142857142L24.59285714285714,8.092857142857142L24.59285714285714,7.878571428571428L33.26428571428571,7.878571428571428L33.26428571428571,8.092857142857142L37.97857142857143,8.092857142857142L37.97857142857143,8.307142857142857L46.55,8.307142857142857L46.55,8.521428571428569L46.76428571428571,8.521428571428569L46.76428571428571,8.95L46.97857142857142,8.95L46.97857142857142,9.164285714285715L47.192857142857136,9.164285714285715L47.192857142857136,9.378571428571426L49.66428571428572,9.378571428571426L49.66428571428572,9.164285714285715L50.09285714285714,9.164285714285715L50.09285714285714,8.95L50.30714285714286,8.95L50.30714285714286,7.664285714285715L50.52142857142857,7.664285714285715L50.52142857142857,7.45L51,7.45L51,7.55L50.62142857142857,7.55L50.62142857142857,7.764285714285714L50.40714285714285,7.764285714285714L50.40714285714285,9.05L50.192857142857136,9.05L50.192857142857136,9.264285714285716L49.76428571428571,9.264285714285716L49.76428571428571,9.478571428571428L47.09285714285714,9.478571428571428L47.09285714285714,9.264285714285716L46.878571428571426,9.264285714285716L46.878571428571426,9.05L46.66428571428572,9.05L46.66428571428572,8.62142857142857L46.45,8.62142857142857L46.45,8.407142857142858L37.87857142857143,8.407142857142858L37.87857142857143,8.192857142857143L33.26428571428571,8.192857142857143L33.26428571428571,8.307142857142857L37.76428571428571,8.307142857142857L37.76428571428571,8.521428571428569L45.692857142857136,8.521428571428569L45.692857142857136,8.95L45.90714285714285,8.95L45.90714285714285,9.164285714285715L46.55,9.164285714285715L46.55,9.378571428571426L46.97857142857142,9.378571428571426L46.97857142857142,9.592857142857142L50.52142857142857,9.592857142857142L50.52142857142857,7.878571428571428L50.73571428571429,7.878571428571428L50.73571428571429,7.664285714285715L51.16428571428572,7.664285714285715L51.16428571428572,6.05L51,6.05L51,5.95L51.26428571428571,5.95L51.26428571428571,7.764285714285714L50.83571428571428,7.764285714285714L50.83571428571428,7.978571428571428L50.62142857142857,7.978571428571428L50.62142857142857,9.692857142857143L46.878571428571426,9.692857142857143L46.878571428571426,9.478571428571428L46.45,9.478571428571428L46.45,9.264285714285716L45.80714285714286,9.264285714285716L45.80714285714286,9.05L45.59285714285714,9.05L45.59285714285714,8.62142857142857L37.66428571428572,8.62142857142857L37.66428571428572,8.407142857142858L33.16428571428572,8.407142857142858L33.16428571428572,8.192857142857143L25.978571428571428,8.192857142857143L25.978571428571428,8.407142857142858L25.55,8.407142857142858L25.55,8.62142857142857L25.12142857142857,8.62142857142857L25.12142857142857,9.05L24.692857142857143,9.05L24.692857142857143,9.264285714285716L24.478571428571428,9.264285714285716L24.478571428571428,9.907142857142858L24.264285714285716,9.907142857142858L24.264285714285716,10.335714285714285L24.05,10.335714285714285L24.05,10.5L23.95,10.5L23.95,10.235714285714284L24.164285714285715,10.235714285714284L24.164285714285715,9.807142857142857L24.378571428571426,9.807142857142857L24.378571428571426,9.164285714285715L24.59285714285714,9.164285714285715L24.59285714285714,8.95L25.02142857142857,8.95L25.02142857142857,8.521428571428569L25.45,8.521428571428569L25.45,8.307142857142857L25.878571428571426,8.307142857142857L25.878571428571426,8.092857142857142z" stroke="none"/><path d="M43.5,10.55L43.5,10.45L45,10.45L45,10.55z" stroke="none"/><path d="M65.99999999999999,10.55L65.99999999999999,10.45L67.49999999999999,10.45L67.49999999999999,10.55z" stroke="none"/><path d="M94.44999999999999,3L94.54999999999998,3L94.54999999999998,4.5L94.44999999999999,4.5z" stroke="none"/><path d="M86.99999999999999,5.95L86.99999999999999,6.05L83.99999999999999,6.05L83.99999999999999,5.95z" stroke="none"/><path d="M83.99999999999999,10.55L83.99999999999999,10.45L86.99999999999999,10.45L86.99999999999999,10.55z" stroke="none"/><path d="M16.5,3.05L16.5,2.95L19.121428571428574,2.95L19.121428571428574,3.592857142857143L19.335714285714285,3.592857142857143L19.335714285714285,3.8071428571428574L19.55,3.8071428571428574L19.55,4.5L19.45,4.5L19.45,3.907142857142857L19.235714285714284,3.907142857142857L19.235714285714284,3.6928571428571426L19.021428571428572,3.6928571428571426L19.021428571428572,3.05z" stroke="none"/><path d="M13.5,12.05L13.5,11.95L15.378571428571426,11.95L15.378571428571426,11.307142857142857L15.592857142857142,11.307142857142857L15.592857142857142,11.092857142857142L16.235714285714284,11.092857142857142L16.235714285714284,10.878571428571426L16.45,10.878571428571426L16.45,10.5L16.55,10.5L16.55,10.978571428571428L16.335714285714285,10.978571428571428L16.335714285714285,11.192857142857143L15.692857142857143,11.192857142857143L15.692857142857143,11.407142857142858L15.478571428571428,11.407142857142858L15.478571428571428,12.05z" stroke="none"/><path d="M88.49999999999999,6.05L88.49999999999999,5.95L92.99999999999999,5.95L92.99999999999999,6.05z" stroke="none"/><path d="M97.49999999999999,11.95L97.49999999999999,12.05L96.59285714285713,12.05L96.59285714285713,11.835714285714285L96.37857142857142,11.835714285714285L96.37857142857142,11.62142857142857L94.33571428571427,11.62142857142857L94.33571428571427,11.835714285714285L94.12142857142855,11.835714285714285L94.12142857142855,12.05L92.99999999999999,12.05L92.99999999999999,11.95L94.02142857142856,11.95L94.02142857142856,11.735714285714284L94.23571428571428,11.735714285714284L94.23571428571428,11.521428571428569L96.47857142857141,11.521428571428569L96.47857142857141,11.735714285714284L96.69285714285712,11.735714285714284L96.69285714285712,11.95z" stroke="none"/><path d="M58.5,7.45L58.5,7.55L54,7.55L54,7.45z" stroke="none"/><path d="M12,3.05L12,2.95L14.407142857142858,2.95L14.407142857142858,3.3785714285714286L15.692857142857143,3.3785714285714286L15.692857142857143,3.592857142857143L15.907142857142858,3.592857142857143L15.907142857142858,4.021428571428571L16.12142857142857,4.021428571428571L16.12142857142857,4.235714285714286L16.335714285714285,4.235714285714286L16.335714285714285,4.45L16.5,4.45L16.5,4.55L16.235714285714284,4.55L16.235714285714284,4.335714285714285L16.02142857142857,4.335714285714285L16.02142857142857,4.121428571428571L15.807142857142857,4.121428571428571L15.807142857142857,3.6928571428571426L15.592857142857142,3.6928571428571426L15.592857142857142,3.478571428571428L14.307142857142857,3.478571428571428L14.307142857142857,3.05z" stroke="none"/><path d="M92.99999999999999,10.45L92.99999999999999,10.55L91.12142857142855,10.55L91.12142857142855,10.764285714285716L90.90714285714284,10.764285714285716L90.90714285714284,10.978571428571428L90.47857142857141,10.978571428571428L90.47857142857141,11.192857142857143L89.83571428571427,11.192857142857143L89.83571428571427,11.407142857142858L88.7642857142857,11.407142857142858L88.7642857142857,12.05L88.49999999999999,12.05L88.49999999999999,11.95L88.66428571428571,11.95L88.66428571428571,11.307142857142857L89.73571428571428,11.307142857142857L89.73571428571428,11.092857142857142L90.37857142857142,11.092857142857142L90.37857142857142,10.878571428571426L90.80714285714285,10.878571428571426L90.80714285714285,10.664285714285715L91.02142857142856,10.664285714285715L91.02142857142856,10.45z" stroke="none"/><path d="M10.5,8.95L10.5,9.05L10.235714285714284,9.05L10.235714285714284,8.835714285714285L7.878571428571428,8.835714285714285L7.878571428571428,8.407142857142858L7.45,8.407142857142858L7.45,8.192857142857143L7.235714285714286,8.192857142857143L7.235714285714286,7.55L6.378571428571428,7.55L6.378571428571428,7.335714285714285L6.164285714285715,7.335714285714285L6.164285714285715,6.692857142857142L5.95,6.692857142857142L5.95,6L6.05,6L6.05,6.5928571428571425L6.264285714285714,6.5928571428571425L6.264285714285714,7.235714285714286L6.478571428571428,7.235714285714286L6.478571428571428,7.45L7.335714285714285,7.45L7.335714285714285,8.092857142857142L7.55,8.092857142857142L7.55,8.307142857142857L7.978571428571428,8.307142857142857L7.978571428571428,8.735714285714284L10.335714285714285,8.735714285714284L10.335714285714285,8.95z" stroke="none"/><path d="M86.99999999999999,11.95L86.99999999999999,12.05L80.99999999999999,12.05L80.99999999999999,11.95z" stroke="none"/><path d="M28.5,10.45L28.5,10.55L28.12142857142857,10.55L28.12142857142857,10.978571428571428L27.90714285714286,10.978571428571428L27.90714285714286,11.192857142857143L27.692857142857143,11.192857142857143L27.692857142857143,11.62142857142857L27.478571428571428,11.62142857142857L27.478571428571428,12.05L27.264285714285716,12.05L27.264285714285716,12.478571428571428L23.09285714285714,12.478571428571428L23.09285714285714,12.05L22.5,12.05L22.5,11.95L23.192857142857143,11.95L23.192857142857143,12.378571428571426L27.164285714285715,12.378571428571426L27.164285714285715,11.95L27.378571428571426,11.95L27.378571428571426,11.521428571428569L27.59285714285714,11.521428571428569L27.59285714285714,11.092857142857142L27.807142857142857,11.092857142857142L27.807142857142857,10.878571428571426L28.02142857142857,10.878571428571426L28.02142857142857,10.45z" stroke="none"/><path d="M27,2.95L27,3.05L23.62142857142857,3.05L23.62142857142857,3.2642857142857142L21.90714285714286,3.2642857142857142L21.90714285714286,3.478571428571428L21.692857142857143,3.478571428571428L21.692857142857143,3.907142857142857L21.05,3.907142857142857L21.05,4.5L20.95,4.5L20.95,3.8071428571428574L21.59285714285714,3.8071428571428574L21.59285714285714,3.3785714285714286L21.807142857142857,3.3785714285714286L21.807142857142857,3.1642857142857146L23.52142857142857,3.1642857142857146L23.52142857142857,2.95z" stroke="none"/><path d="M64.49999999999999,10.55L64.49999999999999,10.45L65.30714285714285,10.45L65.30714285714285,10.235714285714284L65.52142857142856,10.235714285714284L65.52142857142856,10.021428571428569L72.47857142857141,10.021428571428569L72.47857142857141,11.62142857142857L72.04999999999998,11.62142857142857L72.04999999999998,12L71.94999999999999,12L71.94999999999999,11.521428571428569L72.37857142857142,11.521428571428569L72.37857142857142,10.12142857142857L65.62142857142855,10.12142857142857L65.62142857142855,10.335714285714285L65.40714285714284,10.335714285714285L65.40714285714284,10.55z" stroke="none"/><path d="M86.99999999999999,4.55L86.99999999999999,4.45L92.19285714285712,4.45L92.19285714285712,4.664285714285715L92.83571428571427,4.664285714285715L92.83571428571427,4.878571428571429L93.2642857142857,4.878571428571429L93.2642857142857,5.0928571428571425L93.69285714285712,5.0928571428571425L93.69285714285712,5.307142857142857L93.90714285714284,5.307142857142857L93.90714285714284,5.521428571428571L94.12142857142855,5.521428571428571L94.12142857142855,5.735714285714286L94.33571428571427,5.735714285714286L94.33571428571427,5.95L94.49999999999999,5.95L94.49999999999999,6.05L94.23571428571428,6.05L94.23571428571428,5.835714285714285L94.02142857142856,5.835714285714285L94.02142857142856,5.621428571428571L93.80714285714285,5.621428571428571L93.80714285714285,5.407142857142857L93.59285714285713,5.407142857142857L93.59285714285713,5.192857142857142L93.16428571428571,5.192857142857142L93.16428571428571,4.978571428571429L92.73571428571428,4.978571428571429L92.73571428571428,4.764285714285714L92.09285714285713,4.764285714285714L92.09285714285713,4.55z" stroke="none"/><path d="M12,11.95L12,12.05L8.95,12.05L8.95,11.407142857142858L8.521428571428569,11.407142857142858L8.521428571428569,10.978571428571428L7.878571428571428,10.978571428571428L7.878571428571428,10.764285714285716L7.664285714285715,10.764285714285716L7.664285714285715,10.335714285714285L6.5928571428571425,10.335714285714285L6.5928571428571425,9.907142857142858L6.378571428571428,9.907142857142858L6.378571428571428,9.478571428571428L6.164285714285715,9.478571428571428L6.164285714285715,8.192857142857143L5.307142857142857,8.192857142857143L5.307142857142857,7.978571428571428L4.878571428571429,7.978571428571428L4.878571428571429,7.55L4.5,7.55L4.5,7.45L4.978571428571429,7.45L4.978571428571429,7.878571428571428L5.407142857142857,7.878571428571428L5.407142857142857,8.092857142857142L6.264285714285714,8.092857142857142L6.264285714285714,9.378571428571426L6.478571428571428,9.378571428571426L6.478571428571428,9.807142857142857L6.692857142857142,9.807142857142857L6.692857142857142,10.235714285714284L7.764285714285714,10.235714285714284L7.764285714285714,10.664285714285715L7.978571428571428,10.664285714285715L7.978571428571428,10.878571428571426L8.62142857142857,10.878571428571426L8.62142857142857,11.307142857142857L9.05,11.307142857142857L9.05,11.95z" stroke="none"/><path d="M24,8.95L24,9.05L23.835714285714285,9.05L23.835714285714285,9.264285714285716L23.62142857142857,9.264285714285716L23.62142857142857,10.764285714285716L23.40714285714286,10.764285714285716L23.40714285714286,10.978571428571428L23.192857142857143,10.978571428571428L23.192857142857143,11.407142857142858L22.335714285714285,11.407142857142858L22.335714285714285,11.62142857142857L22.121428571428574,11.62142857142857L22.121428571428574,12.378571428571426L22.764285714285716,12.378571428571426L22.764285714285716,12.592857142857142L30.378571428571426,12.592857142857142L30.378571428571426,11.95L33,11.95L33,12.05L30.478571428571428,12.05L30.478571428571428,12.692857142857143L22.664285714285715,12.692857142857143L22.664285714285715,12.478571428571428L22.021428571428572,12.478571428571428L22.021428571428572,11.521428571428569L22.235714285714284,11.521428571428569L22.235714285714284,11.307142857142857L23.09285714285714,11.307142857142857L23.09285714285714,10.878571428571426L23.307142857142857,10.878571428571426L23.307142857142857,10.664285714285715L23.52142857142857,10.664285714285715L23.52142857142857,9.164285714285715L23.735714285714284,9.164285714285715L23.735714285714284,8.95z" stroke="none"/><path d="M28.5,5.95L28.5,6.05L25.878571428571426,6.05L25.878571428571426,5.621428571428571L24.59285714285714,5.621428571428571L24.59285714285714,5.192857142857142L23.52142857142857,5.192857142857142L23.52142857142857,4.021428571428571L24.164285714285715,4.021428571428571L24.164285714285715,3.8071428571428574L40.12142857142857,3.8071428571428574L40.12142857142857,4.021428571428571L40.33571428571428,4.021428571428571L40.33571428571428,4.45L40.55,4.45L40.55,4.664285714285715L40.97857142857143,4.664285714285715L40.97857142857143,4.878571428571429L41.192857142857136,4.878571428571429L41.192857142857136,6.907142857142857L40.97857142857143,6.907142857142857L40.97857142857143,7.121428571428571L40.76428571428571,7.121428571428571L40.76428571428571,7.335714285714285L40.12142857142857,7.335714285714285L40.12142857142857,7.55L39,7.55L39,7.45L40.02142857142857,7.45L40.02142857142857,7.235714285714286L40.66428571428572,7.235714285714286L40.66428571428572,7.021428571428571L40.87857142857143,7.021428571428571L40.87857142857143,6.807142857142857L41.09285714285714,6.807142857142857L41.09285714285714,4.978571428571429L40.87857142857143,4.978571428571429L40.87857142857143,4.764285714285714L40.45,4.764285714285714L40.45,4.55L40.23571428571429,4.55L40.23571428571429,4.121428571428571L40.02142857142857,4.121428571428571L40.02142857142857,3.907142857142857L24.264285714285716,3.907142857142857L24.264285714285716,4.121428571428571L23.62142857142857,4.121428571428571L23.62142857142857,5.0928571428571425L24.692857142857143,5.0928571428571425L24.692857142857143,5.521428571428571L25.978571428571428,5.521428571428571L25.978571428571428,5.95z" stroke="none"/><path d="M57,9.05L57,8.95L64.87857142857142,8.95L64.87857142857142,8.735714285714284L65.09285714285714,8.735714285714284L65.09285714285714,8.521428571428569L67.02142857142856,8.521428571428569L67.02142857142856,7.878571428571428L67.23571428571428,7.878571428571428L67.23571428571428,7.45L67.49999999999999,7.45L67.49999999999999,7.55L67.33571428571427,7.55L67.33571428571427,7.978571428571428L67.12142857142855,7.978571428571428L67.12142857142855,8.62142857142857L65.19285714285714,8.62142857142857L65.19285714285714,8.835714285714285L64.97857142857141,8.835714285714285L64.97857142857141,9.05z" stroke="none"/><path d="M3,3.05L3,2.95L4.335714285714285,2.95L4.335714285714285,3.1642857142857146L5.192857142857142,3.1642857142857146L5.192857142857142,3.3785714285714286L5.407142857142857,3.3785714285714286L5.407142857142857,3.8071428571428574L6.05,3.8071428571428574L6.05,4.021428571428571L6.264285714285714,4.021428571428571L6.264285714285714,4.45L6.478571428571428,4.45L6.478571428571428,4.878571428571429L6.907142857142857,4.878571428571429L6.907142857142857,5.0928571428571425L7.121428571428571,5.0928571428571425L7.121428571428571,5.307142857142857L7.335714285714285,5.307142857142857L7.335714285714285,5.95L7.55,5.95L7.55,6.164285714285715L7.764285714285714,6.164285714285715L7.764285714285714,6.378571428571428L7.978571428571428,6.378571428571428L7.978571428571428,7.235714285714286L8.192857142857143,7.235714285714286L8.192857142857143,7.664285714285715L8.407142857142858,7.664285714285715L8.407142857142858,7.878571428571428L14.735714285714284,7.878571428571428L14.735714285714284,7.664285714285715L14.95,7.664285714285715L14.95,7.5L15.05,7.5L15.05,7.764285714285714L14.835714285714285,7.764285714285714L14.835714285714285,7.978571428571428L8.307142857142857,7.978571428571428L8.307142857142857,7.764285714285714L8.092857142857142,7.764285714285714L8.092857142857142,7.335714285714285L7.878571428571428,7.335714285714285L7.878571428571428,6.478571428571428L7.664285714285715,6.478571428571428L7.664285714285715,6.264285714285714L7.45,6.264285714285714L7.45,6.05L7.235714285714286,6.05L7.235714285714286,5.407142857142857L7.021428571428571,5.407142857142857L7.021428571428571,5.192857142857142L6.807142857142857,5.192857142857142L6.807142857142857,4.978571428571429L6.378571428571428,4.978571428571429L6.378571428571428,4.55L6.164285714285715,4.55L6.164285714285715,4.121428571428571L5.95,4.121428571428571L5.95,3.907142857142857L5.307142857142857,3.907142857142857L5.307142857142857,3.478571428571428L5.0928571428571425,3.478571428571428L5.0928571428571425,3.2642857142857142L4.235714285714286,3.2642857142857142L4.235714285714286,3.05z" stroke="none"/><path d="M42,9.05L42,8.95L44.62142857142857,8.95L44.62142857142857,9.164285714285715L45.692857142857136,9.164285714285715L45.692857142857136,9.378571428571426L46.12142857142857,9.378571428571426L46.12142857142857,9.592857142857142L46.76428571428571,9.592857142857142L46.76428571428571,9.807142857142857L50.73571428571429,9.807142857142857L50.73571428571429,8.092857142857142L50.95,8.092857142857142L50.95,7.878571428571428L51.378571428571426,7.878571428571428L51.378571428571426,5.621428571428571L43.45,5.621428571428571L43.45,5.407142857142857L42.37857142857143,5.407142857142857L42.37857142857143,5.192857142857142L42.16428571428572,5.192857142857142L42.16428571428572,4.55L41.95,4.55L41.95,4.335714285714285L41.73571428571429,4.335714285714285L41.73571428571429,4.121428571428571L41.52142857142857,4.121428571428571L41.52142857142857,2.521428571428572L66.47857142857141,2.521428571428572L66.47857142857141,3.478571428571428L57.47857142857142,3.478571428571428L57.47857142857142,3.907142857142857L57.26428571428571,3.907142857142857L57.26428571428571,4.335714285714285L57.05,4.335714285714285L57.05,4.5L56.95,4.5L56.95,4.235714285714286L57.16428571428572,4.235714285714286L57.16428571428572,3.8071428571428574L57.378571428571426,3.8071428571428574L57.378571428571426,3.3785714285714286L66.37857142857142,3.3785714285714286L66.37857142857142,2.6214285714285714L41.62142857142857,2.6214285714285714L41.62142857142857,4.021428571428571L41.83571428571428,4.021428571428571L41.83571428571428,4.235714285714286L42.05,4.235714285714286L42.05,4.45L42.26428571428571,4.45L42.26428571428571,5.0928571428571425L42.47857142857143,5.0928571428571425L42.47857142857143,5.307142857142857L43.55,5.307142857142857L43.55,5.521428571428571L51.47857142857142,5.521428571428571L51.47857142857142,7.978571428571428L51.05,7.978571428571428L51.05,8.192857142857143L50.83571428571428,8.192857142857143L50.83571428571428,9.907142857142858L46.66428571428572,9.907142857142858L46.66428571428572,9.692857142857143L46.02142857142857,9.692857142857143L46.02142857142857,9.478571428571428L45.59285714285714,9.478571428571428L45.59285714285714,9.264285714285716L44.52142857142857,9.264285714285716L44.52142857142857,9.05z" stroke="none"/><path d="M20.95,10.5L21.05,10.5L21.05,10.878571428571426L21.264285714285716,10.878571428571426L21.264285714285716,11.092857142857142L21.478571428571428,11.092857142857142L21.478571428571428,11.521428571428569L21.692857142857143,11.521428571428569L21.692857142857143,12.164285714285715L21.90714285714286,12.164285714285715L21.90714285714286,12.592857142857142L22.55,12.592857142857142L22.55,12.807142857142857L35.52142857142857,12.807142857142857L35.52142857142857,12.378571428571426L35.95,12.378571428571426L35.95,11.95L37.5,11.95L37.5,12.05L36.05,12.05L36.05,12.478571428571428L35.62142857142857,12.478571428571428L35.62142857142857,12.907142857142858L22.45,12.907142857142858L22.45,12.692857142857143L21.807142857142857,12.692857142857143L21.807142857142857,12.264285714285716L21.59285714285714,12.264285714285716L21.59285714285714,11.62142857142857L21.378571428571426,11.62142857142857L21.378571428571426,11.192857142857143L21.164285714285715,11.192857142857143L21.164285714285715,10.978571428571428L20.95,10.978571428571428z" stroke="none"/><path d="M65.99999999999999,12.05L65.99999999999999,11.95L71.62142857142855,11.95L71.62142857142855,12.378571428571426L79.44999999999999,12.378571428571426L79.44999999999999,11.735714285714284L79.66428571428571,11.735714285714284L79.66428571428571,11.521428571428569L81.37857142857142,11.521428571428569L81.37857142857142,10.664285714285715L81.80714285714285,10.664285714285715L81.80714285714285,10.45L82.49999999999999,10.45L82.49999999999999,10.55L81.90714285714284,10.55L81.90714285714284,10.764285714285716L81.47857142857141,10.764285714285716L81.47857142857141,11.62142857142857L79.7642857142857,11.62142857142857L79.7642857142857,11.835714285714285L79.54999999999998,11.835714285714285L79.54999999999998,12.478571428571428L71.52142857142856,12.478571428571428L71.52142857142856,12.05z" stroke="none"/><path d="M78.04999999999998,12L77.94999999999999,12L77.94999999999999,11.521428571428569L78.16428571428571,11.521428571428569L78.16428571428571,11.092857142857142L79.66428571428571,11.092857142857142L79.66428571428571,10.878571428571426L81.16428571428571,10.878571428571426L81.16428571428571,10.45L81.59285714285714,10.45L81.59285714285714,10.235714285714284L82.02142857142856,10.235714285714284L82.02142857142856,10.021428571428569L94.12142857142855,10.021428571428569L94.12142857142855,10.235714285714284L94.54999999999998,10.235714285714284L94.54999999999998,10.5L94.44999999999999,10.5L94.44999999999999,10.335714285714285L94.02142857142856,10.335714285714285L94.02142857142856,10.12142857142857L82.12142857142855,10.12142857142857L82.12142857142855,10.335714285714285L81.69285714285714,10.335714285714285L81.69285714285714,10.55L81.2642857142857,10.55L81.2642857142857,10.978571428571428L79.7642857142857,10.978571428571428L79.7642857142857,11.192857142857143L78.2642857142857,11.192857142857143L78.2642857142857,11.62142857142857L78.04999999999998,11.62142857142857z" stroke="none"/><path d="M46.5,12.05L46.5,11.95L47.192857142857136,11.95L47.192857142857136,12.164285714285715L47.62142857142857,12.164285714285715L47.62142857142857,12.378571428571426L59.52142857142857,12.378571428571426L59.52142857142857,12.164285714285715L62.52142857142857,12.164285714285715L62.52142857142857,11.95L64.49999999999999,11.95L64.49999999999999,12.05L62.62142857142857,12.05L62.62142857142857,12.264285714285716L59.62142857142857,12.264285714285716L59.62142857142857,12.478571428571428L47.52142857142857,12.478571428571428L47.52142857142857,12.264285714285716L47.09285714285714,12.264285714285716L47.09285714285714,12.05z" stroke="none"/><path d="M95.99999999999999,7.45L95.99999999999999,7.55L76.49999999999999,7.55L76.49999999999999,7.45z" stroke="none"/><path d="M31.5,10.55L31.5,10.45L37.76428571428571,10.45L37.76428571428571,11.092857142857142L37.97857142857143,11.092857142857142L37.97857142857143,12.478571428571428L36.90714285714285,12.478571428571428L36.90714285714285,12.692857142857143L35.83571428571428,12.692857142857143L35.83571428571428,13.12142857142857L13.021428571428569,13.12142857142857L13.021428571428569,12.05L12.807142857142857,12.05L12.807142857142857,11.62142857142857L9.592857142857142,11.62142857142857L9.592857142857142,11.407142857142858L9.378571428571426,11.407142857142858L9.378571428571426,11.192857142857143L8.735714285714284,11.192857142857143L8.735714285714284,10.764285714285716L8.521428571428569,10.764285714285716L8.521428571428569,10.12142857142857L8.092857142857142,10.12142857142857L8.092857142857142,9.907142857142858L7.235714285714286,9.907142857142858L7.235714285714286,9.478571428571428L7.021428571428571,9.478571428571428L7.021428571428571,8.835714285714285L6.807142857142857,8.835714285714285L6.807142857142857,8.407142857142858L6.5928571428571425,8.407142857142858L6.5928571428571425,8.192857142857143L6.378571428571428,8.192857142857143L6.378571428571428,7.764285714285714L5.95,7.764285714285714L5.95,7.55L5.521428571428571,7.55L5.521428571428571,7.335714285714285L5.307142857142857,7.335714285714285L5.307142857142857,6.907142857142857L5.0928571428571425,6.907142857142857L5.0928571428571425,6.264285714285714L4.878571428571429,6.264285714285714L4.878571428571429,6.05L4.45,6.05L4.45,5.192857142857142L4.235714285714286,5.192857142857142L4.235714285714286,4.764285714285714L3.8071428571428574,4.764285714285714L3.8071428571428574,4.55L3.592857142857143,4.55L3.592857142857143,4.121428571428571L3.1642857142857146,4.121428571428571L3.1642857142857146,3.6928571428571426L2.95,3.6928571428571426L2.95,3.478571428571428L2.521428571428572,3.478571428571428L2.521428571428572,2.521428571428572L5.192857142857142,2.521428571428572L5.192857142857142,2.95L6.264285714285714,2.95L6.264285714285714,3.3785714285714286L7.121428571428571,3.3785714285714286L7.121428571428571,3.592857142857143L7.335714285714285,3.592857142857143L7.335714285714285,4.021428571428571L7.55,4.021428571428571L7.55,4.235714285714286L7.764285714285714,4.235714285714286L7.764285714285714,4.878571428571429L7.978571428571428,4.878571428571429L7.978571428571428,5.0928571428571425L8.407142857142858,5.0928571428571425L8.407142857142858,5.307142857142857L8.835714285714285,5.307142857142857L8.835714285714285,5.521428571428571L9.478571428571428,5.521428571428571L9.478571428571428,5.735714285714286L9.907142857142858,5.735714285714286L9.907142857142858,5.95L10.5,5.95L10.5,6.05L9.807142857142857,6.05L9.807142857142857,5.835714285714285L9.378571428571426,5.835714285714285L9.378571428571426,5.621428571428571L8.735714285714284,5.621428571428571L8.735714285714284,5.407142857142857L8.307142857142857,5.407142857142857L8.307142857142857,5.192857142857142L7.878571428571428,5.192857142857142L7.878571428571428,4.978571428571429L7.664285714285715,4.978571428571429L7.664285714285715,4.335714285714285L7.45,4.335714285714285L7.45,4.121428571428571L7.235714285714286,4.121428571428571L7.235714285714286,3.6928571428571426L7.021428571428571,3.6928571428571426L7.021428571428571,3.478571428571428L6.164285714285715,3.478571428571428L6.164285714285715,3.05L5.0928571428571425,3.05L5.0928571428571425,2.6214285714285714L2.6214285714285714,2.6214285714285714L2.6214285714285714,3.3785714285714286L3.05,3.3785714285714286L3.05,3.592857142857143L3.2642857142857142,3.592857142857143L3.2642857142857142,4.021428571428571L3.6928571428571426,4.021428571428571L3.6928571428571426,4.45L3.907142857142857,4.45L3.907142857142857,4.664285714285715L4.335714285714285,4.664285714285715L4.335714285714285,5.0928571428571425L4.55,5.0928571428571425L4.55,5.95L4.978571428571429,5.95L4.978571428571429,6.164285714285715L5.192857142857142,6.164285714285715L5.192857142857142,6.807142857142857L5.407142857142857,6.807142857142857L5.407142857142857,7.235714285714286L5.621428571428571,7.235714285714286L5.621428571428571,7.45L6.05,7.45L6.05,7.664285714285715L6.478571428571428,7.664285714285715L6.478571428571428,8.092857142857142L6.692857142857142,8.092857142857142L6.692857142857142,8.307142857142857L6.907142857142857,8.307142857142857L6.907142857142857,8.735714285714284L7.121428571428571,8.735714285714284L7.121428571428571,9.378571428571426L7.335714285714285,9.378571428571426L7.335714285714285,9.807142857142857L8.192857142857143,9.807142857142857L8.192857142857143,10.021428571428569L8.62142857142857,10.021428571428569L8.62142857142857,10.664285714285715L8.835714285714285,10.664285714285715L8.835714285714285,11.092857142857142L9.478571428571428,11.092857142857142L9.478571428571428,11.307142857142857L9.692857142857143,11.307142857142857L9.692857142857143,11.521428571428569L12.907142857142858,11.521428571428569L12.907142857142858,11.95L13.12142857142857,11.95L13.12142857142857,13.021428571428569L35.73571428571429,13.021428571428569L35.73571428571429,12.592857142857142L36.80714285714286,12.592857142857142L36.80714285714286,12.378571428571426L37.87857142857143,12.378571428571426L37.87857142857143,11.192857142857143L37.66428571428572,11.192857142857143L37.66428571428572,10.55z" stroke="none"/><path d="M79.49999999999999,6.05L79.49999999999999,5.95L81.37857142857142,5.95L81.37857142857142,5.735714285714286L81.59285714285714,5.735714285714286L81.59285714285714,5.521428571428571L81.80714285714285,5.521428571428571L81.80714285714285,5.0928571428571425L82.02142857142856,5.0928571428571425L82.02142857142856,4.664285714285715L86.30714285714285,4.664285714285715L86.30714285714285,4.235714285714286L86.52142857142856,4.235714285714286L86.52142857142856,4.021428571428571L92.62142857142855,4.021428571428571L92.62142857142855,4.235714285714286L93.2642857142857,4.235714285714286L93.2642857142857,4.664285714285715L93.47857142857141,4.664285714285715L93.47857142857141,4.878571428571429L100.44999999999999,4.878571428571429L100.44999999999999,4.664285714285715L100.66428571428571,4.664285714285715L100.66428571428571,4.45L101.99999999999999,4.45L101.99999999999999,4.55L100.7642857142857,4.55L100.7642857142857,4.764285714285714L100.54999999999998,4.764285714285714L100.54999999999998,4.978571428571429L93.37857142857142,4.978571428571429L93.37857142857142,4.764285714285714L93.16428571428571,4.764285714285714L93.16428571428571,4.335714285714285L92.52142857142856,4.335714285714285L92.52142857142856,4.121428571428571L86.62142857142855,4.121428571428571L86.62142857142855,4.335714285714285L86.40714285714284,4.335714285714285L86.40714285714284,4.764285714285714L82.12142857142855,4.764285714285714L82.12142857142855,5.192857142857142L81.90714285714284,5.192857142857142L81.90714285714284,5.621428571428571L81.69285714285714,5.621428571428571L81.69285714285714,5.835714285714285L81.47857142857141,5.835714285714285L81.47857142857141,6.05z" stroke="none"/><path d="M43.5,4.55L43.5,4.45L45.692857142857136,4.45L45.692857142857136,4.878571428571429L45.90714285714285,4.878571428571429L45.90714285714285,5.0928571428571425L47.40714285714285,5.0928571428571425L47.40714285714285,5.307142857142857L51.692857142857136,5.307142857142857L51.692857142857136,7.021428571428571L51.90714285714285,7.021428571428571L51.90714285714285,7.235714285714286L53.192857142857136,7.235714285714286L53.192857142857136,7.45L53.40714285714285,7.45L53.40714285714285,7.664285714285715L53.62142857142857,7.664285714285715L53.62142857142857,7.878571428571428L54.05,7.878571428571428L54.05,8.092857142857142L56.192857142857136,8.092857142857142L56.192857142857136,8.521428571428569L56.40714285714285,8.521428571428569L56.40714285714285,9.164285714285715L56.62142857142857,9.164285714285715L56.62142857142857,9.378571428571426L65.52142857142856,9.378571428571426L65.52142857142856,9.164285714285715L65.94999999999999,9.164285714285715L65.94999999999999,9L66.04999999999998,9L66.04999999999998,9.264285714285716L65.62142857142855,9.264285714285716L65.62142857142855,9.478571428571428L56.52142857142857,9.478571428571428L56.52142857142857,9.264285714285716L56.30714285714286,9.264285714285716L56.30714285714286,8.62142857142857L56.09285714285714,8.62142857142857L56.09285714285714,8.192857142857143L53.95,8.192857142857143L53.95,7.978571428571428L53.52142857142857,7.978571428571428L53.52142857142857,7.764285714285714L53.30714285714286,7.764285714285714L53.30714285714286,7.55L53.09285714285714,7.55L53.09285714285714,7.335714285714285L51.80714285714286,7.335714285714285L51.80714285714286,7.121428571428571L51.59285714285714,7.121428571428571L51.59285714285714,5.407142857142857L47.30714285714286,5.407142857142857L47.30714285714286,5.192857142857142L45.80714285714286,5.192857142857142L45.80714285714286,4.978571428571429L45.59285714285714,4.978571428571429L45.59285714285714,4.55z" stroke="none"/><path d="M102.04999999999998,6L101.94999999999999,6L101.94999999999999,5.521428571428571L102.16428571428571,5.521428571428571L102.16428571428571,5.0928571428571425L102.37857142857142,5.0928571428571425L102.37857142857142,4.121428571428571L95.73571428571428,4.121428571428571L95.73571428571428,3.907142857142857L95.52142857142856,3.907142857142857L95.52142857142856,3.6928571428571426L95.30714285714285,3.6928571428571426L95.30714285714285,2.8357142857142854L94.87857142857142,2.8357142857142854L94.87857142857142,2.6214285714285714L78.47857142857141,2.6214285714285714L78.47857142857141,3.05L77.99999999999999,3.05L77.99999999999999,2.95L78.37857142857142,2.95L78.37857142857142,2.521428571428572L94.97857142857141,2.521428571428572L94.97857142857141,2.7357142857142858L95.40714285714284,2.7357142857142858L95.40714285714284,3.592857142857143L95.62142857142855,3.592857142857143L95.62142857142855,3.8071428571428574L95.83571428571427,3.8071428571428574L95.83571428571427,4.021428571428571L102.47857142857141,4.021428571428571L102.47857142857141,5.192857142857142L102.2642857142857,5.192857142857142L102.2642857142857,5.621428571428571L102.04999999999998,5.621428571428571z" stroke="none"/><path d="M63,7.45L63,7.55L62.73571428571429,7.55L62.73571428571429,7.335714285714285L62.09285714285714,7.335714285714285L62.09285714285714,7.121428571428571L61.12142857142857,7.121428571428571L61.12142857142857,7.878571428571428L61.55,7.878571428571428L61.55,8.092857142857142L66.37857142857142,8.092857142857142L66.37857142857142,7.664285714285715L66.80714285714285,7.664285714285715L66.80714285714285,7.021428571428571L67.97857142857141,7.021428571428571L67.97857142857141,7.978571428571428L67.7642857142857,7.978571428571428L67.7642857142857,8.192857142857143L67.33571428571427,8.192857142857143L67.33571428571427,8.835714285714285L66.69285714285714,8.835714285714285L66.69285714285714,9.478571428571428L65.83571428571427,9.478571428571428L65.83571428571427,9.692857142857143L51.05,9.692857142857143L51.05,10.12142857142857L46.45,10.12142857142857L46.45,9.907142857142858L41.30714285714286,9.907142857142858L41.30714285714286,9.692857142857143L37.23571428571429,9.692857142857143L37.23571428571429,9.478571428571428L37.02142857142857,9.478571428571428L37.02142857142857,9.264285714285716L36.80714285714286,9.264285714285716L36.80714285714286,9.05L36,9.05L36,8.95L36.90714285714285,8.95L36.90714285714285,9.164285714285715L37.12142857142857,9.164285714285715L37.12142857142857,9.378571428571426L37.33571428571428,9.378571428571426L37.33571428571428,9.592857142857142L41.40714285714285,9.592857142857142L41.40714285714285,9.807142857142857L46.55,9.807142857142857L46.55,10.021428571428569L50.95,10.021428571428569L50.95,9.592857142857142L65.73571428571428,9.592857142857142L65.73571428571428,9.378571428571426L66.59285714285714,9.378571428571426L66.59285714285714,8.735714285714284L67.23571428571428,8.735714285714284L67.23571428571428,8.092857142857142L67.66428571428571,8.092857142857142L67.66428571428571,7.878571428571428L67.87857142857142,7.878571428571428L67.87857142857142,7.121428571428571L66.90714285714284,7.121428571428571L66.90714285714284,7.764285714285714L66.47857142857141,7.764285714285714L66.47857142857141,8.192857142857143L61.45,8.192857142857143L61.45,7.978571428571428L61.02142857142857,7.978571428571428L61.02142857142857,7.021428571428571L62.192857142857136,7.021428571428571L62.192857142857136,7.235714285714286L62.83571428571428,7.235714285714286L62.83571428571428,7.45z" stroke="none"/><path d="M15,3.05L15,2.95L15.807142857142857,2.95L15.807142857142857,2.7357142857142858L16.02142857142857,2.7357142857142858L16.02142857142857,2.521428571428572L40.33571428571428,2.521428571428572L40.33571428571428,2.7357142857142858L40.55,2.7357142857142858L40.55,3.592857142857143L40.97857142857143,3.592857142857143L40.97857142857143,4.235714285714286L41.192857142857136,4.235714285714286L41.192857142857136,4.45L41.40714285714285,4.45L41.40714285714285,6.378571428571428L41.83571428571428,6.378571428571428L41.83571428571428,6.807142857142857L42.05,6.807142857142857L42.05,7.021428571428571L42.47857142857143,7.021428571428571L42.47857142857143,7.235714285714286L43.33571428571428,7.235714285714286L43.33571428571428,7.45L43.5,7.45L43.5,7.55L43.23571428571429,7.55L43.23571428571429,7.335714285714285L42.37857142857143,7.335714285714285L42.37857142857143,7.121428571428571L41.95,7.121428571428571L41.95,6.907142857142857L41.73571428571429,6.907142857142857L41.73571428571429,6.478571428571428L41.30714285714286,6.478571428571428L41.30714285714286,4.55L41.09285714285714,4.55L41.09285714285714,4.335714285714285L40.87857142857143,4.335714285714285L40.87857142857143,3.6928571428571426L40.45,3.6928571428571426L40.45,2.8357142857142854L40.23571428571429,2.8357142857142854L40.23571428571429,2.6214285714285714L16.12142857142857,2.6214285714285714L16.12142857142857,2.8357142857142854L15.907142857142858,2.8357142857142854L15.907142857142858,3.05z" stroke="none"/><path d="M30,2.95L30,3.05L28.12142857142857,3.05L28.12142857142857,3.2642857142857142L27.90714285714286,3.2642857142857142L27.90714285714286,3.478571428571428L23.192857142857143,3.478571428571428L23.192857142857143,3.6928571428571426L22.764285714285716,3.6928571428571426L22.764285714285716,4.121428571428571L22.55,4.121428571428571L22.55,4.55L22.121428571428574,4.55L22.121428571428574,4.764285714285714L21.90714285714286,4.764285714285714L21.90714285714286,4.978571428571429L13.45,4.978571428571429L13.45,4.764285714285714L12.807142857142857,4.764285714285714L12.807142857142857,4.55L12.592857142857142,4.55L12.592857142857142,4.335714285714285L12.164285714285715,4.335714285714285L12.164285714285715,4.121428571428571L11.735714285714284,4.121428571428571L11.735714285714284,3.478571428571428L11.521428571428569,3.478571428571428L11.521428571428569,2.521428571428572L15.164285714285715,2.521428571428572L15.164285714285715,2.3071428571428574L70.12142857142855,2.3071428571428574L70.12142857142855,2.521428571428572L70.97857142857141,2.521428571428572L70.97857142857141,3.478571428571428L70.7642857142857,3.478571428571428L70.7642857142857,3.6928571428571426L70.33571428571427,3.6928571428571426L70.33571428571427,3.907142857142857L69.90714285714284,3.907142857142857L69.90714285714284,4.121428571428571L69.69285714285714,4.121428571428571L69.69285714285714,4.335714285714285L68.62142857142855,4.335714285714285L68.62142857142855,4.55L67.49999999999999,4.55L67.49999999999999,4.45L68.52142857142856,4.45L68.52142857142856,4.235714285714286L69.59285714285714,4.235714285714286L69.59285714285714,4.021428571428571L69.80714285714285,4.021428571428571L69.80714285714285,3.8071428571428574L70.23571428571428,3.8071428571428574L70.23571428571428,3.592857142857143L70.66428571428571,3.592857142857143L70.66428571428571,3.3785714285714286L70.87857142857142,3.3785714285714286L70.87857142857142,2.6214285714285714L70.02142857142856,2.6214285714285714L70.02142857142856,2.407142857142857L15.264285714285716,2.407142857142857L15.264285714285716,2.6214285714285714L11.62142857142857,2.6214285714285714L11.62142857142857,3.3785714285714286L11.835714285714285,3.3785714285714286L11.835714285714285,4.021428571428571L12.264285714285716,4.021428571428571L12.264285714285716,4.235714285714286L12.692857142857143,4.235714285714286L12.692857142857143,4.45L12.907142857142858,4.45L12.907142857142858,4.664285714285715L13.55,4.664285714285715L13.55,4.878571428571429L21.807142857142857,4.878571428571429L21.807142857142857,4.664285714285715L22.021428571428572,4.664285714285715L22.021428571428572,4.45L22.45,4.45L22.45,4.021428571428571L22.664285714285715,4.021428571428571L22.664285714285715,3.592857142857143L23.09285714285714,3.592857142857143L23.09285714285714,3.3785714285714286L27.807142857142857,3.3785714285714286L27.807142857142857,3.1642857142857146L28.02142857142857,3.1642857142857146L28.02142857142857,2.95z" stroke="none"/><path d="M55.5,12.05L55.5,11.95L62.30714285714286,11.95L62.30714285714286,11.735714285714284L64.02142857142857,11.735714285714284L64.02142857142857,11.521428571428569L65.19285714285714,11.521428571428569L65.19285714285714,11.735714285714284L65.40714285714284,11.735714285714284L65.40714285714284,12.164285714285715L65.62142857142855,12.164285714285715L65.62142857142855,12.378571428571426L71.40714285714284,12.378571428571426L71.40714285714284,12.592857142857142L95.73571428571428,12.592857142857142L95.73571428571428,12.164285714285715L95.94999999999999,12.164285714285715L95.94999999999999,12L96.04999999999998,12L96.04999999999998,12.264285714285716L95.83571428571427,12.264285714285716L95.83571428571427,12.692857142857143L71.30714285714285,12.692857142857143L71.30714285714285,12.478571428571428L65.52142857142856,12.478571428571428L65.52142857142856,12.264285714285716L65.30714285714285,12.264285714285716L65.30714285714285,11.835714285714285L65.09285714285714,11.835714285714285L65.09285714285714,11.62142857142857L64.12142857142857,11.62142857142857L64.12142857142857,11.835714285714285L62.40714285714285,11.835714285714285L62.40714285714285,12.05z" stroke="none"/><path d="M48.05,12L47.95,12L47.95,11.835714285714285L47.52142857142857,11.835714285714285L47.52142857142857,11.62142857142857L43.33571428571428,11.62142857142857L43.33571428571428,11.835714285714285L43.12142857142857,11.835714285714285L43.12142857142857,12.05L42.90714285714285,12.05L42.90714285714285,12.264285714285716L42.692857142857136,12.264285714285716L42.692857142857136,12.478571428571428L38.62142857142857,12.478571428571428L38.62142857142857,12.692857142857143L37.97857142857143,12.692857142857143L37.97857142857143,12.907142857142858L36.26428571428571,12.907142857142858L36.26428571428571,13.12142857142857L36.05,13.12142857142857L36.05,13.335714285714285L6.5928571428571425,13.335714285714285L6.5928571428571425,12.264285714285716L6.378571428571428,12.264285714285716L6.378571428571428,12.05L5.95,12.05L5.95,11.835714285714285L5.735714285714286,11.835714285714285L5.735714285714286,11.407142857142858L5.307142857142857,11.407142857142858L5.307142857142857,10.978571428571428L5.0928571428571425,10.978571428571428L5.0928571428571425,10.55L4.878571428571429,10.55L4.878571428571429,9.907142857142858L4.664285714285715,9.907142857142858L4.664285714285715,9.264285714285716L4.45,9.264285714285716L4.45,9L4.55,9L4.55,9.164285714285715L4.764285714285714,9.164285714285715L4.764285714285714,9.807142857142857L4.978571428571429,9.807142857142857L4.978571428571429,10.45L5.192857142857142,10.45L5.192857142857142,10.878571428571426L5.407142857142857,10.878571428571426L5.407142857142857,11.307142857142857L5.835714285714285,11.307142857142857L5.835714285714285,11.735714285714284L6.05,11.735714285714284L6.05,11.95L6.478571428571428,11.95L6.478571428571428,12.164285714285715L6.692857142857142,12.164285714285715L6.692857142857142,13.235714285714284L35.95,13.235714285714284L35.95,13.021428571428569L36.16428571428572,13.021428571428569L36.16428571428572,12.807142857142857L37.87857142857143,12.807142857142857L37.87857142857143,12.592857142857142L38.52142857142857,12.592857142857142L38.52142857142857,12.378571428571426L42.59285714285714,12.378571428571426L42.59285714285714,12.164285714285715L42.80714285714286,12.164285714285715L42.80714285714286,11.95L43.02142857142857,11.95L43.02142857142857,11.735714285714284L43.23571428571429,11.735714285714284L43.23571428571429,11.521428571428569L47.62142857142857,11.521428571428569L47.62142857142857,11.735714285714284L48.05,11.735714285714284z" stroke="none"/><path d="M78.04999999999998,4.5L77.94999999999999,4.5L77.94999999999999,3.907142857142857L77.73571428571428,3.907142857142857L77.73571428571428,3.6928571428571426L73.02142857142856,3.6928571428571426L73.02142857142856,3.478571428571428L72.80714285714285,3.478571428571428L72.80714285714285,3.05L71.30714285714285,3.05L71.30714285714285,2.6214285714285714L71.09285714285714,2.6214285714285714L71.09285714285714,2.407142857142857L70.23571428571428,2.407142857142857L70.23571428571428,2.1928571428571426L11.407142857142858,2.1928571428571426L11.407142857142858,4.235714285714286L11.62142857142857,4.235714285714286L11.62142857142857,4.45L12.478571428571428,4.45L12.478571428571428,4.664285714285715L12.692857142857143,4.664285714285715L12.692857142857143,4.878571428571429L13.335714285714285,4.878571428571429L13.335714285714285,5.0928571428571425L22.664285714285715,5.0928571428571425L22.664285714285715,4.235714285714286L22.878571428571426,4.235714285714286L22.878571428571426,3.8071428571428574L23.52142857142857,3.8071428571428574L23.52142857142857,3.592857142857143L32.52142857142857,3.592857142857143L32.52142857142857,3.3785714285714286L32.73571428571429,3.3785714285714286L32.73571428571429,2.95L33,2.95L33,3.05L32.83571428571428,3.05L32.83571428571428,3.478571428571428L32.62142857142857,3.478571428571428L32.62142857142857,3.6928571428571426L23.62142857142857,3.6928571428571426L23.62142857142857,3.907142857142857L22.978571428571428,3.907142857142857L22.978571428571428,4.335714285714285L22.764285714285716,4.335714285714285L22.764285714285716,5.192857142857142L13.235714285714284,5.192857142857142L13.235714285714284,4.978571428571429L12.592857142857142,4.978571428571429L12.592857142857142,4.764285714285714L12.378571428571426,4.764285714285714L12.378571428571426,4.55L11.521428571428569,4.55L11.521428571428569,4.335714285714285L11.307142857142857,4.335714285714285L11.307142857142857,2.092857142857143L70.33571428571427,2.092857142857143L70.33571428571427,2.3071428571428574L71.19285714285714,2.3071428571428574L71.19285714285714,2.521428571428572L71.40714285714284,2.521428571428572L71.40714285714284,2.95L72.90714285714284,2.95L72.90714285714284,3.3785714285714286L73.12142857142855,3.3785714285714286L73.12142857142855,3.592857142857143L77.83571428571427,3.592857142857143L77.83571428571427,3.8071428571428574L78.04999999999998,3.8071428571428574z" stroke="none"/><path d="M25.5,5.95L25.5,6.05L13.235714285714284,6.05L13.235714285714284,5.621428571428571L13.021428571428569,5.621428571428571L13.021428571428569,5.192857142857142L12.164285714285715,5.192857142857142L12.164285714285715,4.978571428571429L11.307142857142857,4.978571428571429L11.307142857142857,4.764285714285714L11.092857142857142,4.764285714285714L11.092857142857142,1.8785714285714286L100.54999999999998,1.8785714285714286L100.54999999999998,2.092857142857143L100.7642857142857,2.092857142857143L100.7642857142857,2.3071428571428574L101.19285714285712,2.3071428571428574L101.19285714285712,2.7357142857142858L101.62142857142855,2.7357142857142858L101.62142857142855,3.1642857142857146L101.83571428571427,3.1642857142857146L101.83571428571427,3.3785714285714286L102.04999999999998,3.3785714285714286L102.04999999999998,3.592857142857143L102.69285714285712,3.592857142857143L102.69285714285712,6.907142857142857L102.47857142857141,6.907142857142857L102.47857142857141,7.121428571428571L101.83571428571427,7.121428571428571L101.83571428571427,7.335714285714285L101.62142857142855,7.335714285714285L101.62142857142855,7.978571428571428L101.40714285714284,7.978571428571428L101.40714285714284,8.62142857142857L101.19285714285712,8.62142857142857L101.19285714285712,9.264285714285716L100.97857142857141,9.264285714285716L100.97857142857141,9.478571428571428L79.66428571428571,9.478571428571428L79.66428571428571,9.264285714285716L79.02142857142856,9.264285714285716L79.02142857142856,9.05L78.59285714285714,9.05L78.59285714285714,8.835714285714285L77.30714285714285,8.835714285714285L77.30714285714285,8.62142857142857L70.7642857142857,8.62142857142857L70.7642857142857,8.835714285714285L70.54999999999998,8.835714285714285L70.54999999999998,9L70.44999999999999,9L70.44999999999999,8.735714285714284L70.66428571428571,8.735714285714284L70.66428571428571,8.521428571428569L77.40714285714284,8.521428571428569L77.40714285714284,8.735714285714284L78.69285714285714,8.735714285714284L78.69285714285714,8.95L79.12142857142855,8.95L79.12142857142855,9.164285714285715L79.7642857142857,9.164285714285715L79.7642857142857,9.378571428571426L100.87857142857142,9.378571428571426L100.87857142857142,9.164285714285715L101.09285714285713,9.164285714285715L101.09285714285713,8.521428571428569L101.30714285714285,8.521428571428569L101.30714285714285,7.878571428571428L101.52142857142856,7.878571428571428L101.52142857142856,7.235714285714286L101.73571428571428,7.235714285714286L101.73571428571428,7.021428571428571L102.37857142857142,7.021428571428571L102.37857142857142,6.807142857142857L102.59285714285713,6.807142857142857L102.59285714285713,3.6928571428571426L101.94999999999999,3.6928571428571426L101.94999999999999,3.478571428571428L101.73571428571428,3.478571428571428L101.73571428571428,3.2642857142857142L101.52142857142856,3.2642857142857142L101.52142857142856,2.8357142857142854L101.09285714285713,2.8357142857142854L101.09285714285713,2.407142857142857L100.66428571428571,2.407142857142857L100.66428571428571,2.1928571428571426L100.44999999999999,2.1928571428571426L100.44999999999999,1.9785714285714286L11.192857142857143,1.9785714285714286L11.192857142857143,4.664285714285715L11.407142857142858,4.664285714285715L11.407142857142858,4.878571428571429L12.264285714285716,4.878571428571429L12.264285714285716,5.0928571428571425L13.12142857142857,5.0928571428571425L13.12142857142857,5.521428571428571L13.335714285714285,5.521428571428571L13.335714285714285,5.95z" stroke="none"/></svg>