<svg version="1.1" width="105" height="15" xmlns="http://www.w3.org/2000/svg"><path d="M44.95,6.5928571428571425L44.95,6L45.05,6L45.05,6.5928571428571425L49.878571428571426,6.5928571428571425L49.878571428571426,6.378571428571428L50.09285714285714,6.378571428571428L50.09285714285714,5.95L50.52142857142857,5.95L50.52142857142857,5.0928571428571425L50.73571428571429,5.0928571428571425L50.73571428571429,4.45L51,4.45L51,4.55L50.83571428571428,4.55L50.83571428571428,5.192857142857142L50.62142857142857,5.192857142857142L50.62142857142857,6.05L50.192857142857136,6.05L50.192857142857136,6.478571428571428L49.97857142857142,6.478571428571428L49.97857142857142,6.692857142857142L40.55,6.692857142857142L40.55,6.907142857142857L40.33571428571428,6.907142857142857L40.33571428571428,7.764285714285714L40.12142857142857,7.764285714285714L40.12142857142857,8.192857142857143L39.47857142857143,8.192857142857143L39.47857142857143,9.05L39,9.05L39,8.95L39.37857142857143,8.95L39.37857142857143,8.092857142857142L40.02142857142857,8.092857142857142L40.02142857142857,7.664285714285715L40.23571428571429,7.664285714285715L40.23571428571429,6.807142857142857L40.45,6.807142857142857L40.45,6.5928571428571425z" stroke="none"/><path d="M95.30714285714285,4.878571428571429L95.30714285714285,4.45L97.49999999999999,4.45L97.49999999999999,4.55L95.40714285714284,4.55L95.40714285714284,4.978571428571429L79.54999999999998,4.978571428571429L79.54999999999998,5.192857142857142L63.47857142857142,5.192857142857142L63.47857142857142,5.407142857142857L63.05,5.407142857142857L63.05,6L62.95,6L62.95,5.307142857142857L63.378571428571426,5.307142857142857L63.378571428571426,5.0928571428571425L79.44999999999999,5.0928571428571425L79.44999999999999,4.978571428571429L79.23571428571428,4.978571428571429L79.23571428571428,4.764285714285714L78.37857142857142,4.764285714285714L78.37857142857142,4.55L77.99999999999999,4.55L77.99999999999999,4.45L78.47857142857141,4.45L78.47857142857141,4.664285714285715L79.33571428571427,4.664285714285715L79.33571428571427,4.878571428571429z" stroke="none"/><path d="M93.80714285714285,6.5928571428571425L94.02142857142856,6.5928571428571425L94.02142857142856,5.95L94.49999999999999,5.95L94.49999999999999,6.05L94.12142857142855,6.05L94.12142857142855,6.692857142857142L93.90714285714284,6.692857142857142L93.90714285714284,8.307142857142857L95.83571428571427,8.307142857142857L95.83571428571427,8.735714285714284L96.04999999999998,8.735714285714284L96.04999999999998,9L95.94999999999999,9L95.94999999999999,8.835714285714285L95.73571428571428,8.835714285714285L95.73571428571428,8.407142857142858L93.90714285714284,8.407142857142858L93.90714285714284,8.835714285714285L93.69285714285712,8.835714285714285L93.69285714285712,9.264285714285716L93.04999999999998,9.264285714285716L93.04999999999998,9.907142857142858L92.62142857142855,9.907142857142858L92.62142857142855,10.12142857142857L92.40714285714284,10.12142857142857L92.40714285714284,10.335714285714285L91.7642857142857,10.335714285714285L91.7642857142857,10.55L91.49999999999999,10.55L91.49999999999999,10.45L91.66428571428571,10.45L91.66428571428571,10.235714285714284L92.30714285714285,10.235714285714284L92.30714285714285,10.021428571428569L92.52142857142856,10.021428571428569L92.52142857142856,9.807142857142857L92.94999999999999,9.807142857142857L92.94999999999999,9.164285714285715L93.59285714285713,9.164285714285715L93.59285714285713,8.735714285714284L93.80714285714285,8.735714285714284z" stroke="none"/><path d="M81.69285714285714,9.807142857142857L81.69285714285714,10.021428571428569L82.33571428571427,10.021428571428569L82.33571428571427,10.878571428571426L82.54999999999998,10.878571428571426L82.54999999999998,11.521428571428569L83.62142857142855,11.521428571428569L83.62142857142855,11.735714285714284L84.2642857142857,11.735714285714284L84.2642857142857,11.95L85.49999999999999,11.95L85.49999999999999,12.05L84.16428571428571,12.05L84.16428571428571,11.835714285714285L83.52142857142856,11.835714285714285L83.52142857142856,11.62142857142857L82.44999999999999,11.62142857142857L82.44999999999999,10.978571428571428L82.23571428571428,10.978571428571428L82.23571428571428,10.12142857142857L81.59285714285714,10.12142857142857L81.59285714285714,9.907142857142858L67.54999999999998,9.907142857142858L67.54999999999998,10.12142857142857L54.90714285714285,10.12142857142857L54.90714285714285,10.335714285714285L54.47857142857142,10.335714285714285L54.47857142857142,10.55L54,10.55L54,10.45L54.378571428571426,10.45L54.378571428571426,10.235714285714284L54.80714285714286,10.235714285714284L54.80714285714286,10.021428571428569L67.44999999999999,10.021428571428569L67.44999999999999,9.907142857142858L65.52142857142856,9.907142857142858L65.52142857142856,9.692857142857143L64.23571428571428,9.692857142857143L64.23571428571428,9.478571428571428L64.02142857142857,9.478571428571428L64.02142857142857,9.05L63.80714285714286,9.05L63.80714285714286,8.62142857142857L63.59285714285714,8.62142857142857L63.59285714285714,7.55L63,7.55L63,7.45L63.692857142857136,7.45L63.692857142857136,8.521428571428569L63.90714285714285,8.521428571428569L63.90714285714285,8.95L64.12142857142857,8.95L64.12142857142857,9.378571428571426L64.33571428571427,9.378571428571426L64.33571428571427,9.592857142857142L65.62142857142855,9.592857142857142L65.62142857142855,9.807142857142857z" stroke="none"/><path d="M60.692857142857136,11.307142857142857L60.692857142857136,11.521428571428569L61.55,11.521428571428569L61.55,11.735714285714284L61.76428571428571,11.735714285714284L61.76428571428571,11.95L63,11.95L63,12.05L61.66428571428572,12.05L61.66428571428572,11.835714285714285L61.45,11.835714285714285L61.45,11.62142857142857L60.59285714285714,11.62142857142857L60.59285714285714,11.407142857142858L33.47857142857143,11.407142857142858L33.47857142857143,11.62142857142857L18.90714285714286,11.62142857142857L18.90714285714286,11.835714285714285L18.692857142857143,11.835714285714285L18.692857142857143,12.05L18,12.05L18,11.95L18.59285714285714,11.95L18.59285714285714,11.735714285714284L18.807142857142857,11.735714285714284L18.807142857142857,11.521428571428569L33.37857142857143,11.521428571428569L33.37857142857143,11.407142857142858L20.521428571428572,11.407142857142858L20.521428571428572,10.978571428571428L19.878571428571426,10.978571428571428L19.878571428571426,10.55L19.5,10.55L19.5,10.45L19.978571428571428,10.45L19.978571428571428,10.878571428571426L20.621428571428574,10.878571428571426L20.621428571428574,11.307142857142857z" stroke="none"/><path d="M34.45,9.807142857142857L34.45,9.692857142857143L17.95,9.692857142857143L17.95,9.05L17.735714285714284,9.05L17.735714285714284,8.62142857142857L17.307142857142857,8.62142857142857L17.307142857142857,7.764285714285714L16.664285714285715,7.764285714285714L16.664285714285715,7.55L16.5,7.55L16.5,7.45L16.764285714285716,7.45L16.764285714285716,7.664285714285715L17.40714285714286,7.664285714285715L17.40714285714286,8.521428571428569L17.835714285714285,8.521428571428569L17.835714285714285,8.95L18.05,8.95L18.05,9.592857142857142L34.55,9.592857142857142L34.55,9.807142857142857L50.62142857142857,9.807142857142857L50.62142857142857,10.235714285714284L51.05,10.235714285714284L51.05,10.5L50.95,10.5L50.95,10.335714285714285L50.52142857142857,10.335714285714285L50.52142857142857,9.907142857142858L34.55,9.907142857142858L34.55,10.5L34.45,10.5L34.45,9.907142857142858L19.121428571428574,9.907142857142858L19.121428571428574,10.764285714285716L18.90714285714286,10.764285714285716L18.90714285714286,10.978571428571428L18.478571428571428,10.978571428571428L18.478571428571428,11.192857142857143L18.05,11.192857142857143L18.05,11.407142857142858L17.835714285714285,11.407142857142858L17.835714285714285,11.62142857142857L17.621428571428574,11.62142857142857L17.621428571428574,12.378571428571426L35.30714285714286,12.378571428571426L35.30714285714286,12.164285714285715L35.73571428571429,12.164285714285715L35.73571428571429,11.95L36,11.95L36,12.05L35.83571428571428,12.05L35.83571428571428,12.264285714285716L35.40714285714285,12.264285714285716L35.40714285714285,12.478571428571428L17.521428571428572,12.478571428571428L17.521428571428572,11.521428571428569L17.735714285714284,11.521428571428569L17.735714285714284,11.307142857142857L17.95,11.307142857142857L17.95,11.092857142857142L18.378571428571426,11.092857142857142L18.378571428571426,10.878571428571426L18.807142857142857,10.878571428571426L18.807142857142857,10.664285714285715L19.021428571428572,10.664285714285715L19.021428571428572,9.807142857142857z" stroke="none"/><path d="M61.66428571428572,10.45L61.66428571428572,10.235714285714284L70.7642857142857,10.235714285714284L70.7642857142857,10.764285714285716L70.12142857142855,10.764285714285716L70.12142857142855,10.978571428571428L64.54999999999998,10.978571428571428L64.54999999999998,11.192857142857143L64.33571428571427,11.192857142857143L64.33571428571427,11.407142857142858L64.12142857142857,11.407142857142858L64.12142857142857,11.62142857142857L63.90714285714285,11.62142857142857L63.90714285714285,12.05L63.692857142857136,12.05L63.692857142857136,12.264285714285716L63.47857142857142,12.264285714285716L63.47857142857142,12.478571428571428L50.52142857142857,12.478571428571428L50.52142857142857,12.264285714285716L49.45,12.264285714285716L49.45,12L49.55,12L49.55,12.164285714285715L50.62142857142857,12.164285714285715L50.62142857142857,12.378571428571426L63.378571428571426,12.378571428571426L63.378571428571426,12.164285714285715L63.59285714285714,12.164285714285715L63.59285714285714,11.95L63.80714285714286,11.95L63.80714285714286,11.521428571428569L64.02142857142857,11.521428571428569L64.02142857142857,11.307142857142857L64.23571428571428,11.307142857142857L64.23571428571428,11.092857142857142L64.44999999999999,11.092857142857142L64.44999999999999,10.878571428571426L70.02142857142856,10.878571428571426L70.02142857142856,10.664285714285715L70.66428571428571,10.664285714285715L70.66428571428571,10.335714285714285L61.76428571428571,10.335714285714285L61.76428571428571,10.45L65.99999999999999,10.45L65.99999999999999,10.55L61.76428571428571,10.55L61.76428571428571,10.664285714285715L69.80714285714285,10.664285714285715L69.80714285714285,10.45L70.49999999999999,10.45L70.49999999999999,10.55L69.90714285714284,10.55L69.90714285714284,10.764285714285716L61.66428571428572,10.764285714285716L61.66428571428572,10.55L54.692857142857136,10.55L54.692857142857136,10.764285714285716L54.47857142857142,10.764285714285716L54.47857142857142,10.978571428571428L53.52142857142857,10.978571428571428L53.52142857142857,10.021428571428569L54.59285714285714,10.021428571428569L54.59285714285714,9.807142857142857L59.73571428571429,9.807142857142857L59.73571428571429,9.592857142857142L59.95,9.592857142857142L59.95,9.378571428571426L61.23571428571429,9.378571428571426L61.23571428571429,8.95L61.5,8.95L61.5,9.05L61.33571428571428,9.05L61.33571428571428,9.478571428571428L60.05,9.478571428571428L60.05,9.692857142857143L59.83571428571428,9.692857142857143L59.83571428571428,9.907142857142858L54.692857142857136,9.907142857142858L54.692857142857136,10.12142857142857L53.62142857142857,10.12142857142857L53.62142857142857,10.878571428571426L54.378571428571426,10.878571428571426L54.378571428571426,10.664285714285715L54.59285714285714,10.664285714285715L54.59285714285714,10.45z" stroke="none"/><path d="M62.09285714285714,7.45L62.09285714285714,7.335714285714285L61.878571428571426,7.335714285714285L61.878571428571426,7.121428571428571L59.192857142857136,7.121428571428571L59.192857142857136,7.335714285714285L58.97857142857142,7.335714285714285L58.97857142857142,7.55L58.5,7.55L58.5,7.45L58.878571428571426,7.45L58.878571428571426,7.235714285714286L59.09285714285714,7.235714285714286L59.09285714285714,7.021428571428571L61.97857142857142,7.021428571428571L61.97857142857142,7.235714285714286L62.192857142857136,7.235714285714286L62.192857142857136,7.45L62.30714285714286,7.45L62.30714285714286,7.121428571428571L62.09285714285714,7.121428571428571L62.09285714285714,6.907142857142857L54.26428571428571,6.907142857142857L54.26428571428571,7.121428571428571L54.05,7.121428571428571L54.05,7.5L53.95,7.5L53.95,7.021428571428571L54.16428571428572,7.021428571428571L54.16428571428572,6.807142857142857L62.192857142857136,6.807142857142857L62.192857142857136,7.021428571428571L62.40714285714285,7.021428571428571L62.40714285714285,7.55L62.192857142857136,7.55L62.192857142857136,7.664285714285715L62.52142857142857,7.664285714285715L62.52142857142857,7.021428571428571L73.23571428571428,7.021428571428571L73.23571428571428,6.5928571428571425L73.44999999999999,6.5928571428571425L73.44999999999999,6L73.54999999999998,6L73.54999999999998,6.692857142857142L73.33571428571427,6.692857142857142L73.33571428571427,7.121428571428571L62.62142857142857,7.121428571428571L62.62142857142857,7.764285714285714L62.09285714285714,7.764285714285714L62.09285714285714,7.55L61.97857142857142,7.55L61.97857142857142,7.978571428571428L61.55,7.978571428571428L61.55,8.192857142857143L61.33571428571428,8.192857142857143L61.33571428571428,8.62142857142857L61.12142857142857,8.62142857142857L61.12142857142857,8.835714285714285L60.26428571428571,8.835714285714285L60.26428571428571,9.05L60,9.05L60,8.95L60.16428571428572,8.95L60.16428571428572,8.735714285714284L61.02142857142857,8.735714285714284L61.02142857142857,8.521428571428569L61.23571428571429,8.521428571428569L61.23571428571429,8.092857142857142L61.45,8.092857142857142L61.45,7.878571428571428L61.878571428571426,7.878571428571428L61.878571428571426,7.45z" stroke="none"/><path d="M24.59285714285714,4.45L24.59285714285714,4.235714285714286L25.664285714285715,4.235714285714286L25.664285714285715,4.021428571428571L26.09285714285714,4.021428571428571L26.09285714285714,3.8071428571428574L26.307142857142857,3.8071428571428574L26.307142857142857,3.592857142857143L27.378571428571426,3.592857142857143L27.378571428571426,3.3785714285714286L28.45,3.3785714285714286L28.45,3.1642857142857146L28.878571428571426,3.1642857142857146L28.878571428571426,2.95L29.735714285714284,2.95L29.735714285714284,2.7357142857142858L30.264285714285716,2.7357142857142858L30.264285714285716,3.478571428571428L29.40714285714286,3.478571428571428L29.40714285714286,3.6928571428571426L29.192857142857143,3.6928571428571426L29.192857142857143,3.907142857142857L28.335714285714285,3.907142857142857L28.335714285714285,4.121428571428571L27.90714285714286,4.121428571428571L27.90714285714286,4.335714285714285L27.478571428571428,4.335714285714285L27.478571428571428,4.55L26.62142857142857,4.55L26.62142857142857,4.764285714285714L25.12142857142857,4.764285714285714L25.12142857142857,4.978571428571429L23.62142857142857,4.978571428571429L23.62142857142857,6.378571428571428L33.47857142857143,6.378571428571428L33.47857142857143,6.5928571428571425L33.692857142857136,6.5928571428571425L33.692857142857136,7.235714285714286L34.33571428571428,7.235714285714286L34.33571428571428,7.45L34.5,7.45L34.5,7.55L34.23571428571429,7.55L34.23571428571429,7.335714285714285L33.59285714285714,7.335714285714285L33.59285714285714,6.692857142857142L33.37857142857143,6.692857142857142L33.37857142857143,6.478571428571428L23.52142857142857,6.478571428571428L23.52142857142857,4.878571428571429L25.02142857142857,4.878571428571429L25.02142857142857,4.664285714285715L26.52142857142857,4.664285714285715L26.52142857142857,4.45L27.378571428571426,4.45L27.378571428571426,4.235714285714286L27.807142857142857,4.235714285714286L27.807142857142857,4.021428571428571L28.235714285714284,4.021428571428571L28.235714285714284,3.8071428571428574L29.09285714285714,3.8071428571428574L29.09285714285714,3.592857142857143L29.307142857142857,3.592857142857143L29.307142857142857,3.3785714285714286L30.164285714285715,3.3785714285714286L30.164285714285715,2.8357142857142854L29.835714285714285,2.8357142857142854L29.835714285714285,3.05L28.978571428571428,3.05L28.978571428571428,3.2642857142857142L28.55,3.2642857142857142L28.55,3.478571428571428L27.478571428571428,3.478571428571428L27.478571428571428,3.6928571428571426L26.40714285714286,3.6928571428571426L26.40714285714286,3.907142857142857L26.192857142857143,3.907142857142857L26.192857142857143,4.121428571428571L25.764285714285716,4.121428571428571L25.764285714285716,4.335714285714285L24.692857142857143,4.335714285714285L24.692857142857143,4.45L26.09285714285714,4.45L26.09285714285714,4.235714285714286L27.164285714285715,4.235714285714286L27.164285714285715,4.021428571428571L27.59285714285714,4.021428571428571L27.59285714285714,3.592857142857143L28.878571428571426,3.592857142857143L28.878571428571426,3.3785714285714286L29.09285714285714,3.3785714285714286L29.09285714285714,3.1642857142857146L29.95,3.1642857142857146L29.95,3L30.05,3L30.05,3.2642857142857142L29.192857142857143,3.2642857142857142L29.192857142857143,3.478571428571428L28.978571428571428,3.478571428571428L28.978571428571428,3.6928571428571426L27.692857142857143,3.6928571428571426L27.692857142857143,4.121428571428571L27.264285714285716,4.121428571428571L27.264285714285716,4.335714285714285L26.192857142857143,4.335714285714285L26.192857142857143,4.55L24.692857142857143,4.55L24.692857142857143,4.764285714285714L15.378571428571426,4.764285714285714L15.378571428571426,4.55L15,4.55L15,4.45L15.478571428571428,4.45L15.478571428571428,4.664285714285715L24.59285714285714,4.664285714285715L24.59285714285714,4.55L23.52142857142857,4.55L23.52142857142857,4.335714285714285L23.307142857142857,4.335714285714285L23.307142857142857,4.121428571428571L22.45,4.121428571428571L22.45,3.907142857142857L21.59285714285714,3.907142857142857L21.59285714285714,3.6928571428571426L19.664285714285715,3.6928571428571426L19.664285714285715,3.2642857142857142L19.45,3.2642857142857142L19.45,3L19.55,3L19.55,3.1642857142857146L19.764285714285716,3.1642857142857146L19.764285714285716,3.592857142857143L21.692857142857143,3.592857142857143L21.692857142857143,3.8071428571428574L22.55,3.8071428571428574L22.55,4.021428571428571L23.40714285714286,4.021428571428571L23.40714285714286,4.235714285714286L23.62142857142857,4.235714285714286L23.62142857142857,4.45z" stroke="none"/><path d="M32.95,4.664285714285715L32.95,4.45L50.52142857142857,4.45L50.52142857142857,4.021428571428571L53.192857142857136,4.021428571428571L53.192857142857136,4.235714285714286L54.05,4.235714285714286L54.05,4.5L53.95,4.5L53.95,4.335714285714285L53.09285714285714,4.335714285714285L53.09285714285714,4.121428571428571L50.62142857142857,4.121428571428571L50.62142857142857,4.55L33.05,4.55L33.05,4.664285714285715L39.692857142857136,4.664285714285715L39.692857142857136,4.878571428571429L40.12142857142857,4.878571428571429L40.12142857142857,5.307142857142857L40.33571428571428,5.307142857142857L40.33571428571428,5.95L42,5.95L42,6.05L40.23571428571429,6.05L40.23571428571429,5.407142857142857L40.02142857142857,5.407142857142857L40.02142857142857,4.978571428571429L39.59285714285714,4.978571428571429L39.59285714285714,4.764285714285714L33.05,4.764285714285714L33.05,5.95L33.692857142857136,5.95L33.692857142857136,6.164285714285715L34.12142857142857,6.164285714285715L34.12142857142857,6.378571428571428L34.33571428571428,6.378571428571428L34.33571428571428,6.5928571428571425L34.97857142857143,6.5928571428571425L34.97857142857143,7.978571428571428L18.59285714285714,7.978571428571428L18.59285714285714,7.764285714285714L18.378571428571426,7.764285714285714L18.378571428571426,7.335714285714285L18.164285714285715,7.335714285714285L18.164285714285715,7.121428571428571L17.95,7.121428571428571L17.95,6.692857142857142L17.735714285714284,6.692857142857142L17.735714285714284,6.264285714285714L17.521428571428572,6.264285714285714L17.521428571428572,6.05L17.307142857142857,6.05L17.307142857142857,5.835714285714285L15.807142857142857,5.835714285714285L15.807142857142857,5.407142857142857L15.378571428571426,5.407142857142857L15.378571428571426,5.192857142857142L14.521428571428569,5.192857142857142L14.521428571428569,4.55L14.092857142857142,4.55L14.092857142857142,4.121428571428571L13.235714285714284,4.121428571428571L13.235714285714284,3.478571428571428L12.378571428571426,3.478571428571428L12.378571428571426,3.2642857142857142L12.164285714285715,3.2642857142857142L12.164285714285715,3.05L12,3.05L12,2.95L12.264285714285716,2.95L12.264285714285716,3.1642857142857146L12.478571428571428,3.1642857142857146L12.478571428571428,3.3785714285714286L13.335714285714285,3.3785714285714286L13.335714285714285,4.021428571428571L14.192857142857143,4.021428571428571L14.192857142857143,4.45L14.62142857142857,4.45L14.62142857142857,5.0928571428571425L15.478571428571428,5.0928571428571425L15.478571428571428,5.307142857142857L15.907142857142858,5.307142857142857L15.907142857142858,5.735714285714286L17.40714285714286,5.735714285714286L17.40714285714286,5.95L17.621428571428574,5.95L17.621428571428574,6.164285714285715L17.835714285714285,6.164285714285715L17.835714285714285,6.5928571428571425L18.05,6.5928571428571425L18.05,7.021428571428571L18.264285714285716,7.021428571428571L18.264285714285716,7.235714285714286L18.478571428571428,7.235714285714286L18.478571428571428,7.664285714285715L18.692857142857143,7.664285714285715L18.692857142857143,7.878571428571428L34.87857142857143,7.878571428571428L34.87857142857143,6.692857142857142L34.23571428571429,6.692857142857142L34.23571428571429,6.478571428571428L34.02142857142857,6.478571428571428L34.02142857142857,6.264285714285714L33.59285714285714,6.264285714285714L33.59285714285714,6.05L32.95,6.05L32.95,4.764285714285714L31.978571428571428,4.764285714285714L31.978571428571428,4.978571428571429L26.192857142857143,4.978571428571429L26.192857142857143,5.192857142857142L24.692857142857143,5.192857142857142L24.692857142857143,5.835714285714285L24.478571428571428,5.835714285714285L24.478571428571428,6.05L24,6.05L24,5.95L24.378571428571426,5.95L24.378571428571426,5.735714285714286L24.59285714285714,5.735714285714286L24.59285714285714,5.0928571428571425L26.09285714285714,5.0928571428571425L26.09285714285714,4.878571428571429L31.878571428571426,4.878571428571429L31.878571428571426,4.664285714285715z" stroke="none"/><path d="M74.99999999999999,9.05L74.99999999999999,8.95L84.47857142857141,8.95L84.47857142857141,10.45L84.90714285714284,10.45L84.90714285714284,10.878571428571426L85.33571428571427,10.878571428571426L85.33571428571427,11.092857142857142L85.7642857142857,11.092857142857142L85.7642857142857,11.307142857142857L85.97857142857141,11.307142857142857L85.97857142857141,12.478571428571428L77.94999999999999,12.478571428571428L77.94999999999999,11.835714285714285L77.09285714285714,11.835714285714285L77.09285714285714,11.192857142857143L76.02142857142856,11.192857142857143L76.02142857142856,10.978571428571428L75.37857142857142,10.978571428571428L75.37857142857142,10.764285714285716L75.16428571428571,10.764285714285716L75.16428571428571,10.55L74.99999999999999,10.55L74.99999999999999,10.45L75.2642857142857,10.45L75.2642857142857,10.664285714285715L75.47857142857141,10.664285714285715L75.47857142857141,10.878571428571426L76.12142857142855,10.878571428571426L76.12142857142855,11.092857142857142L77.19285714285714,11.092857142857142L77.19285714285714,11.735714285714284L78.04999999999998,11.735714285714284L78.04999999999998,12.378571428571426L85.87857142857142,12.378571428571426L85.87857142857142,11.407142857142858L85.66428571428571,11.407142857142858L85.66428571428571,11.192857142857143L85.23571428571428,11.192857142857143L85.23571428571428,10.978571428571428L84.80714285714285,10.978571428571428L84.80714285714285,10.55L84.37857142857142,10.55L84.37857142857142,9.05z" stroke="none"/><path d="M2.95,4.5L3.05,4.5L3.05,6L2.95,6z" stroke="none"/><path d="M22.5,10.55L22.5,10.45L33.90714285714285,10.45L33.90714285714285,10.878571428571426L51.378571428571426,10.878571428571426L51.378571428571426,10.12142857142857L51.16428571428572,10.12142857142857L51.16428571428572,9.692857142857143L34.66428571428572,9.692857142857143L34.66428571428572,9.478571428571428L24.807142857142857,9.478571428571428L24.807142857142857,9.264285714285716L24.378571428571426,9.264285714285716L24.378571428571426,9.05L24,9.05L24,8.95L24.478571428571428,8.95L24.478571428571428,9.164285714285715L24.90714285714286,9.164285714285715L24.90714285714286,9.378571428571426L34.76428571428571,9.378571428571426L34.76428571428571,9.592857142857142L51.26428571428571,9.592857142857142L51.26428571428571,10.021428571428569L51.47857142857142,10.021428571428569L51.47857142857142,10.978571428571428L33.80714285714286,10.978571428571428L33.80714285714286,10.55z" stroke="none"/><path d="M5.95,6L6.05,6L6.05,6.5928571428571425L6.264285714285714,6.5928571428571425L6.264285714285714,6.807142857142857L6.907142857142857,6.807142857142857L6.907142857142857,7.235714285714286L7.335714285714285,7.235714285714286L7.335714285714285,7.45L7.5,7.45L7.5,7.55L7.235714285714286,7.55L7.235714285714286,7.335714285714285L6.807142857142857,7.335714285714285L6.807142857142857,6.907142857142857L6.164285714285715,6.907142857142857L6.164285714285715,6.692857142857142L5.95,6.692857142857142z" stroke="none"/><path d="M7.5,6.05L7.5,5.95L8.307142857142857,5.95L8.307142857142857,5.735714285714286L8.521428571428569,5.735714285714286L8.521428571428569,5.307142857142857L8.95,5.307142857142857L8.95,4.5L9.05,4.5L9.05,5.407142857142857L8.62142857142857,5.407142857142857L8.62142857142857,5.835714285714285L8.407142857142858,5.835714285714285L8.407142857142858,6.05z" stroke="none"/><path d="M6,10.55L6,10.45L6.807142857142857,10.45L6.807142857142857,10.235714285714284L7.021428571428571,10.235714285714284L7.021428571428571,9.807142857142857L7.45,9.807142857142857L7.45,9L7.55,9L7.55,9.907142857142858L7.121428571428571,9.907142857142858L7.121428571428571,10.335714285714285L6.907142857142857,10.335714285714285L6.907142857142857,10.55z" stroke="none"/><path d="M74.99999999999999,11.95L74.99999999999999,12.05L71.99999999999999,12.05L71.99999999999999,11.95z" stroke="none"/><path d="M30,11.95L30,12.05L27,12.05L27,11.95z" stroke="none"/><path d="M40.5,8.95L40.5,9.05L40.12142857142857,9.05L40.12142857142857,9.264285714285716L39.47857142857143,9.264285714285716L39.47857142857143,9.478571428571428L38.09285714285714,9.478571428571428L38.09285714285714,9.05L37.87857142857143,9.05L37.87857142857143,8.407142857142858L37.66428571428572,8.407142857142858L37.66428571428572,7.978571428571428L37.45,7.978571428571428L37.45,7.5L37.55,7.5L37.55,7.878571428571428L37.76428571428571,7.878571428571428L37.76428571428571,8.307142857142857L37.97857142857143,8.307142857142857L37.97857142857143,8.95L38.192857142857136,8.95L38.192857142857136,9.378571428571426L39.37857142857143,9.378571428571426L39.37857142857143,9.164285714285715L40.02142857142857,9.164285714285715L40.02142857142857,8.95z" stroke="none"/><path d="M77.99999999999999,2.95L77.99999999999999,3.05L77.40714285714284,3.05L77.40714285714284,3.2642857142857142L77.19285714285714,3.2642857142857142L77.19285714285714,3.478571428571428L64.97857142857141,3.478571428571428L64.97857142857141,3.6928571428571426L64.54999999999998,3.6928571428571426L64.54999999999998,4.121428571428571L63.90714285714285,4.121428571428571L63.90714285714285,4.335714285714285L63.692857142857136,4.335714285714285L63.692857142857136,4.55L63.26428571428571,4.55L63.26428571428571,4.978571428571429L63.05,4.978571428571429L63.05,5.192857142857142L62.83571428571428,5.192857142857142L62.83571428571428,5.621428571428571L62.62142857142857,5.621428571428571L62.62142857142857,6.378571428571428L73.02142857142856,6.378571428571428L73.02142857142856,5.521428571428571L74.83571428571427,5.521428571428571L74.83571428571427,5.735714285714286L75.04999999999998,5.735714285714286L75.04999999999998,6L74.94999999999999,6L74.94999999999999,5.835714285714285L74.73571428571428,5.835714285714285L74.73571428571428,5.621428571428571L73.12142857142855,5.621428571428571L73.12142857142855,6.478571428571428L62.52142857142857,6.478571428571428L62.52142857142857,5.521428571428571L62.73571428571429,5.521428571428571L62.73571428571429,5.0928571428571425L62.95,5.0928571428571425L62.95,4.878571428571429L63.16428571428572,4.878571428571429L63.16428571428572,4.45L63.59285714285714,4.45L63.59285714285714,4.235714285714286L63.80714285714286,4.235714285714286L63.80714285714286,4.021428571428571L64.44999999999999,4.021428571428571L64.44999999999999,3.592857142857143L64.87857142857142,3.592857142857143L64.87857142857142,3.3785714285714286L77.09285714285714,3.3785714285714286L77.09285714285714,3.1642857142857146L77.30714285714285,3.1642857142857146L77.30714285714285,2.95z" stroke="none"/><path d="M95.99999999999999,7.55L95.99999999999999,7.45L96.90714285714284,7.45L96.90714285714284,8.092857142857142L97.7642857142857,8.092857142857142L97.7642857142857,8.307142857142857L97.97857142857141,8.307142857142857L97.97857142857141,8.95L98.19285714285712,8.95L98.19285714285712,9.378571428571426L98.40714285714284,9.378571428571426L98.40714285714284,9.592857142857142L98.83571428571427,9.592857142857142L98.83571428571427,10.45L98.99999999999999,10.45L98.99999999999999,10.55L98.73571428571428,10.55L98.73571428571428,9.692857142857143L98.30714285714285,9.692857142857143L98.30714285714285,9.478571428571428L98.09285714285713,9.478571428571428L98.09285714285713,9.05L97.87857142857142,9.05L97.87857142857142,8.407142857142858L97.66428571428571,8.407142857142858L97.66428571428571,8.192857142857143L96.80714285714285,8.192857142857143L96.80714285714285,7.55z" stroke="none"/><path d="M71.99999999999999,5.95L71.99999999999999,6.05L67.49999999999999,6.05L67.49999999999999,5.95z" stroke="none"/><path d="M83.99999999999999,10.45L83.99999999999999,10.55L82.87857142857142,10.55L82.87857142857142,10.335714285714285L82.66428571428571,10.335714285714285L82.66428571428571,10.12142857142857L82.44999999999999,10.12142857142857L82.44999999999999,9.907142857142858L82.02142857142856,9.907142857142858L82.02142857142856,9.692857142857143L74.73571428571428,9.692857142857143L74.73571428571428,9.478571428571428L74.52142857142856,9.478571428571428L74.52142857142856,8.521428571428569L84.69285714285714,8.521428571428569L84.69285714285714,10.021428571428569L84.90714285714284,10.021428571428569L84.90714285714284,10.235714285714284L85.33571428571427,10.235714285714284L85.33571428571427,10.45L85.54999999999998,10.45L85.54999999999998,10.878571428571426L85.97857142857141,10.878571428571426L85.97857142857141,11.092857142857142L87.04999999999998,11.092857142857142L87.04999999999998,11.521428571428569L87.2642857142857,11.521428571428569L87.2642857142857,11.735714285714284L88.33571428571427,11.735714285714284L88.33571428571427,11.95L88.49999999999999,11.95L88.49999999999999,12.05L88.23571428571428,12.05L88.23571428571428,11.835714285714285L87.16428571428571,11.835714285714285L87.16428571428571,11.62142857142857L86.94999999999999,11.62142857142857L86.94999999999999,11.192857142857143L85.87857142857142,11.192857142857143L85.87857142857142,10.978571428571428L85.44999999999999,10.978571428571428L85.44999999999999,10.55L85.23571428571428,10.55L85.23571428571428,10.335714285714285L84.80714285714285,10.335714285714285L84.80714285714285,10.12142857142857L84.59285714285714,10.12142857142857L84.59285714285714,8.62142857142857L74.62142857142855,8.62142857142857L74.62142857142855,9.378571428571426L74.83571428571427,9.378571428571426L74.83571428571427,9.592857142857142L82.12142857142855,9.592857142857142L82.12142857142855,9.807142857142857L82.54999999999998,9.807142857142857L82.54999999999998,10.021428571428569L82.7642857142857,10.021428571428569L82.7642857142857,10.235714285714284L82.97857142857141,10.235714285714284L82.97857142857141,10.45z" stroke="none"/><path d="M2.95,7.5L3.05,7.5L3.05,8.307142857142857L3.2642857142857142,8.307142857142857L3.2642857142857142,8.521428571428569L3.478571428571428,8.521428571428569L3.478571428571428,10.878571428571426L3.907142857142857,10.878571428571426L3.907142857142857,11.092857142857142L4.55,11.092857142857142L4.55,12L4.45,12L4.45,11.192857142857143L3.8071428571428574,11.192857142857143L3.8071428571428574,10.978571428571428L3.3785714285714286,10.978571428571428L3.3785714285714286,8.62142857142857L3.1642857142857146,8.62142857142857L3.1642857142857146,8.407142857142858L2.95,8.407142857142858z" stroke="none"/><path d="M13.45,4.5L13.55,4.5L13.55,6.807142857142857L13.764285714285716,6.807142857142857L13.764285714285716,7.021428571428571L14.407142857142858,7.021428571428571L14.407142857142858,7.664285714285715L15.264285714285716,7.664285714285715L15.264285714285716,8.092857142857142L15.692857142857143,8.092857142857142L15.692857142857143,8.521428571428569L15.907142857142858,8.521428571428569L15.907142857142858,8.735714285714284L16.335714285714285,8.735714285714284L16.335714285714285,8.95L16.5,8.95L16.5,9.05L16.235714285714284,9.05L16.235714285714284,8.835714285714285L15.807142857142857,8.835714285714285L15.807142857142857,8.62142857142857L15.592857142857142,8.62142857142857L15.592857142857142,8.192857142857143L15.164285714285715,8.192857142857143L15.164285714285715,7.764285714285714L14.307142857142857,7.764285714285714L14.307142857142857,7.121428571428571L13.664285714285715,7.121428571428571L13.664285714285715,6.907142857142857L13.45,6.907142857142857z" stroke="none"/><path d="M90.04999999999998,10.5L89.94999999999999,10.5L89.94999999999999,9.692857142857143L89.73571428571428,9.692857142857143L89.73571428571428,9.478571428571428L89.52142857142856,9.478571428571428L89.52142857142856,9.264285714285716L89.09285714285714,9.264285714285716L89.09285714285714,9.05L87.80714285714285,9.05L87.80714285714285,8.835714285714285L87.59285714285714,8.835714285714285L87.59285714285714,8.62142857142857L87.16428571428571,8.62142857142857L87.16428571428571,8.192857142857143L86.73571428571428,8.192857142857143L86.73571428571428,7.978571428571428L86.09285714285714,7.978571428571428L86.09285714285714,7.55L85.49999999999999,7.55L85.49999999999999,7.45L86.19285714285714,7.45L86.19285714285714,7.878571428571428L86.83571428571427,7.878571428571428L86.83571428571427,8.092857142857142L87.2642857142857,8.092857142857142L87.2642857142857,8.521428571428569L87.69285714285714,8.521428571428569L87.69285714285714,8.735714285714284L87.90714285714284,8.735714285714284L87.90714285714284,8.95L89.19285714285714,8.95L89.19285714285714,9.164285714285715L89.62142857142855,9.164285714285715L89.62142857142855,9.378571428571426L89.83571428571427,9.378571428571426L89.83571428571427,9.592857142857142L90.04999999999998,9.592857142857142z" stroke="none"/><path d="M70.49999999999999,3.05L70.49999999999999,2.95L76.49999999999999,2.95L76.49999999999999,3.05z" stroke="none"/><path d="M57,11.95L57,12.05L51,12.05L51,11.95z" stroke="none"/><path d="M91.49999999999999,12.05L91.49999999999999,11.95L94.44999999999999,11.95L94.44999999999999,11.521428571428569L94.87857142857142,11.521428571428569L94.87857142857142,11.307142857142857L95.52142857142856,11.307142857142857L95.52142857142856,10.878571428571426L96.16428571428571,10.878571428571426L96.16428571428571,10.664285714285715L96.37857142857142,10.664285714285715L96.37857142857142,10.021428571428569L96.59285714285713,10.021428571428569L96.59285714285713,9.807142857142857L96.80714285714285,9.807142857142857L96.80714285714285,9.592857142857142L97.02142857142856,9.592857142857142L97.02142857142856,8.95L97.49999999999999,8.95L97.49999999999999,9.05L97.12142857142855,9.05L97.12142857142855,9.692857142857143L96.90714285714284,9.692857142857143L96.90714285714284,9.907142857142858L96.69285714285712,9.907142857142858L96.69285714285712,10.12142857142857L96.47857142857141,10.12142857142857L96.47857142857141,10.764285714285716L96.2642857142857,10.764285714285716L96.2642857142857,10.978571428571428L95.62142857142855,10.978571428571428L95.62142857142855,11.407142857142858L94.97857142857141,11.407142857142858L94.97857142857141,11.62142857142857L94.54999999999998,11.62142857142857L94.54999999999998,12.05z" stroke="none"/><path d="M9,3.05L9,2.95L11.521428571428569,2.95L11.521428571428569,2.521428571428572L15.692857142857143,2.521428571428572L15.692857142857143,2.7357142857142858L15.907142857142858,2.7357142857142858L15.907142857142858,2.95L16.5,2.95L16.5,3.05L15.807142857142857,3.05L15.807142857142857,2.8357142857142854L15.592857142857142,2.8357142857142854L15.592857142857142,2.6214285714285714L11.62142857142857,2.6214285714285714L11.62142857142857,3.05z" stroke="none"/><path d="M86.99999999999999,10.55L86.99999999999999,10.45L89.40714285714284,10.45L89.40714285714284,10.878571428571426L95.30714285714285,10.878571428571426L95.30714285714285,10.45L96.16428571428571,10.45L96.16428571428571,9.807142857142857L96.37857142857142,9.807142857142857L96.37857142857142,8.62142857142857L96.16428571428571,8.62142857142857L96.16428571428571,8.192857142857143L95.52142857142856,8.192857142857143L95.52142857142856,7.978571428571428L94.66428571428571,7.978571428571428L94.66428571428571,7.55L94.49999999999999,7.55L94.49999999999999,7.45L94.7642857142857,7.45L94.7642857142857,7.878571428571428L95.62142857142855,7.878571428571428L95.62142857142855,8.092857142857142L96.2642857142857,8.092857142857142L96.2642857142857,8.521428571428569L96.47857142857141,8.521428571428569L96.47857142857141,9.907142857142858L96.2642857142857,9.907142857142858L96.2642857142857,10.55L95.40714285714284,10.55L95.40714285714284,10.978571428571428L89.30714285714285,10.978571428571428L89.30714285714285,10.55z" stroke="none"/><path d="M61.5,7.45L61.5,7.55L60.47857142857142,7.55L60.47857142857142,7.764285714285714L59.62142857142857,7.764285714285714L59.62142857142857,7.978571428571428L53.52142857142857,7.978571428571428L53.52142857142857,5.621428571428571L53.30714285714286,5.621428571428571L53.30714285714286,5.407142857142857L52.878571428571426,5.407142857142857L52.878571428571426,4.978571428571429L52.66428571428572,4.978571428571429L52.66428571428572,4.764285714285714L52.45,4.764285714285714L52.45,4.5L52.55,4.5L52.55,4.664285714285715L52.76428571428571,4.664285714285715L52.76428571428571,4.878571428571429L52.97857142857142,4.878571428571429L52.97857142857142,5.307142857142857L53.40714285714285,5.307142857142857L53.40714285714285,5.521428571428571L53.62142857142857,5.521428571428571L53.62142857142857,7.878571428571428L59.52142857142857,7.878571428571428L59.52142857142857,7.664285714285715L60.378571428571426,7.664285714285715L60.378571428571426,7.45z" stroke="none"/><path d="M21,3.05L21,2.95L28.235714285714284,2.95L28.235714285714284,2.7357142857142858L29.307142857142857,2.7357142857142858L29.307142857142857,2.521428571428572L30.478571428571428,2.521428571428572L30.478571428571428,4.235714285714286L31.335714285714285,4.235714285714286L31.335714285714285,4.45L31.5,4.45L31.5,4.55L31.235714285714284,4.55L31.235714285714284,4.335714285714285L30.378571428571426,4.335714285714285L30.378571428571426,2.6214285714285714L29.40714285714286,2.6214285714285714L29.40714285714286,2.8357142857142854L28.335714285714285,2.8357142857142854L28.335714285714285,3.05z" stroke="none"/><path d="M99.04999999999998,12L98.94999999999999,12L98.94999999999999,11.735714285714284L99.16428571428571,11.735714285714284L99.16428571428571,11.307142857142857L99.37857142857142,11.307142857142857L99.37857142857142,9.907142857142858L98.94999999999999,9.907142857142858L98.94999999999999,9.478571428571428L98.52142857142856,9.478571428571428L98.52142857142856,9.05L98.30714285714285,9.05L98.30714285714285,8.407142857142858L98.09285714285713,8.407142857142858L98.09285714285713,8.192857142857143L97.87857142857142,8.192857142857143L97.87857142857142,7.764285714285714L97.66428571428571,7.764285714285714L97.66428571428571,7.55L97.44999999999999,7.55L97.44999999999999,7.335714285714285L97.02142857142856,7.335714285714285L97.02142857142856,7.121428571428571L96.80714285714285,7.121428571428571L96.80714285714285,6.907142857142857L96.59285714285713,6.907142857142857L96.59285714285713,6.692857142857142L96.37857142857142,6.692857142857142L96.37857142857142,6.478571428571428L96.16428571428571,6.478571428571428L96.16428571428571,6.264285714285714L95.73571428571428,6.264285714285714L95.73571428571428,6.05L95.30714285714285,6.05L95.30714285714285,5.835714285714285L95.09285714285713,5.835714285714285L95.09285714285713,5.621428571428571L91.33571428571427,5.621428571428571L91.33571428571427,5.835714285714285L91.12142857142855,5.835714285714285L91.12142857142855,6.478571428571428L90.69285714285714,6.478571428571428L90.69285714285714,6.907142857142857L89.19285714285714,6.907142857142857L89.19285714285714,7.55L88.49999999999999,7.55L88.49999999999999,7.45L89.09285714285714,7.45L89.09285714285714,6.807142857142857L90.59285714285714,6.807142857142857L90.59285714285714,6.378571428571428L91.02142857142856,6.378571428571428L91.02142857142856,5.735714285714286L91.23571428571428,5.735714285714286L91.23571428571428,5.521428571428571L95.19285714285712,5.521428571428571L95.19285714285712,5.735714285714286L95.40714285714284,5.735714285714286L95.40714285714284,5.95L95.83571428571427,5.95L95.83571428571427,6.164285714285715L96.2642857142857,6.164285714285715L96.2642857142857,6.378571428571428L96.47857142857141,6.378571428571428L96.47857142857141,6.5928571428571425L96.69285714285712,6.5928571428571425L96.69285714285712,6.807142857142857L96.90714285714284,6.807142857142857L96.90714285714284,7.021428571428571L97.12142857142855,7.021428571428571L97.12142857142855,7.235714285714286L97.54999999999998,7.235714285714286L97.54999999999998,7.45L97.7642857142857,7.45L97.7642857142857,7.664285714285715L97.97857142857141,7.664285714285715L97.97857142857141,8.092857142857142L98.19285714285712,8.092857142857142L98.19285714285712,8.307142857142857L98.40714285714284,8.307142857142857L98.40714285714284,8.95L98.62142857142855,8.95L98.62142857142855,9.378571428571426L99.04999999999998,9.378571428571426L99.04999999999998,9.807142857142857L99.47857142857141,9.807142857142857L99.47857142857141,11.407142857142858L99.2642857142857,11.407142857142858L99.2642857142857,11.835714285714285L99.04999999999998,11.835714285714285z" stroke="none"/><path d="M74.99999999999999,4.55L74.99999999999999,4.45L77.52142857142856,4.45L77.52142857142856,4.021428571428571L86.19285714285714,4.021428571428571L86.19285714285714,4.235714285714286L86.83571428571427,4.235714285714286L86.83571428571427,4.45L86.99999999999999,4.45L86.99999999999999,4.55L86.73571428571428,4.55L86.73571428571428,4.335714285714285L86.09285714285714,4.335714285714285L86.09285714285714,4.121428571428571L77.62142857142855,4.121428571428571L77.62142857142855,4.55z" stroke="none"/><path d="M64.49999999999999,7.55L64.49999999999999,7.45L69.69285714285714,7.45L69.69285714285714,7.664285714285715L70.12142857142855,7.664285714285715L70.12142857142855,7.878571428571428L74.73571428571428,7.878571428571428L74.73571428571428,6.807142857142857L75.59285714285714,6.807142857142857L75.59285714285714,6.164285714285715L76.02142857142856,6.164285714285715L76.02142857142856,5.95L76.49999999999999,5.95L76.49999999999999,6.05L76.12142857142855,6.05L76.12142857142855,6.264285714285714L75.69285714285714,6.264285714285714L75.69285714285714,6.907142857142857L74.83571428571427,6.907142857142857L74.83571428571427,7.978571428571428L70.02142857142856,7.978571428571428L70.02142857142856,7.764285714285714L69.59285714285714,7.764285714285714L69.59285714285714,7.55z" stroke="none"/><path d="M85.49999999999999,6.05L85.49999999999999,5.95L90.59285714285714,5.95L90.59285714285714,5.521428571428571L91.02142857142856,5.521428571428571L91.02142857142856,5.307142857142857L98.09285714285713,5.307142857142857L98.09285714285713,5.0928571428571425L98.73571428571428,5.0928571428571425L98.73571428571428,4.45L98.99999999999999,4.45L98.99999999999999,4.55L98.83571428571427,4.55L98.83571428571427,5.192857142857142L98.19285714285712,5.192857142857142L98.19285714285712,5.407142857142857L91.12142857142855,5.407142857142857L91.12142857142855,5.621428571428571L90.69285714285714,5.621428571428571L90.69285714285714,6.05z" stroke="none"/><path d="M89.99999999999999,7.45L89.99999999999999,7.55L89.62142857142855,7.55L89.62142857142855,7.764285714285714L89.40714285714284,7.764285714285714L89.40714285714284,7.978571428571428L87.59285714285714,7.978571428571428L87.59285714285714,7.764285714285714L87.16428571428571,7.764285714285714L87.16428571428571,7.55L86.94999999999999,7.55L86.94999999999999,7.335714285714285L86.73571428571428,7.335714285714285L86.73571428571428,7.121428571428571L85.12142857142855,7.121428571428571L85.12142857142855,9.164285714285715L85.54999999999998,9.164285714285715L85.54999999999998,9.592857142857142L86.40714285714284,9.592857142857142L86.40714285714284,9.807142857142857L86.62142857142855,9.807142857142857L86.62142857142855,10.878571428571426L88.7642857142857,10.878571428571426L88.7642857142857,11.307142857142857L88.97857142857141,11.307142857142857L88.97857142857141,12.478571428571428L86.62142857142855,12.478571428571428L86.62142857142855,12.692857142857143L70.87857142857142,12.692857142857143L70.87857142857142,12.264285714285716L70.44999999999999,12.264285714285716L70.44999999999999,12L70.54999999999998,12L70.54999999999998,12.164285714285715L70.97857142857141,12.164285714285715L70.97857142857141,12.592857142857142L86.52142857142856,12.592857142857142L86.52142857142856,12.378571428571426L88.87857142857142,12.378571428571426L88.87857142857142,11.407142857142858L88.66428571428571,11.407142857142858L88.66428571428571,10.978571428571428L86.52142857142856,10.978571428571428L86.52142857142856,9.907142857142858L86.30714285714285,9.907142857142858L86.30714285714285,9.692857142857143L85.44999999999999,9.692857142857143L85.44999999999999,9.264285714285716L85.02142857142856,9.264285714285716L85.02142857142856,7.021428571428571L86.83571428571427,7.021428571428571L86.83571428571427,7.235714285714286L87.04999999999998,7.235714285714286L87.04999999999998,7.45L87.2642857142857,7.45L87.2642857142857,7.664285714285715L87.69285714285714,7.664285714285715L87.69285714285714,7.878571428571428L89.30714285714285,7.878571428571428L89.30714285714285,7.664285714285715L89.52142857142856,7.664285714285715L89.52142857142856,7.45z" stroke="none"/><path d="M82.49999999999999,2.95L82.49999999999999,3.05L78.37857142857142,3.05L78.37857142857142,2.6214285714285714L64.33571428571427,2.6214285714285714L64.33571428571427,3.05L63.05,3.05L63.05,3.907142857142857L62.83571428571428,3.907142857142857L62.83571428571428,4.121428571428571L62.40714285714285,4.121428571428571L62.40714285714285,4.335714285714285L61.76428571428571,4.335714285714285L61.76428571428571,4.55L61.5,4.55L61.5,4.45L61.66428571428572,4.45L61.66428571428572,4.235714285714286L62.30714285714286,4.235714285714286L62.30714285714286,4.021428571428571L62.73571428571429,4.021428571428571L62.73571428571429,3.8071428571428574L62.95,3.8071428571428574L62.95,2.95L64.23571428571428,2.95L64.23571428571428,2.521428571428572L78.47857142857141,2.521428571428572L78.47857142857141,2.95z" stroke="none"/><path d="M94.49999999999999,2.95L94.49999999999999,3.05L88.12142857142855,3.05L88.12142857142855,3.2642857142857142L85.97857142857141,3.2642857142857142L85.97857142857141,3.478571428571428L78.2642857142857,3.478571428571428L78.2642857142857,3.6928571428571426L72.90714285714284,3.6928571428571426L72.90714285714284,3.907142857142857L72.69285714285714,3.907142857142857L72.69285714285714,4.335714285714285L72.2642857142857,4.335714285714285L72.2642857142857,4.55L71.99999999999999,4.55L71.99999999999999,4.45L72.16428571428571,4.45L72.16428571428571,4.235714285714286L72.59285714285714,4.235714285714286L72.59285714285714,3.8071428571428574L72.80714285714285,3.8071428571428574L72.80714285714285,3.592857142857143L78.16428571428571,3.592857142857143L78.16428571428571,3.3785714285714286L85.87857142857142,3.3785714285714286L85.87857142857142,3.1642857142857146L88.02142857142856,3.1642857142857146L88.02142857142856,2.95z" stroke="none"/><path d="M71.99999999999999,10.45L71.99999999999999,10.55L71.19285714285714,10.55L71.19285714285714,10.764285714285716L70.97857142857141,10.764285714285716L70.97857142857141,10.978571428571428L70.7642857142857,10.978571428571428L70.7642857142857,11.192857142857143L70.33571428571427,11.192857142857143L70.33571428571427,11.62142857142857L70.12142857142855,11.62142857142857L70.12142857142855,12.378571428571426L70.7642857142857,12.378571428571426L70.7642857142857,12.807142857142857L94.23571428571428,12.807142857142857L94.23571428571428,12.592857142857142L94.44999999999999,12.592857142857142L94.44999999999999,12.378571428571426L95.52142857142856,12.378571428571426L95.52142857142856,12.164285714285715L95.73571428571428,12.164285714285715L95.73571428571428,11.735714285714284L96.37857142857142,11.735714285714284L96.37857142857142,10.878571428571426L97.02142857142856,10.878571428571426L97.02142857142856,10.664285714285715L97.44999999999999,10.664285714285715L97.44999999999999,10.5L97.54999999999998,10.5L97.54999999999998,10.764285714285716L97.12142857142855,10.764285714285716L97.12142857142855,10.978571428571428L96.47857142857141,10.978571428571428L96.47857142857141,11.835714285714285L95.83571428571427,11.835714285714285L95.83571428571427,12.264285714285716L95.62142857142855,12.264285714285716L95.62142857142855,12.478571428571428L94.54999999999998,12.478571428571428L94.54999999999998,12.692857142857143L94.33571428571427,12.692857142857143L94.33571428571427,12.907142857142858L70.66428571428571,12.907142857142858L70.66428571428571,12.478571428571428L70.02142857142856,12.478571428571428L70.02142857142856,11.521428571428569L70.23571428571428,11.521428571428569L70.23571428571428,11.092857142857142L70.66428571428571,11.092857142857142L70.66428571428571,10.878571428571426L70.87857142857142,10.878571428571426L70.87857142857142,10.664285714285715L71.09285714285714,10.664285714285715L71.09285714285714,10.45z" stroke="none"/><path d="M97.49999999999999,12.05L97.49999999999999,11.95L98.62142857142855,11.95L98.62142857142855,12.378571428571426L99.37857142857142,12.378571428571426L99.37857142857142,11.521428571428569L99.59285714285713,11.521428571428569L99.59285714285713,4.335714285714285L99.37857142857142,4.335714285714285L99.37857142857142,4.121428571428571L98.62142857142855,4.121428571428571L98.62142857142855,4.335714285714285L98.19285714285712,4.335714285714285L98.19285714285712,4.55L97.97857142857141,4.55L97.97857142857141,5.192857142857142L79.7642857142857,5.192857142857142L79.7642857142857,5.407142857142857L75.90714285714284,5.407142857142857L75.90714285714284,5.835714285714285L75.47857142857141,5.835714285714285L75.47857142857141,6.478571428571428L73.7642857142857,6.478571428571428L73.7642857142857,7.121428571428571L73.54999999999998,7.121428571428571L73.54999999999998,7.335714285714285L70.97857142857141,7.335714285714285L70.97857142857141,7.55L70.49999999999999,7.55L70.49999999999999,7.45L70.87857142857142,7.45L70.87857142857142,7.235714285714286L73.44999999999999,7.235714285714286L73.44999999999999,7.021428571428571L73.66428571428571,7.021428571428571L73.66428571428571,6.378571428571428L75.37857142857142,6.378571428571428L75.37857142857142,5.735714285714286L75.80714285714285,5.735714285714286L75.80714285714285,5.307142857142857L79.66428571428571,5.307142857142857L79.66428571428571,5.0928571428571425L97.87857142857142,5.0928571428571425L97.87857142857142,4.45L98.09285714285713,4.45L98.09285714285713,4.235714285714286L98.52142857142856,4.235714285714286L98.52142857142856,4.021428571428571L99.47857142857141,4.021428571428571L99.47857142857141,4.235714285714286L99.69285714285712,4.235714285714286L99.69285714285712,11.62142857142857L99.47857142857141,11.62142857142857L99.47857142857141,12.478571428571428L98.52142857142856,12.478571428571428L98.52142857142856,12.05z" stroke="none"/><path d="M12,10.55L12,10.45L15.05,10.45L15.05,10.664285714285715L15.692857142857143,10.664285714285715L15.692857142857143,10.878571428571426L15.907142857142858,10.878571428571426L15.907142857142858,11.092857142857142L16.335714285714285,11.092857142857142L16.335714285714285,11.307142857142857L16.55,11.307142857142857L16.55,11.521428571428569L16.764285714285716,11.521428571428569L16.764285714285716,11.735714285714284L16.978571428571428,11.735714285714284L16.978571428571428,11.95L17.40714285714286,11.95L17.40714285714286,12.592857142857142L41.09285714285714,12.592857142857142L41.09285714285714,12.378571428571426L41.73571428571429,12.378571428571426L41.73571428571429,11.95L42,11.95L42,12.05L41.83571428571428,12.05L41.83571428571428,12.478571428571428L41.192857142857136,12.478571428571428L41.192857142857136,12.692857142857143L17.307142857142857,12.692857142857143L17.307142857142857,12.05L16.878571428571426,12.05L16.878571428571426,11.835714285714285L16.664285714285715,11.835714285714285L16.664285714285715,11.62142857142857L16.45,11.62142857142857L16.45,11.407142857142858L16.235714285714284,11.407142857142858L16.235714285714284,11.192857142857143L15.807142857142857,11.192857142857143L15.807142857142857,10.978571428571428L15.592857142857142,10.978571428571428L15.592857142857142,10.764285714285716L14.95,10.764285714285716L14.95,10.55z" stroke="none"/><path d="M31.5,3.05L31.5,2.95L44.192857142857136,2.95L44.192857142857136,3.1642857142857146L44.62142857142857,3.1642857142857146L44.62142857142857,3.3785714285714286L57.05,3.3785714285714286L57.05,3.592857142857143L57.47857142857142,3.592857142857143L57.47857142857142,4.021428571428571L58.12142857142857,4.021428571428571L58.12142857142857,4.45L58.33571428571428,4.45L58.33571428571428,4.664285714285715L59.40714285714285,4.664285714285715L59.40714285714285,4.878571428571429L59.62142857142857,4.878571428571429L59.62142857142857,5.0928571428571425L60.692857142857136,5.0928571428571425L60.692857142857136,5.307142857142857L60.90714285714285,5.307142857142857L60.90714285714285,5.735714285714286L61.33571428571428,5.735714285714286L61.33571428571428,5.95L61.5,5.95L61.5,6.05L61.23571428571429,6.05L61.23571428571429,5.835714285714285L60.80714285714286,5.835714285714285L60.80714285714286,5.407142857142857L60.59285714285714,5.407142857142857L60.59285714285714,5.192857142857142L59.52142857142857,5.192857142857142L59.52142857142857,4.978571428571429L59.30714285714286,4.978571428571429L59.30714285714286,4.764285714285714L58.23571428571429,4.764285714285714L58.23571428571429,4.55L58.02142857142857,4.55L58.02142857142857,4.121428571428571L57.378571428571426,4.121428571428571L57.378571428571426,3.6928571428571426L56.95,3.6928571428571426L56.95,3.478571428571428L44.52142857142857,3.478571428571428L44.52142857142857,3.2642857142857142L44.09285714285714,3.2642857142857142L44.09285714285714,3.05z" stroke="none"/><path d="M12,6.05L12,5.95L13.335714285714285,5.95L13.335714285714285,7.021428571428571L13.55,7.021428571428571L13.55,7.235714285714286L13.978571428571428,7.235714285714286L13.978571428571428,7.664285714285715L14.192857142857143,7.664285714285715L14.192857142857143,7.878571428571428L15.05,7.878571428571428L15.05,8.307142857142857L15.264285714285716,8.307142857142857L15.264285714285716,8.521428571428569L15.478571428571428,8.521428571428569L15.478571428571428,8.735714285714284L15.692857142857143,8.735714285714284L15.692857142857143,8.95L15.907142857142858,8.95L15.907142857142858,9.164285714285715L16.12142857142857,9.164285714285715L16.12142857142857,9.378571428571426L16.878571428571426,9.378571428571426L16.878571428571426,8.62142857142857L16.235714285714284,8.62142857142857L16.235714285714284,8.192857142857143L16.02142857142857,8.192857142857143L16.02142857142857,7.021428571428571L17.835714285714285,7.021428571428571L17.835714285714285,7.235714285714286L18.05,7.235714285714286L18.05,7.664285714285715L18.264285714285716,7.664285714285715L18.264285714285716,7.878571428571428L18.478571428571428,7.878571428571428L18.478571428571428,8.092857142857142L35.30714285714286,8.092857142857142L35.30714285714286,7.878571428571428L36.80714285714286,7.878571428571428L36.80714285714286,7.664285714285715L37.02142857142857,7.664285714285715L37.02142857142857,7.021428571428571L39.59285714285714,7.021428571428571L39.59285714285714,6.807142857142857L40.02142857142857,6.807142857142857L40.02142857142857,6.5928571428571425L40.23571428571429,6.5928571428571425L40.23571428571429,6.378571428571428L42.80714285714286,6.378571428571428L42.80714285714286,5.95L43.5,5.95L43.5,6.05L42.90714285714285,6.05L42.90714285714285,6.478571428571428L40.33571428571428,6.478571428571428L40.33571428571428,6.692857142857142L40.12142857142857,6.692857142857142L40.12142857142857,6.907142857142857L39.692857142857136,6.907142857142857L39.692857142857136,7.121428571428571L37.12142857142857,7.121428571428571L37.12142857142857,7.764285714285714L36.90714285714285,7.764285714285714L36.90714285714285,7.978571428571428L35.40714285714285,7.978571428571428L35.40714285714285,8.192857142857143L18.378571428571426,8.192857142857143L18.378571428571426,7.978571428571428L18.164285714285715,7.978571428571428L18.164285714285715,7.764285714285714L17.95,7.764285714285714L17.95,7.335714285714285L17.735714285714284,7.335714285714285L17.735714285714284,7.121428571428571L16.12142857142857,7.121428571428571L16.12142857142857,8.092857142857142L16.335714285714285,8.092857142857142L16.335714285714285,8.521428571428569L16.978571428571428,8.521428571428569L16.978571428571428,9.478571428571428L16.02142857142857,9.478571428571428L16.02142857142857,9.264285714285716L15.807142857142857,9.264285714285716L15.807142857142857,9.05L15.592857142857142,9.05L15.592857142857142,8.835714285714285L15.378571428571426,8.835714285714285L15.378571428571426,8.62142857142857L15.164285714285715,8.62142857142857L15.164285714285715,8.407142857142858L14.95,8.407142857142858L14.95,7.978571428571428L14.092857142857142,7.978571428571428L14.092857142857142,7.764285714285714L13.878571428571426,7.764285714285714L13.878571428571426,7.335714285714285L13.45,7.335714285714285L13.45,7.121428571428571L13.235714285714284,7.121428571428571L13.235714285714284,6.05z" stroke="none"/><path d="M65.99999999999999,12.05L65.99999999999999,11.95L69.2642857142857,11.95L69.2642857142857,12.164285714285715L69.47857142857141,12.164285714285715L69.47857142857141,12.378571428571426L69.69285714285714,12.378571428571426L69.69285714285714,12.807142857142857L70.54999999999998,12.807142857142857L70.54999999999998,13.021428571428569L98.30714285714285,13.021428571428569L98.30714285714285,12.807142857142857L99.37857142857142,12.807142857142857L99.37857142857142,12.592857142857142L99.59285714285713,12.592857142857142L99.59285714285713,11.95L99.80714285714285,11.95L99.80714285714285,11.092857142857142L100.44999999999999,11.092857142857142L100.44999999999999,10.5L100.54999999999998,10.5L100.54999999999998,11.192857142857143L99.90714285714284,11.192857142857143L99.90714285714284,12.05L99.69285714285712,12.05L99.69285714285712,12.692857142857143L99.47857142857141,12.692857142857143L99.47857142857141,12.907142857142858L98.40714285714284,12.907142857142858L98.40714285714284,13.12142857142857L70.44999999999999,13.12142857142857L70.44999999999999,12.907142857142858L69.59285714285714,12.907142857142858L69.59285714285714,12.478571428571428L69.37857142857142,12.478571428571428L69.37857142857142,12.264285714285716L69.16428571428571,12.264285714285716L69.16428571428571,12.05z" stroke="none"/><path d="M2.95,9L3.05,9L3.05,11.735714285714284L3.2642857142857142,11.735714285714284L3.2642857142857142,11.95L3.478571428571428,11.95L3.478571428571428,12.164285714285715L4.121428571428571,12.164285714285715L4.121428571428571,12.378571428571426L17.192857142857143,12.378571428571426L17.192857142857143,12.807142857142857L42.37857142857143,12.807142857142857L42.37857142857143,11.62142857142857L39.26428571428571,11.62142857142857L39.26428571428571,11.835714285714285L39.05,11.835714285714285L39.05,12L38.95,12L38.95,11.735714285714284L39.16428571428572,11.735714285714284L39.16428571428572,11.521428571428569L42.47857142857143,11.521428571428569L42.47857142857143,12.907142857142858L17.09285714285714,12.907142857142858L17.09285714285714,12.478571428571428L4.021428571428571,12.478571428571428L4.021428571428571,12.264285714285716L3.3785714285714286,12.264285714285716L3.3785714285714286,12.05L3.1642857142857146,12.05L3.1642857142857146,11.835714285714285L2.95,11.835714285714285z" stroke="none"/><path d="M85.54999999999998,3L85.44999999999999,3L85.44999999999999,2.8357142857142854L82.87857142857142,2.8357142857142854L82.87857142857142,2.6214285714285714L78.59285714285714,2.6214285714285714L78.59285714285714,2.407142857142857L49.12142857142857,2.407142857142857L49.12142857142857,2.6214285714285714L48.90714285714285,2.6214285714285714L48.90714285714285,2.8357142857142854L47.40714285714285,2.8357142857142854L47.40714285714285,3.05L45,3.05L45,2.95L47.30714285714286,2.95L47.30714285714286,2.7357142857142858L48.80714285714286,2.7357142857142858L48.80714285714286,2.521428571428572L49.02142857142857,2.521428571428572L49.02142857142857,2.3071428571428574L78.69285714285714,2.3071428571428574L78.69285714285714,2.521428571428572L82.97857142857141,2.521428571428572L82.97857142857141,2.7357142857142858L85.54999999999998,2.7357142857142858z" stroke="none"/><path d="M98.99999999999999,2.95L98.99999999999999,3.05L95.94999999999999,3.05L95.94999999999999,2.8357142857142854L95.73571428571428,2.8357142857142854L95.73571428571428,2.6214285714285714L83.09285714285714,2.6214285714285714L83.09285714285714,2.407142857142857L78.80714285714285,2.407142857142857L78.80714285714285,2.1928571428571426L31.12142857142857,2.1928571428571426L31.12142857142857,3.3785714285714286L43.97857142857143,3.3785714285714286L43.97857142857143,3.592857142857143L56.40714285714285,3.592857142857143L56.40714285714285,4.021428571428571L56.62142857142857,4.021428571428571L56.62142857142857,4.235714285714286L57.26428571428571,4.235714285714286L57.26428571428571,4.664285714285715L57.90714285714285,4.664285714285715L57.90714285714285,5.307142857142857L58.12142857142857,5.307142857142857L58.12142857142857,5.521428571428571L58.33571428571428,5.521428571428571L58.33571428571428,5.95L58.5,5.95L58.5,6.05L58.23571428571429,6.05L58.23571428571429,5.621428571428571L58.02142857142857,5.621428571428571L58.02142857142857,5.407142857142857L57.80714285714286,5.407142857142857L57.80714285714286,4.764285714285714L57.16428571428572,4.764285714285714L57.16428571428572,4.335714285714285L56.52142857142857,4.335714285714285L56.52142857142857,4.121428571428571L56.30714285714286,4.121428571428571L56.30714285714286,3.6928571428571426L43.87857142857143,3.6928571428571426L43.87857142857143,3.478571428571428L31.02142857142857,3.478571428571428L31.02142857142857,2.092857142857143L78.90714285714284,2.092857142857143L78.90714285714284,2.3071428571428574L83.19285714285714,2.3071428571428574L83.19285714285714,2.521428571428572L95.83571428571427,2.521428571428572L95.83571428571427,2.7357142857142858L96.04999999999998,2.7357142857142858L96.04999999999998,2.95z" stroke="none"/><path d="M102.04999999999998,9L101.94999999999999,9L101.94999999999999,6.264285714285714L101.73571428571428,6.264285714285714L101.73571428571428,6.05L101.30714285714285,6.05L101.30714285714285,5.407142857142857L101.09285714285713,5.407142857142857L101.09285714285713,5.192857142857142L100.87857142857142,5.192857142857142L100.87857142857142,4.978571428571429L100.66428571428571,4.978571428571429L100.66428571428571,4.335714285714285L100.23571428571428,4.335714285714285L100.23571428571428,3.907142857142857L100.02142857142856,3.907142857142857L100.02142857142856,3.6928571428571426L99.59285714285713,3.6928571428571426L99.59285714285713,2.8357142857142854L99.37857142857142,2.8357142857142854L99.37857142857142,2.6214285714285714L95.94999999999999,2.6214285714285714L95.94999999999999,2.407142857142857L83.52142857142856,2.407142857142857L83.52142857142856,2.1928571428571426L79.02142857142856,2.1928571428571426L79.02142857142856,1.9785714285714286L30.90714285714286,1.9785714285714286L30.90714285714286,3.592857142857143L43.12142857142857,3.592857142857143L43.12142857142857,3.8071428571428574L55.97857142857142,3.8071428571428574L55.97857142857142,4.235714285714286L56.40714285714285,4.235714285714286L56.40714285714285,4.45L57.05,4.45L57.05,4.878571428571429L57.26428571428571,4.878571428571429L57.26428571428571,5.0928571428571425L57.47857142857142,5.0928571428571425L57.47857142857142,5.307142857142857L57.692857142857136,5.307142857142857L57.692857142857136,5.521428571428571L57.90714285714285,5.521428571428571L57.90714285714285,5.735714285714286L58.12142857142857,5.735714285714286L58.12142857142857,6.378571428571428L59.73571428571429,6.378571428571428L59.73571428571429,5.95L60,5.95L60,6.05L59.83571428571428,6.05L59.83571428571428,6.478571428571428L58.02142857142857,6.478571428571428L58.02142857142857,5.835714285714285L57.80714285714286,5.835714285714285L57.80714285714286,5.621428571428571L57.59285714285714,5.621428571428571L57.59285714285714,5.407142857142857L57.378571428571426,5.407142857142857L57.378571428571426,5.192857142857142L57.16428571428572,5.192857142857142L57.16428571428572,4.978571428571429L56.95,4.978571428571429L56.95,4.55L56.30714285714286,4.55L56.30714285714286,4.335714285714285L55.878571428571426,4.335714285714285L55.878571428571426,3.907142857142857L43.02142857142857,3.907142857142857L43.02142857142857,3.6928571428571426L30.807142857142857,3.6928571428571426L30.807142857142857,1.8785714285714286L79.12142857142855,1.8785714285714286L79.12142857142855,2.092857142857143L83.62142857142855,2.092857142857143L83.62142857142855,2.3071428571428574L96.04999999999998,2.3071428571428574L96.04999999999998,2.521428571428572L99.47857142857141,2.521428571428572L99.47857142857141,2.7357142857142858L99.69285714285712,2.7357142857142858L99.69285714285712,3.592857142857143L100.12142857142855,3.592857142857143L100.12142857142855,3.8071428571428574L100.33571428571427,3.8071428571428574L100.33571428571427,4.235714285714286L100.7642857142857,4.235714285714286L100.7642857142857,4.878571428571429L100.97857142857141,4.878571428571429L100.97857142857141,5.0928571428571425L101.19285714285712,5.0928571428571425L101.19285714285712,5.307142857142857L101.40714285714284,5.307142857142857L101.40714285714284,5.95L101.83571428571427,5.95L101.83571428571427,6.164285714285715L102.04999999999998,6.164285714285715z" stroke="none"/></svg>