<svg version="1.1" width="105" height="105" xmlns="http://www.w3.org/2000/svg"><path d="M59.8,19.017157287525382L59.8,16.58284271247462L58.417157287525384,15.2L57.082842712474616,15.2L55.582842712474616,16.7L54,16.7L54,16.3L55.417157287525384,16.3L56.917157287525384,14.8L58.582842712474616,14.8L60.2,16.41715728752538L60.2,19.41715728752538L61.582842712474616,20.8L63.082842712474616,20.8L64.58284271247462,22.3L66,22.3L66,22.7L64.41715728752538,22.7L62.917157287525384,21.2L61.417157287525384,21.2L58.417157287525384,18.2L57.082842712474616,18.2L55.7,19.58284271247462L55.7,21L55.3,21L55.3,19.41715728752538L56.917157287525384,17.8L58.582842712474616,17.8z" stroke="none"/><path d="M78,13.217157287525382L79.41715728752538,11.8L80.91715728752538,11.8L82.3,10.41715728752538L82.3,7.5L82.7,7.5L82.7,10.58284271247462L81.08284271247462,12.2L79.58284271247462,12.2L78.2,13.58284271247462L78.2,14.91715728752538L79.7,16.41715728752538L79.7,17.91715728752538L81.2,19.41715728752538L81.2,20.91715728752538L87.08284271247462,26.8L88.58284271247462,26.8L91.64142135623732,29.85857864376269L91.35857864376268,30.14142135623731L88.41715728752538,27.2L86.91715728752538,27.2L80.8,21.08284271247462L80.8,19.58284271247462L79.3,18.08284271247462L79.3,16.58284271247462L77.8,15.08284271247462L77.8,13.58284271247462L76.41715728752538,12.2L73.41715728752538,12.2L65.91715728752538,4.7L61.5,4.7L61.5,4.3L66.08284271247462,4.3L73.58284271247462,11.8L76.58284271247462,11.8z" stroke="none"/><path d="M73.3,41.8L73.3,40.582842712474616L58.3,25.58284271247462L58.3,22.58284271247462L56.85857864376269,21.14142135623731L57.14142135623731,20.85857864376269L58.7,22.41715728752538L58.7,25.41715728752538L73.7,40.417157287525384L73.7,41.917157287525384L96.08284271247462,64.3L97.58284271247462,64.3L99.08284271247462,65.8L100.5,65.8L100.5,66.2L98.91715728752538,66.2L97.41715728752538,64.7L95.91715728752538,64.7L73.41715728752538,42.2L64.5,42.2L64.5,41.8z" stroke="none"/><path d="M67.3,77.8L67.3,58.5L67.7,58.5L67.7,77.8L70.58284271247462,77.8L73.58284271247462,80.8L75.08284271247462,80.8L78.08284271247462,83.8L79.58284271247462,83.8L81.08284271247462,85.3L82.58284271247462,85.3L84.08284271247462,86.8L88.5,86.8L88.5,87.2L83.91715728752538,87.2L82.41715728752538,85.7L80.91715728752538,85.7L79.41715728752538,84.2L77.91715728752538,84.2L74.91715728752538,81.2L73.41715728752538,81.2L70.41715728752538,78.2L64.58284271247462,78.2L58.582842712474616,84.2L52.582842712474616,84.2L51.082842712474616,85.7L49.582842712474616,85.7L46.64142135623731,88.64142135623732L46.35857864376269,88.35857864376268L49.417157287525384,85.3L50.917157287525384,85.3L52.417157287525384,83.8L58.417157287525384,83.8L64.41715728752538,77.8z" stroke="none"/><path d="M28.3,85.41715728752538L28.3,78.08284271247462L25.3,75.08284271247462L25.3,73.58284271247462L23.8,72.08284271247462L23.8,69.08284271247462L20.8,66.08284271247462L20.8,63L21.2,63L21.2,65.91715728752538L24.2,68.91715728752538L24.2,71.91715728752538L25.7,73.41715728752538L25.7,74.91715728752538L28.7,77.91715728752538L28.7,85.41715728752538L37.582842712474616,94.3L39.082842712474616,94.3L40.582842712474616,95.8L48.082842712474616,95.8L49.582842712474616,97.3L52.5,97.3L52.5,97.7L49.417157287525384,97.7L47.917157287525384,96.2L40.417157287525384,96.2L38.917157287525384,94.7L37.417157287525384,94.7L28.5,85.78284271247462L21.08284271247462,93.2L19.58284271247462,93.2L18.08284271247462,94.7L16.58284271247462,94.7L15.08284271247462,96.2L12,96.2L12,95.8L14.91715728752538,95.8L16.41715728752538,94.3L17.91715728752538,94.3L19.41715728752538,92.8L20.91715728752538,92.8z" stroke="none"/><path d="M62.8,88.3L62.8,86.91715728752538L64.41715728752538,85.3L78.08284271247462,85.3L79.58284271247462,86.8L81.08284271247462,86.8L82.58284271247462,88.3L85.58284271247462,88.3L87.08284271247462,89.8L88.41715728752538,89.8L89.8,88.41715728752538L89.8,85.58284271247462L86.91715728752538,82.7L85.41715728752538,82.7L74.91715728752538,72.2L71.91715728752538,72.2L70.3,70.58284271247462L70.3,66L70.7,66L70.7,70.41715728752538L72.08284271247462,71.8L75.08284271247462,71.8L85.58284271247462,82.3L87.08284271247462,82.3L90.2,85.41715728752538L90.2,88.58284271247462L88.58284271247462,90.2L86.91715728752538,90.2L85.41715728752538,88.7L82.41715728752538,88.7L80.91715728752538,87.2L79.41715728752538,87.2L77.91715728752538,85.7L64.58284271247462,85.7L63.2,87.08284271247462L63.2,88.3L64.58284271247462,88.3L66.2,89.91715728752538L66.2,96.08284271247462L64.7,97.58284271247462L64.7,102L64.3,102L64.3,97.41715728752538L65.8,95.91715728752538L65.8,90.08284271247462L64.41715728752538,88.7L63.2,88.7L63.2,91.58284271247462L61.7,93.08284271247462L61.7,94.58284271247462L58.7,97.58284271247462L58.7,99L58.3,99L58.3,97.41715728752538L61.3,94.41715728752538L61.3,92.91715728752538L62.8,91.41715728752538L62.8,88.7L60,88.7L60,88.3z" stroke="none"/><path d="M34.5,37.21715728752538L37.3,34.417157287525384L37.3,31.41715728752538L38.917157287525384,29.8L42,29.8L42,30.2L39.082842712474616,30.2L37.7,31.58284271247462L37.7,34.582842712474616L34.98284271247462,37.3L36.082842712474616,37.3L37.7,38.917157287525384L37.7,41.917157287525384L40.7,44.917157287525384L40.7,51L40.3,51L40.3,45.082842712474616L37.3,42.082842712474616L37.3,39.082842712474616L35.917157287525384,37.7L34.7,37.7L34.7,40.582842712474616L33.2,42.082842712474616L33.2,43.5L32.8,43.5L32.8,41.917157287525384L34.3,40.417157287525384L34.3,37.582842712474616L32.917157287525384,36.2L31.41715728752538,36.2L28.41715728752538,33.2L26.91715728752538,33.2L25.35857864376269,31.64142135623731L25.64142135623731,31.35857864376269L27.08284271247462,32.8L28.58284271247462,32.8L31.58284271247462,35.8L33.082842712474616,35.8z" stroke="none"/><path d="M62.8,38.51715728752538L62.8,36.082842712474616L58.3,31.58284271247462L58.3,30.08284271247462L56.8,28.58284271247462L56.8,25.58284271247462L53.8,22.58284271247462L53.8,19.58284271247462L52.3,18.08284271247462L52.3,14.91715728752538L53.917157287525384,13.3L60.082842712474616,13.3L72.08284271247462,25.3L73.58284271247462,25.3L75.14142135623732,26.85857864376269L74.85857864376268,27.14142135623731L73.41715728752538,25.7L71.91715728752538,25.7L59.917157287525384,13.7L54.082842712474616,13.7L52.7,15.08284271247462L52.7,17.91715728752538L54.2,19.41715728752538L54.2,22.41715728752538L57.2,25.41715728752538L57.2,28.41715728752538L58.7,29.91715728752538L58.7,31.41715728752538L63.2,35.917157287525384L63.2,43.417157287525384L78.08284271247462,58.3L81.08284271247462,58.3L84.08284271247462,61.3L85.58284271247462,61.3L88.58284271247462,64.3L91.58284271247462,64.3L94.58284271247462,67.3L97.58284271247462,67.3L99.08284271247462,68.8L100.41715728752538,68.8L101.8,67.41715728752538L101.8,63.082842712474616L100.3,61.582842712474616L100.3,58.582842712474616L85.3,43.582842712474616L85.3,42L85.7,42L85.7,43.417157287525384L100.7,58.417157287525384L100.7,61.417157287525384L102.2,62.917157287525384L102.2,67.58284271247462L100.58284271247462,69.2L98.91715728752538,69.2L97.41715728752538,67.7L94.41715728752538,67.7L91.41715728752538,64.7L88.41715728752538,64.7L85.41715728752538,61.7L83.91715728752538,61.7L80.91715728752538,58.7L77.91715728752538,58.7L62.8,43.582842712474616L62.8,39.2L61.582842712474616,39.2L40.7,60.082842712474616L40.7,61.5L40.3,61.5L40.3,59.917157287525384L61.417157287525384,38.8L62.51715728752538,38.8L61.417157287525384,37.7L56.917157287525384,37.7L52.417157287525384,33.2L51,33.2L51,32.8L52.582842712474616,32.8L57.082842712474616,37.3L61.582842712474616,37.3z" stroke="none"/><path d="M28.3,23.8L28.3,22.41715728752538L29.91715728752538,20.8L31.58284271247462,20.8L33.082842712474616,22.3L45.082842712474616,22.3L46.582842712474616,23.8L51,23.8L51,24.2L46.417157287525384,24.2L44.917157287525384,22.7L32.917157287525384,22.7L31.41715728752538,21.2L30.08284271247462,21.2L28.7,22.58284271247462L28.7,23.8L39.082842712474616,23.8L43.7,28.41715728752538L43.7,31.58284271247462L42.082842712474616,33.2L39,33.2L39,32.8L41.917157287525384,32.8L43.3,31.41715728752538L43.3,28.58284271247462L38.917157287525384,24.2L28.58284271247462,24.2L22.7,30.08284271247462L22.7,31.58284271247462L21.2,33.082842712474616L21.2,34.582842712474616L19.7,36.082842712474616L19.7,37.582842712474616L18.14142135623731,39.14142135623731L17.85857864376269,38.85857864376269L19.3,37.417157287525384L19.3,35.917157287525384L20.8,34.417157287525384L20.8,32.917157287525384L22.3,31.41715728752538L22.3,29.91715728752538L28.017157287525382,24.2L26.91715728752538,24.2L19.3,16.58284271247462L19.3,12.08284271247462L14.91715728752538,7.7L13.41715728752538,7.7L8.85857864376269,3.1414213562373097L9.14142135623731,2.8585786437626903L13.58284271247462,7.3L15.08284271247462,7.3L19.7,11.91715728752538L19.7,16.41715728752538L27.08284271247462,23.8z" stroke="none"/><path d="M53.8,68.8L53.8,61.417157287525384L56.8,58.417157287525384L56.8,52.417157287525384L58.3,50.917157287525384L58.3,46.5L58.7,46.5L58.7,51.082842712474616L57.2,52.582842712474616L57.2,58.582842712474616L54.2,61.582842712474616L54.2,68.51715728752538L65.91715728752538,56.8L69.08284271247462,56.8L70.7,58.417157287525384L70.7,62.917157287525384L72.2,64.41715728752538L72.2,67.41715728752538L73.7,68.91715728752538L73.7,70.5L73.3,70.5L73.3,69.08284271247462L71.8,67.58284271247462L71.8,64.58284271247462L70.3,63.082842712474616L70.3,58.582842712474616L68.91715728752538,57.2L66.08284271247462,57.2L54.28284271247462,69L55.7,70.41715728752538L55.7,73.58284271247462L45.2,84.08284271247462L45.2,89.91715728752538L46.582842712474616,91.3L52.582842712474616,91.3L55.582842712474616,94.3L57,94.3L57,94.7L55.417157287525384,94.7L52.417157287525384,91.7L46.417157287525384,91.7L44.8,90.08284271247462L44.8,83.91715728752538L55.3,73.41715728752538L55.3,70.58284271247462L53.917157287525384,69.2L46.582842712474616,69.2L45.082842712474616,70.7L43.582842712474616,70.7L42.082842712474616,72.2L31.5,72.2L31.5,71.8L41.917157287525384,71.8L43.417157287525384,70.3L44.917157287525384,70.3L46.417157287525384,68.8z" stroke="none"/><path d="M97.5,79.7L97.5,79.3L100.5,79.3L100.5,79.7z" stroke="none"/><path d="M85.7,36L85.3,36L85.3,33L85.7,33z" stroke="none"/><path d="M27,40.7L27,40.3L28.41715728752538,40.3L29.8,38.917157287525384L29.8,37.582842712474616L28.35857864376269,36.14142135623731L28.64142135623731,35.85857864376269L30.2,37.417157287525384L30.2,39.082842712474616L28.58284271247462,40.7z" stroke="none"/><path d="M99,59.8L99,60.2L97.41715728752538,60.2L95.91715728752538,58.7L94.5,58.7L94.5,58.3L96.08284271247462,58.3L97.58284271247462,59.8z" stroke="none"/><path d="M28.35857864376269,63.14142135623731L28.64142135623731,62.85857864376269L30.2,64.41715728752538L30.2,65.91715728752538L31.64142135623731,67.35857864376268L31.35857864376269,67.64142135623732L29.8,66.08284271247462L29.8,64.58284271247462z" stroke="none"/><path d="M99.14142135623732,89.85857864376268L98.85857864376268,90.14142135623732L94.35857864376268,85.64142135623732L94.64142135623732,85.35857864376268z" stroke="none"/><path d="M7.358578643762691,93.14142135623732L7.641421356237309,92.85857864376268L9.2,94.41715728752538L9.2,97.41715728752538L10.64142135623731,98.85857864376268L10.35857864376269,99.14142135623732L8.8,97.58284271247462L8.8,94.58284271247462z" stroke="none"/><path d="M37.5,91.7L37.5,91.3L39.082842712474616,91.3L42.082842712474616,94.3L43.5,94.3L43.5,94.7L41.917157287525384,94.7L38.917157287525384,91.7z" stroke="none"/><path d="M69,91.7L69,91.3L71.91715728752538,91.3L73.41715728752538,89.8L76.5,89.8L76.5,90.2L73.58284271247462,90.2L72.08284271247462,91.7z" stroke="none"/><path d="M92.85857864376268,70.64142135623732L93.14142135623732,70.35857864376268L96.08284271247462,73.3L99.08284271247462,73.3L100.64142135623732,74.85857864376268L100.35857864376268,75.14142135623732L98.91715728752538,73.7L95.91715728752538,73.7z" stroke="none"/><path d="M97.35857864376268,91.35857864376268L97.64142135623732,91.64142135623732L93.2,96.08284271247462L93.2,97.58284271247462L90.14142135623732,100.64142135623732L89.85857864376268,100.35857864376268L92.8,97.41715728752538L92.8,95.91715728752538z" stroke="none"/><path d="M6,10.7L6,10.3L10.58284271247462,10.3L13.58284271247462,13.3L18,13.3L18,13.7L13.41715728752538,13.7L10.41715728752538,10.7z" stroke="none"/><path d="M5.8,64.5L6.2,64.5L6.2,78L5.8,78z" stroke="none"/><path d="M49.35857864376269,58.35857864376269L49.64142135623731,58.64142135623731L48.082842712474616,60.2L46.582842712474616,60.2L42.082842712474616,64.7L40.417157287525384,64.7L38.8,63.082842712474616L38.8,58.417157287525384L43.3,53.917157287525384L43.3,50.917157287525384L46.3,47.917157287525384L46.3,46.417157287525384L47.85857864376269,44.85857864376269L48.14142135623731,45.14142135623731L46.7,46.582842712474616L46.7,48.082842712474616L43.7,51.082842712474616L43.7,54.082842712474616L39.2,58.582842712474616L39.2,62.917157287525384L40.582842712474616,64.3L41.917157287525384,64.3L46.417157287525384,59.8L47.917157287525384,59.8z" stroke="none"/><path d="M40.5,67.3L40.5,67.7L34.582842712474616,67.7L33.082842712474616,69.2L29.91715728752538,69.2L28.3,67.58284271247462L28.3,66.08284271247462L26.8,64.58284271247462L26.8,63L27.2,63L27.2,64.41715728752538L28.7,65.91715728752538L28.7,67.41715728752538L30.08284271247462,68.8L32.917157287525384,68.8L34.417157287525384,67.3z" stroke="none"/><path d="M36.14142135623731,13.35857864376269L35.85857864376269,13.64142135623731L25.35857864376269,3.1414213562373097L25.64142135623731,2.8585786437626903z" stroke="none"/><path d="M67.5,28.7L67.5,28.3L70.58284271247462,28.3L72.08284271247462,29.8L74.91715728752538,29.8L76.3,28.41715728752538L76.3,25.58284271247462L64.41715728752538,13.7L62.917157287525384,13.7L61.417157287525384,12.2L52.582842712474616,12.2L51.2,13.58284271247462L51.2,20.91715728752538L52.7,22.41715728752538L52.7,25.58284271247462L51.2,27.08284271247462L51.2,28.58284271247462L49.7,30.08284271247462L49.7,34.417157287525384L52.582842712474616,37.3L54.082842712474616,37.3L55.64142135623731,38.85857864376269L55.35857864376269,39.14142135623731L53.917157287525384,37.7L52.417157287525384,37.7L49.3,34.582842712474616L49.3,29.91715728752538L50.8,28.41715728752538L50.8,26.91715728752538L52.3,25.41715728752538L52.3,22.58284271247462L50.8,21.08284271247462L50.8,13.41715728752538L52.417157287525384,11.8L61.582842712474616,11.8L63.082842712474616,13.3L64.58284271247462,13.3L76.7,25.41715728752538L76.7,28.58284271247462L75.08284271247462,30.2L71.91715728752538,30.2L70.41715728752538,28.7z" stroke="none"/><path d="M25.64142135623731,52.64142135623731L25.35857864376269,52.35857864376269L26.91715728752538,50.8L28.41715728752538,50.8L34.3,44.917157287525384L34.3,43.417157287525384L35.8,41.917157287525384L35.8,40.5L36.2,40.5L36.2,42.082842712474616L34.7,43.582842712474616L34.7,45.082842712474616L28.58284271247462,51.2L27.08284271247462,51.2z" stroke="none"/><path d="M10.5,61.7L10.5,61.3L22.58284271247462,61.3L24.2,62.917157287525384L24.2,65.91715728752538L25.7,67.41715728752538L25.7,69L25.3,69L25.3,67.58284271247462L23.8,66.08284271247462L23.8,63.082842712474616L22.41715728752538,61.7z" stroke="none"/><path d="M92.8,18L93.2,18L93.2,19.41715728752538L97.7,23.91715728752538L97.7,32.917157287525384L99.14142135623732,34.35857864376269L98.85857864376268,34.64142135623731L97.3,33.082842712474616L97.3,24.08284271247462L92.8,19.58284271247462z" stroke="none"/><path d="M98.85857864376268,31.64142135623731L99.14142135623732,31.35857864376269L100.7,32.917157287525384L100.7,39.082842712474616L99.2,40.582842712474616L99.2,49.5L98.8,49.5L98.8,40.417157287525384L100.3,38.917157287525384L100.3,33.082842712474616z" stroke="none"/><path d="M18,4.7L18,4.3L20.91715728752538,4.3L23.91715728752538,1.3L37.582842712474616,1.3L39.2,2.917157287525381L39.2,4.5L38.8,4.5L38.8,3.082842712474619L37.417157287525384,1.7L24.08284271247462,1.7L21.08284271247462,4.7z" stroke="none"/><path d="M70.64142135623732,5.858578643762691L70.35857864376268,6.141421356237309L67.41715728752538,3.2L65.91715728752538,3.2L64.41715728752538,1.7L61.582842712474616,1.7L60.2,3.082842712474619L60.2,5.917157287525381L61.582842712474616,7.3L64.58284271247462,7.3L67.7,10.41715728752538L67.7,13.41715728752538L78.2,23.91715728752538L78.2,30.08284271247462L76.58284271247462,31.7L67.41715728752538,31.7L65.8,30.08284271247462L65.8,26.91715728752538L67.41715728752538,25.3L69.08284271247462,25.3L70.58284271247462,26.8L72,26.8L72,27.2L70.41715728752538,27.2L68.91715728752538,25.7L67.58284271247462,25.7L66.2,27.08284271247462L66.2,29.91715728752538L67.58284271247462,31.3L76.41715728752538,31.3L77.8,29.91715728752538L77.8,24.08284271247462L67.3,13.58284271247462L67.3,10.58284271247462L64.41715728752538,7.7L61.417157287525384,7.7L59.8,6.082842712474619L59.8,2.917157287525381L61.417157287525384,1.3L64.58284271247462,1.3L66.08284271247462,2.8L67.58284271247462,2.8z" stroke="none"/><path d="M2.8,69L3.2,69L3.2,76.41715728752538L4.7,77.91715728752538L4.7,79.41715728752538L6.2,80.91715728752538L6.2,86.91715728752538L7.7,88.41715728752538L7.7,90L7.3,90L7.3,88.58284271247462L5.8,87.08284271247462L5.8,81.08284271247462L4.3,79.58284271247462L4.3,78.08284271247462L2.8,76.58284271247462z" stroke="none"/><path d="M94.64142135623732,55.35857864376269L94.35857864376268,55.64142135623731L83.8,45.082842712474616L83.8,39.082842712474616L82.35857864376268,37.64142135623731L82.64142135623732,37.35857864376269L84.2,38.917157287525384L84.2,44.917157287525384z" stroke="none"/><path d="M102.14142135623732,16.35857864376269L101.85857864376268,16.64142135623731L91.41715728752538,6.2L86.91715728752538,6.2L85.41715728752538,4.7L82.58284271247462,4.7L81.2,6.082842712474619L81.2,9L80.8,9L80.8,5.917157287525381L82.41715728752538,4.3L85.58284271247462,4.3L87.08284271247462,5.8L91.58284271247462,5.8z" stroke="none"/><path d="M82.35857864376268,19.64142135623731L82.64142135623732,19.35857864376269L87.08284271247462,23.8L88.58284271247462,23.8L93.2,28.41715728752538L93.2,36.082842712474616L90.2,39.082842712474616L90.2,40.5L89.8,40.5L89.8,38.917157287525384L92.8,35.917157287525384L92.8,28.58284271247462L88.41715728752538,24.2L86.91715728752538,24.2z" stroke="none"/><path d="M39,100.3L39,100.7L8.91715728752538,100.7L4.3,96.08284271247462L4.3,92.91715728752538L5.917157287525381,91.3L10.41715728752538,91.3L16.41715728752538,85.3L20.91715728752538,85.3L22.35857864376269,83.85857864376268L22.64142135623731,84.14142135623732L21.08284271247462,85.7L16.58284271247462,85.7L10.58284271247462,91.7L6.082842712474619,91.7L4.7,93.08284271247462L4.7,95.91715728752538L9.08284271247462,100.3z" stroke="none"/><path d="M43.7,93L43.3,93L43.3,82.41715728752538L53.85857864376269,71.85857864376268L54.14142135623731,72.14142135623732L43.7,82.58284271247462z" stroke="none"/><path d="M63,8.8L63,9.2L41.917157287525384,9.2L40.417157287525384,7.7L38.917157287525384,7.7L37.3,6.082842712474619L37.3,4.5L37.7,4.5L37.7,5.917157287525381L39.082842712474616,7.3L40.582842712474616,7.3L42.082842712474616,8.8z" stroke="none"/><path d="M91.7,42L91.3,42L91.3,40.417157287525384L94.3,37.417157287525384L94.3,27.08284271247462L92.8,25.58284271247462L92.8,24.08284271247462L91.3,22.58284271247462L91.3,16.41715728752538L92.8,14.91715728752538L92.8,13.5L93.2,13.5L93.2,15.08284271247462L91.7,16.58284271247462L91.7,22.41715728752538L93.2,23.91715728752538L93.2,25.41715728752538L94.7,26.91715728752538L94.7,37.582842712474616L91.7,40.582842712474616z" stroke="none"/><path d="M27,38.8L27,39.2L22.58284271247462,39.2L21.08284271247462,40.7L16.41715728752538,40.7L14.8,39.082842712474616L14.8,31.58284271247462L11.8,28.58284271247462L11.8,22.58284271247462L8.8,19.58284271247462L8.8,18.08284271247462L4.3,13.58284271247462L4.3,8.91715728752538L5.917157287525381,7.3L9.08284271247462,7.3L10.58284271247462,8.8L12.08284271247462,8.8L15.14142135623731,11.85857864376269L14.85857864376269,12.14142135623731L11.91715728752538,9.2L10.41715728752538,9.2L8.91715728752538,7.7L6.082842712474619,7.7L4.7,9.08284271247462L4.7,13.41715728752538L9.2,17.91715728752538L9.2,19.41715728752538L12.2,22.41715728752538L12.2,28.41715728752538L15.2,31.41715728752538L15.2,38.917157287525384L16.58284271247462,40.3L20.91715728752538,40.3L22.41715728752538,38.8z" stroke="none"/><path d="M88.5,12.2L88.5,11.8L94.58284271247462,11.8L99.2,16.41715728752538L99.2,17.91715728752538L100.7,19.41715728752538L100.7,23.91715728752538L102.2,25.41715728752538L102.2,49.582842712474616L100.58284271247462,51.2L97.41715728752538,51.2L95.8,49.582842712474616L95.8,48.082842712474616L94.3,46.582842712474616L94.3,43.582842712474616L92.85857864376268,42.14142135623731L93.14142135623732,41.85857864376269L94.7,43.417157287525384L94.7,46.417157287525384L96.2,47.917157287525384L96.2,49.417157287525384L97.58284271247462,50.8L100.41715728752538,50.8L101.8,49.417157287525384L101.8,25.58284271247462L100.3,24.08284271247462L100.3,19.58284271247462L98.8,18.08284271247462L98.8,16.58284271247462L94.41715728752538,12.2z" stroke="none"/><path d="M34.64142135623731,20.85857864376269L34.35857864376269,21.14142135623731L19.41715728752538,6.2L16.41715728752538,6.2L14.91715728752538,4.7L13.41715728752538,4.7L10.41715728752538,1.7L7.582842712474619,1.7L4.7,4.582842712474619L4.7,6.082842712474619L3.2,7.582842712474619L3.2,26.91715728752538L7.7,31.41715728752538L7.7,32.917157287525384L12.2,37.417157287525384L12.2,38.917157287525384L13.7,40.417157287525384L13.7,41.917157287525384L16.7,44.917157287525384L16.7,46.417157287525384L18.14142135623731,47.85857864376269L17.85857864376269,48.14142135623731L16.3,46.582842712474616L16.3,45.082842712474616L13.3,42.082842712474616L13.3,40.582842712474616L11.8,39.082842712474616L11.8,37.582842712474616L7.3,33.082842712474616L7.3,31.58284271247462L2.8,27.08284271247462L2.8,7.417157287525381L4.3,5.917157287525381L4.3,4.417157287525381L7.417157287525381,1.3L10.58284271247462,1.3L13.58284271247462,4.3L15.08284271247462,4.3L16.58284271247462,5.8L19.58284271247462,5.8z" stroke="none"/><path d="M13.64142135623731,94.64142135623732L13.35857864376269,94.35857864376268L14.91715728752538,92.8L16.41715728752538,92.8L23.8,85.41715728752538L23.8,82.58284271247462L14.8,73.58284271247462L14.8,72.08284271247462L13.3,70.58284271247462L13.3,69.08284271247462L10.3,66.08284271247462L10.3,64.58284271247462L8.8,63.082842712474616L8.8,59.917157287525384L10.41715728752538,58.3L21.08284271247462,58.3L22.58284271247462,59.8L24.08284271247462,59.8L25.64142135623731,61.35857864376269L25.35857864376269,61.64142135623731L23.91715728752538,60.2L22.41715728752538,60.2L20.91715728752538,58.7L10.58284271247462,58.7L9.2,60.082842712474616L9.2,62.917157287525384L10.7,64.41715728752538L10.7,65.91715728752538L13.7,68.91715728752538L13.7,70.41715728752538L15.2,71.91715728752538L15.2,73.41715728752538L24.2,82.41715728752538L24.2,85.58284271247462L16.58284271247462,93.2L15.08284271247462,93.2z" stroke="none"/><path d="M3,52.7L3,52.3L19.58284271247462,52.3L21.08284271247462,53.8L32.917157287525384,53.8L37.417157287525384,49.3L39,49.3L39,49.7L37.582842712474616,49.7L33.082842712474616,54.2L20.91715728752538,54.2L19.41715728752538,52.7z" stroke="none"/><path d="M76.64142135623732,100.64142135623732L76.35857864376268,100.35857864376268L83.91715728752538,92.8L88.41715728752538,92.8L91.3,89.91715728752538L91.3,84.08284271247462L86.8,79.58284271247462L86.8,76.58284271247462L79.3,69.08284271247462L79.3,67.58284271247462L74.85857864376268,63.14142135623731L75.14142135623732,62.85857864376269L79.7,67.41715728752538L79.7,68.91715728752538L87.2,76.41715728752538L87.2,79.41715728752538L91.7,83.91715728752538L91.7,90.08284271247462L88.58284271247462,93.2L84.08284271247462,93.2z" stroke="none"/><path d="M3.1414213562373097,64.64142135623732L2.8585786437626903,64.35857864376268L5.8,61.417157287525384L5.8,59.917157287525384L8.91715728752538,56.8L24.08284271247462,56.8L27.08284271247462,59.8L28.58284271247462,59.8L33.082842712474616,64.3L34.582842712474616,64.3L36.082842712474616,65.8L43.417157287525384,65.8L46.417157287525384,62.8L48.082842712474616,62.8L49.7,64.41715728752538L49.7,66.08284271247462L48.082842712474616,67.7L43.582842712474616,67.7L42.082842712474616,69.2L36.082842712474616,69.2L34.582842712474616,70.7L30.08284271247462,70.7L28.7,72.08284271247462L28.7,73.41715728752538L30.08284271247462,74.8L36.082842712474616,74.8L37.582842712474616,76.3L39,76.3L39,76.7L37.417157287525384,76.7L35.917157287525384,75.2L29.91715728752538,75.2L28.3,73.58284271247462L28.3,71.91715728752538L29.91715728752538,70.3L34.417157287525384,70.3L35.917157287525384,68.8L41.917157287525384,68.8L43.417157287525384,67.3L47.917157287525384,67.3L49.3,65.91715728752538L49.3,64.58284271247462L47.917157287525384,63.2L46.582842712474616,63.2L43.582842712474616,66.2L35.917157287525384,66.2L34.417157287525384,64.7L32.917157287525384,64.7L28.41715728752538,60.2L26.91715728752538,60.2L23.91715728752538,57.2L9.08284271247462,57.2L6.2,60.082842712474616L6.2,61.582842712474616z" stroke="none"/><path d="M65.85857864376268,99.14142135623732L66.14142135623732,98.85857864376268L67.7,100.41715728752538L67.7,102.08284271247462L66.08284271247462,103.7L11.91715728752538,103.7L10.41715728752538,102.2L7.417157287525381,102.2L2.8,97.58284271247462L2.8,81.08284271247462L1.3,79.58284271247462L1.3,62.917157287525384L4.3,59.917157287525384L4.3,58.417157287525384L7.417157287525381,55.3L34.5,55.3L34.5,55.7L7.582842712474619,55.7L4.7,58.582842712474616L4.7,60.082842712474616L1.7,63.082842712474616L1.7,79.41715728752538L3.2,80.91715728752538L3.2,97.41715728752538L7.582842712474619,101.8L10.58284271247462,101.8L12.08284271247462,103.3L65.91715728752538,103.3L67.3,101.91715728752538L67.3,100.58284271247462z" stroke="none"/><path d="M99.14142135623732,97.64142135623732L98.85857864376268,97.35857864376268L100.3,95.91715728752538L100.3,88.58284271247462L91.3,79.58284271247462L91.3,78.08284271247462L83.8,70.58284271247462L83.8,69.08284271247462L70.41715728752538,55.7L60.082842712474616,55.7L58.64142135623731,57.14142135623731L58.35857864376269,56.85857864376269L59.917157287525384,55.3L70.58284271247462,55.3L84.2,68.91715728752538L84.2,70.41715728752538L91.7,77.91715728752538L91.7,79.41715728752538L100.7,88.41715728752538L100.7,96.08284271247462z" stroke="none"/><circle cx="55.5" cy="21" r="0.25" stroke-width="0" fill="#000" /><circle cx="66" cy="22.5" r="0.25" stroke-width="0" fill="#000" /><circle cx="54" cy="16.5" r="0.25" stroke-width="0" fill="#000" /><circle cx="82.5" cy="7.5" r="0.25" stroke-width="0" fill="#000" /><circle cx="61.5" cy="4.5" r="0.25" stroke-width="0" fill="#000" /><circle cx="91.5" cy="30" r="0.25" stroke-width="0" fill="#000" /><circle cx="64.5" cy="42" r="0.25" stroke-width="0" fill="#000" /><circle cx="57" cy="21" r="0.25" stroke-width="0" fill="#000" /><circle cx="100.5" cy="66" r="0.25" stroke-width="0" fill="#000" /><circle cx="67.5" cy="58.5" r="0.25" stroke-width="0" fill="#000" /><circle cx="88.5" cy="87" r="0.25" stroke-width="0" fill="#000" /><circle cx="46.5" cy="88.5" r="0.25" stroke-width="0" fill="#000" /><circle cx="12" cy="96" r="0.25" stroke-width="0" fill="#000" /><circle cx="21" cy="63" r="0.25" stroke-width="0" fill="#000" /><circle cx="52.5" cy="97.5" r="0.25" stroke-width="0" fill="#000" /><circle cx="60" cy="88.5" r="0.25" stroke-width="0" fill="#000" /><circle cx="58.5" cy="99" r="0.25" stroke-width="0" fill="#000" /><circle cx="64.5" cy="102" r="0.25" stroke-width="0" fill="#000" /><circle cx="70.5" cy="66" r="0.25" stroke-width="0" fill="#000" /><circle cx="33" cy="43.5" r="0.25" stroke-width="0" fill="#000" /><circle cx="42" cy="30" r="0.25" stroke-width="0" fill="#000" /><circle cx="25.5" cy="31.5" r="0.25" stroke-width="0" fill="#000" /><circle cx="40.5" cy="51" r="0.25" stroke-width="0" fill="#000" /><circle cx="51" cy="33" r="0.25" stroke-width="0" fill="#000" /><circle cx="75" cy="27" r="0.25" stroke-width="0" fill="#000" /><circle cx="85.5" cy="42" r="0.25" stroke-width="0" fill="#000" /><circle cx="40.5" cy="61.5" r="0.25" stroke-width="0" fill="#000" /><circle cx="39" cy="33" r="0.25" stroke-width="0" fill="#000" /><circle cx="18" cy="39" r="0.25" stroke-width="0" fill="#000" /><circle cx="51" cy="24" r="0.25" stroke-width="0" fill="#000" /><circle cx="9" cy="3" r="0.25" stroke-width="0" fill="#000" /><circle cx="73.5" cy="70.5" r="0.25" stroke-width="0" fill="#000" /><circle cx="31.5" cy="72" r="0.25" stroke-width="0" fill="#000" /><circle cx="58.5" cy="46.5" r="0.25" stroke-width="0" fill="#000" /><circle cx="57" cy="94.5" r="0.25" stroke-width="0" fill="#000" /><circle cx="97.5" cy="79.5" r="0.25" stroke-width="0" fill="#000" /><circle cx="100.5" cy="79.5" r="0.25" stroke-width="0" fill="#000" /><circle cx="85.5" cy="36" r="0.25" stroke-width="0" fill="#000" /><circle cx="85.5" cy="33" r="0.25" stroke-width="0" fill="#000" /><circle cx="27" cy="40.5" r="0.25" stroke-width="0" fill="#000" /><circle cx="28.5" cy="36" r="0.25" stroke-width="0" fill="#000" /><circle cx="99" cy="60" r="0.25" stroke-width="0" fill="#000" /><circle cx="94.5" cy="58.5" r="0.25" stroke-width="0" fill="#000" /><circle cx="28.5" cy="63" r="0.25" stroke-width="0" fill="#000" /><circle cx="31.5" cy="67.5" r="0.25" stroke-width="0" fill="#000" /><circle cx="99" cy="90" r="0.25" stroke-width="0" fill="#000" /><circle cx="94.5" cy="85.5" r="0.25" stroke-width="0" fill="#000" /><circle cx="7.5" cy="93" r="0.25" stroke-width="0" fill="#000" /><circle cx="10.5" cy="99" r="0.25" stroke-width="0" fill="#000" /><circle cx="37.5" cy="91.5" r="0.25" stroke-width="0" fill="#000" /><circle cx="43.5" cy="94.5" r="0.25" stroke-width="0" fill="#000" /><circle cx="69" cy="91.5" r="0.25" stroke-width="0" fill="#000" /><circle cx="76.5" cy="90" r="0.25" stroke-width="0" fill="#000" /><circle cx="93" cy="70.5" r="0.25" stroke-width="0" fill="#000" /><circle cx="100.5" cy="75" r="0.25" stroke-width="0" fill="#000" /><circle cx="97.5" cy="91.5" r="0.25" stroke-width="0" fill="#000" /><circle cx="90" cy="100.5" r="0.25" stroke-width="0" fill="#000" /><circle cx="6" cy="10.5" r="0.25" stroke-width="0" fill="#000" /><circle cx="18" cy="13.5" r="0.25" stroke-width="0" fill="#000" /><circle cx="6" cy="64.5" r="0.25" stroke-width="0" fill="#000" /><circle cx="6" cy="78" r="0.25" stroke-width="0" fill="#000" /><circle cx="49.5" cy="58.5" r="0.25" stroke-width="0" fill="#000" /><circle cx="48" cy="45" r="0.25" stroke-width="0" fill="#000" /><circle cx="40.5" cy="67.5" r="0.25" stroke-width="0" fill="#000" /><circle cx="27" cy="63" r="0.25" stroke-width="0" fill="#000" /><circle cx="36" cy="13.5" r="0.25" stroke-width="0" fill="#000" /><circle cx="25.5" cy="3" r="0.25" stroke-width="0" fill="#000" /><circle cx="67.5" cy="28.5" r="0.25" stroke-width="0" fill="#000" /><circle cx="55.5" cy="39" r="0.25" stroke-width="0" fill="#000" /><circle cx="25.5" cy="52.5" r="0.25" stroke-width="0" fill="#000" /><circle cx="36" cy="40.5" r="0.25" stroke-width="0" fill="#000" /><circle cx="10.5" cy="61.5" r="0.25" stroke-width="0" fill="#000" /><circle cx="25.5" cy="69" r="0.25" stroke-width="0" fill="#000" /><circle cx="93" cy="18" r="0.25" stroke-width="0" fill="#000" /><circle cx="99" cy="34.5" r="0.25" stroke-width="0" fill="#000" /><circle cx="99" cy="31.5" r="0.25" stroke-width="0" fill="#000" /><circle cx="99" cy="49.5" r="0.25" stroke-width="0" fill="#000" /><circle cx="18" cy="4.5" r="0.25" stroke-width="0" fill="#000" /><circle cx="39" cy="4.5" r="0.25" stroke-width="0" fill="#000" /><circle cx="70.5" cy="6" r="0.25" stroke-width="0" fill="#000" /><circle cx="72" cy="27" r="0.25" stroke-width="0" fill="#000" /><circle cx="3" cy="69" r="0.25" stroke-width="0" fill="#000" /><circle cx="7.5" cy="90" r="0.25" stroke-width="0" fill="#000" /><circle cx="94.5" cy="55.5" r="0.25" stroke-width="0" fill="#000" /><circle cx="82.5" cy="37.5" r="0.25" stroke-width="0" fill="#000" /><circle cx="102" cy="16.5" r="0.25" stroke-width="0" fill="#000" /><circle cx="81" cy="9" r="0.25" stroke-width="0" fill="#000" /><circle cx="82.5" cy="19.5" r="0.25" stroke-width="0" fill="#000" /><circle cx="90" cy="40.5" r="0.25" stroke-width="0" fill="#000" /><circle cx="39" cy="100.5" r="0.25" stroke-width="0" fill="#000" /><circle cx="22.5" cy="84" r="0.25" stroke-width="0" fill="#000" /><circle cx="43.5" cy="93" r="0.25" stroke-width="0" fill="#000" /><circle cx="54" cy="72" r="0.25" stroke-width="0" fill="#000" /><circle cx="63" cy="9" r="0.25" stroke-width="0" fill="#000" /><circle cx="37.5" cy="4.5" r="0.25" stroke-width="0" fill="#000" /><circle cx="91.5" cy="42" r="0.25" stroke-width="0" fill="#000" /><circle cx="93" cy="13.5" r="0.25" stroke-width="0" fill="#000" /><circle cx="27" cy="39" r="0.25" stroke-width="0" fill="#000" /><circle cx="15" cy="12" r="0.25" stroke-width="0" fill="#000" /><circle cx="88.5" cy="12" r="0.25" stroke-width="0" fill="#000" /><circle cx="93" cy="42" r="0.25" stroke-width="0" fill="#000" /><circle cx="34.5" cy="21" r="0.25" stroke-width="0" fill="#000" /><circle cx="18" cy="48" r="0.25" stroke-width="0" fill="#000" /><circle cx="13.5" cy="94.5" r="0.25" stroke-width="0" fill="#000" /><circle cx="25.5" cy="61.5" r="0.25" stroke-width="0" fill="#000" /><circle cx="3" cy="52.5" r="0.25" stroke-width="0" fill="#000" /><circle cx="39" cy="49.5" r="0.25" stroke-width="0" fill="#000" /><circle cx="76.5" cy="100.5" r="0.25" stroke-width="0" fill="#000" /><circle cx="75" cy="63" r="0.25" stroke-width="0" fill="#000" /><circle cx="3" cy="64.5" r="0.25" stroke-width="0" fill="#000" /><circle cx="39" cy="76.5" r="0.25" stroke-width="0" fill="#000" /><circle cx="66" cy="99" r="0.25" stroke-width="0" fill="#000" /><circle cx="34.5" cy="55.5" r="0.25" stroke-width="0" fill="#000" /><circle cx="99" cy="97.5" r="0.25" stroke-width="0" fill="#000" /><circle cx="58.5" cy="57" r="0.25" stroke-width="0" fill="#000" /><rect x="0" y="0" width="105" height="105" stroke-width="0.8" stroke="#000" fill="none" /></svg>