<svg version="1.1" width="105" height="105" xmlns="http://www.w3.org/2000/svg"><path d="M11.91715728752538,23.8L23.91715728752538,11.8L28.5,11.8L28.5,12.2L24.08284271247462,12.2L12.2,24.08284271247462L12.2,25.58284271247462L6.2,31.58284271247462L6.2,34.582842712474616L4.7,36.082842712474616L4.7,37.582842712474616L3.1414213562373097,39.14142135623731L2.8585786437626903,38.85857864376269L4.3,37.417157287525384L4.3,35.917157287525384L5.8,34.417157287525384L5.8,31.41715728752538L11.8,25.41715728752538L11.8,24.2L10.41715728752538,24.2L7.417157287525381,21.2L6,21.2L6,20.8L7.582842712474619,20.8L10.58284271247462,23.8z" stroke="none"/><path d="M90,95.8L90,96.2L82.7,96.2L82.7,97.41715728752538L84.08284271247462,98.8L88.41715728752538,98.8L89.91715728752538,97.3L91.5,97.3L91.5,97.7L90.08284271247462,97.7L88.58284271247462,99.2L83.91715728752538,99.2L82.3,97.58284271247462L82.3,96.2L80.91715728752538,96.2L79.41715728752538,94.7L72.08284271247462,94.7L70.58284271247462,96.2L66,96.2L66,95.8L70.41715728752538,95.8L71.91715728752538,94.3L79.58284271247462,94.3L81.08284271247462,95.8z" stroke="none"/><path d="M43.417157287525384,85.3L52.417157287525384,76.3L53.917157287525384,76.3L55.417157287525384,74.8L56.917157287525384,74.8L58.35857864376269,73.35857864376268L58.64142135623731,73.64142135623732L57.082842712474616,75.2L55.582842712474616,75.2L54.082842712474616,76.7L52.582842712474616,76.7L43.7,85.58284271247462L43.7,87.08284271247462L37.7,93.08284271247462L37.7,94.5L37.3,94.5L37.3,92.91715728752538L43.3,86.91715728752538L43.3,85.7L42.082842712474616,85.7L36.082842712474616,91.7L34.5,91.7L34.5,91.3L35.917157287525384,91.3L41.917157287525384,85.3z" stroke="none"/><path d="M89.8,25.41715728752538L89.8,19.41715728752538L91.3,17.91715728752538L91.3,16.41715728752538L92.8,14.91715728752538L92.8,6L93.2,6L93.2,15.08284271247462L91.7,16.58284271247462L91.7,18.08284271247462L90.2,19.58284271247462L90.2,25.41715728752538L94.7,29.91715728752538L94.7,31.41715728752538L96.2,32.917157287525384L96.2,35.917157287525384L97.7,37.417157287525384L97.7,39L97.3,39L97.3,37.582842712474616L95.8,36.082842712474616L95.8,33.082842712474616L94.3,31.58284271247462L94.3,30.08284271247462L90,25.78284271247462L84.2,31.58284271247462L84.2,33.082842712474616L82.64142135623732,34.64142135623731L82.35857864376268,34.35857864376269L83.8,32.917157287525384L83.8,31.41715728752538z" stroke="none"/><path d="M81,20.71715728752538L86.8,14.91715728752538L86.8,13.41715728752538L88.3,11.91715728752538L88.3,8.91715728752538L89.8,7.417157287525381L89.8,5.917157287525381L91.41715728752538,4.3L94.58284271247462,4.3L100.64142135623732,10.35857864376269L100.35857864376268,10.64142135623731L94.41715728752538,4.7L91.58284271247462,4.7L90.2,6.082842712474619L90.2,7.582842712474619L88.7,9.08284271247462L88.7,12.08284271247462L87.2,13.58284271247462L87.2,15.08284271247462L81.2,21.08284271247462L81.2,47.917157287525384L82.58284271247462,49.3L84,49.3L84,49.7L82.41715728752538,49.7L80.8,48.082842712474616L80.8,21.08284271247462L68.8,9.08284271247462L68.8,7.582842712474619L65.91715728752538,4.7L62.917157287525384,4.7L61.35857864376269,3.1414213562373097L61.64142135623731,2.8585786437626903L63.082842712474616,4.3L66.08284271247462,4.3L69.2,7.417157287525381L69.2,8.91715728752538z" stroke="none"/><path d="M82.58284271247462,77.8L93.08284271247462,77.8L94.58284271247462,79.3L97.5,79.3L97.5,79.7L94.41715728752538,79.7L92.91715728752538,78.2L82.98284271247462,78.2L84.08284271247462,79.3L85.58284271247462,79.3L87.14142135623732,80.85857864376268L86.85857864376268,81.14142135623732L85.41715728752538,79.7L83.91715728752538,79.7L82.7,78.48284271247462L82.7,79.58284271247462L79.7,82.58284271247462L79.7,87L79.3,87L79.3,82.41715728752538L82.3,79.41715728752538L82.3,78.08284271247462L80.91715728752538,76.7L79.41715728752538,76.7L74.8,72.08284271247462L74.8,70.58284271247462L70.35857864376268,66.14142135623732L70.64142135623732,65.85857864376268L75.2,70.41715728752538L75.2,71.91715728752538L79.58284271247462,76.3L81.08284271247462,76.3z" stroke="none"/><path d="M26.8,74.51715728752538L26.8,56.917157287525384L28.3,55.417157287525384L28.3,53.917157287525384L34.35857864376269,47.85857864376269L34.64142135623731,48.14142135623731L28.7,54.082842712474616L28.7,55.582842712474616L27.2,57.082842712474616L27.2,79.41715728752538L28.7,80.91715728752538L28.7,83.91715728752538L30.2,85.41715728752538L30.2,86.91715728752538L31.7,88.41715728752538L31.7,89.91715728752538L33.2,91.41715728752538L33.2,92.91715728752538L36.082842712474616,95.8L43.417157287525384,95.8L44.917157287525384,94.3L48,94.3L48,94.7L45.082842712474616,94.7L43.582842712474616,96.2L35.917157287525384,96.2L32.8,93.08284271247462L32.8,91.58284271247462L31.3,90.08284271247462L31.3,88.58284271247462L29.8,87.08284271247462L29.8,85.58284271247462L28.3,84.08284271247462L28.3,81.08284271247462L26.8,79.58284271247462L26.8,75.2L25.58284271247462,75.2L24.08284271247462,76.7L22.58284271247462,76.7L7.7,91.58284271247462L7.7,93L7.3,93L7.3,91.41715728752538L22.41715728752538,76.3L23.91715728752538,76.3L25.41715728752538,74.8L26.517157287525382,74.8L25.3,73.58284271247462L25.3,69.08284271247462L22.35857864376269,66.14142135623732L22.64142135623731,65.85857864376268L25.7,68.91715728752538L25.7,73.41715728752538z" stroke="none"/><path d="M64.3,43.3L64.3,34.417157287525384L65.8,32.917157287525384L65.8,31.5L66.2,31.5L66.2,33.082842712474616L64.7,34.582842712474616L64.7,43.3L66.08284271247462,43.3L78.08284271247462,55.3L81.08284271247462,55.3L82.58284271247462,56.8L85.58284271247462,56.8L87.08284271247462,58.3L88.58284271247462,58.3L93.14142135623732,62.85857864376269L92.85857864376268,63.14142135623731L88.41715728752538,58.7L86.91715728752538,58.7L85.41715728752538,57.2L82.41715728752538,57.2L80.91715728752538,55.7L77.91715728752538,55.7L65.91715728752538,43.7L64.7,43.7L64.7,50.917157287525384L66.2,52.417157287525384L66.2,66.08284271247462L60.082842712474616,72.2L56.917157287525384,72.2L52.417157287525384,67.7L47.917157287525384,67.7L46.417157287525384,66.2L44.917157287525384,66.2L43.35857864376269,64.64142135623732L43.64142135623731,64.35857864376268L45.082842712474616,65.8L46.582842712474616,65.8L48.082842712474616,67.3L52.582842712474616,67.3L57.082842712474616,71.8L59.917157287525384,71.8L65.8,65.91715728752538L65.8,52.582842712474616L64.3,51.082842712474616L64.3,43.7L62.917157287525384,43.7L61.3,42.082842712474616L61.3,34.582842712474616L59.8,33.082842712474616L59.8,30.08284271247462L58.3,28.58284271247462L58.3,19.5L58.7,19.5L58.7,28.41715728752538L60.2,29.91715728752538L60.2,32.917157287525384L61.7,34.417157287525384L61.7,41.917157287525384L63.082842712474616,43.3z" stroke="none"/><path d="M49.3,50.8L49.3,47.917157287525384L53.8,43.417157287525384L53.8,31.58284271247462L52.35857864376269,30.14142135623731L52.64142135623731,29.85857864376269L54.2,31.41715728752538L54.2,43.582842712474616L49.7,48.082842712474616L49.7,50.51715728752538L58.35857864376269,41.85857864376269L58.64142135623731,42.14142135623731L49.7,51.082842712474616L49.7,55.417157287525384L54.2,59.917157287525384L54.2,64.41715728752538L57.2,67.41715728752538L57.2,68.91715728752538L58.64142135623731,70.35857864376268L58.35857864376269,70.64142135623732L56.8,69.08284271247462L56.8,67.58284271247462L53.8,64.58284271247462L53.8,60.082842712474616L49.3,55.582842712474616L49.3,51.2L48.082842712474616,51.2L39.082842712474616,60.2L37.582842712474616,60.2L36.082842712474616,61.7L33.082842712474616,61.7L30.14142135623731,64.64142135623732L29.85857864376269,64.35857864376268L32.917157287525384,61.3L35.917157287525384,61.3L37.417157287525384,59.8L38.917157287525384,59.8L47.917157287525384,50.8z" stroke="none"/><path d="M52.3,35.8L52.3,34.582842712474616L49.3,31.58284271247462L49.3,29.91715728752538L50.917157287525384,28.3L54.082842712474616,28.3L55.7,29.91715728752538L55.7,34.417157287525384L58.7,37.417157287525384L58.7,38.917157287525384L60.2,40.417157287525384L60.2,46.417157287525384L61.7,47.917157287525384L61.7,49.417157287525384L63.2,50.917157287525384L63.2,55.417157287525384L64.7,56.917157287525384L64.7,58.5L64.3,58.5L64.3,57.082842712474616L62.8,55.582842712474616L62.8,51.082842712474616L61.3,49.582842712474616L61.3,48.082842712474616L59.8,46.582842712474616L59.8,40.582842712474616L58.3,39.082842712474616L58.3,37.582842712474616L55.3,34.582842712474616L55.3,30.08284271247462L53.917157287525384,28.7L51.082842712474616,28.7L49.7,30.08284271247462L49.7,31.41715728752538L52.7,34.417157287525384L52.7,39.082842712474616L45.082842712474616,46.7L40.417157287525384,46.7L38.8,45.082842712474616L38.8,42.082842712474616L34.3,37.582842712474616L34.3,34.417157287525384L35.8,32.917157287525384L35.8,29.91715728752538L37.3,28.41715728752538L37.3,25.41715728752538L44.8,17.91715728752538L44.8,16.41715728752538L49.3,11.91715728752538L49.3,10.41715728752538L55.417157287525384,4.3L56.917157287525384,4.3L59.917157287525384,1.3L63.082842712474616,1.3L64.58284271247462,2.8L67.58284271247462,2.8L70.7,5.917157287525381L70.7,7.417157287525381L72.14142135623732,8.85857864376269L71.85857864376268,9.14142135623731L70.3,7.582842712474619L70.3,6.082842712474619L67.41715728752538,3.2L64.41715728752538,3.2L62.917157287525384,1.7L60.082842712474616,1.7L57.082842712474616,4.7L55.582842712474616,4.7L49.7,10.58284271247462L49.7,12.08284271247462L45.2,16.58284271247462L45.2,18.08284271247462L37.7,25.58284271247462L37.7,28.58284271247462L36.2,30.08284271247462L36.2,33.082842712474616L34.7,34.582842712474616L34.7,37.417157287525384L39.2,41.917157287525384L39.2,44.917157287525384L40.582842712474616,46.3L44.917157287525384,46.3L52.3,38.917157287525384L52.3,36.48284271247462L48.082842712474616,40.7L46.582842712474616,40.7L42.14142135623731,45.14142135623731L41.85857864376269,44.85857864376269L46.417157287525384,40.3L47.917157287525384,40.3L52.01715728752538,36.2L36,36.2L36,35.8z" stroke="none"/><path d="M72,91.3L72,91.7L69,91.7L69,91.3z" stroke="none"/><path d="M76.3,24L76.7,24L76.7,28.5L76.3,28.5z" stroke="none"/><path d="M102.2,42L101.8,42L101.8,37.5L102.2,37.5z" stroke="none"/><path d="M10.7,84L10.3,84L10.3,80.91715728752538L11.8,79.41715728752538L11.8,78L12.2,78L12.2,79.58284271247462L10.7,81.08284271247462z" stroke="none"/><path d="M17.85857864376269,52.35857864376269L18.14142135623731,52.64142135623731L16.7,54.082842712474616L16.7,57.082842712474616L15.14142135623731,58.64142135623731L14.85857864376269,58.35857864376269L16.3,56.917157287525384L16.3,53.917157287525384z" stroke="none"/><path d="M85.5,76.7L85.5,76.3L89.91715728752538,76.3L91.41715728752538,74.8L93,74.8L93,75.2L91.58284271247462,75.2L90.08284271247462,76.7z" stroke="none"/><path d="M57.14142135623731,22.35857864376269L56.85857864376269,22.64142135623731L55.3,21.08284271247462L55.3,19.41715728752538L56.917157287525384,17.8L60.082842712474616,17.8L61.582842712474616,19.3L64.5,19.3L64.5,19.7L61.417157287525384,19.7L59.917157287525384,18.2L57.082842712474616,18.2L55.7,19.58284271247462L55.7,20.91715728752538z" stroke="none"/><path d="M84.2,48L83.8,48L83.8,46.417157287525384L85.3,44.917157287525384L85.3,41.917157287525384L86.85857864376268,40.35857864376269L87.14142135623732,40.64142135623731L85.7,42.082842712474616L85.7,45.082842712474616L84.2,46.582842712474616z" stroke="none"/><path d="M25.7,100.5L25.3,100.5L25.3,91.5L25.7,91.5z" stroke="none"/><path d="M85.5,54.2L85.5,53.8L87.08284271247462,53.8L94.7,61.417157287525384L94.7,64.58284271247462L93.08284271247462,66.2L91.41715728752538,66.2L88.41715728752538,63.2L86.91715728752538,63.2L82.41715728752538,58.7L77.91715728752538,58.7L76.35857864376268,57.14142135623731L76.64142135623732,56.85857864376269L78.08284271247462,58.3L82.58284271247462,58.3L87.08284271247462,62.8L88.58284271247462,62.8L91.58284271247462,65.8L92.91715728752538,65.8L94.3,64.41715728752538L94.3,61.582842712474616L86.91715728752538,54.2z" stroke="none"/><path d="M35.85857864376269,3.1414213562373097L36.14142135623731,2.8585786437626903L37.582842712474616,4.3L39.082842712474616,4.3L43.64142135623731,8.85857864376269L43.35857864376269,9.14142135623731L38.917157287525384,4.7L37.417157287525384,4.7z" stroke="none"/><path d="M73.7,93L73.3,93L73.3,90.08284271247462L70.3,87.08284271247462L70.3,85.58284271247462L68.8,84.08284271247462L68.8,82.5L69.2,82.5L69.2,83.91715728752538L70.7,85.41715728752538L70.7,86.91715728752538L73.7,89.91715728752538z" stroke="none"/><path d="M62.85857864376269,13.64142135623731L63.14142135623731,13.35857864376269L72.14142135623732,22.35857864376269L71.85857864376268,22.64142135623731z" stroke="none"/><path d="M3,15.2L3,14.8L4.417157287525381,14.8L8.8,10.41715728752538L8.8,8.91715728752538L11.85857864376269,5.858578643762691L12.14142135623731,6.141421356237309L9.2,9.08284271247462L9.2,10.58284271247462L4.582842712474619,15.2z" stroke="none"/><path d="M11.85857864376269,74.85857864376268L12.14142135623731,75.14142135623732L10.7,76.58284271247462L10.7,78.08284271247462L9.2,79.58284271247462L9.2,81.08284271247462L6.2,84.08284271247462L6.2,88.58284271247462L4.7,90.08284271247462L4.7,94.41715728752538L6.082842712474619,95.8L7.417157287525381,95.8L8.8,94.41715728752538L8.8,92.91715728752538L13.35857864376269,88.35857864376268L13.64142135623731,88.64142135623732L9.2,93.08284271247462L9.2,94.58284271247462L7.582842712474619,96.2L5.917157287525381,96.2L4.3,94.58284271247462L4.3,89.91715728752538L5.8,88.41715728752538L5.8,83.91715728752538L8.8,80.91715728752538L8.8,79.41715728752538L10.3,77.91715728752538L10.3,76.41715728752538z" stroke="none"/><path d="M13.7,81L13.3,81L13.3,77.91715728752538L14.8,76.41715728752538L14.8,75.08284271247462L13.41715728752538,73.7L10.58284271247462,73.7L3.2,81.08284271247462L3.2,95.91715728752538L4.582842712474619,97.3L8.91715728752538,97.3L10.3,95.91715728752538L10.3,94.5L10.7,94.5L10.7,96.08284271247462L9.08284271247462,97.7L4.417157287525381,97.7L2.8,96.08284271247462L2.8,80.91715728752538L10.41715728752538,73.3L13.58284271247462,73.3L15.2,74.91715728752538L15.2,76.58284271247462L13.7,78.08284271247462z" stroke="none"/><path d="M90,3.2L90,2.8L97.58284271247462,2.8L103.7,8.91715728752538L103.7,10.58284271247462L102.08284271247462,12.2L100.5,12.2L100.5,11.8L101.91715728752538,11.8L103.3,10.41715728752538L103.3,9.08284271247462L97.41715728752538,3.2z" stroke="none"/><path d="M59.8,85.5L60.2,85.5L60.2,92.91715728752538L64.58284271247462,97.3L69,97.3L69,97.7L64.41715728752538,97.7L59.8,93.08284271247462z" stroke="none"/><path d="M42.14142135623731,100.64142135623732L41.85857864376269,100.35857864376268L43.417157287525384,98.8L47.917157287525384,98.8L50.917157287525384,95.8L52.417157287525384,95.8L53.917157287525384,94.3L55.417157287525384,94.3L56.85857864376269,92.85857864376268L57.14142135623731,93.14142135623732L55.582842712474616,94.7L54.082842712474616,94.7L52.582842712474616,96.2L51.082842712474616,96.2L48.082842712474616,99.2L43.582842712474616,99.2z" stroke="none"/><path d="M28.35857864376269,3.1414213562373097L28.64142135623731,2.8585786437626903L39.082842712474616,13.3L40.582842712474616,13.3L42.14142135623731,14.85857864376269L41.85857864376269,15.14142135623731L40.417157287525384,13.7L38.917157287525384,13.7z" stroke="none"/><path d="M7.358578643762691,63.14142135623731L7.641421356237309,62.85857864376269L10.58284271247462,65.8L13.58284271247462,65.8L16.58284271247462,68.8L18.08284271247462,68.8L19.58284271247462,70.3L24,70.3L24,70.7L19.41715728752538,70.7L17.91715728752538,69.2L16.41715728752538,69.2L13.41715728752538,66.2L10.41715728752538,66.2z" stroke="none"/><path d="M55.35857864376269,7.358578643762691L55.64142135623731,7.641421356237309L51.2,12.08284271247462L51.2,13.58284271247462L48.2,16.58284271247462L48.2,18.08284271247462L46.7,19.58284271247462L46.7,21.08284271247462L45.14142135623731,22.64142135623731L44.85857864376269,22.35857864376269L46.3,20.91715728752538L46.3,19.41715728752538L47.8,17.91715728752538L47.8,16.41715728752538L50.8,13.41715728752538L50.8,11.91715728752538z" stroke="none"/><path d="M77.85857864376268,96.14142135623732L78.14142135623732,95.85857864376268L82.58284271247462,100.3L89.91715728752538,100.3L91.41715728752538,98.8L92.91715728752538,98.8L97.35857864376268,94.35857864376268L97.64142135623732,94.64142135623732L93.08284271247462,99.2L91.58284271247462,99.2L90.08284271247462,100.7L82.41715728752538,100.7z" stroke="none"/><path d="M49.64142135623731,19.64142135623731L49.35857864376269,19.35857864376269L62.917157287525384,5.8L64.5,5.8L64.5,6.2L63.082842712474616,6.2z" stroke="none"/><path d="M81,75.2L81,74.8L88.41715728752538,74.8L89.91715728752538,73.3L97.58284271247462,73.3L102.14142135623732,77.85857864376268L101.85857864376268,78.14142135623732L97.41715728752538,73.7L90.08284271247462,73.7L88.58284271247462,75.2z" stroke="none"/><path d="M97.3,33L97.7,33L97.7,34.417157287525384L99.2,35.917157287525384L99.2,41.917157287525384L100.7,43.417157287525384L100.7,52.417157287525384L102.14142135623732,53.85857864376269L101.85857864376268,54.14142135623731L100.3,52.582842712474616L100.3,43.582842712474616L98.8,42.082842712474616L98.8,36.082842712474616L97.3,34.582842712474616z" stroke="none"/><path d="M94.3,34.5L94.7,34.5L94.7,37.582842712474616L90.2,42.082842712474616L90.2,45.082842712474616L88.7,46.582842712474616L88.7,48.082842712474616L85.58284271247462,51.2L80.91715728752538,51.2L74.8,45.082842712474616L74.8,42.082842712474616L73.3,40.582842712474616L73.3,39.082842712474616L71.8,37.582842712474616L71.8,36L72.2,36L72.2,37.417157287525384L73.7,38.917157287525384L73.7,40.417157287525384L75.2,41.917157287525384L75.2,44.917157287525384L81.08284271247462,50.8L85.41715728752538,50.8L88.3,47.917157287525384L88.3,46.417157287525384L89.8,44.917157287525384L89.8,41.917157287525384L94.3,37.417157287525384z" stroke="none"/><path d="M12.14142135623731,68.85857864376268L11.85857864376269,69.14142135623732L10.41715728752538,67.7L8.91715728752538,67.7L5.8,64.58284271247462L5.8,61.417157287525384L19.41715728752538,47.8L20.91715728752538,47.8L22.35857864376269,46.35857864376269L22.64142135623731,46.64142135623731L21.08284271247462,48.2L19.58284271247462,48.2L6.2,61.582842712474616L6.2,64.41715728752538L9.08284271247462,67.3L10.58284271247462,67.3z" stroke="none"/><path d="M12.14142135623731,19.64142135623731L11.85857864376269,19.35857864376269L17.91715728752538,13.3L19.41715728752538,13.3L22.41715728752538,10.3L30.08284271247462,10.3L31.7,11.91715728752538L31.7,34.582842712474616L27.2,39.082842712474616L27.2,40.5L26.8,40.5L26.8,38.917157287525384L31.3,34.417157287525384L31.3,12.08284271247462L29.91715728752538,10.7L22.58284271247462,10.7L19.58284271247462,13.7L18.08284271247462,13.7z" stroke="none"/><path d="M36,46.3L36,46.7L34.417157287525384,46.7L32.917157287525384,45.2L29.91715728752538,45.2L26.91715728752538,42.2L25.41715728752538,42.2L19.3,36.082842712474616L19.3,34.582842712474616L16.3,31.58284271247462L16.3,28.58284271247462L14.85857864376269,27.14142135623731L15.14142135623731,26.85857864376269L16.7,28.41715728752538L16.7,31.41715728752538L19.7,34.417157287525384L19.7,35.917157287525384L25.58284271247462,41.8L27.08284271247462,41.8L30.08284271247462,44.8L33.082842712474616,44.8L34.582842712474616,46.3z" stroke="none"/><path d="M25.35857864376269,13.35857864376269L25.64142135623731,13.64142135623731L13.7,25.58284271247462L13.7,27.08284271247462L9.2,31.58284271247462L9.2,33.082842712474616L7.7,34.582842712474616L7.7,36.082842712474616L6.2,37.582842712474616L6.2,40.582842712474616L4.582842712474619,42.2L2.917157287525381,42.2L1.3,40.582842712474616L1.3,26.91715728752538L4.3,23.91715728752538L4.3,19.41715728752538L5.917157287525381,17.8L7.417157287525381,17.8L10.41715728752538,14.8L13.41715728752538,14.8L16.41715728752538,11.8L17.91715728752538,11.8L20.91715728752538,8.8L31.58284271247462,8.8L33.2,10.41715728752538L33.2,40.417157287525384L34.64142135623731,41.85857864376269L34.35857864376269,42.14142135623731L32.8,40.582842712474616L32.8,10.58284271247462L31.41715728752538,9.2L21.08284271247462,9.2L18.08284271247462,12.2L16.58284271247462,12.2L13.58284271247462,15.2L10.58284271247462,15.2L7.582842712474619,18.2L6.082842712474619,18.2L4.7,19.58284271247462L4.7,24.08284271247462L1.7,27.08284271247462L1.7,40.417157287525384L3.082842712474619,41.8L4.417157287525381,41.8L5.8,40.417157287525384L5.8,37.417157287525384L7.3,35.917157287525384L7.3,34.417157287525384L8.8,32.917157287525384L8.8,31.41715728752538L13.3,26.91715728752538L13.3,25.41715728752538z" stroke="none"/><path d="M11.8,34.5L12.2,34.5L12.2,35.917157287525384L19.58284271247462,43.3L22.58284271247462,43.3L24.2,44.917157287525384L24.2,48.082842712474616L21.2,51.082842712474616L21.2,52.582842712474616L19.7,54.082842712474616L19.7,55.582842712474616L18.2,57.082842712474616L18.2,58.582842712474616L12.14142135623731,64.64142135623732L11.85857864376269,64.35857864376268L17.8,58.417157287525384L17.8,56.917157287525384L19.3,55.417157287525384L19.3,53.917157287525384L20.8,52.417157287525384L20.8,50.917157287525384L23.8,47.917157287525384L23.8,45.082842712474616L22.41715728752538,43.7L19.41715728752538,43.7L11.8,36.082842712474616z" stroke="none"/><path d="M13.5,70.3L13.5,70.7L8.91715728752538,70.7L4.3,66.08284271247462L4.3,50.917157287525384L5.8,49.417157287525384L5.8,46.417157287525384L7.3,44.917157287525384L7.3,43.417157287525384L8.8,41.917157287525384L8.8,38.917157287525384L10.3,37.417157287525384L10.3,32.917157287525384L11.91715728752538,31.3L13.58284271247462,31.3L18.2,35.917157287525384L18.2,38.917157287525384L19.64142135623731,40.35857864376269L19.35857864376269,40.64142135623731L17.8,39.082842712474616L17.8,36.082842712474616L13.41715728752538,31.7L12.08284271247462,31.7L10.7,33.082842712474616L10.7,37.582842712474616L9.2,39.082842712474616L9.2,42.082842712474616L7.7,43.582842712474616L7.7,45.082842712474616L6.2,46.582842712474616L6.2,49.582842712474616L4.7,51.082842712474616L4.7,65.91715728752538L9.08284271247462,70.3z" stroke="none"/><path d="M98.85857864376268,97.35857864376268L99.14142135623732,97.64142135623732L97.58284271247462,99.2L96.08284271247462,99.2L94.58284271247462,100.7L93.08284271247462,100.7L91.58284271247462,102.2L67.5,102.2L67.5,101.8L91.41715728752538,101.8L92.91715728752538,100.3L94.41715728752538,100.3L95.91715728752538,98.8L97.41715728752538,98.8z" stroke="none"/><path d="M78.2,37.5L77.8,37.5L77.8,33.082842712474616L74.8,30.08284271247462L74.8,22.58284271247462L64.41715728752538,12.2L61.582842712474616,12.2L57.082842712474616,16.7L55.582842712474616,16.7L51.082842712474616,21.2L48,21.2L48,20.8L50.917157287525384,20.8L55.417157287525384,16.3L56.917157287525384,16.3L61.417157287525384,11.8L64.58284271247462,11.8L75.2,22.41715728752538L75.2,29.91715728752538L78.2,32.917157287525384z" stroke="none"/><path d="M3.1414213562373097,13.64142135623731L2.8585786437626903,13.35857864376269L4.3,11.91715728752538L4.3,10.41715728752538L10.41715728752538,4.3L19.41715728752538,4.3L22.41715728752538,1.3L30.08284271247462,1.3L40.582842712474616,11.8L42.082842712474616,11.8L43.64142135623731,13.35857864376269L43.35857864376269,13.64142135623731L41.917157287525384,12.2L40.417157287525384,12.2L29.91715728752538,1.7L22.58284271247462,1.7L19.58284271247462,4.7L10.58284271247462,4.7L4.7,10.58284271247462L4.7,12.08284271247462z" stroke="none"/><path d="M61.5,78.2L61.5,77.8L67.58284271247462,77.8L78.08284271247462,88.3L94.58284271247462,88.3L100.7,94.41715728752538L100.7,99.08284271247462L99.08284271247462,100.7L97.5,100.7L97.5,100.3L98.91715728752538,100.3L100.3,98.91715728752538L100.3,94.58284271247462L94.41715728752538,88.7L77.91715728752538,88.7L67.41715728752538,78.2z" stroke="none"/><path d="M66,85.3L66,85.7L64.41715728752538,85.7L62.917157287525384,84.2L58.582842712474616,84.2L57.2,85.58284271247462L57.2,88.41715728752538L58.7,89.91715728752538L58.7,94.58284271247462L57.082842712474616,96.2L55.582842712474616,96.2L54.082842712474616,97.7L52.582842712474616,97.7L49.582842712474616,100.7L45.082842712474616,100.7L43.582842712474616,102.2L40.417157287525384,102.2L35.917157287525384,97.7L34.417157287525384,97.7L26.91715728752538,90.2L25.41715728752538,90.2L23.91715728752538,88.7L22.41715728752538,88.7L20.85857864376269,87.14142135623732L21.14142135623731,86.85857864376268L22.58284271247462,88.3L24.08284271247462,88.3L25.58284271247462,89.8L27.08284271247462,89.8L34.582842712474616,97.3L36.082842712474616,97.3L40.582842712474616,101.8L43.417157287525384,101.8L44.917157287525384,100.3L49.417157287525384,100.3L52.417157287525384,97.3L53.917157287525384,97.3L55.417157287525384,95.8L56.917157287525384,95.8L58.3,94.41715728752538L58.3,90.08284271247462L56.8,88.58284271247462L56.8,85.41715728752538L58.417157287525384,83.8L63.082842712474616,83.8L64.58284271247462,85.3z" stroke="none"/><path d="M61.5,79.3L61.5,79.7L59.917157287525384,79.7L58.3,78.08284271247462L58.3,76.41715728752538L67.3,67.41715728752538L67.3,65.91715728752538L68.91715728752538,64.3L84.08284271247462,64.3L85.58284271247462,65.8L88.58284271247462,65.8L90.08284271247462,67.3L94.41715728752538,67.3L95.8,65.91715728752538L95.8,58.582842712474616L94.3,57.082842712474616L94.3,48.082842712474616L92.85857864376268,46.64142135623731L93.14142135623732,46.35857864376269L94.7,47.917157287525384L94.7,56.917157287525384L96.2,58.417157287525384L96.2,66.08284271247462L94.58284271247462,67.7L89.91715728752538,67.7L88.41715728752538,66.2L85.41715728752538,66.2L83.91715728752538,64.7L69.08284271247462,64.7L67.7,66.08284271247462L67.7,67.58284271247462L58.7,76.58284271247462L58.7,77.91715728752538L60.082842712474616,79.3z" stroke="none"/><path d="M23.85857864376269,77.85857864376268L24.14142135623731,78.14142135623732L21.2,81.08284271247462L21.2,82.58284271247462L19.7,84.08284271247462L19.7,91.41715728752538L22.7,94.41715728752538L22.7,100.41715728752538L24.08284271247462,101.8L36.082842712474616,101.8L37.582842712474616,103.3L98.91715728752538,103.3L101.8,100.41715728752538L101.8,82.41715728752538L103.3,80.91715728752538L103.3,63.082842712474616L101.8,61.582842712474616L101.8,60.082842712474616L100.3,58.582842712474616L100.3,55.582842712474616L98.8,54.082842712474616L98.8,51.082842712474616L97.3,49.582842712474616L97.3,46.582842712474616L94.41715728752538,43.7L93.08284271247462,43.7L91.7,45.082842712474616L91.7,48.082842712474616L87.08284271247462,52.7L79.41715728752538,52.7L73.3,46.582842712474616L73.3,45.082842712474616L70.3,42.082842712474616L70.3,39.082842712474616L68.8,37.582842712474616L68.8,36.082842712474616L67.3,34.582842712474616L67.3,33L67.7,33L67.7,34.417157287525384L69.2,35.917157287525384L69.2,37.417157287525384L70.7,38.917157287525384L70.7,41.917157287525384L73.7,44.917157287525384L73.7,46.417157287525384L79.58284271247462,52.3L86.91715728752538,52.3L91.3,47.917157287525384L91.3,44.917157287525384L92.91715728752538,43.3L94.58284271247462,43.3L97.7,46.417157287525384L97.7,49.417157287525384L99.2,50.917157287525384L99.2,53.917157287525384L100.7,55.417157287525384L100.7,58.417157287525384L102.2,59.917157287525384L102.2,61.417157287525384L103.7,62.917157287525384L103.7,81.08284271247462L102.2,82.58284271247462L102.2,100.58284271247462L99.08284271247462,103.7L37.417157287525384,103.7L35.917157287525384,102.2L23.91715728752538,102.2L22.3,100.58284271247462L22.3,94.58284271247462L19.3,91.58284271247462L19.3,83.91715728752538L20.8,82.41715728752538L20.8,80.91715728752538z" stroke="none"/><circle cx="6" cy="21" r="0.25" stroke-width="0" fill="#000" /><circle cx="3" cy="39" r="0.25" stroke-width="0" fill="#000" /><circle cx="28.5" cy="12" r="0.25" stroke-width="0" fill="#000" /><circle cx="90" cy="96" r="0.25" stroke-width="0" fill="#000" /><circle cx="91.5" cy="97.5" r="0.25" stroke-width="0" fill="#000" /><circle cx="66" cy="96" r="0.25" stroke-width="0" fill="#000" /><circle cx="37.5" cy="94.5" r="0.25" stroke-width="0" fill="#000" /><circle cx="34.5" cy="91.5" r="0.25" stroke-width="0" fill="#000" /><circle cx="58.5" cy="73.5" r="0.25" stroke-width="0" fill="#000" /><circle cx="82.5" cy="34.5" r="0.25" stroke-width="0" fill="#000" /><circle cx="97.5" cy="39" r="0.25" stroke-width="0" fill="#000" /><circle cx="93" cy="6" r="0.25" stroke-width="0" fill="#000" /><circle cx="100.5" cy="10.5" r="0.25" stroke-width="0" fill="#000" /><circle cx="61.5" cy="3" r="0.25" stroke-width="0" fill="#000" /><circle cx="84" cy="49.5" r="0.25" stroke-width="0" fill="#000" /><circle cx="87" cy="81" r="0.25" stroke-width="0" fill="#000" /><circle cx="79.5" cy="87" r="0.25" stroke-width="0" fill="#000" /><circle cx="97.5" cy="79.5" r="0.25" stroke-width="0" fill="#000" /><circle cx="70.5" cy="66" r="0.25" stroke-width="0" fill="#000" /><circle cx="22.5" cy="66" r="0.25" stroke-width="0" fill="#000" /><circle cx="7.5" cy="93" r="0.25" stroke-width="0" fill="#000" /><circle cx="34.5" cy="48" r="0.25" stroke-width="0" fill="#000" /><circle cx="48" cy="94.5" r="0.25" stroke-width="0" fill="#000" /><circle cx="66" cy="31.5" r="0.25" stroke-width="0" fill="#000" /><circle cx="58.5" cy="19.5" r="0.25" stroke-width="0" fill="#000" /><circle cx="43.5" cy="64.5" r="0.25" stroke-width="0" fill="#000" /><circle cx="93" cy="63" r="0.25" stroke-width="0" fill="#000" /><circle cx="58.5" cy="42" r="0.25" stroke-width="0" fill="#000" /><circle cx="52.5" cy="30" r="0.25" stroke-width="0" fill="#000" /><circle cx="58.5" cy="70.5" r="0.25" stroke-width="0" fill="#000" /><circle cx="30" cy="64.5" r="0.25" stroke-width="0" fill="#000" /><circle cx="42" cy="45" r="0.25" stroke-width="0" fill="#000" /><circle cx="36" cy="36" r="0.25" stroke-width="0" fill="#000" /><circle cx="64.5" cy="58.5" r="0.25" stroke-width="0" fill="#000" /><circle cx="72" cy="9" r="0.25" stroke-width="0" fill="#000" /><circle cx="72" cy="91.5" r="0.25" stroke-width="0" fill="#000" /><circle cx="69" cy="91.5" r="0.25" stroke-width="0" fill="#000" /><circle cx="76.5" cy="24" r="0.25" stroke-width="0" fill="#000" /><circle cx="76.5" cy="28.5" r="0.25" stroke-width="0" fill="#000" /><circle cx="102" cy="42" r="0.25" stroke-width="0" fill="#000" /><circle cx="102" cy="37.5" r="0.25" stroke-width="0" fill="#000" /><circle cx="10.5" cy="84" r="0.25" stroke-width="0" fill="#000" /><circle cx="12" cy="78" r="0.25" stroke-width="0" fill="#000" /><circle cx="18" cy="52.5" r="0.25" stroke-width="0" fill="#000" /><circle cx="15" cy="58.5" r="0.25" stroke-width="0" fill="#000" /><circle cx="85.5" cy="76.5" r="0.25" stroke-width="0" fill="#000" /><circle cx="93" cy="75" r="0.25" stroke-width="0" fill="#000" /><circle cx="57" cy="22.5" r="0.25" stroke-width="0" fill="#000" /><circle cx="64.5" cy="19.5" r="0.25" stroke-width="0" fill="#000" /><circle cx="84" cy="48" r="0.25" stroke-width="0" fill="#000" /><circle cx="87" cy="40.5" r="0.25" stroke-width="0" fill="#000" /><circle cx="25.5" cy="100.5" r="0.25" stroke-width="0" fill="#000" /><circle cx="25.5" cy="91.5" r="0.25" stroke-width="0" fill="#000" /><circle cx="85.5" cy="54" r="0.25" stroke-width="0" fill="#000" /><circle cx="76.5" cy="57" r="0.25" stroke-width="0" fill="#000" /><circle cx="36" cy="3" r="0.25" stroke-width="0" fill="#000" /><circle cx="43.5" cy="9" r="0.25" stroke-width="0" fill="#000" /><circle cx="73.5" cy="93" r="0.25" stroke-width="0" fill="#000" /><circle cx="69" cy="82.5" r="0.25" stroke-width="0" fill="#000" /><circle cx="63" cy="13.5" r="0.25" stroke-width="0" fill="#000" /><circle cx="72" cy="22.5" r="0.25" stroke-width="0" fill="#000" /><circle cx="3" cy="15" r="0.25" stroke-width="0" fill="#000" /><circle cx="12" cy="6" r="0.25" stroke-width="0" fill="#000" /><circle cx="12" cy="75" r="0.25" stroke-width="0" fill="#000" /><circle cx="13.5" cy="88.5" r="0.25" stroke-width="0" fill="#000" /><circle cx="13.5" cy="81" r="0.25" stroke-width="0" fill="#000" /><circle cx="10.5" cy="94.5" r="0.25" stroke-width="0" fill="#000" /><circle cx="90" cy="3" r="0.25" stroke-width="0" fill="#000" /><circle cx="100.5" cy="12" r="0.25" stroke-width="0" fill="#000" /><circle cx="60" cy="85.5" r="0.25" stroke-width="0" fill="#000" /><circle cx="69" cy="97.5" r="0.25" stroke-width="0" fill="#000" /><circle cx="42" cy="100.5" r="0.25" stroke-width="0" fill="#000" /><circle cx="57" cy="93" r="0.25" stroke-width="0" fill="#000" /><circle cx="28.5" cy="3" r="0.25" stroke-width="0" fill="#000" /><circle cx="42" cy="15" r="0.25" stroke-width="0" fill="#000" /><circle cx="7.5" cy="63" r="0.25" stroke-width="0" fill="#000" /><circle cx="24" cy="70.5" r="0.25" stroke-width="0" fill="#000" /><circle cx="55.5" cy="7.5" r="0.25" stroke-width="0" fill="#000" /><circle cx="45" cy="22.5" r="0.25" stroke-width="0" fill="#000" /><circle cx="78" cy="96" r="0.25" stroke-width="0" fill="#000" /><circle cx="97.5" cy="94.5" r="0.25" stroke-width="0" fill="#000" /><circle cx="49.5" cy="19.5" r="0.25" stroke-width="0" fill="#000" /><circle cx="64.5" cy="6" r="0.25" stroke-width="0" fill="#000" /><circle cx="81" cy="75" r="0.25" stroke-width="0" fill="#000" /><circle cx="102" cy="78" r="0.25" stroke-width="0" fill="#000" /><circle cx="97.5" cy="33" r="0.25" stroke-width="0" fill="#000" /><circle cx="102" cy="54" r="0.25" stroke-width="0" fill="#000" /><circle cx="94.5" cy="34.5" r="0.25" stroke-width="0" fill="#000" /><circle cx="72" cy="36" r="0.25" stroke-width="0" fill="#000" /><circle cx="12" cy="69" r="0.25" stroke-width="0" fill="#000" /><circle cx="22.5" cy="46.5" r="0.25" stroke-width="0" fill="#000" /><circle cx="12" cy="19.5" r="0.25" stroke-width="0" fill="#000" /><circle cx="27" cy="40.5" r="0.25" stroke-width="0" fill="#000" /><circle cx="36" cy="46.5" r="0.25" stroke-width="0" fill="#000" /><circle cx="15" cy="27" r="0.25" stroke-width="0" fill="#000" /><circle cx="25.5" cy="13.5" r="0.25" stroke-width="0" fill="#000" /><circle cx="34.5" cy="42" r="0.25" stroke-width="0" fill="#000" /><circle cx="12" cy="34.5" r="0.25" stroke-width="0" fill="#000" /><circle cx="12" cy="64.5" r="0.25" stroke-width="0" fill="#000" /><circle cx="13.5" cy="70.5" r="0.25" stroke-width="0" fill="#000" /><circle cx="19.5" cy="40.5" r="0.25" stroke-width="0" fill="#000" /><circle cx="99" cy="97.5" r="0.25" stroke-width="0" fill="#000" /><circle cx="67.5" cy="102" r="0.25" stroke-width="0" fill="#000" /><circle cx="78" cy="37.5" r="0.25" stroke-width="0" fill="#000" /><circle cx="48" cy="21" r="0.25" stroke-width="0" fill="#000" /><circle cx="3" cy="13.5" r="0.25" stroke-width="0" fill="#000" /><circle cx="43.5" cy="13.5" r="0.25" stroke-width="0" fill="#000" /><circle cx="61.5" cy="78" r="0.25" stroke-width="0" fill="#000" /><circle cx="97.5" cy="100.5" r="0.25" stroke-width="0" fill="#000" /><circle cx="66" cy="85.5" r="0.25" stroke-width="0" fill="#000" /><circle cx="21" cy="87" r="0.25" stroke-width="0" fill="#000" /><circle cx="61.5" cy="79.5" r="0.25" stroke-width="0" fill="#000" /><circle cx="93" cy="46.5" r="0.25" stroke-width="0" fill="#000" /><circle cx="24" cy="78" r="0.25" stroke-width="0" fill="#000" /><circle cx="67.5" cy="33" r="0.25" stroke-width="0" fill="#000" /><rect x="0" y="0" width="105" height="105" stroke-width="0.8" stroke="#000" fill="none" /></svg>