<svg version="1.1" width="105" height="105" xmlns="http://www.w3.org/2000/svg"><path d="M86.91715728752538,68.8L88.35857864376268,67.35857864376268L88.64142135623732,67.64142135623732L87.08284271247462,69.2L70.7,69.2L70.7,70.41715728752538L72.14142135623732,71.85857864376268L71.85857864376268,72.14142135623732L70.3,70.58284271247462L70.3,69.2L63.082842712474616,69.2L61.582842712474616,70.7L60.082842712474616,70.7L58.582842712474616,72.2L52.5,72.2L52.5,71.8L58.417157287525384,71.8L59.917157287525384,70.3L61.417157287525384,70.3L62.917157287525384,68.8z" stroke="none"/><path d="M36.082842712474616,73.3L37.582842712474616,74.8L39,74.8L39,75.2L37.417157287525384,75.2L35.917157287525384,73.7L34.7,73.7L34.7,74.91715728752538L37.582842712474616,77.8L40.582842712474616,77.8L43.582842712474616,80.8L45.082842712474616,80.8L48.14142135623731,83.85857864376268L47.85857864376269,84.14142135623732L44.917157287525384,81.2L43.417157287525384,81.2L40.417157287525384,78.2L37.417157287525384,78.2L34.3,75.08284271247462L34.3,73.7L32.917157287525384,73.7L28.41715728752538,69.2L22.41715728752538,69.2L20.85857864376269,67.64142135623732L21.14142135623731,67.35857864376268L22.58284271247462,68.8L28.58284271247462,68.8L33.082842712474616,73.3z" stroke="none"/><path d="M79.3,65.91715728752538L79.3,62.917157287525384L80.8,61.417157287525384L80.8,58.5L81.2,58.5L81.2,61.582842712474616L79.7,63.082842712474616L79.7,65.8L80.91715728752538,65.8L82.41715728752538,64.3L83.91715728752538,64.3L86.91715728752538,61.3L88.41715728752538,61.3L91.35857864376268,58.35857864376269L91.64142135623732,58.64142135623731L88.58284271247462,61.7L87.08284271247462,61.7L84.08284271247462,64.7L82.58284271247462,64.7L81.08284271247462,66.2L79.58284271247462,66.2L78.08284271247462,67.7L74.91715728752538,67.7L73.3,66.08284271247462L73.3,64.41715728752538L74.91715728752538,62.8L76.58284271247462,62.8L78.2,64.41715728752538L78.2,65.91715728752538L79.58284271247462,67.3L82.41715728752538,67.3L83.91715728752538,65.8L85.41715728752538,65.8L86.91715728752538,64.3L88.58284271247462,64.3L90.2,65.91715728752538L90.2,69.08284271247462L72.14142135623732,87.14142135623732L71.85857864376268,86.85857864376268L89.8,68.91715728752538L89.8,66.08284271247462L88.41715728752538,64.7L87.08284271247462,64.7L85.58284271247462,66.2L84.08284271247462,66.2L82.58284271247462,67.7L79.41715728752538,67.7L77.8,66.08284271247462L77.8,64.58284271247462L76.41715728752538,63.2L75.08284271247462,63.2L73.7,64.58284271247462L73.7,65.91715728752538L75.08284271247462,67.3L77.91715728752538,67.3z" stroke="none"/><path d="M44.8,40.01715728752538L44.8,36.082842712474616L43.3,34.582842712474616L43.3,33.082842712474616L41.917157287525384,31.7L40.417157287525384,31.7L37.3,28.58284271247462L37.3,27.08284271247462L34.3,24.08284271247462L34.3,22.5L34.7,22.5L34.7,23.91715728752538L37.7,26.91715728752538L37.7,28.41715728752538L40.582842712474616,31.3L42.082842712474616,31.3L43.7,32.917157287525384L43.7,34.417157287525384L45.2,35.917157287525384L45.2,46.417157287525384L46.7,47.917157287525384L46.7,49.417157287525384L48.2,50.917157287525384L48.2,62.917157287525384L49.7,64.41715728752538L49.7,67.41715728752538L51.2,68.91715728752538L51.2,73.41715728752538L52.582842712474616,74.8L61.417157287525384,74.8L65.91715728752538,70.3L67.5,70.3L67.5,70.7L66.08284271247462,70.7L61.582842712474616,75.2L52.417157287525384,75.2L50.8,73.58284271247462L50.8,69.08284271247462L49.3,67.58284271247462L49.3,64.58284271247462L47.8,63.082842712474616L47.8,51.082842712474616L46.3,49.582842712474616L46.3,48.082842712474616L44.8,46.582842712474616L44.8,40.582842712474616L43.3,39.082842712474616L43.3,37.582842712474616L41.8,36.082842712474616L41.8,34.582842712474616L40.35857864376269,33.14142135623731L40.64142135623731,32.85857864376269L42.2,34.417157287525384L42.2,35.917157287525384L43.7,37.417157287525384L43.7,38.917157287525384z" stroke="none"/><path d="M79.3,37.417157287525384L79.3,35.917157287525384L98.8,16.41715728752538L98.8,13.41715728752538L100.35857864376268,11.85857864376269L100.64142135623732,12.14142135623731L99.2,13.58284271247462L99.2,16.58284271247462L79.7,36.082842712474616L79.7,54.082842712474616L78.2,55.582842712474616L78.2,57L77.8,57L77.8,55.417157287525384L79.3,53.917157287525384L79.3,37.98284271247462L78.08284271247462,39.2L76.58284271247462,39.2L75.08284271247462,40.7L73.58284271247462,40.7L72.08284271247462,42.2L70.58284271247462,42.2L64.64142135623732,48.14142135623731L64.35857864376268,47.85857864376269L70.41715728752538,41.8L71.91715728752538,41.8L73.41715728752538,40.3L74.91715728752538,40.3L76.41715728752538,38.8L77.91715728752538,38.8z" stroke="none"/><path d="M32.8,50.8L32.8,40.582842712474616L31.3,39.082842712474616L31.3,34.582842712474616L29.8,33.082842712474616L29.8,31.58284271247462L28.3,30.08284271247462L28.3,19.41715728752538L37.417157287525384,10.3L40.417157287525384,10.3L43.417157287525384,7.3L46.582842712474616,7.3L48.2,8.91715728752538L48.2,27L47.8,27L47.8,9.08284271247462L46.417157287525384,7.7L43.582842712474616,7.7L40.582842712474616,10.7L37.582842712474616,10.7L28.7,19.58284271247462L28.7,29.91715728752538L30.2,31.41715728752538L30.2,32.917157287525384L31.7,34.417157287525384L31.7,38.917157287525384L33.2,40.417157287525384L33.2,50.51715728752538L34.417157287525384,49.3L36,49.3L36,49.7L34.582842712474616,49.7L33.28284271247462,51L42.2,59.917157287525384L42.2,61.417157287525384L48.2,67.41715728752538L48.2,70.41715728752538L49.7,71.91715728752538L49.7,73.5L49.3,73.5L49.3,72.08284271247462L47.8,70.58284271247462L47.8,67.58284271247462L41.8,61.582842712474616L41.8,60.082842712474616L32.917157287525384,51.2L31.58284271247462,51.2L30.08284271247462,52.7L27.08284271247462,52.7L22.58284271247462,57.2L15.08284271247462,57.2L12.08284271247462,60.2L10.58284271247462,60.2L9.14142135623731,61.64142135623731L8.85857864376269,61.35857864376269L10.41715728752538,59.8L11.91715728752538,59.8L14.91715728752538,56.8L22.41715728752538,56.8L26.91715728752538,52.3L29.91715728752538,52.3L31.41715728752538,50.8z" stroke="none"/><path d="M40.7,35.917157287525384L40.7,44.917157287525384L43.7,47.917157287525384L43.7,50.917157287525384L45.2,52.417157287525384L45.2,56.917157287525384L46.64142135623731,58.35857864376269L46.35857864376269,58.64142135623731L44.8,57.082842712474616L44.8,52.582842712474616L43.3,51.082842712474616L43.3,48.082842712474616L40.3,45.082842712474616L40.3,36.48284271247462L39.2,37.582842712474616L39.2,39.082842712474616L37.7,40.582842712474616L37.7,43.582842712474616L34.7,46.582842712474616L34.7,48L34.3,48L34.3,46.417157287525384L37.3,43.417157287525384L37.3,40.417157287525384L38.8,38.917157287525384L38.8,37.417157287525384L40.01715728752538,36.2L37.417157287525384,36.2L29.8,28.58284271247462L29.8,20.91715728752538L38.917157287525384,11.8L41.917157287525384,11.8L44.85857864376269,8.85857864376269L45.14142135623731,9.14142135623731L42.082842712474616,12.2L39.082842712474616,12.2L30.2,21.08284271247462L30.2,28.41715728752538L37.582842712474616,35.8L40.01715728752538,35.8L31.3,27.08284271247462L31.3,22.41715728752538L32.917157287525384,20.8L36.082842712474616,20.8L40.7,25.41715728752538L40.7,26.91715728752538L42.2,28.41715728752538L42.2,30L41.8,30L41.8,28.58284271247462L40.3,27.08284271247462L40.3,25.58284271247462L35.917157287525384,21.2L33.082842712474616,21.2L31.7,22.58284271247462L31.7,26.91715728752538z" stroke="none"/><path d="M80.8,14.8L80.8,13.58284271247462L76.35857864376268,9.14142135623731L76.64142135623732,8.85857864376269L81.2,13.41715728752538L81.2,14.8L83.91715728752538,14.8L85.41715728752538,13.3L86.91715728752538,13.3L88.41715728752538,11.8L97.5,11.8L97.5,12.2L88.58284271247462,12.2L87.08284271247462,13.7L85.58284271247462,13.7L84.08284271247462,15.2L81.2,15.2L81.2,16.58284271247462L79.58284271247462,18.2L77.91715728752538,18.2L73.3,13.58284271247462L73.3,8.91715728752538L74.91715728752538,7.3L82.58284271247462,7.3L84.08284271247462,8.8L100.58284271247462,8.8L102.2,10.41715728752538L102.2,13.58284271247462L100.7,15.08284271247462L100.7,18.08284271247462L84.14142135623732,34.64142135623731L83.85857864376268,34.35857864376269L100.3,17.91715728752538L100.3,14.91715728752538L101.8,13.41715728752538L101.8,10.58284271247462L100.41715728752538,9.2L83.91715728752538,9.2L82.41715728752538,7.7L75.08284271247462,7.7L73.7,9.08284271247462L73.7,13.41715728752538L78.08284271247462,17.8L79.41715728752538,17.8L80.8,16.41715728752538L80.8,15.2L79.41715728752538,15.2L76.41715728752538,12.2L75,12.2L75,11.8L76.58284271247462,11.8L79.58284271247462,14.8z" stroke="none"/><path d="M10.5,49.21715728752538L17.8,41.917157287525384L17.8,38.917157287525384L19.3,37.417157287525384L19.3,35.917157287525384L23.85857864376269,31.35857864376269L24.14142135623731,31.64142135623731L19.7,36.082842712474616L19.7,37.582842712474616L18.2,39.082842712474616L18.2,42.082842712474616L10.7,49.582842712474616L10.7,52.582842712474616L9.2,54.082842712474616L9.2,57L8.8,57L8.8,53.917157287525384L10.3,52.417157287525384L10.3,49.7L9.08284271247462,49.7L7.7,51.082842712474616L7.7,67.41715728752538L9.2,68.91715728752538L9.2,71.91715728752538L13.64142135623731,76.35857864376268L13.35857864376269,76.64142135623732L8.8,72.08284271247462L8.8,69.08284271247462L7.3,67.58284271247462L7.3,50.917157287525384L8.91715728752538,49.3L10.01715728752538,49.3L8.8,48.082842712474616L8.8,46.582842712474616L4.358578643762691,42.14142135623731L4.641421356237309,41.85857864376269L9.2,46.417157287525384L9.2,47.917157287525384z" stroke="none"/><path d="M27.08284271247462,86.8L28.58284271247462,86.8L39.2,97.41715728752538L39.2,98.91715728752538L40.582842712474616,100.3L45.082842712474616,100.3L46.64142135623731,101.85857864376268L46.35857864376269,102.14142135623732L44.917157287525384,100.7L40.417157287525384,100.7L38.8,99.08284271247462L38.8,97.58284271247462L28.41715728752538,87.2L27.2,87.2L27.2,98.91715728752538L28.7,100.41715728752538L28.7,102L28.3,102L28.3,100.58284271247462L26.8,99.08284271247462L26.8,87.48284271247462L25.58284271247462,88.7L19.58284271247462,88.7L18.08284271247462,90.2L15.08284271247462,90.2L13.64142135623731,91.64142135623732L13.35857864376269,91.35857864376268L14.91715728752538,89.8L17.91715728752538,89.8L19.41715728752538,88.3L25.41715728752538,88.3L26.71715728752538,87L20.8,81.08284271247462L20.8,73.58284271247462L19.3,72.08284271247462L19.3,64.41715728752538L20.8,62.917157287525384L20.8,60L21.2,60L21.2,63.082842712474616L19.7,64.58284271247462L19.7,71.91715728752538L21.2,73.41715728752538L21.2,80.91715728752538z" stroke="none"/><path d="M67.5,99.2L67.5,98.8L70.5,98.8L70.5,99.2z" stroke="none"/><path d="M13.64142135623731,101.85857864376268L13.35857864376269,102.14142135623732L10.35857864376269,99.14142135623732L10.64142135623731,98.85857864376268z" stroke="none"/><path d="M5.8,15L6.2,15L6.2,18.08284271247462L4.641421356237309,19.64142135623731L4.358578643762691,19.35857864376269L5.8,17.91715728752538z" stroke="none"/><path d="M15,98.8L15,99.2L13.41715728752538,99.2L11.91715728752538,97.7L10.5,97.7L10.5,97.3L12.08284271247462,97.3L13.58284271247462,98.8z" stroke="none"/><path d="M37.64142135623731,65.85857864376268L37.35857864376269,66.14142135623732L35.917157287525384,64.7L34.417157287525384,64.7L32.85857864376269,63.14142135623731L33.14142135623731,62.85857864376269L34.582842712474616,64.3L36.082842712474616,64.3z" stroke="none"/><path d="M42.14142135623731,98.85857864376268L41.85857864376269,99.14142135623732L40.3,97.58284271247462L40.3,94.58284271247462L38.85857864376269,93.14142135623732L39.14142135623731,92.85857864376268L40.7,94.41715728752538L40.7,97.41715728752538z" stroke="none"/><path d="M16.5,30.2L16.5,29.8L17.91715728752538,29.8L20.91715728752538,26.8L22.5,26.8L22.5,27.2L21.08284271247462,27.2L18.08284271247462,30.2z" stroke="none"/><path d="M101.8,34.5L102.2,34.5L102.2,42L101.8,42z" stroke="none"/><path d="M95.85857864376268,77.85857864376268L96.14142135623732,78.14142135623732L94.7,79.58284271247462L94.7,81.08284271247462L91.64142135623732,84.14142135623732L91.35857864376268,83.85857864376268L94.3,80.91715728752538L94.3,79.41715728752538z" stroke="none"/><path d="M84,48.2L84,47.8L85.58284271247462,47.8L87.2,49.417157287525384L87.2,55.582842712474616L85.64142135623732,57.14142135623731L85.35857864376268,56.85857864376269L86.8,55.417157287525384L86.8,49.582842712474616L85.41715728752538,48.2z" stroke="none"/><path d="M78,88.7L78,88.3L80.91715728752538,88.3L82.41715728752538,86.8L87,86.8L87,87.2L82.58284271247462,87.2L81.08284271247462,88.7z" stroke="none"/><path d="M16.35857864376269,23.85857864376269L16.64142135623731,24.14142135623731L15.2,25.58284271247462L15.2,32.917157287525384L16.7,34.417157287525384L16.7,36L16.3,36L16.3,34.582842712474616L14.8,33.082842712474616L14.8,25.41715728752538z" stroke="none"/><path d="M58.5,4.7L58.5,4.3L63.082842712474616,4.3L64.58284271247462,5.8L70.5,5.8L70.5,6.2L64.41715728752538,6.2L62.917157287525384,4.7z" stroke="none"/><path d="M17.85857864376269,76.64142135623732L18.14142135623731,76.35857864376268L19.7,77.91715728752538L19.7,82.41715728752538L24.14142135623731,86.85857864376268L23.85857864376269,87.14142135623732L19.3,82.58284271247462L19.3,78.08284271247462z" stroke="none"/><path d="M72,19.7L72,19.3L81.08284271247462,19.3L82.58284271247462,20.8L84,20.8L84,21.2L82.41715728752538,21.2L80.91715728752538,19.7z" stroke="none"/><path d="M15,14.8L15,15.2L10.41715728752538,15.2L8.91715728752538,13.7L4.582842712474619,13.7L3.2,15.08284271247462L3.2,18L2.8,18L2.8,14.91715728752538L4.417157287525381,13.3L9.08284271247462,13.3L10.58284271247462,14.8z" stroke="none"/><path d="M45,88.7L45,88.3L46.417157287525384,88.3L50.8,83.91715728752538L50.8,79.41715728752538L52.35857864376269,77.85857864376268L52.64142135623731,78.14142135623732L51.2,79.58284271247462L51.2,84.08284271247462L46.582842712474616,88.7z" stroke="none"/><path d="M13.3,22.5L13.7,22.5L13.7,25.58284271247462L10.7,28.58284271247462L10.7,30.08284271247462L9.2,31.58284271247462L9.2,33.082842712474616L7.7,34.582842712474616L7.7,36L7.3,36L7.3,34.417157287525384L8.8,32.917157287525384L8.8,31.41715728752538L10.3,29.91715728752538L10.3,28.41715728752538L13.3,25.41715728752538z" stroke="none"/><path d="M22.64142135623731,20.85857864376269L22.35857864376269,21.14142135623731L17.8,16.58284271247462L17.8,15.08284271247462L14.91715728752538,12.2L10.41715728752538,12.2L7.358578643762691,9.14142135623731L7.641421356237309,8.85857864376269L10.58284271247462,11.8L15.08284271247462,11.8L18.2,14.91715728752538L18.2,16.41715728752538z" stroke="none"/><path d="M91.64142135623732,61.64142135623731L91.35857864376268,61.35857864376269L92.8,59.917157287525384L92.8,51.082842712474616L91.3,49.582842712474616L91.3,42L91.7,42L91.7,49.417157287525384L93.2,50.917157287525384L93.2,60.082842712474616z" stroke="none"/><path d="M88.7,91.5L88.3,91.5L88.3,88.41715728752538L89.8,86.91715728752538L89.8,80.91715728752538L91.3,79.41715728752538L91.3,74.91715728752538L92.8,73.41715728752538L92.8,72L93.2,72L93.2,73.58284271247462L91.7,75.08284271247462L91.7,79.58284271247462L90.2,81.08284271247462L90.2,87.08284271247462L88.7,88.58284271247462z" stroke="none"/><path d="M85.64142135623732,7.358578643762691L85.35857864376268,7.641421356237309L83.91715728752538,6.2L73.58284271247462,6.2L70.7,9.08284271247462L70.7,10.58284271247462L69.2,12.08284271247462L69.2,13.58284271247462L66.14142135623732,16.64142135623731L65.85857864376268,16.35857864376269L68.8,13.41715728752538L68.8,11.91715728752538L70.3,10.41715728752538L70.3,8.91715728752538L73.41715728752538,5.8L84.08284271247462,5.8z" stroke="none"/><path d="M65.85857864376268,82.64142135623732L66.14142135623732,82.35857864376268L67.7,83.91715728752538L67.7,85.41715728752538L70.58284271247462,88.3L75.08284271247462,88.3L76.58284271247462,89.8L87,89.8L87,90.2L76.41715728752538,90.2L74.91715728752538,88.7L70.41715728752538,88.7L67.3,85.58284271247462L67.3,84.08284271247462z" stroke="none"/><path d="M66.2,40.5L65.8,40.5L65.8,19.58284271247462L64.35857864376268,18.14142135623731L64.64142135623732,17.85857864376269L66.2,19.41715728752538z" stroke="none"/><path d="M84,49.3L84,49.7L82.41715728752538,49.7L80.8,48.082842712474616L80.8,46.417157287525384L95.8,31.41715728752538L95.8,30L96.2,30L96.2,31.58284271247462L81.2,46.582842712474616L81.2,47.917157287525384L82.58284271247462,49.3z" stroke="none"/><path d="M28.35857864376269,96.14142135623732L28.64142135623731,95.85857864376268L33.082842712474616,100.3L34.582842712474616,100.3L36.082842712474616,101.8L37.582842712474616,101.8L39.082842712474616,103.3L47.917157287525384,103.3L52.3,98.91715728752538L52.3,97.5L52.7,97.5L52.7,99.08284271247462L48.082842712474616,103.7L38.917157287525384,103.7L37.417157287525384,102.2L35.917157287525384,102.2L34.417157287525384,100.7L32.917157287525384,100.7z" stroke="none"/><path d="M99,97.3L99,97.7L94.41715728752538,97.7L92.91715728752538,96.2L83.91715728752538,96.2L82.41715728752538,94.7L73.5,94.7L73.5,94.3L82.58284271247462,94.3L84.08284271247462,95.8L93.08284271247462,95.8L94.58284271247462,97.3z" stroke="none"/><path d="M52.64142135623731,84.14142135623732L52.35857864376269,83.85857864376268L53.8,82.41715728752538L53.8,80.91715728752538L55.3,79.41715728752538L55.3,78.08284271247462L53.917157287525384,76.7L50.917157287525384,76.7L49.417157287525384,75.2L47.917157287525384,75.2L46.3,73.58284271247462L46.3,72.08284271247462L43.3,69.08284271247462L43.3,67.58284271247462L41.8,66.08284271247462L41.8,64.58284271247462L40.3,63.082842712474616L40.3,61.582842712474616L38.85857864376269,60.14142135623731L39.14142135623731,59.85857864376269L40.7,61.417157287525384L40.7,62.917157287525384L42.2,64.41715728752538L42.2,65.91715728752538L43.7,67.41715728752538L43.7,68.91715728752538L46.7,71.91715728752538L46.7,73.41715728752538L48.082842712474616,74.8L49.582842712474616,74.8L51.082842712474616,76.3L54.082842712474616,76.3L55.7,77.91715728752538L55.7,79.58284271247462L54.2,81.08284271247462L54.2,82.58284271247462z" stroke="none"/><path d="M52.7,39L52.3,39L52.3,36.082842712474616L47.8,31.58284271247462L47.8,30.08284271247462L46.3,28.58284271247462L46.3,10.5L46.7,10.5L46.7,28.41715728752538L48.2,29.91715728752538L48.2,31.41715728752538L52.7,35.917157287525384z" stroke="none"/><path d="M63,94.7L63,94.3L68.91715728752538,94.3L70.41715728752538,92.8L89.91715728752538,92.8L92.8,89.91715728752538L92.8,88.5L93.2,88.5L93.2,90.08284271247462L90.08284271247462,93.2L70.58284271247462,93.2L69.08284271247462,94.7z" stroke="none"/><path d="M88.7,84L88.3,84L88.3,74.91715728752538L89.8,73.41715728752538L89.8,71.91715728752538L91.41715728752538,70.3L94.58284271247462,70.3L96.2,71.91715728752538L96.2,73.41715728752538L97.7,74.91715728752538L97.7,89.91715728752538L100.7,92.91715728752538L100.7,99.08284271247462L99.08284271247462,100.7L76.41715728752538,100.7L74.91715728752538,99.2L73.41715728752538,99.2L71.91715728752538,97.7L68.91715728752538,97.7L67.41715728752538,96.2L61.417157287525384,96.2L56.8,91.58284271247462L56.8,90L57.2,90L57.2,91.41715728752538L61.582842712474616,95.8L67.58284271247462,95.8L69.08284271247462,97.3L72.08284271247462,97.3L73.58284271247462,98.8L75.08284271247462,98.8L76.58284271247462,100.3L98.91715728752538,100.3L100.3,98.91715728752538L100.3,93.08284271247462L97.3,90.08284271247462L97.3,75.08284271247462L95.8,73.58284271247462L95.8,72.08284271247462L94.41715728752538,70.7L91.58284271247462,70.7L90.2,72.08284271247462L90.2,73.58284271247462L88.7,75.08284271247462z" stroke="none"/><path d="M66,8.8L66,9.2L56.917157287525384,9.2L53.917157287525384,6.2L52.417157287525384,6.2L50.917157287525384,4.7L31.5,4.7L31.5,4.3L51.082842712474616,4.3L52.582842712474616,5.8L54.082842712474616,5.8L57.082842712474616,8.8z" stroke="none"/><path d="M7.3,24L7.7,24L7.7,28.58284271247462L6.2,30.08284271247462L6.2,33.082842712474616L4.7,34.582842712474616L4.7,37.582842712474616L3.2,39.082842712474616L3.2,68.91715728752538L12.08284271247462,77.8L14.91715728752538,77.8L16.3,76.41715728752538L16.3,62.917157287525384L17.8,61.417157287525384L17.8,59.917157287525384L19.41715728752538,58.3L23.91715728752538,58.3L28.35857864376269,53.85857864376269L28.64142135623731,54.14142135623731L24.08284271247462,58.7L19.58284271247462,58.7L18.2,60.082842712474616L18.2,61.582842712474616L16.7,63.082842712474616L16.7,76.58284271247462L15.08284271247462,78.2L11.91715728752538,78.2L2.8,69.08284271247462L2.8,38.917157287525384L4.3,37.417157287525384L4.3,34.417157287525384L5.8,32.917157287525384L5.8,29.91715728752538L7.3,28.41715728752538z" stroke="none"/><path d="M50.85857864376269,10.64142135623731L51.14142135623731,10.35857864376269L52.7,11.91715728752538L52.7,13.41715728752538L54.2,14.91715728752538L54.2,17.91715728752538L55.7,19.41715728752538L55.7,23.91715728752538L57.2,25.41715728752538L57.2,38.917157287525384L60.2,41.917157287525384L60.2,43.417157287525384L61.7,44.917157287525384L61.7,47.917157287525384L63.082842712474616,49.3L65.91715728752538,49.3L71.85857864376268,43.35857864376269L72.14142135623732,43.64142135623731L66.08284271247462,49.7L62.917157287525384,49.7L61.3,48.082842712474616L61.3,45.082842712474616L59.8,43.582842712474616L59.8,42.082842712474616L56.8,39.082842712474616L56.8,25.58284271247462L55.3,24.08284271247462L55.3,19.58284271247462L53.8,18.08284271247462L53.8,15.08284271247462L52.3,13.58284271247462L52.3,12.08284271247462z" stroke="none"/><path d="M100.3,84L100.7,84L100.7,88.41715728752538L102.2,89.91715728752538L102.2,100.58284271247462L100.58284271247462,102.2L68.91715728752538,102.2L67.41715728752538,100.7L65.91715728752538,100.7L64.41715728752538,99.2L61.417157287525384,99.2L53.8,91.58284271247462L53.8,89.91715728752538L55.417157287525384,88.3L58.582842712474616,88.3L60.14142135623731,89.85857864376268L59.85857864376269,90.14142135623732L58.417157287525384,88.7L55.582842712474616,88.7L54.2,90.08284271247462L54.2,91.41715728752538L61.582842712474616,98.8L64.58284271247462,98.8L66.08284271247462,100.3L67.58284271247462,100.3L69.08284271247462,101.8L100.41715728752538,101.8L101.8,100.41715728752538L101.8,90.08284271247462L100.3,88.58284271247462z" stroke="none"/><path d="M16.64142135623731,51.14142135623731L16.35857864376269,50.85857864376269L22.3,44.917157287525384L22.3,38.917157287525384L25.3,35.917157287525384L25.3,19.58284271247462L14.91715728752538,9.2L10.41715728752538,9.2L8.85857864376269,7.641421356237309L9.14142135623731,7.358578643762691L10.58284271247462,8.8L15.08284271247462,8.8L25.7,19.41715728752538L25.7,36.082842712474616L22.7,39.082842712474616L22.7,45.082842712474616z" stroke="none"/><path d="M38.8,79.5L39.2,79.5L39.2,85.41715728752538L43.582842712474616,89.8L47.917157287525384,89.8L49.417157287525384,88.3L50.917157287525384,88.3L52.417157287525384,86.8L56.917157287525384,86.8L61.417157287525384,82.3L62.917157287525384,82.3L64.41715728752538,80.8L73.41715728752538,80.8L82.41715728752538,71.8L84,71.8L84,72.2L82.58284271247462,72.2L73.58284271247462,81.2L64.58284271247462,81.2L63.082842712474616,82.7L61.582842712474616,82.7L57.082842712474616,87.2L52.582842712474616,87.2L51.082842712474616,88.7L49.582842712474616,88.7L48.082842712474616,90.2L43.417157287525384,90.2L38.8,85.58284271247462z" stroke="none"/><path d="M19.35857864376269,44.85857864376269L19.64142135623731,45.14142135623731L15.2,49.582842712474616L15.2,52.417157287525384L16.58284271247462,53.8L17.91715728752538,53.8L20.8,50.917157287525384L20.8,49.417157287525384L23.8,46.417157287525384L23.8,43.417157287525384L25.3,41.917157287525384L25.3,38.917157287525384L26.8,37.417157287525384L26.8,18.08284271247462L16.41715728752538,7.7L11.91715728752538,7.7L10.41715728752538,6.2L7.582842712474619,6.2L1.7,12.08284271247462L1.7,74.91715728752538L3.2,76.41715728752538L3.2,77.91715728752538L6.2,80.91715728752538L6.2,82.41715728752538L7.7,83.91715728752538L7.7,86.91715728752538L9.2,88.41715728752538L9.2,89.91715728752538L12.08284271247462,92.8L17.91715728752538,92.8L19.35857864376269,91.35857864376268L19.64142135623731,91.64142135623732L18.08284271247462,93.2L11.91715728752538,93.2L8.8,90.08284271247462L8.8,88.58284271247462L7.3,87.08284271247462L7.3,84.08284271247462L5.8,82.58284271247462L5.8,81.08284271247462L2.8,78.08284271247462L2.8,76.58284271247462L1.3,75.08284271247462L1.3,11.91715728752538L7.417157287525381,5.8L10.58284271247462,5.8L12.08284271247462,7.3L16.58284271247462,7.3L27.2,17.91715728752538L27.2,37.582842712474616L25.7,39.082842712474616L25.7,42.082842712474616L24.2,43.582842712474616L24.2,46.582842712474616L21.2,49.582842712474616L21.2,51.082842712474616L18.08284271247462,54.2L16.41715728752538,54.2L14.8,52.582842712474616L14.8,49.417157287525384z" stroke="none"/><path d="M22.35857864376269,79.64142135623732L22.64142135623731,79.35857864376268L28.58284271247462,85.3L30.08284271247462,85.3L33.082842712474616,88.3L34.582842712474616,88.3L36.082842712474616,89.8L37.582842712474616,89.8L39.082842712474616,91.3L43.582842712474616,91.3L45.082842712474616,92.8L46.582842712474616,92.8L48.082842712474616,94.3L49.582842712474616,94.3L51.082842712474616,95.8L55.582842712474616,95.8L60.082842712474616,100.3L63.082842712474616,100.3L64.58284271247462,101.8L66.08284271247462,101.8L67.58284271247462,103.3L101.91715728752538,103.3L103.3,101.91715728752538L103.3,57.082842712474616L97.3,51.082842712474616L97.3,46.582842712474616L94.3,43.582842712474616L94.3,42.082842712474616L92.91715728752538,40.7L90.08284271247462,40.7L88.7,42.082842712474616L88.7,58.582842712474616L87.08284271247462,60.2L85.41715728752538,60.2L83.8,58.582842712474616L83.8,57.082842712474616L82.41715728752538,55.7L81.08284271247462,55.7L79.7,57.082842712474616L79.7,58.582842712474616L78.08284271247462,60.2L74.91715728752538,60.2L73.41715728752538,58.7L71.91715728752538,58.7L70.41715728752538,57.2L68.91715728752538,57.2L67.41715728752538,55.7L65.91715728752538,55.7L55.3,45.082842712474616L55.3,43.5L55.7,43.5L55.7,44.917157287525384L66.08284271247462,55.3L67.58284271247462,55.3L69.08284271247462,56.8L70.58284271247462,56.8L72.08284271247462,58.3L73.58284271247462,58.3L75.08284271247462,59.8L77.91715728752538,59.8L79.3,58.417157287525384L79.3,56.917157287525384L80.91715728752538,55.3L82.58284271247462,55.3L84.2,56.917157287525384L84.2,58.417157287525384L85.58284271247462,59.8L86.91715728752538,59.8L88.3,58.417157287525384L88.3,41.917157287525384L89.91715728752538,40.3L93.08284271247462,40.3L94.7,41.917157287525384L94.7,43.417157287525384L97.7,46.417157287525384L97.7,50.917157287525384L103.7,56.917157287525384L103.7,102.08284271247462L102.08284271247462,103.7L67.41715728752538,103.7L65.91715728752538,102.2L64.41715728752538,102.2L62.917157287525384,100.7L59.917157287525384,100.7L55.417157287525384,96.2L50.917157287525384,96.2L49.417157287525384,94.7L47.917157287525384,94.7L46.417157287525384,93.2L44.917157287525384,93.2L43.417157287525384,91.7L38.917157287525384,91.7L37.417157287525384,90.2L35.917157287525384,90.2L34.417157287525384,88.7L32.917157287525384,88.7L29.91715728752538,85.7L28.41715728752538,85.7z" stroke="none"/><path d="M47.85857864376269,36.14142135623731L48.14142135623731,35.85857864376269L49.7,37.417157287525384L49.7,38.917157287525384L51.082842712474616,40.3L53.917157287525384,40.3L55.3,38.917157287525384L55.3,28.58284271247462L53.8,27.08284271247462L53.8,24.08284271247462L50.8,21.08284271247462L50.8,13.58284271247462L49.3,12.08284271247462L49.3,7.582842712474619L47.917157287525384,6.2L39.082842712474616,6.2L37.582842712474616,7.7L31.41715728752538,7.7L29.8,6.082842712474619L29.8,2.917157287525381L31.41715728752538,1.3L93.08284271247462,1.3L99.08284271247462,7.3L102.08284271247462,7.3L103.7,8.91715728752538L103.7,28.58284271247462L100.7,31.58284271247462L100.7,37.582842712474616L99.2,39.082842712474616L99.2,40.582842712474616L97.7,42.082842712474616L97.7,43.5L97.3,43.5L97.3,41.917157287525384L98.8,40.417157287525384L98.8,38.917157287525384L100.3,37.417157287525384L100.3,31.41715728752538L103.3,28.41715728752538L103.3,9.08284271247462L101.91715728752538,7.7L98.91715728752538,7.7L92.91715728752538,1.7L31.58284271247462,1.7L30.2,3.082842712474619L30.2,5.917157287525381L31.58284271247462,7.3L37.417157287525384,7.3L38.917157287525384,5.8L48.082842712474616,5.8L49.7,7.417157287525381L49.7,11.91715728752538L51.2,13.41715728752538L51.2,20.91715728752538L54.2,23.91715728752538L54.2,26.91715728752538L55.7,28.41715728752538L55.7,39.082842712474616L54.082842712474616,40.7L50.917157287525384,40.7L49.3,39.082842712474616L49.3,37.582842712474616z" stroke="none"/></svg>