<svg version="1.1" width="105" height="105" xmlns="http://www.w3.org/2000/svg"><path d="M46.3,59.917157287525384L47.917157287525384,58.3L55.417157287525384,58.3L56.917157287525384,56.8L59.917157287525384,56.8L61.417157287525384,55.3L62.917157287525384,55.3L65.91715728752538,52.3L69,52.3L69,52.7L66.08284271247462,52.7L63.082842712474616,55.7L61.582842712474616,55.7L60.082842712474616,57.2L57.082842712474616,57.2L55.582842712474616,58.7L48.082842712474616,58.7L46.7,60.082842712474616L46.7,61.3L48.082842712474616,61.3L49.7,62.917157287525384L49.7,70.58284271247462L48.082842712474616,72.2L37.582842712474616,72.2L36.082842712474616,73.7L27,73.7L27,73.3L35.917157287525384,73.3L37.417157287525384,71.8L47.917157287525384,71.8L49.3,70.41715728752538L49.3,63.082842712474616L47.917157287525384,61.7L46.7,61.7L46.7,64.5L46.3,64.5z" stroke="none"/><path d="M40.582842712474616,7.3L43.5,7.3L43.5,7.7L40.7,7.7L40.7,8.91715728752538L43.582842712474616,11.8L45,11.8L45,12.2L43.417157287525384,12.2L40.3,9.08284271247462L40.3,7.582842712474619L37.35857864376269,4.641421356237309L37.64142135623731,4.358578643762691z" stroke="none"/><path d="M23.85857864376269,62.85857864376269L24.14142135623731,63.14142135623731L19.982842712474618,67.3L22.41715728752538,67.3L25.3,64.41715728752538L25.3,62.917157287525384L26.85857864376269,61.35857864376269L27.14142135623731,61.64142135623731L25.7,63.082842712474616L25.7,64.58284271247462L22.58284271247462,67.7L19.58284271247462,67.7L18.2,69.08284271247462L18.2,70.58284271247462L12.2,76.58284271247462L12.2,78.08284271247462L10.64142135623731,79.64142135623732L10.35857864376269,79.35857864376268L11.8,77.91715728752538L11.8,76.41715728752538L17.8,70.41715728752538L17.8,68.91715728752538z" stroke="none"/><path d="M68.8,82.58284271247462L67.3,81.08284271247462L67.3,78.08284271247462L65.8,76.58284271247462L65.8,63L66.2,63L66.2,76.41715728752538L67.7,77.91715728752538L67.7,80.91715728752538L69.2,82.41715728752538L69.2,85.3L70.58284271247462,85.3L72.2,86.91715728752538L72.2,88.41715728752538L73.7,89.91715728752538L73.7,91.41715728752538L75.2,92.91715728752538L75.2,94.41715728752538L76.7,95.91715728752538L76.7,102L76.3,102L76.3,96.08284271247462L74.8,94.58284271247462L74.8,93.08284271247462L73.3,91.58284271247462L73.3,90.08284271247462L71.8,88.58284271247462L71.8,87.08284271247462L70.41715728752538,85.7L69.2,85.7L69.2,88.58284271247462L67.7,90.08284271247462L67.7,93L67.3,93L67.3,89.91715728752538L68.8,88.41715728752538z" stroke="none"/><path d="M28.3,67.41715728752538L28.3,60.082842712474616L23.91715728752538,55.7L20.91715728752538,55.7L19.41715728752538,54.2L17.91715728752538,54.2L16.41715728752538,52.7L15,52.7L15,52.3L16.58284271247462,52.3L18.08284271247462,53.8L19.58284271247462,53.8L21.08284271247462,55.3L24.08284271247462,55.3L28.7,59.917157287525384L28.7,67.3L43.582842712474616,67.3L45.082842712474616,68.8L48,68.8L48,69.2L44.917157287525384,69.2L43.417157287525384,67.7L28.58284271247462,67.7L25.7,70.58284271247462L25.7,73.58284271247462L24.2,75.08284271247462L24.2,84L23.8,84L23.8,74.91715728752538L25.3,73.41715728752538L25.3,70.41715728752538z" stroke="none"/><path d="M29.8,26.8L29.8,25.58284271247462L28.41715728752538,24.2L27.08284271247462,24.2L15.2,36.082842712474616L15.2,37.582842712474616L12.2,40.582842712474616L12.2,45.082842712474616L10.7,46.582842712474616L10.7,48L10.3,48L10.3,46.417157287525384L11.8,44.917157287525384L11.8,40.417157287525384L14.8,37.417157287525384L14.8,35.917157287525384L26.91715728752538,23.8L28.58284271247462,23.8L30.2,25.41715728752538L30.2,26.8L31.41715728752538,26.8L34.3,23.91715728752538L34.3,22.41715728752538L37.417157287525384,19.3L38.917157287525384,19.3L41.917157287525384,16.3L43.417157287525384,16.3L46.3,13.41715728752538L46.3,2.917157287525381L47.917157287525384,1.3L54.082842712474616,1.3L57.2,4.417157287525381L57.2,6L56.8,6L56.8,4.582842712474619L53.917157287525384,1.7L48.082842712474616,1.7L46.7,3.082842712474619L46.7,13.58284271247462L43.582842712474616,16.7L42.082842712474616,16.7L39.082842712474616,19.7L37.582842712474616,19.7L34.7,22.58284271247462L34.7,24.08284271247462L31.58284271247462,27.2L30.2,27.2L30.2,28.41715728752538L31.64142135623731,29.85857864376269L31.35857864376269,30.14142135623731L29.8,28.58284271247462L29.8,27.2L28.58284271247462,27.2L25.7,30.08284271247462L25.7,33.082842712474616L24.14142135623731,34.64142135623731L23.85857864376269,34.35857864376269L25.3,32.917157287525384L25.3,29.91715728752538L28.41715728752538,26.8z" stroke="none"/><path d="M81.08284271247462,40.3L85.41715728752538,40.3L89.91715728752538,35.8L98.91715728752538,35.8L100.35857864376268,34.35857864376269L100.64142135623732,34.64142135623731L99.08284271247462,36.2L90.08284271247462,36.2L85.58284271247462,40.7L81.2,40.7L81.2,41.917157287525384L84.2,44.917157287525384L84.2,51.082842712474616L82.7,52.582842712474616L82.7,54.082842712474616L78.2,58.582842712474616L78.2,60.082842712474616L76.7,61.582842712474616L76.7,63L76.3,63L76.3,61.417157287525384L77.8,59.917157287525384L77.8,58.417157287525384L82.3,53.917157287525384L82.3,52.417157287525384L83.8,50.917157287525384L83.8,45.082842712474616L80.8,42.082842712474616L80.8,40.7L77.91715728752538,40.7L70.35857864376268,33.14142135623731L70.64142135623732,32.85857864376269L78.08284271247462,40.3L80.51715728752538,40.3L76.35857864376268,36.14142135623731L76.64142135623732,35.85857864376269z" stroke="none"/><path d="M61.3,20.8L61.3,11.91715728752538L62.8,10.41715728752538L62.8,7.5L63.2,7.5L63.2,10.58284271247462L61.7,12.08284271247462L61.7,20.8L70.58284271247462,20.8L73.58284271247462,23.8L78.08284271247462,23.8L79.58284271247462,25.3L93,25.3L93,25.7L79.41715728752538,25.7L77.91715728752538,24.2L73.41715728752538,24.2L70.41715728752538,21.2L61.7,21.2L61.7,22.58284271247462L60.082842712474616,24.2L55.582842712474616,24.2L52.7,27.08284271247462L52.7,40.582842712474616L46.7,46.582842712474616L46.7,48L46.3,48L46.3,46.417157287525384L52.3,40.417157287525384L52.3,26.91715728752538L55.417157287525384,23.8L59.917157287525384,23.8L61.3,22.41715728752538L61.3,21.2L59.917157287525384,21.2L58.3,19.58284271247462L58.3,15.08284271247462L47.85857864376269,4.641421356237309L48.14142135623731,4.358578643762691L58.7,14.91715728752538L58.7,19.41715728752538L60.082842712474616,20.8z" stroke="none"/><path d="M62.8,46.3L62.8,45.082842712474616L59.8,42.082842712474616L59.8,40.582842712474616L58.3,39.082842712474616L58.3,37.582842712474616L53.8,33.082842712474616L53.8,28.5L54.2,28.5L54.2,32.917157287525384L58.7,37.417157287525384L58.7,38.917157287525384L60.2,40.417157287525384L60.2,41.917157287525384L63.2,44.917157287525384L63.2,46.3L69.08284271247462,46.3L70.58284271247462,47.8L73.58284271247462,47.8L75.08284271247462,49.3L82.5,49.3L82.5,49.7L74.91715728752538,49.7L73.41715728752538,48.2L70.41715728752538,48.2L68.91715728752538,46.7L63.48284271247462,46.7L66.08284271247462,49.3L69.08284271247462,49.3L70.7,50.917157287525384L70.7,61.417157287525384L72.14142135623732,62.85857864376269L71.85857864376268,63.14142135623731L70.3,61.582842712474616L70.3,51.082842712474616L68.91715728752538,49.7L65.91715728752538,49.7L62.917157287525384,46.7L49.582842712474616,46.7L48.14142135623731,48.14142135623731L47.85857864376269,47.85857864376269L49.417157287525384,46.3z" stroke="none"/><path d="M29.8,50.51715728752538L29.8,43.417157287525384L31.3,41.917157287525384L31.3,40.417157287525384L32.8,38.917157287525384L32.8,37.417157287525384L34.3,35.917157287525384L34.3,34.417157287525384L35.8,32.917157287525384L35.8,29.91715728752538L38.8,26.91715728752538L38.8,25.41715728752538L40.35857864376269,23.85857864376269L40.64142135623731,24.14142135623731L39.2,25.58284271247462L39.2,27.08284271247462L36.2,30.08284271247462L36.2,33.082842712474616L34.7,34.582842712474616L34.7,36.082842712474616L33.2,37.582842712474616L33.2,39.082842712474616L31.7,40.582842712474616L31.7,42.082842712474616L30.2,43.582842712474616L30.2,50.8L31.41715728752538,50.8L34.3,47.917157287525384L34.3,46.417157287525384L35.8,44.917157287525384L35.8,35.917157287525384L38.8,32.917157287525384L38.8,31.41715728752538L40.3,29.91715728752538L40.3,28.41715728752538L41.8,26.91715728752538L41.8,22.58284271247462L40.417157287525384,21.2L39.082842712474616,21.2L37.7,22.58284271247462L37.7,25.58284271247462L34.7,28.58284271247462L34.7,30.08284271247462L27.08284271247462,37.7L18.08284271247462,37.7L16.7,39.082842712474616L16.7,43.582842712474616L12.2,48.082842712474616L12.2,49.582842712474616L10.7,51.082842712474616L10.7,58.582842712474616L9.2,60.082842712474616L9.2,72L8.8,72L8.8,59.917157287525384L10.3,58.417157287525384L10.3,50.917157287525384L11.8,49.417157287525384L11.8,47.917157287525384L16.3,43.417157287525384L16.3,38.917157287525384L17.91715728752538,37.3L26.91715728752538,37.3L34.3,29.91715728752538L34.3,28.41715728752538L37.3,25.41715728752538L37.3,22.41715728752538L38.917157287525384,20.8L40.582842712474616,20.8L42.2,22.41715728752538L42.2,27.08284271247462L40.7,28.58284271247462L40.7,30.08284271247462L39.2,31.58284271247462L39.2,33.082842712474616L36.2,36.082842712474616L36.2,45.082842712474616L34.7,46.582842712474616L34.7,48.082842712474616L31.58284271247462,51.2L13.58284271247462,51.2L12.2,52.582842712474616L12.2,64.58284271247462L10.7,66.08284271247462L10.7,75.08284271247462L9.2,76.58284271247462L9.2,80.91715728752538L10.58284271247462,82.3L13.58284271247462,82.3L15.08284271247462,83.8L21.08284271247462,83.8L22.58284271247462,85.3L28.41715728752538,85.3L29.91715728752538,83.8L31.41715728752538,83.8L32.917157287525384,82.3L34.417157287525384,82.3L38.917157287525384,77.8L40.417157287525384,77.8L41.917157287525384,76.3L43.417157287525384,76.3L44.917157287525384,74.8L47.917157287525384,74.8L50.8,71.91715728752538L50.8,70.41715728752538L52.3,68.91715728752538L52.3,67.5L52.7,67.5L52.7,69.08284271247462L51.2,70.58284271247462L51.2,72.08284271247462L48.082842712474616,75.2L45.082842712474616,75.2L43.582842712474616,76.7L42.082842712474616,76.7L40.582842712474616,78.2L39.082842712474616,78.2L34.582842712474616,82.7L33.082842712474616,82.7L31.58284271247462,84.2L30.08284271247462,84.2L28.58284271247462,85.7L22.41715728752538,85.7L20.91715728752538,84.2L14.91715728752538,84.2L13.41715728752538,82.7L10.41715728752538,82.7L8.8,81.08284271247462L8.8,76.41715728752538L10.3,74.91715728752538L10.3,65.91715728752538L11.8,64.41715728752538L11.8,52.417157287525384L13.41715728752538,50.8L29.517157287525382,50.8L28.41715728752538,49.7L26.91715728752538,49.7L17.85857864376269,40.64142135623731L18.14142135623731,40.35857864376269L27.08284271247462,49.3L28.58284271247462,49.3z" stroke="none"/><path d="M96,73.3L96,73.7L93,73.7L93,73.3z" stroke="none"/><path d="M10.35857864376269,15.14142135623731L10.64142135623731,14.85857864376269L12.08284271247462,16.3L13.5,16.3L13.5,16.7L11.91715728752538,16.7z" stroke="none"/><path d="M4.641421356237309,51.14142135623731L4.358578643762691,50.85857864376269L5.917157287525381,49.3L7.417157287525381,49.3L8.85857864376269,47.85857864376269L9.14142135623731,48.14142135623731L7.582842712474619,49.7L6.082842712474619,49.7z" stroke="none"/><path d="M24.14142135623731,58.35857864376269L23.85857864376269,58.64142135623731L22.41715728752538,57.2L19.41715728752538,57.2L17.85857864376269,55.64142135623731L18.14142135623731,55.35857864376269L19.58284271247462,56.8L22.58284271247462,56.8z" stroke="none"/><path d="M4.3,10.5L4.7,10.5L4.7,21L4.3,21z" stroke="none"/><path d="M7.7,21L7.3,21L7.3,10.5L7.7,10.5z" stroke="none"/><path d="M76.5,13.7L76.5,13.3L78.08284271247462,13.3L84.08284271247462,19.3L85.58284271247462,19.3L87.08284271247462,20.8L88.58284271247462,20.8L90.08284271247462,22.3L93.08284271247462,22.3L94.7,23.91715728752538L94.7,27.08284271247462L93.08284271247462,28.7L76.41715728752538,28.7L73.41715728752538,25.7L71.91715728752538,25.7L68.85857864376268,22.64142135623731L69.14142135623732,22.35857864376269L72.08284271247462,25.3L73.58284271247462,25.3L76.58284271247462,28.3L92.91715728752538,28.3L94.3,26.91715728752538L94.3,24.08284271247462L92.91715728752538,22.7L89.91715728752538,22.7L88.41715728752538,21.2L86.91715728752538,21.2L85.41715728752538,19.7L83.91715728752538,19.7L77.91715728752538,13.7z" stroke="none"/><path d="M42.14142135623731,97.64142135623732L41.85857864376269,97.35857864376268L49.417157287525384,89.8L51,89.8L51,90.2L49.582842712474616,90.2z" stroke="none"/><path d="M17.8,13.5L18.2,13.5L18.2,15.08284271247462L16.7,16.58284271247462L16.7,18.08284271247462L12.2,22.58284271247462L12.2,24L11.8,24L11.8,22.41715728752538L16.3,17.91715728752538L16.3,16.41715728752538L17.8,14.91715728752538z" stroke="none"/><path d="M10.35857864376269,26.85857864376269L10.64142135623731,27.14142135623731L9.2,28.58284271247462L9.2,30.08284271247462L4.7,34.582842712474616L4.7,36.082842712474616L3.1414213562373097,37.64142135623731L2.8585786437626903,37.35857864376269L4.3,35.917157287525384L4.3,34.417157287525384L8.8,29.91715728752538L8.8,28.41715728752538z" stroke="none"/><path d="M87.2,91.5L86.8,91.5L86.8,89.91715728752538L88.3,88.41715728752538L88.3,86.91715728752538L89.8,85.41715728752538L89.8,83.91715728752538L91.3,82.41715728752538L91.3,78L91.7,78L91.7,82.58284271247462L90.2,84.08284271247462L90.2,85.58284271247462L88.7,87.08284271247462L88.7,88.58284271247462L87.2,90.08284271247462z" stroke="none"/><path d="M43.5,22.7L43.5,22.3L46.417157287525384,22.3L52.417157287525384,16.3L57,16.3L57,16.7L52.582842712474616,16.7L46.582842712474616,22.7z" stroke="none"/><path d="M72,8.8L72,9.2L67.41715728752538,9.2L64.41715728752538,6.2L61.582842712474616,6.2L58.582842712474616,9.2L56.917157287525384,9.2L55.3,7.582842712474619L55.3,6L55.7,6L55.7,7.417157287525381L57.082842712474616,8.8L58.417157287525384,8.8L61.417157287525384,5.8L64.58284271247462,5.8L67.58284271247462,8.8z" stroke="none"/><path d="M13.64142135623731,97.64142135623732L13.35857864376269,97.35857864376268L16.41715728752538,94.3L17.91715728752538,94.3L19.41715728752538,92.8L20.91715728752538,92.8L22.41715728752538,91.3L23.91715728752538,91.3L25.41715728752538,89.8L28.5,89.8L28.5,90.2L25.58284271247462,90.2L24.08284271247462,91.7L22.58284271247462,91.7L21.08284271247462,93.2L19.58284271247462,93.2L18.08284271247462,94.7L16.58284271247462,94.7z" stroke="none"/><path d="M4.5,9.2L4.5,8.8L9.08284271247462,8.8L10.7,10.41715728752538L10.7,12.08284271247462L9.2,13.58284271247462L9.2,23.91715728752538L10.58284271247462,25.3L13.41715728752538,25.3L14.91715728752538,23.8L16.5,23.8L16.5,24.2L15.08284271247462,24.2L13.58284271247462,25.7L10.41715728752538,25.7L8.8,24.08284271247462L8.8,13.41715728752538L10.3,11.91715728752538L10.3,10.58284271247462L8.91715728752538,9.2z" stroke="none"/><path d="M97.3,73.5L97.7,73.5L97.7,75.08284271247462L96.08284271247462,76.7L90.08284271247462,76.7L88.7,78.08284271247462L88.7,79.58284271247462L87.2,81.08284271247462L87.2,82.58284271247462L82.64142135623732,87.14142135623732L82.35857864376268,86.85857864376268L86.8,82.41715728752538L86.8,80.91715728752538L88.3,79.41715728752538L88.3,77.91715728752538L89.91715728752538,76.3L95.91715728752538,76.3L97.3,74.91715728752538z" stroke="none"/><path d="M99.14142135623732,25.35857864376269L98.85857864376268,25.64142135623731L91.3,18.08284271247462L91.3,16.58284271247462L88.41715728752538,13.7L85.41715728752538,13.7L83.85857864376268,12.14142135623731L84.14142135623732,11.85857864376269L85.58284271247462,13.3L88.58284271247462,13.3L91.7,16.41715728752538L91.7,17.91715728752538z" stroke="none"/><path d="M76.35857864376268,82.64142135623732L76.64142135623732,82.35857864376268L81.2,86.91715728752538L81.2,88.41715728752538L85.58284271247462,92.8L88.41715728752538,92.8L92.8,88.41715728752538L92.8,86.91715728752538L94.3,85.41715728752538L94.3,82.41715728752538L95.91715728752538,80.8L97.5,80.8L97.5,81.2L96.08284271247462,81.2L94.7,82.58284271247462L94.7,85.58284271247462L93.2,87.08284271247462L93.2,88.58284271247462L88.58284271247462,93.2L85.41715728752538,93.2L80.8,88.58284271247462L80.8,87.08284271247462z" stroke="none"/><path d="M74.85857864376268,3.1414213562373097L75.14142135623732,2.8585786437626903L76.7,4.417157287525381L76.7,5.917157287525381L82.7,11.91715728752538L82.7,13.41715728752538L85.58284271247462,16.3L88.58284271247462,16.3L90.14142135623732,17.85857864376269L89.85857864376268,18.14142135623731L88.41715728752538,16.7L85.41715728752538,16.7L82.3,13.58284271247462L82.3,12.08284271247462L76.3,6.082842712474619L76.3,4.582842712474619z" stroke="none"/><path d="M93,98.8L93,99.2L91.41715728752538,99.2L86.91715728752538,94.7L83.91715728752538,94.7L74.8,85.58284271247462L74.8,80.91715728752538L76.41715728752538,79.3L83.91715728752538,79.3L85.41715728752538,77.8L87,77.8L87,78.2L85.58284271247462,78.2L84.08284271247462,79.7L76.58284271247462,79.7L75.2,81.08284271247462L75.2,85.41715728752538L84.08284271247462,94.3L87.08284271247462,94.3L91.58284271247462,98.8z" stroke="none"/><path d="M80.85857864376268,50.85857864376269L81.14142135623732,51.14142135623731L79.7,52.582842712474616L79.7,54.082842712474616L75.2,58.582842712474616L75.2,64.41715728752538L76.58284271247462,65.8L94.58284271247462,65.8L96.14142135623732,67.35857864376268L95.85857864376268,67.64142135623732L94.41715728752538,66.2L76.41715728752538,66.2L74.8,64.58284271247462L74.8,58.417157287525384L79.3,53.917157287525384L79.3,52.417157287525384z" stroke="none"/><path d="M55.3,78L55.7,78L55.7,100.58284271247462L54.14142135623731,102.14142135623732L53.85857864376269,101.85857864376268L55.3,100.41715728752538z" stroke="none"/><path d="M91.7,60L91.3,60L91.3,55.417157287525384L92.8,53.917157287525384L92.8,49.417157287525384L94.3,47.917157287525384L94.3,46.417157287525384L95.8,44.917157287525384L95.8,43.417157287525384L98.8,40.417157287525384L98.8,38.917157287525384L101.8,35.917157287525384L101.8,33.082842712474616L100.41715728752538,31.7L94.58284271247462,31.7L91.58284271247462,34.7L90,34.7L90,34.3L91.41715728752538,34.3L94.41715728752538,31.3L100.58284271247462,31.3L102.2,32.917157287525384L102.2,36.082842712474616L99.2,39.082842712474616L99.2,40.582842712474616L96.2,43.582842712474616L96.2,45.082842712474616L94.7,46.582842712474616L94.7,48.082842712474616L93.2,49.582842712474616L93.2,54.082842712474616L91.7,55.582842712474616z" stroke="none"/><path d="M13.5,87.2L13.5,86.8L32.917157287525384,86.8L35.917157287525384,83.8L39,83.8L39,84.2L36.082842712474616,84.2L33.082842712474616,87.2z" stroke="none"/><path d="M99.2,78L98.8,78L98.8,72.08284271247462L97.41715728752538,70.7L94.58284271247462,70.7L93.08284271247462,72.2L84.08284271247462,72.2L82.58284271247462,73.7L79.58284271247462,73.7L78.08284271247462,75.2L75.08284271247462,75.2L73.58284271247462,76.7L72,76.7L72,76.3L73.41715728752538,76.3L74.91715728752538,74.8L77.91715728752538,74.8L79.41715728752538,73.3L82.41715728752538,73.3L83.91715728752538,71.8L92.91715728752538,71.8L94.41715728752538,70.3L97.58284271247462,70.3L99.2,71.91715728752538z" stroke="none"/><path d="M3.2,15L2.8,15L2.8,7.417157287525381L4.417157287525381,5.8L6.082842712474619,5.8L7.582842712474619,7.3L18.08284271247462,7.3L19.58284271247462,8.8L21.08284271247462,8.8L24.08284271247462,11.8L25.58284271247462,11.8L27.08284271247462,13.3L31.5,13.3L31.5,13.7L26.91715728752538,13.7L25.41715728752538,12.2L23.91715728752538,12.2L20.91715728752538,9.2L19.41715728752538,9.2L17.91715728752538,7.7L7.417157287525381,7.7L5.917157287525381,6.2L4.582842712474619,6.2L3.2,7.582842712474619z" stroke="none"/><path d="M21,94.7L21,94.3L26.91715728752538,94.3L32.917157287525384,88.3L34.417157287525384,88.3L37.417157287525384,85.3L40.417157287525384,85.3L44.917157287525384,80.8L46.417157287525384,80.8L47.85857864376269,79.35857864376268L48.14142135623731,79.64142135623732L46.582842712474616,81.2L45.082842712474616,81.2L40.582842712474616,85.7L37.582842712474616,85.7L34.582842712474616,88.7L33.082842712474616,88.7L27.08284271247462,94.7z" stroke="none"/><path d="M53.8,67.5L54.2,67.5L54.2,70.58284271247462L52.7,72.08284271247462L52.7,73.58284271247462L49.7,76.58284271247462L49.7,81.08284271247462L45.2,85.58284271247462L45.2,87.08284271247462L43.7,88.58284271247462L43.7,90.08284271247462L39.14142135623731,94.64142135623732L38.85857864376269,94.35857864376268L43.3,89.91715728752538L43.3,88.41715728752538L44.8,86.91715728752538L44.8,85.41715728752538L49.3,80.91715728752538L49.3,76.41715728752538L52.3,73.41715728752538L52.3,71.91715728752538L53.8,70.41715728752538z" stroke="none"/><path d="M77.85857864376268,4.641421356237309L78.14142135623732,4.358578643762691L84.08284271247462,10.3L85.58284271247462,10.3L87.08284271247462,11.8L90.08284271247462,11.8L100.7,22.41715728752538L100.7,27.08284271247462L99.14142135623732,28.64142135623731L98.85857864376268,28.35857864376269L100.3,26.91715728752538L100.3,22.58284271247462L89.91715728752538,12.2L86.91715728752538,12.2L85.41715728752538,10.7L83.91715728752538,10.7z" stroke="none"/><path d="M63,97.7L63,97.3L66.08284271247462,97.3L72.08284271247462,103.3L91.41715728752538,103.3L94.3,100.41715728752538L94.3,88.41715728752538L95.8,86.91715728752538L95.8,84L96.2,84L96.2,87.08284271247462L94.7,88.58284271247462L94.7,100.58284271247462L91.58284271247462,103.7L71.91715728752538,103.7L65.91715728752538,97.7z" stroke="none"/><path d="M82.64142135623732,46.35857864376269L82.35857864376268,46.64142135623731L77.91715728752538,42.2L76.41715728752538,42.2L68.8,34.582842712474616L68.8,31.41715728752538L70.41715728752538,29.8L100.41715728752538,29.8L101.8,28.41715728752538L101.8,21.08284271247462L88.41715728752538,7.7L86.91715728752538,7.7L85.41715728752538,6.2L83.91715728752538,6.2L80.91715728752538,3.2L79.41715728752538,3.2L77.91715728752538,1.7L73.58284271247462,1.7L72.2,3.082842712474619L72.2,4.417157287525381L76.7,8.91715728752538L76.7,10.5L76.3,10.5L76.3,9.08284271247462L71.8,4.582842712474619L71.8,2.917157287525381L73.41715728752538,1.3L78.08284271247462,1.3L79.58284271247462,2.8L81.08284271247462,2.8L84.08284271247462,5.8L85.58284271247462,5.8L87.08284271247462,7.3L88.58284271247462,7.3L102.2,20.91715728752538L102.2,28.58284271247462L100.58284271247462,30.2L70.58284271247462,30.2L69.2,31.58284271247462L69.2,34.417157287525384L76.58284271247462,41.8L78.08284271247462,41.8z" stroke="none"/><path d="M36.14142135623731,51.14142135623731L35.85857864376269,50.85857864376269L44.8,41.917157287525384L44.8,38.917157287525384L46.3,37.417157287525384L46.3,32.917157287525384L47.8,31.41715728752538L47.8,29.91715728752538L49.3,28.41715728752538L49.3,26.91715728752538L53.8,22.41715728752538L53.8,19.41715728752538L55.35857864376269,17.85857864376269L55.64142135623731,18.14142135623731L54.2,19.58284271247462L54.2,22.58284271247462L49.7,27.08284271247462L49.7,28.58284271247462L48.2,30.08284271247462L48.2,31.58284271247462L46.7,33.082842712474616L46.7,37.582842712474616L45.2,39.082842712474616L45.2,42.082842712474616z" stroke="none"/><path d="M21,6.2L21,5.8L22.58284271247462,5.8L24.08284271247462,7.3L25.58284271247462,7.3L28.58284271247462,10.3L31.58284271247462,10.3L33.2,11.91715728752538L33.2,15.08284271247462L13.7,34.582842712474616L13.7,36.082842712474616L10.7,39.082842712474616L10.7,43.582842712474616L9.14142135623731,45.14142135623731L8.85857864376269,44.85857864376269L10.3,43.417157287525384L10.3,38.917157287525384L13.3,35.917157287525384L13.3,34.417157287525384L32.8,14.91715728752538L32.8,12.08284271247462L31.41715728752538,10.7L28.41715728752538,10.7L25.41715728752538,7.7L23.91715728752538,7.7L22.41715728752538,6.2z" stroke="none"/><path d="M63.2,87L62.8,87L62.8,62.917157287525384L64.41715728752538,61.3L67.58284271247462,61.3L73.58284271247462,67.3L93.08284271247462,67.3L94.58284271247462,68.8L97.41715728752538,68.8L98.8,67.41715728752538L98.8,64.58284271247462L97.3,63.082842712474616L97.3,61.582842712474616L95.85857864376268,60.14142135623731L96.14142135623732,59.85857864376269L97.7,61.417157287525384L97.7,62.917157287525384L99.2,64.41715728752538L99.2,67.58284271247462L97.58284271247462,69.2L94.41715728752538,69.2L92.91715728752538,67.7L73.41715728752538,67.7L67.41715728752538,61.7L64.58284271247462,61.7L63.2,63.082842712474616z" stroke="none"/><path d="M51,97.3L51,97.7L45.082842712474616,97.7L43.582842712474616,99.2L10.41715728752538,99.2L7.358578643762691,96.14142135623732L7.641421356237309,95.85857864376268L10.58284271247462,98.8L43.417157287525384,98.8L44.917157287525384,97.3z" stroke="none"/><path d="M22.5,97.7L22.5,97.3L34.417157287525384,97.3L35.917157287525384,95.8L40.417157287525384,95.8L47.8,88.41715728752538L47.8,85.41715728752538L50.8,82.41715728752538L50.8,79.41715728752538L53.917157287525384,76.3L57.082842712474616,76.3L58.7,77.91715728752538L58.7,85.41715728752538L61.582842712474616,88.3L64.41715728752538,88.3L65.8,86.91715728752538L65.8,84.08284271247462L64.3,82.58284271247462L64.3,81L64.7,81L64.7,82.41715728752538L66.2,83.91715728752538L66.2,87.08284271247462L64.58284271247462,88.7L61.417157287525384,88.7L58.3,85.58284271247462L58.3,78.08284271247462L56.917157287525384,76.7L54.082842712474616,76.7L51.2,79.58284271247462L51.2,82.58284271247462L48.2,85.58284271247462L48.2,88.58284271247462L40.582842712474616,96.2L36.082842712474616,96.2L34.582842712474616,97.7z" stroke="none"/><path d="M86.8,46.5L87.2,46.5L87.2,53.917157287525384L88.7,55.417157287525384L88.7,59.917157287525384L90.08284271247462,61.3L92.91715728752538,61.3L94.3,59.917157287525384L94.3,58.417157287525384L95.91715728752538,56.8L97.58284271247462,56.8L99.2,58.417157287525384L99.2,59.917157287525384L100.7,61.417157287525384L100.7,87.08284271247462L99.2,88.58284271247462L99.2,91.58284271247462L97.64142135623732,93.14142135623732L97.35857864376268,92.85857864376268L98.8,91.41715728752538L98.8,88.41715728752538L100.3,86.91715728752538L100.3,61.582842712474616L98.8,60.082842712474616L98.8,58.582842712474616L97.41715728752538,57.2L96.08284271247462,57.2L94.7,58.582842712474616L94.7,60.082842712474616L93.08284271247462,61.7L89.91715728752538,61.7L88.3,60.082842712474616L88.3,55.582842712474616L86.8,54.082842712474616z" stroke="none"/><path d="M4.3,69L4.7,69L4.7,95.91715728752538L9.08284271247462,100.3L37.582842712474616,100.3L39.14142135623731,101.85857864376268L38.85857864376269,102.14142135623732L37.417157287525384,100.7L8.91715728752538,100.7L4.3,96.08284271247462z" stroke="none"/><path d="M3.2,43.5L2.8,43.5L2.8,42.082842712474616L1.3,40.582842712474616L1.3,5.917157287525381L2.917157287525381,4.3L31.58284271247462,4.3L33.082842712474616,5.8L34.582842712474616,5.8L36.14142135623731,7.358578643762691L35.85857864376269,7.641421356237309L34.417157287525384,6.2L32.917157287525384,6.2L31.41715728752538,4.7L3.082842712474619,4.7L1.7,6.082842712474619L1.7,40.417157287525384L3.2,41.917157287525384z" stroke="none"/><path d="M25.5,102.2L25.5,101.8L34.582842712474616,101.8L36.082842712474616,103.3L55.417157287525384,103.3L59.8,98.91715728752538L59.8,97.41715728752538L61.417157287525384,95.8L72.08284271247462,95.8L73.58284271247462,97.3L75,97.3L75,97.7L73.41715728752538,97.7L71.91715728752538,96.2L61.582842712474616,96.2L60.2,97.58284271247462L60.2,99.08284271247462L55.582842712474616,103.7L35.917157287525384,103.7L34.417157287525384,102.2z" stroke="none"/><circle cx="46.5" cy="64.5" r="0.25" stroke-width="0" fill="#000" /><circle cx="27" cy="73.5" r="0.25" stroke-width="0" fill="#000" /><circle cx="69" cy="52.5" r="0.25" stroke-width="0" fill="#000" /><circle cx="43.5" cy="7.5" r="0.25" stroke-width="0" fill="#000" /><circle cx="37.5" cy="4.5" r="0.25" stroke-width="0" fill="#000" /><circle cx="45" cy="12" r="0.25" stroke-width="0" fill="#000" /><circle cx="24" cy="63" r="0.25" stroke-width="0" fill="#000" /><circle cx="27" cy="61.5" r="0.25" stroke-width="0" fill="#000" /><circle cx="10.5" cy="79.5" r="0.25" stroke-width="0" fill="#000" /><circle cx="67.5" cy="93" r="0.25" stroke-width="0" fill="#000" /><circle cx="76.5" cy="102" r="0.25" stroke-width="0" fill="#000" /><circle cx="66" cy="63" r="0.25" stroke-width="0" fill="#000" /><circle cx="24" cy="84" r="0.25" stroke-width="0" fill="#000" /><circle cx="48" cy="69" r="0.25" stroke-width="0" fill="#000" /><circle cx="15" cy="52.5" r="0.25" stroke-width="0" fill="#000" /><circle cx="31.5" cy="30" r="0.25" stroke-width="0" fill="#000" /><circle cx="24" cy="34.5" r="0.25" stroke-width="0" fill="#000" /><circle cx="10.5" cy="48" r="0.25" stroke-width="0" fill="#000" /><circle cx="57" cy="6" r="0.25" stroke-width="0" fill="#000" /><circle cx="76.5" cy="36" r="0.25" stroke-width="0" fill="#000" /><circle cx="70.5" cy="33" r="0.25" stroke-width="0" fill="#000" /><circle cx="100.5" cy="34.5" r="0.25" stroke-width="0" fill="#000" /><circle cx="76.5" cy="63" r="0.25" stroke-width="0" fill="#000" /><circle cx="63" cy="7.5" r="0.25" stroke-width="0" fill="#000" /><circle cx="48" cy="4.5" r="0.25" stroke-width="0" fill="#000" /><circle cx="46.5" cy="48" r="0.25" stroke-width="0" fill="#000" /><circle cx="93" cy="25.5" r="0.25" stroke-width="0" fill="#000" /><circle cx="48" cy="48" r="0.25" stroke-width="0" fill="#000" /><circle cx="72" cy="63" r="0.25" stroke-width="0" fill="#000" /><circle cx="82.5" cy="49.5" r="0.25" stroke-width="0" fill="#000" /><circle cx="54" cy="28.5" r="0.25" stroke-width="0" fill="#000" /><circle cx="18" cy="40.5" r="0.25" stroke-width="0" fill="#000" /><circle cx="52.5" cy="67.5" r="0.25" stroke-width="0" fill="#000" /><circle cx="40.5" cy="24" r="0.25" stroke-width="0" fill="#000" /><circle cx="9" cy="72" r="0.25" stroke-width="0" fill="#000" /><circle cx="96" cy="73.5" r="0.25" stroke-width="0" fill="#000" /><circle cx="93" cy="73.5" r="0.25" stroke-width="0" fill="#000" /><circle cx="10.5" cy="15" r="0.25" stroke-width="0" fill="#000" /><circle cx="13.5" cy="16.5" r="0.25" stroke-width="0" fill="#000" /><circle cx="4.5" cy="51" r="0.25" stroke-width="0" fill="#000" /><circle cx="9" cy="48" r="0.25" stroke-width="0" fill="#000" /><circle cx="24" cy="58.5" r="0.25" stroke-width="0" fill="#000" /><circle cx="18" cy="55.5" r="0.25" stroke-width="0" fill="#000" /><circle cx="4.5" cy="10.5" r="0.25" stroke-width="0" fill="#000" /><circle cx="4.5" cy="21" r="0.25" stroke-width="0" fill="#000" /><circle cx="7.5" cy="21" r="0.25" stroke-width="0" fill="#000" /><circle cx="7.5" cy="10.5" r="0.25" stroke-width="0" fill="#000" /><circle cx="76.5" cy="13.5" r="0.25" stroke-width="0" fill="#000" /><circle cx="69" cy="22.5" r="0.25" stroke-width="0" fill="#000" /><circle cx="42" cy="97.5" r="0.25" stroke-width="0" fill="#000" /><circle cx="51" cy="90" r="0.25" stroke-width="0" fill="#000" /><circle cx="18" cy="13.5" r="0.25" stroke-width="0" fill="#000" /><circle cx="12" cy="24" r="0.25" stroke-width="0" fill="#000" /><circle cx="10.5" cy="27" r="0.25" stroke-width="0" fill="#000" /><circle cx="3" cy="37.5" r="0.25" stroke-width="0" fill="#000" /><circle cx="87" cy="91.5" r="0.25" stroke-width="0" fill="#000" /><circle cx="91.5" cy="78" r="0.25" stroke-width="0" fill="#000" /><circle cx="43.5" cy="22.5" r="0.25" stroke-width="0" fill="#000" /><circle cx="57" cy="16.5" r="0.25" stroke-width="0" fill="#000" /><circle cx="72" cy="9" r="0.25" stroke-width="0" fill="#000" /><circle cx="55.5" cy="6" r="0.25" stroke-width="0" fill="#000" /><circle cx="13.5" cy="97.5" r="0.25" stroke-width="0" fill="#000" /><circle cx="28.5" cy="90" r="0.25" stroke-width="0" fill="#000" /><circle cx="4.5" cy="9" r="0.25" stroke-width="0" fill="#000" /><circle cx="16.5" cy="24" r="0.25" stroke-width="0" fill="#000" /><circle cx="97.5" cy="73.5" r="0.25" stroke-width="0" fill="#000" /><circle cx="82.5" cy="87" r="0.25" stroke-width="0" fill="#000" /><circle cx="99" cy="25.5" r="0.25" stroke-width="0" fill="#000" /><circle cx="84" cy="12" r="0.25" stroke-width="0" fill="#000" /><circle cx="76.5" cy="82.5" r="0.25" stroke-width="0" fill="#000" /><circle cx="97.5" cy="81" r="0.25" stroke-width="0" fill="#000" /><circle cx="75" cy="3" r="0.25" stroke-width="0" fill="#000" /><circle cx="90" cy="18" r="0.25" stroke-width="0" fill="#000" /><circle cx="93" cy="99" r="0.25" stroke-width="0" fill="#000" /><circle cx="87" cy="78" r="0.25" stroke-width="0" fill="#000" /><circle cx="81" cy="51" r="0.25" stroke-width="0" fill="#000" /><circle cx="96" cy="67.5" r="0.25" stroke-width="0" fill="#000" /><circle cx="55.5" cy="78" r="0.25" stroke-width="0" fill="#000" /><circle cx="54" cy="102" r="0.25" stroke-width="0" fill="#000" /><circle cx="91.5" cy="60" r="0.25" stroke-width="0" fill="#000" /><circle cx="90" cy="34.5" r="0.25" stroke-width="0" fill="#000" /><circle cx="13.5" cy="87" r="0.25" stroke-width="0" fill="#000" /><circle cx="39" cy="84" r="0.25" stroke-width="0" fill="#000" /><circle cx="99" cy="78" r="0.25" stroke-width="0" fill="#000" /><circle cx="72" cy="76.5" r="0.25" stroke-width="0" fill="#000" /><circle cx="3" cy="15" r="0.25" stroke-width="0" fill="#000" /><circle cx="31.5" cy="13.5" r="0.25" stroke-width="0" fill="#000" /><circle cx="21" cy="94.5" r="0.25" stroke-width="0" fill="#000" /><circle cx="48" cy="79.5" r="0.25" stroke-width="0" fill="#000" /><circle cx="54" cy="67.5" r="0.25" stroke-width="0" fill="#000" /><circle cx="39" cy="94.5" r="0.25" stroke-width="0" fill="#000" /><circle cx="78" cy="4.5" r="0.25" stroke-width="0" fill="#000" /><circle cx="99" cy="28.5" r="0.25" stroke-width="0" fill="#000" /><circle cx="63" cy="97.5" r="0.25" stroke-width="0" fill="#000" /><circle cx="96" cy="84" r="0.25" stroke-width="0" fill="#000" /><circle cx="82.5" cy="46.5" r="0.25" stroke-width="0" fill="#000" /><circle cx="76.5" cy="10.5" r="0.25" stroke-width="0" fill="#000" /><circle cx="36" cy="51" r="0.25" stroke-width="0" fill="#000" /><circle cx="55.5" cy="18" r="0.25" stroke-width="0" fill="#000" /><circle cx="21" cy="6" r="0.25" stroke-width="0" fill="#000" /><circle cx="9" cy="45" r="0.25" stroke-width="0" fill="#000" /><circle cx="63" cy="87" r="0.25" stroke-width="0" fill="#000" /><circle cx="96" cy="60" r="0.25" stroke-width="0" fill="#000" /><circle cx="51" cy="97.5" r="0.25" stroke-width="0" fill="#000" /><circle cx="7.5" cy="96" r="0.25" stroke-width="0" fill="#000" /><circle cx="22.5" cy="97.5" r="0.25" stroke-width="0" fill="#000" /><circle cx="64.5" cy="81" r="0.25" stroke-width="0" fill="#000" /><circle cx="87" cy="46.5" r="0.25" stroke-width="0" fill="#000" /><circle cx="97.5" cy="93" r="0.25" stroke-width="0" fill="#000" /><circle cx="4.5" cy="69" r="0.25" stroke-width="0" fill="#000" /><circle cx="39" cy="102" r="0.25" stroke-width="0" fill="#000" /><circle cx="3" cy="43.5" r="0.25" stroke-width="0" fill="#000" /><circle cx="36" cy="7.5" r="0.25" stroke-width="0" fill="#000" /><circle cx="25.5" cy="102" r="0.25" stroke-width="0" fill="#000" /><circle cx="75" cy="97.5" r="0.25" stroke-width="0" fill="#000" /><rect x="0" y="0" width="105" height="105" stroke-width="0.8" stroke="#000" fill="none" /></svg>