<svg version="1.1" width="105" height="15" xmlns="http://www.w3.org/2000/svg"><path d="M61.45,11.307142857142857L61.45,11.122146464738488L61.69357503616706,10.878571428571426L75.83643217902419,10.878571428571426L76.0507178933099,10.664285714285715L76.90786075045276,10.664285714285715L77.12214646473848,10.45L77.99999999999999,10.45L77.99999999999999,10.55L77.1635678209758,10.55L76.94928210669008,10.764285714285716L76.09213924954722,10.764285714285716L75.87785353526151,10.978571428571428L61.73499639240437,10.978571428571428L61.55,11.163567820975796L61.55,11.307142857142857L62.16356782097579,11.307142857142857L62.80642496383294,11.95L64.49999999999999,11.95L64.49999999999999,12.05L62.76500360759563,12.05L62.122146464738485,11.407142857142858L60.66356782097579,11.407142857142858L60.23499639240437,11.835714285714285L59.59213924954722,11.835714285714285L58.94928210669008,12.478571428571428L42.622146464738485,12.478571428571428L42.19357503616706,12.05L42,12.05L42,11.95L42.23499639240437,11.95L42.66356782097579,12.378571428571426L58.90786075045277,12.378571428571426L59.550717893309915,11.735714285714284L60.19357503616706,11.735714285714284L60.622146464738485,11.307142857142857z" stroke="none"/><path d="M95.30714285714285,3.3785714285714286L95.30714285714285,3.1935750361670596L95.5507178933099,2.95L101.99999999999999,2.95L101.99999999999999,3.05L95.59213924954722,3.05L95.40714285714284,3.234996392404369L95.40714285714284,3.3785714285714286L95.59213924954722,3.3785714285714286L95.80642496383294,3.592857142857143L96.02071067811865,3.592857142857143L96.23499639240437,3.8071428571428574L96.44928210669008,3.8071428571428574L96.66356782097579,4.021428571428571L97.73499639240437,4.021428571428571L97.94928210669008,4.235714285714286L98.16356782097579,4.235714285714286L98.37785353526151,4.45L98.99999999999999,4.45L98.99999999999999,4.55L98.33643217902419,4.55L98.12214646473846,4.335714285714285L97.90786075045276,4.335714285714285L97.69357503616705,4.121428571428571L96.62214646473846,4.121428571428571L96.40786075045276,3.907142857142857L96.19357503616705,3.907142857142857L95.97928932188132,3.6928571428571426L95.76500360759562,3.6928571428571426L95.5507178933099,3.478571428571428L86.12214646473848,3.478571428571428L85.69357503616705,3.05L85.49999999999999,3.05L85.49999999999999,2.95L85.73499639240437,2.95L86.1635678209758,3.3785714285714286z" stroke="none"/><path d="M17.12214646473849,4.45L17.55071789330992,4.021428571428571L17.979289321881346,4.021428571428571L18.836432179024204,3.1642857142857146L19.26500360759563,3.1642857142857146L19.46464466094067,2.9646446609406727L19.53535533905933,3.0353553390593273L19.30642496383294,3.2642857142857142L18.87785353526151,3.2642857142857142L18.020710678118654,4.121428571428571L17.592139249547227,4.121428571428571L17.163567820975796,4.55L15.907142857142858,4.55L15.907142857142858,4.69357503616706L16.092139249547223,4.878571428571429L16.94928210669008,4.878571428571429L17.37785353526151,5.307142857142857L19.092139249547227,5.307142857142857L19.30642496383294,5.521428571428571L19.520710678118654,5.521428571428571L19.73499639240437,5.735714285714286L19.94928210669008,5.735714285714286L20.37785353526151,6.164285714285715L20.80642496383294,6.164285714285715L21.23499639240437,6.5928571428571425L21.44928210669008,6.5928571428571425L22.30642496383294,7.45L22.5,7.45L22.5,7.55L22.26500360759563,7.55L21.407860750452773,6.692857142857142L21.19357503616706,6.692857142857142L20.76500360759563,6.264285714285714L20.336432179024204,6.264285714285714L19.907860750452773,5.835714285714285L19.69357503616706,5.835714285714285L19.479289321881346,5.621428571428571L19.26500360759563,5.621428571428571L19.05071789330992,5.407142857142857L17.336432179024204,5.407142857142857L16.907860750452773,4.978571428571429L16.050717893309915,4.978571428571429L15.807142857142857,4.734996392404369L15.807142857142857,4.55L14.76500360759563,4.55L14.336432179024204,4.121428571428571L7.69357503616706,4.121428571428571L7.050717893309916,3.478571428571428L6.836432179024202,3.478571428571428L6.622146464738488,3.2642857142857142L6.19357503616706,3.2642857142857142L5.964644660940673,3.0353553390593273L6.035355339059327,2.9646446609406727L6.234996392404369,3.1642857142857146L6.663567820975797,3.1642857142857146L6.8778535352615116,3.3785714285714286L7.092139249547226,3.3785714285714286L7.734996392404369,4.021428571428571L14.377853535261512,4.021428571428571L14.806424963832939,4.45z" stroke="none"/><path d="M54.378571428571426,3.8071428571428574L54.378571428571426,3.622146464738488L54.622146464738485,3.3785714285714286L69.62214646473848,3.3785714285714286L69.83643217902419,3.1642857142857146L70.26500360759562,3.1642857142857146L70.46464466094066,2.9646446609406727L70.53535533905931,3.0353553390593273L70.30642496383294,3.2642857142857142L69.87785353526151,3.2642857142857142L69.6635678209758,3.478571428571428L54.66356782097579,3.478571428571428L54.47857142857142,3.6635678209757976L54.47857142857142,3.8071428571428574L62.37785353526151,3.8071428571428574L62.59213924954722,4.021428571428571L63.020710678118654,4.021428571428571L63.23499639240437,4.235714285714286L63.44928210669008,4.235714285714286L63.66356782097579,4.45L63.87785353526151,4.45L64.94928210669008,5.521428571428571L65.1635678209758,5.521428571428571L65.37785353526151,5.735714285714286L65.59213924954722,5.735714285714286L65.80642496383294,5.95L65.99999999999999,5.95L65.99999999999999,6.05L65.76500360759562,6.05L65.5507178933099,5.835714285714285L65.33643217902419,5.835714285714285L65.12214646473848,5.621428571428571L64.90786075045276,5.621428571428571L63.8364321790242,4.55L63.622146464738485,4.55L63.40786075045277,4.335714285714285L63.19357503616706,4.335714285714285L62.979289321881346,4.121428571428571L62.550717893309915,4.121428571428571L62.3364321790242,3.907142857142857L35.76500360759563,3.907142857142857L35.3364321790242,3.478571428571428L34.26500360759563,3.478571428571428L34.050717893309915,3.2642857142857142L29.550717893309915,3.2642857142857142L29.336432179024204,3.05L27,3.05L27,2.95L29.37785353526151,2.95L29.592139249547223,3.1642857142857146L34.09213924954722,3.1642857142857146L34.30642496383294,3.3785714285714286L35.37785353526151,3.3785714285714286L35.80642496383294,3.8071428571428574z" stroke="none"/><path d="M44.95,10.878571428571426L44.95,10.693575036167061L45.19357503616706,10.45L51.622146464738485,10.45L52.050717893309915,10.021428571428569L59.16356782097579,10.021428571428569L59.37785353526151,10.235714285714284L59.59213924954722,10.235714285714284L59.80642496383294,10.45L60,10.45L60,10.55L59.76500360759563,10.55L59.550717893309915,10.335714285714285L59.3364321790242,10.335714285714285L59.122146464738485,10.12142857142857L52.09213924954722,10.12142857142857L51.66356782097579,10.55L45.23499639240437,10.55L45.05,10.73499639240437L45.05,10.878571428571426L56.37785353526151,10.878571428571426L56.59213924954722,11.092857142857142L57.23499639240437,11.092857142857142L57.87785353526151,11.735714285714284L58.09213924954722,11.735714285714284L58.30642496383294,11.95L58.5,11.95L58.5,12.05L58.26500360759563,12.05L58.050717893309915,11.835714285714285L57.8364321790242,11.835714285714285L57.19357503616706,11.192857142857143L56.550717893309915,11.192857142857143L56.3364321790242,10.978571428571428L18.62214646473849,10.978571428571428L18.19357503616706,10.55L16.5,10.55L16.5,10.45L18.23499639240437,10.45L18.663567820975796,10.878571428571426z" stroke="none"/><path d="M77.30714285714285,4.45L77.30714285714285,4.265003607595631L77.5507178933099,4.021428571428571L84.02071067811865,4.021428571428571L84.23499639240437,4.235714285714286L85.09213924954722,4.235714285714286L85.30642496383294,4.45L85.49999999999999,4.45L85.49999999999999,4.55L85.26500360759562,4.55L85.0507178933099,4.335714285714285L84.19357503616705,4.335714285714285L83.97928932188132,4.121428571428571L77.59213924954722,4.121428571428571L77.40714285714284,4.30642496383294L77.40714285714284,4.45L77.99999999999999,4.45L77.99999999999999,4.55L77.40714285714284,4.55L77.40714285714284,4.69357503616706L77.59213924954722,4.878571428571429L88.09213924954722,4.878571428571429L88.30642496383294,5.0928571428571425L88.94928210669008,5.0928571428571425L89.59213924954722,5.735714285714286L89.80642496383294,5.735714285714286L90.03535533905931,5.964644660940673L89.96464466094066,6.035355339059327L89.76500360759562,5.835714285714285L89.5507178933099,5.835714285714285L88.90786075045276,5.192857142857142L88.26500360759562,5.192857142857142L88.0507178933099,4.978571428571429L77.5507178933099,4.978571428571429L77.30714285714285,4.734996392404369L77.30714285714285,4.55L77.12214646473848,4.55L76.87857142857142,4.30642496383294L76.87857142857142,4.050717893309916L77.12214646473848,3.8071428571428574L95.16356782097579,3.8071428571428574L95.37785353526151,4.021428571428571L95.80642496383294,4.021428571428571L96.02071067811865,4.235714285714286L96.44928210669008,4.235714285714286L96.66356782097579,4.45L97.30642496383294,4.45L97.52071067811865,4.664285714285715L98.37785353526151,4.664285714285715L98.59213924954722,4.878571428571429L99.83643217902419,4.878571428571429L100.26500360759562,4.45L100.69357503616705,4.45L101.33643217902419,3.8071428571428574L101.76500360759562,3.8071428571428574L101.97928932188132,3.592857142857143L102.19357503616705,3.592857142857143L102.37857142857142,3.4078607504527736L102.37857142857142,2.5921392495472264L102.19357503616705,2.407142857142857L58.520710678118654,2.407142857142857L58.30642496383294,2.6214285714285714L57.87785353526151,2.6214285714285714L57.44928210669008,3.05L57,3.05L57,2.95L57.40786075045277,2.95L57.8364321790242,2.521428571428572L58.26500360759563,2.521428571428572L58.479289321881346,2.3071428571428574L102.23499639240437,2.3071428571428574L102.47857142857141,2.550717893309917L102.47857142857141,3.449282106690083L102.23499639240437,3.6928571428571426L102.02071067811865,3.6928571428571426L101.80642496383294,3.907142857142857L101.37785353526151,3.907142857142857L100.73499639240437,4.55L100.30642496383294,4.55L99.87785353526151,4.978571428571429L98.5507178933099,4.978571428571429L98.33643217902419,4.764285714285714L97.47928932188132,4.764285714285714L97.26500360759562,4.55L96.62214646473846,4.55L96.40786075045276,4.335714285714285L95.97928932188132,4.335714285714285L95.76500360759562,4.121428571428571L95.33643217902419,4.121428571428571L95.12214646473846,3.907142857142857L77.1635678209758,3.907142857142857L76.97857142857141,4.092139249547226L76.97857142857141,4.265003607595631L77.1635678209758,4.45z" stroke="none"/><path d="M51.59285714285714,5.521428571428571L51.59285714285714,5.3778535352615116L51.40786075045277,5.192857142857142L36.8364321790242,5.192857142857142L36.40786075045278,4.764285714285714L36.19357503616706,4.764285714285714L35.96464466094067,4.535355339059327L36.03535533905933,4.464644660940673L36.23499639240437,4.664285714285715L36.449282106690085,4.664285714285715L36.87785353526151,5.0928571428571425L51.44928210669008,5.0928571428571425L51.692857142857136,5.336432179024202L51.692857142857136,5.521428571428571L51.87785353526151,5.521428571428571L52.12142857142857,5.765003607595631L52.12142857142857,6.407860750452773L52.30642496383294,6.5928571428571425L53.37785353526151,6.5928571428571425L53.59213924954722,6.807142857142857L68.33643217902419,6.807142857142857L68.76500360759562,6.378571428571428L68.97928932188132,6.378571428571428L69.40786075045276,5.95L69.83643217902419,5.95L70.0507178933099,5.735714285714286L70.26500360759562,5.735714285714286L70.90786075045276,5.0928571428571425L71.12214646473848,5.0928571428571425L71.76500360759562,4.45L71.99999999999999,4.45L71.99999999999999,4.55L71.80642496383294,4.55L71.1635678209758,5.192857142857142L70.94928210669008,5.192857142857142L70.30642496383294,5.835714285714285L70.09213924954722,5.835714285714285L69.87785353526151,6.05L69.44928210669008,6.05L69.02071067811865,6.478571428571428L68.80642496383294,6.478571428571428L68.37785353526151,6.907142857142857L53.550717893309915,6.907142857142857L53.3364321790242,6.692857142857142L52.26500360759563,6.692857142857142L52.02142857142857,6.449282106690083L52.02142857142857,5.80642496383294L51.8364321790242,5.621428571428571L51.692857142857136,5.621428571428571L51.692857142857136,5.80642496383294L50.37785353526151,7.121428571428571L50.16356782097579,7.121428571428571L49.73499639240437,7.55L49.5,7.55L49.5,7.45L49.69357503616706,7.45L50.122146464738485,7.021428571428571L50.3364321790242,7.021428571428571L51.59285714285714,5.765003607595631L51.59285714285714,5.621428571428571L51.020710678118654,5.621428571428571L50.59213924954722,6.05L49.5,6.05L49.5,5.95L50.550717893309915,5.95L50.979289321881346,5.521428571428571z" stroke="none"/><path d="M33.59285714285714,7.45L33.59285714285714,6.622146464738488L34.02142857142857,6.19357503616706L34.02142857142857,5.550717893309916L35.550717893309915,4.021428571428571L50.16356782097579,4.021428571428571L50.37785353526151,4.235714285714286L50.59213924954722,4.235714285714286L50.80642496383294,4.45L51,4.45L51,4.55L50.76500360759563,4.55L50.550717893309915,4.335714285714285L50.3364321790242,4.335714285714285L50.122146464738485,4.121428571428571L35.59213924954722,4.121428571428571L34.12142857142857,5.592139249547226L34.12142857142857,6.234996392404369L33.692857142857136,6.663567820975797L33.692857142857136,7.45L39,7.45L39,7.55L33.692857142857136,7.55L33.692857142857136,7.734996392404369L33.449282106690085,7.978571428571428L33.23499639240437,7.978571428571428L32.80642496383294,8.407142857142858L31.092139249547223,8.407142857142858L30.87785353526151,8.62142857142857L30.020710678118654,8.62142857142857L29.80642496383294,8.835714285714285L29.592139249547223,8.835714285714285L29.37785353526151,9.05L29.163567820975796,9.05L28.94928210669008,9.264285714285716L16.69357503616706,9.264285714285716L16.46464466094067,9.035355339059327L16.53535533905933,8.964644660940673L16.73499639240437,9.164285714285715L28.907860750452773,9.164285714285715L29.12214646473849,8.95L29.336432179024204,8.95L29.550717893309915,8.735714285714284L29.76500360759563,8.735714285714284L29.979289321881346,8.521428571428569L30.836432179024204,8.521428571428569L31.050717893309915,8.307142857142857L32.76500360759563,8.307142857142857L33.19357503616706,7.878571428571428L33.40786075045278,7.878571428571428L33.59285714285714,7.69357503616706L33.59285714285714,7.55L33.020710678118654,7.55L32.37785353526151,8.192857142857143L29.80642496383294,8.192857142857143L29.592139249547223,8.407142857142858L29.37785353526151,8.407142857142858L28.73499639240437,9.05L28.5,9.05L28.5,8.95L28.69357503616706,8.95L29.336432179024204,8.307142857142857L29.550717893309915,8.307142857142857L29.76500360759563,8.092857142857142L32.3364321790242,8.092857142857142L32.979289321881346,7.45z" stroke="none"/><path d="M69.16428571428571,4.050717893309916L69.16428571428571,3.8364321790242024L69.40786075045276,3.592857142857143L76.47928932188132,3.592857142857143L77.12214646473848,2.95L77.5507178933099,2.95L77.76500360759562,2.7357142857142858L84.83643217902419,2.7357142857142858L85.0507178933099,2.521428571428572L88.09213924954722,2.521428571428572L88.53535533905931,2.9646446609406727L88.46464466094066,3.0353553390593273L88.0507178933099,2.6214285714285714L85.09213924954722,2.6214285714285714L84.87785353526151,2.8357142857142854L77.80642496383294,2.8357142857142854L77.59213924954722,3.05L77.1635678209758,3.05L76.52071067811865,3.6928571428571426L69.44928210669008,3.6928571428571426L69.2642857142857,3.877853535261512L69.2642857142857,4.021428571428571L76.26500360759562,4.021428571428571L76.47928932188132,3.8071428571428574L76.69357503616705,3.8071428571428574L77.33643217902419,3.1642857142857146L77.76500360759562,3.1642857142857146L77.96464466094066,2.9646446609406727L78.03535533905931,3.0353553390593273L77.80642496383294,3.2642857142857142L77.37785353526151,3.2642857142857142L76.73499639240437,3.907142857142857L76.52071067811865,3.907142857142857L76.30642496383294,4.121428571428571L69.2642857142857,4.121428571428571L69.2642857142857,4.520710678118655L67.52071067811865,6.264285714285714L67.30642496383294,6.264285714285714L67.09213924954722,6.478571428571428L66.87785353526151,6.478571428571428L66.6635678209758,6.692857142857142L53.76500360759563,6.692857142857142L53.122146464738485,6.05L52.5,6.05L52.5,5.95L53.16356782097579,5.95L53.80642496383294,6.5928571428571425L66.62214646473848,6.5928571428571425L66.83643217902419,6.378571428571428L67.0507178933099,6.378571428571428L67.26500360759562,6.164285714285715L67.47928932188132,6.164285714285715L69.16428571428571,4.479289321881345L69.16428571428571,4.192139249547226L67.30642496383294,6.05L67.09213924954722,6.05L66.87785353526151,6.264285714285714L66.6635678209758,6.264285714285714L66.44928210669008,6.478571428571428L60.8364321790242,6.478571428571428L59.979289321881346,5.621428571428571L59.76500360759563,5.621428571428571L58.69357503616706,4.55L58.5,4.55L58.5,4.45L58.73499639240437,4.45L59.80642496383294,5.521428571428571L60.020710678118654,5.521428571428571L60.87785353526151,6.378571428571428L66.40786075045276,6.378571428571428L66.62214646473848,6.164285714285715L66.83643217902419,6.164285714285715L67.0507178933099,5.95L67.26500360759562,5.95z" stroke="none"/><path d="M58.02142857142857,9.164285714285715L58.02142857142857,8.979289321881346L58.26500360759563,8.735714285714284L70.09213924954722,8.735714285714284L71.80642496383294,10.45L71.99999999999999,10.45L71.99999999999999,10.55L71.76500360759562,10.55L70.0507178933099,8.835714285714285L58.30642496383294,8.835714285714285L58.12142857142857,9.020710678118654L58.12142857142857,9.164285714285715L67.0507178933099,9.164285714285715L67.26500360759562,8.95L67.49999999999999,8.95L67.49999999999999,9.05L67.30642496383294,9.05L67.09213924954722,9.264285714285716L58.12142857142857,9.264285714285716L58.12142857142857,9.407860750452773L58.30642496383294,9.592857142857142L66.02071067811865,9.592857142857142L66.44928210669008,10.021428571428569L66.6635678209758,10.021428571428569L66.87785353526151,10.235714285714284L67.09213924954722,10.235714285714284L67.30642496383294,10.45L67.49999999999999,10.45L67.49999999999999,10.55L67.26500360759562,10.55L67.0507178933099,10.335714285714285L66.83643217902419,10.335714285714285L66.62214646473848,10.12142857142857L66.40786075045276,10.12142857142857L65.97928932188132,9.692857142857143L58.26500360759563,9.692857142857143L58.02142857142857,9.449282106690081L58.02142857142857,9.264285714285716L48.66356782097579,9.264285714285716L48.44928210669008,9.478571428571428L16.050717893309915,9.478571428571428L15.807142857142857,9.23499639240437L15.807142857142857,8.76500360759563L16.050717893309915,8.521428571428569L23.550717893309915,8.521428571428569L23.979289321881346,8.092857142857142L24.407860750452773,8.092857142857142L24.836432179024204,7.664285714285715L25.26500360759563,7.664285714285715L25.46464466094067,7.464644660940673L25.53535533905933,7.535355339059327L25.30642496383294,7.764285714285714L24.87785353526151,7.764285714285714L24.44928210669008,8.192857142857143L24.020710678118654,8.192857142857143L23.592139249547223,8.62142857142857L16.092139249547223,8.62142857142857L15.907142857142858,8.806424963832939L15.907142857142858,9.193575036167061L16.092139249547223,9.378571428571426L48.40786075045277,9.378571428571426L48.622146464738485,9.164285714285715z" stroke="none"/><path d="M92.99999999999999,3.05L92.99999999999999,2.95L94.49999999999999,2.95L94.49999999999999,3.05z" stroke="none"/><path d="M24.05,6L23.95,6L23.95,4.5L24.05,4.5z" stroke="none"/><path d="M88.49999999999999,6.05L88.49999999999999,5.95L88.94928210669008,5.95L89.1635678209758,6.164285714285715L89.37785353526151,6.164285714285715L89.59213924954722,6.378571428571428L90.40786075045276,6.378571428571428L90.59285714285714,6.19357503616706L90.59285714285714,5.592139249547226L90.16428571428571,5.163567820975797L90.16428571428571,4.949282106690084L89.94999999999999,4.734996392404369L89.94999999999999,4.5L90.04999999999998,4.5L90.04999999999998,4.69357503616706L90.2642857142857,4.907860750452774L90.2642857142857,5.122146464738488L90.69285714285714,5.550717893309916L90.69285714285714,6.234996392404369L90.44928210669008,6.478571428571428L89.5507178933099,6.478571428571428L89.33643217902419,6.264285714285714L89.12214646473848,6.264285714285714L88.90786075045276,6.05z" stroke="none"/><path d="M4.464644660940673,3.0353553390593273L4.535355339059327,2.9646446609406727L4.734996392404369,3.1642857142857146L4.949282106690084,3.1642857142857146L5.163567820975797,3.3785714285714286L5.3778535352615116,3.3785714285714286L6.234996392404369,4.235714285714286L6.8778535352615116,4.235714285714286L7.092139249547226,4.45L7.5,4.45L7.5,4.55L7.050717893309916,4.55L6.836432179024202,4.335714285714285L6.19357503616706,4.335714285714285L5.336432179024202,3.478571428571428L5.122146464738488,3.478571428571428L4.907860750452774,3.2642857142857142L4.69357503616706,3.2642857142857142z" stroke="none"/><path d="M10.5,2.95L10.5,3.05L7.479289321881345,3.05L7.050717893309916,2.6214285714285714L4.092139249547226,2.6214285714285714L3.907142857142857,2.8064249638329404L3.907142857142857,3.1935750361670596L4.30642496383294,3.592857142857143L4.520710678118655,3.592857142857143L4.734996392404369,3.8071428571428574L5.3778535352615116,3.8071428571428574L6.020710678118655,4.45L6.663567820975797,4.45L7.092139249547226,4.878571428571429L8.336432179024204,4.878571428571429L8.550717893309915,4.664285714285715L13.050717893309915,4.664285714285715L13.26500360759563,4.45L13.5,4.45L13.5,4.55L13.306424963832939,4.55L13.092139249547223,4.764285714285714L8.592139249547223,4.764285714285714L8.377853535261512,4.978571428571429L7.050717893309916,4.978571428571429L6.622146464738488,4.55L5.979289321881345,4.55L5.336432179024202,3.907142857142857L4.69357503616706,3.907142857142857L4.479289321881345,3.6928571428571426L4.265003607595631,3.6928571428571426L3.8071428571428574,3.234996392404369L3.8071428571428574,2.765003607595631L4.050717893309916,2.521428571428572L7.092139249547226,2.521428571428572L7.520710678118655,2.95z" stroke="none"/><path d="M4.45,6L4.55,6L4.55,6.19357503616706L4.764285714285714,6.407860750452773L4.764285714285714,6.622146464738488L5.192857142857142,7.050717893309916L5.192857142857142,7.265003607595631L5.407142857142857,7.479289321881345L5.407142857142857,7.69357503616706L5.592139249547226,7.878571428571428L6.020710678118655,7.878571428571428L6.663567820975797,8.521428571428569L6.8778535352615116,8.521428571428569L7.092139249547226,8.735714285714284L7.30642496383294,8.735714285714284L7.535355339059327,8.964644660940673L7.464644660940673,9.035355339059327L7.265003607595631,8.835714285714285L7.050717893309916,8.835714285714285L6.836432179024202,8.62142857142857L6.622146464738488,8.62142857142857L5.979289321881345,7.978571428571428L5.550717893309916,7.978571428571428L5.307142857142857,7.734996392404369L5.307142857142857,7.520710678118655L5.0928571428571425,7.30642496383294L5.0928571428571425,7.092139249547226L4.664285714285715,6.663567820975797L4.664285714285715,6.449282106690083L4.45,6.234996392404369z" stroke="none"/><path d="M18,2.95L18,3.05L13.5,3.05L13.5,2.95z" stroke="none"/><path d="M79.49999999999999,10.55L79.49999999999999,10.45L79.69357503616705,10.45L79.90786075045276,10.235714285714284L80.12214646473848,10.235714285714284L80.76500360759562,9.592857142857142L81.40786075045276,9.592857142857142L81.62214646473848,9.378571428571426L82.0507178933099,9.378571428571426L82.26500360759562,9.164285714285715L82.47928932188132,9.164285714285715L82.69357503616705,8.95L83.99999999999999,8.95L83.99999999999999,9.05L82.73499639240437,9.05L82.52071067811865,9.264285714285716L82.30642496383294,9.264285714285716L82.09213924954722,9.478571428571428L81.6635678209758,9.478571428571428L81.44928210669008,9.692857142857143L80.80642496383294,9.692857142857143L80.1635678209758,10.335714285714285L79.94928210669008,10.335714285714285L79.73499639240437,10.55z" stroke="none"/><path d="M12.035355339059327,11.964644660940673L11.964644660940673,12.035355339059327L11.521428571428569,11.592139249547223L11.521428571428569,11.163567820975796L11.092857142857142,10.73499639240437L11.092857142857142,9.877853535261512L10.878571428571426,9.663567820975796L10.878571428571426,8.163567820975796L10.45,7.734996392404369L10.45,7.5L10.55,7.5L10.55,7.69357503616706L10.978571428571428,8.122146464738488L10.978571428571428,9.622146464738488L11.192857142857143,9.836432179024204L11.192857142857143,10.693575036167061L11.62142857142857,11.122146464738488L11.62142857142857,11.550717893309915z" stroke="none"/><path d="M10.45,6L10.55,6L10.55,6.234996392404369L9.907142857142858,6.8778535352615116L9.907142857142858,7.734996392404369L9.692857142857143,7.949282106690083L9.692857142857143,9.663567820975796L9.264285714285716,10.092139249547223L9.264285714285716,10.306424963832939L9.035355339059327,10.535355339059327L8.964644660940673,10.464644660940673L9.164285714285715,10.26500360759563L9.164285714285715,10.050717893309915L9.592857142857142,9.622146464738488L9.592857142857142,7.907860750452773L9.807142857142857,7.69357503616706L9.807142857142857,6.836432179024202L10.45,6.19357503616706z" stroke="none"/><path d="M82.53535533905931,11.964644660940673L82.46464466094066,12.035355339059327L82.26500360759562,11.835714285714285L82.0507178933099,11.835714285714285L81.83643217902419,11.62142857142857L79.52071067811865,11.62142857142857L79.30642496383294,11.835714285714285L77.59213924954722,11.835714285714285L77.37785353526151,12.05L76.49999999999999,12.05L76.49999999999999,11.95L77.33643217902419,11.95L77.5507178933099,11.735714285714284L79.26500360759562,11.735714285714284L79.47928932188132,11.521428571428569L81.87785353526151,11.521428571428569L82.09213924954722,11.735714285714284L82.30642496383294,11.735714285714284z" stroke="none"/><path d="M25.5,10.55L25.5,10.45L31.5,10.45L31.5,10.55z" stroke="none"/><path d="M89.99999999999999,11.95L89.99999999999999,12.05L89.5507178933099,12.05L89.12214646473848,11.62142857142857L88.90786075045276,11.62142857142857L88.69357503616705,11.407142857142858L87.62214646473848,11.407142857142858L87.40786075045276,11.192857142857143L86.33643217902419,11.192857142857143L86.12214646473848,10.978571428571428L85.26500360759562,10.978571428571428L85.0507178933099,10.764285714285716L84.40786075045276,10.764285714285716L84.19357503616705,10.55L83.99999999999999,10.55L83.99999999999999,10.45L84.23499639240437,10.45L84.44928210669008,10.664285714285715L85.09213924954722,10.664285714285715L85.30642496383294,10.878571428571426L86.1635678209758,10.878571428571426L86.37785353526151,11.092857142857142L87.44928210669008,11.092857142857142L87.6635678209758,11.307142857142857L88.73499639240437,11.307142857142857L88.94928210669008,11.521428571428569L89.1635678209758,11.521428571428569L89.59213924954722,11.95z" stroke="none"/><path d="M99.03535533905931,8.964644660940673L98.96464466094066,9.035355339059327L94.46464466094066,4.535355339059327L94.53535533905931,4.464644660940673z" stroke="none"/><path d="M5.964644660940673,7.535355339059327L6.035355339059327,7.464644660940673L6.449282106690083,7.878571428571428L7.092139249547226,7.878571428571428L7.30642496383294,8.092857142857142L7.520710678118655,8.092857142857142L7.978571428571428,8.550717893309915L7.978571428571428,9.836432179024204L8.62142857142857,10.479289321881346L8.62142857142857,10.907860750452773L9.020710678118654,11.307142857142857L9.449282106690081,11.307142857142857L9.663567820975796,11.521428571428569L10.092139249547223,11.521428571428569L10.535355339059327,11.964644660940673L10.464644660940673,12.035355339059327L10.050717893309915,11.62142857142857L9.622146464738488,11.62142857142857L9.407860750452773,11.407142857142858L8.979289321881346,11.407142857142858L8.521428571428569,10.949282106690081L8.521428571428569,10.520710678118654L7.878571428571428,9.877853535261512L7.878571428571428,8.592139249547223L7.479289321881345,8.192857142857143L7.265003607595631,8.192857142857143L7.050717893309916,7.978571428571428L6.407860750452773,7.978571428571428z" stroke="none"/><path d="M40.55,9L40.45,9L40.45,8.377853535261512L39.80714285714286,7.734996392404369L39.80714285714286,7.520710678118655L39.40786075045278,7.121428571428571L36.40786075045278,7.121428571428571L36.19357503616706,6.907142857142857L35.550717893309915,6.907142857142857L34.90786075045278,6.264285714285714L34.69357503616706,6.264285714285714L34.46464466094067,6.035355339059327L34.53535533905933,5.964644660940673L34.73499639240437,6.164285714285715L34.949282106690085,6.164285714285715L35.59213924954722,6.807142857142857L36.23499639240437,6.807142857142857L36.449282106690085,7.021428571428571L39.449282106690085,7.021428571428571L39.90714285714285,7.479289321881345L39.90714285714285,7.69357503616706L40.55,8.336432179024204z" stroke="none"/><path d="M91.44999999999999,4.5L91.54999999999998,4.5L91.54999999999998,4.734996392404369L91.33571428571427,4.949282106690084L91.33571428571427,5.3778535352615116L91.12142857142855,5.592139249547226L91.12142857142855,6.020710678118655L90.90714285714284,6.234996392404369L90.90714285714284,6.449282106690083L90.6635678209758,6.692857142857142L86.1635678209758,6.692857142857142L85.94928210669008,6.907142857142857L85.73499639240437,6.907142857142857L85.52071067811865,7.121428571428571L85.09213924954722,7.121428571428571L84.87785353526151,7.335714285714285L84.44928210669008,7.335714285714285L84.23499639240437,7.55L83.99999999999999,7.55L83.99999999999999,7.45L84.19357503616705,7.45L84.40786075045276,7.235714285714286L84.83643217902419,7.235714285714286L85.0507178933099,7.021428571428571L85.47928932188132,7.021428571428571L85.69357503616705,6.807142857142857L85.90786075045276,6.807142857142857L86.12214646473848,6.5928571428571425L90.62214646473848,6.5928571428571425L90.80714285714285,6.407860750452773L90.80714285714285,6.19357503616706L91.02142857142856,5.979289321881345L91.02142857142856,5.550717893309916L91.23571428571428,5.336432179024202L91.23571428571428,4.907860750452774L91.44999999999999,4.69357503616706z" stroke="none"/><path d="M40.46464466094067,6.035355339059327L40.53535533905933,5.964644660940673L40.949282106690085,6.378571428571428L41.37785353526151,6.378571428571428L41.59213924954722,6.5928571428571425L42.020710678118654,6.5928571428571425L42.66356782097579,7.235714285714286L44.80642496383294,7.235714285714286L45.020710678118654,7.45L45.23499639240437,7.45L45.449282106690085,7.664285714285715L45.66356782097579,7.664285714285715L45.87785353526151,7.878571428571428L46.09213924954722,7.878571428571428L46.30642496383294,8.092857142857142L46.520710678118654,8.092857142857142L47.16356782097579,8.735714285714284L47.80642496383294,8.735714285714284L48.03535533905933,8.964644660940673L47.96464466094067,9.035355339059327L47.76500360759563,8.835714285714285L47.122146464738485,8.835714285714285L46.479289321881346,8.192857142857143L46.26500360759563,8.192857142857143L46.050717893309915,7.978571428571428L45.8364321790242,7.978571428571428L45.622146464738485,7.764285714285714L45.40786075045278,7.764285714285714L45.19357503616706,7.55L44.979289321881346,7.55L44.76500360759563,7.335714285714285L42.622146464738485,7.335714285714285L41.979289321881346,6.692857142857142L41.550717893309915,6.692857142857142L41.3364321790242,6.478571428571428L40.90786075045278,6.478571428571428z" stroke="none"/><path d="M12.035355339059327,7.464644660940673L11.964644660940673,7.535355339059327L11.307142857142857,6.8778535352615116L11.307142857142857,6.234996392404369L11.092857142857142,6.020710678118655L11.092857142857142,5.80642496383294L10.907860750452773,5.621428571428571L6.622146464738488,5.621428571428571L6.407860750452773,5.407142857142857L5.979289321881345,5.407142857142857L5.336432179024202,4.764285714285714L5.122146464738488,4.764285714285714L4.907860750452774,4.55L4.5,4.55L4.5,4.45L4.949282106690084,4.45L5.163567820975797,4.664285714285715L5.3778535352615116,4.664285714285715L6.020710678118655,5.307142857142857L6.449282106690083,5.307142857142857L6.663567820975797,5.521428571428571L10.949282106690081,5.521428571428571L11.192857142857143,5.765003607595631L11.192857142857143,5.979289321881345L11.407142857142858,6.19357503616706L11.407142857142858,6.836432179024202z" stroke="none"/><path d="M24,10.45L24,10.55L18.62214646473849,10.55L18.407860750452773,10.335714285714285L17.12214646473849,10.335714285714285L16.907860750452773,10.12142857142857L14.592139249547223,10.12142857142857L14.377853535261512,10.335714285714285L14.163567820975796,10.335714285714285L13.949282106690081,10.55L13.5,10.55L13.5,10.45L13.907860750452773,10.45L14.122146464738488,10.235714285714284L14.336432179024204,10.235714285714284L14.550717893309915,10.021428571428569L16.94928210669008,10.021428571428569L17.163567820975796,10.235714285714284L18.44928210669008,10.235714285714284L18.663567820975796,10.45z" stroke="none"/><path d="M88.49999999999999,9.05L88.49999999999999,8.95L96.66356782097579,8.95L96.87785353526151,9.164285714285715L97.09213924954722,9.164285714285715L97.73499639240437,9.807142857142857L98.16356782097579,9.807142857142857L98.80642496383294,10.45L98.99999999999999,10.45L98.99999999999999,10.55L98.76500360759562,10.55L98.12214646473846,9.907142857142858L97.69357503616705,9.907142857142858L97.0507178933099,9.264285714285716L96.83643217902419,9.264285714285716L96.62214646473846,9.05z" stroke="none"/><path d="M92.96464466094066,4.464644660940673L93.03535533905931,4.535355339059327L91.12142857142855,6.449282106690083L91.12142857142855,6.663567820975797L90.87785353526151,6.907142857142857L87.23499639240437,6.907142857142857L87.02071067811865,7.121428571428571L85.94928210669008,7.121428571428571L85.73499639240437,7.335714285714285L85.52071067811865,7.335714285714285L84.87785353526151,7.978571428571428L83.5507178933099,7.978571428571428L82.87857142857142,7.30642496383294L82.87857142857142,6.663567820975797L82.44999999999999,6.234996392404369L82.44999999999999,6L82.54999999999998,6L82.54999999999998,6.19357503616706L82.97857142857141,6.622146464738488L82.97857142857141,7.265003607595631L83.59213924954722,7.878571428571428L84.83643217902419,7.878571428571428L85.47928932188132,7.235714285714286L85.69357503616705,7.235714285714286L85.90786075045276,7.021428571428571L86.97928932188132,7.021428571428571L87.19357503616705,6.807142857142857L90.83643217902419,6.807142857142857L91.02142857142856,6.622146464738488L91.02142857142856,6.407860750452773z" stroke="none"/><path d="M46.5,8.95L46.5,9.05L46.26500360759563,9.05L46.050717893309915,8.835714285714285L45.8364321790242,8.835714285714285L45.40786075045278,8.407142857142858L45.19357503616706,8.407142857142858L44.979289321881346,8.192857142857143L43.69357503616706,8.192857142857143L43.479289321881346,7.978571428571428L42.40786075045278,7.978571428571428L41.979289321881346,7.55L41.76500360759563,7.55L41.122146464738485,6.907142857142857L40.479289321881346,6.907142857142857L40.02142857142857,6.449282106690083L40.02142857142857,5.550717893309916L40.26500360759563,5.307142857142857L43.30642496383294,5.307142857142857L43.520710678118654,5.521428571428571L43.949282106690085,5.521428571428571L44.16356782097579,5.735714285714286L44.37785353526151,5.735714285714286L45.23499639240437,6.5928571428571425L45.66356782097579,6.5928571428571425L45.87785353526151,6.807142857142857L46.09213924954722,6.807142857142857L46.30642496383294,7.021428571428571L47.80642496383294,7.021428571428571L48.44928210669008,7.664285714285715L48.66356782097579,7.664285714285715L48.87785353526151,7.878571428571428L74.37785353526151,7.878571428571428L74.80642496383294,8.307142857142857L75.02071067811865,8.307142857142857L75.44928210669008,8.735714285714284L76.09213924954722,8.735714285714284L76.52071067811865,9.164285714285715L77.1635678209758,9.164285714285715L77.37785353526151,9.378571428571426L77.59213924954722,9.378571428571426L77.80642496383294,9.592857142857142L78.02071067811865,9.592857142857142L78.47857142857141,10.050717893309915L78.47857142857141,10.949282106690081L78.23499639240437,11.192857142857143L67.09213924954722,11.192857142857143L66.23499639240437,12.05L66.02071067811865,12.05L65.80642496383294,12.264285714285716L65.59213924954722,12.264285714285716L65.37785353526151,12.478571428571428L59.37785353526151,12.478571428571428L59.16356782097579,12.692857142857143L35.3364321790242,12.692857142857143L34.69357503616706,12.05L34.5,12.05L34.5,11.95L34.73499639240437,11.95L35.37785353526151,12.592857142857142L59.122146464738485,12.592857142857142L59.3364321790242,12.378571428571426L65.33643217902419,12.378571428571426L65.5507178933099,12.164285714285715L65.76500360759562,12.164285714285715L65.97928932188132,11.95L66.19357503616705,11.95L67.0507178933099,11.092857142857142L78.19357503616705,11.092857142857142L78.37857142857142,10.907860750452773L78.37857142857142,10.092139249547223L77.97928932188132,9.692857142857143L77.76500360759562,9.692857142857143L77.5507178933099,9.478571428571428L77.33643217902419,9.478571428571428L77.12214646473848,9.264285714285716L76.47928932188132,9.264285714285716L76.0507178933099,8.835714285714285L75.40786075045276,8.835714285714285L74.97928932188132,8.407142857142858L74.76500360759562,8.407142857142858L74.33643217902419,7.978571428571428L48.8364321790242,7.978571428571428L48.622146464738485,7.764285714285714L48.40786075045277,7.764285714285714L47.76500360759563,7.121428571428571L46.26500360759563,7.121428571428571L46.050717893309915,6.907142857142857L45.8364321790242,6.907142857142857L45.622146464738485,6.692857142857142L45.19357503616706,6.692857142857142L44.3364321790242,5.835714285714285L44.122146464738485,5.835714285714285L43.90786075045278,5.621428571428571L43.479289321881346,5.621428571428571L43.26500360759563,5.407142857142857L40.30642496383294,5.407142857142857L40.12142857142857,5.592139249547226L40.12142857142857,6.407860750452773L40.520710678118654,6.807142857142857L41.16356782097579,6.807142857142857L41.80642496383294,7.45L42.020710678118654,7.45L42.449282106690085,7.878571428571428L43.520710678118654,7.878571428571428L43.73499639240437,8.092857142857142L45.020710678118654,8.092857142857142L45.23499639240437,8.307142857142857L45.449282106690085,8.307142857142857L45.87785353526151,8.735714285714284L46.09213924954722,8.735714285714284L46.30642496383294,8.95z" stroke="none"/><path d="M30,4.45L30,4.55L28.69357503616706,4.55L28.26500360759563,4.121428571428571L27.407860750452773,4.121428571428571L27.19357503616706,3.907142857142857L26.979289321881346,3.907142857142857L26.52142857142857,3.449282106690083L26.52142857142857,2.550717893309917L26.76500360759563,2.3071428571428574L41.80642496383294,2.3071428571428574L42.020710678118654,2.521428571428572L42.23499639240437,2.521428571428572L42.449282106690085,2.7357142857142858L42.66356782097579,2.7357142857142858L42.87785353526151,2.95L45,2.95L45,3.05L42.8364321790242,3.05L42.622146464738485,2.8357142857142854L42.40786075045278,2.8357142857142854L42.19357503616706,2.6214285714285714L41.979289321881346,2.6214285714285714L41.76500360759563,2.407142857142857L26.80642496383294,2.407142857142857L26.62142857142857,2.5921392495472264L26.62142857142857,3.4078607504527736L27.020710678118654,3.8071428571428574L27.23499639240437,3.8071428571428574L27.44928210669008,4.021428571428571L28.30642496383294,4.021428571428571L28.73499639240437,4.45z" stroke="none"/><path d="M5.964644660940673,9.035355339059327L6.035355339059327,8.964644660940673L8.163567820975796,11.092857142857142L8.377853535261512,11.092857142857142L9.020710678118654,11.735714285714284L9.23499639240437,11.735714285714284L9.449282106690081,11.95L9.663567820975796,11.95L10.092139249547223,12.378571428571426L19.907860750452773,12.378571428571426L20.12214646473849,12.164285714285715L20.76500360759563,12.164285714285715L20.96464466094067,11.964644660940673L21.03535533905933,12.035355339059327L20.80642496383294,12.264285714285716L20.163567820975796,12.264285714285716L19.94928210669008,12.478571428571428L10.050717893309915,12.478571428571428L9.622146464738488,12.05L9.407860750452773,12.05L9.193575036167061,11.835714285714285L8.979289321881346,11.835714285714285L8.336432179024204,11.192857142857143L8.122146464738488,11.192857142857143z" stroke="none"/><path d="M74.99999999999999,2.95L74.99999999999999,3.05L72.62214646473848,3.05L72.40786075045276,2.8357142857142854L71.12214646473848,2.8357142857142854L70.90786075045276,2.6214285714285714L58.94928210669008,2.6214285714285714L58.53535533905933,3.0353553390593273L58.46464466094067,2.9646446609406727L58.90786075045277,2.521428571428572L70.94928210669008,2.521428571428572L71.1635678209758,2.7357142857142858L72.44928210669008,2.7357142857142858L72.6635678209758,2.95z" stroke="none"/><path d="M80.99999999999999,12.05L80.99999999999999,11.95L81.44928210669008,11.95L81.6635678209758,12.164285714285715L81.87785353526151,12.164285714285715L82.09213924954722,12.378571428571426L90.62214646473848,12.378571428571426L90.83643217902419,12.164285714285715L92.5507178933099,12.164285714285715L92.97928932188132,11.735714285714284L93.19357503616705,11.735714285714284L93.40786075045276,11.521428571428569L94.69357503616705,11.521428571428569L94.90786075045276,11.307142857142857L95.33643217902419,11.307142857142857L95.76500360759562,10.878571428571426L95.97928932188132,10.878571428571426L96.19357503616705,10.664285714285715L97.26500360759562,10.664285714285715L97.46464466094066,10.464644660940673L97.53535533905931,10.535355339059327L97.30642496383294,10.764285714285716L96.23499639240437,10.764285714285716L96.02071067811865,10.978571428571428L95.80642496383294,10.978571428571428L95.37785353526151,11.407142857142858L94.94928210669008,11.407142857142858L94.73499639240437,11.62142857142857L93.44928210669008,11.62142857142857L93.23499639240437,11.835714285714285L93.02071067811865,11.835714285714285L92.59213924954722,12.264285714285716L90.87785353526151,12.264285714285716L90.6635678209758,12.478571428571428L82.0507178933099,12.478571428571428L81.83643217902419,12.264285714285716L81.62214646473848,12.264285714285716L81.40786075045276,12.05z" stroke="none"/><path d="M21.05,4.5L20.95,4.5L20.95,3.877853535261512L20.307142857142857,3.234996392404369L20.307142857142857,3.020710678118655L19.907860750452773,2.6214285714285714L7.479289321881345,2.6214285714285714L7.265003607595631,2.407142857142857L3.877853535261512,2.407142857142857L3.478571428571428,2.8064249638329404L3.478571428571428,3.877853535261512L3.2642857142857142,4.092139249547226L3.2642857142857142,4.30642496383294L3.0353553390593273,4.535355339059327L2.9646446609406727,4.464644660940673L3.1642857142857146,4.265003607595631L3.1642857142857146,4.050717893309916L3.3785714285714286,3.8364321790242024L3.3785714285714286,2.765003607595631L3.8364321790242024,2.3071428571428574L7.30642496383294,2.3071428571428574L7.520710678118655,2.521428571428572L19.94928210669008,2.521428571428572L20.40714285714286,2.979289321881345L20.40714285714286,3.1935750361670596L21.05,3.8364321790242024z" stroke="none"/><path d="M74.99999999999999,12.05L74.99999999999999,11.95L75.19357503616705,11.95L75.40786075045276,11.735714285714284L75.83643217902419,11.735714285714284L76.0507178933099,11.521428571428569L78.83643217902419,11.521428571428569L79.0507178933099,11.307142857142857L81.83643217902419,11.307142857142857L82.90786075045276,10.235714285714284L83.12214646473848,10.235714285714284L83.33643217902419,10.021428571428569L93.87785353526151,10.021428571428569L94.30642496383294,10.45L94.49999999999999,10.45L94.49999999999999,10.55L94.26500360759562,10.55L93.83643217902419,10.12142857142857L83.37785353526151,10.12142857142857L83.1635678209758,10.335714285714285L82.94928210669008,10.335714285714285L81.87785353526151,11.407142857142858L79.09213924954722,11.407142857142858L78.87785353526151,11.62142857142857L76.09213924954722,11.62142857142857L75.87785353526151,11.835714285714285L75.44928210669008,11.835714285714285L75.23499639240437,12.05z" stroke="none"/><path d="M33,5.95L33,6.05L26.163567820975796,6.05L25.520710678118654,6.692857142857142L25.092139249547223,6.692857142857142L24.663567820975796,7.121428571428571L24.020710678118654,7.121428571428571L23.163567820975796,7.978571428571428L18.44928210669008,7.978571428571428L18.23499639240437,8.192857142857143L17.80642496383294,8.192857142857143L17.592139249547227,8.407142857142858L15.877853535261512,8.407142857142858L15.692857142857143,8.592139249547223L15.692857142857143,9.407860750452773L15.877853535261512,9.592857142857142L57.44928210669008,9.592857142857142L57.66356782097579,9.807142857142857L60.23499639240437,9.807142857142857L60.47857142857142,10.050717893309915L60.47857142857142,10.949282106690081L60.23499639240437,11.192857142857143L57.622146464738485,11.192857142857143L57.40786075045277,10.978571428571428L56.979289321881346,10.978571428571428L56.76500360759563,10.764285714285716L53.3364321790242,10.764285714285716L53.122146464738485,10.55L52.5,10.55L52.5,10.45L53.16356782097579,10.45L53.37785353526151,10.664285714285715L56.80642496383294,10.664285714285715L57.020710678118654,10.878571428571426L57.44928210669008,10.878571428571426L57.66356782097579,11.092857142857142L60.19357503616706,11.092857142857142L60.378571428571426,10.907860750452773L60.378571428571426,10.092139249547223L60.19357503616706,9.907142857142858L57.622146464738485,9.907142857142858L57.40786075045277,9.692857142857143L15.836432179024204,9.692857142857143L15.592857142857142,9.449282106690081L15.592857142857142,8.550717893309915L15.836432179024204,8.307142857142857L17.55071789330992,8.307142857142857L17.76500360759563,8.092857142857142L18.19357503616706,8.092857142857142L18.407860750452773,7.878571428571428L23.12214646473849,7.878571428571428L23.979289321881346,7.021428571428571L24.62214646473849,7.021428571428571L25.050717893309915,6.5928571428571425L25.479289321881346,6.5928571428571425L26.12214646473849,5.95z" stroke="none"/><path d="M79.49999999999999,7.55L79.49999999999999,7.45L79.73499639240437,7.45L79.94928210669008,7.664285714285715L80.37785353526151,7.664285714285715L80.59213924954722,7.878571428571428L82.73499639240437,7.878571428571428L82.94928210669008,8.092857142857142L92.59213924954722,8.092857142857142L92.80642496383294,8.307142857142857L94.30642496383294,8.307142857142857L94.52071067811865,8.521428571428569L97.52071067811865,8.521428571428569L97.73499639240437,8.735714285714284L97.94928210669008,8.735714285714284L98.59213924954722,9.378571428571426L99.40786075045276,9.378571428571426L99.62214646473846,9.164285714285715L100.26500360759562,9.164285714285715L100.46464466094066,8.964644660940673L100.53535533905931,9.035355339059327L100.30642496383294,9.264285714285716L99.66356782097579,9.264285714285716L99.44928210669008,9.478571428571428L98.5507178933099,9.478571428571428L97.90786075045276,8.835714285714285L97.69357503616705,8.835714285714285L97.47928932188132,8.62142857142857L94.47928932188132,8.62142857142857L94.26500360759562,8.407142857142858L92.76500360759562,8.407142857142858L92.5507178933099,8.192857142857143L82.90786075045276,8.192857142857143L82.69357503616705,7.978571428571428L80.5507178933099,7.978571428571428L80.33643217902419,7.764285714285714L79.90786075045276,7.764285714285714L79.69357503616705,7.55z" stroke="none"/><path d="M25.5,4.45L25.5,4.55L25.26500360759563,4.55L24.836432179024204,4.121428571428571L24.62214646473849,4.121428571428571L24.19357503616706,3.6928571428571426L23.336432179024204,3.6928571428571426L23.12214646473849,3.478571428571428L22.26500360759563,3.478571428571428L21.836432179024204,3.05L21.62214646473849,3.05L21.407860750452773,2.8357142857142854L20.76500360759563,2.8357142857142854L20.55071789330992,2.6214285714285714L20.336432179024204,2.6214285714285714L20.12214646473849,2.407142857142857L8.122146464738488,2.407142857142857L7.907860750452773,2.1928571428571426L3.6635678209757976,2.1928571428571426L3.2642857142857142,2.5921392495472264L3.2642857142857142,3.234996392404369L2.6214285714285714,3.877853535261512L2.6214285714285714,5.336432179024202L3.05,5.765003607595631L3.05,6L2.95,6L2.95,5.80642496383294L2.521428571428572,5.3778535352615116L2.521428571428572,3.8364321790242024L3.1642857142857146,3.1935750361670596L3.1642857142857146,2.550717893309917L3.622146464738488,2.092857142857143L7.949282106690083,2.092857142857143L8.163567820975796,2.3071428571428574L20.163567820975796,2.3071428571428574L20.37785353526151,2.521428571428572L20.592139249547227,2.521428571428572L20.80642496383294,2.7357142857142858L21.44928210669008,2.7357142857142858L21.663567820975796,2.95L21.87785353526151,2.95L22.30642496383294,3.3785714285714286L23.163567820975796,3.3785714285714286L23.37785353526151,3.592857142857143L24.23499639240437,3.592857142857143L24.663567820975796,4.021428571428571L24.87785353526151,4.021428571428571L25.30642496383294,4.45z" stroke="none"/><path d="M31.5,11.95L31.5,12.05L22.092139249547227,12.05L21.663567820975796,12.478571428571428L20.37785353526151,12.478571428571428L20.163567820975796,12.692857142857143L9.836432179024204,12.692857142857143L9.407860750452773,12.264285714285716L9.193575036167061,12.264285714285716L8.979289321881346,12.05L8.76500360759563,12.05L8.122146464738488,11.407142857142858L7.907860750452773,11.407142857142858L6.19357503616706,9.692857142857143L5.765003607595631,9.692857142857143L5.521428571428571,9.449282106690081L5.521428571428571,8.806424963832939L4.664285714285715,7.949282106690083L4.664285714285715,7.734996392404369L4.464644660940673,7.535355339059327L4.535355339059327,7.464644660940673L4.764285714285714,7.69357503616706L4.764285714285714,7.907860750452773L5.621428571428571,8.76500360759563L5.621428571428571,9.407860750452773L5.80642496383294,9.592857142857142L6.234996392404369,9.592857142857142L7.949282106690083,11.307142857142857L8.163567820975796,11.307142857142857L8.806424963832939,11.95L9.020710678118654,11.95L9.23499639240437,12.164285714285715L9.449282106690081,12.164285714285715L9.877853535261512,12.592857142857142L20.12214646473849,12.592857142857142L20.336432179024204,12.378571428571426L21.62214646473849,12.378571428571426L22.05071789330992,11.95z" stroke="none"/><path d="M40.5,11.95L40.5,12.05L35.3364321790242,12.05L34.90786075045278,11.62142857142857L34.09213924954722,11.62142857142857L33.90714285714285,11.806424963832939L33.90714285714285,12.193575036167061L34.09213924954722,12.378571428571426L34.73499639240437,12.378571428571426L35.16356782097579,12.807142857142857L70.47928932188132,12.807142857142857L70.90786075045276,12.378571428571426L71.5507178933099,12.378571428571426L71.96464466094066,11.964644660940673L72.03535533905931,12.035355339059327L71.59213924954722,12.478571428571428L70.94928210669008,12.478571428571428L70.52071067811865,12.907142857142858L35.122146464738485,12.907142857142858L34.69357503616706,12.478571428571428L34.050717893309915,12.478571428571428L33.80714285714286,12.23499639240437L33.80714285714286,11.76500360759563L34.050717893309915,11.521428571428569L34.949282106690085,11.521428571428569L35.37785353526151,11.95z" stroke="none"/><path d="M21,7.45L21,7.55L16.73499639240437,7.55L16.30642496383294,7.978571428571428L15.877853535261512,7.978571428571428L15.663567820975796,8.192857142857143L15.449282106690081,8.192857142857143L14.806424963832939,8.835714285714285L14.377853535261512,8.835714285714285L13.12142857142857,10.092139249547223L13.12142857142857,10.907860750452773L13.306424963832939,11.092857142857142L53.16356782097579,11.092857142857142L54.03535533905933,11.964644660940673L53.96464466094067,12.035355339059327L53.122146464738485,11.192857142857143L13.26500360759563,11.192857142857143L13.021428571428569,10.949282106690081L13.021428571428569,10.050717893309915L14.336432179024204,8.735714285714284L14.76500360759563,8.735714285714284L15.407860750452773,8.092857142857142L15.622146464738488,8.092857142857142L15.836432179024204,7.878571428571428L16.26500360759563,7.878571428571428L16.69357503616706,7.45z" stroke="none"/><path d="M15,5.95L15,6.05L11.979289321881346,6.05L11.76500360759563,5.835714285714285L11.550717893309915,5.835714285714285L11.122146464738488,5.407142857142857L8.76500360759563,5.407142857142857L8.550717893309915,5.192857142857142L6.836432179024202,5.192857142857142L6.622146464738488,4.978571428571429L6.19357503616706,4.978571428571429L5.979289321881345,4.764285714285714L5.765003607595631,4.764285714285714L5.550717893309916,4.55L5.336432179024202,4.55L4.907860750452774,4.121428571428571L4.092139249547226,4.121428571428571L3.907142857142857,4.30642496383294L3.907142857142857,6.020710678118655L3.449282106690083,6.478571428571428L2.550717893309917,6.478571428571428L2.3071428571428574,6.234996392404369L2.3071428571428574,3.622146464738488L2.521428571428572,3.4078607504527736L2.521428571428572,3.1935750361670596L2.7357142857142858,2.979289321881345L2.7357142857142858,2.765003607595631L2.95,2.550717893309917L2.95,2.3364321790242024L3.4078607504527736,1.8785714285714286L49.520710678118654,1.8785714285714286L49.94928210669008,2.3071428571428574L50.37785353526151,2.3071428571428574L51.03535533905933,2.9646446609406727L50.96464466094067,3.0353553390593273L50.3364321790242,2.407142857142857L49.90786075045277,2.407142857142857L49.479289321881346,1.9785714285714286L3.449282106690083,1.9785714285714286L3.05,2.377853535261512L3.05,2.5921392495472264L2.8357142857142854,2.8064249638329404L2.8357142857142854,3.020710678118655L2.6214285714285714,3.234996392404369L2.6214285714285714,3.449282106690083L2.407142857142857,3.6635678209757976L2.407142857142857,6.19357503616706L2.5921392495472264,6.378571428571428L3.4078607504527736,6.378571428571428L3.8071428571428574,5.979289321881345L3.8071428571428574,4.265003607595631L4.050717893309916,4.021428571428571L4.949282106690084,4.021428571428571L5.3778535352615116,4.45L5.592139249547226,4.45L5.80642496383294,4.664285714285715L6.020710678118655,4.664285714285715L6.234996392404369,4.878571428571429L6.663567820975797,4.878571428571429L6.8778535352615116,5.0928571428571425L8.592139249547223,5.0928571428571425L8.806424963832939,5.307142857142857L11.163567820975796,5.307142857142857L11.592139249547223,5.735714285714286L11.806424963832939,5.735714285714286L12.020710678118654,5.95z" stroke="none"/><path d="M52.5,2.95L52.5,3.05L52.26500360759563,3.05L52.050717893309915,2.8357142857142854L51.622146464738485,2.8357142857142854L51.40786075045277,2.6214285714285714L50.979289321881346,2.6214285714285714L50.550717893309915,2.1928571428571426L50.122146464738485,2.1928571428571426L49.69357503616706,1.7642857142857145L3.234996392404369,1.7642857142857145L2.1928571428571426,2.8064249638329404L2.1928571428571426,6.407860750452773L7.092139249547226,11.307142857142857L7.30642496383294,11.307142857142857L7.520710678118655,11.521428571428569L7.949282106690083,11.521428571428569L9.23499639240437,12.807142857142857L31.26500360759563,12.807142857142857L31.479289321881346,12.592857142857142L31.69357503616706,12.592857142857142L31.878571428571426,12.407860750452773L31.878571428571426,11.592139249547223L31.69357503616706,11.407142857142858L13.050717893309915,11.407142857142858L12.807142857142857,11.163567820975796L12.807142857142857,9.836432179024204L16.235714285714284,6.407860750452773L16.235714285714284,6.19357503616706L16.46464466094067,5.964644660940673L16.53535533905933,6.035355339059327L16.335714285714285,6.234996392404369L16.335714285714285,6.449282106690083L12.907142857142858,9.877853535261512L12.907142857142858,11.122146464738488L13.092139249547223,11.307142857142857L31.73499639240437,11.307142857142857L31.978571428571428,11.550717893309915L31.978571428571428,12.449282106690081L31.73499639240437,12.692857142857143L31.520710678118654,12.692857142857143L31.30642496383294,12.907142857142858L9.193575036167061,12.907142857142858L7.907860750452773,11.62142857142857L7.479289321881345,11.62142857142857L7.265003607595631,11.407142857142858L7.050717893309916,11.407142857142858L2.092857142857143,6.449282106690083L2.092857142857143,2.765003607595631L3.1935750361670596,1.6642857142857144L49.73499639240437,1.6642857142857144L50.16356782097579,2.092857142857143L50.59213924954722,2.092857142857143L51.020710678118654,2.521428571428572L51.44928210669008,2.521428571428572L51.66356782097579,2.7357142857142858L52.09213924954722,2.7357142857142858L52.30642496383294,2.95z" stroke="none"/><path d="M85.49999999999999,8.95L85.49999999999999,9.05L85.30642496383294,9.05L85.09213924954722,9.264285714285716L84.6635678209758,9.264285714285716L84.44928210669008,9.478571428571428L82.73499639240437,9.478571428571428L82.52071067811865,9.692857142857143L81.87785353526151,9.692857142857143L81.44928210669008,10.12142857142857L81.23499639240437,10.12142857142857L81.02071067811865,10.335714285714285L80.80642496383294,10.335714285714285L80.59213924954722,10.55L80.37785353526151,10.55L79.94928210669008,10.978571428571428L79.73499639240437,10.978571428571428L79.52071067811865,11.192857142857143L78.87785353526151,11.192857142857143L78.6635678209758,11.407142857142858L74.80642496383294,11.407142857142858L73.94928210669008,12.264285714285716L72.6635678209758,12.264285714285716L72.44928210669008,12.478571428571428L72.02071067811865,12.478571428571428L71.80642496383294,12.692857142857143L71.37785353526151,12.692857142857143L71.1635678209758,12.907142857142858L70.94928210669008,12.907142857142858L70.73499639240437,13.12142857142857L34.479289321881346,13.12142857142857L34.26500360759563,12.907142857142858L34.050717893309915,12.907142857142858L33.59285714285714,12.449282106690081L33.59285714285714,11.550717893309915L33.8364321790242,11.307142857142857L46.73499639240437,11.307142857142857L46.94928210669008,11.521428571428569L47.16356782097579,11.521428571428569L47.37785353526151,11.735714285714284L47.80642496383294,11.735714285714284L48.03535533905933,11.964644660940673L47.96464466094067,12.035355339059327L47.76500360759563,11.835714285714285L47.3364321790242,11.835714285714285L47.122146464738485,11.62142857142857L46.90786075045277,11.62142857142857L46.69357503616706,11.407142857142858L33.87785353526151,11.407142857142858L33.692857142857136,11.592139249547223L33.692857142857136,12.407860750452773L34.09213924954722,12.807142857142857L34.30642496383294,12.807142857142857L34.520710678118654,13.021428571428569L70.69357503616705,13.021428571428569L70.90786075045276,12.807142857142857L71.12214646473848,12.807142857142857L71.33643217902419,12.592857142857142L71.76500360759562,12.592857142857142L71.97928932188132,12.378571428571426L72.40786075045276,12.378571428571426L72.62214646473848,12.164285714285715L73.90786075045276,12.164285714285715L74.76500360759562,11.307142857142857L78.62214646473848,11.307142857142857L78.83643217902419,11.092857142857142L79.47928932188132,11.092857142857142L79.69357503616705,10.878571428571426L79.90786075045276,10.878571428571426L80.33643217902419,10.45L80.5507178933099,10.45L80.76500360759562,10.235714285714284L80.97928932188132,10.235714285714284L81.19357503616705,10.021428571428569L81.40786075045276,10.021428571428569L81.83643217902419,9.592857142857142L82.47928932188132,9.592857142857142L82.69357503616705,9.378571428571426L84.40786075045276,9.378571428571426L84.62214646473848,9.164285714285715L85.0507178933099,9.164285714285715L85.26500360759562,8.95z" stroke="none"/><path d="M94.49999999999999,12.05L94.49999999999999,11.95L95.12214646473846,11.95L95.33643217902419,11.735714285714284L95.97928932188132,11.735714285714284L96.19357503616705,11.521428571428569L96.40786075045276,11.521428571428569L96.62214646473846,11.307142857142857L96.83643217902419,11.307142857142857L97.0507178933099,11.092857142857142L97.69357503616705,11.092857142857142L97.87857142857142,10.907860750452773L97.87857142857142,10.693575036167061L98.09285714285713,10.479289321881346L98.09285714285713,10.306424963832939L97.90786075045276,10.12142857142857L97.26500360759562,10.12142857142857L96.62214646473846,9.478571428571428L87.19357503616705,9.478571428571428L86.97928932188132,9.264285714285716L86.76500360759562,9.264285714285716L86.33643217902419,8.835714285714285L86.12214646473848,8.835714285714285L85.90786075045276,8.62142857142857L77.5507178933099,8.62142857142857L76.90786075045276,7.978571428571428L76.69357503616705,7.978571428571428L76.47928932188132,7.764285714285714L54.622146464738485,7.764285714285714L54.40786075045277,7.55L54,7.55L54,7.45L54.44928210669008,7.45L54.66356782097579,7.664285714285715L76.52071067811865,7.664285714285715L76.73499639240437,7.878571428571428L76.94928210669008,7.878571428571428L77.59213924954722,8.521428571428569L85.94928210669008,8.521428571428569L86.1635678209758,8.735714285714284L86.37785353526151,8.735714285714284L86.80642496383294,9.164285714285715L87.02071067811865,9.164285714285715L87.23499639240437,9.378571428571426L96.66356782097579,9.378571428571426L97.30642496383294,10.021428571428569L97.94928210669008,10.021428571428569L98.19285714285712,10.26500360759563L98.19285714285712,10.520710678118654L97.97857142857141,10.73499639240437L97.97857142857141,10.949282106690081L97.73499639240437,11.192857142857143L97.09213924954722,11.192857142857143L96.87785353526151,11.407142857142858L96.66356782097579,11.407142857142858L96.44928210669008,11.62142857142857L96.23499639240437,11.62142857142857L96.02071067811865,11.835714285714285L95.37785353526151,11.835714285714285L95.16356782097579,12.05z" stroke="none"/><path d="M80.99999999999999,7.45L80.99999999999999,7.55L80.5507178933099,7.55L80.33643217902419,7.335714285714285L80.12214646473848,7.335714285714285L79.90786075045276,7.121428571428571L79.09213924954722,7.121428571428571L78.90714285714284,7.30642496383294L78.90714285714284,7.69357503616706L79.09213924954722,7.878571428571428L80.1635678209758,7.878571428571428L80.37785353526151,8.092857142857142L82.30642496383294,8.092857142857142L82.52071067811865,8.307142857142857L92.37785353526151,8.307142857142857L92.59213924954722,8.521428571428569L93.87785353526151,8.521428571428569L94.09213924954722,8.735714285714284L96.87785353526151,8.735714285714284L97.09213924954722,8.95L97.30642496383294,8.95L97.94928210669008,9.592857142857142L98.80642496383294,9.592857142857142L99.02071067811865,9.807142857142857L99.23499639240437,9.807142857142857L99.47857142857141,10.050717893309915L99.47857142857141,10.949282106690081L99.23499639240437,11.192857142857143L99.02071067811865,11.192857142857143L97.94928210669008,12.264285714285716L95.16356782097579,12.264285714285716L94.94928210669008,12.478571428571428L91.30642496383294,12.478571428571428L91.09213924954722,12.692857142857143L75.6635678209758,12.692857142857143L75.44928210669008,12.907142857142858L71.59213924954722,12.907142857142858L71.37785353526151,13.12142857142857L71.1635678209758,13.12142857142857L70.94928210669008,13.335714285714285L34.26500360759563,13.335714285714285L34.050717893309915,13.12142857142857L33.8364321790242,13.12142857142857L32.95,12.23499639240437L32.95,12L33.05,12L33.05,12.193575036167061L33.87785353526151,13.021428571428569L34.09213924954722,13.021428571428569L34.30642496383294,13.235714285714284L70.90786075045276,13.235714285714284L71.12214646473848,13.021428571428569L71.33643217902419,13.021428571428569L71.5507178933099,12.807142857142857L75.40786075045276,12.807142857142857L75.62214646473848,12.592857142857142L91.0507178933099,12.592857142857142L91.26500360759562,12.378571428571426L94.90786075045276,12.378571428571426L95.12214646473846,12.164285714285715L97.90786075045276,12.164285714285715L98.97928932188132,11.092857142857142L99.19357503616705,11.092857142857142L99.37857142857142,10.907860750452773L99.37857142857142,10.092139249547223L99.19357503616705,9.907142857142858L98.97928932188132,9.907142857142858L98.76500360759562,9.692857142857143L97.90786075045276,9.692857142857143L97.26500360759562,9.05L97.0507178933099,9.05L96.83643217902419,8.835714285714285L94.0507178933099,8.835714285714285L93.83643217902419,8.62142857142857L92.5507178933099,8.62142857142857L92.33643217902419,8.407142857142858L82.47928932188132,8.407142857142858L82.26500360759562,8.192857142857143L80.33643217902419,8.192857142857143L80.12214646473848,7.978571428571428L79.0507178933099,7.978571428571428L78.80714285714285,7.734996392404369L78.80714285714285,7.265003607595631L79.0507178933099,7.021428571428571L79.94928210669008,7.021428571428571L80.1635678209758,7.235714285714286L80.37785353526151,7.235714285714286L80.59213924954722,7.45z" stroke="none"/></svg>