<svg version="1.1" width="105" height="15" xmlns="http://www.w3.org/2000/svg"><path d="M76.73499639240437,5.307142857142857L77.1635678209758,5.735714285714286L77.37785353526151,5.735714285714286L77.59213924954722,5.95L78.02071067811865,5.95L78.23499639240437,6.164285714285715L78.6635678209758,6.164285714285715L79.09213924954722,6.5928571428571425L79.73499639240437,6.5928571428571425L80.37785353526151,7.235714285714286L80.59213924954722,7.235714285714286L80.80642496383294,7.45L80.99999999999999,7.45L80.99999999999999,7.55L80.76500360759562,7.55L80.5507178933099,7.335714285714285L80.33643217902419,7.335714285714285L79.69357503616705,6.692857142857142L79.0507178933099,6.692857142857142L78.62214646473848,6.264285714285714L78.19357503616705,6.264285714285714L77.97928932188132,6.05L77.5507178933099,6.05L77.33643217902419,5.835714285714285L77.12214646473848,5.835714285714285L76.69357503616705,5.407142857142857L76.54999999999998,5.407142857142857L76.54999999999998,6L76.44999999999999,6L76.44999999999999,5.407142857142857L75.19357503616705,5.407142857142857L74.76500360759562,4.978571428571429L74.33643217902419,4.978571428571429L73.90786075045276,4.55L73.69357503616705,4.55L73.47928932188132,4.335714285714285L73.26500360759562,4.335714285714285L71.96464466094066,3.0353553390593273L72.03535533905931,2.9646446609406727L73.30642496383294,4.235714285714286L73.52071067811865,4.235714285714286L73.73499639240437,4.45L73.94928210669008,4.45L74.37785353526151,4.878571428571429L74.80642496383294,4.878571428571429L75.23499639240437,5.307142857142857z" stroke="none"/><path d="M15.807142857142857,5.879289321881346L15.807142857142857,5.765003607595631L16.050717893309915,5.521428571428571L22.520710678118654,5.521428571428571L24.87785353526151,7.878571428571428L25.092139249547223,7.878571428571428L25.520710678118654,8.307142857142857L26.163567820975796,8.307142857142857L26.592139249547223,8.735714285714284L26.80642496383294,8.735714285714284L27.03535533905933,8.964644660940673L26.96464466094067,9.035355339059327L26.76500360759563,8.835714285714285L26.550717893309915,8.835714285714285L26.12214646473849,8.407142857142858L25.479289321881346,8.407142857142858L25.050717893309915,7.978571428571428L24.836432179024204,7.978571428571428L22.479289321881346,5.621428571428571L16.092139249547223,5.621428571428571L15.907142857142858,5.80642496383294L15.907142857142858,6.05L8.336432179024204,6.05L7.050717893309916,4.764285714285714L6.407860750452773,4.764285714285714L6.19357503616706,4.55L6,4.55L6,4.45L6.234996392404369,4.45L6.449282106690083,4.664285714285715L7.092139249547226,4.664285714285715L8.377853535261512,5.95L15.736432179024202,5.95L15.592857142857142,5.80642496383294L15.592857142857142,5.3778535352615116L15.164285714285715,4.949282106690084L15.164285714285715,4.734996392404369L14.964644660940673,4.535355339059327L15.035355339059327,4.464644660940673L15.264285714285716,4.69357503616706L15.264285714285716,4.907860750452774L15.692857142857143,5.336432179024202L15.692857142857143,5.765003607595631z" stroke="none"/><path d="M57.378571428571426,10.878571428571426L57.378571428571426,9.663567820975796L56.95,9.23499639240437L56.95,9L57.05,9L57.05,9.193575036167061L57.47857142857142,9.622146464738488L57.47857142857142,10.878571428571426L58.09213924954722,10.878571428571426L58.73499639240437,11.521428571428569L60.23499639240437,11.521428571428569L60.44928210669008,11.735714285714284L60.66356782097579,11.735714285714284L60.87785353526151,11.95L61.5,11.95L61.5,12.05L60.8364321790242,12.05L60.622146464738485,11.835714285714285L60.40786075045277,11.835714285714285L60.19357503616706,11.62142857142857L58.69357503616706,11.62142857142857L58.050717893309915,10.978571428571428L57.020710678118654,10.978571428571428L56.59213924954722,11.407142857142858L56.37785353526151,11.407142857142858L56.16356782097579,11.62142857142857L55.73499639240437,11.62142857142857L55.30642496383294,12.05L54,12.05L54,11.95L55.26500360759563,11.95L55.69357503616706,11.521428571428569L56.122146464738485,11.521428571428569L56.3364321790242,11.307142857142857L56.550717893309915,11.307142857142857L56.979289321881346,10.878571428571426z" stroke="none"/><path d="M16.907860750452773,8.307142857142857L19.05071789330992,6.164285714285715L20.12214646473849,6.164285714285715L20.336432179024204,5.95L21,5.95L21,6.05L20.37785353526151,6.05L20.163567820975796,6.264285714285714L19.092139249547227,6.264285714285714L16.764285714285716,8.592139249547223L16.764285714285716,9.020710678118654L16.55,9.23499639240437L16.55,10.5L16.45,10.5L16.45,9.193575036167061L16.664285714285715,8.979289321881346L16.664285714285715,8.550717893309915L16.80786075045277,8.407142857142858L15.877853535261512,8.407142857142858L15.663567820975796,8.62142857142857L15.449282106690081,8.62142857142857L15.23499639240437,8.835714285714285L14.377853535261512,8.835714285714285L14.163567820975796,9.05L13.5,9.05L13.5,8.95L14.122146464738488,8.95L14.336432179024204,8.735714285714284L15.193575036167061,8.735714285714284L15.407860750452773,8.521428571428569L15.622146464738488,8.521428571428569L15.836432179024204,8.307142857142857z" stroke="none"/><path d="M56.122146464738485,8.95L56.550717893309915,8.521428571428569L58.73499639240437,8.521428571428569L58.94928210669008,8.735714285714284L59.59213924954722,8.735714285714284L59.80642496383294,8.95L60,8.95L60,9.05L59.76500360759563,9.05L59.550717893309915,8.835714285714285L58.90786075045277,8.835714285714285L58.69357503616706,8.62142857142857L56.59213924954722,8.62142857142857L56.16356782097579,9.05L48.54928210669008,9.05L48.66356782097579,9.164285714285715L49.09213924954722,9.164285714285715L49.73499639240437,9.807142857142857L50.16356782097579,9.807142857142857L50.37785353526151,10.021428571428569L50.59213924954722,10.021428571428569L51.03535533905933,10.464644660940673L50.96464466094067,10.535355339059327L50.550717893309915,10.12142857142857L50.3364321790242,10.12142857142857L50.122146464738485,9.907142857142858L49.69357503616706,9.907142857142858L49.050717893309915,9.264285714285716L48.622146464738485,9.264285714285716L48.40786075045277,9.05L47.550717893309915,9.05L47.122146464738485,8.62142857142857L36.622146464738485,8.62142857142857L35.76500360759563,7.764285714285714L34.69357503616706,7.764285714285714L34.46464466094067,7.535355339059327L34.53535533905933,7.464644660940673L34.73499639240437,7.664285714285715L35.80642496383294,7.664285714285715L36.66356782097579,8.521428571428569L47.16356782097579,8.521428571428569L47.59213924954722,8.95z" stroke="none"/><path d="M75.59285714285714,8.092857142857142L75.59285714285714,7.907860750452773L76.26500360759562,7.235714285714286L79.09213924954722,7.235714285714286L79.30642496383294,7.45L79.73499639240437,7.45L80.1635678209758,7.878571428571428L83.37785353526151,7.878571428571428L84.02071067811865,8.521428571428569L84.23499639240437,8.521428571428569L84.6635678209758,8.95L84.87785353526151,8.95L85.94928210669008,10.021428571428569L86.1635678209758,10.021428571428569L86.37785353526151,10.235714285714284L86.80642496383294,10.235714285714284L87.03535533905931,10.464644660940673L86.96464466094066,10.535355339059327L86.76500360759562,10.335714285714285L86.33643217902419,10.335714285714285L86.12214646473848,10.12142857142857L85.90786075045276,10.12142857142857L84.83643217902419,9.05L84.62214646473848,9.05L84.19357503616705,8.62142857142857L83.97928932188132,8.62142857142857L83.33643217902419,7.978571428571428L80.12214646473848,7.978571428571428L79.69357503616705,7.55L79.26500360759562,7.55L79.0507178933099,7.335714285714285L76.30642496383294,7.335714285714285L75.69285714285714,7.949282106690083L75.69285714285714,8.092857142857142L75.83643217902419,8.092857142857142L76.46464466094066,7.464644660940673L76.53535533905931,7.535355339059327L75.87785353526151,8.192857142857143L75.69285714285714,8.192857142857143L75.69285714285714,8.336432179024204L76.30642496383294,8.95L76.49999999999999,8.95L76.49999999999999,9.05L76.26500360759562,9.05L75.59285714285714,8.377853535261512L75.59285714285714,8.192857142857143L69.83643217902419,8.192857142857143L69.62214646473848,7.978571428571428L68.5507178933099,7.978571428571428L67.69357503616705,7.121428571428571L67.47928932188132,7.121428571428571L66.19357503616705,5.835714285714285L65.12214646473848,5.835714285714285L64.90786075045276,5.621428571428571L64.09213924954723,5.621428571428571L63.87785353526151,5.835714285714285L63.44928210669008,5.835714285714285L63.23499639240437,6.05L63,6.05L63,5.95L63.19357503616706,5.95L63.40786075045277,5.735714285714286L63.8364321790242,5.735714285714286L64.05071789330991,5.521428571428571L64.94928210669008,5.521428571428571L65.1635678209758,5.735714285714286L66.23499639240437,5.735714285714286L67.52071067811865,7.021428571428571L67.73499639240437,7.021428571428571L68.59213924954722,7.878571428571428L69.6635678209758,7.878571428571428L69.87785353526151,8.092857142857142z" stroke="none"/><path d="M34.66428571428572,9.592857142857142L34.66428571428572,9.449282106690081L34.479289321881346,9.264285714285716L34.050717893309915,9.264285714285716L33.40786075045278,8.62142857142857L29.979289321881346,8.62142857142857L28.907860750452773,7.55L28.5,7.55L28.5,7.45L28.94928210669008,7.45L30.020710678118654,8.521428571428569L33.449282106690085,8.521428571428569L34.09213924954722,9.164285714285715L34.520710678118654,9.164285714285715L34.76428571428571,9.407860750452773L34.76428571428571,9.592857142857142L34.949282106690085,9.592857142857142L35.80642496383294,10.45L36,10.45L36,10.55L35.76500360759563,10.55L34.90786075045278,9.692857142857143L34.76428571428571,9.692857142857143L34.76428571428571,9.836432179024204L35.59213924954722,10.664285714285715L36.87785353526151,10.664285714285715L37.09213924954722,10.878571428571426L42.23499639240437,10.878571428571426L42.449282106690085,11.092857142857142L43.30642496383294,11.092857142857142L43.520710678118654,11.307142857142857L43.73499639240437,11.307142857142857L43.949282106690085,11.521428571428569L45.87785353526151,11.521428571428569L46.30642496383294,11.95L46.5,11.95L46.5,12.05L46.26500360759563,12.05L45.8364321790242,11.62142857142857L43.90786075045278,11.62142857142857L43.69357503616706,11.407142857142858L43.479289321881346,11.407142857142858L43.26500360759563,11.192857142857143L42.40786075045278,11.192857142857143L42.19357503616706,10.978571428571428L37.050717893309915,10.978571428571428L36.8364321790242,10.764285714285716L35.550717893309915,10.764285714285716L34.66428571428572,9.877853535261512L34.66428571428572,9.692857142857143L30.19357503616706,9.692857142857143L29.76500360759563,9.264285714285716L29.550717893309915,9.264285714285716L29.336432179024204,9.05L28.5,9.05L28.5,8.95L29.37785353526151,8.95L29.592139249547223,9.164285714285715L29.80642496383294,9.164285714285715L30.23499639240437,9.592857142857142z" stroke="none"/><path d="M26.979289321881346,5.521428571428571L27.836432179024204,4.664285714285715L28.050717893309915,4.664285714285715L28.26500360759563,4.45L28.5,4.45L28.5,4.55L28.30642496383294,4.55L28.092139249547223,4.764285714285714L27.87785353526151,4.764285714285714L27.120710678118655,5.521428571428571L27.62214646473849,5.521428571428571L28.26500360759563,4.878571428571429L30.836432179024204,4.878571428571429L31.26500360759563,4.45L31.5,4.45L31.5,4.55L31.30642496383294,4.55L30.87785353526151,4.978571428571429L28.30642496383294,4.978571428571429L27.663567820975796,5.621428571428571L27.05,5.621428571428571L27.05,7.265003607595631L27.264285714285716,7.479289321881345L27.264285714285716,8.122146464738488L27.478571428571428,8.336432179024204L27.478571428571428,9.449282106690081L27.23499639240437,9.692857142857143L25.479289321881346,9.692857142857143L25.050717893309915,9.264285714285716L24.836432179024204,9.264285714285716L23.550717893309915,7.978571428571428L23.336432179024204,7.978571428571428L23.12214646473849,7.764285714285714L22.69357503616706,7.764285714285714L22.46464466094067,7.535355339059327L22.53535533905933,7.464644660940673L22.73499639240437,7.664285714285715L23.163567820975796,7.664285714285715L23.37785353526151,7.878571428571428L23.592139249547223,7.878571428571428L24.87785353526151,9.164285714285715L25.092139249547223,9.164285714285715L25.520710678118654,9.592857142857142L27.19357503616706,9.592857142857142L27.378571428571426,9.407860750452773L27.378571428571426,8.377853535261512L27.164285714285715,8.163567820975796L27.164285714285715,7.520710678118655L26.95,7.30642496383294L26.95,5.621428571428571L26.80642496383294,5.621428571428571L26.592139249547223,5.835714285714285L26.163567820975796,5.835714285714285L25.94928210669008,6.05L25.5,6.05L25.5,5.95L25.907860750452773,5.95L26.12214646473849,5.735714285714286L26.550717893309915,5.735714285714286L26.76500360759563,5.521428571428571z" stroke="none"/><path d="M68.59213924954722,8.95L74.80642496383294,8.95L75.02071067811865,9.164285714285715L75.87785353526151,9.164285714285715L76.09213924954722,9.378571428571426L84.02071067811865,9.378571428571426L84.23499639240437,9.592857142857142L84.6635678209758,9.592857142857142L85.52071067811865,10.45L85.73499639240437,10.45L86.1635678209758,10.878571428571426L87.40786075045276,10.878571428571426L89.12214646473848,9.164285714285715L89.5507178933099,9.164285714285715L89.76500360759562,8.95L89.99999999999999,8.95L89.99999999999999,9.05L89.80642496383294,9.05L89.59213924954722,9.264285714285716L89.1635678209758,9.264285714285716L87.44928210669008,10.978571428571428L86.12214646473848,10.978571428571428L85.69357503616705,10.55L85.47928932188132,10.55L84.62214646473848,9.692857142857143L84.19357503616705,9.692857142857143L83.97928932188132,9.478571428571428L76.0507178933099,9.478571428571428L75.83643217902419,9.264285714285716L74.97928932188132,9.264285714285716L74.76500360759562,9.05L68.69213924954721,9.05L69.6635678209758,10.021428571428569L69.87785353526151,10.021428571428569L70.30642496383294,10.45L70.49999999999999,10.45L70.49999999999999,10.55L70.26500360759562,10.55L69.83643217902419,10.12142857142857L69.62214646473848,10.12142857142857L68.57142857142856,9.070710678118655L67.52071067811865,10.12142857142857L67.30642496383294,10.12142857142857L67.09213924954722,10.335714285714285L66.87785353526151,10.335714285714285L66.44928210669008,10.764285714285716L64.52071067811865,10.764285714285716L64.30642496383294,10.978571428571428L64.09213924954723,10.978571428571428L63.66356782097579,11.407142857142858L63.44928210669008,11.407142857142858L63.23499639240437,11.62142857142857L63.020710678118654,11.62142857142857L62.37785353526151,12.264285714285716L62.16356782097579,12.264285714285716L61.94928210669008,12.478571428571428L52.69357503616706,12.478571428571428L52.050717893309915,11.835714285714285L51.622146464738485,11.835714285714285L51.40786075045277,11.62142857142857L51.19357503616706,11.62142857142857L50.550717893309915,10.978571428571428L50.122146464738485,10.978571428571428L49.90786075045277,10.764285714285716L49.69357503616706,10.764285714285716L49.46464466094067,10.535355339059327L49.53535533905933,10.464644660940673L49.73499639240437,10.664285714285715L49.94928210669008,10.664285714285715L50.16356782097579,10.878571428571426L50.59213924954722,10.878571428571426L51.23499639240437,11.521428571428569L51.44928210669008,11.521428571428569L51.66356782097579,11.735714285714284L52.09213924954722,11.735714285714284L52.73499639240437,12.378571428571426L61.90786075045277,12.378571428571426L62.122146464738485,12.164285714285715L62.3364321790242,12.164285714285715L62.979289321881346,11.521428571428569L63.19357503616706,11.521428571428569L63.40786075045277,11.307142857142857L63.622146464738485,11.307142857142857L64.05071789330991,10.878571428571426L64.26500360759562,10.878571428571426L64.47928932188132,10.664285714285715L66.40786075045276,10.664285714285715L66.83643217902419,10.235714285714284L67.0507178933099,10.235714285714284L67.26500360759562,10.021428571428569L67.47928932188132,10.021428571428569L68.5007178933099,9L65.97928932188132,6.478571428571428L65.76500360759562,6.478571428571428L65.5507178933099,6.264285714285714L65.12214646473848,6.264285714285714L64.90786075045276,6.05L64.49999999999999,6.05L64.49999999999999,5.95L64.94928210669008,5.95L65.1635678209758,6.164285714285715L65.59213924954722,6.164285714285715L65.80642496383294,6.378571428571428L66.02071067811865,6.378571428571428z" stroke="none"/><path d="M54.59285714285714,7.021428571428571L54.59285714285714,6.836432179024202L54.8364321790242,6.5928571428571425L55.90786075045277,6.5928571428571425L56.122146464738485,6.378571428571428L61.050717893309915,6.378571428571428L62.3364321790242,5.0928571428571425L68.37785353526151,5.0928571428571425L68.80642496383294,5.521428571428571L69.02071067811865,5.521428571428571L69.6635678209758,6.164285714285715L69.87785353526151,6.164285714285715L70.30642496383294,6.5928571428571425L71.37785353526151,6.5928571428571425L71.80642496383294,7.021428571428571L72.6635678209758,7.021428571428571L72.87785353526151,7.235714285714286L73.09213924954722,7.235714285714286L73.30642496383294,7.45L73.49999999999999,7.45L73.49999999999999,7.55L73.26500360759562,7.55L73.0507178933099,7.335714285714285L72.83643217902419,7.335714285714285L72.62214646473848,7.121428571428571L71.76500360759562,7.121428571428571L71.33643217902419,6.692857142857142L70.26500360759562,6.692857142857142L69.83643217902419,6.264285714285714L69.62214646473848,6.264285714285714L68.97928932188132,5.621428571428571L68.76500360759562,5.621428571428571L68.33643217902419,5.192857142857142L62.37785353526151,5.192857142857142L61.09213924954722,6.478571428571428L56.16356782097579,6.478571428571428L55.94928210669008,6.692857142857142L54.87785353526151,6.692857142857142L54.692857142857136,6.8778535352615116L54.692857142857136,7.021428571428571L60.622146464738485,7.021428571428571L60.8364321790242,6.807142857142857L61.050717893309915,6.807142857142857L62.122146464738485,5.735714285714286L62.3364321790242,5.735714285714286L62.550717893309915,5.521428571428571L63.19357503616706,5.521428571428571L63.40786075045277,5.307142857142857L68.1635678209758,5.307142857142857L68.59213924954722,5.735714285714286L68.80642496383294,5.735714285714286L69.03535533905931,5.964644660940673L68.96464466094066,6.035355339059327L68.76500360759562,5.835714285714285L68.5507178933099,5.835714285714285L68.12214646473848,5.407142857142857L63.44928210669008,5.407142857142857L63.23499639240437,5.621428571428571L62.59213924954722,5.621428571428571L62.37785353526151,5.835714285714285L62.16356782097579,5.835714285714285L61.09213924954722,6.907142857142857L60.87785353526151,6.907142857142857L60.66356782097579,7.121428571428571L54.692857142857136,7.121428571428571L54.692857142857136,7.734996392404369L54.44928210669008,7.978571428571428L36.40786075045278,7.978571428571428L35.979289321881346,7.55L35.550717893309915,7.55L35.3364321790242,7.335714285714285L35.122146464738485,7.335714285714285L34.90786075045278,7.121428571428571L28.907860750452773,7.121428571428571L28.69357503616706,6.907142857142857L28.30642496383294,6.907142857142857L28.12142857142857,7.092139249547226L28.12142857142857,7.907860750452773L28.30642496383294,8.092857142857142L28.520710678118654,8.092857142857142L28.94928210669008,8.521428571428569L29.592139249547223,8.521428571428569L29.80642496383294,8.735714285714284L32.37785353526151,8.735714285714284L32.59213924954722,8.95L33,8.95L33,9.05L32.550717893309915,9.05L32.3364321790242,8.835714285714285L29.76500360759563,8.835714285714285L29.550717893309915,8.62142857142857L28.907860750452773,8.62142857142857L28.479289321881346,8.192857142857143L28.26500360759563,8.192857142857143L28.02142857142857,7.949282106690083L28.02142857142857,7.050717893309916L28.26500360759563,6.807142857142857L28.73499639240437,6.807142857142857L28.94928210669008,7.021428571428571L34.949282106690085,7.021428571428571L35.16356782097579,7.235714285714286L35.37785353526151,7.235714285714286L35.59213924954722,7.45L36.020710678118654,7.45L36.449282106690085,7.878571428571428L54.40786075045277,7.878571428571428L54.59285714285714,7.69357503616706L54.59285714285714,7.121428571428571L46.050717893309915,7.121428571428571L45.19357503616706,6.264285714285714L43.69357503616706,6.264285714285714L43.46464466094067,6.035355339059327L43.53535533905933,5.964644660940673L43.73499639240437,6.164285714285715L45.23499639240437,6.164285714285715L46.09213924954722,7.021428571428571z" stroke="none"/><path d="M30.03535533905933,11.964644660940673L29.96464466094067,12.035355339059327L28.46464466094067,10.535355339059327L28.53535533905933,10.464644660940673z" stroke="none"/><path d="M86.99999999999999,3.05L86.99999999999999,2.95L87.44928210669008,2.95L87.6635678209758,3.1642857142857146L87.87785353526151,3.1642857142857146L88.30642496383294,3.592857142857143L88.73499639240437,3.592857142857143L89.37785353526151,4.235714285714286L89.80642496383294,4.235714285714286L90.03535533905931,4.464644660940673L89.96464466094066,4.535355339059327L89.76500360759562,4.335714285714285L89.33643217902419,4.335714285714285L88.69357503616705,3.6928571428571426L88.26500360759562,3.6928571428571426L87.83643217902419,3.2642857142857142L87.62214646473848,3.2642857142857142L87.40786075045276,3.05z" stroke="none"/><path d="M13.535355339059327,10.464644660940673L13.464644660940673,10.535355339059327L13.235714285714284,10.306424963832939L13.235714285714284,9.877853535261512L12.807142857142857,9.449282106690081L12.807142857142857,9.23499639240437L12.378571428571426,8.806424963832939L12.378571428571426,8.377853535261512L12.164285714285715,8.163567820975796L12.164285714285715,7.734996392404369L11.964644660940673,7.535355339059327L12.035355339059327,7.464644660940673L12.264285714285716,7.69357503616706L12.264285714285716,8.122146464738488L12.478571428571428,8.336432179024204L12.478571428571428,8.76500360759563L12.907142857142858,9.193575036167061L12.907142857142858,9.407860750452773L13.335714285714285,9.836432179024204L13.335714285714285,10.26500360759563z" stroke="none"/><path d="M3,9.05L3,8.95L3.449282106690083,8.95L3.877853535261512,9.378571428571426L5.765003607595631,9.378571428571426L6.19357503616706,8.95L7.5,8.95L7.5,9.05L6.234996392404369,9.05L5.80642496383294,9.478571428571428L3.8364321790242024,9.478571428571428L3.4078607504527736,9.05z" stroke="none"/><path d="M16.5,11.95L16.5,12.05L15.407860750452773,12.05L14.979289321881346,11.62142857142857L14.122146464738488,11.62142857142857L13.693575036167061,11.192857142857143L13.479289321881346,11.192857142857143L13.26500360759563,10.978571428571428L13.050717893309915,10.978571428571428L12.807142857142857,10.73499639240437L12.807142857142857,10.306424963832939L12.592857142857142,10.092139249547223L12.592857142857142,9.449282106690081L12.164285714285715,9.020710678118654L12.164285714285715,8.592139249547223L11.521428571428569,7.949282106690083L11.521428571428569,7.050717893309916L11.76500360759563,6.807142857142857L12.23499639240437,6.807142857142857L12.663567820975796,7.235714285714286L13.306424963832939,7.235714285714286L13.535355339059327,7.464644660940673L13.464644660940673,7.535355339059327L13.26500360759563,7.335714285714285L12.622146464738488,7.335714285714285L12.193575036167061,6.907142857142857L11.806424963832939,6.907142857142857L11.62142857142857,7.092139249547226L11.62142857142857,7.907860750452773L12.264285714285716,8.550717893309915L12.264285714285716,8.979289321881346L12.692857142857143,9.407860750452773L12.692857142857143,10.050717893309915L12.907142857142858,10.26500360759563L12.907142857142858,10.693575036167061L13.092139249547223,10.878571428571426L13.306424963832939,10.878571428571426L13.520710678118654,11.092857142857142L13.73499639240437,11.092857142857142L14.163567820975796,11.521428571428569L15.020710678118654,11.521428571428569L15.449282106690081,11.95z" stroke="none"/><path d="M34.5,12.05L34.5,11.95L37.26500360759563,11.95L37.69357503616706,11.521428571428569L39.449282106690085,11.521428571428569L39.66356782097579,11.735714285714284L40.09213924954722,11.735714285714284L40.30642496383294,11.95L40.5,11.95L40.5,12.05L40.26500360759563,12.05L40.050717893309915,11.835714285714285L39.622146464738485,11.835714285714285L39.40786075045278,11.62142857142857L37.73499639240437,11.62142857142857L37.30642496383294,12.05z" stroke="none"/><path d="M22.46464466094067,8.964644660940673L22.53535533905933,9.035355339059327L21.020710678118654,10.55L19.73499639240437,10.55L19.092139249547227,11.192857142857143L18.87785353526151,11.192857142857143L18.020710678118654,12.05L17.37785353526151,12.05L16.94928210669008,12.478571428571428L14.76500360759563,12.478571428571428L14.550717893309915,12.264285714285716L14.336432179024204,12.264285714285716L13.479289321881346,11.407142857142858L13.050717893309915,11.407142857142858L11.95,10.306424963832939L11.95,10.092139249547223L11.735714285714284,9.877853535261512L11.735714285714284,9.449282106690081L11.521428571428569,9.23499639240437L11.521428571428569,9.020710678118654L11.307142857142857,8.806424963832939L11.307142857142857,6.836432179024202L11.550717893309915,6.5928571428571425L15.407860750452773,6.5928571428571425L15.836432179024204,6.164285714285715L16.050717893309915,6.164285714285715L16.26500360759563,5.95L16.5,5.95L16.5,6.05L16.30642496383294,6.05L16.092139249547223,6.264285714285714L15.877853535261512,6.264285714285714L15.449282106690081,6.692857142857142L11.592139249547223,6.692857142857142L11.407142857142858,6.8778535352615116L11.407142857142858,8.76500360759563L11.62142857142857,8.979289321881346L11.62142857142857,9.193575036167061L11.835714285714285,9.407860750452773L11.835714285714285,9.836432179024204L12.05,10.050717893309915L12.05,10.26500360759563L13.092139249547223,11.307142857142857L13.520710678118654,11.307142857142857L14.377853535261512,12.164285714285715L14.592139249547223,12.164285714285715L14.806424963832939,12.378571428571426L16.907860750452773,12.378571428571426L17.336432179024204,11.95L17.979289321881346,11.95L18.836432179024204,11.092857142857142L19.05071789330992,11.092857142857142L19.69357503616706,10.45L20.979289321881346,10.45z" stroke="none"/><path d="M60,2.95L60,3.05L49.94928210669008,3.05L49.73499639240437,3.2642857142857142L49.520710678118654,3.2642857142857142L48.87785353526151,3.907142857142857L48.44928210669008,3.907142857142857L48.23499639240437,4.121428571428571L47.80642496383294,4.121428571428571L47.59213924954722,4.335714285714285L46.73499639240437,4.335714285714285L46.520710678118654,4.55L46.30642496383294,4.55L46.09213924954722,4.764285714285714L44.59213924954722,4.764285714285714L44.37785353526151,4.978571428571429L44.16356782097579,4.978571428571429L43.949282106690085,5.192857142857142L43.520710678118654,5.192857142857142L43.12142857142857,5.592139249547226L43.12142857142857,6.407860750452773L43.30642496383294,6.5928571428571425L45.020710678118654,6.5928571428571425L45.449282106690085,7.021428571428571L45.66356782097579,7.021428571428571L45.87785353526151,7.235714285714286L52.94928210669008,7.235714285714286L53.16356782097579,7.45L54,7.45L54,7.55L53.122146464738485,7.55L52.90786075045277,7.335714285714285L45.8364321790242,7.335714285714285L45.622146464738485,7.121428571428571L45.40786075045278,7.121428571428571L44.979289321881346,6.692857142857142L43.26500360759563,6.692857142857142L43.02142857142857,6.449282106690083L43.02142857142857,5.550717893309916L43.479289321881346,5.0928571428571425L43.90786075045278,5.0928571428571425L44.122146464738485,4.878571428571429L44.3364321790242,4.878571428571429L44.550717893309915,4.664285714285715L46.050717893309915,4.664285714285715L46.26500360759563,4.45L46.479289321881346,4.45L46.69357503616706,4.235714285714286L47.550717893309915,4.235714285714286L47.76500360759563,4.021428571428571L48.19357503616706,4.021428571428571L48.40786075045277,3.8071428571428574L48.8364321790242,3.8071428571428574L49.479289321881346,3.1642857142857146L49.69357503616706,3.1642857142857146L49.90786075045277,2.95z" stroke="none"/><path d="M40.5,7.45L40.5,7.55L37.479289321881346,7.55L37.26500360759563,7.335714285714285L35.76500360759563,7.335714285714285L35.550717893309915,7.121428571428571L35.3364321790242,7.121428571428571L35.122146464738485,6.907142857142857L34.26500360759563,6.907142857142857L33.622146464738485,6.264285714285714L33.19357503616706,6.264285714285714L32.96464466094067,6.035355339059327L33.03535533905933,5.964644660940673L33.23499639240437,6.164285714285715L33.66356782097579,6.164285714285715L34.30642496383294,6.807142857142857L35.16356782097579,6.807142857142857L35.37785353526151,7.021428571428571L35.59213924954722,7.021428571428571L35.80642496383294,7.235714285714286L37.30642496383294,7.235714285714286L37.520710678118654,7.45z" stroke="none"/><path d="M63,3.05L63,2.95L63.23499639240437,2.95L63.44928210669008,3.1642857142857146L63.87785353526151,3.1642857142857146L64.09213924954723,3.3785714285714286L67.30642496383294,3.3785714285714286L67.73499639240437,3.8071428571428574L69.02071067811865,3.8071428571428574L69.23499639240437,4.021428571428571L69.44928210669008,4.021428571428571L69.6635678209758,4.235714285714286L70.30642496383294,4.235714285714286L70.53535533905931,4.464644660940673L70.46464466094066,4.535355339059327L70.26500360759562,4.335714285714285L69.62214646473848,4.335714285714285L69.40786075045276,4.121428571428571L69.19357503616705,4.121428571428571L68.97928932188132,3.907142857142857L67.69357503616705,3.907142857142857L67.26500360759562,3.478571428571428L64.05071789330991,3.478571428571428L63.8364321790242,3.2642857142857142L63.40786075045277,3.2642857142857142L63.19357503616706,3.05z" stroke="none"/><path d="M49.5,6.05L49.5,5.95L53.122146464738485,5.95L53.76500360759563,5.307142857142857L53.979289321881346,5.307142857142857L54.19357503616706,5.0928571428571425L55.90786075045277,5.0928571428571425L56.122146464738485,4.878571428571429L56.3364321790242,4.878571428571429L56.550717893309915,4.664285714285715L56.76500360759563,4.664285714285715L56.96464466094067,4.464644660940673L57.03535533905933,4.535355339059327L56.80642496383294,4.764285714285714L56.59213924954722,4.764285714285714L56.37785353526151,4.978571428571429L56.16356782097579,4.978571428571429L55.94928210669008,5.192857142857142L54.23499639240437,5.192857142857142L54.020710678118654,5.407142857142857L53.80642496383294,5.407142857142857L53.16356782097579,6.05z" stroke="none"/><path d="M77.96464466094066,4.535355339059327L78.03535533905931,4.464644660940673L78.44928210669008,4.878571428571429L78.87785353526151,4.878571428571429L79.30642496383294,5.307142857142857L79.52071067811865,5.307142857142857L79.73499639240437,5.521428571428571L80.37785353526151,5.521428571428571L80.59213924954722,5.735714285714286L83.1635678209758,5.735714285714286L84.6635678209758,7.235714285714286L85.30642496383294,7.235714285714286L85.53535533905931,7.464644660940673L85.46464466094066,7.535355339059327L85.26500360759562,7.335714285714285L84.62214646473848,7.335714285714285L83.12214646473848,5.835714285714285L80.5507178933099,5.835714285714285L80.33643217902419,5.621428571428571L79.69357503616705,5.621428571428571L79.47928932188132,5.407142857142857L79.26500360759562,5.407142857142857L78.83643217902419,4.978571428571429L78.40786075045276,4.978571428571429z" stroke="none"/><path d="M12,4.45L12,4.55L7.050717893309916,4.55L6.622146464738488,4.121428571428571L5.592139249547226,4.121428571428571L5.407142857142857,4.30642496383294L5.407142857142857,4.69357503616706L9.877853535261512,9.164285714285715L10.092139249547223,9.164285714285715L12.449282106690081,11.521428571428569L12.877853535261512,11.521428571428569L13.306424963832939,11.95L13.520710678118654,11.95L13.949282106690081,12.378571428571426L14.377853535261512,12.378571428571426L14.592139249547223,12.592857142857142L17.12214646473849,12.592857142857142L17.336432179024204,12.378571428571426L17.979289321881346,12.378571428571426L19.05071789330992,11.307142857142857L19.26500360759563,11.307142857142857L19.479289321881346,11.092857142857142L20.76500360759563,11.092857142857142L21.407860750452773,10.45L21.836432179024204,10.45L22.878571428571426,9.407860750452773L22.878571428571426,8.592139249547223L22.69357503616706,8.407142857142858L21.663567820975796,8.407142857142858L21.44928210669008,8.62142857142857L20.80642496383294,8.62142857142857L20.592139249547227,8.835714285714285L19.94928210669008,8.835714285714285L19.73499639240437,9.05L19.5,9.05L19.5,8.95L19.69357503616706,8.95L19.907860750452773,8.735714285714284L20.55071789330992,8.735714285714284L20.76500360759563,8.521428571428569L21.407860750452773,8.521428571428569L21.62214646473849,8.307142857142857L22.73499639240437,8.307142857142857L22.978571428571428,8.550717893309915L22.978571428571428,9.449282106690081L21.87785353526151,10.55L21.44928210669008,10.55L20.80642496383294,11.192857142857143L19.520710678118654,11.192857142857143L19.30642496383294,11.407142857142858L19.092139249547227,11.407142857142858L18.020710678118654,12.478571428571428L17.37785353526151,12.478571428571428L17.163567820975796,12.692857142857143L14.550717893309915,12.692857142857143L14.336432179024204,12.478571428571428L13.907860750452773,12.478571428571428L13.479289321881346,12.05L13.26500360759563,12.05L12.836432179024204,11.62142857142857L12.407860750452773,11.62142857142857L10.050717893309915,9.264285714285716L9.836432179024204,9.264285714285716L5.307142857142857,4.734996392404369L5.307142857142857,4.265003607595631L5.550717893309916,4.021428571428571L6.663567820975797,4.021428571428571L7.092139249547226,4.45z" stroke="none"/><path d="M95.99999999999999,7.45L95.99999999999999,7.55L86.99999999999999,7.55L86.99999999999999,7.45z" stroke="none"/><path d="M37.5,10.55L37.5,10.45L44.122146464738485,10.45L44.550717893309915,10.021428571428569L44.76500360759563,10.021428571428569L44.979289321881346,9.807142857142857L45.19357503616706,9.807142857142857L45.8364321790242,9.164285714285715L46.26500360759563,9.164285714285715L46.46464466094067,8.964644660940673L46.53535533905933,9.035355339059327L46.30642496383294,9.264285714285716L45.87785353526151,9.264285714285716L45.23499639240437,9.907142857142858L45.020710678118654,9.907142857142858L44.80642496383294,10.12142857142857L44.59213924954722,10.12142857142857L44.16356782097579,10.55z" stroke="none"/><path d="M27.03535533905933,4.535355339059327L26.96464466094067,4.464644660940673L27.19357503616706,4.235714285714286L27.407860750452773,4.235714285714286L27.62214646473849,4.021428571428571L31.94928210669008,4.021428571428571L32.192857142857136,4.265003607595631L32.192857142857136,4.734996392404369L31.94928210669008,4.978571428571429L31.520710678118654,4.978571428571429L31.30642496383294,5.192857142857142L31.092139249547223,5.192857142857142L30.663567820975796,5.621428571428571L30.23499639240437,5.621428571428571L29.80642496383294,6.05L29.163567820975796,6.05L28.94928210669008,6.264285714285714L28.73499639240437,6.264285714285714L28.30642496383294,6.692857142857142L28.092139249547223,6.692857142857142L27.90714285714286,6.8778535352615116L27.90714285714286,9.23499639240437L27.692857142857143,9.449282106690081L27.692857142857143,9.663567820975796L27.44928210669008,9.907142857142858L25.050717893309915,9.907142857142858L23.76500360759563,8.62142857142857L23.550717893309915,8.62142857142857L23.336432179024204,8.407142857142858L23.12214646473849,8.407142857142858L22.907860750452773,8.192857142857143L19.520710678118654,8.192857142857143L19.092139249547227,8.62142857142857L18.87785353526151,8.62142857142857L18.663567820975796,8.835714285714285L18.44928210669008,8.835714285714285L18.23499639240437,9.05L18,9.05L18,8.95L18.19357503616706,8.95L18.407860750452773,8.735714285714284L18.62214646473849,8.735714285714284L18.836432179024204,8.521428571428569L19.05071789330992,8.521428571428569L19.479289321881346,8.092857142857142L22.94928210669008,8.092857142857142L23.163567820975796,8.307142857142857L23.37785353526151,8.307142857142857L23.592139249547223,8.521428571428569L23.80642496383294,8.521428571428569L25.092139249547223,9.807142857142857L27.407860750452773,9.807142857142857L27.59285714285714,9.622146464738488L27.59285714285714,9.407860750452773L27.807142857142857,9.193575036167061L27.807142857142857,6.836432179024202L28.050717893309915,6.5928571428571425L28.26500360759563,6.5928571428571425L28.69357503616706,6.164285714285715L28.907860750452773,6.164285714285715L29.12214646473849,5.95L29.76500360759563,5.95L30.19357503616706,5.521428571428571L30.62214646473849,5.521428571428571L31.050717893309915,5.0928571428571425L31.26500360759563,5.0928571428571425L31.479289321881346,4.878571428571429L31.907860750452773,4.878571428571429L32.09285714285714,4.69357503616706L32.09285714285714,4.30642496383294L31.907860750452773,4.121428571428571L27.663567820975796,4.121428571428571L27.44928210669008,4.335714285714285L27.23499639240437,4.335714285714285z" stroke="none"/><path d="M98.99999999999999,4.45L98.99999999999999,4.55L93.02071067811865,4.55L92.80642496383294,4.764285714285714L92.16356782097579,4.764285714285714L91.94928210669008,4.978571428571429L89.5507178933099,4.978571428571429L89.33643217902419,4.764285714285714L88.69357503616705,4.764285714285714L88.46464466094066,4.535355339059327L88.53535533905931,4.464644660940673L88.73499639240437,4.664285714285715L89.37785353526151,4.664285714285715L89.59213924954722,4.878571428571429L91.90786075045276,4.878571428571429L92.12214646473846,4.664285714285715L92.76500360759562,4.664285714285715L92.97928932188132,4.45z" stroke="none"/><path d="M64.49999999999999,4.45L64.49999999999999,4.55L57.87785353526151,4.55L57.44928210669008,4.978571428571429L56.80642496383294,4.978571428571429L56.59213924954722,5.192857142857142L56.37785353526151,5.192857142857142L56.16356782097579,5.407142857142857L54.87785353526151,5.407142857142857L54.44928210669008,5.835714285714285L54.23499639240437,5.835714285714285L54.03535533905933,6.035355339059327L53.96464466094067,5.964644660940673L54.19357503616706,5.735714285714286L54.40786075045277,5.735714285714286L54.8364321790242,5.307142857142857L56.122146464738485,5.307142857142857L56.3364321790242,5.0928571428571425L56.550717893309915,5.0928571428571425L56.76500360759563,4.878571428571429L57.40786075045277,4.878571428571429L57.8364321790242,4.45z" stroke="none"/><path d="M100.49999999999999,8.95L100.49999999999999,9.05L94.73499639240437,9.05L94.52071067811865,9.264285714285716L93.66356782097579,9.264285714285716L92.80642496383294,10.12142857142857L92.59213924954722,10.12142857142857L91.09213924954722,11.62142857142857L90.87785353526151,11.62142857142857L90.6635678209758,11.835714285714285L90.23499639240437,11.835714285714285L90.03535533905931,12.035355339059327L89.96464466094066,11.964644660940673L90.19357503616705,11.735714285714284L90.62214646473848,11.735714285714284L90.83643217902419,11.521428571428569L91.0507178933099,11.521428571428569L92.5507178933099,10.021428571428569L92.76500360759562,10.021428571428569L93.62214646473846,9.164285714285715L94.47928932188132,9.164285714285715L94.69357503616705,8.95z" stroke="none"/><path d="M37.5,4.55L37.5,4.45L45.8364321790242,4.45L46.26500360759563,4.021428571428571L46.69357503616706,4.021428571428571L46.90786075045277,3.8071428571428574L47.3364321790242,3.8071428571428574L47.550717893309915,3.592857142857143L48.40786075045277,3.592857142857143L48.8364321790242,3.1642857142857146L49.050717893309915,3.1642857142857146L49.26500360759563,2.95L49.479289321881346,2.95L49.69357503616706,2.7357142857142858L58.69357503616706,2.7357142857142858L58.90786075045277,2.521428571428572L60.44928210669008,2.521428571428572L60.692857142857136,2.765003607595631L60.692857142857136,3.234996392404369L60.44928210669008,3.478571428571428L59.37785353526151,3.478571428571428L59.16356782097579,3.6928571428571426L58.94928210669008,3.6928571428571426L58.520710678118654,4.121428571428571L50.16356782097579,4.121428571428571L49.73499639240437,4.55L49.5,4.55L49.5,4.45L49.69357503616706,4.45L50.122146464738485,4.021428571428571L58.479289321881346,4.021428571428571L58.90786075045277,3.592857142857143L59.122146464738485,3.592857142857143L59.3364321790242,3.3785714285714286L60.40786075045277,3.3785714285714286L60.59285714285714,3.1935750361670596L60.59285714285714,2.8064249638329404L60.40786075045277,2.6214285714285714L58.94928210669008,2.6214285714285714L58.73499639240437,2.8357142857142854L49.73499639240437,2.8357142857142854L49.520710678118654,3.05L49.30642496383294,3.05L49.09213924954722,3.2642857142857142L48.87785353526151,3.2642857142857142L48.44928210669008,3.6928571428571426L47.59213924954722,3.6928571428571426L47.37785353526151,3.907142857142857L46.94928210669008,3.907142857142857L46.73499639240437,4.121428571428571L46.30642496383294,4.121428571428571L45.87785353526151,4.55z" stroke="none"/><path d="M24,4.45L24,4.55L17.336432179024204,4.55L16.907860750452773,4.121428571428571L13.26500360759563,4.121428571428571L12.193575036167061,3.05L12,3.05L12,2.95L12.23499639240437,2.95L13.306424963832939,4.021428571428571L16.94928210669008,4.021428571428571L17.37785353526151,4.45z" stroke="none"/><path d="M85.49999999999999,12.05L85.49999999999999,11.95L86.12214646473848,11.95L86.5507178933099,11.521428571428569L87.19357503616705,11.521428571428569L87.62214646473848,11.092857142857142L88.26500360759562,11.092857142857142L88.69357503616705,10.664285714285715L88.90786075045276,10.664285714285715L89.12214646473848,10.45L89.33643217902419,10.45L89.5507178933099,10.235714285714284L90.19357503616705,10.235714285714284L90.40786075045276,10.021428571428569L91.0507178933099,10.021428571428569L91.26500360759562,9.807142857142857L91.69357503616705,9.807142857142857L92.33643217902419,9.164285714285715L92.5507178933099,9.164285714285715L92.76500360759562,8.95L94.0507178933099,8.95L94.26500360759562,8.735714285714284L95.5507178933099,8.735714285714284L96.62214646473846,7.664285714285715L97.26500360759562,7.664285714285715L97.46464466094066,7.464644660940673L97.53535533905931,7.535355339059327L97.30642496383294,7.764285714285714L96.66356782097579,7.764285714285714L95.59213924954722,8.835714285714285L94.30642496383294,8.835714285714285L94.09213924954722,9.05L92.80642496383294,9.05L92.59213924954722,9.264285714285716L92.37785353526151,9.264285714285716L91.73499639240437,9.907142857142858L91.30642496383294,9.907142857142858L91.09213924954722,10.12142857142857L90.44928210669008,10.12142857142857L90.23499639240437,10.335714285714285L89.59213924954722,10.335714285714285L89.37785353526151,10.55L89.1635678209758,10.55L88.94928210669008,10.764285714285716L88.73499639240437,10.764285714285716L88.30642496383294,11.192857142857143L87.6635678209758,11.192857142857143L87.23499639240437,11.62142857142857L86.59213924954722,11.62142857142857L86.1635678209758,12.05z" stroke="none"/><path d="M33,11.95L33,12.05L31.092139249547223,12.05L30.87785353526151,12.264285714285716L30.663567820975796,12.264285714285716L30.44928210669008,12.478571428571428L20.76500360759563,12.478571428571428L20.336432179024204,12.05L19.5,12.05L19.5,11.95L20.37785353526151,11.95L20.80642496383294,12.378571428571426L30.407860750452773,12.378571428571426L30.62214646473849,12.164285714285715L30.836432179024204,12.164285714285715L31.050717893309915,11.95z" stroke="none"/><path d="M33,10.55L33,10.45L33.449282106690085,10.45L33.87785353526151,10.878571428571426L36.020710678118654,10.878571428571426L36.23499639240437,11.092857142857142L41.80642496383294,11.092857142857142L42.020710678118654,11.307142857142857L42.449282106690085,11.307142857142857L42.87785353526151,11.735714285714284L43.30642496383294,11.735714285714284L43.520710678118654,11.95L44.80642496383294,11.95L45.020710678118654,12.164285714285715L45.23499639240437,12.164285714285715L45.66356782097579,12.592857142857142L46.69357503616706,12.592857142857142L46.878571428571426,12.407860750452773L46.878571428571426,11.592139249547223L46.66428571428572,11.377853535261512L46.66428571428572,10.949282106690081L46.45,10.73499639240437L46.45,10.5L46.55,10.5L46.55,10.693575036167061L46.76428571428571,10.907860750452773L46.76428571428571,11.336432179024204L46.97857142857142,11.550717893309915L46.97857142857142,12.449282106690081L46.73499639240437,12.692857142857143L45.622146464738485,12.692857142857143L45.19357503616706,12.264285714285716L44.979289321881346,12.264285714285716L44.76500360759563,12.05L43.479289321881346,12.05L43.26500360759563,11.835714285714285L42.8364321790242,11.835714285714285L42.40786075045278,11.407142857142858L41.979289321881346,11.407142857142858L41.76500360759563,11.192857142857143L36.19357503616706,11.192857142857143L35.979289321881346,10.978571428571428L33.8364321790242,10.978571428571428L33.40786075045278,10.55z" stroke="none"/><path d="M89.99999999999999,2.95L89.99999999999999,3.05L87.83643217902419,3.05L87.40786075045276,2.6214285714285714L77.59213924954722,2.6214285714285714L77.37785353526151,2.8357142857142854L77.1635678209758,2.8357142857142854L76.94928210669008,3.05L76.49999999999999,3.05L76.49999999999999,2.95L76.90786075045276,2.95L77.12214646473848,2.7357142857142858L77.33643217902419,2.7357142857142858L77.5507178933099,2.521428571428572L87.44928210669008,2.521428571428572L87.87785353526151,2.95z" stroke="none"/><path d="M79.49999999999999,6.05L79.49999999999999,5.95L79.73499639240437,5.95L79.94928210669008,6.164285714285715L80.37785353526151,6.164285714285715L80.80642496383294,6.5928571428571425L81.02071067811865,6.5928571428571425L81.44928210669008,7.021428571428571L81.87785353526151,7.021428571428571L82.09213924954722,7.235714285714286L83.80642496383294,7.235714285714286L84.02071067811865,7.45L84.44928210669008,7.45L84.6635678209758,7.664285714285715L84.87785353526151,7.664285714285715L85.09213924954722,7.878571428571428L85.90786075045276,7.878571428571428L86.30714285714285,7.479289321881345L86.30714285714285,7.265003607595631L86.5507178933099,7.021428571428571L97.94928210669008,7.021428571428571L98.80642496383294,7.878571428571428L99.44928210669008,7.878571428571428L99.66356782097579,8.092857142857142L100.09213924954722,8.092857142857142L100.30642496383294,8.307142857142857L100.73499639240437,8.307142857142857L100.97857142857141,8.550717893309915L100.97857142857141,9.449282106690081L100.73499639240437,9.692857142857143L99.87785353526151,9.692857142857143L99.66356782097579,9.907142857142858L99.44928210669008,9.907142857142858L99.23499639240437,10.12142857142857L98.80642496383294,10.12142857142857L98.59213924954722,10.335714285714285L98.16356782097579,10.335714285714285L97.94928210669008,10.55L92.99999999999999,10.55L92.99999999999999,10.45L97.90786075045276,10.45L98.12214646473846,10.235714285714284L98.5507178933099,10.235714285714284L98.76500360759562,10.021428571428569L99.19357503616705,10.021428571428569L99.40786075045276,9.807142857142857L99.62214646473846,9.807142857142857L99.83643217902419,9.592857142857142L100.69357503616705,9.592857142857142L100.87857142857142,9.407860750452773L100.87857142857142,8.592139249547223L100.69357503616705,8.407142857142858L100.26500360759562,8.407142857142858L100.0507178933099,8.192857142857143L99.62214646473846,8.192857142857143L99.40786075045276,7.978571428571428L98.76500360759562,7.978571428571428L97.90786075045276,7.121428571428571L86.59213924954722,7.121428571428571L86.40714285714284,7.30642496383294L86.40714285714284,7.520710678118655L85.94928210669008,7.978571428571428L85.0507178933099,7.978571428571428L84.83643217902419,7.764285714285714L84.62214646473848,7.764285714285714L84.40786075045276,7.55L83.97928932188132,7.55L83.76500360759562,7.335714285714285L82.0507178933099,7.335714285714285L81.83643217902419,7.121428571428571L81.40786075045276,7.121428571428571L80.97928932188132,6.692857142857142L80.76500360759562,6.692857142857142L80.33643217902419,6.264285714285714L79.90786075045276,6.264285714285714L79.69357503616705,6.05z" stroke="none"/><path d="M64.49999999999999,11.95L64.49999999999999,12.05L63.23499639240437,12.05L62.80642496383294,12.478571428571428L62.37785353526151,12.478571428571428L62.16356782097579,12.692857142857143L52.26500360759563,12.692857142857143L52.050717893309915,12.478571428571428L48.622146464738485,12.478571428571428L48.19357503616706,12.05L48,12.05L48,11.95L48.23499639240437,11.95L48.66356782097579,12.378571428571426L52.09213924954722,12.378571428571426L52.30642496383294,12.592857142857142L62.122146464738485,12.592857142857142L62.3364321790242,12.378571428571426L62.76500360759563,12.378571428571426L63.19357503616706,11.95z" stroke="none"/><path d="M95.96464466094066,6.035355339059327L96.03535533905931,5.964644660940673L96.23499639240437,6.164285714285715L96.44928210669008,6.164285714285715L96.66356782097579,6.378571428571428L97.09213924954722,6.378571428571428L97.52071067811865,6.807142857142857L98.16356782097579,6.807142857142857L98.80642496383294,7.45L99.66356782097579,7.45L100.09213924954722,7.878571428571428L100.52071067811865,7.878571428571428L100.73499639240437,8.092857142857142L100.94928210669008,8.092857142857142L101.19285714285712,8.336432179024204L101.19285714285712,9.663567820975796L100.94928210669008,9.907142857142858L100.09213924954722,9.907142857142858L99.87785353526151,10.12142857142857L99.66356782097579,10.12142857142857L99.44928210669008,10.335714285714285L99.02071067811865,10.335714285714285L98.80642496383294,10.55L98.37785353526151,10.55L98.16356782097579,10.764285714285716L94.09213924954722,10.764285714285716L93.66356782097579,11.192857142857143L93.44928210669008,11.192857142857143L93.02071067811865,11.62142857142857L92.80642496383294,11.62142857142857L92.59213924954722,11.835714285714285L92.37785353526151,11.835714285714285L91.94928210669008,12.264285714285716L91.73499639240437,12.264285714285716L91.52071067811865,12.478571428571428L85.0507178933099,12.478571428571428L83.12214646473848,10.55L79.49999999999999,10.55L79.49999999999999,10.45L83.1635678209758,10.45L85.09213924954722,12.378571428571426L91.47928932188132,12.378571428571426L91.69357503616705,12.164285714285715L91.90786075045276,12.164285714285715L92.33643217902419,11.735714285714284L92.5507178933099,11.735714285714284L92.76500360759562,11.521428571428569L92.97928932188132,11.521428571428569L93.40786075045276,11.092857142857142L93.62214646473846,11.092857142857142L94.0507178933099,10.664285714285715L98.12214646473846,10.664285714285715L98.33643217902419,10.45L98.76500360759562,10.45L98.97928932188132,10.235714285714284L99.40786075045276,10.235714285714284L99.62214646473846,10.021428571428569L99.83643217902419,10.021428571428569L100.0507178933099,9.807142857142857L100.90786075045276,9.807142857142857L101.09285714285713,9.622146464738488L101.09285714285713,8.377853535261512L100.90786075045276,8.192857142857143L100.69357503616705,8.192857142857143L100.47928932188132,7.978571428571428L100.0507178933099,7.978571428571428L99.62214646473846,7.55L98.76500360759562,7.55L98.12214646473846,6.907142857142857L97.47928932188132,6.907142857142857L97.0507178933099,6.478571428571428L96.62214646473846,6.478571428571428L96.40786075045276,6.264285714285714L96.19357503616705,6.264285714285714z" stroke="none"/><path d="M77.96464466094066,10.535355339059327L78.03535533905931,10.464644660940673L78.44928210669008,10.878571428571426L81.23499639240437,10.878571428571426L81.87785353526151,11.521428571428569L82.52071067811865,11.521428571428569L82.73499639240437,11.735714285714284L83.37785353526151,11.735714285714284L84.02071067811865,12.378571428571426L84.23499639240437,12.378571428571426L84.44928210669008,12.592857142857142L96.40786075045276,12.592857142857142L96.83643217902419,12.164285714285715L97.0507178933099,12.164285714285715L97.26500360759562,11.95L98.12214646473846,11.95L98.5507178933099,11.521428571428569L98.76500360759562,11.521428571428569L100.26500360759562,10.021428571428569L101.12214646473846,10.021428571428569L101.30714285714285,9.836432179024204L101.30714285714285,8.163567820975796L101.12214646473846,7.978571428571428L100.90786075045276,7.978571428571428L100.69357503616705,7.764285714285714L100.26500360759562,7.764285714285714L99.62214646473846,7.121428571428571L98.76500360759562,7.121428571428571L97.90786075045276,6.264285714285714L97.69357503616705,6.264285714285714L97.46464466094066,6.035355339059327L97.53535533905931,5.964644660940673L97.73499639240437,6.164285714285715L97.94928210669008,6.164285714285715L98.80642496383294,7.021428571428571L99.66356782097579,7.021428571428571L100.30642496383294,7.664285714285715L100.73499639240437,7.664285714285715L100.94928210669008,7.878571428571428L101.16356782097579,7.878571428571428L101.40714285714284,8.122146464738488L101.40714285714284,9.877853535261512L101.16356782097579,10.12142857142857L100.30642496383294,10.12142857142857L98.80642496383294,11.62142857142857L98.59213924954722,11.62142857142857L98.16356782097579,12.05L97.30642496383294,12.05L97.09213924954722,12.264285714285716L96.87785353526151,12.264285714285716L96.44928210669008,12.692857142857143L84.40786075045276,12.692857142857143L84.19357503616705,12.478571428571428L83.97928932188132,12.478571428571428L83.33643217902419,11.835714285714285L82.69357503616705,11.835714285714285L82.47928932188132,11.62142857142857L81.83643217902419,11.62142857142857L81.19357503616705,10.978571428571428L78.40786075045276,10.978571428571428z" stroke="none"/><path d="M15,3.05L15,2.95L37.5,2.95L37.5,3.05z" stroke="none"/><path d="M76.46464466094066,10.535355339059327L76.53535533905931,10.464644660940673L76.94928210669008,10.878571428571426L77.37785353526151,10.878571428571426L77.59213924954722,11.092857142857142L80.37785353526151,11.092857142857142L80.59213924954722,11.307142857142857L80.80642496383294,11.307142857142857L81.02071067811865,11.521428571428569L81.23499639240437,11.521428571428569L81.44928210669008,11.735714285714284L82.30642496383294,11.735714285714284L82.52071067811865,11.95L82.73499639240437,11.95L82.94928210669008,12.164285714285715L83.1635678209758,12.164285714285715L83.37785353526151,12.378571428571426L83.59213924954722,12.378571428571426L83.80642496383294,12.592857142857142L84.02071067811865,12.592857142857142L84.23499639240437,12.807142857142857L99.19357503616705,12.807142857142857L99.62214646473846,12.378571428571426L99.83643217902419,12.378571428571426L100.26500360759562,11.95L100.49999999999999,11.95L100.49999999999999,12.05L100.30642496383294,12.05L99.87785353526151,12.478571428571428L99.66356782097579,12.478571428571428L99.23499639240437,12.907142857142858L84.19357503616705,12.907142857142858L83.97928932188132,12.692857142857143L83.76500360759562,12.692857142857143L83.5507178933099,12.478571428571428L83.33643217902419,12.478571428571428L83.12214646473848,12.264285714285716L82.90786075045276,12.264285714285716L82.69357503616705,12.05L82.47928932188132,12.05L82.26500360759562,11.835714285714285L81.40786075045276,11.835714285714285L81.19357503616705,11.62142857142857L80.97928932188132,11.62142857142857L80.76500360759562,11.407142857142858L80.5507178933099,11.407142857142858L80.33643217902419,11.192857142857143L77.5507178933099,11.192857142857143L77.33643217902419,10.978571428571428L76.90786075045276,10.978571428571428z" stroke="none"/><path d="M39,3.05L39,2.95L42.622146464738485,2.95L43.050717893309915,2.521428571428572L55.69357503616706,2.521428571428572L55.90786075045277,2.3071428571428574L62.59213924954722,2.3071428571428574L62.80642496383294,2.521428571428572L63.44928210669008,2.521428571428572L63.87785353526151,2.95L64.49999999999999,2.95L64.49999999999999,3.05L63.8364321790242,3.05L63.40786075045277,2.6214285714285714L62.76500360759563,2.6214285714285714L62.550717893309915,2.407142857142857L55.94928210669008,2.407142857142857L55.73499639240437,2.6214285714285714L43.09213924954722,2.6214285714285714L42.66356782097579,3.05z" stroke="none"/><path d="M43.5,2.95L43.5,3.05L43.09213924954722,3.05L42.87785353526151,3.2642857142857142L39.87785353526151,3.2642857142857142L39.66356782097579,3.478571428571428L38.550717893309915,3.478571428571428L38.30714285714286,3.234996392404369L38.30714285714286,2.765003607595631L38.550717893309915,2.521428571428572L42.622146464738485,2.521428571428572L42.8364321790242,2.3071428571428574L55.479289321881346,2.3071428571428574L55.69357503616706,2.092857142857143L67.30642496383294,2.092857142857143L67.73499639240437,2.521428571428572L68.37785353526151,2.521428571428572L68.59213924954722,2.7357142857142858L69.23499639240437,2.7357142857142858L69.44928210669008,2.95L69.6635678209758,2.95L70.30642496383294,3.592857142857143L70.73499639240437,3.592857142857143L71.37785353526151,4.235714285714286L71.80642496383294,4.235714285714286L72.03535533905931,4.464644660940673L71.96464466094066,4.535355339059327L71.76500360759562,4.335714285714285L71.33643217902419,4.335714285714285L70.69357503616705,3.6928571428571426L70.26500360759562,3.6928571428571426L69.62214646473848,3.05L69.40786075045276,3.05L69.19357503616705,2.8357142857142854L68.5507178933099,2.8357142857142854L68.33643217902419,2.6214285714285714L67.69357503616705,2.6214285714285714L67.26500360759562,2.1928571428571426L55.73499639240437,2.1928571428571426L55.520710678118654,2.407142857142857L42.87785353526151,2.407142857142857L42.66356782097579,2.6214285714285714L38.59213924954722,2.6214285714285714L38.40714285714285,2.8064249638329404L38.40714285714285,3.1935750361670596L38.59213924954722,3.3785714285714286L39.622146464738485,3.3785714285714286L39.8364321790242,3.1642857142857146L42.8364321790242,3.1642857142857146L43.050717893309915,2.95z" stroke="none"/><path d="M39,11.95L39,12.05L37.73499639240437,12.05L37.520710678118654,12.264285714285716L35.59213924954722,12.264285714285716L35.37785353526151,12.478571428571428L31.092139249547223,12.478571428571428L30.87785353526151,12.692857142857143L17.80642496383294,12.692857142857143L17.592139249547227,12.907142857142858L13.693575036167061,12.907142857142858L13.26500360759563,12.478571428571428L13.050717893309915,12.478571428571428L12.622146464738488,12.05L12.407860750452773,12.05L11.550717893309915,11.192857142857143L11.336432179024204,11.192857142857143L10.693575036167061,10.55L10.5,10.55L10.5,10.45L10.73499639240437,10.45L11.377853535261512,11.092857142857142L11.592139249547223,11.092857142857142L12.449282106690081,11.95L12.663567820975796,11.95L13.092139249547223,12.378571428571426L13.306424963832939,12.378571428571426L13.73499639240437,12.807142857142857L17.55071789330992,12.807142857142857L17.76500360759563,12.592857142857142L30.836432179024204,12.592857142857142L31.050717893309915,12.378571428571426L35.3364321790242,12.378571428571426L35.550717893309915,12.164285714285715L37.479289321881346,12.164285714285715L37.69357503616706,11.95z" stroke="none"/><path d="M71.99999999999999,10.55L71.99999999999999,10.45L75.23499639240437,10.45L75.44928210669008,10.664285714285715L75.87785353526151,10.664285714285715L76.09213924954722,10.878571428571426L76.52071067811865,10.878571428571426L76.73499639240437,11.092857142857142L77.1635678209758,11.092857142857142L77.37785353526151,11.307142857142857L79.52071067811865,11.307142857142857L79.73499639240437,11.521428571428569L79.94928210669008,11.521428571428569L80.80642496383294,12.378571428571426L81.02071067811865,12.378571428571426L81.23499639240437,12.592857142857142L81.44928210669008,12.592857142857142L81.87785353526151,13.021428571428569L100.26500360759562,13.021428571428569L101.30714285714285,11.979289321881346L101.30714285714285,11.550717893309915L101.52142857142856,11.336432179024204L101.52142857142856,11.122146464738488L101.94999999999999,10.693575036167061L101.94999999999999,10.5L102.04999999999998,10.5L102.04999999999998,10.73499639240437L101.62142857142855,11.163567820975796L101.62142857142855,11.377853535261512L101.40714285714284,11.592139249547223L101.40714285714284,12.020710678118654L100.30642496383294,13.12142857142857L81.83643217902419,13.12142857142857L81.40786075045276,12.692857142857143L81.19357503616705,12.692857142857143L80.97928932188132,12.478571428571428L80.76500360759562,12.478571428571428L79.90786075045276,11.62142857142857L79.69357503616705,11.62142857142857L79.47928932188132,11.407142857142858L77.33643217902419,11.407142857142858L77.12214646473848,11.192857142857143L76.69357503616705,11.192857142857143L76.47928932188132,10.978571428571428L76.0507178933099,10.978571428571428L75.83643217902419,10.764285714285716L75.40786075045276,10.764285714285716L75.19357503616705,10.55z" stroke="none"/><path d="M6.05,7.5L5.95,7.5L5.95,6.8778535352615116L5.735714285714286,6.663567820975797L5.735714285714286,6.020710678118655L5.307142857142857,5.592139249547226L5.307142857142857,5.3778535352615116L5.0928571428571425,5.163567820975797L5.0928571428571425,4.050717893309916L5.336432179024202,3.8071428571428574L8.336432179024204,3.8071428571428574L8.76500360759563,3.3785714285714286L8.979289321881346,3.3785714285714286L9.193575036167061,3.1642857142857146L9.407860750452773,3.1642857142857146L9.622146464738488,2.95L10.693575036167061,2.95L10.907860750452773,2.7357142857142858L11.122146464738488,2.7357142857142858L11.336432179024204,2.521428571428572L13.73499639240437,2.521428571428572L14.592139249547223,3.3785714285714286L27.44928210669008,3.3785714285714286L27.663567820975796,3.592857142857143L30.44928210669008,3.592857142857143L30.663567820975796,3.8071428571428574L32.16356782097579,3.8071428571428574L32.59213924954722,4.235714285714286L32.80642496383294,4.235714285714286L33.020710678118654,4.45L33.23499639240437,4.45L33.449282106690085,4.664285714285715L33.66356782097579,4.664285714285715L34.73499639240437,5.735714285714286L35.80642496383294,5.735714285714286L36.03535533905933,5.964644660940673L35.96464466094067,6.035355339059327L35.76500360759563,5.835714285714285L34.69357503616706,5.835714285714285L33.622146464738485,4.764285714285714L33.40786075045278,4.764285714285714L33.19357503616706,4.55L32.979289321881346,4.55L32.76500360759563,4.335714285714285L32.550717893309915,4.335714285714285L32.122146464738485,3.907142857142857L30.62214646473849,3.907142857142857L30.407860750452773,3.6928571428571426L27.62214646473849,3.6928571428571426L27.407860750452773,3.478571428571428L14.550717893309915,3.478571428571428L13.693575036167061,2.6214285714285714L11.377853535261512,2.6214285714285714L11.163567820975796,2.8357142857142854L10.949282106690081,2.8357142857142854L10.73499639240437,3.05L9.663567820975796,3.05L9.449282106690081,3.2642857142857142L9.23499639240437,3.2642857142857142L9.020710678118654,3.478571428571428L8.806424963832939,3.478571428571428L8.377853535261512,3.907142857142857L5.3778535352615116,3.907142857142857L5.192857142857142,4.092139249547226L5.192857142857142,5.122146464738488L5.407142857142857,5.336432179024202L5.407142857142857,5.550717893309916L5.835714285714285,5.979289321881345L5.835714285714285,6.622146464738488L6.05,6.836432179024202z" stroke="none"/><path d="M36,4.55L36,4.45L36.19357503616706,4.45L36.622146464738485,4.021428571428571L37.26500360759563,4.021428571428571L37.87857142857143,3.4078607504527736L37.87857142857143,2.5921392495472264L37.69357503616706,2.407142857142857L8.163567820975796,2.407142857142857L7.520710678118655,3.05L6.8778535352615116,3.05L6.663567820975797,3.2642857142857142L5.592139249547226,3.2642857142857142L4.978571428571429,3.877853535261512L4.978571428571429,8.377853535261512L4.55,8.806424963832939L4.55,9L4.45,9L4.45,8.76500360759563L4.878571428571429,8.336432179024204L4.878571428571429,3.8364321790242024L5.550717893309916,3.1642857142857146L6.622146464738488,3.1642857142857146L6.836432179024202,2.95L7.479289321881345,2.95L8.122146464738488,2.3071428571428574L37.73499639240437,2.3071428571428574L37.97857142857143,2.550717893309917L37.97857142857143,3.449282106690083L37.30642496383294,4.121428571428571L36.66356782097579,4.121428571428571L36.23499639240437,4.55z" stroke="none"/><path d="M60,6.05L60,5.95L60.40786075045277,5.95L60.8364321790242,5.521428571428571L61.050717893309915,5.521428571428571L61.69357503616706,4.878571428571429L69.87785353526151,4.878571428571429L70.09213924954722,5.0928571428571425L72.19357503616705,5.0928571428571425L72.37857142857142,4.907860750452774L72.37857142857142,4.092139249547226L71.97928932188132,3.6928571428571426L71.76500360759562,3.6928571428571426L71.52142857142856,3.449282106690083L71.52142857142856,2.550717893309917L71.76500360759562,2.3071428571428574L74.80642496383294,2.3071428571428574L75.02071067811865,2.521428571428572L75.23499639240437,2.521428571428572L76.09213924954722,3.3785714285714286L76.73499639240437,3.3785714285714286L76.94928210669008,3.592857142857143L79.09213924954722,3.592857142857143L79.52071067811865,4.021428571428571L79.73499639240437,4.021428571428571L79.94928210669008,4.235714285714286L80.37785353526151,4.235714285714286L80.80642496383294,4.664285714285715L81.23499639240437,4.664285714285715L81.44928210669008,4.878571428571429L81.6635678209758,4.878571428571429L81.87785353526151,5.0928571428571425L97.30642496383294,5.0928571428571425L97.73499639240437,5.521428571428571L97.94928210669008,5.521428571428571L98.59213924954722,6.164285714285715L98.80642496383294,6.164285714285715L99.44928210669008,6.807142857142857L99.87785353526151,6.807142857142857L100.30642496383294,7.235714285714286L100.52071067811865,7.235714285714286L100.73499639240437,7.45L101.16356782097579,7.45L101.62142857142855,7.907860750452773L101.62142857142855,8.550717893309915L102.03535533905931,8.964644660940673L101.96464466094066,9.035355339059327L101.52142857142856,8.592139249547223L101.52142857142856,7.949282106690083L101.12214646473846,7.55L100.69357503616705,7.55L100.47928932188132,7.335714285714285L100.26500360759562,7.335714285714285L99.83643217902419,6.907142857142857L99.40786075045276,6.907142857142857L98.76500360759562,6.264285714285714L98.5507178933099,6.264285714285714L97.90786075045276,5.621428571428571L97.69357503616705,5.621428571428571L97.26500360759562,5.192857142857142L81.83643217902419,5.192857142857142L81.62214646473848,4.978571428571429L81.40786075045276,4.978571428571429L81.19357503616705,4.764285714285714L80.76500360759562,4.764285714285714L80.33643217902419,4.335714285714285L79.90786075045276,4.335714285714285L79.69357503616705,4.121428571428571L79.47928932188132,4.121428571428571L79.0507178933099,3.6928571428571426L76.90786075045276,3.6928571428571426L76.69357503616705,3.478571428571428L76.0507178933099,3.478571428571428L75.19357503616705,2.6214285714285714L74.97928932188132,2.6214285714285714L74.76500360759562,2.407142857142857L71.80642496383294,2.407142857142857L71.62142857142855,2.5921392495472264L71.62142857142855,3.4078607504527736L71.80642496383294,3.592857142857143L72.02071067811865,3.592857142857143L72.47857142857141,4.050717893309916L72.47857142857141,4.949282106690084L72.23499639240437,5.192857142857142L70.0507178933099,5.192857142857142L69.83643217902419,4.978571428571429L61.73499639240437,4.978571428571429L61.09213924954722,5.621428571428571L60.87785353526151,5.621428571428571L60.44928210669008,6.05z" stroke="none"/><path d="M48,2.95L48,3.05L44.37785353526151,3.05L43.949282106690085,3.478571428571428L40.09213924954722,3.478571428571428L39.87785353526151,3.6928571428571426L38.3364321790242,3.6928571428571426L38.09285714285714,3.449282106690083L38.09285714285714,2.550717893309917L38.3364321790242,2.3071428571428574L42.40786075045278,2.3071428571428574L42.622146464738485,2.092857142857143L55.26500360759563,2.092857142857143L55.479289321881346,1.8785714285714286L89.80642496383294,1.8785714285714286L91.33571428571427,3.4078607504527736L91.33571428571427,4.050717893309916L91.54999999999998,4.265003607595631L91.54999999999998,4.5L91.44999999999999,4.5L91.44999999999999,4.30642496383294L91.23571428571428,4.092139249547226L91.23571428571428,3.449282106690083L89.76500360759562,1.9785714285714286L55.520710678118654,1.9785714285714286L55.30642496383294,2.1928571428571426L42.66356782097579,2.1928571428571426L42.449282106690085,2.407142857142857L38.37785353526151,2.407142857142857L38.192857142857136,2.5921392495472264L38.192857142857136,3.4078607504527736L38.37785353526151,3.592857142857143L39.8364321790242,3.592857142857143L40.050717893309915,3.3785714285714286L43.90786075045278,3.3785714285714286L44.3364321790242,2.95z" stroke="none"/><path d="M34.53535533905933,10.464644660940673L34.46464466094067,10.535355339059327L34.26500360759563,10.335714285714285L33.622146464738485,10.335714285714285L33.40786075045278,10.12142857142857L32.59213924954722,10.12142857142857L32.40714285714285,10.306424963832939L32.40714285714285,10.693575036167061L32.59213924954722,10.878571428571426L33.020710678118654,10.878571428571426L33.23499639240437,11.092857142857142L35.59213924954722,11.092857142857142L35.80642496383294,11.307142857142857L40.73499639240437,11.307142857142857L40.949282106690085,11.521428571428569L41.16356782097579,11.521428571428569L41.37785353526151,11.735714285714284L41.59213924954722,11.735714285714284L41.80642496383294,11.95L43.09213924954722,11.95L43.30642496383294,12.164285714285715L44.37785353526151,12.164285714285715L44.59213924954722,12.378571428571426L44.80642496383294,12.378571428571426L45.020710678118654,12.592857142857142L45.23499639240437,12.592857142857142L45.449282106690085,12.807142857142857L73.26500360759562,12.807142857142857L73.69357503616705,12.378571428571426L74.97928932188132,12.378571428571426L75.19357503616705,12.164285714285715L78.19357503616705,12.164285714285715L78.40786075045276,11.95L79.49999999999999,11.95L79.49999999999999,12.05L78.44928210669008,12.05L78.23499639240437,12.264285714285716L75.23499639240437,12.264285714285716L75.02071067811865,12.478571428571428L73.73499639240437,12.478571428571428L73.30642496383294,12.907142857142858L45.40786075045278,12.907142857142858L45.19357503616706,12.692857142857143L44.979289321881346,12.692857142857143L44.76500360759563,12.478571428571428L44.550717893309915,12.478571428571428L44.3364321790242,12.264285714285716L43.26500360759563,12.264285714285716L43.050717893309915,12.05L41.76500360759563,12.05L41.550717893309915,11.835714285714285L41.3364321790242,11.835714285714285L41.122146464738485,11.62142857142857L40.90786075045278,11.62142857142857L40.69357503616706,11.407142857142858L35.76500360759563,11.407142857142858L35.550717893309915,11.192857142857143L33.19357503616706,11.192857142857143L32.979289321881346,10.978571428571428L32.550717893309915,10.978571428571428L32.30714285714286,10.73499639240437L32.30714285714286,10.26500360759563L32.550717893309915,10.021428571428569L33.449282106690085,10.021428571428569L33.66356782097579,10.235714285714284L34.30642496383294,10.235714285714284z" stroke="none"/><circle cx="76.49999999999999" cy="6" r="0.25" stroke-width="0" fill="#000" /><circle cx="80.99999999999999" cy="7.5" r="0.25" stroke-width="0" fill="#000" /><circle cx="71.99999999999999" cy="3" r="0.25" stroke-width="0" fill="#000" /><circle cx="15" cy="4.5" r="0.25" stroke-width="0" fill="#000" /><circle cx="6" cy="4.5" r="0.25" stroke-width="0" fill="#000" /><circle cx="27" cy="9" r="0.25" stroke-width="0" fill="#000" /><circle cx="57" cy="9" r="0.25" stroke-width="0" fill="#000" /><circle cx="54" cy="12" r="0.25" stroke-width="0" fill="#000" /><circle cx="61.5" cy="12" r="0.25" stroke-width="0" fill="#000" /><circle cx="16.5" cy="10.5" r="0.25" stroke-width="0" fill="#000" /><circle cx="13.5" cy="9" r="0.25" stroke-width="0" fill="#000" /><circle cx="21" cy="6" r="0.25" stroke-width="0" fill="#000" /><circle cx="51" cy="10.5" r="0.25" stroke-width="0" fill="#000" /><circle cx="60" cy="9" r="0.25" stroke-width="0" fill="#000" /><circle cx="34.5" cy="7.5" r="0.25" stroke-width="0" fill="#000" /><circle cx="76.49999999999999" cy="7.5" r="0.25" stroke-width="0" fill="#000" /><circle cx="76.49999999999999" cy="9" r="0.25" stroke-width="0" fill="#000" /><circle cx="86.99999999999999" cy="10.5" r="0.25" stroke-width="0" fill="#000" /><circle cx="63" cy="6" r="0.25" stroke-width="0" fill="#000" /><circle cx="36" cy="10.5" r="0.25" stroke-width="0" fill="#000" /><circle cx="28.5" cy="9" r="0.25" stroke-width="0" fill="#000" /><circle cx="28.5" cy="7.5" r="0.25" stroke-width="0" fill="#000" /><circle cx="46.5" cy="12" r="0.25" stroke-width="0" fill="#000" /><circle cx="25.5" cy="6" r="0.25" stroke-width="0" fill="#000" /><circle cx="28.5" cy="4.5" r="0.25" stroke-width="0" fill="#000" /><circle cx="31.5" cy="4.5" r="0.25" stroke-width="0" fill="#000" /><circle cx="22.5" cy="7.5" r="0.25" stroke-width="0" fill="#000" /><circle cx="70.49999999999999" cy="10.5" r="0.25" stroke-width="0" fill="#000" /><circle cx="64.49999999999999" cy="6" r="0.25" stroke-width="0" fill="#000" /><circle cx="49.5" cy="10.5" r="0.25" stroke-width="0" fill="#000" /><circle cx="89.99999999999999" cy="9" r="0.25" stroke-width="0" fill="#000" /><circle cx="43.5" cy="6" r="0.25" stroke-width="0" fill="#000" /><circle cx="68.99999999999999" cy="6" r="0.25" stroke-width="0" fill="#000" /><circle cx="73.49999999999999" cy="7.5" r="0.25" stroke-width="0" fill="#000" /><circle cx="33" cy="9" r="0.25" stroke-width="0" fill="#000" /><circle cx="30" cy="12" r="0.25" stroke-width="0" fill="#000" /><circle cx="28.5" cy="10.5" r="0.25" stroke-width="0" fill="#000" /><circle cx="86.99999999999999" cy="3" r="0.25" stroke-width="0" fill="#000" /><circle cx="89.99999999999999" cy="4.5" r="0.25" stroke-width="0" fill="#000" /><circle cx="13.5" cy="10.5" r="0.25" stroke-width="0" fill="#000" /><circle cx="12" cy="7.5" r="0.25" stroke-width="0" fill="#000" /><circle cx="3" cy="9" r="0.25" stroke-width="0" fill="#000" /><circle cx="7.5" cy="9" r="0.25" stroke-width="0" fill="#000" /><circle cx="16.5" cy="12" r="0.25" stroke-width="0" fill="#000" /><circle cx="13.5" cy="7.5" r="0.25" stroke-width="0" fill="#000" /><circle cx="34.5" cy="12" r="0.25" stroke-width="0" fill="#000" /><circle cx="40.5" cy="12" r="0.25" stroke-width="0" fill="#000" /><circle cx="22.5" cy="9" r="0.25" stroke-width="0" fill="#000" /><circle cx="16.5" cy="6" r="0.25" stroke-width="0" fill="#000" /><circle cx="60" cy="3" r="0.25" stroke-width="0" fill="#000" /><circle cx="54" cy="7.5" r="0.25" stroke-width="0" fill="#000" /><circle cx="40.5" cy="7.5" r="0.25" stroke-width="0" fill="#000" /><circle cx="33" cy="6" r="0.25" stroke-width="0" fill="#000" /><circle cx="63" cy="3" r="0.25" stroke-width="0" fill="#000" /><circle cx="70.49999999999999" cy="4.5" r="0.25" stroke-width="0" fill="#000" /><circle cx="49.5" cy="6" r="0.25" stroke-width="0" fill="#000" /><circle cx="57" cy="4.5" r="0.25" stroke-width="0" fill="#000" /><circle cx="77.99999999999999" cy="4.5" r="0.25" stroke-width="0" fill="#000" /><circle cx="85.49999999999999" cy="7.5" r="0.25" stroke-width="0" fill="#000" /><circle cx="12" cy="4.5" r="0.25" stroke-width="0" fill="#000" /><circle cx="19.5" cy="9" r="0.25" stroke-width="0" fill="#000" /><circle cx="95.99999999999999" cy="7.5" r="0.25" stroke-width="0" fill="#000" /><circle cx="86.99999999999999" cy="7.5" r="0.25" stroke-width="0" fill="#000" /><circle cx="37.5" cy="10.5" r="0.25" stroke-width="0" fill="#000" /><circle cx="46.5" cy="9" r="0.25" stroke-width="0" fill="#000" /><circle cx="27" cy="4.5" r="0.25" stroke-width="0" fill="#000" /><circle cx="18" cy="9" r="0.25" stroke-width="0" fill="#000" /><circle cx="98.99999999999999" cy="4.5" r="0.25" stroke-width="0" fill="#000" /><circle cx="88.49999999999999" cy="4.5" r="0.25" stroke-width="0" fill="#000" /><circle cx="64.49999999999999" cy="4.5" r="0.25" stroke-width="0" fill="#000" /><circle cx="54" cy="6" r="0.25" stroke-width="0" fill="#000" /><circle cx="100.49999999999999" cy="9" r="0.25" stroke-width="0" fill="#000" /><circle cx="89.99999999999999" cy="12" r="0.25" stroke-width="0" fill="#000" /><circle cx="37.5" cy="4.5" r="0.25" stroke-width="0" fill="#000" /><circle cx="49.5" cy="4.5" r="0.25" stroke-width="0" fill="#000" /><circle cx="24" cy="4.5" r="0.25" stroke-width="0" fill="#000" /><circle cx="12" cy="3" r="0.25" stroke-width="0" fill="#000" /><circle cx="85.49999999999999" cy="12" r="0.25" stroke-width="0" fill="#000" /><circle cx="97.49999999999999" cy="7.5" r="0.25" stroke-width="0" fill="#000" /><circle cx="33" cy="12" r="0.25" stroke-width="0" fill="#000" /><circle cx="19.5" cy="12" r="0.25" stroke-width="0" fill="#000" /><circle cx="33" cy="10.5" r="0.25" stroke-width="0" fill="#000" /><circle cx="46.5" cy="10.5" r="0.25" stroke-width="0" fill="#000" /><circle cx="89.99999999999999" cy="3" r="0.25" stroke-width="0" fill="#000" /><circle cx="76.49999999999999" cy="3" r="0.25" stroke-width="0" fill="#000" /><circle cx="79.49999999999999" cy="6" r="0.25" stroke-width="0" fill="#000" /><circle cx="92.99999999999999" cy="10.5" r="0.25" stroke-width="0" fill="#000" /><circle cx="64.49999999999999" cy="12" r="0.25" stroke-width="0" fill="#000" /><circle cx="48" cy="12" r="0.25" stroke-width="0" fill="#000" /><circle cx="95.99999999999999" cy="6" r="0.25" stroke-width="0" fill="#000" /><circle cx="79.49999999999999" cy="10.5" r="0.25" stroke-width="0" fill="#000" /><circle cx="77.99999999999999" cy="10.5" r="0.25" stroke-width="0" fill="#000" /><circle cx="97.49999999999999" cy="6" r="0.25" stroke-width="0" fill="#000" /><circle cx="15" cy="3" r="0.25" stroke-width="0" fill="#000" /><circle cx="37.5" cy="3" r="0.25" stroke-width="0" fill="#000" /><circle cx="76.49999999999999" cy="10.5" r="0.25" stroke-width="0" fill="#000" /><circle cx="100.49999999999999" cy="12" r="0.25" stroke-width="0" fill="#000" /><circle cx="39" cy="3" r="0.25" stroke-width="0" fill="#000" /><circle cx="64.49999999999999" cy="3" r="0.25" stroke-width="0" fill="#000" /><circle cx="43.5" cy="3" r="0.25" stroke-width="0" fill="#000" /><circle cx="71.99999999999999" cy="4.5" r="0.25" stroke-width="0" fill="#000" /><circle cx="39" cy="12" r="0.25" stroke-width="0" fill="#000" /><circle cx="10.5" cy="10.5" r="0.25" stroke-width="0" fill="#000" /><circle cx="71.99999999999999" cy="10.5" r="0.25" stroke-width="0" fill="#000" /><circle cx="101.99999999999999" cy="10.5" r="0.25" stroke-width="0" fill="#000" /><circle cx="6" cy="7.5" r="0.25" stroke-width="0" fill="#000" /><circle cx="36" cy="6" r="0.25" stroke-width="0" fill="#000" /><circle cx="36" cy="4.5" r="0.25" stroke-width="0" fill="#000" /><circle cx="4.5" cy="9" r="0.25" stroke-width="0" fill="#000" /><circle cx="60" cy="6" r="0.25" stroke-width="0" fill="#000" /><circle cx="101.99999999999999" cy="9" r="0.25" stroke-width="0" fill="#000" /><circle cx="48" cy="3" r="0.25" stroke-width="0" fill="#000" /><circle cx="91.49999999999999" cy="4.5" r="0.25" stroke-width="0" fill="#000" /><circle cx="34.5" cy="10.5" r="0.25" stroke-width="0" fill="#000" /><circle cx="79.49999999999999" cy="12" r="0.25" stroke-width="0" fill="#000" /><rect x="0" y="0" width="105" height="15" stroke-width="0.2" stroke="#000" fill="none" /></svg>