<svg version="1.1" width="105" height="15" xmlns="http://www.w3.org/2000/svg"><path d="M56.16356782097579,3.8071428571428574L56.37785353526151,4.021428571428571L56.80642496383294,4.021428571428571L57.020710678118654,4.235714285714286L57.23499639240437,4.235714285714286L57.44928210669008,4.45L57.66356782097579,4.45L57.87785353526151,4.664285714285715L58.09213924954722,4.664285714285715L58.30642496383294,4.878571428571429L58.520710678118654,4.878571428571429L58.73499639240437,5.0928571428571425L59.80642496383294,5.0928571428571425L60.020710678118654,5.307142857142857L61.30642496383294,5.307142857142857L62.16356782097579,6.164285714285715L62.37785353526151,6.164285714285715L62.59213924954722,6.378571428571428L81.40786075045276,6.378571428571428L81.62214646473848,6.164285714285715L82.26500360759562,6.164285714285715L82.46464466094066,5.964644660940673L82.53535533905931,6.035355339059327L82.30642496383294,6.264285714285714L81.6635678209758,6.264285714285714L81.44928210669008,6.478571428571428L62.550717893309915,6.478571428571428L62.3364321790242,6.264285714285714L62.122146464738485,6.264285714285714L61.26500360759563,5.407142857142857L59.979289321881346,5.407142857142857L59.76500360759563,5.192857142857142L58.69357503616706,5.192857142857142L58.479289321881346,4.978571428571429L58.26500360759563,4.978571428571429L58.050717893309915,4.764285714285714L57.8364321790242,4.764285714285714L57.622146464738485,4.55L57.40786075045277,4.55L57.19357503616706,4.335714285714285L56.979289321881346,4.335714285714285L56.76500360759563,4.121428571428571L56.3364321790242,4.121428571428571L56.122146464738485,3.907142857142857L55.76428571428571,3.907142857142857L55.76428571428571,4.30642496383294L55.53535533905933,4.535355339059327L55.46464466094067,4.464644660940673L55.66428571428572,4.265003607595631L55.66428571428572,3.907142857142857L43.09213924954722,3.907142857142857L42.87785353526151,4.121428571428571L42.23499639240437,4.121428571428571L41.80642496383294,4.55L41.37785353526151,4.55L41.16356782097579,4.764285714285714L40.949282106690085,4.764285714285714L40.520710678118654,5.192857142857142L39.66356782097579,5.192857142857142L39.449282106690085,5.407142857142857L39.23499639240437,5.407142857142857L38.37785353526151,6.264285714285714L38.16356782097579,6.264285714285714L37.520710678118654,6.907142857142857L37.09213924954722,6.907142857142857L36.87785353526151,7.121428571428571L36.66356782097579,7.121428571428571L36.449282106690085,7.335714285714285L36.23499639240437,7.335714285714285L36.03535533905933,7.535355339059327L35.96464466094067,7.464644660940673L36.19357503616706,7.235714285714286L36.40786075045278,7.235714285714286L36.622146464738485,7.021428571428571L36.8364321790242,7.021428571428571L37.050717893309915,6.807142857142857L37.479289321881346,6.807142857142857L38.122146464738485,6.164285714285715L38.3364321790242,6.164285714285715L39.19357503616706,5.307142857142857L39.40786075045278,5.307142857142857L39.622146464738485,5.0928571428571425L40.479289321881346,5.0928571428571425L40.90786075045278,4.664285714285715L41.122146464738485,4.664285714285715L41.3364321790242,4.45L41.76500360759563,4.45L42.19357503616706,4.021428571428571L42.8364321790242,4.021428571428571L43.050717893309915,3.8071428571428574z" stroke="none"/><path d="M26.163567820975796,7.235714285714286L26.37785353526151,7.45L27,7.45L27,7.55L26.336432179024204,7.55L26.12214646473849,7.335714285714285L16.764285714285716,7.335714285714285L16.764285714285716,8.336432179024204L16.978571428571428,8.550717893309915L16.978571428571428,11.163567820975796L16.764285714285716,11.377853535261512L16.764285714285716,11.592139249547223L16.55,11.806424963832939L16.55,12L16.45,12L16.45,11.76500360759563L16.664285714285715,11.550717893309915L16.664285714285715,11.336432179024204L16.878571428571426,11.122146464738488L16.878571428571426,8.592139249547223L16.664285714285715,8.377853535261512L16.664285714285715,7.335714285714285L16.30642496383294,7.335714285714285L16.092139249547223,7.55L15.877853535261512,7.55L15.23499639240437,8.192857142857143L15.020710678118654,8.192857142857143L14.377853535261512,8.835714285714285L14.163567820975796,8.835714285714285L13.949282106690081,9.05L13.5,9.05L13.5,8.95L13.907860750452773,8.95L14.122146464738488,8.735714285714284L14.336432179024204,8.735714285714284L14.979289321881346,8.092857142857142L15.193575036167061,8.092857142857142L15.836432179024204,7.45L16.050717893309915,7.45L16.26500360759563,7.235714285714286z" stroke="none"/><path d="M22.520710678118654,3.8071428571428574L23.163567820975796,4.45L23.592139249547223,4.45L24.020710678118654,4.878571428571429L24.663567820975796,4.878571428571429L25.092139249547223,5.307142857142857L25.30642496383294,5.307142857142857L26.163567820975796,6.164285714285715L26.37785353526151,6.164285714285715L26.80642496383294,6.5928571428571425L28.73499639240437,6.5928571428571425L29.163567820975796,7.021428571428571L29.37785353526151,7.021428571428571L29.592139249547223,7.235714285714286L29.80642496383294,7.235714285714286L30.03535533905933,7.464644660940673L29.96464466094067,7.535355339059327L29.76500360759563,7.335714285714285L29.550717893309915,7.335714285714285L29.336432179024204,7.121428571428571L29.12214646473849,7.121428571428571L28.69357503616706,6.692857142857142L26.76500360759563,6.692857142857142L26.336432179024204,6.264285714285714L26.12214646473849,6.264285714285714L25.26500360759563,5.407142857142857L25.050717893309915,5.407142857142857L24.62214646473849,4.978571428571429L23.979289321881346,4.978571428571429L23.550717893309915,4.55L23.12214646473849,4.55L22.479289321881346,3.907142857142857L13.73499639240437,3.907142857142857L13.55,4.092139249547226L13.55,4.30642496383294L13.335714285714285,4.520710678118655L13.335714285714285,4.949282106690084L13.12142857142857,5.163567820975797L13.12142857142857,5.3778535352615116L12.907142857142858,5.592139249547226L12.907142857142858,6.020710678118655L12.692857142857143,6.234996392404369L12.692857142857143,6.449282106690083L12.478571428571428,6.663567820975797L12.478571428571428,6.8778535352615116L12.05,7.30642496383294L12.05,7.5L11.95,7.5L11.95,7.265003607595631L12.378571428571426,6.836432179024202L12.378571428571426,6.622146464738488L12.592857142857142,6.407860750452773L12.592857142857142,6.19357503616706L12.807142857142857,5.979289321881345L12.807142857142857,5.550717893309916L13.021428571428569,5.336432179024202L13.021428571428569,5.122146464738488L13.235714285714284,4.907860750452774L13.235714285714284,4.479289321881345L13.45,4.265003607595631L13.45,4.050717893309916L13.59357503616706,3.907142857142857L7.050717893309916,3.907142857142857L6.19357503616706,3.05L6,3.05L6,2.95L6.234996392404369,2.95L7.092139249547226,3.8071428571428574z" stroke="none"/><path d="M57.23499639240437,2.7357142857142858L57.44928210669008,2.95L57.66356782097579,2.95L57.87785353526151,3.1642857142857146L58.09213924954722,3.1642857142857146L59.37785353526151,4.45L60.23499639240437,4.45L60.66356782097579,4.878571428571429L61.73499639240437,4.878571428571429L62.80642496383294,5.95L63,5.95L63,6.05L62.76500360759563,6.05L61.69357503616706,4.978571428571429L60.622146464738485,4.978571428571429L60.19357503616706,4.55L59.3364321790242,4.55L58.050717893309915,3.2642857142857142L57.8364321790242,3.2642857142857142L57.622146464738485,3.05L57.40786075045277,3.05L57.19357503616706,2.8357142857142854L40.30642496383294,2.8357142857142854L37.97857142857143,5.163567820975797L37.97857142857143,5.3778535352615116L37.55,5.80642496383294L37.55,6L37.45,6L37.45,5.765003607595631L37.87857142857143,5.336432179024202L37.87857142857143,5.122146464738488L40.16500360759563,2.8357142857142854L36.622146464738485,2.8357142857142854L36.40786075045278,2.6214285714285714L27.663567820975796,2.6214285714285714L27.23499639240437,3.05L27,3.05L27,2.95L27.19357503616706,2.95L27.62214646473849,2.521428571428572L36.449282106690085,2.521428571428572L36.66356782097579,2.7357142857142858z" stroke="none"/><path d="M26.37785353526151,7.664285714285715L26.592139249547223,7.878571428571428L26.80642496383294,7.878571428571428L27.020710678118654,8.092857142857142L27.23499639240437,8.092857142857142L27.44928210669008,8.307142857142857L28.092139249547223,8.307142857142857L28.30642496383294,8.521428571428569L28.94928210669008,8.521428571428569L29.37785353526151,8.95L29.592139249547223,8.95L29.80642496383294,9.164285714285715L30.020710678118654,9.164285714285715L31.092139249547223,10.235714285714284L31.30642496383294,10.235714285714284L31.53535533905933,10.464644660940673L31.46464466094067,10.535355339059327L31.26500360759563,10.335714285714285L31.050717893309915,10.335714285714285L29.979289321881346,9.264285714285716L29.76500360759563,9.264285714285716L29.550717893309915,9.05L29.336432179024204,9.05L28.907860750452773,8.62142857142857L28.26500360759563,8.62142857142857L28.050717893309915,8.407142857142858L27.407860750452773,8.407142857142858L27.19357503616706,8.192857142857143L26.979289321881346,8.192857142857143L26.76500360759563,7.978571428571428L26.550717893309915,7.978571428571428L26.40714285714286,7.834996392404369L26.40714285714286,8.122146464738488L26.80642496383294,8.521428571428569L27.23499639240437,8.521428571428569L27.663567820975796,8.95L27.87785353526151,8.95L28.092139249547223,9.164285714285715L28.30642496383294,9.164285714285715L28.520710678118654,9.378571428571426L28.73499639240437,9.378571428571426L28.94928210669008,9.592857142857142L29.37785353526151,9.592857142857142L29.80642496383294,10.021428571428569L30.020710678118654,10.021428571428569L30.23499639240437,10.235714285714284L30.44928210669008,10.235714285714284L30.663567820975796,10.45L31.092139249547223,10.45L31.30642496383294,10.664285714285715L32.122146464738485,10.664285714285715L32.3364321790242,10.45L33.19357503616706,10.45L33.40786075045278,10.235714285714284L33.622146464738485,10.235714285714284L33.8364321790242,10.021428571428569L40.050717893309915,10.021428571428569L40.69357503616706,9.378571428571426L41.122146464738485,9.378571428571426L41.3364321790242,9.164285714285715L41.550717893309915,9.164285714285715L41.76500360759563,8.95L42.19357503616706,8.95L42.40786075045278,8.735714285714284L42.8364321790242,8.735714285714284L43.050717893309915,8.521428571428569L43.26500360759563,8.521428571428569L43.479289321881346,8.307142857142857L44.3364321790242,8.307142857142857L44.550717893309915,8.092857142857142L45.622146464738485,8.092857142857142L46.050717893309915,7.664285714285715L46.26500360759563,7.664285714285715L46.46464466094067,7.464644660940673L46.53535533905933,7.535355339059327L46.30642496383294,7.764285714285714L46.09213924954722,7.764285714285714L45.66356782097579,8.192857142857143L44.59213924954722,8.192857142857143L44.37785353526151,8.407142857142858L43.520710678118654,8.407142857142858L43.30642496383294,8.62142857142857L43.09213924954722,8.62142857142857L42.87785353526151,8.835714285714285L42.449282106690085,8.835714285714285L42.23499639240437,9.05L41.80642496383294,9.05L41.59213924954722,9.264285714285716L41.37785353526151,9.264285714285716L41.16356782097579,9.478571428571428L40.73499639240437,9.478571428571428L40.09213924954722,10.12142857142857L33.87785353526151,10.12142857142857L33.66356782097579,10.335714285714285L33.449282106690085,10.335714285714285L33.23499639240437,10.55L32.37785353526151,10.55L32.16356782097579,10.764285714285716L31.26500360759563,10.764285714285716L31.050717893309915,10.55L30.62214646473849,10.55L30.407860750452773,10.335714285714285L30.19357503616706,10.335714285714285L29.979289321881346,10.12142857142857L29.76500360759563,10.12142857142857L29.336432179024204,9.692857142857143L28.907860750452773,9.692857142857143L28.69357503616706,9.478571428571428L28.479289321881346,9.478571428571428L28.26500360759563,9.264285714285716L28.050717893309915,9.264285714285716L27.836432179024204,9.05L27.62214646473849,9.05L27.19357503616706,8.62142857142857L26.76500360759563,8.62142857142857L26.307142857142857,8.163567820975796L26.307142857142857,7.764285714285714L25.73499639240437,7.764285714285714L25.092139249547223,8.407142857142858L23.80642496383294,8.407142857142858L23.592139249547223,8.62142857142857L23.37785353526151,8.62142857142857L23.163567820975796,8.835714285714285L22.73499639240437,8.835714285714285L22.520710678118654,9.05L22.30642496383294,9.05L22.092139249547227,9.264285714285716L21.020710678118654,9.264285714285716L20.592139249547227,9.692857142857143L20.37785353526151,9.692857142857143L17.592139249547227,12.478571428571428L8.979289321881346,12.478571428571428L8.76500360759563,12.264285714285716L7.907860750452773,12.264285714285716L7.69357503616706,12.05L7.5,12.05L7.5,11.95L7.734996392404369,11.95L7.949282106690083,12.164285714285715L8.806424963832939,12.164285714285715L9.020710678118654,12.378571428571426L17.55071789330992,12.378571428571426L20.336432179024204,9.592857142857142L20.55071789330992,9.592857142857142L20.979289321881346,9.164285714285715L22.05071789330992,9.164285714285715L22.26500360759563,8.95L22.479289321881346,8.95L22.69357503616706,8.735714285714284L23.12214646473849,8.735714285714284L23.336432179024204,8.521428571428569L23.550717893309915,8.521428571428569L23.76500360759563,8.307142857142857L25.050717893309915,8.307142857142857L25.69357503616706,7.664285714285715z" stroke="none"/><path d="M4.878571428571429,4.45L4.878571428571429,4.265003607595631L5.122146464738488,4.021428571428571L8.806424963832939,4.021428571428571L9.449282106690081,4.664285714285715L9.877853535261512,4.664285714285715L10.306424963832939,5.0928571428571425L10.73499639240437,5.0928571428571425L11.377853535261512,5.735714285714286L11.806424963832939,5.735714285714286L12.035355339059327,5.964644660940673L11.964644660940673,6.035355339059327L11.76500360759563,5.835714285714285L11.336432179024204,5.835714285714285L10.693575036167061,5.192857142857142L10.26500360759563,5.192857142857142L9.836432179024204,4.764285714285714L9.407860750452773,4.764285714285714L8.76500360759563,4.121428571428571L5.163567820975797,4.121428571428571L4.978571428571429,4.30642496383294L4.978571428571429,4.45L5.163567820975797,4.45L6.692857142857142,5.979289321881345L6.692857142857142,6.19357503616706L6.907142857142857,6.407860750452773L6.907142857142857,6.622146464738488L7.335714285714285,7.050717893309916L7.335714285714285,8.122146464738488L7.55,8.336432179024204L7.55,9L7.45,9L7.45,8.377853535261512L7.235714285714286,8.163567820975796L7.235714285714286,7.092139249547226L6.807142857142857,6.663567820975797L6.807142857142857,6.449282106690083L6.5928571428571425,6.234996392404369L6.5928571428571425,6.020710678118655L5.122146464738488,4.55L4.978571428571429,4.55L4.978571428571429,4.907860750452774L5.621428571428571,5.550717893309916L5.621428571428571,5.979289321881345L5.835714285714285,6.19357503616706L5.835714285714285,7.265003607595631L6.035355339059327,7.464644660940673L5.964644660940673,7.535355339059327L5.735714285714286,7.30642496383294L5.735714285714286,6.234996392404369L5.521428571428571,6.020710678118655L5.521428571428571,5.592139249547226L4.878571428571429,4.949282106690084L4.878571428571429,4.55L3,4.55L3,4.45z" stroke="none"/><path d="M67.0507178933099,7.878571428571428L89.1635678209758,7.878571428571428L89.37785353526151,8.092857142857142L90.02071067811865,8.092857142857142L90.44928210669008,8.521428571428569L90.87785353526151,8.521428571428569L91.09213924954722,8.735714285714284L91.30642496383294,8.735714285714284L91.53535533905931,8.964644660940673L91.46464466094066,9.035355339059327L91.26500360759562,8.835714285714285L91.0507178933099,8.835714285714285L90.83643217902419,8.62142857142857L90.40786075045276,8.62142857142857L89.97928932188132,8.192857142857143L89.33643217902419,8.192857142857143L89.12214646473848,7.978571428571428L67.19213924954721,7.978571428571428L67.30642496383294,8.092857142857142L67.73499639240437,8.092857142857142L67.94928210669008,8.307142857142857L68.1635678209758,8.307142857142857L68.37785353526151,8.521428571428569L69.02071067811865,8.521428571428569L69.23499639240437,8.735714285714284L69.44928210669008,8.735714285714284L69.6635678209758,8.95L69.87785353526151,8.95L70.09213924954722,9.164285714285715L70.73499639240437,9.164285714285715L72.03535533905931,10.464644660940673L71.96464466094066,10.535355339059327L70.69357503616705,9.264285714285716L70.0507178933099,9.264285714285716L69.83643217902419,9.05L69.62214646473848,9.05L69.40786075045276,8.835714285714285L69.19357503616705,8.835714285714285L68.97928932188132,8.62142857142857L68.33643217902419,8.62142857142857L68.12214646473848,8.407142857142858L67.90786075045276,8.407142857142858L67.69357503616705,8.192857142857143L67.26500360759562,8.192857142857143L67.12142857142855,8.049282106690082L67.12142857142855,8.377853535261512L66.2642857142857,9.23499639240437L66.2642857142857,9.449282106690081L66.04999999999998,9.663567820975796L66.04999999999998,10.092139249547223L65.83571428571427,10.306424963832939L65.83571428571427,10.73499639240437L65.62142857142855,10.949282106690081L65.62142857142855,11.163567820975796L65.19285714285714,11.592139249547223L65.19285714285714,12.23499639240437L64.94928210669008,12.478571428571428L64.30642496383294,12.478571428571428L64.09213924954723,12.692857142857143L59.3364321790242,12.692857142857143L58.69357503616706,12.05L58.050717893309915,12.05L57.622146464738485,11.62142857142857L56.979289321881346,11.62142857142857L56.76500360759563,11.407142857142858L56.550717893309915,11.407142857142858L56.3364321790242,11.192857142857143L55.69357503616706,11.192857142857143L55.479289321881346,10.978571428571428L54.40786075045277,10.978571428571428L54.19357503616706,10.764285714285716L53.979289321881346,10.764285714285716L53.76500360759563,10.55L53.122146464738485,10.55L52.90786075045277,10.335714285714285L52.69357503616706,10.335714285714285L51.622146464738485,9.264285714285716L51.19357503616706,9.264285714285716L50.96464466094067,9.035355339059327L51.03535533905933,8.964644660940673L51.23499639240437,9.164285714285715L51.66356782097579,9.164285714285715L52.73499639240437,10.235714285714284L52.94928210669008,10.235714285714284L53.16356782097579,10.45L53.80642496383294,10.45L54.020710678118654,10.664285714285715L54.23499639240437,10.664285714285715L54.44928210669008,10.878571428571426L55.520710678118654,10.878571428571426L55.73499639240437,11.092857142857142L56.37785353526151,11.092857142857142L56.59213924954722,11.307142857142857L56.80642496383294,11.307142857142857L57.020710678118654,11.521428571428569L57.66356782097579,11.521428571428569L58.09213924954722,11.95L58.73499639240437,11.95L59.37785353526151,12.592857142857142L64.05071789330991,12.592857142857142L64.26500360759562,12.378571428571426L64.90786075045276,12.378571428571426L65.09285714285714,12.193575036167061L65.09285714285714,11.550717893309915L65.52142857142856,11.122146464738488L65.52142857142856,10.907860750452773L65.73571428571428,10.693575036167061L65.73571428571428,10.26500360759563L65.94999999999999,10.050717893309915L65.94999999999999,9.622146464738488L66.16428571428571,9.407860750452773L66.16428571428571,9.193575036167061L67.02142857142856,8.336432179024204L67.02142857142856,8.049282106690082L63.03535533905933,12.035355339059327L62.96464466094067,11.964644660940673z" stroke="none"/><path d="M33.37857142857143,4.878571428571429L33.37857142857143,4.734996392404369L33.19357503616706,4.55L30.407860750452773,4.55L30.19357503616706,4.335714285714285L28.050717893309915,4.335714285714285L27.62214646473849,3.907142857142857L27.407860750452773,3.907142857142857L27.19357503616706,3.6928571428571426L26.76500360759563,3.6928571428571426L26.52142857142857,3.449282106690083L26.52142857142857,2.550717893309917L26.76500360759563,2.3071428571428574L64.69357503616705,2.3071428571428574L64.90786075045276,2.092857142857143L65.97928932188132,2.092857142857143L66.40786075045276,1.6642857142857144L76.90786075045276,1.6642857142857144L77.33643217902419,1.2357142857142858L93.02071067811865,1.2357142857142858L93.23499639240437,1.45L93.44928210669008,1.45L93.66356782097579,1.6642857142857144L93.87785353526151,1.6642857142857144L94.52071067811865,2.3071428571428574L94.73499639240437,2.3071428571428574L96.02071067811865,3.592857142857143L96.44928210669008,3.592857142857143L97.97857142857141,5.122146464738488L97.97857142857141,6.449282106690083L97.73499639240437,6.692857142857142L66.44928210669008,6.692857142857142L65.1635678209758,7.978571428571428L64.73499639240437,7.978571428571428L64.30642496383294,8.407142857142858L63.87785353526151,8.407142857142858L63.66356782097579,8.62142857142857L61.94928210669008,8.62142857142857L61.53535533905933,9.035355339059327L61.46464466094067,8.964644660940673L61.90786075045277,8.521428571428569L63.622146464738485,8.521428571428569L63.8364321790242,8.307142857142857L64.26500360759562,8.307142857142857L64.69357503616705,7.878571428571428L65.12214646473848,7.878571428571428L66.40786075045276,6.5928571428571425L97.69357503616705,6.5928571428571425L97.87857142857142,6.407860750452773L97.87857142857142,5.163567820975797L96.40786075045276,3.6928571428571426L95.97928932188132,3.6928571428571426L94.69357503616705,2.407142857142857L94.47928932188132,2.407142857142857L93.83643217902419,1.7642857142857145L93.62214646473846,1.7642857142857145L93.40786075045276,1.55L93.19357503616705,1.55L92.97928932188132,1.3357142857142859L77.37785353526151,1.3357142857142859L76.94928210669008,1.7642857142857145L66.44928210669008,1.7642857142857145L66.02071067811865,2.1928571428571426L64.94928210669008,2.1928571428571426L64.73499639240437,2.407142857142857L26.80642496383294,2.407142857142857L26.62142857142857,2.5921392495472264L26.62142857142857,3.4078607504527736L26.80642496383294,3.592857142857143L27.23499639240437,3.592857142857143L27.44928210669008,3.8071428571428574L27.663567820975796,3.8071428571428574L28.092139249547223,4.235714285714286L30.23499639240437,4.235714285714286L30.44928210669008,4.45L33.23499639240437,4.45L33.47857142857143,4.69357503616706L33.47857142857143,4.907860750452774L34.76428571428571,6.19357503616706L34.76428571428571,6.622146464738488L35.192857142857136,7.050717893309916L35.192857142857136,7.265003607595631L35.40714285714285,7.479289321881345L35.40714285714285,7.69357503616706L35.59213924954722,7.878571428571428L39.622146464738485,7.878571428571428L39.8364321790242,7.664285714285715L40.26500360759563,7.664285714285715L40.46464466094067,7.464644660940673L40.53535533905933,7.535355339059327L40.30642496383294,7.764285714285714L39.87785353526151,7.764285714285714L39.66356782097579,7.978571428571428L35.550717893309915,7.978571428571428L35.30714285714286,7.734996392404369L35.30714285714286,7.520710678118655L35.09285714285714,7.30642496383294L35.09285714285714,7.092139249547226L34.66428571428572,6.663567820975797L34.66428571428572,6.234996392404369L33.47857142857143,5.049282106690083L33.47857142857143,5.163567820975797L30.663567820975796,7.978571428571428L28.69357503616706,7.978571428571428L28.050717893309915,7.335714285714285L27.62214646473849,7.335714285714285L27.407860750452773,7.121428571428571L15.877853535261512,7.121428571428571L15.663567820975796,7.335714285714285L13.949282106690081,7.335714285714285L13.73499639240437,7.55L13.5,7.55L13.5,7.45L13.693575036167061,7.45L13.907860750452773,7.235714285714286L15.622146464738488,7.235714285714286L15.836432179024204,7.021428571428571L27.44928210669008,7.021428571428571L27.663567820975796,7.235714285714286L28.092139249547223,7.235714285714286L28.73499639240437,7.878571428571428L30.62214646473849,7.878571428571428L33.37857142857143,5.122146464738488L33.37857142857143,4.978571428571429L29.336432179024204,4.978571428571429L28.907860750452773,4.55L27,4.55L27,4.45L28.94928210669008,4.45L29.37785353526151,4.878571428571429z" stroke="none"/><path d="M50.30714285714286,6.378571428571428L50.30714285714286,6.234996392404369L50.122146464738485,6.05L43.73499639240437,6.05L43.520710678118654,6.264285714285714L42.66356782097579,6.264285714285714L42.449282106690085,6.478571428571428L41.59213924954722,6.478571428571428L41.37785353526151,6.692857142857142L41.16356782097579,6.692857142857142L40.949282106690085,6.907142857142857L40.09213924954722,6.907142857142857L39.66356782097579,7.335714285714285L39.23499639240437,7.335714285714285L39.03535533905933,7.535355339059327L38.96464466094067,7.464644660940673L39.19357503616706,7.235714285714286L39.622146464738485,7.235714285714286L40.050717893309915,6.807142857142857L40.90786075045278,6.807142857142857L41.122146464738485,6.5928571428571425L41.3364321790242,6.5928571428571425L41.550717893309915,6.378571428571428L42.40786075045278,6.378571428571428L42.622146464738485,6.164285714285715L43.479289321881346,6.164285714285715L43.69357503616706,5.95L50.16356782097579,5.95L50.40714285714285,6.19357503616706L50.40714285714285,6.378571428571428L60.87785353526151,6.378571428571428L61.09213924954722,6.5928571428571425L62.80642496383294,6.5928571428571425L63.020710678118654,6.807142857142857L63.66356782097579,6.807142857142857L64.09213924954723,7.235714285714286L64.30642496383294,7.235714285714286L64.53535533905931,7.464644660940673L64.46464466094066,7.535355339059327L64.26500360759562,7.335714285714285L64.05071789330991,7.335714285714285L63.622146464738485,6.907142857142857L62.979289321881346,6.907142857142857L62.76500360759563,6.692857142857142L61.050717893309915,6.692857142857142L60.8364321790242,6.478571428571428L50.40714285714285,6.478571428571428L50.40714285714285,6.622146464738488L50.59213924954722,6.807142857142857L54.44928210669008,6.807142857142857L54.66356782097579,7.021428571428571L55.30642496383294,7.021428571428571L55.94928210669008,7.664285714285715L56.16356782097579,7.664285714285715L56.37785353526151,7.878571428571428L56.80642496383294,7.878571428571428L58.520710678118654,9.592857142857142L58.73499639240437,9.592857142857142L59.80642496383294,10.664285714285715L60.23499639240437,10.664285714285715L61.520710678118654,11.95L61.73499639240437,11.95L61.94928210669008,12.164285714285715L62.37785353526151,12.164285714285715L62.59213924954722,12.378571428571426L63.8364321790242,12.378571428571426L64.05071789330991,12.164285714285715L64.26500360759562,12.164285714285715L64.46464466094066,11.964644660940673L64.53535533905931,12.035355339059327L64.30642496383294,12.264285714285716L64.09213924954723,12.264285714285716L63.87785353526151,12.478571428571428L62.550717893309915,12.478571428571428L62.3364321790242,12.264285714285716L61.90786075045277,12.264285714285716L61.69357503616706,12.05L61.479289321881346,12.05L60.19357503616706,10.764285714285716L59.76500360759563,10.764285714285716L58.69357503616706,9.692857142857143L58.479289321881346,9.692857142857143L56.76500360759563,7.978571428571428L56.3364321790242,7.978571428571428L56.122146464738485,7.764285714285714L55.90786075045277,7.764285714285714L55.26500360759563,7.121428571428571L54.622146464738485,7.121428571428571L54.40786075045277,6.907142857142857L50.550717893309915,6.907142857142857L50.30714285714286,6.663567820975797L50.30714285714286,6.478571428571428L46.520710678118654,6.478571428571428L46.09213924954722,6.907142857142857L45.020710678118654,6.907142857142857L44.37785353526151,7.55L43.5,7.55L43.5,7.45L44.3364321790242,7.45L44.979289321881346,6.807142857142857L46.050717893309915,6.807142857142857L46.479289321881346,6.378571428571428z" stroke="none"/><path d="M77.30714285714285,1.8785714285714286L77.30714285714285,1.6935750361670596L77.5507178933099,1.45L91.94928210669008,1.45L92.37785353526151,1.8785714285714286L93.23499639240437,1.8785714285714286L93.44928210669008,2.092857142857143L93.66356782097579,2.092857142857143L93.87785353526151,2.3071428571428574L94.09213924954722,2.3071428571428574L94.52071067811865,2.7357142857142858L94.73499639240437,2.7357142857142858L95.80642496383294,3.8071428571428574L96.02071067811865,3.8071428571428574L96.23499639240437,4.021428571428571L96.44928210669008,4.021428571428571L97.12142857142855,4.69357503616706L97.12142857142855,5.122146464738488L97.33571428571427,5.336432179024202L97.33571428571427,5.550717893309916L97.54999999999998,5.765003607595631L97.54999999999998,6L97.44999999999999,6L97.44999999999999,5.80642496383294L97.23571428571428,5.592139249547226L97.23571428571428,5.3778535352615116L97.02142857142856,5.163567820975797L97.02142857142856,4.734996392404369L96.40786075045276,4.121428571428571L96.19357503616705,4.121428571428571L95.97928932188132,3.907142857142857L95.76500360759562,3.907142857142857L94.69357503616705,2.8357142857142854L94.47928932188132,2.8357142857142854L94.0507178933099,2.407142857142857L93.83643217902419,2.407142857142857L93.62214646473846,2.1928571428571426L93.40786075045276,2.1928571428571426L93.19357503616705,1.9785714285714286L92.33643217902419,1.9785714285714286L91.90786075045276,1.55L77.59213924954722,1.55L77.40714285714284,1.7349963924043692L77.40714285714284,1.8785714285714286L91.94928210669008,1.8785714285714286L92.37785353526151,2.3071428571428574L92.80642496383294,2.3071428571428574L93.02071067811865,2.521428571428572L93.66356782097579,2.521428571428572L94.09213924954722,2.95L94.49999999999999,2.95L94.49999999999999,3.05L94.0507178933099,3.05L93.62214646473846,2.6214285714285714L92.97928932188132,2.6214285714285714L92.76500360759562,2.407142857142857L92.33643217902419,2.407142857142857L91.90786075045276,1.9785714285714286L77.40714285714284,1.9785714285714286L77.40714285714284,2.1635678209757976L77.1635678209758,2.407142857142857L66.6635678209758,2.407142857142857L66.23499639240437,2.8357142857142854L66.02071067811865,2.8357142857142854L65.80642496383294,3.05L65.1635678209758,3.05L64.94928210669008,3.2642857142857142L63.020710678118654,3.2642857142857142L61.94928210669008,4.335714285714285L61.73499639240437,4.335714285714285L61.53535533905933,4.535355339059327L61.46464466094067,4.464644660940673L61.69357503616706,4.235714285714286L61.90786075045277,4.235714285714286L62.979289321881346,3.1642857142857146L64.90786075045276,3.1642857142857146L65.12214646473848,2.95L65.76500360759562,2.95L65.97928932188132,2.7357142857142858L66.19357503616705,2.7357142857142858L66.62214646473848,2.3071428571428574L77.12214646473848,2.3071428571428574L77.30714285714285,2.122146464738488L77.30714285714285,1.9785714285714286L66.6635678209758,1.9785714285714286L66.23499639240437,2.407142857142857L66.02071067811865,2.407142857142857L65.80642496383294,2.6214285714285714L65.37785353526151,2.6214285714285714L65.1635678209758,2.8357142857142854L64.94928210669008,2.8357142857142854L64.73499639240437,3.05L64.49999999999999,3.05L64.49999999999999,2.95L64.69357503616705,2.95L64.90786075045276,2.7357142857142858L65.12214646473848,2.7357142857142858L65.33643217902419,2.521428571428572L65.76500360759562,2.521428571428572L65.97928932188132,2.3071428571428574L66.19357503616705,2.3071428571428574L66.62214646473848,1.8785714285714286z" stroke="none"/><path d="M73.49999999999999,12.05L73.49999999999999,11.95L74.99999999999999,11.95L74.99999999999999,12.05z" stroke="none"/><path d="M57,11.95L57,12.05L55.5,12.05L55.5,11.95z" stroke="none"/><path d="M26.96464466094067,10.464644660940673L27.03535533905933,10.535355339059327L25.53535533905933,12.035355339059327L25.46464466094067,11.964644660940673z" stroke="none"/><path d="M100.53535533905931,10.535355339059327L100.46464466094066,10.464644660940673L101.96464466094066,8.964644660940673L102.03535533905931,9.035355339059327z" stroke="none"/><path d="M89.99999999999999,7.55L89.99999999999999,7.45L92.99999999999999,7.45L92.99999999999999,7.55z" stroke="none"/><path d="M96.03535533905931,4.464644660940673L95.96464466094066,4.535355339059327L95.76500360759562,4.335714285714285L95.5507178933099,4.335714285714285L95.33643217902419,4.121428571428571L93.87785353526151,4.121428571428571L93.66356782097579,4.335714285714285L93.44928210669008,4.335714285714285L93.23499639240437,4.55L92.99999999999999,4.55L92.99999999999999,4.45L93.19357503616705,4.45L93.40786075045276,4.235714285714286L93.62214646473846,4.235714285714286L93.83643217902419,4.021428571428571L95.37785353526151,4.021428571428571L95.59213924954722,4.235714285714286L95.80642496383294,4.235714285714286z" stroke="none"/><path d="M16.5,5.95L16.5,6.05L14.163567820975796,6.05L13.12142857142857,7.092139249547226L13.12142857142857,9.407860750452773L13.306424963832939,9.592857142857142L15.622146464738488,9.592857142857142L16.26500360759563,8.95L16.5,8.95L16.5,9.05L16.30642496383294,9.05L15.663567820975796,9.692857142857143L13.26500360759563,9.692857142857143L13.021428571428569,9.449282106690081L13.021428571428569,7.050717893309916L14.122146464738488,5.95z" stroke="none"/><path d="M73.46464466094066,10.464644660940673L73.53535533905931,10.535355339059327L73.30642496383294,10.764285714285716L73.09213924954722,10.764285714285716L72.87785353526151,10.978571428571428L72.6635678209758,10.978571428571428L71.80642496383294,11.835714285714285L71.1635678209758,11.835714285714285L70.94928210669008,12.05L70.49999999999999,12.05L70.49999999999999,11.95L70.90786075045276,11.95L71.12214646473848,11.735714285714284L71.76500360759562,11.735714285714284L72.62214646473848,10.878571428571426L72.83643217902419,10.878571428571426L73.0507178933099,10.664285714285715L73.26500360759562,10.664285714285715z" stroke="none"/><path d="M91.46464466094066,5.964644660940673L91.53535533905931,6.035355339059327L91.30642496383294,6.264285714285714L90.6635678209758,6.264285714285714L90.44928210669008,6.478571428571428L88.90786075045276,6.478571428571428L88.69357503616705,6.264285714285714L87.40786075045276,6.264285714285714L87.19357503616705,6.05L86.99999999999999,6.05L86.99999999999999,5.95L87.23499639240437,5.95L87.44928210669008,6.164285714285715L88.73499639240437,6.164285714285715L88.94928210669008,6.378571428571428L90.40786075045276,6.378571428571428L90.62214646473848,6.164285714285715L91.26500360759562,6.164285714285715z" stroke="none"/><path d="M7.5,10.55L7.5,10.45L12,10.45L12,10.55z" stroke="none"/><path d="M21,10.55L21,10.45L25.5,10.45L25.5,10.55z" stroke="none"/><path d="M94.49999999999999,4.45L94.49999999999999,4.55L93.87785353526151,4.55L93.44928210669008,4.978571428571429L91.52071067811865,4.978571428571429L91.30642496383294,5.192857142857142L91.09213924954722,5.192857142857142L90.87785353526151,5.407142857142857L90.6635678209758,5.407142857142857L90.03535533905931,6.035355339059327L89.96464466094066,5.964644660940673L90.62214646473848,5.307142857142857L90.83643217902419,5.307142857142857L91.0507178933099,5.0928571428571425L91.26500360759562,5.0928571428571425L91.47928932188132,4.878571428571429L93.40786075045276,4.878571428571429L93.83643217902419,4.45z" stroke="none"/><path d="M50.96464466094067,7.464644660940673L51.03535533905933,7.535355339059327L50.80642496383294,7.764285714285714L50.59213924954722,7.764285714285714L50.37785353526151,7.978571428571428L50.16356782097579,7.978571428571428L49.94928210669008,8.192857142857143L49.73499639240437,8.192857142857143L49.520710678118654,8.407142857142858L48.020710678118654,8.407142857142858L47.59213924954722,8.835714285714285L47.37785353526151,8.835714285714285L47.16356782097579,9.05L46.5,9.05L46.5,8.95L47.122146464738485,8.95L47.3364321790242,8.735714285714284L47.550717893309915,8.735714285714284L47.979289321881346,8.307142857142857L49.479289321881346,8.307142857142857L49.69357503616706,8.092857142857142L49.90786075045277,8.092857142857142L50.122146464738485,7.878571428571428L50.3364321790242,7.878571428571428L50.550717893309915,7.664285714285715L50.76500360759563,7.664285714285715z" stroke="none"/><path d="M28.5,10.55L28.5,10.45L29.80642496383294,10.45L30.23499639240437,10.878571428571426L31.30642496383294,10.878571428571426L31.520710678118654,11.092857142857142L31.73499639240437,11.092857142857142L32.37785353526151,11.735714285714284L32.59213924954722,11.735714285714284L32.80642496383294,11.95L33,11.95L33,12.05L32.76500360759563,12.05L32.550717893309915,11.835714285714285L32.3364321790242,11.835714285714285L31.69357503616706,11.192857142857143L31.479289321881346,11.192857142857143L31.26500360759563,10.978571428571428L30.19357503616706,10.978571428571428L29.76500360759563,10.55z" stroke="none"/><path d="M82.49999999999999,3.05L82.49999999999999,2.95L83.1635678209758,2.95L83.80642496383294,3.592857142857143L84.23499639240437,3.592857142857143L84.6635678209758,4.021428571428571L85.94928210669008,4.021428571428571L86.37785353526151,4.45L86.99999999999999,4.45L86.99999999999999,4.55L86.33643217902419,4.55L85.90786075045276,4.121428571428571L84.62214646473848,4.121428571428571L84.19357503616705,3.6928571428571426L83.76500360759562,3.6928571428571426L83.12214646473848,3.05z" stroke="none"/><path d="M19.5,2.95L19.5,3.05L15.877853535261512,3.05L15.449282106690081,3.478571428571428L14.336432179024204,3.478571428571428L14.122146464738488,3.2642857142857142L13.907860750452773,3.2642857142857142L13.693575036167061,3.05L13.5,3.05L13.5,2.95L13.73499639240437,2.95L13.949282106690081,3.1642857142857146L14.163567820975796,3.1642857142857146L14.377853535261512,3.3785714285714286L15.407860750452773,3.3785714285714286L15.836432179024204,2.95z" stroke="none"/><path d="M30,3.05L30,2.95L36,2.95L36,3.05z" stroke="none"/><path d="M37.5,8.95L37.5,9.05L31.5,9.05L31.5,8.95z" stroke="none"/><path d="M39.03535533905933,12.035355339059327L38.96464466094067,11.964644660940673L39.19357503616706,11.735714285714284L39.40786075045278,11.735714285714284L39.8364321790242,11.307142857142857L40.69357503616706,11.307142857142857L41.3364321790242,10.664285714285715L41.550717893309915,10.664285714285715L41.76500360759563,10.45L42.40786075045278,10.45L42.622146464738485,10.235714285714284L43.050717893309915,10.235714285714284L43.479289321881346,9.807142857142857L43.69357503616706,9.807142857142857L44.3364321790242,9.164285714285715L44.76500360759563,9.164285714285715L44.96464466094067,8.964644660940673L45.03535533905933,9.035355339059327L44.80642496383294,9.264285714285716L44.37785353526151,9.264285714285716L43.73499639240437,9.907142857142858L43.520710678118654,9.907142857142858L43.09213924954722,10.335714285714285L42.66356782097579,10.335714285714285L42.449282106690085,10.55L41.80642496383294,10.55L41.59213924954722,10.764285714285716L41.37785353526151,10.764285714285716L40.73499639240437,11.407142857142858L39.87785353526151,11.407142857142858L39.449282106690085,11.835714285714285L39.23499639240437,11.835714285714285z" stroke="none"/><path d="M76.49999999999999,2.95L76.49999999999999,3.05L71.59213924954722,3.05L71.37785353526151,3.2642857142857142L71.1635678209758,3.2642857142857142L70.94928210669008,3.478571428571428L69.62214646473848,3.478571428571428L69.19357503616705,3.05L68.99999999999999,3.05L68.99999999999999,2.95L69.23499639240437,2.95L69.6635678209758,3.3785714285714286L70.90786075045276,3.3785714285714286L71.12214646473848,3.1642857142857146L71.33643217902419,3.1642857142857146L71.5507178933099,2.95z" stroke="none"/><path d="M42,6.05L42,5.95L43.26500360759563,5.95L43.479289321881346,5.735714285714286L50.59213924954722,5.735714285714286L50.80642496383294,5.95L51,5.95L51,6.05L50.76500360759563,6.05L50.550717893309915,5.835714285714285L43.520710678118654,5.835714285714285L43.30642496383294,6.05z" stroke="none"/><path d="M80.99999999999999,9.05L80.99999999999999,8.95L88.52071067811865,8.95L88.73499639240437,9.164285714285715L88.94928210669008,9.164285714285715L89.1635678209758,9.378571428571426L91.90786075045276,9.378571428571426L92.09285714285713,9.193575036167061L92.09285714285713,8.806424963832939L91.90786075045276,8.62142857142857L91.47928932188132,8.62142857142857L91.26500360759562,8.407142857142858L90.62214646473848,8.407142857142858L90.19357503616705,7.978571428571428L89.5507178933099,7.978571428571428L89.33643217902419,7.764285714285714L72.83643217902419,7.764285714285714L72.62214646473848,7.55L71.99999999999999,7.55L71.99999999999999,7.45L72.6635678209758,7.45L72.87785353526151,7.664285714285715L89.37785353526151,7.664285714285715L89.59213924954722,7.878571428571428L90.23499639240437,7.878571428571428L90.6635678209758,8.307142857142857L91.30642496383294,8.307142857142857L91.52071067811865,8.521428571428569L91.94928210669008,8.521428571428569L92.19285714285712,8.76500360759563L92.19285714285712,9.23499639240437L91.94928210669008,9.478571428571428L89.12214646473848,9.478571428571428L88.90786075045276,9.264285714285716L88.69357503616705,9.264285714285716L88.47928932188132,9.05z" stroke="none"/><path d="M4.464644660940673,7.535355339059327L4.535355339059327,7.464644660940673L6.449282106690083,9.378571428571426L12.23499639240437,9.378571428571426L13.306424963832939,10.45L13.5,10.45L13.5,10.55L13.26500360759563,10.55L12.193575036167061,9.478571428571428L6.407860750452773,9.478571428571428z" stroke="none"/><path d="M22.5,12.05L22.5,11.95L24.663567820975796,11.95L25.092139249547223,12.378571428571426L33.40786075045278,12.378571428571426L33.59285714285714,12.193575036167061L33.59285714285714,11.550717893309915L34.23571428571429,10.907860750452773L34.23571428571429,10.693575036167061L34.46464466094067,10.464644660940673L34.53535533905933,10.535355339059327L34.33571428571428,10.73499639240437L34.33571428571428,10.949282106690081L33.692857142857136,11.592139249547223L33.692857142857136,12.23499639240437L33.449282106690085,12.478571428571428L25.050717893309915,12.478571428571428L24.62214646473849,12.05z" stroke="none"/><path d="M15.035355339059327,2.9646446609406727L14.964644660940673,3.0353553390593273L14.76500360759563,2.8357142857142854L14.550717893309915,2.8357142857142854L14.336432179024204,2.6214285714285714L5.592139249547226,2.6214285714285714L5.163567820975797,3.05L4.734996392404369,3.05L4.520710678118655,3.2642857142857142L4.092139249547226,3.2642857142857142L3.449282106690083,3.907142857142857L2.8064249638329404,3.907142857142857L2.6214285714285714,4.092139249547226L2.6214285714285714,6.407860750452773L2.8357142857142854,6.622146464738488L2.8357142857142854,7.050717893309916L3.05,7.265003607595631L3.05,7.5L2.95,7.5L2.95,7.30642496383294L2.7357142857142858,7.092139249547226L2.7357142857142858,6.663567820975797L2.521428571428572,6.449282106690083L2.521428571428572,4.050717893309916L2.765003607595631,3.8071428571428574L3.4078607504527736,3.8071428571428574L4.050717893309916,3.1642857142857146L4.479289321881345,3.1642857142857146L4.69357503616706,2.95L5.122146464738488,2.95L5.550717893309916,2.521428571428572L14.377853535261512,2.521428571428572L14.592139249547223,2.7357142857142858L14.806424963832939,2.7357142857142858z" stroke="none"/><path d="M45,11.95L45,12.05L43.09213924954722,12.05L42.87785353526151,12.264285714285716L42.66356782097579,12.264285714285716L42.449282106690085,12.478571428571428L34.30642496383294,12.478571428571428L34.09213924954722,12.692857142857143L22.26500360759563,12.692857142857143L22.021428571428572,12.449282106690081L22.021428571428572,11.550717893309915L22.26500360759563,11.307142857142857L22.69357503616706,11.307142857142857L22.907860750452773,11.092857142857142L24.19357503616706,11.092857142857142L24.407860750452773,10.878571428571426L25.907860750452773,10.878571428571426L26.307142857142857,10.479289321881346L26.307142857142857,10.26500360759563L26.550717893309915,10.021428571428569L27.44928210669008,10.021428571428569L27.90714285714286,10.479289321881346L27.90714285714286,10.693575036167061L28.092139249547223,10.878571428571426L29.80642496383294,10.878571428571426L30.020710678118654,11.092857142857142L30.44928210669008,11.092857142857142L30.663567820975796,11.307142857142857L30.87785353526151,11.307142857142857L31.53535533905933,11.964644660940673L31.46464466094067,12.035355339059327L30.836432179024204,11.407142857142858L30.62214646473849,11.407142857142858L30.407860750452773,11.192857142857143L29.979289321881346,11.192857142857143L29.76500360759563,10.978571428571428L28.050717893309915,10.978571428571428L27.807142857142857,10.73499639240437L27.807142857142857,10.520710678118654L27.407860750452773,10.12142857142857L26.592139249547223,10.12142857142857L26.40714285714286,10.306424963832939L26.40714285714286,10.520710678118654L25.94928210669008,10.978571428571428L24.44928210669008,10.978571428571428L24.23499639240437,11.192857142857143L22.94928210669008,11.192857142857143L22.73499639240437,11.407142857142858L22.30642496383294,11.407142857142858L22.121428571428574,11.592139249547223L22.121428571428574,12.407860750452773L22.30642496383294,12.592857142857142L34.050717893309915,12.592857142857142L34.26500360759563,12.378571428571426L42.40786075045278,12.378571428571426L42.622146464738485,12.164285714285715L42.8364321790242,12.164285714285715L43.050717893309915,11.95z" stroke="none"/><path d="M12,3.05L12,2.95L12.23499639240437,2.95L12.449282106690081,3.1642857142857146L12.877853535261512,3.1642857142857146L13.092139249547223,3.3785714285714286L13.949282106690081,3.3785714285714286L14.163567820975796,3.592857142857143L23.979289321881346,3.592857142857143L24.407860750452773,3.1642857142857146L24.62214646473849,3.1642857142857146L24.836432179024204,2.95L25.5,2.95L25.5,3.05L24.87785353526151,3.05L24.663567820975796,3.2642857142857142L24.44928210669008,3.2642857142857142L24.020710678118654,3.6928571428571426L14.122146464738488,3.6928571428571426L13.907860750452773,3.478571428571428L13.050717893309915,3.478571428571428L12.836432179024204,3.2642857142857142L12.407860750452773,3.2642857142857142L12.193575036167061,3.05z" stroke="none"/><path d="M98.99999999999999,7.45L98.99999999999999,7.55L98.80642496383294,7.55L98.59213924954722,7.764285714285714L98.16356782097579,7.764285714285714L97.73499639240437,8.192857142857143L97.52071067811865,8.192857142857143L97.30642496383294,8.407142857142858L97.09213924954722,8.407142857142858L96.66356782097579,8.835714285714285L96.44928210669008,8.835714285714285L96.23499639240437,9.05L94.73499639240437,9.05L94.52071067811865,9.264285714285716L93.23499639240437,9.264285714285716L93.02071067811865,9.478571428571428L92.37785353526151,9.478571428571428L92.16356782097579,9.692857142857143L89.80642496383294,9.692857142857143L89.1635678209758,10.335714285714285L88.73499639240437,10.335714285714285L88.52071067811865,10.55L87.44928210669008,10.55L87.23499639240437,10.764285714285716L87.02071067811865,10.764285714285716L86.80642496383294,10.978571428571428L86.37785353526151,10.978571428571428L85.94928210669008,11.407142857142858L85.52071067811865,11.407142857142858L85.30642496383294,11.62142857142857L85.09213924954722,11.62142857142857L84.6635678209758,12.05L83.99999999999999,12.05L83.99999999999999,11.95L84.62214646473848,11.95L85.0507178933099,11.521428571428569L85.26500360759562,11.521428571428569L85.47928932188132,11.307142857142857L85.90786075045276,11.307142857142857L86.33643217902419,10.878571428571426L86.76500360759562,10.878571428571426L86.97928932188132,10.664285714285715L87.19357503616705,10.664285714285715L87.40786075045276,10.45L88.47928932188132,10.45L88.69357503616705,10.235714285714284L89.12214646473848,10.235714285714284L89.76500360759562,9.592857142857142L92.12214646473846,9.592857142857142L92.33643217902419,9.378571428571426L92.97928932188132,9.378571428571426L93.19357503616705,9.164285714285715L94.47928932188132,9.164285714285715L94.69357503616705,8.95L96.19357503616705,8.95L96.40786075045276,8.735714285714284L96.62214646473846,8.735714285714284L97.0507178933099,8.307142857142857L97.26500360759562,8.307142857142857L97.47928932188132,8.092857142857142L97.69357503616705,8.092857142857142L98.12214646473846,7.664285714285715L98.5507178933099,7.664285714285715L98.76500360759562,7.45z" stroke="none"/><path d="M18,4.45L18,4.55L15.449282106690081,4.55L14.592139249547223,5.407142857142857L14.377853535261512,5.407142857142857L12.907142857142858,6.8778535352615116L12.907142857142858,9.622146464738488L13.092139249547223,9.807142857142857L13.73499639240437,9.807142857142857L13.978571428571428,10.050717893309915L13.978571428571428,10.949282106690081L13.73499639240437,11.192857142857143L7.69357503616706,11.192857142857143L7.479289321881345,10.978571428571428L7.050717893309916,10.978571428571428L5.550717893309916,9.478571428571428L4.479289321881345,9.478571428571428L4.265003607595631,9.264285714285716L3.4078607504527736,9.264285714285716L3.1935750361670596,9.05L3,9.05L3,8.95L3.234996392404369,8.95L3.449282106690083,9.164285714285715L4.30642496383294,9.164285714285715L4.520710678118655,9.378571428571426L5.592139249547226,9.378571428571426L7.092139249547226,10.878571428571426L7.520710678118655,10.878571428571426L7.734996392404369,11.092857142857142L13.693575036167061,11.092857142857142L13.878571428571426,10.907860750452773L13.878571428571426,10.092139249547223L13.693575036167061,9.907142857142858L13.050717893309915,9.907142857142858L12.807142857142857,9.663567820975796L12.807142857142857,6.836432179024202L14.336432179024204,5.307142857142857L14.550717893309915,5.307142857142857L15.407860750452773,4.45z" stroke="none"/><path d="M65.99999999999999,12.05L65.99999999999999,11.95L69.23499639240437,11.95L69.44928210669008,12.164285714285715L69.87785353526151,12.164285714285715L70.09213924954722,12.378571428571426L79.69357503616705,12.378571428571426L80.12214646473848,11.95L82.49999999999999,11.95L82.49999999999999,12.05L80.1635678209758,12.05L79.73499639240437,12.478571428571428L70.0507178933099,12.478571428571428L69.83643217902419,12.264285714285716L69.40786075045276,12.264285714285716L69.19357503616705,12.05z" stroke="none"/><path d="M89.99999999999999,4.45L89.99999999999999,4.55L87.83643217902419,4.55L87.40786075045276,4.121428571428571L86.33643217902419,4.121428571428571L86.12214646473848,3.907142857142857L85.0507178933099,3.907142857142857L84.83643217902419,3.6928571428571426L84.62214646473848,3.6928571428571426L84.40786075045276,3.478571428571428L83.97928932188132,3.478571428571428L83.33643217902419,2.8357142857142854L83.12214646473848,2.8357142857142854L82.90786075045276,2.6214285714285714L71.37785353526151,2.6214285714285714L71.1635678209758,2.8357142857142854L70.94928210669008,2.8357142857142854L70.73499639240437,3.05L70.49999999999999,3.05L70.49999999999999,2.95L70.69357503616705,2.95L70.90786075045276,2.7357142857142858L71.12214646473848,2.7357142857142858L71.33643217902419,2.521428571428572L82.94928210669008,2.521428571428572L83.1635678209758,2.7357142857142858L83.37785353526151,2.7357142857142858L84.02071067811865,3.3785714285714286L84.44928210669008,3.3785714285714286L84.6635678209758,3.592857142857143L84.87785353526151,3.592857142857143L85.09213924954722,3.8071428571428574L86.1635678209758,3.8071428571428574L86.37785353526151,4.021428571428571L87.44928210669008,4.021428571428571L87.87785353526151,4.45z" stroke="none"/><path d="M79.49999999999999,10.55L79.49999999999999,10.45L80.37785353526151,10.45L80.59213924954722,10.664285714285715L81.87785353526151,10.664285714285715L82.52071067811865,11.307142857142857L82.73499639240437,11.307142857142857L82.97857142857141,11.550717893309915L82.97857142857141,12.449282106690081L82.73499639240437,12.692857142857143L65.1635678209758,12.692857142857143L64.94928210669008,12.907142857142858L55.69357503616706,12.907142857142858L55.26500360759563,12.478571428571428L55.050717893309915,12.478571428571428L54.19357503616706,11.62142857142857L53.76500360759563,11.62142857142857L53.550717893309915,11.407142857142858L53.3364321790242,11.407142857142858L52.90786075045277,10.978571428571428L52.69357503616706,10.978571428571428L52.050717893309915,10.335714285714285L51.8364321790242,10.335714285714285L51.40786075045277,9.907142857142858L51.19357503616706,9.907142857142858L50.979289321881346,9.692857142857143L50.76500360759563,9.692857142857143L50.52142857142857,9.449282106690081L50.52142857142857,8.550717893309915L50.76500360759563,8.307142857142857L54.66356782097579,8.307142857142857L55.30642496383294,8.95L55.5,8.95L55.5,9.05L55.26500360759563,9.05L54.622146464738485,8.407142857142858L50.80642496383294,8.407142857142858L50.62142857142857,8.592139249547223L50.62142857142857,9.407860750452773L50.80642496383294,9.592857142857142L51.020710678118654,9.592857142857142L51.23499639240437,9.807142857142857L51.44928210669008,9.807142857142857L51.87785353526151,10.235714285714284L52.09213924954722,10.235714285714284L52.73499639240437,10.878571428571426L52.94928210669008,10.878571428571426L53.37785353526151,11.307142857142857L53.59213924954722,11.307142857142857L53.80642496383294,11.521428571428569L54.23499639240437,11.521428571428569L55.09213924954722,12.378571428571426L55.30642496383294,12.378571428571426L55.73499639240437,12.807142857142857L64.90786075045276,12.807142857142857L65.12214646473848,12.592857142857142L82.69357503616705,12.592857142857142L82.87857142857142,12.407860750452773L82.87857142857142,11.592139249547223L82.69357503616705,11.407142857142858L82.47928932188132,11.407142857142858L81.83643217902419,10.764285714285716L80.5507178933099,10.764285714285716L80.33643217902419,10.55z" stroke="none"/><path d="M42,12.05L42,11.95L42.40786075045278,11.95L42.622146464738485,11.735714285714284L44.3364321790242,11.735714285714284L44.550717893309915,11.521428571428569L45.449282106690085,11.521428571428569L45.692857142857136,11.76500360759563L45.692857142857136,12.23499639240437L45.449282106690085,12.478571428571428L45.020710678118654,12.478571428571428L44.80642496383294,12.692857142857143L34.520710678118654,12.692857142857143L34.30642496383294,12.907142857142858L7.69357503616706,12.907142857142858L7.479289321881345,12.692857142857143L7.265003607595631,12.692857142857143L7.021428571428571,12.449282106690081L7.021428571428571,11.550717893309915L7.265003607595631,11.307142857142857L14.979289321881346,11.307142857142857L15.193575036167061,11.092857142857142L15.622146464738488,11.092857142857142L15.836432179024204,10.878571428571426L16.050717893309915,10.878571428571426L16.46464466094067,10.464644660940673L16.53535533905933,10.535355339059327L16.092139249547223,10.978571428571428L15.877853535261512,10.978571428571428L15.663567820975796,11.192857142857143L15.23499639240437,11.192857142857143L15.020710678118654,11.407142857142858L7.30642496383294,11.407142857142858L7.121428571428571,11.592139249547223L7.121428571428571,12.407860750452773L7.30642496383294,12.592857142857142L7.520710678118655,12.592857142857142L7.734996392404369,12.807142857142857L34.26500360759563,12.807142857142857L34.479289321881346,12.592857142857142L44.76500360759563,12.592857142857142L44.979289321881346,12.378571428571426L45.40786075045278,12.378571428571426L45.59285714285714,12.193575036167061L45.59285714285714,11.806424963832939L45.40786075045278,11.62142857142857L44.59213924954722,11.62142857142857L44.37785353526151,11.835714285714285L42.66356782097579,11.835714285714285L42.449282106690085,12.05z" stroke="none"/><path d="M30,5.95L30,6.05L28.050717893309915,6.05L27.836432179024204,5.835714285714285L27.62214646473849,5.835714285714285L27.407860750452773,5.621428571428571L27.19357503616706,5.621428571428571L26.52142857142857,4.949282106690084L26.52142857142857,4.30642496383294L26.307142857142857,4.092139249547226L26.307142857142857,3.877853535261512L26.09285714285714,3.6635678209757976L26.09285714285714,2.8064249638329404L25.907860750452773,2.6214285714285714L15.407860750452773,2.6214285714285714L15.193575036167061,2.407142857142857L5.163567820975797,2.407142857142857L4.949282106690084,2.6214285714285714L4.734996392404369,2.6214285714285714L4.30642496383294,3.05L3.877853535261512,3.05L3.6635678209757976,3.2642857142857142L3.234996392404369,3.2642857142857142L3.020710678118655,3.478571428571428L2.8064249638329404,3.478571428571428L2.407142857142857,3.877853535261512L2.407142857142857,7.69357503616706L2.5921392495472264,7.878571428571428L3.4078607504527736,7.878571428571428L3.592857142857143,7.69357503616706L3.592857142857143,6.8778535352615116L2.95,6.234996392404369L2.95,6L3.05,6L3.05,6.19357503616706L3.6928571428571426,6.836432179024202L3.6928571428571426,7.734996392404369L3.449282106690083,7.978571428571428L2.550717893309917,7.978571428571428L2.3071428571428574,7.734996392404369L2.3071428571428574,3.8364321790242024L2.765003607595631,3.3785714285714286L2.979289321881345,3.3785714285714286L3.1935750361670596,3.1642857142857146L3.622146464738488,3.1642857142857146L3.8364321790242024,2.95L4.265003607595631,2.95L4.69357503616706,2.521428571428572L4.907860750452774,2.521428571428572L5.122146464738488,2.3071428571428574L15.23499639240437,2.3071428571428574L15.449282106690081,2.521428571428572L25.94928210669008,2.521428571428572L26.192857142857143,2.765003607595631L26.192857142857143,3.622146464738488L26.40714285714286,3.8364321790242024L26.40714285714286,4.050717893309916L26.62142857142857,4.265003607595631L26.62142857142857,4.907860750452774L27.23499639240437,5.521428571428571L27.44928210669008,5.521428571428571L27.663567820975796,5.735714285714286L27.87785353526151,5.735714285714286L28.092139249547223,5.95z" stroke="none"/><path d="M92.96464466094066,2.9646446609406727L93.03535533905931,3.0353553390593273L92.80642496383294,3.2642857142857142L92.59213924954722,3.2642857142857142L91.94928210669008,3.907142857142857L91.73499639240437,3.907142857142857L91.09213924954722,4.55L90.87785353526151,4.55L90.44928210669008,4.978571428571429L71.59213924954722,4.978571428571429L71.37785353526151,5.192857142857142L69.6635678209758,5.192857142857142L69.23499639240437,5.621428571428571L69.02071067811865,5.621428571428571L68.80642496383294,5.835714285714285L68.59213924954722,5.835714285714285L68.37785353526151,6.05L65.99999999999999,6.05L65.99999999999999,5.95L68.33643217902419,5.95L68.5507178933099,5.735714285714286L68.76500360759562,5.735714285714286L68.97928932188132,5.521428571428571L69.19357503616705,5.521428571428571L69.62214646473848,5.0928571428571425L71.33643217902419,5.0928571428571425L71.5507178933099,4.878571428571429L90.40786075045276,4.878571428571429L90.83643217902419,4.45L91.0507178933099,4.45L91.69357503616705,3.8071428571428574L91.90786075045276,3.8071428571428574L92.5507178933099,3.1642857142857146L92.76500360759562,3.1642857142857146z" stroke="none"/><path d="M57.05,10.5L56.95,10.5L56.95,9.663567820975796L55.90786075045277,8.62142857142857L55.69357503616706,8.62142857142857L55.26500360759563,8.192857142857143L50.59213924954722,8.192857142857143L50.40714285714285,8.377853535261512L50.40714285714285,9.622146464738488L51.23499639240437,10.45L51.44928210669008,10.45L51.87785353526151,10.878571428571426L52.09213924954722,10.878571428571426L53.16356782097579,11.95L53.80642496383294,11.95L54.23499639240437,12.378571428571426L54.66356782097579,12.378571428571426L55.30642496383294,13.021428571428569L82.69357503616705,13.021428571428569L83.09285714285714,12.622146464738488L83.09285714285714,11.377853535261512L82.0507178933099,10.335714285714285L81.83643217902419,10.335714285714285L81.19357503616705,9.692857142857143L80.76500360759562,9.692857142857143L80.52142857142856,9.449282106690081L80.52142857142856,8.550717893309915L80.76500360759562,8.307142857142857L88.94928210669008,8.307142857142857L89.37785353526151,8.735714285714284L89.80642496383294,8.735714285714284L90.03535533905931,8.964644660940673L89.96464466094066,9.035355339059327L89.76500360759562,8.835714285714285L89.33643217902419,8.835714285714285L88.90786075045276,8.407142857142858L80.80642496383294,8.407142857142858L80.62142857142855,8.592139249547223L80.62142857142855,9.407860750452773L80.80642496383294,9.592857142857142L81.23499639240437,9.592857142857142L81.87785353526151,10.235714285714284L82.09213924954722,10.235714285714284L83.19285714285714,11.336432179024204L83.19285714285714,12.663567820975796L82.73499639240437,13.12142857142857L55.26500360759563,13.12142857142857L54.622146464738485,12.478571428571428L54.19357503616706,12.478571428571428L53.76500360759563,12.05L53.122146464738485,12.05L52.050717893309915,10.978571428571428L51.8364321790242,10.978571428571428L51.40786075045277,10.55L51.19357503616706,10.55L50.30714285714286,9.663567820975796L50.30714285714286,8.336432179024204L50.550717893309915,8.092857142857142L55.30642496383294,8.092857142857142L55.73499639240437,8.521428571428569L55.94928210669008,8.521428571428569L57.05,9.622146464738488z" stroke="none"/><path d="M91.49999999999999,10.55L91.49999999999999,10.45L95.12214646473846,10.45L95.33643217902419,10.235714285714284L95.76500360759562,10.235714285714284L95.97928932188132,10.021428571428569L96.40786075045276,10.021428571428569L96.83643217902419,9.592857142857142L97.0507178933099,9.592857142857142L98.12214646473846,8.521428571428569L98.33643217902419,8.521428571428569L98.5507178933099,8.307142857142857L98.97928932188132,8.307142857142857L99.37857142857142,7.907860750452773L99.37857142857142,7.092139249547226L99.19357503616705,6.907142857142857L68.37785353526151,6.907142857142857L67.73499639240437,7.55L66.87785353526151,7.55L66.23499639240437,8.192857142857143L66.02071067811865,8.192857142857143L65.59213924954722,8.62142857142857L64.52071067811865,8.62142857142857L64.30642496383294,8.835714285714285L63.23499639240437,8.835714285714285L63.020710678118654,9.05L62.37785353526151,9.05L61.94928210669008,9.478571428571428L59.550717893309915,9.478571428571428L58.050717893309915,7.978571428571428L57.8364321790242,7.978571428571428L57.622146464738485,7.764285714285714L57.19357503616706,7.764285714285714L56.96464466094067,7.535355339059327L57.03535533905933,7.464644660940673L57.23499639240437,7.664285714285715L57.66356782097579,7.664285714285715L57.87785353526151,7.878571428571428L58.09213924954722,7.878571428571428L59.59213924954722,9.378571428571426L61.90786075045277,9.378571428571426L62.3364321790242,8.95L62.979289321881346,8.95L63.19357503616706,8.735714285714284L64.26500360759562,8.735714285714284L64.47928932188132,8.521428571428569L65.5507178933099,8.521428571428569L65.97928932188132,8.092857142857142L66.19357503616705,8.092857142857142L66.83643217902419,7.45L67.69357503616705,7.45L68.33643217902419,6.807142857142857L99.23499639240437,6.807142857142857L99.47857142857141,7.050717893309916L99.47857142857141,7.949282106690083L99.02071067811865,8.407142857142858L98.59213924954722,8.407142857142858L98.37785353526151,8.62142857142857L98.16356782097579,8.62142857142857L97.09213924954722,9.692857142857143L96.87785353526151,9.692857142857143L96.44928210669008,10.12142857142857L96.02071067811865,10.12142857142857L95.80642496383294,10.335714285714285L95.37785353526151,10.335714285714285L95.16356782097579,10.55z" stroke="none"/><path d="M45,10.55L45,10.45L48.66356782097579,10.45L49.09213924954722,10.878571428571426L51.44928210669008,10.878571428571426L51.66356782097579,11.092857142857142L51.87785353526151,11.092857142857142L52.94928210669008,12.164285714285715L53.16356782097579,12.164285714285715L53.37785353526151,12.378571428571426L53.59213924954722,12.378571428571426L54.44928210669008,13.235714285714284L83.5507178933099,13.235714285714284L84.40786075045276,12.378571428571426L84.83643217902419,12.378571428571426L85.0507178933099,12.164285714285715L85.26500360759562,12.164285714285715L85.46464466094066,11.964644660940673L85.53535533905931,12.035355339059327L85.30642496383294,12.264285714285716L85.09213924954722,12.264285714285716L84.87785353526151,12.478571428571428L84.44928210669008,12.478571428571428L83.59213924954722,13.335714285714285L54.40786075045277,13.335714285714285L53.550717893309915,12.478571428571428L53.3364321790242,12.478571428571428L53.122146464738485,12.264285714285716L52.90786075045277,12.264285714285716L51.8364321790242,11.192857142857143L51.622146464738485,11.192857142857143L51.40786075045277,10.978571428571428L49.050717893309915,10.978571428571428L48.622146464738485,10.55z" stroke="none"/><path d="M100.49999999999999,11.95L100.49999999999999,12.05L87.44928210669008,12.05L87.02071067811865,12.478571428571428L85.30642496383294,12.478571428571428L85.09213924954722,12.692857142857143L84.87785353526151,12.692857142857143L84.44928210669008,13.12142857142857L84.23499639240437,13.12142857142857L83.80642496383294,13.55L52.90786075045277,13.55L52.479289321881346,13.12142857142857L52.26500360759563,13.12142857142857L51.40786075045277,12.264285714285716L51.19357503616706,12.264285714285716L50.96464466094067,12.035355339059327L51.03535533905933,11.964644660940673L51.23499639240437,12.164285714285715L51.44928210669008,12.164285714285715L52.30642496383294,13.021428571428569L52.520710678118654,13.021428571428569L52.94928210669008,13.45L83.76500360759562,13.45L84.19357503616705,13.021428571428569L84.40786075045276,13.021428571428569L84.83643217902419,12.592857142857142L85.0507178933099,12.592857142857142L85.26500360759562,12.378571428571426L86.97928932188132,12.378571428571426L87.40786075045276,11.95z" stroke="none"/><path d="M98.96464466094066,6.035355339059327L99.03535533905931,5.964644660940673L99.47857142857141,6.407860750452773L99.47857142857141,6.622146464738488L99.69285714285712,6.836432179024202L99.69285714285712,10.479289321881346L100.52071067811865,11.307142857142857L100.73499639240437,11.307142857142857L100.97857142857141,11.550717893309915L100.97857142857141,12.449282106690081L100.73499639240437,12.692857142857143L85.52071067811865,12.692857142857143L85.30642496383294,12.907142857142858L85.09213924954722,12.907142857142858L84.6635678209758,13.335714285714285L84.44928210669008,13.335714285714285L84.02071067811865,13.764285714285716L50.122146464738485,13.764285714285716L49.26500360759563,12.907142857142858L48.8364321790242,12.907142857142858L48.40786075045277,12.478571428571428L48.19357503616706,12.478571428571428L47.979289321881346,12.264285714285716L47.550717893309915,12.264285714285716L47.3364321790242,12.05L46.90786075045277,12.05L46.479289321881346,11.62142857142857L45.8364321790242,11.62142857142857L45.622146464738485,11.407142857142858L45.19357503616706,11.407142857142858L44.979289321881346,11.192857142857143L44.76500360759563,11.192857142857143L44.52142857142857,10.949282106690081L44.52142857142857,10.050717893309915L44.76500360759563,9.807142857142857L48.44928210669008,9.807142857142857L48.66356782097579,10.021428571428569L48.87785353526151,10.021428571428569L49.09213924954722,10.235714285714284L49.30642496383294,10.235714285714284L49.53535533905933,10.464644660940673L49.46464466094067,10.535355339059327L49.26500360759563,10.335714285714285L49.050717893309915,10.335714285714285L48.8364321790242,10.12142857142857L48.622146464738485,10.12142857142857L48.40786075045277,9.907142857142858L44.80642496383294,9.907142857142858L44.62142857142857,10.092139249547223L44.62142857142857,10.907860750452773L44.80642496383294,11.092857142857142L45.020710678118654,11.092857142857142L45.23499639240437,11.307142857142857L45.66356782097579,11.307142857142857L45.87785353526151,11.521428571428569L46.520710678118654,11.521428571428569L46.94928210669008,11.95L47.37785353526151,11.95L47.59213924954722,12.164285714285715L48.020710678118654,12.164285714285715L48.23499639240437,12.378571428571426L48.44928210669008,12.378571428571426L48.87785353526151,12.807142857142857L49.30642496383294,12.807142857142857L50.16356782097579,13.664285714285715L83.97928932188132,13.664285714285715L84.40786075045276,13.235714285714284L84.62214646473848,13.235714285714284L85.0507178933099,12.807142857142857L85.26500360759562,12.807142857142857L85.47928932188132,12.592857142857142L100.69357503616705,12.592857142857142L100.87857142857142,12.407860750452773L100.87857142857142,11.592139249547223L100.69357503616705,11.407142857142858L100.47928932188132,11.407142857142858L99.59285714285713,10.520710678118654L99.59285714285713,6.8778535352615116L99.37857142857142,6.663567820975797L99.37857142857142,6.449282106690083z" stroke="none"/></svg>