<svg version="1.1" width="105" height="15" xmlns="http://www.w3.org/2000/svg"><path d="M54.44928210669008,8.307142857142857L56.37785353526151,10.235714285714284L56.80642496383294,10.235714285714284L57.03535533905933,10.464644660940673L56.96464466094067,10.535355339059327L56.76500360759563,10.335714285714285L56.3364321790242,10.335714285714285L54.40786075045277,8.407142857142858L41.80642496383294,8.407142857142858L41.59213924954722,8.62142857142857L41.16356782097579,8.62142857142857L40.73499639240437,9.05L40.5,9.05L40.5,8.95L40.69357503616706,8.95L41.122146464738485,8.521428571428569L41.550717893309915,8.521428571428569L41.66500360759563,8.407142857142858L40.949282106690085,8.407142857142858L40.73499639240437,8.62142857142857L40.30642496383294,8.62142857142857L39.020710678118654,9.907142857142858L37.73499639240437,9.907142857142858L37.520710678118654,10.12142857142857L36.87785353526151,10.12142857142857L36.66356782097579,10.335714285714285L36.449282106690085,10.335714285714285L35.16356782097579,11.62142857142857L34.949282106690085,11.62142857142857L34.53535533905933,12.035355339059327L34.46464466094067,11.964644660940673L34.90786075045278,11.521428571428569L35.122146464738485,11.521428571428569L36.40786075045278,10.235714285714284L36.622146464738485,10.235714285714284L36.8364321790242,10.021428571428569L37.479289321881346,10.021428571428569L37.69357503616706,9.807142857142857L38.979289321881346,9.807142857142857L40.26500360759563,8.521428571428569L40.69357503616706,8.521428571428569L40.90786075045278,8.307142857142857z" stroke="none"/><path d="M95.73571428571428,5.979289321881345L95.97928932188132,5.735714285714286L97.73499639240437,5.735714285714286L98.40714285714284,6.407860750452773L98.40714285714284,7.050717893309916L99.04999999999998,7.69357503616706L99.04999999999998,8.122146464738488L99.47857142857141,8.550717893309915L99.47857142857141,9.193575036167061L100.33571428571427,10.050717893309915L100.33571428571427,10.26500360759563L100.53535533905931,10.464644660940673L100.46464466094066,10.535355339059327L100.23571428571428,10.306424963832939L100.23571428571428,10.092139249547223L99.37857142857142,9.23499639240437L99.37857142857142,8.592139249547223L98.94999999999999,8.163567820975796L98.94999999999999,7.734996392404369L98.30714285714285,7.092139249547226L98.30714285714285,6.449282106690083L97.69357503616705,5.835714285714285L96.02071067811865,5.835714285714285L95.83571428571427,6.020710678118655L95.83571428571427,6.164285714285715L97.26500360759562,6.164285714285715L97.46464466094066,5.964644660940673L97.53535533905931,6.035355339059327L97.30642496383294,6.264285714285714L95.83571428571427,6.264285714285714L95.83571428571427,8.76500360759563L96.03535533905931,8.964644660940673L95.96464466094066,9.035355339059327L95.73571428571428,8.806424963832939z" stroke="none"/><path d="M38.37785353526151,4.664285714285715L38.59213924954722,4.878571428571429L49.050717893309915,4.878571428571429L49.46464466094067,4.464644660940673L49.53535533905933,4.535355339059327L49.09213924954722,4.978571428571429L38.550717893309915,4.978571428571429L38.3364321790242,4.764285714285714L31.335714285714285,4.764285714285714L31.335714285714285,8.550717893309915L31.55,8.76500360759563L31.55,9L31.45,9L31.45,8.806424963832939L31.235714285714284,8.592139249547223L31.235714285714284,4.764285714285714L30.87785353526151,4.764285714285714L30.663567820975796,4.978571428571429L24.23499639240437,4.978571428571429L22.520710678118654,6.692857142857142L22.30642496383294,6.692857142857142L22.092139249547227,6.907142857142857L21.44928210669008,6.907142857142857L21.23499639240437,7.121428571428571L20.163567820975796,7.121428571428571L19.73499639240437,7.55L19.5,7.55L19.5,7.45L19.69357503616706,7.45L20.12214646473849,7.021428571428571L21.19357503616706,7.021428571428571L21.407860750452773,6.807142857142857L22.05071789330992,6.807142857142857L22.26500360759563,6.5928571428571425L22.479289321881346,6.5928571428571425L24.19357503616706,4.878571428571429L30.62214646473849,4.878571428571429L30.836432179024204,4.664285714285715z" stroke="none"/><path d="M91.52071067811865,8.307142857142857L91.94928210669008,8.735714285714284L93.87785353526151,8.735714285714284L94.09213924954722,8.95L95.16356782097579,8.95L95.59213924954722,9.378571428571426L96.02071067811865,9.378571428571426L96.87785353526151,10.235714285714284L97.30642496383294,10.235714285714284L97.53535533905931,10.464644660940673L97.46464466094066,10.535355339059327L97.26500360759562,10.335714285714285L96.83643217902419,10.335714285714285L95.97928932188132,9.478571428571428L95.5507178933099,9.478571428571428L95.12214646473846,9.05L94.0507178933099,9.05L93.83643217902419,8.835714285714285L91.90786075045276,8.835714285714285L91.47928932188132,8.407142857142858L90.90714285714284,8.407142857142858L90.90714285714284,8.550717893309915L91.09213924954722,8.735714285714284L91.30642496383294,8.735714285714284L91.52071067811865,8.95L93.44928210669008,8.95L94.30642496383294,9.807142857142857L95.16356782097579,9.807142857142857L95.80642496383294,10.45L97.09213924954722,10.45L97.30642496383294,10.664285714285715L98.16356782097579,10.664285714285715L98.37785353526151,10.878571428571426L98.59213924954722,10.878571428571426L98.80642496383294,11.092857142857142L99.44928210669008,11.092857142857142L100.09213924954722,11.735714285714284L100.30642496383294,11.735714285714284L100.53535533905931,11.964644660940673L100.46464466094066,12.035355339059327L100.26500360759562,11.835714285714285L100.0507178933099,11.835714285714285L99.40786075045276,11.192857142857143L98.76500360759562,11.192857142857143L98.5507178933099,10.978571428571428L98.33643217902419,10.978571428571428L98.12214646473846,10.764285714285716L97.26500360759562,10.764285714285716L97.0507178933099,10.55L95.76500360759562,10.55L95.12214646473846,9.907142857142858L94.26500360759562,9.907142857142858L93.40786075045276,9.05L91.47928932188132,9.05L91.26500360759562,8.835714285714285L91.0507178933099,8.835714285714285L90.80714285714285,8.592139249547223L90.80714285714285,8.407142857142858L84.6635678209758,8.407142857142858L84.44928210669008,8.62142857142857L82.30642496383294,8.62142857142857L82.09213924954722,8.835714285714285L81.6635678209758,8.835714285714285L81.44928210669008,9.05L80.99999999999999,9.05L80.99999999999999,8.95L81.40786075045276,8.95L81.62214646473848,8.735714285714284L82.0507178933099,8.735714285714284L82.26500360759562,8.521428571428569L84.40786075045276,8.521428571428569L84.62214646473848,8.307142857142857z" stroke="none"/><path d="M87.16428571428571,1.6642857142857144L87.16428571428571,1.4792893218813452L87.40786075045276,1.2357142857142858L96.66356782097579,1.2357142857142858L97.09213924954722,1.6642857142857144L97.30642496383294,1.6642857142857144L97.73499639240437,2.092857142857143L97.94928210669008,2.092857142857143L98.59213924954722,2.7357142857142858L98.80642496383294,2.7357142857142858L99.03535533905931,2.9646446609406727L98.96464466094066,3.0353553390593273L98.76500360759562,2.8357142857142854L98.5507178933099,2.8357142857142854L97.90786075045276,2.1928571428571426L97.69357503616705,2.1928571428571426L97.26500360759562,1.7642857142857145L97.0507178933099,1.7642857142857145L96.62214646473846,1.3357142857142859L87.44928210669008,1.3357142857142859L87.2642857142857,1.5207106781186548L87.2642857142857,1.6642857142857144L93.44928210669008,1.6642857142857144L93.66356782097579,1.8785714285714286L94.09213924954722,1.8785714285714286L94.30642496383294,2.092857142857143L94.52071067811865,2.092857142857143L94.73499639240437,2.3071428571428574L94.94928210669008,2.3071428571428574L95.37785353526151,2.7357142857142858L95.80642496383294,2.7357142857142858L96.03535533905931,2.9646446609406727L95.96464466094066,3.0353553390593273L95.76500360759562,2.8357142857142854L95.33643217902419,2.8357142857142854L94.90786075045276,2.407142857142857L94.69357503616705,2.407142857142857L94.47928932188132,2.1928571428571426L94.26500360759562,2.1928571428571426L94.0507178933099,1.9785714285714286L93.62214646473846,1.9785714285714286L93.40786075045276,1.7642857142857145L81.02071067811865,1.7642857142857145L80.80642496383294,1.9785714285714286L80.37785353526151,1.9785714285714286L79.94928210669008,2.407142857142857L79.73499639240437,2.407142857142857L78.02071067811865,4.121428571428571L77.80642496383294,4.121428571428571L77.59213924954722,4.335714285714285L77.1635678209758,4.335714285714285L76.94928210669008,4.55L75.87785353526151,4.55L74.80642496383294,5.621428571428571L74.1635678209758,5.621428571428571L73.94928210669008,5.835714285714285L73.73499639240437,5.835714285714285L73.53535533905931,6.035355339059327L73.46464466094066,5.964644660940673L73.69357503616705,5.735714285714286L73.90786075045276,5.735714285714286L74.12214646473848,5.521428571428571L74.76500360759562,5.521428571428571L75.83643217902419,4.45L76.90786075045276,4.45L77.12214646473848,4.235714285714286L77.5507178933099,4.235714285714286L77.76500360759562,4.021428571428571L77.97928932188132,4.021428571428571L79.69357503616705,2.3071428571428574L79.90786075045276,2.3071428571428574L80.33643217902419,1.8785714285714286L80.76500360759562,1.8785714285714286L80.97928932188132,1.6642857142857144z" stroke="none"/><path d="M26.80642496383294,7.021428571428571L28.73499639240437,8.95L30.44928210669008,8.95L30.663567820975796,9.164285714285715L30.87785353526151,9.164285714285715L31.092139249547223,9.378571428571426L37.26500360759563,9.378571428571426L37.90786075045278,8.735714285714284L39.40786075045278,8.735714285714284L39.8364321790242,8.307142857142857L40.050717893309915,8.307142857142857L40.479289321881346,7.878571428571428L41.76500360759563,7.878571428571428L41.979289321881346,7.664285714285715L42.40786075045278,7.664285714285715L42.622146464738485,7.45L43.5,7.45L43.5,7.55L42.66356782097579,7.55L42.449282106690085,7.764285714285714L42.020710678118654,7.764285714285714L41.80642496383294,7.978571428571428L40.520710678118654,7.978571428571428L40.09213924954722,8.407142857142858L39.87785353526151,8.407142857142858L39.449282106690085,8.835714285714285L37.949282106690085,8.835714285714285L37.30642496383294,9.478571428571428L31.050717893309915,9.478571428571428L30.836432179024204,9.264285714285716L30.62214646473849,9.264285714285716L30.407860750452773,9.05L28.69357503616706,9.05L26.76500360759563,7.121428571428571L26.477853535261513,7.121428571428571L28.73499639240437,9.378571428571426L29.37785353526151,9.378571428571426L29.80642496383294,9.807142857142857L30.020710678118654,9.807142857142857L30.23499639240437,10.021428571428569L31.092139249547223,10.021428571428569L31.30642496383294,10.235714285714284L31.73499639240437,10.235714285714284L32.37785353526151,10.878571428571426L32.59213924954722,10.878571428571426L33.23499639240437,11.521428571428569L33.449282106690085,11.521428571428569L33.90714285714285,11.979289321881346L33.90714285714285,12.193575036167061L34.09213924954722,12.378571428571426L36.8364321790242,12.378571428571426L37.050717893309915,12.164285714285715L39.8364321790242,12.164285714285715L40.050717893309915,11.95L40.5,11.95L40.5,12.05L40.09213924954722,12.05L39.87785353526151,12.264285714285716L37.09213924954722,12.264285714285716L36.87785353526151,12.478571428571428L34.050717893309915,12.478571428571428L33.80714285714286,12.23499639240437L33.80714285714286,12.020710678118654L33.40786075045278,11.62142857142857L33.19357503616706,11.62142857142857L32.550717893309915,10.978571428571428L32.3364321790242,10.978571428571428L31.69357503616706,10.335714285714285L31.26500360759563,10.335714285714285L31.050717893309915,10.12142857142857L30.19357503616706,10.12142857142857L29.979289321881346,9.907142857142858L29.76500360759563,9.907142857142858L29.336432179024204,9.478571428571428L28.69357503616706,9.478571428571428L26.40714285714286,7.192139249547226L26.40714285714286,9.020710678118654L25.94928210669008,9.478571428571428L12.449282106690081,9.478571428571428L12.23499639240437,9.692857142857143L12.020710678118654,9.692857142857143L11.806424963832939,9.907142857142858L10.520710678118654,9.907142857142858L10.306424963832939,10.12142857142857L8.163567820975796,10.12142857142857L7.949282106690083,10.335714285714285L7.734996392404369,10.335714285714285L7.520710678118655,10.55L6,10.55L6,10.45L7.479289321881345,10.45L7.69357503616706,10.235714285714284L7.907860750452773,10.235714285714284L8.122146464738488,10.021428571428569L10.26500360759563,10.021428571428569L10.479289321881346,9.807142857142857L11.76500360759563,9.807142857142857L11.979289321881346,9.592857142857142L12.193575036167061,9.592857142857142L12.407860750452773,9.378571428571426L25.907860750452773,9.378571428571426L26.307142857142857,8.979289321881346L26.307142857142857,7.121428571428571L25.520710678118654,7.121428571428571L25.30642496383294,7.335714285714285L25.092139249547223,7.335714285714285L24.87785353526151,7.55L24,7.55L24,7.45L24.836432179024204,7.45L25.050717893309915,7.235714285714286L25.26500360759563,7.235714285714286L25.479289321881346,7.021428571428571z" stroke="none"/><path d="M28.520710678118654,3.3785714285714286L28.94928210669008,3.8071428571428574L29.163567820975796,3.8071428571428574L29.592139249547223,4.235714285714286L29.80642496383294,4.235714285714286L30.03535533905933,4.464644660940673L29.96464466094067,4.535355339059327L29.76500360759563,4.335714285714285L29.550717893309915,4.335714285714285L29.12214646473849,3.907142857142857L28.907860750452773,3.907142857142857L28.479289321881346,3.478571428571428L22.978571428571428,3.478571428571428L22.978571428571428,3.622146464738488L23.163567820975796,3.8071428571428574L28.520710678118654,3.8071428571428574L28.73499639240437,4.021428571428571L28.94928210669008,4.021428571428571L29.37785353526151,4.45L29.592139249547223,4.45L29.80642496383294,4.664285714285715L30.407860750452773,4.664285714285715L30.62214646473849,4.45L39,4.45L39,4.55L30.663567820975796,4.55L30.44928210669008,4.764285714285714L29.76500360759563,4.764285714285714L29.550717893309915,4.55L29.336432179024204,4.55L28.907860750452773,4.121428571428571L28.69357503616706,4.121428571428571L28.479289321881346,3.907142857142857L23.12214646473849,3.907142857142857L22.878571428571426,3.6635678209757976L22.878571428571426,3.5492821066900833L20.163567820975796,6.264285714285714L19.94928210669008,6.264285714285714L19.121428571428574,7.092139249547226L19.121428571428574,7.907860750452773L19.30642496383294,8.092857142857142L23.592139249547223,8.092857142857142L24.020710678118654,8.521428571428569L24.23499639240437,8.521428571428569L24.44928210669008,8.735714285714284L25.30642496383294,8.735714285714284L25.53535533905933,8.964644660940673L25.46464466094067,9.035355339059327L25.26500360759563,8.835714285714285L24.407860750452773,8.835714285714285L24.19357503616706,8.62142857142857L23.979289321881346,8.62142857142857L23.550717893309915,8.192857142857143L19.26500360759563,8.192857142857143L19.021428571428572,7.949282106690083L19.021428571428572,7.050717893309916L19.907860750452773,6.164285714285715L20.12214646473849,6.164285714285715L22.80786075045277,3.478571428571428L7.734996392404369,3.478571428571428L7.30642496383294,3.907142857142857L7.092139249547226,3.907142857142857L6.8778535352615116,4.121428571428571L6.449282106690083,4.121428571428571L6.035355339059327,4.535355339059327L5.964644660940673,4.464644660940673L6.407860750452773,4.021428571428571L6.836432179024202,4.021428571428571L7.050717893309916,3.8071428571428574L7.265003607595631,3.8071428571428574L7.69357503616706,3.3785714285714286z" stroke="none"/><path d="M85.87857142857142,6.378571428571428L85.87857142857142,6.19357503616706L86.12214646473848,5.95L94.0507178933099,5.95L94.69357503616705,5.307142857142857L98.16356782097579,5.307142857142857L100.33571428571427,7.479289321881345L100.33571428571427,7.907860750452773L100.7642857142857,8.336432179024204L100.7642857142857,8.550717893309915L101.62142857142855,9.407860750452773L101.62142857142855,9.622146464738488L101.83571428571427,9.836432179024204L101.83571428571427,10.26500360759563L102.03535533905931,10.464644660940673L101.96464466094066,10.535355339059327L101.73571428571428,10.306424963832939L101.73571428571428,9.877853535261512L101.52142857142856,9.663567820975796L101.52142857142856,9.449282106690081L100.66428571428571,8.592139249547223L100.66428571428571,8.377853535261512L100.23571428571428,7.949282106690083L100.23571428571428,7.520710678118655L98.12214646473846,5.407142857142857L94.73499639240437,5.407142857142857L94.09213924954722,6.05L86.1635678209758,6.05L85.97857142857141,6.234996392404369L85.97857142857141,6.378571428571428L94.69357503616705,6.378571428571428L95.5507178933099,5.521428571428571L97.94928210669008,5.521428571428571L100.12142857142855,7.69357503616706L100.12142857142855,8.550717893309915L100.54999999999998,8.979289321881346L100.54999999999998,9.407860750452773L100.97857142857141,9.836432179024204L100.97857142857141,10.26500360759563L101.19285714285712,10.479289321881346L101.19285714285712,10.73499639240437L100.94928210669008,10.978571428571428L100.0507178933099,10.978571428571428L97.87857142857142,8.806424963832939L97.87857142857142,8.377853535261512L97.66428571428571,8.163567820975796L97.66428571428571,7.949282106690083L97.44999999999999,7.734996392404369L97.44999999999999,7.5L97.54999999999998,7.5L97.54999999999998,7.69357503616706L97.7642857142857,7.907860750452773L97.7642857142857,8.122146464738488L97.97857142857141,8.336432179024204L97.97857142857141,8.76500360759563L100.09213924954722,10.878571428571426L100.90786075045276,10.878571428571426L101.09285714285713,10.693575036167061L101.09285714285713,10.520710678118654L100.87857142857142,10.306424963832939L100.87857142857142,9.877853535261512L100.44999999999999,9.449282106690081L100.44999999999999,9.020710678118654L100.02142857142856,8.592139249547223L100.02142857142856,7.734996392404369L97.90786075045276,5.621428571428571L95.59213924954722,5.621428571428571L94.73499639240437,6.478571428571428L85.94928210669008,6.478571428571428L85.73499639240437,6.692857142857142L85.52071067811865,6.692857142857142L85.30642496383294,6.907142857142857L85.09213924954722,6.907142857142857L84.6635678209758,7.335714285714285L83.59213924954722,7.335714285714285L83.37785353526151,7.55L82.73499639240437,7.55L82.52071067811865,7.764285714285714L82.30642496383294,7.764285714285714L81.6635678209758,8.407142857142858L80.80642496383294,8.407142857142858L80.62142857142855,8.592139249547223L80.62142857142855,9.407860750452773L80.80642496383294,9.592857142857142L91.09213924954722,9.592857142857142L91.30642496383294,9.807142857142857L91.73499639240437,9.807142857142857L92.16356782097579,10.235714285714284L92.59213924954722,10.235714285714284L92.80642496383294,10.45L92.99999999999999,10.45L92.99999999999999,10.55L92.76500360759562,10.55L92.5507178933099,10.335714285714285L92.12214646473846,10.335714285714285L91.69357503616705,9.907142857142858L91.26500360759562,9.907142857142858L91.0507178933099,9.692857142857143L80.76500360759562,9.692857142857143L80.52142857142856,9.449282106690081L80.52142857142856,8.550717893309915L80.76500360759562,8.307142857142857L81.62214646473848,8.307142857142857L82.26500360759562,7.664285714285715L82.47928932188132,7.664285714285715L82.69357503616705,7.45L83.33643217902419,7.45L83.5507178933099,7.235714285714286L84.62214646473848,7.235714285714286L85.0507178933099,6.807142857142857L85.26500360759562,6.807142857142857L85.47928932188132,6.5928571428571425L85.69357503616705,6.5928571428571425L85.80786075045276,6.478571428571428L85.69357503616705,6.478571428571428L85.44999999999999,6.234996392404369L85.44999999999999,5.979289321881345L85.69357503616705,5.735714285714286L93.62214646473846,5.735714285714286L94.26500360759562,5.0928571428571425L95.76500360759562,5.0928571428571425L95.97928932188132,4.878571428571429L96.40786075045276,4.878571428571429L96.62214646473846,4.664285714285715L97.47928932188132,4.664285714285715L97.90786075045276,4.235714285714286L98.12214646473846,4.235714285714286L98.33643217902419,4.021428571428571L99.19357503616705,4.021428571428571L99.59285714285713,3.622146464738488L99.59285714285713,2.377853535261512L99.40786075045276,2.1928571428571426L99.19357503616705,2.1928571428571426L98.97928932188132,1.9785714285714286L98.76500360759562,1.9785714285714286L98.5507178933099,1.7642857142857145L98.33643217902419,1.7642857142857145L97.69357503616705,1.1214285714285717L97.26500360759562,1.1214285714285717L97.0507178933099,0.9071428571428573L68.80642496383294,0.9071428571428573L68.37785353526151,1.3357142857142859L67.73499639240437,1.3357142857142859L66.6635678209758,2.407142857142857L66.44928210669008,2.407142857142857L66.02071067811865,2.8357142857142854L65.80642496383294,2.8357142857142854L65.1635678209758,3.478571428571428L64.94928210669008,3.478571428571428L64.73499639240437,3.6928571428571426L64.52071067811865,3.6928571428571426L63.66356782097579,4.55L63.23499639240437,4.55L63.020710678118654,4.764285714285714L62.80642496383294,4.764285714285714L62.59213924954722,4.978571428571429L62.37785353526151,4.978571428571429L61.94928210669008,5.407142857142857L61.09213924954722,5.407142857142857L60.66356782097579,5.835714285714285L60.44928210669008,5.835714285714285L60.23499639240437,6.05L60,6.05L60,5.95L60.19357503616706,5.95L60.40786075045277,5.735714285714286L60.622146464738485,5.735714285714286L61.050717893309915,5.307142857142857L61.90786075045277,5.307142857142857L62.3364321790242,4.878571428571429L62.550717893309915,4.878571428571429L62.76500360759563,4.664285714285715L62.979289321881346,4.664285714285715L63.19357503616706,4.45L63.622146464738485,4.45L64.47928932188132,3.592857142857143L64.69357503616705,3.592857142857143L64.90786075045276,3.3785714285714286L65.12214646473848,3.3785714285714286L65.76500360759562,2.7357142857142858L65.97928932188132,2.7357142857142858L66.40786075045276,2.3071428571428574L66.62214646473848,2.3071428571428574L67.69357503616705,1.2357142857142858L68.33643217902419,1.2357142857142858L68.76500360759562,0.8071428571428572L97.09213924954722,0.8071428571428572L97.30642496383294,1.0214285714285716L97.73499639240437,1.0214285714285716L98.37785353526151,1.6642857142857144L98.59213924954722,1.6642857142857144L98.80642496383294,1.8785714285714286L99.02071067811865,1.8785714285714286L99.23499639240437,2.092857142857143L99.44928210669008,2.092857142857143L99.69285714285712,2.3364321790242024L99.69285714285712,3.6635678209757976L99.23499639240437,4.121428571428571L98.37785353526151,4.121428571428571L98.16356782097579,4.335714285714285L97.94928210669008,4.335714285714285L97.52071067811865,4.764285714285714L96.66356782097579,4.764285714285714L96.44928210669008,4.978571428571429L96.02071067811865,4.978571428571429L95.80642496383294,5.192857142857142L94.30642496383294,5.192857142857142L93.66356782097579,5.835714285714285L85.73499639240437,5.835714285714285L85.54999999999998,6.020710678118655L85.54999999999998,6.19357503616706L85.73499639240437,6.378571428571428z" stroke="none"/><path d="M68.30714285714285,3.8071428571428574L68.30714285714285,3.622146464738488L68.5507178933099,3.3785714285714286L77.5507178933099,3.3785714285714286L78.62214646473848,2.3071428571428574L78.83643217902419,2.3071428571428574L79.26500360759562,1.8785714285714286L79.47928932188132,1.8785714285714286L79.69357503616705,1.6642857142857144L80.5507178933099,1.6642857142857144L80.76500360759562,1.45L86.76500360759562,1.45L87.19357503616705,1.0214285714285716L96.87785353526151,1.0214285714285716L97.30642496383294,1.45L97.52071067811865,1.45L97.94928210669008,1.8785714285714286L98.16356782097579,1.8785714285714286L98.59213924954722,2.3071428571428574L99.23499639240437,2.3071428571428574L99.47857142857141,2.550717893309917L99.47857142857141,3.449282106690083L99.23499639240437,3.6928571428571426L85.30642496383294,3.6928571428571426L85.09213924954722,3.907142857142857L84.6635678209758,3.907142857142857L84.03535533905931,4.535355339059327L83.96464466094066,4.464644660940673L84.62214646473848,3.8071428571428574L85.0507178933099,3.8071428571428574L85.26500360759562,3.592857142857143L99.19357503616705,3.592857142857143L99.37857142857142,3.4078607504527736L99.37857142857142,2.5921392495472264L99.19357503616705,2.407142857142857L98.5507178933099,2.407142857142857L98.12214646473846,1.9785714285714286L97.90786075045276,1.9785714285714286L97.47928932188132,1.55L97.26500360759562,1.55L96.83643217902419,1.1214285714285717L87.23499639240437,1.1214285714285717L86.80642496383294,1.55L80.80642496383294,1.55L80.59213924954722,1.7642857142857145L79.73499639240437,1.7642857142857145L79.52071067811865,1.9785714285714286L79.30642496383294,1.9785714285714286L78.87785353526151,2.407142857142857L78.6635678209758,2.407142857142857L77.59213924954722,3.478571428571428L68.59213924954722,3.478571428571428L68.40714285714284,3.6635678209757976L68.40714285714284,3.8071428571428574L68.80642496383294,3.8071428571428574L69.02071067811865,4.021428571428571L69.6635678209758,4.021428571428571L70.09213924954722,4.45L70.30642496383294,4.45L70.52071067811865,4.664285714285715L70.73499639240437,4.664285714285715L70.94928210669008,4.878571428571429L71.1635678209758,4.878571428571429L72.44928210669008,6.164285714285715L72.6635678209758,6.164285714285715L72.87785353526151,6.378571428571428L73.09213924954722,6.378571428571428L74.59213924954722,7.878571428571428L74.80642496383294,7.878571428571428L75.44928210669008,8.521428571428569L75.6635678209758,8.521428571428569L75.87785353526151,8.735714285714284L76.09213924954722,8.735714285714284L76.30642496383294,8.95L76.49999999999999,8.95L76.49999999999999,9.05L76.26500360759562,9.05L76.0507178933099,8.835714285714285L75.83643217902419,8.835714285714285L75.62214646473848,8.62142857142857L75.40786075045276,8.62142857142857L74.76500360759562,7.978571428571428L74.5507178933099,7.978571428571428L73.0507178933099,6.478571428571428L72.83643217902419,6.478571428571428L72.62214646473848,6.264285714285714L72.40786075045276,6.264285714285714L71.12214646473848,4.978571428571429L70.90786075045276,4.978571428571429L70.69357503616705,4.764285714285714L70.47928932188132,4.764285714285714L70.26500360759562,4.55L70.0507178933099,4.55L69.62214646473848,4.121428571428571L68.97928932188132,4.121428571428571L68.76500360759562,3.907142857142857L68.40714285714284,3.907142857142857L68.40714285714284,4.050717893309916L69.6635678209758,5.307142857142857L69.87785353526151,5.307142857142857L70.09213924954722,5.521428571428571L70.30642496383294,5.521428571428571L70.73499639240437,5.95L70.94928210669008,5.95L71.37785353526151,6.378571428571428L71.59213924954722,6.378571428571428L71.80642496383294,6.5928571428571425L72.02071067811865,6.5928571428571425L72.23499639240437,6.807142857142857L73.09213924954722,6.807142857142857L74.59213924954722,8.307142857142857L74.80642496383294,8.307142857142857L75.23499639240437,8.735714285714284L75.44928210669008,8.735714285714284L75.6635678209758,8.95L75.87785353526151,8.95L76.09213924954722,9.164285714285715L76.69357503616705,9.164285714285715L76.87857142857142,8.979289321881346L76.87857142857142,8.550717893309915L77.09285714285714,8.336432179024204L77.09285714285714,7.907860750452773L77.52142857142856,7.479289321881345L77.52142857142856,7.050717893309916L77.73571428571428,6.836432179024202L77.73571428571428,6.622146464738488L79.02142857142856,5.336432179024202L79.02142857142856,5.122146464738488L79.44999999999999,4.69357503616706L79.44999999999999,4.5L79.54999999999998,4.5L79.54999999999998,4.734996392404369L79.12142857142855,5.163567820975797L79.12142857142855,5.3778535352615116L77.83571428571427,6.663567820975797L77.83571428571427,6.8778535352615116L77.62142857142855,7.092139249547226L77.62142857142855,7.520710678118655L77.19285714285714,7.949282106690083L77.19285714285714,8.377853535261512L76.97857142857141,8.592139249547223L76.97857142857141,9.020710678118654L76.73499639240437,9.264285714285716L76.0507178933099,9.264285714285716L75.83643217902419,9.05L75.62214646473848,9.05L75.40786075045276,8.835714285714285L75.19357503616705,8.835714285714285L74.76500360759562,8.407142857142858L74.5507178933099,8.407142857142858L73.0507178933099,6.907142857142857L72.19357503616705,6.907142857142857L71.97928932188132,6.692857142857142L71.76500360759562,6.692857142857142L71.5507178933099,6.478571428571428L71.33643217902419,6.478571428571428L70.90786075045276,6.05L70.69357503616705,6.05L70.26500360759562,5.621428571428571L70.0507178933099,5.621428571428571L69.83643217902419,5.407142857142857L69.62214646473848,5.407142857142857L68.30714285714285,4.092139249547226L68.30714285714285,3.907142857142857L68.1635678209758,3.907142857142857L67.94928210669008,4.121428571428571L67.73499639240437,4.121428571428571L67.52071067811865,4.335714285714285L67.30642496383294,4.335714285714285L67.09213924954722,4.55L65.1635678209758,4.55L64.94928210669008,4.764285714285714L64.73499639240437,4.764285714285714L64.52071067811865,4.978571428571429L63.87785353526151,4.978571428571429L63.66356782097579,5.192857142857142L63.23499639240437,5.192857142857142L63.020710678118654,5.407142857142857L62.37785353526151,5.407142857142857L61.94928210669008,5.835714285714285L61.520710678118654,5.835714285714285L60.87785353526151,6.478571428571428L42.622146464738485,6.478571428571428L42.40786075045278,6.264285714285714L42.19357503616706,6.264285714285714L41.96464466094067,6.035355339059327L42.03535533905933,5.964644660940673L42.23499639240437,6.164285714285715L42.449282106690085,6.164285714285715L42.66356782097579,6.378571428571428L60.8364321790242,6.378571428571428L61.479289321881346,5.735714285714286L61.90786075045277,5.735714285714286L62.3364321790242,5.307142857142857L62.979289321881346,5.307142857142857L63.19357503616706,5.0928571428571425L63.622146464738485,5.0928571428571425L63.8364321790242,4.878571428571429L64.47928932188132,4.878571428571429L64.69357503616705,4.664285714285715L64.90786075045276,4.664285714285715L65.12214646473848,4.45L67.0507178933099,4.45L67.26500360759562,4.235714285714286L67.47928932188132,4.235714285714286L67.69357503616705,4.021428571428571L67.90786075045276,4.021428571428571L68.12214646473848,3.8071428571428574z" stroke="none"/><path d="M67.44999999999999,7.878571428571428L67.44999999999999,7.734996392404369L67.26500360759562,7.55L63.8364321790242,7.55L63.40786075045277,7.121428571428571L50.59213924954722,7.121428571428571L50.37785353526151,7.335714285714285L50.16356782097579,7.335714285714285L49.94928210669008,7.55L48,7.55L48,7.45L49.90786075045277,7.45L50.122146464738485,7.235714285714286L50.3364321790242,7.235714285714286L50.550717893309915,7.021428571428571L63.44928210669008,7.021428571428571L63.87785353526151,7.45L67.30642496383294,7.45L67.54999999999998,7.69357503616706L67.54999999999998,7.878571428571428L73.30642496383294,7.878571428571428L73.52071067811865,8.092857142857142L73.73499639240437,8.092857142857142L73.94928210669008,8.307142857142857L74.1635678209758,8.307142857142857L74.80642496383294,8.95L75.23499639240437,8.95L76.09213924954722,9.807142857142857L76.30642496383294,9.807142857142857L77.37785353526151,10.878571428571426L79.09213924954722,10.878571428571426L79.30642496383294,11.092857142857142L79.52071067811865,11.092857142857142L79.73499639240437,11.307142857142857L79.94928210669008,11.307142857142857L80.37785353526151,11.735714285714284L80.59213924954722,11.735714285714284L80.80642496383294,11.95L80.99999999999999,11.95L80.99999999999999,12.05L80.76500360759562,12.05L80.5507178933099,11.835714285714285L80.33643217902419,11.835714285714285L79.90786075045276,11.407142857142858L79.69357503616705,11.407142857142858L79.47928932188132,11.192857142857143L79.26500360759562,11.192857142857143L79.0507178933099,10.978571428571428L77.33643217902419,10.978571428571428L76.26500360759562,9.907142857142858L76.0507178933099,9.907142857142858L75.19357503616705,9.05L74.76500360759562,9.05L74.12214646473848,8.407142857142858L73.90786075045276,8.407142857142858L73.69357503616705,8.192857142857143L73.47928932188132,8.192857142857143L73.26500360759562,7.978571428571428L67.54999999999998,7.978571428571428L67.54999999999998,8.122146464738488L67.73499639240437,8.307142857142857L72.44928210669008,8.307142857142857L72.6635678209758,8.521428571428569L73.73499639240437,8.521428571428569L74.80642496383294,9.592857142857142L75.02071067811865,9.592857142857142L75.23499639240437,9.807142857142857L75.44928210669008,9.807142857142857L76.09213924954722,10.45L76.30642496383294,10.45L76.52071067811865,10.664285714285715L76.73499639240437,10.664285714285715L77.1635678209758,11.092857142857142L78.87785353526151,11.092857142857142L79.09213924954722,11.307142857142857L79.30642496383294,11.307142857142857L79.52071067811865,11.521428571428569L79.73499639240437,11.521428571428569L80.1635678209758,11.95L80.37785353526151,11.95L80.59213924954722,12.164285714285715L86.37785353526151,12.164285714285715L86.59213924954722,12.378571428571426L95.33643217902419,12.378571428571426L95.76500360759562,11.95L95.99999999999999,11.95L95.99999999999999,12.05L95.80642496383294,12.05L95.37785353526151,12.478571428571428L86.5507178933099,12.478571428571428L86.33643217902419,12.264285714285716L80.5507178933099,12.264285714285716L80.33643217902419,12.05L80.12214646473848,12.05L79.69357503616705,11.62142857142857L79.47928932188132,11.62142857142857L79.26500360759562,11.407142857142858L79.0507178933099,11.407142857142858L78.83643217902419,11.192857142857143L77.12214646473848,11.192857142857143L76.69357503616705,10.764285714285716L76.47928932188132,10.764285714285716L76.26500360759562,10.55L76.0507178933099,10.55L75.40786075045276,9.907142857142858L75.19357503616705,9.907142857142858L74.97928932188132,9.692857142857143L74.76500360759562,9.692857142857143L73.69357503616705,8.62142857142857L72.62214646473848,8.62142857142857L72.40786075045276,8.407142857142858L67.69357503616705,8.407142857142858L67.44999999999999,8.163567820975796L67.44999999999999,7.978571428571428L61.73499639240437,7.978571428571428L61.520710678118654,8.192857142857143L61.30642496383294,8.192857142857143L61.09213924954722,8.407142857142858L60.87785353526151,8.407142857142858L60.66356782097579,8.62142857142857L60.44928210669008,8.62142857142857L58.520710678118654,10.55L58.09213924954722,10.55L57.87785353526151,10.764285714285716L57.66356782097579,10.764285714285716L57.44928210669008,10.978571428571428L56.550717893309915,10.978571428571428L56.122146464738485,10.55L55.90786075045277,10.55L55.479289321881346,10.12142857142857L55.26500360759563,10.12142857142857L54.19357503616706,9.05L54,9.05L54,8.95L54.23499639240437,8.95L55.30642496383294,10.021428571428569L55.520710678118654,10.021428571428569L55.94928210669008,10.45L56.16356782097579,10.45L56.59213924954722,10.878571428571426L57.40786075045277,10.878571428571426L57.622146464738485,10.664285714285715L57.8364321790242,10.664285714285715L58.050717893309915,10.45L58.479289321881346,10.45L60.40786075045277,8.521428571428569L60.622146464738485,8.521428571428569L60.8364321790242,8.307142857142857L61.050717893309915,8.307142857142857L61.26500360759563,8.092857142857142L61.479289321881346,8.092857142857142L61.69357503616706,7.878571428571428z" stroke="none"/><path d="M2.95,3L3.05,3L3.05,4.5L2.95,4.5z" stroke="none"/><path d="M2.95,9L3.05,9L3.05,10.5L2.95,10.5z" stroke="none"/><path d="M41.95,9L42.05,9L42.05,12L41.95,12z" stroke="none"/><path d="M45,4.45L45,4.55L44.3364321790242,4.55L43.69357503616706,3.907142857142857L43.26500360759563,3.907142857142857L43.050717893309915,3.6928571428571426L42.8364321790242,3.6928571428571426L42.40786075045278,3.2642857142857142L42.19357503616706,3.2642857142857142L41.96464466094067,3.0353553390593273L42.03535533905933,2.9646446609406727L42.23499639240437,3.1642857142857146L42.449282106690085,3.1642857142857146L42.87785353526151,3.592857142857143L43.09213924954722,3.592857142857143L43.30642496383294,3.8071428571428574L43.73499639240437,3.8071428571428574L44.37785353526151,4.45z" stroke="none"/><path d="M3.05,6L2.95,6L2.95,5.765003607595631L3.1642857142857146,5.550717893309916L3.1642857142857146,5.336432179024202L3.3785714285714286,5.122146464738488L3.3785714285714286,4.907860750452774L3.592857142857143,4.69357503616706L3.592857142857143,4.265003607595631L3.8071428571428574,4.050717893309916L3.8071428571428574,3.8364321790242024L4.235714285714286,3.4078607504527736L4.235714285714286,3.1935750361670596L4.464644660940673,2.9646446609406727L4.535355339059327,3.0353553390593273L4.335714285714285,3.234996392404369L4.335714285714285,3.449282106690083L3.907142857142857,3.877853535261512L3.907142857142857,4.092139249547226L3.6928571428571426,4.30642496383294L3.6928571428571426,4.734996392404369L3.478571428571428,4.949282106690084L3.478571428571428,5.163567820975797L3.2642857142857142,5.3778535352615116L3.2642857142857142,5.592139249547226L3.05,5.80642496383294z" stroke="none"/><path d="M4.5,7.55L4.5,7.45L5.122146464738488,7.45L5.336432179024202,7.235714285714286L5.550717893309916,7.235714285714286L5.765003607595631,7.021428571428571L8.377853535261512,7.021428571428571L8.806424963832939,7.45L9,7.45L9,7.55L8.76500360759563,7.55L8.336432179024204,7.121428571428571L5.80642496383294,7.121428571428571L5.592139249547226,7.335714285714285L5.3778535352615116,7.335714285714285L5.163567820975797,7.55z" stroke="none"/><path d="M63,7.45L63,7.55L58.5,7.55L58.5,7.45z" stroke="none"/><path d="M77.99999999999999,12.05L77.99999999999999,11.95L79.73499639240437,11.95L80.1635678209758,12.378571428571426L86.1635678209758,12.378571428571426L86.37785353526151,12.592857142857142L96.19357503616705,12.592857142857142L96.37857142857142,12.407860750452773L96.37857142857142,11.592139249547223L96.19357503616705,11.407142857142858L91.90786075045276,11.407142857142858L91.69357503616705,11.192857142857143L91.47928932188132,11.192857142857143L90.83643217902419,10.55L90.19357503616705,10.55L89.5507178933099,9.907142857142858L80.5507178933099,9.907142857142858L80.30714285714285,9.663567820975796L80.30714285714285,4.734996392404369L80.09285714285714,4.520710678118655L80.09285714285714,4.30642496383294L79.90786075045276,4.121428571428571L79.09213924954722,4.121428571428571L76.09213924954722,7.121428571428571L75.87785353526151,7.121428571428571L75.6635678209758,7.335714285714285L75.23499639240437,7.335714285714285L75.03535533905931,7.535355339059327L74.96464466094066,7.464644660940673L75.19357503616705,7.235714285714286L75.62214646473848,7.235714285714286L75.83643217902419,7.021428571428571L76.0507178933099,7.021428571428571L79.0507178933099,4.021428571428571L79.94928210669008,4.021428571428571L80.19285714285714,4.265003607595631L80.19285714285714,4.479289321881345L80.40714285714284,4.69357503616706L80.40714285714284,9.622146464738488L80.59213924954722,9.807142857142857L89.59213924954722,9.807142857142857L90.23499639240437,10.45L90.87785353526151,10.45L91.52071067811865,11.092857142857142L91.73499639240437,11.092857142857142L91.94928210669008,11.307142857142857L96.23499639240437,11.307142857142857L96.47857142857141,11.550717893309915L96.47857142857141,12.449282106690081L96.23499639240437,12.692857142857143L86.33643217902419,12.692857142857143L86.12214646473848,12.478571428571428L80.12214646473848,12.478571428571428L79.69357503616705,12.05z" stroke="none"/><path d="M70.49999999999999,11.95L70.49999999999999,12.05L70.0507178933099,12.05L69.83643217902419,11.835714285714285L69.62214646473848,11.835714285714285L69.19357503616705,11.407142857142858L68.97928932188132,11.407142857142858L68.76500360759562,11.192857142857143L68.5507178933099,11.192857142857143L67.47928932188132,10.12142857142857L67.0507178933099,10.12142857142857L65.96464466094066,9.035355339059327L66.03535533905931,8.964644660940673L67.09213924954722,10.021428571428569L67.52071067811865,10.021428571428569L68.59213924954722,11.092857142857142L68.80642496383294,11.092857142857142L69.02071067811865,11.307142857142857L69.23499639240437,11.307142857142857L69.6635678209758,11.735714285714284L69.87785353526151,11.735714285714284L70.09213924954722,11.95z" stroke="none"/><path d="M59.96464466094067,10.464644660940673L60.03535533905933,10.535355339059327L59.80642496383294,10.764285714285716L59.16356782097579,10.764285714285716L58.73499639240437,11.192857142857143L54.8364321790242,11.192857142857143L54.40786075045277,10.764285714285716L54.19357503616706,10.764285714285716L53.96464466094067,10.535355339059327L54.03535533905933,10.464644660940673L54.23499639240437,10.664285714285715L54.44928210669008,10.664285714285715L54.87785353526151,11.092857142857142L58.69357503616706,11.092857142857142L59.122146464738485,10.664285714285715L59.76500360759563,10.664285714285715z" stroke="none"/><path d="M13.5,12.05L13.5,11.95L16.26500360759563,11.95L16.69357503616706,11.521428571428569L18.44928210669008,11.521428571428569L18.663567820975796,11.735714285714284L19.092139249547227,11.735714285714284L19.30642496383294,11.95L19.5,11.95L19.5,12.05L19.26500360759563,12.05L19.05071789330992,11.835714285714285L18.62214646473849,11.835714285714285L18.407860750452773,11.62142857142857L16.73499639240437,11.62142857142857L16.30642496383294,12.05z" stroke="none"/><path d="M51,11.95L51,12.05L45,12.05L45,11.95z" stroke="none"/><path d="M7.5,7.55L7.5,7.45L8.163567820975796,7.45L8.592139249547223,7.878571428571428L14.336432179024204,7.878571428571428L14.76500360759563,7.45L15,7.45L15,7.55L14.806424963832939,7.55L14.377853535261512,7.978571428571428L8.550717893309915,7.978571428571428L8.122146464738488,7.55z" stroke="none"/><path d="M25.5,12.05L25.5,11.95L28.73499639240437,11.95L28.94928210669008,12.164285714285715L29.37785353526151,12.164285714285715L29.592139249547223,12.378571428571426L32.3364321790242,12.378571428571426L32.76500360759563,11.95L33,11.95L33,12.05L32.80642496383294,12.05L32.37785353526151,12.478571428571428L29.550717893309915,12.478571428571428L29.336432179024204,12.264285714285716L28.907860750452773,12.264285714285716L28.69357503616706,12.05z" stroke="none"/><path d="M33,6.05L33,5.95L40.26500360759563,5.95L40.69357503616706,5.521428571428571L48.622146464738485,5.521428571428571L49.050717893309915,5.0928571428571425L49.69357503616706,5.0928571428571425L49.878571428571426,4.907860750452774L49.878571428571426,4.092139249547226L49.69357503616706,3.907142857142857L45.40786075045278,3.907142857142857L45.19357503616706,3.6928571428571426L44.550717893309915,3.6928571428571426L44.3364321790242,3.478571428571428L44.122146464738485,3.478571428571428L43.90786075045278,3.2642857142857142L43.69357503616706,3.2642857142857142L43.479289321881346,3.05L43.26500360759563,3.05L43.050717893309915,2.8357142857142854L42.8364321790242,2.8357142857142854L42.622146464738485,2.6214285714285714L41.59213924954722,2.6214285714285714L41.192857142857136,3.020710678118655L41.192857142857136,3.234996392404369L40.97857142857143,3.449282106690083L40.97857142857143,3.877853535261512L40.55,4.30642496383294L40.55,4.5L40.45,4.5L40.45,4.265003607595631L40.87857142857143,3.8364321790242024L40.87857142857143,3.4078607504527736L41.09285714285714,3.1935750361670596L41.09285714285714,2.979289321881345L41.550717893309915,2.521428571428572L42.66356782097579,2.521428571428572L42.87785353526151,2.7357142857142858L43.09213924954722,2.7357142857142858L43.30642496383294,2.95L43.520710678118654,2.95L43.73499639240437,3.1642857142857146L43.949282106690085,3.1642857142857146L44.16356782097579,3.3785714285714286L44.37785353526151,3.3785714285714286L44.59213924954722,3.592857142857143L45.23499639240437,3.592857142857143L45.449282106690085,3.8071428571428574L49.73499639240437,3.8071428571428574L49.97857142857142,4.050717893309916L49.97857142857142,4.949282106690084L49.73499639240437,5.192857142857142L49.09213924954722,5.192857142857142L48.66356782097579,5.621428571428571L40.73499639240437,5.621428571428571L40.30642496383294,6.05z" stroke="none"/><path d="M75.03535533905931,6.035355339059327L74.96464466094066,5.964644660940673L76.26500360759562,4.664285714285715L77.12214646473848,4.664285714285715L77.33643217902419,4.45L77.97928932188132,4.45L78.40786075045276,4.021428571428571L78.62214646473848,4.021428571428571L78.83643217902419,3.8071428571428574L80.97928932188132,3.8071428571428574L81.62214646473848,3.1642857142857146L82.26500360759562,3.1642857142857146L82.46464466094066,2.9646446609406727L82.53535533905931,3.0353553390593273L82.30642496383294,3.2642857142857142L81.6635678209758,3.2642857142857142L81.02071067811865,3.907142857142857L78.87785353526151,3.907142857142857L78.6635678209758,4.121428571428571L78.44928210669008,4.121428571428571L78.02071067811865,4.55L77.37785353526151,4.55L77.1635678209758,4.764285714285714L76.30642496383294,4.764285714285714z" stroke="none"/><path d="M46.5,6.05L46.5,5.95L47.3364321790242,5.95L47.550717893309915,5.735714285714286L48.8364321790242,5.735714285714286L49.26500360759563,5.307142857142857L49.90786075045277,5.307142857142857L50.09285714285714,5.122146464738488L50.09285714285714,3.877853535261512L49.90786075045277,3.6928571428571426L45.622146464738485,3.6928571428571426L45.40786075045278,3.478571428571428L45.19357503616706,3.478571428571428L44.979289321881346,3.2642857142857142L44.76500360759563,3.2642857142857142L44.550717893309915,3.05L44.3364321790242,3.05L43.90786075045278,2.6214285714285714L43.26500360759563,2.6214285714285714L43.050717893309915,2.407142857142857L39.87785353526151,2.407142857142857L39.449282106690085,2.8357142857142854L39.23499639240437,2.8357142857142854L39.03535533905933,3.0353553390593273L38.96464466094067,2.9646446609406727L39.19357503616706,2.7357142857142858L39.40786075045278,2.7357142857142858L39.8364321790242,2.3071428571428574L43.09213924954722,2.3071428571428574L43.30642496383294,2.521428571428572L43.949282106690085,2.521428571428572L44.37785353526151,2.95L44.59213924954722,2.95L44.80642496383294,3.1642857142857146L45.020710678118654,3.1642857142857146L45.23499639240437,3.3785714285714286L45.449282106690085,3.3785714285714286L45.66356782097579,3.592857142857143L49.94928210669008,3.592857142857143L50.192857142857136,3.8364321790242024L50.192857142857136,5.163567820975797L49.94928210669008,5.407142857142857L49.30642496383294,5.407142857142857L48.87785353526151,5.835714285714285L47.59213924954722,5.835714285714285L47.37785353526151,6.05z" stroke="none"/><path d="M7.464644660940673,2.9646446609406727L7.535355339059327,3.0353553390593273L7.092139249547226,3.478571428571428L6.8778535352615116,3.478571428571428L6.449282106690083,3.907142857142857L5.80642496383294,3.907142857142857L5.621428571428571,4.092139249547226L5.621428571428571,4.907860750452774L5.80642496383294,5.0928571428571425L13.693575036167061,5.0928571428571425L13.907860750452773,4.878571428571429L15.622146464738488,4.878571428571429L15.836432179024204,4.664285714285715L16.050717893309915,4.664285714285715L16.26500360759563,4.45L16.5,4.45L16.5,4.55L16.30642496383294,4.55L16.092139249547223,4.764285714285714L15.877853535261512,4.764285714285714L15.663567820975796,4.978571428571429L13.949282106690081,4.978571428571429L13.73499639240437,5.192857142857142L5.765003607595631,5.192857142857142L5.521428571428571,4.949282106690084L5.521428571428571,4.050717893309916L5.765003607595631,3.8071428571428574L6.407860750452773,3.8071428571428574L6.836432179024202,3.3785714285714286L7.050717893309916,3.3785714285714286z" stroke="none"/><path d="M77.99999999999999,10.55L77.99999999999999,10.45L84.23499639240437,10.45L84.44928210669008,10.664285714285715L84.87785353526151,10.664285714285715L85.94928210669008,11.735714285714284L86.80642496383294,11.735714285714284L87.03535533905931,11.964644660940673L86.96464466094066,12.035355339059327L86.76500360759562,11.835714285714285L85.90786075045276,11.835714285714285L84.83643217902419,10.764285714285716L84.40786075045276,10.764285714285716L84.19357503616705,10.55z" stroke="none"/><path d="M63.03535533905933,12.035355339059327L62.96464466094067,11.964644660940673L64.66428571428571,10.26500360759563L64.66428571428571,9.836432179024204L65.30714285714285,9.193575036167061L65.30714285714285,8.76500360759563L65.5507178933099,8.521428571428569L71.37785353526151,8.521428571428569L71.59213924954722,8.735714285714284L71.80642496383294,8.735714285714284L72.03535533905931,8.964644660940673L71.96464466094066,9.035355339059327L71.76500360759562,8.835714285714285L71.5507178933099,8.835714285714285L71.33643217902419,8.62142857142857L65.59213924954722,8.62142857142857L65.40714285714284,8.806424963832939L65.40714285714284,9.23499639240437L64.7642857142857,9.877853535261512L64.7642857142857,10.306424963832939z" stroke="none"/><path d="M19.5,8.95L19.5,9.05L9.877853535261512,9.05L9.449282106690081,9.478571428571428L7.520710678118655,9.478571428571428L7.30642496383294,9.692857142857143L6.234996392404369,9.692857142857143L6.020710678118655,9.907142857142858L5.80642496383294,9.907142857142858L5.621428571428571,10.092139249547223L5.621428571428571,10.907860750452773L5.80642496383294,11.092857142857142L8.122146464738488,11.092857142857142L8.550717893309915,10.664285714285715L8.76500360759563,10.664285714285715L8.964644660940673,10.464644660940673L9.035355339059327,10.535355339059327L8.806424963832939,10.764285714285716L8.592139249547223,10.764285714285716L8.163567820975796,11.192857142857143L5.765003607595631,11.192857142857143L5.521428571428571,10.949282106690081L5.521428571428571,10.050717893309915L5.765003607595631,9.807142857142857L5.979289321881345,9.807142857142857L6.19357503616706,9.592857142857142L7.265003607595631,9.592857142857142L7.479289321881345,9.378571428571426L9.407860750452773,9.378571428571426L9.836432179024204,8.95z" stroke="none"/><path d="M88.53535533905931,11.964644660940673L88.46464466094066,12.035355339059327L88.0507178933099,11.62142857142857L86.97928932188132,11.62142857142857L86.5507178933099,11.192857142857143L86.12214646473848,11.192857142857143L85.90786075045276,10.978571428571428L85.69357503616705,10.978571428571428L85.26500360759562,10.55L84.62214646473848,10.55L84.40786075045276,10.335714285714285L79.90786075045276,10.335714285714285L79.02142857142856,9.449282106690081L79.02142857142856,9.23499639240437L78.80714285714285,9.020710678118654L78.80714285714285,8.806424963832939L78.59285714285714,8.592139249547223L78.59285714285714,8.377853535261512L78.16428571428571,7.949282106690083L78.16428571428571,7.734996392404369L77.96464466094066,7.535355339059327L78.03535533905931,7.464644660940673L78.2642857142857,7.69357503616706L78.2642857142857,7.907860750452773L78.69285714285714,8.336432179024204L78.69285714285714,8.550717893309915L78.90714285714284,8.76500360759563L78.90714285714284,8.979289321881346L79.12142857142855,9.193575036167061L79.12142857142855,9.407860750452773L79.94928210669008,10.235714285714284L84.44928210669008,10.235714285714284L84.6635678209758,10.45L85.30642496383294,10.45L85.73499639240437,10.878571428571426L85.94928210669008,10.878571428571426L86.1635678209758,11.092857142857142L86.59213924954722,11.092857142857142L87.02071067811865,11.521428571428569L88.09213924954722,11.521428571428569z" stroke="none"/><path d="M51,2.95L51,3.05L49.69357503616706,3.05L49.479289321881346,2.8357142857142854L48.622146464738485,2.8357142857142854L48.40786075045277,2.6214285714285714L44.550717893309915,2.6214285714285714L44.122146464738485,2.1928571428571426L39.020710678118654,2.1928571428571426L38.16356782097579,3.05L37.5,3.05L37.5,2.95L38.122146464738485,2.95L38.979289321881346,2.092857142857143L44.16356782097579,2.092857142857143L44.59213924954722,2.521428571428572L48.44928210669008,2.521428571428572L48.66356782097579,2.7357142857142858L49.520710678118654,2.7357142857142858L49.73499639240437,2.95z" stroke="none"/><path d="M22.5,10.45L22.5,10.55L10.092139249547223,10.55L9.663567820975796,10.978571428571428L9.449282106690081,10.978571428571428L9.23499639240437,11.192857142857143L9.020710678118654,11.192857142857143L8.806424963832939,11.407142857142858L5.550717893309916,11.407142857142858L5.307142857142857,11.163567820975796L5.307142857142857,9.836432179024204L5.550717893309916,9.592857142857142L5.765003607595631,9.592857142857142L5.979289321881345,9.378571428571426L6.407860750452773,9.378571428571426L6.622146464738488,9.164285714285715L8.550717893309915,9.164285714285715L8.76500360759563,8.95L9,8.95L9,9.05L8.806424963832939,9.05L8.592139249547223,9.264285714285716L6.663567820975797,9.264285714285716L6.449282106690083,9.478571428571428L6.020710678118655,9.478571428571428L5.80642496383294,9.692857142857143L5.592139249547226,9.692857142857143L5.407142857142857,9.877853535261512L5.407142857142857,11.122146464738488L5.592139249547226,11.307142857142857L8.76500360759563,11.307142857142857L8.979289321881346,11.092857142857142L9.193575036167061,11.092857142857142L9.407860750452773,10.878571428571426L9.622146464738488,10.878571428571426L10.050717893309915,10.45z" stroke="none"/><path d="M81.03535533905931,6.035355339059327L80.96464466094066,5.964644660940673L82.90786075045276,4.021428571428571L83.76500360759562,4.021428571428571L83.97928932188132,3.8071428571428574L84.19357503616705,3.8071428571428574L84.40786075045276,3.592857142857143L84.83643217902419,3.592857142857143L85.0507178933099,3.3785714285714286L93.62214646473846,3.3785714285714286L93.83643217902419,3.1642857142857146L94.26500360759562,3.1642857142857146L94.46464466094066,2.9646446609406727L94.53535533905931,3.0353553390593273L94.30642496383294,3.2642857142857142L93.87785353526151,3.2642857142857142L93.66356782097579,3.478571428571428L85.09213924954722,3.478571428571428L84.87785353526151,3.6928571428571426L84.44928210669008,3.6928571428571426L84.23499639240437,3.907142857142857L84.02071067811865,3.907142857142857L83.80642496383294,4.121428571428571L82.94928210669008,4.121428571428571z" stroke="none"/><path d="M79.46464466094066,9.035355339059327L79.53535533905931,8.964644660940673L80.19285714285714,9.622146464738488L80.19285714285714,9.836432179024204L80.37785353526151,10.021428571428569L88.52071067811865,10.021428571428569L88.94928210669008,10.45L89.37785353526151,10.45L90.02071067811865,11.092857142857142L90.23499639240437,11.092857142857142L90.44928210669008,11.307142857142857L90.6635678209758,11.307142857142857L90.87785353526151,11.521428571428569L91.73499639240437,11.521428571428569L91.94928210669008,11.735714285714284L92.16356782097579,11.735714285714284L92.37785353526151,11.95L92.99999999999999,11.95L92.99999999999999,12.05L92.33643217902419,12.05L92.12214646473846,11.835714285714285L91.90786075045276,11.835714285714285L91.69357503616705,11.62142857142857L90.83643217902419,11.62142857142857L90.62214646473848,11.407142857142858L90.40786075045276,11.407142857142858L90.19357503616705,11.192857142857143L89.97928932188132,11.192857142857143L89.33643217902419,10.55L88.90786075045276,10.55L88.47928932188132,10.12142857142857L80.33643217902419,10.12142857142857L80.09285714285714,9.877853535261512L80.09285714285714,9.663567820975796z" stroke="none"/><path d="M18,11.95L18,12.05L16.73499639240437,12.05L16.520710678118654,12.264285714285716L14.592139249547223,12.264285714285716L14.377853535261512,12.478571428571428L3.622146464738488,12.478571428571428L3.4078607504527736,12.264285714285716L3.1935750361670596,12.264285714285716L2.9646446609406727,12.035355339059327L3.0353553390593273,11.964644660940673L3.234996392404369,12.164285714285715L3.449282106690083,12.164285714285715L3.6635678209757976,12.378571428571426L14.336432179024204,12.378571428571426L14.550717893309915,12.164285714285715L16.479289321881346,12.164285714285715L16.69357503616706,11.95z" stroke="none"/><path d="M4.535355339059327,4.535355339059327L4.464644660940673,4.464644660940673L6.19357503616706,2.7357142857142858L6.407860750452773,2.7357142857142858L6.622146464738488,2.521428571428572L18.020710678118654,2.521428571428572L18.23499639240437,2.7357142857142858L18.44928210669008,2.7357142857142858L18.663567820975796,2.95L19.5,2.95L19.5,3.05L18.62214646473849,3.05L18.407860750452773,2.8357142857142854L18.19357503616706,2.8357142857142854L17.979289321881346,2.6214285714285714L6.663567820975797,2.6214285714285714L6.449282106690083,2.8357142857142854L6.234996392404369,2.8357142857142854z" stroke="none"/><path d="M31.5,3.05L31.5,2.95L32.76500360759563,2.95L32.979289321881346,2.7357142857142858L33.8364321790242,2.7357142857142858L34.050717893309915,2.521428571428572L37.90786075045278,2.521428571428572L38.3364321790242,2.092857142857143L38.550717893309915,2.092857142857143L38.76500360759563,1.8785714285714286L44.37785353526151,1.8785714285714286L44.59213924954722,2.092857142857143L51.020710678118654,2.092857142857143L51.47857142857142,2.550717893309917L51.47857142857142,3.449282106690083L51.23499639240437,3.6928571428571426L50.550717893309915,3.6928571428571426L50.3364321790242,3.478571428571428L48.622146464738485,3.478571428571428L48.19357503616706,3.05L48,3.05L48,2.95L48.23499639240437,2.95L48.66356782097579,3.3785714285714286L50.37785353526151,3.3785714285714286L50.59213924954722,3.592857142857143L51.19357503616706,3.592857142857143L51.378571428571426,3.4078607504527736L51.378571428571426,2.5921392495472264L50.979289321881346,2.1928571428571426L44.550717893309915,2.1928571428571426L44.3364321790242,1.9785714285714286L38.80642496383294,1.9785714285714286L38.59213924954722,2.1928571428571426L38.37785353526151,2.1928571428571426L37.949282106690085,2.6214285714285714L34.09213924954722,2.6214285714285714L33.87785353526151,2.8357142857142854L33.020710678118654,2.8357142857142854L32.80642496383294,3.05z" stroke="none"/><path d="M18,4.45L18,4.55L17.592139249547227,4.55L17.37785353526151,4.764285714285714L17.163567820975796,4.764285714285714L16.94928210669008,4.978571428571429L16.30642496383294,4.978571428571429L16.092139249547223,5.192857142857142L14.592139249547223,5.192857142857142L14.377853535261512,5.407142857142857L4.479289321881345,5.407142857142857L4.021428571428571,4.949282106690084L4.021428571428571,4.050717893309916L4.69357503616706,3.3785714285714286L4.907860750452774,3.3785714285714286L5.550717893309916,2.7357142857142858L5.765003607595631,2.7357142857142858L5.979289321881345,2.521428571428572L6.19357503616706,2.521428571428572L6.407860750452773,2.3071428571428574L29.37785353526151,2.3071428571428574L29.80642496383294,2.7357142857142858L30.020710678118654,2.7357142857142858L30.23499639240437,2.95L30.44928210669008,2.95L30.663567820975796,3.1642857142857146L30.87785353526151,3.1642857142857146L31.092139249547223,3.3785714285714286L34.050717893309915,3.3785714285714286L34.46464466094067,2.9646446609406727L34.53535533905933,3.0353553390593273L34.09213924954722,3.478571428571428L31.050717893309915,3.478571428571428L30.836432179024204,3.2642857142857142L30.62214646473849,3.2642857142857142L30.407860750452773,3.05L30.19357503616706,3.05L29.979289321881346,2.8357142857142854L29.76500360759563,2.8357142857142854L29.336432179024204,2.407142857142857L6.449282106690083,2.407142857142857L6.234996392404369,2.6214285714285714L6.020710678118655,2.6214285714285714L5.80642496383294,2.8357142857142854L5.592139249547226,2.8357142857142854L4.949282106690084,3.478571428571428L4.734996392404369,3.478571428571428L4.121428571428571,4.092139249547226L4.121428571428571,4.907860750452774L4.520710678118655,5.307142857142857L14.336432179024204,5.307142857142857L14.550717893309915,5.0928571428571425L16.050717893309915,5.0928571428571425L16.26500360759563,4.878571428571429L16.907860750452773,4.878571428571429L17.12214646473849,4.664285714285715L17.336432179024204,4.664285714285715L17.55071789330992,4.45z" stroke="none"/><path d="M51,10.45L51,10.55L45.23499639240437,10.55L45.020710678118654,10.764285714285716L44.80642496383294,10.764285714285716L44.16356782097579,11.407142857142858L43.949282106690085,11.407142857142858L43.73499639240437,11.62142857142857L43.520710678118654,11.62142857142857L42.449282106690085,12.692857142857143L25.26500360759563,12.692857142857143L25.02142857142857,12.449282106690081L25.02142857142857,11.550717893309915L25.26500360759563,11.307142857142857L28.73499639240437,11.307142857142857L28.94928210669008,11.521428571428569L29.37785353526151,11.521428571428569L29.80642496383294,11.95L30,11.95L30,12.05L29.76500360759563,12.05L29.336432179024204,11.62142857142857L28.907860750452773,11.62142857142857L28.69357503616706,11.407142857142858L25.30642496383294,11.407142857142858L25.12142857142857,11.592139249547223L25.12142857142857,12.407860750452773L25.30642496383294,12.592857142857142L42.40786075045278,12.592857142857142L43.479289321881346,11.521428571428569L43.69357503616706,11.521428571428569L43.90786075045278,11.307142857142857L44.122146464738485,11.307142857142857L44.76500360759563,10.664285714285715L44.979289321881346,10.664285714285715L45.19357503616706,10.45z" stroke="none"/><path d="M99.03535533905931,8.964644660940673L98.96464466094066,9.035355339059327L98.52142857142856,8.592139249547223L98.52142857142856,7.949282106690083L98.30714285714285,7.734996392404369L98.30714285714285,7.520710678118655L97.90786075045276,7.121428571428571L97.09213924954722,7.121428571428571L96.90714285714284,7.30642496383294L96.90714285714284,7.479289321881345L97.12142857142855,7.69357503616706L97.12142857142855,7.907860750452773L97.7642857142857,8.550717893309915L97.7642857142857,8.979289321881346L99.87785353526151,11.092857142857142L100.30642496383294,11.092857142857142L100.52071067811865,11.307142857142857L100.73499639240437,11.307142857142857L100.97857142857141,11.550717893309915L100.97857142857141,12.449282106690081L100.73499639240437,12.692857142857143L97.52071067811865,12.692857142857143L97.30642496383294,12.907142857142858L85.26500360759562,12.907142857142858L85.0507178933099,12.692857142857143L77.5507178933099,12.692857142857143L77.33643217902419,12.478571428571428L76.90786075045276,12.478571428571428L76.46464466094066,12.035355339059327L76.53535533905931,11.964644660940673L76.94928210669008,12.378571428571426L77.37785353526151,12.378571428571426L77.59213924954722,12.592857142857142L85.09213924954722,12.592857142857142L85.30642496383294,12.807142857142857L97.26500360759562,12.807142857142857L97.47928932188132,12.592857142857142L100.69357503616705,12.592857142857142L100.87857142857142,12.407860750452773L100.87857142857142,11.592139249547223L100.69357503616705,11.407142857142858L100.47928932188132,11.407142857142858L100.26500360759562,11.192857142857143L99.83643217902419,11.192857142857143L97.66428571428571,9.020710678118654L97.66428571428571,8.592139249547223L97.02142857142856,7.949282106690083L97.02142857142856,7.734996392404369L96.80714285714285,7.520710678118655L96.80714285714285,7.265003607595631L97.0507178933099,7.021428571428571L97.94928210669008,7.021428571428571L98.40714285714284,7.479289321881345L98.40714285714284,7.69357503616706L98.62142857142855,7.907860750452773L98.62142857142855,8.550717893309915z" stroke="none"/><path d="M4.5,12.05L4.5,11.95L12.622146464738488,11.95L13.050717893309915,11.521428571428569L16.26500360759563,11.521428571428569L16.479289321881346,11.307142857142857L24.836432179024204,11.307142857142857L25.050717893309915,11.092857142857142L29.12214646473849,11.092857142857142L29.76500360759563,10.45L30,10.45L30,10.55L29.80642496383294,10.55L29.163567820975796,11.192857142857143L25.092139249547223,11.192857142857143L24.87785353526151,11.407142857142858L16.520710678118654,11.407142857142858L16.30642496383294,11.62142857142857L13.092139249547223,11.62142857142857L12.663567820975796,12.05z" stroke="none"/><path d="M34.5,7.55L34.5,7.45L40.479289321881346,7.45L40.69357503616706,7.235714285714286L42.622146464738485,7.235714285714286L42.8364321790242,7.021428571428571L50.122146464738485,7.021428571428571L50.3364321790242,6.807142857142857L59.3364321790242,6.807142857142857L59.550717893309915,6.5928571428571425L61.050717893309915,6.5928571428571425L61.479289321881346,6.164285714285715L63.19357503616706,6.164285714285715L63.40786075045277,5.95L64.49999999999999,5.95L64.49999999999999,6.05L63.44928210669008,6.05L63.23499639240437,6.264285714285714L61.520710678118654,6.264285714285714L61.09213924954722,6.692857142857142L59.59213924954722,6.692857142857142L59.37785353526151,6.907142857142857L50.37785353526151,6.907142857142857L50.16356782097579,7.121428571428571L42.87785353526151,7.121428571428571L42.66356782097579,7.335714285714285L40.73499639240437,7.335714285714285L40.520710678118654,7.55z" stroke="none"/><path d="M24,10.45L24,10.55L23.80642496383294,10.55L23.592139249547223,10.764285714285716L23.37785353526151,10.764285714285716L23.163567820975796,10.978571428571428L10.092139249547223,10.978571428571428L9.663567820975796,11.407142857142858L9.23499639240437,11.407142857142858L9.020710678118654,11.62142857142857L2.5921392495472264,11.62142857142857L2.407142857142857,11.806424963832939L2.407142857142857,12.193575036167061L2.5921392495472264,12.378571428571426L3.234996392404369,12.378571428571426L3.449282106690083,12.592857142857142L24.87785353526151,12.592857142857142L25.092139249547223,12.807142857142857L47.122146464738485,12.807142857142857L47.3364321790242,12.592857142857142L47.550717893309915,12.592857142857142L47.76500360759563,12.378571428571426L51.622146464738485,12.378571428571426L51.8364321790242,12.164285714285715L54.19357503616706,12.164285714285715L54.40786075045277,11.95L55.5,11.95L55.5,12.05L54.44928210669008,12.05L54.23499639240437,12.264285714285716L51.87785353526151,12.264285714285716L51.66356782097579,12.478571428571428L47.80642496383294,12.478571428571428L47.59213924954722,12.692857142857143L47.37785353526151,12.692857142857143L47.16356782097579,12.907142857142858L25.050717893309915,12.907142857142858L24.836432179024204,12.692857142857143L3.4078607504527736,12.692857142857143L3.1935750361670596,12.478571428571428L2.550717893309917,12.478571428571428L2.3071428571428574,12.23499639240437L2.3071428571428574,11.76500360759563L2.550717893309917,11.521428571428569L8.979289321881346,11.521428571428569L9.193575036167061,11.307142857142857L9.622146464738488,11.307142857142857L10.050717893309915,10.878571428571426L23.12214646473849,10.878571428571426L23.336432179024204,10.664285714285715L23.550717893309915,10.664285714285715L23.76500360759563,10.45z" stroke="none"/><path d="M7.5,4.55L7.5,4.45L13.26500360759563,4.45L13.479289321881346,4.235714285714286L14.76500360759563,4.235714285714286L14.979289321881346,4.021428571428571L18.44928210669008,4.021428571428571L18.692857142857143,4.265003607595631L18.692857142857143,4.734996392404369L15.449282106690081,7.978571428571428L14.806424963832939,7.978571428571428L14.592139249547223,8.192857142857143L6.8778535352615116,8.192857142857143L5.592139249547226,9.478571428571428L5.3778535352615116,9.478571428571428L3.6635678209757976,11.192857142857143L3.449282106690083,11.192857142857143L3.234996392404369,11.407142857142858L2.377853535261512,11.407142857142858L2.1928571428571426,11.592139249547223L2.1928571428571426,12.407860750452773L2.377853535261512,12.592857142857142L3.020710678118655,12.592857142857142L3.234996392404369,12.807142857142857L24.663567820975796,12.807142857142857L24.87785353526151,13.021428571428569L55.26500360759563,13.021428571428569L55.878571428571426,12.407860750452773L55.878571428571426,11.592139249547223L55.69357503616706,11.407142857142858L53.979289321881346,11.407142857142858L53.3364321790242,10.764285714285716L52.90786075045277,10.764285714285716L52.69357503616706,10.55L52.050717893309915,10.55L51.622146464738485,10.12142857142857L44.76500360759563,10.12142857142857L43.90786075045278,9.264285714285716L43.69357503616706,9.264285714285716L43.46464466094067,9.035355339059327L43.53535533905933,8.964644660940673L43.73499639240437,9.164285714285715L43.949282106690085,9.164285714285715L44.80642496383294,10.021428571428569L51.66356782097579,10.021428571428569L52.09213924954722,10.45L52.73499639240437,10.45L52.94928210669008,10.664285714285715L53.37785353526151,10.664285714285715L54.020710678118654,11.307142857142857L55.73499639240437,11.307142857142857L55.97857142857142,11.550717893309915L55.97857142857142,12.449282106690081L55.30642496383294,13.12142857142857L24.836432179024204,13.12142857142857L24.62214646473849,12.907142857142858L3.1935750361670596,12.907142857142858L2.979289321881345,12.692857142857143L2.3364321790242024,12.692857142857143L2.092857142857143,12.449282106690081L2.092857142857143,11.550717893309915L2.3364321790242024,11.307142857142857L3.1935750361670596,11.307142857142857L3.4078607504527736,11.092857142857142L3.622146464738488,11.092857142857142L5.336432179024202,9.378571428571426L5.550717893309916,9.378571428571426L6.836432179024202,8.092857142857142L14.550717893309915,8.092857142857142L14.76500360759563,7.878571428571428L15.407860750452773,7.878571428571428L18.59285714285714,4.69357503616706L18.59285714285714,4.30642496383294L18.407860750452773,4.121428571428571L15.020710678118654,4.121428571428571L14.806424963832939,4.335714285714285L13.520710678118654,4.335714285714285L13.306424963832939,4.55z" stroke="none"/><path d="M12,5.95L12,6.05L7.949282106690083,6.05L7.734996392404369,6.264285714285714L6.663567820975797,6.264285714285714L6.449282106690083,6.478571428571428L2.550717893309917,6.478571428571428L2.3071428571428574,6.234996392404369L2.3071428571428574,2.765003607595631L2.550717893309917,2.521428571428572L5.550717893309916,2.521428571428572L5.765003607595631,2.3071428571428574L5.979289321881345,2.3071428571428574L6.19357503616706,2.092857142857143L37.69357503616706,2.092857142857143L37.90786075045278,1.8785714285714286L38.3364321790242,1.8785714285714286L38.550717893309915,1.6642857142857144L51.020710678118654,1.6642857142857144L51.692857142857136,2.3364321790242024L51.692857142857136,3.6635678209757976L51.05,4.30642496383294L51.05,4.5L50.95,4.5L50.95,4.265003607595631L51.59285714285714,3.622146464738488L51.59285714285714,2.377853535261512L50.979289321881346,1.7642857142857145L38.59213924954722,1.7642857142857145L38.37785353526151,1.9785714285714286L37.949282106690085,1.9785714285714286L37.73499639240437,2.1928571428571426L6.234996392404369,2.1928571428571426L6.020710678118655,2.407142857142857L5.80642496383294,2.407142857142857L5.592139249547226,2.6214285714285714L2.5921392495472264,2.6214285714285714L2.407142857142857,2.8064249638329404L2.407142857142857,6.19357503616706L2.5921392495472264,6.378571428571428L6.407860750452773,6.378571428571428L6.622146464738488,6.164285714285715L7.69357503616706,6.164285714285715L7.907860750452773,5.95z" stroke="none"/><path d="M55.5,4.55L55.5,4.45L61.90786075045277,4.45L62.122146464738485,4.235714285714286L62.3364321790242,4.235714285714286L62.76500360759563,3.8071428571428574L62.979289321881346,3.8071428571428574L63.622146464738485,3.1642857142857146L63.8364321790242,3.1642857142857146L64.47928932188132,2.521428571428572L65.12214646473848,2.521428571428572L65.33643217902419,2.3071428571428574L65.5507178933099,2.3071428571428574L65.76500360759562,2.092857142857143L66.19357503616705,2.092857142857143L66.40786075045276,1.8785714285714286L66.62214646473848,1.8785714285714286L67.90786075045276,0.592857142857143L97.52071067811865,0.592857142857143L97.73499639240437,0.8071428571428572L97.94928210669008,0.8071428571428572L98.59213924954722,1.45L98.80642496383294,1.45L99.02071067811865,1.6642857142857144L99.23499639240437,1.6642857142857144L99.44928210669008,1.8785714285714286L99.66356782097579,1.8785714285714286L99.90714285714284,2.122146464738488L99.90714285714284,5.979289321881345L100.12142857142855,6.19357503616706L100.12142857142855,6.622146464738488L100.97857142857141,7.479289321881345L100.97857142857141,7.69357503616706L102.04999999999998,8.76500360759563L102.04999999999998,9L101.94999999999999,9L101.94999999999999,8.806424963832939L100.87857142857142,7.734996392404369L100.87857142857142,7.520710678118655L100.02142857142856,6.663567820975797L100.02142857142856,6.234996392404369L99.80714285714285,6.020710678118655L99.80714285714285,2.1635678209757976L99.62214646473846,1.9785714285714286L99.40786075045276,1.9785714285714286L99.19357503616705,1.7642857142857145L98.97928932188132,1.7642857142857145L98.76500360759562,1.55L98.5507178933099,1.55L97.90786075045276,0.9071428571428573L97.69357503616705,0.9071428571428573L97.47928932188132,0.6928571428571431L67.94928210669008,0.6928571428571431L66.6635678209758,1.9785714285714286L66.44928210669008,1.9785714285714286L66.23499639240437,2.1928571428571426L65.80642496383294,2.1928571428571426L65.59213924954722,2.407142857142857L65.37785353526151,2.407142857142857L65.1635678209758,2.6214285714285714L64.52071067811865,2.6214285714285714L63.87785353526151,3.2642857142857142L63.66356782097579,3.2642857142857142L63.020710678118654,3.907142857142857L62.80642496383294,3.907142857142857L62.37785353526151,4.335714285714285L62.16356782097579,4.335714285714285L61.94928210669008,4.55z" stroke="none"/><path d="M6,6.05L6,5.95L7.479289321881345,5.95L7.69357503616706,5.735714285714286L11.336432179024204,5.735714285714286L11.550717893309915,5.521428571428571L12.449282106690081,5.521428571428571L12.692857142857143,5.765003607595631L12.692857142857143,6.234996392404369L12.449282106690081,6.478571428571428L7.092139249547226,6.478571428571428L6.8778535352615116,6.692857142857142L2.3364321790242024,6.692857142857142L2.092857142857143,6.449282106690083L2.092857142857143,2.550717893309917L2.3364321790242024,2.3071428571428574L5.122146464738488,2.3071428571428574L5.336432179024202,2.092857142857143L5.765003607595631,2.092857142857143L5.979289321881345,1.8785714285714286L37.479289321881346,1.8785714285714286L37.69357503616706,1.6642857142857144L38.122146464738485,1.6642857142857144L38.3364321790242,1.45L51.23499639240437,1.45L55.55,5.765003607595631L55.55,6L55.45,6L55.45,5.80642496383294L51.19357503616706,1.55L38.37785353526151,1.55L38.16356782097579,1.7642857142857145L37.73499639240437,1.7642857142857145L37.520710678118654,1.9785714285714286L6.020710678118655,1.9785714285714286L5.80642496383294,2.1928571428571426L5.3778535352615116,2.1928571428571426L5.163567820975797,2.407142857142857L2.377853535261512,2.407142857142857L2.1928571428571426,2.5921392495472264L2.1928571428571426,6.407860750452773L2.377853535261512,6.5928571428571425L6.836432179024202,6.5928571428571425L7.050717893309916,6.378571428571428L12.407860750452773,6.378571428571428L12.592857142857142,6.19357503616706L12.592857142857142,5.80642496383294L12.407860750452773,5.621428571428571L11.592139249547223,5.621428571428571L11.377853535261512,5.835714285714285L7.734996392404369,5.835714285714285L7.520710678118655,6.05z" stroke="none"/><path d="M62.96464466094067,8.964644660940673L63.03535533905933,9.035355339059327L60.87785353526151,11.192857142857143L59.16356782097579,11.192857142857143L58.94928210669008,11.407142857142858L57.87785353526151,11.407142857142858L56.80642496383294,12.478571428571428L56.59213924954722,12.478571428571428L55.94928210669008,13.12142857142857L55.73499639240437,13.12142857142857L55.520710678118654,13.335714285714285L2.550717893309917,13.335714285714285L1.8785714285714286,12.663567820975796L1.8785714285714286,9.407860750452773L2.092857142857143,9.193575036167061L2.092857142857143,8.979289321881346L4.050717893309916,7.021428571428571L4.907860750452774,7.021428571428571L5.122146464738488,6.807142857142857L12.877853535261512,6.807142857142857L13.535355339059327,7.464644660940673L13.464644660940673,7.535355339059327L12.836432179024204,6.907142857142857L5.163567820975797,6.907142857142857L4.949282106690084,7.121428571428571L4.092139249547226,7.121428571428571L2.1928571428571426,9.020710678118654L2.1928571428571426,9.23499639240437L1.9785714285714286,9.449282106690081L1.9785714285714286,12.622146464738488L2.5921392495472264,13.235714285714284L55.479289321881346,13.235714285714284L55.69357503616706,13.021428571428569L55.90786075045277,13.021428571428569L56.550717893309915,12.378571428571426L56.76500360759563,12.378571428571426L57.8364321790242,11.307142857142857L58.90786075045277,11.307142857142857L59.122146464738485,11.092857142857142L60.8364321790242,11.092857142857142z" stroke="none"/></svg>