<svg version="1.1" width="105" height="15" xmlns="http://www.w3.org/2000/svg"><path d="M8.092857142857142,7.050717893309916L8.336432179024204,6.807142857142857L8.592139249547223,6.807142857142857L8.806424963832939,7.021428571428571L9.020710678118654,7.021428571428571L10.764285714285716,8.76500360759563L10.764285714285716,11.806424963832939L10.535355339059327,12.035355339059327L10.464644660940673,11.964644660940673L10.664285714285715,11.76500360759563L10.664285714285715,8.806424963832939L8.979289321881346,7.121428571428571L8.76500360759563,7.121428571428571L8.550717893309915,6.907142857142857L8.377853535261512,6.907142857142857L8.192857142857143,7.092139249547226L8.192857142857143,7.235714285714286L8.806424963832939,7.235714285714286L9.035355339059327,7.464644660940673L8.964644660940673,7.535355339059327L8.76500360759563,7.335714285714285L8.192857142857143,7.335714285714285L8.192857142857143,7.479289321881345L9.23499639240437,8.521428571428569L9.449282106690081,8.521428571428569L9.877853535261512,8.95L10.5,8.95L10.5,9.05L9.836432179024204,9.05L9.407860750452773,8.62142857142857L9.193575036167061,8.62142857142857L8.092857142857142,7.520710678118655z" stroke="none"/><path d="M67.52071067811865,3.8071428571428574L67.73499639240437,4.021428571428571L67.94928210669008,4.021428571428571L68.1635678209758,4.235714285714286L68.80642496383294,4.235714285714286L69.02071067811865,4.45L69.44928210669008,4.45L70.52071067811865,5.521428571428571L70.94928210669008,5.521428571428571L71.37785353526151,5.95L71.59213924954722,5.95L72.23499639240437,6.5928571428571425L73.09213924954722,6.5928571428571425L73.52071067811865,7.021428571428571L73.73499639240437,7.021428571428571L75.02071067811865,8.307142857142857L75.44928210669008,8.307142857142857L75.6635678209758,8.521428571428569L75.87785353526151,8.521428571428569L76.09213924954722,8.735714285714284L76.30642496383294,8.735714285714284L76.53535533905931,8.964644660940673L76.46464466094066,9.035355339059327L76.26500360759562,8.835714285714285L76.0507178933099,8.835714285714285L75.83643217902419,8.62142857142857L75.62214646473848,8.62142857142857L75.40786075045276,8.407142857142858L74.97928932188132,8.407142857142858L73.69357503616705,7.121428571428571L73.47928932188132,7.121428571428571L73.0507178933099,6.692857142857142L72.19357503616705,6.692857142857142L71.5507178933099,6.05L71.33643217902419,6.05L70.90786075045276,5.621428571428571L70.47928932188132,5.621428571428571L69.40786075045276,4.55L68.97928932188132,4.55L68.76500360759562,4.335714285714285L68.12214646473848,4.335714285714285L67.90786075045276,4.121428571428571L67.69357503616705,4.121428571428571L67.47928932188132,3.907142857142857L53.40714285714285,3.907142857142857L53.40714285714285,4.092139249547226L52.73499639240437,4.764285714285714L40.949282106690085,4.764285714285714L40.73499639240437,4.978571428571429L38.3364321790242,4.978571428571429L37.90786075045278,4.55L37.5,4.55L37.5,4.45L37.949282106690085,4.45L38.37785353526151,4.878571428571429L40.69357503616706,4.878571428571429L40.90786075045278,4.664285714285715L52.69357503616706,4.664285714285715L53.30714285714286,4.050717893309916L53.30714285714286,3.907142857142857L53.16356782097579,3.907142857142857L52.53535533905933,4.535355339059327L52.46464466094067,4.464644660940673L53.122146464738485,3.8071428571428574z" stroke="none"/><path d="M69.23499639240437,5.735714285714286L69.6635678209758,6.164285714285715L69.87785353526151,6.164285714285715L70.09213924954722,6.378571428571428L71.59213924954722,6.378571428571428L72.02071067811865,6.807142857142857L72.23499639240437,6.807142857142857L72.44928210669008,7.021428571428571L72.6635678209758,7.021428571428571L73.52071067811865,7.878571428571428L74.1635678209758,7.878571428571428L75.02071067811865,8.735714285714284L75.23499639240437,8.735714285714284L75.6635678209758,9.164285714285715L75.87785353526151,9.164285714285715L76.09213924954722,9.378571428571426L83.97928932188132,9.378571428571426L84.40786075045276,8.95L85.0507178933099,8.95L85.47928932188132,8.521428571428569L86.33643217902419,8.521428571428569L86.5507178933099,8.307142857142857L86.76500360759562,8.307142857142857L86.97928932188132,8.092857142857142L87.19357503616705,8.092857142857142L87.40786075045276,7.878571428571428L87.62214646473848,7.878571428571428L87.83643217902419,7.664285714285715L89.5507178933099,7.664285714285715L89.76500360759562,7.45L89.99999999999999,7.45L89.99999999999999,7.55L89.80642496383294,7.55L89.59213924954722,7.764285714285714L87.87785353526151,7.764285714285714L87.6635678209758,7.978571428571428L87.44928210669008,7.978571428571428L87.23499639240437,8.192857142857143L87.02071067811865,8.192857142857143L86.80642496383294,8.407142857142858L86.59213924954722,8.407142857142858L86.37785353526151,8.62142857142857L85.52071067811865,8.62142857142857L85.09213924954722,9.05L84.44928210669008,9.05L84.02071067811865,9.478571428571428L76.0507178933099,9.478571428571428L75.83643217902419,9.264285714285716L75.62214646473848,9.264285714285716L75.19357503616705,8.835714285714285L74.97928932188132,8.835714285714285L74.12214646473848,7.978571428571428L73.47928932188132,7.978571428571428L72.62214646473848,7.121428571428571L72.40786075045276,7.121428571428571L72.19357503616705,6.907142857142857L71.97928932188132,6.907142857142857L71.5507178933099,6.478571428571428L70.0507178933099,6.478571428571428L69.83643217902419,6.264285714285714L69.62214646473848,6.264285714285714L69.19357503616705,5.835714285714285L65.83571428571427,5.835714285714285L65.83571428571427,6.020710678118655L65.59213924954722,6.264285714285714L62.16356782097579,6.264285714285714L61.94928210669008,6.478571428571428L59.37785353526151,6.478571428571428L59.16356782097579,6.692857142857142L58.94928210669008,6.692857142857142L57.87785353526151,7.764285714285714L57.66356782097579,7.764285714285714L57.44928210669008,7.978571428571428L57.23499639240437,7.978571428571428L56.80642496383294,8.407142857142858L55.520710678118654,8.407142857142858L55.30642496383294,8.62142857142857L55.09213924954722,8.62142857142857L54.87785353526151,8.835714285714285L54.66356782097579,8.835714285714285L54.23499639240437,9.264285714285716L54.020710678118654,9.264285714285716L53.80642496383294,9.478571428571428L51.44928210669008,9.478571428571428L50.80642496383294,10.12142857142857L50.37785353526151,10.12142857142857L50.16356782097579,10.335714285714285L49.94928210669008,10.335714285714285L49.73499639240437,10.55L49.5,10.55L49.5,10.45L49.69357503616706,10.45L49.90786075045277,10.235714285714284L50.122146464738485,10.235714285714284L50.3364321790242,10.021428571428569L50.76500360759563,10.021428571428569L51.40786075045277,9.378571428571426L53.76500360759563,9.378571428571426L53.979289321881346,9.164285714285715L54.19357503616706,9.164285714285715L54.622146464738485,8.735714285714284L54.8364321790242,8.735714285714284L55.050717893309915,8.521428571428569L55.26500360759563,8.521428571428569L55.479289321881346,8.307142857142857L56.76500360759563,8.307142857142857L57.19357503616706,7.878571428571428L57.40786075045277,7.878571428571428L57.622146464738485,7.664285714285715L57.8364321790242,7.664285714285715L58.90786075045277,6.5928571428571425L59.122146464738485,6.5928571428571425L59.3364321790242,6.378571428571428L61.90786075045277,6.378571428571428L62.122146464738485,6.164285714285715L65.5507178933099,6.164285714285715L65.73571428571428,5.979289321881345L65.73571428571428,5.835714285714285L65.37785353526151,5.835714285714285L65.1635678209758,6.05L64.49999999999999,6.05L64.49999999999999,5.95L65.12214646473848,5.95L65.33643217902419,5.735714285714286z" stroke="none"/><path d="M28.73499639240437,2.7357142857142858L28.94928210669008,2.95L29.163567820975796,2.95L29.592139249547223,3.3785714285714286L34.520710678118654,3.3785714285714286L35.16356782097579,4.021428571428571L35.37785353526151,4.021428571428571L35.59213924954722,4.235714285714286L36.020710678118654,4.235714285714286L36.449282106690085,4.664285714285715L36.87785353526151,4.664285714285715L37.09213924954722,4.878571428571429L37.73499639240437,4.878571428571429L37.949282106690085,5.0928571428571425L44.37785353526151,5.0928571428571425L44.80642496383294,5.521428571428571L46.09213924954722,5.521428571428571L46.30642496383294,5.735714285714286L46.520710678118654,5.735714285714286L46.73499639240437,5.95L46.94928210669008,5.95L47.37785353526151,6.378571428571428L48.66356782097579,6.378571428571428L48.87785353526151,6.5928571428571425L49.09213924954722,6.5928571428571425L49.30642496383294,6.807142857142857L50.16356782097579,6.807142857142857L50.59213924954722,7.235714285714286L50.80642496383294,7.235714285714286L51.03535533905933,7.464644660940673L50.96464466094067,7.535355339059327L50.76500360759563,7.335714285714285L50.550717893309915,7.335714285714285L50.122146464738485,6.907142857142857L49.26500360759563,6.907142857142857L49.050717893309915,6.692857142857142L48.8364321790242,6.692857142857142L48.622146464738485,6.478571428571428L47.3364321790242,6.478571428571428L46.90786075045277,6.05L46.69357503616706,6.05L46.479289321881346,5.835714285714285L46.26500360759563,5.835714285714285L46.050717893309915,5.621428571428571L44.76500360759563,5.621428571428571L44.3364321790242,5.192857142857142L37.90786075045278,5.192857142857142L37.69357503616706,4.978571428571429L37.050717893309915,4.978571428571429L36.8364321790242,4.764285714285714L36.40786075045278,4.764285714285714L35.979289321881346,4.335714285714285L35.550717893309915,4.335714285714285L35.3364321790242,4.121428571428571L35.122146464738485,4.121428571428571L34.479289321881346,3.478571428571428L29.550717893309915,3.478571428571428L29.12214646473849,3.05L28.907860750452773,3.05L28.69357503616706,2.8357142857142854L25.83499639240437,2.8357142857142854L25.978571428571428,2.979289321881345L25.978571428571428,3.1935750361670596L26.62142857142857,3.8364321790242024L26.62142857142857,4.050717893309916L27.03535533905933,4.464644660940673L26.96464466094067,4.535355339059327L26.52142857142857,4.092139249547226L26.52142857142857,3.877853535261512L25.878571428571426,3.234996392404369L25.878571428571426,3.020710678118655L25.69357503616706,2.8357142857142854L12.622146464738488,2.8357142857142854L12.407860750452773,2.6214285714285714L10.092139249547223,2.6214285714285714L9.877853535261512,2.8357142857142854L7.092139249547226,2.8357142857142854L6.8778535352615116,3.05L6,3.05L6,2.95L6.836432179024202,2.95L7.050717893309916,2.7357142857142858L9.836432179024204,2.7357142857142858L10.050717893309915,2.521428571428572L12.449282106690081,2.521428571428572L12.663567820975796,2.7357142857142858z" stroke="none"/><path d="M34.520710678118654,8.735714285714284L34.73499639240437,8.95L34.949282106690085,8.95L35.37785353526151,9.378571428571426L43.949282106690085,9.378571428571426L44.59213924954722,10.021428571428569L44.80642496383294,10.021428571428569L45.449282106690085,10.664285714285715L45.66356782097579,10.664285714285715L45.87785353526151,10.878571428571426L46.30642496383294,10.878571428571426L46.520710678118654,11.092857142857142L46.73499639240437,11.092857142857142L46.94928210669008,11.307142857142857L47.16356782097579,11.307142857142857L47.80642496383294,11.95L48,11.95L48,12.05L47.76500360759563,12.05L47.122146464738485,11.407142857142858L46.90786075045277,11.407142857142858L46.69357503616706,11.192857142857143L46.479289321881346,11.192857142857143L46.26500360759563,10.978571428571428L45.8364321790242,10.978571428571428L45.622146464738485,10.764285714285716L45.40786075045278,10.764285714285716L44.76500360759563,10.12142857142857L44.550717893309915,10.12142857142857L43.90786075045278,9.478571428571428L35.3364321790242,9.478571428571428L34.90786075045278,9.05L34.69357503616706,9.05L34.479289321881346,8.835714285714285L25.73499639240437,8.835714285714285L22.53535533905933,12.035355339059327L22.46464466094067,11.964644660940673L25.59357503616706,8.835714285714285L17.12214646473849,8.835714285714285L16.907860750452773,8.62142857142857L14.377853535261512,8.62142857142857L14.163567820975796,8.835714285714285L13.949282106690081,8.835714285714285L13.73499639240437,9.05L13.5,9.05L13.5,8.95L13.693575036167061,8.95L13.907860750452773,8.735714285714284L14.122146464738488,8.735714285714284L14.336432179024204,8.521428571428569L16.94928210669008,8.521428571428569L17.163567820975796,8.735714285714284z" stroke="none"/><path d="M85.02142857142856,7.45L85.02142857142856,7.265003607595631L85.26500360759562,7.021428571428571L89.12214646473848,7.021428571428571L89.33643217902419,6.807142857142857L90.6635678209758,6.807142857142857L90.90714285714284,7.050717893309916L90.90714285714284,7.949282106690083L90.44928210669008,8.407142857142858L89.80642496383294,8.407142857142858L89.37785353526151,8.835714285714285L88.94928210669008,8.835714285714285L88.73499639240437,9.05L88.49999999999999,9.05L88.49999999999999,8.95L88.69357503616705,8.95L88.90786075045276,8.735714285714284L89.33643217902419,8.735714285714284L89.76500360759562,8.307142857142857L90.40786075045276,8.307142857142857L90.80714285714285,7.907860750452773L90.80714285714285,7.092139249547226L90.62214646473848,6.907142857142857L89.37785353526151,6.907142857142857L89.1635678209758,7.121428571428571L85.30642496383294,7.121428571428571L85.12142857142855,7.30642496383294L85.12142857142855,7.45L89.12214646473848,7.45L89.5507178933099,7.021428571428571L90.44928210669008,7.021428571428571L90.69285714285714,7.265003607595631L90.69285714285714,7.734996392404369L90.44928210669008,7.978571428571428L89.37785353526151,7.978571428571428L88.52071067811865,8.835714285714285L87.44928210669008,8.835714285714285L87.23499639240437,9.05L86.99999999999999,9.05L86.99999999999999,8.95L87.19357503616705,8.95L87.40786075045276,8.735714285714284L88.47928932188132,8.735714285714284L89.33643217902419,7.878571428571428L90.40786075045276,7.878571428571428L90.59285714285714,7.69357503616706L90.59285714285714,7.30642496383294L90.40786075045276,7.121428571428571L89.59213924954722,7.121428571428571L89.1635678209758,7.55L85.09213924954722,7.55L84.87785353526151,7.764285714285714L84.6635678209758,7.764285714285714L84.44928210669008,7.978571428571428L84.23499639240437,7.978571428571428L84.02071067811865,8.192857142857143L83.80642496383294,8.192857142857143L83.1635678209758,8.835714285714285L82.94928210669008,8.835714285714285L82.73499639240437,9.05L82.49999999999999,9.05L82.49999999999999,8.95L82.69357503616705,8.95L82.90786075045276,8.735714285714284L83.12214646473848,8.735714285714284L83.76500360759562,8.092857142857142L83.97928932188132,8.092857142857142L84.19357503616705,7.878571428571428L84.40786075045276,7.878571428571428L84.62214646473848,7.664285714285715L84.83643217902419,7.664285714285715L84.9507178933099,7.55L84.83643217902419,7.55L84.59285714285714,7.30642496383294L84.59285714285714,7.050717893309916L84.83643217902419,6.807142857142857L88.90786075045276,6.807142857142857L89.12214646473848,6.5928571428571425L90.87785353526151,6.5928571428571425L91.12142857142855,6.836432179024202L91.12142857142855,10.693575036167061L91.33571428571427,10.907860750452773L91.33571428571427,11.550717893309915L91.54999999999998,11.76500360759563L91.54999999999998,12L91.44999999999999,12L91.44999999999999,11.806424963832939L91.23571428571428,11.592139249547223L91.23571428571428,10.949282106690081L91.02142857142856,10.73499639240437L91.02142857142856,6.8778535352615116L90.83643217902419,6.692857142857142L89.1635678209758,6.692857142857142L88.94928210669008,6.907142857142857L84.87785353526151,6.907142857142857L84.69285714285714,7.092139249547226L84.69285714285714,7.265003607595631L84.87785353526151,7.45z" stroke="none"/><path d="M73.87857142857142,9.378571428571426L73.87857142857142,9.23499639240437L73.69357503616705,9.05L72.6635678209758,9.05L72.44928210669008,9.264285714285716L71.1635678209758,9.264285714285716L70.94928210669008,9.478571428571428L61.520710678118654,9.478571428571428L61.30642496383294,9.692857142857143L60.44928210669008,9.692857142857143L60.23499639240437,9.907142857142858L60.020710678118654,9.907142857142858L59.80642496383294,10.12142857142857L54.23499639240437,10.12142857142857L54.020710678118654,10.335714285714285L53.16356782097579,10.335714285714285L52.73499639240437,10.764285714285716L52.520710678118654,10.764285714285716L52.09213924954722,11.192857142857143L51.87785353526151,11.192857142857143L51.020710678118654,12.05L49.5,12.05L49.5,11.95L50.979289321881346,11.95L51.8364321790242,11.092857142857142L52.050717893309915,11.092857142857142L52.479289321881346,10.664285714285715L52.69357503616706,10.664285714285715L53.122146464738485,10.235714285714284L53.979289321881346,10.235714285714284L54.19357503616706,10.021428571428569L59.76500360759563,10.021428571428569L59.979289321881346,9.807142857142857L60.19357503616706,9.807142857142857L60.40786075045277,9.592857142857142L61.26500360759563,9.592857142857142L61.479289321881346,9.378571428571426L70.90786075045276,9.378571428571426L71.12214646473848,9.164285714285715L72.40786075045276,9.164285714285715L72.62214646473848,8.95L73.73499639240437,8.95L73.97857142857141,9.193575036167061L73.97857142857141,9.378571428571426L75.6635678209758,9.378571428571426L75.87785353526151,9.592857142857142L84.23499639240437,9.592857142857142L84.44928210669008,9.807142857142857L84.6635678209758,9.807142857142857L85.09213924954722,10.235714285714284L85.30642496383294,10.235714285714284L85.53535533905931,10.464644660940673L85.46464466094066,10.535355339059327L85.26500360759562,10.335714285714285L85.0507178933099,10.335714285714285L84.62214646473848,9.907142857142858L84.40786075045276,9.907142857142858L84.19357503616705,9.692857142857143L75.83643217902419,9.692857142857143L75.62214646473848,9.478571428571428L73.97857142857141,9.478571428571428L73.97857142857141,9.622146464738488L74.40714285714284,10.050717893309915L74.40714285714284,10.26500360759563L74.62142857142855,10.479289321881346L74.62142857142855,10.907860750452773L74.83571428571427,11.122146464738488L74.83571428571427,11.550717893309915L75.04999999999998,11.76500360759563L75.04999999999998,12L74.94999999999999,12L74.94999999999999,11.806424963832939L74.73571428571428,11.592139249547223L74.73571428571428,11.163567820975796L74.52142857142856,10.949282106690081L74.52142857142856,10.520710678118654L74.30714285714285,10.306424963832939L74.30714285714285,10.092139249547223L73.87857142857142,9.663567820975796L73.87857142857142,9.478571428571428L73.73499639240437,9.478571428571428L73.54999999999998,9.663567820975796L73.54999999999998,10.479289321881346L74.19285714285714,11.122146464738488L74.19285714285714,11.336432179024204L74.62142857142855,11.76500360759563L74.62142857142855,11.979289321881346L74.80642496383294,12.164285714285715L83.37785353526151,12.164285714285715L83.59213924954722,12.378571428571426L93.40786075045276,12.378571428571426L93.62214646473846,12.164285714285715L94.0507178933099,12.164285714285715L94.26500360759562,11.95L94.49999999999999,11.95L94.49999999999999,12.05L94.30642496383294,12.05L94.09213924954722,12.264285714285716L93.66356782097579,12.264285714285716L93.44928210669008,12.478571428571428L83.5507178933099,12.478571428571428L83.33643217902419,12.264285714285716L74.76500360759562,12.264285714285716L74.52142857142856,12.020710678118654L74.52142857142856,11.806424963832939L74.09285714285714,11.377853535261512L74.09285714285714,11.163567820975796L73.44999999999999,10.520710678118654L73.44999999999999,9.622146464738488L73.69357503616705,9.378571428571426z" stroke="none"/><path d="M87.83643217902419,3.3785714285714286L88.26500360759562,2.95L89.99999999999999,2.95L89.99999999999999,3.05L88.30642496383294,3.05L87.87785353526151,3.478571428571428L78.12071067811864,3.478571428571428L79.7642857142857,5.122146464738488L79.7642857142857,5.336432179024202L80.19285714285714,5.765003607595631L80.19285714285714,5.979289321881345L80.62142857142855,6.407860750452773L80.62142857142855,6.622146464738488L80.83571428571427,6.836432179024202L80.83571428571427,7.050717893309916L81.04999999999998,7.265003607595631L81.04999999999998,7.5L80.94999999999999,7.5L80.94999999999999,7.30642496383294L80.73571428571428,7.092139249547226L80.73571428571428,6.8778535352615116L80.52142857142856,6.663567820975797L80.52142857142856,6.449282106690083L80.09285714285714,6.020710678118655L80.09285714285714,5.80642496383294L79.66428571428571,5.3778535352615116L79.66428571428571,5.163567820975797L77.99999999999999,3.499282106690083L77.83571428571427,3.6635678209757976L77.83571428571427,4.30642496383294L77.40714285714284,4.734996392404369L77.40714285714284,5.163567820975797L76.53535533905931,6.035355339059327L76.46464466094066,5.964644660940673L77.30714285714285,5.122146464738488L77.30714285714285,4.69357503616706L77.73571428571428,4.265003607595631L77.73571428571428,3.622146464738488L77.87928932188133,3.478571428571428L77.59213924954722,3.478571428571428L76.94928210669008,4.121428571428571L76.73499639240437,4.121428571428571L76.52071067811865,4.335714285714285L76.09213924954722,4.335714285714285L75.87785353526151,4.55L75.23499639240437,4.55L73.73499639240437,6.05L73.49999999999999,6.05L73.49999999999999,5.95L73.69357503616705,5.95L75.19357503616705,4.45L75.83643217902419,4.45L76.0507178933099,4.235714285714286L76.47928932188132,4.235714285714286L76.69357503616705,4.021428571428571L76.90786075045276,4.021428571428571L77.5507178933099,3.3785714285714286z" stroke="none"/><path d="M30.44928210669008,4.878571428571429L31.94928210669008,6.378571428571428L32.80642496383294,6.378571428571428L33.87785353526151,7.45L34.09213924954722,7.45L34.73499639240437,8.092857142857142L34.949282106690085,8.092857142857142L35.59213924954722,8.735714285714284L35.80642496383294,8.735714285714284L36.03535533905933,8.964644660940673L35.96464466094067,9.035355339059327L35.76500360759563,8.835714285714285L35.550717893309915,8.835714285714285L34.90786075045278,8.192857142857143L34.69357503616706,8.192857142857143L34.050717893309915,7.55L33.8364321790242,7.55L32.76500360759563,6.478571428571428L31.907860750452773,6.478571428571428L30.407860750452773,4.978571428571429L22.55,4.978571428571429L22.55,5.122146464738488L22.73499639240437,5.307142857142857L29.163567820975796,5.307142857142857L29.592139249547223,5.735714285714286L29.80642496383294,5.735714285714286L30.020710678118654,5.95L30.23499639240437,5.95L30.44928210669008,6.164285714285715L30.663567820975796,6.164285714285715L31.092139249547223,6.5928571428571425L31.94928210669008,6.5928571428571425L32.16356782097579,6.807142857142857L32.37785353526151,6.807142857142857L32.59213924954722,7.021428571428571L32.80642496383294,7.021428571428571L33.449282106690085,7.664285714285715L33.66356782097579,7.664285714285715L34.30642496383294,8.307142857142857L34.520710678118654,8.307142857142857L34.949282106690085,8.735714285714284L35.16356782097579,8.735714285714284L35.59213924954722,9.164285714285715L36.19357503616706,9.164285714285715L36.37857142857143,8.979289321881346L36.37857142857143,8.550717893309915L36.59285714285714,8.336432179024204L36.59285714285714,8.122146464738488L36.80714285714286,7.907860750452773L36.80714285714286,7.479289321881345L37.23571428571429,7.050717893309916L37.23571428571429,6.407860750452773L37.45,6.19357503616706L37.45,6L37.55,6L37.55,6.234996392404369L37.33571428571428,6.449282106690083L37.33571428571428,7.092139249547226L36.90714285714285,7.520710678118655L36.90714285714285,7.949282106690083L36.692857142857136,8.163567820975796L36.692857142857136,8.377853535261512L36.47857142857143,8.592139249547223L36.47857142857143,9.020710678118654L36.23499639240437,9.264285714285716L35.550717893309915,9.264285714285716L35.122146464738485,8.835714285714285L34.90786075045278,8.835714285714285L34.479289321881346,8.407142857142858L34.26500360759563,8.407142857142858L33.622146464738485,7.764285714285714L33.40786075045278,7.764285714285714L32.76500360759563,7.121428571428571L32.550717893309915,7.121428571428571L32.3364321790242,6.907142857142857L32.122146464738485,6.907142857142857L31.907860750452773,6.692857142857142L31.050717893309915,6.692857142857142L30.62214646473849,6.264285714285714L30.407860750452773,6.264285714285714L30.19357503616706,6.05L29.979289321881346,6.05L29.76500360759563,5.835714285714285L29.550717893309915,5.835714285714285L29.12214646473849,5.407142857142857L22.69357503616706,5.407142857142857L22.45,5.163567820975797L22.45,5.049282106690083L22.30642496383294,5.192857142857142L22.092139249547227,5.192857142857142L21.87785353526151,5.407142857142857L21.44928210669008,5.407142857142857L21.23499639240437,5.621428571428571L20.163567820975796,5.621428571428571L19.73499639240437,6.05L18,6.05L18,5.95L19.69357503616706,5.95L20.12214646473849,5.521428571428571L21.19357503616706,5.521428571428571L21.407860750452773,5.307142857142857L21.836432179024204,5.307142857142857L22.05071789330992,5.0928571428571425L22.26500360759563,5.0928571428571425L22.379289321881345,4.978571428571429L12.23499639240437,4.978571428571429L11.806424963832939,5.407142857142857L11.377853535261512,5.407142857142857L11.163567820975796,5.621428571428571L10.092139249547223,5.621428571428571L9.449282106690081,6.264285714285714L9.23499639240437,6.264285714285714L9.020710678118654,6.478571428571428L8.806424963832939,6.478571428571428L8.592139249547223,6.692857142857142L8.163567820975796,6.692857142857142L7.764285714285714,7.092139249547226L7.764285714285714,7.30642496383294L7.535355339059327,7.535355339059327L7.464644660940673,7.464644660940673L7.664285714285715,7.265003607595631L7.664285714285715,7.050717893309916L8.122146464738488,6.5928571428571425L8.550717893309915,6.5928571428571425L8.76500360759563,6.378571428571428L8.979289321881346,6.378571428571428L9.193575036167061,6.164285714285715L9.407860750452773,6.164285714285715L10.050717893309915,5.521428571428571L11.122146464738488,5.521428571428571L11.336432179024204,5.307142857142857L11.76500360759563,5.307142857142857L12.193575036167061,4.878571428571429z" stroke="none"/><path d="M41.52142857142857,0.8071428571428572L41.52142857142857,0.6221464647384882L41.76500360759563,0.3785714285714287L57.020710678118654,0.3785714285714287L57.23499639240437,0.592857142857143L57.44928210669008,0.592857142857143L57.87785353526151,1.0214285714285716L58.09213924954722,1.0214285714285716L58.520710678118654,1.45L58.73499639240437,1.45L59.16356782097579,1.8785714285714286L59.80642496383294,1.8785714285714286L60.020710678118654,2.092857142857143L60.23499639240437,2.092857142857143L60.87785353526151,2.7357142857142858L61.09213924954722,2.7357142857142858L61.30642496383294,2.95L61.5,2.95L61.5,3.05L61.26500360759563,3.05L61.050717893309915,2.8357142857142854L60.8364321790242,2.8357142857142854L60.19357503616706,2.1928571428571426L59.979289321881346,2.1928571428571426L59.76500360759563,1.9785714285714286L59.122146464738485,1.9785714285714286L58.69357503616706,1.55L58.479289321881346,1.55L58.050717893309915,1.1214285714285717L57.8364321790242,1.1214285714285717L57.40786075045277,0.6928571428571431L57.19357503616706,0.6928571428571431L56.979289321881346,0.4785714285714287L41.80642496383294,0.4785714285714287L41.62142857142857,0.6635678209757978L41.62142857142857,0.8071428571428572L46.94928210669008,0.8071428571428572L48.87785353526151,2.7357142857142858L49.30642496383294,2.7357142857142858L49.53535533905933,2.9646446609406727L49.46464466094067,3.0353553390593273L49.26500360759563,2.8357142857142854L48.8364321790242,2.8357142857142854L46.90786075045277,0.9071428571428573L41.59213924954722,0.9071428571428573L41.16356782097579,1.3357142857142859L40.949282106690085,1.3357142857142859L40.520710678118654,1.7642857142857145L39.449282106690085,1.7642857142857145L39.23499639240437,1.9785714285714286L37.949282106690085,1.9785714285714286L37.73499639240437,2.1928571428571426L36.23499639240437,2.1928571428571426L36.020710678118654,2.407142857142857L35.59213924954722,2.407142857142857L35.37785353526151,2.6214285714285714L35.16356782097579,2.6214285714285714L34.73499639240437,3.05L34.5,3.05L34.5,2.95L34.69357503616706,2.95L35.122146464738485,2.521428571428572L35.3364321790242,2.521428571428572L35.550717893309915,2.3071428571428574L35.979289321881346,2.3071428571428574L36.19357503616706,2.092857142857143L37.69357503616706,2.092857142857143L37.90786075045278,1.8785714285714286L39.19357503616706,1.8785714285714286L39.40786075045278,1.6642857142857144L40.479289321881346,1.6642857142857144L40.90786075045278,1.2357142857142858L41.122146464738485,1.2357142857142858L41.450717893309914,0.9071428571428573L34.30642496383294,0.9071428571428573L34.09213924954722,1.1214285714285717L33.87785353526151,1.1214285714285717L33.66356782097579,1.3357142857142859L33.449282106690085,1.3357142857142859L33.23499639240437,1.55L32.80642496383294,1.55L32.59213924954722,1.7642857142857145L32.37785353526151,1.7642857142857145L31.73499639240437,2.407142857142857L31.30642496383294,2.407142857142857L31.092139249547223,2.6214285714285714L30.87785353526151,2.6214285714285714L30.44928210669008,3.05L30,3.05L30,2.95L30.407860750452773,2.95L30.836432179024204,2.521428571428572L31.050717893309915,2.521428571428572L31.26500360759563,2.3071428571428574L31.69357503616706,2.3071428571428574L32.3364321790242,1.6642857142857144L32.550717893309915,1.6642857142857144L32.76500360759563,1.45L33.19357503616706,1.45L33.40786075045278,1.2357142857142858L33.622146464738485,1.2357142857142858L33.8364321790242,1.0214285714285716L34.050717893309915,1.0214285714285716L34.26500360759563,0.8071428571428572z" stroke="none"/><path d="M100.49999999999999,2.95L100.49999999999999,3.05L98.99999999999999,3.05L98.99999999999999,2.95z" stroke="none"/><path d="M4.5,4.45L4.5,4.55L3,4.55L3,4.45z" stroke="none"/><path d="M85.49999999999999,4.45L85.49999999999999,4.55L83.99999999999999,4.55L83.99999999999999,4.45z" stroke="none"/><path d="M70.44999999999999,10.5L70.54999999999998,10.5L70.54999999999998,12L70.44999999999999,12z" stroke="none"/><path d="M4.5,10.45L4.5,10.55L3,10.55L3,10.45z" stroke="none"/><path d="M18,7.55L18,7.45L19.5,7.45L19.5,7.55z" stroke="none"/><path d="M34.53535533905933,5.964644660940673L34.46464466094067,6.035355339059327L32.96464466094067,4.535355339059327L33.03535533905933,4.464644660940673z" stroke="none"/><path d="M12,10.55L12,10.45L12.622146464738488,10.45L12.836432179024204,10.235714285714284L13.050717893309915,10.235714285714284L13.26500360759563,10.021428571428569L13.479289321881346,10.021428571428569L13.693575036167061,9.807142857142857L13.907860750452773,9.807142857142857L14.76500360759563,8.95L15,8.95L15,9.05L14.806424963832939,9.05L13.949282106690081,9.907142857142858L13.73499639240437,9.907142857142858L13.520710678118654,10.12142857142857L13.306424963832939,10.12142857142857L13.092139249547223,10.335714285714285L12.877853535261512,10.335714285714285L12.663567820975796,10.55z" stroke="none"/><path d="M40.53535533905933,12.035355339059327L40.46464466094067,11.964644660940673L41.122146464738485,11.307142857142857L41.3364321790242,11.307142857142857L41.550717893309915,11.092857142857142L42.622146464738485,11.092857142857142L43.26500360759563,10.45L43.5,10.45L43.5,10.55L43.30642496383294,10.55L42.66356782097579,11.192857142857143L41.59213924954722,11.192857142857143L41.37785353526151,11.407142857142858L41.16356782097579,11.407142857142858z" stroke="none"/><path d="M3,6.05L3,5.95L3.4078607504527736,5.95L4.265003607595631,5.0928571428571425L4.69357503616706,5.0928571428571425L4.878571428571429,4.907860750452774L4.878571428571429,3.6635678209757976L4.664285714285715,3.449282106690083L4.664285714285715,3.234996392404369L4.464644660940673,3.0353553390593273L4.535355339059327,2.9646446609406727L4.764285714285714,3.1935750361670596L4.764285714285714,3.4078607504527736L4.978571428571429,3.622146464738488L4.978571428571429,4.949282106690084L4.734996392404369,5.192857142857142L4.30642496383294,5.192857142857142L3.449282106690083,6.05z" stroke="none"/><path d="M52.5,9.05L52.5,8.95L53.122146464738485,8.95L53.979289321881346,8.092857142857142L54.622146464738485,8.092857142857142L54.8364321790242,7.878571428571428L55.050717893309915,7.878571428571428L55.46464466094067,7.464644660940673L55.53535533905933,7.535355339059327L55.09213924954722,7.978571428571428L54.87785353526151,7.978571428571428L54.66356782097579,8.192857142857143L54.020710678118654,8.192857142857143L53.16356782097579,9.05z" stroke="none"/><path d="M82.49999999999999,2.95L82.49999999999999,3.05L78.02071067811865,3.05L77.80642496383294,3.2642857142857142L77.37785353526151,3.2642857142857142L77.1635678209758,3.478571428571428L75.87785353526151,3.478571428571428L75.02071067811865,4.335714285714285L74.59213924954722,4.335714285714285L74.37785353526151,4.55L74.1635678209758,4.55L72.90714285714284,5.80642496383294L72.90714285714284,6.19357503616706L73.09213924954722,6.378571428571428L78.40786075045276,6.378571428571428L78.83643217902419,5.95L79.49999999999999,5.95L79.49999999999999,6.05L78.87785353526151,6.05L78.44928210669008,6.478571428571428L73.0507178933099,6.478571428571428L72.80714285714285,6.234996392404369L72.80714285714285,5.765003607595631L74.12214646473848,4.45L74.33643217902419,4.45L74.5507178933099,4.235714285714286L74.97928932188132,4.235714285714286L75.83643217902419,3.3785714285714286L77.12214646473848,3.3785714285714286L77.33643217902419,3.1642857142857146L77.76500360759562,3.1642857142857146L77.97928932188132,2.95z" stroke="none"/><path d="M94.44999999999999,3L94.54999999999998,3L94.54999999999998,7.5L94.44999999999999,7.5z" stroke="none"/><path d="M43.5,6.05L43.5,5.95L44.59213924954722,5.95L45.020710678118654,6.378571428571428L46.73499639240437,6.378571428571428L46.94928210669008,6.5928571428571425L48.23499639240437,6.5928571428571425L48.44928210669008,6.807142857142857L48.66356782097579,6.807142857142857L48.87785353526151,7.021428571428571L49.520710678118654,7.021428571428571L49.73499639240437,7.235714285714286L49.94928210669008,7.235714285714286L50.59213924954722,7.878571428571428L51.40786075045277,7.878571428571428L51.59285714285714,7.69357503616706L51.59285714285714,7.30642496383294L51.40786075045277,7.121428571428571L51.19357503616706,7.121428571428571L50.979289321881346,6.907142857142857L50.550717893309915,6.907142857142857L50.3364321790242,6.692857142857142L49.90786075045277,6.692857142857142L49.69357503616706,6.478571428571428L49.050717893309915,6.478571428571428L48.8364321790242,6.264285714285714L48.19357503616706,6.264285714285714L47.96464466094067,6.035355339059327L48.03535533905933,5.964644660940673L48.23499639240437,6.164285714285715L48.87785353526151,6.164285714285715L49.09213924954722,6.378571428571428L49.73499639240437,6.378571428571428L49.94928210669008,6.5928571428571425L50.37785353526151,6.5928571428571425L50.59213924954722,6.807142857142857L51.020710678118654,6.807142857142857L51.23499639240437,7.021428571428571L51.44928210669008,7.021428571428571L51.692857142857136,7.265003607595631L51.692857142857136,7.734996392404369L51.44928210669008,7.978571428571428L50.550717893309915,7.978571428571428L49.90786075045277,7.335714285714285L49.69357503616706,7.335714285714285L49.479289321881346,7.121428571428571L48.8364321790242,7.121428571428571L48.622146464738485,6.907142857142857L48.40786075045277,6.907142857142857L48.19357503616706,6.692857142857142L46.90786075045277,6.692857142857142L46.69357503616706,6.478571428571428L44.979289321881346,6.478571428571428L44.550717893309915,6.05z" stroke="none"/><path d="M60,10.45L60,10.55L54.66356782097579,10.55L54.44928210669008,10.764285714285716L53.80642496383294,10.764285714285716L53.37785353526151,11.192857142857143L53.16356782097579,11.192857142857143L52.520710678118654,11.835714285714285L51.87785353526151,11.835714285714285L51.66356782097579,12.05L51.44928210669008,12.05L51.23499639240437,12.264285714285716L50.80642496383294,12.264285714285716L50.59213924954722,12.478571428571428L50.16356782097579,12.478571428571428L49.94928210669008,12.692857142857143L49.26500360759563,12.692857142857143L49.02142857142857,12.449282106690081L49.02142857142857,11.550717893309915L49.26500360759563,11.307142857142857L50.3364321790242,11.307142857142857L50.550717893309915,11.092857142857142L51.19357503616706,11.092857142857142L51.40786075045277,10.878571428571426L51.622146464738485,10.878571428571426L52.26500360759563,10.235714285714284L52.479289321881346,10.235714285714284L52.69357503616706,10.021428571428569L53.122146464738485,10.021428571428569L53.3364321790242,9.807142857142857L53.76500360759563,9.807142857142857L54.19357503616706,9.378571428571426L54.40786075045277,9.378571428571426L54.622146464738485,9.164285714285715L55.26500360759563,9.164285714285715L55.46464466094067,8.964644660940673L55.53535533905933,9.035355339059327L55.30642496383294,9.264285714285716L54.66356782097579,9.264285714285716L54.44928210669008,9.478571428571428L54.23499639240437,9.478571428571428L53.80642496383294,9.907142857142858L53.37785353526151,9.907142857142858L53.16356782097579,10.12142857142857L52.73499639240437,10.12142857142857L52.520710678118654,10.335714285714285L52.30642496383294,10.335714285714285L51.66356782097579,10.978571428571428L51.44928210669008,10.978571428571428L51.23499639240437,11.192857142857143L50.59213924954722,11.192857142857143L50.37785353526151,11.407142857142858L49.30642496383294,11.407142857142858L49.12142857142857,11.592139249547223L49.12142857142857,12.407860750452773L49.30642496383294,12.592857142857142L49.90786075045277,12.592857142857142L50.122146464738485,12.378571428571426L50.550717893309915,12.378571428571426L50.76500360759563,12.164285714285715L51.19357503616706,12.164285714285715L51.40786075045277,11.95L51.622146464738485,11.95L51.8364321790242,11.735714285714284L52.479289321881346,11.735714285714284L53.122146464738485,11.092857142857142L53.3364321790242,11.092857142857142L53.76500360759563,10.664285714285715L54.40786075045277,10.664285714285715L54.622146464738485,10.45z" stroke="none"/><path d="M65.99999999999999,7.55L65.99999999999999,7.45L66.6635678209758,7.45L67.30642496383294,8.092857142857142L67.73499639240437,8.092857142857142L68.1635678209758,8.521428571428569L69.44928210669008,8.521428571428569L69.87785353526151,8.95L70.49999999999999,8.95L70.49999999999999,9.05L69.83643217902419,9.05L69.40786075045276,8.62142857142857L68.12214646473848,8.62142857142857L67.69357503616705,8.192857142857143L67.26500360759562,8.192857142857143L66.62214646473848,7.55z" stroke="none"/><path d="M100.53535533905931,12.035355339059327L100.46464466094066,11.964644660940673L100.87857142857142,11.550717893309915L100.87857142857142,11.122146464738488L101.30714285714285,10.693575036167061L101.30714285714285,9.836432179024204L101.52142857142856,9.622146464738488L101.52142857142856,9.407860750452773L101.73571428571428,9.193575036167061L101.73571428571428,8.979289321881346L101.94999999999999,8.76500360759563L101.94999999999999,7.5L102.04999999999998,7.5L102.04999999999998,8.806424963832939L101.83571428571427,9.020710678118654L101.83571428571427,9.23499639240437L101.62142857142855,9.449282106690081L101.62142857142855,9.663567820975796L101.40714285714284,9.877853535261512L101.40714285714284,10.73499639240437L100.97857142857141,11.163567820975796L100.97857142857141,11.592139249547223z" stroke="none"/><path d="M16.5,9.05L16.5,8.95L17.163567820975796,8.95L17.37785353526151,9.164285714285715L17.80642496383294,9.164285714285715L18.020710678118654,9.378571428571426L18.663567820975796,9.378571428571426L18.87785353526151,9.592857142857142L19.520710678118654,9.592857142857142L19.73499639240437,9.807142857142857L20.163567820975796,9.807142857142857L20.37785353526151,10.021428571428569L20.592139249547227,10.021428571428569L21.03535533905933,10.464644660940673L20.96464466094067,10.535355339059327L20.55071789330992,10.12142857142857L20.336432179024204,10.12142857142857L20.12214646473849,9.907142857142858L19.69357503616706,9.907142857142858L19.479289321881346,9.692857142857143L18.836432179024204,9.692857142857143L18.62214646473849,9.478571428571428L17.979289321881346,9.478571428571428L17.76500360759563,9.264285714285716L17.336432179024204,9.264285714285716L17.12214646473849,9.05z" stroke="none"/><path d="M52.46464466094067,7.464644660940673L52.53535533905933,7.535355339059327L52.30642496383294,7.764285714285714L52.09213924954722,7.764285714285714L51.66356782097579,8.192857142857143L50.80642496383294,8.192857142857143L50.59213924954722,8.407142857142858L49.73499639240437,8.407142857142858L49.30642496383294,8.835714285714285L49.09213924954722,8.835714285714285L48.87785353526151,9.05L48,9.05L48,8.95L48.8364321790242,8.95L49.050717893309915,8.735714285714284L49.26500360759563,8.735714285714284L49.69357503616706,8.307142857142857L50.550717893309915,8.307142857142857L50.76500360759563,8.092857142857142L51.622146464738485,8.092857142857142L52.050717893309915,7.664285714285715L52.26500360759563,7.664285714285715z" stroke="none"/><path d="M83.99999999999999,11.95L83.99999999999999,12.05L83.33643217902419,12.05L82.69357503616705,11.407142857142858L80.97928932188132,11.407142857142858L80.76500360759562,11.192857142857143L80.12214646473848,11.192857142857143L79.90786075045276,10.978571428571428L79.69357503616705,10.978571428571428L79.47928932188132,10.764285714285716L78.19357503616705,10.764285714285716L77.96464466094066,10.535355339059327L78.03535533905931,10.464644660940673L78.23499639240437,10.664285714285715L79.52071067811865,10.664285714285715L79.73499639240437,10.878571428571426L79.94928210669008,10.878571428571426L80.1635678209758,11.092857142857142L80.80642496383294,11.092857142857142L81.02071067811865,11.307142857142857L82.73499639240437,11.307142857142857L83.37785353526151,11.95z" stroke="none"/><path d="M96.04999999999998,9L95.94999999999999,9L95.94999999999999,8.76500360759563L96.16428571428571,8.550717893309915L96.16428571428571,8.122146464738488L98.30714285714285,5.979289321881345L98.30714285714285,5.765003607595631L98.5507178933099,5.521428571428571L99.19357503616705,5.521428571428571L100.26500360759562,4.45L100.49999999999999,4.45L100.49999999999999,4.55L100.30642496383294,4.55L99.23499639240437,5.621428571428571L98.59213924954722,5.621428571428571L98.40714285714284,5.80642496383294L98.40714285714284,6.020710678118655L96.2642857142857,8.163567820975796L96.2642857142857,8.592139249547223L96.04999999999998,8.806424963832939z" stroke="none"/><path d="M86.99999999999999,4.55L86.99999999999999,4.45L87.44928210669008,4.45L87.6635678209758,4.664285714285715L87.87785353526151,4.664285714285715L88.30642496383294,5.0928571428571425L88.52071067811865,5.0928571428571425L88.73499639240437,5.307142857142857L89.1635678209758,5.307142857142857L89.37785353526151,5.521428571428571L89.80642496383294,5.521428571428571L90.02071067811865,5.735714285714286L90.44928210669008,5.735714285714286L91.52071067811865,6.807142857142857L91.73499639240437,6.807142857142857L92.16356782097579,7.235714285714286L92.59213924954722,7.235714285714286L92.80642496383294,7.45L92.99999999999999,7.45L92.99999999999999,7.55L92.76500360759562,7.55L92.5507178933099,7.335714285714285L92.12214646473846,7.335714285714285L91.69357503616705,6.907142857142857L91.47928932188132,6.907142857142857L90.40786075045276,5.835714285714285L89.97928932188132,5.835714285714285L89.76500360759562,5.621428571428571L89.33643217902419,5.621428571428571L89.12214646473848,5.407142857142857L88.69357503616705,5.407142857142857L88.47928932188132,5.192857142857142L88.26500360759562,5.192857142857142L87.83643217902419,4.764285714285714L87.62214646473848,4.764285714285714L87.40786075045276,4.55z" stroke="none"/><path d="M98.96464466094066,5.964644660940673L99.03535533905931,6.035355339059327L97.33571428571427,7.734996392404369L97.33571428571427,7.949282106690083L97.12142857142855,8.163567820975796L97.12142857142855,8.377853535261512L96.69285714285712,8.806424963832939L96.69285714285712,9.23499639240437L96.44928210669008,9.478571428571428L93.62214646473846,9.478571428571428L93.19357503616705,9.05L92.99999999999999,9.05L92.99999999999999,8.95L93.23499639240437,8.95L93.66356782097579,9.378571428571426L96.40786075045276,9.378571428571426L96.59285714285713,9.193575036167061L96.59285714285713,8.76500360759563L97.02142857142856,8.336432179024204L97.02142857142856,8.122146464738488L97.23571428571428,7.907860750452773L97.23571428571428,7.69357503616706z" stroke="none"/><path d="M89.99999999999999,4.45L89.99999999999999,4.55L88.90786075045276,4.55L88.47928932188132,4.121428571428571L86.59213924954722,4.121428571428571L86.40714285714284,4.30642496383294L86.40714285714284,4.520710678118655L86.19285714285714,4.734996392404369L86.19285714285714,5.163567820975797L84.2642857142857,7.092139249547226L84.2642857142857,7.30642496383294L84.03535533905931,7.535355339059327L83.96464466094066,7.464644660940673L84.16428571428571,7.265003607595631L84.16428571428571,7.050717893309916L86.09285714285714,5.122146464738488L86.09285714285714,4.69357503616706L86.30714285714285,4.479289321881345L86.30714285714285,4.265003607595631L86.5507178933099,4.021428571428571L88.52071067811865,4.021428571428571L88.94928210669008,4.45z" stroke="none"/><path d="M31.5,7.45L31.5,7.55L21.87785353526151,7.55L21.44928210669008,7.978571428571428L14.163567820975796,7.978571428571428L13.949282106690081,8.192857142857143L13.520710678118654,8.192857142857143L11.62142857142857,10.092139249547223L11.62142857142857,10.907860750452773L11.806424963832939,11.092857142857142L12.23499639240437,11.092857142857142L12.449282106690081,11.307142857142857L13.73499639240437,11.307142857142857L13.949282106690081,11.521428571428569L14.163567820975796,11.521428571428569L14.592139249547223,11.95L15.877853535261512,11.95L16.30642496383294,12.378571428571426L36.8364321790242,12.378571428571426L37.26500360759563,11.95L37.5,11.95L37.5,12.05L37.30642496383294,12.05L36.87785353526151,12.478571428571428L16.26500360759563,12.478571428571428L15.836432179024204,12.05L14.550717893309915,12.05L14.122146464738488,11.62142857142857L13.907860750452773,11.62142857142857L13.693575036167061,11.407142857142858L12.407860750452773,11.407142857142858L12.193575036167061,11.192857142857143L11.76500360759563,11.192857142857143L11.521428571428569,10.949282106690081L11.521428571428569,10.050717893309915L13.479289321881346,8.092857142857142L13.907860750452773,8.092857142857142L14.122146464738488,7.878571428571428L21.407860750452773,7.878571428571428L21.836432179024204,7.45z" stroke="none"/><path d="M70.53535533905931,5.964644660940673L70.46464466094066,6.035355339059327L70.26500360759562,5.835714285714285L70.0507178933099,5.835714285714285L69.83643217902419,5.621428571428571L62.59213924954722,5.621428571428571L62.37785353526151,5.835714285714285L62.16356782097579,5.835714285714285L61.94928210669008,6.05L61.5,6.05L61.5,5.95L61.90786075045277,5.95L62.122146464738485,5.735714285714286L62.3364321790242,5.735714285714286L62.550717893309915,5.521428571428571L69.87785353526151,5.521428571428571L70.09213924954722,5.735714285714286L70.30642496383294,5.735714285714286z" stroke="none"/><path d="M31.5,10.55L31.5,10.45L36.87785353526151,10.45L37.09213924954722,10.664285714285715L37.949282106690085,10.664285714285715L38.16356782097579,10.878571428571426L38.37785353526151,10.878571428571426L39.23499639240437,11.735714285714284L39.449282106690085,11.735714285714284L40.09213924954722,12.378571428571426L41.122146464738485,12.378571428571426L41.3364321790242,12.164285714285715L41.76500360759563,12.164285714285715L41.96464466094067,11.964644660940673L42.03535533905933,12.035355339059327L41.80642496383294,12.264285714285716L41.37785353526151,12.264285714285716L41.16356782097579,12.478571428571428L40.050717893309915,12.478571428571428L39.40786075045278,11.835714285714285L39.19357503616706,11.835714285714285L38.3364321790242,10.978571428571428L38.122146464738485,10.978571428571428L37.90786075045278,10.764285714285716L37.050717893309915,10.764285714285716L36.8364321790242,10.55z" stroke="none"/><path d="M24,12.05L24,11.95L36.19357503616706,11.95L36.622146464738485,11.521428571428569L37.949282106690085,11.521428571428569L38.192857142857136,11.76500360759563L38.192857142857136,12.23499639240437L37.949282106690085,12.478571428571428L37.30642496383294,12.478571428571428L37.09213924954722,12.692857142857143L15.193575036167061,12.692857142857143L14.76500360759563,12.264285714285716L13.050717893309915,12.264285714285716L12.407860750452773,11.62142857142857L11.76500360759563,11.62142857142857L11.307142857142857,11.163567820975796L11.307142857142857,9.836432179024204L13.45,7.69357503616706L13.45,7.5L13.55,7.5L13.55,7.734996392404369L11.407142857142858,9.877853535261512L11.407142857142858,11.122146464738488L11.806424963832939,11.521428571428569L12.449282106690081,11.521428571428569L13.092139249547223,12.164285714285715L14.806424963832939,12.164285714285715L15.23499639240437,12.592857142857142L37.050717893309915,12.592857142857142L37.26500360759563,12.378571428571426L37.90786075045278,12.378571428571426L38.09285714285714,12.193575036167061L38.09285714285714,11.806424963832939L37.90786075045278,11.62142857142857L36.66356782097579,11.62142857142857L36.23499639240437,12.05z" stroke="none"/><path d="M9,4.55L9,4.45L21,4.45L21,4.55z" stroke="none"/><path d="M21,7.45L21,7.55L20.336432179024204,7.55L19.907860750452773,7.121428571428571L13.092139249547223,7.121428571428571L11.835714285714285,8.377853535261512L11.835714285714285,8.592139249547223L11.407142857142858,9.020710678118654L11.407142857142858,9.449282106690081L11.192857142857143,9.663567820975796L11.192857142857143,12.23499639240437L10.949282106690081,12.478571428571428L10.050717893309915,12.478571428571428L7.479289321881345,9.907142857142858L7.265003607595631,9.907142857142858L6.836432179024202,9.478571428571428L6.622146464738488,9.478571428571428L6.19357503616706,9.05L6,9.05L6,8.95L6.234996392404369,8.95L6.663567820975797,9.378571428571426L6.8778535352615116,9.378571428571426L7.30642496383294,9.807142857142857L7.520710678118655,9.807142857142857L10.092139249547223,12.378571428571426L10.907860750452773,12.378571428571426L11.092857142857142,12.193575036167061L11.092857142857142,9.622146464738488L11.307142857142857,9.407860750452773L11.307142857142857,8.979289321881346L11.735714285714284,8.550717893309915L11.735714285714284,8.336432179024204L13.050717893309915,7.021428571428571L19.94928210669008,7.021428571428571L20.37785353526151,7.45z" stroke="none"/><path d="M80.99999999999999,4.55L80.99999999999999,4.45L81.19357503616705,4.45L81.62214646473848,4.021428571428571L85.69357503616705,4.021428571428571L85.90786075045276,3.8071428571428574L90.23499639240437,3.8071428571428574L93.47857142857141,7.050717893309916L93.47857142857141,7.265003607595631L94.09213924954722,7.878571428571428L94.90786075045276,7.878571428571428L95.30714285714285,7.479289321881345L95.30714285714285,7.265003607595631L95.52142857142856,7.050717893309916L95.52142857142856,6.622146464738488L95.94999999999999,6.19357503616706L95.94999999999999,6L96.04999999999998,6L96.04999999999998,6.234996392404369L95.62142857142855,6.663567820975797L95.62142857142855,7.092139249547226L95.40714285714284,7.30642496383294L95.40714285714284,7.520710678118655L94.94928210669008,7.978571428571428L94.0507178933099,7.978571428571428L93.37857142857142,7.30642496383294L93.37857142857142,7.092139249547226L90.19357503616705,3.907142857142857L85.94928210669008,3.907142857142857L85.73499639240437,4.121428571428571L81.6635678209758,4.121428571428571L81.23499639240437,4.55z" stroke="none"/><path d="M55.5,3.05L55.5,2.95L60.66356782097579,2.95L61.09213924954722,3.3785714285714286L70.26500360759562,3.3785714285714286L70.47928932188132,3.1642857142857146L70.69357503616705,3.1642857142857146L70.90786075045276,2.95L71.99999999999999,2.95L71.99999999999999,3.05L70.94928210669008,3.05L70.73499639240437,3.2642857142857142L70.52071067811865,3.2642857142857142L70.30642496383294,3.478571428571428L61.050717893309915,3.478571428571428L60.622146464738485,3.05z" stroke="none"/><path d="M81.03535533905931,9.035355339059327L80.96464466094066,8.964644660940673L81.37857142857142,8.550717893309915L81.37857142857142,5.80642496383294L80.52142857142856,4.949282106690084L80.52142857142856,4.050717893309916L80.76500360759562,3.8071428571428574L85.47928932188132,3.8071428571428574L85.69357503616705,3.592857142857143L88.0507178933099,3.592857142857143L88.26500360759562,3.3785714285714286L91.26500360759562,3.3785714285714286L91.47928932188132,3.1642857142857146L92.12214646473846,3.1642857142857146L92.33643217902419,2.95L92.97928932188132,2.95L93.19357503616705,2.7357142857142858L93.40786075045276,2.7357142857142858L93.62214646473846,2.521428571428572L94.94928210669008,2.521428571428572L95.40714285714284,2.979289321881345L95.40714285714284,3.1935750361670596L95.62142857142855,3.4078607504527736L95.62142857142855,4.265003607595631L95.83571428571427,4.479289321881345L95.83571428571427,4.907860750452774L96.47857142857141,5.550717893309916L96.47857142857141,6.449282106690083L96.2642857142857,6.663567820975797L96.2642857142857,7.092139249547226L95.16356782097579,8.192857142857143L93.23499639240437,8.192857142857143L93.02071067811865,8.407142857142858L92.80642496383294,8.407142857142858L92.62142857142855,8.592139249547223L92.62142857142855,9.407860750452773L93.87785353526151,10.664285714285715L94.09213924954722,10.664285714285715L94.97857142857141,11.550717893309915L94.97857142857141,12.449282106690081L94.73499639240437,12.692857142857143L67.26500360759562,12.692857142857143L67.0507178933099,12.478571428571428L66.83643217902419,12.478571428571428L66.40786075045276,12.05L66.19357503616705,12.05L64.69357503616705,10.55L64.49999999999999,10.55L64.49999999999999,10.45L64.73499639240437,10.45L66.23499639240437,11.95L66.44928210669008,11.95L66.87785353526151,12.378571428571426L67.09213924954722,12.378571428571426L67.30642496383294,12.592857142857142L94.69357503616705,12.592857142857142L94.87857142857142,12.407860750452773L94.87857142857142,11.592139249547223L94.0507178933099,10.764285714285716L93.83643217902419,10.764285714285716L92.52142857142856,9.449282106690081L92.52142857142856,8.550717893309915L92.76500360759562,8.307142857142857L92.97928932188132,8.307142857142857L93.19357503616705,8.092857142857142L95.12214646473846,8.092857142857142L96.16428571428571,7.050717893309916L96.16428571428571,6.622146464738488L96.37857142857142,6.407860750452773L96.37857142857142,5.592139249547226L95.73571428571428,4.949282106690084L95.73571428571428,4.520710678118655L95.52142857142856,4.30642496383294L95.52142857142856,3.449282106690083L95.30714285714285,3.234996392404369L95.30714285714285,3.020710678118655L94.90786075045276,2.6214285714285714L93.66356782097579,2.6214285714285714L93.44928210669008,2.8357142857142854L93.23499639240437,2.8357142857142854L93.02071067811865,3.05L92.37785353526151,3.05L92.16356782097579,3.2642857142857142L91.52071067811865,3.2642857142857142L91.30642496383294,3.478571428571428L88.30642496383294,3.478571428571428L88.09213924954722,3.6928571428571426L85.73499639240437,3.6928571428571426L85.52071067811865,3.907142857142857L80.80642496383294,3.907142857142857L80.62142857142855,4.092139249547226L80.62142857142855,4.907860750452774L81.47857142857141,5.765003607595631L81.47857142857141,8.592139249547223z" stroke="none"/><path d="M12,12.05L12,11.95L12.449282106690081,11.95L12.877853535261512,12.378571428571426L14.592139249547223,12.378571428571426L15.020710678118654,12.807142857142857L37.479289321881346,12.807142857142857L37.69357503616706,12.592857142857142L38.122146464738485,12.592857142857142L38.30714285714286,12.407860750452773L38.30714285714286,11.592139249547223L38.122146464738485,11.407142857142858L31.479289321881346,11.407142857142858L30.836432179024204,10.764285714285716L30.407860750452773,10.764285714285716L30.19357503616706,10.55L30,10.55L30,10.45L30.23499639240437,10.45L30.44928210669008,10.664285714285715L30.87785353526151,10.664285714285715L31.520710678118654,11.307142857142857L38.16356782097579,11.307142857142857L38.40714285714285,11.550717893309915L38.40714285714285,12.449282106690081L38.16356782097579,12.692857142857143L37.73499639240437,12.692857142857143L37.520710678118654,12.907142857142858L14.979289321881346,12.907142857142858L14.550717893309915,12.478571428571428L12.836432179024204,12.478571428571428L12.407860750452773,12.05z" stroke="none"/><path d="M4.5,12.05L4.5,11.95L7.734996392404369,11.95L7.949282106690083,12.164285714285715L8.163567820975796,12.164285714285715L8.377853535261512,12.378571428571426L8.592139249547223,12.378571428571426L8.806424963832939,12.592857142857142L12.449282106690081,12.592857142857142L12.663567820975796,12.807142857142857L12.877853535261512,12.807142857142857L13.092139249547223,13.021428571428569L41.122146464738485,13.021428571428569L41.3364321790242,12.807142857142857L41.76500360759563,12.807142857142857L42.19357503616706,12.378571428571426L42.40786075045278,12.378571428571426L43.87857142857143,10.907860750452773L43.87857142857143,10.092139249547223L43.69357503616706,9.907142857142858L30.23499639240437,9.907142857142858L30.020710678118654,10.12142857142857L29.37785353526151,10.12142857142857L28.94928210669008,10.55L28.5,10.55L28.5,10.45L28.907860750452773,10.45L29.336432179024204,10.021428571428569L29.979289321881346,10.021428571428569L30.19357503616706,9.807142857142857L43.73499639240437,9.807142857142857L43.97857142857143,10.050717893309915L43.97857142857143,10.949282106690081L42.449282106690085,12.478571428571428L42.23499639240437,12.478571428571428L41.80642496383294,12.907142857142858L41.37785353526151,12.907142857142858L41.16356782097579,13.12142857142857L13.050717893309915,13.12142857142857L12.836432179024204,12.907142857142858L12.622146464738488,12.907142857142858L12.407860750452773,12.692857142857143L8.76500360759563,12.692857142857143L8.550717893309915,12.478571428571428L8.336432179024204,12.478571428571428L8.122146464738488,12.264285714285716L7.907860750452773,12.264285714285716L7.69357503616706,12.05z" stroke="none"/><path d="M99.03535533905931,4.464644660940673L98.96464466094066,4.535355339059327L98.12214646473846,3.6928571428571426L97.90786075045276,3.6928571428571426L97.47928932188132,3.2642857142857142L96.19357503616705,3.2642857142857142L95.5507178933099,2.6214285714285714L95.33643217902419,2.6214285714285714L95.12214646473846,2.407142857142857L76.30642496383294,2.407142857142857L76.09213924954722,2.6214285714285714L75.6635678209758,2.6214285714285714L75.44928210669008,2.8357142857142854L75.23499639240437,2.8357142857142854L75.03535533905931,3.0353553390593273L74.96464466094066,2.9646446609406727L75.19357503616705,2.7357142857142858L75.40786075045276,2.7357142857142858L75.62214646473848,2.521428571428572L76.0507178933099,2.521428571428572L76.26500360759562,2.3071428571428574L95.16356782097579,2.3071428571428574L95.37785353526151,2.521428571428572L95.59213924954722,2.521428571428572L96.23499639240437,3.1642857142857146L97.52071067811865,3.1642857142857146L97.94928210669008,3.592857142857143L98.16356782097579,3.592857142857143z" stroke="none"/><path d="M69.03535533905931,11.964644660940673L68.96464466094066,12.035355339059327L67.47928932188132,10.55L66.83643217902419,10.55L66.62214646473848,10.335714285714285L65.76500360759562,10.335714285714285L65.5507178933099,10.12142857142857L65.12214646473848,10.12142857142857L64.90786075045276,9.907142857142858L64.30642496383294,9.907142857142858L64.12142857142857,10.092139249547223L64.12142857142857,10.907860750452773L65.80642496383294,12.592857142857142L66.02071067811865,12.592857142857142L66.23499639240437,12.807142857142857L94.90786075045276,12.807142857142857L95.5507178933099,12.164285714285715L95.76500360759562,12.164285714285715L95.96464466094066,11.964644660940673L96.03535533905931,12.035355339059327L95.80642496383294,12.264285714285716L95.59213924954722,12.264285714285716L94.94928210669008,12.907142857142858L66.19357503616705,12.907142857142858L65.97928932188132,12.692857142857143L65.76500360759562,12.692857142857143L64.02142857142857,10.949282106690081L64.02142857142857,10.050717893309915L64.26500360759562,9.807142857142857L64.94928210669008,9.807142857142857L65.1635678209758,10.021428571428569L65.59213924954722,10.021428571428569L65.80642496383294,10.235714285714284L66.6635678209758,10.235714285714284L66.87785353526151,10.45L67.52071067811865,10.45z" stroke="none"/><path d="M76.49999999999999,2.95L76.49999999999999,3.05L76.09213924954722,3.05L75.87785353526151,3.2642857142857142L75.6635678209758,3.2642857142857142L75.44928210669008,3.478571428571428L74.5507178933099,3.478571428571428L74.30714285714285,3.234996392404369L74.30714285714285,2.765003607595631L74.76500360759562,2.3071428571428574L75.83643217902419,2.3071428571428574L76.0507178933099,2.092857142857143L96.23499639240437,2.092857142857143L96.87785353526151,2.7357142857142858L97.09213924954722,2.7357142857142858L97.30642496383294,2.95L97.73499639240437,2.95L98.16356782097579,3.3785714285714286L100.09213924954722,3.3785714285714286L100.52071067811865,3.8071428571428574L100.73499639240437,3.8071428571428574L100.97857142857141,4.050717893309916L100.97857142857141,4.949282106690084L97.97857142857141,7.949282106690083L97.97857142857141,8.163567820975796L97.54999999999998,8.592139249547223L97.54999999999998,9.449282106690081L97.33571428571427,9.663567820975796L97.33571428571427,10.949282106690081L96.69285714285712,11.592139249547223L96.69285714285712,12.23499639240437L96.44928210669008,12.478571428571428L96.02071067811865,12.478571428571428L95.80642496383294,12.692857142857143L95.59213924954722,12.692857142857143L95.16356782097579,13.12142857142857L49.26500360759563,13.12142857142857L48.80714285714286,12.663567820975796L48.80714285714286,10.479289321881346L49.02142857142857,10.26500360759563L49.02142857142857,10.050717893309915L49.69357503616706,9.378571428571426L49.90786075045277,9.378571428571426L50.3364321790242,8.95L51.19357503616706,8.95L51.622146464738485,8.521428571428569L51.8364321790242,8.521428571428569L52.26500360759563,8.092857142857142L52.69357503616706,8.092857142857142L52.878571428571426,7.907860750452773L52.878571428571426,7.092139249547226L52.69357503616706,6.907142857142857L51.622146464738485,6.907142857142857L51.19357503616706,6.478571428571428L50.3364321790242,6.478571428571428L50.122146464738485,6.264285714285714L49.69357503616706,6.264285714285714L49.46464466094067,6.035355339059327L49.53535533905933,5.964644660940673L49.73499639240437,6.164285714285715L50.16356782097579,6.164285714285715L50.37785353526151,6.378571428571428L51.23499639240437,6.378571428571428L51.66356782097579,6.807142857142857L52.73499639240437,6.807142857142857L52.97857142857142,7.050717893309916L52.97857142857142,7.949282106690083L52.73499639240437,8.192857142857143L52.30642496383294,8.192857142857143L51.87785353526151,8.62142857142857L51.66356782097579,8.62142857142857L51.23499639240437,9.05L50.37785353526151,9.05L49.94928210669008,9.478571428571428L49.73499639240437,9.478571428571428L49.12142857142857,10.092139249547223L49.12142857142857,10.306424963832939L48.90714285714285,10.520710678118654L48.90714285714285,12.622146464738488L49.30642496383294,13.021428571428569L95.12214646473846,13.021428571428569L95.5507178933099,12.592857142857142L95.76500360759562,12.592857142857142L95.97928932188132,12.378571428571426L96.40786075045276,12.378571428571426L96.59285714285713,12.193575036167061L96.59285714285713,11.550717893309915L97.23571428571428,10.907860750452773L97.23571428571428,9.622146464738488L97.44999999999999,9.407860750452773L97.44999999999999,8.550717893309915L97.87857142857142,8.122146464738488L97.87857142857142,7.907860750452773L100.87857142857142,4.907860750452774L100.87857142857142,4.092139249547226L100.69357503616705,3.907142857142857L100.47928932188132,3.907142857142857L100.0507178933099,3.478571428571428L98.12214646473846,3.478571428571428L97.69357503616705,3.05L97.26500360759562,3.05L97.0507178933099,2.8357142857142854L96.83643217902419,2.8357142857142854L96.19357503616705,2.1928571428571426L76.09213924954722,2.1928571428571426L75.87785353526151,2.407142857142857L74.80642496383294,2.407142857142857L74.40714285714284,2.8064249638329404L74.40714285714284,3.1935750361670596L74.59213924954722,3.3785714285714286L75.40786075045276,3.3785714285714286L75.62214646473848,3.1642857142857146L75.83643217902419,3.1642857142857146L76.0507178933099,2.95z" stroke="none"/><path d="M7.535355339059327,5.964644660940673L7.464644660940673,6.035355339059327L5.735714285714286,4.30642496383294L5.735714285714286,3.877853535261512L5.521428571428571,3.6635678209757976L5.521428571428571,2.550717893309917L5.765003607595631,2.3071428571428574L24.62214646473849,2.3071428571428574L25.26500360759563,1.6642857142857144L25.479289321881346,1.6642857142857144L25.907860750452773,1.2357142857142858L26.336432179024204,1.2357142857142858L26.76500360759563,0.8071428571428572L28.907860750452773,0.8071428571428572L29.12214646473849,0.592857142857143L40.479289321881346,0.592857142857143L40.90786075045278,0.16428571428571442L68.59213924954722,0.16428571428571442L68.80642496383294,0.3785714285714287L69.23499639240437,0.3785714285714287L69.44928210669008,0.592857142857143L69.6635678209758,0.592857142857143L70.30642496383294,1.2357142857142858L70.52071067811865,1.2357142857142858L70.73499639240437,1.45L70.94928210669008,1.45L71.37785353526151,1.8785714285714286L71.59213924954722,1.8785714285714286L71.80642496383294,2.092857142857143L72.02071067811865,2.092857142857143L72.47857142857141,2.550717893309917L72.47857142857141,3.449282106690083L72.23499639240437,3.6928571428571426L40.949282106690085,3.6928571428571426L40.09213924954722,4.55L39,4.55L39,4.45L40.050717893309915,4.45L40.90786075045278,3.592857142857143L72.19357503616705,3.592857142857143L72.37857142857142,3.4078607504527736L72.37857142857142,2.5921392495472264L71.97928932188132,2.1928571428571426L71.76500360759562,2.1928571428571426L71.5507178933099,1.9785714285714286L71.33643217902419,1.9785714285714286L70.90786075045276,1.55L70.69357503616705,1.55L70.47928932188132,1.3357142857142859L70.26500360759562,1.3357142857142859L69.62214646473848,0.6928571428571431L69.40786075045276,0.6928571428571431L69.19357503616705,0.4785714285714287L68.76500360759562,0.4785714285714287L68.5507178933099,0.2642857142857144L40.949282106690085,0.2642857142857144L40.520710678118654,0.6928571428571431L29.163567820975796,0.6928571428571431L28.94928210669008,0.9071428571428573L26.80642496383294,0.9071428571428573L26.37785353526151,1.3357142857142859L25.94928210669008,1.3357142857142859L25.520710678118654,1.7642857142857145L25.30642496383294,1.7642857142857145L24.663567820975796,2.407142857142857L5.80642496383294,2.407142857142857L5.621428571428571,2.5921392495472264L5.621428571428571,3.622146464738488L5.835714285714285,3.8364321790242024L5.835714285714285,4.265003607595631z" stroke="none"/><path d="M11.964644660940673,2.9646446609406727L12.035355339059327,3.0353553390593273L11.806424963832939,3.2642857142857142L11.163567820975796,3.2642857142857142L10.949282106690081,3.478571428571428L9.663567820975796,3.478571428571428L9.449282106690081,3.6928571428571426L9.020710678118654,3.6928571428571426L8.62142857142857,4.092139249547226L8.62142857142857,4.949282106690084L8.192857142857143,5.3778535352615116L8.192857142857143,6.234996392404369L7.520710678118655,6.907142857142857L7.30642496383294,6.907142857142857L5.192857142857142,9.020710678118654L5.192857142857142,9.877853535261512L4.978571428571429,10.092139249547223L4.978571428571429,10.949282106690081L4.520710678118655,11.407142857142858L4.30642496383294,11.407142857142858L4.121428571428571,11.592139249547223L4.121428571428571,12.407860750452773L4.30642496383294,12.592857142857142L8.163567820975796,12.592857142857142L8.377853535261512,12.807142857142857L11.163567820975796,12.807142857142857L11.377853535261512,13.021428571428569L12.663567820975796,13.021428571428569L12.877853535261512,13.235714285714284L44.122146464738485,13.235714285714284L44.3364321790242,13.021428571428569L47.76500360759563,13.021428571428569L48.378571428571426,12.407860750452773L48.378571428571426,11.377853535261512L48.16428571428572,11.163567820975796L48.16428571428572,10.949282106690081L47.73571428571429,10.520710678118654L47.73571428571429,10.306424963832939L47.52142857142857,10.092139249547223L47.52142857142857,8.336432179024204L47.73571428571429,8.122146464738488L47.73571428571429,7.907860750452773L47.95,7.69357503616706L47.95,7.5L48.05,7.5L48.05,7.734996392404369L47.83571428571428,7.949282106690083L47.83571428571428,8.163567820975796L47.62142857142857,8.377853535261512L47.62142857142857,10.050717893309915L47.83571428571428,10.26500360759563L47.83571428571428,10.479289321881346L48.26428571428571,10.907860750452773L48.26428571428571,11.122146464738488L48.47857142857142,11.336432179024204L48.47857142857142,12.449282106690081L47.80642496383294,13.12142857142857L44.37785353526151,13.12142857142857L44.16356782097579,13.335714285714285L12.836432179024204,13.335714285714285L12.622146464738488,13.12142857142857L11.336432179024204,13.12142857142857L11.122146464738488,12.907142857142858L8.336432179024204,12.907142857142858L8.122146464738488,12.692857142857143L4.265003607595631,12.692857142857143L4.021428571428571,12.449282106690081L4.021428571428571,11.550717893309915L4.265003607595631,11.307142857142857L4.479289321881345,11.307142857142857L4.878571428571429,10.907860750452773L4.878571428571429,10.050717893309915L5.0928571428571425,9.836432179024204L5.0928571428571425,8.979289321881346L7.265003607595631,6.807142857142857L7.479289321881345,6.807142857142857L8.092857142857142,6.19357503616706L8.092857142857142,5.336432179024202L8.521428571428569,4.907860750452774L8.521428571428569,4.050717893309916L8.979289321881346,3.592857142857143L9.407860750452773,3.592857142857143L9.622146464738488,3.3785714285714286L10.907860750452773,3.3785714285714286L11.122146464738488,3.1642857142857146L11.76500360759563,3.1642857142857146z" stroke="none"/></svg>