<svg version="1.1" width="105" height="15" xmlns="http://www.w3.org/2000/svg"><path d="M21.020710678118654,11.307142857142857L27.23499639240437,11.307142857142857L27.44928210669008,11.521428571428569L27.87785353526151,11.521428571428569L28.30642496383294,11.95L28.5,11.95L28.5,12.05L28.26500360759563,12.05L27.836432179024204,11.62142857142857L27.407860750452773,11.62142857142857L27.19357503616706,11.407142857142858L15.663567820975796,11.407142857142858L15.035355339059327,12.035355339059327L14.964644660940673,11.964644660940673L15.622146464738488,11.307142857142857L20.879289321881345,11.307142857142857L20.76500360759563,11.192857142857143L20.55071789330992,11.192857142857143L19.907860750452773,10.55L19.5,10.55L19.5,10.45L19.94928210669008,10.45L20.592139249547227,11.092857142857142L20.80642496383294,11.092857142857142z" stroke="none"/><path d="M90.83643217902419,7.45L91.02142857142856,7.265003607595631L91.02142857142856,7.050717893309916L91.87857142857142,6.19357503616706L91.87857142857142,5.979289321881345L92.09285714285713,5.765003607595631L92.09285714285713,5.336432179024202L92.96464466094066,4.464644660940673L93.03535533905931,4.535355339059327L92.19285714285712,5.3778535352615116L92.19285714285712,5.80642496383294L91.97857142857141,6.020710678118655L91.97857142857141,6.234996392404369L91.12142857142855,7.092139249547226L91.12142857142855,7.30642496383294L90.90714285714284,7.520710678118655L90.90714285714284,7.69357503616706L91.09213924954722,7.878571428571428L92.16356782097579,7.878571428571428L92.37785353526151,8.092857142857142L93.44928210669008,8.092857142857142L93.87785353526151,8.521428571428569L94.09213924954722,8.521428571428569L94.53535533905931,8.964644660940673L94.46464466094066,9.035355339059327L94.0507178933099,8.62142857142857L93.83643217902419,8.62142857142857L93.40786075045276,8.192857142857143L92.33643217902419,8.192857142857143L92.12214646473846,7.978571428571428L91.0507178933099,7.978571428571428L90.80714285714285,7.734996392404369L90.80714285714285,7.55L89.80642496383294,7.55L89.37785353526151,7.978571428571428L89.1635678209758,7.978571428571428L88.94928210669008,8.192857142857143L87.87785353526151,8.192857142857143L87.6635678209758,8.407142857142858L87.02071067811865,8.407142857142858L86.80642496383294,8.62142857142857L86.59213924954722,8.62142857142857L86.37785353526151,8.835714285714285L85.73499639240437,8.835714285714285L85.53535533905931,9.035355339059327L85.46464466094066,8.964644660940673L85.69357503616705,8.735714285714284L86.33643217902419,8.735714285714284L86.5507178933099,8.521428571428569L86.76500360759562,8.521428571428569L86.97928932188132,8.307142857142857L87.62214646473848,8.307142857142857L87.83643217902419,8.092857142857142L88.90786075045276,8.092857142857142L89.12214646473848,7.878571428571428L89.33643217902419,7.878571428571428L89.76500360759562,7.45z" stroke="none"/><path d="M83.1635678209758,10.878571428571426L83.37785353526151,11.092857142857142L90.02071067811865,11.092857142857142L90.44928210669008,11.521428571428569L91.30642496383294,11.521428571428569L91.94928210669008,12.164285714285715L92.37785353526151,12.164285714285715L92.59213924954722,12.378571428571426L93.40786075045276,12.378571428571426L93.59285714285713,12.193575036167061L93.59285714285713,11.806424963832939L92.76500360759562,10.978571428571428L92.12214646473846,10.978571428571428L91.69357503616705,10.55L91.49999999999999,10.55L91.49999999999999,10.45L91.73499639240437,10.45L92.16356782097579,10.878571428571426L92.80642496383294,10.878571428571426L93.69285714285712,11.76500360759563L93.69285714285712,12.23499639240437L93.44928210669008,12.478571428571428L92.5507178933099,12.478571428571428L92.33643217902419,12.264285714285716L91.90786075045276,12.264285714285716L91.26500360759562,11.62142857142857L90.40786075045276,11.62142857142857L89.97928932188132,11.192857142857143L83.33643217902419,11.192857142857143L83.12214646473848,10.978571428571428L72.47857142857141,10.978571428571428L72.47857142857141,11.163567820975796L72.23499639240437,11.407142857142858L60.44928210669008,11.407142857142858L60.23499639240437,11.62142857142857L59.80642496383294,11.62142857142857L59.37785353526151,12.05L58.5,12.05L58.5,11.95L59.3364321790242,11.95L59.76500360759563,11.521428571428569L60.19357503616706,11.521428571428569L60.40786075045277,11.307142857142857L72.19357503616705,11.307142857142857L72.37857142857142,11.122146464738488L72.37857142857142,10.978571428571428L69.19357503616705,10.978571428571428L68.76500360759562,10.55L67.49999999999999,10.55L67.49999999999999,10.45L68.80642496383294,10.45L69.23499639240437,10.878571428571426z" stroke="none"/><path d="M41.76500360759563,8.307142857142857L42.622146464738485,7.45L43.5,7.45L43.5,7.55L42.66356782097579,7.55L41.80642496383294,8.407142857142858L32.40714285714285,8.407142857142858L32.40714285714285,8.592139249547223L31.94928210669008,9.05L31.520710678118654,9.05L31.30642496383294,9.264285714285716L31.092139249547223,9.264285714285716L30.87785353526151,9.478571428571428L29.592139249547223,9.478571428571428L29.163567820975796,9.907142857142858L28.520710678118654,9.907142857142858L28.092139249547223,10.335714285714285L27.663567820975796,10.335714285714285L27.44928210669008,10.55L27,10.55L27,10.45L27.407860750452773,10.45L27.62214646473849,10.235714285714284L28.050717893309915,10.235714285714284L28.479289321881346,9.807142857142857L29.12214646473849,9.807142857142857L29.550717893309915,9.378571428571426L30.836432179024204,9.378571428571426L31.050717893309915,9.164285714285715L31.26500360759563,9.164285714285715L31.479289321881346,8.95L31.907860750452773,8.95L32.30714285714286,8.550717893309915L32.30714285714286,8.407142857142858L31.69357503616706,8.407142857142858L31.479289321881346,8.192857142857143L30.836432179024204,8.192857142857143L30.62214646473849,7.978571428571428L30.19357503616706,7.978571428571428L29.979289321881346,7.764285714285714L27.62214646473849,7.764285714285714L27.407860750452773,7.55L27,7.55L27,7.45L27.44928210669008,7.45L27.663567820975796,7.664285714285715L30.020710678118654,7.664285714285715L30.23499639240437,7.878571428571428L30.663567820975796,7.878571428571428L30.87785353526151,8.092857142857142L31.520710678118654,8.092857142857142L31.73499639240437,8.307142857142857z" stroke="none"/><path d="M83.37785353526151,10.45L89.99999999999999,10.45L89.99999999999999,10.55L83.40714285714284,10.55L83.40714285714284,10.693575036167061L83.59213924954722,10.878571428571426L90.23499639240437,10.878571428571426L90.6635678209758,11.307142857142857L91.52071067811865,11.307142857142857L91.94928210669008,11.735714285714284L92.80642496383294,11.735714285714284L93.03535533905931,11.964644660940673L92.96464466094066,12.035355339059327L92.76500360759562,11.835714285714285L91.90786075045276,11.835714285714285L91.47928932188132,11.407142857142858L90.62214646473848,11.407142857142858L90.19357503616705,10.978571428571428L83.5507178933099,10.978571428571428L83.30714285714285,10.73499639240437L83.30714285714285,10.520710678118654L82.90786075045276,10.12142857142857L69.40786075045276,10.12142857142857L69.19357503616705,9.907142857142858L68.97928932188132,9.907142857142858L68.33643217902419,9.264285714285716L67.69357503616705,9.264285714285716L67.46464466094066,9.035355339059327L67.53535533905931,8.964644660940673L67.73499639240437,9.164285714285715L68.37785353526151,9.164285714285715L69.02071067811865,9.807142857142857L69.23499639240437,9.807142857142857L69.44928210669008,10.021428571428569L82.94928210669008,10.021428571428569z" stroke="none"/><path d="M32.95,10.45L32.95,10.26500360759563L33.19357503616706,10.021428571428569L42.66356782097579,10.021428571428569L43.09213924954722,10.45L43.30642496383294,10.45L43.73499639240437,10.878571428571426L43.949282106690085,10.878571428571426L44.37785353526151,11.307142857142857L44.59213924954722,11.307142857142857L44.80642496383294,11.521428571428569L45.020710678118654,11.521428571428569L45.26428571428571,11.76500360759563L45.26428571428571,12.23499639240437L45.020710678118654,12.478571428571428L32.979289321881346,12.478571428571428L32.76500360759563,12.264285714285716L32.550717893309915,12.264285714285716L31.69357503616706,11.407142857142858L27.62214646473849,11.407142857142858L27.407860750452773,11.192857142857143L22.907860750452773,11.192857142857143L22.69357503616706,10.978571428571428L22.479289321881346,10.978571428571428L22.05071789330992,10.55L21.836432179024204,10.55L21.62214646473849,10.335714285714285L20.12214646473849,10.335714285714285L19.907860750452773,10.12142857142857L4.949282106690084,10.12142857142857L4.734996392404369,10.335714285714285L3.449282106690083,10.335714285714285L3.234996392404369,10.55L3,10.55L3,10.45L3.1935750361670596,10.45L3.4078607504527736,10.235714285714284L4.69357503616706,10.235714285714284L4.907860750452774,10.021428571428569L19.94928210669008,10.021428571428569L20.163567820975796,10.235714285714284L21.663567820975796,10.235714285714284L21.87785353526151,10.45L22.092139249547227,10.45L22.520710678118654,10.878571428571426L22.73499639240437,10.878571428571426L22.94928210669008,11.092857142857142L27.44928210669008,11.092857142857142L27.663567820975796,11.307142857142857L31.73499639240437,11.307142857142857L32.59213924954722,12.164285714285715L32.80642496383294,12.164285714285715L33.020710678118654,12.378571428571426L44.979289321881346,12.378571428571426L45.16428571428572,12.193575036167061L45.16428571428572,11.806424963832939L44.979289321881346,11.62142857142857L44.76500360759563,11.62142857142857L44.550717893309915,11.407142857142858L44.3364321790242,11.407142857142858L43.90786075045278,10.978571428571428L43.69357503616706,10.978571428571428L43.26500360759563,10.55L43.050717893309915,10.55L42.622146464738485,10.12142857142857L33.23499639240437,10.12142857142857L33.05,10.306424963832939L33.05,10.45L42.23499639240437,10.45L42.449282106690085,10.664285714285715L42.66356782097579,10.664285714285715L43.09213924954722,11.092857142857142L43.73499639240437,11.092857142857142L44.37785353526151,11.735714285714284L44.80642496383294,11.735714285714284L45.03535533905933,11.964644660940673L44.96464466094067,12.035355339059327L44.76500360759563,11.835714285714285L44.3364321790242,11.835714285714285L43.69357503616706,11.192857142857143L43.050717893309915,11.192857142857143L42.622146464738485,10.764285714285716L42.40786075045278,10.764285714285716L42.19357503616706,10.55L33.05,10.55L33.05,12L32.95,12L32.95,10.55L28.092139249547223,10.55L27.87785353526151,10.764285714285716L27.663567820975796,10.764285714285716L27.44928210669008,10.978571428571428L26.550717893309915,10.978571428571428L26.307142857142857,10.73499639240437L26.307142857142857,7.265003607595631L26.550717893309915,7.021428571428571L39.19357503616706,7.021428571428571L39.40786075045278,6.807142857142857L48.87785353526151,6.807142857142857L49.30642496383294,7.235714285714286L50.37785353526151,7.235714285714286L50.59213924954722,7.45L51,7.45L51,7.55L50.550717893309915,7.55L50.3364321790242,7.335714285714285L49.26500360759563,7.335714285714285L48.8364321790242,6.907142857142857L39.449282106690085,6.907142857142857L39.23499639240437,7.121428571428571L26.592139249547223,7.121428571428571L26.40714285714286,7.30642496383294L26.40714285714286,10.693575036167061L26.592139249547223,10.878571428571426L27.407860750452773,10.878571428571426L27.62214646473849,10.664285714285715L27.836432179024204,10.664285714285715L28.050717893309915,10.45z" stroke="none"/><path d="M56.09285714285714,6.5928571428571425L56.09285714285714,6.449282106690083L55.90786075045277,6.264285714285714L49.479289321881346,6.264285714285714L48.40786075045277,5.192857142857142L47.550717893309915,5.192857142857142L47.122146464738485,4.764285714285714L46.69357503616706,4.764285714285714L46.46464466094067,4.535355339059327L46.53535533905933,4.464644660940673L46.73499639240437,4.664285714285715L47.16356782097579,4.664285714285715L47.59213924954722,5.0928571428571425L48.44928210669008,5.0928571428571425L49.520710678118654,6.164285714285715L55.94928210669008,6.164285714285715L56.192857142857136,6.407860750452773L56.192857142857136,6.5928571428571425L56.3364321790242,6.5928571428571425L56.52142857142857,6.407860750452773L56.52142857142857,2.550717893309917L56.76500360759563,2.3071428571428574L63.44928210669008,2.3071428571428574L63.87785353526151,2.7357142857142858L64.30642496383294,2.7357142857142858L65.1635678209758,3.592857142857143L65.59213924954722,3.592857142857143L65.80642496383294,3.8071428571428574L66.23499639240437,3.8071428571428574L66.44928210669008,4.021428571428571L66.87785353526151,4.021428571428571L67.09213924954722,4.235714285714286L67.30642496383294,4.235714285714286L67.53535533905931,4.464644660940673L67.46464466094066,4.535355339059327L67.26500360759562,4.335714285714285L67.0507178933099,4.335714285714285L66.83643217902419,4.121428571428571L66.40786075045276,4.121428571428571L66.19357503616705,3.907142857142857L65.76500360759562,3.907142857142857L65.5507178933099,3.6928571428571426L65.12214646473848,3.6928571428571426L64.26500360759562,2.8357142857142854L63.8364321790242,2.8357142857142854L63.40786075045277,2.407142857142857L56.80642496383294,2.407142857142857L56.62142857142857,2.5921392495472264L56.62142857142857,6.449282106690083L56.37785353526151,6.692857142857142L56.192857142857136,6.692857142857142L56.192857142857136,6.836432179024202L56.83571428571428,7.479289321881345L56.83571428571428,7.69357503616706L57.05,7.907860750452773L57.05,9L56.95,9L56.95,7.949282106690083L56.73571428571429,7.734996392404369L56.73571428571429,7.520710678118655L56.09285714285714,6.8778535352615116L56.09285714285714,6.692857142857142L55.94928210669008,6.692857142857142L54.47857142857142,8.163567820975796L54.47857142857142,8.377853535261512L54.05,8.806424963832939L54.05,9L53.95,9L53.95,8.76500360759563L54.378571428571426,8.336432179024204L54.378571428571426,8.122146464738488L55.90786075045277,6.5928571428571425z" stroke="none"/><path d="M45.66356782097579,9.164285714285715L50.16356782097579,9.164285714285715L50.37785353526151,9.378571428571426L53.16356782097579,9.378571428571426L53.37785353526151,9.592857142857142L59.80642496383294,9.592857142857142L60.020710678118654,9.807142857142857L61.73499639240437,9.807142857142857L62.16356782097579,10.235714285714284L62.59213924954722,10.235714285714284L62.80642496383294,10.45L63,10.45L63,10.55L62.76500360759563,10.55L62.550717893309915,10.335714285714285L62.122146464738485,10.335714285714285L61.69357503616706,9.907142857142858L59.979289321881346,9.907142857142858L59.76500360759563,9.692857142857143L53.3364321790242,9.692857142857143L53.122146464738485,9.478571428571428L50.3364321790242,9.478571428571428L50.122146464738485,9.264285714285716L45.692857142857136,9.264285714285716L45.692857142857136,9.407860750452773L45.87785353526151,9.592857142857142L52.94928210669008,9.592857142857142L53.16356782097579,9.807142857142857L59.59213924954722,9.807142857142857L59.80642496383294,10.021428571428569L60.87785353526151,10.021428571428569L61.09213924954722,10.235714285714284L61.30642496383294,10.235714285714284L61.520710678118654,10.45L62.16356782097579,10.45L62.37785353526151,10.664285714285715L63.19357503616706,10.664285714285715L63.59285714285714,10.26500360759563L63.59285714285714,10.050717893309915L63.80714285714286,9.836432179024204L63.80714285714286,9.407860750452773L64.02142857142857,9.193575036167061L64.02142857142857,8.979289321881346L64.23571428571428,8.76500360759563L64.23571428571428,7.907860750452773L64.44999999999999,7.69357503616706L64.44999999999999,7.5L64.54999999999998,7.5L64.54999999999998,7.734996392404369L64.33571428571427,7.949282106690083L64.33571428571427,8.806424963832939L64.12142857142857,9.020710678118654L64.12142857142857,9.23499639240437L63.90714285714285,9.449282106690081L63.90714285714285,9.877853535261512L63.692857142857136,10.092139249547223L63.692857142857136,10.306424963832939L63.23499639240437,10.764285714285716L62.3364321790242,10.764285714285716L62.122146464738485,10.55L61.479289321881346,10.55L61.26500360759563,10.335714285714285L61.050717893309915,10.335714285714285L60.8364321790242,10.12142857142857L59.76500360759563,10.12142857142857L59.550717893309915,9.907142857142858L53.122146464738485,9.907142857142858L52.90786075045277,9.692857142857143L45.8364321790242,9.692857142857143L45.59285714285714,9.449282106690081L45.59285714285714,9.264285714285716L45.449282106690085,9.264285714285716L45.26428571428571,9.449282106690081L45.26428571428571,11.122146464738488L45.47857142857143,11.336432179024204L45.47857142857143,12.449282106690081L45.23499639240437,12.692857142857143L22.05071789330992,12.692857142857143L21.836432179024204,12.478571428571428L17.12214646473849,12.478571428571428L16.69357503616706,12.05L16.5,12.05L16.5,11.95L16.73499639240437,11.95L17.163567820975796,12.378571428571426L21.87785353526151,12.378571428571426L22.092139249547227,12.592857142857142L45.19357503616706,12.592857142857142L45.37857142857143,12.407860750452773L45.37857142857143,11.377853535261512L45.16428571428572,11.163567820975796L45.16428571428572,9.407860750452773L45.40786075045278,9.164285714285715L45.52214646473848,9.164285714285715L44.30714285714286,7.949282106690083L44.30714285714286,7.734996392404369L44.09285714285714,7.520710678118655L44.09285714285714,7.30642496383294L43.90786075045278,7.121428571428571L39.66356782097579,7.121428571428571L39.23499639240437,7.55L39,7.55L39,7.45L39.19357503616706,7.45L39.622146464738485,7.021428571428571L43.949282106690085,7.021428571428571L44.192857142857136,7.265003607595631L44.192857142857136,7.479289321881345L44.40714285714285,7.69357503616706L44.40714285714285,7.907860750452773z" stroke="none"/><path d="M65.52142857142856,5.521428571428571L65.52142857142856,5.336432179024202L65.76500360759562,5.0928571428571425L75.02071067811865,5.0928571428571425L75.23499639240437,5.307142857142857L76.52071067811865,5.307142857142857L76.73499639240437,5.521428571428571L77.37785353526151,5.521428571428571L77.59213924954722,5.735714285714286L77.80642496383294,5.735714285714286L78.03535533905931,5.964644660940673L77.96464466094066,6.035355339059327L77.76500360759562,5.835714285714285L77.5507178933099,5.835714285714285L77.33643217902419,5.621428571428571L76.69357503616705,5.621428571428571L76.47928932188132,5.407142857142857L75.19357503616705,5.407142857142857L74.97928932188132,5.192857142857142L65.80642496383294,5.192857142857142L65.62142857142855,5.3778535352615116L65.62142857142855,5.521428571428571L72.87785353526151,5.521428571428571L73.30642496383294,5.95L73.49999999999999,5.95L73.49999999999999,6.05L73.26500360759562,6.05L72.83643217902419,5.621428571428571L65.62142857142855,5.621428571428571L65.62142857142855,5.80642496383294L65.37785353526151,6.05L64.73499639240437,6.05L64.30642496383294,6.478571428571428L61.94928210669008,6.478571428571428L61.73499639240437,6.692857142857142L61.520710678118654,6.692857142857142L61.30642496383294,6.907142857142857L61.09213924954722,6.907142857142857L60.66356782097579,7.335714285714285L59.80642496383294,7.335714285714285L58.30642496383294,8.835714285714285L58.09213924954722,8.835714285714285L57.44928210669008,9.478571428571428L53.550717893309915,9.478571428571428L53.30714285714286,9.23499639240437L53.30714285714286,8.550717893309915L53.52142857142857,8.336432179024204L53.52142857142857,7.907860750452773L53.96464466094067,7.464644660940673L54.03535533905933,7.535355339059327L53.62142857142857,7.949282106690083L53.62142857142857,8.377853535261512L53.40714285714285,8.592139249547223L53.40714285714285,9.193575036167061L53.59213924954722,9.378571428571426L57.40786075045277,9.378571428571426L58.050717893309915,8.735714285714284L58.26500360759563,8.735714285714284L59.76500360759563,7.235714285714286L60.622146464738485,7.235714285714286L61.050717893309915,6.807142857142857L61.26500360759563,6.807142857142857L61.479289321881346,6.5928571428571425L61.69357503616706,6.5928571428571425L61.90786075045277,6.378571428571428L64.26500360759562,6.378571428571428L64.69357503616705,5.95L65.33643217902419,5.95L65.52142857142856,5.765003607595631L65.52142857142856,5.621428571428571L60.19357503616706,5.621428571428571L58.26500360759563,3.6928571428571426L57.8364321790242,3.6928571428571426L57.19357503616706,3.05L57,3.05L57,2.95L57.23499639240437,2.95L57.87785353526151,3.592857142857143L58.30642496383294,3.592857142857143L60.23499639240437,5.521428571428571z" stroke="none"/><path d="M77.52142857142856,6.5928571428571425L77.52142857142856,6.449282106690083L77.33643217902419,6.264285714285714L77.1635678209758,6.264285714285714L76.94928210669008,6.478571428571428L76.0507178933099,6.478571428571428L75.80714285714285,6.234996392404369L75.80714285714285,6.020710678118655L75.62214646473848,5.835714285714285L75.44928210669008,5.835714285714285L75.2642857142857,6.020710678118655L75.2642857142857,6.19357503616706L75.44928210669008,6.378571428571428L78.40786075045276,6.378571428571428L78.59285714285714,6.19357503616706L78.59285714285714,6.020710678118655L78.37857142857142,5.80642496383294L78.37857142857142,5.592139249547226L77.76500360759562,4.978571428571429L69.19357503616705,4.978571428571429L68.33643217902419,4.121428571428571L67.90786075045276,4.121428571428571L67.69357503616705,3.907142857142857L67.0507178933099,3.907142857142857L66.83643217902419,3.6928571428571426L65.97928932188132,3.6928571428571426L65.76500360759562,3.478571428571428L65.5507178933099,3.478571428571428L64.69357503616705,2.6214285714285714L64.26500360759562,2.6214285714285714L63.8364321790242,2.1928571428571426L49.520710678118654,2.1928571428571426L48.44928210669008,3.2642857142857142L48.23499639240437,3.2642857142857142L48.020710678118654,3.478571428571428L47.37785353526151,3.478571428571428L47.16356782097579,3.6928571428571426L46.520710678118654,3.6928571428571426L46.12142857142857,4.092139249547226L46.12142857142857,4.907860750452774L46.30642496383294,5.0928571428571425L46.520710678118654,5.0928571428571425L47.59213924954722,6.164285714285715L47.80642496383294,6.164285714285715L48.020710678118654,6.378571428571428L49.94928210669008,6.378571428571428L50.16356782097579,6.5928571428571425L50.80642496383294,6.5928571428571425L51.020710678118654,6.807142857142857L51.23499639240437,6.807142857142857L51.47857142857142,7.050717893309916L51.47857142857142,8.163567820975796L51.26428571428571,8.377853535261512L51.26428571428571,8.592139249547223L51.05,8.806424963832939L51.05,9L50.95,9L50.95,8.76500360759563L51.16428571428572,8.550717893309915L51.16428571428572,8.336432179024204L51.378571428571426,8.122146464738488L51.378571428571426,7.092139249547226L51.19357503616706,6.907142857142857L50.979289321881346,6.907142857142857L50.76500360759563,6.692857142857142L50.122146464738485,6.692857142857142L49.90786075045277,6.478571428571428L47.979289321881346,6.478571428571428L47.76500360759563,6.264285714285714L47.550717893309915,6.264285714285714L46.479289321881346,5.192857142857142L46.26500360759563,5.192857142857142L46.02142857142857,4.949282106690084L46.02142857142857,4.050717893309916L46.479289321881346,3.592857142857143L47.122146464738485,3.592857142857143L47.3364321790242,3.3785714285714286L47.979289321881346,3.3785714285714286L48.19357503616706,3.1642857142857146L48.40786075045277,3.1642857142857146L49.479289321881346,2.092857142857143L63.87785353526151,2.092857142857143L64.30642496383294,2.521428571428572L64.73499639240437,2.521428571428572L65.59213924954722,3.3785714285714286L65.80642496383294,3.3785714285714286L66.02071067811865,3.592857142857143L66.87785353526151,3.592857142857143L67.09213924954722,3.8071428571428574L67.73499639240437,3.8071428571428574L67.94928210669008,4.021428571428571L68.37785353526151,4.021428571428571L69.23499639240437,4.878571428571429L77.80642496383294,4.878571428571429L78.47857142857141,5.550717893309916L78.47857142857141,5.765003607595631L78.69285714285714,5.979289321881345L78.69285714285714,6.234996392404369L78.44928210669008,6.478571428571428L75.40786075045276,6.478571428571428L75.16428571428571,6.234996392404369L75.16428571428571,5.979289321881345L75.40786075045276,5.735714285714286L75.6635678209758,5.735714285714286L75.90714285714284,5.979289321881345L75.90714285714284,6.19357503616706L76.09213924954722,6.378571428571428L76.90786075045276,6.378571428571428L77.12214646473848,6.164285714285715L77.37785353526151,6.164285714285715L77.62142857142855,6.407860750452773L77.62142857142855,6.5928571428571425L85.69357503616705,6.5928571428571425L86.33643217902419,5.95L88.69357503616705,5.95L88.90786075045276,5.735714285714286L89.12214646473848,5.735714285714286L89.33643217902419,5.521428571428571L89.5507178933099,5.521428571428571L89.97928932188132,5.0928571428571425L90.19357503616705,5.0928571428571425L90.40786075045276,4.878571428571429L90.62214646473848,4.878571428571429L90.83643217902419,4.664285714285715L91.69357503616705,4.664285714285715L91.90786075045276,4.45L92.12214646473846,4.45L92.5507178933099,4.021428571428571L93.44928210669008,4.021428571428571L93.69285714285712,4.265003607595631L93.69285714285712,4.734996392404369L93.2642857142857,5.163567820975797L93.2642857142857,5.592139249547226L93.04999999999998,5.80642496383294L93.04999999999998,6L92.94999999999999,6L92.94999999999999,5.765003607595631L93.16428571428571,5.550717893309916L93.16428571428571,5.122146464738488L93.59285714285713,4.69357503616706L93.59285714285713,4.30642496383294L93.40786075045276,4.121428571428571L92.59213924954722,4.121428571428571L92.16356782097579,4.55L91.94928210669008,4.55L91.73499639240437,4.764285714285714L90.87785353526151,4.764285714285714L90.6635678209758,4.978571428571429L90.44928210669008,4.978571428571429L90.23499639240437,5.192857142857142L90.02071067811865,5.192857142857142L89.59213924954722,5.621428571428571L89.37785353526151,5.621428571428571L89.1635678209758,5.835714285714285L88.94928210669008,5.835714285714285L88.73499639240437,6.05L86.37785353526151,6.05L85.73499639240437,6.692857142857142L77.62142857142855,6.692857142857142L77.62142857142855,6.836432179024202L78.02071067811865,7.235714285714286L79.30642496383294,7.235714285714286L79.52071067811865,7.45L81.87785353526151,7.45L82.52071067811865,8.092857142857142L82.94928210669008,8.092857142857142L83.1635678209758,8.307142857142857L83.37785353526151,8.307142857142857L84.23499639240437,9.164285714285715L84.44928210669008,9.164285714285715L84.6635678209758,9.378571428571426L94.90786075045276,9.378571428571426L99.62214646473846,4.664285714285715L100.26500360759562,4.664285714285715L100.46464466094066,4.464644660940673L100.53535533905931,4.535355339059327L100.30642496383294,4.764285714285714L99.66356782097579,4.764285714285714L94.94928210669008,9.478571428571428L84.62214646473848,9.478571428571428L84.40786075045276,9.264285714285716L84.19357503616705,9.264285714285716L83.33643217902419,8.407142857142858L83.12214646473848,8.407142857142858L82.90786075045276,8.192857142857143L82.47928932188132,8.192857142857143L81.83643217902419,7.55L79.47928932188132,7.55L79.26500360759562,7.335714285714285L77.97928932188132,7.335714285714285L77.52142857142856,6.8778535352615116L77.52142857142856,6.692857142857142L69.02071067811865,6.692857142857142L68.59213924954722,7.121428571428571L67.52071067811865,7.121428571428571L67.30642496383294,7.335714285714285L67.09213924954722,7.335714285714285L66.87785353526151,7.55L65.99999999999999,7.55L65.99999999999999,7.45L66.83643217902419,7.45L67.0507178933099,7.235714285714286L67.26500360759562,7.235714285714286L67.47928932188132,7.021428571428571L68.5507178933099,7.021428571428571L68.97928932188132,6.5928571428571425z" stroke="none"/><path d="M34.5,7.55L34.5,7.45L36,7.45L36,7.55z" stroke="none"/><path d="M49.46464466094067,3.0353553390593273L49.53535533905933,2.9646446609406727L51.03535533905933,4.464644660940673L50.96464466094067,4.535355339059327z" stroke="none"/><path d="M97.53535533905931,6.035355339059327L97.46464466094066,5.964644660940673L98.76500360759562,4.664285714285715L99.19357503616705,4.664285714285715L99.83643217902419,4.021428571428571L100.94928210669008,4.021428571428571L101.19285714285712,4.265003607595631L101.19285714285712,4.520710678118655L100.97857142857141,4.734996392404369L100.97857142857141,4.949282106690084L100.12142857142855,5.80642496383294L100.12142857142855,6.020710678118655L98.40714285714284,7.734996392404369L98.40714285714284,7.949282106690083L97.54999999999998,8.806424963832939L97.54999999999998,9L97.44999999999999,9L97.44999999999999,8.76500360759563L98.30714285714285,7.907860750452773L98.30714285714285,7.69357503616706L100.02142857142856,5.979289321881345L100.02142857142856,5.765003607595631L100.87857142857142,4.907860750452774L100.87857142857142,4.69357503616706L101.09285714285713,4.479289321881345L101.09285714285713,4.30642496383294L100.90786075045276,4.121428571428571L99.87785353526151,4.121428571428571L99.23499639240437,4.764285714285714L98.80642496383294,4.764285714285714z" stroke="none"/><path d="M21.03535533905933,9.035355339059327L20.96464466094067,8.964644660940673L21.62214646473849,8.307142857142857L21.836432179024204,8.307142857142857L22.05071789330992,8.092857142857142L23.12214646473849,8.092857142857142L23.76500360759563,7.45L24,7.45L24,7.55L23.80642496383294,7.55L23.163567820975796,8.192857142857143L22.092139249547227,8.192857142857143L21.87785353526151,8.407142857142858L21.663567820975796,8.407142857142858z" stroke="none"/><path d="M12.035355339059327,5.964644660940673L11.964644660940673,6.035355339059327L11.735714285714284,5.80642496383294L11.735714285714284,5.3778535352615116L11.521428571428569,5.163567820975797L11.521428571428569,4.949282106690084L11.092857142857142,4.520710678118655L11.092857142857142,4.30642496383294L10.45,3.6635678209757976L10.45,3L10.55,3L10.55,3.622146464738488L11.192857142857143,4.265003607595631L11.192857142857143,4.479289321881345L11.62142857142857,4.907860750452774L11.62142857142857,5.122146464738488L11.835714285714285,5.336432179024202L11.835714285714285,5.765003607595631z" stroke="none"/><path d="M95.99999999999999,7.45L95.99999999999999,7.55L91.49999999999999,7.55L91.49999999999999,7.45z" stroke="none"/><path d="M27,2.95L27,3.05L22.5,3.05L22.5,2.95z" stroke="none"/><path d="M19.53535533905933,9.035355339059327L19.46464466094067,8.964644660940673L19.664285714285715,8.76500360759563L19.664285714285715,8.336432179024204L19.878571428571426,8.122146464738488L19.878571428571426,6.19357503616706L20.09285714285714,5.979289321881345L20.09285714285714,5.765003607595631L20.307142857142857,5.550717893309916L20.307142857142857,5.122146464738488L20.96464466094067,4.464644660940673L21.03535533905933,4.535355339059327L20.40714285714286,5.163567820975797L20.40714285714286,5.592139249547226L20.192857142857143,5.80642496383294L20.192857142857143,6.020710678118655L19.978571428571428,6.234996392404369L19.978571428571428,8.163567820975796L19.764285714285716,8.377853535261512L19.764285714285716,8.806424963832939z" stroke="none"/><path d="M19.53535533905933,6.035355339059327L19.46464466094067,5.964644660940673L19.878571428571426,5.550717893309916L19.878571428571426,5.122146464738488L20.09285714285714,4.907860750452774L20.09285714285714,4.69357503616706L20.307142857142857,4.479289321881345L20.307142857142857,4.265003607595631L20.55071789330992,4.021428571428571L23.37785353526151,4.021428571428571L23.80642496383294,4.45L24,4.45L24,4.55L23.76500360759563,4.55L23.336432179024204,4.121428571428571L20.592139249547227,4.121428571428571L20.40714285714286,4.30642496383294L20.40714285714286,4.520710678118655L20.192857142857143,4.734996392404369L20.192857142857143,4.949282106690084L19.978571428571428,5.163567820975797L19.978571428571428,5.592139249547226z" stroke="none"/><path d="M13.535355339059327,7.535355339059327L13.464644660940673,7.464644660940673L15.378571428571426,5.550717893309916L15.378571428571426,5.122146464738488L15.592857142857142,4.907860750452774L15.592857142857142,4.69357503616706L15.807142857142857,4.479289321881345L15.807142857142857,4.265003607595631L16.02142857142857,4.050717893309916L16.02142857142857,3.622146464738488L16.45,3.1935750361670596L16.45,3L16.55,3L16.55,3.234996392404369L16.12142857142857,3.6635678209757976L16.12142857142857,4.092139249547226L15.907142857142858,4.30642496383294L15.907142857142858,4.520710678118655L15.692857142857143,4.734996392404369L15.692857142857143,4.949282106690084L15.478571428571428,5.163567820975797L15.478571428571428,5.592139249547226z" stroke="none"/><path d="M13.535355339059327,5.964644660940673L13.464644660940673,6.035355339059327L11.092857142857142,3.6635678209757976L11.092857142857142,2.8064249638329404L10.907860750452773,2.6214285714285714L10.092139249547223,2.6214285714285714L9.877853535261512,2.8357142857142854L9.23499639240437,2.8357142857142854L9.035355339059327,3.0353553390593273L8.964644660940673,2.9646446609406727L9.193575036167061,2.7357142857142858L9.836432179024204,2.7357142857142858L10.050717893309915,2.521428571428572L10.949282106690081,2.521428571428572L11.192857142857143,2.765003607595631L11.192857142857143,3.622146464738488z" stroke="none"/><path d="M14.964644660940673,7.464644660940673L15.035355339059327,7.535355339059327L14.592139249547223,7.978571428571428L13.050717893309915,7.978571428571428L12.378571428571426,7.30642496383294L12.378571428571426,7.092139249547226L12.193575036167061,6.907142857142857L11.979289321881346,6.907142857142857L11.307142857142857,6.234996392404369L11.307142857142857,5.592139249547226L11.092857142857142,5.3778535352615116L11.092857142857142,5.163567820975797L10.464644660940673,4.535355339059327L10.535355339059327,4.464644660940673L11.192857142857143,5.122146464738488L11.192857142857143,5.336432179024202L11.407142857142858,5.550717893309916L11.407142857142858,6.19357503616706L12.020710678118654,6.807142857142857L12.23499639240437,6.807142857142857L12.478571428571428,7.050717893309916L12.478571428571428,7.265003607595631L13.092139249547223,7.878571428571428L14.550717893309915,7.878571428571428z" stroke="none"/><path d="M11.964644660940673,7.535355339059327L12.035355339059327,7.464644660940673L12.23499639240437,7.664285714285715L12.449282106690081,7.664285714285715L12.877853535261512,8.092857142857142L15.193575036167061,8.092857142857142L15.378571428571426,7.907860750452773L15.378571428571426,6.836432179024202L15.592857142857142,6.622146464738488L15.592857142857142,5.979289321881345L15.807142857142857,5.765003607595631L15.807142857142857,5.550717893309916L16.235714285714284,5.122146464738488L16.235714285714284,4.69357503616706L16.46464466094067,4.464644660940673L16.53535533905933,4.535355339059327L16.335714285714285,4.734996392404369L16.335714285714285,5.163567820975797L15.907142857142858,5.592139249547226L15.907142857142858,5.80642496383294L15.692857142857143,6.020710678118655L15.692857142857143,6.663567820975797L15.478571428571428,6.8778535352615116L15.478571428571428,7.949282106690083L15.23499639240437,8.192857142857143L12.836432179024204,8.192857142857143L12.407860750452773,7.764285714285714L12.193575036167061,7.764285714285714z" stroke="none"/><path d="M82.49999999999999,12.05L82.49999999999999,11.95L83.76500360759562,11.95L83.97928932188132,11.735714285714284L84.83643217902419,11.735714285714284L85.0507178933099,11.521428571428569L85.94928210669008,11.521428571428569L86.1635678209758,11.735714285714284L87.87785353526151,11.735714285714284L88.09213924954722,11.95L88.49999999999999,11.95L88.49999999999999,12.05L88.0507178933099,12.05L87.83643217902419,11.835714285714285L86.12214646473848,11.835714285714285L85.90786075045276,11.62142857142857L85.09213924954722,11.62142857142857L84.87785353526151,11.835714285714285L84.02071067811865,11.835714285714285L83.80642496383294,12.05z" stroke="none"/><path d="M13.5,11.95L13.5,12.05L13.050717893309915,12.05L12.622146464738488,11.62142857142857L12.407860750452773,11.62142857142857L12.193575036167061,11.407142857142858L11.122146464738488,11.407142857142858L10.907860750452773,11.192857142857143L9.836432179024204,11.192857142857143L9.622146464738488,10.978571428571428L8.76500360759563,10.978571428571428L8.550717893309915,10.764285714285716L7.907860750452773,10.764285714285716L7.69357503616706,10.55L7.5,10.55L7.5,10.45L7.734996392404369,10.45L7.949282106690083,10.664285714285715L8.592139249547223,10.664285714285715L8.806424963832939,10.878571428571426L9.663567820975796,10.878571428571426L9.877853535261512,11.092857142857142L10.949282106690081,11.092857142857142L11.163567820975796,11.307142857142857L12.23499639240437,11.307142857142857L12.449282106690081,11.521428571428569L12.663567820975796,11.521428571428569L13.092139249547223,11.95z" stroke="none"/><path d="M20.95,7.5L21.05,7.5L21.05,8.163567820975796L20.621428571428574,8.592139249547223L20.621428571428574,8.806424963832939L19.94928210669008,9.478571428571428L14.550717893309915,9.478571428571428L14.336432179024204,9.264285714285716L13.693575036167061,9.264285714285716L13.464644660940673,9.035355339059327L13.535355339059327,8.964644660940673L13.73499639240437,9.164285714285715L14.377853535261512,9.164285714285715L14.592139249547223,9.378571428571426L19.907860750452773,9.378571428571426L20.521428571428572,8.76500360759563L20.521428571428572,8.550717893309915L20.95,8.122146464738488z" stroke="none"/><path d="M16.45,6L16.55,6L16.55,6.234996392404369L15.692857142857143,7.092139249547226L15.692857142857143,8.163567820975796L15.449282106690081,8.407142857142858L10.050717893309915,8.407142857142858L9.407860750452773,7.764285714285714L9.193575036167061,7.764285714285714L8.964644660940673,7.535355339059327L9.035355339059327,7.464644660940673L9.23499639240437,7.664285714285715L9.449282106690081,7.664285714285715L10.092139249547223,8.307142857142857L15.407860750452773,8.307142857142857L15.592857142857142,8.122146464738488L15.592857142857142,7.050717893309916L16.45,6.19357503616706z" stroke="none"/><path d="M30,5.95L30,6.05L21,6.05L21,5.95z" stroke="none"/><path d="M67.49999999999999,6.05L67.49999999999999,5.95L70.30642496383294,5.95L70.52071067811865,6.164285714285715L72.87785353526151,6.164285714285715L73.09213924954722,6.378571428571428L73.90786075045276,6.378571428571428L74.12214646473848,6.164285714285715L74.33643217902419,6.164285714285715L74.5507178933099,5.95L74.76500360759562,5.95L75.19357503616705,5.521428571428571L75.87785353526151,5.521428571428571L76.09213924954722,5.735714285714286L76.30642496383294,5.735714285714286L76.53535533905931,5.964644660940673L76.46464466094066,6.035355339059327L76.26500360759562,5.835714285714285L76.0507178933099,5.835714285714285L75.83643217902419,5.621428571428571L75.23499639240437,5.621428571428571L74.80642496383294,6.05L74.59213924954722,6.05L74.37785353526151,6.264285714285714L74.1635678209758,6.264285714285714L73.94928210669008,6.478571428571428L73.0507178933099,6.478571428571428L72.83643217902419,6.264285714285714L70.47928932188132,6.264285714285714L70.26500360759562,6.05z" stroke="none"/><path d="M10.5,9.05L10.5,8.95L10.693575036167061,8.95L11.122146464738488,8.521428571428569L17.979289321881346,8.521428571428569L18.19357503616706,8.307142857142857L18.407860750452773,8.307142857142857L19.05071789330992,7.664285714285715L19.26500360759563,7.664285714285715L19.46464466094067,7.464644660940673L19.53535533905933,7.535355339059327L19.30642496383294,7.764285714285714L19.092139249547227,7.764285714285714L18.44928210669008,8.407142857142858L18.23499639240437,8.407142857142858L18.020710678118654,8.62142857142857L11.163567820975796,8.62142857142857L10.73499639240437,9.05z" stroke="none"/><path d="M13.45,10.5L13.55,10.5L13.55,10.693575036167061L13.764285714285716,10.907860750452773L13.764285714285716,11.336432179024204L13.978571428571428,11.550717893309915L13.978571428571428,12.449282106690081L13.73499639240437,12.692857142857143L5.550717893309916,12.692857142857143L5.122146464738488,12.264285714285716L4.69357503616706,12.264285714285716L4.265003607595631,11.835714285714285L4.050717893309916,11.835714285714285L3.622146464738488,11.407142857142858L3.4078607504527736,11.407142857142858L3.1935750361670596,11.192857142857143L2.765003607595631,11.192857142857143L2.521428571428572,10.949282106690081L2.521428571428572,10.050717893309915L2.765003607595631,9.807142857142857L21.407860750452773,9.807142857142857L22.05071789330992,9.164285714285715L22.26500360759563,9.164285714285715L22.46464466094067,8.964644660940673L22.53535533905933,9.035355339059327L22.30642496383294,9.264285714285716L22.092139249547227,9.264285714285716L21.44928210669008,9.907142857142858L2.8064249638329404,9.907142857142858L2.6214285714285714,10.092139249547223L2.6214285714285714,10.907860750452773L2.8064249638329404,11.092857142857142L3.234996392404369,11.092857142857142L3.449282106690083,11.307142857142857L3.6635678209757976,11.307142857142857L4.092139249547226,11.735714285714284L4.30642496383294,11.735714285714284L4.734996392404369,12.164285714285715L5.163567820975797,12.164285714285715L5.592139249547226,12.592857142857142L13.693575036167061,12.592857142857142L13.878571428571426,12.407860750452773L13.878571428571426,11.592139249547223L13.664285714285715,11.377853535261512L13.664285714285715,10.949282106690081L13.45,10.73499639240437z" stroke="none"/><path d="M70.49999999999999,7.55L70.49999999999999,7.45L78.87785353526151,7.45L79.09213924954722,7.664285714285715L80.37785353526151,7.664285714285715L80.80642496383294,8.092857142857142L81.44928210669008,8.092857142857142L82.09213924954722,8.735714285714284L82.73499639240437,8.735714285714284L82.94928210669008,8.95L83.1635678209758,8.95L83.59213924954722,9.378571428571426L84.02071067811865,9.378571428571426L84.23499639240437,9.592857142857142L96.62214646473846,9.592857142857142L96.83643217902419,9.378571428571426L97.90786075045276,9.378571428571426L98.09285714285713,9.193575036167061L98.09285714285713,8.979289321881346L100.87857142857142,6.19357503616706L100.87857142857142,5.979289321881345L101.30714285714285,5.550717893309916L101.30714285714285,4.092139249547226L101.12214646473846,3.907142857142857L85.30642496383294,3.907142857142857L85.09213924954722,4.121428571428571L83.59213924954722,4.121428571428571L83.1635678209758,4.55L80.99999999999999,4.55L80.99999999999999,4.45L83.12214646473848,4.45L83.5507178933099,4.021428571428571L85.0507178933099,4.021428571428571L85.26500360759562,3.8071428571428574L101.16356782097579,3.8071428571428574L101.40714285714284,4.050717893309916L101.40714285714284,5.592139249547226L100.97857142857141,6.020710678118655L100.97857142857141,6.234996392404369L98.19285714285712,9.020710678118654L98.19285714285712,9.23499639240437L97.94928210669008,9.478571428571428L96.87785353526151,9.478571428571428L96.66356782097579,9.692857142857143L84.19357503616705,9.692857142857143L83.97928932188132,9.478571428571428L83.5507178933099,9.478571428571428L83.12214646473848,9.05L82.90786075045276,9.05L82.69357503616705,8.835714285714285L82.0507178933099,8.835714285714285L81.40786075045276,8.192857142857143L80.76500360759562,8.192857142857143L80.33643217902419,7.764285714285714L79.0507178933099,7.764285714285714L78.83643217902419,7.55z" stroke="none"/><path d="M13.535355339059327,4.464644660940673L13.464644660940673,4.535355339059327L11.550717893309915,2.6214285714285714L11.336432179024204,2.6214285714285714L11.122146464738488,2.407142857142857L9.020710678118654,2.407142857142857L8.806424963832939,2.6214285714285714L8.592139249547223,2.6214285714285714L8.192857142857143,3.020710678118655L8.192857142857143,3.234996392404369L4.949282106690084,6.478571428571428L4.520710678118655,6.478571428571428L4.30642496383294,6.692857142857142L4.092139249547226,6.692857142857142L3.234996392404369,7.55L3,7.55L3,7.45L3.1935750361670596,7.45L4.050717893309916,6.5928571428571425L4.265003607595631,6.5928571428571425L4.479289321881345,6.378571428571428L4.907860750452774,6.378571428571428L8.092857142857142,3.1935750361670596L8.092857142857142,2.979289321881345L8.550717893309915,2.521428571428572L8.76500360759563,2.521428571428572L8.979289321881346,2.3071428571428574L11.163567820975796,2.3071428571428574L11.377853535261512,2.521428571428572L11.592139249547223,2.521428571428572z" stroke="none"/><path d="M34.5,6.05L34.5,5.95L37.69357503616706,5.95L38.122146464738485,5.521428571428571L40.90786075045278,5.521428571428571L41.979289321881346,4.45L42.19357503616706,4.45L42.40786075045278,4.235714285714286L43.050717893309915,4.235714285714286L44.122146464738485,3.1642857142857146L44.76500360759563,3.1642857142857146L44.96464466094067,2.9646446609406727L45.03535533905933,3.0353553390593273L44.80642496383294,3.2642857142857142L44.16356782097579,3.2642857142857142L43.09213924954722,4.335714285714285L42.449282106690085,4.335714285714285L42.23499639240437,4.55L42.020710678118654,4.55L40.949282106690085,5.621428571428571L38.16356782097579,5.621428571428571L37.73499639240437,6.05z" stroke="none"/><path d="M82.49999999999999,10.45L82.49999999999999,10.55L82.0507178933099,10.55L81.83643217902419,10.335714285714285L68.76500360759562,10.335714285714285L68.33643217902419,9.907142857142858L68.12214646473848,9.907142857142858L67.90786075045276,9.692857142857143L67.26500360759562,9.692857142857143L67.02142857142856,9.449282106690081L67.02142857142856,8.550717893309915L67.26500360759562,8.307142857142857L75.23499639240437,8.307142857142857L75.6635678209758,8.735714285714284L75.87785353526151,8.735714285714284L76.30642496383294,9.164285714285715L76.52071067811865,9.164285714285715L76.73499639240437,9.378571428571426L77.59213924954722,9.378571428571426L77.80642496383294,9.592857142857142L83.80642496383294,9.592857142857142L84.02071067811865,9.807142857142857L93.02071067811865,9.807142857142857L93.44928210669008,10.235714285714284L94.09213924954722,10.235714285714284L94.30642496383294,10.45L94.49999999999999,10.45L94.49999999999999,10.55L94.26500360759562,10.55L94.0507178933099,10.335714285714285L93.40786075045276,10.335714285714285L92.97928932188132,9.907142857142858L83.97928932188132,9.907142857142858L83.76500360759562,9.692857142857143L77.76500360759562,9.692857142857143L77.5507178933099,9.478571428571428L76.69357503616705,9.478571428571428L76.47928932188132,9.264285714285716L76.26500360759562,9.264285714285716L75.83643217902419,8.835714285714285L75.62214646473848,8.835714285714285L75.19357503616705,8.407142857142858L67.30642496383294,8.407142857142858L67.12142857142855,8.592139249547223L67.12142857142855,9.407860750452773L67.30642496383294,9.592857142857142L67.94928210669008,9.592857142857142L68.1635678209758,9.807142857142857L68.37785353526151,9.807142857142857L68.80642496383294,10.235714285714284L81.87785353526151,10.235714285714284L82.09213924954722,10.45z" stroke="none"/><path d="M80.99999999999999,3.05L80.99999999999999,2.95L92.99999999999999,2.95L92.99999999999999,3.05z" stroke="none"/><path d="M18.05,6L17.95,6L17.95,4.734996392404369L17.521428571428572,4.30642496383294L17.521428571428572,4.092139249547226L17.307142857142857,3.877853535261512L17.307142857142857,3.6635678209757976L17.09285714285714,3.449282106690083L17.09285714285714,2.8064249638329404L16.907860750452773,2.6214285714285714L12.193575036167061,2.6214285714285714L11.979289321881346,2.407142857142857L11.76500360759563,2.407142857142857L11.550717893309915,2.1928571428571426L8.377853535261512,2.1928571428571426L7.949282106690083,2.6214285714285714L7.520710678118655,2.6214285714285714L6.8778535352615116,3.2642857142857142L6.663567820975797,3.2642857142857142L6.234996392404369,3.6928571428571426L5.80642496383294,3.6928571428571426L5.3778535352615116,4.121428571428571L5.163567820975797,4.121428571428571L4.949282106690084,4.335714285714285L4.734996392404369,4.335714285714285L4.535355339059327,4.535355339059327L4.464644660940673,4.464644660940673L4.69357503616706,4.235714285714286L4.907860750452774,4.235714285714286L5.122146464738488,4.021428571428571L5.336432179024202,4.021428571428571L5.765003607595631,3.592857142857143L6.19357503616706,3.592857142857143L6.622146464738488,3.1642857142857146L6.836432179024202,3.1642857142857146L7.479289321881345,2.521428571428572L7.907860750452773,2.521428571428572L8.336432179024204,2.092857142857143L11.592139249547223,2.092857142857143L11.806424963832939,2.3071428571428574L12.020710678118654,2.3071428571428574L12.23499639240437,2.521428571428572L16.94928210669008,2.521428571428572L17.192857142857143,2.765003607595631L17.192857142857143,3.4078607504527736L17.40714285714286,3.622146464738488L17.40714285714286,3.8364321790242024L17.621428571428574,4.050717893309916L17.621428571428574,4.265003607595631L18.05,4.69357503616706z" stroke="none"/><path d="M31.46464466094067,3.0353553390593273L31.53535533905933,2.9646446609406727L33.692857142857136,5.122146464738488L33.692857142857136,5.765003607595631L33.90714285714285,5.979289321881345L33.90714285714285,6.19357503616706L34.09213924954722,6.378571428571428L40.479289321881346,6.378571428571428L40.69357503616706,6.164285714285715L41.122146464738485,6.164285714285715L41.3364321790242,5.95L42.622146464738485,5.95L42.8364321790242,5.735714285714286L43.26500360759563,5.735714285714286L43.90786075045278,5.0928571428571425L44.122146464738485,5.0928571428571425L44.76500360759563,4.45L45,4.45L45,4.55L44.80642496383294,4.55L44.16356782097579,5.192857142857142L43.949282106690085,5.192857142857142L43.30642496383294,5.835714285714285L42.87785353526151,5.835714285714285L42.66356782097579,6.05L41.37785353526151,6.05L41.16356782097579,6.264285714285714L40.73499639240437,6.264285714285714L40.520710678118654,6.478571428571428L34.050717893309915,6.478571428571428L33.80714285714286,6.234996392404369L33.80714285714286,6.020710678118655L33.59285714285714,5.80642496383294L33.59285714285714,5.163567820975797z" stroke="none"/><path d="M4.55,6L4.45,6L4.45,5.592139249547226L4.235714285714286,5.3778535352615116L4.235714285714286,5.163567820975797L4.021428571428571,4.949282106690084L4.021428571428571,4.050717893309916L4.265003607595631,3.8071428571428574L5.122146464738488,3.8071428571428574L5.550717893309916,3.3785714285714286L5.765003607595631,3.3785714285714286L5.979289321881345,3.1642857142857146L6.19357503616706,3.1642857142857146L6.407860750452773,2.95L6.622146464738488,2.95L7.265003607595631,2.3071428571428574L7.69357503616706,2.3071428571428574L8.122146464738488,1.8785714285714286L15.663567820975796,1.8785714285714286L15.877853535261512,2.092857142857143L16.520710678118654,2.092857142857143L16.73499639240437,2.3071428571428574L17.163567820975796,2.3071428571428574L17.592139249547227,2.7357142857142858L17.80642496383294,2.7357142857142858L18.03535533905933,2.9646446609406727L17.96464466094067,3.0353553390593273L17.76500360759563,2.8357142857142854L17.55071789330992,2.8357142857142854L17.12214646473849,2.407142857142857L16.69357503616706,2.407142857142857L16.479289321881346,2.1928571428571426L15.836432179024204,2.1928571428571426L15.622146464738488,1.9785714285714286L8.163567820975796,1.9785714285714286L7.734996392404369,2.407142857142857L7.30642496383294,2.407142857142857L6.663567820975797,3.05L6.449282106690083,3.05L6.234996392404369,3.2642857142857142L6.020710678118655,3.2642857142857142L5.80642496383294,3.478571428571428L5.592139249547226,3.478571428571428L5.163567820975797,3.907142857142857L4.30642496383294,3.907142857142857L4.121428571428571,4.092139249547226L4.121428571428571,4.907860750452774L4.335714285714285,5.122146464738488L4.335714285714285,5.336432179024202L4.55,5.550717893309916z" stroke="none"/><path d="M85.49999999999999,11.95L85.49999999999999,12.05L84.23499639240437,12.05L83.80642496383294,12.478571428571428L71.5507178933099,12.478571428571428L71.33643217902419,12.264285714285716L70.69357503616705,12.264285714285716L70.46464466094066,12.035355339059327L70.53535533905931,11.964644660940673L70.73499639240437,12.164285714285715L71.37785353526151,12.164285714285715L71.59213924954722,12.378571428571426L83.76500360759562,12.378571428571426L84.19357503616705,11.95z" stroke="none"/><path d="M83.96464466094066,4.464644660940673L84.03535533905931,4.535355339059327L83.80642496383294,4.764285714285714L81.87785353526151,4.764285714285714L81.6635678209758,4.978571428571429L80.5507178933099,4.978571428571429L80.30714285714285,4.734996392404369L80.30714285714285,4.265003607595631L80.5507178933099,4.021428571428571L82.47928932188132,4.021428571428571L82.69357503616705,3.8071428571428574L84.83643217902419,3.8071428571428574L85.0507178933099,3.592857142857143L101.37785353526151,3.592857142857143L101.62142857142855,3.8364321790242024L101.62142857142855,4.907860750452774L101.83571428571427,5.122146464738488L101.83571428571427,8.550717893309915L102.04999999999998,8.76500360759563L102.04999999999998,9L101.94999999999999,9L101.94999999999999,8.806424963832939L101.73571428571428,8.592139249547223L101.73571428571428,5.163567820975797L101.52142857142856,4.949282106690084L101.52142857142856,3.877853535261512L101.33643217902419,3.6928571428571426L85.09213924954722,3.6928571428571426L84.87785353526151,3.907142857142857L82.73499639240437,3.907142857142857L82.52071067811865,4.121428571428571L80.59213924954722,4.121428571428571L80.40714285714284,4.30642496383294L80.40714285714284,4.69357503616706L80.59213924954722,4.878571428571429L81.62214646473848,4.878571428571429L81.83643217902419,4.664285714285715L83.76500360759562,4.664285714285715z" stroke="none"/><path d="M68.99999999999999,7.45L68.99999999999999,7.55L68.80642496383294,7.55L68.59213924954722,7.764285714285714L68.37785353526151,7.764285714285714L67.94928210669008,8.192857142857143L67.09213924954722,8.192857142857143L64.94928210669008,10.335714285714285L64.73499639240437,10.335714285714285L64.09213924954723,10.978571428571428L58.73499639240437,10.978571428571428L58.12142857142857,11.592139249547223L58.12142857142857,12.407860750452773L58.30642496383294,12.592857142857142L97.47928932188132,12.592857142857142L98.33643217902419,11.735714285714284L99.40786075045276,11.735714285714284L100.69357503616705,10.45L100.90786075045276,10.45L101.33643217902419,10.021428571428569L101.5507178933099,10.021428571428569L101.76500360759562,9.807142857142857L101.97928932188132,9.807142857142857L102.37857142857142,9.407860750452773L102.37857142857142,5.163567820975797L101.94999999999999,4.734996392404369L101.94999999999999,4.092139249547226L101.73571428571428,3.877853535261512L101.73571428571428,3.6635678209757976L101.5507178933099,3.478571428571428L81.23499639240437,3.478571428571428L80.80642496383294,3.907142857142857L80.37785353526151,3.907142857142857L80.19285714285714,4.092139249547226L80.19285714285714,4.907860750452774L80.37785353526151,5.0928571428571425L86.97928932188132,5.0928571428571425L87.62214646473848,4.45L88.49999999999999,4.45L88.49999999999999,4.55L87.6635678209758,4.55L87.02071067811865,5.192857142857142L80.33643217902419,5.192857142857142L80.09285714285714,4.949282106690084L80.09285714285714,4.050717893309916L80.33643217902419,3.8071428571428574L80.76500360759562,3.8071428571428574L81.19357503616705,3.3785714285714286L101.59213924954722,3.3785714285714286L101.83571428571427,3.622146464738488L101.83571428571427,3.8364321790242024L102.04999999999998,4.050717893309916L102.04999999999998,4.69357503616706L102.47857142857141,5.122146464738488L102.47857142857141,9.449282106690081L102.02071067811865,9.907142857142858L101.80642496383294,9.907142857142858L101.59213924954722,10.12142857142857L101.37785353526151,10.12142857142857L100.94928210669008,10.55L100.73499639240437,10.55L99.44928210669008,11.835714285714285L98.37785353526151,11.835714285714285L97.52071067811865,12.692857142857143L58.26500360759563,12.692857142857143L58.02142857142857,12.449282106690081L58.02142857142857,11.550717893309915L58.69357503616706,10.878571428571426L64.05071789330991,10.878571428571426L64.69357503616705,10.235714285714284L64.90786075045276,10.235714285714284L67.0507178933099,8.092857142857142L67.90786075045276,8.092857142857142L68.33643217902419,7.664285714285715L68.5507178933099,7.664285714285715L68.76500360759562,7.45z" stroke="none"/><path d="M5.964644660940673,7.535355339059327L6.035355339059327,7.464644660940673L7.520710678118655,8.95L8.806424963832939,8.95L9.020710678118654,9.164285714285715L9.23499639240437,9.164285714285715L9.449282106690081,9.378571428571426L13.949282106690081,9.378571428571426L14.163567820975796,9.592857142857142L21.19357503616706,9.592857142857142L21.378571428571426,9.407860750452773L21.378571428571426,9.193575036167061L22.05071789330992,8.521428571428569L23.12214646473849,8.521428571428569L23.336432179024204,8.307142857142857L23.550717893309915,8.307142857142857L23.76500360759563,8.092857142857142L23.979289321881346,8.092857142857142L24.19357503616706,7.878571428571428L24.407860750452773,7.878571428571428L25.26500360759563,7.021428571428571L25.479289321881346,7.021428571428571L25.69357503616706,6.807142857142857L29.979289321881346,6.807142857142857L30.378571428571426,6.407860750452773L30.378571428571426,4.092139249547226L30.164285714285715,3.877853535261512L30.164285714285715,3.234996392404369L29.96464466094067,3.0353553390593273L30.03535533905933,2.9646446609406727L30.264285714285716,3.1935750361670596L30.264285714285716,3.8364321790242024L30.478571428571428,4.050717893309916L30.478571428571428,6.449282106690083L30.020710678118654,6.907142857142857L25.73499639240437,6.907142857142857L25.520710678118654,7.121428571428571L25.30642496383294,7.121428571428571L24.44928210669008,7.978571428571428L24.23499639240437,7.978571428571428L24.020710678118654,8.192857142857143L23.80642496383294,8.192857142857143L23.592139249547223,8.407142857142858L23.37785353526151,8.407142857142858L23.163567820975796,8.62142857142857L22.092139249547227,8.62142857142857L21.478571428571428,9.23499639240437L21.478571428571428,9.449282106690081L21.23499639240437,9.692857142857143L14.122146464738488,9.692857142857143L13.907860750452773,9.478571428571428L9.407860750452773,9.478571428571428L9.193575036167061,9.264285714285716L8.979289321881346,9.264285714285716L8.76500360759563,9.05L7.479289321881345,9.05z" stroke="none"/><path d="M98.99999999999999,8.95L98.99999999999999,9.05L98.80642496383294,9.05L98.16356782097579,9.692857142857143L97.52071067811865,9.692857142857143L97.30642496383294,9.907142857142858L97.09213924954722,9.907142857142858L96.87785353526151,10.12142857142857L96.66356782097579,10.12142857142857L96.44928210669008,10.335714285714285L95.59213924954722,10.335714285714285L94.94928210669008,10.978571428571428L93.19357503616705,10.978571428571428L92.5507178933099,10.335714285714285L92.12214646473846,10.335714285714285L91.90786075045276,10.12142857142857L83.33643217902419,10.12142857142857L83.12214646473848,9.907142857142858L74.5507178933099,9.907142857142858L73.90786075045276,9.264285714285716L73.69357503616705,9.264285714285716L73.46464466094066,9.035355339059327L73.53535533905931,8.964644660940673L73.73499639240437,9.164285714285715L73.94928210669008,9.164285714285715L74.59213924954722,9.807142857142857L83.1635678209758,9.807142857142857L83.37785353526151,10.021428571428569L91.94928210669008,10.021428571428569L92.16356782097579,10.235714285714284L92.59213924954722,10.235714285714284L93.23499639240437,10.878571428571426L94.90786075045276,10.878571428571426L95.5507178933099,10.235714285714284L96.40786075045276,10.235714285714284L96.62214646473846,10.021428571428569L96.83643217902419,10.021428571428569L97.0507178933099,9.807142857142857L97.26500360759562,9.807142857142857L97.47928932188132,9.592857142857142L98.12214646473846,9.592857142857142L98.76500360759562,8.95z" stroke="none"/><path d="M66.03535533905931,2.9646446609406727L65.96464466094066,3.0353553390593273L65.33643217902419,2.407142857142857L64.90786075045276,2.407142857142857L64.69357503616705,2.1928571428571426L64.26500360759562,2.1928571428571426L64.05071789330991,1.9785714285714286L48.020710678118654,1.9785714285714286L47.16356782097579,2.8357142857142854L46.94928210669008,2.8357142857142854L46.520710678118654,3.2642857142857142L46.30642496383294,3.2642857142857142L46.09213924954722,3.478571428571428L44.80642496383294,3.478571428571428L43.949282106690085,4.335714285714285L43.520710678118654,4.335714285714285L43.30642496383294,4.55L43.09213924954722,4.55L42.87785353526151,4.764285714285714L42.66356782097579,4.764285714285714L42.23499639240437,5.192857142857142L41.80642496383294,5.192857142857142L40.949282106690085,6.05L39,6.05L39,5.95L40.90786075045278,5.95L41.76500360759563,5.0928571428571425L42.19357503616706,5.0928571428571425L42.622146464738485,4.664285714285715L42.8364321790242,4.664285714285715L43.050717893309915,4.45L43.26500360759563,4.45L43.479289321881346,4.235714285714286L43.90786075045278,4.235714285714286L44.76500360759563,3.3785714285714286L46.050717893309915,3.3785714285714286L46.26500360759563,3.1642857142857146L46.479289321881346,3.1642857142857146L46.90786075045277,2.7357142857142858L47.122146464738485,2.7357142857142858L47.979289321881346,1.8785714285714286L64.09213924954723,1.8785714285714286L64.30642496383294,2.092857142857143L64.73499639240437,2.092857142857143L64.94928210669008,2.3071428571428574L65.37785353526151,2.3071428571428574z" stroke="none"/><path d="M39,3.05L39,2.95L44.122146464738485,2.95L44.550717893309915,2.521428571428572L45.8364321790242,2.521428571428572L46.050717893309915,2.3071428571428574L47.122146464738485,2.3071428571428574L47.76500360759563,1.6642857142857144L64.52071067811865,1.6642857142857144L64.73499639240437,1.8785714285714286L64.94928210669008,1.8785714285714286L65.1635678209758,2.092857142857143L65.80642496383294,2.092857142857143L66.02071067811865,2.3071428571428574L66.23499639240437,2.3071428571428574L66.6635678209758,2.7357142857142858L67.09213924954722,2.7357142857142858L67.30642496383294,2.95L67.49999999999999,2.95L67.49999999999999,3.05L67.26500360759562,3.05L67.0507178933099,2.8357142857142854L66.62214646473848,2.8357142857142854L66.19357503616705,2.407142857142857L65.97928932188132,2.407142857142857L65.76500360759562,2.1928571428571426L65.12214646473848,2.1928571428571426L64.90786075045276,1.9785714285714286L64.69357503616705,1.9785714285714286L64.47928932188132,1.7642857142857145L47.80642496383294,1.7642857142857145L47.16356782097579,2.407142857142857L46.09213924954722,2.407142857142857L45.87785353526151,2.6214285714285714L44.59213924954722,2.6214285714285714L44.16356782097579,3.05z" stroke="none"/><path d="M47.96464466094067,10.464644660940673L48.03535533905933,10.535355339059327L46.30642496383294,12.264285714285716L46.09213924954722,12.264285714285716L45.449282106690085,12.907142857142858L16.479289321881346,12.907142857142858L16.02142857142857,12.449282106690081L16.02142857142857,12.23499639240437L15.807142857142857,12.020710678118654L15.807142857142857,11.76500360759563L16.050717893309915,11.521428571428569L18.87785353526151,11.521428571428569L19.30642496383294,11.95L19.5,11.95L19.5,12.05L19.26500360759563,12.05L18.836432179024204,11.62142857142857L16.092139249547223,11.62142857142857L15.907142857142858,11.806424963832939L15.907142857142858,11.979289321881346L16.12142857142857,12.193575036167061L16.12142857142857,12.407860750452773L16.520710678118654,12.807142857142857L45.40786075045278,12.807142857142857L46.050717893309915,12.164285714285715L46.26500360759563,12.164285714285715z" stroke="none"/><path d="M69.03535533905931,2.9646446609406727L68.96464466094066,3.0353553390593273L68.76500360759562,2.8357142857142854L68.12214646473848,2.8357142857142854L67.69357503616705,2.407142857142857L67.26500360759562,2.407142857142857L67.0507178933099,2.1928571428571426L66.19357503616705,2.1928571428571426L65.97928932188132,1.9785714285714286L65.33643217902419,1.9785714285714286L64.90786075045276,1.55L43.949282106690085,1.55L43.73499639240437,1.7642857142857145L43.520710678118654,1.7642857142857145L42.66356782097579,2.6214285714285714L36.66356782097579,2.6214285714285714L36.23499639240437,3.05L36,3.05L36,2.95L36.19357503616706,2.95L36.622146464738485,2.521428571428572L42.622146464738485,2.521428571428572L43.479289321881346,1.6642857142857144L43.69357503616706,1.6642857142857144L43.90786075045278,1.45L64.94928210669008,1.45L65.37785353526151,1.8785714285714286L66.02071067811865,1.8785714285714286L66.23499639240437,2.092857142857143L67.09213924954722,2.092857142857143L67.30642496383294,2.3071428571428574L67.73499639240437,2.3071428571428574L68.1635678209758,2.7357142857142858L68.80642496383294,2.7357142857142858z" stroke="none"/><path d="M10.5,7.45L10.5,7.55L10.26500360759563,7.55L10.050717893309915,7.335714285714285L9.836432179024204,7.335714285714285L9.622146464738488,7.121428571428571L5.592139249547226,7.121428571428571L3.234996392404369,9.478571428571428L2.8064249638329404,9.478571428571428L2.407142857142857,9.877853535261512L2.407142857142857,11.122146464738488L2.5921392495472264,11.307142857142857L2.8064249638329404,11.307142857142857L3.020710678118655,11.521428571428569L3.449282106690083,11.521428571428569L3.877853535261512,11.95L4.092139249547226,11.95L4.520710678118655,12.378571428571426L4.734996392404369,12.378571428571426L5.163567820975797,12.807142857142857L16.092139249547223,12.807142857142857L16.30642496383294,13.021428571428569L49.479289321881346,13.021428571428569L49.69357503616706,12.807142857142857L50.122146464738485,12.807142857142857L50.96464466094067,11.964644660940673L51.03535533905933,12.035355339059327L50.16356782097579,12.907142857142858L49.73499639240437,12.907142857142858L49.520710678118654,13.12142857142857L16.26500360759563,13.12142857142857L16.050717893309915,12.907142857142858L5.122146464738488,12.907142857142858L4.69357503616706,12.478571428571428L4.479289321881345,12.478571428571428L4.050717893309916,12.05L3.8364321790242024,12.05L3.4078607504527736,11.62142857142857L2.979289321881345,11.62142857142857L2.765003607595631,11.407142857142858L2.550717893309917,11.407142857142858L2.3071428571428574,11.163567820975796L2.3071428571428574,9.836432179024204L2.765003607595631,9.378571428571426L3.1935750361670596,9.378571428571426L5.550717893309916,7.021428571428571L9.663567820975796,7.021428571428571L9.877853535261512,7.235714285714286L10.092139249547223,7.235714285714286L10.306424963832939,7.45z" stroke="none"/><path d="M7.5,5.95L7.5,6.05L6.8778535352615116,6.05L6.663567820975797,6.264285714285714L6.449282106690083,6.264285714285714L6.234996392404369,6.478571428571428L6.020710678118655,6.478571428571428L5.80642496383294,6.692857142857142L5.592139249547226,6.692857142857142L3.234996392404369,9.05L2.8064249638329404,9.05L2.1928571428571426,9.663567820975796L2.1928571428571426,11.336432179024204L2.377853535261512,11.521428571428569L2.5921392495472264,11.521428571428569L2.8064249638329404,11.735714285714284L3.234996392404369,11.735714285714284L3.6635678209757976,12.164285714285715L3.877853535261512,12.164285714285715L4.734996392404369,13.021428571428569L15.877853535261512,13.021428571428569L16.092139249547223,13.235714285714284L50.3364321790242,13.235714285714284L50.979289321881346,12.592857142857142L51.19357503616706,12.592857142857142L52.050717893309915,11.735714285714284L52.479289321881346,11.735714285714284L53.3364321790242,10.878571428571426L53.979289321881346,10.878571428571426L54.19357503616706,10.664285714285715L55.26500360759563,10.664285714285715L55.46464466094067,10.464644660940673L55.53535533905933,10.535355339059327L55.30642496383294,10.764285714285716L54.23499639240437,10.764285714285716L54.020710678118654,10.978571428571428L53.37785353526151,10.978571428571428L52.520710678118654,11.835714285714285L52.09213924954722,11.835714285714285L51.23499639240437,12.692857142857143L51.020710678118654,12.692857142857143L50.37785353526151,13.335714285714285L16.050717893309915,13.335714285714285L15.836432179024204,13.12142857142857L4.69357503616706,13.12142857142857L3.8364321790242024,12.264285714285716L3.622146464738488,12.264285714285716L3.1935750361670596,11.835714285714285L2.765003607595631,11.835714285714285L2.550717893309917,11.62142857142857L2.3364321790242024,11.62142857142857L2.092857142857143,11.377853535261512L2.092857142857143,9.622146464738488L2.765003607595631,8.95L3.1935750361670596,8.95L5.550717893309916,6.5928571428571425L5.765003607595631,6.5928571428571425L5.979289321881345,6.378571428571428L6.19357503616706,6.378571428571428L6.407860750452773,6.164285714285715L6.622146464738488,6.164285714285715L6.836432179024202,5.95z" stroke="none"/></svg>