<svg version="1.1" width="30" height="15" xmlns="http://www.w3.org/2000/svg"><path d="M20.8,4.3L20.8,2.8L25.5,2.8L25.5,3.2L21.2,3.2L21.2,4.3L25.5,4.3L25.5,4.7L15.2,4.7L15.2,6.2L13.5,6.2L13.5,5.8L14.8,5.8L14.8,4.3z" stroke="none"/><path d="M10.3,11.8L10.3,9L10.7,9L10.7,11.8L11.8,11.8L11.8,9L12.2,9L12.2,12.2L10.7,12.2L10.7,13.7L5.8,13.7L5.8,12.2L4.3,12.2L4.3,8.8L5.8,8.8L5.8,7.5L6.2,7.5L6.2,9.2L4.7,9.2L4.7,11.8L6.2,11.8L6.2,13.3L10.3,13.3L10.3,12.2L7.5,12.2L7.5,11.8z" stroke="none"/><path d="M24,9.2L24,8.8L25.5,8.8L25.5,9.2z" stroke="none"/><path d="M2.8,6L3.2,6L3.2,7.5L2.8,7.5z" stroke="none"/><path d="M6,10.7L6,10.3L7.3,10.3L7.3,9L7.7,9L7.7,10.7z" stroke="none"/><path d="M5.8,3L6.2,3L6.2,6L5.8,6z" stroke="none"/><path d="M13.7,9L13.3,9L13.3,7.7L11.8,7.7L11.8,4.3L13.5,4.3L13.5,4.7L12.2,4.7L12.2,7.3L13.7,7.3z" stroke="none"/><path d="M9.2,6L8.8,6L8.8,1.7L4.7,1.7L4.7,6L4.3,6L4.3,1.3L9.2,1.3z" stroke="none"/><path d="M27,11.8L27,12.2L17.8,12.2L17.8,7.7L16.5,7.7L16.5,7.3L18.2,7.3L18.2,11.8z" stroke="none"/><path d="M26.8,6L27.2,6L27.2,10.3L28.7,10.3L28.7,13.7L16.3,13.7L16.3,9.2L14.8,9.2L14.8,7.5L15.2,7.5L15.2,8.8L16.7,8.8L16.7,13.3L28.3,13.3L28.3,10.7L26.8,10.7z" stroke="none"/></svg>