<svg version="1.1" width="30" height="15" xmlns="http://www.w3.org/2000/svg"><path d="M25.5,2.8L25.5,3.2L22.7,3.2L22.7,4.3L26.8,4.3L26.8,3L27.2,3L27.2,4.7L22.3,4.7L22.3,3.2L16.7,3.2L16.7,4.5L16.3,4.5L16.3,2.8z" stroke="none"/><path d="M17.8,7.3L17.8,6.2L13.7,6.2L13.7,8.8L16.7,8.8L16.7,11.8L23.8,11.8L23.8,10.5L24.2,10.5L24.2,12.2L16.3,12.2L16.3,9.2L13.3,9.2L13.3,5.8L18.2,5.8L18.2,7.3L19.7,7.3L19.7,8.8L22.3,8.8L22.3,7.3L23.8,7.3L23.8,6L24.2,6L24.2,7.7L22.7,7.7L22.7,9.2L19.3,9.2L19.3,7.7L18.2,7.7L18.2,10.3L19.5,10.3L19.5,10.7L17.8,10.7L17.8,7.7L15,7.7L15,7.3z" stroke="none"/><path d="M20.8,6L21.2,6L21.2,7.5L20.8,7.5z" stroke="none"/><path d="M25.3,6L25.7,6L25.7,7.5L25.3,7.5z" stroke="none"/><path d="M6,10.7L6,10.3L7.5,10.3L7.5,10.7z" stroke="none"/><path d="M4.5,2.8L4.5,3.2L3.2,3.2L3.2,5.8L4.5,5.8L4.5,6.2L2.8,6.2L2.8,2.8z" stroke="none"/><path d="M4.5,4.7L4.5,4.3L6.2,4.3L6.2,7.7L3,7.7L3,7.3L5.8,7.3L5.8,4.7z" stroke="none"/><path d="M11.8,7.5L12.2,7.5L12.2,10.3L15,10.3L15,10.7L11.8,10.7z" stroke="none"/><path d="M13.5,4.3L13.5,4.7L10.3,4.7L10.3,3.2L9,3.2L9,2.8L10.7,2.8L10.7,4.3z" stroke="none"/><path d="M9,7.7L9,7.3L10.7,7.3L10.7,11.8L15,11.8L15,12.2L10.3,12.2L10.3,7.7z" stroke="none"/></svg>