<svg version="1.1" width="30" height="15" xmlns="http://www.w3.org/2000/svg"><path d="M8.8,2.8L8.8,1.7L6.2,1.7L6.2,3.2L4.7,3.2L4.7,4.7L3,4.7L3,4.3L4.3,4.3L4.3,2.8L5.8,2.8L5.8,1.3L9.2,1.3L9.2,2.8L12.2,2.8L12.2,4.5L11.8,4.5L11.8,3.2L7.7,3.2L7.7,4.7L6,4.7L6,4.3L7.3,4.3L7.3,2.8z" stroke="none"/><path d="M13.3,7.3L13.3,2.8L15,2.8L15,3.2L13.7,3.2L13.7,7.3L18,7.3L18,7.7L13.7,7.7L13.7,8.8L19.3,8.8L19.3,6.2L17.8,6.2L17.8,3L18.2,3L18.2,5.8L19.7,5.8L19.7,9.2L13.3,9.2L13.3,7.7L10.3,7.7L10.3,6.2L9,6.2L9,5.8L10.7,5.8L10.7,7.3z" stroke="none"/><path d="M16.7,6L16.3,6L16.3,4.7L15,4.7L15,4.3L16.7,4.3z" stroke="none"/><path d="M9.2,10.5L8.8,10.5L8.8,7.5L9.2,7.5z" stroke="none"/><path d="M21.2,10.5L20.8,10.5L20.8,7.5L21.2,7.5z" stroke="none"/><path d="M2.8,9L3.2,9L3.2,10.3L4.7,10.3L4.7,12L4.3,12L4.3,10.7L2.8,10.7z" stroke="none"/><path d="M27,10.3L27,10.7L25.7,10.7L25.7,12.2L24,12.2L24,11.8L25.3,11.8L25.3,10.3z" stroke="none"/><path d="M20.8,4.5L21.2,4.5L21.2,5.8L22.7,5.8L22.7,7.3L25.7,7.3L25.7,9L25.3,9L25.3,7.7L22.3,7.7L22.3,6.2L20.8,6.2z" stroke="none"/><path d="M27,9.2L27,8.8L28.7,8.8L28.7,13.7L22.3,13.7L22.3,12.2L19.5,12.2L19.5,11.8L22.7,11.8L22.7,13.3L28.3,13.3L28.3,9.2z" stroke="none"/><path d="M16.5,10.3L16.5,10.7L13.7,10.7L13.7,12.2L7.3,12.2L7.3,6.2L6,6.2L6,5.8L7.7,5.8L7.7,11.8L13.3,11.8L13.3,10.3z" stroke="none"/></svg>