<svg version="1.1" width="30" height="15" xmlns="http://www.w3.org/2000/svg"><path d="M21,7.3L21,7.7L18.2,7.7L18.2,8.8L25.3,8.8L25.3,7.5L25.7,7.5L25.7,9.2L17.8,9.2L17.8,7.7L16.7,7.7L16.7,9.2L15,9.2L15,8.8L16.3,8.8L16.3,7.3z" stroke="none"/><path d="M10.3,10.3L10.3,7.7L9,7.7L9,7.3L10.7,7.3L10.7,10.3L12.2,10.3L12.2,11.8L14.8,11.8L14.8,10.5L15.2,10.5L15.2,12.2L11.8,12.2L11.8,10.7L10.7,10.7L10.7,12.2L5.8,12.2L5.8,8.8L7.5,8.8L7.5,9.2L6.2,9.2L6.2,11.8L10.3,11.8L10.3,10.7L7.5,10.7L7.5,10.3z" stroke="none"/><path d="M22.5,2.8L22.5,3.2L21,3.2L21,2.8z" stroke="none"/><path d="M4.5,2.8L4.5,3.2L3,3.2L3,2.8z" stroke="none"/><path d="M24.2,7.5L23.8,7.5L23.8,5.8L25.3,5.8L25.3,4.3L27,4.3L27,4.7L25.7,4.7L25.7,6.2L24.2,6.2z" stroke="none"/><path d="M13.5,5.8L13.5,6.2L9,6.2L9,5.8z" stroke="none"/><path d="M21,12.2L21,11.8L27,11.8L27,12.2z" stroke="none"/><path d="M9,3.2L9,2.8L16.7,2.8L16.7,4.5L16.3,4.5L16.3,3.2z" stroke="none"/><path d="M6.2,6L5.8,6L5.8,4.3L15.2,4.3L15.2,7.7L13.7,7.7L13.7,10.5L13.3,10.5L13.3,7.3L14.8,7.3L14.8,4.7L6.2,4.7z" stroke="none"/><path d="M19.5,10.7L19.5,10.3L26.8,10.3L26.8,6L27.2,6L27.2,10.7z" stroke="none"/></svg>