<svg version="1.1" width="30" height="15" xmlns="http://www.w3.org/2000/svg"><path d="M13.5,4.3L13.5,4.7L10.7,4.7L10.7,5.8L13.7,5.8L13.7,7.5L13.3,7.5L13.3,6.2L10.3,6.2L10.3,4.7L4.3,4.7L4.3,3.2L3,3.2L3,2.8L4.7,2.8L4.7,4.3z" stroke="none"/><path d="M17.8,5.8L17.8,3L18.2,3L18.2,5.8L21,5.8L21,6.2L18.2,6.2L18.2,7.7L15,7.7L15,7.3L17.8,7.3L17.8,6.2L16.3,6.2L16.3,3L16.7,3L16.7,5.8z" stroke="none"/><path d="M6,3.2L6,2.8L7.5,2.8L7.5,3.2z" stroke="none"/><path d="M6,5.8L6,6.2L4.5,6.2L4.5,5.8z" stroke="none"/><path d="M10.7,12L10.3,12L10.3,8.8L13.5,8.8L13.5,9.2L10.7,9.2z" stroke="none"/><path d="M7.3,6L7.7,6L7.7,8.8L9.2,8.8L9.2,10.5L8.8,10.5L8.8,9.2L7.3,9.2z" stroke="none"/><path d="M20.8,10.5L21.2,10.5L21.2,13.3L25.3,13.3L25.3,11.8L27,11.8L27,12.2L25.7,12.2L25.7,13.7L20.8,13.7z" stroke="none"/><path d="M11.8,10.5L12.2,10.5L12.2,13.7L8.8,13.7L8.8,12.2L5.8,12.2L5.8,10.7L4.3,10.7L4.3,9.2L2.8,9.2L2.8,7.5L3.2,7.5L3.2,8.8L4.7,8.8L4.7,10.3L6.2,10.3L6.2,11.8L9.2,11.8L9.2,13.3L11.8,13.3z" stroke="none"/><path d="M24,11.8L24,12.2L22.3,12.2L22.3,9.2L15.2,9.2L15.2,10.7L13.7,10.7L13.7,12L13.3,12L13.3,10.3L14.8,10.3L14.8,8.8L22.7,8.8L22.7,11.8z" stroke="none"/><path d="M25.7,10.5L25.3,10.5L25.3,4.7L20.8,4.7L20.8,1.7L15.2,1.7L15.2,6L14.8,6L14.8,1.3L21.2,1.3L21.2,4.3L25.7,4.3z" stroke="none"/></svg>