<svg version="1.1" width="30" height="15" xmlns="http://www.w3.org/2000/svg"><path d="M22.3,5.8L22.3,3L22.7,3L22.7,5.8L25.5,5.8L25.5,6.2L17.8,6.2L17.8,4.7L16.5,4.7L16.5,4.3L18.2,4.3L18.2,5.8z" stroke="none"/><path d="M11.8,4.3L11.8,2.8L16.5,2.8L16.5,3.2L12.2,3.2L12.2,4.3L15.2,4.3L15.2,6L14.8,6L14.8,4.7L12.2,4.7L12.2,5.8L13.7,5.8L13.7,7.3L15,7.3L15,7.7L13.3,7.7L13.3,6.2L11.8,6.2L11.8,4.7L10.7,4.7L10.7,6.2L5.8,6.2L5.8,4.7L4.5,4.7L4.5,4.3L6.2,4.3L6.2,5.8L10.3,5.8L10.3,4.3z" stroke="none"/><path d="M2.8,7.5L3.2,7.5L3.2,10.5L2.8,10.5z" stroke="none"/><path d="M23.8,9L24.2,9L24.2,12L23.8,12z" stroke="none"/><path d="M19.5,4.7L19.5,4.3L20.8,4.3L20.8,1.3L24.2,1.3L24.2,2.8L25.7,2.8L25.7,4.3L27.2,4.3L27.2,7.7L16.3,7.7L16.3,6L16.7,6L16.7,7.3L26.8,7.3L26.8,4.7L25.3,4.7L25.3,3.2L23.8,3.2L23.8,1.7L21.2,1.7L21.2,4.7z" stroke="none"/><path d="M7.5,2.8L7.5,3.2L3.2,3.2L3.2,4.5L2.8,4.5L2.8,2.8z" stroke="none"/><path d="M12,7.3L12,7.7L4.3,7.7L4.3,6.2L1.3,6.2L1.3,1.3L9.2,1.3L9.2,4.7L7.5,4.7L7.5,4.3L8.8,4.3L8.8,1.7L1.7,1.7L1.7,5.8L4.7,5.8L4.7,7.3z" stroke="none"/><path d="M26.8,9L27.2,9L27.2,13.7L22.3,13.7L22.3,12L22.7,12L22.7,13.3L26.8,13.3z" stroke="none"/><path d="M18,11.8L18,12.2L12,12.2L12,11.8z" stroke="none"/><path d="M16.5,10.3L16.5,10.7L10.7,10.7L10.7,12.2L9,12.2L9,11.8L10.3,11.8L10.3,10.3z" stroke="none"/></svg>