<svg version="1.1" width="30" height="15" xmlns="http://www.w3.org/2000/svg"><path d="M1.3,1.3L6.2,1.3L6.2,3L5.8,3L5.8,1.7L1.7,1.7L1.7,2.8L4.5,2.8L4.5,3.2L1.7,3.2L1.7,5.8L3,5.8L3,6.2L1.3,6.2z" stroke="none"/><path d="M14.8,7.3L14.8,5.8L22.5,5.8L22.5,6.2L15.2,6.2L15.2,7.3L18.2,7.3L18.2,8.8L19.7,8.8L19.7,12.2L14.8,12.2L14.8,10.7L10.3,10.7L10.3,9L10.7,9L10.7,10.3L15.2,10.3L15.2,11.8L19.3,11.8L19.3,9.2L17.8,9.2L17.8,7.7L15.2,7.7L15.2,8.8L16.7,8.8L16.7,10.3L18,10.3L18,10.7L16.3,10.7L16.3,9.2L14.8,9.2L14.8,7.7L12.2,7.7L12.2,9L11.8,9L11.8,7.3z" stroke="none"/><path d="M3.2,9L2.8,9L2.8,7.5L3.2,7.5z" stroke="none"/><path d="M4.5,10.7L4.5,10.3L9,10.3L9,10.7z" stroke="none"/><path d="M25.7,9L25.3,9L25.3,4.5L25.7,4.5z" stroke="none"/><path d="M15,3.2L15,2.8L16.7,2.8L16.7,4.3L19.5,4.3L19.5,4.7L16.3,4.7L16.3,3.2z" stroke="none"/><path d="M8.8,3L9.2,3L9.2,5.8L10.7,5.8L10.7,7.5L10.3,7.5L10.3,6.2L8.8,6.2z" stroke="none"/><path d="M9,8.8L9,9.2L5.8,9.2L5.8,7.7L4.3,7.7L4.3,6L4.7,6L4.7,7.3L6.2,7.3L6.2,8.8z" stroke="none"/><path d="M10.5,12.2L10.5,11.8L13.7,11.8L13.7,13.3L20.8,13.3L20.8,7.7L19.5,7.7L19.5,7.3L21.2,7.3L21.2,13.7L13.3,13.7L13.3,12.2z" stroke="none"/><path d="M18.2,3L17.8,3L17.8,1.7L7.7,1.7L7.7,6.2L6,6.2L6,5.8L7.3,5.8L7.3,1.3L18.2,1.3z" stroke="none"/></svg>