<svg version="1.1" width="30" height="15" xmlns="http://www.w3.org/2000/svg"><path d="M10.3,11.8L10.3,10.3L12,10.3L12,10.7L10.7,10.7L10.7,12.2L9.2,12.2L9.2,13.7L4.3,13.7L4.3,10.5L4.7,10.5L4.7,13.3L8.8,13.3L8.8,12.2L5.8,12.2L5.8,10.5L6.2,10.5L6.2,11.8z" stroke="none"/><path d="M22.3,2.8L22.3,1.7L16.7,1.7L16.7,3L16.3,3L16.3,1.3L22.7,1.3L22.7,2.8L25.5,2.8L25.5,3.2L22.7,3.2L22.7,4.3L25.7,4.3L25.7,5.8L27,5.8L27,6.2L25.3,6.2L25.3,4.7L22.3,4.7L22.3,3.2L21.2,3.2L21.2,4.7L19.5,4.7L19.5,4.3L20.8,4.3L20.8,2.8z" stroke="none"/><path d="M13.5,9.2L13.5,8.8L16.7,8.8L16.7,10.5L16.3,10.5L16.3,9.2z" stroke="none"/><path d="M22.3,9L22.7,9L22.7,12.2L19.5,12.2L19.5,11.8L22.3,11.8z" stroke="none"/><path d="M23.8,9L24.2,9L24.2,10.3L25.7,10.3L25.7,11.8L27,11.8L27,12.2L25.3,12.2L25.3,10.7L23.8,10.7z" stroke="none"/><path d="M6,6.2L6,5.8L10.7,5.8L10.7,7.5L10.3,7.5L10.3,6.2z" stroke="none"/><path d="M3,3.2L3,2.8L6.2,2.8L6.2,4.3L7.5,4.3L7.5,4.7L5.8,4.7L5.8,3.2z" stroke="none"/><path d="M21.2,10.5L20.8,10.5L20.8,7.3L23.8,7.3L23.8,6L24.2,6L24.2,7.7L21.2,7.7z" stroke="none"/><path d="M7.5,9.2L7.5,8.8L11.8,8.8L11.8,7.3L18.2,7.3L18.2,12.2L13.5,12.2L13.5,11.8L17.8,11.8L17.8,7.7L12.2,7.7L12.2,9.2z" stroke="none"/><path d="M15,4.3L15,4.7L13.3,4.7L13.3,1.7L1.7,1.7L1.7,8.8L3,8.8L3,9.2L1.3,9.2L1.3,1.3L13.7,1.3L13.7,4.3z" stroke="none"/></svg>