<svg version="1.1" width="30" height="15" xmlns="http://www.w3.org/2000/svg"><path d="M7.7,1.3L7.7,2.8L9.2,2.8L9.2,6.2L6,6.2L6,5.8L8.8,5.8L8.8,3.2L7.3,3.2L7.3,1.7L6.2,1.7L6.2,4.3L7.5,4.3L7.5,4.7L5.8,4.7L5.8,1.7L4.7,1.7L4.7,3.2L3,3.2L3,2.8L4.3,2.8L4.3,1.3z" stroke="none"/><path d="M14.8,8.8L14.8,5.8L19.7,5.8L19.7,7.5L19.3,7.5L19.3,6.2L15.2,6.2L15.2,8.8L16.3,8.8L16.3,7.3L18,7.3L18,7.7L16.7,7.7L16.7,9.2L15.2,9.2L15.2,10.3L16.7,10.3L16.7,11.8L18,11.8L18,12.2L16.3,12.2L16.3,10.7L14.8,10.7L14.8,9.2L13.7,9.2L13.7,12.2L12,12.2L12,11.8L13.3,11.8L13.3,8.8z" stroke="none"/><path d="M9.2,10.5L8.8,10.5L8.8,9.2L7.5,9.2L7.5,8.8L9.2,8.8z" stroke="none"/><path d="M26.8,4.5L27.2,4.5L27.2,7.5L26.8,7.5z" stroke="none"/><path d="M22.5,3.2L22.5,2.8L24.2,2.8L24.2,6L23.8,6L23.8,3.2z" stroke="none"/><path d="M25.7,9L25.3,9L25.3,4.5L25.7,4.5z" stroke="none"/><path d="M3,4.7L3,4.3L4.7,4.3L4.7,7.3L10.5,7.3L10.5,7.7L4.3,7.7L4.3,4.7z" stroke="none"/><path d="M4.3,9L4.7,9L4.7,11.8L10.3,11.8L10.3,8.8L11.8,8.8L11.8,4.5L12.2,4.5L12.2,9.2L10.7,9.2L10.7,12.2L4.3,12.2z" stroke="none"/><path d="M2.8,7.5L3.2,7.5L3.2,13.3L19.3,13.3L19.3,8.8L20.8,8.8L20.8,4.7L14.8,4.7L14.8,3.2L12,3.2L12,2.8L15.2,2.8L15.2,4.3L21.2,4.3L21.2,9.2L19.7,9.2L19.7,13.7L2.8,13.7z" stroke="none"/><path d="M10.7,3L10.3,3L10.3,1.3L27.2,1.3L27.2,2.8L28.7,2.8L28.7,10.7L23.8,10.7L23.8,7.7L22.3,7.7L22.3,4.5L22.7,4.5L22.7,7.3L24.2,7.3L24.2,10.3L28.3,10.3L28.3,3.2L26.8,3.2L26.8,1.7L10.7,1.7z" stroke="none"/></svg>