<svg version="1.1" width="30" height="15" xmlns="http://www.w3.org/2000/svg"><path d="M10.7,7.3L10.7,13.7L5.8,13.7L5.8,12L6.2,12L6.2,13.3L10.3,13.3L10.3,7.7L9.2,7.7L9.2,10.5L8.8,10.5L8.8,7.7L7.7,7.7L7.7,11.8L9,11.8L9,12.2L7.3,12.2L7.3,7.3z" stroke="none"/><path d="M17.8,5.8L17.8,3L18.2,3L18.2,5.8L21,5.8L21,6.2L18.2,6.2L18.2,7.3L22.3,7.3L22.3,2.8L24,2.8L24,3.2L22.7,3.2L22.7,7.7L17.8,7.7L17.8,6.2L13.5,6.2L13.5,5.8z" stroke="none"/><path d="M21,2.8L21,3.2L19.5,3.2L19.5,2.8z" stroke="none"/><path d="M6.2,6L5.8,6L5.8,3L6.2,3z" stroke="none"/><path d="M27,7.3L27,7.7L23.8,7.7L23.8,6L24.2,6L24.2,7.3z" stroke="none"/><path d="M19.5,10.7L19.5,10.3L24,10.3L24,10.7z" stroke="none"/><path d="M17.8,10.5L18.2,10.5L18.2,11.8L22.5,11.8L22.5,12.2L17.8,12.2z" stroke="none"/><path d="M15,2.8L15,3.2L12.2,3.2L12.2,4.7L10.5,4.7L10.5,4.3L11.8,4.3L11.8,2.8z" stroke="none"/><path d="M6.2,10.5L5.8,10.5L5.8,9.2L4.3,9.2L4.3,1.3L7.7,1.3L7.7,5.8L12.2,5.8L12.2,10.5L11.8,10.5L11.8,6.2L7.3,6.2L7.3,1.7L4.7,1.7L4.7,8.8L6.2,8.8z" stroke="none"/><path d="M15,9.2L15,8.8L25.7,8.8L25.7,11.8L27,11.8L27,12.2L25.3,12.2L25.3,9.2z" stroke="none"/></svg>