<svg version="1.1" width="30" height="15" xmlns="http://www.w3.org/2000/svg"><path d="M26.8,8.8L26.8,6.2L25.5,6.2L25.5,5.8L27.2,5.8L27.2,10.7L22.3,10.7L22.3,7.7L21,7.7L21,7.3L22.7,7.3L22.7,10.3L26.8,10.3L26.8,9.2L24,9.2L24,8.8z" stroke="none"/><path d="M22.3,2.8L22.3,1.7L19.7,1.7L19.7,3.2L18.2,3.2L18.2,7.3L19.5,7.3L19.5,7.7L17.8,7.7L17.8,2.8L19.3,2.8L19.3,1.3L22.7,1.3L22.7,2.8L25.7,2.8L25.7,4.3L27,4.3L27,4.7L25.3,4.7L25.3,3.2L22.7,3.2L22.7,4.3L24.2,4.3L24.2,6L23.8,6L23.8,4.7L22.3,4.7L22.3,3.2L21.2,3.2L21.2,4.7L19.7,4.7L19.7,6L19.3,6L19.3,4.3L20.8,4.3L20.8,2.8z" stroke="none"/><path d="M4.3,3L4.7,3L4.7,4.5L4.3,4.5z" stroke="none"/><path d="M2.8,9L3.2,9L3.2,10.3L4.5,10.3L4.5,10.7L2.8,10.7z" stroke="none"/><path d="M8.8,7.5L9.2,7.5L9.2,9.2L7.5,9.2L7.5,8.8L8.8,8.8z" stroke="none"/><path d="M13.3,3L13.7,3L13.7,4.3L15,4.3L15,4.7L13.3,4.7z" stroke="none"/><path d="M24,11.8L24,12.2L20.8,12.2L20.8,10.5L21.2,10.5L21.2,11.8z" stroke="none"/><path d="M3,12.2L3,11.8L5.8,11.8L5.8,9L6.2,9L6.2,12.2z" stroke="none"/><path d="M19.7,10.5L19.3,10.5L19.3,9.2L16.3,9.2L16.3,7.7L14.8,7.7L14.8,6L15.2,6L15.2,7.3L16.7,7.3L16.7,8.8L19.7,8.8z" stroke="none"/><path d="M15,8.8L15,9.2L13.3,9.2L13.3,6.2L4.5,6.2L4.5,5.8L13.7,5.8L13.7,8.8z" stroke="none"/></svg>