<svg version="1.1" width="30" height="15" xmlns="http://www.w3.org/2000/svg"><path d="M12.2,2.8L12.2,4.3L15.2,4.3L15.2,6L14.8,6L14.8,4.7L11.8,4.7L11.8,3.2L7.7,3.2L7.7,7.7L4.5,7.7L4.5,7.3L7.3,7.3L7.3,3.2L3.2,3.2L3.2,4.5L2.8,4.5L2.8,2.8z" stroke="none"/><path d="M17.8,7.3L17.8,5.8L22.7,5.8L22.7,7.3L24.2,7.3L24.2,8.8L25.5,8.8L25.5,9.2L23.8,9.2L23.8,7.7L22.3,7.7L22.3,6.2L18.2,6.2L18.2,7.3L21,7.3L21,7.7L18.2,7.7L18.2,9.2L16.7,9.2L16.7,10.7L15,10.7L15,10.3L16.3,10.3L16.3,8.8L17.8,8.8L17.8,7.7L13.3,7.7L13.3,6L13.7,6L13.7,7.3z" stroke="none"/><path d="M9.2,7.5L8.8,7.5L8.8,6L9.2,6z" stroke="none"/><path d="M15,8.8L15,9.2L13.5,9.2L13.5,8.8z" stroke="none"/><path d="M19.5,12.2L19.5,11.8L21,11.8L21,12.2z" stroke="none"/><path d="M4.5,12.2L4.5,11.8L6,11.8L6,12.2z" stroke="none"/><path d="M24,6.2L24,5.8L25.7,5.8L25.7,7.3L27.2,7.3L27.2,9L26.8,9L26.8,7.7L25.3,7.7L25.3,6.2z" stroke="none"/><path d="M4.5,10.3L4.5,10.7L2.8,10.7L2.8,5.8L6,5.8L6,6.2L3.2,6.2L3.2,10.3z" stroke="none"/><path d="M12,5.8L12,6.2L10.7,6.2L10.7,13.7L2.8,13.7L2.8,12.2L1.3,12.2L1.3,1.3L13.7,1.3L13.7,2.8L16.5,2.8L16.5,3.2L13.3,3.2L13.3,1.7L1.7,1.7L1.7,11.8L3.2,11.8L3.2,13.3L10.3,13.3L10.3,5.8z" stroke="none"/><path d="M22.5,8.8L22.5,9.2L19.7,9.2L19.7,10.7L18.2,10.7L18.2,12.2L11.8,12.2L11.8,7.5L12.2,7.5L12.2,11.8L17.8,11.8L17.8,10.3L19.3,10.3L19.3,8.8z" stroke="none"/></svg>