<svg version="1.1" width="30" height="15" xmlns="http://www.w3.org/2000/svg"><path d="M28.7,1.3L28.7,6.2L25.7,6.2L25.7,7.7L24,7.7L24,7.3L25.3,7.3L25.3,5.8L28.3,5.8L28.3,1.7L27.2,1.7L27.2,4.7L25.5,4.7L25.5,4.3L26.8,4.3L26.8,1.7L25.7,1.7L25.7,3.2L24,3.2L24,2.8L25.3,2.8L25.3,1.3z" stroke="none"/><path d="M7.3,8.8L7.3,7.7L3.2,7.7L3.2,10.5L2.8,10.5L2.8,7.3L7.7,7.3L7.7,8.8L12,8.8L12,9.2L7.7,9.2L7.7,11.8L9,11.8L9,12.2L7.3,12.2L7.3,9.2L4.5,9.2L4.5,8.8z" stroke="none"/><path d="M15,2.8L15,3.2L12,3.2L12,2.8z" stroke="none"/><path d="M17.8,9L18.2,9L18.2,10.7L15,10.7L15,10.3L17.8,10.3z" stroke="none"/><path d="M21,10.3L21,10.7L19.3,10.7L19.3,7.7L16.7,7.7L16.7,9L16.3,9L16.3,7.3L19.7,7.3L19.7,10.3z" stroke="none"/><path d="M16.3,3L16.7,3L16.7,4.7L12.2,4.7L12.2,6L11.8,6L11.8,4.3L16.3,4.3z" stroke="none"/><path d="M27,10.3L27,10.7L23.8,10.7L23.8,9.2L22.3,9.2L22.3,5.8L24,5.8L24,6.2L22.7,6.2L22.7,8.8L24.2,8.8L24.2,10.3z" stroke="none"/><path d="M13.3,6L13.7,6L13.7,7.7L10.3,7.7L10.3,6.2L8.8,6.2L8.8,3.2L7.5,3.2L7.5,2.8L9.2,2.8L9.2,5.8L10.7,5.8L10.7,7.3L13.3,7.3z" stroke="none"/><path d="M10.7,4.5L10.3,4.5L10.3,1.3L18.2,1.3L18.2,2.8L21.2,2.8L21.2,4.5L20.8,4.5L20.8,3.2L17.8,3.2L17.8,1.7L10.7,1.7z" stroke="none"/><path d="M19.5,4.3L19.5,4.7L18.2,4.7L18.2,6.2L15.2,6.2L15.2,9.2L13.7,9.2L13.7,10.7L12.2,10.7L12.2,12.2L10.7,12.2L10.7,13.7L1.3,13.7L1.3,5.8L7.5,5.8L7.5,6.2L1.7,6.2L1.7,13.3L10.3,13.3L10.3,11.8L11.8,11.8L11.8,10.3L13.3,10.3L13.3,8.8L14.8,8.8L14.8,5.8L17.8,5.8L17.8,4.3z" stroke="none"/></svg>