<svg version="1.1" width="30" height="15" xmlns="http://www.w3.org/2000/svg"><path d="M11.8,4.3L11.8,2.8L13.5,2.8L13.5,3.2L12.2,3.2L12.2,4.7L10.7,4.7L10.7,6.2L7.5,6.2L7.5,5.8L10.3,5.8L10.3,4.7L7.5,4.7L7.5,4.3z" stroke="none"/><path d="M19.3,4.3L19.3,2.8L25.7,2.8L25.7,5.8L27,5.8L27,6.2L25.3,6.2L25.3,3.2L19.7,3.2L19.7,4.3L22.5,4.3L22.5,4.7L19.7,4.7L19.7,5.8L22.5,5.8L22.5,6.2L19.3,6.2L19.3,4.7L14.8,4.7L14.8,3L15.2,3L15.2,4.3z" stroke="none"/><path d="M27.2,9L26.8,9L26.8,7.7L25.5,7.7L25.5,7.3L27.2,7.3z" stroke="none"/><path d="M24.2,10.5L23.8,10.5L23.8,7.5L24.2,7.5z" stroke="none"/><path d="M15,11.8L15,12.2L12,12.2L12,11.8z" stroke="none"/><path d="M4.3,3L4.7,3L4.7,7.3L6,7.3L6,7.7L4.3,7.7z" stroke="none"/><path d="M2.8,6L3.2,6L3.2,8.8L10.3,8.8L10.3,7.3L13.5,7.3L13.5,7.7L10.7,7.7L10.7,9.2L2.8,9.2z" stroke="none"/><path d="M3,12.2L3,11.8L10.3,11.8L10.3,10.3L13.5,10.3L13.5,10.7L10.7,10.7L10.7,12.2z" stroke="none"/><path d="M9,10.3L9,10.7L1.7,10.7L1.7,13.3L19.3,13.3L19.3,11.8L21,11.8L21,12.2L19.7,12.2L19.7,13.7L1.3,13.7L1.3,10.3z" stroke="none"/><path d="M12,9.2L12,8.8L21.2,8.8L21.2,10.3L22.7,10.3L22.7,11.8L24,11.8L24,12.2L22.3,12.2L22.3,10.7L20.8,10.7L20.8,9.2z" stroke="none"/></svg>