<svg version="1.1" width="30" height="15" xmlns="http://www.w3.org/2000/svg"><path d="M28.7,5.8L28.7,12.2L27,12.2L27,11.8L28.3,11.8L28.3,6.2L27.2,6.2L27.2,9L26.8,9L26.8,6.2L25.7,6.2L25.7,9L25.3,9L25.3,5.8z" stroke="none"/><path d="M20.8,7.3L20.8,6.2L16.7,6.2L16.7,8.8L18.2,8.8L18.2,11.8L22.3,11.8L22.3,10.3L23.8,10.3L23.8,9L24.2,9L24.2,10.7L22.7,10.7L22.7,12.2L17.8,12.2L17.8,9.2L16.3,9.2L16.3,5.8L21.2,5.8L21.2,7.3L24,7.3L24,7.7L21.2,7.7L21.2,10.5L20.8,10.5L20.8,7.7L18,7.7L18,7.3z" stroke="none"/><path d="M9.2,10.5L8.8,10.5L8.8,6L9.2,6z" stroke="none"/><path d="M4.5,10.7L4.5,10.3L6.2,10.3L6.2,11.8L10.3,11.8L10.3,9L10.7,9L10.7,12.2L5.8,12.2L5.8,10.7z" stroke="none"/><path d="M3,4.7L3,4.3L4.7,4.3L4.7,5.8L7.7,5.8L7.7,9L7.3,9L7.3,6.2L4.3,6.2L4.3,4.7z" stroke="none"/><path d="M15.2,6L14.8,6L14.8,4.7L8.8,4.7L8.8,3L9.2,3L9.2,4.3L15.2,4.3z" stroke="none"/><path d="M27,2.8L27,3.2L19.7,3.2L19.7,4.5L19.3,4.5L19.3,2.8z" stroke="none"/><path d="M6,8.8L6,9.2L3.2,9.2L3.2,11.8L4.7,11.8L4.7,13.3L11.8,13.3L11.8,7.3L13.3,7.3L13.3,6L13.7,6L13.7,7.7L12.2,7.7L12.2,13.7L4.3,13.7L4.3,12.2L2.8,12.2L2.8,8.8z" stroke="none"/><path d="M25.3,10.5L25.7,10.5L25.7,12.2L24.2,12.2L24.2,13.7L16.3,13.7L16.3,10.7L14.8,10.7L14.8,9L15.2,9L15.2,10.3L16.7,10.3L16.7,13.3L23.8,13.3L23.8,11.8L25.3,11.8z" stroke="none"/><path d="M16.7,4.5L16.3,4.5L16.3,3.2L14.8,3.2L14.8,1.7L4.7,1.7L4.7,3.2L1.7,3.2L1.7,5.8L3.2,5.8L3.2,7.3L4.5,7.3L4.5,7.7L2.8,7.7L2.8,6.2L1.3,6.2L1.3,2.8L4.3,2.8L4.3,1.3L15.2,1.3L15.2,2.8L16.7,2.8z" stroke="none"/></svg>