<svg version="1.1" width="30" height="15" xmlns="http://www.w3.org/2000/svg"><path d="M13.3,7.3L16.7,7.3L16.7,8.8L18.2,8.8L18.2,11.8L19.5,11.8L19.5,12.2L17.8,12.2L17.8,9.2L16.3,9.2L16.3,7.7L13.7,7.7L13.7,8.8L15.2,8.8L15.2,10.3L16.5,10.3L16.5,10.7L14.8,10.7L14.8,9.2L13.7,9.2L13.7,11.8L15,11.8L15,12.2L13.3,12.2z" stroke="none"/><path d="M10.3,4.3L10.3,2.8L13.5,2.8L13.5,3.2L10.7,3.2L10.7,4.3L13.5,4.3L13.5,4.7L10.7,4.7L10.7,5.8L14.8,5.8L14.8,2.8L16.5,2.8L16.5,3.2L15.2,3.2L15.2,6.2L10.3,6.2L10.3,4.7L9.2,4.7L9.2,7.7L6,7.7L6,7.3L8.8,7.3L8.8,4.3z" stroke="none"/><path d="M27,11.8L27,12.2L25.5,12.2L25.5,11.8z" stroke="none"/><path d="M27,2.8L27,3.2L24.2,3.2L24.2,4.5L23.8,4.5L23.8,2.8z" stroke="none"/><path d="M3,6.2L3,5.8L7.5,5.8L7.5,6.2z" stroke="none"/><path d="M19.3,4.5L19.7,4.5L19.7,7.3L21.2,7.3L21.2,9L20.8,9L20.8,7.7L19.3,7.7z" stroke="none"/><path d="M3,3.2L3,2.8L6.2,2.8L6.2,4.3L7.5,4.3L7.5,4.7L5.8,4.7L5.8,3.2z" stroke="none"/><path d="M22.5,7.7L22.5,7.3L25.3,7.3L25.3,5.8L27,5.8L27,6.2L25.7,6.2L25.7,7.7z" stroke="none"/><path d="M20.8,12L21.2,12L21.2,13.7L11.8,13.7L11.8,7.7L10.5,7.7L10.5,7.3L12.2,7.3L12.2,13.3L20.8,13.3z" stroke="none"/><path d="M16.7,6L16.3,6L16.3,4.3L17.8,4.3L17.8,1.7L1.7,1.7L1.7,4.3L4.5,4.3L4.5,4.7L1.3,4.7L1.3,1.3L18.2,1.3L18.2,4.7L16.7,4.7z" stroke="none"/></svg>