<svg version="1.1" width="30" height="15" xmlns="http://www.w3.org/2000/svg"><path d="M20.8,4.3L20.8,2.8L22.5,2.8L22.5,3.2L21.2,3.2L21.2,4.7L16.7,4.7L16.7,6.2L13.7,6.2L13.7,7.5L13.3,7.5L13.3,5.8L16.3,5.8L16.3,4.7L10.5,4.7L10.5,4.3z" stroke="none"/><path d="M7.3,8.8L7.3,7.7L5.8,7.7L5.8,6L6.2,6L6.2,7.3L7.7,7.3L7.7,8.8L9.2,8.8L9.2,10.3L10.5,10.3L10.5,10.7L8.8,10.7L8.8,9.2L7.7,9.2L7.7,11.8L14.8,11.8L14.8,10.5L15.2,10.5L15.2,12.2L7.3,12.2L7.3,9.2L4.3,9.2L4.3,7.7L2.8,7.7L2.8,6L3.2,6L3.2,7.3L4.7,7.3L4.7,8.8z" stroke="none"/><path d="M21,11.8L21,12.2L19.3,12.2L19.3,10.5L19.7,10.5L19.7,11.8z" stroke="none"/><path d="M19.3,6L19.7,6L19.7,9L19.3,9z" stroke="none"/><path d="M25.5,10.3L25.5,10.7L21,10.7L21,10.3z" stroke="none"/><path d="M22.5,4.7L22.5,4.3L24.2,4.3L24.2,5.8L25.7,5.8L25.7,7.3L27,7.3L27,7.7L25.3,7.7L25.3,6.2L23.8,6.2L23.8,4.7z" stroke="none"/><path d="M15,8.8L15,9.2L11.8,9.2L11.8,7.7L10.3,7.7L10.3,6L10.7,6L10.7,7.3L12.2,7.3L12.2,8.8z" stroke="none"/><path d="M7.7,6L7.3,6L7.3,4.3L8.8,4.3L8.8,2.8L13.5,2.8L13.5,3.2L9.2,3.2L9.2,4.7L7.7,4.7z" stroke="none"/><path d="M25.3,3L25.7,3L25.7,4.3L28.7,4.3L28.7,13.7L17.8,13.7L17.8,7.5L18.2,7.5L18.2,13.3L28.3,13.3L28.3,4.7L25.3,4.7z" stroke="none"/><path d="M15,7.7L15,7.3L16.7,7.3L16.7,13.7L5.8,13.7L5.8,10.7L2.8,10.7L2.8,9.2L1.3,9.2L1.3,4.3L4.3,4.3L4.3,2.8L5.8,2.8L5.8,1.3L27.2,1.3L27.2,3L26.8,3L26.8,1.7L6.2,1.7L6.2,3.2L4.7,3.2L4.7,4.7L1.7,4.7L1.7,8.8L3.2,8.8L3.2,10.3L6.2,10.3L6.2,13.3L16.3,13.3L16.3,7.7z" stroke="none"/></svg>