<svg version="1.1" width="30" height="15" xmlns="http://www.w3.org/2000/svg"><path d="M9.2,2.8L9.2,4.3L10.5,4.3L10.5,4.7L8.8,4.7L8.8,3.2L7.7,3.2L7.7,5.8L9,5.8L9,6.2L7.3,6.2L7.3,3.2L6.2,3.2L6.2,6L5.8,6L5.8,2.8z" stroke="none"/><path d="M20.8,2.8L20.8,1.3L27.2,1.3L27.2,7.7L25.5,7.7L25.5,7.3L26.8,7.3L26.8,1.7L21.2,1.7L21.2,2.8L25.5,2.8L25.5,3.2L21.2,3.2L21.2,4.3L22.7,4.3L22.7,7.5L22.3,7.5L22.3,4.7L20.8,4.7L20.8,3.2L15.2,3.2L15.2,4.5L14.8,4.5L14.8,2.8z" stroke="none"/><path d="M25.5,4.3L25.5,4.7L24,4.7L24,4.3z" stroke="none"/><path d="M13.7,10.5L13.3,10.5L13.3,9.2L12,9.2L12,8.8L13.7,8.8z" stroke="none"/><path d="M19.7,10.5L19.3,10.5L19.3,7.5L19.7,7.5z" stroke="none"/><path d="M27,10.3L27,10.7L22.5,10.7L22.5,10.3z" stroke="none"/><path d="M16.5,9.2L16.5,8.8L17.8,8.8L17.8,5.8L21,5.8L21,6.2L18.2,6.2L18.2,9.2z" stroke="none"/><path d="M3,9.2L3,8.8L10.7,8.8L10.7,10.5L10.3,10.5L10.3,9.2z" stroke="none"/><path d="M23.8,7.5L24.2,7.5L24.2,9.2L21.2,9.2L21.2,12.2L16.5,12.2L16.5,11.8L20.8,11.8L20.8,8.8L23.8,8.8z" stroke="none"/><path d="M3,12.2L3,11.8L11.8,11.8L11.8,10.5L12.2,10.5L12.2,12.2z" stroke="none"/></svg>