<svg version="1.1" width="30" height="15" xmlns="http://www.w3.org/2000/svg"><path d="M24.2,8.8L24.2,10.3L25.5,10.3L25.5,10.7L23.8,10.7L23.8,9.2L22.7,9.2L22.7,11.8L26.8,11.8L26.8,10.5L27.2,10.5L27.2,12.2L22.3,12.2L22.3,9.2L19.5,9.2L19.5,8.8z" stroke="none"/><path d="M13.3,8.8L13.3,7.7L10.5,7.7L10.5,7.3L13.7,7.3L13.7,8.8L16.5,8.8L16.5,9.2L13.7,9.2L13.7,12.2L8.8,12.2L8.8,6L9.2,6L9.2,11.8L13.3,11.8L13.3,9.2L12.2,9.2L12.2,10.7L10.5,10.7L10.5,10.3L11.8,10.3L11.8,8.8z" stroke="none"/><path d="M14.8,3L15.2,3L15.2,4.3L16.5,4.3L16.5,4.7L14.8,4.7z" stroke="none"/><path d="M25.5,3.2L25.5,2.8L27.2,2.8L27.2,4.5L26.8,4.5L26.8,3.2z" stroke="none"/><path d="M10.7,6L10.3,6L10.3,4.7L6.2,4.7L6.2,7.7L4.7,7.7L4.7,10.5L4.3,10.5L4.3,7.3L5.8,7.3L5.8,4.3L10.7,4.3z" stroke="none"/><path d="M18,4.7L18,4.3L25.5,4.3L25.5,4.7z" stroke="none"/><path d="M25.5,7.3L25.5,7.7L18.2,7.7L18.2,10.3L19.7,10.3L19.7,12L19.3,12L19.3,10.7L17.8,10.7L17.8,7.3z" stroke="none"/><path d="M4.7,6L4.3,6L4.3,2.8L12.2,2.8L12.2,4.3L13.7,4.3L13.7,6L13.3,6L13.3,4.7L11.8,4.7L11.8,3.2L4.7,3.2z" stroke="none"/><path d="M15,6.2L15,5.8L27.2,5.8L27.2,9.2L25.5,9.2L25.5,8.8L26.8,8.8L26.8,6.2z" stroke="none"/><path d="M7.3,6L7.7,6L7.7,9.2L6.2,9.2L6.2,12.2L2.8,12.2L2.8,1.3L18.2,1.3L18.2,3L17.8,3L17.8,1.7L3.2,1.7L3.2,11.8L5.8,11.8L5.8,8.8L7.3,8.8z" stroke="none"/></svg>