<svg version="1.1" width="30" height="15" xmlns="http://www.w3.org/2000/svg"><path d="M16.3,4.3L16.3,2.8L18,2.8L18,3.2L16.7,3.2L16.7,4.7L15.2,4.7L15.2,7.7L12,7.7L12,7.3L14.8,7.3L14.8,4.7L9.2,4.7L9.2,6.2L7.7,6.2L7.7,7.5L7.3,7.5L7.3,5.8L8.8,5.8L8.8,4.3z" stroke="none"/><path d="M10.3,10.3L10.3,7.7L9,7.7L9,7.3L10.7,7.3L10.7,10.3L16.3,10.3L16.3,8.8L18,8.8L18,9.2L16.7,9.2L16.7,10.7L10.7,10.7L10.7,13.7L5.8,13.7L5.8,12L6.2,12L6.2,13.3L10.3,13.3L10.3,10.7L9.2,10.7L9.2,12.2L7.5,12.2L7.5,11.8L8.8,11.8L8.8,10.3z" stroke="none"/><path d="M4.7,12L4.3,12L4.3,10.5L4.7,10.5z" stroke="none"/><path d="M12,2.8L12,3.2L9,3.2L9,2.8z" stroke="none"/><path d="M3.2,10.5L2.8,10.5L2.8,7.5L3.2,7.5z" stroke="none"/><path d="M6.2,7.5L5.8,7.5L5.8,4.7L4.5,4.7L4.5,4.3L6.2,4.3z" stroke="none"/><path d="M19.5,6.2L19.5,5.8L23.8,5.8L23.8,4.3L25.5,4.3L25.5,4.7L24.2,4.7L24.2,6.2z" stroke="none"/><path d="M21,7.7L21,7.3L25.3,7.3L25.3,5.8L26.8,5.8L26.8,3L27.2,3L27.2,6.2L25.7,6.2L25.7,7.7z" stroke="none"/><path d="M15,12.2L15,11.8L19.3,11.8L19.3,10.3L20.8,10.3L20.8,8.8L22.5,8.8L22.5,9.2L21.2,9.2L21.2,10.7L19.7,10.7L19.7,12.2z" stroke="none"/><path d="M7.7,4.5L7.3,4.5L7.3,1.3L19.7,1.3L19.7,4.7L18.2,4.7L18.2,7.7L16.5,7.7L16.5,7.3L17.8,7.3L17.8,4.3L19.3,4.3L19.3,1.7L7.7,1.7z" stroke="none"/></svg>