<svg version="1.1" width="30" height="15" xmlns="http://www.w3.org/2000/svg"><path d="M7.5,8.8L7.5,9.2L4.7,9.2L4.7,12L4.3,12L4.3,9.2L3.2,9.2L3.2,13.3L5.8,13.3L5.8,12L6.2,12L6.2,13.7L2.8,13.7L2.8,8.8z" stroke="none"/><path d="M13.3,10.3L13.3,9.2L10.5,9.2L10.5,8.8L13.7,8.8L13.7,10.3L19.7,10.3L19.7,12L19.3,12L19.3,10.7L13.7,10.7L13.7,12.2L7.5,12.2L7.5,11.8L13.3,11.8L13.3,10.7L10.5,10.7L10.5,10.3z" stroke="none"/><path d="M27,7.7L27,7.3L28.7,7.3L28.7,10.7L27,10.7L27,10.3L28.3,10.3L28.3,7.7z" stroke="none"/><path d="M16.7,7.5L16.3,7.5L16.3,6.2L14.8,6.2L14.8,4.7L10.3,4.7L10.3,3L10.7,3L10.7,4.3L15.2,4.3L15.2,5.8L16.7,5.8z" stroke="none"/><path d="M13.5,3.2L13.5,2.8L21,2.8L21,3.2z" stroke="none"/><path d="M4.5,6.2L4.5,5.8L7.7,5.8L7.7,7.3L12,7.3L12,7.7L7.3,7.7L7.3,6.2z" stroke="none"/><path d="M27,8.8L27,9.2L23.8,9.2L23.8,6.2L19.5,6.2L19.5,5.8L24.2,5.8L24.2,8.8z" stroke="none"/><path d="M13.3,6L13.7,6L13.7,7.3L15.2,7.3L15.2,8.8L21.2,8.8L21.2,10.5L20.8,10.5L20.8,9.2L14.8,9.2L14.8,7.7L13.3,7.7z" stroke="none"/><path d="M25.5,10.3L25.5,10.7L24.2,10.7L24.2,12.2L21.2,12.2L21.2,13.7L17.8,13.7L17.8,12.2L16.5,12.2L16.5,11.8L18.2,11.8L18.2,13.3L20.8,13.3L20.8,11.8L23.8,11.8L23.8,10.3z" stroke="none"/><path d="M21,7.3L21,7.7L17.8,7.7L17.8,4.3L22.3,4.3L22.3,1.7L12.2,1.7L12.2,3L11.8,3L11.8,1.3L22.7,1.3L22.7,4.7L18.2,4.7L18.2,7.3z" stroke="none"/></svg>