<svg version="1.1" width="105" height="15" xmlns="http://www.w3.org/2000/svg"><path d="M73.9,3.9L73.9,3.5414213562373096L73.45857864376269,3.1L66,3.1L66,2.9L73.54142135623731,2.9L74.1,3.4585786437626904L74.1,3.9L76.95857864376269,3.9L77.45857864376269,3.4L86.04142135623731,3.4L86.54142135623731,3.9L88.04142135623731,3.9L88.57071067811866,4.429289321881345L88.42928932188134,4.570710678118655L87.95857864376269,4.1L86.45857864376269,4.1L85.95857864376269,3.6L77.54142135623731,3.6L77.04142135623731,4.1L69.54142135623731,4.1L69.07071067811866,4.570710678118655L68.92928932188134,4.429289321881345L69.45857864376269,3.9z" stroke="none"/><path d="M34.9,11.4L34.9,11.04142135623731L34.45857864376269,10.6L24,10.6L24,10.4L34.54142135623731,10.4L35.1,10.95857864376269L35.1,11.4L42.45857864376269,11.4L42.95857864376269,10.9L52.04142135623731,10.9L52.54142135623731,11.4L53.04142135623731,11.4L53.54142135623731,11.9L54,11.9L54,12.1L53.45857864376269,12.1L52.95857864376269,11.6L52.45857864376269,11.6L51.95857864376269,11.1L43.04142135623731,11.1L42.54142135623731,11.6L30.958578643762692,11.6L30.458578643762692,11.1L28.041421356237308,11.1L27.070710678118655,12.070710678118655L26.929289321881345,11.929289321881345L27.958578643762692,10.9L30.541421356237308,10.9L31.041421356237308,11.4z" stroke="none"/><path d="M94.45857864376269,9.9L95.45857864376269,8.9L99,8.9L99,9.1L95.54142135623731,9.1L94.54142135623731,10.1L85.1,10.1L85.1,10.45857864376269L85.54142135623731,10.9L88.04142135623731,10.9L88.54142135623731,11.4L90.54142135623731,11.4L91.04142135623731,11.9L99,11.9L99,12.1L90.95857864376269,12.1L90.45857864376269,11.6L88.45857864376269,11.6L87.95857864376269,11.1L85.45857864376269,11.1L84.9,10.54142135623731L84.9,10.1L77.45857864376269,10.1L76.95857864376269,9.6L72.95857864376269,9.6L72.45857864376269,9.1L71.95857864376269,9.1L70.95857864376269,8.1L62.54142135623731,8.1L62.04142135623731,8.6L58.54142135623731,8.6L58.04142135623731,9.1L57,9.1L57,8.9L57.95857864376269,8.9L58.45857864376269,8.4L61.95857864376269,8.4L62.45857864376269,7.9L71.04142135623731,7.9L72.04142135623731,8.9L72.54142135623731,8.9L73.04142135623731,9.4L77.04142135623731,9.4L77.54142135623731,9.9z" stroke="none"/><path d="M35.4,5.4L35.4,4.04142135623731L34.95857864376269,3.6L20.541421356237308,3.6L20.041421356237308,4.1L18.041421356237308,4.1L17.541421356237308,4.6L17.041421356237308,4.6L16.041421356237308,5.6L14.45857864376269,5.6L13.429289321881345,4.570710678118655L13.570710678118655,4.429289321881345L14.54142135623731,5.4L15.95857864376269,5.4L16.958578643762692,4.4L17.458578643762692,4.4L17.958578643762692,3.9L19.958578643762692,3.9L20.458578643762692,3.4L35.04142135623731,3.4L35.6,3.9585786437626904L35.6,5.4L50.45857864376269,5.4L50.95857864376269,4.9L56.45857864376269,4.9L57.95857864376269,3.4L60.95857864376269,3.4L61.42928932188134,2.9292893218813454L61.57071067811866,3.0707106781186546L61.04142135623731,3.6L58.04142135623731,3.6L56.54142135623731,5.1L51.04142135623731,5.1L50.54142135623731,5.6L35.6,5.6L35.6,6.04142135623731L34.54142135623731,7.1L33.54142135623731,7.1L33.04142135623731,7.6L30,7.6L30,7.4L32.95857864376269,7.4L33.45857864376269,6.9L34.45857864376269,6.9L35.4,5.95857864376269L35.4,5.6L33.54142135623731,5.6L33.07071067811866,6.070710678118655L32.92928932188134,5.929289321881345L33.45857864376269,5.4z" stroke="none"/><path d="M41.9,8.4L41.9,8.04142135623731L41.45857864376269,7.6L35.54142135623731,7.6L35.04142135623731,8.1L31.041421356237308,8.1L30.541421356237308,8.6L29.458578643762692,8.6L27.458578643762692,6.6L25.958578643762692,6.6L25.429289321881345,6.070710678118655L25.570710678118655,5.929289321881345L26.041421356237308,6.4L27.541421356237308,6.4L29.541421356237308,8.4L30.458578643762692,8.4L30.958578643762692,7.9L34.95857864376269,7.9L35.45857864376269,7.4L41.54142135623731,7.4L42.1,7.95857864376269L42.1,8.4L54.95857864376269,8.4L55.45857864376269,7.9L61.45857864376269,7.9L61.95857864376269,7.4L81.04142135623731,7.4L82.04142135623731,8.4L97.95857864376269,8.4L98.45857864376269,7.9L99.54142135623731,7.9L100.1,8.45857864376269L100.1,9.54142135623731L99.6,10.04142135623731L99.6,10.95857864376269L100.1,11.45857864376269L100.1,12.54142135623731L99.54142135623731,13.1L79.45857864376269,13.1L77.95857864376269,11.6L74.95857864376269,11.6L74.45857864376269,11.1L73.45857864376269,11.1L72.95857864376269,10.6L70.5,10.6L70.5,10.4L73.04142135623731,10.4L73.54142135623731,10.9L74.54142135623731,10.9L75.04142135623731,11.4L78.04142135623731,11.4L79.54142135623731,12.9L99.45857864376269,12.9L99.9,12.45857864376269L99.9,11.54142135623731L99.4,11.04142135623731L99.4,9.95857864376269L99.9,9.45857864376269L99.9,8.54142135623731L99.45857864376269,8.1L98.54142135623731,8.1L98.04142135623731,8.6L81.95857864376269,8.6L80.95857864376269,7.6L62.04142135623731,7.6L61.54142135623731,8.1L55.54142135623731,8.1L55.04142135623731,8.6L42.1,8.6L42.1,9.04142135623731L41.54142135623731,9.6L34.95857864376269,9.6L34.42928932188134,9.070710678118655L34.57071067811866,8.929289321881345L35.04142135623731,9.4L41.45857864376269,9.4L41.9,8.95857864376269L41.9,8.6L41.04142135623731,8.6L40.54142135623731,9.1L39,9.1L39,8.9L40.45857864376269,8.9L40.95857864376269,8.4z" stroke="none"/><path d="M53.9,10.4L53.9,9.95857864376269L54.45857864376269,9.4L56.04142135623731,9.4L56.54142135623731,9.9L58.45857864376269,9.9L58.95857864376269,9.4L69.45857864376269,9.4L69.95857864376269,8.9L70.5,8.9L70.5,9.1L70.04142135623731,9.1L69.54142135623731,9.6L59.04142135623731,9.6L58.54142135623731,10.1L56.45857864376269,10.1L55.95857864376269,9.6L54.54142135623731,9.6L54.1,10.04142135623731L54.1,10.4L67.54142135623731,10.4L69.07071067811866,11.929289321881345L68.92928932188134,12.070710678118655L67.45857864376269,10.6L54.24142135623731,10.6L55.1,11.45857864376269L55.1,12.54142135623731L54.54142135623731,13.1L44.95857864376269,13.1L44.45857864376269,12.6L43.95857864376269,12.6L43.42928932188134,12.070710678118655L43.57071067811866,11.929289321881345L44.04142135623731,12.4L44.54142135623731,12.4L45.04142135623731,12.9L54.45857864376269,12.9L54.9,12.45857864376269L54.9,11.54142135623731L53.95857864376269,10.6L35.95857864376269,10.6L35.45857864376269,10.1L33.95857864376269,10.1L32.92928932188134,9.070710678118655L33.07071067811866,8.929289321881345L34.04142135623731,9.9L35.54142135623731,9.9L36.04142135623731,10.4z" stroke="none"/><path d="M18,7.6L18,7.4L19.5,7.4L19.5,7.6z" stroke="none"/><path d="M7.5,7.4L7.5,7.6L6,7.6L6,7.4z" stroke="none"/><path d="M83.92928932188134,4.570710678118655L84.07071067811866,4.429289321881345L84.54142135623731,4.9L85.54142135623731,4.9L86.54142135623731,5.9L87,5.9L87,6.1L86.45857864376269,6.1L85.45857864376269,5.1L84.45857864376269,5.1z" stroke="none"/><path d="M84.1,7.5L83.9,7.5L83.9,7.04142135623731L83.4,6.54142135623731L83.4,6.04142135623731L82.9,5.54142135623731L82.9,5.04142135623731L82.42928932188134,4.570710678118655L82.57071067811866,4.429289321881345L83.1,4.95857864376269L83.1,5.45857864376269L83.6,5.95857864376269L83.6,6.45857864376269L84.1,6.95857864376269z" stroke="none"/><path d="M85.5,11.9L85.5,12.1L81,12.1L81,11.9z" stroke="none"/><path d="M16.570710678118655,8.929289321881345L16.429289321881345,9.070710678118655L12.4,5.04142135623731L12.4,3.9585786437626904L12.95857864376269,3.4L14.04142135623731,3.4L15.070710678118655,4.429289321881345L14.929289321881345,4.570710678118655L13.95857864376269,3.6L13.04142135623731,3.6L12.6,4.04142135623731L12.6,4.95857864376269z" stroke="none"/><path d="M8.929289321881345,6.070710678118655L9.070710678118655,5.929289321881345L9.54142135623731,6.4L10.04142135623731,6.4L11.04142135623731,7.4L11.54142135623731,7.4L13.04142135623731,8.9L13.5,8.9L13.5,9.1L12.95857864376269,9.1L11.45857864376269,7.6L10.95857864376269,7.6L9.95857864376269,6.6L9.45857864376269,6.6z" stroke="none"/><path d="M88.5,6.1L88.5,5.9L96,5.9L96,6.1z" stroke="none"/><path d="M34.5,4.4L34.5,4.6L25.541421356237308,4.6L24.6,5.54142135623731L24.6,6.45857864376269L25.041421356237308,6.9L26.041421356237308,6.9L26.541421356237308,7.4L27,7.4L27,7.6L26.458578643762692,7.6L25.958578643762692,7.1L24.958578643762692,7.1L24.4,6.54142135623731L24.4,5.45857864376269L25.458578643762692,4.4z" stroke="none"/><path d="M43.5,7.6L43.5,7.4L43.95857864376269,7.4L44.45857864376269,6.9L45.45857864376269,6.9L46.45857864376269,5.9L52.5,5.9L52.5,6.1L46.54142135623731,6.1L45.54142135623731,7.1L44.54142135623731,7.1L44.04142135623731,7.6z" stroke="none"/><path d="M14.929289321881345,8.929289321881345L15.070710678118655,9.070710678118655L14.04142135623731,10.1L7.45857864376269,10.1L6.95857864376269,9.6L4.45857864376269,9.6L3.9585786437626904,9.1L3,9.1L3,8.9L4.04142135623731,8.9L4.54142135623731,9.4L7.04142135623731,9.4L7.54142135623731,9.9L13.95857864376269,9.9z" stroke="none"/><path d="M7.5,5.9L7.5,6.1L6.04142135623731,6.1L5.54142135623731,6.6L4.04142135623731,6.6L2.1,8.54142135623731L2.1,9.45857864376269L2.5414213562373096,9.9L6.54142135623731,9.9L7.04142135623731,10.4L15.95857864376269,10.4L16.458578643762692,9.9L16.958578643762692,9.9L17.458578643762692,9.4L17.958578643762692,9.4L18.958578643762692,8.4L19.958578643762692,8.4L20.4,7.95857864376269L20.4,6.45857864376269L20.929289321881345,5.929289321881345L21.070710678118655,6.070710678118655L20.6,6.54142135623731L20.6,8.04142135623731L20.041421356237308,8.6L19.041421356237308,8.6L18.041421356237308,9.6L17.541421356237308,9.6L17.041421356237308,10.1L16.541421356237308,10.1L16.041421356237308,10.6L6.95857864376269,10.6L6.45857864376269,10.1L2.4585786437626904,10.1L1.9,9.54142135623731L1.9,8.45857864376269L3.9585786437626904,6.4L5.45857864376269,6.4L5.95857864376269,5.9z" stroke="none"/><path d="M93,2.9L93,3.1L75,3.1L75,2.9z" stroke="none"/><path d="M7.5,12.1L7.5,11.9L23.041421356237308,11.9L24.041421356237308,12.9L27.458578643762692,12.9L28.429289321881345,11.929289321881345L28.570710678118655,12.070710678118655L27.541421356237308,13.1L23.958578643762692,13.1L22.958578643762692,12.1z" stroke="none"/><path d="M78,4.4L78,4.6L71.54142135623731,4.6L70.54142135623731,5.6L68.45857864376269,5.6L67.95857864376269,5.1L67.45857864376269,5.1L66.95857864376269,4.6L65.95857864376269,4.6L64.9,3.5414213562373096L64.9,2.4585786437626904L65.45857864376269,1.9L94.04142135623731,1.9L94.54142135623731,2.4L95.04142135623731,2.4L95.54142135623731,2.9L96.54142135623731,2.9L97.04142135623731,3.4L97.54142135623731,3.4L99.54142135623731,5.4L100.04142135623731,5.4L100.57071067811866,5.929289321881345L100.42928932188134,6.070710678118655L99.95857864376269,5.6L99.45857864376269,5.6L97.45857864376269,3.6L96.95857864376269,3.6L96.45857864376269,3.1L95.45857864376269,3.1L94.95857864376269,2.6L94.45857864376269,2.6L93.95857864376269,2.1L65.54142135623731,2.1L65.1,2.5414213562373096L65.1,3.4585786437626904L66.04142135623731,4.4L67.04142135623731,4.4L67.54142135623731,4.9L68.04142135623731,4.9L68.54142135623731,5.4L70.45857864376269,5.4L71.45857864376269,4.4z" stroke="none"/><path d="M99,2.9L99,3.1L97.45857864376269,3.1L96.95857864376269,2.6L95.95857864376269,2.6L95.45857864376269,2.1L94.95857864376269,2.1L94.45857864376269,1.6L65.04142135623731,1.6L64.6,2.0414213562373096L64.6,3.9585786437626904L65.54142135623731,4.9L66.54142135623731,4.9L67.04142135623731,5.4L67.54142135623731,5.4L68.04142135623731,5.9L75,5.9L75,6.1L67.95857864376269,6.1L67.45857864376269,5.6L66.95857864376269,5.6L66.45857864376269,5.1L65.45857864376269,5.1L64.4,4.04142135623731L64.4,1.9585786437626904L64.95857864376269,1.4L94.54142135623731,1.4L95.04142135623731,1.9L95.54142135623731,1.9L96.04142135623731,2.4L97.04142135623731,2.4L97.54142135623731,2.9z" stroke="none"/><path d="M19.5,3.1L19.5,2.9L41.95857864376269,2.9L42.95857864376269,1.9L44.04142135623731,1.9L45.07071067811866,2.9292893218813454L44.92928932188134,3.0707106781186546L43.95857864376269,2.1L43.04142135623731,2.1L42.04142135623731,3.1z" stroke="none"/><path d="M43.42928932188134,3.0707106781186546L43.57071067811866,2.9292893218813454L44.54142135623731,3.9L45.45857864376269,3.9L45.9,3.4585786437626904L45.9,2.5414213562373096L45.45857864376269,2.1L44.95857864376269,2.1L44.45857864376269,1.6L19.541421356237308,1.6L19.041421356237308,2.1L17.541421356237308,2.1L17.041421356237308,2.6L16.041421356237308,2.6L15.54142135623731,3.1L15,3.1L15,2.9L15.45857864376269,2.9L15.95857864376269,2.4L16.958578643762692,2.4L17.458578643762692,1.9L18.958578643762692,1.9L19.458578643762692,1.4L44.54142135623731,1.4L45.04142135623731,1.9L45.54142135623731,1.9L46.1,2.4585786437626904L46.1,3.5414213562373096L45.54142135623731,4.1L44.45857864376269,4.1z" stroke="none"/><path d="M10.570710678118655,4.570710678118655L10.429289321881345,4.429289321881345L12.45857864376269,2.4L12.95857864376269,2.4L13.45857864376269,1.9L13.95857864376269,1.9L14.45857864376269,1.4L18.458578643762692,1.4L18.958578643762692,0.9L45.54142135623731,0.9L46.6,1.9585786437626904L46.6,4.04142135623731L46.04142135623731,4.6L40.5,4.6L40.5,4.4L45.95857864376269,4.4L46.4,3.9585786437626904L46.4,2.0414213562373096L45.45857864376269,1.1L19.041421356237308,1.1L18.541421356237308,1.6L14.54142135623731,1.6L14.04142135623731,2.1L13.54142135623731,2.1L13.04142135623731,2.6L12.54142135623731,2.6z" stroke="none"/><path d="M60,11.9L60,12.1L57.54142135623731,12.1L56.54142135623731,13.1L56.04142135623731,13.1L55.54142135623731,13.6L32.95857864376269,13.6L32.45857864376269,13.1L31.958578643762692,13.1L31.458578643762692,12.6L30.458578643762692,12.6L29.929289321881345,12.070710678118655L30.070710678118655,11.929289321881345L30.541421356237308,12.4L31.541421356237308,12.4L32.04142135623731,12.9L32.54142135623731,12.9L33.04142135623731,13.4L55.45857864376269,13.4L55.95857864376269,12.9L56.45857864376269,12.9L57.45857864376269,11.9z" stroke="none"/><path d="M66,5.9L66,6.1L65.45857864376269,6.1L63.9,4.54142135623731L63.9,1.4585786437626904L64.45857864376269,0.9L96.04142135623731,0.9L96.54142135623731,1.4L99.04142135623731,1.4L100.1,2.4585786437626904L100.1,3.4585786437626904L101.6,4.95857864376269L101.6,6.54142135623731L101.04142135623731,7.1L98.54142135623731,7.1L98.04142135623731,7.6L97.5,7.6L97.5,7.4L97.95857864376269,7.4L98.45857864376269,6.9L100.95857864376269,6.9L101.4,6.45857864376269L101.4,5.04142135623731L99.9,3.5414213562373096L99.9,2.5414213562373096L98.95857864376269,1.6L96.45857864376269,1.6L95.95857864376269,1.1L64.54142135623731,1.1L64.1,1.5414213562373096L64.1,4.45857864376269L65.54142135623731,5.9z" stroke="none"/><path d="M101.92928932188134,10.429289321881345L102.07071067811866,10.570710678118655L100.6,12.04142135623731L100.6,13.04142135623731L100.04142135623731,13.6L69.45857864376269,13.6L68.95857864376269,13.1L68.45857864376269,13.1L67.42928932188134,12.070710678118655L67.57071067811866,11.929289321881345L68.54142135623731,12.9L69.04142135623731,12.9L69.54142135623731,13.4L99.95857864376269,13.4L100.4,12.95857864376269L100.4,11.95857864376269z" stroke="none"/><path d="M58.5,4.6L58.5,4.4L61.45857864376269,4.4L62.4,3.4585786437626904L62.4,2.5414213562373096L61.95857864376269,2.1L49.45857864376269,2.1L48.95857864376269,1.6L48.45857864376269,1.6L47.95857864376269,1.1L47.45857864376269,1.1L46.95857864376269,0.6L16.541421356237308,0.6L16.041421356237308,1.1L14.04142135623731,1.1L13.54142135623731,1.6L13.04142135623731,1.6L12.54142135623731,2.1L12.04142135623731,2.1L11.04142135623731,3.1L10.54142135623731,3.1L10.04142135623731,3.6L9.54142135623731,3.6L8.54142135623731,4.6L7.54142135623731,4.6L7.04142135623731,5.1L5.54142135623731,5.1L5.04142135623731,5.6L4.54142135623731,5.6L4.04142135623731,6.1L3.5414213562373096,6.1L1.6,8.04142135623731L1.6,9.95857864376269L2.0414213562373096,10.4L5.04142135623731,10.4L5.54142135623731,10.9L16.958578643762692,10.9L17.458578643762692,10.4L17.958578643762692,10.4L19.458578643762692,8.9L20.458578643762692,8.9L20.9,8.45857864376269L20.9,7.45857864376269L21.9,6.45857864376269L21.9,5.54142135623731L21.458578643762692,5.1L20.541421356237308,5.1L20.041421356237308,5.6L19.041421356237308,5.6L18.541421356237308,6.1L18,6.1L18,5.9L18.458578643762692,5.9L18.958578643762692,5.4L19.958578643762692,5.4L20.458578643762692,4.9L21.541421356237308,4.9L22.1,5.45857864376269L22.1,6.54142135623731L21.1,7.54142135623731L21.1,8.54142135623731L20.541421356237308,9.1L19.541421356237308,9.1L18.041421356237308,10.6L17.541421356237308,10.6L17.041421356237308,11.1L5.45857864376269,11.1L4.95857864376269,10.6L1.9585786437626904,10.6L1.4,10.04142135623731L1.4,7.95857864376269L3.4585786437626904,5.9L3.9585786437626904,5.9L4.45857864376269,5.4L4.95857864376269,5.4L5.45857864376269,4.9L6.95857864376269,4.9L7.45857864376269,4.4L8.45857864376269,4.4L9.45857864376269,3.4L9.95857864376269,3.4L10.45857864376269,2.9L10.95857864376269,2.9L11.95857864376269,1.9L12.45857864376269,1.9L12.95857864376269,1.4L13.45857864376269,1.4L13.95857864376269,0.9L15.95857864376269,0.9L16.458578643762692,0.4L47.04142135623731,0.4L47.54142135623731,0.9L48.04142135623731,0.9L48.54142135623731,1.4L49.04142135623731,1.4L49.54142135623731,1.9L62.04142135623731,1.9L62.6,2.4585786437626904L62.6,3.5414213562373096L61.54142135623731,4.6z" stroke="none"/><path d="M100.57071067811866,10.570710678118655L100.42928932188134,10.429289321881345L101.4,9.45857864376269L101.4,8.45857864376269L101.9,7.95857864376269L101.9,4.54142135623731L100.4,3.0414213562373096L100.4,2.0414213562373096L99.45857864376269,1.1L96.95857864376269,1.1L96.45857864376269,0.6L64.04142135623731,0.6L63.6,1.0414213562373096L63.6,3.5414213562373096L61.54142135623731,5.6L60.54142135623731,5.6L60.07071067811866,6.070710678118655L59.92928932188134,5.929289321881345L60.45857864376269,5.4L61.45857864376269,5.4L63.4,3.4585786437626904L63.4,0.9585786437626904L63.95857864376269,0.4L96.54142135623731,0.4L97.04142135623731,0.9L99.54142135623731,0.9L100.6,1.9585786437626904L100.6,2.9585786437626904L102.1,4.45857864376269L102.1,8.04142135623731L101.6,8.54142135623731L101.6,9.54142135623731z" stroke="none"/></svg>