<svg version="1.1" width="105" height="15" xmlns="http://www.w3.org/2000/svg"><path d="M24.458578643762692,8.4L24.958578643762692,7.9L25.458578643762692,7.9L25.958578643762692,7.4L28.458578643762692,7.4L28.958578643762692,6.9L30.458578643762692,6.9L30.958578643762692,6.4L38.04142135623731,6.4L38.54142135623731,6.9L42.04142135623731,6.9L42.54142135623731,7.4L43.5,7.4L43.5,7.6L42.45857864376269,7.6L41.95857864376269,7.1L38.45857864376269,7.1L37.95857864376269,6.6L31.041421356237308,6.6L30.541421356237308,7.1L29.041421356237308,7.1L28.541421356237308,7.6L26.041421356237308,7.6L25.541421356237308,8.1L25.041421356237308,8.1L24.541421356237308,8.6L22.6,8.6L22.6,9.04142135623731L22.041421356237308,9.6L3.9585786437626904,9.6L3.4585786437626904,9.1L3,9.1L3,8.9L3.5414213562373096,8.9L4.04142135623731,9.4L21.958578643762692,9.4L22.4,8.95857864376269L22.4,8.6L22.041421356237308,8.6L21.541421356237308,9.1L21,9.1L21,8.9L21.458578643762692,8.9L21.958578643762692,8.4z" stroke="none"/><path d="M71.45857864376269,4.4L72.45857864376269,3.4L74.95857864376269,3.4L75.45857864376269,2.9L76.5,2.9L76.5,3.1L75.54142135623731,3.1L75.04142135623731,3.6L72.54142135623731,3.6L71.54142135623731,4.6L59.1,4.6L59.1,5.04142135623731L58.54142135623731,5.6L58.04142135623731,5.6L57.04142135623731,6.6L50.45857864376269,6.6L49.95857864376269,6.1L49.45857864376269,6.1L47.92928932188134,4.570710678118655L48.07071067811866,4.429289321881345L49.54142135623731,5.9L50.04142135623731,5.9L50.54142135623731,6.4L56.95857864376269,6.4L57.95857864376269,5.4L58.45857864376269,5.4L58.9,4.95857864376269L58.9,4.6L58.54142135623731,4.6L58.04142135623731,5.1L57.54142135623731,5.1L57.04142135623731,5.6L56.54142135623731,5.6L56.04142135623731,6.1L52.5,6.1L52.5,5.9L55.95857864376269,5.9L56.45857864376269,5.4L56.95857864376269,5.4L57.45857864376269,4.9L57.95857864376269,4.9L58.45857864376269,4.4z" stroke="none"/><path d="M47.4,9.4L47.4,9.04142135623731L46.95857864376269,8.6L38.95857864376269,8.6L37.95857864376269,7.6L37.5,7.6L37.5,7.4L38.04142135623731,7.4L39.04142135623731,8.4L47.04142135623731,8.4L47.6,8.95857864376269L47.6,9.4L48.54142135623731,9.4L49.04142135623731,9.9L55.95857864376269,9.9L56.45857864376269,9.4L62.54142135623731,9.4L63.04142135623731,9.9L65.04142135623731,9.9L65.54142135623731,10.4L66,10.4L66,10.6L65.45857864376269,10.6L64.95857864376269,10.1L62.95857864376269,10.1L62.45857864376269,9.6L56.54142135623731,9.6L56.04142135623731,10.1L48.95857864376269,10.1L48.45857864376269,9.6L40.04142135623731,9.6L39.07071067811866,10.570710678118655L38.92928932188134,10.429289321881345L39.95857864376269,9.4z" stroke="none"/><path d="M67.95857864376269,9.9L68.92928932188134,8.929289321881345L69.07071067811866,9.070710678118655L68.24142135623731,9.9L91.04142135623731,9.9L92.04142135623731,10.9L92.54142135623731,10.9L94.04142135623731,12.4L96.54142135623731,12.4L97.04142135623731,12.9L97.95857864376269,12.9L98.4,12.45857864376269L98.4,11.54142135623731L97.42928932188134,10.570710678118655L97.57071067811866,10.429289321881345L98.6,11.45857864376269L98.6,12.54142135623731L98.04142135623731,13.1L96.95857864376269,13.1L96.45857864376269,12.6L93.95857864376269,12.6L92.45857864376269,11.1L91.95857864376269,11.1L90.95857864376269,10.1L68.1,10.1L68.1,10.54142135623731L67.54142135623731,11.1L67.04142135623731,11.1L66.54142135623731,11.6L52.04142135623731,11.6L51.54142135623731,12.1L51,12.1L51,11.9L51.45857864376269,11.9L51.95857864376269,11.4L66.45857864376269,11.4L66.95857864376269,10.9L67.45857864376269,10.9L67.9,10.45857864376269L67.9,10.1L67.45857864376269,10.1L66.95857864376269,9.6L66.45857864376269,9.6L64.95857864376269,8.1L64.04142135623731,8.1L63.54142135623731,8.6L57.95857864376269,8.6L56.92928932188134,7.570710678118655L57.07071067811866,7.429289321881345L58.04142135623731,8.4L63.45857864376269,8.4L63.95857864376269,7.9L65.04142135623731,7.9L66.54142135623731,9.4L67.04142135623731,9.4L67.54142135623731,9.9z" stroke="none"/><path d="M76.9,7.9L76.9,7.54142135623731L76.45857864376269,7.1L66.54142135623731,7.1L66.04142135623731,7.6L63,7.6L63,7.4L65.95857864376269,7.4L66.45857864376269,6.9L76.54142135623731,6.9L77.1,7.45857864376269L77.1,7.9L78.54142135623731,7.9L79.04142135623731,8.4L91.54142135623731,8.4L92.04142135623731,8.9L92.54142135623731,8.9L93.54142135623731,9.9L94.54142135623731,9.9L96.54142135623731,11.9L97.5,11.9L97.5,12.1L96.45857864376269,12.1L94.45857864376269,10.1L93.45857864376269,10.1L92.45857864376269,9.1L91.95857864376269,9.1L91.45857864376269,8.6L78.95857864376269,8.6L78.45857864376269,8.1L77.24142135623731,8.1L78.07071067811866,8.929289321881345L77.92928932188134,9.070710678118655L76.95857864376269,8.1L73.45857864376269,8.1L72.95857864376269,7.6L72,7.6L72,7.4L73.04142135623731,7.4L73.54142135623731,7.9z" stroke="none"/><path d="M21.9,6.9L21.9,6.45857864376269L22.458578643762692,5.9L22.958578643762692,5.9L23.958578643762692,4.9L28.458578643762692,4.9L28.958578643762692,4.4L30,4.4L30,4.6L29.041421356237308,4.6L28.541421356237308,5.1L24.041421356237308,5.1L23.041421356237308,6.1L22.541421356237308,6.1L22.1,6.54142135623731L22.1,6.9L23.541421356237308,6.9L24.070710678118655,7.429289321881345L23.929289321881345,7.570710678118655L23.458578643762692,7.1L22.1,7.1L22.1,7.54142135623731L21.541421356237308,8.1L5.45857864376269,8.1L4.95857864376269,7.6L4.5,7.6L4.5,7.4L5.04142135623731,7.4L5.54142135623731,7.9L21.458578643762692,7.9L21.9,7.45857864376269L21.9,7.1L4.54142135623731,7.1L3.5414213562373096,8.1L2.5414213562373096,8.1L2.1,8.54142135623731L2.1,9.45857864376269L2.5414213562373096,9.9L24.958578643762692,9.9L25.458578643762692,9.4L28.958578643762692,9.4L29.458578643762692,8.9L30,8.9L30,9.1L29.541421356237308,9.1L29.041421356237308,9.6L25.541421356237308,9.6L25.041421356237308,10.1L2.4585786437626904,10.1L1.9,9.54142135623731L1.9,8.45857864376269L2.4585786437626904,7.9L3.4585786437626904,7.9L4.45857864376269,6.9z" stroke="none"/><path d="M51,3.1L51,2.9L52.5,2.9L52.5,3.1z" stroke="none"/><path d="M97.5,6.1L97.5,5.9L100.5,5.9L100.5,6.1z" stroke="none"/><path d="M46.42928932188134,4.570710678118655L46.57071067811866,4.429289321881345L49.1,6.95857864376269L49.1,8.45857864376269L49.57071067811866,8.929289321881345L49.42928932188134,9.070710678118655L48.9,8.54142135623731L48.9,7.04142135623731z" stroke="none"/><path d="M100.5,10.4L100.5,10.6L99.45857864376269,10.6L98.95857864376269,10.1L98.45857864376269,10.1L97.95857864376269,9.6L97.04142135623731,9.6L96.54142135623731,10.1L95.45857864376269,10.1L94.42928932188134,9.070710678118655L94.57071067811866,8.929289321881345L95.54142135623731,9.9L96.45857864376269,9.9L96.95857864376269,9.4L98.04142135623731,9.4L98.54142135623731,9.9L99.04142135623731,9.9L99.54142135623731,10.4z" stroke="none"/><path d="M90,2.9L90,3.1L89.54142135623731,3.1L89.04142135623731,3.6L88.04142135623731,3.6L87.04142135623731,4.6L84,4.6L84,4.4L86.95857864376269,4.4L87.95857864376269,3.4L88.95857864376269,3.4L89.45857864376269,2.9z" stroke="none"/><path d="M70.5,3.1L70.5,2.9L74.45857864376269,2.9L74.95857864376269,2.4L75.45857864376269,2.4L75.95857864376269,1.9L77.04142135623731,1.9L77.6,2.4585786437626904L77.6,3.5414213562373096L76.57071067811866,4.570710678118655L76.42928932188134,4.429289321881345L77.4,3.4585786437626904L77.4,2.5414213562373096L76.95857864376269,2.1L76.04142135623731,2.1L75.54142135623731,2.6L75.04142135623731,2.6L74.54142135623731,3.1z" stroke="none"/><path d="M7.5,3.1L7.5,2.9L18,2.9L18,3.1z" stroke="none"/><path d="M81,11.9L81,12.1L70.5,12.1L70.5,11.9z" stroke="none"/><path d="M52.5,7.6L52.5,7.4L55.54142135623731,7.4L56.54142135623731,8.4L57.04142135623731,8.4L57.54142135623731,8.9L64.5,8.9L64.5,9.1L57.45857864376269,9.1L56.95857864376269,8.6L56.45857864376269,8.6L55.45857864376269,7.6z" stroke="none"/><path d="M36,4.6L36,4.4L44.95857864376269,4.4L45.95857864376269,3.4L48.95857864376269,3.4L49.42928932188134,2.9292893218813454L49.57071067811866,3.0707106781186546L49.04142135623731,3.6L46.04142135623731,3.6L45.04142135623731,4.6z" stroke="none"/><path d="M55.57071067811866,4.429289321881345L55.42928932188134,4.570710678118655L52.95857864376269,2.1L44.04142135623731,2.1L43.54142135623731,2.6L42.54142135623731,2.6L42.07071067811866,3.0707106781186546L41.92928932188134,2.9292893218813454L42.45857864376269,2.4L43.45857864376269,2.4L43.95857864376269,1.9L53.04142135623731,1.9z" stroke="none"/><path d="M93,2.9L93,3.1L92.54142135623731,3.1L92.04142135623731,3.6L91.54142135623731,3.6L91.04142135623731,4.1L90.54142135623731,4.1L90.04142135623731,4.6L88.54142135623731,4.6L88.04142135623731,5.1L85.54142135623731,5.1L85.04142135623731,5.6L81.54142135623731,5.6L79.57071067811866,7.570710678118655L79.42928932188134,7.429289321881345L81.45857864376269,5.4L84.95857864376269,5.4L85.45857864376269,4.9L87.95857864376269,4.9L88.45857864376269,4.4L89.95857864376269,4.4L90.45857864376269,3.9L90.95857864376269,3.9L91.45857864376269,3.4L91.95857864376269,3.4L92.45857864376269,2.9z" stroke="none"/><path d="M69,6.1L69,5.9L79.45857864376269,5.9L80.45857864376269,4.9L81.45857864376269,4.9L83.45857864376269,2.9L84,2.9L84,3.1L83.54142135623731,3.1L81.54142135623731,5.1L80.54142135623731,5.1L79.54142135623731,6.1z" stroke="none"/><path d="M42,5.9L42,6.1L25.5,6.1L25.5,5.9z" stroke="none"/><path d="M37.5,2.9L37.5,3.1L19.5,3.1L19.5,2.9z" stroke="none"/><path d="M93.1,7.5L92.9,7.5L92.9,4.45857864376269L93.9,3.4585786437626904L93.9,2.5414213562373096L93.45857864376269,2.1L82.54142135623731,2.1L80.54142135623731,4.1L80.04142135623731,4.1L79.54142135623731,4.6L79.04142135623731,4.6L78.54142135623731,5.1L78.04142135623731,5.1L77.54142135623731,5.6L75.95857864376269,5.6L74.92928932188134,4.570710678118655L75.07071067811866,4.429289321881345L76.04142135623731,5.4L77.45857864376269,5.4L77.95857864376269,4.9L78.45857864376269,4.9L78.95857864376269,4.4L79.45857864376269,4.4L79.95857864376269,3.9L80.45857864376269,3.9L82.45857864376269,1.9L93.54142135623731,1.9L94.1,2.4585786437626904L94.1,3.5414213562373096L93.1,4.54142135623731z" stroke="none"/><path d="M31.4,7.5L31.6,7.5L31.6,9.04142135623731L30.541421356237308,10.1L26.041421356237308,10.1L25.541421356237308,10.6L1.9585786437626904,10.6L1.4,10.04142135623731L1.4,7.95857864376269L1.9585786437626904,7.4L2.9585786437626904,7.4L3.9585786437626904,6.4L6.45857864376269,6.4L7.95857864376269,4.9L8.45857864376269,4.9L8.929289321881345,4.429289321881345L9.070710678118655,4.570710678118655L8.54142135623731,5.1L8.04142135623731,5.1L6.54142135623731,6.6L4.04142135623731,6.6L3.0414213562373096,7.6L2.0414213562373096,7.6L1.6,8.04142135623731L1.6,9.95857864376269L2.0414213562373096,10.4L25.458578643762692,10.4L25.958578643762692,9.9L30.458578643762692,9.9L31.4,8.95857864376269z" stroke="none"/><path d="M13.5,4.4L13.5,4.6L10.45857864376269,4.6L9.45857864376269,3.6L8.54142135623731,3.6L7.04142135623731,5.1L5.54142135623731,5.1L4.54142135623731,6.1L3.5414213562373096,6.1L2.5414213562373096,7.1L1.5414213562373096,7.1L1.1,7.54142135623731L1.1,10.45857864376269L1.5414213562373096,10.9L30.458578643762692,10.9L30.958578643762692,10.4L31.958578643762692,10.4L32.95857864376269,9.4L35.45857864376269,9.4L35.92928932188134,8.929289321881345L36.07071067811866,9.070710678118655L35.54142135623731,9.6L33.04142135623731,9.6L32.04142135623731,10.6L31.041421356237308,10.6L30.541421356237308,11.1L1.4585786437626904,11.1L0.9,10.54142135623731L0.9,7.45857864376269L1.4585786437626904,6.9L2.4585786437626904,6.9L3.4585786437626904,5.9L4.45857864376269,5.9L5.45857864376269,4.9L6.95857864376269,4.9L8.45857864376269,3.4L9.54142135623731,3.4L10.54142135623731,4.4z" stroke="none"/><path d="M22.5,4.6L22.5,4.4L26.958578643762692,4.4L27.458578643762692,3.9L28.958578643762692,3.9L29.458578643762692,3.4L31.541421356237308,3.4L32.54142135623731,4.4L33.54142135623731,4.4L34.04142135623731,4.9L35.04142135623731,4.9L35.54142135623731,5.4L39.95857864376269,5.4L40.45857864376269,4.9L42.54142135623731,4.9L43.04142135623731,5.4L43.54142135623731,5.4L44.04142135623731,5.9L44.54142135623731,5.9L45.04142135623731,6.4L46.54142135623731,6.4L47.04142135623731,6.9L47.54142135623731,6.9L48.07071067811866,7.429289321881345L47.92928932188134,7.570710678118655L47.45857864376269,7.1L46.95857864376269,7.1L46.45857864376269,6.6L44.95857864376269,6.6L44.45857864376269,6.1L43.95857864376269,6.1L43.45857864376269,5.6L42.95857864376269,5.6L42.45857864376269,5.1L40.54142135623731,5.1L40.04142135623731,5.6L35.45857864376269,5.6L34.95857864376269,5.1L33.95857864376269,5.1L33.45857864376269,4.6L32.45857864376269,4.6L31.458578643762692,3.6L29.541421356237308,3.6L29.041421356237308,4.1L27.541421356237308,4.1L27.041421356237308,4.6z" stroke="none"/><path d="M57,10.4L57,10.6L51.54142135623731,10.6L51.04142135623731,11.1L50.54142135623731,11.1L50.1,11.54142135623731L50.1,12.45857864376269L50.54142135623731,12.9L83.95857864376269,12.9L84.45857864376269,12.4L84.95857864376269,12.4L85.42928932188134,11.929289321881345L85.57071067811866,12.070710678118655L85.04142135623731,12.6L84.54142135623731,12.6L84.04142135623731,13.1L50.45857864376269,13.1L49.9,12.54142135623731L49.9,11.45857864376269L50.45857864376269,10.9L50.95857864376269,10.9L51.45857864376269,10.4z" stroke="none"/><path d="M61.5,3.1L61.5,2.9L68.95857864376269,2.9L69.95857864376269,1.9L74.95857864376269,1.9L75.45857864376269,1.4L94.04142135623731,1.4L94.6,1.9585786437626904L94.6,7.54142135623731L93.54142135623731,8.6L92.45857864376269,8.6L91.95857864376269,8.1L90.95857864376269,8.1L90.45857864376269,7.6L90,7.6L90,7.4L90.54142135623731,7.4L91.04142135623731,7.9L92.04142135623731,7.9L92.54142135623731,8.4L93.45857864376269,8.4L94.4,7.45857864376269L94.4,2.0414213562373096L93.95857864376269,1.6L75.54142135623731,1.6L75.04142135623731,2.1L70.04142135623731,2.1L69.04142135623731,3.1z" stroke="none"/><path d="M6,12.1L6,11.9L37.45857864376269,11.9L37.95857864376269,11.4L39.45857864376269,11.4L39.95857864376269,10.9L41.95857864376269,10.9L42.45857864376269,10.4L43.5,10.4L43.5,10.6L42.54142135623731,10.6L42.04142135623731,11.1L40.04142135623731,11.1L39.54142135623731,11.6L38.04142135623731,11.6L37.54142135623731,12.1z" stroke="none"/><path d="M99.07071067811866,4.429289321881345L98.92928932188134,4.570710678118655L96.95857864376269,2.6L96.45857864376269,2.6L95.95857864376269,2.1L95.45857864376269,2.1L94.45857864376269,1.1L59.04142135623731,1.1L57.54142135623731,2.6L56.04142135623731,2.6L55.57071067811866,3.0707106781186546L55.42928932188134,2.9292893218813454L55.95857864376269,2.4L57.45857864376269,2.4L58.95857864376269,0.9L94.54142135623731,0.9L95.54142135623731,1.9L96.04142135623731,1.9L96.54142135623731,2.4L97.04142135623731,2.4z" stroke="none"/><path d="M96,9.1L96,8.9L99.04142135623731,8.9L99.54142135623731,9.4L101.04142135623731,9.4L101.6,9.95857864376269L101.6,11.04142135623731L100.54142135623731,12.1L100.04142135623731,12.1L98.54142135623731,13.6L49.95857864376269,13.6L46.95857864376269,10.6L46.5,10.6L46.5,10.4L47.04142135623731,10.4L50.04142135623731,13.4L98.45857864376269,13.4L99.95857864376269,11.9L100.45857864376269,11.9L101.4,10.95857864376269L101.4,10.04142135623731L100.95857864376269,9.6L99.45857864376269,9.6L98.95857864376269,9.1z" stroke="none"/><circle cx="21" cy="9" r="0.25" stroke-width="0" fill="#000" /><circle cx="3" cy="9" r="0.25" stroke-width="0" fill="#000" /><circle cx="43.5" cy="7.5" r="0.25" stroke-width="0" fill="#000" /><circle cx="52.5" cy="6" r="0.25" stroke-width="0" fill="#000" /><circle cx="48" cy="4.5" r="0.25" stroke-width="0" fill="#000" /><circle cx="76.5" cy="3" r="0.25" stroke-width="0" fill="#000" /><circle cx="39" cy="10.5" r="0.25" stroke-width="0" fill="#000" /><circle cx="37.5" cy="7.5" r="0.25" stroke-width="0" fill="#000" /><circle cx="66" cy="10.5" r="0.25" stroke-width="0" fill="#000" /><circle cx="69" cy="9" r="0.25" stroke-width="0" fill="#000" /><circle cx="57" cy="7.5" r="0.25" stroke-width="0" fill="#000" /><circle cx="51" cy="12" r="0.25" stroke-width="0" fill="#000" /><circle cx="97.5" cy="10.5" r="0.25" stroke-width="0" fill="#000" /><circle cx="78" cy="9" r="0.25" stroke-width="0" fill="#000" /><circle cx="72" cy="7.5" r="0.25" stroke-width="0" fill="#000" /><circle cx="63" cy="7.5" r="0.25" stroke-width="0" fill="#000" /><circle cx="97.5" cy="12" r="0.25" stroke-width="0" fill="#000" /><circle cx="24" cy="7.5" r="0.25" stroke-width="0" fill="#000" /><circle cx="30" cy="9" r="0.25" stroke-width="0" fill="#000" /><circle cx="30" cy="4.5" r="0.25" stroke-width="0" fill="#000" /><circle cx="4.5" cy="7.5" r="0.25" stroke-width="0" fill="#000" /><circle cx="51" cy="3" r="0.25" stroke-width="0" fill="#000" /><circle cx="52.5" cy="3" r="0.25" stroke-width="0" fill="#000" /><circle cx="97.5" cy="6" r="0.25" stroke-width="0" fill="#000" /><circle cx="100.5" cy="6" r="0.25" stroke-width="0" fill="#000" /><circle cx="46.5" cy="4.5" r="0.25" stroke-width="0" fill="#000" /><circle cx="49.5" cy="9" r="0.25" stroke-width="0" fill="#000" /><circle cx="100.5" cy="10.5" r="0.25" stroke-width="0" fill="#000" /><circle cx="94.5" cy="9" r="0.25" stroke-width="0" fill="#000" /><circle cx="90" cy="3" r="0.25" stroke-width="0" fill="#000" /><circle cx="84" cy="4.5" r="0.25" stroke-width="0" fill="#000" /><circle cx="70.5" cy="3" r="0.25" stroke-width="0" fill="#000" /><circle cx="76.5" cy="4.5" r="0.25" stroke-width="0" fill="#000" /><circle cx="7.5" cy="3" r="0.25" stroke-width="0" fill="#000" /><circle cx="18" cy="3" r="0.25" stroke-width="0" fill="#000" /><circle cx="81" cy="12" r="0.25" stroke-width="0" fill="#000" /><circle cx="70.5" cy="12" r="0.25" stroke-width="0" fill="#000" /><circle cx="52.5" cy="7.5" r="0.25" stroke-width="0" fill="#000" /><circle cx="64.5" cy="9" r="0.25" stroke-width="0" fill="#000" /><circle cx="36" cy="4.5" r="0.25" stroke-width="0" fill="#000" /><circle cx="49.5" cy="3" r="0.25" stroke-width="0" fill="#000" /><circle cx="55.5" cy="4.5" r="0.25" stroke-width="0" fill="#000" /><circle cx="42" cy="3" r="0.25" stroke-width="0" fill="#000" /><circle cx="93" cy="3" r="0.25" stroke-width="0" fill="#000" /><circle cx="79.5" cy="7.5" r="0.25" stroke-width="0" fill="#000" /><circle cx="69" cy="6" r="0.25" stroke-width="0" fill="#000" /><circle cx="84" cy="3" r="0.25" stroke-width="0" fill="#000" /><circle cx="42" cy="6" r="0.25" stroke-width="0" fill="#000" /><circle cx="25.5" cy="6" r="0.25" stroke-width="0" fill="#000" /><circle cx="37.5" cy="3" r="0.25" stroke-width="0" fill="#000" /><circle cx="19.5" cy="3" r="0.25" stroke-width="0" fill="#000" /><circle cx="93" cy="7.5" r="0.25" stroke-width="0" fill="#000" /><circle cx="75" cy="4.5" r="0.25" stroke-width="0" fill="#000" /><circle cx="31.5" cy="7.5" r="0.25" stroke-width="0" fill="#000" /><circle cx="9" cy="4.5" r="0.25" stroke-width="0" fill="#000" /><circle cx="13.5" cy="4.5" r="0.25" stroke-width="0" fill="#000" /><circle cx="36" cy="9" r="0.25" stroke-width="0" fill="#000" /><circle cx="22.5" cy="4.5" r="0.25" stroke-width="0" fill="#000" /><circle cx="48" cy="7.5" r="0.25" stroke-width="0" fill="#000" /><circle cx="57" cy="10.5" r="0.25" stroke-width="0" fill="#000" /><circle cx="85.5" cy="12" r="0.25" stroke-width="0" fill="#000" /><circle cx="61.5" cy="3" r="0.25" stroke-width="0" fill="#000" /><circle cx="90" cy="7.5" r="0.25" stroke-width="0" fill="#000" /><circle cx="6" cy="12" r="0.25" stroke-width="0" fill="#000" /><circle cx="43.5" cy="10.5" r="0.25" stroke-width="0" fill="#000" /><circle cx="99" cy="4.5" r="0.25" stroke-width="0" fill="#000" /><circle cx="55.5" cy="3" r="0.25" stroke-width="0" fill="#000" /><circle cx="96" cy="9" r="0.25" stroke-width="0" fill="#000" /><circle cx="46.5" cy="10.5" r="0.25" stroke-width="0" fill="#000" /><rect x="0" y="0" width="105" height="15" stroke-width="0.4" stroke="#000" fill="none" /></svg>