<svg version="1.1" width="105" height="15" xmlns="http://www.w3.org/2000/svg"><path d="M22.958578643762692,1.9L24.041421356237308,1.9L25.541421356237308,3.4L26.041421356237308,3.4L28.041421356237308,5.4L28.541421356237308,5.4L29.041421356237308,5.9L30,5.9L30,6.1L28.958578643762692,6.1L28.458578643762692,5.6L27.958578643762692,5.6L25.958578643762692,3.6L25.458578643762692,3.6L23.958578643762692,2.1L23.24142135623731,2.1L24.070710678118655,2.9292893218813454L23.929289321881345,3.0707106781186546L23,2.1414213562373097L22.6,2.5414213562373096L22.6,3.0414213562373096L21.070710678118655,4.570710678118655L20.929289321881345,4.429289321881345L22.4,2.9585786437626904L22.4,2.4585786437626904z" stroke="none"/><path d="M63.04142135623731,4.4L63.54142135623731,4.9L65.04142135623731,4.9L65.54142135623731,5.4L68.04142135623731,5.4L68.54142135623731,5.9L73.04142135623731,5.9L74.54142135623731,7.4L75,7.4L75,7.6L74.45857864376269,7.6L72.95857864376269,6.1L68.45857864376269,6.1L67.95857864376269,5.6L65.45857864376269,5.6L64.95857864376269,5.1L63.45857864376269,5.1L62.95857864376269,4.6L62.1,4.6L62.1,5.04142135623731L60.1,7.04142135623731L60.1,7.5L59.9,7.5L59.9,6.95857864376269L61.9,4.95857864376269L61.9,4.6L57,4.6L57,4.4z" stroke="none"/><path d="M90.54142135623731,2.4L91.04142135623731,2.9L93,2.9L93,3.1L90.95857864376269,3.1L90.45857864376269,2.6L89.1,2.6L89.1,2.9585786437626904L89.54142135623731,3.4L93.54142135623731,3.4L94.04142135623731,3.9L94.95857864376269,3.9L95.45857864376269,3.4L97.54142135623731,3.4L98.04142135623731,3.9L98.54142135623731,3.9L99.07071067811866,4.429289321881345L98.92928932188134,4.570710678118655L98.45857864376269,4.1L97.95857864376269,4.1L97.45857864376269,3.6L95.54142135623731,3.6L95.04142135623731,4.1L93.95857864376269,4.1L93.45857864376269,3.6L89.45857864376269,3.6L88.9,3.0414213562373096L88.9,2.6L88.54142135623731,2.6L86.54142135623731,4.6L85.54142135623731,4.6L85.04142135623731,5.1L82.04142135623731,5.1L81.07071067811866,6.070710678118655L80.92928932188134,5.929289321881345L81.95857864376269,4.9L84.95857864376269,4.9L85.45857864376269,4.4L86.45857864376269,4.4L88.45857864376269,2.4z" stroke="none"/><path d="M34.45857864376269,8.4L35.45857864376269,7.4L36,7.4L36,7.6L35.54142135623731,7.6L34.54142135623731,8.6L18.74142135623731,8.6L20.541421356237308,10.4L22.041421356237308,10.4L22.541421356237308,10.9L23.041421356237308,10.9L23.541421356237308,11.4L25.041421356237308,11.4L25.541421356237308,11.9L27,11.9L27,12.1L25.458578643762692,12.1L24.958578643762692,11.6L23.458578643762692,11.6L22.958578643762692,11.1L22.458578643762692,11.1L21.958578643762692,10.6L20.458578643762692,10.6L18.5,8.64142135623731L16.541421356237308,10.6L15.54142135623731,10.6L15.04142135623731,11.1L14.54142135623731,11.1L13.570710678118655,12.070710678118655L13.429289321881345,11.929289321881345L14.45857864376269,10.9L14.95857864376269,10.9L15.45857864376269,10.4L16.458578643762692,10.4L18.25857864376269,8.6L16.041421356237308,8.6L15.54142135623731,9.1L15.04142135623731,9.1L14.54142135623731,9.6L11.54142135623731,9.6L11.04142135623731,10.1L6.54142135623731,10.1L6.070710678118655,10.570710678118655L5.929289321881345,10.429289321881345L6.45857864376269,9.9L10.95857864376269,9.9L11.45857864376269,9.4L14.45857864376269,9.4L14.95857864376269,8.9L15.45857864376269,8.9L15.95857864376269,8.4z" stroke="none"/><path d="M71.54142135623731,6.9L72.04142135623731,7.4L72.54142135623731,7.4L73.54142135623731,8.4L74.54142135623731,8.4L75.54142135623731,9.4L80.54142135623731,9.4L81.04142135623731,9.9L81.54142135623731,9.9L82.04142135623731,10.4L82.5,10.4L82.5,10.6L81.95857864376269,10.6L81.45857864376269,10.1L80.95857864376269,10.1L80.45857864376269,9.6L75.45857864376269,9.6L74.45857864376269,8.6L73.45857864376269,8.6L72.45857864376269,7.6L71.95857864376269,7.6L71.45857864376269,7.1L69.1,7.1L69.1,7.45857864376269L69.54142135623731,7.9L72.04142135623731,7.9L73.04142135623731,8.9L73.54142135623731,8.9L74.04142135623731,9.4L74.54142135623731,9.4L75.04142135623731,9.9L79.04142135623731,9.9L80.04142135623731,10.9L80.54142135623731,10.9L81.04142135623731,11.4L82.45857864376269,11.4L82.9,10.95857864376269L82.9,9.45857864376269L84.4,7.95857864376269L84.4,7.45857864376269L85.4,6.45857864376269L85.4,6L85.6,6L85.6,6.54142135623731L84.6,7.54142135623731L84.6,8.04142135623731L83.1,9.54142135623731L83.1,11.04142135623731L82.54142135623731,11.6L80.95857864376269,11.6L80.45857864376269,11.1L79.95857864376269,11.1L78.95857864376269,10.1L74.95857864376269,10.1L74.45857864376269,9.6L73.95857864376269,9.6L73.45857864376269,9.1L72.95857864376269,9.1L71.95857864376269,8.1L69.45857864376269,8.1L68.9,7.54142135623731L68.9,7.24142135623731L68.54142135623731,7.6L67.54142135623731,7.6L66.54142135623731,8.6L65.54142135623731,8.6L64.04142135623731,10.1L63.54142135623731,10.1L63.04142135623731,10.6L60,10.6L60,10.4L62.95857864376269,10.4L63.45857864376269,9.9L63.95857864376269,9.9L65.45857864376269,8.4L66.45857864376269,8.4L67.45857864376269,7.4L68.45857864376269,7.4L68.75857864376269,7.1L66.95857864376269,7.1L66.45857864376269,6.6L65.54142135623731,6.6L65.04142135623731,7.1L64.04142135623731,7.1L63.04142135623731,8.1L62.04142135623731,8.1L61.54142135623731,8.6L57.54142135623731,8.6L57.07071067811866,9.070710678118655L56.92928932188134,8.929289321881345L57.45857864376269,8.4L61.45857864376269,8.4L61.95857864376269,7.9L62.95857864376269,7.9L63.95857864376269,6.9L64.95857864376269,6.9L65.45857864376269,6.4L66.54142135623731,6.4L67.04142135623731,6.9z" stroke="none"/><path d="M45.4,1.9L45.4,1.4585786437626904L45.95857864376269,0.9L66.54142135623731,0.9L67.04142135623731,1.4L68.04142135623731,1.4L68.54142135623731,1.9L69.04142135623731,1.9L69.54142135623731,2.4L70.04142135623731,2.4L70.57071067811866,2.9292893218813454L70.42928932188134,3.0707106781186546L69.95857864376269,2.6L69.45857864376269,2.6L68.95857864376269,2.1L68.45857864376269,2.1L67.95857864376269,1.6L66.95857864376269,1.6L66.45857864376269,1.1L46.04142135623731,1.1L45.6,1.5414213562373096L45.6,1.9L61.54142135623731,1.9L62.54142135623731,2.9L65.04142135623731,2.9L66.04142135623731,3.9L67.04142135623731,3.9L67.57071067811866,4.429289321881345L67.42928932188134,4.570710678118655L66.95857864376269,4.1L65.95857864376269,4.1L64.95857864376269,3.1L62.45857864376269,3.1L61.45857864376269,2.1L45.6,2.1L45.6,2.5414213562373096L44.54142135623731,3.6L44.04142135623731,3.6L43.04142135623731,4.6L41.04142135623731,4.6L40.54142135623731,5.1L38.04142135623731,5.1L37.54142135623731,5.6L37.04142135623731,5.6L36.04142135623731,6.6L35.54142135623731,6.6L35.04142135623731,7.1L24.541421356237308,7.1L24.041421356237308,7.6L21,7.6L21,7.4L23.958578643762692,7.4L24.458578643762692,6.9L34.95857864376269,6.9L35.45857864376269,6.4L35.95857864376269,6.4L36.95857864376269,5.4L37.45857864376269,5.4L37.95857864376269,4.9L40.45857864376269,4.9L40.95857864376269,4.4L42.95857864376269,4.4L43.95857864376269,3.4L44.45857864376269,3.4L45.4,2.4585786437626904L45.4,2.1L45.04142135623731,2.1L44.04142135623731,3.1L43.54142135623731,3.1L42.54142135623731,4.1L37.54142135623731,4.1L37.04142135623731,4.6L36.04142135623731,4.6L34.57071067811866,6.070710678118655L34.42928932188134,5.929289321881345L35.95857864376269,4.4L36.95857864376269,4.4L37.45857864376269,3.9L42.45857864376269,3.9L43.45857864376269,2.9L43.95857864376269,2.9L44.95857864376269,1.9z" stroke="none"/><path d="M11.929289321881345,7.429289321881345L12.070710678118655,7.570710678118655L10.570710678118655,9.070710678118655L10.429289321881345,8.929289321881345z" stroke="none"/><path d="M3.0707106781186546,8.929289321881345L2.9292893218813454,9.070710678118655L1.9,8.04142135623731L1.9,6.95857864376269L2.9292893218813454,5.929289321881345L3.0707106781186546,6.070710678118655L2.1,7.04142135623731L2.1,7.95857864376269z" stroke="none"/><path d="M14.929289321881345,11.929289321881345L15.070710678118655,12.070710678118655L14.04142135623731,13.1L12.95857864376269,13.1L11.929289321881345,12.070710678118655L12.070710678118655,11.929289321881345L13.04142135623731,12.9L13.95857864376269,12.9z" stroke="none"/><path d="M53.92928932188134,7.429289321881345L54.07071067811866,7.570710678118655L53.54142135623731,8.1L52.54142135623731,8.1L51.54142135623731,9.1L51,9.1L51,8.9L51.45857864376269,8.9L52.45857864376269,7.9L53.45857864376269,7.9z" stroke="none"/><path d="M102,4.4L102,4.6L100.54142135623731,4.6L99.04142135623731,6.1L97.5,6.1L97.5,5.9L98.95857864376269,5.9L100.45857864376269,4.4z" stroke="none"/><path d="M46.5,7.4L46.5,7.6L46.04142135623731,7.6L45.04142135623731,8.6L44.54142135623731,8.6L44.04142135623731,9.1L42,9.1L42,8.9L43.95857864376269,8.9L44.45857864376269,8.4L44.95857864376269,8.4L45.95857864376269,7.4z" stroke="none"/><path d="M91.57071067811866,7.570710678118655L91.42928932188134,7.429289321881345L93.95857864376269,4.9L94.45857864376269,4.9L94.95857864376269,4.4L96,4.4L96,4.6L95.04142135623731,4.6L94.54142135623731,5.1L94.04142135623731,5.1z" stroke="none"/><path d="M53.92928932188134,4.429289321881345L54.07071067811866,4.570710678118655L49.57071067811866,9.070710678118655L49.42928932188134,8.929289321881345z" stroke="none"/><path d="M101.92928932188134,5.929289321881345L102.07071067811866,6.070710678118655L101.54142135623731,6.6L98.54142135623731,6.6L98.04142135623731,7.1L95.95857864376269,7.1L95.45857864376269,6.6L94.95857864376269,6.6L94.42928932188134,6.070710678118655L94.57071067811866,5.929289321881345L95.04142135623731,6.4L95.54142135623731,6.4L96.04142135623731,6.9L97.95857864376269,6.9L98.45857864376269,6.4L101.45857864376269,6.4z" stroke="none"/><path d="M7.570710678118655,3.0707106781186546L7.429289321881345,2.9292893218813454L8.45857864376269,1.9L14.04142135623731,1.9L15.070710678118655,2.9292893218813454L14.929289321881345,3.0707106781186546L13.95857864376269,2.1L8.54142135623731,2.1z" stroke="none"/><path d="M82.42928932188134,5.929289321881345L82.57071067811866,6.070710678118655L81.54142135623731,7.1L77.45857864376269,7.1L74.92928932188134,4.570710678118655L75.07071067811866,4.429289321881345L77.54142135623731,6.9L81.45857864376269,6.9z" stroke="none"/><path d="M3.0707106781186546,7.570710678118655L2.9292893218813454,7.429289321881345L5.95857864376269,4.4L7.45857864376269,4.4L8.45857864376269,3.4L8.95857864376269,3.4L9.45857864376269,2.9L10.5,2.9L10.5,3.1L9.54142135623731,3.1L9.04142135623731,3.6L8.54142135623731,3.6L7.54142135623731,4.6L6.04142135623731,4.6z" stroke="none"/><path d="M88.5,12.1L88.5,11.9L100.5,11.9L100.5,12.1z" stroke="none"/><path d="M22.5,5.9L22.5,6.1L14.04142135623731,6.1L13.54142135623731,6.6L10.54142135623731,6.6L9.54142135623731,7.6L9,7.6L9,7.4L9.45857864376269,7.4L10.45857864376269,6.4L13.45857864376269,6.4L13.95857864376269,5.9z" stroke="none"/><path d="M25.5,10.6L25.5,10.4L40.5,10.4L40.5,10.6z" stroke="none"/><path d="M87,11.9L87,12.1L72.45857864376269,12.1L70.95857864376269,10.6L70.5,10.6L70.5,10.4L71.04142135623731,10.4L72.54142135623731,11.9z" stroke="none"/><path d="M49.42928932188134,5.929289321881345L49.57071067811866,6.070710678118655L47.04142135623731,8.6L46.04142135623731,8.6L45.54142135623731,9.1L45.04142135623731,9.1L43.54142135623731,10.6L42.54142135623731,10.6L42.04142135623731,11.1L41.54142135623731,11.1L41.04142135623731,11.6L29.041421356237308,11.6L27.541421356237308,13.1L17.041421356237308,13.1L16.541421356237308,13.6L7.45857864376269,13.6L4.9,11.04142135623731L4.9,9.95857864376269L8.45857864376269,6.4L8.95857864376269,6.4L9.45857864376269,5.9L12.45857864376269,5.9L12.95857864376269,5.4L13.45857864376269,5.4L14.45857864376269,4.4L15.45857864376269,4.4L16.458578643762692,3.4L19.958578643762692,3.4L20.458578643762692,2.9L20.958578643762692,2.9L22.458578643762692,1.4L24.541421356237308,1.4L25.541421356237308,2.4L26.041421356237308,2.4L26.541421356237308,2.9L29.041421356237308,2.9L30.041421356237308,3.9L31.041421356237308,3.9L31.570710678118655,4.429289321881345L31.429289321881345,4.570710678118655L30.958578643762692,4.1L29.958578643762692,4.1L28.958578643762692,3.1L26.458578643762692,3.1L25.958578643762692,2.6L25.458578643762692,2.6L24.458578643762692,1.6L22.541421356237308,1.6L21.041421356237308,3.1L20.541421356237308,3.1L20.041421356237308,3.6L16.541421356237308,3.6L15.54142135623731,4.6L14.54142135623731,4.6L13.54142135623731,5.6L13.04142135623731,5.6L12.54142135623731,6.1L9.54142135623731,6.1L9.04142135623731,6.6L8.54142135623731,6.6L5.1,10.04142135623731L5.1,10.95857864376269L7.54142135623731,13.4L16.458578643762692,13.4L16.958578643762692,12.9L27.458578643762692,12.9L28.958578643762692,11.4L40.95857864376269,11.4L41.45857864376269,10.9L41.95857864376269,10.9L42.45857864376269,10.4L43.45857864376269,10.4L44.95857864376269,8.9L45.45857864376269,8.9L45.95857864376269,8.4L46.95857864376269,8.4z" stroke="none"/><path d="M24.070710678118655,10.570710678118655L23.929289321881345,10.429289321881345L24.958578643762692,9.4L38.95857864376269,9.4L39.45857864376269,8.9L40.45857864376269,8.9L41.45857864376269,7.9L44.45857864376269,7.9L46.45857864376269,5.9L47.45857864376269,5.9L48.45857864376269,4.9L50.04142135623731,4.9L50.6,5.45857864376269L50.6,6.54142135623731L47.04142135623731,10.1L45.54142135623731,10.1L45.07071067811866,10.570710678118655L44.92928932188134,10.429289321881345L45.45857864376269,9.9L46.95857864376269,9.9L50.4,6.45857864376269L50.4,5.54142135623731L49.95857864376269,5.1L48.54142135623731,5.1L47.54142135623731,6.1L46.54142135623731,6.1L44.54142135623731,8.1L41.54142135623731,8.1L40.54142135623731,9.1L39.54142135623731,9.1L39.04142135623731,9.6L25.041421356237308,9.6z" stroke="none"/><path d="M66,7.4L66,7.6L64.54142135623731,7.6L63.04142135623731,9.1L60.04142135623731,9.1L59.1,10.04142135623731L59.1,10.95857864376269L59.54142135623731,11.4L69.04142135623731,11.4L69.54142135623731,11.9L71.54142135623731,11.9L72.04142135623731,12.4L83.54142135623731,12.4L84.04142135623731,12.9L100.95857864376269,12.9L101.4,12.45857864376269L101.4,11.54142135623731L100.95857864376269,11.1L94.45857864376269,11.1L92.95857864376269,9.6L92.45857864376269,9.6L91.95857864376269,9.1L88.5,9.1L88.5,8.9L92.04142135623731,8.9L92.54142135623731,9.4L93.04142135623731,9.4L94.54142135623731,10.9L101.04142135623731,10.9L101.6,11.45857864376269L101.6,12.54142135623731L101.04142135623731,13.1L83.95857864376269,13.1L83.45857864376269,12.6L71.95857864376269,12.6L71.45857864376269,12.1L69.45857864376269,12.1L68.95857864376269,11.6L59.45857864376269,11.6L58.9,11.04142135623731L58.9,9.95857864376269L59.95857864376269,8.9L62.95857864376269,8.9L64.45857864376269,7.4z" stroke="none"/><path d="M84.07071067811866,10.570710678118655L83.92928932188134,10.429289321881345L85.95857864376269,8.4L87.45857864376269,8.4L87.95857864376269,7.9L89.04142135623731,7.9L89.54142135623731,8.4L96.54142135623731,8.4L97.04142135623731,8.9L98.04142135623731,8.9L98.54142135623731,9.4L99.04142135623731,9.4L99.54142135623731,9.9L101.04142135623731,9.9L102.1,10.95857864376269L102.1,13.04142135623731L101.54142135623731,13.6L61.45857864376269,13.6L60.45857864376269,12.6L59.45857864376269,12.6L57.95857864376269,11.1L57.45857864376269,11.1L55.9,9.54142135623731L55.9,7.95857864376269L56.4,7.45857864376269L56.4,6.95857864376269L56.9,6.45857864376269L56.9,6L57.1,6L57.1,6.54142135623731L56.6,7.04142135623731L56.6,7.54142135623731L56.1,8.04142135623731L56.1,9.45857864376269L57.54142135623731,10.9L58.04142135623731,10.9L59.54142135623731,12.4L60.54142135623731,12.4L61.54142135623731,13.4L101.45857864376269,13.4L101.9,12.95857864376269L101.9,11.04142135623731L100.95857864376269,10.1L99.45857864376269,10.1L98.95857864376269,9.6L98.45857864376269,9.6L97.95857864376269,9.1L96.95857864376269,9.1L96.45857864376269,8.6L89.45857864376269,8.6L88.95857864376269,8.1L88.04142135623731,8.1L87.54142135623731,8.6L86.04142135623731,8.6z" stroke="none"/><path d="M33.07071067811866,2.9292893218813454L32.92928932188134,3.0707106781186546L31.958578643762692,2.1L25.958578643762692,2.1L24.958578643762692,1.1L9.04142135623731,1.1L8.54142135623731,1.6L6.54142135623731,1.6L5.04142135623731,3.1L4.5,3.1L4.5,2.9L4.95857864376269,2.9L6.45857864376269,1.4L8.45857864376269,1.4L8.95857864376269,0.9L25.041421356237308,0.9L26.041421356237308,1.9L32.04142135623731,1.9z" stroke="none"/><path d="M13.429289321881345,2.9292893218813454L13.570710678118655,3.0707106781186546L11.54142135623731,5.1L10.04142135623731,5.1L9.54142135623731,5.6L9.04142135623731,5.6L8.54142135623731,6.1L8.04142135623731,6.1L4.6,9.54142135623731L4.6,11.45857864376269L7.04142135623731,13.9L41.95857864376269,13.9L42.95857864376269,12.9L43.45857864376269,12.9L43.95857864376269,12.4L45.95857864376269,12.4L46.45857864376269,11.9L46.95857864376269,11.9L47.45857864376269,11.4L48.95857864376269,11.4L49.95857864376269,10.4L50.95857864376269,10.4L51.95857864376269,9.4L52.45857864376269,9.4L52.95857864376269,8.9L53.45857864376269,8.9L53.95857864376269,8.4L54.45857864376269,8.4L54.9,7.95857864376269L54.9,4.04142135623731L54.45857864376269,3.6L49.04142135623731,3.6L48.54142135623731,4.1L47.45857864376269,4.1L46.42928932188134,3.0707106781186546L46.57071067811866,2.9292893218813454L47.54142135623731,3.9L48.45857864376269,3.9L48.95857864376269,3.4L54.54142135623731,3.4L55.1,3.9585786437626904L55.1,8.04142135623731L54.54142135623731,8.6L54.04142135623731,8.6L53.54142135623731,9.1L53.04142135623731,9.1L52.54142135623731,9.6L52.04142135623731,9.6L51.04142135623731,10.6L50.04142135623731,10.6L49.04142135623731,11.6L47.54142135623731,11.6L47.04142135623731,12.1L46.54142135623731,12.1L46.04142135623731,12.6L44.04142135623731,12.6L43.54142135623731,13.1L43.04142135623731,13.1L42.04142135623731,14.1L6.95857864376269,14.1L4.4,11.54142135623731L4.4,9.45857864376269L7.95857864376269,5.9L8.45857864376269,5.9L8.95857864376269,5.4L9.45857864376269,5.4L9.95857864376269,4.9L11.45857864376269,4.9z" stroke="none"/><path d="M94.5,3.1L94.5,2.9L102.04142135623731,2.9L103.1,3.9585786437626904L103.1,12.04142135623731L102.6,12.54142135623731L102.6,13.54142135623731L102.04142135623731,14.1L60.95857864376269,14.1L60.45857864376269,13.6L59.95857864376269,13.6L59.45857864376269,13.1L58.95857864376269,13.1L57.45857864376269,11.6L56.95857864376269,11.6L55.4,10.04142135623731L55.4,3.5414213562373096L54.95857864376269,3.1L48,3.1L48,2.9L55.04142135623731,2.9L55.6,3.4585786437626904L55.6,9.95857864376269L57.04142135623731,11.4L57.54142135623731,11.4L59.04142135623731,12.9L59.54142135623731,12.9L60.04142135623731,13.4L60.54142135623731,13.4L61.04142135623731,13.9L101.95857864376269,13.9L102.4,13.45857864376269L102.4,12.45857864376269L102.9,11.95857864376269L102.9,4.04142135623731L101.95857864376269,3.1z" stroke="none"/><path d="M79.5,2.9L79.5,3.1L72.95857864376269,3.1L72.45857864376269,2.6L71.45857864376269,2.6L70.95857864376269,2.1L69.95857864376269,2.1L69.45857864376269,1.6L68.95857864376269,1.6L68.45857864376269,1.1L67.45857864376269,1.1L66.95857864376269,0.6L45.54142135623731,0.6L44.04142135623731,2.1L43.54142135623731,2.1L42.04142135623731,3.6L35.04142135623731,3.6L34.54142135623731,4.1L32.45857864376269,4.1L31.429289321881345,3.0707106781186546L31.570710678118655,2.9292893218813454L32.54142135623731,3.9L34.45857864376269,3.9L34.95857864376269,3.4L41.95857864376269,3.4L43.45857864376269,1.9L43.95857864376269,1.9L45.45857864376269,0.4L67.04142135623731,0.4L67.54142135623731,0.9L68.54142135623731,0.9L69.04142135623731,1.4L69.54142135623731,1.4L70.04142135623731,1.9L71.04142135623731,1.9L71.54142135623731,2.4L72.54142135623731,2.4L73.04142135623731,2.9z" stroke="none"/></svg>