<svg version="1.1" width="105" height="15" xmlns="http://www.w3.org/2000/svg"><path d="M6.54142135623731,3.4L8.54142135623731,5.4L11.04142135623731,5.4L11.54142135623731,5.9L13.5,5.9L13.5,6.1L11.45857864376269,6.1L10.95857864376269,5.6L8.45857864376269,5.6L6.45857864376269,3.6L6.1,3.6L6.1,4.04142135623731L5.6,4.54142135623731L5.6,5.04142135623731L5.1,5.54142135623731L5.1,6.04142135623731L4.6,6.54142135623731L4.6,7.5L4.4,7.5L4.4,6.45857864376269L4.9,5.95857864376269L4.9,5.45857864376269L5.4,4.95857864376269L5.4,4.45857864376269L5.9,3.9585786437626904L5.9,3.6L5.45857864376269,3.6L4.95857864376269,3.1L4.5,3.1L4.5,2.9L5.04142135623731,2.9L5.54142135623731,3.4z" stroke="none"/><path d="M46.04142135623731,2.9L46.54142135623731,3.4L47.04142135623731,3.4L47.54142135623731,3.9L54.45857864376269,3.9L54.95857864376269,3.4L56.04142135623731,3.4L56.54142135623731,3.9L58.04142135623731,3.9L58.57071067811866,4.429289321881345L58.42928932188134,4.570710678118655L57.95857864376269,4.1L56.45857864376269,4.1L55.95857864376269,3.6L55.04142135623731,3.6L54.54142135623731,4.1L47.45857864376269,4.1L46.95857864376269,3.6L46.45857864376269,3.6L45.95857864376269,3.1L40.04142135623731,3.1L39.6,3.5414213562373096L39.6,4.04142135623731L39.07071067811866,4.570710678118655L38.92928932188134,4.429289321881345L39.4,3.9585786437626904L39.4,3.4585786437626904L39.75857864376269,3.1L37.54142135623731,3.1L36.54142135623731,4.1L32.54142135623731,4.1L32.04142135623731,4.6L30.541421356237308,4.6L30.041421356237308,5.1L29.541421356237308,5.1L28.570710678118655,6.070710678118655L28.429289321881345,5.929289321881345L29.458578643762692,4.9L29.958578643762692,4.9L30.458578643762692,4.4L31.958578643762692,4.4L32.45857864376269,3.9L36.45857864376269,3.9L37.45857864376269,2.9z" stroke="none"/><path d="M76.45857864376269,5.9L85.04142135623731,5.9L85.54142135623731,6.4L87.04142135623731,6.4L87.54142135623731,6.9L96.45857864376269,6.9L97.45857864376269,5.9L99,5.9L99,6.1L97.54142135623731,6.1L96.54142135623731,7.1L87.45857864376269,7.1L86.95857864376269,6.6L85.45857864376269,6.6L84.95857864376269,6.1L76.74142135623731,6.1L81.07071067811866,10.429289321881345L80.92928932188134,10.570710678118655L76.5,6.141421356237309L75.54142135623731,7.1L65.45857864376269,7.1L64.95857864376269,6.6L57.04142135623731,6.6L56.54142135623731,7.1L56.04142135623731,7.1L55.54142135623731,7.6L54,7.6L54,7.4L55.45857864376269,7.4L55.95857864376269,6.9L56.45857864376269,6.9L56.95857864376269,6.4L65.04142135623731,6.4L65.54142135623731,6.9L75.45857864376269,6.9z" stroke="none"/><path d="M21.4,4.4L21.4,4.04142135623731L20.958578643762692,3.6L19.041421356237308,3.6L15.54142135623731,7.1L8.54142135623731,7.1L8.04142135623731,7.6L7.5,7.6L7.5,7.4L7.95857864376269,7.4L8.45857864376269,6.9L15.45857864376269,6.9L18.958578643762692,3.4L21.041421356237308,3.4L21.6,3.9585786437626904L21.6,4.4L21.958578643762692,4.4L22.4,3.9585786437626904L22.4,3.5414213562373096L21.958578643762692,3.1L19.958578643762692,3.1L19.458578643762692,2.6L17.458578643762692,2.6L16.958578643762692,2.1L4.04142135623731,2.1L3.6,2.5414213562373096L3.6,7.95857864376269L4.04142135623731,8.4L6.45857864376269,8.4L6.95857864376269,7.9L33.54142135623731,7.9L34.04142135623731,8.4L34.54142135623731,8.4L35.04142135623731,8.9L36.04142135623731,8.9L37.04142135623731,9.9L38.54142135623731,9.9L40.04142135623731,11.4L42.45857864376269,11.4L44.45857864376269,9.4L46.45857864376269,9.4L47.45857864376269,8.4L48.45857864376269,8.4L49.42928932188134,7.429289321881345L49.57071067811866,7.570710678118655L48.54142135623731,8.6L47.54142135623731,8.6L46.54142135623731,9.6L44.54142135623731,9.6L42.54142135623731,11.6L39.95857864376269,11.6L38.45857864376269,10.1L36.95857864376269,10.1L35.95857864376269,9.1L34.95857864376269,9.1L34.45857864376269,8.6L33.95857864376269,8.6L33.45857864376269,8.1L7.04142135623731,8.1L6.54142135623731,8.6L3.9585786437626904,8.6L3.4,8.04142135623731L3.4,2.4585786437626904L3.9585786437626904,1.9L17.041421356237308,1.9L17.541421356237308,2.4L19.541421356237308,2.4L20.041421356237308,2.9L22.041421356237308,2.9L22.6,3.4585786437626904L22.6,4.04142135623731L22.041421356237308,4.6L21.541421356237308,4.6L21.041421356237308,5.1L20.541421356237308,5.1L19.570710678118655,6.070710678118655L19.429289321881345,5.929289321881345L20.458578643762692,4.9L20.958578643762692,4.9L21.25857864376269,4.6L20.041421356237308,4.6L18.541421356237308,6.1L18,6.1L18,5.9L18.458578643762692,5.9L19.958578643762692,4.4z" stroke="none"/><path d="M75.9,2.4L75.9,1.9585786437626904L76.45857864376269,1.4L90.54142135623731,1.4L91.54142135623731,2.4L92.54142135623731,2.4L93.07071067811866,2.9292893218813454L92.92928932188134,3.0707106781186546L92.45857864376269,2.6L91.45857864376269,2.6L90.45857864376269,1.6L76.54142135623731,1.6L76.1,2.0414213562373096L76.1,2.4L78.04142135623731,2.4L78.54142135623731,2.9L79.54142135623731,2.9L80.54142135623731,3.9L83.04142135623731,3.9L83.54142135623731,4.4L86.54142135623731,4.4L88.04142135623731,5.9L88.5,5.9L88.5,6.1L87.95857864376269,6.1L86.45857864376269,4.6L83.45857864376269,4.6L82.95857864376269,4.1L80.45857864376269,4.1L79.45857864376269,3.1L78.45857864376269,3.1L77.95857864376269,2.6L76.1,2.6L76.1,5.04142135623731L75.07071067811866,6.070710678118655L74.92928932188134,5.929289321881345L75.9,4.95857864376269L75.9,2.6L74.45857864376269,2.6L73.95857864376269,2.1L58.54142135623731,2.1L58.04142135623731,2.6L57.54142135623731,2.6L57.07071067811866,3.0707106781186546L56.92928932188134,2.9292893218813454L57.45857864376269,2.4L57.95857864376269,2.4L58.45857864376269,1.9L74.04142135623731,1.9L74.54142135623731,2.4z" stroke="none"/><path d="M50.54142135623731,5.9L52.54142135623731,7.9L53.04142135623731,7.9L53.54142135623731,8.4L56.04142135623731,8.4L56.54142135623731,8.9L59.04142135623731,8.9L60.04142135623731,9.9L60.54142135623731,9.9L61.04142135623731,10.4L61.5,10.4L61.5,10.6L60.95857864376269,10.6L60.45857864376269,10.1L59.95857864376269,10.1L58.95857864376269,9.1L56.45857864376269,9.1L55.95857864376269,8.6L53.45857864376269,8.6L52.95857864376269,8.1L52.45857864376269,8.1L50.45857864376269,6.1L36.74142135623731,6.1L40.6,9.95857864376269L40.6,10.5L40.4,10.5L40.4,10.04142135623731L36.6,6.24142135623731L36.6,6.54142135623731L36.04142135623731,7.1L35.45857864376269,7.1L34.95857864376269,6.6L29.541421356237308,6.6L29.041421356237308,7.1L21.958578643762692,7.1L20.929289321881345,6.070710678118655L21.070710678118655,5.929289321881345L22.041421356237308,6.9L28.958578643762692,6.9L29.458578643762692,6.4L35.04142135623731,6.4L35.54142135623731,6.9L35.95857864376269,6.9L36.4,6.45857864376269L36.4,6.1L31.5,6.1L31.5,5.9z" stroke="none"/><path d="M68.9,9L69.1,9L69.1,10.5L68.9,10.5z" stroke="none"/><path d="M28.570710678118655,12.070710678118655L28.429289321881345,11.929289321881345L29.929289321881345,10.429289321881345L30.070710678118655,10.570710678118655z" stroke="none"/><path d="M85.57071067811866,10.570710678118655L85.42928932188134,10.429289321881345L86.92928932188134,8.929289321881345L87.07071067811866,9.070710678118655z" stroke="none"/><path d="M16.4,3L16.6,3L16.6,3.5414213562373096L16.1,4.04142135623731L16.1,4.54142135623731L15.6,5.04142135623731L15.6,5.54142135623731L15.070710678118655,6.070710678118655L14.929289321881345,5.929289321881345L15.4,5.45857864376269L15.4,4.95857864376269L15.9,4.45857864376269L15.9,3.9585786437626904L16.4,3.4585786437626904z" stroke="none"/><path d="M37.5,8.9L37.5,9.1L36.95857864376269,9.1L36.45857864376269,8.6L35.95857864376269,8.6L34.95857864376269,7.6L34.5,7.6L34.5,7.4L35.04142135623731,7.4L36.04142135623731,8.4L36.54142135623731,8.4L37.04142135623731,8.9z" stroke="none"/><path d="M98.92928932188134,4.429289321881345L99.07071067811866,4.570710678118655L98.54142135623731,5.1L97.54142135623731,5.1L96.54142135623731,6.1L96,6.1L96,5.9L96.45857864376269,5.9L97.45857864376269,4.9L98.45857864376269,4.9z" stroke="none"/><path d="M21,11.9L21,12.1L15,12.1L15,11.9z" stroke="none"/><path d="M15,2.9L15,3.1L14.54142135623731,3.1L14.04142135623731,3.6L13.04142135623731,3.6L12.04142135623731,4.6L9,4.6L9,4.4L11.95857864376269,4.4L12.95857864376269,3.4L13.95857864376269,3.4L14.45857864376269,2.9z" stroke="none"/><path d="M76.5,11.9L76.5,12.1L69.95857864376269,12.1L69.45857864376269,11.6L67.45857864376269,11.6L66.95857864376269,11.1L66.45857864376269,11.1L65.92928932188134,10.570710678118655L66.07071067811866,10.429289321881345L66.54142135623731,10.9L67.04142135623731,10.9L67.54142135623731,11.4L69.54142135623731,11.4L70.04142135623731,11.9z" stroke="none"/><path d="M102,11.9L102,12.1L100.54142135623731,12.1L99.54142135623731,13.1L94.45857864376269,13.1L91.95857864376269,10.6L91.5,10.6L91.5,10.4L92.04142135623731,10.4L94.54142135623731,12.9L99.45857864376269,12.9L100.45857864376269,11.9z" stroke="none"/><path d="M12,9.1L12,8.9L25.5,8.9L25.5,9.1z" stroke="none"/><path d="M99.07071067811866,11.929289321881345L98.92928932188134,12.070710678118655L98.45857864376269,11.6L97.95857864376269,11.6L97.45857864376269,11.1L96.95857864376269,11.1L96.45857864376269,10.6L92.95857864376269,10.6L91.95857864376269,9.6L89.95857864376269,9.6L89.45857864376269,9.1L88.95857864376269,9.1L87.95857864376269,8.1L86.54142135623731,8.1L85.57071067811866,9.070710678118655L85.42928932188134,8.929289321881345L86.45857864376269,7.9L88.04142135623731,7.9L89.04142135623731,8.9L89.54142135623731,8.9L90.04142135623731,9.4L92.04142135623731,9.4L93.04142135623731,10.4L96.54142135623731,10.4L97.04142135623731,10.9L97.54142135623731,10.9L98.04142135623731,11.4L98.54142135623731,11.4z" stroke="none"/><path d="M13.5,10.4L13.5,10.6L5.45857864376269,10.6L4.95857864376269,10.1L4.45857864376269,10.1L2.9,8.54142135623731L2.9,1.9585786437626904L3.4585786437626904,1.4L21.041421356237308,1.4L22.041421356237308,2.4L22.541421356237308,2.4L25.541421356237308,5.4L26.541421356237308,5.4L27.070710678118655,5.929289321881345L26.929289321881345,6.070710678118655L26.458578643762692,5.6L25.458578643762692,5.6L22.458578643762692,2.6L21.958578643762692,2.6L20.958578643762692,1.6L3.5414213562373096,1.6L3.1,2.0414213562373096L3.1,8.45857864376269L4.54142135623731,9.9L5.04142135623731,9.9L5.54142135623731,10.4z" stroke="none"/><path d="M91.5,6.1L91.5,5.9L93.45857864376269,5.9L93.95857864376269,5.4L94.95857864376269,5.4L96.45857864376269,3.9L96.95857864376269,3.9L97.45857864376269,3.4L99.54142135623731,3.4L100.1,3.9585786437626904L100.1,6.54142135623731L99.54142135623731,7.1L97.54142135623731,7.1L97.04142135623731,7.6L85.54142135623731,7.6L81.54142135623731,11.6L80.45857864376269,11.6L79.95857864376269,11.1L77.45857864376269,11.1L76.95857864376269,10.6L76.5,10.6L76.5,10.4L77.04142135623731,10.4L77.54142135623731,10.9L80.04142135623731,10.9L80.54142135623731,11.4L81.45857864376269,11.4L85.45857864376269,7.4L96.95857864376269,7.4L97.45857864376269,6.9L99.45857864376269,6.9L99.9,6.45857864376269L99.9,4.04142135623731L99.45857864376269,3.6L97.54142135623731,3.6L97.04142135623731,4.1L96.54142135623731,4.1L95.04142135623731,5.6L94.04142135623731,5.6L93.54142135623731,6.1z" stroke="none"/><path d="M55.5,4.6L55.5,4.4L56.04142135623731,4.4L56.54142135623731,4.9L57.54142135623731,4.9L58.04142135623731,5.4L70.45857864376269,5.4L72.95857864376269,2.9L73.5,2.9L73.5,3.1L73.04142135623731,3.1L70.54142135623731,5.6L57.95857864376269,5.6L57.45857864376269,5.1L56.45857864376269,5.1L55.95857864376269,4.6z" stroke="none"/><path d="M7.5,9.1L7.5,8.9L10.54142135623731,8.9L11.54142135623731,9.9L12.45857864376269,9.9L12.95857864376269,9.4L24.541421356237308,9.4L25.041421356237308,9.9L26.041421356237308,9.9L26.541421356237308,10.4L27,10.4L27,10.6L26.458578643762692,10.6L25.958578643762692,10.1L24.958578643762692,10.1L24.458578643762692,9.6L13.04142135623731,9.6L12.54142135623731,10.1L11.45857864376269,10.1L10.45857864376269,9.1z" stroke="none"/><path d="M39,12.1L39,11.9L43.45857864376269,11.9L43.95857864376269,11.4L44.45857864376269,11.4L44.95857864376269,10.9L59.54142135623731,10.9L60.04142135623731,11.4L61.95857864376269,11.4L62.4,10.95857864376269L62.4,7.95857864376269L62.92928932188134,7.429289321881345L63.07071067811866,7.570710678118655L62.6,8.04142135623731L62.6,11.04142135623731L62.04142135623731,11.6L59.95857864376269,11.6L59.45857864376269,11.1L45.04142135623731,11.1L44.54142135623731,11.6L44.04142135623731,11.6L43.54142135623731,12.1z" stroke="none"/><path d="M73.5,4.4L73.5,4.6L73.04142135623731,4.6L72.04142135623731,5.6L71.54142135623731,5.6L71.04142135623731,6.1L52.95857864376269,6.1L52.45857864376269,5.6L49.45857864376269,5.6L48.45857864376269,4.6L46.5,4.6L46.5,4.4L48.54142135623731,4.4L49.54142135623731,5.4L52.54142135623731,5.4L53.04142135623731,5.9L70.95857864376269,5.9L71.45857864376269,5.4L71.95857864376269,5.4L72.95857864376269,4.4z" stroke="none"/><path d="M19.5,10.6L19.5,10.4L20.041421356237308,10.4L20.541421356237308,10.9L21.541421356237308,10.9L22.541421356237308,11.9L23.041421356237308,11.9L23.541421356237308,12.4L27.041421356237308,12.4L27.541421356237308,12.9L43.95857864376269,12.9L44.45857864376269,12.4L45.95857864376269,12.4L46.42928932188134,11.929289321881345L46.57071067811866,12.070710678118655L46.04142135623731,12.6L44.54142135623731,12.6L44.04142135623731,13.1L27.458578643762692,13.1L26.958578643762692,12.6L23.458578643762692,12.6L22.958578643762692,12.1L22.458578643762692,12.1L21.458578643762692,11.1L20.458578643762692,11.1L19.958578643762692,10.6z" stroke="none"/><path d="M13.429289321881345,12.070710678118655L13.570710678118655,11.929289321881345L14.54142135623731,12.9L26.541421356237308,12.9L27.041421356237308,13.4L45.95857864376269,13.4L46.45857864376269,12.9L46.95857864376269,12.9L47.92928932188134,11.929289321881345L48.07071067811866,12.070710678118655L47.04142135623731,13.1L46.54142135623731,13.1L46.04142135623731,13.6L26.958578643762692,13.6L26.458578643762692,13.1L14.45857864376269,13.1z" stroke="none"/><path d="M64.42928932188134,10.570710678118655L64.57071067811866,10.429289321881345L65.54142135623731,11.4L66.54142135623731,11.4L67.04142135623731,11.9L68.54142135623731,11.9L69.04142135623731,12.4L75.54142135623731,12.4L76.04142135623731,12.9L93.54142135623731,12.9L94.04142135623731,13.4L101.95857864376269,13.4L102.9,12.45857864376269L102.9,11.54142135623731L101.45857864376269,10.1L100.95857864376269,10.1L100.45857864376269,9.6L99.95857864376269,9.6L99.45857864376269,9.1L99,9.1L99,8.9L99.54142135623731,8.9L100.04142135623731,9.4L100.54142135623731,9.4L101.04142135623731,9.9L101.54142135623731,9.9L103.1,11.45857864376269L103.1,12.54142135623731L102.04142135623731,13.6L93.95857864376269,13.6L93.45857864376269,13.1L75.95857864376269,13.1L75.45857864376269,12.6L68.95857864376269,12.6L68.45857864376269,12.1L66.95857864376269,12.1L66.45857864376269,11.6L65.45857864376269,11.6z" stroke="none"/><path d="M99.07071067811866,10.429289321881345L98.92928932188134,10.570710678118655L97.9,9.54142135623731L97.9,8.45857864376269L98.45857864376269,7.9L99.54142135623731,7.9L100.04142135623731,8.4L100.54142135623731,8.4L101.04142135623731,8.9L101.54142135623731,8.9L103.6,10.95857864376269L103.6,13.04142135623731L102.54142135623731,14.1L84.95857864376269,14.1L84.45857864376269,13.6L65.95857864376269,13.6L63.4,11.04142135623731L63.4,9.45857864376269L63.9,8.95857864376269L63.9,8.45857864376269L64.4,7.95857864376269L64.4,7.5L64.6,7.5L64.6,8.04142135623731L64.1,8.54142135623731L64.1,9.04142135623731L63.6,9.54142135623731L63.6,10.95857864376269L66.04142135623731,13.4L84.54142135623731,13.4L85.04142135623731,13.9L102.45857864376269,13.9L103.4,12.95857864376269L103.4,11.04142135623731L101.45857864376269,9.1L100.95857864376269,9.1L100.45857864376269,8.6L99.95857864376269,8.6L99.45857864376269,8.1L98.54142135623731,8.1L98.1,8.54142135623731L98.1,9.45857864376269z" stroke="none"/><path d="M49.5,12.1L49.5,11.9L62.54142135623731,11.9L63.04142135623731,12.4L63.54142135623731,12.4L64.04142135623731,12.9L64.54142135623731,12.9L65.54142135623731,13.9L84.04142135623731,13.9L84.54142135623731,14.4L102.95857864376269,14.4L103.9,13.45857864376269L103.9,10.54142135623731L101.95857864376269,8.6L101.45857864376269,8.6L100.45857864376269,7.6L98.04142135623731,7.6L97.54142135623731,8.1L95.04142135623731,8.1L94.54142135623731,8.6L94.04142135623731,8.6L93.54142135623731,9.1L93,9.1L93,8.9L93.45857864376269,8.9L93.95857864376269,8.4L94.45857864376269,8.4L94.95857864376269,7.9L97.45857864376269,7.9L97.95857864376269,7.4L100.54142135623731,7.4L101.54142135623731,8.4L102.04142135623731,8.4L104.1,10.45857864376269L104.1,13.54142135623731L103.04142135623731,14.6L84.45857864376269,14.6L83.95857864376269,14.1L65.45857864376269,14.1L64.45857864376269,13.1L63.95857864376269,13.1L63.45857864376269,12.6L62.95857864376269,12.6L62.45857864376269,12.1z" stroke="none"/><path d="M94.57071067811866,2.9292893218813454L94.42928932188134,3.0707106781186546L93.45857864376269,2.1L91.95857864376269,2.1L90.95857864376269,1.1L51.04142135623731,1.1L50.54142135623731,1.6L50.04142135623731,1.6L49.54142135623731,2.1L49.04142135623731,2.1L48.07071067811866,3.0707106781186546L47.92928932188134,2.9292893218813454L48.95857864376269,1.9L49.45857864376269,1.9L49.95857864376269,1.4L50.45857864376269,1.4L50.95857864376269,0.9L91.04142135623731,0.9L92.04142135623731,1.9L93.54142135623731,1.9z" stroke="none"/></svg>