<svg version="1.1" width="105" height="15" xmlns="http://www.w3.org/2000/svg"><path d="M19.041421356237308,5.4L19.570710678118655,5.929289321881345L19.429289321881345,6.070710678118655L18.958578643762692,5.6L17.6,5.6L17.6,5.95857864376269L18.041421356237308,6.4L19.041421356237308,6.4L20.041421356237308,7.4L20.541421356237308,7.4L21.541421356237308,8.4L22.958578643762692,8.4L23.958578643762692,7.4L24.958578643762692,7.4L26.458578643762692,5.9L26.958578643762692,5.9L27.958578643762692,4.9L28.458578643762692,4.9L28.958578643762692,4.4L29.458578643762692,4.4L29.958578643762692,3.9L30.458578643762692,3.9L30.9,3.4585786437626904L30.9,2.5414213562373096L30.458578643762692,2.1L29.041421356237308,2.1L28.541421356237308,2.6L27.541421356237308,2.6L27.070710678118655,3.0707106781186546L26.929289321881345,2.9292893218813454L27.458578643762692,2.4L28.458578643762692,2.4L28.958578643762692,1.9L30.541421356237308,1.9L31.1,2.4585786437626904L31.1,3.5414213562373096L30.541421356237308,4.1L30.041421356237308,4.1L29.541421356237308,4.6L29.041421356237308,4.6L28.541421356237308,5.1L28.041421356237308,5.1L27.041421356237308,6.1L26.541421356237308,6.1L25.041421356237308,7.6L24.041421356237308,7.6L23.041421356237308,8.6L21.458578643762692,8.6L20.458578643762692,7.6L19.958578643762692,7.6L18.958578643762692,6.6L17.958578643762692,6.6L17.4,6.04142135623731L17.4,5.6L8.45857864376269,5.6L7.95857864376269,5.1L6.54142135623731,5.1L6.04142135623731,5.6L4.04142135623731,5.6L3.5414213562373096,6.1L3,6.1L3,5.9L3.4585786437626904,5.9L3.9585786437626904,5.4L5.95857864376269,5.4L6.45857864376269,4.9L8.04142135623731,4.9L8.54142135623731,5.4z" stroke="none"/><path d="M27.458578643762692,4.4L27.958578643762692,3.9L28.458578643762692,3.9L29.458578643762692,2.9L30,2.9L30,3.1L29.541421356237308,3.1L28.541421356237308,4.1L28.041421356237308,4.1L27.541421356237308,4.6L21.6,4.6L21.6,4.95857864376269L22.1,5.45857864376269L22.1,6.45857864376269L22.6,6.95857864376269L22.6,7.5L22.4,7.5L22.4,7.04142135623731L21.9,6.54142135623731L21.9,5.54142135623731L21.4,5.04142135623731L21.4,4.6L19.958578643762692,4.6L19.458578643762692,4.1L18.458578643762692,4.1L17.958578643762692,3.6L14.54142135623731,3.6L14.04142135623731,4.1L12.95857864376269,4.1L11.929289321881345,3.0707106781186546L12.070710678118655,2.9292893218813454L13.04142135623731,3.9L13.95857864376269,3.9L14.45857864376269,3.4L18.041421356237308,3.4L18.541421356237308,3.9L19.541421356237308,3.9L20.041421356237308,4.4z" stroke="none"/><path d="M57.45857864376269,9.9L57.95857864376269,9.4L60.45857864376269,9.4L60.95857864376269,8.9L61.5,8.9L61.5,9.1L61.04142135623731,9.1L60.54142135623731,9.6L58.04142135623731,9.6L57.54142135623731,10.1L41.1,10.1L41.1,10.54142135623731L40.54142135623731,11.1L28.041421356237308,11.1L27.541421356237308,11.6L26.541421356237308,11.6L26.041421356237308,12.1L25.5,12.1L25.5,11.9L25.958578643762692,11.9L26.458578643762692,11.4L27.458578643762692,11.4L27.958578643762692,10.9L40.45857864376269,10.9L40.9,10.45857864376269L40.9,10.1L39.45857864376269,10.1L38.45857864376269,9.1L36,9.1L36,8.9L38.54142135623731,8.9L39.54142135623731,9.9z" stroke="none"/><path d="M57.9,5.9L57.9,4.54142135623731L56.9,3.5414213562373096L56.9,3L57.1,3L57.1,3.4585786437626904L58.1,4.45857864376269L58.1,5.9L61.04142135623731,5.9L62.04142135623731,6.9L62.54142135623731,6.9L63.04142135623731,7.4L66,7.4L66,7.6L62.95857864376269,7.6L62.45857864376269,7.1L61.95857864376269,7.1L60.95857864376269,6.1L58.04142135623731,6.1L57.6,6.54142135623731L57.6,7.04142135623731L57.07071067811866,7.570710678118655L56.92928932188134,7.429289321881345L57.4,6.95857864376269L57.4,6.45857864376269L57.75857864376269,6.1L57.45857864376269,6.1L56.95857864376269,5.6L56.45857864376269,5.6L55.95857864376269,5.1L54.04142135623731,5.1L53.04142135623731,6.1L52.5,6.1L52.5,5.9L52.95857864376269,5.9L53.95857864376269,4.9L56.04142135623731,4.9L56.54142135623731,5.4L57.04142135623731,5.4L57.54142135623731,5.9z" stroke="none"/><path d="M91.9,4.4L91.9,4.04142135623731L91.45857864376269,3.6L79.95857864376269,3.6L79.42928932188134,3.0707106781186546L79.57071067811866,2.9292893218813454L80.04142135623731,3.4L91.54142135623731,3.4L92.1,3.9585786437626904L92.1,4.4L99,4.4L99,4.6L92.1,4.6L92.1,4.95857864376269L92.54142135623731,5.4L93.04142135623731,5.4L93.54142135623731,5.9L94.04142135623731,5.9L94.54142135623731,6.4L99.54142135623731,6.4L100.57071067811866,7.429289321881345L100.42928932188134,7.570710678118655L99.45857864376269,6.6L94.45857864376269,6.6L93.95857864376269,6.1L93.45857864376269,6.1L92.95857864376269,5.6L92.45857864376269,5.6L91.9,5.04142135623731L91.9,4.6L90,4.6L90,4.4z" stroke="none"/><path d="M47.9,8.4L47.9,7.95857864376269L48.45857864376269,7.4L48.95857864376269,7.4L49.95857864376269,6.4L51.54142135623731,6.4L52.04142135623731,6.9L52.95857864376269,6.9L53.45857864376269,6.4L53.95857864376269,6.4L54.45857864376269,5.9L55.5,5.9L55.5,6.1L54.54142135623731,6.1L54.04142135623731,6.6L53.54142135623731,6.6L53.04142135623731,7.1L51.95857864376269,7.1L51.45857864376269,6.6L50.04142135623731,6.6L49.04142135623731,7.6L48.54142135623731,7.6L48.1,8.04142135623731L48.1,8.4L53.04142135623731,8.4L53.54142135623731,8.9L54,8.9L54,9.1L53.45857864376269,9.1L52.95857864376269,8.6L48.1,8.6L48.1,8.95857864376269L48.54142135623731,9.4L56.95857864376269,9.4L57.45857864376269,8.9L59.45857864376269,8.9L60.45857864376269,7.9L64.54142135623731,7.9L65.04142135623731,8.4L65.54142135623731,8.4L66.07071067811866,8.929289321881345L65.92928932188134,9.070710678118655L65.45857864376269,8.6L64.95857864376269,8.6L64.45857864376269,8.1L60.54142135623731,8.1L59.54142135623731,9.1L57.54142135623731,9.1L57.04142135623731,9.6L48.45857864376269,9.6L47.9,9.04142135623731L47.9,8.6L36.95857864376269,8.6L36.45857864376269,8.1L32.04142135623731,8.1L30.541421356237308,9.6L30.041421356237308,9.6L29.541421356237308,10.1L19.041421356237308,10.1L18.541421356237308,10.6L18,10.6L18,10.4L18.458578643762692,10.4L18.958578643762692,9.9L29.458578643762692,9.9L29.958578643762692,9.4L30.458578643762692,9.4L31.958578643762692,7.9L36.54142135623731,7.9L37.04142135623731,8.4z" stroke="none"/><path d="M34.5,3.1L34.5,2.9L36,2.9L36,3.1z" stroke="none"/><path d="M4.6,10.5L4.4,10.5L4.4,9L4.6,9z" stroke="none"/><path d="M79.57071067811866,4.429289321881345L79.42928932188134,4.570710678118655L77.92928932188134,3.0707106781186546L78.07071067811866,2.9292893218813454z" stroke="none"/><path d="M13.570710678118655,10.570710678118655L13.429289321881345,10.429289321881345L13.9,9.95857864376269L13.9,8.95857864376269L14.4,8.45857864376269L14.4,7.95857864376269L14.929289321881345,7.429289321881345L15.070710678118655,7.570710678118655L14.6,8.04142135623731L14.6,8.54142135623731L14.1,9.04142135623731L14.1,10.04142135623731z" stroke="none"/><path d="M81.1,10.5L80.9,10.5L80.9,10.04142135623731L80.4,9.54142135623731L80.4,9.04142135623731L79.9,8.54142135623731L79.9,8.04142135623731L79.42928932188134,7.570710678118655L79.57071067811866,7.429289321881345L80.1,7.95857864376269L80.1,8.45857864376269L80.6,8.95857864376269L80.6,9.45857864376269L81.1,9.95857864376269z" stroke="none"/><path d="M4.429289321881345,2.9292893218813454L4.570710678118655,3.0707106781186546L2.1,5.54142135623731L2.1,6.45857864376269L2.5414213562373096,6.9L4.95857864376269,6.9L5.45857864376269,6.4L6.95857864376269,6.4L7.429289321881345,5.929289321881345L7.570710678118655,6.070710678118655L7.04142135623731,6.6L5.54142135623731,6.6L5.04142135623731,7.1L2.4585786437626904,7.1L1.9,6.54142135623731L1.9,5.45857864376269z" stroke="none"/><path d="M89.92928932188134,5.929289321881345L90.07071067811866,6.070710678118655L87.07071067811866,9.070710678118655L86.92928932188134,8.929289321881345z" stroke="none"/><path d="M51,7.6L51,7.4L55.5,7.4L55.5,7.6z" stroke="none"/><path d="M94.57071067811866,10.570710678118655L94.42928932188134,10.429289321881345L94.95857864376269,9.9L95.45857864376269,9.9L96.45857864376269,8.9L96.95857864376269,8.9L98.45857864376269,7.4L99,7.4L99,7.6L98.54142135623731,7.6L97.04142135623731,9.1L96.54142135623731,9.1L95.54142135623731,10.1L95.04142135623731,10.1z" stroke="none"/><path d="M17.929289321881345,7.429289321881345L18.070710678118655,7.570710678118655L14.04142135623731,11.6L11.54142135623731,11.6L11.04142135623731,12.1L10.5,12.1L10.5,11.9L10.95857864376269,11.9L11.45857864376269,11.4L13.95857864376269,11.4z" stroke="none"/><path d="M45,5.9L45,6.1L43.95857864376269,6.1L43.45857864376269,5.6L42.95857864376269,5.6L42.45857864376269,5.1L38.95857864376269,5.1L38.45857864376269,4.6L34.5,4.6L34.5,4.4L38.54142135623731,4.4L39.04142135623731,4.9L42.54142135623731,4.9L43.04142135623731,5.4L43.54142135623731,5.4L44.04142135623731,5.9z" stroke="none"/><path d="M43.5,7.4L43.5,7.6L30,7.6L30,7.4z" stroke="none"/><path d="M61.5,10.4L61.5,10.6L61.04142135623731,10.6L60.54142135623731,11.1L60.04142135623731,11.1L59.54142135623731,11.6L54.04142135623731,11.6L53.54142135623731,12.1L48,12.1L48,11.9L53.45857864376269,11.9L53.95857864376269,11.4L59.45857864376269,11.4L59.95857864376269,10.9L60.45857864376269,10.9L60.95857864376269,10.4z" stroke="none"/><path d="M28.570710678118655,7.570710678118655L28.429289321881345,7.429289321881345L31.4,4.45857864376269L31.4,2.0414213562373096L30.958578643762692,1.6L18.041421356237308,1.6L17.541421356237308,2.1L16.541421356237308,2.1L16.041421356237308,2.6L15.54142135623731,2.6L15.04142135623731,3.1L13.5,3.1L13.5,2.9L14.95857864376269,2.9L15.45857864376269,2.4L15.95857864376269,2.4L16.458578643762692,1.9L17.458578643762692,1.9L17.958578643762692,1.4L31.041421356237308,1.4L31.6,1.9585786437626904L31.6,4.54142135623731z" stroke="none"/><path d="M16.5,4.4L16.5,4.6L11.95857864376269,4.6L10.9,3.5414213562373096L10.9,2.4585786437626904L11.45857864376269,1.9L15.45857864376269,1.9L15.95857864376269,1.4L16.958578643762692,1.4L17.458578643762692,0.9L31.541421356237308,0.9L32.1,1.4585786437626904L32.1,4.45857864376269L33.1,5.45857864376269L33.1,6L32.9,6L32.9,5.54142135623731L31.9,4.54142135623731L31.9,1.5414213562373096L31.458578643762692,1.1L17.541421356237308,1.1L17.041421356237308,1.6L16.041421356237308,1.6L15.54142135623731,2.1L11.54142135623731,2.1L11.1,2.5414213562373096L11.1,3.4585786437626904L12.04142135623731,4.4z" stroke="none"/><path d="M3,12.1L3,11.9L9.04142135623731,11.9L10.04142135623731,12.9L19.958578643762692,12.9L20.958578643762692,11.9L22.5,11.9L22.5,12.1L21.041421356237308,12.1L20.041421356237308,13.1L9.95857864376269,13.1L8.95857864376269,12.1z" stroke="none"/><path d="M94.57071067811866,2.9292893218813454L94.42928932188134,3.0707106781186546L93.45857864376269,2.1L77.54142135623731,2.1L77.1,2.5414213562373096L77.1,3.0414213562373096L76.6,3.5414213562373096L76.6,4.54142135623731L76.1,5.04142135623731L76.1,6.04142135623731L75.6,6.54142135623731L75.6,7.04142135623731L75.07071067811866,7.570710678118655L74.92928932188134,7.429289321881345L75.4,6.95857864376269L75.4,6.45857864376269L75.9,5.95857864376269L75.9,4.95857864376269L76.4,4.45857864376269L76.4,3.4585786437626904L76.9,2.9585786437626904L76.9,2.4585786437626904L77.45857864376269,1.9L93.54142135623731,1.9z" stroke="none"/><path d="M42,6.1L42,5.9L42.54142135623731,5.9L43.04142135623731,6.4L44.04142135623731,6.4L44.54142135623731,6.9L48.45857864376269,6.9L49.45857864376269,5.9L49.95857864376269,5.9L50.45857864376269,5.4L51.45857864376269,5.4L53.95857864376269,2.9L54.95857864376269,2.9L55.45857864376269,2.4L55.95857864376269,2.4L56.45857864376269,1.9L58.04142135623731,1.9L58.54142135623731,2.4L59.04142135623731,2.4L62.04142135623731,5.4L65.04142135623731,5.4L66.04142135623731,6.4L66.54142135623731,6.4L67.1,6.95857864376269L67.1,9.54142135623731L66.07071067811866,10.570710678118655L65.92928932188134,10.429289321881345L66.9,9.45857864376269L66.9,7.04142135623731L66.45857864376269,6.6L65.95857864376269,6.6L64.95857864376269,5.6L61.95857864376269,5.6L58.95857864376269,2.6L58.45857864376269,2.6L57.95857864376269,2.1L56.54142135623731,2.1L56.04142135623731,2.6L55.54142135623731,2.6L55.04142135623731,3.1L54.04142135623731,3.1L51.54142135623731,5.6L50.54142135623731,5.6L50.04142135623731,6.1L49.54142135623731,6.1L48.54142135623731,7.1L44.45857864376269,7.1L43.95857864376269,6.6L42.95857864376269,6.6L42.45857864376269,6.1z" stroke="none"/><path d="M92.92928932188134,3.0707106781186546L93.07071067811866,2.9292893218813454L94.04142135623731,3.9L94.95857864376269,3.9L95.4,3.4585786437626904L95.4,2.5414213562373096L94.95857864376269,2.1L94.45857864376269,2.1L93.95857864376269,1.6L69.54142135623731,1.6L68.54142135623731,2.6L68.04142135623731,2.6L67.57071067811866,3.0707106781186546L67.42928932188134,2.9292893218813454L67.95857864376269,2.4L68.45857864376269,2.4L69.45857864376269,1.4L94.04142135623731,1.4L94.54142135623731,1.9L95.04142135623731,1.9L95.6,2.4585786437626904L95.6,3.5414213562373096L95.04142135623731,4.1L93.95857864376269,4.1z" stroke="none"/><path d="M39,3.1L39,2.9L51.95857864376269,2.9L52.45857864376269,2.4L53.95857864376269,2.4L54.45857864376269,1.9L55.45857864376269,1.9L55.95857864376269,1.4L59.04142135623731,1.4L61.04142135623731,3.4L62.04142135623731,3.4L62.54142135623731,3.9L64.04142135623731,3.9L64.57071067811866,4.429289321881345L64.42928932188134,4.570710678118655L63.95857864376269,4.1L62.45857864376269,4.1L61.95857864376269,3.6L60.95857864376269,3.6L58.95857864376269,1.6L56.04142135623731,1.6L55.54142135623731,2.1L54.54142135623731,2.1L54.04142135623731,2.6L52.54142135623731,2.6L52.04142135623731,3.1z" stroke="none"/><path d="M31.429289321881345,6.070710678118655L31.570710678118655,5.929289321881345L32.54142135623731,6.9L33.45857864376269,6.9L33.9,6.45857864376269L33.9,5.54142135623731L33.4,5.04142135623731L33.4,2.4585786437626904L33.95857864376269,1.9L52.45857864376269,1.9L52.95857864376269,1.4L53.95857864376269,1.4L54.45857864376269,0.9L62.04142135623731,0.9L64.54142135623731,3.4L65.04142135623731,3.4L67.6,5.95857864376269L67.6,10.54142135623731L66.54142135623731,11.6L63.04142135623731,11.6L62.54142135623731,12.1L54.54142135623731,12.1L54.04142135623731,12.6L50.54142135623731,12.6L50.04142135623731,13.1L47.45857864376269,13.1L46.9,12.54142135623731L46.9,11.45857864376269L47.45857864376269,10.9L57.95857864376269,10.9L58.42928932188134,10.429289321881345L58.57071067811866,10.570710678118655L58.04142135623731,11.1L47.54142135623731,11.1L47.1,11.54142135623731L47.1,12.45857864376269L47.54142135623731,12.9L49.95857864376269,12.9L50.45857864376269,12.4L53.95857864376269,12.4L54.45857864376269,11.9L62.45857864376269,11.9L62.95857864376269,11.4L66.45857864376269,11.4L67.4,10.45857864376269L67.4,6.04142135623731L64.95857864376269,3.6L64.45857864376269,3.6L61.95857864376269,1.1L54.54142135623731,1.1L54.04142135623731,1.6L53.04142135623731,1.6L52.54142135623731,2.1L34.04142135623731,2.1L33.6,2.5414213562373096L33.6,4.95857864376269L34.1,5.45857864376269L34.1,6.54142135623731L33.54142135623731,7.1L32.45857864376269,7.1z" stroke="none"/><path d="M95.92928932188134,7.429289321881345L96.07071067811866,7.570710678118655L93.54142135623731,10.1L90.04142135623731,10.1L89.54142135623731,10.6L86.04142135623731,10.6L85.54142135623731,11.1L82.04142135623731,11.1L81.54142135623731,11.6L69.54142135623731,11.6L69.07071067811866,12.070710678118655L68.92928932188134,11.929289321881345L69.45857864376269,11.4L81.45857864376269,11.4L81.95857864376269,10.9L85.45857864376269,10.9L85.95857864376269,10.4L89.45857864376269,10.4L89.95857864376269,9.9L93.45857864376269,9.9z" stroke="none"/><path d="M42,12.1L42,11.9L44.54142135623731,11.9L45.54142135623731,12.9L46.54142135623731,12.9L47.04142135623731,13.4L65.45857864376269,13.4L67.45857864376269,11.4L67.95857864376269,11.4L68.45857864376269,10.9L75.45857864376269,10.9L75.95857864376269,10.4L76.5,10.4L76.5,10.6L76.04142135623731,10.6L75.54142135623731,11.1L68.54142135623731,11.1L68.04142135623731,11.6L67.54142135623731,11.6L65.54142135623731,13.6L46.95857864376269,13.6L46.45857864376269,13.1L45.45857864376269,13.1L44.45857864376269,12.1z" stroke="none"/><path d="M28.5,8.9L28.5,9.1L20.041421356237308,9.1L19.541421356237308,9.6L17.541421356237308,9.6L17.1,10.04142135623731L17.1,10.95857864376269L17.541421356237308,11.4L21.458578643762692,11.4L21.958578643762692,10.9L23.041421356237308,10.9L23.6,11.45857864376269L23.6,12.54142135623731L23.041421356237308,13.1L21.041421356237308,13.1L20.541421356237308,13.6L2.9585786437626904,13.6L1.9,12.54142135623731L1.9,8.04142135623731L1.4,7.54142135623731L1.4,4.95857864376269L3.4,2.9585786437626904L3.4,2.4585786437626904L3.9585786437626904,1.9L10.45857864376269,1.9L10.95857864376269,1.4L12.95857864376269,1.4L13.45857864376269,0.9L13.95857864376269,0.9L14.45857864376269,0.4L62.54142135623731,0.4L65.04142135623731,2.9L65.54142135623731,2.9L67.54142135623731,4.9L69.04142135623731,4.9L69.54142135623731,5.4L71.04142135623731,5.4L74.04142135623731,8.4L74.54142135623731,8.4L75.07071067811866,8.929289321881345L74.92928932188134,9.070710678118655L74.45857864376269,8.6L73.95857864376269,8.6L70.95857864376269,5.6L69.45857864376269,5.6L68.95857864376269,5.1L67.45857864376269,5.1L65.45857864376269,3.1L64.95857864376269,3.1L62.45857864376269,0.6L14.54142135623731,0.6L14.04142135623731,1.1L13.54142135623731,1.1L13.04142135623731,1.6L11.04142135623731,1.6L10.54142135623731,2.1L4.04142135623731,2.1L3.6,2.5414213562373096L3.6,3.0414213562373096L1.6,5.04142135623731L1.6,7.45857864376269L2.1,7.95857864376269L2.1,12.45857864376269L3.0414213562373096,13.4L20.458578643762692,13.4L20.958578643762692,12.9L22.958578643762692,12.9L23.4,12.45857864376269L23.4,11.54142135623731L22.958578643762692,11.1L22.041421356237308,11.1L21.541421356237308,11.6L17.458578643762692,11.6L16.9,11.04142135623731L16.9,9.95857864376269L17.458578643762692,9.4L19.458578643762692,9.4L19.958578643762692,8.9z" stroke="none"/></svg>