<svg version="1.1" width="105" height="15" xmlns="http://www.w3.org/2000/svg"><path d="M96.45857864376269,9.4L96.95857864376269,8.9L97.45857864376269,8.9L98.92928932188134,7.429289321881345L99.07071067811866,7.570710678118655L97.54142135623731,9.1L97.04142135623731,9.1L96.64142135623732,9.5L99.07071067811866,11.929289321881345L98.92928932188134,12.070710678118655L96.45857864376269,9.6L93.95857864376269,9.6L93.45857864376269,9.1L91.5,9.1L91.5,8.9L93.54142135623731,8.9L94.04142135623731,9.4z" stroke="none"/><path d="M68.95857864376269,8.4L69.45857864376269,7.9L75.45857864376269,7.9L75.95857864376269,7.4L76.5,7.4L76.5,7.6L76.04142135623731,7.6L75.54142135623731,8.1L69.54142135623731,8.1L69.04142135623731,8.6L57.1,8.6L57.1,9.04142135623731L56.54142135623731,9.6L55.04142135623731,9.6L54.54142135623731,10.1L50.04142135623731,10.1L49.54142135623731,10.6L43.5,10.6L43.5,10.4L49.45857864376269,10.4L49.95857864376269,9.9L54.45857864376269,9.9L54.95857864376269,9.4L56.45857864376269,9.4L56.9,8.95857864376269L56.9,8.6L55.45857864376269,8.6L54.45857864376269,7.6L51,7.6L51,7.4L54.54142135623731,7.4L55.54142135623731,8.4z" stroke="none"/><path d="M79.5,8.85857864376269L80.45857864376269,7.9L92.04142135623731,7.9L92.54142135623731,8.4L95.95857864376269,8.4L96.45857864376269,7.9L96.95857864376269,7.9L97.42928932188134,7.429289321881345L97.57071067811866,7.570710678118655L97.04142135623731,8.1L96.54142135623731,8.1L96.04142135623731,8.6L92.45857864376269,8.6L91.95857864376269,8.1L80.54142135623731,8.1L79.64142135623732,9L80.54142135623731,9.9L82.04142135623731,9.9L82.54142135623731,10.4L86.04142135623731,10.4L86.54142135623731,10.9L87.04142135623731,10.9L87.54142135623731,11.4L88.04142135623731,11.4L88.57071067811866,11.929289321881345L88.42928932188134,12.070710678118655L87.95857864376269,11.6L87.45857864376269,11.6L86.95857864376269,11.1L86.45857864376269,11.1L85.95857864376269,10.6L82.45857864376269,10.6L81.95857864376269,10.1L80.45857864376269,10.1L76.95857864376269,6.6L62.54142135623731,6.6L62.04142135623731,7.1L52.95857864376269,7.1L52.45857864376269,6.6L50.54142135623731,6.6L49.57071067811866,7.570710678118655L49.42928932188134,7.429289321881345L50.45857864376269,6.4L52.54142135623731,6.4L53.04142135623731,6.9L61.95857864376269,6.9L62.45857864376269,6.4L77.04142135623731,6.4z" stroke="none"/><path d="M80.9,5.9L80.9,4.5L81.1,4.5L81.1,5.9L85.5,5.9L85.5,6.1L81.1,6.1L81.1,6.45857864376269L81.54142135623731,6.9L91.95857864376269,6.9L92.45857864376269,6.4L95.45857864376269,6.4L95.92928932188134,5.929289321881345L96.07071067811866,6.070710678118655L95.54142135623731,6.6L92.54142135623731,6.6L92.04142135623731,7.1L81.45857864376269,7.1L80.9,6.54142135623731L80.9,6.1L61.5,6.1L61.5,5.9z" stroke="none"/><path d="M17.9,4.4L17.9,4.04142135623731L17.458578643762692,3.6L16.041421356237308,3.6L15.54142135623731,4.1L11.95857864376269,4.1L11.45857864376269,3.6L3.4585786437626904,3.6L2.9292893218813454,3.0707106781186546L3.0707106781186546,2.9292893218813454L3.5414213562373096,3.4L11.54142135623731,3.4L12.04142135623731,3.9L15.45857864376269,3.9L15.95857864376269,3.4L17.541421356237308,3.4L18.1,3.9585786437626904L18.1,4.4L18.458578643762692,4.4L19.458578643762692,3.4L42.54142135623731,3.4L43.04142135623731,3.9L43.54142135623731,3.9L44.04142135623731,4.4L45,4.4L45,4.6L43.95857864376269,4.6L43.45857864376269,4.1L42.95857864376269,4.1L42.45857864376269,3.6L19.541421356237308,3.6L18.541421356237308,4.6L18.1,4.6L18.1,5.04142135623731L17.541421356237308,5.6L17.041421356237308,5.6L16.541421356237308,6.1L16.041421356237308,6.1L15.54142135623731,6.6L14.04142135623731,6.6L13.54142135623731,7.1L11.54142135623731,7.1L11.04142135623731,7.6L7.5,7.6L7.5,7.4L10.95857864376269,7.4L11.45857864376269,6.9L13.45857864376269,6.9L13.95857864376269,6.4L15.45857864376269,6.4L15.95857864376269,5.9L16.458578643762692,5.9L16.958578643762692,5.4L17.458578643762692,5.4L17.9,4.95857864376269L17.9,4.6L16.5,4.6L16.5,4.4z" stroke="none"/><path d="M43.4,6.4L43.4,5.95857864376269L43.95857864376269,5.4L48.45857864376269,5.4L48.95857864376269,4.9L68.04142135623731,4.9L68.54142135623731,5.4L69.95857864376269,5.4L70.45857864376269,4.9L72.45857864376269,4.9L72.95857864376269,4.4L73.5,4.4L73.5,4.6L73.04142135623731,4.6L72.54142135623731,5.1L70.54142135623731,5.1L70.04142135623731,5.6L68.45857864376269,5.6L67.95857864376269,5.1L49.04142135623731,5.1L48.54142135623731,5.6L44.04142135623731,5.6L43.6,6.04142135623731L43.6,6.4L44.04142135623731,6.4L44.54142135623731,6.9L45.54142135623731,6.9L46.54142135623731,7.9L48.54142135623731,7.9L49.04142135623731,8.4L53.04142135623731,8.4L53.54142135623731,8.9L54,8.9L54,9.1L53.45857864376269,9.1L52.95857864376269,8.6L48.95857864376269,8.6L48.45857864376269,8.1L46.45857864376269,8.1L45.45857864376269,7.1L44.45857864376269,7.1L43.95857864376269,6.6L43.6,6.6L43.6,7.04142135623731L43.04142135623731,7.6L24,7.6L24,7.4L42.95857864376269,7.4L43.4,6.95857864376269L43.4,6.6L32.54142135623731,6.6L32.04142135623731,7.1L26.458578643762692,7.1L25.958578643762692,6.6L24.458578643762692,6.6L23.929289321881345,6.070710678118655L24.070710678118655,5.929289321881345L24.541421356237308,6.4L26.041421356237308,6.4L26.541421356237308,6.9L31.958578643762692,6.9L32.45857864376269,6.4z" stroke="none"/><path d="M70.6,10.5L70.4,10.5L70.4,9L70.6,9z" stroke="none"/><path d="M24,12.1L24,11.9L27,11.9L27,12.1z" stroke="none"/><path d="M82.5,12.1L82.5,11.9L85.5,11.9L85.5,12.1z" stroke="none"/><path d="M34.42928932188134,4.429289321881345L34.57071067811866,4.570710678118655L34.04142135623731,5.1L33.04142135623731,5.1L32.04142135623731,6.1L31.5,6.1L31.5,5.9L31.958578643762692,5.9L32.95857864376269,4.9L33.95857864376269,4.9z" stroke="none"/><path d="M93,7.6L93,7.4L95.95857864376269,7.4L96.95857864376269,6.4L99.54142135623731,6.4L100.1,6.95857864376269L100.1,8.04142135623731L99.6,8.54142135623731L99.6,10.95857864376269L100.1,11.45857864376269L100.1,12.54142135623731L99.54142135623731,13.1L94.45857864376269,13.1L93.45857864376269,12.1L93,12.1L93,11.9L93.54142135623731,11.9L94.54142135623731,12.9L99.45857864376269,12.9L99.9,12.45857864376269L99.9,11.54142135623731L99.4,11.04142135623731L99.4,8.45857864376269L99.9,7.95857864376269L99.9,7.04142135623731L99.45857864376269,6.6L97.04142135623731,6.6L96.04142135623731,7.6z" stroke="none"/><path d="M10.5,4.4L10.5,4.6L3.4585786437626904,4.6L2.9585786437626904,4.1L2.4585786437626904,4.1L1.9,3.5414213562373096L1.9,2.4585786437626904L2.4585786437626904,1.9L13.54142135623731,1.9L14.04142135623731,2.4L14.54142135623731,2.4L15.070710678118655,2.9292893218813454L14.929289321881345,3.0707106781186546L14.45857864376269,2.6L13.95857864376269,2.6L13.45857864376269,2.1L2.5414213562373096,2.1L2.1,2.5414213562373096L2.1,3.4585786437626904L2.5414213562373096,3.9L3.0414213562373096,3.9L3.5414213562373096,4.4z" stroke="none"/><path d="M67.5,12.1L67.5,11.9L69.95857864376269,11.9L70.45857864376269,11.4L70.95857864376269,11.4L71.4,10.95857864376269L71.4,9.95857864376269L71.9,9.45857864376269L71.9,9L72.1,9L72.1,9.54142135623731L71.6,10.04142135623731L71.6,11.04142135623731L71.04142135623731,11.6L70.54142135623731,11.6L70.04142135623731,12.1z" stroke="none"/><path d="M87,8.9L87,9.1L81,9.1L81,8.9z" stroke="none"/><path d="M55.5,5.9L55.5,6.1L49.5,6.1L49.5,5.9z" stroke="none"/><path d="M27.070710678118655,10.429289321881345L26.929289321881345,10.570710678118655L25.958578643762692,9.6L25.041421356237308,9.6L24.541421356237308,10.1L22.541421356237308,10.1L22.041421356237308,10.6L21,10.6L21,10.4L21.958578643762692,10.4L22.458578643762692,9.9L24.458578643762692,9.9L24.958578643762692,9.4L26.041421356237308,9.4z" stroke="none"/><path d="M24,9.1L24,8.9L27.041421356237308,8.9L28.041421356237308,9.9L29.541421356237308,9.9L30.070710678118655,10.429289321881345L29.929289321881345,10.570710678118655L29.458578643762692,10.1L27.958578643762692,10.1L26.958578643762692,9.1z" stroke="none"/><path d="M49.5,11.9L49.5,12.1L47.95857864376269,12.1L46.95857864376269,11.1L45.04142135623731,11.1L44.54142135623731,11.6L42.95857864376269,11.6L41.9,10.54142135623731L41.9,9L42.1,9L42.1,10.45857864376269L43.04142135623731,11.4L44.45857864376269,11.4L44.95857864376269,10.9L47.04142135623731,10.9L48.04142135623731,11.9z" stroke="none"/><path d="M12,5.9L12,6.1L7.54142135623731,6.1L6.6,7.04142135623731L6.6,7.95857864376269L7.04142135623731,8.4L13.95857864376269,8.4L14.95857864376269,7.4L15.45857864376269,7.4L15.95857864376269,6.9L16.958578643762692,6.9L18.958578643762692,4.9L20.458578643762692,4.9L20.929289321881345,4.429289321881345L21.070710678118655,4.570710678118655L20.541421356237308,5.1L19.041421356237308,5.1L17.041421356237308,7.1L16.041421356237308,7.1L15.54142135623731,7.6L15.04142135623731,7.6L14.04142135623731,8.6L6.95857864376269,8.6L6.4,8.04142135623731L6.4,6.95857864376269L7.45857864376269,5.9z" stroke="none"/><path d="M30,9.1L30,8.9L40.5,8.9L40.5,9.1z" stroke="none"/><path d="M31.5,4.4L31.5,4.6L25.041421356237308,4.6L24.541421356237308,5.1L23.541421356237308,5.1L21.541421356237308,7.1L19.041421356237308,7.1L18.541421356237308,7.6L17.041421356237308,7.6L16.541421356237308,8.1L16.041421356237308,8.1L15.54142135623731,8.6L15.04142135623731,8.6L14.54142135623731,9.1L6.45857864376269,9.1L1.4,4.04142135623731L1.4,1.9585786437626904L1.9585786437626904,1.4L14.54142135623731,1.4L15.04142135623731,1.9L45.04142135623731,1.9L46.04142135623731,2.9L46.5,2.9L46.5,3.1L45.95857864376269,3.1L44.95857864376269,2.1L14.95857864376269,2.1L14.45857864376269,1.6L2.0414213562373096,1.6L1.6,2.0414213562373096L1.6,3.9585786437626904L6.54142135623731,8.9L14.45857864376269,8.9L14.95857864376269,8.4L15.45857864376269,8.4L15.95857864376269,7.9L16.458578643762692,7.9L16.958578643762692,7.4L18.458578643762692,7.4L18.958578643762692,6.9L21.458578643762692,6.9L23.458578643762692,4.9L24.458578643762692,4.9L24.958578643762692,4.4z" stroke="none"/><path d="M46.5,11.9L46.5,12.1L38.95857864376269,12.1L37.95857864376269,11.1L31.541421356237308,11.1L30.541421356237308,12.1L30,12.1L30,11.9L30.458578643762692,11.9L31.458578643762692,10.9L38.04142135623731,10.9L39.04142135623731,11.9z" stroke="none"/><path d="M84,3.1L84,2.9L102,2.9L102,3.1z" stroke="none"/><path d="M73.5,12.1L73.5,11.9L80.04142135623731,11.9L80.54142135623731,12.4L81.54142135623731,12.4L82.04142135623731,12.9L89.45857864376269,12.9L91.45857864376269,10.9L94.04142135623731,10.9L94.54142135623731,11.4L95.54142135623731,11.4L96.07071067811866,11.929289321881345L95.92928932188134,12.070710678118655L95.45857864376269,11.6L94.45857864376269,11.6L93.95857864376269,11.1L91.54142135623731,11.1L89.54142135623731,13.1L81.95857864376269,13.1L81.45857864376269,12.6L80.45857864376269,12.6L79.95857864376269,12.1z" stroke="none"/><path d="M100.4,10.5L100.6,10.5L100.6,13.04142135623731L100.04142135623731,13.6L73.45857864376269,13.6L72.4,12.54142135623731L72.4,11.45857864376269L72.95857864376269,10.9L75.45857864376269,10.9L77.45857864376269,8.9L78,8.9L78,9.1L77.54142135623731,9.1L75.54142135623731,11.1L73.04142135623731,11.1L72.6,11.54142135623731L72.6,12.45857864376269L73.54142135623731,13.4L99.95857864376269,13.4L100.4,12.95857864376269z" stroke="none"/><path d="M37.5,11.9L37.5,12.1L31.541421356237308,12.1L30.541421356237308,13.1L22.458578643762692,13.1L21.958578643762692,12.6L13.45857864376269,12.6L12.95857864376269,12.1L9,12.1L9,11.9L13.04142135623731,11.9L13.54142135623731,12.4L22.041421356237308,12.4L22.541421356237308,12.9L30.458578643762692,12.9L31.458578643762692,11.9z" stroke="none"/><path d="M100.6,9L100.4,9L100.4,6.54142135623731L99.95857864376269,6.1L97.45857864376269,6.1L96.45857864376269,5.1L83.95857864376269,5.1L83.45857864376269,4.6L82.95857864376269,4.6L82.45857864376269,4.1L81.95857864376269,4.1L81.45857864376269,3.6L70.54142135623731,3.6L69.54142135623731,4.6L69,4.6L69,4.4L69.45857864376269,4.4L70.45857864376269,3.4L81.54142135623731,3.4L82.04142135623731,3.9L82.54142135623731,3.9L83.04142135623731,4.4L83.54142135623731,4.4L84.04142135623731,4.9L96.54142135623731,4.9L97.54142135623731,5.9L100.04142135623731,5.9L100.6,6.45857864376269z" stroke="none"/><path d="M97.5,4.4L97.5,4.6L85.95857864376269,4.6L85.45857864376269,4.1L83.45857864376269,4.1L82.95857864376269,3.6L82.45857864376269,3.6L81.95857864376269,3.1L63,3.1L63,2.9L82.04142135623731,2.9L82.54142135623731,3.4L83.04142135623731,3.4L83.54142135623731,3.9L85.54142135623731,3.9L86.04142135623731,4.4z" stroke="none"/><path d="M25.5,10.4L25.5,10.6L24.041421356237308,10.6L23.541421356237308,11.1L22.041421356237308,11.1L21.541421356237308,11.6L10.45857864376269,11.6L9.95857864376269,11.1L8.54142135623731,11.1L8.1,11.54142135623731L8.1,12.45857864376269L8.54142135623731,12.9L21.541421356237308,12.9L22.041421356237308,13.4L50.45857864376269,13.4L51.45857864376269,12.4L65.45857864376269,12.4L65.92928932188134,11.929289321881345L66.07071067811866,12.070710678118655L65.54142135623731,12.6L51.54142135623731,12.6L50.54142135623731,13.6L21.958578643762692,13.6L21.458578643762692,13.1L8.45857864376269,13.1L7.9,12.54142135623731L7.9,11.45857864376269L8.45857864376269,10.9L10.04142135623731,10.9L10.54142135623731,11.4L21.458578643762692,11.4L21.958578643762692,10.9L23.458578643762692,10.9L23.958578643762692,10.4z" stroke="none"/><path d="M58.5,3.1L58.5,2.9L61.45857864376269,2.9L62.45857864376269,1.9L102.54142135623731,1.9L103.1,2.4585786437626904L103.1,3.5414213562373096L102.6,4.04142135623731L102.6,5.54142135623731L102.07071067811866,6.070710678118655L101.92928932188134,5.929289321881345L102.4,5.45857864376269L102.4,3.9585786437626904L102.9,3.4585786437626904L102.9,2.5414213562373096L102.45857864376269,2.1L62.54142135623731,2.1L61.54142135623731,3.1z" stroke="none"/></svg>