<svg version="1.1" width="105" height="15" xmlns="http://www.w3.org/2000/svg"><path d="M37.5,7.3L37.5,7.7L31.58284271247462,7.7L30.2,9.08284271247462L30.2,10.5L29.8,10.5L29.8,8.91715728752538L31.017157287525382,7.7L29.91715728752538,7.7L28.41715728752538,6.2L27,6.2L27,5.8L28.58284271247462,5.8L30.08284271247462,7.3z" stroke="none"/><path d="M40.3,4.3L40.3,3.082842712474619L38.917157287525384,1.7L36.082842712474616,1.7L34.582842712474616,3.2L30.08284271247462,3.2L28.58284271247462,4.7L21.08284271247462,4.7L19.64142135623731,6.141421356237309L19.35857864376269,5.858578643762691L20.91715728752538,4.3L28.41715728752538,4.3L29.91715728752538,2.8L34.417157287525384,2.8L35.917157287525384,1.3L39.082842712474616,1.3L40.7,2.917157287525381L40.7,4.3L67.5,4.3L67.5,4.7L34.5,4.7L34.5,4.3z" stroke="none"/><path d="M86.8,7.3L86.8,5.917157287525381L88.41715728752538,4.3L90.08284271247462,4.3L91.58284271247462,5.8L93,5.8L93,6.2L91.41715728752538,6.2L89.91715728752538,4.7L88.58284271247462,4.7L87.2,6.082842712474619L87.2,7.3L90,7.3L90,7.7L87.2,7.7L87.2,8.91715728752538L88.58284271247462,10.3L89.91715728752538,10.3L92.91715728752538,7.3L99.08284271247462,7.3L100.58284271247462,8.8L102,8.8L102,9.2L100.41715728752538,9.2L98.91715728752538,7.7L93.08284271247462,7.7L90.08284271247462,10.7L88.41715728752538,10.7L86.8,9.08284271247462L86.8,7.7L85.41715728752538,7.7L82.41715728752538,4.7L80.91715728752538,4.7L79.41715728752538,3.2L73.58284271247462,3.2L72.08284271247462,4.7L70.58284271247462,4.7L69.08284271247462,6.2L67.5,6.2L67.5,5.8L68.91715728752538,5.8L70.41715728752538,4.3L71.91715728752538,4.3L73.41715728752538,2.8L79.58284271247462,2.8L81.08284271247462,4.3L82.58284271247462,4.3L85.58284271247462,7.3z" stroke="none"/><path d="M74.91715728752538,8.8L76.41715728752538,7.3L78,7.3L78,7.7L76.58284271247462,7.7L75.48284271247462,8.8L79.58284271247462,8.8L81.08284271247462,10.3L85.58284271247462,10.3L87.08284271247462,11.8L91.41715728752538,11.8L94.41715728752538,8.8L96,8.8L96,9.2L94.58284271247462,9.2L91.58284271247462,12.2L86.91715728752538,12.2L85.41715728752538,10.7L80.91715728752538,10.7L79.41715728752538,9.2L75.2,9.2L75.2,10.58284271247462L73.58284271247462,12.2L58.5,12.2L58.5,11.8L73.41715728752538,11.8L74.8,10.41715728752538L74.8,9.2L69,9.2L69,8.8z" stroke="none"/><path d="M12.2,12L11.8,12L11.8,10.5L12.2,10.5z" stroke="none"/><path d="M76.35857864376268,4.641421356237309L76.64142135623732,4.358578643762691L78.14142135623732,5.858578643762691L77.85857864376268,6.141421356237309z" stroke="none"/><path d="M10.64142135623731,9.14142135623731L10.35857864376269,8.85857864376269L11.85857864376269,7.358578643762691L12.14142135623731,7.641421356237309z" stroke="none"/><path d="M23.8,7.5L24.2,7.5L24.2,10.41715728752538L25.64142135623731,11.85857864376269L25.35857864376269,12.14142135623731L23.8,10.58284271247462z" stroke="none"/><path d="M16.5,12.2L16.5,11.8L20.91715728752538,11.8L22.35857864376269,10.35857864376269L22.64142135623731,10.64142135623731L21.08284271247462,12.2z" stroke="none"/><path d="M96,10.7L96,10.3L99.08284271247462,10.3L100.58284271247462,11.8L102,11.8L102,12.2L100.41715728752538,12.2L98.91715728752538,10.7z" stroke="none"/><path d="M6,7.7L6,7.3L7.582842712474619,7.3L9.2,8.91715728752538L9.2,10.41715728752538L10.64142135623731,11.85857864376269L10.35857864376269,12.14142135623731L8.8,10.58284271247462L8.8,9.08284271247462L7.417157287525381,7.7z" stroke="none"/><path d="M57,5.8L57,6.2L48,6.2L48,5.8z" stroke="none"/><path d="M96,2.8L96,3.2L87.08284271247462,3.2L85.64142135623732,4.641421356237309L85.35857864376268,4.358578643762691L86.91715728752538,2.8z" stroke="none"/><path d="M42,7.7L42,7.3L54,7.3L54,7.7z" stroke="none"/><path d="M60,9.2L60,8.8L66.08284271247462,8.8L67.58284271247462,10.3L72,10.3L72,10.7L67.41715728752538,10.7L65.91715728752538,9.2z" stroke="none"/><path d="M48,3.2L48,2.8L61.5,2.8L61.5,3.2z" stroke="none"/><path d="M6,8.8L6,9.2L4.417157287525381,9.2L2.8,7.582842712474619L2.8,5.917157287525381L4.417157287525381,4.3L9.08284271247462,4.3L10.58284271247462,5.8L13.58284271247462,5.8L18.08284271247462,10.3L19.41715728752538,10.3L20.8,8.91715728752538L20.8,7.5L21.2,7.5L21.2,9.08284271247462L19.58284271247462,10.7L17.91715728752538,10.7L13.41715728752538,6.2L10.41715728752538,6.2L8.91715728752538,4.7L4.582842712474619,4.7L3.2,6.082842712474619L3.2,7.417157287525381L4.582842712474619,8.8z" stroke="none"/><path d="M34.5,6.2L34.5,5.8L39.082842712474616,5.8L40.7,7.417157287525381L40.7,8.91715728752538L42.082842712474616,10.3L47.917157287525384,10.3L49.417157287525384,8.8L51,8.8L51,9.2L49.582842712474616,9.2L48.082842712474616,10.7L41.917157287525384,10.7L40.3,9.08284271247462L40.3,7.582842712474619L38.917157287525384,6.2z" stroke="none"/><path d="M49.5,11.8L49.5,12.2L34.417157287525384,12.2L32.917157287525384,10.7L31.5,10.7L31.5,10.3L33.082842712474616,10.3L34.582842712474616,11.8z" stroke="none"/><path d="M61.5,10.3L61.5,10.7L54.082842712474616,10.7L51.082842712474616,13.7L7.417157287525381,13.7L4.417157287525381,10.7L2.917157287525381,10.7L1.3,9.08284271247462L1.3,4.417157287525381L2.917157287525381,2.8L10.58284271247462,2.8L12.08284271247462,4.3L15.08284271247462,4.3L18.08284271247462,7.3L19.5,7.3L19.5,7.7L17.91715728752538,7.7L14.91715728752538,4.7L11.91715728752538,4.7L10.41715728752538,3.2L3.082842712474619,3.2L1.7,4.582842712474619L1.7,8.91715728752538L3.082842712474619,10.3L4.582842712474619,10.3L7.582842712474619,13.3L50.917157287525384,13.3L53.917157287525384,10.3z" stroke="none"/></svg>