<svg version="1.1" width="105" height="15" xmlns="http://www.w3.org/2000/svg"><path d="M91.58284271247462,2.8L93.08284271247462,4.3L94.5,4.3L94.5,4.7L92.91715728752538,4.7L91.41715728752538,3.2L87.48284271247462,3.2L88.58284271247462,4.3L90.08284271247462,4.3L91.64142135623732,5.858578643762691L91.35857864376268,6.141421356237309L89.91715728752538,4.7L88.41715728752538,4.7L86.91715728752538,3.2L84.08284271247462,3.2L81.08284271247462,6.2L76.5,6.2L76.5,5.8L80.91715728752538,5.8L83.91715728752538,2.8z" stroke="none"/><path d="M40.417157287525384,5.8L41.917157287525384,4.3L45,4.3L45,4.7L42.082842712474616,4.7L40.582842712474616,6.2L37.7,6.2L37.7,7.417157287525381L39.082842712474616,8.8L46.417157287525384,8.8L47.917157287525384,7.3L49.5,7.3L49.5,7.7L48.082842712474616,7.7L46.582842712474616,9.2L38.917157287525384,9.2L37.3,7.582842712474619L37.3,6.2L30.08284271247462,6.2L27.08284271247462,9.2L21,9.2L21,8.8L26.91715728752538,8.8L29.91715728752538,5.8z" stroke="none"/><path d="M52.3,10.3L52.3,8.91715728752538L53.917157287525384,7.3L58.582842712474616,7.3L60.082842712474616,8.8L63,8.8L63,9.2L59.917157287525384,9.2L58.417157287525384,7.7L54.082842712474616,7.7L52.7,9.08284271247462L52.7,10.3L63,10.3L63,10.7L52.582842712474616,10.7L51.082842712474616,12.2L49.5,12.2L49.5,11.8L50.917157287525384,11.8L52.01715728752538,10.7L30.08284271247462,10.7L28.58284271247462,12.2L25.5,12.2L25.5,11.8L28.41715728752538,11.8L29.91715728752538,10.3z" stroke="none"/><path d="M23.8,4.0171572875253805L23.8,2.917157287525381L25.41715728752538,1.3L39.082842712474616,1.3L40.582842712474616,2.8L46.582842712474616,2.8L48.2,4.417157287525381L48.2,6L47.8,6L47.8,4.582842712474619L46.417157287525384,3.2L40.417157287525384,3.2L38.917157287525384,1.7L25.58284271247462,1.7L24.2,3.082842712474619L24.2,4.3L25.41715728752538,4.3L26.91715728752538,2.8L34.5,2.8L34.5,3.2L27.08284271247462,3.2L25.58284271247462,4.7L24.08284271247462,4.7L22.58284271247462,6.2L13.41715728752538,6.2L11.91715728752538,4.7L10.5,4.7L10.5,4.3L12.08284271247462,4.3L13.58284271247462,5.8L22.41715728752538,5.8L23.71715728752538,4.5L22.41715728752538,3.2L20.91715728752538,3.2L19.41715728752538,1.7L16.58284271247462,1.7L15.08284271247462,3.2L4.582842712474619,3.2L3.1414213562373097,4.641421356237309L2.8585786437626903,4.358578643762691L4.417157287525381,2.8L14.91715728752538,2.8L16.41715728752538,1.3L19.58284271247462,1.3L21.08284271247462,2.8L22.58284271247462,2.8z" stroke="none"/><path d="M94.5,7.3L94.5,7.7L93,7.7L93,7.3z" stroke="none"/><path d="M97.3,6L97.7,6L97.7,7.5L97.3,7.5z" stroke="none"/><path d="M21,4.3L21,4.7L19.41715728752538,4.7L17.85857864376269,3.1414213562373097L18.14142135623731,2.8585786437626903L19.58284271247462,4.3z" stroke="none"/><path d="M66,4.3L66,4.7L64.41715728752538,4.7L62.917157287525384,3.2L61.5,3.2L61.5,2.8L63.082842712474616,2.8L64.58284271247462,4.3z" stroke="none"/><path d="M102.2,7.5L101.8,7.5L101.8,4.582842712474619L100.41715728752538,3.2L96,3.2L96,2.8L100.58284271247462,2.8L102.2,4.417157287525381z" stroke="none"/><path d="M18,11.8L18,12.2L16.41715728752538,12.2L14.91715728752538,10.7L11.91715728752538,10.7L10.35857864376269,9.14142135623731L10.64142135623731,8.85857864376269L12.08284271247462,10.3L15.08284271247462,10.3L16.58284271247462,11.8z" stroke="none"/><path d="M88.35857864376268,6.141421356237309L88.64142135623732,5.858578643762691L91.58284271247462,8.8L94.58284271247462,8.8L96.14142135623732,10.35857864376269L95.85857864376268,10.64142135623731L94.41715728752538,9.2L91.41715728752538,9.2z" stroke="none"/><path d="M74.8,4.5L75.2,4.5L75.2,7.417157287525381L76.58284271247462,8.8L77.91715728752538,8.8L79.41715728752538,7.3L82.41715728752538,7.3L83.85857864376268,5.858578643762691L84.14142135623732,6.141421356237309L82.58284271247462,7.7L79.58284271247462,7.7L78.08284271247462,9.2L76.41715728752538,9.2L74.8,7.582842712474619z" stroke="none"/><path d="M87,7.3L87,7.7L85.58284271247462,7.7L84.08284271247462,9.2L81.08284271247462,9.2L79.58284271247462,10.7L74.91715728752538,10.7L71.8,7.582842712474619L71.8,4.417157287525381L73.41715728752538,2.8L76.58284271247462,2.8L78.14142135623732,4.358578643762691L77.85857864376268,4.641421356237309L76.41715728752538,3.2L73.58284271247462,3.2L72.2,4.582842712474619L72.2,7.417157287525381L75.08284271247462,10.3L79.41715728752538,10.3L80.91715728752538,8.8L83.91715728752538,8.8L85.41715728752538,7.3z" stroke="none"/><path d="M30,4.3L30,4.7L28.58284271247462,4.7L27.08284271247462,6.2L25.58284271247462,6.2L24.08284271247462,7.7L21,7.7L21,7.3L23.91715728752538,7.3L25.41715728752538,5.8L26.91715728752538,5.8L28.41715728752538,4.3z" stroke="none"/><path d="M58.5,11.8L58.5,12.2L54.082842712474616,12.2L52.582842712474616,13.7L47.917157287525384,13.7L46.35857864376269,12.14142135623731L46.64142135623731,11.85857864376269L48.082842712474616,13.3L52.417157287525384,13.3L53.917157287525384,11.8z" stroke="none"/><path d="M25.5,10.3L25.5,10.7L17.91715728752538,10.7L16.41715728752538,9.2L13.5,9.2L13.5,8.8L16.58284271247462,8.8L18.08284271247462,10.3z" stroke="none"/><path d="M79.7,4.5L79.3,4.5L79.3,3.082842712474619L77.91715728752538,1.7L72.08284271247462,1.7L67.58284271247462,6.2L62.917157287525384,6.2L61.35857864376269,4.641421356237309L61.64142135623731,4.358578643762691L63.082842712474616,5.8L67.41715728752538,5.8L71.91715728752538,1.3L78.08284271247462,1.3L79.7,2.917157287525381z" stroke="none"/><path d="M91.5,10.3L91.5,10.7L84.08284271247462,10.7L82.58284271247462,12.2L73.41715728752538,12.2L70.35857864376268,9.14142135623731L70.64142135623732,8.85857864376269L73.58284271247462,11.8L82.41715728752538,11.8L83.91715728752538,10.3z" stroke="none"/><path d="M34.5,11.8L34.5,12.2L31.58284271247462,12.2L30.08284271247462,13.7L8.91715728752538,13.7L7.417157287525381,12.2L6,12.2L6,11.8L7.582842712474619,11.8L9.08284271247462,13.3L29.91715728752538,13.3L31.41715728752538,11.8z" stroke="none"/><path d="M98.8,4.5L99.2,4.5L99.2,9.08284271247462L97.7,10.58284271247462L97.7,12.08284271247462L96.08284271247462,13.7L71.91715728752538,13.7L67.41715728752538,9.2L65.91715728752538,9.2L64.41715728752538,7.7L61.417157287525384,7.7L59.917157287525384,6.2L55.417157287525384,6.2L53.85857864376269,4.641421356237309L54.14142135623731,4.358578643762691L55.582842712474616,5.8L60.082842712474616,5.8L61.582842712474616,7.3L64.58284271247462,7.3L66.08284271247462,8.8L67.58284271247462,8.8L72.08284271247462,13.3L95.91715728752538,13.3L97.3,11.91715728752538L97.3,10.41715728752538L98.8,8.91715728752538z" stroke="none"/></svg>