<svg version="1.1" width="105" height="15" xmlns="http://www.w3.org/2000/svg"><path d="M58.5,10.3L58.5,10.7L54.48284271247462,10.7L55.582842712474616,11.8L57,11.8L57,12.2L55.417157287525384,12.2L53.917157287525384,10.7L49.5,10.7L49.5,10.3z" stroke="none"/><path d="M36,10.3L36,10.7L31.7,10.7L31.7,11.91715728752538L33.082842712474616,13.3L40.417157287525384,13.3L41.917157287525384,11.8L49.5,11.8L49.5,12.2L42.082842712474616,12.2L40.582842712474616,13.7L32.917157287525384,13.7L31.3,12.08284271247462L31.3,10.7L12,10.7L12,10.3z" stroke="none"/><path d="M65.8,8.8L65.8,7.582842712474619L64.41715728752538,6.2L63.082842712474616,6.2L61.582842712474616,7.7L46.582842712474616,7.7L45.082842712474616,9.2L43.582842712474616,9.2L42.082842712474616,10.7L37.5,10.7L37.5,10.3L41.917157287525384,10.3L43.417157287525384,8.8L44.917157287525384,8.8L46.417157287525384,7.3L61.417157287525384,7.3L62.917157287525384,5.8L64.58284271247462,5.8L66.2,7.417157287525381L66.2,8.8L82.41715728752538,8.8L83.85857864376268,7.358578643762691L84.14142135623732,7.641421356237309L82.58284271247462,9.2L66.2,9.2L66.2,10.41715728752538L67.58284271247462,11.8L87,11.8L87,12.2L67.41715728752538,12.2L65.8,10.58284271247462L65.8,9.2L58.5,9.2L58.5,8.8z" stroke="none"/><path d="M40.3,5.8L40.3,4.417157287525381L41.917157287525384,2.8L43.582842712474616,2.8L45.082842712474616,4.3L58.582842712474616,4.3L60.14142135623731,5.858578643762691L59.85857864376269,6.141421356237309L58.417157287525384,4.7L44.917157287525384,4.7L43.417157287525384,3.2L42.082842712474616,3.2L40.7,4.582842712474619L40.7,5.8L57,5.8L57,6.2L40.7,6.2L40.7,7.582842712474619L39.082842712474616,9.2L16.5,9.2L16.5,8.8L38.917157287525384,8.8L40.3,7.417157287525381L40.3,6.2L37.582842712474616,6.2L36.082842712474616,7.7L31.5,7.7L31.5,7.3L35.917157287525384,7.3L37.417157287525384,5.8z" stroke="none"/><path d="M100.7,7.5L100.3,7.5L100.3,6L100.7,6z" stroke="none"/><path d="M22.64142135623731,6.141421356237309L22.35857864376269,5.858578643762691L23.85857864376269,4.358578643762691L24.14142135623731,4.641421356237309z" stroke="none"/><path d="M75,4.3L75,4.7L72,4.7L72,4.3z" stroke="none"/><path d="M10.7,12L10.3,12L10.3,7.5L10.7,7.5z" stroke="none"/><path d="M7.3,4.5L7.7,4.5L7.7,7.582842712474619L6.141421356237309,9.14142135623731L5.858578643762691,8.85857864376269L7.3,7.417157287525381z" stroke="none"/><path d="M6.141421356237309,12.14142135623731L5.858578643762691,11.85857864376269L8.8,8.91715728752538L8.8,7.5L9.2,7.5L9.2,9.08284271247462z" stroke="none"/><path d="M100.5,8.8L100.5,9.2L97.58284271247462,9.2L96.08284271247462,10.7L94.5,10.7L94.5,10.3L95.91715728752538,10.3L97.41715728752538,8.8z" stroke="none"/><path d="M84,2.8L84,3.2L79.58284271247462,3.2L78.14142135623732,4.641421356237309L77.85857864376268,4.358578643762691L79.41715728752538,2.8z" stroke="none"/><path d="M18,5.8L18,6.2L16.41715728752538,6.2L13.41715728752538,3.2L10.5,3.2L10.5,2.8L13.58284271247462,2.8L16.58284271247462,5.8z" stroke="none"/><path d="M8.85857864376269,11.85857864376269L9.14142135623731,12.14142135623731L7.582842712474619,13.7L4.417157287525381,13.7L2.8,12.08284271247462L2.8,10.41715728752538L4.3,8.91715728752538L4.3,7.417157287525381L5.8,5.917157287525381L5.8,4.582842712474619L4.417157287525381,3.2L3.082842712474619,3.2L1.7,4.582842712474619L1.7,8.91715728752538L3.2,10.41715728752538L3.2,11.91715728752538L4.582842712474619,13.3L14.91715728752538,13.3L16.41715728752538,11.8L18,11.8L18,12.2L16.58284271247462,12.2L15.08284271247462,13.7L4.417157287525381,13.7L2.8,12.08284271247462L2.8,10.58284271247462L1.3,9.08284271247462L1.3,4.417157287525381L2.917157287525381,2.8L4.582842712474619,2.8L6.2,4.417157287525381L6.2,6.082842712474619L4.7,7.582842712474619L4.7,9.08284271247462L3.2,10.58284271247462L3.2,11.91715728752538L4.582842712474619,13.3L7.417157287525381,13.3z" stroke="none"/><path d="M10.5,4.7L10.5,4.3L12.08284271247462,4.3L15.08284271247462,7.3L24,7.3L24,7.7L14.91715728752538,7.7L11.91715728752538,4.7z" stroke="none"/><path d="M88.64142135623732,8.85857864376269L88.35857864376268,9.14142135623731L85.41715728752538,6.2L81.08284271247462,6.2L79.58284271247462,7.7L72,7.7L72,7.3L79.41715728752538,7.3L80.91715728752538,5.8L85.58284271247462,5.8z" stroke="none"/><path d="M93,11.8L93,12.2L89.91715728752538,12.2L88.41715728752538,10.7L73.5,10.7L73.5,10.3L88.58284271247462,10.3L90.08284271247462,11.8z" stroke="none"/><path d="M94.5,4.3L94.5,4.7L88.41715728752538,4.7L85.41715728752538,1.7L70.58284271247462,1.7L69.2,3.082842712474619L69.2,4.417157287525381L70.58284271247462,5.8L72,5.8L72,6.2L70.41715728752538,6.2L68.8,4.582842712474619L68.8,2.917157287525381L70.41715728752538,1.3L85.58284271247462,1.3L88.58284271247462,4.3z" stroke="none"/><path d="M64.5,4.3L64.5,4.7L62.917157287525384,4.7L61.417157287525384,3.2L46.417157287525384,3.2L44.917157287525384,1.7L36.082842712474616,1.7L34.64142135623731,3.1414213562373097L34.35857864376269,2.8585786437626903L35.917157287525384,1.3L45.082842712474616,1.3L46.582842712474616,2.8L61.582842712474616,2.8L63.082842712474616,4.3z" stroke="none"/><path d="M91.64142135623732,9.14142135623731L91.35857864376268,8.85857864376269L94.41715728752538,5.8L97.41715728752538,5.8L98.91715728752538,4.3L102.08284271247462,4.3L103.7,5.917157287525381L103.7,9.08284271247462L102.08284271247462,10.7L99.08284271247462,10.7L97.58284271247462,12.2L96.08284271247462,12.2L94.58284271247462,13.7L65.91715728752538,13.7L62.917157287525384,10.7L61.5,10.7L61.5,10.3L63.082842712474616,10.3L66.08284271247462,13.3L94.41715728752538,13.3L95.91715728752538,11.8L97.41715728752538,11.8L98.91715728752538,10.3L101.91715728752538,10.3L103.3,8.91715728752538L103.3,6.082842712474619L101.91715728752538,4.7L99.08284271247462,4.7L97.58284271247462,6.2L94.58284271247462,6.2z" stroke="none"/></svg>