<svg version="1.1" width="105" height="15" xmlns="http://www.w3.org/2000/svg"><path d="M64.58284271247462,8.8L66.08284271247462,10.3L72.08284271247462,10.3L73.58284271247462,11.8L75,11.8L75,12.2L73.41715728752538,12.2L71.91715728752538,10.7L65.91715728752538,10.7L64.41715728752538,9.2L61.7,9.2L61.7,10.58284271247462L60.082842712474616,12.2L56.917157287525384,12.2L53.917157287525384,9.2L52.5,9.2L52.5,8.8L54.082842712474616,8.8L57.082842712474616,11.8L59.917157287525384,11.8L61.3,10.41715728752538L61.3,9.2L59.917157287525384,9.2L58.417157287525384,7.7L57,7.7L57,7.3L58.582842712474616,7.3L60.082842712474616,8.8z" stroke="none"/><path d="M65.8,5.8L65.8,4.417157287525381L67.41715728752538,2.8L75.08284271247462,2.8L76.58284271247462,4.3L79.5,4.3L79.5,4.7L76.41715728752538,4.7L74.91715728752538,3.2L67.58284271247462,3.2L66.2,4.582842712474619L66.2,5.8L72.08284271247462,5.8L73.58284271247462,7.3L75,7.3L75,7.7L73.41715728752538,7.7L71.91715728752538,6.2L58.417157287525384,6.2L56.917157287525384,4.7L48.082842712474616,4.7L46.582842712474616,6.2L45,6.2L45,5.8L46.417157287525384,5.8L47.917157287525384,4.3L57.082842712474616,4.3L58.582842712474616,5.8z" stroke="none"/><path d="M17.8,4.3L17.8,3.082842712474619L16.41715728752538,1.7L12.08284271247462,1.7L10.58284271247462,3.2L9,3.2L9,2.8L10.41715728752538,2.8L11.91715728752538,1.3L16.58284271247462,1.3L18.2,2.917157287525381L18.2,4.3L28.41715728752538,4.3L29.91715728752538,2.8L33.082842712474616,2.8L34.7,4.417157287525381L34.7,7.5L34.3,7.5L34.3,4.582842712474619L32.917157287525384,3.2L30.08284271247462,3.2L28.58284271247462,4.7L18.2,4.7L18.2,5.917157287525381L19.64142135623731,7.358578643762691L19.35857864376269,7.641421356237309L17.8,6.082842712474619L17.8,4.7L13.58284271247462,4.7L12.2,6.082842712474619L12.2,7.5L11.8,7.5L11.8,5.917157287525381L13.41715728752538,4.3z" stroke="none"/><path d="M85.58284271247462,10.3L87.14142135623732,11.85857864376269L86.85857864376268,12.14142135623731L85.41715728752538,10.7L81.2,10.7L81.2,11.91715728752538L82.58284271247462,13.3L97.41715728752538,13.3L98.85857864376268,11.85857864376269L99.14142135623732,12.14142135623731L97.58284271247462,13.7L82.41715728752538,13.7L80.8,12.08284271247462L80.8,10.98284271247462L79.58284271247462,12.2L78.08284271247462,12.2L76.58284271247462,13.7L71.91715728752538,13.7L70.35857864376268,12.14142135623731L70.64142135623732,11.85857864376269L72.08284271247462,13.3L76.41715728752538,13.3L77.91715728752538,11.8L79.41715728752538,11.8L80.51715728752538,10.7L74.91715728752538,10.7L73.41715728752538,9.2L69,9.2L69,8.8L73.58284271247462,8.8L75.08284271247462,10.3z" stroke="none"/><path d="M52.5,5.8L52.5,6.2L51,6.2L51,5.8z" stroke="none"/><path d="M88.5,3.2L88.5,2.8L90,2.8L90,3.2z" stroke="none"/><path d="M76.5,7.7L76.5,7.3L78,7.3L78,7.7z" stroke="none"/><path d="M31.3,4.5L31.7,4.5L31.7,7.5L31.3,7.5z" stroke="none"/><path d="M102,10.3L102,10.7L100.41715728752538,10.7L98.91715728752538,9.2L97.5,9.2L97.5,8.8L99.08284271247462,8.8L100.58284271247462,10.3z" stroke="none"/><path d="M94.7,12L94.3,12L94.3,8.91715728752538L95.91715728752538,7.3L97.5,7.3L97.5,7.7L96.08284271247462,7.7L94.7,9.08284271247462z" stroke="none"/><path d="M97.35857864376268,4.358578643762691L97.64142135623732,4.641421356237309L96.08284271247462,6.2L94.58284271247462,6.2L93.2,7.582842712474619L93.2,9L92.8,9L92.8,7.417157287525381L94.41715728752538,5.8L95.91715728752538,5.8z" stroke="none"/><path d="M4.5,6.2L4.5,5.8L6.082842712474619,5.8L10.58284271247462,10.3L11.91715728752538,10.3L13.3,8.91715728752538L13.3,7.5L13.7,7.5L13.7,9.08284271247462L12.08284271247462,10.7L10.41715728752538,10.7L5.917157287525381,6.2z" stroke="none"/><path d="M32.8,7.5L33.2,7.5L33.2,8.91715728752538L34.582842712474616,10.3L38.917157287525384,10.3L40.3,8.91715728752538L40.3,7.417157287525381L41.85857864376269,5.858578643762691L42.14142135623731,6.141421356237309L40.7,7.582842712474619L40.7,9.08284271247462L39.082842712474616,10.7L34.417157287525384,10.7L32.8,9.08284271247462z" stroke="none"/><path d="M49.5,10.3L49.5,10.7L44.917157287525384,10.7L43.3,9.08284271247462L43.3,4.582842712474619L41.917157287525384,3.2L40.582842712474616,3.2L37.64142135623731,6.141421356237309L37.35857864376269,5.858578643762691L40.417157287525384,2.8L42.082842712474616,2.8L43.7,4.417157287525381L43.7,8.91715728752538L45.082842712474616,10.3z" stroke="none"/><path d="M100.5,2.8L100.5,3.2L96.08284271247462,3.2L94.58284271247462,4.7L93.08284271247462,4.7L91.58284271247462,6.2L90.08284271247462,6.2L88.58284271247462,7.7L87,7.7L87,7.3L88.41715728752538,7.3L89.91715728752538,5.8L91.41715728752538,5.8L92.91715728752538,4.3L94.41715728752538,4.3L95.91715728752538,2.8z" stroke="none"/><path d="M9,12.2L9,11.8L20.91715728752538,11.8L22.41715728752538,10.3L25.5,10.3L25.5,10.7L22.58284271247462,10.7L21.08284271247462,12.2z" stroke="none"/><path d="M102.14142135623732,7.641421356237309L101.85857864376268,7.358578643762691L103.3,5.917157287525381L103.3,3.082842712474619L101.91715728752538,1.7L87.08284271247462,1.7L85.64142135623732,3.1414213562373097L85.35857864376268,2.8585786437626903L86.91715728752538,1.3L102.08284271247462,1.3L103.7,2.917157287525381L103.7,6.082842712474619z" stroke="none"/><path d="M28.35857864376269,9.14142135623731L28.64142135623731,8.85857864376269L30.08284271247462,10.3L31.58284271247462,10.3L33.082842712474616,11.8L46.5,11.8L46.5,12.2L32.917157287525384,12.2L31.41715728752538,10.7L29.91715728752538,10.7z" stroke="none"/><path d="M25.3,6L25.7,6L25.7,7.417157287525381L27.2,8.91715728752538L27.2,10.41715728752538L28.58284271247462,11.8L30.08284271247462,11.8L31.58284271247462,13.3L49.417157287525384,13.3L50.8,11.91715728752538L50.8,9.08284271247462L49.417157287525384,7.7L45,7.7L45,7.3L49.582842712474616,7.3L51.2,8.91715728752538L51.2,12.08284271247462L49.582842712474616,13.7L31.41715728752538,13.7L29.91715728752538,12.2L28.41715728752538,12.2L26.8,10.58284271247462L26.8,9.08284271247462L25.3,7.582842712474619z" stroke="none"/><path d="M78,6.2L78,5.8L80.91715728752538,5.8L82.3,4.417157287525381L82.3,3.082842712474619L80.91715728752538,1.7L39.082842712474616,1.7L36.2,4.582842712474619L36.2,7.417157287525381L37.64142135623731,8.85857864376269L37.35857864376269,9.14142135623731L35.8,7.582842712474619L35.8,4.417157287525381L38.917157287525384,1.3L81.08284271247462,1.3L82.7,2.917157287525381L82.7,4.582842712474619L81.08284271247462,6.2z" stroke="none"/></svg>