<svg version="1.1" width="105" height="15" xmlns="http://www.w3.org/2000/svg"><path d="M87.08284271247462,5.8L90.08284271247462,8.8L93,8.8L93,9.2L89.91715728752538,9.2L86.91715728752538,6.2L84.2,6.2L84.2,7.417157287525381L85.64142135623732,8.85857864376269L85.35857864376268,9.14142135623731L83.8,7.582842712474619L83.8,6.2L82.58284271247462,6.2L79.64142135623732,9.14142135623731L79.35857864376268,8.85857864376269L82.41715728752538,5.8z" stroke="none"/><path d="M68.91715728752538,4.3L73.5,4.3L73.5,4.7L69.48284271247462,4.7L70.58284271247462,5.8L72,5.8L72,6.2L70.41715728752538,6.2L69,4.782842712474619L67.7,6.082842712474619L67.7,7.582842712474619L66.14142135623732,9.14142135623731L65.85857864376268,8.85857864376269L67.3,7.417157287525381L67.3,5.917157287525381z" stroke="none"/><path d="M38.8,4.3L38.8,2.917157287525381L40.417157287525384,1.3L42.082842712474616,1.3L43.582842712474616,2.8L45.082842712474616,2.8L46.582842712474616,4.3L48.082842712474616,4.3L49.582842712474616,5.8L51,5.8L51,6.2L49.417157287525384,6.2L47.917157287525384,4.7L46.417157287525384,4.7L44.917157287525384,3.2L43.417157287525384,3.2L41.917157287525384,1.7L40.582842712474616,1.7L39.2,3.082842712474619L39.2,4.3L40.582842712474616,4.3L42.2,5.917157287525381L42.2,9.08284271247462L40.582842712474616,10.7L39,10.7L39,10.3L40.417157287525384,10.3L41.8,8.91715728752538L41.8,6.082842712474619L40.417157287525384,4.7L39.2,4.7L39.2,5.917157287525381L40.64142135623731,7.358578643762691L40.35857864376269,7.641421356237309L38.8,6.082842712474619L38.8,4.7L37.582842712474616,4.7L36.082842712474616,6.2L34.582842712474616,6.2L33.14142135623731,7.641421356237309L32.85857864376269,7.358578643762691L34.417157287525384,5.8L35.917157287525384,5.8L37.417157287525384,4.3z" stroke="none"/><path d="M76.3,5.8L76.3,4.417157287525381L77.91715728752538,2.8L79.41715728752538,2.8L80.91715728752538,1.3L93.08284271247462,1.3L99.14142135623732,7.358578643762691L98.85857864376268,7.641421356237309L92.91715728752538,1.7L81.08284271247462,1.7L79.58284271247462,3.2L78.08284271247462,3.2L76.7,4.582842712474619L76.7,5.8L79.41715728752538,5.8L80.91715728752538,4.3L90.08284271247462,4.3L91.58284271247462,5.8L93.08284271247462,5.8L96.08284271247462,8.8L97.5,8.8L97.5,9.2L95.91715728752538,9.2L92.91715728752538,6.2L91.41715728752538,6.2L89.91715728752538,4.7L81.08284271247462,4.7L79.58284271247462,6.2L76.7,6.2L76.7,7.582842712474619L73.58284271247462,10.7L70.58284271247462,10.7L69.08284271247462,12.2L59.917157287525384,12.2L58.417157287525384,10.7L56.917157287525384,10.7L53.917157287525384,7.7L52.5,7.7L52.5,7.3L54.082842712474616,7.3L57.082842712474616,10.3L58.582842712474616,10.3L60.082842712474616,11.8L68.91715728752538,11.8L70.41715728752538,10.3L73.41715728752538,10.3L76.3,7.417157287525381L76.3,6.2L75.08284271247462,6.2L73.58284271247462,7.7L70.58284271247462,7.7L67.58284271247462,10.7L62.917157287525384,10.7L61.417157287525384,9.2L58.417157287525384,9.2L55.3,6.082842712474619L55.3,4.5L55.7,4.5L55.7,5.917157287525381L58.582842712474616,8.8L61.582842712474616,8.8L63.082842712474616,10.3L67.41715728752538,10.3L70.41715728752538,7.3L73.41715728752538,7.3L74.91715728752538,5.8z" stroke="none"/><path d="M81.2,12L80.8,12L80.8,10.5L81.2,10.5z" stroke="none"/><path d="M64.7,6L64.3,6L64.3,4.582842712474619L62.85857864376269,3.1414213562373097L63.14142135623731,2.8585786437626903L64.7,4.417157287525381z" stroke="none"/><path d="M60,7.7L60,7.3L63.082842712474616,7.3L64.64142135623732,8.85857864376269L64.35857864376268,9.14142135623731L62.917157287525384,7.7z" stroke="none"/><path d="M49.35857864376269,8.85857864376269L49.64142135623731,9.14142135623731L48.082842712474616,10.7L46.582842712474616,10.7L45.14142135623731,12.14142135623731L44.85857864376269,11.85857864376269L46.417157287525384,10.3L47.917157287525384,10.3z" stroke="none"/><path d="M94.5,10.7L94.5,10.3L102,10.3L102,10.7z" stroke="none"/><path d="M20.85857864376269,4.641421356237309L21.14142135623731,4.358578643762691L22.58284271247462,5.8L24.08284271247462,5.8L27.14142135623731,8.85857864376269L26.85857864376269,9.14142135623731L23.91715728752538,6.2L22.41715728752538,6.2z" stroke="none"/><path d="M24,10.7L24,10.3L29.91715728752538,10.3L31.35857864376269,8.85857864376269L31.64142135623731,9.14142135623731L30.08284271247462,10.7z" stroke="none"/><path d="M13.5,9.2L13.5,8.8L16.41715728752538,8.8L17.91715728752538,7.3L21,7.3L21,7.7L18.08284271247462,7.7L16.58284271247462,9.2z" stroke="none"/><path d="M91.5,2.8L91.5,3.2L82.5,3.2L82.5,2.8z" stroke="none"/><path d="M16.5,3.2L16.5,2.8L22.58284271247462,2.8L24.08284271247462,4.3L25.58284271247462,4.3L27.08284271247462,5.8L28.58284271247462,5.8L30.08284271247462,7.3L31.5,7.3L31.5,7.7L29.91715728752538,7.7L28.41715728752538,6.2L26.91715728752538,6.2L25.41715728752538,4.7L23.91715728752538,4.7L22.41715728752538,3.2z" stroke="none"/><path d="M14.85857864376269,4.358578643762691L15.14142135623731,4.641421356237309L13.58284271247462,6.2L11.91715728752538,6.2L10.3,4.582842712474619L10.3,2.917157287525381L11.91715728752538,1.3L24.08284271247462,1.3L25.58284271247462,2.8L27.08284271247462,2.8L28.58284271247462,4.3L30.08284271247462,4.3L31.64142135623731,5.858578643762691L31.35857864376269,6.141421356237309L29.91715728752538,4.7L28.41715728752538,4.7L26.91715728752538,3.2L25.41715728752538,3.2L23.91715728752538,1.7L12.08284271247462,1.7L10.7,3.082842712474619L10.7,4.417157287525381L12.08284271247462,5.8L13.41715728752538,5.8z" stroke="none"/><path d="M19.5,4.3L19.5,4.7L18.08284271247462,4.7L15.08284271247462,7.7L8.91715728752538,7.7L7.417157287525381,6.2L3,6.2L3,5.8L7.582842712474619,5.8L9.08284271247462,7.3L14.91715728752538,7.3L17.91715728752538,4.3z" stroke="none"/><path d="M75,2.8L75,3.2L67.41715728752538,3.2L65.91715728752538,1.7L61.582842712474616,1.7L60.2,3.082842712474619L60.2,4.582842712474619L58.64142135623731,6.141421356237309L58.35857864376269,5.858578643762691L59.8,4.417157287525381L59.8,2.917157287525381L61.417157287525384,1.3L66.08284271247462,1.3L67.58284271247462,2.8z" stroke="none"/><path d="M53.85857864376269,10.64142135623731L54.14142135623731,10.35857864376269L57.082842712474616,13.3L82.41715728752538,13.3L83.8,11.91715728752538L83.8,10.58284271247462L82.35857864376268,9.14142135623731L82.64142135623732,8.85857864376269L84.2,10.41715728752538L84.2,12.08284271247462L82.58284271247462,13.7L56.917157287525384,13.7z" stroke="none"/><path d="M35.85857864376269,7.358578643762691L36.14142135623731,7.641421356237309L31.58284271247462,12.2L13.41715728752538,12.2L10.41715728752538,9.2L7.417157287525381,9.2L5.858578643762691,7.641421356237309L6.141421356237309,7.358578643762691L7.582842712474619,8.8L10.58284271247462,8.8L13.58284271247462,11.8L31.41715728752538,11.8z" stroke="none"/><path d="M9,4.3L9,4.7L5.917157287525381,4.7L4.417157287525381,3.2L3.082842712474619,3.2L1.7,4.582842712474619L1.7,7.417157287525381L3.082842712474619,8.8L4.582842712474619,8.8L6.082842712474619,10.3L7.582842712474619,10.3L9.08284271247462,11.8L10.58284271247462,11.8L12.08284271247462,13.3L37.417157287525384,13.3L38.917157287525384,11.8L41.917157287525384,11.8L46.417157287525384,7.3L48,7.3L48,7.7L46.582842712474616,7.7L42.082842712474616,12.2L39.082842712474616,12.2L37.582842712474616,13.7L11.91715728752538,13.7L10.41715728752538,12.2L8.91715728752538,12.2L7.417157287525381,10.7L5.917157287525381,10.7L4.417157287525381,9.2L2.917157287525381,9.2L1.3,7.582842712474619L1.3,4.417157287525381L2.917157287525381,2.8L4.582842712474619,2.8L6.082842712474619,4.3z" stroke="none"/></svg>