<svg version="1.1" width="105" height="15" xmlns="http://www.w3.org/2000/svg"><path d="M77.8,11.8L77.8,10.41715728752538L80.91715728752538,7.3L82.41715728752538,7.3L83.91715728752538,5.8L85.58284271247462,5.8L87.2,7.417157287525381L87.2,10.58284271247462L85.58284271247462,12.2L82.5,12.2L82.5,11.8L85.41715728752538,11.8L86.8,10.41715728752538L86.8,7.582842712474619L85.41715728752538,6.2L84.08284271247462,6.2L82.58284271247462,7.7L81.08284271247462,7.7L78.2,10.58284271247462L78.2,11.8L81,11.8L81,12.2L69,12.2L69,11.8z" stroke="none"/><path d="M93.08284271247462,8.8L96,8.8L96,9.2L93.08284271247462,9.2L91.58284271247462,10.7L90,10.7L90,10.3L91.41715728752538,10.3L92.71715728752538,9L91.41715728752538,7.7L90,7.7L90,7.3L91.58284271247462,7.3z" stroke="none"/><path d="M64.3,10.3L64.3,8.91715728752538L65.91715728752538,7.3L70.41715728752538,7.3L71.91715728752538,5.8L80.91715728752538,5.8L82.41715728752538,4.3L87.08284271247462,4.3L88.7,5.917157287525381L88.7,12L88.3,12L88.3,6.082842712474619L86.91715728752538,4.7L82.58284271247462,4.7L81.08284271247462,6.2L72.08284271247462,6.2L70.58284271247462,7.7L66.08284271247462,7.7L64.7,9.08284271247462L64.7,10.3L75,10.3L75,10.7L64.7,10.7L64.7,12.08284271247462L63.082842712474616,13.7L41.917157287525384,13.7L40.35857864376269,12.14142135623731L40.64142135623731,11.85857864376269L42.082842712474616,13.3L62.917157287525384,13.3L64.3,11.91715728752538L64.3,10.7L58.5,10.7L58.5,10.3z" stroke="none"/><path d="M22.3,10.3L22.3,9.08284271247462L20.91715728752538,7.7L19.41715728752538,7.7L17.91715728752538,6.2L13.58284271247462,6.2L12.08284271247462,7.7L10.58284271247462,7.7L9.08284271247462,9.2L6.082842712474619,9.2L3.1414213562373097,12.14142135623731L2.8585786437626903,11.85857864376269L5.917157287525381,8.8L8.91715728752538,8.8L10.41715728752538,7.3L11.91715728752538,7.3L13.41715728752538,5.8L18.08284271247462,5.8L19.58284271247462,7.3L21.08284271247462,7.3L22.7,8.91715728752538L22.7,10.3L24.08284271247462,10.3L25.58284271247462,11.8L34.5,11.8L34.5,12.2L25.41715728752538,12.2L23.91715728752538,10.7L22.7,10.7L22.7,11.91715728752538L24.08284271247462,13.3L35.917157287525384,13.3L38.85857864376269,10.35857864376269L39.14142135623731,10.64142135623731L36.082842712474616,13.7L23.91715728752538,13.7L22.3,12.08284271247462L22.3,10.7L19.41715728752538,10.7L16.41715728752538,7.7L15,7.7L15,7.3L16.58284271247462,7.3L19.58284271247462,10.3z" stroke="none"/><path d="M72.14142135623732,9.14142135623731L71.85857864376268,8.85857864376269L73.35857864376268,7.358578643762691L73.64142135623732,7.641421356237309z" stroke="none"/><path d="M91.5,3.2L91.5,2.8L94.5,2.8L94.5,3.2z" stroke="none"/><path d="M99.14142135623732,5.858578643762691L98.85857864376268,6.141421356237309L97.41715728752538,4.7L96,4.7L96,4.3L97.58284271247462,4.3z" stroke="none"/><path d="M85.35857864376268,8.85857864376269L85.64142135623732,9.14142135623731L84.08284271247462,10.7L82.5,10.7L82.5,10.3L83.91715728752538,10.3z" stroke="none"/><path d="M33,2.8L33,3.2L28.5,3.2L28.5,2.8z" stroke="none"/><path d="M27,10.7L27,10.3L31.5,10.3L31.5,10.7z" stroke="none"/><path d="M52.35857864376269,10.64142135623731L52.64142135623731,10.35857864376269L54.082842712474616,11.8L55.417157287525384,11.8L56.8,10.41715728752538L56.8,9L57.2,9L57.2,10.58284271247462L55.582842712474616,12.2L53.917157287525384,12.2z" stroke="none"/><path d="M7.5,10.7L7.5,10.3L10.58284271247462,10.3L12.08284271247462,11.8L13.5,11.8L13.5,12.2L11.91715728752538,12.2L10.41715728752538,10.7z" stroke="none"/><path d="M55.5,8.8L55.5,9.2L48.082842712474616,9.2L46.582842712474616,10.7L45,10.7L45,10.3L46.417157287525384,10.3L47.917157287525384,8.8z" stroke="none"/><path d="M96,5.8L96,6.2L91.41715728752538,6.2L88.41715728752538,3.2L84,3.2L84,2.8L88.58284271247462,2.8L91.58284271247462,5.8z" stroke="none"/><path d="M24,4.3L24,4.7L12.08284271247462,4.7L10.58284271247462,6.2L9.08284271247462,6.2L7.641421356237309,7.641421356237309L7.358578643762691,7.358578643762691L8.91715728752538,5.8L10.41715728752538,5.8L11.91715728752538,4.3z" stroke="none"/><path d="M58.5,2.8L58.5,3.2L43.582842712474616,3.2L42.082842712474616,4.7L36,4.7L36,4.3L41.917157287525384,4.3L43.417157287525384,2.8z" stroke="none"/><path d="M49.5,4.3L49.5,4.7L46.582842712474616,4.7L45.082842712474616,6.2L36.082842712474616,6.2L34.582842712474616,7.7L24,7.7L24,7.3L34.417157287525384,7.3L35.917157287525384,5.8L44.917157287525384,5.8L46.417157287525384,4.3z" stroke="none"/><path d="M3,3.2L3,2.8L25.58284271247462,2.8L27.08284271247462,4.3L31.58284271247462,4.3L33.14142135623731,5.858578643762691L32.85857864376269,6.141421356237309L31.41715728752538,4.7L26.91715728752538,4.7L25.41715728752538,3.2z" stroke="none"/><path d="M75,2.8L75,3.2L70.58284271247462,3.2L67.58284271247462,6.2L60.082842712474616,6.2L58.582842712474616,7.7L39,7.7L39,7.3L58.417157287525384,7.3L59.917157287525384,5.8L67.41715728752538,5.8L70.41715728752538,2.8z" stroke="none"/><path d="M55.5,4.7L55.5,4.3L61.417157287525384,4.3L62.917157287525384,2.8L64.41715728752538,2.8L65.91715728752538,1.3L97.58284271247462,1.3L99.08284271247462,2.8L100.5,2.8L100.5,3.2L98.91715728752538,3.2L97.41715728752538,1.7L66.08284271247462,1.7L64.58284271247462,3.2L63.082842712474616,3.2L61.582842712474616,4.7z" stroke="none"/></svg>