<svg version="1.1" width="105" height="15" xmlns="http://www.w3.org/2000/svg"><path d="M102,4.3L102,4.7L87.08284271247462,4.7L85.58284271247462,6.2L84,6.2L84,5.8L85.41715728752538,5.8L86.51715728752538,4.7L78.08284271247462,4.7L76.58284271247462,6.2L75,6.2L75,5.8L76.41715728752538,5.8L77.91715728752538,4.3z" stroke="none"/><path d="M49.582842712474616,7.3L51.082842712474616,8.8L52.5,8.8L52.5,9.2L50.917157287525384,9.2L49.417157287525384,7.7L48.2,7.7L48.2,8.91715728752538L49.582842712474616,10.3L53.917157287525384,10.3L56.917157287525384,7.3L60,7.3L60,7.7L57.082842712474616,7.7L54.082842712474616,10.7L49.417157287525384,10.7L47.8,9.08284271247462L47.8,7.7L34.582842712474616,7.7L33.14142135623731,9.14142135623731L32.85857864376269,8.85857864376269L34.417157287525384,7.3z" stroke="none"/><path d="M62.8,8.8L62.8,6L63.2,6L63.2,8.8L64.41715728752538,8.8L65.91715728752538,7.3L67.5,7.3L67.5,7.7L66.08284271247462,7.7L64.58284271247462,9.2L63.2,9.2L63.2,10.41715728752538L64.58284271247462,11.8L71.91715728752538,11.8L73.41715728752538,10.3L74.91715728752538,10.3L76.41715728752538,8.8L79.5,8.8L79.5,9.2L76.58284271247462,9.2L75.08284271247462,10.7L73.58284271247462,10.7L72.08284271247462,12.2L64.41715728752538,12.2L62.8,10.58284271247462L62.8,9.2L58.582842712474616,9.2L55.582842712474616,12.2L40.417157287525384,12.2L38.917157287525384,10.7L31.5,10.7L31.5,10.3L39.082842712474616,10.3L40.582842712474616,11.8L55.417157287525384,11.8L58.417157287525384,8.8z" stroke="none"/><path d="M25.3,4.3L25.3,3.082842712474619L23.91715728752538,1.7L7.582842712474619,1.7L6.141421356237309,3.1414213562373097L5.858578643762691,2.8585786437626903L7.417157287525381,1.3L24.08284271247462,1.3L25.7,2.917157287525381L25.7,4.3L40.5,4.3L40.5,4.7L25.7,4.7L25.7,5.917157287525381L27.08284271247462,7.3L31.41715728752538,7.3L32.917157287525384,5.8L46.417157287525384,5.8L47.85857864376269,4.358578643762691L48.14142135623731,4.641421356237309L46.582842712474616,6.2L33.082842712474616,6.2L31.58284271247462,7.7L26.91715728752538,7.7L25.3,6.082842712474619L25.3,4.7L24.08284271247462,4.7L22.58284271247462,6.2L18.08284271247462,6.2L16.58284271247462,7.7L9,7.7L9,7.3L16.41715728752538,7.3L17.91715728752538,5.8L22.41715728752538,5.8L23.91715728752538,4.3z" stroke="none"/><path d="M8.8,3L9.2,3L9.2,4.5L8.8,4.5z" stroke="none"/><path d="M94.7,10.5L94.3,10.5L94.3,9L94.7,9z" stroke="none"/><path d="M93,10.3L93,10.7L91.5,10.7L91.5,10.3z" stroke="none"/><path d="M79.35857864376268,10.35857864376269L79.64142135623732,10.64142135623731L78.14142135623732,12.14142135623731L77.85857864376268,11.85857864376269z" stroke="none"/><path d="M87,7.7L87,7.3L88.58284271247462,7.3L90.14142135623732,8.85857864376269L89.85857864376268,9.14142135623731L88.41715728752538,7.7z" stroke="none"/><path d="M88.7,12L88.3,12L88.3,10.58284271247462L86.85857864376268,9.14142135623731L87.14142135623732,8.85857864376269L88.7,10.41715728752538z" stroke="none"/><path d="M20.8,9L21.2,9L21.2,10.41715728752538L22.64142135623731,11.85857864376269L22.35857864376269,12.14142135623731L20.8,10.58284271247462z" stroke="none"/><path d="M94.5,7.7L94.5,7.3L99,7.3L99,7.7z" stroke="none"/><path d="M18,8.8L18,9.2L13.58284271247462,9.2L12.08284271247462,10.7L7.417157287525381,10.7L5.8,9.08284271247462L5.8,7.417157287525381L7.417157287525381,5.8L11.91715728752538,5.8L13.35857864376269,4.358578643762691L13.64142135623731,4.641421356237309L12.08284271247462,6.2L7.582842712474619,6.2L6.2,7.582842712474619L6.2,8.91715728752538L7.582842712474619,10.3L11.91715728752538,10.3L13.41715728752538,8.8z" stroke="none"/><path d="M91.5,3.2L91.5,2.8L99,2.8L99,3.2z" stroke="none"/><path d="M70.5,6.2L70.5,5.8L71.91715728752538,5.8L73.41715728752538,4.3L74.91715728752538,4.3L76.41715728752538,2.8L79.5,2.8L79.5,3.2L76.58284271247462,3.2L75.08284271247462,4.7L73.58284271247462,4.7L72.08284271247462,6.2z" stroke="none"/><path d="M49.5,2.8L49.5,3.2L39,3.2L39,2.8z" stroke="none"/><path d="M73.64142135623732,9.14142135623731L73.35857864376268,8.85857864376269L74.91715728752538,7.3L81.08284271247462,7.3L87.08284271247462,13.3L97.41715728752538,13.3L101.8,8.91715728752538L101.8,7.582842712474619L100.41715728752538,6.2L90,6.2L90,5.8L100.58284271247462,5.8L102.2,7.417157287525381L102.2,9.08284271247462L97.58284271247462,13.7L86.91715728752538,13.7L80.91715728752538,7.7L75.08284271247462,7.7z" stroke="none"/><path d="M4.5,12.2L4.5,11.8L13.58284271247462,11.8L15.08284271247462,13.3L23.91715728752538,13.3L25.3,11.91715728752538L25.3,10.58284271247462L23.85857864376269,9.14142135623731L24.14142135623731,8.85857864376269L25.7,10.41715728752538L25.7,12.08284271247462L24.08284271247462,13.7L14.91715728752538,13.7L13.41715728752538,12.2z" stroke="none"/><path d="M59.85857864376269,10.35857864376269L60.14142135623731,10.64142135623731L57.082842712474616,13.7L37.417157287525384,13.7L35.917157287525384,12.2L30,12.2L30,11.8L36.082842712474616,11.8L37.582842712474616,13.3L56.917157287525384,13.3z" stroke="none"/><path d="M57,3.2L57,2.8L73.41715728752538,2.8L74.91715728752538,1.3L100.58284271247462,1.3L102.14142135623732,2.8585786437626903L101.85857864376268,3.1414213562373097L100.41715728752538,1.7L75.08284271247462,1.7L73.58284271247462,3.2z" stroke="none"/></svg>