<svg version="1.1" width="105" height="15" xmlns="http://www.w3.org/2000/svg"><path d="M38.8,10.3L38.8,7.5L39.2,7.5L39.2,10.3L45,10.3L45,10.7L37.417157287525384,10.7L35.917157287525384,9.2L34.5,9.2L34.5,8.8L36.082842712474616,8.8L37.582842712474616,10.3z" stroke="none"/><path d="M84.08284271247462,4.3L85.64142135623732,5.858578643762691L85.35857864376268,6.141421356237309L83.91715728752538,4.7L76.7,4.7L76.7,5.917157287525381L78.14142135623732,7.358578643762691L77.85857864376268,7.641421356237309L76.3,6.082842712474619L76.3,4.7L73.5,4.7L73.5,4.3z" stroke="none"/><path d="M54.082842712474616,5.8L55.7,7.417157287525381L55.7,10.5L55.3,10.5L55.3,7.582842712474619L53.917157287525384,6.2L49.98284271247462,6.2L51.082842712474616,7.3L52.582842712474616,7.3L54.14142135623731,8.85857864376269L53.85857864376269,9.14142135623731L52.417157287525384,7.7L50.917157287525384,7.7L49.5,6.282842712474619L48.082842712474616,7.7L46.5,7.7L46.5,7.3L47.917157287525384,7.3L49.01715728752538,6.2L43.417157287525384,6.2L41.917157287525384,4.7L33.082842712474616,4.7L31.58284271247462,6.2L30,6.2L30,5.8L31.41715728752538,5.8L32.917157287525384,4.3L42.082842712474616,4.3L43.582842712474616,5.8z" stroke="none"/><path d="M26.8,8.8L26.8,7.417157287525381L28.3,5.917157287525381L28.3,4.417157287525381L29.91715728752538,2.8L46.582842712474616,2.8L48.082842712474616,4.3L55.582842712474616,4.3L57.2,5.917157287525381L57.2,7.417157287525381L58.7,8.91715728752538L58.7,10.58284271247462L57.082842712474616,12.2L53.917157287525384,12.2L50.917157287525384,9.2L48,9.2L48,8.8L51.082842712474616,8.8L54.082842712474616,11.8L56.917157287525384,11.8L58.3,10.41715728752538L58.3,9.08284271247462L56.8,7.582842712474619L56.8,6.082842712474619L55.417157287525384,4.7L47.917157287525384,4.7L46.417157287525384,3.2L30.08284271247462,3.2L28.7,4.582842712474619L28.7,6.082842712474619L27.2,7.582842712474619L27.2,8.8L31.41715728752538,8.8L32.917157287525384,7.3L35.917157287525384,7.3L37.417157287525384,5.8L40.582842712474616,5.8L42.2,7.417157287525381L42.2,9L41.8,9L41.8,7.582842712474619L40.417157287525384,6.2L37.582842712474616,6.2L36.082842712474616,7.7L33.082842712474616,7.7L31.58284271247462,9.2L27.2,9.2L27.2,10.58284271247462L25.58284271247462,12.2L19.41715728752538,12.2L17.91715728752538,10.7L10.5,10.7L10.5,10.3L18.08284271247462,10.3L19.58284271247462,11.8L25.41715728752538,11.8L26.8,10.41715728752538L26.8,9.2L14.91715728752538,9.2L13.41715728752538,7.7L10.5,7.7L10.5,7.3L13.58284271247462,7.3L15.08284271247462,8.8z" stroke="none"/><path d="M61.7,7.5L61.3,7.5L61.3,6L61.7,6z" stroke="none"/><path d="M49.7,12L49.3,12L49.3,10.5L49.7,10.5z" stroke="none"/><path d="M3.2,10.5L2.8,10.5L2.8,7.417157287525381L4.417157287525381,5.8L6,5.8L6,6.2L4.582842712474619,6.2L3.2,7.582842712474619z" stroke="none"/><path d="M94.5,4.3L94.5,4.7L90.08284271247462,4.7L88.64142135623732,6.141421356237309L88.35857864376268,5.858578643762691L89.91715728752538,4.3z" stroke="none"/><path d="M18.14142135623731,7.358578643762691L17.85857864376269,7.641421356237309L14.91715728752538,4.7L12,4.7L12,4.3L15.08284271247462,4.3z" stroke="none"/><path d="M17.85857864376269,4.641421356237309L18.14142135623731,4.358578643762691L19.58284271247462,5.8L21.08284271247462,5.8L22.58284271247462,7.3L24,7.3L24,7.7L22.41715728752538,7.7L20.91715728752538,6.2L19.41715728752538,6.2z" stroke="none"/><path d="M6,3.2L6,2.8L13.5,2.8L13.5,3.2z" stroke="none"/><path d="M99,8.8L99,9.2L94.58284271247462,9.2L93.08284271247462,10.7L91.5,10.7L91.5,10.3L92.91715728752538,10.3L94.41715728752538,8.8z" stroke="none"/><path d="M4.5,9.2L4.5,8.8L5.917157287525381,8.8L8.91715728752538,5.8L13.5,5.8L13.5,6.2L9.08284271247462,6.2L6.082842712474619,9.2z" stroke="none"/><path d="M50.85857864376269,12.14142135623731L51.14142135623731,11.85857864376269L52.582842712474616,13.3L61.417157287525384,13.3L62.917157287525384,11.8L64.5,11.8L64.5,12.2L63.082842712474616,12.2L61.582842712474616,13.7L52.417157287525384,13.7z" stroke="none"/><path d="M85.5,10.7L85.5,10.3L86.91715728752538,10.3L89.91715728752538,7.3L99,7.3L99,7.7L90.08284271247462,7.7L87.08284271247462,10.7z" stroke="none"/><path d="M79.5,2.8L79.5,3.2L66.08284271247462,3.2L64.58284271247462,4.7L60,4.7L60,4.3L64.41715728752538,4.3L65.91715728752538,2.8z" stroke="none"/><path d="M100.5,11.8L100.5,12.2L82.41715728752538,12.2L80.91715728752538,10.7L79.5,10.7L79.5,10.3L81.08284271247462,10.3L82.58284271247462,11.8z" stroke="none"/><path d="M94.5,2.8L94.5,3.2L88.58284271247462,3.2L87.2,4.582842712474619L87.2,7.582842712474619L85.58284271247462,9.2L74.91715728752538,9.2L73.41715728752538,7.7L66,7.7L66,7.3L73.58284271247462,7.3L75.08284271247462,8.8L85.41715728752538,8.8L86.8,7.417157287525381L86.8,4.417157287525381L88.41715728752538,2.8z" stroke="none"/><path d="M91.5,6.2L91.5,5.8L95.91715728752538,5.8L97.3,4.417157287525381L97.3,3.082842712474619L95.91715728752538,1.7L60.082842712474616,1.7L58.7,3.082842712474619L58.7,4.5L58.3,4.5L58.3,2.917157287525381L59.917157287525384,1.3L96.08284271247462,1.3L97.7,2.917157287525381L97.7,4.582842712474619L96.08284271247462,6.2z" stroke="none"/><path d="M12,8.8L12,9.2L9.08284271247462,9.2L7.7,10.58284271247462L7.7,11.91715728752538L9.08284271247462,13.3L34.417157287525384,13.3L35.917157287525384,11.8L45,11.8L45,12.2L36.082842712474616,12.2L34.582842712474616,13.7L8.91715728752538,13.7L7.3,12.08284271247462L7.3,10.41715728752538L8.91715728752538,8.8z" stroke="none"/></svg>