<svg version="1.1" width="105" height="15" xmlns="http://www.w3.org/2000/svg"><path d="M90.08284271247462,1.3L93.08284271247462,4.3L102,4.3L102,4.7L92.91715728752538,4.7L89.91715728752538,1.7L81.2,1.7L81.2,4.5L80.8,4.5L80.8,1.7L63.082842712474616,1.7L61.582842712474616,3.2L60,3.2L60,2.8L61.417157287525384,2.8L62.917157287525384,1.3z" stroke="none"/><path d="M24.08284271247462,7.3L28.5,7.3L28.5,7.7L24.08284271247462,7.7L22.58284271247462,9.2L21,9.2L21,8.8L22.41715728752538,8.8L23.71715728752538,7.5L22.41715728752538,6.2L21,6.2L21,5.8L22.58284271247462,5.8z" stroke="none"/><path d="M43.5,8.717157287525382L44.917157287525384,7.3L46.5,7.3L46.5,7.7L45.082842712474616,7.7L43.78284271247462,9L45.082842712474616,10.3L46.417157287525384,10.3L47.8,8.91715728752538L47.8,7.417157287525381L49.417157287525384,5.8L67.58284271247462,5.8L69.08284271247462,7.3L72,7.3L72,7.7L68.91715728752538,7.7L67.41715728752538,6.2L49.582842712474616,6.2L48.2,7.582842712474619L48.2,9.08284271247462L46.582842712474616,10.7L44.917157287525384,10.7L43.417157287525384,9.2L25.58284271247462,9.2L24.08284271247462,10.7L22.5,10.7L22.5,10.3L23.91715728752538,10.3L25.41715728752538,8.8L43.01715728752538,8.8L41.917157287525384,7.7L40.417157287525384,7.7L38.85857864376269,6.141421356237309L39.14142135623731,5.858578643762691L40.582842712474616,7.3L42.082842712474616,7.3z" stroke="none"/><path d="M77.8,10.01715728752538L77.8,8.91715728752538L79.41715728752538,7.3L88.5,7.3L88.5,7.7L79.58284271247462,7.7L78.2,9.08284271247462L78.2,10.3L81.08284271247462,10.3L82.58284271247462,11.8L85.5,11.8L85.5,12.2L82.41715728752538,12.2L80.91715728752538,10.7L68.91715728752538,10.7L65.91715728752538,7.7L57,7.7L57,7.3L66.08284271247462,7.3L69.08284271247462,10.3L77.51715728752538,10.3L76.41715728752538,9.2L75,9.2L75,8.8L76.58284271247462,8.8z" stroke="none"/><path d="M6,6.2L6,5.8L7.5,5.8L7.5,6.2z" stroke="none"/><path d="M99,2.8L99,3.2L97.5,3.2L97.5,2.8z" stroke="none"/><path d="M88.35857864376268,2.8585786437626903L88.64142135623732,3.1414213562373097L87.14142135623732,4.641421356237309L86.85857864376268,4.358578643762691z" stroke="none"/><path d="M57.14142135623731,10.35857864376269L56.85857864376269,10.64142135623731L55.35857864376269,9.14142135623731L55.64142135623731,8.85857864376269z" stroke="none"/><path d="M49.5,9.2L49.5,8.8L52.5,8.8L52.5,9.2z" stroke="none"/><path d="M7.358578643762691,3.1414213562373097L7.641421356237309,2.8585786437626903L9.2,4.417157287525381L9.2,6L8.8,6L8.8,4.582842712474619z" stroke="none"/><path d="M85.5,9.2L85.5,8.8L88.58284271247462,8.8L90.14142135623732,10.35857864376269L89.85857864376268,10.64142135623731L88.41715728752538,9.2z" stroke="none"/><path d="M7.5,8.8L7.5,9.2L5.917157287525381,9.2L4.3,7.582842712474619L4.3,4.5L4.7,4.5L4.7,7.417157287525381L6.082842712474619,8.8z" stroke="none"/><path d="M70.5,6.2L70.5,5.8L73.58284271247462,5.8L75.08284271247462,7.3L76.5,7.3L76.5,7.7L74.91715728752538,7.7L73.41715728752538,6.2z" stroke="none"/><path d="M33,12.2L33,11.8L37.417157287525384,11.8L38.917157287525384,10.3L40.5,10.3L40.5,10.7L39.082842712474616,10.7L37.582842712474616,12.2z" stroke="none"/><path d="M6.141421356237309,12.14142135623731L5.858578643762691,11.85857864376269L7.417157287525381,10.3L8.91715728752538,10.3L10.41715728752538,8.8L11.91715728752538,8.8L13.41715728752538,7.3L18,7.3L18,7.7L13.58284271247462,7.7L12.08284271247462,9.2L10.58284271247462,9.2L9.08284271247462,10.7L7.582842712474619,10.7z" stroke="none"/><path d="M2.8585786437626903,12.14142135623731L3.1414213562373097,11.85857864376269L4.582842712474619,13.3L7.417157287525381,13.3L8.91715728752538,11.8L10.41715728752538,11.8L11.91715728752538,10.3L21,10.3L21,10.7L12.08284271247462,10.7L10.58284271247462,12.2L9.08284271247462,12.2L7.582842712474619,13.7L4.417157287525381,13.7z" stroke="none"/><path d="M21,3.2L21,2.8L37.582842712474616,2.8L39.082842712474616,4.3L42.082842712474616,4.3L43.582842712474616,5.8L45,5.8L45,6.2L43.417157287525384,6.2L41.917157287525384,4.7L38.917157287525384,4.7L37.417157287525384,3.2z" stroke="none"/><path d="M102,11.8L102,12.2L88.58284271247462,12.2L87.08284271247462,13.7L77.91715728752538,13.7L76.41715728752538,12.2L72,12.2L72,11.8L76.58284271247462,11.8L78.08284271247462,13.3L86.91715728752538,13.3L88.41715728752538,11.8z" stroke="none"/><path d="M36,5.8L36,6.2L25.41715728752538,6.2L23.91715728752538,4.7L19.58284271247462,4.7L18.08284271247462,6.2L16.41715728752538,6.2L14.8,4.582842712474619L14.8,2.917157287525381L16.41715728752538,1.3L54.082842712474616,1.3L57.082842712474616,4.3L75.08284271247462,4.3L76.64142135623732,5.858578643762691L76.35857864376268,6.141421356237309L74.91715728752538,4.7L56.917157287525384,4.7L53.917157287525384,1.7L16.58284271247462,1.7L15.2,3.082842712474619L15.2,4.417157287525381L16.58284271247462,5.8L17.91715728752538,5.8L19.41715728752538,4.3L24.08284271247462,4.3L25.58284271247462,5.8z" stroke="none"/><path d="M26.85857864376269,12.14142135623731L27.14142135623731,11.85857864376269L28.58284271247462,13.3L68.91715728752538,13.3L70.35857864376268,11.85857864376269L70.64142135623732,12.14142135623731L69.08284271247462,13.7L28.41715728752538,13.7z" stroke="none"/></svg>