<svg version="1.1" width="105" height="15" xmlns="http://www.w3.org/2000/svg"><path d="M91.5,5.8L91.5,6.2L88.7,6.2L88.7,7.417157287525381L90.08284271247462,8.8L102,8.8L102,9.2L89.91715728752538,9.2L88.3,7.582842712474619L88.3,6.2L77.91715728752538,6.2L76.41715728752538,4.7L75,4.7L75,4.3L76.58284271247462,4.3L78.08284271247462,5.8z" stroke="none"/><path d="M64.3,8.8L64.3,7.417157287525381L65.91715728752538,5.8L67.58284271247462,5.8L69.08284271247462,7.3L70.5,7.3L70.5,7.7L68.91715728752538,7.7L67.41715728752538,6.2L66.08284271247462,6.2L64.7,7.582842712474619L64.7,8.8L66.08284271247462,8.8L67.58284271247462,10.3L69,10.3L69,10.7L67.41715728752538,10.7L65.91715728752538,9.2L61.582842712474616,9.2L58.582842712474616,12.2L55.5,12.2L55.5,11.8L58.417157287525384,11.8L61.417157287525384,8.8z" stroke="none"/><path d="M48.082842712474616,8.8L49.582842712474616,10.3L51.082842712474616,10.3L54.082842712474616,13.3L70.41715728752538,13.3L74.8,8.91715728752538L74.8,7.5L75.2,7.5L75.2,9.08284271247462L70.58284271247462,13.7L53.917157287525384,13.7L50.917157287525384,10.7L49.417157287525384,10.7L47.917157287525384,9.2L45.48284271247462,9.2L48.14142135623731,11.85857864376269L47.85857864376269,12.14142135623731L45.2,9.48284271247462L45.2,10.58284271247462L43.582842712474616,12.2L35.917157287525384,12.2L34.417157287525384,10.7L26.91715728752538,10.7L25.35857864376269,9.14142135623731L25.64142135623731,8.85857864376269L27.08284271247462,10.3L34.582842712474616,10.3L36.082842712474616,11.8L43.417157287525384,11.8L44.8,10.41715728752538L44.8,9.2L31.5,9.2L31.5,8.8z" stroke="none"/><path d="M59.8,5.8L59.8,2.917157287525381L61.417157287525384,1.3L100.58284271247462,1.3L103.7,4.417157287525381L103.7,10.58284271247462L102.08284271247462,12.2L92.91715728752538,12.2L91.41715728752538,10.7L85.41715728752538,10.7L83.85857864376268,9.14142135623731L84.14142135623732,8.85857864376269L85.58284271247462,10.3L91.58284271247462,10.3L93.08284271247462,11.8L101.91715728752538,11.8L103.3,10.41715728752538L103.3,4.582842712474619L100.41715728752538,1.7L61.582842712474616,1.7L60.2,3.082842712474619L60.2,5.5171572875253805L61.417157287525384,4.3L72.08284271247462,4.3L73.7,5.917157287525381L73.7,7.582842712474619L72.08284271247462,9.2L70.5,9.2L70.5,8.8L71.91715728752538,8.8L73.3,7.417157287525381L73.3,6.082842712474619L71.91715728752538,4.7L61.582842712474616,4.7L60.2,6.082842712474619L60.2,7.582842712474619L58.582842712474616,9.2L50.917157287525384,9.2L49.417157287525384,7.7L46.417157287525384,7.7L44.917157287525384,6.2L36,6.2L36,5.8L45.082842712474616,5.8L46.582842712474616,7.3L49.582842712474616,7.3L51.082842712474616,8.8L58.417157287525384,8.8L59.8,7.417157287525381L59.8,6.2L55.417157287525384,6.2L53.85857864376269,4.641421356237309L54.14142135623731,4.358578643762691L55.582842712474616,5.8z" stroke="none"/><path d="M49.64142135623731,5.858578643762691L49.35857864376269,6.141421356237309L47.85857864376269,4.641421356237309L48.14142135623731,4.358578643762691z" stroke="none"/><path d="M33,2.8L33,3.2L30,3.2L30,2.8z" stroke="none"/><path d="M3,4.7L3,4.3L7.5,4.3L7.5,4.7z" stroke="none"/><path d="M13.3,3L13.7,3L13.7,7.5L13.3,7.5z" stroke="none"/><path d="M93,4.7L93,4.3L97.5,4.3L97.5,4.7z" stroke="none"/><path d="M84.14142135623732,11.85857864376269L83.85857864376268,12.14142135623731L82.3,10.58284271247462L82.3,7.5L82.7,7.5L82.7,10.41715728752538z" stroke="none"/><path d="M81.14142135623732,11.85857864376269L80.85857864376268,12.14142135623731L79.3,10.58284271247462L79.3,9.08284271247462L77.85857864376268,7.641421356237309L78.14142135623732,7.358578643762691L79.7,8.91715728752538L79.7,10.41715728752538z" stroke="none"/><path d="M102,5.8L102,6.2L99.08284271247462,6.2L97.58284271247462,7.7L96,7.7L96,7.3L97.41715728752538,7.3L98.91715728752538,5.8z" stroke="none"/><path d="M22.5,5.8L22.5,6.2L18.08284271247462,6.2L16.58284271247462,7.7L15,7.7L15,7.3L16.41715728752538,7.3L17.91715728752538,5.8z" stroke="none"/><path d="M10.35857864376269,7.641421356237309L10.64142135623731,7.358578643762691L12.2,8.91715728752538L12.2,10.41715728752538L13.58284271247462,11.8L18,11.8L18,12.2L13.41715728752538,12.2L11.8,10.58284271247462L11.8,9.08284271247462z" stroke="none"/><path d="M84,3.2L84,2.8L93,2.8L93,3.2z" stroke="none"/><path d="M28.64142135623731,9.14142135623731L28.35857864376269,8.85857864376269L29.91715728752538,7.3L32.917157287525384,7.3L34.3,5.917157287525381L34.3,4.417157287525381L35.917157287525384,2.8L40.582842712474616,2.8L42.14142135623731,4.358578643762691L41.85857864376269,4.641421356237309L40.417157287525384,3.2L36.082842712474616,3.2L34.7,4.582842712474619L34.7,6.082842712474619L33.082842712474616,7.7L30.08284271247462,7.7z" stroke="none"/><path d="M10.3,10.5L10.7,10.5L10.7,11.91715728752538L12.08284271247462,13.3L19.41715728752538,13.3L20.91715728752538,11.8L25.5,11.8L25.5,12.2L21.08284271247462,12.2L19.58284271247462,13.7L11.91715728752538,13.7L10.3,12.08284271247462z" stroke="none"/><path d="M22.5,4.3L22.5,4.7L17.91715728752538,4.7L14.91715728752538,1.7L12.08284271247462,1.7L10.7,3.082842712474619L10.7,4.582842712474619L9.08284271247462,6.2L3,6.2L3,5.8L8.91715728752538,5.8L10.3,4.417157287525381L10.3,2.917157287525381L11.91715728752538,1.3L15.08284271247462,1.3L18.08284271247462,4.3z" stroke="none"/><path d="M33,4.3L33,4.7L28.58284271247462,4.7L27.08284271247462,6.2L25.58284271247462,6.2L24.08284271247462,7.7L19.58284271247462,7.7L18.08284271247462,9.2L13.5,9.2L13.5,8.8L17.91715728752538,8.8L19.41715728752538,7.3L23.91715728752538,7.3L25.41715728752538,5.8L26.91715728752538,5.8L28.41715728752538,4.3z" stroke="none"/><path d="M19.5,3.2L19.5,2.8L26.91715728752538,2.8L28.41715728752538,1.3L52.582842712474616,1.3L54.082842712474616,2.8L55.582842712474616,2.8L57.14142135623731,4.358578643762691L56.85857864376269,4.641421356237309L55.417157287525384,3.2L53.917157287525384,3.2L52.417157287525384,1.7L28.58284271247462,1.7L27.08284271247462,3.2z" stroke="none"/></svg>