<svg version="1.1" width="105" height="15" xmlns="http://www.w3.org/2000/svg"><path d="M45,8.8L45,9.2L42.2,9.2L42.2,10.41715728752538L43.582842712474616,11.8L49.5,11.8L49.5,12.2L43.417157287525384,12.2L41.8,10.58284271247462L41.8,9.2L36,9.2L36,8.8z" stroke="none"/><path d="M70.3,11.8L70.3,10.41715728752538L71.91715728752538,8.8L81.08284271247462,8.8L84.14142135623732,11.85857864376269L83.85857864376268,12.14142135623731L80.91715728752538,9.2L72.08284271247462,9.2L70.7,10.58284271247462L70.7,11.8L75,11.8L75,12.2L51,12.2L51,11.8z" stroke="none"/><path d="M15.08284271247462,2.8L16.7,4.417157287525381L16.7,6L16.3,6L16.3,4.582842712474619L14.91715728752538,3.2L10.98284271247462,3.2L12.08284271247462,4.3L13.5,4.3L13.5,4.7L11.91715728752538,4.7L10.5,3.282842712474619L9.2,4.582842712474619L9.2,7.417157287525381L10.58284271247462,8.8L11.91715728752538,8.8L13.41715728752538,7.3L16.5,7.3L16.5,7.7L13.58284271247462,7.7L12.08284271247462,9.2L10.41715728752538,9.2L8.8,7.582842712474619L8.8,4.417157287525381L10.01715728752538,3.2L7.582842712474619,3.2L4.7,6.082842712474619L4.7,7.582842712474619L3.1414213562373097,9.14142135623731L2.8585786437626903,8.85857864376269L4.3,7.417157287525381L4.3,5.917157287525381L7.417157287525381,2.8z" stroke="none"/><path d="M77.8,4.3L77.8,2.917157287525381L79.41715728752538,1.3L87.08284271247462,1.3L88.58284271247462,2.8L96,2.8L96,3.2L88.41715728752538,3.2L86.91715728752538,1.7L79.58284271247462,1.7L78.2,3.082842712474619L78.2,4.3L82.58284271247462,4.3L84.08284271247462,5.8L90,5.8L90,6.2L83.91715728752538,6.2L82.41715728752538,4.7L78.2,4.7L78.2,6.082842712474619L76.58284271247462,7.7L68.91715728752538,7.7L67.41715728752538,6.2L63,6.2L63,5.8L67.58284271247462,5.8L69.08284271247462,7.3L76.41715728752538,7.3L77.8,5.917157287525381L77.8,4.7L63,4.7L63,4.3z" stroke="none"/><path d="M25.5,4.3L25.5,4.7L24,4.7L24,4.3z" stroke="none"/><path d="M10.5,6.2L10.5,5.8L12,5.8L12,6.2z" stroke="none"/><path d="M78.2,12L77.8,12L77.8,10.5L78.2,10.5z" stroke="none"/><path d="M52.35857864376269,5.858578643762691L52.64142135623731,6.141421356237309L51.14142135623731,7.641421356237309L50.85857864376269,7.358578643762691z" stroke="none"/><path d="M30,3.2L30,2.8L33,2.8L33,3.2z" stroke="none"/><path d="M93.2,7.5L92.8,7.5L92.8,5.917157287525381L94.35857864376268,4.358578643762691L94.64142135623732,4.641421356237309L93.2,6.082842712474619z" stroke="none"/><path d="M42.2,6L41.8,6L41.8,4.417157287525381L43.417157287525384,2.8L45.082842712474616,2.8L46.64142135623731,4.358578643762691L46.35857864376269,4.641421356237309L44.917157287525384,3.2L43.582842712474616,3.2L42.2,4.582842712474619z" stroke="none"/><path d="M94.5,10.7L94.5,10.3L95.91715728752538,10.3L97.41715728752538,8.8L99,8.8L99,9.2L97.58284271247462,9.2L96.08284271247462,10.7z" stroke="none"/><path d="M100.5,7.3L100.5,7.7L96.08284271247462,7.7L94.58284271247462,9.2L91.5,9.2L91.5,8.8L94.41715728752538,8.8L95.91715728752538,7.3z" stroke="none"/><path d="M88.3,7.5L88.7,7.5L88.7,10.58284271247462L85.58284271247462,13.7L82.41715728752538,13.7L79.35857864376268,10.64142135623731L79.64142135623732,10.35857864376269L82.58284271247462,13.3L85.41715728752538,13.3L88.3,10.41715728752538z" stroke="none"/><path d="M90,10.7L90,10.3L91.58284271247462,10.3L93.08284271247462,11.8L98.91715728752538,11.8L100.41715728752538,10.3L101.91715728752538,10.3L103.3,8.91715728752538L103.3,7.582842712474619L101.91715728752538,6.2L99,6.2L99,5.8L102.08284271247462,5.8L103.7,7.417157287525381L103.7,9.08284271247462L102.08284271247462,10.7L100.58284271247462,10.7L99.08284271247462,12.2L92.91715728752538,12.2L91.41715728752538,10.7z" stroke="none"/><path d="M24,11.8L24,12.2L11.91715728752538,12.2L10.41715728752538,10.7L9,10.7L9,10.3L10.58284271247462,10.3L12.08284271247462,11.8z" stroke="none"/><path d="M37.35857864376269,4.358578643762691L37.64142135623731,4.641421356237309L36.082842712474616,6.2L33.082842712474616,6.2L31.58284271247462,7.7L30.08284271247462,7.7L28.58284271247462,9.2L21,9.2L21,8.8L28.41715728752538,8.8L29.91715728752538,7.3L31.41715728752538,7.3L32.917157287525384,5.8L35.917157287525384,5.8z" stroke="none"/><path d="M64.5,8.8L64.5,9.2L47.917157287525384,9.2L44.917157287525384,6.2L43.5,6.2L43.5,5.8L45.082842712474616,5.8L48.082842712474616,8.8z" stroke="none"/><path d="M16.5,10.7L16.5,10.3L31.41715728752538,10.3L34.417157287525384,7.3L39,7.3L39,7.7L34.582842712474616,7.7L31.58284271247462,10.7z" stroke="none"/><path d="M36,10.3L36,10.7L34.582842712474616,10.7L33.082842712474616,12.2L27.08284271247462,12.2L25.58284271247462,13.7L4.417157287525381,13.7L1.3,10.58284271247462L1.3,7.417157287525381L2.8,5.917157287525381L2.8,4.417157287525381L5.917157287525381,1.3L48.082842712474616,1.3L49.582842712474616,2.8L52.582842712474616,2.8L55.582842712474616,5.8L57.082842712474616,5.8L58.582842712474616,7.3L66.08284271247462,7.3L67.7,8.91715728752538L67.7,10.5L67.3,10.5L67.3,9.08284271247462L65.91715728752538,7.7L58.417157287525384,7.7L56.917157287525384,6.2L55.417157287525384,6.2L52.417157287525384,3.2L49.417157287525384,3.2L47.917157287525384,1.7L6.082842712474619,1.7L3.2,4.582842712474619L3.2,6.082842712474619L1.7,7.582842712474619L1.7,10.41715728752538L4.582842712474619,13.3L25.41715728752538,13.3L26.91715728752538,11.8L32.917157287525384,11.8L34.417157287525384,10.3z" stroke="none"/></svg>