<svg version="1.1" width="105" height="15" xmlns="http://www.w3.org/2000/svg"><path d="M84.08284271247462,4.3L87.08284271247462,7.3L88.5,7.3L88.5,7.7L86.91715728752538,7.7L83.91715728752538,4.7L79.98284271247462,4.7L81.08284271247462,5.8L82.5,5.8L82.5,6.2L80.91715728752538,6.2L79.41715728752538,4.7L69,4.7L69,4.3z" stroke="none"/><path d="M31.41715728752538,4.3L37.5,4.3L37.5,4.7L31.982842712474618,4.7L34.64142135623731,7.358578643762691L34.35857864376269,7.641421356237309L31.5,4.782842712474619L30.08284271247462,6.2L20.91715728752538,6.2L19.41715728752538,4.7L13.5,4.7L13.5,4.3L19.58284271247462,4.3L21.08284271247462,5.8L29.91715728752538,5.8z" stroke="none"/><path d="M14.8,8.8L14.8,7.582842712474619L13.41715728752538,6.2L6.082842712474619,6.2L4.582842712474619,7.7L3,7.7L3,7.3L4.417157287525381,7.3L5.917157287525381,5.8L13.58284271247462,5.8L15.2,7.417157287525381L15.2,8.8L28.5,8.8L28.5,9.2L15.2,9.2L15.2,10.58284271247462L13.58284271247462,12.2L8.91715728752538,12.2L7.417157287525381,10.7L6,10.7L6,10.3L7.582842712474619,10.3L9.08284271247462,11.8L13.41715728752538,11.8L14.8,10.41715728752538L14.8,9.2L12,9.2L12,8.8z" stroke="none"/><path d="M40.582842712474616,4.3L49.5,4.3L49.5,4.7L40.7,4.7L40.7,5.917157287525381L42.082842712474616,7.3L45.082842712474616,7.3L46.582842712474616,8.8L53.917157287525384,8.8L55.35857864376269,7.358578643762691L55.64142135623731,7.641421356237309L54.082842712474616,9.2L46.417157287525384,9.2L44.917157287525384,7.7L41.917157287525384,7.7L40.3,6.082842712474619L40.3,4.9828427124746195L36.082842712474616,9.2L32.917157287525384,9.2L31.41715728752538,7.7L27,7.7L27,7.3L31.58284271247462,7.3L33.082842712474616,8.8L35.917157287525384,8.8L40.21715728752538,4.5L38.917157287525384,3.2L25.5,3.2L25.5,2.8L39.082842712474616,2.8z" stroke="none"/><path d="M99,12.2L99,11.8L102,11.8L102,12.2z" stroke="none"/><path d="M91.7,12L91.3,12L91.3,10.41715728752538L92.85857864376268,8.85857864376269L93.14142135623732,9.14142135623731L91.7,10.58284271247462z" stroke="none"/><path d="M97.64142135623732,7.358578643762691L97.35857864376268,7.641421356237309L95.8,6.082842712474619L95.8,3L96.2,3L96.2,5.917157287525381z" stroke="none"/><path d="M64.5,4.7L64.5,4.3L65.91715728752538,4.3L67.41715728752538,2.8L69,2.8L69,3.2L67.58284271247462,3.2L66.08284271247462,4.7z" stroke="none"/><path d="M22.5,11.8L22.5,12.2L16.5,12.2L16.5,11.8z" stroke="none"/><path d="M81,10.3L81,10.7L77.91715728752538,10.7L76.41715728752538,9.2L75,9.2L75,8.8L76.58284271247462,8.8L78.08284271247462,10.3z" stroke="none"/><path d="M96.14142135623732,8.85857864376269L95.85857864376268,9.14142135623731L94.3,7.582842712474619L94.3,6.082842712474619L91.41715728752538,3.2L90.08284271247462,3.2L88.7,4.582842712474619L88.7,6L88.3,6L88.3,4.417157287525381L89.91715728752538,2.8L91.58284271247462,2.8L94.7,5.917157287525381L94.7,7.417157287525381z" stroke="none"/><path d="M89.8,6L90.2,6L90.2,9.08284271247462L88.58284271247462,10.7L86.91715728752538,10.7L83.91715728752538,7.7L81,7.7L81,7.3L84.08284271247462,7.3L87.08284271247462,10.3L88.41715728752538,10.3L89.8,8.91715728752538z" stroke="none"/><path d="M28.5,4.3L28.5,4.7L22.41715728752538,4.7L20.91715728752538,3.2L12.08284271247462,3.2L10.58284271247462,4.7L3.082842712474619,4.7L1.7,6.082842712474619L1.7,8.91715728752538L4.582842712474619,11.8L6.082842712474619,11.8L7.582842712474619,13.3L29.91715728752538,13.3L31.41715728752538,11.8L34.417157287525384,11.8L35.917157287525384,10.3L38.917157287525384,10.3L40.417157287525384,8.8L42,8.8L42,9.2L40.582842712474616,9.2L39.082842712474616,10.7L36.082842712474616,10.7L34.582842712474616,12.2L31.58284271247462,12.2L30.08284271247462,13.7L7.417157287525381,13.7L5.917157287525381,12.2L4.417157287525381,12.2L1.3,9.08284271247462L1.3,5.917157287525381L2.917157287525381,4.3L10.41715728752538,4.3L11.91715728752538,2.8L21.08284271247462,2.8L22.58284271247462,4.3z" stroke="none"/><path d="M67.5,11.8L67.5,12.2L52.5,12.2L52.5,11.8z" stroke="none"/><path d="M81,11.8L81,12.2L76.41715728752538,12.2L74.91715728752538,10.7L60,10.7L60,10.3L75.08284271247462,10.3L76.58284271247462,11.8z" stroke="none"/><path d="M48,12.2L48,11.8L49.417157287525384,11.8L50.917157287525384,10.3L56.917157287525384,10.3L58.417157287525384,8.8L65.91715728752538,8.8L67.41715728752538,7.3L69,7.3L69,7.7L67.58284271247462,7.7L66.08284271247462,9.2L58.582842712474616,9.2L57.082842712474616,10.7L51.082842712474616,10.7L49.582842712474616,12.2z" stroke="none"/><path d="M73.5,11.8L73.5,12.2L70.58284271247462,12.2L69.08284271247462,13.7L43.417157287525384,13.7L41.917157287525384,12.2L37.5,12.2L37.5,11.8L42.082842712474616,11.8L43.582842712474616,13.3L68.91715728752538,13.3L70.41715728752538,11.8z" stroke="none"/><path d="M97.35857864376268,4.641421356237309L97.64142135623732,4.358578643762691L99.08284271247462,5.8L100.41715728752538,5.8L101.8,4.417157287525381L101.8,3.082842712474619L100.41715728752538,1.7L63.082842712474616,1.7L60.14142135623731,4.641421356237309L59.85857864376269,4.358578643762691L62.917157287525384,1.3L100.58284271247462,1.3L102.2,2.917157287525381L102.2,4.582842712474619L100.58284271247462,6.2L98.91715728752538,6.2z" stroke="none"/><path d="M9.14142135623731,3.1414213562373097L8.85857864376269,2.8585786437626903L10.41715728752538,1.3L43.582842712474616,1.3L45.082842712474616,2.8L46.5,2.8L46.5,3.2L44.917157287525384,3.2L43.417157287525384,1.7L10.58284271247462,1.7z" stroke="none"/><path d="M99,10.3L99,10.7L97.58284271247462,10.7L96.08284271247462,12.2L94.58284271247462,12.2L93.08284271247462,13.7L86.91715728752538,13.7L82.41715728752538,9.2L79.41715728752538,9.2L77.91715728752538,7.7L74.91715728752538,7.7L73.41715728752538,6.2L51.082842712474616,6.2L49.64142135623731,7.641421356237309L49.35857864376269,7.358578643762691L50.917157287525384,5.8L73.58284271247462,5.8L75.08284271247462,7.3L78.08284271247462,7.3L79.58284271247462,8.8L82.58284271247462,8.8L87.08284271247462,13.3L92.91715728752538,13.3L94.41715728752538,11.8L95.91715728752538,11.8L97.41715728752538,10.3z" stroke="none"/></svg>