<svg version="1.1" width="105" height="15" xmlns="http://www.w3.org/2000/svg"><path d="M73.3,5.8L73.3,4.582842712474619L71.91715728752538,3.2L64.58284271247462,3.2L63.082842712474616,4.7L55.5,4.7L55.5,4.3L62.917157287525384,4.3L64.41715728752538,2.8L72.08284271247462,2.8L73.7,4.417157287525381L73.7,5.917157287525381L75.08284271247462,7.3L78.08284271247462,7.3L82.58284271247462,11.8L95.91715728752538,11.8L97.41715728752538,10.3L98.91715728752538,10.3L100.35857864376268,8.85857864376269L100.64142135623732,9.14142135623731L99.08284271247462,10.7L97.58284271247462,10.7L96.08284271247462,12.2L82.41715728752538,12.2L77.91715728752538,7.7L74.91715728752538,7.7L73.41715728752538,6.2L66,6.2L66,5.8z" stroke="none"/><path d="M97.41715728752538,4.3L98.85857864376268,2.8585786437626903L99.14142135623732,3.1414213562373097L97.58284271247462,4.7L84.2,4.7L84.2,5.917157287525381L87.08284271247462,8.8L89.91715728752538,8.8L91.41715728752538,7.3L99,7.3L99,7.7L91.58284271247462,7.7L90.08284271247462,9.2L86.91715728752538,9.2L83.8,6.082842712474619L83.8,4.7L76.41715728752538,4.7L73.41715728752538,1.7L61.582842712474616,1.7L60.082842712474616,3.2L57,3.2L57,2.8L59.917157287525384,2.8L61.417157287525384,1.3L73.58284271247462,1.3L76.58284271247462,4.3z" stroke="none"/><path d="M23.8,4.3L23.8,2.917157287525381L25.41715728752538,1.3L27.08284271247462,1.3L28.58284271247462,2.8L30.08284271247462,2.8L31.58284271247462,4.3L37.5,4.3L37.5,4.7L31.41715728752538,4.7L29.91715728752538,3.2L28.41715728752538,3.2L26.91715728752538,1.7L25.58284271247462,1.7L24.2,3.082842712474619L24.2,4.3L28.58284271247462,4.3L31.64142135623731,7.358578643762691L31.35857864376269,7.641421356237309L28.41715728752538,4.7L24.482842712474618,4.7L25.58284271247462,5.8L27,5.8L27,6.2L25.41715728752538,6.2L23.91715728752538,4.7L22.41715728752538,4.7L20.91715728752538,3.2L13.41715728752538,3.2L11.91715728752538,1.7L4.582842712474619,1.7L3.1414213562373097,3.1414213562373097L2.8585786437626903,2.8585786437626903L4.417157287525381,1.3L12.08284271247462,1.3L13.58284271247462,2.8L21.08284271247462,2.8L22.58284271247462,4.3z" stroke="none"/><path d="M18,5.8L18,6.2L13.7,6.2L13.7,7.417157287525381L15.08284271247462,8.8L19.41715728752538,8.8L20.91715728752538,7.3L27,7.3L27,7.7L21.08284271247462,7.7L19.58284271247462,9.2L14.91715728752538,9.2L13.3,7.582842712474619L13.3,6.4828427124746195L12.08284271247462,7.7L10.5,7.7L10.5,7.3L11.91715728752538,7.3L13.01715728752538,6.2L9.08284271247462,6.2L7.582842712474619,7.7L4.417157287525381,7.7L2.8,6.082842712474619L2.8,4.5L3.2,4.5L3.2,5.917157287525381L4.582842712474619,7.3L7.417157287525381,7.3L8.91715728752538,5.8z" stroke="none"/><path d="M18,4.7L18,4.3L19.5,4.3L19.5,4.7z" stroke="none"/><path d="M4.641421356237309,4.641421356237309L4.358578643762691,4.358578643762691L5.858578643762691,2.8585786437626903L6.141421356237309,3.1414213562373097z" stroke="none"/><path d="M5.858578643762691,9.14142135623731L6.141421356237309,8.85857864376269L7.641421356237309,10.35857864376269L7.358578643762691,10.64142135623731z" stroke="none"/><path d="M93,2.8L93,3.2L90,3.2L90,2.8z" stroke="none"/><path d="M49.64142135623731,9.14142135623731L49.35857864376269,8.85857864376269L50.917157287525384,7.3L52.5,7.3L52.5,7.7L51.082842712474616,7.7z" stroke="none"/><path d="M21.2,12L20.8,12L20.8,10.41715728752538L22.35857864376269,8.85857864376269L22.64142135623731,9.14142135623731L21.2,10.58284271247462z" stroke="none"/><path d="M67.3,7.5L67.7,7.5L67.7,12L67.3,12z" stroke="none"/><path d="M6.141421356237309,6.141421356237309L5.858578643762691,5.858578643762691L7.417157287525381,4.3L10.5,4.3L10.5,4.7L7.582842712474619,4.7z" stroke="none"/><path d="M88.64142135623732,7.641421356237309L88.35857864376268,7.358578643762691L89.91715728752538,5.8L100.41715728752538,5.8L101.8,4.417157287525381L101.8,3.082842712474619L100.41715728752538,1.7L97.58284271247462,1.7L96.14142135623732,3.1414213562373097L95.85857864376268,2.8585786437626903L97.41715728752538,1.3L100.58284271247462,1.3L102.2,2.917157287525381L102.2,4.582842712474619L100.58284271247462,6.2L90.08284271247462,6.2z" stroke="none"/><path d="M46.35857864376269,4.358578643762691L46.64142135623731,4.641421356237309L43.582842712474616,7.7L40.582842712474616,7.7L39.14142135623731,9.14142135623731L38.85857864376269,8.85857864376269L40.417157287525384,7.3L43.417157287525384,7.3z" stroke="none"/><path d="M36,8.8L36,9.2L28.58284271247462,9.2L27.08284271247462,10.7L25.5,10.7L25.5,10.3L26.91715728752538,10.3L28.41715728752538,8.8z" stroke="none"/><path d="M6,12.2L6,11.8L16.41715728752538,11.8L17.85857864376269,10.35857864376269L18.14142135623731,10.64142135623731L16.58284271247462,12.2z" stroke="none"/><path d="M85.5,10.7L85.5,10.3L94.41715728752538,10.3L95.91715728752538,8.8L97.5,8.8L97.5,9.2L96.08284271247462,9.2L94.58284271247462,10.7z" stroke="none"/><path d="M66,11.8L66,12.2L40.5,12.2L40.5,11.8z" stroke="none"/><path d="M40.5,10.7L40.5,10.3L43.417157287525384,10.3L47.8,5.917157287525381L47.8,3.082842712474619L46.417157287525384,1.7L45.082842712474616,1.7L40.582842712474616,6.2L39.082842712474616,6.2L37.7,7.582842712474619L37.7,11.91715728752538L39.082842712474616,13.3L68.91715728752538,13.3L70.35857864376268,11.85857864376269L70.64142135623732,12.14142135623731L69.08284271247462,13.7L38.917157287525384,13.7L37.3,12.08284271247462L37.3,7.417157287525381L38.917157287525384,5.8L40.417157287525384,5.8L44.917157287525384,1.3L46.582842712474616,1.3L48.2,2.917157287525381L48.2,6.082842712474619L43.582842712474616,10.7z" stroke="none"/><path d="M100.5,11.8L100.5,12.2L99.08284271247462,12.2L97.58284271247462,13.7L74.91715728752538,13.7L71.91715728752538,10.7L69,10.7L69,10.3L72.08284271247462,10.3L75.08284271247462,13.3L97.41715728752538,13.3L98.91715728752538,11.8z" stroke="none"/></svg>