<svg version="1.1" width="105" height="15" xmlns="http://www.w3.org/2000/svg"><path d="M80.8,8.8L80.8,7.417157287525381L82.41715728752538,5.8L87.08284271247462,5.8L88.7,7.417157287525381L88.7,8.91715728752538L90.08284271247462,10.3L94.5,10.3L94.5,10.7L89.91715728752538,10.7L88.3,9.08284271247462L88.3,7.582842712474619L86.91715728752538,6.2L82.58284271247462,6.2L81.2,7.582842712474619L81.2,8.8L84,8.8L84,9.2L74.91715728752538,9.2L73.41715728752538,7.7L70.5,7.7L70.5,7.3L73.58284271247462,7.3L75.08284271247462,8.8z" stroke="none"/><path d="M70.58284271247462,10.3L72.08284271247462,11.8L79.41715728752538,11.8L80.91715728752538,10.3L85.41715728752538,10.3L86.85857864376268,8.85857864376269L87.14142135623732,9.14142135623731L85.58284271247462,10.7L81.08284271247462,10.7L79.58284271247462,12.2L71.91715728752538,12.2L70.5,10.782842712474618L69.08284271247462,12.2L67.5,12.2L67.5,11.8L68.91715728752538,11.8L70.01715728752538,10.7L66.08284271247462,10.7L64.64142135623732,12.14142135623731L64.35857864376268,11.85857864376269L65.91715728752538,10.3z" stroke="none"/><path d="M65.8,4.3L65.8,3.082842712474619L64.41715728752538,1.7L49.582842712474616,1.7L48.14142135623731,3.1414213562373097L47.85857864376269,2.8585786437626903L49.417157287525384,1.3L64.58284271247462,1.3L66.2,2.917157287525381L66.2,4.3L90,4.3L90,4.7L66.48284271247462,4.7L67.58284271247462,5.8L69,5.8L69,6.2L67.41715728752538,6.2L65.91715728752538,4.7L57,4.7L57,4.3z" stroke="none"/><path d="M41.8,7.3L41.8,5.917157287525381L43.417157287525384,4.3L49.582842712474616,4.3L51.082842712474616,5.8L63,5.8L63,6.2L50.917157287525384,6.2L49.417157287525384,4.7L43.582842712474616,4.7L42.2,6.082842712474619L42.2,7.3L57,7.3L57,7.7L42.2,7.7L42.2,9.08284271247462L40.582842712474616,10.7L32.917157287525384,10.7L31.41715728752538,9.2L25.58284271247462,9.2L24.08284271247462,10.7L22.5,10.7L22.5,10.3L23.91715728752538,10.3L25.41715728752538,8.8L31.58284271247462,8.8L33.082842712474616,10.3L40.417157287525384,10.3L41.8,8.91715728752538L41.8,7.7L30,7.7L30,7.3z" stroke="none"/><path d="M19.5,11.8L19.5,12.2L18,12.2L18,11.8z" stroke="none"/><path d="M13.64142135623731,8.85857864376269L13.35857864376269,9.14142135623731L11.91715728752538,7.7L10.5,7.7L10.5,7.3L12.08284271247462,7.3z" stroke="none"/><path d="M82.5,12.2L82.5,11.8L87,11.8L87,12.2z" stroke="none"/><path d="M75,3.2L75,2.8L79.5,2.8L79.5,3.2z" stroke="none"/><path d="M30,4.7L30,4.3L35.917157287525384,4.3L37.35857864376269,2.8585786437626903L37.64142135623731,3.1414213562373097L36.082842712474616,4.7z" stroke="none"/><path d="M4.5,9.2L4.5,8.8L7.582842712474619,8.8L9.08284271247462,10.3L10.58284271247462,10.3L12.14142135623731,11.85857864376269L11.85857864376269,12.14142135623731L10.41715728752538,10.7L8.91715728752538,10.7L7.417157287525381,9.2z" stroke="none"/><path d="M18,3.2L18,2.8L21.08284271247462,2.8L22.58284271247462,4.3L24.08284271247462,4.3L25.64142135623731,5.858578643762691L25.35857864376269,6.141421356237309L23.91715728752538,4.7L22.41715728752538,4.7L20.91715728752538,3.2z" stroke="none"/><path d="M60,2.8L60,3.2L51,3.2L51,2.8z" stroke="none"/><path d="M98.85857864376268,2.8585786437626903L99.14142135623732,3.1414213562373097L97.58284271247462,4.7L94.58284271247462,4.7L91.58284271247462,7.7L90,7.7L90,7.3L91.41715728752538,7.3L94.41715728752538,4.3L97.41715728752538,4.3z" stroke="none"/><path d="M29.85857864376269,10.64142135623731L30.14142135623731,10.35857864376269L31.58284271247462,11.8L41.917157287525384,11.8L43.35857864376269,10.35857864376269L43.64142135623731,10.64142135623731L42.082842712474616,12.2L31.41715728752538,12.2z" stroke="none"/><path d="M46.5,2.8L46.5,3.2L40.417157287525384,3.2L38.917157287525384,1.7L36.082842712474616,1.7L34.582842712474616,3.2L33,3.2L33,2.8L34.417157287525384,2.8L35.917157287525384,1.3L39.082842712474616,1.3L40.582842712474616,2.8z" stroke="none"/><path d="M16.5,4.3L16.5,4.7L8.91715728752538,4.7L7.417157287525381,3.2L3,3.2L3,2.8L7.582842712474619,2.8L9.08284271247462,4.3z" stroke="none"/><path d="M100.3,3L100.7,3L100.7,4.582842712474619L99.2,6.082842712474619L99.2,7.417157287525381L100.58284271247462,8.8L101.91715728752538,8.8L103.3,7.417157287525381L103.3,4.582842712474619L100.41715728752538,1.7L90.08284271247462,1.7L88.58284271247462,3.2L85.5,3.2L85.5,2.8L88.41715728752538,2.8L89.91715728752538,1.3L100.58284271247462,1.3L103.7,4.417157287525381L103.7,7.582842712474619L102.08284271247462,9.2L100.41715728752538,9.2L98.8,7.582842712474619L98.8,5.917157287525381L100.3,4.417157287525381z" stroke="none"/><path d="M58.5,12.2L58.5,11.8L59.917157287525384,11.8L62.917157287525384,8.8L70.58284271247462,8.8L72.08284271247462,10.3L73.5,10.3L73.5,10.7L71.91715728752538,10.7L70.41715728752538,9.2L63.082842712474616,9.2L60.082842712474616,12.2z" stroke="none"/><path d="M5.858578643762691,4.641421356237309L6.141421356237309,4.358578643762691L7.582842712474619,5.8L22.58284271247462,5.8L24.08284271247462,7.3L26.91715728752538,7.3L28.3,5.917157287525381L28.3,4.582842712474619L26.85857864376269,3.1414213562373097L27.14142135623731,2.8585786437626903L28.7,4.417157287525381L28.7,6.082842712474619L27.08284271247462,7.7L23.91715728752538,7.7L22.41715728752538,6.2L7.417157287525381,6.2z" stroke="none"/><path d="M9,7.3L9,7.7L3.082842712474619,7.7L1.7,9.08284271247462L1.7,10.41715728752538L3.082842712474619,11.8L9.08284271247462,11.8L10.58284271247462,13.3L44.917157287525384,13.3L49.417157287525384,8.8L51,8.8L51,9.2L49.582842712474616,9.2L45.082842712474616,13.7L10.41715728752538,13.7L8.91715728752538,12.2L2.917157287525381,12.2L1.3,10.58284271247462L1.3,8.91715728752538L2.917157287525381,7.3z" stroke="none"/></svg>