<svg version="1.1" width="105" height="15" xmlns="http://www.w3.org/2000/svg"><path d="M16.58284271247462,4.3L21.08284271247462,4.3L22.58284271247462,5.8L24,5.8L24,6.2L22.41715728752538,6.2L20.91715728752538,4.7L16.58284271247462,4.7L15.08284271247462,6.2L13.58284271247462,6.2L12.08284271247462,7.7L6,7.7L6,7.3L11.91715728752538,7.3L13.41715728752538,5.8L14.91715728752538,5.8L16.21715728752538,4.5L14.91715728752538,3.2L13.5,3.2L13.5,2.8L15.08284271247462,2.8z" stroke="none"/><path d="M62.8,11.8L62.8,10.41715728752538L64.41715728752538,8.8L69.08284271247462,8.8L70.58284271247462,10.3L73.58284271247462,10.3L75.14142135623732,11.85857864376269L74.85857864376268,12.14142135623731L73.41715728752538,10.7L70.41715728752538,10.7L68.91715728752538,9.2L64.58284271247462,9.2L63.2,10.58284271247462L63.2,11.8L72,11.8L72,12.2L43.5,12.2L43.5,11.8z" stroke="none"/><path d="M31.58284271247462,5.8L39.082842712474616,5.8L40.7,7.417157287525381L40.7,8.91715728752538L42.14142135623731,10.35857864376269L41.85857864376269,10.64142135623731L40.3,9.08284271247462L40.3,7.582842712474619L38.917157287525384,6.2L31.982842712474618,6.2L33.082842712474616,7.3L34.5,7.3L34.5,7.7L32.917157287525384,7.7L31.7,6.4828427124746195L31.7,7.582842712474619L30.14142135623731,9.14142135623731L29.85857864376269,8.85857864376269L31.3,7.417157287525381L31.3,6.082842712474619L29.91715728752538,4.7L27.08284271247462,4.7L25.7,6.082842712474619L25.7,7.5L25.3,7.5L25.3,5.917157287525381L26.91715728752538,4.3L30.08284271247462,4.3z" stroke="none"/><path d="M67.3,5.8L67.3,4.417157287525381L68.91715728752538,2.8L84.08284271247462,2.8L85.64142135623732,4.358578643762691L85.35857864376268,4.641421356237309L83.91715728752538,3.2L69.08284271247462,3.2L67.7,4.582842712474619L67.7,5.8L73.41715728752538,5.8L74.91715728752538,4.3L79.5,4.3L79.5,4.7L75.08284271247462,4.7L73.58284271247462,6.2L67.98284271247462,6.2L69.08284271247462,7.3L70.58284271247462,7.3L72.14142135623732,8.85857864376269L71.85857864376268,9.14142135623731L70.41715728752538,7.7L68.91715728752538,7.7L67.41715728752538,6.2L65.91715728752538,6.2L64.3,4.582842712474619L64.3,2.917157287525381L65.91715728752538,1.3L85.58284271247462,1.3L87.2,2.917157287525381L87.2,6.082842712474619L81.08284271247462,12.2L79.58284271247462,12.2L78.08284271247462,13.7L41.917157287525384,13.7L38.8,10.58284271247462L38.8,9.08284271247462L37.35857864376269,7.641421356237309L37.64142135623731,7.358578643762691L39.2,8.91715728752538L39.2,10.41715728752538L42.082842712474616,13.3L77.91715728752538,13.3L79.41715728752538,11.8L80.91715728752538,11.8L86.8,5.917157287525381L86.8,3.082842712474619L85.41715728752538,1.7L66.08284271247462,1.7L64.7,3.082842712474619L64.7,4.417157287525381L66.08284271247462,5.8z" stroke="none"/><path d="M9,6.2L9,5.8L10.5,5.8L10.5,6.2z" stroke="none"/><path d="M94.7,10.5L94.3,10.5L94.3,9L94.7,9z" stroke="none"/><path d="M94.35857864376268,2.8585786437626903L94.64142135623732,3.1414213562373097L93.14142135623732,4.641421356237309L92.85857864376268,4.358578643762691z" stroke="none"/><path d="M60.14142135623731,10.64142135623731L59.85857864376269,10.35857864376269L61.35857864376269,8.85857864376269L61.64142135623731,9.14142135623731z" stroke="none"/><path d="M82.35857864376268,4.641421356237309L82.64142135623732,4.358578643762691L84.14142135623732,5.858578643762691L83.85857864376268,6.141421356237309z" stroke="none"/><path d="M24.2,12L23.8,12L23.8,9L24.2,9z" stroke="none"/><path d="M14.85857864376269,7.358578643762691L15.14142135623731,7.641421356237309L13.58284271247462,9.2L9.08284271247462,9.2L7.582842712474619,10.7L5.917157287525381,10.7L4.3,9.08284271247462L4.3,5.917157287525381L5.917157287525381,4.3L13.5,4.3L13.5,4.7L6.082842712474619,4.7L4.7,6.082842712474619L4.7,8.91715728752538L6.082842712474619,10.3L7.417157287525381,10.3L8.91715728752538,8.8L13.41715728752538,8.8z" stroke="none"/><path d="M81,7.3L81,7.7L79.41715728752538,7.7L77.91715728752538,6.2L76.5,6.2L76.5,5.8L78.08284271247462,5.8L79.58284271247462,7.3z" stroke="none"/><path d="M20.8,7.5L21.2,7.5L21.2,11.91715728752538L22.58284271247462,13.3L25.41715728752538,13.3L26.8,11.91715728752538L26.8,7.5L27.2,7.5L27.2,12.08284271247462L25.58284271247462,13.7L22.41715728752538,13.7L20.8,12.08284271247462z" stroke="none"/><path d="M95.8,10.5L96.2,10.5L96.2,12.08284271247462L94.58284271247462,13.7L92.91715728752538,13.7L89.85857864376268,10.64142135623731L90.14142135623732,10.35857864376269L93.08284271247462,13.3L94.41715728752538,13.3L95.8,11.91715728752538z" stroke="none"/><path d="M99.2,12L98.8,12L98.8,6.082842712474619L97.3,4.582842712474619L97.3,3.082842712474619L95.91715728752538,1.7L93.08284271247462,1.7L91.7,3.082842712474619L91.7,8.91715728752538L93.14142135623732,10.35857864376269L92.85857864376268,10.64142135623731L91.3,9.08284271247462L91.3,2.917157287525381L92.91715728752538,1.3L96.08284271247462,1.3L97.7,2.917157287525381L97.7,4.417157287525381L99.2,5.917157287525381z" stroke="none"/><path d="M93,7.7L93,7.3L96.08284271247462,7.3L97.7,8.91715728752538L97.7,12L97.3,12L97.3,9.08284271247462L95.91715728752538,7.7z" stroke="none"/><path d="M54,7.7L54,7.3L61.5,7.3L61.5,7.7z" stroke="none"/><path d="M52.7,7.5L52.3,7.5L52.3,5.917157287525381L53.917157287525384,4.3L57.082842712474616,4.3L58.582842712474616,5.8L60,5.8L60,6.2L58.417157287525384,6.2L56.917157287525384,4.7L54.082842712474616,4.7L52.7,6.082842712474619z" stroke="none"/><path d="M46.64142135623731,10.64142135623731L46.35857864376269,10.35857864376269L47.8,8.91715728752538L47.8,7.417157287525381L52.417157287525384,2.8L58.582842712474616,2.8L60.082842712474616,4.3L61.582842712474616,4.3L63.14142135623731,5.858578643762691L62.85857864376269,6.141421356237309L61.417157287525384,4.7L59.917157287525384,4.7L58.417157287525384,3.2L52.582842712474616,3.2L48.2,7.582842712474619L48.2,9.08284271247462z" stroke="none"/><path d="M16.35857864376269,8.85857864376269L16.64142135623731,9.14142135623731L15.08284271247462,10.7L10.58284271247462,10.7L9.08284271247462,12.2L4.417157287525381,12.2L2.8,10.58284271247462L2.8,4.417157287525381L5.917157287525381,1.3L34.582842712474616,1.3L36.082842712474616,2.8L39.082842712474616,2.8L42.082842712474616,5.8L43.582842712474616,5.8L45.082842712474616,7.3L46.5,7.3L46.5,7.7L44.917157287525384,7.7L43.417157287525384,6.2L41.917157287525384,6.2L38.917157287525384,3.2L35.917157287525384,3.2L34.417157287525384,1.7L6.082842712474619,1.7L3.2,4.582842712474619L3.2,10.41715728752538L4.582842712474619,11.8L8.91715728752538,11.8L10.41715728752538,10.3L14.91715728752538,10.3z" stroke="none"/></svg>