<svg version="1.1" width="105" height="15" xmlns="http://www.w3.org/2000/svg"><path d="M96.08284271247462,5.8L102,5.8L102,6.2L90.08284271247462,6.2L88.58284271247462,7.7L85.5,7.7L85.5,7.3L88.41715728752538,7.3L89.91715728752538,5.8L95.51715728752538,5.8L94.41715728752538,4.7L93,4.7L93,4.3L94.58284271247462,4.3z" stroke="none"/><path d="M28.3,5.8L28.3,4.417157287525381L29.91715728752538,2.8L37.582842712474616,2.8L39.082842712474616,4.3L40.582842712474616,4.3L42.2,5.917157287525381L42.2,9L41.8,9L41.8,6.082842712474619L40.417157287525384,4.7L38.917157287525384,4.7L37.417157287525384,3.2L30.08284271247462,3.2L28.7,4.582842712474619L28.7,5.8L32.917157287525384,5.8L34.417157287525384,4.3L36,4.3L36,4.7L34.582842712474616,4.7L33.082842712474616,6.2L22.41715728752538,6.2L19.41715728752538,3.2L9.08284271247462,3.2L7.582842712474619,4.7L6,4.7L6,4.3L7.417157287525381,4.3L8.91715728752538,2.8L19.58284271247462,2.8L22.58284271247462,5.8z" stroke="none"/><path d="M47.8,4.3L47.8,2.917157287525381L49.417157287525384,1.3L57.082842712474616,1.3L60.2,4.417157287525381L60.2,5.917157287525381L63.082842712474616,8.8L68.91715728752538,8.8L71.91715728752538,5.8L73.5,5.8L73.5,6.2L72.08284271247462,6.2L69.08284271247462,9.2L62.917157287525384,9.2L59.8,6.082842712474619L59.8,4.582842712474619L56.917157287525384,1.7L49.582842712474616,1.7L48.2,3.082842712474619L48.2,4.3L49.417157287525384,4.3L50.917157287525384,2.8L55.5,2.8L55.5,3.2L51.082842712474616,3.2L49.582842712474616,4.7L48.082842712474616,4.7L46.7,6.082842712474619L46.7,9.08284271247462L45.082842712474616,10.7L40.417157287525384,10.7L38.8,9.08284271247462L38.8,6L39.2,6L39.2,8.91715728752538L40.582842712474616,10.3L44.917157287525384,10.3L46.3,8.91715728752538L46.3,5.917157287525381L47.51715728752538,4.7L44.917157287525384,4.7L41.917157287525384,1.7L28.58284271247462,1.7L25.64142135623731,4.641421356237309L25.35857864376269,4.358578643762691L28.41715728752538,1.3L42.082842712474616,1.3L45.082842712474616,4.3z" stroke="none"/><path d="M79.3,4.3L79.3,3.082842712474619L77.91715728752538,1.7L70.58284271247462,1.7L69.08284271247462,3.2L64.58284271247462,3.2L63.082842712474616,4.7L61.5,4.7L61.5,4.3L62.917157287525384,4.3L64.41715728752538,2.8L68.91715728752538,2.8L70.41715728752538,1.3L78.08284271247462,1.3L79.7,2.917157287525381L79.7,4.3L88.41715728752538,4.3L89.91715728752538,2.8L102,2.8L102,3.2L90.08284271247462,3.2L88.58284271247462,4.7L79.98284271247462,4.7L84.08284271247462,8.8L91.41715728752538,8.8L92.85857864376268,7.358578643762691L93.14142135623732,7.641421356237309L91.58284271247462,9.2L83.91715728752538,9.2L79.41715728752538,4.7L70.58284271247462,4.7L67.58284271247462,7.7L64.5,7.7L64.5,7.3L67.41715728752538,7.3L70.41715728752538,4.3z" stroke="none"/><path d="M24,7.7L24,7.3L25.5,7.3L25.5,7.7z" stroke="none"/><path d="M43.5,7.7L43.5,7.3L45,7.3L45,7.7z" stroke="none"/><path d="M13.3,4.5L13.7,4.5L13.7,6L13.3,6z" stroke="none"/><path d="M35.85857864376269,5.858578643762691L36.14142135623731,6.141421356237309L34.64142135623731,7.641421356237309L34.35857864376269,7.358578643762691z" stroke="none"/><path d="M97.7,12L97.3,12L97.3,9L97.7,9z" stroke="none"/><path d="M52.5,4.7L52.5,4.3L55.5,4.3L55.5,4.7z" stroke="none"/><path d="M52.64142135623731,8.85857864376269L52.35857864376269,9.14142135623731L50.917157287525384,7.7L49.5,7.7L49.5,7.3L51.082842712474616,7.3z" stroke="none"/><path d="M10.3,6L10.7,6L10.7,8.91715728752538L12.14142135623731,10.35857864376269L11.85857864376269,10.64142135623731L10.3,9.08284271247462z" stroke="none"/><path d="M22.5,10.3L22.5,10.7L19.41715728752538,10.7L17.91715728752538,9.2L15,9.2L15,8.8L18.08284271247462,8.8L19.58284271247462,10.3z" stroke="none"/><path d="M49.5,11.8L49.5,12.2L39,12.2L39,11.8z" stroke="none"/><path d="M84,10.7L84,10.3L88.58284271247462,10.3L90.08284271247462,11.8L94.5,11.8L94.5,12.2L89.91715728752538,12.2L88.41715728752538,10.7z" stroke="none"/><path d="M48,9.2L48,8.8L49.582842712474616,8.8L51.082842712474616,10.3L53.917157287525384,10.3L58.35857864376269,5.858578643762691L58.64142135623731,6.141421356237309L54.082842712474616,10.7L50.917157287525384,10.7L49.417157287525384,9.2z" stroke="none"/><path d="M16.5,7.7L16.5,7.3L21.08284271247462,7.3L22.58284271247462,8.8L30,8.8L30,9.2L22.41715728752538,9.2L20.91715728752538,7.7z" stroke="none"/><path d="M27,10.3L27,10.7L25.58284271247462,10.7L24.08284271247462,12.2L10.41715728752538,12.2L8.91715728752538,10.7L7.5,10.7L7.5,10.3L9.08284271247462,10.3L10.58284271247462,11.8L23.91715728752538,11.8L25.41715728752538,10.3z" stroke="none"/><path d="M73.35857864376268,7.358578643762691L73.64142135623732,7.641421356237309L70.58284271247462,10.7L66.08284271247462,10.7L64.58284271247462,12.2L54,12.2L54,11.8L64.41715728752538,11.8L65.91715728752538,10.3L70.41715728752538,10.3z" stroke="none"/><path d="M35.8,10.5L36.2,10.5L36.2,11.91715728752538L37.582842712474616,13.3L73.41715728752538,13.3L76.35857864376268,10.35857864376269L76.64142135623732,10.64142135623731L73.58284271247462,13.7L37.417157287525384,13.7L35.8,12.08284271247462z" stroke="none"/></svg>