<svg version="1.1" width="105" height="15" xmlns="http://www.w3.org/2000/svg"><path d="M37.5,2.8L37.5,3.2L34.7,3.2L34.7,4.417157287525381L37.582842712474616,7.3L40.417157287525384,7.3L43.417157287525384,4.3L44.917157287525384,4.3L46.417157287525384,2.8L51,2.8L51,3.2L46.582842712474616,3.2L45.082842712474616,4.7L43.582842712474616,4.7L40.582842712474616,7.7L37.417157287525384,7.7L34.3,4.582842712474619L34.3,3.2L31.58284271247462,3.2L30.08284271247462,4.7L19.5,4.7L19.5,4.3L29.91715728752538,4.3L31.41715728752538,2.8z" stroke="none"/><path d="M99.08284271247462,2.8L100.7,4.417157287525381L100.7,7.5L100.3,7.5L100.3,4.582842712474619L98.91715728752538,3.2L94.98284271247462,3.2L96.08284271247462,4.3L97.5,4.3L97.5,4.7L95.91715728752538,4.7L94.41715728752538,3.2L90,3.2L90,2.8z" stroke="none"/><path d="M56.8,5.5171572875253805L56.8,2.917157287525381L58.417157287525384,1.3L64.58284271247462,1.3L66.08284271247462,2.8L67.58284271247462,2.8L69.08284271247462,4.3L73.58284271247462,4.3L76.64142135623732,7.358578643762691L76.35857864376268,7.641421356237309L73.41715728752538,4.7L68.91715728752538,4.7L67.41715728752538,3.2L65.91715728752538,3.2L64.41715728752538,1.7L58.582842712474616,1.7L57.2,3.082842712474619L57.2,5.5171572875253805L58.417157287525384,4.3L60,4.3L60,4.7L58.582842712474616,4.7L55.582842712474616,7.7L46.582842712474616,7.7L45.082842712474616,9.2L36,9.2L36,8.8L44.917157287525384,8.8L46.417157287525384,7.3L55.417157287525384,7.3L56.71715728752538,6L55.417157287525384,4.7L48,4.7L48,4.3L55.582842712474616,4.3z" stroke="none"/><path d="M61.3,8.8L61.3,7.417157287525381L62.917157287525384,5.8L72.08284271247462,5.8L73.64142135623732,7.358578643762691L73.35857864376268,7.641421356237309L71.91715728752538,6.2L63.082842712474616,6.2L61.7,7.582842712474619L61.7,8.8L65.91715728752538,8.8L67.41715728752538,7.3L70.5,7.3L70.5,7.7L67.58284271247462,7.7L66.08284271247462,9.2L61.582842712474616,9.2L60.082842712474616,10.7L58.5,10.7L58.5,10.3L59.917157287525384,10.3L61.01715728752538,9.2L48.082842712474616,9.2L46.582842712474616,10.7L39,10.7L39,10.3L46.417157287525384,10.3L47.917157287525384,8.8z" stroke="none"/><path d="M22.5,3.2L22.5,2.8L25.5,2.8L25.5,3.2z" stroke="none"/><path d="M96,10.7L96,10.3L99,10.3L99,10.7z" stroke="none"/><path d="M33.2,10.5L32.8,10.5L32.8,7.5L33.2,7.5z" stroke="none"/><path d="M97.35857864376268,11.85857864376269L97.64142135623732,12.14142135623731L96.08284271247462,13.7L94.41715728752538,13.7L92.8,12.08284271247462L92.8,10.41715728752538L94.41715728752538,8.8L96,8.8L96,9.2L94.58284271247462,9.2L93.2,10.58284271247462L93.2,11.91715728752538L94.58284271247462,13.3L95.91715728752538,13.3z" stroke="none"/><path d="M88.5,11.8L88.5,12.2L86.91715728752538,12.2L83.91715728752538,9.2L82.5,9.2L82.5,8.8L84.08284271247462,8.8L87.08284271247462,11.8z" stroke="none"/><path d="M27,10.3L27,10.7L24.08284271247462,10.7L22.58284271247462,12.2L19.5,12.2L19.5,11.8L22.41715728752538,11.8L23.91715728752538,10.3z" stroke="none"/><path d="M12,7.3L12,7.7L8.91715728752538,7.7L5.917157287525381,4.7L4.5,4.7L4.5,4.3L6.082842712474619,4.3L9.08284271247462,7.3z" stroke="none"/><path d="M45,6.2L45,5.8L54,5.8L54,6.2z" stroke="none"/><path d="M15,6.2L15,5.8L18.08284271247462,5.8L19.58284271247462,7.3L25.5,7.3L25.5,7.7L19.41715728752538,7.7L17.91715728752538,6.2z" stroke="none"/><path d="M21,6.2L21,5.8L28.58284271247462,5.8L30.08284271247462,7.3L31.5,7.3L31.5,7.7L29.91715728752538,7.7L28.41715728752538,6.2z" stroke="none"/><path d="M15,8.8L15,9.2L7.417157287525381,9.2L4.417157287525381,6.2L3,6.2L3,5.8L4.582842712474619,5.8L7.582842712474619,8.8z" stroke="none"/><path d="M81.14142135623732,4.641421356237309L80.85857864376268,4.358578643762691L82.41715728752538,2.8L83.91715728752538,2.8L85.41715728752538,1.3L100.58284271247462,1.3L102.2,2.917157287525381L102.2,7.5L101.8,7.5L101.8,3.082842712474619L100.41715728752538,1.7L85.58284271247462,1.7L84.08284271247462,3.2L82.58284271247462,3.2z" stroke="none"/><path d="M102.2,12L101.8,12L101.8,10.58284271247462L100.41715728752538,9.2L98.91715728752538,9.2L97.41715728752538,7.7L79.5,7.7L79.5,7.3L97.58284271247462,7.3L99.08284271247462,8.8L100.58284271247462,8.8L102.2,10.41715728752538z" stroke="none"/><path d="M96,5.8L96,6.2L77.91715728752538,6.2L74.91715728752538,3.2L72,3.2L72,2.8L75.08284271247462,2.8L78.08284271247462,5.8z" stroke="none"/><path d="M49.5,11.8L49.5,12.2L31.41715728752538,12.2L28.41715728752538,9.2L18,9.2L18,8.8L28.58284271247462,8.8L31.58284271247462,11.8z" stroke="none"/><path d="M75,10.3L75,10.7L63.082842712474616,10.7L61.582842712474616,12.2L52.582842712474616,12.2L51.082842712474616,13.7L13.41715728752538,13.7L11.91715728752538,12.2L10.41715728752538,12.2L8.91715728752538,10.7L5.917157287525381,10.7L4.417157287525381,9.2L2.917157287525381,9.2L1.3,7.582842712474619L1.3,4.417157287525381L2.917157287525381,2.8L4.417157287525381,2.8L5.917157287525381,1.3L39.082842712474616,1.3L40.7,2.917157287525381L40.7,4.582842712474619L39.14142135623731,6.141421356237309L38.85857864376269,5.858578643762691L40.3,4.417157287525381L40.3,3.082842712474619L38.917157287525384,1.7L6.082842712474619,1.7L4.582842712474619,3.2L3.082842712474619,3.2L1.7,4.582842712474619L1.7,7.417157287525381L3.082842712474619,8.8L4.582842712474619,8.8L6.082842712474619,10.3L9.08284271247462,10.3L10.58284271247462,11.8L12.08284271247462,11.8L13.58284271247462,13.3L50.917157287525384,13.3L52.417157287525384,11.8L61.417157287525384,11.8L62.917157287525384,10.3z" stroke="none"/></svg>