<svg version="1.1" width="105" height="15" xmlns="http://www.w3.org/2000/svg"><path d="M43.417157287525384,10.3L44.917157287525384,8.8L47.917157287525384,8.8L49.417157287525384,7.3L51,7.3L51,7.7L49.582842712474616,7.7L48.082842712474616,9.2L45.082842712474616,9.2L43.78284271247462,10.5L45.082842712474616,11.8L46.5,11.8L46.5,12.2L44.917157287525384,12.2L43.417157287525384,10.7L34.582842712474616,10.7L33.082842712474616,12.2L31.5,12.2L31.5,11.8L32.917157287525384,11.8L34.417157287525384,10.3z" stroke="none"/><path d="M72.08284271247462,8.8L73.58284271247462,10.3L75,10.3L75,10.7L73.41715728752538,10.7L72.2,9.48284271247462L72.2,11.91715728752538L73.58284271247462,13.3L74.91715728752538,13.3L76.35857864376268,11.85857864376269L76.64142135623732,12.14142135623731L75.08284271247462,13.7L73.41715728752538,13.7L71.8,12.08284271247462L71.8,9.2L70.41715728752538,9.2L68.91715728752538,7.7L67.5,7.7L67.5,7.3L69.08284271247462,7.3L70.58284271247462,8.8z" stroke="none"/><path d="M85.3,7.3L85.3,5.917157287525381L86.91715728752538,4.3L88.58284271247462,4.3L90.08284271247462,5.8L91.58284271247462,5.8L93.08284271247462,7.3L94.58284271247462,7.3L99.08284271247462,11.8L102,11.8L102,12.2L98.91715728752538,12.2L94.41715728752538,7.7L92.91715728752538,7.7L91.41715728752538,6.2L89.91715728752538,6.2L88.41715728752538,4.7L87.08284271247462,4.7L85.7,6.082842712474619L85.7,7.3L90.08284271247462,7.3L94.58284271247462,11.8L96,11.8L96,12.2L94.41715728752538,12.2L89.91715728752538,7.7L85.98284271247462,7.7L87.08284271247462,8.8L88.5,8.8L88.5,9.2L86.91715728752538,9.2L85.41715728752538,7.7L82.41715728752538,7.7L80.91715728752538,6.2L70.41715728752538,6.2L68.91715728752538,4.7L67.58284271247462,4.7L66.2,6.082842712474619L66.2,7.5L65.8,7.5L65.8,5.917157287525381L67.41715728752538,4.3L69.08284271247462,4.3L70.58284271247462,5.8L81.08284271247462,5.8L82.58284271247462,7.3z" stroke="none"/><path d="M14.8,8.8L14.8,7.582842712474619L13.41715728752538,6.2L10.58284271247462,6.2L9.08284271247462,7.7L4.5,7.7L4.5,7.3L8.91715728752538,7.3L10.41715728752538,5.8L13.58284271247462,5.8L15.2,7.417157287525381L15.2,8.8L22.5,8.8L22.5,9.2L15.2,9.2L15.2,10.41715728752538L16.58284271247462,11.8L22.41715728752538,11.8L23.91715728752538,10.3L29.91715728752538,10.3L31.35857864376269,8.85857864376269L31.64142135623731,9.14142135623731L30.08284271247462,10.7L24.08284271247462,10.7L22.58284271247462,12.2L16.41715728752538,12.2L14.8,10.58284271247462L14.8,9.2L7.582842712474619,9.2L6.082842712474619,10.7L4.5,10.7L4.5,10.3L5.917157287525381,10.3L7.417157287525381,8.8z" stroke="none"/><path d="M88.5,3.2L88.5,2.8L90,2.8L90,3.2z" stroke="none"/><path d="M74.85857864376268,2.8585786437626903L75.14142135623732,3.1414213562373097L73.64142135623732,4.641421356237309L73.35857864376268,4.358578643762691z" stroke="none"/><path d="M76.64142135623732,9.14142135623731L76.35857864376268,8.85857864376269L77.91715728752538,7.3L79.5,7.3L79.5,7.7L78.08284271247462,7.7z" stroke="none"/><path d="M85.5,10.3L85.5,10.7L84.08284271247462,10.7L82.58284271247462,12.2L81,12.2L81,11.8L82.41715728752538,11.8L83.91715728752538,10.3z" stroke="none"/><path d="M57,4.3L57,4.7L55.417157287525384,4.7L53.917157287525384,3.2L52.5,3.2L52.5,2.8L54.082842712474616,2.8L55.582842712474616,4.3z" stroke="none"/><path d="M10.5,10.3L10.5,10.7L9.08284271247462,10.7L7.582842712474619,12.2L6,12.2L6,11.8L7.417157287525381,11.8L8.91715728752538,10.3z" stroke="none"/><path d="M3.2,9L2.8,9L2.8,5.917157287525381L4.417157287525381,4.3L6,4.3L6,4.7L4.582842712474619,4.7L3.2,6.082842712474619z" stroke="none"/><path d="M40.64142135623731,9.14142135623731L40.35857864376269,8.85857864376269L44.85857864376269,4.358578643762691L45.14142135623731,4.641421356237309z" stroke="none"/><path d="M64.7,6L64.3,6L64.3,4.417157287525381L65.91715728752538,2.8L70.5,2.8L70.5,3.2L66.08284271247462,3.2L64.7,4.582842712474619z" stroke="none"/><path d="M93.14142135623732,2.8585786437626903L92.85857864376268,3.1414213562373097L91.41715728752538,1.7L87.08284271247462,1.7L84.14142135623732,4.641421356237309L83.85857864376268,4.358578643762691L86.91715728752538,1.3L91.58284271247462,1.3z" stroke="none"/><path d="M22.5,2.8L22.5,3.2L12,3.2L12,2.8z" stroke="none"/><path d="M46.5,10.7L46.5,10.3L56.917157287525384,10.3L58.417157287525384,8.8L60,8.8L60,9.2L58.582842712474616,9.2L57.082842712474616,10.7z" stroke="none"/><path d="M28.64142135623731,9.14142135623731L28.35857864376269,8.85857864376269L29.91715728752538,7.3L34.417157287525384,7.3L37.417157287525384,4.3L40.417157287525384,4.3L41.917157287525384,2.8L46.582842712474616,2.8L48.2,4.417157287525381L48.2,6.082842712474619L46.64142135623731,7.641421356237309L46.35857864376269,7.358578643762691L47.8,5.917157287525381L47.8,4.582842712474619L46.417157287525384,3.2L42.082842712474616,3.2L40.582842712474616,4.7L37.582842712474616,4.7L34.582842712474616,7.7L30.08284271247462,7.7z" stroke="none"/><path d="M7.641421356237309,6.141421356237309L7.358578643762691,5.858578643762691L8.91715728752538,4.3L25.5,4.3L25.5,4.7L9.08284271247462,4.7z" stroke="none"/><path d="M78.14142135623732,2.8585786437626903L77.85857864376268,3.1414213562373097L76.41715728752538,1.7L40.582842712474616,1.7L39.14142135623731,3.1414213562373097L38.85857864376269,2.8585786437626903L40.417157287525384,1.3L76.58284271247462,1.3z" stroke="none"/><path d="M59.85857864376269,3.1414213562373097L60.14142135623731,2.8585786437626903L61.7,4.417157287525381L61.7,10.58284271247462L60.082842712474616,12.2L49.582842712474616,12.2L48.082842712474616,13.7L4.417157287525381,13.7L1.3,10.58284271247462L1.3,4.417157287525381L2.917157287525381,2.8L4.417157287525381,2.8L5.917157287525381,1.3L25.58284271247462,1.3L27.2,2.917157287525381L27.2,6.082842712474619L25.58284271247462,7.7L22.41715728752538,7.7L20.91715728752538,6.2L16.5,6.2L16.5,5.8L21.08284271247462,5.8L22.58284271247462,7.3L25.41715728752538,7.3L26.8,5.917157287525381L26.8,3.082842712474619L25.41715728752538,1.7L6.082842712474619,1.7L4.582842712474619,3.2L3.082842712474619,3.2L1.7,4.582842712474619L1.7,10.41715728752538L4.582842712474619,13.3L47.917157287525384,13.3L49.417157287525384,11.8L59.917157287525384,11.8L61.3,10.41715728752538L61.3,4.582842712474619z" stroke="none"/></svg>