<svg version="1.1" width="105" height="15" xmlns="http://www.w3.org/2000/svg"><path d="M97.5,10.3L97.5,10.7L93.08284271247462,10.7L91.58284271247462,12.2L90,12.2L90,11.8L91.41715728752538,11.8L92.51715728752538,10.7L87,10.7L87,10.3z" stroke="none"/><path d="M50.8,7.3L50.8,6.082842712474619L49.417157287525384,4.7L43.582842712474616,4.7L42.082842712474616,6.2L39.082842712474616,6.2L37.64142135623731,7.641421356237309L37.35857864376269,7.358578643762691L38.917157287525384,5.8L41.917157287525384,5.8L43.417157287525384,4.3L49.582842712474616,4.3L51.2,5.917157287525381L51.2,7.417157287525381L52.582842712474616,8.8L61.582842712474616,8.8L63.082842712474616,10.3L64.58284271247462,10.3L66.08284271247462,11.8L81,11.8L81,12.2L65.91715728752538,12.2L64.41715728752538,10.7L62.917157287525384,10.7L61.417157287525384,9.2L52.417157287525384,9.2L50.917157287525384,7.7L46.582842712474616,7.7L45.082842712474616,9.2L43.582842712474616,9.2L42.14142135623731,10.64142135623731L41.85857864376269,10.35857864376269L43.417157287525384,8.8L44.917157287525384,8.8L46.417157287525384,7.3z" stroke="none"/><path d="M80.91715728752538,5.8L82.41715728752538,4.3L84,4.3L84,4.7L82.58284271247462,4.7L81.48284271247462,5.8L97.58284271247462,5.8L99.08284271247462,7.3L102,7.3L102,7.7L98.91715728752538,7.7L97.41715728752538,6.2L81.2,6.2L81.2,9L80.8,9L80.8,6.2L69.08284271247462,6.2L67.58284271247462,7.7L63,7.7L63,7.3L67.41715728752538,7.3L68.91715728752538,5.8z" stroke="none"/><path d="M29.8,7.3L29.8,6.082842712474619L28.41715728752538,4.7L25.58284271247462,4.7L22.58284271247462,7.7L12,7.7L12,7.3L22.41715728752538,7.3L25.41715728752538,4.3L28.58284271247462,4.3L30.2,5.917157287525381L30.2,7.3L33.082842712474616,7.3L37.582842712474616,11.8L45,11.8L45,12.2L37.417157287525384,12.2L32.917157287525384,7.7L30.08284271247462,7.7L28.58284271247462,9.2L27,9.2L27,8.8L28.41715728752538,8.8L29.517157287525382,7.7L25.58284271247462,7.7L24.2,9.08284271247462L24.2,10.41715728752538L25.64142135623731,11.85857864376269L25.35857864376269,12.14142135623731L23.8,10.58284271247462L23.8,8.91715728752538L25.41715728752538,7.3z" stroke="none"/><path d="M10.5,3.2L10.5,2.8L12,2.8L12,3.2z" stroke="none"/><path d="M39.14142135623731,9.14142135623731L38.85857864376269,8.85857864376269L40.35857864376269,7.358578643762691L40.64142135623731,7.641421356237309z" stroke="none"/><path d="M15,10.3L15,10.7L12,10.7L12,10.3z" stroke="none"/><path d="M58.5,5.8L58.5,6.2L57.082842712474616,6.2L55.582842712474616,7.7L54,7.7L54,7.3L55.417157287525384,7.3L56.917157287525384,5.8z" stroke="none"/><path d="M4.7,10.5L4.3,10.5L4.3,7.582842712474619L2.8585786437626903,6.141421356237309L3.1414213562373097,5.858578643762691L4.7,7.417157287525381z" stroke="none"/><path d="M18,4.3L18,4.7L12,4.7L12,4.3z" stroke="none"/><path d="M54,11.8L54,12.2L46.5,12.2L46.5,11.8z" stroke="none"/><path d="M20.85857864376269,10.64142135623731L21.14142135623731,10.35857864376269L24.08284271247462,13.3L26.91715728752538,13.3L29.85857864376269,10.35857864376269L30.14142135623731,10.64142135623731L27.08284271247462,13.7L23.91715728752538,13.7z" stroke="none"/><path d="M98.85857864376268,12.14142135623731L99.14142135623732,11.85857864376269L100.58284271247462,13.3L101.91715728752538,13.3L103.3,11.91715728752538L103.3,10.58284271247462L101.91715728752538,9.2L94.41715728752538,9.2L92.91715728752538,7.7L90,7.7L90,7.3L93.08284271247462,7.3L94.58284271247462,8.8L102.08284271247462,8.8L103.7,10.41715728752538L103.7,12.08284271247462L102.08284271247462,13.7L100.41715728752538,13.7z" stroke="none"/><path d="M78,10.3L78,10.7L67.5,10.7L67.5,10.3z" stroke="none"/><path d="M34.5,4.7L34.5,4.3L38.917157287525384,4.3L40.417157287525384,2.8L49.5,2.8L49.5,3.2L40.582842712474616,3.2L39.082842712474616,4.7z" stroke="none"/><path d="M36.14142135623731,7.358578643762691L35.85857864376269,7.641421356237309L34.417157287525384,6.2L32.917157287525384,6.2L29.91715728752538,3.2L22.58284271247462,3.2L19.58284271247462,6.2L10.58284271247462,6.2L7.7,9.08284271247462L7.7,10.5L7.3,10.5L7.3,8.91715728752538L10.41715728752538,5.8L19.41715728752538,5.8L22.41715728752538,2.8L30.08284271247462,2.8L33.082842712474616,5.8L34.582842712474616,5.8z" stroke="none"/><path d="M97.5,4.3L97.5,4.7L86.91715728752538,4.7L85.41715728752538,3.2L67.5,3.2L67.5,2.8L85.58284271247462,2.8L87.08284271247462,4.3z" stroke="none"/><path d="M65.85857864376268,4.358578643762691L66.14142135623732,4.641421356237309L64.58284271247462,6.2L62.917157287525384,6.2L61.3,4.582842712474619L61.3,2.917157287525381L62.917157287525384,1.3L93.08284271247462,1.3L94.58284271247462,2.8L99.08284271247462,2.8L100.64142135623732,4.358578643762691L100.35857864376268,4.641421356237309L98.91715728752538,3.2L94.41715728752538,3.2L92.91715728752538,1.7L63.082842712474616,1.7L61.7,3.082842712474619L61.7,4.417157287525381L63.082842712474616,5.8L64.41715728752538,5.8z" stroke="none"/><path d="M49.5,10.7L49.5,10.3L55.582842712474616,10.3L57.082842712474616,11.8L60.082842712474616,11.8L61.582842712474616,13.3L82.41715728752538,13.3L83.8,11.91715728752538L83.8,8.91715728752538L85.35857864376268,7.358578643762691L85.64142135623732,7.641421356237309L84.2,9.08284271247462L84.2,12.08284271247462L82.58284271247462,13.7L61.417157287525384,13.7L59.917157287525384,12.2L56.917157287525384,12.2L55.417157287525384,10.7z" stroke="none"/><path d="M10.5,4.3L10.5,4.7L9.08284271247462,4.7L7.582842712474619,6.2L5.917157287525381,6.2L4.3,4.582842712474619L4.3,2.917157287525381L5.917157287525381,1.3L55.582842712474616,1.3L57.082842712474616,2.8L58.582842712474616,2.8L60.2,4.417157287525381L60.2,6L59.8,6L59.8,4.582842712474619L58.417157287525384,3.2L56.917157287525384,3.2L55.417157287525384,1.7L6.082842712474619,1.7L4.7,3.082842712474619L4.7,4.417157287525381L6.082842712474619,5.8L7.417157287525381,5.8L8.91715728752538,4.3z" stroke="none"/></svg>