<svg version="1.1" width="105" height="15" xmlns="http://www.w3.org/2000/svg"><path d="M11.8,10.41715728752538L11.8,7.5L12.2,7.5L12.2,10.3L13.41715728752538,10.3L14.91715728752538,8.8L20.91715728752538,8.8L22.35857864376269,7.358578643762691L22.64142135623731,7.641421356237309L21.08284271247462,9.2L15.08284271247462,9.2L13.58284271247462,10.7L12.08284271247462,10.7L10.58284271247462,12.2L9.08284271247462,12.2L7.582842712474619,13.7L4.417157287525381,13.7L2.8585786437626903,12.14142135623731L3.1414213562373097,11.85857864376269L4.582842712474619,13.3L7.417157287525381,13.3L8.91715728752538,11.8L10.41715728752538,11.8z" stroke="none"/><path d="M86.91715728752538,1.3L90.08284271247462,1.3L91.64142135623732,2.8585786437626903L91.35857864376268,3.1414213562373097L89.91715728752538,1.7L87.48284271247462,1.7L90.14142135623732,4.358578643762691L89.85857864376268,4.641421356237309L87,1.7828427124746191L85.58284271247462,3.2L84.08284271247462,3.2L82.64142135623732,4.641421356237309L82.35857864376268,4.358578643762691L83.91715728752538,2.8L85.41715728752538,2.8z" stroke="none"/><path d="M31.3,5.5171572875253805L31.3,4.417157287525381L32.917157287525384,2.8L34.582842712474616,2.8L36.082842712474616,4.3L37.582842712474616,4.3L39.082842712474616,5.8L40.582842712474616,5.8L42.082842712474616,7.3L43.5,7.3L43.5,7.7L41.917157287525384,7.7L40.417157287525384,6.2L38.917157287525384,6.2L37.417157287525384,4.7L35.917157287525384,4.7L34.417157287525384,3.2L33.082842712474616,3.2L31.7,4.582842712474619L31.7,5.8L33.082842712474616,5.8L34.7,7.417157287525381L34.7,9L34.3,9L34.3,7.582842712474619L32.917157287525384,6.2L22.41715728752538,6.2L20.91715728752538,4.7L19.5,4.7L19.5,4.3L21.08284271247462,4.3L22.58284271247462,5.8L31.017157287525382,5.8L29.91715728752538,4.7L28.5,4.7L28.5,4.3L30.08284271247462,4.3z" stroke="none"/><path d="M50.8,8.91715728752538L50.8,7.582842712474619L49.417157287525384,6.2L46.582842712474616,6.2L45.2,7.582842712474619L45.2,9.08284271247462L43.582842712474616,10.7L39.082842712474616,10.7L37.582842712474616,12.2L34.417157287525384,12.2L32.8,10.58284271247462L32.8,9L33.2,9L33.2,10.41715728752538L34.582842712474616,11.8L37.417157287525384,11.8L38.917157287525384,10.3L43.417157287525384,10.3L44.8,8.91715728752538L44.8,7.417157287525381L46.417157287525384,5.8L49.582842712474616,5.8L51.2,7.417157287525381L51.2,8.8L59.917157287525384,8.8L61.417157287525384,7.3L73.5,7.3L73.5,7.7L61.582842712474616,7.7L60.082842712474616,9.2L51.2,9.2L51.2,12.08284271247462L49.582842712474616,13.7L43.417157287525384,13.7L41.917157287525384,12.2L40.5,12.2L40.5,11.8L42.082842712474616,11.8L43.582842712474616,13.3L49.417157287525384,13.3L50.8,11.91715728752538L50.8,9.48284271247462L49.582842712474616,10.7L48.082842712474616,10.7L46.582842712474616,12.2L45,12.2L45,11.8L46.417157287525384,11.8L47.917157287525384,10.3L49.417157287525384,10.3z" stroke="none"/><path d="M31.5,10.3L31.5,10.7L30,10.7L30,10.3z" stroke="none"/><path d="M47.8,7.5L48.2,7.5L48.2,9L47.8,9z" stroke="none"/><path d="M26.85857864376269,8.85857864376269L27.14142135623731,9.14142135623731L25.64142135623731,10.64142135623731L25.35857864376269,10.35857864376269z" stroke="none"/><path d="M7.358578643762691,10.35857864376269L7.641421356237309,10.64142135623731L6.141421356237309,12.14142135623731L5.858578643762691,11.85857864376269z" stroke="none"/><path d="M82.7,12L82.3,12L82.3,10.58284271247462L80.85857864376268,9.14142135623731L81.14142135623732,8.85857864376269L82.7,10.41715728752538z" stroke="none"/><path d="M99,4.3L99,4.7L97.41715728752538,4.7L95.91715728752538,3.2L94.5,3.2L94.5,2.8L96.08284271247462,2.8L97.58284271247462,4.3z" stroke="none"/><path d="M16.5,10.7L16.5,10.3L22.41715728752538,10.3L23.8,8.91715728752538L23.8,7.5L24.2,7.5L24.2,9.08284271247462L22.58284271247462,10.7z" stroke="none"/><path d="M102,5.8L102,6.2L97.58284271247462,6.2L96.08284271247462,7.7L93,7.7L93,7.3L95.91715728752538,7.3L97.41715728752538,5.8z" stroke="none"/><path d="M87,12.2L87,11.8L89.91715728752538,11.8L91.41715728752538,10.3L94.41715728752538,10.3L95.91715728752538,8.8L99,8.8L99,9.2L96.08284271247462,9.2L94.58284271247462,10.7L91.58284271247462,10.7L90.08284271247462,12.2z" stroke="none"/><path d="M77.8,4.5L78.2,4.5L78.2,6.082842712474619L75.08284271247462,9.2L66,9.2L66,8.8L74.91715728752538,8.8L77.8,5.917157287525381z" stroke="none"/><path d="M72,12.2L72,11.8L73.41715728752538,11.8L74.91715728752538,10.3L76.41715728752538,10.3L79.41715728752538,7.3L85.5,7.3L85.5,7.7L79.58284271247462,7.7L76.58284271247462,10.7L75.08284271247462,10.7L73.58284271247462,12.2z" stroke="none"/><path d="M57,6.2L57,5.8L72,5.8L72,6.2z" stroke="none"/><path d="M30,2.8L30,3.2L10.58284271247462,3.2L9.08284271247462,4.7L4.5,4.7L4.5,4.3L8.91715728752538,4.3L10.41715728752538,2.8z" stroke="none"/><path d="M57,3.2L57,2.8L74.91715728752538,2.8L76.41715728752538,1.3L78.08284271247462,1.3L79.7,2.917157287525381L79.7,4.417157287525381L81.08284271247462,5.8L83.91715728752538,5.8L85.35857864376268,4.358578643762691L85.64142135623732,4.641421356237309L84.08284271247462,6.2L80.91715728752538,6.2L79.3,4.582842712474619L79.3,3.082842712474619L77.91715728752538,1.7L76.58284271247462,1.7L75.08284271247462,3.2z" stroke="none"/><path d="M64.3,9L64.7,9L64.7,10.41715728752538L66.08284271247462,11.8L69.08284271247462,11.8L70.58284271247462,13.3L83.91715728752538,13.3L85.3,11.91715728752538L85.3,10.41715728752538L86.91715728752538,8.8L88.41715728752538,8.8L91.41715728752538,5.8L94.5,5.8L94.5,6.2L91.58284271247462,6.2L88.58284271247462,9.2L87.08284271247462,9.2L85.7,10.58284271247462L85.7,12.08284271247462L84.08284271247462,13.7L70.41715728752538,13.7L68.91715728752538,12.2L65.91715728752538,12.2L64.3,10.58284271247462z" stroke="none"/><path d="M52.5,2.8L52.5,3.2L37.417157287525384,3.2L35.917157287525384,1.7L4.582842712474619,1.7L3.2,3.082842712474619L3.2,5.917157287525381L4.582842712474619,7.3L7.417157287525381,7.3L8.91715728752538,5.8L19.5,5.8L19.5,6.2L9.08284271247462,6.2L7.582842712474619,7.7L4.417157287525381,7.7L2.8,6.082842712474619L2.8,2.917157287525381L4.417157287525381,1.3L36.082842712474616,1.3L37.582842712474616,2.8z" stroke="none"/></svg>