<svg version="1.1" width="105" height="15" xmlns="http://www.w3.org/2000/svg"><path d="M90.08284271247462,4.3L91.58284271247462,5.8L96.08284271247462,5.8L97.58284271247462,7.3L99,7.3L99,7.7L97.41715728752538,7.7L95.91715728752538,6.2L91.41715728752538,6.2L89.91715728752538,4.7L87.08284271247462,4.7L85.58284271247462,6.2L84,6.2L84,5.8L85.41715728752538,5.8L86.51715728752538,4.7L82.58284271247462,4.7L81.14142135623732,6.141421356237309L80.85857864376268,5.858578643762691L82.41715728752538,4.3z" stroke="none"/><path d="M90.08284271247462,1.3L91.64142135623732,2.8585786437626903L91.35857864376268,3.1414213562373097L89.91715728752538,1.7L73.98284271247462,1.7L75.08284271247462,2.8L76.58284271247462,2.8L78.14142135623732,4.358578643762691L77.85857864376268,4.641421356237309L76.41715728752538,3.2L74.91715728752538,3.2L73.41715728752538,1.7L64.58284271247462,1.7L61.582842712474616,4.7L58.5,4.7L58.5,4.3L61.417157287525384,4.3L64.41715728752538,1.3z" stroke="none"/><path d="M30.08284271247462,2.8L33.082842712474616,5.8L40.582842712474616,5.8L42.082842712474616,7.3L43.582842712474616,7.3L45.082842712474616,8.8L49.582842712474616,8.8L51.082842712474616,10.3L57.082842712474616,10.3L58.582842712474616,11.8L60.082842712474616,11.8L61.582842712474616,13.3L97.41715728752538,13.3L98.8,11.91715728752538L98.8,10.58284271247462L97.41715728752538,9.2L89.91715728752538,9.2L88.41715728752538,7.7L76.41715728752538,7.7L73.41715728752538,4.7L64.5,4.7L64.5,4.3L73.58284271247462,4.3L76.58284271247462,7.3L88.58284271247462,7.3L90.08284271247462,8.8L97.58284271247462,8.8L99.2,10.41715728752538L99.2,12.08284271247462L97.58284271247462,13.7L61.417157287525384,13.7L59.917157287525384,12.2L58.417157287525384,12.2L56.917157287525384,10.7L50.917157287525384,10.7L49.417157287525384,9.2L44.917157287525384,9.2L43.417157287525384,7.7L41.917157287525384,7.7L40.417157287525384,6.2L32.917157287525384,6.2L29.91715728752538,3.2L28.7,3.2L28.7,6.082842712474619L25.58284271247462,9.2L22.41715728752538,9.2L16.35857864376269,3.1414213562373097L16.64142135623731,2.8585786437626903L22.58284271247462,8.8L25.41715728752538,8.8L28.3,5.917157287525381L28.3,3.482842712474619L24.14142135623731,7.641421356237309L23.85857864376269,7.358578643762691L28.017157287525382,3.2L19.5,3.2L19.5,2.8z" stroke="none"/><path d="M71.8,8.8L71.8,7.582842712474619L70.41715728752538,6.2L60.082842712474616,6.2L58.582842712474616,7.7L46.5,7.7L46.5,7.3L58.417157287525384,7.3L59.917157287525384,5.8L70.58284271247462,5.8L72.2,7.417157287525381L72.2,8.8L87.08284271247462,8.8L88.64142135623732,10.35857864376269L88.35857864376268,10.64142135623731L86.91715728752538,9.2L72.2,9.2L72.2,10.41715728752538L73.58284271247462,11.8L96,11.8L96,12.2L73.41715728752538,12.2L71.8,10.58284271247462L71.8,9.2L69.08284271247462,9.2L66.08284271247462,12.2L64.5,12.2L64.5,11.8L65.91715728752538,11.8L68.91715728752538,8.8z" stroke="none"/><path d="M36.2,10.5L35.8,10.5L35.8,9L36.2,9z" stroke="none"/><path d="M94.5,7.3L94.5,7.7L93,7.7L93,7.3z" stroke="none"/><path d="M101.8,9L102.2,9L102.2,10.58284271247462L100.64142135623732,12.14142135623731L100.35857864376268,11.85857864376269L101.8,10.41715728752538z" stroke="none"/><path d="M13.5,5.8L13.5,6.2L12.08284271247462,6.2L10.7,7.582842712474619L10.7,8.91715728752538L12.08284271247462,10.3L13.41715728752538,10.3L14.91715728752538,8.8L16.5,8.8L16.5,9.2L15.08284271247462,9.2L13.58284271247462,10.7L11.91715728752538,10.7L10.3,9.08284271247462L10.3,7.417157287525381L11.91715728752538,5.8z" stroke="none"/><path d="M37.35857864376269,7.641421356237309L37.64142135623731,7.358578643762691L40.64142135623731,10.35857864376269L40.35857864376269,10.64142135623731z" stroke="none"/><path d="M5.858578643762691,9.14142135623731L6.141421356237309,8.85857864376269L7.582842712474619,10.3L9.08284271247462,10.3L10.64142135623731,11.85857864376269L10.35857864376269,12.14142135623731L8.91715728752538,10.7L7.417157287525381,10.7z" stroke="none"/><path d="M4.5,3.2L4.5,2.8L10.5,2.8L10.5,3.2z" stroke="none"/><path d="M100.5,4.3L100.5,4.7L93,4.7L93,4.3z" stroke="none"/><path d="M33,3.2L33,2.8L40.5,2.8L40.5,3.2z" stroke="none"/><path d="M54,5.8L54,6.2L49.417157287525384,6.2L47.917157287525384,4.7L46.5,4.7L46.5,4.3L48.082842712474616,4.3L49.582842712474616,5.8z" stroke="none"/><path d="M37.5,12.2L37.5,11.8L41.917157287525384,11.8L43.417157287525384,10.3L45,10.3L45,10.7L43.582842712474616,10.7L42.082842712474616,12.2z" stroke="none"/><path d="M37.5,4.7L37.5,4.3L43.417157287525384,4.3L44.917157287525384,2.8L48,2.8L48,3.2L45.082842712474616,3.2L43.582842712474616,4.7z" stroke="none"/><path d="M12,12.2L12,11.8L24,11.8L24,12.2z" stroke="none"/><path d="M3.1414213562373097,5.858578643762691L2.8585786437626903,6.141421356237309L1.3,4.582842712474619L1.3,2.917157287525381L2.917157287525381,1.3L12.08284271247462,1.3L15.2,4.417157287525381L15.2,7.5L14.8,7.5L14.8,4.582842712474619L11.91715728752538,1.7L3.082842712474619,1.7L1.7,3.082842712474619L1.7,4.417157287525381z" stroke="none"/><path d="M6,12.2L6,11.8L7.582842712474619,11.8L9.08284271247462,13.3L26.91715728752538,13.3L28.41715728752538,11.8L29.91715728752538,11.8L31.41715728752538,10.3L33,10.3L33,10.7L31.58284271247462,10.7L30.08284271247462,12.2L28.58284271247462,12.2L27.08284271247462,13.7L8.91715728752538,13.7L7.417157287525381,12.2z" stroke="none"/><path d="M16.5,10.7L16.5,10.3L28.41715728752538,10.3L31.41715728752538,7.3L33.082842712474616,7.3L34.7,8.91715728752538L34.7,11.91715728752538L36.082842712474616,13.3L44.917157287525384,13.3L46.3,11.91715728752538L46.3,10.5L46.7,10.5L46.7,12.08284271247462L45.082842712474616,13.7L35.917157287525384,13.7L34.3,12.08284271247462L34.3,9.08284271247462L32.917157287525384,7.7L31.58284271247462,7.7L28.58284271247462,10.7z" stroke="none"/></svg>