<svg version="1.1" width="105" height="15" xmlns="http://www.w3.org/2000/svg"><path d="M18,2.8L18,3.2L12.2,3.2L12.2,6L11.8,6L11.8,3.2L7.582842712474619,3.2L6.141421356237309,4.641421356237309L5.858578643762691,4.358578643762691L7.417157287525381,2.8z" stroke="none"/><path d="M79.3,8.8L79.3,5.917157287525381L80.91715728752538,4.3L82.58284271247462,4.3L84.08284271247462,5.8L85.58284271247462,5.8L87.08284271247462,7.3L88.5,7.3L88.5,7.7L86.91715728752538,7.7L85.41715728752538,6.2L83.91715728752538,6.2L82.41715728752538,4.7L81.08284271247462,4.7L79.7,6.082842712474619L79.7,8.51715728752538L80.91715728752538,7.3L84.08284271247462,7.3L85.7,8.91715728752538L85.7,10.58284271247462L84.14142135623732,12.14142135623731L83.85857864376268,11.85857864376269L85.3,10.41715728752538L85.3,9.08284271247462L83.91715728752538,7.7L81.08284271247462,7.7L79.58284271247462,9.2L67.41715728752538,9.2L65.85857864376268,7.641421356237309L66.14142135623732,7.358578643762691L67.58284271247462,8.8z" stroke="none"/><path d="M49.582842712474616,7.3L51.082842712474616,8.8L64.58284271247462,8.8L66.08284271247462,10.3L79.41715728752538,10.3L80.91715728752538,8.8L82.5,8.8L82.5,9.2L81.08284271247462,9.2L79.58284271247462,10.7L65.91715728752538,10.7L64.41715728752538,9.2L50.917157287525384,9.2L49.417157287525384,7.7L48.2,7.7L48.2,10.58284271247462L46.582842712474616,12.2L40.417157287525384,12.2L38.917157287525384,10.7L34.417157287525384,10.7L32.8,9.08284271247462L32.8,6L33.2,6L33.2,8.91715728752538L34.582842712474616,10.3L39.082842712474616,10.3L40.582842712474616,11.8L46.417157287525384,11.8L47.8,10.41715728752538L47.8,7.9828427124746195L46.582842712474616,9.2L45,9.2L45,8.8L46.417157287525384,8.8L47.51715728752538,7.7L34.5,7.7L34.5,7.3z" stroke="none"/><path d="M50.8,4.3L50.8,3.082842712474619L49.417157287525384,1.7L37.582842712474616,1.7L36.14142135623731,3.1414213562373097L35.85857864376269,2.8585786437626903L37.417157287525384,1.3L49.582842712474616,1.3L51.2,2.917157287525381L51.2,4.3L58.5,4.3L58.5,4.7L51.2,4.7L51.2,5.917157287525381L52.582842712474616,7.3L56.917157287525384,7.3L58.417157287525384,5.8L67.58284271247462,5.8L69.14142135623732,7.358578643762691L68.85857864376268,7.641421356237309L67.41715728752538,6.2L58.582842712474616,6.2L57.082842712474616,7.7L52.417157287525384,7.7L50.8,6.082842712474619L50.8,4.7L43.417157287525384,4.7L41.85857864376269,3.1414213562373097L42.14142135623731,2.8585786437626903L43.582842712474616,4.3z" stroke="none"/><path d="M33,3.2L33,2.8L34.5,2.8L34.5,3.2z" stroke="none"/><path d="M90,11.8L90,12.2L87,12.2L87,11.8z" stroke="none"/><path d="M9,12.2L9,11.8L12,11.8L12,12.2z" stroke="none"/><path d="M64.5,7.3L64.5,7.7L60,7.7L60,7.3z" stroke="none"/><path d="M27,9.2L27,8.8L28.58284271247462,8.8L30.08284271247462,10.3L31.5,10.3L31.5,10.7L29.91715728752538,10.7L28.41715728752538,9.2z" stroke="none"/><path d="M97.64142135623732,12.14142135623731L97.35857864376268,11.85857864376269L98.8,10.41715728752538L98.8,8.91715728752538L100.35857864376268,7.358578643762691L100.64142135623732,7.641421356237309L99.2,9.08284271247462L99.2,10.58284271247462z" stroke="none"/><path d="M19.5,9.2L19.5,8.8L23.91715728752538,8.8L26.85857864376269,5.858578643762691L27.14142135623731,6.141421356237309L24.08284271247462,9.2z" stroke="none"/><path d="M38.85857864376269,2.8585786437626903L39.14142135623731,3.1414213562373097L37.582842712474616,4.7L31.41715728752538,4.7L29.85857864376269,3.1414213562373097L30.14142135623731,2.8585786437626903L31.58284271247462,4.3L37.417157287525384,4.3z" stroke="none"/><path d="M4.5,12.2L4.5,11.8L5.917157287525381,11.8L7.417157287525381,10.3L10.41715728752538,10.3L11.91715728752538,8.8L13.5,8.8L13.5,9.2L12.08284271247462,9.2L10.58284271247462,10.7L7.582842712474619,10.7L6.082842712474619,12.2z" stroke="none"/><path d="M85.5,4.7L85.5,4.3L87.08284271247462,4.3L88.58284271247462,5.8L90.08284271247462,5.8L93.08284271247462,8.8L94.5,8.8L94.5,9.2L92.91715728752538,9.2L89.91715728752538,6.2L88.41715728752538,6.2L86.91715728752538,4.7z" stroke="none"/><path d="M8.8,4.5L9.2,4.5L9.2,5.917157287525381L10.58284271247462,7.3L22.5,7.3L22.5,7.7L10.41715728752538,7.7L8.8,6.082842712474619z" stroke="none"/><path d="M36,11.8L36,12.2L21,12.2L21,11.8z" stroke="none"/><path d="M94.5,4.3L94.5,4.7L89.91715728752538,4.7L88.41715728752538,3.2L79.58284271247462,3.2L78.08284271247462,4.7L76.5,4.7L76.5,4.3L77.91715728752538,4.3L79.41715728752538,2.8L88.58284271247462,2.8L90.08284271247462,4.3z" stroke="none"/><path d="M52.35857864376269,12.14142135623731L52.64142135623731,11.85857864376269L54.082842712474616,13.3L79.41715728752538,13.3L80.91715728752538,11.8L82.5,11.8L82.5,12.2L81.08284271247462,12.2L79.58284271247462,13.7L53.917157287525384,13.7z" stroke="none"/><path d="M66,3.2L66,2.8L74.91715728752538,2.8L76.41715728752538,1.3L91.58284271247462,1.3L93.08284271247462,2.8L96.08284271247462,2.8L97.64142135623732,4.358578643762691L97.35857864376268,4.641421356237309L95.91715728752538,3.2L92.91715728752538,3.2L91.41715728752538,1.7L76.58284271247462,1.7L75.08284271247462,3.2z" stroke="none"/><path d="M16.35857864376269,10.64142135623731L16.64142135623731,10.35857864376269L19.58284271247462,13.3L47.917157287525384,13.3L50.917157287525384,10.3L57.082842712474616,10.3L58.64142135623731,11.85857864376269L58.35857864376269,12.14142135623731L56.917157287525384,10.7L51.082842712474616,10.7L48.082842712474616,13.7L19.41715728752538,13.7z" stroke="none"/></svg>