<svg version="1.1" width="105" height="15" xmlns="http://www.w3.org/2000/svg"><path d="M73.3,10.3L73.3,7.5L73.7,7.5L73.7,10.3L90.08284271247462,10.3L91.64142135623732,11.85857864376269L91.35857864376268,12.14142135623731L89.91715728752538,10.7L64.58284271247462,10.7L63.082842712474616,12.2L60,12.2L60,11.8L62.917157287525384,11.8L64.41715728752538,10.3z" stroke="none"/><path d="M63,7.217157287525381L64.41715728752538,5.8L69,5.8L69,6.2L64.58284271247462,6.2L61.582842712474616,9.2L60,9.2L60,8.8L61.417157287525384,8.8L62.71715728752538,7.5L61.3,6.082842712474619L61.3,4.582842712474619L59.917157287525384,3.2L57.082842712474616,3.2L52.64142135623731,7.641421356237309L52.35857864376269,7.358578643762691L56.917157287525384,2.8L60.082842712474616,2.8L61.7,4.417157287525381L61.7,5.917157287525381z" stroke="none"/><path d="M47.8,7.3L47.8,6.082842712474619L46.417157287525384,4.7L45.082842712474616,4.7L43.582842712474616,6.2L42.082842712474616,6.2L40.582842712474616,7.7L28.5,7.7L28.5,7.3L40.417157287525384,7.3L41.917157287525384,5.8L43.417157287525384,5.8L44.917157287525384,4.3L46.582842712474616,4.3L48.2,5.917157287525381L48.2,7.3L49.582842712474616,7.3L51.082842712474616,8.8L54.082842712474616,8.8L55.7,10.41715728752538L55.7,11.91715728752538L57.082842712474616,13.3L92.91715728752538,13.3L94.3,11.91715728752538L94.3,10.58284271247462L92.91715728752538,9.2L80.91715728752538,9.2L79.41715728752538,7.7L78,7.7L78,7.3L79.58284271247462,7.3L81.08284271247462,8.8L93.08284271247462,8.8L94.7,10.41715728752538L94.7,12.08284271247462L93.08284271247462,13.7L56.917157287525384,13.7L55.3,12.08284271247462L55.3,10.58284271247462L53.917157287525384,9.2L50.917157287525384,9.2L49.417157287525384,7.7L48.2,7.7L48.2,10.58284271247462L46.582842712474616,12.2L33,12.2L33,11.8L46.417157287525384,11.8L47.8,10.41715728752538L47.8,7.7L45,7.7L45,7.3z" stroke="none"/><path d="M86.8,4.3L86.8,2.917157287525381L88.41715728752538,1.3L94.58284271247462,1.3L96.08284271247462,2.8L97.58284271247462,2.8L99.08284271247462,4.3L102,4.3L102,4.7L98.91715728752538,4.7L97.41715728752538,3.2L95.91715728752538,3.2L94.41715728752538,1.7L88.58284271247462,1.7L87.2,3.082842712474619L87.2,4.3L88.41715728752538,4.3L89.91715728752538,2.8L93,2.8L93,3.2L90.08284271247462,3.2L88.58284271247462,4.7L87.08284271247462,4.7L85.58284271247462,6.2L84,6.2L84,5.8L85.41715728752538,5.8L86.51715728752538,4.7L75.08284271247462,4.7L73.58284271247462,6.2L72.08284271247462,6.2L70.58284271247462,7.7L66,7.7L66,7.3L70.41715728752538,7.3L71.91715728752538,5.8L73.41715728752538,5.8L74.91715728752538,4.3z" stroke="none"/><path d="M94.64142135623732,7.358578643762691L94.35857864376268,7.641421356237309L92.85857864376268,6.141421356237309L93.14142135623732,5.858578643762691z" stroke="none"/><path d="M60.14142135623731,5.858578643762691L59.85857864376269,6.141421356237309L58.35857864376269,4.641421356237309L58.64142135623731,4.358578643762691z" stroke="none"/><path d="M95.8,7.5L96.2,7.5L96.2,10.5L95.8,10.5z" stroke="none"/><path d="M45.14142135623731,10.35857864376269L44.85857864376269,10.64142135623731L43.3,9.08284271247462L43.3,7.5L43.7,7.5L43.7,8.91715728752538z" stroke="none"/><path d="M13.7,7.5L13.3,7.5L13.3,3L13.7,3z" stroke="none"/><path d="M60,7.3L60,7.7L58.582842712474616,7.7L57.2,9.08284271247462L57.2,10.41715728752538L58.64142135623731,11.85857864376269L58.35857864376269,12.14142135623731L56.8,10.58284271247462L56.8,8.91715728752538L58.417157287525384,7.3z" stroke="none"/><path d="M21.14142135623731,6.141421356237309L20.85857864376269,5.858578643762691L22.41715728752538,4.3L23.91715728752538,4.3L25.35857864376269,2.8585786437626903L25.64142135623731,3.1414213562373097L24.08284271247462,4.7L22.58284271247462,4.7z" stroke="none"/><path d="M21,10.7L21,10.3L25.41715728752538,10.3L26.85857864376269,8.85857864376269L27.14142135623731,9.14142135623731L25.58284271247462,10.7z" stroke="none"/><path d="M42.14142135623731,10.35857864376269L41.85857864376269,10.64142135623731L40.417157287525384,9.2L36,9.2L36,8.8L40.582842712474616,8.8z" stroke="none"/><path d="M16.5,8.8L16.5,9.2L11.91715728752538,9.2L10.3,7.582842712474619L10.3,5.917157287525381L11.85857864376269,4.358578643762691L12.14142135623731,4.641421356237309L10.7,6.082842712474619L10.7,7.417157287525381L12.08284271247462,8.8z" stroke="none"/><path d="M76.5,12.2L76.5,11.8L84,11.8L84,12.2z" stroke="none"/><path d="M7.3,9L7.7,9L7.7,10.41715728752538L9.08284271247462,11.8L11.91715728752538,11.8L13.41715728752538,10.3L15,10.3L15,10.7L13.58284271247462,10.7L12.08284271247462,12.2L8.91715728752538,12.2L7.3,10.58284271247462z" stroke="none"/><path d="M16.64142135623731,12.14142135623731L16.35857864376269,11.85857864376269L17.8,10.41715728752538L17.8,7.582842712474619L16.3,6.082842712474619L16.3,3.082842712474619L14.91715728752538,1.7L12.08284271247462,1.7L9.2,4.582842712474619L9.2,9L8.8,9L8.8,4.417157287525381L11.91715728752538,1.3L15.08284271247462,1.3L16.7,2.917157287525381L16.7,5.917157287525381L18.2,7.417157287525381L18.2,10.58284271247462z" stroke="none"/><path d="M67.5,4.7L67.5,4.3L71.91715728752538,4.3L73.41715728752538,2.8L76.5,2.8L76.5,3.2L73.58284271247462,3.2L72.08284271247462,4.7z" stroke="none"/><path d="M36,10.3L36,10.7L34.417157287525384,10.7L32.917157287525384,9.2L31.58284271247462,9.2L30.2,10.58284271247462L30.2,11.91715728752538L31.58284271247462,13.3L50.917157287525384,13.3L52.417157287525384,11.8L54,11.8L54,12.2L52.582842712474616,12.2L51.082842712474616,13.7L31.41715728752538,13.7L29.8,12.08284271247462L29.8,10.41715728752538L31.41715728752538,8.8L33.082842712474616,8.8L34.582842712474616,10.3z" stroke="none"/><path d="M49.64142135623731,4.358578643762691L49.35857864376269,4.641421356237309L47.917157287525384,3.2L42.082842712474616,3.2L39.082842712474616,6.2L24.08284271247462,6.2L22.58284271247462,7.7L21.08284271247462,7.7L19.7,9.08284271247462L19.7,12.08284271247462L18.08284271247462,13.7L7.417157287525381,13.7L4.3,10.58284271247462L4.3,8.91715728752538L5.917157287525381,7.3L7.5,7.3L7.5,7.7L6.082842712474619,7.7L4.7,9.08284271247462L4.7,10.41715728752538L7.582842712474619,13.3L17.91715728752538,13.3L19.3,11.91715728752538L19.3,8.91715728752538L20.91715728752538,7.3L22.41715728752538,7.3L23.91715728752538,5.8L38.917157287525384,5.8L41.917157287525384,2.8L48.082842712474616,2.8z" stroke="none"/></svg>