<svg version="1.1" width="105" height="15" xmlns="http://www.w3.org/2000/svg"><path d="M82.58284271247462,8.8L87.08284271247462,8.8L88.64142135623732,10.35857864376269L88.35857864376268,10.64142135623731L86.91715728752538,9.2L82.98284271247462,9.2L84.08284271247462,10.3L85.5,10.3L85.5,10.7L83.91715728752538,10.7L80.91715728752538,7.7L79.5,7.7L79.5,7.3L81.08284271247462,7.3z" stroke="none"/><path d="M30.08284271247462,4.3L33.14142135623731,7.358578643762691L32.85857864376269,7.641421356237309L29.91715728752538,4.7L28.7,4.7L28.7,5.917157287525381L30.14142135623731,7.358578643762691L29.85857864376269,7.641421356237309L28.3,6.082842712474619L28.3,4.7L25.41715728752538,4.7L23.91715728752538,3.2L22.5,3.2L22.5,2.8L24.08284271247462,2.8L25.58284271247462,4.3z" stroke="none"/><path d="M88.3,7.3L88.3,6.082842712474619L86.91715728752538,4.7L79.58284271247462,4.7L78.08284271247462,6.2L76.58284271247462,6.2L75.08284271247462,7.7L72.08284271247462,7.7L69.14142135623732,10.64142135623731L68.85857864376268,10.35857864376269L71.91715728752538,7.3L74.91715728752538,7.3L76.41715728752538,5.8L77.91715728752538,5.8L79.41715728752538,4.3L87.08284271247462,4.3L88.7,5.917157287525381L88.7,7.3L96,7.3L96,7.7L88.98284271247462,7.7L90.08284271247462,8.8L91.5,8.8L91.5,9.2L89.91715728752538,9.2L88.41715728752538,7.7L85.5,7.7L85.5,7.3z" stroke="none"/><path d="M27.08284271247462,7.3L28.58284271247462,8.8L34.417157287525384,8.8L35.8,7.417157287525381L35.8,6L36.2,6L36.2,7.582842712474619L34.582842712474616,9.2L28.41715728752538,9.2L27.2,7.9828427124746195L27.2,10.41715728752538L28.58284271247462,11.8L31.41715728752538,11.8L32.917157287525384,10.3L38.917157287525384,10.3L40.35857864376269,8.85857864376269L40.64142135623731,9.14142135623731L39.082842712474616,10.7L33.082842712474616,10.7L31.58284271247462,12.2L28.41715728752538,12.2L26.8,10.58284271247462L26.8,7.9828427124746195L25.58284271247462,9.2L24.08284271247462,9.2L22.58284271247462,10.7L21,10.7L21,10.3L22.41715728752538,10.3L23.91715728752538,8.8L25.41715728752538,8.8L26.517157287525382,7.7L19.41715728752538,7.7L17.85857864376269,6.141421356237309L18.14142135623731,5.858578643762691L19.58284271247462,7.3z" stroke="none"/><path d="M67.64142135623732,8.85857864376269L67.35857864376268,9.14142135623731L65.85857864376268,7.641421356237309L66.14142135623732,7.358578643762691z" stroke="none"/><path d="M100.35857864376268,5.858578643762691L100.64142135623732,6.141421356237309L99.14142135623732,7.641421356237309L98.85857864376268,7.358578643762691z" stroke="none"/><path d="M46.5,3.2L46.5,2.8L49.5,2.8L49.5,3.2z" stroke="none"/><path d="M16.35857864376269,7.358578643762691L16.64142135623731,7.641421356237309L15.08284271247462,9.2L13.5,9.2L13.5,8.8L14.91715728752538,8.8z" stroke="none"/><path d="M53.85857864376269,4.358578643762691L54.14142135623731,4.641421356237309L52.582842712474616,6.2L51.082842712474616,6.2L49.64142135623731,7.641421356237309L49.35857864376269,7.358578643762691L50.917157287525384,5.8L52.417157287525384,5.8z" stroke="none"/><path d="M94.64142135623732,6.141421356237309L94.35857864376268,5.858578643762691L95.91715728752538,4.3L97.41715728752538,4.3L98.91715728752538,2.8L100.58284271247462,2.8L102.2,4.417157287525381L102.2,7.5L101.8,7.5L101.8,4.582842712474619L100.41715728752538,3.2L99.08284271247462,3.2L97.58284271247462,4.7L96.08284271247462,4.7z" stroke="none"/><path d="M60,7.7L60,7.3L62.917157287525384,7.3L64.41715728752538,5.8L65.91715728752538,5.8L67.35857864376268,4.358578643762691L67.64142135623732,4.641421356237309L66.08284271247462,6.2L64.58284271247462,6.2L63.082842712474616,7.7z" stroke="none"/><path d="M85.5,2.8L85.5,3.2L76.5,3.2L76.5,2.8z" stroke="none"/><path d="M6,3.2L6,2.8L12.08284271247462,2.8L15.08284271247462,5.8L16.5,5.8L16.5,6.2L14.91715728752538,6.2L11.91715728752538,3.2z" stroke="none"/><path d="M60,10.3L60,10.7L51.082842712474616,10.7L49.582842712474616,12.2L46.5,12.2L46.5,11.8L49.417157287525384,11.8L50.917157287525384,10.3z" stroke="none"/><path d="M18,4.3L18,4.7L16.41715728752538,4.7L13.41715728752538,1.7L4.582842712474619,1.7L3.2,3.082842712474619L3.2,4.5L2.8,4.5L2.8,2.917157287525381L4.417157287525381,1.3L13.58284271247462,1.3L16.58284271247462,4.3z" stroke="none"/><path d="M41.85857864376269,10.64142135623731L42.14142135623731,10.35857864376269L45.082842712474616,13.3L59.917157287525384,13.3L61.3,11.91715728752538L61.3,10.5L61.7,10.5L61.7,12.08284271247462L60.082842712474616,13.7L44.917157287525384,13.7z" stroke="none"/><path d="M93,11.8L93,12.2L79.41715728752538,12.2L77.91715728752538,10.7L76.41715728752538,10.7L74.91715728752538,9.2L73.5,9.2L73.5,8.8L75.08284271247462,8.8L76.58284271247462,10.3L78.08284271247462,10.3L79.58284271247462,11.8z" stroke="none"/><path d="M90.14142135623732,4.358578643762691L89.85857864376268,4.641421356237309L86.91715728752538,1.7L70.58284271247462,1.7L69.08284271247462,3.2L66.08284271247462,3.2L64.64142135623732,4.641421356237309L64.35857864376268,4.358578643762691L65.91715728752538,2.8L68.91715728752538,2.8L70.41715728752538,1.3L87.08284271247462,1.3z" stroke="none"/><path d="M48.14142135623731,10.35857864376269L47.85857864376269,10.64142135623731L46.417157287525384,9.2L43.417157287525384,9.2L41.917157287525384,7.7L40.417157287525384,7.7L37.417157287525384,4.7L32.917157287525384,4.7L31.41715728752538,3.2L26.91715728752538,3.2L25.41715728752538,1.7L21.08284271247462,1.7L19.7,3.082842712474619L19.7,4.417157287525381L21.14142135623731,5.858578643762691L20.85857864376269,6.141421356237309L19.3,4.582842712474619L19.3,2.917157287525381L20.91715728752538,1.3L25.58284271247462,1.3L27.08284271247462,2.8L31.58284271247462,2.8L33.082842712474616,4.3L37.582842712474616,4.3L40.582842712474616,7.3L42.082842712474616,7.3L43.582842712474616,8.8L46.582842712474616,8.8z" stroke="none"/><path d="M102,11.8L102,12.2L97.58284271247462,12.2L96.08284271247462,13.7L67.41715728752538,13.7L62.917157287525384,9.2L56.917157287525384,9.2L55.417157287525384,7.7L54,7.7L54,7.3L55.582842712474616,7.3L57.082842712474616,8.8L63.082842712474616,8.8L67.58284271247462,13.3L95.91715728752538,13.3L97.41715728752538,11.8z" stroke="none"/></svg>