<svg version="1.1" width="105" height="15" xmlns="http://www.w3.org/2000/svg"><path d="M66.08284271247462,8.8L67.58284271247462,10.3L69.08284271247462,10.3L70.58284271247462,11.8L83.91715728752538,11.8L85.41715728752538,10.3L91.5,10.3L91.5,10.7L85.58284271247462,10.7L84.08284271247462,12.2L70.41715728752538,12.2L68.91715728752538,10.7L67.41715728752538,10.7L65.91715728752538,9.2L64.7,9.2L64.7,12L64.3,12L64.3,9.2L56.917157287525384,9.2L55.417157287525384,7.7L43.5,7.7L43.5,7.3L55.582842712474616,7.3L57.082842712474616,8.8z" stroke="none"/><path d="M75.08284271247462,4.3L76.58284271247462,5.8L79.41715728752538,5.8L80.85857864376268,4.358578643762691L81.14142135623732,4.641421356237309L79.58284271247462,6.2L76.41715728752538,6.2L74.91715728752538,4.7L72.2,4.7L72.2,6.082842712474619L70.58284271247462,7.7L67.5,7.7L67.5,7.3L70.41715728752538,7.3L71.8,5.917157287525381L71.8,4.7L67.5,4.7L67.5,4.3z" stroke="none"/><path d="M17.8,5.8L17.8,3L18.2,3L18.2,5.8L32.917157287525384,5.8L34.35857864376269,4.358578643762691L34.64142135623731,4.641421356237309L33.082842712474616,6.2L18.2,6.2L18.2,7.582842712474619L16.58284271247462,9.2L13.41715728752538,9.2L11.91715728752538,7.7L10.5,7.7L10.5,7.3L12.08284271247462,7.3L13.58284271247462,8.8L16.41715728752538,8.8L17.8,7.417157287525381L17.8,6.2L10.5,6.2L10.5,5.8z" stroke="none"/><path d="M38.8,8.8L38.8,7.417157287525381L40.417157287525384,5.8L58.582842712474616,5.8L60.082842712474616,7.3L61.5,7.3L61.5,7.7L59.917157287525384,7.7L58.417157287525384,6.2L40.582842712474616,6.2L39.2,7.582842712474619L39.2,8.8L54,8.8L54,9.2L39.2,9.2L39.2,10.58284271247462L37.582842712474616,12.2L30.08284271247462,12.2L28.58284271247462,13.7L20.91715728752538,13.7L17.91715728752538,10.7L16.5,10.7L16.5,10.3L18.08284271247462,10.3L21.08284271247462,13.3L28.41715728752538,13.3L29.91715728752538,11.8L37.417157287525384,11.8L38.8,10.41715728752538L38.8,9.2L33.082842712474616,9.2L31.58284271247462,10.7L28.58284271247462,10.7L27.14142135623731,12.14142135623731L26.85857864376269,11.85857864376269L28.41715728752538,10.3L31.41715728752538,10.3L32.917157287525384,8.8z" stroke="none"/><path d="M93,11.8L93,12.2L91.5,12.2L91.5,11.8z" stroke="none"/><path d="M3.1414213562373097,4.641421356237309L2.8585786437626903,4.358578643762691L4.358578643762691,2.8585786437626903L4.641421356237309,3.1414213562373097z" stroke="none"/><path d="M78.14142135623732,4.641421356237309L77.85857864376268,4.358578643762691L79.41715728752538,2.8L82.58284271247462,2.8L84.2,4.417157287525381L84.2,6.082842712474619L82.58284271247462,7.7L78,7.7L78,7.3L82.41715728752538,7.3L83.8,5.917157287525381L83.8,4.582842712474619L82.41715728752538,3.2L79.58284271247462,3.2z" stroke="none"/><path d="M72.14142135623732,10.35857864376269L71.85857864376268,10.64142135623731L70.41715728752538,9.2L69,9.2L69,8.8L70.58284271247462,8.8z" stroke="none"/><path d="M8.85857864376269,2.8585786437626903L9.14142135623731,3.1414213562373097L6.141421356237309,6.141421356237309L5.858578643762691,5.858578643762691z" stroke="none"/><path d="M88.35857864376268,4.358578643762691L88.64142135623732,4.641421356237309L87.2,6.082842712474619L87.2,7.417157287525381L88.58284271247462,8.8L90,8.8L90,9.2L88.41715728752538,9.2L86.8,7.582842712474619L86.8,5.917157287525381z" stroke="none"/><path d="M94.5,7.7L94.5,7.3L100.5,7.3L100.5,7.7z" stroke="none"/><path d="M13.5,11.8L13.5,12.2L11.91715728752538,12.2L8.8,9.08284271247462L8.8,7.5L9.2,7.5L9.2,8.91715728752538L12.08284271247462,11.8z" stroke="none"/><path d="M96.14142135623732,12.14142135623731L95.85857864376268,11.85857864376269L97.41715728752538,10.3L100.41715728752538,10.3L101.8,8.91715728752538L101.8,7.5L102.2,7.5L102.2,9.08284271247462L100.58284271247462,10.7L97.58284271247462,10.7z" stroke="none"/><path d="M66.14142135623732,5.858578643762691L65.85857864376268,6.141421356237309L62.917157287525384,3.2L58.5,3.2L58.5,2.8L63.082842712474616,2.8z" stroke="none"/><path d="M99,8.8L99,9.2L92.91715728752538,9.2L91.3,7.582842712474619L91.3,4.5L91.7,4.5L91.7,7.417157287525381L93.08284271247462,8.8z" stroke="none"/><path d="M51,4.7L51,4.3L61.5,4.3L61.5,4.7z" stroke="none"/><path d="M100.5,2.8L100.5,3.2L94.41715728752538,3.2L92.91715728752538,1.7L91.58284271247462,1.7L90.2,3.082842712474619L90.2,7.5L89.8,7.5L89.8,2.917157287525381L91.41715728752538,1.3L93.08284271247462,1.3L94.58284271247462,2.8z" stroke="none"/><path d="M12.14142135623731,4.641421356237309L11.85857864376269,4.358578643762691L13.41715728752538,2.8L14.91715728752538,2.8L16.41715728752538,1.3L34.582842712474616,1.3L36.2,2.917157287525381L36.2,6.082842712474619L34.582842712474616,7.7L30.08284271247462,7.7L28.58284271247462,9.2L27,9.2L27,8.8L28.41715728752538,8.8L29.91715728752538,7.3L34.417157287525384,7.3L35.8,5.917157287525381L35.8,3.082842712474619L34.417157287525384,1.7L16.58284271247462,1.7L15.08284271247462,3.2L13.58284271247462,3.2z" stroke="none"/><path d="M84.14142135623732,9.14142135623731L83.85857864376268,8.85857864376269L85.3,7.417157287525381L85.3,3.082842712474619L83.91715728752538,1.7L45.082842712474616,1.7L43.582842712474616,3.2L40.582842712474616,3.2L39.14142135623731,4.641421356237309L38.85857864376269,4.358578643762691L40.417157287525384,2.8L43.417157287525384,2.8L44.917157287525384,1.3L84.08284271247462,1.3L85.7,2.917157287525381L85.7,7.582842712474619z" stroke="none"/><path d="M43.5,10.7L43.5,10.3L51.082842712474616,10.3L54.082842712474616,13.3L88.41715728752538,13.3L89.85857864376268,11.85857864376269L90.14142135623732,12.14142135623731L88.58284271247462,13.7L53.917157287525384,13.7L50.917157287525384,10.7z" stroke="none"/></svg>