<svg version="1.1" width="105" height="15" xmlns="http://www.w3.org/2000/svg"><path d="M8.8,8.8L8.8,4.582842712474619L7.417157287525381,3.2L6.082842712474619,3.2L4.582842712474619,4.7L3,4.7L3,4.3L4.417157287525381,4.3L5.917157287525381,2.8L7.582842712474619,2.8L9.2,4.417157287525381L9.2,8.8L15,8.8L15,9.2L6,9.2L6,8.8z" stroke="none"/><path d="M20.91715728752538,4.3L23.91715728752538,1.3L27.08284271247462,1.3L28.58284271247462,2.8L39.082842712474616,2.8L40.582842712474616,4.3L42,4.3L42,4.7L40.417157287525384,4.7L38.917157287525384,3.2L28.41715728752538,3.2L26.91715728752538,1.7L24.08284271247462,1.7L21.2,4.582842712474619L21.2,6.082842712474619L16.58284271247462,10.7L7.582842712474619,10.7L6.082842712474619,12.2L4.417157287525381,12.2L2.8,10.58284271247462L2.8,8.91715728752538L4.417157287525381,7.3L6,7.3L6,7.7L4.582842712474619,7.7L3.2,9.08284271247462L3.2,10.41715728752538L4.582842712474619,11.8L5.917157287525381,11.8L7.417157287525381,10.3L16.41715728752538,10.3L20.8,5.917157287525381L20.8,4.7L16.41715728752538,4.7L14.85857864376269,3.1414213562373097L15.14142135623731,2.8585786437626903L16.58284271247462,4.3z" stroke="none"/><path d="M76.3,8.8L76.3,7.417157287525381L77.91715728752538,5.8L82.58284271247462,5.8L84.08284271247462,7.3L87,7.3L87,7.7L83.91715728752538,7.7L82.41715728752538,6.2L78.08284271247462,6.2L76.7,7.582842712474619L76.7,8.8L82.58284271247462,8.8L84.08284271247462,10.3L85.5,10.3L85.5,10.7L83.91715728752538,10.7L82.41715728752538,9.2L76.98284271247462,9.2L78.08284271247462,10.3L79.5,10.3L79.5,10.7L77.91715728752538,10.7L76.41715728752538,9.2L64.58284271247462,9.2L63.082842712474616,10.7L60.082842712474616,10.7L58.582842712474616,12.2L57,12.2L57,11.8L58.417157287525384,11.8L59.917157287525384,10.3L62.917157287525384,10.3L64.41715728752538,8.8z" stroke="none"/><path d="M62.8,4.3L62.8,2.917157287525381L64.41715728752538,1.3L66.08284271247462,1.3L67.58284271247462,2.8L69.08284271247462,2.8L70.58284271247462,4.3L72.08284271247462,4.3L73.64142135623732,5.858578643762691L73.35857864376268,6.141421356237309L71.91715728752538,4.7L70.41715728752538,4.7L68.91715728752538,3.2L67.41715728752538,3.2L65.91715728752538,1.7L64.58284271247462,1.7L63.2,3.082842712474619L63.2,4.3L67.58284271247462,4.3L69.08284271247462,5.8L70.58284271247462,5.8L72.14142135623732,7.358578643762691L71.85857864376268,7.641421356237309L70.41715728752538,6.2L68.91715728752538,6.2L67.41715728752538,4.7L63.2,4.7L63.2,5.917157287525381L64.64142135623732,7.358578643762691L64.35857864376268,7.641421356237309L62.8,6.082842712474619L62.8,4.7L56.917157287525384,4.7L55.417157287525384,3.2L52.582842712474616,3.2L51.082842712474616,4.7L48.082842712474616,4.7L46.64142135623731,6.141421356237309L46.35857864376269,5.858578643762691L47.917157287525384,4.3L50.917157287525384,4.3L52.417157287525384,2.8L55.582842712474616,2.8L57.082842712474616,4.3z" stroke="none"/><path d="M53.85857864376269,4.358578643762691L54.14142135623731,4.641421356237309L52.64142135623731,6.141421356237309L52.35857864376269,5.858578643762691z" stroke="none"/><path d="M25.35857864376269,3.1414213562373097L25.64142135623731,2.8585786437626903L27.08284271247462,4.3L28.5,4.3L28.5,4.7L26.91715728752538,4.7z" stroke="none"/><path d="M33.2,12L32.8,12L32.8,10.58284271247462L31.35857864376269,9.14142135623731L31.64142135623731,8.85857864376269L33.2,10.41715728752538z" stroke="none"/><path d="M69,10.7L69,10.3L72.08284271247462,10.3L73.64142135623732,11.85857864376269L73.35857864376268,12.14142135623731L71.91715728752538,10.7z" stroke="none"/><path d="M90,4.7L90,4.3L91.41715728752538,4.3L92.91715728752538,2.8L94.5,2.8L94.5,3.2L93.08284271247462,3.2L91.58284271247462,4.7z" stroke="none"/><path d="M13.7,7.5L13.3,7.5L13.3,6.082842712474619L11.8,4.582842712474619L11.8,3L12.2,3L12.2,4.417157287525381L13.7,5.917157287525381z" stroke="none"/><path d="M100.5,8.8L100.5,9.2L95.91715728752538,9.2L94.35857864376268,7.641421356237309L94.64142135623732,7.358578643762691L96.08284271247462,8.8z" stroke="none"/><path d="M28.3,7.5L28.7,7.5L28.7,10.58284271247462L27.08284271247462,12.2L22.5,12.2L22.5,11.8L26.91715728752538,11.8L28.3,10.41715728752538z" stroke="none"/><path d="M88.3,3L88.7,3L88.7,5.917157287525381L90.08284271247462,7.3L91.41715728752538,7.3L92.91715728752538,5.8L96,5.8L96,6.2L93.08284271247462,6.2L91.58284271247462,7.7L89.91715728752538,7.7L88.3,6.082842712474619z" stroke="none"/><path d="M36,4.7L36,4.3L37.582842712474616,4.3L39.082842712474616,5.8L43.417157287525384,5.8L44.85857864376269,4.358578643762691L45.14142135623731,4.641421356237309L43.582842712474616,6.2L38.917157287525384,6.2L37.417157287525384,4.7z" stroke="none"/><path d="M33,5.8L33,6.2L27.08284271247462,6.2L24.14142135623731,9.14142135623731L23.85857864376269,8.85857864376269L26.91715728752538,5.8z" stroke="none"/><path d="M52.5,10.3L52.5,10.7L40.417157287525384,10.7L38.85857864376269,9.14142135623731L39.14142135623731,8.85857864376269L40.582842712474616,10.3z" stroke="none"/><path d="M102,11.8L102,12.2L95.91715728752538,12.2L94.41715728752538,10.7L88.5,10.7L88.5,10.3L94.58284271247462,10.3L96.08284271247462,11.8z" stroke="none"/><path d="M60,8.8L60,9.2L47.917157287525384,9.2L46.417157287525384,7.7L45,7.7L45,7.3L46.582842712474616,7.3L48.082842712474616,8.8z" stroke="none"/><path d="M25.5,10.3L25.5,10.7L21.08284271247462,10.7L19.58284271247462,12.2L18.08284271247462,12.2L16.58284271247462,13.7L2.917157287525381,13.7L1.3,12.08284271247462L1.3,7.417157287525381L2.917157287525381,5.8L7.5,5.8L7.5,6.2L3.082842712474619,6.2L1.7,7.582842712474619L1.7,11.91715728752538L3.082842712474619,13.3L16.41715728752538,13.3L17.91715728752538,11.8L19.41715728752538,11.8L20.91715728752538,10.3z" stroke="none"/><path d="M66,11.8L66,12.2L61.582842712474616,12.2L60.082842712474616,13.7L40.417157287525384,13.7L37.417157287525384,10.7L36,10.7L36,10.3L37.582842712474616,10.3L40.582842712474616,13.3L59.917157287525384,13.3L61.417157287525384,11.8z" stroke="none"/></svg>