<svg version="1.1" width="105" height="15" xmlns="http://www.w3.org/2000/svg"><path d="M76.5,2.8L76.5,3.2L63.2,3.2L63.2,4.582842712474619L61.582842712474616,6.2L46.417157287525384,6.2L44.85857864376269,4.641421356237309L45.14142135623731,4.358578643762691L46.582842712474616,5.8L61.417157287525384,5.8L62.8,4.417157287525381L62.8,3.2L60,3.2L60,2.8z" stroke="none"/><path d="M15,13.217157287525382L16.41715728752538,11.8L18,11.8L18,12.2L16.58284271247462,12.2L15.08284271247462,13.7L10.41715728752538,13.7L8.85857864376269,12.14142135623731L9.14142135623731,11.85857864376269L10.58284271247462,13.3L14.51715728752538,13.3L13.41715728752538,12.2L12,12.2L12,11.8L13.58284271247462,11.8z" stroke="none"/><path d="M34.3,7.0171572875253805L34.3,5.917157287525381L35.917157287525384,4.3L37.582842712474616,4.3L39.082842712474616,5.8L42,5.8L42,6.2L38.917157287525384,6.2L37.417157287525384,4.7L36.082842712474616,4.7L34.7,6.082842712474619L34.7,7.3L36.082842712474616,7.3L37.64142135623731,8.85857864376269L37.35857864376269,9.14142135623731L35.917157287525384,7.7L34.7,7.7L34.7,10.5L34.3,10.5L34.3,7.582842712474619L32.917157287525384,6.2L31.58284271247462,6.2L30.2,7.582842712474619L30.2,8.91715728752538L31.58284271247462,10.3L33,10.3L33,10.7L31.41715728752538,10.7L29.8,9.08284271247462L29.8,7.417157287525381L31.41715728752538,5.8L33.082842712474616,5.8z" stroke="none"/><path d="M76.3,7.3L76.3,5.917157287525381L77.91715728752538,4.3L85.58284271247462,4.3L87.08284271247462,5.8L90.08284271247462,5.8L91.64142135623732,7.358578643762691L91.35857864376268,7.641421356237309L89.91715728752538,6.2L86.91715728752538,6.2L85.41715728752538,4.7L78.08284271247462,4.7L76.7,6.082842712474619L76.7,7.3L88.5,7.3L88.5,7.7L76.7,7.7L76.7,9.08284271247462L75.14142135623732,10.64142135623731L74.85857864376268,10.35857864376269L76.3,8.91715728752538L76.3,7.7L66.08284271247462,7.7L64.58284271247462,9.2L51,9.2L51,8.8L64.41715728752538,8.8L65.91715728752538,7.3z" stroke="none"/><path d="M100.5,3.2L100.5,2.8L102,2.8L102,3.2z" stroke="none"/><path d="M83.8,10.5L84.2,10.5L84.2,12L83.8,12z" stroke="none"/><path d="M100.5,9.2L100.5,8.8L102,8.8L102,9.2z" stroke="none"/><path d="M55.35857864376269,2.8585786437626903L55.64142135623731,3.1414213562373097L54.082842712474616,4.7L52.5,4.7L52.5,4.3L53.917157287525384,4.3z" stroke="none"/><path d="M20.85857864376269,3.1414213562373097L21.14142135623731,2.8585786437626903L24.14142135623731,5.858578643762691L23.85857864376269,6.141421356237309z" stroke="none"/><path d="M6.141421356237309,8.85857864376269L5.858578643762691,9.14142135623731L4.3,7.582842712474619L4.3,6.082842712474619L2.8585786437626903,4.641421356237309L3.1414213562373097,4.358578643762691L4.7,5.917157287525381L4.7,7.417157287525381z" stroke="none"/><path d="M4.5,12.2L4.5,11.8L5.917157287525381,11.8L7.417157287525381,10.3L13.5,10.3L13.5,10.7L7.582842712474619,10.7L6.082842712474619,12.2z" stroke="none"/><path d="M30,3.2L30,2.8L39.082842712474616,2.8L40.64142135623731,4.358578643762691L40.35857864376269,4.641421356237309L38.917157287525384,3.2z" stroke="none"/><path d="M93.14142135623732,2.8585786437626903L92.85857864376268,3.1414213562373097L91.41715728752538,1.7L82.58284271247462,1.7L81.08284271247462,3.2L79.5,3.2L79.5,2.8L80.91715728752538,2.8L82.41715728752538,1.3L91.58284271247462,1.3z" stroke="none"/><path d="M102,4.3L102,4.7L89.91715728752538,4.7L88.41715728752538,3.2L87,3.2L87,2.8L88.58284271247462,2.8L90.08284271247462,4.3z" stroke="none"/><path d="M18.14142135623731,7.358578643762691L17.85857864376269,7.641421356237309L14.91715728752538,4.7L10.41715728752538,4.7L8.91715728752538,3.2L5.917157287525381,3.2L4.417157287525381,1.7L3.082842712474619,1.7L1.7,3.082842712474619L1.7,8.91715728752538L3.2,10.41715728752538L3.2,12L2.8,12L2.8,10.58284271247462L1.3,9.08284271247462L1.3,2.917157287525381L2.917157287525381,1.3L4.582842712474619,1.3L6.082842712474619,2.8L9.08284271247462,2.8L10.58284271247462,4.3L15.08284271247462,4.3z" stroke="none"/><path d="M40.5,12.2L40.5,11.8L60,11.8L60,12.2z" stroke="none"/><path d="M78,12.2L78,11.8L79.41715728752538,11.8L82.41715728752538,8.8L85.58284271247462,8.8L87.08284271247462,10.3L95.91715728752538,10.3L97.35857864376268,8.85857864376269L97.64142135623732,9.14142135623731L96.08284271247462,10.7L86.91715728752538,10.7L85.41715728752538,9.2L82.58284271247462,9.2L79.58284271247462,12.2z" stroke="none"/><path d="M46.5,10.7L46.5,10.3L72.08284271247462,10.3L73.58284271247462,11.8L75.08284271247462,11.8L76.58284271247462,13.3L94.41715728752538,13.3L95.91715728752538,11.8L97.41715728752538,11.8L98.8,10.41715728752538L98.8,7.582842712474619L97.41715728752538,6.2L96.08284271247462,6.2L93.08284271247462,9.2L88.5,9.2L88.5,8.8L92.91715728752538,8.8L95.91715728752538,5.8L97.58284271247462,5.8L99.2,7.417157287525381L99.2,10.58284271247462L97.58284271247462,12.2L96.08284271247462,12.2L94.58284271247462,13.7L76.41715728752538,13.7L74.91715728752538,12.2L73.41715728752538,12.2L71.91715728752538,10.7z" stroke="none"/><path d="M48,8.8L48,9.2L40.582842712474616,9.2L39.082842712474616,10.7L37.582842712474616,10.7L36.082842712474616,12.2L29.91715728752538,12.2L28.41715728752538,10.7L26.91715728752538,10.7L25.41715728752538,9.2L10.41715728752538,9.2L8.91715728752538,7.7L7.417157287525381,7.7L5.858578643762691,6.141421356237309L6.141421356237309,5.858578643762691L7.582842712474619,7.3L9.08284271247462,7.3L10.58284271247462,8.8L25.58284271247462,8.8L27.08284271247462,10.3L28.58284271247462,10.3L30.08284271247462,11.8L35.917157287525384,11.8L37.417157287525384,10.3L38.917157287525384,10.3L40.417157287525384,8.8z" stroke="none"/><path d="M73.5,5.8L73.5,6.2L64.58284271247462,6.2L63.082842712474616,7.7L44.917157287525384,7.7L43.3,6.082842712474619L43.3,4.582842712474619L40.417157287525384,1.7L28.58284271247462,1.7L27.2,3.082842712474619L27.2,5.917157287525381L28.64142135623731,7.358578643762691L28.35857864376269,7.641421356237309L26.8,6.082842712474619L26.8,2.917157287525381L28.41715728752538,1.3L40.582842712474616,1.3L43.7,4.417157287525381L43.7,5.917157287525381L45.082842712474616,7.3L62.917157287525384,7.3L64.41715728752538,5.8z" stroke="none"/></svg>