<svg version="1.1" width="105" height="15" xmlns="http://www.w3.org/2000/svg"><path d="M34.417157287525384,2.8L37.5,2.8L37.5,3.2L34.7,3.2L34.7,4.417157287525381L36.082842712474616,5.8L37.417157287525384,5.8L38.8,4.417157287525381L38.8,3L39.2,3L39.2,4.582842712474619L37.582842712474616,6.2L35.917157287525384,6.2L34.3,4.582842712474619L34.3,3.482842712474619L33.082842712474616,4.7L31.5,4.7L31.5,4.3L32.917157287525384,4.3z" stroke="none"/><path d="M41.8,4.582842712474619L41.8,3.082842712474619L40.417157287525384,1.7L24.08284271247462,1.7L22.58284271247462,3.2L19.58284271247462,3.2L18.14142135623731,4.641421356237309L17.85857864376269,4.358578643762691L19.41715728752538,2.8L22.41715728752538,2.8L23.91715728752538,1.3L40.582842712474616,1.3L42.2,2.917157287525381L42.2,4.3L44.917157287525384,4.3L46.417157287525384,2.8L52.417157287525384,2.8L53.917157287525384,1.3L58.582842712474616,1.3L60.082842712474616,2.8L63,2.8L63,3.2L59.917157287525384,3.2L58.417157287525384,1.7L54.082842712474616,1.7L52.582842712474616,3.2L46.582842712474616,3.2L45.082842712474616,4.7L42.48284271247462,4.7L43.582842712474616,5.8L45.082842712474616,5.8L46.64142135623731,7.358578643762691L46.35857864376269,7.641421356237309L44.917157287525384,6.2L43.417157287525384,6.2z" stroke="none"/><path d="M39.082842712474616,8.8L46.582842712474616,8.8L48.082842712474616,10.3L49.582842712474616,10.3L51.082842712474616,11.8L55.5,11.8L55.5,12.2L50.917157287525384,12.2L49.417157287525384,10.7L47.917157287525384,10.7L46.417157287525384,9.2L39.2,9.2L39.2,10.58284271247462L37.582842712474616,12.2L29.91715728752538,12.2L28.3,10.58284271247462L28.3,8.91715728752538L29.85857864376269,7.358578643762691L30.14142135623731,7.641421356237309L28.7,9.08284271247462L28.7,10.41715728752538L30.08284271247462,11.8L37.417157287525384,11.8L38.8,10.41715728752538L38.8,9.2L34.582842712474616,9.2L33.082842712474616,10.7L31.5,10.7L31.5,10.3L32.917157287525384,10.3L34.417157287525384,8.8L38.51715728752538,8.8L37.417157287525384,7.7L36,7.7L36,7.3L37.582842712474616,7.3z" stroke="none"/><path d="M64.3,5.8L64.3,4.417157287525381L65.91715728752538,2.8L73.58284271247462,2.8L75.08284271247462,4.3L85.58284271247462,4.3L87.08284271247462,5.8L94.58284271247462,5.8L96.14142135623732,7.358578643762691L95.85857864376268,7.641421356237309L94.41715728752538,6.2L86.91715728752538,6.2L85.41715728752538,4.7L74.91715728752538,4.7L73.41715728752538,3.2L66.08284271247462,3.2L64.7,4.582842712474619L64.7,5.8L66.08284271247462,5.8L67.7,7.417157287525381L67.7,9.08284271247462L66.08284271247462,10.7L55.417157287525384,10.7L50.917157287525384,6.2L49.417157287525384,6.2L47.85857864376269,4.641421356237309L48.14142135623731,4.358578643762691L49.582842712474616,5.8L51.082842712474616,5.8L55.582842712474616,10.3L65.91715728752538,10.3L67.3,8.91715728752538L67.3,7.582842712474619L65.91715728752538,6.2L64.7,6.2L64.7,7.582842712474619L63.082842712474616,9.2L57,9.2L57,8.8L62.917157287525384,8.8L64.3,7.417157287525381L64.3,6.2L60.082842712474616,6.2L58.582842712474616,7.7L57,7.7L57,7.3L58.417157287525384,7.3L59.917157287525384,5.8z" stroke="none"/><path d="M19.5,8.8L19.5,9.2L18,9.2L18,8.8z" stroke="none"/><path d="M85.5,3.2L85.5,2.8L87,2.8L87,3.2z" stroke="none"/><path d="M8.85857864376269,6.141421356237309L9.14142135623731,5.858578643762691L10.64142135623731,7.358578643762691L10.35857864376269,7.641421356237309z" stroke="none"/><path d="M55.3,3L55.7,3L55.7,4.417157287525381L57.14142135623731,5.858578643762691L56.85857864376269,6.141421356237309L55.3,4.582842712474619z" stroke="none"/><path d="M79.35857864376268,7.358578643762691L79.64142135623732,7.641421356237309L78.2,9.08284271247462L78.2,10.58284271247462L76.64142135623732,12.14142135623731L76.35857864376268,11.85857864376269L77.8,10.41715728752538L77.8,8.91715728752538z" stroke="none"/><path d="M88.5,3.2L88.5,2.8L94.58284271247462,2.8L97.58284271247462,5.8L98.91715728752538,5.8L100.3,4.417157287525381L100.3,3.082842712474619L98.91715728752538,1.7L84.08284271247462,1.7L82.64142135623732,3.1414213562373097L82.35857864376268,2.8585786437626903L83.91715728752538,1.3L99.08284271247462,1.3L100.7,2.917157287525381L100.7,4.582842712474619L99.08284271247462,6.2L97.41715728752538,6.2L94.41715728752538,3.2z" stroke="none"/><path d="M70.5,11.8L70.5,12.2L64.5,12.2L64.5,11.8z" stroke="none"/><path d="M9,11.8L9,12.2L3,12.2L3,11.8z" stroke="none"/><path d="M97.5,11.8L97.5,12.2L94.41715728752538,12.2L92.91715728752538,10.7L91.41715728752538,10.7L89.85857864376268,9.14142135623731L90.14142135623732,8.85857864376269L91.58284271247462,10.3L93.08284271247462,10.3L94.58284271247462,11.8z" stroke="none"/><path d="M77.85857864376268,5.858578643762691L78.14142135623732,6.141421356237309L76.58284271247462,7.7L75.08284271247462,7.7L73.58284271247462,9.2L70.58284271247462,9.2L69.14142135623732,10.64142135623731L68.85857864376268,10.35857864376269L70.41715728752538,8.8L73.41715728752538,8.8L74.91715728752538,7.3L76.41715728752538,7.3z" stroke="none"/><path d="M2.8585786437626903,6.141421356237309L3.1414213562373097,5.858578643762691L4.582842712474619,7.3L7.582842712474619,7.3L10.58284271247462,10.3L15,10.3L15,10.7L10.41715728752538,10.7L7.417157287525381,7.7L4.417157287525381,7.7z" stroke="none"/><path d="M19.5,7.7L19.5,7.3L22.41715728752538,7.3L23.91715728752538,5.8L31.58284271247462,5.8L33.082842712474616,7.3L34.5,7.3L34.5,7.7L32.917157287525384,7.7L31.41715728752538,6.2L24.08284271247462,6.2L22.58284271247462,7.7z" stroke="none"/><path d="M96.14142135623732,10.35857864376269L95.85857864376268,10.64142135623731L94.41715728752538,9.2L92.91715728752538,9.2L91.41715728752538,7.7L88.58284271247462,7.7L87.08284271247462,9.2L81,9.2L81,8.8L86.91715728752538,8.8L88.41715728752538,7.3L91.58284271247462,7.3L93.08284271247462,8.8L94.58284271247462,8.8z" stroke="none"/><path d="M7.5,4.7L7.5,4.3L10.58284271247462,4.3L12.08284271247462,5.8L13.58284271247462,5.8L16.7,8.91715728752538L16.7,10.41715728752538L18.08284271247462,11.8L19.41715728752538,11.8L22.35857864376269,8.85857864376269L22.64142135623731,9.14142135623731L19.58284271247462,12.2L17.91715728752538,12.2L16.3,10.58284271247462L16.3,9.08284271247462L13.41715728752538,6.2L11.91715728752538,6.2L10.41715728752538,4.7z" stroke="none"/><path d="M3,3.2L3,2.8L13.58284271247462,2.8L16.58284271247462,5.8L20.91715728752538,5.8L22.35857864376269,4.358578643762691L22.64142135623731,4.641421356237309L21.08284271247462,6.2L16.41715728752538,6.2L13.41715728752538,3.2z" stroke="none"/><path d="M45,12.2L45,11.8L48.082842712474616,11.8L49.582842712474616,13.3L89.91715728752538,13.3L91.35857864376268,11.85857864376269L91.64142135623732,12.14142135623731L90.08284271247462,13.7L49.417157287525384,13.7L47.917157287525384,12.2z" stroke="none"/></svg>