<svg version="1.1" width="105" height="15" xmlns="http://www.w3.org/2000/svg"><path d="M25.41715728752538,11.8L26.91715728752538,10.3L28.41715728752538,10.3L29.85857864376269,8.85857864376269L30.14142135623731,9.14142135623731L28.58284271247462,10.7L27.08284271247462,10.7L25.982842712474618,11.8L37.5,11.8L37.5,12.2L16.41715728752538,12.2L14.91715728752538,10.7L12,10.7L12,10.3L15.08284271247462,10.3L16.58284271247462,11.8z" stroke="none"/><path d="M29.91715728752538,5.8L34.582842712474616,5.8L36.082842712474616,7.3L39.082842712474616,7.3L40.582842712474616,8.8L51,8.8L51,9.2L40.417157287525384,9.2L38.917157287525384,7.7L35.917157287525384,7.7L34.417157287525384,6.2L30.482842712474618,6.2L31.58284271247462,7.3L33.082842712474616,7.3L34.64142135623731,8.85857864376269L34.35857864376269,9.14142135623731L32.917157287525384,7.7L31.41715728752538,7.7L30,6.282842712474619L28.58284271247462,7.7L19.58284271247462,7.7L18.08284271247462,9.2L7.582842712474619,9.2L4.641421356237309,12.14142135623731L4.358578643762691,11.85857864376269L7.417157287525381,8.8L17.91715728752538,8.8L19.41715728752538,7.3L28.41715728752538,7.3z" stroke="none"/><path d="M86.8,4.3L86.8,2.917157287525381L88.41715728752538,1.3L93.08284271247462,1.3L94.58284271247462,2.8L100.5,2.8L100.5,3.2L94.41715728752538,3.2L92.91715728752538,1.7L88.58284271247462,1.7L87.2,3.082842712474619L87.2,4.3L88.58284271247462,4.3L90.08284271247462,5.8L93.08284271247462,5.8L94.58284271247462,7.3L96,7.3L96,7.7L94.41715728752538,7.7L92.91715728752538,6.2L89.91715728752538,6.2L88.41715728752538,4.7L87.2,4.7L87.2,6.082842712474619L85.58284271247462,7.7L73.5,7.7L73.5,7.3L85.41715728752538,7.3L86.8,5.917157287525381L86.8,4.7L82.41715728752538,4.7L80.85857864376268,3.1414213562373097L81.14142135623732,2.8585786437626903L82.58284271247462,4.3z" stroke="none"/><path d="M52.3,4.3L52.3,2.917157287525381L53.917157287525384,1.3L63.082842712474616,1.3L67.58284271247462,5.8L69,5.8L69,6.2L67.41715728752538,6.2L62.917157287525384,1.7L54.082842712474616,1.7L52.7,3.082842712474619L52.7,4.3L55.417157287525384,4.3L56.917157287525384,2.8L61.5,2.8L61.5,3.2L57.082842712474616,3.2L55.582842712474616,4.7L52.7,4.7L52.7,6.082842712474619L51.082842712474616,7.7L41.917157287525384,7.7L40.417157287525384,6.2L37.5,6.2L37.5,5.8L40.582842712474616,5.8L42.082842712474616,7.3L50.917157287525384,7.3L52.3,5.917157287525381L52.3,4.7L48.082842712474616,4.7L46.582842712474616,6.2L43.5,6.2L43.5,5.8L46.417157287525384,5.8L47.917157287525384,4.3z" stroke="none"/><path d="M16.5,2.8L16.5,3.2L15,3.2L15,2.8z" stroke="none"/><path d="M10.64142135623731,7.641421356237309L10.35857864376269,7.358578643762691L11.85857864376269,5.858578643762691L12.14142135623731,6.141421356237309z" stroke="none"/><path d="M3,3.2L3,2.8L6,2.8L6,3.2z" stroke="none"/><path d="M27.2,6L26.8,6L26.8,3L27.2,3z" stroke="none"/><path d="M91.35857864376268,7.641421356237309L91.64142135623732,7.358578643762691L93.08284271247462,8.8L97.41715728752538,8.8L98.8,7.417157287525381L98.8,6.082842712474619L97.41715728752538,4.7L92.91715728752538,4.7L91.41715728752538,3.2L90,3.2L90,2.8L91.58284271247462,2.8L93.08284271247462,4.3L97.58284271247462,4.3L99.2,5.917157287525381L99.2,7.582842712474619L97.58284271247462,9.2L92.91715728752538,9.2z" stroke="none"/><path d="M13.64142135623731,7.641421356237309L13.35857864376269,7.358578643762691L14.91715728752538,5.8L16.41715728752538,5.8L19.35857864376269,2.8585786437626903L19.64142135623731,3.1414213562373097L16.58284271247462,6.2L15.08284271247462,6.2z" stroke="none"/><path d="M18,10.7L18,10.3L20.91715728752538,10.3L22.41715728752538,8.8L25.5,8.8L25.5,9.2L22.58284271247462,9.2L21.08284271247462,10.7z" stroke="none"/><path d="M84,9.2L84,8.8L90.08284271247462,8.8L91.58284271247462,10.3L93,10.3L93,10.7L91.41715728752538,10.7L89.91715728752538,9.2z" stroke="none"/><path d="M49.5,10.7L49.5,10.3L55.417157287525384,10.3L56.917157287525384,8.8L60,8.8L60,9.2L57.082842712474616,9.2L55.582842712474616,10.7z" stroke="none"/><path d="M79.35857864376268,8.85857864376269L79.64142135623732,9.14142135623731L78.08284271247462,10.7L76.58284271247462,10.7L75.08284271247462,12.2L69,12.2L69,11.8L74.91715728752538,11.8L76.41715728752538,10.3L77.91715728752538,10.3z" stroke="none"/><path d="M69,7.3L69,7.7L66.08284271247462,7.7L64.58284271247462,9.2L63.082842712474616,9.2L60.082842712474616,12.2L58.5,12.2L58.5,11.8L59.917157287525384,11.8L62.917157287525384,8.8L64.41715728752538,8.8L65.91715728752538,7.3z" stroke="none"/><path d="M12.14142135623731,3.1414213562373097L11.85857864376269,2.8585786437626903L13.41715728752538,1.3L21.08284271247462,1.3L22.58284271247462,2.8L24,2.8L24,3.2L22.41715728752538,3.2L20.91715728752538,1.7L13.58284271247462,1.7z" stroke="none"/><path d="M85.5,11.8L85.5,12.2L78.08284271247462,12.2L76.58284271247462,13.7L67.41715728752538,13.7L65.8,12.08284271247462L65.8,10.41715728752538L67.41715728752538,8.8L70.58284271247462,8.8L72.08284271247462,10.3L73.5,10.3L73.5,10.7L71.91715728752538,10.7L70.41715728752538,9.2L67.58284271247462,9.2L66.2,10.58284271247462L66.2,11.91715728752538L67.58284271247462,13.3L76.41715728752538,13.3L77.91715728752538,11.8z" stroke="none"/><path d="M95.85857864376268,10.35857864376269L96.14142135623732,10.64142135623731L94.58284271247462,12.2L88.41715728752538,12.2L86.91715728752538,10.7L82.41715728752538,10.7L80.85857864376268,9.14142135623731L81.14142135623732,8.85857864376269L82.58284271247462,10.3L87.08284271247462,10.3L88.58284271247462,11.8L94.41715728752538,11.8z" stroke="none"/><path d="M33,3.2L33,2.8L49.5,2.8L49.5,3.2z" stroke="none"/><path d="M36,10.7L36,10.3L42.082842712474616,10.3L45.082842712474616,13.3L61.417157287525384,13.3L64.35857864376268,10.35857864376269L64.64142135623732,10.64142135623731L61.582842712474616,13.7L44.917157287525384,13.7L41.917157287525384,10.7z" stroke="none"/></svg>