<svg version="1.1" width="105" height="15" xmlns="http://www.w3.org/2000/svg"><path d="M91.3,7.417157287525381L91.3,5.917157287525381L92.85857864376268,4.358578643762691L93.14142135623732,4.641421356237309L91.7,6.082842712474619L91.7,7.3L94.41715728752538,7.3L95.91715728752538,5.8L97.5,5.8L97.5,6.2L96.08284271247462,6.2L94.58284271247462,7.7L91.58284271247462,7.7L90.08284271247462,9.2L84,9.2L84,8.8L89.91715728752538,8.8z" stroke="none"/><path d="M58.417157287525384,4.3L59.917157287525384,2.8L61.417157287525384,2.8L62.917157287525384,1.3L70.58284271247462,1.3L72.14142135623732,2.8585786437626903L71.85857864376268,3.1414213562373097L70.41715728752538,1.7L63.082842712474616,1.7L61.582842712474616,3.2L60.082842712474616,3.2L58.582842712474616,4.7L51.082842712474616,4.7L49.582842712474616,6.2L46.582842712474616,6.2L45.14142135623731,7.641421356237309L44.85857864376269,7.358578643762691L46.417157287525384,5.8L49.417157287525384,5.8L50.51715728752538,4.7L49.417157287525384,4.7L47.917157287525384,3.2L42.082842712474616,3.2L40.582842712474616,4.7L36,4.7L36,4.3L40.417157287525384,4.3L41.917157287525384,2.8L48.082842712474616,2.8L49.582842712474616,4.3z" stroke="none"/><path d="M40.3,10.3L40.3,9.08284271247462L38.917157287525384,7.7L34.582842712474616,7.7L33.082842712474616,9.2L28.58284271247462,9.2L27.08284271247462,10.7L15,10.7L15,10.3L26.91715728752538,10.3L28.41715728752538,8.8L32.917157287525384,8.8L34.417157287525384,7.3L39.082842712474616,7.3L40.7,8.91715728752538L40.7,10.3L51.082842712474616,10.3L52.64142135623731,11.85857864376269L52.35857864376269,12.14142135623731L50.917157287525384,10.7L40.7,10.7L40.7,11.91715728752538L42.082842712474616,13.3L58.417157287525384,13.3L59.85857864376269,11.85857864376269L60.14142135623731,12.14142135623731L58.582842712474616,13.7L41.917157287525384,13.7L40.3,12.08284271247462L40.3,10.7L37.5,10.7L37.5,10.3z" stroke="none"/><path d="M74.8,4.3L74.8,2.917157287525381L76.41715728752538,1.3L78.08284271247462,1.3L79.58284271247462,2.8L81.08284271247462,2.8L82.58284271247462,4.3L87,4.3L87,4.7L82.41715728752538,4.7L80.91715728752538,3.2L79.41715728752538,3.2L77.91715728752538,1.7L76.58284271247462,1.7L75.2,3.082842712474619L75.2,4.3L79.5,4.3L79.5,4.7L75.2,4.7L75.2,5.917157287525381L76.58284271247462,7.3L88.5,7.3L88.5,7.7L76.41715728752538,7.7L74.8,6.082842712474619L74.8,4.7L73.58284271247462,4.7L72.08284271247462,6.2L69.08284271247462,6.2L66.08284271247462,9.2L43.417157287525384,9.2L41.8,7.582842712474619L41.8,5.917157287525381L43.417157287525384,4.3L45,4.3L45,4.7L43.582842712474616,4.7L42.2,6.082842712474619L42.2,7.417157287525381L43.582842712474616,8.8L65.91715728752538,8.8L68.91715728752538,5.8L71.91715728752538,5.8L73.41715728752538,4.3z" stroke="none"/><path d="M26.8,3L27.2,3L27.2,4.5L26.8,4.5z" stroke="none"/><path d="M102.2,12L101.8,12L101.8,10.5L102.2,10.5z" stroke="none"/><path d="M22.35857864376269,6.141421356237309L22.64142135623731,5.858578643762691L24.14142135623731,7.358578643762691L23.85857864376269,7.641421356237309z" stroke="none"/><path d="M12.14142135623731,11.85857864376269L11.85857864376269,12.14142135623731L10.35857864376269,10.64142135623731L10.64142135623731,10.35857864376269z" stroke="none"/><path d="M65.85857864376268,4.358578643762691L66.14142135623732,4.641421356237309L63.14142135623731,7.641421356237309L62.85857864376269,7.358578643762691z" stroke="none"/><path d="M19.5,11.8L19.5,12.2L15,12.2L15,11.8z" stroke="none"/><path d="M93,10.3L93,10.7L87,10.7L87,10.3z" stroke="none"/><path d="M15,4.3L15,4.7L11.91715728752538,4.7L10.41715728752538,3.2L9,3.2L9,2.8L10.58284271247462,2.8L12.08284271247462,4.3z" stroke="none"/><path d="M87,12.2L87,11.8L94.41715728752538,11.8L95.8,10.41715728752538L95.8,9L96.2,9L96.2,10.58284271247462L94.58284271247462,12.2z" stroke="none"/><path d="M3,3.2L3,2.8L4.417157287525381,2.8L5.917157287525381,1.3L12.08284271247462,1.3L13.58284271247462,2.8L15,2.8L15,3.2L13.41715728752538,3.2L11.91715728752538,1.7L6.082842712474619,1.7L4.582842712474619,3.2z" stroke="none"/><path d="M100.35857864376268,10.35857864376269L100.64142135623732,10.64142135623731L99.08284271247462,12.2L97.58284271247462,12.2L96.08284271247462,13.7L85.41715728752538,13.7L82.3,10.58284271247462L82.3,9L82.7,9L82.7,10.41715728752538L85.58284271247462,13.3L95.91715728752538,13.3L97.41715728752538,11.8L98.91715728752538,11.8z" stroke="none"/><path d="M73.5,11.8L73.5,12.2L62.917157287525384,12.2L61.417157287525384,10.7L55.5,10.7L55.5,10.3L61.582842712474616,10.3L63.082842712474616,11.8z" stroke="none"/><path d="M18.14142135623731,7.641421356237309L17.85857864376269,7.358578643762691L20.91715728752538,4.3L24.08284271247462,4.3L25.58284271247462,5.8L37.5,5.8L37.5,6.2L25.41715728752538,6.2L23.91715728752538,4.7L21.08284271247462,4.7z" stroke="none"/><path d="M67.5,2.8L67.5,3.2L64.58284271247462,3.2L61.582842712474616,6.2L60.082842712474616,6.2L58.582842712474616,7.7L48,7.7L48,7.3L58.417157287525384,7.3L59.917157287525384,5.8L61.417157287525384,5.8L64.41715728752538,2.8z" stroke="none"/><path d="M31.5,10.3L31.5,10.7L30.08284271247462,10.7L28.58284271247462,12.2L22.58284271247462,12.2L21.08284271247462,13.7L10.41715728752538,13.7L7.417157287525381,10.7L5.917157287525381,10.7L4.358578643762691,9.14142135623731L4.641421356237309,8.85857864376269L6.082842712474619,10.3L7.582842712474619,10.3L10.58284271247462,13.3L20.91715728752538,13.3L22.41715728752538,11.8L28.41715728752538,11.8L29.91715728752538,10.3z" stroke="none"/><path d="M12,6.2L12,5.8L16.41715728752538,5.8L19.41715728752538,2.8L23.91715728752538,2.8L25.41715728752538,1.3L36.082842712474616,1.3L37.582842712474616,2.8L39,2.8L39,3.2L37.417157287525384,3.2L35.917157287525384,1.7L25.58284271247462,1.7L24.08284271247462,3.2L19.58284271247462,3.2L16.58284271247462,6.2z" stroke="none"/></svg>