<svg version="1.1" width="105" height="15" xmlns="http://www.w3.org/2000/svg"><path d="M84.08284271247462,2.8L85.58284271247462,4.3L90.08284271247462,4.3L91.58284271247462,5.8L96.08284271247462,5.8L97.58284271247462,7.3L100.58284271247462,7.3L102.14142135623732,8.85857864376269L101.85857864376268,9.14142135623731L100.41715728752538,7.7L97.41715728752538,7.7L95.91715728752538,6.2L91.41715728752538,6.2L89.91715728752538,4.7L85.41715728752538,4.7L83.91715728752538,3.2L79.58284271247462,3.2L78.08284271247462,4.7L76.5,4.7L76.5,4.3L77.91715728752538,4.3L79.01715728752538,3.2L70.58284271247462,3.2L67.58284271247462,6.2L63,6.2L63,5.8L67.41715728752538,5.8L70.41715728752538,2.8z" stroke="none"/><path d="M16.58284271247462,4.3L27.08284271247462,4.3L28.64142135623731,5.858578643762691L28.35857864376269,6.141421356237309L26.91715728752538,4.7L16.58284271247462,4.7L15.08284271247462,6.2L12.08284271247462,6.2L10.64142135623731,7.641421356237309L10.35857864376269,7.358578643762691L11.91715728752538,5.8L14.91715728752538,5.8L16.21715728752538,4.5L14.91715728752538,3.2L13.5,3.2L13.5,2.8L15.08284271247462,2.8z" stroke="none"/><path d="M63,10.3L63,10.7L60.2,10.7L60.2,11.91715728752538L61.582842712474616,13.3L67.41715728752538,13.3L68.91715728752538,11.8L78,11.8L78,12.2L69.08284271247462,12.2L67.58284271247462,13.7L61.417157287525384,13.7L59.8,12.08284271247462L59.8,10.98284271247462L58.582842712474616,12.2L57,12.2L57,11.8L58.417157287525384,11.8L59.51715728752538,10.7L56.917157287525384,10.7L53.917157287525384,7.7L52.5,7.7L52.5,7.3L54.082842712474616,7.3L57.082842712474616,10.3z" stroke="none"/><path d="M86.91715728752538,8.8L97.5,8.8L97.5,9.2L87.48284271247462,9.2L88.58284271247462,10.3L90.08284271247462,10.3L91.64142135623732,11.85857864376269L91.35857864376268,12.14142135623731L89.91715728752538,10.7L88.41715728752538,10.7L87.2,9.48284271247462L87.2,12.08284271247462L85.58284271247462,13.7L82.41715728752538,13.7L79.41715728752538,10.7L76.5,10.7L76.5,10.3L79.58284271247462,10.3L82.58284271247462,13.3L85.41715728752538,13.3L86.8,11.91715728752538L86.8,9.48284271247462L85.58284271247462,10.7L82.41715728752538,10.7L79.35857864376268,7.641421356237309L79.64142135623732,7.358578643762691L82.58284271247462,10.3L85.41715728752538,10.3z" stroke="none"/><path d="M83.8,7.5L84.2,7.5L84.2,9L83.8,9z" stroke="none"/><path d="M50.85857864376269,8.85857864376269L51.14142135623731,9.14142135623731L49.64142135623731,10.64142135623731L49.35857864376269,10.35857864376269z" stroke="none"/><path d="M25.35857864376269,10.35857864376269L25.64142135623731,10.64142135623731L24.14142135623731,12.14142135623731L23.85857864376269,11.85857864376269z" stroke="none"/><path d="M33.2,12L32.8,12L32.8,8.91715728752538L34.35857864376269,7.358578643762691L34.64142135623731,7.641421356237309L33.2,9.08284271247462z" stroke="none"/><path d="M10.5,10.3L10.5,10.7L9.08284271247462,10.7L7.582842712474619,12.2L6,12.2L6,11.8L7.417157287525381,11.8L8.91715728752538,10.3z" stroke="none"/><path d="M33,4.7L33,4.3L37.417157287525384,4.3L38.85857864376269,2.8585786437626903L39.14142135623731,3.1414213562373097L37.582842712474616,4.7z" stroke="none"/><path d="M73.35857864376268,4.641421356237309L73.64142135623732,4.358578643762691L75.08284271247462,5.8L81,5.8L81,6.2L74.91715728752538,6.2z" stroke="none"/><path d="M64.5,10.7L64.5,10.3L73.5,10.3L73.5,10.7z" stroke="none"/><path d="M46.5,11.8L46.5,12.2L41.917157287525384,12.2L38.917157287525384,9.2L36,9.2L36,8.8L39.082842712474616,8.8L42.082842712474616,11.8z" stroke="none"/><path d="M87,3.2L87,2.8L99,2.8L99,3.2z" stroke="none"/><path d="M12,12.2L12,11.8L17.91715728752538,11.8L20.91715728752538,8.8L24,8.8L24,9.2L21.08284271247462,9.2L18.08284271247462,12.2z" stroke="none"/><path d="M40.5,6.2L40.5,5.8L44.917157287525384,5.8L46.417157287525384,4.3L49.417157287525384,4.3L50.917157287525384,2.8L54,2.8L54,3.2L51.082842712474616,3.2L49.582842712474616,4.7L46.582842712474616,4.7L45.082842712474616,6.2z" stroke="none"/><path d="M70.5,7.3L70.5,7.7L61.417157287525384,7.7L59.917157287525384,6.2L51.082842712474616,6.2L49.64142135623731,7.641421356237309L49.35857864376269,7.358578643762691L50.917157287525384,5.8L60.082842712474616,5.8L61.582842712474616,7.3z" stroke="none"/><path d="M64.5,2.8L64.5,3.2L58.417157287525384,3.2L56.917157287525384,1.7L30.08284271247462,1.7L28.64142135623731,3.1414213562373097L28.35857864376269,2.8585786437626903L29.91715728752538,1.3L57.082842712474616,1.3L58.582842712474616,2.8z" stroke="none"/><path d="M12,2.8L12,3.2L10.58284271247462,3.2L7.7,6.082842712474619L7.7,7.417157287525381L9.08284271247462,8.8L13.41715728752538,8.8L14.91715728752538,7.3L31.41715728752538,7.3L32.917157287525384,5.8L37.582842712474616,5.8L39.082842712474616,7.3L46.417157287525384,7.3L47.85857864376269,5.858578643762691L48.14142135623731,6.141421356237309L46.582842712474616,7.7L38.917157287525384,7.7L37.417157287525384,6.2L33.082842712474616,6.2L31.58284271247462,7.7L15.08284271247462,7.7L13.58284271247462,9.2L8.91715728752538,9.2L7.3,7.582842712474619L7.3,5.917157287525381L10.41715728752538,2.8z" stroke="none"/><path d="M10.35857864376269,11.85857864376269L10.64142135623731,12.14142135623731L9.08284271247462,13.7L4.417157287525381,13.7L2.8,12.08284271247462L2.8,10.41715728752538L5.8,7.417157287525381L5.8,6.082842712474619L4.417157287525381,4.7L3.082842712474619,4.7L1.7,6.082842712474619L1.7,8.91715728752538L3.2,10.41715728752538L3.2,11.91715728752538L4.582842712474619,13.3L49.417157287525384,13.3L52.3,10.41715728752538L52.3,9L52.7,9L52.7,10.58284271247462L49.582842712474616,13.7L4.417157287525381,13.7L2.8,12.08284271247462L2.8,10.58284271247462L1.3,9.08284271247462L1.3,5.917157287525381L2.917157287525381,4.3L4.582842712474619,4.3L6.2,5.917157287525381L6.2,7.582842712474619L3.2,10.58284271247462L3.2,11.91715728752538L4.582842712474619,13.3L8.91715728752538,13.3z" stroke="none"/></svg>