<svg version="1.1" width="30" height="15" xmlns="http://www.w3.org/2000/svg"><path d="M7.4,4.4L7.4,4.1L4.9,4.1L4.9,3.1L4.5,3.1L4.5,2.9L5.1,2.9L5.1,3.9L7.6,3.9L7.6,4.4L8.6,4.4L8.6,4.9L9.1,4.9L9.1,5.4L10.6,5.4L10.6,6L10.4,6L10.4,5.6L8.9,5.6L8.9,5.1L8.4,5.1L8.4,4.6L6,4.6L6,4.4z" stroke="none"/><path d="M14.9,6.9L14.9,6.6L14.4,6.6L14.4,5.6L12.4,5.6L12.4,5.1L10.4,5.1L10.4,4.5L10.6,4.5L10.6,4.9L12.6,4.9L12.6,5.4L14.6,5.4L14.6,6.4L15.1,6.4L15.1,6.9L15.9,6.9L15.9,6.4L17.6,6.4L17.6,7.4L19.1,7.4L19.1,7.9L20.1,7.9L20.1,8.4L20.6,8.4L20.6,8.9L21,8.9L21,9.1L20.4,9.1L20.4,8.6L19.9,8.6L19.9,8.1L18.9,8.1L18.9,7.6L17.4,7.6L17.4,6.6L16.1,6.6L16.1,7.1L13.9,7.1L13.9,6.6L13.1,6.6L13.1,7.1L12.1,7.1L12.1,7.5L11.9,7.5L11.9,6.9L12.9,6.9L12.9,6.4L14.1,6.4L14.1,6.9z" stroke="none"/><path d="M4.9,5.4L4.9,4.6L3.9,4.6L3.9,3.6L2.9,3.6L2.9,3L3.1,3L3.1,3.4L4.1,3.4L4.1,4.4L5.1,4.4L5.1,5.4L7.6,5.4L7.6,6L7.4,6L7.4,5.6L5.1,5.6L5.1,5.9L7.1,5.9L7.1,6.4L10.1,6.4L10.1,6.9L11.4,6.9L11.4,6.4L11.9,6.4L11.9,6L12.1,6L12.1,6.6L11.6,6.6L11.6,7.1L9.9,7.1L9.9,6.6L6.9,6.6L6.9,6.1L4.9,6.1L4.9,5.6L3.1,5.6L3.1,6L2.9,6L2.9,5.4z" stroke="none"/><path d="M14.9,9.9L14.9,9.1L14.4,9.1L14.4,8.6L13.9,8.6L13.9,7.6L13.5,7.6L13.5,7.4L14.1,7.4L14.1,8.4L14.6,8.4L14.6,8.9L15.1,8.9L15.1,9.9L17.4,9.9L17.4,8.9L18,8.9L18,9.1L17.6,9.1L17.6,10.1L15.1,10.1L15.1,10.4L16.6,10.4L16.6,11.9L18,11.9L18,12.1L16.4,12.1L16.4,10.6L14.9,10.6L14.9,10.1L14.6,10.1L14.6,11.1L14.1,11.1L14.1,11.6L10.9,11.6L10.9,11.1L7.6,11.1L7.6,11.6L6.6,11.6L6.6,12.1L6,12.1L6,11.9L6.4,11.9L6.4,11.4L7.4,11.4L7.4,10.9L11.1,10.9L11.1,11.4L13.9,11.4L13.9,10.9L14.4,10.9L14.4,9.9z" stroke="none"/><path d="M21,12.1L21,11.9L22.5,11.9L22.5,12.1z" stroke="none"/><path d="M9.1,9L8.9,9L8.9,7.5L9.1,7.5z" stroke="none"/><path d="M10.5,3.1L10.5,2.9L12,2.9L12,3.1z" stroke="none"/><path d="M24,2.9L24,3.1L22.5,3.1L22.5,2.9z" stroke="none"/><path d="M22.6,6L22.4,6L22.4,4.5L22.6,4.5z" stroke="none"/><path d="M18.1,4.5L17.9,4.5L17.9,3L18.1,3z" stroke="none"/><path d="M21,4.4L21,4.6L20.6,4.6L20.6,5.6L20.1,5.6L20.1,6.1L19.5,6.1L19.5,5.9L19.9,5.9L19.9,5.4L20.4,5.4L20.4,4.4z" stroke="none"/><path d="M25.4,4.5L25.6,4.5L25.6,9L25.4,9z" stroke="none"/><path d="M3.1,12L2.9,12L2.9,7.5L3.1,7.5z" stroke="none"/><path d="M13.5,8.9L13.5,9.1L10.6,9.1L10.6,9.6L9.6,9.6L9.6,10.1L8.4,10.1L8.4,9.6L7.9,9.6L7.9,9.1L7.5,9.1L7.5,8.9L8.1,8.9L8.1,9.4L8.6,9.4L8.6,9.9L9.4,9.9L9.4,9.4L10.4,9.4L10.4,8.9z" stroke="none"/><path d="M22.5,8.9L22.5,9.1L21.9,9.1L21.9,8.1L20.9,8.1L20.9,7.1L18.4,7.1L18.4,6.1L16.9,6.1L16.9,5.6L16.4,5.6L16.4,4.5L16.6,4.5L16.6,5.4L17.1,5.4L17.1,5.9L18.6,5.9L18.6,6.9L21.1,6.9L21.1,7.9L22.1,7.9L22.1,8.9z" stroke="none"/><path d="M10.5,12.1L10.5,11.9L15.1,11.9L15.1,12.4L16.6,12.4L16.6,12.9L18.4,12.9L18.4,12.4L18.9,12.4L18.9,11.1L18.4,11.1L18.4,10.6L18,10.6L18,10.4L18.6,10.4L18.6,10.9L19.1,10.9L19.1,12.6L18.6,12.6L18.6,13.1L16.4,13.1L16.4,12.6L14.9,12.6L14.9,12.1z" stroke="none"/><path d="M15.1,4.5L14.9,4.5L14.9,3.4L16.4,3.4L16.4,2.9L16.9,2.9L16.9,2.4L17.4,2.4L17.4,1.9L24.6,1.9L24.6,2.4L25.1,2.4L25.1,3.6L24.6,3.6L24.6,4.1L24.1,4.1L24.1,4.5L23.9,4.5L23.9,3.9L24.4,3.9L24.4,3.4L24.9,3.4L24.9,2.6L24.4,2.6L24.4,2.1L17.6,2.1L17.6,2.6L17.1,2.6L17.1,3.1L16.6,3.1L16.6,3.6L15.1,3.6z" stroke="none"/><path d="M23.9,7.5L24.1,7.5L24.1,9.4L25.1,9.4L25.1,9.9L26.4,9.9L26.4,4.1L25.9,4.1L25.9,2.6L25.4,2.6L25.4,2.1L24.9,2.1L24.9,1.6L17.1,1.6L17.1,2.1L16.6,2.1L16.6,2.6L15.6,2.6L15.6,3.1L14.6,3.1L14.6,4.1L14.1,4.1L14.1,4.6L13.5,4.6L13.5,4.4L13.9,4.4L13.9,3.9L14.4,3.9L14.4,2.9L15.4,2.9L15.4,2.4L16.4,2.4L16.4,1.9L16.9,1.9L16.9,1.4L25.1,1.4L25.1,1.9L25.6,1.9L25.6,2.4L26.1,2.4L26.1,3.9L26.6,3.9L26.6,10.1L24.9,10.1L24.9,9.6L23.9,9.6z" stroke="none"/><path d="M16.5,7.6L16.5,7.4L17.1,7.4L17.1,7.9L18.6,7.9L18.6,8.4L19.1,8.4L19.1,8.9L19.6,8.9L19.6,9.4L20.6,9.4L20.6,9.9L24.6,9.9L24.6,10.4L26.9,10.4L26.9,3L27.1,3L27.1,10.6L24.4,10.6L24.4,10.1L20.4,10.1L20.4,9.6L19.4,9.6L19.4,9.1L18.9,9.1L18.9,8.6L18.4,8.6L18.4,8.1L16.9,8.1L16.9,7.6z" stroke="none"/><path d="M13.5,10.4L13.5,10.6L6.1,10.6L6.1,11.1L5.6,11.1L5.6,11.6L5.1,11.6L5.1,12.4L5.6,12.4L5.6,12.9L16.1,12.9L16.1,13.4L24.9,13.4L24.9,12.4L25.4,12.4L25.4,12L25.6,12L25.6,12.6L25.1,12.6L25.1,13.6L15.9,13.6L15.9,13.1L5.4,13.1L5.4,12.6L4.9,12.6L4.9,11.4L5.4,11.4L5.4,10.9L5.9,10.9L5.9,10.4z" stroke="none"/></svg>