<svg version="1.1" width="30" height="15" xmlns="http://www.w3.org/2000/svg"><path d="M21.6,10.9L21.6,11.4L22.6,11.4L22.6,12L22.4,12L22.4,11.6L21.4,11.6L21.4,11.1L20.6,11.1L20.6,11.6L19.6,11.6L19.6,12L19.4,12L19.4,11.4L20.4,11.4L20.4,11.1L18.4,11.1L18.4,10.6L18,10.6L18,10.4L18.6,10.4L18.6,10.9z" stroke="none"/><path d="M8.9,4.1L8.4,4.1L8.4,3.6L7.4,3.6L7.4,3L7.6,3L7.6,3.4L8.6,3.4L8.6,3.9L9.1,3.9L9.1,5.9L9.6,5.9L9.6,6.4L10.1,6.4L10.1,6.9L11.6,6.9L11.6,7.4L12,7.4L12,7.6L11.4,7.6L11.4,7.1L9.9,7.1L9.9,6.6L9.4,6.6L9.4,6.1L9.1,6.1L9.1,7.5L8.9,7.5z" stroke="none"/><path d="M23.9,9.9L23.9,9.6L23.4,9.6L23.4,9.1L21.4,9.1L21.4,8.6L20.1,8.6L20.1,9.1L19.5,9.1L19.5,8.9L19.9,8.9L19.9,8.4L21.6,8.4L21.6,8.9L23.6,8.9L23.6,9.4L24.1,9.4L24.1,9.9L26.6,9.9L26.6,10.4L27,10.4L27,10.6L26.4,10.6L26.4,10.1L24.1,10.1L24.1,10.9L25.1,10.9L25.1,11.4L25.6,11.4L25.6,11.9L27,11.9L27,12.1L25.4,12.1L25.4,11.6L24.9,11.6L24.9,11.1L23.9,11.1L23.9,10.1L22.9,10.1L22.9,9.6L20.9,9.6L20.9,9L21.1,9L21.1,9.4L23.1,9.4L23.1,9.9z" stroke="none"/><path d="M14.9,7.4L14.9,6.9L20.1,6.9L20.1,7.4L21,7.4L21,7.6L19.9,7.6L19.9,7.1L15.1,7.1L15.1,7.4L18.1,7.4L18.1,9L17.9,9L17.9,7.6L15.1,7.6L15.1,8.1L14.6,8.1L14.6,8.6L10.6,8.6L10.6,9L10.4,9L10.4,8.4L14.4,8.4L14.4,7.9L14.9,7.9L14.9,7.6L14.4,7.6L14.4,7.1L13.9,7.1L13.9,6.1L12,6.1L12,5.9L14.1,5.9L14.1,6.9L14.6,6.9L14.6,7.4z" stroke="none"/><path d="M6,8.9L6,9.1L4.5,9.1L4.5,8.9z" stroke="none"/><path d="M25.5,2.9L25.5,3.1L22.5,3.1L22.5,2.9z" stroke="none"/><path d="M6.1,7.5L5.9,7.5L5.9,4.5L6.1,4.5z" stroke="none"/><path d="M3,12.1L3,11.9L6,11.9L6,12.1z" stroke="none"/><path d="M10.6,12L10.4,12L10.4,10.1L8.9,10.1L8.9,9L9.1,9L9.1,9.9L10.6,9.9z" stroke="none"/><path d="M7.4,9L7.6,9L7.6,10.4L8.1,10.4L8.1,10.9L9.1,10.9L9.1,12L8.9,12L8.9,11.1L7.9,11.1L7.9,10.6L7.4,10.6z" stroke="none"/><path d="M24,5.9L24,6.1L21.9,6.1L21.9,5.6L21.4,5.6L21.4,4.6L20.9,4.6L20.9,3L21.1,3L21.1,4.4L21.6,4.4L21.6,5.4L22.1,5.4L22.1,5.9z" stroke="none"/><path d="M27.1,7.5L26.9,7.5L26.9,4.1L24.4,4.1L24.4,3.6L23.1,3.6L23.1,4.6L22.5,4.6L22.5,4.4L22.9,4.4L22.9,3.4L24.6,3.4L24.6,3.9L27.1,3.9z" stroke="none"/><path d="M10.5,5.9L10.5,6.1L9.9,6.1L9.9,5.6L9.4,5.6L9.4,3.1L8.4,3.1L8.4,2.6L7.9,2.6L7.9,2.1L6.1,2.1L6.1,3.6L5.6,3.6L5.6,4.1L5.1,4.1L5.1,5.6L3.6,5.6L3.6,6.1L3,6.1L3,5.9L3.4,5.9L3.4,5.4L4.9,5.4L4.9,3.9L5.4,3.9L5.4,3.4L5.9,3.4L5.9,1.9L8.1,1.9L8.1,2.4L8.6,2.4L8.6,2.9L9.6,2.9L9.6,5.4L10.1,5.4L10.1,5.9z" stroke="none"/><path d="M4.5,3.1L4.5,2.9L5.4,2.9L5.4,1.4L11.1,1.4L11.1,1.9L11.6,1.9L11.6,2.9L12,2.9L12,3.1L11.4,3.1L11.4,2.1L10.9,2.1L10.9,1.6L5.6,1.6L5.6,3.1z" stroke="none"/><path d="M24,4.6L24,4.4L24.6,4.4L24.6,4.9L25.1,4.9L25.1,6.6L24.6,6.6L24.6,7.1L22.9,7.1L22.9,6.6L17.4,6.6L17.4,3.1L16.5,3.1L16.5,2.9L17.6,2.9L17.6,6.4L23.1,6.4L23.1,6.9L24.4,6.9L24.4,6.4L24.9,6.4L24.9,5.1L24.4,5.1L24.4,4.6z" stroke="none"/><path d="M13.5,12.1L13.5,11.9L16.6,11.9L16.6,12.9L23.4,12.9L23.4,11.1L22.4,11.1L22.4,10.5L22.6,10.5L22.6,10.9L23.6,10.9L23.6,13.1L16.4,13.1L16.4,12.1z" stroke="none"/><path d="M16.5,4.4L16.5,4.6L15.9,4.6L15.9,3.6L15.4,3.6L15.4,1.9L27.1,1.9L27.1,3L26.9,3L26.9,2.1L15.6,2.1L15.6,3.4L16.1,3.4L16.1,4.4z" stroke="none"/><path d="M3.1,4.5L2.9,4.5L2.9,2.4L3.9,2.4L3.9,0.9L12.1,0.9L12.1,1.9L12.6,1.9L12.6,2.4L13.6,2.4L13.6,3L13.4,3L13.4,2.6L12.4,2.6L12.4,2.1L11.9,2.1L11.9,1.1L4.1,1.1L4.1,2.6L3.1,2.6z" stroke="none"/><path d="M4.5,10.6L4.5,10.4L7.1,10.4L7.1,12.4L8.1,12.4L8.1,12.9L11.4,12.9L11.4,11.9L12.4,11.9L12.4,11.4L12.9,11.4L12.9,10.9L13.4,10.9L13.4,10.4L14.4,10.4L14.4,9.9L15.4,9.9L15.4,8.9L16.5,8.9L16.5,9.1L15.6,9.1L15.6,10.1L14.6,10.1L14.6,10.6L13.6,10.6L13.6,11.1L13.1,11.1L13.1,11.6L12.6,11.6L12.6,12.1L11.6,12.1L11.6,13.1L7.9,13.1L7.9,12.6L6.9,12.6L6.9,10.6z" stroke="none"/><path d="M15.1,4.5L14.9,4.5L14.9,2.1L13.4,2.1L13.4,1.6L12.4,1.6L12.4,0.6L3.1,0.6L3.1,1.1L2.6,1.1L2.6,3.1L2.1,3.1L2.1,6.9L2.6,6.9L2.6,7.4L3,7.4L3,7.6L2.4,7.6L2.4,7.1L1.9,7.1L1.9,2.9L2.4,2.9L2.4,0.9L2.9,0.9L2.9,0.4L12.6,0.4L12.6,1.4L13.6,1.4L13.6,1.9L15.1,1.9z" stroke="none"/></svg>