<svg version="1.1" width="30" height="15" xmlns="http://www.w3.org/2000/svg"><path d="M15.1,9.4L15.1,12L14.9,12L14.9,9.6L14.6,9.6L14.6,10.1L13.6,10.1L13.6,10.5L13.4,10.5L13.4,9.9L14.4,9.9L14.4,9.6L12.4,9.6L12.4,9.1L12,9.1L12,8.9L12.6,8.9L12.6,9.4z" stroke="none"/><path d="M25.9,3.6L23.9,3.6L23.9,3L24.1,3L24.1,3.4L26.1,3.4L26.1,4.9L26.6,4.9L26.6,5.4L27.1,5.4L27.1,6L26.9,6L26.9,5.6L26.4,5.6L26.4,5.1L26.1,5.1L26.1,6.9L27.1,6.9L27.1,7.5L26.9,7.5L26.9,7.1L25.9,7.1z" stroke="none"/><path d="M10.4,7.4L10.4,7.1L7.1,7.1L7.1,7.6L6,7.6L6,7.4L6.9,7.4L6.9,6.9L10.6,6.9L10.6,7.4L12.6,7.4L12.6,7.9L14.1,7.9L14.1,8.4L14.6,8.4L14.6,8.9L15.6,8.9L15.6,9.9L16.1,9.9L16.1,10.4L16.6,10.4L16.6,10.9L17.6,10.9L17.6,11.4L18.1,11.4L18.1,12L17.9,12L17.9,11.6L17.4,11.6L17.4,11.1L16.4,11.1L16.4,10.6L15.9,10.6L15.9,10.1L15.4,10.1L15.4,9.1L14.4,9.1L14.4,8.6L13.9,8.6L13.9,8.1L12.4,8.1L12.4,7.6L10.6,7.6L10.6,9L10.4,9L10.4,7.6L9,7.6L9,7.4z" stroke="none"/><path d="M19.4,5.9L19.4,5.4L19.9,5.4L19.9,4.9L21.4,4.9L21.4,4.4L24,4.4L24,4.6L21.6,4.6L21.6,5.1L20.1,5.1L20.1,5.6L19.6,5.6L19.6,5.9L22.9,5.9L22.9,4.9L24.4,4.9L24.4,4.1L16.1,4.1L16.1,5.6L12.1,5.6L12.1,6L11.9,6L11.9,5.4L15.9,5.4L15.9,3.9L24.6,3.9L24.6,5.1L23.1,5.1L23.1,6.1L19.6,6.1L19.6,6.4L20.6,6.4L20.6,6.9L22.1,6.9L22.1,7.4L23.1,7.4L23.1,7.9L24.1,7.9L24.1,9L23.9,9L23.9,8.1L22.9,8.1L22.9,7.6L21.9,7.6L21.9,7.1L20.4,7.1L20.4,6.6L19.4,6.6L19.4,6.1L18.9,6.1L18.9,5.1L17.4,5.1L17.4,4.6L16.5,4.6L16.5,4.4L17.6,4.4L17.6,4.9L19.1,4.9L19.1,5.9z" stroke="none"/><path d="M17.9,7.5L18.1,7.5L18.1,9L17.9,9z" stroke="none"/><path d="M10.5,12.1L10.5,11.9L12,11.9L12,12.1z" stroke="none"/><path d="M27,11.9L27,12.1L26.4,12.1L26.4,11.1L25.4,11.1L25.4,10.5L25.6,10.5L25.6,10.9L26.6,10.9L26.6,11.9z" stroke="none"/><path d="M21,10.4L21,10.6L20.4,10.6L20.4,9.6L19.4,9.6L19.4,9L19.6,9L19.6,9.4L20.6,9.4L20.6,10.4z" stroke="none"/><path d="M6,10.4L6,10.6L3.9,10.6L3.9,10.1L2.9,10.1L2.9,9L3.1,9L3.1,9.9L4.1,9.9L4.1,10.4z" stroke="none"/><path d="M16.5,2.9L16.5,3.1L13.6,3.1L13.6,4.5L13.4,4.5L13.4,2.9z" stroke="none"/><path d="M7.4,6L7.6,6L7.6,6.6L5.6,6.6L5.6,7.1L5.1,7.1L5.1,8.6L4.6,8.6L4.6,9L4.4,9L4.4,8.4L4.9,8.4L4.9,6.9L5.4,6.9L5.4,6.4L7.4,6.4z" stroke="none"/><path d="M27,2.9L27,3.1L24.9,3.1L24.9,2.1L23.6,2.1L23.6,2.6L23.1,2.6L23.1,3.1L22.5,3.1L22.5,2.9L22.9,2.9L22.9,2.4L23.4,2.4L23.4,1.9L25.1,1.9L25.1,2.9z" stroke="none"/><path d="M7.5,11.9L7.5,12.1L3,12.1L3,11.9z" stroke="none"/><path d="M23.9,6L24.1,6L24.1,6.9L24.6,6.9L24.6,8.4L25.1,8.4L25.1,9.6L24.6,9.6L24.6,10.1L22.9,10.1L22.9,8.6L21.9,8.6L21.9,8.1L19.4,8.1L19.4,7.5L19.6,7.5L19.6,7.9L22.1,7.9L22.1,8.4L23.1,8.4L23.1,9.9L24.4,9.9L24.4,9.4L24.9,9.4L24.9,8.6L24.4,8.6L24.4,7.1L23.9,7.1z" stroke="none"/><path d="M4.5,4.6L4.5,4.4L7.6,4.4L7.6,4.9L9.1,4.9L9.1,6L8.9,6L8.9,5.1L7.4,5.1L7.4,4.6z" stroke="none"/><path d="M10.6,6L10.4,6L10.4,4.6L9.4,4.6L9.4,4.1L4.9,4.1L4.9,3.6L4.1,3.6L4.1,4.1L3.6,4.1L3.6,7.1L3.1,7.1L3.1,8.1L2.1,8.1L2.1,10.4L3.6,10.4L3.6,10.9L5.1,10.9L5.1,11.4L6.9,11.4L6.9,10.1L6.4,10.1L6.4,9.6L5.9,9.6L5.9,9L6.1,9L6.1,9.4L6.6,9.4L6.6,9.9L7.1,9.9L7.1,11.6L4.9,11.6L4.9,11.1L3.4,11.1L3.4,10.6L1.9,10.6L1.9,7.9L2.9,7.9L2.9,6.9L3.4,6.9L3.4,3.9L3.9,3.9L3.9,3.4L5.1,3.4L5.1,3.9L9.6,3.9L9.6,4.4L10.6,4.4z" stroke="none"/><path d="M9,9.1L9,8.9L9.6,8.9L9.6,9.4L10.1,9.4L10.1,9.9L12.6,9.9L12.6,10.9L13.1,10.9L13.1,11.9L13.5,11.9L13.5,12.1L12.9,12.1L12.9,11.1L12.4,11.1L12.4,10.1L9.9,10.1L9.9,9.6L9.4,9.6L9.4,9.1z" stroke="none"/><path d="M25.5,7.6L25.5,7.4L26.1,7.4L26.1,8.4L27.4,8.4L27.4,7.9L27.9,7.9L27.9,2.6L27.4,2.6L27.4,2.1L25.4,2.1L25.4,1.6L23.1,1.6L23.1,2.1L22.1,2.1L22.1,2.6L21.1,2.6L21.1,3L20.9,3L20.9,2.4L21.9,2.4L21.9,1.9L22.9,1.9L22.9,1.4L25.6,1.4L25.6,1.9L27.6,1.9L27.6,2.4L28.1,2.4L28.1,8.1L27.6,8.1L27.6,8.6L25.9,8.6L25.9,7.6z" stroke="none"/><path d="M8.9,10.5L9.1,10.5L9.1,11.9L9.6,11.9L9.6,12.9L18.4,12.9L18.4,12.4L18.9,12.4L18.9,10.6L17.4,10.6L17.4,9.6L16.9,9.6L16.9,6.9L17.4,6.9L17.4,5.9L18,5.9L18,6.1L17.6,6.1L17.6,7.1L17.1,7.1L17.1,9.4L17.6,9.4L17.6,10.4L19.1,10.4L19.1,12.6L18.6,12.6L18.6,13.1L9.4,13.1L9.4,12.1L8.9,12.1z" stroke="none"/><path d="M19.6,3L19.4,3L19.4,2.6L16.9,2.6L16.9,2.1L13.6,2.1L13.6,2.6L10.6,2.6L10.6,3.1L9,3.1L9,2.9L10.4,2.9L10.4,2.4L13.4,2.4L13.4,1.9L17.1,1.9L17.1,2.4L19.6,2.4z" stroke="none"/></svg>