<svg version="1.1" width="30" height="15" xmlns="http://www.w3.org/2000/svg"><path d="M20.4,5.4L20.4,4.9L21.9,4.9L21.9,4.4L22.5,4.4L22.5,4.6L22.1,4.6L22.1,5.1L20.6,5.1L20.6,5.4L22.1,5.4L22.1,5.9L22.5,5.9L22.5,6.1L21.9,6.1L21.9,5.6L17.1,5.6L17.1,6.1L16.5,6.1L16.5,5.9L16.9,5.9L16.9,5.4z" stroke="none"/><path d="M12.4,9.9L12.4,8.9L13.4,8.9L13.4,8.4L14.4,8.4L14.4,7.9L15.9,7.9L15.9,7.4L16.5,7.4L16.5,7.6L16.1,7.6L16.1,8.1L14.6,8.1L14.6,8.6L13.6,8.6L13.6,9.1L12.6,9.1L12.6,9.9L16.6,9.9L16.6,10.5L16.4,10.5L16.4,10.1L9.1,10.1L9.1,10.6L5.6,10.6L5.6,11.1L4.6,11.1L4.6,12L4.4,12L4.4,10.9L5.4,10.9L5.4,10.4L8.9,10.4L8.9,9.9z" stroke="none"/><path d="M18.9,8.9L18.9,8.6L15.1,8.6L15.1,9L14.9,9L14.9,8.4L19.1,8.4L19.1,8.9L24.6,8.9L24.6,9.4L25.6,9.4L25.6,10.5L25.4,10.5L25.4,9.6L24.4,9.6L24.4,9.1L19.1,9.1L19.1,9.9L19.6,9.9L19.6,10.5L19.4,10.5L19.4,10.1L18.9,10.1L18.9,9.1L16.5,9.1L16.5,8.9z" stroke="none"/><path d="M8.9,4.9L8.9,4.4L13.5,4.4L13.5,4.6L9.1,4.6L9.1,4.9L10.6,4.9L10.6,5.9L11.1,5.9L11.1,6.4L12.1,6.4L12.1,7.5L11.9,7.5L11.9,6.6L10.9,6.6L10.9,6.1L10.4,6.1L10.4,5.1L9.1,5.1L9.1,5.6L8.1,5.6L8.1,6.1L7.5,6.1L7.5,5.9L7.9,5.9L7.9,5.4L8.9,5.4L8.9,5.1L5.4,5.1L5.4,3.6L3.9,3.6L3.9,3.1L3,3.1L3,2.9L4.1,2.9L4.1,3.4L5.6,3.4L5.6,4.9z" stroke="none"/><path d="M7.5,8.9L7.5,9.1L6,9.1L6,8.9z" stroke="none"/><path d="M23.9,6L24.1,6L24.1,7.5L23.9,7.5z" stroke="none"/><path d="M7.5,3.1L7.5,2.9L9,2.9L9,3.1z" stroke="none"/><path d="M4.6,9L4.4,9L4.4,7.5L4.6,7.5z" stroke="none"/><path d="M22.6,12L22.4,12L22.4,10.5L22.6,10.5z" stroke="none"/><path d="M27,8.9L27,9.1L26.4,9.1L26.4,8.1L25.4,8.1L25.4,7.5L25.6,7.5L25.6,7.9L26.6,7.9L26.6,8.9z" stroke="none"/><path d="M9,11.9L9,12.1L6,12.1L6,11.9z" stroke="none"/><path d="M6.1,3L5.9,3L5.9,2.1L2.6,2.1L2.6,2.6L2.1,2.6L2.1,3.4L2.6,3.4L2.6,3.9L3.1,3.9L3.1,4.5L2.9,4.5L2.9,4.1L2.4,4.1L2.4,3.6L1.9,3.6L1.9,2.4L2.4,2.4L2.4,1.9L6.1,1.9z" stroke="none"/><path d="M27,5.9L27,6.1L24.9,6.1L24.9,5.1L23.9,5.1L23.9,4.5L24.1,4.5L24.1,4.9L25.1,4.9L25.1,5.9z" stroke="none"/><path d="M24,10.6L24,10.4L24.6,10.4L24.6,11.4L26.6,11.4L26.6,11.9L27,11.9L27,12.1L26.4,12.1L26.4,11.6L24.4,11.6L24.4,10.6z" stroke="none"/><path d="M13.6,7.5L13.4,7.5L13.4,6.9L13.9,6.9L13.9,6.4L14.9,6.4L14.9,5.4L15.9,5.4L15.9,4.9L16.4,4.9L16.4,4.5L16.6,4.5L16.6,5.1L16.1,5.1L16.1,5.6L15.1,5.6L15.1,6.6L14.1,6.6L14.1,7.1L13.6,7.1z" stroke="none"/><path d="M25.5,2.9L25.5,3.1L21,3.1L21,2.9z" stroke="none"/><path d="M18,10.4L18,10.6L17.6,10.6L17.6,11.1L17.1,11.1L17.1,11.6L13.1,11.6L13.1,12.1L11.6,12.1L11.6,12.6L9.6,12.6L9.6,13.1L3.4,13.1L3.4,11.4L3.9,11.4L3.9,10.4L4.4,10.4L4.4,9.9L8.4,9.9L8.4,9.4L10.4,9.4L10.4,9L10.6,9L10.6,9.6L8.6,9.6L8.6,10.1L4.6,10.1L4.6,10.6L4.1,10.6L4.1,11.6L3.6,11.6L3.6,12.9L9.4,12.9L9.4,12.4L11.4,12.4L11.4,11.9L12.9,11.9L12.9,11.4L16.9,11.4L16.9,10.9L17.4,10.9L17.4,10.4z" stroke="none"/><path d="M22.5,7.6L22.5,7.4L23.1,7.4L23.1,8.4L26.1,8.4L26.1,9.4L26.6,9.4L26.6,9.9L27.9,9.9L27.9,5.1L25.4,5.1L25.4,4.6L24.9,4.6L24.9,4.1L24.4,4.1L24.4,3.6L21.6,3.6L21.6,4.1L17.4,4.1L17.4,3.6L15.6,3.6L15.6,4.6L14.6,4.6L14.6,5.1L14.1,5.1L14.1,6.1L13.5,6.1L13.5,5.9L13.9,5.9L13.9,4.9L14.4,4.9L14.4,4.4L15.4,4.4L15.4,3.4L17.6,3.4L17.6,3.9L21.4,3.9L21.4,3.4L24.6,3.4L24.6,3.9L25.1,3.9L25.1,4.4L25.6,4.4L25.6,4.9L28.1,4.9L28.1,10.1L26.4,10.1L26.4,9.6L25.9,9.6L25.9,8.6L22.9,8.6L22.9,7.6z" stroke="none"/><path d="M4.4,4.5L4.6,4.5L4.6,5.1L4.1,5.1L4.1,5.6L2.4,5.6L2.4,5.1L1.9,5.1L1.9,4.6L1.4,4.6L1.4,1.9L1.9,1.9L1.9,1.4L12.6,1.4L12.6,1.9L13.1,1.9L13.1,2.9L13.5,2.9L13.5,3.1L12.9,3.1L12.9,2.1L12.4,2.1L12.4,1.6L2.1,1.6L2.1,2.1L1.6,2.1L1.6,4.4L2.1,4.4L2.1,4.9L2.6,4.9L2.6,5.4L3.9,5.4L3.9,4.9L4.4,4.9z" stroke="none"/><path d="M19.5,2.9L19.5,3.1L14.9,3.1L14.9,2.6L13.9,2.6L13.9,2.1L13.4,2.1L13.4,1.1L1.6,1.1L1.6,1.6L1.1,1.6L1.1,4.9L1.6,4.9L1.6,5.9L5.6,5.9L5.6,6.4L6.1,6.4L6.1,6.9L7.6,6.9L7.6,7.4L10.5,7.4L10.5,7.6L7.4,7.6L7.4,7.1L5.9,7.1L5.9,6.6L5.4,6.6L5.4,6.1L1.4,6.1L1.4,5.1L0.9,5.1L0.9,1.4L1.4,1.4L1.4,0.9L13.6,0.9L13.6,1.9L14.1,1.9L14.1,2.4L15.1,2.4L15.1,2.9z" stroke="none"/></svg>