<svg version="1.1" width="30" height="15" xmlns="http://www.w3.org/2000/svg"><path d="M7.4,3L7.6,3L7.6,4.4L9,4.4L9,4.6L7.6,4.6L7.6,4.9L8.1,4.9L8.1,5.4L8.6,5.4L8.6,5.9L9,5.9L9,6.1L8.4,6.1L8.4,5.6L7.9,5.6L7.9,5.1L7.4,5.1z" stroke="none"/><path d="M15,10.4L15,10.6L13.6,10.6L13.6,10.9L19.1,10.9L19.1,11.9L19.5,11.9L19.5,12.1L18.9,12.1L18.9,11.1L13.4,11.1L13.4,10.6L12.9,10.6L12.9,9.6L9.6,9.6L9.6,10.6L9,10.6L9,10.4L9.4,10.4L9.4,9.4L13.1,9.4L13.1,10.4z" stroke="none"/><path d="M15.4,3.9L15.4,2.4L17.4,2.4L17.4,1.9L18.6,1.9L18.6,2.4L19.1,2.4L19.1,2.9L19.5,2.9L19.5,3.1L18.9,3.1L18.9,2.6L18.4,2.6L18.4,2.1L17.6,2.1L17.6,2.6L15.6,2.6L15.6,3.9L15.9,3.9L15.9,3.4L16.4,3.4L16.4,3L16.6,3L16.6,3.6L16.1,3.6L16.1,4.1L15.6,4.1L15.6,4.6L15.1,4.6L15.1,5.1L14.6,5.1L14.6,5.6L14.1,5.6L14.1,6.4L14.6,6.4L14.6,6.9L16.1,6.9L16.1,7.4L16.5,7.4L16.5,7.6L15.9,7.6L15.9,7.1L14.4,7.1L14.4,6.6L13.9,6.6L13.9,5.4L14.4,5.4L14.4,4.9L14.9,4.9L14.9,4.4L15.4,4.4L15.4,4.1L10.9,4.1L10.9,3.1L10.5,3.1L10.5,2.9L11.1,2.9L11.1,3.9z" stroke="none"/><path d="M17.4,5.9L17.4,5.4L18.9,5.4L18.9,4.9L20.6,4.9L20.6,5.4L21.9,5.4L21.9,4.9L22.4,4.9L22.4,4.5L22.6,4.5L22.6,5.1L22.1,5.1L22.1,5.6L20.4,5.6L20.4,5.1L19.1,5.1L19.1,5.6L17.6,5.6L17.6,5.9L18.6,5.9L18.6,6.4L19.1,6.4L19.1,6.9L19.6,6.9L19.6,7.5L19.4,7.5L19.4,7.1L18.9,7.1L18.9,6.6L18.4,6.6L18.4,6.1L17.6,6.1L17.6,8.6L14.9,8.6L14.9,8.1L13.4,8.1L13.4,7.5L13.6,7.5L13.6,7.9L15.1,7.9L15.1,8.4L17.4,8.4L17.4,6.1L15,6.1L15,5.9z" stroke="none"/><path d="M22.5,11.9L22.5,12.1L21,12.1L21,11.9z" stroke="none"/><path d="M18,11.9L18,12.1L16.5,12.1L16.5,11.9z" stroke="none"/><path d="M27.1,4.5L26.9,4.5L26.9,3L27.1,3z" stroke="none"/><path d="M4.5,7.4L4.5,7.6L3,7.6L3,7.4z" stroke="none"/><path d="M6,8.9L6,9.1L3,9.1L3,8.9z" stroke="none"/><path d="M10.5,11.9L10.5,12.1L8.9,12.1L8.9,11.6L8.4,11.6L8.4,11.1L7.9,11.1L7.9,9.9L8.4,9.9L8.4,8.9L9,8.9L9,9.1L8.6,9.1L8.6,10.1L8.1,10.1L8.1,10.9L8.6,10.9L8.6,11.4L9.1,11.4L9.1,11.9z" stroke="none"/><path d="M27,8.9L27,9.1L26.4,9.1L26.4,8.6L23.9,8.6L23.9,7.5L24.1,7.5L24.1,8.4L26.6,8.4L26.6,8.9z" stroke="none"/><path d="M19.5,6.1L19.5,5.9L22.9,5.9L22.9,5.4L23.4,5.4L23.4,3.1L22.5,3.1L22.5,2.9L23.6,2.9L23.6,5.6L23.1,5.6L23.1,6.1z" stroke="none"/><path d="M18,8.9L18,9.1L13.5,9.1L13.5,8.9z" stroke="none"/><path d="M21.1,4.5L20.9,4.5L20.9,2.4L21.4,2.4L21.4,1.9L24.1,1.9L24.1,4.9L24.6,4.9L24.6,5.4L25.1,5.4L25.1,5.9L25.6,5.9L25.6,7.5L25.4,7.5L25.4,6.1L24.9,6.1L24.9,5.6L24.4,5.6L24.4,5.1L23.9,5.1L23.9,2.1L21.6,2.1L21.6,2.6L21.1,2.6z" stroke="none"/><path d="M19.4,9L19.6,9L19.6,9.4L22.1,9.4L22.1,9.9L22.6,9.9L22.6,10.9L23.1,10.9L23.1,11.4L24.1,11.4L24.1,12L23.9,12L23.9,11.6L22.9,11.6L22.9,11.1L22.4,11.1L22.4,10.1L21.9,10.1L21.9,9.6L19.4,9.6z" stroke="none"/><path d="M3,10.6L3,10.4L6.4,10.4L6.4,9.4L6.9,9.4L6.9,6.6L5.9,6.6L5.9,6L6.1,6L6.1,6.4L7.1,6.4L7.1,9.6L6.6,9.6L6.6,10.6z" stroke="none"/><path d="M11.9,10.5L12.1,10.5L12.1,13.1L8.9,13.1L8.9,12.6L8.4,12.6L8.4,12.1L7.9,12.1L7.9,11.6L7.4,11.6L7.4,6L7.6,6L7.6,11.4L8.1,11.4L8.1,11.9L8.6,11.9L8.6,12.4L9.1,12.4L9.1,12.9L11.9,12.9z" stroke="none"/><path d="M12,5.9L12,6.1L10.9,6.1L10.9,5.1L10.4,5.1L10.4,4.1L9.4,4.1L9.4,2.4L9.9,2.4L9.9,1.9L16.4,1.9L16.4,1.4L20.1,1.4L20.1,1.9L20.6,1.9L20.6,3.6L20.1,3.6L20.1,4.1L18.4,4.1L18.4,3.6L17.9,3.6L17.9,3L18.1,3L18.1,3.4L18.6,3.4L18.6,3.9L19.9,3.9L19.9,3.4L20.4,3.4L20.4,2.1L19.9,2.1L19.9,1.6L16.6,1.6L16.6,2.1L10.1,2.1L10.1,2.6L9.6,2.6L9.6,3.9L10.6,3.9L10.6,4.9L11.1,4.9L11.1,5.9z" stroke="none"/><path d="M13.4,12L13.6,12L13.6,12.6L13.1,12.6L13.1,13.6L6.4,13.6L6.4,12.1L6,12.1L6,11.9L6.6,11.9L6.6,13.4L12.9,13.4L12.9,12.4L13.4,12.4z" stroke="none"/><path d="M14.9,12L15.1,12L15.1,12.4L15.6,12.4L15.6,12.9L24.9,12.9L24.9,10.6L24.4,10.6L24.4,9.6L22.4,9.6L22.4,9L22.6,9L22.6,9.4L24.6,9.4L24.6,10.4L25.1,10.4L25.1,13.1L15.4,13.1L15.4,12.6L14.9,12.6z" stroke="none"/></svg>