<svg version="1.1" width="30" height="15" xmlns="http://www.w3.org/2000/svg"><path d="M13.9,11.4L13.9,11.1L13.4,11.1L13.4,10.6L12.9,10.6L12.9,10.1L12.4,10.1L12.4,9.6L11.9,9.6L11.9,9.1L10.5,9.1L10.5,8.9L12.1,8.9L12.1,9.4L12.6,9.4L12.6,9.9L13.1,9.9L13.1,10.4L13.6,10.4L13.6,10.9L14.1,10.9L14.1,11.4L15.9,11.4L15.9,10.9L19.6,10.9L19.6,11.9L22.5,11.9L22.5,12.1L19.4,12.1L19.4,11.1L16.1,11.1L16.1,11.6L12.1,11.6L12.1,12L11.9,12L11.9,11.4z" stroke="none"/><path d="M27.9,5.4L27.9,4.1L27.4,4.1L27.4,3.1L27,3.1L27,2.9L27.6,2.9L27.6,3.9L28.1,3.9L28.1,5.4L28.4,5.4L28.4,3.1L27.9,3.1L27.9,2.6L25.6,2.6L25.6,3L25.4,3L25.4,2.4L28.1,2.4L28.1,2.9L28.6,2.9L28.6,5.6L27.6,5.6L27.6,6.1L27.1,6.1L27.1,7.5L26.9,7.5L26.9,5.9L27.4,5.9L27.4,5.4z" stroke="none"/><path d="M18.9,3.4L18.9,2.9L22.5,2.9L22.5,3.1L19.1,3.1L19.1,3.4L20.6,3.4L20.6,3.9L21.1,3.9L21.1,6L20.9,6L20.9,4.1L20.4,4.1L20.4,3.6L19.1,3.6L19.1,4.1L18.1,4.1L18.1,4.5L17.9,4.5L17.9,3.9L18.9,3.9L18.9,3.6L14.1,3.6L14.1,4.1L12.6,4.1L12.6,4.6L12,4.6L12,4.4L12.4,4.4L12.4,3.9L13.9,3.9L13.9,3.4z" stroke="none"/><path d="M22.4,8.4L22.4,7.4L22.9,7.4L22.9,6.4L23.9,6.4L23.9,5.9L25.5,5.9L25.5,6.1L24.1,6.1L24.1,6.6L23.1,6.6L23.1,7.6L22.6,7.6L22.6,8.4L22.9,8.4L22.9,7.9L23.4,7.9L23.4,7.4L24,7.4L24,7.6L23.6,7.6L23.6,8.1L23.1,8.1L23.1,8.6L22.6,8.6L22.6,8.9L23.6,8.9L23.6,9.4L24.1,9.4L24.1,10.5L23.9,10.5L23.9,9.6L23.4,9.6L23.4,9.1L22.4,9.1L22.4,8.6L22.1,8.6L22.1,9.6L21.6,9.6L21.6,10.1L16.1,10.1L16.1,10.6L15,10.6L15,10.4L15.9,10.4L15.9,9.9L21.4,9.9L21.4,9.4L21.9,9.4L21.9,8.4z" stroke="none"/><path d="M25.5,4.6L25.5,4.4L27,4.4L27,4.6z" stroke="none"/><path d="M6,9.1L6,8.9L7.5,8.9L7.5,9.1z" stroke="none"/><path d="M4.6,7.5L4.4,7.5L4.4,6.6L3.9,6.6L3.9,6.1L3,6.1L3,5.9L4.1,5.9L4.1,6.4L4.6,6.4z" stroke="none"/><path d="M10.4,3L10.6,3L10.6,4.1L10.1,4.1L10.1,4.6L9,4.6L9,4.4L9.9,4.4L9.9,3.9L10.4,3.9z" stroke="none"/><path d="M6,3.1L6,2.9L9,2.9L9,3.1z" stroke="none"/><path d="M6.1,6L5.9,6L5.9,5.6L3.4,5.6L3.4,5.1L2.6,5.1L2.6,5.6L2.1,5.6L2.1,6.9L3.1,6.9L3.1,7.5L2.9,7.5L2.9,7.1L1.9,7.1L1.9,5.4L2.4,5.4L2.4,4.9L3.6,4.9L3.6,5.4L6.1,5.4z" stroke="none"/><path d="M4.5,4.6L4.5,4.4L6.6,4.4L6.6,4.9L7.6,4.9L7.6,6L7.4,6L7.4,5.1L6.4,5.1L6.4,4.6z" stroke="none"/><path d="M19.4,6L19.6,6L19.6,7.4L20.6,7.4L20.6,7.9L21.1,7.9L21.1,9L20.9,9L20.9,8.1L20.4,8.1L20.4,7.6L19.4,7.6z" stroke="none"/><path d="M9.1,12L8.9,12L8.9,9.4L9.4,9.4L9.4,8.4L9.9,8.4L9.9,7.9L11.4,7.9L11.4,7.4L12,7.4L12,7.6L11.6,7.6L11.6,8.1L10.1,8.1L10.1,8.6L9.6,8.6L9.6,9.6L9.1,9.6z" stroke="none"/><path d="M4.5,9.1L4.5,8.9L4.9,8.9L4.9,8.4L5.4,8.4L5.4,7.9L6.4,7.9L6.4,7.4L6.9,7.4L6.9,6.9L8.9,6.9L8.9,6L9.1,6L9.1,7.1L7.1,7.1L7.1,7.6L6.6,7.6L6.6,8.1L5.6,8.1L5.6,8.6L5.1,8.6L5.1,9.1z" stroke="none"/><path d="M22.4,10.5L22.6,10.5L22.6,10.9L23.1,10.9L23.1,11.4L23.6,11.4L23.6,12.6L23.1,12.6L23.1,13.1L17.9,13.1L17.9,12.1L16.5,12.1L16.5,11.9L18.1,11.9L18.1,12.9L22.9,12.9L22.9,12.4L23.4,12.4L23.4,11.6L22.9,11.6L22.9,11.1L22.4,11.1z" stroke="none"/><path d="M14.9,6L15.1,6L15.1,6.6L14.6,6.6L14.6,7.1L12.9,7.1L12.9,6.6L11.1,6.6L11.1,7.1L10.1,7.1L10.1,7.6L9.6,7.6L9.6,8.1L9.1,8.1L9.1,8.6L8.6,8.6L8.6,11.1L8.1,11.1L8.1,12.9L9.4,12.9L9.4,12.4L9.9,12.4L9.9,11.4L10.4,11.4L10.4,10.5L10.6,10.5L10.6,11.6L10.1,11.6L10.1,12.6L9.6,12.6L9.6,13.1L7.9,13.1L7.9,10.9L8.4,10.9L8.4,8.4L8.9,8.4L8.9,7.9L9.4,7.9L9.4,7.4L9.9,7.4L9.9,6.9L10.9,6.9L10.9,6.4L13.1,6.4L13.1,6.9L14.4,6.9L14.4,6.4L14.9,6.4z" stroke="none"/><path d="M13.5,6.1L13.5,5.9L13.9,5.9L13.9,4.9L16.6,4.9L16.6,6.9L17.6,6.9L17.6,7.4L18.1,7.4L18.1,7.9L19.1,7.9L19.1,8.4L19.6,8.4L19.6,9L19.4,9L19.4,8.6L18.9,8.6L18.9,8.1L17.9,8.1L17.9,7.6L17.4,7.6L17.4,7.1L16.4,7.1L16.4,5.1L14.1,5.1L14.1,6.1z" stroke="none"/><path d="M10.5,6.1L10.5,5.9L12.4,5.9L12.4,5.4L12.9,5.4L12.9,4.9L13.4,4.9L13.4,4.4L17.1,4.4L17.1,5.9L18,5.9L18,6.1L16.9,6.1L16.9,4.6L13.6,4.6L13.6,5.1L13.1,5.1L13.1,5.6L12.6,5.6L12.6,6.1z" stroke="none"/><path d="M12,10.4L12,10.6L11.6,10.6L11.6,11.6L11.1,11.6L11.1,12.6L10.6,12.6L10.6,13.1L10.1,13.1L10.1,13.6L6.4,13.6L6.4,12.6L4.4,12.6L4.4,12L4.6,12L4.6,12.4L6.6,12.4L6.6,13.4L9.9,13.4L9.9,12.9L10.4,12.9L10.4,12.4L10.9,12.4L10.9,11.4L11.4,11.4L11.4,10.4z" stroke="none"/><path d="M13.5,3.1L13.5,2.9L17.9,2.9L17.9,2.4L21.9,2.4L21.9,1.9L24.1,1.9L24.1,3L23.9,3L23.9,2.1L22.1,2.1L22.1,2.6L18.1,2.6L18.1,3.1z" stroke="none"/></svg>