<svg version="1.1" width="30" height="15" xmlns="http://www.w3.org/2000/svg"><path d="M7.9,5.1L6.9,5.1L6.9,4.6L6,4.6L6,4.4L7.1,4.4L7.1,4.9L8.1,4.9L8.1,5.4L8.4,5.4L8.4,4.9L8.9,4.9L8.9,4.5L9.1,4.5L9.1,5.1L8.6,5.1L8.6,5.6L8.1,5.6L8.1,5.9L9.1,5.9L9.1,6.4L9.6,6.4L9.6,6.9L10.6,6.9L10.6,7.5L10.4,7.5L10.4,7.1L9.4,7.1L9.4,6.6L8.9,6.6L8.9,6.1L7.9,6.1z" stroke="none"/><path d="M25.4,6.9L26.4,6.9L26.4,5.9L27,5.9L27,6.1L26.6,6.1L26.6,7.1L25.6,7.1L25.6,7.4L27,7.4L27,7.6L25.6,7.6L25.6,9L25.4,9z" stroke="none"/><path d="M12.9,4.9L12.9,4.4L14.6,4.4L14.6,4.9L16.1,4.9L16.1,5.4L16.6,5.4L16.6,5.9L17.1,5.9L17.1,6.4L17.6,6.4L17.6,7.4L18,7.4L18,7.6L17.4,7.6L17.4,6.6L16.9,6.6L16.9,6.1L16.4,6.1L16.4,5.6L15.9,5.6L15.9,5.1L14.4,5.1L14.4,4.6L13.1,4.6L13.1,4.9L13.6,4.9L13.6,7.1L13.1,7.1L13.1,8.1L12.1,8.1L12.1,9.6L11.6,9.6L11.6,10.1L9.4,10.1L9.4,8.1L8.9,8.1L8.9,7.5L9.1,7.5L9.1,7.9L9.6,7.9L9.6,9.9L11.4,9.9L11.4,9.4L11.9,9.4L11.9,7.9L12.9,7.9L12.9,6.9L13.4,6.9L13.4,5.1L13.1,5.1L13.1,5.6L12.1,5.6L12.1,6L11.9,6L11.9,5.4L12.9,5.4L12.9,5.1L10.9,5.1L10.9,4.1L10.4,4.1L10.4,3L10.6,3L10.6,3.9L11.1,3.9L11.1,4.9z" stroke="none"/><path d="M10.9,11.4L10.9,11.1L7.4,11.1L7.4,10.6L6,10.6L6,10.4L7.6,10.4L7.6,10.9L11.1,10.9L11.1,11.4L13.6,11.4L13.6,12L13.4,12L13.4,11.6L11.1,11.6L11.1,11.9L13.1,11.9L13.1,12.4L15.4,12.4L15.4,11.9L16.5,11.9L16.5,12.1L15.6,12.1L15.6,12.6L12.9,12.6L12.9,12.1L10.9,12.1L10.9,11.6L9.1,11.6L9.1,12L8.9,12L8.9,11.4z" stroke="none"/><path d="M27,2.9L27,3.1L25.5,3.1L25.5,2.9z" stroke="none"/><path d="M3,12.1L3,11.9L4.5,11.9L4.5,12.1z" stroke="none"/><path d="M27,10.4L27,10.6L26.1,10.6L26.1,11.6L25.6,11.6L25.6,12L25.4,12L25.4,11.4L25.9,11.4L25.9,10.4z" stroke="none"/><path d="M6,2.9L6,3.1L5.1,3.1L5.1,4.1L4.6,4.1L4.6,4.5L4.4,4.5L4.4,3.9L4.9,3.9L4.9,2.9z" stroke="none"/><path d="M19.4,6L19.6,6L19.6,9L19.4,9z" stroke="none"/><path d="M3,6.1L3,5.9L4.1,5.9L4.1,8.1L3.6,8.1L3.6,8.6L3.1,8.6L3.1,9L2.9,9L2.9,8.4L3.4,8.4L3.4,7.9L3.9,7.9L3.9,6.1z" stroke="none"/><path d="M3,10.6L3,10.4L4.6,10.4L4.6,10.9L5.1,10.9L5.1,11.4L5.6,11.4L5.6,11.9L6,11.9L6,12.1L5.4,12.1L5.4,11.6L4.9,11.6L4.9,11.1L4.4,11.1L4.4,10.6z" stroke="none"/><path d="M24,4.6L24,4.4L27.1,4.4L27.1,4.9L28.1,4.9L28.1,8.1L27.6,8.1L27.6,8.6L27.1,8.6L27.1,9L26.9,9L26.9,8.4L27.4,8.4L27.4,7.9L27.9,7.9L27.9,5.1L26.9,5.1L26.9,4.6z" stroke="none"/><path d="M19.5,4.4L19.5,4.6L19.1,4.6L19.1,5.1L18.6,5.1L18.6,6.4L19.1,6.4L19.1,8.1L18.6,8.1L18.6,8.6L17.6,8.6L17.6,9.1L16.5,9.1L16.5,8.9L17.4,8.9L17.4,8.4L18.4,8.4L18.4,7.9L18.9,7.9L18.9,6.6L18.4,6.6L18.4,4.9L18.9,4.9L18.9,4.4z" stroke="none"/><path d="M18,10.4L18,10.6L12,10.6L12,10.4z" stroke="none"/><path d="M7.5,7.4L7.5,7.6L5.4,7.6L5.4,7.1L4.9,7.1L4.9,6.6L4.4,6.6L4.4,5.6L3.9,5.6L3.9,5.1L3.4,5.1L3.4,3.1L3,3.1L3,2.9L3.6,2.9L3.6,4.9L4.1,4.9L4.1,5.4L4.6,5.4L4.6,6.4L5.1,6.4L5.1,6.9L5.6,6.9L5.6,7.4z" stroke="none"/><path d="M7.6,3L7.4,3L7.4,2.1L2.6,2.1L2.6,2.6L2.1,2.6L2.1,6.9L3.1,6.9L3.1,7.5L2.9,7.5L2.9,7.1L1.9,7.1L1.9,2.4L2.4,2.4L2.4,1.9L7.6,1.9z" stroke="none"/><path d="M18,3.1L18,2.9L20.6,2.9L20.6,3.9L21.1,3.9L21.1,4.4L21.6,4.4L21.6,4.9L22.1,4.9L22.1,5.4L25.1,5.4L25.1,5.9L25.5,5.9L25.5,6.1L24.9,6.1L24.9,5.6L21.9,5.6L21.9,5.1L21.4,5.1L21.4,4.6L20.9,4.6L20.9,4.1L20.4,4.1L20.4,3.1z" stroke="none"/><path d="M18,12.1L18,11.9L24.6,11.9L24.6,12.4L25.1,12.4L25.1,12.9L25.9,12.9L25.9,12.4L26.9,12.4L26.9,12L27.1,12L27.1,12.6L26.1,12.6L26.1,13.1L24.9,13.1L24.9,12.6L24.4,12.6L24.4,12.1z" stroke="none"/><path d="M13.5,9.1L13.5,8.9L15.1,8.9L15.1,9.9L17.4,9.9L17.4,9.4L19.1,9.4L19.1,9.9L22.9,9.9L22.9,8.9L24,8.9L24,9.1L23.1,9.1L23.1,10.1L18.9,10.1L18.9,9.6L17.6,9.6L17.6,10.1L14.9,10.1L14.9,9.1z" stroke="none"/><path d="M10.5,9.1L10.5,8.9L10.9,8.9L10.9,7.9L11.4,7.9L11.4,6.6L10.9,6.6L10.9,5.6L10.4,5.6L10.4,4.6L9.9,4.6L9.9,3.6L9.4,3.6L9.4,2.4L9.9,2.4L9.9,1.9L21.1,1.9L21.1,2.4L21.6,2.4L21.6,3.4L22.1,3.4L22.1,4.4L22.5,4.4L22.5,4.6L21.9,4.6L21.9,3.6L21.4,3.6L21.4,2.6L20.9,2.6L20.9,2.1L10.1,2.1L10.1,2.6L9.6,2.6L9.6,3.4L10.1,3.4L10.1,4.4L10.6,4.4L10.6,5.4L11.1,5.4L11.1,6.4L11.6,6.4L11.6,8.1L11.1,8.1L11.1,9.1z" stroke="none"/></svg>