<svg version="1.1" width="30" height="15" xmlns="http://www.w3.org/2000/svg"><path d="M12.1,4.4L12.1,4.9L13.1,4.9L13.1,5.9L13.5,5.9L13.5,6.1L12.9,6.1L12.9,5.1L11.9,5.1L11.9,4.6L9.1,4.6L9.1,5.1L8.6,5.1L8.6,5.6L8.1,5.6L8.1,6.6L7.6,6.6L7.6,7.6L6,7.6L6,7.4L7.4,7.4L7.4,6.4L7.9,6.4L7.9,5.4L8.4,5.4L8.4,4.9L8.9,4.9L8.9,4.6L8.4,4.6L8.4,3.6L7.4,3.6L7.4,3L7.6,3L7.6,3.4L8.6,3.4L8.6,4.4z" stroke="none"/><path d="M21.9,5.4L21.9,4.9L24.9,4.9L24.9,4.4L25.4,4.4L25.4,2.9L27,2.9L27,3.1L25.6,3.1L25.6,4.6L25.1,4.6L25.1,5.1L22.1,5.1L22.1,5.6L20.6,5.6L20.6,7.1L20.1,7.1L20.1,8.1L15.4,8.1L15.4,6.6L14.9,6.6L14.9,6L15.1,6L15.1,6.4L15.6,6.4L15.6,7.9L19.9,7.9L19.9,6.9L20.4,6.9L20.4,5.6L20.1,5.6L20.1,6.1L19.6,6.1L19.6,7.5L19.4,7.5L19.4,5.9L19.9,5.9L19.9,5.4z" stroke="none"/><path d="M9.4,10.4L9.4,9.4L10.4,9.4L10.4,9L10.6,9L10.6,9.6L9.6,9.6L9.6,10.4L11.1,10.4L11.1,10.9L11.6,10.9L11.6,11.4L13.6,11.4L13.6,12L13.4,12L13.4,11.6L11.4,11.6L11.4,11.1L10.9,11.1L10.9,10.6L9.6,10.6L9.6,11.6L9.1,11.6L9.1,12L8.9,12L8.9,11.4L9.4,11.4L9.4,10.6L7.9,10.6L7.9,10.1L6.4,10.1L6.4,9.1L6,9.1L6,8.9L6.6,8.9L6.6,9.9L8.1,9.9L8.1,10.4z" stroke="none"/><path d="M13.9,7.4L13.9,7.1L10.9,7.1L10.9,6.6L10.4,6.6L10.4,6L10.6,6L10.6,6.4L11.1,6.4L11.1,6.9L14.1,6.9L14.1,7.4L15.1,7.4L15.1,8.4L20.4,8.4L20.4,7.9L21.4,7.9L21.4,6.9L21.9,6.9L21.9,6.4L22.4,6.4L22.4,6L22.6,6L22.6,6.6L22.1,6.6L22.1,7.1L21.6,7.1L21.6,8.1L20.6,8.1L20.6,8.6L14.9,8.6L14.9,7.6L14.1,7.6L14.1,8.1L13.1,8.1L13.1,8.6L12.6,8.6L12.6,9.1L12,9.1L12,8.9L12.4,8.9L12.4,8.4L12.9,8.4L12.9,7.9L13.9,7.9L13.9,7.6L12,7.6L12,7.4z" stroke="none"/><path d="M4.6,12L4.4,12L4.4,10.5L4.6,10.5z" stroke="none"/><path d="M6,2.9L6,3.1L4.5,3.1L4.5,2.9z" stroke="none"/><path d="M9.1,9L8.9,9L8.9,7.5L9.1,7.5z" stroke="none"/><path d="M13.5,10.4L13.5,10.6L12,10.6L12,10.4z" stroke="none"/><path d="M27,11.9L27,12.1L24.9,12.1L24.9,11.1L23.9,11.1L23.9,10.5L24.1,10.5L24.1,10.9L25.1,10.9L25.1,11.9z" stroke="none"/><path d="M15,12.1L15,11.9L17.9,11.9L17.9,10.5L18.1,10.5L18.1,12.1z" stroke="none"/><path d="M8.9,6L9.1,6L9.1,6.6L8.6,6.6L8.6,7.1L8.1,7.1L8.1,8.6L7.6,8.6L7.6,9L7.4,9L7.4,8.4L7.9,8.4L7.9,6.9L8.4,6.9L8.4,6.4L8.9,6.4z" stroke="none"/><path d="M24,11.9L24,12.1L22.9,12.1L22.9,9.9L23.4,9.9L23.4,9.4L24.9,9.4L24.9,8.9L25.5,8.9L25.5,9.1L25.1,9.1L25.1,9.6L23.6,9.6L23.6,10.1L23.1,10.1L23.1,11.9z" stroke="none"/><path d="M19.5,10.6L19.5,10.4L20.4,10.4L20.4,9.9L21.4,9.9L21.4,9.4L21.9,9.4L21.9,7.4L22.5,7.4L22.5,7.6L22.1,7.6L22.1,9.6L21.6,9.6L21.6,10.1L20.6,10.1L20.6,10.6z" stroke="none"/><path d="M3,9.1L3,8.9L4.6,8.9L4.6,9.4L5.1,9.4L5.1,9.9L5.6,9.9L5.6,11.4L6.1,11.4L6.1,12L5.9,12L5.9,11.6L5.4,11.6L5.4,10.1L4.9,10.1L4.9,9.6L4.4,9.6L4.4,9.1z" stroke="none"/><path d="M3,10.4L3,10.6L1.9,10.6L1.9,6.9L2.4,6.9L2.4,6.4L3.9,6.4L3.9,5.9L4.5,5.9L4.5,6.1L4.1,6.1L4.1,6.6L2.6,6.6L2.6,7.1L2.1,7.1L2.1,10.4z" stroke="none"/><path d="M16.5,10.6L16.5,10.4L16.9,10.4L16.9,9.9L17.4,9.9L17.4,9.4L20.4,9.4L20.4,8.9L21,8.9L21,9.1L20.6,9.1L20.6,9.6L17.6,9.6L17.6,10.1L17.1,10.1L17.1,10.6z" stroke="none"/><path d="M7.4,12L7.6,12L7.6,13.1L3.9,13.1L3.9,12.6L3.4,12.6L3.4,11.6L1.4,11.6L1.4,5.9L2.9,5.9L2.9,5.4L3.9,5.4L3.9,4.9L5.1,4.9L5.1,5.4L5.6,5.4L5.6,6.6L5.1,6.6L5.1,7.1L3.6,7.1L3.6,7.6L3,7.6L3,7.4L3.4,7.4L3.4,6.9L4.9,6.9L4.9,6.4L5.4,6.4L5.4,5.6L4.9,5.6L4.9,5.1L4.1,5.1L4.1,5.6L3.1,5.6L3.1,6.1L1.6,6.1L1.6,11.4L3.6,11.4L3.6,12.4L4.1,12.4L4.1,12.9L7.4,12.9z" stroke="none"/><path d="M19.5,3.1L19.5,2.9L24.9,2.9L24.9,2.4L26.4,2.4L26.4,1.9L27.6,1.9L27.6,2.4L28.1,2.4L28.1,4.1L27.1,4.1L27.1,4.5L26.9,4.5L26.9,3.9L27.9,3.9L27.9,2.6L27.4,2.6L27.4,2.1L26.6,2.1L26.6,2.6L25.1,2.6L25.1,3.1z" stroke="none"/><path d="M10.5,3.1L10.5,2.9L18.6,2.9L18.6,3.9L19.1,3.9L19.1,4.4L19.5,4.4L19.5,4.6L18.9,4.6L18.9,4.1L18.4,4.1L18.4,3.1z" stroke="none"/><path d="M13.5,4.4L13.5,4.6L12.4,4.6L12.4,4.1L9.9,4.1L9.9,3.6L9.4,3.6L9.4,1.9L25.9,1.9L25.9,1.4L28.6,1.4L28.6,5.6L25.6,5.6L25.6,6.1L24.6,6.1L24.6,7.6L24,7.6L24,7.4L24.4,7.4L24.4,5.9L25.4,5.9L25.4,5.4L28.4,5.4L28.4,1.6L26.1,1.6L26.1,2.1L9.6,2.1L9.6,3.4L10.1,3.4L10.1,3.9L12.6,3.9L12.6,4.4z" stroke="none"/></svg>