<svg version="1.1" width="30" height="15" xmlns="http://www.w3.org/2000/svg"><path d="M6.4,8.9L6.4,8.4L6.9,8.4L6.9,7.9L7.4,7.9L7.4,7.4L9,7.4L9,7.6L7.6,7.6L7.6,8.1L7.1,8.1L7.1,8.6L6.6,8.6L6.6,10.1L6.1,10.1L6.1,10.5L5.9,10.5L5.9,9.9L6.4,9.9L6.4,9.1L4.5,9.1L4.5,8.9z" stroke="none"/><path d="M23.1,9.4L23.1,9.9L24.1,9.9L24.1,10.5L23.9,10.5L23.9,10.1L22.9,10.1L22.9,9.6L22.1,9.6L22.1,11.4L22.6,11.4L22.6,12L22.4,12L22.4,11.6L21.9,11.6L21.9,9.6L20.1,9.6L20.1,10.1L17.4,10.1L17.4,9.6L16.4,9.6L16.4,9L16.6,9L16.6,9.4L17.6,9.4L17.6,9.9L19.9,9.9L19.9,9.4z" stroke="none"/><path d="M20.9,4.9L20.9,3L21.1,3L21.1,4.9L21.4,4.9L21.4,3.4L22.4,3.4L22.4,3L22.6,3L22.6,3.6L21.6,3.6L21.6,5.1L21.1,5.1L21.1,5.4L21.6,5.4L21.6,5.9L23.1,5.9L23.1,6.4L24.6,6.4L24.6,6.9L25.1,6.9L25.1,7.4L25.5,7.4L25.5,7.6L24.9,7.6L24.9,7.1L24.4,7.1L24.4,6.6L22.9,6.6L22.9,6.1L21.4,6.1L21.4,5.6L20.9,5.6L20.9,5.1L20.1,5.1L20.1,5.6L17.6,5.6L17.6,6.1L14.6,6.1L14.6,6.6L13.6,6.6L13.6,7.5L13.4,7.5L13.4,6.4L14.4,6.4L14.4,5.9L17.4,5.9L17.4,5.4L19.9,5.4L19.9,4.9z" stroke="none"/><path d="M10.4,3.9L10.4,3.4L11.9,3.4L11.9,2.9L12.4,2.9L12.4,1.9L14.1,1.9L14.1,2.4L15.1,2.4L15.1,3L14.9,3L14.9,2.6L13.9,2.6L13.9,2.1L12.6,2.1L12.6,3.1L12.1,3.1L12.1,3.6L10.6,3.6L10.6,3.9L13.1,3.9L13.1,4.4L13.5,4.4L13.5,4.6L12.9,4.6L12.9,4.1L10.6,4.1L10.6,4.6L10.1,4.6L10.1,5.6L8.6,5.6L8.6,6.1L7.5,6.1L7.5,5.9L8.4,5.9L8.4,5.4L9.9,5.4L9.9,4.4L10.4,4.4L10.4,4.1L9.4,4.1L9.4,3.6L7.4,3.6L7.4,3L7.6,3L7.6,3.4L9.6,3.4L9.6,3.9z" stroke="none"/><path d="M19.6,4.5L19.4,4.5L19.4,3L19.6,3z" stroke="none"/><path d="M24,4.4L24,4.6L22.5,4.6L22.5,4.4z" stroke="none"/><path d="M6.1,6L5.9,6L5.9,4.5L6.1,4.5z" stroke="none"/><path d="M21,10.4L21,10.6L20.6,10.6L20.6,11.6L20.1,11.6L20.1,12.1L19.5,12.1L19.5,11.9L19.9,11.9L19.9,11.4L20.4,11.4L20.4,10.4z" stroke="none"/><path d="M13.4,9L13.6,9L13.6,12L13.4,12z" stroke="none"/><path d="M25.4,9L25.6,9L25.6,12.1L24,12.1L24,11.9L25.4,11.9z" stroke="none"/><path d="M3.1,7.5L2.9,7.5L2.9,5.9L3.4,5.9L3.4,4.9L3.9,4.9L3.9,4.4L4.5,4.4L4.5,4.6L4.1,4.6L4.1,5.1L3.6,5.1L3.6,6.1L3.1,6.1z" stroke="none"/><path d="M9,4.4L9,4.6L7.9,4.6L7.9,4.1L6.4,4.1L6.4,3.6L5.4,3.6L5.4,3.1L4.5,3.1L4.5,2.9L5.6,2.9L5.6,3.4L6.6,3.4L6.6,3.9L8.1,3.9L8.1,4.4z" stroke="none"/><path d="M19.5,9.1L19.5,8.9L21.4,8.9L21.4,8.4L23.4,8.4L23.4,7.9L23.9,7.9L23.9,7.5L24.1,7.5L24.1,8.1L23.6,8.1L23.6,8.6L21.6,8.6L21.6,9.1z" stroke="none"/><path d="M9.1,12L8.9,12L8.9,9.9L9.4,9.9L9.4,9.4L9.9,9.4L9.9,8.9L11.4,8.9L11.4,7.1L10.9,7.1L10.9,6.6L8.1,6.6L8.1,7.1L6.1,7.1L6.1,7.5L5.9,7.5L5.9,6.9L7.9,6.9L7.9,6.4L11.1,6.4L11.1,6.9L11.6,6.9L11.6,9.1L10.1,9.1L10.1,9.6L9.6,9.6L9.6,10.1L9.1,10.1z" stroke="none"/><path d="M4.5,12.1L4.5,11.9L7.4,11.9L7.4,9.4L8.9,9.4L8.9,8.9L9.4,8.9L9.4,7.9L10.4,7.9L10.4,7.5L10.6,7.5L10.6,8.1L9.6,8.1L9.6,9.1L9.1,9.1L9.1,9.6L7.6,9.6L7.6,12.1z" stroke="none"/><path d="M25.6,6L25.4,6L25.4,2.6L22.9,2.6L22.9,2.1L19.1,2.1L19.1,2.6L18.1,2.6L18.1,3L17.9,3L17.9,2.4L18.9,2.4L18.9,1.9L23.1,1.9L23.1,2.4L25.6,2.4z" stroke="none"/><path d="M11.9,12L12.1,12L12.1,12.6L11.1,12.6L11.1,13.1L3.4,13.1L3.4,8.4L3.9,8.4L3.9,7.9L4.4,7.9L4.4,7.5L4.6,7.5L4.6,8.1L4.1,8.1L4.1,8.6L3.6,8.6L3.6,12.9L10.9,12.9L10.9,12.4L11.9,12.4z" stroke="none"/><path d="M26.9,10.5L27.1,10.5L27.1,12.1L26.6,12.1L26.6,12.6L25.6,12.6L25.6,13.1L18.4,13.1L18.4,12.6L17.9,12.6L17.9,10.6L15.9,10.6L15.9,9.6L15.4,9.6L15.4,7.9L17.6,7.9L17.6,8.4L18.1,8.4L18.1,9L17.9,9L17.9,8.6L17.4,8.6L17.4,8.1L15.6,8.1L15.6,9.4L16.1,9.4L16.1,10.4L18.1,10.4L18.1,12.4L18.6,12.4L18.6,12.9L25.4,12.9L25.4,12.4L26.4,12.4L26.4,11.9L26.9,11.9z" stroke="none"/><path d="M18,7.4L18,7.6L15.1,7.6L15.1,10.4L15.6,10.4L15.6,10.9L16.1,10.9L16.1,12.4L17.6,12.4L17.6,13.4L27.4,13.4L27.4,10.9L27.9,10.9L27.9,4.6L27,4.6L27,4.4L28.1,4.4L28.1,11.1L27.6,11.1L27.6,13.6L17.4,13.6L17.4,12.6L15.9,12.6L15.9,11.1L15.4,11.1L15.4,10.6L14.9,10.6L14.9,7.4z" stroke="none"/><path d="M13.5,3.1L13.5,2.9L14.1,2.9L14.1,3.4L14.6,3.4L14.6,3.9L15.4,3.9L15.4,3.4L15.9,3.4L15.9,2.1L14.4,2.1L14.4,1.6L5.1,1.6L5.1,2.1L3.6,2.1L3.6,2.6L2.6,2.6L2.6,7.1L2.1,7.1L2.1,12.4L2.6,12.4L2.6,12.9L3.1,12.9L3.1,13.4L13.9,13.4L13.9,12.4L14.4,12.4L14.4,6.9L17.4,6.9L17.4,6.4L21.1,6.4L21.1,6.9L22.1,6.9L22.1,7.4L22.5,7.4L22.5,7.6L21.9,7.6L21.9,7.1L20.9,7.1L20.9,6.6L17.6,6.6L17.6,7.1L14.6,7.1L14.6,12.6L14.1,12.6L14.1,13.6L2.9,13.6L2.9,13.1L2.4,13.1L2.4,12.6L1.9,12.6L1.9,6.9L2.4,6.9L2.4,2.4L3.4,2.4L3.4,1.9L4.9,1.9L4.9,1.4L14.6,1.4L14.6,1.9L16.1,1.9L16.1,3.6L15.6,3.6L15.6,4.1L14.4,4.1L14.4,3.6L13.9,3.6L13.9,3.1z" stroke="none"/></svg>