<svg version="1.1" width="30" height="15" xmlns="http://www.w3.org/2000/svg"><path d="M17.6,6.4L17.6,6.9L19.9,6.9L19.9,6.4L20.9,6.4L20.9,5.4L21.9,5.4L21.9,4.9L22.4,4.9L22.4,4.5L22.6,4.5L22.6,5.1L22.1,5.1L22.1,5.6L21.1,5.6L21.1,6.6L20.1,6.6L20.1,7.1L17.4,7.1L17.4,6.6L16.6,6.6L16.6,7.1L15.6,7.1L15.6,7.6L15,7.6L15,7.4L15.4,7.4L15.4,6.9L16.4,6.9L16.4,6.6L14.6,6.6L14.6,7.1L14.1,7.1L14.1,7.6L13.5,7.6L13.5,7.4L13.9,7.4L13.9,6.9L14.4,6.9L14.4,6.4z" stroke="none"/><path d="M8.4,11.9L8.4,11.6L4.6,11.6L4.6,12L4.4,12L4.4,11.4L8.6,11.4L8.6,11.9L15,11.9L15,12.1L6,12.1L6,11.9z" stroke="none"/><path d="M24.9,9.9L24.9,7.9L25.4,7.9L25.4,7.5L25.6,7.5L25.6,8.1L25.1,8.1L25.1,9.9L25.4,9.9L25.4,8.9L25.9,8.9L25.9,8.4L26.4,8.4L26.4,7.4L27,7.4L27,7.6L26.6,7.6L26.6,8.6L26.1,8.6L26.1,9.1L25.6,9.1L25.6,10.1L25.1,10.1L25.1,11.1L24.6,11.1L24.6,11.6L24.1,11.6L24.1,12L23.9,12L23.9,11.4L24.4,11.4L24.4,10.9L24.9,10.9L24.9,10.1L24.6,10.1L24.6,10.6L23.6,10.6L23.6,11.1L23.1,11.1L23.1,11.6L22.6,11.6L22.6,12L22.4,12L22.4,11.4L22.9,11.4L22.9,10.9L23.4,10.9L23.4,10.4L24.4,10.4L24.4,9.9z" stroke="none"/><path d="M13.9,5.9L13.9,5.6L10.6,5.6L10.6,7.1L10.1,7.1L10.1,7.6L9,7.6L9,7.4L9.9,7.4L9.9,6.9L10.4,6.9L10.4,5.4L14.1,5.4L14.1,5.9L16.4,5.9L16.4,5.4L16.9,5.4L16.9,4.9L17.9,4.9L17.9,4.5L18.1,4.5L18.1,5.1L17.1,5.1L17.1,5.6L16.6,5.6L16.6,6.1L14.1,6.1L14.1,6.6L12.6,6.6L12.6,8.1L8.4,8.1L8.4,6.9L8.9,6.9L8.9,5.9L9.4,5.9L9.4,5.4L9.9,5.4L9.9,4.9L15.9,4.9L15.9,4.4L17.4,4.4L17.4,3.9L19.1,3.9L19.1,4.4L19.5,4.4L19.5,4.6L18.9,4.6L18.9,4.1L17.6,4.1L17.6,4.6L16.1,4.6L16.1,5.1L10.1,5.1L10.1,5.6L9.6,5.6L9.6,6.1L9.1,6.1L9.1,7.1L8.6,7.1L8.6,7.9L12.4,7.9L12.4,6.4L13.9,6.4L13.9,6.1L11.6,6.1L11.6,6.6L11.1,6.6L11.1,7.6L10.5,7.6L10.5,7.4L10.9,7.4L10.9,6.4L11.4,6.4L11.4,5.9z" stroke="none"/><path d="M3,10.6L3,10.4L3.9,10.4L3.9,9.4L4.4,9.4L4.4,9L4.6,9L4.6,9.6L4.1,9.6L4.1,10.6z" stroke="none"/><path d="M3,4.6L3,4.4L4.1,4.4L4.1,5.4L4.6,5.4L4.6,6L4.4,6L4.4,5.6L3.9,5.6L3.9,4.6z" stroke="none"/><path d="M4.5,7.6L4.5,7.4L4.9,7.4L4.9,6.9L5.4,6.9L5.4,4.9L5.9,4.9L5.9,4.5L6.1,4.5L6.1,5.1L5.6,5.1L5.6,7.1L5.1,7.1L5.1,7.6z" stroke="none"/><path d="M21,10.6L21,10.4L22.9,10.4L22.9,9.9L23.9,9.9L23.9,9L24.1,9L24.1,10.1L23.1,10.1L23.1,10.6z" stroke="none"/><path d="M3.1,12L2.9,12L2.9,11.4L3.4,11.4L3.4,10.9L4.9,10.9L4.9,9.9L5.4,9.9L5.4,9.4L5.9,9.4L5.9,9L6.1,9L6.1,9.6L5.6,9.6L5.6,10.1L5.1,10.1L5.1,11.1L3.6,11.1L3.6,11.6L3.1,11.6z" stroke="none"/><path d="M7.6,7.5L7.4,7.5L7.4,3L7.6,3z" stroke="none"/><path d="M13.5,10.4L13.5,10.6L11.4,10.6L11.4,10.1L9.4,10.1L9.4,9.6L8.6,9.6L8.6,10.1L8.1,10.1L8.1,10.6L7.5,10.6L7.5,10.4L7.9,10.4L7.9,9.9L8.4,9.9L8.4,9.4L9.6,9.4L9.6,9.9L11.6,9.9L11.6,10.4z" stroke="none"/><path d="M12.1,3L11.9,3L11.9,2.6L11.4,2.6L11.4,2.1L6.1,2.1L6.1,3L5.9,3L5.9,1.9L11.6,1.9L11.6,2.4L12.1,2.4z" stroke="none"/><path d="M25.4,12L25.6,12L25.6,13.1L21.9,13.1L21.9,12.6L21.4,12.6L21.4,11.6L20.4,11.6L20.4,11.1L19.9,11.1L19.9,9.6L19.4,9.6L19.4,9L19.6,9L19.6,9.4L20.1,9.4L20.1,10.9L20.6,10.9L20.6,11.4L21.6,11.4L21.6,12.4L22.1,12.4L22.1,12.9L25.4,12.9z" stroke="none"/><path d="M18,8.9L18,9.1L16.1,9.1L16.1,9.6L15.6,9.6L15.6,10.1L13.9,10.1L13.9,9.6L10.4,9.6L10.4,9L10.6,9L10.6,9.4L14.1,9.4L14.1,9.9L15.4,9.9L15.4,9.4L15.9,9.4L15.9,8.9z" stroke="none"/><path d="M16.5,12.1L16.5,11.9L19.1,11.9L19.1,12.9L20.6,12.9L20.6,13.4L25.9,13.4L25.9,12.4L26.4,12.4L26.4,8.9L27.4,8.9L27.4,7.9L27.9,7.9L27.9,7.1L27.4,7.1L27.4,6.6L22.6,6.6L22.6,7.5L22.4,7.5L22.4,6.4L27.6,6.4L27.6,6.9L28.1,6.9L28.1,8.1L27.6,8.1L27.6,9.1L26.6,9.1L26.6,12.6L26.1,12.6L26.1,13.6L20.4,13.6L20.4,13.1L18.9,13.1L18.9,12.1z" stroke="none"/><path d="M9,10.6L9,10.4L11.1,10.4L11.1,10.9L12.6,10.9L12.6,11.4L14.4,11.4L14.4,10.9L15.9,10.9L15.9,10.4L16.5,10.4L16.5,10.6L16.1,10.6L16.1,11.1L14.6,11.1L14.6,11.6L12.4,11.6L12.4,11.1L10.9,11.1L10.9,10.6z" stroke="none"/><path d="M25.5,2.9L25.5,3.1L22.6,3.1L22.6,3.6L22.1,3.6L22.1,4.1L21.1,4.1L21.1,4.6L20.6,4.6L20.6,5.1L20.1,5.1L20.1,5.6L18.1,5.6L18.1,6L17.9,6L17.9,5.4L19.9,5.4L19.9,4.9L20.4,4.9L20.4,4.4L20.9,4.4L20.9,3.9L21.9,3.9L21.9,3.4L22.4,3.4L22.4,2.9z" stroke="none"/><path d="M15,9.1L15,8.9L15.4,8.9L15.4,8.4L16.9,8.4L16.9,7.9L22.1,7.9L22.1,8.4L22.9,8.4L22.9,7.9L23.9,7.9L23.9,7.5L24.1,7.5L24.1,8.1L23.1,8.1L23.1,8.6L21.9,8.6L21.9,8.1L17.1,8.1L17.1,8.6L15.6,8.6L15.6,9.1z" stroke="none"/><path d="M25.6,4.5L25.4,4.5L25.4,3.9L26.4,3.9L26.4,2.6L25.9,2.6L25.9,2.1L18.1,2.1L18.1,3.1L16.5,3.1L16.5,2.9L17.9,2.9L17.9,1.9L26.1,1.9L26.1,2.4L26.6,2.4L26.6,4.1L25.6,4.1z" stroke="none"/><path d="M10.5,3.1L10.5,2.9L11.1,2.9L11.1,3.9L16.9,3.9L16.9,3.4L20.9,3.4L20.9,3L21.1,3L21.1,3.6L17.1,3.6L17.1,4.1L10.9,4.1L10.9,3.1z" stroke="none"/></svg>