<svg version="1.1" width="30" height="15" xmlns="http://www.w3.org/2000/svg"><path d="M23.9,10.4L23.9,8.9L24.4,8.9L24.4,8.4L24.9,8.4L24.9,7.9L27.1,7.9L27.1,9L26.9,9L26.9,8.1L25.1,8.1L25.1,8.6L24.6,8.6L24.6,9.1L24.1,9.1L24.1,12L23.9,12L23.9,10.6L23.6,10.6L23.6,11.1L23.1,11.1L23.1,11.6L22.6,11.6L22.6,12L22.4,12L22.4,11.4L22.9,11.4L22.9,10.9L23.4,10.9L23.4,10.4z" stroke="none"/><path d="M13.9,10.9L13.9,8.9L15,8.9L15,9.1L14.1,9.1L14.1,11.1L12.1,11.1L12.1,11.4L13.6,11.4L13.6,11.9L14.1,11.9L14.1,12.4L14.6,12.4L14.6,12.9L15.9,12.9L15.9,11.9L16.5,11.9L16.5,12.1L16.1,12.1L16.1,13.1L14.4,13.1L14.4,12.6L13.9,12.6L13.9,12.1L13.4,12.1L13.4,11.6L11.9,11.6L11.9,11.1L8.6,11.1L8.6,11.6L6.9,11.6L6.9,11.1L5.6,11.1L5.6,11.6L4.6,11.6L4.6,12L4.4,12L4.4,11.4L5.4,11.4L5.4,10.9L7.1,10.9L7.1,11.4L8.4,11.4L8.4,10.9z" stroke="none"/><path d="M10.4,8.9L10.4,8.6L9.9,8.6L9.9,8.1L9.4,8.1L9.4,7.6L9,7.6L9,7.4L9.6,7.4L9.6,7.9L10.1,7.9L10.1,8.4L10.6,8.4L10.6,8.9L11.4,8.9L11.4,8.4L14.4,8.4L14.4,7.9L15.6,7.9L15.6,8.4L16.1,8.4L16.1,9.9L16.6,9.9L16.6,10.5L16.4,10.5L16.4,10.1L15.9,10.1L15.9,8.6L15.4,8.6L15.4,8.1L14.6,8.1L14.6,8.6L11.6,8.6L11.6,9.1L10.6,9.1L10.6,9.6L8.4,9.6L8.4,6.6L7.4,6.6L7.4,6L7.6,6L7.6,6.4L8.6,6.4L8.6,9.4L10.4,9.4L10.4,9.1L9,9.1L9,8.9z" stroke="none"/><path d="M18.4,4.4L18.4,4.1L16.9,4.1L16.9,3.1L16.5,3.1L16.5,2.9L17.1,2.9L17.1,3.9L18.6,3.9L18.6,4.4L22.5,4.4L22.5,4.6L18.6,4.6L18.6,4.9L23.4,4.9L23.4,4.4L24,4.4L24,4.6L23.6,4.6L23.6,5.1L18.4,5.1L18.4,4.6L14.6,4.6L14.6,5.1L14.1,5.1L14.1,5.6L12.6,5.6L12.6,6.1L12,6.1L12,5.9L12.4,5.9L12.4,5.4L13.9,5.4L13.9,4.9L14.4,4.9L14.4,4.4z" stroke="none"/><path d="M15.1,12L14.9,12L14.9,10.5L15.1,10.5z" stroke="none"/><path d="M21,3.1L21,2.9L22.5,2.9L22.5,3.1z" stroke="none"/><path d="M10.5,2.9L10.5,3.1L10.1,3.1L10.1,4.1L9.6,4.1L9.6,4.6L9,4.6L9,4.4L9.4,4.4L9.4,3.9L9.9,3.9L9.9,2.9z" stroke="none"/><path d="M5.9,7.5L6.1,7.5L6.1,9.9L6.6,9.9L6.6,10.4L7.5,10.4L7.5,10.6L6.4,10.6L6.4,10.1L5.9,10.1z" stroke="none"/><path d="M25.5,9.1L25.5,8.9L26.1,8.9L26.1,9.4L26.6,9.4L26.6,9.9L27.4,9.9L27.4,9.4L27.9,9.4L27.9,7.6L27.4,7.6L27.4,6.1L27,6.1L27,5.9L27.6,5.9L27.6,7.4L28.1,7.4L28.1,9.6L27.6,9.6L27.6,10.1L26.4,10.1L26.4,9.6L25.9,9.6L25.9,9.1z" stroke="none"/><path d="M13.4,4.5L13.6,4.5L13.6,5.1L11.6,5.1L11.6,5.6L11.1,5.6L11.1,7.1L10.6,7.1L10.6,7.5L10.4,7.5L10.4,6.9L10.9,6.9L10.9,5.4L11.4,5.4L11.4,4.9L13.4,4.9z" stroke="none"/><path d="M2.9,7.5L3.1,7.5L3.1,8.1L2.6,8.1L2.6,8.6L2.1,8.6L2.1,10.9L3.1,10.9L3.1,12L2.9,12L2.9,11.1L1.9,11.1L1.9,8.4L2.4,8.4L2.4,7.9L2.9,7.9z" stroke="none"/><path d="M7.4,4.5L7.6,4.5L7.6,5.1L6.6,5.1L6.6,6.9L7.1,6.9L7.1,8.9L7.5,8.9L7.5,9.1L6.9,9.1L6.9,7.1L6.4,7.1L6.4,4.9L7.4,4.9z" stroke="none"/><path d="M10.5,12.1L10.5,11.9L12.6,11.9L12.6,12.4L13.1,12.4L13.1,13.4L16.9,13.4L16.9,12.4L17.4,12.4L17.4,10.1L16.9,10.1L16.9,9.6L16.4,9.6L16.4,8.1L15.9,8.1L15.9,7.6L12,7.6L12,7.4L16.1,7.4L16.1,7.9L16.6,7.9L16.6,9.4L17.1,9.4L17.1,9.9L17.6,9.9L17.6,12.6L17.1,12.6L17.1,13.6L12.9,13.6L12.9,12.6L12.4,12.6L12.4,12.1z" stroke="none"/><path d="M21.1,12L20.9,12L20.9,10.9L21.4,10.9L21.4,10.4L21.9,10.4L21.9,9.9L22.4,9.9L22.4,7.5L22.6,7.5L22.6,10.1L22.1,10.1L22.1,10.6L21.6,10.6L21.6,11.1L21.1,11.1z" stroke="none"/><path d="M19.5,10.4L19.5,10.6L19.1,10.6L19.1,11.6L18.6,11.6L18.6,12.9L24.4,12.9L24.4,12.4L24.9,12.4L24.9,11.9L25.4,11.9L25.4,10.5L25.6,10.5L25.6,12.1L25.1,12.1L25.1,12.6L24.6,12.6L24.6,13.1L18.4,13.1L18.4,11.4L18.9,11.4L18.9,10.4z" stroke="none"/><path d="M3,9.1L3,8.9L3.4,8.9L3.4,8.4L3.9,8.4L3.9,7.4L4.4,7.4L4.4,6.9L4.9,6.9L4.9,6.4L5.4,6.4L5.4,3.4L9.4,3.4L9.4,1.9L11.1,1.9L11.1,2.4L11.6,2.4L11.6,4.6L10.6,4.6L10.6,5.6L9.6,5.6L9.6,6.1L9,6.1L9,5.9L9.4,5.9L9.4,5.4L10.4,5.4L10.4,4.4L11.4,4.4L11.4,2.6L10.9,2.6L10.9,2.1L9.6,2.1L9.6,3.6L5.6,3.6L5.6,6.6L5.1,6.6L5.1,7.1L4.6,7.1L4.6,7.6L4.1,7.6L4.1,8.6L3.6,8.6L3.6,9.1z" stroke="none"/><path d="M19.6,12L19.4,12L19.4,11.4L19.9,11.4L19.9,10.9L20.4,10.9L20.4,9.6L19.1,9.6L19.1,10.1L18.6,10.1L18.6,11.1L18.1,11.1L18.1,13.4L26.4,13.4L26.4,11.9L27,11.9L27,12.1L26.6,12.1L26.6,13.6L17.9,13.6L17.9,10.9L18.4,10.9L18.4,9.9L18.9,9.9L18.9,9.4L20.6,9.4L20.6,11.1L20.1,11.1L20.1,11.6L19.6,11.6z" stroke="none"/><path d="M27,2.9L27,3.1L24.9,3.1L24.9,2.6L22.9,2.6L22.9,2.1L20.1,2.1L20.1,3.1L19.5,3.1L19.5,2.9L19.9,2.9L19.9,1.9L23.1,1.9L23.1,2.4L25.1,2.4L25.1,2.9z" stroke="none"/><path d="M15,6.1L15,5.9L24.9,5.9L24.9,5.4L25.4,5.4L25.4,4.4L26.9,4.4L26.9,3.9L27.4,3.9L27.4,3.4L27.9,3.4L27.9,2.6L27.4,2.6L27.4,2.1L24.9,2.1L24.9,1.6L6.1,1.6L6.1,2.1L5.1,2.1L5.1,6.1L4.5,6.1L4.5,5.9L4.9,5.9L4.9,1.9L5.9,1.9L5.9,1.4L25.1,1.4L25.1,1.9L27.6,1.9L27.6,2.4L28.1,2.4L28.1,3.6L27.6,3.6L27.6,4.1L27.1,4.1L27.1,4.6L25.6,4.6L25.6,5.6L25.1,5.6L25.1,6.1z" stroke="none"/><path d="M18.1,9L17.9,9L17.9,7.9L20.9,7.9L20.9,7.4L21.4,7.4L21.4,6.9L21.9,6.9L21.9,6.4L25.4,6.4L25.4,5.9L25.9,5.9L25.9,5.4L26.4,5.4L26.4,4.9L27.6,4.9L27.6,5.4L28.1,5.4L28.1,6.9L28.6,6.9L28.6,12.6L27.6,12.6L27.6,13.1L27.1,13.1L27.1,14.1L7.4,14.1L7.4,13.1L6.9,13.1L6.9,12.6L6.4,12.6L6.4,12.1L6,12.1L6,11.9L6.6,11.9L6.6,12.4L7.1,12.4L7.1,12.9L7.6,12.9L7.6,13.9L26.9,13.9L26.9,12.9L27.4,12.9L27.4,12.4L28.4,12.4L28.4,7.1L27.9,7.1L27.9,5.6L27.4,5.6L27.4,5.1L26.6,5.1L26.6,5.6L26.1,5.6L26.1,6.1L25.6,6.1L25.6,6.6L22.1,6.6L22.1,7.1L21.6,7.1L21.6,7.6L21.1,7.6L21.1,8.1L18.1,8.1z" stroke="none"/></svg>