<svg version="1.1" width="30" height="15" xmlns="http://www.w3.org/2000/svg"><path d="M10.4,6.6L9.4,6.6L9.4,6.1L9,6.1L9,5.9L9.6,5.9L9.6,6.4L10.6,6.4L10.6,6.9L12.9,6.9L12.9,5.9L13.5,5.9L13.5,6.1L13.1,6.1L13.1,7.1L10.6,7.1L10.6,7.6L10.1,7.6L10.1,8.1L9.6,8.1L9.6,8.6L7.9,8.6L7.9,8.1L6.6,8.1L6.6,8.6L4.6,8.6L4.6,9L4.4,9L4.4,8.4L6.4,8.4L6.4,7.9L8.1,7.9L8.1,8.4L9.4,8.4L9.4,7.9L9.9,7.9L9.9,7.4L10.4,7.4z" stroke="none"/><path d="M13.9,7.4L14.9,7.4L14.9,6.9L16.4,6.9L16.4,6L16.6,6L16.6,7.1L15.1,7.1L15.1,7.6L14.1,7.6L14.1,7.9L17.6,7.9L17.6,8.4L18.1,8.4L18.1,8.9L18.6,8.9L18.6,9.4L19.1,9.4L19.1,9.9L19.6,9.9L19.6,10.5L19.4,10.5L19.4,10.1L18.9,10.1L18.9,9.6L18.4,9.6L18.4,9.1L17.9,9.1L17.9,8.6L17.4,8.6L17.4,8.1L14.1,8.1L14.1,10.1L9.4,10.1L9.4,9.6L8.9,9.6L8.9,9.1L7.5,9.1L7.5,8.9L9.1,8.9L9.1,9.4L9.6,9.4L9.6,9.9L13.9,9.9z" stroke="none"/><path d="M7.4,5.9L7.4,5.6L6.4,5.6L6.4,5.1L5.6,5.1L5.6,5.6L4.6,5.6L4.6,6L4.4,6L4.4,5.4L5.4,5.4L5.4,4.9L6.6,4.9L6.6,5.4L7.6,5.4L7.6,5.9L7.9,5.9L7.9,4.9L8.9,4.9L8.9,3.9L9.4,3.9L9.4,3.4L10.4,3.4L10.4,3L10.6,3L10.6,3.6L9.6,3.6L9.6,4.1L9.1,4.1L9.1,5.1L8.1,5.1L8.1,6.1L7.6,6.1L7.6,6.4L8.1,6.4L8.1,6.9L9.1,6.9L9.1,7.5L8.9,7.5L8.9,7.1L7.9,7.1L7.9,6.6L7.4,6.6L7.4,6.1L7.1,6.1L7.1,7.1L6.1,7.1L6.1,7.5L5.9,7.5L5.9,6.9L6.9,6.9L6.9,5.9z" stroke="none"/><path d="M20.9,7.4L20.9,6.9L21.9,6.9L21.9,6.4L26.4,6.4L26.4,4.9L26.9,4.9L26.9,4.5L27.1,4.5L27.1,5.1L26.6,5.1L26.6,6.6L22.1,6.6L22.1,7.1L21.1,7.1L21.1,7.4L21.6,7.4L21.6,7.9L22.1,7.9L22.1,8.4L23.4,8.4L23.4,7.9L24.6,7.9L24.6,8.4L25.6,8.4L25.6,9L25.4,9L25.4,8.6L24.4,8.6L24.4,8.1L23.6,8.1L23.6,8.6L21.9,8.6L21.9,8.1L21.4,8.1L21.4,7.6L21.1,7.6L21.1,10.6L20.6,10.6L20.6,11.1L20.1,11.1L20.1,11.6L18.9,11.6L18.9,11.1L18.4,11.1L18.4,10.6L17.4,10.6L17.4,10.1L16.9,10.1L16.9,9.6L15.9,9.6L15.9,9.1L15,9.1L15,8.9L16.1,8.9L16.1,9.4L17.1,9.4L17.1,9.9L17.6,9.9L17.6,10.4L18.6,10.4L18.6,10.9L19.1,10.9L19.1,11.4L19.9,11.4L19.9,10.9L20.4,10.9L20.4,10.4L20.9,10.4L20.9,7.6L18,7.6L18,7.4z" stroke="none"/><path d="M22.5,4.6L22.5,4.4L24,4.4L24,4.6z" stroke="none"/><path d="M18,3.1L18,2.9L19.5,2.9L19.5,3.1z" stroke="none"/><path d="M4.6,12L4.4,12L4.4,10.5L4.6,10.5z" stroke="none"/><path d="M12,8.9L12,9.1L10.5,9.1L10.5,8.9z" stroke="none"/><path d="M25.6,12L25.4,12L25.4,11.4L25.9,11.4L25.9,10.9L26.4,10.9L26.4,10.4L27,10.4L27,10.6L26.6,10.6L26.6,11.1L26.1,11.1L26.1,11.6L25.6,11.6z" stroke="none"/><path d="M22.5,10.4L22.5,10.6L22.1,10.6L22.1,11.6L21.6,11.6L21.6,12.1L21,12.1L21,11.9L21.4,11.9L21.4,11.4L21.9,11.4L21.9,10.4z" stroke="none"/><path d="M25.5,7.4L25.5,7.6L22.5,7.6L22.5,7.4z" stroke="none"/><path d="M9,11.9L9,12.1L6,12.1L6,11.9z" stroke="none"/><path d="M24,9.1L24,8.9L24.6,8.9L24.6,9.4L25.1,9.4L25.1,9.9L25.9,9.9L25.9,9.4L26.4,9.4L26.4,6.9L26.9,6.9L26.9,6.4L27.4,6.4L27.4,5.9L27.9,5.9L27.9,4.1L27.4,4.1L27.4,3.6L26.1,3.6L26.1,4.1L25.1,4.1L25.1,5.1L24.6,5.1L24.6,5.6L21.1,5.6L21.1,6L20.9,6L20.9,5.4L24.4,5.4L24.4,4.9L24.9,4.9L24.9,3.9L25.9,3.9L25.9,3.4L27.6,3.4L27.6,3.9L28.1,3.9L28.1,6.1L27.6,6.1L27.6,6.6L27.1,6.6L27.1,7.1L26.6,7.1L26.6,9.6L26.1,9.6L26.1,10.1L24.9,10.1L24.9,9.6L24.4,9.6L24.4,9.1z" stroke="none"/><path d="M23.9,10.5L24.1,10.5L24.1,12.6L22.1,12.6L22.1,13.1L19.9,13.1L19.9,12.6L19.4,12.6L19.4,12.1L18,12.1L18,11.9L19.6,11.9L19.6,12.4L20.1,12.4L20.1,12.9L21.9,12.9L21.9,12.4L23.9,12.4z" stroke="none"/><path d="M3,6.1L3,5.9L3.4,5.9L3.4,4.9L4.9,4.9L4.9,2.9L9,2.9L9,3.1L5.1,3.1L5.1,5.1L3.6,5.1L3.6,6.1z" stroke="none"/><path d="M6,5.9L6,6.1L5.6,6.1L5.6,6.6L5.1,6.6L5.1,7.1L2.4,7.1L2.4,6.6L1.9,6.6L1.9,3.9L2.4,3.9L2.4,3.4L4.4,3.4L4.4,2.4L8.4,2.4L8.4,1.9L11.1,1.9L11.1,2.4L11.6,2.4L11.6,2.9L12,2.9L12,3.1L11.4,3.1L11.4,2.6L10.9,2.6L10.9,2.1L8.6,2.1L8.6,2.6L4.6,2.6L4.6,3.6L2.6,3.6L2.6,4.1L2.1,4.1L2.1,6.4L2.6,6.4L2.6,6.9L4.9,6.9L4.9,6.4L5.4,6.4L5.4,5.9z" stroke="none"/><path d="M15,4.6L15,4.4L20.9,4.4L20.9,2.9L22.5,2.9L22.5,3.1L21.1,3.1L21.1,4.6z" stroke="none"/><path d="M2.9,10.5L3.1,10.5L3.1,12.4L4.1,12.4L4.1,12.9L10.4,12.9L10.4,12L10.6,12L10.6,13.1L3.9,13.1L3.9,12.6L2.9,12.6z" stroke="none"/><path d="M6,10.6L6,10.4L9.6,10.4L9.6,10.9L11.1,10.9L11.1,11.4L11.6,11.4L11.6,13.1L11.1,13.1L11.1,13.6L3.4,13.6L3.4,13.1L2.4,13.1L2.4,11.6L1.9,11.6L1.9,7.1L1.4,7.1L1.4,2.9L3.4,2.9L3.4,2.4L3.9,2.4L3.9,1.9L7.4,1.9L7.4,1.4L12.6,1.4L12.6,2.4L13.1,2.4L13.1,3.4L13.6,3.4L13.6,4.9L14.6,4.9L14.6,5.9L15,5.9L15,6.1L14.4,6.1L14.4,5.1L13.4,5.1L13.4,3.6L12.9,3.6L12.9,2.6L12.4,2.6L12.4,1.6L7.6,1.6L7.6,2.1L4.1,2.1L4.1,2.6L3.6,2.6L3.6,3.1L1.6,3.1L1.6,6.9L2.1,6.9L2.1,11.4L2.6,11.4L2.6,12.9L3.6,12.9L3.6,13.4L10.9,13.4L10.9,12.9L11.4,12.9L11.4,11.6L10.9,11.6L10.9,11.1L9.4,11.1L9.4,10.6z" stroke="none"/><path d="M27,11.9L27,12.1L26.6,12.1L26.6,13.1L22.6,13.1L22.6,13.6L19.4,13.6L19.4,13.1L16.4,13.1L16.4,12L16.6,12L16.6,12.9L19.6,12.9L19.6,13.4L22.4,13.4L22.4,12.9L26.4,12.9L26.4,11.9z" stroke="none"/></svg>