<svg version="1.1" width="30" height="15" xmlns="http://www.w3.org/2000/svg"><path d="M15.9,11.4L15.9,10.9L18.9,10.9L18.9,10.4L19.5,10.4L19.5,10.6L19.1,10.6L19.1,11.1L16.1,11.1L16.1,11.6L15.1,11.6L15.1,12.1L14.6,12.1L14.6,12.6L10.9,12.6L10.9,12.1L10.5,12.1L10.5,11.9L11.1,11.9L11.1,12.4L14.4,12.4L14.4,11.9L14.9,11.9L14.9,11.6L13.6,11.6L13.6,12L13.4,12L13.4,11.4z" stroke="none"/><path d="M13.4,8.9L13.4,8.6L9.1,8.6L9.1,9L8.9,9L8.9,8.4L13.6,8.4L13.6,8.9L13.9,8.9L13.9,8.4L14.4,8.4L14.4,7.9L18.6,7.9L18.6,8.4L20.9,8.4L20.9,7.5L21.1,7.5L21.1,8.6L18.4,8.6L18.4,8.1L14.6,8.1L14.6,8.6L14.1,8.6L14.1,9.1L13.1,9.1L13.1,10.1L12.6,10.1L12.6,10.6L12,10.6L12,10.4L12.4,10.4L12.4,9.9L12.9,9.9L12.9,8.9z" stroke="none"/><path d="M10.9,4.9L10.9,4.4L13.9,4.4L13.9,3.9L14.4,3.9L14.4,2.9L16.5,2.9L16.5,3.1L14.6,3.1L14.6,4.1L14.1,4.1L14.1,4.6L11.1,4.6L11.1,4.9L11.6,4.9L11.6,5.4L12.1,5.4L12.1,6L11.9,6L11.9,5.6L11.4,5.6L11.4,5.1L11.1,5.1L11.1,5.6L9.6,5.6L9.6,7.6L7.5,7.6L7.5,7.4L9.4,7.4L9.4,5.4L10.9,5.4L10.9,5.1L9.4,5.1L9.4,4.6L9,4.6L9,4.4L9.6,4.4L9.6,4.9z" stroke="none"/><path d="M7.4,4.4L7.4,1.9L10.1,1.9L10.1,2.4L10.6,2.4L10.6,3L10.4,3L10.4,2.6L9.9,2.6L9.9,2.1L7.6,2.1L7.6,4.4L8.1,4.4L8.1,5.6L7.1,5.6L7.1,6.1L6.6,6.1L6.6,7.9L7.1,7.9L7.1,8.4L8.4,8.4L8.4,7.9L10.4,7.9L10.4,7.4L12,7.4L12,7.6L10.6,7.6L10.6,8.1L8.6,8.1L8.6,8.6L6.9,8.6L6.9,8.1L6.4,8.1L6.4,5.9L6.9,5.9L6.9,5.4L7.9,5.4L7.9,4.6L7.6,4.6L7.6,5.1L4.4,5.1L4.4,4.5L4.6,4.5L4.6,4.9L7.4,4.9L7.4,4.6L6.9,4.6L6.9,3.6L5.9,3.6L5.9,3L6.1,3L6.1,3.4L7.1,3.4L7.1,4.4z" stroke="none"/><path d="M21,5.9L21,6.1L19.5,6.1L19.5,5.9z" stroke="none"/><path d="M4.4,6L4.6,6L4.6,7.5L4.4,7.5z" stroke="none"/><path d="M4.5,10.6L4.5,10.4L6,10.4L6,10.6z" stroke="none"/><path d="M22.6,6L22.4,6L22.4,5.1L21.9,5.1L21.9,4.6L21,4.6L21,4.4L22.1,4.4L22.1,4.9L22.6,4.9z" stroke="none"/><path d="M4.5,2.9L4.5,3.1L3.6,3.1L3.6,4.1L3.1,4.1L3.1,4.5L2.9,4.5L2.9,3.9L3.4,3.9L3.4,2.9z" stroke="none"/><path d="M17.9,9L18.1,9L18.1,9.4L20.1,9.4L20.1,9.9L20.6,9.9L20.6,11.1L20.1,11.1L20.1,11.6L16.6,11.6L16.6,12L16.4,12L16.4,11.4L19.9,11.4L19.9,10.9L20.4,10.9L20.4,10.1L19.9,10.1L19.9,9.6L17.9,9.6z" stroke="none"/><path d="M22.6,12L22.4,12L22.4,11.4L22.9,11.4L22.9,9.9L23.4,9.9L23.4,8.9L24,8.9L24,9.1L23.6,9.1L23.6,10.1L23.1,10.1L23.1,11.6L22.6,11.6z" stroke="none"/><path d="M23.9,3L24.1,3L24.1,4.4L24.6,4.4L24.6,4.9L25.1,4.9L25.1,5.4L25.6,5.4L25.6,7.5L25.4,7.5L25.4,5.6L24.9,5.6L24.9,5.1L24.4,5.1L24.4,4.6L23.9,4.6z" stroke="none"/><path d="M19.5,7.4L19.5,7.6L16.4,7.6L16.4,7.1L15.9,7.1L15.9,6.6L14.9,6.6L14.9,4.5L15.1,4.5L15.1,6.4L16.1,6.4L16.1,6.9L16.6,6.9L16.6,7.4z" stroke="none"/><path d="M6,11.9L6,12.1L5.4,12.1L5.4,11.6L3.9,11.6L3.9,11.1L3.4,11.1L3.4,10.1L2.9,10.1L2.9,7.5L3.1,7.5L3.1,9.9L3.6,9.9L3.6,10.9L4.1,10.9L4.1,11.4L5.6,11.4L5.6,11.9z" stroke="none"/><path d="M27.1,7.5L26.9,7.5L26.9,7.1L26.4,7.1L26.4,5.1L25.9,5.1L25.9,4.1L25.4,4.1L25.4,3.6L24.9,3.6L24.9,2.1L23.6,2.1L23.6,2.6L23.1,2.6L23.1,3.1L22.5,3.1L22.5,2.9L22.9,2.9L22.9,2.4L23.4,2.4L23.4,1.9L25.1,1.9L25.1,3.4L25.6,3.4L25.6,3.9L26.1,3.9L26.1,4.9L26.6,4.9L26.6,6.9L27.1,6.9z" stroke="none"/><path d="M19.5,4.6L19.5,4.4L19.9,4.4L19.9,3.9L20.4,3.9L20.4,2.9L20.9,2.9L20.9,2.4L21.4,2.4L21.4,1.9L22.9,1.9L22.9,1.4L25.6,1.4L25.6,1.9L26.1,1.9L26.1,2.4L26.6,2.4L26.6,3.9L27.1,3.9L27.1,4.5L26.9,4.5L26.9,4.1L26.4,4.1L26.4,2.6L25.9,2.6L25.9,2.1L25.4,2.1L25.4,1.6L23.1,1.6L23.1,2.1L21.6,2.1L21.6,2.6L21.1,2.6L21.1,3.1L20.6,3.1L20.6,4.1L20.1,4.1L20.1,4.6z" stroke="none"/><path d="M18.1,3L17.9,3L17.9,2.6L17.4,2.6L17.4,2.1L14.6,2.1L14.6,2.6L14.1,2.6L14.1,3.1L13.6,3.1L13.6,4.1L9.9,4.1L9.9,3.6L8.9,3.6L8.9,3L9.1,3L9.1,3.4L10.1,3.4L10.1,3.9L13.4,3.9L13.4,2.9L13.9,2.9L13.9,2.4L14.4,2.4L14.4,1.9L17.6,1.9L17.6,2.4L18.1,2.4z" stroke="none"/><path d="M3,5.9L3,6.1L1.9,6.1L1.9,3.4L2.4,3.4L2.4,2.9L2.9,2.9L2.9,2.4L3.9,2.4L3.9,1.9L6.9,1.9L6.9,1.4L11.6,1.4L11.6,1.9L12.1,1.9L12.1,3L11.9,3L11.9,2.1L11.4,2.1L11.4,1.6L7.1,1.6L7.1,2.1L4.1,2.1L4.1,2.6L3.1,2.6L3.1,3.1L2.6,3.1L2.6,3.6L2.1,3.6L2.1,5.9z" stroke="none"/><path d="M16.5,4.6L16.5,4.4L17.9,4.4L17.9,3.9L18.4,3.9L18.4,3.4L18.9,3.4L18.9,1.9L20.9,1.9L20.9,1.4L22.4,1.4L22.4,0.9L26.6,0.9L26.6,1.4L27.1,1.4L27.1,3.4L27.6,3.4L27.6,3.9L28.1,3.9L28.1,8.6L25.6,8.6L25.6,9L25.4,9L25.4,8.4L27.9,8.4L27.9,4.1L27.4,4.1L27.4,3.6L26.9,3.6L26.9,1.6L26.4,1.6L26.4,1.1L22.6,1.1L22.6,1.6L21.1,1.6L21.1,2.1L19.1,2.1L19.1,3.6L18.6,3.6L18.6,4.1L18.1,4.1L18.1,4.6z" stroke="none"/><path d="M4.5,9.1L4.5,8.9L8.1,8.9L8.1,9.4L8.6,9.4L8.6,9.9L10.1,9.9L10.1,10.9L11.6,10.9L11.6,11.4L12.9,11.4L12.9,10.4L13.4,10.4L13.4,9.9L14.4,9.9L14.4,8.9L15,8.9L15,9.1L14.6,9.1L14.6,10.1L13.6,10.1L13.6,10.6L13.1,10.6L13.1,11.6L11.4,11.6L11.4,11.1L9.9,11.1L9.9,10.1L8.4,10.1L8.4,9.6L7.9,9.6L7.9,9.1z" stroke="none"/></svg>