  0
SECTION
  2
HEADER
  9
$ACADVER
  1
AC1009
  9
$DWGCODEPAGE
  3
ANSI_1252
  9
$EXTMIN
 10
1e+20
 20
1e+20
 30
1e+20
  9
$EXTMAX
 10
-1e+20
 20
-1e+20
 30
-1e+20
  9
$LIMMIN
 10
0.0
 20
0.0
  9
$LIMMAX
 10
420.0
 20
297.0
  9
$TDCREATE
 40
2461178.5578472223
  9
$TDUPDATE
 40
2461178.5578472223
  9
$PEXTMIN
 10
1e+20
 20
1e+20
 30
1e+20
  9
$PEXTMAX
 10
-1e+20
 20
-1e+20
 30
-1e+20
  9
$PLIMMIN
 10
0.0
 20
0.0
  9
$PLIMMAX
 10
420.0
 20
297.0
  0
ENDSEC
  0
SECTION
  2
TABLES
  0
TABLE
  2
VPORT
 70
1
  0
VPORT
  2
*Active
 70
0
 10
0.0
 20
0.0
 11
1.0
 21
1.0
 12
0.0
 22
0.0
 13
0.0
 23
0.0
 14
0.5
 24
0.5
 15
0.5
 25
0.5
 16
0.0
 26
0.0
 36
1.0
 17
0.0
 27
0.0
 37
0.0
 40
1000.0
 41
1.34
 42
50.0
 43
0.0
 44
0.0
 50
0.0
 51
0.0
 71
0
 72
1000
 73
1
 74
3
 75
0
 76
0
 77
0
 78
0
  0
ENDTAB
  0
TABLE
  2
LTYPE
 70
3
  0
LTYPE
  2
ByBlock
 70
0
  3

 72
65
 73
0
 40
0.0
  0
LTYPE
  2
ByLayer
 70
0
  3

 72
65
 73
0
 40
0.0
  0
LTYPE
  2
Continuous
 70
0
  3

 72
65
 73
0
 40
0.0
  0
ENDTAB
  0
TABLE
  2
LAYER
 70
2
  0
LAYER
  2
0
 70
0
 62
7
  6
Continuous
  0
LAYER
  2
Defpoints
 70
0
 62
7
  6
Continuous
  0
ENDTAB
  0
TABLE
  2
STYLE
 70
1
  0
STYLE
  2
Standard
 70
0
 40
0.0
 41
1.0
 50
0.0
 71
0
 42
2.5
  3
txt
  4

  0
ENDTAB
  0
TABLE
  2
VIEW
 70
0
  0
ENDTAB
  0
TABLE
  2
UCS
 70
0
  0
ENDTAB
  0
TABLE
  2
APPID
 70
3
  0
APPID
  2
ACAD
 70
0
  0
APPID
  2
HATCHBACKGROUNDCOLOR
 70
0
  0
APPID
  2
EZDXF
 70
0
  0
ENDTAB
  0
TABLE
  2
DIMSTYLE
 70
1
  0
DIMSTYLE
  2
Standard
 70
0
  3

  4

  5

  6

  7

 40
1.0
 41
2.5
 42
0.625
 43
3.75
 44
1.25
 45
0.0
 46
0.0
 47
0.0
 48
0.0
140
2.5
141
2.5
142
0.0
143
0.03937007874
144
1.0
145
0.0
146
1.0
147
0.625
 71
0
 72
0
 73
0
 74
0
 75
0
 76
0
 77
1
 78
8
170
0
171
3
172
1
173
0
174
0
175
0
176
0
177
0
178
0
  0
ENDTAB
  0
ENDSEC
  0
SECTION
  2
BLOCKS
  0
BLOCK
  8
0
  2
$Model_Space
 70
0
 10
0.0
 20
0.0
 30
0.0
  3
$Model_Space
  1

1001
EZDXF
1000
WRITTEN_BY_EZDXF
1000
1.4.4 @ 2026-05-17T13:23:18.072449+00:00
  0
ENDBLK
  8
0
  0
BLOCK
  8
0
  2
$Paper_Space
 70
0
 10
0.0
 20
0.0
 30
0.0
  3
$Paper_Space
  1

  0
ENDBLK
  8
0
  0
ENDSEC
  0
SECTION
  2
ENTITIES
  0
POLYLINE
  8
Layer 1
 62
7
 66
1
 10
0.0
 20
0.0
 30
0.0
 70
0
  0
VERTEX
  8
Layer 1
 10
11.220495714209777
 20
14.646575665497249
 30
0.0
 70
0
  0
VERTEX
  8
Layer 1
 10
11.161670223666144
 20
14.78786228997614
 30
0.0
 70
0
  0
VERTEX
  8
Layer 1
 10
11.02115685940881
 20
14.845918423514023
 30
0.0
 70
0
  0
SEQEND
  8
Layer 1
  0
POLYLINE
  8
Layer 1
 62
7
 66
1
 10
0.0
 20
0.0
 30
0.0
 70
0
  0
VERTEX
  8
Layer 1
 10
11.02115685940881
 20
14.447233684203113
 30
0.0
 70
0
  0
VERTEX
  8
Layer 1
 10
11.162440717435627
 20
14.50606032659737
 30
0.0
 70
0
  0
VERTEX
  8
Layer 1
 10
11.220495714209777
 20
14.646575665497249
 30
0.0
 70
0
  0
SEQEND
  8
Layer 1
  0
POLYLINE
  8
Layer 1
 62
7
 66
1
 10
0.0
 20
0.0
 30
0.0
 70
0
  0
VERTEX
  8
Layer 1
 10
11.02115685940881
 20
14.845918423514023
 30
0.0
 70
0
  0
VERTEX
  8
Layer 1
 10
10.879873001381991
 20
14.787091781119766
 30
0.0
 70
0
  0
VERTEX
  8
Layer 1
 10
10.82181878131527
 20
14.646575665497249
 30
0.0
 70
0
  0
VERTEX
  8
Layer 1
 10
11.02115685940881
 20
14.447233684203113
 30
0.0
 70
0
  0
SEQEND
  8
Layer 1
  0
POLYLINE
  8
Layer 1
 62
7
 66
1
 10
0.0
 20
0.0
 30
0.0
 70
0
  0
VERTEX
  8
Layer 1
 10
8.020804411769209
 20
15.947439282685252
 30
0.0
 70
0
  0
VERTEX
  8
Layer 1
 10
8.162088269796028
 20
16.00626514835687
 30
0.0
 70
0
  0
VERTEX
  8
Layer 1
 10
8.220143266570176
 20
16.14678126397939
 30
0.0
 70
0
  0
VERTEX
  8
Layer 1
 10
8.020804411769209
 20
16.34612402199616
 30
0.0
 70
0
  0
SEQEND
  8
Layer 1
  0
POLYLINE
  8
Layer 1
 62
7
 66
1
 10
0.0
 20
0.0
 30
0.0
 70
0
  0
VERTEX
  8
Layer 1
 10
7.821466333675671
 20
16.14678126397939
 30
0.0
 70
0
  0
VERTEX
  8
Layer 1
 10
7.880291824219302
 20
16.005494639500498
 30
0.0
 70
0
  0
VERTEX
  8
Layer 1
 10
8.020804411769209
 20
15.947439282685252
 30
0.0
 70
0
  0
SEQEND
  8
Layer 1
  0
POLYLINE
  8
Layer 1
 62
7
 66
1
 10
0.0
 20
0.0
 30
0.0
 70
0
  0
VERTEX
  8
Layer 1
 10
76.01988464962632
 20
4.147192460943667
 30
0.0
 70
0
  0
VERTEX
  8
Layer 1
 10
108.0209025727938
 20
4.147192460943667
 30
0.0
 70
0
  0
SEQEND
  8
Layer 1
  0
POLYLINE
  8
Layer 1
 62
7
 66
1
 10
0.0
 20
0.0
 30
0.0
 70
0
  0
VERTEX
  8
Layer 1
 10
103.02100073381838
 20
19.147192460943668
 30
0.0
 70
0
  0
VERTEX
  8
Layer 1
 10
110.02045274083703
 20
19.147192460943668
 30
0.0
 70
0
  0
SEQEND
  8
Layer 1
  0
POLYLINE
  8
Layer 1
 62
7
 66
1
 10
0.0
 20
0.0
 30
0.0
 70
0
  0
VERTEX
  8
Layer 1
 10
67.02088325127185
 20
19.147192460943668
 30
0.0
 70
0
  0
VERTEX
  8
Layer 1
 10
81.01978726530915
 20
19.147192460943668
 30
0.0
 70
0
  0
SEQEND
  8
Layer 1
  0
POLYLINE
  8
Layer 1
 62
7
 66
1
 10
0.0
 20
0.0
 30
0.0
 70
0
  0
VERTEX
  8
Layer 1
 10
85.02094199254512
 20
19.147192460943668
 30
0.0
 70
0
  0
VERTEX
  8
Layer 1
 10
99.01984600658241
 20
19.147192460943668
 30
0.0
 70
0
  0
SEQEND
  8
Layer 1
  0
POLYLINE
  8
Layer 1
 62
7
 66
1
 10
0.0
 20
0.0
 30
0.0
 70
0
  0
VERTEX
  8
Layer 1
 10
40.019767167079785
 20
4.147192460943667
 30
0.0
 70
0
  0
VERTEX
  8
Layer 1
 10
72.02078509024726
 20
4.147192460943667
 30
0.0
 70
0
  0
SEQEND
  8
Layer 1
  0
POLYLINE
  8
Layer 1
 62
7
 66
1
 10
0.0
 20
0.0
 30
0.0
 70
0
  0
VERTEX
  8
Layer 1
 10
49.02082450999858
 20
19.147192460943668
 30
0.0
 70
0
  0
VERTEX
  8
Layer 1
 10
63.01972852403589
 20
19.147192460943668
 30
0.0
 70
0
  0
SEQEND
  8
Layer 1
  0
POLYLINE
  8
Layer 1
 62
7
 66
1
 10
0.0
 20
0.0
 30
0.0
 70
0
  0
VERTEX
  8
Layer 1
 10
2.020100293197438
 20
4.147192460943667
 30
0.0
 70
0
  0
VERTEX
  8
Layer 1
 10
36.02066760770073
 20
4.147192460943667
 30
0.0
 70
0
  0
SEQEND
  8
Layer 1
  0
POLYLINE
  8
Layer 1
 62
7
 66
1
 10
0.0
 20
0.0
 30
0.0
 70
0
  0
VERTEX
  8
Layer 1
 10
31.020765768725315
 20
19.147192460943668
 30
0.0
 70
0
  0
VERTEX
  8
Layer 1
 10
45.01966978276263
 20
19.147192460943668
 30
0.0
 70
0
  0
SEQEND
  8
Layer 1
  0
POLYLINE
  8
Layer 1
 62
7
 66
1
 10
0.0
 20
0.0
 30
0.0
 70
0
  0
VERTEX
  8
Layer 1
 10
5.0204527408370385
 20
19.147192460943668
 30
0.0
 70
0
  0
VERTEX
  8
Layer 1
 10
9.019552300216091
 20
19.147192460943668
 30
0.0
 70
0
  0
SEQEND
  8
Layer 1
  0
POLYLINE
  8
Layer 1
 62
7
 66
1
 10
0.0
 20
0.0
 30
0.0
 70
0
  0
VERTEX
  8
Layer 1
 10
5.0204527408370385
 20
19.147192460943668
 30
0.0
 70
0
  0
VERTEX
  8
Layer 1
 10
5.0204527408370385
 20
8.146370325922655
 30
0.0
 70
0
  0
SEQEND
  8
Layer 1
  0
POLYLINE
  8
Layer 1
 62
7
 66
1
 10
0.0
 20
0.0
 30
0.0
 70
0
  0
VERTEX
  8
Layer 1
 10
13.02070702745205
 20
19.147192460943668
 30
0.0
 70
0
  0
VERTEX
  8
Layer 1
 10
27.01961104148936
 20
19.147192460943668
 30
0.0
 70
0
  0
SEQEND
  8
Layer 1
  0
POLYLINE
  8
Layer 1
 62
7
 66
1
 10
0.0
 20
0.0
 30
0.0
 70
0
  0
VERTEX
  8
Layer 1
 10
11.02115685940881
 20
14.845918423514023
 30
0.0
 70
0
  0
VERTEX
  8
Layer 1
 10
10.836992537646529
 20
14.722860702613977
 30
0.0
 70
0
  0
VERTEX
  8
Layer 1
 10
10.880203878746709
 20
14.505619148139283
 30
0.0
 70
0
  0
VERTEX
  8
Layer 1
 10
11.097440402832133
 20
14.462407737648775
 30
0.0
 70
0
  0
VERTEX
  8
Layer 1
 10
11.220495714209777
 20
14.646575665497249
 30
0.0
 70
0
  0
VERTEX
  8
Layer 1
 10
11.162110616778339
 20
14.787532182855212
 30
0.0
 70
0
  0
VERTEX
  8
Layer 1
 10
11.02115685940881
 20
14.845918423514023
 30
0.0
 70
0
  0
VERTEX
  8
Layer 1
 10
11.02115685940881
 20
14.845918423514023
 30
0.0
 70
0
  0
SEQEND
  8
Layer 1
  0
POLYLINE
  8
Layer 1
 62
7
 66
1
 10
0.0
 20
0.0
 30
0.0
 70
0
  0
VERTEX
  8
Layer 1
 10
110.02045274083703
 20
19.147192460943668
 30
0.0
 70
0
  0
VERTEX
  8
Layer 1
 10
110.02045274083703
 20
4.021832534146151
 30
0.0
 70
0
  0
SEQEND
  8
Layer 1
  0
POLYLINE
  8
Layer 1
 62
7
 66
1
 10
0.0
 20
0.0
 30
0.0
 70
0
  0
VERTEX
  8
Layer 1
 10
8.020804411769209
 20
16.34612402199616
 30
0.0
 70
0
  0
VERTEX
  8
Layer 1
 10
7.836640090006928
 20
16.223066301096114
 30
0.0
 70
0
  0
VERTEX
  8
Layer 1
 10
7.879851431107109
 20
16.005824746621425
 30
0.0
 70
0
  0
VERTEX
  8
Layer 1
 10
8.097087955192531
 20
15.962613336130914
 30
0.0
 70
0
  0
VERTEX
  8
Layer 1
 10
8.220143266570176
 20
16.14678126397939
 30
0.0
 70
0
  0
VERTEX
  8
Layer 1
 10
8.16175816913874
 20
16.287737781337352
 30
0.0
 70
0
  0
VERTEX
  8
Layer 1
 10
8.020804411769209
 20
16.34612402199616
 30
0.0
 70
0
  0
VERTEX
  8
Layer 1
 10
8.020804411769209
 20
16.34612402199616
 30
0.0
 70
0
  0
SEQEND
  8
Layer 1
  0
POLYLINE
  8
Layer 1
 62
7
 66
1
 10
0.0
 20
0.0
 30
0.0
 70
0
  0
VERTEX
  8
Layer 1
 10
17.221199832781547
 20
14.646575665497249
 30
0.0
 70
0
  0
VERTEX
  8
Layer 1
 10
17.162375118945345
 20
14.78786228997614
 30
0.0
 70
0
  0
VERTEX
  8
Layer 1
 10
17.02186175468801
 20
14.845918423514023
 30
0.0
 70
0
  0
SEQEND
  8
Layer 1
  0
POLYLINE
  8
Layer 1
 62
7
 66
1
 10
0.0
 20
0.0
 30
0.0
 70
0
  0
VERTEX
  8
Layer 1
 10
17.019806586831102
 20
14.447233684203113
 30
0.0
 70
0
  0
VERTEX
  8
Layer 1
 10
17.161090444857923
 20
14.50606032659737
 30
0.0
 70
0
  0
VERTEX
  8
Layer 1
 10
17.21914544163207
 20
14.646575665497249
 30
0.0
 70
0
  0
SEQEND
  8
Layer 1
  0
POLYLINE
  8
Layer 1
 62
7
 66
1
 10
0.0
 20
0.0
 30
0.0
 70
0
  0
VERTEX
  8
Layer 1
 10
17.019806586831102
 20
14.845918423514023
 30
0.0
 70
0
  0
VERTEX
  8
Layer 1
 10
16.878522728804285
 20
14.787091781119766
 30
0.0
 70
0
  0
VERTEX
  8
Layer 1
 10
16.820468508737566
 20
14.646575665497249
 30
0.0
 70
0
  0
VERTEX
  8
Layer 1
 10
17.019806586831102
 20
14.447233684203113
 30
0.0
 70
0
  0
SEQEND
  8
Layer 1
  0
POLYLINE
  8
Layer 1
 62
7
 66
1
 10
0.0
 20
0.0
 30
0.0
 70
0
  0
VERTEX
  8
Layer 1
 10
14.02150930704841
 20
15.947439282685252
 30
0.0
 70
0
  0
VERTEX
  8
Layer 1
 10
14.162793165075227
 20
16.00626514835687
 30
0.0
 70
0
  0
VERTEX
  8
Layer 1
 10
14.220848161849377
 20
16.14678126397939
 30
0.0
 70
0
  0
VERTEX
  8
Layer 1
 10
14.02150930704841
 20
16.34612402199616
 30
0.0
 70
0
  0
SEQEND
  8
Layer 1
  0
POLYLINE
  8
Layer 1
 62
7
 66
1
 10
0.0
 20
0.0
 30
0.0
 70
0
  0
VERTEX
  8
Layer 1
 10
13.820116061097965
 20
16.14678126397939
 30
0.0
 70
0
  0
VERTEX
  8
Layer 1
 10
13.878941551641596
 20
16.005494639500498
 30
0.0
 70
0
  0
VERTEX
  8
Layer 1
 10
14.019454139191504
 20
15.947439282685252
 30
0.0
 70
0
  0
SEQEND
  8
Layer 1
  0
POLYLINE
  8
Layer 1
 62
7
 66
1
 10
0.0
 20
0.0
 30
0.0
 70
0
  0
VERTEX
  8
Layer 1
 10
17.019806586831102
 20
14.845918423514023
 30
0.0
 70
0
  0
VERTEX
  8
Layer 1
 10
16.83564226506882
 20
14.722860702613977
 30
0.0
 70
0
  0
VERTEX
  8
Layer 1
 10
16.878852829461575
 20
14.505619148139283
 30
0.0
 70
0
  0
VERTEX
  8
Layer 1
 10
17.096090130254428
 20
14.462407737648775
 30
0.0
 70
0
  0
VERTEX
  8
Layer 1
 10
17.21914544163207
 20
14.646575665497249
 30
0.0
 70
0
  0
VERTEX
  8
Layer 1
 10
17.160760344200632
 20
14.787532182855212
 30
0.0
 70
0
  0
VERTEX
  8
Layer 1
 10
17.019806586831102
 20
14.845918423514023
 30
0.0
 70
0
  0
VERTEX
  8
Layer 1
 10
17.019806586831102
 20
14.845918423514023
 30
0.0
 70
0
  0
SEQEND
  8
Layer 1
  0
POLYLINE
  8
Layer 1
 62
7
 66
1
 10
0.0
 20
0.0
 30
0.0
 70
0
  0
VERTEX
  8
Layer 1
 10
14.02150930704841
 20
16.34612402199616
 30
0.0
 70
0
  0
VERTEX
  8
Layer 1
 10
13.88055554967888
 20
16.287737781337352
 30
0.0
 70
0
  0
VERTEX
  8
Layer 1
 10
13.822171228954872
 20
16.14678126397939
 30
0.0
 70
0
  0
VERTEX
  8
Layer 1
 10
13.88055554967888
 20
16.005824746621425
 30
0.0
 70
0
  0
VERTEX
  8
Layer 1
 10
14.02150930704841
 20
15.947439282685252
 30
0.0
 70
0
  0
VERTEX
  8
Layer 1
 10
14.162463064417938
 20
16.005824746621425
 30
0.0
 70
0
  0
VERTEX
  8
Layer 1
 10
14.220848161849377
 20
16.14678126397939
 30
0.0
 70
0
  0
VERTEX
  8
Layer 1
 10
14.162463064417938
 20
16.287737781337352
 30
0.0
 70
0
  0
VERTEX
  8
Layer 1
 10
14.02150930704841
 20
16.34612402199616
 30
0.0
 70
0
  0
VERTEX
  8
Layer 1
 10
14.02150930704841
 20
16.34612402199616
 30
0.0
 70
0
  0
SEQEND
  8
Layer 1
  0
POLYLINE
  8
Layer 1
 62
7
 66
1
 10
0.0
 20
0.0
 30
0.0
 70
0
  0
VERTEX
  8
Layer 1
 10
23.219849560203844
 20
14.646575665497249
 30
0.0
 70
0
  0
VERTEX
  8
Layer 1
 10
23.16102406966021
 20
14.78786228997614
 30
0.0
 70
0
  0
VERTEX
  8
Layer 1
 10
23.020511482110305
 20
14.845918423514023
 30
0.0
 70
0
  0
SEQEND
  8
Layer 1
  0
POLYLINE
  8
Layer 1
 62
7
 66
1
 10
0.0
 20
0.0
 30
0.0
 70
0
  0
VERTEX
  8
Layer 1
 10
23.020511482110305
 20
14.447233684203113
 30
0.0
 70
0
  0
VERTEX
  8
Layer 1
 10
23.161794563429694
 20
14.50606032659737
 30
0.0
 70
0
  0
VERTEX
  8
Layer 1
 10
23.219849560203844
 20
14.646575665497249
 30
0.0
 70
0
  0
SEQEND
  8
Layer 1
  0
POLYLINE
  8
Layer 1
 62
7
 66
1
 10
0.0
 20
0.0
 30
0.0
 70
0
  0
VERTEX
  8
Layer 1
 10
23.020511482110305
 20
14.845918423514023
 30
0.0
 70
0
  0
VERTEX
  8
Layer 1
 10
22.879227624083484
 20
14.787091781119766
 30
0.0
 70
0
  0
VERTEX
  8
Layer 1
 10
22.821172627309338
 20
14.646575665497249
 30
0.0
 70
0
  0
VERTEX
  8
Layer 1
 10
23.020511482110305
 20
14.447233684203113
 30
0.0
 70
0
  0
SEQEND
  8
Layer 1
  0
POLYLINE
  8
Layer 1
 62
7
 66
1
 10
0.0
 20
0.0
 30
0.0
 70
0
  0
VERTEX
  8
Layer 1
 10
20.020159034470705
 20
15.947439282685252
 30
0.0
 70
0
  0
VERTEX
  8
Layer 1
 10
20.161442892497522
 20
16.00626514835687
 30
0.0
 70
0
  0
VERTEX
  8
Layer 1
 10
20.21949711256424
 20
16.14678126397939
 30
0.0
 70
0
  0
VERTEX
  8
Layer 1
 10
20.020159034470705
 20
16.34612402199616
 30
0.0
 70
0
  0
SEQEND
  8
Layer 1
  0
POLYLINE
  8
Layer 1
 62
7
 66
1
 10
0.0
 20
0.0
 30
0.0
 70
0
  0
VERTEX
  8
Layer 1
 10
19.820820179669738
 20
16.14678126397939
 30
0.0
 70
0
  0
VERTEX
  8
Layer 1
 10
19.87964567021337
 20
16.005494639500498
 30
0.0
 70
0
  0
VERTEX
  8
Layer 1
 10
20.020159034470705
 20
15.947439282685252
 30
0.0
 70
0
  0
SEQEND
  8
Layer 1
  0
POLYLINE
  8
Layer 1
 62
7
 66
1
 10
0.0
 20
0.0
 30
0.0
 70
0
  0
VERTEX
  8
Layer 1
 10
23.020511482110305
 20
14.845918423514023
 30
0.0
 70
0
  0
VERTEX
  8
Layer 1
 10
22.879557724740774
 20
14.787532182855212
 30
0.0
 70
0
  0
VERTEX
  8
Layer 1
 10
22.821172627309338
 20
14.646575665497249
 30
0.0
 70
0
  0
VERTEX
  8
Layer 1
 10
22.879557724740774
 20
14.505619148139283
 30
0.0
 70
0
  0
VERTEX
  8
Layer 1
 10
23.020511482110305
 20
14.447233684203113
 30
0.0
 70
0
  0
VERTEX
  8
Layer 1
 10
23.161464462772404
 20
14.505619148139283
 30
0.0
 70
0
  0
VERTEX
  8
Layer 1
 10
23.219849560203844
 20
14.646575665497249
 30
0.0
 70
0
  0
VERTEX
  8
Layer 1
 10
23.161464462772404
 20
14.787532182855212
 30
0.0
 70
0
  0
VERTEX
  8
Layer 1
 10
23.020511482110305
 20
14.845918423514023
 30
0.0
 70
0
  0
VERTEX
  8
Layer 1
 10
23.020511482110305
 20
14.845918423514023
 30
0.0
 70
0
  0
SEQEND
  8
Layer 1
  0
POLYLINE
  8
Layer 1
 62
7
 66
1
 10
0.0
 20
0.0
 30
0.0
 70
0
  0
VERTEX
  8
Layer 1
 10
20.020159034470705
 20
16.34612402199616
 30
0.0
 70
0
  0
VERTEX
  8
Layer 1
 10
19.835993936000992
 20
16.223066301096114
 30
0.0
 70
0
  0
VERTEX
  8
Layer 1
 10
19.879205277101175
 20
16.005824746621425
 30
0.0
 70
0
  0
VERTEX
  8
Layer 1
 10
20.096442577894027
 20
15.962613336130914
 30
0.0
 70
0
  0
VERTEX
  8
Layer 1
 10
20.21949711256424
 20
16.14678126397939
 30
0.0
 70
0
  0
VERTEX
  8
Layer 1
 10
20.161112791840235
 20
16.287737781337352
 30
0.0
 70
0
  0
VERTEX
  8
Layer 1
 10
20.020159034470705
 20
16.34612402199616
 30
0.0
 70
0
  0
VERTEX
  8
Layer 1
 10
20.020159034470705
 20
16.34612402199616
 30
0.0
 70
0
  0
SEQEND
  8
Layer 1
  0
POLYLINE
  8
Layer 1
 62
7
 66
1
 10
0.0
 20
0.0
 30
0.0
 70
0
  0
VERTEX
  8
Layer 1
 10
26.020863153042477
 20
15.947439282685252
 30
0.0
 70
0
  0
VERTEX
  8
Layer 1
 10
26.162147011069294
 20
16.00626514835687
 30
0.0
 70
0
  0
VERTEX
  8
Layer 1
 10
26.22020200784344
 20
16.14678126397939
 30
0.0
 70
0
  0
VERTEX
  8
Layer 1
 10
26.020863153042477
 20
16.34612402199616
 30
0.0
 70
0
  0
SEQEND
  8
Layer 1
  0
POLYLINE
  8
Layer 1
 62
7
 66
1
 10
0.0
 20
0.0
 30
0.0
 70
0
  0
VERTEX
  8
Layer 1
 10
25.821525074948934
 20
16.14678126397939
 30
0.0
 70
0
  0
VERTEX
  8
Layer 1
 10
25.88035056549257
 20
16.005494639500498
 30
0.0
 70
0
  0
VERTEX
  8
Layer 1
 10
26.020863153042477
 20
15.947439282685252
 30
0.0
 70
0
  0
SEQEND
  8
Layer 1
  0
POLYLINE
  8
Layer 1
 62
7
 66
1
 10
0.0
 20
0.0
 30
0.0
 70
0
  0
VERTEX
  8
Layer 1
 10
26.020863153042477
 20
16.34612402199616
 30
0.0
 70
0
  0
VERTEX
  8
Layer 1
 10
25.83669883128019
 20
16.223066301096114
 30
0.0
 70
0
  0
VERTEX
  8
Layer 1
 10
25.879910172380374
 20
16.005824746621425
 30
0.0
 70
0
  0
VERTEX
  8
Layer 1
 10
26.0971466964658
 20
15.962613336130914
 30
0.0
 70
0
  0
VERTEX
  8
Layer 1
 10
26.22020200784344
 20
16.14678126397939
 30
0.0
 70
0
  0
VERTEX
  8
Layer 1
 10
26.161816910412004
 20
16.287737781337352
 30
0.0
 70
0
  0
VERTEX
  8
Layer 1
 10
26.020863153042477
 20
16.34612402199616
 30
0.0
 70
0
  0
VERTEX
  8
Layer 1
 10
26.020863153042477
 20
16.34612402199616
 30
0.0
 70
0
  0
SEQEND
  8
Layer 1
  0
POLYLINE
  8
Layer 1
 62
7
 66
1
 10
0.0
 20
0.0
 30
0.0
 70
0
  0
VERTEX
  8
Layer 1
 10
11.220495714209777
 20
11.652330092829228
 30
0.0
 70
0
  0
VERTEX
  8
Layer 1
 10
11.161670223666144
 20
11.793616717308119
 30
0.0
 70
0
  0
VERTEX
  8
Layer 1
 10
11.02115685940881
 20
11.851672074123366
 30
0.0
 70
0
  0
SEQEND
  8
Layer 1
  0
POLYLINE
  8
Layer 1
 62
7
 66
1
 10
0.0
 20
0.0
 30
0.0
 70
0
  0
VERTEX
  8
Layer 1
 10
11.02115685940881
 20
11.452987334812454
 30
0.0
 70
0
  0
VERTEX
  8
Layer 1
 10
11.162440717435627
 20
11.51181397720671
 30
0.0
 70
0
  0
VERTEX
  8
Layer 1
 10
11.220495714209777
 20
11.652330092829228
 30
0.0
 70
0
  0
SEQEND
  8
Layer 1
  0
POLYLINE
  8
Layer 1
 62
7
 66
1
 10
0.0
 20
0.0
 30
0.0
 70
0
  0
VERTEX
  8
Layer 1
 10
11.02115685940881
 20
11.851672074123366
 30
0.0
 70
0
  0
VERTEX
  8
Layer 1
 10
10.879873001381991
 20
11.792846208451746
 30
0.0
 70
0
  0
VERTEX
  8
Layer 1
 10
10.82181878131527
 20
11.652330092829228
 30
0.0
 70
0
  0
VERTEX
  8
Layer 1
 10
11.02115685940881
 20
11.452987334812454
 30
0.0
 70
0
  0
SEQEND
  8
Layer 1
  0
POLYLINE
  8
Layer 1
 62
7
 66
1
 10
0.0
 20
0.0
 30
0.0
 70
0
  0
VERTEX
  8
Layer 1
 10
8.020804411769209
 20
12.953192933294593
 30
0.0
 70
0
  0
VERTEX
  8
Layer 1
 10
8.162088269796028
 20
13.012019575688848
 30
0.0
 70
0
  0
VERTEX
  8
Layer 1
 10
8.220143266570176
 20
13.152535691311368
 30
0.0
 70
0
  0
VERTEX
  8
Layer 1
 10
8.020804411769209
 20
13.351877672605504
 30
0.0
 70
0
  0
SEQEND
  8
Layer 1
  0
POLYLINE
  8
Layer 1
 62
7
 66
1
 10
0.0
 20
0.0
 30
0.0
 70
0
  0
VERTEX
  8
Layer 1
 10
7.821466333675671
 20
13.152535691311368
 30
0.0
 70
0
  0
VERTEX
  8
Layer 1
 10
7.880291824219302
 20
13.011249066832479
 30
0.0
 70
0
  0
VERTEX
  8
Layer 1
 10
8.020804411769209
 20
12.953192933294593
 30
0.0
 70
0
  0
SEQEND
  8
Layer 1
  0
POLYLINE
  8
Layer 1
 62
7
 66
1
 10
0.0
 20
0.0
 30
0.0
 70
0
  0
VERTEX
  8
Layer 1
 10
11.02115685940881
 20
11.851672074123366
 30
0.0
 70
0
  0
VERTEX
  8
Layer 1
 10
10.836992537646529
 20
11.728615129945954
 30
0.0
 70
0
  0
VERTEX
  8
Layer 1
 10
10.880203878746709
 20
11.511373575471262
 30
0.0
 70
0
  0
VERTEX
  8
Layer 1
 10
11.097440402832133
 20
11.468161388258117
 30
0.0
 70
0
  0
VERTEX
  8
Layer 1
 10
11.220495714209777
 20
11.652330092829228
 30
0.0
 70
0
  0
VERTEX
  8
Layer 1
 10
11.162110616778339
 20
11.793286610187193
 30
0.0
 70
0
  0
VERTEX
  8
Layer 1
 10
11.02115685940881
 20
11.851672074123366
 30
0.0
 70
0
  0
VERTEX
  8
Layer 1
 10
11.02115685940881
 20
11.851672074123366
 30
0.0
 70
0
  0
SEQEND
  8
Layer 1
  0
POLYLINE
  8
Layer 1
 62
7
 66
1
 10
0.0
 20
0.0
 30
0.0
 70
0
  0
VERTEX
  8
Layer 1
 10
8.020804411769209
 20
13.351877672605504
 30
0.0
 70
0
  0
VERTEX
  8
Layer 1
 10
7.836640090006928
 20
13.228820728428094
 30
0.0
 70
0
  0
VERTEX
  8
Layer 1
 10
7.879851431107109
 20
13.011579173953404
 30
0.0
 70
0
  0
VERTEX
  8
Layer 1
 10
8.097087955192531
 20
12.968366986740257
 30
0.0
 70
0
  0
VERTEX
  8
Layer 1
 10
8.220143266570176
 20
13.152535691311368
 30
0.0
 70
0
  0
VERTEX
  8
Layer 1
 10
8.16175816913874
 20
13.293492208669333
 30
0.0
 70
0
  0
VERTEX
  8
Layer 1
 10
8.020804411769209
 20
13.351877672605504
 30
0.0
 70
0
  0
VERTEX
  8
Layer 1
 10
8.020804411769209
 20
13.351877672605504
 30
0.0
 70
0
  0
SEQEND
  8
Layer 1
  0
POLYLINE
  8
Layer 1
 62
7
 66
1
 10
0.0
 20
0.0
 30
0.0
 70
0
  0
VERTEX
  8
Layer 1
 10
17.221199832781547
 20
11.652330092829228
 30
0.0
 70
0
  0
VERTEX
  8
Layer 1
 10
17.162375118945345
 20
11.793616717308119
 30
0.0
 70
0
  0
VERTEX
  8
Layer 1
 10
17.02186175468801
 20
11.851672074123366
 30
0.0
 70
0
  0
SEQEND
  8
Layer 1
  0
POLYLINE
  8
Layer 1
 62
7
 66
1
 10
0.0
 20
0.0
 30
0.0
 70
0
  0
VERTEX
  8
Layer 1
 10
17.019806586831102
 20
11.452987334812454
 30
0.0
 70
0
  0
VERTEX
  8
Layer 1
 10
17.161090444857923
 20
11.51181397720671
 30
0.0
 70
0
  0
VERTEX
  8
Layer 1
 10
17.21914544163207
 20
11.652330092829228
 30
0.0
 70
0
  0
SEQEND
  8
Layer 1
  0
POLYLINE
  8
Layer 1
 62
7
 66
1
 10
0.0
 20
0.0
 30
0.0
 70
0
  0
VERTEX
  8
Layer 1
 10
17.019806586831102
 20
11.851672074123366
 30
0.0
 70
0
  0
VERTEX
  8
Layer 1
 10
16.878522728804285
 20
11.792846208451746
 30
0.0
 70
0
  0
VERTEX
  8
Layer 1
 10
16.820468508737566
 20
11.652330092829228
 30
0.0
 70
0
  0
VERTEX
  8
Layer 1
 10
17.019806586831102
 20
11.452987334812454
 30
0.0
 70
0
  0
SEQEND
  8
Layer 1
  0
POLYLINE
  8
Layer 1
 62
7
 66
1
 10
0.0
 20
0.0
 30
0.0
 70
0
  0
VERTEX
  8
Layer 1
 10
14.02150930704841
 20
12.953192933294593
 30
0.0
 70
0
  0
VERTEX
  8
Layer 1
 10
14.162793165075227
 20
13.012019575688848
 30
0.0
 70
0
  0
VERTEX
  8
Layer 1
 10
14.220848161849377
 20
13.152535691311368
 30
0.0
 70
0
  0
VERTEX
  8
Layer 1
 10
14.02150930704841
 20
13.351877672605504
 30
0.0
 70
0
  0
SEQEND
  8
Layer 1
  0
POLYLINE
  8
Layer 1
 62
7
 66
1
 10
0.0
 20
0.0
 30
0.0
 70
0
  0
VERTEX
  8
Layer 1
 10
13.820116061097965
 20
13.152535691311368
 30
0.0
 70
0
  0
VERTEX
  8
Layer 1
 10
13.878941551641596
 20
13.011249066832479
 30
0.0
 70
0
  0
VERTEX
  8
Layer 1
 10
14.019454139191504
 20
12.953192933294593
 30
0.0
 70
0
  0
SEQEND
  8
Layer 1
  0
POLYLINE
  8
Layer 1
 62
7
 66
1
 10
0.0
 20
0.0
 30
0.0
 70
0
  0
VERTEX
  8
Layer 1
 10
17.019806586831102
 20
11.851672074123366
 30
0.0
 70
0
  0
VERTEX
  8
Layer 1
 10
16.83564226506882
 20
11.728615129945954
 30
0.0
 70
0
  0
VERTEX
  8
Layer 1
 10
16.878852829461575
 20
11.511373575471262
 30
0.0
 70
0
  0
VERTEX
  8
Layer 1
 10
17.096090130254428
 20
11.468161388258117
 30
0.0
 70
0
  0
VERTEX
  8
Layer 1
 10
17.21914544163207
 20
11.652330092829228
 30
0.0
 70
0
  0
VERTEX
  8
Layer 1
 10
17.160760344200632
 20
11.793286610187193
 30
0.0
 70
0
  0
VERTEX
  8
Layer 1
 10
17.019806586831102
 20
11.851672074123366
 30
0.0
 70
0
  0
VERTEX
  8
Layer 1
 10
17.019806586831102
 20
11.851672074123366
 30
0.0
 70
0
  0
SEQEND
  8
Layer 1
  0
POLYLINE
  8
Layer 1
 62
7
 66
1
 10
0.0
 20
0.0
 30
0.0
 70
0
  0
VERTEX
  8
Layer 1
 10
14.02150930704841
 20
13.351877672605504
 30
0.0
 70
0
  0
VERTEX
  8
Layer 1
 10
13.88055554967888
 20
13.293492208669333
 30
0.0
 70
0
  0
VERTEX
  8
Layer 1
 10
13.822171228954872
 20
13.152535691311368
 30
0.0
 70
0
  0
VERTEX
  8
Layer 1
 10
13.88055554967888
 20
13.011579173953404
 30
0.0
 70
0
  0
VERTEX
  8
Layer 1
 10
14.02150930704841
 20
12.953192933294593
 30
0.0
 70
0
  0
VERTEX
  8
Layer 1
 10
14.162463064417938
 20
13.011579173953404
 30
0.0
 70
0
  0
VERTEX
  8
Layer 1
 10
14.220848161849377
 20
13.152535691311368
 30
0.0
 70
0
  0
VERTEX
  8
Layer 1
 10
14.162463064417938
 20
13.293492208669333
 30
0.0
 70
0
  0
VERTEX
  8
Layer 1
 10
14.02150930704841
 20
13.351877672605504
 30
0.0
 70
0
  0
VERTEX
  8
Layer 1
 10
14.02150930704841
 20
13.351877672605504
 30
0.0
 70
0
  0
SEQEND
  8
Layer 1
  0
POLYLINE
  8
Layer 1
 62
7
 66
1
 10
0.0
 20
0.0
 30
0.0
 70
0
  0
VERTEX
  8
Layer 1
 10
23.219849560203844
 20
11.652330092829228
 30
0.0
 70
0
  0
VERTEX
  8
Layer 1
 10
23.16102406966021
 20
11.793616717308119
 30
0.0
 70
0
  0
VERTEX
  8
Layer 1
 10
23.020511482110305
 20
11.851672074123366
 30
0.0
 70
0
  0
SEQEND
  8
Layer 1
  0
POLYLINE
  8
Layer 1
 62
7
 66
1
 10
0.0
 20
0.0
 30
0.0
 70
0
  0
VERTEX
  8
Layer 1
 10
23.020511482110305
 20
11.452987334812454
 30
0.0
 70
0
  0
VERTEX
  8
Layer 1
 10
23.161794563429694
 20
11.51181397720671
 30
0.0
 70
0
  0
VERTEX
  8
Layer 1
 10
23.219849560203844
 20
11.652330092829228
 30
0.0
 70
0
  0
SEQEND
  8
Layer 1
  0
POLYLINE
  8
Layer 1
 62
7
 66
1
 10
0.0
 20
0.0
 30
0.0
 70
0
  0
VERTEX
  8
Layer 1
 10
23.020511482110305
 20
11.851672074123366
 30
0.0
 70
0
  0
VERTEX
  8
Layer 1
 10
22.879227624083484
 20
11.792846208451746
 30
0.0
 70
0
  0
VERTEX
  8
Layer 1
 10
22.821172627309338
 20
11.652330092829228
 30
0.0
 70
0
  0
VERTEX
  8
Layer 1
 10
23.020511482110305
 20
11.452987334812454
 30
0.0
 70
0
  0
SEQEND
  8
Layer 1
  0
POLYLINE
  8
Layer 1
 62
7
 66
1
 10
0.0
 20
0.0
 30
0.0
 70
0
  0
VERTEX
  8
Layer 1
 10
20.020159034470705
 20
12.953192933294593
 30
0.0
 70
0
  0
VERTEX
  8
Layer 1
 10
20.161442892497522
 20
13.012019575688848
 30
0.0
 70
0
  0
VERTEX
  8
Layer 1
 10
20.21949711256424
 20
13.152535691311368
 30
0.0
 70
0
  0
VERTEX
  8
Layer 1
 10
20.020159034470705
 20
13.351877672605504
 30
0.0
 70
0
  0
SEQEND
  8
Layer 1
  0
POLYLINE
  8
Layer 1
 62
7
 66
1
 10
0.0
 20
0.0
 30
0.0
 70
0
  0
VERTEX
  8
Layer 1
 10
19.820820179669738
 20
13.152535691311368
 30
0.0
 70
0
  0
VERTEX
  8
Layer 1
 10
19.87964567021337
 20
13.011249066832479
 30
0.0
 70
0
  0
VERTEX
  8
Layer 1
 10
20.020159034470705
 20
12.953192933294593
 30
0.0
 70
0
  0
SEQEND
  8
Layer 1
  0
POLYLINE
  8
Layer 1
 62
7
 66
1
 10
0.0
 20
0.0
 30
0.0
 70
0
  0
VERTEX
  8
Layer 1
 10
23.020511482110305
 20
11.851672074123366
 30
0.0
 70
0
  0
VERTEX
  8
Layer 1
 10
22.879557724740774
 20
11.793286610187193
 30
0.0
 70
0
  0
VERTEX
  8
Layer 1
 10
22.821172627309338
 20
11.652330092829228
 30
0.0
 70
0
  0
VERTEX
  8
Layer 1
 10
22.879557724740774
 20
11.511373575471262
 30
0.0
 70
0
  0
VERTEX
  8
Layer 1
 10
23.020511482110305
 20
11.452987334812454
 30
0.0
 70
0
  0
VERTEX
  8
Layer 1
 10
23.161464462772404
 20
11.511373575471262
 30
0.0
 70
0
  0
VERTEX
  8
Layer 1
 10
23.219849560203844
 20
11.652330092829228
 30
0.0
 70
0
  0
VERTEX
  8
Layer 1
 10
23.161464462772404
 20
11.793286610187193
 30
0.0
 70
0
  0
VERTEX
  8
Layer 1
 10
23.020511482110305
 20
11.851672074123366
 30
0.0
 70
0
  0
VERTEX
  8
Layer 1
 10
23.020511482110305
 20
11.851672074123366
 30
0.0
 70
0
  0
SEQEND
  8
Layer 1
  0
POLYLINE
  8
Layer 1
 62
7
 66
1
 10
0.0
 20
0.0
 30
0.0
 70
0
  0
VERTEX
  8
Layer 1
 10
20.020159034470705
 20
13.351877672605504
 30
0.0
 70
0
  0
VERTEX
  8
Layer 1
 10
19.835993936000992
 20
13.228820728428094
 30
0.0
 70
0
  0
VERTEX
  8
Layer 1
 10
19.879205277101175
 20
13.011579173953404
 30
0.0
 70
0
  0
VERTEX
  8
Layer 1
 10
20.096442577894027
 20
12.968366986740257
 30
0.0
 70
0
  0
VERTEX
  8
Layer 1
 10
20.21949711256424
 20
13.152535691311368
 30
0.0
 70
0
  0
VERTEX
  8
Layer 1
 10
20.161112791840235
 20
13.293492208669333
 30
0.0
 70
0
  0
VERTEX
  8
Layer 1
 10
20.020159034470705
 20
13.351877672605504
 30
0.0
 70
0
  0
VERTEX
  8
Layer 1
 10
20.020159034470705
 20
13.351877672605504
 30
0.0
 70
0
  0
SEQEND
  8
Layer 1
  0
POLYLINE
  8
Layer 1
 62
7
 66
1
 10
0.0
 20
0.0
 30
0.0
 70
0
  0
VERTEX
  8
Layer 1
 10
26.020863153042477
 20
12.953192933294593
 30
0.0
 70
0
  0
VERTEX
  8
Layer 1
 10
26.162147011069294
 20
13.012019575688848
 30
0.0
 70
0
  0
VERTEX
  8
Layer 1
 10
26.22020200784344
 20
13.152535691311368
 30
0.0
 70
0
  0
VERTEX
  8
Layer 1
 10
26.020863153042477
 20
13.351877672605504
 30
0.0
 70
0
  0
SEQEND
  8
Layer 1
  0
POLYLINE
  8
Layer 1
 62
7
 66
1
 10
0.0
 20
0.0
 30
0.0
 70
0
  0
VERTEX
  8
Layer 1
 10
25.821525074948934
 20
13.152535691311368
 30
0.0
 70
0
  0
VERTEX
  8
Layer 1
 10
25.88035056549257
 20
13.011249066832479
 30
0.0
 70
0
  0
VERTEX
  8
Layer 1
 10
26.020863153042477
 20
12.953192933294593
 30
0.0
 70
0
  0
SEQEND
  8
Layer 1
  0
POLYLINE
  8
Layer 1
 62
7
 66
1
 10
0.0
 20
0.0
 30
0.0
 70
0
  0
VERTEX
  8
Layer 1
 10
26.020863153042477
 20
13.351877672605504
 30
0.0
 70
0
  0
VERTEX
  8
Layer 1
 10
25.83669883128019
 20
13.228820728428094
 30
0.0
 70
0
  0
VERTEX
  8
Layer 1
 10
25.879910172380374
 20
13.011579173953404
 30
0.0
 70
0
  0
VERTEX
  8
Layer 1
 10
26.0971466964658
 20
12.968366986740257
 30
0.0
 70
0
  0
VERTEX
  8
Layer 1
 10
26.22020200784344
 20
13.152535691311368
 30
0.0
 70
0
  0
VERTEX
  8
Layer 1
 10
26.161816910412004
 20
13.293492208669333
 30
0.0
 70
0
  0
VERTEX
  8
Layer 1
 10
26.020863153042477
 20
13.351877672605504
 30
0.0
 70
0
  0
VERTEX
  8
Layer 1
 10
26.020863153042477
 20
13.351877672605504
 30
0.0
 70
0
  0
SEQEND
  8
Layer 1
  0
POLYLINE
  8
Layer 1
 62
7
 66
1
 10
0.0
 20
0.0
 30
0.0
 70
0
  0
VERTEX
  8
Layer 1
 10
11.220495714209777
 20
8.658084520161207
 30
0.0
 70
0
  0
VERTEX
  8
Layer 1
 10
11.161670223666144
 20
8.79937036791746
 30
0.0
 70
0
  0
VERTEX
  8
Layer 1
 10
11.02115685940881
 20
8.857426501455343
 30
0.0
 70
0
  0
SEQEND
  8
Layer 1
  0
POLYLINE
  8
Layer 1
 62
7
 66
1
 10
0.0
 20
0.0
 30
0.0
 70
0
  0
VERTEX
  8
Layer 1
 10
11.02115685940881
 20
8.458741762144433
 30
0.0
 70
0
  0
VERTEX
  8
Layer 1
 10
11.162440717435627
 20
8.517568404538691
 30
0.0
 70
0
  0
VERTEX
  8
Layer 1
 10
11.220495714209777
 20
8.658084520161207
 30
0.0
 70
0
  0
SEQEND
  8
Layer 1
  0
POLYLINE
  8
Layer 1
 62
7
 66
1
 10
0.0
 20
0.0
 30
0.0
 70
0
  0
VERTEX
  8
Layer 1
 10
11.02115685940881
 20
8.857426501455343
 30
0.0
 70
0
  0
VERTEX
  8
Layer 1
 10
10.879873001381991
 20
8.798599859061087
 30
0.0
 70
0
  0
VERTEX
  8
Layer 1
 10
10.82181878131527
 20
8.658084520161207
 30
0.0
 70
0
  0
VERTEX
  8
Layer 1
 10
11.02115685940881
 20
8.458741762144433
 30
0.0
 70
0
  0
SEQEND
  8
Layer 1
  0
POLYLINE
  8
Layer 1
 62
7
 66
1
 10
0.0
 20
0.0
 30
0.0
 70
0
  0
VERTEX
  8
Layer 1
 10
8.020804411769209
 20
9.958947360626572
 30
0.0
 70
0
  0
VERTEX
  8
Layer 1
 10
8.162088269796028
 20
10.017774003020829
 30
0.0
 70
0
  0
VERTEX
  8
Layer 1
 10
8.220143266570176
 20
10.158289341920709
 30
0.0
 70
0
  0
VERTEX
  8
Layer 1
 10
8.020804411769209
 20
10.357632099937483
 30
0.0
 70
0
  0
SEQEND
  8
Layer 1
  0
POLYLINE
  8
Layer 1
 62
7
 66
1
 10
0.0
 20
0.0
 30
0.0
 70
0
  0
VERTEX
  8
Layer 1
 10
7.821466333675671
 20
10.158289341920709
 30
0.0
 70
0
  0
VERTEX
  8
Layer 1
 10
7.880291824219302
 20
10.017003494164456
 30
0.0
 70
0
  0
VERTEX
  8
Layer 1
 10
8.020804411769209
 20
9.958947360626572
 30
0.0
 70
0
  0
SEQEND
  8
Layer 1
  0
POLYLINE
  8
Layer 1
 62
7
 66
1
 10
0.0
 20
0.0
 30
0.0
 70
0
  0
VERTEX
  8
Layer 1
 10
11.02115685940881
 20
8.857426501455343
 30
0.0
 70
0
  0
VERTEX
  8
Layer 1
 10
10.836992537646529
 20
8.734369557277933
 30
0.0
 70
0
  0
VERTEX
  8
Layer 1
 10
10.880203878746709
 20
8.517128002803243
 30
0.0
 70
0
  0
VERTEX
  8
Layer 1
 10
11.097440402832133
 20
8.473915815590097
 30
0.0
 70
0
  0
VERTEX
  8
Layer 1
 10
11.220495714209777
 20
8.658084520161207
 30
0.0
 70
0
  0
VERTEX
  8
Layer 1
 10
11.162110616778339
 20
8.799040260796534
 30
0.0
 70
0
  0
VERTEX
  8
Layer 1
 10
11.02115685940881
 20
8.857426501455343
 30
0.0
 70
0
  0
VERTEX
  8
Layer 1
 10
11.02115685940881
 20
8.857426501455343
 30
0.0
 70
0
  0
SEQEND
  8
Layer 1
  0
POLYLINE
  8
Layer 1
 62
7
 66
1
 10
0.0
 20
0.0
 30
0.0
 70
0
  0
VERTEX
  8
Layer 1
 10
8.020804411769209
 20
10.357632099937483
 30
0.0
 70
0
  0
VERTEX
  8
Layer 1
 10
7.836640090006928
 20
10.234574379037436
 30
0.0
 70
0
  0
VERTEX
  8
Layer 1
 10
7.879851431107109
 20
10.017333601285381
 30
0.0
 70
0
  0
VERTEX
  8
Layer 1
 10
8.097087955192531
 20
9.974121414072235
 30
0.0
 70
0
  0
VERTEX
  8
Layer 1
 10
8.220143266570176
 20
10.158289341920709
 30
0.0
 70
0
  0
VERTEX
  8
Layer 1
 10
8.16175816913874
 20
10.299245859278674
 30
0.0
 70
0
  0
VERTEX
  8
Layer 1
 10
8.020804411769209
 20
10.357632099937483
 30
0.0
 70
0
  0
VERTEX
  8
Layer 1
 10
8.020804411769209
 20
10.357632099937483
 30
0.0
 70
0
  0
SEQEND
  8
Layer 1
  0
POLYLINE
  8
Layer 1
 62
7
 66
1
 10
0.0
 20
0.0
 30
0.0
 70
0
  0
VERTEX
  8
Layer 1
 10
17.221199832781547
 20
8.658084520161207
 30
0.0
 70
0
  0
VERTEX
  8
Layer 1
 10
17.162375118945345
 20
8.79937036791746
 30
0.0
 70
0
  0
VERTEX
  8
Layer 1
 10
17.02186175468801
 20
8.857426501455343
 30
0.0
 70
0
  0
SEQEND
  8
Layer 1
  0
POLYLINE
  8
Layer 1
 62
7
 66
1
 10
0.0
 20
0.0
 30
0.0
 70
0
  0
VERTEX
  8
Layer 1
 10
17.019806586831102
 20
8.458741762144433
 30
0.0
 70
0
  0
VERTEX
  8
Layer 1
 10
17.161090444857923
 20
8.517568404538691
 30
0.0
 70
0
  0
VERTEX
  8
Layer 1
 10
17.21914544163207
 20
8.658084520161207
 30
0.0
 70
0
  0
SEQEND
  8
Layer 1
  0
POLYLINE
  8
Layer 1
 62
7
 66
1
 10
0.0
 20
0.0
 30
0.0
 70
0
  0
VERTEX
  8
Layer 1
 10
17.019806586831102
 20
8.857426501455343
 30
0.0
 70
0
  0
VERTEX
  8
Layer 1
 10
16.878522728804285
 20
8.798599859061087
 30
0.0
 70
0
  0
VERTEX
  8
Layer 1
 10
16.820468508737566
 20
8.658084520161207
 30
0.0
 70
0
  0
VERTEX
  8
Layer 1
 10
17.019806586831102
 20
8.458741762144433
 30
0.0
 70
0
  0
SEQEND
  8
Layer 1
  0
POLYLINE
  8
Layer 1
 62
7
 66
1
 10
0.0
 20
0.0
 30
0.0
 70
0
  0
VERTEX
  8
Layer 1
 10
14.02150930704841
 20
9.958947360626572
 30
0.0
 70
0
  0
VERTEX
  8
Layer 1
 10
14.162793165075227
 20
10.017774003020829
 30
0.0
 70
0
  0
VERTEX
  8
Layer 1
 10
14.220848161849377
 20
10.158289341920709
 30
0.0
 70
0
  0
VERTEX
  8
Layer 1
 10
14.02150930704841
 20
10.357632099937483
 30
0.0
 70
0
  0
SEQEND
  8
Layer 1
  0
POLYLINE
  8
Layer 1
 62
7
 66
1
 10
0.0
 20
0.0
 30
0.0
 70
0
  0
VERTEX
  8
Layer 1
 10
13.820116061097965
 20
10.158289341920709
 30
0.0
 70
0
  0
VERTEX
  8
Layer 1
 10
13.878941551641596
 20
10.017003494164456
 30
0.0
 70
0
  0
VERTEX
  8
Layer 1
 10
14.019454139191504
 20
9.958947360626572
 30
0.0
 70
0
  0
SEQEND
  8
Layer 1
  0
POLYLINE
  8
Layer 1
 62
7
 66
1
 10
0.0
 20
0.0
 30
0.0
 70
0
  0
VERTEX
  8
Layer 1
 10
17.019806586831102
 20
8.857426501455343
 30
0.0
 70
0
  0
VERTEX
  8
Layer 1
 10
16.83564226506882
 20
8.734369557277933
 30
0.0
 70
0
  0
VERTEX
  8
Layer 1
 10
16.878852829461575
 20
8.517128002803243
 30
0.0
 70
0
  0
VERTEX
  8
Layer 1
 10
17.096090130254428
 20
8.473915815590097
 30
0.0
 70
0
  0
VERTEX
  8
Layer 1
 10
17.21914544163207
 20
8.658084520161207
 30
0.0
 70
0
  0
VERTEX
  8
Layer 1
 10
17.160760344200632
 20
8.799040260796534
 30
0.0
 70
0
  0
VERTEX
  8
Layer 1
 10
17.019806586831102
 20
8.857426501455343
 30
0.0
 70
0
  0
VERTEX
  8
Layer 1
 10
17.019806586831102
 20
8.857426501455343
 30
0.0
 70
0
  0
SEQEND
  8
Layer 1
  0
POLYLINE
  8
Layer 1
 62
7
 66
1
 10
0.0
 20
0.0
 30
0.0
 70
0
  0
VERTEX
  8
Layer 1
 10
14.02150930704841
 20
10.357632099937483
 30
0.0
 70
0
  0
VERTEX
  8
Layer 1
 10
13.88055554967888
 20
10.299245859278674
 30
0.0
 70
0
  0
VERTEX
  8
Layer 1
 10
13.822171228954872
 20
10.158289341920709
 30
0.0
 70
0
  0
VERTEX
  8
Layer 1
 10
13.88055554967888
 20
10.017333601285381
 30
0.0
 70
0
  0
VERTEX
  8
Layer 1
 10
14.02150930704841
 20
9.958947360626572
 30
0.0
 70
0
  0
VERTEX
  8
Layer 1
 10
14.162463064417938
 20
10.017333601285381
 30
0.0
 70
0
  0
VERTEX
  8
Layer 1
 10
14.220848161849377
 20
10.158289341920709
 30
0.0
 70
0
  0
VERTEX
  8
Layer 1
 10
14.162463064417938
 20
10.299245859278674
 30
0.0
 70
0
  0
VERTEX
  8
Layer 1
 10
14.02150930704841
 20
10.357632099937483
 30
0.0
 70
0
  0
VERTEX
  8
Layer 1
 10
14.02150930704841
 20
10.357632099937483
 30
0.0
 70
0
  0
SEQEND
  8
Layer 1
  0
POLYLINE
  8
Layer 1
 62
7
 66
1
 10
0.0
 20
0.0
 30
0.0
 70
0
  0
VERTEX
  8
Layer 1
 10
23.219849560203844
 20
8.658084520161207
 30
0.0
 70
0
  0
VERTEX
  8
Layer 1
 10
23.16102406966021
 20
8.79937036791746
 30
0.0
 70
0
  0
VERTEX
  8
Layer 1
 10
23.020511482110305
 20
8.857426501455343
 30
0.0
 70
0
  0
SEQEND
  8
Layer 1
  0
POLYLINE
  8
Layer 1
 62
7
 66
1
 10
0.0
 20
0.0
 30
0.0
 70
0
  0
VERTEX
  8
Layer 1
 10
23.020511482110305
 20
8.458741762144433
 30
0.0
 70
0
  0
VERTEX
  8
Layer 1
 10
23.161794563429694
 20
8.517568404538691
 30
0.0
 70
0
  0
VERTEX
  8
Layer 1
 10
23.219849560203844
 20
8.658084520161207
 30
0.0
 70
0
  0
SEQEND
  8
Layer 1
  0
POLYLINE
  8
Layer 1
 62
7
 66
1
 10
0.0
 20
0.0
 30
0.0
 70
0
  0
VERTEX
  8
Layer 1
 10
23.020511482110305
 20
8.857426501455343
 30
0.0
 70
0
  0
VERTEX
  8
Layer 1
 10
22.879227624083484
 20
8.798599859061087
 30
0.0
 70
0
  0
VERTEX
  8
Layer 1
 10
22.821172627309338
 20
8.658084520161207
 30
0.0
 70
0
  0
VERTEX
  8
Layer 1
 10
23.020511482110305
 20
8.458741762144433
 30
0.0
 70
0
  0
SEQEND
  8
Layer 1
  0
POLYLINE
  8
Layer 1
 62
7
 66
1
 10
0.0
 20
0.0
 30
0.0
 70
0
  0
VERTEX
  8
Layer 1
 10
20.020159034470705
 20
9.958947360626572
 30
0.0
 70
0
  0
VERTEX
  8
Layer 1
 10
20.161442892497522
 20
10.017774003020829
 30
0.0
 70
0
  0
VERTEX
  8
Layer 1
 10
20.21949711256424
 20
10.158289341920709
 30
0.0
 70
0
  0
VERTEX
  8
Layer 1
 10
20.020159034470705
 20
10.357632099937483
 30
0.0
 70
0
  0
SEQEND
  8
Layer 1
  0
POLYLINE
  8
Layer 1
 62
7
 66
1
 10
0.0
 20
0.0
 30
0.0
 70
0
  0
VERTEX
  8
Layer 1
 10
19.820820179669738
 20
10.158289341920709
 30
0.0
 70
0
  0
VERTEX
  8
Layer 1
 10
19.87964567021337
 20
10.017003494164456
 30
0.0
 70
0
  0
VERTEX
  8
Layer 1
 10
20.020159034470705
 20
9.958947360626572
 30
0.0
 70
0
  0
SEQEND
  8
Layer 1
  0
POLYLINE
  8
Layer 1
 62
7
 66
1
 10
0.0
 20
0.0
 30
0.0
 70
0
  0
VERTEX
  8
Layer 1
 10
23.020511482110305
 20
8.857426501455343
 30
0.0
 70
0
  0
VERTEX
  8
Layer 1
 10
22.879557724740774
 20
8.799040260796534
 30
0.0
 70
0
  0
VERTEX
  8
Layer 1
 10
22.821172627309338
 20
8.658084520161207
 30
0.0
 70
0
  0
VERTEX
  8
Layer 1
 10
22.879557724740774
 20
8.517128002803243
 30
0.0
 70
0
  0
VERTEX
  8
Layer 1
 10
23.020511482110305
 20
8.458741762144433
 30
0.0
 70
0
  0
VERTEX
  8
Layer 1
 10
23.161464462772404
 20
8.517128002803243
 30
0.0
 70
0
  0
VERTEX
  8
Layer 1
 10
23.219849560203844
 20
8.658084520161207
 30
0.0
 70
0
  0
VERTEX
  8
Layer 1
 10
23.161464462772404
 20
8.799040260796534
 30
0.0
 70
0
  0
VERTEX
  8
Layer 1
 10
23.020511482110305
 20
8.857426501455343
 30
0.0
 70
0
  0
VERTEX
  8
Layer 1
 10
23.020511482110305
 20
8.857426501455343
 30
0.0
 70
0
  0
SEQEND
  8
Layer 1
  0
POLYLINE
  8
Layer 1
 62
7
 66
1
 10
0.0
 20
0.0
 30
0.0
 70
0
  0
VERTEX
  8
Layer 1
 10
20.020159034470705
 20
10.357632099937483
 30
0.0
 70
0
  0
VERTEX
  8
Layer 1
 10
19.835993936000992
 20
10.234574379037436
 30
0.0
 70
0
  0
VERTEX
  8
Layer 1
 10
19.879205277101175
 20
10.017333601285381
 30
0.0
 70
0
  0
VERTEX
  8
Layer 1
 10
20.096442577894027
 20
9.974121414072235
 30
0.0
 70
0
  0
VERTEX
  8
Layer 1
 10
20.21949711256424
 20
10.158289341920709
 30
0.0
 70
0
  0
VERTEX
  8
Layer 1
 10
20.161112791840235
 20
10.299245859278674
 30
0.0
 70
0
  0
VERTEX
  8
Layer 1
 10
20.020159034470705
 20
10.357632099937483
 30
0.0
 70
0
  0
VERTEX
  8
Layer 1
 10
20.020159034470705
 20
10.357632099937483
 30
0.0
 70
0
  0
SEQEND
  8
Layer 1
  0
POLYLINE
  8
Layer 1
 62
7
 66
1
 10
0.0
 20
0.0
 30
0.0
 70
0
  0
VERTEX
  8
Layer 1
 10
26.020863153042477
 20
9.958947360626572
 30
0.0
 70
0
  0
VERTEX
  8
Layer 1
 10
26.162147011069294
 20
10.017774003020829
 30
0.0
 70
0
  0
VERTEX
  8
Layer 1
 10
26.22020200784344
 20
10.158289341920709
 30
0.0
 70
0
  0
VERTEX
  8
Layer 1
 10
26.020863153042477
 20
10.357632099937483
 30
0.0
 70
0
  0
SEQEND
  8
Layer 1
  0
POLYLINE
  8
Layer 1
 62
7
 66
1
 10
0.0
 20
0.0
 30
0.0
 70
0
  0
VERTEX
  8
Layer 1
 10
25.821525074948934
 20
10.158289341920709
 30
0.0
 70
0
  0
VERTEX
  8
Layer 1
 10
25.88035056549257
 20
10.017003494164456
 30
0.0
 70
0
  0
VERTEX
  8
Layer 1
 10
26.020863153042477
 20
9.958947360626572
 30
0.0
 70
0
  0
SEQEND
  8
Layer 1
  0
POLYLINE
  8
Layer 1
 62
7
 66
1
 10
0.0
 20
0.0
 30
0.0
 70
0
  0
VERTEX
  8
Layer 1
 10
26.020863153042477
 20
10.357632099937483
 30
0.0
 70
0
  0
VERTEX
  8
Layer 1
 10
25.83669883128019
 20
10.234574379037436
 30
0.0
 70
0
  0
VERTEX
  8
Layer 1
 10
25.879910172380374
 20
10.017333601285381
 30
0.0
 70
0
  0
VERTEX
  8
Layer 1
 10
26.0971466964658
 20
9.974121414072235
 30
0.0
 70
0
  0
VERTEX
  8
Layer 1
 10
26.22020200784344
 20
10.158289341920709
 30
0.0
 70
0
  0
VERTEX
  8
Layer 1
 10
26.161816910412004
 20
10.299245859278674
 30
0.0
 70
0
  0
VERTEX
  8
Layer 1
 10
26.020863153042477
 20
10.357632099937483
 30
0.0
 70
0
  0
VERTEX
  8
Layer 1
 10
26.020863153042477
 20
10.357632099937483
 30
0.0
 70
0
  0
SEQEND
  8
Layer 1
  0
POLYLINE
  8
Layer 1
 62
7
 66
1
 10
0.0
 20
0.0
 30
0.0
 70
0
  0
VERTEX
  8
Layer 1
 10
8.020804411769209
 20
6.964701787958551
 30
0.0
 70
0
  0
VERTEX
  8
Layer 1
 10
8.162088269796028
 20
7.023528430352807
 30
0.0
 70
0
  0
VERTEX
  8
Layer 1
 10
8.220143266570176
 20
7.164043769252688
 30
0.0
 70
0
  0
VERTEX
  8
Layer 1
 10
8.020804411769209
 20
7.363386527269462
 30
0.0
 70
0
  0
SEQEND
  8
Layer 1
  0
POLYLINE
  8
Layer 1
 62
7
 66
1
 10
0.0
 20
0.0
 30
0.0
 70
0
  0
VERTEX
  8
Layer 1
 10
7.821466333675671
 20
7.164043769252688
 30
0.0
 70
0
  0
VERTEX
  8
Layer 1
 10
7.880291824219302
 20
7.022757144773798
 30
0.0
 70
0
  0
VERTEX
  8
Layer 1
 10
8.020804411769209
 20
6.964701787958551
 30
0.0
 70
0
  0
SEQEND
  8
Layer 1
  0
POLYLINE
  8
Layer 1
 62
7
 66
1
 10
0.0
 20
0.0
 30
0.0
 70
0
  0
VERTEX
  8
Layer 1
 10
8.020804411769209
 20
7.363386527269462
 30
0.0
 70
0
  0
VERTEX
  8
Layer 1
 10
7.836640090006928
 20
7.240328806369416
 30
0.0
 70
0
  0
VERTEX
  8
Layer 1
 10
7.879851431107109
 20
7.023087251894723
 30
0.0
 70
0
  0
VERTEX
  8
Layer 1
 10
8.097087955192531
 20
6.979875841404215
 30
0.0
 70
0
  0
VERTEX
  8
Layer 1
 10
8.220143266570176
 20
7.164043769252688
 30
0.0
 70
0
  0
VERTEX
  8
Layer 1
 10
8.16175816913874
 20
7.305000286610652
 30
0.0
 70
0
  0
VERTEX
  8
Layer 1
 10
8.020804411769209
 20
7.363386527269462
 30
0.0
 70
0
  0
VERTEX
  8
Layer 1
 10
8.020804411769209
 20
7.363386527269462
 30
0.0
 70
0
  0
SEQEND
  8
Layer 1
  0
POLYLINE
  8
Layer 1
 62
7
 66
1
 10
0.0
 20
0.0
 30
0.0
 70
0
  0
VERTEX
  8
Layer 1
 10
14.02150930704841
 20
6.964701787958551
 30
0.0
 70
0
  0
VERTEX
  8
Layer 1
 10
14.162793165075227
 20
7.023528430352807
 30
0.0
 70
0
  0
VERTEX
  8
Layer 1
 10
14.220848161849377
 20
7.164043769252688
 30
0.0
 70
0
  0
VERTEX
  8
Layer 1
 10
14.02150930704841
 20
7.363386527269462
 30
0.0
 70
0
  0
SEQEND
  8
Layer 1
  0
POLYLINE
  8
Layer 1
 62
7
 66
1
 10
0.0
 20
0.0
 30
0.0
 70
0
  0
VERTEX
  8
Layer 1
 10
13.820116061097965
 20
7.164043769252688
 30
0.0
 70
0
  0
VERTEX
  8
Layer 1
 10
13.878941551641596
 20
7.022757144773798
 30
0.0
 70
0
  0
VERTEX
  8
Layer 1
 10
14.019454139191504
 20
6.964701787958551
 30
0.0
 70
0
  0
SEQEND
  8
Layer 1
  0
POLYLINE
  8
Layer 1
 62
7
 66
1
 10
0.0
 20
0.0
 30
0.0
 70
0
  0
VERTEX
  8
Layer 1
 10
14.02150930704841
 20
7.363386527269462
 30
0.0
 70
0
  0
VERTEX
  8
Layer 1
 10
13.88055554967888
 20
7.305000286610652
 30
0.0
 70
0
  0
VERTEX
  8
Layer 1
 10
13.822171228954872
 20
7.164043769252688
 30
0.0
 70
0
  0
VERTEX
  8
Layer 1
 10
13.88055554967888
 20
7.023087251894723
 30
0.0
 70
0
  0
VERTEX
  8
Layer 1
 10
14.02150930704841
 20
6.964701787958551
 30
0.0
 70
0
  0
VERTEX
  8
Layer 1
 10
14.162463064417938
 20
7.023087251894723
 30
0.0
 70
0
  0
VERTEX
  8
Layer 1
 10
14.220848161849377
 20
7.164043769252688
 30
0.0
 70
0
  0
VERTEX
  8
Layer 1
 10
14.162463064417938
 20
7.305000286610652
 30
0.0
 70
0
  0
VERTEX
  8
Layer 1
 10
14.02150930704841
 20
7.363386527269462
 30
0.0
 70
0
  0
VERTEX
  8
Layer 1
 10
14.02150930704841
 20
7.363386527269462
 30
0.0
 70
0
  0
SEQEND
  8
Layer 1
  0
POLYLINE
  8
Layer 1
 62
7
 66
1
 10
0.0
 20
0.0
 30
0.0
 70
0
  0
VERTEX
  8
Layer 1
 10
20.020159034470705
 20
6.964701787958551
 30
0.0
 70
0
  0
VERTEX
  8
Layer 1
 10
20.161442892497522
 20
7.023528430352807
 30
0.0
 70
0
  0
VERTEX
  8
Layer 1
 10
20.21949711256424
 20
7.164043769252688
 30
0.0
 70
0
  0
VERTEX
  8
Layer 1
 10
20.020159034470705
 20
7.363386527269462
 30
0.0
 70
0
  0
SEQEND
  8
Layer 1
  0
POLYLINE
  8
Layer 1
 62
7
 66
1
 10
0.0
 20
0.0
 30
0.0
 70
0
  0
VERTEX
  8
Layer 1
 10
19.820820179669738
 20
7.164043769252688
 30
0.0
 70
0
  0
VERTEX
  8
Layer 1
 10
19.87964567021337
 20
7.022757144773798
 30
0.0
 70
0
  0
VERTEX
  8
Layer 1
 10
20.020159034470705
 20
6.964701787958551
 30
0.0
 70
0
  0
SEQEND
  8
Layer 1
  0
POLYLINE
  8
Layer 1
 62
7
 66
1
 10
0.0
 20
0.0
 30
0.0
 70
0
  0
VERTEX
  8
Layer 1
 10
20.020159034470705
 20
7.363386527269462
 30
0.0
 70
0
  0
VERTEX
  8
Layer 1
 10
19.835993936000992
 20
7.240328806369416
 30
0.0
 70
0
  0
VERTEX
  8
Layer 1
 10
19.879205277101175
 20
7.023087251894723
 30
0.0
 70
0
  0
VERTEX
  8
Layer 1
 10
20.096442577894027
 20
6.979875841404215
 30
0.0
 70
0
  0
VERTEX
  8
Layer 1
 10
20.21949711256424
 20
7.164043769252688
 30
0.0
 70
0
  0
VERTEX
  8
Layer 1
 10
20.161112791840235
 20
7.305000286610652
 30
0.0
 70
0
  0
VERTEX
  8
Layer 1
 10
20.020159034470705
 20
7.363386527269462
 30
0.0
 70
0
  0
VERTEX
  8
Layer 1
 10
20.020159034470705
 20
7.363386527269462
 30
0.0
 70
0
  0
SEQEND
  8
Layer 1
  0
POLYLINE
  8
Layer 1
 62
7
 66
1
 10
0.0
 20
0.0
 30
0.0
 70
0
  0
VERTEX
  8
Layer 1
 10
26.020863153042477
 20
6.964701787958551
 30
0.0
 70
0
  0
VERTEX
  8
Layer 1
 10
26.162147011069294
 20
7.023528430352807
 30
0.0
 70
0
  0
VERTEX
  8
Layer 1
 10
26.22020200784344
 20
7.164043769252688
 30
0.0
 70
0
  0
VERTEX
  8
Layer 1
 10
26.020863153042477
 20
7.363386527269462
 30
0.0
 70
0
  0
SEQEND
  8
Layer 1
  0
POLYLINE
  8
Layer 1
 62
7
 66
1
 10
0.0
 20
0.0
 30
0.0
 70
0
  0
VERTEX
  8
Layer 1
 10
25.821525074948934
 20
7.164043769252688
 30
0.0
 70
0
  0
VERTEX
  8
Layer 1
 10
25.88035056549257
 20
7.022757144773798
 30
0.0
 70
0
  0
VERTEX
  8
Layer 1
 10
26.020863153042477
 20
6.964701787958551
 30
0.0
 70
0
  0
SEQEND
  8
Layer 1
  0
POLYLINE
  8
Layer 1
 62
7
 66
1
 10
0.0
 20
0.0
 30
0.0
 70
0
  0
VERTEX
  8
Layer 1
 10
26.020863153042477
 20
7.363386527269462
 30
0.0
 70
0
  0
VERTEX
  8
Layer 1
 10
25.83669883128019
 20
7.240328806369416
 30
0.0
 70
0
  0
VERTEX
  8
Layer 1
 10
25.879910172380374
 20
7.023087251894723
 30
0.0
 70
0
  0
VERTEX
  8
Layer 1
 10
26.0971466964658
 20
6.979875841404215
 30
0.0
 70
0
  0
VERTEX
  8
Layer 1
 10
26.22020200784344
 20
7.164043769252688
 30
0.0
 70
0
  0
VERTEX
  8
Layer 1
 10
26.161816910412004
 20
7.305000286610652
 30
0.0
 70
0
  0
VERTEX
  8
Layer 1
 10
26.020863153042477
 20
7.363386527269462
 30
0.0
 70
0
  0
VERTEX
  8
Layer 1
 10
26.020863153042477
 20
7.363386527269462
 30
0.0
 70
0
  0
SEQEND
  8
Layer 1
  0
POLYLINE
  8
Layer 1
 62
7
 66
1
 10
0.0
 20
0.0
 30
0.0
 70
0
  0
VERTEX
  8
Layer 1
 10
29.220554455483043
 20
14.646575665497249
 30
0.0
 70
0
  0
VERTEX
  8
Layer 1
 10
29.161728964939407
 20
14.78786228997614
 30
0.0
 70
0
  0
VERTEX
  8
Layer 1
 10
29.021215600682073
 20
14.845918423514023
 30
0.0
 70
0
  0
SEQEND
  8
Layer 1
  0
POLYLINE
  8
Layer 1
 62
7
 66
1
 10
0.0
 20
0.0
 30
0.0
 70
0
  0
VERTEX
  8
Layer 1
 10
29.021215600682073
 20
14.447233684203113
 30
0.0
 70
0
  0
VERTEX
  8
Layer 1
 10
29.162499458708893
 20
14.50606032659737
 30
0.0
 70
0
  0
VERTEX
  8
Layer 1
 10
29.220554455483043
 20
14.646575665497249
 30
0.0
 70
0
  0
SEQEND
  8
Layer 1
  0
POLYLINE
  8
Layer 1
 62
7
 66
1
 10
0.0
 20
0.0
 30
0.0
 70
0
  0
VERTEX
  8
Layer 1
 10
29.021215600682073
 20
14.845918423514023
 30
0.0
 70
0
  0
VERTEX
  8
Layer 1
 10
28.87993174265526
 20
14.787091781119766
 30
0.0
 70
0
  0
VERTEX
  8
Layer 1
 10
28.821877522588537
 20
14.646575665497249
 30
0.0
 70
0
  0
VERTEX
  8
Layer 1
 10
29.021215600682073
 20
14.447233684203113
 30
0.0
 70
0
  0
SEQEND
  8
Layer 1
  0
POLYLINE
  8
Layer 1
 62
7
 66
1
 10
0.0
 20
0.0
 30
0.0
 70
0
  0
VERTEX
  8
Layer 1
 10
29.021215600682073
 20
14.845918423514023
 30
0.0
 70
0
  0
VERTEX
  8
Layer 1
 10
28.837051278919795
 20
14.722860702613977
 30
0.0
 70
0
  0
VERTEX
  8
Layer 1
 10
28.880261843312546
 20
14.505619148139283
 30
0.0
 70
0
  0
VERTEX
  8
Layer 1
 10
29.097499144105402
 20
14.462407737648775
 30
0.0
 70
0
  0
VERTEX
  8
Layer 1
 10
29.220554455483043
 20
14.646575665497249
 30
0.0
 70
0
  0
VERTEX
  8
Layer 1
 10
29.162169358051607
 20
14.787532182855212
 30
0.0
 70
0
  0
VERTEX
  8
Layer 1
 10
29.021215600682073
 20
14.845918423514023
 30
0.0
 70
0
  0
VERTEX
  8
Layer 1
 10
29.021215600682073
 20
14.845918423514023
 30
0.0
 70
0
  0
SEQEND
  8
Layer 1
  0
POLYLINE
  8
Layer 1
 62
7
 66
1
 10
0.0
 20
0.0
 30
0.0
 70
0
  0
VERTEX
  8
Layer 1
 10
32.021568048321676
 20
15.947439282685252
 30
0.0
 70
0
  0
VERTEX
  8
Layer 1
 10
32.16285190634849
 20
16.00626514835687
 30
0.0
 70
0
  0
VERTEX
  8
Layer 1
 10
32.220906903122646
 20
16.14678126397939
 30
0.0
 70
0
  0
VERTEX
  8
Layer 1
 10
32.021568048321676
 20
16.34612402199616
 30
0.0
 70
0
  0
SEQEND
  8
Layer 1
  0
POLYLINE
  8
Layer 1
 62
7
 66
1
 10
0.0
 20
0.0
 30
0.0
 70
0
  0
VERTEX
  8
Layer 1
 10
31.820174802371234
 20
16.14678126397939
 30
0.0
 70
0
  0
VERTEX
  8
Layer 1
 10
31.87900029291486
 20
16.005494639500498
 30
0.0
 70
0
  0
VERTEX
  8
Layer 1
 10
32.01951288046477
 20
15.947439282685252
 30
0.0
 70
0
  0
SEQEND
  8
Layer 1
  0
POLYLINE
  8
Layer 1
 62
7
 66
1
 10
0.0
 20
0.0
 30
0.0
 70
0
  0
VERTEX
  8
Layer 1
 10
32.021568048321676
 20
16.34612402199616
 30
0.0
 70
0
  0
VERTEX
  8
Layer 1
 10
31.837403726559394
 20
16.223066301096114
 30
0.0
 70
0
  0
VERTEX
  8
Layer 1
 10
31.88061429095215
 20
16.005824746621425
 30
0.0
 70
0
  0
VERTEX
  8
Layer 1
 10
32.097851591745
 20
15.962613336130914
 30
0.0
 70
0
  0
VERTEX
  8
Layer 1
 10
32.220906903122646
 20
16.14678126397939
 30
0.0
 70
0
  0
VERTEX
  8
Layer 1
 10
32.162521805691206
 20
16.287737781337352
 30
0.0
 70
0
  0
VERTEX
  8
Layer 1
 10
32.021568048321676
 20
16.34612402199616
 30
0.0
 70
0
  0
VERTEX
  8
Layer 1
 10
32.021568048321676
 20
16.34612402199616
 30
0.0
 70
0
  0
SEQEND
  8
Layer 1
  0
POLYLINE
  8
Layer 1
 62
7
 66
1
 10
0.0
 20
0.0
 30
0.0
 70
0
  0
VERTEX
  8
Layer 1
 10
29.220554455483043
 20
11.652330092829228
 30
0.0
 70
0
  0
VERTEX
  8
Layer 1
 10
29.161728964939407
 20
11.793616717308119
 30
0.0
 70
0
  0
VERTEX
  8
Layer 1
 10
29.021215600682073
 20
11.851672074123366
 30
0.0
 70
0
  0
SEQEND
  8
Layer 1
  0
POLYLINE
  8
Layer 1
 62
7
 66
1
 10
0.0
 20
0.0
 30
0.0
 70
0
  0
VERTEX
  8
Layer 1
 10
29.021215600682073
 20
11.452987334812454
 30
0.0
 70
0
  0
VERTEX
  8
Layer 1
 10
29.162499458708893
 20
11.51181397720671
 30
0.0
 70
0
  0
VERTEX
  8
Layer 1
 10
29.220554455483043
 20
11.652330092829228
 30
0.0
 70
0
  0
SEQEND
  8
Layer 1
  0
POLYLINE
  8
Layer 1
 62
7
 66
1
 10
0.0
 20
0.0
 30
0.0
 70
0
  0
VERTEX
  8
Layer 1
 10
29.021215600682073
 20
11.851672074123366
 30
0.0
 70
0
  0
VERTEX
  8
Layer 1
 10
28.87993174265526
 20
11.792846208451746
 30
0.0
 70
0
  0
VERTEX
  8
Layer 1
 10
28.821877522588537
 20
11.652330092829228
 30
0.0
 70
0
  0
VERTEX
  8
Layer 1
 10
29.021215600682073
 20
11.452987334812454
 30
0.0
 70
0
  0
SEQEND
  8
Layer 1
  0
POLYLINE
  8
Layer 1
 62
7
 66
1
 10
0.0
 20
0.0
 30
0.0
 70
0
  0
VERTEX
  8
Layer 1
 10
29.021215600682073
 20
11.851672074123366
 30
0.0
 70
0
  0
VERTEX
  8
Layer 1
 10
28.837051278919795
 20
11.728615129945954
 30
0.0
 70
0
  0
VERTEX
  8
Layer 1
 10
28.880261843312546
 20
11.511373575471262
 30
0.0
 70
0
  0
VERTEX
  8
Layer 1
 10
29.097499144105402
 20
11.468161388258117
 30
0.0
 70
0
  0
VERTEX
  8
Layer 1
 10
29.220554455483043
 20
11.652330092829228
 30
0.0
 70
0
  0
VERTEX
  8
Layer 1
 10
29.162169358051607
 20
11.793286610187193
 30
0.0
 70
0
  0
VERTEX
  8
Layer 1
 10
29.021215600682073
 20
11.851672074123366
 30
0.0
 70
0
  0
VERTEX
  8
Layer 1
 10
29.021215600682073
 20
11.851672074123366
 30
0.0
 70
0
  0
SEQEND
  8
Layer 1
  0
POLYLINE
  8
Layer 1
 62
7
 66
1
 10
0.0
 20
0.0
 30
0.0
 70
0
  0
VERTEX
  8
Layer 1
 10
32.021568048321676
 20
12.953192933294593
 30
0.0
 70
0
  0
VERTEX
  8
Layer 1
 10
32.16285190634849
 20
13.012019575688848
 30
0.0
 70
0
  0
VERTEX
  8
Layer 1
 10
32.220906903122646
 20
13.152535691311368
 30
0.0
 70
0
  0
VERTEX
  8
Layer 1
 10
32.021568048321676
 20
13.351877672605504
 30
0.0
 70
0
  0
SEQEND
  8
Layer 1
  0
POLYLINE
  8
Layer 1
 62
7
 66
1
 10
0.0
 20
0.0
 30
0.0
 70
0
  0
VERTEX
  8
Layer 1
 10
31.820174802371234
 20
13.152535691311368
 30
0.0
 70
0
  0
VERTEX
  8
Layer 1
 10
31.87900029291486
 20
13.011249066832479
 30
0.0
 70
0
  0
VERTEX
  8
Layer 1
 10
32.01951288046477
 20
12.953192933294593
 30
0.0
 70
0
  0
SEQEND
  8
Layer 1
  0
POLYLINE
  8
Layer 1
 62
7
 66
1
 10
0.0
 20
0.0
 30
0.0
 70
0
  0
VERTEX
  8
Layer 1
 10
32.021568048321676
 20
13.351877672605504
 30
0.0
 70
0
  0
VERTEX
  8
Layer 1
 10
31.837403726559394
 20
13.228820728428094
 30
0.0
 70
0
  0
VERTEX
  8
Layer 1
 10
31.88061429095215
 20
13.011579173953404
 30
0.0
 70
0
  0
VERTEX
  8
Layer 1
 10
32.097851591745
 20
12.968366986740257
 30
0.0
 70
0
  0
VERTEX
  8
Layer 1
 10
32.220906903122646
 20
13.152535691311368
 30
0.0
 70
0
  0
VERTEX
  8
Layer 1
 10
32.162521805691206
 20
13.293492208669333
 30
0.0
 70
0
  0
VERTEX
  8
Layer 1
 10
32.021568048321676
 20
13.351877672605504
 30
0.0
 70
0
  0
VERTEX
  8
Layer 1
 10
32.021568048321676
 20
13.351877672605504
 30
0.0
 70
0
  0
SEQEND
  8
Layer 1
  0
POLYLINE
  8
Layer 1
 62
7
 66
1
 10
0.0
 20
0.0
 30
0.0
 70
0
  0
VERTEX
  8
Layer 1
 10
29.220554455483043
 20
8.658084520161207
 30
0.0
 70
0
  0
VERTEX
  8
Layer 1
 10
29.161728964939407
 20
8.79937036791746
 30
0.0
 70
0
  0
VERTEX
  8
Layer 1
 10
29.021215600682073
 20
8.857426501455343
 30
0.0
 70
0
  0
SEQEND
  8
Layer 1
  0
POLYLINE
  8
Layer 1
 62
7
 66
1
 10
0.0
 20
0.0
 30
0.0
 70
0
  0
VERTEX
  8
Layer 1
 10
29.021215600682073
 20
8.458741762144433
 30
0.0
 70
0
  0
VERTEX
  8
Layer 1
 10
29.162499458708893
 20
8.517568404538691
 30
0.0
 70
0
  0
VERTEX
  8
Layer 1
 10
29.220554455483043
 20
8.658084520161207
 30
0.0
 70
0
  0
SEQEND
  8
Layer 1
  0
POLYLINE
  8
Layer 1
 62
7
 66
1
 10
0.0
 20
0.0
 30
0.0
 70
0
  0
VERTEX
  8
Layer 1
 10
29.021215600682073
 20
8.857426501455343
 30
0.0
 70
0
  0
VERTEX
  8
Layer 1
 10
28.87993174265526
 20
8.798599859061087
 30
0.0
 70
0
  0
VERTEX
  8
Layer 1
 10
28.821877522588537
 20
8.658084520161207
 30
0.0
 70
0
  0
VERTEX
  8
Layer 1
 10
29.021215600682073
 20
8.458741762144433
 30
0.0
 70
0
  0
SEQEND
  8
Layer 1
  0
POLYLINE
  8
Layer 1
 62
7
 66
1
 10
0.0
 20
0.0
 30
0.0
 70
0
  0
VERTEX
  8
Layer 1
 10
29.021215600682073
 20
8.857426501455343
 30
0.0
 70
0
  0
VERTEX
  8
Layer 1
 10
28.837051278919795
 20
8.734369557277933
 30
0.0
 70
0
  0
VERTEX
  8
Layer 1
 10
28.880261843312546
 20
8.517128002803243
 30
0.0
 70
0
  0
VERTEX
  8
Layer 1
 10
29.097499144105402
 20
8.473915815590097
 30
0.0
 70
0
  0
VERTEX
  8
Layer 1
 10
29.220554455483043
 20
8.658084520161207
 30
0.0
 70
0
  0
VERTEX
  8
Layer 1
 10
29.162169358051607
 20
8.799040260796534
 30
0.0
 70
0
  0
VERTEX
  8
Layer 1
 10
29.021215600682073
 20
8.857426501455343
 30
0.0
 70
0
  0
VERTEX
  8
Layer 1
 10
29.021215600682073
 20
8.857426501455343
 30
0.0
 70
0
  0
SEQEND
  8
Layer 1
  0
POLYLINE
  8
Layer 1
 62
7
 66
1
 10
0.0
 20
0.0
 30
0.0
 70
0
  0
VERTEX
  8
Layer 1
 10
32.021568048321676
 20
9.958947360626572
 30
0.0
 70
0
  0
VERTEX
  8
Layer 1
 10
32.16285190634849
 20
10.017774003020829
 30
0.0
 70
0
  0
VERTEX
  8
Layer 1
 10
32.220906903122646
 20
10.158289341920709
 30
0.0
 70
0
  0
VERTEX
  8
Layer 1
 10
32.021568048321676
 20
10.357632099937483
 30
0.0
 70
0
  0
SEQEND
  8
Layer 1
  0
POLYLINE
  8
Layer 1
 62
7
 66
1
 10
0.0
 20
0.0
 30
0.0
 70
0
  0
VERTEX
  8
Layer 1
 10
31.820174802371234
 20
10.158289341920709
 30
0.0
 70
0
  0
VERTEX
  8
Layer 1
 10
31.87900029291486
 20
10.017003494164456
 30
0.0
 70
0
  0
VERTEX
  8
Layer 1
 10
32.01951288046477
 20
9.958947360626572
 30
0.0
 70
0
  0
SEQEND
  8
Layer 1
  0
POLYLINE
  8
Layer 1
 62
7
 66
1
 10
0.0
 20
0.0
 30
0.0
 70
0
  0
VERTEX
  8
Layer 1
 10
32.021568048321676
 20
10.357632099937483
 30
0.0
 70
0
  0
VERTEX
  8
Layer 1
 10
31.837403726559394
 20
10.234574379037436
 30
0.0
 70
0
  0
VERTEX
  8
Layer 1
 10
31.88061429095215
 20
10.017333601285381
 30
0.0
 70
0
  0
VERTEX
  8
Layer 1
 10
32.097851591745
 20
9.974121414072235
 30
0.0
 70
0
  0
VERTEX
  8
Layer 1
 10
32.220906903122646
 20
10.158289341920709
 30
0.0
 70
0
  0
VERTEX
  8
Layer 1
 10
32.162521805691206
 20
10.299245859278674
 30
0.0
 70
0
  0
VERTEX
  8
Layer 1
 10
32.021568048321676
 20
10.357632099937483
 30
0.0
 70
0
  0
VERTEX
  8
Layer 1
 10
32.021568048321676
 20
10.357632099937483
 30
0.0
 70
0
  0
SEQEND
  8
Layer 1
  0
POLYLINE
  8
Layer 1
 62
7
 66
1
 10
0.0
 20
0.0
 30
0.0
 70
0
  0
VERTEX
  8
Layer 1
 10
32.021568048321676
 20
6.964701787958551
 30
0.0
 70
0
  0
VERTEX
  8
Layer 1
 10
32.16285190634849
 20
7.023528430352807
 30
0.0
 70
0
  0
VERTEX
  8
Layer 1
 10
32.220906903122646
 20
7.164043769252688
 30
0.0
 70
0
  0
VERTEX
  8
Layer 1
 10
32.021568048321676
 20
7.363386527269462
 30
0.0
 70
0
  0
SEQEND
  8
Layer 1
  0
POLYLINE
  8
Layer 1
 62
7
 66
1
 10
0.0
 20
0.0
 30
0.0
 70
0
  0
VERTEX
  8
Layer 1
 10
31.820174802371234
 20
7.164043769252688
 30
0.0
 70
0
  0
VERTEX
  8
Layer 1
 10
31.87900029291486
 20
7.022757144773798
 30
0.0
 70
0
  0
VERTEX
  8
Layer 1
 10
32.01951288046477
 20
6.964701787958551
 30
0.0
 70
0
  0
SEQEND
  8
Layer 1
  0
POLYLINE
  8
Layer 1
 62
7
 66
1
 10
0.0
 20
0.0
 30
0.0
 70
0
  0
VERTEX
  8
Layer 1
 10
32.021568048321676
 20
7.363386527269462
 30
0.0
 70
0
  0
VERTEX
  8
Layer 1
 10
31.837403726559394
 20
7.240328806369416
 30
0.0
 70
0
  0
VERTEX
  8
Layer 1
 10
31.88061429095215
 20
7.023087251894723
 30
0.0
 70
0
  0
VERTEX
  8
Layer 1
 10
32.097851591745
 20
6.979875841404215
 30
0.0
 70
0
  0
VERTEX
  8
Layer 1
 10
32.220906903122646
 20
7.164043769252688
 30
0.0
 70
0
  0
VERTEX
  8
Layer 1
 10
32.162521805691206
 20
7.305000286610652
 30
0.0
 70
0
  0
VERTEX
  8
Layer 1
 10
32.021568048321676
 20
7.363386527269462
 30
0.0
 70
0
  0
VERTEX
  8
Layer 1
 10
32.021568048321676
 20
7.363386527269462
 30
0.0
 70
0
  0
SEQEND
  8
Layer 1
  0
POLYLINE
  8
Layer 1
 62
7
 66
1
 10
0.0
 20
0.0
 30
0.0
 70
0
  0
VERTEX
  8
Layer 1
 10
47.22061319675631
 20
14.646575665497249
 30
0.0
 70
0
  0
VERTEX
  8
Layer 1
 10
47.16178770621268
 20
14.78786228997614
 30
0.0
 70
0
  0
VERTEX
  8
Layer 1
 10
47.02127434195534
 20
14.845918423514023
 30
0.0
 70
0
  0
SEQEND
  8
Layer 1
  0
POLYLINE
  8
Layer 1
 62
7
 66
1
 10
0.0
 20
0.0
 30
0.0
 70
0
  0
VERTEX
  8
Layer 1
 10
47.02127434195534
 20
14.447233684203113
 30
0.0
 70
0
  0
VERTEX
  8
Layer 1
 10
47.16255819998216
 20
14.50606032659737
 30
0.0
 70
0
  0
VERTEX
  8
Layer 1
 10
47.22061319675631
 20
14.646575665497249
 30
0.0
 70
0
  0
SEQEND
  8
Layer 1
  0
POLYLINE
  8
Layer 1
 62
7
 66
1
 10
0.0
 20
0.0
 30
0.0
 70
0
  0
VERTEX
  8
Layer 1
 10
47.02127434195534
 20
14.845918423514023
 30
0.0
 70
0
  0
VERTEX
  8
Layer 1
 10
46.87999048392852
 20
14.787091781119766
 30
0.0
 70
0
  0
VERTEX
  8
Layer 1
 10
46.8219362638618
 20
14.646575665497249
 30
0.0
 70
0
  0
VERTEX
  8
Layer 1
 10
47.02127434195534
 20
14.447233684203113
 30
0.0
 70
0
  0
SEQEND
  8
Layer 1
  0
POLYLINE
  8
Layer 1
 62
7
 66
1
 10
0.0
 20
0.0
 30
0.0
 70
0
  0
VERTEX
  8
Layer 1
 10
44.02092189431574
 20
15.947439282685252
 30
0.0
 70
0
  0
VERTEX
  8
Layer 1
 10
44.16220575234256
 20
16.00626514835687
 30
0.0
 70
0
  0
VERTEX
  8
Layer 1
 10
44.220260749116704
 20
16.14678126397939
 30
0.0
 70
0
  0
VERTEX
  8
Layer 1
 10
44.02092189431574
 20
16.34612402199616
 30
0.0
 70
0
  0
SEQEND
  8
Layer 1
  0
POLYLINE
  8
Layer 1
 62
7
 66
1
 10
0.0
 20
0.0
 30
0.0
 70
0
  0
VERTEX
  8
Layer 1
 10
43.82158381622221
 20
16.14678126397939
 30
0.0
 70
0
  0
VERTEX
  8
Layer 1
 10
43.880409306765834
 20
16.005494639500498
 30
0.0
 70
0
  0
VERTEX
  8
Layer 1
 10
44.02092189431574
 20
15.947439282685252
 30
0.0
 70
0
  0
SEQEND
  8
Layer 1
  0
POLYLINE
  8
Layer 1
 62
7
 66
1
 10
0.0
 20
0.0
 30
0.0
 70
0
  0
VERTEX
  8
Layer 1
 10
47.02127434195534
 20
14.845918423514023
 30
0.0
 70
0
  0
VERTEX
  8
Layer 1
 10
46.83711002019306
 20
14.722860702613977
 30
0.0
 70
0
  0
VERTEX
  8
Layer 1
 10
46.88032058458581
 20
14.505619148139283
 30
0.0
 70
0
  0
VERTEX
  8
Layer 1
 10
47.09755788537866
 20
14.462407737648775
 30
0.0
 70
0
  0
VERTEX
  8
Layer 1
 10
47.22061319675631
 20
14.646575665497249
 30
0.0
 70
0
  0
VERTEX
  8
Layer 1
 10
47.16222809932487
 20
14.787532182855212
 30
0.0
 70
0
  0
VERTEX
  8
Layer 1
 10
47.02127434195534
 20
14.845918423514023
 30
0.0
 70
0
  0
VERTEX
  8
Layer 1
 10
47.02127434195534
 20
14.845918423514023
 30
0.0
 70
0
  0
SEQEND
  8
Layer 1
  0
POLYLINE
  8
Layer 1
 62
7
 66
1
 10
0.0
 20
0.0
 30
0.0
 70
0
  0
VERTEX
  8
Layer 1
 10
44.02092189431574
 20
16.34612402199616
 30
0.0
 70
0
  0
VERTEX
  8
Layer 1
 10
43.83675757255346
 20
16.223066301096114
 30
0.0
 70
0
  0
VERTEX
  8
Layer 1
 10
43.87996891365364
 20
16.005824746621425
 30
0.0
 70
0
  0
VERTEX
  8
Layer 1
 10
44.09720543773906
 20
15.962613336130914
 30
0.0
 70
0
  0
VERTEX
  8
Layer 1
 10
44.220260749116704
 20
16.14678126397939
 30
0.0
 70
0
  0
VERTEX
  8
Layer 1
 10
44.16187565168527
 20
16.287737781337352
 30
0.0
 70
0
  0
VERTEX
  8
Layer 1
 10
44.02092189431574
 20
16.34612402199616
 30
0.0
 70
0
  0
VERTEX
  8
Layer 1
 10
44.02092189431574
 20
16.34612402199616
 30
0.0
 70
0
  0
SEQEND
  8
Layer 1
  0
POLYLINE
  8
Layer 1
 62
7
 66
1
 10
0.0
 20
0.0
 30
0.0
 70
0
  0
VERTEX
  8
Layer 1
 10
53.22131731532808
 20
14.646575665497249
 30
0.0
 70
0
  0
VERTEX
  8
Layer 1
 10
53.162491824784446
 20
14.78786228997614
 30
0.0
 70
0
  0
VERTEX
  8
Layer 1
 10
53.02197923723455
 20
14.845918423514023
 30
0.0
 70
0
  0
SEQEND
  8
Layer 1
  0
POLYLINE
  8
Layer 1
 62
7
 66
1
 10
0.0
 20
0.0
 30
0.0
 70
0
  0
VERTEX
  8
Layer 1
 10
53.019924069377645
 20
14.447233684203113
 30
0.0
 70
0
  0
VERTEX
  8
Layer 1
 10
53.161207927404455
 20
14.50606032659737
 30
0.0
 70
0
  0
VERTEX
  8
Layer 1
 10
53.2192629241786
 20
14.646575665497249
 30
0.0
 70
0
  0
SEQEND
  8
Layer 1
  0
POLYLINE
  8
Layer 1
 62
7
 66
1
 10
0.0
 20
0.0
 30
0.0
 70
0
  0
VERTEX
  8
Layer 1
 10
53.019924069377645
 20
14.845918423514023
 30
0.0
 70
0
  0
VERTEX
  8
Layer 1
 10
52.87864021135081
 20
14.787091781119766
 30
0.0
 70
0
  0
VERTEX
  8
Layer 1
 10
52.820585214576674
 20
14.646575665497249
 30
0.0
 70
0
  0
VERTEX
  8
Layer 1
 10
53.019924069377645
 20
14.447233684203113
 30
0.0
 70
0
  0
SEQEND
  8
Layer 1
  0
POLYLINE
  8
Layer 1
 62
7
 66
1
 10
0.0
 20
0.0
 30
0.0
 70
0
  0
VERTEX
  8
Layer 1
 10
50.02162678959494
 20
15.947439282685252
 30
0.0
 70
0
  0
VERTEX
  8
Layer 1
 10
50.16291064762176
 20
16.00626514835687
 30
0.0
 70
0
  0
VERTEX
  8
Layer 1
 10
50.22096564439591
 20
16.14678126397939
 30
0.0
 70
0
  0
VERTEX
  8
Layer 1
 10
50.02162678959494
 20
16.34612402199616
 30
0.0
 70
0
  0
SEQEND
  8
Layer 1
  0
POLYLINE
  8
Layer 1
 62
7
 66
1
 10
0.0
 20
0.0
 30
0.0
 70
0
  0
VERTEX
  8
Layer 1
 10
49.820233543644505
 20
16.14678126397939
 30
0.0
 70
0
  0
VERTEX
  8
Layer 1
 10
49.879059034188124
 20
16.005494639500498
 30
0.0
 70
0
  0
VERTEX
  8
Layer 1
 10
50.01957162173804
 20
15.947439282685252
 30
0.0
 70
0
  0
SEQEND
  8
Layer 1
  0
POLYLINE
  8
Layer 1
 62
7
 66
1
 10
0.0
 20
0.0
 30
0.0
 70
0
  0
VERTEX
  8
Layer 1
 10
53.019924069377645
 20
14.845918423514023
 30
0.0
 70
0
  0
VERTEX
  8
Layer 1
 10
52.83575897090793
 20
14.722860702613977
 30
0.0
 70
0
  0
VERTEX
  8
Layer 1
 10
52.87897031200811
 20
14.505619148139283
 30
0.0
 70
0
  0
VERTEX
  8
Layer 1
 10
53.09620761280096
 20
14.462407737648775
 30
0.0
 70
0
  0
VERTEX
  8
Layer 1
 10
53.2192629241786
 20
14.646575665497249
 30
0.0
 70
0
  0
VERTEX
  8
Layer 1
 10
53.16087782674716
 20
14.787532182855212
 30
0.0
 70
0
  0
VERTEX
  8
Layer 1
 10
53.019924069377645
 20
14.845918423514023
 30
0.0
 70
0
  0
VERTEX
  8
Layer 1
 10
53.019924069377645
 20
14.845918423514023
 30
0.0
 70
0
  0
SEQEND
  8
Layer 1
  0
POLYLINE
  8
Layer 1
 62
7
 66
1
 10
0.0
 20
0.0
 30
0.0
 70
0
  0
VERTEX
  8
Layer 1
 10
50.02162678959494
 20
16.34612402199616
 30
0.0
 70
0
  0
VERTEX
  8
Layer 1
 10
49.83746169112523
 20
16.223066301096114
 30
0.0
 70
0
  0
VERTEX
  8
Layer 1
 10
49.88067303222541
 20
16.005824746621425
 30
0.0
 70
0
  0
VERTEX
  8
Layer 1
 10
50.09791033301826
 20
15.962613336130914
 30
0.0
 70
0
  0
VERTEX
  8
Layer 1
 10
50.22096564439591
 20
16.14678126397939
 30
0.0
 70
0
  0
VERTEX
  8
Layer 1
 10
50.16258054696447
 20
16.287737781337352
 30
0.0
 70
0
  0
VERTEX
  8
Layer 1
 10
50.02162678959494
 20
16.34612402199616
 30
0.0
 70
0
  0
VERTEX
  8
Layer 1
 10
50.02162678959494
 20
16.34612402199616
 30
0.0
 70
0
  0
SEQEND
  8
Layer 1
  0
POLYLINE
  8
Layer 1
 62
7
 66
1
 10
0.0
 20
0.0
 30
0.0
 70
0
  0
VERTEX
  8
Layer 1
 10
59.219967042750376
 20
14.646575665497249
 30
0.0
 70
0
  0
VERTEX
  8
Layer 1
 10
59.16114155220674
 20
14.78786228997614
 30
0.0
 70
0
  0
VERTEX
  8
Layer 1
 10
59.02062896465683
 20
14.845918423514023
 30
0.0
 70
0
  0
SEQEND
  8
Layer 1
  0
POLYLINE
  8
Layer 1
 62
7
 66
1
 10
0.0
 20
0.0
 30
0.0
 70
0
  0
VERTEX
  8
Layer 1
 10
59.02062896465683
 20
14.447233684203113
 30
0.0
 70
0
  0
VERTEX
  8
Layer 1
 10
59.16191204597622
 20
14.50606032659737
 30
0.0
 70
0
  0
VERTEX
  8
Layer 1
 10
59.219967042750376
 20
14.646575665497249
 30
0.0
 70
0
  0
SEQEND
  8
Layer 1
  0
POLYLINE
  8
Layer 1
 62
7
 66
1
 10
0.0
 20
0.0
 30
0.0
 70
0
  0
VERTEX
  8
Layer 1
 10
59.02062896465683
 20
14.845918423514023
 30
0.0
 70
0
  0
VERTEX
  8
Layer 1
 10
58.87934510663002
 20
14.787091781119766
 30
0.0
 70
0
  0
VERTEX
  8
Layer 1
 10
58.82129010985587
 20
14.646575665497249
 30
0.0
 70
0
  0
VERTEX
  8
Layer 1
 10
59.02062896465683
 20
14.447233684203113
 30
0.0
 70
0
  0
SEQEND
  8
Layer 1
  0
POLYLINE
  8
Layer 1
 62
7
 66
1
 10
0.0
 20
0.0
 30
0.0
 70
0
  0
VERTEX
  8
Layer 1
 10
56.02027651701724
 20
15.947439282685252
 30
0.0
 70
0
  0
VERTEX
  8
Layer 1
 10
56.161560375044054
 20
16.00626514835687
 30
0.0
 70
0
  0
VERTEX
  8
Layer 1
 10
56.21961459511077
 20
16.14678126397939
 30
0.0
 70
0
  0
VERTEX
  8
Layer 1
 10
56.02027651701724
 20
16.34612402199616
 30
0.0
 70
0
  0
SEQEND
  8
Layer 1
  0
POLYLINE
  8
Layer 1
 62
7
 66
1
 10
0.0
 20
0.0
 30
0.0
 70
0
  0
VERTEX
  8
Layer 1
 10
55.82093766221627
 20
16.14678126397939
 30
0.0
 70
0
  0
VERTEX
  8
Layer 1
 10
55.8797631527599
 20
16.005494639500498
 30
0.0
 70
0
  0
VERTEX
  8
Layer 1
 10
56.02027651701724
 20
15.947439282685252
 30
0.0
 70
0
  0
SEQEND
  8
Layer 1
  0
POLYLINE
  8
Layer 1
 62
7
 66
1
 10
0.0
 20
0.0
 30
0.0
 70
0
  0
VERTEX
  8
Layer 1
 10
59.02062896465683
 20
14.845918423514023
 30
0.0
 70
0
  0
VERTEX
  8
Layer 1
 10
58.836463866187124
 20
14.722860702613977
 30
0.0
 70
0
  0
VERTEX
  8
Layer 1
 10
58.87967520728731
 20
14.505619148139283
 30
0.0
 70
0
  0
VERTEX
  8
Layer 1
 10
59.09691250808015
 20
14.462407737648775
 30
0.0
 70
0
  0
VERTEX
  8
Layer 1
 10
59.219967042750376
 20
14.646575665497249
 30
0.0
 70
0
  0
VERTEX
  8
Layer 1
 10
59.161581945318936
 20
14.787532182855212
 30
0.0
 70
0
  0
VERTEX
  8
Layer 1
 10
59.02062896465683
 20
14.845918423514023
 30
0.0
 70
0
  0
VERTEX
  8
Layer 1
 10
59.02062896465683
 20
14.845918423514023
 30
0.0
 70
0
  0
SEQEND
  8
Layer 1
  0
POLYLINE
  8
Layer 1
 62
7
 66
1
 10
0.0
 20
0.0
 30
0.0
 70
0
  0
VERTEX
  8
Layer 1
 10
56.02027651701724
 20
16.34612402199616
 30
0.0
 70
0
  0
VERTEX
  8
Layer 1
 10
55.836111418547524
 20
16.223066301096114
 30
0.0
 70
0
  0
VERTEX
  8
Layer 1
 10
55.87932275964771
 20
16.005824746621425
 30
0.0
 70
0
  0
VERTEX
  8
Layer 1
 10
56.09656006044056
 20
15.962613336130914
 30
0.0
 70
0
  0
VERTEX
  8
Layer 1
 10
56.21961459511077
 20
16.14678126397939
 30
0.0
 70
0
  0
VERTEX
  8
Layer 1
 10
56.16123027438677
 20
16.287737781337352
 30
0.0
 70
0
  0
VERTEX
  8
Layer 1
 10
56.02027651701724
 20
16.34612402199616
 30
0.0
 70
0
  0
VERTEX
  8
Layer 1
 10
56.02027651701724
 20
16.34612402199616
 30
0.0
 70
0
  0
SEQEND
  8
Layer 1
  0
POLYLINE
  8
Layer 1
 62
7
 66
1
 10
0.0
 20
0.0
 30
0.0
 70
0
  0
VERTEX
  8
Layer 1
 10
62.02098063558901
 20
15.947439282685252
 30
0.0
 70
0
  0
VERTEX
  8
Layer 1
 10
62.16226449361583
 20
16.00626514835687
 30
0.0
 70
0
  0
VERTEX
  8
Layer 1
 10
62.22031949038997
 20
16.14678126397939
 30
0.0
 70
0
  0
VERTEX
  8
Layer 1
 10
62.02098063558901
 20
16.34612402199616
 30
0.0
 70
0
  0
SEQEND
  8
Layer 1
  0
POLYLINE
  8
Layer 1
 62
7
 66
1
 10
0.0
 20
0.0
 30
0.0
 70
0
  0
VERTEX
  8
Layer 1
 10
61.82164255749547
 20
16.14678126397939
 30
0.0
 70
0
  0
VERTEX
  8
Layer 1
 10
61.880468048039106
 20
16.005494639500498
 30
0.0
 70
0
  0
VERTEX
  8
Layer 1
 10
62.02098063558901
 20
15.947439282685252
 30
0.0
 70
0
  0
SEQEND
  8
Layer 1
  0
POLYLINE
  8
Layer 1
 62
7
 66
1
 10
0.0
 20
0.0
 30
0.0
 70
0
  0
VERTEX
  8
Layer 1
 10
62.02098063558901
 20
16.34612402199616
 30
0.0
 70
0
  0
VERTEX
  8
Layer 1
 10
61.83681631382673
 20
16.223066301096114
 30
0.0
 70
0
  0
VERTEX
  8
Layer 1
 10
61.880027654926906
 20
16.005824746621425
 30
0.0
 70
0
  0
VERTEX
  8
Layer 1
 10
62.097264179012335
 20
15.962613336130914
 30
0.0
 70
0
  0
VERTEX
  8
Layer 1
 10
62.22031949038997
 20
16.14678126397939
 30
0.0
 70
0
  0
VERTEX
  8
Layer 1
 10
62.161934392958536
 20
16.287737781337352
 30
0.0
 70
0
  0
VERTEX
  8
Layer 1
 10
62.02098063558901
 20
16.34612402199616
 30
0.0
 70
0
  0
VERTEX
  8
Layer 1
 10
62.02098063558901
 20
16.34612402199616
 30
0.0
 70
0
  0
SEQEND
  8
Layer 1
  0
POLYLINE
  8
Layer 1
 62
7
 66
1
 10
0.0
 20
0.0
 30
0.0
 70
0
  0
VERTEX
  8
Layer 1
 10
47.22061319675631
 20
11.652330092829228
 30
0.0
 70
0
  0
VERTEX
  8
Layer 1
 10
47.16178770621268
 20
11.793616717308119
 30
0.0
 70
0
  0
VERTEX
  8
Layer 1
 10
47.02127434195534
 20
11.851672074123366
 30
0.0
 70
0
  0
SEQEND
  8
Layer 1
  0
POLYLINE
  8
Layer 1
 62
7
 66
1
 10
0.0
 20
0.0
 30
0.0
 70
0
  0
VERTEX
  8
Layer 1
 10
47.02127434195534
 20
11.452987334812454
 30
0.0
 70
0
  0
VERTEX
  8
Layer 1
 10
47.16255819998216
 20
11.51181397720671
 30
0.0
 70
0
  0
VERTEX
  8
Layer 1
 10
47.22061319675631
 20
11.652330092829228
 30
0.0
 70
0
  0
SEQEND
  8
Layer 1
  0
POLYLINE
  8
Layer 1
 62
7
 66
1
 10
0.0
 20
0.0
 30
0.0
 70
0
  0
VERTEX
  8
Layer 1
 10
47.02127434195534
 20
11.851672074123366
 30
0.0
 70
0
  0
VERTEX
  8
Layer 1
 10
46.87999048392852
 20
11.792846208451746
 30
0.0
 70
0
  0
VERTEX
  8
Layer 1
 10
46.8219362638618
 20
11.652330092829228
 30
0.0
 70
0
  0
VERTEX
  8
Layer 1
 10
47.02127434195534
 20
11.452987334812454
 30
0.0
 70
0
  0
SEQEND
  8
Layer 1
  0
POLYLINE
  8
Layer 1
 62
7
 66
1
 10
0.0
 20
0.0
 30
0.0
 70
0
  0
VERTEX
  8
Layer 1
 10
44.02092189431574
 20
12.953192933294593
 30
0.0
 70
0
  0
VERTEX
  8
Layer 1
 10
44.16220575234256
 20
13.012019575688848
 30
0.0
 70
0
  0
VERTEX
  8
Layer 1
 10
44.220260749116704
 20
13.152535691311368
 30
0.0
 70
0
  0
VERTEX
  8
Layer 1
 10
44.02092189431574
 20
13.351877672605504
 30
0.0
 70
0
  0
SEQEND
  8
Layer 1
  0
POLYLINE
  8
Layer 1
 62
7
 66
1
 10
0.0
 20
0.0
 30
0.0
 70
0
  0
VERTEX
  8
Layer 1
 10
43.82158381622221
 20
13.152535691311368
 30
0.0
 70
0
  0
VERTEX
  8
Layer 1
 10
43.880409306765834
 20
13.011249066832479
 30
0.0
 70
0
  0
VERTEX
  8
Layer 1
 10
44.02092189431574
 20
12.953192933294593
 30
0.0
 70
0
  0
SEQEND
  8
Layer 1
  0
POLYLINE
  8
Layer 1
 62
7
 66
1
 10
0.0
 20
0.0
 30
0.0
 70
0
  0
VERTEX
  8
Layer 1
 10
47.02127434195534
 20
11.851672074123366
 30
0.0
 70
0
  0
VERTEX
  8
Layer 1
 10
46.83711002019306
 20
11.728615129945954
 30
0.0
 70
0
  0
VERTEX
  8
Layer 1
 10
46.88032058458581
 20
11.511373575471262
 30
0.0
 70
0
  0
VERTEX
  8
Layer 1
 10
47.09755788537866
 20
11.468161388258117
 30
0.0
 70
0
  0
VERTEX
  8
Layer 1
 10
47.22061319675631
 20
11.652330092829228
 30
0.0
 70
0
  0
VERTEX
  8
Layer 1
 10
47.16222809932487
 20
11.793286610187193
 30
0.0
 70
0
  0
VERTEX
  8
Layer 1
 10
47.02127434195534
 20
11.851672074123366
 30
0.0
 70
0
  0
VERTEX
  8
Layer 1
 10
47.02127434195534
 20
11.851672074123366
 30
0.0
 70
0
  0
SEQEND
  8
Layer 1
  0
POLYLINE
  8
Layer 1
 62
7
 66
1
 10
0.0
 20
0.0
 30
0.0
 70
0
  0
VERTEX
  8
Layer 1
 10
44.02092189431574
 20
13.351877672605504
 30
0.0
 70
0
  0
VERTEX
  8
Layer 1
 10
43.83675757255346
 20
13.228820728428094
 30
0.0
 70
0
  0
VERTEX
  8
Layer 1
 10
43.87996891365364
 20
13.011579173953404
 30
0.0
 70
0
  0
VERTEX
  8
Layer 1
 10
44.09720543773906
 20
12.968366986740257
 30
0.0
 70
0
  0
VERTEX
  8
Layer 1
 10
44.220260749116704
 20
13.152535691311368
 30
0.0
 70
0
  0
VERTEX
  8
Layer 1
 10
44.16187565168527
 20
13.293492208669333
 30
0.0
 70
0
  0
VERTEX
  8
Layer 1
 10
44.02092189431574
 20
13.351877672605504
 30
0.0
 70
0
  0
VERTEX
  8
Layer 1
 10
44.02092189431574
 20
13.351877672605504
 30
0.0
 70
0
  0
SEQEND
  8
Layer 1
  0
POLYLINE
  8
Layer 1
 62
7
 66
1
 10
0.0
 20
0.0
 30
0.0
 70
0
  0
VERTEX
  8
Layer 1
 10
53.22131731532808
 20
11.652330092829228
 30
0.0
 70
0
  0
VERTEX
  8
Layer 1
 10
53.162491824784446
 20
11.793616717308119
 30
0.0
 70
0
  0
VERTEX
  8
Layer 1
 10
53.02197923723455
 20
11.851672074123366
 30
0.0
 70
0
  0
SEQEND
  8
Layer 1
  0
POLYLINE
  8
Layer 1
 62
7
 66
1
 10
0.0
 20
0.0
 30
0.0
 70
0
  0
VERTEX
  8
Layer 1
 10
53.019924069377645
 20
11.452987334812454
 30
0.0
 70
0
  0
VERTEX
  8
Layer 1
 10
53.161207927404455
 20
11.51181397720671
 30
0.0
 70
0
  0
VERTEX
  8
Layer 1
 10
53.2192629241786
 20
11.652330092829228
 30
0.0
 70
0
  0
SEQEND
  8
Layer 1
  0
POLYLINE
  8
Layer 1
 62
7
 66
1
 10
0.0
 20
0.0
 30
0.0
 70
0
  0
VERTEX
  8
Layer 1
 10
53.019924069377645
 20
11.851672074123366
 30
0.0
 70
0
  0
VERTEX
  8
Layer 1
 10
52.87864021135081
 20
11.792846208451746
 30
0.0
 70
0
  0
VERTEX
  8
Layer 1
 10
52.820585214576674
 20
11.652330092829228
 30
0.0
 70
0
  0
VERTEX
  8
Layer 1
 10
53.019924069377645
 20
11.452987334812454
 30
0.0
 70
0
  0
SEQEND
  8
Layer 1
  0
POLYLINE
  8
Layer 1
 62
7
 66
1
 10
0.0
 20
0.0
 30
0.0
 70
0
  0
VERTEX
  8
Layer 1
 10
50.02162678959494
 20
12.953192933294593
 30
0.0
 70
0
  0
VERTEX
  8
Layer 1
 10
50.16291064762176
 20
13.012019575688848
 30
0.0
 70
0
  0
VERTEX
  8
Layer 1
 10
50.22096564439591
 20
13.152535691311368
 30
0.0
 70
0
  0
VERTEX
  8
Layer 1
 10
50.02162678959494
 20
13.351877672605504
 30
0.0
 70
0
  0
SEQEND
  8
Layer 1
  0
POLYLINE
  8
Layer 1
 62
7
 66
1
 10
0.0
 20
0.0
 30
0.0
 70
0
  0
VERTEX
  8
Layer 1
 10
49.820233543644505
 20
13.152535691311368
 30
0.0
 70
0
  0
VERTEX
  8
Layer 1
 10
49.879059034188124
 20
13.011249066832479
 30
0.0
 70
0
  0
VERTEX
  8
Layer 1
 10
50.01957162173804
 20
12.953192933294593
 30
0.0
 70
0
  0
SEQEND
  8
Layer 1
  0
POLYLINE
  8
Layer 1
 62
7
 66
1
 10
0.0
 20
0.0
 30
0.0
 70
0
  0
VERTEX
  8
Layer 1
 10
53.019924069377645
 20
11.851672074123366
 30
0.0
 70
0
  0
VERTEX
  8
Layer 1
 10
52.83575897090793
 20
11.728615129945954
 30
0.0
 70
0
  0
VERTEX
  8
Layer 1
 10
52.87897031200811
 20
11.511373575471262
 30
0.0
 70
0
  0
VERTEX
  8
Layer 1
 10
53.09620761280096
 20
11.468161388258117
 30
0.0
 70
0
  0
VERTEX
  8
Layer 1
 10
53.2192629241786
 20
11.652330092829228
 30
0.0
 70
0
  0
VERTEX
  8
Layer 1
 10
53.16087782674716
 20
11.793286610187193
 30
0.0
 70
0
  0
VERTEX
  8
Layer 1
 10
53.019924069377645
 20
11.851672074123366
 30
0.0
 70
0
  0
VERTEX
  8
Layer 1
 10
53.019924069377645
 20
11.851672074123366
 30
0.0
 70
0
  0
SEQEND
  8
Layer 1
  0
POLYLINE
  8
Layer 1
 62
7
 66
1
 10
0.0
 20
0.0
 30
0.0
 70
0
  0
VERTEX
  8
Layer 1
 10
50.02162678959494
 20
13.351877672605504
 30
0.0
 70
0
  0
VERTEX
  8
Layer 1
 10
49.83746169112523
 20
13.228820728428094
 30
0.0
 70
0
  0
VERTEX
  8
Layer 1
 10
49.88067303222541
 20
13.011579173953404
 30
0.0
 70
0
  0
VERTEX
  8
Layer 1
 10
50.09791033301826
 20
12.968366986740257
 30
0.0
 70
0
  0
VERTEX
  8
Layer 1
 10
50.22096564439591
 20
13.152535691311368
 30
0.0
 70
0
  0
VERTEX
  8
Layer 1
 10
50.16258054696447
 20
13.293492208669333
 30
0.0
 70
0
  0
VERTEX
  8
Layer 1
 10
50.02162678959494
 20
13.351877672605504
 30
0.0
 70
0
  0
VERTEX
  8
Layer 1
 10
50.02162678959494
 20
13.351877672605504
 30
0.0
 70
0
  0
SEQEND
  8
Layer 1
  0
POLYLINE
  8
Layer 1
 62
7
 66
1
 10
0.0
 20
0.0
 30
0.0
 70
0
  0
VERTEX
  8
Layer 1
 10
59.219967042750376
 20
11.652330092829228
 30
0.0
 70
0
  0
VERTEX
  8
Layer 1
 10
59.16114155220674
 20
11.793616717308119
 30
0.0
 70
0
  0
VERTEX
  8
Layer 1
 10
59.02062896465683
 20
11.851672074123366
 30
0.0
 70
0
  0
SEQEND
  8
Layer 1
  0
POLYLINE
  8
Layer 1
 62
7
 66
1
 10
0.0
 20
0.0
 30
0.0
 70
0
  0
VERTEX
  8
Layer 1
 10
59.02062896465683
 20
11.452987334812454
 30
0.0
 70
0
  0
VERTEX
  8
Layer 1
 10
59.16191204597622
 20
11.51181397720671
 30
0.0
 70
0
  0
VERTEX
  8
Layer 1
 10
59.219967042750376
 20
11.652330092829228
 30
0.0
 70
0
  0
SEQEND
  8
Layer 1
  0
POLYLINE
  8
Layer 1
 62
7
 66
1
 10
0.0
 20
0.0
 30
0.0
 70
0
  0
VERTEX
  8
Layer 1
 10
59.02062896465683
 20
11.851672074123366
 30
0.0
 70
0
  0
VERTEX
  8
Layer 1
 10
58.87934510663002
 20
11.792846208451746
 30
0.0
 70
0
  0
VERTEX
  8
Layer 1
 10
58.82129010985587
 20
11.652330092829228
 30
0.0
 70
0
  0
VERTEX
  8
Layer 1
 10
59.02062896465683
 20
11.452987334812454
 30
0.0
 70
0
  0
SEQEND
  8
Layer 1
  0
POLYLINE
  8
Layer 1
 62
7
 66
1
 10
0.0
 20
0.0
 30
0.0
 70
0
  0
VERTEX
  8
Layer 1
 10
56.02027651701724
 20
12.953192933294593
 30
0.0
 70
0
  0
VERTEX
  8
Layer 1
 10
56.161560375044054
 20
13.012019575688848
 30
0.0
 70
0
  0
VERTEX
  8
Layer 1
 10
56.21961459511077
 20
13.152535691311368
 30
0.0
 70
0
  0
VERTEX
  8
Layer 1
 10
56.02027651701724
 20
13.351877672605504
 30
0.0
 70
0
  0
SEQEND
  8
Layer 1
  0
POLYLINE
  8
Layer 1
 62
7
 66
1
 10
0.0
 20
0.0
 30
0.0
 70
0
  0
VERTEX
  8
Layer 1
 10
55.82093766221627
 20
13.152535691311368
 30
0.0
 70
0
  0
VERTEX
  8
Layer 1
 10
55.8797631527599
 20
13.011249066832479
 30
0.0
 70
0
  0
VERTEX
  8
Layer 1
 10
56.02027651701724
 20
12.953192933294593
 30
0.0
 70
0
  0
SEQEND
  8
Layer 1
  0
POLYLINE
  8
Layer 1
 62
7
 66
1
 10
0.0
 20
0.0
 30
0.0
 70
0
  0
VERTEX
  8
Layer 1
 10
59.02062896465683
 20
11.851672074123366
 30
0.0
 70
0
  0
VERTEX
  8
Layer 1
 10
58.836463866187124
 20
11.728615129945954
 30
0.0
 70
0
  0
VERTEX
  8
Layer 1
 10
58.87967520728731
 20
11.511373575471262
 30
0.0
 70
0
  0
VERTEX
  8
Layer 1
 10
59.09691250808015
 20
11.468161388258117
 30
0.0
 70
0
  0
VERTEX
  8
Layer 1
 10
59.219967042750376
 20
11.652330092829228
 30
0.0
 70
0
  0
VERTEX
  8
Layer 1
 10
59.161581945318936
 20
11.793286610187193
 30
0.0
 70
0
  0
VERTEX
  8
Layer 1
 10
59.02062896465683
 20
11.851672074123366
 30
0.0
 70
0
  0
VERTEX
  8
Layer 1
 10
59.02062896465683
 20
11.851672074123366
 30
0.0
 70
0
  0
SEQEND
  8
Layer 1
  0
POLYLINE
  8
Layer 1
 62
7
 66
1
 10
0.0
 20
0.0
 30
0.0
 70
0
  0
VERTEX
  8
Layer 1
 10
56.02027651701724
 20
13.351877672605504
 30
0.0
 70
0
  0
VERTEX
  8
Layer 1
 10
55.836111418547524
 20
13.228820728428094
 30
0.0
 70
0
  0
VERTEX
  8
Layer 1
 10
55.87932275964771
 20
13.011579173953404
 30
0.0
 70
0
  0
VERTEX
  8
Layer 1
 10
56.09656006044056
 20
12.968366986740257
 30
0.0
 70
0
  0
VERTEX
  8
Layer 1
 10
56.21961459511077
 20
13.152535691311368
 30
0.0
 70
0
  0
VERTEX
  8
Layer 1
 10
56.16123027438677
 20
13.293492208669333
 30
0.0
 70
0
  0
VERTEX
  8
Layer 1
 10
56.02027651701724
 20
13.351877672605504
 30
0.0
 70
0
  0
VERTEX
  8
Layer 1
 10
56.02027651701724
 20
13.351877672605504
 30
0.0
 70
0
  0
SEQEND
  8
Layer 1
  0
POLYLINE
  8
Layer 1
 62
7
 66
1
 10
0.0
 20
0.0
 30
0.0
 70
0
  0
VERTEX
  8
Layer 1
 10
62.02098063558901
 20
12.953192933294593
 30
0.0
 70
0
  0
VERTEX
  8
Layer 1
 10
62.16226449361583
 20
13.012019575688848
 30
0.0
 70
0
  0
VERTEX
  8
Layer 1
 10
62.22031949038997
 20
13.152535691311368
 30
0.0
 70
0
  0
VERTEX
  8
Layer 1
 10
62.02098063558901
 20
13.351877672605504
 30
0.0
 70
0
  0
SEQEND
  8
Layer 1
  0
POLYLINE
  8
Layer 1
 62
7
 66
1
 10
0.0
 20
0.0
 30
0.0
 70
0
  0
VERTEX
  8
Layer 1
 10
61.82164255749547
 20
13.152535691311368
 30
0.0
 70
0
  0
VERTEX
  8
Layer 1
 10
61.880468048039106
 20
13.011249066832479
 30
0.0
 70
0
  0
VERTEX
  8
Layer 1
 10
62.02098063558901
 20
12.953192933294593
 30
0.0
 70
0
  0
SEQEND
  8
Layer 1
  0
POLYLINE
  8
Layer 1
 62
7
 66
1
 10
0.0
 20
0.0
 30
0.0
 70
0
  0
VERTEX
  8
Layer 1
 10
62.02098063558901
 20
13.351877672605504
 30
0.0
 70
0
  0
VERTEX
  8
Layer 1
 10
61.83681631382673
 20
13.228820728428094
 30
0.0
 70
0
  0
VERTEX
  8
Layer 1
 10
61.880027654926906
 20
13.011579173953404
 30
0.0
 70
0
  0
VERTEX
  8
Layer 1
 10
62.097264179012335
 20
12.968366986740257
 30
0.0
 70
0
  0
VERTEX
  8
Layer 1
 10
62.22031949038997
 20
13.152535691311368
 30
0.0
 70
0
  0
VERTEX
  8
Layer 1
 10
62.161934392958536
 20
13.293492208669333
 30
0.0
 70
0
  0
VERTEX
  8
Layer 1
 10
62.02098063558901
 20
13.351877672605504
 30
0.0
 70
0
  0
VERTEX
  8
Layer 1
 10
62.02098063558901
 20
13.351877672605504
 30
0.0
 70
0
  0
SEQEND
  8
Layer 1
  0
POLYLINE
  8
Layer 1
 62
7
 66
1
 10
0.0
 20
0.0
 30
0.0
 70
0
  0
VERTEX
  8
Layer 1
 10
47.22061319675631
 20
8.658084520161207
 30
0.0
 70
0
  0
VERTEX
  8
Layer 1
 10
47.16178770621268
 20
8.79937036791746
 30
0.0
 70
0
  0
VERTEX
  8
Layer 1
 10
47.02127434195534
 20
8.857426501455343
 30
0.0
 70
0
  0
SEQEND
  8
Layer 1
  0
POLYLINE
  8
Layer 1
 62
7
 66
1
 10
0.0
 20
0.0
 30
0.0
 70
0
  0
VERTEX
  8
Layer 1
 10
47.02127434195534
 20
8.458741762144433
 30
0.0
 70
0
  0
VERTEX
  8
Layer 1
 10
47.16255819998216
 20
8.517568404538691
 30
0.0
 70
0
  0
VERTEX
  8
Layer 1
 10
47.22061319675631
 20
8.658084520161207
 30
0.0
 70
0
  0
SEQEND
  8
Layer 1
  0
POLYLINE
  8
Layer 1
 62
7
 66
1
 10
0.0
 20
0.0
 30
0.0
 70
0
  0
VERTEX
  8
Layer 1
 10
47.02127434195534
 20
8.857426501455343
 30
0.0
 70
0
  0
VERTEX
  8
Layer 1
 10
46.87999048392852
 20
8.798599859061087
 30
0.0
 70
0
  0
VERTEX
  8
Layer 1
 10
46.8219362638618
 20
8.658084520161207
 30
0.0
 70
0
  0
VERTEX
  8
Layer 1
 10
47.02127434195534
 20
8.458741762144433
 30
0.0
 70
0
  0
SEQEND
  8
Layer 1
  0
POLYLINE
  8
Layer 1
 62
7
 66
1
 10
0.0
 20
0.0
 30
0.0
 70
0
  0
VERTEX
  8
Layer 1
 10
44.02092189431574
 20
9.958947360626572
 30
0.0
 70
0
  0
VERTEX
  8
Layer 1
 10
44.16220575234256
 20
10.017774003020829
 30
0.0
 70
0
  0
VERTEX
  8
Layer 1
 10
44.220260749116704
 20
10.158289341920709
 30
0.0
 70
0
  0
VERTEX
  8
Layer 1
 10
44.02092189431574
 20
10.357632099937483
 30
0.0
 70
0
  0
SEQEND
  8
Layer 1
  0
POLYLINE
  8
Layer 1
 62
7
 66
1
 10
0.0
 20
0.0
 30
0.0
 70
0
  0
VERTEX
  8
Layer 1
 10
43.82158381622221
 20
10.158289341920709
 30
0.0
 70
0
  0
VERTEX
  8
Layer 1
 10
43.880409306765834
 20
10.017003494164456
 30
0.0
 70
0
  0
VERTEX
  8
Layer 1
 10
44.02092189431574
 20
9.958947360626572
 30
0.0
 70
0
  0
SEQEND
  8
Layer 1
  0
POLYLINE
  8
Layer 1
 62
7
 66
1
 10
0.0
 20
0.0
 30
0.0
 70
0
  0
VERTEX
  8
Layer 1
 10
47.02127434195534
 20
8.857426501455343
 30
0.0
 70
0
  0
VERTEX
  8
Layer 1
 10
46.83711002019306
 20
8.734369557277933
 30
0.0
 70
0
  0
VERTEX
  8
Layer 1
 10
46.88032058458581
 20
8.517128002803243
 30
0.0
 70
0
  0
VERTEX
  8
Layer 1
 10
47.09755788537866
 20
8.473915815590097
 30
0.0
 70
0
  0
VERTEX
  8
Layer 1
 10
47.22061319675631
 20
8.658084520161207
 30
0.0
 70
0
  0
VERTEX
  8
Layer 1
 10
47.16222809932487
 20
8.799040260796534
 30
0.0
 70
0
  0
VERTEX
  8
Layer 1
 10
47.02127434195534
 20
8.857426501455343
 30
0.0
 70
0
  0
VERTEX
  8
Layer 1
 10
47.02127434195534
 20
8.857426501455343
 30
0.0
 70
0
  0
SEQEND
  8
Layer 1
  0
POLYLINE
  8
Layer 1
 62
7
 66
1
 10
0.0
 20
0.0
 30
0.0
 70
0
  0
VERTEX
  8
Layer 1
 10
44.02092189431574
 20
10.357632099937483
 30
0.0
 70
0
  0
VERTEX
  8
Layer 1
 10
43.83675757255346
 20
10.234574379037436
 30
0.0
 70
0
  0
VERTEX
  8
Layer 1
 10
43.87996891365364
 20
10.017333601285381
 30
0.0
 70
0
  0
VERTEX
  8
Layer 1
 10
44.09720543773906
 20
9.974121414072235
 30
0.0
 70
0
  0
VERTEX
  8
Layer 1
 10
44.220260749116704
 20
10.158289341920709
 30
0.0
 70
0
  0
VERTEX
  8
Layer 1
 10
44.16187565168527
 20
10.299245859278674
 30
0.0
 70
0
  0
VERTEX
  8
Layer 1
 10
44.02092189431574
 20
10.357632099937483
 30
0.0
 70
0
  0
VERTEX
  8
Layer 1
 10
44.02092189431574
 20
10.357632099937483
 30
0.0
 70
0
  0
SEQEND
  8
Layer 1
  0
POLYLINE
  8
Layer 1
 62
7
 66
1
 10
0.0
 20
0.0
 30
0.0
 70
0
  0
VERTEX
  8
Layer 1
 10
53.22131731532808
 20
8.658084520161207
 30
0.0
 70
0
  0
VERTEX
  8
Layer 1
 10
53.162491824784446
 20
8.79937036791746
 30
0.0
 70
0
  0
VERTEX
  8
Layer 1
 10
53.02197923723455
 20
8.857426501455343
 30
0.0
 70
0
  0
SEQEND
  8
Layer 1
  0
POLYLINE
  8
Layer 1
 62
7
 66
1
 10
0.0
 20
0.0
 30
0.0
 70
0
  0
VERTEX
  8
Layer 1
 10
53.019924069377645
 20
8.458741762144433
 30
0.0
 70
0
  0
VERTEX
  8
Layer 1
 10
53.161207927404455
 20
8.517568404538691
 30
0.0
 70
0
  0
VERTEX
  8
Layer 1
 10
53.2192629241786
 20
8.658084520161207
 30
0.0
 70
0
  0
SEQEND
  8
Layer 1
  0
POLYLINE
  8
Layer 1
 62
7
 66
1
 10
0.0
 20
0.0
 30
0.0
 70
0
  0
VERTEX
  8
Layer 1
 10
53.019924069377645
 20
8.857426501455343
 30
0.0
 70
0
  0
VERTEX
  8
Layer 1
 10
52.87864021135081
 20
8.798599859061087
 30
0.0
 70
0
  0
VERTEX
  8
Layer 1
 10
52.820585214576674
 20
8.658084520161207
 30
0.0
 70
0
  0
VERTEX
  8
Layer 1
 10
53.019924069377645
 20
8.458741762144433
 30
0.0
 70
0
  0
SEQEND
  8
Layer 1
  0
POLYLINE
  8
Layer 1
 62
7
 66
1
 10
0.0
 20
0.0
 30
0.0
 70
0
  0
VERTEX
  8
Layer 1
 10
50.02162678959494
 20
9.958947360626572
 30
0.0
 70
0
  0
VERTEX
  8
Layer 1
 10
50.16291064762176
 20
10.017774003020829
 30
0.0
 70
0
  0
VERTEX
  8
Layer 1
 10
50.22096564439591
 20
10.158289341920709
 30
0.0
 70
0
  0
VERTEX
  8
Layer 1
 10
50.02162678959494
 20
10.357632099937483
 30
0.0
 70
0
  0
SEQEND
  8
Layer 1
  0
POLYLINE
  8
Layer 1
 62
7
 66
1
 10
0.0
 20
0.0
 30
0.0
 70
0
  0
VERTEX
  8
Layer 1
 10
49.820233543644505
 20
10.158289341920709
 30
0.0
 70
0
  0
VERTEX
  8
Layer 1
 10
49.879059034188124
 20
10.017003494164456
 30
0.0
 70
0
  0
VERTEX
  8
Layer 1
 10
50.01957162173804
 20
9.958947360626572
 30
0.0
 70
0
  0
SEQEND
  8
Layer 1
  0
POLYLINE
  8
Layer 1
 62
7
 66
1
 10
0.0
 20
0.0
 30
0.0
 70
0
  0
VERTEX
  8
Layer 1
 10
53.019924069377645
 20
8.857426501455343
 30
0.0
 70
0
  0
VERTEX
  8
Layer 1
 10
52.83575897090793
 20
8.734369557277933
 30
0.0
 70
0
  0
VERTEX
  8
Layer 1
 10
52.87897031200811
 20
8.517128002803243
 30
0.0
 70
0
  0
VERTEX
  8
Layer 1
 10
53.09620761280096
 20
8.473915815590097
 30
0.0
 70
0
  0
VERTEX
  8
Layer 1
 10
53.2192629241786
 20
8.658084520161207
 30
0.0
 70
0
  0
VERTEX
  8
Layer 1
 10
53.16087782674716
 20
8.799040260796534
 30
0.0
 70
0
  0
VERTEX
  8
Layer 1
 10
53.019924069377645
 20
8.857426501455343
 30
0.0
 70
0
  0
VERTEX
  8
Layer 1
 10
53.019924069377645
 20
8.857426501455343
 30
0.0
 70
0
  0
SEQEND
  8
Layer 1
  0
POLYLINE
  8
Layer 1
 62
7
 66
1
 10
0.0
 20
0.0
 30
0.0
 70
0
  0
VERTEX
  8
Layer 1
 10
50.02162678959494
 20
10.357632099937483
 30
0.0
 70
0
  0
VERTEX
  8
Layer 1
 10
49.83746169112523
 20
10.234574379037436
 30
0.0
 70
0
  0
VERTEX
  8
Layer 1
 10
49.88067303222541
 20
10.017333601285381
 30
0.0
 70
0
  0
VERTEX
  8
Layer 1
 10
50.09791033301826
 20
9.974121414072235
 30
0.0
 70
0
  0
VERTEX
  8
Layer 1
 10
50.22096564439591
 20
10.158289341920709
 30
0.0
 70
0
  0
VERTEX
  8
Layer 1
 10
50.16258054696447
 20
10.299245859278674
 30
0.0
 70
0
  0
VERTEX
  8
Layer 1
 10
50.02162678959494
 20
10.357632099937483
 30
0.0
 70
0
  0
VERTEX
  8
Layer 1
 10
50.02162678959494
 20
10.357632099937483
 30
0.0
 70
0
  0
SEQEND
  8
Layer 1
  0
POLYLINE
  8
Layer 1
 62
7
 66
1
 10
0.0
 20
0.0
 30
0.0
 70
0
  0
VERTEX
  8
Layer 1
 10
59.219967042750376
 20
8.658084520161207
 30
0.0
 70
0
  0
VERTEX
  8
Layer 1
 10
59.16114155220674
 20
8.79937036791746
 30
0.0
 70
0
  0
VERTEX
  8
Layer 1
 10
59.02062896465683
 20
8.857426501455343
 30
0.0
 70
0
  0
SEQEND
  8
Layer 1
  0
POLYLINE
  8
Layer 1
 62
7
 66
1
 10
0.0
 20
0.0
 30
0.0
 70
0
  0
VERTEX
  8
Layer 1
 10
59.02062896465683
 20
8.458741762144433
 30
0.0
 70
0
  0
VERTEX
  8
Layer 1
 10
59.16191204597622
 20
8.517568404538691
 30
0.0
 70
0
  0
VERTEX
  8
Layer 1
 10
59.219967042750376
 20
8.658084520161207
 30
0.0
 70
0
  0
SEQEND
  8
Layer 1
  0
POLYLINE
  8
Layer 1
 62
7
 66
1
 10
0.0
 20
0.0
 30
0.0
 70
0
  0
VERTEX
  8
Layer 1
 10
59.02062896465683
 20
8.857426501455343
 30
0.0
 70
0
  0
VERTEX
  8
Layer 1
 10
58.87934510663002
 20
8.798599859061087
 30
0.0
 70
0
  0
VERTEX
  8
Layer 1
 10
58.82129010985587
 20
8.658084520161207
 30
0.0
 70
0
  0
VERTEX
  8
Layer 1
 10
59.02062896465683
 20
8.458741762144433
 30
0.0
 70
0
  0
SEQEND
  8
Layer 1
  0
POLYLINE
  8
Layer 1
 62
7
 66
1
 10
0.0
 20
0.0
 30
0.0
 70
0
  0
VERTEX
  8
Layer 1
 10
56.02027651701724
 20
9.958947360626572
 30
0.0
 70
0
  0
VERTEX
  8
Layer 1
 10
56.161560375044054
 20
10.017774003020829
 30
0.0
 70
0
  0
VERTEX
  8
Layer 1
 10
56.21961459511077
 20
10.158289341920709
 30
0.0
 70
0
  0
VERTEX
  8
Layer 1
 10
56.02027651701724
 20
10.357632099937483
 30
0.0
 70
0
  0
SEQEND
  8
Layer 1
  0
POLYLINE
  8
Layer 1
 62
7
 66
1
 10
0.0
 20
0.0
 30
0.0
 70
0
  0
VERTEX
  8
Layer 1
 10
55.82093766221627
 20
10.158289341920709
 30
0.0
 70
0
  0
VERTEX
  8
Layer 1
 10
55.8797631527599
 20
10.017003494164456
 30
0.0
 70
0
  0
VERTEX
  8
Layer 1
 10
56.02027651701724
 20
9.958947360626572
 30
0.0
 70
0
  0
SEQEND
  8
Layer 1
  0
POLYLINE
  8
Layer 1
 62
7
 66
1
 10
0.0
 20
0.0
 30
0.0
 70
0
  0
VERTEX
  8
Layer 1
 10
59.02062896465683
 20
8.857426501455343
 30
0.0
 70
0
  0
VERTEX
  8
Layer 1
 10
58.836463866187124
 20
8.734369557277933
 30
0.0
 70
0
  0
VERTEX
  8
Layer 1
 10
58.87967520728731
 20
8.517128002803243
 30
0.0
 70
0
  0
VERTEX
  8
Layer 1
 10
59.09691250808015
 20
8.473915815590097
 30
0.0
 70
0
  0
VERTEX
  8
Layer 1
 10
59.219967042750376
 20
8.658084520161207
 30
0.0
 70
0
  0
VERTEX
  8
Layer 1
 10
59.161581945318936
 20
8.799040260796534
 30
0.0
 70
0
  0
VERTEX
  8
Layer 1
 10
59.02062896465683
 20
8.857426501455343
 30
0.0
 70
0
  0
VERTEX
  8
Layer 1
 10
59.02062896465683
 20
8.857426501455343
 30
0.0
 70
0
  0
SEQEND
  8
Layer 1
  0
POLYLINE
  8
Layer 1
 62
7
 66
1
 10
0.0
 20
0.0
 30
0.0
 70
0
  0
VERTEX
  8
Layer 1
 10
56.02027651701724
 20
10.357632099937483
 30
0.0
 70
0
  0
VERTEX
  8
Layer 1
 10
55.836111418547524
 20
10.234574379037436
 30
0.0
 70
0
  0
VERTEX
  8
Layer 1
 10
55.87932275964771
 20
10.017333601285381
 30
0.0
 70
0
  0
VERTEX
  8
Layer 1
 10
56.09656006044056
 20
9.974121414072235
 30
0.0
 70
0
  0
VERTEX
  8
Layer 1
 10
56.21961459511077
 20
10.158289341920709
 30
0.0
 70
0
  0
VERTEX
  8
Layer 1
 10
56.16123027438677
 20
10.299245859278674
 30
0.0
 70
0
  0
VERTEX
  8
Layer 1
 10
56.02027651701724
 20
10.357632099937483
 30
0.0
 70
0
  0
VERTEX
  8
Layer 1
 10
56.02027651701724
 20
10.357632099937483
 30
0.0
 70
0
  0
SEQEND
  8
Layer 1
  0
POLYLINE
  8
Layer 1
 62
7
 66
1
 10
0.0
 20
0.0
 30
0.0
 70
0
  0
VERTEX
  8
Layer 1
 10
62.02098063558901
 20
9.958947360626572
 30
0.0
 70
0
  0
VERTEX
  8
Layer 1
 10
62.16226449361583
 20
10.017774003020829
 30
0.0
 70
0
  0
VERTEX
  8
Layer 1
 10
62.22031949038997
 20
10.158289341920709
 30
0.0
 70
0
  0
VERTEX
  8
Layer 1
 10
62.02098063558901
 20
10.357632099937483
 30
0.0
 70
0
  0
SEQEND
  8
Layer 1
  0
POLYLINE
  8
Layer 1
 62
7
 66
1
 10
0.0
 20
0.0
 30
0.0
 70
0
  0
VERTEX
  8
Layer 1
 10
61.82164255749547
 20
10.158289341920709
 30
0.0
 70
0
  0
VERTEX
  8
Layer 1
 10
61.880468048039106
 20
10.017003494164456
 30
0.0
 70
0
  0
VERTEX
  8
Layer 1
 10
62.02098063558901
 20
9.958947360626572
 30
0.0
 70
0
  0
SEQEND
  8
Layer 1
  0
POLYLINE
  8
Layer 1
 62
7
 66
1
 10
0.0
 20
0.0
 30
0.0
 70
0
  0
VERTEX
  8
Layer 1
 10
62.02098063558901
 20
10.357632099937483
 30
0.0
 70
0
  0
VERTEX
  8
Layer 1
 10
61.83681631382673
 20
10.234574379037436
 30
0.0
 70
0
  0
VERTEX
  8
Layer 1
 10
61.880027654926906
 20
10.017333601285381
 30
0.0
 70
0
  0
VERTEX
  8
Layer 1
 10
62.097264179012335
 20
9.974121414072235
 30
0.0
 70
0
  0
VERTEX
  8
Layer 1
 10
62.22031949038997
 20
10.158289341920709
 30
0.0
 70
0
  0
VERTEX
  8
Layer 1
 10
62.161934392958536
 20
10.299245859278674
 30
0.0
 70
0
  0
VERTEX
  8
Layer 1
 10
62.02098063558901
 20
10.357632099937483
 30
0.0
 70
0
  0
VERTEX
  8
Layer 1
 10
62.02098063558901
 20
10.357632099937483
 30
0.0
 70
0
  0
SEQEND
  8
Layer 1
  0
POLYLINE
  8
Layer 1
 62
7
 66
1
 10
0.0
 20
0.0
 30
0.0
 70
0
  0
VERTEX
  8
Layer 1
 10
44.02092189431574
 20
6.964701787958551
 30
0.0
 70
0
  0
VERTEX
  8
Layer 1
 10
44.16220575234256
 20
7.023528430352807
 30
0.0
 70
0
  0
VERTEX
  8
Layer 1
 10
44.220260749116704
 20
7.164043769252688
 30
0.0
 70
0
  0
VERTEX
  8
Layer 1
 10
44.02092189431574
 20
7.363386527269462
 30
0.0
 70
0
  0
SEQEND
  8
Layer 1
  0
POLYLINE
  8
Layer 1
 62
7
 66
1
 10
0.0
 20
0.0
 30
0.0
 70
0
  0
VERTEX
  8
Layer 1
 10
43.82158381622221
 20
7.164043769252688
 30
0.0
 70
0
  0
VERTEX
  8
Layer 1
 10
43.880409306765834
 20
7.022757144773798
 30
0.0
 70
0
  0
VERTEX
  8
Layer 1
 10
44.02092189431574
 20
6.964701787958551
 30
0.0
 70
0
  0
SEQEND
  8
Layer 1
  0
POLYLINE
  8
Layer 1
 62
7
 66
1
 10
0.0
 20
0.0
 30
0.0
 70
0
  0
VERTEX
  8
Layer 1
 10
44.02092189431574
 20
7.363386527269462
 30
0.0
 70
0
  0
VERTEX
  8
Layer 1
 10
43.83675757255346
 20
7.240328806369416
 30
0.0
 70
0
  0
VERTEX
  8
Layer 1
 10
43.87996891365364
 20
7.023087251894723
 30
0.0
 70
0
  0
VERTEX
  8
Layer 1
 10
44.09720543773906
 20
6.979875841404215
 30
0.0
 70
0
  0
VERTEX
  8
Layer 1
 10
44.220260749116704
 20
7.164043769252688
 30
0.0
 70
0
  0
VERTEX
  8
Layer 1
 10
44.16187565168527
 20
7.305000286610652
 30
0.0
 70
0
  0
VERTEX
  8
Layer 1
 10
44.02092189431574
 20
7.363386527269462
 30
0.0
 70
0
  0
VERTEX
  8
Layer 1
 10
44.02092189431574
 20
7.363386527269462
 30
0.0
 70
0
  0
SEQEND
  8
Layer 1
  0
POLYLINE
  8
Layer 1
 62
7
 66
1
 10
0.0
 20
0.0
 30
0.0
 70
0
  0
VERTEX
  8
Layer 1
 10
50.02162678959494
 20
6.964701787958551
 30
0.0
 70
0
  0
VERTEX
  8
Layer 1
 10
50.16291064762176
 20
7.023528430352807
 30
0.0
 70
0
  0
VERTEX
  8
Layer 1
 10
50.22096564439591
 20
7.164043769252688
 30
0.0
 70
0
  0
VERTEX
  8
Layer 1
 10
50.02162678959494
 20
7.363386527269462
 30
0.0
 70
0
  0
SEQEND
  8
Layer 1
  0
POLYLINE
  8
Layer 1
 62
7
 66
1
 10
0.0
 20
0.0
 30
0.0
 70
0
  0
VERTEX
  8
Layer 1
 10
49.820233543644505
 20
7.164043769252688
 30
0.0
 70
0
  0
VERTEX
  8
Layer 1
 10
49.879059034188124
 20
7.022757144773798
 30
0.0
 70
0
  0
VERTEX
  8
Layer 1
 10
50.01957162173804
 20
6.964701787958551
 30
0.0
 70
0
  0
SEQEND
  8
Layer 1
  0
POLYLINE
  8
Layer 1
 62
7
 66
1
 10
0.0
 20
0.0
 30
0.0
 70
0
  0
VERTEX
  8
Layer 1
 10
50.02162678959494
 20
7.363386527269462
 30
0.0
 70
0
  0
VERTEX
  8
Layer 1
 10
49.83746169112523
 20
7.240328806369416
 30
0.0
 70
0
  0
VERTEX
  8
Layer 1
 10
49.88067303222541
 20
7.023087251894723
 30
0.0
 70
0
  0
VERTEX
  8
Layer 1
 10
50.09791033301826
 20
6.979875841404215
 30
0.0
 70
0
  0
VERTEX
  8
Layer 1
 10
50.22096564439591
 20
7.164043769252688
 30
0.0
 70
0
  0
VERTEX
  8
Layer 1
 10
50.16258054696447
 20
7.305000286610652
 30
0.0
 70
0
  0
VERTEX
  8
Layer 1
 10
50.02162678959494
 20
7.363386527269462
 30
0.0
 70
0
  0
VERTEX
  8
Layer 1
 10
50.02162678959494
 20
7.363386527269462
 30
0.0
 70
0
  0
SEQEND
  8
Layer 1
  0
POLYLINE
  8
Layer 1
 62
7
 66
1
 10
0.0
 20
0.0
 30
0.0
 70
0
  0
VERTEX
  8
Layer 1
 10
56.02027651701724
 20
6.964701787958551
 30
0.0
 70
0
  0
VERTEX
  8
Layer 1
 10
56.161560375044054
 20
7.023528430352807
 30
0.0
 70
0
  0
VERTEX
  8
Layer 1
 10
56.21961459511077
 20
7.164043769252688
 30
0.0
 70
0
  0
VERTEX
  8
Layer 1
 10
56.02027651701724
 20
7.363386527269462
 30
0.0
 70
0
  0
SEQEND
  8
Layer 1
  0
POLYLINE
  8
Layer 1
 62
7
 66
1
 10
0.0
 20
0.0
 30
0.0
 70
0
  0
VERTEX
  8
Layer 1
 10
55.82093766221627
 20
7.164043769252688
 30
0.0
 70
0
  0
VERTEX
  8
Layer 1
 10
55.8797631527599
 20
7.022757144773798
 30
0.0
 70
0
  0
VERTEX
  8
Layer 1
 10
56.02027651701724
 20
6.964701787958551
 30
0.0
 70
0
  0
SEQEND
  8
Layer 1
  0
POLYLINE
  8
Layer 1
 62
7
 66
1
 10
0.0
 20
0.0
 30
0.0
 70
0
  0
VERTEX
  8
Layer 1
 10
56.02027651701724
 20
7.363386527269462
 30
0.0
 70
0
  0
VERTEX
  8
Layer 1
 10
55.836111418547524
 20
7.240328806369416
 30
0.0
 70
0
  0
VERTEX
  8
Layer 1
 10
55.87932275964771
 20
7.023087251894723
 30
0.0
 70
0
  0
VERTEX
  8
Layer 1
 10
56.09656006044056
 20
6.979875841404215
 30
0.0
 70
0
  0
VERTEX
  8
Layer 1
 10
56.21961459511077
 20
7.164043769252688
 30
0.0
 70
0
  0
VERTEX
  8
Layer 1
 10
56.16123027438677
 20
7.305000286610652
 30
0.0
 70
0
  0
VERTEX
  8
Layer 1
 10
56.02027651701724
 20
7.363386527269462
 30
0.0
 70
0
  0
VERTEX
  8
Layer 1
 10
56.02027651701724
 20
7.363386527269462
 30
0.0
 70
0
  0
SEQEND
  8
Layer 1
  0
POLYLINE
  8
Layer 1
 62
7
 66
1
 10
0.0
 20
0.0
 30
0.0
 70
0
  0
VERTEX
  8
Layer 1
 10
62.02098063558901
 20
6.964701787958551
 30
0.0
 70
0
  0
VERTEX
  8
Layer 1
 10
62.16226449361583
 20
7.023528430352807
 30
0.0
 70
0
  0
VERTEX
  8
Layer 1
 10
62.22031949038997
 20
7.164043769252688
 30
0.0
 70
0
  0
VERTEX
  8
Layer 1
 10
62.02098063558901
 20
7.363386527269462
 30
0.0
 70
0
  0
SEQEND
  8
Layer 1
  0
POLYLINE
  8
Layer 1
 62
7
 66
1
 10
0.0
 20
0.0
 30
0.0
 70
0
  0
VERTEX
  8
Layer 1
 10
61.82164255749547
 20
7.164043769252688
 30
0.0
 70
0
  0
VERTEX
  8
Layer 1
 10
61.880468048039106
 20
7.022757144773798
 30
0.0
 70
0
  0
VERTEX
  8
Layer 1
 10
62.02098063558901
 20
6.964701787958551
 30
0.0
 70
0
  0
SEQEND
  8
Layer 1
  0
POLYLINE
  8
Layer 1
 62
7
 66
1
 10
0.0
 20
0.0
 30
0.0
 70
0
  0
VERTEX
  8
Layer 1
 10
62.02098063558901
 20
7.363386527269462
 30
0.0
 70
0
  0
VERTEX
  8
Layer 1
 10
61.83681631382673
 20
7.240328806369416
 30
0.0
 70
0
  0
VERTEX
  8
Layer 1
 10
61.880027654926906
 20
7.023087251894723
 30
0.0
 70
0
  0
VERTEX
  8
Layer 1
 10
62.097264179012335
 20
6.979875841404215
 30
0.0
 70
0
  0
VERTEX
  8
Layer 1
 10
62.22031949038997
 20
7.164043769252688
 30
0.0
 70
0
  0
VERTEX
  8
Layer 1
 10
62.161934392958536
 20
7.305000286610652
 30
0.0
 70
0
  0
VERTEX
  8
Layer 1
 10
62.02098063558901
 20
7.363386527269462
 30
0.0
 70
0
  0
VERTEX
  8
Layer 1
 10
62.02098063558901
 20
7.363386527269462
 30
0.0
 70
0
  0
SEQEND
  8
Layer 1
  0
POLYLINE
  8
Layer 1
 62
7
 66
1
 10
0.0
 20
0.0
 30
0.0
 70
0
  0
VERTEX
  8
Layer 1
 10
65.22067193802958
 20
14.646575665497249
 30
0.0
 70
0
  0
VERTEX
  8
Layer 1
 10
65.16184644748594
 20
14.78786228997614
 30
0.0
 70
0
  0
VERTEX
  8
Layer 1
 10
65.02133308322861
 20
14.845918423514023
 30
0.0
 70
0
  0
SEQEND
  8
Layer 1
  0
POLYLINE
  8
Layer 1
 62
7
 66
1
 10
0.0
 20
0.0
 30
0.0
 70
0
  0
VERTEX
  8
Layer 1
 10
65.02133308322861
 20
14.447233684203113
 30
0.0
 70
0
  0
VERTEX
  8
Layer 1
 10
65.16261694125542
 20
14.50606032659737
 30
0.0
 70
0
  0
VERTEX
  8
Layer 1
 10
65.22067193802958
 20
14.646575665497249
 30
0.0
 70
0
  0
SEQEND
  8
Layer 1
  0
POLYLINE
  8
Layer 1
 62
7
 66
1
 10
0.0
 20
0.0
 30
0.0
 70
0
  0
VERTEX
  8
Layer 1
 10
65.02133308322861
 20
14.845918423514023
 30
0.0
 70
0
  0
VERTEX
  8
Layer 1
 10
64.88004922520179
 20
14.787091781119766
 30
0.0
 70
0
  0
VERTEX
  8
Layer 1
 10
64.82199500513507
 20
14.646575665497249
 30
0.0
 70
0
  0
VERTEX
  8
Layer 1
 10
65.02133308322861
 20
14.447233684203113
 30
0.0
 70
0
  0
SEQEND
  8
Layer 1
  0
POLYLINE
  8
Layer 1
 62
7
 66
1
 10
0.0
 20
0.0
 30
0.0
 70
0
  0
VERTEX
  8
Layer 1
 10
65.02133308322861
 20
14.845918423514023
 30
0.0
 70
0
  0
VERTEX
  8
Layer 1
 10
64.83716876146633
 20
14.722860702613977
 30
0.0
 70
0
  0
VERTEX
  8
Layer 1
 10
64.88037932585908
 20
14.505619148139283
 30
0.0
 70
0
  0
VERTEX
  8
Layer 1
 10
65.09761662665193
 20
14.462407737648775
 30
0.0
 70
0
  0
VERTEX
  8
Layer 1
 10
65.22067193802958
 20
14.646575665497249
 30
0.0
 70
0
  0
VERTEX
  8
Layer 1
 10
65.16228684059814
 20
14.787532182855212
 30
0.0
 70
0
  0
VERTEX
  8
Layer 1
 10
65.02133308322861
 20
14.845918423514023
 30
0.0
 70
0
  0
VERTEX
  8
Layer 1
 10
65.02133308322861
 20
14.845918423514023
 30
0.0
 70
0
  0
SEQEND
  8
Layer 1
  0
POLYLINE
  8
Layer 1
 62
7
 66
1
 10
0.0
 20
0.0
 30
0.0
 70
0
  0
VERTEX
  8
Layer 1
 10
68.0216855308682
 20
15.947439282685252
 30
0.0
 70
0
  0
VERTEX
  8
Layer 1
 10
68.16296938889504
 20
16.00626514835687
 30
0.0
 70
0
  0
VERTEX
  8
Layer 1
 10
68.22102438566917
 20
16.14678126397939
 30
0.0
 70
0
  0
VERTEX
  8
Layer 1
 10
68.0216855308682
 20
16.34612402199616
 30
0.0
 70
0
  0
SEQEND
  8
Layer 1
  0
POLYLINE
  8
Layer 1
 62
7
 66
1
 10
0.0
 20
0.0
 30
0.0
 70
0
  0
VERTEX
  8
Layer 1
 10
67.82029228491777
 20
16.14678126397939
 30
0.0
 70
0
  0
VERTEX
  8
Layer 1
 10
67.8791177754614
 20
16.005494639500498
 30
0.0
 70
0
  0
VERTEX
  8
Layer 1
 10
68.0196303630113
 20
15.947439282685252
 30
0.0
 70
0
  0
SEQEND
  8
Layer 1
  0
POLYLINE
  8
Layer 1
 62
7
 66
1
 10
0.0
 20
0.0
 30
0.0
 70
0
  0
VERTEX
  8
Layer 1
 10
68.0216855308682
 20
16.34612402199616
 30
0.0
 70
0
  0
VERTEX
  8
Layer 1
 10
67.83752043239849
 20
16.223066301096114
 30
0.0
 70
0
  0
VERTEX
  8
Layer 1
 10
67.88073177349868
 20
16.005824746621425
 30
0.0
 70
0
  0
VERTEX
  8
Layer 1
 10
68.09796907429153
 20
15.962613336130914
 30
0.0
 70
0
  0
VERTEX
  8
Layer 1
 10
68.22102438566917
 20
16.14678126397939
 30
0.0
 70
0
  0
VERTEX
  8
Layer 1
 10
68.16263928823774
 20
16.287737781337352
 30
0.0
 70
0
  0
VERTEX
  8
Layer 1
 10
68.0216855308682
 20
16.34612402199616
 30
0.0
 70
0
  0
VERTEX
  8
Layer 1
 10
68.0216855308682
 20
16.34612402199616
 30
0.0
 70
0
  0
SEQEND
  8
Layer 1
  0
POLYLINE
  8
Layer 1
 62
7
 66
1
 10
0.0
 20
0.0
 30
0.0
 70
0
  0
VERTEX
  8
Layer 1
 10
65.22067193802958
 20
11.652330092829228
 30
0.0
 70
0
  0
VERTEX
  8
Layer 1
 10
65.16184644748594
 20
11.793616717308119
 30
0.0
 70
0
  0
VERTEX
  8
Layer 1
 10
65.02133308322861
 20
11.851672074123366
 30
0.0
 70
0
  0
SEQEND
  8
Layer 1
  0
POLYLINE
  8
Layer 1
 62
7
 66
1
 10
0.0
 20
0.0
 30
0.0
 70
0
  0
VERTEX
  8
Layer 1
 10
65.02133308322861
 20
11.452987334812454
 30
0.0
 70
0
  0
VERTEX
  8
Layer 1
 10
65.16261694125542
 20
11.51181397720671
 30
0.0
 70
0
  0
VERTEX
  8
Layer 1
 10
65.22067193802958
 20
11.652330092829228
 30
0.0
 70
0
  0
SEQEND
  8
Layer 1
  0
POLYLINE
  8
Layer 1
 62
7
 66
1
 10
0.0
 20
0.0
 30
0.0
 70
0
  0
VERTEX
  8
Layer 1
 10
65.02133308322861
 20
11.851672074123366
 30
0.0
 70
0
  0
VERTEX
  8
Layer 1
 10
64.88004922520179
 20
11.792846208451746
 30
0.0
 70
0
  0
VERTEX
  8
Layer 1
 10
64.82199500513507
 20
11.652330092829228
 30
0.0
 70
0
  0
VERTEX
  8
Layer 1
 10
65.02133308322861
 20
11.452987334812454
 30
0.0
 70
0
  0
SEQEND
  8
Layer 1
  0
POLYLINE
  8
Layer 1
 62
7
 66
1
 10
0.0
 20
0.0
 30
0.0
 70
0
  0
VERTEX
  8
Layer 1
 10
65.02133308322861
 20
11.851672074123366
 30
0.0
 70
0
  0
VERTEX
  8
Layer 1
 10
64.83716876146633
 20
11.728615129945954
 30
0.0
 70
0
  0
VERTEX
  8
Layer 1
 10
64.88037932585908
 20
11.511373575471262
 30
0.0
 70
0
  0
VERTEX
  8
Layer 1
 10
65.09761662665193
 20
11.468161388258117
 30
0.0
 70
0
  0
VERTEX
  8
Layer 1
 10
65.22067193802958
 20
11.652330092829228
 30
0.0
 70
0
  0
VERTEX
  8
Layer 1
 10
65.16228684059814
 20
11.793286610187193
 30
0.0
 70
0
  0
VERTEX
  8
Layer 1
 10
65.02133308322861
 20
11.851672074123366
 30
0.0
 70
0
  0
VERTEX
  8
Layer 1
 10
65.02133308322861
 20
11.851672074123366
 30
0.0
 70
0
  0
SEQEND
  8
Layer 1
  0
POLYLINE
  8
Layer 1
 62
7
 66
1
 10
0.0
 20
0.0
 30
0.0
 70
0
  0
VERTEX
  8
Layer 1
 10
68.0216855308682
 20
12.953192933294593
 30
0.0
 70
0
  0
VERTEX
  8
Layer 1
 10
68.16296938889504
 20
13.012019575688848
 30
0.0
 70
0
  0
VERTEX
  8
Layer 1
 10
68.22102438566917
 20
13.152535691311368
 30
0.0
 70
0
  0
VERTEX
  8
Layer 1
 10
68.0216855308682
 20
13.351877672605504
 30
0.0
 70
0
  0
SEQEND
  8
Layer 1
  0
POLYLINE
  8
Layer 1
 62
7
 66
1
 10
0.0
 20
0.0
 30
0.0
 70
0
  0
VERTEX
  8
Layer 1
 10
67.82029228491777
 20
13.152535691311368
 30
0.0
 70
0
  0
VERTEX
  8
Layer 1
 10
67.8791177754614
 20
13.011249066832479
 30
0.0
 70
0
  0
VERTEX
  8
Layer 1
 10
68.0196303630113
 20
12.953192933294593
 30
0.0
 70
0
  0
SEQEND
  8
Layer 1
  0
POLYLINE
  8
Layer 1
 62
7
 66
1
 10
0.0
 20
0.0
 30
0.0
 70
0
  0
VERTEX
  8
Layer 1
 10
68.0216855308682
 20
13.351877672605504
 30
0.0
 70
0
  0
VERTEX
  8
Layer 1
 10
67.83752043239849
 20
13.228820728428094
 30
0.0
 70
0
  0
VERTEX
  8
Layer 1
 10
67.88073177349868
 20
13.011579173953404
 30
0.0
 70
0
  0
VERTEX
  8
Layer 1
 10
68.09796907429153
 20
12.968366986740257
 30
0.0
 70
0
  0
VERTEX
  8
Layer 1
 10
68.22102438566917
 20
13.152535691311368
 30
0.0
 70
0
  0
VERTEX
  8
Layer 1
 10
68.16263928823774
 20
13.293492208669333
 30
0.0
 70
0
  0
VERTEX
  8
Layer 1
 10
68.0216855308682
 20
13.351877672605504
 30
0.0
 70
0
  0
VERTEX
  8
Layer 1
 10
68.0216855308682
 20
13.351877672605504
 30
0.0
 70
0
  0
SEQEND
  8
Layer 1
  0
POLYLINE
  8
Layer 1
 62
7
 66
1
 10
0.0
 20
0.0
 30
0.0
 70
0
  0
VERTEX
  8
Layer 1
 10
65.22067193802958
 20
8.658084520161207
 30
0.0
 70
0
  0
VERTEX
  8
Layer 1
 10
65.16184644748594
 20
8.79937036791746
 30
0.0
 70
0
  0
VERTEX
  8
Layer 1
 10
65.02133308322861
 20
8.857426501455343
 30
0.0
 70
0
  0
SEQEND
  8
Layer 1
  0
POLYLINE
  8
Layer 1
 62
7
 66
1
 10
0.0
 20
0.0
 30
0.0
 70
0
  0
VERTEX
  8
Layer 1
 10
65.02133308322861
 20
8.458741762144433
 30
0.0
 70
0
  0
VERTEX
  8
Layer 1
 10
65.16261694125542
 20
8.517568404538691
 30
0.0
 70
0
  0
VERTEX
  8
Layer 1
 10
65.22067193802958
 20
8.658084520161207
 30
0.0
 70
0
  0
SEQEND
  8
Layer 1
  0
POLYLINE
  8
Layer 1
 62
7
 66
1
 10
0.0
 20
0.0
 30
0.0
 70
0
  0
VERTEX
  8
Layer 1
 10
65.02133308322861
 20
8.857426501455343
 30
0.0
 70
0
  0
VERTEX
  8
Layer 1
 10
64.88004922520179
 20
8.798599859061087
 30
0.0
 70
0
  0
VERTEX
  8
Layer 1
 10
64.82199500513507
 20
8.658084520161207
 30
0.0
 70
0
  0
VERTEX
  8
Layer 1
 10
65.02133308322861
 20
8.458741762144433
 30
0.0
 70
0
  0
SEQEND
  8
Layer 1
  0
POLYLINE
  8
Layer 1
 62
7
 66
1
 10
0.0
 20
0.0
 30
0.0
 70
0
  0
VERTEX
  8
Layer 1
 10
65.02133308322861
 20
8.857426501455343
 30
0.0
 70
0
  0
VERTEX
  8
Layer 1
 10
64.83716876146633
 20
8.734369557277933
 30
0.0
 70
0
  0
VERTEX
  8
Layer 1
 10
64.88037932585908
 20
8.517128002803243
 30
0.0
 70
0
  0
VERTEX
  8
Layer 1
 10
65.09761662665193
 20
8.473915815590097
 30
0.0
 70
0
  0
VERTEX
  8
Layer 1
 10
65.22067193802958
 20
8.658084520161207
 30
0.0
 70
0
  0
VERTEX
  8
Layer 1
 10
65.16228684059814
 20
8.799040260796534
 30
0.0
 70
0
  0
VERTEX
  8
Layer 1
 10
65.02133308322861
 20
8.857426501455343
 30
0.0
 70
0
  0
VERTEX
  8
Layer 1
 10
65.02133308322861
 20
8.857426501455343
 30
0.0
 70
0
  0
SEQEND
  8
Layer 1
  0
POLYLINE
  8
Layer 1
 62
7
 66
1
 10
0.0
 20
0.0
 30
0.0
 70
0
  0
VERTEX
  8
Layer 1
 10
68.0216855308682
 20
9.958947360626572
 30
0.0
 70
0
  0
VERTEX
  8
Layer 1
 10
68.16296938889504
 20
10.017774003020829
 30
0.0
 70
0
  0
VERTEX
  8
Layer 1
 10
68.22102438566917
 20
10.158289341920709
 30
0.0
 70
0
  0
VERTEX
  8
Layer 1
 10
68.0216855308682
 20
10.357632099937483
 30
0.0
 70
0
  0
SEQEND
  8
Layer 1
  0
POLYLINE
  8
Layer 1
 62
7
 66
1
 10
0.0
 20
0.0
 30
0.0
 70
0
  0
VERTEX
  8
Layer 1
 10
67.82029228491777
 20
10.158289341920709
 30
0.0
 70
0
  0
VERTEX
  8
Layer 1
 10
67.8791177754614
 20
10.017003494164456
 30
0.0
 70
0
  0
VERTEX
  8
Layer 1
 10
68.0196303630113
 20
9.958947360626572
 30
0.0
 70
0
  0
SEQEND
  8
Layer 1
  0
POLYLINE
  8
Layer 1
 62
7
 66
1
 10
0.0
 20
0.0
 30
0.0
 70
0
  0
VERTEX
  8
Layer 1
 10
68.0216855308682
 20
10.357632099937483
 30
0.0
 70
0
  0
VERTEX
  8
Layer 1
 10
67.83752043239849
 20
10.234574379037436
 30
0.0
 70
0
  0
VERTEX
  8
Layer 1
 10
67.88073177349868
 20
10.017333601285381
 30
0.0
 70
0
  0
VERTEX
  8
Layer 1
 10
68.09796907429153
 20
9.974121414072235
 30
0.0
 70
0
  0
VERTEX
  8
Layer 1
 10
68.22102438566917
 20
10.158289341920709
 30
0.0
 70
0
  0
VERTEX
  8
Layer 1
 10
68.16263928823774
 20
10.299245859278674
 30
0.0
 70
0
  0
VERTEX
  8
Layer 1
 10
68.0216855308682
 20
10.357632099937483
 30
0.0
 70
0
  0
VERTEX
  8
Layer 1
 10
68.0216855308682
 20
10.357632099937483
 30
0.0
 70
0
  0
SEQEND
  8
Layer 1
  0
POLYLINE
  8
Layer 1
 62
7
 66
1
 10
0.0
 20
0.0
 30
0.0
 70
0
  0
VERTEX
  8
Layer 1
 10
68.0216855308682
 20
6.964701787958551
 30
0.0
 70
0
  0
VERTEX
  8
Layer 1
 10
68.16296938889504
 20
7.023528430352807
 30
0.0
 70
0
  0
VERTEX
  8
Layer 1
 10
68.22102438566917
 20
7.164043769252688
 30
0.0
 70
0
  0
VERTEX
  8
Layer 1
 10
68.0216855308682
 20
7.363386527269462
 30
0.0
 70
0
  0
SEQEND
  8
Layer 1
  0
POLYLINE
  8
Layer 1
 62
7
 66
1
 10
0.0
 20
0.0
 30
0.0
 70
0
  0
VERTEX
  8
Layer 1
 10
67.82029228491777
 20
7.164043769252688
 30
0.0
 70
0
  0
VERTEX
  8
Layer 1
 10
67.8791177754614
 20
7.022757144773798
 30
0.0
 70
0
  0
VERTEX
  8
Layer 1
 10
68.0196303630113
 20
6.964701787958551
 30
0.0
 70
0
  0
SEQEND
  8
Layer 1
  0
POLYLINE
  8
Layer 1
 62
7
 66
1
 10
0.0
 20
0.0
 30
0.0
 70
0
  0
VERTEX
  8
Layer 1
 10
68.0216855308682
 20
7.363386527269462
 30
0.0
 70
0
  0
VERTEX
  8
Layer 1
 10
67.83752043239849
 20
7.240328806369416
 30
0.0
 70
0
  0
VERTEX
  8
Layer 1
 10
67.88073177349868
 20
7.023087251894723
 30
0.0
 70
0
  0
VERTEX
  8
Layer 1
 10
68.09796907429153
 20
6.979875841404215
 30
0.0
 70
0
  0
VERTEX
  8
Layer 1
 10
68.22102438566917
 20
7.164043769252688
 30
0.0
 70
0
  0
VERTEX
  8
Layer 1
 10
68.16263928823774
 20
7.305000286610652
 30
0.0
 70
0
  0
VERTEX
  8
Layer 1
 10
68.0216855308682
 20
7.363386527269462
 30
0.0
 70
0
  0
VERTEX
  8
Layer 1
 10
68.0216855308682
 20
7.363386527269462
 30
0.0
 70
0
  0
SEQEND
  8
Layer 1
  0
POLYLINE
  8
Layer 1
 62
7
 66
1
 10
0.0
 20
0.0
 30
0.0
 70
0
  0
VERTEX
  8
Layer 1
 10
83.22073067930285
 20
14.646575665497249
 30
0.0
 70
0
  0
VERTEX
  8
Layer 1
 10
83.1619051887592
 20
14.78786228997614
 30
0.0
 70
0
  0
VERTEX
  8
Layer 1
 10
83.02139182450188
 20
14.845918423514023
 30
0.0
 70
0
  0
SEQEND
  8
Layer 1
  0
POLYLINE
  8
Layer 1
 62
7
 66
1
 10
0.0
 20
0.0
 30
0.0
 70
0
  0
VERTEX
  8
Layer 1
 10
83.02139182450188
 20
14.447233684203113
 30
0.0
 70
0
  0
VERTEX
  8
Layer 1
 10
83.16267568252869
 20
14.50606032659737
 30
0.0
 70
0
  0
VERTEX
  8
Layer 1
 10
83.22073067930285
 20
14.646575665497249
 30
0.0
 70
0
  0
SEQEND
  8
Layer 1
  0
POLYLINE
  8
Layer 1
 62
7
 66
1
 10
0.0
 20
0.0
 30
0.0
 70
0
  0
VERTEX
  8
Layer 1
 10
83.02139182450188
 20
14.845918423514023
 30
0.0
 70
0
  0
VERTEX
  8
Layer 1
 10
82.88010796647505
 20
14.787091781119766
 30
0.0
 70
0
  0
VERTEX
  8
Layer 1
 10
82.82205374640833
 20
14.646575665497249
 30
0.0
 70
0
  0
VERTEX
  8
Layer 1
 10
83.02139182450188
 20
14.447233684203113
 30
0.0
 70
0
  0
SEQEND
  8
Layer 1
  0
POLYLINE
  8
Layer 1
 62
7
 66
1
 10
0.0
 20
0.0
 30
0.0
 70
0
  0
VERTEX
  8
Layer 1
 10
80.02103937686228
 20
15.947439282685252
 30
0.0
 70
0
  0
VERTEX
  8
Layer 1
 10
80.16232323488909
 20
16.00626514835687
 30
0.0
 70
0
  0
VERTEX
  8
Layer 1
 10
80.22037823166323
 20
16.14678126397939
 30
0.0
 70
0
  0
VERTEX
  8
Layer 1
 10
80.02103937686228
 20
16.34612402199616
 30
0.0
 70
0
  0
SEQEND
  8
Layer 1
  0
POLYLINE
  8
Layer 1
 62
7
 66
1
 10
0.0
 20
0.0
 30
0.0
 70
0
  0
VERTEX
  8
Layer 1
 10
79.82170129876873
 20
16.14678126397939
 30
0.0
 70
0
  0
VERTEX
  8
Layer 1
 10
79.88052678931237
 20
16.005494639500498
 30
0.0
 70
0
  0
VERTEX
  8
Layer 1
 10
80.02103937686228
 20
15.947439282685252
 30
0.0
 70
0
  0
SEQEND
  8
Layer 1
  0
POLYLINE
  8
Layer 1
 62
7
 66
1
 10
0.0
 20
0.0
 30
0.0
 70
0
  0
VERTEX
  8
Layer 1
 10
83.02139182450188
 20
14.845918423514023
 30
0.0
 70
0
  0
VERTEX
  8
Layer 1
 10
82.88043806713235
 20
14.787532182855212
 30
0.0
 70
0
  0
VERTEX
  8
Layer 1
 10
82.82205374640833
 20
14.646575665497249
 30
0.0
 70
0
  0
VERTEX
  8
Layer 1
 10
82.88043806713235
 20
14.505619148139283
 30
0.0
 70
0
  0
VERTEX
  8
Layer 1
 10
83.02139182450188
 20
14.447233684203113
 30
0.0
 70
0
  0
VERTEX
  8
Layer 1
 10
83.1623455818714
 20
14.505619148139283
 30
0.0
 70
0
  0
VERTEX
  8
Layer 1
 10
83.22073067930285
 20
14.646575665497249
 30
0.0
 70
0
  0
VERTEX
  8
Layer 1
 10
83.1623455818714
 20
14.787532182855212
 30
0.0
 70
0
  0
VERTEX
  8
Layer 1
 10
83.02139182450188
 20
14.845918423514023
 30
0.0
 70
0
  0
VERTEX
  8
Layer 1
 10
83.02139182450188
 20
14.845918423514023
 30
0.0
 70
0
  0
SEQEND
  8
Layer 1
  0
POLYLINE
  8
Layer 1
 62
7
 66
1
 10
0.0
 20
0.0
 30
0.0
 70
0
  0
VERTEX
  8
Layer 1
 10
80.02103937686228
 20
16.34612402199616
 30
0.0
 70
0
  0
VERTEX
  8
Layer 1
 10
79.8368750551
 20
16.223066301096114
 30
0.0
 70
0
  0
VERTEX
  8
Layer 1
 10
79.88008639620017
 20
16.005824746621425
 30
0.0
 70
0
  0
VERTEX
  8
Layer 1
 10
80.0973229202856
 20
15.962613336130914
 30
0.0
 70
0
  0
VERTEX
  8
Layer 1
 10
80.22037823166323
 20
16.14678126397939
 30
0.0
 70
0
  0
VERTEX
  8
Layer 1
 10
80.16199313423179
 20
16.287737781337352
 30
0.0
 70
0
  0
VERTEX
  8
Layer 1
 10
80.02103937686228
 20
16.34612402199616
 30
0.0
 70
0
  0
VERTEX
  8
Layer 1
 10
80.02103937686228
 20
16.34612402199616
 30
0.0
 70
0
  0
SEQEND
  8
Layer 1
  0
POLYLINE
  8
Layer 1
 62
7
 66
1
 10
0.0
 20
0.0
 30
0.0
 70
0
  0
VERTEX
  8
Layer 1
 10
89.22143479787461
 20
14.646575665497249
 30
0.0
 70
0
  0
VERTEX
  8
Layer 1
 10
89.16260930733098
 20
14.78786228997614
 30
0.0
 70
0
  0
VERTEX
  8
Layer 1
 10
89.02209671978108
 20
14.845918423514023
 30
0.0
 70
0
  0
SEQEND
  8
Layer 1
  0
POLYLINE
  8
Layer 1
 62
7
 66
1
 10
0.0
 20
0.0
 30
0.0
 70
0
  0
VERTEX
  8
Layer 1
 10
89.02209671978108
 20
14.447233684203113
 30
0.0
 70
0
  0
VERTEX
  8
Layer 1
 10
89.16338057780789
 20
14.50606032659737
 30
0.0
 70
0
  0
VERTEX
  8
Layer 1
 10
89.22143479787461
 20
14.646575665497249
 30
0.0
 70
0
  0
SEQEND
  8
Layer 1
  0
POLYLINE
  8
Layer 1
 62
7
 66
1
 10
0.0
 20
0.0
 30
0.0
 70
0
  0
VERTEX
  8
Layer 1
 10
89.02209671978108
 20
14.845918423514023
 30
0.0
 70
0
  0
VERTEX
  8
Layer 1
 10
88.88081286175426
 20
14.787091781119766
 30
0.0
 70
0
  0
VERTEX
  8
Layer 1
 10
88.8227578649801
 20
14.646575665497249
 30
0.0
 70
0
  0
VERTEX
  8
Layer 1
 10
89.02209671978108
 20
14.447233684203113
 30
0.0
 70
0
  0
SEQEND
  8
Layer 1
  0
POLYLINE
  8
Layer 1
 62
7
 66
1
 10
0.0
 20
0.0
 30
0.0
 70
0
  0
VERTEX
  8
Layer 1
 10
86.02174427214148
 20
15.947439282685252
 30
0.0
 70
0
  0
VERTEX
  8
Layer 1
 10
86.1630281301683
 20
16.00626514835687
 30
0.0
 70
0
  0
VERTEX
  8
Layer 1
 10
86.22108235023501
 20
16.14678126397939
 30
0.0
 70
0
  0
VERTEX
  8
Layer 1
 10
86.02174427214148
 20
16.34612402199616
 30
0.0
 70
0
  0
SEQEND
  8
Layer 1
  0
POLYLINE
  8
Layer 1
 62
7
 66
1
 10
0.0
 20
0.0
 30
0.0
 70
0
  0
VERTEX
  8
Layer 1
 10
85.82035102619103
 20
16.14678126397939
 30
0.0
 70
0
  0
VERTEX
  8
Layer 1
 10
85.87917651673467
 20
16.005494639500498
 30
0.0
 70
0
  0
VERTEX
  8
Layer 1
 10
86.01968910428457
 20
15.947439282685252
 30
0.0
 70
0
  0
SEQEND
  8
Layer 1
  0
POLYLINE
  8
Layer 1
 62
7
 66
1
 10
0.0
 20
0.0
 30
0.0
 70
0
  0
VERTEX
  8
Layer 1
 10
89.02209671978108
 20
14.845918423514023
 30
0.0
 70
0
  0
VERTEX
  8
Layer 1
 10
88.83793162131137
 20
14.722860702613977
 30
0.0
 70
0
  0
VERTEX
  8
Layer 1
 10
88.88114296241154
 20
14.505619148139283
 30
0.0
 70
0
  0
VERTEX
  8
Layer 1
 10
89.0983802632044
 20
14.462407737648775
 30
0.0
 70
0
  0
VERTEX
  8
Layer 1
 10
89.22143479787461
 20
14.646575665497249
 30
0.0
 70
0
  0
VERTEX
  8
Layer 1
 10
89.1630504771506
 20
14.787532182855212
 30
0.0
 70
0
  0
VERTEX
  8
Layer 1
 10
89.02209671978108
 20
14.845918423514023
 30
0.0
 70
0
  0
VERTEX
  8
Layer 1
 10
89.02209671978108
 20
14.845918423514023
 30
0.0
 70
0
  0
SEQEND
  8
Layer 1
  0
POLYLINE
  8
Layer 1
 62
7
 66
1
 10
0.0
 20
0.0
 30
0.0
 70
0
  0
VERTEX
  8
Layer 1
 10
86.02174427214148
 20
16.34612402199616
 30
0.0
 70
0
  0
VERTEX
  8
Layer 1
 10
85.83757917367177
 20
16.223066301096114
 30
0.0
 70
0
  0
VERTEX
  8
Layer 1
 10
85.88079051477195
 20
16.005824746621425
 30
0.0
 70
0
  0
VERTEX
  8
Layer 1
 10
86.0980278155648
 20
15.962613336130914
 30
0.0
 70
0
  0
VERTEX
  8
Layer 1
 10
86.22108235023501
 20
16.14678126397939
 30
0.0
 70
0
  0
VERTEX
  8
Layer 1
 10
86.162698029511
 20
16.287737781337352
 30
0.0
 70
0
  0
VERTEX
  8
Layer 1
 10
86.02174427214148
 20
16.34612402199616
 30
0.0
 70
0
  0
VERTEX
  8
Layer 1
 10
86.02174427214148
 20
16.34612402199616
 30
0.0
 70
0
  0
SEQEND
  8
Layer 1
  0
POLYLINE
  8
Layer 1
 62
7
 66
1
 10
0.0
 20
0.0
 30
0.0
 70
0
  0
VERTEX
  8
Layer 1
 10
95.2221396931538
 20
14.646575665497249
 30
0.0
 70
0
  0
VERTEX
  8
Layer 1
 10
95.16331420261018
 20
14.78786228997614
 30
0.0
 70
0
  0
VERTEX
  8
Layer 1
 10
95.02280083835284
 20
14.845918423514023
 30
0.0
 70
0
  0
SEQEND
  8
Layer 1
  0
POLYLINE
  8
Layer 1
 62
7
 66
1
 10
0.0
 20
0.0
 30
0.0
 70
0
  0
VERTEX
  8
Layer 1
 10
95.02074644720338
 20
14.447233684203113
 30
0.0
 70
0
  0
VERTEX
  8
Layer 1
 10
95.16202952852277
 20
14.50606032659737
 30
0.0
 70
0
  0
VERTEX
  8
Layer 1
 10
95.22008452529691
 20
14.646575665497249
 30
0.0
 70
0
  0
SEQEND
  8
Layer 1
  0
POLYLINE
  8
Layer 1
 62
7
 66
1
 10
0.0
 20
0.0
 30
0.0
 70
0
  0
VERTEX
  8
Layer 1
 10
95.02074644720338
 20
14.845918423514023
 30
0.0
 70
0
  0
VERTEX
  8
Layer 1
 10
94.87946258917654
 20
14.787091781119766
 30
0.0
 70
0
  0
VERTEX
  8
Layer 1
 10
94.82140759240241
 20
14.646575665497249
 30
0.0
 70
0
  0
VERTEX
  8
Layer 1
 10
95.02074644720338
 20
14.447233684203113
 30
0.0
 70
0
  0
SEQEND
  8
Layer 1
  0
POLYLINE
  8
Layer 1
 62
7
 66
1
 10
0.0
 20
0.0
 30
0.0
 70
0
  0
VERTEX
  8
Layer 1
 10
92.02039399956377
 20
15.947439282685252
 30
0.0
 70
0
  0
VERTEX
  8
Layer 1
 10
92.16167785759058
 20
16.00626514835687
 30
0.0
 70
0
  0
VERTEX
  8
Layer 1
 10
92.21973207765731
 20
16.14678126397939
 30
0.0
 70
0
  0
VERTEX
  8
Layer 1
 10
92.02039399956377
 20
16.34612402199616
 30
0.0
 70
0
  0
SEQEND
  8
Layer 1
  0
POLYLINE
  8
Layer 1
 62
7
 66
1
 10
0.0
 20
0.0
 30
0.0
 70
0
  0
VERTEX
  8
Layer 1
 10
91.8210551447628
 20
16.14678126397939
 30
0.0
 70
0
  0
VERTEX
  8
Layer 1
 10
91.87988063530644
 20
16.005494639500498
 30
0.0
 70
0
  0
VERTEX
  8
Layer 1
 10
92.02039399956377
 20
15.947439282685252
 30
0.0
 70
0
  0
SEQEND
  8
Layer 1
  0
POLYLINE
  8
Layer 1
 62
7
 66
1
 10
0.0
 20
0.0
 30
0.0
 70
0
  0
VERTEX
  8
Layer 1
 10
95.02074644720338
 20
14.845918423514023
 30
0.0
 70
0
  0
VERTEX
  8
Layer 1
 10
94.83658134873366
 20
14.722860702613977
 30
0.0
 70
0
  0
VERTEX
  8
Layer 1
 10
94.87979268983383
 20
14.505619148139283
 30
0.0
 70
0
  0
VERTEX
  8
Layer 1
 10
95.0970299906267
 20
14.462407737648775
 30
0.0
 70
0
  0
VERTEX
  8
Layer 1
 10
95.22008452529691
 20
14.646575665497249
 30
0.0
 70
0
  0
VERTEX
  8
Layer 1
 10
95.16169942786547
 20
14.787532182855212
 30
0.0
 70
0
  0
VERTEX
  8
Layer 1
 10
95.02074644720338
 20
14.845918423514023
 30
0.0
 70
0
  0
VERTEX
  8
Layer 1
 10
95.02074644720338
 20
14.845918423514023
 30
0.0
 70
0
  0
SEQEND
  8
Layer 1
  0
POLYLINE
  8
Layer 1
 62
7
 66
1
 10
0.0
 20
0.0
 30
0.0
 70
0
  0
VERTEX
  8
Layer 1
 10
92.02039399956377
 20
16.34612402199616
 30
0.0
 70
0
  0
VERTEX
  8
Layer 1
 10
91.83622890109406
 20
16.223066301096114
 30
0.0
 70
0
  0
VERTEX
  8
Layer 1
 10
91.87944024219424
 20
16.005824746621425
 30
0.0
 70
0
  0
VERTEX
  8
Layer 1
 10
92.0966775429871
 20
15.962613336130914
 30
0.0
 70
0
  0
VERTEX
  8
Layer 1
 10
92.21973207765731
 20
16.14678126397939
 30
0.0
 70
0
  0
VERTEX
  8
Layer 1
 10
92.1613477569333
 20
16.287737781337352
 30
0.0
 70
0
  0
VERTEX
  8
Layer 1
 10
92.02039399956377
 20
16.34612402199616
 30
0.0
 70
0
  0
VERTEX
  8
Layer 1
 10
92.02039399956377
 20
16.34612402199616
 30
0.0
 70
0
  0
SEQEND
  8
Layer 1
  0
POLYLINE
  8
Layer 1
 62
7
 66
1
 10
0.0
 20
0.0
 30
0.0
 70
0
  0
VERTEX
  8
Layer 1
 10
98.02109811813554
 20
15.947439282685252
 30
0.0
 70
0
  0
VERTEX
  8
Layer 1
 10
98.16238197616235
 20
16.00626514835687
 30
0.0
 70
0
  0
VERTEX
  8
Layer 1
 10
98.22043697293651
 20
16.14678126397939
 30
0.0
 70
0
  0
VERTEX
  8
Layer 1
 10
98.02109811813554
 20
16.34612402199616
 30
0.0
 70
0
  0
SEQEND
  8
Layer 1
  0
POLYLINE
  8
Layer 1
 62
7
 66
1
 10
0.0
 20
0.0
 30
0.0
 70
0
  0
VERTEX
  8
Layer 1
 10
97.821760040042
 20
16.14678126397939
 30
0.0
 70
0
  0
VERTEX
  8
Layer 1
 10
97.88058553058563
 20
16.005494639500498
 30
0.0
 70
0
  0
VERTEX
  8
Layer 1
 10
98.02109811813554
 20
15.947439282685252
 30
0.0
 70
0
  0
SEQEND
  8
Layer 1
  0
POLYLINE
  8
Layer 1
 62
7
 66
1
 10
0.0
 20
0.0
 30
0.0
 70
0
  0
VERTEX
  8
Layer 1
 10
98.02109811813554
 20
16.34612402199616
 30
0.0
 70
0
  0
VERTEX
  8
Layer 1
 10
97.83693379637326
 20
16.223066301096114
 30
0.0
 70
0
  0
VERTEX
  8
Layer 1
 10
97.88014513747343
 20
16.005824746621425
 30
0.0
 70
0
  0
VERTEX
  8
Layer 1
 10
98.09738166155887
 20
15.962613336130914
 30
0.0
 70
0
  0
VERTEX
  8
Layer 1
 10
98.22043697293651
 20
16.14678126397939
 30
0.0
 70
0
  0
VERTEX
  8
Layer 1
 10
98.16205187550507
 20
16.287737781337352
 30
0.0
 70
0
  0
VERTEX
  8
Layer 1
 10
98.02109811813554
 20
16.34612402199616
 30
0.0
 70
0
  0
VERTEX
  8
Layer 1
 10
98.02109811813554
 20
16.34612402199616
 30
0.0
 70
0
  0
SEQEND
  8
Layer 1
  0
POLYLINE
  8
Layer 1
 62
7
 66
1
 10
0.0
 20
0.0
 30
0.0
 70
0
  0
VERTEX
  8
Layer 1
 10
83.22073067930285
 20
11.652330092829228
 30
0.0
 70
0
  0
VERTEX
  8
Layer 1
 10
83.1619051887592
 20
11.793616717308119
 30
0.0
 70
0
  0
VERTEX
  8
Layer 1
 10
83.02139182450188
 20
11.851672074123366
 30
0.0
 70
0
  0
SEQEND
  8
Layer 1
  0
POLYLINE
  8
Layer 1
 62
7
 66
1
 10
0.0
 20
0.0
 30
0.0
 70
0
  0
VERTEX
  8
Layer 1
 10
83.02139182450188
 20
11.452987334812454
 30
0.0
 70
0
  0
VERTEX
  8
Layer 1
 10
83.16267568252869
 20
11.51181397720671
 30
0.0
 70
0
  0
VERTEX
  8
Layer 1
 10
83.22073067930285
 20
11.652330092829228
 30
0.0
 70
0
  0
SEQEND
  8
Layer 1
  0
POLYLINE
  8
Layer 1
 62
7
 66
1
 10
0.0
 20
0.0
 30
0.0
 70
0
  0
VERTEX
  8
Layer 1
 10
83.02139182450188
 20
11.851672074123366
 30
0.0
 70
0
  0
VERTEX
  8
Layer 1
 10
82.88010796647505
 20
11.792846208451746
 30
0.0
 70
0
  0
VERTEX
  8
Layer 1
 10
82.82205374640833
 20
11.652330092829228
 30
0.0
 70
0
  0
VERTEX
  8
Layer 1
 10
83.02139182450188
 20
11.452987334812454
 30
0.0
 70
0
  0
SEQEND
  8
Layer 1
  0
POLYLINE
  8
Layer 1
 62
7
 66
1
 10
0.0
 20
0.0
 30
0.0
 70
0
  0
VERTEX
  8
Layer 1
 10
80.02103937686228
 20
12.953192933294593
 30
0.0
 70
0
  0
VERTEX
  8
Layer 1
 10
80.16232323488909
 20
13.012019575688848
 30
0.0
 70
0
  0
VERTEX
  8
Layer 1
 10
80.22037823166323
 20
13.152535691311368
 30
0.0
 70
0
  0
VERTEX
  8
Layer 1
 10
80.02103937686228
 20
13.351877672605504
 30
0.0
 70
0
  0
SEQEND
  8
Layer 1
  0
POLYLINE
  8
Layer 1
 62
7
 66
1
 10
0.0
 20
0.0
 30
0.0
 70
0
  0
VERTEX
  8
Layer 1
 10
79.82170129876873
 20
13.152535691311368
 30
0.0
 70
0
  0
VERTEX
  8
Layer 1
 10
79.88052678931237
 20
13.011249066832479
 30
0.0
 70
0
  0
VERTEX
  8
Layer 1
 10
80.02103937686228
 20
12.953192933294593
 30
0.0
 70
0
  0
SEQEND
  8
Layer 1
  0
POLYLINE
  8
Layer 1
 62
7
 66
1
 10
0.0
 20
0.0
 30
0.0
 70
0
  0
VERTEX
  8
Layer 1
 10
83.02139182450188
 20
11.851672074123366
 30
0.0
 70
0
  0
VERTEX
  8
Layer 1
 10
82.88043806713235
 20
11.793286610187193
 30
0.0
 70
0
  0
VERTEX
  8
Layer 1
 10
82.82205374640833
 20
11.652330092829228
 30
0.0
 70
0
  0
VERTEX
  8
Layer 1
 10
82.88043806713235
 20
11.511373575471262
 30
0.0
 70
0
  0
VERTEX
  8
Layer 1
 10
83.02139182450188
 20
11.452987334812454
 30
0.0
 70
0
  0
VERTEX
  8
Layer 1
 10
83.1623455818714
 20
11.511373575471262
 30
0.0
 70
0
  0
VERTEX
  8
Layer 1
 10
83.22073067930285
 20
11.652330092829228
 30
0.0
 70
0
  0
VERTEX
  8
Layer 1
 10
83.1623455818714
 20
11.793286610187193
 30
0.0
 70
0
  0
VERTEX
  8
Layer 1
 10
83.02139182450188
 20
11.851672074123366
 30
0.0
 70
0
  0
VERTEX
  8
Layer 1
 10
83.02139182450188
 20
11.851672074123366
 30
0.0
 70
0
  0
SEQEND
  8
Layer 1
  0
POLYLINE
  8
Layer 1
 62
7
 66
1
 10
0.0
 20
0.0
 30
0.0
 70
0
  0
VERTEX
  8
Layer 1
 10
80.02103937686228
 20
13.351877672605504
 30
0.0
 70
0
  0
VERTEX
  8
Layer 1
 10
79.8368750551
 20
13.228820728428094
 30
0.0
 70
0
  0
VERTEX
  8
Layer 1
 10
79.88008639620017
 20
13.011579173953404
 30
0.0
 70
0
  0
VERTEX
  8
Layer 1
 10
80.0973229202856
 20
12.968366986740257
 30
0.0
 70
0
  0
VERTEX
  8
Layer 1
 10
80.22037823166323
 20
13.152535691311368
 30
0.0
 70
0
  0
VERTEX
  8
Layer 1
 10
80.16199313423179
 20
13.293492208669333
 30
0.0
 70
0
  0
VERTEX
  8
Layer 1
 10
80.02103937686228
 20
13.351877672605504
 30
0.0
 70
0
  0
VERTEX
  8
Layer 1
 10
80.02103937686228
 20
13.351877672605504
 30
0.0
 70
0
  0
SEQEND
  8
Layer 1
  0
POLYLINE
  8
Layer 1
 62
7
 66
1
 10
0.0
 20
0.0
 30
0.0
 70
0
  0
VERTEX
  8
Layer 1
 10
89.22143479787461
 20
11.652330092829228
 30
0.0
 70
0
  0
VERTEX
  8
Layer 1
 10
89.16260930733098
 20
11.793616717308119
 30
0.0
 70
0
  0
VERTEX
  8
Layer 1
 10
89.02209671978108
 20
11.851672074123366
 30
0.0
 70
0
  0
SEQEND
  8
Layer 1
  0
POLYLINE
  8
Layer 1
 62
7
 66
1
 10
0.0
 20
0.0
 30
0.0
 70
0
  0
VERTEX
  8
Layer 1
 10
89.02209671978108
 20
11.452987334812454
 30
0.0
 70
0
  0
VERTEX
  8
Layer 1
 10
89.16338057780789
 20
11.51181397720671
 30
0.0
 70
0
  0
VERTEX
  8
Layer 1
 10
89.22143479787461
 20
11.652330092829228
 30
0.0
 70
0
  0
SEQEND
  8
Layer 1
  0
POLYLINE
  8
Layer 1
 62
7
 66
1
 10
0.0
 20
0.0
 30
0.0
 70
0
  0
VERTEX
  8
Layer 1
 10
89.02209671978108
 20
11.851672074123366
 30
0.0
 70
0
  0
VERTEX
  8
Layer 1
 10
88.88081286175426
 20
11.792846208451746
 30
0.0
 70
0
  0
VERTEX
  8
Layer 1
 10
88.8227578649801
 20
11.652330092829228
 30
0.0
 70
0
  0
VERTEX
  8
Layer 1
 10
89.02209671978108
 20
11.452987334812454
 30
0.0
 70
0
  0
SEQEND
  8
Layer 1
  0
POLYLINE
  8
Layer 1
 62
7
 66
1
 10
0.0
 20
0.0
 30
0.0
 70
0
  0
VERTEX
  8
Layer 1
 10
86.02174427214148
 20
12.953192933294593
 30
0.0
 70
0
  0
VERTEX
  8
Layer 1
 10
86.1630281301683
 20
13.012019575688848
 30
0.0
 70
0
  0
VERTEX
  8
Layer 1
 10
86.22108235023501
 20
13.152535691311368
 30
0.0
 70
0
  0
VERTEX
  8
Layer 1
 10
86.02174427214148
 20
13.351877672605504
 30
0.0
 70
0
  0
SEQEND
  8
Layer 1
  0
POLYLINE
  8
Layer 1
 62
7
 66
1
 10
0.0
 20
0.0
 30
0.0
 70
0
  0
VERTEX
  8
Layer 1
 10
85.82035102619103
 20
13.152535691311368
 30
0.0
 70
0
  0
VERTEX
  8
Layer 1
 10
85.87917651673467
 20
13.011249066832479
 30
0.0
 70
0
  0
VERTEX
  8
Layer 1
 10
86.01968910428457
 20
12.953192933294593
 30
0.0
 70
0
  0
SEQEND
  8
Layer 1
  0
POLYLINE
  8
Layer 1
 62
7
 66
1
 10
0.0
 20
0.0
 30
0.0
 70
0
  0
VERTEX
  8
Layer 1
 10
89.02209671978108
 20
11.851672074123366
 30
0.0
 70
0
  0
VERTEX
  8
Layer 1
 10
88.83793162131137
 20
11.728615129945954
 30
0.0
 70
0
  0
VERTEX
  8
Layer 1
 10
88.88114296241154
 20
11.511373575471262
 30
0.0
 70
0
  0
VERTEX
  8
Layer 1
 10
89.0983802632044
 20
11.468161388258117
 30
0.0
 70
0
  0
VERTEX
  8
Layer 1
 10
89.22143479787461
 20
11.652330092829228
 30
0.0
 70
0
  0
VERTEX
  8
Layer 1
 10
89.1630504771506
 20
11.793286610187193
 30
0.0
 70
0
  0
VERTEX
  8
Layer 1
 10
89.02209671978108
 20
11.851672074123366
 30
0.0
 70
0
  0
VERTEX
  8
Layer 1
 10
89.02209671978108
 20
11.851672074123366
 30
0.0
 70
0
  0
SEQEND
  8
Layer 1
  0
POLYLINE
  8
Layer 1
 62
7
 66
1
 10
0.0
 20
0.0
 30
0.0
 70
0
  0
VERTEX
  8
Layer 1
 10
86.02174427214148
 20
13.351877672605504
 30
0.0
 70
0
  0
VERTEX
  8
Layer 1
 10
85.83757917367177
 20
13.228820728428094
 30
0.0
 70
0
  0
VERTEX
  8
Layer 1
 10
85.88079051477195
 20
13.011579173953404
 30
0.0
 70
0
  0
VERTEX
  8
Layer 1
 10
86.0980278155648
 20
12.968366986740257
 30
0.0
 70
0
  0
VERTEX
  8
Layer 1
 10
86.22108235023501
 20
13.152535691311368
 30
0.0
 70
0
  0
VERTEX
  8
Layer 1
 10
86.162698029511
 20
13.293492208669333
 30
0.0
 70
0
  0
VERTEX
  8
Layer 1
 10
86.02174427214148
 20
13.351877672605504
 30
0.0
 70
0
  0
VERTEX
  8
Layer 1
 10
86.02174427214148
 20
13.351877672605504
 30
0.0
 70
0
  0
SEQEND
  8
Layer 1
  0
POLYLINE
  8
Layer 1
 62
7
 66
1
 10
0.0
 20
0.0
 30
0.0
 70
0
  0
VERTEX
  8
Layer 1
 10
95.2221396931538
 20
11.652330092829228
 30
0.0
 70
0
  0
VERTEX
  8
Layer 1
 10
95.16331420261018
 20
11.793616717308119
 30
0.0
 70
0
  0
VERTEX
  8
Layer 1
 10
95.02280083835284
 20
11.851672074123366
 30
0.0
 70
0
  0
SEQEND
  8
Layer 1
  0
POLYLINE
  8
Layer 1
 62
7
 66
1
 10
0.0
 20
0.0
 30
0.0
 70
0
  0
VERTEX
  8
Layer 1
 10
95.02074644720338
 20
11.452987334812454
 30
0.0
 70
0
  0
VERTEX
  8
Layer 1
 10
95.16202952852277
 20
11.51181397720671
 30
0.0
 70
0
  0
VERTEX
  8
Layer 1
 10
95.22008452529691
 20
11.652330092829228
 30
0.0
 70
0
  0
SEQEND
  8
Layer 1
  0
POLYLINE
  8
Layer 1
 62
7
 66
1
 10
0.0
 20
0.0
 30
0.0
 70
0
  0
VERTEX
  8
Layer 1
 10
95.02074644720338
 20
11.851672074123366
 30
0.0
 70
0
  0
VERTEX
  8
Layer 1
 10
94.87946258917654
 20
11.792846208451746
 30
0.0
 70
0
  0
VERTEX
  8
Layer 1
 10
94.82140759240241
 20
11.652330092829228
 30
0.0
 70
0
  0
VERTEX
  8
Layer 1
 10
95.02074644720338
 20
11.452987334812454
 30
0.0
 70
0
  0
SEQEND
  8
Layer 1
  0
POLYLINE
  8
Layer 1
 62
7
 66
1
 10
0.0
 20
0.0
 30
0.0
 70
0
  0
VERTEX
  8
Layer 1
 10
92.02039399956377
 20
12.953192933294593
 30
0.0
 70
0
  0
VERTEX
  8
Layer 1
 10
92.16167785759058
 20
13.012019575688848
 30
0.0
 70
0
  0
VERTEX
  8
Layer 1
 10
92.21973207765731
 20
13.152535691311368
 30
0.0
 70
0
  0
VERTEX
  8
Layer 1
 10
92.02039399956377
 20
13.351877672605504
 30
0.0
 70
0
  0
SEQEND
  8
Layer 1
  0
POLYLINE
  8
Layer 1
 62
7
 66
1
 10
0.0
 20
0.0
 30
0.0
 70
0
  0
VERTEX
  8
Layer 1
 10
91.8210551447628
 20
13.152535691311368
 30
0.0
 70
0
  0
VERTEX
  8
Layer 1
 10
91.87988063530644
 20
13.011249066832479
 30
0.0
 70
0
  0
VERTEX
  8
Layer 1
 10
92.02039399956377
 20
12.953192933294593
 30
0.0
 70
0
  0
SEQEND
  8
Layer 1
  0
POLYLINE
  8
Layer 1
 62
7
 66
1
 10
0.0
 20
0.0
 30
0.0
 70
0
  0
VERTEX
  8
Layer 1
 10
95.02074644720338
 20
11.851672074123366
 30
0.0
 70
0
  0
VERTEX
  8
Layer 1
 10
94.83658134873366
 20
11.728615129945954
 30
0.0
 70
0
  0
VERTEX
  8
Layer 1
 10
94.87979268983383
 20
11.511373575471262
 30
0.0
 70
0
  0
VERTEX
  8
Layer 1
 10
95.0970299906267
 20
11.468161388258117
 30
0.0
 70
0
  0
VERTEX
  8
Layer 1
 10
95.22008452529691
 20
11.652330092829228
 30
0.0
 70
0
  0
VERTEX
  8
Layer 1
 10
95.16169942786547
 20
11.793286610187193
 30
0.0
 70
0
  0
VERTEX
  8
Layer 1
 10
95.02074644720338
 20
11.851672074123366
 30
0.0
 70
0
  0
VERTEX
  8
Layer 1
 10
95.02074644720338
 20
11.851672074123366
 30
0.0
 70
0
  0
SEQEND
  8
Layer 1
  0
POLYLINE
  8
Layer 1
 62
7
 66
1
 10
0.0
 20
0.0
 30
0.0
 70
0
  0
VERTEX
  8
Layer 1
 10
92.02039399956377
 20
13.351877672605504
 30
0.0
 70
0
  0
VERTEX
  8
Layer 1
 10
91.83622890109406
 20
13.228820728428094
 30
0.0
 70
0
  0
VERTEX
  8
Layer 1
 10
91.87944024219424
 20
13.011579173953404
 30
0.0
 70
0
  0
VERTEX
  8
Layer 1
 10
92.0966775429871
 20
12.968366986740257
 30
0.0
 70
0
  0
VERTEX
  8
Layer 1
 10
92.21973207765731
 20
13.152535691311368
 30
0.0
 70
0
  0
VERTEX
  8
Layer 1
 10
92.1613477569333
 20
13.293492208669333
 30
0.0
 70
0
  0
VERTEX
  8
Layer 1
 10
92.02039399956377
 20
13.351877672605504
 30
0.0
 70
0
  0
VERTEX
  8
Layer 1
 10
92.02039399956377
 20
13.351877672605504
 30
0.0
 70
0
  0
SEQEND
  8
Layer 1
  0
POLYLINE
  8
Layer 1
 62
7
 66
1
 10
0.0
 20
0.0
 30
0.0
 70
0
  0
VERTEX
  8
Layer 1
 10
98.02109811813554
 20
12.953192933294593
 30
0.0
 70
0
  0
VERTEX
  8
Layer 1
 10
98.16238197616235
 20
13.012019575688848
 30
0.0
 70
0
  0
VERTEX
  8
Layer 1
 10
98.22043697293651
 20
13.152535691311368
 30
0.0
 70
0
  0
VERTEX
  8
Layer 1
 10
98.02109811813554
 20
13.351877672605504
 30
0.0
 70
0
  0
SEQEND
  8
Layer 1
  0
POLYLINE
  8
Layer 1
 62
7
 66
1
 10
0.0
 20
0.0
 30
0.0
 70
0
  0
VERTEX
  8
Layer 1
 10
97.821760040042
 20
13.152535691311368
 30
0.0
 70
0
  0
VERTEX
  8
Layer 1
 10
97.88058553058563
 20
13.011249066832479
 30
0.0
 70
0
  0
VERTEX
  8
Layer 1
 10
98.02109811813554
 20
12.953192933294593
 30
0.0
 70
0
  0
SEQEND
  8
Layer 1
  0
POLYLINE
  8
Layer 1
 62
7
 66
1
 10
0.0
 20
0.0
 30
0.0
 70
0
  0
VERTEX
  8
Layer 1
 10
98.02109811813554
 20
13.351877672605504
 30
0.0
 70
0
  0
VERTEX
  8
Layer 1
 10
97.83693379637326
 20
13.228820728428094
 30
0.0
 70
0
  0
VERTEX
  8
Layer 1
 10
97.88014513747343
 20
13.011579173953404
 30
0.0
 70
0
  0
VERTEX
  8
Layer 1
 10
98.09738166155887
 20
12.968366986740257
 30
0.0
 70
0
  0
VERTEX
  8
Layer 1
 10
98.22043697293651
 20
13.152535691311368
 30
0.0
 70
0
  0
VERTEX
  8
Layer 1
 10
98.16205187550507
 20
13.293492208669333
 30
0.0
 70
0
  0
VERTEX
  8
Layer 1
 10
98.02109811813554
 20
13.351877672605504
 30
0.0
 70
0
  0
VERTEX
  8
Layer 1
 10
98.02109811813554
 20
13.351877672605504
 30
0.0
 70
0
  0
SEQEND
  8
Layer 1
  0
POLYLINE
  8
Layer 1
 62
7
 66
1
 10
0.0
 20
0.0
 30
0.0
 70
0
  0
VERTEX
  8
Layer 1
 10
83.22073067930285
 20
8.658084520161207
 30
0.0
 70
0
  0
VERTEX
  8
Layer 1
 10
83.1619051887592
 20
8.79937036791746
 30
0.0
 70
0
  0
VERTEX
  8
Layer 1
 10
83.02139182450188
 20
8.857426501455343
 30
0.0
 70
0
  0
SEQEND
  8
Layer 1
  0
POLYLINE
  8
Layer 1
 62
7
 66
1
 10
0.0
 20
0.0
 30
0.0
 70
0
  0
VERTEX
  8
Layer 1
 10
83.02139182450188
 20
8.458741762144433
 30
0.0
 70
0
  0
VERTEX
  8
Layer 1
 10
83.16267568252869
 20
8.517568404538691
 30
0.0
 70
0
  0
VERTEX
  8
Layer 1
 10
83.22073067930285
 20
8.658084520161207
 30
0.0
 70
0
  0
SEQEND
  8
Layer 1
  0
POLYLINE
  8
Layer 1
 62
7
 66
1
 10
0.0
 20
0.0
 30
0.0
 70
0
  0
VERTEX
  8
Layer 1
 10
83.02139182450188
 20
8.857426501455343
 30
0.0
 70
0
  0
VERTEX
  8
Layer 1
 10
82.88010796647505
 20
8.798599859061087
 30
0.0
 70
0
  0
VERTEX
  8
Layer 1
 10
82.82205374640833
 20
8.658084520161207
 30
0.0
 70
0
  0
VERTEX
  8
Layer 1
 10
83.02139182450188
 20
8.458741762144433
 30
0.0
 70
0
  0
SEQEND
  8
Layer 1
  0
POLYLINE
  8
Layer 1
 62
7
 66
1
 10
0.0
 20
0.0
 30
0.0
 70
0
  0
VERTEX
  8
Layer 1
 10
80.02103937686228
 20
9.958947360626572
 30
0.0
 70
0
  0
VERTEX
  8
Layer 1
 10
80.16232323488909
 20
10.017774003020829
 30
0.0
 70
0
  0
VERTEX
  8
Layer 1
 10
80.22037823166323
 20
10.158289341920709
 30
0.0
 70
0
  0
VERTEX
  8
Layer 1
 10
80.02103937686228
 20
10.357632099937483
 30
0.0
 70
0
  0
SEQEND
  8
Layer 1
  0
POLYLINE
  8
Layer 1
 62
7
 66
1
 10
0.0
 20
0.0
 30
0.0
 70
0
  0
VERTEX
  8
Layer 1
 10
79.82170129876873
 20
10.158289341920709
 30
0.0
 70
0
  0
VERTEX
  8
Layer 1
 10
79.88052678931237
 20
10.017003494164456
 30
0.0
 70
0
  0
VERTEX
  8
Layer 1
 10
80.02103937686228
 20
9.958947360626572
 30
0.0
 70
0
  0
SEQEND
  8
Layer 1
  0
POLYLINE
  8
Layer 1
 62
7
 66
1
 10
0.0
 20
0.0
 30
0.0
 70
0
  0
VERTEX
  8
Layer 1
 10
83.02139182450188
 20
8.857426501455343
 30
0.0
 70
0
  0
VERTEX
  8
Layer 1
 10
82.88043806713235
 20
8.799040260796534
 30
0.0
 70
0
  0
VERTEX
  8
Layer 1
 10
82.82205374640833
 20
8.658084520161207
 30
0.0
 70
0
  0
VERTEX
  8
Layer 1
 10
82.88043806713235
 20
8.517128002803243
 30
0.0
 70
0
  0
VERTEX
  8
Layer 1
 10
83.02139182450188
 20
8.458741762144433
 30
0.0
 70
0
  0
VERTEX
  8
Layer 1
 10
83.1623455818714
 20
8.517128002803243
 30
0.0
 70
0
  0
VERTEX
  8
Layer 1
 10
83.22073067930285
 20
8.658084520161207
 30
0.0
 70
0
  0
VERTEX
  8
Layer 1
 10
83.1623455818714
 20
8.799040260796534
 30
0.0
 70
0
  0
VERTEX
  8
Layer 1
 10
83.02139182450188
 20
8.857426501455343
 30
0.0
 70
0
  0
VERTEX
  8
Layer 1
 10
83.02139182450188
 20
8.857426501455343
 30
0.0
 70
0
  0
SEQEND
  8
Layer 1
  0
POLYLINE
  8
Layer 1
 62
7
 66
1
 10
0.0
 20
0.0
 30
0.0
 70
0
  0
VERTEX
  8
Layer 1
 10
80.02103937686228
 20
10.357632099937483
 30
0.0
 70
0
  0
VERTEX
  8
Layer 1
 10
79.8368750551
 20
10.234574379037436
 30
0.0
 70
0
  0
VERTEX
  8
Layer 1
 10
79.88008639620017
 20
10.017333601285381
 30
0.0
 70
0
  0
VERTEX
  8
Layer 1
 10
80.0973229202856
 20
9.974121414072235
 30
0.0
 70
0
  0
VERTEX
  8
Layer 1
 10
80.22037823166323
 20
10.158289341920709
 30
0.0
 70
0
  0
VERTEX
  8
Layer 1
 10
80.16199313423179
 20
10.299245859278674
 30
0.0
 70
0
  0
VERTEX
  8
Layer 1
 10
80.02103937686228
 20
10.357632099937483
 30
0.0
 70
0
  0
VERTEX
  8
Layer 1
 10
80.02103937686228
 20
10.357632099937483
 30
0.0
 70
0
  0
SEQEND
  8
Layer 1
  0
POLYLINE
  8
Layer 1
 62
7
 66
1
 10
0.0
 20
0.0
 30
0.0
 70
0
  0
VERTEX
  8
Layer 1
 10
89.22143479787461
 20
8.658084520161207
 30
0.0
 70
0
  0
VERTEX
  8
Layer 1
 10
89.16260930733098
 20
8.79937036791746
 30
0.0
 70
0
  0
VERTEX
  8
Layer 1
 10
89.02209671978108
 20
8.857426501455343
 30
0.0
 70
0
  0
SEQEND
  8
Layer 1
  0
POLYLINE
  8
Layer 1
 62
7
 66
1
 10
0.0
 20
0.0
 30
0.0
 70
0
  0
VERTEX
  8
Layer 1
 10
89.02209671978108
 20
8.458741762144433
 30
0.0
 70
0
  0
VERTEX
  8
Layer 1
 10
89.16338057780789
 20
8.517568404538691
 30
0.0
 70
0
  0
VERTEX
  8
Layer 1
 10
89.22143479787461
 20
8.658084520161207
 30
0.0
 70
0
  0
SEQEND
  8
Layer 1
  0
POLYLINE
  8
Layer 1
 62
7
 66
1
 10
0.0
 20
0.0
 30
0.0
 70
0
  0
VERTEX
  8
Layer 1
 10
89.02209671978108
 20
8.857426501455343
 30
0.0
 70
0
  0
VERTEX
  8
Layer 1
 10
88.88081286175426
 20
8.798599859061087
 30
0.0
 70
0
  0
VERTEX
  8
Layer 1
 10
88.8227578649801
 20
8.658084520161207
 30
0.0
 70
0
  0
VERTEX
  8
Layer 1
 10
89.02209671978108
 20
8.458741762144433
 30
0.0
 70
0
  0
SEQEND
  8
Layer 1
  0
POLYLINE
  8
Layer 1
 62
7
 66
1
 10
0.0
 20
0.0
 30
0.0
 70
0
  0
VERTEX
  8
Layer 1
 10
86.02174427214148
 20
9.958947360626572
 30
0.0
 70
0
  0
VERTEX
  8
Layer 1
 10
86.1630281301683
 20
10.017774003020829
 30
0.0
 70
0
  0
VERTEX
  8
Layer 1
 10
86.22108235023501
 20
10.158289341920709
 30
0.0
 70
0
  0
VERTEX
  8
Layer 1
 10
86.02174427214148
 20
10.357632099937483
 30
0.0
 70
0
  0
SEQEND
  8
Layer 1
  0
POLYLINE
  8
Layer 1
 62
7
 66
1
 10
0.0
 20
0.0
 30
0.0
 70
0
  0
VERTEX
  8
Layer 1
 10
85.82035102619103
 20
10.158289341920709
 30
0.0
 70
0
  0
VERTEX
  8
Layer 1
 10
85.87917651673467
 20
10.017003494164456
 30
0.0
 70
0
  0
VERTEX
  8
Layer 1
 10
86.01968910428457
 20
9.958947360626572
 30
0.0
 70
0
  0
SEQEND
  8
Layer 1
  0
POLYLINE
  8
Layer 1
 62
7
 66
1
 10
0.0
 20
0.0
 30
0.0
 70
0
  0
VERTEX
  8
Layer 1
 10
89.02209671978108
 20
8.857426501455343
 30
0.0
 70
0
  0
VERTEX
  8
Layer 1
 10
88.83793162131137
 20
8.734369557277933
 30
0.0
 70
0
  0
VERTEX
  8
Layer 1
 10
88.88114296241154
 20
8.517128002803243
 30
0.0
 70
0
  0
VERTEX
  8
Layer 1
 10
89.0983802632044
 20
8.473915815590097
 30
0.0
 70
0
  0
VERTEX
  8
Layer 1
 10
89.22143479787461
 20
8.658084520161207
 30
0.0
 70
0
  0
VERTEX
  8
Layer 1
 10
89.1630504771506
 20
8.799040260796534
 30
0.0
 70
0
  0
VERTEX
  8
Layer 1
 10
89.02209671978108
 20
8.857426501455343
 30
0.0
 70
0
  0
VERTEX
  8
Layer 1
 10
89.02209671978108
 20
8.857426501455343
 30
0.0
 70
0
  0
SEQEND
  8
Layer 1
  0
POLYLINE
  8
Layer 1
 62
7
 66
1
 10
0.0
 20
0.0
 30
0.0
 70
0
  0
VERTEX
  8
Layer 1
 10
86.02174427214148
 20
10.357632099937483
 30
0.0
 70
0
  0
VERTEX
  8
Layer 1
 10
85.83757917367177
 20
10.234574379037436
 30
0.0
 70
0
  0
VERTEX
  8
Layer 1
 10
85.88079051477195
 20
10.017333601285381
 30
0.0
 70
0
  0
VERTEX
  8
Layer 1
 10
86.0980278155648
 20
9.974121414072235
 30
0.0
 70
0
  0
VERTEX
  8
Layer 1
 10
86.22108235023501
 20
10.158289341920709
 30
0.0
 70
0
  0
VERTEX
  8
Layer 1
 10
86.162698029511
 20
10.299245859278674
 30
0.0
 70
0
  0
VERTEX
  8
Layer 1
 10
86.02174427214148
 20
10.357632099937483
 30
0.0
 70
0
  0
VERTEX
  8
Layer 1
 10
86.02174427214148
 20
10.357632099937483
 30
0.0
 70
0
  0
SEQEND
  8
Layer 1
  0
POLYLINE
  8
Layer 1
 62
7
 66
1
 10
0.0
 20
0.0
 30
0.0
 70
0
  0
VERTEX
  8
Layer 1
 10
95.2221396931538
 20
8.658084520161207
 30
0.0
 70
0
  0
VERTEX
  8
Layer 1
 10
95.16331420261018
 20
8.79937036791746
 30
0.0
 70
0
  0
VERTEX
  8
Layer 1
 10
95.02280083835284
 20
8.857426501455343
 30
0.0
 70
0
  0
SEQEND
  8
Layer 1
  0
POLYLINE
  8
Layer 1
 62
7
 66
1
 10
0.0
 20
0.0
 30
0.0
 70
0
  0
VERTEX
  8
Layer 1
 10
95.02074644720338
 20
8.458741762144433
 30
0.0
 70
0
  0
VERTEX
  8
Layer 1
 10
95.16202952852277
 20
8.517568404538691
 30
0.0
 70
0
  0
VERTEX
  8
Layer 1
 10
95.22008452529691
 20
8.658084520161207
 30
0.0
 70
0
  0
SEQEND
  8
Layer 1
  0
POLYLINE
  8
Layer 1
 62
7
 66
1
 10
0.0
 20
0.0
 30
0.0
 70
0
  0
VERTEX
  8
Layer 1
 10
95.02074644720338
 20
8.857426501455343
 30
0.0
 70
0
  0
VERTEX
  8
Layer 1
 10
94.87946258917654
 20
8.798599859061087
 30
0.0
 70
0
  0
VERTEX
  8
Layer 1
 10
94.82140759240241
 20
8.658084520161207
 30
0.0
 70
0
  0
VERTEX
  8
Layer 1
 10
95.02074644720338
 20
8.458741762144433
 30
0.0
 70
0
  0
SEQEND
  8
Layer 1
  0
POLYLINE
  8
Layer 1
 62
7
 66
1
 10
0.0
 20
0.0
 30
0.0
 70
0
  0
VERTEX
  8
Layer 1
 10
92.02039399956377
 20
9.958947360626572
 30
0.0
 70
0
  0
VERTEX
  8
Layer 1
 10
92.16167785759058
 20
10.017774003020829
 30
0.0
 70
0
  0
VERTEX
  8
Layer 1
 10
92.21973207765731
 20
10.158289341920709
 30
0.0
 70
0
  0
VERTEX
  8
Layer 1
 10
92.02039399956377
 20
10.357632099937483
 30
0.0
 70
0
  0
SEQEND
  8
Layer 1
  0
POLYLINE
  8
Layer 1
 62
7
 66
1
 10
0.0
 20
0.0
 30
0.0
 70
0
  0
VERTEX
  8
Layer 1
 10
91.8210551447628
 20
10.158289341920709
 30
0.0
 70
0
  0
VERTEX
  8
Layer 1
 10
91.87988063530644
 20
10.017003494164456
 30
0.0
 70
0
  0
VERTEX
  8
Layer 1
 10
92.02039399956377
 20
9.958947360626572
 30
0.0
 70
0
  0
SEQEND
  8
Layer 1
  0
POLYLINE
  8
Layer 1
 62
7
 66
1
 10
0.0
 20
0.0
 30
0.0
 70
0
  0
VERTEX
  8
Layer 1
 10
95.02074644720338
 20
8.857426501455343
 30
0.0
 70
0
  0
VERTEX
  8
Layer 1
 10
94.83658134873366
 20
8.734369557277933
 30
0.0
 70
0
  0
VERTEX
  8
Layer 1
 10
94.87979268983383
 20
8.517128002803243
 30
0.0
 70
0
  0
VERTEX
  8
Layer 1
 10
95.0970299906267
 20
8.473915815590097
 30
0.0
 70
0
  0
VERTEX
  8
Layer 1
 10
95.22008452529691
 20
8.658084520161207
 30
0.0
 70
0
  0
VERTEX
  8
Layer 1
 10
95.16169942786547
 20
8.799040260796534
 30
0.0
 70
0
  0
VERTEX
  8
Layer 1
 10
95.02074644720338
 20
8.857426501455343
 30
0.0
 70
0
  0
VERTEX
  8
Layer 1
 10
95.02074644720338
 20
8.857426501455343
 30
0.0
 70
0
  0
SEQEND
  8
Layer 1
  0
POLYLINE
  8
Layer 1
 62
7
 66
1
 10
0.0
 20
0.0
 30
0.0
 70
0
  0
VERTEX
  8
Layer 1
 10
92.02039399956377
 20
10.357632099937483
 30
0.0
 70
0
  0
VERTEX
  8
Layer 1
 10
91.83622890109406
 20
10.234574379037436
 30
0.0
 70
0
  0
VERTEX
  8
Layer 1
 10
91.87944024219424
 20
10.017333601285381
 30
0.0
 70
0
  0
VERTEX
  8
Layer 1
 10
92.0966775429871
 20
9.974121414072235
 30
0.0
 70
0
  0
VERTEX
  8
Layer 1
 10
92.21973207765731
 20
10.158289341920709
 30
0.0
 70
0
  0
VERTEX
  8
Layer 1
 10
92.1613477569333
 20
10.299245859278674
 30
0.0
 70
0
  0
VERTEX
  8
Layer 1
 10
92.02039399956377
 20
10.357632099937483
 30
0.0
 70
0
  0
VERTEX
  8
Layer 1
 10
92.02039399956377
 20
10.357632099937483
 30
0.0
 70
0
  0
SEQEND
  8
Layer 1
  0
POLYLINE
  8
Layer 1
 62
7
 66
1
 10
0.0
 20
0.0
 30
0.0
 70
0
  0
VERTEX
  8
Layer 1
 10
98.02109811813554
 20
9.958947360626572
 30
0.0
 70
0
  0
VERTEX
  8
Layer 1
 10
98.16238197616235
 20
10.017774003020829
 30
0.0
 70
0
  0
VERTEX
  8
Layer 1
 10
98.22043697293651
 20
10.158289341920709
 30
0.0
 70
0
  0
VERTEX
  8
Layer 1
 10
98.02109811813554
 20
10.357632099937483
 30
0.0
 70
0
  0
SEQEND
  8
Layer 1
  0
POLYLINE
  8
Layer 1
 62
7
 66
1
 10
0.0
 20
0.0
 30
0.0
 70
0
  0
VERTEX
  8
Layer 1
 10
97.821760040042
 20
10.158289341920709
 30
0.0
 70
0
  0
VERTEX
  8
Layer 1
 10
97.88058553058563
 20
10.017003494164456
 30
0.0
 70
0
  0
VERTEX
  8
Layer 1
 10
98.02109811813554
 20
9.958947360626572
 30
0.0
 70
0
  0
SEQEND
  8
Layer 1
  0
POLYLINE
  8
Layer 1
 62
7
 66
1
 10
0.0
 20
0.0
 30
0.0
 70
0
  0
VERTEX
  8
Layer 1
 10
98.02109811813554
 20
10.357632099937483
 30
0.0
 70
0
  0
VERTEX
  8
Layer 1
 10
97.83693379637326
 20
10.234574379037436
 30
0.0
 70
0
  0
VERTEX
  8
Layer 1
 10
97.88014513747343
 20
10.017333601285381
 30
0.0
 70
0
  0
VERTEX
  8
Layer 1
 10
98.09738166155887
 20
9.974121414072235
 30
0.0
 70
0
  0
VERTEX
  8
Layer 1
 10
98.22043697293651
 20
10.158289341920709
 30
0.0
 70
0
  0
VERTEX
  8
Layer 1
 10
98.16205187550507
 20
10.299245859278674
 30
0.0
 70
0
  0
VERTEX
  8
Layer 1
 10
98.02109811813554
 20
10.357632099937483
 30
0.0
 70
0
  0
VERTEX
  8
Layer 1
 10
98.02109811813554
 20
10.357632099937483
 30
0.0
 70
0
  0
SEQEND
  8
Layer 1
  0
POLYLINE
  8
Layer 1
 62
7
 66
1
 10
0.0
 20
0.0
 30
0.0
 70
0
  0
VERTEX
  8
Layer 1
 10
80.02103937686228
 20
6.964701787958551
 30
0.0
 70
0
  0
VERTEX
  8
Layer 1
 10
80.16232323488909
 20
7.023528430352807
 30
0.0
 70
0
  0
VERTEX
  8
Layer 1
 10
80.22037823166323
 20
7.164043769252688
 30
0.0
 70
0
  0
VERTEX
  8
Layer 1
 10
80.02103937686228
 20
7.363386527269462
 30
0.0
 70
0
  0
SEQEND
  8
Layer 1
  0
POLYLINE
  8
Layer 1
 62
7
 66
1
 10
0.0
 20
0.0
 30
0.0
 70
0
  0
VERTEX
  8
Layer 1
 10
79.82170129876873
 20
7.164043769252688
 30
0.0
 70
0
  0
VERTEX
  8
Layer 1
 10
79.88052678931237
 20
7.022757144773798
 30
0.0
 70
0
  0
VERTEX
  8
Layer 1
 10
80.02103937686228
 20
6.964701787958551
 30
0.0
 70
0
  0
SEQEND
  8
Layer 1
  0
POLYLINE
  8
Layer 1
 62
7
 66
1
 10
0.0
 20
0.0
 30
0.0
 70
0
  0
VERTEX
  8
Layer 1
 10
80.02103937686228
 20
7.363386527269462
 30
0.0
 70
0
  0
VERTEX
  8
Layer 1
 10
79.8368750551
 20
7.240328806369416
 30
0.0
 70
0
  0
VERTEX
  8
Layer 1
 10
79.88008639620017
 20
7.023087251894723
 30
0.0
 70
0
  0
VERTEX
  8
Layer 1
 10
80.0973229202856
 20
6.979875841404215
 30
0.0
 70
0
  0
VERTEX
  8
Layer 1
 10
80.22037823166323
 20
7.164043769252688
 30
0.0
 70
0
  0
VERTEX
  8
Layer 1
 10
80.16199313423179
 20
7.305000286610652
 30
0.0
 70
0
  0
VERTEX
  8
Layer 1
 10
80.02103937686228
 20
7.363386527269462
 30
0.0
 70
0
  0
VERTEX
  8
Layer 1
 10
80.02103937686228
 20
7.363386527269462
 30
0.0
 70
0
  0
SEQEND
  8
Layer 1
  0
POLYLINE
  8
Layer 1
 62
7
 66
1
 10
0.0
 20
0.0
 30
0.0
 70
0
  0
VERTEX
  8
Layer 1
 10
86.02174427214148
 20
6.964701787958551
 30
0.0
 70
0
  0
VERTEX
  8
Layer 1
 10
86.1630281301683
 20
7.023528430352807
 30
0.0
 70
0
  0
VERTEX
  8
Layer 1
 10
86.22108235023501
 20
7.164043769252688
 30
0.0
 70
0
  0
VERTEX
  8
Layer 1
 10
86.02174427214148
 20
7.363386527269462
 30
0.0
 70
0
  0
SEQEND
  8
Layer 1
  0
POLYLINE
  8
Layer 1
 62
7
 66
1
 10
0.0
 20
0.0
 30
0.0
 70
0
  0
VERTEX
  8
Layer 1
 10
85.82035102619103
 20
7.164043769252688
 30
0.0
 70
0
  0
VERTEX
  8
Layer 1
 10
85.87917651673467
 20
7.022757144773798
 30
0.0
 70
0
  0
VERTEX
  8
Layer 1
 10
86.01968910428457
 20
6.964701787958551
 30
0.0
 70
0
  0
SEQEND
  8
Layer 1
  0
POLYLINE
  8
Layer 1
 62
7
 66
1
 10
0.0
 20
0.0
 30
0.0
 70
0
  0
VERTEX
  8
Layer 1
 10
86.02174427214148
 20
7.363386527269462
 30
0.0
 70
0
  0
VERTEX
  8
Layer 1
 10
85.83757917367177
 20
7.240328806369416
 30
0.0
 70
0
  0
VERTEX
  8
Layer 1
 10
85.88079051477195
 20
7.023087251894723
 30
0.0
 70
0
  0
VERTEX
  8
Layer 1
 10
86.0980278155648
 20
6.979875841404215
 30
0.0
 70
0
  0
VERTEX
  8
Layer 1
 10
86.22108235023501
 20
7.164043769252688
 30
0.0
 70
0
  0
VERTEX
  8
Layer 1
 10
86.162698029511
 20
7.305000286610652
 30
0.0
 70
0
  0
VERTEX
  8
Layer 1
 10
86.02174427214148
 20
7.363386527269462
 30
0.0
 70
0
  0
VERTEX
  8
Layer 1
 10
86.02174427214148
 20
7.363386527269462
 30
0.0
 70
0
  0
SEQEND
  8
Layer 1
  0
POLYLINE
  8
Layer 1
 62
7
 66
1
 10
0.0
 20
0.0
 30
0.0
 70
0
  0
VERTEX
  8
Layer 1
 10
92.02039399956377
 20
6.964701787958551
 30
0.0
 70
0
  0
VERTEX
  8
Layer 1
 10
92.16167785759058
 20
7.023528430352807
 30
0.0
 70
0
  0
VERTEX
  8
Layer 1
 10
92.21973207765731
 20
7.164043769252688
 30
0.0
 70
0
  0
VERTEX
  8
Layer 1
 10
92.02039399956377
 20
7.363386527269462
 30
0.0
 70
0
  0
SEQEND
  8
Layer 1
  0
POLYLINE
  8
Layer 1
 62
7
 66
1
 10
0.0
 20
0.0
 30
0.0
 70
0
  0
VERTEX
  8
Layer 1
 10
91.8210551447628
 20
7.164043769252688
 30
0.0
 70
0
  0
VERTEX
  8
Layer 1
 10
91.87988063530644
 20
7.022757144773798
 30
0.0
 70
0
  0
VERTEX
  8
Layer 1
 10
92.02039399956377
 20
6.964701787958551
 30
0.0
 70
0
  0
SEQEND
  8
Layer 1
  0
POLYLINE
  8
Layer 1
 62
7
 66
1
 10
0.0
 20
0.0
 30
0.0
 70
0
  0
VERTEX
  8
Layer 1
 10
92.02039399956377
 20
7.363386527269462
 30
0.0
 70
0
  0
VERTEX
  8
Layer 1
 10
91.83622890109406
 20
7.240328806369416
 30
0.0
 70
0
  0
VERTEX
  8
Layer 1
 10
91.87944024219424
 20
7.023087251894723
 30
0.0
 70
0
  0
VERTEX
  8
Layer 1
 10
92.0966775429871
 20
6.979875841404215
 30
0.0
 70
0
  0
VERTEX
  8
Layer 1
 10
92.21973207765731
 20
7.164043769252688
 30
0.0
 70
0
  0
VERTEX
  8
Layer 1
 10
92.1613477569333
 20
7.305000286610652
 30
0.0
 70
0
  0
VERTEX
  8
Layer 1
 10
92.02039399956377
 20
7.363386527269462
 30
0.0
 70
0
  0
VERTEX
  8
Layer 1
 10
92.02039399956377
 20
7.363386527269462
 30
0.0
 70
0
  0
SEQEND
  8
Layer 1
  0
POLYLINE
  8
Layer 1
 62
7
 66
1
 10
0.0
 20
0.0
 30
0.0
 70
0
  0
VERTEX
  8
Layer 1
 10
98.02109811813554
 20
6.964701787958551
 30
0.0
 70
0
  0
VERTEX
  8
Layer 1
 10
98.16238197616235
 20
7.023528430352807
 30
0.0
 70
0
  0
VERTEX
  8
Layer 1
 10
98.22043697293651
 20
7.164043769252688
 30
0.0
 70
0
  0
VERTEX
  8
Layer 1
 10
98.02109811813554
 20
7.363386527269462
 30
0.0
 70
0
  0
SEQEND
  8
Layer 1
  0
POLYLINE
  8
Layer 1
 62
7
 66
1
 10
0.0
 20
0.0
 30
0.0
 70
0
  0
VERTEX
  8
Layer 1
 10
97.821760040042
 20
7.164043769252688
 30
0.0
 70
0
  0
VERTEX
  8
Layer 1
 10
97.88058553058563
 20
7.022757144773798
 30
0.0
 70
0
  0
VERTEX
  8
Layer 1
 10
98.02109811813554
 20
6.964701787958551
 30
0.0
 70
0
  0
SEQEND
  8
Layer 1
  0
POLYLINE
  8
Layer 1
 62
7
 66
1
 10
0.0
 20
0.0
 30
0.0
 70
0
  0
VERTEX
  8
Layer 1
 10
98.02109811813554
 20
7.363386527269462
 30
0.0
 70
0
  0
VERTEX
  8
Layer 1
 10
97.83693379637326
 20
7.240328806369416
 30
0.0
 70
0
  0
VERTEX
  8
Layer 1
 10
97.88014513747343
 20
7.023087251894723
 30
0.0
 70
0
  0
VERTEX
  8
Layer 1
 10
98.09738166155887
 20
6.979875841404215
 30
0.0
 70
0
  0
VERTEX
  8
Layer 1
 10
98.22043697293651
 20
7.164043769252688
 30
0.0
 70
0
  0
VERTEX
  8
Layer 1
 10
98.16205187550507
 20
7.305000286610652
 30
0.0
 70
0
  0
VERTEX
  8
Layer 1
 10
98.02109811813554
 20
7.363386527269462
 30
0.0
 70
0
  0
VERTEX
  8
Layer 1
 10
98.02109811813554
 20
7.363386527269462
 30
0.0
 70
0
  0
SEQEND
  8
Layer 1
  0
POLYLINE
  8
Layer 1
 62
7
 66
1
 10
0.0
 20
0.0
 30
0.0
 70
0
  0
VERTEX
  8
Layer 1
 10
101.22078942057611
 20
14.646575665497249
 30
0.0
 70
0
  0
VERTEX
  8
Layer 1
 10
101.16196393003247
 20
14.78786228997614
 30
0.0
 70
0
  0
VERTEX
  8
Layer 1
 10
101.02145056577515
 20
14.845918423514023
 30
0.0
 70
0
  0
SEQEND
  8
Layer 1
  0
POLYLINE
  8
Layer 1
 62
7
 66
1
 10
0.0
 20
0.0
 30
0.0
 70
0
  0
VERTEX
  8
Layer 1
 10
101.02145056577515
 20
14.447233684203113
 30
0.0
 70
0
  0
VERTEX
  8
Layer 1
 10
101.16273442380195
 20
14.50606032659737
 30
0.0
 70
0
  0
VERTEX
  8
Layer 1
 10
101.22078942057611
 20
14.646575665497249
 30
0.0
 70
0
  0
SEQEND
  8
Layer 1
  0
POLYLINE
  8
Layer 1
 62
7
 66
1
 10
0.0
 20
0.0
 30
0.0
 70
0
  0
VERTEX
  8
Layer 1
 10
101.02145056577515
 20
14.845918423514023
 30
0.0
 70
0
  0
VERTEX
  8
Layer 1
 10
100.88016670774832
 20
14.787091781119766
 30
0.0
 70
0
  0
VERTEX
  8
Layer 1
 10
100.8221124876816
 20
14.646575665497249
 30
0.0
 70
0
  0
VERTEX
  8
Layer 1
 10
101.02145056577515
 20
14.447233684203113
 30
0.0
 70
0
  0
SEQEND
  8
Layer 1
  0
POLYLINE
  8
Layer 1
 62
7
 66
1
 10
0.0
 20
0.0
 30
0.0
 70
0
  0
VERTEX
  8
Layer 1
 10
101.02145056577515
 20
14.845918423514023
 30
0.0
 70
0
  0
VERTEX
  8
Layer 1
 10
100.83728624401286
 20
14.722860702613977
 30
0.0
 70
0
  0
VERTEX
  8
Layer 1
 10
100.88049680840561
 20
14.505619148139283
 30
0.0
 70
0
  0
VERTEX
  8
Layer 1
 10
101.09773410919846
 20
14.462407737648775
 30
0.0
 70
0
  0
VERTEX
  8
Layer 1
 10
101.22078942057611
 20
14.646575665497249
 30
0.0
 70
0
  0
VERTEX
  8
Layer 1
 10
101.16240432314466
 20
14.787532182855212
 30
0.0
 70
0
  0
VERTEX
  8
Layer 1
 10
101.02145056577515
 20
14.845918423514023
 30
0.0
 70
0
  0
VERTEX
  8
Layer 1
 10
101.02145056577515
 20
14.845918423514023
 30
0.0
 70
0
  0
SEQEND
  8
Layer 1
  0
POLYLINE
  8
Layer 1
 62
7
 66
1
 10
0.0
 20
0.0
 30
0.0
 70
0
  0
VERTEX
  8
Layer 1
 10
104.02180301341474
 20
15.947439282685252
 30
0.0
 70
0
  0
VERTEX
  8
Layer 1
 10
104.16308687144155
 20
16.00626514835687
 30
0.0
 70
0
  0
VERTEX
  8
Layer 1
 10
104.22114109150827
 20
16.14678126397939
 30
0.0
 70
0
  0
VERTEX
  8
Layer 1
 10
104.02180301341474
 20
16.34612402199616
 30
0.0
 70
0
  0
SEQEND
  8
Layer 1
  0
POLYLINE
  8
Layer 1
 62
7
 66
1
 10
0.0
 20
0.0
 30
0.0
 70
0
  0
VERTEX
  8
Layer 1
 10
103.82040976746428
 20
16.14678126397939
 30
0.0
 70
0
  0
VERTEX
  8
Layer 1
 10
103.8792344813005
 20
16.005494639500498
 30
0.0
 70
0
  0
VERTEX
  8
Layer 1
 10
104.01974784555784
 20
15.947439282685252
 30
0.0
 70
0
  0
SEQEND
  8
Layer 1
  0
POLYLINE
  8
Layer 1
 62
7
 66
1
 10
0.0
 20
0.0
 30
0.0
 70
0
  0
VERTEX
  8
Layer 1
 10
104.02180301341474
 20
16.34612402199616
 30
0.0
 70
0
  0
VERTEX
  8
Layer 1
 10
103.83763791494503
 20
16.223066301096114
 30
0.0
 70
0
  0
VERTEX
  8
Layer 1
 10
103.88084925604521
 20
16.005824746621425
 30
0.0
 70
0
  0
VERTEX
  8
Layer 1
 10
104.09808655683806
 20
15.962613336130914
 30
0.0
 70
0
  0
VERTEX
  8
Layer 1
 10
104.22114109150827
 20
16.14678126397939
 30
0.0
 70
0
  0
VERTEX
  8
Layer 1
 10
104.16275677078427
 20
16.287737781337352
 30
0.0
 70
0
  0
VERTEX
  8
Layer 1
 10
104.02180301341474
 20
16.34612402199616
 30
0.0
 70
0
  0
VERTEX
  8
Layer 1
 10
104.02180301341474
 20
16.34612402199616
 30
0.0
 70
0
  0
SEQEND
  8
Layer 1
  0
POLYLINE
  8
Layer 1
 62
7
 66
1
 10
0.0
 20
0.0
 30
0.0
 70
0
  0
VERTEX
  8
Layer 1
 10
101.22078942057611
 20
11.652330092829228
 30
0.0
 70
0
  0
VERTEX
  8
Layer 1
 10
101.16196393003247
 20
11.793616717308119
 30
0.0
 70
0
  0
VERTEX
  8
Layer 1
 10
101.02145056577515
 20
11.851672074123366
 30
0.0
 70
0
  0
SEQEND
  8
Layer 1
  0
POLYLINE
  8
Layer 1
 62
7
 66
1
 10
0.0
 20
0.0
 30
0.0
 70
0
  0
VERTEX
  8
Layer 1
 10
101.02145056577515
 20
11.452987334812454
 30
0.0
 70
0
  0
VERTEX
  8
Layer 1
 10
101.16273442380195
 20
11.51181397720671
 30
0.0
 70
0
  0
VERTEX
  8
Layer 1
 10
101.22078942057611
 20
11.652330092829228
 30
0.0
 70
0
  0
SEQEND
  8
Layer 1
  0
POLYLINE
  8
Layer 1
 62
7
 66
1
 10
0.0
 20
0.0
 30
0.0
 70
0
  0
VERTEX
  8
Layer 1
 10
101.02145056577515
 20
11.851672074123366
 30
0.0
 70
0
  0
VERTEX
  8
Layer 1
 10
100.88016670774832
 20
11.792846208451746
 30
0.0
 70
0
  0
VERTEX
  8
Layer 1
 10
100.8221124876816
 20
11.652330092829228
 30
0.0
 70
0
  0
VERTEX
  8
Layer 1
 10
101.02145056577515
 20
11.452987334812454
 30
0.0
 70
0
  0
SEQEND
  8
Layer 1
  0
POLYLINE
  8
Layer 1
 62
7
 66
1
 10
0.0
 20
0.0
 30
0.0
 70
0
  0
VERTEX
  8
Layer 1
 10
101.02145056577515
 20
11.851672074123366
 30
0.0
 70
0
  0
VERTEX
  8
Layer 1
 10
100.83728624401286
 20
11.728615129945954
 30
0.0
 70
0
  0
VERTEX
  8
Layer 1
 10
100.88049680840561
 20
11.511373575471262
 30
0.0
 70
0
  0
VERTEX
  8
Layer 1
 10
101.09773410919846
 20
11.468161388258117
 30
0.0
 70
0
  0
VERTEX
  8
Layer 1
 10
101.22078942057611
 20
11.652330092829228
 30
0.0
 70
0
  0
VERTEX
  8
Layer 1
 10
101.16240432314466
 20
11.793286610187193
 30
0.0
 70
0
  0
VERTEX
  8
Layer 1
 10
101.02145056577515
 20
11.851672074123366
 30
0.0
 70
0
  0
VERTEX
  8
Layer 1
 10
101.02145056577515
 20
11.851672074123366
 30
0.0
 70
0
  0
SEQEND
  8
Layer 1
  0
POLYLINE
  8
Layer 1
 62
7
 66
1
 10
0.0
 20
0.0
 30
0.0
 70
0
  0
VERTEX
  8
Layer 1
 10
104.02180301341474
 20
12.953192933294593
 30
0.0
 70
0
  0
VERTEX
  8
Layer 1
 10
104.16308687144155
 20
13.012019575688848
 30
0.0
 70
0
  0
VERTEX
  8
Layer 1
 10
104.22114109150827
 20
13.152535691311368
 30
0.0
 70
0
  0
VERTEX
  8
Layer 1
 10
104.02180301341474
 20
13.351877672605504
 30
0.0
 70
0
  0
SEQEND
  8
Layer 1
  0
POLYLINE
  8
Layer 1
 62
7
 66
1
 10
0.0
 20
0.0
 30
0.0
 70
0
  0
VERTEX
  8
Layer 1
 10
103.82040976746428
 20
13.152535691311368
 30
0.0
 70
0
  0
VERTEX
  8
Layer 1
 10
103.8792344813005
 20
13.011249066832479
 30
0.0
 70
0
  0
VERTEX
  8
Layer 1
 10
104.01974784555784
 20
12.953192933294593
 30
0.0
 70
0
  0
SEQEND
  8
Layer 1
  0
POLYLINE
  8
Layer 1
 62
7
 66
1
 10
0.0
 20
0.0
 30
0.0
 70
0
  0
VERTEX
  8
Layer 1
 10
104.02180301341474
 20
13.351877672605504
 30
0.0
 70
0
  0
VERTEX
  8
Layer 1
 10
103.83763791494503
 20
13.228820728428094
 30
0.0
 70
0
  0
VERTEX
  8
Layer 1
 10
103.88084925604521
 20
13.011579173953404
 30
0.0
 70
0
  0
VERTEX
  8
Layer 1
 10
104.09808655683806
 20
12.968366986740257
 30
0.0
 70
0
  0
VERTEX
  8
Layer 1
 10
104.22114109150827
 20
13.152535691311368
 30
0.0
 70
0
  0
VERTEX
  8
Layer 1
 10
104.16275677078427
 20
13.293492208669333
 30
0.0
 70
0
  0
VERTEX
  8
Layer 1
 10
104.02180301341474
 20
13.351877672605504
 30
0.0
 70
0
  0
VERTEX
  8
Layer 1
 10
104.02180301341474
 20
13.351877672605504
 30
0.0
 70
0
  0
SEQEND
  8
Layer 1
  0
POLYLINE
  8
Layer 1
 62
7
 66
1
 10
0.0
 20
0.0
 30
0.0
 70
0
  0
VERTEX
  8
Layer 1
 10
101.22078942057611
 20
8.658084520161207
 30
0.0
 70
0
  0
VERTEX
  8
Layer 1
 10
101.16196393003247
 20
8.79937036791746
 30
0.0
 70
0
  0
VERTEX
  8
Layer 1
 10
101.02145056577515
 20
8.857426501455343
 30
0.0
 70
0
  0
SEQEND
  8
Layer 1
  0
POLYLINE
  8
Layer 1
 62
7
 66
1
 10
0.0
 20
0.0
 30
0.0
 70
0
  0
VERTEX
  8
Layer 1
 10
101.02145056577515
 20
8.458741762144433
 30
0.0
 70
0
  0
VERTEX
  8
Layer 1
 10
101.16273442380195
 20
8.517568404538691
 30
0.0
 70
0
  0
VERTEX
  8
Layer 1
 10
101.22078942057611
 20
8.658084520161207
 30
0.0
 70
0
  0
SEQEND
  8
Layer 1
  0
POLYLINE
  8
Layer 1
 62
7
 66
1
 10
0.0
 20
0.0
 30
0.0
 70
0
  0
VERTEX
  8
Layer 1
 10
101.02145056577515
 20
8.857426501455343
 30
0.0
 70
0
  0
VERTEX
  8
Layer 1
 10
100.88016670774832
 20
8.798599859061087
 30
0.0
 70
0
  0
VERTEX
  8
Layer 1
 10
100.8221124876816
 20
8.658084520161207
 30
0.0
 70
0
  0
VERTEX
  8
Layer 1
 10
101.02145056577515
 20
8.458741762144433
 30
0.0
 70
0
  0
SEQEND
  8
Layer 1
  0
POLYLINE
  8
Layer 1
 62
7
 66
1
 10
0.0
 20
0.0
 30
0.0
 70
0
  0
VERTEX
  8
Layer 1
 10
101.02145056577515
 20
8.857426501455343
 30
0.0
 70
0
  0
VERTEX
  8
Layer 1
 10
100.83728624401286
 20
8.734369557277933
 30
0.0
 70
0
  0
VERTEX
  8
Layer 1
 10
100.88049680840561
 20
8.517128002803243
 30
0.0
 70
0
  0
VERTEX
  8
Layer 1
 10
101.09773410919846
 20
8.473915815590097
 30
0.0
 70
0
  0
VERTEX
  8
Layer 1
 10
101.22078942057611
 20
8.658084520161207
 30
0.0
 70
0
  0
VERTEX
  8
Layer 1
 10
101.16240432314466
 20
8.799040260796534
 30
0.0
 70
0
  0
VERTEX
  8
Layer 1
 10
101.02145056577515
 20
8.857426501455343
 30
0.0
 70
0
  0
VERTEX
  8
Layer 1
 10
101.02145056577515
 20
8.857426501455343
 30
0.0
 70
0
  0
SEQEND
  8
Layer 1
  0
POLYLINE
  8
Layer 1
 62
7
 66
1
 10
0.0
 20
0.0
 30
0.0
 70
0
  0
VERTEX
  8
Layer 1
 10
104.02180301341474
 20
9.958947360626572
 30
0.0
 70
0
  0
VERTEX
  8
Layer 1
 10
104.16308687144155
 20
10.017774003020829
 30
0.0
 70
0
  0
VERTEX
  8
Layer 1
 10
104.22114109150827
 20
10.158289341920709
 30
0.0
 70
0
  0
VERTEX
  8
Layer 1
 10
104.02180301341474
 20
10.357632099937483
 30
0.0
 70
0
  0
SEQEND
  8
Layer 1
  0
POLYLINE
  8
Layer 1
 62
7
 66
1
 10
0.0
 20
0.0
 30
0.0
 70
0
  0
VERTEX
  8
Layer 1
 10
103.82040976746428
 20
10.158289341920709
 30
0.0
 70
0
  0
VERTEX
  8
Layer 1
 10
103.8792344813005
 20
10.017003494164456
 30
0.0
 70
0
  0
VERTEX
  8
Layer 1
 10
104.01974784555784
 20
9.958947360626572
 30
0.0
 70
0
  0
SEQEND
  8
Layer 1
  0
POLYLINE
  8
Layer 1
 62
7
 66
1
 10
0.0
 20
0.0
 30
0.0
 70
0
  0
VERTEX
  8
Layer 1
 10
104.02180301341474
 20
10.357632099937483
 30
0.0
 70
0
  0
VERTEX
  8
Layer 1
 10
103.83763791494503
 20
10.234574379037436
 30
0.0
 70
0
  0
VERTEX
  8
Layer 1
 10
103.88084925604521
 20
10.017333601285381
 30
0.0
 70
0
  0
VERTEX
  8
Layer 1
 10
104.09808655683806
 20
9.974121414072235
 30
0.0
 70
0
  0
VERTEX
  8
Layer 1
 10
104.22114109150827
 20
10.158289341920709
 30
0.0
 70
0
  0
VERTEX
  8
Layer 1
 10
104.16275677078427
 20
10.299245859278674
 30
0.0
 70
0
  0
VERTEX
  8
Layer 1
 10
104.02180301341474
 20
10.357632099937483
 30
0.0
 70
0
  0
VERTEX
  8
Layer 1
 10
104.02180301341474
 20
10.357632099937483
 30
0.0
 70
0
  0
SEQEND
  8
Layer 1
  0
POLYLINE
  8
Layer 1
 62
7
 66
1
 10
0.0
 20
0.0
 30
0.0
 70
0
  0
VERTEX
  8
Layer 1
 10
104.02180301341474
 20
6.964701787958551
 30
0.0
 70
0
  0
VERTEX
  8
Layer 1
 10
104.16308687144155
 20
7.023528430352807
 30
0.0
 70
0
  0
VERTEX
  8
Layer 1
 10
104.22114109150827
 20
7.164043769252688
 30
0.0
 70
0
  0
VERTEX
  8
Layer 1
 10
104.02180301341474
 20
7.363386527269462
 30
0.0
 70
0
  0
SEQEND
  8
Layer 1
  0
POLYLINE
  8
Layer 1
 62
7
 66
1
 10
0.0
 20
0.0
 30
0.0
 70
0
  0
VERTEX
  8
Layer 1
 10
103.82040976746428
 20
7.164043769252688
 30
0.0
 70
0
  0
VERTEX
  8
Layer 1
 10
103.8792344813005
 20
7.022757144773798
 30
0.0
 70
0
  0
VERTEX
  8
Layer 1
 10
104.01974784555784
 20
6.964701787958551
 30
0.0
 70
0
  0
SEQEND
  8
Layer 1
  0
POLYLINE
  8
Layer 1
 62
7
 66
1
 10
0.0
 20
0.0
 30
0.0
 70
0
  0
VERTEX
  8
Layer 1
 10
104.02180301341474
 20
7.363386527269462
 30
0.0
 70
0
  0
VERTEX
  8
Layer 1
 10
103.83763791494503
 20
7.240328806369416
 30
0.0
 70
0
  0
VERTEX
  8
Layer 1
 10
103.88084925604521
 20
7.023087251894723
 30
0.0
 70
0
  0
VERTEX
  8
Layer 1
 10
104.09808655683806
 20
6.979875841404215
 30
0.0
 70
0
  0
VERTEX
  8
Layer 1
 10
104.22114109150827
 20
7.164043769252688
 30
0.0
 70
0
  0
VERTEX
  8
Layer 1
 10
104.16275677078427
 20
7.305000286610652
 30
0.0
 70
0
  0
VERTEX
  8
Layer 1
 10
104.02180301341474
 20
7.363386527269462
 30
0.0
 70
0
  0
VERTEX
  8
Layer 1
 10
104.02180301341474
 20
7.363386527269462
 30
0.0
 70
0
  0
SEQEND
  8
Layer 1
  0
POLYLINE
  8
Layer 1
 62
7
 66
1
 10
0.0
 20
0.0
 30
0.0
 70
0
  0
VERTEX
  8
Layer 1
 10
2.020100293197438
 20
8.146370325922655
 30
0.0
 70
0
  0
VERTEX
  8
Layer 1
 10
5.0204527408370385
 20
8.146370325922655
 30
0.0
 70
0
  0
SEQEND
  8
Layer 1
  0
POLYLINE
  8
Layer 1
 62
7
 66
1
 10
0.0
 20
0.0
 30
0.0
 70
0
  0
VERTEX
  8
Layer 1
 10
36.02066760770073
 20
2.0222432132953374
 30
0.0
 70
0
  0
VERTEX
  8
Layer 1
 10
36.02066760770073
 20
4.147192460943667
 30
0.0
 70
0
  0
SEQEND
  8
Layer 1
  0
POLYLINE
  8
Layer 1
 62
7
 66
1
 10
0.0
 20
0.0
 30
0.0
 70
0
  0
VERTEX
  8
Layer 1
 10
40.019767167079785
 20
2.0222432132953374
 30
0.0
 70
0
  0
VERTEX
  8
Layer 1
 10
40.019767167079785
 20
4.147192460943667
 30
0.0
 70
0
  0
SEQEND
  8
Layer 1
  0
POLYLINE
  8
Layer 1
 62
7
 66
1
 10
0.0
 20
0.0
 30
0.0
 70
0
  0
VERTEX
  8
Layer 1
 10
72.02078509024726
 20
2.0222432132953374
 30
0.0
 70
0
  0
VERTEX
  8
Layer 1
 10
72.17802795581596
 20
1.2442366533030673
 30
0.0
 70
0
  0
VERTEX
  8
Layer 1
 10
72.60672696096027
 20
0.6086080130953365
 30
0.0
 70
0
  0
VERTEX
  8
Layer 1
 10
73.24234315528945
 20
0.17989983695556205
 30
0.0
 70
0
  0
VERTEX
  8
Layer 1
 10
74.0203352582905
 20
0.02265466916716122
 30
0.0
 70
0
  0
VERTEX
  8
Layer 1
 10
74.79832658458413
 20
0.17989983695556205
 30
0.0
 70
0
  0
VERTEX
  8
Layer 1
 10
75.4339427789133
 20
0.6086080130953365
 30
0.0
 70
0
  0
VERTEX
  8
Layer 1
 10
75.86264256076504
 20
1.2442366533030673
 30
0.0
 70
0
  0
VERTEX
  8
Layer 1
 10
76.01988464962632
 20
2.0222432132953374
 30
0.0
 70
0
  0
SEQEND
  8
Layer 1
  0
POLYLINE
  8
Layer 1
 62
7
 66
1
 10
0.0
 20
0.0
 30
0.0
 70
0
  0
VERTEX
  8
Layer 1
 10
76.01988464962632
 20
2.0222432132953374
 30
0.0
 70
0
  0
VERTEX
  8
Layer 1
 10
76.01988464962632
 20
4.147192460943667
 30
0.0
 70
0
  0
SEQEND
  8
Layer 1
  0
POLYLINE
  8
Layer 1
 62
7
 66
1
 10
0.0
 20
0.0
 30
0.0
 70
0
  0
VERTEX
  8
Layer 1
 10
108.0209025727938
 20
2.0222432132953374
 30
0.0
 70
0
  0
VERTEX
  8
Layer 1
 10
108.0209025727938
 20
4.147192460943667
 30
0.0
 70
0
  0
SEQEND
  8
Layer 1
  0
POLYLINE
  8
Layer 1
 62
7
 66
1
 10
0.0
 20
0.0
 30
0.0
 70
0
  0
VERTEX
  8
Layer 1
 10
103.02100073381838
 20
21.27214093186936
 30
0.0
 70
0
  0
VERTEX
  8
Layer 1
 10
103.02100073381838
 20
19.147192460943668
 30
0.0
 70
0
  0
SEQEND
  8
Layer 1
  0
POLYLINE
  8
Layer 1
 62
7
 66
1
 10
0.0
 20
0.0
 30
0.0
 70
0
  0
VERTEX
  8
Layer 1
 10
99.01984600658241
 20
21.27214093186936
 30
0.0
 70
0
  0
VERTEX
  8
Layer 1
 10
99.01984600658241
 20
19.147192460943668
 30
0.0
 70
0
  0
SEQEND
  8
Layer 1
  0
POLYLINE
  8
Layer 1
 62
7
 66
1
 10
0.0
 20
0.0
 30
0.0
 70
0
  0
VERTEX
  8
Layer 1
 10
85.02094199254512
 20
21.27214093186936
 30
0.0
 70
0
  0
VERTEX
  8
Layer 1
 10
84.8636991269764
 20
22.050147491861626
 30
0.0
 70
0
  0
VERTEX
  8
Layer 1
 10
84.43499934512468
 20
22.68577613206936
 30
0.0
 70
0
  0
VERTEX
  8
Layer 1
 10
83.79938392750293
 20
23.114484308209136
 30
0.0
 70
0
  0
VERTEX
  8
Layer 1
 10
83.02139182450188
 20
23.27173025272017
 30
0.0
 70
0
  0
VERTEX
  8
Layer 1
 10
82.24340049820825
 20
23.114484308209136
 30
0.0
 70
0
  0
VERTEX
  8
Layer 1
 10
81.60778430387907
 20
22.68577613206936
 30
0.0
 70
0
  0
VERTEX
  8
Layer 1
 10
81.17908452202734
 20
22.050147491861626
 30
0.0
 70
0
  0
VERTEX
  8
Layer 1
 10
81.02184243316606
 20
21.27214093186936
 30
0.0
 70
0
  0
SEQEND
  8
Layer 1
  0
POLYLINE
  8
Layer 1
 62
7
 66
1
 10
0.0
 20
0.0
 30
0.0
 70
0
  0
VERTEX
  8
Layer 1
 10
108.0209025727938
 20
2.0222432132953374
 30
0.0
 70
0
  0
VERTEX
  8
Layer 1
 10
108.17814466165507
 20
1.2442366533030673
 30
0.0
 70
0
  0
VERTEX
  8
Layer 1
 10
108.6068444435068
 20
0.6086080130953365
 30
0.0
 70
0
  0
VERTEX
  8
Layer 1
 10
109.24246063783598
 20
0.17989983695556205
 30
0.0
 70
0
  0
VERTEX
  8
Layer 1
 10
110.02045274083703
 20
0.02265466916716122
 30
0.0
 70
0
  0
VERTEX
  8
Layer 1
 10
110.79844406713066
 20
0.17989983695556205
 30
0.0
 70
0
  0
VERTEX
  8
Layer 1
 10
111.43406026145983
 20
0.6086080130953365
 30
0.0
 70
0
  0
VERTEX
  8
Layer 1
 10
111.86276004331158
 20
1.2442366533030673
 30
0.0
 70
0
  0
VERTEX
  8
Layer 1
 10
112.02000213217286
 20
2.0222432132953374
 30
0.0
 70
0
  0
VERTEX
  8
Layer 1
 10
111.86276004331158
 20
2.8002505500102446
 30
0.0
 70
0
  0
VERTEX
  8
Layer 1
 10
111.43406026145983
 20
3.4358791902179755
 30
0.0
 70
0
  0
VERTEX
  8
Layer 1
 10
110.79844406713066
 20
3.86458736635775
 30
0.0
 70
0
  0
VERTEX
  8
Layer 1
 10
110.02045274083703
 20
4.021832534146151
 30
0.0
 70
0
  0
SEQEND
  8
Layer 1
  0
POLYLINE
  8
Layer 1
 62
7
 66
1
 10
0.0
 20
0.0
 30
0.0
 70
0
  0
VERTEX
  8
Layer 1
 10
2.020100293197438
 20
8.146370325922655
 30
0.0
 70
0
  0
VERTEX
  8
Layer 1
 10
1.242108966903816
 20
7.9891251581342555
 30
0.0
 70
0
  0
VERTEX
  8
Layer 1
 10
0.6064927725746352
 20
7.560416981994481
 30
0.0
 70
0
  0
VERTEX
  8
Layer 1
 10
0.1777929907229029
 20
6.9247883417867495
 30
0.0
 70
0
  0
VERTEX
  8
Layer 1
 10
0.020550125154196765
 20
6.146781005071842
 30
0.0
 70
0
  0
VERTEX
  8
Layer 1
 10
0.1777929907229029
 20
5.3687744450795725
 30
0.0
 70
0
  0
VERTEX
  8
Layer 1
 10
0.6064927725746352
 20
4.733145804871842
 30
0.0
 70
0
  0
VERTEX
  8
Layer 1
 10
1.242108966903816
 20
4.304437628732067
 30
0.0
 70
0
  0
VERTEX
  8
Layer 1
 10
2.020100293197438
 20
4.147192460943667
 30
0.0
 70
0
  0
SEQEND
  8
Layer 1
  0
POLYLINE
  8
Layer 1
 62
7
 66
1
 10
0.0
 20
0.0
 30
0.0
 70
0
  0
VERTEX
  8
Layer 1
 10
36.02066760770073
 20
2.0222432132953374
 30
0.0
 70
0
  0
VERTEX
  8
Layer 1
 10
36.177910473269435
 20
1.2442366533030673
 30
0.0
 70
0
  0
VERTEX
  8
Layer 1
 10
36.60661025512117
 20
0.6086080130953365
 30
0.0
 70
0
  0
VERTEX
  8
Layer 1
 10
37.24222567274292
 20
0.17989983695556205
 30
0.0
 70
0
  0
VERTEX
  8
Layer 1
 10
38.02021777574397
 20
0.02265466916716122
 30
0.0
 70
0
  0
VERTEX
  8
Layer 1
 10
38.79820910203759
 20
0.17989983695556205
 30
0.0
 70
0
  0
VERTEX
  8
Layer 1
 10
39.43382529636678
 20
0.6086080130953365
 30
0.0
 70
0
  0
VERTEX
  8
Layer 1
 10
39.8625250782185
 20
1.2442366533030673
 30
0.0
 70
0
  0
VERTEX
  8
Layer 1
 10
40.019767167079785
 20
2.0222432132953374
 30
0.0
 70
0
  0
SEQEND
  8
Layer 1
  0
POLYLINE
  8
Layer 1
 62
7
 66
1
 10
0.0
 20
0.0
 30
0.0
 70
0
  0
VERTEX
  8
Layer 1
 10
63.01972852403589
 20
21.27214093186936
 30
0.0
 70
0
  0
VERTEX
  8
Layer 1
 10
63.01972852403589
 20
19.147192460943668
 30
0.0
 70
0
  0
SEQEND
  8
Layer 1
  0
POLYLINE
  8
Layer 1
 62
7
 66
1
 10
0.0
 20
0.0
 30
0.0
 70
0
  0
VERTEX
  8
Layer 1
 10
72.02078509024726
 20
2.0222432132953374
 30
0.0
 70
0
  0
VERTEX
  8
Layer 1
 10
72.02078509024726
 20
4.147192460943667
 30
0.0
 70
0
  0
SEQEND
  8
Layer 1
  0
POLYLINE
  8
Layer 1
 62
7
 66
1
 10
0.0
 20
0.0
 30
0.0
 70
0
  0
VERTEX
  8
Layer 1
 10
85.02094199254512
 20
21.27214093186936
 30
0.0
 70
0
  0
VERTEX
  8
Layer 1
 10
85.02094199254512
 20
19.147192460943668
 30
0.0
 70
0
  0
SEQEND
  8
Layer 1
  0
POLYLINE
  8
Layer 1
 62
7
 66
1
 10
0.0
 20
0.0
 30
0.0
 70
0
  0
VERTEX
  8
Layer 1
 10
45.01966978276263
 20
21.27214093186936
 30
0.0
 70
0
  0
VERTEX
  8
Layer 1
 10
45.01966978276263
 20
19.147192460943668
 30
0.0
 70
0
  0
SEQEND
  8
Layer 1
  0
POLYLINE
  8
Layer 1
 62
7
 66
1
 10
0.0
 20
0.0
 30
0.0
 70
0
  0
VERTEX
  8
Layer 1
 10
81.01978726530915
 20
21.27214093186936
 30
0.0
 70
0
  0
VERTEX
  8
Layer 1
 10
81.01978726530915
 20
19.147192460943668
 30
0.0
 70
0
  0
SEQEND
  8
Layer 1
  0
POLYLINE
  8
Layer 1
 62
7
 66
1
 10
0.0
 20
0.0
 30
0.0
 70
0
  0
VERTEX
  8
Layer 1
 10
31.020765768725315
 20
21.27214093186936
 30
0.0
 70
0
  0
VERTEX
  8
Layer 1
 10
30.863523679864038
 20
22.050147491861626
 30
0.0
 70
0
  0
VERTEX
  8
Layer 1
 10
30.434823898012308
 20
22.68577613206936
 30
0.0
 70
0
  0
VERTEX
  8
Layer 1
 10
29.799207703683127
 20
23.114484308209136
 30
0.0
 70
0
  0
VERTEX
  8
Layer 1
 10
29.021215600682073
 20
23.27173025272017
 30
0.0
 70
0
  0
VERTEX
  8
Layer 1
 10
28.243224274388453
 20
23.114484308209136
 30
0.0
 70
0
  0
VERTEX
  8
Layer 1
 10
27.60760808005927
 20
22.68577613206936
 30
0.0
 70
0
  0
VERTEX
  8
Layer 1
 10
27.178908298207542
 20
22.050147491861626
 30
0.0
 70
0
  0
VERTEX
  8
Layer 1
 10
27.021666209346265
 20
21.27214093186936
 30
0.0
 70
0
  0
SEQEND
  8
Layer 1
  0
POLYLINE
  8
Layer 1
 62
7
 66
1
 10
0.0
 20
0.0
 30
0.0
 70
0
  0
VERTEX
  8
Layer 1
 10
27.01961104148936
 20
21.27214093186936
 30
0.0
 70
0
  0
VERTEX
  8
Layer 1
 10
27.01961104148936
 20
19.147192460943668
 30
0.0
 70
0
  0
SEQEND
  8
Layer 1
  0
POLYLINE
  8
Layer 1
 62
7
 66
1
 10
0.0
 20
0.0
 30
0.0
 70
0
  0
VERTEX
  8
Layer 1
 10
13.02070702745205
 20
21.27214093186936
 30
0.0
 70
0
  0
VERTEX
  8
Layer 1
 10
13.02070702745205
 20
19.147192460943668
 30
0.0
 70
0
  0
SEQEND
  8
Layer 1
  0
POLYLINE
  8
Layer 1
 62
7
 66
1
 10
0.0
 20
0.0
 30
0.0
 70
0
  0
VERTEX
  8
Layer 1
 10
13.02070702745205
 20
21.27214093186936
 30
0.0
 70
0
  0
VERTEX
  8
Layer 1
 10
12.863464938590774
 20
22.050147491861626
 30
0.0
 70
0
  0
VERTEX
  8
Layer 1
 10
12.43476515673904
 20
22.68577613206936
 30
0.0
 70
0
  0
VERTEX
  8
Layer 1
 10
11.79914896240986
 20
23.114484308209136
 30
0.0
 70
0
  0
VERTEX
  8
Layer 1
 10
11.02115685940881
 20
23.27173025272017
 30
0.0
 70
0
  0
VERTEX
  8
Layer 1
 10
10.243165533115187
 20
23.114484308209136
 30
0.0
 70
0
  0
VERTEX
  8
Layer 1
 10
9.607549338786006
 20
22.68577613206936
 30
0.0
 70
0
  0
VERTEX
  8
Layer 1
 10
9.178849556934274
 20
22.050147491861626
 30
0.0
 70
0
  0
VERTEX
  8
Layer 1
 10
9.021607468072997
 20
21.27214093186936
 30
0.0
 70
0
  0
SEQEND
  8
Layer 1
  0
POLYLINE
  8
Layer 1
 62
7
 66
1
 10
0.0
 20
0.0
 30
0.0
 70
0
  0
VERTEX
  8
Layer 1
 10
49.02082450999858
 20
21.27214093186936
 30
0.0
 70
0
  0
VERTEX
  8
Layer 1
 10
48.86358164442988
 20
22.050147491861626
 30
0.0
 70
0
  0
VERTEX
  8
Layer 1
 10
48.434882639285576
 20
22.68577613206936
 30
0.0
 70
0
  0
VERTEX
  8
Layer 1
 10
47.79926644495639
 20
23.114484308209136
 30
0.0
 70
0
  0
VERTEX
  8
Layer 1
 10
47.02127434195534
 20
23.27173025272017
 30
0.0
 70
0
  0
VERTEX
  8
Layer 1
 10
46.24328301566172
 20
23.114484308209136
 30
0.0
 70
0
  0
VERTEX
  8
Layer 1
 10
45.60766682133254
 20
22.68577613206936
 30
0.0
 70
0
  0
VERTEX
  8
Layer 1
 10
45.1789670394808
 20
22.050147491861626
 30
0.0
 70
0
  0
VERTEX
  8
Layer 1
 10
45.02172495061953
 20
21.27214093186936
 30
0.0
 70
0
  0
SEQEND
  8
Layer 1
  0
POLYLINE
  8
Layer 1
 62
7
 66
1
 10
0.0
 20
0.0
 30
0.0
 70
0
  0
VERTEX
  8
Layer 1
 10
2.020100293197438
 20
7.147603657907945
 30
0.0
 70
0
  0
VERTEX
  8
Layer 1
 10
1.4640841830130416
 20
6.978934453567598
 30
0.0
 70
0
  0
VERTEX
  8
Layer 1
 10
1.0954790316437857
 20
6.529779053996358
 30
0.0
 70
0
  0
VERTEX
  8
Layer 1
 10
1.0385277361261227
 20
5.951530798631912
 30
0.0
 70
0
  0
VERTEX
  8
Layer 1
 10
1.3124258438582244
 20
5.439093475617874
 30
0.0
 70
0
  0
VERTEX
  8
Layer 1
 10
1.8248531331319882
 20
5.165190004739562
 30
0.0
 70
0
  0
VERTEX
  8
Layer 1
 10
2.403090842857603
 20
5.222142415409596
 30
0.0
 70
0
  0
VERTEX
  8
Layer 1
 10
2.852236671068058
 20
5.590754007642847
 30
0.0
 70
0
  0
VERTEX
  8
Layer 1
 10
3.020902572793797
 20
6.146781005071842
 30
0.0
 70
0
  0
VERTEX
  8
Layer 1
 10
2.9447207780436617
 20
6.529779053996358
 30
0.0
 70
0
  0
VERTEX
  8
Layer 1
 10
2.7277747425366514
 20
6.85446931124845
 30
0.0
 70
0
  0
VERTEX
  8
Layer 1
 10
2.403090842857603
 20
7.0714203714567265
 30
0.0
 70
0
  0
VERTEX
  8
Layer 1
 10
2.020100293197438
 20
7.147603657907945
 30
0.0
 70
0
  0
VERTEX
  8
Layer 1
 10
2.020100293197438
 20
7.147603657907945
 30
0.0
 70
0
  0
SEQEND
  8
Layer 1
  0
POLYLINE
  8
Layer 1
 62
7
 66
1
 10
0.0
 20
0.0
 30
0.0
 70
0
  0
VERTEX
  8
Layer 1
 10
11.02115685940881
 20
22.27296280798282
 30
0.0
 70
0
  0
VERTEX
  8
Layer 1
 10
10.465140749224412
 20
22.104294380365115
 30
0.0
 70
0
  0
VERTEX
  8
Layer 1
 10
10.096536374562586
 20
21.655138980793875
 30
0.0
 70
0
  0
VERTEX
  8
Layer 1
 10
10.039585079044924
 20
21.07688994870679
 30
0.0
 70
0
  0
VERTEX
  8
Layer 1
 10
10.313483186777024
 20
20.564452625692752
 30
0.0
 70
0
  0
VERTEX
  8
Layer 1
 10
10.825910476050788
 20
20.29054915481444
 30
0.0
 70
0
  0
VERTEX
  8
Layer 1
 10
11.404147409068974
 20
20.34750234220711
 30
0.0
 70
0
  0
VERTEX
  8
Layer 1
 10
11.853294013986858
 20
20.71611393444036
 30
0.0
 70
0
  0
VERTEX
  8
Layer 1
 10
12.021959915712598
 20
21.27214093186936
 30
0.0
 70
0
  0
VERTEX
  8
Layer 1
 10
11.945778120962462
 20
21.655138980793875
 30
0.0
 70
0
  0
VERTEX
  8
Layer 1
 10
11.728831308748022
 20
21.979829238045966
 30
0.0
 70
0
  0
VERTEX
  8
Layer 1
 10
11.404147409068974
 20
22.196780298254243
 30
0.0
 70
0
  0
VERTEX
  8
Layer 1
 10
11.02115685940881
 20
22.27296280798282
 30
0.0
 70
0
  0
VERTEX
  8
Layer 1
 10
11.02115685940881
 20
22.27296280798282
 30
0.0
 70
0
  0
SEQEND
  8
Layer 1
  0
POLYLINE
  8
Layer 1
 62
7
 66
1
 10
0.0
 20
0.0
 30
0.0
 70
0
  0
VERTEX
  8
Layer 1
 10
29.021215600682073
 20
22.27296280798282
 30
0.0
 70
0
  0
VERTEX
  8
Layer 1
 10
28.465199490497678
 20
22.104294380365115
 30
0.0
 70
0
  0
VERTEX
  8
Layer 1
 10
28.09659511583585
 20
21.655138980793875
 30
0.0
 70
0
  0
VERTEX
  8
Layer 1
 10
28.039643820318187
 20
21.07688994870679
 30
0.0
 70
0
  0
VERTEX
  8
Layer 1
 10
28.31354192805029
 20
20.564452625692752
 30
0.0
 70
0
  0
VERTEX
  8
Layer 1
 10
28.825969217324054
 20
20.29054915481444
 30
0.0
 70
0
  0
VERTEX
  8
Layer 1
 10
29.40420615034224
 20
20.34750234220711
 30
0.0
 70
0
  0
VERTEX
  8
Layer 1
 10
29.853352755260122
 20
20.71611393444036
 30
0.0
 70
0
  0
VERTEX
  8
Layer 1
 10
30.022017880278433
 20
21.27214093186936
 30
0.0
 70
0
  0
VERTEX
  8
Layer 1
 10
29.945836862235726
 20
21.655138980793875
 30
0.0
 70
0
  0
VERTEX
  8
Layer 1
 10
29.72889005002129
 20
21.979829238045966
 30
0.0
 70
0
  0
VERTEX
  8
Layer 1
 10
29.40420615034224
 20
22.196780298254243
 30
0.0
 70
0
  0
VERTEX
  8
Layer 1
 10
29.021215600682073
 20
22.27296280798282
 30
0.0
 70
0
  0
VERTEX
  8
Layer 1
 10
29.021215600682073
 20
22.27296280798282
 30
0.0
 70
0
  0
SEQEND
  8
Layer 1
  0
POLYLINE
  8
Layer 1
 62
7
 66
1
 10
0.0
 20
0.0
 30
0.0
 70
0
  0
VERTEX
  8
Layer 1
 10
38.02021777574397
 20
3.023065866131439
 30
0.0
 70
0
  0
VERTEX
  8
Layer 1
 10
37.46420166555957
 20
2.854396661791092
 30
0.0
 70
0
  0
VERTEX
  8
Layer 1
 10
37.09559651419032
 20
2.4052412622198536
 30
0.0
 70
0
  0
VERTEX
  8
Layer 1
 10
37.038645218672656
 20
1.8269930068554057
 30
0.0
 70
0
  0
VERTEX
  8
Layer 1
 10
37.31254332640476
 20
1.3145556838413677
 30
0.0
 70
0
  0
VERTEX
  8
Layer 1
 10
37.824970615678524
 20
1.0406522129630553
 30
0.0
 70
0
  0
VERTEX
  8
Layer 1
 10
38.40320832540414
 20
1.097604623633091
 30
0.0
 70
0
  0
VERTEX
  8
Layer 1
 10
38.85235415361459
 20
1.4662169925889785
 30
0.0
 70
0
  0
VERTEX
  8
Layer 1
 10
39.02102005534033
 20
2.0222432132953374
 30
0.0
 70
0
  0
VERTEX
  8
Layer 1
 10
38.94237221450339
 20
2.4118084521196836
 30
0.0
 70
0
  0
VERTEX
  8
Layer 1
 10
38.72789222508318
 20
2.7299315194719442
 30
0.0
 70
0
  0
VERTEX
  8
Layer 1
 10
38.4097753867156
 20
2.9444157085836085
 30
0.0
 70
0
  0
VERTEX
  8
Layer 1
 10
38.02021777574397
 20
3.023065866131439
 30
0.0
 70
0
  0
VERTEX
  8
Layer 1
 10
38.02021777574397
 20
3.023065866131439
 30
0.0
 70
0
  0
SEQEND
  8
Layer 1
  0
POLYLINE
  8
Layer 1
 62
7
 66
1
 10
0.0
 20
0.0
 30
0.0
 70
0
  0
VERTEX
  8
Layer 1
 10
47.02127434195534
 20
22.27296280798282
 30
0.0
 70
0
  0
VERTEX
  8
Layer 1
 10
46.46525823177094
 20
22.104294380365115
 30
0.0
 70
0
  0
VERTEX
  8
Layer 1
 10
46.09665385710912
 20
21.655138980793875
 30
0.0
 70
0
  0
VERTEX
  8
Layer 1
 10
46.039702561591454
 20
21.07688994870679
 30
0.0
 70
0
  0
VERTEX
  8
Layer 1
 10
46.313600669323556
 20
20.564452625692752
 30
0.0
 70
0
  0
VERTEX
  8
Layer 1
 10
46.826027958597315
 20
20.29054915481444
 30
0.0
 70
0
  0
VERTEX
  8
Layer 1
 10
47.404264891615504
 20
20.34750234220711
 30
0.0
 70
0
  0
VERTEX
  8
Layer 1
 10
47.85341149653339
 20
20.71611393444036
 30
0.0
 70
0
  0
VERTEX
  8
Layer 1
 10
48.022076621551705
 20
21.27214093186936
 30
0.0
 70
0
  0
VERTEX
  8
Layer 1
 10
47.945895603508994
 20
21.655138980793875
 30
0.0
 70
0
  0
VERTEX
  8
Layer 1
 10
47.72894879129455
 20
21.979829238045966
 30
0.0
 70
0
  0
VERTEX
  8
Layer 1
 10
47.404264891615504
 20
22.196780298254243
 30
0.0
 70
0
  0
VERTEX
  8
Layer 1
 10
47.02127434195534
 20
22.27296280798282
 30
0.0
 70
0
  0
VERTEX
  8
Layer 1
 10
47.02127434195534
 20
22.27296280798282
 30
0.0
 70
0
  0
SEQEND
  8
Layer 1
  0
POLYLINE
  8
Layer 1
 62
7
 66
1
 10
0.0
 20
0.0
 30
0.0
 70
0
  0
VERTEX
  8
Layer 1
 10
74.0203352582905
 20
3.023065866131439
 30
0.0
 70
0
  0
VERTEX
  8
Layer 1
 10
73.4643191481061
 20
2.854396661791092
 30
0.0
 70
0
  0
VERTEX
  8
Layer 1
 10
73.09571399673685
 20
2.4052412622198536
 30
0.0
 70
0
  0
VERTEX
  8
Layer 1
 10
73.03876270121918
 20
1.8269930068554057
 30
0.0
 70
0
  0
VERTEX
  8
Layer 1
 10
73.31266080895129
 20
1.3145556838413677
 30
0.0
 70
0
  0
VERTEX
  8
Layer 1
 10
73.82508809822505
 20
1.0406522129630553
 30
0.0
 70
0
  0
VERTEX
  8
Layer 1
 10
74.40332580795067
 20
1.097604623633091
 30
0.0
 70
0
  0
VERTEX
  8
Layer 1
 10
74.85247163616113
 20
1.4662169925889785
 30
0.0
 70
0
  0
VERTEX
  8
Layer 1
 10
75.02113753788686
 20
2.0222432132953374
 30
0.0
 70
0
  0
VERTEX
  8
Layer 1
 10
74.94495574313673
 20
2.4052412622198536
 30
0.0
 70
0
  0
VERTEX
  8
Layer 1
 10
74.72800893092229
 20
2.7299315194719442
 30
0.0
 70
0
  0
VERTEX
  8
Layer 1
 10
74.40332580795067
 20
2.9468825796802207
 30
0.0
 70
0
  0
VERTEX
  8
Layer 1
 10
74.0203352582905
 20
3.023065866131439
 30
0.0
 70
0
  0
VERTEX
  8
Layer 1
 10
74.0203352582905
 20
3.023065866131439
 30
0.0
 70
0
  0
SEQEND
  8
Layer 1
  0
POLYLINE
  8
Layer 1
 62
7
 66
1
 10
0.0
 20
0.0
 30
0.0
 70
0
  0
VERTEX
  8
Layer 1
 10
83.01933665664497
 20
22.27296280798282
 30
0.0
 70
0
  0
VERTEX
  8
Layer 1
 10
82.46332054646058
 20
22.104294380365115
 30
0.0
 70
0
  0
VERTEX
  8
Layer 1
 10
82.09471617179874
 20
21.655138980793875
 30
0.0
 70
0
  0
VERTEX
  8
Layer 1
 10
82.03776487628107
 20
21.07688994870679
 30
0.0
 70
0
  0
VERTEX
  8
Layer 1
 10
82.31166298401318
 20
20.564452625692752
 30
0.0
 70
0
  0
VERTEX
  8
Layer 1
 10
82.82409027328694
 20
20.29054915481444
 30
0.0
 70
0
  0
VERTEX
  8
Layer 1
 10
83.40232720630513
 20
20.34750234220711
 30
0.0
 70
0
  0
VERTEX
  8
Layer 1
 10
83.85147381122302
 20
20.71611393444036
 30
0.0
 70
0
  0
VERTEX
  8
Layer 1
 10
84.02013971294876
 20
21.27214093186936
 30
0.0
 70
0
  0
VERTEX
  8
Layer 1
 10
83.94395791819862
 20
21.655138980793875
 30
0.0
 70
0
  0
VERTEX
  8
Layer 1
 10
83.72701110598418
 20
21.979829238045966
 30
0.0
 70
0
  0
VERTEX
  8
Layer 1
 10
83.40232720630513
 20
22.196780298254243
 30
0.0
 70
0
  0
VERTEX
  8
Layer 1
 10
83.01933665664497
 20
22.27296280798282
 30
0.0
 70
0
  0
VERTEX
  8
Layer 1
 10
83.01933665664497
 20
22.27296280798282
 30
0.0
 70
0
  0
SEQEND
  8
Layer 1
  0
POLYLINE
  8
Layer 1
 62
7
 66
1
 10
0.0
 20
0.0
 30
0.0
 70
0
  0
VERTEX
  8
Layer 1
 10
65.0192779153717
 20
22.27296280798282
 30
0.0
 70
0
  0
VERTEX
  8
Layer 1
 10
64.46326180518732
 20
22.104294380365115
 30
0.0
 70
0
  0
VERTEX
  8
Layer 1
 10
64.09465743052547
 20
21.655138980793875
 30
0.0
 70
0
  0
VERTEX
  8
Layer 1
 10
64.03770613500781
 20
21.07688994870679
 30
0.0
 70
0
  0
VERTEX
  8
Layer 1
 10
64.31160424273992
 20
20.564452625692752
 30
0.0
 70
0
  0
VERTEX
  8
Layer 1
 10
64.82403153201368
 20
20.29054915481444
 30
0.0
 70
0
  0
VERTEX
  8
Layer 1
 10
65.40226846503187
 20
20.34750234220711
 30
0.0
 70
0
  0
VERTEX
  8
Layer 1
 10
65.85141506994975
 20
20.71611393444036
 30
0.0
 70
0
  0
VERTEX
  8
Layer 1
 10
66.02008097167548
 20
21.27214093186936
 30
0.0
 70
0
  0
VERTEX
  8
Layer 1
 10
65.94389917692536
 20
21.655138980793875
 30
0.0
 70
0
  0
VERTEX
  8
Layer 1
 10
65.72695236471091
 20
21.979829238045966
 30
0.0
 70
0
  0
VERTEX
  8
Layer 1
 10
65.40226846503187
 20
22.196780298254243
 30
0.0
 70
0
  0
VERTEX
  8
Layer 1
 10
65.0192779153717
 20
22.27296280798282
 30
0.0
 70
0
  0
VERTEX
  8
Layer 1
 10
65.0192779153717
 20
22.27296280798282
 30
0.0
 70
0
  0
SEQEND
  8
Layer 1
  0
POLYLINE
  8
Layer 1
 62
7
 66
1
 10
0.0
 20
0.0
 30
0.0
 70
0
  0
VERTEX
  8
Layer 1
 10
101.01939539791825
 20
22.27296280798282
 30
0.0
 70
0
  0
VERTEX
  8
Layer 1
 10
100.46337928773384
 20
22.104294380365115
 30
0.0
 70
0
  0
VERTEX
  8
Layer 1
 10
100.09477491307202
 20
21.655138980793875
 30
0.0
 70
0
  0
VERTEX
  8
Layer 1
 10
100.03782361755434
 20
21.07688994870679
 30
0.0
 70
0
  0
VERTEX
  8
Layer 1
 10
100.31172172528645
 20
20.564452625692752
 30
0.0
 70
0
  0
VERTEX
  8
Layer 1
 10
100.8241490145602
 20
20.29054915481444
 30
0.0
 70
0
  0
VERTEX
  8
Layer 1
 10
101.4023859475784
 20
20.34750234220711
 30
0.0
 70
0
  0
VERTEX
  8
Layer 1
 10
101.85153255249628
 20
20.71611393444036
 30
0.0
 70
0
  0
VERTEX
  8
Layer 1
 10
102.02019845422201
 20
21.27214093186936
 30
0.0
 70
0
  0
VERTEX
  8
Layer 1
 10
101.94401665947187
 20
21.655138980793875
 30
0.0
 70
0
  0
VERTEX
  8
Layer 1
 10
101.72706984725744
 20
21.979829238045966
 30
0.0
 70
0
  0
VERTEX
  8
Layer 1
 10
101.4023859475784
 20
22.196780298254243
 30
0.0
 70
0
  0
VERTEX
  8
Layer 1
 10
101.01939539791825
 20
22.27296280798282
 30
0.0
 70
0
  0
VERTEX
  8
Layer 1
 10
101.01939539791825
 20
22.27296280798282
 30
0.0
 70
0
  0
SEQEND
  8
Layer 1
  0
POLYLINE
  8
Layer 1
 62
7
 66
1
 10
0.0
 20
0.0
 30
0.0
 70
0
  0
VERTEX
  8
Layer 1
 10
110.02045274083703
 20
3.023065866131439
 30
0.0
 70
0
  0
VERTEX
  8
Layer 1
 10
109.46443663065264
 20
2.854396661791092
 30
0.0
 70
0
  0
VERTEX
  8
Layer 1
 10
109.09583147928338
 20
2.4052412622198536
 30
0.0
 70
0
  0
VERTEX
  8
Layer 1
 10
109.03888018376573
 20
1.8269930068554057
 30
0.0
 70
0
  0
VERTEX
  8
Layer 1
 10
109.3127782914978
 20
1.3145556838413677
 30
0.0
 70
0
  0
VERTEX
  8
Layer 1
 10
109.8252055807716
 20
1.0406522129630553
 30
0.0
 70
0
  0
VERTEX
  8
Layer 1
 10
110.40344329049721
 20
1.097604623633091
 30
0.0
 70
0
  0
VERTEX
  8
Layer 1
 10
110.85258911870767
 20
1.4662169925889785
 30
0.0
 70
0
  0
VERTEX
  8
Layer 1
 10
111.0212550204334
 20
2.0222432132953374
 30
0.0
 70
0
  0
VERTEX
  8
Layer 1
 10
110.94507322568326
 20
2.4052412622198536
 30
0.0
 70
0
  0
VERTEX
  8
Layer 1
 10
110.72812641346883
 20
2.7299315194719442
 30
0.0
 70
0
  0
VERTEX
  8
Layer 1
 10
110.40344329049721
 20
2.9468825796802207
 30
0.0
 70
0
  0
VERTEX
  8
Layer 1
 10
110.02045274083703
 20
3.023065866131439
 30
0.0
 70
0
  0
VERTEX
  8
Layer 1
 10
110.02045274083703
 20
3.023065866131439
 30
0.0
 70
0
  0
SEQEND
  8
Layer 1
  0
POLYLINE
  8
Layer 1
 62
7
 66
1
 10
0.0
 20
0.0
 30
0.0
 70
0
  0
VERTEX
  8
Layer 1
 10
49.02082450999858
 20
21.27214093186936
 30
0.0
 70
0
  0
VERTEX
  8
Layer 1
 10
49.02082450999858
 20
19.147192460943668
 30
0.0
 70
0
  0
SEQEND
  8
Layer 1
  0
POLYLINE
  8
Layer 1
 62
7
 66
1
 10
0.0
 20
0.0
 30
0.0
 70
0
  0
VERTEX
  8
Layer 1
 10
67.02088325127185
 20
21.27214093186936
 30
0.0
 70
0
  0
VERTEX
  8
Layer 1
 10
66.86364038570314
 20
22.050147491861626
 30
0.0
 70
0
  0
VERTEX
  8
Layer 1
 10
66.43494138055884
 20
22.68577613206936
 30
0.0
 70
0
  0
VERTEX
  8
Layer 1
 10
65.79932518622967
 20
23.114484308209136
 30
0.0
 70
0
  0
VERTEX
  8
Layer 1
 10
65.02133308322861
 20
23.27173025272017
 30
0.0
 70
0
  0
VERTEX
  8
Layer 1
 10
64.24334175693498
 20
23.114484308209136
 30
0.0
 70
0
  0
VERTEX
  8
Layer 1
 10
63.6077255626058
 20
22.68577613206936
 30
0.0
 70
0
  0
VERTEX
  8
Layer 1
 10
63.179025780754074
 20
22.050147491861626
 30
0.0
 70
0
  0
VERTEX
  8
Layer 1
 10
63.02178369189279
 20
21.27214093186936
 30
0.0
 70
0
  0
SEQEND
  8
Layer 1
  0
POLYLINE
  8
Layer 1
 62
7
 66
1
 10
0.0
 20
0.0
 30
0.0
 70
0
  0
VERTEX
  8
Layer 1
 10
31.020765768725315
 20
21.27214093186936
 30
0.0
 70
0
  0
VERTEX
  8
Layer 1
 10
31.020765768725315
 20
19.147192460943668
 30
0.0
 70
0
  0
SEQEND
  8
Layer 1
  0
POLYLINE
  8
Layer 1
 62
7
 66
1
 10
0.0
 20
0.0
 30
0.0
 70
0
  0
VERTEX
  8
Layer 1
 10
9.019552300216091
 20
21.27214093186936
 30
0.0
 70
0
  0
VERTEX
  8
Layer 1
 10
9.019552300216091
 20
19.147192460943668
 30
0.0
 70
0
  0
SEQEND
  8
Layer 1
  0
POLYLINE
  8
Layer 1
 62
7
 66
1
 10
0.0
 20
0.0
 30
0.0
 70
0
  0
VERTEX
  8
Layer 1
 10
103.02100073381838
 20
21.27214093186936
 30
0.0
 70
0
  0
VERTEX
  8
Layer 1
 10
102.86375786824966
 20
22.050147491861626
 30
0.0
 70
0
  0
VERTEX
  8
Layer 1
 10
102.43505808639794
 20
22.68577613206936
 30
0.0
 70
0
  0
VERTEX
  8
Layer 1
 10
101.79944266877621
 20
23.114484308209136
 30
0.0
 70
0
  0
VERTEX
  8
Layer 1
 10
101.02145056577515
 20
23.27173025272017
 30
0.0
 70
0
  0
VERTEX
  8
Layer 1
 10
100.24345923948152
 20
23.114484308209136
 30
0.0
 70
0
  0
VERTEX
  8
Layer 1
 10
99.60784304515234
 20
22.68577613206936
 30
0.0
 70
0
  0
VERTEX
  8
Layer 1
 10
99.1791432633006
 20
22.050147491861626
 30
0.0
 70
0
  0
VERTEX
  8
Layer 1
 10
99.02190117443932
 20
21.27214093186936
 30
0.0
 70
0
  0
SEQEND
  8
Layer 1
  0
POLYLINE
  8
Layer 1
 62
7
 66
1
 10
0.0
 20
0.0
 30
0.0
 70
0
  0
VERTEX
  8
Layer 1
 10
67.02088325127185
 20
21.27214093186936
 30
0.0
 70
0
  0
VERTEX
  8
Layer 1
 10
67.02088325127185
 20
19.147192460943668
 30
0.0
 70
0
  0
SEQEND
  8
Layer 1
  0
ENDSEC
  0
EOF
