<svg version="1.1" width="105" height="15" xmlns="http://www.w3.org/2000/svg"><path d="M74.8,8.8L74.8,6L75.2,6L75.2,8.8L85.7,8.8L85.7,10.3L87,10.3L87,10.7L85.3,10.7L85.3,9.2L66,9.2L66,8.8z" stroke="none"/><path d="M77.8,2.8L77.8,1.3L93.2,1.3L93.2,2.8L94.5,2.8L94.5,3.2L92.8,3.2L92.8,1.7L78.2,1.7L78.2,2.8L90,2.8L90,3.2L51,3.2L51,2.8z" stroke="none"/><path d="M31.3,7.3L31.3,4.5L31.7,4.5L31.7,7.3L32.8,7.3L32.8,5.8L39.2,5.8L39.2,7.5L38.8,7.5L38.8,6.2L33.2,6.2L33.2,7.7L31.7,7.7L31.7,9.2L22.7,9.2L22.7,10.7L19.3,10.7L19.3,9.2L16.3,9.2L16.3,7.7L14.8,7.7L14.8,6.2L13.5,6.2L13.5,5.8L15.2,5.8L15.2,7.3L16.7,7.3L16.7,8.8L19.7,8.8L19.7,10.3L22.3,10.3L22.3,8.8L31.3,8.8L31.3,7.7L29.8,7.7L29.8,2.8L34.7,2.8L34.7,4.3L40.7,4.3L40.7,7.3L42,7.3L42,7.7L40.3,7.7L40.3,4.7L34.3,4.7L34.3,3.2L30.2,3.2L30.2,7.3z" stroke="none"/><path d="M44.8,7.3L44.8,6.2L41.8,6.2L41.8,3.2L37.3,3.2L37.3,1.7L27.2,1.7L27.2,4.7L25.7,4.7L25.7,7.7L22.5,7.7L22.5,7.3L25.3,7.3L25.3,4.3L26.8,4.3L26.8,1.3L37.7,1.3L37.7,2.8L42.2,2.8L42.2,5.8L45.2,5.8L45.2,7.3L50.8,7.3L50.8,5.8L57,5.8L57,6.2L51.2,6.2L51.2,7.7L45.2,7.7L45.2,8.8L64.5,8.8L64.5,9.2L44.8,9.2L44.8,7.7L43.7,7.7L43.7,9.2L35.8,9.2L35.8,7.5L36.2,7.5L36.2,8.8L43.3,8.8L43.3,7.3z" stroke="none"/><path d="M93,10.7L93,10.3L94.3,10.3L94.3,8.8L96,8.8L96,9.2L94.7,9.2L94.7,10.7z" stroke="none"/><path d="M91.3,4.5L91.7,4.5L91.7,6.2L88.7,6.2L88.7,7.5L88.3,7.5L88.3,5.8L91.3,5.8z" stroke="none"/><path d="M67.5,11.8L67.5,12.2L64.3,12.2L64.3,10.7L63,10.7L63,10.3L64.7,10.3L64.7,11.8z" stroke="none"/><path d="M10.5,4.3L10.5,4.7L9.2,4.7L9.2,6.2L6,6.2L6,5.8L8.8,5.8L8.8,4.3z" stroke="none"/><path d="M99.2,12L98.8,12L98.8,7.3L100.5,7.3L100.5,7.7L99.2,7.7z" stroke="none"/><path d="M95.8,10.5L96.2,10.5L96.2,12.2L91.3,12.2L91.3,10.7L90,10.7L90,10.3L91.7,10.3L91.7,11.8L95.8,11.8z" stroke="none"/><path d="M7.5,12.2L7.5,11.8L13.5,11.8L13.5,12.2z" stroke="none"/><path d="M9,10.3L9,10.7L4.3,10.7L4.3,9.2L3,9.2L3,8.8L4.7,8.8L4.7,10.3z" stroke="none"/><path d="M69.2,6L68.8,6L68.8,4.7L63,4.7L63,4.3L69.2,4.3z" stroke="none"/><path d="M69,7.7L69,7.3L70.3,7.3L70.3,4.3L87.2,4.3L87.2,8.8L88.7,8.8L88.7,12.2L70.7,12.2L70.7,13.7L62.8,13.7L62.8,12L63.2,12L63.2,13.3L70.3,13.3L70.3,11.8L88.3,11.8L88.3,9.2L86.8,9.2L86.8,4.7L70.7,4.7L70.7,7.7z" stroke="none"/><path d="M60,7.3L60,7.7L52.5,7.7L52.5,7.3z" stroke="none"/><path d="M7.7,4.5L7.3,4.5L7.3,2.8L15.2,2.8L15.2,4.3L16.7,4.3L16.7,5.8L18.2,5.8L18.2,7.3L21.2,7.3L21.2,9L20.8,9L20.8,7.7L17.8,7.7L17.8,6.2L16.3,6.2L16.3,4.7L14.8,4.7L14.8,3.2L7.7,3.2z" stroke="none"/><path d="M42,10.3L42,10.7L25.5,10.7L25.5,10.3z" stroke="none"/><path d="M67.5,5.8L67.5,6.2L58.3,6.2L58.3,4.7L45,4.7L45,4.3L58.7,4.3L58.7,5.8z" stroke="none"/><path d="M34.5,11.8L34.5,12.2L16.3,12.2L16.3,10.7L11.8,10.7L11.8,9.2L5.8,9.2L5.8,7.7L4.5,7.7L4.5,7.3L6.2,7.3L6.2,8.8L12.2,8.8L12.2,10.3L16.7,10.3L16.7,11.8z" stroke="none"/><path d="M52.5,10.3L52.5,10.7L45.2,10.7L45.2,12.2L36.2,12.2L36.2,13.7L2.8,13.7L2.8,10.7L1.3,10.7L1.3,1.3L16.7,1.3L16.7,2.8L19.7,2.8L19.7,6L19.3,6L19.3,3.2L16.3,3.2L16.3,1.7L1.7,1.7L1.7,10.3L3.2,10.3L3.2,13.3L35.8,13.3L35.8,11.8L44.8,11.8L44.8,10.3z" stroke="none"/></svg>