<svg version="1.1" width="105" height="15" xmlns="http://www.w3.org/2000/svg"><path d="M67.3,8.8L67.3,7.3L73.7,7.3L73.7,8.8L76.5,8.8L76.5,9.2L73.3,9.2L73.3,7.7L67.7,7.7L67.7,9.2L66.2,9.2L66.2,10.7L61.7,10.7L61.7,12.2L60,12.2L60,11.8L61.3,11.8L61.3,10.3L65.8,10.3L65.8,9.2L61.5,9.2L61.5,8.8z" stroke="none"/><path d="M69.2,4.3L69.2,5.8L82.3,5.8L82.3,4.3L96,4.3L96,4.7L82.7,4.7L82.7,6.2L68.8,6.2L68.8,4.7L67.7,4.7L67.7,6.2L51,6.2L51,5.8L67.3,5.8L67.3,4.7L60,4.7L60,4.3z" stroke="none"/><path d="M53.8,8.8L53.8,7.7L49.3,7.7L49.3,6.2L45.2,6.2L45.2,13.3L67.3,13.3L67.3,11.8L68.8,11.8L68.8,8.8L70.5,8.8L70.5,9.2L69.2,9.2L69.2,12.2L67.7,12.2L67.7,13.7L44.8,13.7L44.8,5.8L49.7,5.8L49.7,7.3L54.2,7.3L54.2,8.8L56.8,8.8L56.8,7.5L57.2,7.5L57.2,9.2L54.2,9.2L54.2,10.7L48.2,10.7L48.2,12.2L46.5,12.2L46.5,11.8L47.8,11.8L47.8,10.3L53.8,10.3L53.8,9.2L47.8,9.2L47.8,7.7L46.5,7.7L46.5,7.3L48.2,7.3L48.2,8.8z" stroke="none"/><path d="M40.3,2.8L40.3,1.7L21.2,1.7L21.2,4.5L20.8,4.5L20.8,1.3L40.7,1.3L40.7,2.8L48,2.8L48,3.2L40.7,3.2L40.7,4.3L58.3,4.3L58.3,2.8L70.7,2.8L70.7,4.5L70.3,4.5L70.3,3.2L58.7,3.2L58.7,4.7L40.3,4.7L40.3,3.2L37.7,3.2L37.7,4.7L34.7,4.7L34.7,6.2L31.7,6.2L31.7,7.7L27,7.7L27,7.3L31.3,7.3L31.3,5.8L34.3,5.8L34.3,4.3L37.3,4.3L37.3,2.8z" stroke="none"/><path d="M42.2,7.5L41.8,7.5L41.8,6L42.2,6z" stroke="none"/><path d="M32.8,3L33.2,3L33.2,4.7L31.5,4.7L31.5,4.3L32.8,4.3z" stroke="none"/><path d="M36.2,7.5L35.8,7.5L35.8,5.8L40.5,5.8L40.5,6.2L36.2,6.2z" stroke="none"/><path d="M70.5,10.7L70.5,10.3L73.7,10.3L73.7,11.8L75,11.8L75,12.2L73.3,12.2L73.3,10.7z" stroke="none"/><path d="M33,7.7L33,7.3L34.7,7.3L34.7,8.8L37.5,8.8L37.5,9.2L34.3,9.2L34.3,7.7z" stroke="none"/><path d="M91.5,5.8L91.5,6.2L90.2,6.2L90.2,9.2L85.5,9.2L85.5,8.8L89.8,8.8L89.8,5.8z" stroke="none"/><path d="M7.5,7.7L7.5,7.3L9.2,7.3L9.2,8.8L12.2,8.8L12.2,10.3L15,10.3L15,10.7L11.8,10.7L11.8,9.2L8.8,9.2L8.8,7.7z" stroke="none"/><path d="M16.5,5.8L16.5,6.2L6.2,6.2L6.2,10.5L5.8,10.5L5.8,5.8z" stroke="none"/><path d="M18,11.8L18,12.2L6,12.2L6,11.8z" stroke="none"/><path d="M37.5,11.8L37.5,12.2L22.5,12.2L22.5,11.8z" stroke="none"/><path d="M22.5,6.2L22.5,5.8L24.2,5.8L24.2,10.3L38.8,10.3L38.8,7.7L37.5,7.7L37.5,7.3L39.2,7.3L39.2,10.7L23.8,10.7L23.8,6.2z" stroke="none"/><path d="M99,10.3L99,10.7L83.8,10.7L83.8,6L84.2,6L84.2,10.3z" stroke="none"/><path d="M84,3.2L84,2.8L97.7,2.8L97.7,4.3L100.7,4.3L100.7,6L100.3,6L100.3,4.7L97.3,4.7L97.3,3.2z" stroke="none"/><path d="M78,3.2L78,2.8L82.3,2.8L82.3,1.3L100.7,1.3L100.7,2.8L102.2,2.8L102.2,7.7L94.5,7.7L94.5,7.3L101.8,7.3L101.8,3.2L100.3,3.2L100.3,1.7L82.7,1.7L82.7,3.2z" stroke="none"/><path d="M4.7,9L4.3,9L4.3,4.3L19.7,4.3L19.7,5.8L21.2,5.8L21.2,7.3L22.5,7.3L22.5,7.7L20.8,7.7L20.8,6.2L19.3,6.2L19.3,4.7L4.7,4.7z" stroke="none"/><path d="M4.3,10.5L4.7,10.5L4.7,13.3L38.8,13.3L38.8,11.8L41.8,11.8L41.8,10.5L42.2,10.5L42.2,12.2L39.2,12.2L39.2,13.7L4.3,13.7z" stroke="none"/></svg>