<svg version="1.1" width="105" height="15" xmlns="http://www.w3.org/2000/svg"><path d="M13.3,2.8L13.3,1.3L28.7,1.3L28.7,3L28.3,3L28.3,1.7L13.7,1.7L13.7,2.8L16.5,2.8L16.5,3.2L7.7,3.2L7.7,6.2L6,6.2L6,5.8L7.3,5.8L7.3,2.8z" stroke="none"/><path d="M64.3,5.8L64.3,4.7L61.3,4.7L61.3,3.2L60,3.2L60,2.8L61.7,2.8L61.7,4.3L64.7,4.3L64.7,5.8L79.7,5.8L79.7,7.3L84.2,7.3L84.2,8.8L86.8,8.8L86.8,7.5L87.2,7.5L87.2,9.2L83.8,9.2L83.8,7.7L79.3,7.7L79.3,6.2L54.2,6.2L54.2,7.7L48,7.7L48,7.3L53.8,7.3L53.8,5.8z" stroke="none"/><path d="M32.8,8.8L32.8,6.2L15.2,6.2L15.2,9.2L12.2,9.2L12.2,10.5L11.8,10.5L11.8,8.8L14.8,8.8L14.8,5.8L33.2,5.8L33.2,8.8L34.7,8.8L34.7,10.3L61.5,10.3L61.5,10.7L34.3,10.7L34.3,9.2L33.2,9.2L33.2,12L32.8,12L32.8,9.2L31.3,9.2L31.3,7.7L18,7.7L18,7.3L31.7,7.3L31.7,8.8z" stroke="none"/><path d="M41.8,4.3L41.8,2.8L55.5,2.8L55.5,3.2L42.2,3.2L42.2,4.3L48,4.3L48,4.7L42.2,4.7L42.2,6.2L39.2,6.2L39.2,7.7L37.5,7.7L37.5,7.3L38.8,7.3L38.8,5.8L41.8,5.8L41.8,4.7L26.8,4.7L26.8,3L27.2,3L27.2,4.3z" stroke="none"/><path d="M85.3,6L85.7,6L85.7,7.5L85.3,7.5z" stroke="none"/><path d="M80.8,3L81.2,3L81.2,6L80.8,6z" stroke="none"/><path d="M58.5,12.2L58.5,11.8L63,11.8L63,12.2z" stroke="none"/><path d="M5.8,7.5L6.2,7.5L6.2,12L5.8,12z" stroke="none"/><path d="M25.5,10.7L25.5,10.3L28.3,10.3L28.3,8.8L30,8.8L30,9.2L28.7,9.2L28.7,10.7z" stroke="none"/><path d="M88.5,11.8L88.5,12.2L85.3,12.2L85.3,10.7L82.3,10.7L82.3,9L82.7,9L82.7,10.3L85.7,10.3L85.7,11.8z" stroke="none"/><path d="M94.5,9.2L94.5,8.8L97.7,8.8L97.7,10.3L100.7,10.3L100.7,12L100.3,12L100.3,10.7L97.3,10.7L97.3,9.2z" stroke="none"/><path d="M18,3.2L18,2.8L25.7,2.8L25.7,4.5L25.3,4.5L25.3,3.2z" stroke="none"/><path d="M88.5,7.7L88.5,7.3L90.2,7.3L90.2,8.8L93.2,8.8L93.2,10.3L96,10.3L96,10.7L92.8,10.7L92.8,9.2L89.8,9.2L89.8,7.7z" stroke="none"/><path d="M21,10.3L21,10.7L13.7,10.7L13.7,12.2L10.3,12.2L10.3,7.7L9,7.7L9,7.3L10.7,7.3L10.7,11.8L13.3,11.8L13.3,10.3z" stroke="none"/><path d="M76.5,4.7L76.5,4.3L77.8,4.3L77.8,2.8L79.3,2.8L79.3,1.3L85.7,1.3L85.7,2.8L90,2.8L90,3.2L85.3,3.2L85.3,1.7L79.7,1.7L79.7,3.2L78.2,3.2L78.2,4.7z" stroke="none"/><path d="M100.5,9.2L100.5,8.8L102.2,8.8L102.2,13.7L82.3,13.7L82.3,12.2L80.8,12.2L80.8,10.5L81.2,10.5L81.2,11.8L82.7,11.8L82.7,13.3L101.8,13.3L101.8,9.2z" stroke="none"/><path d="M75,2.8L75,3.2L65.8,3.2L65.8,1.7L58.7,1.7L58.7,3.2L57.2,3.2L57.2,4.7L52.7,4.7L52.7,6L52.3,6L52.3,4.3L56.8,4.3L56.8,2.8L58.3,2.8L58.3,1.3L66.2,1.3L66.2,2.8z" stroke="none"/><path d="M4.3,12L4.7,12L4.7,13.3L26.8,13.3L26.8,11.8L28.5,11.8L28.5,12.2L27.2,12.2L27.2,13.7L4.3,13.7z" stroke="none"/><path d="M69,7.3L69,7.7L57.2,7.7L57.2,9.2L36,9.2L36,8.8L56.8,8.8L56.8,7.3z" stroke="none"/><path d="M30,10.7L30,10.3L31.7,10.3L31.7,13.3L68.8,13.3L68.8,11.8L71.8,11.8L71.8,10.3L74.8,10.3L74.8,9L75.2,9L75.2,10.7L72.2,10.7L72.2,12.2L69.2,12.2L69.2,13.7L31.3,13.7L31.3,10.7z" stroke="none"/></svg>