<svg version="1.1" width="105" height="15" xmlns="http://www.w3.org/2000/svg"><path d="M96.2,5.8L96.2,7.3L97.7,7.3L97.7,9L97.3,9L97.3,7.7L95.8,7.7L95.8,6.2L85.7,6.2L85.7,7.3L87.2,7.3L87.2,9L86.8,9L86.8,7.7L85.3,7.7L85.3,6.2L84.2,6.2L84.2,7.7L75,7.7L75,7.3L83.8,7.3L83.8,5.8z" stroke="none"/><path d="M25.3,5.8L25.3,4.7L19.3,4.7L19.3,3.2L18,3.2L18,2.8L19.7,2.8L19.7,4.3L25.7,4.3L25.7,5.8L34.5,5.8L34.5,6.2L19.5,6.2L19.5,5.8z" stroke="none"/><path d="M59.8,4.3L59.8,3.2L55.3,3.2L55.3,1.7L43.7,1.7L43.7,3L43.3,3L43.3,1.3L55.7,1.3L55.7,2.8L60.2,2.8L60.2,4.3L64.7,4.3L64.7,5.8L72.2,5.8L72.2,8.8L75.2,8.8L75.2,10.3L89.8,10.3L89.8,7.3L93,7.3L93,7.7L90.2,7.7L90.2,10.7L74.8,10.7L74.8,9.2L71.8,9.2L71.8,6.2L64.3,6.2L64.3,4.7L60.2,4.7L60.2,6.2L47.8,6.2L47.8,4.5L48.2,4.5L48.2,5.8L59.8,5.8L59.8,4.7L57,4.7L57,4.3z" stroke="none"/><path d="M22.3,10.3L22.3,8.8L42,8.8L42,9.2L22.7,9.2L22.7,10.3L24.2,10.3L24.2,11.8L25.5,11.8L25.5,12.2L23.8,12.2L23.8,10.7L22.7,10.7L22.7,12.2L11.8,12.2L11.8,10.7L10.5,10.7L10.5,10.3L12.2,10.3L12.2,11.8L22.3,11.8L22.3,10.7L14.8,10.7L14.8,9L15.2,9L15.2,10.3z" stroke="none"/><path d="M99.2,12L98.8,12L98.8,10.5L99.2,10.5z" stroke="none"/><path d="M93,9.2L93,8.8L94.3,8.8L94.3,7.5L94.7,7.5L94.7,9.2z" stroke="none"/><path d="M97.5,10.3L97.5,10.7L96.2,10.7L96.2,12.2L94.5,12.2L94.5,11.8L95.8,11.8L95.8,10.3z" stroke="none"/><path d="M60.2,10.5L59.8,10.5L59.8,9.2L56.8,9.2L56.8,7.5L57.2,7.5L57.2,8.8L60.2,8.8z" stroke="none"/><path d="M82.5,5.8L82.5,6.2L80.8,6.2L80.8,4.7L78,4.7L78,4.3L81.2,4.3L81.2,5.8z" stroke="none"/><path d="M52.5,2.8L52.5,3.2L46.7,3.2L46.7,6.2L45.2,6.2L45.2,7.5L44.8,7.5L44.8,5.8L46.3,5.8L46.3,2.8z" stroke="none"/><path d="M13.3,4.5L13.7,4.5L13.7,5.8L16.7,5.8L16.7,7.3L22.5,7.3L22.5,7.7L16.3,7.7L16.3,6.2L13.3,6.2z" stroke="none"/><path d="M4.5,6.2L4.5,5.8L10.3,5.8L10.3,4.3L11.8,4.3L11.8,2.8L15.2,2.8L15.2,4.5L14.8,4.5L14.8,3.2L12.2,3.2L12.2,4.7L10.7,4.7L10.7,6.2z" stroke="none"/><path d="M4.5,7.3L4.5,7.7L2.8,7.7L2.8,4.3L8.8,4.3L8.8,2.8L10.3,2.8L10.3,1.3L16.7,1.3L16.7,4.5L16.3,4.5L16.3,1.7L10.7,1.7L10.7,3.2L9.2,3.2L9.2,4.7L3.2,4.7L3.2,7.3z" stroke="none"/><path d="M37.5,2.8L37.5,3.2L34.3,3.2L34.3,1.7L25.7,1.7L25.7,3.2L24,3.2L24,2.8L25.3,2.8L25.3,1.3L34.7,1.3L34.7,2.8z" stroke="none"/><path d="M93,2.8L93,3.2L76.7,3.2L76.7,5.8L79.5,5.8L79.5,6.2L76.3,6.2L76.3,2.8z" stroke="none"/><path d="M27,3.2L27,2.8L33.2,2.8L33.2,4.3L43.5,4.3L43.5,4.7L32.8,4.7L32.8,3.2z" stroke="none"/><path d="M69,7.3L69,7.7L67.7,7.7L67.7,9.2L66.2,9.2L66.2,12.2L52.5,12.2L52.5,11.8L65.8,11.8L65.8,8.8L67.3,8.8L67.3,7.3z" stroke="none"/><path d="M50.8,10.5L51.2,10.5L51.2,13.3L73.3,13.3L73.3,11.8L75,11.8L75,12.2L73.7,12.2L73.7,13.7L50.8,13.7z" stroke="none"/><path d="M96,2.8L96,3.2L94.3,3.2L94.3,1.7L69.2,1.7L69.2,3.2L66.2,3.2L66.2,4.5L65.8,4.5L65.8,2.8L68.8,2.8L68.8,1.3L94.7,1.3L94.7,2.8z" stroke="none"/><path d="M46.5,8.8L46.5,9.2L43.7,9.2L43.7,10.7L28.7,10.7L28.7,12.2L27.2,12.2L27.2,13.7L10.3,13.7L10.3,12.2L8.8,12.2L8.8,9L9.2,9L9.2,11.8L10.7,11.8L10.7,13.3L26.8,13.3L26.8,11.8L28.3,11.8L28.3,10.3L43.3,10.3L43.3,8.8z" stroke="none"/></svg>