<svg version="1.1" width="105" height="15" xmlns="http://www.w3.org/2000/svg"><path d="M14.8,5.8L14.8,4.3L19.5,4.3L19.5,4.7L15.2,4.7L15.2,5.8L16.7,5.8L16.7,7.3L18,7.3L18,7.7L16.3,7.7L16.3,6.2L10.5,6.2L10.5,5.8z" stroke="none"/><path d="M70.7,2.8L70.7,4.3L73.7,4.3L73.7,6L73.3,6L73.3,4.7L70.3,4.7L70.3,3.2L64.7,3.2L64.7,6.2L63.2,6.2L63.2,7.5L62.8,7.5L62.8,5.8L64.3,5.8L64.3,3.2L58.5,3.2L58.5,2.8z" stroke="none"/><path d="M43.3,5.8L43.3,4.7L33,4.7L33,4.3L43.7,4.3L43.7,5.8L58.7,5.8L58.7,7.3L60.2,7.3L60.2,8.8L75,8.8L75,9.2L59.8,9.2L59.8,7.7L58.3,7.7L58.3,6.2L43.7,6.2L43.7,7.7L34.7,7.7L34.7,9.2L30,9.2L30,8.8L34.3,8.8L34.3,7.3L43.3,7.3L43.3,6.2L36,6.2L36,5.8z" stroke="none"/><path d="M80.8,7.3L80.8,5.8L100.7,5.8L100.7,7.3L102.2,7.3L102.2,10.5L101.8,10.5L101.8,7.7L100.3,7.7L100.3,6.2L81.2,6.2L81.2,7.3L82.7,7.3L82.7,8.8L93.2,8.8L93.2,10.3L99,10.3L99,10.7L92.8,10.7L92.8,9.2L82.3,9.2L82.3,7.7L81.2,7.7L81.2,9.2L76.7,9.2L76.7,10.7L58.5,10.7L58.5,10.3L76.3,10.3L76.3,8.8L80.8,8.8L80.8,7.7L68.8,7.7L68.8,6.2L66,6.2L66,5.8L69.2,5.8L69.2,7.3z" stroke="none"/><path d="M22.5,4.7L22.5,4.3L24,4.3L24,4.7z" stroke="none"/><path d="M4.7,4.5L4.3,4.5L4.3,2.8L6,2.8L6,3.2L4.7,3.2z" stroke="none"/><path d="M19.5,3.2L19.5,2.8L21.2,2.8L21.2,7.5L20.8,7.5L20.8,3.2z" stroke="none"/><path d="M13.5,8.8L13.5,9.2L6,9.2L6,8.8z" stroke="none"/><path d="M94.7,9L94.3,9L94.3,7.7L84,7.7L84,7.3L94.7,7.3z" stroke="none"/><path d="M82.5,11.8L82.5,12.2L70.5,12.2L70.5,11.8z" stroke="none"/><path d="M16.5,11.8L16.5,12.2L4.5,12.2L4.5,11.8z" stroke="none"/><path d="M40.5,10.7L40.5,10.3L53.8,10.3L53.8,8.8L56.8,8.8L56.8,7.5L57.2,7.5L57.2,9.2L54.2,9.2L54.2,10.7z" stroke="none"/><path d="M82.5,4.7L82.5,4.3L102.2,4.3L102.2,5.8L103.7,5.8L103.7,12.2L100.3,12.2L100.3,9.2L99,9.2L99,8.8L100.7,8.8L100.7,11.8L103.3,11.8L103.3,6.2L101.8,6.2L101.8,4.7z" stroke="none"/><path d="M55.5,2.8L55.5,3.2L34.5,3.2L34.5,2.8z" stroke="none"/><path d="M99,2.8L99,3.2L81.2,3.2L81.2,4.7L79.7,4.7L79.7,6.2L78,6.2L78,5.8L79.3,5.8L79.3,4.3L80.8,4.3L80.8,2.8z" stroke="none"/><path d="M3.2,9L2.8,9L2.8,7.3L15.2,7.3L15.2,8.8L27.2,8.8L27.2,10.5L26.8,10.5L26.8,9.2L14.8,9.2L14.8,7.7L3.2,7.7z" stroke="none"/><path d="M9,10.7L9,10.3L24.2,10.3L24.2,11.8L28.3,11.8L28.3,7.3L33,7.3L33,7.7L28.7,7.7L28.7,12.2L23.8,12.2L23.8,10.7z" stroke="none"/><path d="M81,10.7L81,10.3L84.2,10.3L84.2,13.7L43.3,13.7L43.3,12L43.7,12L43.7,13.3L83.8,13.3L83.8,10.7z" stroke="none"/><path d="M51,4.7L51,4.3L56.8,4.3L56.8,1.7L15.2,1.7L15.2,3.2L13.5,3.2L13.5,2.8L14.8,2.8L14.8,1.3L57.2,1.3L57.2,4.7z" stroke="none"/><path d="M48,8.8L48,9.2L36.2,9.2L36.2,10.7L33.2,10.7L33.2,13.7L2.8,13.7L2.8,10.3L4.3,10.3L4.3,9L4.7,9L4.7,10.7L3.2,10.7L3.2,13.3L32.8,13.3L32.8,10.3L35.8,10.3L35.8,8.8z" stroke="none"/></svg>