<svg version="1.1" width="105" height="15" xmlns="http://www.w3.org/2000/svg"><path d="M36,7.3L36,7.7L25.7,7.7L25.7,10.7L19.5,10.7L19.5,10.3L25.3,10.3L25.3,7.7L24.2,7.7L24.2,9.2L20.8,9.2L20.8,7.7L19.5,7.7L19.5,7.3L21.2,7.3L21.2,8.8L23.8,8.8L23.8,7.3z" stroke="none"/><path d="M76.3,4.3L76.3,2.8L91.7,2.8L91.7,4.3L94.5,4.3L94.5,4.7L91.3,4.7L91.3,3.2L76.7,3.2L76.7,4.3L87,4.3L87,4.7L51,4.7L51,4.3z" stroke="none"/><path d="M38.8,4.3L38.8,3.2L24.2,3.2L24.2,4.7L22.7,4.7L22.7,7.5L22.3,7.5L22.3,4.3L23.8,4.3L23.8,2.8L39.2,2.8L39.2,4.3L49.3,4.3L49.3,2.8L60,2.8L60,3.2L49.7,3.2L49.7,4.7L39.2,4.7L39.2,6.2L36,6.2L36,5.8L38.8,5.8L38.8,4.7L34.7,4.7L34.7,6L34.3,6L34.3,4.3z" stroke="none"/><path d="M68.8,7.3L68.8,6.2L48.2,6.2L48.2,9.2L46.5,9.2L46.5,8.8L47.8,8.8L47.8,5.8L69.2,5.8L69.2,7.3L71.8,7.3L71.8,5.8L82.5,5.8L82.5,6.2L72.2,6.2L72.2,7.7L69.2,7.7L69.2,8.8L89.8,8.8L89.8,7.3L94.5,7.3L94.5,7.7L90.2,7.7L90.2,9.2L68.8,9.2L68.8,7.7L60.2,7.7L60.2,9.2L52.5,9.2L52.5,8.8L59.8,8.8L59.8,7.3z" stroke="none"/><path d="M64.7,10.5L64.3,10.5L64.3,9L64.7,9z" stroke="none"/><path d="M19.3,4.5L19.7,4.5L19.7,5.8L21,5.8L21,6.2L19.3,6.2z" stroke="none"/><path d="M100.5,4.3L100.5,4.7L97.7,4.7L97.7,6L97.3,6L97.3,4.3z" stroke="none"/><path d="M97.7,12L97.3,12L97.3,7.3L99,7.3L99,7.7L97.7,7.7z" stroke="none"/><path d="M76.5,10.7L76.5,10.3L82.5,10.3L82.5,10.7z" stroke="none"/><path d="M37.5,10.3L37.5,10.7L31.3,10.7L31.3,9.2L30,9.2L30,8.8L31.7,8.8L31.7,10.3z" stroke="none"/><path d="M16.5,7.3L16.5,7.7L14.8,7.7L14.8,6.2L13.3,6.2L13.3,4.7L11.8,4.7L11.8,3.2L7.5,3.2L7.5,2.8L12.2,2.8L12.2,4.3L13.7,4.3L13.7,5.8L15.2,5.8L15.2,7.3z" stroke="none"/><path d="M22.5,12.2L22.5,11.8L34.5,11.8L34.5,12.2z" stroke="none"/><path d="M2.8,6L3.2,6L3.2,7.3L13.7,7.3L13.7,8.8L17.8,8.8L17.8,6.2L16.5,6.2L16.5,5.8L18.2,5.8L18.2,9.2L13.3,9.2L13.3,7.7L2.8,7.7z" stroke="none"/><path d="M18,2.8L18,3.2L14.8,3.2L14.8,1.7L6.2,1.7L6.2,4.7L4.7,4.7L4.7,6L4.3,6L4.3,4.3L5.8,4.3L5.8,1.3L15.2,1.3L15.2,2.8z" stroke="none"/><path d="M102,11.8L102,12.2L99.2,12.2L99.2,13.7L85.3,13.7L85.3,12L85.7,12L85.7,13.3L98.8,13.3L98.8,11.8z" stroke="none"/><path d="M42,12.2L42,11.8L43.3,11.8L43.3,10.3L50.8,10.3L50.8,7.3L58.5,7.3L58.5,7.7L51.2,7.7L51.2,10.7L43.7,10.7L43.7,12.2z" stroke="none"/><path d="M99,9.2L99,8.8L100.3,8.8L100.3,5.8L101.8,5.8L101.8,3.2L96.2,3.2L96.2,6.2L84.2,6.2L84.2,7.7L75,7.7L75,7.3L83.8,7.3L83.8,5.8L95.8,5.8L95.8,2.8L102.2,2.8L102.2,6.2L100.7,6.2L100.7,9.2z" stroke="none"/><path d="M69,3.2L69,2.8L74.8,2.8L74.8,1.3L94.7,1.3L94.7,3L94.3,3L94.3,1.7L75.2,1.7L75.2,3.2z" stroke="none"/><path d="M6,9.2L6,8.8L12.2,8.8L12.2,10.3L18.2,10.3L18.2,11.8L21.2,11.8L21.2,13.3L40.3,13.3L40.3,12L40.7,12L40.7,13.7L20.8,13.7L20.8,12.2L17.8,12.2L17.8,10.7L11.8,10.7L11.8,9.2z" stroke="none"/><path d="M45,12.2L45,11.8L83.8,11.8L83.8,10.3L92.8,10.3L92.8,8.8L94.5,8.8L94.5,9.2L93.2,9.2L93.2,10.7L84.2,10.7L84.2,12.2z" stroke="none"/></svg>