<svg version="1.1" width="105" height="15" xmlns="http://www.w3.org/2000/svg"><path d="M71.8,4.3L71.8,2.8L87.2,2.8L87.2,4.3L91.7,4.3L91.7,6L91.3,6L91.3,4.7L86.8,4.7L86.8,3.2L72.2,3.2L72.2,7.7L70.5,7.7L70.5,7.3L71.8,7.3L71.8,4.7L67.3,4.7L67.3,3.2L60,3.2L60,2.8L67.7,2.8L67.7,4.3z" stroke="none"/><path d="M82.5,4.3L82.5,4.7L75.2,4.7L75.2,5.8L78.2,5.8L78.2,7.3L81.2,7.3L81.2,9L80.8,9L80.8,7.7L77.8,7.7L77.8,6.2L74.8,6.2L74.8,4.7L73.7,4.7L73.7,9.2L67.3,9.2L67.3,7.7L61.3,7.7L61.3,6L61.7,6L61.7,7.3L67.7,7.3L67.7,8.8L73.3,8.8L73.3,4.3z" stroke="none"/><path d="M26.8,7.3L26.8,6.2L21.2,6.2L21.2,13.7L11.8,13.7L11.8,9L12.2,9L12.2,13.3L20.8,13.3L20.8,5.8L27.2,5.8L27.2,7.3L28.7,7.3L28.7,8.8L30.2,8.8L30.2,10.3L31.5,10.3L31.5,10.7L29.8,10.7L29.8,9.2L28.3,9.2L28.3,7.7L27.2,7.7L27.2,10.3L28.5,10.3L28.5,10.7L26.8,10.7L26.8,7.7L24.2,7.7L24.2,9L23.8,9L23.8,7.3z" stroke="none"/><path d="M17.8,10.3L17.8,9.2L13.3,9.2L13.3,7.7L10.7,7.7L10.7,10.7L9.2,10.7L9.2,12.2L7.5,12.2L7.5,11.8L8.8,11.8L8.8,10.3L10.3,10.3L10.3,7.3L13.7,7.3L13.7,8.8L18.2,8.8L18.2,10.3L19.3,10.3L19.3,4.3L37.7,4.3L37.7,7.5L37.3,7.5L37.3,4.7L19.7,4.7L19.7,10.7L18.2,10.7L18.2,12.2L13.5,12.2L13.5,11.8L17.8,11.8L17.8,10.7L13.5,10.7L13.5,10.3z" stroke="none"/><path d="M50.8,10.5L51.2,10.5L51.2,12.2L49.5,12.2L49.5,11.8L50.8,11.8z" stroke="none"/><path d="M63,6.2L63,5.8L64.3,5.8L64.3,4.3L66,4.3L66,4.7L64.7,4.7L64.7,6.2z" stroke="none"/><path d="M4.5,4.7L4.5,4.3L6.2,4.3L6.2,5.8L7.5,5.8L7.5,6.2L5.8,6.2L5.8,4.7z" stroke="none"/><path d="M54.2,12L53.8,12L53.8,7.5L54.2,7.5z" stroke="none"/><path d="M93,4.7L93,4.3L99,4.3L99,4.7z" stroke="none"/><path d="M25.5,12.2L25.5,11.8L32.8,11.8L32.8,9.2L31.5,9.2L31.5,8.8L33.2,8.8L33.2,12.2z" stroke="none"/><path d="M42,10.7L42,10.3L44.8,10.3L44.8,7.3L48,7.3L48,7.7L45.2,7.7L45.2,10.7z" stroke="none"/><path d="M91.5,7.3L91.5,7.7L88.7,7.7L88.7,9.2L82.7,9.2L82.7,10.5L82.3,10.5L82.3,8.8L88.3,8.8L88.3,7.3z" stroke="none"/><path d="M3,3.2L3,2.8L13.5,2.8L13.5,3.2z" stroke="none"/><path d="M88.5,10.3L88.5,10.7L84.2,10.7L84.2,12.2L80.8,12.2L80.8,10.7L76.3,10.7L76.3,7.5L76.7,7.5L76.7,10.3L81.2,10.3L81.2,11.8L83.8,11.8L83.8,10.3z" stroke="none"/><path d="M88.5,12.2L88.5,11.8L95.8,11.8L95.8,8.8L97.3,8.8L97.3,7.3L100.5,7.3L100.5,7.7L97.7,7.7L97.7,9.2L96.2,9.2L96.2,12.2z" stroke="none"/><path d="M49.5,8.8L49.5,9.2L46.7,9.2L46.7,12.2L35.8,12.2L35.8,6L36.2,6L36.2,11.8L46.3,11.8L46.3,8.8z" stroke="none"/><path d="M40.5,4.7L40.5,4.3L46.7,4.3L46.7,5.8L51.2,5.8L51.2,7.3L52.7,7.3L52.7,13.7L23.8,13.7L23.8,10.7L22.3,10.7L22.3,7.5L22.7,7.5L22.7,10.3L24.2,10.3L24.2,13.3L52.3,13.3L52.3,7.7L50.8,7.7L50.8,6.2L46.3,6.2L46.3,4.7z" stroke="none"/><path d="M48,4.7L48,4.3L57.2,4.3L57.2,5.8L58.7,5.8L58.7,8.8L63.2,8.8L63.2,10.3L74.8,10.3L74.8,9L75.2,9L75.2,10.7L62.8,10.7L62.8,9.2L58.3,9.2L58.3,6.2L56.8,6.2L56.8,4.7z" stroke="none"/><path d="M18.2,4.5L17.8,4.5L17.8,2.8L58.7,2.8L58.7,4.3L60.2,4.3L60.2,7.5L59.8,7.5L59.8,4.7L58.3,4.7L58.3,3.2L18.2,3.2z" stroke="none"/><path d="M56.8,9L57.2,9L57.2,10.3L60.2,10.3L60.2,11.8L78.2,11.8L78.2,13.3L100.3,13.3L100.3,11.8L101.8,11.8L101.8,6.2L100.3,6.2L100.3,3.2L88.3,3.2L88.3,1.7L16.7,1.7L16.7,3.2L15.2,3.2L15.2,4.5L14.8,4.5L14.8,2.8L16.3,2.8L16.3,1.3L88.7,1.3L88.7,2.8L100.7,2.8L100.7,5.8L102.2,5.8L102.2,12.2L100.7,12.2L100.7,13.7L77.8,13.7L77.8,12.2L59.8,12.2L59.8,10.7L56.8,10.7z" stroke="none"/></svg>