<svg version="1.1" width="105" height="15" xmlns="http://www.w3.org/2000/svg"><path d="M20.8,11.8L20.8,10.5L21.2,10.5L21.2,12.2L18.2,12.2L18.2,13.3L31.3,13.3L31.3,12L31.7,12L31.7,13.7L17.8,13.7L17.8,12.2L7.3,12.2L7.3,10.7L6,10.7L6,10.3L7.7,10.3L7.7,11.8z" stroke="none"/><path d="M67.7,5.8L67.7,7.3L70.5,7.3L70.5,7.7L67.3,7.7L67.3,6.2L48.2,6.2L48.2,7.7L35.8,7.7L35.8,6.2L34.5,6.2L34.5,5.8L36.2,5.8L36.2,7.3L47.8,7.3L47.8,6.2L40.3,6.2L40.3,4.5L40.7,4.5L40.7,5.8z" stroke="none"/><path d="M89.8,4.3L89.8,3.2L81,3.2L81,2.8L90.2,2.8L90.2,4.3L93,4.3L93,4.7L90.2,4.7L90.2,5.8L100.3,5.8L100.3,4.5L100.7,4.5L100.7,6.2L89.8,6.2L89.8,4.7L88.7,4.7L88.7,6.2L87,6.2L87,5.8L88.3,5.8L88.3,4.3z" stroke="none"/><path d="M11.8,2.8L11.8,1.3L16.7,1.3L16.7,2.8L18.2,2.8L18.2,4.5L17.8,4.5L17.8,3.2L16.3,3.2L16.3,1.7L12.2,1.7L12.2,2.8L15,2.8L15,3.2L12.2,3.2L12.2,4.7L10.7,4.7L10.7,6.2L9,6.2L9,5.8L10.3,5.8L10.3,4.3L11.8,4.3L11.8,3.2L4.7,3.2L4.7,4.7L3,4.7L3,4.3L4.3,4.3L4.3,2.8z" stroke="none"/><path d="M84.2,6L83.8,6L83.8,4.5L84.2,4.5z" stroke="none"/><path d="M18,6.2L18,5.8L21,5.8L21,6.2z" stroke="none"/><path d="M67.5,3.2L67.5,2.8L69.2,2.8L69.2,6L68.8,6L68.8,3.2z" stroke="none"/><path d="M34.5,10.7L34.5,10.3L37.3,10.3L37.3,9L37.7,9L37.7,10.7z" stroke="none"/><path d="M61.5,4.7L61.5,4.3L67.5,4.3L67.5,4.7z" stroke="none"/><path d="M40.5,10.7L40.5,10.3L48,10.3L48,10.7z" stroke="none"/><path d="M34.5,4.7L34.5,4.3L38.8,4.3L38.8,2.8L42,2.8L42,3.2L39.2,3.2L39.2,4.7z" stroke="none"/><path d="M78,2.8L78,3.2L70.7,3.2L70.7,4.5L70.3,4.5L70.3,2.8z" stroke="none"/><path d="M4.5,7.7L4.5,7.3L13.3,7.3L13.3,6L13.7,6L13.7,7.7z" stroke="none"/><path d="M100.5,7.3L100.5,7.7L96.2,7.7L96.2,9.2L93.2,9.2L93.2,10.7L88.5,10.7L88.5,10.3L92.8,10.3L92.8,8.8L95.8,8.8L95.8,7.3z" stroke="none"/><path d="M58.5,2.8L58.5,3.2L57.2,3.2L57.2,4.7L46.3,4.7L46.3,3.2L45,3.2L45,2.8L46.7,2.8L46.7,4.3L56.8,4.3L56.8,2.8z" stroke="none"/><path d="M75,7.3L75,7.7L73.7,7.7L73.7,9.2L52.3,9.2L52.3,7.5L52.7,7.5L52.7,8.8L73.3,8.8L73.3,7.3z" stroke="none"/><path d="M63,10.7L63,10.3L85.3,10.3L85.3,8.8L88.5,8.8L88.5,9.2L85.7,9.2L85.7,10.7z" stroke="none"/><path d="M60.2,4.5L59.8,4.5L59.8,2.8L64.3,2.8L64.3,1.3L97.7,1.3L97.7,2.8L100.5,2.8L100.5,3.2L97.3,3.2L97.3,1.7L64.7,1.7L64.7,3.2L60.2,3.2z" stroke="none"/><path d="M18,9.2L18,8.8L33.2,8.8L33.2,11.8L52.3,11.8L52.3,10.3L58.5,10.3L58.5,10.7L52.7,10.7L52.7,12.2L32.8,12.2L32.8,9.2z" stroke="none"/><path d="M54,2.8L54,3.2L52.3,3.2L52.3,1.7L36.2,1.7L36.2,3.2L33.2,3.2L33.2,4.7L31.7,4.7L31.7,6.2L28.7,6.2L28.7,7.7L15.2,7.7L15.2,9.2L2.8,9.2L2.8,5.8L7.3,5.8L7.3,4.3L9,4.3L9,4.7L7.7,4.7L7.7,6.2L3.2,6.2L3.2,8.8L14.8,8.8L14.8,7.3L28.3,7.3L28.3,5.8L31.3,5.8L31.3,4.3L32.8,4.3L32.8,2.8L35.8,2.8L35.8,1.3L52.7,1.3L52.7,2.8z" stroke="none"/></svg>