<svg version="1.1" width="105" height="15" xmlns="http://www.w3.org/2000/svg"><path d="M82.7,7.3L82.7,8.8L87.2,8.8L87.2,10.3L94.5,10.3L94.5,10.7L86.8,10.7L86.8,9.2L82.3,9.2L82.3,7.7L70.7,7.7L70.7,8.8L72.2,8.8L72.2,10.5L71.8,10.5L71.8,9.2L70.3,9.2L70.3,7.7L63.2,7.7L63.2,9.2L61.7,9.2L61.7,10.7L60.2,10.7L60.2,12.2L45,12.2L45,11.8L59.8,11.8L59.8,10.3L61.3,10.3L61.3,8.8L62.8,8.8L62.8,7.3z" stroke="none"/><path d="M88.7,2.8L88.7,4.3L90,4.3L90,4.7L88.3,4.7L88.3,3.2L87.2,3.2L87.2,5.8L91.3,5.8L91.3,4.5L91.7,4.5L91.7,6.2L86.8,6.2L86.8,3.2L79.5,3.2L79.5,2.8z" stroke="none"/><path d="M73.3,4.3L73.3,3.2L49.5,3.2L49.5,2.8L73.7,2.8L73.7,4.3L76.5,4.3L76.5,4.7L73.7,4.7L73.7,5.8L84.2,5.8L84.2,7.3L85.5,7.3L85.5,7.7L83.8,7.7L83.8,6.2L73.3,6.2L73.3,4.7L70.5,4.7L70.5,4.3z" stroke="none"/><path d="M49.3,5.8L49.3,4.7L30,4.7L30,4.3L49.7,4.3L49.7,5.8L51.2,5.8L51.2,7.3L52.5,7.3L52.5,7.7L50.8,7.7L50.8,6.2L49.7,6.2L49.7,9.2L43.7,9.2L43.7,13.3L74.8,13.3L74.8,10.3L76.3,10.3L76.3,8.8L78,8.8L78,9.2L76.7,9.2L76.7,10.7L75.2,10.7L75.2,13.7L43.3,13.7L43.3,8.8L49.3,8.8L49.3,6.2L48.2,6.2L48.2,7.7L46.5,7.7L46.5,7.3L47.8,7.3L47.8,5.8z" stroke="none"/><path d="M19.7,12L19.3,12L19.3,10.5L19.7,10.5z" stroke="none"/><path d="M18.2,10.5L17.8,10.5L17.8,8.8L21.2,8.8L21.2,10.5L20.8,10.5L20.8,9.2L18.2,9.2z" stroke="none"/><path d="M34.3,9L34.7,9L34.7,10.7L33.2,10.7L33.2,12L32.8,12L32.8,10.3L34.3,10.3z" stroke="none"/><path d="M30,2.8L30,3.2L28.7,3.2L28.7,5.8L33,5.8L33,6.2L28.3,6.2L28.3,2.8z" stroke="none"/><path d="M13.3,12L13.7,12L13.7,13.7L10.3,13.7L10.3,12.2L9,12.2L9,11.8L10.7,11.8L10.7,13.3L13.3,13.3z" stroke="none"/><path d="M93,8.8L93,9.2L88.5,9.2L88.5,8.8z" stroke="none"/><path d="M70.3,10.5L70.7,10.5L70.7,11.8L73.3,11.8L73.3,8.8L75,8.8L75,9.2L73.7,9.2L73.7,12.2L70.3,12.2z" stroke="none"/><path d="M37.7,12L37.3,12L37.3,7.7L36,7.7L36,7.3L37.7,7.3z" stroke="none"/><path d="M12,6.2L12,5.8L16.3,5.8L16.3,4.3L18,4.3L18,4.7L16.7,4.7L16.7,6.2z" stroke="none"/><path d="M12,7.3L12,7.7L6.2,7.7L6.2,9L5.8,9L5.8,7.3z" stroke="none"/><path d="M102,10.3L102,10.7L95.8,10.7L95.8,9L96.2,9L96.2,10.3z" stroke="none"/><path d="M34.5,12.2L34.5,11.8L36.2,11.8L36.2,13.3L38.8,13.3L38.8,7.5L39.2,7.5L39.2,13.7L35.8,13.7L35.8,12.2z" stroke="none"/><path d="M12.2,12L11.8,12L11.8,10.3L16.3,10.3L16.3,7.3L22.5,7.3L22.5,7.7L16.7,7.7L16.7,10.7L12.2,10.7z" stroke="none"/><path d="M4.7,7.5L4.3,7.5L4.3,5.8L10.3,5.8L10.3,4.3L14.8,4.3L14.8,2.8L22.7,2.8L22.7,4.3L24.2,4.3L24.2,9.2L22.5,9.2L22.5,8.8L23.8,8.8L23.8,4.7L22.3,4.7L22.3,3.2L15.2,3.2L15.2,4.7L10.7,4.7L10.7,6.2L4.7,6.2z" stroke="none"/><path d="M79.5,12.2L79.5,11.8L103.3,11.8L103.3,7.7L100.5,7.7L100.5,7.3L103.7,7.3L103.7,12.2z" stroke="none"/><path d="M78.2,4.5L77.8,4.5L77.8,3.2L74.8,3.2L74.8,1.7L27.2,1.7L27.2,7.3L34.3,7.3L34.3,5.8L40.7,5.8L40.7,7.3L42,7.3L42,7.7L40.3,7.7L40.3,6.2L34.7,6.2L34.7,7.7L26.8,7.7L26.8,1.3L75.2,1.3L75.2,2.8L78.2,2.8z" stroke="none"/></svg>