<svg version="1.1" width="105" height="15" xmlns="http://www.w3.org/2000/svg"><path d="M101.8,4.3L101.8,3L102.2,3L102.2,4.7L94.7,4.7L94.7,7.5L94.3,7.5L94.3,4.7L87.2,4.7L87.2,6L86.8,6L86.8,4.3z" stroke="none"/><path d="M68.8,2.8L72.2,2.8L72.2,9.2L70.5,9.2L70.5,8.8L71.8,8.8L71.8,3.2L69.2,3.2L69.2,4.3L70.7,4.3L70.7,7.5L70.3,7.5L70.3,4.7L69.2,4.7L69.2,7.7L67.5,7.7L67.5,7.3L68.8,7.3z" stroke="none"/><path d="M53.8,2.8L53.8,1.3L76.7,1.3L76.7,2.8L78.2,2.8L78.2,4.3L79.5,4.3L79.5,4.7L77.8,4.7L77.8,3.2L76.3,3.2L76.3,1.7L54.2,1.7L54.2,2.8L61.5,2.8L61.5,3.2L54.2,3.2L54.2,4.7L30.2,4.7L30.2,6L29.8,6L29.8,4.3L53.8,4.3L53.8,3.2L49.5,3.2L49.5,2.8z" stroke="none"/><path d="M80.8,8.8L80.8,7.7L73.7,7.7L73.7,10.7L68.8,10.7L68.8,9.2L67.5,9.2L67.5,8.8L69.2,8.8L69.2,10.3L73.3,10.3L73.3,7.3L81.2,7.3L81.2,8.8L93,8.8L93,9.2L81.2,9.2L81.2,10.3L90.2,10.3L90.2,11.8L100.5,11.8L100.5,12.2L89.8,12.2L89.8,10.7L80.8,10.7L80.8,9.2L75.2,9.2L75.2,12.2L70.5,12.2L70.5,11.8L74.8,11.8L74.8,8.8z" stroke="none"/><path d="M34.5,5.8L34.5,6.2L33,6.2L33,5.8z" stroke="none"/><path d="M85.5,7.3L85.5,7.7L84,7.7L84,7.3z" stroke="none"/><path d="M49.5,8.8L49.5,9.2L46.3,9.2L46.3,7.5L46.7,7.5L46.7,8.8z" stroke="none"/><path d="M37.3,7.5L37.7,7.5L37.7,10.7L34.5,10.7L34.5,10.3L37.3,10.3z" stroke="none"/><path d="M12,3.2L12,2.8L18.2,2.8L18.2,4.3L19.7,4.3L19.7,6L19.3,6L19.3,4.7L17.8,4.7L17.8,3.2z" stroke="none"/><path d="M12,7.3L12,7.7L6.2,7.7L6.2,9.2L4.7,9.2L4.7,10.5L4.3,10.5L4.3,8.8L5.8,8.8L5.8,7.3z" stroke="none"/><path d="M94.5,9.2L94.5,8.8L95.8,8.8L95.8,7.3L98.8,7.3L98.8,5.8L102,5.8L102,6.2L99.2,6.2L99.2,7.7L96.2,7.7L96.2,9.2z" stroke="none"/><path d="M12,11.8L12,12.2L3,12.2L3,11.8z" stroke="none"/><path d="M82.5,12.2L82.5,11.8L88.7,11.8L88.7,13.3L101.8,13.3L101.8,10.7L91.5,10.7L91.5,10.3L102.2,10.3L102.2,13.7L88.3,13.7L88.3,12.2z" stroke="none"/><path d="M33,2.8L33,3.2L27.2,3.2L27.2,4.7L20.8,4.7L20.8,3L21.2,3L21.2,4.3L26.8,4.3L26.8,2.8z" stroke="none"/><path d="M43.5,9.2L43.5,8.8L45.2,8.8L45.2,10.3L57,10.3L57,10.7L44.8,10.7L44.8,9.2z" stroke="none"/><path d="M9.2,3L8.8,3L8.8,1.3L22.7,1.3L22.7,2.8L24,2.8L24,3.2L22.3,3.2L22.3,1.7L9.2,1.7z" stroke="none"/><path d="M31.5,8.8L31.5,9.2L20.8,9.2L20.8,7.7L14.8,7.7L14.8,6.2L12,6.2L12,5.8L15.2,5.8L15.2,7.3L21.2,7.3L21.2,8.8z" stroke="none"/><path d="M36.2,7.5L35.8,7.5L35.8,5.8L58.3,5.8L58.3,4.3L60,4.3L60,4.7L58.7,4.7L58.7,6.2L36.2,6.2z" stroke="none"/><path d="M51,7.7L51,7.3L57.2,7.3L57.2,8.8L58.7,8.8L58.7,12.2L57.2,12.2L57.2,13.7L23.8,13.7L23.8,12L24.2,12L24.2,13.3L56.8,13.3L56.8,11.8L58.3,11.8L58.3,9.2L56.8,9.2L56.8,7.7z" stroke="none"/><path d="M55.5,11.8L55.5,12.2L29.8,12.2L29.8,10.7L16.3,10.7L16.3,9L16.7,9L16.7,10.3L30.2,10.3L30.2,11.8z" stroke="none"/></svg>