<svg version="1.1" width="105" height="15" xmlns="http://www.w3.org/2000/svg"><path d="M70.3,8.8L70.3,6L70.7,6L70.7,8.8L73.7,8.8L73.7,10.3L81,10.3L81,10.7L73.3,10.7L73.3,9.2L66.2,9.2L66.2,10.7L63,10.7L63,10.3L65.8,10.3L65.8,8.8z" stroke="none"/><path d="M22.3,5.8L22.3,4.7L7.7,4.7L7.7,6.2L6,6.2L6,5.8L7.3,5.8L7.3,4.3L22.7,4.3L22.7,5.8L52.7,5.8L52.7,9L52.3,9L52.3,6.2L9,6.2L9,5.8z" stroke="none"/><path d="M35.8,10.3L35.8,7.5L36.2,7.5L36.2,10.3L49.7,10.3L49.7,11.8L55.3,11.8L55.3,10.5L55.7,10.5L55.7,12.2L49.3,12.2L49.3,10.7L36.2,10.7L36.2,12.2L24,12.2L24,11.8L35.8,11.8L35.8,10.7L33,10.7L33,10.3z" stroke="none"/><path d="M56.8,4.3L56.8,1.3L76.7,1.3L76.7,2.8L81.2,2.8L81.2,4.5L80.8,4.5L80.8,3.2L76.3,3.2L76.3,1.7L57.2,1.7L57.2,4.3L58.3,4.3L58.3,2.8L69.2,2.8L69.2,4.3L72.2,4.3L72.2,5.8L73.5,5.8L73.5,6.2L71.8,6.2L71.8,4.7L68.8,4.7L68.8,3.2L58.7,3.2L58.7,4.7L57.2,4.7L57.2,9.2L54.2,9.2L54.2,10.7L50.8,10.7L50.8,9.2L49.3,9.2L49.3,7.7L48,7.7L48,7.3L49.7,7.3L49.7,8.8L51.2,8.8L51.2,10.3L53.8,10.3L53.8,8.8L56.8,8.8L56.8,4.7L34.3,4.7L34.3,3L34.7,3L34.7,4.3z" stroke="none"/><path d="M82.5,8.8L82.5,9.2L79.5,9.2L79.5,8.8z" stroke="none"/><path d="M91.3,9L91.7,9L91.7,12L91.3,12z" stroke="none"/><path d="M31.5,2.8L31.5,3.2L30.2,3.2L30.2,4.7L28.5,4.7L28.5,4.3L29.8,4.3L29.8,2.8z" stroke="none"/><path d="M25.5,9.2L25.5,8.8L28.7,8.8L28.7,10.3L30,10.3L30,10.7L28.3,10.7L28.3,9.2z" stroke="none"/><path d="M77.8,4.5L78.2,4.5L78.2,6.2L76.7,6.2L76.7,9.2L75,9.2L75,8.8L76.3,8.8L76.3,5.8L77.8,5.8z" stroke="none"/><path d="M19.5,2.8L19.5,3.2L13.5,3.2L13.5,2.8z" stroke="none"/><path d="M94.5,4.7L94.5,4.3L96.2,4.3L96.2,5.8L97.7,5.8L97.7,8.8L99,8.8L99,9.2L97.3,9.2L97.3,6.2L95.8,6.2L95.8,4.7z" stroke="none"/><path d="M100.5,2.8L100.5,3.2L93.2,3.2L93.2,5.8L94.5,5.8L94.5,6.2L92.8,6.2L92.8,2.8z" stroke="none"/><path d="M21,10.3L21,10.7L19.3,10.7L19.3,9.2L10.3,9.2L10.3,7.7L9,7.7L9,7.3L10.7,7.3L10.7,8.8L19.7,8.8L19.7,10.3z" stroke="none"/><path d="M93.2,10.5L92.8,10.5L92.8,7.7L91.3,7.7L91.3,6.2L84.2,6.2L84.2,7.7L81,7.7L81,7.3L83.8,7.3L83.8,5.8L91.7,5.8L91.7,7.3L93.2,7.3z" stroke="none"/><path d="M87,4.7L87,4.3L91.3,4.3L91.3,1.3L102.2,1.3L102.2,7.5L101.8,7.5L101.8,1.7L91.7,1.7L91.7,4.7z" stroke="none"/><path d="M81,11.8L81,12.2L61.5,12.2L61.5,11.8z" stroke="none"/><path d="M33,8.8L33,9.2L29.8,9.2L29.8,7.7L22.7,7.7L22.7,12.2L7.5,12.2L7.5,11.8L22.3,11.8L22.3,7.3L30.2,7.3L30.2,8.8z" stroke="none"/><path d="M31.5,4.7L31.5,4.3L32.8,4.3L32.8,1.7L4.7,1.7L4.7,3L4.3,3L4.3,1.3L33.2,1.3L33.2,4.7z" stroke="none"/><path d="M87,7.3L87,7.7L85.7,7.7L85.7,10.7L82.7,10.7L82.7,13.7L59.8,13.7L59.8,4.5L60.2,4.5L60.2,13.3L82.3,13.3L82.3,10.3L85.3,10.3L85.3,7.3z" stroke="none"/><path d="M13.5,10.3L13.5,10.7L6.2,10.7L6.2,13.3L46.3,13.3L46.3,12L46.7,12L46.7,13.7L5.8,13.7L5.8,10.3z" stroke="none"/></svg>