<svg version="1.1" width="105" height="15" xmlns="http://www.w3.org/2000/svg"><path d="M21.2,8.8L21.2,10.5L20.8,10.5L20.8,9.2L15.2,9.2L15.2,12L14.8,12L14.8,9.2L10.5,9.2L10.5,8.8z" stroke="none"/><path d="M79.5,8.8L79.5,9.2L72.2,9.2L72.2,10.3L85.3,10.3L85.3,8.8L91.5,8.8L91.5,9.2L85.7,9.2L85.7,10.7L71.8,10.7L71.8,9.2L60.2,9.2L60.2,10.7L46.5,10.7L46.5,10.3L59.8,10.3L59.8,8.8z" stroke="none"/><path d="M41.8,10.3L41.8,9.2L25.7,9.2L25.7,10.5L25.3,10.5L25.3,8.8L42.2,8.8L42.2,10.3L44.8,10.3L44.8,8.8L52.5,8.8L52.5,9.2L45.2,9.2L45.2,10.7L42.2,10.7L42.2,11.8L61.3,11.8L61.3,10.5L61.7,10.5L61.7,12.2L41.8,12.2L41.8,10.7L36.2,10.7L36.2,12.2L33,12.2L33,11.8L35.8,11.8L35.8,10.3z" stroke="none"/><path d="M64.3,4.3L64.3,3.2L58.7,3.2L58.7,4.7L49.7,4.7L49.7,6.2L48.2,6.2L48.2,7.7L39,7.7L39,7.3L47.8,7.3L47.8,5.8L49.3,5.8L49.3,4.3L58.3,4.3L58.3,2.8L64.7,2.8L64.7,4.3L81,4.3L81,4.7L64.7,4.7L64.7,5.8L82.3,5.8L82.3,4.3L84,4.3L84,4.7L82.7,4.7L82.7,6.2L64.3,6.2L64.3,4.7L63.2,4.7L63.2,6.2L58.7,6.2L58.7,9.2L55.5,9.2L55.5,8.8L58.3,8.8L58.3,5.8L62.8,5.8L62.8,4.3z" stroke="none"/><path d="M90.2,12L89.8,12L89.8,10.5L90.2,10.5z" stroke="none"/><path d="M102,7.3L102,7.7L100.7,7.7L100.7,9.2L99,9.2L99,8.8L100.3,8.8L100.3,7.3z" stroke="none"/><path d="M96,4.7L96,4.3L97.7,4.3L97.7,7.5L97.3,7.5L97.3,4.7z" stroke="none"/><path d="M13.5,6.2L13.5,5.8L19.5,5.8L19.5,6.2z" stroke="none"/><path d="M3,3.2L3,2.8L6.2,2.8L6.2,4.3L8.8,4.3L8.8,3L9.2,3L9.2,4.7L5.8,4.7L5.8,3.2z" stroke="none"/><path d="M88.5,7.7L88.5,7.3L94.5,7.3L94.5,7.7z" stroke="none"/><path d="M5.8,9L6.2,9L6.2,10.3L9.2,10.3L9.2,11.8L12,11.8L12,12.2L8.8,12.2L8.8,10.7L5.8,10.7z" stroke="none"/><path d="M19.3,10.5L19.7,10.5L19.7,11.8L26.8,11.8L26.8,10.5L27.2,10.5L27.2,12.2L19.3,12.2z" stroke="none"/><path d="M88.5,4.7L88.5,4.3L91.7,4.3L91.7,5.8L96,5.8L96,6.2L91.3,6.2L91.3,4.7z" stroke="none"/><path d="M87,3.2L87,2.8L99,2.8L99,3.2z" stroke="none"/><path d="M18,2.8L18,3.2L12.2,3.2L12.2,4.7L10.7,4.7L10.7,6.2L6,6.2L6,5.8L10.3,5.8L10.3,4.3L11.8,4.3L11.8,2.8z" stroke="none"/><path d="M40.5,2.8L40.5,3.2L27,3.2L27,2.8z" stroke="none"/><path d="M102,10.3L102,10.7L94.7,10.7L94.7,12.2L91.7,12.2L91.7,13.7L70.3,13.7L70.3,12.2L67.3,12.2L67.3,10.5L67.7,10.5L67.7,11.8L70.7,11.8L70.7,13.3L91.3,13.3L91.3,11.8L94.3,11.8L94.3,10.3z" stroke="none"/><path d="M99.2,7.5L98.8,7.5L98.8,4.3L100.3,4.3L100.3,1.7L85.7,1.7L85.7,6.2L84.2,6.2L84.2,7.7L64.5,7.7L64.5,7.3L83.8,7.3L83.8,5.8L85.3,5.8L85.3,1.3L100.7,1.3L100.7,4.7L99.2,4.7z" stroke="none"/><path d="M62.8,10.5L63.2,10.5L63.2,13.7L5.8,13.7L5.8,12.2L4.3,12.2L4.3,7.3L28.5,7.3L28.5,7.7L4.7,7.7L4.7,11.8L6.2,11.8L6.2,13.3L62.8,13.3z" stroke="none"/><path d="M7.7,3L7.3,3L7.3,1.3L52.7,1.3L52.7,2.8L55.5,2.8L55.5,3.2L52.3,3.2L52.3,1.7L7.7,1.7z" stroke="none"/></svg>