<svg version="1.1" width="105" height="15" xmlns="http://www.w3.org/2000/svg"><path d="M82.3,4.3L82.3,2.8L85.5,2.8L85.5,3.2L82.7,3.2L82.7,4.7L63.2,4.7L63.2,6.2L52.7,6.2L52.7,7.7L49.5,7.7L49.5,7.3L52.3,7.3L52.3,5.8L62.8,5.8L62.8,4.7L57,4.7L57,4.3z" stroke="none"/><path d="M31.7,10.3L31.7,11.8L47.8,11.8L47.8,10.3L50.8,10.3L50.8,9L51.2,9L51.2,10.7L48.2,10.7L48.2,12.2L31.3,12.2L31.3,10.7L27.2,10.7L27.2,12.2L22.7,12.2L22.7,13.7L16.3,13.7L16.3,12.2L15,12.2L15,11.8L16.7,11.8L16.7,13.3L22.3,13.3L22.3,11.8L26.8,11.8L26.8,10.7L21.2,10.7L21.2,12.2L17.8,12.2L17.8,10.5L18.2,10.5L18.2,11.8L20.8,11.8L20.8,10.3z" stroke="none"/><path d="M31.3,7.3L31.3,5.8L46.5,5.8L46.5,6.2L31.7,6.2L31.7,7.3L40.7,7.3L40.7,9L40.3,9L40.3,7.7L31.7,7.7L31.7,8.8L33.2,8.8L33.2,10.5L32.8,10.5L32.8,9.2L31.3,9.2L31.3,7.7L15.2,7.7L15.2,9.2L12.2,9.2L12.2,10.7L9,10.7L9,10.3L11.8,10.3L11.8,8.8L14.8,8.8L14.8,7.3z" stroke="none"/><path d="M88.3,5.8L88.3,4.3L89.8,4.3L89.8,2.8L96.2,2.8L96.2,4.3L97.7,4.3L97.7,5.8L100.5,5.8L100.5,6.2L97.3,6.2L97.3,4.7L95.8,4.7L95.8,3.2L90.2,3.2L90.2,4.7L88.7,4.7L88.7,5.8L91.3,5.8L91.3,4.3L93,4.3L93,4.7L91.7,4.7L91.7,6.2L88.7,6.2L88.7,7.3L92.8,7.3L92.8,5.8L94.5,5.8L94.5,6.2L93.2,6.2L93.2,7.7L88.3,7.7L88.3,6.2L72.2,6.2L72.2,7.7L66.2,7.7L66.2,9L65.8,9L65.8,7.3L71.8,7.3L71.8,5.8z" stroke="none"/><path d="M4.5,4.3L4.5,4.7L3,4.7L3,4.3z" stroke="none"/><path d="M15,5.8L15,6.2L13.7,6.2L13.7,7.5L13.3,7.5L13.3,5.8z" stroke="none"/><path d="M16.5,9.2L16.5,8.8L19.7,8.8L19.7,10.5L19.3,10.5L19.3,9.2z" stroke="none"/><path d="M62.8,9L63.2,9L63.2,12.2L61.5,12.2L61.5,11.8L62.8,11.8z" stroke="none"/><path d="M100.3,7.5L100.7,7.5L100.7,12L100.3,12z" stroke="none"/><path d="M9,11.8L9,12.2L7.3,12.2L7.3,9.2L4.7,9.2L4.7,10.5L4.3,10.5L4.3,8.8L7.7,8.8L7.7,11.8z" stroke="none"/><path d="M67.5,10.3L67.5,10.7L64.3,10.7L64.3,5.8L70.5,5.8L70.5,6.2L64.7,6.2L64.7,10.3z" stroke="none"/><path d="M9.2,9L8.8,9L8.8,7.7L3.2,7.7L3.2,11.8L4.5,11.8L4.5,12.2L2.8,12.2L2.8,7.3L9.2,7.3z" stroke="none"/><path d="M9,5.8L9,6.2L1.7,6.2L1.7,13.3L5.8,13.3L5.8,10.5L6.2,10.5L6.2,13.7L1.3,13.7L1.3,5.8z" stroke="none"/><path d="M19.5,4.3L19.5,4.7L13.5,4.7L13.5,4.3z" stroke="none"/><path d="M79.3,9L79.7,9L79.7,10.7L73.7,10.7L73.7,12.2L72,12.2L72,11.8L73.3,11.8L73.3,10.3L79.3,10.3z" stroke="none"/><path d="M24,3.2L24,2.8L39,2.8L39,3.2z" stroke="none"/><path d="M10.7,9L10.3,9L10.3,4.3L11.8,4.3L11.8,2.8L22.7,2.8L22.7,4.3L27,4.3L27,4.7L22.3,4.7L22.3,3.2L12.2,3.2L12.2,4.7L10.7,4.7z" stroke="none"/><path d="M20.8,4.5L21.2,4.5L21.2,5.8L29.8,5.8L29.8,4.3L48.2,4.3L48.2,7.7L45.2,7.7L45.2,9.2L43.5,9.2L43.5,8.8L44.8,8.8L44.8,7.3L47.8,7.3L47.8,4.7L30.2,4.7L30.2,6.2L20.8,6.2z" stroke="none"/><path d="M78.2,9L77.8,9L77.8,7.3L87.2,7.3L87.2,8.8L96.2,8.8L96.2,10.3L99.2,10.3L99.2,13.3L101.8,13.3L101.8,4.7L100.3,4.7L100.3,3.2L97.3,3.2L97.3,1.7L55.7,1.7L55.7,4.7L54,4.7L54,4.3L55.3,4.3L55.3,1.3L97.7,1.3L97.7,2.8L100.7,2.8L100.7,4.3L102.2,4.3L102.2,13.7L98.8,13.7L98.8,10.7L95.8,10.7L95.8,9.2L86.8,9.2L86.8,7.7L78.2,7.7z" stroke="none"/><path d="M57,12.2L57,11.8L60.2,11.8L60.2,13.3L97.3,13.3L97.3,12L97.7,12L97.7,13.7L59.8,13.7L59.8,12.2z" stroke="none"/></svg>