<svg version="1.1" width="105" height="15" xmlns="http://www.w3.org/2000/svg"><path d="M58.3,4.3L58.3,1.7L52.7,1.7L52.7,3.2L48.2,3.2L48.2,4.7L45,4.7L45,4.3L47.8,4.3L47.8,2.8L52.3,2.8L52.3,1.3L58.7,1.3L58.7,4.3L63.2,4.3L63.2,5.8L75.2,5.8L75.2,7.3L76.5,7.3L76.5,7.7L74.8,7.7L74.8,6.2L62.8,6.2L62.8,4.7L53.8,4.7L53.8,3L54.2,3L54.2,4.3z" stroke="none"/><path d="M22.3,8.8L22.3,7.7L17.8,7.7L17.8,6.2L12,6.2L12,5.8L18.2,5.8L18.2,7.3L22.7,7.3L22.7,8.8L37.5,8.8L37.5,9.2L18.2,9.2L18.2,10.5L17.8,10.5L17.8,8.8z" stroke="none"/><path d="M85.3,4.3L85.3,2.8L90.2,2.8L90.2,4.3L91.5,4.3L91.5,4.7L89.8,4.7L89.8,3.2L85.7,3.2L85.7,4.3L88.5,4.3L88.5,4.7L85.7,4.7L85.7,7.5L85.3,7.5L85.3,4.7L80.8,4.7L80.8,3.2L79.5,3.2L79.5,2.8L81.2,2.8L81.2,4.3z" stroke="none"/><path d="M38.8,2.8L38.8,1.7L19.7,1.7L19.7,3.2L18.2,3.2L18.2,4.7L16.5,4.7L16.5,4.3L17.8,4.3L17.8,2.8L19.3,2.8L19.3,1.3L39.2,1.3L39.2,2.8L43.7,2.8L43.7,5.8L54,5.8L54,6.2L43.3,6.2L43.3,3.2L39.2,3.2L39.2,4.3L42.2,4.3L42.2,7.3L70.7,7.3L70.7,8.8L77.8,8.8L77.8,6.2L76.3,6.2L76.3,4.7L66,4.7L66,4.3L76.7,4.3L76.7,5.8L78.2,5.8L78.2,9.2L70.3,9.2L70.3,7.7L41.8,7.7L41.8,4.7L38.8,4.7L38.8,3.2L24.2,3.2L24.2,4.5L23.8,4.5L23.8,2.8z" stroke="none"/><path d="M40.5,5.8L40.5,6.2L39,6.2L39,5.8z" stroke="none"/><path d="M4.5,12.2L4.5,11.8L6,11.8L6,12.2z" stroke="none"/><path d="M22.5,6.2L22.5,5.8L25.3,5.8L25.3,4.5L25.7,4.5L25.7,6.2z" stroke="none"/><path d="M93.2,12L92.8,12L92.8,10.7L90,10.7L90,10.3L93.2,10.3z" stroke="none"/><path d="M7.5,2.8L7.5,3.2L4.7,3.2L4.7,4.5L4.3,4.5L4.3,2.8z" stroke="none"/><path d="M94.5,6.2L94.5,5.8L96.2,5.8L96.2,7.3L97.5,7.3L97.5,7.7L95.8,7.7L95.8,6.2z" stroke="none"/><path d="M99,4.3L99,4.7L95.8,4.7L95.8,3L96.2,3L96.2,4.3z" stroke="none"/><path d="M69,11.8L69,12.2L59.8,12.2L59.8,10.5L60.2,10.5L60.2,11.8z" stroke="none"/><path d="M15,2.8L15,3.2L12.2,3.2L12.2,4.7L6.2,4.7L6.2,6L5.8,6L5.8,4.3L11.8,4.3L11.8,2.8z" stroke="none"/><path d="M16.7,3L16.3,3L16.3,1.7L3.2,1.7L3.2,7.3L4.5,7.3L4.5,7.7L2.8,7.7L2.8,1.3L16.7,1.3z" stroke="none"/><path d="M100.5,10.3L100.5,10.7L94.3,10.7L94.3,9.2L87,9.2L87,8.8L94.7,8.8L94.7,10.3z" stroke="none"/><path d="M21,12.2L21,11.8L37.3,11.8L37.3,10.5L37.7,10.5L37.7,12.2z" stroke="none"/><path d="M63,10.3L63,10.7L61.3,10.7L61.3,9.2L48.2,9.2L48.2,10.7L43.5,10.7L43.5,10.3L47.8,10.3L47.8,8.8L61.7,8.8L61.7,10.3z" stroke="none"/><path d="M81,11.8L81,12.2L70.7,12.2L70.7,13.7L58.3,13.7L58.3,10.5L58.7,10.5L58.7,13.3L70.3,13.3L70.3,11.8z" stroke="none"/><path d="M16.3,9L16.7,9L16.7,11.8L19.7,11.8L19.7,13.3L41.8,13.3L41.8,8.8L45,8.8L45,9.2L42.2,9.2L42.2,13.7L19.3,13.7L19.3,12.2L16.3,12.2z" stroke="none"/><path d="M100.5,6.2L100.5,5.8L102.2,5.8L102.2,12.2L94.7,12.2L94.7,13.7L85.3,13.7L85.3,12.2L82.3,12.2L82.3,10.7L68.8,10.7L68.8,9L69.2,9L69.2,10.3L82.7,10.3L82.7,11.8L85.7,11.8L85.7,13.3L94.3,13.3L94.3,11.8L101.8,11.8L101.8,6.2z" stroke="none"/></svg>