<svg version="1.1" width="105" height="15" xmlns="http://www.w3.org/2000/svg"><path d="M80.8,4.3L80.8,3.2L78,3.2L78,2.8L81.2,2.8L81.2,4.3L91.5,4.3L91.5,4.7L79.7,4.7L79.7,6.2L76.7,6.2L76.7,7.5L76.3,7.5L76.3,5.8L79.3,5.8L79.3,4.3z" stroke="none"/><path d="M58.7,8.8L58.7,10.3L60,10.3L60,10.7L58.3,10.7L58.3,9.2L52.7,9.2L52.7,10.3L54.2,10.3L54.2,12L53.8,12L53.8,10.7L52.3,10.7L52.3,9.2L49.7,9.2L49.7,10.7L48.2,10.7L48.2,12.2L46.5,12.2L46.5,11.8L47.8,11.8L47.8,10.3L49.3,10.3L49.3,8.8z" stroke="none"/><path d="M26.8,5.8L26.8,4.7L9.2,4.7L9.2,9L8.8,9L8.8,4.3L27.2,4.3L27.2,5.8L37.3,5.8L37.3,4.3L39,4.3L39,4.7L37.7,4.7L37.7,6.2L27.2,6.2L27.2,7.3L40.3,7.3L40.3,5.8L42,5.8L42,6.2L40.7,6.2L40.7,7.7L26.8,7.7L26.8,6.2L19.5,6.2L19.5,5.8z" stroke="none"/><path d="M25.3,8.8L25.3,7.7L12.2,7.7L12.2,9.2L10.7,9.2L10.7,10.7L4.5,10.7L4.5,10.3L10.3,10.3L10.3,8.8L11.8,8.8L11.8,7.3L25.7,7.3L25.7,8.8L39,8.8L39,9.2L25.7,9.2L25.7,10.3L41.8,10.3L41.8,7.3L44.8,7.3L44.8,6L45.2,6L45.2,7.7L42.2,7.7L42.2,10.7L25.3,10.7L25.3,9.2L18.2,9.2L18.2,10.5L17.8,10.5L17.8,8.8z" stroke="none"/><path d="M12,12.2L12,11.8L13.5,11.8L13.5,12.2z" stroke="none"/><path d="M7.3,7.5L7.7,7.5L7.7,9L7.3,9z" stroke="none"/><path d="M96.2,6L95.8,6L95.8,4.3L97.5,4.3L97.5,4.7L96.2,4.7z" stroke="none"/><path d="M73.3,3L73.7,3L73.7,6L73.3,6z" stroke="none"/><path d="M81,7.3L81,7.7L79.7,7.7L79.7,10.3L81,10.3L81,10.7L79.3,10.7L79.3,7.3z" stroke="none"/><path d="M62.8,7.5L63.2,7.5L63.2,10.5L62.8,10.5z" stroke="none"/><path d="M70.7,9L70.3,9L70.3,7.7L67.3,7.7L67.3,6L67.7,6L67.7,7.3L70.7,7.3z" stroke="none"/><path d="M25.5,11.8L25.5,12.2L21,12.2L21,11.8z" stroke="none"/><path d="M94.3,6L94.7,6L94.7,7.3L100.7,7.3L100.7,9L100.3,9L100.3,7.7L94.3,7.7z" stroke="none"/><path d="M101.8,9L102.2,9L102.2,10.7L95.8,10.7L95.8,9.2L92.8,9.2L92.8,4.3L94.5,4.3L94.5,4.7L93.2,4.7L93.2,8.8L96.2,8.8L96.2,10.3L101.8,10.3z" stroke="none"/><path d="M61.5,2.8L61.5,3.2L55.7,3.2L55.7,4.7L51,4.7L51,4.3L55.3,4.3L55.3,2.8z" stroke="none"/><path d="M52.5,2.8L52.5,3.2L39,3.2L39,2.8z" stroke="none"/><path d="M75.2,6L74.8,6L74.8,2.8L76.3,2.8L76.3,1.3L87.2,1.3L87.2,2.8L94.5,2.8L94.5,3.2L86.8,3.2L86.8,1.7L76.7,1.7L76.7,3.2L75.2,3.2z" stroke="none"/><path d="M63.2,6L62.8,6L62.8,1.7L31.7,1.7L31.7,3L31.3,3L31.3,1.3L63.2,1.3z" stroke="none"/><path d="M48,4.7L48,4.3L49.7,4.3L49.7,5.8L60.2,5.8L60.2,8.8L61.7,8.8L61.7,11.8L83.8,11.8L83.8,8.8L86.8,8.8L86.8,7.5L87.2,7.5L87.2,9.2L84.2,9.2L84.2,12.2L61.3,12.2L61.3,9.2L59.8,9.2L59.8,6.2L49.3,6.2L49.3,4.7z" stroke="none"/><path d="M34.5,4.3L34.5,4.7L28.3,4.7L28.3,3.2L7.7,3.2L7.7,6.2L6.2,6.2L6.2,9.2L3.2,9.2L3.2,11.8L10.7,11.8L10.7,13.3L88.3,13.3L88.3,6.2L84.2,6.2L84.2,7.7L82.7,7.7L82.7,9.2L81,9.2L81,8.8L82.3,8.8L82.3,7.3L83.8,7.3L83.8,5.8L88.7,5.8L88.7,13.7L10.3,13.7L10.3,12.2L2.8,12.2L2.8,8.8L5.8,8.8L5.8,5.8L7.3,5.8L7.3,2.8L28.7,2.8L28.7,4.3z" stroke="none"/></svg>