<svg version="1.1" width="105" height="15" xmlns="http://www.w3.org/2000/svg"><path d="M91.7,7.3L91.7,8.8L93,8.8L93,9.2L91.3,9.2L91.3,7.7L90.2,7.7L90.2,9.2L87,9.2L87,8.8L89.8,8.8L89.8,7.7L83.8,7.7L83.8,6.2L82.5,6.2L82.5,5.8L84.2,5.8L84.2,7.3z" stroke="none"/><path d="M70.5,4.3L70.5,4.7L64.7,4.7L64.7,5.8L80.8,5.8L80.8,4.3L87,4.3L87,4.7L81.2,4.7L81.2,6.2L64.3,6.2L64.3,4.7L52.7,4.7L52.7,6.2L43.5,6.2L43.5,5.8L52.3,5.8L52.3,4.3z" stroke="none"/><path d="M25.3,5.8L25.3,3.2L24,3.2L24,2.8L25.7,2.8L25.7,5.8L34.7,5.8L34.7,7.5L34.3,7.5L34.3,6.2L25.7,6.2L25.7,7.3L31.7,7.3L31.7,8.8L41.8,8.8L41.8,7.3L46.5,7.3L46.5,7.7L42.2,7.7L42.2,9.2L31.3,9.2L31.3,7.7L25.3,7.7L25.3,6.2L4.7,6.2L4.7,7.7L3,7.7L3,7.3L4.3,7.3L4.3,5.8z" stroke="none"/><path d="M62.8,8.8L62.8,7.7L48,7.7L48,7.3L63.2,7.3L63.2,8.8L75,8.8L75,9.2L63.2,9.2L63.2,10.3L76.3,10.3L76.3,8.8L79.3,8.8L79.3,7.3L81,7.3L81,7.7L79.7,7.7L79.7,9.2L76.7,9.2L76.7,10.7L62.8,10.7L62.8,9.2L52.7,9.2L52.7,10.7L51.2,10.7L51.2,12L50.8,12L50.8,10.3L52.3,10.3L52.3,8.8z" stroke="none"/><path d="M28.5,4.7L28.5,4.3L31.5,4.3L31.5,4.7z" stroke="none"/><path d="M96,4.7L96,4.3L97.7,4.3L97.7,5.8L99.2,5.8L99.2,7.5L98.8,7.5L98.8,6.2L97.3,6.2L97.3,4.7z" stroke="none"/><path d="M96,10.7L96,10.3L100.7,10.3L100.7,12L100.3,12L100.3,10.7z" stroke="none"/><path d="M64.5,11.8L64.5,12.2L58.5,12.2L58.5,11.8z" stroke="none"/><path d="M97.5,8.8L97.5,9.2L94.7,9.2L94.7,10.7L91.5,10.7L91.5,10.3L94.3,10.3L94.3,8.8z" stroke="none"/><path d="M27,10.3L27,10.7L17.8,10.7L17.8,7.5L18.2,7.5L18.2,10.3z" stroke="none"/><path d="M55.5,3.2L55.5,2.8L67.5,2.8L67.5,3.2z" stroke="none"/><path d="M82.5,10.7L82.5,10.3L90.2,10.3L90.2,11.8L96,11.8L96,12.2L89.8,12.2L89.8,10.7z" stroke="none"/><path d="M4.5,3.2L4.5,2.8L19.7,2.8L19.7,4.5L19.3,4.5L19.3,3.2z" stroke="none"/><path d="M93,2.8L93,3.2L79.7,3.2L79.7,4.7L76.5,4.7L76.5,4.3L79.3,4.3L79.3,2.8z" stroke="none"/><path d="M36,12.2L36,11.8L49.7,11.8L49.7,13.3L52.3,13.3L52.3,11.8L53.8,11.8L53.8,10.5L54.2,10.5L54.2,12.2L52.7,12.2L52.7,13.7L49.3,13.7L49.3,12.2z" stroke="none"/><path d="M88.5,11.8L88.5,12.2L69,12.2L69,11.8z" stroke="none"/><path d="M18,4.3L18,4.7L2.8,4.7L2.8,1.3L31.7,1.3L31.7,2.8L34.7,2.8L34.7,4.3L36.2,4.3L36.2,5.8L39.2,5.8L39.2,7.3L40.5,7.3L40.5,7.7L38.8,7.7L38.8,6.2L35.8,6.2L35.8,4.7L34.3,4.7L34.3,3.2L31.3,3.2L31.3,1.7L3.2,1.7L3.2,4.3z" stroke="none"/><path d="M30,10.3L30,10.7L28.7,10.7L28.7,12.2L8.8,12.2L8.8,10.7L3,10.7L3,10.3L9.2,10.3L9.2,11.8L28.3,11.8L28.3,10.3z" stroke="none"/><path d="M36,10.3L36,10.7L31.7,10.7L31.7,12.2L30.2,12.2L30.2,13.7L1.3,13.7L1.3,8.8L3,8.8L3,9.2L1.7,9.2L1.7,13.3L29.8,13.3L29.8,11.8L31.3,11.8L31.3,10.3z" stroke="none"/><path d="M51.2,4.5L50.8,4.5L50.8,2.8L53.8,2.8L53.8,1.3L94.7,1.3L94.7,7.7L93,7.7L93,7.3L94.3,7.3L94.3,1.7L54.2,1.7L54.2,3.2L51.2,3.2z" stroke="none"/></svg>