<svg version="1.1" width="105" height="15" xmlns="http://www.w3.org/2000/svg"><path d="M7.7,1.3L7.7,2.8L9.2,2.8L9.2,6L8.8,6L8.8,3.2L7.3,3.2L7.3,1.7L6.2,1.7L6.2,6.2L4.5,6.2L4.5,5.8L5.8,5.8L5.8,1.7L4.7,1.7L4.7,3.2L3,3.2L3,2.8L4.3,2.8L4.3,1.3z" stroke="none"/><path d="M33.2,7.3L33.2,8.8L37.5,8.8L37.5,9.2L32.8,9.2L32.8,7.7L15.2,7.7L15.2,9.2L2.8,9.2L2.8,4.5L3.2,4.5L3.2,8.8L14.8,8.8L14.8,7.7L7.3,7.7L7.3,4.5L7.7,4.5L7.7,7.3z" stroke="none"/><path d="M61.3,7.3L61.3,4.3L70.7,4.3L70.7,5.8L73.5,5.8L73.5,6.2L70.3,6.2L70.3,4.7L61.7,4.7L61.7,7.3L62.8,7.3L62.8,5.8L64.5,5.8L64.5,6.2L63.2,6.2L63.2,7.7L61.7,7.7L61.7,10.7L60,10.7L60,10.3L61.3,10.3L61.3,7.7L49.3,7.7L49.3,6L49.7,6L49.7,7.3z" stroke="none"/><path d="M79.3,8.8L79.3,7.3L85.3,7.3L85.3,5.8L91.7,5.8L91.7,10.3L93.2,10.3L93.2,11.8L96,11.8L96,12.2L92.8,12.2L92.8,10.7L91.3,10.7L91.3,6.2L85.7,6.2L85.7,7.7L79.7,7.7L79.7,8.8L86.8,8.8L86.8,7.3L90,7.3L90,7.7L87.2,7.7L87.2,9.2L79.7,9.2L79.7,10.7L67.5,10.7L67.5,10.3L79.3,10.3L79.3,9.2L71.8,9.2L71.8,7.7L69,7.7L69,7.3L72.2,7.3L72.2,8.8z" stroke="none"/><path d="M41.8,9L42.2,9L42.2,10.7L40.5,10.7L40.5,10.3L41.8,10.3z" stroke="none"/><path d="M58.7,6L58.3,6L58.3,4.3L60,4.3L60,4.7L58.7,4.7z" stroke="none"/><path d="M31.5,11.8L31.5,12.2L27,12.2L27,11.8z" stroke="none"/><path d="M19.5,4.3L19.5,4.7L16.3,4.7L16.3,3.2L12.2,3.2L12.2,4.5L11.8,4.5L11.8,2.8L16.7,2.8L16.7,4.3z" stroke="none"/><path d="M102.2,10.5L101.8,10.5L101.8,9.2L97.7,9.2L97.7,10.7L94.5,10.7L94.5,10.3L97.3,10.3L97.3,8.8L102.2,8.8z" stroke="none"/><path d="M19.5,2.8L19.5,3.2L17.8,3.2L17.8,1.7L10.7,1.7L10.7,3L10.3,3L10.3,1.3L18.2,1.3L18.2,2.8z" stroke="none"/><path d="M64.5,11.8L64.5,12.2L55.3,12.2L55.3,10.5L55.7,10.5L55.7,11.8z" stroke="none"/><path d="M93,9.2L93,8.8L95.8,8.8L95.8,7.3L102,7.3L102,7.7L96.2,7.7L96.2,9.2z" stroke="none"/><path d="M87,10.3L87,10.7L81.2,10.7L81.2,12.2L65.8,12.2L65.8,9.2L64.5,9.2L64.5,8.8L66.2,8.8L66.2,11.8L80.8,11.8L80.8,10.3z" stroke="none"/><path d="M45,2.8L45,3.2L43.7,3.2L43.7,4.7L31.7,4.7L31.7,6.2L22.5,6.2L22.5,5.8L31.3,5.8L31.3,4.3L43.3,4.3L43.3,2.8z" stroke="none"/><path d="M6,12.2L6,11.8L7.3,11.8L7.3,10.3L31.5,10.3L31.5,10.7L7.7,10.7L7.7,12.2z" stroke="none"/><path d="M42,2.8L42,3.2L27.2,3.2L27.2,4.7L21.2,4.7L21.2,6.2L14.8,6.2L14.8,4.5L15.2,4.5L15.2,5.8L20.8,5.8L20.8,4.3L26.8,4.3L26.8,2.8z" stroke="none"/><path d="M94.5,2.8L94.5,3.2L57.2,3.2L57.2,6L56.8,6L56.8,2.8z" stroke="none"/><path d="M47.8,7.5L48.2,7.5L48.2,9.2L46.7,9.2L46.7,10.7L45.2,10.7L45.2,13.7L13.3,13.7L13.3,12.2L9,12.2L9,11.8L13.7,11.8L13.7,13.3L44.8,13.3L44.8,10.3L46.3,10.3L46.3,8.8L47.8,8.8z" stroke="none"/><path d="M52.3,9L52.7,9L52.7,11.8L54.2,11.8L54.2,13.3L97.3,13.3L97.3,11.8L100.3,11.8L100.3,10.5L100.7,10.5L100.7,12.2L97.7,12.2L97.7,13.7L53.8,13.7L53.8,12.2L52.3,12.2z" stroke="none"/><path d="M73.5,7.7L73.5,7.3L77.8,7.3L77.8,5.8L83.8,5.8L83.8,4.3L95.8,4.3L95.8,1.7L24.2,1.7L24.2,3L23.8,3L23.8,1.3L96.2,1.3L96.2,4.7L84.2,4.7L84.2,6.2L78.2,6.2L78.2,7.7z" stroke="none"/></svg>