<svg version="1.1" width="105" height="15" xmlns="http://www.w3.org/2000/svg"><path d="M88.5,5.8L88.5,6.2L84.2,6.2L84.2,9L83.8,9L83.8,6.2L82.7,6.2L82.7,9L82.3,9L82.3,5.8z" stroke="none"/><path d="M90,11.8L90,12.2L76.7,12.2L76.7,13.3L91.3,13.3L91.3,11.8L93,11.8L93,12.2L91.7,12.2L91.7,13.7L76.3,13.7L76.3,12.2L65.8,12.2L65.8,10.7L46.5,10.7L46.5,10.3L66.2,10.3L66.2,11.8z" stroke="none"/><path d="M17.8,5.8L17.8,4.3L40.7,4.3L40.7,5.8L42,5.8L42,6.2L40.3,6.2L40.3,4.7L18.2,4.7L18.2,5.8L21.2,5.8L21.2,7.5L20.8,7.5L20.8,6.2L18.2,6.2L18.2,7.7L16.7,7.7L16.7,9.2L13.7,9.2L13.7,10.5L13.3,10.5L13.3,8.8L16.3,8.8L16.3,7.3L17.8,7.3L17.8,6.2L3.2,6.2L3.2,7.5L2.8,7.5L2.8,5.8z" stroke="none"/><path d="M34.3,8.8L34.3,7.3L43.3,7.3L43.3,4.7L41.8,4.7L41.8,3.2L28.3,3.2L28.3,1.7L1.7,1.7L1.7,8.8L9.2,8.8L9.2,10.3L10.5,10.3L10.5,10.7L8.8,10.7L8.8,9.2L1.3,9.2L1.3,1.3L28.7,1.3L28.7,2.8L42.2,2.8L42.2,4.3L43.7,4.3L43.7,7.7L34.7,7.7L34.7,8.8L53.8,8.8L53.8,7.3L55.5,7.3L55.5,7.7L54.2,7.7L54.2,9.2L34.7,9.2L34.7,10.3L45.2,10.3L45.2,11.8L55.5,11.8L55.5,12.2L44.8,12.2L44.8,10.7L34.3,10.7L34.3,9.2L26.8,9.2L26.8,7.7L22.7,7.7L22.7,9.2L18,9.2L18,8.8L22.3,8.8L22.3,7.3L27.2,7.3L27.2,8.8z" stroke="none"/><path d="M24,9.2L24,8.8L25.5,8.8L25.5,9.2z" stroke="none"/><path d="M49.3,3L49.7,3L49.7,4.7L46.5,4.7L46.5,4.3L49.3,4.3z" stroke="none"/><path d="M87,7.7L87,7.3L89.8,7.3L89.8,4.7L88.5,4.7L88.5,4.3L90.2,4.3L90.2,7.7z" stroke="none"/><path d="M71.8,4.5L72.2,4.5L72.2,5.8L73.7,5.8L73.7,7.3L75,7.3L75,7.7L73.3,7.7L73.3,6.2L71.8,6.2z" stroke="none"/><path d="M75,9.2L75,8.8L76.3,8.8L76.3,4.5L76.7,4.5L76.7,9.2z" stroke="none"/><path d="M97.5,10.7L97.5,10.3L100.3,10.3L100.3,7.3L102,7.3L102,7.7L100.7,7.7L100.7,10.7z" stroke="none"/><path d="M101.8,3L102.2,3L102.2,4.7L95.8,4.7L95.8,3.2L94.5,3.2L94.5,2.8L96.2,2.8L96.2,4.3L101.8,4.3z" stroke="none"/><path d="M72,2.8L72,3.2L63,3.2L63,2.8z" stroke="none"/><path d="M37.5,5.8L37.5,6.2L27,6.2L27,5.8z" stroke="none"/><path d="M45,7.7L45,7.3L50.8,7.3L50.8,5.8L53.8,5.8L53.8,4.3L55.3,4.3L55.3,3L55.7,3L55.7,4.7L54.2,4.7L54.2,6.2L51.2,6.2L51.2,7.7z" stroke="none"/><path d="M27,2.8L27,3.2L13.5,3.2L13.5,2.8z" stroke="none"/><path d="M79.5,5.8L79.5,6.2L78.2,6.2L78.2,10.7L67.3,10.7L67.3,9.2L61.5,9.2L61.5,8.8L67.7,8.8L67.7,10.3L77.8,10.3L77.8,5.8z" stroke="none"/><path d="M99,8.8L99,9.2L85.7,9.2L85.7,10.7L79.3,10.7L79.3,9L79.7,9L79.7,10.3L85.3,10.3L85.3,8.8z" stroke="none"/><path d="M75.2,6L74.8,6L74.8,2.8L91.7,2.8L91.7,4.3L94.7,4.3L94.7,5.8L103.7,5.8L103.7,9.2L102.2,9.2L102.2,10.5L101.8,10.5L101.8,8.8L103.3,8.8L103.3,6.2L94.3,6.2L94.3,4.7L91.3,4.7L91.3,3.2L75.2,3.2z" stroke="none"/><path d="M69,7.3L69,7.7L65.8,7.7L65.8,4.7L61.3,4.7L61.3,1.3L100.7,1.3L100.7,3L100.3,3L100.3,1.7L61.7,1.7L61.7,4.3L66.2,4.3L66.2,7.3z" stroke="none"/><path d="M27,10.7L27,10.3L33.2,10.3L33.2,11.8L43.7,11.8L43.7,13.3L64.3,13.3L64.3,12L64.7,12L64.7,13.7L43.3,13.7L43.3,12.2L32.8,12.2L32.8,10.7z" stroke="none"/></svg>