<svg version="1.1" width="105" height="15" xmlns="http://www.w3.org/2000/svg"><path d="M85.7,7.3L85.7,8.8L88.7,8.8L88.7,10.3L94.3,10.3L94.3,8.8L98.8,8.8L98.8,5.8L100.3,5.8L100.3,4.5L100.7,4.5L100.7,6.2L99.2,6.2L99.2,9.2L94.7,9.2L94.7,10.7L88.3,10.7L88.3,9.2L85.3,9.2L85.3,7.7L81.2,7.7L81.2,9.2L78,9.2L78,8.8L80.8,8.8L80.8,7.7L63.2,7.7L63.2,9L62.8,9L62.8,7.3z" stroke="none"/><path d="M90.2,4.3L90.2,5.8L91.7,5.8L91.7,7.5L91.3,7.5L91.3,6.2L89.8,6.2L89.8,4.7L88.7,4.7L88.7,7.3L90.2,7.3L90.2,8.8L92.8,8.8L92.8,7.3L94.3,7.3L94.3,6L94.7,6L94.7,7.7L93.2,7.7L93.2,9.2L89.8,9.2L89.8,7.7L88.3,7.7L88.3,4.7L82.5,4.7L82.5,4.3z" stroke="none"/><path d="M70.3,10.3L70.3,9.2L64.7,9.2L64.7,10.7L63.2,10.7L63.2,12.2L59.8,12.2L59.8,9.2L58.5,9.2L58.5,8.8L60.2,8.8L60.2,11.8L62.8,11.8L62.8,10.3L64.3,10.3L64.3,8.8L70.7,8.8L70.7,10.3L78.2,10.3L78.2,12L77.8,12L77.8,10.7L70.7,10.7L70.7,11.8L75.2,11.8L75.2,13.3L79.3,13.3L79.3,11.8L81,11.8L81,12.2L79.7,12.2L79.7,13.7L74.8,13.7L74.8,12.2L70.3,12.2L70.3,10.7L66.2,10.7L66.2,12L65.8,12L65.8,10.3z" stroke="none"/><path d="M25.3,4.3L25.3,2.8L34.5,2.8L34.5,3.2L25.7,3.2L25.7,4.3L31.5,4.3L31.5,4.7L25.7,4.7L25.7,6.2L22.7,6.2L22.7,7.7L19.5,7.7L19.5,7.3L22.3,7.3L22.3,5.8L25.3,5.8L25.3,4.7L21.2,4.7L21.2,6L20.8,6L20.8,4.3z" stroke="none"/><path d="M94.7,4.5L94.3,4.5L94.3,3L94.7,3z" stroke="none"/><path d="M16.5,3.2L16.5,2.8L19.5,2.8L19.5,3.2z" stroke="none"/><path d="M7.5,10.7L7.5,10.3L8.8,10.3L8.8,7.3L10.5,7.3L10.5,7.7L9.2,7.7L9.2,10.7z" stroke="none"/><path d="M10.3,9L10.7,9L10.7,12.2L7.5,12.2L7.5,11.8L10.3,11.8z" stroke="none"/><path d="M48,3.2L48,2.8L51.2,2.8L51.2,4.3L52.5,4.3L52.5,4.7L50.8,4.7L50.8,3.2z" stroke="none"/><path d="M27,12.2L27,11.8L29.8,11.8L29.8,10.3L33,10.3L33,10.7L30.2,10.7L30.2,12.2z" stroke="none"/><path d="M93.2,6L92.8,6L92.8,4.7L91.3,4.7L91.3,3.2L81.2,3.2L81.2,5.8L87.2,5.8L87.2,7.5L86.8,7.5L86.8,6.2L80.8,6.2L80.8,2.8L91.7,2.8L91.7,4.3L93.2,4.3z" stroke="none"/><path d="M42,7.3L42,7.7L31.7,7.7L31.7,9L31.3,9L31.3,7.3z" stroke="none"/><path d="M24,10.3L24,10.7L18.2,10.7L18.2,12.2L12,12.2L12,11.8L17.8,11.8L17.8,10.3z" stroke="none"/><path d="M39,9.2L39,8.8L52.5,8.8L52.5,9.2z" stroke="none"/><path d="M54,5.8L54,6.2L47.8,6.2L47.8,4.7L44.8,4.7L44.8,3.2L39,3.2L39,2.8L45.2,2.8L45.2,4.3L48.2,4.3L48.2,5.8z" stroke="none"/><path d="M96.2,3L95.8,3L95.8,1.7L79.7,1.7L79.7,3.2L78.2,3.2L78.2,4.5L77.8,4.5L77.8,2.8L79.3,2.8L79.3,1.3L96.2,1.3z" stroke="none"/><path d="M101.8,4.5L102.2,4.5L102.2,7.7L100.7,7.7L100.7,10.7L96.2,10.7L96.2,12.2L86.8,12.2L86.8,10.7L83.8,10.7L83.8,9L84.2,9L84.2,10.3L87.2,10.3L87.2,11.8L95.8,11.8L95.8,10.3L100.3,10.3L100.3,7.3L101.8,7.3z" stroke="none"/><path d="M5.8,10.5L6.2,10.5L6.2,13.3L34.3,13.3L34.3,10.3L37.3,10.3L37.3,9L37.7,9L37.7,10.7L34.7,10.7L34.7,13.7L5.8,13.7z" stroke="none"/><path d="M16.7,10.5L16.3,10.5L16.3,8.8L29.8,8.8L29.8,5.8L46.7,5.8L46.7,7.3L54.2,7.3L54.2,8.8L56.8,8.8L56.8,7.3L61.7,7.3L61.7,10.5L61.3,10.5L61.3,7.7L57.2,7.7L57.2,9.2L53.8,9.2L53.8,7.7L46.3,7.7L46.3,6.2L30.2,6.2L30.2,9.2L16.7,9.2z" stroke="none"/><path d="M7.7,7.5L7.3,7.5L7.3,5.8L10.3,5.8L10.3,4.3L13.3,4.3L13.3,2.8L14.8,2.8L14.8,1.3L52.7,1.3L52.7,2.8L54.2,2.8L54.2,4.3L55.7,4.3L55.7,7.5L55.3,7.5L55.3,4.7L53.8,4.7L53.8,3.2L52.3,3.2L52.3,1.7L15.2,1.7L15.2,3.2L13.7,3.2L13.7,4.7L10.7,4.7L10.7,6.2L7.7,6.2z" stroke="none"/></svg>