<svg version="1.1" width="105" height="15" xmlns="http://www.w3.org/2000/svg"><path d="M70.3,11.8L70.3,10.3L73.3,10.3L73.3,8.8L80.8,8.8L80.8,7.3L87,7.3L87,7.7L81.2,7.7L81.2,9.2L73.7,9.2L73.7,10.7L70.7,10.7L70.7,11.8L84,11.8L84,12.2L69.2,12.2L69.2,13.7L44.8,13.7L44.8,12.2L39,12.2L39,11.8L45.2,11.8L45.2,13.3L68.8,13.3L68.8,11.8z" stroke="none"/><path d="M58.3,10.3L58.3,8.8L61.5,8.8L61.5,9.2L58.7,9.2L58.7,10.7L34.7,10.7L34.7,13.7L16.3,13.7L16.3,12L16.7,12L16.7,13.3L34.3,13.3L34.3,10.7L33.2,10.7L33.2,12.2L19.5,12.2L19.5,11.8L32.8,11.8L32.8,10.3z" stroke="none"/><path d="M37.3,5.8L37.3,3L37.7,3L37.7,5.8L51.2,5.8L51.2,7.3L52.5,7.3L52.5,7.7L50.8,7.7L50.8,6.2L37.7,6.2L37.7,7.7L10.5,7.7L10.5,7.3L37.3,7.3L37.3,6.2L35.8,6.2L35.8,1.3L51.2,1.3L51.2,2.8L52.5,2.8L52.5,3.2L50.8,3.2L50.8,1.7L36.2,1.7L36.2,5.8z" stroke="none"/><path d="M68.8,5.8L68.8,4.3L80.8,4.3L80.8,2.8L84.2,2.8L84.2,4.3L88.7,4.3L88.7,5.8L90.2,5.8L90.2,9L89.8,9L89.8,6.2L88.3,6.2L88.3,4.7L83.8,4.7L83.8,3.2L81.2,3.2L81.2,4.7L69.2,4.7L69.2,5.8L82.3,5.8L82.3,4.5L82.7,4.5L82.7,6.2L69.2,6.2L69.2,7.7L55.7,7.7L55.7,9.2L49.3,9.2L49.3,7.5L49.7,7.5L49.7,8.8L55.3,8.8L55.3,7.3L68.8,7.3L68.8,6.2L54.2,6.2L54.2,7.5L53.8,7.5L53.8,5.8z" stroke="none"/><path d="M93.2,7.5L92.8,7.5L92.8,5.8L94.5,5.8L94.5,6.2L93.2,6.2z" stroke="none"/><path d="M31.7,10.5L31.3,10.5L31.3,9.2L30,9.2L30,8.8L31.7,8.8z" stroke="none"/><path d="M97.3,3L97.7,3L97.7,6L97.3,6z" stroke="none"/><path d="M82.5,9.2L82.5,8.8L84.2,8.8L84.2,10.3L85.5,10.3L85.5,10.7L83.8,10.7L83.8,9.2z" stroke="none"/><path d="M64.3,9L64.7,9L64.7,12.2L63,12.2L63,11.8L64.3,11.8z" stroke="none"/><path d="M67.5,10.7L67.5,10.3L68.8,10.3L68.8,8.8L70.5,8.8L70.5,9.2L69.2,9.2L69.2,10.7z" stroke="none"/><path d="M96,12.2L96,11.8L97.3,11.8L97.3,10.3L99,10.3L99,10.7L97.7,10.7L97.7,12.2z" stroke="none"/><path d="M57,3.2L57,2.8L63,2.8L63,3.2z" stroke="none"/><path d="M22.5,4.7L22.5,4.3L24.2,4.3L24.2,5.8L34.3,5.8L34.3,4.5L34.7,4.5L34.7,6.2L23.8,6.2L23.8,4.7z" stroke="none"/><path d="M16.5,5.8L16.5,6.2L8.8,6.2L8.8,4.7L6.2,4.7L6.2,6.2L3,6.2L3,5.8L5.8,5.8L5.8,4.3L9.2,4.3L9.2,5.8z" stroke="none"/><path d="M87,12.2L87,11.8L94.3,11.8L94.3,10.3L95.8,10.3L95.8,8.8L101.8,8.8L101.8,7.5L102.2,7.5L102.2,9.2L96.2,9.2L96.2,10.7L94.7,10.7L94.7,12.2z" stroke="none"/><path d="M19.5,10.3L19.5,10.7L3,10.7L3,10.3z" stroke="none"/><path d="M46.5,12.2L46.5,11.8L59.8,11.8L59.8,10.3L62.8,10.3L62.8,9L63.2,9L63.2,10.7L60.2,10.7L60.2,12.2z" stroke="none"/><path d="M25.7,4.5L25.3,4.5L25.3,3.2L6,3.2L6,2.8L25.7,2.8z" stroke="none"/><path d="M7.3,6L7.7,6L7.7,7.7L1.3,7.7L1.3,1.3L27.2,1.3L27.2,3L26.8,3L26.8,1.7L1.7,1.7L1.7,7.3L7.3,7.3z" stroke="none"/><path d="M45,3.2L45,2.8L49.7,2.8L49.7,4.3L65.8,4.3L65.8,2.8L78,2.8L78,3.2L66.2,3.2L66.2,4.7L49.3,4.7L49.3,3.2z" stroke="none"/></svg>