<svg version="1.1" width="105" height="15" xmlns="http://www.w3.org/2000/svg"><path d="M77.8,5.8L77.8,4.3L87,4.3L87,4.7L78.2,4.7L78.2,5.8L81.2,5.8L81.2,7.3L84,7.3L84,7.7L80.8,7.7L80.8,6.2L67.7,6.2L67.7,7.7L66.2,7.7L66.2,9.2L64.5,9.2L64.5,8.8L65.8,8.8L65.8,7.3L67.3,7.3L67.3,5.8z" stroke="none"/><path d="M28.3,7.3L28.3,5.8L40.5,5.8L40.5,6.2L28.7,6.2L28.7,7.7L16.7,7.7L16.7,9.2L5.8,9.2L5.8,6.2L3,6.2L3,5.8L6.2,5.8L6.2,8.8L16.3,8.8L16.3,7.7L10.3,7.7L10.3,6.2L7.5,6.2L7.5,5.8L10.7,5.8L10.7,7.3z" stroke="none"/><path d="M50.8,10.3L50.8,9.2L46.5,9.2L46.5,8.8L51.2,8.8L51.2,10.3L55.7,10.3L55.7,11.8L57,11.8L57,12.2L55.3,12.2L55.3,10.7L51.2,10.7L51.2,12.2L40.5,12.2L40.5,11.8L50.8,11.8L50.8,10.7L48,10.7L48,10.3z" stroke="none"/><path d="M47.8,2.8L47.8,1.3L58.7,1.3L58.7,2.8L60,2.8L60,3.2L58.3,3.2L58.3,1.7L48.2,1.7L48.2,2.8L55.7,2.8L55.7,4.3L57,4.3L57,4.7L55.3,4.7L55.3,3.2L48.2,3.2L48.2,4.3L54.2,4.3L54.2,5.8L57,5.8L57,6.2L53.8,6.2L53.8,4.7L47.8,4.7L47.8,3.2L46.3,3.2L46.3,1.7L13.7,1.7L13.7,3L13.3,3L13.3,1.3L46.7,1.3L46.7,2.8z" stroke="none"/><path d="M85.5,9.2L85.5,8.8L87,8.8L87,9.2z" stroke="none"/><path d="M66,10.3L66,10.7L64.5,10.7L64.5,10.3z" stroke="none"/><path d="M97.5,3.2L97.5,2.8L99.2,2.8L99.2,4.3L100.7,4.3L100.7,5.8L102,5.8L102,6.2L100.3,6.2L100.3,4.7L98.8,4.7L98.8,3.2z" stroke="none"/><path d="M16.5,10.3L16.5,10.7L4.3,10.7L4.3,9.2L1.3,9.2L1.3,4.3L15.2,4.3L15.2,5.8L21,5.8L21,6.2L14.8,6.2L14.8,4.7L1.7,4.7L1.7,8.8L4.7,8.8L4.7,10.3z" stroke="none"/><path d="M95.8,7.5L96.2,7.5L96.2,10.3L99.2,10.3L99.2,11.8L100.5,11.8L100.5,12.2L98.8,12.2L98.8,10.7L95.8,10.7z" stroke="none"/><path d="M66,4.7L66,4.3L71.8,4.3L71.8,2.8L73.5,2.8L73.5,3.2L72.2,3.2L72.2,4.7z" stroke="none"/><path d="M19.5,12.2L19.5,11.8L30,11.8L30,12.2z" stroke="none"/><path d="M33,10.7L33,10.3L35.8,10.3L35.8,8.8L40.3,8.8L40.3,7.3L43.5,7.3L43.5,7.7L40.7,7.7L40.7,9.2L36.2,9.2L36.2,10.7z" stroke="none"/><path d="M88.3,9L88.7,9L88.7,10.7L74.8,10.7L74.8,9L75.2,9L75.2,10.3L88.3,10.3z" stroke="none"/><path d="M79.5,8.8L79.5,9.2L77.8,9.2L77.8,7.7L73.7,7.7L73.7,11.8L93,11.8L93,12.2L73.3,12.2L73.3,7.3L78.2,7.3L78.2,8.8z" stroke="none"/><path d="M15,12.2L15,11.8L17.8,11.8L17.8,10.3L26.8,10.3L26.8,8.8L31.3,8.8L31.3,7.5L31.7,7.5L31.7,9.2L27.2,9.2L27.2,10.7L18.2,10.7L18.2,12.2z" stroke="none"/><path d="M4.5,12.2L4.5,11.8L12.2,11.8L12.2,13.3L31.3,13.3L31.3,10.7L28.5,10.7L28.5,10.3L31.7,10.3L31.7,13.7L11.8,13.7L11.8,12.2z" stroke="none"/><path d="M45,2.8L45,3.2L16.7,3.2L16.7,4.5L16.3,4.5L16.3,2.8z" stroke="none"/><path d="M99.2,9L98.8,9L98.8,7.7L97.3,7.7L97.3,6.2L88.3,6.2L88.3,3.2L86.8,3.2L86.8,1.7L70.7,1.7L70.7,3.2L64.7,3.2L64.7,7.5L64.3,7.5L64.3,2.8L70.3,2.8L70.3,1.3L87.2,1.3L87.2,2.8L88.7,2.8L88.7,5.8L97.7,5.8L97.7,7.3L99.2,7.3z" stroke="none"/><path d="M27.2,6L26.8,6L26.8,4.3L46.7,4.3L46.7,5.8L52.7,5.8L52.7,7.3L58.7,7.3L58.7,8.8L61.7,8.8L61.7,10.3L63.2,10.3L63.2,11.8L67.3,11.8L67.3,10.3L68.8,10.3L68.8,9L69.2,9L69.2,10.7L67.7,10.7L67.7,12.2L62.8,12.2L62.8,10.7L61.3,10.7L61.3,9.2L58.3,9.2L58.3,7.7L52.3,7.7L52.3,6.2L46.3,6.2L46.3,4.7L27.2,4.7z" stroke="none"/><path d="M93,3.2L93,2.8L95.8,2.8L95.8,1.3L100.7,1.3L100.7,2.8L102.2,2.8L102.2,4.3L103.7,4.3L103.7,7.7L102.2,7.7L102.2,13.7L38.8,13.7L38.8,10.3L41.8,10.3L41.8,8.8L44.8,8.8L44.8,7.5L45.2,7.5L45.2,9.2L42.2,9.2L42.2,10.7L39.2,10.7L39.2,13.3L101.8,13.3L101.8,7.3L103.3,7.3L103.3,4.7L101.8,4.7L101.8,3.2L100.3,3.2L100.3,1.7L96.2,1.7L96.2,3.2z" stroke="none"/></svg>