<svg version="1.1" width="105" height="15" xmlns="http://www.w3.org/2000/svg"><path d="M16.3,8.8L16.3,7.7L4.5,7.7L4.5,7.3L16.7,7.3L16.7,8.8L22.3,8.8L22.3,7.3L29.8,7.3L29.8,5.8L31.5,5.8L31.5,6.2L30.2,6.2L30.2,7.7L22.7,7.7L22.7,9.2L10.5,9.2L10.5,8.8z" stroke="none"/><path d="M42,2.8L42,3.2L21.2,3.2L21.2,4.7L10.5,4.7L10.5,4.3L20.8,4.3L20.8,3.2L12,3.2L12,2.8z" stroke="none"/><path d="M61.3,4.3L61.3,2.8L73.7,2.8L73.7,4.3L75,4.3L75,4.7L73.3,4.7L73.3,3.2L61.7,3.2L61.7,4.3L69.2,4.3L69.2,7.5L68.8,7.5L68.8,4.7L61.7,4.7L61.7,6.2L60.2,6.2L60.2,7.7L41.8,7.7L41.8,4.7L33,4.7L33,4.3L42.2,4.3L42.2,7.3L59.8,7.3L59.8,5.8L61.3,5.8L61.3,4.7L58.3,4.7L58.3,3L58.7,3L58.7,4.3z" stroke="none"/><path d="M80.8,5.8L80.8,4.3L90.2,4.3L90.2,6L89.8,6L89.8,4.7L81.2,4.7L81.2,5.8L82.7,5.8L82.7,7.3L94.3,7.3L94.3,5.8L98.8,5.8L98.8,4.3L100.5,4.3L100.5,4.7L99.2,4.7L99.2,6.2L94.7,6.2L94.7,7.7L82.3,7.7L82.3,6.2L81.2,6.2L81.2,7.7L79.7,7.7L79.7,9.2L67.3,9.2L67.3,7.5L67.7,7.5L67.7,8.8L79.3,8.8L79.3,7.3L80.8,7.3L80.8,6.2L78.2,6.2L78.2,7.7L75,7.7L75,7.3L77.8,7.3L77.8,5.8z" stroke="none"/><path d="M13.3,10.5L13.7,10.5L13.7,12.2L12,12.2L12,11.8L13.3,11.8z" stroke="none"/><path d="M84,6.2L84,5.8L87,5.8L87,6.2z" stroke="none"/><path d="M97.7,4.5L97.3,4.5L97.3,2.8L102.2,2.8L102.2,6.2L100.7,6.2L100.7,7.7L97.5,7.7L97.5,7.3L100.3,7.3L100.3,5.8L101.8,5.8L101.8,3.2L97.7,3.2z" stroke="none"/><path d="M42,11.8L42,12.2L40.3,12.2L40.3,10.7L37.3,10.7L37.3,9L37.7,9L37.7,10.3L40.7,10.3L40.7,11.8z" stroke="none"/><path d="M42,10.7L42,10.3L49.7,10.3L49.7,12L49.3,12L49.3,10.7z" stroke="none"/><path d="M25.5,8.8L25.5,9.2L24.2,9.2L24.2,10.7L21.2,10.7L21.2,12.2L16.5,12.2L16.5,11.8L20.8,11.8L20.8,10.3L23.8,10.3L23.8,8.8z" stroke="none"/><path d="M67.5,5.8L67.5,6.2L66.2,6.2L66.2,7.7L64.7,7.7L64.7,9.2L61.7,9.2L61.7,10.7L58.5,10.7L58.5,10.3L61.3,10.3L61.3,8.8L64.3,8.8L64.3,7.3L65.8,7.3L65.8,5.8z" stroke="none"/><path d="M39,5.8L39,6.2L33.2,6.2L33.2,7.7L31.7,7.7L31.7,9.2L28.5,9.2L28.5,8.8L31.3,8.8L31.3,7.3L32.8,7.3L32.8,5.8z" stroke="none"/><path d="M15,6.2L15,5.8L25.3,5.8L25.3,4.3L27,4.3L27,4.7L25.7,4.7L25.7,6.2z" stroke="none"/><path d="M30,12.2L30,11.8L31.3,11.8L31.3,10.3L34.3,10.3L34.3,8.8L35.8,8.8L35.8,7.3L39.2,7.3L39.2,8.8L42,8.8L42,9.2L38.8,9.2L38.8,7.7L36.2,7.7L36.2,9.2L34.7,9.2L34.7,10.7L31.7,10.7L31.7,12.2z" stroke="none"/><path d="M90,8.8L90,9.2L81.2,9.2L81.2,10.7L75,10.7L75,10.3L80.8,10.3L80.8,8.8z" stroke="none"/><path d="M76.7,6L76.3,6L76.3,3.2L74.8,3.2L74.8,1.7L57.2,1.7L57.2,5.8L58.5,5.8L58.5,6.2L56.8,6.2L56.8,1.3L75.2,1.3L75.2,2.8L76.7,2.8z" stroke="none"/><path d="M102,11.8L102,12.2L81,12.2L81,11.8z" stroke="none"/><path d="M97.5,10.7L97.5,10.3L103.7,10.3L103.7,13.7L70.3,13.7L70.3,12.2L67.3,12.2L67.3,10.7L65.8,10.7L65.8,9L66.2,9L66.2,10.3L67.7,10.3L67.7,11.8L70.7,11.8L70.7,13.3L103.3,13.3L103.3,10.7z" stroke="none"/><path d="M19.5,10.3L19.5,10.7L15.2,10.7L15.2,13.3L50.8,13.3L50.8,11.8L53.8,11.8L53.8,10.3L56.8,10.3L56.8,8.8L58.5,8.8L58.5,9.2L57.2,9.2L57.2,10.7L54.2,10.7L54.2,12.2L51.2,12.2L51.2,13.7L14.8,13.7L14.8,10.3z" stroke="none"/><path d="M49.5,4.3L49.5,4.7L43.3,4.7L43.3,1.7L10.7,1.7L10.7,3.2L9.2,3.2L9.2,6L8.8,6L8.8,2.8L10.3,2.8L10.3,1.3L43.7,1.3L43.7,4.3z" stroke="none"/></svg>