<svg version="1.1" width="105" height="15" xmlns="http://www.w3.org/2000/svg"><path d="M43.7,7.3L43.7,10.3L45.2,10.3L45.2,12L44.8,12L44.8,10.7L43.3,10.7L43.3,7.7L42.2,7.7L42.2,10.5L41.8,10.5L41.8,7.7L40.7,7.7L40.7,10.5L40.3,10.5L40.3,7.3z" stroke="none"/><path d="M87.2,2.8L87.2,4.3L90.2,4.3L90.2,5.8L91.5,5.8L91.5,6.2L89.8,6.2L89.8,4.7L86.8,4.7L86.8,3.2L75.2,3.2L75.2,4.3L85.7,4.3L85.7,5.8L88.7,5.8L88.7,7.3L91.5,7.3L91.5,7.7L88.3,7.7L88.3,6.2L85.3,6.2L85.3,4.7L74.8,4.7L74.8,3.2L48,3.2L48,2.8z" stroke="none"/><path d="M23.8,7.3L23.8,6.2L19.7,6.2L19.7,12.2L18,12.2L18,11.8L19.3,11.8L19.3,5.8L24.2,5.8L24.2,7.3L27.2,7.3L27.2,10.3L31.5,10.3L31.5,10.7L26.8,10.7L26.8,7.7L24.2,7.7L24.2,10.7L22.5,10.7L22.5,10.3L23.8,10.3L23.8,7.7L21,7.7L21,7.3z" stroke="none"/><path d="M59.8,7.3L59.8,6.2L40.3,6.2L40.3,4.7L37.7,4.7L37.7,10.7L36,10.7L36,10.3L37.3,10.3L37.3,4.3L40.7,4.3L40.7,5.8L60.2,5.8L60.2,7.3L76.5,7.3L76.5,7.7L60.2,7.7L60.2,8.8L72.2,8.8L72.2,10.3L78,10.3L78,10.7L71.8,10.7L71.8,9.2L59.8,9.2L59.8,7.7L58.7,7.7L58.7,9.2L55.7,9.2L55.7,10.7L48,10.7L48,10.3L55.3,10.3L55.3,8.8L58.3,8.8L58.3,7.3z" stroke="none"/><path d="M78,12.2L78,11.8L79.5,11.8L79.5,12.2z" stroke="none"/><path d="M51,9.2L51,8.8L52.5,8.8L52.5,9.2z" stroke="none"/><path d="M42,12.2L42,11.8L43.5,11.8L43.5,12.2z" stroke="none"/><path d="M25.3,10.5L25.7,10.5L25.7,11.8L32.8,11.8L32.8,7.7L29.8,7.7L29.8,6.2L27,6.2L27,5.8L30.2,5.8L30.2,7.3L33.2,7.3L33.2,12.2L25.3,12.2z" stroke="none"/><path d="M98.8,3L99.2,3L99.2,7.3L100.5,7.3L100.5,7.7L98.8,7.7z" stroke="none"/><path d="M67.5,11.8L67.5,12.2L59.8,12.2L59.8,10.5L60.2,10.5L60.2,11.8z" stroke="none"/><path d="M18,10.3L18,10.7L8.8,10.7L8.8,6.2L7.5,6.2L7.5,5.8L9.2,5.8L9.2,10.3z" stroke="none"/><path d="M82.5,6.2L82.5,5.8L84.2,5.8L84.2,8.8L92.8,8.8L92.8,4.3L94.3,4.3L94.3,3L94.7,3L94.7,4.7L93.2,4.7L93.2,9.2L83.8,9.2L83.8,6.2z" stroke="none"/><path d="M45,4.3L45,4.7L43.3,4.7L43.3,3.2L31.5,3.2L31.5,2.8L43.7,2.8L43.7,4.3z" stroke="none"/><path d="M3.2,9L2.8,9L2.8,7.3L4.3,7.3L4.3,5.8L5.8,5.8L5.8,4.3L16.7,4.3L16.7,6L16.3,6L16.3,4.7L6.2,4.7L6.2,6.2L4.7,6.2L4.7,7.7L3.2,7.7z" stroke="none"/><path d="M36,5.8L36,6.2L31.3,6.2L31.3,4.7L21,4.7L21,4.3L31.7,4.3L31.7,5.8z" stroke="none"/><path d="M13.5,3.2L13.5,2.8L30,2.8L30,3.2z" stroke="none"/><path d="M38.8,6L39.2,6L39.2,11.8L40.7,11.8L40.7,13.3L46.3,13.3L46.3,8.8L49.3,8.8L49.3,7.3L57,7.3L57,7.7L49.7,7.7L49.7,9.2L46.7,9.2L46.7,13.7L40.3,13.7L40.3,12.2L38.8,12.2z" stroke="none"/><path d="M79.5,7.3L79.5,7.7L77.8,7.7L77.8,6.2L61.3,6.2L61.3,4.5L61.7,4.5L61.7,5.8L78.2,5.8L78.2,7.3z" stroke="none"/><path d="M99,11.8L99,12.2L82.7,12.2L82.7,13.7L52.3,13.7L52.3,12L52.7,12L52.7,13.3L82.3,13.3L82.3,11.8z" stroke="none"/><path d="M37.5,11.8L37.5,12.2L36.2,12.2L36.2,13.7L7.3,13.7L7.3,12.2L5.8,12.2L5.8,10.7L1.3,10.7L1.3,5.8L2.8,5.8L2.8,4.3L4.3,4.3L4.3,2.8L8.8,2.8L8.8,1.3L96.2,1.3L96.2,9.2L94.7,9.2L94.7,10.7L85.5,10.7L85.5,10.3L94.3,10.3L94.3,8.8L95.8,8.8L95.8,1.7L9.2,1.7L9.2,3.2L4.7,3.2L4.7,4.7L3.2,4.7L3.2,6.2L1.7,6.2L1.7,10.3L6.2,10.3L6.2,11.8L7.7,11.8L7.7,13.3L35.8,13.3L35.8,11.8z" stroke="none"/></svg>