<svg version="1.1" width="105" height="15" xmlns="http://www.w3.org/2000/svg"><path d="M86.8,10.3L86.8,8.8L97.5,8.8L97.5,9.2L87.2,9.2L87.2,10.3L88.7,10.3L88.7,11.8L90,11.8L90,12.2L88.3,12.2L88.3,10.7L85.7,10.7L85.7,12.2L79.7,12.2L79.7,13.7L76.3,13.7L76.3,12L76.7,12L76.7,13.3L79.3,13.3L79.3,11.8L85.3,11.8L85.3,10.3z" stroke="none"/><path d="M63,10.3L63,10.7L58.7,10.7L58.7,11.8L74.8,11.8L74.8,10.5L75.2,10.5L75.2,12.2L58.3,12.2L58.3,10.7L57.2,10.7L57.2,12.2L28.5,12.2L28.5,11.8L56.8,11.8L56.8,10.3z" stroke="none"/><path d="M25.3,4.3L25.3,3.2L19.3,3.2L19.3,1.7L15.2,1.7L15.2,3L14.8,3L14.8,1.3L19.7,1.3L19.7,2.8L25.7,2.8L25.7,4.3L37.3,4.3L37.3,2.8L43.3,2.8L43.3,1.3L52.7,1.3L52.7,2.8L54.2,2.8L54.2,6.2L49.3,6.2L49.3,4.7L48,4.7L48,4.3L49.7,4.3L49.7,5.8L53.8,5.8L53.8,3.2L52.3,3.2L52.3,1.7L43.7,1.7L43.7,3.2L37.7,3.2L37.7,4.7L25.7,4.7L25.7,6.2L24.2,6.2L24.2,7.7L22.5,7.7L22.5,7.3L23.8,7.3L23.8,5.8L25.3,5.8L25.3,4.7L16.3,4.7L16.3,3L16.7,3L16.7,4.3z" stroke="none"/><path d="M38.8,5.8L38.8,4.3L44.8,4.3L44.8,2.8L51.2,2.8L51.2,4.3L52.5,4.3L52.5,4.7L50.8,4.7L50.8,3.2L45.2,3.2L45.2,4.7L39.2,4.7L39.2,5.8L43.7,5.8L43.7,8.8L51,8.8L51,9.2L43.3,9.2L43.3,6.2L39.2,6.2L39.2,7.7L27.2,7.7L27.2,9.2L20.8,9.2L20.8,5.8L22.5,5.8L22.5,6.2L21.2,6.2L21.2,8.8L26.8,8.8L26.8,7.3L38.8,7.3L38.8,6.2L33,6.2L33,5.8z" stroke="none"/><path d="M46.7,7.5L46.3,7.5L46.3,5.8L48,5.8L48,6.2L46.7,6.2z" stroke="none"/><path d="M13.5,11.8L13.5,12.2L10.5,12.2L10.5,11.8z" stroke="none"/><path d="M10.5,4.7L10.5,4.3L11.8,4.3L11.8,2.8L13.5,2.8L13.5,3.2L12.2,3.2L12.2,4.7z" stroke="none"/><path d="M78.2,12L77.8,12L77.8,10.3L81,10.3L81,10.7L78.2,10.7z" stroke="none"/><path d="M100.3,10.5L100.7,10.5L100.7,12.2L97.3,12.2L97.3,10.7L96,10.7L96,10.3L97.7,10.3L97.7,11.8L100.3,11.8z" stroke="none"/><path d="M100.3,3L100.7,3L100.7,6.2L99.2,6.2L99.2,7.5L98.8,7.5L98.8,5.8L100.3,5.8z" stroke="none"/><path d="M27.2,12L26.8,12L26.8,10.3L31.3,10.3L31.3,9L31.7,9L31.7,10.7L27.2,10.7z" stroke="none"/><path d="M55.5,10.3L55.5,10.7L52.3,10.7L52.3,7.7L49.5,7.7L49.5,7.3L52.7,7.3L52.7,10.3z" stroke="none"/><path d="M101.8,10.5L102.2,10.5L102.2,13.7L92.8,13.7L92.8,12L93.2,12L93.2,13.3L101.8,13.3z" stroke="none"/><path d="M99.2,10.5L98.8,10.5L98.8,8.8L100.3,8.8L100.3,7.3L101.8,7.3L101.8,1.7L93.2,1.7L93.2,3.2L91.7,3.2L91.7,4.7L90.2,4.7L90.2,6.2L88.5,6.2L88.5,5.8L89.8,5.8L89.8,4.3L91.3,4.3L91.3,2.8L92.8,2.8L92.8,1.3L102.2,1.3L102.2,7.7L100.7,7.7L100.7,9.2L99.2,9.2z" stroke="none"/><path d="M66,2.8L66,3.2L60.2,3.2L60.2,4.7L57.2,4.7L57.2,6.2L55.7,6.2L55.7,7.7L54,7.7L54,7.3L55.3,7.3L55.3,5.8L56.8,5.8L56.8,4.3L59.8,4.3L59.8,2.8z" stroke="none"/><path d="M64.5,4.7L64.5,4.3L79.5,4.3L79.5,4.7z" stroke="none"/><path d="M66.2,9L65.8,9L65.8,7.3L79.3,7.3L79.3,5.8L81,5.8L81,6.2L79.7,6.2L79.7,7.7L66.2,7.7z" stroke="none"/><path d="M73.5,10.3L73.5,10.7L64.3,10.7L64.3,9.2L62.8,9.2L62.8,6.2L58.5,6.2L58.5,5.8L63.2,5.8L63.2,8.8L64.7,8.8L64.7,10.3z" stroke="none"/><path d="M84,10.3L84,10.7L82.3,10.7L82.3,9.2L67.5,9.2L67.5,8.8L82.7,8.8L82.7,10.3z" stroke="none"/><path d="M69,3.2L69,2.8L84.2,2.8L84.2,4.3L87.2,4.3L87.2,7.3L91.3,7.3L91.3,5.8L94.3,5.8L94.3,4.5L94.7,4.5L94.7,6.2L91.7,6.2L91.7,7.7L86.8,7.7L86.8,4.7L83.8,4.7L83.8,3.2z" stroke="none"/></svg>