<svg version="1.1" width="105" height="15" xmlns="http://www.w3.org/2000/svg"><path d="M64.5,8.8L64.5,9.2L45.2,9.2L45.2,10.7L34.7,10.7L34.7,12.2L33,12.2L33,11.8L34.3,11.8L34.3,10.3L44.8,10.3L44.8,9.2L40.3,9.2L40.3,7.5L40.7,7.5L40.7,8.8z" stroke="none"/><path d="M79.5,5.8L79.5,6.2L67.7,6.2L67.7,7.3L78.2,7.3L78.2,8.8L81,8.8L81,9.2L77.8,9.2L77.8,7.7L67.3,7.7L67.3,6.2L60.2,6.2L60.2,7.7L44.8,7.7L44.8,6L45.2,6L45.2,7.3L59.8,7.3L59.8,5.8z" stroke="none"/><path d="M32.8,7.3L32.8,6.2L31.3,6.2L31.3,4.7L27.2,4.7L27.2,10.5L26.8,10.5L26.8,4.3L31.7,4.3L31.7,5.8L33.2,5.8L33.2,7.3L36,7.3L36,7.7L33.2,7.7L33.2,8.8L37.3,8.8L37.3,7.5L37.7,7.5L37.7,9.2L32.8,9.2L32.8,7.7L29.8,7.7L29.8,6.2L28.5,6.2L28.5,5.8L30.2,5.8L30.2,7.3z" stroke="none"/><path d="M64.3,2.8L64.3,1.7L40.7,1.7L40.7,3.2L39,3.2L39,2.8L40.3,2.8L40.3,1.3L64.7,1.3L64.7,2.8L65.8,2.8L65.8,1.3L73.7,1.3L73.7,3L73.3,3L73.3,1.7L66.2,1.7L66.2,3.2L64.7,3.2L64.7,4.3L88.3,4.3L88.3,3L88.7,3L88.7,4.7L64.3,4.7L64.3,3.2L60.2,3.2L60.2,4.7L58.7,4.7L58.7,6L58.3,6L58.3,4.3L59.8,4.3L59.8,2.8z" stroke="none"/><path d="M36,12.2L36,11.8L37.5,11.8L37.5,12.2z" stroke="none"/><path d="M96.2,12L95.8,12L95.8,10.3L97.5,10.3L97.5,10.7L96.2,10.7z" stroke="none"/><path d="M66,10.7L66,10.3L69,10.3L69,10.7z" stroke="none"/><path d="M97.3,6L97.7,6L97.7,9.2L96,9.2L96,8.8L97.3,8.8z" stroke="none"/><path d="M72,2.8L72,3.2L67.5,3.2L67.5,2.8z" stroke="none"/><path d="M60,11.8L60,12.2L58.3,12.2L58.3,10.7L55.5,10.7L55.5,10.3L58.7,10.3L58.7,11.8z" stroke="none"/><path d="M9,10.3L9,10.7L2.8,10.7L2.8,9L3.2,9L3.2,10.3z" stroke="none"/><path d="M102,5.8L102,6.2L98.8,6.2L98.8,4.7L95.8,4.7L95.8,3.2L94.5,3.2L94.5,2.8L96.2,2.8L96.2,4.3L99.2,4.3L99.2,5.8z" stroke="none"/><path d="M9,3.2L9,2.8L16.7,2.8L16.7,4.3L18,4.3L18,4.7L16.3,4.7L16.3,3.2z" stroke="none"/><path d="M85.5,10.3L85.5,10.7L73.3,10.7L73.3,9.2L69,9.2L69,8.8L73.7,8.8L73.7,10.3z" stroke="none"/><path d="M99,2.8L99,3.2L97.3,3.2L97.3,1.7L93.2,1.7L93.2,4.7L90.2,4.7L90.2,6.2L82.5,6.2L82.5,5.8L89.8,5.8L89.8,4.3L92.8,4.3L92.8,1.3L97.7,1.3L97.7,2.8z" stroke="none"/><path d="M29.8,9L30.2,9L30.2,10.7L28.7,10.7L28.7,12.2L14.8,12.2L14.8,10.7L11.8,10.7L11.8,7.5L12.2,7.5L12.2,10.3L15.2,10.3L15.2,11.8L28.3,11.8L28.3,10.3L29.8,10.3z" stroke="none"/><path d="M36,4.3L36,4.7L32.8,4.7L32.8,3.2L25.7,3.2L25.7,6.2L18.2,6.2L18.2,7.7L13.7,7.7L13.7,9L13.3,9L13.3,7.3L17.8,7.3L17.8,5.8L25.3,5.8L25.3,2.8L33.2,2.8L33.2,4.3z" stroke="none"/><path d="M93,7.3L93,7.7L90.2,7.7L90.2,9.2L87.2,9.2L87.2,12.2L64.3,12.2L64.3,10.5L64.7,10.5L64.7,11.8L86.8,11.8L86.8,8.8L89.8,8.8L89.8,7.3z" stroke="none"/><path d="M4.5,9.2L4.5,8.8L5.8,8.8L5.8,4.3L7.3,4.3L7.3,1.3L36.2,1.3L36.2,2.8L37.7,2.8L37.7,4.3L39,4.3L39,4.7L37.3,4.7L37.3,3.2L35.8,3.2L35.8,1.7L7.7,1.7L7.7,4.7L6.2,4.7L6.2,9.2z" stroke="none"/><path d="M88.3,12L88.7,12L88.7,13.7L38.8,13.7L38.8,12L39.2,12L39.2,13.3L88.3,13.3z" stroke="none"/></svg>