<svg version="1.1" width="105" height="15" xmlns="http://www.w3.org/2000/svg"><path d="M88.3,8.8L88.3,7.3L96,7.3L96,7.7L88.7,7.7L88.7,8.8L90.2,8.8L90.2,10.3L91.7,10.3L91.7,12L91.3,12L91.3,10.7L89.8,10.7L89.8,9.2L87.2,9.2L87.2,10.7L79.5,10.7L79.5,10.3L86.8,10.3L86.8,8.8z" stroke="none"/><path d="M31.3,5.8L31.3,4.3L37.3,4.3L37.3,2.8L49.7,2.8L49.7,4.5L49.3,4.5L49.3,3.2L37.7,3.2L37.7,4.7L31.7,4.7L31.7,5.8L37.7,5.8L37.7,7.3L42,7.3L42,7.7L37.3,7.7L37.3,6.2L7.7,6.2L7.7,7.7L6,7.7L6,7.3L7.3,7.3L7.3,5.8z" stroke="none"/><path d="M59.8,8.8L59.8,7.3L75.2,7.3L75.2,8.8L77.8,8.8L77.8,7.3L79.5,7.3L79.5,7.7L78.2,7.7L78.2,9.2L74.8,9.2L74.8,7.7L60.2,7.7L60.2,8.8L69,8.8L69,9.2L60.2,9.2L60.2,12L59.8,12L59.8,9.2L31.5,9.2L31.5,8.8z" stroke="none"/><path d="M56.8,4.3L56.8,3.2L51.2,3.2L51.2,6.2L38.8,6.2L38.8,4.5L39.2,4.5L39.2,5.8L50.8,5.8L50.8,2.8L57.2,2.8L57.2,4.3L79.3,4.3L79.3,2.8L82.5,2.8L82.5,3.2L79.7,3.2L79.7,4.7L57.2,4.7L57.2,7.7L55.5,7.7L55.5,7.3L56.8,7.3L56.8,4.7L52.5,4.7L52.5,4.3z" stroke="none"/><path d="M4.5,4.7L4.5,4.3L7.5,4.3L7.5,4.7z" stroke="none"/><path d="M85.7,9L85.3,9L85.3,6L85.7,6z" stroke="none"/><path d="M42,12.2L42,11.8L44.8,11.8L44.8,10.5L45.2,10.5L45.2,12.2z" stroke="none"/><path d="M10.7,12L10.3,12L10.3,7.5L10.7,7.5z" stroke="none"/><path d="M4.5,5.8L4.5,6.2L2.8,6.2L2.8,2.8L9.2,2.8L9.2,4.5L8.8,4.5L8.8,3.2L3.2,3.2L3.2,5.8z" stroke="none"/><path d="M7.5,10.3L7.5,10.7L4.3,10.7L4.3,9.2L2.8,9.2L2.8,7.5L3.2,7.5L3.2,8.8L4.7,8.8L4.7,10.3z" stroke="none"/><path d="M30.2,9L29.8,9L29.8,7.3L36,7.3L36,7.7L30.2,7.7z" stroke="none"/><path d="M16.5,4.3L16.5,4.7L10.3,4.7L10.3,1.7L1.7,1.7L1.7,10.3L3.2,10.3L3.2,11.8L9.2,11.8L9.2,13.3L11.8,13.3L11.8,9L12.2,9L12.2,13.7L8.8,13.7L8.8,12.2L2.8,12.2L2.8,10.7L1.3,10.7L1.3,1.3L10.7,1.3L10.7,4.3z" stroke="none"/><path d="M55.5,10.3L55.5,10.7L49.7,10.7L49.7,12.2L48,12.2L48,11.8L49.3,11.8L49.3,10.3z" stroke="none"/><path d="M100.5,4.3L100.5,4.7L91.5,4.7L91.5,4.3z" stroke="none"/><path d="M34.5,11.8L34.5,12.2L22.3,12.2L22.3,7.5L22.7,7.5L22.7,11.8z" stroke="none"/><path d="M87,11.8L87,12.2L73.3,12.2L73.3,10.7L72,10.7L72,10.3L73.7,10.3L73.7,11.8z" stroke="none"/><path d="M100.7,12L100.3,12L100.3,7.7L97.3,7.7L97.3,6.2L86.8,6.2L86.8,4.7L81.2,4.7L81.2,6.2L76.7,6.2L76.7,7.5L76.3,7.5L76.3,5.8L80.8,5.8L80.8,4.3L87.2,4.3L87.2,5.8L97.7,5.8L97.7,7.3L100.7,7.3z" stroke="none"/><path d="M97.5,10.3L97.5,10.7L94.7,10.7L94.7,12.2L93.2,12.2L93.2,13.7L71.8,13.7L71.8,12L72.2,12L72.2,13.3L92.8,13.3L92.8,11.8L94.3,11.8L94.3,10.3z" stroke="none"/><path d="M67.5,10.3L67.5,10.7L66.2,10.7L66.2,13.7L37.3,13.7L37.3,12.2L35.8,12.2L35.8,10.7L28.3,10.7L28.3,9.2L23.8,9.2L23.8,7.5L24.2,7.5L24.2,8.8L28.7,8.8L28.7,10.3L36.2,10.3L36.2,11.8L37.7,11.8L37.7,13.3L65.8,13.3L65.8,10.3z" stroke="none"/><path d="M36.2,3L35.8,3L35.8,1.3L84.2,1.3L84.2,3L83.8,3L83.8,1.7L36.2,1.7z" stroke="none"/></svg>