<svg version="1.1" width="105" height="15" xmlns="http://www.w3.org/2000/svg"><path d="M55.3,5.8L55.3,3.2L54,3.2L54,2.8L55.7,2.8L55.7,5.8L57.2,5.8L57.2,7.3L64.3,7.3L64.3,5.8L71.8,5.8L71.8,4.3L76.5,4.3L76.5,4.7L72.2,4.7L72.2,6.2L64.7,6.2L64.7,7.7L56.8,7.7L56.8,6.2L39,6.2L39,5.8z" stroke="none"/><path d="M82.3,2.8L82.3,1.3L97.7,1.3L97.7,2.8L99,2.8L99,3.2L97.3,3.2L97.3,1.7L82.7,1.7L82.7,2.8L85.7,2.8L85.7,4.3L87,4.3L87,4.7L85.3,4.7L85.3,3.2L80.8,3.2L80.8,1.7L63.2,1.7L63.2,3L62.8,3L62.8,1.3L81.2,1.3L81.2,2.8z" stroke="none"/><path d="M32.8,5.8L32.8,4.7L28.3,4.7L28.3,3.2L12.2,3.2L12.2,6L11.8,6L11.8,2.8L28.7,2.8L28.7,4.3L33.2,4.3L33.2,5.8L37.7,5.8L37.7,7.3L45.2,7.3L45.2,8.8L49.5,8.8L49.5,9.2L44.8,9.2L44.8,7.7L37.3,7.7L37.3,6.2L33.2,6.2L33.2,7.3L36.2,7.3L36.2,8.8L43.7,8.8L43.7,10.3L50.8,10.3L50.8,9L51.2,9L51.2,10.7L43.3,10.7L43.3,9.2L35.8,9.2L35.8,7.7L32.8,7.7L32.8,6.2L26.8,6.2L26.8,4.5L27.2,4.5L27.2,5.8z" stroke="none"/><path d="M79.3,8.8L79.3,7.7L66.2,7.7L66.2,9.2L63,9.2L63,8.8L65.8,8.8L65.8,7.3L79.7,7.3L79.7,8.8L100.7,8.8L100.7,10.5L100.3,10.5L100.3,9.2L79.7,9.2L79.7,10.3L81.2,10.3L81.2,11.8L85.5,11.8L85.5,12.2L80.8,12.2L80.8,10.7L79.3,10.7L79.3,9.2L72,9.2L72,8.8z" stroke="none"/><path d="M70.5,11.8L70.5,12.2L69,12.2L69,11.8z" stroke="none"/><path d="M9,2.8L9,3.2L6.2,3.2L6.2,4.5L5.8,4.5L5.8,2.8z" stroke="none"/><path d="M97.5,5.8L97.5,6.2L94.7,6.2L94.7,7.7L93,7.7L93,7.3L94.3,7.3L94.3,5.8z" stroke="none"/><path d="M52.7,4.5L52.3,4.5L52.3,1.3L57.2,1.3L57.2,4.3L58.7,4.3L58.7,6L58.3,6L58.3,4.7L56.8,4.7L56.8,1.7L52.7,1.7z" stroke="none"/><path d="M102.2,9L101.8,9L101.8,7.7L100.3,7.7L100.3,6.2L98.8,6.2L98.8,4.7L93.2,4.7L93.2,6L92.8,6L92.8,4.3L99.2,4.3L99.2,5.8L100.7,5.8L100.7,7.3L102.2,7.3z" stroke="none"/><path d="M91.5,12.2L91.5,11.8L101.8,11.8L101.8,10.5L102.2,10.5L102.2,12.2z" stroke="none"/><path d="M7.5,9.2L7.5,8.8L14.8,8.8L14.8,7.3L16.3,7.3L16.3,5.8L18,5.8L18,6.2L16.7,6.2L16.7,7.7L15.2,7.7L15.2,9.2z" stroke="none"/><path d="M88.5,7.3L88.5,7.7L80.8,7.7L80.8,6.2L75,6.2L75,5.8L81.2,5.8L81.2,7.3z" stroke="none"/><path d="M48,7.7L48,7.3L55.7,7.3L55.7,8.8L61.7,8.8L61.7,12L61.3,12L61.3,9.2L55.3,9.2L55.3,7.7z" stroke="none"/><path d="M51,2.8L51,3.2L48.2,3.2L48.2,4.7L36,4.7L36,4.3L47.8,4.3L47.8,2.8z" stroke="none"/><path d="M19.5,7.3L19.5,7.7L18.2,7.7L18.2,10.7L4.7,10.7L4.7,12L4.3,12L4.3,10.3L17.8,10.3L17.8,7.3z" stroke="none"/><path d="M67.5,9.2L67.5,8.8L70.7,8.8L70.7,10.3L78.2,10.3L78.2,11.8L79.7,11.8L79.7,13.3L86.8,13.3L86.8,10.7L85.5,10.7L85.5,10.3L87.2,10.3L87.2,13.7L79.3,13.7L79.3,12.2L77.8,12.2L77.8,10.7L70.3,10.7L70.3,9.2z" stroke="none"/><path d="M60,4.7L60,4.3L65.8,4.3L65.8,2.8L79.5,2.8L79.5,3.2L66.2,3.2L66.2,4.7z" stroke="none"/><path d="M9,6.2L9,5.8L10.3,5.8L10.3,1.3L43.7,1.3L43.7,2.8L46.5,2.8L46.5,3.2L43.3,3.2L43.3,1.7L10.7,1.7L10.7,6.2z" stroke="none"/><path d="M12,12.2L12,11.8L51,11.8L51,12.2z" stroke="none"/><path d="M25.5,7.3L25.5,7.7L20.8,7.7L20.8,4.7L13.7,4.7L13.7,7.7L6.2,7.7L6.2,9.2L3.2,9.2L3.2,13.3L73.3,13.3L73.3,11.8L75,11.8L75,12.2L73.7,12.2L73.7,13.7L2.8,13.7L2.8,8.8L5.8,8.8L5.8,7.3L13.3,7.3L13.3,4.3L21.2,4.3L21.2,7.3z" stroke="none"/></svg>