<svg version="1.1" width="105" height="15" xmlns="http://www.w3.org/2000/svg"><path d="M72.2,1.3L72.2,2.8L76.7,2.8L76.7,4.5L76.3,4.5L76.3,3.2L71.8,3.2L71.8,1.7L61.7,1.7L61.7,4.5L61.3,4.5L61.3,1.7L48.2,1.7L48.2,3L47.8,3L47.8,1.3z" stroke="none"/><path d="M34.3,13.3L34.3,10.7L16.7,10.7L16.7,12.2L15,12.2L15,11.8L16.3,11.8L16.3,10.3L34.7,10.3L34.7,13.3L56.8,13.3L56.8,11.8L58.5,11.8L58.5,12.2L57.2,12.2L57.2,13.7L32.8,13.7L32.8,12.2L31.5,12.2L31.5,11.8L33.2,11.8L33.2,13.3z" stroke="none"/><path d="M65.8,10.3L65.8,9.2L52.7,9.2L52.7,10.7L51.2,10.7L51.2,12.2L49.5,12.2L49.5,11.8L50.8,11.8L50.8,10.3L52.3,10.3L52.3,8.8L66.2,8.8L66.2,10.3L70.5,10.3L70.5,10.7L66.2,10.7L66.2,11.8L75.2,11.8L75.2,13.3L86.8,13.3L86.8,11.8L88.3,11.8L88.3,10.5L88.7,10.5L88.7,12.2L87.2,12.2L87.2,13.7L74.8,13.7L74.8,12.2L65.8,12.2L65.8,10.7L60,10.7L60,10.3z" stroke="none"/><path d="M37.3,5.8L37.3,4.7L21,4.7L21,4.3L37.7,4.3L37.7,5.8L39.2,5.8L39.2,7.3L40.7,7.3L40.7,8.8L42,8.8L42,9.2L40.3,9.2L40.3,7.7L38.8,7.7L38.8,6.2L37.7,6.2L37.7,8.8L39.2,8.8L39.2,10.3L40.7,10.3L40.7,11.8L47.8,11.8L47.8,10.3L49.3,10.3L49.3,8.8L50.8,8.8L50.8,7.3L70.5,7.3L70.5,7.7L51.2,7.7L51.2,9.2L49.7,9.2L49.7,10.7L48.2,10.7L48.2,12.2L40.3,12.2L40.3,10.7L38.8,10.7L38.8,9.2L37.3,9.2L37.3,6.2L21,6.2L21,5.8z" stroke="none"/><path d="M46.7,10.5L46.3,10.5L46.3,9L46.7,9z" stroke="none"/><path d="M102.2,7.5L101.8,7.5L101.8,6L102.2,6z" stroke="none"/><path d="M91.5,8.8L91.5,9.2L87,9.2L87,8.8z" stroke="none"/><path d="M9.2,6L8.8,6L8.8,4.3L11.8,4.3L11.8,2.8L13.5,2.8L13.5,3.2L12.2,3.2L12.2,4.7L9.2,4.7z" stroke="none"/><path d="M102,11.8L102,12.2L100.3,12.2L100.3,9.2L97.5,9.2L97.5,8.8L100.7,8.8L100.7,11.8z" stroke="none"/><path d="M96,5.8L96,6.2L88.5,6.2L88.5,5.8z" stroke="none"/><path d="M19.5,8.8L19.5,9.2L11.8,9.2L11.8,7.5L12.2,7.5L12.2,8.8z" stroke="none"/><path d="M85.3,10.5L85.7,10.5L85.7,12.2L76.5,12.2L76.5,11.8L85.3,11.8z" stroke="none"/><path d="M84.2,10.5L83.8,10.5L83.8,8.8L85.3,8.8L85.3,7.3L93.2,7.3L93.2,8.8L94.7,8.8L94.7,10.5L94.3,10.5L94.3,9.2L92.8,9.2L92.8,7.7L85.7,7.7L85.7,9.2L84.2,9.2z" stroke="none"/><path d="M16.5,7.3L16.5,7.7L13.3,7.7L13.3,6.2L10.7,6.2L10.7,7.7L7.3,7.7L7.3,6.2L5.8,6.2L5.8,4.7L4.5,4.7L4.5,4.3L6.2,4.3L6.2,5.8L7.7,5.8L7.7,7.3L10.3,7.3L10.3,5.8L13.7,5.8L13.7,7.3z" stroke="none"/><path d="M81,4.7L81,4.3L94.3,4.3L94.3,2.8L97.5,2.8L97.5,3.2L94.7,3.2L94.7,4.7z" stroke="none"/><path d="M97.7,7.5L97.3,7.5L97.3,4.3L98.8,4.3L98.8,1.7L82.7,1.7L82.7,3.2L79.7,3.2L79.7,5.8L81,5.8L81,6.2L79.3,6.2L79.3,2.8L82.3,2.8L82.3,1.3L99.2,1.3L99.2,4.7L97.7,4.7z" stroke="none"/><path d="M36.2,10.5L35.8,10.5L35.8,9.2L23.8,9.2L23.8,7.7L19.3,7.7L19.3,6.2L18,6.2L18,5.8L19.7,5.8L19.7,7.3L24.2,7.3L24.2,8.8L36.2,8.8z" stroke="none"/><path d="M19.7,4.5L19.3,4.5L19.3,2.8L40.7,2.8L40.7,5.8L42.2,5.8L42.2,7.3L43.7,7.3L43.7,9L43.3,9L43.3,7.7L41.8,7.7L41.8,6.2L40.3,6.2L40.3,3.2L19.7,3.2z" stroke="none"/><path d="M42,10.7L42,10.3L44.8,10.3L44.8,7.3L47.8,7.3L47.8,5.8L72.2,5.8L72.2,9.2L70.5,9.2L70.5,8.8L71.8,8.8L71.8,6.2L48.2,6.2L48.2,7.7L45.2,7.7L45.2,10.7z" stroke="none"/><path d="M3,3.2L3,2.8L7.3,2.8L7.3,1.3L43.7,1.3L43.7,2.8L46.7,2.8L46.7,4.3L49.5,4.3L49.5,4.7L46.3,4.7L46.3,3.2L43.3,3.2L43.3,1.7L7.7,1.7L7.7,3.2z" stroke="none"/></svg>