<svg version="1.1" width="105" height="15" xmlns="http://www.w3.org/2000/svg"><path d="M49.3,5.8L49.3,4.3L60.2,4.3L60.2,7.3L64.5,7.3L64.5,7.7L59.8,7.7L59.8,4.7L49.7,4.7L49.7,6.2L48.2,6.2L48.2,7.7L36,7.7L36,7.3L47.8,7.3L47.8,6.2L45,6.2L45,5.8z" stroke="none"/><path d="M79.7,8.8L79.7,10.5L79.3,10.5L79.3,9.2L76.7,9.2L76.7,10.3L78.2,10.3L78.2,11.8L87,11.8L87,12.2L77.8,12.2L77.8,10.7L76.3,10.7L76.3,9.2L74.8,9.2L74.8,7.7L66.2,7.7L66.2,9.2L58.3,9.2L58.3,7.5L58.7,7.5L58.7,8.8L65.8,8.8L65.8,7.3L75.2,7.3L75.2,8.8z" stroke="none"/><path d="M16.3,4.3L16.3,3.2L12.2,3.2L12.2,4.7L10.7,4.7L10.7,7.7L4.7,7.7L4.7,9L4.3,9L4.3,7.3L10.3,7.3L10.3,4.3L11.8,4.3L11.8,2.8L16.7,2.8L16.7,4.3L27,4.3L27,4.7L16.7,4.7L16.7,7.5L16.3,7.5L16.3,4.7L15.2,4.7L15.2,9L14.8,9L14.8,4.3z" stroke="none"/><path d="M46.3,2.8L46.3,1.3L69.2,1.3L69.2,2.8L70.5,2.8L70.5,3.2L68.8,3.2L68.8,1.7L46.7,1.7L46.7,2.8L63.2,2.8L63.2,4.3L64.5,4.3L64.5,4.7L62.8,4.7L62.8,3.2L46.7,3.2L46.7,4.7L42.2,4.7L42.2,6.2L27,6.2L27,5.8L41.8,5.8L41.8,4.3L46.3,4.3L46.3,3.2L40.7,3.2L40.7,4.7L29.8,4.7L29.8,3.2L28.5,3.2L28.5,2.8L30.2,2.8L30.2,4.3L40.3,4.3L40.3,2.8z" stroke="none"/><path d="M18.2,12L17.8,12L17.8,10.3L19.5,10.3L19.5,10.7L18.2,10.7z" stroke="none"/><path d="M95.8,6L96.2,6L96.2,7.7L93.2,7.7L93.2,9L92.8,9L92.8,7.3L95.8,7.3z" stroke="none"/><path d="M13.3,4.5L13.7,4.5L13.7,10.3L16.3,10.3L16.3,9L16.7,9L16.7,10.7L13.3,10.7z" stroke="none"/><path d="M3.2,9L2.8,9L2.8,5.8L9,5.8L9,6.2L3.2,6.2z" stroke="none"/><path d="M3,4.3L3,4.7L1.7,4.7L1.7,10.3L7.3,10.3L7.3,8.8L9,8.8L9,9.2L7.7,9.2L7.7,10.7L1.3,10.7L1.3,4.3z" stroke="none"/><path d="M51,6.2L51,5.8L58.5,5.8L58.5,6.2z" stroke="none"/><path d="M25.5,9.2L25.5,8.8L33.2,8.8L33.2,10.3L34.5,10.3L34.5,10.7L32.8,10.7L32.8,9.2z" stroke="none"/><path d="M43.5,8.8L43.5,9.2L37.7,9.2L37.7,12.2L31.3,12.2L31.3,10.5L31.7,10.5L31.7,11.8L37.3,11.8L37.3,8.8z" stroke="none"/><path d="M99,7.3L99,7.7L97.7,7.7L97.7,9.2L96.2,9.2L96.2,10.7L89.8,10.7L89.8,9.2L87,9.2L87,8.8L90.2,8.8L90.2,10.3L95.8,10.3L95.8,8.8L97.3,8.8L97.3,7.3z" stroke="none"/><path d="M79.5,7.7L79.5,7.3L83.8,7.3L83.8,5.8L85.3,5.8L85.3,4.3L92.8,4.3L92.8,3L93.2,3L93.2,4.7L85.7,4.7L85.7,6.2L84.2,6.2L84.2,7.7z" stroke="none"/><path d="M102,7.3L102,7.7L100.3,7.7L100.3,4.7L94.7,4.7L94.7,6.2L87,6.2L87,5.8L94.3,5.8L94.3,4.3L100.7,4.3L100.7,7.3z" stroke="none"/><path d="M88.5,7.3L88.5,7.7L85.7,7.7L85.7,10.3L88.7,10.3L88.7,11.8L98.8,11.8L98.8,10.3L101.8,10.3L101.8,8.8L103.3,8.8L103.3,4.7L101.8,4.7L101.8,3.2L94.3,3.2L94.3,1.7L75.2,1.7L75.2,3.2L72,3.2L72,2.8L74.8,2.8L74.8,1.3L94.7,1.3L94.7,2.8L102.2,2.8L102.2,4.3L103.7,4.3L103.7,9.2L102.2,9.2L102.2,10.7L99.2,10.7L99.2,12.2L88.3,12.2L88.3,10.7L85.3,10.7L85.3,7.3z" stroke="none"/><path d="M87,2.8L87,3.2L78.2,3.2L78.2,4.7L65.8,4.7L65.8,3.2L64.5,3.2L64.5,2.8L66.2,2.8L66.2,4.3L77.8,4.3L77.8,2.8z" stroke="none"/><path d="M73.3,9L73.7,9L73.7,10.3L75.2,10.3L75.2,11.8L76.7,11.8L76.7,13.3L100.3,13.3L100.3,12L100.7,12L100.7,13.7L76.3,13.7L76.3,12.2L74.8,12.2L74.8,10.7L73.3,10.7z" stroke="none"/><path d="M3,3.2L3,2.8L7.3,2.8L7.3,1.3L37.7,1.3L37.7,2.8L39,2.8L39,3.2L37.3,3.2L37.3,1.7L7.7,1.7L7.7,3.2z" stroke="none"/><path d="M9,12.2L9,11.8L16.7,11.8L16.7,13.3L50.8,13.3L50.8,12L51.2,12L51.2,13.7L16.3,13.7L16.3,12.2z" stroke="none"/></svg>