<svg version="1.1" width="105" height="15" xmlns="http://www.w3.org/2000/svg"><path d="M22.3,4.3L25.7,4.3L25.7,5.8L27.2,5.8L27.2,9.2L25.7,9.2L25.7,10.5L25.3,10.5L25.3,8.8L26.8,8.8L26.8,6.2L25.3,6.2L25.3,4.7L22.7,4.7L22.7,5.8L24.2,5.8L24.2,7.3L25.5,7.3L25.5,7.7L23.8,7.7L23.8,6.2L22.7,6.2L22.7,9.2L21,9.2L21,8.8L22.3,8.8z" stroke="none"/><path d="M65.8,4.3L65.8,2.8L69,2.8L69,3.2L66.2,3.2L66.2,4.7L58.7,4.7L58.7,7.7L57,7.7L57,7.3L58.3,7.3L58.3,4.7L47.8,4.7L47.8,3.2L45.2,3.2L45.2,4.5L44.8,4.5L44.8,2.8L48.2,2.8L48.2,4.3z" stroke="none"/><path d="M41.8,8.8L41.8,6L42.2,6L42.2,8.8L45,8.8L45,9.2L42.2,9.2L42.2,10.3L43.7,10.3L43.7,11.8L52.3,11.8L52.3,5.8L55.5,5.8L55.5,6.2L52.7,6.2L52.7,12.2L43.3,12.2L43.3,10.7L41.8,10.7L41.8,9.2L36,9.2L36,8.8z" stroke="none"/><path d="M34.3,2.8L34.3,1.3L49.7,1.3L49.7,3L49.3,3L49.3,1.7L34.7,1.7L34.7,2.8L42.2,2.8L42.2,4.3L43.7,4.3L43.7,5.8L46.3,5.8L46.3,4.5L46.7,4.5L46.7,6.2L43.3,6.2L43.3,4.7L41.8,4.7L41.8,3.2L34.7,3.2L34.7,4.7L31.7,4.7L31.7,7.7L28.7,7.7L28.7,10.7L27.2,10.7L27.2,12.2L22.3,12.2L22.3,10.7L19.3,10.7L19.3,6.2L16.3,6.2L16.3,4.7L15,4.7L15,4.3L16.7,4.3L16.7,5.8L19.7,5.8L19.7,10.3L22.7,10.3L22.7,11.8L26.8,11.8L26.8,10.3L28.3,10.3L28.3,7.3L31.3,7.3L31.3,4.3L34.3,4.3L34.3,3.2L27,3.2L27,2.8z" stroke="none"/><path d="M24.2,10.5L23.8,10.5L23.8,9L24.2,9z" stroke="none"/><path d="M4.5,8.8L4.5,9.2L3,9.2L3,8.8z" stroke="none"/><path d="M94.7,12L94.3,12L94.3,9L94.7,9z" stroke="none"/><path d="M45,10.7L45,10.3L46.3,10.3L46.3,7.3L48,7.3L48,7.7L46.7,7.7L46.7,10.7z" stroke="none"/><path d="M3,12.2L3,11.8L7.3,11.8L7.3,10.5L7.7,10.5L7.7,12.2z" stroke="none"/><path d="M4.5,4.7L4.5,4.3L11.8,4.3L11.8,3L12.2,3L12.2,4.7z" stroke="none"/><path d="M18,7.3L18,7.7L12.2,7.7L12.2,9.2L10.7,9.2L10.7,10.5L10.3,10.5L10.3,8.8L11.8,8.8L11.8,7.3z" stroke="none"/><path d="M70.5,10.7L70.5,10.3L78.2,10.3L78.2,11.8L81,11.8L81,12.2L77.8,12.2L77.8,10.7z" stroke="none"/><path d="M76.5,9.2L76.5,8.8L88.5,8.8L88.5,9.2z" stroke="none"/><path d="M84,3.2L84,2.8L96.2,2.8L96.2,4.3L100.3,4.3L100.3,3L100.7,3L100.7,4.7L95.8,4.7L95.8,3.2z" stroke="none"/><path d="M94.5,4.3L94.5,4.7L75.2,4.7L75.2,6L74.8,6L74.8,4.3z" stroke="none"/><path d="M84,5.8L84,6.2L76.7,6.2L76.7,7.7L72.2,7.7L72.2,9.2L64.5,9.2L64.5,8.8L71.8,8.8L71.8,7.3L76.3,7.3L76.3,5.8z" stroke="none"/><path d="M24,2.8L24,3.2L13.7,3.2L13.7,6.2L7.7,6.2L7.7,7.7L4.5,7.7L4.5,7.3L7.3,7.3L7.3,5.8L13.3,5.8L13.3,2.8z" stroke="none"/><path d="M97.7,3L97.3,3L97.3,1.7L75.2,1.7L75.2,3.2L73.7,3.2L73.7,6.2L70.7,6.2L70.7,7.5L70.3,7.5L70.3,5.8L73.3,5.8L73.3,2.8L74.8,2.8L74.8,1.3L97.7,1.3z" stroke="none"/><path d="M82.5,7.7L82.5,7.3L90.2,7.3L90.2,10.7L87.2,10.7L87.2,12.2L85.7,12.2L85.7,13.7L67.3,13.7L67.3,12.2L55.5,12.2L55.5,11.8L67.7,11.8L67.7,13.3L85.3,13.3L85.3,11.8L86.8,11.8L86.8,10.3L89.8,10.3L89.8,7.7z" stroke="none"/><path d="M25.7,3L25.3,3L25.3,1.7L4.7,1.7L4.7,3.2L3.2,3.2L3.2,7.7L1.7,7.7L1.7,13.3L53.8,13.3L53.8,10.3L58.3,10.3L58.3,8.8L62.8,8.8L62.8,7.3L67.3,7.3L67.3,5.8L68.8,5.8L68.8,4.3L72,4.3L72,4.7L69.2,4.7L69.2,6.2L67.7,6.2L67.7,7.7L63.2,7.7L63.2,9.2L58.7,9.2L58.7,10.7L54.2,10.7L54.2,13.7L1.3,13.7L1.3,7.3L2.8,7.3L2.8,2.8L4.3,2.8L4.3,1.3L25.7,1.3z" stroke="none"/></svg>