<svg version="1.1" width="105" height="15" xmlns="http://www.w3.org/2000/svg"><path d="M94.7,1.3L94.7,3L94.3,3L94.3,1.7L64.7,1.7L64.7,3.2L58.7,3.2L58.7,4.7L47.8,4.7L47.8,3.2L46.5,3.2L46.5,2.8L48.2,2.8L48.2,4.3L58.3,4.3L58.3,2.8L64.3,2.8L64.3,1.7L57.2,1.7L57.2,3.2L55.5,3.2L55.5,2.8L56.8,2.8L56.8,1.3z" stroke="none"/><path d="M77.8,5.8L77.8,4.7L64.5,4.7L64.5,4.3L78.2,4.3L78.2,5.8L85.7,5.8L85.7,7.3L102,7.3L102,7.7L85.3,7.7L85.3,6.2L69.2,6.2L69.2,7.7L67.5,7.7L67.5,7.3L68.8,7.3L68.8,5.8z" stroke="none"/><path d="M28.3,4.3L28.3,3.2L24.2,3.2L24.2,4.7L19.7,4.7L19.7,6.2L16.7,6.2L16.7,9L16.3,9L16.3,5.8L19.3,5.8L19.3,4.3L23.8,4.3L23.8,2.8L28.7,2.8L28.7,4.3L39.2,4.3L39.2,5.8L40.5,5.8L40.5,6.2L38.8,6.2L38.8,4.7L28.7,4.7L28.7,9.2L24,9.2L24,8.8L28.3,8.8L28.3,4.7L25.5,4.7L25.5,4.3z" stroke="none"/><path d="M64.3,11.8L64.3,9.2L63,9.2L63,8.8L64.7,8.8L64.7,11.8L69,11.8L69,12.2L64.7,12.2L64.7,13.3L70.3,13.3L70.3,11.8L73.3,11.8L73.3,10.3L75,10.3L75,10.7L73.7,10.7L73.7,12.2L70.7,12.2L70.7,13.7L64.3,13.7L64.3,12.2L49.5,12.2L49.5,11.8z" stroke="none"/><path d="M49.3,6L49.7,6L49.7,7.5L49.3,7.5z" stroke="none"/><path d="M25.3,6L25.7,6L25.7,7.3L27,7.3L27,7.7L25.3,7.7z" stroke="none"/><path d="M94.5,8.8L94.5,9.2L91.5,9.2L91.5,8.8z" stroke="none"/><path d="M7.7,9L7.3,9L7.3,6.2L6,6.2L6,5.8L7.7,5.8z" stroke="none"/><path d="M60,6.2L60,5.8L63.2,5.8L63.2,7.3L66.2,7.3L66.2,9L65.8,9L65.8,7.7L62.8,7.7L62.8,6.2z" stroke="none"/><path d="M88.5,6.2L88.5,5.8L96,5.8L96,6.2z" stroke="none"/><path d="M48,9.2L48,8.8L58.5,8.8L58.5,9.2z" stroke="none"/><path d="M5.8,9L6.2,9L6.2,10.3L10.3,10.3L10.3,8.8L11.8,8.8L11.8,5.8L13.3,5.8L13.3,4.3L18,4.3L18,4.7L13.7,4.7L13.7,6.2L12.2,6.2L12.2,9.2L10.7,9.2L10.7,10.7L5.8,10.7z" stroke="none"/><path d="M9,7.7L9,7.3L10.3,7.3L10.3,4.3L11.8,4.3L11.8,2.8L22.5,2.8L22.5,3.2L12.2,3.2L12.2,4.7L10.7,4.7L10.7,7.7z" stroke="none"/><path d="M79.5,9.2L79.5,8.8L90.2,8.8L90.2,10.3L98.8,10.3L98.8,8.8L100.5,8.8L100.5,9.2L99.2,9.2L99.2,10.7L89.8,10.7L89.8,9.2z" stroke="none"/><path d="M79.5,12.2L79.5,11.8L100.3,11.8L100.3,10.5L100.7,10.5L100.7,12.2z" stroke="none"/><path d="M16.5,10.7L16.5,10.3L27.2,10.3L27.2,11.8L42,11.8L42,12.2L26.8,12.2L26.8,10.7z" stroke="none"/><path d="M72,9.2L72,8.8L78.2,8.8L78.2,13.3L101.8,13.3L101.8,10.5L102.2,10.5L102.2,13.7L77.8,13.7L77.8,9.2z" stroke="none"/><path d="M43.3,12L43.7,12L43.7,13.7L13.3,13.7L13.3,9L13.7,9L13.7,13.3L43.3,13.3z" stroke="none"/><path d="M61.5,10.3L61.5,10.7L30,10.7L30,10.3z" stroke="none"/><path d="M3,4.7L3,4.3L5.8,4.3L5.8,2.8L10.3,2.8L10.3,1.3L40.7,1.3L40.7,2.8L42.2,2.8L42.2,9.2L40.5,9.2L40.5,8.8L41.8,8.8L41.8,3.2L40.3,3.2L40.3,1.7L10.7,1.7L10.7,3.2L6.2,3.2L6.2,4.7z" stroke="none"/></svg>