<svg version="1.1" width="105" height="15" xmlns="http://www.w3.org/2000/svg"><path d="M82.3,4.3L88.3,4.3L88.3,2.8L91.5,2.8L91.5,3.2L88.7,3.2L88.7,4.7L82.7,4.7L82.7,5.8L85.5,5.8L85.5,6.2L82.7,6.2L82.7,7.7L70.3,7.7L70.3,6L70.7,6L70.7,7.3L82.3,7.3z" stroke="none"/><path d="M31.3,4.3L31.3,2.8L40.7,2.8L40.7,5.8L46.5,5.8L46.5,6.2L40.3,6.2L40.3,3.2L31.7,3.2L31.7,4.3L34.7,4.3L34.7,5.8L36,5.8L36,6.2L34.3,6.2L34.3,4.7L28.7,4.7L28.7,6.2L27.2,6.2L27.2,7.7L20.8,7.7L20.8,6.2L12,6.2L12,5.8L21.2,5.8L21.2,7.3L26.8,7.3L26.8,5.8L28.3,5.8L28.3,4.3z" stroke="none"/><path d="M46.3,10.3L46.3,9.2L30,9.2L30,8.8L46.7,8.8L46.7,10.3L54,10.3L54,10.7L46.7,10.7L46.7,11.8L67.3,11.8L67.3,10.3L69,10.3L69,10.7L67.7,10.7L67.7,12.2L46.3,12.2L46.3,10.7L36.2,10.7L36.2,12.2L34.5,12.2L34.5,11.8L35.8,11.8L35.8,10.3z" stroke="none"/><path d="M53.8,4.3L53.8,2.8L59.8,2.8L59.8,1.3L72.2,1.3L72.2,2.8L76.7,2.8L76.7,4.5L76.3,4.5L76.3,3.2L71.8,3.2L71.8,1.7L60.2,1.7L60.2,3.2L54.2,3.2L54.2,4.3L61.3,4.3L61.3,3L61.7,3L61.7,4.7L54.2,4.7L54.2,6.2L48.2,6.2L48.2,7.7L33,7.7L33,7.3L47.8,7.3L47.8,5.8L53.8,5.8L53.8,4.7L46.3,4.7L46.3,3L46.7,3L46.7,4.3z" stroke="none"/><path d="M25.3,3L25.7,3L25.7,4.7L24,4.7L24,4.3L25.3,4.3z" stroke="none"/><path d="M12,7.3L12,7.7L9,7.7L9,7.3z" stroke="none"/><path d="M85.5,2.8L85.5,3.2L82.5,3.2L82.5,2.8z" stroke="none"/><path d="M13.5,12.2L13.5,11.8L14.8,11.8L14.8,10.3L17.8,10.3L17.8,9L18.2,9L18.2,10.7L15.2,10.7L15.2,12.2z" stroke="none"/><path d="M93,6.2L93,5.8L100.3,5.8L100.3,2.8L102,2.8L102,3.2L100.7,3.2L100.7,6.2z" stroke="none"/><path d="M13.5,4.7L13.5,4.3L22.7,4.3L22.7,5.8L24,5.8L24,6.2L22.3,6.2L22.3,4.7z" stroke="none"/><path d="M16.5,12.2L16.5,11.8L28.3,11.8L28.3,7.5L28.7,7.5L28.7,12.2z" stroke="none"/><path d="M93.2,4.5L92.8,4.5L92.8,1.7L81.2,1.7L81.2,6.2L79.5,6.2L79.5,5.8L80.8,5.8L80.8,1.3L93.2,1.3z" stroke="none"/><path d="M101.8,6L102.2,6L102.2,7.7L87.2,7.7L87.2,9L86.8,9L86.8,7.3L101.8,7.3z" stroke="none"/><path d="M2.8,6L3.2,6L3.2,7.3L4.7,7.3L4.7,8.8L16.3,8.8L16.3,7.3L19.5,7.3L19.5,7.7L16.7,7.7L16.7,9.2L4.3,9.2L4.3,7.7L2.8,7.7z" stroke="none"/><path d="M68.8,3L69.2,3L69.2,4.7L67.7,4.7L67.7,6.2L61.7,6.2L61.7,7.7L51,7.7L51,7.3L61.3,7.3L61.3,5.8L67.3,5.8L67.3,4.3L68.8,4.3z" stroke="none"/><path d="M29.8,10.5L30.2,10.5L30.2,13.7L11.8,13.7L11.8,12.2L10.3,12.2L10.3,10.5L10.7,10.5L10.7,11.8L12.2,11.8L12.2,13.3L29.8,13.3z" stroke="none"/><path d="M102,11.8L102,12.2L85.3,12.2L85.3,9.2L82.5,9.2L82.5,8.8L85.7,8.8L85.7,11.8z" stroke="none"/><path d="M66,7.7L66,7.3L69.2,7.3L69.2,8.8L79.7,8.8L79.7,11.8L84.2,11.8L84.2,13.3L103.3,13.3L103.3,10.7L93,10.7L93,10.3L103.7,10.3L103.7,13.7L83.8,13.7L83.8,12.2L79.3,12.2L79.3,9.2L68.8,9.2L68.8,7.7z" stroke="none"/><path d="M42,12.2L42,11.8L43.7,11.8L43.7,13.3L71.8,13.3L71.8,11.8L76.3,11.8L76.3,10.5L76.7,10.5L76.7,12.2L72.2,12.2L72.2,13.7L43.3,13.7L43.3,12.2z" stroke="none"/><path d="M6,7.7L6,7.3L7.3,7.3L7.3,5.8L10.3,5.8L10.3,4.3L11.8,4.3L11.8,2.8L13.3,2.8L13.3,1.3L42.2,1.3L42.2,2.8L45.2,2.8L45.2,4.5L44.8,4.5L44.8,3.2L41.8,3.2L41.8,1.7L13.7,1.7L13.7,3.2L12.2,3.2L12.2,4.7L10.7,4.7L10.7,6.2L7.7,6.2L7.7,7.7z" stroke="none"/></svg>