<svg version="1.1" width="105" height="15" xmlns="http://www.w3.org/2000/svg"><path d="M77.8,10.3L77.8,9.2L66.2,9.2L66.2,10.7L61.5,10.7L61.5,10.3L65.8,10.3L65.8,8.8L78.2,8.8L78.2,10.3L93,10.3L93,10.7L75,10.7L75,10.3z" stroke="none"/><path d="M42,7.3L42,7.7L37.7,7.7L37.7,8.8L44.8,8.8L44.8,7.3L49.5,7.3L49.5,7.7L45.2,7.7L45.2,9.2L37.3,9.2L37.3,7.7L36.2,7.7L36.2,10.7L31.7,10.7L31.7,12.2L25.3,12.2L25.3,10.7L24,10.7L24,10.3L25.7,10.3L25.7,11.8L31.3,11.8L31.3,10.3L35.8,10.3L35.8,7.3z" stroke="none"/><path d="M50.8,10.3L50.8,7.5L51.2,7.5L51.2,10.3L57.2,10.3L57.2,11.8L69,11.8L69,12.2L56.8,12.2L56.8,10.7L51.2,10.7L51.2,13.7L40.3,13.7L40.3,12L40.7,12L40.7,13.3L50.8,13.3L50.8,10.7L49.7,10.7L49.7,12.2L48,12.2L48,11.8L49.3,11.8L49.3,10.3z" stroke="none"/><path d="M62.8,4.3L62.8,2.8L75,2.8L75,3.2L63.2,3.2L63.2,4.3L70.7,4.3L70.7,5.8L72,5.8L72,6.2L70.3,6.2L70.3,4.7L63.2,4.7L63.2,5.8L66.2,5.8L66.2,7.3L73.3,7.3L73.3,6L73.7,6L73.7,7.7L65.8,7.7L65.8,6.2L62.8,6.2L62.8,4.7L37.7,4.7L37.7,6.2L34.7,6.2L34.7,7.7L31.5,7.7L31.5,7.3L34.3,7.3L34.3,5.8L37.3,5.8L37.3,4.3z" stroke="none"/><path d="M93,7.3L93,7.7L91.5,7.7L91.5,7.3z" stroke="none"/><path d="M57,5.8L57,6.2L54,6.2L54,5.8z" stroke="none"/><path d="M24,11.8L24,12.2L22.3,12.2L22.3,8.8L25.5,8.8L25.5,9.2L22.7,9.2L22.7,11.8z" stroke="none"/><path d="M99,12.2L99,11.8L100.3,11.8L100.3,10.3L102,10.3L102,10.7L100.7,10.7L100.7,12.2z" stroke="none"/><path d="M25.5,4.3L25.5,4.7L22.3,4.7L22.3,3L22.7,3L22.7,4.3z" stroke="none"/><path d="M7.3,6L7.7,6L7.7,10.5L7.3,10.5z" stroke="none"/><path d="M27.2,10.5L26.8,10.5L26.8,7.7L21.2,7.7L21.2,10.5L20.8,10.5L20.8,7.3L27.2,7.3z" stroke="none"/><path d="M17.8,7.5L18.2,7.5L18.2,9.2L13.7,9.2L13.7,12.2L12,12.2L12,11.8L13.3,11.8L13.3,8.8L17.8,8.8z" stroke="none"/><path d="M77.8,4.5L78.2,4.5L78.2,5.8L79.7,5.8L79.7,7.3L87.2,7.3L87.2,9L86.8,9L86.8,7.7L79.3,7.7L79.3,6.2L77.8,6.2z" stroke="none"/><path d="M16.5,12.2L16.5,11.8L17.8,11.8L17.8,10.3L19.3,10.3L19.3,5.8L28.7,5.8L28.7,9L28.3,9L28.3,6.2L19.7,6.2L19.7,10.7L18.2,10.7L18.2,12.2z" stroke="none"/><path d="M90,4.3L90,4.7L79.3,4.7L79.3,3.2L76.5,3.2L76.5,2.8L79.7,2.8L79.7,4.3z" stroke="none"/><path d="M97.5,2.8L97.5,3.2L96.2,3.2L96.2,4.7L93.2,4.7L93.2,6.2L84,6.2L84,5.8L92.8,5.8L92.8,4.3L95.8,4.3L95.8,2.8z" stroke="none"/><path d="M73.3,10.5L73.7,10.5L73.7,11.8L88.5,11.8L88.5,12.2L73.3,12.2z" stroke="none"/><path d="M27,3.2L27,2.8L45,2.8L45,3.2z" stroke="none"/><path d="M64.5,8.8L64.5,9.2L58.3,9.2L58.3,7.7L52.3,7.7L52.3,6.2L43.5,6.2L43.5,5.8L52.7,5.8L52.7,7.3L58.7,7.3L58.7,8.8z" stroke="none"/><path d="M67.5,10.7L67.5,10.3L70.7,10.3L70.7,13.3L97.3,13.3L97.3,10.3L98.8,10.3L98.8,1.7L19.7,1.7L19.7,3.2L16.7,3.2L16.7,7.7L12.2,7.7L12.2,9.2L10.7,9.2L10.7,13.3L35.8,13.3L35.8,11.8L38.8,11.8L38.8,10.3L42.2,10.3L42.2,12L41.8,12L41.8,10.7L39.2,10.7L39.2,12.2L36.2,12.2L36.2,13.7L10.3,13.7L10.3,8.8L11.8,8.8L11.8,7.3L16.3,7.3L16.3,2.8L19.3,2.8L19.3,1.3L99.2,1.3L99.2,10.7L97.7,10.7L97.7,13.7L70.3,13.7L70.3,10.7z" stroke="none"/></svg>