<svg version="1.1" width="105" height="105" xmlns="http://www.w3.org/2000/svg"><path d="M61.7,82.3L61.7,83.8L67.7,83.8L67.7,86.8L73.5,86.8L73.5,87.2L67.3,87.2L67.3,84.2L61.3,84.2L61.3,82.7L48.2,82.7L48.2,84.2L43.7,84.2L43.7,85.7L31.5,85.7L31.5,85.3L43.3,85.3L43.3,83.8L47.8,83.8L47.8,82.7L43.3,82.7L43.3,81L43.7,81L43.7,82.3z" stroke="none"/><path d="M82.3,55.7L76.5,55.7L76.5,55.3L82.7,55.3L82.7,67.3L83.8,67.3L83.8,65.8L89.8,65.8L89.8,64.5L90.2,64.5L90.2,66.2L84.2,66.2L84.2,67.7L82.7,67.7L82.7,68.8L84.2,68.8L84.2,77.8L85.7,77.8L85.7,83.8L87.2,83.8L87.2,85.3L88.7,85.3L88.7,90L88.3,90L88.3,85.7L86.8,85.7L86.8,84.2L85.3,84.2L85.3,78.2L83.8,78.2L83.8,69.2L82.3,69.2z" stroke="none"/><path d="M43.3,30.2L41.8,30.2L41.8,28.7L40.3,28.7L40.3,27.2L37.3,27.2L37.3,13.5L37.7,13.5L37.7,26.8L40.7,26.8L40.7,28.3L42.2,28.3L42.2,29.8L43.7,29.8L43.7,31.3L45.2,31.3L45.2,32.8L46.7,32.8L46.7,37.3L48.2,37.3L48.2,38.8L51.2,38.8L51.2,43.3L52.7,43.3L52.7,44.8L58.7,44.8L58.7,47.8L64.5,47.8L64.5,48.2L58.3,48.2L58.3,45.2L52.3,45.2L52.3,43.7L50.8,43.7L50.8,39.2L47.8,39.2L47.8,37.7L46.3,37.7L46.3,33.2L44.8,33.2L44.8,31.7L43.7,31.7L43.7,34.7L42.2,34.7L42.2,36.2L37.7,36.2L37.7,37.7L36.2,37.7L36.2,40.5L35.8,40.5L35.8,37.3L37.3,37.3L37.3,35.8L41.8,35.8L41.8,34.3L43.3,34.3z" stroke="none"/><path d="M22.3,74.8L22.3,61.3L24,61.3L24,61.7L22.7,61.7L22.7,74.8L33.2,74.8L33.2,76.3L34.7,76.3L34.7,80.8L42.2,80.8L42.2,84L41.8,84L41.8,81.2L34.3,81.2L34.3,76.7L32.8,76.7L32.8,75.2L16.7,75.2L16.7,79.7L6.2,79.7L6.2,84L5.8,84L5.8,79.3L16.3,79.3L16.3,74.8z" stroke="none"/><path d="M25.3,56.8L25.3,55.3L35.8,55.3L35.8,53.8L37.3,53.8L37.3,52.3L38.8,52.3L38.8,49.3L43.3,49.3L43.3,46.3L47.8,46.3L47.8,44.8L51,44.8L51,45.2L48.2,45.2L48.2,46.7L43.7,46.7L43.7,49.7L39.2,49.7L39.2,52.7L37.7,52.7L37.7,54.2L36.2,54.2L36.2,55.7L25.7,55.7L25.7,57.2L24.2,57.2L24.2,60.2L21.2,60.2L21.2,63.2L18.2,63.2L18.2,66.2L15.2,66.2L15.2,67.7L10.7,67.7L10.7,75.2L7.7,75.2L7.7,76.7L6.2,76.7L6.2,78.2L4.7,78.2L4.7,85.3L11.8,85.3L11.8,83.8L14.8,83.8L14.8,82.3L18,82.3L18,82.7L15.2,82.7L15.2,84.2L12.2,84.2L12.2,85.7L4.3,85.7L4.3,77.8L5.8,77.8L5.8,76.3L7.3,76.3L7.3,74.8L10.3,74.8L10.3,67.3L14.8,67.3L14.8,65.8L17.8,65.8L17.8,62.8L20.8,62.8L20.8,59.8L23.8,59.8L23.8,57.2L11.8,57.2L11.8,54.2L10.3,54.2L10.3,49.7L7.5,49.7L7.5,49.3L10.7,49.3L10.7,53.8L12.2,53.8L12.2,56.8z" stroke="none"/><path d="M46.3,26.8L46.3,12.2L36.2,12.2L36.2,16.7L34.7,16.7L34.7,19.7L33.2,19.7L33.2,21.2L31.5,21.2L31.5,20.8L32.8,20.8L32.8,19.3L34.3,19.3L34.3,16.3L35.8,16.3L35.8,11.8L46.7,11.8L46.7,26.8L70.7,26.8L70.7,28.5L70.3,28.5L70.3,27.2L46.7,27.2L46.7,29.8L49.7,29.8L49.7,32.8L51.2,32.8L51.2,35.8L54.2,35.8L54.2,42L53.8,42L53.8,36.2L50.8,36.2L50.8,33.2L49.3,33.2L49.3,30.2L46.3,30.2L46.3,27.2L41.8,27.2L41.8,22.7L40.5,22.7L40.5,22.3L42.2,22.3L42.2,26.8z" stroke="none"/><path d="M86.8,19.3L86.8,17.8L88.3,17.8L88.3,16.3L94.3,16.3L94.3,14.8L98.8,14.8L98.8,11.8L102.2,11.8L102.2,27.2L100.5,27.2L100.5,26.8L101.8,26.8L101.8,12.2L99.2,12.2L99.2,15.2L94.7,15.2L94.7,16.7L88.7,16.7L88.7,18.2L87.2,18.2L87.2,19.3L89.8,19.3L89.8,17.8L100.3,17.8L100.3,13.5L100.7,13.5L100.7,18.2L90.2,18.2L90.2,19.7L87.2,19.7L87.2,21.2L84.2,21.2L84.2,24.2L81,24.2L81,23.8L83.8,23.8L83.8,20.8L86.8,20.8L86.8,19.7L76.7,19.7L76.7,21.2L73.5,21.2L73.5,20.8L76.3,20.8L76.3,19.3z" stroke="none"/><path d="M73.3,52.3L73.3,36.2L71.8,36.2L71.8,34.7L65.8,34.7L65.8,33.2L64.3,33.2L64.3,31.7L59.8,31.7L59.8,30.2L58.5,30.2L58.5,29.8L60.2,29.8L60.2,31.3L64.7,31.3L64.7,32.8L66.2,32.8L66.2,34.3L72.2,34.3L72.2,35.8L73.7,35.8L73.7,52.3L92.8,52.3L92.8,50.8L94.3,50.8L94.3,47.8L100.5,47.8L100.5,48.2L94.7,48.2L94.7,51.2L93.2,51.2L93.2,52.7L73.7,52.7L73.7,56.8L78.2,56.8L78.2,58.3L81.2,58.3L81.2,61.5L80.8,61.5L80.8,58.7L77.8,58.7L77.8,57.2L73.3,57.2L73.3,52.7L72.2,52.7L72.2,75.2L70.7,75.2L70.7,78.2L64.5,78.2L64.5,77.8L70.3,77.8L70.3,74.8L71.8,74.8L71.8,52.3z" stroke="none"/><path d="M20.8,40.3L20.8,28.7L19.3,28.7L19.3,21.2L16.3,21.2L16.3,18.2L13.5,18.2L13.5,17.8L16.7,17.8L16.7,20.8L19.7,20.8L19.7,28.3L21.2,28.3L21.2,40.3L31.7,40.3L31.7,41.8L45,41.8L45,42.2L31.3,42.2L31.3,40.7L21.2,40.7L21.2,41.8L22.7,41.8L22.7,43.3L24.2,43.3L24.2,46.3L25.7,46.3L25.7,54L25.3,54L25.3,46.7L23.8,46.7L23.8,43.7L22.3,43.7L22.3,42.2L20.8,42.2L20.8,40.7L13.7,40.7L13.7,46.7L12.2,46.7L12.2,48.2L6.2,48.2L6.2,52.3L7.7,52.3L7.7,55.5L7.3,55.5L7.3,52.7L5.8,52.7L5.8,47.8L11.8,47.8L11.8,46.3L13.3,46.3L13.3,40.3z" stroke="none"/><path d="M52.3,55.3L52.3,53.8L58.3,53.8L58.3,52.3L61.3,52.3L61.3,50.8L64.3,50.8L64.3,49.3L65.8,49.3L65.8,40.7L64.3,40.7L64.3,39.2L61.3,39.2L61.3,37.7L59.8,37.7L59.8,33L60.2,33L60.2,37.3L61.7,37.3L61.7,38.8L64.7,38.8L64.7,40.3L66.2,40.3L66.2,49.7L64.7,49.7L64.7,51.2L61.7,51.2L61.7,52.7L58.7,52.7L58.7,54.2L52.7,54.2L52.7,55.3L65.8,55.3L65.8,53.8L67.3,53.8L67.3,52.3L70.3,52.3L70.3,50.8L71.8,50.8L71.8,49.5L72.2,49.5L72.2,51.2L70.7,51.2L70.7,52.7L67.7,52.7L67.7,54.2L66.2,54.2L66.2,55.7L52.7,55.7L52.7,72.2L51.2,72.2L51.2,73.7L46.5,73.7L46.5,73.3L50.8,73.3L50.8,71.8L52.3,71.8L52.3,55.7L51.2,55.7L51.2,66.2L45.2,66.2L45.2,69.2L43.7,69.2L43.7,70.7L39.2,70.7L39.2,73.5L38.8,73.5L38.8,70.3L43.3,70.3L43.3,68.8L44.8,68.8L44.8,65.8L50.8,65.8L50.8,55.3z" stroke="none"/><path d="M34.3,3L34.7,3L34.7,4.7L31.7,4.7L31.7,6.2L30,6.2L30,5.8L31.3,5.8L31.3,4.3L34.3,4.3z" stroke="none"/><path d="M67.5,71.8L67.5,72.2L65.8,72.2L65.8,70.7L64.3,70.7L64.3,66L64.7,66L64.7,70.3L66.2,70.3L66.2,71.8z" stroke="none"/><path d="M2.8,19.5L3.2,19.5L3.2,24.2L1.7,24.2L1.7,28.3L3,28.3L3,28.7L1.3,28.7L1.3,23.8L2.8,23.8z" stroke="none"/><path d="M86.8,4.5L87.2,4.5L87.2,9.2L85.7,9.2L85.7,13.7L84.2,13.7L84.2,15L83.8,15L83.8,13.3L85.3,13.3L85.3,8.8L86.8,8.8z" stroke="none"/><path d="M88.5,34.7L88.5,34.3L92.8,34.3L92.8,31.3L94.3,31.3L94.3,29.8L99,29.8L99,30.2L94.7,30.2L94.7,31.7L93.2,31.7L93.2,34.7z" stroke="none"/><path d="M33,23.8L33,24.2L23.8,24.2L23.8,19.7L22.5,19.7L22.5,19.3L24.2,19.3L24.2,23.8z" stroke="none"/><path d="M73.3,4.5L73.7,4.5L73.7,12.2L72.2,12.2L72.2,18L71.8,18L71.8,11.8L73.3,11.8z" stroke="none"/><path d="M3,25.7L3,25.3L4.3,25.3L4.3,20.8L5.8,20.8L5.8,19.3L7.3,19.3L7.3,17.8L8.8,17.8L8.8,14.8L13.5,14.8L13.5,15.2L9.2,15.2L9.2,18.2L7.7,18.2L7.7,19.7L6.2,19.7L6.2,21.2L4.7,21.2L4.7,25.7z" stroke="none"/><path d="M26.8,76.5L27.2,76.5L27.2,84.2L16.7,84.2L16.7,85.7L15,85.7L15,85.3L16.3,85.3L16.3,83.8L26.8,83.8z" stroke="none"/><path d="M81,25.7L81,25.3L92.8,25.3L92.8,23.8L96,23.8L96,24.2L93.2,24.2L93.2,25.7z" stroke="none"/><path d="M15,97.7L15,97.3L17.8,97.3L17.8,95.8L30,95.8L30,96.2L18.2,96.2L18.2,97.7z" stroke="none"/><path d="M55.7,76.5L55.3,76.5L55.3,67.3L56.8,67.3L56.8,61.3L58.3,61.3L58.3,60L58.7,60L58.7,61.7L57.2,61.7L57.2,67.7L55.7,67.7z" stroke="none"/><path d="M64.5,82.7L64.5,82.3L80.8,82.3L80.8,80.8L82.5,80.8L82.5,81.2L81.2,81.2L81.2,82.7z" stroke="none"/><path d="M25.5,94.3L25.5,94.7L10.7,94.7L10.7,96.2L9.2,96.2L9.2,97.7L7.7,97.7L7.7,100.5L7.3,100.5L7.3,97.3L8.8,97.3L8.8,95.8L10.3,95.8L10.3,94.3z" stroke="none"/><path d="M82.3,70.5L82.7,70.5L82.7,78.2L73.7,78.2L73.7,79.7L62.8,79.7L62.8,62.8L64.3,62.8L64.3,61.3L65.8,61.3L65.8,58.3L67.5,58.3L67.5,58.7L66.2,58.7L66.2,61.7L64.7,61.7L64.7,63.2L63.2,63.2L63.2,79.3L73.3,79.3L73.3,77.8L82.3,77.8z" stroke="none"/><path d="M94.5,100.3L94.5,100.7L73.7,100.7L73.7,102L73.3,102L73.3,100.3z" stroke="none"/><path d="M91.7,43.5L91.3,43.5L91.3,40.7L89.8,40.7L89.8,39.2L88.3,39.2L88.3,37.7L86.8,37.7L86.8,33.2L85.3,33.2L85.3,30.2L83.8,30.2L83.8,28.7L77.8,28.7L77.8,27.2L76.5,27.2L76.5,26.8L78.2,26.8L78.2,28.3L84.2,28.3L84.2,29.8L85.7,29.8L85.7,32.8L87.2,32.8L87.2,37.3L88.7,37.3L88.7,38.8L90.2,38.8L90.2,40.3L91.7,40.3z" stroke="none"/><path d="M87,94.3L87,94.7L68.8,94.7L68.8,93.2L67.3,93.2L67.3,91.7L65.8,91.7L65.8,85.5L66.2,85.5L66.2,91.3L67.7,91.3L67.7,92.8L69.2,92.8L69.2,94.3z" stroke="none"/><path d="M2.8,76.5L3.2,76.5L3.2,86.8L18.2,86.8L18.2,91.3L19.7,91.3L19.7,93L19.3,93L19.3,91.7L17.8,91.7L17.8,87.2L2.8,87.2z" stroke="none"/><path d="M91.5,19.7L91.5,19.3L97.7,19.3L97.7,27.2L79.3,27.2L79.3,25.7L76.3,25.7L76.3,24.2L70.3,24.2L70.3,7.3L71.8,7.3L71.8,6L72.2,6L72.2,7.7L70.7,7.7L70.7,23.8L76.7,23.8L76.7,25.3L79.7,25.3L79.7,26.8L97.3,26.8L97.3,19.7z" stroke="none"/><path d="M45,97.3L45,97.7L21,97.7L21,97.3z" stroke="none"/><path d="M33,32.8L33,33.2L29.8,33.2L29.8,30.2L28.3,30.2L28.3,28.7L25.3,28.7L25.3,25.7L22.3,25.7L22.3,21.2L20.8,21.2L20.8,11.8L23.8,11.8L23.8,10.5L24.2,10.5L24.2,12.2L21.2,12.2L21.2,20.8L22.7,20.8L22.7,25.3L25.7,25.3L25.7,28.3L28.7,28.3L28.7,29.8L30.2,29.8L30.2,32.8z" stroke="none"/><path d="M8.8,91.5L9.2,91.5L9.2,94.7L7.7,94.7L7.7,96.2L6.2,96.2L6.2,101.8L20.8,101.8L20.8,100.3L31.5,100.3L31.5,100.7L21.2,100.7L21.2,102.2L5.8,102.2L5.8,95.8L7.3,95.8L7.3,94.3L8.8,94.3z" stroke="none"/><path d="M33,22.3L33,22.7L29.8,22.7L29.8,14.8L32.8,14.8L32.8,11.8L34.3,11.8L34.3,10.3L48.2,10.3L48.2,11.8L54.2,11.8L54.2,19.3L57.2,19.3L57.2,23.8L58.5,23.8L58.5,24.2L56.8,24.2L56.8,19.7L53.8,19.7L53.8,12.2L47.8,12.2L47.8,10.7L34.7,10.7L34.7,12.2L33.2,12.2L33.2,15.2L30.2,15.2L30.2,22.3z" stroke="none"/><path d="M64.5,59.8L64.5,60.2L59.8,60.2L59.8,58.7L57.2,58.7L57.2,60.2L55.7,60.2L55.7,61.7L54.2,61.7L54.2,75.2L37.3,75.2L37.3,55.3L40.3,55.3L40.3,51L40.7,51L40.7,55.7L37.7,55.7L37.7,74.8L53.8,74.8L53.8,61.3L55.3,61.3L55.3,59.8L56.8,59.8L56.8,58.3L60.2,58.3L60.2,59.8z" stroke="none"/><path d="M69,84.2L69,83.8L76.7,83.8L76.7,85.3L79.7,85.3L79.7,91.3L89.8,91.3L89.8,67.3L91.3,67.3L91.3,63.2L88.7,63.2L88.7,64.5L88.3,64.5L88.3,62.8L91.7,62.8L91.7,67.7L90.2,67.7L90.2,91.7L79.3,91.7L79.3,85.7L76.3,85.7L76.3,84.2z" stroke="none"/><path d="M94.3,69L94.7,69L94.7,99L94.3,99z" stroke="none"/><path d="M49.5,91.3L49.5,91.7L25.3,91.7L25.3,88.7L19.5,88.7L19.5,88.3L25.7,88.3L25.7,91.3z" stroke="none"/><path d="M7.7,61.5L7.3,61.5L7.3,58.7L5.8,58.7L5.8,54.2L4.3,54.2L4.3,31.5L4.7,31.5L4.7,53.8L6.2,53.8L6.2,58.3L7.7,58.3z" stroke="none"/><path d="M90,94.3L90,94.7L88.7,94.7L88.7,96.2L58.5,96.2L58.5,95.8L88.3,95.8L88.3,94.3z" stroke="none"/><path d="M91.7,10.5L91.3,10.5L91.3,6.2L88.3,6.2L88.3,3.2L72.2,3.2L72.2,4.7L70.7,4.7L70.7,6.2L69.2,6.2L69.2,25.3L72.2,25.3L72.2,29.8L75.2,29.8L75.2,32.8L76.7,32.8L76.7,35.8L78.2,35.8L78.2,39L77.8,39L77.8,36.2L76.3,36.2L76.3,33.2L74.8,33.2L74.8,30.2L71.8,30.2L71.8,25.7L68.8,25.7L68.8,5.8L70.3,5.8L70.3,4.3L71.8,4.3L71.8,2.8L88.7,2.8L88.7,5.8L91.7,5.8z" stroke="none"/><path d="M81,88.7L81,88.3L83.8,88.3L83.8,79.7L76.7,79.7L76.7,81.2L46.3,81.2L46.3,79.7L42,79.7L42,79.3L46.7,79.3L46.7,80.8L76.3,80.8L76.3,79.3L84.2,79.3L84.2,88.7z" stroke="none"/><path d="M63,89.8L63,90.2L31.3,90.2L31.3,88.7L29.8,88.7L29.8,87.2L22.5,87.2L22.5,86.8L30.2,86.8L30.2,88.3L31.7,88.3L31.7,89.8z" stroke="none"/><path d="M100.7,73.5L100.3,73.5L100.3,49.3L101.8,49.3L101.8,30L102.2,30L102.2,49.7L100.7,49.7z" stroke="none"/><path d="M97.3,82.5L97.7,82.5L97.7,99.2L96.2,99.2L96.2,102.2L82.7,102.2L82.7,103.7L58.3,103.7L58.3,102.2L56.8,102.2L56.8,92.8L61.3,92.8L61.3,91.3L64.3,91.3L64.3,88.7L52.5,88.7L52.5,88.3L64.7,88.3L64.7,91.7L61.7,91.7L61.7,93.2L57.2,93.2L57.2,101.8L58.7,101.8L58.7,103.3L82.3,103.3L82.3,101.8L95.8,101.8L95.8,98.8L97.3,98.8z" stroke="none"/><path d="M16.5,16.7L16.5,16.3L19.3,16.3L19.3,10.3L20.8,10.3L20.8,8.8L61.3,8.8L61.3,4.5L61.7,4.5L61.7,9.2L21.2,9.2L21.2,10.7L19.7,10.7L19.7,16.7z" stroke="none"/><path d="M97.3,58.5L97.7,58.5L97.7,74.8L101.8,74.8L101.8,50.8L103.3,50.8L103.3,10.7L94.7,10.7L94.7,13.7L87.2,13.7L87.2,15.2L85.7,15.2L85.7,16.7L73.7,16.7L73.7,19.7L72,19.7L72,19.3L73.3,19.3L73.3,16.3L85.3,16.3L85.3,14.8L86.8,14.8L86.8,13.3L94.3,13.3L94.3,10.3L103.7,10.3L103.7,51.2L102.2,51.2L102.2,75.2L97.3,75.2z" stroke="none"/><path d="M96.2,9L95.8,9L95.8,4.7L92.8,4.7L92.8,1.7L70.7,1.7L70.7,3.2L67.7,3.2L67.7,15.2L64.7,15.2L64.7,18.2L63.2,18.2L63.2,21.2L60.2,21.2L60.2,25.7L52.3,25.7L52.3,22.7L50.8,22.7L50.8,21.2L49.5,21.2L49.5,20.8L51.2,20.8L51.2,22.3L52.7,22.3L52.7,25.3L59.8,25.3L59.8,20.8L62.8,20.8L62.8,17.8L64.3,17.8L64.3,14.8L67.3,14.8L67.3,2.8L70.3,2.8L70.3,1.3L93.2,1.3L93.2,4.3L96.2,4.3z" stroke="none"/><path d="M16.3,4.5L16.7,4.5L16.7,15.2L15.2,15.2L15.2,16.7L12.2,16.7L12.2,19.7L10.7,19.7L10.7,21.2L9.2,21.2L9.2,22.7L7.7,22.7L7.7,24.2L6.2,24.2L6.2,27.2L4.7,27.2L4.7,30.2L3.2,30.2L3.2,51L2.8,51L2.8,29.8L4.3,29.8L4.3,26.8L5.8,26.8L5.8,23.8L7.3,23.8L7.3,22.3L8.8,22.3L8.8,20.8L10.3,20.8L10.3,19.3L11.8,19.3L11.8,16.3L14.8,16.3L14.8,14.8L16.3,14.8z" stroke="none"/><path d="M91.3,54L91.7,54L91.7,61.3L93.2,61.3L93.2,96.2L91.7,96.2L91.7,97.7L67.7,97.7L67.7,100.7L66,100.7L66,100.3L67.3,100.3L67.3,97.3L91.3,97.3L91.3,95.8L92.8,95.8L92.8,61.7L91.3,61.7z" stroke="none"/></svg>