<svg version="1.1" width="105" height="105" xmlns="http://www.w3.org/2000/svg"><path d="M23.8,68.8L23.8,58.3L26.8,58.3L26.8,55.3L28.3,55.3L28.3,50.8L29.8,50.8L29.8,49.5L30.2,49.5L30.2,51.2L28.7,51.2L28.7,55.7L27.2,55.7L27.2,58.7L24.2,58.7L24.2,69.2L16.7,69.2L16.7,76.5L16.3,76.5L16.3,69.2L10.7,69.2L10.7,70.7L9.2,70.7L9.2,72.2L7.7,72.2L7.7,73.7L6.2,73.7L6.2,76.7L4.7,76.7L4.7,79.7L3.2,79.7L3.2,82.5L2.8,82.5L2.8,79.3L4.3,79.3L4.3,76.3L5.8,76.3L5.8,73.3L7.3,73.3L7.3,71.8L8.8,71.8L8.8,70.3L10.3,70.3L10.3,68.8z" stroke="none"/><path d="M47.8,43.3L47.8,40.3L50.8,40.3L50.8,37.3L52.5,37.3L52.5,37.7L51.2,37.7L51.2,40.7L48.2,40.7L48.2,44.8L49.7,44.8L49.7,67.3L52.7,67.3L52.7,70.5L52.3,70.5L52.3,67.7L49.3,67.7L49.3,45.2L47.8,45.2L47.8,43.7L46.3,43.7L46.3,37.7L44.8,37.7L44.8,36.2L43.3,36.2L43.3,30.2L41.8,30.2L41.8,25.7L40.5,25.7L40.5,25.3L42.2,25.3L42.2,29.8L43.7,29.8L43.7,35.8L45.2,35.8L45.2,37.3L46.7,37.3L46.7,43.3z" stroke="none"/><path d="M73.3,23.8L73.3,8.8L76.3,8.8L76.3,5.8L79.3,5.8L79.3,4.5L79.7,4.5L79.7,6.2L76.7,6.2L76.7,9.2L73.7,9.2L73.7,33L73.3,33L73.3,24.2L72.2,24.2L72.2,36.2L69.2,36.2L69.2,37.5L68.8,37.5L68.8,35.8L71.8,35.8L71.8,23.8z" stroke="none"/><path d="M38.8,16.7L37.3,16.7L37.3,15.2L34.3,15.2L34.3,13.7L28.5,13.7L28.5,13.3L34.7,13.3L34.7,14.8L37.7,14.8L37.7,16.3L39.2,16.3L39.2,19.3L41.8,19.3L41.8,17.8L49.3,17.8L49.3,14.8L52.3,14.8L52.3,13.3L55.3,13.3L55.3,11.8L58.3,11.8L58.3,10.3L61.3,10.3L61.3,8.8L64.3,8.8L64.3,7.5L64.7,7.5L64.7,9.2L61.7,9.2L61.7,10.7L58.7,10.7L58.7,12.2L55.7,12.2L55.7,13.7L52.7,13.7L52.7,15.2L49.7,15.2L49.7,18.2L42.2,18.2L42.2,19.7L39.2,19.7L39.2,25.7L37.7,25.7L37.7,30.2L34.7,30.2L34.7,31.7L31.7,31.7L31.7,33.2L30.2,33.2L30.2,37.7L25.5,37.7L25.5,37.3L29.8,37.3L29.8,32.8L31.3,32.8L31.3,31.3L34.3,31.3L34.3,29.8L37.3,29.8L37.3,25.3L38.8,25.3z" stroke="none"/><path d="M91.3,68.8L91.3,62.8L92.8,62.8L92.8,61.3L94.3,61.3L94.3,56.8L97.3,56.8L97.3,55.3L98.8,55.3L98.8,52.5L99.2,52.5L99.2,55.7L97.7,55.7L97.7,57.2L94.7,57.2L94.7,61.7L93.2,61.7L93.2,63.2L91.7,63.2L91.7,82.3L93.2,82.3L93.2,83.8L100.7,83.8L100.7,85.3L102,85.3L102,85.7L100.3,85.7L100.3,84.2L92.8,84.2L92.8,82.7L91.3,82.7L91.3,69.2L81.2,69.2L81.2,70.7L79.7,70.7L79.7,72.2L76.5,72.2L76.5,71.8L79.3,71.8L79.3,70.3L80.8,70.3L80.8,68.8z" stroke="none"/><path d="M32.8,23.8L32.8,19.7L31.3,19.7L31.3,18.2L28.3,18.2L28.3,15.2L26.8,15.2L26.8,9.2L23.8,9.2L23.8,7.7L22.5,7.7L22.5,7.3L24.2,7.3L24.2,8.8L27.2,8.8L27.2,14.8L28.7,14.8L28.7,17.8L31.7,17.8L31.7,19.3L33.2,19.3L33.2,23.8L34.7,23.8L34.7,27.2L31.7,27.2L31.7,30.2L30.2,30.2L30.2,31.7L27.2,31.7L27.2,34.7L25.7,34.7L25.7,36.2L24.2,36.2L24.2,38.8L45.2,38.8L45.2,40.5L44.8,40.5L44.8,39.2L23.8,39.2L23.8,35.8L25.3,35.8L25.3,34.3L26.8,34.3L26.8,31.3L29.8,31.3L29.8,29.8L31.3,29.8L31.3,26.8L34.3,26.8L34.3,24.2L33.2,24.2L33.2,25.7L24.2,25.7L24.2,27.2L22.5,27.2L22.5,26.8L23.8,26.8L23.8,25.3L32.8,25.3L32.8,24.2L30,24.2L30,23.8z" stroke="none"/><path d="M20.8,31.3L20.8,20.8L22.3,20.8L22.3,19.3L27,19.3L27,19.7L22.7,19.7L22.7,21.2L21.2,21.2L21.2,31.3L22.7,31.3L22.7,40.3L31.7,40.3L31.7,41.8L33.2,41.8L33.2,43.3L34.7,43.3L34.7,46.3L37.7,46.3L37.7,47.8L39,47.8L39,48.2L37.3,48.2L37.3,46.7L34.3,46.7L34.3,43.7L32.8,43.7L32.8,42.2L31.3,42.2L31.3,40.7L22.3,40.7L22.3,31.7L21.2,31.7L21.2,33.2L5.8,33.2L5.8,30.2L4.5,30.2L4.5,29.8L6.2,29.8L6.2,32.8L20.8,32.8L20.8,31.7L19.3,31.7L19.3,30.2L17.8,30.2L17.8,28.7L13.5,28.7L13.5,28.3L18.2,28.3L18.2,29.8L19.7,29.8L19.7,31.3z" stroke="none"/><path d="M14.8,35.8L14.8,34.7L2.8,34.7L2.8,22.3L7.3,22.3L7.3,16.3L9,16.3L9,16.7L7.7,16.7L7.7,22.7L3.2,22.7L3.2,34.3L15.2,34.3L15.2,35.8L16.7,35.8L16.7,40.3L21.2,40.3L21.2,41.8L24.2,41.8L24.2,49.5L23.8,49.5L23.8,42.2L20.8,42.2L20.8,40.7L16.3,40.7L16.3,36.2L15.2,36.2L15.2,41.8L19.7,41.8L19.7,43.3L22.5,43.3L22.5,43.7L19.3,43.7L19.3,42.2L14.8,42.2L14.8,36.2L6,36.2L6,35.8z" stroke="none"/><path d="M62.8,82.3L62.8,79.7L59.8,79.7L59.8,70.3L61.3,70.3L61.3,64.3L64.3,64.3L64.3,61.3L69,61.3L69,61.7L64.7,61.7L64.7,64.7L61.7,64.7L61.7,70.7L60.2,70.7L60.2,79.3L63.2,79.3L63.2,82.3L76.7,82.3L76.7,83.8L79.7,83.8L79.7,87L79.3,87L79.3,84.2L76.3,84.2L76.3,82.7L63.2,82.7L63.2,91.7L61.7,91.7L61.7,93L61.3,93L61.3,91.3L62.8,91.3L62.8,82.7L54.2,82.7L54.2,84.2L49.7,84.2L49.7,85.7L48.2,85.7L48.2,87.2L46.7,87.2L46.7,88.7L45.2,88.7L45.2,90L44.8,90L44.8,88.3L46.3,88.3L46.3,86.8L47.8,86.8L47.8,85.3L49.3,85.3L49.3,83.8L53.8,83.8L53.8,82.3z" stroke="none"/><path d="M79.3,77.8L79.3,76.7L74.8,76.7L74.8,59.8L76.3,59.8L76.3,55.3L77.8,55.3L77.8,50.8L94.3,50.8L94.3,49.3L95.8,49.3L95.8,48L96.2,48L96.2,49.7L94.7,49.7L94.7,51.2L78.2,51.2L78.2,55.7L76.7,55.7L76.7,60.2L75.2,60.2L75.2,76.3L79.7,76.3L79.7,77.8L84.2,77.8L84.2,82.3L85.7,82.3L85.7,83.8L87.2,83.8L87.2,86.8L88.7,86.8L88.7,88.3L93.2,88.3L93.2,89.8L99.2,89.8L99.2,91.3L100.5,91.3L100.5,91.7L98.8,91.7L98.8,90.2L92.8,90.2L92.8,88.7L88.3,88.7L88.3,87.2L86.8,87.2L86.8,84.2L85.3,84.2L85.3,82.7L83.8,82.7L83.8,78.2L79.7,78.2L79.7,82.3L81.2,82.3L81.2,88.7L67.7,88.7L67.7,94.7L64.5,94.7L64.5,94.3L67.3,94.3L67.3,88.3L80.8,88.3L80.8,82.7L79.3,82.7L79.3,78.2L61.5,78.2L61.5,77.8z" stroke="none"/><path d="M13.7,96L13.3,96L13.3,94.3L15,94.3L15,94.7L13.7,94.7z" stroke="none"/><path d="M99,14.8L99,15.2L96,15.2L96,14.8z" stroke="none"/><path d="M60,43.7L60,43.3L63,43.3L63,43.7z" stroke="none"/><path d="M92.8,22.5L93.2,22.5L93.2,24.2L91.7,24.2L91.7,25.7L90.2,25.7L90.2,27L89.8,27L89.8,25.3L91.3,25.3L91.3,23.8L92.8,23.8z" stroke="none"/><path d="M97.5,28.3L97.5,28.7L93.2,28.7L93.2,30.2L91.5,30.2L91.5,29.8L92.8,29.8L92.8,28.3z" stroke="none"/><path d="M30,9.2L30,8.8L33.2,8.8L33.2,10.3L36.2,10.3L36.2,12L35.8,12L35.8,10.7L32.8,10.7L32.8,9.2z" stroke="none"/><path d="M75.2,46.5L74.8,46.5L74.8,43.7L73.3,43.7L73.3,40.7L70.3,40.7L70.3,39L70.7,39L70.7,40.3L73.7,40.3L73.7,43.3L75.2,43.3z" stroke="none"/><path d="M10.7,99L10.3,99L10.3,94.7L8.8,94.7L8.8,93.2L5.8,93.2L5.8,91.7L4.5,91.7L4.5,91.3L6.2,91.3L6.2,92.8L9.2,92.8L9.2,94.3L10.7,94.3z" stroke="none"/><path d="M48,92.8L48,93.2L38.8,93.2L38.8,88.5L39.2,88.5L39.2,92.8z" stroke="none"/><path d="M92.8,15L93.2,15L93.2,20.8L94.7,20.8L94.7,27.2L91.7,27.2L91.7,28.5L91.3,28.5L91.3,26.8L94.3,26.8L94.3,21.2L92.8,21.2z" stroke="none"/><path d="M54,6.2L54,5.8L67.7,5.8L67.7,7.5L67.3,7.5L67.3,6.2z" stroke="none"/><path d="M47.8,46.5L48.2,46.5L48.2,68.8L51.2,68.8L51.2,71.8L53.8,71.8L53.8,59.8L55.3,59.8L55.3,58.3L56.8,58.3L56.8,57L57.2,57L57.2,58.7L55.7,58.7L55.7,60.2L54.2,60.2L54.2,72.2L50.8,72.2L50.8,69.2L47.8,69.2z" stroke="none"/><path d="M12.2,61.5L11.8,61.5L11.8,48.2L6,48.2L6,47.8L12.2,47.8z" stroke="none"/><path d="M76.7,13.5L76.3,13.5L76.3,10.3L77.8,10.3L77.8,7.3L80.8,7.3L80.8,5.8L82.3,5.8L82.3,4.3L88.5,4.3L88.5,4.7L82.7,4.7L82.7,6.2L81.2,6.2L81.2,7.7L78.2,7.7L78.2,10.7L76.7,10.7z" stroke="none"/><path d="M90,15.2L90,14.8L91.3,14.8L91.3,13.3L94.7,13.3L94.7,16.3L96.2,16.3L96.2,22.3L100.7,22.3L100.7,23.8L102,23.8L102,24.2L100.3,24.2L100.3,22.7L95.8,22.7L95.8,16.7L94.3,16.7L94.3,13.7L91.7,13.7L91.7,15.2z" stroke="none"/><path d="M12,12.2L12,11.8L20.8,11.8L20.8,5.8L25.7,5.8L25.7,7.3L28.7,7.3L28.7,12L28.3,12L28.3,7.7L25.3,7.7L25.3,6.2L21.2,6.2L21.2,12.2z" stroke="none"/><path d="M10.5,67.3L10.5,67.7L6.2,67.7L6.2,70.7L3.2,70.7L3.2,76.7L1.7,76.7L1.7,83.8L17.8,83.8L17.8,80.8L22.5,80.8L22.5,81.2L18.2,81.2L18.2,84.2L1.3,84.2L1.3,76.3L2.8,76.3L2.8,70.3L5.8,70.3L5.8,67.3z" stroke="none"/><path d="M5.8,96L6.2,96L6.2,98.8L7.7,98.8L7.7,100.3L18.2,100.3L18.2,101.8L25.5,101.8L25.5,102.2L17.8,102.2L17.8,100.7L7.3,100.7L7.3,99.2L5.8,99.2z" stroke="none"/><path d="M54,101.8L54,102.2L44.8,102.2L44.8,100.7L38.8,100.7L38.8,99.2L34.3,99.2L34.3,97.7L33,97.7L33,97.3L34.7,97.3L34.7,98.8L39.2,98.8L39.2,100.3L45.2,100.3L45.2,101.8z" stroke="none"/><path d="M85.3,27L85.7,27L85.7,34.3L87.2,34.3L87.2,37.3L88.7,37.3L88.7,38.8L94.7,38.8L94.7,43.3L96.2,43.3L96.2,44.8L97.5,44.8L97.5,45.2L95.8,45.2L95.8,43.7L94.3,43.7L94.3,39.2L88.3,39.2L88.3,37.7L86.8,37.7L86.8,34.7L85.3,34.7z" stroke="none"/><path d="M81,94.7L81,94.3L101.8,94.3L101.8,88.7L95.8,88.7L95.8,87.2L92.8,87.2L92.8,85.7L89.8,85.7L89.8,76.7L86.8,76.7L86.8,73.5L87.2,73.5L87.2,76.3L90.2,76.3L90.2,85.3L93.2,85.3L93.2,86.8L96.2,86.8L96.2,88.3L102.2,88.3L102.2,94.7z" stroke="none"/><path d="M28.7,84L28.3,84L28.3,58.3L29.8,58.3L29.8,52.3L31.3,52.3L31.3,48.2L27.2,48.2L27.2,52.7L25.7,52.7L25.7,54.2L24.2,54.2L24.2,55.7L22.7,55.7L22.7,61.5L22.3,61.5L22.3,55.3L23.8,55.3L23.8,53.8L25.3,53.8L25.3,52.3L26.8,52.3L26.8,47.8L31.7,47.8L31.7,52.7L30.2,52.7L30.2,58.7L28.7,58.7z" stroke="none"/><path d="M34.5,42.2L34.5,41.8L36.2,41.8L36.2,43.3L37.7,43.3L37.7,44.8L39.2,44.8L39.2,46.3L40.7,46.3L40.7,55.3L42.2,55.3L42.2,56.8L43.7,56.8L43.7,58.3L45.2,58.3L45.2,63L44.8,63L44.8,58.7L43.3,58.7L43.3,57.2L41.8,57.2L41.8,55.7L40.3,55.7L40.3,46.7L38.8,46.7L38.8,45.2L37.3,45.2L37.3,43.7L35.8,43.7L35.8,42.2z" stroke="none"/><path d="M45.2,73.5L44.8,73.5L44.8,69.2L43.3,69.2L43.3,63.2L40.3,63.2L40.3,57.2L38.8,57.2L38.8,54.2L37.3,54.2L37.3,52.7L34.5,52.7L34.5,52.3L37.7,52.3L37.7,53.8L39.2,53.8L39.2,56.8L40.7,56.8L40.7,62.8L43.7,62.8L43.7,68.8L45.2,68.8z" stroke="none"/><path d="M69.2,58.5L68.8,58.5L68.8,39.2L67.3,39.2L67.3,34.5L67.7,34.5L67.7,38.8L69.2,38.8z" stroke="none"/><path d="M25.3,75L25.7,75L25.7,83.8L27.2,83.8L27.2,85.3L39.2,85.3L39.2,86.8L40.7,86.8L40.7,88.3L43.7,88.3L43.7,91.3L46.3,91.3L46.3,89.8L49.3,89.8L49.3,88.3L50.8,88.3L50.8,87L51.2,87L51.2,88.7L49.7,88.7L49.7,90.2L46.7,90.2L46.7,91.7L43.3,91.7L43.3,88.7L40.3,88.7L40.3,87.2L38.8,87.2L38.8,85.7L26.8,85.7L26.8,84.2L25.3,84.2z" stroke="none"/><path d="M40.5,7.3L40.5,7.7L29.8,7.7L29.8,6.2L26.8,6.2L26.8,4.7L14.8,4.7L14.8,3.2L12,3.2L12,2.8L15.2,2.8L15.2,4.3L27.2,4.3L27.2,5.8L30.2,5.8L30.2,7.3z" stroke="none"/><path d="M96,27.2L96,26.8L99.2,26.8L99.2,49.3L100.7,49.3L100.7,52.3L102.2,52.3L102.2,55.5L101.8,55.5L101.8,52.7L100.3,52.7L100.3,49.7L98.8,49.7L98.8,27.2z" stroke="none"/><path d="M96,31.3L96,31.7L89.8,31.7L89.8,28.7L88.3,28.7L88.3,25.7L84.2,25.7L84.2,37.3L85.7,37.3L85.7,38.8L87.2,38.8L87.2,40.3L88.7,40.3L88.7,41.8L90.2,41.8L90.2,44.8L94.7,44.8L94.7,46.3L97.7,46.3L97.7,54.2L94.7,54.2L94.7,55.7L93.2,55.7L93.2,57.2L91.7,57.2L91.7,61.7L90,61.7L90,61.3L91.3,61.3L91.3,56.8L92.8,56.8L92.8,55.3L94.3,55.3L94.3,53.8L97.3,53.8L97.3,46.7L94.3,46.7L94.3,45.2L89.8,45.2L89.8,42.2L88.3,42.2L88.3,40.7L86.8,40.7L86.8,39.2L85.3,39.2L85.3,37.7L83.8,37.7L83.8,25.3L88.7,25.3L88.7,28.3L90.2,28.3L90.2,31.3z" stroke="none"/><path d="M79.5,9.2L79.5,8.8L88.3,8.8L88.3,5.8L89.8,5.8L89.8,3.2L49.7,3.2L49.7,6.2L48,6.2L48,5.8L49.3,5.8L49.3,2.8L90.2,2.8L90.2,6.2L88.7,6.2L88.7,9.2z" stroke="none"/><path d="M67.5,101.8L67.5,102.2L56.8,102.2L56.8,100.7L47.8,100.7L47.8,99.2L40.3,99.2L40.3,97.7L38.8,97.7L38.8,96.2L31.5,96.2L31.5,95.8L39.2,95.8L39.2,97.3L40.7,97.3L40.7,98.8L48.2,98.8L48.2,100.3L57.2,100.3L57.2,101.8z" stroke="none"/><path d="M52.3,19.5L52.7,19.5L52.7,34.3L54.2,34.3L54.2,47.8L57.2,47.8L57.2,55.3L60,55.3L60,55.7L56.8,55.7L56.8,48.2L53.8,48.2L53.8,34.7L52.3,34.7z" stroke="none"/><path d="M25.5,96.2L25.5,95.8L29.8,95.8L29.8,94.3L62.8,94.3L62.8,92.8L64.3,92.8L64.3,90L64.7,90L64.7,93.2L63.2,93.2L63.2,94.7L30.2,94.7L30.2,96.2z" stroke="none"/><path d="M88.5,49.3L88.5,49.7L86.8,49.7L86.8,48.2L83.8,48.2L83.8,40.7L82.3,40.7L82.3,14.8L88.3,14.8L88.3,13.3L89.8,13.3L89.8,11.8L98.8,11.8L98.8,10.3L100.5,10.3L100.5,10.7L99.2,10.7L99.2,12.2L90.2,12.2L90.2,13.7L88.7,13.7L88.7,15.2L82.7,15.2L82.7,40.3L84.2,40.3L84.2,47.8L87.2,47.8L87.2,49.3z" stroke="none"/><path d="M99,92.8L99,93.2L79.7,93.2L79.7,95.8L103.3,95.8L103.3,9.2L90.2,9.2L90.2,10.7L85.7,10.7L85.7,12.2L82.7,12.2L82.7,13.7L81.2,13.7L81.2,45.2L78.2,45.2L78.2,49.7L76.7,49.7L76.7,54.2L75.2,54.2L75.2,58.7L73.7,58.7L73.7,61.7L70.7,61.7L70.7,64.7L66.2,64.7L66.2,69.2L64.5,69.2L64.5,68.8L65.8,68.8L65.8,64.3L70.3,64.3L70.3,61.3L73.3,61.3L73.3,58.3L74.8,58.3L74.8,53.8L76.3,53.8L76.3,49.3L77.8,49.3L77.8,44.8L80.8,44.8L80.8,13.3L82.3,13.3L82.3,11.8L85.3,11.8L85.3,10.3L89.8,10.3L89.8,8.8L103.7,8.8L103.7,96.2L79.3,96.2L79.3,92.8z" stroke="none"/><path d="M37.3,100.5L37.7,100.5L37.7,101.8L42.2,101.8L42.2,103.3L79.3,103.3L79.3,101.8L81,101.8L81,102.2L79.7,102.2L79.7,103.7L41.8,103.7L41.8,102.2L37.3,102.2z" stroke="none"/><path d="M63.2,28.5L62.8,28.5L62.8,11.8L64.3,11.8L64.3,10.3L65.8,10.3L65.8,8.8L68.8,8.8L68.8,4.7L51.2,4.7L51.2,7.7L41.8,7.7L41.8,6.2L32.8,6.2L32.8,4.7L28.3,4.7L28.3,3.2L16.3,3.2L16.3,1.7L10.7,1.7L10.7,7.3L12.2,7.3L12.2,8.8L13.7,8.8L13.7,10.3L18,10.3L18,10.7L13.3,10.7L13.3,9.2L11.8,9.2L11.8,7.7L10.3,7.7L10.3,1.3L16.7,1.3L16.7,2.8L28.7,2.8L28.7,4.3L33.2,4.3L33.2,5.8L42.2,5.8L42.2,7.3L50.8,7.3L50.8,4.3L69.2,4.3L69.2,9.2L66.2,9.2L66.2,10.7L64.7,10.7L64.7,12.2L63.2,12.2z" stroke="none"/><path d="M74.8,10.5L75.2,10.5L75.2,38.8L76.7,38.8L76.7,48.2L75.2,48.2L75.2,52.7L73.7,52.7L73.7,55.7L72.2,55.7L72.2,58.7L70.7,58.7L70.7,60.2L67.3,60.2L67.3,58.5L67.7,58.5L67.7,59.8L70.3,59.8L70.3,58.3L71.8,58.3L71.8,55.3L73.3,55.3L73.3,52.3L74.8,52.3L74.8,47.8L76.3,47.8L76.3,39.2L74.8,39.2z" stroke="none"/><path d="M61.3,22.5L61.7,22.5L61.7,31.3L63.2,31.3L63.2,32.8L64.7,32.8L64.7,60.2L60.2,60.2L60.2,67.7L57.2,67.7L57.2,72.2L55.7,72.2L55.7,73.7L49.3,73.7L49.3,70.5L49.7,70.5L49.7,73.3L55.3,73.3L55.3,71.8L56.8,71.8L56.8,67.3L59.8,67.3L59.8,59.8L64.3,59.8L64.3,33.2L62.8,33.2L62.8,31.7L61.3,31.7z" stroke="none"/><path d="M4.3,10.5L4.7,10.5L4.7,18.2L1.7,18.2L1.7,35.8L4.7,35.8L4.7,37.3L6.2,37.3L6.2,38.8L7.7,38.8L7.7,40.3L9.2,40.3L9.2,41.8L10.7,41.8L10.7,44.8L13.7,44.8L13.7,46.3L15.2,46.3L15.2,47.8L16.7,47.8L16.7,50.8L25.3,50.8L25.3,46.3L33.2,46.3L33.2,64.3L34.7,64.3L34.7,67.3L39.2,67.3L39.2,68.8L42.2,68.8L42.2,71.8L43.7,71.8L43.7,74.8L46.3,74.8L46.3,48.2L44.8,48.2L44.8,42.2L43.5,42.2L43.5,41.8L45.2,41.8L45.2,47.8L46.7,47.8L46.7,75.2L43.3,75.2L43.3,72.2L41.8,72.2L41.8,69.2L38.8,69.2L38.8,67.7L34.3,67.7L34.3,64.7L32.8,64.7L32.8,46.7L25.7,46.7L25.7,51.2L16.3,51.2L16.3,48.2L14.8,48.2L14.8,46.7L13.3,46.7L13.3,45.2L10.3,45.2L10.3,42.2L8.8,42.2L8.8,40.7L7.3,40.7L7.3,39.2L5.8,39.2L5.8,37.7L4.3,37.7L4.3,36.2L1.3,36.2L1.3,17.8L4.3,17.8z" stroke="none"/></svg>