<svg version="1.1" width="105" height="105" xmlns="http://www.w3.org/2000/svg"><path d="M73.3,65.8L73.3,64.3L76.5,64.3L76.5,64.7L73.7,64.7L73.7,66.2L67.7,66.2L67.7,68.8L69.2,68.8L69.2,75.2L67.7,75.2L67.7,76.5L67.3,76.5L67.3,74.8L68.8,74.8L68.8,69.2L67.3,69.2L67.3,66.2L62.8,66.2L62.8,60.2L60,60.2L60,59.8L63.2,59.8L63.2,65.8z" stroke="none"/><path d="M80.8,59.8L80.8,43.7L76.3,43.7L76.3,42L76.7,42L76.7,43.3L81.2,43.3L81.2,68.8L82.7,68.8L82.7,74.8L84.2,74.8L84.2,77.8L87.2,77.8L87.2,79.3L94.7,79.3L94.7,82.5L94.3,82.5L94.3,79.7L86.8,79.7L86.8,78.2L83.8,78.2L83.8,75.2L82.3,75.2L82.3,69.2L80.8,69.2L80.8,60.2L76.3,60.2L76.3,57.2L72,57.2L72,56.8L76.7,56.8L76.7,59.8z" stroke="none"/><path d="M53.8,83.8L53.8,75.2L52.3,75.2L52.3,73.7L50.8,73.7L50.8,70.7L46.3,70.7L46.3,63.2L40.7,63.2L40.7,66.2L39.2,66.2L39.2,67.7L37.7,67.7L37.7,70.5L37.3,70.5L37.3,67.3L38.8,67.3L38.8,65.8L40.3,65.8L40.3,62.8L46.7,62.8L46.7,70.3L51.2,70.3L51.2,73.3L52.7,73.3L52.7,74.8L54.2,74.8L54.2,83.8L75.2,83.8L75.2,91.3L76.7,91.3L76.7,92.8L79.7,92.8L79.7,94.3L81.2,94.3L81.2,96L80.8,96L80.8,94.7L79.3,94.7L79.3,93.2L76.3,93.2L76.3,91.7L74.8,91.7L74.8,84.2L52.7,84.2L52.7,85.7L46.7,85.7L46.7,87.2L43.5,87.2L43.5,86.8L46.3,86.8L46.3,85.3L52.3,85.3L52.3,83.8z" stroke="none"/><path d="M44.8,80.8L44.8,67.7L43.3,67.7L43.3,64.7L42,64.7L42,64.3L43.7,64.3L43.7,67.3L45.2,67.3L45.2,85.7L42.2,85.7L42.2,88.3L63.2,88.3L63.2,89.8L64.7,89.8L64.7,93L64.3,93L64.3,90.2L62.8,90.2L62.8,88.7L41.8,88.7L41.8,85.3L44.8,85.3L44.8,81.2L40.7,81.2L40.7,82.7L34.7,82.7L34.7,85.7L33.2,85.7L33.2,87.2L31.5,87.2L31.5,86.8L32.8,86.8L32.8,85.3L34.3,85.3L34.3,82.3L40.3,82.3L40.3,80.8z" stroke="none"/><path d="M37.3,13.3L47.8,13.3L47.8,7.3L49.3,7.3L49.3,5.8L50.8,5.8L50.8,4.5L51.2,4.5L51.2,6.2L49.7,6.2L49.7,7.7L48.2,7.7L48.2,13.7L37.7,13.7L37.7,20.8L38.8,20.8L38.8,19.3L46.3,19.3L46.3,17.8L50.8,17.8L50.8,16.3L52.3,16.3L52.3,10.3L54,10.3L54,10.7L52.7,10.7L52.7,16.7L51.2,16.7L51.2,18.2L46.7,18.2L46.7,19.7L39.2,19.7L39.2,21.2L37.7,21.2L37.7,33.2L34.7,33.2L34.7,36.2L33.2,36.2L33.2,40.7L27.2,40.7L27.2,43.7L22.7,43.7L22.7,46.7L19.7,46.7L19.7,48.2L18.2,48.2L18.2,49.7L9,49.7L9,49.3L17.8,49.3L17.8,47.8L19.3,47.8L19.3,46.3L22.3,46.3L22.3,43.3L26.8,43.3L26.8,40.3L32.8,40.3L32.8,35.8L34.3,35.8L34.3,32.8L37.3,32.8z" stroke="none"/><path d="M32.8,25.3L32.8,7.7L30,7.7L30,7.3L33.2,7.3L33.2,25.3L34.3,25.3L34.3,8.8L37.3,8.8L37.3,5.8L38.8,5.8L38.8,4.3L46.3,4.3L46.3,1.3L57.2,1.3L57.2,44.8L58.7,44.8L58.7,49.3L61.5,49.3L61.5,49.7L58.3,49.7L58.3,45.2L56.8,45.2L56.8,1.7L46.7,1.7L46.7,4.7L39.2,4.7L39.2,6.2L37.7,6.2L37.7,9.2L34.7,9.2L34.7,25.7L33.2,25.7L33.2,27.2L13.3,27.2L13.3,25.5L13.7,25.5L13.7,26.8L32.8,26.8L32.8,25.7L28.3,25.7L28.3,24.2L26.8,24.2L26.8,19.5L27.2,19.5L27.2,23.8L28.7,23.8L28.7,25.3z" stroke="none"/><path d="M20.8,62.8L20.8,61.7L10.3,61.7L10.3,60L10.7,60L10.7,61.3L21.2,61.3L21.2,62.8L22.3,62.8L22.3,61.3L25.3,61.3L25.3,59.8L28.3,59.8L28.3,55.3L31.5,55.3L31.5,55.7L28.7,55.7L28.7,60.2L25.7,60.2L25.7,61.7L22.7,61.7L22.7,63.2L21.2,63.2L21.2,65.8L25.7,65.8L25.7,67.3L27.2,67.3L27.2,68.8L30.2,68.8L30.2,71.8L31.7,71.8L31.7,73.3L33.2,73.3L33.2,75L32.8,75L32.8,73.7L31.3,73.7L31.3,72.2L29.8,72.2L29.8,69.2L26.8,69.2L26.8,67.7L25.3,67.7L25.3,66.2L20.8,66.2L20.8,63.2L15.2,63.2L15.2,64.7L12,64.7L12,64.3L14.8,64.3L14.8,62.8z" stroke="none"/><path d="M40.3,46.3L40.3,45.2L33.2,45.2L33.2,46.7L25.7,46.7L25.7,58.7L24.2,58.7L24.2,60L23.8,60L23.8,58.3L25.3,58.3L25.3,46.3L32.8,46.3L32.8,44.8L40.7,44.8L40.7,46.3L41.8,46.3L41.8,32.8L44.8,32.8L44.8,31.3L46.3,31.3L46.3,28.3L49.3,28.3L49.3,22.3L50.8,22.3L50.8,19.3L52.3,19.3L52.3,17.8L53.8,17.8L53.8,11.8L55.3,11.8L55.3,3.2L49.7,3.2L49.7,4.7L48.2,4.7L48.2,6.2L46.7,6.2L46.7,7.7L45.2,7.7L45.2,9.2L39.2,9.2L39.2,10.7L37.7,10.7L37.7,12.2L36.2,12.2L36.2,16.5L35.8,16.5L35.8,11.8L37.3,11.8L37.3,10.3L38.8,10.3L38.8,8.8L44.8,8.8L44.8,7.3L46.3,7.3L46.3,5.8L47.8,5.8L47.8,4.3L49.3,4.3L49.3,2.8L55.7,2.8L55.7,12.2L54.2,12.2L54.2,18.2L52.7,18.2L52.7,19.7L51.2,19.7L51.2,22.7L49.7,22.7L49.7,28.7L46.7,28.7L46.7,31.7L45.2,31.7L45.2,33.2L42.2,33.2L42.2,46.7L40.7,46.7L40.7,51.2L39.2,51.2L39.2,52.7L36.2,52.7L36.2,59.8L49.3,59.8L49.3,58.3L50.8,58.3L50.8,56.8L70.5,56.8L70.5,57.2L51.2,57.2L51.2,58.7L49.7,58.7L49.7,60.2L35.8,60.2L35.8,52.3L38.8,52.3L38.8,50.8L40.3,50.8L40.3,46.7L39.2,46.7L39.2,48.2L36.2,48.2L36.2,49.7L34.7,49.7L34.7,55.5L34.3,55.5L34.3,49.3L35.8,49.3L35.8,47.8L38.8,47.8L38.8,46.3z" stroke="none"/><path d="M52.3,49.3L52.3,38.8L55.5,38.8L55.5,39.2L52.7,39.2L52.7,49.3L57.2,49.3L57.2,50.8L64.7,50.8L64.7,52.3L76.5,52.3L76.5,52.7L64.3,52.7L64.3,51.2L56.8,51.2L56.8,49.7L52.7,49.7L52.7,52.7L51.2,52.7L51.2,54.2L49.7,54.2L49.7,55.7L43.5,55.7L43.5,55.3L49.3,55.3L49.3,53.8L50.8,53.8L50.8,52.3L52.3,52.3L52.3,49.7L42.2,49.7L42.2,55.7L39.2,55.7L39.2,57.2L37.7,57.2L37.7,58.5L37.3,58.5L37.3,56.8L38.8,56.8L38.8,55.3L41.8,55.3L41.8,49.3z" stroke="none"/><path d="M86.8,20.8L86.8,17.8L88.3,17.8L88.3,13.3L89.8,13.3L89.8,10.3L91.3,10.3L91.3,8.8L92.8,8.8L92.8,7.3L95.8,7.3L95.8,5.8L97.5,5.8L97.5,6.2L96.2,6.2L96.2,7.7L93.2,7.7L93.2,9.2L91.7,9.2L91.7,10.7L90.2,10.7L90.2,13.7L88.7,13.7L88.7,18.2L87.2,18.2L87.2,20.8L88.7,20.8L88.7,26.8L91.7,26.8L91.7,28.3L94.7,28.3L94.7,33.2L81.2,33.2L81.2,36.2L79.7,36.2L79.7,37.5L79.3,37.5L79.3,35.8L80.8,35.8L80.8,32.8L94.3,32.8L94.3,28.7L91.3,28.7L91.3,27.2L88.3,27.2L88.3,21.2L87.2,21.2L87.2,28.3L88.7,28.3L88.7,29.8L90.2,29.8L90.2,31.3L93,31.3L93,31.7L89.8,31.7L89.8,30.2L88.3,30.2L88.3,28.7L86.8,28.7L86.8,21.2L85.3,21.2L85.3,19.7L80.8,19.7L80.8,18.2L79.3,18.2L79.3,16.7L77.8,16.7L77.8,10.5L78.2,10.5L78.2,16.3L79.7,16.3L79.7,17.8L81.2,17.8L81.2,19.3L85.7,19.3L85.7,20.8z" stroke="none"/><path d="M24,14.8L24,15.2L22.5,15.2L22.5,14.8z" stroke="none"/><path d="M9,47.8L9,48.2L7.7,48.2L7.7,50.8L9,50.8L9,51.2L7.3,51.2L7.3,47.8z" stroke="none"/><path d="M102,59.8L102,60.2L97.3,60.2L97.3,58.5L97.7,58.5L97.7,59.8z" stroke="none"/><path d="M7.7,84L7.3,84L7.3,77.8L9,77.8L9,78.2L7.7,78.2z" stroke="none"/><path d="M22.5,77.8L22.5,78.2L16.7,78.2L16.7,79.5L16.3,79.5L16.3,77.8z" stroke="none"/><path d="M27,4.7L27,4.3L34.7,4.3L34.7,6L34.3,6L34.3,4.7z" stroke="none"/><path d="M27,89.8L27,90.2L22.3,90.2L22.3,88.7L20.8,88.7L20.8,84L21.2,84L21.2,88.3L22.7,88.3L22.7,89.8z" stroke="none"/><path d="M67.5,82.7L67.5,82.3L76.7,82.3L76.7,85.3L78.2,85.3L78.2,89.8L81.2,89.8L81.2,92.8L82.7,92.8L82.7,97.7L76.3,97.7L76.3,94.7L74.8,94.7L74.8,93.2L73.3,93.2L73.3,90L73.7,90L73.7,92.8L75.2,92.8L75.2,94.3L76.7,94.3L76.7,97.3L82.3,97.3L82.3,93.2L80.8,93.2L80.8,90.2L77.8,90.2L77.8,85.7L76.3,85.7L76.3,82.7z" stroke="none"/><path d="M90,15.2L90,14.8L94.3,14.8L94.3,8.8L97.5,8.8L97.5,9.2L94.7,9.2L94.7,15.2z" stroke="none"/><path d="M100.7,87L100.3,87L100.3,84.2L98.8,84.2L98.8,76.5L99.2,76.5L99.2,83.8L100.7,83.8z" stroke="none"/><path d="M12,60.2L12,59.8L19.3,59.8L19.3,58.3L22.3,58.3L22.3,57L22.7,57L22.7,58.7L19.7,58.7L19.7,60.2z" stroke="none"/><path d="M61.5,67.3L61.5,67.7L55.3,67.7L55.3,64.7L52.3,64.7L52.3,60L52.7,60L52.7,64.3L55.7,64.3L55.7,67.3z" stroke="none"/><path d="M14.8,10.5L15.2,10.5L15.2,19.3L19.7,19.3L19.7,22.5L19.3,22.5L19.3,19.7L14.8,19.7z" stroke="none"/><path d="M25.3,79.5L25.7,79.5L25.7,82.3L28.7,82.3L28.7,88.3L37.3,88.3L37.3,86.8L38.8,86.8L38.8,85.5L39.2,85.5L39.2,87.2L37.7,87.2L37.7,88.7L28.3,88.7L28.3,82.7L25.3,82.7z" stroke="none"/><path d="M18,94.7L18,94.3L21.2,94.3L21.2,95.8L27.2,95.8L27.2,100.3L31.5,100.3L31.5,100.7L26.8,100.7L26.8,96.2L20.8,96.2L20.8,94.7z" stroke="none"/><path d="M25.5,70.3L25.5,70.7L19.3,70.7L19.3,69.2L14.8,69.2L14.8,67.7L13.3,67.7L13.3,66.2L10.3,66.2L10.3,63.2L8.8,63.2L8.8,58.3L16.3,58.3L16.3,56.8L20.8,56.8L20.8,55.3L24,55.3L24,55.7L21.2,55.7L21.2,57.2L16.7,57.2L16.7,58.7L9.2,58.7L9.2,62.8L10.7,62.8L10.7,65.8L13.7,65.8L13.7,67.3L15.2,67.3L15.2,68.8L19.7,68.8L19.7,70.3z" stroke="none"/><path d="M10.5,93.2L10.5,92.8L12.2,92.8L12.2,94.3L16.7,94.3L16.7,95.8L19.7,95.8L19.7,97.3L25.5,97.3L25.5,97.7L19.3,97.7L19.3,96.2L16.3,96.2L16.3,94.7L11.8,94.7L11.8,93.2z" stroke="none"/><path d="M85.5,90.2L85.5,89.8L100.7,89.8L100.7,91.3L102.2,91.3L102.2,93L101.8,93L101.8,91.7L100.3,91.7L100.3,90.2z" stroke="none"/><path d="M21.2,22.5L20.8,22.5L20.8,8.8L22.3,8.8L22.3,7.3L23.8,7.3L23.8,5.8L25.3,5.8L25.3,4.5L25.7,4.5L25.7,6.2L24.2,6.2L24.2,7.7L22.7,7.7L22.7,9.2L21.2,9.2z" stroke="none"/><path d="M81,79.3L81,79.7L65.8,79.7L65.8,73.7L64.3,73.7L64.3,69L64.7,69L64.7,73.3L66.2,73.3L66.2,79.3z" stroke="none"/><path d="M10.3,27L10.7,27L10.7,37.3L12.2,37.3L12.2,40.3L13.7,40.3L13.7,46.5L13.3,46.5L13.3,40.7L11.8,40.7L11.8,37.7L10.3,37.7z" stroke="none"/><path d="M10.7,21L10.3,21L10.3,10.3L13.3,10.3L13.3,8.8L14.8,8.8L14.8,7.3L16.3,7.3L16.3,5.8L17.8,5.8L17.8,4.3L19.3,4.3L19.3,3L19.7,3L19.7,4.7L18.2,4.7L18.2,6.2L16.7,6.2L16.7,7.7L15.2,7.7L15.2,9.2L13.7,9.2L13.7,10.7L10.7,10.7z" stroke="none"/><path d="M79.5,100.3L79.5,100.7L71.8,100.7L71.8,99.2L70.3,99.2L70.3,96.2L68.8,96.2L68.8,88.7L67.3,88.7L67.3,87.2L65.8,87.2L65.8,85.5L66.2,85.5L66.2,86.8L67.7,86.8L67.7,88.3L69.2,88.3L69.2,95.8L70.7,95.8L70.7,98.8L72.2,98.8L72.2,100.3z" stroke="none"/><path d="M97.5,7.7L97.5,7.3L98.8,7.3L98.8,4.7L76.7,4.7L76.7,17.8L78.2,17.8L78.2,19.3L79.7,19.3L79.7,20.8L81.2,20.8L81.2,22.3L82.5,22.3L82.5,22.7L80.8,22.7L80.8,21.2L79.3,21.2L79.3,19.7L77.8,19.7L77.8,18.2L76.3,18.2L76.3,4.3L99.2,4.3L99.2,7.7z" stroke="none"/><path d="M94.3,51L94.7,51L94.7,73.5L94.3,73.5z" stroke="none"/><path d="M40.5,96.2L40.5,95.8L63,95.8L63,96.2z" stroke="none"/><path d="M85.7,61.5L85.3,61.5L85.3,37.5L85.7,37.5z" stroke="none"/><path d="M5.8,37.5L6.2,37.5L6.2,54.2L4.7,54.2L4.7,61.5L4.3,61.5L4.3,53.8L5.8,53.8z" stroke="none"/><path d="M69,36.2L69,35.8L76.7,35.8L76.7,37.3L78.2,37.3L78.2,38.8L83.8,38.8L83.8,35.8L91.3,35.8L91.3,34.3L95.8,34.3L95.8,27.2L93,27.2L93,26.8L96.2,26.8L96.2,34.7L91.7,34.7L91.7,36.2L84.2,36.2L84.2,39.2L77.8,39.2L77.8,37.7L76.3,37.7L76.3,36.2z" stroke="none"/><path d="M37.5,84.2L37.5,83.8L40.7,83.8L40.7,90.2L31.7,90.2L31.7,91.7L19.3,91.7L19.3,87.2L16.3,87.2L16.3,85.7L14.8,85.7L14.8,73.7L11.8,73.7L11.8,72L12.2,72L12.2,73.3L15.2,73.3L15.2,85.3L16.7,85.3L16.7,86.8L19.7,86.8L19.7,91.3L31.3,91.3L31.3,89.8L40.3,89.8L40.3,84.2z" stroke="none"/><path d="M88.3,49.5L88.7,49.5L88.7,63.2L83.8,63.2L83.8,42.2L80.8,42.2L80.8,40.7L73.3,40.7L73.3,39.2L67.3,39.2L67.3,23.8L68.8,23.8L68.8,21L69.2,21L69.2,24.2L67.7,24.2L67.7,38.8L73.7,38.8L73.7,40.3L81.2,40.3L81.2,41.8L84.2,41.8L84.2,62.8L88.3,62.8z" stroke="none"/><path d="M43.5,92.8L43.5,93.2L16.3,93.2L16.3,91.7L9.2,91.7L9.2,99L8.8,99L8.8,91.3L16.7,91.3L16.7,92.8z" stroke="none"/><path d="M5.8,79.5L6.2,79.5L6.2,97.3L7.7,97.3L7.7,100.3L25.7,100.3L25.7,101.8L34.3,101.8L34.3,100.5L34.7,100.5L34.7,102.2L25.3,102.2L25.3,100.7L7.3,100.7L7.3,97.7L5.8,97.7z" stroke="none"/><path d="M35.8,40.5L36.2,40.5L36.2,43.7L31.7,43.7L31.7,45.2L24.2,45.2L24.2,48.2L22.7,48.2L22.7,49.7L19.7,49.7L19.7,51.2L16.7,51.2L16.7,52.7L15.2,52.7L15.2,54.2L10.7,54.2L10.7,55.7L7.7,55.7L7.7,64.3L9.2,64.3L9.2,67.3L12.2,67.3L12.2,68.8L13.7,68.8L13.7,70.3L18.2,70.3L18.2,71.8L24.2,71.8L24.2,74.8L25.5,74.8L25.5,75.2L23.8,75.2L23.8,72.2L17.8,72.2L17.8,70.7L13.3,70.7L13.3,69.2L11.8,69.2L11.8,67.7L8.8,67.7L8.8,64.7L7.3,64.7L7.3,55.3L10.3,55.3L10.3,53.8L14.8,53.8L14.8,52.3L16.3,52.3L16.3,50.8L19.3,50.8L19.3,49.3L22.3,49.3L22.3,47.8L23.8,47.8L23.8,44.8L31.3,44.8L31.3,43.3L35.8,43.3z" stroke="none"/><path d="M100.5,82.7L100.5,82.3L102.2,82.3L102.2,88.7L92.8,88.7L92.8,84.2L88.3,84.2L88.3,82.7L82.3,82.7L82.3,76.7L80.8,76.7L80.8,73.7L79.3,73.7L79.3,64.7L77.8,64.7L77.8,63.2L69,63.2L69,62.8L78.2,62.8L78.2,64.3L79.7,64.3L79.7,73.3L81.2,73.3L81.2,76.3L82.7,76.3L82.7,82.3L88.7,82.3L88.7,83.8L93.2,83.8L93.2,88.3L101.8,88.3L101.8,82.7z" stroke="none"/><path d="M67.5,70.3L67.5,70.7L65.8,70.7L65.8,67.7L63.2,67.7L63.2,77.8L64.7,77.8L64.7,80.8L78.2,80.8L78.2,83.8L81.2,83.8L81.2,85.3L84.2,85.3L84.2,99.2L82.7,99.2L82.7,100.7L81.2,100.7L81.2,102.2L46.3,102.2L46.3,100.7L43.3,100.7L43.3,99.2L41.8,99.2L41.8,97.5L42.2,97.5L42.2,98.8L43.7,98.8L43.7,100.3L46.7,100.3L46.7,101.8L80.8,101.8L80.8,100.3L82.3,100.3L82.3,98.8L83.8,98.8L83.8,85.7L80.8,85.7L80.8,84.2L77.8,84.2L77.8,81.2L64.3,81.2L64.3,78.2L62.8,78.2L62.8,67.3L66.2,67.3L66.2,70.3z" stroke="none"/><path d="M101.8,6L102.2,6L102.2,33.2L99.2,33.2L99.2,43.5L98.8,43.5L98.8,32.8L101.8,32.8z" stroke="none"/><path d="M73.7,13.5L73.3,13.5L73.3,4.3L74.8,4.3L74.8,2.8L100.7,2.8L100.7,30.2L99.2,30.2L99.2,31.7L97.7,31.7L97.7,46.7L93.2,46.7L93.2,54L92.8,54L92.8,46.3L97.3,46.3L97.3,31.3L98.8,31.3L98.8,29.8L100.3,29.8L100.3,3.2L75.2,3.2L75.2,4.7L73.7,4.7z" stroke="none"/><path d="M4.5,68.8L4.5,69.2L3.2,69.2L3.2,100.3L4.7,100.3L4.7,101.8L22.7,101.8L22.7,103.3L91.3,103.3L91.3,101.8L97.3,101.8L97.3,100.3L100.3,100.3L100.3,98.8L101.8,98.8L101.8,95.8L103.3,95.8L103.3,4.7L101.8,4.7L101.8,1.7L72.2,1.7L72.2,15.2L69.2,15.2L69.2,16.7L66.2,16.7L66.2,44.8L76.7,44.8L76.7,49.3L78.2,49.3L78.2,54.2L53.8,54.2L53.8,52.5L54.2,52.5L54.2,53.8L77.8,53.8L77.8,49.7L76.3,49.7L76.3,45.2L65.8,45.2L65.8,16.3L68.8,16.3L68.8,14.8L71.8,14.8L71.8,1.3L102.2,1.3L102.2,4.3L103.7,4.3L103.7,96.2L102.2,96.2L102.2,99.2L100.7,99.2L100.7,100.7L97.7,100.7L97.7,102.2L91.7,102.2L91.7,103.7L22.3,103.7L22.3,102.2L4.3,102.2L4.3,100.7L2.8,100.7L2.8,68.8z" stroke="none"/><path d="M4.7,72L4.3,72L4.3,70.3L5.8,70.3L5.8,64.7L4.3,64.7L4.3,63.2L2.8,63.2L2.8,31.3L4.3,31.3L4.3,28.3L7.3,28.3L7.3,26.8L8.8,26.8L8.8,23.8L25.5,23.8L25.5,24.2L9.2,24.2L9.2,27.2L7.7,27.2L7.7,28.7L4.7,28.7L4.7,31.7L3.2,31.7L3.2,62.8L4.7,62.8L4.7,64.3L6.2,64.3L6.2,70.7L4.7,70.7z" stroke="none"/></svg>