<svg version="1.1" width="105" height="105" xmlns="http://www.w3.org/2000/svg"><path d="M32.8,83.8L32.8,77.8L34.3,77.8L34.3,76.3L35.8,76.3L35.8,75L36.2,75L36.2,76.7L34.7,76.7L34.7,78.2L33.2,78.2L33.2,84.2L22.7,84.2L22.7,88.3L24,88.3L24,88.7L22.3,88.7L22.3,84.2L16.7,84.2L16.7,85.7L12.2,85.7L12.2,87.2L10.7,87.2L10.7,88.5L10.3,88.5L10.3,86.8L11.8,86.8L11.8,85.3L16.3,85.3L16.3,83.8z" stroke="none"/><path d="M47.8,25.3L49.3,25.3L49.3,23.8L50.8,23.8L50.8,22.3L55.3,22.3L55.3,19.3L56.8,19.3L56.8,17.8L58.3,17.8L58.3,13.3L65.8,13.3L65.8,12L66.2,12L66.2,13.7L58.7,13.7L58.7,18.2L57.2,18.2L57.2,19.7L55.7,19.7L55.7,22.7L51.2,22.7L51.2,24.2L49.7,24.2L49.7,25.7L48.2,25.7L48.2,28.3L49.3,28.3L49.3,26.8L50.8,26.8L50.8,25.3L52.5,25.3L52.5,25.7L51.2,25.7L51.2,27.2L49.7,27.2L49.7,28.7L48.2,28.7L48.2,30.2L46.7,30.2L46.7,33.2L37.7,33.2L37.7,36.2L36.2,36.2L36.2,39.2L30.2,39.2L30.2,40.7L28.7,40.7L28.7,48L28.3,48L28.3,40.3L29.8,40.3L29.8,38.8L35.8,38.8L35.8,35.8L37.3,35.8L37.3,32.8L46.3,32.8L46.3,29.8L47.8,29.8z" stroke="none"/><path d="M19.3,65.8L19.3,62.8L22.3,62.8L22.3,61.3L26.8,61.3L26.8,59.8L28.3,59.8L28.3,58.3L35.8,58.3L35.8,56.8L40.3,56.8L40.3,54.2L38.8,54.2L38.8,51.2L31.3,51.2L31.3,43.7L30,43.7L30,43.3L31.7,43.3L31.7,50.8L39.2,50.8L39.2,53.8L40.7,53.8L40.7,57.2L36.2,57.2L36.2,58.7L28.7,58.7L28.7,60.2L27.2,60.2L27.2,61.7L22.7,61.7L22.7,63.2L19.7,63.2L19.7,76.5L19.3,76.5L19.3,66.2L18.2,66.2L18.2,70.7L16.7,70.7L16.7,75.2L13.7,75.2L13.7,81.2L12,81.2L12,80.8L13.3,80.8L13.3,74.8L16.3,74.8L16.3,70.3L17.8,70.3L17.8,65.8z" stroke="none"/><path d="M64.3,16.3L67.3,16.3L67.3,13.3L70.3,13.3L70.3,11.8L71.8,11.8L71.8,10.5L72.2,10.5L72.2,12.2L70.7,12.2L70.7,13.7L67.7,13.7L67.7,16.7L64.7,16.7L64.7,19.3L65.8,19.3L65.8,17.8L70.3,17.8L70.3,14.8L71.8,14.8L71.8,13.3L73.3,13.3L73.3,4.5L73.7,4.5L73.7,13.7L72.2,13.7L72.2,15.2L70.7,15.2L70.7,18.2L66.2,18.2L66.2,19.7L64.7,19.7L64.7,25.7L63.2,25.7L63.2,28.7L61.7,28.7L61.7,30.2L60.2,30.2L60.2,31.7L58.7,31.7L58.7,36.2L54.2,36.2L54.2,39.2L52.7,39.2L52.7,42.2L48.2,42.2L48.2,43.5L47.8,43.5L47.8,41.8L52.3,41.8L52.3,38.8L53.8,38.8L53.8,35.8L58.3,35.8L58.3,31.3L59.8,31.3L59.8,29.8L61.3,29.8L61.3,28.3L62.8,28.3L62.8,25.3L64.3,25.3z" stroke="none"/><path d="M25.3,39L25.7,39L25.7,55.3L39,55.3L39,55.7L25.7,55.7L25.7,57.2L22.7,57.2L22.7,58.7L19.7,58.7L19.7,60.2L16.7,60.2L16.7,66.2L15.2,66.2L15.2,72L14.8,72L14.8,65.8L16.3,65.8L16.3,59.8L19.3,59.8L19.3,58.3L22.3,58.3L22.3,56.8L25.3,56.8z" stroke="none"/><path d="M17.8,25.3L17.8,23.8L19.3,23.8L19.3,22.5L19.7,22.5L19.7,24.2L18.2,24.2L18.2,25.3L26.8,25.3L26.8,22.3L29.8,22.3L29.8,16.3L34.3,16.3L34.3,14.8L37.3,14.8L37.3,13.3L38.8,13.3L38.8,12L39.2,12L39.2,13.7L37.7,13.7L37.7,15.2L34.7,15.2L34.7,16.7L30.2,16.7L30.2,22.7L27.2,22.7L27.2,25.7L18.2,25.7L18.2,31.7L16.7,31.7L16.7,33.2L15.2,33.2L15.2,34.7L10.7,34.7L10.7,36L10.3,36L10.3,34.3L14.8,34.3L14.8,32.8L16.3,32.8L16.3,31.3L17.8,31.3L17.8,25.7L13.7,25.7L13.7,27.2L12.2,27.2L12.2,30.2L9.2,30.2L9.2,31.7L6,31.7L6,31.3L8.8,31.3L8.8,29.8L11.8,29.8L11.8,26.8L13.3,26.8L13.3,25.3z" stroke="none"/><path d="M74.8,71.8L74.8,70.3L80.8,70.3L80.8,68.8L83.8,68.8L83.8,66L84.2,66L84.2,69.2L81.2,69.2L81.2,70.7L75.2,70.7L75.2,71.8L76.7,71.8L76.7,73.3L79.7,73.3L79.7,74.8L82.5,74.8L82.5,75.2L79.3,75.2L79.3,73.7L76.3,73.7L76.3,72.2L75.2,72.2L75.2,90.2L73.7,90.2L73.7,91.7L70.7,91.7L70.7,93.2L69.2,93.2L69.2,94.7L64.7,94.7L64.7,99.2L61.5,99.2L61.5,98.8L64.3,98.8L64.3,94.3L68.8,94.3L68.8,92.8L70.3,92.8L70.3,91.3L73.3,91.3L73.3,89.8L74.8,89.8L74.8,72.2L73.3,72.2L73.3,49.3L75,49.3L75,49.7L73.7,49.7L73.7,71.8z" stroke="none"/><path d="M26.8,73.3L26.8,71.8L39.2,71.8L39.2,79.7L37.7,79.7L37.7,81.2L36.2,81.2L36.2,82.5L35.8,82.5L35.8,80.8L37.3,80.8L37.3,79.3L38.8,79.3L38.8,72.2L27.2,72.2L27.2,73.3L37.7,73.3L37.7,78L37.3,78L37.3,73.7L27.2,73.7L27.2,77.8L28.7,77.8L28.7,79.3L31.7,79.3L31.7,81L31.3,81L31.3,79.7L28.3,79.7L28.3,78.2L26.8,78.2L26.8,73.7L25.7,73.7L25.7,79.7L22.7,79.7L22.7,81.2L18.2,81.2L18.2,82.7L10.3,82.7L10.3,72.2L8.8,72.2L8.8,58.7L1.3,58.7L1.3,53.8L4.5,53.8L4.5,54.2L1.7,54.2L1.7,58.3L9.2,58.3L9.2,71.8L10.7,71.8L10.7,82.3L17.8,82.3L17.8,80.8L22.3,80.8L22.3,79.3L25.3,79.3L25.3,73.3z" stroke="none"/><path d="M68.8,38.8L68.8,28.3L70.5,28.3L70.5,28.7L69.2,28.7L69.2,38.8L76.7,38.8L76.7,41.8L78.2,41.8L78.2,46.3L85.7,46.3L85.7,49.3L87.2,49.3L87.2,51L86.8,51L86.8,49.7L85.3,49.7L85.3,46.7L77.8,46.7L77.8,42.2L76.3,42.2L76.3,39.2L69.2,39.2L69.2,46.7L66.2,46.7L66.2,48.2L64.7,48.2L64.7,49.7L60.2,49.7L60.2,55.7L58.7,55.7L58.7,60.2L57.2,60.2L57.2,61.5L56.8,61.5L56.8,59.8L58.3,59.8L58.3,55.3L59.8,55.3L59.8,49.3L64.3,49.3L64.3,47.8L65.8,47.8L65.8,46.3L68.8,46.3L68.8,39.2L63.2,39.2L63.2,45.2L46.3,45.2L46.3,34.3L49.3,34.3L49.3,32.8L56.8,32.8L56.8,28.3L58.3,28.3L58.3,25.3L59.8,25.3L59.8,19.3L61.5,19.3L61.5,19.7L60.2,19.7L60.2,25.7L58.7,25.7L58.7,28.7L57.2,28.7L57.2,33.2L49.7,33.2L49.7,34.7L46.7,34.7L46.7,44.8L62.8,44.8L62.8,38.8z" stroke="none"/><path d="M19.3,37.3L19.3,35.8L34.3,35.8L34.3,34.3L35.8,34.3L35.8,23.8L37.5,23.8L37.5,24.2L36.2,24.2L36.2,34.7L34.7,34.7L34.7,36.2L19.7,36.2L19.7,37.3L31.5,37.3L31.5,37.7L19.7,37.7L19.7,46.7L16.7,46.7L16.7,49.7L12.2,49.7L12.2,54.2L10.7,54.2L10.7,55.7L3.2,55.7L3.2,57L2.8,57L2.8,55.3L10.3,55.3L10.3,53.8L11.8,53.8L11.8,49.3L16.3,49.3L16.3,46.3L19.3,46.3L19.3,37.7L8.8,37.7L8.8,34.7L5.8,34.7L5.8,33L6.2,33L6.2,34.3L9.2,34.3L9.2,37.3z" stroke="none"/><path d="M29.8,28.5L30.2,28.5L30.2,30.2L28.5,30.2L28.5,29.8L29.8,29.8z" stroke="none"/><path d="M91.3,33L91.7,33L91.7,36L91.3,36z" stroke="none"/><path d="M100.7,79.5L100.3,79.5L100.3,76.5L100.7,76.5z" stroke="none"/><path d="M15.2,100.5L14.8,100.5L14.8,99.2L12,99.2L12,98.8L15.2,98.8z" stroke="none"/><path d="M84,62.8L84,63.2L79.5,63.2L79.5,62.8z" stroke="none"/><path d="M79.7,84L79.3,84L79.3,82.7L77.8,82.7L77.8,81.2L76.3,81.2L76.3,79.5L76.7,79.5L76.7,80.8L78.2,80.8L78.2,82.3L79.7,82.3z" stroke="none"/><path d="M99.2,85.5L98.8,85.5L98.8,82.7L97.3,82.7L97.3,81.2L96,81.2L96,80.8L97.7,80.8L97.7,82.3L99.2,82.3z" stroke="none"/><path d="M95.8,90L96.2,90L96.2,96.2L93.2,96.2L93.2,97.5L92.8,97.5L92.8,95.8L95.8,95.8z" stroke="none"/><path d="M54.2,69L53.8,69L53.8,61.7L52.3,61.7L52.3,60.2L51,60.2L51,59.8L52.7,59.8L52.7,61.3L54.2,61.3z" stroke="none"/><path d="M15,83.8L15,84.2L4.5,84.2L4.5,83.8z" stroke="none"/><path d="M14.8,87L15.2,87L15.2,88.3L16.7,88.3L16.7,89.8L18.2,89.8L18.2,95.8L22.5,95.8L22.5,96.2L17.8,96.2L17.8,90.2L16.3,90.2L16.3,88.7L14.8,88.7z" stroke="none"/><path d="M16.5,41.8L16.5,42.2L7.3,42.2L7.3,40.7L4.5,40.7L4.5,40.3L7.7,40.3L7.7,41.8z" stroke="none"/><path d="M36,7.7L36,7.3L40.7,7.3L40.7,18.2L39.2,18.2L39.2,19.5L38.8,19.5L38.8,17.8L40.3,17.8L40.3,7.7z" stroke="none"/><path d="M23.8,67.5L24.2,67.5L24.2,75.2L22.7,75.2L22.7,78.2L14.8,78.2L14.8,76.5L15.2,76.5L15.2,77.8L22.3,77.8L22.3,74.8L23.8,74.8z" stroke="none"/><path d="M6.2,24L5.8,24L5.8,11.8L10.3,11.8L10.3,10.3L13.5,10.3L13.5,10.7L10.7,10.7L10.7,12.2L6.2,12.2z" stroke="none"/><path d="M54,70.7L54,70.3L63.2,70.3L63.2,73.3L64.7,73.3L64.7,74.8L66.2,74.8L66.2,76.3L67.7,76.3L67.7,77.8L69,77.8L69,78.2L67.3,78.2L67.3,76.7L65.8,76.7L65.8,75.2L64.3,75.2L64.3,73.7L62.8,73.7L62.8,70.7z" stroke="none"/><path d="M7.5,10.3L7.5,10.7L4.7,10.7L4.7,25.3L7.7,25.3L7.7,26.8L10.5,26.8L10.5,27.2L7.3,27.2L7.3,25.7L4.3,25.7L4.3,10.3z" stroke="none"/><path d="M85.5,6.2L85.5,5.8L100.7,5.8L100.7,7.3L102.2,7.3L102.2,9L101.8,9L101.8,7.7L100.3,7.7L100.3,6.2z" stroke="none"/><path d="M85.3,22.5L85.7,22.5L85.7,27.2L81.2,27.2L81.2,30.2L73.7,30.2L73.7,34.5L73.3,34.5L73.3,29.8L80.8,29.8L80.8,26.8L85.3,26.8z" stroke="none"/><path d="M102,100.3L102,100.7L83.8,100.7L83.8,99L84.2,99L84.2,100.3z" stroke="none"/><path d="M25.5,7.3L25.5,7.7L8.8,7.7L8.8,6.2L7.5,6.2L7.5,5.8L9.2,5.8L9.2,7.3z" stroke="none"/><path d="M7.5,19.7L7.5,19.3L19.7,19.3L19.7,20.8L25.7,20.8L25.7,22.5L25.3,22.5L25.3,21.2L19.3,21.2L19.3,19.7z" stroke="none"/><path d="M16.5,91.3L16.5,91.7L4.3,91.7L4.3,88.7L2.8,88.7L2.8,82.3L4.3,82.3L4.3,77.8L5.8,77.8L5.8,76.5L6.2,76.5L6.2,78.2L4.7,78.2L4.7,82.7L3.2,82.7L3.2,88.3L4.7,88.3L4.7,91.3z" stroke="none"/><path d="M10.7,70.5L10.3,70.5L10.3,62.8L11.8,62.8L11.8,59.8L13.3,59.8L13.3,50.8L17.8,50.8L17.8,49.5L18.2,49.5L18.2,51.2L13.7,51.2L13.7,60.2L12.2,60.2L12.2,63.2L10.7,63.2z" stroke="none"/><path d="M3,6.2L3,5.8L5.8,5.8L5.8,4.3L25.5,4.3L25.5,4.7L6.2,4.7L6.2,6.2z" stroke="none"/><path d="M82.3,4.5L82.7,4.5L82.7,7.3L84.2,7.3L84.2,8.8L85.7,8.8L85.7,10.3L87.2,10.3L87.2,16.3L88.7,16.3L88.7,20.8L90.2,20.8L90.2,22.3L96.2,22.3L96.2,23.8L99,23.8L99,24.2L95.8,24.2L95.8,22.7L89.8,22.7L89.8,21.2L88.3,21.2L88.3,16.7L86.8,16.7L86.8,10.7L85.3,10.7L85.3,9.2L83.8,9.2L83.8,7.7L82.3,7.7z" stroke="none"/><path d="M27,95.8L27,96.2L25.7,96.2L25.7,97.7L10.3,97.7L10.3,96.2L8.8,96.2L8.8,94.7L4.3,94.7L4.3,93.2L2.8,93.2L2.8,91.7L1.3,91.7L1.3,80.8L2.8,80.8L2.8,76.3L4.3,76.3L4.3,74.8L7.7,74.8L7.7,79.5L7.3,79.5L7.3,75.2L4.7,75.2L4.7,76.7L3.2,76.7L3.2,81.2L1.7,81.2L1.7,91.3L3.2,91.3L3.2,92.8L4.7,92.8L4.7,94.3L9.2,94.3L9.2,95.8L10.7,95.8L10.7,97.3L25.3,97.3L25.3,95.8z" stroke="none"/><path d="M99,101.8L99,102.2L82.3,102.2L82.3,99.2L80.8,99.2L80.8,97.7L77.8,97.7L77.8,96.2L73.5,96.2L73.5,95.8L78.2,95.8L78.2,97.3L81.2,97.3L81.2,98.8L82.7,98.8L82.7,101.8z" stroke="none"/><path d="M101.8,30L102.2,30L102.2,52.7L99.2,52.7L99.2,57.2L96.2,57.2L96.2,60L95.8,60L95.8,56.8L98.8,56.8L98.8,52.3L101.8,52.3z" stroke="none"/><path d="M27,12.2L27,11.8L34.3,11.8L34.3,5.8L35.8,5.8L35.8,4.3L56.8,4.3L56.8,2.8L58.5,2.8L58.5,3.2L57.2,3.2L57.2,4.7L36.2,4.7L36.2,6.2L34.7,6.2L34.7,12.2z" stroke="none"/><path d="M60.2,42L59.8,42L59.8,34.3L61.3,34.3L61.3,31.3L64.3,31.3L64.3,26.8L68.8,26.8L68.8,25.3L71.8,25.3L71.8,19.3L73.3,19.3L73.3,16.3L74.8,16.3L74.8,3.2L72.2,3.2L72.2,9.2L64.7,9.2L64.7,10.7L55.7,10.7L55.7,12.2L52.7,12.2L52.7,15.2L46.7,15.2L46.7,16.7L42.2,16.7L42.2,19.7L40.7,19.7L40.7,21.2L35.8,21.2L35.8,19.7L33,19.7L33,19.3L36.2,19.3L36.2,20.8L40.3,20.8L40.3,19.3L41.8,19.3L41.8,16.3L46.3,16.3L46.3,14.8L52.3,14.8L52.3,11.8L55.3,11.8L55.3,10.3L64.3,10.3L64.3,8.8L71.8,8.8L71.8,2.8L75.2,2.8L75.2,16.7L73.7,16.7L73.7,19.7L72.2,19.7L72.2,25.7L69.2,25.7L69.2,27.2L64.7,27.2L64.7,31.7L61.7,31.7L61.7,34.7L60.2,34.7z" stroke="none"/><path d="M101.8,22.5L102.2,22.5L102.2,27.2L100.7,27.2L100.7,28.7L99.2,28.7L99.2,33.2L97.7,33.2L97.7,37.7L94.7,37.7L94.7,39.2L93.2,39.2L93.2,42.2L91.7,42.2L91.7,43.7L90.2,43.7L90.2,46.7L88.7,46.7L88.7,52.7L76.3,52.7L76.3,48.2L73.3,48.2L73.3,45L73.7,45L73.7,47.8L76.7,47.8L76.7,52.3L88.3,52.3L88.3,46.3L89.8,46.3L89.8,43.3L91.3,43.3L91.3,41.8L92.8,41.8L92.8,38.8L94.3,38.8L94.3,37.3L97.3,37.3L97.3,32.8L98.8,32.8L98.8,28.3L100.3,28.3L100.3,26.8L101.8,26.8z" stroke="none"/><path d="M75,60.2L75,59.8L84.2,59.8L84.2,61.3L85.7,61.3L85.7,85.3L87.2,85.3L87.2,86.8L88.7,86.8L88.7,91.3L93.2,91.3L93.2,93L92.8,93L92.8,91.7L88.3,91.7L88.3,87.2L86.8,87.2L86.8,85.7L85.3,85.7L85.3,61.7L83.8,61.7L83.8,60.2z" stroke="none"/><path d="M65.8,87L66.2,87L66.2,93.2L63.2,93.2L63.2,96.2L61.7,96.2L61.7,97.7L60.2,97.7L60.2,100.3L65.8,100.3L65.8,95.8L70.3,95.8L70.3,94.3L94.3,94.3L94.3,63.2L92.8,63.2L92.8,60.2L91.3,60.2L91.3,58.5L91.7,58.5L91.7,59.8L93.2,59.8L93.2,62.8L94.7,62.8L94.7,94.7L70.7,94.7L70.7,96.2L66.2,96.2L66.2,100.7L59.8,100.7L59.8,97.3L61.3,97.3L61.3,95.8L62.8,95.8L62.8,92.8L65.8,92.8z" stroke="none"/><path d="M94.7,27L94.3,27L94.3,25.7L92.8,25.7L92.8,24.2L88.3,24.2L88.3,22.7L86.8,22.7L86.8,19.7L85.3,19.7L85.3,15.2L82.3,15.2L82.3,9.2L80.8,9.2L80.8,7.7L79.3,7.7L79.3,4.7L77.8,4.7L77.8,1.7L64.7,1.7L64.7,3.2L63.2,3.2L63.2,4.5L62.8,4.5L62.8,2.8L64.3,2.8L64.3,1.3L78.2,1.3L78.2,4.3L79.7,4.3L79.7,7.3L81.2,7.3L81.2,8.8L82.7,8.8L82.7,14.8L85.7,14.8L85.7,19.3L87.2,19.3L87.2,22.3L88.7,22.3L88.7,23.8L93.2,23.8L93.2,25.3L94.7,25.3z" stroke="none"/><path d="M7.5,37.3L7.5,37.7L5.8,37.7L5.8,36.2L4.3,36.2L4.3,27.2L2.8,27.2L2.8,8.8L26.8,8.8L26.8,4.3L28.3,4.3L28.3,3L28.7,3L28.7,4.7L27.2,4.7L27.2,9.2L3.2,9.2L3.2,26.8L4.7,26.8L4.7,35.8L6.2,35.8L6.2,37.3z" stroke="none"/><path d="M22.5,66.2L22.5,65.8L28.7,65.8L28.7,67.3L30.2,67.3L30.2,68.8L33.2,68.8L33.2,70.3L40.7,70.3L40.7,89.8L42.2,89.8L42.2,94.3L43.7,94.3L43.7,97.3L45.2,97.3L45.2,98.8L46.5,98.8L46.5,99.2L44.8,99.2L44.8,97.7L43.3,97.7L43.3,94.7L41.8,94.7L41.8,90.2L40.3,90.2L40.3,70.7L32.8,70.7L32.8,69.2L29.8,69.2L29.8,67.7L28.3,67.7L28.3,66.2z" stroke="none"/><path d="M28.3,91.5L28.7,91.5L28.7,92.8L30.2,92.8L30.2,95.8L34.7,95.8L34.7,97.3L36.2,97.3L36.2,98.8L39.2,98.8L39.2,100.3L58.7,100.3L58.7,101.8L69,101.8L69,102.2L58.3,102.2L58.3,100.7L38.8,100.7L38.8,99.2L35.8,99.2L35.8,97.7L34.3,97.7L34.3,96.2L29.8,96.2L29.8,93.2L28.3,93.2z" stroke="none"/><path d="M91.3,55.5L91.7,55.5L91.7,56.8L93.2,56.8L93.2,58.3L94.7,58.3L94.7,61.3L96.2,61.3L96.2,79.3L99.2,79.3L99.2,80.8L100.7,80.8L100.7,93.2L99.2,93.2L99.2,97.7L97.7,97.7L97.7,99.2L91.3,99.2L91.3,97.7L90,97.7L90,97.3L91.7,97.3L91.7,98.8L97.3,98.8L97.3,97.3L98.8,97.3L98.8,92.8L100.3,92.8L100.3,81.2L98.8,81.2L98.8,79.7L95.8,79.7L95.8,61.7L94.3,61.7L94.3,58.7L92.8,58.7L92.8,57.2L91.3,57.2z" stroke="none"/><path d="M78,98.8L78,99.2L73.7,99.2L73.7,102.2L70.7,102.2L70.7,103.7L56.8,103.7L56.8,102.2L34.3,102.2L34.3,100.7L31.3,100.7L31.3,99.2L29.8,99.2L29.8,97.7L28.3,97.7L28.3,94.7L26.8,94.7L26.8,85.3L34.3,85.3L34.3,79.5L34.7,79.5L34.7,85.7L27.2,85.7L27.2,94.3L28.7,94.3L28.7,97.3L30.2,97.3L30.2,98.8L31.7,98.8L31.7,100.3L34.7,100.3L34.7,101.8L57.2,101.8L57.2,103.3L70.3,103.3L70.3,101.8L73.3,101.8L73.3,98.8z" stroke="none"/></svg>