<svg version="1.1" width="105" height="105" xmlns="http://www.w3.org/2000/svg"><path d="M55.3,77.8L55.3,73.3L57,73.3L57,73.7L55.7,73.7L55.7,77.8L58.7,77.8L58.7,80.8L60.2,80.8L60.2,82.5L59.8,82.5L59.8,81.2L58.3,81.2L58.3,78.2L52.3,78.2L52.3,76.5L52.7,76.5L52.7,77.8z" stroke="none"/><path d="M11.8,43.3L13.3,43.3L13.3,41.8L14.8,41.8L14.8,40.5L15.2,40.5L15.2,42.2L13.7,42.2L13.7,43.7L12.2,43.7L12.2,44.8L16.5,44.8L16.5,45.2L12.2,45.2L12.2,46.7L6.2,46.7L6.2,48.2L4.7,48.2L4.7,52.5L4.3,52.5L4.3,47.8L5.8,47.8L5.8,46.3L11.8,46.3z" stroke="none"/><path d="M79.3,22.7L77.8,22.7L77.8,15.2L74.8,15.2L74.8,9.2L73.5,9.2L73.5,8.8L75.2,8.8L75.2,14.8L78.2,14.8L78.2,22.3L79.7,22.3L79.7,32.8L81.2,32.8L81.2,44.8L84.2,44.8L84.2,47.8L88.7,47.8L88.7,50.8L90,50.8L90,51.2L88.3,51.2L88.3,48.2L83.8,48.2L83.8,45.2L80.8,45.2L80.8,33.2L79.7,33.2L79.7,37.7L78.2,37.7L78.2,39.2L76.7,39.2L76.7,40.5L76.3,40.5L76.3,38.8L77.8,38.8L77.8,37.3L79.3,37.3z" stroke="none"/><path d="M34.3,55.7L32.8,55.7L32.8,54.2L29.8,54.2L29.8,52.7L28.3,52.7L28.3,46.5L28.7,46.5L28.7,52.3L30.2,52.3L30.2,53.8L33.2,53.8L33.2,55.3L34.7,55.3L34.7,65.8L42.2,65.8L42.2,68.8L45.2,68.8L45.2,70.3L46.7,70.3L46.7,76.3L51.2,76.3L51.2,78L50.8,78L50.8,76.7L46.3,76.7L46.3,70.7L44.8,70.7L44.8,69.2L41.8,69.2L41.8,66.2L34.7,66.2L34.7,69.2L33.2,69.2L33.2,70.7L28.7,70.7L28.7,72.2L27.2,72.2L27.2,75L26.8,75L26.8,71.8L28.3,71.8L28.3,70.3L32.8,70.3L32.8,68.8L34.3,68.8z" stroke="none"/><path d="M61.3,40.7L55.5,40.7L55.5,40.3L61.7,40.3L61.7,64.3L63.2,64.3L63.2,71.8L64.7,71.8L64.7,73.3L67.7,73.3L67.7,74.8L69.2,74.8L69.2,77.8L70.7,77.8L70.7,80.8L72.2,80.8L72.2,86.8L79.5,86.8L79.5,87.2L71.8,87.2L71.8,81.2L70.3,81.2L70.3,78.2L68.8,78.2L68.8,75.2L67.3,75.2L67.3,73.7L64.3,73.7L64.3,72.2L62.8,72.2L62.8,64.7L61.7,64.7L61.7,66.2L60.2,66.2L60.2,67.7L55.7,67.7L55.7,69.2L49.5,69.2L49.5,68.8L55.3,68.8L55.3,67.3L59.8,67.3L59.8,65.8L61.3,65.8z" stroke="none"/><path d="M82.3,23.8L82.3,16.7L80.8,16.7L80.8,10.7L77.8,10.7L77.8,7.7L72.2,7.7L72.2,21L71.8,21L71.8,7.3L78.2,7.3L78.2,10.3L81.2,10.3L81.2,16.3L82.7,16.3L82.7,23.8L83.8,23.8L83.8,7.5L84.2,7.5L84.2,24.2L82.7,24.2L82.7,28.5L82.3,28.5L82.3,24.2L81.2,24.2L81.2,29.8L90.2,29.8L90.2,32.8L91.7,32.8L91.7,37.3L93.2,37.3L93.2,40.3L94.5,40.3L94.5,40.7L92.8,40.7L92.8,37.7L91.3,37.7L91.3,33.2L89.8,33.2L89.8,30.2L80.8,30.2L80.8,23.8z" stroke="none"/><path d="M91.3,92.8L91.3,84.2L88.5,84.2L88.5,83.8L91.7,83.8L91.7,92.8L94.7,92.8L94.7,94.3L97.7,94.3L97.7,95.8L102,95.8L102,96.2L97.3,96.2L97.3,94.7L94.3,94.7L94.3,93.2L91.7,93.2L91.7,97.5L91.3,97.5L91.3,93.2L88.7,93.2L88.7,94.7L87,94.7L87,94.3L88.3,94.3L88.3,92.8z" stroke="none"/><path d="M62.8,82.3L62.8,80.8L66.2,80.8L66.2,85.3L69.2,85.3L69.2,88.3L80.8,88.3L80.8,59.8L83.8,59.8L83.8,58.5L84.2,58.5L84.2,60.2L81.2,60.2L81.2,88.7L68.8,88.7L68.8,85.7L65.8,85.7L65.8,81.2L63.2,81.2L63.2,82.3L64.7,82.3L64.7,90.2L63.2,90.2L63.2,91.7L60.2,91.7L60.2,94.5L59.8,94.5L59.8,91.3L62.8,91.3L62.8,89.8L64.3,89.8L64.3,82.7L63.2,82.7L63.2,88.7L61.7,88.7L61.7,90.2L60,90.2L60,89.8L61.3,89.8L61.3,88.3L62.8,88.3L62.8,82.7L61.7,82.7L61.7,84.2L54.2,84.2L54.2,85.7L52.7,85.7L52.7,87.2L51.2,87.2L51.2,88.7L48.2,88.7L48.2,90.2L46.7,90.2L46.7,91.5L46.3,91.5L46.3,89.8L47.8,89.8L47.8,88.3L50.8,88.3L50.8,86.8L52.3,86.8L52.3,85.3L53.8,85.3L53.8,83.8L61.3,83.8L61.3,82.3z" stroke="none"/><path d="M49.3,55.3L49.3,40.3L50.8,40.3L50.8,38.8L64.3,38.8L64.3,31.3L66,31.3L66,31.7L64.7,31.7L64.7,39.2L51.2,39.2L51.2,40.7L49.7,40.7L49.7,55.3L53.8,55.3L53.8,52.3L56.8,52.3L56.8,47.8L58.3,47.8L58.3,42L58.7,42L58.7,48.2L57.2,48.2L57.2,52.7L54.2,52.7L54.2,55.7L49.7,55.7L49.7,67.7L48.2,67.7L48.2,70.3L54.2,70.3L54.2,71.8L58.7,71.8L58.7,75.2L57,75.2L57,74.8L58.3,74.8L58.3,72.2L53.8,72.2L53.8,70.7L47.8,70.7L47.8,67.3L49.3,67.3L49.3,55.7L48.2,55.7L48.2,63.2L40.3,63.2L40.3,48.2L31.3,48.2L31.3,46.7L29.8,46.7L29.8,45.2L27.2,45.2L27.2,67.7L25.7,67.7L25.7,69.2L24.2,69.2L24.2,73.7L18,73.7L18,73.3L23.8,73.3L23.8,68.8L25.3,68.8L25.3,67.3L26.8,67.3L26.8,44.8L30.2,44.8L30.2,46.3L31.7,46.3L31.7,47.8L40.7,47.8L40.7,62.8L47.8,62.8L47.8,55.3z" stroke="none"/><path d="M46.3,34.3L46.3,23.8L50.8,23.8L50.8,20.8L52.3,20.8L52.3,16.3L56.8,16.3L56.8,14.8L60,14.8L60,15.2L57.2,15.2L57.2,16.7L52.7,16.7L52.7,21.2L51.2,21.2L51.2,24.2L46.7,24.2L46.7,34.3L58.3,34.3L58.3,31.3L59.8,31.3L59.8,26.8L61.3,26.8L61.3,22.3L62.8,22.3L62.8,19.3L64.3,19.3L64.3,17.8L66,17.8L66,18.2L64.7,18.2L64.7,19.7L63.2,19.7L63.2,22.7L61.7,22.7L61.7,27.2L60.2,27.2L60.2,31.7L58.7,31.7L58.7,34.7L46.7,34.7L46.7,45.2L45.2,45.2L45.2,49.7L42.2,49.7L42.2,61.5L41.8,61.5L41.8,49.3L44.8,49.3L44.8,44.8L46.3,44.8L46.3,34.7L21.2,34.7L21.2,40.7L19.7,40.7L19.7,45.2L18.2,45.2L18.2,48L17.8,48L17.8,44.8L19.3,44.8L19.3,40.3L20.8,40.3L20.8,34.3z" stroke="none"/><path d="M40.5,16.7L40.5,16.3L42,16.3L42,16.7z" stroke="none"/><path d="M7.5,61.7L7.5,61.3L10.5,61.3L10.5,61.7z" stroke="none"/><path d="M95.8,21L96.2,21L96.2,24L95.8,24z" stroke="none"/><path d="M85.5,15.2L85.5,14.8L86.8,14.8L86.8,13.3L88.5,13.3L88.5,13.7L87.2,13.7L87.2,15.2z" stroke="none"/><path d="M43.5,101.8L43.5,102.2L37.5,102.2L37.5,101.8z" stroke="none"/><path d="M88.3,22.5L88.7,22.5L88.7,26.8L90.2,26.8L90.2,28.5L89.8,28.5L89.8,27.2L88.3,27.2z" stroke="none"/><path d="M101.8,9L102.2,9L102.2,13.7L100.7,13.7L100.7,15L100.3,15L100.3,13.3L101.8,13.3z" stroke="none"/><path d="M19.3,13.5L19.7,13.5L19.7,19.3L22.5,19.3L22.5,19.7L19.3,19.7z" stroke="none"/><path d="M94.7,81L94.3,81L94.3,73.5L94.7,73.5z" stroke="none"/><path d="M8.8,69L9.2,69L9.2,70.7L7.7,70.7L7.7,73.7L6.2,73.7L6.2,75.2L4.5,75.2L4.5,74.8L5.8,74.8L5.8,73.3L7.3,73.3L7.3,70.3L8.8,70.3z" stroke="none"/><path d="M64.5,100.3L64.5,100.7L62.8,100.7L62.8,99.2L61.3,99.2L61.3,97.7L57,97.7L57,97.3L61.7,97.3L61.7,98.8L63.2,98.8L63.2,100.3z" stroke="none"/><path d="M90,40.7L90,40.3L91.7,40.3L91.7,43.3L97.5,43.3L97.5,43.7L91.3,43.7L91.3,40.7z" stroke="none"/><path d="M7.7,67.5L7.3,67.5L7.3,66.2L5.8,66.2L5.8,58.3L7.5,58.3L7.5,58.7L6.2,58.7L6.2,65.8L7.7,65.8z" stroke="none"/><path d="M91.7,15L91.3,15L91.3,12.2L85.3,12.2L85.3,6.2L82.7,6.2L82.7,13.5L82.3,13.5L82.3,5.8L85.7,5.8L85.7,11.8L91.7,11.8z" stroke="none"/><path d="M23.8,15L24.2,15L24.2,21.2L21.2,21.2L21.2,22.7L18.2,22.7L18.2,24.2L13.5,24.2L13.5,23.8L17.8,23.8L17.8,22.3L20.8,22.3L20.8,20.8L23.8,20.8z" stroke="none"/><path d="M25.3,7.5L25.7,7.5L25.7,24.2L21,24.2L21,23.8L25.3,23.8z" stroke="none"/><path d="M73.5,51.2L73.5,50.8L82.7,50.8L82.7,52.3L87.2,52.3L87.2,53.8L90.2,53.8L90.2,57L89.8,57L89.8,54.2L86.8,54.2L86.8,52.7L82.3,52.7L82.3,51.2z" stroke="none"/><path d="M13.3,66L13.7,66L13.7,72.2L12.2,72.2L12.2,75.2L9.2,75.2L9.2,78.2L6.2,78.2L6.2,81.2L4.7,81.2L4.7,84L4.3,84L4.3,80.8L5.8,80.8L5.8,77.8L8.8,77.8L8.8,74.8L11.8,74.8L11.8,71.8L13.3,71.8z" stroke="none"/><path d="M76.7,100.5L76.3,100.5L76.3,92.8L79.3,92.8L79.3,91.3L82.3,91.3L82.3,76.3L83.8,76.3L83.8,67.3L85.3,67.3L85.3,57.2L81.2,57.2L81.2,58.7L79.7,58.7L79.7,66.2L78.2,66.2L78.2,69.2L76.7,69.2L76.7,72.2L75.2,72.2L75.2,73.7L73.7,73.7L73.7,79.5L73.3,79.5L73.3,73.3L74.8,73.3L74.8,71.8L76.3,71.8L76.3,68.8L77.8,68.8L77.8,65.8L79.3,65.8L79.3,58.3L80.8,58.3L80.8,56.8L85.7,56.8L85.7,67.7L84.2,67.7L84.2,76.7L82.7,76.7L82.7,91.7L79.7,91.7L79.7,93.2L76.7,93.2z" stroke="none"/><path d="M4.5,18.2L4.5,17.8L6.2,17.8L6.2,20.8L7.7,20.8L7.7,22.3L9.2,22.3L9.2,23.8L10.7,23.8L10.7,25.3L22.7,25.3L22.7,26.8L27.2,26.8L27.2,28.5L26.8,28.5L26.8,27.2L22.3,27.2L22.3,25.7L10.3,25.7L10.3,24.2L8.8,24.2L8.8,22.7L7.3,22.7L7.3,21.2L5.8,21.2L5.8,18.2z" stroke="none"/><path d="M11.8,6L12.2,6L12.2,7.7L10.7,7.7L10.7,9.2L9.2,9.2L9.2,10.7L7.7,10.7L7.7,12.2L4.7,12.2L4.7,15.2L3.2,15.2L3.2,22.3L4.7,22.3L4.7,23.8L6.2,23.8L6.2,25.3L7.7,25.3L7.7,26.8L16.7,26.8L16.7,28.3L19.7,28.3L19.7,30L19.3,30L19.3,28.7L16.3,28.7L16.3,27.2L7.3,27.2L7.3,25.7L5.8,25.7L5.8,24.2L4.3,24.2L4.3,22.7L2.8,22.7L2.8,14.8L4.3,14.8L4.3,11.8L7.3,11.8L7.3,10.3L8.8,10.3L8.8,8.8L10.3,8.8L10.3,7.3L11.8,7.3z" stroke="none"/><path d="M33,83.8L33,84.2L6,84.2L6,83.8z" stroke="none"/><path d="M68.8,25.5L69.2,25.5L69.2,50.8L72.2,50.8L72.2,52.3L73.7,52.3L73.7,55.3L75,55.3L75,55.7L73.3,55.7L73.3,52.7L71.8,52.7L71.8,51.2L68.8,51.2z" stroke="none"/><path d="M10.7,67.5L10.3,67.5L10.3,62.8L11.8,62.8L11.8,60.2L10.3,60.2L10.3,57.2L4.7,57.2L4.7,73.7L3.2,73.7L3.2,92.8L4.7,92.8L4.7,97.5L4.3,97.5L4.3,93.2L2.8,93.2L2.8,73.3L4.3,73.3L4.3,56.8L10.7,56.8L10.7,59.8L12.2,59.8L12.2,63.2L10.7,63.2z" stroke="none"/><path d="M28.5,82.3L28.5,82.7L20.8,82.7L20.8,78.2L17.8,78.2L17.8,75.2L16.3,75.2L16.3,51.2L15,51.2L15,50.8L16.7,50.8L16.7,74.8L18.2,74.8L18.2,77.8L21.2,77.8L21.2,82.3z" stroke="none"/><path d="M100.3,67.5L100.7,67.5L100.7,69.2L93.2,69.2L93.2,75.2L90.2,75.2L90.2,76.7L88.7,76.7L88.7,82.7L87.2,82.7L87.2,93.2L85.7,93.2L85.7,100.7L79.7,100.7L79.7,102.2L74.8,102.2L74.8,99.2L71.8,99.2L71.8,93.2L70.5,93.2L70.5,92.8L72.2,92.8L72.2,98.8L75.2,98.8L75.2,101.8L79.3,101.8L79.3,100.3L85.3,100.3L85.3,92.8L86.8,92.8L86.8,82.3L88.3,82.3L88.3,76.3L89.8,76.3L89.8,74.8L92.8,74.8L92.8,68.8L100.3,68.8z" stroke="none"/><path d="M64.5,94.3L64.5,94.7L63.2,94.7L63.2,96.2L38.8,96.2L38.8,94.7L35.8,94.7L35.8,93.2L29.8,93.2L29.8,90.2L25.3,90.2L25.3,88.5L25.7,88.5L25.7,89.8L30.2,89.8L30.2,92.8L36.2,92.8L36.2,94.3L39.2,94.3L39.2,95.8L62.8,95.8L62.8,94.3z" stroke="none"/><path d="M70.3,13.5L70.7,13.5L70.7,41.8L79.7,41.8L79.7,46.3L82.7,46.3L82.7,49.3L84.2,49.3L84.2,51L83.8,51L83.8,49.7L82.3,49.7L82.3,46.7L79.3,46.7L79.3,42.2L70.3,42.2z" stroke="none"/><path d="M19.5,33.2L19.5,32.8L28.3,32.8L28.3,31.3L29.8,31.3L29.8,23.8L34.3,23.8L34.3,22.3L41.8,22.3L41.8,19.3L43.3,19.3L43.3,17.8L50.8,17.8L50.8,11.8L52.3,11.8L52.3,10.5L52.7,10.5L52.7,12.2L51.2,12.2L51.2,18.2L43.7,18.2L43.7,19.7L42.2,19.7L42.2,22.7L34.7,22.7L34.7,24.2L30.2,24.2L30.2,31.7L28.7,31.7L28.7,33.2z" stroke="none"/><path d="M52.3,88.5L52.7,88.5L52.7,90.2L51.2,90.2L51.2,91.7L49.7,91.7L49.7,93.2L37.3,93.2L37.3,91.7L35.8,91.7L35.8,90.2L31.3,90.2L31.3,88.7L28.3,88.7L28.3,87.2L24.2,87.2L24.2,88.7L22.7,88.7L22.7,90.2L15.2,90.2L15.2,94.7L12,94.7L12,94.3L14.8,94.3L14.8,89.8L22.3,89.8L22.3,88.3L23.8,88.3L23.8,86.8L28.7,86.8L28.7,88.3L31.7,88.3L31.7,89.8L36.2,89.8L36.2,91.3L37.7,91.3L37.7,92.8L49.3,92.8L49.3,91.3L50.8,91.3L50.8,89.8L52.3,89.8z" stroke="none"/><path d="M67.3,22.5L67.7,22.5L67.7,52.3L70.7,52.3L70.7,53.8L72.2,53.8L72.2,56.8L79.3,56.8L79.3,55.3L87.2,55.3L87.2,58.3L95.8,58.3L95.8,47.8L100.3,47.8L100.3,46.3L102,46.3L102,46.7L100.7,46.7L100.7,48.2L96.2,48.2L96.2,58.7L86.8,58.7L86.8,55.7L79.7,55.7L79.7,57.2L71.8,57.2L71.8,54.2L70.3,54.2L70.3,52.7L67.3,52.7z" stroke="none"/><path d="M58.7,27L58.3,27L58.3,17.8L61.3,17.8L61.3,13.7L58.3,13.7L58.3,9.2L40.7,9.2L40.7,12.2L37.7,12.2L37.7,13.7L36.2,13.7L36.2,15.2L31.7,15.2L31.7,16.7L30.2,16.7L30.2,22.7L28.7,22.7L28.7,30.2L21.2,30.2L21.2,31.7L18.2,31.7L18.2,40.5L17.8,40.5L17.8,31.3L20.8,31.3L20.8,29.8L28.3,29.8L28.3,22.3L29.8,22.3L29.8,16.3L31.3,16.3L31.3,14.8L35.8,14.8L35.8,13.3L37.3,13.3L37.3,11.8L40.3,11.8L40.3,8.8L58.7,8.8L58.7,13.3L61.7,13.3L61.7,18.2L58.7,18.2z" stroke="none"/><path d="M12.2,12L11.8,12L11.8,10.3L14.8,10.3L14.8,7.3L23.8,7.3L23.8,5.8L55.3,5.8L55.3,4.5L55.7,4.5L55.7,6.2L24.2,6.2L24.2,7.7L15.2,7.7L15.2,10.7L12.2,10.7z" stroke="none"/><path d="M12.2,82.5L11.8,82.5L11.8,77.8L13.3,77.8L13.3,73.3L14.8,73.3L14.8,57.2L13.3,57.2L13.3,55.7L2.8,55.7L2.8,37.3L10.5,37.3L10.5,37.7L3.2,37.7L3.2,55.3L13.7,55.3L13.7,56.8L15.2,56.8L15.2,73.7L13.7,73.7L13.7,78.2L12.2,78.2z" stroke="none"/><path d="M2.8,96L3.2,96L3.2,98.8L5.8,98.8L5.8,94.3L8.8,94.3L8.8,89.8L10.3,89.8L10.3,88.3L20.8,88.3L20.8,86.8L22.3,86.8L22.3,85.3L34.3,85.3L34.3,82.7L29.8,82.7L29.8,81.2L25.3,81.2L25.3,70.3L26.8,70.3L26.8,68.8L28.3,68.8L28.3,58.5L28.7,58.5L28.7,69.2L27.2,69.2L27.2,70.7L25.7,70.7L25.7,80.8L30.2,80.8L30.2,82.3L34.7,82.3L34.7,85.7L22.7,85.7L22.7,87.2L21.2,87.2L21.2,88.7L10.7,88.7L10.7,90.2L9.2,90.2L9.2,94.7L6.2,94.7L6.2,99.2L2.8,99.2z" stroke="none"/><path d="M22.5,96.2L22.5,95.8L37.7,95.8L37.7,97.3L51.2,97.3L51.2,98.8L52.7,98.8L52.7,100.3L61.7,100.3L61.7,101.8L65.8,101.8L65.8,100.3L68.8,100.3L68.8,97.3L70.5,97.3L70.5,97.7L69.2,97.7L69.2,100.7L66.2,100.7L66.2,102.2L61.3,102.2L61.3,100.7L52.3,100.7L52.3,99.2L50.8,99.2L50.8,97.7L37.3,97.7L37.3,96.2z" stroke="none"/><path d="M93,42.2L93,41.8L99.2,41.8L99.2,43.3L103.7,43.3L103.7,82.7L102.2,82.7L102.2,84.2L100.7,84.2L100.7,90L100.3,90L100.3,83.8L101.8,83.8L101.8,82.3L103.3,82.3L103.3,43.7L98.8,43.7L98.8,42.2z" stroke="none"/><path d="M16.3,91.5L16.7,91.5L16.7,97.7L10.7,97.7L10.7,99.2L9.2,99.2L9.2,100.7L1.3,100.7L1.3,35.8L12.2,35.8L12.2,39.2L10.7,39.2L10.7,40.7L7.7,40.7L7.7,42L7.3,42L7.3,40.3L10.3,40.3L10.3,38.8L11.8,38.8L11.8,36.2L1.7,36.2L1.7,100.3L8.8,100.3L8.8,98.8L10.3,98.8L10.3,97.3L16.3,97.3z" stroke="none"/><path d="M90,64.7L90,64.3L99.2,64.3L99.2,65.8L102.2,65.8L102.2,81.2L99.2,81.2L99.2,92.8L103.7,92.8L103.7,97.7L97.7,97.7L97.7,100.7L91.7,100.7L91.7,102.2L81.2,102.2L81.2,103.7L46.3,103.7L46.3,100.7L43.5,100.7L43.5,100.3L46.7,100.3L46.7,103.3L80.8,103.3L80.8,101.8L91.3,101.8L91.3,100.3L97.3,100.3L97.3,97.3L103.3,97.3L103.3,93.2L98.8,93.2L98.8,80.8L101.8,80.8L101.8,66.2L98.8,66.2L98.8,64.7z" stroke="none"/><path d="M46.7,58.5L46.3,58.5L46.3,47.8L47.8,47.8L47.8,38.8L49.3,38.8L49.3,37.3L59.8,37.3L59.8,34.3L61.3,34.3L61.3,29.8L62.8,29.8L62.8,23.8L64.3,23.8L64.3,22.3L65.8,22.3L65.8,19.3L67.3,19.3L67.3,10.3L68.8,10.3L68.8,5.8L80.8,5.8L80.8,4.3L87.2,4.3L87.2,10.3L88.5,10.3L88.5,10.7L86.8,10.7L86.8,4.7L81.2,4.7L81.2,6.2L69.2,6.2L69.2,10.7L67.7,10.7L67.7,19.7L66.2,19.7L66.2,22.7L64.7,22.7L64.7,24.2L63.2,24.2L63.2,30.2L61.7,30.2L61.7,34.7L60.2,34.7L60.2,37.7L49.7,37.7L49.7,39.2L48.2,39.2L48.2,48.2L46.7,48.2z" stroke="none"/></svg>