<svg version="1.1" width="105" height="105" xmlns="http://www.w3.org/2000/svg"><path d="M64.3,6.2L54.2,6.2L54.2,10.7L49.7,10.7L49.7,13.7L48.2,13.7L48.2,15.2L46.7,15.2L46.7,16.7L45.2,16.7L45.2,18L44.8,18L44.8,16.3L46.3,16.3L46.3,14.8L47.8,14.8L47.8,13.3L49.3,13.3L49.3,10.3L53.8,10.3L53.8,5.8L64.7,5.8L64.7,17.8L65.8,17.8L65.8,16.3L67.5,16.3L67.5,16.7L66.2,16.7L66.2,18.2L64.7,18.2L64.7,19.3L87,19.3L87,19.7L64.3,19.7z" stroke="none"/><path d="M26.8,75.2L25.3,75.2L25.3,73.7L21,73.7L21,73.3L25.7,73.3L25.7,74.8L27.2,74.8L27.2,82.3L30.2,82.3L30.2,89.8L31.7,89.8L31.7,92.8L33.2,92.8L33.2,95.8L34.5,95.8L34.5,96.2L32.8,96.2L32.8,93.2L31.3,93.2L31.3,90.2L29.8,90.2L29.8,82.7L27.2,82.7L27.2,83.8L28.7,83.8L28.7,85.5L28.3,85.5L28.3,84.2L26.8,84.2z" stroke="none"/><path d="M60.2,80.8L60.2,85.3L61.7,85.3L61.7,86.8L66.2,86.8L66.2,88.3L73.7,88.3L73.7,91.3L78.2,91.3L78.2,92.8L85.7,92.8L85.7,94.5L85.3,94.5L85.3,93.2L77.8,93.2L77.8,91.7L73.3,91.7L73.3,88.7L65.8,88.7L65.8,87.2L61.3,87.2L61.3,85.7L59.8,85.7L59.8,81.2L58.7,81.2L58.7,82.7L55.7,82.7L55.7,84.2L54.2,84.2L54.2,87L53.8,87L53.8,83.8L55.3,83.8L55.3,82.3L58.3,82.3L58.3,81.2L55.3,81.2L55.3,79.7L53.8,79.7L53.8,75.2L52.3,75.2L52.3,72.2L49.3,72.2L49.3,69.2L46.3,69.2L46.3,67.7L44.8,67.7L44.8,64.7L35.8,64.7L35.8,63L36.2,63L36.2,64.3L45.2,64.3L45.2,67.3L46.7,67.3L46.7,68.8L49.7,68.8L49.7,71.8L52.7,71.8L52.7,74.8L54.2,74.8L54.2,79.3L55.7,79.3L55.7,80.8z" stroke="none"/><path d="M55.3,17.8L55.3,8.8L61.3,8.8L61.3,7.5L61.7,7.5L61.7,9.2L55.7,9.2L55.7,18.2L48.2,18.2L48.2,21.2L45.2,21.2L45.2,22.7L42.2,22.7L42.2,24.2L40.7,24.2L40.7,25.7L39,25.7L39,25.3L40.3,25.3L40.3,23.8L41.8,23.8L41.8,22.3L44.8,22.3L44.8,20.8L47.8,20.8L47.8,18.2L46.7,18.2L46.7,19.7L39.2,19.7L39.2,21.2L37.5,21.2L37.5,20.8L38.8,20.8L38.8,19.3L46.3,19.3L46.3,17.8z" stroke="none"/><path d="M37.7,83.8L37.7,88.3L39.2,88.3L39.2,89.8L40.7,89.8L40.7,91.3L43.7,91.3L43.7,94.3L45.2,94.3L45.2,101.8L48,101.8L48,102.2L44.8,102.2L44.8,94.7L43.3,94.7L43.3,91.7L40.3,91.7L40.3,90.2L38.8,90.2L38.8,88.7L37.3,88.7L37.3,84.2L36.2,84.2L36.2,97.7L11.8,97.7L11.8,96.2L8.8,96.2L8.8,91.5L9.2,91.5L9.2,95.8L12.2,95.8L12.2,97.3L35.8,97.3L35.8,84.2L34.3,84.2L34.3,59.8L44.8,59.8L44.8,58.3L52.5,58.3L52.5,58.7L45.2,58.7L45.2,60.2L34.7,60.2L34.7,83.8z" stroke="none"/><path d="M14.8,67.3L14.8,65.8L16.3,65.8L16.3,64.5L16.7,64.5L16.7,66.2L15.2,66.2L15.2,67.3L16.7,67.3L16.7,79.7L15.2,79.7L15.2,85.7L12.2,85.7L12.2,90.2L7.7,90.2L7.7,97.3L10.7,97.3L10.7,98.8L37.3,98.8L37.3,96L37.7,96L37.7,99.2L10.3,99.2L10.3,97.7L7.3,97.7L7.3,89.8L11.8,89.8L11.8,85.3L14.8,85.3L14.8,79.3L16.3,79.3L16.3,67.7L15.2,67.7L15.2,69.2L7.3,69.2L7.3,51.2L4.3,51.2L4.3,48L4.7,48L4.7,50.8L7.7,50.8L7.7,68.8L14.8,68.8L14.8,67.7L9,67.7L9,67.3z" stroke="none"/><path d="M86.8,62.8L86.8,49.3L88.3,49.3L88.3,48L88.7,48L88.7,49.7L87.2,49.7L87.2,62.8L92.8,62.8L92.8,61.3L94.3,61.3L94.3,58.5L94.7,58.5L94.7,61.7L93.2,61.7L93.2,63.2L87.2,63.2L87.2,67.7L85.7,67.7L85.7,69.2L76.7,69.2L76.7,70.5L76.3,70.5L76.3,68.8L85.3,68.8L85.3,67.3L86.8,67.3L86.8,63.2L79.7,63.2L79.7,66.2L75.2,66.2L75.2,71.8L87.2,71.8L87.2,76.3L88.5,76.3L88.5,76.7L86.8,76.7L86.8,72.2L74.8,72.2L74.8,65.8L79.3,65.8L79.3,62.8z" stroke="none"/><path d="M73.3,53.8L73.3,43.3L74.8,43.3L74.8,41.8L79.3,41.8L79.3,39L79.7,39L79.7,42.2L75.2,42.2L75.2,43.7L73.7,43.7L73.7,53.8L74.8,53.8L74.8,49.3L77.8,49.3L77.8,47.8L85.3,47.8L85.3,46.3L90.2,46.3L90.2,58.5L89.8,58.5L89.8,46.7L85.7,46.7L85.7,48.2L78.2,48.2L78.2,49.7L75.2,49.7L75.2,54.2L73.7,54.2L73.7,61.7L72.2,61.7L72.2,63.2L70.7,63.2L70.7,64.7L67.7,64.7L67.7,66.2L66.2,66.2L66.2,67.7L64.7,67.7L64.7,69.2L63.2,69.2L63.2,75L62.8,75L62.8,68.8L64.3,68.8L64.3,67.3L65.8,67.3L65.8,65.8L67.3,65.8L67.3,64.3L70.3,64.3L70.3,62.8L71.8,62.8L71.8,61.3L73.3,61.3L73.3,54.2L71.8,54.2L71.8,51.2L68.8,51.2L68.8,49.7L64.3,49.7L64.3,46.7L61.5,46.7L61.5,46.3L64.7,46.3L64.7,49.3L69.2,49.3L69.2,50.8L72.2,50.8L72.2,53.8z" stroke="none"/><path d="M61.3,43.3L61.3,28.3L63,28.3L63,28.7L61.7,28.7L61.7,43.3L71.8,43.3L71.8,41.8L73.3,41.8L73.3,38.8L77.8,38.8L77.8,37.3L91.3,37.3L91.3,34.3L93,34.3L93,34.7L91.7,34.7L91.7,37.7L78.2,37.7L78.2,39.2L73.7,39.2L73.7,42.2L72.2,42.2L72.2,43.7L61.7,43.7L61.7,45.2L60.2,45.2L60.2,60.2L58.7,60.2L58.7,63.2L57.2,63.2L57.2,67.7L51.2,67.7L51.2,69L50.8,69L50.8,67.3L56.8,67.3L56.8,62.8L58.3,62.8L58.3,59.8L59.8,59.8L59.8,44.8L61.3,44.8L61.3,43.7L54.2,43.7L54.2,46.7L51.2,46.7L51.2,48.2L45.2,48.2L45.2,49.7L43.5,49.7L43.5,49.3L44.8,49.3L44.8,47.8L50.8,47.8L50.8,46.3L53.8,46.3L53.8,43.3z" stroke="none"/><path d="M29.8,26.8L29.8,11.8L32.8,11.8L32.8,10.3L39,10.3L39,10.7L33.2,10.7L33.2,12.2L30.2,12.2L30.2,26.8L31.7,26.8L31.7,42.2L28.7,42.2L28.7,46.7L19.7,46.7L19.7,49.5L19.3,49.5L19.3,46.3L28.3,46.3L28.3,41.8L31.3,41.8L31.3,27.2L30.2,27.2L30.2,39.2L27.2,39.2L27.2,42.2L25.7,42.2L25.7,45L25.3,45L25.3,41.8L26.8,41.8L26.8,38.8L29.8,38.8L29.8,27.2L28.3,27.2L28.3,10.3L29.8,10.3L29.8,8.8L35.8,8.8L35.8,6L36.2,6L36.2,9.2L30.2,9.2L30.2,10.7L28.7,10.7L28.7,26.8z" stroke="none"/><path d="M70.5,61.3L70.5,61.7L67.5,61.7L67.5,61.3z" stroke="none"/><path d="M97.7,70.5L97.3,70.5L97.3,67.7L96,67.7L96,67.3L97.7,67.3z" stroke="none"/><path d="M10.5,72.2L10.5,71.8L13.3,71.8L13.3,70.3L15,70.3L15,70.7L13.7,70.7L13.7,72.2z" stroke="none"/><path d="M46.5,49.7L46.5,49.3L49.7,49.3L49.7,50.8L52.5,50.8L52.5,51.2L49.3,51.2L49.3,49.7z" stroke="none"/><path d="M84,77.8L84,78.2L76.7,78.2L76.7,79.5L76.3,79.5L76.3,77.8z" stroke="none"/><path d="M58.5,97.7L58.5,97.3L60.2,97.3L60.2,98.8L63.2,98.8L63.2,100.3L66,100.3L66,100.7L62.8,100.7L62.8,99.2L59.8,99.2L59.8,97.7z" stroke="none"/><path d="M31.5,61.3L31.5,61.7L22.7,61.7L22.7,63.2L21,63.2L21,62.8L22.3,62.8L22.3,61.3z" stroke="none"/><path d="M30,102.2L30,101.8L38.8,101.8L38.8,100.3L40.3,100.3L40.3,99L40.7,99L40.7,100.7L39.2,100.7L39.2,102.2z" stroke="none"/><path d="M73.5,84.2L73.5,83.8L81.2,83.8L81.2,85.3L84.2,85.3L84.2,88.5L83.8,88.5L83.8,85.7L80.8,85.7L80.8,84.2z" stroke="none"/><path d="M100.5,89.8L100.5,90.2L98.8,90.2L98.8,78L99.2,78L99.2,89.8z" stroke="none"/><path d="M85.5,98.8L85.5,99.2L76.3,99.2L76.3,97.7L73.3,97.7L73.3,96L73.7,96L73.7,97.3L76.7,97.3L76.7,98.8z" stroke="none"/><path d="M13.5,73.3L13.5,73.7L8.8,73.7L8.8,70.7L5.8,70.7L5.8,55.7L4.3,55.7L4.3,54.2L2.8,54.2L2.8,46.3L6.2,46.3L6.2,47.8L7.7,47.8L7.7,49.3L9.2,49.3L9.2,61.5L8.8,61.5L8.8,49.7L7.3,49.7L7.3,48.2L5.8,48.2L5.8,46.7L3.2,46.7L3.2,53.8L4.7,53.8L4.7,55.3L6.2,55.3L6.2,70.3L9.2,70.3L9.2,73.3z" stroke="none"/><path d="M85.5,25.3L85.5,25.7L73.7,25.7L73.7,30L73.3,30L73.3,25.3z" stroke="none"/><path d="M85.5,70.7L85.5,70.3L88.3,70.3L88.3,67.3L89.8,67.3L89.8,65.8L91.3,65.8L91.3,64.3L95.8,64.3L95.8,61.5L96.2,61.5L96.2,64.7L91.7,64.7L91.7,66.2L90.2,66.2L90.2,67.7L88.7,67.7L88.7,70.7z" stroke="none"/><path d="M30,77.8L30,78.2L28.3,78.2L28.3,73.7L26.8,73.7L26.8,72.2L19.7,72.2L19.7,79.7L18.2,79.7L18.2,81.2L16.5,81.2L16.5,80.8L17.8,80.8L17.8,79.3L19.3,79.3L19.3,71.8L27.2,71.8L27.2,73.3L28.7,73.3L28.7,77.8z" stroke="none"/><path d="M72,15.2L72,14.8L85.7,14.8L85.7,17.8L88.7,17.8L88.7,21.2L82.7,21.2L82.7,22.7L72.2,22.7L72.2,28.7L70.7,28.7L70.7,30L70.3,30L70.3,28.3L71.8,28.3L71.8,22.3L82.3,22.3L82.3,20.8L88.3,20.8L88.3,18.2L85.3,18.2L85.3,15.2z" stroke="none"/><path d="M33,65.8L33,66.2L22.7,66.2L22.7,67.7L19.7,67.7L19.7,69.2L18,69.2L18,68.8L19.3,68.8L19.3,67.3L22.3,67.3L22.3,65.8z" stroke="none"/><path d="M5.8,10.5L6.2,10.5L6.2,18.2L4.7,18.2L4.7,25.3L6.2,25.3L6.2,27L5.8,27L5.8,25.7L4.3,25.7L4.3,17.8L5.8,17.8z" stroke="none"/><path d="M43.7,48L43.3,48L43.3,30.2L39,30.2L39,29.8L43.7,29.8z" stroke="none"/><path d="M81,101.8L81,102.2L74.8,102.2L74.8,100.7L73.3,100.7L73.3,99.2L68.8,99.2L68.8,96.2L65.8,96.2L65.8,90L66.2,90L66.2,95.8L69.2,95.8L69.2,98.8L73.7,98.8L73.7,100.3L75.2,100.3L75.2,101.8z" stroke="none"/><path d="M34.3,42L34.7,42L34.7,45.2L33.2,45.2L33.2,46.7L31.7,46.7L31.7,48.2L30.2,48.2L30.2,49.7L28.7,49.7L28.7,51.2L22.7,51.2L22.7,52.7L18,52.7L18,52.3L22.3,52.3L22.3,50.8L28.3,50.8L28.3,49.3L29.8,49.3L29.8,47.8L31.3,47.8L31.3,46.3L32.8,46.3L32.8,44.8L34.3,44.8z" stroke="none"/><path d="M30.2,45L29.8,45L29.8,43.3L32.8,43.3L32.8,25.5L33.2,25.5L33.2,43.7L30.2,43.7z" stroke="none"/><path d="M98.8,15L99.2,15L99.2,31.7L97.7,31.7L97.7,33.2L96.2,33.2L96.2,36L95.8,36L95.8,32.8L97.3,32.8L97.3,31.3L98.8,31.3z" stroke="none"/><path d="M100.7,88.5L100.3,88.5L100.3,73.7L95.8,73.7L95.8,69.2L94.3,69.2L94.3,67.5L94.7,67.5L94.7,68.8L96.2,68.8L96.2,73.3L100.7,73.3z" stroke="none"/><path d="M58.5,58.3L58.5,58.7L54.2,58.7L54.2,60.2L48.2,60.2L48.2,61.7L36,61.7L36,61.3L47.8,61.3L47.8,59.8L53.8,59.8L53.8,58.3z" stroke="none"/><path d="M75,30.2L75,29.8L83.8,29.8L83.8,28.3L85.3,28.3L85.3,26.8L86.8,26.8L86.8,23.8L89.8,23.8L89.8,12L90.2,12L90.2,24.2L87.2,24.2L87.2,27.2L85.7,27.2L85.7,28.7L84.2,28.7L84.2,30.2z" stroke="none"/><path d="M94.7,39L94.3,39L94.3,33.2L82.7,33.2L82.7,34.7L70.7,34.7L70.7,36L70.3,36L70.3,34.3L82.3,34.3L82.3,32.8L94.7,32.8z" stroke="none"/><path d="M51.2,42L50.8,42L50.8,31.3L52.3,31.3L52.3,29.8L56.8,29.8L56.8,28.3L58.3,28.3L58.3,26.8L67.7,26.8L67.7,31.3L86.8,31.3L86.8,29.8L88.3,29.8L88.3,26.8L89.8,26.8L89.8,25.3L92.8,25.3L92.8,23.8L94.3,23.8L94.3,19.3L95.8,19.3L95.8,14.8L97.3,14.8L97.3,13.3L100.7,13.3L100.7,39.2L99.2,39.2L99.2,40.7L82.7,40.7L82.7,43.7L81.2,43.7L81.2,46.7L76.7,46.7L76.7,48L76.3,48L76.3,46.3L80.8,46.3L80.8,43.3L82.3,43.3L82.3,40.3L98.8,40.3L98.8,38.8L100.3,38.8L100.3,13.7L97.7,13.7L97.7,15.2L96.2,15.2L96.2,19.7L94.7,19.7L94.7,24.2L93.2,24.2L93.2,25.7L90.2,25.7L90.2,27.2L88.7,27.2L88.7,30.2L87.2,30.2L87.2,31.7L67.3,31.7L67.3,27.2L58.7,27.2L58.7,28.7L57.2,28.7L57.2,30.2L52.7,30.2L52.7,31.7L51.2,31.7z" stroke="none"/><path d="M79.5,20.8L79.5,21.2L70.7,21.2L70.7,22.7L67.7,22.7L67.7,24.2L61.7,24.2L61.7,25.7L57.2,25.7L57.2,27.2L54.2,27.2L54.2,28.5L53.8,28.5L53.8,26.8L56.8,26.8L56.8,25.3L61.3,25.3L61.3,23.8L67.3,23.8L67.3,22.3L70.3,22.3L70.3,20.8z" stroke="none"/><path d="M16.5,28.7L16.5,28.3L17.8,28.3L17.8,26.8L19.3,26.8L19.3,14.8L20.8,14.8L20.8,13.3L23.8,13.3L23.8,11.8L25.3,11.8L25.3,10.3L26.8,10.3L26.8,7.3L28.3,7.3L28.3,5.8L31.3,5.8L31.3,4.3L37.7,4.3L37.7,9L37.3,9L37.3,4.7L31.7,4.7L31.7,6.2L28.7,6.2L28.7,7.7L27.2,7.7L27.2,10.7L25.7,10.7L25.7,12.2L24.2,12.2L24.2,13.7L21.2,13.7L21.2,15.2L19.7,15.2L19.7,27.2L18.2,27.2L18.2,28.7z" stroke="none"/><path d="M34.3,21L34.7,21L34.7,25.3L37.7,25.3L37.7,28.3L45.2,28.3L45.2,35.8L46.7,35.8L46.7,38.8L48.2,38.8L48.2,43.3L52.3,43.3L52.3,41.8L58.5,41.8L58.5,42.2L52.7,42.2L52.7,43.7L47.8,43.7L47.8,39.2L46.3,39.2L46.3,36.2L44.8,36.2L44.8,28.7L37.3,28.7L37.3,25.7L34.3,25.7z" stroke="none"/><path d="M59.8,67.5L60.2,67.5L60.2,71.8L61.7,71.8L61.7,76.3L85.7,76.3L85.7,77.8L89.8,77.8L89.8,68.8L92.8,68.8L92.8,65.8L97.3,65.8L97.3,57.2L93.2,57.2L93.2,60L92.8,60L92.8,56.8L97.7,56.8L97.7,66.2L93.2,66.2L93.2,69.2L90.2,69.2L90.2,78.2L85.3,78.2L85.3,76.7L61.3,76.7L61.3,72.2L59.8,72.2z" stroke="none"/><path d="M6,22.7L6,22.3L8.8,22.3L8.8,19.3L10.3,19.3L10.3,17.8L11.8,17.8L11.8,16.3L13.3,16.3L13.3,14.8L14.8,14.8L14.8,11.8L16.3,11.8L16.3,10.3L20.8,10.3L20.8,8.8L23.8,8.8L23.8,7.3L25.3,7.3L25.3,5.8L26.8,5.8L26.8,4.3L29.8,4.3L29.8,2.8L39.2,2.8L39.2,7.3L40.7,7.3L40.7,18.2L36.2,18.2L36.2,22.3L40.3,22.3L40.3,20.8L42,20.8L42,21.2L40.7,21.2L40.7,22.7L35.8,22.7L35.8,17.8L40.3,17.8L40.3,7.7L38.8,7.7L38.8,3.2L30.2,3.2L30.2,4.7L27.2,4.7L27.2,6.2L25.7,6.2L25.7,7.7L24.2,7.7L24.2,9.2L21.2,9.2L21.2,10.7L16.7,10.7L16.7,12.2L15.2,12.2L15.2,15.2L13.7,15.2L13.7,16.7L12.2,16.7L12.2,18.2L10.7,18.2L10.7,19.7L9.2,19.7L9.2,22.7z" stroke="none"/><path d="M2.8,64.5L3.2,64.5L3.2,97.3L6.2,97.3L6.2,98.8L7.7,98.8L7.7,100.3L24,100.3L24,100.7L7.3,100.7L7.3,99.2L5.8,99.2L5.8,97.7L2.8,97.7z" stroke="none"/><path d="M18.2,67.5L17.8,67.5L17.8,54.2L16.3,54.2L16.3,31.7L14.8,31.7L14.8,25.7L12,25.7L12,25.3L15.2,25.3L15.2,31.3L16.7,31.3L16.7,53.8L18.2,53.8z" stroke="none"/><path d="M75,9.2L75,8.8L97.7,8.8L97.7,10.3L102.2,10.3L102.2,91.7L79.3,91.7L79.3,90.2L76.3,90.2L76.3,88.7L74.8,88.7L74.8,87.2L68.8,87.2L68.8,85.7L67.3,85.7L67.3,84.2L65.8,84.2L65.8,82.7L64.3,82.7L64.3,81.2L62.8,81.2L62.8,79.7L59.8,79.7L59.8,78.2L58.3,78.2L58.3,64.3L59.8,64.3L59.8,61.3L65.8,61.3L65.8,59.8L68.8,59.8L68.8,53.8L70.3,53.8L70.3,52.5L70.7,52.5L70.7,54.2L69.2,54.2L69.2,60.2L66.2,60.2L66.2,61.7L60.2,61.7L60.2,64.7L58.7,64.7L58.7,77.8L60.2,77.8L60.2,79.3L63.2,79.3L63.2,80.8L64.7,80.8L64.7,82.3L66.2,82.3L66.2,83.8L67.7,83.8L67.7,85.3L69.2,85.3L69.2,86.8L75.2,86.8L75.2,88.3L76.7,88.3L76.7,89.8L79.7,89.8L79.7,91.3L101.8,91.3L101.8,10.7L97.3,10.7L97.3,9.2z" stroke="none"/><path d="M96.2,13.5L95.8,13.5L95.8,12.2L92.8,12.2L92.8,10.7L73.3,10.7L73.3,9.2L71.8,9.2L71.8,6.2L67.3,6.2L67.3,4.7L52.7,4.7L52.7,6.2L51,6.2L51,5.8L52.3,5.8L52.3,4.3L67.7,4.3L67.7,5.8L72.2,5.8L72.2,8.8L73.7,8.8L73.7,10.3L93.2,10.3L93.2,11.8L96.2,11.8z" stroke="none"/><path d="M13.5,37.3L13.5,37.7L12.2,37.7L12.2,39.2L10.7,39.2L10.7,42.2L9.2,42.2L9.2,43.7L3.2,43.7L3.2,45.2L1.7,45.2L1.7,98.8L4.7,98.8L4.7,101.8L27.2,101.8L27.2,103.3L49.3,103.3L49.3,93.2L46.3,93.2L46.3,88.7L43.3,88.7L43.3,87.2L41.8,87.2L41.8,84.2L40.3,84.2L40.3,81.2L37.3,81.2L37.3,79.7L35.8,79.7L35.8,78L36.2,78L36.2,79.3L37.7,79.3L37.7,80.8L40.7,80.8L40.7,83.8L42.2,83.8L42.2,86.8L43.7,86.8L43.7,88.3L46.7,88.3L46.7,92.8L49.7,92.8L49.7,103.7L26.8,103.7L26.8,102.2L4.3,102.2L4.3,99.2L1.3,99.2L1.3,44.8L2.8,44.8L2.8,43.3L8.8,43.3L8.8,41.8L10.3,41.8L10.3,38.8L11.8,38.8L11.8,37.3z" stroke="none"/><path d="M6.2,40.5L5.8,40.5L5.8,31.7L4.3,31.7L4.3,28.7L2.8,28.7L2.8,8.8L17.8,8.8L17.8,5.8L22.3,5.8L22.3,4.3L25.3,4.3L25.3,2.8L28.3,2.8L28.3,1.3L97.7,1.3L97.7,2.8L100.7,2.8L100.7,7.3L102.2,7.3L102.2,8.8L103.7,8.8L103.7,93.2L99.2,93.2L99.2,97.7L96.2,97.7L96.2,99.2L91.7,99.2L91.7,100.7L82.7,100.7L82.7,103.7L73.3,103.7L73.3,102.2L71.8,102.2L71.8,100.7L67.3,100.7L67.3,97.7L61.3,97.7L61.3,96.2L58.3,96.2L58.3,94.7L55.3,94.7L55.3,88.7L52.3,88.7L52.3,78.2L50.8,78.2L50.8,73.7L47.8,73.7L47.8,72.2L43.3,72.2L43.3,70.5L43.7,70.5L43.7,71.8L48.2,71.8L48.2,73.3L51.2,73.3L51.2,77.8L52.7,77.8L52.7,88.3L55.7,88.3L55.7,94.3L58.7,94.3L58.7,95.8L61.7,95.8L61.7,97.3L67.7,97.3L67.7,100.3L72.2,100.3L72.2,101.8L73.7,101.8L73.7,103.3L82.3,103.3L82.3,100.3L91.3,100.3L91.3,98.8L95.8,98.8L95.8,97.3L98.8,97.3L98.8,92.8L103.3,92.8L103.3,9.2L101.8,9.2L101.8,7.7L100.3,7.7L100.3,3.2L97.3,3.2L97.3,1.7L28.7,1.7L28.7,3.2L25.7,3.2L25.7,4.7L22.7,4.7L22.7,6.2L18.2,6.2L18.2,9.2L3.2,9.2L3.2,28.3L4.7,28.3L4.7,31.3L6.2,31.3z" stroke="none"/><path d="M17.8,12L18.2,12L18.2,21.2L15.2,21.2L15.2,22.7L13.7,22.7L13.7,24.2L10.7,24.2L10.7,34.3L13.7,34.3L13.7,35.8L15.2,35.8L15.2,52.7L13.7,52.7L13.7,61.5L13.3,61.5L13.3,52.3L14.8,52.3L14.8,36.2L13.3,36.2L13.3,34.7L10.3,34.7L10.3,23.8L13.3,23.8L13.3,22.3L14.8,22.3L14.8,20.8L17.8,20.8z" stroke="none"/><circle cx="67.5" cy="16.5" r="0.25" stroke-width="0" fill="#000" /><circle cx="45" cy="18" r="0.25" stroke-width="0" fill="#000" /><circle cx="87" cy="19.5" r="0.25" stroke-width="0" fill="#000" /><circle cx="28.5" cy="85.5" r="0.25" stroke-width="0" fill="#000" /><circle cx="21" cy="73.5" r="0.25" stroke-width="0" fill="#000" /><circle cx="34.5" cy="96" r="0.25" stroke-width="0" fill="#000" /><circle cx="54" cy="87" r="0.25" stroke-width="0" fill="#000" /><circle cx="36" cy="63" r="0.25" stroke-width="0" fill="#000" /><circle cx="85.5" cy="94.5" r="0.25" stroke-width="0" fill="#000" /><circle cx="37.5" cy="21" r="0.25" stroke-width="0" fill="#000" /><circle cx="39" cy="25.5" r="0.25" stroke-width="0" fill="#000" /><circle cx="61.5" cy="7.5" r="0.25" stroke-width="0" fill="#000" /><circle cx="48" cy="102" r="0.25" stroke-width="0" fill="#000" /><circle cx="9" cy="91.5" r="0.25" stroke-width="0" fill="#000" /><circle cx="52.5" cy="58.5" r="0.25" stroke-width="0" fill="#000" /><circle cx="16.5" cy="64.5" r="0.25" stroke-width="0" fill="#000" /><circle cx="9" cy="67.5" r="0.25" stroke-width="0" fill="#000" /><circle cx="4.5" cy="48" r="0.25" stroke-width="0" fill="#000" /><circle cx="37.5" cy="96" r="0.25" stroke-width="0" fill="#000" /><circle cx="94.5" cy="58.5" r="0.25" stroke-width="0" fill="#000" /><circle cx="76.5" cy="70.5" r="0.25" stroke-width="0" fill="#000" /><circle cx="88.5" cy="76.5" r="0.25" stroke-width="0" fill="#000" /><circle cx="88.5" cy="48" r="0.25" stroke-width="0" fill="#000" /><circle cx="61.5" cy="46.5" r="0.25" stroke-width="0" fill="#000" /><circle cx="79.5" cy="39" r="0.25" stroke-width="0" fill="#000" /><circle cx="90" cy="58.5" r="0.25" stroke-width="0" fill="#000" /><circle cx="63" cy="75" r="0.25" stroke-width="0" fill="#000" /><circle cx="63" cy="28.5" r="0.25" stroke-width="0" fill="#000" /><circle cx="43.5" cy="49.5" r="0.25" stroke-width="0" fill="#000" /><circle cx="51" cy="69" r="0.25" stroke-width="0" fill="#000" /><circle cx="93" cy="34.5" r="0.25" stroke-width="0" fill="#000" /><circle cx="25.5" cy="45" r="0.25" stroke-width="0" fill="#000" /><circle cx="39" cy="10.5" r="0.25" stroke-width="0" fill="#000" /><circle cx="36" cy="6" r="0.25" stroke-width="0" fill="#000" /><circle cx="19.5" cy="49.5" r="0.25" stroke-width="0" fill="#000" /><circle cx="70.5" cy="61.5" r="0.25" stroke-width="0" fill="#000" /><circle cx="67.5" cy="61.5" r="0.25" stroke-width="0" fill="#000" /><circle cx="97.5" cy="70.5" r="0.25" stroke-width="0" fill="#000" /><circle cx="96" cy="67.5" r="0.25" stroke-width="0" fill="#000" /><circle cx="10.5" cy="72" r="0.25" stroke-width="0" fill="#000" /><circle cx="15" cy="70.5" r="0.25" stroke-width="0" fill="#000" /><circle cx="46.5" cy="49.5" r="0.25" stroke-width="0" fill="#000" /><circle cx="52.5" cy="51" r="0.25" stroke-width="0" fill="#000" /><circle cx="84" cy="78" r="0.25" stroke-width="0" fill="#000" /><circle cx="76.5" cy="79.5" r="0.25" stroke-width="0" fill="#000" /><circle cx="58.5" cy="97.5" r="0.25" stroke-width="0" fill="#000" /><circle cx="66" cy="100.5" r="0.25" stroke-width="0" fill="#000" /><circle cx="31.5" cy="61.5" r="0.25" stroke-width="0" fill="#000" /><circle cx="21" cy="63" r="0.25" stroke-width="0" fill="#000" /><circle cx="30" cy="102" r="0.25" stroke-width="0" fill="#000" /><circle cx="40.5" cy="99" r="0.25" stroke-width="0" fill="#000" /><circle cx="73.5" cy="84" r="0.25" stroke-width="0" fill="#000" /><circle cx="84" cy="88.5" r="0.25" stroke-width="0" fill="#000" /><circle cx="100.5" cy="90" r="0.25" stroke-width="0" fill="#000" /><circle cx="99" cy="78" r="0.25" stroke-width="0" fill="#000" /><circle cx="85.5" cy="99" r="0.25" stroke-width="0" fill="#000" /><circle cx="73.5" cy="96" r="0.25" stroke-width="0" fill="#000" /><circle cx="13.5" cy="73.5" r="0.25" stroke-width="0" fill="#000" /><circle cx="9" cy="61.5" r="0.25" stroke-width="0" fill="#000" /><circle cx="85.5" cy="25.5" r="0.25" stroke-width="0" fill="#000" /><circle cx="73.5" cy="30" r="0.25" stroke-width="0" fill="#000" /><circle cx="85.5" cy="70.5" r="0.25" stroke-width="0" fill="#000" /><circle cx="96" cy="61.5" r="0.25" stroke-width="0" fill="#000" /><circle cx="30" cy="78" r="0.25" stroke-width="0" fill="#000" /><circle cx="16.5" cy="81" r="0.25" stroke-width="0" fill="#000" /><circle cx="72" cy="15" r="0.25" stroke-width="0" fill="#000" /><circle cx="70.5" cy="30" r="0.25" stroke-width="0" fill="#000" /><circle cx="33" cy="66" r="0.25" stroke-width="0" fill="#000" /><circle cx="18" cy="69" r="0.25" stroke-width="0" fill="#000" /><circle cx="6" cy="10.5" r="0.25" stroke-width="0" fill="#000" /><circle cx="6" cy="27" r="0.25" stroke-width="0" fill="#000" /><circle cx="43.5" cy="48" r="0.25" stroke-width="0" fill="#000" /><circle cx="39" cy="30" r="0.25" stroke-width="0" fill="#000" /><circle cx="81" cy="102" r="0.25" stroke-width="0" fill="#000" /><circle cx="66" cy="90" r="0.25" stroke-width="0" fill="#000" /><circle cx="34.5" cy="42" r="0.25" stroke-width="0" fill="#000" /><circle cx="18" cy="52.5" r="0.25" stroke-width="0" fill="#000" /><circle cx="30" cy="45" r="0.25" stroke-width="0" fill="#000" /><circle cx="33" cy="25.5" r="0.25" stroke-width="0" fill="#000" /><circle cx="99" cy="15" r="0.25" stroke-width="0" fill="#000" /><circle cx="96" cy="36" r="0.25" stroke-width="0" fill="#000" /><circle cx="100.5" cy="88.5" r="0.25" stroke-width="0" fill="#000" /><circle cx="94.5" cy="67.5" r="0.25" stroke-width="0" fill="#000" /><circle cx="58.5" cy="58.5" r="0.25" stroke-width="0" fill="#000" /><circle cx="36" cy="61.5" r="0.25" stroke-width="0" fill="#000" /><circle cx="75" cy="30" r="0.25" stroke-width="0" fill="#000" /><circle cx="90" cy="12" r="0.25" stroke-width="0" fill="#000" /><circle cx="94.5" cy="39" r="0.25" stroke-width="0" fill="#000" /><circle cx="70.5" cy="36" r="0.25" stroke-width="0" fill="#000" /><circle cx="51" cy="42" r="0.25" stroke-width="0" fill="#000" /><circle cx="76.5" cy="48" r="0.25" stroke-width="0" fill="#000" /><circle cx="79.5" cy="21" r="0.25" stroke-width="0" fill="#000" /><circle cx="54" cy="28.5" r="0.25" stroke-width="0" fill="#000" /><circle cx="16.5" cy="28.5" r="0.25" stroke-width="0" fill="#000" /><circle cx="37.5" cy="9" r="0.25" stroke-width="0" fill="#000" /><circle cx="34.5" cy="21" r="0.25" stroke-width="0" fill="#000" /><circle cx="58.5" cy="42" r="0.25" stroke-width="0" fill="#000" /><circle cx="60" cy="67.5" r="0.25" stroke-width="0" fill="#000" /><circle cx="93" cy="60" r="0.25" stroke-width="0" fill="#000" /><circle cx="6" cy="22.5" r="0.25" stroke-width="0" fill="#000" /><circle cx="42" cy="21" r="0.25" stroke-width="0" fill="#000" /><circle cx="3" cy="64.5" r="0.25" stroke-width="0" fill="#000" /><circle cx="24" cy="100.5" r="0.25" stroke-width="0" fill="#000" /><circle cx="18" cy="67.5" r="0.25" stroke-width="0" fill="#000" /><circle cx="12" cy="25.5" r="0.25" stroke-width="0" fill="#000" /><circle cx="75" cy="9" r="0.25" stroke-width="0" fill="#000" /><circle cx="70.5" cy="52.5" r="0.25" stroke-width="0" fill="#000" /><circle cx="96" cy="13.5" r="0.25" stroke-width="0" fill="#000" /><circle cx="51" cy="6" r="0.25" stroke-width="0" fill="#000" /><circle cx="13.5" cy="37.5" r="0.25" stroke-width="0" fill="#000" /><circle cx="36" cy="78" r="0.25" stroke-width="0" fill="#000" /><circle cx="6" cy="40.5" r="0.25" stroke-width="0" fill="#000" /><circle cx="43.5" cy="70.5" r="0.25" stroke-width="0" fill="#000" /><circle cx="18" cy="12" r="0.25" stroke-width="0" fill="#000" /><circle cx="13.5" cy="61.5" r="0.25" stroke-width="0" fill="#000" /><rect x="0" y="0" width="105" height="105" stroke-width="0.8" stroke="#000" fill="none" /></svg>