<svg version="1.1" width="105" height="15" xmlns="http://www.w3.org/2000/svg"><path d="M16.878571428571426,10.45L16.878571428571426,10.306424963832939L16.69357503616706,10.12142857142857L5.592139249547226,10.12142857142857L5.163567820975797,10.55L3,10.55L3,10.45L5.122146464738488,10.45L5.550717893309916,10.021428571428569L16.73499639240437,10.021428571428569L16.978571428571428,10.26500360759563L16.978571428571428,10.45L17.12214646473849,10.45L17.76500360759563,9.807142857142857L20.55071789330992,9.807142857142857L20.76500360759563,9.592857142857142L30.663567820975796,9.592857142857142L31.092139249547223,10.021428571428569L31.94928210669008,10.021428571428569L32.37785353526151,10.45L33,10.45L33,10.55L32.3364321790242,10.55L31.907860750452773,10.12142857142857L31.050717893309915,10.12142857142857L30.62214646473849,9.692857142857143L20.80642496383294,9.692857142857143L20.592139249547227,9.907142857142858L17.80642496383294,9.907142857142858L17.163567820975796,10.55L15,10.55L15,10.45z" stroke="none"/><path d="M81.80714285714285,6.807142857142857L81.80714285714285,6.663567820975797L81.16428571428571,6.020710678118655L81.16428571428571,5.3778535352615116L80.94999999999999,5.163567820975797L80.94999999999999,4.5L81.04999999999998,4.5L81.04999999999998,5.122146464738488L81.2642857142857,5.336432179024202L81.2642857142857,5.979289321881345L81.90714285714284,6.622146464738488L81.90714285714284,6.807142857142857L93.87785353526151,6.807142857142857L94.09213924954722,7.021428571428571L94.30642496383294,7.021428571428571L95.16356782097579,7.878571428571428L95.37785353526151,7.878571428571428L96.23499639240437,8.735714285714284L97.09213924954722,8.735714285714284L97.30642496383294,8.95L97.49999999999999,8.95L97.49999999999999,9.05L97.26500360759562,9.05L97.0507178933099,8.835714285714285L96.19357503616705,8.835714285714285L95.33643217902419,7.978571428571428L95.12214646473846,7.978571428571428L94.26500360759562,7.121428571428571L94.0507178933099,7.121428571428571L93.83643217902419,6.907142857142857L68.80642496383294,6.907142857142857L68.59213924954722,7.121428571428571L68.37785353526151,7.121428571428571L67.94928210669008,7.55L67.49999999999999,7.55L67.49999999999999,7.45L67.90786075045276,7.45L68.33643217902419,7.021428571428571L68.5507178933099,7.021428571428571L68.76500360759562,6.807142857142857z" stroke="none"/><path d="M61.479289321881346,9.807142857142857L63.19357503616706,8.092857142857142L63.40786075045277,8.092857142857142L63.8364321790242,7.664285714285715L64.05071789330991,7.664285714285715L64.26500360759562,7.45L64.49999999999999,7.45L64.49999999999999,7.55L64.30642496383294,7.55L64.09213924954723,7.764285714285714L63.87785353526151,7.764285714285714L63.44928210669008,8.192857142857143L63.23499639240437,8.192857142857143L61.620710678118655,9.807142857142857L74.37785353526151,9.807142857142857L75.02071067811865,10.45L75.23499639240437,10.45L75.44928210669008,10.664285714285715L77.37785353526151,10.664285714285715L77.80642496383294,11.092857142857142L78.02071067811865,11.092857142857142L78.23499639240437,11.307142857142857L78.6635678209758,11.307142857142857L78.87785353526151,11.521428571428569L79.30642496383294,11.521428571428569L79.52071067811865,11.735714285714284L80.80642496383294,11.735714285714284L81.03535533905931,11.964644660940673L80.96464466094066,12.035355339059327L80.76500360759562,11.835714285714285L79.47928932188132,11.835714285714285L79.26500360759562,11.62142857142857L78.83643217902419,11.62142857142857L78.62214646473848,11.407142857142858L78.19357503616705,11.407142857142858L77.97928932188132,11.192857142857143L77.76500360759562,11.192857142857143L77.33643217902419,10.764285714285716L75.40786075045276,10.764285714285716L75.19357503616705,10.55L74.97928932188132,10.55L74.33643217902419,9.907142857142858L40.949282106690085,9.907142857142858L40.73499639240437,10.12142857142857L40.30642496383294,10.12142857142857L40.09213924954722,10.335714285714285L39.87785353526151,10.335714285714285L39.66356782097579,10.55L39,10.55L39,10.45L39.622146464738485,10.45L39.8364321790242,10.235714285714284L40.050717893309915,10.235714285714284L40.26500360759563,10.021428571428569L40.69357503616706,10.021428571428569L40.90786075045278,9.807142857142857z" stroke="none"/><path d="M30.44928210669008,9.807142857142857L30.87785353526151,10.235714285714284L31.092139249547223,10.235714285714284L31.30642496383294,10.45L31.520710678118654,10.45L31.73499639240437,10.664285714285715L32.37785353526151,10.664285714285715L32.59213924954722,10.878571428571426L33.40786075045278,10.878571428571426L33.59285714285714,10.693575036167061L33.59285714285714,10.306424963832939L33.40786075045278,10.12142857142857L32.3364321790242,10.12142857142857L32.122146464738485,9.907142857142858L31.479289321881346,9.907142857142858L31.26500360759563,9.692857142857143L31.050717893309915,9.692857142857143L30.836432179024204,9.478571428571428L17.12214646473849,9.478571428571428L16.479289321881346,8.835714285714285L16.050717893309915,8.835714285714285L15.836432179024204,8.62142857142857L14.76500360759563,8.62142857142857L14.122146464738488,7.978571428571428L10.907860750452773,7.978571428571428L10.464644660940673,7.535355339059327L10.535355339059327,7.464644660940673L10.949282106690081,7.878571428571428L14.163567820975796,7.878571428571428L14.806424963832939,8.521428571428569L15.877853535261512,8.521428571428569L16.092139249547223,8.735714285714284L16.520710678118654,8.735714285714284L17.163567820975796,9.378571428571426L30.87785353526151,9.378571428571426L31.092139249547223,9.592857142857142L31.30642496383294,9.592857142857142L31.520710678118654,9.807142857142857L32.16356782097579,9.807142857142857L32.37785353526151,10.021428571428569L33.449282106690085,10.021428571428569L33.692857142857136,10.26500360759563L33.692857142857136,10.73499639240437L33.449282106690085,10.978571428571428L32.550717893309915,10.978571428571428L32.3364321790242,10.764285714285716L31.69357503616706,10.764285714285716L31.479289321881346,10.55L31.26500360759563,10.55L31.050717893309915,10.335714285714285L30.836432179024204,10.335714285714285L30.407860750452773,9.907142857142858L27.90714285714286,9.907142857142858L27.90714285714286,10.050717893309915L28.092139249547223,10.235714285714284L30.020710678118654,10.235714285714284L30.23499639240437,10.45L30.663567820975796,10.45L31.092139249547223,10.878571428571426L32.16356782097579,10.878571428571426L32.37785353526151,11.092857142857142L52.69357503616706,11.092857142857142L53.3364321790242,10.45L55.5,10.45L55.5,10.55L53.37785353526151,10.55L52.73499639240437,11.192857142857143L32.3364321790242,11.192857142857143L32.122146464738485,10.978571428571428L31.050717893309915,10.978571428571428L30.62214646473849,10.55L30.19357503616706,10.55L29.979289321881346,10.335714285714285L28.050717893309915,10.335714285714285L27.807142857142857,10.092139249547223L27.807142857142857,9.907142857142858L21.23499639240437,9.907142857142858L20.163567820975796,10.978571428571428L19.94928210669008,10.978571428571428L19.520710678118654,11.407142857142858L18.87785353526151,11.407142857142858L18.44928210669008,11.835714285714285L18.23499639240437,11.835714285714285L18.03535533905933,12.035355339059327L17.96464466094067,11.964644660940673L18.19357503616706,11.735714285714284L18.407860750452773,11.735714285714284L18.836432179024204,11.307142857142857L19.479289321881346,11.307142857142857L19.907860750452773,10.878571428571426L20.12214646473849,10.878571428571426L21.19357503616706,9.807142857142857z" stroke="none"/><path d="M83.94999999999999,4.021428571428571L83.94999999999999,3.8364321790242024L84.19357503616705,3.592857142857143L90.62214646473848,3.592857142857143L91.26500360759562,2.95L91.49999999999999,2.95L91.49999999999999,3.05L91.30642496383294,3.05L90.6635678209758,3.6928571428571426L84.23499639240437,3.6928571428571426L84.04999999999998,3.877853535261512L84.04999999999998,4.021428571428571L84.23499639240437,4.021428571428571L84.44928210669008,4.235714285714286L84.87785353526151,4.235714285714286L85.09213924954722,4.45L85.49999999999999,4.45L85.49999999999999,4.55L85.0507178933099,4.55L84.83643217902419,4.335714285714285L84.40786075045276,4.335714285714285L84.19357503616705,4.121428571428571L84.04999999999998,4.121428571428571L84.04999999999998,4.265003607595631L84.23499639240437,4.45L84.44928210669008,4.45L84.6635678209758,4.664285714285715L89.37785353526151,4.664285714285715L89.59213924954722,4.878571428571429L97.47928932188132,4.878571428571429L97.69357503616705,4.664285714285715L97.90786075045276,4.664285714285715L98.12214646473846,4.45L98.99999999999999,4.45L98.99999999999999,4.55L98.16356782097579,4.55L97.94928210669008,4.764285714285714L97.73499639240437,4.764285714285714L97.52071067811865,4.978571428571429L89.5507178933099,4.978571428571429L89.33643217902419,4.764285714285714L84.62214646473848,4.764285714285714L84.40786075045276,4.55L84.19357503616705,4.55L83.94999999999999,4.30642496383294L83.94999999999999,4.121428571428571L64.09213924954723,4.121428571428571L63.66356782097579,4.55L60,4.55L60,4.45L63.622146464738485,4.45L64.05071789330991,4.021428571428571z" stroke="none"/><path d="M46.09213924954722,4.45L52.69357503616706,4.45L52.90786075045277,4.235714285714286L53.3364321790242,4.235714285714286L53.550717893309915,4.021428571428571L63.622146464738485,4.021428571428571L63.8364321790242,3.8071428571428574L71.33643217902419,3.8071428571428574L71.5507178933099,3.592857142857143L72.19357503616705,3.592857142857143L72.83643217902419,2.95L73.49999999999999,2.95L73.49999999999999,3.05L72.87785353526151,3.05L72.23499639240437,3.6928571428571426L71.59213924954722,3.6928571428571426L71.37785353526151,3.907142857142857L63.87785353526151,3.907142857142857L63.66356782097579,4.121428571428571L53.59213924954722,4.121428571428571L53.37785353526151,4.335714285714285L52.94928210669008,4.335714285714285L52.73499639240437,4.55L46.12142857142857,4.55L46.12142857142857,4.734996392404369L45.87785353526151,4.978571428571429L29.163567820975796,4.978571428571429L28.94928210669008,5.192857142857142L28.73499639240437,5.192857142857142L28.30642496383294,5.621428571428571L28.092139249547223,5.621428571428571L27.87785353526151,5.835714285714285L27.44928210669008,5.835714285714285L27.23499639240437,6.05L27.020710678118654,6.05L26.80642496383294,6.264285714285714L26.592139249547223,6.264285714285714L25.73499639240437,7.121428571428571L25.520710678118654,7.121428571428571L25.30642496383294,7.335714285714285L24.23499639240437,7.335714285714285L24.03535533905933,7.535355339059327L23.96464466094067,7.464644660940673L24.19357503616706,7.235714285714286L25.26500360759563,7.235714285714286L25.479289321881346,7.021428571428571L25.69357503616706,7.021428571428571L26.550717893309915,6.164285714285715L26.76500360759563,6.164285714285715L26.979289321881346,5.95L27.19357503616706,5.95L27.407860750452773,5.735714285714286L27.836432179024204,5.735714285714286L28.050717893309915,5.521428571428571L28.26500360759563,5.521428571428571L28.69357503616706,5.0928571428571425L28.907860750452773,5.0928571428571425L29.12214646473849,4.878571428571429L45.8364321790242,4.878571428571429L46.02142857142857,4.69357503616706L46.02142857142857,4.55L42,4.55L42,4.45L45.950717893309914,4.45L45.80714285714286,4.30642496383294L45.80714285714286,4.092139249547226L45.16428571428572,3.449282106690083L45.16428571428572,3.234996392404369L44.96464466094067,3.0353553390593273L45.03535533905933,2.9646446609406727L45.26428571428571,3.1935750361670596L45.26428571428571,3.4078607504527736L45.90714285714285,4.050717893309916L45.90714285714285,4.265003607595631z" stroke="none"/><path d="M19.021428571428572,7.45L19.021428571428572,7.30642496383294L18.62214646473849,6.907142857142857L18.19357503616706,6.907142857142857L17.979289321881346,6.692857142857142L16.26500360759563,6.692857142857142L16.050717893309915,6.478571428571428L15.407860750452773,6.478571428571428L15.193575036167061,6.264285714285714L14.979289321881346,6.264285714285714L14.550717893309915,5.835714285714285L14.122146464738488,5.835714285714285L13.693575036167061,5.407142857142857L13.479289321881346,5.407142857142857L13.050717893309915,4.978571428571429L12.836432179024204,4.978571428571429L12.622146464738488,4.764285714285714L12.193575036167061,4.764285714285714L11.964644660940673,4.535355339059327L12.035355339059327,4.464644660940673L12.23499639240437,4.664285714285715L12.663567820975796,4.664285714285715L12.877853535261512,4.878571428571429L13.092139249547223,4.878571428571429L13.520710678118654,5.307142857142857L13.73499639240437,5.307142857142857L14.163567820975796,5.735714285714286L14.592139249547223,5.735714285714286L15.020710678118654,6.164285714285715L15.23499639240437,6.164285714285715L15.449282106690081,6.378571428571428L16.092139249547223,6.378571428571428L16.30642496383294,6.5928571428571425L18.020710678118654,6.5928571428571425L18.23499639240437,6.807142857142857L18.663567820975796,6.807142857142857L19.121428571428574,7.265003607595631L19.121428571428574,7.45L22.30642496383294,7.45L22.520710678118654,7.664285714285715L23.37785353526151,7.664285714285715L23.592139249547223,7.878571428571428L29.80642496383294,7.878571428571428L30.23499639240437,8.307142857142857L30.663567820975796,8.307142857142857L31.30642496383294,8.95L31.5,8.95L31.5,9.05L31.26500360759563,9.05L30.62214646473849,8.407142857142858L30.19357503616706,8.407142857142858L29.76500360759563,7.978571428571428L23.550717893309915,7.978571428571428L23.336432179024204,7.764285714285714L22.479289321881346,7.764285714285714L22.26500360759563,7.55L19.19213924954723,7.55L20.163567820975796,8.521428571428569L20.37785353526151,8.521428571428569L20.80642496383294,8.95L21,8.95L21,9.05L20.76500360759563,9.05L20.336432179024204,8.62142857142857L20.12214646473849,8.62142857142857L19.05071789330992,7.55L12,7.55L12,7.45z" stroke="none"/><path d="M90.59285714285714,11.092857142857142L90.59285714285714,10.907860750452773L90.80714285714285,10.693575036167061L90.80714285714285,10.26500360759563L91.0507178933099,10.021428571428569L99.44928210669008,10.021428571428569L99.66356782097579,10.235714285714284L100.09213924954722,10.235714285714284L100.30642496383294,10.45L100.49999999999999,10.45L100.49999999999999,10.55L100.26500360759562,10.55L100.0507178933099,10.335714285714285L99.62214646473846,10.335714285714285L99.40786075045276,10.12142857142857L91.09213924954722,10.12142857142857L90.90714285714284,10.306424963832939L90.90714285714284,10.73499639240437L90.69285714285714,10.949282106690081L90.69285714285714,11.092857142857142L91.94928210669008,11.092857142857142L92.37785353526151,11.521428571428569L93.23499639240437,11.521428571428569L93.44928210669008,11.735714285714284L95.59213924954722,11.735714285714284L95.80642496383294,11.95L95.99999999999999,11.95L95.99999999999999,12.05L95.76500360759562,12.05L95.5507178933099,11.835714285714285L93.40786075045276,11.835714285714285L93.19357503616705,11.62142857142857L92.33643217902419,11.62142857142857L91.90786075045276,11.192857142857143L90.69285714285714,11.192857142857143L90.69285714285714,11.377853535261512L90.44928210669008,11.62142857142857L90.02071067811865,11.62142857142857L89.80642496383294,11.835714285714285L89.59213924954722,11.835714285714285L89.37785353526151,12.05L87.44928210669008,12.05L87.23499639240437,12.264285714285716L86.5507178933099,12.264285714285716L85.90786075045276,11.62142857142857L82.0507178933099,11.62142857142857L81.62214646473848,11.192857142857143L81.40786075045276,11.192857142857143L80.97928932188132,10.764285714285716L79.69357503616705,10.764285714285716L79.46464466094066,10.535355339059327L79.53535533905931,10.464644660940673L79.73499639240437,10.664285714285715L81.02071067811865,10.664285714285715L81.44928210669008,11.092857142857142L81.6635678209758,11.092857142857142L82.09213924954722,11.521428571428569L85.94928210669008,11.521428571428569L86.59213924954722,12.164285714285715L87.19357503616705,12.164285714285715L87.40786075045276,11.95L89.33643217902419,11.95L89.5507178933099,11.735714285714284L89.76500360759562,11.735714285714284L89.97928932188132,11.521428571428569L90.40786075045276,11.521428571428569L90.59285714285714,11.336432179024204L90.59285714285714,11.192857142857143L90.02071067811865,11.192857142857143L89.59213924954722,11.62142857142857L89.1635678209758,11.62142857142857L88.94928210669008,11.835714285714285L87.23499639240437,11.835714285714285L87.03535533905931,12.035355339059327L86.96464466094066,11.964644660940673L87.19357503616705,11.735714285714284L88.90786075045276,11.735714285714284L89.12214646473848,11.521428571428569L89.5507178933099,11.521428571428569L89.97928932188132,11.092857142857142z" stroke="none"/><path d="M95.99999999999999,10.55L95.99999999999999,10.45L99.23499639240437,10.45L99.44928210669008,10.664285714285715L99.87785353526151,10.664285714285715L100.09213924954722,10.878571428571426L100.30642496383294,10.878571428571426L100.52071067811865,11.092857142857142L100.69357503616705,11.092857142857142L100.87857142857142,10.907860750452773L100.87857142857142,10.092139249547223L100.69357503616705,9.907142857142858L100.26500360759562,9.907142857142858L99.83643217902419,9.478571428571428L99.62214646473846,9.478571428571428L97.69357503616705,7.55L97.49999999999999,7.55L97.49999999999999,7.45L97.73499639240437,7.45L99.66356782097579,9.378571428571426L99.87785353526151,9.378571428571426L100.30642496383294,9.807142857142857L100.73499639240437,9.807142857142857L100.97857142857141,10.050717893309915L100.97857142857141,10.949282106690081L100.73499639240437,11.192857142857143L100.47928932188132,11.192857142857143L100.26500360759562,10.978571428571428L100.0507178933099,10.978571428571428L99.83643217902419,10.764285714285716L99.40786075045276,10.764285714285716L99.19357503616705,10.55z" stroke="none"/><path d="M98.94999999999999,3L99.04999999999998,3L99.04999999999998,3.1935750361670596L99.2642857142857,3.4078607504527736L99.2642857142857,3.622146464738488L99.47857142857141,3.8364321790242024L99.47857142857141,4.050717893309916L99.69285714285712,4.265003607595631L99.69285714285712,4.69357503616706L100.33571428571427,5.336432179024202L100.33571428571427,5.765003607595631L100.53535533905931,5.964644660940673L100.46464466094066,6.035355339059327L100.23571428571428,5.80642496383294L100.23571428571428,5.3778535352615116L99.59285714285713,4.734996392404369L99.59285714285713,4.30642496383294L99.37857142857142,4.092139249547226L99.37857142857142,3.877853535261512L99.16428571428571,3.6635678209757976L99.16428571428571,3.449282106690083L98.94999999999999,3.234996392404369z" stroke="none"/><path d="M5.964644660940673,10.464644660940673L6.035355339059327,10.535355339059327L5.80642496383294,10.764285714285716L5.3778535352615116,10.764285714285716L4.949282106690084,11.192857142857143L4.734996392404369,11.192857142857143L4.520710678118655,11.407142857142858L3.877853535261512,11.407142857142858L3.449282106690083,11.835714285714285L3.234996392404369,11.835714285714285L3.0353553390593273,12.035355339059327L2.9646446609406727,11.964644660940673L3.1935750361670596,11.735714285714284L3.4078607504527736,11.735714285714284L3.8364321790242024,11.307142857142857L4.479289321881345,11.307142857142857L4.69357503616706,11.092857142857142L4.907860750452774,11.092857142857142L5.336432179024202,10.664285714285715L5.765003607595631,10.664285714285715z" stroke="none"/><path d="M57.03535533905933,5.964644660940673L56.96464466094067,6.035355339059327L56.3364321790242,5.407142857142857L56.122146464738485,5.407142857142857L55.90786075045277,5.192857142857142L55.479289321881346,5.192857142857142L55.26500360759563,4.978571428571429L55.050717893309915,4.978571428571429L54.8364321790242,4.764285714285714L54.19357503616706,4.764285714285714L53.96464466094067,4.535355339059327L54.03535533905933,4.464644660940673L54.23499639240437,4.664285714285715L54.87785353526151,4.664285714285715L55.09213924954722,4.878571428571429L55.30642496383294,4.878571428571429L55.520710678118654,5.0928571428571425L55.94928210669008,5.0928571428571425L56.16356782097579,5.307142857142857L56.37785353526151,5.307142857142857z" stroke="none"/><path d="M45,7.55L45,7.45L45.19357503616706,7.45L45.40786075045278,7.235714285714286L45.622146464738485,7.235714285714286L46.26500360759563,6.5928571428571425L46.90786075045277,6.5928571428571425L47.122146464738485,6.378571428571428L47.550717893309915,6.378571428571428L47.76500360759563,6.164285714285715L47.979289321881346,6.164285714285715L48.19357503616706,5.95L49.5,5.95L49.5,6.05L48.23499639240437,6.05L48.020710678118654,6.264285714285714L47.80642496383294,6.264285714285714L47.59213924954722,6.478571428571428L47.16356782097579,6.478571428571428L46.94928210669008,6.692857142857142L46.30642496383294,6.692857142857142L45.66356782097579,7.335714285714285L45.449282106690085,7.335714285714285L45.23499639240437,7.55z" stroke="none"/><path d="M65.96464466094066,4.464644660940673L66.03535533905931,4.535355339059327L63.66356782097579,6.907142857142857L63.23499639240437,6.907142857142857L63.020710678118654,7.121428571428571L62.59213924954722,7.121428571428571L62.37785353526151,7.335714285714285L61.94928210669008,7.335714285714285L61.73499639240437,7.55L61.5,7.55L61.5,7.45L61.69357503616706,7.45L61.90786075045277,7.235714285714286L62.3364321790242,7.235714285714286L62.550717893309915,7.021428571428571L62.979289321881346,7.021428571428571L63.19357503616706,6.807142857142857L63.622146464738485,6.807142857142857z" stroke="none"/><path d="M16.5,4.45L16.5,4.55L13.050717893309915,4.55L12.836432179024204,4.335714285714285L12.622146464738488,4.335714285714285L12.407860750452773,4.121428571428571L11.163567820975796,4.121428571428571L10.949282106690081,4.335714285714285L10.73499639240437,4.335714285714285L10.535355339059327,4.535355339059327L10.464644660940673,4.464644660940673L10.693575036167061,4.235714285714286L10.907860750452773,4.235714285714286L11.122146464738488,4.021428571428571L12.449282106690081,4.021428571428571L12.663567820975796,4.235714285714286L12.877853535261512,4.235714285714286L13.092139249547223,4.45z" stroke="none"/><path d="M82.49999999999999,8.95L82.49999999999999,9.05L82.0507178933099,9.05L81.62214646473848,8.62142857142857L81.40786075045276,8.62142857142857L81.19357503616705,8.407142857142858L80.12214646473848,8.407142857142858L79.90786075045276,8.192857142857143L79.69357503616705,8.192857142857143L79.26500360759562,7.764285714285714L76.90786075045276,7.764285714285714L76.69357503616705,7.55L76.49999999999999,7.55L76.49999999999999,7.45L76.73499639240437,7.45L76.94928210669008,7.664285714285715L79.30642496383294,7.664285714285715L79.73499639240437,8.092857142857142L79.94928210669008,8.092857142857142L80.1635678209758,8.307142857142857L81.23499639240437,8.307142857142857L81.44928210669008,8.521428571428569L81.6635678209758,8.521428571428569L82.09213924954722,8.95z" stroke="none"/><path d="M82.49999999999999,6.05L82.49999999999999,5.95L93.66356782097579,5.95L94.09213924954722,6.378571428571428L100.90786075045276,6.378571428571428L101.09285714285713,6.19357503616706L101.09285714285713,5.80642496383294L100.66428571428571,5.3778535352615116L100.66428571428571,5.163567820975797L100.44999999999999,4.949282106690084L100.44999999999999,4.30642496383294L100.02142857142856,3.877853535261512L100.02142857142856,3.234996392404369L99.40786075045276,2.6214285714285714L98.59213924954722,2.6214285714285714L97.09213924954722,4.121428571428571L96.23499639240437,4.121428571428571L96.02071067811865,4.335714285714285L90.44928210669008,4.335714285714285L90.23499639240437,4.55L89.99999999999999,4.55L89.99999999999999,4.45L90.19357503616705,4.45L90.40786075045276,4.235714285714286L95.97928932188132,4.235714285714286L96.19357503616705,4.021428571428571L97.0507178933099,4.021428571428571L98.5507178933099,2.521428571428572L99.44928210669008,2.521428571428572L100.12142857142855,3.1935750361670596L100.12142857142855,3.8364321790242024L100.54999999999998,4.265003607595631L100.54999999999998,4.907860750452774L100.7642857142857,5.122146464738488L100.7642857142857,5.336432179024202L101.19285714285712,5.765003607595631L101.19285714285712,6.234996392404369L100.94928210669008,6.478571428571428L94.0507178933099,6.478571428571428L93.62214646473846,6.05z" stroke="none"/><path d="M60,11.95L60,12.05L51,12.05L51,11.95z" stroke="none"/><path d="M24,3.05L24,2.95L25.94928210669008,2.95L26.163567820975796,3.1642857142857146L26.37785353526151,3.1642857142857146L26.592139249547223,3.3785714285714286L30.44928210669008,3.3785714285714286L30.87785353526151,3.8071428571428574L31.092139249547223,3.8071428571428574L31.520710678118654,4.235714285714286L32.80642496383294,4.235714285714286L33.03535533905933,4.464644660940673L32.96464466094067,4.535355339059327L32.76500360759563,4.335714285714285L31.479289321881346,4.335714285714285L31.050717893309915,3.907142857142857L30.836432179024204,3.907142857142857L30.407860750452773,3.478571428571428L26.550717893309915,3.478571428571428L26.336432179024204,3.2642857142857142L26.12214646473849,3.2642857142857142L25.907860750452773,3.05z" stroke="none"/><path d="M82.49999999999999,2.95L82.49999999999999,3.05L74.5507178933099,3.05L74.33643217902419,2.8357142857142854L74.12214646473848,2.8357142857142854L73.90786075045276,2.6214285714285714L72.87785353526151,2.6214285714285714L72.44928210669008,3.05L71.99999999999999,3.05L71.99999999999999,2.95L72.40786075045276,2.95L72.83643217902419,2.521428571428572L73.94928210669008,2.521428571428572L74.1635678209758,2.7357142857142858L74.37785353526151,2.7357142857142858L74.59213924954722,2.95z" stroke="none"/><path d="M76.49999999999999,12.05L76.49999999999999,11.95L80.1635678209758,11.95L80.59213924954722,12.378571428571426L81.40786075045276,12.378571428571426L81.59285714285714,12.193575036167061L81.59285714285714,11.806424963832939L81.40786075045276,11.62142857142857L79.90786075045276,11.62142857142857L79.47928932188132,11.192857142857143L79.26500360759562,11.192857142857143L79.02142857142856,10.949282106690081L79.02142857142856,10.050717893309915L79.26500360759562,9.807142857142857L86.1635678209758,9.807142857142857L86.80642496383294,10.45L86.99999999999999,10.45L86.99999999999999,10.55L86.76500360759562,10.55L86.12214646473848,9.907142857142858L79.30642496383294,9.907142857142858L79.12142857142855,10.092139249547223L79.12142857142855,10.907860750452773L79.30642496383294,11.092857142857142L79.52071067811865,11.092857142857142L79.94928210669008,11.521428571428569L81.44928210669008,11.521428571428569L81.69285714285714,11.76500360759563L81.69285714285714,12.23499639240437L81.44928210669008,12.478571428571428L80.5507178933099,12.478571428571428L80.12214646473848,12.05z" stroke="none"/><path d="M10.55,6L10.45,6L10.45,5.592139249547226L10.235714285714284,5.3778535352615116L10.235714285714284,5.163567820975797L10.021428571428569,4.949282106690084L10.021428571428569,4.050717893309916L10.26500360759563,3.8071428571428574L19.26500360759563,3.8071428571428574L19.479289321881346,3.592857142857143L20.12214646473849,3.592857142857143L20.55071789330992,3.1642857142857146L20.76500360759563,3.1642857142857146L20.96464466094067,2.9646446609406727L21.03535533905933,3.0353553390593273L20.80642496383294,3.2642857142857142L20.592139249547227,3.2642857142857142L20.163567820975796,3.6928571428571426L19.520710678118654,3.6928571428571426L19.30642496383294,3.907142857142857L10.306424963832939,3.907142857142857L10.12142857142857,4.092139249547226L10.12142857142857,4.907860750452774L10.335714285714285,5.122146464738488L10.335714285714285,5.336432179024202L10.55,5.550717893309916z" stroke="none"/><path d="M73.49999999999999,12.05L73.49999999999999,11.95L75.6635678209758,11.95L76.09213924954722,12.378571428571426L80.1635678209758,12.378571428571426L80.37785353526151,12.592857142857142L84.62214646473848,12.592857142857142L85.0507178933099,12.164285714285715L85.26500360759562,12.164285714285715L85.46464466094066,11.964644660940673L85.53535533905931,12.035355339059327L85.30642496383294,12.264285714285716L85.09213924954722,12.264285714285716L84.6635678209758,12.692857142857143L80.33643217902419,12.692857142857143L80.12214646473848,12.478571428571428L76.0507178933099,12.478571428571428L75.62214646473848,12.05z" stroke="none"/><path d="M72.03535533905931,8.964644660940673L71.96464466094066,9.035355339059327L71.76500360759562,8.835714285714285L71.5507178933099,8.835714285714285L71.33643217902419,8.62142857142857L69.83643217902419,8.62142857142857L69.62214646473848,8.407142857142858L66.83643217902419,8.407142857142858L66.62214646473848,8.192857142857143L66.40786075045276,8.192857142857143L65.97928932188132,7.764285714285714L65.76500360759562,7.764285714285714L65.12214646473848,7.121428571428571L63.87785353526151,7.121428571428571L63.66356782097579,7.335714285714285L63.44928210669008,7.335714285714285L63.020710678118654,7.764285714285714L62.16356782097579,7.764285714285714L61.94928210669008,7.978571428571428L60.23499639240437,7.978571428571428L59.80642496383294,8.407142857142858L59.37785353526151,8.407142857142858L58.73499639240437,9.05L58.5,9.05L58.5,8.95L58.69357503616706,8.95L59.3364321790242,8.307142857142857L59.76500360759563,8.307142857142857L60.19357503616706,7.878571428571428L61.90786075045277,7.878571428571428L62.122146464738485,7.664285714285715L62.979289321881346,7.664285714285715L63.40786075045277,7.235714285714286L63.622146464738485,7.235714285714286L63.8364321790242,7.021428571428571L65.1635678209758,7.021428571428571L65.80642496383294,7.664285714285715L66.02071067811865,7.664285714285715L66.44928210669008,8.092857142857142L66.6635678209758,8.092857142857142L66.87785353526151,8.307142857142857L69.6635678209758,8.307142857142857L69.87785353526151,8.521428571428569L71.37785353526151,8.521428571428569L71.59213924954722,8.735714285714284L71.80642496383294,8.735714285714284z" stroke="none"/><path d="M6.035355339059327,4.535355339059327L5.964644660940673,4.464644660940673L6.407860750452773,4.021428571428571L6.622146464738488,4.021428571428571L6.836432179024202,3.8071428571428574L9.836432179024204,3.8071428571428574L10.050717893309915,3.592857142857143L16.69357503616706,3.592857142857143L16.907860750452773,3.3785714285714286L17.12214646473849,3.3785714285714286L17.336432179024204,3.1642857142857146L18.407860750452773,3.1642857142857146L18.62214646473849,2.95L19.5,2.95L19.5,3.05L18.663567820975796,3.05L18.44928210669008,3.2642857142857142L17.37785353526151,3.2642857142857142L17.163567820975796,3.478571428571428L16.94928210669008,3.478571428571428L16.73499639240437,3.6928571428571426L10.092139249547223,3.6928571428571426L9.877853535261512,3.907142857142857L6.8778535352615116,3.907142857142857L6.663567820975797,4.121428571428571L6.449282106690083,4.121428571428571z" stroke="none"/><path d="M13.5,5.95L13.5,6.05L11.592139249547223,6.05L11.163567820975796,6.478571428571428L8.122146464738488,6.478571428571428L7.907860750452773,6.264285714285714L7.69357503616706,6.264285714285714L7.479289321881345,6.05L7.050717893309916,6.05L6.622146464738488,5.621428571428571L6.407860750452773,5.621428571428571L5.979289321881345,5.192857142857142L5.765003607595631,5.192857142857142L5.521428571428571,4.949282106690084L5.521428571428571,4.050717893309916L5.765003607595631,3.8071428571428574L6.407860750452773,3.8071428571428574L6.622146464738488,3.592857142857143L9.407860750452773,3.592857142857143L9.622146464738488,3.3785714285714286L16.479289321881346,3.3785714285714286L16.69357503616706,3.1642857142857146L16.907860750452773,3.1642857142857146L17.12214646473849,2.95L17.76500360759563,2.95L18.19357503616706,2.521428571428572L25.94928210669008,2.521428571428572L26.163567820975796,2.7357142857142858L26.592139249547223,2.7357142857142858L26.80642496383294,2.95L27,2.95L27,3.05L26.76500360759563,3.05L26.550717893309915,2.8357142857142854L26.12214646473849,2.8357142857142854L25.907860750452773,2.6214285714285714L18.23499639240437,2.6214285714285714L17.80642496383294,3.05L17.163567820975796,3.05L16.94928210669008,3.2642857142857142L16.73499639240437,3.2642857142857142L16.520710678118654,3.478571428571428L9.663567820975796,3.478571428571428L9.449282106690081,3.6928571428571426L6.663567820975797,3.6928571428571426L6.449282106690083,3.907142857142857L5.80642496383294,3.907142857142857L5.621428571428571,4.092139249547226L5.621428571428571,4.907860750452774L5.80642496383294,5.0928571428571425L6.020710678118655,5.0928571428571425L6.449282106690083,5.521428571428571L6.663567820975797,5.521428571428571L7.092139249547226,5.95L7.520710678118655,5.95L7.734996392404369,6.164285714285715L7.949282106690083,6.164285714285715L8.163567820975796,6.378571428571428L11.122146464738488,6.378571428571428L11.550717893309915,5.95z" stroke="none"/><path d="M4.5,8.95L4.5,9.05L4.092139249547226,9.05L3.6635678209757976,9.478571428571428L3.449282106690083,9.478571428571428L3.020710678118655,9.907142857142858L2.8064249638329404,9.907142857142858L2.6214285714285714,10.092139249547223L2.6214285714285714,12.407860750452773L2.8064249638329404,12.592857142857142L18.407860750452773,12.592857142857142L18.62214646473849,12.378571428571426L18.836432179024204,12.378571428571426L19.05071789330992,12.164285714285715L19.26500360759563,12.164285714285715L19.46464466094067,11.964644660940673L19.53535533905933,12.035355339059327L19.30642496383294,12.264285714285716L19.092139249547227,12.264285714285716L18.87785353526151,12.478571428571428L18.663567820975796,12.478571428571428L18.44928210669008,12.692857142857143L2.765003607595631,12.692857142857143L2.521428571428572,12.449282106690081L2.521428571428572,10.050717893309915L2.765003607595631,9.807142857142857L2.979289321881345,9.807142857142857L3.4078607504527736,9.378571428571426L3.622146464738488,9.378571428571426L4.050717893309916,8.95z" stroke="none"/><path d="M28.5,2.95L28.5,3.05L28.26500360759563,3.05L28.050717893309915,2.8357142857142854L27.836432179024204,2.8357142857142854L27.62214646473849,2.6214285714285714L27.407860750452773,2.6214285714285714L27.19357503616706,2.407142857142857L16.092139249547223,2.407142857142857L15.877853535261512,2.6214285714285714L14.806424963832939,2.6214285714285714L14.592139249547223,2.8357142857142854L12.877853535261512,2.8357142857142854L12.663567820975796,3.05L12,3.05L12,2.95L12.622146464738488,2.95L12.836432179024204,2.7357142857142858L14.550717893309915,2.7357142857142858L14.76500360759563,2.521428571428572L15.836432179024204,2.521428571428572L16.050717893309915,2.3071428571428574L27.23499639240437,2.3071428571428574L27.44928210669008,2.521428571428572L27.663567820975796,2.521428571428572L27.87785353526151,2.7357142857142858L28.092139249547223,2.7357142857142858L28.30642496383294,2.95z" stroke="none"/><path d="M55.5,5.95L55.5,6.05L50.76500360759563,6.05L50.550717893309915,5.835714285714285L50.122146464738485,5.835714285714285L49.90786075045277,5.621428571428571L37.520710678118654,5.621428571428571L37.09213924954722,6.05L36,6.05L36,5.95L37.050717893309915,5.95L37.479289321881346,5.521428571428571L49.94928210669008,5.521428571428571L50.16356782097579,5.735714285714286L50.59213924954722,5.735714285714286L50.80642496383294,5.95z" stroke="none"/><path d="M91.49999999999999,8.95L91.49999999999999,9.05L83.37785353526151,9.05L82.94928210669008,9.478571428571428L71.12214646473848,9.478571428571428L70.69357503616705,9.05L70.49999999999999,9.05L70.49999999999999,8.95L70.73499639240437,8.95L71.1635678209758,9.378571428571426L82.90786075045276,9.378571428571426L83.33643217902419,8.95z" stroke="none"/><path d="M86.99999999999999,2.95L86.99999999999999,3.05L84.62214646473848,3.05L84.40786075045276,2.8357142857142854L83.12214646473848,2.8357142857142854L82.90786075045276,2.6214285714285714L74.33643217902419,2.6214285714285714L74.12214646473848,2.407142857142857L65.37785353526151,2.407142857142857L64.94928210669008,2.8357142857142854L64.73499639240437,2.8357142857142854L64.53535533905931,3.0353553390593273L64.46464466094066,2.9646446609406727L64.69357503616705,2.7357142857142858L64.90786075045276,2.7357142857142858L65.33643217902419,2.3071428571428574L74.1635678209758,2.3071428571428574L74.37785353526151,2.521428571428572L82.94928210669008,2.521428571428572L83.1635678209758,2.7357142857142858L84.44928210669008,2.7357142857142858L84.6635678209758,2.95z" stroke="none"/><path d="M94.49999999999999,8.95L94.49999999999999,9.05L92.33643217902419,9.05L91.90786075045276,8.62142857142857L82.26500360759562,8.62142857142857L81.83643217902419,8.192857142857143L80.76500360759562,8.192857142857143L80.33643217902419,7.764285714285714L79.90786075045276,7.764285714285714L79.69357503616705,7.55L77.33643217902419,7.55L76.90786075045276,7.121428571428571L70.09213924954722,7.121428571428571L69.87785353526151,7.335714285714285L69.23499639240437,7.335714285714285L69.02071067811865,7.55L68.80642496383294,7.55L68.59213924954722,7.764285714285714L68.1635678209758,7.764285714285714L67.94928210669008,7.978571428571428L67.0507178933099,7.978571428571428L66.80714285714285,7.734996392404369L66.80714285714285,7.265003607595631L67.0507178933099,7.021428571428571L67.26500360759562,7.021428571428571L67.47928932188132,6.807142857142857L67.69357503616705,6.807142857142857L67.90786075045276,6.5928571428571425L68.12214646473848,6.5928571428571425L68.76500360759562,5.95L68.99999999999999,5.95L68.99999999999999,6.05L68.80642496383294,6.05L68.1635678209758,6.692857142857142L67.94928210669008,6.692857142857142L67.73499639240437,6.907142857142857L67.52071067811865,6.907142857142857L67.30642496383294,7.121428571428571L67.09213924954722,7.121428571428571L66.90714285714284,7.30642496383294L66.90714285714284,7.69357503616706L67.09213924954722,7.878571428571428L67.90786075045276,7.878571428571428L68.12214646473848,7.664285714285715L68.5507178933099,7.664285714285715L68.76500360759562,7.45L68.97928932188132,7.45L69.19357503616705,7.235714285714286L69.83643217902419,7.235714285714286L70.0507178933099,7.021428571428571L76.94928210669008,7.021428571428571L77.37785353526151,7.45L79.73499639240437,7.45L79.94928210669008,7.664285714285715L80.37785353526151,7.664285714285715L80.80642496383294,8.092857142857142L81.87785353526151,8.092857142857142L82.30642496383294,8.521428571428569L91.94928210669008,8.521428571428569L92.37785353526151,8.95z" stroke="none"/><path d="M28.5,6.05L28.5,5.95L30.62214646473849,5.95L31.050717893309915,5.521428571428571L34.90786075045278,5.521428571428571L35.122146464738485,5.307142857142857L55.09213924954722,5.307142857142857L55.30642496383294,5.521428571428571L55.94928210669008,5.521428571428571L56.40714285714285,5.979289321881345L56.40714285714285,6.19357503616706L56.59213924954722,6.378571428571428L57.40786075045277,6.378571428571428L57.59285714285714,6.19357503616706L57.59285714285714,5.80642496383294L57.40786075045277,5.621428571428571L56.979289321881346,5.621428571428571L56.3364321790242,4.978571428571429L56.122146464738485,4.978571428571429L55.90786075045277,4.764285714285714L55.69357503616706,4.764285714285714L55.46464466094067,4.535355339059327L55.53535533905933,4.464644660940673L55.73499639240437,4.664285714285715L55.94928210669008,4.664285714285715L56.16356782097579,4.878571428571429L56.37785353526151,4.878571428571429L57.020710678118654,5.521428571428571L57.44928210669008,5.521428571428571L57.692857142857136,5.765003607595631L57.692857142857136,6.234996392404369L57.44928210669008,6.478571428571428L56.550717893309915,6.478571428571428L56.30714285714286,6.234996392404369L56.30714285714286,6.020710678118655L55.90786075045277,5.621428571428571L55.26500360759563,5.621428571428571L55.050717893309915,5.407142857142857L35.16356782097579,5.407142857142857L34.949282106690085,5.621428571428571L31.092139249547223,5.621428571428571L30.663567820975796,6.05z" stroke="none"/><path d="M94.49999999999999,5.95L94.49999999999999,6.05L94.26500360759562,6.05L94.0507178933099,5.835714285714285L83.76500360759562,5.835714285714285L83.5507178933099,5.621428571428571L82.09213924954722,5.621428571428571L81.90714285714284,5.80642496383294L81.90714285714284,6.19357503616706L82.09213924954722,6.378571428571428L93.23499639240437,6.378571428571428L93.44928210669008,6.5928571428571425L101.12214646473846,6.5928571428571425L101.30714285714285,6.407860750452773L101.30714285714285,5.3778535352615116L100.87857142857142,4.949282106690084L100.87857142857142,4.734996392404369L100.66428571428571,4.520710678118655L100.66428571428571,4.092139249547226L100.23571428571428,3.6635678209757976L100.23571428571428,3.020710678118655L99.62214646473846,2.407142857142857L74.76500360759562,2.407142857142857L74.5507178933099,2.1928571428571426L64.94928210669008,2.1928571428571426L64.73499639240437,2.407142857142857L64.30642496383294,2.407142857142857L64.12142857142857,2.5921392495472264L64.12142857142857,3.4078607504527736L64.30642496383294,3.592857142857143L65.76500360759562,3.592857142857143L65.97928932188132,3.3785714285714286L66.40786075045276,3.3785714285714286L66.62214646473848,3.1642857142857146L67.26500360759562,3.1642857142857146L67.46464466094066,2.9646446609406727L67.53535533905931,3.0353553390593273L67.30642496383294,3.2642857142857142L66.6635678209758,3.2642857142857142L66.44928210669008,3.478571428571428L66.02071067811865,3.478571428571428L65.80642496383294,3.6928571428571426L64.26500360759562,3.6928571428571426L64.02142857142857,3.449282106690083L64.02142857142857,2.550717893309917L64.26500360759562,2.3071428571428574L64.69357503616705,2.3071428571428574L64.90786075045276,2.092857142857143L74.59213924954722,2.092857142857143L74.80642496383294,2.3071428571428574L99.66356782097579,2.3071428571428574L100.33571428571427,2.979289321881345L100.33571428571427,3.622146464738488L100.7642857142857,4.050717893309916L100.7642857142857,4.479289321881345L100.97857142857141,4.69357503616706L100.97857142857141,4.907860750452774L101.40714285714284,5.336432179024202L101.40714285714284,6.449282106690083L101.16356782097579,6.692857142857142L93.40786075045276,6.692857142857142L93.19357503616705,6.478571428571428L82.0507178933099,6.478571428571428L81.80714285714285,6.234996392404369L81.80714285714285,5.765003607595631L82.0507178933099,5.521428571428571L83.59213924954722,5.521428571428571L83.80642496383294,5.735714285714286L94.09213924954722,5.735714285714286L94.30642496383294,5.95z" stroke="none"/><path d="M54,3.05L54,2.95L61.050717893309915,2.95L61.26500360759563,2.7357142857142858L61.69357503616706,2.7357142857142858L62.122146464738485,2.3071428571428574L63.8364321790242,2.3071428571428574L64.05071789330991,2.092857142857143L64.47928932188132,2.092857142857143L64.69357503616705,1.8785714285714286L99.66356782097579,1.8785714285714286L100.54999999999998,2.765003607595631L100.54999999999998,3.1935750361670596L100.7642857142857,3.4078607504527736L100.7642857142857,3.622146464738488L100.97857142857141,3.8364321790242024L100.97857142857141,4.265003607595631L101.62142857142855,4.907860750452774L101.62142857142855,6.663567820975797L101.37785353526151,6.907142857142857L97.30642496383294,6.907142857142857L97.12142857142855,7.092139249547226L97.12142857142855,7.907860750452773L97.52071067811865,8.307142857142857L97.73499639240437,8.307142857142857L97.97857142857141,8.550717893309915L97.97857142857141,9.449282106690081L97.73499639240437,9.692857142857143L96.62214646473846,9.692857142857143L96.19357503616705,9.264285714285716L95.76500360759562,9.264285714285716L95.5507178933099,9.05L95.33643217902419,9.05L94.90786075045276,8.62142857142857L92.33643217902419,8.62142857142857L92.12214646473846,8.407142857142858L83.12214646473848,8.407142857142858L82.47928932188132,7.764285714285714L82.0507178933099,7.764285714285714L81.83643217902419,7.55L80.99999999999999,7.55L80.99999999999999,7.45L81.87785353526151,7.45L82.09213924954722,7.664285714285715L82.52071067811865,7.664285714285715L83.1635678209758,8.307142857142857L92.16356782097579,8.307142857142857L92.37785353526151,8.521428571428569L94.94928210669008,8.521428571428569L95.37785353526151,8.95L95.59213924954722,8.95L95.80642496383294,9.164285714285715L96.23499639240437,9.164285714285715L96.66356782097579,9.592857142857142L97.69357503616705,9.592857142857142L97.87857142857142,9.407860750452773L97.87857142857142,8.592139249547223L97.69357503616705,8.407142857142858L97.47928932188132,8.407142857142858L97.02142857142856,7.949282106690083L97.02142857142856,7.050717893309916L97.26500360759562,6.807142857142857L101.33643217902419,6.807142857142857L101.52142857142856,6.622146464738488L101.52142857142856,4.949282106690084L100.87857142857142,4.30642496383294L100.87857142857142,3.877853535261512L100.66428571428571,3.6635678209757976L100.66428571428571,3.449282106690083L100.44999999999999,3.234996392404369L100.44999999999999,2.8064249638329404L99.62214646473846,1.9785714285714286L64.73499639240437,1.9785714285714286L64.52071067811865,2.1928571428571426L64.09213924954723,2.1928571428571426L63.87785353526151,2.407142857142857L62.16356782097579,2.407142857142857L61.73499639240437,2.8357142857142854L61.30642496383294,2.8357142857142854L61.09213924954722,3.05z" stroke="none"/><path d="M33,11.95L33,12.05L20.80642496383294,12.05L20.37785353526151,12.478571428571428L19.30642496383294,12.478571428571428L19.092139249547227,12.692857142857143L18.87785353526151,12.692857142857143L18.663567820975796,12.907142857142858L2.550717893309917,12.907142857142858L2.3071428571428574,12.663567820975796L2.3071428571428574,9.193575036167061L2.521428571428572,8.979289321881346L2.521428571428572,8.122146464738488L2.7357142857142858,7.907860750452773L2.7357142857142858,7.69357503616706L2.9646446609406727,7.464644660940673L3.0353553390593273,7.535355339059327L2.8357142857142854,7.734996392404369L2.8357142857142854,7.949282106690083L2.6214285714285714,8.163567820975796L2.6214285714285714,9.020710678118654L2.407142857142857,9.23499639240437L2.407142857142857,12.622146464738488L2.5921392495472264,12.807142857142857L18.62214646473849,12.807142857142857L18.836432179024204,12.592857142857142L19.05071789330992,12.592857142857142L19.26500360759563,12.378571428571426L20.336432179024204,12.378571428571426L20.76500360759563,11.95z" stroke="none"/><path d="M31.5,6.05L31.5,5.95L35.16356782097579,5.95L35.59213924954722,6.378571428571428L40.520710678118654,6.378571428571428L41.37785353526151,7.235714285714286L41.80642496383294,7.235714285714286L42.449282106690085,7.878571428571428L55.69357503616706,7.878571428571428L55.90786075045277,7.664285714285715L56.122146464738485,7.664285714285715L56.550717893309915,7.235714285714286L56.979289321881346,7.235714285714286L57.40786075045277,6.807142857142857L57.622146464738485,6.807142857142857L57.8364321790242,6.5928571428571425L60.8364321790242,6.5928571428571425L61.479289321881346,5.95L61.69357503616706,5.95L61.90786075045277,5.735714285714286L62.3364321790242,5.735714285714286L62.550717893309915,5.521428571428571L62.76500360759563,5.521428571428571L62.979289321881346,5.307142857142857L63.19357503616706,5.307142857142857L63.8364321790242,4.664285714285715L64.05071789330991,4.664285714285715L64.26500360759562,4.45L64.49999999999999,4.45L64.49999999999999,4.55L64.30642496383294,4.55L64.09213924954723,4.764285714285714L63.87785353526151,4.764285714285714L63.23499639240437,5.407142857142857L63.020710678118654,5.407142857142857L62.80642496383294,5.621428571428571L62.59213924954722,5.621428571428571L62.37785353526151,5.835714285714285L61.94928210669008,5.835714285714285L61.73499639240437,6.05L61.520710678118654,6.05L60.87785353526151,6.692857142857142L57.87785353526151,6.692857142857142L57.66356782097579,6.907142857142857L57.44928210669008,6.907142857142857L57.020710678118654,7.335714285714285L56.59213924954722,7.335714285714285L56.16356782097579,7.764285714285714L55.94928210669008,7.764285714285714L55.73499639240437,7.978571428571428L42.40786075045278,7.978571428571428L41.76500360759563,7.335714285714285L41.3364321790242,7.335714285714285L40.479289321881346,6.478571428571428L35.550717893309915,6.478571428571428L35.122146464738485,6.05z" stroke="none"/><path d="M70.49999999999999,11.95L70.49999999999999,12.05L61.09213924954722,12.05L60.87785353526151,12.264285714285716L60.66356782097579,12.264285714285716L60.44928210669008,12.478571428571428L36.40786075045278,12.478571428571428L35.96464466094067,12.035355339059327L36.03535533905933,11.964644660940673L36.449282106690085,12.378571428571426L60.40786075045277,12.378571428571426L60.622146464738485,12.164285714285715L60.8364321790242,12.164285714285715L61.050717893309915,11.95z" stroke="none"/><path d="M43.5,11.95L43.5,12.05L40.90786075045278,12.05L40.69357503616706,11.835714285714285L39.19357503616706,11.835714285714285L38.979289321881346,11.62142857142857L35.59213924954722,11.62142857142857L35.37785353526151,11.835714285714285L35.16356782097579,11.835714285714285L34.73499639240437,12.264285714285716L33.66356782097579,12.264285714285716L33.449282106690085,12.478571428571428L21.44928210669008,12.478571428571428L21.23499639240437,12.692857142857143L19.520710678118654,12.692857142857143L19.092139249547227,13.12142857142857L2.3364321790242024,13.12142857142857L2.092857142857143,12.877853535261512L2.092857142857143,7.907860750452773L2.3071428571428574,7.69357503616706L2.3071428571428574,7.265003607595631L2.550717893309917,7.021428571428571L5.163567820975797,7.021428571428571L5.3778535352615116,7.235714285714286L7.30642496383294,7.235714285714286L7.535355339059327,7.464644660940673L7.464644660940673,7.535355339059327L7.265003607595631,7.335714285714285L5.336432179024202,7.335714285714285L5.122146464738488,7.121428571428571L2.5921392495472264,7.121428571428571L2.407142857142857,7.30642496383294L2.407142857142857,7.734996392404369L2.1928571428571426,7.949282106690083L2.1928571428571426,12.836432179024204L2.377853535261512,13.021428571428569L19.05071789330992,13.021428571428569L19.479289321881346,12.592857142857142L21.19357503616706,12.592857142857142L21.407860750452773,12.378571428571426L33.40786075045278,12.378571428571426L33.622146464738485,12.164285714285715L34.69357503616706,12.164285714285715L35.122146464738485,11.735714285714284L35.3364321790242,11.735714285714284L35.550717893309915,11.521428571428569L39.020710678118654,11.521428571428569L39.23499639240437,11.735714285714284L40.73499639240437,11.735714285714284L40.949282106690085,11.95z" stroke="none"/><path d="M45,8.95L45,9.05L40.09213924954722,9.05L39.66356782097579,9.478571428571428L39.23499639240437,9.478571428571428L38.62142857142857,10.092139249547223L38.62142857142857,10.306424963832939L38.40714285714285,10.520710678118654L38.40714285714285,10.693575036167061L38.59213924954722,10.878571428571426L52.050717893309915,10.878571428571426L52.69357503616706,10.235714285714284L52.90786075045277,10.235714285714284L53.122146464738485,10.021428571428569L55.94928210669008,10.021428571428569L56.80642496383294,10.878571428571426L57.020710678118654,10.878571428571426L57.23499639240437,11.092857142857142L58.73499639240437,11.092857142857142L58.94928210669008,11.307142857142857L71.37785353526151,11.307142857142857L71.59213924954722,11.521428571428569L71.80642496383294,11.521428571428569L72.02071067811865,11.735714285714284L72.23499639240437,11.735714285714284L72.6635678209758,12.164285714285715L72.87785353526151,12.164285714285715L73.09213924954722,12.378571428571426L75.44928210669008,12.378571428571426L75.6635678209758,12.592857142857142L79.73499639240437,12.592857142857142L79.94928210669008,12.807142857142857L95.97928932188132,12.807142857142857L96.37857142857142,12.407860750452773L96.37857142857142,11.592139249547223L96.19357503616705,11.407142857142858L93.83643217902419,11.407142857142858L93.40786075045276,10.978571428571428L92.97928932188132,10.978571428571428L92.76500360759562,10.764285714285716L91.90786075045276,10.764285714285716L91.69357503616705,10.55L91.49999999999999,10.55L91.49999999999999,10.45L91.73499639240437,10.45L91.94928210669008,10.664285714285715L92.80642496383294,10.664285714285715L93.02071067811865,10.878571428571426L93.44928210669008,10.878571428571426L93.87785353526151,11.307142857142857L96.23499639240437,11.307142857142857L96.47857142857141,11.550717893309915L96.47857142857141,12.449282106690081L96.02071067811865,12.907142857142858L79.90786075045276,12.907142857142858L79.69357503616705,12.692857142857143L75.62214646473848,12.692857142857143L75.40786075045276,12.478571428571428L73.0507178933099,12.478571428571428L72.83643217902419,12.264285714285716L72.62214646473848,12.264285714285716L72.19357503616705,11.835714285714285L71.97928932188132,11.835714285714285L71.76500360759562,11.62142857142857L71.5507178933099,11.62142857142857L71.33643217902419,11.407142857142858L58.90786075045277,11.407142857142858L58.69357503616706,11.192857142857143L57.19357503616706,11.192857142857143L56.979289321881346,10.978571428571428L56.76500360759563,10.978571428571428L55.90786075045277,10.12142857142857L53.16356782097579,10.12142857142857L52.94928210669008,10.335714285714285L52.73499639240437,10.335714285714285L52.09213924954722,10.978571428571428L38.550717893309915,10.978571428571428L38.30714285714286,10.73499639240437L38.30714285714286,10.479289321881346L38.52142857142857,10.26500360759563L38.52142857142857,10.050717893309915L39.19357503616706,9.378571428571426L39.622146464738485,9.378571428571426L40.050717893309915,8.95z" stroke="none"/></svg>