<svg version="1.1" width="105" height="15" xmlns="http://www.w3.org/2000/svg"><path d="M39.80714285714286,4.878571428571429L39.80714285714286,4.734996392404369L39.40786075045278,4.335714285714285L38.979289321881346,4.335714285714285L38.76500360759563,4.121428571428571L28.520710678118654,4.121428571428571L28.30642496383294,4.335714285714285L19.94928210669008,4.335714285714285L19.73499639240437,4.55L16.5,4.55L16.5,4.45L19.69357503616706,4.45L19.907860750452773,4.235714285714286L28.26500360759563,4.235714285714286L28.479289321881346,4.021428571428571L38.80642496383294,4.021428571428571L39.020710678118654,4.235714285714286L39.449282106690085,4.235714285714286L39.90714285714285,4.69357503616706L39.90714285714285,4.878571428571429L55.90786075045277,4.878571428571429L56.122146464738485,4.664285714285715L58.050717893309915,4.664285714285715L58.26500360759563,4.45L58.90786075045277,4.45L59.3364321790242,4.021428571428571L61.520710678118654,4.021428571428571L61.73499639240437,4.235714285714286L62.59213924954722,4.235714285714286L64.09213924954723,5.735714285714286L64.30642496383294,5.735714285714286L64.53535533905931,5.964644660940673L64.46464466094066,6.035355339059327L64.26500360759562,5.835714285714285L64.05071789330991,5.835714285714285L62.550717893309915,4.335714285714285L61.69357503616706,4.335714285714285L61.479289321881346,4.121428571428571L59.37785353526151,4.121428571428571L58.94928210669008,4.55L58.30642496383294,4.55L58.09213924954722,4.764285714285714L56.16356782097579,4.764285714285714L55.94928210669008,4.978571428571429L39.622146464738485,4.978571428571429L39.19357503616706,4.55L39,4.55L39,4.45L39.23499639240437,4.45L39.66356782097579,4.878571428571429z" stroke="none"/><path d="M96.02071067811865,6.807142857142857L97.09213924954722,6.807142857142857L97.30642496383294,7.021428571428571L97.52071067811865,7.021428571428571L97.73499639240437,7.235714285714286L98.59213924954722,7.235714285714286L98.80642496383294,7.45L101.99999999999999,7.45L101.99999999999999,7.55L98.76500360759562,7.55L98.5507178933099,7.335714285714285L97.69357503616705,7.335714285714285L97.47928932188132,7.121428571428571L97.26500360759562,7.121428571428571L97.0507178933099,6.907142857142857L95.16356782097579,6.907142857142857L94.94928210669008,7.121428571428571L94.73499639240437,7.121428571428571L94.52071067811865,7.335714285714285L94.30642496383294,7.335714285714285L94.09213924954722,7.55L91.49999999999999,7.55L91.49999999999999,7.45L94.0507178933099,7.45L94.26500360759562,7.235714285714286L94.47928932188132,7.235714285714286L94.69357503616705,7.021428571428571L94.90786075045276,7.021428571428571L95.12214646473846,6.807142857142857L95.87928932188133,6.807142857142857L95.76500360759562,6.692857142857142L95.5507178933099,6.692857142857142L94.90786075045276,6.05L94.49999999999999,6.05L94.49999999999999,5.95L94.94928210669008,5.95L95.59213924954722,6.5928571428571425L95.80642496383294,6.5928571428571425z" stroke="none"/><path d="M57.8364321790242,5.307142857142857L58.050717893309915,5.0928571428571425L58.479289321881346,5.0928571428571425L58.90786075045277,4.664285714285715L59.76500360759563,4.664285714285715L59.96464466094067,4.464644660940673L60.03535533905933,4.535355339059327L59.80642496383294,4.764285714285714L58.94928210669008,4.764285714285714L58.520710678118654,5.192857142857142L58.09213924954722,5.192857142857142L57.87785353526151,5.407142857142857L46.55,5.407142857142857L46.55,5.592139249547226L46.30642496383294,5.835714285714285L45.87785353526151,5.835714285714285L45.449282106690085,6.264285714285714L36.19357503616706,6.264285714285714L35.96464466094067,6.035355339059327L36.03535533905933,5.964644660940673L36.23499639240437,6.164285714285715L45.40786075045278,6.164285714285715L45.8364321790242,5.735714285714286L46.26500360759563,5.735714285714286L46.45,5.550717893309916L46.45,5.407142857142857L45.87785353526151,5.407142857142857L45.23499639240437,6.05L43.5,6.05L43.5,5.95L45.19357503616706,5.95L45.8364321790242,5.307142857142857z" stroke="none"/><path d="M60.378571428571426,9.807142857142857L60.378571428571426,9.622146464738488L60.622146464738485,9.378571428571426L77.97928932188132,9.378571428571426L78.40786075045276,8.95L80.99999999999999,8.95L80.99999999999999,9.05L78.44928210669008,9.05L78.02071067811865,9.478571428571428L60.66356782097579,9.478571428571428L60.47857142857142,9.663567820975796L60.47857142857142,9.807142857142857L66.23499639240437,9.807142857142857L66.6635678209758,10.235714285714284L67.09213924954722,10.235714285714284L68.80642496383294,11.95L68.99999999999999,11.95L68.99999999999999,12.05L68.76500360759562,12.05L67.0507178933099,10.335714285714285L66.62214646473848,10.335714285714285L66.19357503616705,9.907142857142858L33.8364321790242,9.907142857142858L33.622146464738485,9.692857142857143L33.40786075045278,9.692857142857143L33.19357503616706,9.478571428571428L32.550717893309915,9.478571428571428L32.3364321790242,9.264285714285716L31.907860750452773,9.264285714285716L31.69357503616706,9.05L31.5,9.05L31.5,8.95L31.73499639240437,8.95L31.94928210669008,9.164285714285715L32.37785353526151,9.164285714285715L32.59213924954722,9.378571428571426L33.23499639240437,9.378571428571426L33.449282106690085,9.592857142857142L33.66356782097579,9.592857142857142L33.87785353526151,9.807142857142857z" stroke="none"/><path d="M32.52142857142857,7.45L32.52142857142857,7.30642496383294L32.3364321790242,7.121428571428571L18.87785353526151,7.121428571428571L18.020710678118654,7.978571428571428L17.80642496383294,7.978571428571428L17.163567820975796,8.62142857142857L16.94928210669008,8.62142857142857L16.53535533905933,9.035355339059327L16.46464466094067,8.964644660940673L16.907860750452773,8.521428571428569L17.12214646473849,8.521428571428569L17.76500360759563,7.878571428571428L17.979289321881346,7.878571428571428L18.836432179024204,7.021428571428571L32.37785353526151,7.021428571428571L32.62142857142857,7.265003607595631L32.62142857142857,7.45L41.122146464738485,7.45L41.550717893309915,7.021428571428571L59.3364321790242,7.021428571428571L59.550717893309915,6.807142857142857L63.40786075045277,6.807142857142857L63.622146464738485,6.5928571428571425L64.69357503616705,6.5928571428571425L64.87857142857142,6.407860750452773L64.87857142857142,5.592139249547226L64.47928932188132,5.192857142857142L64.26500360759562,5.192857142857142L63.622146464738485,4.55L63.40786075045277,4.55L63.19357503616706,4.335714285714285L62.979289321881346,4.335714285714285L62.76500360759563,4.121428571428571L61.90786075045277,4.121428571428571L61.69357503616706,3.907142857142857L57.020710678118654,3.907142857142857L56.80642496383294,4.121428571428571L56.16356782097579,4.121428571428571L55.73499639240437,4.55L55.5,4.55L55.5,4.45L55.69357503616706,4.45L56.122146464738485,4.021428571428571L56.76500360759563,4.021428571428571L56.979289321881346,3.8071428571428574L61.73499639240437,3.8071428571428574L61.94928210669008,4.021428571428571L62.80642496383294,4.021428571428571L63.020710678118654,4.235714285714286L63.23499639240437,4.235714285714286L63.44928210669008,4.45L63.66356782097579,4.45L64.30642496383294,5.0928571428571425L64.52071067811865,5.0928571428571425L64.97857142857141,5.550717893309916L64.97857142857141,6.449282106690083L64.73499639240437,6.692857142857142L63.66356782097579,6.692857142857142L63.44928210669008,6.907142857142857L59.59213924954722,6.907142857142857L59.37785353526151,7.121428571428571L41.59213924954722,7.121428571428571L41.16356782097579,7.55L32.62142857142857,7.55L32.62142857142857,8.550717893309915L33.03535533905933,8.964644660940673L32.96464466094067,9.035355339059327L32.52142857142857,8.592139249547223L32.52142857142857,7.55L25.5,7.55L25.5,7.45z" stroke="none"/><path d="M89.52142857142856,7.021428571428571L89.52142857142856,6.8778535352615116L89.33643217902419,6.692857142857142L68.76500360759562,6.692857142857142L68.12214646473848,6.05L67.49999999999999,6.05L67.49999999999999,5.95L68.1635678209758,5.95L68.80642496383294,6.5928571428571425L89.37785353526151,6.5928571428571425L89.62142857142855,6.836432179024202L89.62142857142855,7.021428571428571L89.97928932188132,7.021428571428571L90.19357503616705,6.807142857142857L90.83643217902419,6.807142857142857L91.26500360759562,6.378571428571428L91.90786075045276,6.378571428571428L92.33643217902419,5.95L92.5507178933099,5.95L92.97928932188132,5.521428571428571L96.83643217902419,5.521428571428571L97.0507178933099,5.307142857142857L97.47928932188132,5.307142857142857L97.69357503616705,5.0928571428571425L97.90786075045276,5.0928571428571425L98.12214646473846,4.878571428571429L98.33643217902419,4.878571428571429L98.5507178933099,4.664285714285715L98.76500360759562,4.664285714285715L98.96464466094066,4.464644660940673L99.03535533905931,4.535355339059327L98.80642496383294,4.764285714285714L98.59213924954722,4.764285714285714L98.37785353526151,4.978571428571429L98.16356782097579,4.978571428571429L97.94928210669008,5.192857142857142L97.73499639240437,5.192857142857142L97.52071067811865,5.407142857142857L97.09213924954722,5.407142857142857L96.87785353526151,5.621428571428571L93.02071067811865,5.621428571428571L92.59213924954722,6.05L92.37785353526151,6.05L91.94928210669008,6.478571428571428L91.30642496383294,6.478571428571428L90.87785353526151,6.907142857142857L90.23499639240437,6.907142857142857L90.02071067811865,7.121428571428571L89.62142857142855,7.121428571428571L89.62142857142855,7.69357503616706L89.83571428571427,7.907860750452773L89.83571428571427,8.550717893309915L90.04999999999998,8.76500360759563L90.04999999999998,9L89.94999999999999,9L89.94999999999999,8.806424963832939L89.73571428571428,8.592139249547223L89.73571428571428,7.949282106690083L89.52142857142856,7.734996392404369L89.52142857142856,7.121428571428571L89.37785353526151,7.121428571428571L89.19285714285714,7.30642496383294L89.19285714285714,8.336432179024204L89.62142857142855,8.76500360759563L89.62142857142855,8.979289321881346L89.80642496383294,9.164285714285715L92.37785353526151,9.164285714285715L92.59213924954722,9.378571428571426L100.69357503616705,9.378571428571426L100.90786075045276,9.164285714285715L101.76500360759562,9.164285714285715L101.96464466094066,8.964644660940673L102.03535533905931,9.035355339059327L101.80642496383294,9.264285714285716L100.94928210669008,9.264285714285716L100.73499639240437,9.478571428571428L92.5507178933099,9.478571428571428L92.33643217902419,9.264285714285716L89.76500360759562,9.264285714285716L89.52142857142856,9.020710678118654L89.52142857142856,8.806424963832939L89.09285714285714,8.377853535261512L89.09285714285714,7.265003607595631L89.33643217902419,7.021428571428571z" stroke="none"/><path d="M27.164285714285715,5.521428571428571L27.164285714285715,5.336432179024202L27.407860750452773,5.0928571428571425L27.663567820975796,5.0928571428571425L27.90714285714286,5.336432179024202L27.90714285714286,6.234996392404369L27.663567820975796,6.478571428571428L10.479289321881346,6.478571428571428L10.235714285714284,6.234996392404369L10.235714285714284,5.765003607595631L10.479289321881346,5.521428571428571L11.336432179024204,5.521428571428571L11.550717893309915,5.307142857142857L11.76500360759563,5.307142857142857L11.979289321881346,5.0928571428571425L12.193575036167061,5.0928571428571425L12.407860750452773,4.878571428571429L13.907860750452773,4.878571428571429L14.122146464738488,4.664285714285715L14.550717893309915,4.664285714285715L15.622146464738488,3.592857142857143L15.836432179024204,3.592857142857143L16.050717893309915,3.3785714285714286L16.26500360759563,3.3785714285714286L16.479289321881346,3.1642857142857146L18.19357503616706,3.1642857142857146L18.62214646473849,2.7357142857142858L28.092139249547223,2.7357142857142858L28.520710678118654,3.1642857142857146L28.73499639240437,3.1642857142857146L28.94928210669008,3.3785714285714286L62.80642496383294,3.3785714285714286L63.44928210669008,4.021428571428571L63.66356782097579,4.021428571428571L64.30642496383294,4.664285714285715L64.52071067811865,4.664285714285715L65.19285714285714,5.336432179024202L65.19285714285714,6.663567820975797L64.94928210669008,6.907142857142857L63.87785353526151,6.907142857142857L63.66356782097579,7.121428571428571L59.80642496383294,7.121428571428571L59.59213924954722,7.335714285714285L59.16356782097579,7.335714285714285L58.94928210669008,7.55L58.5,7.55L58.5,7.45L58.90786075045277,7.45L59.122146464738485,7.235714285714286L59.550717893309915,7.235714285714286L59.76500360759563,7.021428571428571L63.622146464738485,7.021428571428571L63.8364321790242,6.807142857142857L64.90786075045276,6.807142857142857L65.09285714285714,6.622146464738488L65.09285714285714,5.3778535352615116L64.47928932188132,4.764285714285714L64.26500360759562,4.764285714285714L63.622146464738485,4.121428571428571L63.40786075045277,4.121428571428571L62.76500360759563,3.478571428571428L28.907860750452773,3.478571428571428L28.69357503616706,3.2642857142857142L28.479289321881346,3.2642857142857142L28.050717893309915,2.8357142857142854L18.663567820975796,2.8357142857142854L18.23499639240437,3.2642857142857142L16.520710678118654,3.2642857142857142L16.30642496383294,3.478571428571428L16.092139249547223,3.478571428571428L15.877853535261512,3.6928571428571426L15.663567820975796,3.6928571428571426L14.592139249547223,4.764285714285714L14.163567820975796,4.764285714285714L13.949282106690081,4.978571428571429L12.449282106690081,4.978571428571429L12.23499639240437,5.192857142857142L12.020710678118654,5.192857142857142L11.806424963832939,5.407142857142857L11.592139249547223,5.407142857142857L11.377853535261512,5.621428571428571L10.520710678118654,5.621428571428571L10.335714285714285,5.80642496383294L10.335714285714285,6.19357503616706L10.520710678118654,6.378571428571428L27.62214646473849,6.378571428571428L27.807142857142857,6.19357503616706L27.807142857142857,5.3778535352615116L27.62214646473849,5.192857142857142L27.44928210669008,5.192857142857142L27.264285714285716,5.3778535352615116L27.264285714285716,5.521428571428571L27.44928210669008,5.521428571428571L27.692857142857143,5.765003607595631L27.692857142857143,6.020710678118655L27.44928210669008,6.264285714285714L10.907860750452773,6.264285714285714L10.693575036167061,6.05L10.5,6.05L10.5,5.95L10.73499639240437,5.95L10.949282106690081,6.164285714285715L27.407860750452773,6.164285714285715L27.59285714285714,5.979289321881345L27.59285714285714,5.80642496383294L27.407860750452773,5.621428571428571L27.264285714285716,5.621428571428571L27.264285714285716,5.80642496383294L27.020710678118654,6.05L18,6.05L18,5.95L26.979289321881346,5.95L27.164285714285715,5.765003607595631L27.164285714285715,5.621428571428571L17.12214646473849,5.621428571428571L16.907860750452773,5.407142857142857L16.479289321881346,5.407142857142857L16.02142857142857,4.949282106690084L16.02142857142857,4.050717893309916L16.26500360759563,3.8071428571428574L20.979289321881346,3.8071428571428574L21.62214646473849,3.1642857142857146L22.26500360759563,3.1642857142857146L22.46464466094067,2.9646446609406727L22.53535533905933,3.0353553390593273L22.30642496383294,3.2642857142857142L21.663567820975796,3.2642857142857142L21.020710678118654,3.907142857142857L16.30642496383294,3.907142857142857L16.12142857142857,4.092139249547226L16.12142857142857,4.907860750452774L16.520710678118654,5.307142857142857L16.94928210669008,5.307142857142857L17.163567820975796,5.521428571428571z" stroke="none"/><path d="M58.66428571428572,8.521428571428569L58.66428571428572,8.336432179024204L58.90786075045277,8.092857142857142L79.69357503616705,8.092857142857142L79.90786075045276,7.878571428571428L80.33643217902419,7.878571428571428L80.5507178933099,7.664285714285715L80.76500360759562,7.664285714285715L80.96464466094066,7.464644660940673L81.03535533905931,7.535355339059327L80.80642496383294,7.764285714285714L80.59213924954722,7.764285714285714L80.37785353526151,7.978571428571428L79.94928210669008,7.978571428571428L79.73499639240437,8.192857142857143L58.94928210669008,8.192857142857143L58.76428571428571,8.377853535261512L58.76428571428571,8.521428571428569L81.44928210669008,8.521428571428569L81.69285714285714,8.76500360759563L81.69285714285714,9.23499639240437L81.44928210669008,9.478571428571428L78.44928210669008,9.478571428571428L78.23499639240437,9.692857142857143L75.44928210669008,9.692857142857143L75.23499639240437,9.907142857142858L74.80642496383294,9.907142857142858L74.1635678209758,10.55L73.49999999999999,10.55L73.49999999999999,10.45L74.12214646473848,10.45L74.76500360759562,9.807142857142857L75.19357503616705,9.807142857142857L75.40786075045276,9.592857142857142L78.19357503616705,9.592857142857142L78.40786075045276,9.378571428571426L81.40786075045276,9.378571428571426L81.59285714285714,9.193575036167061L81.59285714285714,8.806424963832939L81.40786075045276,8.62142857142857L58.76428571428571,8.62142857142857L58.76428571428571,8.806424963832939L58.520710678118654,9.05L58.09213924954722,9.05L57.66356782097579,9.478571428571428L40.050717893309915,9.478571428571428L39.622146464738485,9.05L39,9.05L39,8.95L39.66356782097579,8.95L40.09213924954722,9.378571428571426L57.622146464738485,9.378571428571426L58.050717893309915,8.95L58.479289321881346,8.95L58.66428571428572,8.76500360759563L58.66428571428572,8.62142857142857L43.90786075045278,8.62142857142857L43.69357503616706,8.407142857142858L43.26500360759563,8.407142857142858L42.622146464738485,7.764285714285714L42.19357503616706,7.764285714285714L41.96464466094067,7.535355339059327L42.03535533905933,7.464644660940673L42.23499639240437,7.664285714285715L42.66356782097579,7.664285714285715L43.30642496383294,8.307142857142857L43.73499639240437,8.307142857142857L43.949282106690085,8.521428571428569z" stroke="none"/><path d="M96.04999999999998,9L95.94999999999999,9L95.94999999999999,7.5L96.04999999999998,7.5z" stroke="none"/><path d="M79.53535533905931,4.535355339059327L79.46464466094066,4.464644660940673L80.33643217902419,3.592857142857143L80.5507178933099,3.592857142857143L80.97928932188132,3.1642857142857146L81.40786075045276,3.1642857142857146L81.62214646473848,2.95L82.49999999999999,2.95L82.49999999999999,3.05L81.6635678209758,3.05L81.44928210669008,3.2642857142857142L81.02071067811865,3.2642857142857142L80.59213924954722,3.6928571428571426L80.37785353526151,3.6928571428571426z" stroke="none"/><path d="M6.035355339059327,11.964644660940673L5.964644660940673,12.035355339059327L4.907860750452774,10.978571428571428L4.265003607595631,10.978571428571428L3.8364321790242024,10.55L3,10.55L3,10.45L3.877853535261512,10.45L4.30642496383294,10.878571428571426L4.949282106690084,10.878571428571426z" stroke="none"/><path d="M8.95,4.5L9.05,4.5L9.05,5.3778535352615116L8.192857142857143,6.234996392404369L8.192857142857143,6.8778535352615116L7.535355339059327,7.535355339059327L7.464644660940673,7.464644660940673L8.092857142857142,6.836432179024202L8.092857142857142,6.19357503616706L8.95,5.336432179024202z" stroke="none"/><path d="M91.53535533905931,5.964644660940673L91.46464466094066,6.035355339059327L88.46464466094066,3.0353553390593273L88.53535533905931,2.9646446609406727z" stroke="none"/><path d="M10.55,12L10.45,12L10.45,7.5L10.55,7.5z" stroke="none"/><path d="M11.964644660940673,7.535355339059327L12.035355339059327,7.464644660940673L12.264285714285716,7.69357503616706L12.264285714285716,8.550717893309915L12.478571428571428,8.76500360759563L12.478571428571428,9.407860750452773L12.907142857142858,9.836432179024204L12.907142857142858,10.050717893309915L13.12142857142857,10.26500360759563L13.12142857142857,11.336432179024204L13.55,11.76500360759563L13.55,12L13.45,12L13.45,11.806424963832939L13.021428571428569,11.377853535261512L13.021428571428569,10.306424963832939L12.807142857142857,10.092139249547223L12.807142857142857,9.877853535261512L12.378571428571426,9.449282106690081L12.378571428571426,8.806424963832939L12.164285714285715,8.592139249547223L12.164285714285715,7.734996392404369z" stroke="none"/><path d="M101.96464466094066,2.9646446609406727L102.03535533905931,3.0353553390593273L101.37785353526151,3.6928571428571426L101.16356782097579,3.6928571428571426L100.73499639240437,4.121428571428571L100.52071067811865,4.121428571428571L100.30642496383294,4.335714285714285L100.09213924954722,4.335714285714285L99.23499639240437,5.192857142857142L98.80642496383294,5.192857142857142L98.59213924954722,5.407142857142857L98.37785353526151,5.407142857142857L98.16356782097579,5.621428571428571L97.30642496383294,5.621428571428571L97.09213924954722,5.835714285714285L96.44928210669008,5.835714285714285L96.23499639240437,6.05L95.99999999999999,6.05L95.99999999999999,5.95L96.19357503616705,5.95L96.40786075045276,5.735714285714286L97.0507178933099,5.735714285714286L97.26500360759562,5.521428571428571L98.12214646473846,5.521428571428571L98.33643217902419,5.307142857142857L98.5507178933099,5.307142857142857L98.76500360759562,5.0928571428571425L99.19357503616705,5.0928571428571425L100.0507178933099,4.235714285714286L100.26500360759562,4.235714285714286L100.47928932188132,4.021428571428571L100.69357503616705,4.021428571428571L101.12214646473846,3.592857142857143L101.33643217902419,3.592857142857143z" stroke="none"/><path d="M34.46464466094067,4.464644660940673L34.53535533905933,4.535355339059327L34.30642496383294,4.764285714285714L33.23499639240437,4.764285714285714L32.80642496383294,5.192857142857142L31.092139249547223,5.192857142857142L30.87785353526151,5.407142857142857L30.663567820975796,5.407142857142857L30.23499639240437,5.835714285714285L29.163567820975796,5.835714285714285L28.94928210669008,6.05L28.520710678118654,6.05L27.87785353526151,6.692857142857142L18.87785353526151,6.692857142857142L18.020710678118654,7.55L17.80642496383294,7.55L17.163567820975796,8.192857142857143L16.94928210669008,8.192857142857143L16.73499639240437,8.407142857142858L16.30642496383294,8.407142857142858L16.12142857142857,8.592139249547223L16.12142857142857,9.407860750452773L16.30642496383294,9.592857142857142L21.407860750452773,9.592857142857142L21.62214646473849,9.378571428571426L26.550717893309915,9.378571428571426L26.76500360759563,9.164285714285715L28.26500360759563,9.164285714285715L28.46464466094067,8.964644660940673L28.53535533905933,9.035355339059327L28.30642496383294,9.264285714285716L26.80642496383294,9.264285714285716L26.592139249547223,9.478571428571428L21.663567820975796,9.478571428571428L21.44928210669008,9.692857142857143L16.26500360759563,9.692857142857143L16.02142857142857,9.449282106690081L16.02142857142857,8.550717893309915L16.26500360759563,8.307142857142857L16.69357503616706,8.307142857142857L16.907860750452773,8.092857142857142L17.12214646473849,8.092857142857142L17.76500360759563,7.45L17.979289321881346,7.45L18.836432179024204,6.5928571428571425L27.836432179024204,6.5928571428571425L28.479289321881346,5.95L28.907860750452773,5.95L29.12214646473849,5.735714285714286L30.19357503616706,5.735714285714286L30.62214646473849,5.307142857142857L30.836432179024204,5.307142857142857L31.050717893309915,5.0928571428571425L32.76500360759563,5.0928571428571425L33.19357503616706,4.664285714285715L34.26500360759563,4.664285714285715z" stroke="none"/><path d="M61.5,5.95L61.5,6.05L52.5,6.05L52.5,5.95z" stroke="none"/><path d="M85.49999999999999,11.95L85.49999999999999,12.05L84.83643217902419,12.05L84.40786075045276,11.62142857142857L79.0507178933099,11.62142857142857L78.40786075045276,10.978571428571428L77.76500360759562,10.978571428571428L77.5507178933099,10.764285714285716L76.90786075045276,10.764285714285716L76.69357503616705,10.55L76.49999999999999,10.55L76.49999999999999,10.45L76.73499639240437,10.45L76.94928210669008,10.664285714285715L77.59213924954722,10.664285714285715L77.80642496383294,10.878571428571426L78.44928210669008,10.878571428571426L79.09213924954722,11.521428571428569L84.44928210669008,11.521428571428569L84.87785353526151,11.95z" stroke="none"/><path d="M4.464644660940673,12.035355339059327L4.535355339059327,11.964644660940673L4.734996392404369,12.164285714285715L4.949282106690084,12.164285714285715L5.163567820975797,12.378571428571426L6.407860750452773,12.378571428571426L7.021428571428571,11.76500360759563L7.021428571428571,11.550717893309915L7.45,11.122146464738488L7.45,10.693575036167061L7.664285714285715,10.479289321881346L7.664285714285715,10.050717893309915L8.95,8.76500360759563L8.95,8.550717893309915L9.592857142857142,7.907860750452773L9.592857142857142,7.69357503616706L9.807142857142857,7.479289321881345L9.807142857142857,7.265003607595631L10.050717893309915,7.021428571428571L12.663567820975796,7.021428571428571L12.877853535261512,7.235714285714286L13.092139249547223,7.235714285714286L13.306424963832939,7.45L13.5,7.45L13.5,7.55L13.26500360759563,7.55L13.050717893309915,7.335714285714285L12.836432179024204,7.335714285714285L12.622146464738488,7.121428571428571L10.092139249547223,7.121428571428571L9.907142857142858,7.30642496383294L9.907142857142858,7.520710678118655L9.692857142857143,7.734996392404369L9.692857142857143,7.949282106690083L9.05,8.592139249547223L9.05,8.806424963832939L7.764285714285714,10.092139249547223L7.764285714285714,10.520710678118654L7.55,10.73499639240437L7.55,11.163567820975796L7.121428571428571,11.592139249547223L7.121428571428571,11.806424963832939L6.449282106690083,12.478571428571428L5.122146464738488,12.478571428571428L4.907860750452774,12.264285714285716L4.69357503616706,12.264285714285716z" stroke="none"/><path d="M98.99999999999999,2.95L98.99999999999999,3.05L89.5507178933099,3.05L89.12214646473848,2.6214285714285714L88.09213924954722,2.6214285714285714L87.90714285714284,2.8064249638329404L87.90714285714284,2.979289321881345L88.12142857142855,3.1935750361670596L88.12142857142855,3.4078607504527736L88.33571428571427,3.622146464738488L88.33571428571427,4.265003607595631L88.53535533905931,4.464644660940673L88.46464466094066,4.535355339059327L88.23571428571428,4.30642496383294L88.23571428571428,3.6635678209757976L88.02142857142856,3.449282106690083L88.02142857142856,3.234996392404369L87.80714285714285,3.020710678118655L87.80714285714285,2.765003607595631L88.0507178933099,2.521428571428572L89.1635678209758,2.521428571428572L89.59213924954722,2.95z" stroke="none"/><path d="M21,10.55L21,10.45L33,10.45L33,10.55z" stroke="none"/><path d="M6,7.55L6,7.45L6.449282106690083,7.45L6.8778535352615116,7.878571428571428L8.336432179024204,7.878571428571428L8.550717893309915,7.664285714285715L8.76500360759563,7.664285714285715L9.407860750452773,7.021428571428571L9.622146464738488,7.021428571428571L9.836432179024204,6.807142857142857L13.73499639240437,6.807142857142857L14.407142857142858,7.479289321881345L14.407142857142858,7.69357503616706L15.907142857142858,9.193575036167061L15.907142857142858,9.622146464738488L16.092139249547223,9.807142857142857L28.26500360759563,9.807142857142857L28.479289321881346,9.592857142857142L28.69357503616706,9.592857142857142L28.878571428571426,9.407860750452773L28.878571428571426,8.592139249547223L28.69357503616706,8.407142857142858L20.979289321881346,8.407142857142858L20.55071789330992,7.978571428571428L20.12214646473849,7.978571428571428L19.69357503616706,7.55L19.5,7.55L19.5,7.45L19.73499639240437,7.45L20.163567820975796,7.878571428571428L20.592139249547227,7.878571428571428L21.020710678118654,8.307142857142857L28.73499639240437,8.307142857142857L28.978571428571428,8.550717893309915L28.978571428571428,9.449282106690081L28.73499639240437,9.692857142857143L28.520710678118654,9.692857142857143L28.30642496383294,9.907142857142858L16.050717893309915,9.907142857142858L15.807142857142857,9.663567820975796L15.807142857142857,9.23499639240437L14.307142857142857,7.734996392404369L14.307142857142857,7.520710678118655L13.693575036167061,6.907142857142857L9.877853535261512,6.907142857142857L9.663567820975796,7.121428571428571L9.449282106690081,7.121428571428571L8.806424963832939,7.764285714285714L8.592139249547223,7.764285714285714L8.377853535261512,7.978571428571428L6.836432179024202,7.978571428571428L6.407860750452773,7.55z" stroke="none"/><path d="M2.95,9L3.05,9L3.05,9.23499639240437L2.6214285714285714,9.663567820975796L2.6214285714285714,10.907860750452773L4.092139249547226,12.378571428571426L4.734996392404369,12.378571428571426L4.949282106690084,12.592857142857142L14.979289321881346,12.592857142857142L15.193575036167061,12.378571428571426L15.407860750452773,12.378571428571426L16.050717893309915,11.735714285714284L16.26500360759563,11.735714285714284L17.336432179024204,10.664285714285715L17.76500360759563,10.664285714285715L17.96464466094067,10.464644660940673L18.03535533905933,10.535355339059327L17.80642496383294,10.764285714285716L17.37785353526151,10.764285714285716L16.30642496383294,11.835714285714285L16.092139249547223,11.835714285714285L15.449282106690081,12.478571428571428L15.23499639240437,12.478571428571428L15.020710678118654,12.692857142857143L4.907860750452774,12.692857142857143L4.69357503616706,12.478571428571428L4.050717893309916,12.478571428571428L2.521428571428572,10.949282106690081L2.521428571428572,9.622146464738488L2.95,9.193575036167061z" stroke="none"/><path d="M76.53535533905931,4.535355339059327L76.46464466094066,4.464644660940673L77.97928932188132,2.95L80.97928932188132,2.95L81.19357503616705,2.7357142857142858L81.40786075045276,2.7357142857142858L81.62214646473848,2.521428571428572L87.62214646473848,2.521428571428572L87.83643217902419,2.3071428571428574L99.23499639240437,2.3071428571428574L99.47857142857141,2.550717893309917L99.47857142857141,3.449282106690083L99.23499639240437,3.6928571428571426L97.52071067811865,3.6928571428571426L97.30642496383294,3.907142857142857L95.80642496383294,3.907142857142857L95.59213924954722,4.121428571428571L93.66356782097579,4.121428571428571L93.44928210669008,4.335714285714285L93.23499639240437,4.335714285714285L93.03535533905931,4.535355339059327L92.96464466094066,4.464644660940673L93.19357503616705,4.235714285714286L93.40786075045276,4.235714285714286L93.62214646473846,4.021428571428571L95.5507178933099,4.021428571428571L95.76500360759562,3.8071428571428574L97.26500360759562,3.8071428571428574L97.47928932188132,3.592857142857143L99.19357503616705,3.592857142857143L99.37857142857142,3.4078607504527736L99.37857142857142,2.5921392495472264L99.19357503616705,2.407142857142857L87.87785353526151,2.407142857142857L87.6635678209758,2.6214285714285714L81.6635678209758,2.6214285714285714L81.44928210669008,2.8357142857142854L81.23499639240437,2.8357142857142854L81.02071067811865,3.05L78.02071067811865,3.05z" stroke="none"/><path d="M57,8.95L57,9.05L40.5,9.05L40.5,8.95z" stroke="none"/><path d="M100.49999999999999,10.45L100.49999999999999,10.55L89.1635678209758,10.55L88.73499639240437,10.978571428571428L88.09213924954722,10.978571428571428L87.87785353526151,11.192857142857143L87.6635678209758,11.192857142857143L87.02071067811865,11.835714285714285L86.80642496383294,11.835714285714285L86.1635678209758,12.478571428571428L84.62214646473848,12.478571428571428L84.40786075045276,12.264285714285716L84.19357503616705,12.264285714285716L83.96464466094066,12.035355339059327L84.03535533905931,11.964644660940673L84.23499639240437,12.164285714285715L84.44928210669008,12.164285714285715L84.6635678209758,12.378571428571426L86.12214646473848,12.378571428571426L86.76500360759562,11.735714285714284L86.97928932188132,11.735714285714284L87.62214646473848,11.092857142857142L87.83643217902419,11.092857142857142L88.0507178933099,10.878571428571426L88.69357503616705,10.878571428571426L89.12214646473848,10.45z" stroke="none"/><path d="M80.99999999999999,5.95L80.99999999999999,6.05L77.5507178933099,6.05L77.33643217902419,5.835714285714285L77.12214646473848,5.835714285714285L76.47928932188132,5.192857142857142L76.26500360759562,5.192857142857142L76.02142857142856,4.949282106690084L76.02142857142856,4.050717893309916L76.26500360759562,3.8071428571428574L76.47928932188132,3.8071428571428574L76.90786075045276,3.3785714285714286L77.12214646473848,3.3785714285714286L77.76500360759562,2.7357142857142858L80.33643217902419,2.7357142857142858L80.5507178933099,2.521428571428572L81.19357503616705,2.521428571428572L81.40786075045276,2.3071428571428574L86.12214646473848,2.3071428571428574L86.33643217902419,2.092857142857143L99.44928210669008,2.092857142857143L99.69285714285712,2.3364321790242024L99.69285714285712,3.6635678209757976L99.44928210669008,3.907142857142857L98.59213924954722,3.907142857142857L98.37785353526151,4.121428571428571L98.16356782097579,4.121428571428571L97.73499639240437,4.55L97.49999999999999,4.55L97.49999999999999,4.45L97.69357503616705,4.45L98.12214646473846,4.021428571428571L98.33643217902419,4.021428571428571L98.5507178933099,3.8071428571428574L99.40786075045276,3.8071428571428574L99.59285714285713,3.622146464738488L99.59285714285713,2.377853535261512L99.40786075045276,2.1928571428571426L86.37785353526151,2.1928571428571426L86.1635678209758,2.407142857142857L81.44928210669008,2.407142857142857L81.23499639240437,2.6214285714285714L80.59213924954722,2.6214285714285714L80.37785353526151,2.8357142857142854L77.80642496383294,2.8357142857142854L77.1635678209758,3.478571428571428L76.94928210669008,3.478571428571428L76.52071067811865,3.907142857142857L76.30642496383294,3.907142857142857L76.12142857142855,4.092139249547226L76.12142857142855,4.907860750452774L76.30642496383294,5.0928571428571425L76.52071067811865,5.0928571428571425L77.1635678209758,5.735714285714286L77.37785353526151,5.735714285714286L77.59213924954722,5.95z" stroke="none"/><path d="M94.49999999999999,11.95L94.49999999999999,12.05L92.59213924954722,12.05L92.37785353526151,12.264285714285716L92.16356782097579,12.264285714285716L91.94928210669008,12.478571428571428L86.80642496383294,12.478571428571428L86.59213924954722,12.692857142857143L83.97928932188132,12.692857142857143L83.76500360759562,12.478571428571428L75.40786075045276,12.478571428571428L74.96464466094066,12.035355339059327L75.03535533905931,11.964644660940673L75.44928210669008,12.378571428571426L83.80642496383294,12.378571428571426L84.02071067811865,12.592857142857142L86.5507178933099,12.592857142857142L86.76500360759562,12.378571428571426L91.90786075045276,12.378571428571426L92.12214646473846,12.164285714285715L92.33643217902419,12.164285714285715L92.5507178933099,11.95z" stroke="none"/><path d="M101.99999999999999,10.45L101.99999999999999,10.55L101.76500360759562,10.55L101.5507178933099,10.335714285714285L101.12214646473846,10.335714285714285L100.90786075045276,10.12142857142857L76.09213924954722,10.12142857142857L75.90714285714284,10.306424963832939L75.90714285714284,10.693575036167061L76.09213924954722,10.878571428571426L76.52071067811865,10.878571428571426L76.73499639240437,11.092857142857142L78.23499639240437,11.092857142857142L78.87785353526151,11.735714285714284L80.59213924954722,11.735714285714284L80.80642496383294,11.95L80.99999999999999,11.95L80.99999999999999,12.05L80.76500360759562,12.05L80.5507178933099,11.835714285714285L78.83643217902419,11.835714285714285L78.19357503616705,11.192857142857143L76.69357503616705,11.192857142857143L76.47928932188132,10.978571428571428L76.0507178933099,10.978571428571428L75.80714285714285,10.73499639240437L75.80714285714285,10.26500360759563L76.0507178933099,10.021428571428569L100.94928210669008,10.021428571428569L101.16356782097579,10.235714285714284L101.59213924954722,10.235714285714284L101.80642496383294,10.45z" stroke="none"/><path d="M51,3.05L51,2.95L70.52071067811865,2.95L70.73499639240437,3.1642857142857146L71.1635678209758,3.1642857142857146L71.37785353526151,3.3785714285714286L71.59213924954722,3.3785714285714286L71.80642496383294,3.592857142857143L72.02071067811865,3.592857142857143L72.23499639240437,3.8071428571428574L72.44928210669008,3.8071428571428574L73.09213924954722,4.45L73.49999999999999,4.45L73.49999999999999,4.55L73.0507178933099,4.55L72.40786075045276,3.907142857142857L72.19357503616705,3.907142857142857L71.97928932188132,3.6928571428571426L71.76500360759562,3.6928571428571426L71.5507178933099,3.478571428571428L71.33643217902419,3.478571428571428L71.12214646473848,3.2642857142857142L70.69357503616705,3.2642857142857142L70.47928932188132,3.05z" stroke="none"/><path d="M4.5,3.05L4.5,2.95L17.76500360759563,2.95L17.979289321881346,2.7357142857142858L18.19357503616706,2.7357142857142858L18.407860750452773,2.521428571428572L29.163567820975796,2.521428571428572L29.37785353526151,2.7357142857142858L29.80642496383294,2.7357142857142858L30.03535533905933,2.9646446609406727L29.96464466094067,3.0353553390593273L29.76500360759563,2.8357142857142854L29.336432179024204,2.8357142857142854L29.12214646473849,2.6214285714285714L18.44928210669008,2.6214285714285714L18.23499639240437,2.8357142857142854L18.020710678118654,2.8357142857142854L17.80642496383294,3.05z" stroke="none"/><path d="M33,2.95L33,3.05L31.050717893309915,3.05L30.836432179024204,2.8357142857142854L30.62214646473849,2.8357142857142854L30.407860750452773,2.6214285714285714L29.550717893309915,2.6214285714285714L29.336432179024204,2.407142857142857L4.30642496383294,2.407142857142857L4.121428571428571,2.5921392495472264L4.121428571428571,3.4078607504527736L6.449282106690083,5.735714285714286L7.30642496383294,5.735714285714286L7.535355339059327,5.964644660940673L7.464644660940673,6.035355339059327L7.265003607595631,5.835714285714285L6.407860750452773,5.835714285714285L4.021428571428571,3.449282106690083L4.021428571428571,2.550717893309917L4.265003607595631,2.3071428571428574L29.37785353526151,2.3071428571428574L29.592139249547223,2.521428571428572L30.44928210669008,2.521428571428572L30.663567820975796,2.7357142857142858L30.87785353526151,2.7357142857142858L31.092139249547223,2.95z" stroke="none"/><path d="M65.96464466094066,10.535355339059327L66.03535533905931,10.464644660940673L67.09213924954722,11.521428571428569L67.30642496383294,11.521428571428569L67.52071067811865,11.735714285714284L67.73499639240437,11.735714285714284L68.1635678209758,12.164285714285715L68.37785353526151,12.164285714285715L68.59213924954722,12.378571428571426L71.76500360759562,12.378571428571426L72.83643217902419,11.307142857142857L73.47928932188132,11.307142857142857L74.12214646473848,10.664285714285715L74.33643217902419,10.664285714285715L74.76500360759562,10.235714285714284L75.19357503616705,10.235714285714284L75.40786075045276,10.021428571428569L75.62214646473848,10.021428571428569L75.83643217902419,9.807142857142857L101.97928932188132,9.807142857142857L102.37857142857142,9.407860750452773L102.37857142857142,8.592139249547223L102.19357503616705,8.407142857142858L98.5507178933099,8.407142857142858L97.90786075045276,7.764285714285714L97.69357503616705,7.764285714285714L97.26500360759562,7.335714285714285L96.62214646473846,7.335714285714285L96.40786075045276,7.121428571428571L95.59213924954722,7.121428571428571L93.87785353526151,8.835714285714285L93.23499639240437,8.835714285714285L93.03535533905931,9.035355339059327L92.96464466094066,8.964644660940673L93.19357503616705,8.735714285714284L93.83643217902419,8.735714285714284L95.5507178933099,7.021428571428571L96.44928210669008,7.021428571428571L96.66356782097579,7.235714285714286L97.30642496383294,7.235714285714286L97.73499639240437,7.664285714285715L97.94928210669008,7.664285714285715L98.59213924954722,8.307142857142857L102.23499639240437,8.307142857142857L102.47857142857141,8.550717893309915L102.47857142857141,9.449282106690081L102.02071067811865,9.907142857142858L75.87785353526151,9.907142857142858L75.6635678209758,10.12142857142857L75.44928210669008,10.12142857142857L75.23499639240437,10.335714285714285L74.80642496383294,10.335714285714285L74.37785353526151,10.764285714285716L74.1635678209758,10.764285714285716L73.52071067811865,11.407142857142858L72.87785353526151,11.407142857142858L71.80642496383294,12.478571428571428L68.5507178933099,12.478571428571428L68.33643217902419,12.264285714285716L68.12214646473848,12.264285714285716L67.69357503616705,11.835714285714285L67.47928932188132,11.835714285714285L67.26500360759562,11.62142857142857L67.0507178933099,11.62142857142857z" stroke="none"/><path d="M43.5,11.95L43.5,12.05L24.44928210669008,12.05L24.23499639240437,12.264285714285716L23.163567820975796,12.264285714285716L22.94928210669008,12.478571428571428L16.73499639240437,12.478571428571428L16.520710678118654,12.692857142857143L16.092139249547223,12.692857142857143L15.877853535261512,12.907142857142858L4.050717893309916,12.907142857142858L2.3071428571428574,11.163567820975796L2.3071428571428574,8.76500360759563L2.550717893309917,8.521428571428569L2.765003607595631,8.521428571428569L3.1935750361670596,8.092857142857142L4.265003607595631,8.092857142857142L5.336432179024202,7.021428571428571L7.265003607595631,7.021428571428571L7.878571428571428,6.407860750452773L7.878571428571428,4.69357503616706L8.550717893309915,4.021428571428571L9.449282106690081,4.021428571428571L9.692857142857143,4.265003607595631L9.692857142857143,5.765003607595631L9.907142857142858,5.979289321881345L9.907142857142858,6.19357503616706L10.306424963832939,6.5928571428571425L13.949282106690081,6.5928571428571425L14.592139249547223,7.235714285714286L14.806424963832939,7.235714285714286L15.035355339059327,7.464644660940673L14.964644660940673,7.535355339059327L14.76500360759563,7.335714285714285L14.550717893309915,7.335714285714285L13.907860750452773,6.692857142857142L10.26500360759563,6.692857142857142L9.807142857142857,6.234996392404369L9.807142857142857,6.020710678118655L9.592857142857142,5.80642496383294L9.592857142857142,4.30642496383294L9.407860750452773,4.121428571428571L8.592139249547223,4.121428571428571L7.978571428571428,4.734996392404369L7.978571428571428,6.449282106690083L7.30642496383294,7.121428571428571L5.3778535352615116,7.121428571428571L4.30642496383294,8.192857142857143L3.234996392404369,8.192857142857143L2.8064249638329404,8.62142857142857L2.5921392495472264,8.62142857142857L2.407142857142857,8.806424963832939L2.407142857142857,11.122146464738488L4.092139249547226,12.807142857142857L15.836432179024204,12.807142857142857L16.050717893309915,12.592857142857142L16.479289321881346,12.592857142857142L16.69357503616706,12.378571428571426L22.907860750452773,12.378571428571426L23.12214646473849,12.164285714285715L24.19357503616706,12.164285714285715L24.407860750452773,11.95z" stroke="none"/><path d="M43.5,3.05L43.5,2.95L49.90786075045277,2.95L50.122146464738485,2.7357142857142858L50.3364321790242,2.7357142857142858L50.550717893309915,2.521428571428572L70.30642496383294,2.521428571428572L70.52071067811865,2.7357142857142858L72.02071067811865,2.7357142857142858L72.23499639240437,2.95L72.6635678209758,2.95L72.87785353526151,3.1642857142857146L73.09213924954722,3.1642857142857146L73.97857142857141,4.050717893309916L73.97857142857141,4.265003607595631L74.19285714285714,4.479289321881345L74.19285714285714,4.69357503616706L74.40714285714284,4.907860750452774L74.40714285714284,5.122146464738488L75.04999999999998,5.765003607595631L75.04999999999998,6L74.94999999999999,6L74.94999999999999,5.80642496383294L74.30714285714285,5.163567820975797L74.30714285714285,4.949282106690084L74.09285714285714,4.734996392404369L74.09285714285714,4.520710678118655L73.87857142857142,4.30642496383294L73.87857142857142,4.092139249547226L73.0507178933099,3.2642857142857142L72.83643217902419,3.2642857142857142L72.62214646473848,3.05L72.19357503616705,3.05L71.97928932188132,2.8357142857142854L70.47928932188132,2.8357142857142854L70.26500360759562,2.6214285714285714L50.59213924954722,2.6214285714285714L50.37785353526151,2.8357142857142854L50.16356782097579,2.8357142857142854L49.94928210669008,3.05z" stroke="none"/><path d="M22.5,12.05L22.5,11.95L23.979289321881346,11.95L24.19357503616706,11.735714285714284L42.8364321790242,11.735714285714284L43.050717893309915,11.521428571428569L49.30642496383294,11.521428571428569L49.520710678118654,11.735714285714284L58.520710678118654,11.735714285714284L58.73499639240437,11.95L60,11.95L60,12.05L58.69357503616706,12.05L58.479289321881346,11.835714285714285L49.479289321881346,11.835714285714285L49.26500360759563,11.62142857142857L43.09213924954722,11.62142857142857L42.87785353526151,11.835714285714285L24.23499639240437,11.835714285714285L24.020710678118654,12.05z" stroke="none"/><path d="M15.035355339059327,12.035355339059327L14.964644660940673,11.964644660940673L16.69357503616706,10.235714285714284L17.336432179024204,10.235714285714284L17.55071789330992,10.021428571428569L53.37785353526151,10.021428571428569L53.59213924954722,10.235714285714284L53.80642496383294,10.235714285714284L54.03535533905933,10.464644660940673L53.96464466094067,10.535355339059327L53.76500360759563,10.335714285714285L53.550717893309915,10.335714285714285L53.3364321790242,10.12142857142857L17.592139249547227,10.12142857142857L17.37785353526151,10.335714285714285L16.73499639240437,10.335714285714285z" stroke="none"/><path d="M18,12.05L18,11.95L21.62214646473849,11.95L22.05071789330992,11.521428571428569L42.622146464738485,11.521428571428569L42.8364321790242,11.307142857142857L62.59213924954722,11.307142857142857L62.80642496383294,11.521428571428569L63.66356782097579,11.521428571428569L63.87785353526151,11.735714285714284L64.30642496383294,11.735714285714284L64.53535533905931,11.964644660940673L64.46464466094066,12.035355339059327L64.26500360759562,11.835714285714285L63.8364321790242,11.835714285714285L63.622146464738485,11.62142857142857L62.76500360759563,11.62142857142857L62.550717893309915,11.407142857142858L42.87785353526151,11.407142857142858L42.66356782097579,11.62142857142857L22.092139249547227,11.62142857142857L21.663567820975796,12.05z" stroke="none"/><path d="M91.49999999999999,12.05L91.49999999999999,11.95L92.12214646473846,11.95L92.33643217902419,11.735714285714284L93.19357503616705,11.735714285714284L93.40786075045276,11.521428571428569L101.76500360759562,11.521428571428569L102.37857142857142,10.907860750452773L102.37857142857142,9.836432179024204L102.59285714285713,9.622146464738488L102.59285714285713,2.8064249638329404L102.40786075045276,2.6214285714285714L100.69357503616705,2.6214285714285714L100.47928932188132,2.407142857142857L100.26500360759562,2.407142857142857L100.0507178933099,2.1928571428571426L99.83643217902419,2.1928571428571426L99.62214646473846,1.9785714285714286L79.52071067811865,1.9785714285714286L79.30642496383294,2.1928571428571426L79.09213924954722,2.1928571428571426L78.6635678209758,2.6214285714285714L77.59213924954722,2.6214285714285714L77.1635678209758,3.05L76.94928210669008,3.05L76.30642496383294,3.6928571428571426L76.09213924954722,3.6928571428571426L75.90714285714284,3.877853535261512L75.90714285714284,6.020710678118655L75.44928210669008,6.478571428571428L70.90786075045276,6.478571428571428L70.69357503616705,6.264285714285714L68.97928932188132,6.264285714285714L68.76500360759562,6.05L68.5507178933099,6.05L68.33643217902419,5.835714285714285L68.12214646473848,5.835714285714285L67.90786075045276,5.621428571428571L67.09213924954722,5.621428571428571L66.23499639240437,6.478571428571428L66.02071067811865,6.478571428571428L65.80642496383294,6.692857142857142L65.59213924954722,6.692857142857142L65.1635678209758,7.121428571428571L64.09213924954723,7.121428571428571L63.87785353526151,7.335714285714285L60.23499639240437,7.335714285714285L60.020710678118654,7.55L59.37785353526151,7.55L58.94928210669008,7.978571428571428L44.122146464738485,7.978571428571428L43.90786075045278,7.764285714285714L43.69357503616706,7.764285714285714L43.46464466094067,7.535355339059327L43.53535533905933,7.464644660940673L43.73499639240437,7.664285714285715L43.949282106690085,7.664285714285715L44.16356782097579,7.878571428571428L58.90786075045277,7.878571428571428L59.3364321790242,7.45L59.979289321881346,7.45L60.19357503616706,7.235714285714286L63.8364321790242,7.235714285714286L64.05071789330991,7.021428571428571L65.12214646473848,7.021428571428571L65.5507178933099,6.5928571428571425L65.76500360759562,6.5928571428571425L65.97928932188132,6.378571428571428L66.19357503616705,6.378571428571428L67.0507178933099,5.521428571428571L67.94928210669008,5.521428571428571L68.1635678209758,5.735714285714286L68.37785353526151,5.735714285714286L68.59213924954722,5.95L68.80642496383294,5.95L69.02071067811865,6.164285714285715L70.73499639240437,6.164285714285715L70.94928210669008,6.378571428571428L75.40786075045276,6.378571428571428L75.80714285714285,5.979289321881345L75.80714285714285,3.8364321790242024L76.0507178933099,3.592857142857143L76.26500360759562,3.592857142857143L76.90786075045276,2.95L77.12214646473848,2.95L77.5507178933099,2.521428571428572L78.62214646473848,2.521428571428572L79.0507178933099,2.092857142857143L79.26500360759562,2.092857142857143L79.47928932188132,1.8785714285714286L99.66356782097579,1.8785714285714286L99.87785353526151,2.092857142857143L100.09213924954722,2.092857142857143L100.30642496383294,2.3071428571428574L100.52071067811865,2.3071428571428574L100.73499639240437,2.521428571428572L102.44928210669008,2.521428571428572L102.69285714285712,2.765003607595631L102.69285714285712,9.663567820975796L102.47857142857141,9.877853535261512L102.47857142857141,10.949282106690081L101.80642496383294,11.62142857142857L93.44928210669008,11.62142857142857L93.23499639240437,11.835714285714285L92.37785353526151,11.835714285714285L92.16356782097579,12.05z" stroke="none"/></svg>