<svg version="1.1" width="105" height="15" xmlns="http://www.w3.org/2000/svg"><path d="M38.59213924954722,1.2357142857142858L39.020710678118654,1.6642857142857144L39.23499639240437,1.6642857142857144L39.87785353526151,2.3071428571428574L40.09213924954722,2.3071428571428574L40.30642496383294,2.521428571428572L41.59213924954722,2.521428571428572L41.80642496383294,2.7357142857142858L42.020710678118654,2.7357142857142858L42.449282106690085,3.1642857142857146L42.66356782097579,3.1642857142857146L42.87785353526151,3.3785714285714286L43.09213924954722,3.3785714285714286L43.73499639240437,4.021428571428571L44.16356782097579,4.021428571428571L44.37785353526151,4.235714285714286L44.80642496383294,4.235714285714286L45.03535533905933,4.464644660940673L44.96464466094067,4.535355339059327L44.76500360759563,4.335714285714285L44.3364321790242,4.335714285714285L44.122146464738485,4.121428571428571L43.69357503616706,4.121428571428571L43.050717893309915,3.478571428571428L42.8364321790242,3.478571428571428L42.622146464738485,3.2642857142857142L42.40786075045278,3.2642857142857142L41.979289321881346,2.8357142857142854L41.76500360759563,2.8357142857142854L41.550717893309915,2.6214285714285714L40.26500360759563,2.6214285714285714L40.050717893309915,2.407142857142857L39.8364321790242,2.407142857142857L39.19357503616706,1.7642857142857145L38.979289321881346,1.7642857142857145L38.550717893309915,1.3357142857142859L26.477853535261513,1.3357142857142859L26.80642496383294,1.6642857142857144L27.020710678118654,1.6642857142857144L27.44928210669008,2.092857142857143L27.87785353526151,2.092857142857143L28.520710678118654,2.7357142857142858L29.163567820975796,2.7357142857142858L29.37785353526151,2.95L30,2.95L30,3.05L29.336432179024204,3.05L29.12214646473849,2.8357142857142854L28.479289321881346,2.8357142857142854L27.836432179024204,2.1928571428571426L27.407860750452773,2.1928571428571426L26.979289321881346,1.7642857142857145L26.76500360759563,1.7642857142857145L26.336432179024204,1.3357142857142859L15.020710678118654,1.3357142857142859L14.592139249547223,1.7642857142857145L13.73499639240437,1.7642857142857145L13.520710678118654,1.9785714285714286L13.306424963832939,1.9785714285714286L13.092139249547223,2.1928571428571426L12.449282106690081,2.1928571428571426L11.806424963832939,2.8357142857142854L11.377853535261512,2.8357142857142854L11.163567820975796,3.05L10.5,3.05L10.5,2.95L11.122146464738488,2.95L11.336432179024204,2.7357142857142858L11.76500360759563,2.7357142857142858L12.407860750452773,2.092857142857143L13.050717893309915,2.092857142857143L13.26500360759563,1.8785714285714286L13.479289321881346,1.8785714285714286L13.693575036167061,1.6642857142857144L14.550717893309915,1.6642857142857144L14.979289321881346,1.2357142857142858z" stroke="none"/><path d="M92.16356782097579,7.664285714285715L92.59213924954722,8.092857142857142L94.52071067811865,8.092857142857142L94.73499639240437,8.307142857142857L94.94928210669008,8.307142857142857L95.16356782097579,8.521428571428569L96.02071067811865,8.521428571428569L96.23499639240437,8.735714285714284L96.44928210669008,8.735714285714284L96.66356782097579,8.95L97.49999999999999,8.95L97.49999999999999,9.05L96.62214646473846,9.05L96.40786075045276,8.835714285714285L96.19357503616705,8.835714285714285L95.97928932188132,8.62142857142857L95.12214646473846,8.62142857142857L94.90786075045276,8.407142857142858L94.69357503616705,8.407142857142858L94.47928932188132,8.192857142857143L92.5507178933099,8.192857142857143L92.12214646473846,7.764285714285714L91.33571428571427,7.764285714285714L91.33571428571427,7.907860750452773L91.52071067811865,8.092857142857142L91.94928210669008,8.092857142857142L92.16356782097579,8.307142857142857L94.30642496383294,8.307142857142857L94.94928210669008,8.95L96.02071067811865,8.95L96.23499639240437,9.164285714285715L97.52071067811865,9.164285714285715L98.16356782097579,9.807142857142857L98.37785353526151,9.807142857142857L99.44928210669008,10.878571428571426L100.52071067811865,10.878571428571426L100.94928210669008,11.307142857142857L101.16356782097579,11.307142857142857L101.59213924954722,11.735714285714284L101.80642496383294,11.735714285714284L102.03535533905931,11.964644660940673L101.96464466094066,12.035355339059327L101.76500360759562,11.835714285714285L101.5507178933099,11.835714285714285L101.12214646473846,11.407142857142858L100.90786075045276,11.407142857142858L100.47928932188132,10.978571428571428L99.40786075045276,10.978571428571428L98.33643217902419,9.907142857142858L98.12214646473846,9.907142857142858L97.47928932188132,9.264285714285716L96.19357503616705,9.264285714285716L95.97928932188132,9.05L94.90786075045276,9.05L94.26500360759562,8.407142857142858L92.12214646473846,8.407142857142858L91.90786075045276,8.192857142857143L91.47928932188132,8.192857142857143L91.23571428571428,7.949282106690083L91.23571428571428,7.764285714285714L90.6635678209758,7.764285714285714L90.44928210669008,7.978571428571428L82.30642496383294,7.978571428571428L81.23499639240437,9.05L80.99999999999999,9.05L80.99999999999999,8.95L81.19357503616705,8.95L82.26500360759562,7.878571428571428L90.40786075045276,7.878571428571428L90.62214646473848,7.664285714285715z" stroke="none"/><path d="M20.37785353526151,7.664285714285715L20.592139249547227,7.878571428571428L25.73499639240437,7.878571428571428L26.592139249547223,8.735714285714284L26.80642496383294,8.735714285714284L27.03535533905933,8.964644660940673L26.96464466094067,9.035355339059327L26.76500360759563,8.835714285714285L26.550717893309915,8.835714285714285L25.69357503616706,7.978571428571428L20.55071789330992,7.978571428571428L20.336432179024204,7.764285714285714L18.90714285714286,7.764285714285714L18.90714285714286,7.907860750452773L19.092139249547227,8.092857142857142L25.520710678118654,8.092857142857142L27.23499639240437,9.807142857142857L27.44928210669008,9.807142857142857L28.94928210669008,11.307142857142857L29.163567820975796,11.307142857142857L29.80642496383294,11.95L30,11.95L30,12.05L29.76500360759563,12.05L29.12214646473849,11.407142857142858L28.907860750452773,11.407142857142858L27.407860750452773,9.907142857142858L27.19357503616706,9.907142857142858L25.479289321881346,8.192857142857143L19.05071789330992,8.192857142857143L18.807142857142857,7.949282106690083L18.807142857142857,7.764285714285714L15.663567820975796,7.764285714285714L15.449282106690081,7.978571428571428L7.949282106690083,7.978571428571428L7.734996392404369,8.192857142857143L7.092139249547226,8.192857142857143L6.234996392404369,9.05L6,9.05L6,8.95L6.19357503616706,8.95L7.050717893309916,8.092857142857142L7.69357503616706,8.092857142857142L7.907860750452773,7.878571428571428L15.407860750452773,7.878571428571428L15.622146464738488,7.664285714285715z" stroke="none"/><path d="M42.449282106690085,5.735714285714286L43.30642496383294,6.5928571428571425L43.520710678118654,6.5928571428571425L43.949282106690085,7.021428571428571L44.37785353526151,7.021428571428571L44.80642496383294,7.45L45,7.45L45,7.55L44.76500360759563,7.55L44.3364321790242,7.121428571428571L43.90786075045278,7.121428571428571L43.479289321881346,6.692857142857142L43.26500360759563,6.692857142857142L42.40786075045278,5.835714285714285L35.83571428571428,5.835714285714285L35.83571428571428,5.979289321881345L36.020710678118654,6.164285714285715L42.449282106690085,6.164285714285715L43.30642496383294,7.021428571428571L43.520710678118654,7.021428571428571L43.73499639240437,7.235714285714286L44.16356782097579,7.235714285714286L44.59213924954722,7.664285714285715L45.23499639240437,7.664285714285715L45.66356782097579,8.092857142857142L46.09213924954722,8.092857142857142L46.30642496383294,8.307142857142857L46.73499639240437,8.307142857142857L46.94928210669008,8.521428571428569L47.16356782097579,8.521428571428569L47.59213924954722,8.95L48,8.95L48,9.05L47.550717893309915,9.05L47.122146464738485,8.62142857142857L46.90786075045277,8.62142857142857L46.69357503616706,8.407142857142858L46.26500360759563,8.407142857142858L46.050717893309915,8.192857142857143L45.622146464738485,8.192857142857143L45.19357503616706,7.764285714285714L44.550717893309915,7.764285714285714L44.122146464738485,7.335714285714285L43.69357503616706,7.335714285714285L43.479289321881346,7.121428571428571L43.26500360759563,7.121428571428571L42.40786075045278,6.264285714285714L35.979289321881346,6.264285714285714L35.73571428571429,6.020710678118655L35.73571428571429,5.835714285714285L24.663567820975796,5.835714285714285L24.23499639240437,6.264285714285714L23.592139249547223,6.264285714285714L23.37785353526151,6.478571428571428L22.520710678118654,6.478571428571428L22.092139249547227,6.907142857142857L21.87785353526151,6.907142857142857L21.663567820975796,7.121428571428571L21.44928210669008,7.121428571428571L21.03535533905933,7.535355339059327L20.96464466094067,7.464644660940673L21.407860750452773,7.021428571428571L21.62214646473849,7.021428571428571L21.836432179024204,6.807142857142857L22.05071789330992,6.807142857142857L22.479289321881346,6.378571428571428L23.336432179024204,6.378571428571428L23.550717893309915,6.164285714285715L24.19357503616706,6.164285714285715L24.62214646473849,5.735714285714286z" stroke="none"/><path d="M64.52071067811865,2.521428571428572L64.94928210669008,2.95L65.59213924954722,2.95L66.02071067811865,3.3785714285714286L66.44928210669008,3.3785714285714286L70.30642496383294,7.235714285714286L70.52071067811865,7.235714285714286L71.37785353526151,8.092857142857142L71.59213924954722,8.092857142857142L72.44928210669008,8.95L72.6635678209758,8.95L73.09213924954722,9.378571428571426L76.0507178933099,9.378571428571426L76.26500360759562,9.164285714285715L76.47928932188132,9.164285714285715L76.90786075045276,8.735714285714284L77.12214646473848,8.735714285714284L77.33643217902419,8.521428571428569L77.97928932188132,8.521428571428569L78.40786075045276,8.092857142857142L79.69357503616705,8.092857142857142L79.90786075045276,7.878571428571428L80.12214646473848,7.878571428571428L80.33643217902419,7.664285714285715L80.76500360759562,7.664285714285715L80.96464466094066,7.464644660940673L81.03535533905931,7.535355339059327L80.80642496383294,7.764285714285714L80.37785353526151,7.764285714285714L80.1635678209758,7.978571428571428L79.94928210669008,7.978571428571428L79.73499639240437,8.192857142857143L78.44928210669008,8.192857142857143L78.02071067811865,8.62142857142857L77.37785353526151,8.62142857142857L77.1635678209758,8.835714285714285L76.94928210669008,8.835714285714285L76.52071067811865,9.264285714285716L76.30642496383294,9.264285714285716L76.09213924954722,9.478571428571428L73.0507178933099,9.478571428571428L72.62214646473848,9.05L72.40786075045276,9.05L71.5507178933099,8.192857142857143L71.33643217902419,8.192857142857143L70.47928932188132,7.335714285714285L70.26500360759562,7.335714285714285L66.40786075045276,3.478571428571428L65.97928932188132,3.478571428571428L65.5507178933099,3.05L64.90786075045276,3.05L64.47928932188132,2.6214285714285714L62.47785353526151,2.6214285714285714L64.09213924954723,4.235714285714286L64.30642496383294,4.235714285714286L64.53535533905931,4.464644660940673L64.46464466094066,4.535355339059327L64.26500360759562,4.335714285714285L64.05071789330991,4.335714285714285L62.357142857142854,2.6421392495472262L60.87785353526151,4.121428571428571L60.66356782097579,4.121428571428571L60.23499639240437,4.55L60,4.55L60,4.45L60.19357503616706,4.45L60.622146464738485,4.021428571428571L60.8364321790242,4.021428571428571L62.2364321790242,2.6214285714285714L54.66356782097579,2.6214285714285714L54.44928210669008,2.8357142857142854L53.59213924954722,2.8357142857142854L53.37785353526151,3.05L52.5,3.05L52.5,2.95L53.3364321790242,2.95L53.550717893309915,2.7357142857142858L54.40786075045277,2.7357142857142858L54.622146464738485,2.521428571428572z" stroke="none"/><path d="M85.87857142857142,5.521428571428571L85.87857142857142,5.3778535352615116L85.69357503616705,5.192857142857142L79.09213924954722,5.192857142857142L78.02071067811865,6.264285714285714L77.80642496383294,6.264285714285714L77.59213924954722,6.478571428571428L77.1635678209758,6.478571428571428L76.94928210669008,6.692857142857142L76.52071067811865,6.692857142857142L74.80642496383294,8.407142857142858L74.59213924954722,8.407142857142858L74.37785353526151,8.62142857142857L74.1635678209758,8.62142857142857L73.73499639240437,9.05L73.49999999999999,9.05L73.49999999999999,8.95L73.69357503616705,8.95L74.12214646473848,8.521428571428569L74.33643217902419,8.521428571428569L74.5507178933099,8.307142857142857L74.76500360759562,8.307142857142857L76.47928932188132,6.5928571428571425L76.90786075045276,6.5928571428571425L77.12214646473848,6.378571428571428L77.5507178933099,6.378571428571428L77.76500360759562,6.164285714285715L77.97928932188132,6.164285714285715L79.0507178933099,5.0928571428571425L85.73499639240437,5.0928571428571425L85.97857142857141,5.336432179024202L85.97857142857141,5.521428571428571L89.1635678209758,5.521428571428571L89.37785353526151,5.735714285714286L89.59213924954722,5.735714285714286L89.80642496383294,5.95L89.99999999999999,5.95L89.99999999999999,6.05L89.76500360759562,6.05L89.5507178933099,5.835714285714285L89.33643217902419,5.835714285714285L89.12214646473848,5.621428571428571L85.97857142857141,5.621428571428571L85.97857142857141,5.765003607595631L86.1635678209758,5.95L89.37785353526151,5.95L89.59213924954722,6.164285714285715L94.94928210669008,6.164285714285715L95.16356782097579,6.378571428571428L98.59213924954722,6.378571428571428L98.80642496383294,6.5928571428571425L100.52071067811865,6.5928571428571425L100.94928210669008,7.021428571428571L101.16356782097579,7.021428571428571L101.59213924954722,7.45L101.99999999999999,7.45L101.99999999999999,7.55L101.5507178933099,7.55L101.12214646473846,7.121428571428571L100.90786075045276,7.121428571428571L100.47928932188132,6.692857142857142L98.76500360759562,6.692857142857142L98.5507178933099,6.478571428571428L95.12214646473846,6.478571428571428L94.90786075045276,6.264285714285714L89.5507178933099,6.264285714285714L89.33643217902419,6.05L86.12214646473848,6.05L85.87857142857142,5.80642496383294L85.87857142857142,5.621428571428571L84.87785353526151,5.621428571428571L84.44928210669008,6.05L84.23499639240437,6.05L83.59213924954722,6.692857142857142L83.37785353526151,6.692857142857142L82.94928210669008,7.121428571428571L82.73499639240437,7.121428571428571L81.6635678209758,8.192857142857143L81.44928210669008,8.192857142857143L81.23499639240437,8.407142857142858L80.80642496383294,8.407142857142858L80.62142857142855,8.592139249547223L80.62142857142855,9.407860750452773L80.80642496383294,9.592857142857142L85.47928932188132,9.592857142857142L85.69357503616705,9.378571428571426L86.33643217902419,9.378571428571426L86.76500360759562,8.95L86.99999999999999,8.95L86.99999999999999,9.05L86.80642496383294,9.05L86.37785353526151,9.478571428571428L85.73499639240437,9.478571428571428L85.52071067811865,9.692857142857143L80.76500360759562,9.692857142857143L80.52142857142856,9.449282106690081L80.52142857142856,8.550717893309915L80.76500360759562,8.307142857142857L81.19357503616705,8.307142857142857L81.40786075045276,8.092857142857142L81.62214646473848,8.092857142857142L82.69357503616705,7.021428571428571L82.90786075045276,7.021428571428571L83.33643217902419,6.5928571428571425L83.5507178933099,6.5928571428571425L84.19357503616705,5.95L84.40786075045276,5.95L84.83643217902419,5.521428571428571z" stroke="none"/><path d="M38.80642496383294,1.8785714285714286L39.23499639240437,2.3071428571428574L39.449282106690085,2.3071428571428574L39.66356782097579,2.521428571428572L39.87785353526151,2.521428571428572L40.09213924954722,2.7357142857142858L40.949282106690085,2.7357142857142858L41.37785353526151,3.1642857142857146L41.59213924954722,3.1642857142857146L41.80642496383294,3.3785714285714286L42.020710678118654,3.3785714285714286L42.66356782097579,4.021428571428571L43.30642496383294,4.021428571428571L43.520710678118654,4.235714285714286L43.949282106690085,4.235714285714286L44.59213924954722,4.878571428571429L62.3364321790242,4.878571428571429L62.76500360759563,4.45L63,4.45L63,4.55L62.80642496383294,4.55L62.37785353526151,4.978571428571429L44.550717893309915,4.978571428571429L43.90786075045278,4.335714285714285L43.479289321881346,4.335714285714285L43.26500360759563,4.121428571428571L42.622146464738485,4.121428571428571L41.979289321881346,3.478571428571428L41.76500360759563,3.478571428571428L41.550717893309915,3.2642857142857142L41.3364321790242,3.2642857142857142L40.90786075045278,2.8357142857142854L40.050717893309915,2.8357142857142854L39.8364321790242,2.6214285714285714L39.622146464738485,2.6214285714285714L39.40786075045278,2.407142857142857L39.19357503616706,2.407142857142857L38.76500360759563,1.9785714285714286L33.97785353526151,1.9785714285714286L34.949282106690085,2.95L35.37785353526151,2.95L35.59213924954722,3.1642857142857146L35.80642496383294,3.1642857142857146L36.23499639240437,3.592857142857143L36.449282106690085,3.592857142857143L36.66356782097579,3.8071428571428574L36.87785353526151,3.8071428571428574L37.53535533905933,4.464644660940673L37.46464466094067,4.535355339059327L36.8364321790242,3.907142857142857L36.622146464738485,3.907142857142857L36.40786075045278,3.6928571428571426L36.19357503616706,3.6928571428571426L35.76500360759563,3.2642857142857142L35.550717893309915,3.2642857142857142L35.3364321790242,3.05L34.90786075045278,3.05L33.90714285714285,2.0492821066900833L33.90714285714285,2.1635678209757976L33.66356782097579,2.407142857142857L33.449282106690085,2.407142857142857L33.020710678118654,2.8357142857142854L32.59213924954722,2.8357142857142854L32.37785353526151,3.05L32.16356782097579,3.05L31.94928210669008,3.2642857142857142L31.73499639240437,3.2642857142857142L31.520710678118654,3.478571428571428L31.092139249547223,3.478571428571428L30.23499639240437,4.335714285714285L30.020710678118654,4.335714285714285L29.592139249547223,4.764285714285714L20.76500360759563,4.764285714285714L20.55071789330992,4.55L20.336432179024204,4.55L19.907860750452773,4.121428571428571L16.69357503616706,4.121428571428571L15.622146464738488,3.05L15,3.05L15,2.95L15.663567820975796,2.95L16.73499639240437,4.021428571428571L19.94928210669008,4.021428571428571L20.37785353526151,4.45L20.592139249547227,4.45L20.80642496383294,4.664285714285715L29.550717893309915,4.664285714285715L29.979289321881346,4.235714285714286L30.19357503616706,4.235714285714286L31.050717893309915,3.3785714285714286L31.479289321881346,3.3785714285714286L31.69357503616706,3.1642857142857146L31.907860750452773,3.1642857142857146L32.122146464738485,2.95L32.3364321790242,2.95L32.550717893309915,2.7357142857142858L32.979289321881346,2.7357142857142858L33.40786075045278,2.3071428571428574L33.622146464738485,2.3071428571428574L33.80714285714286,2.122146464738488L33.80714285714286,1.9785714285714286L33.449282106690085,1.9785714285714286L32.80642496383294,2.6214285714285714L32.16356782097579,2.6214285714285714L31.73499639240437,3.05L31.520710678118654,3.05L31.30642496383294,3.2642857142857142L30.663567820975796,3.2642857142857142L30.44928210669008,3.478571428571428L30.23499639240437,3.478571428571428L29.163567820975796,4.55L28.5,4.55L28.5,4.45L29.12214646473849,4.45L30.19357503616706,3.3785714285714286L30.407860750452773,3.3785714285714286L30.62214646473849,3.1642857142857146L31.26500360759563,3.1642857142857146L31.479289321881346,2.95L31.69357503616706,2.95L32.122146464738485,2.521428571428572L32.76500360759563,2.521428571428572L33.40786075045278,1.8785714285714286z" stroke="none"/><path d="M35.16356782097579,6.807142857142857L35.80642496383294,7.45L36,7.45L36,7.55L35.76500360759563,7.55L35.122146464738485,6.907142857142857L28.192139249547225,6.907142857142857L28.94928210669008,7.664285714285715L30.020710678118654,7.664285714285715L30.23499639240437,7.878571428571428L30.44928210669008,7.878571428571428L31.092139249547223,8.521428571428569L31.30642496383294,8.521428571428569L31.520710678118654,8.735714285714284L32.80642496383294,8.735714285714284L33.03535533905933,8.964644660940673L32.96464466094067,9.035355339059327L32.76500360759563,8.835714285714285L31.479289321881346,8.835714285714285L31.26500360759563,8.62142857142857L31.050717893309915,8.62142857142857L30.407860750452773,7.978571428571428L30.19357503616706,7.978571428571428L29.979289321881346,7.764285714285714L28.907860750452773,7.764285714285714L28.12142857142857,6.977853535261511L28.12142857142857,7.265003607595631L28.73499639240437,7.878571428571428L29.80642496383294,7.878571428571428L30.020710678118654,8.092857142857142L30.23499639240437,8.092857142857142L30.87785353526151,8.735714285714284L31.092139249547223,8.735714285714284L31.30642496383294,8.95L32.59213924954722,8.95L32.80642496383294,9.164285714285715L46.520710678118654,9.164285714285715L46.73499639240437,9.378571428571426L47.59213924954722,9.378571428571426L47.80642496383294,9.592857142857142L48.19357503616706,9.592857142857142L48.378571428571426,9.407860750452773L48.378571428571426,8.592139249547223L47.550717893309915,7.764285714285714L46.90786075045277,7.764285714285714L46.69357503616706,7.55L46.5,7.55L46.5,7.45L46.73499639240437,7.45L46.94928210669008,7.664285714285715L47.59213924954722,7.664285714285715L48.47857142857142,8.550717893309915L48.47857142857142,9.449282106690081L48.23499639240437,9.692857142857143L47.76500360759563,9.692857142857143L47.550717893309915,9.478571428571428L46.69357503616706,9.478571428571428L46.479289321881346,9.264285714285716L32.76500360759563,9.264285714285716L32.550717893309915,9.05L31.26500360759563,9.05L31.050717893309915,8.835714285714285L30.836432179024204,8.835714285714285L30.19357503616706,8.192857142857143L29.979289321881346,8.192857142857143L29.76500360759563,7.978571428571428L28.69357503616706,7.978571428571428L28.02142857142857,7.30642496383294L28.02142857142857,6.907142857142857L27.87785353526151,6.907142857142857L27.692857142857143,7.092139249547226L27.692857142857143,7.265003607595631L30.264285714285716,9.836432179024204L30.264285714285716,10.693575036167061L30.478571428571428,10.907860750452773L30.478571428571428,12.449282106690081L30.23499639240437,12.692857142857143L11.76500360759563,12.692857142857143L11.122146464738488,12.05L6,12.05L6,11.95L11.163567820975796,11.95L11.806424963832939,12.592857142857142L30.19357503616706,12.592857142857142L30.378571428571426,12.407860750452773L30.378571428571426,10.949282106690081L30.164285714285715,10.73499639240437L30.164285714285715,9.877853535261512L27.59285714285714,7.30642496383294L27.59285714285714,7.050717893309916L27.836432179024204,6.807142857142857z" stroke="none"/><path d="M19.46464466094067,4.464644660940673L19.53535533905933,4.535355339059327L18.03535533905933,6.035355339059327L17.96464466094067,5.964644660940673z" stroke="none"/><path d="M96.03535533905931,5.964644660940673L95.96464466094066,6.035355339059327L94.46464466094066,4.535355339059327L94.53535533905931,4.464644660940673z" stroke="none"/><path d="M74.99999999999999,12.05L74.99999999999999,11.95L75.62214646473848,11.95L75.83643217902419,11.735714285714284L76.0507178933099,11.735714285714284L76.26500360759562,11.521428571428569L78.87785353526151,11.521428571428569L79.30642496383294,11.95L79.49999999999999,11.95L79.49999999999999,12.05L79.26500360759562,12.05L78.83643217902419,11.62142857142857L76.30642496383294,11.62142857142857L76.09213924954722,11.835714285714285L75.87785353526151,11.835714285714285L75.6635678209758,12.05z" stroke="none"/><path d="M19.46464466094067,10.464644660940673L19.53535533905933,10.535355339059327L19.30642496383294,10.764285714285716L19.092139249547227,10.764285714285716L18.87785353526151,10.978571428571428L18.663567820975796,10.978571428571428L18.44928210669008,11.192857142857143L18.23499639240437,11.192857142857143L18.020710678118654,11.407142857142858L16.520710678118654,11.407142857142858L16.092139249547223,11.835714285714285L15.877853535261512,11.835714285714285L15.663567820975796,12.05L15,12.05L15,11.95L15.622146464738488,11.95L15.836432179024204,11.735714285714284L16.050717893309915,11.735714285714284L16.479289321881346,11.307142857142857L17.979289321881346,11.307142857142857L18.19357503616706,11.092857142857142L18.407860750452773,11.092857142857142L18.62214646473849,10.878571428571426L18.836432179024204,10.878571428571426L19.05071789330992,10.664285714285715L19.26500360759563,10.664285714285715z" stroke="none"/><path d="M18,9.05L18,8.95L18.44928210669008,8.95L18.87785353526151,9.378571428571426L21.19357503616706,9.378571428571426L21.407860750452773,9.164285714285715L22.05071789330992,9.164285714285715L22.26500360759563,8.95L24,8.95L24,9.05L22.30642496383294,9.05L22.092139249547227,9.264285714285716L21.44928210669008,9.264285714285716L21.23499639240437,9.478571428571428L18.836432179024204,9.478571428571428L18.407860750452773,9.05z" stroke="none"/><path d="M94.49999999999999,10.55L94.49999999999999,10.45L95.80642496383294,10.45L96.23499639240437,10.878571428571426L97.30642496383294,10.878571428571426L97.52071067811865,11.092857142857142L100.09213924954722,11.092857142857142L100.30642496383294,11.307142857142857L100.52071067811865,11.307142857142857L101.59213924954722,12.378571428571426L102.40786075045276,12.378571428571426L102.59285714285713,12.193575036167061L102.59285714285713,11.806424963832939L101.97928932188132,11.192857142857143L101.76500360759562,11.192857142857143L101.33643217902419,10.764285714285716L100.69357503616705,10.764285714285716L100.46464466094066,10.535355339059327L100.53535533905931,10.464644660940673L100.73499639240437,10.664285714285715L101.37785353526151,10.664285714285715L101.80642496383294,11.092857142857142L102.02071067811865,11.092857142857142L102.69285714285712,11.76500360759563L102.69285714285712,12.23499639240437L102.44928210669008,12.478571428571428L101.5507178933099,12.478571428571428L100.47928932188132,11.407142857142858L100.26500360759562,11.407142857142858L100.0507178933099,11.192857142857143L97.47928932188132,11.192857142857143L97.26500360759562,10.978571428571428L96.19357503616705,10.978571428571428L95.76500360759562,10.55z" stroke="none"/><path d="M15,7.45L15,7.55L14.550717893309915,7.55L14.122146464738488,7.121428571428571L13.907860750452773,7.121428571428571L13.693575036167061,6.907142857142857L11.979289321881346,6.907142857142857L11.76500360759563,6.692857142857142L10.479289321881346,6.692857142857142L10.26500360759563,6.478571428571428L9.622146464738488,6.478571428571428L9.407860750452773,6.264285714285714L9.193575036167061,6.264285714285714L8.964644660940673,6.035355339059327L9.035355339059327,5.964644660940673L9.23499639240437,6.164285714285715L9.449282106690081,6.164285714285715L9.663567820975796,6.378571428571428L10.306424963832939,6.378571428571428L10.520710678118654,6.5928571428571425L11.806424963832939,6.5928571428571425L12.020710678118654,6.807142857142857L13.73499639240437,6.807142857142857L13.949282106690081,7.021428571428571L14.163567820975796,7.021428571428571L14.592139249547223,7.45z" stroke="none"/><path d="M65.96464466094066,7.464644660940673L66.03535533905931,7.535355339059327L64.94928210669008,8.62142857142857L64.73499639240437,8.62142857142857L64.09213924954723,9.264285714285716L63.66356782097579,9.264285714285716L63.44928210669008,9.478571428571428L60.23499639240437,9.478571428571428L59.59213924954722,10.12142857142857L59.16356782097579,10.12142857142857L58.94928210669008,10.335714285714285L58.73499639240437,10.335714285714285L58.53535533905933,10.535355339059327L58.46464466094067,10.464644660940673L58.69357503616706,10.235714285714284L58.90786075045277,10.235714285714284L59.122146464738485,10.021428571428569L59.550717893309915,10.021428571428569L60.19357503616706,9.378571428571426L63.40786075045277,9.378571428571426L63.622146464738485,9.164285714285715L64.05071789330991,9.164285714285715L64.69357503616705,8.521428571428569L64.90786075045276,8.521428571428569z" stroke="none"/><path d="M92.99999999999999,3.05L92.99999999999999,2.95L94.30642496383294,2.95L94.94928210669008,3.592857142857143L95.59213924954722,3.592857142857143L95.80642496383294,3.8071428571428574L96.02071067811865,3.8071428571428574L96.23499639240437,4.021428571428571L98.37785353526151,4.021428571428571L98.59213924954722,4.235714285714286L98.80642496383294,4.235714285714286L101.16356782097579,6.5928571428571425L101.80642496383294,6.5928571428571425L102.02071067811865,6.807142857142857L102.23499639240437,6.807142857142857L102.47857142857141,7.050717893309916L102.47857142857141,7.949282106690083L102.23499639240437,8.192857142857143L101.76500360759562,8.192857142857143L101.12214646473846,7.55L100.49999999999999,7.55L100.49999999999999,7.45L101.16356782097579,7.45L101.80642496383294,8.092857142857142L102.19357503616705,8.092857142857142L102.37857142857142,7.907860750452773L102.37857142857142,7.092139249547226L102.19357503616705,6.907142857142857L101.97928932188132,6.907142857142857L101.76500360759562,6.692857142857142L101.12214646473846,6.692857142857142L98.76500360759562,4.335714285714285L98.5507178933099,4.335714285714285L98.33643217902419,4.121428571428571L96.19357503616705,4.121428571428571L95.97928932188132,3.907142857142857L95.76500360759562,3.907142857142857L95.5507178933099,3.6928571428571426L94.90786075045276,3.6928571428571426L94.26500360759562,3.05z" stroke="none"/><path d="M58.5,12.05L58.5,11.95L61.69357503616706,11.95L62.3364321790242,11.307142857142857L63.40786075045277,11.307142857142857L63.8364321790242,10.878571428571426L64.90786075045276,10.878571428571426L65.97928932188132,9.807142857142857L66.40786075045276,9.807142857142857L67.26500360759562,8.95L67.49999999999999,8.95L67.49999999999999,9.05L67.30642496383294,9.05L66.44928210669008,9.907142857142858L66.02071067811865,9.907142857142858L64.94928210669008,10.978571428571428L63.87785353526151,10.978571428571428L63.44928210669008,11.407142857142858L62.37785353526151,11.407142857142858L61.73499639240437,12.05z" stroke="none"/><path d="M13.5,10.45L13.5,10.55L10.949282106690081,10.55L10.73499639240437,10.764285714285716L9.663567820975796,10.764285714285716L9.449282106690081,10.978571428571428L4.30642496383294,10.978571428571428L3.449282106690083,11.835714285714285L3.234996392404369,11.835714285714285L3.0353553390593273,12.035355339059327L2.9646446609406727,11.964644660940673L3.1935750361670596,11.735714285714284L3.4078607504527736,11.735714285714284L4.265003607595631,10.878571428571426L9.407860750452773,10.878571428571426L9.622146464738488,10.664285714285715L10.693575036167061,10.664285714285715L10.907860750452773,10.45z" stroke="none"/><path d="M79.49999999999999,3.05L79.49999999999999,2.95L91.69357503616705,2.95L91.90786075045276,2.7357142857142858L92.33643217902419,2.7357142857142858L92.5507178933099,2.521428571428572L94.09213924954722,2.521428571428572L94.30642496383294,2.7357142857142858L94.52071067811865,2.7357142857142858L94.94928210669008,3.1642857142857146L95.59213924954722,3.1642857142857146L96.02071067811865,3.592857142857143L98.37785353526151,3.592857142857143L98.59213924954722,3.8071428571428574L98.80642496383294,3.8071428571428574L101.16356782097579,6.164285714285715L101.37785353526151,6.164285714285715L101.59213924954722,6.378571428571428L102.23499639240437,6.378571428571428L102.69285714285712,6.836432179024202L102.69285714285712,8.163567820975796L102.44928210669008,8.407142857142858L96.83643217902419,8.407142857142858L96.40786075045276,7.978571428571428L95.12214646473846,7.978571428571428L94.90786075045276,7.764285714285714L94.69357503616705,7.764285714285714L94.47928932188132,7.55L93.83643217902419,7.55L93.40786075045276,7.121428571428571L90.6635678209758,7.121428571428571L90.44928210669008,7.335714285714285L90.23499639240437,7.335714285714285L90.03535533905931,7.535355339059327L89.96464466094066,7.464644660940673L90.19357503616705,7.235714285714286L90.40786075045276,7.235714285714286L90.62214646473848,7.021428571428571L93.44928210669008,7.021428571428571L93.87785353526151,7.45L94.52071067811865,7.45L94.73499639240437,7.664285714285715L94.94928210669008,7.664285714285715L95.16356782097579,7.878571428571428L96.44928210669008,7.878571428571428L96.87785353526151,8.307142857142857L102.40786075045276,8.307142857142857L102.59285714285713,8.122146464738488L102.59285714285713,6.8778535352615116L102.19357503616705,6.478571428571428L101.5507178933099,6.478571428571428L101.33643217902419,6.264285714285714L101.12214646473846,6.264285714285714L98.76500360759562,3.907142857142857L98.5507178933099,3.907142857142857L98.33643217902419,3.6928571428571426L95.97928932188132,3.6928571428571426L95.5507178933099,3.2642857142857142L94.90786075045276,3.2642857142857142L94.47928932188132,2.8357142857142854L94.26500360759562,2.8357142857142854L94.0507178933099,2.6214285714285714L92.59213924954722,2.6214285714285714L92.37785353526151,2.8357142857142854L91.94928210669008,2.8357142857142854L91.73499639240437,3.05z" stroke="none"/><path d="M64.49999999999999,11.95L64.49999999999999,12.05L62.16356782097579,12.05L61.94928210669008,12.264285714285716L59.37785353526151,12.264285714285716L59.16356782097579,12.478571428571428L58.050717893309915,12.478571428571428L54.378571428571426,8.806424963832939L54.378571428571426,8.592139249547223L54.16428571428572,8.377853535261512L54.16428571428572,7.949282106690083L53.95,7.734996392404369L53.95,7.5L54.05,7.5L54.05,7.69357503616706L54.26428571428571,7.907860750452773L54.26428571428571,8.336432179024204L54.47857142857142,8.550717893309915L54.47857142857142,8.76500360759563L58.09213924954722,12.378571428571426L59.122146464738485,12.378571428571426L59.3364321790242,12.164285714285715L61.90786075045277,12.164285714285715L62.122146464738485,11.95z" stroke="none"/><path d="M4.464644660940673,7.535355339059327L4.535355339059327,7.464644660940673L4.978571428571429,7.907860750452773L4.978571428571429,8.550717893309915L5.407142857142857,8.979289321881346L5.407142857142857,9.193575036167061L5.592139249547226,9.378571428571426L15.193575036167061,9.378571428571426L16.050717893309915,8.521428571428569L18.663567820975796,8.521428571428569L18.87785353526151,8.735714285714284L19.30642496383294,8.735714285714284L19.53535533905933,8.964644660940673L19.46464466094067,9.035355339059327L19.26500360759563,8.835714285714285L18.836432179024204,8.835714285714285L18.62214646473849,8.62142857142857L16.092139249547223,8.62142857142857L15.23499639240437,9.478571428571428L5.550717893309916,9.478571428571428L5.307142857142857,9.23499639240437L5.307142857142857,9.020710678118654L4.878571428571429,8.592139249547223L4.878571428571429,7.949282106690083z" stroke="none"/><path d="M92.99999999999999,7.55L92.99999999999999,7.45L93.23499639240437,7.45L93.44928210669008,7.664285714285715L94.30642496383294,7.664285714285715L94.52071067811865,7.878571428571428L94.73499639240437,7.878571428571428L94.94928210669008,8.092857142857142L96.23499639240437,8.092857142857142L96.66356782097579,8.521428571428569L98.80642496383294,8.521428571428569L99.02071067811865,8.735714285714284L99.23499639240437,8.735714285714284L99.66356782097579,9.164285714285715L99.87785353526151,9.164285714285715L100.52071067811865,9.807142857142857L100.73499639240437,9.807142857142857L101.37785353526151,10.45L101.59213924954722,10.45L102.02071067811865,10.878571428571426L102.23499639240437,10.878571428571426L102.90714285714284,11.550717893309915L102.90714285714284,12.449282106690081L102.66356782097579,12.692857142857143L93.83643217902419,12.692857142857143L93.40786075045276,12.264285714285716L93.19357503616705,12.264285714285716L92.97928932188132,12.05L92.76500360759562,12.05L92.33643217902419,11.62142857142857L91.69357503616705,11.62142857142857L91.47928932188132,11.407142857142858L91.0507178933099,11.407142857142858L90.83643217902419,11.192857142857143L90.40786075045276,11.192857142857143L90.19357503616705,10.978571428571428L89.33643217902419,10.978571428571428L89.12214646473848,10.764285714285716L82.47928932188132,10.764285714285716L82.0507178933099,10.335714285714285L81.83643217902419,10.335714285714285L81.62214646473848,10.12142857142857L80.76500360759562,10.12142857142857L80.30714285714285,9.663567820975796L80.30714285714285,8.336432179024204L80.5507178933099,8.092857142857142L80.97928932188132,8.092857142857142L81.19357503616705,7.878571428571428L81.40786075045276,7.878571428571428L81.59285714285714,7.69357503616706L81.59285714285714,7.30642496383294L81.40786075045276,7.121428571428571L78.02071067811865,7.121428571428571L77.80642496383294,7.335714285714285L76.73499639240437,7.335714285714285L76.53535533905931,7.535355339059327L76.46464466094066,7.464644660940673L76.69357503616705,7.235714285714286L77.76500360759562,7.235714285714286L77.97928932188132,7.021428571428571L81.44928210669008,7.021428571428571L81.69285714285714,7.265003607595631L81.69285714285714,7.734996392404369L81.44928210669008,7.978571428571428L81.23499639240437,7.978571428571428L81.02071067811865,8.192857142857143L80.59213924954722,8.192857142857143L80.40714285714284,8.377853535261512L80.40714285714284,9.622146464738488L80.80642496383294,10.021428571428569L81.6635678209758,10.021428571428569L81.87785353526151,10.235714285714284L82.09213924954722,10.235714285714284L82.52071067811865,10.664285714285715L89.1635678209758,10.664285714285715L89.37785353526151,10.878571428571426L90.23499639240437,10.878571428571426L90.44928210669008,11.092857142857142L90.87785353526151,11.092857142857142L91.09213924954722,11.307142857142857L91.52071067811865,11.307142857142857L91.73499639240437,11.521428571428569L92.37785353526151,11.521428571428569L92.80642496383294,11.95L93.02071067811865,11.95L93.23499639240437,12.164285714285715L93.44928210669008,12.164285714285715L93.87785353526151,12.592857142857142L102.62214646473846,12.592857142857142L102.80714285714285,12.407860750452773L102.80714285714285,11.592139249547223L102.19357503616705,10.978571428571428L101.97928932188132,10.978571428571428L101.5507178933099,10.55L101.33643217902419,10.55L100.69357503616705,9.907142857142858L100.47928932188132,9.907142857142858L99.83643217902419,9.264285714285716L99.62214646473846,9.264285714285716L99.19357503616705,8.835714285714285L98.97928932188132,8.835714285714285L98.76500360759562,8.62142857142857L96.62214646473846,8.62142857142857L96.19357503616705,8.192857142857143L94.90786075045276,8.192857142857143L94.69357503616705,7.978571428571428L94.47928932188132,7.978571428571428L94.26500360759562,7.764285714285714L93.40786075045276,7.764285714285714L93.19357503616705,7.55z" stroke="none"/><path d="M4.5,3.05L4.5,2.95L9.449282106690081,2.95L9.663567820975796,3.1642857142857146L9.877853535261512,3.1642857142857146L10.092139249547223,3.3785714285714286L13.693575036167061,3.3785714285714286L14.550717893309915,2.521428571428572L21.87785353526151,2.521428571428572L22.092139249547227,2.7357142857142858L22.30642496383294,2.7357142857142858L22.53535533905933,2.9646446609406727L22.46464466094067,3.0353553390593273L22.26500360759563,2.8357142857142854L22.05071789330992,2.8357142857142854L21.836432179024204,2.6214285714285714L14.592139249547223,2.6214285714285714L13.73499639240437,3.478571428571428L10.050717893309915,3.478571428571428L9.836432179024204,3.2642857142857142L9.622146464738488,3.2642857142857142L9.407860750452773,3.05z" stroke="none"/><path d="M63,8.95L63,9.05L62.3364321790242,9.05L61.90786075045277,8.62142857142857L56.550717893309915,8.62142857142857L56.3364321790242,8.407142857142858L56.122146464738485,8.407142857142858L55.26500360759563,7.55L55.050717893309915,7.55L54.8364321790242,7.335714285714285L54.622146464738485,7.335714285714285L54.40786075045277,7.121428571428571L50.550717893309915,7.121428571428571L50.3364321790242,6.907142857142857L46.479289321881346,6.907142857142857L45.8364321790242,6.264285714285714L45.40786075045278,6.264285714285714L45.19357503616706,6.05L45,6.05L45,5.95L45.23499639240437,5.95L45.449282106690085,6.164285714285715L45.87785353526151,6.164285714285715L46.520710678118654,6.807142857142857L50.37785353526151,6.807142857142857L50.59213924954722,7.021428571428571L54.44928210669008,7.021428571428571L54.66356782097579,7.235714285714286L54.87785353526151,7.235714285714286L55.09213924954722,7.45L55.30642496383294,7.45L56.16356782097579,8.307142857142857L56.37785353526151,8.307142857142857L56.59213924954722,8.521428571428569L61.94928210669008,8.521428571428569L62.37785353526151,8.95z" stroke="none"/><path d="M3,3.05L3,2.95L3.234996392404369,2.95L3.449282106690083,3.1642857142857146L3.877853535261512,3.1642857142857146L4.092139249547226,3.3785714285714286L9.663567820975796,3.3785714285714286L10.092139249547223,3.8071428571428574L10.73499639240437,3.8071428571428574L11.377853535261512,4.45L12.020710678118654,4.45L12.449282106690081,4.878571428571429L12.663567820975796,4.878571428571429L12.877853535261512,5.0928571428571425L14.163567820975796,5.0928571428571425L14.592139249547223,5.521428571428571L14.806424963832939,5.521428571428571L15.020710678118654,5.735714285714286L15.23499639240437,5.735714285714286L15.449282106690081,5.95L15.663567820975796,5.95L15.877853535261512,6.164285714285715L16.30642496383294,6.164285714285715L16.520710678118654,6.378571428571428L19.26500360759563,6.378571428571428L19.479289321881346,6.164285714285715L20.55071789330992,6.164285714285715L20.76500360759563,5.95L21,5.95L21,6.05L20.80642496383294,6.05L20.592139249547227,6.264285714285714L19.520710678118654,6.264285714285714L19.30642496383294,6.478571428571428L16.479289321881346,6.478571428571428L16.26500360759563,6.264285714285714L15.836432179024204,6.264285714285714L15.622146464738488,6.05L15.407860750452773,6.05L15.193575036167061,5.835714285714285L14.979289321881346,5.835714285714285L14.76500360759563,5.621428571428571L14.550717893309915,5.621428571428571L14.122146464738488,5.192857142857142L12.836432179024204,5.192857142857142L12.622146464738488,4.978571428571429L12.407860750452773,4.978571428571429L11.979289321881346,4.55L11.336432179024204,4.55L10.693575036167061,3.907142857142857L10.050717893309915,3.907142857142857L9.622146464738488,3.478571428571428L4.050717893309916,3.478571428571428L3.8364321790242024,3.2642857142857142L3.4078607504527736,3.2642857142857142L3.1935750361670596,3.05z" stroke="none"/><path d="M80.99999999999999,10.45L80.99999999999999,10.55L71.97928932188132,10.55L71.76500360759562,10.335714285714285L71.5507178933099,10.335714285714285L71.12214646473848,9.907142857142858L69.62214646473848,9.907142857142858L69.40786075045276,9.692857142857143L69.19357503616705,9.692857142857143L68.5507178933099,9.05L68.33643217902419,9.05L67.90786075045276,8.62142857142857L66.6635678209758,8.62142857142857L66.44928210669008,8.835714285714285L66.23499639240437,8.835714285714285L65.37785353526151,9.692857142857143L61.73499639240437,9.692857142857143L60.66356782097579,10.764285714285716L60.44928210669008,10.764285714285716L60.23499639240437,10.978571428571428L58.050717893309915,10.978571428571428L57.80714285714286,10.73499639240437L57.80714285714286,10.26500360759563L59.122146464738485,8.95L61.5,8.95L61.5,9.05L59.16356782097579,9.05L57.90714285714285,10.306424963832939L57.90714285714285,10.693575036167061L58.09213924954722,10.878571428571426L60.19357503616706,10.878571428571426L60.40786075045277,10.664285714285715L60.622146464738485,10.664285714285715L61.69357503616706,9.592857142857142L65.33643217902419,9.592857142857142L66.19357503616705,8.735714285714284L66.40786075045276,8.735714285714284L66.62214646473848,8.521428571428569L67.94928210669008,8.521428571428569L68.37785353526151,8.95L68.59213924954722,8.95L69.23499639240437,9.592857142857142L69.44928210669008,9.592857142857142L69.6635678209758,9.807142857142857L71.1635678209758,9.807142857142857L71.59213924954722,10.235714285714284L71.80642496383294,10.235714285714284L72.02071067811865,10.45z" stroke="none"/><path d="M25.5,11.95L25.5,12.05L16.092139249547223,12.05L15.877853535261512,12.264285714285716L15.663567820975796,12.264285714285716L15.449282106690081,12.478571428571428L14.122146464738488,12.478571428571428L13.907860750452773,12.264285714285716L11.76500360759563,12.264285714285716L11.336432179024204,11.835714285714285L7.050717893309916,11.835714285714285L6.836432179024202,11.62142857142857L5.3778535352615116,11.62142857142857L5.163567820975797,11.835714285714285L4.734996392404369,11.835714285714285L4.535355339059327,12.035355339059327L4.464644660940673,11.964644660940673L4.69357503616706,11.735714285714284L5.122146464738488,11.735714285714284L5.336432179024202,11.521428571428569L6.8778535352615116,11.521428571428569L7.092139249547226,11.735714285714284L11.377853535261512,11.735714285714284L11.806424963832939,12.164285714285715L13.949282106690081,12.164285714285715L14.163567820975796,12.378571428571426L15.407860750452773,12.378571428571426L15.622146464738488,12.164285714285715L15.836432179024204,12.164285714285715L16.050717893309915,11.95z" stroke="none"/><path d="M49.46464466094067,9.035355339059327L49.53535533905933,8.964644660940673L49.94928210669008,9.378571428571426L50.16356782097579,9.378571428571426L50.59213924954722,9.807142857142857L51.020710678118654,9.807142857142857L51.23499639240437,10.021428571428569L51.66356782097579,10.021428571428569L51.87785353526151,10.235714285714284L52.09213924954722,10.235714285714284L52.520710678118654,10.664285714285715L54.020710678118654,10.664285714285715L54.23499639240437,10.878571428571426L55.09213924954722,10.878571428571426L55.30642496383294,11.092857142857142L55.520710678118654,11.092857142857142L56.59213924954722,12.164285714285715L57.23499639240437,12.164285714285715L57.44928210669008,12.378571428571426L57.66356782097579,12.378571428571426L57.87785353526151,12.592857142857142L70.90786075045276,12.592857142857142L71.33643217902419,12.164285714285715L71.76500360759562,12.164285714285715L71.96464466094066,11.964644660940673L72.03535533905931,12.035355339059327L71.80642496383294,12.264285714285716L71.37785353526151,12.264285714285716L70.94928210669008,12.692857142857143L57.8364321790242,12.692857142857143L57.622146464738485,12.478571428571428L57.40786075045277,12.478571428571428L57.19357503616706,12.264285714285716L56.550717893309915,12.264285714285716L55.479289321881346,11.192857142857143L55.26500360759563,11.192857142857143L55.050717893309915,10.978571428571428L54.19357503616706,10.978571428571428L53.979289321881346,10.764285714285716L52.479289321881346,10.764285714285716L52.050717893309915,10.335714285714285L51.8364321790242,10.335714285714285L51.622146464738485,10.12142857142857L51.19357503616706,10.12142857142857L50.979289321881346,9.907142857142858L50.550717893309915,9.907142857142858L50.122146464738485,9.478571428571428L49.90786075045277,9.478571428571428z" stroke="none"/><path d="M34.5,10.55L34.5,10.45L41.122146464738485,10.45L41.550717893309915,10.021428571428569L48.19357503616706,10.021428571428569L48.59285714285714,9.622146464738488L48.59285714285714,8.377853535261512L47.76500360759563,7.55L47.550717893309915,7.55L47.3364321790242,7.335714285714285L47.122146464738485,7.335714285714285L46.90786075045277,7.121428571428571L46.050717893309915,7.121428571428571L45.8364321790242,6.907142857142857L45.622146464738485,6.907142857142857L45.40786075045278,6.692857142857142L44.76500360759563,6.692857142857142L44.52142857142857,6.449282106690083L44.52142857142857,5.550717893309916L44.76500360759563,5.307142857142857L47.16356782097579,5.307142857142857L47.37785353526151,5.521428571428571L48.66356782097579,5.521428571428571L48.87785353526151,5.735714285714286L49.09213924954722,5.735714285714286L49.30642496383294,5.95L49.520710678118654,5.95L49.94928210669008,6.378571428571428L52.09213924954722,6.378571428571428L52.30642496383294,6.5928571428571425L58.520710678118654,6.5928571428571425L58.94928210669008,7.021428571428571L59.16356782097579,7.021428571428571L59.37785353526151,7.235714285714286L59.80642496383294,7.235714285714286L60.03535533905933,7.464644660940673L59.96464466094067,7.535355339059327L59.76500360759563,7.335714285714285L59.3364321790242,7.335714285714285L59.122146464738485,7.121428571428571L58.90786075045277,7.121428571428571L58.479289321881346,6.692857142857142L52.26500360759563,6.692857142857142L52.050717893309915,6.478571428571428L49.90786075045277,6.478571428571428L49.479289321881346,6.05L49.26500360759563,6.05L49.050717893309915,5.835714285714285L48.8364321790242,5.835714285714285L48.622146464738485,5.621428571428571L47.3364321790242,5.621428571428571L47.122146464738485,5.407142857142857L44.80642496383294,5.407142857142857L44.62142857142857,5.592139249547226L44.62142857142857,6.407860750452773L44.80642496383294,6.5928571428571425L45.449282106690085,6.5928571428571425L45.66356782097579,6.807142857142857L45.87785353526151,6.807142857142857L46.09213924954722,7.021428571428571L46.94928210669008,7.021428571428571L47.16356782097579,7.235714285714286L47.37785353526151,7.235714285714286L47.59213924954722,7.45L47.80642496383294,7.45L48.692857142857136,8.336432179024204L48.692857142857136,9.663567820975796L48.23499639240437,10.12142857142857L41.59213924954722,10.12142857142857L41.16356782097579,10.55z" stroke="none"/><path d="M16.46464466094067,8.964644660940673L16.53535533905933,9.035355339059327L15.23499639240437,10.335714285714285L15.020710678118654,10.335714285714285L14.592139249547223,10.764285714285716L14.377853535261512,10.764285714285716L14.163567820975796,10.978571428571428L10.306424963832939,10.978571428571428L10.092139249547223,11.192857142857143L4.520710678118655,11.192857142857143L4.121428571428571,11.592139249547223L4.121428571428571,12.407860750452773L4.30642496383294,12.592857142857142L11.377853535261512,12.592857142857142L11.592139249547223,12.807142857142857L37.90786075045278,12.807142857142857L38.3364321790242,12.378571428571426L38.979289321881346,12.378571428571426L39.19357503616706,12.164285714285715L41.3364321790242,12.164285714285715L41.550717893309915,11.95L42,11.95L42,12.05L41.59213924954722,12.05L41.37785353526151,12.264285714285716L39.23499639240437,12.264285714285716L39.020710678118654,12.478571428571428L38.37785353526151,12.478571428571428L37.949282106690085,12.907142857142858L11.550717893309915,12.907142857142858L11.336432179024204,12.692857142857143L4.265003607595631,12.692857142857143L4.021428571428571,12.449282106690081L4.021428571428571,11.550717893309915L4.479289321881345,11.092857142857142L10.050717893309915,11.092857142857142L10.26500360759563,10.878571428571426L14.122146464738488,10.878571428571426L14.336432179024204,10.664285714285715L14.550717893309915,10.664285714285715L14.979289321881346,10.235714285714284L15.193575036167061,10.235714285714284z" stroke="none"/><path d="M51,12.05L51,11.95L55.73499639240437,11.95L55.94928210669008,12.164285714285715L56.16356782097579,12.164285714285715L56.37785353526151,12.378571428571426L56.59213924954722,12.378571428571426L56.80642496383294,12.592857142857142L57.44928210669008,12.592857142857142L57.66356782097579,12.807142857142857L75.19357503616705,12.807142857142857L75.62214646473848,12.378571428571426L75.83643217902419,12.378571428571426L76.0507178933099,12.164285714285715L76.26500360759562,12.164285714285715L76.47928932188132,11.95L77.99999999999999,11.95L77.99999999999999,12.05L76.52071067811865,12.05L76.30642496383294,12.264285714285716L76.09213924954722,12.264285714285716L75.87785353526151,12.478571428571428L75.6635678209758,12.478571428571428L75.23499639240437,12.907142857142858L57.622146464738485,12.907142857142858L57.40786075045277,12.692857142857143L56.76500360759563,12.692857142857143L56.550717893309915,12.478571428571428L56.3364321790242,12.478571428571428L56.122146464738485,12.264285714285716L55.90786075045277,12.264285714285716L55.69357503616706,12.05z" stroke="none"/><path d="M9,10.45L9,10.55L4.092139249547226,10.55L3.449282106690083,11.192857142857143L3.020710678118655,11.192857142857143L2.6214285714285714,11.592139249547223L2.6214285714285714,12.407860750452773L2.8064249638329404,12.592857142857142L3.877853535261512,12.592857142857142L4.092139249547226,12.807142857142857L11.163567820975796,12.807142857142857L11.377853535261512,13.021428571428569L41.122146464738485,13.021428571428569L41.3364321790242,12.807142857142857L41.979289321881346,12.807142857142857L42.37857142857143,12.407860750452773L42.37857142857143,11.592139249547223L42.19357503616706,11.407142857142858L36.87785353526151,11.407142857142858L36.23499639240437,12.05L36,12.05L36,11.95L36.19357503616706,11.95L36.8364321790242,11.307142857142857L42.23499639240437,11.307142857142857L42.47857142857143,11.550717893309915L42.47857142857143,12.449282106690081L42.020710678118654,12.907142857142858L41.37785353526151,12.907142857142858L41.16356782097579,13.12142857142857L11.336432179024204,13.12142857142857L11.122146464738488,12.907142857142858L4.050717893309916,12.907142857142858L3.8364321790242024,12.692857142857143L2.765003607595631,12.692857142857143L2.521428571428572,12.449282106690081L2.521428571428572,11.550717893309915L2.979289321881345,11.092857142857142L3.4078607504527736,11.092857142857142L4.050717893309916,10.45z" stroke="none"/><path d="M85.49999999999999,4.45L85.49999999999999,4.55L83.12214646473848,4.55L82.90786075045276,4.335714285714285L81.62214646473848,4.335714285714285L81.40786075045276,4.121428571428571L67.90786075045276,4.121428571428571L67.69357503616705,3.907142857142857L67.47928932188132,3.907142857142857L67.0507178933099,3.478571428571428L66.83643217902419,3.478571428571428L66.62214646473848,3.2642857142857142L66.19357503616705,3.2642857142857142L65.76500360759562,2.8357142857142854L65.12214646473848,2.8357142857142854L64.69357503616705,2.407142857142857L52.30642496383294,2.407142857142857L52.12142857142857,2.5921392495472264L52.12142857142857,3.4078607504527736L52.30642496383294,3.592857142857143L53.59213924954722,3.592857142857143L54.020710678118654,4.021428571428571L54.44928210669008,4.021428571428571L54.66356782097579,4.235714285714286L55.09213924954722,4.235714285714286L55.30642496383294,4.45L55.5,4.45L55.5,4.55L55.26500360759563,4.55L55.050717893309915,4.335714285714285L54.622146464738485,4.335714285714285L54.40786075045277,4.121428571428571L53.979289321881346,4.121428571428571L53.550717893309915,3.6928571428571426L52.26500360759563,3.6928571428571426L52.02142857142857,3.449282106690083L52.02142857142857,2.550717893309917L52.26500360759563,2.3071428571428574L64.73499639240437,2.3071428571428574L65.1635678209758,2.7357142857142858L65.80642496383294,2.7357142857142858L66.23499639240437,3.1642857142857146L66.6635678209758,3.1642857142857146L66.87785353526151,3.3785714285714286L67.09213924954722,3.3785714285714286L67.52071067811865,3.8071428571428574L67.73499639240437,3.8071428571428574L67.94928210669008,4.021428571428571L81.44928210669008,4.021428571428571L81.6635678209758,4.235714285714286L82.94928210669008,4.235714285714286L83.1635678209758,4.45z" stroke="none"/><path d="M6,4.55L6,4.45L9.23499639240437,4.45L9.449282106690081,4.664285714285715L9.877853535261512,4.664285714285715L10.092139249547223,4.878571428571429L10.949282106690081,4.878571428571429L11.163567820975796,5.0928571428571425L11.377853535261512,5.0928571428571425L11.592139249547223,5.307142857142857L13.949282106690081,5.307142857142857L14.592139249547223,5.95L15.020710678118654,5.95L15.23499639240437,6.164285714285715L15.449282106690081,6.164285714285715L15.663567820975796,6.378571428571428L16.092139249547223,6.378571428571428L16.30642496383294,6.5928571428571425L21.62214646473849,6.5928571428571425L22.479289321881346,5.735714285714286L23.336432179024204,5.735714285714286L23.550717893309915,5.521428571428571L29.76500360759563,5.521428571428571L29.979289321881346,5.307142857142857L30.19357503616706,5.307142857142857L30.62214646473849,4.878571428571429L30.836432179024204,4.878571428571429L31.050717893309915,4.664285714285715L31.26500360759563,4.664285714285715L31.479289321881346,4.45L36,4.45L36,4.55L31.520710678118654,4.55L31.30642496383294,4.764285714285714L31.092139249547223,4.764285714285714L30.87785353526151,4.978571428571429L30.663567820975796,4.978571428571429L30.23499639240437,5.407142857142857L30.020710678118654,5.407142857142857L29.80642496383294,5.621428571428571L23.592139249547223,5.621428571428571L23.37785353526151,5.835714285714285L22.520710678118654,5.835714285714285L21.663567820975796,6.692857142857142L16.26500360759563,6.692857142857142L16.050717893309915,6.478571428571428L15.622146464738488,6.478571428571428L15.407860750452773,6.264285714285714L15.193575036167061,6.264285714285714L14.979289321881346,6.05L14.550717893309915,6.05L13.907860750452773,5.407142857142857L11.550717893309915,5.407142857142857L11.336432179024204,5.192857142857142L11.122146464738488,5.192857142857142L10.907860750452773,4.978571428571429L10.050717893309915,4.978571428571429L9.836432179024204,4.764285714285714L9.407860750452773,4.764285714285714L9.193575036167061,4.55z" stroke="none"/><path d="M10.5,4.45L10.5,4.55L9.622146464738488,4.55L9.407860750452773,4.335714285714285L6.622146464738488,4.335714285714285L6.407860750452773,4.121428571428571L3.622146464738488,4.121428571428571L3.1935750361670596,3.6928571428571426L2.765003607595631,3.6928571428571426L2.521428571428572,3.449282106690083L2.521428571428572,2.550717893309917L2.765003607595631,2.3071428571428574L11.550717893309915,2.3071428571428574L11.979289321881346,1.8785714285714286L12.836432179024204,1.8785714285714286L13.050717893309915,1.6642857142857144L13.26500360759563,1.6642857142857144L13.479289321881346,1.45L14.122146464738488,1.45L14.550717893309915,1.0214285714285716L39.23499639240437,1.0214285714285716L39.66356782097579,1.45L39.87785353526151,1.45L40.09213924954722,1.6642857142857144L40.73499639240437,1.6642857142857144L41.16356782097579,2.092857142857143L42.020710678118654,2.092857142857143L42.66356782097579,2.7357142857142858L43.30642496383294,2.7357142857142858L43.53535533905933,2.9646446609406727L43.46464466094067,3.0353553390593273L43.26500360759563,2.8357142857142854L42.622146464738485,2.8357142857142854L41.979289321881346,2.1928571428571426L41.122146464738485,2.1928571428571426L40.69357503616706,1.7642857142857145L40.050717893309915,1.7642857142857145L39.8364321790242,1.55L39.622146464738485,1.55L39.19357503616706,1.1214285714285717L14.592139249547223,1.1214285714285717L14.163567820975796,1.55L13.520710678118654,1.55L13.306424963832939,1.7642857142857145L13.092139249547223,1.7642857142857145L12.877853535261512,1.9785714285714286L12.020710678118654,1.9785714285714286L11.592139249547223,2.407142857142857L2.8064249638329404,2.407142857142857L2.6214285714285714,2.5921392495472264L2.6214285714285714,3.4078607504527736L2.8064249638329404,3.592857142857143L3.234996392404369,3.592857142857143L3.6635678209757976,4.021428571428571L6.449282106690083,4.021428571428571L6.663567820975797,4.235714285714286L9.449282106690081,4.235714285714286L9.663567820975796,4.45z" stroke="none"/><path d="M48,3.05L48,2.95L51.19357503616706,2.95L52.050717893309915,2.092857142857143L67.94928210669008,2.092857142857143L68.80642496383294,2.95L69.6635678209758,2.95L69.87785353526151,3.1642857142857146L70.30642496383294,3.1642857142857146L70.52071067811865,3.3785714285714286L71.37785353526151,3.3785714285714286L71.59213924954722,3.592857142857143L79.09213924954722,3.592857142857143L79.30642496383294,3.8071428571428574L85.52071067811865,3.8071428571428574L85.73499639240437,4.021428571428571L85.94928210669008,4.021428571428571L86.19285714285714,4.265003607595631L86.19285714285714,4.734996392404369L85.94928210669008,4.978571428571429L82.0507178933099,4.978571428571429L81.83643217902419,4.764285714285714L81.19357503616705,4.764285714285714L80.96464466094066,4.535355339059327L81.03535533905931,4.464644660940673L81.23499639240437,4.664285714285715L81.87785353526151,4.664285714285715L82.09213924954722,4.878571428571429L85.90786075045276,4.878571428571429L86.09285714285714,4.69357503616706L86.09285714285714,4.30642496383294L85.90786075045276,4.121428571428571L85.69357503616705,4.121428571428571L85.47928932188132,3.907142857142857L79.26500360759562,3.907142857142857L79.0507178933099,3.6928571428571426L71.5507178933099,3.6928571428571426L71.33643217902419,3.478571428571428L70.47928932188132,3.478571428571428L70.26500360759562,3.2642857142857142L69.83643217902419,3.2642857142857142L69.62214646473848,3.05L68.76500360759562,3.05L67.90786075045276,2.1928571428571426L52.09213924954722,2.1928571428571426L51.23499639240437,3.05z" stroke="none"/><path d="M43.53535533905933,6.035355339059327L43.46464466094067,5.964644660940673L43.90786075045278,5.521428571428571L44.122146464738485,5.521428571428571L44.550717893309915,5.0928571428571425L61.94928210669008,5.0928571428571425L62.16356782097579,5.307142857142857L62.59213924954722,5.307142857142857L63.23499639240437,5.95L63.44928210669008,5.95L64.30642496383294,6.807142857142857L65.59213924954722,6.807142857142857L65.80642496383294,7.021428571428571L66.44928210669008,7.021428571428571L66.87785353526151,7.45L67.09213924954722,7.45L67.30642496383294,7.664285714285715L67.52071067811865,7.664285714285715L68.37785353526151,8.521428571428569L68.59213924954722,8.521428571428569L69.02071067811865,8.95L69.23499639240437,8.95L69.44928210669008,9.164285714285715L72.44928210669008,9.164285714285715L72.87785353526151,9.592857142857142L76.69357503616705,9.592857142857142L77.12214646473848,9.164285714285715L77.76500360759562,9.164285714285715L77.96464466094066,8.964644660940673L78.03535533905931,9.035355339059327L77.80642496383294,9.264285714285716L77.1635678209758,9.264285714285716L76.73499639240437,9.692857142857143L72.83643217902419,9.692857142857143L72.40786075045276,9.264285714285716L69.40786075045276,9.264285714285716L69.19357503616705,9.05L68.97928932188132,9.05L68.5507178933099,8.62142857142857L68.33643217902419,8.62142857142857L67.47928932188132,7.764285714285714L67.26500360759562,7.764285714285714L67.0507178933099,7.55L66.83643217902419,7.55L66.40786075045276,7.121428571428571L65.76500360759562,7.121428571428571L65.5507178933099,6.907142857142857L64.26500360759562,6.907142857142857L63.40786075045277,6.05L63.19357503616706,6.05L62.550717893309915,5.407142857142857L62.122146464738485,5.407142857142857L61.90786075045277,5.192857142857142L44.59213924954722,5.192857142857142L44.16356782097579,5.621428571428571L43.949282106690085,5.621428571428571z" stroke="none"/><path d="M10.5,5.95L10.5,6.05L9.836432179024204,6.05L9.407860750452773,5.621428571428571L6.407860750452773,5.621428571428571L5.979289321881345,5.192857142857142L5.765003607595631,5.192857142857142L5.336432179024202,4.764285714285714L5.122146464738488,4.764285714285714L4.907860750452774,4.55L4.050717893309916,4.55L3.8364321790242024,4.335714285714285L3.4078607504527736,4.335714285714285L2.979289321881345,3.907142857142857L2.550717893309917,3.907142857142857L2.3071428571428574,3.6635678209757976L2.3071428571428574,2.3364321790242024L2.550717893309917,2.092857142857143L11.122146464738488,2.092857142857143L11.550717893309915,1.6642857142857144L12.622146464738488,1.6642857142857144L12.836432179024204,1.45L13.050717893309915,1.45L13.26500360759563,1.2357142857142858L13.479289321881346,1.2357142857142858L13.693575036167061,1.0214285714285716L13.907860750452773,1.0214285714285716L14.122146464738488,0.8071428571428572L40.73499639240437,0.8071428571428572L40.949282106690085,1.0214285714285716L41.37785353526151,1.0214285714285716L42.23499639240437,1.8785714285714286L43.30642496383294,1.8785714285714286L43.520710678118654,2.092857142857143L43.949282106690085,2.092857142857143L44.16356782097579,2.3071428571428574L44.37785353526151,2.3071428571428574L44.59213924954722,2.521428571428572L44.80642496383294,2.521428571428572L45.23499639240437,2.95L45.87785353526151,2.95L46.520710678118654,3.592857142857143L48.020710678118654,3.592857142857143L48.44928210669008,4.021428571428571L48.66356782097579,4.021428571428571L48.87785353526151,4.235714285714286L49.30642496383294,4.235714285714286L49.53535533905933,4.464644660940673L49.46464466094067,4.535355339059327L49.26500360759563,4.335714285714285L48.8364321790242,4.335714285714285L48.622146464738485,4.121428571428571L48.40786075045277,4.121428571428571L47.979289321881346,3.6928571428571426L46.479289321881346,3.6928571428571426L45.8364321790242,3.05L45.19357503616706,3.05L44.76500360759563,2.6214285714285714L44.550717893309915,2.6214285714285714L44.3364321790242,2.407142857142857L44.122146464738485,2.407142857142857L43.90786075045278,2.1928571428571426L43.479289321881346,2.1928571428571426L43.26500360759563,1.9785714285714286L42.19357503616706,1.9785714285714286L41.3364321790242,1.1214285714285717L40.90786075045278,1.1214285714285717L40.69357503616706,0.9071428571428573L14.163567820975796,0.9071428571428573L13.949282106690081,1.1214285714285717L13.73499639240437,1.1214285714285717L13.520710678118654,1.3357142857142859L13.306424963832939,1.3357142857142859L13.092139249547223,1.55L12.877853535261512,1.55L12.663567820975796,1.7642857142857145L11.592139249547223,1.7642857142857145L11.163567820975796,2.1928571428571426L2.5921392495472264,2.1928571428571426L2.407142857142857,2.377853535261512L2.407142857142857,3.622146464738488L2.5921392495472264,3.8071428571428574L3.020710678118655,3.8071428571428574L3.449282106690083,4.235714285714286L3.877853535261512,4.235714285714286L4.092139249547226,4.45L4.949282106690084,4.45L5.163567820975797,4.664285714285715L5.3778535352615116,4.664285714285715L5.80642496383294,5.0928571428571425L6.020710678118655,5.0928571428571425L6.449282106690083,5.521428571428571L9.449282106690081,5.521428571428571L9.877853535261512,5.95z" stroke="none"/><path d="M42,10.55L42,10.45L47.80642496383294,10.45L48.020710678118654,10.664285714285715L48.23499639240437,10.664285714285715L49.30642496383294,11.735714285714284L49.520710678118654,11.735714285714284L49.94928210669008,12.164285714285715L50.16356782097579,12.164285714285715L51.020710678118654,13.021428571428569L89.97928932188132,13.021428571428569L90.19357503616705,12.807142857142857L90.40786075045276,12.807142857142857L90.83643217902419,12.378571428571426L91.0507178933099,12.378571428571426L91.46464466094066,11.964644660940673L91.53535533905931,12.035355339059327L91.09213924954722,12.478571428571428L90.87785353526151,12.478571428571428L90.44928210669008,12.907142857142858L90.23499639240437,12.907142857142858L90.02071067811865,13.12142857142857L50.979289321881346,13.12142857142857L50.122146464738485,12.264285714285716L49.90786075045277,12.264285714285716L49.479289321881346,11.835714285714285L49.26500360759563,11.835714285714285L48.19357503616706,10.764285714285716L47.979289321881346,10.764285714285716L47.76500360759563,10.55z" stroke="none"/></svg>