<svg version="1.1" width="105" height="15" xmlns="http://www.w3.org/2000/svg"><path d="M21.663567820975796,6.807142857142857L21.87785353526151,7.021428571428571L22.30642496383294,7.021428571428571L22.73499639240437,7.45L24,7.45L24,7.55L22.69357503616706,7.55L22.26500360759563,7.121428571428571L21.836432179024204,7.121428571428571L21.62214646473849,6.907142857142857L21.478571428571428,6.907142857142857L21.478571428571428,7.050717893309916L21.663567820975796,7.235714285714286L21.87785353526151,7.235714285714286L22.092139249547227,7.45L22.30642496383294,7.45L22.520710678118654,7.664285714285715L28.94928210669008,7.664285714285715L29.163567820975796,7.878571428571428L34.949282106690085,7.878571428571428L35.37785353526151,8.307142857142857L36.23499639240437,8.307142857142857L36.66356782097579,8.735714285714284L37.30642496383294,8.735714285714284L37.53535533905933,8.964644660940673L37.46464466094067,9.035355339059327L37.26500360759563,8.835714285714285L36.622146464738485,8.835714285714285L36.19357503616706,8.407142857142858L35.3364321790242,8.407142857142858L34.90786075045278,7.978571428571428L29.12214646473849,7.978571428571428L28.907860750452773,7.764285714285714L22.479289321881346,7.764285714285714L22.26500360759563,7.55L22.05071789330992,7.55L21.836432179024204,7.335714285714285L21.62214646473849,7.335714285714285L21.378571428571426,7.092139249547226L21.378571428571426,6.907142857142857L5.979289321881345,6.907142857142857L4.69357503616706,5.621428571428571L4.479289321881345,5.621428571428571L3.8364321790242024,4.978571428571429L3.622146464738488,4.978571428571429L3.4078607504527736,4.764285714285714L3.1935750361670596,4.764285714285714L2.9646446609406727,4.535355339059327L3.0353553390593273,4.464644660940673L3.234996392404369,4.664285714285715L3.449282106690083,4.664285714285715L3.6635678209757976,4.878571428571429L3.877853535261512,4.878571428571429L4.520710678118655,5.521428571428571L4.734996392404369,5.521428571428571L6.020710678118655,6.807142857142857z" stroke="none"/><path d="M83.12214646473848,9.807142857142857L83.76500360759562,9.164285714285715L84.40786075045276,9.164285714285715L85.0507178933099,8.521428571428569L86.5507178933099,8.521428571428569L86.97928932188132,8.092857142857142L87.19357503616705,8.092857142857142L87.83643217902419,7.45L88.49999999999999,7.45L88.49999999999999,7.55L87.87785353526151,7.55L87.23499639240437,8.192857142857143L87.02071067811865,8.192857142857143L86.59213924954722,8.62142857142857L85.09213924954722,8.62142857142857L84.44928210669008,9.264285714285716L83.80642496383294,9.264285714285716L83.1635678209758,9.907142857142858L69.44928210669008,9.907142857142858L67.94928210669008,11.407142857142858L67.09213924954722,11.407142857142858L66.6635678209758,11.835714285714285L66.44928210669008,11.835714285714285L66.23499639240437,12.05L65.99999999999999,12.05L65.99999999999999,11.95L66.19357503616705,11.95L66.40786075045276,11.735714285714284L66.62214646473848,11.735714285714284L67.0507178933099,11.307142857142857L67.90786075045276,11.307142857142857L69.30786075045276,9.907142857142858L56.37785353526151,9.907142857142858L56.16356782097579,10.12142857142857L55.30642496383294,10.12142857142857L55.09213924954722,10.335714285714285L54.87785353526151,10.335714285714285L54.66356782097579,10.55L54,10.55L54,10.45L54.622146464738485,10.45L54.8364321790242,10.235714285714284L55.050717893309915,10.235714285714284L55.26500360759563,10.021428571428569L56.122146464738485,10.021428571428569L56.3364321790242,9.807142857142857z" stroke="none"/><path d="M66.87785353526151,8.95L83.5507178933099,8.95L85.26500360759562,7.235714285714286L87.83643217902419,7.235714285714286L88.0507178933099,7.021428571428571L91.30642496383294,7.021428571428571L91.52071067811865,7.235714285714286L93.02071067811865,7.235714285714286L93.23499639240437,7.45L94.49999999999999,7.45L94.49999999999999,7.55L93.19357503616705,7.55L92.97928932188132,7.335714285714285L91.47928932188132,7.335714285714285L91.26500360759562,7.121428571428571L88.09213924954722,7.121428571428571L87.87785353526151,7.335714285714285L85.30642496383294,7.335714285714285L83.59213924954722,9.05L66.87785353526151,9.05L66.44928210669008,9.478571428571428L52.520710678118654,9.478571428571428L52.30642496383294,9.692857142857143L52.09213924954722,9.692857142857143L51.66356782097579,10.12142857142857L51.44928210669008,10.12142857142857L51.23499639240437,10.335714285714285L51.020710678118654,10.335714285714285L49.94928210669008,11.407142857142858L49.73499639240437,11.407142857142858L49.30642496383294,11.835714285714285L48.87785353526151,11.835714285714285L48.66356782097579,12.05L48,12.05L48,11.95L48.622146464738485,11.95L48.8364321790242,11.735714285714284L49.26500360759563,11.735714285714284L49.69357503616706,11.307142857142857L49.90786075045277,11.307142857142857L50.979289321881346,10.235714285714284L51.19357503616706,10.235714285714284L51.40786075045277,10.021428571428569L51.622146464738485,10.021428571428569L52.050717893309915,9.592857142857142L52.26500360759563,9.592857142857142L52.479289321881346,9.378571428571426L66.40786075045276,9.378571428571426L66.78643217902419,9L66.40786075045276,8.62142857142857L60.40786075045277,8.62142857142857L59.76500360759563,7.978571428571428L59.122146464738485,7.978571428571428L58.90786075045277,7.764285714285714L58.69357503616706,7.764285714285714L58.46464466094067,7.535355339059327L58.53535533905933,7.464644660940673L58.73499639240437,7.664285714285715L58.94928210669008,7.664285714285715L59.16356782097579,7.878571428571428L59.80642496383294,7.878571428571428L60.44928210669008,8.521428571428569L66.44928210669008,8.521428571428569z" stroke="none"/><path d="M53.979289321881346,3.3785714285714286L54.19357503616706,3.1642857142857146L54.622146464738485,3.1642857142857146L54.8364321790242,2.95L55.5,2.95L55.5,3.05L54.87785353526151,3.05L54.66356782097579,3.2642857142857142L54.23499639240437,3.2642857142857142L54.020710678118654,3.478571428571428L27.90714285714286,3.478571428571428L27.90714285714286,3.6635678209757976L27.663567820975796,3.907142857142857L16.30642496383294,3.907142857142857L16.092139249547223,4.121428571428571L15.877853535261512,4.121428571428571L15.663567820975796,4.335714285714285L14.806424963832939,4.335714285714285L14.592139249547223,4.55L13.5,4.55L13.5,4.45L14.550717893309915,4.45L14.76500360759563,4.235714285714286L15.622146464738488,4.235714285714286L15.836432179024204,4.021428571428571L16.050717893309915,4.021428571428571L16.26500360759563,3.8071428571428574L27.62214646473849,3.8071428571428574L27.807142857142857,3.622146464738488L27.807142857142857,3.478571428571428L16.479289321881346,3.478571428571428L16.050717893309915,3.05L15,3.05L15,2.95L16.092139249547223,2.95L16.520710678118654,3.3785714285714286z" stroke="none"/><path d="M46.02142857142857,8.092857142857142L46.02142857142857,7.907860750452773L47.550717893309915,6.378571428571428L47.76500360759563,6.378571428571428L47.979289321881346,6.164285714285715L51.40786075045277,6.164285714285715L52.050717893309915,5.521428571428571L59.122146464738485,5.521428571428571L59.979289321881346,4.664285714285715L60.19357503616706,4.664285714285715L60.40786075045277,4.45L60.622146464738485,4.45L61.050717893309915,4.021428571428571L68.37785353526151,4.021428571428571L68.80642496383294,4.45L69.6635678209758,4.45L70.09213924954722,4.878571428571429L70.30642496383294,4.878571428571429L70.94928210669008,5.521428571428571L72.44928210669008,5.521428571428571L72.6635678209758,5.735714285714286L73.09213924954722,5.735714285714286L73.30642496383294,5.95L73.49999999999999,5.95L73.49999999999999,6.05L73.26500360759562,6.05L73.0507178933099,5.835714285714285L72.62214646473848,5.835714285714285L72.40786075045276,5.621428571428571L70.90786075045276,5.621428571428571L70.26500360759562,4.978571428571429L70.0507178933099,4.978571428571429L69.62214646473848,4.55L68.76500360759562,4.55L68.33643217902419,4.121428571428571L61.09213924954722,4.121428571428571L60.66356782097579,4.55L60.44928210669008,4.55L60.23499639240437,4.764285714285714L60.020710678118654,4.764285714285714L59.16356782097579,5.621428571428571L52.09213924954722,5.621428571428571L51.44928210669008,6.264285714285714L48.020710678118654,6.264285714285714L47.80642496383294,6.478571428571428L47.59213924954722,6.478571428571428L46.12142857142857,7.949282106690083L46.12142857142857,8.092857142857142L46.30642496383294,8.092857142857142L46.55,8.336432179024204L46.55,9.407860750452773L46.76428571428571,9.622146464738488L46.76428571428571,10.73499639240437L46.520710678118654,10.978571428571428L36.8364321790242,10.978571428571428L36.622146464738485,10.764285714285716L31.69357503616706,10.764285714285716L31.46464466094067,10.535355339059327L31.53535533905933,10.464644660940673L31.73499639240437,10.664285714285715L36.66356782097579,10.664285714285715L36.87785353526151,10.878571428571426L46.479289321881346,10.878571428571426L46.66428571428572,10.693575036167061L46.66428571428572,9.663567820975796L46.45,9.449282106690081L46.45,8.377853535261512L46.26500360759563,8.192857142857143L46.12142857142857,8.192857142857143L46.12142857142857,9.193575036167061L46.33571428571428,9.407860750452773L46.33571428571428,9.622146464738488L46.55,9.836432179024204L46.55,10.5L46.45,10.5L46.45,9.877853535261512L46.23571428571429,9.663567820975796L46.23571428571429,9.449282106690081L46.02142857142857,9.23499639240437L46.02142857142857,8.192857142857143L36.622146464738485,8.192857142857143L36.40786075045278,7.978571428571428L36.19357503616706,7.978571428571428L35.550717893309915,7.335714285714285L35.3364321790242,7.335714285714285L34.69357503616706,6.692857142857142L34.479289321881346,6.692857142857142L34.26500360759563,6.478571428571428L33.622146464738485,6.478571428571428L33.19357503616706,6.05L33,6.05L33,5.95L33.23499639240437,5.95L33.66356782097579,6.378571428571428L34.30642496383294,6.378571428571428L34.520710678118654,6.5928571428571425L34.73499639240437,6.5928571428571425L35.37785353526151,7.235714285714286L35.59213924954722,7.235714285714286L36.23499639240437,7.878571428571428L36.449282106690085,7.878571428571428L36.66356782097579,8.092857142857142z" stroke="none"/><path d="M18.59285714285714,5.95L18.59285714285714,5.80642496383294L18.407860750452773,5.621428571428571L9.836432179024204,5.621428571428571L9.622146464738488,5.407142857142857L8.336432179024204,5.407142857142857L7.265003607595631,4.335714285714285L7.050717893309916,4.335714285714285L6.622146464738488,3.907142857142857L6.407860750452773,3.907142857142857L5.979289321881345,3.478571428571428L4.907860750452774,3.478571428571428L4.464644660940673,3.0353553390593273L4.535355339059327,2.9646446609406727L4.949282106690084,3.3785714285714286L6.020710678118655,3.3785714285714286L6.449282106690083,3.8071428571428574L6.663567820975797,3.8071428571428574L7.092139249547226,4.235714285714286L7.30642496383294,4.235714285714286L8.377853535261512,5.307142857142857L9.663567820975796,5.307142857142857L9.877853535261512,5.521428571428571L18.44928210669008,5.521428571428571L18.692857142857143,5.765003607595631L18.692857142857143,5.879289321881346L19.05071789330992,5.521428571428571L30.87785353526151,5.521428571428571L31.30642496383294,5.95L31.5,5.95L31.5,6.05L31.26500360759563,6.05L30.836432179024204,5.621428571428571L19.092139249547227,5.621428571428571L18.713567820975797,6L19.092139249547227,6.378571428571428L28.73499639240437,6.378571428571428L29.80642496383294,7.45L30,7.45L30,7.55L29.76500360759563,7.55L28.69357503616706,6.478571428571428L19.05071789330992,6.478571428571428L18.62214646473849,6.05L7.479289321881345,6.05L7.050717893309916,5.621428571428571L6.836432179024202,5.621428571428571L6.622146464738488,5.407142857142857L6.19357503616706,5.407142857142857L5.765003607595631,4.978571428571429L5.550717893309916,4.978571428571429L4.907860750452774,4.335714285714285L3.8364321790242024,4.335714285714285L3.622146464738488,4.121428571428571L2.5921392495472264,4.121428571428571L2.407142857142857,4.30642496383294L2.407142857142857,4.69357503616706L4.520710678118655,6.807142857142857L5.3778535352615116,6.807142857142857L5.592139249547226,7.021428571428571L6.663567820975797,7.021428571428571L6.8778535352615116,7.235714285714286L8.592139249547223,7.235714285714286L8.806424963832939,7.45L9,7.45L9,7.55L8.76500360759563,7.55L8.550717893309915,7.335714285714285L6.836432179024202,7.335714285714285L6.622146464738488,7.121428571428571L5.550717893309916,7.121428571428571L5.336432179024202,6.907142857142857L4.479289321881345,6.907142857142857L2.3071428571428574,4.734996392404369L2.3071428571428574,4.265003607595631L2.550717893309917,4.021428571428571L3.6635678209757976,4.021428571428571L3.877853535261512,4.235714285714286L4.949282106690084,4.235714285714286L5.592139249547226,4.878571428571429L5.80642496383294,4.878571428571429L6.234996392404369,5.307142857142857L6.663567820975797,5.307142857142857L6.8778535352615116,5.521428571428571L7.092139249547226,5.521428571428571L7.520710678118655,5.95z" stroke="none"/><path d="M32.95,5.0928571428571425L32.95,4.907860750452774L33.19357503616706,4.664285714285715L36.87785353526151,4.664285714285715L37.09213924954722,4.878571428571429L47.122146464738485,4.878571428571429L47.3364321790242,4.664285714285715L47.550717893309915,4.664285714285715L47.76500360759563,4.45L48,4.45L48,4.55L47.80642496383294,4.55L47.59213924954722,4.764285714285714L47.37785353526151,4.764285714285714L47.16356782097579,4.978571428571429L37.050717893309915,4.978571428571429L36.8364321790242,4.764285714285714L33.23499639240437,4.764285714285714L33.05,4.949282106690084L33.05,5.0928571428571425L43.30642496383294,5.0928571428571425L43.73499639240437,5.521428571428571L43.949282106690085,5.521428571428571L44.37785353526151,5.95L45,5.95L45,6.05L44.3364321790242,6.05L43.90786075045278,5.621428571428571L43.69357503616706,5.621428571428571L43.26500360759563,5.192857142857142L33.05,5.192857142857142L33.05,5.3778535352615116L32.80642496383294,5.621428571428571L32.59213924954722,5.621428571428571L32.40714285714285,5.80642496383294L32.40714285714285,6.020710678118655L31.94928210669008,6.478571428571428L29.12214646473849,6.478571428571428L28.907860750452773,6.264285714285714L19.69357503616706,6.264285714285714L19.46464466094067,6.035355339059327L19.53535533905933,5.964644660940673L19.73499639240437,6.164285714285715L28.94928210669008,6.164285714285715L29.163567820975796,6.378571428571428L31.907860750452773,6.378571428571428L32.30714285714286,5.979289321881345L32.30714285714286,5.765003607595631L32.550717893309915,5.521428571428571L32.76500360759563,5.521428571428571L32.95,5.336432179024202L32.95,5.192857142857142L22.05071789330992,5.192857142857142L21.62214646473849,4.764285714285714L19.69357503616706,4.764285714285714L19.46464466094067,4.535355339059327L19.53535533905933,4.464644660940673L19.73499639240437,4.664285714285715L21.663567820975796,4.664285714285715L22.092139249547227,5.0928571428571425z" stroke="none"/><path d="M77.09285714285714,7.021428571428571L77.09285714285714,6.836432179024202L77.33643217902419,6.5928571428571425L95.37785353526151,6.5928571428571425L96.02071067811865,7.235714285714286L96.44928210669008,7.235714285714286L96.87785353526151,7.664285714285715L97.30642496383294,7.664285714285715L98.37785353526151,8.735714285714284L98.80642496383294,8.735714285714284L99.03535533905931,8.964644660940673L98.96464466094066,9.035355339059327L98.76500360759562,8.835714285714285L98.33643217902419,8.835714285714285L97.26500360759562,7.764285714285714L96.83643217902419,7.764285714285714L96.40786075045276,7.335714285714285L95.97928932188132,7.335714285714285L95.33643217902419,6.692857142857142L77.37785353526151,6.692857142857142L77.19285714285714,6.8778535352615116L77.19285714285714,7.021428571428571L87.62214646473848,7.021428571428571L87.83643217902419,6.807142857142857L94.52071067811865,6.807142857142857L94.73499639240437,7.021428571428571L94.94928210669008,7.021428571428571L95.62142857142855,7.69357503616706L95.62142857142855,8.336432179024204L96.04999999999998,8.76500360759563L96.04999999999998,9L95.94999999999999,9L95.94999999999999,8.806424963832939L95.52142857142856,8.377853535261512L95.52142857142856,7.734996392404369L94.90786075045276,7.121428571428571L94.69357503616705,7.121428571428571L94.47928932188132,6.907142857142857L87.87785353526151,6.907142857142857L87.6635678209758,7.121428571428571L77.19285714285714,7.121428571428571L77.19285714285714,7.30642496383294L76.94928210669008,7.55L59.3364321790242,7.55L58.90786075045277,7.121428571428571L54.622146464738485,7.121428571428571L53.76500360759563,6.264285714285714L52.90786075045277,6.264285714285714L52.69357503616706,6.05L52.5,6.05L52.5,5.95L52.73499639240437,5.95L52.94928210669008,6.164285714285715L53.80642496383294,6.164285714285715L54.66356782097579,7.021428571428571L58.94928210669008,7.021428571428571L59.37785353526151,7.45L76.90786075045276,7.45L77.09285714285714,7.265003607595631L77.09285714285714,7.121428571428571L66.40786075045276,7.121428571428571L66.19357503616705,6.907142857142857L65.5507178933099,6.907142857142857L64.90786075045276,6.264285714285714L64.26500360759562,6.264285714285714L63.8364321790242,5.835714285714285L63.19357503616706,5.835714285714285L62.122146464738485,4.764285714285714L61.69357503616706,4.764285714285714L61.46464466094067,4.535355339059327L61.53535533905933,4.464644660940673L61.73499639240437,4.664285714285715L62.16356782097579,4.664285714285715L63.23499639240437,5.735714285714286L63.87785353526151,5.735714285714286L64.30642496383294,6.164285714285715L64.94928210669008,6.164285714285715L65.59213924954722,6.807142857142857L66.23499639240437,6.807142857142857L66.44928210669008,7.021428571428571z" stroke="none"/><path d="M86.99999999999999,2.95L86.99999999999999,3.05L83.99999999999999,3.05L83.99999999999999,2.95z" stroke="none"/><path d="M92.94999999999999,3L93.04999999999998,3L93.04999999999998,3.877853535261512L92.19285714285712,4.734996392404369L92.19285714285712,5.163567820975797L91.97857142857141,5.3778535352615116L91.97857142857141,5.592139249547226L91.53535533905931,6.035355339059327L91.46464466094066,5.964644660940673L91.87857142857142,5.550717893309916L91.87857142857142,5.336432179024202L92.09285714285713,5.122146464738488L92.09285714285713,4.69357503616706L92.94999999999999,3.8364321790242024z" stroke="none"/><path d="M4.5,10.55L4.5,10.45L9,10.45L9,10.55z" stroke="none"/><path d="M45,3.05L45,2.95L49.5,2.95L49.5,3.05z" stroke="none"/><path d="M18,3.05L18,2.95L22.5,2.95L22.5,3.05z" stroke="none"/><path d="M31.5,4.55L31.5,4.45L37.5,4.45L37.5,4.55z" stroke="none"/><path d="M91.49999999999999,8.95L91.49999999999999,9.05L85.49999999999999,9.05L85.49999999999999,8.95z" stroke="none"/><path d="M6,4.45L6,4.55L5.550717893309916,4.55L5.122146464738488,4.121428571428571L4.907860750452774,4.121428571428571L4.479289321881345,3.6928571428571426L4.265003607595631,3.6928571428571426L4.021428571428571,3.449282106690083L4.021428571428571,2.550717893309917L4.265003607595631,2.3071428571428574L10.949282106690081,2.3071428571428574L11.592139249547223,2.95L12,2.95L12,3.05L11.550717893309915,3.05L10.907860750452773,2.407142857142857L4.30642496383294,2.407142857142857L4.121428571428571,2.5921392495472264L4.121428571428571,3.4078607504527736L4.30642496383294,3.592857142857143L4.520710678118655,3.592857142857143L4.949282106690084,4.021428571428571L5.163567820975797,4.021428571428571L5.592139249547226,4.45z" stroke="none"/><path d="M36,3.05L36,2.95L43.5,2.95L43.5,3.05z" stroke="none"/><path d="M76.49999999999999,6.05L76.49999999999999,5.95L81.83643217902419,5.95L82.69357503616705,5.0928571428571425L82.90786075045276,5.0928571428571425L83.33643217902419,4.664285714285715L83.76500360759562,4.664285714285715L83.96464466094066,4.464644660940673L84.03535533905931,4.535355339059327L83.80642496383294,4.764285714285714L83.37785353526151,4.764285714285714L82.94928210669008,5.192857142857142L82.73499639240437,5.192857142857142L81.87785353526151,6.05z" stroke="none"/><path d="M92.99999999999999,9.05L92.99999999999999,8.95L95.16356782097579,8.95L95.59213924954722,9.378571428571426L100.90786075045276,9.378571428571426L101.12214646473846,9.164285714285715L101.76500360759562,9.164285714285715L101.96464466094066,8.964644660940673L102.03535533905931,9.035355339059327L101.80642496383294,9.264285714285716L101.16356782097579,9.264285714285716L100.94928210669008,9.478571428571428L95.5507178933099,9.478571428571428L95.12214646473846,9.05z" stroke="none"/><path d="M13.5,10.55L13.5,10.45L17.37785353526151,10.45L17.592139249547227,10.664285714285715L18.020710678118654,10.664285714285715L18.23499639240437,10.878571428571426L19.94928210669008,10.878571428571426L20.163567820975796,11.092857142857142L20.37785353526151,11.092857142857142L21.020710678118654,11.735714285714284L21.87785353526151,11.735714285714284L22.092139249547227,11.95L22.5,11.95L22.5,12.05L22.05071789330992,12.05L21.836432179024204,11.835714285714285L20.979289321881346,11.835714285714285L20.336432179024204,11.192857142857143L20.12214646473849,11.192857142857143L19.907860750452773,10.978571428571428L18.19357503616706,10.978571428571428L17.979289321881346,10.764285714285716L17.55071789330992,10.764285714285716L17.336432179024204,10.55z" stroke="none"/><path d="M18.03535533905933,11.964644660940673L17.96464466094067,12.035355339059327L17.76500360759563,11.835714285714285L17.55071789330992,11.835714285714285L17.336432179024204,11.62142857142857L8.592139249547223,11.62142857142857L8.377853535261512,11.835714285714285L8.163567820975796,11.835714285714285L7.949282106690083,12.05L7.5,12.05L7.5,11.95L7.907860750452773,11.95L8.122146464738488,11.735714285714284L8.336432179024204,11.735714285714284L8.550717893309915,11.521428571428569L17.37785353526151,11.521428571428569L17.592139249547227,11.735714285714284L17.80642496383294,11.735714285714284z" stroke="none"/><path d="M78.03535533905931,3.0353553390593273L77.96464466094066,2.9646446609406727L78.19357503616705,2.7357142857142858L78.62214646473848,2.7357142857142858L78.83643217902419,2.521428571428572L87.87785353526151,2.521428571428572L88.30642496383294,2.95L88.49999999999999,2.95L88.49999999999999,3.05L88.26500360759562,3.05L87.83643217902419,2.6214285714285714L78.87785353526151,2.6214285714285714L78.6635678209758,2.8357142857142854L78.23499639240437,2.8357142857142854z" stroke="none"/><path d="M63,11.95L63,12.05L54.622146464738485,12.05L53.76500360759563,11.192857142857143L53.3364321790242,11.192857142857143L52.90786075045277,10.764285714285716L52.69357503616706,10.764285714285716L52.46464466094067,10.535355339059327L52.53535533905933,10.464644660940673L52.73499639240437,10.664285714285715L52.94928210669008,10.664285714285715L53.37785353526151,11.092857142857142L53.80642496383294,11.092857142857142L54.66356782097579,11.95z" stroke="none"/><path d="M4.5,12.05L4.5,11.95L4.949282106690084,11.95L5.3778535352615116,12.378571428571426L15.836432179024204,12.378571428571426L16.050717893309915,12.164285714285715L16.26500360759563,12.164285714285715L16.46464466094067,11.964644660940673L16.53535533905933,12.035355339059327L16.30642496383294,12.264285714285716L16.092139249547223,12.264285714285716L15.877853535261512,12.478571428571428L5.336432179024202,12.478571428571428L4.907860750452774,12.05z" stroke="none"/><path d="M97.49999999999999,10.45L97.49999999999999,10.55L90.44928210669008,10.55L90.23499639240437,10.764285714285716L89.1635678209758,10.764285714285716L88.94928210669008,10.978571428571428L86.80642496383294,10.978571428571428L86.37785353526151,11.407142857142858L85.73499639240437,11.407142857142858L85.52071067811865,11.62142857142857L85.30642496383294,11.62142857142857L84.87785353526151,12.05L83.99999999999999,12.05L83.99999999999999,11.95L84.83643217902419,11.95L85.26500360759562,11.521428571428569L85.47928932188132,11.521428571428569L85.69357503616705,11.307142857142857L86.33643217902419,11.307142857142857L86.76500360759562,10.878571428571426L88.90786075045276,10.878571428571426L89.12214646473848,10.664285714285715L90.19357503616705,10.664285714285715L90.40786075045276,10.45z" stroke="none"/><path d="M101.96464466094066,7.535355339059327L102.03535533905931,7.464644660940673L102.2642857142857,7.69357503616706L102.2642857142857,7.907860750452773L102.47857142857141,8.122146464738488L102.47857142857141,9.449282106690081L102.23499639240437,9.692857142857143L91.30642496383294,9.692857142857143L91.09213924954722,9.907142857142858L90.6635678209758,9.907142857142858L90.44928210669008,10.12142857142857L89.1635678209758,10.12142857142857L88.94928210669008,10.335714285714285L88.73499639240437,10.335714285714285L88.53535533905931,10.535355339059327L88.46464466094066,10.464644660940673L88.69357503616705,10.235714285714284L88.90786075045276,10.235714285714284L89.12214646473848,10.021428571428569L90.40786075045276,10.021428571428569L90.62214646473848,9.807142857142857L91.0507178933099,9.807142857142857L91.26500360759562,9.592857142857142L102.19357503616705,9.592857142857142L102.37857142857142,9.407860750452773L102.37857142857142,8.163567820975796L102.16428571428571,7.949282106690083L102.16428571428571,7.734996392404369z" stroke="none"/><path d="M7.5,3.05L7.5,2.95L8.163567820975796,2.95L8.377853535261512,3.1642857142857146L8.592139249547223,3.1642857142857146L8.806424963832939,3.3785714285714286L9.020710678118654,3.3785714285714286L9.23499639240437,3.592857142857143L10.306424963832939,3.592857142857143L10.73499639240437,4.021428571428571L11.806424963832939,4.021428571428571L12.020710678118654,4.235714285714286L12.23499639240437,4.235714285714286L12.877853535261512,4.878571428571429L17.76500360759563,4.878571428571429L17.979289321881346,4.664285714285715L18.19357503616706,4.664285714285715L18.836432179024204,4.021428571428571L21.87785353526151,4.021428571428571L22.092139249547227,4.235714285714286L22.30642496383294,4.235714285714286L22.53535533905933,4.464644660940673L22.46464466094067,4.535355339059327L22.26500360759563,4.335714285714285L22.05071789330992,4.335714285714285L21.836432179024204,4.121428571428571L18.87785353526151,4.121428571428571L18.23499639240437,4.764285714285714L18.020710678118654,4.764285714285714L17.80642496383294,4.978571428571429L12.836432179024204,4.978571428571429L12.193575036167061,4.335714285714285L11.979289321881346,4.335714285714285L11.76500360759563,4.121428571428571L10.693575036167061,4.121428571428571L10.26500360759563,3.6928571428571426L9.193575036167061,3.6928571428571426L8.979289321881346,3.478571428571428L8.76500360759563,3.478571428571428L8.550717893309915,3.2642857142857142L8.336432179024204,3.2642857142857142L8.122146464738488,3.05z" stroke="none"/><path d="M83.96464466094066,10.464644660940673L84.03535533905931,10.535355339059327L83.62142857142855,10.949282106690081L83.62142857142855,12.407860750452773L83.80642496383294,12.592857142857142L92.33643217902419,12.592857142857142L92.5507178933099,12.378571428571426L97.26500360759562,12.378571428571426L97.47928932188132,12.164285714285715L98.33643217902419,12.164285714285715L98.76500360759562,11.735714285714284L99.19357503616705,11.735714285714284L99.83643217902419,11.092857142857142L100.26500360759562,11.092857142857142L100.47928932188132,10.878571428571426L100.69357503616705,10.878571428571426L101.12214646473846,10.45L101.33643217902419,10.45L101.5507178933099,10.235714285714284L101.76500360759562,10.235714285714284L101.97928932188132,10.021428571428569L102.19357503616705,10.021428571428569L102.59285714285713,9.622146464738488L102.59285714285713,7.30642496383294L102.40786075045276,7.121428571428571L101.59213924954722,7.121428571428571L101.40714285714284,7.30642496383294L101.40714285714284,7.520710678118655L100.97857142857141,7.949282106690083L100.97857142857141,8.163567820975796L100.7642857142857,8.377853535261512L100.7642857142857,8.806424963832939L100.53535533905931,9.035355339059327L100.46464466094066,8.964644660940673L100.66428571428571,8.76500360759563L100.66428571428571,8.336432179024204L100.87857142857142,8.122146464738488L100.87857142857142,7.907860750452773L101.30714285714285,7.479289321881345L101.30714285714285,7.265003607595631L101.5507178933099,7.021428571428571L102.44928210669008,7.021428571428571L102.69285714285712,7.265003607595631L102.69285714285712,9.663567820975796L102.23499639240437,10.12142857142857L102.02071067811865,10.12142857142857L101.80642496383294,10.335714285714285L101.59213924954722,10.335714285714285L101.37785353526151,10.55L101.16356782097579,10.55L100.73499639240437,10.978571428571428L100.52071067811865,10.978571428571428L100.30642496383294,11.192857142857143L99.87785353526151,11.192857142857143L99.23499639240437,11.835714285714285L98.80642496383294,11.835714285714285L98.37785353526151,12.264285714285716L97.52071067811865,12.264285714285716L97.30642496383294,12.478571428571428L92.59213924954722,12.478571428571428L92.37785353526151,12.692857142857143L83.76500360759562,12.692857142857143L83.52142857142856,12.449282106690081L83.52142857142856,10.907860750452773z" stroke="none"/><path d="M97.49999999999999,4.45L97.49999999999999,4.55L97.26500360759562,4.55L97.0507178933099,4.335714285714285L96.62214646473846,4.335714285714285L95.5507178933099,3.2642857142857142L94.26500360759562,3.2642857142857142L94.0507178933099,3.05L93.83643217902419,3.05L93.40786075045276,2.6214285714285714L90.23499639240437,2.6214285714285714L89.37785353526151,3.478571428571428L80.12214646473848,3.478571428571428L79.69357503616705,3.05L79.49999999999999,3.05L79.49999999999999,2.95L79.73499639240437,2.95L80.1635678209758,3.3785714285714286L89.33643217902419,3.3785714285714286L90.19357503616705,2.521428571428572L93.44928210669008,2.521428571428572L93.87785353526151,2.95L94.09213924954722,2.95L94.30642496383294,3.1642857142857146L95.59213924954722,3.1642857142857146L96.66356782097579,4.235714285714286L97.09213924954722,4.235714285714286L97.30642496383294,4.45z" stroke="none"/><path d="M3.0353553390593273,10.535355339059327L2.9646446609406727,10.464644660940673L3.1935750361670596,10.235714285714284L3.622146464738488,10.235714285714284L3.8364321790242024,10.021428571428569L21.87785353526151,10.021428571428569L22.092139249547227,10.235714285714284L22.30642496383294,10.235714285714284L22.53535533905933,10.464644660940673L22.46464466094067,10.535355339059327L22.26500360759563,10.335714285714285L22.05071789330992,10.335714285714285L21.836432179024204,10.12142857142857L3.877853535261512,10.12142857142857L3.6635678209757976,10.335714285714285L3.234996392404369,10.335714285714285z" stroke="none"/><path d="M61.5,3.05L61.5,2.95L65.1635678209758,2.95L65.59213924954722,3.3785714285714286L77.37785353526151,3.3785714285714286L77.59213924954722,3.592857142857143L77.80642496383294,3.592857142857143L78.02071067811865,3.8071428571428574L78.23499639240437,3.8071428571428574L78.44928210669008,4.021428571428571L78.6635678209758,4.021428571428571L78.87785353526151,4.235714285714286L81.23499639240437,4.235714285714286L81.44928210669008,4.45L82.49999999999999,4.45L82.49999999999999,4.55L81.40786075045276,4.55L81.19357503616705,4.335714285714285L78.83643217902419,4.335714285714285L78.62214646473848,4.121428571428571L78.40786075045276,4.121428571428571L78.19357503616705,3.907142857142857L77.97928932188132,3.907142857142857L77.76500360759562,3.6928571428571426L77.5507178933099,3.6928571428571426L77.33643217902419,3.478571428571428L65.5507178933099,3.478571428571428L65.12214646473848,3.05z" stroke="none"/><path d="M28.5,2.95L28.5,3.05L23.76500360759563,3.05L23.550717893309915,2.8357142857142854L23.336432179024204,2.8357142857142854L23.12214646473849,2.6214285714285714L12.407860750452773,2.6214285714285714L12.193575036167061,2.407142857142857L11.979289321881346,2.407142857142857L11.76500360759563,2.1928571428571426L4.092139249547226,2.1928571428571426L2.1928571428571426,4.092139249547226L2.1928571428571426,4.907860750452774L4.335714285714285,7.050717893309916L4.335714285714285,7.265003607595631L4.535355339059327,7.464644660940673L4.464644660940673,7.535355339059327L4.235714285714286,7.30642496383294L4.235714285714286,7.092139249547226L2.092857142857143,4.949282106690084L2.092857142857143,4.050717893309916L4.050717893309916,2.092857142857143L11.806424963832939,2.092857142857143L12.020710678118654,2.3071428571428574L12.23499639240437,2.3071428571428574L12.449282106690081,2.521428571428572L23.163567820975796,2.521428571428572L23.37785353526151,2.7357142857142858L23.592139249547223,2.7357142857142858L23.80642496383294,2.95z" stroke="none"/><path d="M18,7.45L18,7.55L9.877853535261512,7.55L9.449282106690081,7.978571428571428L4.050717893309916,7.978571428571428L2.521428571428572,6.449282106690083L2.521428571428572,6.234996392404369L2.092857142857143,5.80642496383294L2.092857142857143,5.592139249547226L1.8785714285714286,5.3778535352615116L1.8785714285714286,3.8364321790242024L3.8364321790242024,1.8785714285714286L54.44928210669008,1.8785714285714286L54.87785353526151,2.3071428571428574L55.73499639240437,2.3071428571428574L55.97857142857142,2.550717893309917L55.97857142857142,3.449282106690083L55.73499639240437,3.6928571428571426L49.94928210669008,3.6928571428571426L48.66356782097579,4.978571428571429L48.44928210669008,4.978571428571429L48.23499639240437,5.192857142857142L47.59213924954722,5.192857142857142L47.16356782097579,5.621428571428571L46.73499639240437,5.621428571428571L46.30642496383294,6.05L46.09213924954722,6.05L45.87785353526151,6.264285714285714L45.66356782097579,6.264285714285714L45.449282106690085,6.478571428571428L45.23499639240437,6.478571428571428L45.020710678118654,6.692857142857142L44.80642496383294,6.692857142857142L44.59213924954722,6.907142857142857L44.37785353526151,6.907142857142857L43.949282106690085,7.335714285714285L43.73499639240437,7.335714285714285L43.53535533905933,7.535355339059327L43.46464466094067,7.464644660940673L43.69357503616706,7.235714285714286L43.90786075045278,7.235714285714286L44.3364321790242,6.807142857142857L44.550717893309915,6.807142857142857L44.76500360759563,6.5928571428571425L44.979289321881346,6.5928571428571425L45.19357503616706,6.378571428571428L45.40786075045278,6.378571428571428L45.622146464738485,6.164285714285715L45.8364321790242,6.164285714285715L46.050717893309915,5.95L46.26500360759563,5.95L46.69357503616706,5.521428571428571L47.122146464738485,5.521428571428571L47.550717893309915,5.0928571428571425L48.19357503616706,5.0928571428571425L48.40786075045277,4.878571428571429L48.622146464738485,4.878571428571429L49.90786075045277,3.592857142857143L55.69357503616706,3.592857142857143L55.878571428571426,3.4078607504527736L55.878571428571426,2.5921392495472264L55.69357503616706,2.407142857142857L54.8364321790242,2.407142857142857L54.40786075045277,1.9785714285714286L3.877853535261512,1.9785714285714286L1.9785714285714286,3.877853535261512L1.9785714285714286,5.336432179024202L2.1928571428571426,5.550717893309916L2.1928571428571426,5.765003607595631L2.6214285714285714,6.19357503616706L2.6214285714285714,6.407860750452773L4.092139249547226,7.878571428571428L9.407860750452773,7.878571428571428L9.836432179024204,7.45z" stroke="none"/><path d="M6,9.05L6,8.95L27.44928210669008,8.95L27.663567820975796,9.164285714285715L27.87785353526151,9.164285714285715L28.092139249547223,9.378571428571426L32.122146464738485,9.378571428571426L32.550717893309915,8.95L33,8.95L33,9.05L32.59213924954722,9.05L32.16356782097579,9.478571428571428L28.050717893309915,9.478571428571428L27.836432179024204,9.264285714285716L27.62214646473849,9.264285714285716L27.407860750452773,9.05z" stroke="none"/><path d="M100.49999999999999,4.45L100.49999999999999,4.55L100.26500360759562,4.55L99.62214646473846,3.907142857142857L99.40786075045276,3.907142857142857L99.19357503616705,3.6928571428571426L97.47928932188132,3.6928571428571426L96.62214646473846,2.8357142857142854L96.40786075045276,2.8357142857142854L96.19357503616705,2.6214285714285714L94.0507178933099,2.6214285714285714L93.83643217902419,2.407142857142857L75.6635678209758,2.407142857142857L75.44928210669008,2.6214285714285714L75.23499639240437,2.6214285714285714L75.02071067811865,2.8357142857142854L74.80642496383294,2.8357142857142854L74.59213924954722,3.05L65.99999999999999,3.05L65.99999999999999,2.95L74.5507178933099,2.95L74.76500360759562,2.7357142857142858L74.97928932188132,2.7357142857142858L75.19357503616705,2.521428571428572L75.40786075045276,2.521428571428572L75.62214646473848,2.3071428571428574L93.87785353526151,2.3071428571428574L94.09213924954722,2.521428571428572L96.23499639240437,2.521428571428572L96.44928210669008,2.7357142857142858L96.66356782097579,2.7357142857142858L97.52071067811865,3.592857142857143L99.23499639240437,3.592857142857143L99.44928210669008,3.8071428571428574L99.66356782097579,3.8071428571428574L100.30642496383294,4.45z" stroke="none"/><path d="M63,4.55L63,4.45L68.37785353526151,4.45L68.59213924954722,4.664285714285715L69.23499639240437,4.664285714285715L69.44928210669008,4.878571428571429L69.6635678209758,4.878571428571429L70.52071067811865,5.735714285714286L71.80642496383294,5.735714285714286L72.44928210669008,6.378571428571428L72.6635678209758,6.378571428571428L72.87785353526151,6.5928571428571425L73.69357503616705,6.5928571428571425L73.87857142857142,6.407860750452773L73.87857142857142,5.592139249547226L73.26500360759562,4.978571428571429L73.0507178933099,4.978571428571429L72.83643217902419,4.764285714285714L72.62214646473848,4.764285714285714L72.40786075045276,4.55L70.0507178933099,4.55L69.83643217902419,4.335714285714285L68.97928932188132,4.335714285714285L68.5507178933099,3.907142857142857L61.69357503616706,3.907142857142857L61.479289321881346,3.6928571428571426L61.26500360759563,3.6928571428571426L60.40786075045277,2.8357142857142854L56.76500360759563,2.8357142857142854L56.3364321790242,2.407142857142857L56.122146464738485,2.407142857142857L55.90786075045277,2.1928571428571426L55.26500360759563,2.1928571428571426L54.8364321790242,1.7642857142857145L3.6635678209757976,1.7642857142857145L1.7642857142857145,3.6635678209757976L1.7642857142857145,5.765003607595631L2.407142857142857,6.407860750452773L2.407142857142857,6.622146464738488L3.877853535261512,8.092857142857142L24.44928210669008,8.092857142857142L24.663567820975796,8.307142857142857L26.80642496383294,8.307142857142857L27.020710678118654,8.521428571428569L27.87785353526151,8.521428571428569L28.092139249547223,8.735714285714284L28.30642496383294,8.735714285714284L28.53535533905933,8.964644660940673L28.46464466094067,9.035355339059327L28.26500360759563,8.835714285714285L28.050717893309915,8.835714285714285L27.836432179024204,8.62142857142857L26.979289321881346,8.62142857142857L26.76500360759563,8.407142857142858L24.62214646473849,8.407142857142858L24.407860750452773,8.192857142857143L3.8364321790242024,8.192857142857143L2.3071428571428574,6.663567820975797L2.3071428571428574,6.449282106690083L1.6642857142857144,5.80642496383294L1.6642857142857144,3.622146464738488L3.622146464738488,1.6642857142857144L54.87785353526151,1.6642857142857144L55.30642496383294,2.092857142857143L55.94928210669008,2.092857142857143L56.16356782097579,2.3071428571428574L56.37785353526151,2.3071428571428574L56.80642496383294,2.7357142857142858L60.44928210669008,2.7357142857142858L61.30642496383294,3.592857142857143L61.520710678118654,3.592857142857143L61.73499639240437,3.8071428571428574L68.59213924954722,3.8071428571428574L69.02071067811865,4.235714285714286L69.87785353526151,4.235714285714286L70.09213924954722,4.45L72.44928210669008,4.45L72.6635678209758,4.664285714285715L72.87785353526151,4.664285714285715L73.09213924954722,4.878571428571429L73.30642496383294,4.878571428571429L73.97857142857141,5.550717893309916L73.97857142857141,6.449282106690083L73.73499639240437,6.692857142857142L72.83643217902419,6.692857142857142L72.62214646473848,6.478571428571428L72.40786075045276,6.478571428571428L71.76500360759562,5.835714285714285L70.47928932188132,5.835714285714285L69.62214646473848,4.978571428571429L69.40786075045276,4.978571428571429L69.19357503616705,4.764285714285714L68.5507178933099,4.764285714285714L68.33643217902419,4.55z" stroke="none"/><path d="M42,8.95L42,9.05L39.449282106690085,9.05L39.23499639240437,9.264285714285716L38.16356782097579,9.264285714285716L37.949282106690085,9.478571428571428L32.80642496383294,9.478571428571428L32.59213924954722,9.692857142857143L29.163567820975796,9.692857142857143L28.94928210669008,9.907142857142858L28.520710678118654,9.907142857142858L28.30642496383294,10.12142857142857L28.092139249547223,10.12142857142857L27.87785353526151,10.335714285714285L27.020710678118654,10.335714285714285L26.80642496383294,10.55L26.163567820975796,10.55L25.94928210669008,10.764285714285716L25.73499639240437,10.764285714285716L25.520710678118654,10.978571428571428L25.30642496383294,10.978571428571428L25.092139249547223,11.192857142857143L24.663567820975796,11.192857142857143L24.23499639240437,11.62142857142857L24.020710678118654,11.62142857142857L23.163567820975796,12.478571428571428L19.907860750452773,12.478571428571428L19.26500360759563,11.835714285714285L19.05071789330992,11.835714285714285L18.836432179024204,11.62142857142857L17.979289321881346,11.62142857142857L17.76500360759563,11.407142857142858L7.092139249547226,11.407142857142858L6.663567820975797,11.835714285714285L6.449282106690083,11.835714285714285L6.234996392404369,12.05L6,12.05L6,11.95L6.19357503616706,11.95L6.407860750452773,11.735714285714284L6.622146464738488,11.735714285714284L7.050717893309916,11.307142857142857L17.80642496383294,11.307142857142857L18.020710678118654,11.521428571428569L18.87785353526151,11.521428571428569L19.092139249547227,11.735714285714284L19.30642496383294,11.735714285714284L19.94928210669008,12.378571428571426L23.12214646473849,12.378571428571426L23.979289321881346,11.521428571428569L24.19357503616706,11.521428571428569L24.62214646473849,11.092857142857142L25.050717893309915,11.092857142857142L25.26500360759563,10.878571428571426L25.479289321881346,10.878571428571426L25.69357503616706,10.664285714285715L25.907860750452773,10.664285714285715L26.12214646473849,10.45L26.76500360759563,10.45L26.979289321881346,10.235714285714284L27.836432179024204,10.235714285714284L28.050717893309915,10.021428571428569L28.26500360759563,10.021428571428569L28.479289321881346,9.807142857142857L28.907860750452773,9.807142857142857L29.12214646473849,9.592857142857142L32.550717893309915,9.592857142857142L32.76500360759563,9.378571428571426L37.90786075045278,9.378571428571426L38.122146464738485,9.164285714285715L39.19357503616706,9.164285714285715L39.40786075045278,8.95z" stroke="none"/><path d="M28.5,12.05L28.5,11.95L30.663567820975796,11.95L31.092139249547223,12.378571428571426L69.62214646473848,12.378571428571426L69.83643217902419,12.164285714285715L70.0507178933099,12.164285714285715L70.90786075045276,11.307142857142857L71.12214646473848,11.307142857142857L71.96464466094066,10.464644660940673L72.03535533905931,10.535355339059327L71.1635678209758,11.407142857142858L70.94928210669008,11.407142857142858L70.09213924954722,12.264285714285716L69.87785353526151,12.264285714285716L69.6635678209758,12.478571428571428L31.050717893309915,12.478571428571428L30.62214646473849,12.05z" stroke="none"/><path d="M65.99999999999999,8.95L65.99999999999999,9.05L50.16356782097579,9.05L49.09213924954722,10.12142857142857L48.87785353526151,10.12142857142857L48.23499639240437,10.764285714285716L48.020710678118654,10.764285714285716L47.80642496383294,10.978571428571428L47.16356782097579,10.978571428571428L46.94928210669008,11.192857142857143L27.663567820975796,11.192857142857143L27.44928210669008,11.407142857142858L26.80642496383294,11.407142857142858L26.163567820975796,12.05L25.94928210669008,12.05L25.30642496383294,12.692857142857143L4.69357503616706,12.692857142857143L4.479289321881345,12.478571428571428L4.050717893309916,12.478571428571428L2.521428571428572,10.949282106690081L2.521428571428572,10.050717893309915L2.765003607595631,9.807142857142857L22.73499639240437,9.807142857142857L22.978571428571428,10.050717893309915L22.978571428571428,10.949282106690081L22.73499639240437,11.192857142857143L20.76500360759563,11.192857142857143L20.55071789330992,10.978571428571428L20.336432179024204,10.978571428571428L20.12214646473849,10.764285714285716L19.907860750452773,10.764285714285716L19.69357503616706,10.55L19.5,10.55L19.5,10.45L19.73499639240437,10.45L19.94928210669008,10.664285714285715L20.163567820975796,10.664285714285715L20.37785353526151,10.878571428571426L20.592139249547227,10.878571428571426L20.80642496383294,11.092857142857142L22.69357503616706,11.092857142857142L22.878571428571426,10.907860750452773L22.878571428571426,10.092139249547223L22.69357503616706,9.907142857142858L2.8064249638329404,9.907142857142858L2.6214285714285714,10.092139249547223L2.6214285714285714,10.907860750452773L4.092139249547226,12.378571428571426L4.520710678118655,12.378571428571426L4.734996392404369,12.592857142857142L25.26500360759563,12.592857142857142L25.907860750452773,11.95L26.12214646473849,11.95L26.76500360759563,11.307142857142857L27.407860750452773,11.307142857142857L27.62214646473849,11.092857142857142L46.90786075045277,11.092857142857142L47.122146464738485,10.878571428571426L47.76500360759563,10.878571428571426L47.979289321881346,10.664285714285715L48.19357503616706,10.664285714285715L48.8364321790242,10.021428571428569L49.050717893309915,10.021428571428569L50.122146464738485,8.95z" stroke="none"/><path d="M31.53535533905933,11.964644660940673L31.46464466094067,12.035355339059327L31.26500360759563,11.835714285714285L29.12214646473849,11.835714285714285L28.907860750452773,11.62142857142857L28.092139249547223,11.62142857142857L27.90714285714286,11.806424963832939L27.90714285714286,12.193575036167061L28.092139249547223,12.378571428571426L30.663567820975796,12.378571428571426L30.87785353526151,12.592857142857142L76.90786075045276,12.592857142857142L77.33643217902419,12.164285714285715L77.76500360759562,12.164285714285715L77.97928932188132,11.95L79.49999999999999,11.95L79.49999999999999,12.05L78.02071067811865,12.05L77.80642496383294,12.264285714285716L77.37785353526151,12.264285714285716L76.94928210669008,12.692857142857143L30.836432179024204,12.692857142857143L30.62214646473849,12.478571428571428L28.050717893309915,12.478571428571428L27.807142857142857,12.23499639240437L27.807142857142857,11.76500360759563L28.050717893309915,11.521428571428569L28.94928210669008,11.521428571428569L29.163567820975796,11.735714285714284L31.30642496383294,11.735714285714284z" stroke="none"/><circle cx="24" cy="7.5" r="0.25" stroke-width="0" fill="#000" /><circle cx="37.5" cy="9" r="0.25" stroke-width="0" fill="#000" /><circle cx="3" cy="4.5" r="0.25" stroke-width="0" fill="#000" /><circle cx="65.99999999999999" cy="12" r="0.25" stroke-width="0" fill="#000" /><circle cx="54" cy="10.5" r="0.25" stroke-width="0" fill="#000" /><circle cx="88.49999999999999" cy="7.5" r="0.25" stroke-width="0" fill="#000" /><circle cx="58.5" cy="7.5" r="0.25" stroke-width="0" fill="#000" /><circle cx="48" cy="12" r="0.25" stroke-width="0" fill="#000" /><circle cx="94.49999999999999" cy="7.5" r="0.25" stroke-width="0" fill="#000" /><circle cx="15" cy="3" r="0.25" stroke-width="0" fill="#000" /><circle cx="13.5" cy="4.5" r="0.25" stroke-width="0" fill="#000" /><circle cx="55.5" cy="3" r="0.25" stroke-width="0" fill="#000" /><circle cx="46.5" cy="10.5" r="0.25" stroke-width="0" fill="#000" /><circle cx="33" cy="6" r="0.25" stroke-width="0" fill="#000" /><circle cx="31.5" cy="10.5" r="0.25" stroke-width="0" fill="#000" /><circle cx="73.49999999999999" cy="6" r="0.25" stroke-width="0" fill="#000" /><circle cx="9" cy="7.5" r="0.25" stroke-width="0" fill="#000" /><circle cx="30" cy="7.5" r="0.25" stroke-width="0" fill="#000" /><circle cx="31.5" cy="6" r="0.25" stroke-width="0" fill="#000" /><circle cx="4.5" cy="3" r="0.25" stroke-width="0" fill="#000" /><circle cx="45" cy="6" r="0.25" stroke-width="0" fill="#000" /><circle cx="19.5" cy="4.5" r="0.25" stroke-width="0" fill="#000" /><circle cx="19.5" cy="6" r="0.25" stroke-width="0" fill="#000" /><circle cx="48" cy="4.5" r="0.25" stroke-width="0" fill="#000" /><circle cx="61.5" cy="4.5" r="0.25" stroke-width="0" fill="#000" /><circle cx="95.99999999999999" cy="9" r="0.25" stroke-width="0" fill="#000" /><circle cx="98.99999999999999" cy="9" r="0.25" stroke-width="0" fill="#000" /><circle cx="52.5" cy="6" r="0.25" stroke-width="0" fill="#000" /><circle cx="86.99999999999999" cy="3" r="0.25" stroke-width="0" fill="#000" /><circle cx="83.99999999999999" cy="3" r="0.25" stroke-width="0" fill="#000" /><circle cx="92.99999999999999" cy="3" r="0.25" stroke-width="0" fill="#000" /><circle cx="91.49999999999999" cy="6" r="0.25" stroke-width="0" fill="#000" /><circle cx="4.5" cy="10.5" r="0.25" stroke-width="0" fill="#000" /><circle cx="9" cy="10.5" r="0.25" stroke-width="0" fill="#000" /><circle cx="45" cy="3" r="0.25" stroke-width="0" fill="#000" /><circle cx="49.5" cy="3" r="0.25" stroke-width="0" fill="#000" /><circle cx="18" cy="3" r="0.25" stroke-width="0" fill="#000" /><circle cx="22.5" cy="3" r="0.25" stroke-width="0" fill="#000" /><circle cx="31.5" cy="4.5" r="0.25" stroke-width="0" fill="#000" /><circle cx="37.5" cy="4.5" r="0.25" stroke-width="0" fill="#000" /><circle cx="91.49999999999999" cy="9" r="0.25" stroke-width="0" fill="#000" /><circle cx="85.49999999999999" cy="9" r="0.25" stroke-width="0" fill="#000" /><circle cx="6" cy="4.5" r="0.25" stroke-width="0" fill="#000" /><circle cx="12" cy="3" r="0.25" stroke-width="0" fill="#000" /><circle cx="36" cy="3" r="0.25" stroke-width="0" fill="#000" /><circle cx="43.5" cy="3" r="0.25" stroke-width="0" fill="#000" /><circle cx="76.49999999999999" cy="6" r="0.25" stroke-width="0" fill="#000" /><circle cx="83.99999999999999" cy="4.5" r="0.25" stroke-width="0" fill="#000" /><circle cx="92.99999999999999" cy="9" r="0.25" stroke-width="0" fill="#000" /><circle cx="101.99999999999999" cy="9" r="0.25" stroke-width="0" fill="#000" /><circle cx="13.5" cy="10.5" r="0.25" stroke-width="0" fill="#000" /><circle cx="22.5" cy="12" r="0.25" stroke-width="0" fill="#000" /><circle cx="18" cy="12" r="0.25" stroke-width="0" fill="#000" /><circle cx="7.5" cy="12" r="0.25" stroke-width="0" fill="#000" /><circle cx="77.99999999999999" cy="3" r="0.25" stroke-width="0" fill="#000" /><circle cx="88.49999999999999" cy="3" r="0.25" stroke-width="0" fill="#000" /><circle cx="63" cy="12" r="0.25" stroke-width="0" fill="#000" /><circle cx="52.5" cy="10.5" r="0.25" stroke-width="0" fill="#000" /><circle cx="4.5" cy="12" r="0.25" stroke-width="0" fill="#000" /><circle cx="16.5" cy="12" r="0.25" stroke-width="0" fill="#000" /><circle cx="97.49999999999999" cy="10.5" r="0.25" stroke-width="0" fill="#000" /><circle cx="83.99999999999999" cy="12" r="0.25" stroke-width="0" fill="#000" /><circle cx="101.99999999999999" cy="7.5" r="0.25" stroke-width="0" fill="#000" /><circle cx="88.49999999999999" cy="10.5" r="0.25" stroke-width="0" fill="#000" /><circle cx="7.5" cy="3" r="0.25" stroke-width="0" fill="#000" /><circle cx="22.5" cy="4.5" r="0.25" stroke-width="0" fill="#000" /><circle cx="83.99999999999999" cy="10.5" r="0.25" stroke-width="0" fill="#000" /><circle cx="100.49999999999999" cy="9" r="0.25" stroke-width="0" fill="#000" /><circle cx="97.49999999999999" cy="4.5" r="0.25" stroke-width="0" fill="#000" /><circle cx="79.49999999999999" cy="3" r="0.25" stroke-width="0" fill="#000" /><circle cx="3" cy="10.5" r="0.25" stroke-width="0" fill="#000" /><circle cx="22.5" cy="10.5" r="0.25" stroke-width="0" fill="#000" /><circle cx="61.5" cy="3" r="0.25" stroke-width="0" fill="#000" /><circle cx="82.49999999999999" cy="4.5" r="0.25" stroke-width="0" fill="#000" /><circle cx="28.5" cy="3" r="0.25" stroke-width="0" fill="#000" /><circle cx="4.5" cy="7.5" r="0.25" stroke-width="0" fill="#000" /><circle cx="18" cy="7.5" r="0.25" stroke-width="0" fill="#000" /><circle cx="43.5" cy="7.5" r="0.25" stroke-width="0" fill="#000" /><circle cx="6" cy="9" r="0.25" stroke-width="0" fill="#000" /><circle cx="33" cy="9" r="0.25" stroke-width="0" fill="#000" /><circle cx="100.49999999999999" cy="4.5" r="0.25" stroke-width="0" fill="#000" /><circle cx="65.99999999999999" cy="3" r="0.25" stroke-width="0" fill="#000" /><circle cx="63" cy="4.5" r="0.25" stroke-width="0" fill="#000" /><circle cx="28.5" cy="9" r="0.25" stroke-width="0" fill="#000" /><circle cx="42" cy="9" r="0.25" stroke-width="0" fill="#000" /><circle cx="6" cy="12" r="0.25" stroke-width="0" fill="#000" /><circle cx="28.5" cy="12" r="0.25" stroke-width="0" fill="#000" /><circle cx="71.99999999999999" cy="10.5" r="0.25" stroke-width="0" fill="#000" /><circle cx="65.99999999999999" cy="9" r="0.25" stroke-width="0" fill="#000" /><circle cx="19.5" cy="10.5" r="0.25" stroke-width="0" fill="#000" /><circle cx="31.5" cy="12" r="0.25" stroke-width="0" fill="#000" /><circle cx="79.49999999999999" cy="12" r="0.25" stroke-width="0" fill="#000" /><rect x="0" y="0" width="105" height="15" stroke-width="0.2" stroke="#000" fill="none" /></svg>