<svg version="1.1" width="105" height="15" xmlns="http://www.w3.org/2000/svg"><path d="M33.80714285714286,4.479289321881345L33.80714285714286,4.265003607595631L34.02142857142857,4.050717893309916L34.02142857142857,3.8364321790242024L34.23571428571429,3.622146464738488L34.23571428571429,3.4078607504527736L34.45,3.1935750361670596L34.45,3L34.55,3L34.55,3.234996392404369L34.33571428571428,3.449282106690083L34.33571428571428,3.6635678209757976L34.12142857142857,3.877853535261512L34.12142857142857,4.092139249547226L33.90714285714285,4.30642496383294L33.90714285714285,4.45L34.050717893309915,4.45L34.479289321881346,4.021428571428571L34.90786075045278,4.021428571428571L35.122146464738485,3.8071428571428574L37.90786075045278,3.8071428571428574L38.122146464738485,3.592857142857143L38.3364321790242,3.592857142857143L38.96464466094067,2.9646446609406727L39.03535533905933,3.0353553390593273L38.37785353526151,3.6928571428571426L38.16356782097579,3.6928571428571426L37.949282106690085,3.907142857142857L35.16356782097579,3.907142857142857L34.949282106690085,4.121428571428571L34.520710678118654,4.121428571428571L34.09213924954722,4.55L33.87785353526151,4.55L32.59213924954722,5.835714285714285L32.37785353526151,5.835714285714285L31.94928210669008,6.264285714285714L31.520710678118654,6.264285714285714L31.30642496383294,6.478571428571428L30.87785353526151,6.478571428571428L30.663567820975796,6.692857142857142L30.23499639240437,6.692857142857142L30.020710678118654,6.907142857142857L29.37785353526151,6.907142857142857L28.73499639240437,7.55L28.5,7.55L28.5,7.45L28.69357503616706,7.45L29.336432179024204,6.807142857142857L29.979289321881346,6.807142857142857L30.19357503616706,6.5928571428571425L30.62214646473849,6.5928571428571425L30.836432179024204,6.378571428571428L31.26500360759563,6.378571428571428L31.479289321881346,6.164285714285715L31.907860750452773,6.164285714285715L32.3364321790242,5.735714285714286L32.550717893309915,5.735714285714286z" stroke="none"/><path d="M45.622146464738485,5.95L46.050717893309915,5.521428571428571L46.479289321881346,5.521428571428571L46.69357503616706,5.307142857142857L46.90786075045277,5.307142857142857L47.76500360759563,4.45L48,4.45L48,4.55L47.80642496383294,4.55L46.94928210669008,5.407142857142857L46.73499639240437,5.407142857142857L46.520710678118654,5.621428571428571L46.09213924954722,5.621428571428571L45.66356782097579,6.05L44.40714285714285,6.05L44.40714285714285,6.19357503616706L44.59213924954722,6.378571428571428L44.76500360759563,6.378571428571428L44.979289321881346,6.164285714285715L47.3364321790242,6.164285714285715L47.550717893309915,5.95L47.979289321881346,5.95L48.19357503616706,5.735714285714286L48.622146464738485,5.735714285714286L48.8364321790242,5.521428571428571L49.69357503616706,5.521428571428571L50.76500360759563,4.45L51,4.45L51,4.55L50.80642496383294,4.55L49.73499639240437,5.621428571428571L48.87785353526151,5.621428571428571L48.66356782097579,5.835714285714285L48.23499639240437,5.835714285714285L48.020710678118654,6.05L47.59213924954722,6.05L47.37785353526151,6.264285714285714L45.020710678118654,6.264285714285714L44.80642496383294,6.478571428571428L44.550717893309915,6.478571428571428L44.30714285714286,6.234996392404369L44.30714285714286,6.05L43.09213924954722,6.05L42.87785353526151,6.264285714285714L42.66356782097579,6.264285714285714L42.449282106690085,6.478571428571428L37.949282106690085,6.478571428571428L36.87785353526151,7.55L36.66356782097579,7.55L36.23499639240437,7.978571428571428L36.020710678118654,7.978571428571428L35.59213924954722,8.407142857142858L35.37785353526151,8.407142857142858L34.73499639240437,9.05L34.5,9.05L34.5,8.95L34.69357503616706,8.95L35.3364321790242,8.307142857142857L35.550717893309915,8.307142857142857L35.979289321881346,7.878571428571428L36.19357503616706,7.878571428571428L36.622146464738485,7.45L36.8364321790242,7.45L37.90786075045278,6.378571428571428L42.40786075045278,6.378571428571428L42.622146464738485,6.164285714285715L42.8364321790242,6.164285714285715L43.050717893309915,5.95z" stroke="none"/><path d="M100.0507178933099,10.45L101.5507178933099,8.95L101.99999999999999,8.95L101.99999999999999,9.05L101.59213924954722,9.05L100.09213924954722,10.55L78.47857142857141,10.55L78.47857142857141,10.73499639240437L78.23499639240437,10.978571428571428L66.6635678209758,10.978571428571428L66.23499639240437,11.407142857142858L65.80642496383294,11.407142857142858L65.59213924954722,11.62142857142857L64.52071067811865,11.62142857142857L64.30642496383294,11.835714285714285L64.09213924954723,11.835714285714285L63.87785353526151,12.05L63,12.05L63,11.95L63.8364321790242,11.95L64.05071789330991,11.735714285714284L64.26500360759562,11.735714285714284L64.47928932188132,11.521428571428569L65.5507178933099,11.521428571428569L65.76500360759562,11.307142857142857L66.19357503616705,11.307142857142857L66.62214646473848,10.878571428571426L78.19357503616705,10.878571428571426L78.37857142857142,10.693575036167061L78.37857142857142,10.55L70.49999999999999,10.55L70.49999999999999,10.45z" stroke="none"/><path d="M86.94999999999999,7.45L86.94999999999999,7.265003607595631L87.19357503616705,7.021428571428571L93.83643217902419,7.021428571428571L94.47928932188132,6.378571428571428L94.69357503616705,6.378571428571428L94.90786075045276,6.164285714285715L95.12214646473846,6.164285714285715L95.5507178933099,5.735714285714286L99.66356782097579,5.735714285714286L99.87785353526151,5.95L101.99999999999999,5.95L101.99999999999999,6.05L99.83643217902419,6.05L99.62214646473846,5.835714285714285L95.59213924954722,5.835714285714285L95.16356782097579,6.264285714285714L94.94928210669008,6.264285714285714L94.73499639240437,6.478571428571428L94.52071067811865,6.478571428571428L93.87785353526151,7.121428571428571L87.23499639240437,7.121428571428571L87.04999999999998,7.30642496383294L87.04999999999998,7.45L94.26500360759562,7.45L95.76500360759562,5.95L95.99999999999999,5.95L95.99999999999999,6.05L95.80642496383294,6.05L94.30642496383294,7.55L69.87785353526151,7.55L69.44928210669008,7.978571428571428L68.37785353526151,7.978571428571428L67.94928210669008,8.407142857142858L67.30642496383294,8.407142857142858L66.87785353526151,8.835714285714285L66.6635678209758,8.835714285714285L66.44928210669008,9.05L66.23499639240437,9.05L65.80642496383294,9.478571428571428L65.37785353526151,9.478571428571428L64.94928210669008,9.907142857142858L64.30642496383294,9.907142857142858L64.09213924954723,10.12142857142857L63.44928210669008,10.12142857142857L63.03535533905933,10.535355339059327L62.96464466094067,10.464644660940673L63.40786075045277,10.021428571428569L64.05071789330991,10.021428571428569L64.26500360759562,9.807142857142857L64.90786075045276,9.807142857142857L65.33643217902419,9.378571428571426L65.76500360759562,9.378571428571426L66.19357503616705,8.95L66.40786075045276,8.95L66.62214646473848,8.735714285714284L66.83643217902419,8.735714285714284L67.26500360759562,8.307142857142857L67.90786075045276,8.307142857142857L68.33643217902419,7.878571428571428L69.40786075045276,7.878571428571428L69.83643217902419,7.45z" stroke="none"/><path d="M68.52142857142856,8.979289321881346L68.52142857142856,8.76500360759563L68.76500360759562,8.521428571428569L93.40786075045276,8.521428571428569L93.62214646473846,8.307142857142857L94.26500360759562,8.307142857142857L94.69357503616705,7.878571428571428L94.90786075045276,7.878571428571428L95.33643217902419,7.45L100.26500360759562,7.45L100.47928932188132,7.235714285714286L100.69357503616705,7.235714285714286L100.90786075045276,7.021428571428571L101.5507178933099,7.021428571428571L101.97928932188132,6.5928571428571425L102.19357503616705,6.5928571428571425L102.37857142857142,6.407860750452773L102.37857142857142,5.592139249547226L102.19357503616705,5.407142857142857L52.520710678118654,5.407142857142857L52.30642496383294,5.621428571428571L51.87785353526151,5.621428571428571L51.020710678118654,6.478571428571428L50.80642496383294,6.478571428571428L50.59213924954722,6.692857142857142L50.37785353526151,6.692857142857142L49.53535533905933,7.535355339059327L49.46464466094067,7.464644660940673L50.3364321790242,6.5928571428571425L50.550717893309915,6.5928571428571425L50.76500360759563,6.378571428571428L50.979289321881346,6.378571428571428L51.8364321790242,5.521428571428571L52.26500360759563,5.521428571428571L52.479289321881346,5.307142857142857L102.23499639240437,5.307142857142857L102.47857142857141,5.550717893309916L102.47857142857141,6.449282106690083L102.23499639240437,6.692857142857142L102.02071067811865,6.692857142857142L101.59213924954722,7.121428571428571L100.94928210669008,7.121428571428571L100.73499639240437,7.335714285714285L100.52071067811865,7.335714285714285L100.30642496383294,7.55L95.37785353526151,7.55L94.94928210669008,7.978571428571428L94.73499639240437,7.978571428571428L94.30642496383294,8.407142857142858L93.66356782097579,8.407142857142858L93.44928210669008,8.62142857142857L68.80642496383294,8.62142857142857L68.62142857142855,8.806424963832939L68.62142857142855,8.95L83.99999999999999,8.95L83.99999999999999,9.05L68.62142857142855,9.05L68.62142857142855,9.449282106690081L67.94928210669008,10.12142857142857L67.52071067811865,10.12142857142857L67.30642496383294,10.335714285714285L65.80642496383294,10.335714285714285L65.59213924954722,10.55L65.1635678209758,10.55L64.73499639240437,10.978571428571428L64.30642496383294,10.978571428571428L64.09213924954723,11.192857142857143L63.44928210669008,11.192857142857143L63.23499639240437,11.407142857142858L62.80642496383294,11.407142857142858L62.62142857142857,11.592139249547223L62.62142857142857,12.407860750452773L62.80642496383294,12.592857142857142L69.83643217902419,12.592857142857142L70.0507178933099,12.378571428571426L70.26500360759562,12.378571428571426L70.47928932188132,12.164285714285715L70.69357503616705,12.164285714285715L70.90786075045276,11.95L71.99999999999999,11.95L71.99999999999999,12.05L70.94928210669008,12.05L70.73499639240437,12.264285714285716L70.52071067811865,12.264285714285716L70.30642496383294,12.478571428571428L70.09213924954722,12.478571428571428L69.87785353526151,12.692857142857143L62.76500360759563,12.692857142857143L62.52142857142857,12.449282106690081L62.52142857142857,11.550717893309915L62.76500360759563,11.307142857142857L63.19357503616706,11.307142857142857L63.40786075045277,11.092857142857142L64.05071789330991,11.092857142857142L64.26500360759562,10.878571428571426L64.69357503616705,10.878571428571426L65.12214646473848,10.45L65.5507178933099,10.45L65.76500360759562,10.235714285714284L67.26500360759562,10.235714285714284L67.47928932188132,10.021428571428569L67.90786075045276,10.021428571428569L68.52142857142856,9.407860750452773L68.52142857142856,9.120710678118655L68.37785353526151,9.264285714285716L68.1635678209758,9.264285714285716L67.52071067811865,9.907142857142858L67.09213924954722,9.907142857142858L66.87785353526151,10.12142857142857L65.59213924954722,10.12142857142857L65.37785353526151,10.335714285714285L64.94928210669008,10.335714285714285L64.52071067811865,10.764285714285716L64.09213924954723,10.764285714285716L63.87785353526151,10.978571428571428L62.550717893309915,10.978571428571428L62.30714285714286,10.73499639240437L62.30714285714286,10.26500360759563L64.26500360759562,8.307142857142857L64.90786075045276,8.307142857142857L65.12214646473848,8.092857142857142L67.26500360759562,8.092857142857142L67.47928932188132,7.878571428571428L67.90786075045276,7.878571428571428L68.12214646473848,7.664285714285715L68.76500360759562,7.664285714285715L68.96464466094066,7.464644660940673L69.03535533905931,7.535355339059327L68.80642496383294,7.764285714285714L68.1635678209758,7.764285714285714L67.94928210669008,7.978571428571428L67.52071067811865,7.978571428571428L67.30642496383294,8.192857142857143L65.1635678209758,8.192857142857143L64.94928210669008,8.407142857142858L64.30642496383294,8.407142857142858L62.40714285714285,10.306424963832939L62.40714285714285,10.693575036167061L62.59213924954722,10.878571428571426L63.8364321790242,10.878571428571426L64.05071789330991,10.664285714285715L64.47928932188132,10.664285714285715L64.90786075045276,10.235714285714284L65.33643217902419,10.235714285714284L65.5507178933099,10.021428571428569L66.83643217902419,10.021428571428569L67.0507178933099,9.807142857142857L67.47928932188132,9.807142857142857L68.12214646473848,9.164285714285715L68.33643217902419,9.164285714285715z" stroke="none"/><path d="M48.87785353526151,7.664285714285715L49.09213924954722,7.878571428571428L54.40786075045277,7.878571428571428L54.622146464738485,7.664285714285715L55.050717893309915,7.664285714285715L55.26500360759563,7.45L55.5,7.45L55.5,7.55L55.30642496383294,7.55L55.09213924954722,7.764285714285714L54.66356782097579,7.764285714285714L54.44928210669008,7.978571428571428L49.050717893309915,7.978571428571428L48.8364321790242,7.764285714285714L45.26428571428571,7.764285714285714L45.26428571428571,7.907860750452773L45.449282106690085,8.092857142857142L57.66356782097579,8.092857142857142L57.87785353526151,8.307142857142857L58.520710678118654,8.307142857142857L58.94928210669008,8.735714285714284L59.59213924954722,8.735714285714284L59.80642496383294,8.95L60,8.95L60,9.05L59.76500360759563,9.05L59.550717893309915,8.835714285714285L58.90786075045277,8.835714285714285L58.479289321881346,8.407142857142858L57.8364321790242,8.407142857142858L57.622146464738485,8.192857142857143L45.40786075045278,8.192857142857143L45.16428571428572,7.949282106690083L45.16428571428572,7.834996392404369L45.020710678118654,7.978571428571428L44.80642496383294,7.978571428571428L44.37785353526151,8.407142857142858L44.16356782097579,8.407142857142858L43.53535533905933,9.035355339059327L43.46464466094067,8.964644660940673L44.122146464738485,8.307142857142857L44.3364321790242,8.307142857142857L44.76500360759563,7.878571428571428L44.979289321881346,7.878571428571428L45.09357503616706,7.764285714285714L37.520710678118654,7.764285714285714L37.30642496383294,7.978571428571428L37.09213924954722,7.978571428571428L36.87785353526151,8.192857142857143L36.66356782097579,8.192857142857143L36.23499639240437,8.62142857142857L36.020710678118654,8.62142857142857L35.59213924954722,9.05L35.37785353526151,9.05L34.949282106690085,9.478571428571428L29.76500360759563,9.478571428571428L29.550717893309915,9.264285714285716L28.69357503616706,9.264285714285716L28.479289321881346,9.05L28.050717893309915,9.05L27.407860750452773,8.407142857142858L26.979289321881346,8.407142857142858L26.09285714285714,7.520710678118655L26.09285714285714,7.30642496383294L25.907860750452773,7.121428571428571L23.76500360759563,7.121428571428571L23.12214646473849,6.478571428571428L22.907860750452773,6.478571428571428L22.46464466094067,6.035355339059327L22.53535533905933,5.964644660940673L22.94928210669008,6.378571428571428L23.163567820975796,6.378571428571428L23.80642496383294,7.021428571428571L25.94928210669008,7.021428571428571L26.192857142857143,7.265003607595631L26.192857142857143,7.479289321881345L27.020710678118654,8.307142857142857L27.44928210669008,8.307142857142857L28.092139249547223,8.95L28.520710678118654,8.95L28.73499639240437,9.164285714285715L29.592139249547223,9.164285714285715L29.80642496383294,9.378571428571426L34.90786075045278,9.378571428571426L35.3364321790242,8.95L35.550717893309915,8.95L35.979289321881346,8.521428571428569L36.19357503616706,8.521428571428569L36.622146464738485,8.092857142857142L36.8364321790242,8.092857142857142L37.050717893309915,7.878571428571428L37.26500360759563,7.878571428571428L37.479289321881346,7.664285714285715z" stroke="none"/><path d="M18.164285714285715,10.021428571428569L18.164285714285715,9.836432179024204L18.407860750452773,9.592857142857142L18.62214646473849,9.592857142857142L18.836432179024204,9.378571428571426L19.05071789330992,9.378571428571426L19.26500360759563,9.164285714285715L21.62214646473849,9.164285714285715L21.836432179024204,8.95L22.26500360759563,8.95L22.479289321881346,8.735714285714284L22.69357503616706,8.735714285714284L22.907860750452773,8.521428571428569L23.76500360759563,8.521428571428569L24.19357503616706,8.092857142857142L24.407860750452773,8.092857142857142L24.836432179024204,7.664285714285715L25.26500360759563,7.664285714285715L25.46464466094067,7.464644660940673L25.53535533905933,7.535355339059327L25.30642496383294,7.764285714285714L24.87785353526151,7.764285714285714L24.44928210669008,8.192857142857143L24.23499639240437,8.192857142857143L23.80642496383294,8.62142857142857L22.94928210669008,8.62142857142857L22.73499639240437,8.835714285714285L22.520710678118654,8.835714285714285L22.30642496383294,9.05L21.87785353526151,9.05L21.663567820975796,9.264285714285716L19.30642496383294,9.264285714285716L19.092139249547227,9.478571428571428L18.87785353526151,9.478571428571428L18.663567820975796,9.692857142857143L18.44928210669008,9.692857142857143L18.264285714285716,9.877853535261512L18.264285714285716,10.021428571428569L23.76500360759563,10.021428571428569L24.19357503616706,9.592857142857142L24.62214646473849,9.592857142857142L25.26500360759563,8.95L25.5,8.95L25.5,9.05L25.30642496383294,9.05L24.663567820975796,9.692857142857143L24.23499639240437,9.692857142857143L23.80642496383294,10.12142857142857L18.33499639240437,10.12142857142857L18.90714285714286,10.693575036167061L18.90714285714286,10.907860750452773L19.335714285714285,11.336432179024204L19.335714285714285,11.76500360759563L19.53535533905933,11.964644660940673L19.46464466094067,12.035355339059327L19.235714285714284,11.806424963832939L19.235714285714284,11.377853535261512L18.807142857142857,10.949282106690081L18.807142857142857,10.73499639240437L18.19357503616706,10.12142857142857L9.663567820975796,10.12142857142857L9.449282106690081,10.335714285714285L7.734996392404369,10.335714285714285L7.520710678118655,10.55L7.092139249547226,10.55L6.663567820975797,10.978571428571428L5.80642496383294,10.978571428571428L5.592139249547226,11.192857142857143L4.949282106690084,11.192857142857143L4.734996392404369,11.407142857142858L4.520710678118655,11.407142857142858L4.30642496383294,11.62142857142857L3.6635678209757976,11.62142857142857L3.234996392404369,12.05L3,12.05L3,11.95L3.1935750361670596,11.95L3.622146464738488,11.521428571428569L4.265003607595631,11.521428571428569L4.479289321881345,11.307142857142857L4.69357503616706,11.307142857142857L4.907860750452774,11.092857142857142L5.550717893309916,11.092857142857142L5.765003607595631,10.878571428571426L6.622146464738488,10.878571428571426L7.050717893309916,10.45L7.479289321881345,10.45L7.69357503616706,10.235714285714284L9.407860750452773,10.235714285714284L9.622146464738488,10.021428571428569z" stroke="none"/><path d="M32.95,10.664285714285715L32.95,10.479289321881346L33.19357503616706,10.235714285714284L41.979289321881346,10.235714285714284L42.8364321790242,9.378571428571426L43.90786075045278,9.378571428571426L44.122146464738485,9.164285714285715L44.76500360759563,9.164285714285715L44.96464466094067,8.964644660940673L45.03535533905933,9.035355339059327L44.80642496383294,9.264285714285716L44.16356782097579,9.264285714285716L43.949282106690085,9.478571428571428L42.87785353526151,9.478571428571428L42.020710678118654,10.335714285714285L33.23499639240437,10.335714285714285L33.05,10.520710678118654L33.05,10.664285714285715L33.23499639240437,10.664285714285715L33.449282106690085,10.878571428571426L33.87785353526151,10.878571428571426L34.09213924954722,11.092857142857142L35.16356782097579,11.092857142857142L35.37785353526151,11.307142857142857L36.449282106690085,11.307142857142857L36.66356782097579,11.521428571428569L36.87785353526151,11.521428571428569L37.30642496383294,11.95L37.5,11.95L37.5,12.05L37.26500360759563,12.05L36.8364321790242,11.62142857142857L36.622146464738485,11.62142857142857L36.40786075045278,11.407142857142858L35.3364321790242,11.407142857142858L35.122146464738485,11.192857142857143L34.050717893309915,11.192857142857143L33.8364321790242,10.978571428571428L33.40786075045278,10.978571428571428L33.19357503616706,10.764285714285716L33.05,10.764285714285716L33.05,10.907860750452773L33.23499639240437,11.092857142857142L33.66356782097579,11.092857142857142L33.87785353526151,11.307142857142857L34.949282106690085,11.307142857142857L35.16356782097579,11.521428571428569L36.23499639240437,11.521428571428569L36.449282106690085,11.735714285714284L36.66356782097579,11.735714285714284L37.09213924954722,12.164285714285715L38.76500360759563,12.164285714285715L38.96464466094067,11.964644660940673L39.03535533905933,12.035355339059327L38.80642496383294,12.264285714285716L37.050717893309915,12.264285714285716L36.622146464738485,11.835714285714285L36.40786075045278,11.835714285714285L36.19357503616706,11.62142857142857L35.122146464738485,11.62142857142857L34.90786075045278,11.407142857142858L33.8364321790242,11.407142857142858L33.622146464738485,11.192857142857143L33.19357503616706,11.192857142857143L32.95,10.949282106690081L32.95,10.764285714285716L22.73499639240437,10.764285714285716L22.520710678118654,10.978571428571428L22.092139249547227,10.978571428571428L21.663567820975796,11.407142857142858L21.23499639240437,11.407142857142858L20.37785353526151,12.264285714285716L20.163567820975796,12.264285714285716L19.94928210669008,12.478571428571428L12.622146464738488,12.478571428571428L10.693575036167061,10.55L10.5,10.55L10.5,10.45L10.73499639240437,10.45L12.663567820975796,12.378571428571426L19.907860750452773,12.378571428571426L20.12214646473849,12.164285714285715L20.336432179024204,12.164285714285715L21.19357503616706,11.307142857142857L21.62214646473849,11.307142857142857L22.05071789330992,10.878571428571426L22.479289321881346,10.878571428571426L22.69357503616706,10.664285714285715z" stroke="none"/><path d="M70.49999999999999,2.95L70.49999999999999,3.05L68.99999999999999,3.05L68.99999999999999,2.95z" stroke="none"/><path d="M38.96464466094067,4.535355339059327L39.03535533905933,4.464644660940673L40.53535533905933,5.964644660940673L40.46464466094067,6.035355339059327z" stroke="none"/><path d="M49.46464466094067,10.535355339059327L49.53535533905933,10.464644660940673L51.03535533905933,11.964644660940673L50.96464466094067,12.035355339059327z" stroke="none"/><path d="M30,7.45L30,7.55L29.37785353526151,7.55L28.94928210669008,7.978571428571428L27.62214646473849,7.978571428571428L27.19357503616706,7.55L27,7.55L27,7.45L27.23499639240437,7.45L27.663567820975796,7.878571428571428L28.907860750452773,7.878571428571428L29.336432179024204,7.45z" stroke="none"/><path d="M48.03535533905933,11.964644660940673L47.96464466094067,12.035355339059327L47.73571428571429,11.806424963832939L47.73571428571429,11.377853535261512L47.30714285714286,10.949282106690081L47.30714285714286,10.73499639240437L46.878571428571426,10.306424963832939L46.878571428571426,9.877853535261512L46.66428571428572,9.663567820975796L46.66428571428572,9.23499639240437L46.46464466094067,9.035355339059327L46.53535533905933,8.964644660940673L46.76428571428571,9.193575036167061L46.76428571428571,9.622146464738488L46.97857142857142,9.836432179024204L46.97857142857142,10.26500360759563L47.40714285714285,10.693575036167061L47.40714285714285,10.907860750452773L47.83571428571428,11.336432179024204L47.83571428571428,11.76500360759563z" stroke="none"/><path d="M12.035355339059327,6.035355339059327L11.964644660940673,5.964644660940673L13.021428571428569,4.907860750452774L13.021428571428569,4.479289321881345L13.235714285714284,4.265003607595631L13.235714285714284,3.8364321790242024L13.45,3.622146464738488L13.45,3L13.55,3L13.55,3.6635678209757976L13.335714285714285,3.877853535261512L13.335714285714285,4.30642496383294L13.12142857142857,4.520710678118655L13.12142857142857,4.949282106690084z" stroke="none"/><path d="M91.49999999999999,12.05L91.49999999999999,11.95L95.99999999999999,11.95L95.99999999999999,12.05z" stroke="none"/><path d="M9,5.95L9,6.05L7.69357503616706,6.05L7.050717893309916,5.407142857142857L6.407860750452773,5.407142857142857L5.765003607595631,4.764285714285714L5.550717893309916,4.764285714285714L5.336432179024202,4.55L4.5,4.55L4.5,4.45L5.3778535352615116,4.45L5.592139249547226,4.664285714285715L5.80642496383294,4.664285714285715L6.449282106690083,5.307142857142857L7.092139249547226,5.307142857142857L7.734996392404369,5.95z" stroke="none"/><path d="M7.464644660940673,4.535355339059327L7.535355339059327,4.464644660940673L7.734996392404369,4.664285714285715L7.949282106690083,4.664285714285715L8.592139249547223,5.307142857142857L9.23499639240437,5.307142857142857L9.478571428571428,5.550717893309916L9.478571428571428,6.449282106690083L7.949282106690083,7.978571428571428L7.734996392404369,7.978571428571428L7.092139249547226,8.62142857142857L6.663567820975797,8.62142857142857L6.234996392404369,9.05L6,9.05L6,8.95L6.19357503616706,8.95L6.622146464738488,8.521428571428569L7.050717893309916,8.521428571428569L7.69357503616706,7.878571428571428L7.907860750452773,7.878571428571428L9.378571428571426,6.407860750452773L9.378571428571426,5.592139249547226L9.193575036167061,5.407142857142857L8.550717893309915,5.407142857142857L7.907860750452773,4.764285714285714L7.69357503616706,4.764285714285714z" stroke="none"/><path d="M74.99999999999999,5.95L74.99999999999999,6.05L68.59213924954722,6.05L68.37785353526151,6.264285714285714L67.94928210669008,6.264285714285714L67.52071067811865,6.692857142857142L67.09213924954722,6.692857142857142L66.6635678209758,7.121428571428571L66.02071067811865,7.121428571428571L65.80642496383294,7.335714285714285L65.59213924954722,7.335714285714285L65.37785353526151,7.55L65.1635678209758,7.55L64.94928210669008,7.764285714285714L64.73499639240437,7.764285714285714L64.30642496383294,8.192857142857143L64.09213924954723,8.192857142857143L62.192857142857136,10.092139249547223L62.192857142857136,12.193575036167061L62.40714285714285,12.407860750452773L62.40714285714285,12.622146464738488L62.59213924954722,12.807142857142857L95.12214646473846,12.807142857142857L95.33643217902419,12.592857142857142L96.40786075045276,12.592857142857142L96.62214646473846,12.378571428571426L97.47928932188132,12.378571428571426L97.69357503616705,12.164285714285715L98.12214646473846,12.164285714285715L98.33643217902419,11.95L98.5507178933099,11.95L98.97928932188132,11.521428571428569L99.40786075045276,11.521428571428569L99.62214646473846,11.307142857142857L100.0507178933099,11.307142857142857L100.69357503616705,10.664285714285715L100.90786075045276,10.664285714285715L101.76500360759562,9.807142857142857L101.97928932188132,9.807142857142857L102.37857142857142,9.407860750452773L102.37857142857142,7.69357503616706L102.59285714285713,7.479289321881345L102.59285714285713,5.3778535352615116L102.40786075045276,5.192857142857142L80.5507178933099,5.192857142857142L80.12214646473848,4.764285714285714L79.90786075045276,4.764285714285714L79.69357503616705,4.55L79.49999999999999,4.55L79.49999999999999,4.45L79.73499639240437,4.45L79.94928210669008,4.664285714285715L80.1635678209758,4.664285714285715L80.59213924954722,5.0928571428571425L102.44928210669008,5.0928571428571425L102.69285714285712,5.336432179024202L102.69285714285712,7.520710678118655L102.47857142857141,7.734996392404369L102.47857142857141,9.449282106690081L102.02071067811865,9.907142857142858L101.80642496383294,9.907142857142858L100.94928210669008,10.764285714285716L100.73499639240437,10.764285714285716L100.09213924954722,11.407142857142858L99.66356782097579,11.407142857142858L99.44928210669008,11.62142857142857L99.02071067811865,11.62142857142857L98.59213924954722,12.05L98.37785353526151,12.05L98.16356782097579,12.264285714285716L97.73499639240437,12.264285714285716L97.52071067811865,12.478571428571428L96.66356782097579,12.478571428571428L96.44928210669008,12.692857142857143L95.37785353526151,12.692857142857143L95.16356782097579,12.907142857142858L62.550717893309915,12.907142857142858L62.30714285714286,12.663567820975796L62.30714285714286,12.449282106690081L62.09285714285714,12.23499639240437L62.09285714285714,10.050717893309915L64.05071789330991,8.092857142857142L64.26500360759562,8.092857142857142L64.69357503616705,7.664285714285715L64.90786075045276,7.664285714285715L65.12214646473848,7.45L65.33643217902419,7.45L65.5507178933099,7.235714285714286L65.76500360759562,7.235714285714286L65.97928932188132,7.021428571428571L66.62214646473848,7.021428571428571L67.0507178933099,6.5928571428571425L67.47928932188132,6.5928571428571425L67.90786075045276,6.164285714285715L68.33643217902419,6.164285714285715L68.5507178933099,5.95z" stroke="none"/><path d="M7.5,11.95L7.5,12.05L4.092139249547226,12.05L3.6635678209757976,12.478571428571428L2.550717893309917,12.478571428571428L2.3071428571428574,12.23499639240437L2.3071428571428574,10.26500360759563L2.521428571428572,10.050717893309915L2.521428571428572,9.622146464738488L2.95,9.193575036167061L2.95,9L3.05,9L3.05,9.23499639240437L2.6214285714285714,9.663567820975796L2.6214285714285714,10.092139249547223L2.407142857142857,10.306424963832939L2.407142857142857,12.193575036167061L2.5921392495472264,12.378571428571426L3.622146464738488,12.378571428571426L4.050717893309916,11.95z" stroke="none"/><path d="M61.5,10.45L61.5,10.55L61.30642496383294,10.55L61.09213924954722,10.764285714285716L60.66356782097579,10.764285714285716L60.23499639240437,11.192857142857143L59.16356782097579,11.192857142857143L58.94928210669008,11.407142857142858L57.87785353526151,11.407142857142858L57.66356782097579,11.62142857142857L57.23499639240437,11.62142857142857L56.80642496383294,12.05L55.5,12.05L55.5,11.95L56.76500360759563,11.95L57.19357503616706,11.521428571428569L57.622146464738485,11.521428571428569L57.8364321790242,11.307142857142857L58.90786075045277,11.307142857142857L59.122146464738485,11.092857142857142L60.19357503616706,11.092857142857142L60.622146464738485,10.664285714285715L61.050717893309915,10.664285714285715L61.26500360759563,10.45z" stroke="none"/><path d="M89.99999999999999,5.95L89.99999999999999,6.05L88.69357503616705,6.05L88.47928932188132,5.835714285714285L87.83643217902419,5.835714285714285L87.62214646473848,5.621428571428571L83.59213924954722,5.621428571428571L83.37785353526151,5.835714285714285L82.94928210669008,5.835714285714285L82.73499639240437,6.05L82.49999999999999,6.05L82.49999999999999,5.95L82.69357503616705,5.95L82.90786075045276,5.735714285714286L83.33643217902419,5.735714285714286L83.5507178933099,5.521428571428571L87.6635678209758,5.521428571428571L87.87785353526151,5.735714285714286L88.52071067811865,5.735714285714286L88.73499639240437,5.95z" stroke="none"/><path d="M30,4.45L30,4.55L28.092139249547223,4.55L27.87785353526151,4.764285714285714L27.663567820975796,4.764285714285714L27.44928210669008,4.978571428571429L23.163567820975796,4.978571428571429L22.94928210669008,5.192857142857142L22.520710678118654,5.192857142857142L22.121428571428574,5.592139249547226L22.121428571428574,6.836432179024202L22.55,7.265003607595631L22.55,7.5L22.45,7.5L22.45,7.30642496383294L22.021428571428572,6.8778535352615116L22.021428571428572,5.550717893309916L22.479289321881346,5.0928571428571425L22.907860750452773,5.0928571428571425L23.12214646473849,4.878571428571429L27.407860750452773,4.878571428571429L27.62214646473849,4.664285714285715L27.836432179024204,4.664285714285715L28.050717893309915,4.45z" stroke="none"/><path d="M10.464644660940673,11.964644660940673L10.535355339059327,12.035355339059327L10.306424963832939,12.264285714285716L9.663567820975796,12.264285714285716L9.449282106690081,12.478571428571428L4.092139249547226,12.478571428571428L3.877853535261512,12.692857142857143L2.3364321790242024,12.692857142857143L2.092857142857143,12.449282106690081L2.092857142857143,9.836432179024204L2.3071428571428574,9.622146464738488L2.3071428571428574,8.76500360759563L2.7357142857142858,8.336432179024204L2.7357142857142858,8.122146464738488L2.95,7.907860750452773L2.95,7.5L3.05,7.5L3.05,7.949282106690083L2.8357142857142854,8.163567820975796L2.8357142857142854,8.377853535261512L2.407142857142857,8.806424963832939L2.407142857142857,9.663567820975796L2.1928571428571426,9.877853535261512L2.1928571428571426,12.407860750452773L2.377853535261512,12.592857142857142L3.8364321790242024,12.592857142857142L4.050717893309916,12.378571428571426L9.407860750452773,12.378571428571426L9.622146464738488,12.164285714285715L10.26500360759563,12.164285714285715z" stroke="none"/><path d="M15,7.45L15,7.55L14.550717893309915,7.55L14.122146464738488,7.121428571428571L13.907860750452773,7.121428571428571L13.693575036167061,6.907142857142857L12.193575036167061,6.907142857142857L11.979289321881346,6.692857142857142L11.76500360759563,6.692857142857142L10.907860750452773,5.835714285714285L10.693575036167061,5.835714285714285L10.26500360759563,5.407142857142857L10.050717893309915,5.407142857142857L7.907860750452773,3.2642857142857142L7.69357503616706,3.2642857142857142L7.464644660940673,3.0353553390593273L7.535355339059327,2.9646446609406727L7.734996392404369,3.1642857142857146L7.949282106690083,3.1642857142857146L10.092139249547223,5.307142857142857L10.306424963832939,5.307142857142857L10.73499639240437,5.735714285714286L10.949282106690081,5.735714285714286L11.806424963832939,6.5928571428571425L12.020710678118654,6.5928571428571425L12.23499639240437,6.807142857142857L13.73499639240437,6.807142857142857L13.949282106690081,7.021428571428571L14.163567820975796,7.021428571428571L14.592139249547223,7.45z" stroke="none"/><path d="M10.5,4.55L10.5,4.45L10.693575036167061,4.45L11.979289321881346,3.1642857142857146L12.193575036167061,3.1642857142857146L12.407860750452773,2.95L12.622146464738488,2.95L13.050717893309915,2.521428571428572L18.663567820975796,2.521428571428572L18.87785353526151,2.7357142857142858L19.092139249547227,2.7357142857142858L19.30642496383294,2.95L19.5,2.95L19.5,3.05L19.26500360759563,3.05L19.05071789330992,2.8357142857142854L18.836432179024204,2.8357142857142854L18.62214646473849,2.6214285714285714L13.092139249547223,2.6214285714285714L12.663567820975796,3.05L12.449282106690081,3.05L12.23499639240437,3.2642857142857142L12.020710678118654,3.2642857142857142L10.73499639240437,4.55z" stroke="none"/><path d="M86.99999999999999,5.95L86.99999999999999,6.05L83.37785353526151,6.05L82.94928210669008,6.478571428571428L78.40786075045276,6.478571428571428L78.19357503616705,6.264285714285714L77.76500360759562,6.264285714285714L77.5507178933099,6.05L77.33643217902419,6.05L77.12214646473848,5.835714285714285L76.90786075045276,5.835714285714285L76.69357503616705,5.621428571428571L67.52071067811865,5.621428571428571L67.09213924954722,6.05L66.6635678209758,6.05L66.02071067811865,6.692857142857142L65.80642496383294,6.692857142857142L65.59213924954722,6.907142857142857L65.37785353526151,6.907142857142857L64.73499639240437,7.55L64.30642496383294,7.55L61.97857142857142,9.877853535261512L61.97857142857142,12.622146464738488L62.37785353526151,13.021428571428569L97.90786075045276,13.021428571428569L98.12214646473846,12.807142857142857L98.33643217902419,12.807142857142857L98.5507178933099,12.592857142857142L98.76500360759562,12.592857142857142L98.97928932188132,12.378571428571426L99.19357503616705,12.378571428571426L99.83643217902419,11.735714285714284L100.0507178933099,11.735714285714284L100.90786075045276,10.878571428571426L101.12214646473846,10.878571428571426L101.76500360759562,10.235714285714284L101.97928932188132,10.235714285714284L102.59285714285713,9.622146464738488L102.59285714285713,8.122146464738488L102.80714285714285,7.907860750452773L102.80714285714285,5.163567820975797L102.62214646473846,4.978571428571429L80.76500360759562,4.978571428571429L79.90786075045276,4.121428571428571L78.6635678209758,4.121428571428571L78.23499639240437,4.55L77.99999999999999,4.55L77.99999999999999,4.45L78.19357503616705,4.45L78.62214646473848,4.021428571428571L79.94928210669008,4.021428571428571L80.80642496383294,4.878571428571429L102.66356782097579,4.878571428571429L102.90714285714284,5.122146464738488L102.90714285714284,7.949282106690083L102.69285714285712,8.163567820975796L102.69285714285712,9.663567820975796L102.02071067811865,10.335714285714285L101.80642496383294,10.335714285714285L101.16356782097579,10.978571428571428L100.94928210669008,10.978571428571428L100.09213924954722,11.835714285714285L99.87785353526151,11.835714285714285L99.23499639240437,12.478571428571428L99.02071067811865,12.478571428571428L98.80642496383294,12.692857142857143L98.59213924954722,12.692857142857143L98.37785353526151,12.907142857142858L98.16356782097579,12.907142857142858L97.94928210669008,13.12142857142857L62.3364321790242,13.12142857142857L61.878571428571426,12.663567820975796L61.878571428571426,9.836432179024204L64.26500360759562,7.45L64.69357503616705,7.45L65.33643217902419,6.807142857142857L65.5507178933099,6.807142857142857L65.76500360759562,6.5928571428571425L65.97928932188132,6.5928571428571425L66.62214646473848,5.95L67.0507178933099,5.95L67.47928932188132,5.521428571428571L76.73499639240437,5.521428571428571L76.94928210669008,5.735714285714286L77.1635678209758,5.735714285714286L77.37785353526151,5.95L77.59213924954722,5.95L77.80642496383294,6.164285714285715L78.23499639240437,6.164285714285715L78.44928210669008,6.378571428571428L82.90786075045276,6.378571428571428L83.33643217902419,5.95z" stroke="none"/><path d="M18.03535533905933,9.035355339059327L17.96464466094067,8.964644660940673L19.26500360759563,7.664285714285715L19.907860750452773,7.664285714285715L20.979289321881346,6.5928571428571425L21.19357503616706,6.5928571428571425L21.378571428571426,6.407860750452773L21.378571428571426,5.979289321881345L21.807142857142857,5.550717893309916L21.807142857142857,5.336432179024202L22.26500360759563,4.878571428571429L22.479289321881346,4.878571428571429L22.69357503616706,4.664285714285715L25.69357503616706,4.664285714285715L25.907860750452773,4.45L27,4.45L27,4.55L25.94928210669008,4.55L25.73499639240437,4.764285714285714L22.73499639240437,4.764285714285714L22.520710678118654,4.978571428571429L22.30642496383294,4.978571428571429L21.90714285714286,5.3778535352615116L21.90714285714286,5.592139249547226L21.478571428571428,6.020710678118655L21.478571428571428,6.449282106690083L21.23499639240437,6.692857142857142L21.020710678118654,6.692857142857142L19.94928210669008,7.764285714285714L19.30642496383294,7.764285714285714z" stroke="none"/><path d="M100.49999999999999,2.95L100.49999999999999,3.05L89.99999999999999,3.05L89.99999999999999,2.95z" stroke="none"/><path d="M4.45,7.5L4.55,7.5L4.55,7.69357503616706L5.192857142857142,8.336432179024204L5.192857142857142,8.550717893309915L5.407142857142857,8.76500360759563L5.407142857142857,9.193575036167061L5.592139249547226,9.378571428571426L12.836432179024204,9.378571428571426L13.050717893309915,9.164285714285715L13.26500360759563,9.164285714285715L13.693575036167061,8.735714285714284L14.122146464738488,8.735714285714284L14.336432179024204,8.521428571428569L14.550717893309915,8.521428571428569L14.979289321881346,8.092857142857142L15.193575036167061,8.092857142857142L15.378571428571426,7.907860750452773L15.378571428571426,7.092139249547226L15.164285714285715,6.8778535352615116L15.164285714285715,6.234996392404369L14.964644660940673,6.035355339059327L15.035355339059327,5.964644660940673L15.264285714285716,6.19357503616706L15.264285714285716,6.836432179024202L15.478571428571428,7.050717893309916L15.478571428571428,7.949282106690083L15.23499639240437,8.192857142857143L15.020710678118654,8.192857142857143L14.592139249547223,8.62142857142857L14.377853535261512,8.62142857142857L14.163567820975796,8.835714285714285L13.73499639240437,8.835714285714285L13.306424963832939,9.264285714285716L13.092139249547223,9.264285714285716L12.877853535261512,9.478571428571428L5.550717893309916,9.478571428571428L5.307142857142857,9.23499639240437L5.307142857142857,8.806424963832939L5.0928571428571425,8.592139249547223L5.0928571428571425,8.377853535261512L4.45,7.734996392404369z" stroke="none"/><path d="M52.5,2.95L52.5,3.05L52.30642496383294,3.05L52.09213924954722,3.2642857142857142L51.66356782097579,3.2642857142857142L51.44928210669008,3.478571428571428L45.87785353526151,3.478571428571428L45.23499639240437,4.121428571428571L44.80642496383294,4.121428571428571L44.59213924954722,4.335714285714285L44.37785353526151,4.335714285714285L43.30642496383294,5.407142857142857L42.87785353526151,5.407142857142857L42.23499639240437,6.05L42,6.05L42,5.95L42.19357503616706,5.95L42.8364321790242,5.307142857142857L43.26500360759563,5.307142857142857L44.3364321790242,4.235714285714286L44.550717893309915,4.235714285714286L44.76500360759563,4.021428571428571L45.19357503616706,4.021428571428571L45.8364321790242,3.3785714285714286L51.40786075045277,3.3785714285714286L51.622146464738485,3.1642857142857146L52.050717893309915,3.1642857142857146L52.26500360759563,2.95z" stroke="none"/><path d="M49.5,4.55L49.5,4.45L50.122146464738485,4.45L50.550717893309915,4.021428571428571L76.26500360759562,4.021428571428571L76.47928932188132,3.8071428571428574L100.94928210669008,3.8071428571428574L101.16356782097579,4.021428571428571L101.37785353526151,4.021428571428571L101.59213924954722,4.235714285714286L102.44928210669008,4.235714285714286L103.12142857142855,4.907860750452774L103.12142857142855,9.663567820975796L100.73499639240437,12.05L100.30642496383294,12.05L99.66356782097579,12.692857142857143L99.44928210669008,12.692857142857143L99.23499639240437,12.907142857142858L98.80642496383294,12.907142857142858L98.37785353526151,13.335714285714285L57.19357503616706,13.335714285714285L56.76500360759563,12.907142857142858L56.3364321790242,12.907142857142858L56.122146464738485,12.692857142857143L55.26500360759563,12.692857142857143L55.02142857142857,12.449282106690081L55.02142857142857,11.550717893309915L55.26500360759563,11.307142857142857L56.76500360759563,11.307142857142857L56.979289321881346,11.092857142857142L58.479289321881346,11.092857142857142L59.3364321790242,10.235714285714284L59.550717893309915,10.235714285714284L60.378571428571426,9.407860750452773L60.378571428571426,8.979289321881346L60.59285714285714,8.76500360759563L60.59285714285714,7.907860750452773L60.80714285714286,7.69357503616706L60.80714285714286,7.479289321881345L61.02142857142857,7.265003607595631L61.02142857142857,6.836432179024202L61.23571428571429,6.622146464738488L61.23571428571429,6.407860750452773L61.45,6.19357503616706L61.45,6L61.55,6L61.55,6.234996392404369L61.33571428571428,6.449282106690083L61.33571428571428,6.663567820975797L61.12142857142857,6.8778535352615116L61.12142857142857,7.30642496383294L60.90714285714285,7.520710678118655L60.90714285714285,7.734996392404369L60.692857142857136,7.949282106690083L60.692857142857136,8.806424963832939L60.47857142857142,9.020710678118654L60.47857142857142,9.449282106690081L59.59213924954722,10.335714285714285L59.37785353526151,10.335714285714285L58.520710678118654,11.192857142857143L57.020710678118654,11.192857142857143L56.80642496383294,11.407142857142858L55.30642496383294,11.407142857142858L55.12142857142857,11.592139249547223L55.12142857142857,12.407860750452773L55.30642496383294,12.592857142857142L56.16356782097579,12.592857142857142L56.37785353526151,12.807142857142857L56.80642496383294,12.807142857142857L57.23499639240437,13.235714285714284L98.33643217902419,13.235714285714284L98.76500360759562,12.807142857142857L99.19357503616705,12.807142857142857L99.40786075045276,12.592857142857142L99.62214646473846,12.592857142857142L100.26500360759562,11.95L100.69357503616705,11.95L103.02142857142856,9.622146464738488L103.02142857142856,4.949282106690084L102.40786075045276,4.335714285714285L101.5507178933099,4.335714285714285L101.33643217902419,4.121428571428571L101.12214646473846,4.121428571428571L100.90786075045276,3.907142857142857L76.52071067811865,3.907142857142857L76.30642496383294,4.121428571428571L50.59213924954722,4.121428571428571L50.16356782097579,4.55z" stroke="none"/><path d="M33,12.05L33,11.95L33.23499639240437,11.95L33.449282106690085,12.164285714285715L33.66356782097579,12.164285714285715L33.87785353526151,12.378571428571426L48.40786075045277,12.378571428571426L48.59285714285714,12.193575036167061L48.59285714285714,11.592139249547223L48.378571428571426,11.377853535261512L48.378571428571426,11.163567820975796L48.16428571428572,10.949282106690081L48.16428571428572,10.73499639240437L47.96464466094067,10.535355339059327L48.03535533905933,10.464644660940673L48.26428571428571,10.693575036167061L48.26428571428571,10.907860750452773L48.47857142857142,11.122146464738488L48.47857142857142,11.336432179024204L48.692857142857136,11.550717893309915L48.692857142857136,12.23499639240437L48.44928210669008,12.478571428571428L33.8364321790242,12.478571428571428L33.622146464738485,12.264285714285716L33.40786075045278,12.264285714285716L33.19357503616706,12.05z" stroke="none"/><path d="M34.5,11.95L34.5,12.05L34.26500360759563,12.05L34.050717893309915,11.835714285714285L33.622146464738485,11.835714285714285L33.40786075045278,11.62142857142857L32.59213924954722,11.62142857142857L32.40714285714285,11.806424963832939L32.40714285714285,12.193575036167061L32.59213924954722,12.378571428571426L33.449282106690085,12.378571428571426L33.66356782097579,12.592857142857142L50.979289321881346,12.592857142857142L51.19357503616706,12.378571428571426L51.40786075045277,12.378571428571426L51.8364321790242,11.95L52.050717893309915,11.95L53.3364321790242,10.664285714285715L53.550717893309915,10.664285714285715L53.76500360759563,10.45L54,10.45L54,10.55L53.80642496383294,10.55L53.59213924954722,10.764285714285716L53.37785353526151,10.764285714285716L52.09213924954722,12.05L51.87785353526151,12.05L51.44928210669008,12.478571428571428L51.23499639240437,12.478571428571428L51.020710678118654,12.692857142857143L33.622146464738485,12.692857142857143L33.40786075045278,12.478571428571428L32.550717893309915,12.478571428571428L32.30714285714286,12.23499639240437L32.30714285714286,11.76500360759563L32.550717893309915,11.521428571428569L33.449282106690085,11.521428571428569L33.66356782097579,11.735714285714284L34.09213924954722,11.735714285714284L34.30642496383294,11.95z" stroke="none"/><path d="M51.03535533905933,3.0353553390593273L50.96464466094067,2.9646446609406727L51.19357503616706,2.7357142857142858L51.40786075045277,2.7357142857142858L51.622146464738485,2.521428571428572L71.1635678209758,2.521428571428572L71.37785353526151,2.7357142857142858L71.59213924954722,2.7357142857142858L71.80642496383294,2.95L71.99999999999999,2.95L71.99999999999999,3.05L71.76500360759562,3.05L71.5507178933099,2.8357142857142854L71.33643217902419,2.8357142857142854L71.12214646473848,2.6214285714285714L51.66356782097579,2.6214285714285714L51.44928210669008,2.8357142857142854L51.23499639240437,2.8357142857142854z" stroke="none"/><path d="M16.53535533905933,9.035355339059327L16.46464466094067,8.964644660940673L19.479289321881346,5.95L19.69357503616706,5.95L20.336432179024204,5.307142857142857L20.76500360759563,5.307142857142857L21.19357503616706,4.878571428571429L21.407860750452773,4.878571428571429L21.836432179024204,4.45L25.050717893309915,4.45L25.26500360759563,4.235714285714286L26.12214646473849,4.235714285714286L26.336432179024204,4.021428571428571L26.76500360759563,4.021428571428571L26.979289321881346,3.8071428571428574L29.12214646473849,3.8071428571428574L29.336432179024204,3.592857142857143L30.19357503616706,3.592857142857143L30.62214646473849,3.1642857142857146L31.479289321881346,3.1642857142857146L31.907860750452773,2.7357142857142858L33.622146464738485,2.7357142857142858L33.8364321790242,2.521428571428572L39.449282106690085,2.521428571428572L39.692857142857136,2.765003607595631L39.692857142857136,3.234996392404369L39.449282106690085,3.478571428571428L39.23499639240437,3.478571428571428L38.62142857142857,4.092139249547226L38.62142857142857,4.520710678118655L37.76428571428571,5.3778535352615116L37.76428571428571,5.80642496383294L37.53535533905933,6.035355339059327L37.46464466094067,5.964644660940673L37.66428571428572,5.765003607595631L37.66428571428572,5.336432179024202L38.52142857142857,4.479289321881345L38.52142857142857,4.050717893309916L39.19357503616706,3.3785714285714286L39.40786075045278,3.3785714285714286L39.59285714285714,3.1935750361670596L39.59285714285714,2.8064249638329404L39.40786075045278,2.6214285714285714L33.87785353526151,2.6214285714285714L33.66356782097579,2.8357142857142854L31.94928210669008,2.8357142857142854L31.520710678118654,3.2642857142857142L30.663567820975796,3.2642857142857142L30.23499639240437,3.6928571428571426L29.37785353526151,3.6928571428571426L29.163567820975796,3.907142857142857L27.020710678118654,3.907142857142857L26.80642496383294,4.121428571428571L26.37785353526151,4.121428571428571L26.163567820975796,4.335714285714285L25.30642496383294,4.335714285714285L25.092139249547223,4.55L21.87785353526151,4.55L21.44928210669008,4.978571428571429L21.23499639240437,4.978571428571429L20.80642496383294,5.407142857142857L20.37785353526151,5.407142857142857L19.73499639240437,6.05L19.520710678118654,6.05z" stroke="none"/><path d="M42.03535533905933,4.464644660940673L41.96464466094067,4.535355339059327L40.69357503616706,3.2642857142857142L40.479289321881346,3.2642857142857142L39.622146464738485,2.407142857142857L12.877853535261512,2.407142857142857L12.449282106690081,2.8357142857142854L12.23499639240437,2.8357142857142854L12.020710678118654,3.05L11.806424963832939,3.05L10.949282106690081,3.907142857142857L10.306424963832939,3.907142857142857L10.12142857142857,4.092139249547226L10.12142857142857,4.907860750452774L10.306424963832939,5.0928571428571425L10.907860750452773,5.0928571428571425L11.122146464738488,4.878571428571429L11.336432179024204,4.878571428571429L11.550717893309915,4.664285714285715L11.76500360759563,4.664285714285715L11.964644660940673,4.464644660940673L12.035355339059327,4.535355339059327L11.806424963832939,4.764285714285714L11.592139249547223,4.764285714285714L11.377853535261512,4.978571428571429L11.163567820975796,4.978571428571429L10.949282106690081,5.192857142857142L10.26500360759563,5.192857142857142L10.021428571428569,4.949282106690084L10.021428571428569,4.050717893309916L10.26500360759563,3.8071428571428574L10.907860750452773,3.8071428571428574L11.76500360759563,2.95L11.979289321881346,2.95L12.193575036167061,2.7357142857142858L12.407860750452773,2.7357142857142858L12.836432179024204,2.3071428571428574L39.66356782097579,2.3071428571428574L40.520710678118654,3.1642857142857146L40.73499639240437,3.1642857142857146z" stroke="none"/><path d="M10.535355339059327,3.0353553390593273L10.464644660940673,2.9646446609406727L10.693575036167061,2.7357142857142858L10.907860750452773,2.7357142857142858L11.336432179024204,2.3071428571428574L12.407860750452773,2.3071428571428574L12.622146464738488,2.092857142857143L42.020710678118654,2.092857142857143L42.449282106690085,2.521428571428572L43.30642496383294,2.521428571428572L43.520710678118654,2.7357142857142858L43.73499639240437,2.7357142857142858L43.949282106690085,2.95L45,2.95L45,3.05L43.90786075045278,3.05L43.69357503616706,2.8357142857142854L43.479289321881346,2.8357142857142854L43.26500360759563,2.6214285714285714L42.40786075045278,2.6214285714285714L41.979289321881346,2.1928571428571426L12.663567820975796,2.1928571428571426L12.449282106690081,2.407142857142857L11.377853535261512,2.407142857142857L10.949282106690081,2.8357142857142854L10.73499639240437,2.8357142857142854z" stroke="none"/><path d="M61.5,3.05L61.5,2.95L66.87785353526151,2.95L67.09213924954722,3.1642857142857146L67.94928210669008,3.1642857142857146L68.1635678209758,3.3785714285714286L72.40786075045276,3.3785714285714286L72.59285714285714,3.1935750361670596L72.59285714285714,2.8064249638329404L72.40786075045276,2.6214285714285714L71.97928932188132,2.6214285714285714L71.76500360759562,2.407142857142857L42.622146464738485,2.407142857142857L42.19357503616706,1.9785714285714286L8.592139249547223,1.9785714285714286L8.377853535261512,2.1928571428571426L8.163567820975796,2.1928571428571426L7.734996392404369,2.6214285714285714L6.234996392404369,2.6214285714285714L5.80642496383294,3.05L5.3778535352615116,3.05L4.520710678118655,3.907142857142857L4.30642496383294,3.907142857142857L4.121428571428571,4.092139249547226L4.121428571428571,7.907860750452773L4.978571428571429,8.76500360759563L4.978571428571429,8.979289321881346L5.192857142857142,9.193575036167061L5.192857142857142,9.407860750452773L5.3778535352615116,9.592857142857142L16.69357503616706,9.592857142857142L17.521428571428572,8.76500360759563L17.521428571428572,8.550717893309915L19.907860750452773,6.164285714285715L20.55071789330992,6.164285714285715L20.76500360759563,5.95L21,5.95L21,6.05L20.80642496383294,6.05L20.592139249547227,6.264285714285714L19.94928210669008,6.264285714285714L17.621428571428574,8.592139249547223L17.621428571428574,8.806424963832939L16.73499639240437,9.692857142857143L5.336432179024202,9.692857142857143L5.0928571428571425,9.449282106690081L5.0928571428571425,9.23499639240437L4.878571428571429,9.020710678118654L4.878571428571429,8.806424963832939L4.021428571428571,7.949282106690083L4.021428571428571,4.050717893309916L4.265003607595631,3.8071428571428574L4.479289321881345,3.8071428571428574L5.336432179024202,2.95L5.765003607595631,2.95L6.19357503616706,2.521428571428572L7.69357503616706,2.521428571428572L8.122146464738488,2.092857142857143L8.336432179024204,2.092857142857143L8.550717893309915,1.8785714285714286L42.23499639240437,1.8785714285714286L42.66356782097579,2.3071428571428574L71.80642496383294,2.3071428571428574L72.02071067811865,2.521428571428572L72.44928210669008,2.521428571428572L72.69285714285714,2.765003607595631L72.69285714285714,3.234996392404369L72.44928210669008,3.478571428571428L68.12214646473848,3.478571428571428L67.90786075045276,3.2642857142857142L67.0507178933099,3.2642857142857142L66.83643217902419,3.05z" stroke="none"/><path d="M9.035355339059327,12.035355339059327L8.964644660940673,11.964644660940673L9.193575036167061,11.735714285714284L9.407860750452773,11.735714285714284L9.622146464738488,11.521428571428569L10.949282106690081,11.521428571428569L11.377853535261512,11.95L11.592139249547223,11.95L11.806424963832939,12.164285714285715L12.020710678118654,12.164285714285715L12.449282106690081,12.592857142857142L31.73499639240437,12.592857142857142L31.94928210669008,12.807142857142857L53.122146464738485,12.807142857142857L53.96464466094067,11.964644660940673L54.03535533905933,12.035355339059327L53.16356782097579,12.907142857142858L31.907860750452773,12.907142857142858L31.69357503616706,12.692857142857143L12.407860750452773,12.692857142857143L11.979289321881346,12.264285714285716L11.76500360759563,12.264285714285716L11.550717893309915,12.05L11.336432179024204,12.05L10.907860750452773,11.62142857142857L9.663567820975796,11.62142857142857L9.449282106690081,11.835714285714285L9.23499639240437,11.835714285714285z" stroke="none"/><path d="M55.45,9L55.55,9L55.55,9.877853535261512L55.33571428571428,10.092139249547223L55.33571428571428,10.949282106690081L54.90714285714285,11.377853535261512L54.90714285714285,11.806424963832939L54.692857142857136,12.020710678118654L54.692857142857136,12.23499639240437L54.44928210669008,12.478571428571428L54.020710678118654,12.478571428571428L53.37785353526151,13.12142857142857L2.550717893309917,13.12142857142857L2.3364321790242024,12.907142857142858L2.122146464738488,12.907142857142858L1.8785714285714286,12.663567820975796L1.8785714285714286,8.336432179024204L2.092857142857143,8.122146464738488L2.092857142857143,7.479289321881345L2.550717893309917,7.021428571428571L3.449282106690083,7.021428571428571L3.907142857142857,7.479289321881345L3.907142857142857,8.122146464738488L4.764285714285714,8.979289321881346L4.764285714285714,9.407860750452773L5.592139249547226,10.235714285714284L5.80642496383294,10.235714285714284L6.035355339059327,10.464644660940673L5.964644660940673,10.535355339059327L5.765003607595631,10.335714285714285L5.550717893309916,10.335714285714285L4.664285714285715,9.449282106690081L4.664285714285715,9.020710678118654L3.8071428571428574,8.163567820975796L3.8071428571428574,7.520710678118655L3.4078607504527736,7.121428571428571L2.5921392495472264,7.121428571428571L2.1928571428571426,7.520710678118655L2.1928571428571426,8.163567820975796L1.9785714285714286,8.377853535261512L1.9785714285714286,12.622146464738488L2.1635678209757976,12.807142857142857L2.377853535261512,12.807142857142857L2.5921392495472264,13.021428571428569L53.3364321790242,13.021428571428569L53.979289321881346,12.378571428571426L54.40786075045277,12.378571428571426L54.59285714285714,12.193575036167061L54.59285714285714,11.979289321881346L54.80714285714286,11.76500360759563L54.80714285714286,11.336432179024204L55.23571428571429,10.907860750452773L55.23571428571429,10.050717893309915L55.45,9.836432179024204z" stroke="none"/><circle cx="34.5" cy="3" r="0.25" stroke-width="0" fill="#000" /><circle cx="39" cy="3" r="0.25" stroke-width="0" fill="#000" /><circle cx="28.5" cy="7.5" r="0.25" stroke-width="0" fill="#000" /><circle cx="48" cy="4.5" r="0.25" stroke-width="0" fill="#000" /><circle cx="51" cy="4.5" r="0.25" stroke-width="0" fill="#000" /><circle cx="34.5" cy="9" r="0.25" stroke-width="0" fill="#000" /><circle cx="70.49999999999999" cy="10.5" r="0.25" stroke-width="0" fill="#000" /><circle cx="63" cy="12" r="0.25" stroke-width="0" fill="#000" /><circle cx="101.99999999999999" cy="9" r="0.25" stroke-width="0" fill="#000" /><circle cx="95.99999999999999" cy="6" r="0.25" stroke-width="0" fill="#000" /><circle cx="101.99999999999999" cy="6" r="0.25" stroke-width="0" fill="#000" /><circle cx="63" cy="10.5" r="0.25" stroke-width="0" fill="#000" /><circle cx="68.99999999999999" cy="7.5" r="0.25" stroke-width="0" fill="#000" /><circle cx="71.99999999999999" cy="12" r="0.25" stroke-width="0" fill="#000" /><circle cx="83.99999999999999" cy="9" r="0.25" stroke-width="0" fill="#000" /><circle cx="49.5" cy="7.5" r="0.25" stroke-width="0" fill="#000" /><circle cx="43.5" cy="9" r="0.25" stroke-width="0" fill="#000" /><circle cx="55.5" cy="7.5" r="0.25" stroke-width="0" fill="#000" /><circle cx="60" cy="9" r="0.25" stroke-width="0" fill="#000" /><circle cx="22.5" cy="6" r="0.25" stroke-width="0" fill="#000" /><circle cx="19.5" cy="12" r="0.25" stroke-width="0" fill="#000" /><circle cx="25.5" cy="9" r="0.25" stroke-width="0" fill="#000" /><circle cx="25.5" cy="7.5" r="0.25" stroke-width="0" fill="#000" /><circle cx="3" cy="12" r="0.25" stroke-width="0" fill="#000" /><circle cx="37.5" cy="12" r="0.25" stroke-width="0" fill="#000" /><circle cx="39" cy="12" r="0.25" stroke-width="0" fill="#000" /><circle cx="45" cy="9" r="0.25" stroke-width="0" fill="#000" /><circle cx="10.5" cy="10.5" r="0.25" stroke-width="0" fill="#000" /><circle cx="70.49999999999999" cy="3" r="0.25" stroke-width="0" fill="#000" /><circle cx="68.99999999999999" cy="3" r="0.25" stroke-width="0" fill="#000" /><circle cx="39" cy="4.5" r="0.25" stroke-width="0" fill="#000" /><circle cx="40.5" cy="6" r="0.25" stroke-width="0" fill="#000" /><circle cx="49.5" cy="10.5" r="0.25" stroke-width="0" fill="#000" /><circle cx="51" cy="12" r="0.25" stroke-width="0" fill="#000" /><circle cx="30" cy="7.5" r="0.25" stroke-width="0" fill="#000" /><circle cx="27" cy="7.5" r="0.25" stroke-width="0" fill="#000" /><circle cx="48" cy="12" r="0.25" stroke-width="0" fill="#000" /><circle cx="46.5" cy="9" r="0.25" stroke-width="0" fill="#000" /><circle cx="12" cy="6" r="0.25" stroke-width="0" fill="#000" /><circle cx="13.5" cy="3" r="0.25" stroke-width="0" fill="#000" /><circle cx="91.49999999999999" cy="12" r="0.25" stroke-width="0" fill="#000" /><circle cx="95.99999999999999" cy="12" r="0.25" stroke-width="0" fill="#000" /><circle cx="9" cy="6" r="0.25" stroke-width="0" fill="#000" /><circle cx="4.5" cy="4.5" r="0.25" stroke-width="0" fill="#000" /><circle cx="7.5" cy="4.5" r="0.25" stroke-width="0" fill="#000" /><circle cx="6" cy="9" r="0.25" stroke-width="0" fill="#000" /><circle cx="74.99999999999999" cy="6" r="0.25" stroke-width="0" fill="#000" /><circle cx="79.49999999999999" cy="4.5" r="0.25" stroke-width="0" fill="#000" /><circle cx="7.5" cy="12" r="0.25" stroke-width="0" fill="#000" /><circle cx="3" cy="9" r="0.25" stroke-width="0" fill="#000" /><circle cx="61.5" cy="10.5" r="0.25" stroke-width="0" fill="#000" /><circle cx="55.5" cy="12" r="0.25" stroke-width="0" fill="#000" /><circle cx="89.99999999999999" cy="6" r="0.25" stroke-width="0" fill="#000" /><circle cx="82.49999999999999" cy="6" r="0.25" stroke-width="0" fill="#000" /><circle cx="30" cy="4.5" r="0.25" stroke-width="0" fill="#000" /><circle cx="22.5" cy="7.5" r="0.25" stroke-width="0" fill="#000" /><circle cx="10.5" cy="12" r="0.25" stroke-width="0" fill="#000" /><circle cx="3" cy="7.5" r="0.25" stroke-width="0" fill="#000" /><circle cx="15" cy="7.5" r="0.25" stroke-width="0" fill="#000" /><circle cx="7.5" cy="3" r="0.25" stroke-width="0" fill="#000" /><circle cx="10.5" cy="4.5" r="0.25" stroke-width="0" fill="#000" /><circle cx="19.5" cy="3" r="0.25" stroke-width="0" fill="#000" /><circle cx="86.99999999999999" cy="6" r="0.25" stroke-width="0" fill="#000" /><circle cx="77.99999999999999" cy="4.5" r="0.25" stroke-width="0" fill="#000" /><circle cx="18" cy="9" r="0.25" stroke-width="0" fill="#000" /><circle cx="27" cy="4.5" r="0.25" stroke-width="0" fill="#000" /><circle cx="100.49999999999999" cy="3" r="0.25" stroke-width="0" fill="#000" /><circle cx="89.99999999999999" cy="3" r="0.25" stroke-width="0" fill="#000" /><circle cx="4.5" cy="7.5" r="0.25" stroke-width="0" fill="#000" /><circle cx="15" cy="6" r="0.25" stroke-width="0" fill="#000" /><circle cx="52.5" cy="3" r="0.25" stroke-width="0" fill="#000" /><circle cx="42" cy="6" r="0.25" stroke-width="0" fill="#000" /><circle cx="49.5" cy="4.5" r="0.25" stroke-width="0" fill="#000" /><circle cx="61.5" cy="6" r="0.25" stroke-width="0" fill="#000" /><circle cx="33" cy="12" r="0.25" stroke-width="0" fill="#000" /><circle cx="48" cy="10.5" r="0.25" stroke-width="0" fill="#000" /><circle cx="34.5" cy="12" r="0.25" stroke-width="0" fill="#000" /><circle cx="54" cy="10.5" r="0.25" stroke-width="0" fill="#000" /><circle cx="51" cy="3" r="0.25" stroke-width="0" fill="#000" /><circle cx="71.99999999999999" cy="3" r="0.25" stroke-width="0" fill="#000" /><circle cx="16.5" cy="9" r="0.25" stroke-width="0" fill="#000" /><circle cx="37.5" cy="6" r="0.25" stroke-width="0" fill="#000" /><circle cx="42" cy="4.5" r="0.25" stroke-width="0" fill="#000" /><circle cx="12" cy="4.5" r="0.25" stroke-width="0" fill="#000" /><circle cx="10.5" cy="3" r="0.25" stroke-width="0" fill="#000" /><circle cx="45" cy="3" r="0.25" stroke-width="0" fill="#000" /><circle cx="61.5" cy="3" r="0.25" stroke-width="0" fill="#000" /><circle cx="21" cy="6" r="0.25" stroke-width="0" fill="#000" /><circle cx="9" cy="12" r="0.25" stroke-width="0" fill="#000" /><circle cx="54" cy="12" r="0.25" stroke-width="0" fill="#000" /><circle cx="55.5" cy="9" r="0.25" stroke-width="0" fill="#000" /><circle cx="6" cy="10.5" r="0.25" stroke-width="0" fill="#000" /><rect x="0" y="0" width="105" height="15" stroke-width="0.2" stroke="#000" fill="none" /></svg>