<svg version="1.1" width="30" height="15" xmlns="http://www.w3.org/2000/svg"><path d="M14.377853535261512,4.45L15,4.45L15,4.55L14.407142857142858,4.55L14.407142857142858,4.69357503616706L14.592139249547223,4.878571428571429L14.806424963832939,4.878571428571429L15.23499639240437,5.307142857142857L15.449282106690081,5.307142857142857L15.663567820975796,5.521428571428571L15.877853535261512,5.521428571428571L16.30642496383294,5.95L16.5,5.95L16.5,6.05L16.26500360759563,6.05L15.836432179024204,5.621428571428571L15.622146464738488,5.621428571428571L15.407860750452773,5.407142857142857L15.193575036167061,5.407142857142857L14.76500360759563,4.978571428571429L14.550717893309915,4.978571428571429L14.307142857142857,4.734996392404369L14.307142857142857,4.520710678118655L13.26500360759563,3.478571428571428L13.050717893309915,3.478571428571428L12.836432179024204,3.2642857142857142L12.407860750452773,3.2642857142857142L12.193575036167061,3.05L12,3.05L12,2.95L12.23499639240437,2.95L12.449282106690081,3.1642857142857146L12.877853535261512,3.1642857142857146L13.092139249547223,3.3785714285714286L13.306424963832939,3.3785714285714286z" stroke="none"/><path d="M19.479289321881346,5.95L19.69357503616706,5.735714285714286L20.336432179024204,5.735714285714286L20.979289321881346,5.0928571428571425L21.19357503616706,5.0928571428571425L21.378571428571426,4.907860750452774L21.378571428571426,4.479289321881345L21.59285714285714,4.265003607595631L21.59285714285714,4.050717893309916L21.807142857142857,3.8364321790242024L21.807142857142857,3.622146464738488L22.46464466094067,2.9646446609406727L22.53535533905933,3.0353553390593273L21.90714285714286,3.6635678209757976L21.90714285714286,3.877853535261512L21.692857142857143,4.092139249547226L21.692857142857143,4.30642496383294L21.478571428571428,4.520710678118655L21.478571428571428,4.949282106690084L21.23499639240437,5.192857142857142L21.020710678118654,5.192857142857142L20.37785353526151,5.835714285714285L19.73499639240437,5.835714285714285L19.55,6.020710678118655L19.55,7.5L19.45,7.5L19.45,6.05L19.30642496383294,6.05L19.092139249547227,6.264285714285714L18.44928210669008,6.264285714285714L18.23499639240437,6.478571428571428L18.020710678118654,6.478571428571428L17.592139249547227,6.907142857142857L17.37785353526151,6.907142857142857L17.163567820975796,7.121428571428571L16.94928210669008,7.121428571428571L16.53535533905933,7.535355339059327L16.46464466094067,7.464644660940673L16.907860750452773,7.021428571428571L17.12214646473849,7.021428571428571L17.336432179024204,6.807142857142857L17.55071789330992,6.807142857142857L17.979289321881346,6.378571428571428L18.19357503616706,6.378571428571428L18.407860750452773,6.164285714285715L19.05071789330992,6.164285714285715L19.26500360759563,5.95z" stroke="none"/><path d="M17.95,5.95L17.95,5.80642496383294L16.907860750452773,4.764285714285714L16.69357503616706,4.764285714285714L15.836432179024204,3.907142857142857L14.979289321881346,3.907142857142857L14.76500360759563,3.6928571428571426L14.336432179024204,3.6928571428571426L13.907860750452773,3.2642857142857142L13.479289321881346,3.2642857142857142L13.26500360759563,3.05L13.050717893309915,3.05L12.836432179024204,2.8357142857142854L12.622146464738488,2.8357142857142854L12.407860750452773,2.6214285714285714L11.592139249547223,2.6214285714285714L11.407142857142858,2.8064249638329404L11.407142857142858,4.520710678118655L11.192857142857143,4.734996392404369L11.192857142857143,4.949282106690084L10.764285714285716,5.3778535352615116L10.764285714285716,5.592139249547226L10.55,5.80642496383294L10.55,6L10.45,6L10.45,5.765003607595631L10.664285714285715,5.550717893309916L10.664285714285715,5.336432179024202L11.092857142857142,4.907860750452774L11.092857142857142,4.69357503616706L11.307142857142857,4.479289321881345L11.307142857142857,2.765003607595631L11.550717893309915,2.521428571428572L12.449282106690081,2.521428571428572L12.663567820975796,2.7357142857142858L12.877853535261512,2.7357142857142858L13.092139249547223,2.95L13.306424963832939,2.95L13.520710678118654,3.1642857142857146L13.949282106690081,3.1642857142857146L14.377853535261512,3.592857142857143L14.806424963832939,3.592857142857143L15.020710678118654,3.8071428571428574L15.877853535261512,3.8071428571428574L16.73499639240437,4.664285714285715L16.94928210669008,4.664285714285715L18.05,5.765003607595631L18.05,5.879289321881346L18.836432179024204,5.0928571428571425L19.05071789330992,5.0928571428571425L19.479289321881346,4.664285714285715L19.907860750452773,4.664285714285715L20.12214646473849,4.45L21,4.45L21,4.55L20.163567820975796,4.55L19.94928210669008,4.764285714285714L19.520710678118654,4.764285714285714L19.092139249547227,5.192857142857142L18.87785353526151,5.192857142857142L18.020710678118654,6.05L17.80642496383294,6.05L17.592139249547227,6.264285714285714L17.37785353526151,6.264285714285714L16.94928210669008,6.692857142857142L16.520710678118654,6.692857142857142L16.12142857142857,7.092139249547226L16.12142857142857,7.907860750452773L16.30642496383294,8.092857142857142L20.76500360759563,8.092857142857142L20.979289321881346,7.878571428571428L21.62214646473849,7.878571428571428L21.836432179024204,7.664285714285715L22.05071789330992,7.664285714285715L22.26500360759563,7.45L22.5,7.45L22.5,7.55L22.30642496383294,7.55L22.092139249547227,7.764285714285714L21.87785353526151,7.764285714285714L21.663567820975796,7.978571428571428L21.020710678118654,7.978571428571428L20.80642496383294,8.192857142857143L16.26500360759563,8.192857142857143L16.02142857142857,7.949282106690083L16.02142857142857,7.050717893309916L16.479289321881346,6.5928571428571425L16.907860750452773,6.5928571428571425L17.336432179024204,6.164285714285715L17.55071789330992,6.164285714285715L17.76500360759563,5.95z" stroke="none"/><path d="M4.69357503616706,3.8071428571428574L4.907860750452774,3.592857142857143L5.122146464738488,3.592857142857143L5.550717893309916,3.1642857142857146L5.765003607595631,3.1642857142857146L5.964644660940673,2.9646446609406727L6.035355339059327,3.0353553390593273L5.80642496383294,3.2642857142857142L5.592139249547226,3.2642857142857142L5.163567820975797,3.6928571428571426L4.949282106690084,3.6928571428571426L4.834996392404369,3.8071428571428574L4.949282106690084,3.8071428571428574L5.407142857142857,4.265003607595631L5.407142857142857,4.479289321881345L5.621428571428571,4.69357503616706L5.621428571428571,4.907860750452774L5.835714285714285,5.122146464738488L5.835714285714285,5.550717893309916L6.05,5.765003607595631L6.05,6L5.95,6L5.95,5.80642496383294L5.735714285714286,5.592139249547226L5.735714285714286,5.163567820975797L5.521428571428571,4.949282106690084L5.521428571428571,4.734996392404369L5.307142857142857,4.520710678118655L5.307142857142857,4.30642496383294L4.907860750452774,3.907142857142857L4.764285714285714,3.907142857142857L4.764285714285714,4.30642496383294L4.535355339059327,4.535355339059327L4.464644660940673,4.464644660940673L4.664285714285715,4.265003607595631L4.664285714285715,3.907142857142857L4.265003607595631,3.907142857142857L3.622146464738488,3.2642857142857142L3.4078607504527736,3.2642857142857142L3.1935750361670596,3.05L3,3.05L3,2.95L3.234996392404369,2.95L3.449282106690083,3.1642857142857146L3.6635678209757976,3.1642857142857146L4.30642496383294,3.8071428571428574z" stroke="none"/><path d="M21.164285714285715,9.592857142857142L21.164285714285715,9.407860750452773L21.407860750452773,9.164285714285715L22.479289321881346,9.164285714285715L23.12214646473849,8.521428571428569L23.76500360759563,8.521428571428569L23.979289321881346,8.307142857142857L24.19357503616706,8.307142857142857L24.407860750452773,8.092857142857142L24.62214646473849,8.092857142857142L24.836432179024204,7.878571428571428L25.050717893309915,7.878571428571428L25.46464466094067,7.464644660940673L25.53535533905933,7.535355339059327L25.092139249547223,7.978571428571428L24.87785353526151,7.978571428571428L24.663567820975796,8.192857142857143L24.44928210669008,8.192857142857143L24.23499639240437,8.407142857142858L24.020710678118654,8.407142857142858L23.80642496383294,8.62142857142857L23.163567820975796,8.62142857142857L22.520710678118654,9.264285714285716L21.44928210669008,9.264285714285716L21.264285714285716,9.449282106690081L21.264285714285716,9.592857142857142L22.30642496383294,9.592857142857142L22.520710678118654,9.807142857142857L22.73499639240437,9.807142857142857L22.94928210669008,10.021428571428569L23.80642496383294,10.021428571428569L24.020710678118654,10.235714285714284L24.23499639240437,10.235714285714284L24.44928210669008,10.45L25.5,10.45L25.5,10.55L24.407860750452773,10.55L24.19357503616706,10.335714285714285L23.979289321881346,10.335714285714285L23.76500360759563,10.12142857142857L22.907860750452773,10.12142857142857L22.69357503616706,9.907142857142858L22.479289321881346,9.907142857142858L22.26500360759563,9.692857142857143L21.264285714285716,9.692857142857143L21.264285714285716,10.306424963832939L21.03535533905933,10.535355339059327L20.96464466094067,10.464644660940673L21.164285714285715,10.26500360759563L21.164285714285715,9.692857142857143L14.592139249547223,9.692857142857143L13.949282106690081,10.335714285714285L13.73499639240437,10.335714285714285L13.535355339059327,10.535355339059327L13.464644660940673,10.464644660940673L13.693575036167061,10.235714285714284L13.907860750452773,10.235714285714284L14.550717893309915,9.592857142857142z" stroke="none"/><path d="M9.592857142857142,10.45L9.592857142857142,10.26500360759563L9.807142857142857,10.050717893309915L9.807142857142857,9.836432179024204L10.021428571428569,9.622146464738488L10.021428571428569,9.407860750452773L10.464644660940673,8.964644660940673L10.535355339059327,9.035355339059327L10.12142857142857,9.449282106690081L10.12142857142857,9.663567820975796L9.907142857142858,9.877853535261512L9.907142857142858,10.092139249547223L9.692857142857143,10.306424963832939L9.692857142857143,10.45L9.836432179024204,10.45L10.479289321881346,9.807142857142857L11.76500360759563,9.807142857142857L11.979289321881346,9.592857142857142L12.836432179024204,9.592857142857142L13.26500360759563,9.164285714285715L14.336432179024204,9.164285714285715L14.550717893309915,8.95L15,8.95L15,9.05L14.592139249547223,9.05L14.377853535261512,9.264285714285716L13.306424963832939,9.264285714285716L12.877853535261512,9.692857142857143L12.020710678118654,9.692857142857143L11.806424963832939,9.907142857142858L10.520710678118654,9.907142857142858L9.877853535261512,10.55L9.763567820975798,10.55L9.907142857142858,10.693575036167061L9.907142857142858,10.907860750452773L10.12142857142857,11.122146464738488L10.12142857142857,11.336432179024204L10.335714285714285,11.550717893309915L10.335714285714285,11.76500360759563L10.535355339059327,11.964644660940673L10.464644660940673,12.035355339059327L10.235714285714284,11.806424963832939L10.235714285714284,11.592139249547223L10.021428571428569,11.377853535261512L10.021428571428569,11.163567820975796L9.807142857142857,10.949282106690081L9.807142857142857,10.73499639240437L9.622146464738488,10.55L9.23499639240437,10.55L9.020710678118654,10.764285714285716L8.377853535261512,10.764285714285716L8.163567820975796,10.978571428571428L7.092139249547226,10.978571428571428L6.8778535352615116,11.192857142857143L6.663567820975797,11.192857142857143L6.449282106690083,11.407142857142858L6.234996392404369,11.407142857142858L6.020710678118655,11.62142857142857L4.734996392404369,11.62142857142857L4.520710678118655,11.835714285714285L3.234996392404369,11.835714285714285L3.0353553390593273,12.035355339059327L2.9646446609406727,11.964644660940673L3.1935750361670596,11.735714285714284L4.479289321881345,11.735714285714284L4.69357503616706,11.521428571428569L5.979289321881345,11.521428571428569L6.19357503616706,11.307142857142857L6.407860750452773,11.307142857142857L6.622146464738488,11.092857142857142L6.836432179024202,11.092857142857142L7.050717893309916,10.878571428571426L8.122146464738488,10.878571428571426L8.336432179024204,10.664285714285715L8.979289321881346,10.664285714285715L9.193575036167061,10.45z" stroke="none"/><path d="M10.45,3L10.55,3L10.55,4.5L10.45,4.5z" stroke="none"/><path d="M27.03535533905933,4.464644660940673L26.96464466094067,4.535355339059327L25.46464466094067,3.0353553390593273L25.53535533905933,2.9646446609406727z" stroke="none"/><path d="M25.46464466094067,6.035355339059327L25.53535533905933,5.964644660940673L27.03535533905933,7.464644660940673L26.96464466094067,7.535355339059327z" stroke="none"/><path d="M25.46464466094067,4.464644660940673L25.53535533905933,4.535355339059327L24.03535533905933,6.035355339059327L23.96464466094067,5.964644660940673z" stroke="none"/><path d="M9.05,6L8.95,6L8.95,5.765003607595631L9.378571428571426,5.336432179024202L9.378571428571426,4.092139249547226L9.164285714285715,3.877853535261512L9.164285714285715,3.234996392404369L8.964644660940673,3.0353553390593273L9.035355339059327,2.9646446609406727L9.264285714285716,3.1935750361670596L9.264285714285716,3.8364321790242024L9.478571428571428,4.050717893309916L9.478571428571428,5.3778535352615116L9.05,5.80642496383294z" stroke="none"/><path d="M7.5,10.45L7.5,10.55L4.5,10.55L4.5,10.45z" stroke="none"/><path d="M5.964644660940673,8.964644660940673L6.035355339059327,9.035355339059327L5.80642496383294,9.264285714285716L5.592139249547226,9.264285714285716L5.3778535352615116,9.478571428571428L5.163567820975797,9.478571428571428L4.949282106690084,9.692857142857143L4.30642496383294,9.692857142857143L4.092139249547226,9.907142857142858L3.877853535261512,9.907142857142858L3.234996392404369,10.55L3,10.55L3,10.45L3.1935750361670596,10.45L3.8364321790242024,9.807142857142857L4.050717893309916,9.807142857142857L4.265003607595631,9.592857142857142L4.907860750452774,9.592857142857142L5.122146464738488,9.378571428571426L5.336432179024202,9.378571428571426L5.550717893309916,9.164285714285715L5.765003607595631,9.164285714285715z" stroke="none"/><path d="M22.53535533905933,6.035355339059327L22.46464466094067,5.964644660940673L22.878571428571426,5.550717893309916L22.878571428571426,2.5921392495472264L22.69357503616706,2.407142857142857L21.23499639240437,2.407142857142857L21.020710678118654,2.6214285714285714L20.80642496383294,2.6214285714285714L20.592139249547227,2.8357142857142854L19.94928210669008,2.8357142857142854L19.73499639240437,3.05L19.5,3.05L19.5,2.95L19.69357503616706,2.95L19.907860750452773,2.7357142857142858L20.55071789330992,2.7357142857142858L20.76500360759563,2.521428571428572L20.979289321881346,2.521428571428572L21.19357503616706,2.3071428571428574L22.73499639240437,2.3071428571428574L22.978571428571428,2.550717893309917L22.978571428571428,5.592139249547226z" stroke="none"/><path d="M15,7.45L15,7.55L14.76500360759563,7.55L14.336432179024204,7.121428571428571L11.76500360759563,7.121428571428571L11.550717893309915,6.907142857142857L10.479289321881346,6.907142857142857L10.021428571428569,6.449282106690083L10.021428571428569,2.550717893309917L10.26500360759563,2.3071428571428574L13.306424963832939,2.3071428571428574L13.520710678118654,2.521428571428572L14.806424963832939,2.521428571428572L15.23499639240437,2.95L15.449282106690081,2.95L15.663567820975796,3.1642857142857146L15.877853535261512,3.1642857142857146L16.30642496383294,3.592857142857143L16.520710678118654,3.592857142857143L16.94928210669008,4.021428571428571L17.37785353526151,4.021428571428571L17.80642496383294,4.45L18,4.45L18,4.55L17.76500360759563,4.55L17.336432179024204,4.121428571428571L16.907860750452773,4.121428571428571L16.479289321881346,3.6928571428571426L16.26500360759563,3.6928571428571426L15.836432179024204,3.2642857142857142L15.622146464738488,3.2642857142857142L15.407860750452773,3.05L15.193575036167061,3.05L14.76500360759563,2.6214285714285714L13.479289321881346,2.6214285714285714L13.26500360759563,2.407142857142857L10.306424963832939,2.407142857142857L10.12142857142857,2.5921392495472264L10.12142857142857,6.407860750452773L10.520710678118654,6.807142857142857L11.592139249547223,6.807142857142857L11.806424963832939,7.021428571428571L14.377853535261512,7.021428571428571L14.806424963832939,7.45z" stroke="none"/><path d="M7.45,3L7.55,3L7.55,3.1935750361670596L7.978571428571428,3.622146464738488L7.978571428571428,5.80642496383294L7.55,6.234996392404369L7.55,7.5L7.45,7.5L7.45,6.19357503616706L7.878571428571428,5.765003607595631L7.878571428571428,3.6635678209757976L7.45,3.234996392404369z" stroke="none"/><path d="M27.03535533905933,2.9646446609406727L26.96464466094067,3.0353553390593273L26.550717893309915,2.6214285714285714L25.092139249547223,2.6214285714285714L24.90714285714286,2.8064249638329404L24.90714285714286,3.234996392404369L24.264285714285716,3.877853535261512L24.264285714285716,4.092139249547226L24.05,4.30642496383294L24.05,4.520710678118655L23.835714285714285,4.734996392404369L23.835714285714285,5.163567820975797L23.62142857142857,5.3778535352615116L23.62142857142857,5.592139249547226L23.40714285714286,5.80642496383294L23.40714285714286,6.020710678118655L22.94928210669008,6.478571428571428L22.05071789330992,6.478571428571428L21.807142857142857,6.234996392404369L21.807142857142857,5.550717893309916L22.235714285714284,5.122146464738488L22.235714285714284,4.69357503616706L22.46464466094067,4.464644660940673L22.53535533905933,4.535355339059327L22.335714285714285,4.734996392404369L22.335714285714285,5.163567820975797L21.90714285714286,5.592139249547226L21.90714285714286,6.19357503616706L22.092139249547227,6.378571428571428L22.907860750452773,6.378571428571428L23.307142857142857,5.979289321881345L23.307142857142857,5.765003607595631L23.52142857142857,5.550717893309916L23.52142857142857,5.336432179024202L23.735714285714284,5.122146464738488L23.735714285714284,4.69357503616706L23.95,4.479289321881345L23.95,4.265003607595631L24.164285714285715,4.050717893309916L24.164285714285715,3.8364321790242024L24.807142857142857,3.1935750361670596L24.807142857142857,2.765003607595631L25.050717893309915,2.521428571428572L26.592139249547223,2.521428571428572z" stroke="none"/><path d="M13.45,4.5L13.55,4.5L13.55,4.69357503616706L13.978571428571428,5.122146464738488L13.978571428571428,5.550717893309916L14.62142857142857,6.19357503616706L14.62142857142857,6.407860750452773L14.806424963832939,6.5928571428571425L15.020710678118654,6.5928571428571425L15.478571428571428,7.050717893309916L15.478571428571428,7.949282106690083L15.23499639240437,8.192857142857143L7.265003607595631,8.192857142857143L7.021428571428571,7.949282106690083L7.021428571428571,5.122146464738488L7.235714285714286,4.907860750452774L7.235714285714286,4.69357503616706L7.464644660940673,4.464644660940673L7.535355339059327,4.535355339059327L7.335714285714285,4.734996392404369L7.335714285714285,4.949282106690084L7.121428571428571,5.163567820975797L7.121428571428571,7.907860750452773L7.30642496383294,8.092857142857142L15.193575036167061,8.092857142857142L15.378571428571426,7.907860750452773L15.378571428571426,7.092139249547226L14.979289321881346,6.692857142857142L14.76500360759563,6.692857142857142L14.521428571428569,6.449282106690083L14.521428571428569,6.234996392404369L13.878571428571426,5.592139249547226L13.878571428571426,5.163567820975797L13.45,4.734996392404369z" stroke="none"/><path d="M12,9.05L12,8.95L13.479289321881346,8.95L13.693575036167061,8.735714285714284L14.122146464738488,8.735714285714284L14.336432179024204,8.521428571428569L22.26500360759563,8.521428571428569L22.878571428571426,7.907860750452773L22.878571428571426,7.092139249547226L22.69357503616706,6.907142857142857L21.23499639240437,6.907142857142857L20.37785353526151,7.764285714285714L20.163567820975796,7.764285714285714L19.94928210669008,7.978571428571428L18.62214646473849,7.978571428571428L18.407860750452773,7.764285714285714L18.19357503616706,7.764285714285714L17.96464466094067,7.535355339059327L18.03535533905933,7.464644660940673L18.23499639240437,7.664285714285715L18.44928210669008,7.664285714285715L18.663567820975796,7.878571428571428L19.907860750452773,7.878571428571428L20.12214646473849,7.664285714285715L20.336432179024204,7.664285714285715L21.19357503616706,6.807142857142857L22.73499639240437,6.807142857142857L22.978571428571428,7.050717893309916L22.978571428571428,7.949282106690083L22.30642496383294,8.62142857142857L14.377853535261512,8.62142857142857L14.163567820975796,8.835714285714285L13.73499639240437,8.835714285714285L13.520710678118654,9.05z" stroke="none"/><path d="M4.464644660940673,7.464644660940673L4.535355339059327,7.535355339059327L2.6214285714285714,9.449282106690081L2.6214285714285714,12.407860750452773L2.8064249638329404,12.592857142857142L7.69357503616706,12.592857142857142L7.907860750452773,12.378571428571426L8.122146464738488,12.378571428571426L8.336432179024204,12.164285714285715L8.550717893309915,12.164285714285715L8.76500360759563,11.95L9,11.95L9,12.05L8.806424963832939,12.05L8.592139249547223,12.264285714285716L8.377853535261512,12.264285714285716L8.163567820975796,12.478571428571428L7.949282106690083,12.478571428571428L7.734996392404369,12.692857142857143L2.765003607595631,12.692857142857143L2.521428571428572,12.449282106690081L2.521428571428572,9.407860750452773z" stroke="none"/><path d="M24.03535533905933,12.035355339059327L23.96464466094067,11.964644660940673L24.62214646473849,11.307142857142857L25.479289321881346,11.307142857142857L25.878571428571426,10.907860750452773L25.878571428571426,7.092139249547226L25.69357503616706,6.907142857142857L25.30642496383294,6.907142857142857L24.663567820975796,7.55L24.23499639240437,7.55L24.020710678118654,7.764285714285714L23.80642496383294,7.764285714285714L23.592139249547223,7.978571428571428L23.37785353526151,7.978571428571428L22.520710678118654,8.835714285714285L18.44928210669008,8.835714285714285L18.23499639240437,9.05L18,9.05L18,8.95L18.19357503616706,8.95L18.407860750452773,8.735714285714284L22.479289321881346,8.735714285714284L23.336432179024204,7.878571428571428L23.550717893309915,7.878571428571428L23.76500360759563,7.664285714285715L23.979289321881346,7.664285714285715L24.19357503616706,7.45L24.62214646473849,7.45L25.26500360759563,6.807142857142857L25.73499639240437,6.807142857142857L25.978571428571428,7.050717893309916L25.978571428571428,10.949282106690081L25.520710678118654,11.407142857142858L24.663567820975796,11.407142857142858z" stroke="none"/><path d="M16.5,2.95L16.5,3.05L16.050717893309915,3.05L15.836432179024204,2.8357142857142854L15.622146464738488,2.8357142857142854L15.193575036167061,2.407142857142857L13.693575036167061,2.407142857142857L13.479289321881346,2.1928571428571426L9.020710678118654,2.1928571428571426L8.62142857142857,2.5921392495472264L8.62142857142857,3.622146464738488L8.835714285714285,3.8364321790242024L8.835714285714285,4.265003607595631L9.035355339059327,4.464644660940673L8.964644660940673,4.535355339059327L8.735714285714284,4.30642496383294L8.735714285714284,3.877853535261512L8.521428571428569,3.6635678209757976L8.521428571428569,2.550717893309917L8.979289321881346,2.092857142857143L13.520710678118654,2.092857142857143L13.73499639240437,2.3071428571428574L15.23499639240437,2.3071428571428574L15.663567820975796,2.7357142857142858L15.877853535261512,2.7357142857142858L16.092139249547223,2.95z" stroke="none"/><path d="M19.5,11.95L19.5,12.05L18.836432179024204,12.05L18.407860750452773,11.62142857142857L13.26500360759563,11.62142857142857L12.193575036167061,10.55L12,10.55L12,10.45L12.23499639240437,10.45L13.306424963832939,11.521428571428569L18.44928210669008,11.521428571428569L18.87785353526151,11.95z" stroke="none"/><path d="M7.5,9.05L7.5,8.95L9.407860750452773,8.95L9.836432179024204,8.521428571428569L13.907860750452773,8.521428571428569L14.122146464738488,8.307142857142857L15.407860750452773,8.307142857142857L15.592857142857142,8.122146464738488L15.592857142857142,6.8778535352615116L15.164285714285715,6.449282106690083L15.164285714285715,6.234996392404369L14.964644660940673,6.035355339059327L15.035355339059327,5.964644660940673L15.264285714285716,6.19357503616706L15.264285714285716,6.407860750452773L15.692857142857143,6.836432179024202L15.692857142857143,8.163567820975796L15.449282106690081,8.407142857142858L14.163567820975796,8.407142857142858L13.949282106690081,8.62142857142857L9.877853535261512,8.62142857142857L9.449282106690081,9.05z" stroke="none"/><path d="M18,3.05L18,2.95L18.19357503616706,2.95L18.62214646473849,2.521428571428572L19.05071789330992,2.521428571428572L19.26500360759563,2.3071428571428574L19.69357503616706,2.3071428571428574L19.907860750452773,2.092857142857143L27.020710678118654,2.092857142857143L27.478571428571428,2.550717893309917L27.478571428571428,4.949282106690084L27.264285714285716,5.163567820975797L27.264285714285716,5.80642496383294L27.03535533905933,6.035355339059327L26.96464466094067,5.964644660940673L27.164285714285715,5.765003607595631L27.164285714285715,5.122146464738488L27.378571428571426,4.907860750452774L27.378571428571426,2.5921392495472264L26.979289321881346,2.1928571428571426L19.94928210669008,2.1928571428571426L19.73499639240437,2.407142857142857L19.30642496383294,2.407142857142857L19.092139249547227,2.6214285714285714L18.663567820975796,2.6214285714285714L18.23499639240437,3.05z" stroke="none"/><path d="M4.535355339059327,9.035355339059327L4.464644660940673,8.964644660940673L4.878571428571429,8.550717893309915L4.878571428571429,7.092139249547226L4.69357503616706,6.907142857142857L4.30642496383294,6.907142857142857L2.6214285714285714,8.592139249547223L2.6214285714285714,9.020710678118654L2.407142857142857,9.23499639240437L2.407142857142857,12.622146464738488L2.5921392495472264,12.807142857142857L11.979289321881346,12.807142857142857L12.407860750452773,12.378571428571426L13.050717893309915,12.378571428571426L13.464644660940673,11.964644660940673L13.535355339059327,12.035355339059327L13.092139249547223,12.478571428571428L12.449282106690081,12.478571428571428L12.020710678118654,12.907142857142858L2.550717893309917,12.907142857142858L2.3071428571428574,12.663567820975796L2.3071428571428574,9.193575036167061L2.521428571428572,8.979289321881346L2.521428571428572,8.550717893309915L4.265003607595631,6.807142857142857L4.734996392404369,6.807142857142857L4.978571428571429,7.050717893309916L4.978571428571429,8.592139249547223z" stroke="none"/><path d="M18,12.05L18,11.95L18.44928210669008,11.95L18.87785353526151,12.378571428571426L19.907860750452773,12.378571428571426L20.09285714285714,12.193575036167061L20.09285714285714,11.806424963832939L19.907860750452773,11.62142857142857L18.836432179024204,11.62142857142857L18.62214646473849,11.407142857142858L13.479289321881346,11.407142857142858L13.021428571428569,10.949282106690081L13.021428571428569,10.73499639240437L12.407860750452773,10.12142857142857L11.592139249547223,10.12142857142857L11.407142857142858,10.306424963832939L11.407142857142858,11.377853535261512L11.192857142857143,11.592139249547223L11.192857142857143,12.23499639240437L10.949282106690081,12.478571428571428L10.050717893309915,12.478571428571428L9.592857142857142,12.020710678118654L9.592857142857142,11.806424963832939L9.407860750452773,11.62142857142857L8.377853535261512,11.62142857142857L8.163567820975796,11.835714285714285L7.734996392404369,11.835714285714285L7.535355339059327,12.035355339059327L7.464644660940673,11.964644660940673L7.69357503616706,11.735714285714284L8.122146464738488,11.735714285714284L8.336432179024204,11.521428571428569L9.449282106690081,11.521428571428569L9.692857142857143,11.76500360759563L9.692857142857143,11.979289321881346L10.092139249547223,12.378571428571426L10.907860750452773,12.378571428571426L11.092857142857142,12.193575036167061L11.092857142857142,11.550717893309915L11.307142857142857,11.336432179024204L11.307142857142857,10.26500360759563L11.550717893309915,10.021428571428569L12.449282106690081,10.021428571428569L13.12142857142857,10.693575036167061L13.12142857142857,10.907860750452773L13.520710678118654,11.307142857142857L18.663567820975796,11.307142857142857L18.87785353526151,11.521428571428569L19.94928210669008,11.521428571428569L20.192857142857143,11.76500360759563L20.192857142857143,12.23499639240437L19.94928210669008,12.478571428571428L18.836432179024204,12.478571428571428L18.407860750452773,12.05z" stroke="none"/><path d="M13.5,7.45L13.5,7.55L11.336432179024204,7.55L11.122146464738488,7.335714285714285L10.26500360759563,7.335714285714285L10.050717893309915,7.121428571428571L9.622146464738488,7.121428571428571L9.193575036167061,6.692857142857142L8.76500360759563,6.692857142857142L8.521428571428569,6.449282106690083L8.521428571428569,4.092139249547226L8.307142857142857,3.877853535261512L8.307142857142857,3.020710678118655L7.907860750452773,2.6214285714285714L2.5921392495472264,2.6214285714285714L2.407142857142857,2.8064249638329404L2.407142857142857,3.1935750361670596L2.6214285714285714,3.4078607504527736L2.6214285714285714,3.622146464738488L2.8357142857142854,3.8364321790242024L2.8357142857142854,4.265003607595631L3.0353553390593273,4.464644660940673L2.9646446609406727,4.535355339059327L2.7357142857142858,4.30642496383294L2.7357142857142858,3.877853535261512L2.521428571428572,3.6635678209757976L2.521428571428572,3.449282106690083L2.3071428571428574,3.234996392404369L2.3071428571428574,2.765003607595631L2.550717893309917,2.521428571428572L7.949282106690083,2.521428571428572L8.407142857142858,2.979289321881345L8.407142857142858,3.8364321790242024L8.62142857142857,4.050717893309916L8.62142857142857,6.407860750452773L8.806424963832939,6.5928571428571425L9.23499639240437,6.5928571428571425L9.663567820975796,7.021428571428571L10.092139249547223,7.021428571428571L10.306424963832939,7.235714285714286L11.163567820975796,7.235714285714286L11.377853535261512,7.45z" stroke="none"/><path d="M6.035355339059327,7.464644660940673L5.964644660940673,7.535355339059327L5.550717893309916,7.121428571428571L5.336432179024202,7.121428571428571L4.907860750452774,6.692857142857142L4.092139249547226,6.692857142857142L2.407142857142857,8.377853535261512L2.407142857142857,8.806424963832939L2.1928571428571426,9.020710678118654L2.1928571428571426,12.836432179024204L2.377853535261512,13.021428571428569L15.193575036167061,13.021428571428569L16.26500360759563,11.95L16.5,11.95L16.5,12.05L16.30642496383294,12.05L15.23499639240437,13.12142857142857L2.3364321790242024,13.12142857142857L2.092857142857143,12.877853535261512L2.092857142857143,8.979289321881346L2.3071428571428574,8.76500360759563L2.3071428571428574,8.336432179024204L4.050717893309916,6.5928571428571425L4.949282106690084,6.5928571428571425L5.3778535352615116,7.021428571428571L5.592139249547226,7.021428571428571z" stroke="none"/><path d="M16.5,10.55L16.5,10.45L18.663567820975796,10.45L18.87785353526151,10.664285714285715L19.092139249547227,10.664285714285715L19.30642496383294,10.878571428571426L19.520710678118654,10.878571428571426L19.73499639240437,11.092857142857142L19.94928210669008,11.092857142857142L20.40714285714286,11.550717893309915L20.40714285714286,12.449282106690081L20.163567820975796,12.692857142857143L16.520710678118654,12.692857142857143L16.092139249547223,13.12142857142857L15.663567820975796,13.12142857142857L15.449282106690081,13.335714285714285L2.122146464738488,13.335714285714285L1.8785714285714286,13.092139249547223L1.8785714285714286,8.76500360759563L2.092857142857143,8.550717893309915L2.092857142857143,8.122146464738488L4.265003607595631,5.95L4.5,5.95L4.5,6.05L4.30642496383294,6.05L2.1928571428571426,8.163567820975796L2.1928571428571426,8.592139249547223L1.9785714285714286,8.806424963832939L1.9785714285714286,13.050717893309915L2.1635678209757976,13.235714285714284L15.407860750452773,13.235714285714284L15.622146464738488,13.021428571428569L16.050717893309915,13.021428571428569L16.479289321881346,12.592857142857142L20.12214646473849,12.592857142857142L20.307142857142857,12.407860750452773L20.307142857142857,11.592139249547223L19.907860750452773,11.192857142857143L19.69357503616706,11.192857142857143L19.479289321881346,10.978571428571428L19.26500360759563,10.978571428571428L19.05071789330992,10.764285714285716L18.836432179024204,10.764285714285716L18.62214646473849,10.55z" stroke="none"/></svg>