<svg version="1.1" width="30" height="15" xmlns="http://www.w3.org/2000/svg"><path d="M5.765003607595631,7.664285714285715L5.964644660940673,7.464644660940673L6.035355339059327,7.535355339059327L5.80642496383294,7.764285714285714L4.335714285714285,7.764285714285714L4.335714285714285,7.907860750452773L5.407142857142857,8.979289321881346L5.407142857142857,9.193575036167061L5.80642496383294,9.592857142857142L6.449282106690083,9.592857142857142L7.30642496383294,10.45L7.5,10.45L7.5,10.55L7.265003607595631,10.55L6.407860750452773,9.692857142857143L5.765003607595631,9.692857142857143L5.307142857142857,9.23499639240437L5.307142857142857,9.020710678118654L4.235714285714286,7.949282106690083L4.235714285714286,7.764285714285714L4.092139249547226,7.764285714285714L3.907142857142857,7.949282106690083L3.907142857142857,8.122146464738488L4.978571428571429,9.193575036167061L4.978571428571429,9.622146464738488L5.192857142857142,9.836432179024204L5.192857142857142,10.050717893309915L5.621428571428571,10.479289321881346L5.621428571428571,10.907860750452773L5.835714285714285,11.122146464738488L5.835714285714285,11.76500360759563L6.035355339059327,11.964644660940673L5.964644660940673,12.035355339059327L5.735714285714286,11.806424963832939L5.735714285714286,11.163567820975796L5.521428571428571,10.949282106690081L5.521428571428571,10.520710678118654L5.0928571428571425,10.092139249547223L5.0928571428571425,9.877853535261512L4.878571428571429,9.663567820975796L4.878571428571429,9.23499639240437L3.8071428571428574,8.163567820975796L3.8071428571428574,7.907860750452773L4.050717893309916,7.664285714285715z" stroke="none"/><path d="M4.69357503616706,2.7357142857142858L7.69357503616706,2.7357142857142858L7.907860750452773,2.521428571428572L9.877853535261512,2.521428571428572L10.092139249547223,2.7357142857142858L10.306424963832939,2.7357142857142858L10.535355339059327,2.9646446609406727L10.464644660940673,3.0353553390593273L10.26500360759563,2.8357142857142854L10.050717893309915,2.8357142857142854L9.836432179024204,2.6214285714285714L7.949282106690083,2.6214285714285714L7.734996392404369,2.8357142857142854L4.834996392404369,2.8357142857142854L4.949282106690084,2.95L5.163567820975797,2.95L6.234996392404369,4.021428571428571L6.449282106690083,4.021428571428571L6.907142857142857,4.479289321881345L6.907142857142857,5.336432179024202L7.535355339059327,5.964644660940673L7.464644660940673,6.035355339059327L6.807142857142857,5.3778535352615116L6.807142857142857,4.520710678118655L6.407860750452773,4.121428571428571L6.19357503616706,4.121428571428571L5.122146464738488,3.05L4.907860750452774,3.05L4.714285714285714,2.85642496383294L4.55,3.020710678118655L4.55,3.234996392404369L3.2642857142857142,4.520710678118655L3.2642857142857142,5.3778535352615116L3.05,5.592139249547226L3.05,6L2.95,6L2.95,5.550717893309916L3.1642857142857146,5.336432179024202L3.1642857142857146,4.479289321881345L4.45,3.1935750361670596L4.45,2.979289321881345z" stroke="none"/><path d="M10.26500360759563,9.164285714285715L10.520710678118654,9.164285714285715L10.949282106690081,9.592857142857142L11.377853535261512,9.592857142857142L11.592139249547223,9.807142857142857L11.806424963832939,9.807142857142857L12.020710678118654,10.021428571428569L12.449282106690081,10.021428571428569L12.877853535261512,10.45L13.092139249547223,10.45L13.306424963832939,10.664285714285715L13.520710678118654,10.664285714285715L13.73499639240437,10.878571428571426L13.949282106690081,10.878571428571426L15.035355339059327,11.964644660940673L14.964644660940673,12.035355339059327L13.907860750452773,10.978571428571428L13.693575036167061,10.978571428571428L13.479289321881346,10.764285714285716L13.26500360759563,10.764285714285716L13.050717893309915,10.55L12.836432179024204,10.55L12.407860750452773,10.12142857142857L11.979289321881346,10.12142857142857L11.76500360759563,9.907142857142858L11.550717893309915,9.907142857142858L11.336432179024204,9.692857142857143L10.907860750452773,9.692857142857143L10.479289321881346,9.264285714285716L10.335714285714285,9.264285714285716L10.335714285714285,9.407860750452773L11.377853535261512,10.45L11.592139249547223,10.45L11.806424963832939,10.664285714285715L12.23499639240437,10.664285714285715L12.449282106690081,10.878571428571426L12.663567820975796,10.878571428571426L12.877853535261512,11.092857142857142L13.306424963832939,11.092857142857142L13.520710678118654,11.307142857142857L13.73499639240437,11.307142857142857L14.377853535261512,11.95L14.592139249547223,11.95L14.806424963832939,12.164285714285715L16.050717893309915,12.164285714285715L16.26500360759563,11.95L16.5,11.95L16.5,12.05L16.30642496383294,12.05L16.092139249547223,12.264285714285716L14.76500360759563,12.264285714285716L14.550717893309915,12.05L14.336432179024204,12.05L13.693575036167061,11.407142857142858L13.479289321881346,11.407142857142858L13.26500360759563,11.192857142857143L12.836432179024204,11.192857142857143L12.622146464738488,10.978571428571428L12.407860750452773,10.978571428571428L12.193575036167061,10.764285714285716L11.76500360759563,10.764285714285716L11.550717893309915,10.55L11.336432179024204,10.55L10.235714285714284,9.449282106690081L10.235714285714284,9.33499639240437L9.449282106690081,10.12142857142857L8.592139249547223,10.12142857142857L8.407142857142858,10.306424963832939L8.407142857142858,10.520710678118654L7.949282106690083,10.978571428571428L6.622146464738488,10.978571428571428L6.407860750452773,10.764285714285716L6.19357503616706,10.764285714285716L5.964644660940673,10.535355339059327L6.035355339059327,10.464644660940673L6.234996392404369,10.664285714285715L6.449282106690083,10.664285714285715L6.663567820975797,10.878571428571426L7.907860750452773,10.878571428571426L8.307142857142857,10.479289321881346L8.307142857142857,10.26500360759563L8.550717893309915,10.021428571428569L9.407860750452773,10.021428571428569z" stroke="none"/><path d="M15.807142857142857,7.45L15.807142857142857,7.265003607595631L16.050717893309915,7.021428571428571L16.94928210669008,7.021428571428571L17.163567820975796,7.235714285714286L18.020710678118654,7.235714285714286L18.23499639240437,7.45L21,7.45L21,7.55L18.19357503616706,7.55L17.979289321881346,7.335714285714285L17.12214646473849,7.335714285714285L16.907860750452773,7.121428571428571L16.092139249547223,7.121428571428571L15.907142857142858,7.30642496383294L15.907142857142858,7.479289321881345L16.12142857142857,7.69357503616706L16.12142857142857,8.336432179024204L16.55,8.76500360759563L16.55,9L16.45,9L16.45,8.806424963832939L16.02142857142857,8.377853535261512L16.02142857142857,7.734996392404369L15.907142857142858,7.620710678118654L15.907142857142858,7.734996392404369L15.692857142857143,7.949282106690083L15.692857142857143,8.163567820975796L15.478571428571428,8.377853535261512L15.478571428571428,8.592139249547223L15.264285714285716,8.806424963832939L15.264285714285716,10.306424963832939L15.035355339059327,10.535355339059327L14.964644660940673,10.464644660940673L15.164285714285715,10.26500360759563L15.164285714285715,8.76500360759563L15.378571428571426,8.550717893309915L15.378571428571426,8.336432179024204L15.592857142857142,8.122146464738488L15.592857142857142,7.907860750452773L15.807142857142857,7.69357503616706L15.807142857142857,7.55L15.663567820975796,7.55L15.264285714285716,7.949282106690083L15.264285714285716,8.377853535261512L15.05,8.592139249547223L15.05,9.663567820975796L14.835714285714285,9.877853535261512L14.835714285714285,10.693575036167061L15.020710678118654,10.878571428571426L17.163567820975796,10.878571428571426L17.37785353526151,11.092857142857142L18.020710678118654,11.092857142857142L18.23499639240437,11.307142857142857L18.663567820975796,11.307142857142857L19.30642496383294,11.95L19.5,11.95L19.5,12.05L19.26500360759563,12.05L18.62214646473849,11.407142857142858L18.19357503616706,11.407142857142858L17.979289321881346,11.192857142857143L17.336432179024204,11.192857142857143L17.12214646473849,10.978571428571428L14.979289321881346,10.978571428571428L14.735714285714284,10.73499639240437L14.735714285714284,9.836432179024204L14.95,9.622146464738488L14.95,8.550717893309915L15.164285714285715,8.336432179024204L15.164285714285715,7.907860750452773L15.622146464738488,7.45z" stroke="none"/><path d="M21.807142857142857,2.95L21.807142857142857,2.765003607595631L22.05071789330992,2.521428571428572L23.163567820975796,2.521428571428572L23.37785353526151,2.7357142857142858L23.592139249547223,2.7357142857142858L23.80642496383294,2.95L24,2.95L24,3.05L23.76500360759563,3.05L23.550717893309915,2.8357142857142854L23.336432179024204,2.8357142857142854L23.12214646473849,2.6214285714285714L22.092139249547227,2.6214285714285714L21.90714285714286,2.8064249638329404L21.90714285714286,2.979289321881345L22.121428571428574,3.1935750361670596L22.121428571428574,3.8364321790242024L22.55,4.265003607595631L22.55,4.5L22.45,4.5L22.45,4.30642496383294L22.021428571428572,3.877853535261512L22.021428571428572,3.234996392404369L21.90714285714286,3.120710678118655L21.90714285714286,4.050717893309916L22.335714285714285,4.479289321881345L22.335714285714285,4.69357503616706L22.73499639240437,5.0928571428571425L22.94928210669008,5.0928571428571425L23.80642496383294,5.95L24,5.95L24,6.05L23.76500360759563,6.05L22.907860750452773,5.192857142857142L22.69357503616706,5.192857142857142L22.235714285714284,4.734996392404369L22.235714285714284,4.520710678118655L21.807142857142857,4.092139249547226L21.807142857142857,3.05L21.663567820975796,3.05L21.478571428571428,3.234996392404369L21.478571428571428,3.4078607504527736L21.692857142857143,3.622146464738488L21.692857142857143,4.265003607595631L22.121428571428574,4.69357503616706L22.121428571428574,4.907860750452774L23.592139249547223,6.378571428571428L23.80642496383294,6.378571428571428L24.020710678118654,6.5928571428571425L24.23499639240437,6.5928571428571425L24.87785353526151,7.235714285714286L25.30642496383294,7.235714285714286L25.53535533905933,7.464644660940673L25.46464466094067,7.535355339059327L25.26500360759563,7.335714285714285L24.836432179024204,7.335714285714285L24.19357503616706,6.692857142857142L23.979289321881346,6.692857142857142L23.76500360759563,6.478571428571428L23.550717893309915,6.478571428571428L22.021428571428572,4.949282106690084L22.021428571428572,4.734996392404369L21.59285714285714,4.30642496383294L21.59285714285714,3.6635678209757976L21.378571428571426,3.449282106690083L21.378571428571426,3.1935750361670596L21.62214646473849,2.95z" stroke="none"/><path d="M4.45,2.3071428571428574L4.45,2.122146464738488L4.69357503616706,1.8785714285714286L10.306424963832939,1.8785714285714286L10.520710678118654,2.092857142857143L10.949282106690081,2.092857142857143L11.192857142857143,2.3364321790242024L11.192857142857143,5.163567820975797L10.764285714285716,5.592139249547226L10.764285714285716,5.80642496383294L10.535355339059327,6.035355339059327L10.464644660940673,5.964644660940673L10.664285714285715,5.765003607595631L10.664285714285715,5.550717893309916L11.092857142857142,5.122146464738488L11.092857142857142,2.377853535261512L10.907860750452773,2.1928571428571426L10.479289321881346,2.1928571428571426L10.26500360759563,1.9785714285714286L4.734996392404369,1.9785714285714286L4.55,2.1635678209757976L4.55,2.3071428571428574L10.73499639240437,2.3071428571428574L10.978571428571428,2.550717893309917L10.978571428571428,3.449282106690083L10.306424963832939,4.121428571428571L10.092139249547223,4.121428571428571L9.877853535261512,4.335714285714285L9.449282106690081,4.335714285714285L9.23499639240437,4.55L9,4.55L9,4.45L9.193575036167061,4.45L9.407860750452773,4.235714285714286L9.836432179024204,4.235714285714286L10.050717893309915,4.021428571428571L10.26500360759563,4.021428571428571L10.878571428571426,3.4078607504527736L10.878571428571426,2.5921392495472264L10.693575036167061,2.407142857142857L4.55,2.407142857142857L4.55,2.5921392495472264L3.05,4.092139249547226L3.05,5.163567820975797L2.407142857142857,5.80642496383294L2.407142857142857,6.19357503616706L2.5921392495472264,6.378571428571428L3.4078607504527736,6.378571428571428L3.8071428571428574,5.979289321881345L3.8071428571428574,5.765003607595631L4.021428571428571,5.550717893309916L4.021428571428571,5.336432179024202L4.235714285714286,5.122146464738488L4.235714285714286,4.907860750452774L4.45,4.69357503616706L4.45,4.5L4.55,4.5L4.55,4.734996392404369L4.335714285714285,4.949282106690084L4.335714285714285,5.163567820975797L4.121428571428571,5.3778535352615116L4.121428571428571,5.592139249547226L3.907142857142857,5.80642496383294L3.907142857142857,6.020710678118655L3.449282106690083,6.478571428571428L2.550717893309917,6.478571428571428L2.3071428571428574,6.234996392404369L2.3071428571428574,5.765003607595631L2.95,5.122146464738488L2.95,4.050717893309916L4.45,2.550717893309917L4.45,2.407142857142857L4.30642496383294,2.407142857142857L3.877853535261512,2.8357142857142854L3.449282106690083,2.8357142857142854L3.234996392404369,3.05L3,3.05L3,2.95L3.1935750361670596,2.95L3.4078607504527736,2.7357142857142858L3.8364321790242024,2.7357142857142858L4.265003607595631,2.3071428571428574z" stroke="none"/><path d="M22.5,3.05L22.5,2.95L23.163567820975796,2.95L23.592139249547223,3.3785714285714286L24.407860750452773,3.3785714285714286L24.59285714285714,3.1935750361670596L24.59285714285714,2.8064249638329404L24.407860750452773,2.6214285714285714L23.550717893309915,2.6214285714285714L23.336432179024204,2.407142857142857L21.87785353526151,2.407142857142857L21.44928210669008,2.8357142857142854L21.23499639240437,2.8357142857142854L21.03535533905933,3.0353553390593273L20.96464466094067,2.9646446609406727L21.19357503616706,2.7357142857142858L21.407860750452773,2.7357142857142858L21.836432179024204,2.3071428571428574L23.37785353526151,2.3071428571428574L23.592139249547223,2.521428571428572L24.44928210669008,2.521428571428572L24.692857142857143,2.765003607595631L24.692857142857143,3.234996392404369L24.44928210669008,3.478571428571428L23.550717893309915,3.478571428571428L23.12214646473849,3.05z" stroke="none"/><path d="M25.55,4.5L25.45,4.5L25.45,3L25.55,3z" stroke="none"/><path d="M11.95,7.5L12.05,7.5L12.05,9L11.95,9z" stroke="none"/><path d="M7.464644660940673,4.535355339059327L7.535355339059327,4.464644660940673L7.978571428571428,4.907860750452774L7.978571428571428,6.449282106690083L7.734996392404369,6.692857142857142L7.265003607595631,6.692857142857142L7.050717893309916,6.478571428571428L6.836432179024202,6.478571428571428L6.622146464738488,6.264285714285714L6.19357503616706,6.264285714285714L5.964644660940673,6.035355339059327L6.035355339059327,5.964644660940673L6.234996392404369,6.164285714285715L6.663567820975797,6.164285714285715L6.8778535352615116,6.378571428571428L7.092139249547226,6.378571428571428L7.30642496383294,6.5928571428571425L7.69357503616706,6.5928571428571425L7.878571428571428,6.407860750452773L7.878571428571428,4.949282106690084z" stroke="none"/><path d="M4.55,10.5L4.45,10.5L4.45,10.306424963832939L4.021428571428571,9.877853535261512L4.021428571428571,9.663567820975796L3.8071428571428574,9.449282106690081L3.8071428571428574,9.23499639240437L3.592857142857143,9.020710678118654L3.592857142857143,7.69357503616706L3.8364321790242024,7.45L5.122146464738488,7.45L5.550717893309916,7.021428571428571L5.765003607595631,7.021428571428571L5.979289321881345,6.807142857142857L6.234996392404369,6.807142857142857L6.478571428571428,7.050717893309916L6.478571428571428,8.377853535261512L6.264285714285714,8.592139249547223L6.264285714285714,8.806424963832939L6.035355339059327,9.035355339059327L5.964644660940673,8.964644660940673L6.164285714285715,8.76500360759563L6.164285714285715,8.550717893309915L6.378571428571428,8.336432179024204L6.378571428571428,7.092139249547226L6.19357503616706,6.907142857142857L6.020710678118655,6.907142857142857L5.80642496383294,7.121428571428571L5.592139249547226,7.121428571428571L5.163567820975797,7.55L3.877853535261512,7.55L3.6928571428571426,7.734996392404369L3.6928571428571426,8.979289321881346L3.907142857142857,9.193575036167061L3.907142857142857,9.407860750452773L4.121428571428571,9.622146464738488L4.121428571428571,9.836432179024204L4.55,10.26500360759563z" stroke="none"/><path d="M16.45,3L16.55,3L16.55,3.622146464738488L17.192857142857143,4.265003607595631L17.192857142857143,4.479289321881345L18.44928210669008,5.735714285714286L19.092139249547227,5.735714285714286L19.30642496383294,5.95L19.5,5.95L19.5,6.05L19.26500360759563,6.05L19.05071789330992,5.835714285714285L18.407860750452773,5.835714285714285L17.09285714285714,4.520710678118655L17.09285714285714,4.30642496383294L16.45,3.6635678209757976z" stroke="none"/><path d="M21,12.05L21,11.95L21.62214646473849,11.95L21.836432179024204,11.735714285714284L22.05071789330992,11.735714285714284L22.26500360759563,11.521428571428569L24.87785353526151,11.521428571428569L25.30642496383294,11.95L25.5,11.95L25.5,12.05L25.26500360759563,12.05L24.836432179024204,11.62142857142857L22.30642496383294,11.62142857142857L22.092139249547227,11.835714285714285L21.87785353526151,11.835714285714285L21.663567820975796,12.05z" stroke="none"/><path d="M8.964644660940673,10.464644660940673L9.035355339059327,10.535355339059327L7.949282106690083,11.62142857142857L7.734996392404369,11.62142857142857L7.520710678118655,11.835714285714285L7.30642496383294,11.835714285714285L6.8778535352615116,12.264285714285716L6.663567820975797,12.264285714285716L6.449282106690083,12.478571428571428L5.550717893309916,12.478571428571428L5.336432179024202,12.264285714285716L4.69357503616706,12.264285714285716L4.464644660940673,12.035355339059327L4.535355339059327,11.964644660940673L4.734996392404369,12.164285714285715L5.3778535352615116,12.164285714285715L5.592139249547226,12.378571428571426L6.407860750452773,12.378571428571426L6.622146464738488,12.164285714285715L6.836432179024202,12.164285714285715L7.265003607595631,11.735714285714284L7.479289321881345,11.735714285714284L7.69357503616706,11.521428571428569L7.907860750452773,11.521428571428569z" stroke="none"/><path d="M18,9.05L18,8.95L18.663567820975796,8.95L19.092139249547227,9.378571428571426L21.020710678118654,9.378571428571426L21.87785353526151,10.235714285714284L22.30642496383294,10.235714285714284L22.53535533905933,10.464644660940673L22.46464466094067,10.535355339059327L22.26500360759563,10.335714285714285L21.836432179024204,10.335714285714285L20.979289321881346,9.478571428571428L19.05071789330992,9.478571428571428L18.62214646473849,9.05z" stroke="none"/><path d="M23.95,4.5L24.05,4.5L24.05,4.69357503616706L24.692857142857143,5.336432179024202L24.692857142857143,5.765003607595631L25.12142857142857,6.19357503616706L25.12142857142857,6.407860750452773L25.520710678118654,6.807142857142857L25.73499639240437,6.807142857142857L25.978571428571428,7.050717893309916L25.978571428571428,7.949282106690083L25.764285714285716,8.163567820975796L25.764285714285716,8.592139249547223L25.55,8.806424963832939L25.55,9L25.45,9L25.45,8.76500360759563L25.664285714285715,8.550717893309915L25.664285714285715,8.122146464738488L25.878571428571426,7.907860750452773L25.878571428571426,7.092139249547226L25.69357503616706,6.907142857142857L25.479289321881346,6.907142857142857L25.02142857142857,6.449282106690083L25.02142857142857,6.234996392404369L24.59285714285714,5.80642496383294L24.59285714285714,5.3778535352615116L23.95,4.734996392404369z" stroke="none"/><path d="M10.535355339059327,7.464644660940673L10.464644660940673,7.535355339059327L10.26500360759563,7.335714285714285L10.050717893309915,7.335714285714285L9.836432179024204,7.121428571428571L7.69357503616706,7.121428571428571L7.479289321881345,6.907142857142857L6.836432179024202,6.907142857142857L6.622146464738488,6.692857142857142L5.765003607595631,6.692857142857142L5.521428571428571,6.449282106690083L5.521428571428571,5.122146464738488L5.95,4.69357503616706L5.95,4.5L6.05,4.5L6.05,4.734996392404369L5.621428571428571,5.163567820975797L5.621428571428571,6.407860750452773L5.80642496383294,6.5928571428571425L6.663567820975797,6.5928571428571425L6.8778535352615116,6.807142857142857L7.520710678118655,6.807142857142857L7.734996392404369,7.021428571428571L9.877853535261512,7.021428571428571L10.092139249547223,7.235714285714286L10.306424963832939,7.235714285714286z" stroke="none"/><path d="M18,2.95L18,3.05L17.336432179024204,3.05L16.907860750452773,2.6214285714285714L16.092139249547223,2.6214285714285714L15.692857142857143,3.020710678118655L15.692857142857143,3.234996392404369L13.978571428571428,4.949282106690084L13.978571428571428,5.163567820975797L13.764285714285716,5.3778535352615116L13.764285714285716,5.592139249547226L13.55,5.80642496383294L13.55,6L13.45,6L13.45,5.765003607595631L13.664285714285715,5.550717893309916L13.664285714285715,5.336432179024202L13.878571428571426,5.122146464738488L13.878571428571426,4.907860750452774L15.592857142857142,3.1935750361670596L15.592857142857142,2.979289321881345L16.050717893309915,2.521428571428572L16.94928210669008,2.521428571428572L17.37785353526151,2.95z" stroke="none"/><path d="M27,10.45L27,10.55L26.550717893309915,10.55L26.12214646473849,10.12142857142857L25.907860750452773,10.12142857142857L25.69357503616706,9.907142857142858L24.62214646473849,9.907142857142858L24.407860750452773,9.692857142857143L23.979289321881346,9.692857142857143L23.76500360759563,9.478571428571428L23.336432179024204,9.478571428571428L23.12214646473849,9.264285714285716L21.19357503616706,9.264285714285716L20.96464466094067,9.035355339059327L21.03535533905933,8.964644660940673L21.23499639240437,9.164285714285715L23.163567820975796,9.164285714285715L23.37785353526151,9.378571428571426L23.80642496383294,9.378571428571426L24.020710678118654,9.592857142857142L24.44928210669008,9.592857142857142L24.663567820975796,9.807142857142857L25.73499639240437,9.807142857142857L25.94928210669008,10.021428571428569L26.163567820975796,10.021428571428569L26.592139249547223,10.45z" stroke="none"/><path d="M21,10.55L21,10.45L21.663567820975796,10.45L22.092139249547227,10.878571428571426L27.407860750452773,10.878571428571426L27.59285714285714,10.693575036167061L27.59285714285714,10.092139249547223L27.378571428571426,9.877853535261512L27.378571428571426,9.663567820975796L26.95,9.23499639240437L26.95,9L27.05,9L27.05,9.193575036167061L27.478571428571428,9.622146464738488L27.478571428571428,9.836432179024204L27.692857142857143,10.050717893309915L27.692857142857143,10.73499639240437L27.44928210669008,10.978571428571428L22.05071789330992,10.978571428571428L21.62214646473849,10.55z" stroke="none"/><path d="M19.53535533905933,3.0353553390593273L19.46464466094067,2.9646446609406727L19.69357503616706,2.7357142857142858L20.336432179024204,2.7357142857142858L20.76500360759563,2.3071428571428574L21.407860750452773,2.3071428571428574L21.62214646473849,2.092857142857143L24.663567820975796,2.092857142857143L24.87785353526151,2.3071428571428574L25.94928210669008,2.3071428571428574L26.163567820975796,2.521428571428572L26.37785353526151,2.521428571428572L26.80642496383294,2.95L27,2.95L27,3.05L26.76500360759563,3.05L26.336432179024204,2.6214285714285714L26.12214646473849,2.6214285714285714L25.907860750452773,2.407142857142857L24.836432179024204,2.407142857142857L24.62214646473849,2.1928571428571426L21.663567820975796,2.1928571428571426L21.44928210669008,2.407142857142857L20.80642496383294,2.407142857142857L20.37785353526151,2.8357142857142854L19.73499639240437,2.8357142857142854z" stroke="none"/><path d="M25.45,6L25.55,6L25.55,6.19357503616706L26.192857142857143,6.836432179024202L26.192857142857143,9.23499639240437L25.94928210669008,9.478571428571428L25.050717893309915,9.478571428571428L23.09285714285714,7.520710678118655L23.09285714285714,7.30642496383294L20.979289321881346,5.192857142857142L20.55071789330992,5.192857142857142L20.336432179024204,4.978571428571429L19.05071789330992,4.978571428571429L18.836432179024204,4.764285714285714L18.62214646473849,4.764285714285714L18.407860750452773,4.55L18,4.55L18,4.45L18.44928210669008,4.45L18.663567820975796,4.664285714285715L18.87785353526151,4.664285714285715L19.092139249547227,4.878571428571429L20.37785353526151,4.878571428571429L20.592139249547227,5.0928571428571425L21.020710678118654,5.0928571428571425L23.192857142857143,7.265003607595631L23.192857142857143,7.479289321881345L25.092139249547223,9.378571428571426L25.907860750452773,9.378571428571426L26.09285714285714,9.193575036167061L26.09285714285714,6.8778535352615116L25.45,6.234996392404369z" stroke="none"/><path d="M9,12.05L9,11.95L11.163567820975796,11.95L11.592139249547223,12.378571428571426L16.907860750452773,12.378571428571426L17.12214646473849,12.164285714285715L17.76500360759563,12.164285714285715L17.96464466094067,11.964644660940673L18.03535533905933,12.035355339059327L17.80642496383294,12.264285714285716L17.163567820975796,12.264285714285716L16.94928210669008,12.478571428571428L11.550717893309915,12.478571428571428L11.122146464738488,12.05z" stroke="none"/><path d="M12,3.05L12,2.95L12.836432179024204,2.95L13.050717893309915,2.7357142857142858L14.122146464738488,2.7357142857142858L14.336432179024204,2.521428571428572L15.407860750452773,2.521428571428572L15.622146464738488,2.3071428571428574L17.80642496383294,2.3071428571428574L18.020710678118654,2.521428571428572L18.44928210669008,2.521428571428572L18.692857142857143,2.765003607595631L18.692857142857143,2.979289321881345L19.092139249547227,3.3785714285714286L19.30642496383294,3.3785714285714286L19.73499639240437,3.8071428571428574L20.163567820975796,3.8071428571428574L20.592139249547227,4.235714285714286L20.80642496383294,4.235714285714286L21.03535533905933,4.464644660940673L20.96464466094067,4.535355339059327L20.76500360759563,4.335714285714285L20.55071789330992,4.335714285714285L20.12214646473849,3.907142857142857L19.69357503616706,3.907142857142857L19.26500360759563,3.478571428571428L19.05071789330992,3.478571428571428L18.59285714285714,3.020710678118655L18.59285714285714,2.8064249638329404L18.407860750452773,2.6214285714285714L17.979289321881346,2.6214285714285714L17.76500360759563,2.407142857142857L15.663567820975796,2.407142857142857L15.449282106690081,2.6214285714285714L14.377853535261512,2.6214285714285714L14.163567820975796,2.8357142857142854L13.092139249547223,2.8357142857142854L12.877853535261512,3.05z" stroke="none"/><path d="M19.5,9.05L19.5,8.95L19.69357503616706,8.95L20.55071789330992,8.092857142857142L21.19357503616706,8.092857142857142L21.378571428571426,7.907860750452773L21.378571428571426,7.092139249547226L21.19357503616706,6.907142857142857L11.806424963832939,6.907142857142857L11.407142857142858,7.30642496383294L11.407142857142858,7.520710678118655L10.949282106690081,7.978571428571428L9.836432179024204,7.978571428571428L9.622146464738488,7.764285714285714L9.193575036167061,7.764285714285714L8.964644660940673,7.535355339059327L9.035355339059327,7.464644660940673L9.23499639240437,7.664285714285715L9.663567820975796,7.664285714285715L9.877853535261512,7.878571428571428L10.907860750452773,7.878571428571428L11.307142857142857,7.479289321881345L11.307142857142857,7.265003607595631L11.76500360759563,6.807142857142857L21.23499639240437,6.807142857142857L21.478571428571428,7.050717893309916L21.478571428571428,7.949282106690083L21.23499639240437,8.192857142857143L20.592139249547227,8.192857142857143L19.73499639240437,9.05z" stroke="none"/><path d="M24,11.95L24,12.05L22.73499639240437,12.05L22.520710678118654,12.264285714285716L21.663567820975796,12.264285714285716L21.44928210669008,12.478571428571428L19.05071789330992,12.478571428571428L18.807142857142857,12.23499639240437L18.807142857142857,12.020710678118654L18.407860750452773,11.62142857142857L15.407860750452773,11.62142857142857L15.193575036167061,11.407142857142858L14.979289321881346,11.407142857142858L14.521428571428569,10.949282106690081L14.521428571428569,10.520710678118654L13.878571428571426,9.877853535261512L13.878571428571426,9.663567820975796L13.664285714285715,9.449282106690081L13.664285714285715,9.23499639240437L13.464644660940673,9.035355339059327L13.535355339059327,8.964644660940673L13.764285714285716,9.193575036167061L13.764285714285716,9.407860750452773L13.978571428571428,9.622146464738488L13.978571428571428,9.836432179024204L14.62142857142857,10.479289321881346L14.62142857142857,10.907860750452773L15.020710678118654,11.307142857142857L15.23499639240437,11.307142857142857L15.449282106690081,11.521428571428569L18.44928210669008,11.521428571428569L18.90714285714286,11.979289321881346L18.90714285714286,12.193575036167061L19.092139249547227,12.378571428571426L21.407860750452773,12.378571428571426L21.62214646473849,12.164285714285715L22.479289321881346,12.164285714285715L22.69357503616706,11.95z" stroke="none"/><path d="M26.95,4.5L27.05,4.5L27.05,7.479289321881345L27.264285714285716,7.69357503616706L27.264285714285716,7.907860750452773L27.478571428571428,8.122146464738488L27.478571428571428,8.979289321881346L27.692857142857143,9.193575036167061L27.692857142857143,9.622146464738488L27.90714285714286,9.836432179024204L27.90714285714286,10.949282106690081L27.663567820975796,11.192857142857143L20.55071789330992,11.192857142857143L20.336432179024204,10.978571428571428L20.12214646473849,10.978571428571428L19.907860750452773,10.764285714285716L19.69357503616706,10.764285714285716L19.479289321881346,10.55L19.05071789330992,10.55L18.62214646473849,10.12142857142857L18.407860750452773,10.12142857142857L18.19357503616706,9.907142857142858L17.979289321881346,9.907142857142858L16.878571428571426,8.806424963832939L16.878571428571426,8.592139249547223L16.664285714285715,8.377853535261512L16.664285714285715,7.949282106690083L16.45,7.734996392404369L16.45,7.5L16.55,7.5L16.55,7.69357503616706L16.764285714285716,7.907860750452773L16.764285714285716,8.336432179024204L16.978571428571428,8.550717893309915L16.978571428571428,8.76500360759563L18.020710678118654,9.807142857142857L18.23499639240437,9.807142857142857L18.44928210669008,10.021428571428569L18.663567820975796,10.021428571428569L19.092139249547227,10.45L19.520710678118654,10.45L19.73499639240437,10.664285714285715L19.94928210669008,10.664285714285715L20.163567820975796,10.878571428571426L20.37785353526151,10.878571428571426L20.592139249547227,11.092857142857142L27.62214646473849,11.092857142857142L27.807142857142857,10.907860750452773L27.807142857142857,9.877853535261512L27.59285714285714,9.663567820975796L27.59285714285714,9.23499639240437L27.378571428571426,9.020710678118654L27.378571428571426,8.163567820975796L27.164285714285715,7.949282106690083L27.164285714285715,7.734996392404369L26.95,7.520710678118655z" stroke="none"/><path d="M12,11.95L12,12.05L11.550717893309915,12.05L11.336432179024204,11.835714285714285L9.622146464738488,11.835714285714285L9.407860750452773,11.62142857142857L8.592139249547223,11.62142857142857L8.407142857142858,11.806424963832939L8.407142857142858,12.193575036167061L8.592139249547223,12.378571428571426L11.163567820975796,12.378571428571426L11.377853535261512,12.592857142857142L25.907860750452773,12.592857142857142L26.336432179024204,12.164285714285715L26.979289321881346,12.164285714285715L28.02142857142857,11.122146464738488L28.02142857142857,4.949282106690084L27.807142857142857,4.734996392404369L27.807142857142857,4.520710678118655L27.407860750452773,4.121428571428571L26.592139249547223,4.121428571428571L26.40714285714286,4.30642496383294L26.40714285714286,9.449282106690081L26.163567820975796,9.692857142857143L24.836432179024204,9.692857142857143L22.907860750452773,7.764285714285714L22.69357503616706,7.764285714285714L22.46464466094067,7.535355339059327L22.53535533905933,7.464644660940673L22.73499639240437,7.664285714285715L22.94928210669008,7.664285714285715L24.87785353526151,9.592857142857142L26.12214646473849,9.592857142857142L26.307142857142857,9.407860750452773L26.307142857142857,4.265003607595631L26.550717893309915,4.021428571428571L27.44928210669008,4.021428571428571L27.90714285714286,4.479289321881345L27.90714285714286,4.69357503616706L28.12142857142857,4.907860750452774L28.12142857142857,11.163567820975796L27.020710678118654,12.264285714285716L26.37785353526151,12.264285714285716L25.94928210669008,12.692857142857143L11.336432179024204,12.692857142857143L11.122146464738488,12.478571428571428L8.550717893309915,12.478571428571428L8.307142857142857,12.23499639240437L8.307142857142857,11.76500360759563L8.550717893309915,11.521428571428569L9.449282106690081,11.521428571428569L9.663567820975796,11.735714285714284L11.377853535261512,11.735714285714284L11.592139249547223,11.95z" stroke="none"/><path d="M8.95,3L9.05,3L9.05,3.449282106690083L8.62142857142857,3.877853535261512L8.62142857142857,4.907860750452774L10.092139249547223,6.378571428571428L19.907860750452773,6.378571428571428L20.12214646473849,6.164285714285715L20.76500360759563,6.164285714285715L20.96464466094067,5.964644660940673L21.03535533905933,6.035355339059327L20.80642496383294,6.264285714285714L20.163567820975796,6.264285714285714L19.94928210669008,6.478571428571428L10.050717893309915,6.478571428571428L8.521428571428569,4.949282106690084L8.521428571428569,3.8364321790242024L8.95,3.4078607504527736z" stroke="none"/><path d="M15,2.95L15,3.05L13.73499639240437,3.05L13.520710678118654,3.2642857142857142L12.663567820975796,3.2642857142857142L12.449282106690081,3.478571428571428L11.550717893309915,3.478571428571428L11.307142857142857,3.234996392404369L11.307142857142857,2.1635678209757976L11.122146464738488,1.9785714285714286L10.693575036167061,1.9785714285714286L10.479289321881346,1.7642857142857145L4.30642496383294,1.7642857142857145L3.877853535261512,2.1928571428571426L3.020710678118655,2.1928571428571426L2.6214285714285714,2.5921392495472264L2.6214285714285714,4.734996392404369L2.1928571428571426,5.163567820975797L2.1928571428571426,6.407860750452773L3.05,7.265003607595631L3.05,7.5L2.95,7.5L2.95,7.30642496383294L2.092857142857143,6.449282106690083L2.092857142857143,5.122146464738488L2.521428571428572,4.69357503616706L2.521428571428572,2.550717893309917L2.979289321881345,2.092857142857143L3.8364321790242024,2.092857142857143L4.265003607595631,1.6642857142857144L10.520710678118654,1.6642857142857144L10.73499639240437,1.8785714285714286L11.163567820975796,1.8785714285714286L11.407142857142858,2.122146464738488L11.407142857142858,3.1935750361670596L11.592139249547223,3.3785714285714286L12.407860750452773,3.3785714285714286L12.622146464738488,3.1642857142857146L13.479289321881346,3.1642857142857146L13.693575036167061,2.95z" stroke="none"/></svg>