<svg version="1.1" width="30" height="15" xmlns="http://www.w3.org/2000/svg"><path d="M20.76500360759563,9.807142857142857L21.19357503616706,9.378571428571426L22.69357503616706,9.378571428571426L23.550717893309915,8.521428571428569L23.979289321881346,8.521428571428569L24.62214646473849,7.878571428571428L24.836432179024204,7.878571428571428L25.26500360759563,7.45L25.5,7.45L25.5,7.55L25.30642496383294,7.55L24.87785353526151,7.978571428571428L24.663567820975796,7.978571428571428L24.020710678118654,8.62142857142857L23.592139249547223,8.62142857142857L22.73499639240437,9.478571428571428L21.23499639240437,9.478571428571428L20.80642496383294,9.907142857142858L19.55,9.907142857142858L19.55,10.5L19.45,10.5L19.45,9.907142857142858L19.30642496383294,9.907142857142858L18.90714285714286,10.306424963832939L18.90714285714286,10.520710678118654L18.44928210669008,10.978571428571428L15.020710678118654,10.978571428571428L14.806424963832939,11.192857142857143L14.592139249547223,11.192857142857143L13.73499639240437,12.05L13.5,12.05L13.5,11.95L13.693575036167061,11.95L14.550717893309915,11.092857142857142L14.76500360759563,11.092857142857142L14.979289321881346,10.878571428571426L18.407860750452773,10.878571428571426L18.807142857142857,10.479289321881346L18.807142857142857,10.26500360759563L19.26500360759563,9.807142857142857z" stroke="none"/><path d="M3.8071428571428574,4.907860750452774L3.8071428571428574,4.69357503616706L4.021428571428571,4.479289321881345L4.021428571428571,4.265003607595631L4.45,3.8364321790242024L4.45,3L4.55,3L4.55,3.877853535261512L4.121428571428571,4.30642496383294L4.121428571428571,4.520710678118655L3.907142857142857,4.734996392404369L3.907142857142857,4.907860750452774L4.335714285714285,5.336432179024202L4.335714285714285,5.765003607595631L4.535355339059327,5.964644660940673L4.464644660940673,6.035355339059327L4.235714285714286,5.80642496383294L4.235714285714286,5.3778535352615116L3.857142857142857,4.999282106690083L3.6928571428571426,5.163567820975797L3.6928571428571426,5.3778535352615116L3.0353553390593273,6.035355339059327L2.9646446609406727,5.964644660940673L3.592857142857143,5.336432179024202L3.592857142857143,5.122146464738488z" stroke="none"/><path d="M13.45,9.807142857142857L13.45,9.622146464738488L13.693575036167061,9.378571428571426L14.550717893309915,9.378571428571426L14.76500360759563,9.164285714285715L15.836432179024204,9.164285714285715L16.050717893309915,8.95L18,8.95L18,9.05L16.092139249547223,9.05L15.877853535261512,9.264285714285716L14.806424963832939,9.264285714285716L14.592139249547223,9.478571428571428L13.73499639240437,9.478571428571428L13.55,9.663567820975796L13.55,9.807142857142857L14.163567820975796,9.807142857142857L14.806424963832939,10.45L16.5,10.45L16.5,10.55L14.76500360759563,10.55L14.122146464738488,9.907142857142858L6.8778535352615116,9.907142857142858L6.234996392404369,10.55L6,10.55L6,10.45L6.19357503616706,10.45L6.836432179024202,9.807142857142857z" stroke="none"/><path d="M20.09285714285714,5.521428571428571L20.09285714285714,4.734996392404369L19.878571428571426,4.520710678118655L19.878571428571426,4.092139249547226L19.664285714285715,3.877853535261512L19.664285714285715,3.449282106690083L19.45,3.234996392404369L19.45,3L19.55,3L19.55,3.1935750361670596L19.764285714285716,3.4078607504527736L19.764285714285716,3.8364321790242024L19.978571428571428,4.050717893309916L19.978571428571428,4.479289321881345L20.192857142857143,4.69357503616706L20.192857142857143,5.521428571428571L26.163567820975796,5.521428571428571L26.592139249547223,5.95L27,5.95L27,6.05L26.550717893309915,6.05L26.12214646473849,5.621428571428571L20.163567820975796,5.621428571428571L19.94928210669008,5.835714285714285L19.73499639240437,5.835714285714285L19.53535533905933,6.035355339059327L19.46464466094067,5.964644660940673L19.69357503616706,5.735714285714286L19.907860750452773,5.735714285714286L20.022146464738487,5.621428571428571L19.520710678118654,5.621428571428571L18.87785353526151,6.264285714285714L18.23499639240437,6.264285714285714L18.020710678118654,6.478571428571428L17.163567820975796,6.478571428571428L16.94928210669008,6.692857142857142L16.092139249547223,6.692857142857142L15.877853535261512,6.907142857142857L15.663567820975796,6.907142857142857L15.035355339059327,7.535355339059327L14.964644660940673,7.464644660940673L15.622146464738488,6.807142857142857L15.836432179024204,6.807142857142857L16.050717893309915,6.5928571428571425L16.907860750452773,6.5928571428571425L17.12214646473849,6.378571428571428L17.979289321881346,6.378571428571428L18.19357503616706,6.164285714285715L18.836432179024204,6.164285714285715L19.479289321881346,5.521428571428571z" stroke="none"/><path d="M11.521428571428569,11.092857142857142L11.521428571428569,10.907860750452773L11.76500360759563,10.664285714285715L12.193575036167061,10.664285714285715L12.622146464738488,10.235714285714284L13.050717893309915,10.235714285714284L13.26500360759563,10.021428571428569L13.520710678118654,10.021428571428569L13.764285714285716,10.26500360759563L13.764285714285716,10.73499639240437L13.12142857142857,11.377853535261512L13.12142857142857,12.407860750452773L13.306424963832939,12.592857142857142L17.12214646473849,12.592857142857142L17.76500360759563,11.95L18,11.95L18,12.05L17.80642496383294,12.05L17.163567820975796,12.692857142857143L13.26500360759563,12.692857142857143L13.021428571428569,12.449282106690081L13.021428571428569,11.336432179024204L13.664285714285715,10.693575036167061L13.664285714285715,10.306424963832939L13.479289321881346,10.12142857142857L13.306424963832939,10.12142857142857L13.092139249547223,10.335714285714285L12.663567820975796,10.335714285714285L12.23499639240437,10.764285714285716L11.806424963832939,10.764285714285716L11.62142857142857,10.949282106690081L11.62142857142857,11.092857142857142L12.193575036167061,11.092857142857142L12.836432179024204,10.45L13.5,10.45L13.5,10.55L12.877853535261512,10.55L12.23499639240437,11.192857142857143L11.62142857142857,11.192857142857143L11.62142857142857,11.377853535261512L11.377853535261512,11.62142857142857L10.306424963832939,11.62142857142857L10.092139249547223,11.835714285714285L9.877853535261512,11.835714285714285L9.663567820975796,12.05L7.5,12.05L7.5,11.95L9.622146464738488,11.95L9.836432179024204,11.735714285714284L10.050717893309915,11.735714285714284L10.26500360759563,11.521428571428569L11.336432179024204,11.521428571428569L11.521428571428569,11.336432179024204L11.521428571428569,11.192857142857143L10.479289321881346,11.192857142857143L10.26500360759563,10.978571428571428L10.050717893309915,10.978571428571428L9.622146464738488,10.55L7.5,10.55L7.5,10.45L9.663567820975796,10.45L10.092139249547223,10.878571428571426L10.306424963832939,10.878571428571426L10.520710678118654,11.092857142857142z" stroke="none"/><path d="M19.45,7.664285714285715L19.45,7.479289321881345L19.69357503616706,7.235714285714286L24.836432179024204,7.235714285714286L25.050717893309915,7.021428571428571L25.94928210669008,7.021428571428571L26.192857142857143,7.265003607595631L26.192857142857143,7.734996392404369L25.94928210669008,7.978571428571428L25.520710678118654,7.978571428571428L25.30642496383294,8.192857142857143L25.092139249547223,8.192857142857143L24.44928210669008,8.835714285714285L24.23499639240437,8.835714285714285L24.03535533905933,9.035355339059327L23.96464466094067,8.964644660940673L24.19357503616706,8.735714285714284L24.407860750452773,8.735714285714284L25.050717893309915,8.092857142857142L25.26500360759563,8.092857142857142L25.479289321881346,7.878571428571428L25.907860750452773,7.878571428571428L26.09285714285714,7.69357503616706L26.09285714285714,7.30642496383294L25.907860750452773,7.121428571428571L25.092139249547223,7.121428571428571L24.87785353526151,7.335714285714285L19.73499639240437,7.335714285714285L19.55,7.520710678118655L19.55,7.664285714285715L23.76500360759563,7.664285714285715L23.96464466094067,7.464644660940673L24.03535533905933,7.535355339059327L23.80642496383294,7.764285714285714L19.55,7.764285714285714L19.55,7.949282106690083L19.30642496383294,8.192857142857143L15.622146464738488,8.192857142857143L15.407860750452773,7.978571428571428L14.550717893309915,7.978571428571428L14.336432179024204,7.764285714285714L13.693575036167061,7.764285714285714L13.464644660940673,7.535355339059327L13.535355339059327,7.464644660940673L13.73499639240437,7.664285714285715L14.377853535261512,7.664285714285715L14.592139249547223,7.878571428571428L15.449282106690081,7.878571428571428L15.663567820975796,8.092857142857142L19.26500360759563,8.092857142857142L19.45,7.907860750452773L19.45,7.764285714285714L18.663567820975796,7.764285714285714L18.44928210669008,7.978571428571428L17.336432179024204,7.978571428571428L17.12214646473849,7.764285714285714L16.907860750452773,7.764285714285714L16.69357503616706,7.55L16.5,7.55L16.5,7.45L16.73499639240437,7.45L16.94928210669008,7.664285714285715L17.163567820975796,7.664285714285715L17.37785353526151,7.878571428571428L18.407860750452773,7.878571428571428L18.62214646473849,7.664285714285715z" stroke="none"/><path d="M25.55,10.5L25.45,10.5L25.45,9L25.55,9z" stroke="none"/><path d="M6.05,6L5.95,6L5.95,4.5L6.05,4.5z" stroke="none"/><path d="M6,11.95L6,12.05L4.5,12.05L4.5,11.95z" stroke="none"/><path d="M24,6.05L24,5.95L26.163567820975796,5.95L26.592139249547223,6.378571428571428L27.407860750452773,6.378571428571428L27.59285714285714,6.19357503616706L27.59285714285714,5.80642496383294L27.407860750452773,5.621428571428571L26.76500360759563,5.621428571428571L26.550717893309915,5.407142857142857L23.76500360759563,5.407142857142857L23.336432179024204,4.978571428571429L23.12214646473849,4.978571428571429L22.69357503616706,4.55L22.5,4.55L22.5,4.45L22.73499639240437,4.45L23.163567820975796,4.878571428571429L23.37785353526151,4.878571428571429L23.80642496383294,5.307142857142857L26.592139249547223,5.307142857142857L26.80642496383294,5.521428571428571L27.44928210669008,5.521428571428571L27.692857142857143,5.765003607595631L27.692857142857143,6.234996392404369L27.44928210669008,6.478571428571428L26.550717893309915,6.478571428571428L26.12214646473849,6.05z" stroke="none"/><path d="M22.5,11.95L22.5,12.05L19.5,12.05L19.5,11.95z" stroke="none"/><path d="M10.45,4.5L10.55,4.5L10.55,4.69357503616706L10.978571428571428,5.122146464738488L10.978571428571428,6.449282106690083L10.764285714285716,6.663567820975797L10.764285714285716,7.30642496383294L10.535355339059327,7.535355339059327L10.464644660940673,7.464644660940673L10.664285714285715,7.265003607595631L10.664285714285715,6.622146464738488L10.878571428571426,6.407860750452773L10.878571428571426,5.163567820975797L10.45,4.734996392404369z" stroke="none"/><path d="M24,4.55L24,4.45L24.44928210669008,4.45L24.87785353526151,4.878571428571429L26.12214646473849,4.878571428571429L26.336432179024204,4.664285714285715L26.550717893309915,4.664285714285715L26.76500360759563,4.45L27,4.45L27,4.55L26.80642496383294,4.55L26.592139249547223,4.764285714285714L26.37785353526151,4.764285714285714L26.163567820975796,4.978571428571429L24.836432179024204,4.978571428571429L24.407860750452773,4.55z" stroke="none"/><path d="M24,10.55L24,10.45L24.44928210669008,10.45L24.87785353526151,10.878571428571426L26.550717893309915,10.878571428571426L26.96464466094067,10.464644660940673L27.03535533905933,10.535355339059327L26.592139249547223,10.978571428571428L24.836432179024204,10.978571428571428L24.407860750452773,10.55z" stroke="none"/><path d="M22.5,3.05L22.5,2.95L22.94928210669008,2.95L23.163567820975796,3.1642857142857146L23.37785353526151,3.1642857142857146L23.80642496383294,3.592857142857143L24.23499639240437,3.592857142857143L24.87785353526151,4.235714285714286L25.30642496383294,4.235714285714286L25.53535533905933,4.464644660940673L25.46464466094067,4.535355339059327L25.26500360759563,4.335714285714285L24.836432179024204,4.335714285714285L24.19357503616706,3.6928571428571426L23.76500360759563,3.6928571428571426L23.336432179024204,3.2642857142857142L23.12214646473849,3.2642857142857142L22.907860750452773,3.05z" stroke="none"/><path d="M4.535355339059327,9.035355339059327L4.464644660940673,8.964644660940673L5.336432179024202,8.092857142857142L5.550717893309916,8.092857142857142L5.979289321881345,7.664285714285715L6.407860750452773,7.664285714285715L6.622146464738488,7.45L7.5,7.45L7.5,7.55L6.663567820975797,7.55L6.449282106690083,7.764285714285714L6.020710678118655,7.764285714285714L5.592139249547226,8.192857142857143L5.3778535352615116,8.192857142857143z" stroke="none"/><path d="M7.5,4.55L7.5,4.45L8.122146464738488,4.45L8.336432179024204,4.235714285714286L8.550717893309915,4.235714285714286L8.76500360759563,4.021428571428571L11.377853535261512,4.021428571428571L11.592139249547223,4.235714285714286L11.806424963832939,4.235714285714286L12.035355339059327,4.464644660940673L11.964644660940673,4.535355339059327L11.76500360759563,4.335714285714285L11.550717893309915,4.335714285714285L11.336432179024204,4.121428571428571L8.806424963832939,4.121428571428571L8.592139249547223,4.335714285714285L8.377853535261512,4.335714285714285L8.163567820975796,4.55z" stroke="none"/><path d="M13.5,4.55L13.5,4.45L14.122146464738488,4.45L14.336432179024204,4.235714285714286L14.550717893309915,4.235714285714286L14.76500360759563,4.021428571428571L17.37785353526151,4.021428571428571L17.80642496383294,4.45L18,4.45L18,4.55L17.76500360759563,4.55L17.336432179024204,4.121428571428571L14.806424963832939,4.121428571428571L14.592139249547223,4.335714285714285L14.377853535261512,4.335714285714285L14.163567820975796,4.55z" stroke="none"/><path d="M22.46464466094067,5.964644660940673L22.53535533905933,6.035355339059327L22.30642496383294,6.264285714285714L22.092139249547227,6.264285714285714L21.87785353526151,6.478571428571428L21.663567820975796,6.478571428571428L21.44928210669008,6.692857142857142L21.23499639240437,6.692857142857142L21.020710678118654,6.907142857142857L19.73499639240437,6.907142857142857L19.520710678118654,7.121428571428571L18.663567820975796,7.121428571428571L18.23499639240437,7.55L18,7.55L18,7.45L18.19357503616706,7.45L18.62214646473849,7.021428571428571L19.479289321881346,7.021428571428571L19.69357503616706,6.807142857142857L20.979289321881346,6.807142857142857L21.19357503616706,6.5928571428571425L21.407860750452773,6.5928571428571425L21.62214646473849,6.378571428571428L21.836432179024204,6.378571428571428L22.05071789330992,6.164285714285715L22.26500360759563,6.164285714285715z" stroke="none"/><path d="M7.5,5.95L7.5,6.05L7.30642496383294,6.05L7.092139249547226,6.264285714285714L6.8778535352615116,6.264285714285714L6.449282106690083,6.692857142857142L6.020710678118655,6.692857142857142L5.592139249547226,7.121428571428571L5.163567820975797,7.121428571428571L4.949282106690084,7.335714285714285L3.449282106690083,7.335714285714285L3.234996392404369,7.55L3,7.55L3,7.45L3.1935750361670596,7.45L3.4078607504527736,7.235714285714286L4.907860750452774,7.235714285714286L5.122146464738488,7.021428571428571L5.550717893309916,7.021428571428571L5.979289321881345,6.5928571428571425L6.407860750452773,6.5928571428571425L6.836432179024202,6.164285714285715L7.050717893309916,6.164285714285715L7.265003607595631,5.95z" stroke="none"/><path d="M10.5,5.95L10.5,6.05L10.26500360759563,6.05L10.050717893309915,5.835714285714285L9.836432179024204,5.835714285714285L9.622146464738488,5.621428571428571L7.69357503616706,5.621428571428571L6.807142857142857,4.734996392404369L6.807142857142857,4.30642496383294L5.95,3.449282106690083L5.95,3L6.05,3L6.05,3.4078607504527736L6.907142857142857,4.265003607595631L6.907142857142857,4.69357503616706L7.734996392404369,5.521428571428571L9.663567820975796,5.521428571428571L9.877853535261512,5.735714285714286L10.092139249547223,5.735714285714286L10.306424963832939,5.95z" stroke="none"/><path d="M3,9.05L3,8.95L3.449282106690083,8.95L3.877853535261512,9.378571428571426L5.550717893309916,9.378571428571426L5.765003607595631,9.164285714285715L7.69357503616706,9.164285714285715L7.907860750452773,8.95L9,8.95L9,9.05L7.949282106690083,9.05L7.734996392404369,9.264285714285716L5.80642496383294,9.264285714285716L5.592139249547226,9.478571428571428L3.8364321790242024,9.478571428571428L3.4078607504527736,9.05z" stroke="none"/><path d="M26.96464466094067,7.464644660940673L27.03535533905933,7.535355339059327L26.163567820975796,8.407142857142858L25.94928210669008,8.407142857142858L25.73499639240437,8.62142857142857L25.092139249547223,8.62142857142857L24.478571428571428,9.23499639240437L24.478571428571428,9.449282106690081L24.020710678118654,9.907142857142858L22.520710678118654,9.907142857142858L22.30642496383294,10.12142857142857L21.44928210669008,10.12142857142857L21.03535533905933,10.535355339059327L20.96464466094067,10.464644660940673L21.407860750452773,10.021428571428569L22.26500360759563,10.021428571428569L22.479289321881346,9.807142857142857L23.979289321881346,9.807142857142857L24.378571428571426,9.407860750452773L24.378571428571426,9.193575036167061L25.050717893309915,8.521428571428569L25.69357503616706,8.521428571428569L25.907860750452773,8.307142857142857L26.12214646473849,8.307142857142857z" stroke="none"/><path d="M8.964644660940673,6.035355339059327L9.035355339059327,5.964644660940673L9.907142857142858,6.836432179024202L9.907142857142858,7.69357503616706L10.092139249547223,7.878571428571428L10.907860750452773,7.878571428571428L11.092857142857142,7.69357503616706L11.092857142857142,6.622146464738488L11.307142857142857,6.407860750452773L11.307142857142857,6.19357503616706L12.807142857142857,4.69357503616706L12.807142857142857,4.479289321881345L13.021428571428569,4.265003607595631L13.021428571428569,4.050717893309916L13.907860750452773,3.1642857142857146L14.550717893309915,3.1642857142857146L14.76500360759563,2.95L15,2.95L15,3.05L14.806424963832939,3.05L14.592139249547223,3.2642857142857142L13.949282106690081,3.2642857142857142L13.12142857142857,4.092139249547226L13.12142857142857,4.30642496383294L12.907142857142858,4.520710678118655L12.907142857142858,4.734996392404369L11.407142857142858,6.234996392404369L11.407142857142858,6.449282106690083L11.192857142857143,6.663567820975797L11.192857142857143,7.734996392404369L10.949282106690081,7.978571428571428L10.050717893309915,7.978571428571428L9.807142857142857,7.734996392404369L9.807142857142857,6.8778535352615116z" stroke="none"/><path d="M16.46464466094067,4.464644660940673L16.53535533905933,4.535355339059327L14.806424963832939,6.264285714285714L14.592139249547223,6.264285714285714L13.949282106690081,6.907142857142857L13.306424963832939,6.907142857142857L12.23499639240437,7.978571428571428L12.020710678118654,7.978571428571428L11.806424963832939,8.192857142857143L11.592139249547223,8.192857142857143L11.377853535261512,8.407142857142858L11.163567820975796,8.407142857142858L10.535355339059327,9.035355339059327L10.464644660940673,8.964644660940673L11.122146464738488,8.307142857142857L11.336432179024204,8.307142857142857L11.550717893309915,8.092857142857142L11.76500360759563,8.092857142857142L11.979289321881346,7.878571428571428L12.193575036167061,7.878571428571428L13.26500360759563,6.807142857142857L13.907860750452773,6.807142857142857L14.550717893309915,6.164285714285715L14.76500360759563,6.164285714285715z" stroke="none"/><path d="M16.53535533905933,2.9646446609406727L16.46464466094067,3.0353553390593273L16.26500360759563,2.8357142857142854L16.050717893309915,2.8357142857142854L15.836432179024204,2.6214285714285714L10.092139249547223,2.6214285714285714L9.877853535261512,2.8357142857142854L9.23499639240437,2.8357142857142854L9.035355339059327,3.0353553390593273L8.964644660940673,2.9646446609406727L9.193575036167061,2.7357142857142858L9.836432179024204,2.7357142857142858L10.050717893309915,2.521428571428572L15.877853535261512,2.521428571428572L16.092139249547223,2.7357142857142858L16.30642496383294,2.7357142857142858z" stroke="none"/><path d="M12,2.95L12,3.05L10.306424963832939,3.05L10.092139249547223,3.2642857142857142L9.877853535261512,3.2642857142857142L9.663567820975796,3.478571428571428L8.550717893309915,3.478571428571428L8.307142857142857,3.234996392404369L8.307142857142857,2.765003607595631L8.550717893309915,2.521428571428572L9.622146464738488,2.521428571428572L9.836432179024204,2.3071428571428574L16.73499639240437,2.3071428571428574L17.621428571428574,3.1935750361670596L17.621428571428574,3.4078607504527736L18.23499639240437,4.021428571428571L18.87785353526151,4.021428571428571L19.30642496383294,4.45L19.5,4.45L19.5,4.55L19.26500360759563,4.55L18.836432179024204,4.121428571428571L18.19357503616706,4.121428571428571L17.521428571428572,3.449282106690083L17.521428571428572,3.234996392404369L16.69357503616706,2.407142857142857L9.877853535261512,2.407142857142857L9.663567820975796,2.6214285714285714L8.592139249547223,2.6214285714285714L8.407142857142858,2.8064249638329404L8.407142857142858,3.1935750361670596L8.592139249547223,3.3785714285714286L9.622146464738488,3.3785714285714286L9.836432179024204,3.1642857142857146L10.050717893309915,3.1642857142857146L10.26500360759563,2.95z" stroke="none"/><path d="M27,2.95L27,3.05L23.336432179024204,3.05L22.907860750452773,2.6214285714285714L19.092139249547227,2.6214285714285714L18.87785353526151,2.8357142857142854L18.23499639240437,2.8357142857142854L18.03535533905933,3.0353553390593273L17.96464466094067,2.9646446609406727L18.19357503616706,2.7357142857142858L18.836432179024204,2.7357142857142858L19.05071789330992,2.521428571428572L22.94928210669008,2.521428571428572L23.37785353526151,2.95z" stroke="none"/><path d="M27,11.95L27,12.05L23.80642496383294,12.05L23.592139249547223,12.264285714285716L23.163567820975796,12.264285714285716L22.94928210669008,12.478571428571428L18.020710678118654,12.478571428571428L17.592139249547227,12.907142857142858L8.122146464738488,12.907142857142858L7.69357503616706,12.478571428571428L7.050717893309916,12.478571428571428L6.378571428571428,11.806424963832939L6.378571428571428,11.592139249547223L5.979289321881345,11.192857142857143L5.765003607595631,11.192857142857143L5.521428571428571,10.949282106690081L5.521428571428571,10.050717893309915L5.765003607595631,9.807142857142857L6.407860750452773,9.807142857142857L6.622146464738488,9.592857142857142L13.050717893309915,9.592857142857142L13.479289321881346,9.164285714285715L14.122146464738488,9.164285714285715L14.336432179024204,8.95L15.622146464738488,8.95L15.836432179024204,8.735714285714284L17.12214646473849,8.735714285714284L17.336432179024204,8.521428571428569L18.44928210669008,8.521428571428569L18.692857142857143,8.76500360759563L18.692857142857143,9.449282106690081L18.264285714285716,9.877853535261512L18.264285714285716,10.092139249547223L18.05,10.306424963832939L18.05,10.5L17.95,10.5L17.95,10.26500360759563L18.164285714285715,10.050717893309915L18.164285714285715,9.836432179024204L18.59285714285714,9.407860750452773L18.59285714285714,8.806424963832939L18.407860750452773,8.62142857142857L17.37785353526151,8.62142857142857L17.163567820975796,8.835714285714285L15.877853535261512,8.835714285714285L15.663567820975796,9.05L14.377853535261512,9.05L14.163567820975796,9.264285714285716L13.520710678118654,9.264285714285716L13.092139249547223,9.692857142857143L6.663567820975797,9.692857142857143L6.449282106690083,9.907142857142858L5.80642496383294,9.907142857142858L5.621428571428571,10.092139249547223L5.621428571428571,10.907860750452773L5.80642496383294,11.092857142857142L6.020710678118655,11.092857142857142L6.478571428571428,11.550717893309915L6.478571428571428,11.76500360759563L7.092139249547226,12.378571428571426L7.734996392404369,12.378571428571426L8.163567820975796,12.807142857142857L17.55071789330992,12.807142857142857L17.979289321881346,12.378571428571426L22.907860750452773,12.378571428571426L23.12214646473849,12.164285714285715L23.550717893309915,12.164285714285715L23.76500360759563,11.95z" stroke="none"/><path d="M22.5,10.55L22.5,10.45L22.73499639240437,10.45L22.94928210669008,10.664285714285715L23.37785353526151,10.664285714285715L23.592139249547223,10.878571428571426L23.80642496383294,10.878571428571426L24.020710678118654,11.092857142857142L27.020710678118654,11.092857142857142L27.478571428571428,11.550717893309915L27.478571428571428,12.449282106690081L27.23499639240437,12.692857142857143L18.44928210669008,12.692857142857143L18.23499639240437,12.907142857142858L18.020710678118654,12.907142857142858L17.80642496383294,13.12142857142857L4.907860750452774,13.12142857142857L4.69357503616706,12.907142857142858L4.479289321881345,12.907142857142858L4.021428571428571,12.449282106690081L4.021428571428571,11.550717893309915L4.664285714285715,10.907860750452773L4.664285714285715,10.693575036167061L5.307142857142857,10.050717893309915L5.307142857142857,9.836432179024204L5.550717893309916,9.592857142857142L6.19357503616706,9.592857142857142L6.407860750452773,9.378571428571426L9.407860750452773,9.378571428571426L9.592857142857142,9.193575036167061L9.592857142857142,8.979289321881346L10.479289321881346,8.092857142857142L11.122146464738488,8.092857142857142L13.26500360759563,5.95L13.5,5.95L13.5,6.05L13.306424963832939,6.05L11.163567820975796,8.192857142857143L10.520710678118654,8.192857142857143L9.692857142857143,9.020710678118654L9.692857142857143,9.23499639240437L9.449282106690081,9.478571428571428L6.449282106690083,9.478571428571428L6.234996392404369,9.692857142857143L5.592139249547226,9.692857142857143L5.407142857142857,9.877853535261512L5.407142857142857,10.092139249547223L4.764285714285714,10.73499639240437L4.764285714285714,10.949282106690081L4.121428571428571,11.592139249547223L4.121428571428571,12.407860750452773L4.520710678118655,12.807142857142857L4.734996392404369,12.807142857142857L4.949282106690084,13.021428571428569L17.76500360759563,13.021428571428569L17.979289321881346,12.807142857142857L18.19357503616706,12.807142857142857L18.407860750452773,12.592857142857142L27.19357503616706,12.592857142857142L27.378571428571426,12.407860750452773L27.378571428571426,11.592139249547223L26.979289321881346,11.192857142857143L23.979289321881346,11.192857142857143L23.76500360759563,10.978571428571428L23.550717893309915,10.978571428571428L23.336432179024204,10.764285714285716L22.907860750452773,10.764285714285716L22.69357503616706,10.55z" stroke="none"/></svg>