<svg version="1.1" width="30" height="15" xmlns="http://www.w3.org/2000/svg"><path d="M7.092139249547226,2.3071428571428574L7.520710678118655,2.7357142857142858L7.949282106690083,2.7357142857142858L8.592139249547223,3.3785714285714286L9.020710678118654,3.3785714285714286L9.23499639240437,3.592857142857143L9.663567820975796,3.592857142857143L9.877853535261512,3.8071428571428574L11.163567820975796,3.8071428571428574L13.306424963832939,5.95L13.5,5.95L13.5,6.05L13.26500360759563,6.05L11.122146464738488,3.907142857142857L9.836432179024204,3.907142857142857L9.622146464738488,3.6928571428571426L9.193575036167061,3.6928571428571426L8.979289321881346,3.478571428571428L8.550717893309915,3.478571428571428L7.907860750452773,2.8357142857142854L7.479289321881345,2.8357142857142854L7.050717893309916,2.407142857142857L5.835714285714285,2.407142857142857L5.835714285714285,2.765003607595631L6.035355339059327,2.9646446609406727L5.964644660940673,3.0353553390593273L5.735714285714286,2.8064249638329404L5.735714285714286,2.407142857142857L5.592139249547226,2.407142857142857L5.407142857142857,2.5921392495472264L5.407142857142857,3.6635678209757976L5.192857142857142,3.877853535261512L5.192857142857142,4.949282106690084L4.764285714285714,5.3778535352615116L4.764285714285714,5.592139249547226L4.55,5.80642496383294L4.55,6L4.45,6L4.45,5.765003607595631L4.664285714285715,5.550717893309916L4.664285714285715,5.336432179024202L5.0928571428571425,4.907860750452774L5.0928571428571425,3.8364321790242024L5.307142857142857,3.622146464738488L5.307142857142857,2.550717893309917L5.550717893309916,2.3071428571428574z" stroke="none"/><path d="M17.37785353526151,8.307142857142857L17.592139249547227,8.307142857142857L18.23499639240437,8.95L18.663567820975796,8.95L19.092139249547227,9.378571428571426L21.87785353526151,9.378571428571426L22.092139249547227,9.592857142857142L22.94928210669008,9.592857142857142L25.30642496383294,11.95L25.5,11.95L25.5,12.05L25.26500360759563,12.05L22.907860750452773,9.692857142857143L22.05071789330992,9.692857142857143L21.836432179024204,9.478571428571428L19.05071789330992,9.478571428571428L18.62214646473849,9.05L18.19357503616706,9.05L17.55071789330992,8.407142857142858L17.40714285714286,8.407142857142858L17.40714285714286,9.23499639240437L17.192857142857143,9.449282106690081L17.192857142857143,9.663567820975796L16.978571428571428,9.877853535261512L16.978571428571428,10.949282106690081L16.764285714285716,11.163567820975796L16.764285714285716,11.592139249547223L16.55,11.806424963832939L16.55,12L16.45,12L16.45,11.76500360759563L16.664285714285715,11.550717893309915L16.664285714285715,11.122146464738488L16.878571428571426,10.907860750452773L16.878571428571426,9.836432179024204L17.09285714285714,9.622146464738488L17.09285714285714,9.407860750452773L17.307142857142857,9.193575036167061L17.307142857142857,8.377853535261512L16.46464466094067,7.535355339059327L16.53535533905933,7.464644660940673z" stroke="none"/><path d="M4.235714285714286,8.979289321881346L4.479289321881345,8.735714285714284L4.734996392404369,8.735714285714284L6.020710678118655,10.021428571428569L6.234996392404369,10.021428571428569L6.663567820975797,10.45L6.8778535352615116,10.45L7.30642496383294,10.878571428571426L7.520710678118655,10.878571428571426L7.734996392404369,11.092857142857142L7.949282106690083,11.092857142857142L8.806424963832939,11.95L9,11.95L9,12.05L8.76500360759563,12.05L7.907860750452773,11.192857142857143L7.69357503616706,11.192857142857143L7.479289321881345,10.978571428571428L7.265003607595631,10.978571428571428L6.836432179024202,10.55L6.622146464738488,10.55L6.19357503616706,10.12142857142857L5.979289321881345,10.12142857142857L4.69357503616706,8.835714285714285L4.520710678118655,8.835714285714285L4.335714285714285,9.020710678118654L4.335714285714285,9.164285714285715L4.520710678118655,9.164285714285715L5.621428571428571,10.26500360759563L5.621428571428571,10.693575036167061L5.835714285714285,10.907860750452773L5.835714285714285,11.550717893309915L6.05,11.76500360759563L6.05,12L5.95,12L5.95,11.806424963832939L5.735714285714286,11.592139249547223L5.735714285714286,10.949282106690081L5.521428571428571,10.73499639240437L5.521428571428571,10.306424963832939L4.479289321881345,9.264285714285716L4.335714285714285,9.264285714285716L4.335714285714285,10.26500360759563L4.535355339059327,10.464644660940673L4.464644660940673,10.535355339059327L4.235714285714286,10.306424963832939z" stroke="none"/><path d="M16.878571428571426,4.45L16.878571428571426,4.265003607595631L17.12214646473849,4.021428571428571L18.020710678118654,4.021428571428571L18.264285714285716,4.265003607595631L18.264285714285716,5.979289321881345L18.692857142857143,6.407860750452773L18.692857142857143,7.907860750452773L19.335714285714285,8.550717893309915L19.335714285714285,8.76500360759563L19.53535533905933,8.964644660940673L19.46464466094067,9.035355339059327L19.235714285714284,8.806424963832939L19.235714285714284,8.592139249547223L18.59285714285714,7.949282106690083L18.59285714285714,6.449282106690083L18.164285714285715,6.020710678118655L18.164285714285715,4.30642496383294L17.979289321881346,4.121428571428571L17.163567820975796,4.121428571428571L16.978571428571428,4.30642496383294L16.978571428571428,4.45L18,4.45L18,4.55L16.978571428571428,4.55L16.978571428571428,5.163567820975797L16.764285714285716,5.3778535352615116L16.764285714285716,5.592139249547226L16.55,5.80642496383294L16.55,6.020710678118655L16.12142857142857,6.449282106690083L16.12142857142857,7.907860750452773L16.335714285714285,8.122146464738488L16.335714285714285,8.550717893309915L16.55,8.76500360759563L16.55,9L16.45,9L16.45,8.806424963832939L16.235714285714284,8.592139249547223L16.235714285714284,8.163567820975796L16.02142857142857,7.949282106690083L16.02142857142857,6.407860750452773L16.45,5.979289321881345L16.45,5.765003607595631L16.664285714285715,5.550717893309916L16.664285714285715,5.336432179024202L16.878571428571426,5.122146464738488L16.878571428571426,4.55L16.69357503616706,4.55L16.45,4.30642496383294L16.45,4.050717893309916L16.69357503616706,3.8071428571428574L18.23499639240437,3.8071428571428574L18.478571428571428,4.050717893309916L18.478571428571428,4.907860750452774L18.90714285714286,5.336432179024202L18.90714285714286,7.69357503616706L19.092139249547227,7.878571428571428L19.907860750452773,7.878571428571428L20.521428571428572,7.265003607595631L20.521428571428572,7.050717893309916L21.807142857142857,5.765003607595631L21.807142857142857,5.550717893309916L22.021428571428572,5.336432179024202L22.021428571428572,5.122146464738488L22.45,4.69357503616706L22.45,4.5L22.55,4.5L22.55,4.734996392404369L22.121428571428574,5.163567820975797L22.121428571428574,5.3778535352615116L21.90714285714286,5.592139249547226L21.90714285714286,5.80642496383294L20.621428571428574,7.092139249547226L20.621428571428574,7.30642496383294L19.94928210669008,7.978571428571428L19.05071789330992,7.978571428571428L18.807142857142857,7.734996392404369L18.807142857142857,5.3778535352615116L18.378571428571426,4.949282106690084L18.378571428571426,4.092139249547226L18.19357503616706,3.907142857142857L16.73499639240437,3.907142857142857L16.55,4.092139249547226L16.55,4.265003607595631L16.73499639240437,4.45z" stroke="none"/><path d="M8.307142857142857,2.4507178933099167L8.307142857142857,2.3364321790242024L8.550717893309915,2.092857142857143L15.449282106690081,2.092857142857143L16.092139249547223,2.7357142857142858L16.30642496383294,2.7357142857142858L16.53535533905933,2.9646446609406727L16.46464466094067,3.0353553390593273L16.26500360759563,2.8357142857142854L16.050717893309915,2.8357142857142854L15.407860750452773,2.1928571428571426L8.592139249547223,2.1928571428571426L8.407142857142858,2.377853535261512L8.407142857142858,2.521428571428572L9.020710678118654,2.521428571428572L9.449282106690081,2.95L10.5,2.95L10.5,3.05L9.407860750452773,3.05L8.979289321881346,2.6214285714285714L8.407142857142858,2.6214285714285714L8.407142857142858,2.765003607595631L8.592139249547223,2.95L9.020710678118654,2.95L9.23499639240437,3.1642857142857146L10.520710678118654,3.1642857142857146L10.73499639240437,3.3785714285714286L11.163567820975796,3.3785714285714286L12.663567820975796,4.878571428571429L13.092139249547223,4.878571428571429L13.306424963832939,5.0928571428571425L13.520710678118654,5.0928571428571425L13.978571428571428,5.550717893309916L13.978571428571428,6.449282106690083L13.73499639240437,6.692857142857142L11.550717893309915,6.692857142857142L11.336432179024204,6.478571428571428L11.122146464738488,6.478571428571428L10.693575036167061,6.05L10.5,6.05L10.5,5.95L10.73499639240437,5.95L11.163567820975796,6.378571428571428L11.377853535261512,6.378571428571428L11.592139249547223,6.5928571428571425L13.693575036167061,6.5928571428571425L13.878571428571426,6.407860750452773L13.878571428571426,5.592139249547226L13.479289321881346,5.192857142857142L13.26500360759563,5.192857142857142L13.050717893309915,4.978571428571429L12.622146464738488,4.978571428571429L11.122146464738488,3.478571428571428L10.693575036167061,3.478571428571428L10.479289321881346,3.2642857142857142L9.193575036167061,3.2642857142857142L8.979289321881346,3.05L8.550717893309915,3.05L8.307142857142857,2.8064249638329404L8.307142857142857,2.5921392495472264L8.122146464738488,2.407142857142857L7.69357503616706,2.407142857142857L7.479289321881345,2.1928571428571426L5.3778535352615116,2.1928571428571426L5.192857142857142,2.377853535261512L5.192857142857142,3.449282106690083L4.978571428571429,3.6635678209757976L4.978571428571429,4.30642496383294L4.764285714285714,4.520710678118655L4.764285714285714,4.734996392404369L4.121428571428571,5.3778535352615116L4.121428571428571,6.836432179024202L4.55,7.265003607595631L4.55,7.5L4.45,7.5L4.45,7.30642496383294L4.021428571428571,6.8778535352615116L4.021428571428571,5.336432179024202L4.664285714285715,4.69357503616706L4.664285714285715,4.479289321881345L4.878571428571429,4.265003607595631L4.878571428571429,3.622146464738488L5.0928571428571425,3.4078607504527736L5.0928571428571425,2.3364321790242024L5.336432179024202,2.092857142857143L7.520710678118655,2.092857142857143L7.734996392404369,2.3071428571428574L8.163567820975796,2.3071428571428574z" stroke="none"/><path d="M20.307142857142857,3.8071428571428574L20.307142857142857,3.622146464738488L20.55071789330992,3.3785714285714286L24.407860750452773,3.3785714285714286L25.050717893309915,2.7357142857142858L25.73499639240437,2.7357142857142858L25.978571428571428,2.979289321881345L25.978571428571428,6.8778535352615116L25.55,7.30642496383294L25.55,7.5L25.45,7.5L25.45,7.265003607595631L25.878571428571426,6.836432179024202L25.878571428571426,3.020710678118655L25.69357503616706,2.8357142857142854L25.092139249547223,2.8357142857142854L24.44928210669008,3.478571428571428L20.592139249547227,3.478571428571428L20.40714285714286,3.6635678209757976L20.40714285714286,3.8071428571428574L24.19357503616706,3.8071428571428574L24.407860750452773,3.592857142857143L24.836432179024204,3.592857142857143L25.46464466094067,2.9646446609406727L25.53535533905933,3.0353553390593273L24.87785353526151,3.6928571428571426L24.44928210669008,3.6928571428571426L24.23499639240437,3.907142857142857L20.40714285714286,3.907142857142857L20.40714285714286,4.092139249547226L19.978571428571428,4.520710678118655L19.978571428571428,4.949282106690084L19.764285714285716,5.163567820975797L19.764285714285716,5.80642496383294L19.53535533905933,6.035355339059327L19.46464466094067,5.964644660940673L19.664285714285715,5.765003607595631L19.664285714285715,5.122146464738488L19.878571428571426,4.907860750452774L19.878571428571426,4.479289321881345L20.307142857142857,4.050717893309916L20.307142857142857,3.907142857142857L20.163567820975796,3.907142857142857L19.764285714285716,4.30642496383294L19.764285714285716,4.734996392404369L19.55,4.949282106690084L19.55,5.592139249547226L19.335714285714285,5.80642496383294L19.335714285714285,7.265003607595631L19.53535533905933,7.464644660940673L19.46464466094067,7.535355339059327L19.235714285714284,7.30642496383294L19.235714285714284,5.765003607595631L19.45,5.550717893309916L19.45,4.907860750452774L19.664285714285715,4.69357503616706L19.664285714285715,4.265003607595631L20.12214646473849,3.8071428571428574z" stroke="none"/><path d="M13.45,9L13.55,9L13.55,10.5L13.45,10.5z" stroke="none"/><path d="M7.464644660940673,6.035355339059327L7.535355339059327,5.964644660940673L9.035355339059327,7.464644660940673L8.964644660940673,7.535355339059327z" stroke="none"/><path d="M24.05,9L23.95,9L23.95,6L24.05,6z" stroke="none"/><path d="M24,2.95L24,3.05L21,3.05L21,2.95z" stroke="none"/><path d="M17.95,10.5L18.05,10.5L18.05,10.73499639240437L17.835714285714285,10.949282106690081L17.835714285714285,11.163567820975796L17.192857142857143,11.806424963832939L17.192857142857143,12.23499639240437L16.94928210669008,12.478571428571428L16.050717893309915,12.478571428571428L15.807142857142857,12.23499639240437L15.807142857142857,10.73499639240437L15.592857142857142,10.520710678118654L15.592857142857142,9.877853535261512L15.164285714285715,9.449282106690081L15.164285714285715,9.23499639240437L14.964644660940673,9.035355339059327L15.035355339059327,8.964644660940673L15.264285714285716,9.193575036167061L15.264285714285716,9.407860750452773L15.692857142857143,9.836432179024204L15.692857142857143,10.479289321881346L15.907142857142858,10.693575036167061L15.907142857142858,12.193575036167061L16.092139249547223,12.378571428571426L16.907860750452773,12.378571428571426L17.09285714285714,12.193575036167061L17.09285714285714,11.76500360759563L17.735714285714284,11.122146464738488L17.735714285714284,10.907860750452773L17.95,10.693575036167061z" stroke="none"/><path d="M12,10.45L12,10.55L11.336432179024204,10.55L10.693575036167061,9.907142857142858L10.26500360759563,9.907142857142858L10.050717893309915,9.692857142857143L9.622146464738488,9.692857142857143L8.964644660940673,9.035355339059327L9.035355339059327,8.964644660940673L9.663567820975796,9.592857142857142L10.092139249547223,9.592857142857142L10.306424963832939,9.807142857142857L10.73499639240437,9.807142857142857L11.377853535261512,10.45z" stroke="none"/><path d="M9.035355339059327,10.464644660940673L8.964644660940673,10.535355339059327L8.735714285714284,10.306424963832939L8.735714285714284,9.663567820975796L8.521428571428569,9.449282106690081L8.521428571428569,8.550717893309915L8.76500360759563,8.307142857142857L10.693575036167061,8.307142857142857L11.336432179024204,7.664285714285715L11.76500360759563,7.664285714285715L11.964644660940673,7.464644660940673L12.035355339059327,7.535355339059327L11.806424963832939,7.764285714285714L11.377853535261512,7.764285714285714L10.73499639240437,8.407142857142858L8.806424963832939,8.407142857142858L8.62142857142857,8.592139249547223L8.62142857142857,9.407860750452773L8.835714285714285,9.622146464738488L8.835714285714285,10.26500360759563z" stroke="none"/><path d="M26.96464466094067,10.464644660940673L27.03535533905933,10.535355339059327L26.62142857142857,10.949282106690081L26.62142857142857,11.592139249547223L26.40714285714286,11.806424963832939L26.40714285714286,12.020710678118654L25.94928210669008,12.478571428571428L25.050717893309915,12.478571428571428L24.59285714285714,12.020710678118654L24.59285714285714,11.806424963832939L24.407860750452773,11.62142857142857L24.19357503616706,11.62142857142857L23.979289321881346,11.407142857142858L23.76500360759563,11.407142857142858L23.550717893309915,11.192857142857143L23.336432179024204,11.192857142857143L22.907860750452773,10.764285714285716L22.69357503616706,10.764285714285716L22.46464466094067,10.535355339059327L22.53535533905933,10.464644660940673L22.73499639240437,10.664285714285715L22.94928210669008,10.664285714285715L23.37785353526151,11.092857142857142L23.592139249547223,11.092857142857142L23.80642496383294,11.307142857142857L24.020710678118654,11.307142857142857L24.23499639240437,11.521428571428569L24.44928210669008,11.521428571428569L24.692857142857143,11.76500360759563L24.692857142857143,11.979289321881346L25.092139249547223,12.378571428571426L25.907860750452773,12.378571428571426L26.307142857142857,11.979289321881346L26.307142857142857,11.76500360759563L26.52142857142857,11.550717893309915L26.52142857142857,10.907860750452773z" stroke="none"/><path d="M25.53535533905933,4.464644660940673L25.46464466094067,4.535355339059327L25.26500360759563,4.335714285714285L25.050717893309915,4.335714285714285L24.836432179024204,4.121428571428571L21.87785353526151,4.121428571428571L21.663567820975796,4.335714285714285L21.44928210669008,4.335714285714285L21.23499639240437,4.55L21,4.55L21,4.45L21.19357503616706,4.45L21.407860750452773,4.235714285714286L21.62214646473849,4.235714285714286L21.836432179024204,4.021428571428571L24.87785353526151,4.021428571428571L25.092139249547223,4.235714285714286L25.30642496383294,4.235714285714286z" stroke="none"/><path d="M10.5,11.95L10.5,12.05L10.26500360759563,12.05L9.622146464738488,11.407142857142858L8.979289321881346,11.407142857142858L8.521428571428569,10.949282106690081L8.521428571428569,10.092139249547223L8.307142857142857,9.877853535261512L8.307142857142857,8.336432179024204L8.550717893309915,8.092857142857142L9.407860750452773,8.092857142857142L9.836432179024204,7.664285714285715L10.26500360759563,7.664285714285715L10.464644660940673,7.464644660940673L10.535355339059327,7.535355339059327L10.306424963832939,7.764285714285714L9.877853535261512,7.764285714285714L9.449282106690081,8.192857142857143L8.592139249547223,8.192857142857143L8.407142857142858,8.377853535261512L8.407142857142858,9.836432179024204L8.62142857142857,10.050717893309915L8.62142857142857,10.907860750452773L9.020710678118654,11.307142857142857L9.663567820975796,11.307142857142857L10.306424963832939,11.95z" stroke="none"/><path d="M2.9646446609406727,7.464644660940673L3.0353553390593273,7.535355339059327L2.8357142857142854,7.734996392404369L2.8357142857142854,8.377853535261512L2.6214285714285714,8.592139249547223L2.6214285714285714,11.550717893309915L3.0353553390593273,11.964644660940673L2.9646446609406727,12.035355339059327L2.521428571428572,11.592139249547223L2.521428571428572,8.550717893309915L2.7357142857142858,8.336432179024204L2.7357142857142858,7.69357503616706z" stroke="none"/><path d="M7.5,8.95L7.5,9.05L5.336432179024202,9.05L4.907860750452774,8.62142857142857L4.30642496383294,8.62142857142857L4.121428571428571,8.806424963832939L4.121428571428571,9.020710678118654L3.6928571428571426,9.449282106690081L3.6928571428571426,9.877853535261512L3.0353553390593273,10.535355339059327L2.9646446609406727,10.464644660940673L3.592857142857143,9.836432179024204L3.592857142857143,9.407860750452773L4.021428571428571,8.979289321881346L4.021428571428571,8.76500360759563L4.265003607595631,8.521428571428569L4.949282106690084,8.521428571428569L5.3778535352615116,8.95z" stroke="none"/><path d="M14.964644660940673,6.035355339059327L15.035355339059327,5.964644660940673L15.264285714285716,6.19357503616706L15.264285714285716,7.050717893309916L15.478571428571428,7.265003607595631L15.478571428571428,7.907860750452773L15.907142857142858,8.336432179024204L15.907142857142858,8.979289321881346L16.12142857142857,9.193575036167061L16.12142857142857,9.622146464738488L16.335714285714285,9.836432179024204L16.335714285714285,10.050717893309915L16.55,10.26500360759563L16.55,10.5L16.45,10.5L16.45,10.306424963832939L16.235714285714284,10.092139249547223L16.235714285714284,9.877853535261512L16.02142857142857,9.663567820975796L16.02142857142857,9.23499639240437L15.807142857142857,9.020710678118654L15.807142857142857,8.377853535261512L15.378571428571426,7.949282106690083L15.378571428571426,7.30642496383294L15.164285714285715,7.092139249547226L15.164285714285715,6.234996392404369z" stroke="none"/><path d="M15.035355339059327,10.464644660940673L14.964644660940673,10.535355339059327L14.735714285714284,10.306424963832939L14.735714285714284,10.092139249547223L14.307142857142857,9.663567820975796L14.307142857142857,9.449282106690081L14.092857142857142,9.23499639240437L14.092857142857142,8.806424963832939L12.407860750452773,7.121428571428571L11.550717893309915,7.121428571428571L11.122146464738488,6.692857142857142L10.26500360759563,6.692857142857142L10.021428571428569,6.449282106690083L10.021428571428569,5.550717893309916L10.26500360759563,5.307142857142857L10.73499639240437,5.307142857142857L11.163567820975796,5.735714285714286L11.592139249547223,5.735714285714286L11.806424963832939,5.95L12,5.95L12,6.05L11.76500360759563,6.05L11.550717893309915,5.835714285714285L11.122146464738488,5.835714285714285L10.693575036167061,5.407142857142857L10.306424963832939,5.407142857142857L10.12142857142857,5.592139249547226L10.12142857142857,6.407860750452773L10.306424963832939,6.5928571428571425L11.163567820975796,6.5928571428571425L11.592139249547223,7.021428571428571L12.449282106690081,7.021428571428571L14.192857142857143,8.76500360759563L14.192857142857143,9.193575036167061L14.407142857142858,9.407860750452773L14.407142857142858,9.622146464738488L14.835714285714285,10.050717893309915L14.835714285714285,10.26500360759563z" stroke="none"/><path d="M5.95,4.5L6.05,4.5L6.05,4.734996392404369L5.835714285714285,4.949282106690084L5.835714285714285,5.3778535352615116L5.407142857142857,5.80642496383294L5.407142857142857,6.663567820975797L5.192857142857142,6.8778535352615116L5.192857142857142,7.734996392404369L4.949282106690084,7.978571428571428L4.520710678118655,7.978571428571428L4.30642496383294,8.192857142857143L4.092139249547226,8.192857142857143L3.449282106690083,8.835714285714285L3.234996392404369,8.835714285714285L3.0353553390593273,9.035355339059327L2.9646446609406727,8.964644660940673L3.1935750361670596,8.735714285714284L3.4078607504527736,8.735714285714284L4.050717893309916,8.092857142857142L4.265003607595631,8.092857142857142L4.479289321881345,7.878571428571428L4.907860750452774,7.878571428571428L5.0928571428571425,7.69357503616706L5.0928571428571425,6.836432179024202L5.307142857142857,6.622146464738488L5.307142857142857,5.765003607595631L5.735714285714286,5.336432179024202L5.735714285714286,4.907860750452774L5.95,4.69357503616706z" stroke="none"/><path d="M4.464644660940673,2.9646446609406727L4.535355339059327,3.0353553390593273L4.335714285714285,3.234996392404369L4.335714285714285,3.449282106690083L4.121428571428571,3.6635678209757976L4.121428571428571,4.092139249547226L3.907142857142857,4.30642496383294L3.907142857142857,4.734996392404369L3.6928571428571426,4.949282106690084L3.6928571428571426,5.3778535352615116L3.478571428571428,5.592139249547226L3.478571428571428,5.80642496383294L3.05,6.234996392404369L3.05,6.449282106690083L2.6214285714285714,6.8778535352615116L2.6214285714285714,8.163567820975796L2.407142857142857,8.377853535261512L2.407142857142857,12.193575036167061L2.5921392495472264,12.378571428571426L9.407860750452773,12.378571428571426L9.592857142857142,12.193575036167061L9.592857142857142,11.806424963832939L9.407860750452773,11.62142857142857L8.76500360759563,11.62142857142857L8.307142857142857,11.163567820975796L8.307142857142857,10.306424963832939L8.092857142857142,10.092139249547223L8.092857142857142,8.377853535261512L7.664285714285715,7.949282106690083L7.664285714285715,7.520710678118655L7.45,7.30642496383294L7.45,7.092139249547226L7.235714285714286,6.8778535352615116L7.235714285714286,6.663567820975797L7.021428571428571,6.449282106690083L7.021428571428571,5.550717893309916L7.265003607595631,5.307142857142857L7.734996392404369,5.307142857142857L8.377853535261512,5.95L9,5.95L9,6.05L8.336432179024204,6.05L7.69357503616706,5.407142857142857L7.30642496383294,5.407142857142857L7.121428571428571,5.592139249547226L7.121428571428571,6.407860750452773L7.335714285714285,6.622146464738488L7.335714285714285,6.836432179024202L7.55,7.050717893309916L7.55,7.265003607595631L7.764285714285714,7.479289321881345L7.764285714285714,7.907860750452773L8.192857142857143,8.336432179024204L8.192857142857143,10.050717893309915L8.407142857142858,10.26500360759563L8.407142857142858,11.122146464738488L8.806424963832939,11.521428571428569L9.449282106690081,11.521428571428569L9.692857142857143,11.76500360759563L9.692857142857143,12.23499639240437L9.449282106690081,12.478571428571428L2.550717893309917,12.478571428571428L2.3071428571428574,12.23499639240437L2.3071428571428574,8.336432179024204L2.521428571428572,8.122146464738488L2.521428571428572,6.836432179024202L2.95,6.407860750452773L2.95,6.19357503616706L3.3785714285714286,5.765003607595631L3.3785714285714286,5.550717893309916L3.592857142857143,5.336432179024202L3.592857142857143,4.907860750452774L3.8071428571428574,4.69357503616706L3.8071428571428574,4.265003607595631L4.021428571428571,4.050717893309916L4.021428571428571,3.622146464738488L4.235714285714286,3.4078607504527736L4.235714285714286,3.1935750361670596z" stroke="none"/><path d="M24,11.95L24,12.05L22.479289321881346,12.05L22.05071789330992,11.62142857142857L19.092139249547227,11.62142857142857L18.87785353526151,11.835714285714285L18.23499639240437,11.835714285714285L18.03535533905933,12.035355339059327L17.96464466094067,11.964644660940673L18.19357503616706,11.735714285714284L18.836432179024204,11.735714285714284L19.05071789330992,11.521428571428569L22.092139249547227,11.521428571428569L22.520710678118654,11.95z" stroke="none"/><path d="M23.95,4.5L24.05,4.5L24.05,4.907860750452774L24.264285714285716,5.122146464738488L24.264285714285716,5.336432179024202L24.478571428571428,5.550717893309916L24.478571428571428,7.265003607595631L25.092139249547223,7.878571428571428L25.907860750452773,7.878571428571428L26.09285714285714,7.69357503616706L26.09285714285714,2.8064249638329404L25.907860750452773,2.6214285714285714L18.663567820975796,2.6214285714285714L18.44928210669008,2.8357142857142854L18.23499639240437,2.8357142857142854L18.03535533905933,3.0353553390593273L17.96464466094067,2.9646446609406727L18.19357503616706,2.7357142857142858L18.407860750452773,2.7357142857142858L18.62214646473849,2.521428571428572L25.94928210669008,2.521428571428572L26.192857142857143,2.765003607595631L26.192857142857143,7.734996392404369L25.94928210669008,7.978571428571428L25.050717893309915,7.978571428571428L24.378571428571426,7.30642496383294L24.378571428571426,5.592139249547226L24.164285714285715,5.3778535352615116L24.164285714285715,5.163567820975797L23.95,4.949282106690084z" stroke="none"/><path d="M22.45,7.5L22.55,7.5L22.55,7.907860750452773L22.978571428571428,8.336432179024204L22.978571428571428,8.76500360759563L23.592139249547223,9.378571428571426L24.407860750452773,9.378571428571426L25.479289321881346,8.307142857142857L25.907860750452773,8.307142857142857L26.307142857142857,7.907860750452773L26.307142857142857,4.907860750452774L26.52142857142857,4.69357503616706L26.52142857142857,3.8364321790242024L26.735714285714284,3.622146464738488L26.735714285714284,3.4078607504527736L26.95,3.1935750361670596L26.95,3L27.05,3L27.05,3.234996392404369L26.835714285714285,3.449282106690083L26.835714285714285,3.6635678209757976L26.62142857142857,3.877853535261512L26.62142857142857,4.734996392404369L26.40714285714286,4.949282106690084L26.40714285714286,7.949282106690083L25.94928210669008,8.407142857142858L25.520710678118654,8.407142857142858L24.44928210669008,9.478571428571428L23.550717893309915,9.478571428571428L22.878571428571426,8.806424963832939L22.878571428571426,8.377853535261512L22.45,7.949282106690083z" stroke="none"/><path d="M12,12.05L12,11.95L12.449282106690081,11.95L12.663567820975796,12.164285714285715L13.092139249547223,12.164285714285715L13.520710678118654,12.592857142857142L18.407860750452773,12.592857142857142L18.62214646473849,12.378571428571426L18.836432179024204,12.378571428571426L19.26500360759563,11.95L19.5,11.95L19.5,12.05L19.30642496383294,12.05L18.87785353526151,12.478571428571428L18.663567820975796,12.478571428571428L18.44928210669008,12.692857142857143L13.479289321881346,12.692857142857143L13.050717893309915,12.264285714285716L12.622146464738488,12.264285714285716L12.407860750452773,12.05z" stroke="none"/><path d="M15,11.95L15,12.05L13.050717893309915,12.05L12.622146464738488,11.62142857142857L11.592139249547223,11.62142857142857L11.407142857142858,11.806424963832939L11.407142857142858,11.979289321881346L11.62142857142857,12.193575036167061L11.62142857142857,12.407860750452773L11.806424963832939,12.592857142857142L12.877853535261512,12.592857142857142L13.092139249547223,12.807142857142857L25.907860750452773,12.807142857142857L26.735714285714284,11.979289321881346L26.735714285714284,11.550717893309915L27.378571428571426,10.907860750452773L27.378571428571426,10.092139249547223L27.19357503616706,9.907142857142858L23.979289321881346,9.907142857142858L23.76500360759563,9.692857142857143L23.336432179024204,9.692857142857143L21.407860750452773,7.764285714285714L21.19357503616706,7.764285714285714L20.96464466094067,7.535355339059327L21.03535533905933,7.464644660940673L21.23499639240437,7.664285714285715L21.44928210669008,7.664285714285715L23.37785353526151,9.592857142857142L23.80642496383294,9.592857142857142L24.020710678118654,9.807142857142857L27.23499639240437,9.807142857142857L27.478571428571428,10.050717893309915L27.478571428571428,10.949282106690081L26.835714285714285,11.592139249547223L26.835714285714285,12.020710678118654L25.94928210669008,12.907142857142858L13.050717893309915,12.907142857142858L12.836432179024204,12.692857142857143L11.76500360759563,12.692857142857143L11.521428571428569,12.449282106690081L11.521428571428569,12.23499639240437L11.307142857142857,12.020710678118654L11.307142857142857,11.76500360759563L11.550717893309915,11.521428571428569L12.663567820975796,11.521428571428569L13.092139249547223,11.95z" stroke="none"/><path d="M27.05,4.5L26.95,4.5L26.95,4.050717893309916L27.164285714285715,3.8364321790242024L27.164285714285715,3.622146464738488L27.378571428571426,3.4078607504527736L27.378571428571426,2.5921392495472264L27.19357503616706,2.407142857142857L17.80642496383294,2.407142857142857L17.621428571428574,2.5921392495472264L17.621428571428574,2.8064249638329404L17.40714285714286,3.020710678118655L17.40714285714286,3.1935750361670596L17.592139249547227,3.3785714285714286L18.836432179024204,3.3785714285714286L19.26500360759563,2.95L19.5,2.95L19.5,3.05L19.30642496383294,3.05L18.87785353526151,3.478571428571428L17.55071789330992,3.478571428571428L17.307142857142857,3.234996392404369L17.307142857142857,2.979289321881345L17.521428571428572,2.765003607595631L17.521428571428572,2.550717893309917L17.76500360759563,2.3071428571428574L27.23499639240437,2.3071428571428574L27.478571428571428,2.550717893309917L27.478571428571428,3.449282106690083L27.264285714285716,3.6635678209757976L27.264285714285716,3.877853535261512L27.05,4.092139249547226z" stroke="none"/><path d="M3.05,4.5L2.95,4.5L2.95,3.8364321790242024L3.3785714285714286,3.4078607504527736L3.3785714285714286,3.1935750361670596L4.479289321881345,2.092857142857143L4.907860750452774,2.092857142857143L5.122146464738488,1.8785714285714286L16.092139249547223,1.8785714285714286L16.30642496383294,2.092857142857143L16.520710678118654,2.092857142857143L16.978571428571428,2.550717893309917L16.978571428571428,3.449282106690083L16.73499639240437,3.6928571428571426L14.592139249547223,3.6928571428571426L13.73499639240437,4.55L13.5,4.55L13.5,4.45L13.693575036167061,4.45L14.550717893309915,3.592857142857143L16.69357503616706,3.592857142857143L16.878571428571426,3.4078607504527736L16.878571428571426,2.5921392495472264L16.479289321881346,2.1928571428571426L16.26500360759563,2.1928571428571426L16.050717893309915,1.9785714285714286L5.163567820975797,1.9785714285714286L4.949282106690084,2.1928571428571426L4.520710678118655,2.1928571428571426L3.478571428571428,3.234996392404369L3.478571428571428,3.449282106690083L3.05,3.877853535261512z" stroke="none"/><path d="M26.95,7.5L27.05,7.5L27.05,8.550717893309915L27.478571428571428,8.979289321881346L27.478571428571428,9.622146464738488L27.692857142857143,9.836432179024204L27.692857142857143,11.163567820975796L27.478571428571428,11.377853535261512L27.478571428571428,11.592139249547223L27.264285714285716,11.806424963832939L27.264285714285716,12.020710678118654L26.163567820975796,13.12142857142857L11.979289321881346,13.12142857142857L11.76500360759563,12.907142857142858L11.550717893309915,12.907142857142858L11.307142857142857,12.663567820975796L11.307142857142857,12.449282106690081L11.092857142857142,12.23499639240437L11.092857142857142,11.550717893309915L11.336432179024204,11.307142857142857L14.76500360759563,11.307142857142857L14.979289321881346,11.092857142857142L15.193575036167061,11.092857142857142L15.378571428571426,10.907860750452773L15.378571428571426,10.092139249547223L14.979289321881346,9.692857142857143L14.76500360759563,9.692857142857143L14.521428571428569,9.449282106690081L14.521428571428569,4.907860750452774L14.964644660940673,4.464644660940673L15.035355339059327,4.535355339059327L14.62142857142857,4.949282106690084L14.62142857142857,9.407860750452773L14.806424963832939,9.592857142857142L15.020710678118654,9.592857142857142L15.478571428571428,10.050717893309915L15.478571428571428,10.949282106690081L15.23499639240437,11.192857142857143L15.020710678118654,11.192857142857143L14.806424963832939,11.407142857142858L11.377853535261512,11.407142857142858L11.192857142857143,11.592139249547223L11.192857142857143,12.193575036167061L11.407142857142858,12.407860750452773L11.407142857142858,12.622146464738488L11.592139249547223,12.807142857142857L11.806424963832939,12.807142857142857L12.020710678118654,13.021428571428569L26.12214646473849,13.021428571428569L27.164285714285715,11.979289321881346L27.164285714285715,11.76500360759563L27.378571428571426,11.550717893309915L27.378571428571426,11.336432179024204L27.59285714285714,11.122146464738488L27.59285714285714,9.877853535261512L27.378571428571426,9.663567820975796L27.378571428571426,9.020710678118654L26.95,8.592139249547223z" stroke="none"/></svg>