<svg version="1.1" width="30" height="15" xmlns="http://www.w3.org/2000/svg"><path d="M23.09285714285714,4.479289321881345L23.09285714285714,4.30642496383294L22.878571428571426,4.092139249547226L22.878571428571426,3.877853535261512L22.664285714285715,3.6635678209757976L22.664285714285715,3.449282106690083L22.45,3.234996392404369L22.45,3L22.55,3L22.55,3.1935750361670596L22.764285714285716,3.4078607504527736L22.764285714285716,3.622146464738488L22.978571428571428,3.8364321790242024L22.978571428571428,4.050717893309916L23.192857142857143,4.265003607595631L23.192857142857143,4.45L24,4.45L24,4.55L23.163567820975796,4.55L22.978571428571428,4.734996392404369L22.978571428571428,5.163567820975797L22.764285714285716,5.3778535352615116L22.764285714285716,5.592139249547226L22.55,5.80642496383294L22.55,6L22.45,6L22.45,5.765003607595631L22.664285714285715,5.550717893309916L22.664285714285715,5.336432179024202L22.878571428571426,5.122146464738488L22.878571428571426,4.69357503616706z" stroke="none"/><path d="M10.907860750452773,5.95L11.122146464738488,5.735714285714286L11.336432179024204,5.735714285714286L11.76500360759563,5.307142857142857L11.979289321881346,5.307142857142857L14.122146464738488,3.1642857142857146L14.336432179024204,3.1642857142857146L14.550717893309915,2.95L15,2.95L15,3.05L14.592139249547223,3.05L14.377853535261512,3.2642857142857142L14.163567820975796,3.2642857142857142L12.020710678118654,5.407142857142857L11.806424963832939,5.407142857142857L11.377853535261512,5.835714285714285L11.163567820975796,5.835714285714285L10.999282106690082,6L11.192857142857143,6.19357503616706L11.192857142857143,6.407860750452773L11.835714285714285,7.050717893309916L11.835714285714285,7.265003607595631L12.035355339059327,7.464644660940673L11.964644660940673,7.535355339059327L11.735714285714284,7.30642496383294L11.735714285714284,7.092139249547226L11.092857142857142,6.449282106690083L11.092857142857142,6.234996392404369L10.907860750452773,6.05L10.306424963832939,6.05L10.092139249547223,6.264285714285714L9.877853535261512,6.264285714285714L9.663567820975796,6.478571428571428L7.734996392404369,6.478571428571428L7.520710678118655,6.692857142857142L7.092139249547226,6.692857142857142L6.234996392404369,7.55L6,7.55L6,7.45L6.19357503616706,7.45L7.050717893309916,6.5928571428571425L7.479289321881345,6.5928571428571425L7.69357503616706,6.378571428571428L9.622146464738488,6.378571428571428L9.836432179024204,6.164285714285715L10.050717893309915,6.164285714285715L10.26500360759563,5.95z" stroke="none"/><path d="M17.95,11.307142857142857L17.95,11.122146464738488L18.19357503616706,10.878571428571426L19.05071789330992,10.878571428571426L19.26500360759563,10.664285714285715L19.907860750452773,10.664285714285715L20.12214646473849,10.45L21,10.45L21,10.55L20.163567820975796,10.55L19.94928210669008,10.764285714285716L19.30642496383294,10.764285714285716L19.092139249547227,10.978571428571428L18.23499639240437,10.978571428571428L18.05,11.163567820975796L18.05,11.307142857142857L19.520710678118654,11.307142857142857L19.73499639240437,11.521428571428569L19.94928210669008,11.521428571428569L20.163567820975796,11.735714285714284L20.37785353526151,11.735714285714284L20.592139249547227,11.95L21,11.95L21,12.05L20.55071789330992,12.05L20.336432179024204,11.835714285714285L20.12214646473849,11.835714285714285L19.907860750452773,11.62142857142857L19.69357503616706,11.62142857142857L19.479289321881346,11.407142857142858L12.663567820975796,11.407142857142858L12.035355339059327,12.035355339059327L11.964644660940673,11.964644660940673L12.622146464738488,11.307142857142857z" stroke="none"/><path d="M5.95,5.95L5.95,5.80642496383294L5.336432179024202,5.192857142857142L5.122146464738488,5.192857142857142L4.907860750452774,4.978571428571429L3.622146464738488,4.978571428571429L3.4078607504527736,4.764285714285714L3.1935750361670596,4.764285714285714L2.9646446609406727,4.535355339059327L3.0353553390593273,4.464644660940673L3.234996392404369,4.664285714285715L3.449282106690083,4.664285714285715L3.6635678209757976,4.878571428571429L4.949282106690084,4.878571428571429L5.163567820975797,5.0928571428571425L5.3778535352615116,5.0928571428571425L6.05,5.765003607595631L6.05,5.95L6.407860750452773,5.95L6.836432179024202,5.521428571428571L7.050717893309916,5.521428571428571L7.265003607595631,5.307142857142857L8.550717893309915,5.307142857142857L8.76500360759563,5.0928571428571425L10.693575036167061,5.0928571428571425L11.336432179024204,4.45L12,4.45L12,4.55L11.377853535261512,4.55L10.73499639240437,5.192857142857142L8.806424963832939,5.192857142857142L8.592139249547223,5.407142857142857L7.30642496383294,5.407142857142857L7.092139249547226,5.621428571428571L6.8778535352615116,5.621428571428571L6.449282106690083,6.05L6.05,6.05L6.05,6.234996392404369L5.407142857142857,6.8778535352615116L5.407142857142857,7.30642496383294L5.192857142857142,7.520710678118655L5.192857142857142,7.734996392404369L4.764285714285714,8.163567820975796L4.764285714285714,8.592139249547223L4.55,8.806424963832939L4.55,9L4.45,9L4.45,8.76500360759563L4.664285714285715,8.550717893309915L4.664285714285715,8.122146464738488L5.0928571428571425,7.69357503616706L5.0928571428571425,7.479289321881345L5.307142857142857,7.265003607595631L5.307142857142857,6.836432179024202L5.95,6.19357503616706L5.95,6.05L4.5,6.05L4.5,5.95z" stroke="none"/><path d="M18,9.572146464738488L18.19357503616706,9.378571428571426L18.407860750452773,9.378571428571426L19.021428571428572,8.76500360759563L19.021428571428572,8.336432179024204L19.235714285714284,8.122146464738488L19.235714285714284,7.69357503616706L19.46464466094067,7.464644660940673L19.53535533905933,7.535355339059327L19.335714285714285,7.734996392404369L19.335714285714285,8.163567820975796L19.121428571428574,8.377853535261512L19.121428571428574,8.806424963832939L18.44928210669008,9.478571428571428L18.23499639240437,9.478571428571428L18.120710678118655,9.592857142857142L22.69357503616706,9.592857142857142L23.979289321881346,8.307142857142857L24.19357503616706,8.307142857142857L24.407860750452773,8.092857142857142L24.836432179024204,8.092857142857142L25.26500360759563,7.664285714285715L25.479289321881346,7.664285714285715L25.69357503616706,7.45L26.12214646473849,7.45L26.550717893309915,7.021428571428571L27.44928210669008,7.021428571428571L27.692857142857143,7.265003607595631L27.692857142857143,9.020710678118654L27.478571428571428,9.23499639240437L27.478571428571428,9.449282106690081L27.264285714285716,9.663567820975796L27.264285714285716,10.092139249547223L26.62142857142857,10.73499639240437L26.62142857142857,11.377853535261512L26.192857142857143,11.806424963832939L26.192857142857143,12.23499639240437L25.94928210669008,12.478571428571428L24.836432179024204,12.478571428571428L24.62214646473849,12.264285714285716L24.19357503616706,12.264285714285716L23.96464466094067,12.035355339059327L24.03535533905933,11.964644660940673L24.23499639240437,12.164285714285715L24.663567820975796,12.164285714285715L24.87785353526151,12.378571428571426L25.907860750452773,12.378571428571426L26.09285714285714,12.193575036167061L26.09285714285714,11.76500360759563L26.52142857142857,11.336432179024204L26.52142857142857,10.693575036167061L27.164285714285715,10.050717893309915L27.164285714285715,9.622146464738488L27.378571428571426,9.407860750452773L27.378571428571426,9.193575036167061L27.59285714285714,8.979289321881346L27.59285714285714,7.30642496383294L27.407860750452773,7.121428571428571L26.592139249547223,7.121428571428571L26.163567820975796,7.55L25.73499639240437,7.55L25.520710678118654,7.764285714285714L25.30642496383294,7.764285714285714L24.87785353526151,8.192857142857143L24.44928210669008,8.192857142857143L24.23499639240437,8.407142857142858L24.020710678118654,8.407142857142858L22.73499639240437,9.692857142857143L13.949282106690081,9.692857142857143L13.306424963832939,10.335714285714285L12.23499639240437,10.335714285714285L12.035355339059327,10.535355339059327L11.964644660940673,10.464644660940673L12.193575036167061,10.235714285714284L13.26500360759563,10.235714285714284L13.907860750452773,9.592857142857142L17.879289321881345,9.592857142857142L17.76500360759563,9.478571428571428L17.55071789330992,9.478571428571428L17.336432179024204,9.264285714285716L16.907860750452773,9.264285714285716L16.69357503616706,9.05L16.5,9.05L16.5,8.95L16.73499639240437,8.95L16.94928210669008,9.164285714285715L17.37785353526151,9.164285714285715L17.592139249547227,9.378571428571426L17.80642496383294,9.378571428571426z" stroke="none"/><path d="M22.021428571428572,10.379289321881345L22.021428571428572,10.26500360759563L22.26500360759563,10.021428571428569L22.479289321881346,10.021428571428569L22.69357503616706,9.807142857142857L22.907860750452773,9.807142857142857L24.19357503616706,8.521428571428569L24.407860750452773,8.521428571428569L24.62214646473849,8.307142857142857L25.479289321881346,8.307142857142857L25.907860750452773,7.878571428571428L26.12214646473849,7.878571428571428L26.550717893309915,7.45L27,7.45L27,7.55L26.592139249547223,7.55L26.163567820975796,7.978571428571428L25.94928210669008,7.978571428571428L25.520710678118654,8.407142857142858L24.663567820975796,8.407142857142858L24.44928210669008,8.62142857142857L24.23499639240437,8.62142857142857L22.94928210669008,9.907142857142858L22.73499639240437,9.907142857142858L22.520710678118654,10.12142857142857L22.30642496383294,10.12142857142857L22.121428571428574,10.306424963832939L22.121428571428574,10.45L22.73499639240437,10.45L23.37785353526151,11.092857142857142L23.592139249547223,11.092857142857142L24.020710678118654,11.521428571428569L25.092139249547223,11.521428571428569L25.53535533905933,11.964644660940673L25.46464466094067,12.035355339059327L25.050717893309915,11.62142857142857L23.979289321881346,11.62142857142857L23.550717893309915,11.192857142857143L23.336432179024204,11.192857142857143L22.69357503616706,10.55L22.121428571428574,10.55L22.121428571428574,11.377853535261512L21.90714285714286,11.592139249547223L21.90714285714286,11.806424963832939L21.692857142857143,12.020710678118654L21.692857142857143,12.23499639240437L21.44928210669008,12.478571428571428L20.336432179024204,12.478571428571428L20.12214646473849,12.264285714285716L19.69357503616706,12.264285714285716L19.46464466094067,12.035355339059327L19.53535533905933,11.964644660940673L19.73499639240437,12.164285714285715L20.163567820975796,12.164285714285715L20.37785353526151,12.378571428571426L21.407860750452773,12.378571428571426L21.59285714285714,12.193575036167061L21.59285714285714,11.979289321881346L21.807142857142857,11.76500360759563L21.807142857142857,11.550717893309915L22.021428571428572,11.336432179024204L22.021428571428572,10.520710678118654L21.836432179024204,10.335714285714285L21.62214646473849,10.335714285714285L21.407860750452773,10.12142857142857L17.37785353526151,10.12142857142857L17.163567820975796,10.335714285714285L16.94928210669008,10.335714285714285L16.73499639240437,10.55L16.5,10.55L16.5,10.45L16.69357503616706,10.45L16.907860750452773,10.235714285714284L17.12214646473849,10.235714285714284L17.336432179024204,10.021428571428569L21.44928210669008,10.021428571428569L21.663567820975796,10.235714285714284L21.87785353526151,10.235714285714284z" stroke="none"/><path d="M3.05,9L2.95,9L2.95,7.5L3.05,7.5z" stroke="none"/><path d="M4.5,10.55L4.5,10.45L6,10.45L6,10.55z" stroke="none"/><path d="M25.5,9.05L25.5,8.95L27,8.95L27,9.05z" stroke="none"/><path d="M9,7.55L9,7.45L10.5,7.45L10.5,7.55z" stroke="none"/><path d="M22.45,4.5L22.55,4.5L22.55,4.734996392404369L22.121428571428574,5.163567820975797L22.121428571428574,6.407860750452773L22.30642496383294,6.5928571428571425L22.69357503616706,6.5928571428571425L22.907860750452773,6.378571428571428L23.12214646473849,6.378571428571428L23.550717893309915,5.95L24,5.95L24,6.05L23.592139249547223,6.05L23.163567820975796,6.478571428571428L22.94928210669008,6.478571428571428L22.73499639240437,6.692857142857142L22.26500360759563,6.692857142857142L22.021428571428572,6.449282106690083L22.021428571428572,5.122146464738488L22.45,4.69357503616706z" stroke="none"/><path d="M23.96464466094067,3.0353553390593273L24.03535533905933,2.9646446609406727L25.53535533905933,4.464644660940673L25.46464466094067,4.535355339059327z" stroke="none"/><path d="M9,4.45L9,4.55L6,4.55L6,4.45z" stroke="none"/><path d="M9,5.95L9,6.05L8.377853535261512,6.05L8.163567820975796,6.264285714285714L7.520710678118655,6.264285714285714L7.30642496383294,6.478571428571428L6.663567820975797,6.478571428571428L6.449282106690083,6.692857142857142L6.020710678118655,6.692857142857142L5.621428571428571,7.092139249547226L5.621428571428571,7.734996392404369L5.407142857142857,7.949282106690083L5.407142857142857,8.806424963832939L5.192857142857142,9.020710678118654L5.192857142857142,9.23499639240437L4.949282106690084,9.478571428571428L4.050717893309916,9.478571428571428L3.8071428571428574,9.23499639240437L3.8071428571428574,8.163567820975796L3.592857142857143,7.949282106690083L3.592857142857143,7.520710678118655L3.3785714285714286,7.30642496383294L3.3785714285714286,7.092139249547226L2.95,6.663567820975797L2.95,6.234996392404369L2.7357142857142858,6.020710678118655L2.7357142857142858,5.3778535352615116L2.521428571428572,5.163567820975797L2.521428571428572,4.050717893309916L2.765003607595631,3.8071428571428574L8.979289321881346,3.8071428571428574L9.622146464738488,3.1642857142857146L10.050717893309915,3.1642857142857146L10.26500360759563,2.95L10.5,2.95L10.5,3.05L10.306424963832939,3.05L10.092139249547223,3.2642857142857142L9.663567820975796,3.2642857142857142L9.020710678118654,3.907142857142857L2.8064249638329404,3.907142857142857L2.6214285714285714,4.092139249547226L2.6214285714285714,5.122146464738488L2.8357142857142854,5.336432179024202L2.8357142857142854,5.979289321881345L3.05,6.19357503616706L3.05,6.622146464738488L3.478571428571428,7.050717893309916L3.478571428571428,7.265003607595631L3.6928571428571426,7.479289321881345L3.6928571428571426,7.907860750452773L3.907142857142857,8.122146464738488L3.907142857142857,9.193575036167061L4.092139249547226,9.378571428571426L4.907860750452774,9.378571428571426L5.0928571428571425,9.193575036167061L5.0928571428571425,8.979289321881346L5.307142857142857,8.76500360759563L5.307142857142857,7.907860750452773L5.521428571428571,7.69357503616706L5.521428571428571,7.050717893309916L5.979289321881345,6.5928571428571425L6.407860750452773,6.5928571428571425L6.622146464738488,6.378571428571428L7.265003607595631,6.378571428571428L7.479289321881345,6.164285714285715L8.122146464738488,6.164285714285715L8.336432179024204,5.95z" stroke="none"/><path d="M18,10.45L18,10.55L17.592139249547227,10.55L17.37785353526151,10.764285714285716L17.163567820975796,10.764285714285716L16.94928210669008,10.978571428571428L13.306424963832939,10.978571428571428L13.092139249547223,11.192857142857143L12.449282106690081,11.192857142857143L12.23499639240437,11.407142857142858L11.806424963832939,11.407142857142858L11.62142857142857,11.592139249547223L11.62142857142857,12.407860750452773L11.806424963832939,12.592857142857142L13.479289321881346,12.592857142857142L13.693575036167061,12.378571428571426L14.122146464738488,12.378571428571426L14.336432179024204,12.164285714285715L14.76500360759563,12.164285714285715L14.964644660940673,11.964644660940673L15.035355339059327,12.035355339059327L14.806424963832939,12.264285714285716L14.377853535261512,12.264285714285716L14.163567820975796,12.478571428571428L13.73499639240437,12.478571428571428L13.520710678118654,12.692857142857143L11.76500360759563,12.692857142857143L11.521428571428569,12.449282106690081L11.521428571428569,11.550717893309915L11.76500360759563,11.307142857142857L12.193575036167061,11.307142857142857L12.407860750452773,11.092857142857142L13.050717893309915,11.092857142857142L13.26500360759563,10.878571428571426L16.907860750452773,10.878571428571426L17.12214646473849,10.664285714285715L17.336432179024204,10.664285714285715L17.55071789330992,10.45z" stroke="none"/><path d="M15.05,6L14.95,6L14.95,4.050717893309916L15.378571428571426,3.622146464738488L15.378571428571426,2.5921392495472264L15.193575036167061,2.407142857142857L13.092139249547223,2.407142857142857L12.877853535261512,2.6214285714285714L12.663567820975796,2.6214285714285714L12.23499639240437,3.05L12,3.05L12,2.95L12.193575036167061,2.95L12.622146464738488,2.521428571428572L12.836432179024204,2.521428571428572L13.050717893309915,2.3071428571428574L15.23499639240437,2.3071428571428574L15.478571428571428,2.550717893309917L15.478571428571428,3.6635678209757976L15.05,4.092139249547226z" stroke="none"/><path d="M19.46464466094067,2.9646446609406727L19.53535533905933,3.0353553390593273L16.53535533905933,6.035355339059327L16.46464466094067,5.964644660940673z" stroke="none"/><path d="M3,12.05L3,11.95L7.5,11.95L7.5,12.05z" stroke="none"/><path d="M10.5,10.55L10.5,10.45L10.949282106690081,10.45L11.377853535261512,10.878571428571426L12.836432179024204,10.878571428571426L13.050717893309915,10.664285714285715L14.76500360759563,10.664285714285715L14.964644660940673,10.464644660940673L15.035355339059327,10.535355339059327L14.806424963832939,10.764285714285716L13.092139249547223,10.764285714285716L12.877853535261512,10.978571428571428L11.336432179024204,10.978571428571428L10.907860750452773,10.55z" stroke="none"/><path d="M24,7.45L24,7.55L23.80642496383294,7.55L23.592139249547223,7.764285714285714L23.37785353526151,7.764285714285714L22.94928210669008,8.192857142857143L21.87785353526151,8.192857142857143L21.23499639240437,8.835714285714285L19.94928210669008,8.835714285714285L19.73499639240437,9.05L19.5,9.05L19.5,8.95L19.69357503616706,8.95L19.907860750452773,8.735714285714284L21.19357503616706,8.735714285714284L21.836432179024204,8.092857142857142L22.907860750452773,8.092857142857142L23.336432179024204,7.664285714285715L23.550717893309915,7.664285714285715L23.76500360759563,7.45z" stroke="none"/><path d="M3.0353553390593273,10.535355339059327L2.9646446609406727,10.464644660940673L3.1935750361670596,10.235714285714284L3.4078607504527736,10.235714285714284L3.622146464738488,10.021428571428569L3.8364321790242024,10.021428571428569L4.050717893309916,9.807142857142857L4.69357503616706,9.807142857142857L4.907860750452774,9.592857142857142L5.122146464738488,9.592857142857142L7.050717893309916,7.664285714285715L7.265003607595631,7.664285714285715L7.464644660940673,7.464644660940673L7.535355339059327,7.535355339059327L7.30642496383294,7.764285714285714L7.092139249547226,7.764285714285714L5.163567820975797,9.692857142857143L4.949282106690084,9.692857142857143L4.734996392404369,9.907142857142858L4.092139249547226,9.907142857142858L3.877853535261512,10.12142857142857L3.6635678209757976,10.12142857142857L3.449282106690083,10.335714285714285L3.234996392404369,10.335714285714285z" stroke="none"/><path d="M26.95,3L27.05,3L27.05,3.449282106690083L26.40714285714286,4.092139249547226L26.40714285714286,4.30642496383294L26.192857142857143,4.520710678118655L26.192857142857143,4.734996392404369L24.44928210669008,6.478571428571428L24.23499639240437,6.478571428571428L24.020710678118654,6.692857142857142L23.80642496383294,6.692857142857142L23.592139249547223,6.907142857142857L23.37785353526151,6.907142857142857L23.163567820975796,7.121428571428571L22.94928210669008,7.121428571428571L22.53535533905933,7.535355339059327L22.46464466094067,7.464644660940673L22.907860750452773,7.021428571428571L23.12214646473849,7.021428571428571L23.336432179024204,6.807142857142857L23.550717893309915,6.807142857142857L23.76500360759563,6.5928571428571425L23.979289321881346,6.5928571428571425L24.19357503616706,6.378571428571428L24.407860750452773,6.378571428571428L26.09285714285714,4.69357503616706L26.09285714285714,4.479289321881345L26.307142857142857,4.265003607595631L26.307142857142857,4.050717893309916L26.95,3.4078607504527736z" stroke="none"/><path d="M6,3.05L6,2.95L7.907860750452773,2.95L8.336432179024204,2.521428571428572L12.193575036167061,2.521428571428572L12.407860750452773,2.3071428571428574L12.622146464738488,2.3071428571428574L12.836432179024204,2.092857142857143L15.449282106690081,2.092857142857143L15.692857142857143,2.3364321790242024L15.692857142857143,6.449282106690083L15.478571428571428,6.663567820975797L15.478571428571428,6.8778535352615116L15.264285714285716,7.092139249547226L15.264285714285716,7.30642496383294L15.035355339059327,7.535355339059327L14.964644660940673,7.464644660940673L15.164285714285715,7.265003607595631L15.164285714285715,7.050717893309916L15.378571428571426,6.836432179024202L15.378571428571426,6.622146464738488L15.592857142857142,6.407860750452773L15.592857142857142,2.377853535261512L15.407860750452773,2.1928571428571426L12.877853535261512,2.1928571428571426L12.663567820975796,2.407142857142857L12.449282106690081,2.407142857142857L12.23499639240437,2.6214285714285714L8.377853535261512,2.6214285714285714L7.949282106690083,3.05z" stroke="none"/><path d="M18.05,9L17.95,9L17.95,8.76500360759563L18.807142857142857,7.907860750452773L18.807142857142857,7.479289321881345L19.021428571428572,7.265003607595631L19.021428571428572,7.050717893309916L19.235714285714284,6.836432179024202L19.235714285714284,6.19357503616706L19.45,5.979289321881345L19.45,5.550717893309916L19.878571428571426,5.122146464738488L19.878571428571426,4.907860750452774L21.378571428571426,3.4078607504527736L21.378571428571426,3.1935750361670596L22.05071789330992,2.521428571428572L26.336432179024204,2.521428571428572L26.550717893309915,2.3071428571428574L27.23499639240437,2.3071428571428574L27.478571428571428,2.550717893309917L27.478571428571428,3.449282106690083L27.264285714285716,3.6635678209757976L27.264285714285716,4.092139249547226L27.05,4.30642496383294L27.05,4.5L26.95,4.5L26.95,4.265003607595631L27.164285714285715,4.050717893309916L27.164285714285715,3.622146464738488L27.378571428571426,3.4078607504527736L27.378571428571426,2.5921392495472264L27.19357503616706,2.407142857142857L26.592139249547223,2.407142857142857L26.37785353526151,2.6214285714285714L22.092139249547227,2.6214285714285714L21.478571428571428,3.234996392404369L21.478571428571428,3.449282106690083L19.978571428571428,4.949282106690084L19.978571428571428,5.163567820975797L19.55,5.592139249547226L19.55,6.020710678118655L19.335714285714285,6.234996392404369L19.335714285714285,6.8778535352615116L19.121428571428574,7.092139249547226L19.121428571428574,7.30642496383294L18.90714285714286,7.520710678118655L18.90714285714286,7.949282106690083L18.05,8.806424963832939z" stroke="none"/><path d="M9,2.95L9,3.05L8.377853535261512,3.05L8.163567820975796,3.2642857142857142L6.8778535352615116,3.2642857142857142L6.663567820975797,3.478571428571428L5.550717893309916,3.478571428571428L5.307142857142857,3.234996392404369L5.307142857142857,2.765003607595631L5.550717893309916,2.521428571428572L6.836432179024202,2.521428571428572L7.050717893309916,2.3071428571428574L11.76500360759563,2.3071428571428574L11.979289321881346,2.092857142857143L12.407860750452773,2.092857142857143L12.622146464738488,1.8785714285714286L15.663567820975796,1.8785714285714286L15.907142857142858,2.122146464738488L15.907142857142858,5.979289321881345L16.12142857142857,6.19357503616706L16.12142857142857,6.407860750452773L16.73499639240437,7.021428571428571L17.163567820975796,7.021428571428571L17.37785353526151,7.235714285714286L17.592139249547227,7.235714285714286L17.80642496383294,7.45L18,7.45L18,7.55L17.76500360759563,7.55L17.55071789330992,7.335714285714285L17.336432179024204,7.335714285714285L17.12214646473849,7.121428571428571L16.69357503616706,7.121428571428571L16.02142857142857,6.449282106690083L16.02142857142857,6.234996392404369L15.807142857142857,6.020710678118655L15.807142857142857,2.1635678209757976L15.622146464738488,1.9785714285714286L12.663567820975796,1.9785714285714286L12.449282106690081,2.1928571428571426L12.020710678118654,2.1928571428571426L11.806424963832939,2.407142857142857L7.092139249547226,2.407142857142857L6.8778535352615116,2.6214285714285714L5.592139249547226,2.6214285714285714L5.407142857142857,2.8064249638329404L5.407142857142857,3.1935750361670596L5.592139249547226,3.3785714285714286L6.622146464738488,3.3785714285714286L6.836432179024202,3.1642857142857146L8.122146464738488,3.1642857142857146L8.336432179024204,2.95z" stroke="none"/><path d="M19.45,4.5L19.55,4.5L19.55,4.734996392404369L18.692857142857143,5.592139249547226L18.692857142857143,7.734996392404369L18.44928210669008,7.978571428571428L13.306424963832939,7.978571428571428L13.092139249547223,8.192857142857143L12.877853535261512,8.192857142857143L12.663567820975796,8.407142857142858L11.806424963832939,8.407142857142858L11.377853535261512,8.835714285714285L10.949282106690081,8.835714285714285L10.73499639240437,9.05L10.5,9.05L10.5,8.95L10.693575036167061,8.95L10.907860750452773,8.735714285714284L11.336432179024204,8.735714285714284L11.76500360759563,8.307142857142857L12.622146464738488,8.307142857142857L12.836432179024204,8.092857142857142L13.050717893309915,8.092857142857142L13.26500360759563,7.878571428571428L18.407860750452773,7.878571428571428L18.59285714285714,7.69357503616706L18.59285714285714,5.550717893309916L19.45,4.69357503616706z" stroke="none"/><path d="M16.5,12.05L16.5,11.95L16.94928210669008,11.95L17.37785353526151,12.378571428571426L19.73499639240437,12.378571428571426L19.94928210669008,12.592857142857142L26.12214646473849,12.592857142857142L26.76500360759563,11.95L27,11.95L27,12.05L26.80642496383294,12.05L26.163567820975796,12.692857142857143L19.907860750452773,12.692857142857143L19.69357503616706,12.478571428571428L17.336432179024204,12.478571428571428L16.907860750452773,12.05z" stroke="none"/><path d="M18,11.95L18,12.05L17.336432179024204,12.05L16.907860750452773,11.62142857142857L16.092139249547223,11.62142857142857L15.692857142857143,12.020710678118654L15.692857142857143,12.23499639240437L15.449282106690081,12.478571428571428L14.806424963832939,12.478571428571428L14.377853535261512,12.907142857142858L11.550717893309915,12.907142857142858L11.122146464738488,12.478571428571428L10.050717893309915,12.478571428571428L8.336432179024204,10.764285714285716L7.907860750452773,10.764285714285716L7.69357503616706,10.55L7.5,10.55L7.5,10.45L7.734996392404369,10.45L7.949282106690083,10.664285714285715L8.377853535261512,10.664285714285715L10.092139249547223,12.378571428571426L11.163567820975796,12.378571428571426L11.592139249547223,12.807142857142857L14.336432179024204,12.807142857142857L14.76500360759563,12.378571428571426L15.407860750452773,12.378571428571426L15.592857142857142,12.193575036167061L15.592857142857142,11.979289321881346L16.050717893309915,11.521428571428569L16.94928210669008,11.521428571428569L17.37785353526151,11.95z" stroke="none"/><path d="M22.53535533905933,9.035355339059327L22.46464466094067,8.964644660940673L22.907860750452773,8.521428571428569L23.12214646473849,8.521428571428569L23.336432179024204,8.307142857142857L23.550717893309915,8.307142857142857L23.76500360759563,8.092857142857142L23.979289321881346,8.092857142857142L24.19357503616706,7.878571428571428L24.407860750452773,7.878571428571428L25.479289321881346,6.807142857142857L27.663567820975796,6.807142857142857L27.90714285714286,7.050717893309916L27.90714285714286,12.020710678118654L27.44928210669008,12.478571428571428L26.80642496383294,12.478571428571428L26.37785353526151,12.907142857142858L15.23499639240437,12.907142857142858L15.020710678118654,13.12142857142857L10.693575036167061,13.12142857142857L10.479289321881346,12.907142857142858L10.050717893309915,12.907142857142858L8.979289321881346,11.835714285714285L8.122146464738488,11.835714285714285L7.907860750452773,11.62142857142857L7.69357503616706,11.62142857142857L7.021428571428571,10.949282106690081L7.021428571428571,10.050717893309915L7.265003607595631,9.807142857142857L7.907860750452773,9.807142857142857L8.122146464738488,9.592857142857142L8.336432179024204,9.592857142857142L8.76500360759563,9.164285714285715L9.193575036167061,9.164285714285715L10.050717893309915,8.307142857142857L10.26500360759563,8.307142857142857L10.479289321881346,8.092857142857142L12.193575036167061,8.092857142857142L12.378571428571426,7.907860750452773L12.378571428571426,6.663567820975797L11.95,6.234996392404369L11.95,6L12.05,6L12.05,6.19357503616706L12.478571428571428,6.622146464738488L12.478571428571428,7.949282106690083L12.23499639240437,8.192857142857143L10.520710678118654,8.192857142857143L10.306424963832939,8.407142857142858L10.092139249547223,8.407142857142858L9.23499639240437,9.264285714285716L8.806424963832939,9.264285714285716L8.377853535261512,9.692857142857143L8.163567820975796,9.692857142857143L7.949282106690083,9.907142857142858L7.30642496383294,9.907142857142858L7.121428571428571,10.092139249547223L7.121428571428571,10.907860750452773L7.734996392404369,11.521428571428569L7.949282106690083,11.521428571428569L8.163567820975796,11.735714285714284L9.020710678118654,11.735714285714284L10.092139249547223,12.807142857142857L10.520710678118654,12.807142857142857L10.73499639240437,13.021428571428569L14.979289321881346,13.021428571428569L15.193575036167061,12.807142857142857L26.336432179024204,12.807142857142857L26.76500360759563,12.378571428571426L27.407860750452773,12.378571428571426L27.807142857142857,11.979289321881346L27.807142857142857,7.092139249547226L27.62214646473849,6.907142857142857L25.520710678118654,6.907142857142857L24.44928210669008,7.978571428571428L24.23499639240437,7.978571428571428L24.020710678118654,8.192857142857143L23.80642496383294,8.192857142857143L23.592139249547223,8.407142857142858L23.37785353526151,8.407142857142858L23.163567820975796,8.62142857142857L22.94928210669008,8.62142857142857z" stroke="none"/><path d="M4.535355339059327,3.0353553390593273L4.464644660940673,2.9646446609406727L4.69357503616706,2.7357142857142858L4.907860750452774,2.7357142857142858L5.336432179024202,2.3071428571428574L6.622146464738488,2.3071428571428574L6.836432179024202,2.092857142857143L11.122146464738488,2.092857142857143L11.336432179024204,1.8785714285714286L11.76500360759563,1.8785714285714286L11.979289321881346,1.6642857142857144L15.877853535261512,1.6642857142857144L16.12142857142857,1.9078607504527738L16.12142857142857,3.1935750361670596L16.335714285714285,3.4078607504527736L16.335714285714285,4.050717893309916L16.55,4.265003607595631L16.55,4.5L16.45,4.5L16.45,4.30642496383294L16.235714285714284,4.092139249547226L16.235714285714284,3.449282106690083L16.02142857142857,3.234996392404369L16.02142857142857,1.9492821066900834L15.836432179024204,1.7642857142857145L12.020710678118654,1.7642857142857145L11.806424963832939,1.9785714285714286L11.377853535261512,1.9785714285714286L11.163567820975796,2.1928571428571426L6.8778535352615116,2.1928571428571426L6.663567820975797,2.407142857142857L5.3778535352615116,2.407142857142857L4.949282106690084,2.8357142857142854L4.734996392404369,2.8357142857142854z" stroke="none"/></svg>