<svg version="1.1" width="30" height="15" xmlns="http://www.w3.org/2000/svg"><path d="M6.907142857142857,5.979289321881345L6.907142857142857,6.19357503616706L7.092139249547226,6.378571428571428L7.907860750452773,6.378571428571428L8.122146464738488,6.164285714285715L8.76500360759563,6.164285714285715L8.964644660940673,5.964644660940673L9.035355339059327,6.035355339059327L8.806424963832939,6.264285714285714L8.163567820975796,6.264285714285714L7.949282106690083,6.478571428571428L7.050717893309916,6.478571428571428L6.807142857142857,6.234996392404369L6.807142857142857,6.120710678118654L6.692857142857142,6.234996392404369L6.692857142857142,6.663567820975797L6.264285714285714,7.092139249547226L6.264285714285714,7.30642496383294L6.035355339059327,7.535355339059327L5.964644660940673,7.464644660940673L6.164285714285715,7.265003607595631L6.164285714285715,7.050717893309916L6.5928571428571425,6.622146464738488L6.5928571428571425,6.19357503616706L6.786432179024202,6L6.164285714285715,5.3778535352615116L6.164285714285715,5.163567820975797L5.95,4.949282106690084L5.95,4.5L6.05,4.5L6.05,4.907860750452774L6.264285714285714,5.122146464738488L6.264285714285714,5.336432179024202z" stroke="none"/><path d="M9.807142857142857,6.407860750452773L9.807142857142857,6.234996392404369L9.592857142857142,6.020710678118655L9.592857142857142,5.80642496383294L9.407860750452773,5.621428571428571L8.163567820975796,5.621428571428571L7.949282106690083,5.835714285714285L7.734996392404369,5.835714285714285L7.535355339059327,6.035355339059327L7.464644660940673,5.964644660940673L7.69357503616706,5.735714285714286L7.907860750452773,5.735714285714286L8.122146464738488,5.521428571428571L9.449282106690081,5.521428571428571L9.692857142857143,5.765003607595631L9.692857142857143,5.979289321881345L9.907142857142858,6.19357503616706L9.907142857142858,6.378571428571428L10.907860750452773,6.378571428571428L12.622146464738488,4.664285714285715L13.26500360759563,4.664285714285715L13.464644660940673,4.464644660940673L13.535355339059327,4.535355339059327L13.306424963832939,4.764285714285714L12.663567820975796,4.764285714285714L10.949282106690081,6.478571428571428L9.877853535261512,6.478571428571428L9.264285714285716,7.092139249547226L9.264285714285716,7.30642496383294L9.05,7.520710678118655L9.05,9L8.95,9L8.95,7.479289321881345L9.164285714285715,7.265003607595631L9.164285714285715,7.050717893309916z" stroke="none"/><path d="M18.59285714285714,7.050717893309916L19.479289321881346,6.164285714285715L19.69357503616706,6.164285714285715L19.907860750452773,5.95L20.12214646473849,5.95L20.336432179024204,5.735714285714286L22.30642496383294,5.735714285714286L22.53535533905933,5.964644660940673L22.46464466094067,6.035355339059327L22.26500360759563,5.835714285714285L20.37785353526151,5.835714285714285L20.163567820975796,6.05L19.94928210669008,6.05L19.73499639240437,6.264285714285714L19.520710678118654,6.264285714285714L18.692857142857143,7.092139249547226L18.692857142857143,7.379289321881346L19.26500360759563,6.807142857142857L19.479289321881346,6.807142857142857L19.907860750452773,6.378571428571428L20.12214646473849,6.378571428571428L20.55071789330992,5.95L21,5.95L21,6.05L20.592139249547227,6.05L20.163567820975796,6.478571428571428L19.94928210669008,6.478571428571428L19.520710678118654,6.907142857142857L19.30642496383294,6.907142857142857L18.692857142857143,7.520710678118655L18.692857142857143,7.734996392404369L18.44928210669008,7.978571428571428L17.37785353526151,7.978571428571428L17.163567820975796,8.192857142857143L16.520710678118654,8.192857142857143L16.30642496383294,8.407142857142858L14.806424963832939,8.407142857142858L14.592139249547223,8.62142857142857L14.163567820975796,8.62142857142857L13.949282106690081,8.835714285714285L13.73499639240437,8.835714285714285L13.306424963832939,9.264285714285716L12.663567820975796,9.264285714285716L12.020710678118654,9.907142857142858L11.592139249547223,9.907142857142858L11.163567820975796,10.335714285714285L10.73499639240437,10.335714285714285L10.535355339059327,10.535355339059327L10.464644660940673,10.464644660940673L10.693575036167061,10.235714285714284L11.122146464738488,10.235714285714284L11.550717893309915,9.807142857142857L11.979289321881346,9.807142857142857L12.622146464738488,9.164285714285715L13.26500360759563,9.164285714285715L13.693575036167061,8.735714285714284L13.907860750452773,8.735714285714284L14.122146464738488,8.521428571428569L14.550717893309915,8.521428571428569L14.76500360759563,8.307142857142857L16.26500360759563,8.307142857142857L16.479289321881346,8.092857142857142L17.12214646473849,8.092857142857142L17.336432179024204,7.878571428571428L18.407860750452773,7.878571428571428L18.59285714285714,7.69357503616706z" stroke="none"/><path d="M23.09285714285714,10.45L23.09285714285714,10.26500360759563L23.336432179024204,10.021428571428569L24.407860750452773,10.021428571428569L24.836432179024204,9.592857142857142L25.050717893309915,9.592857142857142L25.26500360759563,9.378571428571426L25.907860750452773,9.378571428571426L26.12214646473849,9.164285714285715L26.336432179024204,9.164285714285715L26.550717893309915,8.95L27,8.95L27,9.05L26.592139249547223,9.05L26.37785353526151,9.264285714285716L26.163567820975796,9.264285714285716L25.94928210669008,9.478571428571428L25.30642496383294,9.478571428571428L25.092139249547223,9.692857142857143L24.87785353526151,9.692857142857143L24.44928210669008,10.12142857142857L23.37785353526151,10.12142857142857L23.192857142857143,10.306424963832939L23.192857142857143,10.45L24,10.45L24,10.55L23.192857142857143,10.55L23.192857142857143,10.73499639240437L22.30642496383294,11.62142857142857L21.87785353526151,11.62142857142857L21.663567820975796,11.835714285714285L21.44928210669008,11.835714285714285L21.23499639240437,12.05L21,12.05L21,11.95L21.19357503616706,11.95L21.407860750452773,11.735714285714284L21.62214646473849,11.735714285714284L21.836432179024204,11.521428571428569L22.26500360759563,11.521428571428569L23.09285714285714,10.693575036167061L23.09285714285714,10.55L21,10.55L21,10.45z" stroke="none"/><path d="M15.164285714285715,4.021428571428571L15.164285714285715,3.8364321790242024L15.407860750452773,3.592857142857143L18.19357503616706,3.592857142857143L18.407860750452773,3.3785714285714286L18.62214646473849,3.3785714285714286L19.05071789330992,2.95L19.5,2.95L19.5,3.05L19.092139249547227,3.05L18.663567820975796,3.478571428571428L18.44928210669008,3.478571428571428L18.23499639240437,3.6928571428571426L15.449282106690081,3.6928571428571426L15.264285714285716,3.877853535261512L15.264285714285716,4.021428571428571L15.877853535261512,4.021428571428571L16.092139249547223,4.235714285714286L16.30642496383294,4.235714285714286L16.53535533905933,4.464644660940673L16.46464466094067,4.535355339059327L16.26500360759563,4.335714285714285L16.050717893309915,4.335714285714285L15.836432179024204,4.121428571428571L15.23499639240437,4.121428571428571L13.55,5.80642496383294L13.55,6L13.45,6L13.45,5.765003607595631L15.09357503616706,4.121428571428571L14.979289321881346,4.121428571428571L14.76500360759563,3.907142857142857L14.336432179024204,3.907142857142857L13.693575036167061,3.2642857142857142L13.050717893309915,3.2642857142857142L12.836432179024204,3.05L12,3.05L12,2.95L12.877853535261512,2.95L13.092139249547223,3.1642857142857146L13.73499639240437,3.1642857142857146L14.377853535261512,3.8071428571428574L14.806424963832939,3.8071428571428574L15.020710678118654,4.021428571428571z" stroke="none"/><path d="M16.69357503616706,9.164285714285715L16.907860750452773,8.95L17.76500360759563,8.95L17.979289321881346,8.735714285714284L18.407860750452773,8.735714285714284L18.62214646473849,8.521428571428569L21.19357503616706,8.521428571428569L21.836432179024204,7.878571428571428L22.05071789330992,7.878571428571428L22.46464466094067,7.464644660940673L22.53535533905933,7.535355339059327L22.092139249547227,7.978571428571428L21.87785353526151,7.978571428571428L21.23499639240437,8.62142857142857L18.663567820975796,8.62142857142857L18.44928210669008,8.835714285714285L18.020710678118654,8.835714285714285L17.80642496383294,9.05L16.94928210669008,9.05L16.83499639240437,9.164285714285715L16.94928210669008,9.164285714285715L17.37785353526151,9.592857142857142L17.592139249547227,9.592857142857142L17.80642496383294,9.807142857142857L18.23499639240437,9.807142857142857L20.40714285714286,11.979289321881346L20.40714285714286,12.193575036167061L20.592139249547227,12.378571428571426L21.407860750452773,12.378571428571426L21.62214646473849,12.164285714285715L22.26500360759563,12.164285714285715L22.46464466094067,11.964644660940673L22.53535533905933,12.035355339059327L22.30642496383294,12.264285714285716L21.663567820975796,12.264285714285716L21.44928210669008,12.478571428571428L20.55071789330992,12.478571428571428L20.307142857142857,12.23499639240437L20.307142857142857,12.020710678118654L18.19357503616706,9.907142857142858L17.76500360759563,9.907142857142858L17.55071789330992,9.692857142857143L17.336432179024204,9.692857142857143L16.907860750452773,9.264285714285716L16.764285714285716,9.264285714285716L16.764285714285716,9.449282106690081L16.520710678118654,9.692857142857143L16.30642496383294,9.692857142857143L15.877853535261512,10.12142857142857L15.23499639240437,10.12142857142857L14.806424963832939,10.55L13.306424963832939,10.55L13.092139249547223,10.764285714285716L12.877853535261512,10.764285714285716L12.449282106690081,11.192857142857143L12.23499639240437,11.192857142857143L12.020710678118654,11.407142857142858L10.050717893309915,11.407142857142858L9.807142857142857,11.163567820975796L9.807142857142857,9.836432179024204L10.235714285714284,9.407860750452773L10.235714285714284,9.193575036167061L10.464644660940673,8.964644660940673L10.535355339059327,9.035355339059327L10.335714285714285,9.23499639240437L10.335714285714285,9.449282106690081L9.907142857142858,9.877853535261512L9.907142857142858,11.122146464738488L10.092139249547223,11.307142857142857L11.979289321881346,11.307142857142857L12.193575036167061,11.092857142857142L12.407860750452773,11.092857142857142L12.836432179024204,10.664285714285715L13.050717893309915,10.664285714285715L13.26500360759563,10.45L14.76500360759563,10.45L15.193575036167061,10.021428571428569L15.836432179024204,10.021428571428569L16.26500360759563,9.592857142857142L16.479289321881346,9.592857142857142L16.664285714285715,9.407860750452773L16.664285714285715,9.264285714285716L16.520710678118654,9.264285714285716L16.30642496383294,9.478571428571428L16.092139249547223,9.478571428571428L15.663567820975796,9.907142857142858L14.592139249547223,9.907142857142858L14.377853535261512,10.12142857142857L13.520710678118654,10.12142857142857L13.306424963832939,10.335714285714285L13.092139249547223,10.335714285714285L12.877853535261512,10.55L12.449282106690081,10.55L11.806424963832939,11.192857142857143L10.26500360759563,11.192857142857143L10.021428571428569,10.949282106690081L10.021428571428569,10.050717893309915L10.693575036167061,9.378571428571426L10.907860750452773,9.378571428571426L11.122146464738488,9.164285714285715L11.76500360759563,9.164285714285715L11.964644660940673,8.964644660940673L12.035355339059327,9.035355339059327L11.806424963832939,9.264285714285716L11.163567820975796,9.264285714285716L10.949282106690081,9.478571428571428L10.73499639240437,9.478571428571428L10.12142857142857,10.092139249547223L10.12142857142857,10.907860750452773L10.306424963832939,11.092857142857142L11.76500360759563,11.092857142857142L12.407860750452773,10.45L12.836432179024204,10.45L13.050717893309915,10.235714285714284L13.26500360759563,10.235714285714284L13.479289321881346,10.021428571428569L14.336432179024204,10.021428571428569L14.550717893309915,9.807142857142857L15.622146464738488,9.807142857142857L16.050717893309915,9.378571428571426L16.26500360759563,9.378571428571426L16.479289321881346,9.164285714285715z" stroke="none"/><path d="M25.45,10.5L25.55,10.5L25.55,12L25.45,12z" stroke="none"/><path d="M5.964644660940673,10.535355339059327L6.035355339059327,10.464644660940673L7.535355339059327,11.964644660940673L7.464644660940673,12.035355339059327z" stroke="none"/><path d="M24.03535533905933,7.464644660940673L23.96464466094067,7.535355339059327L23.76500360759563,7.335714285714285L23.550717893309915,7.335714285714285L23.336432179024204,7.121428571428571L21.44928210669008,7.121428571428571L21.03535533905933,7.535355339059327L20.96464466094067,7.464644660940673L21.407860750452773,7.021428571428571L23.37785353526151,7.021428571428571L23.592139249547223,7.235714285714286L23.80642496383294,7.235714285714286z" stroke="none"/><path d="M25.5,2.95L25.5,3.05L22.5,3.05L22.5,2.95z" stroke="none"/><path d="M8.964644660940673,10.464644660940673L9.035355339059327,10.535355339059327L8.835714285714285,10.73499639240437L8.835714285714285,10.949282106690081L8.407142857142858,11.377853535261512L8.407142857142858,11.806424963832939L8.192857142857143,12.020710678118654L8.192857142857143,12.23499639240437L7.949282106690083,12.478571428571428L6.836432179024202,12.478571428571428L6.622146464738488,12.264285714285716L6.407860750452773,12.264285714285716L6.19357503616706,12.05L6,12.05L6,11.95L6.234996392404369,11.95L6.449282106690083,12.164285714285715L6.663567820975797,12.164285714285715L6.8778535352615116,12.378571428571426L7.907860750452773,12.378571428571426L8.092857142857142,12.193575036167061L8.092857142857142,11.979289321881346L8.307142857142857,11.76500360759563L8.307142857142857,11.336432179024204L8.735714285714284,10.907860750452773L8.735714285714284,10.693575036167061z" stroke="none"/><path d="M3.05,9L2.95,9L2.95,4.5L3.05,4.5z" stroke="none"/><path d="M12,11.95L12,12.05L11.336432179024204,12.05L10.907860750452773,11.62142857142857L9.836432179024204,11.62142857142857L9.592857142857142,11.377853535261512L9.592857142857142,9.193575036167061L10.021428571428569,8.76500360759563L10.021428571428569,8.550717893309915L10.26500360759563,8.307142857142857L10.479289321881346,8.307142857142857L10.693575036167061,8.092857142857142L11.122146464738488,8.092857142857142L11.550717893309915,7.664285714285715L11.76500360759563,7.664285714285715L11.964644660940673,7.464644660940673L12.035355339059327,7.535355339059327L11.806424963832939,7.764285714285714L11.592139249547223,7.764285714285714L11.163567820975796,8.192857142857143L10.73499639240437,8.192857142857143L10.520710678118654,8.407142857142858L10.306424963832939,8.407142857142858L10.12142857142857,8.592139249547223L10.12142857142857,8.806424963832939L9.692857142857143,9.23499639240437L9.692857142857143,11.336432179024204L9.877853535261512,11.521428571428569L10.949282106690081,11.521428571428569L11.377853535261512,11.95z" stroke="none"/><path d="M13.5,12.05L13.5,11.95L18,11.95L18,12.05z" stroke="none"/><path d="M24,5.95L24,6.05L23.80642496383294,6.05L23.592139249547223,6.264285714285714L23.37785353526151,6.264285714285714L22.94928210669008,6.692857142857142L21.44928210669008,6.692857142857142L21.23499639240437,6.907142857142857L20.80642496383294,6.907142857142857L20.37785353526151,7.335714285714285L19.73499639240437,7.335714285714285L19.53535533905933,7.535355339059327L19.46464466094067,7.464644660940673L19.69357503616706,7.235714285714286L20.336432179024204,7.235714285714286L20.76500360759563,6.807142857142857L21.19357503616706,6.807142857142857L21.407860750452773,6.5928571428571425L22.907860750452773,6.5928571428571425L23.336432179024204,6.164285714285715L23.550717893309915,6.164285714285715L23.76500360759563,5.95z" stroke="none"/><path d="M4.535355339059327,7.464644660940673L4.464644660940673,7.535355339059327L4.235714285714286,7.30642496383294L4.235714285714286,6.663567820975797L4.021428571428571,6.449282106690083L4.021428571428571,4.734996392404369L3.8071428571428574,4.520710678118655L3.8071428571428574,4.30642496383294L3.592857142857143,4.092139249547226L3.592857142857143,3.6635678209757976L2.9646446609406727,3.0353553390593273L3.0353553390593273,2.9646446609406727L3.6928571428571426,3.622146464738488L3.6928571428571426,4.050717893309916L3.907142857142857,4.265003607595631L3.907142857142857,4.479289321881345L4.121428571428571,4.69357503616706L4.121428571428571,6.407860750452773L4.335714285714285,6.622146464738488L4.335714285714285,7.265003607595631z" stroke="none"/><path d="M7.464644660940673,3.0353553390593273L7.535355339059327,2.9646446609406727L7.734996392404369,3.1642857142857146L7.949282106690083,3.1642857142857146L8.163567820975796,3.3785714285714286L8.377853535261512,3.3785714285714286L8.592139249547223,3.592857142857143L8.806424963832939,3.592857142857143L9.020710678118654,3.8071428571428574L10.092139249547223,3.8071428571428574L10.520710678118654,4.235714285714286L10.73499639240437,4.235714285714286L10.949282106690081,4.45L12,4.45L12,4.55L10.907860750452773,4.55L10.693575036167061,4.335714285714285L10.479289321881346,4.335714285714285L10.050717893309915,3.907142857142857L8.979289321881346,3.907142857142857L8.76500360759563,3.6928571428571426L8.550717893309915,3.6928571428571426L8.336432179024204,3.478571428571428L8.122146464738488,3.478571428571428L7.907860750452773,3.2642857142857142L7.69357503616706,3.2642857142857142z" stroke="none"/><path d="M3,10.55L3,10.45L3.1935750361670596,10.45L3.4078607504527736,10.235714285714284L3.622146464738488,10.235714285714284L4.265003607595631,9.592857142857142L5.122146464738488,9.592857142857142L5.336432179024202,9.378571428571426L6.836432179024202,9.378571428571426L7.050717893309916,9.164285714285715L7.265003607595631,9.164285714285715L7.464644660940673,8.964644660940673L7.535355339059327,9.035355339059327L7.30642496383294,9.264285714285716L7.092139249547226,9.264285714285716L6.8778535352615116,9.478571428571428L5.3778535352615116,9.478571428571428L5.163567820975797,9.692857142857143L4.30642496383294,9.692857142857143L3.6635678209757976,10.335714285714285L3.449282106690083,10.335714285714285L3.234996392404369,10.55z" stroke="none"/><path d="M4.464644660940673,4.535355339059327L4.535355339059327,4.464644660940673L4.764285714285714,4.69357503616706L4.764285714285714,5.122146464738488L4.978571428571429,5.336432179024202L4.978571428571429,6.407860750452773L5.192857142857142,6.622146464738488L5.192857142857142,7.479289321881345L5.621428571428571,7.907860750452773L5.621428571428571,8.122146464738488L5.835714285714285,8.336432179024204L5.835714285714285,8.550717893309915L6.05,8.76500360759563L6.05,9L5.95,9L5.95,8.806424963832939L5.735714285714286,8.592139249547223L5.735714285714286,8.377853535261512L5.521428571428571,8.163567820975796L5.521428571428571,7.949282106690083L5.0928571428571425,7.520710678118655L5.0928571428571425,6.663567820975797L4.878571428571429,6.449282106690083L4.878571428571429,5.3778535352615116L4.664285714285715,5.163567820975797L4.664285714285715,4.734996392404369z" stroke="none"/><path d="M13.5,7.45L13.5,7.55L13.050717893309915,7.55L12.836432179024204,7.335714285714285L12.622146464738488,7.335714285714285L12.407860750452773,7.121428571428571L11.592139249547223,7.121428571428571L11.407142857142858,7.30642496383294L11.407142857142858,7.520710678118655L10.949282106690081,7.978571428571428L10.306424963832939,7.978571428571428L9.907142857142858,8.377853535261512L9.907142857142858,8.592139249547223L9.478571428571428,9.020710678118654L9.478571428571428,11.550717893309915L9.663567820975796,11.735714285714284L10.306424963832939,11.735714285714284L10.535355339059327,11.964644660940673L10.464644660940673,12.035355339059327L10.26500360759563,11.835714285714285L9.622146464738488,11.835714285714285L9.378571428571426,11.592139249547223L9.378571428571426,8.979289321881346L9.807142857142857,8.550717893309915L9.807142857142857,8.336432179024204L10.26500360759563,7.878571428571428L10.907860750452773,7.878571428571428L11.307142857142857,7.479289321881345L11.307142857142857,7.265003607595631L11.550717893309915,7.021428571428571L12.449282106690081,7.021428571428571L12.663567820975796,7.235714285714286L12.877853535261512,7.235714285714286L13.092139249547223,7.45z" stroke="none"/><path d="M4.464644660940673,6.035355339059327L4.535355339059327,5.964644660940673L4.764285714285714,6.19357503616706L4.764285714285714,6.622146464738488L4.978571428571429,6.836432179024202L4.978571428571429,7.949282106690083L3.020710678118655,9.907142857142858L2.8064249638329404,9.907142857142858L2.6214285714285714,10.092139249547223L2.6214285714285714,10.907860750452773L2.8064249638329404,11.092857142857142L4.265003607595631,11.092857142857142L5.336432179024202,10.021428571428569L6.663567820975797,10.021428571428569L6.8778535352615116,10.235714285714284L7.30642496383294,10.235714285714284L7.535355339059327,10.464644660940673L7.464644660940673,10.535355339059327L7.265003607595631,10.335714285714285L6.836432179024202,10.335714285714285L6.622146464738488,10.12142857142857L5.3778535352615116,10.12142857142857L4.30642496383294,11.192857142857143L2.765003607595631,11.192857142857143L2.521428571428572,10.949282106690081L2.521428571428572,10.050717893309915L2.765003607595631,9.807142857142857L2.979289321881345,9.807142857142857L4.878571428571429,7.907860750452773L4.878571428571429,6.8778535352615116L4.664285714285715,6.663567820975797L4.664285714285715,6.234996392404369z" stroke="none"/><path d="M10.535355339059327,7.535355339059327L10.464644660940673,7.464644660940673L10.907860750452773,7.021428571428571L11.122146464738488,7.021428571428571L11.336432179024204,6.807142857142857L15.663567820975796,6.807142857142857L16.092139249547223,7.235714285714286L16.30642496383294,7.235714285714286L16.53535533905933,7.464644660940673L16.46464466094067,7.535355339059327L16.26500360759563,7.335714285714285L16.050717893309915,7.335714285714285L15.622146464738488,6.907142857142857L11.377853535261512,6.907142857142857L11.163567820975796,7.121428571428571L10.949282106690081,7.121428571428571z" stroke="none"/><path d="M24.05,9L23.95,9L23.95,8.336432179024204L24.378571428571426,7.907860750452773L24.378571428571426,5.592139249547226L24.19357503616706,5.407142857142857L21.44928210669008,5.407142857142857L21.23499639240437,5.621428571428571L19.94928210669008,5.621428571428571L19.73499639240437,5.835714285714285L19.520710678118654,5.835714285714285L18.264285714285716,7.092139249547226L18.264285714285716,7.30642496383294L18.03535533905933,7.535355339059327L17.96464466094067,7.464644660940673L18.164285714285715,7.265003607595631L18.164285714285715,7.050717893309916L19.479289321881346,5.735714285714286L19.69357503616706,5.735714285714286L19.907860750452773,5.521428571428571L21.19357503616706,5.521428571428571L21.407860750452773,5.307142857142857L24.23499639240437,5.307142857142857L24.478571428571428,5.550717893309916L24.478571428571428,7.949282106690083L24.05,8.377853535261512z" stroke="none"/><path d="M24,4.45L24,4.55L23.550717893309915,4.55L23.12214646473849,4.121428571428571L22.907860750452773,4.121428571428571L22.69357503616706,3.907142857142857L21.62214646473849,3.907142857142857L21.407860750452773,3.6928571428571426L21.19357503616706,3.6928571428571426L20.979289321881346,3.478571428571428L20.76500360759563,3.478571428571428L19.907860750452773,2.6214285714285714L18.663567820975796,2.6214285714285714L18.23499639240437,3.05L18,3.05L18,2.95L18.19357503616706,2.95L18.62214646473849,2.521428571428572L19.94928210669008,2.521428571428572L20.80642496383294,3.3785714285714286L21.020710678118654,3.3785714285714286L21.23499639240437,3.592857142857143L21.44928210669008,3.592857142857143L21.663567820975796,3.8071428571428574L22.73499639240437,3.8071428571428574L22.94928210669008,4.021428571428571L23.163567820975796,4.021428571428571L23.592139249547223,4.45z" stroke="none"/><path d="M16.5,10.45L16.5,10.55L16.30642496383294,10.55L16.092139249547223,10.764285714285716L14.163567820975796,10.764285714285716L13.520710678118654,11.407142857142858L13.306424963832939,11.407142857142858L12.692857142857143,12.020710678118654L12.692857142857143,12.23499639240437L12.449282106690081,12.478571428571428L8.592139249547223,12.478571428571428L8.377853535261512,12.692857142857143L4.479289321881345,12.692857142857143L3.8364321790242024,12.05L3.1935750361670596,12.05L2.3071428571428574,11.163567820975796L2.3071428571428574,2.765003607595631L2.550717893309917,2.521428571428572L3.449282106690083,2.521428571428572L4.949282106690084,4.021428571428571L6.449282106690083,4.021428571428571L6.692857142857142,4.265003607595631L6.692857142857142,4.479289321881345L7.092139249547226,4.878571428571429L9.23499639240437,4.878571428571429L10.092139249547223,5.735714285714286L10.306424963832939,5.735714285714286L10.535355339059327,5.964644660940673L10.464644660940673,6.035355339059327L10.26500360759563,5.835714285714285L10.050717893309915,5.835714285714285L9.193575036167061,4.978571428571429L7.050717893309916,4.978571428571429L6.5928571428571425,4.520710678118655L6.5928571428571425,4.30642496383294L6.407860750452773,4.121428571428571L4.907860750452774,4.121428571428571L3.4078607504527736,2.6214285714285714L2.5921392495472264,2.6214285714285714L2.407142857142857,2.8064249638329404L2.407142857142857,11.122146464738488L3.234996392404369,11.95L3.877853535261512,11.95L4.520710678118655,12.592857142857142L8.336432179024204,12.592857142857142L8.550717893309915,12.378571428571426L12.407860750452773,12.378571428571426L12.592857142857142,12.193575036167061L12.592857142857142,11.979289321881346L13.26500360759563,11.307142857142857L13.479289321881346,11.307142857142857L14.122146464738488,10.664285714285715L16.050717893309915,10.664285714285715L16.26500360759563,10.45z" stroke="none"/><path d="M25.55,9L25.45,9L25.45,7.949282106690083L25.235714285714284,7.734996392404369L25.235714285714284,7.520710678118655L25.02142857142857,7.30642496383294L25.02142857142857,5.80642496383294L24.407860750452773,5.192857142857142L19.73499639240437,5.192857142857142L19.520710678118654,5.407142857142857L19.092139249547227,5.407142857142857L18.663567820975796,5.835714285714285L18.23499639240437,5.835714285714285L18.03535533905933,6.035355339059327L17.96464466094067,5.964644660940673L18.19357503616706,5.735714285714286L18.62214646473849,5.735714285714286L19.05071789330992,5.307142857142857L19.479289321881346,5.307142857142857L19.69357503616706,5.0928571428571425L24.44928210669008,5.0928571428571425L25.12142857142857,5.765003607595631L25.12142857142857,7.265003607595631L25.335714285714285,7.479289321881345L25.335714285714285,7.69357503616706L25.55,7.907860750452773z" stroke="none"/><path d="M9.035355339059327,4.464644660940673L8.964644660940673,4.535355339059327L8.76500360759563,4.335714285714285L8.550717893309915,4.335714285714285L8.122146464738488,3.907142857142857L7.479289321881345,3.907142857142857L7.021428571428571,3.449282106690083L7.021428571428571,2.550717893309917L7.265003607595631,2.3071428571428574L9.877853535261512,2.3071428571428574L10.092139249547223,2.521428571428572L10.306424963832939,2.521428571428572L11.163567820975796,3.3785714285714286L13.306424963832939,3.3785714285714286L13.978571428571428,4.050717893309916L13.978571428571428,4.949282106690084L13.520710678118654,5.407142857142857L13.306424963832939,5.407142857142857L13.12142857142857,5.592139249547226L13.12142857142857,6.407860750452773L13.306424963832939,6.5928571428571425L14.76500360759563,6.5928571428571425L15.193575036167061,6.164285714285715L15.836432179024204,6.164285714285715L16.26500360759563,5.735714285714286L16.479289321881346,5.735714285714286L17.76500360759563,4.45L18,4.45L18,4.55L17.80642496383294,4.55L16.520710678118654,5.835714285714285L16.30642496383294,5.835714285714285L15.877853535261512,6.264285714285714L15.23499639240437,6.264285714285714L14.806424963832939,6.692857142857142L13.26500360759563,6.692857142857142L13.021428571428569,6.449282106690083L13.021428571428569,5.550717893309916L13.26500360759563,5.307142857142857L13.479289321881346,5.307142857142857L13.878571428571426,4.907860750452774L13.878571428571426,4.092139249547226L13.26500360759563,3.478571428571428L11.122146464738488,3.478571428571428L10.26500360759563,2.6214285714285714L10.050717893309915,2.6214285714285714L9.836432179024204,2.407142857142857L7.30642496383294,2.407142857142857L7.121428571428571,2.5921392495472264L7.121428571428571,3.4078607504527736L7.520710678118655,3.8071428571428574L8.163567820975796,3.8071428571428574L8.592139249547223,4.235714285714286L8.806424963832939,4.235714285714286z" stroke="none"/><path d="M7.535355339059327,4.464644660940673L7.464644660940673,4.535355339059327L6.807142857142857,3.877853535261512L6.807142857142857,2.3364321790242024L7.050717893309916,2.092857142857143L13.306424963832939,2.092857142857143L13.520710678118654,2.3071428571428574L14.592139249547223,2.3071428571428574L14.806424963832939,2.521428571428572L15.020710678118654,2.521428571428572L15.23499639240437,2.7357142857142858L16.092139249547223,2.7357142857142858L16.30642496383294,2.95L16.5,2.95L16.5,3.05L16.26500360759563,3.05L16.050717893309915,2.8357142857142854L15.193575036167061,2.8357142857142854L14.979289321881346,2.6214285714285714L14.76500360759563,2.6214285714285714L14.550717893309915,2.407142857142857L13.479289321881346,2.407142857142857L13.26500360759563,2.1928571428571426L7.092139249547226,2.1928571428571426L6.907142857142857,2.377853535261512L6.907142857142857,3.8364321790242024z" stroke="none"/><path d="M26.95,6L27.05,6L27.05,7.907860750452773L27.478571428571428,8.336432179024204L27.478571428571428,9.449282106690081L27.23499639240437,9.692857142857143L25.520710678118654,9.692857142857143L25.12142857142857,10.092139249547223L25.12142857142857,10.306424963832939L22.94928210669008,12.478571428571428L22.30642496383294,12.478571428571428L22.092139249547227,12.692857142857143L20.336432179024204,12.692857142857143L18.19357503616706,10.55L18,10.55L18,10.45L18.23499639240437,10.45L20.37785353526151,12.592857142857142L22.05071789330992,12.592857142857142L22.26500360759563,12.378571428571426L22.907860750452773,12.378571428571426L25.02142857142857,10.26500360759563L25.02142857142857,10.050717893309915L25.479289321881346,9.592857142857142L27.19357503616706,9.592857142857142L27.378571428571426,9.407860750452773L27.378571428571426,8.377853535261512L26.95,7.949282106690083z" stroke="none"/><path d="M27,4.45L27,4.55L25.520710678118654,4.55L25.30642496383294,4.764285714285714L24.87785353526151,4.764285714285714L24.663567820975796,4.978571428571429L18.44928210669008,4.978571428571429L18.020710678118654,5.407142857142857L17.80642496383294,5.407142857142857L17.621428571428574,5.592139249547226L17.621428571428574,7.30642496383294L16.94928210669008,7.978571428571428L15.622146464738488,7.978571428571428L15.193575036167061,7.55L15,7.55L15,7.45L15.23499639240437,7.45L15.663567820975796,7.878571428571428L16.907860750452773,7.878571428571428L17.521428571428572,7.265003607595631L17.521428571428572,5.550717893309916L17.76500360759563,5.307142857142857L17.979289321881346,5.307142857142857L18.407860750452773,4.878571428571429L24.62214646473849,4.878571428571429L24.836432179024204,4.664285714285715L25.26500360759563,4.664285714285715L25.479289321881346,4.45z" stroke="none"/></svg>