<svg version="1.1" width="30" height="15" xmlns="http://www.w3.org/2000/svg"><path d="M7.664285714285715,6.622146464738488L8.550717893309915,5.735714285714286L9.23499639240437,5.735714285714286L10.73499639240437,7.235714285714286L10.949282106690081,7.235714285714286L12.23499639240437,8.521428571428569L12.449282106690081,8.521428571428569L12.663567820975796,8.735714285714284L12.877853535261512,8.735714285714284L14.377853535261512,10.235714285714284L14.806424963832939,10.235714285714284L15.035355339059327,10.464644660940673L14.964644660940673,10.535355339059327L14.76500360759563,10.335714285714285L14.336432179024204,10.335714285714285L12.836432179024204,8.835714285714285L12.622146464738488,8.835714285714285L12.407860750452773,8.62142857142857L12.193575036167061,8.62142857142857L10.907860750452773,7.335714285714285L10.693575036167061,7.335714285714285L9.193575036167061,5.835714285714285L8.592139249547223,5.835714285714285L7.764285714285714,6.663567820975797L7.764285714285714,6.807142857142857L7.907860750452773,6.807142857142857L8.76500360759563,5.95L9,5.95L9,6.05L8.806424963832939,6.05L7.949282106690083,6.907142857142857L7.764285714285714,6.907142857142857L7.764285714285714,7.520710678118655L7.121428571428571,8.163567820975796L7.121428571428571,8.592139249547223L6.478571428571428,9.23499639240437L6.478571428571428,9.663567820975796L6.05,10.092139249547223L6.05,10.5L5.95,10.5L5.95,10.050717893309915L6.378571428571428,9.622146464738488L6.378571428571428,9.193575036167061L7.021428571428571,8.550717893309915L7.021428571428571,8.122146464738488L7.664285714285715,7.479289321881345z" stroke="none"/><path d="M1.6642857142857144,8.307142857142857L4.949282106690084,8.307142857142857L5.3778535352615116,8.735714285714284L5.80642496383294,8.735714285714284L6.035355339059327,8.964644660940673L5.964644660940673,9.035355339059327L5.765003607595631,8.835714285714285L5.336432179024202,8.835714285714285L4.907860750452774,8.407142857142858L1.8349963924043693,8.407142857142858L1.9785714285714286,8.550717893309915L1.9785714285714286,8.979289321881346L2.1928571428571426,9.193575036167061L2.1928571428571426,9.407860750452773L2.8357142857142854,10.050717893309915L2.8357142857142854,10.26500360759563L3.0353553390593273,10.464644660940673L2.9646446609406727,10.535355339059327L2.7357142857142858,10.306424963832939L2.7357142857142858,10.092139249547223L2.092857142857143,9.449282106690081L2.092857142857143,9.23499639240437L1.8785714285714286,9.020710678118654L1.8785714285714286,8.592139249547223L1.7642857142857145,8.477853535261513L1.7642857142857145,9.193575036167061L1.9785714285714286,9.407860750452773L1.9785714285714286,9.622146464738488L2.1928571428571426,9.836432179024204L2.1928571428571426,10.050717893309915L2.407142857142857,10.26500360759563L2.407142857142857,10.693575036167061L2.6214285714285714,10.907860750452773L2.6214285714285714,11.122146464738488L2.8357142857142854,11.336432179024204L2.8357142857142854,11.550717893309915L3.05,11.76500360759563L3.05,12L2.95,12L2.95,11.806424963832939L2.7357142857142858,11.592139249547223L2.7357142857142858,11.377853535261512L2.521428571428572,11.163567820975796L2.521428571428572,10.949282106690081L2.3071428571428574,10.73499639240437L2.3071428571428574,10.306424963832939L2.092857142857143,10.092139249547223L2.092857142857143,9.877853535261512L1.8785714285714286,9.663567820975796L1.8785714285714286,9.449282106690081L1.6642857142857144,9.23499639240437z" stroke="none"/><path d="M20.12214646473849,8.735714285714284L21.23499639240437,8.735714285714284L21.44928210669008,8.95L21.663567820975796,8.95L21.87785353526151,9.164285714285715L22.520710678118654,9.164285714285715L22.73499639240437,9.378571428571426L24.020710678118654,9.378571428571426L24.23499639240437,9.592857142857142L24.663567820975796,9.592857142857142L25.53535533905933,10.464644660940673L25.46464466094067,10.535355339059327L24.62214646473849,9.692857142857143L24.19357503616706,9.692857142857143L23.979289321881346,9.478571428571428L22.69357503616706,9.478571428571428L22.479289321881346,9.264285714285716L21.836432179024204,9.264285714285716L21.62214646473849,9.05L21.407860750452773,9.05L21.19357503616706,8.835714285714285L20.263567820975798,8.835714285714285L20.37785353526151,8.95L20.592139249547227,8.95L21.663567820975796,10.021428571428569L22.092139249547227,10.021428571428569L22.53535533905933,10.464644660940673L22.46464466094067,10.535355339059327L22.05071789330992,10.12142857142857L21.62214646473849,10.12142857142857L20.55071789330992,9.05L20.336432179024204,9.05L20.142857142857142,8.85642496383294L19.978571428571428,9.020710678118654L19.978571428571428,9.449282106690081L19.335714285714285,10.092139249547223L19.335714285714285,10.306424963832939L18.90714285714286,10.73499639240437L18.90714285714286,11.163567820975796L18.03535533905933,12.035355339059327L17.96464466094067,11.964644660940673L18.807142857142857,11.122146464738488L18.807142857142857,10.693575036167061L19.235714285714284,10.26500360759563L19.235714285714284,10.050717893309915L19.878571428571426,9.407860750452773L19.878571428571426,8.979289321881346z" stroke="none"/><path d="M8.95,3.8071428571428574L8.95,3.622146464738488L9.193575036167061,3.3785714285714286L9.449282106690081,3.3785714285714286L10.12142857142857,4.050717893309916L10.12142857142857,4.265003607595631L10.335714285714285,4.479289321881345L10.335714285714285,4.69357503616706L10.764285714285716,5.122146464738488L10.764285714285716,5.336432179024202L11.192857142857143,5.765003607595631L11.192857142857143,5.979289321881345L15.020710678118654,9.807142857142857L15.23499639240437,9.807142857142857L15.478571428571428,10.050717893309915L15.478571428571428,10.949282106690081L15.23499639240437,11.192857142857143L14.76500360759563,11.192857142857143L14.336432179024204,10.764285714285716L14.122146464738488,10.764285714285716L13.907860750452773,10.55L13.693575036167061,10.55L13.26500360759563,10.12142857142857L11.550717893309915,10.12142857142857L11.336432179024204,9.907142857142858L10.050717893309915,9.907142857142858L9.836432179024204,9.692857142857143L8.979289321881346,9.692857142857143L8.550717893309915,9.264285714285716L7.69357503616706,9.264285714285716L7.464644660940673,9.035355339059327L7.535355339059327,8.964644660940673L7.734996392404369,9.164285714285715L8.592139249547223,9.164285714285715L9.020710678118654,9.592857142857142L9.877853535261512,9.592857142857142L10.092139249547223,9.807142857142857L11.377853535261512,9.807142857142857L11.592139249547223,10.021428571428569L13.306424963832939,10.021428571428569L13.73499639240437,10.45L13.949282106690081,10.45L14.163567820975796,10.664285714285715L14.377853535261512,10.664285714285715L14.806424963832939,11.092857142857142L15.193575036167061,11.092857142857142L15.378571428571426,10.907860750452773L15.378571428571426,10.092139249547223L15.193575036167061,9.907142857142858L14.979289321881346,9.907142857142858L11.092857142857142,6.020710678118655L11.092857142857142,5.80642496383294L10.664285714285715,5.3778535352615116L10.664285714285715,5.163567820975797L10.235714285714284,4.734996392404369L10.235714285714284,4.520710678118655L10.021428571428569,4.30642496383294L10.021428571428569,4.092139249547226L9.407860750452773,3.478571428571428L9.23499639240437,3.478571428571428L9.05,3.6635678209757976L9.05,3.8071428571428574L9.23499639240437,3.8071428571428574L9.907142857142858,4.479289321881345L9.907142857142858,4.69357503616706L10.335714285714285,5.122146464738488L10.335714285714285,5.765003607595631L10.535355339059327,5.964644660940673L10.464644660940673,6.035355339059327L10.235714285714284,5.80642496383294L10.235714285714284,5.163567820975797L9.807142857142857,4.734996392404369L9.807142857142857,4.520710678118655L9.193575036167061,3.907142857142857L9.05,3.907142857142857L9.05,4.5L8.95,4.5L8.95,3.907142857142857L8.76500360759563,3.907142857142857L8.521428571428569,3.6635678209757976L8.521428571428569,3.4078607504527736L8.76500360759563,3.1642857142857146L11.163567820975796,3.1642857142857146L11.377853535261512,3.3785714285714286L16.520710678118654,3.3785714285714286L17.37785353526151,4.235714285714286L17.592139249547227,4.235714285714286L17.80642496383294,4.45L18,4.45L18,4.55L17.76500360759563,4.55L17.55071789330992,4.335714285714285L17.336432179024204,4.335714285714285L16.479289321881346,3.478571428571428L11.336432179024204,3.478571428571428L11.122146464738488,3.2642857142857142L8.806424963832939,3.2642857142857142L8.62142857142857,3.449282106690083L8.62142857142857,3.622146464738488L8.806424963832939,3.8071428571428574z" stroke="none"/><path d="M20.521428571428572,7.878571428571428L20.521428571428572,7.69357503616706L20.76500360759563,7.45L21.020710678118654,7.45L21.23499639240437,7.664285714285715L21.87785353526151,7.664285714285715L22.092139249547227,7.878571428571428L23.37785353526151,7.878571428571428L23.592139249547223,8.092857142857142L23.80642496383294,8.092857142857142L24.020710678118654,8.307142857142857L24.23499639240437,8.307142857142857L24.663567820975796,8.735714285714284L24.87785353526151,8.735714285714284L25.092139249547223,8.95L25.30642496383294,8.95L26.192857142857143,9.836432179024204L26.192857142857143,10.479289321881346L26.40714285714286,10.693575036167061L26.40714285714286,10.907860750452773L26.62142857142857,11.122146464738488L26.62142857142857,11.336432179024204L26.835714285714285,11.550717893309915L26.835714285714285,11.76500360759563L27.03535533905933,11.964644660940673L26.96464466094067,12.035355339059327L26.735714285714284,11.806424963832939L26.735714285714284,11.592139249547223L26.52142857142857,11.377853535261512L26.52142857142857,11.163567820975796L26.307142857142857,10.949282106690081L26.307142857142857,10.73499639240437L26.09285714285714,10.520710678118654L26.09285714285714,9.877853535261512L25.26500360759563,9.05L25.050717893309915,9.05L24.836432179024204,8.835714285714285L24.62214646473849,8.835714285714285L24.19357503616706,8.407142857142858L23.979289321881346,8.407142857142858L23.76500360759563,8.192857142857143L23.550717893309915,8.192857142857143L23.336432179024204,7.978571428571428L22.05071789330992,7.978571428571428L21.836432179024204,7.764285714285714L21.19357503616706,7.764285714285714L20.979289321881346,7.55L20.80642496383294,7.55L20.621428571428574,7.734996392404369L20.621428571428574,7.878571428571428L21.663567820975796,7.878571428571428L21.87785353526151,8.092857142857142L22.092139249547227,8.092857142857142L22.30642496383294,8.307142857142857L22.73499639240437,8.307142857142857L22.94928210669008,8.521428571428569L23.163567820975796,8.521428571428569L23.37785353526151,8.735714285714284L23.592139249547223,8.735714285714284L23.80642496383294,8.95L24.020710678118654,8.95L24.23499639240437,9.164285714285715L24.44928210669008,9.164285714285715L24.663567820975796,9.378571428571426L24.87785353526151,9.378571428571426L25.30642496383294,9.807142857142857L25.73499639240437,9.807142857142857L25.978571428571428,10.050717893309915L25.978571428571428,11.163567820975796L25.764285714285716,11.377853535261512L25.764285714285716,11.806424963832939L25.53535533905933,12.035355339059327L25.46464466094067,11.964644660940673L25.664285714285715,11.76500360759563L25.664285714285715,11.336432179024204L25.878571428571426,11.122146464738488L25.878571428571426,10.092139249547223L25.69357503616706,9.907142857142858L25.26500360759563,9.907142857142858L24.836432179024204,9.478571428571428L24.62214646473849,9.478571428571428L24.407860750452773,9.264285714285716L24.19357503616706,9.264285714285716L23.979289321881346,9.05L23.76500360759563,9.05L23.550717893309915,8.835714285714285L23.336432179024204,8.835714285714285L23.12214646473849,8.62142857142857L22.907860750452773,8.62142857142857L22.69357503616706,8.407142857142858L22.26500360759563,8.407142857142858L22.05071789330992,8.192857142857143L21.836432179024204,8.192857142857143L21.62214646473849,7.978571428571428L20.621428571428574,7.978571428571428L20.621428571428574,8.163567820975796L19.94928210669008,8.835714285714285L19.73499639240437,8.835714285714285L19.53535533905933,9.035355339059327L19.46464466094067,8.964644660940673L19.69357503616706,8.735714285714284L19.907860750452773,8.735714285714284L20.521428571428572,8.122146464738488L20.521428571428572,7.978571428571428L20.12214646473849,7.978571428571428L19.69357503616706,7.55L19.5,7.55L19.5,7.45L19.73499639240437,7.45L20.163567820975796,7.878571428571428z" stroke="none"/><path d="M20.95,5.336432179024202L20.95,5.122146464738488L21.19357503616706,4.878571428571429L21.44928210669008,4.878571428571429L21.663567820975796,5.0928571428571425L21.87785353526151,5.0928571428571425L22.092139249547227,5.307142857142857L22.520710678118654,5.307142857142857L22.73499639240437,5.521428571428571L22.94928210669008,5.521428571428571L23.163567820975796,5.735714285714286L23.592139249547223,5.735714285714286L23.80642496383294,5.95L24.23499639240437,5.95L24.44928210669008,6.164285714285715L25.30642496383294,6.164285714285715L25.520710678118654,6.378571428571428L25.73499639240437,6.378571428571428L26.37785353526151,7.021428571428571L26.592139249547223,7.021428571428571L27.03535533905933,7.464644660940673L26.96464466094067,7.535355339059327L26.550717893309915,7.121428571428571L26.336432179024204,7.121428571428571L25.69357503616706,6.478571428571428L25.479289321881346,6.478571428571428L25.26500360759563,6.264285714285714L24.407860750452773,6.264285714285714L24.19357503616706,6.05L23.76500360759563,6.05L23.550717893309915,5.835714285714285L23.12214646473849,5.835714285714285L22.907860750452773,5.621428571428571L22.69357503616706,5.621428571428571L22.479289321881346,5.407142857142857L22.05071789330992,5.407142857142857L21.836432179024204,5.192857142857142L21.62214646473849,5.192857142857142L21.407860750452773,4.978571428571429L21.23499639240437,4.978571428571429L21.05,5.163567820975797L21.05,5.307142857142857L21.663567820975796,5.307142857142857L21.87785353526151,5.521428571428571L22.30642496383294,5.521428571428571L22.520710678118654,5.735714285714286L22.73499639240437,5.735714285714286L24.020710678118654,7.021428571428571L24.44928210669008,7.021428571428571L24.663567820975796,7.235714285714286L24.87785353526151,7.235714285714286L25.092139249547223,7.45L25.5,7.45L25.5,7.55L25.050717893309915,7.55L24.836432179024204,7.335714285714285L24.62214646473849,7.335714285714285L24.407860750452773,7.121428571428571L23.979289321881346,7.121428571428571L22.69357503616706,5.835714285714285L22.479289321881346,5.835714285714285L22.26500360759563,5.621428571428571L21.836432179024204,5.621428571428571L21.62214646473849,5.407142857142857L21.120710678118655,5.407142857142857L21.23499639240437,5.521428571428571L21.44928210669008,5.521428571428571L21.663567820975796,5.735714285714286L22.092139249547227,5.735714285714286L22.30642496383294,5.95L22.5,5.95L22.5,6.05L22.26500360759563,6.05L22.05071789330992,5.835714285714285L21.62214646473849,5.835714285714285L21.407860750452773,5.621428571428571L21.19357503616706,5.621428571428571L21,5.427853535261511L20.80642496383294,5.621428571428571L20.592139249547227,5.621428571428571L19.121428571428574,7.092139249547226L19.121428571428574,9.020710678118654L18.478571428571428,9.663567820975796L18.478571428571428,9.877853535261512L18.264285714285716,10.092139249547223L18.264285714285716,10.306424963832939L18.03535533905933,10.535355339059327L17.96464466094067,10.464644660940673L18.164285714285715,10.26500360759563L18.164285714285715,10.050717893309915L18.378571428571426,9.836432179024204L18.378571428571426,9.622146464738488L19.021428571428572,8.979289321881346L19.021428571428572,7.050717893309916L20.55071789330992,5.521428571428571L20.76500360759563,5.521428571428571z" stroke="none"/><path d="M14.95,4.5L15.05,4.5L15.05,6L14.95,6z" stroke="none"/><path d="M24,2.95L24,3.05L22.5,3.05L22.5,2.95z" stroke="none"/><path d="M13.45,4.5L13.55,4.5L13.55,6L13.45,6z" stroke="none"/><path d="M7.5,12.05L7.5,11.95L9,11.95L9,12.05z" stroke="none"/><path d="M3,9.05L3,8.95L4.5,8.95L4.5,9.05z" stroke="none"/><path d="M11.95,4.5L12.05,4.5L12.05,6L11.95,6z" stroke="none"/><path d="M3.05,6L2.95,6L2.95,5.765003607595631L3.3785714285714286,5.336432179024202L3.3785714285714286,4.092139249547226L3.1642857142857146,3.877853535261512L3.1642857142857146,3.234996392404369L2.9646446609406727,3.0353553390593273L3.0353553390593273,2.9646446609406727L3.2642857142857142,3.1935750361670596L3.2642857142857142,3.8364321790242024L3.478571428571428,4.050717893309916L3.478571428571428,5.3778535352615116L3.05,5.80642496383294z" stroke="none"/><path d="M16.45,9L16.55,9L16.55,12L16.45,12z" stroke="none"/><path d="M10.535355339059327,11.964644660940673L10.464644660940673,12.035355339059327L9.836432179024204,11.407142857142858L9.622146464738488,11.407142857142858L9.407860750452773,11.192857142857143L8.979289321881346,11.192857142857143L8.76500360759563,10.978571428571428L8.550717893309915,10.978571428571428L8.336432179024204,10.764285714285716L7.69357503616706,10.764285714285716L7.464644660940673,10.535355339059327L7.535355339059327,10.464644660940673L7.734996392404369,10.664285714285715L8.377853535261512,10.664285714285715L8.592139249547223,10.878571428571426L8.806424963832939,10.878571428571426L9.020710678118654,11.092857142857142L9.449282106690081,11.092857142857142L9.663567820975796,11.307142857142857L9.877853535261512,11.307142857142857z" stroke="none"/><path d="M6,2.95L6,3.05L4.69357503616706,3.05L4.265003607595631,2.6214285714285714L3.1935750361670596,2.6214285714285714L2.979289321881345,2.407142857142857L2.8064249638329404,2.407142857142857L2.6214285714285714,2.5921392495472264L2.6214285714285714,3.622146464738488L2.8357142857142854,3.8364321790242024L2.8357142857142854,4.050717893309916L3.05,4.265003607595631L3.05,4.5L2.95,4.5L2.95,4.30642496383294L2.7357142857142858,4.092139249547226L2.7357142857142858,3.877853535261512L2.521428571428572,3.6635678209757976L2.521428571428572,2.550717893309917L2.765003607595631,2.3071428571428574L3.020710678118655,2.3071428571428574L3.234996392404369,2.521428571428572L4.30642496383294,2.521428571428572L4.734996392404369,2.95z" stroke="none"/><path d="M3,7.55L3,7.45L3.622146464738488,7.45L3.8364321790242024,7.235714285714286L4.050717893309916,7.235714285714286L4.265003607595631,7.021428571428571L4.479289321881345,7.021428571428571L4.69357503616706,6.807142857142857L4.907860750452774,6.807142857142857L5.765003607595631,5.95L6,5.95L6,6.05L5.80642496383294,6.05L4.949282106690084,6.907142857142857L4.734996392404369,6.907142857142857L4.520710678118655,7.121428571428571L4.30642496383294,7.121428571428571L4.092139249547226,7.335714285714285L3.877853535261512,7.335714285714285L3.6635678209757976,7.55z" stroke="none"/><path d="M24,12.05L24,11.95L24.44928210669008,11.95L24.87785353526151,12.378571428571426L25.73499639240437,12.378571428571426L25.94928210669008,12.592857142857142L27.19357503616706,12.592857142857142L27.378571428571426,12.407860750452773L27.378571428571426,10.949282106690081L26.96464466094067,10.535355339059327L27.03535533905933,10.464644660940673L27.478571428571428,10.907860750452773L27.478571428571428,12.449282106690081L27.23499639240437,12.692857142857143L25.907860750452773,12.692857142857143L25.69357503616706,12.478571428571428L24.836432179024204,12.478571428571428L24.407860750452773,12.05z" stroke="none"/><path d="M9.035355339059327,10.464644660940673L8.964644660940673,10.535355339059327L8.550717893309915,10.12142857142857L7.092139249547226,10.12142857142857L6.692857142857142,10.520710678118654L6.692857142857142,10.73499639240437L6.449282106690083,10.978571428571428L6.020710678118655,10.978571428571428L5.80642496383294,11.192857142857143L5.592139249547226,11.192857142857143L4.734996392404369,12.05L4.5,12.05L4.5,11.95L4.69357503616706,11.95L5.550717893309916,11.092857142857142L5.765003607595631,11.092857142857142L5.979289321881345,10.878571428571426L6.407860750452773,10.878571428571426L6.5928571428571425,10.693575036167061L6.5928571428571425,10.479289321881346L7.050717893309916,10.021428571428569L8.592139249547223,10.021428571428569z" stroke="none"/><path d="M20.96464466094067,6.035355339059327L21.03535533905933,5.964644660940673L21.44928210669008,6.378571428571428L21.87785353526151,6.378571428571428L22.092139249547227,6.5928571428571425L22.520710678118654,6.5928571428571425L23.163567820975796,7.235714285714286L24.23499639240437,7.235714285714286L24.663567820975796,7.664285714285715L24.87785353526151,7.664285714285715L25.092139249547223,7.878571428571428L27.407860750452773,7.878571428571428L27.59285714285714,7.69357503616706L27.59285714285714,7.520710678118655L27.378571428571426,7.30642496383294L27.378571428571426,7.092139249547226L26.550717893309915,6.264285714285714L25.69357503616706,6.264285714285714L25.479289321881346,6.05L24.836432179024204,6.05L24.62214646473849,5.835714285714285L24.19357503616706,5.835714285714285L23.76500360759563,5.407142857142857L22.907860750452773,5.407142857142857L22.26500360759563,4.764285714285714L20.37785353526151,4.764285714285714L19.73499639240437,5.407142857142857L19.520710678118654,5.407142857142857L19.30642496383294,5.621428571428571L19.092139249547227,5.621428571428571L18.663567820975796,6.05L18.44928210669008,6.05L18.23499639240437,6.264285714285714L18.020710678118654,6.264285714285714L16.73499639240437,7.55L16.5,7.55L16.5,7.45L16.69357503616706,7.45L17.979289321881346,6.164285714285715L18.19357503616706,6.164285714285715L18.407860750452773,5.95L18.62214646473849,5.95L19.05071789330992,5.521428571428571L19.26500360759563,5.521428571428571L19.479289321881346,5.307142857142857L19.69357503616706,5.307142857142857L20.336432179024204,4.664285714285715L22.30642496383294,4.664285714285715L22.94928210669008,5.307142857142857L23.80642496383294,5.307142857142857L24.23499639240437,5.735714285714286L24.663567820975796,5.735714285714286L24.87785353526151,5.95L25.520710678118654,5.95L25.73499639240437,6.164285714285715L26.592139249547223,6.164285714285715L27.478571428571428,7.050717893309916L27.478571428571428,7.265003607595631L27.692857142857143,7.479289321881345L27.692857142857143,7.734996392404369L27.44928210669008,7.978571428571428L25.050717893309915,7.978571428571428L24.836432179024204,7.764285714285714L24.62214646473849,7.764285714285714L24.19357503616706,7.335714285714285L23.12214646473849,7.335714285714285L22.479289321881346,6.692857142857142L22.05071789330992,6.692857142857142L21.836432179024204,6.478571428571428L21.407860750452773,6.478571428571428z" stroke="none"/><path d="M15,11.95L15,12.05L14.76500360759563,12.05L14.550717893309915,11.835714285714285L14.336432179024204,11.835714285714285L13.907860750452773,11.407142857142858L13.050717893309915,11.407142857142858L12.836432179024204,11.192857142857143L12.407860750452773,11.192857142857143L11.979289321881346,10.764285714285716L11.550717893309915,10.764285714285716L11.336432179024204,10.55L10.5,10.55L10.5,10.45L11.377853535261512,10.45L11.592139249547223,10.664285714285715L12.020710678118654,10.664285714285715L12.449282106690081,11.092857142857142L12.877853535261512,11.092857142857142L13.092139249547223,11.307142857142857L13.949282106690081,11.307142857142857L14.377853535261512,11.735714285714284L14.592139249547223,11.735714285714284L14.806424963832939,11.95z" stroke="none"/><path d="M15.035355339059327,7.535355339059327L14.964644660940673,7.464644660940673L17.55071789330992,4.878571428571429L18.407860750452773,4.878571428571429L18.62214646473849,4.664285714285715L18.836432179024204,4.664285714285715L19.05071789330992,4.45L19.5,4.45L19.5,4.55L19.092139249547227,4.55L18.87785353526151,4.764285714285714L18.663567820975796,4.764285714285714L18.44928210669008,4.978571428571429L17.592139249547227,4.978571428571429z" stroke="none"/><path d="M12,2.95L12,3.05L8.377853535261512,3.05L7.949282106690083,3.478571428571428L7.092139249547226,3.478571428571428L6.035355339059327,4.535355339059327L5.964644660940673,4.464644660940673L7.050717893309916,3.3785714285714286L7.907860750452773,3.3785714285714286L8.336432179024204,2.95z" stroke="none"/><path d="M26.95,3L27.05,3L27.05,5.550717893309916L27.264285714285716,5.765003607595631L27.264285714285716,6.19357503616706L27.90714285714286,6.836432179024202L27.90714285714286,7.949282106690083L27.663567820975796,8.192857142857143L24.19357503616706,8.192857142857143L23.76500360759563,7.764285714285714L22.907860750452773,7.764285714285714L22.69357503616706,7.55L22.5,7.55L22.5,7.45L22.73499639240437,7.45L22.94928210669008,7.664285714285715L23.80642496383294,7.664285714285715L24.23499639240437,8.092857142857142L27.62214646473849,8.092857142857142L27.807142857142857,7.907860750452773L27.807142857142857,6.8778535352615116L27.164285714285715,6.234996392404369L27.164285714285715,5.80642496383294L26.95,5.592139249547226z" stroke="none"/><path d="M17.95,7.5L18.05,7.5L18.05,9.449282106690081L17.835714285714285,9.663567820975796L17.835714285714285,9.877853535261512L17.621428571428574,10.092139249547223L17.621428571428574,12.407860750452773L17.80642496383294,12.592857142857142L25.30642496383294,12.592857142857142L25.520710678118654,12.807142857142857L27.407860750452773,12.807142857142857L27.59285714285714,12.622146464738488L27.59285714285714,8.76500360759563L28.02142857142857,8.336432179024204L28.02142857142857,3.449282106690083L27.59285714285714,3.020710678118655L27.59285714285714,2.8064249638329404L27.407860750452773,2.6214285714285714L26.592139249547223,2.6214285714285714L25.978571428571428,3.234996392404369L25.978571428571428,3.877853535261512L25.764285714285716,4.092139249547226L25.764285714285716,4.30642496383294L25.53535533905933,4.535355339059327L25.46464466094067,4.464644660940673L25.664285714285715,4.265003607595631L25.664285714285715,4.050717893309916L25.878571428571426,3.8364321790242024L25.878571428571426,3.1935750361670596L26.550717893309915,2.521428571428572L27.44928210669008,2.521428571428572L27.692857142857143,2.765003607595631L27.692857142857143,2.979289321881345L28.12142857142857,3.4078607504527736L28.12142857142857,8.377853535261512L27.692857142857143,8.806424963832939L27.692857142857143,12.663567820975796L27.44928210669008,12.907142857142858L25.479289321881346,12.907142857142858L25.26500360759563,12.692857142857143L17.76500360759563,12.692857142857143L17.521428571428572,12.449282106690081L17.521428571428572,10.050717893309915L17.735714285714284,9.836432179024204L17.735714285714284,9.622146464738488L17.95,9.407860750452773z" stroke="none"/><path d="M4.45,10.5L4.55,10.5L4.55,10.949282106690081L4.335714285714285,11.163567820975796L4.335714285714285,11.377853535261512L4.121428571428571,11.592139249547223L4.121428571428571,12.407860750452773L4.30642496383294,12.592857142857142L12.622146464738488,12.592857142857142L13.050717893309915,12.164285714285715L13.26500360759563,12.164285714285715L13.464644660940673,11.964644660940673L13.535355339059327,12.035355339059327L13.306424963832939,12.264285714285716L13.092139249547223,12.264285714285716L12.663567820975796,12.692857142857143L4.265003607595631,12.692857142857143L4.021428571428571,12.449282106690081L4.021428571428571,11.550717893309915L4.235714285714286,11.336432179024204L4.235714285714286,11.122146464738488L4.45,10.907860750452773z" stroke="none"/><path d="M14.964644660940673,9.035355339059327L15.035355339059327,8.964644660940673L15.692857142857143,9.622146464738488L15.692857142857143,12.23499639240437L15.449282106690081,12.478571428571428L14.592139249547223,12.478571428571428L14.377853535261512,12.692857142857143L13.73499639240437,12.692857142857143L13.520710678118654,12.907142857142858L2.979289321881345,12.907142857142858L2.092857142857143,12.020710678118654L2.092857142857143,10.520710678118654L1.45,9.877853535261512L1.45,8.336432179024204L1.6935750361670596,8.092857142857142L3.8364321790242024,8.092857142857142L4.050717893309916,7.878571428571428L4.907860750452774,7.878571428571428L5.122146464738488,7.664285714285715L5.550717893309916,7.664285714285715L5.765003607595631,7.45L6,7.45L6,7.55L5.80642496383294,7.55L5.592139249547226,7.764285714285714L5.163567820975797,7.764285714285714L4.949282106690084,7.978571428571428L4.092139249547226,7.978571428571428L3.877853535261512,8.192857142857143L1.7349963924043692,8.192857142857143L1.55,8.377853535261512L1.55,9.836432179024204L2.1928571428571426,10.479289321881346L2.1928571428571426,11.979289321881346L3.020710678118655,12.807142857142857L13.479289321881346,12.807142857142857L13.693575036167061,12.592857142857142L14.336432179024204,12.592857142857142L14.550717893309915,12.378571428571426L15.407860750452773,12.378571428571426L15.592857142857142,12.193575036167061L15.592857142857142,9.663567820975796z" stroke="none"/><path d="M25.5,2.95L25.5,3.05L25.092139249547223,3.05L24.663567820975796,3.478571428571428L17.12214646473849,3.478571428571428L16.907860750452773,3.2642857142857142L14.979289321881346,3.2642857142857142L14.76500360759563,3.05L13.5,3.05L13.5,2.95L14.806424963832939,2.95L15.020710678118654,3.1642857142857146L16.94928210669008,3.1642857142857146L17.163567820975796,3.3785714285714286L24.62214646473849,3.3785714285714286L25.050717893309915,2.95z" stroke="none"/><path d="M16.46464466094067,4.464644660940673L16.53535533905933,4.535355339059327L16.335714285714285,4.734996392404369L16.335714285714285,4.949282106690084L15.692857142857143,5.592139249547226L15.692857142857143,6.020710678118655L15.478571428571428,6.234996392404369L15.478571428571428,6.449282106690083L15.020710678118654,6.907142857142857L14.806424963832939,6.907142857142857L14.62142857142857,7.092139249547226L14.62142857142857,7.907860750452773L14.806424963832939,8.092857142857142L15.020710678118654,8.092857142857142L15.907142857142858,8.979289321881346L15.907142857142858,12.449282106690081L15.663567820975796,12.692857142857143L14.806424963832939,12.692857142857143L14.592139249547223,12.907142857142858L13.949282106690081,12.907142857142858L13.73499639240437,13.12142857142857L2.765003607595631,13.12142857142857L1.8785714285714286,12.23499639240437L1.8785714285714286,11.163567820975796L1.6642857142857144,10.949282106690081L1.6642857142857144,10.520710678118654L1.2357142857142858,10.092139249547223L1.2357142857142858,8.122146464738488L2.979289321881345,6.378571428571428L3.8364321790242024,6.378571428571428L4.265003607595631,5.95L4.5,5.95L4.5,6.05L4.30642496383294,6.05L3.877853535261512,6.478571428571428L3.020710678118655,6.478571428571428L1.3357142857142859,8.163567820975796L1.3357142857142859,10.050717893309915L1.7642857142857145,10.479289321881346L1.7642857142857145,10.907860750452773L1.9785714285714286,11.122146464738488L1.9785714285714286,12.193575036167061L2.8064249638329404,13.021428571428569L13.693575036167061,13.021428571428569L13.907860750452773,12.807142857142857L14.550717893309915,12.807142857142857L14.76500360759563,12.592857142857142L15.622146464738488,12.592857142857142L15.807142857142857,12.407860750452773L15.807142857142857,9.020710678118654L14.979289321881346,8.192857142857143L14.76500360759563,8.192857142857143L14.521428571428569,7.949282106690083L14.521428571428569,7.050717893309916L14.76500360759563,6.807142857142857L14.979289321881346,6.807142857142857L15.378571428571426,6.407860750452773L15.378571428571426,6.19357503616706L15.592857142857142,5.979289321881345L15.592857142857142,5.550717893309916L16.235714285714284,4.907860750452774L16.235714285714284,4.69357503616706z" stroke="none"/><path d="M7.535355339059327,5.964644660940673L7.464644660940673,6.035355339059327L7.050717893309916,5.621428571428571L6.836432179024202,5.621428571428571L6.622146464738488,5.407142857142857L6.407860750452773,5.407142857142857L6.19357503616706,5.192857142857142L5.765003607595631,5.192857142857142L5.521428571428571,4.949282106690084L5.521428571428571,4.050717893309916L5.765003607595631,3.8071428571428574L5.979289321881345,3.8071428571428574L6.19357503616706,3.592857142857143L6.407860750452773,3.592857142857143L6.836432179024202,3.1642857142857146L7.479289321881345,3.1642857142857146L7.907860750452773,2.7357142857142858L11.336432179024204,2.7357142857142858L11.550717893309915,2.521428571428572L18.87785353526151,2.521428571428572L19.30642496383294,2.95L19.5,2.95L19.5,3.05L19.26500360759563,3.05L18.836432179024204,2.6214285714285714L11.592139249547223,2.6214285714285714L11.377853535261512,2.8357142857142854L7.949282106690083,2.8357142857142854L7.520710678118655,3.2642857142857142L6.8778535352615116,3.2642857142857142L6.449282106690083,3.6928571428571426L6.234996392404369,3.6928571428571426L6.020710678118655,3.907142857142857L5.80642496383294,3.907142857142857L5.621428571428571,4.092139249547226L5.621428571428571,4.907860750452774L5.80642496383294,5.0928571428571425L6.234996392404369,5.0928571428571425L6.449282106690083,5.307142857142857L6.663567820975797,5.307142857142857L6.8778535352615116,5.521428571428571L7.092139249547226,5.521428571428571z" stroke="none"/></svg>