<svg version="1.1" width="30" height="15" xmlns="http://www.w3.org/2000/svg"><path d="M16.26500360759563,6.807142857142857L16.69357503616706,6.378571428571428L16.907860750452773,6.378571428571428L17.521428571428572,5.765003607595631L17.521428571428572,5.550717893309916L18.19357503616706,4.878571428571429L18.62214646473849,4.878571428571429L18.836432179024204,4.664285714285715L19.26500360759563,4.664285714285715L19.46464466094067,4.464644660940673L19.53535533905933,4.535355339059327L19.30642496383294,4.764285714285714L18.87785353526151,4.764285714285714L18.663567820975796,4.978571428571429L18.23499639240437,4.978571428571429L17.621428571428574,5.592139249547226L17.621428571428574,5.80642496383294L16.94928210669008,6.478571428571428L16.73499639240437,6.478571428571428L16.30642496383294,6.907142857142857L15.449282106690081,6.907142857142857L15.264285714285716,7.092139249547226L15.264285714285716,7.30642496383294L15.035355339059327,7.535355339059327L14.964644660940673,7.464644660940673L15.164285714285715,7.265003607595631L15.164285714285715,7.050717893309916L15.307860750452772,6.907142857142857L15.020710678118654,6.907142857142857L13.520710678118654,8.407142857142858L13.092139249547223,8.407142857142858L12.449282106690081,9.05L12,9.05L12,8.95L12.407860750452773,8.95L13.050717893309915,8.307142857142857L13.479289321881346,8.307142857142857L14.979289321881346,6.807142857142857z" stroke="none"/><path d="M6.8778535352615116,5.307142857142857L7.30642496383294,5.307142857142857L9.23499639240437,7.235714285714286L9.877853535261512,7.235714285714286L10.092139249547223,7.45L10.5,7.45L10.5,7.55L10.050717893309915,7.55L9.836432179024204,7.335714285714285L9.193575036167061,7.335714285714285L7.265003607595631,5.407142857142857L6.977853535261511,5.407142857142857L7.535355339059327,5.964644660940673L7.464644660940673,6.035355339059327L5.336432179024202,3.907142857142857L4.265003607595631,3.907142857142857L3.622146464738488,3.2642857142857142L3.4078607504527736,3.2642857142857142L3.1935750361670596,3.05L3,3.05L3,2.95L3.234996392404369,2.95L3.449282106690083,3.1642857142857146L3.6635678209757976,3.1642857142857146L4.30642496383294,3.8071428571428574L5.3778535352615116,3.8071428571428574z" stroke="none"/><path d="M21.836432179024204,9.807142857142857L22.05071789330992,9.592857142857142L22.26500360759563,9.592857142857142L22.479289321881346,9.378571428571426L22.69357503616706,9.378571428571426L22.907860750452773,9.164285714285715L23.550717893309915,9.164285714285715L23.76500360759563,8.95L24,8.95L24,9.05L23.80642496383294,9.05L23.592139249547223,9.264285714285716L22.94928210669008,9.264285714285716L22.73499639240437,9.478571428571428L22.520710678118654,9.478571428571428L22.30642496383294,9.692857142857143L22.092139249547227,9.692857142857143L21.977853535261513,9.807142857142857L22.092139249547227,9.807142857142857L22.30642496383294,10.021428571428569L22.73499639240437,10.021428571428569L23.37785353526151,10.664285714285715L23.80642496383294,10.664285714285715L24.44928210669008,11.307142857142857L24.87785353526151,11.307142857142857L25.53535533905933,11.964644660940673L25.46464466094067,12.035355339059327L24.836432179024204,11.407142857142858L24.407860750452773,11.407142857142858L23.76500360759563,10.764285714285716L23.336432179024204,10.764285714285716L22.69357503616706,10.12142857142857L22.26500360759563,10.12142857142857L22.05071789330992,9.907142857142858L17.55071789330992,9.907142857142858L16.907860750452773,9.264285714285716L16.69357503616706,9.264285714285716L16.46464466094067,9.035355339059327L16.53535533905933,8.964644660940673L16.73499639240437,9.164285714285715L16.94928210669008,9.164285714285715L17.592139249547227,9.807142857142857z" stroke="none"/><path d="M14.979289321881346,8.092857142857142L15.193575036167061,7.878571428571428L15.407860750452773,7.878571428571428L15.592857142857142,7.69357503616706L15.592857142857142,7.479289321881345L16.050717893309915,7.021428571428571L16.479289321881346,7.021428571428571L16.907860750452773,6.5928571428571425L17.12214646473849,6.5928571428571425L17.55071789330992,6.164285714285715L17.76500360759563,6.164285714285715L17.96464466094067,5.964644660940673L18.03535533905933,6.035355339059327L17.80642496383294,6.264285714285714L17.592139249547227,6.264285714285714L17.163567820975796,6.692857142857142L16.94928210669008,6.692857142857142L16.520710678118654,7.121428571428571L16.092139249547223,7.121428571428571L15.692857142857143,7.520710678118655L15.692857142857143,7.734996392404369L15.449282106690081,7.978571428571428L15.23499639240437,7.978571428571428L15.120710678118655,8.092857142857142L15.23499639240437,8.092857142857142L15.478571428571428,8.336432179024204L15.478571428571428,9.020710678118654L15.23499639240437,9.264285714285716L14.592139249547223,9.264285714285716L14.377853535261512,9.478571428571428L14.163567820975796,9.478571428571428L13.520710678118654,10.12142857142857L13.092139249547223,10.12142857142857L12.877853535261512,10.335714285714285L12.449282106690081,10.335714285714285L12.23499639240437,10.55L12,10.55L12,10.45L12.193575036167061,10.45L12.407860750452773,10.235714285714284L12.836432179024204,10.235714285714284L13.050717893309915,10.021428571428569L13.479289321881346,10.021428571428569L14.122146464738488,9.378571428571426L14.336432179024204,9.378571428571426L14.550717893309915,9.164285714285715L15.193575036167061,9.164285714285715L15.378571428571426,8.979289321881346L15.378571428571426,8.377853535261512L15.193575036167061,8.192857142857143L15.05,8.192857142857143L15.05,9L14.95,9L14.95,8.192857142857143L14.806424963832939,8.192857142857143L13.949282106690081,9.05L13.520710678118654,9.05L13.306424963832939,9.264285714285716L13.092139249547223,9.264285714285716L12.663567820975796,9.692857142857143L11.76500360759563,9.692857142857143L11.521428571428569,9.449282106690081L11.521428571428569,8.550717893309915L11.979289321881346,8.092857142857142L12.193575036167061,8.092857142857142L12.836432179024204,7.45L13.050717893309915,7.45L13.693575036167061,6.807142857142857L13.907860750452773,6.807142857142857L14.550717893309915,6.164285714285715L14.76500360759563,6.164285714285715L14.964644660940673,5.964644660940673L15.035355339059327,6.035355339059327L14.806424963832939,6.264285714285714L14.592139249547223,6.264285714285714L13.949282106690081,6.907142857142857L13.73499639240437,6.907142857142857L13.092139249547223,7.55L12.877853535261512,7.55L12.23499639240437,8.192857142857143L12.020710678118654,8.192857142857143L11.62142857142857,8.592139249547223L11.62142857142857,9.407860750452773L11.806424963832939,9.592857142857142L12.622146464738488,9.592857142857142L13.050717893309915,9.164285714285715L13.26500360759563,9.164285714285715L13.479289321881346,8.95L13.907860750452773,8.95L14.76500360759563,8.092857142857142z" stroke="none"/><path d="M25.02142857142857,7.021428571428571L25.02142857142857,6.836432179024202L26.735714285714284,5.122146464738488L26.735714285714284,4.69357503616706L26.96464466094067,4.464644660940673L27.03535533905933,4.535355339059327L26.835714285714285,4.734996392404369L26.835714285714285,5.163567820975797L25.12142857142857,6.8778535352615116L25.12142857142857,7.021428571428571L25.520710678118654,7.021428571428571L25.73499639240437,7.235714285714286L26.163567820975796,7.235714285714286L26.37785353526151,7.45L27,7.45L27,7.55L26.336432179024204,7.55L26.12214646473849,7.335714285714285L25.69357503616706,7.335714285714285L25.479289321881346,7.121428571428571L25.12142857142857,7.121428571428571L25.12142857142857,7.69357503616706L25.335714285714285,7.907860750452773L25.335714285714285,8.550717893309915L25.55,8.76500360759563L25.55,9L25.45,9L25.45,8.806424963832939L25.235714285714284,8.592139249547223L25.235714285714284,7.949282106690083L25.02142857142857,7.734996392404369L25.02142857142857,7.121428571428571L22.092139249547227,7.121428571428571L21.87785353526151,7.335714285714285L21.663567820975796,7.335714285714285L21.44928210669008,7.55L21,7.55L21,7.45L21.407860750452773,7.45L21.62214646473849,7.235714285714286L21.836432179024204,7.235714285714286L22.05071789330992,7.021428571428571z" stroke="none"/><path d="M9.592857142857142,8.521428571428569L9.592857142857142,8.336432179024204L10.050717893309915,7.878571428571428L10.907860750452773,7.878571428571428L11.307142857142857,7.479289321881345L11.307142857142857,7.050717893309916L11.521428571428569,6.836432179024202L11.521428571428569,6.622146464738488L11.735714285714284,6.407860750452773L11.735714285714284,6.19357503616706L11.964644660940673,5.964644660940673L12.035355339059327,6.035355339059327L11.835714285714285,6.234996392404369L11.835714285714285,6.449282106690083L11.62142857142857,6.663567820975797L11.62142857142857,6.8778535352615116L11.407142857142858,7.092139249547226L11.407142857142858,7.520710678118655L10.949282106690081,7.978571428571428L10.092139249547223,7.978571428571428L9.692857142857143,8.377853535261512L9.692857142857143,8.521428571428569L9.877853535261512,8.521428571428569L10.12142857142857,8.76500360759563L10.12142857142857,9.622146464738488L10.335714285714285,9.836432179024204L10.335714285714285,10.26500360759563L10.535355339059327,10.464644660940673L10.464644660940673,10.535355339059327L10.235714285714284,10.306424963832939L10.235714285714284,9.877853535261512L10.021428571428569,9.663567820975796L10.021428571428569,8.806424963832939L9.836432179024204,8.62142857142857L9.692857142857143,8.62142857142857L9.692857142857143,8.806424963832939L9.478571428571428,9.020710678118654L9.478571428571428,9.23499639240437L9.264285714285716,9.449282106690081L9.264285714285716,9.663567820975796L9.05,9.877853535261512L9.05,10.5L8.95,10.5L8.95,9.836432179024204L9.164285714285715,9.622146464738488L9.164285714285715,9.407860750452773L9.378571428571426,9.193575036167061L9.378571428571426,8.979289321881346L9.592857142857142,8.76500360759563L9.592857142857142,8.62142857142857L9.193575036167061,8.62142857142857L8.979289321881346,8.407142857142858L8.76500360759563,8.407142857142858L7.907860750452773,7.55L7.5,7.55L7.5,7.45L7.949282106690083,7.45L8.806424963832939,8.307142857142857L9.020710678118654,8.307142857142857L9.23499639240437,8.521428571428569z" stroke="none"/><path d="M10.5,2.95L10.5,3.05L9,3.05L9,2.95z" stroke="none"/><path d="M3,12.05L3,11.95L4.5,11.95L4.5,12.05z" stroke="none"/><path d="M22.45,4.5L22.55,4.5L22.55,6L22.45,6z" stroke="none"/><path d="M23.95,3L24.05,3L24.05,4.5L23.95,4.5z" stroke="none"/><path d="M7.464644660940673,10.464644660940673L7.535355339059327,10.535355339059327L6.035355339059327,12.035355339059327L5.964644660940673,11.964644660940673z" stroke="none"/><path d="M7.535355339059327,2.9646446609406727L7.464644660940673,3.0353553390593273L7.265003607595631,2.8357142857142854L7.050717893309916,2.8357142857142854L6.836432179024202,2.6214285714285714L4.949282106690084,2.6214285714285714L4.535355339059327,3.0353553390593273L4.464644660940673,2.9646446609406727L4.907860750452774,2.521428571428572L6.8778535352615116,2.521428571428572L7.092139249547226,2.7357142857142858L7.30642496383294,2.7357142857142858z" stroke="none"/><path d="M16.55,6L16.45,6L16.45,5.163567820975797L15.592857142857142,4.30642496383294L15.592857142857142,3.877853535261512L15.378571428571426,3.6635678209757976L15.378571428571426,3.449282106690083L14.964644660940673,3.0353553390593273L15.035355339059327,2.9646446609406727L15.478571428571428,3.4078607504527736L15.478571428571428,3.622146464738488L15.692857142857143,3.8364321790242024L15.692857142857143,4.265003607595631L16.55,5.122146464738488z" stroke="none"/><path d="M20.96464466094067,10.464644660940673L21.03535533905933,10.535355339059327L20.80642496383294,10.764285714285716L20.592139249547227,10.764285714285716L20.37785353526151,10.978571428571428L20.163567820975796,10.978571428571428L19.94928210669008,11.192857142857143L19.30642496383294,11.192857142857143L19.092139249547227,11.407142857142858L18.87785353526151,11.407142857142858L18.23499639240437,12.05L18,12.05L18,11.95L18.19357503616706,11.95L18.836432179024204,11.307142857142857L19.05071789330992,11.307142857142857L19.26500360759563,11.092857142857142L19.907860750452773,11.092857142857142L20.12214646473849,10.878571428571426L20.336432179024204,10.878571428571426L20.55071789330992,10.664285714285715L20.76500360759563,10.664285714285715z" stroke="none"/><path d="M7.5,12.05L7.5,11.95L7.69357503616706,11.95L7.907860750452773,11.735714285714284L8.122146464738488,11.735714285714284L8.550717893309915,11.307142857142857L9.193575036167061,11.307142857142857L9.407860750452773,11.092857142857142L10.693575036167061,11.092857142857142L10.878571428571426,10.907860750452773L10.878571428571426,9.663567820975796L10.45,9.23499639240437L10.45,9L10.55,9L10.55,9.193575036167061L10.978571428571428,9.622146464738488L10.978571428571428,10.949282106690081L10.73499639240437,11.192857142857143L9.449282106690081,11.192857142857143L9.23499639240437,11.407142857142858L8.592139249547223,11.407142857142858L8.163567820975796,11.835714285714285L7.949282106690083,11.835714285714285L7.734996392404369,12.05z" stroke="none"/><path d="M18.05,9L17.95,9L17.95,8.76500360759563L18.164285714285715,8.550717893309915L18.164285714285715,8.336432179024204L18.59285714285714,7.907860750452773L18.59285714285714,7.69357503616706L18.807142857142857,7.479289321881345L18.807142857142857,7.265003607595631L19.05071789330992,7.021428571428571L19.479289321881346,7.021428571428571L20.55071789330992,5.95L21,5.95L21,6.05L20.592139249547227,6.05L19.520710678118654,7.121428571428571L19.092139249547227,7.121428571428571L18.90714285714286,7.30642496383294L18.90714285714286,7.520710678118655L18.692857142857143,7.734996392404369L18.692857142857143,7.949282106690083L18.264285714285716,8.377853535261512L18.264285714285716,8.592139249547223L18.05,8.806424963832939z" stroke="none"/><path d="M20.95,4.5L21.05,4.5L21.05,4.69357503616706L21.478571428571428,5.122146464738488L21.478571428571428,6.449282106690083L21.23499639240437,6.692857142857142L21.020710678118654,6.692857142857142L20.621428571428574,7.092139249547226L20.621428571428574,7.907860750452773L20.835714285714285,8.122146464738488L20.835714285714285,8.550717893309915L21.05,8.76500360759563L21.05,9L20.95,9L20.95,8.806424963832939L20.735714285714284,8.592139249547223L20.735714285714284,8.163567820975796L20.521428571428572,7.949282106690083L20.521428571428572,7.050717893309916L20.979289321881346,6.5928571428571425L21.19357503616706,6.5928571428571425L21.378571428571426,6.407860750452773L21.378571428571426,5.163567820975797L20.95,4.734996392404369z" stroke="none"/><path d="M22.53535533905933,2.9646446609406727L22.46464466094067,3.0353553390593273L22.26500360759563,2.8357142857142854L22.05071789330992,2.8357142857142854L21.836432179024204,2.6214285714285714L19.092139249547227,2.6214285714285714L18.87785353526151,2.8357142857142854L18.23499639240437,2.8357142857142854L18.03535533905933,3.0353553390593273L17.96464466094067,2.9646446609406727L18.19357503616706,2.7357142857142858L18.836432179024204,2.7357142857142858L19.05071789330992,2.521428571428572L21.87785353526151,2.521428571428572L22.092139249547227,2.7357142857142858L22.30642496383294,2.7357142857142858z" stroke="none"/><path d="M24,11.95L24,12.05L19.5,12.05L19.5,11.95z" stroke="none"/><path d="M20.95,3L21.05,3L21.05,3.234996392404369L20.40714285714286,3.877853535261512L20.40714285714286,4.520710678118655L18.020710678118654,6.907142857142857L17.80642496383294,6.907142857142857L17.621428571428574,7.092139249547226L17.621428571428574,9.407860750452773L17.80642496383294,9.592857142857142L17.979289321881346,9.592857142857142L18.19357503616706,9.378571428571426L18.407860750452773,9.378571428571426L19.021428571428572,8.76500360759563L19.021428571428572,8.550717893309915L19.235714285714284,8.336432179024204L19.235714285714284,7.69357503616706L19.46464466094067,7.464644660940673L19.53535533905933,7.535355339059327L19.335714285714285,7.734996392404369L19.335714285714285,8.377853535261512L19.121428571428574,8.592139249547223L19.121428571428574,8.806424963832939L18.44928210669008,9.478571428571428L18.23499639240437,9.478571428571428L18.020710678118654,9.692857142857143L17.76500360759563,9.692857142857143L17.521428571428572,9.449282106690081L17.521428571428572,7.050717893309916L17.76500360759563,6.807142857142857L17.979289321881346,6.807142857142857L20.307142857142857,4.479289321881345L20.307142857142857,3.8364321790242024L20.95,3.1935750361670596z" stroke="none"/><path d="M10.535355339059327,12.035355339059327L10.464644660940673,11.964644660940673L10.878571428571426,11.550717893309915L10.878571428571426,11.336432179024204L11.092857142857142,11.122146464738488L11.092857142857142,8.76500360759563L11.307142857142857,8.550717893309915L11.307142857142857,8.336432179024204L11.95,7.69357503616706L11.95,7.5L12.05,7.5L12.05,7.734996392404369L11.407142857142858,8.377853535261512L11.407142857142858,8.592139249547223L11.192857142857143,8.806424963832939L11.192857142857143,11.163567820975796L10.978571428571428,11.377853535261512L10.978571428571428,11.592139249547223z" stroke="none"/><path d="M12,12.05L12,11.95L12.407860750452773,11.95L12.836432179024204,11.521428571428569L13.050717893309915,11.521428571428569L13.26500360759563,11.307142857142857L14.122146464738488,11.307142857142857L14.336432179024204,11.092857142857142L16.907860750452773,11.092857142857142L17.336432179024204,10.664285714285715L17.55071789330992,10.664285714285715L17.76500360759563,10.45L18,10.45L18,10.55L17.80642496383294,10.55L17.592139249547227,10.764285714285716L17.37785353526151,10.764285714285716L16.94928210669008,11.192857142857143L14.377853535261512,11.192857142857143L14.163567820975796,11.407142857142858L13.306424963832939,11.407142857142858L13.092139249547223,11.62142857142857L12.877853535261512,11.62142857142857L12.449282106690081,12.05z" stroke="none"/><path d="M6,3.05L6,2.95L6.663567820975797,2.95L7.092139249547226,3.3785714285714286L12.622146464738488,3.3785714285714286L13.050717893309915,2.95L13.5,2.95L13.5,3.05L13.092139249547223,3.05L12.663567820975796,3.478571428571428L7.050717893309916,3.478571428571428L6.622146464738488,3.05z" stroke="none"/><path d="M2.9646446609406727,7.535355339059327L3.0353553390593273,7.464644660940673L3.2642857142857142,7.69357503616706L3.2642857142857142,7.907860750452773L3.478571428571428,8.122146464738488L3.478571428571428,8.336432179024204L3.907142857142857,8.76500360759563L3.907142857142857,9.193575036167061L4.335714285714285,9.622146464738488L4.335714285714285,9.836432179024204L4.978571428571429,10.479289321881346L4.978571428571429,10.907860750452773L5.192857142857142,11.122146464738488L5.192857142857142,11.979289321881346L5.592139249547226,12.378571428571426L8.336432179024204,12.378571428571426L8.550717893309915,12.164285714285715L8.76500360759563,12.164285714285715L8.964644660940673,11.964644660940673L9.035355339059327,12.035355339059327L8.806424963832939,12.264285714285716L8.592139249547223,12.264285714285716L8.377853535261512,12.478571428571428L5.550717893309916,12.478571428571428L5.0928571428571425,12.020710678118654L5.0928571428571425,11.163567820975796L4.878571428571429,10.949282106690081L4.878571428571429,10.520710678118654L4.235714285714286,9.877853535261512L4.235714285714286,9.663567820975796L3.8071428571428574,9.23499639240437L3.8071428571428574,8.806424963832939L3.3785714285714286,8.377853535261512L3.3785714285714286,8.163567820975796L3.1642857142857146,7.949282106690083L3.1642857142857146,7.734996392404369z" stroke="none"/><path d="M6.05,9L5.95,9L5.95,8.806424963832939L4.235714285714286,7.092139249547226L4.235714285714286,6.8778535352615116L3.8071428571428574,6.449282106690083L3.8071428571428574,6.020710678118655L3.592857142857143,5.80642496383294L3.592857142857143,5.592139249547226L2.95,4.949282106690084L2.95,4.734996392404369L2.7357142857142858,4.520710678118655L2.7357142857142858,3.877853535261512L2.521428571428572,3.6635678209757976L2.521428571428572,2.550717893309917L2.765003607595631,2.3071428571428574L13.73499639240437,2.3071428571428574L13.978571428571428,2.550717893309917L13.978571428571428,4.949282106690084L13.764285714285716,5.163567820975797L13.764285714285716,5.80642496383294L13.535355339059327,6.035355339059327L13.464644660940673,5.964644660940673L13.664285714285715,5.765003607595631L13.664285714285715,5.122146464738488L13.878571428571426,4.907860750452774L13.878571428571426,2.5921392495472264L13.693575036167061,2.407142857142857L2.8064249638329404,2.407142857142857L2.6214285714285714,2.5921392495472264L2.6214285714285714,3.622146464738488L2.8357142857142854,3.8364321790242024L2.8357142857142854,4.479289321881345L3.05,4.69357503616706L3.05,4.907860750452774L3.6928571428571426,5.550717893309916L3.6928571428571426,5.765003607595631L3.907142857142857,5.979289321881345L3.907142857142857,6.407860750452773L4.335714285714285,6.836432179024202L4.335714285714285,7.050717893309916L6.05,8.76500360759563z" stroke="none"/><path d="M25.46464466094067,4.464644660940673L25.53535533905933,4.535355339059327L25.30642496383294,4.764285714285714L24.87785353526151,4.764285714285714L24.663567820975796,4.978571428571429L23.550717893309915,4.978571428571429L23.09285714285714,4.520710678118655L23.09285714285714,4.30642496383294L22.907860750452773,4.121428571428571L21.407860750452773,4.121428571428571L21.19357503616706,3.907142857142857L20.80642496383294,3.907142857142857L20.621428571428574,4.092139249547226L20.621428571428574,4.734996392404369L18.264285714285716,7.092139249547226L18.264285714285716,7.30642496383294L18.03535533905933,7.535355339059327L17.96464466094067,7.464644660940673L18.164285714285715,7.265003607595631L18.164285714285715,7.050717893309916L20.521428571428572,4.69357503616706L20.521428571428572,4.050717893309916L20.76500360759563,3.8071428571428574L21.23499639240437,3.8071428571428574L21.44928210669008,4.021428571428571L22.94928210669008,4.021428571428571L23.192857142857143,4.265003607595631L23.192857142857143,4.479289321881345L23.592139249547223,4.878571428571429L24.62214646473849,4.878571428571429L24.836432179024204,4.664285714285715L25.26500360759563,4.664285714285715z" stroke="none"/><path d="M19.53535533905933,10.535355339059327L19.46464466094067,10.464644660940673L19.69357503616706,10.235714285714284L19.907860750452773,10.235714285714284L20.12214646473849,10.021428571428569L21.44928210669008,10.021428571428569L22.520710678118654,11.092857142857142L22.73499639240437,11.092857142857142L22.94928210669008,11.307142857142857L23.80642496383294,11.307142857142857L24.020710678118654,11.521428571428569L24.44928210669008,11.521428571428569L24.90714285714286,11.979289321881346L24.90714285714286,12.193575036167061L25.092139249547223,12.378571428571426L25.907860750452773,12.378571428571426L26.307142857142857,11.979289321881346L26.307142857142857,11.550717893309915L26.52142857142857,11.336432179024204L26.52142857142857,11.122146464738488L26.735714285714284,10.907860750452773L26.735714285714284,9.193575036167061L27.164285714285715,8.76500360759563L27.164285714285715,8.550717893309915L27.378571428571426,8.336432179024204L27.378571428571426,6.663567820975797L27.164285714285715,6.449282106690083L27.164285714285715,6.234996392404369L26.96464466094067,6.035355339059327L27.03535533905933,5.964644660940673L27.264285714285716,6.19357503616706L27.264285714285716,6.407860750452773L27.478571428571428,6.622146464738488L27.478571428571428,8.377853535261512L27.264285714285716,8.592139249547223L27.264285714285716,8.806424963832939L26.835714285714285,9.23499639240437L26.835714285714285,10.949282106690081L26.62142857142857,11.163567820975796L26.62142857142857,11.377853535261512L26.40714285714286,11.592139249547223L26.40714285714286,12.020710678118654L25.94928210669008,12.478571428571428L25.050717893309915,12.478571428571428L24.807142857142857,12.23499639240437L24.807142857142857,12.020710678118654L24.407860750452773,11.62142857142857L23.979289321881346,11.62142857142857L23.76500360759563,11.407142857142858L22.907860750452773,11.407142857142858L22.69357503616706,11.192857142857143L22.479289321881346,11.192857142857143L21.407860750452773,10.12142857142857L20.163567820975796,10.12142857142857L19.94928210669008,10.335714285714285L19.73499639240437,10.335714285714285z" stroke="none"/><path d="M9,4.55L9,4.45L10.092139249547223,4.45L10.306424963832939,4.664285714285715L10.520710678118654,4.664285714285715L10.73499639240437,4.878571428571429L10.949282106690081,4.878571428571429L11.163567820975796,5.0928571428571425L11.806424963832939,5.0928571428571425L12.020710678118654,5.307142857142857L12.23499639240437,5.307142857142857L12.907142857142858,5.979289321881345L12.907142857142858,6.19357503616706L13.092139249547223,6.378571428571428L13.907860750452773,6.378571428571428L14.092857142857142,6.19357503616706L14.092857142857142,3.1935750361670596L14.307142857142857,2.979289321881345L14.307142857142857,2.765003607595631L14.550717893309915,2.521428571428572L16.092139249547223,2.521428571428572L16.30642496383294,2.7357142857142858L16.520710678118654,2.7357142857142858L16.73499639240437,2.95L16.94928210669008,2.95L17.37785353526151,3.3785714285714286L18.62214646473849,3.3785714285714286L18.836432179024204,3.1642857142857146L19.26500360759563,3.1642857142857146L19.46464466094067,2.9646446609406727L19.53535533905933,3.0353553390593273L19.30642496383294,3.2642857142857142L18.87785353526151,3.2642857142857142L18.663567820975796,3.478571428571428L17.336432179024204,3.478571428571428L16.907860750452773,3.05L16.69357503616706,3.05L16.479289321881346,2.8357142857142854L16.26500360759563,2.8357142857142854L16.050717893309915,2.6214285714285714L14.592139249547223,2.6214285714285714L14.407142857142858,2.8064249638329404L14.407142857142858,3.020710678118655L14.192857142857143,3.234996392404369L14.192857142857143,6.234996392404369L13.949282106690081,6.478571428571428L13.050717893309915,6.478571428571428L12.807142857142857,6.234996392404369L12.807142857142857,6.020710678118655L12.193575036167061,5.407142857142857L11.979289321881346,5.407142857142857L11.76500360759563,5.192857142857142L11.122146464738488,5.192857142857142L10.907860750452773,4.978571428571429L10.693575036167061,4.978571428571429L10.479289321881346,4.764285714285714L10.26500360759563,4.764285714285714L10.050717893309915,4.55z" stroke="none"/><path d="M4.464644660940673,6.035355339059327L4.535355339059327,5.964644660940673L5.835714285714285,7.265003607595631L5.835714285714285,7.479289321881345L6.05,7.69357503616706L6.05,7.907860750452773L6.264285714285714,8.122146464738488L6.264285714285714,8.336432179024204L6.478571428571428,8.550717893309915L6.478571428571428,9.449282106690081L6.234996392404369,9.692857142857143L5.979289321881345,9.692857142857143L5.765003607595631,9.478571428571428L5.550717893309916,9.478571428571428L3.8071428571428574,7.734996392404369L3.8071428571428574,7.520710678118655L3.4078607504527736,7.121428571428571L2.5921392495472264,7.121428571428571L2.407142857142857,7.30642496383294L2.407142857142857,7.69357503616706L3.478571428571428,8.76500360759563L3.478571428571428,8.979289321881346L3.6928571428571426,9.193575036167061L3.6928571428571426,9.407860750452773L3.907142857142857,9.622146464738488L3.907142857142857,10.479289321881346L4.978571428571429,11.550717893309915L4.978571428571429,12.193575036167061L5.3778535352615116,12.592857142857142L10.693575036167061,12.592857142857142L11.521428571428569,11.76500360759563L11.521428571428569,11.550717893309915L11.979289321881346,11.092857142857142L12.407860750452773,11.092857142857142L13.050717893309915,10.45L13.479289321881346,10.45L13.693575036167061,10.235714285714284L14.122146464738488,10.235714285714284L14.336432179024204,10.021428571428569L14.76500360759563,10.021428571428569L15.592857142857142,9.193575036167061L15.592857142857142,8.76500360759563L15.807142857142857,8.550717893309915L15.807142857142857,8.122146464738488L16.46464466094067,7.464644660940673L16.53535533905933,7.535355339059327L15.907142857142858,8.163567820975796L15.907142857142858,8.592139249547223L15.692857142857143,8.806424963832939L15.692857142857143,9.23499639240437L14.806424963832939,10.12142857142857L14.377853535261512,10.12142857142857L14.163567820975796,10.335714285714285L13.73499639240437,10.335714285714285L13.520710678118654,10.55L13.092139249547223,10.55L12.449282106690081,11.192857142857143L12.020710678118654,11.192857142857143L11.62142857142857,11.592139249547223L11.62142857142857,11.806424963832939L10.73499639240437,12.692857142857143L5.336432179024202,12.692857142857143L4.878571428571429,12.23499639240437L4.878571428571429,11.592139249547223L3.8071428571428574,10.520710678118654L3.8071428571428574,9.663567820975796L3.592857142857143,9.449282106690081L3.592857142857143,9.23499639240437L3.3785714285714286,9.020710678118654L3.3785714285714286,8.806424963832939L2.3071428571428574,7.734996392404369L2.3071428571428574,7.265003607595631L2.550717893309917,7.021428571428571L3.449282106690083,7.021428571428571L3.907142857142857,7.479289321881345L3.907142857142857,7.69357503616706L5.592139249547226,9.378571428571426L5.80642496383294,9.378571428571426L6.020710678118655,9.592857142857142L6.19357503616706,9.592857142857142L6.378571428571428,9.407860750452773L6.378571428571428,8.592139249547223L6.164285714285715,8.377853535261512L6.164285714285715,8.163567820975796L5.95,7.949282106690083L5.95,7.734996392404369L5.735714285714286,7.520710678118655L5.735714285714286,7.30642496383294z" stroke="none"/><path d="M15,10.55L15,10.45L17.12214646473849,10.45L17.55071789330992,10.021428571428569L18.44928210669008,10.021428571428569L18.692857142857143,10.26500360759563L18.692857142857143,10.73499639240437L18.020710678118654,11.407142857142858L17.80642496383294,11.407142857142858L17.621428571428574,11.592139249547223L17.621428571428574,12.407860750452773L17.80642496383294,12.592857142857142L26.12214646473849,12.592857142857142L26.76500360759563,11.95L27,11.95L27,12.05L26.80642496383294,12.05L26.163567820975796,12.692857142857143L17.76500360759563,12.692857142857143L17.521428571428572,12.449282106690081L17.521428571428572,11.550717893309915L17.76500360759563,11.307142857142857L17.979289321881346,11.307142857142857L18.59285714285714,10.693575036167061L18.59285714285714,10.306424963832939L18.407860750452773,10.12142857142857L17.592139249547227,10.12142857142857L17.163567820975796,10.55z" stroke="none"/></svg>