<svg version="1.1" width="30" height="15" xmlns="http://www.w3.org/2000/svg"><path d="M8.95,9.592857142857142L8.95,9L9.05,9L9.05,9.592857142857142L10.092139249547223,9.592857142857142L10.520710678118654,10.021428571428569L10.949282106690081,10.021428571428569L12.020710678118654,11.092857142857142L13.306424963832939,11.092857142857142L13.73499639240437,11.521428571428569L14.377853535261512,11.521428571428569L14.592139249547223,11.735714285714284L14.806424963832939,11.735714285714284L15.035355339059327,11.964644660940673L14.964644660940673,12.035355339059327L14.76500360759563,11.835714285714285L14.550717893309915,11.835714285714285L14.336432179024204,11.62142857142857L13.693575036167061,11.62142857142857L13.26500360759563,11.192857142857143L11.979289321881346,11.192857142857143L10.907860750452773,10.12142857142857L10.479289321881346,10.12142857142857L10.050717893309915,9.692857142857143L7.907860750452773,9.692857142857143L7.479289321881345,9.264285714285716L6.622146464738488,9.264285714285716L6.407860750452773,9.05L5.122146464738488,9.05L4.907860750452774,8.835714285714285L4.69357503616706,8.835714285714285L4.050717893309916,8.192857142857143L3.8364321790242024,8.192857142857143L3.1935750361670596,7.55L3,7.55L3,7.45L3.234996392404369,7.45L3.877853535261512,8.092857142857142L4.092139249547226,8.092857142857142L4.734996392404369,8.735714285714284L4.949282106690084,8.735714285714284L5.163567820975797,8.95L6.449282106690083,8.95L6.663567820975797,9.164285714285715L7.520710678118655,9.164285714285715L7.949282106690083,9.592857142857142z" stroke="none"/><path d="M17.307142857142857,3.3785714285714286L17.307142857142857,3.1935750361670596L17.55071789330992,2.95L17.979289321881346,2.95L18.19357503616706,2.7357142857142858L20.37785353526151,2.7357142857142858L20.592139249547227,2.95L21,2.95L21,3.05L20.55071789330992,3.05L20.336432179024204,2.8357142857142854L18.23499639240437,2.8357142857142854L18.020710678118654,3.05L17.592139249547227,3.05L17.40714285714286,3.234996392404369L17.40714285714286,3.3785714285714286L17.979289321881346,3.3785714285714286L18.407860750452773,2.95L19.5,2.95L19.5,3.05L18.44928210669008,3.05L18.020710678118654,3.478571428571428L16.73499639240437,3.478571428571428L16.520710678118654,3.6928571428571426L15.877853535261512,3.6928571428571426L15.663567820975796,3.907142857142857L14.163567820975796,3.907142857142857L13.949282106690081,4.121428571428571L13.092139249547223,4.121428571428571L12.877853535261512,4.335714285714285L12.663567820975796,4.335714285714285L12.449282106690081,4.55L12,4.55L12,4.45L12.407860750452773,4.45L12.622146464738488,4.235714285714286L12.836432179024204,4.235714285714286L13.050717893309915,4.021428571428571L13.907860750452773,4.021428571428571L14.122146464738488,3.8071428571428574L15.622146464738488,3.8071428571428574L15.836432179024204,3.592857142857143L16.479289321881346,3.592857142857143L16.69357503616706,3.3785714285714286z" stroke="none"/><path d="M21.407860750452773,6.378571428571428L21.807142857142857,5.979289321881345L21.807142857142857,5.765003607595631L22.05071789330992,5.521428571428571L22.479289321881346,5.521428571428571L22.907860750452773,5.0928571428571425L23.12214646473849,5.0928571428571425L23.336432179024204,4.878571428571429L23.550717893309915,4.878571428571429L23.96464466094067,4.464644660940673L24.03535533905933,4.535355339059327L23.592139249547223,4.978571428571429L23.37785353526151,4.978571428571429L23.163567820975796,5.192857142857142L22.94928210669008,5.192857142857142L22.520710678118654,5.621428571428571L22.092139249547227,5.621428571428571L21.90714285714286,5.80642496383294L21.90714285714286,6.020710678118655L21.44928210669008,6.478571428571428L20.263567820975798,6.478571428571428L22.335714285714285,8.550717893309915L22.335714285714285,8.76500360759563L22.53535533905933,8.964644660940673L22.46464466094067,9.035355339059327L22.235714285714284,8.806424963832939L22.235714285714284,8.592139249547223L20.12214646473849,6.478571428571428L14.550717893309915,6.478571428571428L14.336432179024204,6.264285714285714L14.122146464738488,6.264285714285714L13.907860750452773,6.05L13.5,6.05L13.5,5.95L13.949282106690081,5.95L14.163567820975796,6.164285714285715L14.377853535261512,6.164285714285715L14.592139249547223,6.378571428571428z" stroke="none"/><path d="M13.021428571428569,3.8071428571428574L13.021428571428569,3.6635678209757976L12.836432179024204,3.478571428571428L12.663567820975796,3.478571428571428L12.449282106690081,3.6928571428571426L11.592139249547223,3.6928571428571426L11.192857142857143,4.092139249547226L11.192857142857143,6.234996392404369L10.949282106690081,6.478571428571428L10.050717893309915,6.478571428571428L9.836432179024204,6.264285714285714L9.193575036167061,6.264285714285714L8.964644660940673,6.035355339059327L9.035355339059327,5.964644660940673L9.23499639240437,6.164285714285715L9.877853535261512,6.164285714285715L10.092139249547223,6.378571428571428L10.907860750452773,6.378571428571428L11.092857142857142,6.19357503616706L11.092857142857142,4.050717893309916L11.550717893309915,3.592857142857143L12.407860750452773,3.592857142857143L12.622146464738488,3.3785714285714286L12.877853535261512,3.3785714285714286L13.12142857142857,3.622146464738488L13.12142857142857,3.7364321790242023L13.235714285714284,3.622146464738488L13.235714285714284,3.1935750361670596L13.464644660940673,2.9646446609406727L13.535355339059327,3.0353553390593273L13.335714285714285,3.234996392404369L13.335714285714285,3.6635678209757976L13.192139249547225,3.8071428571428574L13.693575036167061,3.8071428571428574L13.907860750452773,3.592857142857143L14.336432179024204,3.592857142857143L14.550717893309915,3.3785714285714286L15.193575036167061,3.3785714285714286L15.407860750452773,3.1642857142857146L16.050717893309915,3.1642857142857146L16.26500360759563,2.95L16.5,2.95L16.5,3.05L16.30642496383294,3.05L16.092139249547223,3.2642857142857142L15.449282106690081,3.2642857142857142L15.23499639240437,3.478571428571428L14.592139249547223,3.478571428571428L14.377853535261512,3.6928571428571426L13.949282106690081,3.6928571428571426L13.73499639240437,3.907142857142857L11.806424963832939,3.907142857142857L11.407142857142858,4.30642496383294L11.407142857142858,4.69357503616706L11.592139249547223,4.878571428571429L12.836432179024204,4.878571428571429L13.26500360759563,4.45L13.5,4.45L13.5,4.55L13.306424963832939,4.55L12.877853535261512,4.978571428571429L11.550717893309915,4.978571428571429L11.307142857142857,4.734996392404369L11.307142857142857,4.265003607595631L11.76500360759563,3.8071428571428574z" stroke="none"/><path d="M8.95,4.664285714285715L8.95,4.520710678118655L8.76500360759563,4.335714285714285L7.907860750452773,4.335714285714285L7.69357503616706,4.121428571428571L4.092139249547226,4.121428571428571L3.877853535261512,4.335714285714285L3.6635678209757976,4.335714285714285L3.449282106690083,4.55L3,4.55L3,4.45L3.4078607504527736,4.45L3.622146464738488,4.235714285714286L3.8364321790242024,4.235714285714286L4.050717893309916,4.021428571428571L7.734996392404369,4.021428571428571L7.949282106690083,4.235714285714286L8.806424963832939,4.235714285714286L9.05,4.479289321881345L9.05,4.664285714285715L9.193575036167061,4.664285714285715L9.622146464738488,4.235714285714286L9.836432179024204,4.235714285714286L10.26500360759563,3.8071428571428574L10.693575036167061,3.8071428571428574L10.907860750452773,3.592857142857143L11.122146464738488,3.592857142857143L11.336432179024204,3.3785714285714286L12.193575036167061,3.3785714285714286L13.050717893309915,2.521428571428572L21.44928210669008,2.521428571428572L21.692857142857143,2.765003607595631L21.692857142857143,3.234996392404369L21.44928210669008,3.478571428571428L19.30642496383294,3.478571428571428L19.092139249547227,3.6928571428571426L18.23499639240437,3.6928571428571426L17.80642496383294,4.121428571428571L17.163567820975796,4.121428571428571L16.94928210669008,4.335714285714285L15.23499639240437,4.335714285714285L15.035355339059327,4.535355339059327L14.964644660940673,4.464644660940673L15.193575036167061,4.235714285714286L16.907860750452773,4.235714285714286L17.12214646473849,4.021428571428571L17.76500360759563,4.021428571428571L18.19357503616706,3.592857142857143L19.05071789330992,3.592857142857143L19.26500360759563,3.3785714285714286L21.407860750452773,3.3785714285714286L21.59285714285714,3.1935750361670596L21.59285714285714,2.8064249638329404L21.407860750452773,2.6214285714285714L13.092139249547223,2.6214285714285714L12.23499639240437,3.478571428571428L11.377853535261512,3.478571428571428L11.163567820975796,3.6928571428571426L10.949282106690081,3.6928571428571426L10.73499639240437,3.907142857142857L10.306424963832939,3.907142857142857L9.877853535261512,4.335714285714285L9.663567820975796,4.335714285714285L9.23499639240437,4.764285714285714L9.120710678118655,4.764285714285714L9.877853535261512,5.521428571428571L10.092139249547223,5.521428571428571L10.535355339059327,5.964644660940673L10.464644660940673,6.035355339059327L10.050717893309915,5.621428571428571L9.836432179024204,5.621428571428571L8.979289321881346,4.764285714285714L7.907860750452773,4.764285714285714L7.69357503616706,4.55L7.5,4.55L7.5,4.45L7.734996392404369,4.45L7.949282106690083,4.664285714285715z" stroke="none"/><path d="M10.021428571428569,7.664285714285715L10.021428571428569,7.520710678118655L9.622146464738488,7.121428571428571L9.407860750452773,7.121428571428571L9.193575036167061,6.907142857142857L5.765003607595631,6.907142857142857L5.550717893309916,6.692857142857142L5.122146464738488,6.692857142857142L4.464644660940673,6.035355339059327L4.535355339059327,5.964644660940673L5.163567820975797,6.5928571428571425L5.592139249547226,6.5928571428571425L5.80642496383294,6.807142857142857L9.23499639240437,6.807142857142857L9.449282106690081,7.021428571428571L9.663567820975796,7.021428571428571L10.12142857142857,7.479289321881345L10.12142857142857,7.59357503616706L11.550717893309915,6.164285714285715L11.76500360759563,6.164285714285715L11.964644660940673,5.964644660940673L12.035355339059327,6.035355339059327L11.806424963832939,6.264285714285714L11.592139249547223,6.264285714285714L10.192139249547225,7.664285714285715L10.306424963832939,7.664285714285715L10.520710678118654,7.878571428571428L10.949282106690081,7.878571428571428L11.377853535261512,8.307142857142857L11.592139249547223,8.307142857142857L11.806424963832939,8.521428571428569L15.877853535261512,8.521428571428569L16.092139249547223,8.735714285714284L16.30642496383294,8.735714285714284L16.53535533905933,8.964644660940673L16.46464466094067,9.035355339059327L16.26500360759563,8.835714285714285L16.050717893309915,8.835714285714285L15.836432179024204,8.62142857142857L11.76500360759563,8.62142857142857L11.550717893309915,8.407142857142858L11.336432179024204,8.407142857142858L10.907860750452773,7.978571428571428L10.479289321881346,7.978571428571428L10.26500360759563,7.764285714285714L9.622146464738488,7.764285714285714L8.979289321881346,7.121428571428571L2.5921392495472264,7.121428571428571L2.407142857142857,7.30642496383294L2.407142857142857,7.479289321881345L2.6214285714285714,7.69357503616706L2.6214285714285714,7.907860750452773L2.8064249638329404,8.092857142857142L3.020710678118655,8.092857142857142L3.449282106690083,8.521428571428569L3.6635678209757976,8.521428571428569L3.877853535261512,8.735714285714284L4.30642496383294,8.735714285714284L4.734996392404369,9.164285714285715L5.3778535352615116,9.164285714285715L6.449282106690083,10.235714285714284L7.092139249547226,10.235714285714284L7.30642496383294,10.45L7.5,10.45L7.5,10.55L7.265003607595631,10.55L7.050717893309916,10.335714285714285L6.407860750452773,10.335714285714285L5.336432179024202,9.264285714285716L4.69357503616706,9.264285714285716L4.265003607595631,8.835714285714285L3.8364321790242024,8.835714285714285L3.622146464738488,8.62142857142857L3.4078607504527736,8.62142857142857L2.979289321881345,8.192857142857143L2.765003607595631,8.192857142857143L2.521428571428572,7.949282106690083L2.521428571428572,7.734996392404369L2.3071428571428574,7.520710678118655L2.3071428571428574,7.265003607595631L2.550717893309917,7.021428571428571L9.020710678118654,7.021428571428571L9.663567820975796,7.664285714285715z" stroke="none"/><path d="M10.5,10.45L10.5,10.55L9,10.55L9,10.45z" stroke="none"/><path d="M6,2.95L6,3.05L4.5,3.05L4.5,2.95z" stroke="none"/><path d="M21,6.05L21,5.95L21.19357503616706,5.95L21.836432179024204,5.307142857142857L22.05071789330992,5.307142857142857L22.26500360759563,5.0928571428571425L22.479289321881346,5.0928571428571425L22.69357503616706,4.878571428571429L22.907860750452773,4.878571428571429L23.09285714285714,4.69357503616706L23.09285714285714,4.479289321881345L23.550717893309915,4.021428571428571L24.44928210669008,4.021428571428571L24.692857142857143,4.265003607595631L24.692857142857143,4.734996392404369L24.44928210669008,4.978571428571429L24.020710678118654,4.978571428571429L23.80642496383294,5.192857142857142L23.592139249547223,5.192857142857142L22.73499639240437,6.05L22.5,6.05L22.5,5.95L22.69357503616706,5.95L23.550717893309915,5.0928571428571425L23.76500360759563,5.0928571428571425L23.979289321881346,4.878571428571429L24.407860750452773,4.878571428571429L24.59285714285714,4.69357503616706L24.59285714285714,4.30642496383294L24.407860750452773,4.121428571428571L23.592139249547223,4.121428571428571L23.192857142857143,4.520710678118655L23.192857142857143,4.734996392404369L22.94928210669008,4.978571428571429L22.73499639240437,4.978571428571429L22.520710678118654,5.192857142857142L22.30642496383294,5.192857142857142L22.092139249547227,5.407142857142857L21.87785353526151,5.407142857142857L21.23499639240437,6.05z" stroke="none"/><path d="M16.45,7.5L16.55,7.5L16.55,7.907860750452773L16.764285714285716,8.122146464738488L16.764285714285716,8.336432179024204L16.978571428571428,8.550717893309915L16.978571428571428,9.449282106690081L16.73499639240437,9.692857142857143L15.836432179024204,9.692857142857143L15.622146464738488,9.478571428571428L15.407860750452773,9.478571428571428L14.964644660940673,9.035355339059327L15.035355339059327,8.964644660940673L15.449282106690081,9.378571428571426L15.663567820975796,9.378571428571426L15.877853535261512,9.592857142857142L16.69357503616706,9.592857142857142L16.878571428571426,9.407860750452773L16.878571428571426,8.592139249547223L16.664285714285715,8.377853535261512L16.664285714285715,8.163567820975796L16.45,7.949282106690083z" stroke="none"/><path d="M23.96464466094067,5.964644660940673L24.03535533905933,6.035355339059327L22.53535533905933,7.535355339059327L22.46464466094067,7.464644660940673z" stroke="none"/><path d="M25.53535533905933,10.464644660940673L25.46464466094067,10.535355339059327L23.96464466094067,9.035355339059327L24.03535533905933,8.964644660940673z" stroke="none"/><path d="M25.55,12L25.45,12L25.45,11.76500360759563L25.878571428571426,11.336432179024204L25.878571428571426,9.449282106690081L25.46464466094067,9.035355339059327L25.53535533905933,8.964644660940673L25.978571428571428,9.407860750452773L25.978571428571428,11.377853535261512L25.55,11.806424963832939z" stroke="none"/><path d="M19.53535533905933,6.035355339059327L19.46464466094067,5.964644660940673L20.12214646473849,5.307142857142857L20.336432179024204,5.307142857142857L20.55071789330992,5.0928571428571425L21.62214646473849,5.0928571428571425L22.26500360759563,4.45L22.5,4.45L22.5,4.55L22.30642496383294,4.55L21.663567820975796,5.192857142857142L20.592139249547227,5.192857142857142L20.37785353526151,5.407142857142857L20.163567820975796,5.407142857142857z" stroke="none"/><path d="M27,4.45L27,4.55L26.336432179024204,4.55L25.69357503616706,3.907142857142857L25.26500360759563,3.907142857142857L25.050717893309915,3.6928571428571426L24.62214646473849,3.6928571428571426L23.96464466094067,3.0353553390593273L24.03535533905933,2.9646446609406727L24.663567820975796,3.592857142857143L25.092139249547223,3.592857142857143L25.30642496383294,3.8071428571428574L25.73499639240437,3.8071428571428574L26.37785353526151,4.45z" stroke="none"/><path d="M25.45,7.5L25.55,7.5L25.55,7.69357503616706L25.764285714285716,7.907860750452773L25.764285714285716,8.122146464738488L25.978571428571428,8.336432179024204L25.978571428571428,8.550717893309915L26.192857142857143,8.76500360759563L26.192857142857143,9.193575036167061L26.40714285714286,9.407860750452773L26.40714285714286,9.836432179024204L27.03535533905933,10.464644660940673L26.96464466094067,10.535355339059327L26.307142857142857,9.877853535261512L26.307142857142857,9.449282106690081L26.09285714285714,9.23499639240437L26.09285714285714,8.806424963832939L25.878571428571426,8.592139249547223L25.878571428571426,8.377853535261512L25.664285714285715,8.163567820975796L25.664285714285715,7.949282106690083L25.45,7.734996392404369z" stroke="none"/><path d="M19.45,9L19.55,9L19.55,9.877853535261512L18.692857142857143,10.73499639240437L18.692857142857143,11.163567820975796L18.478571428571428,11.377853535261512L18.478571428571428,11.592139249547223L18.03535533905933,12.035355339059327L17.96464466094067,11.964644660940673L18.378571428571426,11.550717893309915L18.378571428571426,11.336432179024204L18.59285714285714,11.122146464738488L18.59285714285714,10.693575036167061L19.45,9.836432179024204z" stroke="none"/><path d="M24.03535533905933,11.964644660940673L23.96464466094067,12.035355339059327L23.735714285714284,11.806424963832939L23.735714285714284,11.163567820975796L23.52142857142857,10.949282106690081L23.52142857142857,8.336432179024204L23.735714285714284,8.122146464738488L23.735714285714284,7.69357503616706L23.96464466094067,7.464644660940673L24.03535533905933,7.535355339059327L23.835714285714285,7.734996392404369L23.835714285714285,8.163567820975796L23.62142857142857,8.377853535261512L23.62142857142857,10.907860750452773L23.835714285714285,11.122146464738488L23.835714285714285,11.76500360759563z" stroke="none"/><path d="M6,7.55L6,7.45L6.663567820975797,7.45L7.092139249547226,7.878571428571428L8.377853535261512,7.878571428571428L8.592139249547223,8.092857142857142L9.23499639240437,8.092857142857142L9.449282106690081,8.307142857142857L9.877853535261512,8.307142857142857L10.535355339059327,8.964644660940673L10.464644660940673,9.035355339059327L9.836432179024204,8.407142857142858L9.407860750452773,8.407142857142858L9.193575036167061,8.192857142857143L8.550717893309915,8.192857142857143L8.336432179024204,7.978571428571428L7.050717893309916,7.978571428571428L6.622146464738488,7.55z" stroke="none"/><path d="M14.95,10.5L15.05,10.5L15.05,10.907860750452773L15.478571428571428,11.336432179024204L15.478571428571428,12.449282106690081L15.23499639240437,12.692857142857143L11.550717893309915,12.692857142857143L11.336432179024204,12.478571428571428L11.122146464738488,12.478571428571428L10.693575036167061,12.05L10.5,12.05L10.5,11.95L10.73499639240437,11.95L11.163567820975796,12.378571428571426L11.377853535261512,12.378571428571426L11.592139249547223,12.592857142857142L15.193575036167061,12.592857142857142L15.378571428571426,12.407860750452773L15.378571428571426,11.377853535261512L14.95,10.949282106690081z" stroke="none"/><path d="M7.5,2.95L7.5,3.05L7.30642496383294,3.05L7.092139249547226,3.2642857142857142L6.663567820975797,3.2642857142857142L6.449282106690083,3.478571428571428L3.449282106690083,3.478571428571428L3.234996392404369,3.6928571428571426L3.020710678118655,3.6928571428571426L2.6214285714285714,4.092139249547226L2.6214285714285714,5.550717893309916L3.0353553390593273,5.964644660940673L2.9646446609406727,6.035355339059327L2.521428571428572,5.592139249547226L2.521428571428572,4.050717893309916L2.979289321881345,3.592857142857143L3.1935750361670596,3.592857142857143L3.4078607504527736,3.3785714285714286L6.407860750452773,3.3785714285714286L6.622146464738488,3.1642857142857146L7.050717893309916,3.1642857142857146L7.265003607595631,2.95z" stroke="none"/><path d="M16.53535533905933,12.035355339059327L16.46464466094067,11.964644660940673L18.164285714285715,10.26500360759563L18.164285714285715,10.050717893309915L18.59285714285714,9.622146464738488L18.59285714285714,9.407860750452773L19.021428571428572,8.979289321881346L19.021428571428572,8.122146464738488L19.45,7.69357503616706L19.45,7.5L19.55,7.5L19.55,7.734996392404369L19.121428571428574,8.163567820975796L19.121428571428574,9.020710678118654L18.692857142857143,9.449282106690081L18.692857142857143,9.663567820975796L18.264285714285716,10.092139249547223L18.264285714285716,10.306424963832939z" stroke="none"/><path d="M19.5,4.55L19.5,4.45L20.336432179024204,4.45L20.76500360759563,4.021428571428571L23.12214646473849,4.021428571428571L23.336432179024204,3.8071428571428574L24.663567820975796,3.8071428571428574L24.90714285714286,4.050717893309916L24.90714285714286,4.69357503616706L25.12142857142857,4.907860750452774L25.12142857142857,5.122146464738488L25.335714285714285,5.336432179024202L25.335714285714285,5.550717893309916L25.55,5.765003607595631L25.55,6L25.45,6L25.45,5.80642496383294L25.235714285714284,5.592139249547226L25.235714285714284,5.3778535352615116L25.02142857142857,5.163567820975797L25.02142857142857,4.949282106690084L24.807142857142857,4.734996392404369L24.807142857142857,4.092139249547226L24.62214646473849,3.907142857142857L23.37785353526151,3.907142857142857L23.163567820975796,4.121428571428571L20.80642496383294,4.121428571428571L20.37785353526151,4.55z" stroke="none"/><path d="M21.03535533905933,10.535355339059327L20.96464466094067,10.464644660940673L21.19357503616706,10.235714285714284L21.407860750452773,10.235714285714284L22.05071789330992,9.592857142857142L22.69357503616706,9.592857142857142L22.878571428571426,9.407860750452773L22.878571428571426,7.907860750452773L23.307142857142857,7.479289321881345L23.307142857142857,7.265003607595631L23.550717893309915,7.021428571428571L25.94928210669008,7.021428571428571L26.62142857142857,7.69357503616706L26.62142857142857,8.122146464738488L26.835714285714285,8.336432179024204L26.835714285714285,8.76500360759563L27.03535533905933,8.964644660940673L26.96464466094067,9.035355339059327L26.735714285714284,8.806424963832939L26.735714285714284,8.377853535261512L26.52142857142857,8.163567820975796L26.52142857142857,7.734996392404369L25.907860750452773,7.121428571428571L23.592139249547223,7.121428571428571L23.40714285714286,7.30642496383294L23.40714285714286,7.520710678118655L22.978571428571428,7.949282106690083L22.978571428571428,9.449282106690081L22.73499639240437,9.692857142857143L22.092139249547227,9.692857142857143L21.44928210669008,10.335714285714285L21.23499639240437,10.335714285714285z" stroke="none"/><path d="M3,12.05L3,11.95L4.30642496383294,11.95L4.520710678118655,12.164285714285715L5.3778535352615116,12.164285714285715L5.592139249547226,12.378571428571426L10.092139249547223,12.378571428571426L10.520710678118654,12.807142857142857L15.407860750452773,12.807142857142857L15.592857142857142,12.622146464738488L15.592857142857142,10.306424963832939L15.407860750452773,10.12142857142857L12.622146464738488,10.12142857142857L12.407860750452773,9.907142857142858L11.979289321881346,9.907142857142858L11.521428571428569,9.449282106690081L11.521428571428569,9.23499639240437L10.907860750452773,8.62142857142857L10.693575036167061,8.62142857142857L10.479289321881346,8.407142857142858L10.26500360759563,8.407142857142858L10.050717893309915,8.192857142857143L9.622146464738488,8.192857142857143L9.193575036167061,7.764285714285714L7.69357503616706,7.764285714285714L7.464644660940673,7.535355339059327L7.535355339059327,7.464644660940673L7.734996392404369,7.664285714285715L9.23499639240437,7.664285714285715L9.663567820975796,8.092857142857142L10.092139249547223,8.092857142857142L10.306424963832939,8.307142857142857L10.520710678118654,8.307142857142857L10.73499639240437,8.521428571428569L10.949282106690081,8.521428571428569L11.62142857142857,9.193575036167061L11.62142857142857,9.407860750452773L12.020710678118654,9.807142857142857L12.449282106690081,9.807142857142857L12.663567820975796,10.021428571428569L15.449282106690081,10.021428571428569L15.692857142857143,10.26500360759563L15.692857142857143,12.663567820975796L15.449282106690081,12.907142857142858L10.479289321881346,12.907142857142858L10.050717893309915,12.478571428571428L5.550717893309916,12.478571428571428L5.336432179024202,12.264285714285716L4.479289321881345,12.264285714285716L4.265003607595631,12.05z" stroke="none"/><path d="M6,11.95L6,12.05L4.69357503616706,12.05L4.479289321881345,11.835714285714285L3.622146464738488,11.835714285714285L3.4078607504527736,11.62142857142857L2.5921392495472264,11.62142857142857L2.407142857142857,11.806424963832939L2.407142857142857,12.193575036167061L2.5921392495472264,12.378571428571426L4.949282106690084,12.378571428571426L5.163567820975797,12.592857142857142L9.663567820975796,12.592857142857142L9.877853535261512,12.807142857142857L10.092139249547223,12.807142857142857L10.306424963832939,13.021428571428569L15.622146464738488,13.021428571428569L15.807142857142857,12.836432179024204L15.807142857142857,10.092139249547223L15.622146464738488,9.907142857142858L13.693575036167061,9.907142857142858L13.26500360759563,9.478571428571428L13.050717893309915,9.478571428571428L12.836432179024204,9.264285714285716L12.407860750452773,9.264285714285716L12.193575036167061,9.05L12,9.05L12,8.95L12.23499639240437,8.95L12.449282106690081,9.164285714285715L12.877853535261512,9.164285714285715L13.092139249547223,9.378571428571426L13.306424963832939,9.378571428571426L13.73499639240437,9.807142857142857L15.663567820975796,9.807142857142857L15.907142857142858,10.050717893309915L15.907142857142858,12.877853535261512L15.663567820975796,13.12142857142857L10.26500360759563,13.12142857142857L10.050717893309915,12.907142857142858L9.836432179024204,12.907142857142858L9.622146464738488,12.692857142857143L5.122146464738488,12.692857142857143L4.907860750452774,12.478571428571428L2.550717893309917,12.478571428571428L2.3071428571428574,12.23499639240437L2.3071428571428574,11.76500360759563L2.550717893309917,11.521428571428569L3.449282106690083,11.521428571428569L3.6635678209757976,11.735714285714284L4.520710678118655,11.735714285714284L4.734996392404369,11.95z" stroke="none"/><path d="M9,3.05L9,2.95L10.693575036167061,2.95L10.907860750452773,2.7357142857142858L12.193575036167061,2.7357142857142858L12.407860750452773,2.521428571428572L12.622146464738488,2.521428571428572L12.836432179024204,2.3071428571428574L21.663567820975796,2.3071428571428574L21.90714285714286,2.550717893309917L21.90714285714286,3.449282106690083L21.663567820975796,3.6928571428571426L19.94928210669008,3.6928571428571426L19.73499639240437,3.907142857142857L18.663567820975796,3.907142857142857L18.44928210669008,4.121428571428571L18.23499639240437,4.121428571428571L17.80642496383294,4.55L17.592139249547227,4.55L17.37785353526151,4.764285714285714L16.73499639240437,4.764285714285714L16.520710678118654,4.978571428571429L14.377853535261512,4.978571428571429L14.163567820975796,5.192857142857142L13.73499639240437,5.192857142857142L13.520710678118654,5.407142857142857L13.306424963832939,5.407142857142857L13.12142857142857,5.592139249547226L13.12142857142857,6.407860750452773L13.73499639240437,7.021428571428571L13.949282106690081,7.021428571428571L14.163567820975796,7.235714285714286L14.806424963832939,7.235714285714286L15.035355339059327,7.464644660940673L14.964644660940673,7.535355339059327L14.76500360759563,7.335714285714285L14.122146464738488,7.335714285714285L13.907860750452773,7.121428571428571L13.693575036167061,7.121428571428571L13.021428571428569,6.449282106690083L13.021428571428569,5.550717893309916L13.26500360759563,5.307142857142857L13.479289321881346,5.307142857142857L13.693575036167061,5.0928571428571425L14.122146464738488,5.0928571428571425L14.336432179024204,4.878571428571429L16.479289321881346,4.878571428571429L16.69357503616706,4.664285714285715L17.336432179024204,4.664285714285715L17.55071789330992,4.45L17.76500360759563,4.45L18.19357503616706,4.021428571428571L18.407860750452773,4.021428571428571L18.62214646473849,3.8071428571428574L19.69357503616706,3.8071428571428574L19.907860750452773,3.592857142857143L21.62214646473849,3.592857142857143L21.807142857142857,3.4078607504527736L21.807142857142857,2.5921392495472264L21.62214646473849,2.407142857142857L12.877853535261512,2.407142857142857L12.663567820975796,2.6214285714285714L12.449282106690081,2.6214285714285714L12.23499639240437,2.8357142857142854L10.949282106690081,2.8357142857142854L10.73499639240437,3.05z" stroke="none"/><path d="M20.96464466094067,8.964644660940673L21.03535533905933,9.035355339059327L20.835714285714285,9.23499639240437L20.835714285714285,9.449282106690081L19.335714285714285,10.949282106690081L19.335714285714285,11.377853535261512L18.90714285714286,11.806424963832939L18.90714285714286,12.020710678118654L18.44928210669008,12.478571428571428L17.592139249547227,12.478571428571428L16.94928210669008,13.12142857142857L16.30642496383294,13.12142857142857L16.092139249547223,13.335714285714285L4.265003607595631,13.335714285714285L4.050717893309916,13.12142857142857L3.622146464738488,13.12142857142857L3.1935750361670596,12.692857142857143L2.3364321790242024,12.692857142857143L2.092857142857143,12.449282106690081L2.092857142857143,11.550717893309915L2.3364321790242024,11.307142857142857L7.092139249547226,11.307142857142857L7.30642496383294,11.521428571428569L13.092139249547223,11.521428571428569L13.535355339059327,11.964644660940673L13.464644660940673,12.035355339059327L13.050717893309915,11.62142857142857L7.265003607595631,11.62142857142857L7.050717893309916,11.407142857142858L2.377853535261512,11.407142857142858L2.1928571428571426,11.592139249547223L2.1928571428571426,12.407860750452773L2.377853535261512,12.592857142857142L3.234996392404369,12.592857142857142L3.6635678209757976,13.021428571428569L4.092139249547226,13.021428571428569L4.30642496383294,13.235714285714284L16.050717893309915,13.235714285714284L16.26500360759563,13.021428571428569L16.907860750452773,13.021428571428569L17.55071789330992,12.378571428571426L18.407860750452773,12.378571428571426L18.807142857142857,11.979289321881346L18.807142857142857,11.76500360759563L19.235714285714284,11.336432179024204L19.235714285714284,10.907860750452773L20.735714285714284,9.407860750452773L20.735714285714284,9.193575036167061z" stroke="none"/><path d="M23.96464466094067,10.535355339059327L24.03535533905933,10.464644660940673L24.692857142857143,11.122146464738488L24.692857142857143,11.550717893309915L24.90714285714286,11.76500360759563L24.90714285714286,12.193575036167061L25.092139249547223,12.378571428571426L25.907860750452773,12.378571428571426L27.378571428571426,10.907860750452773L27.378571428571426,4.092139249547226L27.19357503616706,3.907142857142857L26.12214646473849,3.907142857142857L25.907860750452773,3.6928571428571426L25.69357503616706,3.6928571428571426L25.479289321881346,3.478571428571428L25.26500360759563,3.478571428571428L24.407860750452773,2.6214285714285714L23.592139249547223,2.6214285714285714L22.73499639240437,3.478571428571428L22.520710678118654,3.478571428571428L22.092139249547227,3.907142857142857L20.37785353526151,3.907142857142857L20.163567820975796,4.121428571428571L19.092139249547227,4.121428571428571L18.23499639240437,4.978571428571429L17.37785353526151,4.978571428571429L17.163567820975796,5.192857142857142L16.94928210669008,5.192857142857142L16.520710678118654,5.621428571428571L16.092139249547223,5.621428571428571L15.877853535261512,5.835714285714285L15.449282106690081,5.835714285714285L15.23499639240437,6.05L15,6.05L15,5.95L15.193575036167061,5.95L15.407860750452773,5.735714285714286L15.836432179024204,5.735714285714286L16.050717893309915,5.521428571428571L16.479289321881346,5.521428571428571L16.907860750452773,5.0928571428571425L17.12214646473849,5.0928571428571425L17.336432179024204,4.878571428571429L18.19357503616706,4.878571428571429L19.05071789330992,4.021428571428571L20.12214646473849,4.021428571428571L20.336432179024204,3.8071428571428574L22.05071789330992,3.8071428571428574L22.479289321881346,3.3785714285714286L22.69357503616706,3.3785714285714286L23.550717893309915,2.521428571428572L24.44928210669008,2.521428571428572L25.30642496383294,3.3785714285714286L25.520710678118654,3.3785714285714286L25.73499639240437,3.592857142857143L25.94928210669008,3.592857142857143L26.163567820975796,3.8071428571428574L27.23499639240437,3.8071428571428574L27.478571428571428,4.050717893309916L27.478571428571428,10.949282106690081L25.94928210669008,12.478571428571428L25.050717893309915,12.478571428571428L24.807142857142857,12.23499639240437L24.807142857142857,11.806424963832939L24.59285714285714,11.592139249547223L24.59285714285714,11.163567820975796z" stroke="none"/><path d="M5.964644660940673,4.464644660940673L6.035355339059327,4.535355339059327L5.592139249547226,4.978571428571429L4.949282106690084,4.978571428571429L4.734996392404369,5.192857142857142L4.520710678118655,5.192857142857142L3.907142857142857,5.80642496383294L3.907142857142857,6.020710678118655L3.449282106690083,6.478571428571428L3.020710678118655,6.478571428571428L2.5921392495472264,6.907142857142857L2.377853535261512,6.907142857142857L2.1928571428571426,7.092139249547226L2.1928571428571426,11.163567820975796L1.9785714285714286,11.377853535261512L1.9785714285714286,12.622146464738488L2.1635678209757976,12.807142857142857L2.377853535261512,12.807142857142857L2.8064249638329404,13.235714285714284L3.234996392404369,13.235714285714284L3.449282106690083,13.45L16.69357503616706,13.45L16.907860750452773,13.235714285714284L17.12214646473849,13.235714285714284L17.55071789330992,12.807142857142857L17.76500360759563,12.807142857142857L17.979289321881346,12.592857142857142L18.62214646473849,12.592857142857142L19.664285714285715,11.550717893309915L19.664285714285715,11.336432179024204L20.307142857142857,10.693575036167061L20.307142857142857,10.26500360759563L20.55071789330992,10.021428571428569L20.76500360759563,10.021428571428569L21.378571428571426,9.407860750452773L21.378571428571426,8.592139249547223L19.907860750452773,7.121428571428571L19.092139249547227,7.121428571428571L18.692857142857143,7.520710678118655L18.692857142857143,7.734996392404369L18.478571428571428,7.949282106690083L18.478571428571428,8.377853535261512L18.05,8.806424963832939L18.05,9L17.95,9L17.95,8.76500360759563L18.378571428571426,8.336432179024204L18.378571428571426,7.907860750452773L18.59285714285714,7.69357503616706L18.59285714285714,7.479289321881345L19.05071789330992,7.021428571428571L19.94928210669008,7.021428571428571L21.478571428571428,8.550717893309915L21.478571428571428,9.449282106690081L20.80642496383294,10.12142857142857L20.592139249547227,10.12142857142857L20.40714285714286,10.306424963832939L20.40714285714286,10.73499639240437L19.764285714285716,11.377853535261512L19.764285714285716,11.592139249547223L18.663567820975796,12.692857142857143L18.020710678118654,12.692857142857143L17.80642496383294,12.907142857142858L17.592139249547227,12.907142857142858L17.163567820975796,13.335714285714285L16.94928210669008,13.335714285714285L16.73499639240437,13.55L3.4078607504527736,13.55L3.1935750361670596,13.335714285714285L2.765003607595631,13.335714285714285L2.3364321790242024,12.907142857142858L2.122146464738488,12.907142857142858L1.8785714285714286,12.663567820975796L1.8785714285714286,11.336432179024204L2.092857142857143,11.122146464738488L2.092857142857143,7.050717893309916L2.3364321790242024,6.807142857142857L2.550717893309917,6.807142857142857L2.979289321881345,6.378571428571428L3.4078607504527736,6.378571428571428L3.8071428571428574,5.979289321881345L3.8071428571428574,5.765003607595631L4.479289321881345,5.0928571428571425L4.69357503616706,5.0928571428571425L4.907860750452774,4.878571428571429L5.550717893309916,4.878571428571429z" stroke="none"/></svg>