<svg version="1.1" width="30" height="15" xmlns="http://www.w3.org/2000/svg"><path d="M9.020710678118654,8.95L9.407860750452773,8.95L9.836432179024204,8.521428571428569L10.050717893309915,8.521428571428569L10.479289321881346,8.092857142857142L12.836432179024204,8.092857142857142L13.464644660940673,7.464644660940673L13.535355339059327,7.535355339059327L12.877853535261512,8.192857142857143L10.520710678118654,8.192857142857143L10.092139249547223,8.62142857142857L9.877853535261512,8.62142857142857L9.449282106690081,9.05L9.05,9.05L9.05,10.5L8.95,10.5L8.95,9.020710678118654L8.76500360759563,8.835714285714285L8.122146464738488,8.835714285714285L7.907860750452773,8.62142857142857L5.163567820975797,8.62142857142857L4.949282106690084,8.835714285714285L4.734996392404369,8.835714285714285L4.535355339059327,9.035355339059327L4.464644660940673,8.964644660940673L4.69357503616706,8.735714285714284L4.907860750452774,8.735714285714284L5.122146464738488,8.521428571428569L7.949282106690083,8.521428571428569L8.163567820975796,8.735714285714284L8.806424963832939,8.735714285714284z" stroke="none"/><path d="M23.307142857142857,3.8071428571428574L23.307142857142857,3.622146464738488L23.550717893309915,3.3785714285714286L24.19357503616706,3.3785714285714286L24.407860750452773,3.1642857142857146L25.26500360759563,3.1642857142857146L25.479289321881346,2.95L27,2.95L27,3.05L25.520710678118654,3.05L25.30642496383294,3.2642857142857142L24.44928210669008,3.2642857142857142L24.23499639240437,3.478571428571428L23.592139249547223,3.478571428571428L23.40714285714286,3.6635678209757976L23.40714285714286,3.8071428571428574L23.80642496383294,3.8071428571428574L24.23499639240437,4.235714285714286L24.44928210669008,4.235714285714286L24.663567820975796,4.45L25.5,4.45L25.5,4.55L24.62214646473849,4.55L24.407860750452773,4.335714285714285L24.19357503616706,4.335714285714285L23.76500360759563,3.907142857142857L22.092139249547227,3.907142857142857L21.663567820975796,4.335714285714285L20.37785353526151,4.335714285714285L20.163567820975796,4.55L18,4.55L18,4.45L20.12214646473849,4.45L20.336432179024204,4.235714285714286L21.62214646473849,4.235714285714286L22.05071789330992,3.8071428571428574z" stroke="none"/><path d="M17.12214646473849,6.378571428571428L17.336432179024204,6.164285714285715L17.55071789330992,6.164285714285715L17.76500360759563,5.95L18,5.95L18,6.05L17.80642496383294,6.05L17.592139249547227,6.264285714285714L17.37785353526151,6.264285714285714L17.163567820975796,6.478571428571428L13.978571428571428,6.478571428571428L13.978571428571428,6.622146464738488L14.407142857142858,7.050717893309916L14.407142857142858,7.479289321881345L14.62142857142857,7.69357503616706L14.62142857142857,8.550717893309915L15.035355339059327,8.964644660940673L14.964644660940673,9.035355339059327L14.521428571428569,8.592139249547223L14.521428571428569,7.734996392404369L14.307142857142857,7.520710678118655L14.307142857142857,7.092139249547226L13.878571428571426,6.663567820975797L13.878571428571426,6.478571428571428L13.693575036167061,6.478571428571428L13.26500360759563,6.05L13.050717893309915,6.05L12.836432179024204,5.835714285714285L12.407860750452773,5.835714285714285L12.193575036167061,5.621428571428571L10.693575036167061,5.621428571428571L10.479289321881346,5.407142857142857L10.26500360759563,5.407142857142857L10.050717893309915,5.192857142857142L9.836432179024204,5.192857142857142L9.407860750452773,4.764285714285714L9.193575036167061,4.764285714285714L8.964644660940673,4.535355339059327L9.035355339059327,4.464644660940673L9.23499639240437,4.664285714285715L9.449282106690081,4.664285714285715L9.877853535261512,5.0928571428571425L10.092139249547223,5.0928571428571425L10.306424963832939,5.307142857142857L10.520710678118654,5.307142857142857L10.73499639240437,5.521428571428571L12.23499639240437,5.521428571428571L12.449282106690081,5.735714285714286L12.877853535261512,5.735714285714286L13.092139249547223,5.95L13.306424963832939,5.95L13.73499639240437,6.378571428571428z" stroke="none"/><path d="M20.307142857142857,11.95L20.307142857142857,11.76500360759563L20.55071789330992,11.521428571428569L26.37785353526151,11.521428571428569L26.80642496383294,11.95L27,11.95L27,12.05L26.76500360759563,12.05L26.336432179024204,11.62142857142857L20.592139249547227,11.62142857142857L20.40714285714286,11.806424963832939L20.40714285714286,11.95L21,11.95L21,12.05L20.40714285714286,12.05L20.40714285714286,12.23499639240437L20.163567820975796,12.478571428571428L15.836432179024204,12.478571428571428L15.407860750452773,12.05L15,12.05L15,11.95L15.449282106690081,11.95L15.877853535261512,12.378571428571426L20.12214646473849,12.378571428571426L20.307142857142857,12.193575036167061L20.307142857142857,12.05L19.5,12.05L19.5,11.95z" stroke="none"/><path d="M16.45,7.479289321881345L16.45,7.265003607595631L16.69357503616706,7.021428571428571L16.907860750452773,7.021428571428571L17.55071789330992,6.378571428571428L18.407860750452773,6.378571428571428L18.59285714285714,6.19357503616706L18.59285714285714,5.80642496383294L18.407860750452773,5.621428571428571L12.836432179024204,5.621428571428571L12.622146464738488,5.407142857142857L11.550717893309915,5.407142857142857L10.907860750452773,4.764285714285714L10.693575036167061,4.764285714285714L10.050717893309915,4.121428571428571L8.592139249547223,4.121428571428571L8.407142857142858,4.30642496383294L8.407142857142858,4.479289321881345L8.62142857142857,4.69357503616706L8.62142857142857,4.907860750452774L8.806424963832939,5.0928571428571425L9.020710678118654,5.0928571428571425L9.449282106690081,5.521428571428571L9.877853535261512,5.521428571428571L10.092139249547223,5.735714285714286L10.306424963832939,5.735714285714286L10.535355339059327,5.964644660940673L10.464644660940673,6.035355339059327L10.26500360759563,5.835714285714285L10.050717893309915,5.835714285714285L9.836432179024204,5.621428571428571L9.407860750452773,5.621428571428571L8.979289321881346,5.192857142857142L8.76500360759563,5.192857142857142L8.521428571428569,4.949282106690084L8.521428571428569,4.734996392404369L8.307142857142857,4.520710678118655L8.307142857142857,4.265003607595631L8.550717893309915,4.021428571428571L10.092139249547223,4.021428571428571L10.73499639240437,4.664285714285715L10.949282106690081,4.664285714285715L11.592139249547223,5.307142857142857L12.663567820975796,5.307142857142857L12.877853535261512,5.521428571428571L18.44928210669008,5.521428571428571L18.692857142857143,5.765003607595631L18.692857142857143,6.234996392404369L18.44928210669008,6.478571428571428L17.592139249547227,6.478571428571428L16.94928210669008,7.121428571428571L16.73499639240437,7.121428571428571L16.55,7.30642496383294L16.55,7.45L17.12214646473849,7.45L17.979289321881346,6.5928571428571425L18.62214646473849,6.5928571428571425L19.05071789330992,6.164285714285715L19.26500360759563,6.164285714285715L19.46464466094067,5.964644660940673L19.53535533905933,6.035355339059327L19.30642496383294,6.264285714285714L19.092139249547227,6.264285714285714L18.663567820975796,6.692857142857142L18.020710678118654,6.692857142857142L17.163567820975796,7.55L16.55,7.55L16.55,7.69357503616706L16.73499639240437,7.878571428571428L21.19357503616706,7.878571428571428L21.62214646473849,7.45L22.5,7.45L22.5,7.55L21.663567820975796,7.55L21.23499639240437,7.978571428571428L16.69357503616706,7.978571428571428L16.45,7.734996392404369L16.45,7.620710678118654L16.12142857142857,7.949282106690083L16.12142857142857,8.163567820975796L15.692857142857143,8.592139249547223L15.692857142857143,8.806424963832939L15.478571428571428,9.020710678118654L15.478571428571428,9.449282106690081L14.592139249547223,10.335714285714285L13.949282106690081,10.335714285714285L13.73499639240437,10.55L13.5,10.55L13.5,10.45L13.693575036167061,10.45L13.907860750452773,10.235714285714284L14.550717893309915,10.235714285714284L15.378571428571426,9.407860750452773L15.378571428571426,8.979289321881346L15.592857142857142,8.76500360759563L15.592857142857142,8.550717893309915L16.02142857142857,8.122146464738488L16.02142857142857,7.907860750452773z" stroke="none"/><path d="M22.021428571428572,10.45L22.021428571428572,10.26500360759563L22.69357503616706,9.592857142857142L23.12214646473849,9.592857142857142L23.550717893309915,9.164285714285715L23.979289321881346,9.164285714285715L24.19357503616706,8.95L25.050717893309915,8.95L25.26500360759563,8.735714285714284L25.73499639240437,8.735714285714284L26.835714285714285,9.836432179024204L26.835714285714285,10.26500360759563L27.03535533905933,10.464644660940673L26.96464466094067,10.535355339059327L26.735714285714284,10.306424963832939L26.735714285714284,9.877853535261512L25.69357503616706,8.835714285714285L25.30642496383294,8.835714285714285L25.092139249547223,9.05L24.23499639240437,9.05L24.020710678118654,9.264285714285716L23.592139249547223,9.264285714285716L23.163567820975796,9.692857142857143L22.73499639240437,9.692857142857143L22.121428571428574,10.306424963832939L22.121428571428574,10.45L22.26500360759563,10.45L22.907860750452773,9.807142857142857L24.62214646473849,9.807142857142857L25.46464466094067,8.964644660940673L25.53535533905933,9.035355339059327L24.663567820975796,9.907142857142858L22.94928210669008,9.907142857142858L22.30642496383294,10.55L22.121428571428574,10.55L22.121428571428574,10.73499639240437L21.87785353526151,10.978571428571428L20.80642496383294,10.978571428571428L20.592139249547227,11.192857142857143L19.94928210669008,11.192857142857143L19.73499639240437,11.407142857142858L19.30642496383294,11.407142857142858L18.87785353526151,11.835714285714285L18.23499639240437,11.835714285714285L18.03535533905933,12.035355339059327L17.96464466094067,11.964644660940673L18.19357503616706,11.735714285714284L18.836432179024204,11.735714285714284L19.26500360759563,11.307142857142857L19.69357503616706,11.307142857142857L19.907860750452773,11.092857142857142L20.55071789330992,11.092857142857142L20.76500360759563,10.878571428571426L21.836432179024204,10.878571428571426L22.021428571428572,10.693575036167061L22.021428571428572,10.55L20.76500360759563,10.55L20.336432179024204,10.12142857142857L19.092139249547227,10.12142857142857L18.87785353526151,10.335714285714285L18.44928210669008,10.335714285714285L18.23499639240437,10.55L18,10.55L18,10.45L18.19357503616706,10.45L18.407860750452773,10.235714285714284L18.836432179024204,10.235714285714284L19.05071789330992,10.021428571428569L20.37785353526151,10.021428571428569L20.80642496383294,10.45z" stroke="none"/><path d="M18,9.05L18,8.95L19.5,8.95L19.5,9.05z" stroke="none"/><path d="M25.5,12.05L25.5,11.95L25.94928210669008,11.95L26.37785353526151,12.378571428571426L26.592139249547223,12.378571428571426L26.80642496383294,12.592857142857142L27.19357503616706,12.592857142857142L27.378571428571426,12.407860750452773L27.378571428571426,11.592139249547223L26.979289321881346,11.192857142857143L26.76500360759563,11.192857142857143L26.336432179024204,10.764285714285716L25.69357503616706,10.764285714285716L25.46464466094067,10.535355339059327L25.53535533905933,10.464644660940673L25.73499639240437,10.664285714285715L26.37785353526151,10.664285714285715L26.80642496383294,11.092857142857142L27.020710678118654,11.092857142857142L27.478571428571428,11.550717893309915L27.478571428571428,12.449282106690081L27.23499639240437,12.692857142857143L26.76500360759563,12.692857142857143L26.550717893309915,12.478571428571428L26.336432179024204,12.478571428571428L25.907860750452773,12.05z" stroke="none"/><path d="M7.464644660940673,10.464644660940673L7.535355339059327,10.535355339059327L6.035355339059327,12.035355339059327L5.964644660940673,11.964644660940673z" stroke="none"/><path d="M4.464644660940673,10.464644660940673L4.535355339059327,10.535355339059327L3.0353553390593273,12.035355339059327L2.9646446609406727,11.964644660940673z" stroke="none"/><path d="M16.45,9L16.55,9L16.55,12L16.45,12z" stroke="none"/><path d="M25.5,7.45L25.5,7.55L24.836432179024204,7.55L24.19357503616706,6.907142857142857L23.76500360759563,6.907142857142857L23.550717893309915,6.692857142857142L23.12214646473849,6.692857142857142L22.46464466094067,6.035355339059327L22.53535533905933,5.964644660940673L23.163567820975796,6.5928571428571425L23.592139249547223,6.5928571428571425L23.80642496383294,6.807142857142857L24.23499639240437,6.807142857142857L24.87785353526151,7.45z" stroke="none"/><path d="M7.535355339059327,5.964644660940673L7.464644660940673,6.035355339059327L6.407860750452773,4.978571428571429L5.765003607595631,4.978571428571429L5.336432179024202,4.55L4.5,4.55L4.5,4.45L5.3778535352615116,4.45L5.80642496383294,4.878571428571429L6.449282106690083,4.878571428571429z" stroke="none"/><path d="M7.5,3.05L7.5,2.95L8.122146464738488,2.95L8.336432179024204,2.7357142857142858L8.550717893309915,2.7357142857142858L8.76500360759563,2.521428571428572L11.377853535261512,2.521428571428572L11.806424963832939,2.95L12,2.95L12,3.05L11.76500360759563,3.05L11.336432179024204,2.6214285714285714L8.806424963832939,2.6214285714285714L8.592139249547223,2.8357142857142854L8.377853535261512,2.8357142857142854L8.163567820975796,3.05z" stroke="none"/><path d="M22.5,9.05L22.5,8.95L22.69357503616706,8.95L22.907860750452773,8.735714285714284L23.336432179024204,8.735714285714284L23.550717893309915,8.521428571428569L26.37785353526151,8.521428571428569L26.592139249547223,8.735714285714284L26.80642496383294,8.735714285714284L27.03535533905933,8.964644660940673L26.96464466094067,9.035355339059327L26.76500360759563,8.835714285714285L26.550717893309915,8.835714285714285L26.336432179024204,8.62142857142857L23.592139249547223,8.62142857142857L23.37785353526151,8.835714285714285L22.94928210669008,8.835714285714285L22.73499639240437,9.05z" stroke="none"/><path d="M6,8.95L6,9.05L5.3778535352615116,9.05L4.949282106690084,9.478571428571428L4.050717893309916,9.478571428571428L3.8071428571428574,9.23499639240437L3.8071428571428574,8.76500360759563L4.050717893309916,8.521428571428569L4.265003607595631,8.521428571428569L4.479289321881345,8.307142857142857L4.69357503616706,8.307142857142857L4.907860750452774,8.092857142857142L5.550717893309916,8.092857142857142L6.407860750452773,7.235714285714286L6.622146464738488,7.235714285714286L6.836432179024202,7.021428571428571L7.050717893309916,7.021428571428571L7.479289321881345,6.5928571428571425L7.69357503616706,6.5928571428571425L7.878571428571428,6.407860750452773L7.878571428571428,5.163567820975797L7.664285714285715,4.949282106690084L7.664285714285715,4.734996392404369L7.464644660940673,4.535355339059327L7.535355339059327,4.464644660940673L7.764285714285714,4.69357503616706L7.764285714285714,4.907860750452774L7.978571428571428,5.122146464738488L7.978571428571428,6.449282106690083L7.734996392404369,6.692857142857142L7.520710678118655,6.692857142857142L7.092139249547226,7.121428571428571L6.8778535352615116,7.121428571428571L6.663567820975797,7.335714285714285L6.449282106690083,7.335714285714285L5.592139249547226,8.192857142857143L4.949282106690084,8.192857142857143L4.734996392404369,8.407142857142858L4.520710678118655,8.407142857142858L4.30642496383294,8.62142857142857L4.092139249547226,8.62142857142857L3.907142857142857,8.806424963832939L3.907142857142857,9.193575036167061L4.092139249547226,9.378571428571426L4.907860750452774,9.378571428571426L5.336432179024202,8.95z" stroke="none"/><path d="M9,7.55L9,7.45L12.193575036167061,7.45L12.407860750452773,7.235714285714286L12.836432179024204,7.235714285714286L13.050717893309915,7.021428571428571L13.26500360759563,7.021428571428571L13.479289321881346,6.807142857142857L13.73499639240437,6.807142857142857L13.978571428571428,7.050717893309916L13.978571428571428,7.949282106690083L13.306424963832939,8.62142857142857L13.092139249547223,8.62142857142857L11.62142857142857,10.092139249547223L11.62142857142857,10.520710678118654L11.192857142857143,10.949282106690081L11.192857142857143,11.163567820975796L10.55,11.806424963832939L10.55,12L10.45,12L10.45,11.76500360759563L11.092857142857142,11.122146464738488L11.092857142857142,10.907860750452773L11.521428571428569,10.479289321881346L11.521428571428569,10.050717893309915L13.050717893309915,8.521428571428569L13.26500360759563,8.521428571428569L13.878571428571426,7.907860750452773L13.878571428571426,7.092139249547226L13.693575036167061,6.907142857142857L13.520710678118654,6.907142857142857L13.306424963832939,7.121428571428571L13.092139249547223,7.121428571428571L12.877853535261512,7.335714285714285L12.449282106690081,7.335714285714285L12.23499639240437,7.55z" stroke="none"/><path d="M23.96464466094067,12.035355339059327L24.03535533905933,11.964644660940673L24.44928210669008,12.378571428571426L25.30642496383294,12.378571428571426L25.520710678118654,12.592857142857142L25.73499639240437,12.592857142857142L25.94928210669008,12.807142857142857L27.407860750452773,12.807142857142857L27.59285714285714,12.622146464738488L27.59285714285714,8.377853535261512L26.95,7.734996392404369L26.95,7.5L27.05,7.5L27.05,7.69357503616706L27.692857142857143,8.336432179024204L27.692857142857143,12.663567820975796L27.44928210669008,12.907142857142858L25.907860750452773,12.907142857142858L25.69357503616706,12.692857142857143L25.479289321881346,12.692857142857143L25.26500360759563,12.478571428571428L24.407860750452773,12.478571428571428z" stroke="none"/><path d="M10.5,2.95L10.5,3.05L8.806424963832939,3.05L8.592139249547223,3.2642857142857142L8.163567820975796,3.2642857142857142L7.949282106690083,3.478571428571428L5.336432179024202,3.478571428571428L5.122146464738488,3.2642857142857142L4.69357503616706,3.2642857142857142L4.464644660940673,3.0353553390593273L4.535355339059327,2.9646446609406727L4.734996392404369,3.1642857142857146L5.163567820975797,3.1642857142857146L5.3778535352615116,3.3785714285714286L7.907860750452773,3.3785714285714286L8.122146464738488,3.1642857142857146L8.550717893309915,3.1642857142857146L8.76500360759563,2.95z" stroke="none"/><path d="M27.05,6L26.95,6L26.95,5.336432179024202L27.378571428571426,4.907860750452774L27.378571428571426,2.5921392495472264L27.19357503616706,2.407142857142857L22.092139249547227,2.407142857142857L21.87785353526151,2.6214285714285714L21.663567820975796,2.6214285714285714L21.44928210669008,2.8357142857142854L21.23499639240437,2.8357142857142854L21.03535533905933,3.0353553390593273L20.96464466094067,2.9646446609406727L21.19357503616706,2.7357142857142858L21.407860750452773,2.7357142857142858L21.62214646473849,2.521428571428572L21.836432179024204,2.521428571428572L22.05071789330992,2.3071428571428574L27.23499639240437,2.3071428571428574L27.478571428571428,2.550717893309917L27.478571428571428,4.949282106690084L27.05,5.3778535352615116z" stroke="none"/><path d="M11.95,10.5L12.05,10.5L12.05,10.73499639240437L11.835714285714285,10.949282106690081L11.835714285714285,11.377853535261512L11.192857142857143,12.020710678118654L11.192857142857143,12.23499639240437L10.949282106690081,12.478571428571428L10.050717893309915,12.478571428571428L8.521428571428569,10.949282106690081L8.521428571428569,10.73499639240437L7.907860750452773,10.12142857142857L4.907860750452774,10.12142857142857L4.479289321881345,9.692857142857143L3.8364321790242024,9.692857142857143L3.592857142857143,9.449282106690081L3.592857142857143,8.550717893309915L3.8364321790242024,8.307142857142857L4.050717893309916,8.307142857142857L4.265003607595631,8.092857142857142L4.479289321881345,8.092857142857142L4.69357503616706,7.878571428571428L4.907860750452774,7.878571428571428L5.0928571428571425,7.69357503616706L5.0928571428571425,7.265003607595631L5.307142857142857,7.050717893309916L5.307142857142857,6.836432179024202L5.735714285714286,6.407860750452773L5.735714285714286,6.19357503616706L5.964644660940673,5.964644660940673L6.035355339059327,6.035355339059327L5.835714285714285,6.234996392404369L5.835714285714285,6.449282106690083L5.407142857142857,6.8778535352615116L5.407142857142857,7.092139249547226L5.192857142857142,7.30642496383294L5.192857142857142,7.734996392404369L4.949282106690084,7.978571428571428L4.734996392404369,7.978571428571428L4.520710678118655,8.192857142857143L4.30642496383294,8.192857142857143L4.092139249547226,8.407142857142858L3.877853535261512,8.407142857142858L3.6928571428571426,8.592139249547223L3.6928571428571426,9.407860750452773L3.877853535261512,9.592857142857142L4.520710678118655,9.592857142857142L4.949282106690084,10.021428571428569L7.949282106690083,10.021428571428569L8.62142857142857,10.693575036167061L8.62142857142857,10.907860750452773L10.092139249547223,12.378571428571426L10.907860750452773,12.378571428571426L11.092857142857142,12.193575036167061L11.092857142857142,11.979289321881346L11.735714285714284,11.336432179024204L11.735714285714284,10.907860750452773L11.95,10.693575036167061z" stroke="none"/><path d="M27,4.45L27,4.55L26.37785353526151,4.55L25.94928210669008,4.978571428571429L17.55071789330992,4.978571428571429L17.307142857142857,4.734996392404369L17.307142857142857,4.265003607595631L17.55071789330992,4.021428571428571L17.76500360759563,4.021428571428571L18.19357503616706,3.592857142857143L18.62214646473849,3.592857142857143L19.26500360759563,2.95L19.5,2.95L19.5,3.05L19.30642496383294,3.05L18.663567820975796,3.6928571428571426L18.23499639240437,3.6928571428571426L17.80642496383294,4.121428571428571L17.592139249547227,4.121428571428571L17.40714285714286,4.30642496383294L17.40714285714286,4.69357503616706L17.592139249547227,4.878571428571429L25.907860750452773,4.878571428571429L26.336432179024204,4.45z" stroke="none"/><path d="M5.964644660940673,10.464644660940673L6.035355339059327,10.535355339059327L5.835714285714285,10.73499639240437L5.835714285714285,11.377853535261512L5.621428571428571,11.592139249547223L5.621428571428571,12.407860750452773L5.80642496383294,12.592857142857142L12.407860750452773,12.592857142857142L12.836432179024204,12.164285714285715L13.26500360759563,12.164285714285715L13.464644660940673,11.964644660940673L13.535355339059327,12.035355339059327L13.306424963832939,12.264285714285716L12.877853535261512,12.264285714285716L12.449282106690081,12.692857142857143L5.765003607595631,12.692857142857143L5.521428571428571,12.449282106690081L5.521428571428571,11.550717893309915L5.735714285714286,11.336432179024204L5.735714285714286,10.693575036167061z" stroke="none"/><path d="M12,4.55L12,4.45L12.449282106690081,4.45L12.663567820975796,4.664285714285715L12.877853535261512,4.664285714285715L13.092139249547223,4.878571428571429L17.163567820975796,4.878571428571429L17.37785353526151,5.0928571428571425L19.30642496383294,5.0928571428571425L19.520710678118654,5.307142857142857L19.73499639240437,5.307142857142857L19.978571428571428,5.550717893309916L19.978571428571428,6.8778535352615116L19.764285714285716,7.092139249547226L19.764285714285716,7.30642496383294L19.53535533905933,7.535355339059327L19.46464466094067,7.464644660940673L19.664285714285715,7.265003607595631L19.664285714285715,7.050717893309916L19.878571428571426,6.836432179024202L19.878571428571426,5.592139249547226L19.69357503616706,5.407142857142857L19.479289321881346,5.407142857142857L19.26500360759563,5.192857142857142L17.336432179024204,5.192857142857142L17.12214646473849,4.978571428571429L13.050717893309915,4.978571428571429L12.836432179024204,4.764285714285714L12.622146464738488,4.764285714285714L12.407860750452773,4.55z" stroke="none"/><path d="M4.464644660940673,7.464644660940673L4.535355339059327,7.535355339059327L3.877853535261512,8.192857142857143L3.6635678209757976,8.192857142857143L3.478571428571428,8.377853535261512L3.478571428571428,9.877853535261512L3.2642857142857142,10.092139249547223L3.2642857142857142,10.520710678118654L3.05,10.73499639240437L3.05,10.949282106690081L2.8357142857142854,11.163567820975796L2.8357142857142854,11.377853535261512L2.6214285714285714,11.592139249547223L2.6214285714285714,12.407860750452773L2.8064249638329404,12.592857142857142L5.3778535352615116,12.592857142857142L5.592139249547226,12.807142857142857L13.479289321881346,12.807142857142857L13.878571428571426,12.407860750452773L13.878571428571426,11.592139249547223L13.693575036167061,11.407142857142858L12.877853535261512,11.407142857142858L12.449282106690081,11.835714285714285L12.23499639240437,11.835714285714285L12.035355339059327,12.035355339059327L11.964644660940673,11.964644660940673L12.193575036167061,11.735714285714284L12.407860750452773,11.735714285714284L12.836432179024204,11.307142857142857L13.73499639240437,11.307142857142857L13.978571428571428,11.550717893309915L13.978571428571428,12.449282106690081L13.520710678118654,12.907142857142858L5.550717893309916,12.907142857142858L5.336432179024202,12.692857142857143L2.765003607595631,12.692857142857143L2.521428571428572,12.449282106690081L2.521428571428572,11.550717893309915L2.7357142857142858,11.336432179024204L2.7357142857142858,11.122146464738488L2.95,10.907860750452773L2.95,10.693575036167061L3.1642857142857146,10.479289321881346L3.1642857142857146,10.050717893309915L3.3785714285714286,9.836432179024204L3.3785714285714286,8.336432179024204L3.622146464738488,8.092857142857142L3.8364321790242024,8.092857142857142z" stroke="none"/><path d="M6,3.05L6,2.95L6.19357503616706,2.95L6.622146464738488,2.521428571428572L6.836432179024202,2.521428571428572L7.050717893309916,2.3071428571428574L13.520710678118654,2.3071428571428574L13.73499639240437,2.521428571428572L14.377853535261512,2.521428571428572L14.592139249547223,2.7357142857142858L14.806424963832939,2.7357142857142858L15.035355339059327,2.9646446609406727L14.964644660940673,3.0353553390593273L14.76500360759563,2.8357142857142854L14.550717893309915,2.8357142857142854L14.336432179024204,2.6214285714285714L13.693575036167061,2.6214285714285714L13.479289321881346,2.407142857142857L7.092139249547226,2.407142857142857L6.8778535352615116,2.6214285714285714L6.663567820975797,2.6214285714285714L6.234996392404369,3.05z" stroke="none"/><path d="M25.46464466094067,6.035355339059327L25.53535533905933,5.964644660940673L25.94928210669008,6.378571428571428L27.407860750452773,6.378571428571428L27.59285714285714,6.19357503616706L27.59285714285714,2.377853535261512L27.407860750452773,2.1928571428571426L18.44928210669008,2.1928571428571426L18.23499639240437,2.407142857142857L17.592139249547227,2.407142857142857L17.163567820975796,2.8357142857142854L16.94928210669008,2.8357142857142854L16.73499639240437,3.05L16.5,3.05L16.5,2.95L16.69357503616706,2.95L16.907860750452773,2.7357142857142858L17.12214646473849,2.7357142857142858L17.55071789330992,2.3071428571428574L18.19357503616706,2.3071428571428574L18.407860750452773,2.092857142857143L27.44928210669008,2.092857142857143L27.692857142857143,2.3364321790242024L27.692857142857143,6.234996392404369L27.44928210669008,6.478571428571428L25.907860750452773,6.478571428571428z" stroke="none"/><path d="M22.5,11.95L22.5,12.05L22.30642496383294,12.05L21.87785353526151,12.478571428571428L20.592139249547227,12.478571428571428L20.37785353526151,12.692857142857143L14.76500360759563,12.692857142857143L14.521428571428569,12.449282106690081L14.521428571428569,12.020710678118654L14.307142857142857,11.806424963832939L14.307142857142857,11.592139249547223L13.907860750452773,11.192857142857143L13.26500360759563,11.192857142857143L13.021428571428569,10.949282106690081L13.021428571428569,9.622146464738488L13.45,9.193575036167061L13.45,9L13.55,9L13.55,9.23499639240437L13.12142857142857,9.663567820975796L13.12142857142857,10.907860750452773L13.306424963832939,11.092857142857142L13.949282106690081,11.092857142857142L14.407142857142858,11.550717893309915L14.407142857142858,11.76500360759563L14.62142857142857,11.979289321881346L14.62142857142857,12.407860750452773L14.806424963832939,12.592857142857142L20.336432179024204,12.592857142857142L20.55071789330992,12.378571428571426L21.836432179024204,12.378571428571426L22.26500360759563,11.95z" stroke="none"/><path d="M13.535355339059327,4.464644660940673L13.464644660940673,4.535355339059327L13.26500360759563,4.335714285714285L13.050717893309915,4.335714285714285L12.836432179024204,4.121428571428571L10.479289321881346,4.121428571428571L10.26500360759563,3.907142857142857L3.877853535261512,3.907142857142857L3.449282106690083,4.335714285714285L3.234996392404369,4.335714285714285L3.0353553390593273,4.535355339059327L2.9646446609406727,4.464644660940673L3.1935750361670596,4.235714285714286L3.4078607504527736,4.235714285714286L3.8364321790242024,3.8071428571428574L10.306424963832939,3.8071428571428574L10.520710678118654,4.021428571428571L12.877853535261512,4.021428571428571L13.092139249547223,4.235714285714286L13.306424963832939,4.235714285714286z" stroke="none"/><path d="M9.035355339059327,5.964644660940673L8.964644660940673,6.035355339059327L8.521428571428569,5.592139249547226L8.521428571428569,5.3778535352615116L8.307142857142857,5.163567820975797L8.307142857142857,4.949282106690084L8.092857142857142,4.734996392404369L8.092857142857142,4.30642496383294L7.907860750452773,4.121428571428571L4.092139249547226,4.121428571428571L3.907142857142857,4.30642496383294L3.907142857142857,4.520710678118655L3.449282106690083,4.978571428571429L2.550717893309917,4.978571428571429L2.3071428571428574,4.734996392404369L2.3071428571428574,4.265003607595631L4.050717893309916,2.521428571428572L5.979289321881345,2.521428571428572L6.19357503616706,2.3071428571428574L6.622146464738488,2.3071428571428574L6.836432179024202,2.092857142857143L17.979289321881346,2.092857142857143L18.19357503616706,1.8785714285714286L27.663567820975796,1.8785714285714286L27.90714285714286,2.122146464738488L27.90714285714286,6.449282106690083L27.44928210669008,6.907142857142857L27.23499639240437,6.907142857142857L27.020710678118654,7.121428571428571L26.592139249547223,7.121428571428571L26.40714285714286,7.30642496383294L26.40714285714286,7.520710678118655L25.94928210669008,7.978571428571428L22.520710678118654,7.978571428571428L22.30642496383294,8.192857142857143L21.663567820975796,8.192857142857143L21.44928210669008,8.407142857142858L21.020710678118654,8.407142857142858L19.94928210669008,9.478571428571428L18.663567820975796,9.478571428571428L18.44928210669008,9.692857142857143L18.23499639240437,9.692857142857143L18.020710678118654,9.907142857142858L17.80642496383294,9.907142857142858L17.621428571428574,10.092139249547223L17.621428571428574,10.907860750452773L17.80642496383294,11.092857142857142L18.62214646473849,11.092857142857142L19.26500360759563,10.45L19.5,10.45L19.5,10.55L19.30642496383294,10.55L18.663567820975796,11.192857142857143L17.76500360759563,11.192857142857143L17.521428571428572,10.949282106690081L17.521428571428572,10.050717893309915L17.76500360759563,9.807142857142857L17.979289321881346,9.807142857142857L18.19357503616706,9.592857142857142L18.407860750452773,9.592857142857142L18.62214646473849,9.378571428571426L19.907860750452773,9.378571428571426L20.979289321881346,8.307142857142857L21.407860750452773,8.307142857142857L21.62214646473849,8.092857142857142L22.26500360759563,8.092857142857142L22.479289321881346,7.878571428571428L25.907860750452773,7.878571428571428L26.307142857142857,7.479289321881345L26.307142857142857,7.265003607595631L26.550717893309915,7.021428571428571L26.979289321881346,7.021428571428571L27.19357503616706,6.807142857142857L27.407860750452773,6.807142857142857L27.807142857142857,6.407860750452773L27.807142857142857,2.1635678209757976L27.62214646473849,1.9785714285714286L18.23499639240437,1.9785714285714286L18.020710678118654,2.1928571428571426L6.8778535352615116,2.1928571428571426L6.663567820975797,2.407142857142857L6.234996392404369,2.407142857142857L6.020710678118655,2.6214285714285714L4.092139249547226,2.6214285714285714L2.407142857142857,4.30642496383294L2.407142857142857,4.69357503616706L2.5921392495472264,4.878571428571429L3.4078607504527736,4.878571428571429L3.8071428571428574,4.479289321881345L3.8071428571428574,4.265003607595631L4.050717893309916,4.021428571428571L7.949282106690083,4.021428571428571L8.192857142857143,4.265003607595631L8.192857142857143,4.69357503616706L8.407142857142858,4.907860750452774L8.407142857142858,5.122146464738488L8.62142857142857,5.336432179024202L8.62142857142857,5.550717893309916z" stroke="none"/></svg>