<svg version="1.1" width="30" height="15" xmlns="http://www.w3.org/2000/svg"><path d="M8.092857142857142,5.979289321881345L8.550717893309915,5.521428571428571L8.979289321881346,5.521428571428571L10.050717893309915,4.45L10.5,4.45L10.5,4.55L10.092139249547223,4.55L9.020710678118654,5.621428571428571L8.592139249547223,5.621428571428571L8.213567820975797,6L9.23499639240437,7.021428571428571L9.663567820975796,7.021428571428571L10.092139249547223,7.45L10.5,7.45L10.5,7.55L10.050717893309915,7.55L9.622146464738488,7.121428571428571L9.193575036167061,7.121428571428571L8.192857142857143,6.120710678118654L8.192857142857143,6.234996392404369L7.949282106690083,6.478571428571428L4.050717893309916,6.478571428571428L3.8364321790242024,6.264285714285714L3.622146464738488,6.264285714285714L3.4078607504527736,6.05L3,6.05L3,5.95L3.449282106690083,5.95L3.6635678209757976,6.164285714285715L3.877853535261512,6.164285714285715L4.092139249547226,6.378571428571428L7.907860750452773,6.378571428571428L8.092857142857142,6.19357503616706z" stroke="none"/><path d="M10.907860750452773,7.878571428571428L11.092857142857142,7.69357503616706L11.092857142857142,7.30642496383294L10.693575036167061,6.907142857142857L10.479289321881346,6.907142857142857L9.836432179024204,6.264285714285714L9.193575036167061,6.264285714285714L8.964644660940673,6.035355339059327L9.035355339059327,5.964644660940673L9.23499639240437,6.164285714285715L9.877853535261512,6.164285714285715L10.520710678118654,6.807142857142857L10.73499639240437,6.807142857142857L11.192857142857143,7.265003607595631L11.192857142857143,7.734996392404369L10.949282106690081,7.978571428571428L6.907142857142857,7.978571428571428L6.907142857142857,8.122146464738488L7.30642496383294,8.521428571428569L7.949282106690083,8.521428571428569L8.407142857142858,8.979289321881346L8.407142857142858,9.193575036167061L8.62142857142857,9.407860750452773L8.62142857142857,9.836432179024204L9.05,10.26500360759563L9.05,10.5L8.95,10.5L8.95,10.306424963832939L8.521428571428569,9.877853535261512L8.521428571428569,9.449282106690081L8.307142857142857,9.23499639240437L8.307142857142857,9.020710678118654L7.907860750452773,8.62142857142857L7.265003607595631,8.62142857142857L6.807142857142857,8.163567820975796L6.807142857142857,7.978571428571428L4.050717893309916,7.978571428571428L3.622146464738488,7.55L3,7.55L3,7.45L3.6635678209757976,7.45L4.092139249547226,7.878571428571428z" stroke="none"/><path d="M11.95,6.3078607504527735L11.95,5.592139249547226L11.735714285714284,5.3778535352615116L11.735714285714284,5.163567820975797L11.521428571428569,4.949282106690084L11.521428571428569,4.520710678118655L11.307142857142857,4.30642496383294L11.307142857142857,4.092139249547226L11.122146464738488,3.907142857142857L9.449282106690081,3.907142857142857L9.23499639240437,4.121428571428571L9.020710678118654,4.121428571428571L7.978571428571428,5.163567820975797L7.978571428571428,5.3778535352615116L7.55,5.80642496383294L7.55,6L7.45,6L7.45,5.765003607595631L7.878571428571428,5.336432179024202L7.878571428571428,5.122146464738488L8.979289321881346,4.021428571428571L9.193575036167061,4.021428571428571L9.407860750452773,3.8071428571428574L11.163567820975796,3.8071428571428574L11.407142857142858,4.050717893309916L11.407142857142858,4.265003607595631L11.62142857142857,4.479289321881345L11.62142857142857,4.907860750452774L11.835714285714285,5.122146464738488L11.835714285714285,5.336432179024202L12.05,5.550717893309916L12.05,6.378571428571428L12.23499639240437,6.378571428571428L12.449282106690081,6.5928571428571425L12.877853535261512,6.5928571428571425L13.306424963832939,7.021428571428571L13.520710678118654,7.021428571428571L13.949282106690081,7.45L14.163567820975796,7.45L14.592139249547223,7.878571428571428L18.020710678118654,7.878571428571428L18.87785353526151,8.735714285714284L19.30642496383294,8.735714285714284L19.53535533905933,8.964644660940673L19.46464466094067,9.035355339059327L19.26500360759563,8.835714285714285L18.836432179024204,8.835714285714285L17.979289321881346,7.978571428571428L14.550717893309915,7.978571428571428L14.122146464738488,7.55L13.907860750452773,7.55L13.479289321881346,7.121428571428571L13.26500360759563,7.121428571428571L12.836432179024204,6.692857142857142L12.407860750452773,6.692857142857142L12.193575036167061,6.478571428571428L11.979289321881346,6.478571428571428L11.735714285714284,6.234996392404369L11.735714285714284,5.80642496383294L11.307142857142857,5.3778535352615116L11.307142857142857,4.949282106690084L11.092857142857142,4.734996392404369L11.092857142857142,4.30642496383294L10.907860750452773,4.121428571428571L10.092139249547223,4.121428571428571L9.877853535261512,4.335714285714285L9.23499639240437,4.335714285714285L9.035355339059327,4.535355339059327L8.964644660940673,4.464644660940673L9.193575036167061,4.235714285714286L9.836432179024204,4.235714285714286L10.050717893309915,4.021428571428571L10.949282106690081,4.021428571428571L11.192857142857143,4.265003607595631L11.192857142857143,4.69357503616706L11.407142857142858,4.907860750452774L11.407142857142858,5.336432179024202L11.835714285714285,5.765003607595631L11.835714285714285,6.19357503616706z" stroke="none"/><path d="M5.592139249547226,11.092857142857142L6.020710678118655,11.092857142857142L6.663567820975797,11.735714285714284L7.30642496383294,11.735714285714284L7.535355339059327,11.964644660940673L7.464644660940673,12.035355339059327L7.265003607595631,11.835714285714285L6.622146464738488,11.835714285714285L5.979289321881345,11.192857142857143L5.692139249547226,11.192857142857143L5.835714285714285,11.336432179024204L5.835714285714285,11.76500360759563L6.035355339059327,11.964644660940673L5.964644660940673,12.035355339059327L5.735714285714286,11.806424963832939L5.735714285714286,11.377853535261512L5.571428571428571,11.213567820975797L5.3778535352615116,11.407142857142858L5.163567820975797,11.407142857142858L4.535355339059327,12.035355339059327L4.464644660940673,11.964644660940673L5.122146464738488,11.307142857142857L5.336432179024202,11.307142857142857L5.500717893309917,11.142857142857142L5.307142857142857,10.949282106690081L5.307142857142857,10.73499639240437L5.0928571428571425,10.520710678118654L5.0928571428571425,10.306424963832939L4.878571428571429,10.092139249547223L4.878571428571429,9.877853535261512L4.664285714285715,9.663567820975796L4.664285714285715,9.449282106690081L4.45,9.23499639240437L4.45,9L4.55,9L4.55,9.193575036167061L4.764285714285714,9.407860750452773L4.764285714285714,9.622146464738488L4.978571428571429,9.836432179024204L4.978571428571429,10.050717893309915L5.192857142857142,10.26500360759563L5.192857142857142,10.479289321881346L5.407142857142857,10.693575036167061L5.407142857142857,10.907860750452773z" stroke="none"/><path d="M23.95,8.092857142857142L23.95,6L24.05,6L24.05,8.092857142857142L24.663567820975796,8.092857142857142L25.092139249547223,8.521428571428569L25.520710678118654,8.521428571428569L26.40714285714286,9.407860750452773L26.40714285714286,9.622146464738488L26.835714285714285,10.050717893309915L26.835714285714285,10.26500360759563L27.03535533905933,10.464644660940673L26.96464466094067,10.535355339059327L26.735714285714284,10.306424963832939L26.735714285714284,10.092139249547223L26.307142857142857,9.663567820975796L26.307142857142857,9.449282106690081L25.479289321881346,8.62142857142857L25.050717893309915,8.62142857142857L24.62214646473849,8.192857142857143L24.120710678118655,8.192857142857143L24.23499639240437,8.307142857142857L24.44928210669008,8.307142857142857L24.87785353526151,8.735714285714284L25.30642496383294,8.735714285714284L25.53535533905933,8.964644660940673L25.46464466094067,9.035355339059327L25.26500360759563,8.835714285714285L24.836432179024204,8.835714285714285L24.407860750452773,8.407142857142858L24.19357503616706,8.407142857142858L23.979289321881346,8.192857142857143L20.979289321881346,8.192857142857143L20.76500360759563,7.978571428571428L20.12214646473849,7.978571428571428L19.907860750452773,7.764285714285714L19.69357503616706,7.764285714285714L19.46464466094067,7.535355339059327L19.53535533905933,7.464644660940673L19.73499639240437,7.664285714285715L19.94928210669008,7.664285714285715L20.163567820975796,7.878571428571428L20.80642496383294,7.878571428571428L21.020710678118654,8.092857142857142z" stroke="none"/><path d="M15.020710678118654,9.807142857142857L15.663567820975796,9.807142857142857L17.592139249547227,11.735714285714284L20.80642496383294,11.735714285714284L21.03535533905933,11.964644660940673L20.96464466094067,12.035355339059327L20.76500360759563,11.835714285714285L17.55071789330992,11.835714285714285L15.622146464738488,9.907142857142858L15.120710678118655,9.907142857142858L15.23499639240437,10.021428571428569L15.449282106690081,10.021428571428569L15.692857142857143,10.26500360759563L15.692857142857143,10.693575036167061L16.12142857142857,11.122146464738488L16.12142857142857,11.336432179024204L16.335714285714285,11.550717893309915L16.335714285714285,11.76500360759563L16.53535533905933,11.964644660940673L16.46464466094067,12.035355339059327L16.235714285714284,11.806424963832939L16.235714285714284,11.592139249547223L16.02142857142857,11.377853535261512L16.02142857142857,11.163567820975796L15.592857142857142,10.73499639240437L15.592857142857142,10.306424963832939L15.407860750452773,10.12142857142857L15.193575036167061,10.12142857142857L14.979289321881346,9.907142857142858L13.907860750452773,9.907142857142858L13.693575036167061,9.692857142857143L13.479289321881346,9.692857142857143L13.26500360759563,9.478571428571428L12.193575036167061,9.478571428571428L11.979289321881346,9.264285714285716L11.122146464738488,9.264285714285716L10.907860750452773,9.05L10.5,9.05L10.5,8.95L10.949282106690081,8.95L11.163567820975796,9.164285714285715L12.020710678118654,9.164285714285715L12.23499639240437,9.378571428571426L13.306424963832939,9.378571428571426L13.520710678118654,9.592857142857142L13.73499639240437,9.592857142857142L13.949282106690081,9.807142857142857L14.879289321881345,9.807142857142857L13.479289321881346,8.407142857142858L13.26500360759563,8.407142857142858L12.622146464738488,7.764285714285714L12.407860750452773,7.764285714285714L12.193575036167061,7.55L12,7.55L12,7.45L12.23499639240437,7.45L12.449282106690081,7.664285714285715L12.663567820975796,7.664285714285715L13.306424963832939,8.307142857142857L13.520710678118654,8.307142857142857z" stroke="none"/><path d="M24,10.55L24,10.45L25.5,10.45L25.5,10.55z" stroke="none"/><path d="M14.964644660940673,6.035355339059327L15.035355339059327,5.964644660940673L16.53535533905933,7.464644660940673L16.46464466094067,7.535355339059327z" stroke="none"/><path d="M22.53535533905933,5.964644660940673L22.46464466094067,6.035355339059327L20.96464466094067,4.535355339059327L21.03535533905933,4.464644660940673z" stroke="none"/><path d="M26.95,4.5L27.05,4.5L27.05,7.5L26.95,7.5z" stroke="none"/><path d="M7.535355339059327,10.464644660940673L7.464644660940673,10.535355339059327L5.550717893309916,8.62142857142857L4.092139249547226,8.62142857142857L3.907142857142857,8.806424963832939L3.907142857142857,8.979289321881346L4.121428571428571,9.193575036167061L4.121428571428571,9.836432179024204L4.55,10.26500360759563L4.55,10.5L4.45,10.5L4.45,10.306424963832939L4.021428571428571,9.877853535261512L4.021428571428571,9.23499639240437L3.8071428571428574,9.020710678118654L3.8071428571428574,8.76500360759563L4.050717893309916,8.521428571428569L5.592139249547226,8.521428571428569z" stroke="none"/><path d="M9.05,12L8.95,12L8.95,11.592139249547223L8.735714285714284,11.377853535261512L8.735714285714284,11.163567820975796L8.521428571428569,10.949282106690081L8.521428571428569,10.306424963832939L7.664285714285715,9.449282106690081L7.664285714285715,9.23499639240437L7.464644660940673,9.035355339059327L7.535355339059327,8.964644660940673L7.764285714285714,9.193575036167061L7.764285714285714,9.407860750452773L8.62142857142857,10.26500360759563L8.62142857142857,10.907860750452773L8.835714285714285,11.122146464738488L8.835714285714285,11.336432179024204L9.05,11.550717893309915z" stroke="none"/><path d="M25.5,12.05L25.5,11.95L25.69357503616706,11.95L26.336432179024204,11.307142857142857L26.76500360759563,11.307142857142857L26.979289321881346,11.092857142857142L27.19357503616706,11.092857142857142L27.378571428571426,10.907860750452773L27.378571428571426,9.663567820975796L27.164285714285715,9.449282106690081L27.164285714285715,9.23499639240437L26.96464466094067,9.035355339059327L27.03535533905933,8.964644660940673L27.264285714285716,9.193575036167061L27.264285714285716,9.407860750452773L27.478571428571428,9.622146464738488L27.478571428571428,10.949282106690081L27.23499639240437,11.192857142857143L27.020710678118654,11.192857142857143L26.80642496383294,11.407142857142858L26.37785353526151,11.407142857142858L25.73499639240437,12.05z" stroke="none"/><path d="M13.45,4.5L13.55,4.5L13.55,4.69357503616706L13.764285714285716,4.907860750452774L13.764285714285716,5.122146464738488L14.407142857142858,5.765003607595631L14.407142857142858,5.979289321881345L14.62142857142857,6.19357503616706L14.62142857142857,6.407860750452773L14.835714285714285,6.622146464738488L14.835714285714285,7.050717893309916L15.05,7.265003607595631L15.05,7.5L14.95,7.5L14.95,7.30642496383294L14.735714285714284,7.092139249547226L14.735714285714284,6.663567820975797L14.521428571428569,6.449282106690083L14.521428571428569,6.234996392404369L14.307142857142857,6.020710678118655L14.307142857142857,5.80642496383294L13.664285714285715,5.163567820975797L13.664285714285715,4.949282106690084L13.45,4.734996392404369z" stroke="none"/><path d="M26.96464466094067,2.9646446609406727L27.03535533905933,3.0353553390593273L26.163567820975796,3.907142857142857L25.73499639240437,3.907142857142857L25.520710678118654,4.121428571428571L25.30642496383294,4.121428571428571L24.87785353526151,4.55L24,4.55L24,4.45L24.836432179024204,4.45L25.26500360759563,4.021428571428571L25.479289321881346,4.021428571428571L25.69357503616706,3.8071428571428574L26.12214646473849,3.8071428571428574z" stroke="none"/><path d="M6.035355339059327,6.035355339059327L5.964644660940673,5.964644660940673L8.964644660940673,2.9646446609406727L9.035355339059327,3.0353553390593273z" stroke="none"/><path d="M14.964644660940673,10.535355339059327L15.035355339059327,10.464644660940673L15.692857142857143,11.122146464738488L15.692857142857143,11.76500360759563L15.907142857142858,11.979289321881346L15.907142857142858,12.193575036167061L16.092139249547223,12.378571428571426L21.407860750452773,12.378571428571426L21.59285714285714,12.193575036167061L21.59285714285714,11.377853535261512L21.378571428571426,11.163567820975796L21.378571428571426,10.949282106690081L21.164285714285715,10.73499639240437L21.164285714285715,10.520710678118654L20.09285714285714,9.449282106690081L20.09285714285714,9.020710678118654L19.878571428571426,8.806424963832939L19.878571428571426,8.592139249547223L19.26500360759563,7.978571428571428L18.836432179024204,7.978571428571428L18.62214646473849,7.764285714285714L18.407860750452773,7.764285714285714L18.19357503616706,7.55L18,7.55L18,7.45L18.23499639240437,7.45L18.44928210669008,7.664285714285715L18.663567820975796,7.664285714285715L18.87785353526151,7.878571428571428L19.30642496383294,7.878571428571428L19.978571428571428,8.550717893309915L19.978571428571428,8.76500360759563L20.192857142857143,8.979289321881346L20.192857142857143,9.407860750452773L21.264285714285716,10.479289321881346L21.264285714285716,10.693575036167061L21.478571428571428,10.907860750452773L21.478571428571428,11.122146464738488L21.692857142857143,11.336432179024204L21.692857142857143,12.23499639240437L21.44928210669008,12.478571428571428L16.050717893309915,12.478571428571428L15.807142857142857,12.23499639240437L15.807142857142857,12.020710678118654L15.592857142857142,11.806424963832939L15.592857142857142,11.163567820975796z" stroke="none"/><path d="M12,3.05L12,2.95L12.449282106690081,2.95L12.877853535261512,3.3785714285714286L14.76500360759563,3.3785714285714286L15.193575036167061,2.95L16.5,2.95L16.5,3.05L15.23499639240437,3.05L14.806424963832939,3.478571428571428L12.836432179024204,3.478571428571428L12.407860750452773,3.05z" stroke="none"/><path d="M22.46464466094067,9.035355339059327L22.53535533905933,8.964644660940673L23.62142857142857,10.050717893309915L23.62142857142857,10.907860750452773L25.092139249547223,12.378571428571426L25.907860750452773,12.378571428571426L26.307142857142857,11.979289321881346L26.307142857142857,11.76500360759563L26.550717893309915,11.521428571428569L27.19357503616706,11.521428571428569L27.59285714285714,11.122146464738488L27.59285714285714,9.449282106690081L27.378571428571426,9.23499639240437L27.378571428571426,8.592139249547223L26.979289321881346,8.192857142857143L26.76500360759563,8.192857142857143L26.307142857142857,7.734996392404369L26.307142857142857,7.520710678118655L24.407860750452773,5.621428571428571L23.76500360759563,5.621428571428571L22.907860750452773,4.764285714285714L22.69357503616706,4.764285714285714L22.46464466094067,4.535355339059327L22.53535533905933,4.464644660940673L22.73499639240437,4.664285714285715L22.94928210669008,4.664285714285715L23.80642496383294,5.521428571428571L24.44928210669008,5.521428571428571L26.40714285714286,7.479289321881345L26.40714285714286,7.69357503616706L26.80642496383294,8.092857142857142L27.020710678118654,8.092857142857142L27.478571428571428,8.550717893309915L27.478571428571428,9.193575036167061L27.692857142857143,9.407860750452773L27.692857142857143,11.163567820975796L27.23499639240437,11.62142857142857L26.592139249547223,11.62142857142857L26.40714285714286,11.806424963832939L26.40714285714286,12.020710678118654L25.94928210669008,12.478571428571428L25.050717893309915,12.478571428571428L23.52142857142857,10.949282106690081L23.52142857142857,10.092139249547223z" stroke="none"/><path d="M22.5,12.05L22.5,11.95L23.80642496383294,11.95L24.23499639240437,12.378571428571426L24.663567820975796,12.378571428571426L24.87785353526151,12.592857142857142L26.12214646473849,12.592857142857142L26.76500360759563,11.95L27,11.95L27,12.05L26.80642496383294,12.05L26.163567820975796,12.692857142857143L24.836432179024204,12.692857142857143L24.62214646473849,12.478571428571428L24.19357503616706,12.478571428571428L23.76500360759563,12.05z" stroke="none"/><path d="M10.5,11.95L10.5,12.05L10.092139249547223,12.05L9.663567820975796,12.478571428571428L8.550717893309915,12.478571428571428L7.878571428571428,11.806424963832939L7.878571428571428,11.592139249547223L7.479289321881345,11.192857142857143L7.265003607595631,11.192857142857143L6.836432179024202,10.764285714285716L6.407860750452773,10.764285714285716L6.19357503616706,10.55L6,10.55L6,10.45L6.234996392404369,10.45L6.449282106690083,10.664285714285715L6.8778535352615116,10.664285714285715L7.30642496383294,11.092857142857142L7.520710678118655,11.092857142857142L7.978571428571428,11.550717893309915L7.978571428571428,11.76500360759563L8.592139249547223,12.378571428571426L9.622146464738488,12.378571428571426L10.050717893309915,11.95z" stroke="none"/><path d="M17.96464466094067,3.0353553390593273L18.03535533905933,2.9646446609406727L18.264285714285716,3.1935750361670596L18.264285714285716,3.4078607504527736L18.692857142857143,3.8364321790242024L18.692857142857143,4.050717893309916L19.55,4.907860750452774L19.55,5.550717893309916L21.05,7.050717893309916L21.05,7.5L20.95,7.5L20.95,7.092139249547226L19.45,5.592139249547226L19.45,4.949282106690084L18.59285714285714,4.092139249547226L18.59285714285714,3.877853535261512L18.164285714285715,3.449282106690083L18.164285714285715,3.234996392404369z" stroke="none"/><path d="M2.95,3L3.05,3L3.05,4.734996392404369L2.6214285714285714,5.163567820975797L2.6214285714285714,6.407860750452773L2.8064249638329404,6.5928571428571425L6.020710678118655,6.5928571428571425L6.663567820975797,7.235714285714286L7.092139249547226,7.235714285714286L7.30642496383294,7.45L7.5,7.45L7.5,7.55L7.265003607595631,7.55L7.050717893309916,7.335714285714285L6.622146464738488,7.335714285714285L5.979289321881345,6.692857142857142L2.765003607595631,6.692857142857142L2.521428571428572,6.449282106690083L2.521428571428572,5.122146464738488L2.95,4.69357503616706z" stroke="none"/><path d="M4.5,4.55L4.5,4.45L4.907860750452774,4.45L5.550717893309916,3.8071428571428574L6.622146464738488,3.8071428571428574L6.836432179024202,3.592857142857143L7.050717893309916,3.592857142857143L7.265003607595631,3.3785714285714286L7.479289321881345,3.3785714285714286L8.122146464738488,2.7357142857142858L8.336432179024204,2.7357142857142858L8.550717893309915,2.521428571428572L9.449282106690081,2.521428571428572L9.692857142857143,2.765003607595631L9.692857142857143,2.979289321881345L10.092139249547223,3.3785714285714286L10.949282106690081,3.3785714285714286L11.163567820975796,3.592857142857143L11.377853535261512,3.592857142857143L11.835714285714285,4.050717893309916L11.835714285714285,4.265003607595631L12.035355339059327,4.464644660940673L11.964644660940673,4.535355339059327L11.735714285714284,4.30642496383294L11.735714285714284,4.092139249547226L11.336432179024204,3.6928571428571426L11.122146464738488,3.6928571428571426L10.907860750452773,3.478571428571428L10.050717893309915,3.478571428571428L9.592857142857142,3.020710678118655L9.592857142857142,2.8064249638329404L9.407860750452773,2.6214285714285714L8.592139249547223,2.6214285714285714L8.377853535261512,2.8357142857142854L8.163567820975796,2.8357142857142854L7.520710678118655,3.478571428571428L7.30642496383294,3.478571428571428L7.092139249547226,3.6928571428571426L6.8778535352615116,3.6928571428571426L6.663567820975797,3.907142857142857L5.592139249547226,3.907142857142857L4.949282106690084,4.55z" stroke="none"/><path d="M16.55,4.5L16.45,4.5L16.45,4.265003607595631L16.664285714285715,4.050717893309916L16.664285714285715,3.8364321790242024L16.878571428571426,3.622146464738488L16.878571428571426,3.4078607504527736L17.09285714285714,3.1935750361670596L17.09285714285714,2.979289321881345L17.55071789330992,2.521428571428572L23.37785353526151,2.521428571428572L23.80642496383294,2.95L24,2.95L24,3.05L23.76500360759563,3.05L23.336432179024204,2.6214285714285714L17.592139249547227,2.6214285714285714L17.192857142857143,3.020710678118655L17.192857142857143,3.234996392404369L16.978571428571428,3.449282106690083L16.978571428571428,3.6635678209757976L16.764285714285716,3.877853535261512L16.764285714285716,4.092139249547226L16.55,4.30642496383294z" stroke="none"/><path d="M10.535355339059327,10.464644660940673L10.464644660940673,10.535355339059327L10.235714285714284,10.306424963832939L10.235714285714284,9.663567820975796L10.021428571428569,9.449282106690081L10.021428571428569,8.550717893309915L10.26500360759563,8.307142857142857L10.907860750452773,8.307142857142857L11.307142857142857,7.907860750452773L11.307142857142857,7.265003607595631L11.550717893309915,7.021428571428571L12.449282106690081,7.021428571428571L13.306424963832939,7.878571428571428L13.520710678118654,7.878571428571428L13.73499639240437,8.092857142857142L15.663567820975796,8.092857142857142L15.877853535261512,8.307142857142857L16.30642496383294,8.307142857142857L16.520710678118654,8.521428571428569L16.94928210669008,8.521428571428569L17.37785353526151,8.95L18,8.95L18,9.05L17.336432179024204,9.05L16.907860750452773,8.62142857142857L16.479289321881346,8.62142857142857L16.26500360759563,8.407142857142858L15.836432179024204,8.407142857142858L15.622146464738488,8.192857142857143L13.693575036167061,8.192857142857143L13.479289321881346,7.978571428571428L13.26500360759563,7.978571428571428L12.407860750452773,7.121428571428571L11.592139249547223,7.121428571428571L11.407142857142858,7.30642496383294L11.407142857142858,7.949282106690083L10.949282106690081,8.407142857142858L10.306424963832939,8.407142857142858L10.12142857142857,8.592139249547223L10.12142857142857,9.407860750452773L10.335714285714285,9.622146464738488L10.335714285714285,10.26500360759563z" stroke="none"/><path d="M18.03535533905933,5.964644660940673L17.96464466094067,6.035355339059327L17.12214646473849,5.192857142857142L16.907860750452773,5.192857142857142L16.69357503616706,4.978571428571429L16.050717893309915,4.978571428571429L15.836432179024204,4.764285714285714L14.550717893309915,4.764285714285714L13.907860750452773,4.121428571428571L12.193575036167061,4.121428571428571L11.550717893309915,3.478571428571428L11.336432179024204,3.478571428571428L11.122146464738488,3.2642857142857142L10.693575036167061,3.2642857142857142L10.464644660940673,3.0353553390593273L10.535355339059327,2.9646446609406727L10.73499639240437,3.1642857142857146L11.163567820975796,3.1642857142857146L11.377853535261512,3.3785714285714286L11.592139249547223,3.3785714285714286L12.23499639240437,4.021428571428571L13.949282106690081,4.021428571428571L14.592139249547223,4.664285714285715L15.877853535261512,4.664285714285715L16.092139249547223,4.878571428571429L16.73499639240437,4.878571428571429L16.94928210669008,5.0928571428571425L17.163567820975796,5.0928571428571425z" stroke="none"/><path d="M24,8.95L24,9.05L23.76500360759563,9.05L23.550717893309915,8.835714285714285L23.12214646473849,8.835714285714285L22.907860750452773,8.62142857142857L22.092139249547227,8.62142857142857L21.90714285714286,8.806424963832939L21.90714285714286,12.449282106690081L21.663567820975796,12.692857142857143L15.836432179024204,12.692857142857143L15.193575036167061,12.05L15,12.05L15,11.95L15.23499639240437,11.95L15.877853535261512,12.592857142857142L21.62214646473849,12.592857142857142L21.807142857142857,12.407860750452773L21.807142857142857,8.76500360759563L22.05071789330992,8.521428571428569L22.94928210669008,8.521428571428569L23.163567820975796,8.735714285714284L23.592139249547223,8.735714285714284L23.80642496383294,8.95z" stroke="none"/><path d="M4.5,7.45L4.5,7.55L4.050717893309916,7.55L3.8364321790242024,7.335714285714285L3.622146464738488,7.335714285714285L3.4078607504527736,7.121428571428571L2.765003607595631,7.121428571428571L2.3071428571428574,6.663567820975797L2.3071428571428574,2.765003607595631L2.550717893309917,2.521428571428572L8.122146464738488,2.521428571428572L8.336432179024204,2.3071428571428574L12.663567820975796,2.3071428571428574L13.092139249547223,2.7357142857142858L13.306424963832939,2.7357142857142858L13.535355339059327,2.9646446609406727L13.464644660940673,3.0353553390593273L13.26500360759563,2.8357142857142854L13.050717893309915,2.8357142857142854L12.622146464738488,2.407142857142857L8.377853535261512,2.407142857142857L8.163567820975796,2.6214285714285714L2.5921392495472264,2.6214285714285714L2.407142857142857,2.8064249638329404L2.407142857142857,6.622146464738488L2.8064249638329404,7.021428571428571L3.449282106690083,7.021428571428571L3.6635678209757976,7.235714285714286L3.877853535261512,7.235714285714286L4.092139249547226,7.45z" stroke="none"/><path d="M13.5,11.95L13.5,12.05L12.663567820975796,12.05L12.449282106690081,12.264285714285716L12.23499639240437,12.264285714285716L12.020710678118654,12.478571428571428L11.592139249547223,12.478571428571428L11.377853535261512,12.692857142857143L4.69357503616706,12.692857142857143L4.479289321881345,12.478571428571428L4.050717893309916,12.478571428571428L3.592857142857143,12.020710678118654L3.592857142857143,11.806424963832939L3.3785714285714286,11.592139249547223L3.3785714285714286,11.377853535261512L3.1642857142857146,11.163567820975796L3.1642857142857146,10.73499639240437L2.9646446609406727,10.535355339059327L3.0353553390593273,10.464644660940673L3.2642857142857142,10.693575036167061L3.2642857142857142,11.122146464738488L3.478571428571428,11.336432179024204L3.478571428571428,11.550717893309915L3.6928571428571426,11.76500360759563L3.6928571428571426,11.979289321881346L4.092139249547226,12.378571428571426L4.520710678118655,12.378571428571426L4.734996392404369,12.592857142857142L11.336432179024204,12.592857142857142L11.550717893309915,12.378571428571426L11.979289321881346,12.378571428571426L12.193575036167061,12.164285714285715L12.407860750452773,12.164285714285715L12.622146464738488,11.95z" stroke="none"/></svg>