<svg version="1.1" width="30" height="15" xmlns="http://www.w3.org/2000/svg"><path d="M3.3785714285714286,6.836432179024202L3.3785714285714286,5.592139249547226L2.95,5.163567820975797L2.95,4.5L3.05,4.5L3.05,5.122146464738488L3.478571428571428,5.550717893309916L3.478571428571428,7.265003607595631L3.6928571428571426,7.479289321881345L3.6928571428571426,7.69357503616706L4.335714285714285,8.336432179024204L4.335714285714285,8.550717893309915L4.55,8.76500360759563L4.55,9L4.45,9L4.45,8.806424963832939L4.235714285714286,8.592139249547223L4.235714285714286,8.377853535261512L3.592857142857143,7.734996392404369L3.592857142857143,7.520710678118655L3.3785714285714286,7.30642496383294L3.3785714285714286,6.977853535261511L3.2642857142857142,7.092139249547226L3.2642857142857142,7.30642496383294L3.0353553390593273,7.535355339059327L2.9646446609406727,7.464644660940673L3.1642857142857146,7.265003607595631L3.1642857142857146,7.050717893309916z" stroke="none"/><path d="M21.807142857142857,6.378571428571428L21.807142857142857,5.765003607595631L22.45,5.122146464738488L22.45,4.5L22.55,4.5L22.55,5.163567820975797L21.90714285714286,5.80642496383294L21.90714285714286,6.407860750452773L22.94928210669008,7.45L23.37785353526151,7.45L24.020710678118654,8.092857142857142L24.44928210669008,8.092857142857142L24.663567820975796,8.307142857142857L24.87785353526151,8.307142857142857L25.53535533905933,8.964644660940673L25.46464466094067,9.035355339059327L24.836432179024204,8.407142857142858L24.62214646473849,8.407142857142858L24.407860750452773,8.192857142857143L23.979289321881346,8.192857142857143L23.336432179024204,7.55L22.907860750452773,7.55L21.836432179024204,6.478571428571428L19.05071789330992,6.478571428571428L18.836432179024204,6.264285714285714L18.62214646473849,6.264285714285714L18.407860750452773,6.05L18,6.05L18,5.95L18.44928210669008,5.95L18.663567820975796,6.164285714285715L18.87785353526151,6.164285714285715L19.092139249547227,6.378571428571428z" stroke="none"/><path d="M8.95,6.807142857142857L8.95,6.663567820975797L8.76500360759563,6.478571428571428L7.734996392404369,6.478571428571428L7.520710678118655,6.692857142857142L7.30642496383294,6.692857142857142L6.8778535352615116,7.121428571428571L6.449282106690083,7.121428571428571L6.234996392404369,7.335714285714285L5.163567820975797,7.335714285714285L4.949282106690084,7.55L4.5,7.55L4.5,7.45L4.907860750452774,7.45L5.122146464738488,7.235714285714286L6.19357503616706,7.235714285714286L6.407860750452773,7.021428571428571L6.836432179024202,7.021428571428571L7.265003607595631,6.5928571428571425L7.479289321881345,6.5928571428571425L7.69357503616706,6.378571428571428L8.806424963832939,6.378571428571428L9.05,6.622146464738488L9.05,6.807142857142857L14.122146464738488,6.807142857142857L14.336432179024204,6.5928571428571425L15.622146464738488,6.5928571428571425L16.050717893309915,6.164285714285715L16.26500360759563,6.164285714285715L16.46464466094067,5.964644660940673L16.53535533905933,6.035355339059327L16.30642496383294,6.264285714285714L16.092139249547223,6.264285714285714L15.663567820975796,6.692857142857142L14.377853535261512,6.692857142857142L14.163567820975796,6.907142857142857L8.377853535261512,6.907142857142857L7.734996392404369,7.55L6,7.55L6,7.45L7.69357503616706,7.45L8.336432179024204,6.807142857142857z" stroke="none"/><path d="M14.57142857142857,3.572146464738488L14.735714285714284,3.4078607504527736L14.735714285714284,3.1935750361670596L14.964644660940673,2.9646446609406727L15.035355339059327,3.0353553390593273L14.835714285714285,3.234996392404369L14.835714285714285,3.449282106690083L14.692139249547225,3.592857142857143L19.092139249547227,3.592857142857143L19.30642496383294,3.8071428571428574L19.73499639240437,3.8071428571428574L20.163567820975796,4.235714285714286L20.592139249547227,4.235714285714286L20.80642496383294,4.45L21,4.45L21,4.55L20.76500360759563,4.55L20.55071789330992,4.335714285714285L20.12214646473849,4.335714285714285L19.69357503616706,3.907142857142857L19.26500360759563,3.907142857142857L19.05071789330992,3.6928571428571426L13.479289321881346,3.6928571428571426L13.26500360759563,3.478571428571428L13.050717893309915,3.478571428571428L12.836432179024204,3.2642857142857142L12.622146464738488,3.2642857142857142L12.407860750452773,3.05L11.550717893309915,3.05L11.122146464738488,2.6214285714285714L10.092139249547223,2.6214285714285714L9.907142857142858,2.8064249638329404L9.907142857142858,3.020710678118655L9.692857142857143,3.234996392404369L9.692857142857143,3.449282106690083L9.478571428571428,3.6635678209757976L9.478571428571428,3.877853535261512L9.05,4.30642496383294L9.05,4.5L8.95,4.5L8.95,4.265003607595631L9.378571428571426,3.8364321790242024L9.378571428571426,3.622146464738488L9.592857142857142,3.4078607504527736L9.592857142857142,3.1935750361670596L9.807142857142857,2.979289321881345L9.807142857142857,2.765003607595631L10.050717893309915,2.521428571428572L11.163567820975796,2.521428571428572L11.592139249547223,2.95L12.449282106690081,2.95L12.663567820975796,3.1642857142857146L12.877853535261512,3.1642857142857146L13.092139249547223,3.3785714285714286L13.306424963832939,3.3785714285714286L13.520710678118654,3.592857142857143L14.450717893309914,3.592857142857143L14.336432179024204,3.478571428571428L14.122146464738488,3.478571428571428L13.693575036167061,3.05L13.5,3.05L13.5,2.95L13.73499639240437,2.95L14.163567820975796,3.3785714285714286L14.377853535261512,3.3785714285714286z" stroke="none"/><path d="M17.95,7.664285714285715L17.95,7.520710678118655L17.307142857142857,6.8778535352615116L17.307142857142857,6.449282106690083L17.09285714285714,6.234996392404369L17.09285714285714,5.80642496383294L16.907860750452773,5.621428571428571L16.092139249547223,5.621428571428571L15.877853535261512,5.835714285714285L15.449282106690081,5.835714285714285L15.23499639240437,6.05L15,6.05L15,5.95L15.193575036167061,5.95L15.407860750452773,5.735714285714286L15.836432179024204,5.735714285714286L16.050717893309915,5.521428571428571L16.94928210669008,5.521428571428571L17.192857142857143,5.765003607595631L17.192857142857143,6.19357503616706L17.40714285714286,6.407860750452773L17.40714285714286,6.836432179024202L18.05,7.479289321881345L18.05,7.664285714285715L18.663567820975796,7.664285714285715L18.87785353526151,7.878571428571428L23.37785353526151,7.878571428571428L24.020710678118654,8.521428571428569L24.23499639240437,8.521428571428569L25.092139249547223,9.378571428571426L25.907860750452773,9.378571428571426L26.09285714285714,9.193575036167061L26.09285714285714,8.806424963832939L25.878571428571426,8.592139249547223L25.878571428571426,8.377853535261512L25.664285714285715,8.163567820975796L25.664285714285715,7.734996392404369L25.46464466094067,7.535355339059327L25.53535533905933,7.464644660940673L25.764285714285716,7.69357503616706L25.764285714285716,8.122146464738488L25.978571428571428,8.336432179024204L25.978571428571428,8.550717893309915L26.192857142857143,8.76500360759563L26.192857142857143,9.23499639240437L25.94928210669008,9.478571428571428L25.050717893309915,9.478571428571428L24.19357503616706,8.62142857142857L23.979289321881346,8.62142857142857L23.336432179024204,7.978571428571428L18.836432179024204,7.978571428571428L18.62214646473849,7.764285714285714L18.05,7.764285714285714L18.05,7.949282106690083L16.978571428571428,9.020710678118654L16.978571428571428,9.449282106690081L16.30642496383294,10.12142857142857L15.449282106690081,10.12142857142857L15.035355339059327,10.535355339059327L14.964644660940673,10.464644660940673L15.407860750452773,10.021428571428569L16.26500360759563,10.021428571428569L16.878571428571426,9.407860750452773L16.878571428571426,8.979289321881346L17.95,7.907860750452773L17.95,7.764285714285714L16.907860750452773,7.764285714285714L16.69357503616706,7.55L16.5,7.55L16.5,7.45L16.73499639240437,7.45L16.94928210669008,7.664285714285715z" stroke="none"/><path d="M14.521428571428569,5.0928571428571425L14.521428571428569,4.949282106690084L14.336432179024204,4.764285714285714L13.26500360759563,4.764285714285714L13.050717893309915,4.55L12.622146464738488,4.55L11.979289321881346,3.907142857142857L11.76500360759563,3.907142857142857L10.907860750452773,3.05L10.5,3.05L10.5,2.95L10.949282106690081,2.95L11.806424963832939,3.8071428571428574L12.020710678118654,3.8071428571428574L12.663567820975796,4.45L13.092139249547223,4.45L13.306424963832939,4.664285714285715L14.377853535261512,4.664285714285715L14.62142857142857,4.907860750452774L14.62142857142857,5.0928571428571425L15.193575036167061,5.0928571428571425L15.836432179024204,4.45L16.5,4.45L16.5,4.55L15.877853535261512,4.55L15.23499639240437,5.192857142857142L14.62142857142857,5.192857142857142L14.62142857142857,5.336432179024202L14.806424963832939,5.521428571428571L15.407860750452773,5.521428571428571L15.622146464738488,5.307142857142857L17.163567820975796,5.307142857142857L17.40714285714286,5.550717893309916L17.40714285714286,5.765003607595631L17.621428571428574,5.979289321881345L17.621428571428574,6.407860750452773L17.80642496383294,6.5928571428571425L18.44928210669008,6.5928571428571425L19.30642496383294,7.45L19.5,7.45L19.5,7.55L19.26500360759563,7.55L18.407860750452773,6.692857142857142L17.76500360759563,6.692857142857142L17.521428571428572,6.449282106690083L17.521428571428572,6.020710678118655L17.307142857142857,5.80642496383294L17.307142857142857,5.592139249547226L17.12214646473849,5.407142857142857L15.663567820975796,5.407142857142857L15.449282106690081,5.621428571428571L14.76500360759563,5.621428571428571L14.521428571428569,5.3778535352615116L14.521428571428569,5.192857142857142L14.163567820975796,5.192857142857142L13.73499639240437,5.621428571428571L13.520710678118654,5.621428571428571L13.092139249547223,6.05L12,6.05L12,5.95L13.050717893309915,5.95L13.479289321881346,5.521428571428571L13.693575036167061,5.521428571428571L14.122146464738488,5.0928571428571425z" stroke="none"/><path d="M6,10.45L6,10.55L4.5,10.55L4.5,10.45z" stroke="none"/><path d="M27.03535533905933,4.464644660940673L26.96464466094067,4.535355339059327L25.46464466094067,3.0353553390593273L25.53535533905933,2.9646446609406727z" stroke="none"/><path d="M10.464644660940673,4.464644660940673L10.535355339059327,4.535355339059327L9.035355339059327,6.035355339059327L8.964644660940673,5.964644660940673z" stroke="none"/><path d="M4.464644660940673,4.535355339059327L4.535355339059327,4.464644660940673L6.035355339059327,5.964644660940673L5.964644660940673,6.035355339059327z" stroke="none"/><path d="M25.46464466094067,4.464644660940673L25.53535533905933,4.535355339059327L25.30642496383294,4.764285714285714L25.092139249547223,4.764285714285714L24.87785353526151,4.978571428571429L24.663567820975796,4.978571428571429L24.44928210669008,5.192857142857142L23.80642496383294,5.192857142857142L23.592139249547223,5.407142857142857L23.37785353526151,5.407142857142857L22.73499639240437,6.05L22.5,6.05L22.5,5.95L22.69357503616706,5.95L23.336432179024204,5.307142857142857L23.550717893309915,5.307142857142857L23.76500360759563,5.0928571428571425L24.407860750452773,5.0928571428571425L24.62214646473849,4.878571428571429L24.836432179024204,4.878571428571429L25.050717893309915,4.664285714285715L25.26500360759563,4.664285714285715z" stroke="none"/><path d="M20.96464466094067,10.535355339059327L21.03535533905933,10.464644660940673L21.23499639240437,10.664285714285715L21.44928210669008,10.664285714285715L21.663567820975796,10.878571428571426L21.87785353526151,10.878571428571426L22.73499639240437,11.735714285714284L23.37785353526151,11.735714285714284L23.592139249547223,11.95L24,11.95L24,12.05L23.550717893309915,12.05L23.336432179024204,11.835714285714285L22.69357503616706,11.835714285714285L21.836432179024204,10.978571428571428L21.62214646473849,10.978571428571428L21.407860750452773,10.764285714285716L21.19357503616706,10.764285714285716z" stroke="none"/><path d="M4.464644660940673,6.035355339059327L4.535355339059327,5.964644660940673L4.949282106690084,6.378571428571428L6.407860750452773,6.378571428571428L6.5928571428571425,6.19357503616706L6.5928571428571425,5.765003607595631L7.021428571428571,5.336432179024202L7.021428571428571,5.122146464738488L7.45,4.69357503616706L7.45,4.5L7.55,4.5L7.55,4.734996392404369L7.121428571428571,5.163567820975797L7.121428571428571,5.3778535352615116L6.692857142857142,5.80642496383294L6.692857142857142,6.234996392404369L6.449282106690083,6.478571428571428L4.907860750452774,6.478571428571428z" stroke="none"/><path d="M16.5,8.95L16.5,9.05L16.092139249547223,9.05L15.877853535261512,9.264285714285716L15.663567820975796,9.264285714285716L15.020710678118654,9.907142857142858L14.806424963832939,9.907142857142858L14.62142857142857,10.092139249547223L14.62142857142857,11.122146464738488L14.835714285714285,11.336432179024204L14.835714285714285,11.76500360759563L15.035355339059327,11.964644660940673L14.964644660940673,12.035355339059327L14.735714285714284,11.806424963832939L14.735714285714284,11.377853535261512L14.521428571428569,11.163567820975796L14.521428571428569,10.050717893309915L14.76500360759563,9.807142857142857L14.979289321881346,9.807142857142857L15.622146464738488,9.164285714285715L15.836432179024204,9.164285714285715L16.050717893309915,8.95z" stroke="none"/><path d="M3.0353553390593273,5.964644660940673L2.9646446609406727,6.035355339059327L2.7357142857142858,5.80642496383294L2.7357142857142858,5.163567820975797L2.521428571428572,4.949282106690084L2.521428571428572,4.050717893309916L2.765003607595631,3.8071428571428574L3.877853535261512,3.8071428571428574L4.092139249547226,4.021428571428571L5.163567820975797,4.021428571428571L5.3778535352615116,4.235714285714286L5.592139249547226,4.235714285714286L5.80642496383294,4.45L6,4.45L6,4.55L5.765003607595631,4.55L5.550717893309916,4.335714285714285L5.336432179024202,4.335714285714285L5.122146464738488,4.121428571428571L4.050717893309916,4.121428571428571L3.8364321790242024,3.907142857142857L2.8064249638329404,3.907142857142857L2.6214285714285714,4.092139249547226L2.6214285714285714,4.907860750452774L2.8357142857142854,5.122146464738488L2.8357142857142854,5.765003607595631z" stroke="none"/><path d="M14.95,7.5L15.05,7.5L15.05,7.734996392404369L14.835714285714285,7.949282106690083L14.835714285714285,8.163567820975796L14.62142857142857,8.377853535261512L14.62142857142857,9.663567820975796L14.407142857142858,9.877853535261512L14.407142857142858,12.193575036167061L14.592139249547223,12.378571428571426L15.407860750452773,12.378571428571426L15.592857142857142,12.193575036167061L15.592857142857142,11.76500360759563L16.235714285714284,11.122146464738488L16.235714285714284,10.907860750452773L16.45,10.693575036167061L16.45,10.5L16.55,10.5L16.55,10.73499639240437L16.335714285714285,10.949282106690081L16.335714285714285,11.163567820975796L15.692857142857143,11.806424963832939L15.692857142857143,12.23499639240437L15.449282106690081,12.478571428571428L14.550717893309915,12.478571428571428L14.307142857142857,12.23499639240437L14.307142857142857,9.836432179024204L14.521428571428569,9.622146464738488L14.521428571428569,8.336432179024204L14.735714285714284,8.122146464738488L14.735714285714284,7.907860750452773L14.95,7.69357503616706z" stroke="none"/><path d="M24.03535533905933,4.464644660940673L23.96464466094067,4.535355339059327L22.907860750452773,3.478571428571428L22.26500360759563,3.478571428571428L21.836432179024204,3.05L21,3.05L21,2.95L21.87785353526151,2.95L22.30642496383294,3.3785714285714286L22.94928210669008,3.3785714285714286z" stroke="none"/><path d="M24,10.55L24,10.45L24.836432179024204,10.45L25.050717893309915,10.235714285714284L25.26500360759563,10.235714285714284L25.69357503616706,9.807142857142857L25.907860750452773,9.807142857142857L26.307142857142857,9.407860750452773L26.307142857142857,7.734996392404369L26.09285714285714,7.520710678118655L26.09285714285714,7.30642496383294L25.907860750452773,7.121428571428571L25.479289321881346,7.121428571428571L24.836432179024204,6.478571428571428L24.62214646473849,6.478571428571428L24.19357503616706,6.05L24,6.05L24,5.95L24.23499639240437,5.95L24.663567820975796,6.378571428571428L24.87785353526151,6.378571428571428L25.520710678118654,7.021428571428571L25.94928210669008,7.021428571428571L26.192857142857143,7.265003607595631L26.192857142857143,7.479289321881345L26.40714285714286,7.69357503616706L26.40714285714286,9.449282106690081L25.94928210669008,9.907142857142858L25.73499639240437,9.907142857142858L25.30642496383294,10.335714285714285L25.092139249547223,10.335714285714285L24.87785353526151,10.55z" stroke="none"/><path d="M9,11.95L9,12.05L8.550717893309915,12.05L8.122146464738488,11.62142857142857L7.907860750452773,11.62142857142857L7.69357503616706,11.407142857142858L4.479289321881345,11.407142857142858L4.265003607595631,11.192857142857143L4.050717893309916,11.192857142857143L3.622146464738488,10.764285714285716L3.1935750361670596,10.764285714285716L2.9646446609406727,10.535355339059327L3.0353553390593273,10.464644660940673L3.234996392404369,10.664285714285715L3.6635678209757976,10.664285714285715L4.092139249547226,11.092857142857142L4.30642496383294,11.092857142857142L4.520710678118655,11.307142857142857L7.734996392404369,11.307142857142857L7.949282106690083,11.521428571428569L8.163567820975796,11.521428571428569L8.592139249547223,11.95z" stroke="none"/><path d="M6,12.05L6,11.95L7.734996392404369,11.95L7.949282106690083,12.164285714285715L8.377853535261512,12.164285714285715L8.592139249547223,12.378571428571426L9.407860750452773,12.378571428571426L9.592857142857142,12.193575036167061L9.592857142857142,9.622146464738488L9.807142857142857,9.407860750452773L9.807142857142857,8.550717893309915L10.021428571428569,8.336432179024204L10.021428571428569,8.122146464738488L10.235714285714284,7.907860750452773L10.235714285714284,7.69357503616706L10.464644660940673,7.464644660940673L10.535355339059327,7.535355339059327L10.335714285714285,7.734996392404369L10.335714285714285,7.949282106690083L10.12142857142857,8.163567820975796L10.12142857142857,8.377853535261512L9.907142857142858,8.592139249547223L9.907142857142858,9.449282106690081L9.692857142857143,9.663567820975796L9.692857142857143,12.23499639240437L9.449282106690081,12.478571428571428L8.550717893309915,12.478571428571428L8.336432179024204,12.264285714285716L7.907860750452773,12.264285714285716L7.69357503616706,12.05z" stroke="none"/><path d="M4.5,2.95L4.5,3.05L3.6635678209757976,3.05L3.020710678118655,3.6928571428571426L2.5921392495472264,3.6928571428571426L2.407142857142857,3.877853535261512L2.407142857142857,7.479289321881345L2.6214285714285714,7.69357503616706L2.6214285714285714,7.907860750452773L3.020710678118655,8.307142857142857L3.234996392404369,8.307142857142857L3.907142857142857,8.979289321881346L3.907142857142857,9.193575036167061L4.092139249547226,9.378571428571426L4.907860750452774,9.378571428571426L5.336432179024202,8.95L6.19357503616706,8.95L6.836432179024202,8.307142857142857L7.265003607595631,8.307142857142857L7.907860750452773,7.664285714285715L8.550717893309915,7.664285714285715L8.76500360759563,7.45L9,7.45L9,7.55L8.806424963832939,7.55L8.592139249547223,7.764285714285714L7.949282106690083,7.764285714285714L7.30642496383294,8.407142857142858L6.8778535352615116,8.407142857142858L6.234996392404369,9.05L5.3778535352615116,9.05L4.949282106690084,9.478571428571428L4.050717893309916,9.478571428571428L3.8071428571428574,9.23499639240437L3.8071428571428574,9.020710678118654L3.1935750361670596,8.407142857142858L2.979289321881345,8.407142857142858L2.521428571428572,7.949282106690083L2.521428571428572,7.734996392404369L2.3071428571428574,7.520710678118655L2.3071428571428574,3.8364321790242024L2.550717893309917,3.592857142857143L2.979289321881345,3.592857142857143L3.622146464738488,2.95z" stroke="none"/><path d="M16.53535533905933,2.9646446609406727L16.46464466094067,3.0353553390593273L16.26500360759563,2.8357142857142854L15.836432179024204,2.8357142857142854L15.622146464738488,2.6214285714285714L11.550717893309915,2.6214285714285714L11.336432179024204,2.407142857142857L9.877853535261512,2.407142857142857L9.23499639240437,3.05L9,3.05L9,2.95L9.193575036167061,2.95L9.836432179024204,2.3071428571428574L11.377853535261512,2.3071428571428574L11.592139249547223,2.521428571428572L15.663567820975796,2.521428571428572L15.877853535261512,2.7357142857142858L16.30642496383294,2.7357142857142858z" stroke="none"/><path d="M25.46464466094067,6.035355339059327L25.53535533905933,5.964644660940673L25.764285714285716,6.19357503616706L25.764285714285716,6.407860750452773L26.40714285714286,7.050717893309916L26.40714285714286,7.265003607595631L26.62142857142857,7.479289321881345L26.62142857142857,9.663567820975796L25.94928210669008,10.335714285714285L25.73499639240437,10.335714285714285L25.092139249547223,10.978571428571428L23.550717893309915,10.978571428571428L23.307142857142857,10.73499639240437L23.307142857142857,10.520710678118654L22.907860750452773,10.12142857142857L20.163567820975796,10.12142857142857L19.73499639240437,10.55L19.5,10.55L19.5,10.45L19.69357503616706,10.45L20.12214646473849,10.021428571428569L22.94928210669008,10.021428571428569L23.40714285714286,10.479289321881346L23.40714285714286,10.693575036167061L23.592139249547223,10.878571428571426L25.050717893309915,10.878571428571426L25.69357503616706,10.235714285714284L25.907860750452773,10.235714285714284L26.52142857142857,9.622146464738488L26.52142857142857,7.520710678118655L26.307142857142857,7.30642496383294L26.307142857142857,7.092139249547226L25.664285714285715,6.449282106690083L25.664285714285715,6.234996392404369z" stroke="none"/><path d="M19.5,11.95L19.5,12.05L17.592139249547227,12.05L17.37785353526151,12.264285714285716L16.94928210669008,12.264285714285716L16.73499639240437,12.478571428571428L16.092139249547223,12.478571428571428L15.877853535261512,12.692857142857143L14.336432179024204,12.692857142857143L12.407860750452773,10.764285714285716L12.193575036167061,10.764285714285716L11.964644660940673,10.535355339059327L12.035355339059327,10.464644660940673L12.23499639240437,10.664285714285715L12.449282106690081,10.664285714285715L14.377853535261512,12.592857142857142L15.836432179024204,12.592857142857142L16.050717893309915,12.378571428571426L16.69357503616706,12.378571428571426L16.907860750452773,12.164285714285715L17.336432179024204,12.164285714285715L17.55071789330992,11.95z" stroke="none"/><path d="M12,7.45L12,7.55L11.336432179024204,7.55L10.907860750452773,7.121428571428571L10.092139249547223,7.121428571428571L9.692857142857143,7.520710678118655L9.692857142857143,7.734996392404369L8.377853535261512,9.05L8.163567820975796,9.05L7.949282106690083,9.264285714285716L5.592139249547226,9.264285714285716L5.163567820975797,9.692857142857143L3.8364321790242024,9.692857142857143L3.4078607504527736,9.264285714285716L3.1935750361670596,9.264285714285716L2.9646446609406727,9.035355339059327L3.0353553390593273,8.964644660940673L3.234996392404369,9.164285714285715L3.449282106690083,9.164285714285715L3.877853535261512,9.592857142857142L5.122146464738488,9.592857142857142L5.550717893309916,9.164285714285715L7.907860750452773,9.164285714285715L8.122146464738488,8.95L8.336432179024204,8.95L9.592857142857142,7.69357503616706L9.592857142857142,7.479289321881345L10.050717893309915,7.021428571428571L10.949282106690081,7.021428571428571L11.377853535261512,7.45z" stroke="none"/><path d="M21,8.95L21,9.05L20.37785353526151,9.05L19.520710678118654,9.907142857142858L19.30642496383294,9.907142857142858L19.121428571428574,10.092139249547223L19.121428571428574,10.907860750452773L19.30642496383294,11.092857142857142L19.520710678118654,11.092857142857142L19.978571428571428,11.550717893309915L19.978571428571428,12.449282106690081L19.73499639240437,12.692857142857143L16.520710678118654,12.692857142857143L16.30642496383294,12.907142857142858L14.122146464738488,12.907142857142858L13.479289321881346,12.264285714285716L13.050717893309915,12.264285714285716L12.836432179024204,12.05L12.622146464738488,12.05L11.76500360759563,11.192857142857143L11.550717893309915,11.192857142857143L11.336432179024204,10.978571428571428L11.122146464738488,10.978571428571428L10.907860750452773,10.764285714285716L10.693575036167061,10.764285714285716L10.464644660940673,10.535355339059327L10.535355339059327,10.464644660940673L10.73499639240437,10.664285714285715L10.949282106690081,10.664285714285715L11.163567820975796,10.878571428571426L11.377853535261512,10.878571428571426L11.592139249547223,11.092857142857142L11.806424963832939,11.092857142857142L12.663567820975796,11.95L12.877853535261512,11.95L13.092139249547223,12.164285714285715L13.520710678118654,12.164285714285715L14.163567820975796,12.807142857142857L16.26500360759563,12.807142857142857L16.479289321881346,12.592857142857142L19.69357503616706,12.592857142857142L19.878571428571426,12.407860750452773L19.878571428571426,11.592139249547223L19.479289321881346,11.192857142857143L19.26500360759563,11.192857142857143L19.021428571428572,10.949282106690081L19.021428571428572,10.050717893309915L19.26500360759563,9.807142857142857L19.479289321881346,9.807142857142857L20.336432179024204,8.95z" stroke="none"/><path d="M7.535355339059327,6.035355339059327L7.464644660940673,5.964644660940673L7.878571428571428,5.550717893309916L7.878571428571428,5.122146464738488L8.092857142857142,4.907860750452774L8.092857142857142,4.479289321881345L8.521428571428569,4.050717893309916L8.521428571428569,2.550717893309917L8.76500360759563,2.3071428571428574L9.407860750452773,2.3071428571428574L9.622146464738488,2.092857142857143L16.73499639240437,2.092857142857143L16.94928210669008,2.3071428571428574L17.163567820975796,2.3071428571428574L17.80642496383294,2.95L18.44928210669008,2.95L18.87785353526151,3.3785714285714286L19.30642496383294,3.3785714285714286L19.520710678118654,3.592857142857143L20.592139249547227,3.592857142857143L20.80642496383294,3.8071428571428574L21.23499639240437,3.8071428571428574L21.478571428571428,4.050717893309916L21.478571428571428,4.949282106690084L21.23499639240437,5.192857142857142L20.55071789330992,5.192857142857142L20.336432179024204,4.978571428571429L20.12214646473849,4.978571428571429L19.69357503616706,4.55L19.5,4.55L19.5,4.45L19.73499639240437,4.45L20.163567820975796,4.878571428571429L20.37785353526151,4.878571428571429L20.592139249547227,5.0928571428571425L21.19357503616706,5.0928571428571425L21.378571428571426,4.907860750452774L21.378571428571426,4.092139249547226L21.19357503616706,3.907142857142857L20.76500360759563,3.907142857142857L20.55071789330992,3.6928571428571426L19.479289321881346,3.6928571428571426L19.26500360759563,3.478571428571428L18.836432179024204,3.478571428571428L18.407860750452773,3.05L17.76500360759563,3.05L17.12214646473849,2.407142857142857L16.907860750452773,2.407142857142857L16.69357503616706,2.1928571428571426L9.663567820975796,2.1928571428571426L9.449282106690081,2.407142857142857L8.806424963832939,2.407142857142857L8.62142857142857,2.5921392495472264L8.62142857142857,4.092139249547226L8.192857142857143,4.520710678118655L8.192857142857143,4.949282106690084L7.978571428571428,5.163567820975797L7.978571428571428,5.592139249547226z" stroke="none"/><path d="M22.46464466094067,10.535355339059327L22.53535533905933,10.464644660940673L23.37785353526151,11.307142857142857L24.23499639240437,11.307142857142857L24.478571428571428,11.550717893309915L24.478571428571428,12.449282106690081L24.23499639240437,12.692857142857143L20.80642496383294,12.692857142857143L20.592139249547227,12.907142857142858L17.163567820975796,12.907142857142858L16.94928210669008,13.12142857142857L11.76500360759563,13.12142857142857L10.693575036167061,12.05L10.5,12.05L10.5,11.95L10.73499639240437,11.95L11.806424963832939,13.021428571428569L16.907860750452773,13.021428571428569L17.12214646473849,12.807142857142857L20.55071789330992,12.807142857142857L20.76500360759563,12.592857142857142L24.19357503616706,12.592857142857142L24.378571428571426,12.407860750452773L24.378571428571426,11.592139249547223L24.19357503616706,11.407142857142858L23.336432179024204,11.407142857142858z" stroke="none"/><path d="M3,12.05L3,11.95L4.30642496383294,11.95L4.520710678118655,12.164285714285715L4.949282106690084,12.164285714285715L5.163567820975797,12.378571428571426L7.520710678118655,12.378571428571426L7.734996392404369,12.592857142857142L9.622146464738488,12.592857142857142L9.807142857142857,12.407860750452773L9.807142857142857,10.26500360759563L11.122146464738488,8.95L11.550717893309915,8.95L11.76500360759563,8.735714285714284L11.979289321881346,8.735714285714284L12.193575036167061,8.521428571428569L12.407860750452773,8.521428571428569L12.622146464738488,8.307142857142857L13.050717893309915,8.307142857142857L13.26500360759563,8.092857142857142L13.479289321881346,8.092857142857142L14.550717893309915,7.021428571428571L15.449282106690081,7.021428571428571L15.692857142857143,7.265003607595631L15.692857142857143,8.163567820975796L15.264285714285716,8.592139249547223L15.264285714285716,8.806424963832939L15.035355339059327,9.035355339059327L14.964644660940673,8.964644660940673L15.164285714285715,8.76500360759563L15.164285714285715,8.550717893309915L15.592857142857142,8.122146464738488L15.592857142857142,7.30642496383294L15.407860750452773,7.121428571428571L14.592139249547223,7.121428571428571L13.520710678118654,8.192857142857143L13.306424963832939,8.192857142857143L13.092139249547223,8.407142857142858L12.663567820975796,8.407142857142858L12.449282106690081,8.62142857142857L12.23499639240437,8.62142857142857L12.020710678118654,8.835714285714285L11.806424963832939,8.835714285714285L11.592139249547223,9.05L11.163567820975796,9.05L9.907142857142858,10.306424963832939L9.907142857142858,12.449282106690081L9.663567820975796,12.692857142857143L7.69357503616706,12.692857142857143L7.479289321881345,12.478571428571428L5.122146464738488,12.478571428571428L4.907860750452774,12.264285714285716L4.479289321881345,12.264285714285716L4.265003607595631,12.05z" stroke="none"/><path d="M19.5,6.05L19.5,5.95L20.76500360759563,5.95L21.59285714285714,5.122146464738488L21.59285714285714,3.877853535261512L21.407860750452773,3.6928571428571426L20.979289321881346,3.6928571428571426L20.76500360759563,3.478571428571428L19.907860750452773,3.478571428571428L19.69357503616706,3.2642857142857142L19.26500360759563,3.2642857142857142L19.05071789330992,3.05L18.836432179024204,3.05L18.62214646473849,2.8357142857142854L18.407860750452773,2.8357142857142854L17.55071789330992,1.9785714285714286L5.80642496383294,1.9785714285714286L5.592139249547226,2.1928571428571426L5.163567820975797,2.1928571428571426L4.734996392404369,2.6214285714285714L4.092139249547226,2.6214285714285714L3.877853535261512,2.8357142857142854L3.449282106690083,2.8357142857142854L3.020710678118655,3.2642857142857142L2.8064249638329404,3.2642857142857142L2.5921392495472264,3.478571428571428L2.377853535261512,3.478571428571428L2.1928571428571426,3.6635678209757976L2.1928571428571426,8.979289321881346L2.5921392495472264,9.378571428571426L3.020710678118655,9.378571428571426L3.449282106690083,9.807142857142857L6.020710678118655,9.807142857142857L6.234996392404369,10.021428571428569L6.8778535352615116,10.021428571428569L7.092139249547226,10.235714285714284L7.30642496383294,10.235714285714284L7.535355339059327,10.464644660940673L7.464644660940673,10.535355339059327L7.265003607595631,10.335714285714285L7.050717893309916,10.335714285714285L6.836432179024202,10.12142857142857L6.19357503616706,10.12142857142857L5.979289321881345,9.907142857142858L3.4078607504527736,9.907142857142858L2.979289321881345,9.478571428571428L2.550717893309917,9.478571428571428L2.092857142857143,9.020710678118654L2.092857142857143,3.622146464738488L2.3364321790242024,3.3785714285714286L2.550717893309917,3.3785714285714286L2.765003607595631,3.1642857142857146L2.979289321881345,3.1642857142857146L3.4078607504527736,2.7357142857142858L3.8364321790242024,2.7357142857142858L4.050717893309916,2.521428571428572L4.69357503616706,2.521428571428572L5.122146464738488,2.092857142857143L5.550717893309916,2.092857142857143L5.765003607595631,1.8785714285714286L17.592139249547227,1.8785714285714286L18.44928210669008,2.7357142857142858L18.663567820975796,2.7357142857142858L18.87785353526151,2.95L19.092139249547227,2.95L19.30642496383294,3.1642857142857146L19.73499639240437,3.1642857142857146L19.94928210669008,3.3785714285714286L20.80642496383294,3.3785714285714286L21.020710678118654,3.592857142857143L21.44928210669008,3.592857142857143L21.692857142857143,3.8364321790242024L21.692857142857143,5.163567820975797L20.80642496383294,6.05z" stroke="none"/></svg>