<svg version="1.1" width="30" height="15" xmlns="http://www.w3.org/2000/svg"><path d="M10.45,8.092857142857142L10.45,7.5L10.55,7.5L10.55,8.122146464738488L11.62142857142857,9.193575036167061L11.62142857142857,9.407860750452773L12.23499639240437,10.021428571428569L12.449282106690081,10.021428571428569L12.663567820975796,10.235714285714284L13.092139249547223,10.235714285714284L13.306424963832939,10.45L13.5,10.45L13.5,10.55L13.26500360759563,10.55L13.050717893309915,10.335714285714285L12.622146464738488,10.335714285714285L12.407860750452773,10.12142857142857L12.193575036167061,10.12142857142857L11.521428571428569,9.449282106690081L11.521428571428569,9.23499639240437L10.479289321881346,8.192857142857143L10.26500360759563,8.192857142857143L9.807142857142857,7.734996392404369L9.807142857142857,7.520710678118655L9.407860750452773,7.121428571428571L9.193575036167061,7.121428571428571L8.979289321881346,6.907142857142857L8.550717893309915,6.907142857142857L7.69357503616706,6.05L7.5,6.05L7.5,5.95L7.734996392404369,5.95L8.592139249547223,6.807142857142857L9.020710678118654,6.807142857142857L9.23499639240437,7.021428571428571L9.449282106690081,7.021428571428571L9.907142857142858,7.479289321881345L9.907142857142858,7.69357503616706L10.306424963832939,8.092857142857142z" stroke="none"/><path d="M17.09285714285714,4.30642496383294L16.69357503616706,3.907142857142857L16.479289321881346,3.907142857142857L16.26500360759563,3.6928571428571426L14.336432179024204,3.6928571428571426L14.122146464738488,3.478571428571428L13.050717893309915,3.478571428571428L12.622146464738488,3.05L12,3.05L12,2.95L12.663567820975796,2.95L13.092139249547223,3.3785714285714286L14.163567820975796,3.3785714285714286L14.377853535261512,3.592857142857143L16.30642496383294,3.592857142857143L16.520710678118654,3.8071428571428574L16.73499639240437,3.8071428571428574L17.192857142857143,4.265003607595631L17.192857142857143,4.45L20.163567820975796,4.45L20.592139249547227,4.878571428571429L21.62214646473849,4.878571428571429L21.836432179024204,4.664285714285715L22.26500360759563,4.664285714285715L22.46464466094067,4.464644660940673L22.53535533905933,4.535355339059327L22.30642496383294,4.764285714285714L21.87785353526151,4.764285714285714L21.663567820975796,4.978571428571429L20.55071789330992,4.978571428571429L20.12214646473849,4.55L17.192857142857143,4.55L17.192857142857143,4.949282106690084L16.978571428571428,5.163567820975797L16.978571428571428,5.3778535352615116L16.55,5.80642496383294L16.55,6L16.45,6L16.45,5.765003607595631L16.878571428571426,5.336432179024202L16.878571428571426,5.122146464738488L17.09285714285714,4.907860750452774z" stroke="none"/><path d="M10.479289321881346,3.3785714285714286L11.122146464738488,2.7357142857142858L11.336432179024204,2.7357142857142858L11.550717893309915,2.521428571428572L15.877853535261512,2.521428571428572L16.30642496383294,2.95L16.5,2.95L16.5,3.05L16.26500360759563,3.05L15.836432179024204,2.6214285714285714L11.592139249547223,2.6214285714285714L11.377853535261512,2.8357142857142854L11.163567820975796,2.8357142857142854L10.55,3.449282106690083L10.55,3.6635678209757976L10.306424963832939,3.907142857142857L9.877853535261512,3.907142857142857L9.23499639240437,4.55L7.5,4.55L7.5,4.45L9.193575036167061,4.45L9.836432179024204,3.8071428571428574L10.26500360759563,3.8071428571428574L10.45,3.622146464738488L10.45,3.478571428571428L9.193575036167061,3.478571428571428L8.76500360759563,3.05L7.5,3.05L7.5,2.95L8.806424963832939,2.95L9.23499639240437,3.3785714285714286z" stroke="none"/><path d="M11.092857142857142,9.592857142857142L11.092857142857142,9.449282106690081L10.907860750452773,9.264285714285716L10.73499639240437,9.264285714285716L9.663567820975796,10.335714285714285L9.449282106690081,10.335714285714285L9.020710678118654,10.764285714285716L8.806424963832939,10.764285714285716L8.592139249547223,10.978571428571428L8.377853535261512,10.978571428571428L8.163567820975796,11.192857142857143L7.949282106690083,11.192857142857143L7.734996392404369,11.407142857142858L7.30642496383294,11.407142857142858L7.092139249547226,11.62142857142857L6.663567820975797,11.62142857142857L6.234996392404369,12.05L6,12.05L6,11.95L6.19357503616706,11.95L6.622146464738488,11.521428571428569L7.050717893309916,11.521428571428569L7.265003607595631,11.307142857142857L7.69357503616706,11.307142857142857L7.907860750452773,11.092857142857142L8.122146464738488,11.092857142857142L8.336432179024204,10.878571428571426L8.550717893309915,10.878571428571426L8.76500360759563,10.664285714285715L8.979289321881346,10.664285714285715L9.407860750452773,10.235714285714284L9.622146464738488,10.235714285714284L10.693575036167061,9.164285714285715L10.949282106690081,9.164285714285715L11.192857142857143,9.407860750452773L11.192857142857143,9.622146464738488L11.806424963832939,10.235714285714284L12.020710678118654,10.235714285714284L12.23499639240437,10.45L12.449282106690081,10.45L12.663567820975796,10.664285714285715L12.877853535261512,10.664285714285715L13.092139249547223,10.878571428571426L13.907860750452773,10.878571428571426L14.092857142857142,10.693575036167061L14.092857142857142,10.520710678118654L13.878571428571426,10.306424963832939L13.878571428571426,10.092139249547223L13.693575036167061,9.907142857142858L13.26500360759563,9.907142857142858L12.622146464738488,9.264285714285716L12.407860750452773,9.264285714285716L12.193575036167061,9.05L12,9.05L12,8.95L12.23499639240437,8.95L12.449282106690081,9.164285714285715L12.663567820975796,9.164285714285715L13.306424963832939,9.807142857142857L13.73499639240437,9.807142857142857L13.978571428571428,10.050717893309915L13.978571428571428,10.26500360759563L14.192857142857143,10.479289321881346L14.192857142857143,10.73499639240437L13.949282106690081,10.978571428571428L13.050717893309915,10.978571428571428L12.836432179024204,10.764285714285716L12.622146464738488,10.764285714285716L12.407860750452773,10.55L12.193575036167061,10.55L11.979289321881346,10.335714285714285L11.76500360759563,10.335714285714285L11.192857142857143,9.763567820975798L11.192857142857143,10.050717893309915L12.23499639240437,11.092857142857142L14.122146464738488,11.092857142857142L14.307142857142857,10.907860750452773L14.307142857142857,9.020710678118654L13.693575036167061,8.407142857142858L13.479289321881346,8.407142857142858L13.26500360759563,8.192857142857143L12.836432179024204,8.192857142857143L12.193575036167061,7.55L12,7.55L12,7.45L12.23499639240437,7.45L12.877853535261512,8.092857142857142L13.306424963832939,8.092857142857142L13.520710678118654,8.307142857142857L13.73499639240437,8.307142857142857L14.407142857142858,8.979289321881346L14.407142857142858,10.949282106690081L14.163567820975796,11.192857142857143L12.193575036167061,11.192857142857143L11.092857142857142,10.092139249547223L11.092857142857142,9.692857142857143L10.949282106690081,9.692857142857143L10.764285714285716,9.877853535261512L10.764285714285716,10.050717893309915L12.020710678118654,11.307142857142857L14.336432179024204,11.307142857142857L14.95,10.693575036167061L14.95,10.5L15.05,10.5L15.05,10.73499639240437L14.377853535261512,11.407142857142858L11.979289321881346,11.407142857142858L10.664285714285715,10.092139249547223L10.664285714285715,9.836432179024204L10.907860750452773,9.592857142857142z" stroke="none"/><path d="M7.520710678118655,6.5928571428571425L7.734996392404369,6.807142857142857L7.949282106690083,6.807142857142857L8.377853535261512,7.235714285714286L8.592139249547223,7.235714285714286L8.806424963832939,7.45L9,7.45L9,7.55L8.76500360759563,7.55L8.550717893309915,7.335714285714285L8.336432179024204,7.335714285714285L7.907860750452773,6.907142857142857L7.69357503616706,6.907142857142857L7.55,6.763567820975797L7.55,7.092139249547226L7.30642496383294,7.335714285714285L6.8778535352615116,7.335714285714285L6.449282106690083,7.764285714285714L4.092139249547226,7.764285714285714L3.877853535261512,7.978571428571428L2.979289321881345,7.978571428571428L2.7357142857142858,7.734996392404369L2.7357142857142858,7.265003607595631L4.664285714285715,5.336432179024202L4.664285714285715,4.907860750452774L7.050717893309916,2.521428571428572L9.407860750452773,2.521428571428572L9.622146464738488,2.3071428571428574L16.73499639240437,2.3071428571428574L16.978571428571428,2.550717893309917L16.978571428571428,2.765003607595631L17.192857142857143,2.979289321881345L17.192857142857143,3.234996392404369L16.94928210669008,3.478571428571428L14.76500360759563,3.478571428571428L14.550717893309915,3.2642857142857142L13.693575036167061,3.2642857142857142L13.464644660940673,3.0353553390593273L13.535355339059327,2.9646446609406727L13.73499639240437,3.1642857142857146L14.592139249547223,3.1642857142857146L14.806424963832939,3.3785714285714286L16.907860750452773,3.3785714285714286L17.09285714285714,3.1935750361670596L17.09285714285714,3.020710678118655L16.878571428571426,2.8064249638329404L16.878571428571426,2.5921392495472264L16.69357503616706,2.407142857142857L9.663567820975796,2.407142857142857L9.449282106690081,2.6214285714285714L7.092139249547226,2.6214285714285714L4.764285714285714,4.949282106690084L4.764285714285714,5.3778535352615116L2.8357142857142854,7.30642496383294L2.8357142857142854,7.69357503616706L3.020710678118655,7.878571428571428L3.8364321790242024,7.878571428571428L4.050717893309916,7.664285714285715L6.407860750452773,7.664285714285715L6.836432179024202,7.235714285714286L7.265003607595631,7.235714285714286L7.45,7.050717893309916L7.45,6.763567820975797L7.30642496383294,6.907142857142857L6.8778535352615116,6.907142857142857L6.663567820975797,7.121428571428571L6.449282106690083,7.121428571428571L6.234996392404369,7.335714285714285L5.163567820975797,7.335714285714285L4.949282106690084,7.55L4.5,7.55L4.5,7.45L4.907860750452774,7.45L5.122146464738488,7.235714285714286L6.19357503616706,7.235714285714286L6.407860750452773,7.021428571428571L6.622146464738488,7.021428571428571L6.836432179024202,6.807142857142857L7.265003607595631,6.807142857142857L7.379289321881346,6.692857142857142L6.234996392404369,6.692857142857142L5.80642496383294,7.121428571428571L4.734996392404369,7.121428571428571L4.520710678118655,7.335714285714285L3.449282106690083,7.335714285714285L3.234996392404369,7.55L3,7.55L3,7.45L3.1935750361670596,7.45L3.4078607504527736,7.235714285714286L4.479289321881345,7.235714285714286L4.69357503616706,7.021428571428571L5.765003607595631,7.021428571428571L6.19357503616706,6.5928571428571425z" stroke="none"/><path d="M19.664285714285715,5.95L19.664285714285715,5.765003607595631L19.907860750452773,5.521428571428571L22.26500360759563,5.521428571428571L22.878571428571426,4.907860750452774L22.878571428571426,4.092139249547226L22.69357503616706,3.907142857142857L20.55071789330992,3.907142857142857L19.907860750452773,3.2642857142857142L19.69357503616706,3.2642857142857142L19.46464466094067,3.0353553390593273L19.53535533905933,2.9646446609406727L19.73499639240437,3.1642857142857146L19.94928210669008,3.1642857142857146L20.592139249547227,3.8071428571428574L22.73499639240437,3.8071428571428574L22.978571428571428,4.050717893309916L22.978571428571428,4.949282106690084L22.30642496383294,5.621428571428571L19.94928210669008,5.621428571428571L19.764285714285716,5.80642496383294L19.764285714285716,5.95L22.5,5.95L22.5,6.05L19.764285714285716,6.05L19.764285714285716,6.19357503616706L19.94928210669008,6.378571428571428L20.163567820975796,6.378571428571428L20.592139249547227,6.807142857142857L21.44928210669008,6.807142857142857L21.663567820975796,7.021428571428571L21.87785353526151,7.021428571428571L22.092139249547227,7.235714285714286L22.30642496383294,7.235714285714286L22.53535533905933,7.464644660940673L22.46464466094067,7.535355339059327L22.26500360759563,7.335714285714285L22.05071789330992,7.335714285714285L21.836432179024204,7.121428571428571L21.62214646473849,7.121428571428571L21.407860750452773,6.907142857142857L20.55071789330992,6.907142857142857L20.12214646473849,6.478571428571428L19.907860750452773,6.478571428571428L19.664285714285715,6.234996392404369L19.664285714285715,6.05L18.663567820975796,6.05L18.44928210669008,6.264285714285714L18.23499639240437,6.264285714285714L17.80642496383294,6.692857142857142L16.520710678118654,6.692857142857142L16.092139249547223,7.121428571428571L15.877853535261512,7.121428571428571L15.663567820975796,7.335714285714285L15.449282106690081,7.335714285714285L15.23499639240437,7.55L15,7.55L15,7.45L15.193575036167061,7.45L15.407860750452773,7.235714285714286L15.622146464738488,7.235714285714286L15.836432179024204,7.021428571428571L16.050717893309915,7.021428571428571L16.479289321881346,6.5928571428571425L17.76500360759563,6.5928571428571425L18.19357503616706,6.164285714285715L18.407860750452773,6.164285714285715L18.62214646473849,5.95z" stroke="none"/><path d="M6.05,6L5.95,6L5.95,4.5L6.05,4.5z" stroke="none"/><path d="M18,12.05L18,11.95L18.44928210669008,11.95L18.87785353526151,12.378571428571426L20.12214646473849,12.378571428571426L20.336432179024204,12.164285714285715L20.55071789330992,12.164285714285715L20.76500360759563,11.95L21,11.95L21,12.05L20.80642496383294,12.05L20.592139249547227,12.264285714285716L20.37785353526151,12.264285714285716L20.163567820975796,12.478571428571428L18.836432179024204,12.478571428571428L18.407860750452773,12.05z" stroke="none"/><path d="M24.05,7.5L23.95,7.5L23.95,4.5L24.05,4.5z" stroke="none"/><path d="M2.95,3L3.05,3L3.05,6L2.95,6z" stroke="none"/><path d="M3,9.05L3,8.95L3.449282106690083,8.95L3.6635678209757976,9.164285714285715L3.877853535261512,9.164285714285715L4.520710678118655,9.807142857142857L5.163567820975797,9.807142857142857L5.3778535352615116,10.021428571428569L5.592139249547226,10.021428571428569L6.035355339059327,10.464644660940673L5.964644660940673,10.535355339059327L5.550717893309916,10.12142857142857L5.336432179024202,10.12142857142857L5.122146464738488,9.907142857142858L4.479289321881345,9.907142857142858L3.8364321790242024,9.264285714285716L3.622146464738488,9.264285714285716L3.4078607504527736,9.05z" stroke="none"/><path d="M3.05,10.5L2.95,10.5L2.95,9.877853535261512L2.521428571428572,9.449282106690081L2.521428571428572,8.550717893309915L2.765003607595631,8.307142857142857L4.949282106690084,8.307142857142857L5.3778535352615116,8.735714285714284L5.592139249547226,8.735714285714284L5.80642496383294,8.95L6,8.95L6,9.05L5.765003607595631,9.05L5.550717893309916,8.835714285714285L5.336432179024202,8.835714285714285L4.907860750452774,8.407142857142858L2.8064249638329404,8.407142857142858L2.6214285714285714,8.592139249547223L2.6214285714285714,9.407860750452773L3.05,9.836432179024204z" stroke="none"/><path d="M13.5,7.45L13.5,7.55L12.836432179024204,7.55L12.193575036167061,6.907142857142857L11.76500360759563,6.907142857142857L11.550717893309915,6.692857142857142L11.336432179024204,6.692857142857142L10.907860750452773,6.264285714285714L10.693575036167061,6.264285714285714L10.464644660940673,6.035355339059327L10.535355339059327,5.964644660940673L10.73499639240437,6.164285714285715L10.949282106690081,6.164285714285715L11.377853535261512,6.5928571428571425L11.592139249547223,6.5928571428571425L11.806424963832939,6.807142857142857L12.23499639240437,6.807142857142857L12.877853535261512,7.45z" stroke="none"/><path d="M7.464644660940673,11.964644660940673L7.535355339059327,12.035355339059327L7.30642496383294,12.264285714285716L6.663567820975797,12.264285714285716L6.449282106690083,12.478571428571428L3.8364321790242024,12.478571428571428L3.4078607504527736,12.05L3,12.05L3,11.95L3.449282106690083,11.95L3.877853535261512,12.378571428571426L6.407860750452773,12.378571428571426L6.622146464738488,12.164285714285715L7.265003607595631,12.164285714285715z" stroke="none"/><path d="M25.46464466094067,3.0353553390593273L25.53535533905933,2.9646446609406727L25.764285714285716,3.1935750361670596L25.764285714285716,3.622146464738488L25.978571428571428,3.8364321790242024L25.978571428571428,5.765003607595631L26.192857142857143,5.979289321881345L26.192857142857143,6.19357503616706L26.40714285714286,6.407860750452773L26.40714285714286,6.836432179024202L27.03535533905933,7.464644660940673L26.96464466094067,7.535355339059327L26.307142857142857,6.8778535352615116L26.307142857142857,6.449282106690083L26.09285714285714,6.234996392404369L26.09285714285714,6.020710678118655L25.878571428571426,5.80642496383294L25.878571428571426,3.877853535261512L25.664285714285715,3.6635678209757976L25.664285714285715,3.234996392404369z" stroke="none"/><path d="M10.464644660940673,4.464644660940673L10.535355339059327,4.535355339059327L10.335714285714285,4.734996392404369L10.335714285714285,5.3778535352615116L10.12142857142857,5.592139249547226L10.12142857142857,6.407860750452773L10.520710678118654,6.807142857142857L10.73499639240437,6.807142857142857L11.62142857142857,7.69357503616706L11.62142857142857,7.907860750452773L12.020710678118654,8.307142857142857L12.23499639240437,8.307142857142857L12.663567820975796,8.735714285714284L13.092139249547223,8.735714285714284L13.306424963832939,8.95L13.5,8.95L13.5,9.05L13.26500360759563,9.05L13.050717893309915,8.835714285714285L12.622146464738488,8.835714285714285L12.193575036167061,8.407142857142858L11.979289321881346,8.407142857142858L11.521428571428569,7.949282106690083L11.521428571428569,7.734996392404369L10.693575036167061,6.907142857142857L10.479289321881346,6.907142857142857L10.021428571428569,6.449282106690083L10.021428571428569,5.550717893309916L10.235714285714284,5.336432179024202L10.235714285714284,4.69357503616706z" stroke="none"/><path d="M10.5,11.95L10.5,12.05L9.877853535261512,12.05L9.23499639240437,12.692857142857143L2.765003607595631,12.692857142857143L2.3071428571428574,12.23499639240437L2.3071428571428574,11.76500360759563L2.550717893309917,11.521428571428569L3.6635678209757976,11.521428571428569L3.877853535261512,11.735714285714284L4.30642496383294,11.735714285714284L4.535355339059327,11.964644660940673L4.464644660940673,12.035355339059327L4.265003607595631,11.835714285714285L3.8364321790242024,11.835714285714285L3.622146464738488,11.62142857142857L2.5921392495472264,11.62142857142857L2.407142857142857,11.806424963832939L2.407142857142857,12.193575036167061L2.8064249638329404,12.592857142857142L9.193575036167061,12.592857142857142L9.836432179024204,11.95z" stroke="none"/><path d="M21,3.05L21,2.95L24.62214646473849,2.95L25.050717893309915,2.521428571428572L25.94928210669008,2.521428571428572L26.40714285714286,2.979289321881345L26.40714285714286,3.1935750361670596L26.62142857142857,3.4078607504527736L26.62142857142857,3.622146464738488L26.835714285714285,3.8364321790242024L26.835714285714285,4.050717893309916L27.05,4.265003607595631L27.05,4.5L26.95,4.5L26.95,4.30642496383294L26.735714285714284,4.092139249547226L26.735714285714284,3.877853535261512L26.52142857142857,3.6635678209757976L26.52142857142857,3.449282106690083L26.307142857142857,3.234996392404369L26.307142857142857,3.020710678118655L25.907860750452773,2.6214285714285714L25.092139249547223,2.6214285714285714L24.663567820975796,3.05z" stroke="none"/><path d="M27.03535533905933,2.9646446609406727L26.96464466094067,3.0353553390593273L26.76500360759563,2.8357142857142854L26.550717893309915,2.8357142857142854L26.12214646473849,2.407142857142857L19.30642496383294,2.407142857142857L19.121428571428574,2.5921392495472264L19.121428571428574,3.4078607504527736L19.94928210669008,4.235714285714286L20.80642496383294,4.235714285714286L21.03535533905933,4.464644660940673L20.96464466094067,4.535355339059327L20.76500360759563,4.335714285714285L19.907860750452773,4.335714285714285L19.021428571428572,3.449282106690083L19.021428571428572,2.550717893309917L19.26500360759563,2.3071428571428574L26.163567820975796,2.3071428571428574L26.592139249547223,2.7357142857142858L26.80642496383294,2.7357142857142858z" stroke="none"/><path d="M25.45,4.5L25.55,4.5L25.55,4.734996392404369L25.335714285714285,4.949282106690084L25.335714285714285,5.163567820975797L25.12142857142857,5.3778535352615116L25.12142857142857,7.30642496383294L24.44928210669008,7.978571428571428L22.520710678118654,7.978571428571428L22.30642496383294,8.192857142857143L22.092139249547227,8.192857142857143L21.44928210669008,8.835714285714285L21.23499639240437,8.835714285714285L21.03535533905933,9.035355339059327L20.96464466094067,8.964644660940673L21.19357503616706,8.735714285714284L21.407860750452773,8.735714285714284L22.05071789330992,8.092857142857142L22.26500360759563,8.092857142857142L22.479289321881346,7.878571428571428L24.407860750452773,7.878571428571428L25.02142857142857,7.265003607595631L25.02142857142857,5.336432179024202L25.235714285714284,5.122146464738488L25.235714285714284,4.907860750452774L25.45,4.69357503616706z" stroke="none"/><path d="M13.464644660940673,4.535355339059327L13.535355339059327,4.464644660940673L13.764285714285716,4.69357503616706L13.764285714285716,4.907860750452774L14.192857142857143,5.336432179024202L14.192857142857143,6.19357503616706L14.407142857142858,6.407860750452773L14.407142857142858,7.69357503616706L14.592139249547223,7.878571428571428L18.407860750452773,7.878571428571428L18.62214646473849,7.664285714285715L19.26500360759563,7.664285714285715L19.46464466094067,7.464644660940673L19.53535533905933,7.535355339059327L19.30642496383294,7.764285714285714L18.663567820975796,7.764285714285714L18.44928210669008,7.978571428571428L14.550717893309915,7.978571428571428L14.307142857142857,7.734996392404369L14.307142857142857,6.449282106690083L14.092857142857142,6.234996392404369L14.092857142857142,5.3778535352615116L13.664285714285715,4.949282106690084L13.664285714285715,4.734996392404369z" stroke="none"/><path d="M19.5,10.55L19.5,10.45L20.336432179024204,10.45L20.979289321881346,9.807142857142857L21.19357503616706,9.807142857142857L21.407860750452773,9.592857142857142L22.479289321881346,9.592857142857142L22.907860750452773,9.164285714285715L23.12214646473849,9.164285714285715L23.979289321881346,8.307142857142857L24.407860750452773,8.307142857142857L25.050717893309915,7.664285714285715L25.26500360759563,7.664285714285715L25.46464466094067,7.464644660940673L25.53535533905933,7.535355339059327L25.30642496383294,7.764285714285714L25.092139249547223,7.764285714285714L24.44928210669008,8.407142857142858L24.020710678118654,8.407142857142858L23.163567820975796,9.264285714285716L22.94928210669008,9.264285714285716L22.520710678118654,9.692857142857143L21.44928210669008,9.692857142857143L21.23499639240437,9.907142857142858L21.020710678118654,9.907142857142858L20.37785353526151,10.55z" stroke="none"/><path d="M27,11.95L27,12.05L25.69357503616706,12.05L25.479289321881346,11.835714285714285L24.62214646473849,11.835714285714285L24.407860750452773,11.62142857142857L20.592139249547227,11.62142857142857L20.37785353526151,11.835714285714285L19.73499639240437,11.835714285714285L19.53535533905933,12.035355339059327L19.46464466094067,11.964644660940673L19.69357503616706,11.735714285714284L20.336432179024204,11.735714285714284L20.55071789330992,11.521428571428569L24.44928210669008,11.521428571428569L24.663567820975796,11.735714285714284L25.520710678118654,11.735714285714284L25.73499639240437,11.95z" stroke="none"/><path d="M15,11.95L15,12.05L14.377853535261512,12.05L13.949282106690081,12.478571428571428L9.877853535261512,12.478571428571428L9.449282106690081,12.907142857142858L2.550717893309917,12.907142857142858L2.092857142857143,12.449282106690081L2.092857142857143,11.550717893309915L2.3364321790242024,11.307142857142857L5.979289321881345,11.307142857142857L6.407860750452773,10.878571428571426L6.622146464738488,10.878571428571426L6.836432179024202,10.664285714285715L7.265003607595631,10.664285714285715L7.464644660940673,10.464644660940673L7.535355339059327,10.535355339059327L7.30642496383294,10.764285714285716L6.8778535352615116,10.764285714285716L6.663567820975797,10.978571428571428L6.449282106690083,10.978571428571428L6.020710678118655,11.407142857142858L2.377853535261512,11.407142857142858L2.1928571428571426,11.592139249547223L2.1928571428571426,12.407860750452773L2.5921392495472264,12.807142857142857L9.407860750452773,12.807142857142857L9.836432179024204,12.378571428571426L13.907860750452773,12.378571428571426L14.336432179024204,11.95z" stroke="none"/><path d="M18,7.55L18,7.45L18.407860750452773,7.45L18.62214646473849,7.235714285714286L18.836432179024204,7.235714285714286L19.05071789330992,7.021428571428571L19.94928210669008,7.021428571428571L20.192857142857143,7.265003607595631L20.192857142857143,8.592139249547223L19.764285714285716,9.020710678118654L19.764285714285716,9.449282106690081L19.121428571428574,10.092139249547223L19.121428571428574,10.907860750452773L19.30642496383294,11.092857142857142L19.479289321881346,11.092857142857142L19.69357503616706,10.878571428571426L19.907860750452773,10.878571428571426L20.12214646473849,10.664285714285715L20.55071789330992,10.664285714285715L20.76500360759563,10.45L21.19357503616706,10.45L21.407860750452773,10.235714285714284L21.62214646473849,10.235714285714284L21.836432179024204,10.021428571428569L22.26500360759563,10.021428571428569L22.479289321881346,9.807142857142857L22.69357503616706,9.807142857142857L23.12214646473849,9.378571428571426L23.336432179024204,9.378571428571426L23.979289321881346,8.735714285714284L24.19357503616706,8.735714285714284L24.407860750452773,8.521428571428569L24.836432179024204,8.521428571428569L25.26500360759563,8.092857142857142L25.69357503616706,8.092857142857142L25.878571428571426,7.907860750452773L25.878571428571426,6.663567820975797L25.664285714285715,6.449282106690083L25.664285714285715,6.234996392404369L25.46464466094067,6.035355339059327L25.53535533905933,5.964644660940673L25.764285714285716,6.19357503616706L25.764285714285716,6.407860750452773L25.978571428571428,6.622146464738488L25.978571428571428,7.949282106690083L25.73499639240437,8.192857142857143L25.30642496383294,8.192857142857143L24.87785353526151,8.62142857142857L24.44928210669008,8.62142857142857L24.23499639240437,8.835714285714285L24.020710678118654,8.835714285714285L23.37785353526151,9.478571428571428L23.163567820975796,9.478571428571428L22.73499639240437,9.907142857142858L22.520710678118654,9.907142857142858L22.30642496383294,10.12142857142857L21.87785353526151,10.12142857142857L21.663567820975796,10.335714285714285L21.44928210669008,10.335714285714285L21.23499639240437,10.55L20.80642496383294,10.55L20.592139249547227,10.764285714285716L20.163567820975796,10.764285714285716L19.94928210669008,10.978571428571428L19.73499639240437,10.978571428571428L19.520710678118654,11.192857142857143L19.26500360759563,11.192857142857143L19.021428571428572,10.949282106690081L19.021428571428572,10.050717893309915L19.664285714285715,9.407860750452773L19.664285714285715,8.979289321881346L20.09285714285714,8.550717893309915L20.09285714285714,7.30642496383294L19.907860750452773,7.121428571428571L19.092139249547227,7.121428571428571L18.87785353526151,7.335714285714285L18.663567820975796,7.335714285714285L18.44928210669008,7.55z" stroke="none"/><path d="M18,10.45L18,10.55L17.592139249547227,10.55L16.94928210669008,11.192857142857143L16.520710678118654,11.192857142857143L15.907142857142858,11.806424963832939L15.907142857142858,12.020710678118654L15.449282106690081,12.478571428571428L14.377853535261512,12.478571428571428L14.163567820975796,12.692857142857143L10.520710678118654,12.692857142857143L10.306424963832939,12.907142857142858L10.092139249547223,12.907142857142858L9.877853535261512,13.12142857142857L2.3364321790242024,13.12142857142857L1.8785714285714286,12.663567820975796L1.8785714285714286,8.76500360759563L2.550717893309917,8.092857142857142L5.163567820975797,8.092857142857142L5.592139249547226,8.521428571428569L6.449282106690083,8.521428571428569L6.663567820975797,8.735714285714284L7.520710678118655,8.735714285714284L7.734996392404369,8.95L9,8.95L9,9.05L7.69357503616706,9.05L7.479289321881345,8.835714285714285L6.622146464738488,8.835714285714285L6.407860750452773,8.62142857142857L5.550717893309916,8.62142857142857L5.122146464738488,8.192857142857143L2.5921392495472264,8.192857142857143L1.9785714285714286,8.806424963832939L1.9785714285714286,12.622146464738488L2.377853535261512,13.021428571428569L9.836432179024204,13.021428571428569L10.050717893309915,12.807142857142857L10.26500360759563,12.807142857142857L10.479289321881346,12.592857142857142L14.122146464738488,12.592857142857142L14.336432179024204,12.378571428571426L15.407860750452773,12.378571428571426L15.807142857142857,11.979289321881346L15.807142857142857,11.76500360759563L16.479289321881346,11.092857142857142L16.907860750452773,11.092857142857142L17.55071789330992,10.45z" stroke="none"/><path d="M27.03535533905933,6.035355339059327L26.96464466094067,5.964644660940673L27.378571428571426,5.550717893309916L27.378571428571426,2.5921392495472264L27.19357503616706,2.407142857142857L26.76500360759563,2.407142857142857L26.550717893309915,2.1928571428571426L19.092139249547227,2.1928571428571426L18.44928210669008,2.8357142857142854L18.23499639240437,2.8357142857142854L18.03535533905933,3.0353553390593273L17.96464466094067,2.9646446609406727L18.19357503616706,2.7357142857142858L18.407860750452773,2.7357142857142858L19.05071789330992,2.092857142857143L26.592139249547223,2.092857142857143L26.80642496383294,2.3071428571428574L27.23499639240437,2.3071428571428574L27.478571428571428,2.550717893309917L27.478571428571428,5.592139249547226z" stroke="none"/><path d="M24,11.95L24,12.05L23.37785353526151,12.05L23.163567820975796,12.264285714285716L22.94928210669008,12.264285714285716L22.520710678118654,12.692857142857143L17.76500360759563,12.692857142857143L17.521428571428572,12.449282106690081L17.521428571428572,11.550717893309915L17.979289321881346,11.092857142857142L18.19357503616706,11.092857142857142L18.378571428571426,10.907860750452773L18.378571428571426,10.092139249547223L18.19357503616706,9.907142857142858L17.80642496383294,9.907142857142858L17.37785353526151,10.335714285714285L17.163567820975796,10.335714285714285L16.520710678118654,10.978571428571428L16.30642496383294,10.978571428571428L15.877853535261512,11.407142857142858L14.806424963832939,11.407142857142858L14.592139249547223,11.62142857142857L14.163567820975796,11.62142857142857L13.73499639240437,12.05L13.5,12.05L13.5,11.95L13.693575036167061,11.95L14.122146464738488,11.521428571428569L14.550717893309915,11.521428571428569L14.76500360759563,11.307142857142857L15.836432179024204,11.307142857142857L16.26500360759563,10.878571428571426L16.479289321881346,10.878571428571426L17.12214646473849,10.235714285714284L17.336432179024204,10.235714285714284L17.76500360759563,9.807142857142857L18.23499639240437,9.807142857142857L18.478571428571428,10.050717893309915L18.478571428571428,10.949282106690081L18.23499639240437,11.192857142857143L18.020710678118654,11.192857142857143L17.621428571428574,11.592139249547223L17.621428571428574,12.407860750452773L17.80642496383294,12.592857142857142L22.479289321881346,12.592857142857142L22.907860750452773,12.164285714285715L23.12214646473849,12.164285714285715L23.336432179024204,11.95z" stroke="none"/><path d="M26.95,10.5L27.05,10.5L27.05,10.693575036167061L27.478571428571428,11.122146464738488L27.478571428571428,12.449282106690081L27.23499639240437,12.692857142857143L22.94928210669008,12.692857142857143L22.73499639240437,12.907142857142858L17.55071789330992,12.907142857142858L16.69357503616706,12.05L16.5,12.05L16.5,11.95L16.73499639240437,11.95L17.592139249547227,12.807142857142857L22.69357503616706,12.807142857142857L22.907860750452773,12.592857142857142L27.19357503616706,12.592857142857142L27.378571428571426,12.407860750452773L27.378571428571426,11.163567820975796L26.95,10.73499639240437z" stroke="none"/><path d="M4.5,3.05L4.5,2.95L6.19357503616706,2.95L6.836432179024202,2.3071428571428574L9.193575036167061,2.3071428571428574L9.407860750452773,2.092857142857143L18.62214646473849,2.092857142857143L18.836432179024204,1.8785714285714286L26.80642496383294,1.8785714285714286L27.020710678118654,2.092857142857143L27.44928210669008,2.092857142857143L27.692857142857143,2.3364321790242024L27.692857142857143,7.734996392404369L27.44928210669008,7.978571428571428L27.23499639240437,7.978571428571428L27.020710678118654,8.192857142857143L26.80642496383294,8.192857142857143L26.37785353526151,8.62142857142857L26.163567820975796,8.62142857142857L25.94928210669008,8.835714285714285L25.73499639240437,8.835714285714285L25.520710678118654,9.05L24.663567820975796,9.05L24.44928210669008,9.264285714285716L24.23499639240437,9.264285714285716L23.163567820975796,10.335714285714285L22.092139249547227,10.335714285714285L21.87785353526151,10.55L21.663567820975796,10.55L21.44928210669008,10.764285714285716L21.020710678118654,10.764285714285716L20.80642496383294,10.978571428571428L20.37785353526151,10.978571428571428L20.163567820975796,11.192857142857143L19.94928210669008,11.192857142857143L19.73499639240437,11.407142857142858L19.05071789330992,11.407142857142858L18.807142857142857,11.163567820975796L18.807142857142857,10.73499639240437L18.59285714285714,10.520710678118654L18.59285714285714,9.877853535261512L18.407860750452773,9.692857142857143L17.979289321881346,9.692857142857143L17.12214646473849,8.835714285714285L16.69357503616706,8.835714285714285L16.479289321881346,8.62142857142857L15.836432179024204,8.62142857142857L15.407860750452773,8.192857142857143L14.336432179024204,8.192857142857143L14.092857142857142,7.949282106690083L14.092857142857142,6.8778535352615116L13.878571428571426,6.663567820975797L13.878571428571426,6.449282106690083L13.45,6.020710678118655L13.45,5.592139249547226L13.021428571428569,5.163567820975797L13.021428571428569,4.050717893309916L13.26500360759563,3.8071428571428574L15.663567820975796,3.8071428571428574L16.30642496383294,4.45L16.5,4.45L16.5,4.55L16.26500360759563,4.55L15.622146464738488,3.907142857142857L13.306424963832939,3.907142857142857L13.12142857142857,4.092139249547226L13.12142857142857,5.122146464738488L13.55,5.550717893309916L13.55,5.979289321881345L13.978571428571428,6.407860750452773L13.978571428571428,6.622146464738488L14.192857142857143,6.836432179024202L14.192857142857143,7.907860750452773L14.377853535261512,8.092857142857142L15.449282106690081,8.092857142857142L15.877853535261512,8.521428571428569L16.520710678118654,8.521428571428569L16.73499639240437,8.735714285714284L17.163567820975796,8.735714285714284L18.020710678118654,9.592857142857142L18.44928210669008,9.592857142857142L18.692857142857143,9.836432179024204L18.692857142857143,10.479289321881346L18.90714285714286,10.693575036167061L18.90714285714286,11.122146464738488L19.092139249547227,11.307142857142857L19.69357503616706,11.307142857142857L19.907860750452773,11.092857142857142L20.12214646473849,11.092857142857142L20.336432179024204,10.878571428571426L20.76500360759563,10.878571428571426L20.979289321881346,10.664285714285715L21.407860750452773,10.664285714285715L21.62214646473849,10.45L21.836432179024204,10.45L22.05071789330992,10.235714285714284L23.12214646473849,10.235714285714284L24.19357503616706,9.164285714285715L24.407860750452773,9.164285714285715L24.62214646473849,8.95L25.479289321881346,8.95L25.69357503616706,8.735714285714284L25.907860750452773,8.735714285714284L26.12214646473849,8.521428571428569L26.336432179024204,8.521428571428569L26.76500360759563,8.092857142857142L26.979289321881346,8.092857142857142L27.19357503616706,7.878571428571428L27.407860750452773,7.878571428571428L27.59285714285714,7.69357503616706L27.59285714285714,2.377853535261512L27.407860750452773,2.1928571428571426L26.979289321881346,2.1928571428571426L26.76500360759563,1.9785714285714286L18.87785353526151,1.9785714285714286L18.663567820975796,2.1928571428571426L9.449282106690081,2.1928571428571426L9.23499639240437,2.407142857142857L6.8778535352615116,2.407142857142857L6.234996392404369,3.05z" stroke="none"/></svg>