<svg version="1.1" width="30" height="15" xmlns="http://www.w3.org/2000/svg"><path d="M25.45,3.622146464738488L25.45,3L25.55,3L25.55,3.592857142857143L25.907860750452773,3.592857142857143L26.336432179024204,3.1642857142857146L26.550717893309915,3.1642857142857146L26.76500360759563,2.95L27,2.95L27,3.05L26.80642496383294,3.05L26.592139249547223,3.2642857142857142L26.37785353526151,3.2642857142857142L25.94928210669008,3.6928571428571426L25.520710678118654,3.6928571428571426L25.30642496383294,3.907142857142857L25.092139249547223,3.907142857142857L24.663567820975796,4.335714285714285L24.44928210669008,4.335714285714285L24.23499639240437,4.55L24,4.55L24,4.45L24.19357503616706,4.45L24.407860750452773,4.235714285714286L24.62214646473849,4.235714285714286L25.050717893309915,3.8071428571428574L25.26500360759563,3.8071428571428574z" stroke="none"/><path d="M17.307142857142857,10.45L17.307142857142857,10.26500360759563L17.55071789330992,10.021428571428569L18.62214646473849,10.021428571428569L18.836432179024204,9.807142857142857L20.336432179024204,9.807142857142857L20.55071789330992,9.592857142857142L21.836432179024204,9.592857142857142L22.46464466094067,8.964644660940673L22.53535533905933,9.035355339059327L21.87785353526151,9.692857142857143L20.592139249547227,9.692857142857143L20.37785353526151,9.907142857142858L18.87785353526151,9.907142857142858L18.663567820975796,10.12142857142857L17.592139249547227,10.12142857142857L17.40714285714286,10.306424963832939L17.40714285714286,10.479289321881346L17.621428571428574,10.693575036167061L17.621428571428574,11.336432179024204L18.05,11.76500360759563L18.05,12L17.95,12L17.95,11.806424963832939L17.521428571428572,11.377853535261512L17.521428571428572,10.73499639240437L17.336432179024204,10.55L14.806424963832939,10.55L14.592139249547223,10.764285714285716L14.163567820975796,10.764285714285716L13.949282106690081,10.978571428571428L12.836432179024204,10.978571428571428L12.622146464738488,10.764285714285716L12.193575036167061,10.764285714285716L11.964644660940673,10.535355339059327L12.035355339059327,10.464644660940673L12.23499639240437,10.664285714285715L12.663567820975796,10.664285714285715L12.877853535261512,10.878571428571426L13.907860750452773,10.878571428571426L14.122146464738488,10.664285714285715L14.550717893309915,10.664285714285715L14.76500360759563,10.45z" stroke="none"/><path d="M8.377853535261512,10.45L8.592139249547223,10.45L9.663567820975796,11.521428571428569L9.877853535261512,11.521428571428569L10.092139249547223,11.735714285714284L10.306424963832939,11.735714285714284L10.535355339059327,11.964644660940673L10.464644660940673,12.035355339059327L10.26500360759563,11.835714285714285L10.050717893309915,11.835714285714285L9.836432179024204,11.62142857142857L9.622146464738488,11.62142857142857L8.550717893309915,10.55L8.407142857142858,10.55L8.407142857142858,10.693575036167061L8.62142857142857,10.907860750452773L8.62142857142857,11.122146464738488L8.835714285714285,11.336432179024204L8.835714285714285,11.550717893309915L9.05,11.76500360759563L9.05,12L8.95,12L8.95,11.806424963832939L8.735714285714284,11.592139249547223L8.735714285714284,11.377853535261512L8.521428571428569,11.163567820975796L8.521428571428569,10.949282106690081L8.307142857142857,10.73499639240437L8.307142857142857,10.520710678118654L6.164285714285715,8.377853535261512L6.164285714285715,7.949282106690083L5.95,7.734996392404369L5.95,7.5L6.05,7.5L6.05,7.69357503616706L6.264285714285714,7.907860750452773L6.264285714285714,8.336432179024204z" stroke="none"/><path d="M21.59285714285714,5.95L21.59285714285714,5.765003607595631L21.836432179024204,5.521428571428571L22.092139249547227,5.521428571428571L22.30642496383294,5.735714285714286L22.73499639240437,5.735714285714286L23.37785353526151,6.378571428571428L24.407860750452773,6.378571428571428L24.59285714285714,6.19357503616706L24.59285714285714,5.80642496383294L23.76500360759563,4.978571428571429L23.550717893309915,4.978571428571429L23.09285714285714,4.520710678118655L23.09285714285714,4.30642496383294L21.407860750452773,2.6214285714285714L19.092139249547227,2.6214285714285714L17.192857142857143,4.520710678118655L17.192857142857143,4.734996392404369L16.978571428571428,4.949282106690084L16.978571428571428,5.3778535352615116L16.55,5.80642496383294L16.55,6L16.45,6L16.45,5.765003607595631L16.878571428571426,5.336432179024202L16.878571428571426,4.907860750452774L17.09285714285714,4.69357503616706L17.09285714285714,4.479289321881345L19.05071789330992,2.521428571428572L21.44928210669008,2.521428571428572L23.192857142857143,4.265003607595631L23.192857142857143,4.479289321881345L23.592139249547223,4.878571428571429L23.80642496383294,4.878571428571429L24.692857142857143,5.765003607595631L24.692857142857143,6.234996392404369L24.44928210669008,6.478571428571428L23.336432179024204,6.478571428571428L22.69357503616706,5.835714285714285L22.26500360759563,5.835714285714285L22.05071789330992,5.621428571428571L21.87785353526151,5.621428571428571L21.692857142857143,5.80642496383294L21.692857142857143,5.95L22.5,5.95L22.5,6.05L21.692857142857143,6.05L21.692857142857143,6.234996392404369L21.478571428571428,6.449282106690083L21.478571428571428,6.663567820975797L21.264285714285716,6.8778535352615116L21.264285714285716,7.092139249547226L21.05,7.30642496383294L21.05,7.5L20.95,7.5L20.95,7.265003607595631L21.164285714285715,7.050717893309916L21.164285714285715,6.836432179024202L21.378571428571426,6.622146464738488L21.378571428571426,6.407860750452773L21.59285714285714,6.19357503616706L21.59285714285714,6.05L21.44928210669008,6.05L20.621428571428574,6.8778535352615116L20.621428571428574,7.479289321881345L20.80642496383294,7.664285714285715L21.19357503616706,7.664285714285715L21.62214646473849,7.235714285714286L21.836432179024204,7.235714285714286L22.05071789330992,7.021428571428571L23.336432179024204,7.021428571428571L23.550717893309915,6.807142857142857L23.979289321881346,6.807142857142857L24.19357503616706,6.5928571428571425L24.62214646473849,6.5928571428571425L26.550717893309915,4.664285714285715L26.76500360759563,4.664285714285715L26.96464466094067,4.464644660940673L27.03535533905933,4.535355339059327L26.80642496383294,4.764285714285714L26.592139249547223,4.764285714285714L24.663567820975796,6.692857142857142L24.23499639240437,6.692857142857142L24.020710678118654,6.907142857142857L23.592139249547223,6.907142857142857L23.37785353526151,7.121428571428571L22.092139249547227,7.121428571428571L21.87785353526151,7.335714285714285L21.663567820975796,7.335714285714285L21.23499639240437,7.764285714285714L20.76500360759563,7.764285714285714L20.521428571428572,7.520710678118655L20.521428571428572,6.836432179024202L21.407860750452773,5.95z" stroke="none"/><path d="M19.45,5.0928571428571425L19.45,3L19.55,3L19.55,5.0928571428571425L22.30642496383294,5.0928571428571425L22.520710678118654,5.307142857142857L22.73499639240437,5.307142857142857L22.94928210669008,5.521428571428571L23.37785353526151,5.521428571428571L23.592139249547223,5.735714285714286L23.80642496383294,5.735714285714286L24.03535533905933,5.964644660940673L23.96464466094067,6.035355339059327L23.76500360759563,5.835714285714285L23.550717893309915,5.835714285714285L23.336432179024204,5.621428571428571L22.907860750452773,5.621428571428571L22.69357503616706,5.407142857142857L22.479289321881346,5.407142857142857L22.26500360759563,5.192857142857142L19.55,5.192857142857142L19.55,5.3778535352615116L19.30642496383294,5.621428571428571L19.092139249547227,5.621428571428571L17.37785353526151,7.335714285714285L17.163567820975796,7.335714285714285L16.94928210669008,7.55L16.5,7.55L16.5,7.45L16.907860750452773,7.45L17.12214646473849,7.235714285714286L17.336432179024204,7.235714285714286L19.05071789330992,5.521428571428571L19.26500360759563,5.521428571428571L19.45,5.336432179024202L19.45,5.192857142857142L19.26500360759563,5.192857142857142L18.836432179024204,4.764285714285714L18.407860750452773,4.764285714285714L18.19357503616706,4.55L18,4.55L18,4.45L18.23499639240437,4.45L18.44928210669008,4.664285714285715L18.87785353526151,4.664285714285715L19.30642496383294,5.0928571428571425z" stroke="none"/><path d="M14.521428571428569,6.5928571428571425L14.521428571428569,6.449282106690083L14.122146464738488,6.05L13.907860750452773,6.05L13.693575036167061,5.835714285714285L11.806424963832939,5.835714285714285L11.377853535261512,6.264285714285714L11.163567820975796,6.264285714285714L10.949282106690081,6.478571428571428L9.23499639240437,6.478571428571428L9.020710678118654,6.692857142857142L8.806424963832939,6.692857142857142L8.377853535261512,7.121428571428571L8.163567820975796,7.121428571428571L7.949282106690083,7.335714285714285L7.734996392404369,7.335714285714285L7.535355339059327,7.535355339059327L7.464644660940673,7.464644660940673L7.69357503616706,7.235714285714286L7.907860750452773,7.235714285714286L8.122146464738488,7.021428571428571L8.336432179024204,7.021428571428571L8.76500360759563,6.5928571428571425L8.979289321881346,6.5928571428571425L9.193575036167061,6.378571428571428L10.907860750452773,6.378571428571428L11.122146464738488,6.164285714285715L11.336432179024204,6.164285714285715L11.76500360759563,5.735714285714286L13.73499639240437,5.735714285714286L13.949282106690081,5.95L14.163567820975796,5.95L14.62142857142857,6.407860750452773L14.62142857142857,6.622146464738488L15.877853535261512,7.878571428571428L16.907860750452773,7.878571428571428L17.336432179024204,7.45L17.55071789330992,7.45L18.836432179024204,6.164285714285715L19.05071789330992,6.164285714285715L19.26500360759563,5.95L19.5,5.95L19.5,6.05L19.30642496383294,6.05L19.092139249547227,6.264285714285714L18.87785353526151,6.264285714285714L17.592139249547227,7.55L17.37785353526151,7.55L16.94928210669008,7.978571428571428L15.836432179024204,7.978571428571428L14.62142857142857,6.763567820975797L14.62142857142857,7.050717893309916L15.663567820975796,8.092857142857142L18.19357503616706,8.092857142857142L18.62214646473849,7.664285714285715L19.26500360759563,7.664285714285715L19.46464466094067,7.464644660940673L19.53535533905933,7.535355339059327L19.30642496383294,7.764285714285714L18.663567820975796,7.764285714285714L18.23499639240437,8.192857142857143L15.622146464738488,8.192857142857143L14.521428571428569,7.092139249547226L14.521428571428569,6.692857142857142L13.907860750452773,6.692857142857142L13.26500360759563,6.05L12,6.05L12,5.95L13.306424963832939,5.95L13.949282106690081,6.5928571428571425z" stroke="none"/><path d="M13.55,10.5L13.45,10.5L13.45,9L13.55,9z" stroke="none"/><path d="M22.53535533905933,4.464644660940673L22.46464466094067,4.535355339059327L20.96464466094067,3.0353553390593273L21.03535533905933,2.9646446609406727z" stroke="none"/><path d="M22.46464466094067,10.535355339059327L22.53535533905933,10.464644660940673L24.03535533905933,11.964644660940673L23.96464466094067,12.035355339059327z" stroke="none"/><path d="M20.96464466094067,10.535355339059327L21.03535533905933,10.464644660940673L22.53535533905933,11.964644660940673L22.46464466094067,12.035355339059327z" stroke="none"/><path d="M13.5,4.45L13.5,4.55L12.407860750452773,4.55L12.193575036167061,4.335714285714285L11.979289321881346,4.335714285714285L10.693575036167061,3.05L10.5,3.05L10.5,2.95L10.73499639240437,2.95L12.020710678118654,4.235714285714286L12.23499639240437,4.235714285714286L12.449282106690081,4.45z" stroke="none"/><path d="M25.53535533905933,4.535355339059327L25.46464466094067,4.464644660940673L25.69357503616706,4.235714285714286L26.336432179024204,4.235714285714286L26.550717893309915,4.021428571428571L27.44928210669008,4.021428571428571L27.692857142857143,4.265003607595631L27.692857142857143,6.8778535352615116L27.03535533905933,7.535355339059327L26.96464466094067,7.464644660940673L27.59285714285714,6.836432179024202L27.59285714285714,4.30642496383294L27.407860750452773,4.121428571428571L26.592139249547223,4.121428571428571L26.37785353526151,4.335714285714285L25.73499639240437,4.335714285714285z" stroke="none"/><path d="M10.55,6L10.45,6L10.45,5.163567820975797L9.592857142857142,4.30642496383294L9.592857142857142,3.877853535261512L9.378571428571426,3.6635678209757976L9.378571428571426,3.449282106690083L8.964644660940673,3.0353553390593273L9.035355339059327,2.9646446609406727L9.478571428571428,3.4078607504527736L9.478571428571428,3.622146464738488L9.692857142857143,3.8364321790242024L9.692857142857143,4.265003607595631L10.55,5.122146464738488z" stroke="none"/><path d="M26.96464466094067,5.964644660940673L27.03535533905933,6.035355339059327L26.835714285714285,6.234996392404369L26.835714285714285,6.663567820975797L26.40714285714286,7.092139249547226L26.40714285714286,7.30642496383294L25.978571428571428,7.734996392404369L25.978571428571428,8.163567820975796L25.764285714285716,8.377853535261512L25.764285714285716,8.806424963832939L25.53535533905933,9.035355339059327L25.46464466094067,8.964644660940673L25.664285714285715,8.76500360759563L25.664285714285715,8.336432179024204L25.878571428571426,8.122146464738488L25.878571428571426,7.69357503616706L26.307142857142857,7.265003607595631L26.307142857142857,7.050717893309916L26.735714285714284,6.622146464738488L26.735714285714284,6.19357503616706z" stroke="none"/><path d="M5.95,9L6.05,9L6.05,9.193575036167061L6.264285714285714,9.407860750452773L6.264285714285714,9.622146464738488L6.478571428571428,9.836432179024204L6.478571428571428,10.050717893309915L6.907142857142857,10.479289321881346L6.907142857142857,10.693575036167061L7.121428571428571,10.907860750452773L7.121428571428571,11.336432179024204L7.335714285714285,11.550717893309915L7.335714285714285,11.76500360759563L7.535355339059327,11.964644660940673L7.464644660940673,12.035355339059327L7.235714285714286,11.806424963832939L7.235714285714286,11.592139249547223L7.021428571428571,11.377853535261512L7.021428571428571,10.949282106690081L6.807142857142857,10.73499639240437L6.807142857142857,10.520710678118654L6.378571428571428,10.092139249547223L6.378571428571428,9.877853535261512L6.164285714285715,9.663567820975796L6.164285714285715,9.449282106690081L5.95,9.23499639240437z" stroke="none"/><path d="M6,11.95L6,12.05L5.122146464738488,12.05L4.021428571428571,10.949282106690081L4.021428571428571,10.306424963832939L3.1642857142857146,9.449282106690081L3.1642857142857146,9.23499639240437L2.9646446609406727,9.035355339059327L3.0353553390593273,8.964644660940673L3.2642857142857142,9.193575036167061L3.2642857142857142,9.407860750452773L4.121428571428571,10.26500360759563L4.121428571428571,10.907860750452773L5.163567820975797,11.95z" stroke="none"/><path d="M10.535355339059327,10.535355339059327L10.464644660940673,10.464644660940673L13.464644660940673,7.464644660940673L13.535355339059327,7.535355339059327z" stroke="none"/><path d="M7.45,10.5L7.55,10.5L7.55,10.693575036167061L7.764285714285714,10.907860750452773L7.764285714285714,11.336432179024204L7.978571428571428,11.550717893309915L7.978571428571428,12.449282106690081L7.734996392404369,12.692857142857143L5.979289321881345,12.692857142857143L5.765003607595631,12.478571428571428L5.336432179024202,12.478571428571428L5.122146464738488,12.264285714285716L4.907860750452774,12.264285714285716L3.4078607504527736,10.764285714285716L3.1935750361670596,10.764285714285716L2.9646446609406727,10.535355339059327L3.0353553390593273,10.464644660940673L3.234996392404369,10.664285714285715L3.449282106690083,10.664285714285715L4.949282106690084,12.164285714285715L5.163567820975797,12.164285714285715L5.3778535352615116,12.378571428571426L5.80642496383294,12.378571428571426L6.020710678118655,12.592857142857142L7.69357503616706,12.592857142857142L7.878571428571428,12.407860750452773L7.878571428571428,11.592139249547223L7.664285714285715,11.377853535261512L7.664285714285715,10.949282106690081L7.45,10.73499639240437z" stroke="none"/><path d="M16.5,2.95L16.5,3.05L16.092139249547223,3.05L15.663567820975796,3.478571428571428L13.693575036167061,3.478571428571428L13.26500360759563,3.05L12,3.05L12,2.95L13.306424963832939,2.95L13.73499639240437,3.3785714285714286L15.622146464738488,3.3785714285714286L16.050717893309915,2.95z" stroke="none"/><path d="M5.95,3L6.05,3L6.05,4.050717893309916L6.264285714285714,4.265003607595631L6.264285714285714,4.479289321881345L6.478571428571428,4.69357503616706L6.478571428571428,4.907860750452774L6.692857142857142,5.122146464738488L6.692857142857142,6.407860750452773L6.907142857142857,6.622146464738488L6.907142857142857,7.69357503616706L7.092139249547226,7.878571428571428L8.336432179024204,7.878571428571428L8.76500360759563,7.45L9,7.45L9,7.55L8.806424963832939,7.55L8.377853535261512,7.978571428571428L7.050717893309916,7.978571428571428L6.807142857142857,7.734996392404369L6.807142857142857,6.663567820975797L6.5928571428571425,6.449282106690083L6.5928571428571425,5.163567820975797L6.378571428571428,4.949282106690084L6.378571428571428,4.734996392404369L6.164285714285715,4.520710678118655L6.164285714285715,4.30642496383294L5.95,4.092139249547226z" stroke="none"/><path d="M7.55,6L7.45,6L7.45,5.592139249547226L7.235714285714286,5.3778535352615116L7.235714285714286,5.163567820975797L7.021428571428571,4.949282106690084L7.021428571428571,4.30642496383294L6.807142857142857,4.092139249547226L6.807142857142857,3.6635678209757976L6.5928571428571425,3.449282106690083L6.5928571428571425,2.8064249638329404L6.407860750452773,2.6214285714285714L5.592139249547226,2.6214285714285714L5.407142857142857,2.8064249638329404L5.407142857142857,9.020710678118654L5.192857142857142,9.23499639240437L5.192857142857142,9.449282106690081L4.55,10.092139249547223L4.55,10.5L4.45,10.5L4.45,10.050717893309915L5.0928571428571425,9.407860750452773L5.0928571428571425,9.193575036167061L5.307142857142857,8.979289321881346L5.307142857142857,2.765003607595631L5.550717893309916,2.521428571428572L6.449282106690083,2.521428571428572L6.692857142857142,2.765003607595631L6.692857142857142,3.4078607504527736L6.907142857142857,3.622146464738488L6.907142857142857,4.050717893309916L7.121428571428571,4.265003607595631L7.121428571428571,4.907860750452774L7.335714285714285,5.122146464738488L7.335714285714285,5.336432179024202L7.55,5.550717893309916z" stroke="none"/><path d="M7.55,4.5L7.45,4.5L7.45,3.234996392404369L6.622146464738488,2.407142857142857L5.3778535352615116,2.407142857142857L5.192857142857142,2.5921392495472264L5.192857142857142,7.734996392404369L4.978571428571429,7.949282106690083L4.978571428571429,8.163567820975796L4.764285714285714,8.377853535261512L4.764285714285714,8.806424963832939L4.535355339059327,9.035355339059327L4.464644660940673,8.964644660940673L4.664285714285715,8.76500360759563L4.664285714285715,8.336432179024204L4.878571428571429,8.122146464738488L4.878571428571429,7.907860750452773L5.0928571428571425,7.69357503616706L5.0928571428571425,2.550717893309917L5.336432179024202,2.3071428571428574L6.663567820975797,2.3071428571428574L7.55,3.1935750361670596z" stroke="none"/><path d="M21,12.05L21,11.95L21.23499639240437,11.95L21.44928210669008,12.164285714285715L21.87785353526151,12.164285714285715L22.092139249547227,12.378571428571426L24.62214646473849,12.378571428571426L24.836432179024204,12.164285714285715L25.050717893309915,12.164285714285715L26.12214646473849,11.092857142857142L26.336432179024204,11.092857142857142L26.96464466094067,10.464644660940673L27.03535533905933,10.535355339059327L26.37785353526151,11.192857142857143L26.163567820975796,11.192857142857143L25.092139249547223,12.264285714285716L24.87785353526151,12.264285714285716L24.663567820975796,12.478571428571428L22.05071789330992,12.478571428571428L21.836432179024204,12.264285714285716L21.407860750452773,12.264285714285716L21.19357503616706,12.05z" stroke="none"/><path d="M16.53535533905933,4.535355339059327L16.46464466094067,4.464644660940673L18.62214646473849,2.3071428571428574L27.23499639240437,2.3071428571428574L27.90714285714286,2.979289321881345L27.90714285714286,7.520710678118655L27.23499639240437,8.192857142857143L27.020710678118654,8.192857142857143L26.62142857142857,8.592139249547223L26.62142857142857,8.806424963832939L25.94928210669008,9.478571428571428L25.050717893309915,9.478571428571428L24.407860750452773,8.835714285714285L24.19357503616706,8.835714285714285L23.550717893309915,8.192857142857143L23.336432179024204,8.192857142857143L22.907860750452773,7.764285714285714L22.69357503616706,7.764285714285714L22.46464466094067,7.535355339059327L22.53535533905933,7.464644660940673L22.73499639240437,7.664285714285715L22.94928210669008,7.664285714285715L23.37785353526151,8.092857142857142L23.592139249547223,8.092857142857142L24.23499639240437,8.735714285714284L24.44928210669008,8.735714285714284L25.092139249547223,9.378571428571426L25.907860750452773,9.378571428571426L26.52142857142857,8.76500360759563L26.52142857142857,8.550717893309915L26.979289321881346,8.092857142857142L27.19357503616706,8.092857142857142L27.807142857142857,7.479289321881345L27.807142857142857,3.020710678118655L27.19357503616706,2.407142857142857L18.663567820975796,2.407142857142857z" stroke="none"/><path d="M3.0353553390593273,3.0353553390593273L2.9646446609406727,2.9646446609406727L3.1935750361670596,2.7357142857142858L3.4078607504527736,2.7357142857142858L3.622146464738488,2.521428571428572L3.8364321790242024,2.521428571428572L4.050717893309916,2.3071428571428574L4.907860750452774,2.3071428571428574L5.122146464738488,2.092857142857143L6.8778535352615116,2.092857142857143L7.764285714285714,2.979289321881345L7.764285714285714,3.1935750361670596L8.192857142857143,3.622146464738488L8.192857142857143,4.265003607595631L8.62142857142857,4.69357503616706L8.62142857142857,5.336432179024202L9.05,5.765003607595631L9.05,6L8.95,6L8.95,5.80642496383294L8.521428571428569,5.3778535352615116L8.521428571428569,4.734996392404369L8.092857142857142,4.30642496383294L8.092857142857142,3.6635678209757976L7.664285714285715,3.234996392404369L7.664285714285715,3.020710678118655L6.836432179024202,2.1928571428571426L5.163567820975797,2.1928571428571426L4.949282106690084,2.407142857142857L4.092139249547226,2.407142857142857L3.877853535261512,2.6214285714285714L3.6635678209757976,2.6214285714285714L3.449282106690083,2.8357142857142854L3.234996392404369,2.8357142857142854z" stroke="none"/><path d="M10.45,9L10.55,9L10.55,9.663567820975796L10.12142857142857,10.092139249547223L10.12142857142857,10.907860750452773L10.520710678118654,11.307142857142857L10.73499639240437,11.307142857142857L10.978571428571428,11.550717893309915L10.978571428571428,12.449282106690081L10.73499639240437,12.692857142857143L8.163567820975796,12.692857142857143L7.949282106690083,12.907142857142858L4.69357503616706,12.907142857142858L4.265003607595631,12.478571428571428L3.622146464738488,12.478571428571428L3.4078607504527736,12.264285714285716L3.1935750361670596,12.264285714285716L2.9646446609406727,12.035355339059327L3.0353553390593273,11.964644660940673L3.234996392404369,12.164285714285715L3.449282106690083,12.164285714285715L3.6635678209757976,12.378571428571426L4.30642496383294,12.378571428571426L4.734996392404369,12.807142857142857L7.907860750452773,12.807142857142857L8.122146464738488,12.592857142857142L10.693575036167061,12.592857142857142L10.878571428571426,12.407860750452773L10.878571428571426,11.592139249547223L10.693575036167061,11.407142857142858L10.479289321881346,11.407142857142858L10.021428571428569,10.949282106690081L10.021428571428569,10.050717893309915L10.45,9.622146464738488z" stroke="none"/><path d="M19.5,10.55L19.5,10.45L19.69357503616706,10.45L20.12214646473849,10.021428571428569L21.62214646473849,10.021428571428569L21.836432179024204,9.807142857142857L22.479289321881346,9.807142857142857L22.878571428571426,9.407860750452773L22.878571428571426,8.592139249547223L22.69357503616706,8.407142857142858L15.407860750452773,8.407142857142858L14.122146464738488,7.121428571428571L13.092139249547223,7.121428571428571L12.877853535261512,7.335714285714285L12.449282106690081,7.335714285714285L12.23499639240437,7.55L12,7.55L12,7.45L12.193575036167061,7.45L12.407860750452773,7.235714285714286L12.836432179024204,7.235714285714286L13.050717893309915,7.021428571428571L14.163567820975796,7.021428571428571L15.449282106690081,8.307142857142857L22.73499639240437,8.307142857142857L22.978571428571428,8.550717893309915L22.978571428571428,9.449282106690081L22.520710678118654,9.907142857142858L21.87785353526151,9.907142857142858L21.663567820975796,10.12142857142857L20.163567820975796,10.12142857142857L19.73499639240437,10.55z" stroke="none"/><path d="M17.96464466094067,10.535355339059327L18.03535533905933,10.464644660940673L19.73499639240437,12.164285714285715L20.37785353526151,12.164285714285715L20.592139249547227,12.378571428571426L21.663567820975796,12.378571428571426L21.87785353526151,12.592857142857142L25.050717893309915,12.592857142857142L26.12214646473849,11.521428571428569L26.336432179024204,11.521428571428569L26.76500360759563,11.092857142857142L27.19357503616706,11.092857142857142L27.378571428571426,10.907860750452773L27.378571428571426,9.663567820975796L26.95,9.23499639240437L26.95,9L27.05,9L27.05,9.193575036167061L27.478571428571428,9.622146464738488L27.478571428571428,10.949282106690081L27.23499639240437,11.192857142857143L26.80642496383294,11.192857142857143L26.37785353526151,11.62142857142857L26.163567820975796,11.62142857142857L25.092139249547223,12.692857142857143L21.836432179024204,12.692857142857143L21.62214646473849,12.478571428571428L20.55071789330992,12.478571428571428L20.336432179024204,12.264285714285716L19.69357503616706,12.264285714285716z" stroke="none"/><path d="M4.5,7.45L4.5,7.55L4.092139249547226,7.55L3.877853535261512,7.764285714285714L3.6635678209757976,7.764285714285714L3.234996392404369,8.192857142857143L3.020710678118655,8.192857142857143L2.6214285714285714,8.592139249547223L2.6214285714285714,12.407860750452773L2.8064249638329404,12.592857142857142L4.092139249547226,12.592857142857142L4.520710678118655,13.021428571428569L10.26500360759563,13.021428571428569L10.479289321881346,12.807142857142857L10.907860750452773,12.807142857142857L11.092857142857142,12.622146464738488L11.092857142857142,10.693575036167061L11.307142857142857,10.479289321881346L11.307142857142857,10.26500360759563L13.050717893309915,8.521428571428569L14.377853535261512,8.521428571428569L14.592139249547223,8.735714285714284L14.806424963832939,8.735714285714284L15.035355339059327,8.964644660940673L14.964644660940673,9.035355339059327L14.76500360759563,8.835714285714285L14.550717893309915,8.835714285714285L14.336432179024204,8.62142857142857L13.092139249547223,8.62142857142857L11.407142857142858,10.306424963832939L11.407142857142858,10.520710678118654L11.192857142857143,10.73499639240437L11.192857142857143,12.663567820975796L10.949282106690081,12.907142857142858L10.520710678118654,12.907142857142858L10.306424963832939,13.12142857142857L4.479289321881345,13.12142857142857L4.050717893309916,12.692857142857143L2.765003607595631,12.692857142857143L2.521428571428572,12.449282106690081L2.521428571428572,8.550717893309915L2.979289321881345,8.092857142857142L3.1935750361670596,8.092857142857142L3.622146464738488,7.664285714285715L3.8364321790242024,7.664285714285715L4.050717893309916,7.45z" stroke="none"/><path d="M3.05,6L2.95,6L2.95,4.30642496383294L2.7357142857142858,4.092139249547226L2.7357142857142858,3.877853535261512L2.521428571428572,3.6635678209757976L2.521428571428572,2.550717893309917L2.765003607595631,2.3071428571428574L3.1935750361670596,2.3071428571428574L3.4078607504527736,2.092857142857143L4.479289321881345,2.092857142857143L4.69357503616706,1.8785714285714286L12.877853535261512,1.8785714285714286L13.306424963832939,2.3071428571428574L13.520710678118654,2.3071428571428574L13.73499639240437,2.521428571428572L14.163567820975796,2.521428571428572L14.377853535261512,2.7357142857142858L14.806424963832939,2.7357142857142858L15.035355339059327,2.9646446609406727L14.964644660940673,3.0353553390593273L14.76500360759563,2.8357142857142854L14.336432179024204,2.8357142857142854L14.122146464738488,2.6214285714285714L13.693575036167061,2.6214285714285714L13.479289321881346,2.407142857142857L13.26500360759563,2.407142857142857L12.836432179024204,1.9785714285714286L4.734996392404369,1.9785714285714286L4.520710678118655,2.1928571428571426L3.449282106690083,2.1928571428571426L3.234996392404369,2.407142857142857L2.8064249638329404,2.407142857142857L2.6214285714285714,2.5921392495472264L2.6214285714285714,3.622146464738488L2.8357142857142854,3.8364321790242024L2.8357142857142854,4.050717893309916L3.05,4.265003607595631z" stroke="none"/></svg>