<svg version="1.1" width="30" height="15" xmlns="http://www.w3.org/2000/svg"><path d="M24.378571428571426,10.092139249547223L23.95,9.663567820975796L23.95,9L24.05,9L24.05,9.622146464738488L24.478571428571428,10.050717893309915L24.478571428571428,10.878571428571426L24.663567820975796,10.878571428571426L25.55,11.76500360759563L25.55,12L25.45,12L25.45,11.806424963832939L24.62214646473849,10.978571428571428L24.478571428571428,10.978571428571428L24.478571428571428,11.377853535261512L24.05,11.806424963832939L24.05,12L23.95,12L23.95,11.76500360759563L24.378571428571426,11.336432179024204z" stroke="none"/><path d="M13.45,8.307142857142857L13.45,8.163567820975796L13.26500360759563,7.978571428571428L13.050717893309915,7.978571428571428L12.836432179024204,7.764285714285714L12.622146464738488,7.764285714285714L12.407860750452773,7.55L12,7.55L12,7.45L12.449282106690081,7.45L12.663567820975796,7.664285714285715L12.877853535261512,7.664285714285715L13.092139249547223,7.878571428571428L13.306424963832939,7.878571428571428L13.55,8.122146464738488L13.55,8.307142857142857L13.73499639240437,8.307142857142857L14.163567820975796,8.735714285714284L14.592139249547223,8.735714285714284L14.806424963832939,8.95L16.5,8.95L16.5,9.05L14.76500360759563,9.05L14.550717893309915,8.835714285714285L14.122146464738488,8.835714285714285L13.693575036167061,8.407142857142858L13.306424963832939,8.407142857142858L12.877853535261512,8.835714285714285L12.449282106690081,8.835714285714285L12.23499639240437,9.05L12,9.05L12,8.95L12.193575036167061,8.95L12.407860750452773,8.735714285714284L12.836432179024204,8.735714285714284L13.26500360759563,8.307142857142857z" stroke="none"/><path d="M13.878571428571426,6.807142857142857L13.878571428571426,6.663567820975797L13.693575036167061,6.478571428571428L13.050717893309915,6.478571428571428L12.193575036167061,5.621428571428571L11.979289321881346,5.621428571428571L11.550717893309915,5.192857142857142L11.336432179024204,5.192857142857142L11.122146464738488,4.978571428571429L10.907860750452773,4.978571428571429L10.464644660940673,4.535355339059327L10.535355339059327,4.464644660940673L10.949282106690081,4.878571428571429L11.163567820975796,4.878571428571429L11.377853535261512,5.0928571428571425L11.592139249547223,5.0928571428571425L12.020710678118654,5.521428571428571L12.23499639240437,5.521428571428571L13.092139249547223,6.378571428571428L13.73499639240437,6.378571428571428L13.978571428571428,6.622146464738488L13.978571428571428,6.807142857142857L18.87785353526151,6.807142857142857L19.30642496383294,7.235714285714286L20.80642496383294,7.235714285714286L21.03535533905933,7.464644660940673L20.96464466094067,7.535355339059327L20.76500360759563,7.335714285714285L19.26500360759563,7.335714285714285L18.836432179024204,6.907142857142857L12.020710678118654,6.907142857142857L11.806424963832939,7.121428571428571L11.592139249547223,7.121428571428571L11.192857142857143,7.520710678118655L11.192857142857143,7.949282106690083L10.764285714285716,8.377853535261512L10.764285714285716,8.806424963832939L10.535355339059327,9.035355339059327L10.464644660940673,8.964644660940673L10.664285714285715,8.76500360759563L10.664285714285715,8.336432179024204L11.092857142857142,7.907860750452773L11.092857142857142,7.479289321881345L11.550717893309915,7.021428571428571L11.76500360759563,7.021428571428571L11.979289321881346,6.807142857142857z" stroke="none"/><path d="M20.336432179024204,10.664285714285715L20.521428571428572,10.479289321881346L20.521428571428572,10.050717893309915L20.76500360759563,9.807142857142857L20.979289321881346,9.807142857142857L21.407860750452773,9.378571428571426L22.69357503616706,9.378571428571426L23.550717893309915,8.521428571428569L24.19357503616706,8.521428571428569L24.407860750452773,8.307142857142857L24.62214646473849,8.307142857142857L25.46464466094067,7.464644660940673L25.53535533905933,7.535355339059327L24.663567820975796,8.407142857142858L24.44928210669008,8.407142857142858L24.23499639240437,8.62142857142857L23.592139249547223,8.62142857142857L22.73499639240437,9.478571428571428L21.44928210669008,9.478571428571428L21.020710678118654,9.907142857142858L20.80642496383294,9.907142857142858L20.621428571428574,10.092139249547223L20.621428571428574,10.520710678118654L20.427853535261512,10.714285714285715L20.621428571428574,10.907860750452773L20.621428571428574,11.336432179024204L20.835714285714285,11.550717893309915L20.835714285714285,11.76500360759563L21.03535533905933,11.964644660940673L20.96464466094067,12.035355339059327L20.735714285714284,11.806424963832939L20.735714285714284,11.592139249547223L20.521428571428572,11.377853535261512L20.521428571428572,10.949282106690081L20.40714285714286,10.83499639240437L20.40714285714286,11.76500360759563L20.80642496383294,12.164285714285715L22.05071789330992,12.164285714285715L22.26500360759563,11.95L22.5,11.95L22.5,12.05L22.30642496383294,12.05L22.092139249547227,12.264285714285716L20.76500360759563,12.264285714285716L20.307142857142857,11.806424963832939L20.307142857142857,10.764285714285716L17.163567820975796,10.764285714285716L16.94928210669008,10.978571428571428L15.23499639240437,10.978571428571428L15.020710678118654,11.192857142857143L14.806424963832939,11.192857142857143L14.163567820975796,11.835714285714285L13.949282106690081,11.835714285714285L13.73499639240437,12.05L13.5,12.05L13.5,11.95L13.693575036167061,11.95L13.907860750452773,11.735714285714284L14.122146464738488,11.735714285714284L14.76500360759563,11.092857142857142L14.979289321881346,11.092857142857142L15.193575036167061,10.878571428571426L16.907860750452773,10.878571428571426L17.12214646473849,10.664285714285715z" stroke="none"/><path d="M18.59285714285714,5.550717893309916L18.836432179024204,5.307142857142857L24.407860750452773,5.307142857142857L25.26500360759563,4.45L25.5,4.45L25.5,4.55L25.30642496383294,4.55L24.44928210669008,5.407142857142857L18.87785353526151,5.407142857142857L18.692857142857143,5.592139249547226L18.692857142857143,5.879289321881346L19.05071789330992,5.521428571428571L21.44928210669008,5.521428571428571L21.663567820975796,5.735714285714286L22.092139249547227,5.735714285714286L22.30642496383294,5.95L22.5,5.95L22.5,6.05L22.26500360759563,6.05L22.05071789330992,5.835714285714285L21.62214646473849,5.835714285714285L21.407860750452773,5.621428571428571L19.092139249547227,5.621428571428571L18.763567820975798,5.95L18.87785353526151,5.95L19.121428571428574,6.19357503616706L19.121428571428574,6.407860750452773L19.30642496383294,6.5928571428571425L21.020710678118654,6.5928571428571425L21.478571428571428,7.050717893309916L21.478571428571428,7.949282106690083L21.23499639240437,8.192857142857143L16.26500360759563,8.192857142857143L16.050717893309915,7.978571428571428L15.836432179024204,7.978571428571428L15.622146464738488,7.764285714285714L14.76500360759563,7.764285714285714L14.550717893309915,7.55L13.5,7.55L13.5,7.45L14.592139249547223,7.45L14.806424963832939,7.664285714285715L15.663567820975796,7.664285714285715L15.877853535261512,7.878571428571428L16.092139249547223,7.878571428571428L16.30642496383294,8.092857142857142L21.19357503616706,8.092857142857142L21.378571428571426,7.907860750452773L21.378571428571426,7.092139249547226L20.979289321881346,6.692857142857142L19.26500360759563,6.692857142857142L19.021428571428572,6.449282106690083L19.021428571428572,6.234996392404369L18.836432179024204,6.05L18.692857142857143,6.05L18.692857142857143,6.234996392404369L18.44928210669008,6.478571428571428L14.122146464738488,6.478571428571428L13.693575036167061,6.05L13.5,6.05L13.5,5.95L13.73499639240437,5.95L14.163567820975796,6.378571428571428L18.407860750452773,6.378571428571428L18.59285714285714,6.19357503616706z" stroke="none"/><path d="M10.45,6.5928571428571425L10.45,5.592139249547226L10.021428571428569,5.163567820975797L10.021428571428569,4.050717893309916L10.26500360759563,3.8071428571428574L11.163567820975796,3.8071428571428574L11.377853535261512,4.021428571428571L11.592139249547223,4.021428571428571L11.806424963832939,4.235714285714286L12.020710678118654,4.235714285714286L12.449282106690081,4.664285714285715L13.520710678118654,4.664285714285715L14.377853535261512,5.521428571428571L14.592139249547223,5.521428571428571L15.035355339059327,5.964644660940673L14.964644660940673,6.035355339059327L14.550717893309915,5.621428571428571L14.336432179024204,5.621428571428571L13.479289321881346,4.764285714285714L12.407860750452773,4.764285714285714L11.979289321881346,4.335714285714285L11.76500360759563,4.335714285714285L11.550717893309915,4.121428571428571L11.336432179024204,4.121428571428571L11.122146464738488,3.907142857142857L10.306424963832939,3.907142857142857L10.12142857142857,4.092139249547226L10.12142857142857,5.122146464738488L10.55,5.550717893309916L10.55,6.5928571428571425L10.73499639240437,6.5928571428571425L10.978571428571428,6.836432179024202L10.978571428571428,7.092139249547226L10.73499639240437,7.335714285714285L10.092139249547223,7.335714285714285L9.877853535261512,7.55L8.377853535261512,7.55L8.163567820975796,7.764285714285714L7.949282106690083,7.764285714285714L7.520710678118655,8.192857142857143L5.80642496383294,8.192857142857143L5.592139249547226,8.407142857142858L5.3778535352615116,8.407142857142858L4.734996392404369,9.05L4.5,9.05L4.5,8.95L4.69357503616706,8.95L5.336432179024202,8.307142857142857L5.550717893309916,8.307142857142857L5.765003607595631,8.092857142857142L7.479289321881345,8.092857142857142L7.907860750452773,7.664285714285715L8.122146464738488,7.664285714285715L8.336432179024204,7.45L9.836432179024204,7.45L10.050717893309915,7.235714285714286L10.693575036167061,7.235714285714286L10.878571428571426,7.050717893309916L10.878571428571426,6.8778535352615116L10.693575036167061,6.692857142857142L10.55,6.692857142857142L10.55,6.8778535352615116L10.306424963832939,7.121428571428571L9.449282106690081,7.121428571428571L9.23499639240437,7.335714285714285L7.949282106690083,7.335714285714285L7.30642496383294,7.978571428571428L5.979289321881345,7.978571428571428L5.735714285714286,7.734996392404369L5.735714285714286,7.265003607595631L9.407860750452773,3.592857142857143L14.163567820975796,3.592857142857143L14.592139249547223,4.021428571428571L15.020710678118654,4.021428571428571L15.23499639240437,4.235714285714286L15.877853535261512,4.235714285714286L16.092139249547223,4.45L16.5,4.45L16.5,4.55L16.050717893309915,4.55L15.836432179024204,4.335714285714285L15.193575036167061,4.335714285714285L14.979289321881346,4.121428571428571L14.550717893309915,4.121428571428571L14.122146464738488,3.6928571428571426L9.449282106690081,3.6928571428571426L5.835714285714285,7.30642496383294L5.835714285714285,7.69357503616706L6.020710678118655,7.878571428571428L7.265003607595631,7.878571428571428L7.907860750452773,7.235714285714286L9.193575036167061,7.235714285714286L9.407860750452773,7.021428571428571L10.26500360759563,7.021428571428571L10.45,6.836432179024202L10.45,6.692857142857142L9.449282106690081,6.692857142857142L9.23499639240437,6.907142857142857L9.020710678118654,6.907142857142857L8.806424963832939,7.121428571428571L7.734996392404369,7.121428571428571L7.520710678118655,7.335714285714285L6.449282106690083,7.335714285714285L6.234996392404369,7.55L6,7.55L6,7.45L6.19357503616706,7.45L6.407860750452773,7.235714285714286L7.479289321881345,7.235714285714286L7.69357503616706,7.021428571428571L8.76500360759563,7.021428571428571L8.979289321881346,6.807142857142857L9.193575036167061,6.807142857142857L9.407860750452773,6.5928571428571425z" stroke="none"/><path d="M3.05,7.5L2.95,7.5L2.95,6L3.05,6z" stroke="none"/><path d="M6,10.45L6,10.55L4.5,10.55L4.5,10.45z" stroke="none"/><path d="M18,11.95L18,12.05L16.5,12.05L16.5,11.95z" stroke="none"/><path d="M21,2.95L21,3.05L19.5,3.05L19.5,2.95z" stroke="none"/><path d="M9.05,12L8.95,12L8.95,10.5L9.05,10.5z" stroke="none"/><path d="M6,11.95L6,12.05L4.5,12.05L4.5,11.95z" stroke="none"/><path d="M16.46464466094067,3.0353553390593273L16.53535533905933,2.9646446609406727L18.03535533905933,4.464644660940673L17.96464466094067,4.535355339059327z" stroke="none"/><path d="M25.46464466094067,2.9646446609406727L25.53535533905933,3.0353553390593273L24.03535533905933,4.535355339059327L23.96464466094067,4.464644660940673z" stroke="none"/><path d="M26.96464466094067,8.964644660940673L27.03535533905933,9.035355339059327L25.53535533905933,10.535355339059327L25.46464466094067,10.464644660940673z" stroke="none"/><path d="M4.5,4.55L4.5,4.45L4.949282106690084,4.45L5.3778535352615116,4.878571428571429L6.622146464738488,4.878571428571429L6.836432179024202,4.664285714285715L7.050717893309916,4.664285714285715L7.265003607595631,4.45L7.5,4.45L7.5,4.55L7.30642496383294,4.55L7.092139249547226,4.764285714285714L6.8778535352615116,4.764285714285714L6.663567820975797,4.978571428571429L5.336432179024202,4.978571428571429L4.907860750452774,4.55z" stroke="none"/><path d="M27.03535533905933,2.9646446609406727L26.96464466094067,3.0353553390593273L26.76500360759563,2.8357142857142854L26.550717893309915,2.8357142857142854L26.336432179024204,2.6214285714285714L24.44928210669008,2.6214285714285714L24.03535533905933,3.0353553390593273L23.96464466094067,2.9646446609406727L24.407860750452773,2.521428571428572L26.37785353526151,2.521428571428572L26.592139249547223,2.7357142857142858L26.80642496383294,2.7357142857142858z" stroke="none"/><path d="M25.53535533905933,9.035355339059327L25.46464466094067,8.964644660940673L26.52142857142857,7.907860750452773L26.52142857142857,7.479289321881345L26.735714285714284,7.265003607595631L26.735714285714284,6.836432179024202L26.95,6.622146464738488L26.95,6L27.05,6L27.05,6.663567820975797L26.835714285714285,6.8778535352615116L26.835714285714285,7.30642496383294L26.62142857142857,7.520710678118655L26.62142857142857,7.949282106690083z" stroke="none"/><path d="M4.464644660940673,2.9646446609406727L4.535355339059327,3.0353553390593273L4.335714285714285,3.234996392404369L4.335714285714285,3.877853535261512L4.121428571428571,4.092139249547226L4.121428571428571,6.622146464738488L4.335714285714285,6.836432179024202L4.335714285714285,7.050717893309916L4.55,7.265003607595631L4.55,7.5L4.45,7.5L4.45,7.30642496383294L4.235714285714286,7.092139249547226L4.235714285714286,6.8778535352615116L4.021428571428571,6.663567820975797L4.021428571428571,4.050717893309916L4.235714285714286,3.8364321790242024L4.235714285714286,3.1935750361670596z" stroke="none"/><path d="M3.0353553390593273,8.964644660940673L2.9646446609406727,9.035355339059327L2.7357142857142858,8.806424963832939L2.7357142857142858,8.163567820975796L2.521428571428572,7.949282106690083L2.521428571428572,4.907860750452774L2.9646446609406727,4.464644660940673L3.0353553390593273,4.535355339059327L2.6214285714285714,4.949282106690084L2.6214285714285714,7.907860750452773L2.8357142857142854,8.122146464738488L2.8357142857142854,8.76500360759563z" stroke="none"/><path d="M18,8.95L18,9.05L17.80642496383294,9.05L17.592139249547227,9.264285714285716L17.37785353526151,9.264285714285716L16.94928210669008,9.692857142857143L15.877853535261512,9.692857142857143L15.23499639240437,10.335714285714285L13.949282106690081,10.335714285714285L13.73499639240437,10.55L13.5,10.55L13.5,10.45L13.693575036167061,10.45L13.907860750452773,10.235714285714284L15.193575036167061,10.235714285714284L15.836432179024204,9.592857142857142L16.907860750452773,9.592857142857142L17.336432179024204,9.164285714285715L17.55071789330992,9.164285714285715L17.76500360759563,8.95z" stroke="none"/><path d="M18.03535533905933,6.035355339059327L17.96464466094067,5.964644660940673L18.378571428571426,5.550717893309916L18.378571428571426,5.336432179024202L18.62214646473849,5.0928571428571425L24.19357503616706,5.0928571428571425L24.59285714285714,4.69357503616706L24.59285714285714,4.479289321881345L25.050717893309915,4.021428571428571L25.94928210669008,4.021428571428571L26.192857142857143,4.265003607595631L26.192857142857143,7.520710678118655L25.978571428571428,7.734996392404369L25.978571428571428,7.949282106690083L25.73499639240437,8.192857142857143L25.520710678118654,8.192857142857143L25.12142857142857,8.592139249547223L25.12142857142857,10.907860750452773L25.30642496383294,11.092857142857142L25.520710678118654,11.092857142857142L25.978571428571428,11.550717893309915L25.978571428571428,12.449282106690081L25.73499639240437,12.692857142857143L23.76500360759563,12.692857142857143L23.52142857142857,12.449282106690081L23.52142857142857,12.23499639240437L22.479289321881346,11.192857142857143L21.836432179024204,11.192857142857143L21.19357503616706,10.55L21,10.55L21,10.45L21.23499639240437,10.45L21.87785353526151,11.092857142857142L22.520710678118654,11.092857142857142L23.62142857142857,12.193575036167061L23.62142857142857,12.407860750452773L23.80642496383294,12.592857142857142L25.69357503616706,12.592857142857142L25.878571428571426,12.407860750452773L25.878571428571426,11.592139249547223L25.479289321881346,11.192857142857143L25.26500360759563,11.192857142857143L25.02142857142857,10.949282106690081L25.02142857142857,8.550717893309915L25.479289321881346,8.092857142857142L25.69357503616706,8.092857142857142L25.878571428571426,7.907860750452773L25.878571428571426,7.69357503616706L26.09285714285714,7.479289321881345L26.09285714285714,4.30642496383294L25.907860750452773,4.121428571428571L25.092139249547223,4.121428571428571L24.692857142857143,4.520710678118655L24.692857142857143,4.734996392404369L24.23499639240437,5.192857142857142L18.663567820975796,5.192857142857142L18.478571428571428,5.3778535352615116L18.478571428571428,5.592139249547226z" stroke="none"/><path d="M6,3.05L6,2.95L6.449282106690083,2.95L6.8778535352615116,3.3785714285714286L9.193575036167061,3.3785714285714286L9.407860750452773,3.1642857142857146L10.479289321881346,3.1642857142857146L10.693575036167061,2.95L12,2.95L12,3.05L10.73499639240437,3.05L10.520710678118654,3.2642857142857142L9.449282106690081,3.2642857142857142L9.23499639240437,3.478571428571428L6.836432179024202,3.478571428571428L6.407860750452773,3.05z" stroke="none"/><path d="M25.46464466094067,5.964644660940673L25.53535533905933,6.035355339059327L24.87785353526151,6.692857142857142L24.663567820975796,6.692857142857142L23.37785353526151,7.978571428571428L23.163567820975796,7.978571428571428L22.94928210669008,8.192857142857143L22.73499639240437,8.192857142857143L22.520710678118654,8.407142857142858L20.592139249547227,8.407142857142858L19.94928210669008,9.05L19.5,9.05L19.5,8.95L19.907860750452773,8.95L20.55071789330992,8.307142857142857L22.479289321881346,8.307142857142857L22.69357503616706,8.092857142857142L22.907860750452773,8.092857142857142L23.12214646473849,7.878571428571428L23.336432179024204,7.878571428571428L24.62214646473849,6.5928571428571425L24.836432179024204,6.5928571428571425z" stroke="none"/><path d="M15,11.95L15,12.05L14.592139249547223,12.05L14.377853535261512,12.264285714285716L14.163567820975796,12.264285714285716L13.949282106690081,12.478571428571428L13.050717893309915,12.478571428571428L11.979289321881346,11.407142857142858L11.76500360759563,11.407142857142858L11.336432179024204,10.978571428571428L10.479289321881346,10.978571428571428L9.836432179024204,10.335714285714285L9.622146464738488,10.335714285714285L9.407860750452773,10.12142857142857L8.592139249547223,10.12142857142857L8.377853535261512,10.335714285714285L7.734996392404369,10.335714285714285L7.535355339059327,10.535355339059327L7.464644660940673,10.464644660940673L7.69357503616706,10.235714285714284L8.336432179024204,10.235714285714284L8.550717893309915,10.021428571428569L9.449282106690081,10.021428571428569L9.663567820975796,10.235714285714284L9.877853535261512,10.235714285714284L10.520710678118654,10.878571428571426L11.377853535261512,10.878571428571426L11.806424963832939,11.307142857142857L12.020710678118654,11.307142857142857L13.092139249547223,12.378571428571426L13.907860750452773,12.378571428571426L14.122146464738488,12.164285714285715L14.336432179024204,12.164285714285715L14.550717893309915,11.95z" stroke="none"/><path d="M6.035355339059327,4.464644660940673L5.964644660940673,4.535355339059327L5.735714285714286,4.30642496383294L5.735714285714286,3.6635678209757976L5.521428571428571,3.449282106690083L5.521428571428571,2.550717893309917L5.765003607595631,2.3071428571428574L13.73499639240437,2.3071428571428574L13.949282106690081,2.521428571428572L14.163567820975796,2.521428571428572L14.592139249547223,2.95L15,2.95L15,3.05L14.550717893309915,3.05L14.122146464738488,2.6214285714285714L13.907860750452773,2.6214285714285714L13.693575036167061,2.407142857142857L5.80642496383294,2.407142857142857L5.621428571428571,2.5921392495472264L5.621428571428571,3.4078607504527736L5.835714285714285,3.622146464738488L5.835714285714285,4.265003607595631z" stroke="none"/><path d="M27.03535533905933,4.535355339059327L26.96464466094067,4.464644660940673L27.164285714285715,4.265003607595631L27.164285714285715,3.8364321790242024L27.378571428571426,3.622146464738488L27.378571428571426,2.5921392495472264L27.19357503616706,2.407142857142857L18.87785353526151,2.407142857142857L18.44928210669008,2.8357142857142854L18.23499639240437,2.8357142857142854L18.03535533905933,3.0353553390593273L17.96464466094067,2.9646446609406727L18.19357503616706,2.7357142857142858L18.407860750452773,2.7357142857142858L18.836432179024204,2.3071428571428574L27.23499639240437,2.3071428571428574L27.478571428571428,2.550717893309917L27.478571428571428,3.6635678209757976L27.264285714285716,3.877853535261512L27.264285714285716,4.30642496383294z" stroke="none"/><path d="M7.5,3.05L7.5,2.95L10.26500360759563,2.95L10.479289321881346,2.7357142857142858L10.907860750452773,2.7357142857142858L11.122146464738488,2.521428571428572L13.306424963832939,2.521428571428572L13.520710678118654,2.7357142857142858L13.73499639240437,2.7357142857142858L13.949282106690081,2.95L14.163567820975796,2.95L14.592139249547223,3.3785714285714286L16.092139249547223,3.3785714285714286L16.520710678118654,3.8071428571428574L16.73499639240437,3.8071428571428574L16.978571428571428,4.050717893309916L16.978571428571428,5.163567820975797L16.764285714285716,5.3778535352615116L16.764285714285716,5.80642496383294L16.53535533905933,6.035355339059327L16.46464466094067,5.964644660940673L16.664285714285715,5.765003607595631L16.664285714285715,5.336432179024202L16.878571428571426,5.122146464738488L16.878571428571426,4.092139249547226L16.69357503616706,3.907142857142857L16.479289321881346,3.907142857142857L16.050717893309915,3.478571428571428L14.550717893309915,3.478571428571428L14.122146464738488,3.05L13.907860750452773,3.05L13.693575036167061,2.8357142857142854L13.479289321881346,2.8357142857142854L13.26500360759563,2.6214285714285714L11.163567820975796,2.6214285714285714L10.949282106690081,2.8357142857142854L10.520710678118654,2.8357142857142854L10.306424963832939,3.05z" stroke="none"/><path d="M19.5,6.05L19.5,5.95L21.44928210669008,5.95L21.663567820975796,6.164285714285715L21.87785353526151,6.164285714285715L22.092139249547227,6.378571428571428L23.336432179024204,6.378571428571428L23.76500360759563,5.95L23.979289321881346,5.95L24.19357503616706,5.735714285714286L24.836432179024204,5.735714285714286L25.050717893309915,5.521428571428571L25.26500360759563,5.521428571428571L25.479289321881346,5.307142857142857L25.73499639240437,5.307142857142857L25.978571428571428,5.550717893309916L25.978571428571428,6.449282106690083L25.520710678118654,6.907142857142857L25.30642496383294,6.907142857142857L25.092139249547223,7.121428571428571L24.87785353526151,7.121428571428571L24.44928210669008,7.55L24.23499639240437,7.55L23.592139249547223,8.192857142857143L23.37785353526151,8.192857142857143L22.94928210669008,8.62142857142857L22.092139249547227,8.62142857142857L21.87785353526151,8.835714285714285L21.44928210669008,8.835714285714285L21.23499639240437,9.05L21.020710678118654,9.05L20.80642496383294,9.264285714285716L20.37785353526151,9.264285714285716L20.163567820975796,9.478571428571428L17.80642496383294,9.478571428571428L17.592139249547227,9.692857142857143L17.37785353526151,9.692857142857143L17.163567820975796,9.907142857142858L16.30642496383294,9.907142857142858L15.877853535261512,10.335714285714285L15.663567820975796,10.335714285714285L15.449282106690081,10.55L14.592139249547223,10.55L14.377853535261512,10.764285714285716L14.163567820975796,10.764285714285716L13.949282106690081,10.978571428571428L13.050717893309915,10.978571428571428L12.193575036167061,10.12142857142857L11.979289321881346,10.12142857142857L11.76500360759563,9.907142857142858L10.26500360759563,9.907142857142858L9.622146464738488,9.264285714285716L7.69357503616706,9.264285714285716L7.464644660940673,9.035355339059327L7.535355339059327,8.964644660940673L7.734996392404369,9.164285714285715L9.663567820975796,9.164285714285715L10.306424963832939,9.807142857142857L11.806424963832939,9.807142857142857L12.020710678118654,10.021428571428569L12.23499639240437,10.021428571428569L13.092139249547223,10.878571428571426L13.907860750452773,10.878571428571426L14.122146464738488,10.664285714285715L14.336432179024204,10.664285714285715L14.550717893309915,10.45L15.407860750452773,10.45L15.622146464738488,10.235714285714284L15.836432179024204,10.235714285714284L16.26500360759563,9.807142857142857L17.12214646473849,9.807142857142857L17.336432179024204,9.592857142857142L17.55071789330992,9.592857142857142L17.76500360759563,9.378571428571426L20.12214646473849,9.378571428571426L20.336432179024204,9.164285714285715L20.76500360759563,9.164285714285715L20.979289321881346,8.95L21.19357503616706,8.95L21.407860750452773,8.735714285714284L21.836432179024204,8.735714285714284L22.05071789330992,8.521428571428569L22.907860750452773,8.521428571428569L23.336432179024204,8.092857142857142L23.550717893309915,8.092857142857142L24.19357503616706,7.45L24.407860750452773,7.45L24.836432179024204,7.021428571428571L25.050717893309915,7.021428571428571L25.26500360759563,6.807142857142857L25.479289321881346,6.807142857142857L25.878571428571426,6.407860750452773L25.878571428571426,5.592139249547226L25.69357503616706,5.407142857142857L25.520710678118654,5.407142857142857L25.30642496383294,5.621428571428571L25.092139249547223,5.621428571428571L24.87785353526151,5.835714285714285L24.23499639240437,5.835714285714285L24.020710678118654,6.05L23.80642496383294,6.05L23.37785353526151,6.478571428571428L22.05071789330992,6.478571428571428L21.836432179024204,6.264285714285714L21.62214646473849,6.264285714285714L21.407860750452773,6.05z" stroke="none"/><path d="M4.45,6L4.55,6L4.55,6.407860750452773L4.978571428571429,6.836432179024202L4.978571428571429,7.949282106690083L4.734996392404369,8.192857142857143L4.520710678118655,8.192857142857143L4.121428571428571,8.592139249547223L4.121428571428571,9.407860750452773L4.30642496383294,9.592857142857142L9.449282106690081,9.592857142857142L9.877853535261512,10.021428571428569L10.092139249547223,10.021428571428569L10.306424963832939,10.235714285714284L10.520710678118654,10.235714285714284L10.949282106690081,10.664285714285715L12.020710678118654,10.664285714285715L12.449282106690081,11.092857142857142L14.336432179024204,11.092857142857142L14.76500360759563,10.664285714285715L16.050717893309915,10.664285714285715L16.26500360759563,10.45L16.5,10.45L16.5,10.55L16.30642496383294,10.55L16.092139249547223,10.764285714285716L14.806424963832939,10.764285714285716L14.377853535261512,11.192857142857143L12.407860750452773,11.192857142857143L11.979289321881346,10.764285714285716L10.907860750452773,10.764285714285716L10.479289321881346,10.335714285714285L10.26500360759563,10.335714285714285L10.050717893309915,10.12142857142857L9.836432179024204,10.12142857142857L9.407860750452773,9.692857142857143L4.265003607595631,9.692857142857143L4.021428571428571,9.449282106690081L4.021428571428571,8.550717893309915L4.479289321881345,8.092857142857142L4.69357503616706,8.092857142857142L4.878571428571429,7.907860750452773L4.878571428571429,6.8778535352615116L4.45,6.449282106690083z" stroke="none"/></svg>