<svg version="1.1" width="30" height="15" xmlns="http://www.w3.org/2000/svg"><path d="M3.877853535261512,6.807142857142857L4.050717893309916,6.807142857142857L4.479289321881345,6.378571428571428L4.907860750452774,6.378571428571428L5.122146464738488,6.164285714285715L5.765003607595631,6.164285714285715L5.964644660940673,5.964644660940673L6.035355339059327,6.035355339059327L5.80642496383294,6.264285714285714L5.163567820975797,6.264285714285714L4.949282106690084,6.478571428571428L4.520710678118655,6.478571428571428L4.092139249547226,6.907142857142857L3.907142857142857,6.907142857142857L3.907142857142857,7.30642496383294L3.6928571428571426,7.520710678118655L3.6928571428571426,7.734996392404369L3.2642857142857142,8.163567820975796L3.2642857142857142,8.806424963832939L3.0353553390593273,9.035355339059327L2.9646446609406727,8.964644660940673L3.1642857142857146,8.76500360759563L3.1642857142857146,8.122146464738488L3.592857142857143,7.69357503616706L3.592857142857143,7.479289321881345L3.8071428571428574,7.265003607595631L3.8071428571428574,6.8778535352615116L2.9646446609406727,6.035355339059327L3.0353553390593273,5.964644660940673z" stroke="none"/><path d="M12.877853535261512,8.95L13.26500360759563,8.95L13.907860750452773,8.307142857142857L14.979289321881346,8.307142857142857L17.12214646473849,6.164285714285715L17.55071789330992,6.164285714285715L17.76500360759563,5.95L18,5.95L18,6.05L17.80642496383294,6.05L17.592139249547227,6.264285714285714L17.163567820975796,6.264285714285714L15.020710678118654,8.407142857142858L13.949282106690081,8.407142857142858L13.306424963832939,9.05L12.877853535261512,9.05L12.692857142857143,9.23499639240437L12.692857142857143,9.663567820975796L12.264285714285716,10.092139249547223L12.264285714285716,10.306424963832939L12.035355339059327,10.535355339059327L11.964644660940673,10.464644660940673L12.164285714285715,10.26500360759563L12.164285714285715,10.050717893309915L12.592857142857142,9.622146464738488L12.592857142857142,9.193575036167061L12.786432179024203,9L12.407860750452773,8.62142857142857L11.592139249547223,8.62142857142857L9.877853535261512,10.335714285714285L9.449282106690081,10.335714285714285L9.23499639240437,10.55L9,10.55L9,10.45L9.193575036167061,10.45L9.407860750452773,10.235714285714284L9.836432179024204,10.235714285714284L11.550717893309915,8.521428571428569L12.449282106690081,8.521428571428569z" stroke="none"/><path d="M23.336432179024204,3.8071428571428574L23.550717893309915,3.592857142857143L23.76500360759563,3.592857142857143L23.979289321881346,3.3785714285714286L24.19357503616706,3.3785714285714286L24.407860750452773,3.1642857142857146L25.050717893309915,3.1642857142857146L25.26500360759563,2.95L25.5,2.95L25.5,3.05L25.30642496383294,3.05L25.092139249547223,3.2642857142857142L24.44928210669008,3.2642857142857142L24.23499639240437,3.478571428571428L24.020710678118654,3.478571428571428L23.80642496383294,3.6928571428571426L23.592139249547223,3.6928571428571426L23.477853535261513,3.8071428571428574L24.020710678118654,3.8071428571428574L24.23499639240437,4.021428571428571L24.44928210669008,4.021428571428571L26.163567820975796,5.735714285714286L26.592139249547223,5.735714285714286L26.80642496383294,5.95L27,5.95L27,6.05L26.76500360759563,6.05L26.550717893309915,5.835714285714285L26.12214646473849,5.835714285714285L24.407860750452773,4.121428571428571L24.19357503616706,4.121428571428571L23.979289321881346,3.907142857142857L22.05071789330992,3.907142857142857L21.62214646473849,3.478571428571428L20.12214646473849,3.478571428571428L19.907860750452773,3.2642857142857142L19.05071789330992,3.2642857142857142L18.836432179024204,3.05L18,3.05L18,2.95L18.87785353526151,2.95L19.092139249547227,3.1642857142857146L19.94928210669008,3.1642857142857146L20.163567820975796,3.3785714285714286L21.663567820975796,3.3785714285714286L22.092139249547227,3.8071428571428574z" stroke="none"/><path d="M23.52142857142857,10.021428571428569L23.52142857142857,9.836432179024204L23.735714285714284,9.622146464738488L23.735714285714284,9.407860750452773L23.95,9.193575036167061L23.95,9L24.05,9L24.05,9.23499639240437L23.835714285714285,9.449282106690081L23.835714285714285,9.663567820975796L23.62142857142857,9.877853535261512L23.62142857142857,10.021428571428569L24.23499639240437,10.021428571428569L24.44928210669008,10.235714285714284L24.663567820975796,10.235714285714284L24.87785353526151,10.45L25.5,10.45L25.5,10.55L24.836432179024204,10.55L24.62214646473849,10.335714285714285L24.407860750452773,10.335714285714285L24.19357503616706,10.12142857142857L23.62142857142857,10.12142857142857L23.62142857142857,10.26500360759563L23.80642496383294,10.45L24.44928210669008,10.45L24.663567820975796,10.664285714285715L26.12214646473849,10.664285714285715L26.336432179024204,10.45L27,10.45L27,10.55L26.37785353526151,10.55L26.163567820975796,10.764285714285716L24.62214646473849,10.764285714285716L24.407860750452773,10.55L23.76500360759563,10.55L23.52142857142857,10.306424963832939L23.52142857142857,10.12142857142857L18.87785353526151,10.12142857142857L18.44928210669008,10.55L18,10.55L18,10.45L18.407860750452773,10.45L18.836432179024204,10.021428571428569z" stroke="none"/><path d="M21.214285714285715,6.572146464738488L21.407860750452773,6.378571428571428L21.62214646473849,6.378571428571428L21.836432179024204,6.164285714285715L22.05071789330992,6.164285714285715L22.26500360759563,5.95L22.5,5.95L22.5,6.05L22.30642496383294,6.05L22.092139249547227,6.264285714285714L21.87785353526151,6.264285714285714L21.663567820975796,6.478571428571428L21.44928210669008,6.478571428571428L21.33499639240437,6.5928571428571425L25.73499639240437,6.5928571428571425L25.94928210669008,6.807142857142857L26.37785353526151,6.807142857142857L27.03535533905933,7.464644660940673L26.96464466094067,7.535355339059327L26.336432179024204,6.907142857142857L25.907860750452773,6.907142857142857L25.69357503616706,6.692857142857142L21.264285714285716,6.692857142857142L21.264285714285716,8.592139249547223L21.05,8.806424963832939L21.05,9L20.95,9L20.95,8.76500360759563L21.164285714285715,8.550717893309915L21.164285714285715,6.663567820975797L20.307142857142857,5.80642496383294L20.307142857142857,4.520710678118655L19.907860750452773,4.121428571428571L16.092139249547223,4.121428571428571L15.877853535261512,4.335714285714285L15.23499639240437,4.335714285714285L15.035355339059327,4.535355339059327L14.964644660940673,4.464644660940673L15.193575036167061,4.235714285714286L15.836432179024204,4.235714285714286L16.050717893309915,4.021428571428571L19.94928210669008,4.021428571428571L20.40714285714286,4.479289321881345L20.40714285714286,5.765003607595631z" stroke="none"/><path d="M15.164285714285715,5.95L15.164285714285715,5.765003607595631L15.407860750452773,5.521428571428571L15.622146464738488,5.521428571428571L15.836432179024204,5.307142857142857L17.979289321881346,5.307142857142857L18.836432179024204,4.45L19.5,4.45L19.5,4.55L18.87785353526151,4.55L18.020710678118654,5.407142857142857L15.877853535261512,5.407142857142857L15.663567820975796,5.621428571428571L15.449282106690081,5.621428571428571L15.264285714285716,5.80642496383294L15.264285714285716,5.95L15.622146464738488,5.95L16.050717893309915,5.521428571428571L18.44928210669008,5.521428571428571L18.692857142857143,5.765003607595631L18.692857142857143,6.020710678118655L18.478571428571428,6.234996392404369L18.478571428571428,6.449282106690083L18.264285714285716,6.663567820975797L18.264285714285716,7.30642496383294L18.03535533905933,7.535355339059327L17.96464466094067,7.464644660940673L18.164285714285715,7.265003607595631L18.164285714285715,6.622146464738488L18.378571428571426,6.407860750452773L18.378571428571426,6.19357503616706L18.59285714285714,5.979289321881345L18.59285714285714,5.80642496383294L18.407860750452773,5.621428571428571L16.092139249547223,5.621428571428571L15.663567820975796,6.05L15.23499639240437,6.05L13.949282106690081,7.335714285714285L12.877853535261512,7.335714285714285L12.663567820975796,7.55L12,7.55L12,7.45L12.622146464738488,7.45L12.836432179024204,7.235714285714286L13.907860750452773,7.235714285714286L15.09357503616706,6.05L14.550717893309915,6.05L13.479289321881346,4.978571428571429L13.26500360759563,4.978571428571429L13.050717893309915,4.764285714285714L12.193575036167061,4.764285714285714L11.964644660940673,4.535355339059327L12.035355339059327,4.464644660940673L12.23499639240437,4.664285714285715L13.092139249547223,4.664285714285715L13.306424963832939,4.878571428571429L13.520710678118654,4.878571428571429L14.592139249547223,5.95z" stroke="none"/><path d="M12,11.95L12,12.05L10.5,12.05L10.5,11.95z" stroke="none"/><path d="M24,12.05L24,11.95L25.5,11.95L25.5,12.05z" stroke="none"/><path d="M2.95,10.5L3.05,10.5L3.05,12L2.95,12z" stroke="none"/><path d="M4.45,9L4.55,9L4.55,10.5L4.45,10.5z" stroke="none"/><path d="M24,6.05L24,5.95L25.5,5.95L25.5,6.05z" stroke="none"/><path d="M7.55,10.5L7.45,10.5L7.45,9L7.55,9z" stroke="none"/><path d="M7.464644660940673,6.035355339059327L7.535355339059327,5.964644660940673L9.035355339059327,7.464644660940673L8.964644660940673,7.535355339059327z" stroke="none"/><path d="M9.035355339059327,9.035355339059327L8.964644660940673,8.964644660940673L10.464644660940673,7.464644660940673L10.535355339059327,7.535355339059327z" stroke="none"/><path d="M4.5,6.05L4.5,5.95L5.122146464738488,5.95L5.550717893309916,5.521428571428571L6.449282106690083,5.521428571428571L6.692857142857142,5.765003607595631L6.692857142857142,6.020710678118655L6.478571428571428,6.234996392404369L6.478571428571428,6.449282106690083L6.264285714285714,6.663567820975797L6.264285714285714,7.30642496383294L6.035355339059327,7.535355339059327L5.964644660940673,7.464644660940673L6.164285714285715,7.265003607595631L6.164285714285715,6.622146464738488L6.378571428571428,6.407860750452773L6.378571428571428,6.19357503616706L6.5928571428571425,5.979289321881345L6.5928571428571425,5.80642496383294L6.407860750452773,5.621428571428571L5.592139249547226,5.621428571428571L5.163567820975797,6.05z" stroke="none"/><path d="M7.535355339059327,11.964644660940673L7.464644660940673,12.035355339059327L5.964644660940673,10.535355339059327L6.035355339059327,10.464644660940673z" stroke="none"/><path d="M23.96464466094067,7.464644660940673L24.03535533905933,7.535355339059327L22.53535533905933,9.035355339059327L22.46464466094067,8.964644660940673z" stroke="none"/><path d="M8.95,3L9.05,3L9.05,6L8.95,6z" stroke="none"/><path d="M19.5,8.95L19.5,9.05L16.5,9.05L16.5,8.95z" stroke="none"/><path d="M22.5,11.95L22.5,12.05L19.5,12.05L19.5,11.95z" stroke="none"/><path d="M4.464644660940673,3.0353553390593273L4.535355339059327,2.9646446609406727L6.907142857142857,5.336432179024202L6.907142857142857,7.520710678118655L6.449282106690083,7.978571428571428L5.122146464738488,7.978571428571428L4.69357503616706,7.55L4.5,7.55L4.5,7.45L4.734996392404369,7.45L5.163567820975797,7.878571428571428L6.407860750452773,7.878571428571428L6.807142857142857,7.479289321881345L6.807142857142857,5.3778535352615116z" stroke="none"/><path d="M22.45,4.5L22.55,4.5L22.55,4.69357503616706L22.764285714285716,4.907860750452774L22.764285714285716,5.336432179024202L23.40714285714286,5.979289321881345L23.40714285714286,6.19357503616706L23.592139249547223,6.378571428571428L27.407860750452773,6.378571428571428L27.59285714285714,6.19357503616706L27.59285714285714,4.520710678118655L27.378571428571426,4.30642496383294L27.378571428571426,3.877853535261512L27.164285714285715,3.6635678209757976L27.164285714285715,3.449282106690083L26.95,3.234996392404369L26.95,3L27.05,3L27.05,3.1935750361670596L27.264285714285716,3.4078607504527736L27.264285714285716,3.622146464738488L27.478571428571428,3.8364321790242024L27.478571428571428,4.265003607595631L27.692857142857143,4.479289321881345L27.692857142857143,6.234996392404369L27.44928210669008,6.478571428571428L23.550717893309915,6.478571428571428L23.307142857142857,6.234996392404369L23.307142857142857,6.020710678118655L22.664285714285715,5.3778535352615116L22.664285714285715,4.949282106690084L22.45,4.734996392404369z" stroke="none"/><path d="M21.03535533905933,4.464644660940673L20.96464466094067,4.535355339059327L20.55071789330992,4.121428571428571L20.336432179024204,4.121428571428571L20.12214646473849,3.907142857142857L11.806424963832939,3.907142857142857L11.62142857142857,4.092139249547226L11.62142857142857,7.907860750452773L11.806424963832939,8.092857142857142L12.836432179024204,8.092857142857142L13.479289321881346,7.45L14.122146464738488,7.45L14.550717893309915,7.021428571428571L14.979289321881346,7.021428571428571L15.193575036167061,6.807142857142857L15.407860750452773,6.807142857142857L16.26500360759563,5.95L16.5,5.95L16.5,6.05L16.30642496383294,6.05L15.449282106690081,6.907142857142857L15.23499639240437,6.907142857142857L15.020710678118654,7.121428571428571L14.592139249547223,7.121428571428571L14.163567820975796,7.55L13.520710678118654,7.55L12.877853535261512,8.192857142857143L11.76500360759563,8.192857142857143L11.521428571428569,7.949282106690083L11.521428571428569,4.050717893309916L11.76500360759563,3.8071428571428574L20.163567820975796,3.8071428571428574L20.37785353526151,4.021428571428571L20.592139249547227,4.021428571428571z" stroke="none"/><path d="M27.05,4.5L26.95,4.5L26.95,4.092139249547226L26.307142857142857,3.449282106690083L26.307142857142857,3.020710678118655L25.907860750452773,2.6214285714285714L21.663567820975796,2.6214285714285714L21.44928210669008,2.8357142857142854L21.23499639240437,2.8357142857142854L21.03535533905933,3.0353553390593273L20.96464466094067,2.9646446609406727L21.19357503616706,2.7357142857142858L21.407860750452773,2.7357142857142858L21.62214646473849,2.521428571428572L25.94928210669008,2.521428571428572L26.40714285714286,2.979289321881345L26.40714285714286,3.4078607504527736L27.05,4.050717893309916z" stroke="none"/><path d="M4.55,4.5L4.45,4.5L4.45,4.092139249547226L4.021428571428571,3.6635678209757976L4.021428571428571,2.550717893309917L4.265003607595631,2.3071428571428574L4.520710678118655,2.3071428571428574L4.734996392404369,2.521428571428572L4.949282106690084,2.521428571428572L8.192857142857143,5.765003607595631L8.192857142857143,5.979289321881345L8.592139249547223,6.378571428571428L9.407860750452773,6.378571428571428L9.622146464738488,6.164285714285715L10.26500360759563,6.164285714285715L10.464644660940673,5.964644660940673L10.535355339059327,6.035355339059327L10.306424963832939,6.264285714285714L9.663567820975796,6.264285714285714L9.449282106690081,6.478571428571428L8.550717893309915,6.478571428571428L8.092857142857142,6.020710678118655L8.092857142857142,5.80642496383294L4.907860750452774,2.6214285714285714L4.69357503616706,2.6214285714285714L4.479289321881345,2.407142857142857L4.30642496383294,2.407142857142857L4.121428571428571,2.5921392495472264L4.121428571428571,3.622146464738488L4.55,4.050717893309916z" stroke="none"/><path d="M22.45,7.5L22.55,7.5L22.55,7.734996392404369L21.90714285714286,8.377853535261512L21.90714285714286,9.020710678118654L21.44928210669008,9.478571428571428L19.520710678118654,9.478571428571428L19.092139249547227,9.907142857142858L18.23499639240437,9.907142857142858L18.020710678118654,10.12142857142857L17.592139249547227,10.12142857142857L17.192857142857143,10.520710678118654L17.192857142857143,10.949282106690081L16.764285714285716,11.377853535261512L16.764285714285716,11.592139249547223L16.55,11.806424963832939L16.55,12L16.45,12L16.45,11.76500360759563L16.664285714285715,11.550717893309915L16.664285714285715,11.336432179024204L17.09285714285714,10.907860750452773L17.09285714285714,10.479289321881346L17.55071789330992,10.021428571428569L17.979289321881346,10.021428571428569L18.19357503616706,9.807142857142857L19.05071789330992,9.807142857142857L19.479289321881346,9.378571428571426L21.407860750452773,9.378571428571426L21.807142857142857,8.979289321881346L21.807142857142857,8.336432179024204L22.45,7.69357503616706z" stroke="none"/><path d="M14.964644660940673,7.464644660940673L15.035355339059327,7.535355339059327L14.592139249547223,7.978571428571428L13.949282106690081,7.978571428571428L13.520710678118654,8.407142857142858L11.377853535261512,8.407142857142858L10.949282106690081,8.835714285714285L10.73499639240437,8.835714285714285L10.520710678118654,9.05L9.877853535261512,9.05L9.23499639240437,9.692857142857143L9.020710678118654,9.692857142857143L8.62142857142857,10.092139249547223L8.62142857142857,10.907860750452773L8.806424963832939,11.092857142857142L13.949282106690081,11.092857142857142L14.163567820975796,11.307142857142857L14.377853535261512,11.307142857142857L14.806424963832939,11.735714285714284L15.020710678118654,11.735714285714284L15.23499639240437,11.95L15.663567820975796,11.95L16.092139249547223,12.378571428571426L18.19357503616706,12.378571428571426L19.05071789330992,11.521428571428569L20.76500360759563,11.521428571428569L21.62214646473849,10.664285714285715L21.836432179024204,10.664285714285715L22.05071789330992,10.45L22.5,10.45L22.5,10.55L22.092139249547227,10.55L21.87785353526151,10.764285714285716L21.663567820975796,10.764285714285716L20.80642496383294,11.62142857142857L19.092139249547227,11.62142857142857L18.23499639240437,12.478571428571428L16.050717893309915,12.478571428571428L15.622146464738488,12.05L15.193575036167061,12.05L14.979289321881346,11.835714285714285L14.76500360759563,11.835714285714285L14.336432179024204,11.407142857142858L14.122146464738488,11.407142857142858L13.907860750452773,11.192857142857143L8.76500360759563,11.192857142857143L8.521428571428569,10.949282106690081L8.521428571428569,10.050717893309915L8.979289321881346,9.592857142857142L9.193575036167061,9.592857142857142L9.836432179024204,8.95L10.479289321881346,8.95L10.693575036167061,8.735714285714284L10.907860750452773,8.735714285714284L11.336432179024204,8.307142857142857L13.479289321881346,8.307142857142857L13.907860750452773,7.878571428571428L14.550717893309915,7.878571428571428z" stroke="none"/><path d="M19.46464466094067,5.964644660940673L19.53535533905933,6.035355339059327L19.121428571428574,6.449282106690083L19.121428571428574,6.663567820975797L18.90714285714286,6.8778535352615116L18.90714285714286,7.30642496383294L18.692857142857143,7.520710678118655L18.692857142857143,7.734996392404369L18.44928210669008,7.978571428571428L18.23499639240437,7.978571428571428L17.80642496383294,8.407142857142858L16.092139249547223,8.407142857142858L15.663567820975796,8.835714285714285L14.592139249547223,8.835714285714285L12.449282106690081,10.978571428571428L11.550717893309915,10.978571428571428L11.307142857142857,10.73499639240437L11.307142857142857,10.26500360759563L11.521428571428569,10.050717893309915L11.521428571428569,9.836432179024204L11.735714285714284,9.622146464738488L11.735714285714284,9.193575036167061L11.964644660940673,8.964644660940673L12.035355339059327,9.035355339059327L11.835714285714285,9.23499639240437L11.835714285714285,9.663567820975796L11.62142857142857,9.877853535261512L11.62142857142857,10.092139249547223L11.407142857142858,10.306424963832939L11.407142857142858,10.693575036167061L11.592139249547223,10.878571428571426L12.407860750452773,10.878571428571426L14.550717893309915,8.735714285714284L15.622146464738488,8.735714285714284L16.050717893309915,8.307142857142857L17.76500360759563,8.307142857142857L18.19357503616706,7.878571428571428L18.407860750452773,7.878571428571428L18.59285714285714,7.69357503616706L18.59285714285714,7.479289321881345L18.807142857142857,7.265003607595631L18.807142857142857,6.836432179024202L19.021428571428572,6.622146464738488L19.021428571428572,6.407860750452773z" stroke="none"/><path d="M2.95,7.5L3.05,7.5L3.05,8.163567820975796L2.6214285714285714,8.592139249547223L2.6214285714285714,9.407860750452773L3.234996392404369,10.021428571428569L3.449282106690083,10.021428571428569L3.907142857142857,10.479289321881346L3.907142857142857,10.693575036167061L4.092139249547226,10.878571428571426L5.592139249547226,10.878571428571426L7.092139249547226,12.378571428571426L12.407860750452773,12.378571428571426L12.622146464738488,12.164285714285715L13.26500360759563,12.164285714285715L13.464644660940673,11.964644660940673L13.535355339059327,12.035355339059327L13.306424963832939,12.264285714285716L12.663567820975796,12.264285714285716L12.449282106690081,12.478571428571428L7.050717893309916,12.478571428571428L5.550717893309916,10.978571428571428L4.050717893309916,10.978571428571428L3.8071428571428574,10.73499639240437L3.8071428571428574,10.520710678118654L3.4078607504527736,10.12142857142857L3.1935750361670596,10.12142857142857L2.521428571428572,9.449282106690081L2.521428571428572,8.550717893309915L2.95,8.122146464738488z" stroke="none"/><path d="M12,3.05L12,2.95L16.520710678118654,2.95L16.73499639240437,3.1642857142857146L17.163567820975796,3.1642857142857146L17.37785353526151,3.3785714285714286L19.73499639240437,3.3785714285714286L19.94928210669008,3.592857142857143L21.44928210669008,3.592857142857143L21.87785353526151,4.021428571428571L23.37785353526151,4.021428571428571L23.80642496383294,4.45L24,4.45L24,4.55L23.76500360759563,4.55L23.336432179024204,4.121428571428571L21.836432179024204,4.121428571428571L21.407860750452773,3.6928571428571426L19.907860750452773,3.6928571428571426L19.69357503616706,3.478571428571428L17.336432179024204,3.478571428571428L17.12214646473849,3.2642857142857142L16.69357503616706,3.2642857142857142L16.479289321881346,3.05z" stroke="none"/></svg>