<svg version="1.1" width="30" height="15" xmlns="http://www.w3.org/2000/svg"><path d="M7.949282106690083,6.807142857142857L8.76500360759563,6.807142857142857L8.979289321881346,6.5928571428571425L9.407860750452773,6.5928571428571425L9.622146464738488,6.378571428571428L10.479289321881346,6.378571428571428L10.693575036167061,6.164285714285715L11.122146464738488,6.164285714285715L11.336432179024204,5.95L12,5.95L12,6.05L11.377853535261512,6.05L11.163567820975796,6.264285714285714L10.73499639240437,6.264285714285714L10.520710678118654,6.478571428571428L9.663567820975796,6.478571428571428L9.449282106690081,6.692857142857142L9.020710678118654,6.692857142857142L8.806424963832939,6.907142857142857L8.049282106690082,6.907142857142857L8.377853535261512,7.235714285714286L8.806424963832939,7.235714285714286L9.035355339059327,7.464644660940673L8.964644660940673,7.535355339059327L8.76500360759563,7.335714285714285L8.336432179024204,7.335714285714285L7.050717893309916,6.05L6.836432179024202,6.05L6.407860750452773,5.621428571428571L5.592139249547226,5.621428571428571L4.978571428571429,6.234996392404369L4.978571428571429,6.449282106690083L4.734996392404369,6.692857142857142L4.520710678118655,6.692857142857142L4.092139249547226,7.121428571428571L3.877853535261512,7.121428571428571L3.6635678209757976,7.335714285714285L3.234996392404369,7.335714285714285L3.0353553390593273,7.535355339059327L2.9646446609406727,7.464644660940673L3.1935750361670596,7.235714285714286L3.622146464738488,7.235714285714286L3.8364321790242024,7.021428571428571L4.050717893309916,7.021428571428571L4.479289321881345,6.5928571428571425L4.69357503616706,6.5928571428571425L4.878571428571429,6.407860750452773L4.878571428571429,6.19357503616706L5.550717893309916,5.521428571428571L6.449282106690083,5.521428571428571L6.8778535352615116,5.95L7.092139249547226,5.95z" stroke="none"/><path d="M5.95,7.878571428571428L5.95,6L6.05,6L6.05,8.122146464738488L6.692857142857142,8.76500360759563L6.692857142857142,9.193575036167061L6.907142857142857,9.407860750452773L6.907142857142857,9.836432179024204L7.535355339059327,10.464644660940673L7.464644660940673,10.535355339059327L6.807142857142857,9.877853535261512L6.807142857142857,9.449282106690081L6.5928571428571425,9.23499639240437L6.5928571428571425,8.806424963832939L5.95,8.163567820975796L5.95,7.978571428571428L5.336432179024202,7.978571428571428L4.907860750452774,7.55L4.5,7.55L4.5,7.45L4.949282106690084,7.45L5.3778535352615116,7.878571428571428z" stroke="none"/><path d="M18.87785353526151,10.878571428571426L19.94928210669008,10.878571428571426L20.163567820975796,11.092857142857142L20.37785353526151,11.092857142857142L20.592139249547227,11.307142857142857L21.663567820975796,11.307142857142857L21.87785353526151,11.521428571428569L23.163567820975796,11.521428571428569L23.37785353526151,11.735714285714284L23.80642496383294,11.735714285714284L24.03535533905933,11.964644660940673L23.96464466094067,12.035355339059327L23.76500360759563,11.835714285714285L23.336432179024204,11.835714285714285L23.12214646473849,11.62142857142857L21.836432179024204,11.62142857142857L21.62214646473849,11.407142857142858L20.55071789330992,11.407142857142858L20.336432179024204,11.192857142857143L20.12214646473849,11.192857142857143L19.907860750452773,10.978571428571428L18.44928210669008,10.978571428571428L18.020710678118654,11.407142857142858L17.80642496383294,11.407142857142858L17.592139249547227,11.62142857142857L15.663567820975796,11.62142857142857L15.449282106690081,11.835714285714285L15.23499639240437,11.835714285714285L15.035355339059327,12.035355339059327L14.964644660940673,11.964644660940673L15.193575036167061,11.735714285714284L15.407860750452773,11.735714285714284L15.622146464738488,11.521428571428569L17.55071789330992,11.521428571428569L17.76500360759563,11.307142857142857L17.979289321881346,11.307142857142857L18.407860750452773,10.878571428571426L18.736432179024202,10.878571428571426L18.59285714285714,10.73499639240437L18.59285714285714,10.520710678118654L18.378571428571426,10.306424963832939L18.378571428571426,9.877853535261512L18.164285714285715,9.663567820975796L18.164285714285715,9.449282106690081L17.95,9.23499639240437L17.95,9L18.05,9L18.05,9.193575036167061L18.264285714285716,9.407860750452773L18.264285714285716,9.622146464738488L18.478571428571428,9.836432179024204L18.478571428571428,10.26500360759563L18.692857142857143,10.479289321881346L18.692857142857143,10.693575036167061z" stroke="none"/><path d="M14.521428571428569,9.592857142857142L14.521428571428569,9.407860750452773L14.76500360759563,9.164285714285715L14.979289321881346,9.164285714285715L15.193575036167061,8.95L15.407860750452773,8.95L15.622146464738488,8.735714285714284L16.907860750452773,8.735714285714284L17.12214646473849,8.521428571428569L18.87785353526151,8.521428571428569L19.30642496383294,8.95L19.5,8.95L19.5,9.05L19.26500360759563,9.05L18.836432179024204,8.62142857142857L17.163567820975796,8.62142857142857L16.94928210669008,8.835714285714285L15.663567820975796,8.835714285714285L15.449282106690081,9.05L15.23499639240437,9.05L15.020710678118654,9.264285714285716L14.806424963832939,9.264285714285716L14.62142857142857,9.449282106690081L14.62142857142857,9.592857142857142L15.449282106690081,9.592857142857142L15.877853535261512,10.021428571428569L16.73499639240437,10.021428571428569L16.94928210669008,10.235714285714284L17.80642496383294,10.235714285714284L18.03535533905933,10.464644660940673L17.96464466094067,10.535355339059327L17.76500360759563,10.335714285714285L16.907860750452773,10.335714285714285L16.69357503616706,10.12142857142857L15.836432179024204,10.12142857142857L15.407860750452773,9.692857142857143L14.62142857142857,9.692857142857143L14.62142857142857,9.877853535261512L14.407142857142858,10.092139249547223L14.407142857142858,10.306424963832939L14.192857142857143,10.520710678118654L14.192857142857143,10.73499639240437L13.949282106690081,10.978571428571428L13.306424963832939,10.978571428571428L13.092139249547223,11.192857142857143L11.336432179024204,11.192857142857143L9.193575036167061,9.05L9,9.05L9,8.95L9.23499639240437,8.95L11.377853535261512,11.092857142857142L13.050717893309915,11.092857142857142L13.26500360759563,10.878571428571426L13.907860750452773,10.878571428571426L14.092857142857142,10.693575036167061L14.092857142857142,10.479289321881346L14.307142857142857,10.26500360759563L14.307142857142857,10.050717893309915L14.521428571428569,9.836432179024204L14.521428571428569,9.692857142857143L13.520710678118654,9.692857142857143L13.306424963832939,9.907142857142858L13.092139249547223,9.907142857142858L12.877853535261512,10.12142857142857L12.663567820975796,10.12142857142857L12.449282106690081,10.335714285714285L12.23499639240437,10.335714285714285L12.035355339059327,10.535355339059327L11.964644660940673,10.464644660940673L12.193575036167061,10.235714285714284L12.407860750452773,10.235714285714284L12.622146464738488,10.021428571428569L12.836432179024204,10.021428571428569L13.050717893309915,9.807142857142857L13.26500360759563,9.807142857142857L13.479289321881346,9.592857142857142z" stroke="none"/><path d="M10.664285714285715,7.45L10.664285714285715,7.265003607595631L11.122146464738488,6.807142857142857L11.336432179024204,6.807142857142857L11.550717893309915,6.5928571428571425L12.407860750452773,6.5928571428571425L13.050717893309915,5.95L13.5,5.95L13.5,6.05L13.092139249547223,6.05L12.449282106690081,6.692857142857142L11.592139249547223,6.692857142857142L11.377853535261512,6.907142857142857L11.163567820975796,6.907142857142857L10.764285714285716,7.30642496383294L10.764285714285716,7.45L13.5,7.45L13.5,7.55L10.764285714285716,7.55L10.764285714285716,7.907860750452773L10.978571428571428,8.122146464738488L10.978571428571428,8.76500360759563L11.192857142857143,8.979289321881346L11.192857142857143,9.193575036167061L11.407142857142858,9.407860750452773L11.407142857142858,10.693575036167061L11.592139249547223,10.878571428571426L12.836432179024204,10.878571428571426L13.26500360759563,10.45L13.5,10.45L13.5,10.55L13.306424963832939,10.55L12.877853535261512,10.978571428571428L11.550717893309915,10.978571428571428L11.307142857142857,10.73499639240437L11.307142857142857,9.449282106690081L11.092857142857142,9.23499639240437L11.092857142857142,9.020710678118654L10.878571428571426,8.806424963832939L10.878571428571426,8.163567820975796L10.664285714285715,7.949282106690083L10.664285714285715,7.55L10.306424963832939,7.55L10.092139249547223,7.764285714285714L9.877853535261512,7.764285714285714L9.449282106690081,8.192857142857143L9.020710678118654,8.192857142857143L8.62142857142857,8.592139249547223L8.62142857142857,10.73499639240437L8.163567820975796,11.192857142857143L5.336432179024202,11.192857142857143L2.3071428571428574,8.163567820975796L2.3071428571428574,6.622146464738488L2.9646446609406727,5.964644660940673L3.0353553390593273,6.035355339059327L2.407142857142857,6.663567820975797L2.407142857142857,8.122146464738488L5.3778535352615116,11.092857142857142L8.122146464738488,11.092857142857142L8.521428571428569,10.693575036167061L8.521428571428569,8.550717893309915L8.979289321881346,8.092857142857142L9.407860750452773,8.092857142857142L9.836432179024204,7.664285714285715L10.050717893309915,7.664285714285715L10.26500360759563,7.45z" stroke="none"/><path d="M10.664285714285715,4.664285714285715L10.664285714285715,4.520710678118655L10.479289321881346,4.335714285714285L9.622146464738488,4.335714285714285L9.407860750452773,4.121428571428571L8.122146464738488,4.121428571428571L7.907860750452773,3.907142857142857L7.69357503616706,3.907142857142857L7.479289321881345,3.6928571428571426L7.050717893309916,3.6928571428571426L6.622146464738488,3.2642857142857142L6.407860750452773,3.2642857142857142L6.19357503616706,3.05L6,3.05L6,2.95L6.234996392404369,2.95L6.449282106690083,3.1642857142857146L6.663567820975797,3.1642857142857146L7.092139249547226,3.592857142857143L7.520710678118655,3.592857142857143L7.734996392404369,3.8071428571428574L7.949282106690083,3.8071428571428574L8.163567820975796,4.021428571428571L9.449282106690081,4.021428571428571L9.663567820975796,4.235714285714286L10.520710678118654,4.235714285714286L10.764285714285716,4.479289321881345L10.764285714285716,4.664285714285715L11.377853535261512,4.664285714285715L11.592139249547223,4.878571428571429L12.622146464738488,4.878571428571429L12.836432179024204,4.664285714285715L13.26500360759563,4.664285714285715L13.464644660940673,4.464644660940673L13.535355339059327,4.535355339059327L13.306424963832939,4.764285714285714L12.877853535261512,4.764285714285714L12.663567820975796,4.978571428571429L11.550717893309915,4.978571428571429L11.336432179024204,4.764285714285714L10.764285714285716,4.764285714285714L10.764285714285716,4.907860750452774L10.949282106690081,5.0928571428571425L15.193575036167061,5.0928571428571425L15.836432179024204,4.45L16.5,4.45L16.5,4.55L15.877853535261512,4.55L15.23499639240437,5.192857142857142L10.907860750452773,5.192857142857142L10.664285714285715,4.949282106690084L10.664285714285715,4.764285714285714L8.163567820975796,4.764285714285714L7.949282106690083,4.978571428571429L5.592139249547226,4.978571428571429L5.3778535352615116,5.192857142857142L5.163567820975797,5.192857142857142L4.949282106690084,5.407142857142857L4.30642496383294,5.407142857142857L3.6928571428571426,6.020710678118655L3.6928571428571426,6.234996392404369L3.234996392404369,6.692857142857142L3.020710678118655,6.692857142857142L2.6214285714285714,7.092139249547226L2.6214285714285714,7.907860750452773L5.592139249547226,10.878571428571426L7.907860750452773,10.878571428571426L8.092857142857142,10.693575036167061L8.092857142857142,9.020710678118654L7.878571428571428,8.806424963832939L7.878571428571428,8.377853535261512L7.45,7.949282106690083L7.45,7.5L7.55,7.5L7.55,7.907860750452773L7.978571428571428,8.336432179024204L7.978571428571428,8.76500360759563L8.192857142857143,8.979289321881346L8.192857142857143,10.73499639240437L7.949282106690083,10.978571428571428L5.550717893309916,10.978571428571428L2.521428571428572,7.949282106690083L2.521428571428572,7.050717893309916L2.979289321881345,6.5928571428571425L3.1935750361670596,6.5928571428571425L3.592857142857143,6.19357503616706L3.592857142857143,5.979289321881345L4.265003607595631,5.307142857142857L4.907860750452774,5.307142857142857L5.122146464738488,5.0928571428571425L5.336432179024202,5.0928571428571425L5.550717893309916,4.878571428571429L7.907860750452773,4.878571428571429L8.122146464738488,4.664285714285715z" stroke="none"/><path d="M25.45,7.5L25.55,7.5L25.55,9L25.45,9z" stroke="none"/><path d="M5.95,9L6.05,9L6.05,10.5L5.95,10.5z" stroke="none"/><path d="M16.5,12.05L16.5,11.95L18,11.95L18,12.05z" stroke="none"/><path d="M6,4.45L6,4.55L4.5,4.55L4.5,4.45z" stroke="none"/><path d="M24,6.05L24,5.95L25.5,5.95L25.5,6.05z" stroke="none"/><path d="M4.5,12.05L4.5,11.95L6,11.95L6,12.05z" stroke="none"/><path d="M25.46464466094067,10.535355339059327L25.53535533905933,10.464644660940673L27.03535533905933,11.964644660940673L26.96464466094067,12.035355339059327z" stroke="none"/><path d="M12.035355339059327,4.535355339059327L11.964644660940673,4.464644660940673L12.193575036167061,4.235714285714286L12.407860750452773,4.235714285714286L12.622146464738488,4.021428571428571L14.592139249547223,4.021428571428571L15.035355339059327,4.464644660940673L14.964644660940673,4.535355339059327L14.550717893309915,4.121428571428571L12.663567820975796,4.121428571428571L12.449282106690081,4.335714285714285L12.23499639240437,4.335714285714285z" stroke="none"/><path d="M24,3.05L24,2.95L24.44928210669008,2.95L24.663567820975796,3.1642857142857146L24.87785353526151,3.1642857142857146L25.520710678118654,3.8071428571428574L26.163567820975796,3.8071428571428574L26.37785353526151,4.021428571428571L26.592139249547223,4.021428571428571L27.03535533905933,4.464644660940673L26.96464466094067,4.535355339059327L26.550717893309915,4.121428571428571L26.336432179024204,4.121428571428571L26.12214646473849,3.907142857142857L25.479289321881346,3.907142857142857L24.836432179024204,3.2642857142857142L24.62214646473849,3.2642857142857142L24.407860750452773,3.05z" stroke="none"/><path d="M12,9.05L12,8.95L12.622146464738488,8.95L12.836432179024204,8.735714285714284L13.050717893309915,8.735714285714284L13.26500360759563,8.521428571428569L13.479289321881346,8.521428571428569L13.693575036167061,8.307142857142857L13.907860750452773,8.307142857142857L14.76500360759563,7.45L15,7.45L15,7.55L14.806424963832939,7.55L13.949282106690081,8.407142857142858L13.73499639240437,8.407142857142858L13.520710678118654,8.62142857142857L13.306424963832939,8.62142857142857L13.092139249547223,8.835714285714285L12.877853535261512,8.835714285714285L12.663567820975796,9.05z" stroke="none"/><path d="M7.535355339059327,4.464644660940673L7.464644660940673,4.535355339059327L6.407860750452773,3.478571428571428L5.122146464738488,3.478571428571428L4.69357503616706,3.05L4.5,3.05L4.5,2.95L4.734996392404369,2.95L5.163567820975797,3.3785714285714286L6.449282106690083,3.3785714285714286z" stroke="none"/><path d="M21,12.05L21,11.95L21.44928210669008,11.95L21.87785353526151,12.378571428571426L24.407860750452773,12.378571428571426L24.59285714285714,12.193575036167061L24.59285714285714,10.73499639240437L24.378571428571426,10.520710678118654L24.378571428571426,9.877853535261512L24.164285714285715,9.663567820975796L24.164285714285715,9.23499639240437L23.96464466094067,9.035355339059327L24.03535533905933,8.964644660940673L24.264285714285716,9.193575036167061L24.264285714285716,9.622146464738488L24.478571428571428,9.836432179024204L24.478571428571428,10.479289321881346L24.692857142857143,10.693575036167061L24.692857142857143,12.23499639240437L24.44928210669008,12.478571428571428L21.836432179024204,12.478571428571428L21.407860750452773,12.05z" stroke="none"/><path d="M24.03535533905933,10.464644660940673L23.96464466094067,10.535355339059327L23.52142857142857,10.092139249547223L23.52142857142857,8.550717893309915L23.979289321881346,8.092857142857142L24.19357503616706,8.092857142857142L24.807142857142857,7.479289321881345L24.807142857142857,7.265003607595631L25.050717893309915,7.021428571428571L26.37785353526151,7.021428571428571L26.80642496383294,7.45L27,7.45L27,7.55L26.76500360759563,7.55L26.336432179024204,7.121428571428571L25.092139249547223,7.121428571428571L24.90714285714286,7.30642496383294L24.90714285714286,7.520710678118655L24.23499639240437,8.192857142857143L24.020710678118654,8.192857142857143L23.62142857142857,8.592139249547223L23.62142857142857,10.050717893309915z" stroke="none"/><path d="M22.5,5.95L22.5,6.05L22.092139249547227,6.05L21.663567820975796,6.478571428571428L19.69357503616706,6.478571428571428L19.26500360759563,6.05L18,6.05L18,5.95L19.30642496383294,5.95L19.73499639240437,6.378571428571428L21.62214646473849,6.378571428571428L22.05071789330992,5.95z" stroke="none"/><path d="M19.5,4.55L19.5,4.45L20.592139249547227,4.45L20.80642496383294,4.664285714285715L21.020710678118654,4.664285714285715L21.23499639240437,4.878571428571429L21.663567820975796,4.878571428571429L21.87785353526151,5.0928571428571425L22.520710678118654,5.0928571428571425L22.978571428571428,5.550717893309916L22.978571428571428,8.163567820975796L22.764285714285716,8.377853535261512L22.764285714285716,8.592139249547223L22.55,8.806424963832939L22.55,9L22.45,9L22.45,8.76500360759563L22.664285714285715,8.550717893309915L22.664285714285715,8.336432179024204L22.878571428571426,8.122146464738488L22.878571428571426,5.592139249547226L22.479289321881346,5.192857142857142L21.836432179024204,5.192857142857142L21.62214646473849,4.978571428571429L21.19357503616706,4.978571428571429L20.979289321881346,4.764285714285714L20.76500360759563,4.764285714285714L20.55071789330992,4.55z" stroke="none"/><path d="M21.03535533905933,5.964644660940673L20.96464466094067,6.035355339059327L20.55071789330992,5.621428571428571L19.907860750452773,5.621428571428571L19.479289321881346,5.192857142857142L19.26500360759563,5.192857142857142L19.021428571428572,4.949282106690084L19.021428571428572,4.050717893309916L19.26500360759563,3.8071428571428574L22.73499639240437,3.8071428571428574L23.37785353526151,4.45L23.592139249547223,4.45L23.80642496383294,4.664285714285715L24.020710678118654,4.664285714285715L24.23499639240437,4.878571428571429L24.663567820975796,4.878571428571429L24.87785353526151,5.0928571428571425L25.092139249547223,5.0928571428571425L25.520710678118654,5.521428571428571L26.37785353526151,5.521428571428571L26.592139249547223,5.735714285714286L26.80642496383294,5.735714285714286L27.03535533905933,5.964644660940673L26.96464466094067,6.035355339059327L26.76500360759563,5.835714285714285L26.550717893309915,5.835714285714285L26.336432179024204,5.621428571428571L25.479289321881346,5.621428571428571L25.050717893309915,5.192857142857142L24.836432179024204,5.192857142857142L24.62214646473849,4.978571428571429L24.19357503616706,4.978571428571429L23.979289321881346,4.764285714285714L23.76500360759563,4.764285714285714L23.550717893309915,4.55L23.336432179024204,4.55L22.69357503616706,3.907142857142857L19.30642496383294,3.907142857142857L19.121428571428574,4.092139249547226L19.121428571428574,4.907860750452774L19.30642496383294,5.0928571428571425L19.520710678118654,5.0928571428571425L19.94928210669008,5.521428571428571L20.592139249547227,5.521428571428571z" stroke="none"/><path d="M3.05,4.5L2.95,4.5L2.95,3.622146464738488L4.050717893309916,2.521428571428572L8.163567820975796,2.521428571428572L8.377853535261512,2.7357142857142858L8.806424963832939,2.7357142857142858L9.035355339059327,2.9646446609406727L8.964644660940673,3.0353553390593273L8.76500360759563,2.8357142857142854L8.336432179024204,2.8357142857142854L8.122146464738488,2.6214285714285714L4.092139249547226,2.6214285714285714L3.05,3.6635678209757976z" stroke="none"/><path d="M22.53535533905933,10.464644660940673L22.46464466094067,10.535355339059327L19.05071789330992,7.121428571428571L18.836432179024204,7.121428571428571L18.62214646473849,6.907142857142857L18.19357503616706,6.907142857142857L17.979289321881346,6.692857142857142L17.336432179024204,6.692857142857142L16.69357503616706,6.05L16.5,6.05L16.5,5.95L16.73499639240437,5.95L17.37785353526151,6.5928571428571425L18.020710678118654,6.5928571428571425L18.23499639240437,6.807142857142857L18.663567820975796,6.807142857142857L18.87785353526151,7.021428571428571L19.092139249547227,7.021428571428571z" stroke="none"/><path d="M10.5,11.95L10.5,12.05L10.092139249547223,12.05L9.663567820975796,12.478571428571428L3.8364321790242024,12.478571428571428L3.4078607504527736,12.05L3,12.05L3,11.95L3.449282106690083,11.95L3.877853535261512,12.378571428571426L9.622146464738488,12.378571428571426L10.050717893309915,11.95z" stroke="none"/><path d="M22.5,11.95L22.5,12.05L21.836432179024204,12.05L21.407860750452773,11.62142857142857L19.94928210669008,11.62142857142857L19.73499639240437,11.835714285714285L19.520710678118654,11.835714285714285L18.87785353526151,12.478571428571428L14.336432179024204,12.478571428571428L14.122146464738488,12.264285714285716L13.693575036167061,12.264285714285716L13.464644660940673,12.035355339059327L13.535355339059327,11.964644660940673L13.73499639240437,12.164285714285715L14.163567820975796,12.164285714285715L14.377853535261512,12.378571428571426L18.836432179024204,12.378571428571426L19.479289321881346,11.735714285714284L19.69357503616706,11.735714285714284L19.907860750452773,11.521428571428569L21.44928210669008,11.521428571428569L21.87785353526151,11.95z" stroke="none"/><path d="M21,2.95L21,3.05L19.479289321881346,3.05L19.05071789330992,2.6214285714285714L13.092139249547223,2.6214285714285714L12.663567820975796,3.05L12,3.05L12,2.95L12.622146464738488,2.95L13.050717893309915,2.521428571428572L19.092139249547227,2.521428571428572L19.520710678118654,2.95z" stroke="none"/><path d="M24.03535533905933,7.535355339059327L23.96464466094067,7.464644660940673L24.62214646473849,6.807142857142857L27.23499639240437,6.807142857142857L27.478571428571428,7.050717893309916L27.478571428571428,7.949282106690083L25.94928210669008,9.478571428571428L25.73499639240437,9.478571428571428L25.12142857142857,10.092139249547223L25.12142857142857,12.020710678118654L24.90714285714286,12.23499639240437L24.90714285714286,12.449282106690081L24.663567820975796,12.692857142857143L13.26500360759563,12.692857142857143L13.021428571428569,12.449282106690081L13.021428571428569,11.550717893309915L13.26500360759563,11.307142857142857L13.907860750452773,11.307142857142857L14.76500360759563,10.45L15,10.45L15,10.55L14.806424963832939,10.55L13.949282106690081,11.407142857142858L13.306424963832939,11.407142857142858L13.12142857142857,11.592139249547223L13.12142857142857,12.407860750452773L13.306424963832939,12.592857142857142L24.62214646473849,12.592857142857142L24.807142857142857,12.407860750452773L24.807142857142857,12.193575036167061L25.02142857142857,11.979289321881346L25.02142857142857,10.050717893309915L25.69357503616706,9.378571428571426L25.907860750452773,9.378571428571426L27.378571428571426,7.907860750452773L27.378571428571426,7.092139249547226L27.19357503616706,6.907142857142857L24.663567820975796,6.907142857142857z" stroke="none"/><path d="M9,11.95L9,12.05L7.907860750452773,12.05L7.69357503616706,11.835714285714285L7.265003607595631,11.835714285714285L7.050717893309916,11.62142857142857L5.765003607595631,11.62142857142857L5.550717893309916,11.407142857142858L5.122146464738488,11.407142857142858L2.092857142857143,8.377853535261512L2.092857142857143,4.050717893309916L3.8364321790242024,2.3071428571428574L10.306424963832939,2.3071428571428574L11.163567820975796,3.1642857142857146L11.377853535261512,3.1642857142857146L11.592139249547223,3.3785714285714286L16.092139249547223,3.3785714285714286L16.520710678118654,3.8071428571428574L16.73499639240437,3.8071428571428574L16.978571428571428,4.050717893309916L16.978571428571428,4.949282106690084L16.520710678118654,5.407142857142857L16.30642496383294,5.407142857142857L16.12142857142857,5.592139249547226L16.12142857142857,6.407860750452773L16.30642496383294,6.5928571428571425L16.520710678118654,6.5928571428571425L16.94928210669008,7.021428571428571L17.37785353526151,7.021428571428571L17.592139249547227,7.235714285714286L17.80642496383294,7.235714285714286L18.03535533905933,7.464644660940673L17.96464466094067,7.535355339059327L17.76500360759563,7.335714285714285L17.55071789330992,7.335714285714285L17.336432179024204,7.121428571428571L16.907860750452773,7.121428571428571L16.479289321881346,6.692857142857142L16.26500360759563,6.692857142857142L16.02142857142857,6.449282106690083L16.02142857142857,5.550717893309916L16.26500360759563,5.307142857142857L16.479289321881346,5.307142857142857L16.878571428571426,4.907860750452774L16.878571428571426,4.092139249547226L16.69357503616706,3.907142857142857L16.479289321881346,3.907142857142857L16.050717893309915,3.478571428571428L11.550717893309915,3.478571428571428L11.336432179024204,3.2642857142857142L11.122146464738488,3.2642857142857142L10.26500360759563,2.407142857142857L3.877853535261512,2.407142857142857L2.1928571428571426,4.092139249547226L2.1928571428571426,8.336432179024204L5.163567820975797,11.307142857142857L5.592139249547226,11.307142857142857L5.80642496383294,11.521428571428569L7.092139249547226,11.521428571428569L7.30642496383294,11.735714285714284L7.734996392404369,11.735714285714284L7.949282106690083,11.95z" stroke="none"/><path d="M4.535355339059327,6.035355339059327L4.464644660940673,5.964644660940673L4.69357503616706,5.735714285714286L4.907860750452774,5.735714285714286L5.336432179024202,5.307142857142857L13.73499639240437,5.307142857142857L14.806424963832939,6.378571428571428L15.449282106690081,6.378571428571428L15.877853535261512,6.807142857142857L16.092139249547223,6.807142857142857L16.94928210669008,7.664285714285715L17.37785353526151,7.664285714285715L17.592139249547227,7.878571428571428L18.87785353526151,7.878571428571428L19.520710678118654,8.521428571428569L19.94928210669008,8.521428571428569L21.478571428571428,10.050717893309915L21.478571428571428,10.26500360759563L22.092139249547227,10.878571428571426L22.30642496383294,10.878571428571426L22.520710678118654,11.092857142857142L22.69357503616706,11.092857142857142L22.878571428571426,10.907860750452773L22.878571428571426,10.092139249547223L22.479289321881346,9.692857142857143L22.26500360759563,9.692857142857143L19.69357503616706,7.121428571428571L19.479289321881346,7.121428571428571L19.26500360759563,6.907142857142857L19.05071789330992,6.907142857142857L18.836432179024204,6.692857142857142L18.407860750452773,6.692857142857142L18.19357503616706,6.478571428571428L17.55071789330992,6.478571428571428L17.307142857142857,6.234996392404369L17.307142857142857,4.734996392404369L17.09285714285714,4.520710678118655L17.09285714285714,3.877853535261512L16.664285714285715,3.449282106690083L16.664285714285715,3.234996392404369L16.46464466094067,3.0353553390593273L16.53535533905933,2.9646446609406727L16.764285714285716,3.1935750361670596L16.764285714285716,3.4078607504527736L17.192857142857143,3.8364321790242024L17.192857142857143,4.479289321881345L17.40714285714286,4.69357503616706L17.40714285714286,6.19357503616706L17.592139249547227,6.378571428571428L18.23499639240437,6.378571428571428L18.44928210669008,6.5928571428571425L18.87785353526151,6.5928571428571425L19.092139249547227,6.807142857142857L19.30642496383294,6.807142857142857L19.520710678118654,7.021428571428571L19.73499639240437,7.021428571428571L22.30642496383294,9.592857142857142L22.520710678118654,9.592857142857142L22.978571428571428,10.050717893309915L22.978571428571428,10.949282106690081L22.73499639240437,11.192857142857143L22.479289321881346,11.192857142857143L22.26500360759563,10.978571428571428L22.05071789330992,10.978571428571428L21.378571428571426,10.306424963832939L21.378571428571426,10.092139249547223L19.907860750452773,8.62142857142857L19.479289321881346,8.62142857142857L18.836432179024204,7.978571428571428L17.55071789330992,7.978571428571428L17.336432179024204,7.764285714285714L16.907860750452773,7.764285714285714L16.050717893309915,6.907142857142857L15.836432179024204,6.907142857142857L15.407860750452773,6.478571428571428L14.76500360759563,6.478571428571428L13.693575036167061,5.407142857142857L5.3778535352615116,5.407142857142857L4.949282106690084,5.835714285714285L4.734996392404369,5.835714285714285z" stroke="none"/></svg>