<svg version="1.1" width="30" height="15" xmlns="http://www.w3.org/2000/svg"><path d="M7.878571428571428,4.907860750452774L7.878571428571428,4.69357503616706L8.092857142857142,4.479289321881345L8.092857142857142,4.265003607595631L8.521428571428569,3.8364321790242024L8.521428571428569,3.622146464738488L8.95,3.1935750361670596L8.95,3L9.05,3L9.05,3.234996392404369L8.62142857142857,3.6635678209757976L8.62142857142857,3.877853535261512L8.192857142857143,4.30642496383294L8.192857142857143,4.520710678118655L7.978571428571428,4.734996392404369L7.978571428571428,4.878571428571429L8.336432179024204,4.878571428571429L8.76500360759563,4.45L9,4.45L9,4.55L8.806424963832939,4.55L8.377853535261512,4.978571428571429L7.949282106690083,4.978571428571429L7.734996392404369,5.192857142857142L7.520710678118655,5.192857142857142L6.907142857142857,5.80642496383294L6.907142857142857,6.234996392404369L6.264285714285714,6.8778535352615116L6.264285714285714,7.092139249547226L6.05,7.30642496383294L6.05,7.5L5.95,7.5L5.95,7.265003607595631L6.164285714285715,7.050717893309916L6.164285714285715,6.836432179024202L6.807142857142857,6.19357503616706L6.807142857142857,5.765003607595631L7.479289321881345,5.0928571428571425L7.69357503616706,5.0928571428571425z" stroke="none"/><path d="M24,5.286432179024202L24.62214646473849,4.664285714285715L24.836432179024204,4.664285714285715L25.050717893309915,4.45L25.5,4.45L25.5,4.55L25.092139249547223,4.55L24.87785353526151,4.764285714285714L24.663567820975796,4.764285714285714L24.05,5.3778535352615116L24.05,7.5L23.95,7.5L23.95,5.3778535352615116L23.76500360759563,5.192857142857142L23.550717893309915,5.192857142857142L22.907860750452773,4.55L22.5,4.55L22.5,4.45L22.94928210669008,4.45L23.592139249547223,5.0928571428571425L23.80642496383294,5.0928571428571425z" stroke="none"/><path d="M5.307142857142857,9.378571428571426L5.307142857142857,9.23499639240437L5.0928571428571425,9.020710678118654L5.0928571428571425,8.806424963832939L4.664285714285715,8.377853535261512L4.664285714285715,7.734996392404369L4.464644660940673,7.535355339059327L4.535355339059327,7.464644660940673L4.764285714285714,7.69357503616706L4.764285714285714,8.336432179024204L5.192857142857142,8.76500360759563L5.192857142857142,8.979289321881346L5.407142857142857,9.193575036167061L5.407142857142857,9.378571428571426L5.592139249547226,9.378571428571426L6.020710678118655,9.807142857142857L6.234996392404369,9.807142857142857L6.8778535352615116,10.45L7.092139249547226,10.45L7.949282106690083,11.307142857142857L8.163567820975796,11.307142857142857L8.377853535261512,11.521428571428569L8.592139249547223,11.521428571428569L9.035355339059327,11.964644660940673L8.964644660940673,12.035355339059327L8.550717893309915,11.62142857142857L8.336432179024204,11.62142857142857L8.122146464738488,11.407142857142858L7.907860750452773,11.407142857142858L7.050717893309916,10.55L6.836432179024202,10.55L6.19357503616706,9.907142857142858L5.979289321881345,9.907142857142858L5.550717893309916,9.478571428571428L4.69357503616706,9.478571428571428L4.265003607595631,9.05L3,9.05L3,8.95L4.30642496383294,8.95L4.734996392404369,9.378571428571426z" stroke="none"/><path d="M12.23499639240437,6.164285714285715L12.663567820975796,6.164285714285715L12.877853535261512,6.378571428571428L19.05071789330992,6.378571428571428L19.46464466094067,5.964644660940673L19.53535533905933,6.035355339059327L19.092139249547227,6.478571428571428L12.836432179024204,6.478571428571428L12.622146464738488,6.264285714285714L12.264285714285716,6.264285714285714L12.264285714285716,6.449282106690083L11.62142857142857,7.092139249547226L11.62142857142857,7.520710678118655L11.407142857142858,7.734996392404369L11.407142857142858,7.949282106690083L11.192857142857143,8.163567820975796L11.192857142857143,8.377853535261512L10.535355339059327,9.035355339059327L10.464644660940673,8.964644660940673L11.092857142857142,8.336432179024204L11.092857142857142,8.122146464738488L11.307142857142857,7.907860750452773L11.307142857142857,7.69357503616706L11.521428571428569,7.479289321881345L11.521428571428569,7.050717893309916L12.164285714285715,6.407860750452773L12.164285714285715,6.264285714285714L10.050717893309915,6.264285714285714L9.836432179024204,6.05L9,6.05L9,5.95L9.877853535261512,5.95L10.092139249547223,6.164285714285715L12.09357503616706,6.164285714285715L10.464644660940673,4.535355339059327L10.535355339059327,4.464644660940673z" stroke="none"/><path d="M16.45,9.164285714285715L16.45,8.979289321881346L17.12214646473849,8.307142857142857L17.979289321881346,8.307142857142857L18.19357503616706,8.092857142857142L19.69357503616706,8.092857142857142L19.907860750452773,7.878571428571428L20.336432179024204,7.878571428571428L20.76500360759563,7.45L21,7.45L21,7.55L20.80642496383294,7.55L20.37785353526151,7.978571428571428L19.94928210669008,7.978571428571428L19.73499639240437,8.192857142857143L18.23499639240437,8.192857142857143L18.020710678118654,8.407142857142858L17.163567820975796,8.407142857142858L16.55,9.020710678118654L16.55,9.164285714285715L18.87785353526151,9.164285714285715L19.092139249547227,9.378571428571426L20.12214646473849,9.378571428571426L20.336432179024204,9.164285714285715L20.76500360759563,9.164285714285715L20.96464466094067,8.964644660940673L21.03535533905933,9.035355339059327L20.80642496383294,9.264285714285716L20.37785353526151,9.264285714285716L20.163567820975796,9.478571428571428L19.05071789330992,9.478571428571428L18.836432179024204,9.264285714285716L16.520710678118654,9.264285714285716L16.092139249547223,9.692857142857143L15.663567820975796,9.692857142857143L15.23499639240437,10.12142857142857L14.806424963832939,10.12142857142857L14.377853535261512,10.55L13.5,10.55L13.5,10.45L14.336432179024204,10.45L14.76500360759563,10.021428571428569L15.193575036167061,10.021428571428569L15.622146464738488,9.592857142857142L16.050717893309915,9.592857142857142L16.379289321881345,9.264285714285716L15.877853535261512,9.264285714285716L15.663567820975796,9.478571428571428L11.806424963832939,9.478571428571428L10.73499639240437,10.55L10.5,10.55L10.5,10.45L10.693575036167061,10.45L11.76500360759563,9.378571428571426L15.622146464738488,9.378571428571426L15.836432179024204,9.164285714285715z" stroke="none"/><path d="M21.59285714285714,4.021428571428571L21.59285714285714,3.8364321790242024L21.836432179024204,3.592857142857143L25.69357503616706,3.592857142857143L26.336432179024204,2.95L27,2.95L27,3.05L26.37785353526151,3.05L25.73499639240437,3.6928571428571426L21.87785353526151,3.6928571428571426L21.692857142857143,3.877853535261512L21.692857142857143,4.021428571428571L25.94928210669008,4.021428571428571L26.37785353526151,4.45L27,4.45L27,4.55L26.336432179024204,4.55L25.907860750452773,4.121428571428571L21.692857142857143,4.121428571428571L21.692857142857143,4.30642496383294L21.44928210669008,4.55L20.592139249547227,4.55L20.37785353526151,4.764285714285714L19.520710678118654,4.764285714285714L19.30642496383294,4.978571428571429L15.622146464738488,4.978571428571429L15.407860750452773,4.764285714285714L15.193575036167061,4.764285714285714L14.964644660940673,4.535355339059327L15.035355339059327,4.464644660940673L15.23499639240437,4.664285714285715L15.449282106690081,4.664285714285715L15.663567820975796,4.878571428571429L19.26500360759563,4.878571428571429L19.479289321881346,4.664285714285715L20.336432179024204,4.664285714285715L20.55071789330992,4.45L21.407860750452773,4.45L21.59285714285714,4.265003607595631L21.59285714285714,4.121428571428571L19.73499639240437,4.121428571428571L19.30642496383294,4.55L18,4.55L18,4.45L19.26500360759563,4.45L19.69357503616706,4.021428571428571z" stroke="none"/><path d="M24,12.05L24,11.95L25.5,11.95L25.5,12.05z" stroke="none"/><path d="M18,5.95L18,6.05L16.5,6.05L16.5,5.95z" stroke="none"/><path d="M19.5,7.45L19.5,7.55L18,7.55L18,7.45z" stroke="none"/><path d="M4.535355339059327,6.035355339059327L4.464644660940673,5.964644660940673L5.964644660940673,4.464644660940673L6.035355339059327,4.535355339059327z" stroke="none"/><path d="M24,9.05L24,8.95L27,8.95L27,9.05z" stroke="none"/><path d="M4.45,3L4.55,3L4.55,3.877853535261512L3.6928571428571426,4.734996392404369L3.6928571428571426,5.163567820975797L3.478571428571428,5.3778535352615116L3.478571428571428,5.592139249547226L3.0353553390593273,6.035355339059327L2.9646446609406727,5.964644660940673L3.3785714285714286,5.550717893309916L3.3785714285714286,5.336432179024202L3.592857142857143,5.122146464738488L3.592857142857143,4.69357503616706L4.45,3.8364321790242024z" stroke="none"/><path d="M14.964644660940673,2.9646446609406727L15.035355339059327,3.0353553390593273L14.163567820975796,3.907142857142857L13.73499639240437,3.907142857142857L13.520710678118654,4.121428571428571L12.663567820975796,4.121428571428571L12.449282106690081,4.335714285714285L12.23499639240437,4.335714285714285L12.035355339059327,4.535355339059327L11.964644660940673,4.464644660940673L12.193575036167061,4.235714285714286L12.407860750452773,4.235714285714286L12.622146464738488,4.021428571428571L13.479289321881346,4.021428571428571L13.693575036167061,3.8071428571428574L14.122146464738488,3.8071428571428574z" stroke="none"/><path d="M19.5,9.05L19.5,8.95L20.12214646473849,8.95L20.76500360759563,8.307142857142857L20.979289321881346,8.307142857142857L21.378571428571426,7.907860750452773L21.378571428571426,7.092139249547226L21.19357503616706,6.907142857142857L17.80642496383294,6.907142857142857L17.592139249547227,7.121428571428571L17.163567820975796,7.121428571428571L16.94928210669008,7.335714285714285L16.73499639240437,7.335714285714285L16.53535533905933,7.535355339059327L16.46464466094067,7.464644660940673L16.69357503616706,7.235714285714286L16.907860750452773,7.235714285714286L17.12214646473849,7.021428571428571L17.55071789330992,7.021428571428571L17.76500360759563,6.807142857142857L21.23499639240437,6.807142857142857L21.478571428571428,7.050717893309916L21.478571428571428,7.949282106690083L21.020710678118654,8.407142857142858L20.80642496383294,8.407142857142858L20.163567820975796,9.05z" stroke="none"/><path d="M19.5,10.55L19.5,10.45L19.94928210669008,10.45L20.163567820975796,10.664285714285715L20.37785353526151,10.664285714285715L20.80642496383294,11.092857142857142L21.23499639240437,11.092857142857142L21.87785353526151,11.735714285714284L22.30642496383294,11.735714285714284L22.53535533905933,11.964644660940673L22.46464466094067,12.035355339059327L22.26500360759563,11.835714285714285L21.836432179024204,11.835714285714285L21.19357503616706,11.192857142857143L20.76500360759563,11.192857142857143L20.336432179024204,10.764285714285716L20.12214646473849,10.764285714285716L19.907860750452773,10.55z" stroke="none"/><path d="M10.45,3L10.55,3L10.55,3.449282106690083L9.907142857142858,4.092139249547226L9.907142857142858,4.30642496383294L9.692857142857143,4.520710678118655L9.692857142857143,4.734996392404369L9.23499639240437,5.192857142857142L8.806424963832939,5.192857142857142L8.163567820975796,5.835714285714285L7.734996392404369,5.835714285714285L7.535355339059327,6.035355339059327L7.464644660940673,5.964644660940673L7.69357503616706,5.735714285714286L8.122146464738488,5.735714285714286L8.76500360759563,5.0928571428571425L9.193575036167061,5.0928571428571425L9.592857142857142,4.69357503616706L9.592857142857142,4.479289321881345L9.807142857142857,4.265003607595631L9.807142857142857,4.050717893309916L10.45,3.4078607504527736z" stroke="none"/><path d="M25.5,3.05L25.5,2.95L25.907860750452773,2.95L26.12214646473849,2.7357142857142858L26.336432179024204,2.7357142857142858L26.550717893309915,2.521428571428572L27.44928210669008,2.521428571428572L27.692857142857143,2.765003607595631L27.692857142857143,3.877853535261512L27.478571428571428,4.092139249547226L27.478571428571428,4.949282106690084L26.192857142857143,6.234996392404369L26.192857142857143,6.663567820975797L25.764285714285716,7.092139249547226L25.764285714285716,7.30642496383294L25.53535533905933,7.535355339059327L25.46464466094067,7.464644660940673L25.664285714285715,7.265003607595631L25.664285714285715,7.050717893309916L26.09285714285714,6.622146464738488L26.09285714285714,6.19357503616706L27.378571428571426,4.907860750452774L27.378571428571426,4.050717893309916L27.59285714285714,3.8364321790242024L27.59285714285714,2.8064249638329404L27.407860750452773,2.6214285714285714L26.592139249547223,2.6214285714285714L26.37785353526151,2.8357142857142854L26.163567820975796,2.8357142857142854L25.94928210669008,3.05z" stroke="none"/><path d="M22.5,2.95L22.5,3.05L21.23499639240437,3.05L20.80642496383294,3.478571428571428L18.62214646473849,3.478571428571428L18.407860750452773,3.2642857142857142L18.19357503616706,3.2642857142857142L17.96464466094067,3.0353553390593273L18.03535533905933,2.9646446609406727L18.23499639240437,3.1642857142857146L18.44928210669008,3.1642857142857146L18.663567820975796,3.3785714285714286L20.76500360759563,3.3785714285714286L21.19357503616706,2.95z" stroke="none"/><path d="M19.5,11.95L19.5,12.05L15,12.05L15,11.95z" stroke="none"/><path d="M2.9646446609406727,7.464644660940673L3.0353553390593273,7.535355339059327L2.8357142857142854,7.734996392404369L2.8357142857142854,7.949282106690083L2.6214285714285714,8.163567820975796L2.6214285714285714,9.407860750452773L4.121428571428571,10.907860750452773L4.121428571428571,11.122146464738488L4.335714285714285,11.336432179024204L4.335714285714285,11.76500360759563L4.535355339059327,11.964644660940673L4.464644660940673,12.035355339059327L4.235714285714286,11.806424963832939L4.235714285714286,11.377853535261512L4.021428571428571,11.163567820975796L4.021428571428571,10.949282106690081L2.521428571428572,9.449282106690081L2.521428571428572,8.122146464738488L2.7357142857142858,7.907860750452773L2.7357142857142858,7.69357503616706z" stroke="none"/><path d="M11.964644660940673,10.464644660940673L12.035355339059327,10.535355339059327L11.806424963832939,10.764285714285716L11.592139249547223,10.764285714285716L11.163567820975796,11.192857142857143L10.949282106690081,11.192857142857143L10.73499639240437,11.407142857142858L10.520710678118654,11.407142857142858L10.306424963832939,11.62142857142857L10.092139249547223,11.62142857142857L9.692857142857143,12.020710678118654L9.692857142857143,12.23499639240437L9.449282106690081,12.478571428571428L8.336432179024204,12.478571428571428L8.122146464738488,12.264285714285716L7.907860750452773,12.264285714285716L6.407860750452773,10.764285714285716L6.19357503616706,10.764285714285716L5.964644660940673,10.535355339059327L6.035355339059327,10.464644660940673L6.234996392404369,10.664285714285715L6.449282106690083,10.664285714285715L7.949282106690083,12.164285714285715L8.163567820975796,12.164285714285715L8.377853535261512,12.378571428571426L9.407860750452773,12.378571428571426L9.592857142857142,12.193575036167061L9.592857142857142,11.979289321881346L10.050717893309915,11.521428571428569L10.26500360759563,11.521428571428569L10.479289321881346,11.307142857142857L10.693575036167061,11.307142857142857L10.907860750452773,11.092857142857142L11.122146464738488,11.092857142857142L11.550717893309915,10.664285714285715L11.76500360759563,10.664285714285715z" stroke="none"/><path d="M21,12.05L21,11.95L21.663567820975796,11.95L22.092139249547227,12.378571428571426L22.907860750452773,12.378571428571426L23.52142857142857,11.76500360759563L23.52142857142857,11.550717893309915L24.19357503616706,10.878571428571426L26.550717893309915,10.878571428571426L26.96464466094067,10.464644660940673L27.03535533905933,10.535355339059327L26.592139249547223,10.978571428571428L24.23499639240437,10.978571428571428L23.62142857142857,11.592139249547223L23.62142857142857,11.806424963832939L22.94928210669008,12.478571428571428L22.05071789330992,12.478571428571428L21.62214646473849,12.05z" stroke="none"/><path d="M13.464644660940673,4.464644660940673L13.535355339059327,4.535355339059327L13.306424963832939,4.764285714285714L12.877853535261512,4.764285714285714L12.663567820975796,4.978571428571429L11.550717893309915,4.978571428571429L11.307142857142857,4.734996392404369L11.307142857142857,3.234996392404369L11.092857142857142,3.020710678118655L11.092857142857142,2.8064249638329404L10.907860750452773,2.6214285714285714L8.592139249547223,2.6214285714285714L7.335714285714285,3.877853535261512L7.335714285714285,4.092139249547226L6.907142857142857,4.520710678118655L6.907142857142857,4.949282106690084L6.264285714285714,5.592139249547226L6.264285714285714,6.020710678118655L5.835714285714285,6.449282106690083L5.835714285714285,6.8778535352615116L5.621428571428571,7.092139249547226L5.621428571428571,7.907860750452773L5.80642496383294,8.092857142857142L6.622146464738488,8.092857142857142L7.050717893309916,7.664285714285715L7.265003607595631,7.664285714285715L7.464644660940673,7.464644660940673L7.535355339059327,7.535355339059327L7.30642496383294,7.764285714285714L7.092139249547226,7.764285714285714L6.663567820975797,8.192857142857143L5.765003607595631,8.192857142857143L5.521428571428571,7.949282106690083L5.521428571428571,7.050717893309916L5.735714285714286,6.836432179024202L5.735714285714286,6.407860750452773L6.164285714285715,5.979289321881345L6.164285714285715,5.550717893309916L6.807142857142857,4.907860750452774L6.807142857142857,4.479289321881345L7.235714285714286,4.050717893309916L7.235714285714286,3.8364321790242024L8.550717893309915,2.521428571428572L10.949282106690081,2.521428571428572L11.192857142857143,2.765003607595631L11.192857142857143,2.979289321881345L11.407142857142858,3.1935750361670596L11.407142857142858,4.69357503616706L11.592139249547223,4.878571428571429L12.622146464738488,4.878571428571429L12.836432179024204,4.664285714285715L13.26500360759563,4.664285714285715z" stroke="none"/><path d="M11.964644660940673,11.964644660940673L12.035355339059327,12.035355339059327L11.806424963832939,12.264285714285716L11.163567820975796,12.264285714285716L10.949282106690081,12.478571428571428L9.877853535261512,12.478571428571428L9.663567820975796,12.692857142857143L4.69357503616706,12.692857142857143L4.479289321881345,12.478571428571428L4.050717893309916,12.478571428571428L3.8364321790242024,12.264285714285716L3.4078607504527736,12.264285714285716L3.1935750361670596,12.05L3,12.05L3,11.95L3.234996392404369,11.95L3.449282106690083,12.164285714285715L3.877853535261512,12.164285714285715L4.092139249547226,12.378571428571426L4.520710678118655,12.378571428571426L4.734996392404369,12.592857142857142L9.622146464738488,12.592857142857142L9.836432179024204,12.378571428571426L10.907860750452773,12.378571428571426L11.122146464738488,12.164285714285715L11.76500360759563,12.164285714285715z" stroke="none"/><path d="M22.55,9L22.45,9L22.45,8.377853535261512L21.59285714285714,7.520710678118655L21.59285714285714,6.8778535352615116L20.55071789330992,5.835714285714285L20.336432179024204,5.835714285714285L20.12214646473849,5.621428571428571L14.377853535261512,5.621428571428571L14.163567820975796,5.835714285714285L13.949282106690081,5.835714285714285L13.73499639240437,6.05L13.5,6.05L13.5,5.95L13.693575036167061,5.95L13.907860750452773,5.735714285714286L14.122146464738488,5.735714285714286L14.336432179024204,5.521428571428571L20.163567820975796,5.521428571428571L20.37785353526151,5.735714285714286L20.592139249547227,5.735714285714286L21.692857142857143,6.836432179024202L21.692857142857143,7.479289321881345L22.55,8.336432179024204z" stroke="none"/><path d="M6,3.05L6,2.95L7.479289321881345,2.95L7.907860750452773,2.521428571428572L8.122146464738488,2.521428571428572L8.336432179024204,2.3071428571428574L15.23499639240437,2.3071428571428574L15.478571428571428,2.550717893309917L15.478571428571428,2.765003607595631L15.907142857142858,3.1935750361670596L15.907142857142858,3.4078607504527736L16.12142857142857,3.622146464738488L16.12142857142857,3.8364321790242024L16.55,4.265003607595631L16.55,4.5L16.45,4.5L16.45,4.30642496383294L16.02142857142857,3.877853535261512L16.02142857142857,3.6635678209757976L15.807142857142857,3.449282106690083L15.807142857142857,3.234996392404369L15.378571428571426,2.8064249638329404L15.378571428571426,2.5921392495472264L15.193575036167061,2.407142857142857L8.377853535261512,2.407142857142857L8.163567820975796,2.6214285714285714L7.949282106690083,2.6214285714285714L7.520710678118655,3.05z" stroke="none"/><path d="M19.5,2.95L19.5,3.05L19.05071789330992,3.05L18.836432179024204,2.8357142857142854L18.62214646473849,2.8357142857142854L18.407860750452773,2.6214285714285714L16.26500360759563,2.6214285714285714L16.050717893309915,2.407142857142857L15.622146464738488,2.407142857142857L15.407860750452773,2.1928571428571426L6.020710678118655,2.1928571428571426L5.621428571428571,2.5921392495472264L5.621428571428571,3.4078607504527736L5.80642496383294,3.592857142857143L6.020710678118655,3.592857142857143L6.478571428571428,4.050717893309916L6.478571428571428,4.949282106690084L5.407142857142857,6.020710678118655L5.407142857142857,8.122146464738488L5.592139249547226,8.307142857142857L7.907860750452773,8.307142857142857L8.550717893309915,7.664285714285715L8.76500360759563,7.664285714285715L8.964644660940673,7.464644660940673L9.035355339059327,7.535355339059327L8.806424963832939,7.764285714285714L8.592139249547223,7.764285714285714L7.949282106690083,8.407142857142858L5.550717893309916,8.407142857142858L5.307142857142857,8.163567820975796L5.307142857142857,5.979289321881345L6.378571428571428,4.907860750452774L6.378571428571428,4.092139249547226L5.979289321881345,3.6928571428571426L5.765003607595631,3.6928571428571426L5.521428571428571,3.449282106690083L5.521428571428571,2.550717893309917L5.979289321881345,2.092857142857143L15.449282106690081,2.092857142857143L15.663567820975796,2.3071428571428574L16.092139249547223,2.3071428571428574L16.30642496383294,2.521428571428572L18.44928210669008,2.521428571428572L18.663567820975796,2.7357142857142858L18.87785353526151,2.7357142857142858L19.092139249547227,2.95z" stroke="none"/><path d="M10.5,12.05L10.5,11.95L10.907860750452773,11.95L11.122146464738488,11.735714285714284L11.336432179024204,11.735714285714284L11.550717893309915,11.521428571428569L16.907860750452773,11.521428571428569L17.76500360759563,10.664285714285715L17.979289321881346,10.664285714285715L18.19357503616706,10.45L18.407860750452773,10.45L18.836432179024204,10.021428571428569L21.87785353526151,10.021428571428569L22.30642496383294,10.45L22.5,10.45L22.5,10.55L22.26500360759563,10.55L21.836432179024204,10.12142857142857L18.87785353526151,10.12142857142857L18.44928210669008,10.55L18.23499639240437,10.55L18.020710678118654,10.764285714285716L17.80642496383294,10.764285714285716L16.94928210669008,11.62142857142857L11.592139249547223,11.62142857142857L11.377853535261512,11.835714285714285L11.163567820975796,11.835714285714285L10.949282106690081,12.05z" stroke="none"/><path d="M15,8.95L15,9.05L11.806424963832939,9.05L10.949282106690081,9.907142857142858L10.306424963832939,9.907142857142858L10.12142857142857,10.092139249547223L10.12142857142857,10.907860750452773L10.306424963832939,11.092857142857142L10.479289321881346,11.092857142857142L10.693575036167061,10.878571428571426L10.907860750452773,10.878571428571426L11.092857142857142,10.693575036167061L11.092857142857142,10.479289321881346L11.550717893309915,10.021428571428569L12.449282106690081,10.021428571428569L12.692857142857143,10.26500360759563L12.692857142857143,10.479289321881346L13.092139249547223,10.878571428571426L16.479289321881346,10.878571428571426L17.336432179024204,10.021428571428569L18.407860750452773,10.021428571428569L18.62214646473849,9.807142857142857L22.05071789330992,9.807142857142857L22.26500360759563,9.592857142857142L22.479289321881346,9.592857142857142L22.69357503616706,9.378571428571426L22.907860750452773,9.378571428571426L23.09285714285714,9.193575036167061L23.09285714285714,8.979289321881346L23.550717893309915,8.521428571428569L25.69357503616706,8.521428571428569L26.550717893309915,7.664285714285715L26.76500360759563,7.664285714285715L26.96464466094067,7.464644660940673L27.03535533905933,7.535355339059327L26.80642496383294,7.764285714285714L26.592139249547223,7.764285714285714L25.73499639240437,8.62142857142857L23.592139249547223,8.62142857142857L23.192857142857143,9.020710678118654L23.192857142857143,9.23499639240437L22.94928210669008,9.478571428571428L22.73499639240437,9.478571428571428L22.520710678118654,9.692857142857143L22.30642496383294,9.692857142857143L22.092139249547227,9.907142857142858L18.663567820975796,9.907142857142858L18.44928210669008,10.12142857142857L17.37785353526151,10.12142857142857L16.520710678118654,10.978571428571428L13.050717893309915,10.978571428571428L12.592857142857142,10.520710678118654L12.592857142857142,10.306424963832939L12.407860750452773,10.12142857142857L11.592139249547223,10.12142857142857L11.192857142857143,10.520710678118654L11.192857142857143,10.73499639240437L10.949282106690081,10.978571428571428L10.73499639240437,10.978571428571428L10.520710678118654,11.192857142857143L10.26500360759563,11.192857142857143L10.021428571428569,10.949282106690081L10.021428571428569,10.050717893309915L10.26500360759563,9.807142857142857L10.907860750452773,9.807142857142857L11.76500360759563,8.95z" stroke="none"/><path d="M27,11.95L27,12.05L26.592139249547223,12.05L26.163567820975796,12.478571428571428L25.520710678118654,12.478571428571428L25.30642496383294,12.692857142857143L10.092139249547223,12.692857142857143L9.877853535261512,12.907142857142858L2.979289321881345,12.907142857142858L2.521428571428572,12.449282106690081L2.521428571428572,10.092139249547223L2.3071428571428574,9.877853535261512L2.3071428571428574,7.265003607595631L2.550717893309917,7.021428571428571L4.949282106690084,7.021428571428571L5.192857142857142,7.265003607595631L5.192857142857142,8.336432179024204L5.3778535352615116,8.521428571428569L8.377853535261512,8.521428571428569L8.592139249547223,8.735714285714284L8.806424963832939,8.735714285714284L9.23499639240437,9.164285714285715L9.449282106690081,9.164285714285715L9.663567820975796,9.378571428571426L10.907860750452773,9.378571428571426L11.550717893309915,8.735714285714284L12.407860750452773,8.735714285714284L13.26500360759563,7.878571428571428L13.907860750452773,7.878571428571428L14.122146464738488,7.664285714285715L14.550717893309915,7.664285714285715L14.76500360759563,7.45L15,7.45L15,7.55L14.806424963832939,7.55L14.592139249547223,7.764285714285714L14.163567820975796,7.764285714285714L13.949282106690081,7.978571428571428L13.306424963832939,7.978571428571428L12.449282106690081,8.835714285714285L11.592139249547223,8.835714285714285L10.949282106690081,9.478571428571428L9.622146464738488,9.478571428571428L9.407860750452773,9.264285714285716L9.193575036167061,9.264285714285716L8.76500360759563,8.835714285714285L8.550717893309915,8.835714285714285L8.336432179024204,8.62142857142857L5.336432179024202,8.62142857142857L5.0928571428571425,8.377853535261512L5.0928571428571425,7.30642496383294L4.907860750452774,7.121428571428571L2.5921392495472264,7.121428571428571L2.407142857142857,7.30642496383294L2.407142857142857,9.836432179024204L2.6214285714285714,10.050717893309915L2.6214285714285714,12.407860750452773L3.020710678118655,12.807142857142857L9.836432179024204,12.807142857142857L10.050717893309915,12.592857142857142L25.26500360759563,12.592857142857142L25.479289321881346,12.378571428571426L26.12214646473849,12.378571428571426L26.550717893309915,11.95z" stroke="none"/></svg>