<svg version="1.1" width="30" height="15" xmlns="http://www.w3.org/2000/svg"><path d="M23.307142857142857,3.3785714285714286L23.307142857142857,3.234996392404369L22.907860750452773,2.8357142857142854L21.23499639240437,2.8357142857142854L21.03535533905933,3.0353553390593273L20.96464466094067,2.9646446609406727L21.19357503616706,2.7357142857142858L22.94928210669008,2.7357142857142858L23.40714285714286,3.1935750361670596L23.40714285714286,3.4078607504527736L23.592139249547223,3.592857142857143L23.80642496383294,3.592857142857143L24.23499639240437,4.021428571428571L26.37785353526151,4.021428571428571L26.592139249547223,4.235714285714286L26.80642496383294,4.235714285714286L27.03535533905933,4.464644660940673L26.96464466094067,4.535355339059327L26.76500360759563,4.335714285714285L26.550717893309915,4.335714285714285L26.336432179024204,4.121428571428571L24.19357503616706,4.121428571428571L23.76500360759563,3.6928571428571426L23.550717893309915,3.6928571428571426L23.336432179024204,3.478571428571428L23.12214646473849,3.478571428571428L22.69357503616706,3.05L22.5,3.05L22.5,2.95L22.73499639240437,2.95L23.163567820975796,3.3785714285714286z" stroke="none"/><path d="M17.336432179024204,10.45L17.55071789330992,10.235714285714284L18.19357503616706,10.235714285714284L18.62214646473849,9.807142857142857L20.12214646473849,9.807142857142857L20.336432179024204,9.592857142857142L21.62214646473849,9.592857142857142L22.05071789330992,9.164285714285715L22.26500360759563,9.164285714285715L22.46464466094067,8.964644660940673L22.53535533905933,9.035355339059327L22.30642496383294,9.264285714285716L22.092139249547227,9.264285714285716L21.663567820975796,9.692857142857143L20.37785353526151,9.692857142857143L20.163567820975796,9.907142857142858L18.663567820975796,9.907142857142858L18.23499639240437,10.335714285714285L17.592139249547227,10.335714285714285L17.37785353526151,10.55L16.978571428571428,10.55L16.978571428571428,11.592139249547223L16.53535533905933,12.035355339059327L16.46464466094067,11.964644660940673L16.878571428571426,11.550717893309915L16.878571428571426,10.55L16.73499639240437,10.55L16.520710678118654,10.764285714285716L15.663567820975796,10.764285714285716L15.449282106690081,10.978571428571428L14.550717893309915,10.978571428571428L14.336432179024204,10.764285714285716L12.193575036167061,10.764285714285716L11.964644660940673,10.535355339059327L12.035355339059327,10.464644660940673L12.23499639240437,10.664285714285715L14.377853535261512,10.664285714285715L14.592139249547223,10.878571428571426L15.407860750452773,10.878571428571426L15.622146464738488,10.664285714285715L16.479289321881346,10.664285714285715L16.69357503616706,10.45z" stroke="none"/><path d="M12.807142857142857,3.8071428571428574L12.807142857142857,3.622146464738488L13.050717893309915,3.3785714285714286L17.12214646473849,3.3785714285714286L17.55071789330992,2.95L18,2.95L18,3.05L17.592139249547227,3.05L17.163567820975796,3.478571428571428L13.092139249547223,3.478571428571428L12.907142857142858,3.6635678209757976L12.907142857142858,3.8071428571428574L13.306424963832939,3.8071428571428574L13.73499639240437,4.235714285714286L13.949282106690081,4.235714285714286L14.163567820975796,4.45L15,4.45L15,4.55L14.122146464738488,4.55L13.907860750452773,4.335714285714285L13.693575036167061,4.335714285714285L13.26500360759563,3.907142857142857L7.30642496383294,3.907142857142857L7.092139249547226,4.121428571428571L6.663567820975797,4.121428571428571L6.234996392404369,4.55L6,4.55L6,4.45L6.19357503616706,4.45L6.622146464738488,4.021428571428571L7.050717893309916,4.021428571428571L7.265003607595631,3.8071428571428574z" stroke="none"/><path d="M19.664285714285715,4.45L19.664285714285715,4.092139249547226L19.45,3.877853535261512L19.45,3L19.55,3L19.55,3.8364321790242024L19.764285714285716,4.050717893309916L19.764285714285716,4.45L20.55071789330992,4.45L20.76500360759563,4.235714285714286L21.19357503616706,4.235714285714286L21.407860750452773,4.021428571428571L22.94928210669008,4.021428571428571L23.163567820975796,4.235714285714286L23.80642496383294,4.235714285714286L24.03535533905933,4.464644660940673L23.96464466094067,4.535355339059327L23.76500360759563,4.335714285714285L23.12214646473849,4.335714285714285L22.907860750452773,4.121428571428571L21.44928210669008,4.121428571428571L21.23499639240437,4.335714285714285L20.80642496383294,4.335714285714285L20.592139249547227,4.55L19.764285714285716,4.55L19.764285714285716,4.69357503616706L19.94928210669008,4.878571428571429L21.020710678118654,4.878571428571429L21.23499639240437,5.0928571428571425L22.30642496383294,5.0928571428571425L22.520710678118654,5.307142857142857L22.73499639240437,5.307142857142857L23.40714285714286,5.979289321881345L23.40714285714286,6.19357503616706L23.62142857142857,6.407860750452773L23.62142857142857,6.622146464738488L23.835714285714285,6.836432179024202L23.835714285714285,7.050717893309916L24.05,7.265003607595631L24.05,7.5L23.95,7.5L23.95,7.30642496383294L23.735714285714284,7.092139249547226L23.735714285714284,6.8778535352615116L23.52142857142857,6.663567820975797L23.52142857142857,6.449282106690083L23.307142857142857,6.234996392404369L23.307142857142857,6.020710678118655L22.69357503616706,5.407142857142857L22.479289321881346,5.407142857142857L22.26500360759563,5.192857142857142L21.19357503616706,5.192857142857142L20.979289321881346,4.978571428571429L19.907860750452773,4.978571428571429L19.664285714285715,4.734996392404369L19.664285714285715,4.55L19.479289321881346,4.55L19.235714285714284,4.30642496383294L19.235714285714284,3.6635678209757976L19.021428571428572,3.449282106690083L19.021428571428572,3.234996392404369L18.407860750452773,2.6214285714285714L12.663567820975796,2.6214285714285714L12.449282106690081,2.8357142857142854L12.23499639240437,2.8357142857142854L12.035355339059327,3.0353553390593273L11.964644660940673,2.9646446609406727L12.193575036167061,2.7357142857142858L12.407860750452773,2.7357142857142858L12.622146464738488,2.521428571428572L18.44928210669008,2.521428571428572L19.121428571428574,3.1935750361670596L19.121428571428574,3.4078607504527736L19.335714285714285,3.622146464738488L19.335714285714285,4.265003607595631L19.520710678118654,4.45z" stroke="none"/><path d="M21.59285714285714,11.092857142857142L21.59285714285714,10.907860750452773L22.878571428571426,9.622146464738488L22.878571428571426,9.193575036167061L23.09285714285714,8.979289321881346L23.09285714285714,8.806424963832939L22.907860750452773,8.62142857142857L22.092139249547227,8.62142857142857L21.692857142857143,9.020710678118654L21.692857142857143,9.23499639240437L21.44928210669008,9.478571428571428L19.05071789330992,9.478571428571428L18.62214646473849,9.05L18,9.05L18,8.95L18.663567820975796,8.95L19.092139249547227,9.378571428571426L21.407860750452773,9.378571428571426L21.59285714285714,9.193575036167061L21.59285714285714,8.979289321881346L22.05071789330992,8.521428571428569L22.94928210669008,8.521428571428569L23.192857142857143,8.76500360759563L23.192857142857143,9.020710678118654L22.978571428571428,9.23499639240437L22.978571428571428,9.663567820975796L21.692857142857143,10.949282106690081L21.692857142857143,11.092857142857142L21.87785353526151,11.092857142857142L22.520710678118654,11.735714285714284L23.163567820975796,11.735714285714284L23.37785353526151,11.95L24,11.95L24,12.05L23.336432179024204,12.05L23.12214646473849,11.835714285714285L22.479289321881346,11.835714285714285L21.836432179024204,11.192857142857143L21.692857142857143,11.192857142857143L21.692857142857143,11.336432179024204L22.30642496383294,11.95L22.520710678118654,11.95L22.73499639240437,12.164285714285715L26.550717893309915,12.164285714285715L26.76500360759563,11.95L27,11.95L27,12.05L26.80642496383294,12.05L26.592139249547223,12.264285714285716L22.69357503616706,12.264285714285716L22.479289321881346,12.05L22.26500360759563,12.05L21.59285714285714,11.377853535261512L21.59285714285714,11.192857142857143L20.80642496383294,11.192857142857143L20.592139249547227,11.407142857142858L20.37785353526151,11.407142857142858L20.163567820975796,11.62142857142857L19.30642496383294,11.62142857142857L19.092139249547227,11.835714285714285L18.23499639240437,11.835714285714285L18.03535533905933,12.035355339059327L17.96464466094067,11.964644660940673L18.19357503616706,11.735714285714284L19.05071789330992,11.735714285714284L19.26500360759563,11.521428571428569L20.12214646473849,11.521428571428569L20.336432179024204,11.307142857142857L20.55071789330992,11.307142857142857L20.76500360759563,11.092857142857142z" stroke="none"/><path d="M18.23499639240437,6.807142857142857L18.62214646473849,6.807142857142857L19.26500360759563,6.164285714285715L20.336432179024204,6.164285714285715L20.55071789330992,5.95L22.5,5.95L22.5,6.05L20.592139249547227,6.05L20.37785353526151,6.264285714285714L19.30642496383294,6.264285714285714L18.663567820975796,6.907142857142857L18.33499639240437,6.907142857142857L18.478571428571428,7.050717893309916L18.478571428571428,7.265003607595631L19.520710678118654,8.307142857142857L19.73499639240437,8.307142857142857L20.163567820975796,8.735714285714284L20.37785353526151,8.735714285714284L20.592139249547227,8.95L21,8.95L21,9.05L20.55071789330992,9.05L20.336432179024204,8.835714285714285L20.12214646473849,8.835714285714285L19.69357503616706,8.407142857142858L19.479289321881346,8.407142857142858L18.378571428571426,7.30642496383294L18.378571428571426,7.092139249547226L18.19357503616706,6.907142857142857L17.80642496383294,6.907142857142857L17.37785353526151,7.335714285714285L17.163567820975796,7.335714285714285L16.94928210669008,7.55L15.663567820975796,7.55L15.449282106690081,7.764285714285714L15.020710678118654,7.764285714285714L14.592139249547223,8.192857142857143L14.377853535261512,8.192857142857143L13.535355339059327,9.035355339059327L13.464644660940673,8.964644660940673L14.336432179024204,8.092857142857142L14.550717893309915,8.092857142857142L14.979289321881346,7.664285714285715L15.407860750452773,7.664285714285715L15.622146464738488,7.45L16.907860750452773,7.45L17.12214646473849,7.235714285714286L17.336432179024204,7.235714285714286L17.76500360759563,6.807142857142857L18.09357503616706,6.807142857142857L17.307142857142857,6.020710678118655L17.307142857142857,5.592139249547226L16.878571428571426,5.163567820975797L16.878571428571426,4.949282106690084L16.46464466094067,4.535355339059327L16.53535533905933,4.464644660940673L16.978571428571428,4.907860750452774L16.978571428571428,5.122146464738488L17.40714285714286,5.550717893309916L17.40714285714286,5.979289321881345z" stroke="none"/><path d="M24,9.05L24,8.95L25.5,8.95L25.5,9.05z" stroke="none"/><path d="M3,12.05L3,11.95L4.5,11.95L4.5,12.05z" stroke="none"/><path d="M10.5,11.95L10.5,12.05L9,12.05L9,11.95z" stroke="none"/><path d="M13.5,11.95L13.5,12.05L13.050717893309915,12.05L12.836432179024204,11.835714285714285L12.407860750452773,11.835714285714285L11.521428571428569,10.949282106690081L11.521428571428569,10.050717893309915L11.76500360759563,9.807142857142857L13.73499639240437,9.807142857142857L13.949282106690081,10.021428571428569L14.163567820975796,10.021428571428569L14.377853535261512,10.235714285714284L14.806424963832939,10.235714285714284L15.035355339059327,10.464644660940673L14.964644660940673,10.535355339059327L14.76500360759563,10.335714285714285L14.336432179024204,10.335714285714285L14.122146464738488,10.12142857142857L13.907860750452773,10.12142857142857L13.693575036167061,9.907142857142858L11.806424963832939,9.907142857142858L11.62142857142857,10.092139249547223L11.62142857142857,10.907860750452773L12.449282106690081,11.735714285714284L12.877853535261512,11.735714285714284L13.092139249547223,11.95z" stroke="none"/><path d="M26.95,3L27.05,3L27.05,3.622146464738488L27.478571428571428,4.050717893309916L27.478571428571428,4.949282106690084L27.23499639240437,5.192857142857142L26.336432179024204,5.192857142857142L25.69357503616706,4.55L25.5,4.55L25.5,4.45L25.73499639240437,4.45L26.37785353526151,5.0928571428571425L27.19357503616706,5.0928571428571425L27.378571428571426,4.907860750452774L27.378571428571426,4.092139249547226L26.95,3.6635678209757976z" stroke="none"/><path d="M7.5,7.55L7.5,7.45L7.949282106690083,7.45L8.377853535261512,7.878571428571428L9.622146464738488,7.878571428571428L9.836432179024204,7.664285714285715L10.050717893309915,7.664285714285715L10.26500360759563,7.45L10.5,7.45L10.5,7.55L10.306424963832939,7.55L10.092139249547223,7.764285714285714L9.877853535261512,7.764285714285714L9.663567820975796,7.978571428571428L8.336432179024204,7.978571428571428L7.907860750452773,7.55z" stroke="none"/><path d="M27.05,10.5L26.95,10.5L26.95,7.5L27.05,7.5z" stroke="none"/><path d="M3,9.05L3,8.95L3.449282106690083,8.95L3.6635678209757976,9.164285714285715L3.877853535261512,9.164285714285715L4.520710678118655,9.807142857142857L5.163567820975797,9.807142857142857L5.3778535352615116,10.021428571428569L5.592139249547226,10.021428571428569L6.035355339059327,10.464644660940673L5.964644660940673,10.535355339059327L5.550717893309916,10.12142857142857L5.336432179024202,10.12142857142857L5.122146464738488,9.907142857142858L4.479289321881345,9.907142857142858L3.8364321790242024,9.264285714285716L3.622146464738488,9.264285714285716L3.4078607504527736,9.05z" stroke="none"/><path d="M6.035355339059327,7.464644660940673L5.964644660940673,7.535355339059327L5.336432179024202,6.907142857142857L5.122146464738488,6.907142857142857L4.907860750452774,6.692857142857142L4.479289321881345,6.692857142857142L4.265003607595631,6.478571428571428L4.050717893309916,6.478571428571428L3.8364321790242024,6.264285714285714L3.1935750361670596,6.264285714285714L2.9646446609406727,6.035355339059327L3.0353553390593273,5.964644660940673L3.234996392404369,6.164285714285715L3.877853535261512,6.164285714285715L4.092139249547226,6.378571428571428L4.30642496383294,6.378571428571428L4.520710678118655,6.5928571428571425L4.949282106690084,6.5928571428571425L5.163567820975797,6.807142857142857L5.3778535352615116,6.807142857142857z" stroke="none"/><path d="M24,3.05L24,2.95L26.12214646473849,2.95L26.550717893309915,2.521428571428572L27.44928210669008,2.521428571428572L27.692857142857143,2.765003607595631L27.692857142857143,5.163567820975797L27.264285714285716,5.592139249547226L27.264285714285716,5.80642496383294L27.03535533905933,6.035355339059327L26.96464466094067,5.964644660940673L27.164285714285715,5.765003607595631L27.164285714285715,5.550717893309916L27.59285714285714,5.122146464738488L27.59285714285714,2.8064249638329404L27.407860750452773,2.6214285714285714L26.592139249547223,2.6214285714285714L26.163567820975796,3.05z" stroke="none"/><path d="M22.46464466094067,4.535355339059327L22.53535533905933,4.464644660940673L23.62142857142857,5.550717893309916L23.62142857142857,5.979289321881345L24.478571428571428,6.836432179024202L24.478571428571428,7.949282106690083L24.23499639240437,8.192857142857143L20.55071789330992,8.192857142857143L20.12214646473849,7.764285714285714L19.69357503616706,7.764285714285714L19.46464466094067,7.535355339059327L19.53535533905933,7.464644660940673L19.73499639240437,7.664285714285715L20.163567820975796,7.664285714285715L20.592139249547227,8.092857142857142L24.19357503616706,8.092857142857142L24.378571428571426,7.907860750452773L24.378571428571426,6.8778535352615116L23.52142857142857,6.020710678118655L23.52142857142857,5.592139249547226z" stroke="none"/><path d="M18,7.45L18,7.55L17.80642496383294,7.55L17.163567820975796,8.192857142857143L16.520710678118654,8.192857142857143L16.092139249547223,8.62142857142857L15.663567820975796,8.62142857142857L15.23499639240437,9.05L15.020710678118654,9.05L14.806424963832939,9.264285714285716L14.592139249547223,9.264285714285716L14.377853535261512,9.478571428571428L13.050717893309915,9.478571428571428L12.807142857142857,9.23499639240437L12.807142857142857,8.336432179024204L13.235714285714284,7.907860750452773L13.235714285714284,7.69357503616706L13.464644660940673,7.464644660940673L13.535355339059327,7.535355339059327L13.335714285714285,7.734996392404369L13.335714285714285,7.949282106690083L12.907142857142858,8.377853535261512L12.907142857142858,9.193575036167061L13.092139249547223,9.378571428571426L14.336432179024204,9.378571428571426L14.550717893309915,9.164285714285715L14.76500360759563,9.164285714285715L14.979289321881346,8.95L15.193575036167061,8.95L15.622146464738488,8.521428571428569L16.050717893309915,8.521428571428569L16.479289321881346,8.092857142857142L17.12214646473849,8.092857142857142L17.76500360759563,7.45z" stroke="none"/><path d="M4.5,5.95L4.5,6.05L4.050717893309916,6.05L3.622146464738488,5.621428571428571L2.5921392495472264,5.621428571428571L2.407142857142857,5.80642496383294L2.407142857142857,9.407860750452773L2.8357142857142854,9.836432179024204L2.8357142857142854,10.050717893309915L3.05,10.26500360759563L3.05,10.5L2.95,10.5L2.95,10.306424963832939L2.7357142857142858,10.092139249547223L2.7357142857142858,9.877853535261512L2.3071428571428574,9.449282106690081L2.3071428571428574,5.765003607595631L2.550717893309917,5.521428571428571L3.6635678209757976,5.521428571428571L4.092139249547226,5.95z" stroke="none"/><path d="M25.46464466094067,5.964644660940673L25.53535533905933,6.035355339059327L25.12142857142857,6.449282106690083L25.12142857142857,6.8778535352615116L24.692857142857143,7.30642496383294L24.692857142857143,8.163567820975796L24.44928210669008,8.407142857142858L23.80642496383294,8.407142857142858L23.62142857142857,8.592139249547223L23.62142857142857,9.622146464738488L23.835714285714285,9.836432179024204L23.835714285714285,10.050717893309915L24.05,10.26500360759563L24.05,10.5L23.95,10.5L23.95,10.306424963832939L23.735714285714284,10.092139249547223L23.735714285714284,9.877853535261512L23.52142857142857,9.663567820975796L23.52142857142857,8.550717893309915L23.76500360759563,8.307142857142857L24.407860750452773,8.307142857142857L24.59285714285714,8.122146464738488L24.59285714285714,7.265003607595631L25.02142857142857,6.836432179024202L25.02142857142857,6.407860750452773z" stroke="none"/><path d="M25.5,10.55L25.5,10.45L25.73499639240437,10.45L26.37785353526151,11.092857142857142L26.592139249547223,11.092857142857142L26.80642496383294,11.307142857142857L27.23499639240437,11.307142857142857L27.478571428571428,11.550717893309915L27.478571428571428,12.449282106690081L27.23499639240437,12.692857142857143L21.836432179024204,12.692857142857143L21.19357503616706,12.05L21,12.05L21,11.95L21.23499639240437,11.95L21.87785353526151,12.592857142857142L27.19357503616706,12.592857142857142L27.378571428571426,12.407860750452773L27.378571428571426,11.592139249547223L27.19357503616706,11.407142857142858L26.76500360759563,11.407142857142858L26.550717893309915,11.192857142857143L26.336432179024204,11.192857142857143L25.69357503616706,10.55z" stroke="none"/><path d="M7.535355339059327,10.535355339059327L7.464644660940673,10.464644660940673L9.193575036167061,8.735714285714284L9.622146464738488,8.735714285714284L9.836432179024204,8.521428571428569L10.050717893309915,8.521428571428569L10.26500360759563,8.307142857142857L10.479289321881346,8.307142857142857L11.521428571428569,7.265003607595631L11.521428571428569,7.050717893309916L11.735714285714284,6.836432179024202L11.735714285714284,6.407860750452773L11.95,6.19357503616706L11.95,6L12.05,6L12.05,6.234996392404369L11.835714285714285,6.449282106690083L11.835714285714285,6.8778535352615116L11.62142857142857,7.092139249547226L11.62142857142857,7.30642496383294L10.520710678118654,8.407142857142858L10.306424963832939,8.407142857142858L10.092139249547223,8.62142857142857L9.877853535261512,8.62142857142857L9.663567820975796,8.835714285714285L9.23499639240437,8.835714285714285z" stroke="none"/><path d="M9.035355339059327,7.535355339059327L8.964644660940673,7.464644660940673L10.693575036167061,5.735714285714286L11.336432179024204,5.735714285714286L11.550717893309915,5.521428571428571L12.449282106690081,5.521428571428571L12.692857142857143,5.765003607595631L12.692857142857143,8.163567820975796L12.264285714285716,8.592139249547223L12.264285714285716,8.806424963832939L12.05,9.020710678118654L12.05,9.23499639240437L11.407142857142858,9.877853535261512L11.407142857142858,11.122146464738488L12.449282106690081,12.164285714285715L12.663567820975796,12.164285714285715L12.877853535261512,12.378571428571426L13.907860750452773,12.378571428571426L14.122146464738488,12.164285714285715L14.550717893309915,12.164285714285715L14.76500360759563,11.95L15,11.95L15,12.05L14.806424963832939,12.05L14.592139249547223,12.264285714285716L14.163567820975796,12.264285714285716L13.949282106690081,12.478571428571428L12.836432179024204,12.478571428571428L12.622146464738488,12.264285714285716L12.407860750452773,12.264285714285716L11.307142857142857,11.163567820975796L11.307142857142857,9.836432179024204L11.95,9.193575036167061L11.95,8.979289321881346L12.164285714285715,8.76500360759563L12.164285714285715,8.550717893309915L12.592857142857142,8.122146464738488L12.592857142857142,5.80642496383294L12.407860750452773,5.621428571428571L11.592139249547223,5.621428571428571L11.377853535261512,5.835714285714285L10.73499639240437,5.835714285714285z" stroke="none"/><path d="M6.035355339059327,12.035355339059327L5.964644660940673,11.964644660940673L6.19357503616706,11.735714285714284L6.407860750452773,11.735714285714284L6.622146464738488,11.521428571428569L6.836432179024202,11.521428571428569L7.050717893309916,11.307142857142857L7.265003607595631,11.307142857142857L7.479289321881345,11.092857142857142L7.69357503616706,11.092857142857142L7.878571428571428,10.907860750452773L7.878571428571428,10.693575036167061L8.550717893309915,10.021428571428569L8.979289321881346,10.021428571428569L10.479289321881346,8.521428571428569L10.693575036167061,8.521428571428569L11.76500360759563,7.45L12,7.45L12,7.55L11.806424963832939,7.55L10.73499639240437,8.62142857142857L10.520710678118654,8.62142857142857L9.020710678118654,10.12142857142857L8.592139249547223,10.12142857142857L7.978571428571428,10.73499639240437L7.978571428571428,10.949282106690081L7.734996392404369,11.192857142857143L7.520710678118655,11.192857142857143L7.30642496383294,11.407142857142858L7.092139249547226,11.407142857142858L6.8778535352615116,11.62142857142857L6.663567820975797,11.62142857142857L6.449282106690083,11.835714285714285L6.234996392404369,11.835714285714285z" stroke="none"/><path d="M2.9646446609406727,7.535355339059327L3.0353553390593273,7.464644660940673L4.949282106690084,9.378571428571426L5.163567820975797,9.378571428571426L5.592139249547226,9.807142857142857L6.234996392404369,9.807142857142857L6.478571428571428,10.050717893309915L6.478571428571428,10.949282106690081L6.020710678118655,11.407142857142858L5.80642496383294,11.407142857142858L5.621428571428571,11.592139249547223L5.621428571428571,12.407860750452773L5.80642496383294,12.592857142857142L5.979289321881345,12.592857142857142L6.19357503616706,12.378571428571426L6.622146464738488,12.378571428571426L7.050717893309916,11.95L7.265003607595631,11.95L7.479289321881345,11.735714285714284L7.69357503616706,11.735714285714284L7.907860750452773,11.521428571428569L8.979289321881346,11.521428571428569L9.193575036167061,11.307142857142857L9.407860750452773,11.307142857142857L10.26500360759563,10.45L10.5,10.45L10.5,10.55L10.306424963832939,10.55L9.449282106690081,11.407142857142858L9.23499639240437,11.407142857142858L9.020710678118654,11.62142857142857L7.949282106690083,11.62142857142857L7.734996392404369,11.835714285714285L7.520710678118655,11.835714285714285L7.30642496383294,12.05L7.092139249547226,12.05L6.663567820975797,12.478571428571428L6.234996392404369,12.478571428571428L6.020710678118655,12.692857142857143L5.765003607595631,12.692857142857143L5.521428571428571,12.449282106690081L5.521428571428571,11.550717893309915L5.765003607595631,11.307142857142857L5.979289321881345,11.307142857142857L6.378571428571428,10.907860750452773L6.378571428571428,10.092139249547223L6.19357503616706,9.907142857142858L5.550717893309916,9.907142857142858L5.122146464738488,9.478571428571428L4.907860750452774,9.478571428571428z" stroke="none"/><path d="M15,2.95L15,3.05L12.877853535261512,3.05L12.449282106690081,3.478571428571428L5.765003607595631,3.478571428571428L5.550717893309916,3.2642857142857142L4.69357503616706,3.2642857142857142L4.464644660940673,3.0353553390593273L4.535355339059327,2.9646446609406727L4.734996392404369,3.1642857142857146L5.592139249547226,3.1642857142857146L5.80642496383294,3.3785714285714286L12.407860750452773,3.3785714285714286L12.836432179024204,2.95z" stroke="none"/><path d="M18,4.45L18,4.55L17.336432179024204,4.55L16.907860750452773,4.121428571428571L16.092139249547223,4.121428571428571L15.907142857142858,4.30642496383294L15.907142857142858,4.520710678118655L15.449282106690081,4.978571428571429L5.550717893309916,4.978571428571429L4.021428571428571,3.449282106690083L4.021428571428571,2.550717893309917L4.265003607595631,2.3071428571428574L6.020710678118655,2.3071428571428574L6.234996392404369,2.521428571428572L6.663567820975797,2.521428571428572L6.8778535352615116,2.7357142857142858L7.30642496383294,2.7357142857142858L7.535355339059327,2.9646446609406727L7.464644660940673,3.0353553390593273L7.265003607595631,2.8357142857142854L6.836432179024202,2.8357142857142854L6.622146464738488,2.6214285714285714L6.19357503616706,2.6214285714285714L5.979289321881345,2.407142857142857L4.30642496383294,2.407142857142857L4.121428571428571,2.5921392495472264L4.121428571428571,3.4078607504527736L5.592139249547226,4.878571428571429L15.407860750452773,4.878571428571429L15.807142857142857,4.479289321881345L15.807142857142857,4.265003607595631L16.050717893309915,4.021428571428571L16.94928210669008,4.021428571428571L17.37785353526151,4.45z" stroke="none"/><path d="M9,10.55L9,10.45L9.622146464738488,10.45L10.050717893309915,10.021428571428569L10.949282106690081,10.021428571428569L11.192857142857143,10.26500360759563L11.192857142857143,11.336432179024204L12.449282106690081,12.592857142857142L16.26500360759563,12.592857142857142L16.479289321881346,12.378571428571426L16.907860750452773,12.378571428571426L17.09285714285714,12.193575036167061L17.09285714285714,11.979289321881346L17.55071789330992,11.521428571428569L18.836432179024204,11.521428571428569L19.05071789330992,11.307142857142857L19.69357503616706,11.307142857142857L19.907860750452773,11.092857142857142L20.12214646473849,11.092857142857142L20.76500360759563,10.45L21,10.45L21,10.55L20.80642496383294,10.55L20.163567820975796,11.192857142857143L19.94928210669008,11.192857142857143L19.73499639240437,11.407142857142858L19.092139249547227,11.407142857142858L18.87785353526151,11.62142857142857L17.592139249547227,11.62142857142857L17.192857142857143,12.020710678118654L17.192857142857143,12.23499639240437L16.94928210669008,12.478571428571428L16.520710678118654,12.478571428571428L16.30642496383294,12.692857142857143L12.407860750452773,12.692857142857143L11.092857142857142,11.377853535261512L11.092857142857142,10.306424963832939L10.907860750452773,10.12142857142857L10.092139249547223,10.12142857142857L9.663567820975796,10.55z" stroke="none"/><path d="M16.5,5.95L16.5,6.05L16.26500360759563,6.05L16.050717893309915,5.835714285714285L15.836432179024204,5.835714285714285L15.622146464738488,5.621428571428571L13.479289321881346,5.621428571428571L13.26500360759563,5.407142857142857L10.092139249547223,5.407142857142857L9.663567820975796,5.835714285714285L9.449282106690081,5.835714285714285L9.020710678118654,6.264285714285714L8.592139249547223,6.264285714285714L8.377853535261512,6.478571428571428L8.163567820975796,6.478571428571428L7.949282106690083,6.692857142857142L7.734996392404369,6.692857142857142L7.520710678118655,6.907142857142857L7.30642496383294,6.907142857142857L6.692857142857142,7.520710678118655L6.692857142857142,7.734996392404369L6.449282106690083,7.978571428571428L5.550717893309916,7.978571428571428L5.336432179024202,7.764285714285714L4.69357503616706,7.764285714285714L4.464644660940673,7.535355339059327L4.535355339059327,7.464644660940673L4.734996392404369,7.664285714285715L5.3778535352615116,7.664285714285715L5.592139249547226,7.878571428571428L6.407860750452773,7.878571428571428L6.5928571428571425,7.69357503616706L6.5928571428571425,7.479289321881345L7.265003607595631,6.807142857142857L7.479289321881345,6.807142857142857L7.69357503616706,6.5928571428571425L7.907860750452773,6.5928571428571425L8.122146464738488,6.378571428571428L8.336432179024204,6.378571428571428L8.550717893309915,6.164285714285715L8.979289321881346,6.164285714285715L9.407860750452773,5.735714285714286L9.622146464738488,5.735714285714286L10.050717893309915,5.307142857142857L13.306424963832939,5.307142857142857L13.520710678118654,5.521428571428571L15.663567820975796,5.521428571428571L15.877853535261512,5.735714285714286L16.092139249547223,5.735714285714286L16.30642496383294,5.95z" stroke="none"/><path d="M2.9646446609406727,4.535355339059327L3.0353553390593273,4.464644660940673L3.234996392404369,4.664285714285715L3.449282106690083,4.664285714285715L3.6635678209757976,4.878571428571429L3.877853535261512,4.878571428571429L4.092139249547226,5.0928571428571425L16.092139249547223,5.0928571428571425L16.30642496383294,5.307142857142857L16.73499639240437,5.307142857142857L16.978571428571428,5.550717893309916L16.978571428571428,6.449282106690083L16.73499639240437,6.692857142857142L16.050717893309915,6.692857142857142L15.836432179024204,6.478571428571428L15.622146464738488,6.478571428571428L15.193575036167061,6.05L15,6.05L15,5.95L15.23499639240437,5.95L15.663567820975796,6.378571428571428L15.877853535261512,6.378571428571428L16.092139249547223,6.5928571428571425L16.69357503616706,6.5928571428571425L16.878571428571426,6.407860750452773L16.878571428571426,5.592139249547226L16.69357503616706,5.407142857142857L16.26500360759563,5.407142857142857L16.050717893309915,5.192857142857142L4.050717893309916,5.192857142857142L3.8364321790242024,4.978571428571429L3.622146464738488,4.978571428571429L3.4078607504527736,4.764285714285714L3.1935750361670596,4.764285714285714z" stroke="none"/></svg>