<svg version="1.1" width="30" height="15" xmlns="http://www.w3.org/2000/svg"><path d="M8.307142857142857,4.45L8.307142857142857,4.30642496383294L8.122146464738488,4.121428571428571L7.265003607595631,4.121428571428571L7.050717893309916,3.907142857142857L5.979289321881345,3.907142857142857L5.765003607595631,3.6928571428571426L4.907860750452774,3.6928571428571426L4.479289321881345,3.2642857142857142L3.1935750361670596,3.2642857142857142L2.9646446609406727,3.0353553390593273L3.0353553390593273,2.9646446609406727L3.234996392404369,3.1642857142857146L4.520710678118655,3.1642857142857146L4.949282106690084,3.592857142857143L5.80642496383294,3.592857142857143L6.020710678118655,3.8071428571428574L7.092139249547226,3.8071428571428574L7.30642496383294,4.021428571428571L8.163567820975796,4.021428571428571L8.407142857142858,4.265003607595631L8.407142857142858,4.69357503616706L8.592139249547223,4.878571428571429L13.092139249547223,4.878571428571429L13.306424963832939,5.0928571428571425L13.73499639240437,5.0928571428571425L14.163567820975796,5.521428571428571L14.377853535261512,5.521428571428571L14.592139249547223,5.735714285714286L14.806424963832939,5.735714285714286L15.035355339059327,5.964644660940673L14.964644660940673,6.035355339059327L14.76500360759563,5.835714285714285L14.550717893309915,5.835714285714285L14.336432179024204,5.621428571428571L14.122146464738488,5.621428571428571L13.693575036167061,5.192857142857142L13.26500360759563,5.192857142857142L13.050717893309915,4.978571428571429L8.550717893309915,4.978571428571429L8.307142857142857,4.734996392404369L8.307142857142857,4.55L7.5,4.55L7.5,4.45z" stroke="none"/><path d="M20.521428571428572,3.622146464738488L20.521428571428572,3.4078607504527736L20.96464466094067,2.9646446609406727L21.03535533905933,3.0353553390593273L20.621428571428574,3.449282106690083L20.621428571428574,3.6635678209757976L20.477853535261513,3.8071428571428574L20.76500360759563,3.8071428571428574L20.979289321881346,3.592857142857143L21.19357503616706,3.592857142857143L21.62214646473849,3.1642857142857146L22.26500360759563,3.1642857142857146L22.46464466094067,2.9646446609406727L22.53535533905933,3.0353553390593273L22.30642496383294,3.2642857142857142L21.663567820975796,3.2642857142857142L21.23499639240437,3.6928571428571426L21.020710678118654,3.6928571428571426L20.80642496383294,3.907142857142857L20.37785353526151,3.907142857142857L20.192857142857143,4.092139249547226L20.192857142857143,4.30642496383294L19.978571428571428,4.520710678118655L19.978571428571428,4.949282106690084L19.092139249547227,5.835714285714285L18.663567820975796,5.835714285714285L18.44928210669008,6.05L18,6.05L18,5.95L18.407860750452773,5.95L18.62214646473849,5.735714285714286L19.05071789330992,5.735714285714286L19.878571428571426,4.907860750452774L19.878571428571426,4.479289321881345L20.09285714285714,4.265003607595631L20.09285714285714,4.050717893309916z" stroke="none"/><path d="M18.59285714285714,10.26500360759563L18.836432179024204,10.021428571428569L19.907860750452773,10.021428571428569L20.12214646473849,9.807142857142857L21.19357503616706,9.807142857142857L21.407860750452773,9.592857142857142L22.05071789330992,9.592857142857142L22.26500360759563,9.378571428571426L24.62214646473849,9.378571428571426L24.836432179024204,9.164285714285715L25.050717893309915,9.164285714285715L25.26500360759563,8.95L25.5,8.95L25.5,9.05L25.30642496383294,9.05L25.092139249547223,9.264285714285716L24.87785353526151,9.264285714285716L24.663567820975796,9.478571428571428L22.30642496383294,9.478571428571428L22.092139249547227,9.692857142857143L21.44928210669008,9.692857142857143L21.23499639240437,9.907142857142858L20.163567820975796,9.907142857142858L19.94928210669008,10.12142857142857L18.87785353526151,10.12142857142857L18.692857142857143,10.306424963832939L18.692857142857143,10.45L18.87785353526151,10.45L19.121428571428574,10.693575036167061L19.121428571428574,10.949282106690081L18.87785353526151,11.192857142857143L16.520710678118654,11.192857142857143L16.30642496383294,11.407142857142858L16.092139249547223,11.407142857142858L15.877853535261512,11.62142857142857L15.663567820975796,11.62142857142857L15.449282106690081,11.835714285714285L15.23499639240437,11.835714285714285L15.035355339059327,12.035355339059327L14.964644660940673,11.964644660940673L15.193575036167061,11.735714285714284L15.407860750452773,11.735714285714284L15.622146464738488,11.521428571428569L15.836432179024204,11.521428571428569L16.050717893309915,11.307142857142857L16.26500360759563,11.307142857142857L16.479289321881346,11.092857142857142L18.836432179024204,11.092857142857142L19.021428571428572,10.907860750452773L19.021428571428572,10.73499639240437L18.836432179024204,10.55L18.692857142857143,10.55L18.692857142857143,10.73499639240437L18.44928210669008,10.978571428571428L17.336432179024204,10.978571428571428L17.12214646473849,10.764285714285716L16.479289321881346,10.764285714285716L16.26500360759563,10.55L15,10.55L15,10.45L16.30642496383294,10.45L16.520710678118654,10.664285714285715L17.163567820975796,10.664285714285715L17.37785353526151,10.878571428571426L18.407860750452773,10.878571428571426L18.59285714285714,10.693575036167061z" stroke="none"/><path d="M14.092857142857142,8.521428571428569L14.092857142857142,8.336432179024204L14.336432179024204,8.092857142857142L14.979289321881346,8.092857142857142L15.193575036167061,7.878571428571428L15.407860750452773,7.878571428571428L15.622146464738488,7.664285714285715L15.836432179024204,7.664285714285715L16.050717893309915,7.45L16.5,7.45L16.5,7.55L16.092139249547223,7.55L15.877853535261512,7.764285714285714L15.663567820975796,7.764285714285714L15.449282106690081,7.978571428571428L15.23499639240437,7.978571428571428L15.020710678118654,8.192857142857143L14.377853535261512,8.192857142857143L14.192857142857143,8.377853535261512L14.192857142857143,8.521428571428569L15.449282106690081,8.521428571428569L15.877853535261512,8.95L16.5,8.95L16.5,9.05L15.836432179024204,9.05L15.407860750452773,8.62142857142857L14.163567820975796,8.62142857142857L13.949282106690081,8.835714285714285L13.73499639240437,8.835714285714285L13.535355339059327,9.035355339059327L13.464644660940673,8.964644660940673L13.693575036167061,8.735714285714284L13.907860750452773,8.735714285714284L14.022146464738487,8.62142857142857L11.163567820975796,8.62142857142857L10.949282106690081,8.835714285714285L10.73499639240437,8.835714285714285L10.535355339059327,9.035355339059327L10.464644660940673,8.964644660940673L10.693575036167061,8.735714285714284L10.907860750452773,8.735714285714284L11.122146464738488,8.521428571428569z" stroke="none"/><path d="M11.377853535261512,5.0928571428571425L11.806424963832939,5.521428571428571L12.449282106690081,5.521428571428571L12.663567820975796,5.735714285714286L12.877853535261512,5.735714285714286L13.520710678118654,6.378571428571428L15.407860750452773,6.378571428571428L15.592857142857142,6.19357503616706L15.592857142857142,5.80642496383294L15.407860750452773,5.621428571428571L14.76500360759563,5.621428571428571L14.550717893309915,5.407142857142857L14.336432179024204,5.407142857142857L13.907860750452773,4.978571428571429L13.479289321881346,4.978571428571429L13.26500360759563,4.764285714285714L12.836432179024204,4.764285714285714L12.622146464738488,4.55L12,4.55L12,4.45L12.663567820975796,4.45L12.877853535261512,4.664285714285715L13.306424963832939,4.664285714285715L13.520710678118654,4.878571428571429L13.949282106690081,4.878571428571429L14.377853535261512,5.307142857142857L14.592139249547223,5.307142857142857L14.806424963832939,5.521428571428571L15.449282106690081,5.521428571428571L15.692857142857143,5.765003607595631L15.692857142857143,6.234996392404369L15.449282106690081,6.478571428571428L13.479289321881346,6.478571428571428L12.836432179024204,5.835714285714285L12.622146464738488,5.835714285714285L12.407860750452773,5.621428571428571L11.76500360759563,5.621428571428571L11.336432179024204,5.192857142857142L10.55,5.192857142857142L10.55,5.336432179024202L11.592139249547223,6.378571428571428L12.020710678118654,6.378571428571428L12.23499639240437,6.5928571428571425L12.449282106690081,6.5928571428571425L12.877853535261512,7.021428571428571L13.949282106690081,7.021428571428571L14.163567820975796,7.235714285714286L14.377853535261512,7.235714285714286L14.592139249547223,7.45L15,7.45L15,7.55L14.550717893309915,7.55L14.336432179024204,7.335714285714285L14.122146464738488,7.335714285714285L13.907860750452773,7.121428571428571L12.836432179024204,7.121428571428571L12.407860750452773,6.692857142857142L12.193575036167061,6.692857142857142L11.979289321881346,6.478571428571428L11.550717893309915,6.478571428571428L10.45,5.3778535352615116L10.45,5.263567820975797L10.306424963832939,5.407142857142857L10.092139249547223,5.407142857142857L9.663567820975796,5.835714285714285L7.734996392404369,5.835714285714285L7.535355339059327,6.035355339059327L7.464644660940673,5.964644660940673L7.69357503616706,5.735714285714286L9.622146464738488,5.735714285714286L10.050717893309915,5.307142857142857L10.26500360759563,5.307142857142857L10.379289321881345,5.192857142857142L5.979289321881345,5.192857142857142L4.907860750452774,4.121428571428571L4.050717893309916,4.121428571428571L3.8364321790242024,3.907142857142857L3.4078607504527736,3.907142857142857L3.1935750361670596,3.6928571428571426L2.765003607595631,3.6928571428571426L2.521428571428572,3.449282106690083L2.521428571428572,2.550717893309917L2.765003607595631,2.3071428571428574L6.663567820975797,2.3071428571428574L7.30642496383294,2.95L7.5,2.95L7.5,3.05L7.265003607595631,3.05L6.622146464738488,2.407142857142857L2.8064249638329404,2.407142857142857L2.6214285714285714,2.5921392495472264L2.6214285714285714,3.4078607504527736L2.8064249638329404,3.592857142857143L3.234996392404369,3.592857142857143L3.449282106690083,3.8071428571428574L3.877853535261512,3.8071428571428574L4.092139249547226,4.021428571428571L4.949282106690084,4.021428571428571L6.020710678118655,5.0928571428571425z" stroke="none"/><path d="M23.52142857142857,5.307142857142857L23.52142857142857,5.122146464738488L23.76500360759563,4.878571428571429L24.407860750452773,4.878571428571429L24.807142857142857,4.479289321881345L24.807142857142857,4.265003607595631L25.050717893309915,4.021428571428571L25.479289321881346,4.021428571428571L25.69357503616706,3.8071428571428574L25.907860750452773,3.8071428571428574L26.336432179024204,3.3785714285714286L26.550717893309915,3.3785714285714286L26.96464466094067,2.9646446609406727L27.03535533905933,3.0353553390593273L26.592139249547223,3.478571428571428L26.37785353526151,3.478571428571428L25.94928210669008,3.907142857142857L25.73499639240437,3.907142857142857L25.520710678118654,4.121428571428571L25.092139249547223,4.121428571428571L24.90714285714286,4.30642496383294L24.90714285714286,4.520710678118655L24.44928210669008,4.978571428571429L23.80642496383294,4.978571428571429L23.62142857142857,5.163567820975797L23.62142857142857,5.307142857142857L25.479289321881346,5.307142857142857L25.69357503616706,5.0928571428571425L26.336432179024204,5.0928571428571425L26.96464466094067,4.464644660940673L27.03535533905933,4.535355339059327L26.37785353526151,5.192857142857142L25.73499639240437,5.192857142857142L25.520710678118654,5.407142857142857L23.592139249547223,5.407142857142857L23.40714285714286,5.592139249547226L23.40714285714286,5.80642496383294L22.978571428571428,6.234996392404369L22.978571428571428,6.449282106690083L22.73499639240437,6.692857142857142L22.520710678118654,6.692857142857142L21.87785353526151,7.335714285714285L21.663567820975796,7.335714285714285L21.44928210669008,7.55L21,7.55L21,7.45L21.407860750452773,7.45L21.62214646473849,7.235714285714286L21.836432179024204,7.235714285714286L22.479289321881346,6.5928571428571425L22.69357503616706,6.5928571428571425L22.878571428571426,6.407860750452773L22.878571428571426,6.19357503616706L23.307142857142857,5.765003607595631L23.307142857142857,5.550717893309916L23.450717893309914,5.407142857142857L23.163567820975796,5.407142857142857L22.94928210669008,5.621428571428571L22.092139249547227,5.621428571428571L21.020710678118654,6.692857142857142L20.80642496383294,6.692857142857142L20.592139249547227,6.907142857142857L20.37785353526151,6.907142857142857L19.94928210669008,7.335714285714285L19.73499639240437,7.335714285714285L19.53535533905933,7.535355339059327L19.46464466094067,7.464644660940673L19.69357503616706,7.235714285714286L19.907860750452773,7.235714285714286L20.336432179024204,6.807142857142857L20.55071789330992,6.807142857142857L20.76500360759563,6.5928571428571425L20.979289321881346,6.5928571428571425L22.05071789330992,5.521428571428571L22.907860750452773,5.521428571428571L23.12214646473849,5.307142857142857z" stroke="none"/><path d="M3,4.55L3,4.45L4.5,4.45L4.5,4.55z" stroke="none"/><path d="M25.5,4.55L25.5,4.45L25.69357503616706,4.45L26.12214646473849,4.021428571428571L26.76500360759563,4.021428571428571L27.378571428571426,3.4078607504527736L27.378571428571426,2.5921392495472264L27.19357503616706,2.407142857142857L25.73499639240437,2.407142857142857L25.520710678118654,2.6214285714285714L25.092139249547223,2.6214285714285714L24.87785353526151,2.8357142857142854L24.23499639240437,2.8357142857142854L24.03535533905933,3.0353553390593273L23.96464466094067,2.9646446609406727L24.19357503616706,2.7357142857142858L24.836432179024204,2.7357142857142858L25.050717893309915,2.521428571428572L25.479289321881346,2.521428571428572L25.69357503616706,2.3071428571428574L27.23499639240437,2.3071428571428574L27.478571428571428,2.550717893309917L27.478571428571428,3.449282106690083L26.80642496383294,4.121428571428571L26.163567820975796,4.121428571428571L25.73499639240437,4.55z" stroke="none"/><path d="M4.535355339059327,10.464644660940673L4.464644660940673,10.535355339059327L2.9646446609406727,9.035355339059327L3.0353553390593273,8.964644660940673z" stroke="none"/><path d="M21,4.55L21,4.45L24,4.45L24,4.55z" stroke="none"/><path d="M17.96464466094067,7.464644660940673L18.03535533905933,7.535355339059327L17.621428571428574,7.949282106690083L17.621428571428574,8.592139249547223L17.192857142857143,9.020710678118654L17.192857142857143,9.23499639240437L16.94928210669008,9.478571428571428L15.836432179024204,9.478571428571428L15.622146464738488,9.264285714285716L15.407860750452773,9.264285714285716L15.193575036167061,9.05L15,9.05L15,8.95L15.23499639240437,8.95L15.449282106690081,9.164285714285715L15.663567820975796,9.164285714285715L15.877853535261512,9.378571428571426L16.907860750452773,9.378571428571426L17.09285714285714,9.193575036167061L17.09285714285714,8.979289321881346L17.521428571428572,8.550717893309915L17.521428571428572,7.907860750452773z" stroke="none"/><path d="M3,12.05L3,11.95L3.4078607504527736,11.95L4.050717893309916,11.307142857142857L4.265003607595631,11.307142857142857L4.479289321881345,11.092857142857142L4.69357503616706,11.092857142857142L4.878571428571429,10.907860750452773L4.878571428571429,9.877853535261512L4.664285714285715,9.663567820975796L4.664285714285715,9.23499639240437L4.464644660940673,9.035355339059327L4.535355339059327,8.964644660940673L4.764285714285714,9.193575036167061L4.764285714285714,9.622146464738488L4.978571428571429,9.836432179024204L4.978571428571429,10.949282106690081L4.734996392404369,11.192857142857143L4.520710678118655,11.192857142857143L4.30642496383294,11.407142857142858L4.092139249547226,11.407142857142858L3.449282106690083,12.05z" stroke="none"/><path d="M4.535355339059327,5.964644660940673L4.464644660940673,6.035355339059327L3.8364321790242024,5.407142857142857L3.4078607504527736,5.407142857142857L3.1935750361670596,5.192857142857142L2.765003607595631,5.192857142857142L2.521428571428572,4.949282106690084L2.521428571428572,3.877853535261512L2.3071428571428574,3.6635678209757976L2.3071428571428574,2.3364321790242024L2.550717893309917,2.092857142857143L7.30642496383294,2.092857142857143L7.520710678118655,2.3071428571428574L7.734996392404369,2.3071428571428574L7.978571428571428,2.550717893309917L7.978571428571428,3.449282106690083L7.734996392404369,3.6928571428571426L7.479289321881345,3.6928571428571426L7.265003607595631,3.478571428571428L6.836432179024202,3.478571428571428L6.407860750452773,3.05L6,3.05L6,2.95L6.449282106690083,2.95L6.8778535352615116,3.3785714285714286L7.30642496383294,3.3785714285714286L7.520710678118655,3.592857142857143L7.69357503616706,3.592857142857143L7.878571428571428,3.4078607504527736L7.878571428571428,2.5921392495472264L7.69357503616706,2.407142857142857L7.479289321881345,2.407142857142857L7.265003607595631,2.1928571428571426L2.5921392495472264,2.1928571428571426L2.407142857142857,2.377853535261512L2.407142857142857,3.622146464738488L2.6214285714285714,3.8364321790242024L2.6214285714285714,4.907860750452774L2.8064249638329404,5.0928571428571425L3.234996392404369,5.0928571428571425L3.449282106690083,5.307142857142857L3.877853535261512,5.307142857142857z" stroke="none"/><path d="M4.535355339059327,12.035355339059327L4.464644660940673,11.964644660940673L7.464644660940673,8.964644660940673L7.535355339059327,9.035355339059327z" stroke="none"/><path d="M22.5,10.55L22.5,10.45L23.76500360759563,10.45L24.19357503616706,10.021428571428569L24.836432179024204,10.021428571428569L25.050717893309915,9.807142857142857L25.479289321881346,9.807142857142857L25.878571428571426,9.407860750452773L25.878571428571426,8.163567820975796L25.45,7.734996392404369L25.45,7.5L25.55,7.5L25.55,7.69357503616706L25.978571428571428,8.122146464738488L25.978571428571428,9.449282106690081L25.520710678118654,9.907142857142858L25.092139249547223,9.907142857142858L24.87785353526151,10.12142857142857L24.23499639240437,10.12142857142857L23.80642496383294,10.55z" stroke="none"/><path d="M27,11.95L27,12.05L22.5,12.05L22.5,11.95z" stroke="none"/><path d="M12,12.05L12,11.95L12.449282106690081,11.95L12.663567820975796,12.164285714285715L13.520710678118654,12.164285714285715L13.73499639240437,12.378571428571426L15.836432179024204,12.378571428571426L16.050717893309915,12.164285714285715L16.26500360759563,12.164285714285715L16.46464466094067,11.964644660940673L16.53535533905933,12.035355339059327L16.30642496383294,12.264285714285716L16.092139249547223,12.264285714285716L15.877853535261512,12.478571428571428L13.693575036167061,12.478571428571428L13.479289321881346,12.264285714285716L12.622146464738488,12.264285714285716L12.407860750452773,12.05z" stroke="none"/><path d="M25.55,10.5L25.45,10.5L25.45,10.26500360759563L26.09285714285714,9.622146464738488L26.09285714285714,7.092139249547226L25.878571428571426,6.8778535352615116L25.878571428571426,6.663567820975797L25.45,6.234996392404369L25.45,6L25.55,6L25.55,6.19357503616706L25.978571428571428,6.622146464738488L25.978571428571428,6.836432179024202L26.192857142857143,7.050717893309916L26.192857142857143,9.663567820975796L25.55,10.306424963832939z" stroke="none"/><path d="M24.05,9L23.95,9L23.95,8.550717893309915L24.164285714285715,8.336432179024204L24.164285714285715,8.122146464738488L24.59285714285714,7.69357503616706L24.59285714285714,6.19357503616706L24.807142857142857,5.979289321881345L24.807142857142857,5.765003607595631L25.050717893309915,5.521428571428571L25.94928210669008,5.521428571428571L26.40714285714286,5.979289321881345L26.40714285714286,10.306424963832939L26.192857142857143,10.520710678118654L26.192857142857143,10.73499639240437L25.94928210669008,10.978571428571428L20.336432179024204,10.978571428571428L20.12214646473849,10.764285714285716L19.69357503616706,10.764285714285716L19.46464466094067,10.535355339059327L19.53535533905933,10.464644660940673L19.73499639240437,10.664285714285715L20.163567820975796,10.664285714285715L20.37785353526151,10.878571428571426L25.907860750452773,10.878571428571426L26.09285714285714,10.693575036167061L26.09285714285714,10.479289321881346L26.307142857142857,10.26500360759563L26.307142857142857,6.020710678118655L25.907860750452773,5.621428571428571L25.092139249547223,5.621428571428571L24.90714285714286,5.80642496383294L24.90714285714286,6.020710678118655L24.692857142857143,6.234996392404369L24.692857142857143,7.734996392404369L24.264285714285716,8.163567820975796L24.264285714285716,8.377853535261512L24.05,8.592139249547223z" stroke="none"/><path d="M7.464644660940673,7.535355339059327L7.535355339059327,7.464644660940673L7.734996392404369,7.664285714285715L7.949282106690083,7.664285714285715L8.806424963832939,8.521428571428569L9.020710678118654,8.521428571428569L9.663567820975796,9.164285714285715L9.877853535261512,9.164285714285715L10.092139249547223,9.378571428571426L11.336432179024204,9.378571428571426L11.550717893309915,9.164285714285715L11.76500360759563,9.164285714285715L11.964644660940673,8.964644660940673L12.035355339059327,9.035355339059327L11.806424963832939,9.264285714285716L11.592139249547223,9.264285714285716L11.377853535261512,9.478571428571428L10.050717893309915,9.478571428571428L9.836432179024204,9.264285714285716L9.622146464738488,9.264285714285716L8.979289321881346,8.62142857142857L8.76500360759563,8.62142857142857L7.907860750452773,7.764285714285714L7.69357503616706,7.764285714285714z" stroke="none"/><path d="M19.53535533905933,9.035355339059327L19.46464466094067,8.964644660940673L19.907860750452773,8.521428571428569L20.336432179024204,8.521428571428569L20.76500360759563,8.092857142857142L21.19357503616706,8.092857142857142L21.407860750452773,7.878571428571428L21.62214646473849,7.878571428571428L22.69357503616706,6.807142857142857L22.907860750452773,6.807142857142857L23.550717893309915,6.164285714285715L23.76500360759563,6.164285714285715L23.96464466094067,5.964644660940673L24.03535533905933,6.035355339059327L23.80642496383294,6.264285714285714L23.592139249547223,6.264285714285714L22.94928210669008,6.907142857142857L22.73499639240437,6.907142857142857L21.663567820975796,7.978571428571428L21.44928210669008,7.978571428571428L21.23499639240437,8.192857142857143L20.80642496383294,8.192857142857143L20.37785353526151,8.62142857142857L19.94928210669008,8.62142857142857z" stroke="none"/><path d="M12,6.05L12,5.95L12.449282106690081,5.95L13.092139249547223,6.5928571428571425L18.020710678118654,6.5928571428571425L18.478571428571428,7.050717893309916L18.478571428571428,7.949282106690083L17.835714285714285,8.592139249547223L17.835714285714285,9.020710678118654L17.163567820975796,9.692857142857143L9.020710678118654,9.692857142857143L8.592139249547223,10.12142857142857L8.377853535261512,10.12142857142857L7.949282106690083,10.55L7.5,10.55L7.5,10.45L7.907860750452773,10.45L8.336432179024204,10.021428571428569L8.550717893309915,10.021428571428569L8.979289321881346,9.592857142857142L17.12214646473849,9.592857142857142L17.735714285714284,8.979289321881346L17.735714285714284,8.550717893309915L18.378571428571426,7.907860750452773L18.378571428571426,7.092139249547226L17.979289321881346,6.692857142857142L13.050717893309915,6.692857142857142L12.407860750452773,6.05z" stroke="none"/><path d="M9.05,4.5L8.95,4.5L8.95,3.877853535261512L8.735714285714284,3.6635678209757976L8.735714285714284,3.449282106690083L8.521428571428569,3.234996392404369L8.521428571428569,3.020710678118655L8.307142857142857,2.8064249638329404L8.307142857142857,2.5921392495472264L7.907860750452773,2.1928571428571426L7.69357503616706,2.1928571428571426L7.479289321881345,1.9785714285714286L2.377853535261512,1.9785714285714286L2.1928571428571426,2.1635678209757976L2.1928571428571426,6.407860750452773L2.6214285714285714,6.836432179024202L2.6214285714285714,7.050717893309916L3.0353553390593273,7.464644660940673L2.9646446609406727,7.535355339059327L2.521428571428572,7.092139249547226L2.521428571428572,6.8778535352615116L2.092857142857143,6.449282106690083L2.092857142857143,2.122146464738488L2.3364321790242024,1.8785714285714286L7.520710678118655,1.8785714285714286L7.734996392404369,2.092857142857143L7.949282106690083,2.092857142857143L8.407142857142858,2.550717893309917L8.407142857142858,2.765003607595631L8.62142857142857,2.979289321881345L8.62142857142857,3.1935750361670596L8.835714285714285,3.4078607504527736L8.835714285714285,3.622146464738488L9.05,3.8364321790242024z" stroke="none"/><path d="M19.5,2.95L19.5,3.05L14.76500360759563,3.05L14.550717893309915,2.8357142857142854L14.122146464738488,2.8357142857142854L13.907860750452773,2.6214285714285714L12.877853535261512,2.6214285714285714L12.663567820975796,2.8357142857142854L12.449282106690081,2.8357142857142854L12.23499639240437,3.05L12,3.05L12,2.95L12.193575036167061,2.95L12.407860750452773,2.7357142857142858L12.622146464738488,2.7357142857142858L12.836432179024204,2.521428571428572L13.949282106690081,2.521428571428572L14.163567820975796,2.7357142857142858L14.592139249547223,2.7357142857142858L14.806424963832939,2.95z" stroke="none"/><path d="M14.964644660940673,4.535355339059327L15.035355339059327,4.464644660940673L15.877853535261512,5.307142857142857L16.30642496383294,5.307142857142857L16.520710678118654,5.521428571428571L16.73499639240437,5.521428571428571L17.592139249547227,6.378571428571428L18.23499639240437,6.378571428571428L18.692857142857143,6.836432179024202L18.692857142857143,7.050717893309916L18.90714285714286,7.265003607595631L18.90714285714286,7.69357503616706L19.092139249547227,7.878571428571428L19.907860750452773,7.878571428571428L20.307142857142857,7.479289321881345L20.307142857142857,7.265003607595631L20.55071789330992,7.021428571428571L20.979289321881346,7.021428571428571L21.62214646473849,6.378571428571428L21.836432179024204,6.378571428571428L22.26500360759563,5.95L22.5,5.95L22.5,6.05L22.30642496383294,6.05L21.87785353526151,6.478571428571428L21.663567820975796,6.478571428571428L21.020710678118654,7.121428571428571L20.592139249547227,7.121428571428571L20.40714285714286,7.30642496383294L20.40714285714286,7.520710678118655L19.94928210669008,7.978571428571428L19.05071789330992,7.978571428571428L18.807142857142857,7.734996392404369L18.807142857142857,7.30642496383294L18.59285714285714,7.092139249547226L18.59285714285714,6.8778535352615116L18.19357503616706,6.478571428571428L17.55071789330992,6.478571428571428L16.69357503616706,5.621428571428571L16.479289321881346,5.621428571428571L16.26500360759563,5.407142857142857L15.836432179024204,5.407142857142857z" stroke="none"/><path d="M6,7.45L6,7.55L4.734996392404369,7.55L4.520710678118655,7.764285714285714L3.6635678209757976,7.764285714285714L3.449282106690083,7.978571428571428L2.550717893309917,7.978571428571428L2.3071428571428574,7.734996392404369L2.3071428571428574,7.30642496383294L2.092857142857143,7.092139249547226L2.092857142857143,6.8778535352615116L1.8785714285714286,6.663567820975797L1.8785714285714286,1.9078607504527738L2.122146464738488,1.6642857142857144L7.734996392404369,1.6642857142857144L7.949282106690083,1.8785714285714286L8.163567820975796,1.8785714285714286L8.377853535261512,2.092857142857143L8.592139249547223,2.092857142857143L8.806424963832939,2.3071428571428574L9.020710678118654,2.3071428571428574L10.092139249547223,3.3785714285714286L12.836432179024204,3.3785714285714286L13.050717893309915,3.1642857142857146L13.26500360759563,3.1642857142857146L13.464644660940673,2.9646446609406727L13.535355339059327,3.0353553390593273L13.306424963832939,3.2642857142857142L13.092139249547223,3.2642857142857142L12.877853535261512,3.478571428571428L10.050717893309915,3.478571428571428L8.979289321881346,2.407142857142857L8.76500360759563,2.407142857142857L8.550717893309915,2.1928571428571426L8.336432179024204,2.1928571428571426L8.122146464738488,1.9785714285714286L7.907860750452773,1.9785714285714286L7.69357503616706,1.7642857142857145L2.1635678209757976,1.7642857142857145L1.9785714285714286,1.9492821066900834L1.9785714285714286,6.622146464738488L2.1928571428571426,6.836432179024202L2.1928571428571426,7.050717893309916L2.407142857142857,7.265003607595631L2.407142857142857,7.69357503616706L2.5921392495472264,7.878571428571428L3.4078607504527736,7.878571428571428L3.622146464738488,7.664285714285715L4.479289321881345,7.664285714285715L4.69357503616706,7.45z" stroke="none"/><path d="M9,10.55L9,10.45L13.693575036167061,10.45L13.907860750452773,10.235714285714284L14.336432179024204,10.235714285714284L14.550717893309915,10.021428571428569L17.37785353526151,10.021428571428569L17.592139249547227,10.235714285714284L17.80642496383294,10.235714285714284L18.03535533905933,10.464644660940673L17.96464466094067,10.535355339059327L17.76500360759563,10.335714285714285L17.55071789330992,10.335714285714285L17.336432179024204,10.12142857142857L14.592139249547223,10.12142857142857L14.377853535261512,10.335714285714285L13.949282106690081,10.335714285714285L13.73499639240437,10.55z" stroke="none"/><path d="M19.53535533905933,4.535355339059327L19.46464466094067,4.464644660940673L19.664285714285715,4.265003607595631L19.664285714285715,3.622146464738488L19.878571428571426,3.4078607504527736L19.878571428571426,2.5921392495472264L19.69357503616706,2.407142857142857L12.663567820975796,2.407142857142857L12.449282106690081,2.6214285714285714L11.377853535261512,2.6214285714285714L11.163567820975796,2.8357142857142854L10.949282106690081,2.8357142857142854L10.73499639240437,3.05L10.5,3.05L10.5,2.95L10.693575036167061,2.95L10.907860750452773,2.7357142857142858L11.122146464738488,2.7357142857142858L11.336432179024204,2.521428571428572L12.407860750452773,2.521428571428572L12.622146464738488,2.3071428571428574L19.73499639240437,2.3071428571428574L19.978571428571428,2.550717893309917L19.978571428571428,3.449282106690083L19.764285714285716,3.6635678209757976L19.764285714285716,4.30642496383294z" stroke="none"/><path d="M12,7.45L12,7.55L8.336432179024204,7.55L7.907860750452773,7.121428571428571L5.550717893309916,7.121428571428571L5.336432179024202,6.907142857142857L4.050717893309916,6.907142857142857L3.1935750361670596,6.05L3,6.05L3,5.95L3.234996392404369,5.95L4.092139249547226,6.807142857142857L5.3778535352615116,6.807142857142857L5.592139249547226,7.021428571428571L7.949282106690083,7.021428571428571L8.377853535261512,7.45z" stroke="none"/><path d="M17.96464466094067,11.964644660940673L18.03535533905933,12.035355339059327L17.80642496383294,12.264285714285716L17.592139249547227,12.264285714285716L17.37785353526151,12.478571428571428L16.30642496383294,12.478571428571428L16.092139249547223,12.692857142857143L9.193575036167061,12.692857142857143L8.122146464738488,11.62142857142857L7.69357503616706,11.62142857142857L7.021428571428571,10.949282106690081L7.021428571428571,10.050717893309915L7.69357503616706,9.378571428571426L7.907860750452773,9.378571428571426L8.092857142857142,9.193575036167061L8.092857142857142,8.806424963832939L7.907860750452773,8.62142857142857L6.663567820975797,8.62142857142857L6.449282106690083,8.835714285714285L6.234996392404369,8.835714285714285L6.035355339059327,9.035355339059327L5.964644660940673,8.964644660940673L6.19357503616706,8.735714285714284L6.407860750452773,8.735714285714284L6.622146464738488,8.521428571428569L7.949282106690083,8.521428571428569L8.192857142857143,8.76500360759563L8.192857142857143,9.23499639240437L7.949282106690083,9.478571428571428L7.734996392404369,9.478571428571428L7.121428571428571,10.092139249547223L7.121428571428571,10.907860750452773L7.734996392404369,11.521428571428569L8.163567820975796,11.521428571428569L9.23499639240437,12.592857142857142L16.050717893309915,12.592857142857142L16.26500360759563,12.378571428571426L17.336432179024204,12.378571428571426L17.55071789330992,12.164285714285715L17.76500360759563,12.164285714285715z" stroke="none"/></svg>