<svg version="1.1" width="30" height="15" xmlns="http://www.w3.org/2000/svg"><path d="M12.877853535261512,10.878571428571426L13.949282106690081,10.878571428571426L14.377853535261512,11.307142857142857L14.592139249547223,11.307142857142857L14.806424963832939,11.521428571428569L15.663567820975796,11.521428571428569L16.092139249547223,11.95L16.5,11.95L16.5,12.05L16.050717893309915,12.05L15.622146464738488,11.62142857142857L14.76500360759563,11.62142857142857L14.550717893309915,11.407142857142858L14.336432179024204,11.407142857142858L13.907860750452773,10.978571428571428L12.877853535261512,10.978571428571428L12.692857142857143,11.163567820975796L12.692857142857143,11.377853535261512L12.035355339059327,12.035355339059327L11.964644660940673,11.964644660940673L12.592857142857142,11.336432179024204L12.592857142857142,11.122146464738488L12.786432179024203,10.928571428571427L11.336432179024204,9.478571428571428L11.122146464738488,9.478571428571428L10.693575036167061,9.05L10.5,9.05L10.5,8.95L10.73499639240437,8.95L11.163567820975796,9.378571428571426L11.377853535261512,9.378571428571426z" stroke="none"/><path d="M5.163567820975797,8.95L5.3778535352615116,8.95L5.621428571428571,9.193575036167061L5.621428571428571,9.407860750452773L5.80642496383294,9.592857142857142L6.020710678118655,9.592857142857142L6.234996392404369,9.807142857142857L6.663567820975797,9.807142857142857L6.8778535352615116,10.021428571428569L7.092139249547226,10.021428571428569L7.535355339059327,10.464644660940673L7.464644660940673,10.535355339059327L7.050717893309916,10.12142857142857L6.836432179024202,10.12142857142857L6.622146464738488,9.907142857142858L6.19357503616706,9.907142857142858L5.979289321881345,9.692857142857143L5.765003607595631,9.692857142857143L5.521428571428571,9.449282106690081L5.521428571428571,9.23499639240437L5.336432179024202,9.05L5.192857142857142,9.05L5.192857142857142,9.449282106690081L4.978571428571429,9.663567820975796L4.978571428571429,9.877853535261512L4.55,10.306424963832939L4.55,10.5L4.45,10.5L4.45,10.26500360759563L4.878571428571429,9.836432179024204L4.878571428571429,9.622146464738488L5.0928571428571425,9.407860750452773L5.0928571428571425,9.020710678118654L4.878571428571429,8.806424963832939L4.878571428571429,8.592139249547223L4.479289321881345,8.192857142857143L4.265003607595631,8.192857142857143L4.021428571428571,7.949282106690083L4.021428571428571,7.734996392404369L3.3785714285714286,7.092139249547226L3.3785714285714286,6.663567820975797L3.1642857142857146,6.449282106690083L3.1642857142857146,6.234996392404369L2.9646446609406727,6.035355339059327L3.0353553390593273,5.964644660940673L3.2642857142857142,6.19357503616706L3.2642857142857142,6.407860750452773L3.478571428571428,6.622146464738488L3.478571428571428,7.050717893309916L4.121428571428571,7.69357503616706L4.121428571428571,7.907860750452773L4.30642496383294,8.092857142857142L4.520710678118655,8.092857142857142L4.978571428571429,8.550717893309915L4.978571428571429,8.76500360759563z" stroke="none"/><path d="M23.163567820975796,10.878571428571426L24.020710678118654,11.735714285714284L24.23499639240437,11.735714285714284L24.44928210669008,11.95L25.5,11.95L25.5,12.05L24.407860750452773,12.05L24.19357503616706,11.835714285714285L23.979289321881346,11.835714285714285L23.12214646473849,10.978571428571428L18.90714285714286,10.978571428571428L18.90714285714286,11.163567820975796L18.663567820975796,11.407142857142858L18.19357503616706,11.407142857142858L17.979289321881346,11.192857142857143L16.26500360759563,11.192857142857143L16.050717893309915,10.978571428571428L15.622146464738488,10.978571428571428L15.407860750452773,10.764285714285716L15.193575036167061,10.764285714285716L14.964644660940673,10.535355339059327L15.035355339059327,10.464644660940673L15.23499639240437,10.664285714285715L15.449282106690081,10.664285714285715L15.663567820975796,10.878571428571426L16.092139249547223,10.878571428571426L16.30642496383294,11.092857142857142L18.020710678118654,11.092857142857142L18.23499639240437,11.307142857142857L18.62214646473849,11.307142857142857L18.807142857142857,11.122146464738488L18.807142857142857,10.978571428571428L17.55071789330992,10.978571428571428L17.12214646473849,10.55L16.5,10.55L16.5,10.45L17.163567820975796,10.45L17.592139249547227,10.878571428571426z" stroke="none"/><path d="M6.19357503616706,5.521428571428571L7.265003607595631,4.45L7.5,4.45L7.5,4.55L7.30642496383294,4.55L6.334996392404369,5.521428571428571L6.622146464738488,5.521428571428571L7.265003607595631,4.878571428571429L8.336432179024204,4.878571428571429L8.550717893309915,4.664285714285715L8.76500360759563,4.664285714285715L8.964644660940673,4.464644660940673L9.035355339059327,4.535355339059327L8.806424963832939,4.764285714285714L8.592139249547223,4.764285714285714L8.377853535261512,4.978571428571429L7.30642496383294,4.978571428571429L6.663567820975797,5.621428571428571L6.264285714285714,5.621428571428571L6.264285714285714,6.836432179024202L6.478571428571428,7.050717893309916L6.478571428571428,8.163567820975796L6.264285714285714,8.377853535261512L6.264285714285714,8.806424963832939L6.035355339059327,9.035355339059327L5.964644660940673,8.964644660940673L6.164285714285715,8.76500360759563L6.164285714285715,8.336432179024204L6.378571428571428,8.122146464738488L6.378571428571428,7.092139249547226L6.164285714285715,6.8778535352615116L6.164285714285715,5.621428571428571L4.907860750452774,5.621428571428571L4.479289321881345,5.192857142857142L4.265003607595631,5.192857142857142L3.8364321790242024,4.764285714285714L3.622146464738488,4.764285714285714L3.4078607504527736,4.55L3,4.55L3,4.45L3.449282106690083,4.45L3.6635678209757976,4.664285714285715L3.877853535261512,4.664285714285715L4.30642496383294,5.0928571428571425L4.520710678118655,5.0928571428571425L4.949282106690084,5.521428571428571z" stroke="none"/><path d="M22.5,5.500717893309917L22.69357503616706,5.307142857142857L22.907860750452773,5.307142857142857L23.76500360759563,4.45L24,4.45L24,4.55L23.80642496383294,4.55L22.94928210669008,5.407142857142857L22.73499639240437,5.407142857142857L22.570710678118655,5.571428571428571L23.592139249547223,6.5928571428571425L24.020710678118654,6.5928571428571425L24.478571428571428,7.050717893309916L24.478571428571428,7.265003607595631L25.73499639240437,8.521428571428569L26.37785353526151,8.521428571428569L26.592139249547223,8.735714285714284L26.80642496383294,8.735714285714284L27.03535533905933,8.964644660940673L26.96464466094067,9.035355339059327L26.76500360759563,8.835714285714285L26.550717893309915,8.835714285714285L26.336432179024204,8.62142857142857L25.69357503616706,8.62142857142857L24.378571428571426,7.30642496383294L24.378571428571426,7.092139249547226L23.979289321881346,6.692857142857142L23.550717893309915,6.692857142857142L22.479289321881346,5.621428571428571L21.407860750452773,5.621428571428571L21.19357503616706,5.407142857142857L20.979289321881346,5.407142857142857L20.76500360759563,5.192857142857142L20.12214646473849,5.192857142857142L19.907860750452773,4.978571428571429L19.479289321881346,4.978571428571429L19.26500360759563,4.764285714285714L19.05071789330992,4.764285714285714L18.836432179024204,4.55L18,4.55L18,4.45L18.87785353526151,4.45L19.092139249547227,4.664285714285715L19.30642496383294,4.664285714285715L19.520710678118654,4.878571428571429L19.94928210669008,4.878571428571429L20.163567820975796,5.0928571428571425L20.80642496383294,5.0928571428571425L21.020710678118654,5.307142857142857L21.23499639240437,5.307142857142857L21.44928210669008,5.521428571428571L22.379289321881345,5.521428571428571L21.836432179024204,4.978571428571429L21.407860750452773,4.978571428571429L20.96464466094067,4.535355339059327L21.03535533905933,4.464644660940673L21.44928210669008,4.878571428571429L21.87785353526151,4.878571428571429z" stroke="none"/><path d="M18.164285714285715,8.092857142857142L18.164285714285715,7.949282106690083L17.979289321881346,7.764285714285714L17.163567820975796,7.764285714285714L16.94928210669008,7.978571428571428L15.193575036167061,7.978571428571428L14.979289321881346,7.764285714285714L13.693575036167061,7.764285714285714L13.464644660940673,7.535355339059327L13.535355339059327,7.464644660940673L13.73499639240437,7.664285714285715L15.020710678118654,7.664285714285715L15.23499639240437,7.878571428571428L16.907860750452773,7.878571428571428L17.12214646473849,7.664285714285715L18.020710678118654,7.664285714285715L18.264285714285716,7.907860750452773L18.264285714285716,8.092857142857142L18.836432179024204,8.092857142857142L19.479289321881346,7.45L21,7.45L21,7.55L19.520710678118654,7.55L18.87785353526151,8.192857142857143L18.264285714285716,8.192857142857143L18.264285714285716,8.336432179024204L18.44928210669008,8.521428571428569L23.163567820975796,8.521428571428569L23.37785353526151,8.735714285714284L23.592139249547223,8.735714285714284L23.80642496383294,8.95L24,8.95L24,9.05L23.76500360759563,9.05L23.550717893309915,8.835714285714285L23.336432179024204,8.835714285714285L23.12214646473849,8.62142857142857L18.407860750452773,8.62142857142857L18.164285714285715,8.377853535261512L18.164285714285715,8.192857142857143L17.37785353526151,8.192857142857143L16.94928210669008,8.62142857142857L16.092139249547223,8.62142857142857L15.877853535261512,8.835714285714285L15.23499639240437,8.835714285714285L15.035355339059327,9.035355339059327L14.964644660940673,8.964644660940673L15.193575036167061,8.735714285714284L15.836432179024204,8.735714285714284L16.050717893309915,8.521428571428569L16.907860750452773,8.521428571428569L17.336432179024204,8.092857142857142z" stroke="none"/><path d="M18,10.55L18,10.45L19.5,10.45L19.5,10.55z" stroke="none"/><path d="M24,3.05L24,2.95L25.5,2.95L25.5,3.05z" stroke="none"/><path d="M3.05,9L2.95,9L2.95,7.734996392404369L2.521428571428572,7.30642496383294L2.521428571428572,6.449282106690083L2.3071428571428574,6.234996392404369L2.3071428571428574,5.765003607595631L2.550717893309917,5.521428571428571L3.449282106690083,5.521428571428571L3.907142857142857,5.979289321881345L3.907142857142857,6.19357503616706L4.121428571428571,6.407860750452773L4.121428571428571,6.622146464738488L4.335714285714285,6.836432179024202L4.335714285714285,7.050717893309916L4.55,7.265003607595631L4.55,7.5L4.45,7.5L4.45,7.30642496383294L4.235714285714286,7.092139249547226L4.235714285714286,6.8778535352615116L4.021428571428571,6.663567820975797L4.021428571428571,6.449282106690083L3.8071428571428574,6.234996392404369L3.8071428571428574,6.020710678118655L3.4078607504527736,5.621428571428571L2.5921392495472264,5.621428571428571L2.407142857142857,5.80642496383294L2.407142857142857,6.19357503616706L2.6214285714285714,6.407860750452773L2.6214285714285714,7.265003607595631L3.05,7.69357503616706z" stroke="none"/><path d="M13.464644660940673,11.964644660940673L13.535355339059327,12.035355339059327L13.306424963832939,12.264285714285716L12.663567820975796,12.264285714285716L12.449282106690081,12.478571428571428L11.336432179024204,12.478571428571428L11.122146464738488,12.264285714285716L10.693575036167061,12.264285714285716L10.464644660940673,12.035355339059327L10.535355339059327,11.964644660940673L10.73499639240437,12.164285714285715L11.163567820975796,12.164285714285715L11.377853535261512,12.378571428571426L12.407860750452773,12.378571428571426L12.622146464738488,12.164285714285715L13.26500360759563,12.164285714285715z" stroke="none"/><path d="M25.53535533905933,10.464644660940673L25.46464466094067,10.535355339059327L25.235714285714284,10.306424963832939L25.235714285714284,9.877853535261512L25.02142857142857,9.663567820975796L25.02142857142857,9.449282106690081L24.59285714285714,9.020710678118654L24.59285714285714,8.806424963832939L23.95,8.163567820975796L23.95,7.5L24.05,7.5L24.05,8.122146464738488L24.692857142857143,8.76500360759563L24.692857142857143,8.979289321881346L25.12142857142857,9.407860750452773L25.12142857142857,9.622146464738488L25.335714285714285,9.836432179024204L25.335714285714285,10.26500360759563z" stroke="none"/><path d="M3,12.05L3,11.95L3.622146464738488,11.95L3.8364321790242024,11.735714285714284L4.050717893309916,11.735714285714284L4.265003607595631,11.521428571428569L4.479289321881345,11.521428571428569L4.69357503616706,11.307142857142857L4.907860750452774,11.307142857142857L5.765003607595631,10.45L6,10.45L6,10.55L5.80642496383294,10.55L4.949282106690084,11.407142857142858L4.734996392404369,11.407142857142858L4.520710678118655,11.62142857142857L4.30642496383294,11.62142857142857L4.092139249547226,11.835714285714285L3.877853535261512,11.835714285714285L3.6635678209757976,12.05z" stroke="none"/><path d="M13.55,9L13.45,9L13.45,8.592139249547223L13.235714285714284,8.377853535261512L13.235714285714284,8.163567820975796L12.807142857142857,7.734996392404369L12.807142857142857,7.520710678118655L12.407860750452773,7.121428571428571L11.979289321881346,7.121428571428571L11.336432179024204,6.478571428571428L10.907860750452773,6.478571428571428L10.464644660940673,6.035355339059327L10.535355339059327,5.964644660940673L10.949282106690081,6.378571428571428L11.377853535261512,6.378571428571428L12.020710678118654,7.021428571428571L12.449282106690081,7.021428571428571L12.907142857142858,7.479289321881345L12.907142857142858,7.69357503616706L13.335714285714285,8.122146464738488L13.335714285714285,8.336432179024204L13.55,8.550717893309915z" stroke="none"/><path d="M16.5,2.95L16.5,3.05L15.23499639240437,3.05L14.806424963832939,3.478571428571428L12.622146464738488,3.478571428571428L12.193575036167061,3.05L12,3.05L12,2.95L12.23499639240437,2.95L12.663567820975796,3.3785714285714286L14.76500360759563,3.3785714285714286L15.193575036167061,2.95z" stroke="none"/><path d="M22.5,9.05L22.5,8.95L22.94928210669008,8.95L24.663567820975796,10.664285714285715L24.87785353526151,10.664285714285715L25.092139249547223,10.878571428571426L25.907860750452773,10.878571428571426L27.378571428571426,9.407860750452773L27.378571428571426,8.163567820975796L27.164285714285715,7.949282106690083L27.164285714285715,7.734996392404369L26.96464466094067,7.535355339059327L27.03535533905933,7.464644660940673L27.264285714285716,7.69357503616706L27.264285714285716,7.907860750452773L27.478571428571428,8.122146464738488L27.478571428571428,9.449282106690081L25.94928210669008,10.978571428571428L25.050717893309915,10.978571428571428L24.836432179024204,10.764285714285716L24.62214646473849,10.764285714285716L22.907860750452773,9.05z" stroke="none"/><path d="M7.535355339059327,7.535355339059327L7.464644660940673,7.464644660940673L8.092857142857142,6.836432179024202L8.092857142857142,6.622146464738488L9.164285714285715,5.550717893309916L9.164285714285715,5.336432179024202L9.378571428571426,5.122146464738488L9.378571428571426,4.092139249547226L9.193575036167061,3.907142857142857L7.050717893309916,3.907142857142857L6.407860750452773,3.2642857142857142L6.19357503616706,3.2642857142857142L5.964644660940673,3.0353553390593273L6.035355339059327,2.9646446609406727L6.234996392404369,3.1642857142857146L6.449282106690083,3.1642857142857146L7.092139249547226,3.8071428571428574L9.23499639240437,3.8071428571428574L9.478571428571428,4.050717893309916L9.478571428571428,5.163567820975797L9.264285714285716,5.3778535352615116L9.264285714285716,5.592139249547226L8.192857142857143,6.663567820975797L8.192857142857143,6.8778535352615116z" stroke="none"/><path d="M2.95,3L3.05,3L3.05,3.6635678209757976L2.6214285714285714,4.092139249547226L2.6214285714285714,4.907860750452774L2.8064249638329404,5.0928571428571425L3.234996392404369,5.0928571428571425L3.449282106690083,5.307142857142857L3.6635678209757976,5.307142857142857L5.80642496383294,7.45L6,7.45L6,7.55L5.765003607595631,7.55L3.622146464738488,5.407142857142857L3.4078607504527736,5.407142857142857L3.1935750361670596,5.192857142857142L2.765003607595631,5.192857142857142L2.521428571428572,4.949282106690084L2.521428571428572,4.050717893309916L2.95,3.622146464738488z" stroke="none"/><path d="M22.5,3.05L22.5,2.95L23.163567820975796,2.95L23.80642496383294,3.592857142857143L24.020710678118654,3.592857142857143L24.478571428571428,4.050717893309916L24.478571428571428,5.979289321881345L24.692857142857143,6.19357503616706L24.692857142857143,6.407860750452773L25.55,7.265003607595631L25.55,7.5L25.45,7.5L25.45,7.30642496383294L24.59285714285714,6.449282106690083L24.59285714285714,6.234996392404369L24.378571428571426,6.020710678118655L24.378571428571426,4.092139249547226L23.979289321881346,3.6928571428571426L23.76500360759563,3.6928571428571426L23.12214646473849,3.05z" stroke="none"/><path d="M10.5,10.45L10.5,10.55L9.23499639240437,10.55L8.806424963832939,10.978571428571428L7.050717893309916,10.978571428571428L6.807142857142857,10.73499639240437L6.807142857142857,10.520710678118654L6.407860750452773,10.12142857142857L5.592139249547226,10.12142857142857L5.407142857142857,10.306424963832939L5.407142857142857,10.520710678118654L4.949282106690084,10.978571428571428L4.050717893309916,10.978571428571428L3.8071428571428574,10.73499639240437L3.8071428571428574,10.26500360759563L4.235714285714286,9.836432179024204L4.235714285714286,9.193575036167061L4.464644660940673,8.964644660940673L4.535355339059327,9.035355339059327L4.335714285714285,9.23499639240437L4.335714285714285,9.877853535261512L3.907142857142857,10.306424963832939L3.907142857142857,10.693575036167061L4.092139249547226,10.878571428571426L4.907860750452774,10.878571428571426L5.307142857142857,10.479289321881346L5.307142857142857,10.26500360759563L5.550717893309916,10.021428571428569L6.449282106690083,10.021428571428569L6.907142857142857,10.479289321881346L6.907142857142857,10.693575036167061L7.092139249547226,10.878571428571426L8.76500360759563,10.878571428571426L9.193575036167061,10.45z" stroke="none"/><path d="M21,5.95L21,6.05L20.336432179024204,6.05L19.907860750452773,5.621428571428571L17.979289321881346,5.621428571428571L17.76500360759563,5.407142857142857L16.907860750452773,5.407142857142857L16.69357503616706,5.192857142857142L15.836432179024204,5.192857142857142L15.193575036167061,4.55L15,4.55L15,4.45L15.23499639240437,4.45L15.877853535261512,5.0928571428571425L16.73499639240437,5.0928571428571425L16.94928210669008,5.307142857142857L17.80642496383294,5.307142857142857L18.020710678118654,5.521428571428571L19.94928210669008,5.521428571428571L20.37785353526151,5.95z" stroke="none"/><path d="M18,8.95L18,9.05L16.94928210669008,9.05L16.73499639240437,9.264285714285716L16.520710678118654,9.264285714285716L16.30642496383294,9.478571428571428L13.050717893309915,9.478571428571428L12.807142857142857,9.23499639240437L12.807142857142857,8.806424963832939L12.378571428571426,8.377853535261512L12.378571428571426,8.163567820975796L11.95,7.734996392404369L11.95,7.5L12.05,7.5L12.05,7.69357503616706L12.478571428571428,8.122146464738488L12.478571428571428,8.336432179024204L12.907142857142858,8.76500360759563L12.907142857142858,9.193575036167061L13.092139249547223,9.378571428571426L16.26500360759563,9.378571428571426L16.479289321881346,9.164285714285715L16.69357503616706,9.164285714285715L16.907860750452773,8.95z" stroke="none"/><path d="M10.5,2.95L10.5,3.05L7.265003607595631,3.05L7.050717893309916,2.8357142857142854L6.836432179024202,2.8357142857142854L6.622146464738488,2.6214285714285714L5.592139249547226,2.6214285714285714L5.407142857142857,2.8064249638329404L5.407142857142857,3.449282106690083L4.764285714285714,4.092139249547226L4.764285714285714,4.30642496383294L4.535355339059327,4.535355339059327L4.464644660940673,4.464644660940673L4.664285714285715,4.265003607595631L4.664285714285715,4.050717893309916L5.307142857142857,3.4078607504527736L5.307142857142857,2.765003607595631L5.550717893309916,2.521428571428572L6.663567820975797,2.521428571428572L6.8778535352615116,2.7357142857142858L7.092139249547226,2.7357142857142858L7.30642496383294,2.95z" stroke="none"/><path d="M6,12.05L6,11.95L6.449282106690083,11.95L6.8778535352615116,12.378571428571426L10.949282106690081,12.378571428571426L11.163567820975796,12.592857142857142L14.122146464738488,12.592857142857142L14.550717893309915,12.164285714285715L14.76500360759563,12.164285714285715L14.964644660940673,11.964644660940673L15.035355339059327,12.035355339059327L14.806424963832939,12.264285714285716L14.592139249547223,12.264285714285716L14.163567820975796,12.692857142857143L11.122146464738488,12.692857142857143L10.907860750452773,12.478571428571428L6.836432179024202,12.478571428571428L6.407860750452773,12.05z" stroke="none"/><path d="M22.5,4.45L22.5,4.55L21.836432179024204,4.55L21.407860750452773,4.121428571428571L19.907860750452773,4.121428571428571L19.26500360759563,3.478571428571428L19.05071789330992,3.478571428571428L18.836432179024204,3.2642857142857142L17.76500360759563,3.2642857142857142L17.336432179024204,2.8357142857142854L17.12214646473849,2.8357142857142854L16.907860750452773,2.6214285714285714L14.377853535261512,2.6214285714285714L14.163567820975796,2.8357142857142854L13.73499639240437,2.8357142857142854L13.535355339059327,3.0353553390593273L13.464644660940673,2.9646446609406727L13.693575036167061,2.7357142857142858L14.122146464738488,2.7357142857142858L14.336432179024204,2.521428571428572L16.94928210669008,2.521428571428572L17.163567820975796,2.7357142857142858L17.37785353526151,2.7357142857142858L17.80642496383294,3.1642857142857146L18.87785353526151,3.1642857142857146L19.092139249547227,3.3785714285714286L19.30642496383294,3.3785714285714286L19.94928210669008,4.021428571428571L21.44928210669008,4.021428571428571L21.87785353526151,4.45z" stroke="none"/><path d="M12.05,4.5L11.95,4.5L11.95,3.877853535261512L11.521428571428569,3.449282106690083L11.521428571428569,2.550717893309917L11.76500360759563,2.3071428571428574L18.23499639240437,2.3071428571428574L18.44928210669008,2.521428571428572L18.87785353526151,2.521428571428572L19.092139249547227,2.7357142857142858L20.592139249547227,2.7357142857142858L20.80642496383294,2.95L21,2.95L21,3.05L20.76500360759563,3.05L20.55071789330992,2.8357142857142854L19.05071789330992,2.8357142857142854L18.836432179024204,2.6214285714285714L18.407860750452773,2.6214285714285714L18.19357503616706,2.407142857142857L11.806424963832939,2.407142857142857L11.62142857142857,2.5921392495472264L11.62142857142857,3.4078607504527736L12.05,3.8364321790242024z" stroke="none"/><path d="M7.5,12.05L7.5,11.95L8.550717893309915,11.95L8.76500360759563,11.735714285714284L8.979289321881346,11.735714285714284L9.193575036167061,11.521428571428569L10.050717893309915,11.521428571428569L10.26500360759563,11.307142857142857L10.479289321881346,11.307142857142857L10.878571428571426,10.907860750452773L10.878571428571426,10.092139249547223L10.693575036167061,9.907142857142858L10.479289321881346,9.907142857142858L10.021428571428569,9.449282106690081L10.021428571428569,5.550717893309916L10.26500360759563,5.307142857142857L12.663567820975796,5.307142857142857L12.877853535261512,5.521428571428571L13.092139249547223,5.521428571428571L13.520710678118654,5.95L13.73499639240437,5.95L13.949282106690081,6.164285714285715L14.377853535261512,6.164285714285715L14.592139249547223,6.378571428571428L15.23499639240437,6.378571428571428L16.092139249547223,7.235714285714286L16.30642496383294,7.235714285714286L16.53535533905933,7.464644660940673L16.46464466094067,7.535355339059327L16.26500360759563,7.335714285714285L16.050717893309915,7.335714285714285L15.193575036167061,6.478571428571428L14.550717893309915,6.478571428571428L14.336432179024204,6.264285714285714L13.907860750452773,6.264285714285714L13.693575036167061,6.05L13.479289321881346,6.05L13.050717893309915,5.621428571428571L12.836432179024204,5.621428571428571L12.622146464738488,5.407142857142857L10.306424963832939,5.407142857142857L10.12142857142857,5.592139249547226L10.12142857142857,9.407860750452773L10.520710678118654,9.807142857142857L10.73499639240437,9.807142857142857L10.978571428571428,10.050717893309915L10.978571428571428,10.949282106690081L10.520710678118654,11.407142857142858L10.306424963832939,11.407142857142858L10.092139249547223,11.62142857142857L9.23499639240437,11.62142857142857L9.020710678118654,11.835714285714285L8.806424963832939,11.835714285714285L8.592139249547223,12.05z" stroke="none"/><path d="M2.95,10.5L3.05,10.5L3.05,11.163567820975796L2.6214285714285714,11.592139249547223L2.6214285714285714,12.407860750452773L2.8064249638329404,12.592857142857142L10.73499639240437,12.592857142857142L10.949282106690081,12.807142857142857L16.479289321881346,12.807142857142857L16.878571428571426,12.407860750452773L16.878571428571426,11.592139249547223L16.69357503616706,11.407142857142858L15.622146464738488,11.407142857142858L15.407860750452773,11.192857142857143L14.550717893309915,11.192857142857143L14.122146464738488,10.764285714285716L13.907860750452773,10.764285714285716L13.693575036167061,10.55L13.5,10.55L13.5,10.45L13.73499639240437,10.45L13.949282106690081,10.664285714285715L14.163567820975796,10.664285714285715L14.592139249547223,11.092857142857142L15.449282106690081,11.092857142857142L15.663567820975796,11.307142857142857L16.73499639240437,11.307142857142857L16.978571428571428,11.550717893309915L16.978571428571428,12.449282106690081L16.520710678118654,12.907142857142858L10.907860750452773,12.907142857142858L10.693575036167061,12.692857142857143L2.765003607595631,12.692857142857143L2.521428571428572,12.449282106690081L2.521428571428572,11.550717893309915L2.95,11.122146464738488z" stroke="none"/><path d="M21,8.95L21,9.05L19.092139249547227,9.05L18.87785353526151,9.264285714285716L18.663567820975796,9.264285714285716L18.44928210669008,9.478571428571428L16.73499639240437,9.478571428571428L16.520710678118654,9.692857142857143L12.836432179024204,9.692857142857143L10.907860750452773,7.764285714285714L10.693575036167061,7.764285714285714L10.464644660940673,7.535355339059327L10.535355339059327,7.464644660940673L10.73499639240437,7.664285714285715L10.949282106690081,7.664285714285715L12.877853535261512,9.592857142857142L16.479289321881346,9.592857142857142L16.69357503616706,9.378571428571426L18.407860750452773,9.378571428571426L18.62214646473849,9.164285714285715L18.836432179024204,9.164285714285715L19.05071789330992,8.95z" stroke="none"/><path d="M19.5,5.95L19.5,6.05L15.836432179024204,6.05L15.622146464738488,5.835714285714285L14.76500360759563,5.835714285714285L14.550717893309915,5.621428571428571L14.336432179024204,5.621428571428571L13.907860750452773,5.192857142857142L10.092139249547223,5.192857142857142L9.907142857142858,5.3778535352615116L9.907142857142858,5.80642496383294L9.264285714285716,6.449282106690083L9.264285714285716,6.663567820975797L9.05,6.8778535352615116L9.05,7.5L8.95,7.5L8.95,6.836432179024202L9.164285714285715,6.622146464738488L9.164285714285715,6.407860750452773L9.807142857142857,5.765003607595631L9.807142857142857,5.336432179024202L10.050717893309915,5.0928571428571425L13.949282106690081,5.0928571428571425L14.377853535261512,5.521428571428571L14.592139249547223,5.521428571428571L14.806424963832939,5.735714285714286L15.663567820975796,5.735714285714286L15.877853535261512,5.95z" stroke="none"/><path d="M4.535355339059327,3.0353553390593273L4.464644660940673,2.9646446609406727L4.907860750452774,2.521428571428572L5.122146464738488,2.521428571428572L5.336432179024202,2.3071428571428574L10.73499639240437,2.3071428571428574L10.978571428571428,2.550717893309917L10.978571428571428,4.050717893309916L11.407142857142858,4.479289321881345L11.407142857142858,4.69357503616706L11.592139249547223,4.878571428571429L13.050717893309915,4.878571428571429L13.26500360759563,4.664285714285715L13.479289321881346,4.664285714285715L14.122146464738488,4.021428571428571L15.877853535261512,4.021428571428571L16.092139249547223,4.235714285714286L16.30642496383294,4.235714285714286L16.53535533905933,4.464644660940673L16.46464466094067,4.535355339059327L16.26500360759563,4.335714285714285L16.050717893309915,4.335714285714285L15.836432179024204,4.121428571428571L14.163567820975796,4.121428571428571L13.520710678118654,4.764285714285714L13.306424963832939,4.764285714285714L13.092139249547223,4.978571428571429L11.550717893309915,4.978571428571429L11.307142857142857,4.734996392404369L11.307142857142857,4.520710678118655L10.878571428571426,4.092139249547226L10.878571428571426,2.5921392495472264L10.693575036167061,2.407142857142857L5.3778535352615116,2.407142857142857L5.163567820975797,2.6214285714285714L4.949282106690084,2.6214285714285714z" stroke="none"/></svg>