<svg version="1.1" width="30" height="15" xmlns="http://www.w3.org/2000/svg"><path d="M6.807142857142857,7.479289321881345L6.807142857142857,7.265003607595631L7.021428571428571,7.050717893309916L7.021428571428571,6.836432179024202L7.235714285714286,6.622146464738488L7.235714285714286,6.407860750452773L7.45,6.19357503616706L7.45,6L7.55,6L7.55,6.234996392404369L7.335714285714285,6.449282106690083L7.335714285714285,6.663567820975797L7.121428571428571,6.8778535352615116L7.121428571428571,7.092139249547226L6.907142857142857,7.30642496383294L6.907142857142857,7.45L7.050717893309916,7.45L7.907860750452773,6.5928571428571425L8.336432179024204,6.5928571428571425L8.550717893309915,6.378571428571428L9.407860750452773,6.378571428571428L9.622146464738488,6.164285714285715L10.26500360759563,6.164285714285715L10.464644660940673,5.964644660940673L10.535355339059327,6.035355339059327L10.306424963832939,6.264285714285714L9.663567820975796,6.264285714285714L9.449282106690081,6.478571428571428L8.592139249547223,6.478571428571428L8.377853535261512,6.692857142857142L7.949282106690083,6.692857142857142L7.092139249547226,7.55L6.8778535352615116,7.55L6.020710678118655,8.407142857142858L5.80642496383294,8.407142857142858L3.877853535261512,10.335714285714285L3.449282106690083,10.335714285714285L3.234996392404369,10.55L3,10.55L3,10.45L3.1935750361670596,10.45L3.4078607504527736,10.235714285714284L3.8364321790242024,10.235714285714284L5.765003607595631,8.307142857142857L5.979289321881345,8.307142857142857z" stroke="none"/><path d="M21,3.7864321790242026L21.62214646473849,3.1642857142857146L21.836432179024204,3.1642857142857146L22.05071789330992,2.95L22.5,2.95L22.5,3.05L22.092139249547227,3.05L21.87785353526151,3.2642857142857142L21.663567820975796,3.2642857142857142L21.05,3.877853535261512L21.05,6L20.95,6L20.95,3.877853535261512L20.336432179024204,3.2642857142857142L20.12214646473849,3.2642857142857142L19.907860750452773,3.05L19.5,3.05L19.5,2.95L19.94928210669008,2.95L20.163567820975796,3.1642857142857146L20.37785353526151,3.1642857142857146z" stroke="none"/><path d="M19.46464466094067,7.464644660940673L19.53535533905933,7.535355339059327L18.120710678118655,8.95L18.663567820975796,8.95L19.092139249547227,9.378571428571426L21.407860750452773,9.378571428571426L21.62214646473849,9.164285714285715L22.05071789330992,9.164285714285715L22.26500360759563,8.95L22.5,8.95L22.5,9.05L22.30642496383294,9.05L22.092139249547227,9.264285714285716L21.663567820975796,9.264285714285716L21.44928210669008,9.478571428571428L19.05071789330992,9.478571428571428L18.62214646473849,9.05L18.020710678118654,9.05L17.592139249547227,9.478571428571428L16.94928210669008,9.478571428571428L16.73499639240437,9.692857142857143L15.877853535261512,9.692857142857143L15.663567820975796,9.907142857142858L13.306424963832939,9.907142857142858L13.092139249547223,10.12142857142857L12.449282106690081,10.12142857142857L12.035355339059327,10.535355339059327L11.964644660940673,10.464644660940673L12.407860750452773,10.021428571428569L13.050717893309915,10.021428571428569L13.26500360759563,9.807142857142857L15.622146464738488,9.807142857142857L15.836432179024204,9.592857142857142L16.69357503616706,9.592857142857142L16.907860750452773,9.378571428571426L17.55071789330992,9.378571428571426z" stroke="none"/><path d="M10.021428571428569,10.45L10.021428571428569,8.550717893309915L10.26500360759563,8.307142857142857L10.693575036167061,8.307142857142857L11.122146464738488,7.878571428571428L11.336432179024204,7.878571428571428L11.550717893309915,7.664285714285715L11.76500360759563,7.664285714285715L11.964644660940673,7.464644660940673L12.035355339059327,7.535355339059327L11.806424963832939,7.764285714285714L11.592139249547223,7.764285714285714L11.377853535261512,7.978571428571428L11.163567820975796,7.978571428571428L10.73499639240437,8.407142857142858L10.306424963832939,8.407142857142858L10.12142857142857,8.592139249547223L10.12142857142857,10.479289321881346L10.949282106690081,11.307142857142857L11.377853535261512,11.307142857142857L12.035355339059327,11.964644660940673L11.964644660940673,12.035355339059327L11.336432179024204,11.407142857142858L10.907860750452773,11.407142857142858L10.12142857142857,10.620710678118655L10.12142857142857,10.73499639240437L9.877853535261512,10.978571428571428L9.663567820975796,10.978571428571428L9.23499639240437,11.407142857142858L8.592139249547223,11.407142857142858L8.377853535261512,11.62142857142857L7.949282106690083,11.62142857142857L7.535355339059327,12.035355339059327L7.464644660940673,11.964644660940673L7.907860750452773,11.521428571428569L8.336432179024204,11.521428571428569L8.550717893309915,11.307142857142857L9.193575036167061,11.307142857142857L9.622146464738488,10.878571428571426L9.836432179024204,10.878571428571426L10.021428571428569,10.693575036167061L10.021428571428569,10.55L9,10.55L9,10.45z" stroke="none"/><path d="M23.592139249547223,6.164285714285715L24.663567820975796,6.164285714285715L24.87785353526151,6.378571428571428L26.336432179024204,6.378571428571428L26.550717893309915,6.164285714285715L26.76500360759563,6.164285714285715L26.96464466094067,5.964644660940673L27.03535533905933,6.035355339059327L26.80642496383294,6.264285714285714L26.592139249547223,6.264285714285714L26.37785353526151,6.478571428571428L24.836432179024204,6.478571428571428L24.62214646473849,6.264285714285714L23.62142857142857,6.264285714285714L23.62142857142857,6.407860750452773L23.80642496383294,6.5928571428571425L24.44928210669008,6.5928571428571425L24.663567820975796,6.807142857142857L25.73499639240437,6.807142857142857L25.94928210669008,7.021428571428571L26.37785353526151,7.021428571428571L26.80642496383294,7.45L27,7.45L27,7.55L26.76500360759563,7.55L26.336432179024204,7.121428571428571L25.907860750452773,7.121428571428571L25.69357503616706,6.907142857142857L24.62214646473849,6.907142857142857L24.407860750452773,6.692857142857142L23.76500360759563,6.692857142857142L23.52142857142857,6.449282106690083L23.52142857142857,6.264285714285714L23.163567820975796,6.264285714285714L22.94928210669008,6.478571428571428L22.73499639240437,6.478571428571428L22.30642496383294,6.907142857142857L18.87785353526151,6.907142857142857L18.663567820975796,7.121428571428571L18.44928210669008,7.121428571428571L18.03535533905933,7.535355339059327L17.96464466094067,7.464644660940673L18.407860750452773,7.021428571428571L18.62214646473849,7.021428571428571L18.836432179024204,6.807142857142857L22.26500360759563,6.807142857142857L22.69357503616706,6.378571428571428L22.907860750452773,6.378571428571428L23.12214646473849,6.164285714285715L23.450717893309914,6.164285714285715L22.45,5.163567820975797L22.45,4.5L22.55,4.5L22.55,5.122146464738488z" stroke="none"/><path d="M13.021428571428569,10.664285714285715L13.021428571428569,10.479289321881346L13.26500360759563,10.235714285714284L18.23499639240437,10.235714285714284L18.478571428571428,10.479289321881346L18.478571428571428,12.020710678118654L18.23499639240437,12.264285714285716L12.663567820975796,12.264285714285716L12.449282106690081,12.478571428571428L6.622146464738488,12.478571428571428L6.19357503616706,12.05L6,12.05L6,11.95L6.234996392404369,11.95L6.663567820975797,12.378571428571426L12.407860750452773,12.378571428571426L12.622146464738488,12.164285714285715L18.19357503616706,12.164285714285715L18.378571428571426,11.979289321881346L18.378571428571426,10.520710678118654L18.19357503616706,10.335714285714285L13.306424963832939,10.335714285714285L13.12142857142857,10.520710678118654L13.12142857142857,10.664285714285715L17.336432179024204,10.664285714285715L17.55071789330992,10.45L18,10.45L18,10.55L17.592139249547227,10.55L17.37785353526151,10.764285714285716L13.12142857142857,10.764285714285716L13.12142857142857,10.907860750452773L13.306424963832939,11.092857142857142L14.377853535261512,11.092857142857142L14.592139249547223,11.307142857142857L15.663567820975796,11.307142857142857L15.877853535261512,11.521428571428569L16.94928210669008,11.521428571428569L17.163567820975796,11.735714285714284L17.80642496383294,11.735714285714284L18.03535533905933,11.964644660940673L17.96464466094067,12.035355339059327L17.76500360759563,11.835714285714285L17.12214646473849,11.835714285714285L16.907860750452773,11.62142857142857L15.836432179024204,11.62142857142857L15.622146464738488,11.407142857142858L14.550717893309915,11.407142857142858L14.336432179024204,11.192857142857143L13.26500360759563,11.192857142857143L13.021428571428569,10.949282106690081L13.021428571428569,10.764285714285716L12.663567820975796,10.764285714285716L12.449282106690081,10.978571428571428L11.550717893309915,10.978571428571428L11.307142857142857,10.73499639240437L11.307142857142857,10.520710678118654L10.878571428571426,10.092139249547223L10.878571428571426,9.877853535261512L10.664285714285715,9.663567820975796L10.664285714285715,9.23499639240437L10.464644660940673,9.035355339059327L10.535355339059327,8.964644660940673L10.764285714285716,9.193575036167061L10.764285714285716,9.622146464738488L10.978571428571428,9.836432179024204L10.978571428571428,10.050717893309915L11.407142857142858,10.479289321881346L11.407142857142858,10.693575036167061L11.592139249547223,10.878571428571426L12.407860750452773,10.878571428571426L12.622146464738488,10.664285714285715z" stroke="none"/><path d="M7.45,9L7.55,9L7.55,10.5L7.45,10.5z" stroke="none"/><path d="M25.5,7.55L25.5,7.45L25.73499639240437,7.45L25.94928210669008,7.664285714285715L26.163567820975796,7.664285714285715L26.37785353526151,7.878571428571428L27.407860750452773,7.878571428571428L27.59285714285714,7.69357503616706L27.59285714285714,5.80642496383294L27.407860750452773,5.621428571428571L26.37785353526151,5.621428571428571L26.163567820975796,5.835714285714285L25.73499639240437,5.835714285714285L25.53535533905933,6.035355339059327L25.46464466094067,5.964644660940673L25.69357503616706,5.735714285714286L26.12214646473849,5.735714285714286L26.336432179024204,5.521428571428571L27.44928210669008,5.521428571428571L27.692857142857143,5.765003607595631L27.692857142857143,7.734996392404369L27.44928210669008,7.978571428571428L26.336432179024204,7.978571428571428L26.12214646473849,7.764285714285714L25.907860750452773,7.764285714285714L25.69357503616706,7.55z" stroke="none"/><path d="M27.03535533905933,4.464644660940673L26.96464466094067,4.535355339059327L25.46464466094067,3.0353553390593273L25.53535533905933,2.9646446609406727z" stroke="none"/><path d="M13.464644660940673,2.9646446609406727L13.535355339059327,3.0353553390593273L12.035355339059327,4.535355339059327L11.964644660940673,4.464644660940673z" stroke="none"/><path d="M4.5,10.45L4.5,10.55L4.30642496383294,10.55L4.092139249547226,10.764285714285716L3.877853535261512,10.764285714285716L3.6635678209757976,10.978571428571428L2.550717893309917,10.978571428571428L2.3071428571428574,10.73499639240437L2.3071428571428574,9.836432179024204L2.7357142857142858,9.407860750452773L2.7357142857142858,9.193575036167061L2.9646446609406727,8.964644660940673L3.0353553390593273,9.035355339059327L2.8357142857142854,9.23499639240437L2.8357142857142854,9.449282106690081L2.407142857142857,9.877853535261512L2.407142857142857,10.693575036167061L2.5921392495472264,10.878571428571426L3.622146464738488,10.878571428571426L3.8364321790242024,10.664285714285715L4.050717893309916,10.664285714285715L4.265003607595631,10.45z" stroke="none"/><path d="M13.535355339059327,7.464644660940673L13.464644660940673,7.535355339059327L13.26500360759563,7.335714285714285L13.050717893309915,7.335714285714285L12.836432179024204,7.121428571428571L11.163567820975796,7.121428571428571L10.949282106690081,7.335714285714285L10.73499639240437,7.335714285714285L10.535355339059327,7.535355339059327L10.464644660940673,7.464644660940673L10.693575036167061,7.235714285714286L10.907860750452773,7.235714285714286L11.122146464738488,7.021428571428571L12.877853535261512,7.021428571428571L13.092139249547223,7.235714285714286L13.306424963832939,7.235714285714286z" stroke="none"/><path d="M12,3.05L12,2.95L12.622146464738488,2.95L13.050717893309915,2.521428571428572L13.949282106690081,2.521428571428572L14.192857142857143,2.765003607595631L14.192857142857143,3.1935750361670596L14.62142857142857,3.622146464738488L14.62142857142857,3.8364321790242024L15.05,4.265003607595631L15.05,4.5L14.95,4.5L14.95,4.30642496383294L14.521428571428569,3.877853535261512L14.521428571428569,3.6635678209757976L14.092857142857142,3.234996392404369L14.092857142857142,2.8064249638329404L13.907860750452773,2.6214285714285714L13.092139249547223,2.6214285714285714L12.663567820975796,3.05z" stroke="none"/><path d="M21,3.05L21,2.95L21.62214646473849,2.95L22.05071789330992,2.521428571428572L22.94928210669008,2.521428571428572L23.192857142857143,2.765003607595631L23.192857142857143,3.1935750361670596L23.835714285714285,3.8364321790242024L23.835714285714285,4.265003607595631L24.03535533905933,4.464644660940673L23.96464466094067,4.535355339059327L23.735714285714284,4.30642496383294L23.735714285714284,3.877853535261512L23.09285714285714,3.234996392404369L23.09285714285714,2.8064249638329404L22.907860750452773,2.6214285714285714L22.092139249547227,2.6214285714285714L21.663567820975796,3.05z" stroke="none"/><path d="M3.05,7.5L2.95,7.5L2.95,7.050717893309916L3.3785714285714286,6.622146464738488L3.3785714285714286,3.6635678209757976L2.95,3.234996392404369L2.95,3L3.05,3L3.05,3.1935750361670596L3.478571428571428,3.622146464738488L3.478571428571428,6.663567820975797L3.05,7.092139249547226z" stroke="none"/><path d="M23.96464466094067,7.535355339059327L24.03535533905933,7.464644660940673L24.23499639240437,7.664285714285715L24.87785353526151,7.664285714285715L25.092139249547223,7.878571428571428L25.94928210669008,7.878571428571428L26.163567820975796,8.092857142857142L27.62214646473849,8.092857142857142L27.807142857142857,7.907860750452773L27.807142857142857,4.734996392404369L27.378571428571426,4.30642496383294L27.378571428571426,3.877853535261512L27.164285714285715,3.6635678209757976L27.164285714285715,3.449282106690083L26.95,3.234996392404369L26.95,3L27.05,3L27.05,3.1935750361670596L27.264285714285716,3.4078607504527736L27.264285714285716,3.622146464738488L27.478571428571428,3.8364321790242024L27.478571428571428,4.265003607595631L27.90714285714286,4.69357503616706L27.90714285714286,7.949282106690083L27.663567820975796,8.192857142857143L26.12214646473849,8.192857142857143L25.907860750452773,7.978571428571428L25.050717893309915,7.978571428571428L24.836432179024204,7.764285714285714L24.19357503616706,7.764285714285714z" stroke="none"/><path d="M19.53535533905933,9.035355339059327L19.46464466094067,8.964644660940673L19.664285714285715,8.76500360759563L19.664285714285715,8.336432179024204L19.878571428571426,8.122146464738488L19.878571428571426,7.69357503616706L20.09285714285714,7.479289321881345L20.09285714285714,7.30642496383294L19.907860750452773,7.121428571428571L19.092139249547227,7.121428571428571L18.692857142857143,7.520710678118655L18.692857142857143,7.734996392404369L18.44928210669008,7.978571428571428L17.55071789330992,7.978571428571428L17.336432179024204,7.764285714285714L17.12214646473849,7.764285714285714L16.907860750452773,7.55L16.69357503616706,7.55L15.407860750452773,6.264285714285714L15.193575036167061,6.264285714285714L14.964644660940673,6.035355339059327L15.035355339059327,5.964644660940673L15.23499639240437,6.164285714285715L15.449282106690081,6.164285714285715L16.73499639240437,7.45L16.94928210669008,7.45L17.163567820975796,7.664285714285715L17.37785353526151,7.664285714285715L17.592139249547227,7.878571428571428L18.407860750452773,7.878571428571428L18.59285714285714,7.69357503616706L18.59285714285714,7.479289321881345L19.05071789330992,7.021428571428571L19.94928210669008,7.021428571428571L20.192857142857143,7.265003607595631L20.192857142857143,7.520710678118655L19.978571428571428,7.734996392404369L19.978571428571428,8.163567820975796L19.764285714285716,8.377853535261512L19.764285714285716,8.806424963832939z" stroke="none"/><path d="M8.964644660940673,8.964644660940673L9.035355339059327,9.035355339059327L8.62142857142857,9.449282106690081L8.62142857142857,9.663567820975796L8.192857142857143,10.092139249547223L8.192857142857143,10.73499639240437L7.949282106690083,10.978571428571428L6.449282106690083,10.978571428571428L6.234996392404369,11.192857142857143L6.020710678118655,11.192857142857143L5.3778535352615116,11.835714285714285L5.163567820975797,11.835714285714285L4.949282106690084,12.05L4.5,12.05L4.5,11.95L4.907860750452774,11.95L5.122146464738488,11.735714285714284L5.336432179024202,11.735714285714284L5.979289321881345,11.092857142857142L6.19357503616706,11.092857142857142L6.407860750452773,10.878571428571426L7.907860750452773,10.878571428571426L8.092857142857142,10.693575036167061L8.092857142857142,10.050717893309915L8.521428571428569,9.622146464738488L8.521428571428569,9.407860750452773z" stroke="none"/><path d="M21.03535533905933,9.035355339059327L20.96464466094067,8.964644660940673L21.19357503616706,8.735714285714284L21.407860750452773,8.735714285714284L21.62214646473849,8.521428571428569L25.94928210669008,8.521428571428569L26.163567820975796,8.735714285714284L26.592139249547223,8.735714285714284L26.80642496383294,8.95L27,8.95L27,9.05L26.76500360759563,9.05L26.550717893309915,8.835714285714285L26.12214646473849,8.835714285714285L25.907860750452773,8.62142857142857L21.663567820975796,8.62142857142857L21.44928210669008,8.835714285714285L21.23499639240437,8.835714285714285z" stroke="none"/><path d="M15.035355339059327,8.964644660940673L14.964644660940673,9.035355339059327L14.307142857142857,8.377853535261512L14.307142857142857,7.949282106690083L14.092857142857142,7.734996392404369L14.092857142857142,7.30642496383294L13.907860750452773,7.121428571428571L13.26500360759563,7.121428571428571L13.050717893309915,6.907142857142857L10.092139249547223,6.907142857142857L9.877853535261512,7.121428571428571L9.663567820975796,7.121428571428571L9.449282106690081,7.335714285714285L9.23499639240437,7.335714285714285L9.035355339059327,7.535355339059327L8.964644660940673,7.464644660940673L9.193575036167061,7.235714285714286L9.407860750452773,7.235714285714286L9.622146464738488,7.021428571428571L9.836432179024204,7.021428571428571L10.050717893309915,6.807142857142857L13.092139249547223,6.807142857142857L13.306424963832939,7.021428571428571L13.949282106690081,7.021428571428571L14.192857142857143,7.265003607595631L14.192857142857143,7.69357503616706L14.407142857142858,7.907860750452773L14.407142857142858,8.336432179024204z" stroke="none"/><path d="M19.53535533905933,12.035355339059327L19.46464466094067,11.964644660940673L20.979289321881346,10.45L21.407860750452773,10.45L21.62214646473849,10.235714285714284L21.836432179024204,10.235714285714284L22.05071789330992,10.021428571428569L23.550717893309915,10.021428571428569L23.76500360759563,9.807142857142857L24.19357503616706,9.807142857142857L24.62214646473849,9.378571428571426L24.836432179024204,9.378571428571426L25.26500360759563,8.95L25.5,8.95L25.5,9.05L25.30642496383294,9.05L24.87785353526151,9.478571428571428L24.663567820975796,9.478571428571428L24.23499639240437,9.907142857142858L23.80642496383294,9.907142857142858L23.592139249547223,10.12142857142857L22.092139249547227,10.12142857142857L21.87785353526151,10.335714285714285L21.663567820975796,10.335714285714285L21.44928210669008,10.55L21.020710678118654,10.55z" stroke="none"/><path d="M19.55,6L19.45,6L19.45,4.30642496383294L19.235714285714284,4.092139249547226L19.235714285714284,3.877853535261512L19.021428571428572,3.6635678209757976L19.021428571428572,2.550717893309917L19.26500360759563,2.3071428571428574L27.23499639240437,2.3071428571428574L27.478571428571428,2.550717893309917L27.478571428571428,2.979289321881345L27.692857142857143,3.1935750361670596L27.692857142857143,3.8364321790242024L28.12142857142857,4.265003607595631L28.12142857142857,8.806424963832939L27.23499639240437,9.692857142857143L27.020710678118654,9.692857142857143L26.592139249547223,10.12142857142857L26.163567820975796,10.12142857142857L25.73499639240437,10.55L25.5,10.55L25.5,10.45L25.69357503616706,10.45L26.12214646473849,10.021428571428569L26.550717893309915,10.021428571428569L26.979289321881346,9.592857142857142L27.19357503616706,9.592857142857142L28.02142857142857,8.76500360759563L28.02142857142857,4.30642496383294L27.59285714285714,3.877853535261512L27.59285714285714,3.234996392404369L27.378571428571426,3.020710678118655L27.378571428571426,2.5921392495472264L27.19357503616706,2.407142857142857L19.30642496383294,2.407142857142857L19.121428571428574,2.5921392495472264L19.121428571428574,3.622146464738488L19.335714285714285,3.8364321790242024L19.335714285714285,4.050717893309916L19.55,4.265003607595631z" stroke="none"/><path d="M9,4.55L9,4.45L11.163567820975796,4.45L11.592139249547223,4.878571428571429L15.836432179024204,4.878571428571429L16.050717893309915,4.664285714285715L16.26500360759563,4.664285714285715L16.46464466094067,4.464644660940673L16.53535533905933,4.535355339059327L16.30642496383294,4.764285714285714L16.092139249547223,4.764285714285714L15.877853535261512,4.978571428571429L11.550717893309915,4.978571428571429L11.122146464738488,4.55z" stroke="none"/><path d="M19.46464466094067,10.464644660940673L19.53535533905933,10.535355339059327L19.335714285714285,10.73499639240437L19.335714285714285,10.949282106690081L19.121428571428574,11.163567820975796L19.121428571428574,12.407860750452773L19.30642496383294,12.592857142857142L25.26500360759563,12.592857142857142L25.479289321881346,12.378571428571426L26.336432179024204,12.378571428571426L26.76500360759563,11.95L27,11.95L27,12.05L26.80642496383294,12.05L26.37785353526151,12.478571428571428L25.520710678118654,12.478571428571428L25.30642496383294,12.692857142857143L19.26500360759563,12.692857142857143L19.021428571428572,12.449282106690081L19.021428571428572,11.122146464738488L19.235714285714284,10.907860750452773L19.235714285714284,10.693575036167061z" stroke="none"/><path d="M6,4.55L6,4.45L6.234996392404369,4.45L6.449282106690083,4.664285714285715L6.8778535352615116,4.664285714285715L7.092139249547226,4.878571428571429L10.73499639240437,4.878571428571429L10.949282106690081,5.0928571428571425L12.23499639240437,5.0928571428571425L12.877853535261512,5.735714285714286L13.092139249547223,5.735714285714286L13.306424963832939,5.95L13.5,5.95L13.5,6.05L13.26500360759563,6.05L13.050717893309915,5.835714285714285L12.836432179024204,5.835714285714285L12.193575036167061,5.192857142857142L10.907860750452773,5.192857142857142L10.693575036167061,4.978571428571429L7.050717893309916,4.978571428571429L6.836432179024202,4.764285714285714L6.407860750452773,4.764285714285714L6.19357503616706,4.55z" stroke="none"/><path d="M7.5,4.55L7.5,4.45L8.122146464738488,4.45L8.550717893309915,4.021428571428571L8.979289321881346,4.021428571428571L9.193575036167061,3.8071428571428574L9.407860750452773,3.8071428571428574L10.26500360759563,2.95L11.122146464738488,2.95L11.550717893309915,2.521428571428572L12.622146464738488,2.521428571428572L12.836432179024204,2.3071428571428574L15.663567820975796,2.3071428571428574L16.30642496383294,2.95L16.5,2.95L16.5,3.05L16.26500360759563,3.05L15.622146464738488,2.407142857142857L12.877853535261512,2.407142857142857L12.663567820975796,2.6214285714285714L11.592139249547223,2.6214285714285714L11.163567820975796,3.05L10.306424963832939,3.05L9.449282106690081,3.907142857142857L9.23499639240437,3.907142857142857L9.020710678118654,4.121428571428571L8.592139249547223,4.121428571428571L8.163567820975796,4.55z" stroke="none"/><path d="M6,9.05L6,8.95L6.19357503616706,8.95L6.622146464738488,8.521428571428569L6.836432179024202,8.521428571428569L7.479289321881345,7.878571428571428L7.69357503616706,7.878571428571428L8.550717893309915,7.021428571428571L9.193575036167061,7.021428571428571L9.407860750452773,6.807142857142857L9.622146464738488,6.807142857142857L9.836432179024204,6.5928571428571425L13.520710678118654,6.5928571428571425L13.73499639240437,6.807142857142857L14.163567820975796,6.807142857142857L14.592139249547223,7.235714285714286L14.806424963832939,7.235714285714286L15.035355339059327,7.464644660940673L14.964644660940673,7.535355339059327L14.76500360759563,7.335714285714285L14.550717893309915,7.335714285714285L14.122146464738488,6.907142857142857L13.693575036167061,6.907142857142857L13.479289321881346,6.692857142857142L9.877853535261512,6.692857142857142L9.663567820975796,6.907142857142857L9.449282106690081,6.907142857142857L9.23499639240437,7.121428571428571L8.592139249547223,7.121428571428571L7.734996392404369,7.978571428571428L7.520710678118655,7.978571428571428L6.8778535352615116,8.62142857142857L6.663567820975797,8.62142857142857L6.234996392404369,9.05z" stroke="none"/><path d="M22.5,10.55L22.5,10.45L24.23499639240437,10.45L24.44928210669008,10.664285714285715L24.87785353526151,10.664285714285715L25.092139249547223,10.878571428571426L25.907860750452773,10.878571428571426L26.550717893309915,10.235714285714284L26.76500360759563,10.235714285714284L27.19357503616706,9.807142857142857L27.407860750452773,9.807142857142857L28.235714285714284,8.979289321881346L28.235714285714284,3.877853535261512L28.02142857142857,3.6635678209757976L28.02142857142857,3.234996392404369L27.59285714285714,2.8064249638329404L27.59285714285714,2.377853535261512L27.407860750452773,2.1928571428571426L19.092139249547227,2.1928571428571426L18.692857142857143,2.5921392495472264L18.692857142857143,2.8064249638329404L18.478571428571428,3.020710678118655L18.478571428571428,3.449282106690083L16.73499639240437,5.192857142857142L16.30642496383294,5.192857142857142L16.092139249547223,5.407142857142857L15.449282106690081,5.407142857142857L15.23499639240437,5.621428571428571L14.592139249547223,5.621428571428571L14.192857142857143,6.020710678118655L14.192857142857143,6.234996392404369L13.949282106690081,6.478571428571428L12.836432179024204,6.478571428571428L12.622146464738488,6.264285714285714L12.193575036167061,6.264285714285714L11.964644660940673,6.035355339059327L12.035355339059327,5.964644660940673L12.23499639240437,6.164285714285715L12.663567820975796,6.164285714285715L12.877853535261512,6.378571428571428L13.907860750452773,6.378571428571428L14.092857142857142,6.19357503616706L14.092857142857142,5.979289321881345L14.550717893309915,5.521428571428571L15.193575036167061,5.521428571428571L15.407860750452773,5.307142857142857L16.050717893309915,5.307142857142857L16.26500360759563,5.0928571428571425L16.69357503616706,5.0928571428571425L18.378571428571426,3.4078607504527736L18.378571428571426,2.979289321881345L18.59285714285714,2.765003607595631L18.59285714285714,2.550717893309917L19.05071789330992,2.092857142857143L27.44928210669008,2.092857142857143L27.692857142857143,2.3364321790242024L27.692857142857143,2.765003607595631L28.12142857142857,3.1935750361670596L28.12142857142857,3.622146464738488L28.335714285714285,3.8364321790242024L28.335714285714285,9.020710678118654L27.44928210669008,9.907142857142858L27.23499639240437,9.907142857142858L26.80642496383294,10.335714285714285L26.592139249547223,10.335714285714285L25.94928210669008,10.978571428571428L25.050717893309915,10.978571428571428L24.836432179024204,10.764285714285716L24.407860750452773,10.764285714285716L24.19357503616706,10.55z" stroke="none"/><path d="M3.05,4.5L2.95,4.5L2.95,3.877853535261512L2.521428571428572,3.449282106690083L2.521428571428572,2.550717893309917L2.765003607595631,2.3071428571428574L12.407860750452773,2.3071428571428574L12.622146464738488,2.092857142857143L16.520710678118654,2.092857142857143L16.978571428571428,2.550717893309917L16.978571428571428,3.449282106690083L16.73499639240437,3.6928571428571426L15.836432179024204,3.6928571428571426L15.407860750452773,3.2642857142857142L15.193575036167061,3.2642857142857142L14.964644660940673,3.0353553390593273L15.035355339059327,2.9646446609406727L15.23499639240437,3.1642857142857146L15.449282106690081,3.1642857142857146L15.877853535261512,3.592857142857143L16.69357503616706,3.592857142857143L16.878571428571426,3.4078607504527736L16.878571428571426,2.5921392495472264L16.479289321881346,2.1928571428571426L12.663567820975796,2.1928571428571426L12.449282106690081,2.407142857142857L2.8064249638329404,2.407142857142857L2.6214285714285714,2.5921392495472264L2.6214285714285714,3.4078607504527736L3.05,3.8364321790242024z" stroke="none"/><path d="M18.03535533905933,2.9646446609406727L17.96464466094067,3.0353553390593273L17.12214646473849,2.1928571428571426L16.907860750452773,2.1928571428571426L16.69357503616706,1.9785714285714286L2.8064249638329404,1.9785714285714286L2.407142857142857,2.377853535261512L2.407142857142857,7.69357503616706L2.5921392495472264,7.878571428571428L3.4078607504527736,7.878571428571428L4.69357503616706,6.5928571428571425L4.907860750452774,6.5928571428571425L5.122146464738488,6.378571428571428L5.336432179024202,6.378571428571428L5.765003607595631,5.95L6,5.95L6,6.05L5.80642496383294,6.05L5.3778535352615116,6.478571428571428L5.163567820975797,6.478571428571428L4.949282106690084,6.692857142857142L4.734996392404369,6.692857142857142L3.449282106690083,7.978571428571428L2.550717893309917,7.978571428571428L2.3071428571428574,7.734996392404369L2.3071428571428574,2.3364321790242024L2.765003607595631,1.8785714285714286L16.73499639240437,1.8785714285714286L16.94928210669008,2.092857142857143L17.163567820975796,2.092857142857143z" stroke="none"/></svg>