<svg version="1.1" width="30" height="15" xmlns="http://www.w3.org/2000/svg"><path d="M20.80642496383294,5.735714285714286L22.092139249547227,7.021428571428571L22.30642496383294,7.021428571428571L22.520710678118654,7.235714285714286L22.73499639240437,7.235714285714286L23.37785353526151,7.878571428571428L23.592139249547223,7.878571428571428L25.30642496383294,9.592857142857142L25.73499639240437,9.592857142857142L26.37785353526151,10.235714285714284L26.80642496383294,10.235714285714284L27.03535533905933,10.464644660940673L26.96464466094067,10.535355339059327L26.76500360759563,10.335714285714285L26.336432179024204,10.335714285714285L25.69357503616706,9.692857142857143L25.26500360759563,9.692857142857143L23.550717893309915,7.978571428571428L23.336432179024204,7.978571428571428L22.69357503616706,7.335714285714285L22.479289321881346,7.335714285714285L22.26500360759563,7.121428571428571L22.05071789330992,7.121428571428571L20.76500360759563,5.835714285714285L20.477853535261513,5.835714285714285L21.87785353526151,7.235714285714286L22.092139249547227,7.235714285714286L22.30642496383294,7.45L22.5,7.45L22.5,7.55L22.26500360759563,7.55L22.05071789330992,7.335714285714285L21.836432179024204,7.335714285714285L20.336432179024204,5.835714285714285L18.44928210669008,5.835714285714285L18.23499639240437,6.05L18,6.05L18,5.95L18.19357503616706,5.95L18.407860750452773,5.735714285714286z" stroke="none"/><path d="M10.693575036167061,7.664285714285715L14.377853535261512,7.664285714285715L14.592139249547223,7.878571428571428L17.55071789330992,7.878571428571428L17.96464466094067,7.464644660940673L18.03535533905933,7.535355339059327L17.592139249547227,7.978571428571428L14.550717893309915,7.978571428571428L14.336432179024204,7.764285714285714L10.83499639240437,7.764285714285714L10.978571428571428,7.907860750452773L10.978571428571428,8.336432179024204L11.192857142857143,8.550717893309915L11.192857142857143,8.76500360759563L11.407142857142858,8.979289321881346L11.407142857142858,9.622146464738488L11.62142857142857,9.836432179024204L11.62142857142857,10.050717893309915L12.035355339059327,10.464644660940673L11.964644660940673,10.535355339059327L11.521428571428569,10.092139249547223L11.521428571428569,9.877853535261512L11.307142857142857,9.663567820975796L11.307142857142857,9.020710678118654L11.092857142857142,8.806424963832939L11.092857142857142,8.592139249547223L10.878571428571426,8.377853535261512L10.878571428571426,7.949282106690083L10.714285714285715,7.784996392404369L10.335714285714285,8.163567820975796L10.335714285714285,8.377853535261512L10.12142857142857,8.592139249547223L10.12142857142857,10.73499639240437L9.692857142857143,11.163567820975796L9.692857142857143,11.377853535261512L9.035355339059327,12.035355339059327L8.964644660940673,11.964644660940673L9.592857142857142,11.336432179024204L9.592857142857142,11.122146464738488L10.021428571428569,10.693575036167061L10.021428571428569,8.550717893309915L10.235714285714284,8.336432179024204L10.235714285714284,8.122146464738488z" stroke="none"/><path d="M17.307142857142857,9.193575036167061L17.307142857142857,8.76500360759563L17.55071789330992,8.521428571428569L18.44928210669008,8.521428571428569L18.663567820975796,8.735714285714284L19.520710678118654,8.735714285714284L19.73499639240437,8.95L19.94928210669008,8.95L20.163567820975796,9.164285714285715L20.80642496383294,9.164285714285715L21.020710678118654,9.378571428571426L22.520710678118654,9.378571428571426L22.73499639240437,9.592857142857142L22.94928210669008,9.592857142857142L23.592139249547223,10.235714285714284L23.80642496383294,10.235714285714284L24.03535533905933,10.464644660940673L23.96464466094067,10.535355339059327L23.76500360759563,10.335714285714285L23.550717893309915,10.335714285714285L22.907860750452773,9.692857142857143L22.69357503616706,9.692857142857143L22.479289321881346,9.478571428571428L20.979289321881346,9.478571428571428L20.76500360759563,9.264285714285716L20.12214646473849,9.264285714285716L19.907860750452773,9.05L19.69357503616706,9.05L19.479289321881346,8.835714285714285L18.62214646473849,8.835714285714285L18.407860750452773,8.62142857142857L17.592139249547227,8.62142857142857L17.40714285714286,8.806424963832939L17.40714285714286,9.193575036167061L19.092139249547227,10.878571428571426L19.520710678118654,10.878571428571426L19.73499639240437,11.092857142857142L19.94928210669008,11.092857142857142L20.592139249547227,11.735714285714284L20.80642496383294,11.735714285714284L21.03535533905933,11.964644660940673L20.96464466094067,12.035355339059327L20.76500360759563,11.835714285714285L20.55071789330992,11.835714285714285L19.907860750452773,11.192857142857143L19.69357503616706,11.192857142857143L19.479289321881346,10.978571428571428L19.05071789330992,10.978571428571428L17.357142857142858,9.28499639240437L15.020710678118654,11.62142857142857L14.592139249547223,11.62142857142857L14.377853535261512,11.835714285714285L14.163567820975796,11.835714285714285L13.949282106690081,12.05L13.5,12.05L13.5,11.95L13.907860750452773,11.95L14.122146464738488,11.735714285714284L14.336432179024204,11.735714285714284L14.550717893309915,11.521428571428569L14.979289321881346,11.521428571428569z" stroke="none"/><path d="M20.55071789330992,2.3071428571428574L24.87785353526151,2.3071428571428574L25.092139249547223,2.521428571428572L26.37785353526151,2.521428571428572L26.80642496383294,2.95L27,2.95L27,3.05L26.76500360759563,3.05L26.336432179024204,2.6214285714285714L25.050717893309915,2.6214285714285714L24.836432179024204,2.407142857142857L20.69213924954723,2.407142857142857L20.835714285714285,2.550717893309917L20.835714285714285,2.765003607595631L21.03535533905933,2.9646446609406727L20.96464466094067,3.0353553390593273L20.735714285714284,2.8064249638329404L20.735714285714284,2.5921392495472264L20.621428571428574,2.477853535261512L20.621428571428574,2.979289321881345L22.520710678118654,4.878571428571429L23.592139249547223,4.878571428571429L24.87785353526151,6.164285714285715L25.520710678118654,6.164285714285715L26.80642496383294,7.45L27,7.45L27,7.55L26.76500360759563,7.55L25.479289321881346,6.264285714285714L24.836432179024204,6.264285714285714L23.550717893309915,4.978571428571429L22.479289321881346,4.978571428571429L20.521428571428572,3.020710678118655L20.521428571428572,2.477853535261512L20.37785353526151,2.6214285714285714L19.092139249547227,2.6214285714285714L18.692857142857143,3.020710678118655L18.692857142857143,3.234996392404369L18.23499639240437,3.6928571428571426L17.592139249547227,3.6928571428571426L17.37785353526151,3.907142857142857L17.163567820975796,3.907142857142857L16.53535533905933,4.535355339059327L16.46464466094067,4.464644660940673L17.12214646473849,3.8071428571428574L17.336432179024204,3.8071428571428574L17.55071789330992,3.592857142857143L18.19357503616706,3.592857142857143L18.59285714285714,3.1935750361670596L18.59285714285714,2.979289321881345L19.05071789330992,2.521428571428572L20.336432179024204,2.521428571428572z" stroke="none"/><path d="M19.520710678118654,6.807142857142857L19.73499639240437,7.021428571428571L19.94928210669008,7.021428571428571L20.163567820975796,7.235714285714286L20.37785353526151,7.235714285714286L20.80642496383294,7.664285714285715L21.020710678118654,7.664285714285715L21.23499639240437,7.878571428571428L21.87785353526151,7.878571428571428L22.092139249547227,8.092857142857142L22.30642496383294,8.092857142857142L22.520710678118654,8.307142857142857L22.73499639240437,8.307142857142857L22.94928210669008,8.521428571428569L23.163567820975796,8.521428571428569L23.37785353526151,8.735714285714284L23.592139249547223,8.735714285714284L25.30642496383294,10.45L25.5,10.45L25.5,10.55L25.26500360759563,10.55L23.550717893309915,8.835714285714285L23.336432179024204,8.835714285714285L23.12214646473849,8.62142857142857L22.907860750452773,8.62142857142857L22.69357503616706,8.407142857142858L22.479289321881346,8.407142857142858L22.26500360759563,8.192857142857143L22.05071789330992,8.192857142857143L21.836432179024204,7.978571428571428L21.19357503616706,7.978571428571428L20.979289321881346,7.764285714285714L20.76500360759563,7.764285714285714L20.336432179024204,7.335714285714285L20.12214646473849,7.335714285714285L19.907860750452773,7.121428571428571L19.69357503616706,7.121428571428571L19.479289321881346,6.907142857142857L19.19213924954723,6.907142857142857L19.520710678118654,7.235714285714286L19.73499639240437,7.235714285714286L20.163567820975796,7.664285714285715L20.37785353526151,7.664285714285715L20.80642496383294,8.092857142857142L21.44928210669008,8.092857142857142L22.30642496383294,8.95L22.520710678118654,8.95L22.94928210669008,9.378571428571426L23.80642496383294,9.378571428571426L24.478571428571428,10.050717893309915L24.478571428571428,10.949282106690081L24.23499639240437,11.192857142857143L21.407860750452773,11.192857142857143L20.336432179024204,10.12142857142857L19.479289321881346,10.12142857142857L19.05071789330992,9.692857142857143L18.836432179024204,9.692857142857143L18.62214646473849,9.478571428571428L18.407860750452773,9.478571428571428L17.96464466094067,9.035355339059327L18.03535533905933,8.964644660940673L18.44928210669008,9.378571428571426L18.663567820975796,9.378571428571426L18.87785353526151,9.592857142857142L19.092139249547227,9.592857142857142L19.520710678118654,10.021428571428569L20.37785353526151,10.021428571428569L21.44928210669008,11.092857142857142L24.19357503616706,11.092857142857142L24.378571428571426,10.907860750452773L24.378571428571426,10.092139249547223L23.76500360759563,9.478571428571428L22.907860750452773,9.478571428571428L22.479289321881346,9.05L22.26500360759563,9.05L21.407860750452773,8.192857142857143L20.76500360759563,8.192857142857143L20.336432179024204,7.764285714285714L20.12214646473849,7.764285714285714L19.69357503616706,7.335714285714285L19.479289321881346,7.335714285714285L19.071428571428573,6.927853535261511L18.90714285714286,7.092139249547226L18.90714285714286,7.30642496383294L18.478571428571428,7.734996392404369L18.478571428571428,7.949282106690083L18.23499639240437,8.192857142857143L18.020710678118654,8.192857142857143L17.80642496383294,8.407142857142858L17.37785353526151,8.407142857142858L16.73499639240437,9.05L16.5,9.05L16.5,8.95L16.69357503616706,8.95L17.336432179024204,8.307142857142857L17.76500360759563,8.307142857142857L17.979289321881346,8.092857142857142L18.19357503616706,8.092857142857142L18.378571428571426,7.907860750452773L18.378571428571426,7.69357503616706L18.807142857142857,7.265003607595631L18.807142857142857,7.050717893309916L18.950717893309918,6.907142857142857L18.407860750452773,6.907142857142857L18.19357503616706,6.692857142857142L17.76500360759563,6.692857142857142L17.521428571428572,6.449282106690083L17.521428571428572,5.550717893309916L17.76500360759563,5.307142857142857L22.73499639240437,5.307142857142857L22.94928210669008,5.521428571428571L23.163567820975796,5.521428571428571L24.663567820975796,7.021428571428571L24.87785353526151,7.021428571428571L25.30642496383294,7.45L25.5,7.45L25.5,7.55L25.26500360759563,7.55L24.836432179024204,7.121428571428571L24.62214646473849,7.121428571428571L23.12214646473849,5.621428571428571L22.907860750452773,5.621428571428571L22.69357503616706,5.407142857142857L17.80642496383294,5.407142857142857L17.621428571428574,5.592139249547226L17.621428571428574,6.407860750452773L17.80642496383294,6.5928571428571425L18.23499639240437,6.5928571428571425L18.44928210669008,6.807142857142857z" stroke="none"/><path d="M9.622146464738488,7.878571428571428L9.836432179024204,7.664285714285715L10.26500360759563,7.664285714285715L10.479289321881346,7.45L15,7.45L15,7.55L10.520710678118654,7.55L10.306424963832939,7.764285714285714L9.877853535261512,7.764285714285714L9.663567820975796,7.978571428571428L6.977853535261511,7.978571428571428L7.092139249547226,8.092857142857142L7.520710678118655,8.092857142857142L7.949282106690083,8.521428571428569L8.163567820975796,8.521428571428569L8.592139249547223,8.95L9,8.95L9,9.05L8.550717893309915,9.05L8.122146464738488,8.62142857142857L7.907860750452773,8.62142857142857L7.479289321881345,8.192857142857143L7.050717893309916,8.192857142857143L6.907142857142857,8.049282106690082L6.907142857142857,8.550717893309915L7.121428571428571,8.76500360759563L7.121428571428571,9.407860750452773L7.764285714285714,10.050717893309915L7.764285714285714,10.26500360759563L7.978571428571428,10.479289321881346L7.978571428571428,10.693575036167061L8.192857142857143,10.907860750452773L8.192857142857143,11.979289321881346L8.592139249547223,12.378571428571426L9.836432179024204,12.378571428571426L10.26500360759563,11.95L10.5,11.95L10.5,12.05L10.306424963832939,12.05L9.877853535261512,12.478571428571428L8.550717893309915,12.478571428571428L8.092857142857142,12.020710678118654L8.092857142857142,10.949282106690081L7.878571428571428,10.73499639240437L7.878571428571428,10.520710678118654L7.664285714285715,10.306424963832939L7.664285714285715,10.092139249547223L7.021428571428571,9.449282106690081L7.021428571428571,8.806424963832939L6.807142857142857,8.592139249547223L6.807142857142857,7.978571428571428L6.449282106690083,7.978571428571428L6.234996392404369,8.192857142857143L6.020710678118655,8.192857142857143L5.192857142857142,9.020710678118654L5.192857142857142,9.23499639240437L4.121428571428571,10.306424963832939L4.121428571428571,10.520710678118654L3.907142857142857,10.73499639240437L3.907142857142857,11.163567820975796L3.0353553390593273,12.035355339059327L2.9646446609406727,11.964644660940673L3.8071428571428574,11.122146464738488L3.8071428571428574,10.693575036167061L4.021428571428571,10.479289321881346L4.021428571428571,10.26500360759563L5.0928571428571425,9.193575036167061L5.0928571428571425,8.979289321881346L5.979289321881345,8.092857142857142L6.19357503616706,8.092857142857142L6.407860750452773,7.878571428571428z" stroke="none"/><path d="M19.5,4.45L19.5,4.55L18,4.55L18,4.45z" stroke="none"/><path d="M10.5,6.05L10.5,5.95L12,5.95L12,6.05z" stroke="none"/><path d="M26.95,4.5L27.05,4.5L27.05,6L26.95,6z" stroke="none"/><path d="M4.55,7.5L4.45,7.5L4.45,6L4.55,6z" stroke="none"/><path d="M27,11.95L27,12.05L25.5,12.05L25.5,11.95z" stroke="none"/><path d="M3.0353553390593273,4.535355339059327L2.9646446609406727,4.464644660940673L4.464644660940673,2.9646446609406727L4.535355339059327,3.0353553390593273z" stroke="none"/><path d="M21.03535533905933,4.464644660940673L20.96464466094067,4.535355339059327L19.46464466094067,3.0353553390593273L19.53535533905933,2.9646446609406727z" stroke="none"/><path d="M5.964644660940673,8.964644660940673L6.035355339059327,9.035355339059327L4.335714285714285,10.73499639240437L4.335714285714285,10.949282106690081L4.121428571428571,11.163567820975796L4.121428571428571,11.377853535261512L3.6928571428571426,11.806424963832939L3.6928571428571426,12.23499639240437L3.449282106690083,12.478571428571428L2.550717893309917,12.478571428571428L2.3071428571428574,12.23499639240437L2.3071428571428574,11.336432179024204L2.521428571428572,11.122146464738488L2.521428571428572,10.907860750452773L2.95,10.479289321881346L2.95,10.26500360759563L4.021428571428571,9.193575036167061L4.021428571428571,8.550717893309915L4.265003607595631,8.307142857142857L4.479289321881345,8.307142857142857L4.878571428571429,7.907860750452773L4.878571428571429,7.265003607595631L5.95,6.19357503616706L5.95,6L6.05,6L6.05,6.234996392404369L4.978571428571429,7.30642496383294L4.978571428571429,7.949282106690083L4.520710678118655,8.407142857142858L4.30642496383294,8.407142857142858L4.121428571428571,8.592139249547223L4.121428571428571,9.23499639240437L3.05,10.306424963832939L3.05,10.520710678118654L2.6214285714285714,10.949282106690081L2.6214285714285714,11.163567820975796L2.407142857142857,11.377853535261512L2.407142857142857,12.193575036167061L2.5921392495472264,12.378571428571426L3.4078607504527736,12.378571428571426L3.592857142857143,12.193575036167061L3.592857142857143,11.76500360759563L4.021428571428571,11.336432179024204L4.021428571428571,11.122146464738488L4.235714285714286,10.907860750452773L4.235714285714286,10.693575036167061z" stroke="none"/><path d="M7.5,11.95L7.5,12.05L4.5,12.05L4.5,11.95z" stroke="none"/><path d="M7.535355339059327,5.964644660940673L7.464644660940673,6.035355339059327L6.836432179024202,5.407142857142857L6.622146464738488,5.407142857142857L6.407860750452773,5.192857142857142L5.979289321881345,5.192857142857142L5.765003607595631,4.978571428571429L5.550717893309916,4.978571428571429L5.336432179024202,4.764285714285714L4.69357503616706,4.764285714285714L4.464644660940673,4.535355339059327L4.535355339059327,4.464644660940673L4.734996392404369,4.664285714285715L5.3778535352615116,4.664285714285715L5.592139249547226,4.878571428571429L5.80642496383294,4.878571428571429L6.020710678118655,5.0928571428571425L6.449282106690083,5.0928571428571425L6.663567820975797,5.307142857142857L6.8778535352615116,5.307142857142857z" stroke="none"/><path d="M15,10.45L15,10.55L14.336432179024204,10.55L13.693575036167061,9.907142857142858L13.26500360759563,9.907142857142858L13.050717893309915,9.692857142857143L12.622146464738488,9.692857142857143L11.964644660940673,9.035355339059327L12.035355339059327,8.964644660940673L12.663567820975796,9.592857142857142L13.092139249547223,9.592857142857142L13.306424963832939,9.807142857142857L13.73499639240437,9.807142857142857L14.377853535261512,10.45z" stroke="none"/><path d="M5.964644660940673,10.535355339059327L6.035355339059327,10.464644660940673L6.234996392404369,10.664285714285715L6.449282106690083,10.664285714285715L6.8778535352615116,11.092857142857142L7.30642496383294,11.092857142857142L7.520710678118655,11.307142857142857L7.734996392404369,11.307142857142857L7.978571428571428,11.550717893309915L7.978571428571428,12.449282106690081L7.734996392404369,12.692857142857143L2.3364321790242024,12.692857142857143L2.092857142857143,12.449282106690081L2.092857142857143,10.907860750452773L2.3071428571428574,10.693575036167061L2.3071428571428574,10.26500360759563L2.521428571428572,10.050717893309915L2.521428571428572,9.836432179024204L2.7357142857142858,9.622146464738488L2.7357142857142858,9.193575036167061L2.9646446609406727,8.964644660940673L3.0353553390593273,9.035355339059327L2.8357142857142854,9.23499639240437L2.8357142857142854,9.663567820975796L2.6214285714285714,9.877853535261512L2.6214285714285714,10.092139249547223L2.407142857142857,10.306424963832939L2.407142857142857,10.73499639240437L2.1928571428571426,10.949282106690081L2.1928571428571426,12.407860750452773L2.377853535261512,12.592857142857142L7.69357503616706,12.592857142857142L7.878571428571428,12.407860750452773L7.878571428571428,11.592139249547223L7.69357503616706,11.407142857142858L7.479289321881345,11.407142857142858L7.265003607595631,11.192857142857143L6.836432179024202,11.192857142857143L6.407860750452773,10.764285714285716L6.19357503616706,10.764285714285716z" stroke="none"/><path d="M22.5,12.05L22.5,11.95L23.12214646473849,11.95L23.550717893309915,11.521428571428569L25.479289321881346,11.521428571428569L25.69357503616706,11.307142857142857L26.336432179024204,11.307142857142857L26.550717893309915,11.092857142857142L27.19357503616706,11.092857142857142L27.378571428571426,10.907860750452773L27.378571428571426,10.092139249547223L27.19357503616706,9.907142857142858L26.550717893309915,9.907142857142858L25.69357503616706,9.05L25.5,9.05L25.5,8.95L25.73499639240437,8.95L26.592139249547223,9.807142857142857L27.23499639240437,9.807142857142857L27.478571428571428,10.050717893309915L27.478571428571428,10.949282106690081L27.23499639240437,11.192857142857143L26.592139249547223,11.192857142857143L26.37785353526151,11.407142857142858L25.73499639240437,11.407142857142858L25.520710678118654,11.62142857142857L23.592139249547223,11.62142857142857L23.163567820975796,12.05z" stroke="none"/><path d="M2.9646446609406727,2.9646446609406727L3.0353553390593273,3.0353553390593273L2.8357142857142854,3.234996392404369L2.8357142857142854,3.877853535261512L2.6214285714285714,4.092139249547226L2.6214285714285714,5.979289321881345L2.8357142857142854,6.19357503616706L2.8357142857142854,7.050717893309916L3.05,7.265003607595631L3.05,7.5L2.95,7.5L2.95,7.30642496383294L2.7357142857142858,7.092139249547226L2.7357142857142858,6.234996392404369L2.521428571428572,6.020710678118655L2.521428571428572,4.050717893309916L2.7357142857142858,3.8364321790242024L2.7357142857142858,3.1935750361670596z" stroke="none"/><path d="M19.46464466094067,10.535355339059327L19.53535533905933,10.464644660940673L19.73499639240437,10.664285714285715L19.94928210669008,10.664285714285715L20.80642496383294,11.521428571428569L21.44928210669008,11.521428571428569L21.90714285714286,11.979289321881346L21.90714285714286,12.193575036167061L22.092139249547227,12.378571428571426L23.336432179024204,12.378571428571426L23.550717893309915,12.164285714285715L23.76500360759563,12.164285714285715L23.96464466094067,11.964644660940673L24.03535533905933,12.035355339059327L23.80642496383294,12.264285714285716L23.592139249547223,12.264285714285716L23.37785353526151,12.478571428571428L22.05071789330992,12.478571428571428L21.807142857142857,12.23499639240437L21.807142857142857,12.020710678118654L21.407860750452773,11.62142857142857L20.76500360759563,11.62142857142857L19.907860750452773,10.764285714285716L19.69357503616706,10.764285714285716z" stroke="none"/><path d="M10.45,9L10.55,9L10.55,11.122146464738488L10.978571428571428,11.550717893309915L10.978571428571428,12.449282106690081L10.73499639240437,12.692857142857143L8.163567820975796,12.692857142857143L7.949282106690083,12.907142857142858L2.122146464738488,12.907142857142858L1.8785714285714286,12.663567820975796L1.8785714285714286,10.26500360759563L2.092857142857143,10.050717893309915L2.092857142857143,9.836432179024204L2.3071428571428574,9.622146464738488L2.3071428571428574,9.407860750452773L2.521428571428572,9.193575036167061L2.521428571428572,8.550717893309915L2.979289321881345,8.092857142857142L3.1935750361670596,8.092857142857142L3.3785714285714286,7.907860750452773L3.3785714285714286,4.907860750452774L3.592857142857143,4.69357503616706L3.592857142857143,4.479289321881345L4.050717893309916,4.021428571428571L6.8778535352615116,4.021428571428571L7.30642496383294,4.45L7.5,4.45L7.5,4.55L7.265003607595631,4.55L6.836432179024202,4.121428571428571L4.092139249547226,4.121428571428571L3.6928571428571426,4.520710678118655L3.6928571428571426,4.734996392404369L3.478571428571428,4.949282106690084L3.478571428571428,7.949282106690083L3.234996392404369,8.192857142857143L3.020710678118655,8.192857142857143L2.6214285714285714,8.592139249547223L2.6214285714285714,9.23499639240437L2.407142857142857,9.449282106690081L2.407142857142857,9.663567820975796L2.1928571428571426,9.877853535261512L2.1928571428571426,10.092139249547223L1.9785714285714286,10.306424963832939L1.9785714285714286,12.622146464738488L2.1635678209757976,12.807142857142857L7.907860750452773,12.807142857142857L8.122146464738488,12.592857142857142L10.693575036167061,12.592857142857142L10.878571428571426,12.407860750452773L10.878571428571426,11.592139249547223L10.45,11.163567820975796z" stroke="none"/><path d="M12,12.05L12,11.95L12.449282106690081,11.95L12.877853535261512,12.378571428571426L14.122146464738488,12.378571428571426L14.336432179024204,12.164285714285715L17.55071789330992,12.164285714285715L17.76500360759563,11.95L18,11.95L18,12.05L17.80642496383294,12.05L17.592139249547227,12.264285714285716L14.377853535261512,12.264285714285716L14.163567820975796,12.478571428571428L12.836432179024204,12.478571428571428L12.407860750452773,12.05z" stroke="none"/><path d="M6,4.55L6,4.45L6.663567820975797,4.45L7.092139249547226,4.878571428571429L9.193575036167061,4.878571428571429L9.407860750452773,4.664285714285715L10.479289321881346,4.664285714285715L10.693575036167061,4.45L12,4.45L12,4.55L10.73499639240437,4.55L10.520710678118654,4.764285714285714L9.449282106690081,4.764285714285714L9.23499639240437,4.978571428571429L7.050717893309916,4.978571428571429L6.622146464738488,4.55z" stroke="none"/><path d="M16.55,7.5L16.45,7.5L16.45,6.622146464738488L16.664285714285715,6.407860750452773L16.664285714285715,6.19357503616706L17.307142857142857,5.550717893309916L17.307142857142857,5.336432179024202L17.55071789330992,5.0928571428571425L22.94928210669008,5.0928571428571425L23.163567820975796,5.307142857142857L23.37785353526151,5.307142857142857L24.663567820975796,6.5928571428571425L24.87785353526151,6.5928571428571425L25.30642496383294,7.021428571428571L25.94928210669008,7.021428571428571L26.192857142857143,7.265003607595631L26.192857142857143,7.479289321881345L26.592139249547223,7.878571428571428L27.407860750452773,7.878571428571428L27.59285714285714,7.69357503616706L27.59285714285714,7.30642496383294L26.979289321881346,6.692857142857142L26.76500360759563,6.692857142857142L23.336432179024204,3.2642857142857142L22.907860750452773,3.2642857142857142L22.69357503616706,3.05L22.5,3.05L22.5,2.95L22.73499639240437,2.95L22.94928210669008,3.1642857142857146L23.37785353526151,3.1642857142857146L26.80642496383294,6.5928571428571425L27.020710678118654,6.5928571428571425L27.692857142857143,7.265003607595631L27.692857142857143,7.734996392404369L27.44928210669008,7.978571428571428L26.550717893309915,7.978571428571428L26.09285714285714,7.520710678118655L26.09285714285714,7.30642496383294L25.907860750452773,7.121428571428571L25.26500360759563,7.121428571428571L24.836432179024204,6.692857142857142L24.62214646473849,6.692857142857142L23.336432179024204,5.407142857142857L23.12214646473849,5.407142857142857L22.907860750452773,5.192857142857142L17.592139249547227,5.192857142857142L17.40714285714286,5.3778535352615116L17.40714285714286,5.592139249547226L16.764285714285716,6.234996392404369L16.764285714285716,6.449282106690083L16.55,6.663567820975797z" stroke="none"/><path d="M7.535355339059327,7.535355339059327L7.464644660940673,7.464644660940673L7.69357503616706,7.235714285714286L8.122146464738488,7.235714285714286L8.336432179024204,7.021428571428571L10.479289321881346,7.021428571428571L10.693575036167061,6.807142857142857L11.122146464738488,6.807142857142857L11.336432179024204,6.5928571428571425L11.550717893309915,6.5928571428571425L11.76500360759563,6.378571428571428L12.407860750452773,6.378571428571428L13.907860750452773,4.878571428571429L14.122146464738488,4.878571428571429L14.336432179024204,4.664285714285715L14.76500360759563,4.664285714285715L14.964644660940673,4.464644660940673L15.035355339059327,4.535355339059327L14.806424963832939,4.764285714285714L14.377853535261512,4.764285714285714L14.163567820975796,4.978571428571429L13.949282106690081,4.978571428571429L12.449282106690081,6.478571428571428L11.806424963832939,6.478571428571428L11.592139249547223,6.692857142857142L11.377853535261512,6.692857142857142L11.163567820975796,6.907142857142857L10.73499639240437,6.907142857142857L10.520710678118654,7.121428571428571L8.377853535261512,7.121428571428571L8.163567820975796,7.335714285714285L7.734996392404369,7.335714285714285z" stroke="none"/><path d="M22.46464466094067,6.035355339059327L22.53535533905933,5.964644660940673L23.37785353526151,6.807142857142857L23.592139249547223,6.807142857142857L24.44928210669008,7.664285714285715L24.87785353526151,7.664285714285715L25.092139249547223,7.878571428571428L26.163567820975796,7.878571428571428L26.37785353526151,8.092857142857142L27.62214646473849,8.092857142857142L27.807142857142857,7.907860750452773L27.807142857142857,3.234996392404369L27.59285714285714,3.020710678118655L27.59285714285714,2.8064249638329404L27.407860750452773,2.6214285714285714L26.76500360759563,2.6214285714285714L26.550717893309915,2.407142857142857L25.26500360759563,2.407142857142857L25.050717893309915,2.1928571428571426L16.092139249547223,2.1928571428571426L15.449282106690081,2.8357142857142854L15.23499639240437,2.8357142857142854L15.035355339059327,3.0353553390593273L14.964644660940673,2.9646446609406727L15.193575036167061,2.7357142857142858L15.407860750452773,2.7357142857142858L16.050717893309915,2.092857142857143L25.092139249547223,2.092857142857143L25.30642496383294,2.3071428571428574L26.592139249547223,2.3071428571428574L26.80642496383294,2.521428571428572L27.44928210669008,2.521428571428572L27.692857142857143,2.765003607595631L27.692857142857143,2.979289321881345L27.90714285714286,3.1935750361670596L27.90714285714286,7.949282106690083L27.663567820975796,8.192857142857143L26.336432179024204,8.192857142857143L26.12214646473849,7.978571428571428L25.050717893309915,7.978571428571428L24.836432179024204,7.764285714285714L24.407860750452773,7.764285714285714L23.550717893309915,6.907142857142857L23.336432179024204,6.907142857142857z" stroke="none"/><path d="M6,3.05L6,2.95L13.092139249547223,2.95L13.306424963832939,3.1642857142857146L14.163567820975796,3.1642857142857146L14.377853535261512,3.3785714285714286L14.592139249547223,3.3785714285714286L15.020710678118654,3.8071428571428574L15.23499639240437,3.8071428571428574L15.478571428571428,4.050717893309916L15.478571428571428,4.949282106690084L15.264285714285716,5.163567820975797L15.264285714285716,5.80642496383294L15.035355339059327,6.035355339059327L14.964644660940673,5.964644660940673L15.164285714285715,5.765003607595631L15.164285714285715,5.122146464738488L15.378571428571426,4.907860750452774L15.378571428571426,4.092139249547226L15.193575036167061,3.907142857142857L14.979289321881346,3.907142857142857L14.550717893309915,3.478571428571428L14.336432179024204,3.478571428571428L14.122146464738488,3.2642857142857142L13.26500360759563,3.2642857142857142L13.050717893309915,3.05z" stroke="none"/><path d="M17.96464466094067,2.9646446609406727L18.03535533905933,3.0353553390593273L17.80642496383294,3.2642857142857142L17.37785353526151,3.2642857142857142L17.163567820975796,3.478571428571428L16.94928210669008,3.478571428571428L16.520710678118654,3.907142857142857L16.30642496383294,3.907142857142857L16.12142857142857,4.092139249547226L16.12142857142857,5.592139249547226L15.692857142857143,6.020710678118655L15.692857142857143,6.234996392404369L15.449282106690081,6.478571428571428L14.377853535261512,6.478571428571428L14.163567820975796,6.692857142857142L12.23499639240437,6.692857142857142L12.020710678118654,6.907142857142857L11.806424963832939,6.907142857142857L11.377853535261512,7.335714285714285L9.449282106690081,7.335714285714285L9.23499639240437,7.55L9,7.55L9,7.45L9.193575036167061,7.45L9.407860750452773,7.235714285714286L11.336432179024204,7.235714285714286L11.76500360759563,6.807142857142857L11.979289321881346,6.807142857142857L12.193575036167061,6.5928571428571425L14.122146464738488,6.5928571428571425L14.336432179024204,6.378571428571428L15.407860750452773,6.378571428571428L15.592857142857142,6.19357503616706L15.592857142857142,5.979289321881345L16.02142857142857,5.550717893309916L16.02142857142857,4.050717893309916L16.26500360759563,3.8071428571428574L16.479289321881346,3.8071428571428574L16.907860750452773,3.3785714285714286L17.12214646473849,3.3785714285714286L17.336432179024204,3.1642857142857146L17.76500360759563,3.1642857142857146z" stroke="none"/><path d="M4.535355339059327,9.035355339059327L4.464644660940673,8.964644660940673L6.19357503616706,7.235714285714286L6.836432179024202,7.235714285714286L7.050717893309916,7.021428571428571L7.69357503616706,7.021428571428571L7.907860750452773,6.807142857142857L8.550717893309915,6.807142857142857L9.407860750452773,5.95L9.622146464738488,5.95L10.050717893309915,5.521428571428571L11.550717893309915,5.521428571428571L11.76500360759563,5.307142857142857L11.979289321881346,5.307142857142857L12.378571428571426,4.907860750452774L12.378571428571426,4.092139249547226L12.193575036167061,3.907142857142857L5.979289321881345,3.907142857142857L5.0928571428571425,3.020710678118655L5.0928571428571425,2.8064249638329404L4.907860750452774,2.6214285714285714L2.5921392495472264,2.6214285714285714L2.407142857142857,2.8064249638329404L2.407142857142857,8.163567820975796L1.7642857142857145,8.806424963832939L1.7642857142857145,12.836432179024204L1.9492821066900834,13.021428571428569L10.479289321881346,13.021428571428569L10.693575036167061,12.807142857142857L10.907860750452773,12.807142857142857L11.092857142857142,12.622146464738488L11.092857142857142,11.979289321881346L11.550717893309915,11.521428571428569L11.76500360759563,11.521428571428569L12.378571428571426,10.907860750452773L12.378571428571426,10.092139249547223L11.979289321881346,9.692857142857143L11.76500360759563,9.692857142857143L11.521428571428569,9.449282106690081L11.521428571428569,8.550717893309915L11.76500360759563,8.307142857142857L13.949282106690081,8.307142857142857L14.163567820975796,8.521428571428569L14.377853535261512,8.521428571428569L14.592139249547223,8.735714285714284L14.806424963832939,8.735714285714284L15.035355339059327,8.964644660940673L14.964644660940673,9.035355339059327L14.76500360759563,8.835714285714285L14.550717893309915,8.835714285714285L14.336432179024204,8.62142857142857L14.122146464738488,8.62142857142857L13.907860750452773,8.407142857142858L11.806424963832939,8.407142857142858L11.62142857142857,8.592139249547223L11.62142857142857,9.407860750452773L11.806424963832939,9.592857142857142L12.020710678118654,9.592857142857142L12.478571428571428,10.050717893309915L12.478571428571428,10.949282106690081L11.806424963832939,11.62142857142857L11.592139249547223,11.62142857142857L11.192857142857143,12.020710678118654L11.192857142857143,12.663567820975796L10.949282106690081,12.907142857142858L10.73499639240437,12.907142857142858L10.520710678118654,13.12142857142857L1.9078607504527738,13.12142857142857L1.6642857142857144,12.877853535261512L1.6642857142857144,8.76500360759563L2.3071428571428574,8.122146464738488L2.3071428571428574,2.765003607595631L2.550717893309917,2.521428571428572L4.949282106690084,2.521428571428572L5.192857142857142,2.765003607595631L5.192857142857142,2.979289321881345L6.020710678118655,3.8071428571428574L12.23499639240437,3.8071428571428574L12.478571428571428,4.050717893309916L12.478571428571428,4.949282106690084L12.020710678118654,5.407142857142857L11.806424963832939,5.407142857142857L11.592139249547223,5.621428571428571L10.092139249547223,5.621428571428571L9.663567820975796,6.05L9.449282106690081,6.05L8.592139249547223,6.907142857142857L7.949282106690083,6.907142857142857L7.734996392404369,7.121428571428571L7.092139249547226,7.121428571428571L6.8778535352615116,7.335714285714285L6.234996392404369,7.335714285714285z" stroke="none"/></svg>