<svg version="1.1" width="105" height="15" xmlns="http://www.w3.org/2000/svg"><path d="M73.41715728752538,5.8L78,5.8L78,6.2L73.98284271247462,6.2L75.08284271247462,7.3L76.5,7.3L76.5,7.7L74.91715728752538,7.7L73.5,6.282842712474619L70.58284271247462,9.2L66,9.2L66,8.8L70.41715728752538,8.8z" stroke="none"/><path d="M82.5,10.3L82.5,10.7L70.7,10.7L70.7,11.91715728752538L72.08284271247462,13.3L77.91715728752538,13.3L79.41715728752538,11.8L88.5,11.8L88.5,12.2L79.58284271247462,12.2L78.08284271247462,13.7L71.91715728752538,13.7L70.3,12.08284271247462L70.3,10.7L43.5,10.7L43.5,10.3z" stroke="none"/><path d="M25.3,10.3L25.3,8.91715728752538L26.91715728752538,7.3L28.58284271247462,7.3L30.08284271247462,8.8L31.58284271247462,8.8L33.082842712474616,10.3L36.082842712474616,10.3L39.082842712474616,13.3L41.917157287525384,13.3L43.417157287525384,11.8L45,11.8L45,12.2L43.582842712474616,12.2L42.082842712474616,13.7L38.917157287525384,13.7L35.917157287525384,10.7L32.917157287525384,10.7L31.41715728752538,9.2L29.91715728752538,9.2L28.41715728752538,7.7L27.08284271247462,7.7L25.7,9.08284271247462L25.7,10.3L28.58284271247462,10.3L30.08284271247462,11.8L34.5,11.8L34.5,12.2L29.91715728752538,12.2L28.41715728752538,10.7L25.7,10.7L25.7,12.08284271247462L24.08284271247462,13.7L16.41715728752538,13.7L14.91715728752538,12.2L10.41715728752538,12.2L8.85857864376269,10.64142135623731L9.14142135623731,10.35857864376269L10.58284271247462,11.8L15.08284271247462,11.8L16.58284271247462,13.3L23.91715728752538,13.3L25.3,11.91715728752538L25.3,10.7L23.91715728752538,10.7L22.41715728752538,9.2L19.41715728752538,9.2L17.91715728752538,7.7L15.08284271247462,7.7L13.7,9.08284271247462L13.7,10.5L13.3,10.5L13.3,8.91715728752538L14.91715728752538,7.3L18.08284271247462,7.3L19.58284271247462,8.8L22.58284271247462,8.8L24.08284271247462,10.3z" stroke="none"/><path d="M32.8,4.3L32.8,3.082842712474619L31.41715728752538,1.7L9.08284271247462,1.7L6.2,4.582842712474619L6.2,6L5.8,6L5.8,4.417157287525381L8.91715728752538,1.3L31.58284271247462,1.3L33.2,2.917157287525381L33.2,4.3L36.082842712474616,4.3L37.582842712474616,5.8L43.417157287525384,5.8L44.917157287525384,4.3L51,4.3L51,4.7L45.082842712474616,4.7L43.582842712474616,6.2L37.417157287525384,6.2L35.917157287525384,4.7L33.2,4.7L33.2,5.917157287525381L34.582842712474616,7.3L50.917157287525384,7.3L52.35857864376269,5.858578643762691L52.64142135623731,6.141421356237309L51.082842712474616,7.7L34.417157287525384,7.7L32.8,6.082842712474619L32.8,4.7L28.58284271247462,4.7L27.08284271247462,6.2L22.5,6.2L22.5,5.8L26.91715728752538,5.8L28.41715728752538,4.3z" stroke="none"/><path d="M9.2,6L8.8,6L8.8,4.5L9.2,4.5z" stroke="none"/><path d="M100.35857864376268,5.858578643762691L100.64142135623732,6.141421356237309L99.14142135623732,7.641421356237309L98.85857864376268,7.358578643762691z" stroke="none"/><path d="M15,10.7L15,10.3L18,10.3L18,10.7z" stroke="none"/><path d="M82.5,4.7L82.5,4.3L85.5,4.3L85.5,4.7z" stroke="none"/><path d="M4.358578643762691,2.8585786437626903L4.641421356237309,3.1414213562373097L3.2,4.582842712474619L3.2,5.917157287525381L4.582842712474619,7.3L7.5,7.3L7.5,7.7L4.417157287525381,7.7L2.8,6.082842712474619L2.8,4.417157287525381z" stroke="none"/><path d="M93.2,12L92.8,12L92.8,10.41715728752538L94.41715728752538,8.8L97.5,8.8L97.5,9.2L94.58284271247462,9.2L93.2,10.58284271247462z" stroke="none"/><path d="M40.7,12L40.3,12L40.3,10.41715728752538L41.917157287525384,8.8L46.5,8.8L46.5,9.2L42.082842712474616,9.2L40.7,10.58284271247462z" stroke="none"/><path d="M17.8,3L18.2,3L18.2,4.417157287525381L21.08284271247462,7.3L24,7.3L24,7.7L20.91715728752538,7.7L17.8,4.582842712474619z" stroke="none"/><path d="M61.5,5.8L61.5,6.2L54,6.2L54,5.8z" stroke="none"/><path d="M95.8,10.5L96.2,10.5L96.2,12.08284271247462L94.58284271247462,13.7L91.41715728752538,13.7L89.8,12.08284271247462L89.8,10.58284271247462L88.41715728752538,9.2L87,9.2L87,8.8L88.58284271247462,8.8L90.2,10.41715728752538L90.2,11.91715728752538L91.58284271247462,13.3L94.41715728752538,13.3L95.8,11.91715728752538z" stroke="none"/><path d="M51,9.2L51,8.8L61.417157287525384,8.8L62.8,7.417157287525381L62.8,4.582842712474619L61.417157287525384,3.2L42.082842712474616,3.2L40.64142135623731,4.641421356237309L40.35857864376269,4.358578643762691L41.917157287525384,2.8L61.582842712474616,2.8L63.2,4.417157287525381L63.2,7.582842712474619L61.582842712474616,9.2z" stroke="none"/><path d="M87,3.2L87,2.8L99,2.8L99,3.2z" stroke="none"/><path d="M92.85857864376268,4.358578643762691L93.14142135623732,4.641421356237309L90.08284271247462,7.7L85.58284271247462,7.7L84.08284271247462,9.2L75,9.2L75,8.8L83.91715728752538,8.8L85.41715728752538,7.3L89.91715728752538,7.3z" stroke="none"/><path d="M100.35857864376268,3.1414213562373097L100.64142135623732,2.8585786437626903L102.2,4.417157287525381L102.2,7.582842712474619L99.2,10.58284271247462L99.2,11.91715728752538L100.58284271247462,13.3L101.91715728752538,13.3L103.3,11.91715728752538L103.3,4.582842712474619L100.41715728752538,1.7L82.58284271247462,1.7L81.14142135623732,3.1414213562373097L80.85857864376268,2.8585786437626903L82.41715728752538,1.3L100.58284271247462,1.3L103.7,4.417157287525381L103.7,12.08284271247462L102.08284271247462,13.7L100.41715728752538,13.7L98.8,12.08284271247462L98.8,10.41715728752538L101.8,7.417157287525381L101.8,4.582842712474619z" stroke="none"/><path d="M88.5,5.8L88.5,6.2L80.91715728752538,6.2L79.41715728752538,4.7L73.58284271247462,4.7L72.08284271247462,6.2L69.08284271247462,6.2L67.64142135623732,7.641421356237309L67.35857864376268,7.358578643762691L68.91715728752538,5.8L71.91715728752538,5.8L73.41715728752538,4.3L79.58284271247462,4.3L81.08284271247462,5.8z" stroke="none"/><path d="M39.2,4.5L38.8,4.5L38.8,2.917157287525381L40.417157287525384,1.3L63.082842712474616,1.3L64.58284271247462,2.8L67.58284271247462,2.8L69.08284271247462,4.3L70.5,4.3L70.5,4.7L68.91715728752538,4.7L67.41715728752538,3.2L64.41715728752538,3.2L62.917157287525384,1.7L40.582842712474616,1.7L39.2,3.082842712474619z" stroke="none"/></svg>