<svg version="1.1" width="105" height="15" xmlns="http://www.w3.org/2000/svg"><path d="M83.91715728752538,5.8L85.41715728752538,4.3L87,4.3L87,4.7L85.58284271247462,4.7L84.08284271247462,6.2L76.58284271247462,6.2L75.08284271247462,7.7L73.5,7.7L73.5,7.3L74.91715728752538,7.3L76.01715728752538,6.2L74.91715728752538,6.2L73.41715728752538,4.7L69.08284271247462,4.7L67.58284271247462,6.2L66.08284271247462,6.2L64.64142135623732,7.641421356237309L64.35857864376268,7.358578643762691L65.91715728752538,5.8L67.41715728752538,5.8L68.91715728752538,4.3L73.58284271247462,4.3L75.08284271247462,5.8z" stroke="none"/><path d="M73.58284271247462,10.3L75.14142135623732,11.85857864376269L74.85857864376268,12.14142135623731L73.41715728752538,10.7L69.2,10.7L69.2,11.91715728752538L70.58284271247462,13.3L77.91715728752538,13.3L79.41715728752538,11.8L84,11.8L84,12.2L79.58284271247462,12.2L78.08284271247462,13.7L70.41715728752538,13.7L68.8,12.08284271247462L68.8,10.7L58.417157287525384,10.7L56.917157287525384,9.2L54.082842712474616,9.2L52.582842712474616,10.7L51,10.7L51,10.3L52.417157287525384,10.3L53.917157287525384,8.8L57.082842712474616,8.8L58.582842712474616,10.3z" stroke="none"/><path d="M37.417157287525384,7.3L38.917157287525384,5.8L40.5,5.8L40.5,6.2L39.082842712474616,6.2L37.582842712474616,7.7L30.2,7.7L30.2,8.91715728752538L31.58284271247462,10.3L38.917157287525384,10.3L40.417157287525384,8.8L43.5,8.8L43.5,9.2L40.582842712474616,9.2L39.082842712474616,10.7L31.41715728752538,10.7L29.8,9.08284271247462L29.8,7.9828427124746195L28.58284271247462,9.2L27,9.2L27,8.8L28.41715728752538,8.8L29.517157287525382,7.7L12.08284271247462,7.7L10.58284271247462,9.2L9.08284271247462,9.2L7.582842712474619,10.7L4.417157287525381,10.7L2.8,9.08284271247462L2.8,7.5L3.2,7.5L3.2,8.91715728752538L4.582842712474619,10.3L7.417157287525381,10.3L8.91715728752538,8.8L10.41715728752538,8.8L11.91715728752538,7.3z" stroke="none"/><path d="M43.3,4.3L43.3,3.082842712474619L41.917157287525384,1.7L34.582842712474616,1.7L33.082842712474616,3.2L25.5,3.2L25.5,2.8L32.917157287525384,2.8L34.417157287525384,1.3L42.082842712474616,1.3L43.7,2.917157287525381L43.7,4.3L46.582842712474616,4.3L48.082842712474616,5.8L54.082842712474616,5.8L55.582842712474616,7.3L61.582842712474616,7.3L63.082842712474616,8.8L65.91715728752538,8.8L67.41715728752538,7.3L68.91715728752538,7.3L70.35857864376268,5.858578643762691L70.64142135623732,6.141421356237309L69.08284271247462,7.7L67.58284271247462,7.7L66.08284271247462,9.2L62.917157287525384,9.2L61.417157287525384,7.7L55.417157287525384,7.7L53.917157287525384,6.2L47.917157287525384,6.2L46.417157287525384,4.7L43.98284271247462,4.7L46.64142135623731,7.358578643762691L46.35857864376269,7.641421356237309L43.417157287525384,4.7L30,4.7L30,4.3z" stroke="none"/><path d="M17.8,10.5L18.2,10.5L18.2,12L17.8,12z" stroke="none"/><path d="M55.35857864376269,10.64142135623731L55.64142135623731,10.35857864376269L57.14142135623731,11.85857864376269L56.85857864376269,12.14142135623731z" stroke="none"/><path d="M12,12.2L12,11.8L15,11.8L15,12.2z" stroke="none"/><path d="M49.64142135623731,9.14142135623731L49.35857864376269,8.85857864376269L50.917157287525384,7.3L52.5,7.3L52.5,7.7L51.082842712474616,7.7z" stroke="none"/><path d="M12,4.3L12,4.7L8.91715728752538,4.7L7.417157287525381,3.2L6,3.2L6,2.8L7.582842712474619,2.8L9.08284271247462,4.3z" stroke="none"/><path d="M22.5,2.8L22.5,3.2L15,3.2L15,2.8z" stroke="none"/><path d="M61.5,3.2L61.5,2.8L69,2.8L69,3.2z" stroke="none"/><path d="M100.5,11.8L100.5,12.2L97.41715728752538,12.2L92.85857864376268,7.641421356237309L93.14142135623732,7.358578643762691L97.58284271247462,11.8z" stroke="none"/><path d="M99.14142135623732,7.358578643762691L98.85857864376268,7.641421356237309L97.41715728752538,6.2L91.58284271247462,6.2L90.2,7.582842712474619L90.2,12L89.8,12L89.8,7.417157287525381L91.41715728752538,5.8L97.58284271247462,5.8z" stroke="none"/><path d="M46.5,10.3L46.5,10.7L42.082842712474616,10.7L40.582842712474616,12.2L36,12.2L36,11.8L40.417157287525384,11.8L41.917157287525384,10.3z" stroke="none"/><path d="M99.14142135623732,10.64142135623731L98.85857864376268,10.35857864376269L100.3,8.91715728752538L100.3,6.082842712474619L98.91715728752538,4.7L90.08284271247462,4.7L85.64142135623732,9.14142135623731L85.35857864376268,8.85857864376269L89.91715728752538,4.3L99.08284271247462,4.3L100.7,5.917157287525381L100.7,9.08284271247462z" stroke="none"/><path d="M7.5,5.8L7.5,6.2L5.917157287525381,6.2L4.417157287525381,4.7L3.082842712474619,4.7L1.7,6.082842712474619L1.7,10.41715728752538L3.082842712474619,11.8L8.91715728752538,11.8L10.41715728752538,10.3L11.91715728752538,10.3L13.41715728752538,8.8L25.5,8.8L25.5,9.2L13.58284271247462,9.2L12.08284271247462,10.7L10.58284271247462,10.7L9.08284271247462,12.2L2.917157287525381,12.2L1.3,10.58284271247462L1.3,5.917157287525381L2.917157287525381,4.3L4.582842712474619,4.3L6.082842712474619,5.8z" stroke="none"/><path d="M93,2.8L93,3.2L73.5,3.2L73.5,2.8z" stroke="none"/><path d="M4.5,7.7L4.5,7.3L8.91715728752538,7.3L10.41715728752538,5.8L14.91715728752538,5.8L16.41715728752538,4.3L24,4.3L24,4.7L16.58284271247462,4.7L15.08284271247462,6.2L10.58284271247462,6.2L9.08284271247462,7.7z" stroke="none"/><path d="M47.8,10.5L48.2,10.5L48.2,12.08284271247462L46.582842712474616,13.7L25.41715728752538,13.7L23.91715728752538,12.2L22.5,12.2L22.5,11.8L24.08284271247462,11.8L25.58284271247462,13.3L46.417157287525384,13.3L47.8,11.91715728752538z" stroke="none"/><path d="M75,9.2L75,8.8L82.58284271247462,8.8L84.08284271247462,10.3L85.58284271247462,10.3L88.58284271247462,13.3L101.91715728752538,13.3L103.3,11.91715728752538L103.3,10.58284271247462L101.8,9.08284271247462L101.8,4.582842712474619L100.41715728752538,3.2L98.91715728752538,3.2L97.41715728752538,1.7L54.082842712474616,1.7L52.582842712474616,3.2L51.082842712474616,3.2L49.64142135623731,4.641421356237309L49.35857864376269,4.358578643762691L50.917157287525384,2.8L52.417157287525384,2.8L53.917157287525384,1.3L97.58284271247462,1.3L99.08284271247462,2.8L100.58284271247462,2.8L102.2,4.417157287525381L102.2,8.91715728752538L103.7,10.41715728752538L103.7,12.08284271247462L102.08284271247462,13.7L88.41715728752538,13.7L85.41715728752538,10.7L83.91715728752538,10.7L82.41715728752538,9.2z" stroke="none"/></svg>