<svg version="1.1" width="105" height="15" xmlns="http://www.w3.org/2000/svg"><path d="M48.082842712474616,8.8L67.5,8.8L67.5,9.2L43.582842712474616,9.2L42.082842712474616,10.7L40.582842712474616,10.7L39.082842712474616,12.2L33,12.2L33,11.8L38.917157287525384,11.8L40.417157287525384,10.3L41.917157287525384,10.3L43.417157287525384,8.8L47.51715728752538,8.8L46.417157287525384,7.7L45,7.7L45,7.3L46.582842712474616,7.3z" stroke="none"/><path d="M67.58284271247462,4.3L70.58284271247462,7.3L72,7.3L72,7.7L70.41715728752538,7.7L67.41715728752538,4.7L66.2,4.7L66.2,6.082842712474619L64.64142135623732,7.641421356237309L64.35857864376268,7.358578643762691L65.8,5.917157287525381L65.8,4.7L61.417157287525384,4.7L59.917157287525384,3.2L58.5,3.2L58.5,2.8L60.082842712474616,2.8L61.582842712474616,4.3z" stroke="none"/><path d="M80.8,7.3L80.8,5.917157287525381L82.41715728752538,4.3L90.08284271247462,4.3L91.58284271247462,5.8L96,5.8L96,6.2L91.41715728752538,6.2L89.91715728752538,4.7L82.58284271247462,4.7L81.2,6.082842712474619L81.2,7.3L83.91715728752538,7.3L85.41715728752538,5.8L87,5.8L87,6.2L85.58284271247462,6.2L84.08284271247462,7.7L81.48284271247462,7.7L82.58284271247462,8.8L84,8.8L84,9.2L82.41715728752538,9.2L80.91715728752538,7.7L75.08284271247462,7.7L73.58284271247462,9.2L70.58284271247462,9.2L69.08284271247462,10.7L58.5,10.7L58.5,10.3L68.91715728752538,10.3L70.41715728752538,8.8L73.41715728752538,8.8L74.91715728752538,7.3z" stroke="none"/><path d="M32.8,5.8L32.8,4.417157287525381L34.417157287525384,2.8L45.082842712474616,2.8L46.582842712474616,4.3L48.082842712474616,4.3L49.582842712474616,5.8L54,5.8L54,6.2L49.417157287525384,6.2L47.917157287525384,4.7L46.417157287525384,4.7L44.917157287525384,3.2L34.582842712474616,3.2L33.2,4.582842712474619L33.2,5.8L40.417157287525384,5.8L41.85857864376269,4.358578643762691L42.14142135623731,4.641421356237309L40.582842712474616,6.2L33.2,6.2L33.2,7.582842712474619L31.58284271247462,9.2L22.5,9.2L22.5,8.8L31.41715728752538,8.8L32.8,7.417157287525381L32.8,6.2L29.91715728752538,6.2L28.41715728752538,4.7L12.08284271247462,4.7L10.58284271247462,6.2L9,6.2L9,5.8L10.41715728752538,5.8L11.91715728752538,4.3L28.58284271247462,4.3L30.08284271247462,5.8z" stroke="none"/><path d="M87,10.3L87,10.7L85.5,10.7L85.5,10.3z" stroke="none"/><path d="M55.35857864376269,3.1414213562373097L55.64142135623731,2.8585786437626903L57.082842712474616,4.3L58.5,4.3L58.5,4.7L56.917157287525384,4.7z" stroke="none"/><path d="M35.8,7.5L36.2,7.5L36.2,8.91715728752538L37.64142135623731,10.35857864376269L37.35857864376269,10.64142135623731L35.8,9.08284271247462z" stroke="none"/><path d="M34.35857864376269,8.85857864376269L34.64142135623731,9.14142135623731L33.082842712474616,10.7L28.5,10.7L28.5,10.3L32.917157287525384,10.3z" stroke="none"/><path d="M37.5,7.7L37.5,7.3L41.917157287525384,7.3L43.3,5.917157287525381L43.3,4.5L43.7,4.5L43.7,6.082842712474619L42.082842712474616,7.7z" stroke="none"/><path d="M97.3,6L97.7,6L97.7,7.582842712474619L96.08284271247462,9.2L94.58284271247462,9.2L93.08284271247462,10.7L91.5,10.7L91.5,10.3L92.91715728752538,10.3L94.41715728752538,8.8L95.91715728752538,8.8L97.3,7.417157287525381z" stroke="none"/><path d="M94.64142135623732,12.14142135623731L94.35857864376268,11.85857864376269L95.91715728752538,10.3L97.41715728752538,10.3L100.35857864376268,7.358578643762691L100.64142135623732,7.641421356237309L97.58284271247462,10.7L96.08284271247462,10.7z" stroke="none"/><path d="M102,4.3L102,4.7L95.91715728752538,4.7L94.35857864376268,3.1414213562373097L94.64142135623732,2.8585786437626903L96.08284271247462,4.3z" stroke="none"/><path d="M70.5,12.2L70.5,11.8L71.91715728752538,11.8L73.41715728752538,10.3L76.41715728752538,10.3L77.85857864376268,8.85857864376269L78.14142135623732,9.14142135623731L76.58284271247462,10.7L73.58284271247462,10.7L72.08284271247462,12.2z" stroke="none"/><path d="M30,11.8L30,12.2L22.41715728752538,12.2L20.8,10.58284271247462L20.8,9L21.2,9L21.2,10.41715728752538L22.58284271247462,11.8z" stroke="none"/><path d="M10.64142135623731,12.14142135623731L10.35857864376269,11.85857864376269L11.91715728752538,10.3L16.41715728752538,10.3L19.41715728752538,7.3L30,7.3L30,7.7L19.58284271247462,7.7L16.58284271247462,10.7L12.08284271247462,10.7z" stroke="none"/><path d="M63,3.2L63,2.8L84,2.8L84,3.2z" stroke="none"/><path d="M27,5.8L27,6.2L13.58284271247462,6.2L12.08284271247462,7.7L7.417157287525381,7.7L5.917157287525381,6.2L4.5,6.2L4.5,5.8L6.082842712474619,5.8L7.582842712474619,7.3L11.91715728752538,7.3L13.41715728752538,5.8z" stroke="none"/><path d="M101.85857864376268,11.85857864376269L102.14142135623732,12.14142135623731L100.58284271247462,13.7L65.91715728752538,13.7L64.35857864376268,12.14142135623731L64.64142135623732,11.85857864376269L66.08284271247462,13.3L100.41715728752538,13.3z" stroke="none"/><path d="M13.5,3.2L13.5,2.8L31.41715728752538,2.8L32.917157287525384,1.3L46.582842712474616,1.3L48.082842712474616,2.8L49.582842712474616,2.8L51.14142135623731,4.358578643762691L50.85857864376269,4.641421356237309L49.417157287525384,3.2L47.917157287525384,3.2L46.417157287525384,1.7L33.082842712474616,1.7L31.58284271247462,3.2z" stroke="none"/><path d="M13.5,12.2L13.5,11.8L19.58284271247462,11.8L21.08284271247462,13.3L59.917157287525384,13.3L61.35857864376269,11.85857864376269L61.64142135623731,12.14142135623731L60.082842712474616,13.7L20.91715728752538,13.7L19.41715728752538,12.2z" stroke="none"/></svg>