<svg version="1.1" width="105" height="15" xmlns="http://www.w3.org/2000/svg"><path d="M76.41715728752538,5.8L86.91715728752538,5.8L88.41715728752538,4.3L91.5,4.3L91.5,4.7L88.58284271247462,4.7L87.08284271247462,6.2L76.7,6.2L76.7,9.08284271247462L75.08284271247462,10.7L68.91715728752538,10.7L67.41715728752538,9.2L61.5,9.2L61.5,8.8L67.58284271247462,8.8L69.08284271247462,10.3L74.91715728752538,10.3L76.3,8.91715728752538L76.3,6.4828427124746195L75.08284271247462,7.7L73.5,7.7L73.5,7.3L74.91715728752538,7.3z" stroke="none"/><path d="M56.8,5.8L56.8,4.417157287525381L58.417157287525384,2.8L63.082842712474616,2.8L64.58284271247462,4.3L70.58284271247462,4.3L72.2,5.917157287525381L72.2,7.5L71.8,7.5L71.8,6.082842712474619L70.41715728752538,4.7L64.41715728752538,4.7L62.917157287525384,3.2L58.582842712474616,3.2L57.2,4.582842712474619L57.2,5.8L64.5,5.8L64.5,6.2L48.082842712474616,6.2L46.582842712474616,7.7L37.5,7.7L37.5,7.3L46.417157287525384,7.3L47.917157287525384,5.8z" stroke="none"/><path d="M29.91715728752538,8.8L31.35857864376269,7.358578643762691L31.64142135623731,7.641421356237309L30.08284271247462,9.2L25.7,9.2L25.7,11.91715728752538L27.08284271247462,13.3L31.41715728752538,13.3L32.8,11.91715728752538L32.8,9L33.2,9L33.2,12.08284271247462L31.58284271247462,13.7L26.91715728752538,13.7L25.3,12.08284271247462L25.3,9.48284271247462L24.08284271247462,10.7L22.5,10.7L22.5,10.3L23.91715728752538,10.3L25.017157287525382,9.2L23.91715728752538,9.2L22.41715728752538,7.7L19.58284271247462,7.7L16.58284271247462,10.7L15,10.7L15,10.3L16.41715728752538,10.3L19.41715728752538,7.3L22.58284271247462,7.3L24.08284271247462,8.8z" stroke="none"/><path d="M34.3,5.8L34.3,4.582842712474619L32.917157287525384,3.2L31.58284271247462,3.2L30.08284271247462,4.7L28.58284271247462,4.7L27.08284271247462,6.2L19.5,6.2L19.5,5.8L26.91715728752538,5.8L28.41715728752538,4.3L29.91715728752538,4.3L31.41715728752538,2.8L33.082842712474616,2.8L34.7,4.417157287525381L34.7,5.8L35.917157287525384,5.8L37.3,4.417157287525381L37.3,3.082842712474619L35.917157287525384,1.7L19.58284271247462,1.7L18.08284271247462,3.2L16.58284271247462,3.2L15.2,4.582842712474619L15.2,6L14.8,6L14.8,4.417157287525381L16.41715728752538,2.8L17.91715728752538,2.8L19.41715728752538,1.3L36.082842712474616,1.3L37.7,2.917157287525381L37.7,4.582842712474619L36.082842712474616,6.2L34.7,6.2L34.7,7.417157287525381L36.082842712474616,8.8L40.582842712474616,8.8L42.082842712474616,10.3L63,10.3L63,10.7L41.917157287525384,10.7L40.417157287525384,9.2L35.917157287525384,9.2L34.3,7.582842712474619L34.3,6.2L30.08284271247462,6.2L28.64142135623731,7.641421356237309L28.35857864376269,7.358578643762691L29.91715728752538,5.8z" stroke="none"/><path d="M21.2,10.5L20.8,10.5L20.8,9L21.2,9z" stroke="none"/><path d="M49.5,12.2L49.5,11.8L51,11.8L51,12.2z" stroke="none"/><path d="M82.5,7.7L82.5,7.3L85.5,7.3L85.5,7.7z" stroke="none"/><path d="M31.35857864376269,10.35857864376269L31.64142135623731,10.64142135623731L30.08284271247462,12.2L28.5,12.2L28.5,11.8L29.91715728752538,11.8z" stroke="none"/><path d="M94.35857864376268,5.858578643762691L94.64142135623732,6.141421356237309L93.08284271247462,7.7L91.58284271247462,7.7L90.14142135623732,9.14142135623731L89.85857864376268,8.85857864376269L91.41715728752538,7.3L92.91715728752538,7.3z" stroke="none"/><path d="M94.5,3.2L94.5,2.8L96.08284271247462,2.8L99.08284271247462,5.8L100.5,5.8L100.5,6.2L98.91715728752538,6.2L95.91715728752538,3.2z" stroke="none"/><path d="M43.5,9.2L43.5,8.8L47.917157287525384,8.8L49.417157287525384,7.3L51,7.3L51,7.7L49.582842712474616,7.7L48.082842712474616,9.2z" stroke="none"/><path d="M12.14142135623731,5.858578643762691L11.85857864376269,6.141421356237309L10.41715728752538,4.7L8.91715728752538,4.7L7.417157287525381,3.2L4.5,3.2L4.5,2.8L7.582842712474619,2.8L9.08284271247462,4.3L10.58284271247462,4.3z" stroke="none"/><path d="M3.1414213562373097,12.14142135623731L2.8585786437626903,11.85857864376269L4.417157287525381,10.3L5.917157287525381,10.3L8.91715728752538,7.3L10.5,7.3L10.5,7.7L9.08284271247462,7.7L6.082842712474619,10.7L4.582842712474619,10.7z" stroke="none"/><path d="M69,5.8L69,6.2L67.58284271247462,6.2L66.08284271247462,7.7L60,7.7L60,7.3L65.91715728752538,7.3L67.41715728752538,5.8z" stroke="none"/><path d="M16.3,6L16.7,6L16.7,7.582842712474619L15.08284271247462,9.2L10.58284271247462,9.2L9.2,10.58284271247462L9.2,11.91715728752538L10.58284271247462,13.3L11.91715728752538,13.3L13.3,11.91715728752538L13.3,4.582842712474619L10.41715728752538,1.7L3.082842712474619,1.7L1.7,3.082842712474619L1.7,4.417157287525381L4.641421356237309,7.358578643762691L4.358578643762691,7.641421356237309L1.3,4.582842712474619L1.3,2.917157287525381L2.917157287525381,1.3L10.58284271247462,1.3L13.7,4.417157287525381L13.7,12.08284271247462L12.08284271247462,13.7L10.41715728752538,13.7L8.8,12.08284271247462L8.8,10.41715728752538L10.41715728752538,8.8L14.91715728752538,8.8L16.3,7.417157287525381z" stroke="none"/><path d="M97.5,11.8L97.5,12.2L91.41715728752538,12.2L89.91715728752538,10.7L85.5,10.7L85.5,10.3L90.08284271247462,10.3L91.58284271247462,11.8z" stroke="none"/><path d="M101.8,7.5L102.2,7.5L102.2,9.08284271247462L100.7,10.58284271247462L100.7,12.08284271247462L99.08284271247462,13.7L88.41715728752538,13.7L86.91715728752538,12.2L85.5,12.2L85.5,11.8L87.08284271247462,11.8L88.58284271247462,13.3L98.91715728752538,13.3L100.3,11.91715728752538L100.3,10.41715728752538L101.8,8.91715728752538z" stroke="none"/><path d="M52.5,12.2L52.5,11.8L73.5,11.8L73.5,12.2z" stroke="none"/><path d="M91.5,2.8L91.5,3.2L65.91715728752538,3.2L64.41715728752538,1.7L54.082842712474616,1.7L51.082842712474616,4.7L46.582842712474616,4.7L45.14142135623731,6.141421356237309L44.85857864376269,5.858578643762691L46.417157287525384,4.3L50.917157287525384,4.3L53.917157287525384,1.3L64.58284271247462,1.3L66.08284271247462,2.8z" stroke="none"/><path d="M82.5,11.8L82.5,12.2L76.58284271247462,12.2L75.08284271247462,13.7L40.417157287525384,13.7L38.917157287525384,12.2L35.917157287525384,12.2L34.35857864376269,10.64142135623731L34.64142135623731,10.35857864376269L36.082842712474616,11.8L39.082842712474616,11.8L40.582842712474616,13.3L74.91715728752538,13.3L76.41715728752538,11.8z" stroke="none"/><circle cx="73.5" cy="7.5" r="0.25" stroke-width="0" fill="#000" /><circle cx="91.5" cy="4.5" r="0.25" stroke-width="0" fill="#000" /><circle cx="61.5" cy="9" r="0.25" stroke-width="0" fill="#000" /><circle cx="64.5" cy="6" r="0.25" stroke-width="0" fill="#000" /><circle cx="72" cy="7.5" r="0.25" stroke-width="0" fill="#000" /><circle cx="37.5" cy="7.5" r="0.25" stroke-width="0" fill="#000" /><circle cx="22.5" cy="10.5" r="0.25" stroke-width="0" fill="#000" /><circle cx="31.5" cy="7.5" r="0.25" stroke-width="0" fill="#000" /><circle cx="33" cy="9" r="0.25" stroke-width="0" fill="#000" /><circle cx="15" cy="10.5" r="0.25" stroke-width="0" fill="#000" /><circle cx="28.5" cy="7.5" r="0.25" stroke-width="0" fill="#000" /><circle cx="19.5" cy="6" r="0.25" stroke-width="0" fill="#000" /><circle cx="15" cy="6" r="0.25" stroke-width="0" fill="#000" /><circle cx="63" cy="10.5" r="0.25" stroke-width="0" fill="#000" /><circle cx="21" cy="10.5" r="0.25" stroke-width="0" fill="#000" /><circle cx="21" cy="9" r="0.25" stroke-width="0" fill="#000" /><circle cx="49.5" cy="12" r="0.25" stroke-width="0" fill="#000" /><circle cx="51" cy="12" r="0.25" stroke-width="0" fill="#000" /><circle cx="82.5" cy="7.5" r="0.25" stroke-width="0" fill="#000" /><circle cx="85.5" cy="7.5" r="0.25" stroke-width="0" fill="#000" /><circle cx="31.5" cy="10.5" r="0.25" stroke-width="0" fill="#000" /><circle cx="28.5" cy="12" r="0.25" stroke-width="0" fill="#000" /><circle cx="94.5" cy="6" r="0.25" stroke-width="0" fill="#000" /><circle cx="90" cy="9" r="0.25" stroke-width="0" fill="#000" /><circle cx="94.5" cy="3" r="0.25" stroke-width="0" fill="#000" /><circle cx="100.5" cy="6" r="0.25" stroke-width="0" fill="#000" /><circle cx="43.5" cy="9" r="0.25" stroke-width="0" fill="#000" /><circle cx="51" cy="7.5" r="0.25" stroke-width="0" fill="#000" /><circle cx="12" cy="6" r="0.25" stroke-width="0" fill="#000" /><circle cx="4.5" cy="3" r="0.25" stroke-width="0" fill="#000" /><circle cx="3" cy="12" r="0.25" stroke-width="0" fill="#000" /><circle cx="10.5" cy="7.5" r="0.25" stroke-width="0" fill="#000" /><circle cx="69" cy="6" r="0.25" stroke-width="0" fill="#000" /><circle cx="60" cy="7.5" r="0.25" stroke-width="0" fill="#000" /><circle cx="16.5" cy="6" r="0.25" stroke-width="0" fill="#000" /><circle cx="4.5" cy="7.5" r="0.25" stroke-width="0" fill="#000" /><circle cx="97.5" cy="12" r="0.25" stroke-width="0" fill="#000" /><circle cx="85.5" cy="10.5" r="0.25" stroke-width="0" fill="#000" /><circle cx="102" cy="7.5" r="0.25" stroke-width="0" fill="#000" /><circle cx="85.5" cy="12" r="0.25" stroke-width="0" fill="#000" /><circle cx="52.5" cy="12" r="0.25" stroke-width="0" fill="#000" /><circle cx="73.5" cy="12" r="0.25" stroke-width="0" fill="#000" /><circle cx="91.5" cy="3" r="0.25" stroke-width="0" fill="#000" /><circle cx="45" cy="6" r="0.25" stroke-width="0" fill="#000" /><circle cx="82.5" cy="12" r="0.25" stroke-width="0" fill="#000" /><circle cx="34.5" cy="10.5" r="0.25" stroke-width="0" fill="#000" /><rect x="0" y="0" width="105" height="15" stroke-width="0.8" stroke="#000" fill="none" /></svg>