<svg version="1.1" width="105" height="15" xmlns="http://www.w3.org/2000/svg"><path d="M16.5,2.8L16.5,3.2L13.7,3.2L13.7,4.417157287525381L15.08284271247462,5.8L22.5,5.8L22.5,6.2L14.91715728752538,6.2L13.3,4.582842712474619L13.3,3.2L9,3.2L9,2.8z" stroke="none"/><path d="M86.91715728752538,10.3L88.41715728752538,8.8L96,8.8L96,9.2L88.58284271247462,9.2L87.08284271247462,10.7L84.2,10.7L84.2,12.08284271247462L82.58284271247462,13.7L79.41715728752538,13.7L77.91715728752538,12.2L76.5,12.2L76.5,11.8L78.08284271247462,11.8L79.58284271247462,13.3L82.41715728752538,13.3L83.8,11.91715728752538L83.8,10.7L81,10.7L81,10.3z" stroke="none"/><path d="M59.8,7.3L59.8,3.082842712474619L58.417157287525384,1.7L31.58284271247462,1.7L30.14142135623731,3.1414213562373097L29.85857864376269,2.8585786437626903L31.41715728752538,1.3L58.582842712474616,1.3L60.2,2.917157287525381L60.2,7.3L73.41715728752538,7.3L74.91715728752538,5.8L76.5,5.8L76.5,6.2L75.08284271247462,6.2L73.58284271247462,7.7L60.2,7.7L60.2,8.91715728752538L61.582842712474616,10.3L64.41715728752538,10.3L65.91715728752538,8.8L76.41715728752538,8.8L77.91715728752538,7.3L79.5,7.3L79.5,7.7L78.08284271247462,7.7L76.58284271247462,9.2L66.08284271247462,9.2L64.58284271247462,10.7L61.417157287525384,10.7L59.8,9.08284271247462L59.8,7.7L55.5,7.7L55.5,7.3z" stroke="none"/><path d="M22.3,10.3L22.3,9.08284271247462L20.91715728752538,7.7L9,7.7L9,7.3L21.08284271247462,7.3L22.7,8.91715728752538L22.7,10.3L31.5,10.3L31.5,10.7L22.7,10.7L22.7,11.91715728752538L24.08284271247462,13.3L26.91715728752538,13.3L28.41715728752538,11.8L33,11.8L33,12.2L28.58284271247462,12.2L27.08284271247462,13.7L23.91715728752538,13.7L22.3,12.08284271247462L22.3,10.7L21.08284271247462,10.7L19.58284271247462,12.2L18,12.2L18,11.8L19.41715728752538,11.8L20.91715728752538,10.3z" stroke="none"/><path d="M81,3.2L81,2.8L82.5,2.8L82.5,3.2z" stroke="none"/><path d="M99.14142135623732,5.858578643762691L98.85857864376268,6.141421356237309L97.35857864376268,4.641421356237309L97.64142135623732,4.358578643762691z" stroke="none"/><path d="M93,6.2L93,5.8L96,5.8L96,6.2z" stroke="none"/><path d="M4.5,3.2L4.5,2.8L6.082842712474619,2.8L7.582842712474619,4.3L9,4.3L9,4.7L7.417157287525381,4.7L5.917157287525381,3.2z" stroke="none"/><path d="M58.5,4.3L58.5,4.7L57.082842712474616,4.7L55.582842712474616,6.2L54,6.2L54,5.8L55.417157287525384,5.8L56.917157287525384,4.3z" stroke="none"/><path d="M36,4.7L36,4.3L40.417157287525384,4.3L41.85857864376269,2.8585786437626903L42.14142135623731,3.1414213562373097L40.582842712474616,4.7z" stroke="none"/><path d="M25.5,4.7L25.5,4.3L27.08284271247462,4.3L30.08284271247462,7.3L31.5,7.3L31.5,7.7L29.91715728752538,7.7L26.91715728752538,4.7z" stroke="none"/><path d="M45,10.7L45,10.3L46.582842712474616,10.3L48.082842712474616,11.8L52.5,11.8L52.5,12.2L47.917157287525384,12.2L46.417157287525384,10.7z" stroke="none"/><path d="M7.5,9.2L7.5,8.8L12.08284271247462,8.8L13.58284271247462,10.3L15,10.3L15,10.7L13.41715728752538,10.7L11.91715728752538,9.2z" stroke="none"/><path d="M51,10.3L51,10.7L49.417157287525384,10.7L46.417157287525384,7.7L44.917157287525384,7.7L43.417157287525384,6.2L42,6.2L42,5.8L43.582842712474616,5.8L45.082842712474616,7.3L46.582842712474616,7.3L49.582842712474616,10.3z" stroke="none"/><path d="M90,10.7L90,10.3L94.58284271247462,10.3L96.08284271247462,11.8L97.41715728752538,11.8L98.8,10.41715728752538L98.8,9.08284271247462L97.41715728752538,7.7L82.58284271247462,7.7L81.08284271247462,9.2L79.58284271247462,9.2L78.08284271247462,10.7L73.5,10.7L73.5,10.3L77.91715728752538,10.3L79.41715728752538,8.8L80.91715728752538,8.8L82.41715728752538,7.3L97.58284271247462,7.3L99.2,8.91715728752538L99.2,10.58284271247462L97.58284271247462,12.2L95.91715728752538,12.2L94.41715728752538,10.7z" stroke="none"/><path d="M51,9.2L51,8.8L57.082842712474616,8.8L60.082842712474616,11.8L65.91715728752538,11.8L67.41715728752538,10.3L69,10.3L69,10.7L67.58284271247462,10.7L66.08284271247462,12.2L59.917157287525384,12.2L56.917157287525384,9.2z" stroke="none"/><path d="M78.14142135623732,3.1414213562373097L77.85857864376268,2.8585786437626903L79.41715728752538,1.3L88.58284271247462,1.3L90.08284271247462,2.8L97.5,2.8L97.5,3.2L89.91715728752538,3.2L88.41715728752538,1.7L79.58284271247462,1.7z" stroke="none"/><path d="M63,4.7L63,4.3L94.5,4.3L94.5,4.7z" stroke="none"/><path d="M71.85857864376268,10.35857864376269L72.14142135623732,10.64142135623731L70.58284271247462,12.2L69.08284271247462,12.2L67.58284271247462,13.7L46.417157287525384,13.7L44.917157287525384,12.2L43.417157287525384,12.2L40.3,9.08284271247462L40.3,7.5L40.7,7.5L40.7,8.91715728752538L43.582842712474616,11.8L45.082842712474616,11.8L46.582842712474616,13.3L67.41715728752538,13.3L68.91715728752538,11.8L70.41715728752538,11.8z" stroke="none"/><path d="M3.2,7.5L2.8,7.5L2.8,6.082842712474619L1.3,4.582842712474619L1.3,2.917157287525381L2.917157287525381,1.3L19.58284271247462,1.3L21.08284271247462,2.8L22.58284271247462,2.8L24.2,4.417157287525381L24.2,5.917157287525381L25.58284271247462,7.3L27.08284271247462,7.3L28.58284271247462,8.8L36.082842712474616,8.8L39.082842712474616,11.8L40.5,11.8L40.5,12.2L38.917157287525384,12.2L35.917157287525384,9.2L28.41715728752538,9.2L26.91715728752538,7.7L25.41715728752538,7.7L23.8,6.082842712474619L23.8,4.582842712474619L22.41715728752538,3.2L20.91715728752538,3.2L19.41715728752538,1.7L3.082842712474619,1.7L1.7,3.082842712474619L1.7,4.417157287525381L3.2,5.917157287525381z" stroke="none"/></svg>