<svg version="1.1" width="105" height="15" xmlns="http://www.w3.org/2000/svg"><path d="M78,2.8L78,3.2L75.2,3.2L75.2,4.417157287525381L76.58284271247462,5.8L77.91715728752538,5.8L79.41715728752538,4.3L82.41715728752538,4.3L83.85857864376268,2.8585786437626903L84.14142135623732,3.1414213562373097L82.58284271247462,4.7L79.58284271247462,4.7L78.08284271247462,6.2L76.41715728752538,6.2L74.8,4.582842712474619L74.8,3.2L73.58284271247462,3.2L72.08284271247462,4.7L67.41715728752538,4.7L65.85857864376268,3.1414213562373097L66.14142135623732,2.8585786437626903L67.58284271247462,4.3L71.91715728752538,4.3L73.41715728752538,2.8z" stroke="none"/><path d="M16.3,8.8L16.3,7.417157287525381L17.91715728752538,5.8L19.58284271247462,5.8L21.08284271247462,7.3L22.58284271247462,7.3L24.08284271247462,8.8L27,8.8L27,9.2L23.91715728752538,9.2L22.41715728752538,7.7L20.91715728752538,7.7L19.41715728752538,6.2L18.08284271247462,6.2L16.7,7.582842712474619L16.7,8.8L18.08284271247462,8.8L19.58284271247462,10.3L21,10.3L21,10.7L19.41715728752538,10.7L17.91715728752538,9.2L10.41715728752538,9.2L8.91715728752538,7.7L4.5,7.7L4.5,7.3L9.08284271247462,7.3L10.58284271247462,8.8z" stroke="none"/><path d="M47.8,7.3L47.8,6.082842712474619L46.417157287525384,4.7L42.082842712474616,4.7L40.582842712474616,6.2L37.5,6.2L37.5,5.8L40.417157287525384,5.8L41.917157287525384,4.3L46.582842712474616,4.3L48.2,5.917157287525381L48.2,7.3L81,7.3L81,7.7L48.2,7.7L48.2,9.08284271247462L46.582842712474616,10.7L34.417157287525384,10.7L32.85857864376269,9.14142135623731L33.14142135623731,8.85857864376269L34.582842712474616,10.3L46.417157287525384,10.3L47.8,8.91715728752538L47.8,7.7L45,7.7L45,7.3z" stroke="none"/><path d="M88.3,4.3L88.3,2.917157287525381L89.91715728752538,1.3L96.08284271247462,1.3L97.7,2.917157287525381L97.7,4.5L97.3,4.5L97.3,3.082842712474619L95.91715728752538,1.7L90.08284271247462,1.7L88.7,3.082842712474619L88.7,4.3L96,4.3L96,4.7L88.7,4.7L88.7,5.917157287525381L90.14142135623732,7.358578643762691L89.85857864376268,7.641421356237309L88.3,6.082842712474619L88.3,4.7L85.58284271247462,4.7L82.7,7.582842712474619L82.7,9.08284271247462L81.08284271247462,10.7L79.41715728752538,10.7L77.91715728752538,9.2L73.5,9.2L73.5,8.8L78.08284271247462,8.8L79.58284271247462,10.3L80.91715728752538,10.3L82.3,8.91715728752538L82.3,7.417157287525381L85.41715728752538,4.3z" stroke="none"/><path d="M34.7,6L34.3,6L34.3,4.5L34.7,4.5z" stroke="none"/><path d="M83.8,9L84.2,9L84.2,10.5L83.8,10.5z" stroke="none"/><path d="M64.5,10.7L64.5,10.3L66,10.3L66,10.7z" stroke="none"/><path d="M6.141421356237309,6.141421356237309L5.858578643762691,5.858578643762691L7.358578643762691,4.358578643762691L7.641421356237309,4.641421356237309z" stroke="none"/><path d="M86.85857864376268,8.85857864376269L87.14142135623732,9.14142135623731L85.64142135623732,10.64142135623731L85.35857864376268,10.35857864376269z" stroke="none"/><path d="M4.358578643762691,9.14142135623731L4.641421356237309,8.85857864376269L6.141421356237309,10.35857864376269L5.858578643762691,10.64142135623731z" stroke="none"/><path d="M97.35857864376268,7.358578643762691L97.64142135623732,7.641421356237309L94.58284271247462,10.7L93,10.7L93,10.3L94.41715728752538,10.3z" stroke="none"/><path d="M16.5,3.2L16.5,2.8L25.5,2.8L25.5,3.2z" stroke="none"/><path d="M70.64142135623732,3.1414213562373097L70.35857864376268,2.8585786437626903L71.91715728752538,1.3L79.58284271247462,1.3L81.14142135623732,2.8585786437626903L80.85857864376268,3.1414213562373097L79.41715728752538,1.7L72.08284271247462,1.7z" stroke="none"/><path d="M99,10.3L99,10.7L97.58284271247462,10.7L96.08284271247462,12.2L88.5,12.2L88.5,11.8L95.91715728752538,11.8L97.41715728752538,10.3z" stroke="none"/><path d="M76.5,10.3L76.5,10.7L72.08284271247462,10.7L70.58284271247462,12.2L64.5,12.2L64.5,11.8L70.41715728752538,11.8L71.91715728752538,10.3z" stroke="none"/><path d="M13.64142135623731,7.641421356237309L13.35857864376269,7.358578643762691L16.41715728752538,4.3L21.08284271247462,4.3L22.58284271247462,5.8L25.41715728752538,5.8L26.8,4.417157287525381L26.8,3L27.2,3L27.2,4.582842712474619L25.58284271247462,6.2L22.41715728752538,6.2L20.91715728752538,4.7L16.58284271247462,4.7z" stroke="none"/><path d="M66,5.8L66,6.2L50.917157287525384,6.2L47.917157287525384,3.2L37.582842712474616,3.2L36.14142135623731,4.641421356237309L35.85857864376269,4.358578643762691L37.417157287525384,2.8L48.082842712474616,2.8L51.082842712474616,5.8z" stroke="none"/><path d="M30,12.2L30,11.8L56.917157287525384,11.8L59.917157287525384,8.8L61.5,8.8L61.5,9.2L60.082842712474616,9.2L57.082842712474616,12.2z" stroke="none"/><path d="M37.5,8.8L37.5,9.2L35.917157287525384,9.2L34.417157287525384,7.7L31.58284271247462,7.7L28.58284271247462,10.7L27.08284271247462,10.7L25.58284271247462,12.2L4.417157287525381,12.2L2.8,10.58284271247462L2.8,7.5L3.2,7.5L3.2,10.41715728752538L4.582842712474619,11.8L25.41715728752538,11.8L26.91715728752538,10.3L28.41715728752538,10.3L31.41715728752538,7.3L34.582842712474616,7.3L36.082842712474616,8.8z" stroke="none"/><path d="M93.14142135623732,9.14142135623731L92.85857864376268,8.85857864376269L95.91715728752538,5.8L99.08284271247462,5.8L100.7,7.417157287525381L100.7,12.08284271247462L99.08284271247462,13.7L2.917157287525381,13.7L1.3,12.08284271247462L1.3,5.917157287525381L2.917157287525381,4.3L4.417157287525381,4.3L5.917157287525381,2.8L13.41715728752538,2.8L14.91715728752538,1.3L49.582842712474616,1.3L52.64142135623731,4.358578643762691L52.35857864376269,4.641421356237309L49.417157287525384,1.7L15.08284271247462,1.7L13.58284271247462,3.2L6.082842712474619,3.2L4.582842712474619,4.7L3.082842712474619,4.7L1.7,6.082842712474619L1.7,11.91715728752538L3.082842712474619,13.3L98.91715728752538,13.3L100.3,11.91715728752538L100.3,7.582842712474619L98.91715728752538,6.2L96.08284271247462,6.2z" stroke="none"/></svg>