<svg version="1.1" width="105" height="15" xmlns="http://www.w3.org/2000/svg"><path d="M71.8,10.3L71.8,7.5L72.2,7.5L72.2,10.3L73.41715728752538,10.3L74.85857864376268,8.85857864376269L75.14142135623732,9.14142135623731L73.58284271247462,10.7L67.5,10.7L67.5,10.3z" stroke="none"/><path d="M31.58284271247462,7.3L33.082842712474616,7.3L34.582842712474616,8.8L36,8.8L36,9.2L34.417157287525384,9.2L32.917157287525384,7.7L31.7,7.7L31.7,8.91715728752538L33.082842712474616,10.3L38.917157287525384,10.3L41.917157287525384,7.3L43.5,7.3L43.5,7.7L42.082842712474616,7.7L39.082842712474616,10.7L32.917157287525384,10.7L31.3,9.08284271247462L31.3,7.582842712474619L29.91715728752538,6.2L15,6.2L15,5.8L30.08284271247462,5.8z" stroke="none"/><path d="M95.91715728752538,8.8L97.35857864376268,7.358578643762691L97.64142135623732,7.641421356237309L96.08284271247462,9.2L90.48284271247462,9.2L91.58284271247462,10.3L93.08284271247462,10.3L94.64142135623732,11.85857864376269L94.35857864376268,12.14142135623731L92.91715728752538,10.7L91.41715728752538,10.7L90,9.282842712474618L87.14142135623732,12.14142135623731L86.85857864376268,11.85857864376269L89.51715728752538,9.2L77.91715728752538,9.2L76.41715728752538,7.7L73.5,7.7L73.5,7.3L76.58284271247462,7.3L78.08284271247462,8.8z" stroke="none"/><path d="M52.3,10.3L52.3,8.91715728752538L53.917157287525384,7.3L60.082842712474616,7.3L61.582842712474616,8.8L69,8.8L69,9.2L61.417157287525384,9.2L59.917157287525384,7.7L54.082842712474616,7.7L52.7,9.08284271247462L52.7,10.3L55.582842712474616,10.3L57.082842712474616,11.8L60,11.8L60,12.2L56.917157287525384,12.2L55.417157287525384,10.7L52.7,10.7L52.7,11.91715728752538L54.082842712474616,13.3L61.417157287525384,13.3L62.85857864376269,11.85857864376269L63.14142135623731,12.14142135623731L61.582842712474616,13.7L53.917157287525384,13.7L52.3,12.08284271247462L52.3,10.7L46.582842712474616,10.7L45.082842712474616,12.2L26.91715728752538,12.2L23.91715728752538,9.2L19.5,9.2L19.5,8.8L24.08284271247462,8.8L27.08284271247462,11.8L44.917157287525384,11.8L46.417157287525384,10.3z" stroke="none"/><path d="M9.2,9L8.8,9L8.8,7.417157287525381L10.35857864376269,5.858578643762691L10.64142135623731,6.141421356237309L9.2,7.582842712474619z" stroke="none"/><path d="M4.3,9L4.7,9L4.7,10.41715728752538L6.141421356237309,11.85857864376269L5.858578643762691,12.14142135623731L4.3,10.58284271247462z" stroke="none"/><path d="M4.358578643762691,4.641421356237309L4.641421356237309,4.358578643762691L7.641421356237309,7.358578643762691L7.358578643762691,7.641421356237309z" stroke="none"/><path d="M51,7.3L51,7.7L49.582842712474616,7.7L48.082842712474616,9.2L46.5,9.2L46.5,8.8L47.917157287525384,8.8L49.417157287525384,7.3z" stroke="none"/><path d="M19.5,10.3L19.5,10.7L16.41715728752538,10.7L14.91715728752538,9.2L13.5,9.2L13.5,8.8L15.08284271247462,8.8L16.58284271247462,10.3z" stroke="none"/><path d="M28.5,7.3L28.5,7.7L12.08284271247462,7.7L10.7,9.08284271247462L10.7,10.41715728752538L12.08284271247462,11.8L22.5,11.8L22.5,12.2L11.91715728752538,12.2L10.3,10.58284271247462L10.3,8.91715728752538L11.91715728752538,7.3z" stroke="none"/><path d="M94.64142135623732,7.641421356237309L94.35857864376268,7.358578643762691L95.91715728752538,5.8L97.41715728752538,5.8L100.35857864376268,2.8585786437626903L100.64142135623732,3.1414213562373097L97.58284271247462,6.2L96.08284271247462,6.2z" stroke="none"/><path d="M82.5,12.2L82.5,11.8L84.08284271247462,11.8L85.58284271247462,13.3L88.41715728752538,13.3L89.85857864376268,11.85857864376269L90.14142135623732,12.14142135623731L88.58284271247462,13.7L85.41715728752538,13.7L83.91715728752538,12.2z" stroke="none"/><path d="M48,4.3L48,4.7L37.417157287525384,4.7L35.85857864376269,3.1414213562373097L36.14142135623731,2.8585786437626903L37.582842712474616,4.3z" stroke="none"/><path d="M3,3.2L3,2.8L7.582842712474619,2.8L9.08284271247462,4.3L11.91715728752538,4.3L13.41715728752538,2.8L18,2.8L18,3.2L13.58284271247462,3.2L12.08284271247462,4.7L8.91715728752538,4.7L7.417157287525381,3.2z" stroke="none"/><path d="M79.5,5.8L79.5,6.2L74.91715728752538,6.2L73.41715728752538,4.7L63,4.7L63,4.3L73.58284271247462,4.3L75.08284271247462,5.8z" stroke="none"/><path d="M10.64142135623731,3.1414213562373097L10.35857864376269,2.8585786437626903L11.91715728752538,1.3L21.08284271247462,1.3L22.58284271247462,2.8L30.08284271247462,2.8L31.58284271247462,4.3L33,4.3L33,4.7L31.41715728752538,4.7L29.91715728752538,3.2L22.41715728752538,3.2L20.91715728752538,1.7L12.08284271247462,1.7z" stroke="none"/><path d="M34.3,3L34.7,3L34.7,4.417157287525381L36.082842712474616,5.8L57,5.8L57,6.2L35.917157287525384,6.2L34.3,4.582842712474619z" stroke="none"/><path d="M91.5,4.3L91.5,4.7L77.91715728752538,4.7L76.41715728752538,3.2L61.5,3.2L61.5,2.8L76.58284271247462,2.8L78.08284271247462,4.3z" stroke="none"/><path d="M39,3.2L39,2.8L51.082842712474616,2.8L52.582842712474616,4.3L60.082842712474616,4.3L61.582842712474616,5.8L70.5,5.8L70.5,6.2L61.417157287525384,6.2L59.917157287525384,4.7L52.417157287525384,4.7L50.917157287525384,3.2z" stroke="none"/><path d="M54,3.2L54,2.8L58.417157287525384,2.8L59.917157287525384,1.3L91.58284271247462,1.3L93.2,2.917157287525381L93.2,6.082842712474619L91.58284271247462,7.7L87,7.7L87,7.3L91.41715728752538,7.3L92.8,5.917157287525381L92.8,3.082842712474619L91.41715728752538,1.7L60.082842712474616,1.7L58.582842712474616,3.2z" stroke="none"/></svg>