<svg version="1.1" width="105" height="15" xmlns="http://www.w3.org/2000/svg"><path d="M12.08284271247462,7.3L15.08284271247462,10.3L19.5,10.3L19.5,10.7L14.91715728752538,10.7L11.91715728752538,7.7L6.2,7.7L6.2,12L5.8,12L5.8,7.7L3,7.7L3,7.3z" stroke="none"/><path d="M47.8,5.917157287525381L47.8,4.417157287525381L49.417157287525384,2.8L51.082842712474616,2.8L52.582842712474616,4.3L54.082842712474616,4.3L55.582842712474616,5.8L57,5.8L57,6.2L55.417157287525384,6.2L53.917157287525384,4.7L52.417157287525384,4.7L50.917157287525384,3.2L49.582842712474616,3.2L48.2,4.582842712474619L48.2,5.8L52.582842712474616,5.8L54.14142135623731,7.358578643762691L53.85857864376269,7.641421356237309L52.417157287525384,6.2L48.082842712474616,6.2L46.582842712474616,7.7L37.417157287525384,7.7L35.917157287525384,6.2L28.41715728752538,6.2L26.85857864376269,4.641421356237309L27.14142135623731,4.358578643762691L28.58284271247462,5.8L36.082842712474616,5.8L37.582842712474616,7.3L46.417157287525384,7.3z" stroke="none"/><path d="M71.8,4.3L71.8,3.082842712474619L70.41715728752538,1.7L48.082842712474616,1.7L46.7,3.082842712474619L46.7,4.582842712474619L45.14142135623731,6.141421356237309L44.85857864376269,5.858578643762691L46.3,4.417157287525381L46.3,2.917157287525381L47.917157287525384,1.3L70.58284271247462,1.3L72.2,2.917157287525381L72.2,4.3L73.41715728752538,4.3L74.91715728752538,2.8L78,2.8L78,3.2L75.08284271247462,3.2L73.58284271247462,4.7L72.2,4.7L72.2,5.917157287525381L73.58284271247462,7.3L79.41715728752538,7.3L80.91715728752538,5.8L82.5,5.8L82.5,6.2L81.08284271247462,6.2L79.58284271247462,7.7L73.41715728752538,7.7L71.8,6.082842712474619L71.8,4.7L70.58284271247462,4.7L69.2,6.082842712474619L69.2,7.417157287525381L70.58284271247462,8.8L80.91715728752538,8.8L82.35857864376268,7.358578643762691L82.64142135623732,7.641421356237309L81.08284271247462,9.2L70.41715728752538,9.2L68.8,7.582842712474619L68.8,5.917157287525381L70.41715728752538,4.3z" stroke="none"/><path d="M22.3,5.5171572875253805L22.3,2.917157287525381L23.91715728752538,1.3L31.58284271247462,1.3L33.2,2.917157287525381L33.2,4.5L32.8,4.5L32.8,3.082842712474619L31.41715728752538,1.7L24.08284271247462,1.7L22.7,3.082842712474619L22.7,5.5171572875253805L25.41715728752538,2.8L28.58284271247462,2.8L30.08284271247462,4.3L31.5,4.3L31.5,4.7L29.91715728752538,4.7L28.41715728752538,3.2L25.58284271247462,3.2L22.7,6.082842712474619L22.7,10.58284271247462L21.08284271247462,12.2L13.41715728752538,12.2L10.35857864376269,9.14142135623731L10.64142135623731,8.85857864376269L13.58284271247462,11.8L20.91715728752538,11.8L22.3,10.41715728752538L22.3,6.082842712474619L20.91715728752538,4.7L18.08284271247462,4.7L16.7,6.082842712474619L16.7,9L16.3,9L16.3,5.917157287525381L17.91715728752538,4.3L21.08284271247462,4.3z" stroke="none"/><path d="M17.8,7.5L18.2,7.5L18.2,9L17.8,9z" stroke="none"/><path d="M31.5,8.8L31.5,9.2L30,9.2L30,8.8z" stroke="none"/><path d="M87.2,9L86.8,9L86.8,6L87.2,6z" stroke="none"/><path d="M46.64142135623731,12.14142135623731L46.35857864376269,11.85857864376269L47.917157287525384,10.3L49.5,10.3L49.5,10.7L48.082842712474616,10.7z" stroke="none"/><path d="M42.14142135623731,4.358578643762691L41.85857864376269,4.641421356237309L40.417157287525384,3.2L39,3.2L39,2.8L40.582842712474616,2.8z" stroke="none"/><path d="M94.35857864376268,2.8585786437626903L94.64142135623732,3.1414213562373097L91.64142135623732,6.141421356237309L91.35857864376268,5.858578643762691z" stroke="none"/><path d="M49.35857864376269,11.85857864376269L49.64142135623731,12.14142135623731L48.082842712474616,13.7L41.917157287525384,13.7L40.3,12.08284271247462L40.3,10.41715728752538L41.917157287525384,8.8L43.582842712474616,8.8L45.14142135623731,10.35857864376269L44.85857864376269,10.64142135623731L43.417157287525384,9.2L42.082842712474616,9.2L40.7,10.58284271247462L40.7,11.91715728752538L42.082842712474616,13.3L47.917157287525384,13.3z" stroke="none"/><path d="M7.358578643762691,10.64142135623731L7.641421356237309,10.35857864376269L10.58284271247462,13.3L22.41715728752538,13.3L23.8,11.91715728752538L23.8,10.41715728752538L25.41715728752538,8.8L27.08284271247462,8.8L28.7,10.41715728752538L28.7,12.08284271247462L27.08284271247462,13.7L4.417157287525381,13.7L2.8,12.08284271247462L2.8,10.58284271247462L1.3,9.08284271247462L1.3,5.917157287525381L2.917157287525381,4.3L7.582842712474619,4.3L9.14142135623731,5.858578643762691L8.85857864376269,6.141421356237309L7.417157287525381,4.7L3.082842712474619,4.7L1.7,6.082842712474619L1.7,8.91715728752538L3.2,10.41715728752538L3.2,11.91715728752538L4.582842712474619,13.3L26.91715728752538,13.3L28.3,11.91715728752538L28.3,10.58284271247462L26.91715728752538,9.2L25.58284271247462,9.2L24.2,10.58284271247462L24.2,12.08284271247462L22.58284271247462,13.7L10.41715728752538,13.7z" stroke="none"/><path d="M7.5,3.2L7.5,2.8L9.08284271247462,2.8L10.58284271247462,4.3L12,4.3L12,4.7L10.41715728752538,4.7L8.91715728752538,3.2z" stroke="none"/><path d="M95.8,6L96.2,6L96.2,7.417157287525381L97.58284271247462,8.8L100.5,8.8L100.5,9.2L97.41715728752538,9.2L95.8,7.582842712474619z" stroke="none"/><path d="M57,4.7L57,4.3L59.917157287525384,4.3L61.417157287525384,2.8L63,2.8L63,3.2L61.582842712474616,3.2L60.082842712474616,4.7z" stroke="none"/><path d="M96.14142135623732,11.85857864376269L95.85857864376268,12.14142135623731L91.35857864376268,7.641421356237309L91.64142135623732,7.358578643762691z" stroke="none"/><path d="M32.8,10.5L33.2,10.5L33.2,11.91715728752538L34.582842712474616,13.3L35.917157287525384,13.3L37.3,11.91715728752538L37.3,10.58284271247462L35.917157287525384,9.2L34.417157287525384,9.2L32.917157287525384,7.7L26.91715728752538,7.7L25.35857864376269,6.141421356237309L25.64142135623731,5.858578643762691L27.08284271247462,7.3L33.082842712474616,7.3L34.582842712474616,8.8L36.082842712474616,8.8L37.7,10.41715728752538L37.7,12.08284271247462L36.082842712474616,13.7L34.417157287525384,13.7L32.8,12.08284271247462z" stroke="none"/><path d="M66,11.8L66,12.2L64.41715728752538,12.2L62.8,10.58284271247462L62.8,8.91715728752538L64.41715728752538,7.3L66.08284271247462,7.3L69.08284271247462,10.3L79.58284271247462,10.3L81.14142135623732,11.85857864376269L80.85857864376268,12.14142135623731L79.41715728752538,10.7L68.91715728752538,10.7L65.91715728752538,7.7L64.58284271247462,7.7L63.2,9.08284271247462L63.2,10.41715728752538L64.58284271247462,11.8z" stroke="none"/><path d="M67.5,12.2L67.5,11.8L78.08284271247462,11.8L79.58284271247462,13.3L82.41715728752538,13.3L83.8,11.91715728752538L83.8,5.917157287525381L85.41715728752538,4.3L88.58284271247462,4.3L90.2,5.917157287525381L90.2,9.08284271247462L88.58284271247462,10.7L87.08284271247462,10.7L85.58284271247462,12.2L84.08284271247462,12.2L82.58284271247462,13.7L58.417157287525384,13.7L56.917157287525384,12.2L53.917157287525384,12.2L52.35857864376269,10.64142135623731L52.64142135623731,10.35857864376269L54.082842712474616,11.8L57.082842712474616,11.8L58.582842712474616,13.3L82.41715728752538,13.3L83.91715728752538,11.8L85.41715728752538,11.8L86.91715728752538,10.3L88.41715728752538,10.3L89.8,8.91715728752538L89.8,6.082842712474619L88.41715728752538,4.7L85.58284271247462,4.7L84.2,6.082842712474619L84.2,12.08284271247462L82.58284271247462,13.7L79.41715728752538,13.7L77.91715728752538,12.2z" stroke="none"/><path d="M99.14142135623732,7.358578643762691L98.85857864376268,7.641421356237309L97.3,6.082842712474619L97.3,3.082842712474619L95.91715728752538,1.7L82.58284271247462,1.7L79.58284271247462,4.7L78.08284271247462,4.7L76.58284271247462,6.2L75,6.2L75,5.8L76.41715728752538,5.8L77.91715728752538,4.3L79.41715728752538,4.3L82.41715728752538,1.3L96.08284271247462,1.3L97.7,2.917157287525381L97.7,5.917157287525381z" stroke="none"/></svg>