<svg version="1.1" width="105" height="15" xmlns="http://www.w3.org/2000/svg"><path d="M69.08284271247462,10.3L70.58284271247462,11.8L75,11.8L75,12.2L70.41715728752538,12.2L68.91715728752538,10.7L64.7,10.7L64.7,12.08284271247462L63.082842712474616,13.7L61.417157287525384,13.7L59.917157287525384,12.2L58.5,12.2L58.5,11.8L60.082842712474616,11.8L61.582842712474616,13.3L62.917157287525384,13.3L64.3,11.91715728752538L64.3,10.7L61.5,10.7L61.5,10.3z" stroke="none"/><path d="M65.8,4.3L65.8,3.082842712474619L64.41715728752538,1.7L60.082842712474616,1.7L58.7,3.082842712474619L58.7,4.582842712474619L57.082842712474616,6.2L52.582842712474616,6.2L51.14142135623731,7.641421356237309L50.85857864376269,7.358578643762691L52.417157287525384,5.8L56.917157287525384,5.8L58.3,4.417157287525381L58.3,2.917157287525381L59.917157287525384,1.3L64.58284271247462,1.3L66.2,2.917157287525381L66.2,4.417157287525381L67.58284271247462,5.8L80.91715728752538,5.8L82.41715728752538,4.3L88.5,4.3L88.5,4.7L82.58284271247462,4.7L81.08284271247462,6.2L67.41715728752538,6.2L65.91715728752538,4.7L60,4.7L60,4.3z" stroke="none"/><path d="M40.3,8.8L40.3,7.582842712474619L38.917157287525384,6.2L34.582842712474616,6.2L33.082842712474616,7.7L24.08284271247462,7.7L22.58284271247462,9.2L19.5,9.2L19.5,8.8L22.41715728752538,8.8L23.91715728752538,7.3L32.917157287525384,7.3L34.417157287525384,5.8L39.082842712474616,5.8L40.7,7.417157287525381L40.7,8.8L61.417157287525384,8.8L62.917157287525384,7.3L64.5,7.3L64.5,7.7L63.082842712474616,7.7L61.582842712474616,9.2L40.7,9.2L40.7,10.58284271247462L39.082842712474616,12.2L28.5,12.2L28.5,11.8L38.917157287525384,11.8L40.3,10.41715728752538L40.3,9.2L37.5,9.2L37.5,8.8z" stroke="none"/><path d="M25.41715728752538,4.3L26.91715728752538,2.8L28.5,2.8L28.5,3.2L27.08284271247462,3.2L25.982842712474618,4.3L41.917157287525384,4.3L43.417157287525384,2.8L45,2.8L45,3.2L43.582842712474616,3.2L42.082842712474616,4.7L25.58284271247462,4.7L24.08284271247462,6.2L22.58284271247462,6.2L21.08284271247462,7.7L19.5,7.7L19.5,7.3L20.91715728752538,7.3L22.41715728752538,5.8L23.91715728752538,5.8L25.017157287525382,4.7L22.41715728752538,4.7L20.91715728752538,3.2L18.08284271247462,3.2L15.14142135623731,6.141421356237309L14.85857864376269,5.858578643762691L17.91715728752538,2.8L21.08284271247462,2.8L22.58284271247462,4.3z" stroke="none"/><path d="M93,4.7L93,4.3L94.5,4.3L94.5,4.7z" stroke="none"/><path d="M6,3.2L6,2.8L7.5,2.8L7.5,3.2z" stroke="none"/><path d="M30,6.2L30,5.8L31.5,5.8L31.5,6.2z" stroke="none"/><path d="M13.35857864376269,7.358578643762691L13.64142135623731,7.641421356237309L12.14142135623731,9.14142135623731L11.85857864376269,8.85857864376269z" stroke="none"/><path d="M87,10.7L87,10.3L90,10.3L90,10.7z" stroke="none"/><path d="M84,3.2L84,2.8L86.91715728752538,2.8L88.41715728752538,1.3L90.08284271247462,1.3L91.7,2.917157287525381L91.7,4.582842712474619L90.08284271247462,6.2L85.5,6.2L85.5,5.8L89.91715728752538,5.8L91.3,4.417157287525381L91.3,3.082842712474619L89.91715728752538,1.7L88.58284271247462,1.7L87.08284271247462,3.2z" stroke="none"/><path d="M75.14142135623732,10.35857864376269L74.85857864376268,10.64142135623731L71.85857864376268,7.641421356237309L72.14142135623732,7.358578643762691z" stroke="none"/><path d="M19.35857864376269,4.358578643762691L19.64142135623731,4.641421356237309L13.58284271247462,10.7L10.41715728752538,10.7L8.8,9.08284271247462L8.8,7.417157287525381L11.85857864376269,4.358578643762691L12.14142135623731,4.641421356237309L9.2,7.582842712474619L9.2,8.91715728752538L10.58284271247462,10.3L13.41715728752538,10.3z" stroke="none"/><path d="M97.5,5.8L97.5,6.2L93.08284271247462,6.2L91.58284271247462,7.7L90,7.7L90,7.3L91.41715728752538,7.3L92.91715728752538,5.8z" stroke="none"/><path d="M78,4.3L78,4.7L69,4.7L69,4.3z" stroke="none"/><path d="M79.5,10.7L79.5,10.3L82.41715728752538,10.3L83.91715728752538,8.8L86.91715728752538,8.8L88.35857864376268,7.358578643762691L88.64142135623732,7.641421356237309L87.08284271247462,9.2L84.08284271247462,9.2L82.58284271247462,10.7z" stroke="none"/><path d="M102,11.8L102,12.2L95.91715728752538,12.2L94.41715728752538,10.7L92.91715728752538,10.7L91.41715728752538,9.2L90,9.2L90,8.8L91.58284271247462,8.8L93.08284271247462,10.3L94.58284271247462,10.3L96.08284271247462,11.8z" stroke="none"/><path d="M93,11.8L93,12.2L77.91715728752538,12.2L76.3,10.58284271247462L76.3,9.08284271247462L74.85857864376268,7.641421356237309L75.14142135623732,7.358578643762691L76.7,8.91715728752538L76.7,10.41715728752538L78.08284271247462,11.8z" stroke="none"/><path d="M4.3,7.5L4.7,7.5L4.7,8.91715728752538L6.082842712474619,10.3L7.582842712474619,10.3L9.08284271247462,11.8L23.91715728752538,11.8L25.41715728752538,10.3L26.91715728752538,10.3L28.35857864376269,8.85857864376269L28.64142135623731,9.14142135623731L27.08284271247462,10.7L25.58284271247462,10.7L24.08284271247462,12.2L8.91715728752538,12.2L7.417157287525381,10.7L5.917157287525381,10.7L4.3,9.08284271247462z" stroke="none"/><path d="M51,10.3L51,10.7L43.582842712474616,10.7L40.582842712474616,13.7L5.917157287525381,13.7L2.8,10.58284271247462L2.8,9.08284271247462L1.3,7.582842712474619L1.3,5.917157287525381L2.917157287525381,4.3L4.582842712474619,4.3L6.2,5.917157287525381L6.2,7.5L5.8,7.5L5.8,6.082842712474619L4.417157287525381,4.7L3.082842712474619,4.7L1.7,6.082842712474619L1.7,7.417157287525381L3.2,8.91715728752538L3.2,10.41715728752538L6.082842712474619,13.3L40.417157287525384,13.3L43.417157287525384,10.3z" stroke="none"/><path d="M55.5,4.3L55.5,4.7L49.417157287525384,4.7L46.417157287525384,1.7L13.58284271247462,1.7L12.08284271247462,3.2L10.58284271247462,3.2L9.08284271247462,4.7L7.5,4.7L7.5,4.3L8.91715728752538,4.3L10.41715728752538,2.8L11.91715728752538,2.8L13.41715728752538,1.3L46.582842712474616,1.3L49.582842712474616,4.3z" stroke="none"/></svg>