<svg version="1.1" width="105" height="15" xmlns="http://www.w3.org/2000/svg"><path d="M22.5,5.8L22.5,6.2L10.7,6.2L10.7,9L10.3,9L10.3,6.2L6.082842712474619,6.2L4.582842712474619,7.7L3,7.7L3,7.3L4.417157287525381,7.3L5.917157287525381,5.8z" stroke="none"/><path d="M52.417157287525384,4.3L53.917157287525384,2.8L55.5,2.8L55.5,3.2L54.082842712474616,3.2L52.98284271247462,4.3L54.082842712474616,4.3L55.582842712474616,5.8L57.082842712474616,5.8L58.582842712474616,7.3L61.5,7.3L61.5,7.7L58.417157287525384,7.7L56.917157287525384,6.2L55.417157287525384,6.2L53.917157287525384,4.7L49.582842712474616,4.7L48.082842712474616,6.2L44.917157287525384,6.2L41.917157287525384,3.2L40.5,3.2L40.5,2.8L42.082842712474616,2.8L45.082842712474616,5.8L47.917157287525384,5.8L49.417157287525384,4.3z" stroke="none"/><path d="M38.8,5.8L38.8,4.582842712474619L37.417157287525384,3.2L30.08284271247462,3.2L27.08284271247462,6.2L25.58284271247462,6.2L24.08284271247462,7.7L19.5,7.7L19.5,7.3L23.91715728752538,7.3L25.41715728752538,5.8L26.91715728752538,5.8L29.91715728752538,2.8L37.582842712474616,2.8L39.2,4.417157287525381L39.2,5.8L42.082842712474616,5.8L43.582842712474616,7.3L55.582842712474616,7.3L57.082842712474616,8.8L64.41715728752538,8.8L65.91715728752538,7.3L69,7.3L69,7.7L66.08284271247462,7.7L64.58284271247462,9.2L56.917157287525384,9.2L55.417157287525384,7.7L43.417157287525384,7.7L41.917157287525384,6.2L39.2,6.2L39.2,7.582842712474619L37.582842712474616,9.2L35.917157287525384,9.2L34.35857864376269,7.641421356237309L34.64142135623731,7.358578643762691L36.082842712474616,8.8L37.417157287525384,8.8L38.8,7.417157287525381L38.8,6.2L37.417157287525384,6.2L35.917157287525384,4.7L34.5,4.7L34.5,4.3L36.082842712474616,4.3L37.582842712474616,5.8z" stroke="none"/><path d="M77.8,8.8L77.8,7.417157287525381L79.41715728752538,5.8L87.08284271247462,5.8L88.58284271247462,7.3L94.5,7.3L94.5,7.7L88.41715728752538,7.7L86.91715728752538,6.2L79.58284271247462,6.2L78.2,7.582842712474619L78.2,8.8L82.41715728752538,8.8L83.85857864376268,7.358578643762691L84.14142135623732,7.641421356237309L82.58284271247462,9.2L78.2,9.2L78.2,10.58284271247462L76.58284271247462,12.2L67.5,12.2L67.5,11.8L76.41715728752538,11.8L77.8,10.41715728752538L77.8,9.2L67.5,9.2L67.5,8.8z" stroke="none"/><path d="M2.8,4.5L3.2,4.5L3.2,6L2.8,6z" stroke="none"/><path d="M13.35857864376269,7.358578643762691L13.64142135623731,7.641421356237309L12.14142135623731,9.14142135623731L11.85857864376269,8.85857864376269z" stroke="none"/><path d="M46.64142135623731,4.358578643762691L46.35857864376269,4.641421356237309L44.85857864376269,3.1414213562373097L45.14142135623731,2.8585786437626903z" stroke="none"/><path d="M102.2,9L101.8,9L101.8,6L102.2,6z" stroke="none"/><path d="M49.64142135623731,11.85857864376269L49.35857864376269,12.14142135623731L47.917157287525384,10.7L46.5,10.7L46.5,10.3L48.082842712474616,10.3z" stroke="none"/><path d="M96.14142135623732,9.14142135623731L95.85857864376268,8.85857864376269L97.41715728752538,7.3L99,7.3L99,7.7L97.58284271247462,7.7z" stroke="none"/><path d="M15,2.8L15,3.2L10.5,3.2L10.5,2.8z" stroke="none"/><path d="M99,2.8L99,3.2L94.58284271247462,3.2L93.14142135623732,4.641421356237309L92.85857864376268,4.358578643762691L94.41715728752538,2.8z" stroke="none"/><path d="M63,10.3L63,10.7L55.5,10.7L55.5,10.3z" stroke="none"/><path d="M79.5,4.3L79.5,4.7L75.08284271247462,4.7L73.58284271247462,6.2L72,6.2L72,5.8L73.41715728752538,5.8L74.91715728752538,4.3z" stroke="none"/><path d="M24,4.3L24,4.7L15,4.7L15,4.3z" stroke="none"/><path d="M94.5,10.3L94.5,10.7L84,10.7L84,10.3z" stroke="none"/><path d="M72,2.8L72,3.2L60,3.2L60,2.8z" stroke="none"/><path d="M16.35857864376269,7.641421356237309L16.64142135623731,7.358578643762691L18.08284271247462,8.8L21.08284271247462,8.8L24.08284271247462,11.8L28.5,11.8L28.5,12.2L23.91715728752538,12.2L20.91715728752538,9.2L17.91715728752538,9.2z" stroke="none"/><path d="M60.14142135623731,5.858578643762691L59.85857864376269,6.141421356237309L58.3,4.582842712474619L58.3,3.082842712474619L56.917157287525384,1.7L3.082842712474619,1.7L1.7,3.082842712474619L1.7,8.91715728752538L3.082842712474619,10.3L13.58284271247462,10.3L15.08284271247462,11.8L21.08284271247462,11.8L22.58284271247462,13.3L29.91715728752538,13.3L31.3,11.91715728752538L31.3,9L31.7,9L31.7,12.08284271247462L30.08284271247462,13.7L22.41715728752538,13.7L20.91715728752538,12.2L14.91715728752538,12.2L13.41715728752538,10.7L2.917157287525381,10.7L1.3,9.08284271247462L1.3,2.917157287525381L2.917157287525381,1.3L57.082842712474616,1.3L58.7,2.917157287525381L58.7,4.417157287525381z" stroke="none"/><path d="M72,10.3L72,10.7L66.08284271247462,10.7L64.58284271247462,12.2L53.917157287525384,12.2L52.417157287525384,10.7L50.917157287525384,10.7L49.417157287525384,9.2L42.082842712474616,9.2L40.582842712474616,10.7L34.417157287525384,10.7L32.8,9.08284271247462L32.8,7.582842712474619L31.41715728752538,6.2L30.08284271247462,6.2L28.7,7.582842712474619L28.7,8.91715728752538L30.14142135623731,10.35857864376269L29.85857864376269,10.64142135623731L28.3,9.08284271247462L28.3,7.417157287525381L29.91715728752538,5.8L31.58284271247462,5.8L33.2,7.417157287525381L33.2,8.91715728752538L34.582842712474616,10.3L40.417157287525384,10.3L41.917157287525384,8.8L49.582842712474616,8.8L51.082842712474616,10.3L52.582842712474616,10.3L54.082842712474616,11.8L64.41715728752538,11.8L65.91715728752538,10.3z" stroke="none"/></svg>