<svg version="1.1" width="105" height="15" xmlns="http://www.w3.org/2000/svg"><path d="M31.3,4.3L31.3,2.917157287525381L32.917157287525384,1.3L39.082842712474616,1.3L40.64142135623731,2.8585786437626903L40.35857864376269,3.1414213562373097L38.917157287525384,1.7L33.082842712474616,1.7L31.7,3.082842712474619L31.7,4.3L33.082842712474616,4.3L34.582842712474616,5.8L36,5.8L36,6.2L34.417157287525384,6.2L32.917157287525384,4.7L22.58284271247462,4.7L21.14142135623731,6.141421356237309L20.85857864376269,5.858578643762691L22.41715728752538,4.3z" stroke="none"/><path d="M45,10.3L45,10.7L39.2,10.7L39.2,11.91715728752538L40.582842712474616,13.3L46.417157287525384,13.3L49.417157287525384,10.3L52.5,10.3L52.5,10.7L49.582842712474616,10.7L46.582842712474616,13.7L40.417157287525384,13.7L38.8,12.08284271247462L38.8,10.7L24.08284271247462,10.7L22.64142135623731,12.14142135623731L22.35857864376269,11.85857864376269L23.91715728752538,10.3z" stroke="none"/><path d="M56.8,8.8L56.8,7.582842712474619L55.417157287525384,6.2L54.082842712474616,6.2L52.64142135623731,7.641421356237309L52.35857864376269,7.358578643762691L53.917157287525384,5.8L55.582842712474616,5.8L57.2,7.417157287525381L57.2,8.8L66,8.8L66,9.2L57.48284271247462,9.2L58.582842712474616,10.3L60,10.3L60,10.7L58.417157287525384,10.7L56.917157287525384,9.2L52.5,9.2L52.5,8.8z" stroke="none"/><path d="M86.8,5.8L86.8,4.582842712474619L85.41715728752538,3.2L81.08284271247462,3.2L79.7,4.582842712474619L79.7,7.582842712474619L78.14142135623732,9.14142135623731L77.85857864376268,8.85857864376269L79.3,7.417157287525381L79.3,4.417157287525381L80.91715728752538,2.8L85.58284271247462,2.8L87.2,4.417157287525381L87.2,5.8L91.58284271247462,5.8L94.58284271247462,8.8L97.5,8.8L97.5,9.2L94.41715728752538,9.2L91.41715728752538,6.2L87.2,6.2L87.2,7.417157287525381L88.64142135623732,8.85857864376269L88.35857864376268,9.14142135623731L86.8,7.582842712474619L86.8,6.2L83.91715728752538,6.2L82.35857864376268,4.641421356237309L82.64142135623732,4.358578643762691L84.08284271247462,5.8z" stroke="none"/><path d="M6,5.8L6,6.2L4.5,6.2L4.5,5.8z" stroke="none"/><path d="M45,4.3L45,4.7L43.5,4.7L43.5,4.3z" stroke="none"/><path d="M6.141421356237309,4.358578643762691L5.858578643762691,4.641421356237309L4.358578643762691,3.1414213562373097L4.641421356237309,2.8585786437626903z" stroke="none"/><path d="M60,3.2L60,2.8L63,2.8L63,3.2z" stroke="none"/><path d="M71.8,7.5L72.2,7.5L72.2,10.5L71.8,10.5z" stroke="none"/><path d="M10.5,9.2L10.5,8.8L12.08284271247462,8.8L13.7,10.41715728752538L13.7,12.08284271247462L12.08284271247462,13.7L10.41715728752538,13.7L8.85857864376269,12.14142135623731L9.14142135623731,11.85857864376269L10.58284271247462,13.3L11.91715728752538,13.3L13.3,11.91715728752538L13.3,10.58284271247462L11.91715728752538,9.2z" stroke="none"/><path d="M7.641421356237309,11.85857864376269L7.358578643762691,12.14142135623731L4.358578643762691,9.14142135623731L4.641421356237309,8.85857864376269z" stroke="none"/><path d="M93,12.2L93,11.8L97.41715728752538,11.8L98.91715728752538,10.3L100.5,10.3L100.5,10.7L99.08284271247462,10.7L97.58284271247462,12.2z" stroke="none"/><path d="M3,7.7L3,7.3L6.082842712474619,7.3L9.08284271247462,10.3L10.5,10.3L10.5,10.7L8.91715728752538,10.7L5.917157287525381,7.7z" stroke="none"/><path d="M7.5,3.2L7.5,2.8L10.58284271247462,2.8L12.08284271247462,4.3L13.58284271247462,4.3L16.64142135623731,7.358578643762691L16.35857864376269,7.641421356237309L13.41715728752538,4.7L11.91715728752538,4.7L10.41715728752538,3.2z" stroke="none"/><path d="M87,11.8L87,12.2L76.5,12.2L76.5,11.8z" stroke="none"/><path d="M82.35857864376268,7.358578643762691L82.64142135623732,7.641421356237309L79.58284271247462,10.7L76.41715728752538,10.7L74.8,9.08284271247462L74.8,6.082842712474619L73.41715728752538,4.7L64.5,4.7L64.5,4.3L73.58284271247462,4.3L75.2,5.917157287525381L75.2,8.91715728752538L76.58284271247462,10.3L79.41715728752538,10.3z" stroke="none"/><path d="M54,10.7L54,10.3L55.582842712474616,10.3L57.082842712474616,11.8L64.58284271247462,11.8L66.08284271247462,13.3L71.91715728752538,13.3L73.3,11.91715728752538L73.3,7.5L73.7,7.5L73.7,12.08284271247462L72.08284271247462,13.7L65.91715728752538,13.7L64.41715728752538,12.2L56.917157287525384,12.2L55.417157287525384,10.7z" stroke="none"/><path d="M83.85857864376268,7.641421356237309L84.14142135623732,7.358578643762691L87.08284271247462,10.3L88.58284271247462,10.3L91.58284271247462,13.3L100.41715728752538,13.3L101.8,11.91715728752538L101.8,9.08284271247462L100.41715728752538,7.7L98.91715728752538,7.7L95.91715728752538,4.7L94.41715728752538,4.7L91.41715728752538,1.7L58.582842712474616,1.7L57.082842712474616,3.2L55.5,3.2L55.5,2.8L56.917157287525384,2.8L58.417157287525384,1.3L91.58284271247462,1.3L94.58284271247462,4.3L96.08284271247462,4.3L99.08284271247462,7.3L100.58284271247462,7.3L102.2,8.91715728752538L102.2,12.08284271247462L100.58284271247462,13.7L91.41715728752538,13.7L88.41715728752538,10.7L86.91715728752538,10.7z" stroke="none"/><path d="M21,9.2L21,8.8L38.917157287525384,8.8L40.417157287525384,7.3L43.417157287525384,7.3L44.917157287525384,5.8L51,5.8L51,6.2L45.082842712474616,6.2L43.582842712474616,7.7L40.582842712474616,7.7L39.082842712474616,9.2z" stroke="none"/><path d="M61.5,10.7L61.5,10.3L67.41715728752538,10.3L68.8,8.91715728752538L68.8,7.582842712474619L67.41715728752538,6.2L58.417157287525384,6.2L56.917157287525384,4.7L49.417157287525384,4.7L46.417157287525384,1.7L43.582842712474616,1.7L42.2,3.082842712474619L42.2,4.582842712474619L40.582842712474616,6.2L39.082842712474616,6.2L37.582842712474616,7.7L19.58284271247462,7.7L18.08284271247462,9.2L14.91715728752538,9.2L11.85857864376269,6.141421356237309L12.14142135623731,5.858578643762691L15.08284271247462,8.8L17.91715728752538,8.8L19.41715728752538,7.3L37.417157287525384,7.3L38.917157287525384,5.8L40.417157287525384,5.8L41.8,4.417157287525381L41.8,2.917157287525381L43.417157287525384,1.3L46.582842712474616,1.3L49.582842712474616,4.3L57.082842712474616,4.3L58.582842712474616,5.8L67.58284271247462,5.8L69.2,7.417157287525381L69.2,9.08284271247462L67.58284271247462,10.7z" stroke="none"/></svg>