<svg version="1.1" width="105" height="15" xmlns="http://www.w3.org/2000/svg"><path d="M81.08284271247462,7.3L85.58284271247462,7.3L87.08284271247462,8.8L88.58284271247462,8.8L90.14142135623732,10.35857864376269L89.85857864376268,10.64142135623731L88.41715728752538,9.2L86.91715728752538,9.2L85.41715728752538,7.7L81.48284271247462,7.7L82.58284271247462,8.8L84,8.8L84,9.2L82.41715728752538,9.2L77.8,4.582842712474619L77.8,3.082842712474619L76.41715728752538,1.7L75.08284271247462,1.7L72.2,4.582842712474619L72.2,6L71.8,6L71.8,4.417157287525381L74.91715728752538,1.3L76.58284271247462,1.3L78.2,2.917157287525381L78.2,4.417157287525381z" stroke="none"/><path d="M71.91715728752538,8.8L73.3,7.417157287525381L73.3,6L73.7,6L73.7,7.582842712474619L72.08284271247462,9.2L70.7,9.2L70.7,10.41715728752538L72.08284271247462,11.8L91.41715728752538,11.8L92.85857864376268,10.35857864376269L93.14142135623732,10.64142135623731L91.58284271247462,12.2L71.91715728752538,12.2L70.3,10.58284271247462L70.3,9.2L69.08284271247462,9.2L67.58284271247462,10.7L45,10.7L45,10.3L67.41715728752538,10.3L68.91715728752538,8.8z" stroke="none"/><path d="M53.8,4.3L53.8,2.917157287525381L55.417157287525384,1.3L57.082842712474616,1.3L58.582842712474616,2.8L60.082842712474616,2.8L61.582842712474616,4.3L70.5,4.3L70.5,4.7L61.417157287525384,4.7L59.917157287525384,3.2L58.417157287525384,3.2L56.917157287525384,1.7L55.582842712474616,1.7L54.2,3.082842712474619L54.2,4.3L58.582842712474616,4.3L60.082842712474616,5.8L63.082842712474616,5.8L66.14142135623732,8.85857864376269L65.85857864376268,9.14142135623731L62.917157287525384,6.2L59.917157287525384,6.2L58.417157287525384,4.7L54.082842712474616,4.7L52.582842712474616,6.2L51,6.2L51,5.8L52.417157287525384,5.8L53.51715728752538,4.7L32.917157287525384,4.7L31.41715728752538,3.2L28.58284271247462,3.2L27.14142135623731,4.641421356237309L26.85857864376269,4.358578643762691L28.41715728752538,2.8L31.58284271247462,2.8L33.082842712474616,4.3z" stroke="none"/><path d="M25.41715728752538,2.8L26.91715728752538,1.3L48.082842712474616,1.3L49.582842712474616,2.8L51,2.8L51,3.2L49.417157287525384,3.2L47.917157287525384,1.7L27.08284271247462,1.7L25.58284271247462,3.2L22.7,3.2L22.7,6.082842712474619L21.08284271247462,7.7L16.41715728752538,7.7L14.91715728752538,6.2L8.91715728752538,6.2L7.3,4.582842712474619L7.3,3L7.7,3L7.7,4.417157287525381L9.08284271247462,5.8L15.08284271247462,5.8L16.58284271247462,7.3L20.91715728752538,7.3L22.3,5.917157287525381L22.3,3.482842712474619L19.64142135623731,6.141421356237309L19.35857864376269,5.858578643762691L22.017157287525382,3.2L13.5,3.2L13.5,2.8z" stroke="none"/><path d="M18,4.3L18,4.7L16.5,4.7L16.5,4.3z" stroke="none"/><path d="M18.14142135623731,12.14142135623731L17.85857864376269,11.85857864376269L19.35857864376269,10.35857864376269L19.64142135623731,10.64142135623731z" stroke="none"/><path d="M58.64142135623731,9.14142135623731L58.35857864376269,8.85857864376269L59.917157287525384,7.3L61.5,7.3L61.5,7.7L60.082842712474616,7.7z" stroke="none"/><path d="M9,12.2L9,11.8L13.5,11.8L13.5,12.2z" stroke="none"/><path d="M76.3,4.5L76.7,4.5L76.7,9L76.3,9z" stroke="none"/><path d="M82.5,10.3L82.5,10.7L80.91715728752538,10.7L79.41715728752538,9.2L78,9.2L78,8.8L79.58284271247462,8.8L81.08284271247462,10.3z" stroke="none"/><path d="M96.14142135623732,12.14142135623731L95.85857864376268,11.85857864376269L97.3,10.41715728752538L97.3,9.08284271247462L95.91715728752538,7.7L93,7.7L93,7.3L96.08284271247462,7.3L97.7,8.91715728752538L97.7,10.58284271247462z" stroke="none"/><path d="M25.5,12.2L25.5,11.8L26.91715728752538,11.8L29.91715728752538,8.8L31.5,8.8L31.5,9.2L30.08284271247462,9.2L27.08284271247462,12.2z" stroke="none"/><path d="M4.5,7.7L4.5,7.3L9.08284271247462,7.3L10.58284271247462,8.8L12,8.8L12,9.2L10.41715728752538,9.2L8.91715728752538,7.7z" stroke="none"/><path d="M3.2,9L2.8,9L2.8,4.417157287525381L5.917157287525381,1.3L9.08284271247462,1.3L10.7,2.917157287525381L10.7,4.5L10.3,4.5L10.3,3.082842712474619L8.91715728752538,1.7L6.082842712474619,1.7L3.2,4.582842712474619z" stroke="none"/><path d="M86.85857864376268,4.641421356237309L87.14142135623732,4.358578643762691L91.58284271247462,8.8L94.5,8.8L94.5,9.2L91.41715728752538,9.2z" stroke="none"/><path d="M13.35857864376269,7.641421356237309L13.64142135623731,7.358578643762691L15.08284271247462,8.8L23.91715728752538,8.8L25.41715728752538,7.3L33,7.3L33,7.7L25.58284271247462,7.7L24.08284271247462,9.2L14.91715728752538,9.2z" stroke="none"/><path d="M99.14142135623732,7.358578643762691L98.85857864376268,7.641421356237309L97.41715728752538,6.2L94.41715728752538,6.2L91.41715728752538,3.2L79.5,3.2L79.5,2.8L91.58284271247462,2.8L94.58284271247462,5.8L97.58284271247462,5.8z" stroke="none"/><path d="M29.85857864376269,4.641421356237309L30.14142135623731,4.358578643762691L31.58284271247462,5.8L48.082842712474616,5.8L49.582842712474616,7.3L54,7.3L54,7.7L49.417157287525384,7.7L47.917157287525384,6.2L31.41715728752538,6.2z" stroke="none"/><path d="M16.64142135623731,11.85857864376269L16.35857864376269,12.14142135623731L14.91715728752538,10.7L8.91715728752538,10.7L7.417157287525381,9.2L6.082842712474619,9.2L4.7,10.58284271247462L4.7,11.91715728752538L6.082842712474619,13.3L34.417157287525384,13.3L35.917157287525384,11.8L40.417157287525384,11.8L44.917157287525384,7.3L46.5,7.3L46.5,7.7L45.082842712474616,7.7L40.582842712474616,12.2L36.082842712474616,12.2L34.582842712474616,13.7L5.917157287525381,13.7L4.3,12.08284271247462L4.3,10.41715728752538L5.917157287525381,8.8L7.582842712474619,8.8L9.08284271247462,10.3L15.08284271247462,10.3z" stroke="none"/><path d="M54,12.2L54,11.8L67.58284271247462,11.8L69.08284271247462,13.3L92.91715728752538,13.3L94.3,11.91715728752538L94.3,10.5L94.7,10.5L94.7,12.08284271247462L93.08284271247462,13.7L68.91715728752538,13.7L67.41715728752538,12.2z" stroke="none"/></svg>