<svg version="1.1" width="105" height="15" xmlns="http://www.w3.org/2000/svg"><path d="M30,8.8L30,9.2L27.2,9.2L27.2,10.58284271247462L25.64142135623731,12.14142135623731L25.35857864376269,11.85857864376269L26.8,10.41715728752538L26.8,9.2L24.08284271247462,9.2L22.7,10.58284271247462L22.7,11.91715728752538L24.08284271247462,13.3L28.41715728752538,13.3L29.85857864376269,11.85857864376269L30.14142135623731,12.14142135623731L28.58284271247462,13.7L23.91715728752538,13.7L22.3,12.08284271247462L22.3,10.41715728752538L23.91715728752538,8.8z" stroke="none"/><path d="M85.58284271247462,8.8L99,8.8L99,9.2L85.58284271247462,9.2L84.08284271247462,10.7L79.5,10.7L79.5,10.3L83.91715728752538,10.3L85.21715728752538,9L83.91715728752538,7.7L75,7.7L75,7.3L84.08284271247462,7.3z" stroke="none"/><path d="M76.3,4.3L76.3,2.917157287525381L77.91715728752538,1.3L90.08284271247462,1.3L91.7,2.917157287525381L91.7,4.5L91.3,4.5L91.3,3.082842712474619L89.91715728752538,1.7L78.08284271247462,1.7L76.7,3.082842712474619L76.7,4.3L82.58284271247462,4.3L84.08284271247462,5.8L85.5,5.8L85.5,6.2L83.91715728752538,6.2L82.41715728752538,4.7L76.58284271247462,4.7L75.08284271247462,6.2L73.5,6.2L73.5,5.8L74.91715728752538,5.8L76.01715728752538,4.7L63.082842712474616,4.7L61.582842712474616,6.2L58.5,6.2L58.5,5.8L61.417157287525384,5.8L62.917157287525384,4.3z" stroke="none"/><path d="M32.8,7.3L32.8,5.917157287525381L34.417157287525384,4.3L42.082842712474616,4.3L45.082842712474616,7.3L48,7.3L48,7.7L44.917157287525384,7.7L41.917157287525384,4.7L34.582842712474616,4.7L33.2,6.082842712474619L33.2,7.3L34.582842712474616,7.3L37.582842712474616,10.3L39.082842712474616,10.3L40.582842712474616,11.8L42,11.8L42,12.2L40.417157287525384,12.2L38.917157287525384,10.7L37.417157287525384,10.7L34.417157287525384,7.7L33.2,7.7L33.2,9.08284271247462L31.58284271247462,10.7L30,10.7L30,10.3L31.41715728752538,10.3L32.8,8.91715728752538L32.8,7.7L10.58284271247462,7.7L7.641421356237309,10.64142135623731L7.358578643762691,10.35857864376269L10.41715728752538,7.3z" stroke="none"/><path d="M69,2.8L69,3.2L67.5,3.2L67.5,2.8z" stroke="none"/><path d="M60.14142135623731,4.358578643762691L59.85857864376269,4.641421356237309L58.35857864376269,3.1414213562373097L58.64142135623731,2.8585786437626903z" stroke="none"/><path d="M6,3.2L6,2.8L9,2.8L9,3.2z" stroke="none"/><path d="M91.64142135623732,12.14142135623731L91.35857864376268,11.85857864376269L92.91715728752538,10.3L94.5,10.3L94.5,10.7L93.08284271247462,10.7z" stroke="none"/><path d="M55.7,9L55.3,9L55.3,7.417157287525381L56.85857864376269,5.858578643762691L57.14142135623731,6.141421356237309L55.7,7.582842712474619z" stroke="none"/><path d="M31.5,3.2L31.5,2.8L36,2.8L36,3.2z" stroke="none"/><path d="M94.35857864376268,5.858578643762691L94.64142135623732,6.141421356237309L93.08284271247462,7.7L91.41715728752538,7.7L89.8,6.082842712474619L89.8,4.5L90.2,4.5L90.2,5.917157287525381L91.58284271247462,7.3L92.91715728752538,7.3z" stroke="none"/><path d="M16.64142135623731,11.85857864376269L16.35857864376269,12.14142135623731L14.91715728752538,10.7L13.41715728752538,10.7L11.85857864376269,9.14142135623731L12.14142135623731,8.85857864376269L13.58284271247462,10.3L15.08284271247462,10.3z" stroke="none"/><path d="M73.64142135623732,8.85857864376269L73.35857864376268,9.14142135623731L71.91715728752538,7.7L68.91715728752538,7.7L67.35857864376268,6.141421356237309L67.64142135623732,5.858578643762691L69.08284271247462,7.3L72.08284271247462,7.3z" stroke="none"/><path d="M4.5,4.7L4.5,4.3L12.08284271247462,4.3L13.58284271247462,5.8L15,5.8L15,6.2L13.41715728752538,6.2L11.91715728752538,4.7z" stroke="none"/><path d="M49.5,10.3L49.5,10.7L47.917157287525384,10.7L46.417157287525384,9.2L43.417157287525384,9.2L40.417157287525384,6.2L39,6.2L39,5.8L40.582842712474616,5.8L43.582842712474616,8.8L46.582842712474616,8.8L48.082842712474616,10.3z" stroke="none"/><path d="M49.7,7.5L49.3,7.5L49.3,6.082842712474619L47.917157287525384,4.7L46.417157287525384,4.7L44.917157287525384,3.2L39,3.2L39,2.8L45.082842712474616,2.8L46.582842712474616,4.3L48.082842712474616,4.3L49.7,5.917157287525381z" stroke="none"/><path d="M19.3,9L19.7,9L19.7,12.08284271247462L18.08284271247462,13.7L10.41715728752538,13.7L8.91715728752538,12.2L5.917157287525381,12.2L4.3,10.58284271247462L4.3,9.08284271247462L2.8,7.582842712474619L2.8,2.917157287525381L4.417157287525381,1.3L48.082842712474616,1.3L51.2,4.417157287525381L51.2,12.08284271247462L49.582842712474616,13.7L38.917157287525384,13.7L37.417157287525384,12.2L35.917157287525384,12.2L34.35857864376269,10.64142135623731L34.64142135623731,10.35857864376269L36.082842712474616,11.8L37.582842712474616,11.8L39.082842712474616,13.3L49.417157287525384,13.3L50.8,11.91715728752538L50.8,4.582842712474619L47.917157287525384,1.7L4.582842712474619,1.7L3.2,3.082842712474619L3.2,7.417157287525381L4.7,8.91715728752538L4.7,10.41715728752538L6.082842712474619,11.8L9.08284271247462,11.8L10.58284271247462,13.3L17.91715728752538,13.3L19.3,11.91715728752538z" stroke="none"/><path d="M84,11.8L84,12.2L65.91715728752538,12.2L64.35857864376268,10.64142135623731L64.64142135623732,10.35857864376269L66.08284271247462,11.8z" stroke="none"/><path d="M54,10.7L54,10.3L59.917157287525384,10.3L61.417157287525384,8.8L66.08284271247462,8.8L67.58284271247462,10.3L76.41715728752538,10.3L77.91715728752538,8.8L82.5,8.8L82.5,9.2L78.08284271247462,9.2L76.58284271247462,10.7L67.41715728752538,10.7L65.91715728752538,9.2L61.582842712474616,9.2L60.082842712474616,10.7z" stroke="none"/><path d="M101.85857864376268,7.358578643762691L102.14142135623732,7.641421356237309L100.7,9.08284271247462L100.7,10.58284271247462L99.08284271247462,12.2L97.58284271247462,12.2L96.08284271247462,13.7L53.917157287525384,13.7L52.3,12.08284271247462L52.3,7.417157287525381L53.85857864376269,5.858578643762691L54.14142135623731,6.141421356237309L52.7,7.582842712474619L52.7,11.91715728752538L54.082842712474616,13.3L95.91715728752538,13.3L97.41715728752538,11.8L98.91715728752538,11.8L100.3,10.41715728752538L100.3,8.91715728752538z" stroke="none"/></svg>