<svg version="1.1" width="105" height="15" xmlns="http://www.w3.org/2000/svg"><path d="M99,2.8L99,3.2L72.2,3.2L72.2,4.582842712474619L70.58284271247462,6.2L56.917157287525384,6.2L55.417157287525384,4.7L53.917157287525384,4.7L52.417157287525384,3.2L51,3.2L51,2.8L52.582842712474616,2.8L54.082842712474616,4.3L55.582842712474616,4.3L57.082842712474616,5.8L70.41715728752538,5.8L71.8,4.417157287525381L71.8,3.2L66,3.2L66,2.8z" stroke="none"/><path d="M11.91715728752538,2.8L22.5,2.8L22.5,3.2L12.2,3.2L12.2,6.082842712474619L10.58284271247462,7.7L5.917157287525381,7.7L4.3,6.082842712474619L4.3,4.5L4.7,4.5L4.7,5.917157287525381L6.082842712474619,7.3L10.41715728752538,7.3L11.8,5.917157287525381L11.8,3.482842712474619L10.58284271247462,4.7L5.917157287525381,4.7L4.358578643762691,3.1414213562373097L4.641421356237309,2.8585786437626903L6.082842712474619,4.3L10.41715728752538,4.3z" stroke="none"/><path d="M49.3,5.8L49.3,4.582842712474619L47.917157287525384,3.2L42.082842712474616,3.2L39.2,6.082842712474619L39.2,7.582842712474619L37.64142135623731,9.14142135623731L37.35857864376269,8.85857864376269L38.8,7.417157287525381L38.8,5.917157287525381L41.917157287525384,2.8L48.082842712474616,2.8L49.7,4.417157287525381L49.7,5.8L54.082842712474616,5.8L55.582842712474616,7.3L58.582842712474616,7.3L60.082842712474616,8.8L72,8.8L72,9.2L59.917157287525384,9.2L58.417157287525384,7.7L55.417157287525384,7.7L53.917157287525384,6.2L49.7,6.2L49.7,7.582842712474619L48.14142135623731,9.14142135623731L47.85857864376269,8.85857864376269L49.3,7.417157287525381L49.3,6.2L47.917157287525384,6.2L46.417157287525384,4.7L43.5,4.7L43.5,4.3L46.582842712474616,4.3L48.082842712474616,5.8z" stroke="none"/><path d="M26.8,4.3L26.8,3.082842712474619L25.41715728752538,1.7L12.08284271247462,1.7L10.58284271247462,3.2L9,3.2L9,2.8L10.41715728752538,2.8L11.91715728752538,1.3L25.58284271247462,1.3L27.2,2.917157287525381L27.2,4.3L37.5,4.3L37.5,4.7L27.2,4.7L27.2,5.917157287525381L28.58284271247462,7.3L31.58284271247462,7.3L33.082842712474616,8.8L34.582842712474616,8.8L36.082842712474616,10.3L38.917157287525384,10.3L43.417157287525384,5.8L45,5.8L45,6.2L43.582842712474616,6.2L39.082842712474616,10.7L35.917157287525384,10.7L34.417157287525384,9.2L32.917157287525384,9.2L31.41715728752538,7.7L28.41715728752538,7.7L26.8,6.082842712474619L26.8,4.7L18,4.7L18,4.3z" stroke="none"/><path d="M27,12.2L27,11.8L28.5,11.8L28.5,12.2z" stroke="none"/><path d="M3.2,9L2.8,9L2.8,7.5L3.2,7.5z" stroke="none"/><path d="M96.14142135623732,8.85857864376269L95.85857864376268,9.14142135623731L94.35857864376268,7.641421356237309L94.64142135623732,7.358578643762691z" stroke="none"/><path d="M61.5,12.2L61.5,11.8L64.5,11.8L64.5,12.2z" stroke="none"/><path d="M79.5,12.2L79.5,11.8L80.91715728752538,11.8L82.3,10.41715728752538L82.3,9.08284271247462L80.91715728752538,7.7L79.58284271247462,7.7L78.14142135623732,9.14142135623731L77.85857864376268,8.85857864376269L79.41715728752538,7.3L81.08284271247462,7.3L82.7,8.91715728752538L82.7,10.58284271247462L81.08284271247462,12.2z" stroke="none"/><path d="M58.64142135623731,4.358578643762691L58.35857864376269,4.641421356237309L56.917157287525384,3.2L55.5,3.2L55.5,2.8L57.082842712474616,2.8z" stroke="none"/><path d="M14.85857864376269,8.85857864376269L15.14142135623731,9.14142135623731L13.58284271247462,10.7L12,10.7L12,10.3L13.41715728752538,10.3z" stroke="none"/><path d="M90,12.2L90,11.8L91.41715728752538,11.8L92.8,10.41715728752538L92.8,9.08284271247462L91.41715728752538,7.7L90,7.7L90,7.3L91.58284271247462,7.3L93.2,8.91715728752538L93.2,10.58284271247462L91.58284271247462,12.2z" stroke="none"/><path d="M51,11.8L51,12.2L47.917157287525384,12.2L46.3,10.58284271247462L46.3,9L46.7,9L46.7,10.41715728752538L48.082842712474616,11.8z" stroke="none"/><path d="M75,7.7L75,7.3L76.41715728752538,7.3L77.91715728752538,5.8L82.58284271247462,5.8L85.58284271247462,8.8L87,8.8L87,9.2L85.41715728752538,9.2L82.41715728752538,6.2L78.08284271247462,6.2L76.58284271247462,7.7z" stroke="none"/><path d="M79.5,10.3L79.5,10.7L70.58284271247462,10.7L69.08284271247462,12.2L66,12.2L66,11.8L68.91715728752538,11.8L70.41715728752538,10.3z" stroke="none"/><path d="M9,12.2L9,11.8L17.91715728752538,11.8L20.91715728752538,8.8L22.5,8.8L22.5,9.2L21.08284271247462,9.2L18.08284271247462,12.2z" stroke="none"/><path d="M55.5,11.8L55.5,12.2L54.082842712474616,12.2L52.582842712474616,13.7L44.917157287525384,13.7L43.417157287525384,12.2L34.417157287525384,12.2L32.85857864376269,10.64142135623731L33.14142135623731,10.35857864376269L34.582842712474616,11.8L43.582842712474616,11.8L45.082842712474616,13.3L52.417157287525384,13.3L53.917157287525384,11.8z" stroke="none"/><path d="M90.14142135623732,10.35857864376269L89.85857864376268,10.64142135623731L88.3,9.08284271247462L88.3,7.582842712474619L86.91715728752538,6.2L85.41715728752538,6.2L83.91715728752538,4.7L76.58284271247462,4.7L75.08284271247462,6.2L73.58284271247462,6.2L72.08284271247462,7.7L63,7.7L63,7.3L71.91715728752538,7.3L73.41715728752538,5.8L74.91715728752538,5.8L76.41715728752538,4.3L84.08284271247462,4.3L85.58284271247462,5.8L87.08284271247462,5.8L88.7,7.417157287525381L88.7,8.91715728752538z" stroke="none"/><path d="M88.5,11.8L88.5,12.2L84.08284271247462,12.2L82.58284271247462,13.7L59.917157287525384,13.7L56.917157287525384,10.7L55.417157287525384,10.7L53.917157287525384,9.2L51,9.2L51,8.8L54.082842712474616,8.8L55.582842712474616,10.3L57.082842712474616,10.3L60.082842712474616,13.3L82.41715728752538,13.3L83.91715728752538,11.8z" stroke="none"/><path d="M100.35857864376268,4.358578643762691L100.64142135623732,4.641421356237309L99.2,6.082842712474619L99.2,7.417157287525381L100.58284271247462,8.8L101.91715728752538,8.8L103.3,7.417157287525381L103.3,6.082842712474619L101.8,4.582842712474619L101.8,3.082842712474619L100.41715728752538,1.7L64.58284271247462,1.7L61.64142135623731,4.641421356237309L61.35857864376269,4.358578643762691L64.41715728752538,1.3L100.58284271247462,1.3L102.2,2.917157287525381L102.2,4.417157287525381L103.7,5.917157287525381L103.7,7.582842712474619L102.08284271247462,9.2L100.41715728752538,9.2L98.8,7.582842712474619L98.8,5.917157287525381z" stroke="none"/></svg>