<svg version="1.1" width="105" height="15" xmlns="http://www.w3.org/2000/svg"><path d="M28.58284271247462,10.3L30.14142135623731,11.85857864376269L29.85857864376269,12.14142135623731L28.41715728752538,10.7L19.7,10.7L19.7,12.08284271247462L18.08284271247462,13.7L11.91715728752538,13.7L10.35857864376269,12.14142135623731L10.64142135623731,11.85857864376269L12.08284271247462,13.3L17.91715728752538,13.3L19.3,11.91715728752538L19.3,10.7L16.5,10.7L16.5,10.3z" stroke="none"/><path d="M16.58284271247462,4.3L18.08284271247462,5.8L23.91715728752538,5.8L25.41715728752538,4.3L27,4.3L27,4.7L25.58284271247462,4.7L24.08284271247462,6.2L17.91715728752538,6.2L16.5,4.782842712474619L13.64142135623731,7.641421356237309L13.35857864376269,7.358578643762691L16.017157287525382,4.7L12,4.7L12,4.3z" stroke="none"/><path d="M63.082842712474616,8.8L68.91715728752538,8.8L70.41715728752538,7.3L73.5,7.3L73.5,7.7L70.58284271247462,7.7L69.08284271247462,9.2L63.48284271247462,9.2L64.58284271247462,10.3L66.08284271247462,10.3L67.58284271247462,11.8L69,11.8L69,12.2L67.41715728752538,12.2L65.91715728752538,10.7L64.41715728752538,10.7L62.917157287525384,9.2L42,9.2L42,8.8L62.51715728752538,8.8L61.417157287525384,7.7L60,7.7L60,7.3L61.582842712474616,7.3z" stroke="none"/><path d="M40.3,4.3L40.3,3.082842712474619L38.917157287525384,1.7L33.082842712474616,1.7L31.58284271247462,3.2L22.5,3.2L22.5,2.8L31.41715728752538,2.8L32.917157287525384,1.3L39.082842712474616,1.3L40.7,2.917157287525381L40.7,4.3L55.5,4.3L55.5,4.7L40.7,4.7L40.7,5.917157287525381L42.082842712474616,7.3L58.5,7.3L58.5,7.7L41.917157287525384,7.7L40.3,6.082842712474619L40.3,4.7L36.082842712474616,4.7L34.582842712474616,6.2L27,6.2L27,5.8L34.417157287525384,5.8L35.917157287525384,4.3z" stroke="none"/><path d="M93,8.8L93,9.2L91.5,9.2L91.5,8.8z" stroke="none"/><path d="M21.14142135623731,4.358578643762691L20.85857864376269,4.641421356237309L19.35857864376269,3.1414213562373097L19.64142135623731,2.8585786437626903z" stroke="none"/><path d="M101.8,3L102.2,3L102.2,6L101.8,6z" stroke="none"/><path d="M4.641421356237309,4.641421356237309L4.358578643762691,4.358578643762691L5.917157287525381,2.8L7.5,2.8L7.5,3.2L6.082842712474619,3.2z" stroke="none"/><path d="M88.5,6.2L88.5,5.8L93,5.8L93,6.2z" stroke="none"/><path d="M9,7.3L9,7.7L4.417157287525381,7.7L2.8,6.082842712474619L2.8,4.5L3.2,4.5L3.2,5.917157287525381L4.582842712474619,7.3z" stroke="none"/><path d="M63,3.2L63,2.8L64.58284271247462,2.8L67.58284271247462,5.8L69,5.8L69,6.2L67.41715728752538,6.2L64.41715728752538,3.2z" stroke="none"/><path d="M78,6.2L78,5.8L85.5,5.8L85.5,6.2z" stroke="none"/><path d="M48,12.2L48,11.8L50.917157287525384,11.8L52.417157287525384,10.3L55.5,10.3L55.5,10.7L52.582842712474616,10.7L51.082842712474616,12.2z" stroke="none"/><path d="M46.5,11.8L46.5,12.2L43.417157287525384,12.2L41.917157287525384,10.7L40.417157287525384,10.7L37.417157287525384,7.7L31.5,7.7L31.5,7.3L37.582842712474616,7.3L40.582842712474616,10.3L42.082842712474616,10.3L43.582842712474616,11.8z" stroke="none"/><path d="M78,4.7L78,4.3L94.58284271247462,4.3L96.2,5.917157287525381L96.2,7.582842712474619L94.64142135623732,9.14142135623731L94.35857864376268,8.85857864376269L95.8,7.417157287525381L95.8,6.082842712474619L94.41715728752538,4.7z" stroke="none"/><path d="M3,10.7L3,10.3L10.41715728752538,10.3L11.91715728752538,8.8L22.5,8.8L22.5,9.2L12.08284271247462,9.2L10.58284271247462,10.7z" stroke="none"/><path d="M74.85857864376268,6.141421356237309L75.14142135623732,5.858578643762691L79.58284271247462,10.3L81.08284271247462,10.3L82.58284271247462,11.8L97.41715728752538,11.8L98.91715728752538,10.3L100.5,10.3L100.5,10.7L99.08284271247462,10.7L97.58284271247462,12.2L82.41715728752538,12.2L80.91715728752538,10.7L79.41715728752538,10.7z" stroke="none"/><path d="M60,11.8L60,12.2L58.582842712474616,12.2L57.082842712474616,13.7L35.917157287525384,13.7L34.417157287525384,12.2L32.917157287525384,12.2L29.91715728752538,9.2L28.5,9.2L28.5,8.8L30.08284271247462,8.8L33.082842712474616,11.8L34.582842712474616,11.8L36.082842712474616,13.3L56.917157287525384,13.3L58.417157287525384,11.8z" stroke="none"/><path d="M93,10.7L93,10.3L95.91715728752538,10.3L98.91715728752538,7.3L100.58284271247462,7.3L102.2,8.91715728752538L102.2,12.08284271247462L100.58284271247462,13.7L64.41715728752538,13.7L61.417157287525384,10.7L57,10.7L57,10.3L61.582842712474616,10.3L64.58284271247462,13.3L100.41715728752538,13.3L101.8,11.91715728752538L101.8,9.08284271247462L100.41715728752538,7.7L99.08284271247462,7.7L96.08284271247462,10.7z" stroke="none"/><path d="M87,2.8L87,3.2L74.91715728752538,3.2L73.41715728752538,1.7L61.582842712474616,1.7L57.082842712474616,6.2L51,6.2L51,5.8L56.917157287525384,5.8L61.417157287525384,1.3L73.58284271247462,1.3L75.08284271247462,2.8z" stroke="none"/></svg>