<svg version="1.1" width="105" height="15" xmlns="http://www.w3.org/2000/svg"><path d="M64.58284271247462,5.8L66.08284271247462,7.3L67.5,7.3L67.5,7.7L65.91715728752538,7.7L64.41715728752538,6.2L60.082842712474616,6.2L58.582842712474616,7.7L57,7.7L57,7.3L58.417157287525384,7.3L59.51715728752538,6.2L55.582842712474616,6.2L54.082842712474616,7.7L49.582842712474616,7.7L48.2,9.08284271247462L48.2,10.5L47.8,10.5L47.8,8.91715728752538L49.417157287525384,7.3L53.917157287525384,7.3L55.417157287525384,5.8z" stroke="none"/><path d="M30,5.717157287525381L31.41715728752538,4.3L34.582842712474616,4.3L36.082842712474616,5.8L37.582842712474616,5.8L40.582842712474616,8.8L42,8.8L42,9.2L40.417157287525384,9.2L37.417157287525384,6.2L35.917157287525384,6.2L34.417157287525384,4.7L31.58284271247462,4.7L28.58284271247462,7.7L26.91715728752538,7.7L25.3,6.082842712474619L25.3,4.5L25.7,4.5L25.7,5.917157287525381L27.08284271247462,7.3L28.41715728752538,7.3L29.71715728752538,6L28.41715728752538,4.7L27,4.7L27,4.3L28.58284271247462,4.3z" stroke="none"/><path d="M68.8,10.3L68.8,8.91715728752538L70.35857864376268,7.358578643762691L70.64142135623732,7.641421356237309L69.2,9.08284271247462L69.2,10.3L79.5,10.3L79.5,10.7L69.2,10.7L69.2,11.91715728752538L70.58284271247462,13.3L83.91715728752538,13.3L85.35857864376268,11.85857864376269L85.64142135623732,12.14142135623731L84.08284271247462,13.7L70.41715728752538,13.7L68.8,12.08284271247462L68.8,10.7L51.082842712474616,10.7L49.582842712474616,12.2L43.417157287525384,12.2L41.917157287525384,10.7L40.5,10.7L40.5,10.3L42.082842712474616,10.3L43.582842712474616,11.8L49.417157287525384,11.8L50.917157287525384,10.3z" stroke="none"/><path d="M79.5,4.217157287525381L80.91715728752538,2.8L90.08284271247462,2.8L91.58284271247462,4.3L97.58284271247462,4.3L99.14142135623732,5.858578643762691L98.85857864376268,6.141421356237309L97.41715728752538,4.7L91.41715728752538,4.7L89.91715728752538,3.2L81.08284271247462,3.2L79.78284271247462,4.5L81.08284271247462,5.8L91.5,5.8L91.5,6.2L80.91715728752538,6.2L79.5,4.782842712474619L78.08284271247462,6.2L72,6.2L72,5.8L77.91715728752538,5.8L79.21715728752538,4.5L77.91715728752538,3.2L61.5,3.2L61.5,2.8L78.08284271247462,2.8z" stroke="none"/><path d="M28.5,9.2L28.5,8.8L30,8.8L30,9.2z" stroke="none"/><path d="M82.5,11.8L82.5,12.2L81,12.2L81,11.8z" stroke="none"/><path d="M32.8,6L33.2,6L33.2,7.5L32.8,7.5z" stroke="none"/><path d="M31.64142135623731,10.64142135623731L31.35857864376269,10.35857864376269L32.85857864376269,8.85857864376269L33.14142135623731,9.14142135623731z" stroke="none"/><path d="M12,8.8L12,9.2L9,9.2L9,8.8z" stroke="none"/><path d="M23.85857864376269,7.358578643762691L24.14142135623731,7.641421356237309L22.58284271247462,9.2L21,9.2L21,8.8L22.41715728752538,8.8z" stroke="none"/><path d="M5.858578643762691,5.858578643762691L6.141421356237309,6.141421356237309L4.582842712474619,7.7L3,7.7L3,7.3L4.417157287525381,7.3z" stroke="none"/><path d="M22.35857864376269,4.358578643762691L22.64142135623731,4.641421356237309L21.08284271247462,6.2L19.58284271247462,6.2L18.14142135623731,7.641421356237309L17.85857864376269,7.358578643762691L19.41715728752538,5.8L20.91715728752538,5.8z" stroke="none"/><path d="M88.5,4.3L88.5,4.7L82.5,4.7L82.5,4.3z" stroke="none"/><path d="M97.5,10.7L97.5,10.3L100.41715728752538,10.3L101.8,8.91715728752538L101.8,6L102.2,6L102.2,9.08284271247462L100.58284271247462,10.7z" stroke="none"/><path d="M91.64142135623732,12.14142135623731L91.35857864376268,11.85857864376269L92.91715728752538,10.3L94.41715728752538,10.3L95.91715728752538,8.8L97.41715728752538,8.8L98.91715728752538,7.3L100.5,7.3L100.5,7.7L99.08284271247462,7.7L97.58284271247462,9.2L96.08284271247462,9.2L94.58284271247462,10.7L93.08284271247462,10.7z" stroke="none"/><path d="M51,9.2L51,8.8L61.5,8.8L61.5,9.2z" stroke="none"/><path d="M3,10.7L3,10.3L12.08284271247462,10.3L13.58284271247462,11.8L16.5,11.8L16.5,12.2L13.41715728752538,12.2L11.91715728752538,10.7z" stroke="none"/><path d="M22.5,12.2L22.5,11.8L32.917157287525384,11.8L35.917157287525384,8.8L37.5,8.8L37.5,9.2L36.082842712474616,9.2L33.082842712474616,12.2z" stroke="none"/><path d="M76.5,7.7L76.5,7.3L84.08284271247462,7.3L90.08284271247462,13.3L100.41715728752538,13.3L103.3,10.41715728752538L103.3,4.582842712474619L101.91715728752538,3.2L92.91715728752538,3.2L91.41715728752538,1.7L48.082842712474616,1.7L46.64142135623731,3.1414213562373097L46.35857864376269,2.8585786437626903L47.917157287525384,1.3L91.58284271247462,1.3L93.08284271247462,2.8L102.08284271247462,2.8L103.7,4.417157287525381L103.7,10.58284271247462L100.58284271247462,13.7L89.91715728752538,13.7L83.91715728752538,7.7z" stroke="none"/><path d="M39,4.7L39,4.3L76.5,4.3L76.5,4.7z" stroke="none"/></svg>