<svg version="1.1" width="105" height="15" xmlns="http://www.w3.org/2000/svg"><path d="M12.08284271247462,2.8L13.7,4.417157287525381L13.7,7.582842712474619L12.08284271247462,9.2L10.41715728752538,9.2L8.91715728752538,7.7L7.5,7.7L7.5,7.3L9.08284271247462,7.3L10.58284271247462,8.8L11.91715728752538,8.8L13.3,7.417157287525381L13.3,4.582842712474619L11.91715728752538,3.2L10.7,3.2L10.7,4.417157287525381L12.14142135623731,5.858578643762691L11.85857864376269,6.141421356237309L10.3,4.582842712474619L10.3,3.2L7.5,3.2L7.5,2.8z" stroke="none"/><path d="M73.3,11.8L73.3,10.41715728752538L74.91715728752538,8.8L79.58284271247462,8.8L81.08284271247462,10.3L88.58284271247462,10.3L90.08284271247462,11.8L91.5,11.8L91.5,12.2L89.91715728752538,12.2L88.41715728752538,10.7L80.91715728752538,10.7L79.41715728752538,9.2L75.08284271247462,9.2L73.7,10.58284271247462L73.7,11.8L85.5,11.8L85.5,12.2L46.5,12.2L46.5,11.8z" stroke="none"/><path d="M71.8,4.3L71.8,2.917157287525381L73.41715728752538,1.3L93.08284271247462,1.3L94.58284271247462,2.8L96,2.8L96,3.2L94.41715728752538,3.2L92.91715728752538,1.7L73.58284271247462,1.7L72.2,3.082842712474619L72.2,4.3L75,4.3L75,4.7L72.2,4.7L72.2,5.917157287525381L73.58284271247462,7.3L74.91715728752538,7.3L76.41715728752538,5.8L77.91715728752538,5.8L79.41715728752538,4.3L81,4.3L81,4.7L79.58284271247462,4.7L78.08284271247462,6.2L76.58284271247462,6.2L75.08284271247462,7.7L73.41715728752538,7.7L71.8,6.082842712474619L71.8,4.7L58.582842712474616,4.7L57.082842712474616,6.2L55.582842712474616,6.2L54.082842712474616,7.7L49.417157287525384,7.7L47.917157287525384,6.2L46.5,6.2L46.5,5.8L48.082842712474616,5.8L49.582842712474616,7.3L53.917157287525384,7.3L55.417157287525384,5.8L56.917157287525384,5.8L58.417157287525384,4.3z" stroke="none"/><path d="M41.8,4.3L41.8,2.917157287525381L43.417157287525384,1.3L48.082842712474616,1.3L49.582842712474616,2.8L54.082842712474616,2.8L55.64142135623731,4.358578643762691L55.35857864376269,4.641421356237309L53.917157287525384,3.2L49.417157287525384,3.2L47.917157287525384,1.7L43.582842712474616,1.7L42.2,3.082842712474619L42.2,4.3L49.582842712474616,4.3L51.082842712474616,5.8L52.5,5.8L52.5,6.2L50.917157287525384,6.2L49.417157287525384,4.7L42.2,4.7L42.2,6.082842712474619L40.582842712474616,7.7L35.917157287525384,7.7L34.417157287525384,6.2L31.41715728752538,6.2L29.91715728752538,4.7L28.5,4.7L28.5,4.3L30.08284271247462,4.3L31.58284271247462,5.8L34.582842712474616,5.8L36.082842712474616,7.3L40.417157287525384,7.3L41.8,5.917157287525381L41.8,4.7L33,4.7L33,4.3z" stroke="none"/><path d="M85.7,7.5L85.3,7.5L85.3,6L85.7,6z" stroke="none"/><path d="M82.3,6L82.7,6L82.7,9L82.3,9z" stroke="none"/><path d="M98.8,7.5L99.2,7.5L99.2,10.5L98.8,10.5z" stroke="none"/><path d="M15.2,10.5L14.8,10.5L14.8,7.5L15.2,7.5z" stroke="none"/><path d="M22.64142135623731,9.14142135623731L22.35857864376269,8.85857864376269L23.91715728752538,7.3L25.5,7.3L25.5,7.7L24.08284271247462,7.7z" stroke="none"/><path d="M60,6.2L60,5.8L64.5,5.8L64.5,6.2z" stroke="none"/><path d="M21,3.2L21,2.8L22.58284271247462,2.8L24.08284271247462,4.3L25.5,4.3L25.5,4.7L23.91715728752538,4.7L22.41715728752538,3.2z" stroke="none"/><path d="M93.2,12L92.8,12L92.8,10.58284271247462L91.41715728752538,9.2L89.91715728752538,9.2L88.41715728752538,7.7L87,7.7L87,7.3L88.58284271247462,7.3L90.08284271247462,8.8L91.58284271247462,8.8L93.2,10.41715728752538z" stroke="none"/><path d="M28.5,3.2L28.5,2.8L37.5,2.8L37.5,3.2z" stroke="none"/><path d="M99,5.8L99,6.2L95.91715728752538,6.2L94.41715728752538,4.7L89.91715728752538,4.7L88.35857864376268,3.1414213562373097L88.64142135623732,2.8585786437626903L90.08284271247462,4.3L94.58284271247462,4.3L96.08284271247462,5.8z" stroke="none"/><path d="M22.64142135623731,12.14142135623731L22.35857864376269,11.85857864376269L23.91715728752538,10.3L29.91715728752538,10.3L31.41715728752538,8.8L34.5,8.8L34.5,9.2L31.58284271247462,9.2L30.08284271247462,10.7L24.08284271247462,10.7z" stroke="none"/><path d="M11.85857864376269,10.64142135623731L12.14142135623731,10.35857864376269L13.58284271247462,11.8L16.41715728752538,11.8L22.41715728752538,5.8L27.08284271247462,5.8L28.64142135623731,7.358578643762691L28.35857864376269,7.641421356237309L26.91715728752538,6.2L22.58284271247462,6.2L16.58284271247462,12.2L13.41715728752538,12.2z" stroke="none"/><path d="M45,10.7L45,10.3L59.917157287525384,10.3L62.917157287525384,7.3L66,7.3L66,7.7L63.082842712474616,7.7L60.082842712474616,10.7z" stroke="none"/><path d="M3,10.7L3,10.3L6.082842712474619,10.3L7.582842712474619,11.8L9.08284271247462,11.8L10.58284271247462,13.3L23.91715728752538,13.3L25.35857864376269,11.85857864376269L25.64142135623731,12.14142135623731L24.08284271247462,13.7L10.41715728752538,13.7L8.91715728752538,12.2L7.417157287525381,12.2L5.917157287525381,10.7z" stroke="none"/><path d="M101.8,4.5L102.2,4.5L102.2,12.08284271247462L100.58284271247462,13.7L98.91715728752538,13.7L97.3,12.08284271247462L97.3,10.58284271247462L95.91715728752538,9.2L94.41715728752538,9.2L92.91715728752538,7.7L91.41715728752538,7.7L89.91715728752538,6.2L88.41715728752538,6.2L86.91715728752538,4.7L83.91715728752538,4.7L82.41715728752538,3.2L76.5,3.2L76.5,2.8L82.58284271247462,2.8L84.08284271247462,4.3L87.08284271247462,4.3L88.58284271247462,5.8L90.08284271247462,5.8L91.58284271247462,7.3L93.08284271247462,7.3L94.58284271247462,8.8L96.08284271247462,8.8L97.7,10.41715728752538L97.7,11.91715728752538L99.08284271247462,13.3L100.41715728752538,13.3L101.8,11.91715728752538z" stroke="none"/><path d="M60,7.3L60,7.7L57.082842712474616,7.7L55.582842712474616,9.2L47.917157287525384,9.2L46.417157287525384,7.7L45.082842712474616,7.7L43.7,9.08284271247462L43.7,11.91715728752538L45.082842712474616,13.3L94.41715728752538,13.3L95.85857864376268,11.85857864376269L96.14142135623732,12.14142135623731L94.58284271247462,13.7L44.917157287525384,13.7L43.3,12.08284271247462L43.3,8.91715728752538L44.917157287525384,7.3L46.582842712474616,7.3L48.082842712474616,8.8L55.417157287525384,8.8L56.917157287525384,7.3z" stroke="none"/></svg>