<svg version="1.1" width="105" height="15" xmlns="http://www.w3.org/2000/svg"><path d="M14.8,8.8L14.8,7.417157287525381L16.35857864376269,5.858578643762691L16.64142135623731,6.141421356237309L15.2,7.582842712474619L15.2,8.91715728752538L16.58284271247462,10.3L18.08284271247462,10.3L19.58284271247462,11.8L22.41715728752538,11.8L23.91715728752538,10.3L30,10.3L30,10.7L24.08284271247462,10.7L22.58284271247462,12.2L19.41715728752538,12.2L17.91715728752538,10.7L16.41715728752538,10.7L14.91715728752538,9.2L9.08284271247462,9.2L7.582842712474619,10.7L6,10.7L6,10.3L7.417157287525381,10.3L8.91715728752538,8.8z" stroke="none"/><path d="M91.5,10.217157287525382L92.91715728752538,8.8L94.41715728752538,8.8L95.85857864376268,7.358578643762691L96.14142135623732,7.641421356237309L94.58284271247462,9.2L93.08284271247462,9.2L91.58284271247462,10.7L84.08284271247462,10.7L82.64142135623732,12.14142135623731L82.35857864376268,11.85857864376269L83.91715728752538,10.3L91.01715728752538,10.3L89.91715728752538,9.2L88.5,9.2L88.5,8.8L90.08284271247462,8.8z" stroke="none"/><path d="M79.3,7.3L79.3,5.917157287525381L80.91715728752538,4.3L88.58284271247462,4.3L90.08284271247462,5.8L94.5,5.8L94.5,6.2L89.91715728752538,6.2L88.41715728752538,4.7L81.08284271247462,4.7L79.7,6.082842712474619L79.7,7.3L82.58284271247462,7.3L84.08284271247462,8.8L85.5,8.8L85.5,9.2L83.91715728752538,9.2L82.41715728752538,7.7L79.7,7.7L79.7,10.5L79.3,10.5L79.3,7.7L76.41715728752538,7.7L74.91715728752538,6.2L73.41715728752538,6.2L71.91715728752538,4.7L67.41715728752538,4.7L65.91715728752538,3.2L64.58284271247462,3.2L63.2,4.582842712474619L63.2,6L62.8,6L62.8,4.417157287525381L64.41715728752538,2.8L66.08284271247462,2.8L67.58284271247462,4.3L72.08284271247462,4.3L73.58284271247462,5.8L75.08284271247462,5.8L76.58284271247462,7.3z" stroke="none"/><path d="M40.3,4.3L40.3,2.917157287525381L41.917157287525384,1.3L69.08284271247462,1.3L70.64142135623732,2.8585786437626903L70.35857864376268,3.1414213562373097L68.91715728752538,1.7L42.082842712474616,1.7L40.7,3.082842712474619L40.7,4.3L43.5,4.3L43.5,4.7L40.7,4.7L40.7,6.082842712474619L39.082842712474616,7.7L24,7.7L24,7.3L38.917157287525384,7.3L40.3,5.917157287525381L40.3,4.7L31.41715728752538,4.7L29.91715728752538,3.2L28.5,3.2L28.5,2.8L30.08284271247462,2.8L31.58284271247462,4.3z" stroke="none"/><path d="M64.7,9L64.3,9L64.3,6L64.7,6z" stroke="none"/><path d="M86.85857864376268,6.141421356237309L87.14142135623732,5.858578643762691L88.58284271247462,7.3L90,7.3L90,7.7L88.41715728752538,7.7z" stroke="none"/><path d="M97.3,6L97.7,6L97.7,10.5L97.3,10.5z" stroke="none"/><path d="M94.5,3.2L94.5,2.8L99.08284271247462,2.8L100.64142135623732,4.358578643762691L100.35857864376268,4.641421356237309L98.91715728752538,3.2z" stroke="none"/><path d="M6.141421356237309,9.14142135623731L5.858578643762691,8.85857864376269L7.417157287525381,7.3L12,7.3L12,7.7L7.582842712474619,7.7z" stroke="none"/><path d="M58.64142135623731,11.85857864376269L58.35857864376269,12.14142135623731L55.417157287525384,9.2L52.5,9.2L52.5,8.8L55.582842712474616,8.8z" stroke="none"/><path d="M10.5,4.3L10.5,4.7L4.582842712474619,4.7L3.1414213562373097,6.141421356237309L2.8585786437626903,5.858578643762691L4.417157287525381,4.3z" stroke="none"/><path d="M60,12.2L60,11.8L67.41715728752538,11.8L68.8,10.41715728752538L68.8,9L69.2,9L69.2,10.58284271247462L67.58284271247462,12.2z" stroke="none"/><path d="M49.7,10.5L49.3,10.5L49.3,8.91715728752538L50.917157287525384,7.3L58.5,7.3L58.5,7.7L51.082842712474616,7.7L49.7,9.08284271247462z" stroke="none"/><path d="M21,2.8L21,3.2L7.5,3.2L7.5,2.8z" stroke="none"/><path d="M18.14142135623731,9.14142135623731L17.85857864376269,8.85857864376269L19.3,7.417157287525381L19.3,6.082842712474619L17.91715728752538,4.7L13.58284271247462,4.7L12.08284271247462,6.2L6.082842712474619,6.2L3.1414213562373097,9.14142135623731L2.8585786437626903,8.85857864376269L5.917157287525381,5.8L11.91715728752538,5.8L13.41715728752538,4.3L18.08284271247462,4.3L19.7,5.917157287525381L19.7,7.582842712474619z" stroke="none"/><path d="M75,4.7L75,4.3L77.91715728752538,4.3L79.41715728752538,2.8L90.08284271247462,2.8L91.64142135623732,4.358578643762691L91.35857864376268,4.641421356237309L89.91715728752538,3.2L79.58284271247462,3.2L78.08284271247462,4.7z" stroke="none"/><path d="M67.35857864376268,8.85857864376269L67.64142135623732,9.14142135623731L66.08284271247462,10.7L62.917157287525384,10.7L61.3,9.08284271247462L61.3,7.582842712474619L59.917157287525384,6.2L49.582842712474616,6.2L43.582842712474616,12.2L40.5,12.2L40.5,11.8L43.417157287525384,11.8L49.417157287525384,5.8L60.082842712474616,5.8L61.7,7.417157287525381L61.7,8.91715728752538L63.082842712474616,10.3L65.91715728752538,10.3z" stroke="none"/><path d="M49.5,11.8L49.5,12.2L48.082842712474616,12.2L46.582842712474616,13.7L5.917157287525381,13.7L4.417157287525381,12.2L2.917157287525381,12.2L1.3,10.58284271247462L1.3,4.417157287525381L2.917157287525381,2.8L4.417157287525381,2.8L5.917157287525381,1.3L22.58284271247462,1.3L24.2,2.917157287525381L24.2,4.582842712474619L22.7,6.082842712474619L22.7,9.08284271247462L21.14142135623731,10.64142135623731L20.85857864376269,10.35857864376269L22.3,8.91715728752538L22.3,5.917157287525381L23.8,4.417157287525381L23.8,3.082842712474619L22.41715728752538,1.7L6.082842712474619,1.7L4.582842712474619,3.2L3.082842712474619,3.2L1.7,4.582842712474619L1.7,10.41715728752538L3.082842712474619,11.8L4.582842712474619,11.8L6.082842712474619,13.3L46.417157287525384,13.3L47.917157287525384,11.8z" stroke="none"/><path d="M101.8,4.5L102.2,4.5L102.2,6.082842712474619L100.7,7.582842712474619L100.7,10.58284271247462L99.08284271247462,12.2L88.58284271247462,12.2L87.08284271247462,13.7L80.91715728752538,13.7L79.41715728752538,12.2L77.91715728752538,12.2L73.41715728752538,7.7L71.91715728752538,7.7L70.35857864376268,6.141421356237309L70.64142135623732,5.858578643762691L72.08284271247462,7.3L73.58284271247462,7.3L78.08284271247462,11.8L79.58284271247462,11.8L81.08284271247462,13.3L86.91715728752538,13.3L88.41715728752538,11.8L98.91715728752538,11.8L100.3,10.41715728752538L100.3,7.417157287525381L101.8,5.917157287525381z" stroke="none"/><path d="M61.5,4.3L61.5,4.7L48.082842712474616,4.7L46.582842712474616,6.2L45.082842712474616,6.2L42.082842712474616,9.2L24,9.2L24,8.8L41.917157287525384,8.8L44.917157287525384,5.8L46.417157287525384,5.8L47.917157287525384,4.3z" stroke="none"/></svg>