<svg version="1.1" width="105" height="15" xmlns="http://www.w3.org/2000/svg"><path d="M88.5,2.8L88.5,3.2L76.7,3.2L76.7,4.582842712474619L75.14142135623732,6.141421356237309L74.85857864376268,5.858578643762691L76.3,4.417157287525381L76.3,3.2L69,3.2L69,2.8z" stroke="none"/><path d="M88.3,7.3L88.3,6.082842712474619L86.85857864376268,4.641421356237309L87.14142135623732,4.358578643762691L88.7,5.917157287525381L88.7,7.3L89.91715728752538,7.3L92.91715728752538,4.3L96,4.3L96,4.7L93.08284271247462,4.7L90.08284271247462,7.7L84,7.7L84,7.3z" stroke="none"/><path d="M13.58284271247462,4.3L15.08284271247462,4.3L16.58284271247462,5.8L19.41715728752538,5.8L22.41715728752538,2.8L28.5,2.8L28.5,3.2L22.58284271247462,3.2L19.58284271247462,6.2L16.41715728752538,6.2L14.91715728752538,4.7L13.7,4.7L13.7,6.082842712474619L12.08284271247462,7.7L6,7.7L6,7.3L11.91715728752538,7.3L13.3,5.917157287525381L13.3,4.7L10.58284271247462,4.7L9.08284271247462,6.2L7.5,6.2L7.5,5.8L8.91715728752538,5.8L10.41715728752538,4.3L13.01715728752538,4.3L11.91715728752538,3.2L10.5,3.2L10.5,2.8L12.08284271247462,2.8z" stroke="none"/><path d="M67.3,8.8L67.3,7.582842712474619L64.41715728752538,4.7L61.582842712474616,4.7L60.082842712474616,6.2L54.082842712474616,6.2L52.582842712474616,7.7L43.582842712474616,7.7L42.082842712474616,9.2L39,9.2L39,8.8L41.917157287525384,8.8L43.417157287525384,7.3L52.417157287525384,7.3L53.917157287525384,5.8L59.917157287525384,5.8L61.417157287525384,4.3L64.58284271247462,4.3L67.7,7.417157287525381L67.7,8.8L68.91715728752538,8.8L70.41715728752538,7.3L72,7.3L72,7.7L70.58284271247462,7.7L69.08284271247462,9.2L67.7,9.2L67.7,10.41715728752538L69.08284271247462,11.8L77.91715728752538,11.8L79.35857864376268,10.35857864376269L79.64142135623732,10.64142135623731L78.08284271247462,12.2L68.91715728752538,12.2L67.3,10.58284271247462L67.3,9.2L66.08284271247462,9.2L64.7,10.58284271247462L64.7,11.91715728752538L66.08284271247462,13.3L79.41715728752538,13.3L80.91715728752538,11.8L82.41715728752538,11.8L83.85857864376268,10.35857864376269L84.14142135623732,10.64142135623731L82.58284271247462,12.2L81.08284271247462,12.2L79.58284271247462,13.7L65.91715728752538,13.7L64.3,12.08284271247462L64.3,10.41715728752538L65.91715728752538,8.8z" stroke="none"/><path d="M37.3,6L37.7,6L37.7,7.5L37.3,7.5z" stroke="none"/><path d="M19.35857864376269,2.8585786437626903L19.64142135623731,3.1414213562373097L18.14142135623731,4.641421356237309L17.85857864376269,4.358578643762691z" stroke="none"/><path d="M88.35857864376268,10.35857864376269L88.64142135623732,10.64142135623731L87.14142135623732,12.14142135623731L86.85857864376268,11.85857864376269z" stroke="none"/><path d="M51.14142135623731,6.141421356237309L50.85857864376269,5.858578643762691L52.35857864376269,4.358578643762691L52.64142135623731,4.641421356237309z" stroke="none"/><path d="M34.7,7.5L34.3,7.5L34.3,4.5L34.7,4.5z" stroke="none"/><path d="M6,3.2L6,2.8L9,2.8L9,3.2z" stroke="none"/><path d="M85.5,5.8L85.5,6.2L82.5,6.2L82.5,5.8z" stroke="none"/><path d="M61.7,10.5L61.3,10.5L61.3,7.417157287525381L62.85857864376269,5.858578643762691L63.14142135623731,6.141421356237309L61.7,7.582842712474619z" stroke="none"/><path d="M7.5,4.3L7.5,4.7L6.082842712474619,4.7L4.582842712474619,6.2L3,6.2L3,5.8L4.417157287525381,5.8L5.917157287525381,4.3z" stroke="none"/><path d="M26.85857864376269,5.858578643762691L27.14142135623731,6.141421356237309L25.58284271247462,7.7L24.08284271247462,7.7L21.08284271247462,10.7L19.5,10.7L19.5,10.3L20.91715728752538,10.3L23.91715728752538,7.3L25.41715728752538,7.3z" stroke="none"/><path d="M34.5,11.8L34.5,12.2L31.41715728752538,12.2L29.91715728752538,10.7L26.91715728752538,10.7L25.35857864376269,9.14142135623731L25.64142135623731,8.85857864376269L27.08284271247462,10.3L30.08284271247462,10.3L31.58284271247462,11.8z" stroke="none"/><path d="M90.14142135623732,4.641421356237309L89.85857864376268,4.358578643762691L91.41715728752538,2.8L100.5,2.8L100.5,3.2L91.58284271247462,3.2z" stroke="none"/><path d="M70.5,4.3L70.5,4.7L67.41715728752538,4.7L65.91715728752538,3.2L60.082842712474616,3.2L58.582842712474616,4.7L54,4.7L54,4.3L58.417157287525384,4.3L59.917157287525384,2.8L66.08284271247462,2.8L67.58284271247462,4.3z" stroke="none"/><path d="M15,10.7L15,10.3L16.41715728752538,10.3L19.41715728752538,7.3L20.91715728752538,7.3L22.41715728752538,5.8L23.91715728752538,5.8L25.41715728752538,4.3L28.58284271247462,4.3L31.64142135623731,7.358578643762691L31.35857864376269,7.641421356237309L28.41715728752538,4.7L25.58284271247462,4.7L24.08284271247462,6.2L22.58284271247462,6.2L21.08284271247462,7.7L19.58284271247462,7.7L16.58284271247462,10.7z" stroke="none"/><path d="M51,11.8L51,12.2L40.417157287525384,12.2L38.917157287525384,10.7L37.417157287525384,10.7L35.8,9.08284271247462L35.8,4.417157287525381L37.417157287525384,2.8L50.917157287525384,2.8L52.417157287525384,1.3L102.08284271247462,1.3L103.7,2.917157287525381L103.7,4.582842712474619L102.08284271247462,6.2L100.58284271247462,6.2L99.08284271247462,7.7L94.58284271247462,7.7L93.08284271247462,9.2L78.08284271247462,9.2L76.64142135623732,10.64142135623731L76.35857864376268,10.35857864376269L77.91715728752538,8.8L92.91715728752538,8.8L94.41715728752538,7.3L98.91715728752538,7.3L100.41715728752538,5.8L101.91715728752538,5.8L103.3,4.417157287525381L103.3,3.082842712474619L101.91715728752538,1.7L52.582842712474616,1.7L51.082842712474616,3.2L37.582842712474616,3.2L36.2,4.582842712474619L36.2,8.91715728752538L37.582842712474616,10.3L39.082842712474616,10.3L40.582842712474616,11.8z" stroke="none"/><path d="M55.35857864376269,7.358578643762691L55.64142135623731,7.641421356237309L54.2,9.08284271247462L54.2,12.08284271247462L52.582842712474616,13.7L23.91715728752538,13.7L22.41715728752538,12.2L19.5,12.2L19.5,11.8L22.58284271247462,11.8L24.08284271247462,13.3L52.417157287525384,13.3L53.8,11.91715728752538L53.8,8.91715728752538z" stroke="none"/></svg>