<svg version="1.1" width="105" height="15" xmlns="http://www.w3.org/2000/svg"><path d="M40.582842712474616,8.8L42.082842712474616,8.8L45.082842712474616,11.8L46.5,11.8L46.5,12.2L44.917157287525384,12.2L41.917157287525384,9.2L40.7,9.2L40.7,12L40.3,12L40.3,9.08284271247462L38.917157287525384,7.7L36.082842712474616,7.7L34.64142135623731,9.14142135623731L34.35857864376269,8.85857864376269L35.917157287525384,7.3L39.082842712474616,7.3z" stroke="none"/><path d="M16.5,5.717157287525381L17.91715728752538,4.3L19.58284271247462,4.3L21.2,5.917157287525381L21.2,7.5L20.8,7.5L20.8,6.082842712474619L19.41715728752538,4.7L18.08284271247462,4.7L16.78284271247462,6L18.08284271247462,7.3L19.5,7.3L19.5,7.7L17.91715728752538,7.7L14.91715728752538,4.7L13.41715728752538,4.7L11.85857864376269,3.1414213562373097L12.14142135623731,2.8585786437626903L13.58284271247462,4.3L15.08284271247462,4.3z" stroke="none"/><path d="M64.3,8.8L64.3,7.582842712474619L62.917157287525384,6.2L61.582842712474616,6.2L60.082842712474616,7.7L58.582842712474616,7.7L57.082842712474616,9.2L55.582842712474616,9.2L54.14142135623731,10.64142135623731L53.85857864376269,10.35857864376269L55.417157287525384,8.8L56.917157287525384,8.8L58.417157287525384,7.3L59.917157287525384,7.3L61.417157287525384,5.8L63.082842712474616,5.8L64.7,7.417157287525381L64.7,8.91715728752538L67.58284271247462,11.8L83.91715728752538,11.8L85.41715728752538,10.3L86.91715728752538,10.3L88.35857864376268,8.85857864376269L88.64142135623732,9.14142135623731L87.08284271247462,10.7L85.58284271247462,10.7L84.08284271247462,12.2L67.41715728752538,12.2L64.5,9.282842712474618L63.082842712474616,10.7L61.5,10.7L61.5,10.3L62.917157287525384,10.3L64.01715728752538,9.2L60.082842712474616,9.2L58.64142135623731,10.64142135623731L58.35857864376269,10.35857864376269L59.917157287525384,8.8z" stroke="none"/><path d="M76.3,4.3L76.3,2.917157287525381L77.91715728752538,1.3L85.58284271247462,1.3L87.08284271247462,2.8L96,2.8L96,3.2L86.91715728752538,3.2L85.41715728752538,1.7L78.08284271247462,1.7L76.7,3.082842712474619L76.7,4.3L84.08284271247462,4.3L85.58284271247462,5.8L87,5.8L87,6.2L85.41715728752538,6.2L83.91715728752538,4.7L76.7,4.7L76.7,6.082842712474619L75.08284271247462,7.7L70.41715728752538,7.7L68.91715728752538,6.2L65.91715728752538,6.2L64.41715728752538,4.7L60.082842712474616,4.7L58.582842712474616,6.2L57.082842712474616,6.2L55.64142135623731,7.641421356237309L55.35857864376269,7.358578643762691L56.917157287525384,5.8L58.417157287525384,5.8L59.917157287525384,4.3L64.58284271247462,4.3L66.08284271247462,5.8L69.08284271247462,5.8L70.58284271247462,7.3L74.91715728752538,7.3L76.3,5.917157287525381L76.3,4.7L73.41715728752538,4.7L71.91715728752538,3.2L67.5,3.2L67.5,2.8L72.08284271247462,2.8L73.58284271247462,4.3z" stroke="none"/><path d="M30.2,10.5L29.8,10.5L29.8,9L30.2,9z" stroke="none"/><path d="M102,7.3L102,7.7L99,7.7L99,7.3z" stroke="none"/><path d="M13.5,10.7L13.5,10.3L16.5,10.3L16.5,10.7z" stroke="none"/><path d="M9,10.3L9,10.7L6,10.7L6,10.3z" stroke="none"/><path d="M24.2,12L23.8,12L23.8,8.91715728752538L25.35857864376269,7.358578643762691L25.64142135623731,7.641421356237309L24.2,9.08284271247462z" stroke="none"/><path d="M16.5,9.2L16.5,8.8L19.58284271247462,8.8L21.08284271247462,10.3L22.5,10.3L22.5,10.7L20.91715728752538,10.7L19.41715728752538,9.2z" stroke="none"/><path d="M37.35857864376269,8.85857864376269L37.64142135623731,9.14142135623731L36.082842712474616,10.7L32.917157287525384,10.7L31.3,9.08284271247462L31.3,7.417157287525381L32.8,5.917157287525381L32.8,4.5L33.2,4.5L33.2,6.082842712474619L31.7,7.582842712474619L31.7,8.91715728752538L33.082842712474616,10.3L35.917157287525384,10.3z" stroke="none"/><path d="M2.8585786437626903,3.1414213562373097L3.1414213562373097,2.8585786437626903L7.641421356237309,7.358578643762691L7.358578643762691,7.641421356237309z" stroke="none"/><path d="M90.14142135623732,10.64142135623731L89.85857864376268,10.35857864376269L94.35857864376268,5.858578643762691L94.64142135623732,6.141421356237309z" stroke="none"/><path d="M94.5,4.3L94.5,4.7L93.08284271247462,4.7L91.58284271247462,6.2L90.08284271247462,6.2L88.58284271247462,7.7L87,7.7L87,7.3L88.41715728752538,7.3L89.91715728752538,5.8L91.41715728752538,5.8L92.91715728752538,4.3z" stroke="none"/><path d="M78,8.8L78,9.2L67.5,9.2L67.5,8.8z" stroke="none"/><path d="M21,2.8L21,3.2L14.91715728752538,3.2L13.41715728752538,1.7L10.58284271247462,1.7L9.2,3.082842712474619L9.2,5.917157287525381L10.64142135623731,7.358578643762691L10.35857864376269,7.641421356237309L8.8,6.082842712474619L8.8,2.917157287525381L10.41715728752538,1.3L13.58284271247462,1.3L15.08284271247462,2.8z" stroke="none"/><path d="M69,10.7L69,10.3L79.41715728752538,10.3L80.8,8.91715728752538L80.8,7.417157287525381L82.35857864376268,5.858578643762691L82.64142135623732,6.141421356237309L81.2,7.582842712474619L81.2,9.08284271247462L79.58284271247462,10.7z" stroke="none"/><path d="M46.5,4.3L46.5,4.7L35.917157287525384,4.7L34.417157287525384,3.2L31.58284271247462,3.2L30.2,4.582842712474619L30.2,7.5L29.8,7.5L29.8,4.417157287525381L31.41715728752538,2.8L34.582842712474616,2.8L36.082842712474616,4.3z" stroke="none"/><path d="M25.64142135623731,4.641421356237309L25.35857864376269,4.358578643762691L26.91715728752538,2.8L28.41715728752538,2.8L29.91715728752538,1.3L46.582842712474616,1.3L48.2,2.917157287525381L48.2,4.417157287525381L49.7,5.917157287525381L49.7,7.5L49.3,7.5L49.3,6.082842712474619L47.8,4.582842712474619L47.8,3.082842712474619L46.417157287525384,1.7L30.08284271247462,1.7L28.58284271247462,3.2L27.08284271247462,3.2z" stroke="none"/><path d="M17.85857864376269,10.64142135623731L18.14142135623731,10.35857864376269L19.58284271247462,11.8L21.08284271247462,11.8L22.58284271247462,13.3L58.417157287525384,13.3L59.85857864376269,11.85857864376269L60.14142135623731,12.14142135623731L58.582842712474616,13.7L22.41715728752538,13.7L20.91715728752538,12.2L19.41715728752538,12.2z" stroke="none"/></svg>