<svg version="1.1" width="105" height="15" xmlns="http://www.w3.org/2000/svg"><path d="M84.08284271247462,2.8L85.58284271247462,4.3L87,4.3L87,4.7L85.41715728752538,4.7L83.91715728752538,3.2L76.58284271247462,3.2L75.08284271247462,4.7L73.5,4.7L73.5,4.3L74.91715728752538,4.3L76.01715728752538,3.2L70.5,3.2L70.5,2.8z" stroke="none"/><path d="M70.58284271247462,4.3L72.08284271247462,5.8L79.41715728752538,5.8L80.91715728752538,4.3L82.5,4.3L82.5,4.7L81.08284271247462,4.7L79.58284271247462,6.2L71.91715728752538,6.2L70.41715728752538,4.7L64.7,4.7L64.7,5.917157287525381L66.14142135623732,7.358578643762691L65.85857864376268,7.641421356237309L64.3,6.082842712474619L64.3,4.7L55.417157287525384,4.7L53.917157287525384,3.2L46.5,3.2L46.5,2.8L54.082842712474616,2.8L55.582842712474616,4.3z" stroke="none"/><path d="M81,10.217157287525382L82.41715728752538,8.8L84,8.8L84,9.2L82.58284271247462,9.2L81.48284271247462,10.3L90.08284271247462,10.3L91.64142135623732,11.85857864376269L91.35857864376268,12.14142135623731L89.91715728752538,10.7L81.08284271247462,10.7L79.58284271247462,12.2L77.91715728752538,12.2L76.3,10.58284271247462L76.3,9L76.7,9L76.7,10.41715728752538L78.08284271247462,11.8L79.41715728752538,11.8L80.71715728752538,10.5L79.41715728752538,9.2L78,9.2L78,8.8L79.58284271247462,8.8z" stroke="none"/><path d="M29.8,8.8L29.8,7.417157287525381L31.41715728752538,5.8L36.082842712474616,5.8L37.582842712474616,7.3L39.082842712474616,7.3L40.582842712474616,8.8L54,8.8L54,9.2L40.417157287525384,9.2L38.917157287525384,7.7L37.417157287525384,7.7L35.917157287525384,6.2L31.58284271247462,6.2L30.2,7.582842712474619L30.2,8.8L33.082842712474616,8.8L34.582842712474616,10.3L37.582842712474616,10.3L39.082842712474616,11.8L40.5,11.8L40.5,12.2L38.917157287525384,12.2L37.417157287525384,10.7L34.417157287525384,10.7L32.917157287525384,9.2L30.2,9.2L30.2,10.58284271247462L28.58284271247462,12.2L17.91715728752538,12.2L14.85857864376269,9.14142135623731L15.14142135623731,8.85857864376269L18.08284271247462,11.8L28.41715728752538,11.8L29.8,10.41715728752538L29.8,9.2L22.41715728752538,9.2L20.91715728752538,7.7L19.5,7.7L19.5,7.3L21.08284271247462,7.3L22.58284271247462,8.8z" stroke="none"/><path d="M7.5,8.8L7.5,9.2L6,9.2L6,8.8z" stroke="none"/><path d="M85.64142135623732,9.14142135623731L85.35857864376268,8.85857864376269L86.91715728752538,7.3L88.5,7.3L88.5,7.7L87.08284271247462,7.7z" stroke="none"/><path d="M36.14142135623731,8.85857864376269L35.85857864376269,9.14142135623731L34.417157287525384,7.7L33,7.7L33,7.3L34.582842712474616,7.3z" stroke="none"/><path d="M87.14142135623732,3.1414213562373097L86.85857864376268,2.8585786437626903L88.41715728752538,1.3L90.08284271247462,1.3L91.7,2.917157287525381L91.7,4.582842712474619L90.08284271247462,6.2L84,6.2L84,5.8L89.91715728752538,5.8L91.3,4.417157287525381L91.3,3.082842712474619L89.91715728752538,1.7L88.58284271247462,1.7z" stroke="none"/><path d="M100.64142135623732,11.85857864376269L100.35857864376268,12.14142135623731L97.35857864376268,9.14142135623731L97.64142135623732,8.85857864376269z" stroke="none"/><path d="M13.7,10.5L13.3,10.5L13.3,7.417157287525381L14.91715728752538,5.8L16.5,5.8L16.5,6.2L15.08284271247462,6.2L13.7,7.582842712474619z" stroke="none"/><path d="M7.5,3.2L7.5,2.8L13.58284271247462,2.8L15.14142135623731,4.358578643762691L14.85857864376269,4.641421356237309L13.41715728752538,3.2z" stroke="none"/><path d="M10.35857864376269,4.358578643762691L10.64142135623731,4.641421356237309L7.582842712474619,7.7L4.582842712474619,7.7L3.1414213562373097,9.14142135623731L2.8585786437626903,8.85857864376269L4.417157287525381,7.3L7.417157287525381,7.3z" stroke="none"/><path d="M60,5.8L60,6.2L53.917157287525384,6.2L52.417157287525384,4.7L51,4.7L51,4.3L52.582842712474616,4.3L54.082842712474616,5.8z" stroke="none"/><path d="M81,7.3L81,7.7L75.08284271247462,7.7L72.14142135623732,10.64142135623731L71.85857864376268,10.35857864376269L74.91715728752538,7.3z" stroke="none"/><path d="M11.85857864376269,7.358578643762691L12.14142135623731,7.641421356237309L9.08284271247462,10.7L3,10.7L3,10.3L8.91715728752538,10.3z" stroke="none"/><path d="M36,4.3L36,4.7L22.5,4.7L22.5,4.3z" stroke="none"/><path d="M19.64142135623731,10.35857864376269L19.35857864376269,10.64142135623731L17.8,9.08284271247462L17.8,5.917157287525381L20.91715728752538,2.8L37.582842712474616,2.8L42.14142135623731,7.358578643762691L41.85857864376269,7.641421356237309L37.417157287525384,3.2L21.08284271247462,3.2L18.2,6.082842712474619L18.2,8.91715728752538z" stroke="none"/><path d="M6.141421356237309,5.858578643762691L5.858578643762691,6.141421356237309L4.3,4.582842712474619L4.3,2.917157287525381L5.917157287525381,1.3L42.082842712474616,1.3L45.082842712474616,4.3L46.582842712474616,4.3L48.14142135623731,5.858578643762691L47.85857864376269,6.141421356237309L46.417157287525384,4.7L44.917157287525384,4.7L41.917157287525384,1.7L6.082842712474619,1.7L4.7,3.082842712474619L4.7,4.417157287525381z" stroke="none"/><path d="M94.3,3L94.7,3L94.7,12.08284271247462L93.08284271247462,13.7L67.41715728752538,13.7L64.41715728752538,10.7L59.917157287525384,10.7L58.417157287525384,9.2L56.917157287525384,9.2L55.417157287525384,7.7L48,7.7L48,7.3L55.582842712474616,7.3L57.082842712474616,8.8L58.582842712474616,8.8L60.082842712474616,10.3L64.58284271247462,10.3L67.58284271247462,13.3L92.91715728752538,13.3L94.3,11.91715728752538z" stroke="none"/><path d="M2.8585786437626903,5.858578643762691L3.1414213562373097,6.141421356237309L1.7,7.582842712474619L1.7,11.91715728752538L3.082842712474619,13.3L43.417157287525384,13.3L44.917157287525384,11.8L47.917157287525384,11.8L49.417157287525384,10.3L51,10.3L51,10.7L49.582842712474616,10.7L48.082842712474616,12.2L45.082842712474616,12.2L43.582842712474616,13.7L2.917157287525381,13.7L1.3,12.08284271247462L1.3,7.417157287525381z" stroke="none"/></svg>