<svg version="1.1" width="105" height="15" xmlns="http://www.w3.org/2000/svg"><path d="M98.91715728752538,5.8L100.41715728752538,4.3L102,4.3L102,4.7L100.58284271247462,4.7L99.08284271247462,6.2L97.98284271247462,6.2L99.2,7.417157287525381L99.2,9L98.8,9L98.8,7.582842712474619L97.41715728752538,6.2L93.08284271247462,6.2L91.64142135623732,7.641421356237309L91.35857864376268,7.358578643762691L92.91715728752538,5.8z" stroke="none"/><path d="M27.08284271247462,5.8L32.917157287525384,5.8L34.35857864376269,4.358578643762691L34.64142135623731,4.641421356237309L33.082842712474616,6.2L27.08284271247462,6.2L25.58284271247462,7.7L24.08284271247462,7.7L22.64142135623731,9.14142135623731L22.35857864376269,8.85857864376269L23.91715728752538,7.3L25.41715728752538,7.3L26.71715728752538,6L25.41715728752538,4.7L21,4.7L21,4.3L25.58284271247462,4.3z" stroke="none"/><path d="M88.3,8.8L88.3,7.582842712474619L82.41715728752538,1.7L69.08284271247462,1.7L66.2,4.582842712474619L66.2,9L65.8,9L65.8,4.417157287525381L68.91715728752538,1.3L82.58284271247462,1.3L88.7,7.417157287525381L88.7,8.8L90.08284271247462,8.8L91.58284271247462,10.3L93,10.3L93,10.7L91.41715728752538,10.7L89.91715728752538,9.2L88.7,9.2L88.7,10.41715728752538L90.08284271247462,11.8L94.41715728752538,11.8L97.35857864376268,8.85857864376269L97.64142135623732,9.14142135623731L94.58284271247462,12.2L89.91715728752538,12.2L88.3,10.58284271247462L88.3,9.2L87.08284271247462,9.2L85.7,10.58284271247462L85.7,11.91715728752538L87.08284271247462,13.3L95.91715728752538,13.3L97.41715728752538,11.8L98.91715728752538,11.8L100.35857864376268,10.35857864376269L100.64142135623732,10.64142135623731L99.08284271247462,12.2L97.58284271247462,12.2L96.08284271247462,13.7L86.91715728752538,13.7L85.3,12.08284271247462L85.3,10.41715728752538L86.91715728752538,8.8z" stroke="none"/><path d="M75,4.217157287525381L76.41715728752538,2.8L81,2.8L81,3.2L76.58284271247462,3.2L75.28284271247462,4.5L76.58284271247462,5.8L78.08284271247462,5.8L79.64142135623732,7.358578643762691L79.35857864376268,7.641421356237309L77.91715728752538,6.2L76.41715728752538,6.2L75.2,4.9828427124746195L75.2,7.417157287525381L79.58284271247462,11.8L80.91715728752538,11.8L82.3,10.41715728752538L82.3,4.5L82.7,4.5L82.7,10.58284271247462L81.08284271247462,12.2L79.41715728752538,12.2L74.8,7.582842712474619L74.8,4.582842712474619L73.41715728752538,3.2L70.58284271247462,3.2L67.7,6.082842712474619L67.7,7.5L67.3,7.5L67.3,5.917157287525381L70.41715728752538,2.8L73.58284271247462,2.8z" stroke="none"/><path d="M58.64142135623731,7.358578643762691L58.35857864376269,7.641421356237309L56.85857864376269,6.141421356237309L57.14142135623731,5.858578643762691z" stroke="none"/><path d="M69.14142135623732,7.641421356237309L68.85857864376268,7.358578643762691L71.85857864376268,4.358578643762691L72.14142135623732,4.641421356237309z" stroke="none"/><path d="M61.3,3L61.7,3L61.7,7.5L61.3,7.5z" stroke="none"/><path d="M94.5,4.7L94.5,4.3L97.41715728752538,4.3L98.85857864376268,2.8585786437626903L99.14142135623732,3.1414213562373097L97.58284271247462,4.7z" stroke="none"/><path d="M81.2,9L80.8,9L80.8,6.082842712474619L79.41715728752538,4.7L78,4.7L78,4.3L79.58284271247462,4.3L81.2,5.917157287525381z" stroke="none"/><path d="M63,12.2L63,11.8L65.91715728752538,11.8L67.3,10.41715728752538L67.3,9L67.7,9L67.7,10.58284271247462L66.08284271247462,12.2z" stroke="none"/><path d="M29.85857864376269,10.35857864376269L30.14142135623731,10.64142135623731L28.58284271247462,12.2L22.41715728752538,12.2L20.8,10.58284271247462L20.8,7.417157287525381L22.41715728752538,5.8L24,5.8L24,6.2L22.58284271247462,6.2L21.2,7.582842712474619L21.2,10.41715728752538L22.58284271247462,11.8L28.41715728752538,11.8z" stroke="none"/><path d="M37.5,2.8L37.5,3.2L30,3.2L30,2.8z" stroke="none"/><path d="M43.7,9L43.3,9L43.3,7.582842712474619L41.917157287525384,6.2L36,6.2L36,5.8L42.082842712474616,5.8L43.7,7.417157287525381z" stroke="none"/><path d="M13.5,2.8L13.5,3.2L12.08284271247462,3.2L10.58284271247462,4.7L9.08284271247462,4.7L7.582842712474619,6.2L4.5,6.2L4.5,5.8L7.417157287525381,5.8L8.91715728752538,4.3L10.41715728752538,4.3L11.91715728752538,2.8z" stroke="none"/><path d="M54,12.2L54,11.8L55.417157287525384,11.8L56.917157287525384,10.3L61.417157287525384,10.3L62.8,8.91715728752538L62.8,7.5L63.2,7.5L63.2,9.08284271247462L61.582842712474616,10.7L57.082842712474616,10.7L55.582842712474616,12.2z" stroke="none"/><path d="M27.14142135623731,9.14142135623731L26.85857864376269,8.85857864376269L28.41715728752538,7.3L30.08284271247462,7.3L31.7,8.91715728752538L31.7,12.08284271247462L30.08284271247462,13.7L19.41715728752538,13.7L17.91715728752538,12.2L16.5,12.2L16.5,11.8L18.08284271247462,11.8L19.58284271247462,13.3L29.91715728752538,13.3L31.3,11.91715728752538L31.3,9.08284271247462L29.91715728752538,7.7L28.58284271247462,7.7z" stroke="none"/><path d="M6.141421356237309,4.641421356237309L5.858578643762691,4.358578643762691L7.417157287525381,2.8L8.91715728752538,2.8L10.41715728752538,1.3L15.08284271247462,1.3L16.58284271247462,2.8L18,2.8L18,3.2L16.41715728752538,3.2L14.91715728752538,1.7L10.58284271247462,1.7L9.08284271247462,3.2L7.582842712474619,3.2z" stroke="none"/><path d="M41.8,9L42.2,9L42.2,10.41715728752538L43.582842712474616,11.8L46.417157287525384,11.8L49.417157287525384,8.8L58.5,8.8L58.5,9.2L49.582842712474616,9.2L46.582842712474616,12.2L43.417157287525384,12.2L41.8,10.58284271247462z" stroke="none"/><path d="M42.14142135623731,4.358578643762691L41.85857864376269,4.641421356237309L38.917157287525384,1.7L21.08284271247462,1.7L19.7,3.082842712474619L19.7,4.582842712474619L18.08284271247462,6.2L15.08284271247462,6.2L13.58284271247462,7.7L12,7.7L12,7.3L13.41715728752538,7.3L14.91715728752538,5.8L17.91715728752538,5.8L19.3,4.417157287525381L19.3,2.917157287525381L20.91715728752538,1.3L39.082842712474616,1.3z" stroke="none"/><path d="M73.5,10.3L73.5,10.7L72.08284271247462,10.7L70.58284271247462,12.2L69.08284271247462,12.2L67.58284271247462,13.7L40.417157287525384,13.7L35.917157287525384,9.2L34.5,9.2L34.5,8.8L36.082842712474616,8.8L40.582842712474616,13.3L67.41715728752538,13.3L68.91715728752538,11.8L70.41715728752538,11.8L71.91715728752538,10.3z" stroke="none"/></svg>