<svg version="1.1" width="105" height="15" xmlns="http://www.w3.org/2000/svg"><path d="M94.3,7.582842712474619L92.91715728752538,6.2L91.58284271247462,6.2L90.2,7.582842712474619L90.2,9L89.8,9L89.8,7.417157287525381L91.41715728752538,5.8L93.08284271247462,5.8L94.7,7.417157287525381L94.7,8.8L97.5,8.8L97.5,9.2L94.7,9.2L94.7,10.41715728752538L96.08284271247462,11.8L97.41715728752538,11.8L98.91715728752538,10.3L100.5,10.3L100.5,10.7L99.08284271247462,10.7L97.58284271247462,12.2L95.91715728752538,12.2L94.3,10.58284271247462z" stroke="none"/><path d="M33,10.3L33,10.7L28.7,10.7L28.7,11.91715728752538L30.08284271247462,13.3L32.917157287525384,13.3L34.3,11.91715728752538L34.3,10.5L34.7,10.5L34.7,12.08284271247462L33.082842712474616,13.7L29.91715728752538,13.7L28.3,12.08284271247462L28.3,10.7L22.58284271247462,10.7L21.08284271247462,12.2L19.5,12.2L19.5,11.8L20.91715728752538,11.8L22.41715728752538,10.3z" stroke="none"/><path d="M37.3,4.3L37.3,3.082842712474619L35.917157287525384,1.7L31.58284271247462,1.7L30.08284271247462,3.2L28.58284271247462,3.2L25.58284271247462,6.2L19.58284271247462,6.2L18.08284271247462,7.7L15,7.7L15,7.3L17.91715728752538,7.3L19.41715728752538,5.8L25.41715728752538,5.8L28.41715728752538,2.8L29.91715728752538,2.8L31.41715728752538,1.3L36.082842712474616,1.3L37.7,2.917157287525381L37.7,4.3L38.917157287525384,4.3L40.417157287525384,2.8L51,2.8L51,3.2L40.582842712474616,3.2L39.082842712474616,4.7L37.7,4.7L37.7,5.917157287525381L39.082842712474616,7.3L46.417157287525384,7.3L47.917157287525384,5.8L58.5,5.8L58.5,6.2L48.082842712474616,6.2L46.582842712474616,7.7L38.917157287525384,7.7L37.3,6.082842712474619L37.3,4.7L33.082842712474616,4.7L31.58284271247462,6.2L28.5,6.2L28.5,5.8L31.41715728752538,5.8L32.917157287525384,4.3z" stroke="none"/><path d="M58.3,10.3L58.3,9.08284271247462L56.917157287525384,7.7L51.082842712474616,7.7L49.582842712474616,9.2L42,9.2L42,8.8L49.417157287525384,8.8L50.917157287525384,7.3L57.082842712474616,7.3L58.7,8.91715728752538L58.7,10.3L64.58284271247462,10.3L66.08284271247462,11.8L69,11.8L69,12.2L65.91715728752538,12.2L64.41715728752538,10.7L58.7,10.7L58.7,11.91715728752538L60.082842712474616,13.3L74.91715728752538,13.3L76.41715728752538,11.8L77.91715728752538,11.8L79.3,10.41715728752538L79.3,9L79.7,9L79.7,10.58284271247462L78.08284271247462,12.2L76.58284271247462,12.2L75.08284271247462,13.7L59.917157287525384,13.7L58.3,12.08284271247462L58.3,10.7L55.582842712474616,10.7L54.082842712474616,12.2L45,12.2L45,11.8L53.917157287525384,11.8L55.417157287525384,10.3z" stroke="none"/><path d="M34.5,2.8L34.5,3.2L33,3.2L33,2.8z" stroke="none"/><path d="M6,7.3L6,7.7L3,7.7L3,7.3z" stroke="none"/><path d="M10.64142135623731,4.641421356237309L10.35857864376269,4.358578643762691L11.91715728752538,2.8L13.5,2.8L13.5,3.2L12.08284271247462,3.2z" stroke="none"/><path d="M9.14142135623731,7.358578643762691L8.85857864376269,7.641421356237309L7.417157287525381,6.2L6,6.2L6,5.8L7.582842712474619,5.8z" stroke="none"/><path d="M7.5,10.7L7.5,10.3L8.91715728752538,10.3L10.3,8.91715728752538L10.3,7.5L10.7,7.5L10.7,9.08284271247462L9.08284271247462,10.7z" stroke="none"/><path d="M65.8,4.5L66.2,4.5L66.2,5.917157287525381L67.58284271247462,7.3L68.91715728752538,7.3L70.3,5.917157287525381L70.3,4.5L70.7,4.5L70.7,6.082842712474619L69.08284271247462,7.7L67.41715728752538,7.7L65.8,6.082842712474619z" stroke="none"/><path d="M49.5,10.3L49.5,10.7L40.417157287525384,10.7L38.917157287525384,9.2L37.582842712474616,9.2L36.2,10.58284271247462L36.2,11.91715728752538L37.582842712474616,13.3L40.417157287525384,13.3L41.917157287525384,11.8L43.5,11.8L43.5,12.2L42.082842712474616,12.2L40.582842712474616,13.7L37.417157287525384,13.7L35.8,12.08284271247462L35.8,10.41715728752538L37.417157287525384,8.8L39.082842712474616,8.8L40.582842712474616,10.3z" stroke="none"/><path d="M97.5,5.8L97.5,6.2L95.91715728752538,6.2L94.41715728752538,4.7L90.08284271247462,4.7L87.2,7.582842712474619L87.2,10.41715728752538L88.58284271247462,11.8L89.91715728752538,11.8L91.3,10.41715728752538L91.3,9L91.7,9L91.7,10.58284271247462L90.08284271247462,12.2L88.41715728752538,12.2L86.8,10.58284271247462L86.8,7.417157287525381L89.91715728752538,4.3L94.58284271247462,4.3L96.08284271247462,5.8z" stroke="none"/><path d="M78,8.8L78,9.2L70.58284271247462,9.2L69.08284271247462,10.7L67.5,10.7L67.5,10.3L68.91715728752538,10.3L70.41715728752538,8.8z" stroke="none"/><path d="M11.85857864376269,10.64142135623731L12.14142135623731,10.35857864376269L13.58284271247462,11.8L15.08284271247462,11.8L16.58284271247462,13.3L22.41715728752538,13.3L23.91715728752538,11.8L25.5,11.8L25.5,12.2L24.08284271247462,12.2L22.58284271247462,13.7L16.41715728752538,13.7L14.91715728752538,12.2L13.41715728752538,12.2z" stroke="none"/><path d="M99.2,6L98.8,6L98.8,4.582842712474619L97.41715728752538,3.2L85.5,3.2L85.5,2.8L97.58284271247462,2.8L99.2,4.417157287525381z" stroke="none"/><path d="M82.5,5.8L82.5,6.2L80.91715728752538,6.2L77.91715728752538,3.2L69.08284271247462,3.2L67.64142135623732,4.641421356237309L67.35857864376268,4.358578643762691L68.91715728752538,2.8L78.08284271247462,2.8L81.08284271247462,5.8z" stroke="none"/><path d="M6,4.7L6,4.3L7.417157287525381,4.3L10.41715728752538,1.3L19.58284271247462,1.3L22.64142135623731,4.358578643762691L22.35857864376269,4.641421356237309L19.41715728752538,1.7L10.58284271247462,1.7L7.582842712474619,4.7z" stroke="none"/><path d="M83.8,9L84.2,9L84.2,10.41715728752538L87.08284271247462,13.3L100.41715728752538,13.3L101.8,11.91715728752538L101.8,4.5L102.2,4.5L102.2,12.08284271247462L100.58284271247462,13.7L86.91715728752538,13.7L83.8,10.58284271247462z" stroke="none"/><path d="M34.5,7.3L34.5,7.7L21.08284271247462,7.7L19.58284271247462,9.2L13.41715728752538,9.2L11.8,7.582842712474619L11.8,6L12.2,6L12.2,7.417157287525381L13.58284271247462,8.8L19.41715728752538,8.8L20.91715728752538,7.3z" stroke="none"/><path d="M42,4.7L42,4.3L59.917157287525384,4.3L61.417157287525384,2.8L65.91715728752538,2.8L67.41715728752538,1.3L81.08284271247462,1.3L84.08284271247462,4.3L85.5,4.3L85.5,4.7L83.91715728752538,4.7L80.91715728752538,1.7L67.58284271247462,1.7L66.08284271247462,3.2L61.582842712474616,3.2L60.082842712474616,4.7z" stroke="none"/></svg>