<svg version="1.1" width="105" height="15" xmlns="http://www.w3.org/2000/svg"><path d="M36,4.3L36,4.7L28.7,4.7L28.7,6.082842712474619L27.08284271247462,7.7L22.5,7.7L22.5,7.3L26.91715728752538,7.3L28.3,5.917157287525381L28.3,4.7L25.5,4.7L25.5,4.3z" stroke="none"/><path d="M39.082842712474616,4.3L66,4.3L66,4.7L39.082842712474616,4.7L37.582842712474616,6.2L33,6.2L33,5.8L37.417157287525384,5.8L38.71715728752538,4.5L37.417157287525384,3.2L21.08284271247462,3.2L19.64142135623731,4.641421356237309L19.35857864376269,4.358578643762691L20.91715728752538,2.8L37.582842712474616,2.8z" stroke="none"/><path d="M20.8,10.3L20.8,9.08284271247462L19.35857864376269,7.641421356237309L19.64142135623731,7.358578643762691L21.2,8.91715728752538L21.2,10.3L30.08284271247462,10.3L33.082842712474616,13.3L49.417157287525384,13.3L50.917157287525384,11.8L52.5,11.8L52.5,12.2L51.082842712474616,12.2L49.582842712474616,13.7L32.917157287525384,13.7L29.91715728752538,10.7L21.2,10.7L21.2,12.08284271247462L19.58284271247462,13.7L16.41715728752538,13.7L14.91715728752538,12.2L7.417157287525381,12.2L5.8,10.58284271247462L5.8,9L6.2,9L6.2,10.41715728752538L7.582842712474619,11.8L15.08284271247462,11.8L16.58284271247462,13.3L19.41715728752538,13.3L20.8,11.91715728752538L20.8,10.7L9,10.7L9,10.3z" stroke="none"/><path d="M64.3,8.8L64.3,7.582842712474619L62.917157287525384,6.2L58.582842712474616,6.2L57.082842712474616,7.7L49.582842712474616,7.7L45.082842712474616,12.2L42,12.2L42,11.8L44.917157287525384,11.8L49.417157287525384,7.3L56.917157287525384,7.3L58.417157287525384,5.8L63.082842712474616,5.8L64.7,7.417157287525381L64.7,8.8L70.5,8.8L70.5,9.2L64.7,9.2L64.7,10.41715728752538L66.08284271247462,11.8L67.41715728752538,11.8L68.91715728752538,10.3L84.08284271247462,10.3L85.58284271247462,11.8L87,11.8L87,12.2L85.41715728752538,12.2L83.91715728752538,10.7L69.08284271247462,10.7L67.58284271247462,12.2L65.91715728752538,12.2L64.3,10.58284271247462L64.3,9.2L62.917157287525384,9.2L61.417157287525384,7.7L60,7.7L60,7.3L61.582842712474616,7.3L63.082842712474616,8.8z" stroke="none"/><path d="M88.7,4.5L88.3,4.5L88.3,3L88.7,3z" stroke="none"/><path d="M33.14142135623731,10.35857864376269L32.85857864376269,10.64142135623731L31.35857864376269,9.14142135623731L31.64142135623731,8.85857864376269z" stroke="none"/><path d="M91.5,7.7L91.5,7.3L94.5,7.3L94.5,7.7z" stroke="none"/><path d="M100.3,6L100.7,6L100.7,9L100.3,9z" stroke="none"/><path d="M92.85857864376268,4.358578643762691L93.14142135623732,4.641421356237309L91.58284271247462,6.2L90,6.2L90,5.8L91.41715728752538,5.8z" stroke="none"/><path d="M34.64142135623731,12.14142135623731L34.35857864376269,11.85857864376269L37.35857864376269,8.85857864376269L37.64142135623731,9.14142135623731z" stroke="none"/><path d="M81,11.8L81,12.2L73.5,12.2L73.5,11.8z" stroke="none"/><path d="M54,3.2L54,2.8L61.5,2.8L61.5,3.2z" stroke="none"/><path d="M79.5,9.2L79.5,8.8L83.91715728752538,8.8L85.41715728752538,7.3L87,7.3L87,7.7L85.58284271247462,7.7L84.08284271247462,9.2z" stroke="none"/><path d="M75,6.2L75,5.8L79.41715728752538,5.8L80.91715728752538,4.3L82.5,4.3L82.5,4.7L81.08284271247462,4.7L79.58284271247462,6.2z" stroke="none"/><path d="M82.35857864376268,5.858578643762691L82.64142135623732,6.141421356237309L81.08284271247462,7.7L78.08284271247462,7.7L76.58284271247462,9.2L75,9.2L75,8.8L76.41715728752538,8.8L77.91715728752538,7.3L80.91715728752538,7.3z" stroke="none"/><path d="M102.2,10.5L101.8,10.5L101.8,8.91715728752538L103.3,7.417157287525381L103.3,6.082842712474619L101.91715728752538,4.7L99.08284271247462,4.7L97.58284271247462,6.2L94.5,6.2L94.5,5.8L97.41715728752538,5.8L98.91715728752538,4.3L102.08284271247462,4.3L103.7,5.917157287525381L103.7,7.582842712474619L102.2,9.08284271247462z" stroke="none"/><path d="M81,3.2L81,2.8L82.41715728752538,2.8L83.91715728752538,1.3L90.08284271247462,1.3L91.58284271247462,2.8L94.58284271247462,2.8L96.14142135623732,4.358578643762691L95.85857864376268,4.641421356237309L94.41715728752538,3.2L91.41715728752538,3.2L89.91715728752538,1.7L84.08284271247462,1.7L82.58284271247462,3.2z" stroke="none"/><path d="M4.5,4.7L4.5,4.3L16.58284271247462,4.3L18.08284271247462,5.8L19.5,5.8L19.5,6.2L17.91715728752538,6.2L16.41715728752538,4.7z" stroke="none"/><path d="M97.5,10.3L97.5,10.7L93.08284271247462,10.7L91.58284271247462,12.2L90.08284271247462,12.2L88.58284271247462,13.7L58.417157287525384,13.7L53.917157287525384,9.2L51,9.2L51,8.8L54.082842712474616,8.8L58.582842712474616,13.3L88.41715728752538,13.3L89.91715728752538,11.8L91.41715728752538,11.8L92.91715728752538,10.3z" stroke="none"/><path d="M67.7,4.5L67.3,4.5L67.3,3.082842712474619L65.91715728752538,1.7L4.582842712474619,1.7L3.2,3.082842712474619L3.2,5.917157287525381L4.582842712474619,7.3L18,7.3L18,7.7L4.417157287525381,7.7L2.8,6.082842712474619L2.8,2.917157287525381L4.417157287525381,1.3L66.08284271247462,1.3L67.7,2.917157287525381z" stroke="none"/></svg>