<svg version="1.1" width="105" height="15" xmlns="http://www.w3.org/2000/svg"><path d="M74.8,7.3L74.8,6.082842712474619L73.41715728752538,4.7L72.08284271247462,4.7L70.58284271247462,6.2L69.08284271247462,6.2L67.64142135623732,7.641421356237309L67.35857864376268,7.358578643762691L68.91715728752538,5.8L70.41715728752538,5.8L71.91715728752538,4.3L73.58284271247462,4.3L75.2,5.917157287525381L75.2,7.3L90,7.3L90,7.7L70.58284271247462,7.7L69.14142135623732,9.14142135623731L68.85857864376268,8.85857864376269L70.41715728752538,7.3z" stroke="none"/><path d="M58.582842712474616,10.3L60.082842712474616,11.8L61.5,11.8L61.5,12.2L59.917157287525384,12.2L58.417157287525384,10.7L54.2,10.7L54.2,11.91715728752538L55.582842712474616,13.3L62.917157287525384,13.3L64.3,11.91715728752538L64.3,9L64.7,9L64.7,12.08284271247462L63.082842712474616,13.7L55.417157287525384,13.7L53.8,12.08284271247462L53.8,10.7L44.917157287525384,10.7L43.417157287525384,9.2L37.5,9.2L37.5,8.8L43.582842712474616,8.8L45.082842712474616,10.3z" stroke="none"/><path d="M80.91715728752538,10.3L82.41715728752538,8.8L84,8.8L84,9.2L82.58284271247462,9.2L81.48284271247462,10.3L82.58284271247462,10.3L84.08284271247462,11.8L85.5,11.8L85.5,12.2L83.91715728752538,12.2L82.41715728752538,10.7L81.2,10.7L81.2,11.91715728752538L82.58284271247462,13.3L89.91715728752538,13.3L91.41715728752538,11.8L93,11.8L93,12.2L91.58284271247462,12.2L90.08284271247462,13.7L82.41715728752538,13.7L80.8,12.08284271247462L80.8,10.7L67.41715728752538,10.7L65.8,9.08284271247462L65.8,7.582842712474619L64.41715728752538,6.2L63.082842712474616,6.2L61.7,7.582842712474619L61.7,10.5L61.3,10.5L61.3,7.417157287525381L62.917157287525384,5.8L64.58284271247462,5.8L66.2,7.417157287525381L66.2,8.91715728752538L67.58284271247462,10.3z" stroke="none"/><path d="M38.8,5.8L38.8,4.417157287525381L40.35857864376269,2.8585786437626903L40.64142135623731,3.1414213562373097L39.2,4.582842712474619L39.2,5.8L46.582842712474616,5.8L48.082842712474616,7.3L54,7.3L54,7.7L47.917157287525384,7.7L46.417157287525384,6.2L39.082842712474616,6.2L37.582842712474616,7.7L36,7.7L36,7.3L37.417157287525384,7.3L38.51715728752538,6.2L34.582842712474616,6.2L31.58284271247462,9.2L23.91715728752538,9.2L22.35857864376269,7.641421356237309L22.64142135623731,7.358578643762691L24.08284271247462,8.8L31.41715728752538,8.8L34.417157287525384,5.8z" stroke="none"/><path d="M94.3,6L94.7,6L94.7,7.5L94.3,7.5z" stroke="none"/><path d="M6.2,6L5.8,6L5.8,4.5L6.2,4.5z" stroke="none"/><path d="M85.5,10.7L85.5,10.3L87,10.3L87,10.7z" stroke="none"/><path d="M2.8585786437626903,3.1414213562373097L3.1414213562373097,2.8585786437626903L4.641421356237309,4.358578643762691L4.358578643762691,4.641421356237309z" stroke="none"/><path d="M19.7,9L19.3,9L19.3,6L19.7,6z" stroke="none"/><path d="M97.7,12L97.3,12L97.3,9L97.7,9z" stroke="none"/><path d="M18,10.3L18,10.7L16.58284271247462,10.7L15.08284271247462,12.2L13.5,12.2L13.5,11.8L14.91715728752538,11.8L16.41715728752538,10.3z" stroke="none"/><path d="M7.5,9.2L7.5,8.8L13.5,8.8L13.5,9.2z" stroke="none"/><path d="M27,5.8L27,6.2L22.41715728752538,6.2L20.91715728752538,4.7L16.5,4.7L16.5,4.3L21.08284271247462,4.3L22.58284271247462,5.8z" stroke="none"/><path d="M85.5,3.2L85.5,2.8L96.08284271247462,2.8L97.64142135623732,4.358578643762691L97.35857864376268,4.641421356237309L95.91715728752538,3.2z" stroke="none"/><path d="M28.7,7.5L28.3,7.5L28.3,4.582842712474619L26.91715728752538,3.2L15,3.2L15,2.8L27.08284271247462,2.8L28.7,4.417157287525381z" stroke="none"/><path d="M67.5,3.2L67.5,2.8L76.58284271247462,2.8L79.58284271247462,5.8L84,5.8L84,6.2L79.41715728752538,6.2L76.41715728752538,3.2z" stroke="none"/><path d="M42,11.8L42,12.2L22.5,12.2L22.5,11.8z" stroke="none"/><path d="M40.5,10.3L40.5,10.7L21.08284271247462,10.7L19.58284271247462,12.2L18.08284271247462,12.2L16.58284271247462,13.7L2.917157287525381,13.7L1.3,12.08284271247462L1.3,10.41715728752538L2.917157287525381,8.8L4.582842712474619,8.8L6.082842712474619,10.3L9.08284271247462,10.3L10.58284271247462,11.8L12,11.8L12,12.2L10.41715728752538,12.2L8.91715728752538,10.7L5.917157287525381,10.7L4.417157287525381,9.2L3.082842712474619,9.2L1.7,10.58284271247462L1.7,11.91715728752538L3.082842712474619,13.3L16.41715728752538,13.3L17.91715728752538,11.8L19.41715728752538,11.8L20.91715728752538,10.3z" stroke="none"/><path d="M96,8.8L96,9.2L92.91715728752538,9.2L91.3,7.582842712474619L91.3,6.082842712474619L89.91715728752538,4.7L80.91715728752538,4.7L77.91715728752538,1.7L66.08284271247462,1.7L63.082842712474616,4.7L60.082842712474616,4.7L58.582842712474616,6.2L54,6.2L54,5.8L58.417157287525384,5.8L59.917157287525384,4.3L62.917157287525384,4.3L65.91715728752538,1.3L78.08284271247462,1.3L81.08284271247462,4.3L90.08284271247462,4.3L91.7,5.917157287525381L91.7,7.417157287525381L93.08284271247462,8.8z" stroke="none"/><path d="M61.5,2.8L61.5,3.2L43.417157287525384,3.2L41.917157287525384,1.7L12.08284271247462,1.7L10.7,3.082842712474619L10.7,4.417157287525381L12.08284271247462,5.8L13.41715728752538,5.8L14.85857864376269,4.358578643762691L15.14142135623731,4.641421356237309L13.58284271247462,6.2L11.91715728752538,6.2L10.3,4.582842712474619L10.3,2.917157287525381L11.91715728752538,1.3L42.082842712474616,1.3L43.582842712474616,2.8z" stroke="none"/></svg>