<svg version="1.1" width="30" height="15" xmlns="http://www.w3.org/2000/svg"><path d="M11.4,5.95857864376269L11.4,5.45857864376269L11.9,4.95857864376269L11.9,4.5L12.1,4.5L12.1,5.04142135623731L11.6,5.54142135623731L11.6,6.04142135623731L11.14142135623731,6.5L12.070710678118655,7.429289321881345L11.929289321881345,7.570710678118655L11,6.641421356237309L10.6,7.04142135623731L10.6,7.54142135623731L9.070710678118655,9.070710678118655L8.929289321881345,8.929289321881345L10.4,7.45857864376269L10.4,6.95857864376269z" stroke="none"/><path d="M19.541421356237308,5.4L22.458578643762692,5.4L23.458578643762692,4.4L25.5,4.4L25.5,4.6L23.541421356237308,4.6L22.541421356237308,5.6L19.541421356237308,5.6L19.041421356237308,6.1L18.541421356237308,6.1L18.041421356237308,6.6L17.541421356237308,6.6L17.041421356237308,7.1L16.041421356237308,7.1L15.54142135623731,7.6L15,7.6L15,7.4L15.45857864376269,7.4L15.95857864376269,6.9L16.958578643762692,6.9L17.458578643762692,6.4L17.958578643762692,6.4L18.458578643762692,5.9L18.958578643762692,5.9L19.35857864376269,5.5L18.958578643762692,5.1L18.458578643762692,5.1L17.929289321881345,4.570710678118655L18.070710678118655,4.429289321881345L18.541421356237308,4.9L19.041421356237308,4.9z" stroke="none"/><path d="M8.9,5.9L8.9,5.54142135623731L8.45857864376269,5.1L7.95857864376269,5.1L5.929289321881345,3.0707106781186546L6.070710678118655,2.9292893218813454L8.04142135623731,4.9L8.54142135623731,4.9L9.1,5.45857864376269L9.1,5.9L9.45857864376269,5.9L10.9,4.45857864376269L10.9,3.9585786437626904L11.45857864376269,3.4L12.54142135623731,3.4L13.1,3.9585786437626904L13.1,5.95857864376269L13.6,6.45857864376269L13.6,7.5L13.4,7.5L13.4,6.54142135623731L12.9,6.04142135623731L12.9,4.04142135623731L12.45857864376269,3.6L11.54142135623731,3.6L11.1,4.04142135623731L11.1,4.54142135623731L9.54142135623731,6.1L9.1,6.1L9.1,7.5L8.9,7.5L8.9,6.1L8.54142135623731,6.1L8.1,6.54142135623731L8.1,7.04142135623731L7.570710678118655,7.570710678118655L7.429289321881345,7.429289321881345L7.9,6.95857864376269L7.9,6.45857864376269L8.45857864376269,5.9z" stroke="none"/><path d="M9.04142135623731,10.4L9.45857864376269,10.4L10.45857864376269,9.4L10.95857864376269,9.4L11.45857864376269,8.9L12,8.9L12,9.1L11.54142135623731,9.1L11.04142135623731,9.6L10.54142135623731,9.6L9.54142135623731,10.6L9.1,10.6L9.1,10.95857864376269L9.54142135623731,11.4L10.45857864376269,11.4L11.45857864376269,10.4L13.5,10.4L13.5,10.6L11.54142135623731,10.6L10.54142135623731,11.6L9.45857864376269,11.6L8.9,11.04142135623731L8.9,10.6L7.95857864376269,10.6L6.9,9.54142135623731L6.9,8.54142135623731L6.45857864376269,8.1L4.04142135623731,8.1L3.6,8.54142135623731L3.6,9.45857864376269L4.1,9.95857864376269L4.1,11.04142135623731L3.0707106781186546,12.070710678118655L2.9292893218813454,11.929289321881345L3.9,10.95857864376269L3.9,10.04142135623731L3.4,9.54142135623731L3.4,8.45857864376269L3.9585786437626904,7.9L6.54142135623731,7.9L7.1,8.45857864376269L7.1,9.45857864376269L8.04142135623731,10.4L8.758578643762691,10.4L7.429289321881345,9.070710678118655L7.570710678118655,8.929289321881345z" stroke="none"/><path d="M6.1,10.5L5.9,10.5L5.9,9L6.1,9z" stroke="none"/><path d="M21,3.1L21,2.9L22.5,2.9L22.5,3.1z" stroke="none"/><path d="M7.5,11.9L7.5,12.1L6,12.1L6,11.9z" stroke="none"/><path d="M18.1,9L17.9,9L17.9,7.5L18.1,7.5z" stroke="none"/><path d="M18.070710678118655,11.929289321881345L17.929289321881345,12.070710678118655L16.429289321881345,10.570710678118655L16.570710678118655,10.429289321881345z" stroke="none"/><path d="M4.429289321881345,2.9292893218813454L4.570710678118655,3.0707106781186546L3.0707106781186546,4.570710678118655L2.9292893218813454,4.429289321881345z" stroke="none"/><path d="M24.070710678118655,10.429289321881345L23.929289321881345,10.570710678118655L22.958578643762692,9.6L22.041421356237308,9.6L21.070710678118655,10.570710678118655L20.929289321881345,10.429289321881345L21.958578643762692,9.4L23.041421356237308,9.4z" stroke="none"/><path d="M25.5,11.9L25.5,12.1L24.458578643762692,12.1L23.958578643762692,11.6L23.458578643762692,11.6L22.429289321881345,10.570710678118655L22.570710678118655,10.429289321881345L23.541421356237308,11.4L24.041421356237308,11.4L24.541421356237308,11.9z" stroke="none"/><path d="M19.570710678118655,9.070710678118655L19.429289321881345,8.929289321881345L21.458578643762692,6.9L23.458578643762692,6.9L24.458578643762692,5.9L24.958578643762692,5.9L25.458578643762692,5.4L25.958578643762692,5.4L26.4,4.95857864376269L26.4,2.5414213562373096L25.958578643762692,2.1L20.041421356237308,2.1L19.541421356237308,2.6L19.041421356237308,2.6L18.041421356237308,3.6L17.541421356237308,3.6L17.1,4.04142135623731L17.1,5.54142135623731L16.570710678118655,6.070710678118655L16.429289321881345,5.929289321881345L16.9,5.45857864376269L16.9,3.9585786437626904L17.458578643762692,3.4L17.958578643762692,3.4L18.958578643762692,2.4L19.458578643762692,2.4L19.958578643762692,1.9L26.041421356237308,1.9L26.6,2.4585786437626904L26.6,5.04142135623731L26.041421356237308,5.6L25.541421356237308,5.6L25.041421356237308,6.1L24.541421356237308,6.1L23.541421356237308,7.1L21.541421356237308,7.1z" stroke="none"/><path d="M13.5,9.1L13.5,8.9L15.54142135623731,8.9L16.041421356237308,9.4L17.041421356237308,9.4L17.541421356237308,9.9L19.958578643762692,9.9L20.458578643762692,9.4L20.958578643762692,9.4L21.958578643762692,8.4L22.458578643762692,8.4L22.958578643762692,7.9L23.458578643762692,7.9L24.958578643762692,6.4L25.458578643762692,6.4L25.958578643762692,5.9L26.458578643762692,5.9L26.9,5.45857864376269L26.9,2.0414213562373096L26.458578643762692,1.6L19.041421356237308,1.6L18.041421356237308,2.6L17.541421356237308,2.6L15.54142135623731,4.6L15,4.6L15,4.4L15.45857864376269,4.4L17.458578643762692,2.4L17.958578643762692,2.4L18.958578643762692,1.4L26.541421356237308,1.4L27.1,1.9585786437626904L27.1,5.54142135623731L26.541421356237308,6.1L26.041421356237308,6.1L25.541421356237308,6.6L25.041421356237308,6.6L23.541421356237308,8.1L23.041421356237308,8.1L22.541421356237308,8.6L22.041421356237308,8.6L21.041421356237308,9.6L20.541421356237308,9.6L20.041421356237308,10.1L17.458578643762692,10.1L16.958578643762692,9.6L15.95857864376269,9.6L15.45857864376269,9.1z" stroke="none"/><path d="M21,4.6L21,4.4L22.458578643762692,4.4L23.958578643762692,2.9L25.5,2.9L25.5,3.1L24.041421356237308,3.1L22.541421356237308,4.6z" stroke="none"/><path d="M5.929289321881345,5.929289321881345L6.070710678118655,6.070710678118655L5.54142135623731,6.6L5.04142135623731,6.6L4.04142135623731,7.6L3.5414213562373096,7.6L3.1,8.04142135623731L3.1,10.5L2.9,10.5L2.9,7.95857864376269L3.4585786437626904,7.4L3.9585786437626904,7.4L4.95857864376269,6.4L5.45857864376269,6.4z" stroke="none"/><path d="M9,2.9L9,3.1L7.45857864376269,3.1L6.45857864376269,2.1L4.04142135623731,2.1L3.0707106781186546,3.0707106781186546L2.9292893218813454,2.9292893218813454L3.9585786437626904,1.9L6.54142135623731,1.9L7.54142135623731,2.9z" stroke="none"/><path d="M26.929289321881345,11.929289321881345L27.070710678118655,12.070710678118655L26.041421356237308,13.1L24.458578643762692,13.1L23.958578643762692,12.6L20.458578643762692,12.6L19.958578643762692,12.1L19.5,12.1L19.5,11.9L20.041421356237308,11.9L20.541421356237308,12.4L24.041421356237308,12.4L24.541421356237308,12.9L25.958578643762692,12.9z" stroke="none"/><path d="M25.570710678118655,10.570710678118655L25.429289321881345,10.429289321881345L25.9,9.95857864376269L25.9,8.95857864376269L26.4,8.45857864376269L26.4,6.95857864376269L27.4,5.95857864376269L27.4,1.5414213562373096L26.958578643762692,1.1L18.541421356237308,1.1L17.541421356237308,2.1L17.041421356237308,2.1L15.54142135623731,3.6L14.54142135623731,3.6L14.1,4.04142135623731L14.1,4.95857864376269L15.070710678118655,5.929289321881345L14.929289321881345,6.070710678118655L13.9,5.04142135623731L13.9,3.9585786437626904L14.45857864376269,3.4L15.45857864376269,3.4L16.958578643762692,1.9L17.458578643762692,1.9L18.458578643762692,0.9L27.041421356237308,0.9L27.6,1.4585786437626904L27.6,6.04142135623731L26.6,7.04142135623731L26.6,8.54142135623731L26.1,9.04142135623731L26.1,10.04142135623731z" stroke="none"/><path d="M16.5,11.9L16.5,12.1L9.04142135623731,12.1L8.04142135623731,13.1L5.45857864376269,13.1L4.9,12.54142135623731L4.9,10.04142135623731L4.4,9.54142135623731L4.4,9L4.6,9L4.6,9.45857864376269L5.1,9.95857864376269L5.1,12.45857864376269L5.54142135623731,12.9L7.95857864376269,12.9L8.95857864376269,11.9z" stroke="none"/></svg>