<svg version="1.1" width="30" height="15" xmlns="http://www.w3.org/2000/svg"><path d="M7.5,5.858578643762691L10.429289321881345,2.9292893218813454L10.570710678118655,3.0707106781186546L6.070710678118655,7.570710678118655L5.929289321881345,7.429289321881345L7.358578643762691,6L6.45857864376269,5.1L5.54142135623731,5.1L4.570710678118655,6.070710678118655L4.429289321881345,5.929289321881345L5.45857864376269,4.9L6.54142135623731,4.9z" stroke="none"/><path d="M11.9,11.4L11.9,11.04142135623731L11.45857864376269,10.6L7.5,10.6L7.5,10.4L11.54142135623731,10.4L12.1,10.95857864376269L12.1,11.45857864376269L12.6,11.95857864376269L12.6,12.45857864376269L13.04142135623731,12.9L18.458578643762692,12.9L19.429289321881345,11.929289321881345L19.570710678118655,12.070710678118655L18.541421356237308,13.1L12.95857864376269,13.1L12.4,12.54142135623731L12.4,12.04142135623731L11.95857864376269,11.6L11.04142135623731,11.6L10.54142135623731,12.1L9,12.1L9,11.9L10.45857864376269,11.9L10.95857864376269,11.4z" stroke="none"/><path d="M16.4,4.9L16.4,1.9585786437626904L16.958578643762692,1.4L19.041421356237308,1.4L20.541421356237308,2.9L21,2.9L21,3.1L20.458578643762692,3.1L18.958578643762692,1.6L17.041421356237308,1.6L16.6,2.0414213562373096L16.6,4.75857864376269L16.9,4.45857864376269L16.9,2.4585786437626904L17.458578643762692,1.9L18.541421356237308,1.9L21.070710678118655,4.429289321881345L20.929289321881345,4.570710678118655L18.458578643762692,2.1L17.541421356237308,2.1L17.1,2.5414213562373096L17.1,4.54142135623731L16.6,5.04142135623731L16.6,5.45857864376269L17.1,5.95857864376269L17.1,6.45857864376269L18.070710678118655,7.429289321881345L17.929289321881345,7.570710678118655L16.9,6.54142135623731L16.9,6.04142135623731L16.4,5.54142135623731L16.4,5.1L11.54142135623731,5.1L10.570710678118655,6.070710678118655L10.429289321881345,5.929289321881345L11.45857864376269,4.9z" stroke="none"/><path d="M8.4,8.9L8.4,8.54142135623731L7.95857864376269,8.1L7.04142135623731,8.1L6.54142135623731,8.6L5.45857864376269,8.6L4.95857864376269,8.1L4.04142135623731,8.1L3.6,8.54142135623731L3.6,10.04142135623731L3.0707106781186546,10.570710678118655L2.9292893218813454,10.429289321881345L3.4,9.95857864376269L3.4,8.45857864376269L3.9585786437626904,7.9L5.04142135623731,7.9L5.54142135623731,8.4L6.45857864376269,8.4L6.95857864376269,7.9L8.04142135623731,7.9L8.6,8.45857864376269L8.6,8.758578643762691L8.95857864376269,8.4L9.45857864376269,8.4L9.95857864376269,7.9L10.95857864376269,7.9L11.45857864376269,7.4L12,7.4L12,7.6L11.54142135623731,7.6L11.04142135623731,8.1L10.04142135623731,8.1L9.54142135623731,8.6L9.04142135623731,8.6L8.741421356237309,8.9L10.45857864376269,8.9L10.95857864376269,8.4L11.45857864376269,8.4L11.95857864376269,7.9L14.45857864376269,7.9L14.929289321881345,7.429289321881345L15.070710678118655,7.570710678118655L14.54142135623731,8.1L12.04142135623731,8.1L11.54142135623731,8.6L11.04142135623731,8.6L10.54142135623731,9.1L8.04142135623731,9.1L7.54142135623731,9.6L7.04142135623731,9.6L4.570710678118655,12.070710678118655L4.429289321881345,11.929289321881345L6.95857864376269,9.4L7.45857864376269,9.4L7.95857864376269,8.9z" stroke="none"/><path d="M4.6,10.5L4.4,10.5L4.4,9L4.6,9z" stroke="none"/><path d="M25.4,3L25.6,3L25.6,4.5L25.4,4.5z" stroke="none"/><path d="M16.5,10.6L16.5,10.4L18,10.4L18,10.6z" stroke="none"/><path d="M15,11.9L15,12.1L13.5,12.1L13.5,11.9z" stroke="none"/><path d="M17.9,3L18.1,3L18.1,4.5L17.9,4.5z" stroke="none"/><path d="M4.4,3L4.6,3L4.6,4.5L4.4,4.5z" stroke="none"/><path d="M22.5,10.4L22.5,10.6L21,10.6L21,10.4z" stroke="none"/><path d="M24.070710678118655,7.429289321881345L23.929289321881345,7.570710678118655L22.429289321881345,6.070710678118655L22.570710678118655,5.929289321881345z" stroke="none"/><path d="M5.929289321881345,5.929289321881345L6.070710678118655,6.070710678118655L5.04142135623731,7.1L3.9585786437626904,7.1L2.9292893218813454,6.070710678118655L3.0707106781186546,5.929289321881345L4.04142135623731,6.9L4.95857864376269,6.9z" stroke="none"/><path d="M25.429289321881345,8.929289321881345L25.570710678118655,9.070710678118655L24.541421356237308,10.1L23.458578643762692,10.1L22.429289321881345,9.070710678118655L22.570710678118655,8.929289321881345L23.541421356237308,9.9L24.458578643762692,9.9z" stroke="none"/><path d="M3.1,4.5L2.9,4.5L2.9,3.4585786437626904L3.4,2.9585786437626904L3.4,2.4585786437626904L3.9585786437626904,1.9L5.04142135623731,1.9L7.570710678118655,4.429289321881345L7.429289321881345,4.570710678118655L4.95857864376269,2.1L4.04142135623731,2.1L3.6,2.5414213562373096L3.6,3.0414213562373096L3.1,3.5414213562373096z" stroke="none"/><path d="M11.929289321881345,2.9292893218813454L12.070710678118655,3.0707106781186546L9.6,5.54142135623731L9.6,6.54142135623731L9.1,7.04142135623731L9.1,7.5L8.9,7.5L8.9,6.95857864376269L9.4,6.45857864376269L9.4,5.45857864376269z" stroke="none"/><path d="M26.929289321881345,4.429289321881345L27.070710678118655,4.570710678118655L26.6,5.04142135623731L26.6,5.54142135623731L25.6,6.54142135623731L25.6,7.54142135623731L24.070710678118655,9.070710678118655L23.929289321881345,8.929289321881345L25.4,7.45857864376269L25.4,6.45857864376269L26.4,5.45857864376269L26.4,4.95857864376269z" stroke="none"/><path d="M12,6.1L12,5.9L15.04142135623731,5.9L17.541421356237308,8.4L18.458578643762692,8.4L18.9,7.95857864376269L18.9,7.04142135623731L17.929289321881345,6.070710678118655L18.070710678118655,5.929289321881345L19.1,6.95857864376269L19.1,8.04142135623731L18.541421356237308,8.6L17.458578643762692,8.6L14.95857864376269,6.1z" stroke="none"/><path d="M18.070710678118655,12.070710678118655L17.929289321881345,11.929289321881345L22.429289321881345,7.429289321881345L22.570710678118655,7.570710678118655z" stroke="none"/><path d="M15.070710678118655,10.570710678118655L14.929289321881345,10.429289321881345L15.95857864376269,9.4L18.458578643762692,9.4L21.4,6.45857864376269L21.4,5.45857864376269L21.958578643762692,4.9L23.041421356237308,4.9L24.070710678118655,5.929289321881345L23.929289321881345,6.070710678118655L22.958578643762692,5.1L22.041421356237308,5.1L21.6,5.54142135623731L21.6,6.54142135623731L18.541421356237308,9.6L16.041421356237308,9.6z" stroke="none"/></svg>