<svg version="1.1" width="30" height="15" xmlns="http://www.w3.org/2000/svg"><path d="M19.041421356237308,10.9L20.041421356237308,10.9L20.541421356237308,11.4L21.541421356237308,11.4L22.041421356237308,11.9L22.5,11.9L22.5,12.1L21.958578643762692,12.1L21.458578643762692,11.6L20.458578643762692,11.6L19.958578643762692,11.1L18.958578643762692,11.1L17.5,9.64142135623731L16.570710678118655,10.570710678118655L16.429289321881345,10.429289321881345L17.35857864376269,9.5L16.958578643762692,9.1L16.458578643762692,9.1L15.45857864376269,8.1L13.45857864376269,8.1L12.95857864376269,7.6L12,7.6L12,7.4L13.04142135623731,7.4L13.54142135623731,7.9L15.54142135623731,7.9L16.541421356237308,8.9L17.041421356237308,8.9z" stroke="none"/><path d="M8.04142135623731,10.9L9.54142135623731,10.9L10.04142135623731,11.4L12.45857864376269,11.4L13.429289321881345,10.429289321881345L13.570710678118655,10.570710678118655L12.54142135623731,11.6L9.95857864376269,11.6L9.45857864376269,11.1L7.95857864376269,11.1L7.5,10.64142135623731L7.04142135623731,11.1L6.04142135623731,11.1L5.04142135623731,12.1L4.5,12.1L4.5,11.9L4.95857864376269,11.9L5.95857864376269,10.9L6.95857864376269,10.9L7.358578643762691,10.5L4.429289321881345,7.570710678118655L4.570710678118655,7.429289321881345z" stroke="none"/><path d="M7.4,7.4L7.4,6.54142135623731L6.4,5.54142135623731L6.4,5.04142135623731L5.929289321881345,4.570710678118655L6.070710678118655,4.429289321881345L6.6,4.95857864376269L6.6,5.45857864376269L7.6,6.45857864376269L7.6,7.4L8.04142135623731,7.4L8.6,7.95857864376269L8.6,8.45857864376269L9.070710678118655,8.929289321881345L8.929289321881345,9.070710678118655L8.4,8.54142135623731L8.4,8.04142135623731L7.95857864376269,7.6L7.6,7.6L7.6,9L7.4,9L7.4,7.6L6,7.6L6,7.4z" stroke="none"/><path d="M17.9,7.25857864376269L17.9,6.95857864376269L18.458578643762692,6.4L18.958578643762692,6.4L19.458578643762692,5.9L19.958578643762692,5.9L20.458578643762692,5.4L20.958578643762692,5.4L21.458578643762692,4.9L23.041421356237308,4.9L24.070710678118655,5.929289321881345L23.929289321881345,6.070710678118655L22.958578643762692,5.1L21.541421356237308,5.1L21.041421356237308,5.6L20.541421356237308,5.6L20.041421356237308,6.1L19.541421356237308,6.1L19.041421356237308,6.6L18.541421356237308,6.6L18.1,7.04142135623731L18.1,7.4L19.541421356237308,7.4L21.041421356237308,8.9L22.5,8.9L22.5,9.1L20.958578643762692,9.1L19.458578643762692,7.6L13.95857864376269,7.6L12.95857864376269,6.6L11.54142135623731,6.6L11.1,7.04142135623731L11.1,9.45857864376269L12.070710678118655,10.429289321881345L11.929289321881345,10.570710678118655L10.9,9.54142135623731L10.9,6.95857864376269L11.45857864376269,6.4L13.04142135623731,6.4L14.04142135623731,7.4L17.75857864376269,7.4L17.458578643762692,7.1L16.958578643762692,7.1L16.458578643762692,6.6L15.95857864376269,6.6L15.45857864376269,6.1L15,6.1L15,5.9L15.54142135623731,5.9L16.041421356237308,6.4L16.541421356237308,6.4L17.041421356237308,6.9L17.541421356237308,6.9z" stroke="none"/><path d="M25.5,4.4L25.5,4.6L24,4.6L24,4.4z" stroke="none"/><path d="M27.1,6L26.9,6L26.9,4.5L27.1,4.5z" stroke="none"/><path d="M24,3.1L24,2.9L25.5,2.9L25.5,3.1z" stroke="none"/><path d="M3.0707106781186546,4.570710678118655L2.9292893218813454,4.429289321881345L4.429289321881345,2.9292893218813454L4.570710678118655,3.0707106781186546z" stroke="none"/><path d="M16.429289321881345,4.570710678118655L16.570710678118655,4.429289321881345L17.541421356237308,5.4L18.458578643762692,5.4L19.429289321881345,4.429289321881345L19.570710678118655,4.570710678118655L18.541421356237308,5.6L17.458578643762692,5.6z" stroke="none"/><path d="M21,10.6L21,10.4L22.458578643762692,10.4L23.4,9.45857864376269L23.4,8.54142135623731L22.429289321881345,7.570710678118655L22.570710678118655,7.429289321881345L23.6,8.45857864376269L23.6,9.54142135623731L22.541421356237308,10.6z" stroke="none"/><path d="M10.5,3.1L10.5,2.9L11.54142135623731,2.9L12.04142135623731,3.4L12.54142135623731,3.4L13.570710678118655,4.429289321881345L13.429289321881345,4.570710678118655L12.45857864376269,3.6L11.95857864376269,3.6L11.45857864376269,3.1z" stroke="none"/><path d="M9,12.1L9,11.9L13.45857864376269,11.9L14.4,10.95857864376269L14.4,10.04142135623731L13.95857864376269,9.6L12.45857864376269,9.6L11.929289321881345,9.070710678118655L12.070710678118655,8.929289321881345L12.54142135623731,9.4L14.04142135623731,9.4L14.6,9.95857864376269L14.6,11.04142135623731L13.54142135623731,12.1z" stroke="none"/><path d="M27.070710678118655,7.429289321881345L26.929289321881345,7.570710678118655L25.958578643762692,6.6L25.041421356237308,6.6L24.541421356237308,7.1L23.458578643762692,7.1L22.429289321881345,6.070710678118655L22.570710678118655,5.929289321881345L23.541421356237308,6.9L24.458578643762692,6.9L24.958578643762692,6.4L26.041421356237308,6.4z" stroke="none"/><path d="M10.6,10.5L10.4,10.5L10.4,9.04142135623731L7.9,6.54142135623731L7.9,5.54142135623731L6.9,4.54142135623731L6.9,4.04142135623731L6.45857864376269,3.6L5.54142135623731,3.6L5.1,4.04142135623731L5.1,5.04142135623731L4.1,6.04142135623731L4.1,6.54142135623731L3.6,7.04142135623731L3.6,7.95857864376269L4.1,8.45857864376269L4.1,11.04142135623731L3.6,11.54142135623731L3.6,12.45857864376269L4.04142135623731,12.9L13.45857864376269,12.9L14.9,11.45857864376269L14.9,9L15.1,9L15.1,11.54142135623731L13.54142135623731,13.1L3.9585786437626904,13.1L3.4,12.54142135623731L3.4,11.45857864376269L3.9,10.95857864376269L3.9,8.54142135623731L3.4,8.04142135623731L3.4,6.95857864376269L3.9,6.45857864376269L3.9,5.95857864376269L4.9,4.95857864376269L4.9,3.9585786437626904L5.45857864376269,3.4L6.54142135623731,3.4L7.1,3.9585786437626904L7.1,4.45857864376269L8.1,5.45857864376269L8.1,6.45857864376269L10.6,8.95857864376269z" stroke="none"/><path d="M19.5,12.1L19.5,11.9L20.541421356237308,11.9L21.541421356237308,12.9L22.958578643762692,12.9L23.4,12.45857864376269L23.4,10.95857864376269L23.929289321881345,10.429289321881345L24.070710678118655,10.570710678118655L23.6,11.04142135623731L23.6,12.54142135623731L23.041421356237308,13.1L21.458578643762692,13.1L20.458578643762692,12.1z" stroke="none"/><path d="M11.929289321881345,4.570710678118655L12.070710678118655,4.429289321881345L13.04142135623731,5.4L13.95857864376269,5.4L15.95857864376269,3.4L17.041421356237308,3.4L18.070710678118655,4.429289321881345L17.929289321881345,4.570710678118655L16.958578643762692,3.6L16.041421356237308,3.6L14.04142135623731,5.6L12.95857864376269,5.6z" stroke="none"/><path d="M3.1,9L2.9,9L2.9,6.54142135623731L1.9,5.54142135623731L1.9,3.9585786437626904L3.9585786437626904,1.9L5.54142135623731,1.9L6.04142135623731,2.4L6.54142135623731,2.4L8.04142135623731,3.9L8.54142135623731,3.9L9.070710678118655,4.429289321881345L8.929289321881345,4.570710678118655L8.45857864376269,4.1L7.95857864376269,4.1L6.45857864376269,2.6L5.95857864376269,2.6L5.45857864376269,2.1L4.04142135623731,2.1L2.1,4.04142135623731L2.1,5.45857864376269L3.1,6.45857864376269z" stroke="none"/><path d="M19.5,3.1L19.5,2.9L22.458578643762692,2.9L23.458578643762692,1.9L26.041421356237308,1.9L28.1,3.9585786437626904L28.1,8.04142135623731L27.541421356237308,8.6L26.458578643762692,8.6L25.429289321881345,7.570710678118655L25.570710678118655,7.429289321881345L26.541421356237308,8.4L27.458578643762692,8.4L27.9,7.95857864376269L27.9,4.04142135623731L25.958578643762692,2.1L23.541421356237308,2.1L22.541421356237308,3.1z" stroke="none"/><path d="M3.0707106781186546,10.429289321881345L2.9292893218813454,10.570710678118655L1.9,9.54142135623731L1.9,6.54142135623731L1.4,6.04142135623731L1.4,3.4585786437626904L3.4585786437626904,1.4L6.04142135623731,1.4L6.54142135623731,1.9L7.04142135623731,1.9L8.04142135623731,2.9L9.04142135623731,2.9L10.1,3.9585786437626904L10.1,4.95857864376269L10.6,5.45857864376269L10.6,6L10.4,6L10.4,5.54142135623731L9.9,5.04142135623731L9.9,4.04142135623731L8.95857864376269,3.1L7.95857864376269,3.1L6.95857864376269,2.1L6.45857864376269,2.1L5.95857864376269,1.6L3.5414213562373096,1.6L1.6,3.5414213562373096L1.6,5.95857864376269L2.1,6.45857864376269L2.1,9.45857864376269z" stroke="none"/><path d="M25.429289321881345,11.929289321881345L25.570710678118655,12.070710678118655L24.041421356237308,13.6L19.958578643762692,13.6L19.458578643762692,13.1L18.458578643762692,13.1L17.458578643762692,12.1L16.5,12.1L16.5,11.9L17.541421356237308,11.9L18.541421356237308,12.9L19.541421356237308,12.9L20.041421356237308,13.4L23.958578643762692,13.4z" stroke="none"/></svg>