<svg version="1.1" width="30" height="15" xmlns="http://www.w3.org/2000/svg"><path d="M10.95857864376269,4.4L11.45857864376269,3.9L12.45857864376269,3.9L13.429289321881345,2.9292893218813454L13.570710678118655,3.0707106781186546L12.54142135623731,4.1L11.54142135623731,4.1L11.04142135623731,4.6L8.6,4.6L8.6,5.45857864376269L9.070710678118655,5.929289321881345L8.929289321881345,6.070710678118655L8.4,5.54142135623731L8.4,4.6L3,4.6L3,4.4z" stroke="none"/><path d="M21,7.358578643762691L21.958578643762692,6.4L23.458578643762692,6.4L23.958578643762692,5.9L25.5,5.9L25.5,6.1L24.041421356237308,6.1L23.541421356237308,6.6L22.041421356237308,6.6L21.1,7.54142135623731L21.1,10.5L20.9,10.5L20.9,7.54142135623731L19.958578643762692,6.6L18.458578643762692,6.6L17.958578643762692,6.1L15,6.1L15,5.9L18.041421356237308,5.9L18.541421356237308,6.4L20.041421356237308,6.4z" stroke="none"/><path d="M5.04142135623731,8.9L5.95857864376269,8.9L6.95857864376269,7.9L7.45857864376269,7.9L7.95857864376269,7.4L9,7.4L9,7.6L8.04142135623731,7.6L7.54142135623731,8.1L7.04142135623731,8.1L6.04142135623731,9.1L5.24142135623731,9.1L5.6,9.45857864376269L5.6,9.95857864376269L6.070710678118655,10.429289321881345L5.929289321881345,10.570710678118655L5.4,10.04142135623731L5.4,9.54142135623731L5,9.14142135623731L4.54142135623731,9.6L4.04142135623731,9.6L3.6,10.04142135623731L3.6,11.04142135623731L3.1,11.54142135623731L3.1,12L2.9,12L2.9,11.45857864376269L3.4,10.95857864376269L3.4,9.95857864376269L3.9585786437626904,9.4L4.45857864376269,9.4L4.858578643762691,9L4.45857864376269,8.6L3.9585786437626904,8.6L2.9292893218813454,7.570710678118655L3.0707106781186546,7.429289321881345L4.04142135623731,8.4L4.54142135623731,8.4z" stroke="none"/><path d="M15.95857864376269,9.9L16.9,8.95857864376269L16.9,8.45857864376269L17.458578643762692,7.9L17.958578643762692,7.9L18.458578643762692,7.4L19.5,7.4L19.5,7.6L18.541421356237308,7.6L18.041421356237308,8.1L17.541421356237308,8.1L17.1,8.54142135623731L17.1,9.04142135623731L16.14142135623731,10L18.070710678118655,11.929289321881345L17.929289321881345,12.070710678118655L16.1,10.241421356237309L16.1,10.54142135623731L15.54142135623731,11.1L14.45857864376269,11.1L13.45857864376269,10.1L12.95857864376269,10.1L12.45857864376269,9.6L10.54142135623731,9.6L10.04142135623731,10.1L8.45857864376269,10.1L7.429289321881345,9.070710678118655L7.570710678118655,8.929289321881345L8.54142135623731,9.9L9.95857864376269,9.9L10.45857864376269,9.4L12.54142135623731,9.4L13.04142135623731,9.9L13.54142135623731,9.9L14.54142135623731,10.9L15.45857864376269,10.9L15.9,10.45857864376269L15.9,10.1L14.45857864376269,10.1L13.429289321881345,9.070710678118655L13.570710678118655,8.929289321881345L14.54142135623731,9.9z" stroke="none"/><path d="M23.929289321881345,10.429289321881345L24.070710678118655,10.570710678118655L22.570710678118655,12.070710678118655L22.429289321881345,11.929289321881345z" stroke="none"/><path d="M6,12.1L6,11.9L9,11.9L9,12.1z" stroke="none"/><path d="M27.070710678118655,10.429289321881345L26.929289321881345,10.570710678118655L25.9,9.54142135623731L25.9,8.45857864376269L26.929289321881345,7.429289321881345L27.070710678118655,7.570710678118655L26.1,8.54142135623731L26.1,9.45857864376269z" stroke="none"/><path d="M21,4.6L21,4.4L24,4.4L24,4.6z" stroke="none"/><path d="M25.570710678118655,10.429289321881345L25.429289321881345,10.570710678118655L24.458578643762692,9.6L23.458578643762692,9.6L22.958578643762692,9.1L22.5,9.1L22.5,8.9L23.041421356237308,8.9L23.541421356237308,9.4L24.541421356237308,9.4z" stroke="none"/><path d="M26.929289321881345,4.429289321881345L27.070710678118655,4.570710678118655L26.6,5.04142135623731L26.6,6.54142135623731L25.570710678118655,7.570710678118655L25.429289321881345,7.429289321881345L26.4,6.45857864376269L26.4,4.95857864376269z" stroke="none"/><path d="M10.570710678118655,6.070710678118655L10.429289321881345,5.929289321881345L10.95857864376269,5.4L11.95857864376269,5.4L12.45857864376269,4.9L12.95857864376269,4.9L14.4,3.4585786437626904L14.4,2.5414213562373096L13.95857864376269,2.1L9.04142135623731,2.1L8.54142135623731,2.6L8.04142135623731,2.6L7.570710678118655,3.0707106781186546L7.429289321881345,2.9292893218813454L7.95857864376269,2.4L8.45857864376269,2.4L8.95857864376269,1.9L14.04142135623731,1.9L14.6,2.4585786437626904L14.6,3.5414213562373096L13.04142135623731,5.1L12.54142135623731,5.1L12.04142135623731,5.6L11.04142135623731,5.6z" stroke="none"/><path d="M7.5,10.6L7.5,10.4L12,10.4L12,10.6z" stroke="none"/><path d="M16.5,11.9L16.5,12.1L12,12.1L12,11.9z" stroke="none"/><path d="M23.929289321881345,11.929289321881345L24.070710678118655,12.070710678118655L23.041421356237308,13.1L21.958578643762692,13.1L21.4,12.54142135623731L21.4,11.45857864376269L21.9,10.95857864376269L21.9,10.04142135623731L21.4,9.54142135623731L21.4,8.45857864376269L22.429289321881345,7.429289321881345L22.570710678118655,7.570710678118655L21.6,8.54142135623731L21.6,9.45857864376269L22.1,9.95857864376269L22.1,11.04142135623731L21.6,11.54142135623731L21.6,12.45857864376269L22.041421356237308,12.9L22.958578643762692,12.9z" stroke="none"/><path d="M7.5,5.9L7.5,6.1L3.0414213562373096,6.1L2.1,7.04142135623731L2.1,12.45857864376269L2.5414213562373096,12.9L3.4585786437626904,12.9L3.9,12.45857864376269L3.9,11.45857864376269L4.4,10.95857864376269L4.4,10.5L4.6,10.5L4.6,11.04142135623731L4.1,11.54142135623731L4.1,12.54142135623731L3.5414213562373096,13.1L2.4585786437626904,13.1L1.9,12.54142135623731L1.9,6.95857864376269L2.9585786437626904,5.9z" stroke="none"/><path d="M15.070710678118655,8.929289321881345L14.929289321881345,9.070710678118655L13.95857864376269,8.1L12.54142135623731,8.1L12.04142135623731,8.6L11.04142135623731,8.6L10.54142135623731,9.1L9,9.1L9,8.9L10.45857864376269,8.9L10.95857864376269,8.4L11.95857864376269,8.4L12.45857864376269,7.9L14.04142135623731,7.9z" stroke="none"/><path d="M25.5,2.9L25.5,3.1L24.958578643762692,3.1L24.458578643762692,2.6L23.458578643762692,2.6L22.958578643762692,2.1L19.541421356237308,2.1L19.041421356237308,2.6L18.541421356237308,2.6L18.070710678118655,3.0707106781186546L17.929289321881345,2.9292893218813454L18.458578643762692,2.4L18.958578643762692,2.4L19.458578643762692,1.9L23.041421356237308,1.9L23.541421356237308,2.4L24.541421356237308,2.4L25.041421356237308,2.9z" stroke="none"/><path d="M26.929289321881345,9.070710678118655L27.070710678118655,8.929289321881345L28.1,9.95857864376269L28.1,11.04142135623731L27.541421356237308,11.6L26.041421356237308,11.6L24.541421356237308,13.1L24.041421356237308,13.1L23.541421356237308,13.6L21.458578643762692,13.6L18.4,10.54142135623731L18.4,9.54142135623731L17.929289321881345,9.070710678118655L18.070710678118655,8.929289321881345L18.6,9.45857864376269L18.6,10.45857864376269L21.541421356237308,13.4L23.458578643762692,13.4L23.958578643762692,12.9L24.458578643762692,12.9L25.958578643762692,11.4L27.458578643762692,11.4L27.9,10.95857864376269L27.9,10.04142135623731z" stroke="none"/><path d="M25.429289321881345,4.429289321881345L25.570710678118655,4.570710678118655L24.541421356237308,5.6L17.958578643762692,5.6L17.458578643762692,5.1L14.54142135623731,5.1L14.1,5.54142135623731L14.1,6.45857864376269L14.54142135623731,6.9L15.54142135623731,6.9L16.041421356237308,7.4L16.5,7.4L16.5,7.6L15.95857864376269,7.6L15.45857864376269,7.1L14.45857864376269,7.1L13.9,6.54142135623731L13.9,5.45857864376269L14.45857864376269,4.9L17.541421356237308,4.9L18.041421356237308,5.4L24.458578643762692,5.4z" stroke="none"/><path d="M12,2.9L12,3.1L9.54142135623731,3.1L8.54142135623731,4.1L6.95857864376269,4.1L6.4,3.5414213562373096L6.4,2.4585786437626904L7.45857864376269,1.4L14.54142135623731,1.4L16.541421356237308,3.4L17.041421356237308,3.4L17.541421356237308,3.9L19.458578643762692,3.9L19.958578643762692,3.4L21.958578643762692,3.4L22.429289321881345,2.9292893218813454L22.570710678118655,3.0707106781186546L22.041421356237308,3.6L20.041421356237308,3.6L19.541421356237308,4.1L17.458578643762692,4.1L16.958578643762692,3.6L16.458578643762692,3.6L14.45857864376269,1.6L7.54142135623731,1.6L6.6,2.5414213562373096L6.6,3.4585786437626904L7.04142135623731,3.9L8.45857864376269,3.9L9.45857864376269,2.9z" stroke="none"/></svg>