<svg version="1.1" width="30" height="15" xmlns="http://www.w3.org/2000/svg"><path d="M14.9,4.45857864376269L14.9,3L15.1,3L15.1,4.4L15.45857864376269,4.4L15.9,3.9585786437626904L15.9,3.4585786437626904L16.429289321881345,2.9292893218813454L16.570710678118655,3.0707106781186546L16.1,3.5414213562373096L16.1,4.04142135623731L15.54142135623731,4.6L15.04142135623731,4.6L14.1,5.54142135623731L14.1,6.54142135623731L13.6,7.04142135623731L13.6,7.5L13.4,7.5L13.4,6.95857864376269L13.9,6.45857864376269L13.9,5.45857864376269z" stroke="none"/><path d="M18.458578643762692,10.4L18.9,9.95857864376269L18.9,9.45857864376269L19.429289321881345,8.929289321881345L19.570710678118655,9.070710678118655L19.1,9.54142135623731L19.1,10.04142135623731L18.74142135623731,10.4L22.041421356237308,10.4L22.541421356237308,10.9L23.041421356237308,10.9L24.070710678118655,11.929289321881345L23.929289321881345,12.070710678118655L22.958578643762692,11.1L22.458578643762692,11.1L21.958578643762692,10.6L15.54142135623731,10.6L14.54142135623731,11.6L12.95857864376269,11.6L11.929289321881345,10.570710678118655L12.070710678118655,10.429289321881345L13.04142135623731,11.4L14.45857864376269,11.4L15.45857864376269,10.4z" stroke="none"/><path d="M8.9,5.95857864376269L8.9,5.45857864376269L9.45857864376269,4.9L10.04142135623731,4.9L11.6,6.45857864376269L11.6,6.95857864376269L12.1,7.45857864376269L12.1,9L11.9,9L11.9,7.54142135623731L11.4,7.04142135623731L11.4,6.54142135623731L9.95857864376269,5.1L9.54142135623731,5.1L9.1,5.54142135623731L9.1,5.9L10.04142135623731,5.9L11.1,6.95857864376269L11.1,8.04142135623731L10.54142135623731,8.6L8.04142135623731,8.6L7.570710678118655,9.070710678118655L7.429289321881345,8.929289321881345L7.95857864376269,8.4L10.45857864376269,8.4L10.9,7.95857864376269L10.9,7.04142135623731L9.95857864376269,6.1L9.241421356237309,6.1L10.570710678118655,7.429289321881345L10.429289321881345,7.570710678118655L9,6.141421356237309L8.04142135623731,7.1L6.95857864376269,7.1L5.929289321881345,6.070710678118655L6.070710678118655,5.929289321881345L7.04142135623731,6.9L7.95857864376269,6.9z" stroke="none"/><path d="M17.9,8.9L17.9,7.95857864376269L19.458578643762692,6.4L21.041421356237308,6.4L21.6,6.95857864376269L21.6,7.95857864376269L25.1,11.45857864376269L25.1,12.54142135623731L24.541421356237308,13.1L23.458578643762692,13.1L22.429289321881345,12.070710678118655L22.570710678118655,11.929289321881345L23.541421356237308,12.9L24.458578643762692,12.9L24.9,12.45857864376269L24.9,11.54142135623731L21.4,8.04142135623731L21.4,7.04142135623731L20.958578643762692,6.6L19.541421356237308,6.6L18.1,8.04142135623731L18.1,8.758578643762691L18.958578643762692,7.9L19.958578643762692,7.9L20.458578643762692,7.4L21,7.4L21,7.6L20.541421356237308,7.6L20.041421356237308,8.1L19.041421356237308,8.1L18.1,9.04142135623731L18.1,9.54142135623731L17.541421356237308,10.1L14.95857864376269,10.1L14.4,9.54142135623731L14.4,7.95857864376269L14.929289321881345,7.429289321881345L15.070710678118655,7.570710678118655L14.6,8.04142135623731L14.6,9.45857864376269L15.04142135623731,9.9L17.458578643762692,9.9L17.9,9.45857864376269L17.9,9.1L15,9.1L15,8.9z" stroke="none"/><path d="M7.5,3.1L7.5,2.9L9,2.9L9,3.1z" stroke="none"/><path d="M12,4.6L12,4.4L13.5,4.4L13.5,4.6z" stroke="none"/><path d="M22.5,6.1L22.5,5.9L24,5.9L24,6.1z" stroke="none"/><path d="M7.570710678118655,5.929289321881345L7.429289321881345,6.070710678118655L6.45857864376269,5.1L5.54142135623731,5.1L4.570710678118655,6.070710678118655L4.429289321881345,5.929289321881345L5.45857864376269,4.9L6.54142135623731,4.9z" stroke="none"/><path d="M3.1,9L2.9,9L2.9,6L3.1,6z" stroke="none"/><path d="M4.5,12.1L4.5,11.9L7.5,11.9L7.5,12.1z" stroke="none"/><path d="M8.929289321881345,7.429289321881345L9.070710678118655,7.570710678118655L8.54142135623731,8.1L7.04142135623731,8.1L6.070710678118655,9.070710678118655L5.929289321881345,8.929289321881345L6.95857864376269,7.9L8.45857864376269,7.9z" stroke="none"/><path d="M25.570710678118655,10.570710678118655L25.429289321881345,10.429289321881345L25.9,9.95857864376269L25.9,8.95857864376269L26.4,8.45857864376269L26.4,7.95857864376269L26.929289321881345,7.429289321881345L27.070710678118655,7.570710678118655L26.6,8.04142135623731L26.6,8.54142135623731L26.1,9.04142135623731L26.1,10.04142135623731z" stroke="none"/><path d="M16.570710678118655,7.570710678118655L16.429289321881345,7.429289321881345L19.429289321881345,4.429289321881345L19.570710678118655,4.570710678118655z" stroke="none"/><path d="M20.929289321881345,3.0707106781186546L21.070710678118655,2.9292893218813454L22.041421356237308,3.9L23.541421356237308,3.9L24.041421356237308,4.4L25.5,4.4L25.5,4.6L23.958578643762692,4.6L23.458578643762692,4.1L21.958578643762692,4.1z" stroke="none"/><path d="M3.0707106781186546,12.070710678118655L2.9292893218813454,11.929289321881345L3.9585786437626904,10.9L5.45857864376269,10.9L5.95857864376269,10.4L9,10.4L9,10.6L6.04142135623731,10.6L5.54142135623731,11.1L4.04142135623731,11.1z" stroke="none"/><path d="M4.4,7.5L4.6,7.5L4.6,8.45857864376269L5.1,8.95857864376269L5.1,9.45857864376269L5.54142135623731,9.9L7.95857864376269,9.9L8.45857864376269,9.4L9.54142135623731,9.4L12.070710678118655,11.929289321881345L11.929289321881345,12.070710678118655L9.45857864376269,9.6L8.54142135623731,9.6L8.04142135623731,10.1L5.45857864376269,10.1L4.9,9.54142135623731L4.9,9.04142135623731L4.4,8.54142135623731z" stroke="none"/><path d="M22.570710678118655,2.9292893218813454L22.429289321881345,3.0707106781186546L21.458578643762692,2.1L13.54142135623731,2.1L12.54142135623731,3.1L12,3.1L12,2.9L12.45857864376269,2.9L13.45857864376269,1.9L21.541421356237308,1.9z" stroke="none"/><path d="M26.929289321881345,4.429289321881345L27.070710678118655,4.570710678118655L26.041421356237308,5.6L24.958578643762692,5.6L24.458578643762692,5.1L21.458578643762692,5.1L19.958578643762692,3.6L19.041421356237308,3.6L16.570710678118655,6.070710678118655L16.429289321881345,5.929289321881345L18.958578643762692,3.4L20.041421356237308,3.4L21.541421356237308,4.9L24.541421356237308,4.9L25.041421356237308,5.4L25.958578643762692,5.4z" stroke="none"/><path d="M13.570710678118655,10.429289321881345L13.429289321881345,10.570710678118655L12.9,10.04142135623731L12.9,8.54142135623731L12.4,8.04142135623731L12.4,7.04142135623731L11.9,6.54142135623731L11.9,6.04142135623731L10.9,5.04142135623731L10.9,2.4585786437626904L11.45857864376269,1.9L11.95857864376269,1.9L12.45857864376269,1.4L23.541421356237308,1.4L24.041421356237308,1.9L24.541421356237308,1.9L25.041421356237308,2.4L25.541421356237308,2.4L26.041421356237308,2.9L26.541421356237308,2.9L27.041421356237308,3.4L27.541421356237308,3.4L28.1,3.9585786437626904L28.1,5.04142135623731L27.541421356237308,5.6L27.041421356237308,5.6L26.541421356237308,6.1L26.041421356237308,6.1L25.541421356237308,6.6L25.041421356237308,6.6L24.070710678118655,7.570710678118655L23.929289321881345,7.429289321881345L24.958578643762692,6.4L25.458578643762692,6.4L25.958578643762692,5.9L26.458578643762692,5.9L26.958578643762692,5.4L27.458578643762692,5.4L27.9,4.95857864376269L27.9,4.04142135623731L27.458578643762692,3.6L26.958578643762692,3.6L26.458578643762692,3.1L25.958578643762692,3.1L25.458578643762692,2.6L24.958578643762692,2.6L24.458578643762692,2.1L23.958578643762692,2.1L23.458578643762692,1.6L12.54142135623731,1.6L12.04142135623731,2.1L11.54142135623731,2.1L11.1,2.5414213562373096L11.1,4.95857864376269L12.1,5.95857864376269L12.1,6.45857864376269L12.6,6.95857864376269L12.6,7.95857864376269L13.1,8.45857864376269L13.1,9.95857864376269z" stroke="none"/><path d="M22.429289321881345,7.570710678118655L22.570710678118655,7.429289321881345L23.541421356237308,8.4L24.458578643762692,8.4L26.458578643762692,6.4L27.541421356237308,6.4L28.1,6.95857864376269L28.1,9.54142135623731L26.6,11.04142135623731L26.6,12.04142135623731L25.041421356237308,13.6L12.95857864376269,13.6L12.45857864376269,13.1L11.45857864376269,13.1L10.429289321881345,12.070710678118655L10.570710678118655,11.929289321881345L11.54142135623731,12.9L12.54142135623731,12.9L13.04142135623731,13.4L24.958578643762692,13.4L26.4,11.95857864376269L26.4,10.95857864376269L27.9,9.45857864376269L27.9,7.04142135623731L27.458578643762692,6.6L26.541421356237308,6.6L24.541421356237308,8.6L23.458578643762692,8.6z" stroke="none"/></svg>