<svg version="1.1" width="30" height="15" xmlns="http://www.w3.org/2000/svg"><path d="M17.541421356237308,5.4L17.958578643762692,5.4L18.458578643762692,4.9L21.041421356237308,4.9L21.541421356237308,5.4L22.041421356237308,5.4L22.570710678118655,5.929289321881345L22.429289321881345,6.070710678118655L21.958578643762692,5.6L21.458578643762692,5.6L20.958578643762692,5.1L18.541421356237308,5.1L18.041421356237308,5.6L12.54142135623731,5.6L12.070710678118655,6.070710678118655L11.929289321881345,5.929289321881345L12.45857864376269,5.4L17.25857864376269,5.4L16.429289321881345,4.570710678118655L16.570710678118655,4.429289321881345z" stroke="none"/><path d="M10.4,2.9L10.4,2.4585786437626904L10.95857864376269,1.9L11.54142135623731,1.9L12.04142135623731,2.4L12.54142135623731,2.4L13.04142135623731,2.9L13.5,2.9L13.5,3.1L12.95857864376269,3.1L12.45857864376269,2.6L11.95857864376269,2.6L11.45857864376269,2.1L11.04142135623731,2.1L10.6,2.5414213562373096L10.6,2.9L12,2.9L12,3.1L6,3.1L6,2.9z" stroke="none"/><path d="M8.4,4.4L8.4,4.04142135623731L7.95857864376269,3.6L7.04142135623731,3.6L6.04142135623731,4.6L4.5,4.6L4.5,4.4L5.95857864376269,4.4L6.95857864376269,3.4L8.04142135623731,3.4L8.6,3.9585786437626904L8.6,4.4L10.5,4.4L10.5,4.6L8.6,4.6L8.6,5.45857864376269L9.070710678118655,5.929289321881345L8.929289321881345,6.070710678118655L8.4,5.54142135623731L8.4,4.6L8.04142135623731,4.6L7.6,5.04142135623731L7.6,5.45857864376269L8.54142135623731,6.4L9.95857864376269,6.4L10.429289321881345,5.929289321881345L10.570710678118655,6.070710678118655L10.04142135623731,6.6L8.45857864376269,6.6L7.4,5.54142135623731L7.4,4.95857864376269L7.95857864376269,4.4z" stroke="none"/><path d="M20,8.85857864376269L20.4,8.45857864376269L20.4,7.95857864376269L20.929289321881345,7.429289321881345L21.070710678118655,7.570710678118655L20.6,8.04142135623731L20.6,8.54142135623731L20.24142135623731,8.9L20.958578643762692,8.9L22.458578643762692,7.4L24.458578643762692,7.4L25.958578643762692,5.9L27,5.9L27,6.1L26.041421356237308,6.1L24.541421356237308,7.6L22.541421356237308,7.6L21.041421356237308,9.1L20.041421356237308,9.1L19.541421356237308,9.6L19.041421356237308,9.6L18.070710678118655,10.570710678118655L17.929289321881345,10.429289321881345L18.958578643762692,9.4L19.458578643762692,9.4L19.85857864376269,9L19.458578643762692,8.6L18.958578643762692,8.6L18.458578643762692,8.1L16.041421356237308,8.1L15.6,8.54142135623731L15.6,10.04142135623731L15.070710678118655,10.570710678118655L14.929289321881345,10.429289321881345L15.4,9.95857864376269L15.4,8.45857864376269L15.95857864376269,7.9L18.541421356237308,7.9L19.041421356237308,8.4L19.541421356237308,8.4z" stroke="none"/><path d="M22.4,9L22.6,9L22.6,10.5L22.4,10.5z" stroke="none"/><path d="M26.9,9L27.1,9L27.1,10.5L26.9,10.5z" stroke="none"/><path d="M2.9,10.5L3.1,10.5L3.1,12L2.9,12z" stroke="none"/><path d="M13.570710678118655,8.929289321881345L13.429289321881345,9.070710678118655L11.929289321881345,7.570710678118655L12.070710678118655,7.429289321881345z" stroke="none"/><path d="M24.070710678118655,4.429289321881345L23.929289321881345,4.570710678118655L22.429289321881345,3.0707106781186546L22.570710678118655,2.9292893218813454z" stroke="none"/><path d="M19.5,7.4L19.5,7.6L15.54142135623731,7.6L15.1,8.04142135623731L15.1,9.04142135623731L14.1,10.04142135623731L14.1,10.95857864376269L14.54142135623731,11.4L15.45857864376269,11.4L15.9,10.95857864376269L15.9,9.45857864376269L16.429289321881345,8.929289321881345L16.570710678118655,9.070710678118655L16.1,9.54142135623731L16.1,11.04142135623731L15.54142135623731,11.6L14.45857864376269,11.6L13.9,11.04142135623731L13.9,9.95857864376269L14.9,8.95857864376269L14.9,7.95857864376269L15.45857864376269,7.4z" stroke="none"/><path d="M4.429289321881345,2.9292893218813454L4.570710678118655,3.0707106781186546L3.6,4.04142135623731L3.6,4.95857864376269L4.04142135623731,5.4L5.54142135623731,5.4L6.070710678118655,5.929289321881345L5.929289321881345,6.070710678118655L5.45857864376269,5.6L3.9585786437626904,5.6L3.4,5.04142135623731L3.4,3.9585786437626904z" stroke="none"/><path d="M16.429289321881345,3.0707106781186546L16.570710678118655,2.9292893218813454L17.041421356237308,3.4L17.541421356237308,3.4L18.541421356237308,4.4L22.541421356237308,4.4L23.6,5.45857864376269L23.6,6.54142135623731L23.041421356237308,7.1L21.958578643762692,7.1L21.458578643762692,6.6L20.458578643762692,6.6L19.958578643762692,6.1L19.5,6.1L19.5,5.9L20.041421356237308,5.9L20.541421356237308,6.4L21.541421356237308,6.4L22.041421356237308,6.9L22.958578643762692,6.9L23.4,6.45857864376269L23.4,5.54142135623731L22.458578643762692,4.6L18.458578643762692,4.6L17.458578643762692,3.6L16.958578643762692,3.6z" stroke="none"/><path d="M26.9,3L27.1,3L27.1,3.4585786437626904L28.1,4.45857864376269L28.1,6.54142135623731L27.070710678118655,7.570710678118655L26.929289321881345,7.429289321881345L27.9,6.45857864376269L27.9,4.54142135623731L26.9,3.5414213562373096z" stroke="none"/><path d="M12.070710678118655,10.429289321881345L11.929289321881345,10.570710678118655L11.45857864376269,10.1L10.95857864376269,10.1L9.95857864376269,9.1L9.45857864376269,9.1L7.95857864376269,7.6L7.5,7.6L7.5,7.4L8.04142135623731,7.4L9.54142135623731,8.9L10.04142135623731,8.9L11.04142135623731,9.9L11.54142135623731,9.9z" stroke="none"/><path d="M19.5,10.6L19.5,10.4L20.541421356237308,10.4L21.041421356237308,10.9L21.541421356237308,10.9L22.041421356237308,11.4L22.958578643762692,11.4L25.429289321881345,8.929289321881345L25.570710678118655,9.070710678118655L23.041421356237308,11.6L21.958578643762692,11.6L21.458578643762692,11.1L20.958578643762692,11.1L20.458578643762692,10.6z" stroke="none"/><path d="M2.9292893218813454,6.070710678118655L3.0707106781186546,5.929289321881345L3.6,6.45857864376269L3.6,7.95857864376269L6.04142135623731,10.4L7.5,10.4L7.5,10.6L5.95857864376269,10.6L3.4,8.04142135623731L3.4,6.54142135623731z" stroke="none"/><path d="M4.429289321881345,7.570710678118655L4.570710678118655,7.429289321881345L5.04142135623731,7.9L5.54142135623731,7.9L6.04142135623731,8.4L6.54142135623731,8.4L7.04142135623731,8.9L8.04142135623731,8.9L8.54142135623731,9.4L9.54142135623731,9.4L10.1,9.95857864376269L10.1,11.45857864376269L10.570710678118655,11.929289321881345L10.429289321881345,12.070710678118655L9.9,11.54142135623731L9.9,10.04142135623731L9.45857864376269,9.6L8.45857864376269,9.6L7.95857864376269,9.1L6.95857864376269,9.1L6.45857864376269,8.6L5.95857864376269,8.6L5.45857864376269,8.1L4.95857864376269,8.1z" stroke="none"/><path d="M8.9,10.5L9.1,10.5L9.1,11.45857864376269L9.6,11.95857864376269L9.6,12.45857864376269L10.04142135623731,12.9L13.45857864376269,12.9L13.95857864376269,12.4L14.45857864376269,12.4L14.95857864376269,11.9L15.95857864376269,11.9L16.9,10.95857864376269L16.9,9.95857864376269L17.929289321881345,8.929289321881345L18.070710678118655,9.070710678118655L17.1,10.04142135623731L17.1,11.04142135623731L16.041421356237308,12.1L15.04142135623731,12.1L14.54142135623731,12.6L14.04142135623731,12.6L13.54142135623731,13.1L9.95857864376269,13.1L9.4,12.54142135623731L9.4,12.04142135623731L8.9,11.54142135623731z" stroke="none"/><path d="M17.929289321881345,11.929289321881345L18.070710678118655,12.070710678118655L17.541421356237308,12.6L16.041421356237308,12.6L15.04142135623731,13.6L7.95857864376269,13.6L6.45857864376269,12.1L6,12.1L6,11.9L6.54142135623731,11.9L8.04142135623731,13.4L14.95857864376269,13.4L15.95857864376269,12.4L17.458578643762692,12.4z" stroke="none"/><path d="M15.1,4.5L14.9,4.5L14.9,4.04142135623731L14.4,3.5414213562373096L14.4,2.5414213562373096L13.95857864376269,2.1L12.45857864376269,2.1L11.95857864376269,1.6L4.54142135623731,1.6L3.6,2.5414213562373096L3.6,3.0414213562373096L3.1,3.5414213562373096L3.1,4.54142135623731L2.1,5.54142135623731L2.1,6.95857864376269L2.6,7.45857864376269L2.6,7.95857864376269L3.1,8.45857864376269L3.1,9L2.9,9L2.9,8.54142135623731L2.4,8.04142135623731L2.4,7.54142135623731L1.9,7.04142135623731L1.9,5.45857864376269L2.9,4.45857864376269L2.9,3.4585786437626904L3.4,2.9585786437626904L3.4,2.4585786437626904L4.45857864376269,1.4L12.04142135623731,1.4L12.54142135623731,1.9L14.04142135623731,1.9L14.6,2.4585786437626904L14.6,3.4585786437626904L15.1,3.9585786437626904z" stroke="none"/></svg>