<svg version="1.1" width="30" height="15" xmlns="http://www.w3.org/2000/svg"><path d="M7.45857864376269,6.4L7.9,5.95857864376269L7.9,5.45857864376269L8.929289321881345,4.429289321881345L9.070710678118655,4.570710678118655L8.1,5.54142135623731L8.1,6.04142135623731L7.6,6.54142135623731L7.6,9L7.4,9L7.4,6.6L6.95857864376269,6.6L6.45857864376269,6.1L6,6.1L6,5.9L6.54142135623731,5.9L7.04142135623731,6.4z" stroke="none"/><path d="M5.9,10.45857864376269L5.9,10.04142135623731L5.4,9.54142135623731L5.4,8.54142135623731L4.429289321881345,7.570710678118655L4.570710678118655,7.429289321881345L5.6,8.45857864376269L5.6,9.45857864376269L6.1,9.95857864376269L6.1,10.4L6.54142135623731,10.4L7.04142135623731,10.9L7.54142135623731,10.9L8.04142135623731,11.4L8.54142135623731,11.4L9.070710678118655,11.929289321881345L8.929289321881345,12.070710678118655L8.45857864376269,11.6L7.95857864376269,11.6L7.45857864376269,11.1L6.95857864376269,11.1L6.45857864376269,10.6L6.04142135623731,10.6L4.570710678118655,12.070710678118655L4.429289321881345,11.929289321881345z" stroke="none"/><path d="M17.458578643762692,6.4L17.929289321881345,5.929289321881345L18.070710678118655,6.070710678118655L17.541421356237308,6.6L15.741421356237309,6.6L16.570710678118655,7.429289321881345L16.429289321881345,7.570710678118655L15.6,6.74142135623731L15.6,7.04142135623731L15.1,7.54142135623731L15.1,9.04142135623731L14.1,10.04142135623731L14.1,10.95857864376269L14.54142135623731,11.4L18.458578643762692,11.4L19.429289321881345,10.429289321881345L19.570710678118655,10.570710678118655L18.541421356237308,11.6L14.45857864376269,11.6L13.9,11.04142135623731L13.9,9.95857864376269L14.9,8.95857864376269L14.9,7.45857864376269L15.4,6.95857864376269L15.4,6.6L14.54142135623731,6.6L14.04142135623731,7.1L13.54142135623731,7.1L13.04142135623731,7.6L12,7.6L12,7.4L12.95857864376269,7.4L13.45857864376269,6.9L13.95857864376269,6.9L14.45857864376269,6.4z" stroke="none"/><path d="M17.9,4.4L17.9,3.4585786437626904L18.958578643762692,2.4L23.541421356237308,2.4L24.070710678118655,2.9292893218813454L23.929289321881345,3.0707106781186546L23.458578643762692,2.6L19.041421356237308,2.6L18.1,3.5414213562373096L18.1,4.25857864376269L19.429289321881345,2.9292893218813454L19.570710678118655,3.0707106781186546L18.14142135623731,4.5L19.041421356237308,5.4L20.041421356237308,5.4L20.541421356237308,5.9L21,5.9L21,6.1L20.458578643762692,6.1L19.958578643762692,5.6L18.958578643762692,5.6L17.958578643762692,4.6L17.041421356237308,4.6L16.041421356237308,5.6L15.54142135623731,5.6L15.04142135623731,6.1L13.5,6.1L13.5,5.9L14.95857864376269,5.9L15.45857864376269,5.4L15.95857864376269,5.4L16.958578643762692,4.4z" stroke="none"/><path d="M26.9,3L27.1,3L27.1,4.5L26.9,4.5z" stroke="none"/><path d="M25.5,12.1L25.5,11.9L27,11.9L27,12.1z" stroke="none"/><path d="M19.5,7.4L19.5,7.6L18,7.6L18,7.4z" stroke="none"/><path d="M21.1,12L20.9,12L20.9,10.5L21.1,10.5z" stroke="none"/><path d="M16.5,10.4L16.5,10.6L15,10.6L15,10.4z" stroke="none"/><path d="M12,3.1L12,2.9L16.5,2.9L16.5,3.1z" stroke="none"/><path d="M4.4,4.5L4.6,4.5L4.6,6.04142135623731L3.6,7.04142135623731L3.6,7.95857864376269L4.570710678118655,8.929289321881345L4.429289321881345,9.070710678118655L3.4,8.04142135623731L3.4,6.95857864376269L4.4,5.95857864376269z" stroke="none"/><path d="M27,5.9L27,6.1L22.458578643762692,6.1L20.929289321881345,4.570710678118655L21.070710678118655,4.429289321881345L22.541421356237308,5.9z" stroke="none"/><path d="M25.5,8.9L25.5,9.1L19.541421356237308,9.1L18.070710678118655,10.570710678118655L17.929289321881345,10.429289321881345L19.458578643762692,8.9z" stroke="none"/><path d="M12.070710678118655,6.070710678118655L11.929289321881345,5.929289321881345L13.45857864376269,4.4L13.95857864376269,4.4L14.45857864376269,3.9L16.958578643762692,3.9L17.4,3.4585786437626904L17.4,2.9585786437626904L18.458578643762692,1.9L24.541421356237308,1.9L25.1,2.4585786437626904L25.1,3.5414213562373096L24.541421356237308,4.1L23.458578643762692,4.1L22.958578643762692,3.6L20.541421356237308,3.6L19.570710678118655,4.570710678118655L19.429289321881345,4.429289321881345L20.458578643762692,3.4L23.041421356237308,3.4L23.541421356237308,3.9L24.458578643762692,3.9L24.9,3.4585786437626904L24.9,2.5414213562373096L24.458578643762692,2.1L18.541421356237308,2.1L17.6,3.0414213562373096L17.6,3.5414213562373096L17.041421356237308,4.1L14.54142135623731,4.1L14.04142135623731,4.6L13.54142135623731,4.6z" stroke="none"/><path d="M4.429289321881345,10.429289321881345L4.570710678118655,10.570710678118655L3.6,11.54142135623731L3.6,12.45857864376269L4.04142135623731,12.9L10.95857864376269,12.9L11.929289321881345,11.929289321881345L12.070710678118655,12.070710678118655L11.04142135623731,13.1L3.9585786437626904,13.1L3.4,12.54142135623731L3.4,11.45857864376269z" stroke="none"/><path d="M2.9,9L3.1,9L3.1,12.95857864376269L3.5414213562373096,13.4L11.45857864376269,13.4L11.95857864376269,12.9L12.45857864376269,12.9L12.9,12.45857864376269L12.9,11.54142135623731L12.45857864376269,11.1L11.54142135623731,11.1L10.570710678118655,12.070710678118655L10.429289321881345,11.929289321881345L11.45857864376269,10.9L12.54142135623731,10.9L13.1,11.45857864376269L13.1,12.54142135623731L12.54142135623731,13.1L12.04142135623731,13.1L11.54142135623731,13.6L3.4585786437626904,13.6L2.9,13.04142135623731z" stroke="none"/><path d="M22.5,4.6L22.5,4.4L24.958578643762692,4.4L25.4,3.9585786437626904L25.4,2.0414213562373096L24.958578643762692,1.6L12.04142135623731,1.6L11.1,2.5414213562373096L11.1,3.4585786437626904L12.070710678118655,4.429289321881345L11.929289321881345,4.570710678118655L10.9,3.5414213562373096L10.9,2.4585786437626904L11.95857864376269,1.4L25.041421356237308,1.4L25.6,1.9585786437626904L25.6,4.04142135623731L25.041421356237308,4.6z" stroke="none"/><path d="M9,10.6L9,10.4L13.04142135623731,10.4L13.6,10.95857864376269L13.6,11.45857864376269L14.04142135623731,11.9L19.5,11.9L19.5,12.1L13.95857864376269,12.1L13.4,11.54142135623731L13.4,11.04142135623731L12.95857864376269,10.6z" stroke="none"/><path d="M7.570710678118655,4.570710678118655L7.429289321881345,4.429289321881345L9.95857864376269,1.9L10.45857864376269,1.9L11.45857864376269,0.9L26.041421356237308,0.9L27.041421356237308,1.9L27.541421356237308,1.9L28.1,2.4585786437626904L28.1,6.54142135623731L27.541421356237308,7.1L22.541421356237308,7.1L22.041421356237308,7.6L21.541421356237308,7.6L21.041421356237308,8.1L20.541421356237308,8.1L20.041421356237308,8.6L19.041421356237308,8.6L18.541421356237308,9.1L18,9.1L18,8.9L18.458578643762692,8.9L18.958578643762692,8.4L19.958578643762692,8.4L20.458578643762692,7.9L20.958578643762692,7.9L21.458578643762692,7.4L21.958578643762692,7.4L22.458578643762692,6.9L27.458578643762692,6.9L27.9,6.45857864376269L27.9,2.5414213562373096L27.458578643762692,2.1L26.958578643762692,2.1L25.958578643762692,1.1L11.54142135623731,1.1L10.54142135623731,2.1L10.04142135623731,2.1z" stroke="none"/><path d="M13.5,8.9L13.5,9.1L9.54142135623731,9.1L9.04142135623731,9.6L8.54142135623731,9.6L8.04142135623731,10.1L6.95857864376269,10.1L5.9,9.04142135623731L5.9,8.04142135623731L5.4,7.54142135623731L5.4,7.04142135623731L4.9,6.54142135623731L4.9,5.45857864376269L5.4,4.95857864376269L5.4,4.04142135623731L4.95857864376269,3.6L4.04142135623731,3.6L3.0707106781186546,4.570710678118655L2.9292893218813454,4.429289321881345L3.9585786437626904,3.4L5.04142135623731,3.4L5.6,3.9585786437626904L5.6,5.04142135623731L5.1,5.54142135623731L5.1,6.45857864376269L5.6,6.95857864376269L5.6,7.45857864376269L6.1,7.95857864376269L6.1,8.95857864376269L7.04142135623731,9.9L7.95857864376269,9.9L8.45857864376269,9.4L8.95857864376269,9.4L9.45857864376269,8.9z" stroke="none"/></svg>