<svg version="1.1" width="30" height="15" xmlns="http://www.w3.org/2000/svg"><path d="M2.9585786437626904,8.9L3.9,7.95857864376269L3.9,6.45857864376269L4.429289321881345,5.929289321881345L4.570710678118655,6.070710678118655L4.1,6.54142135623731L4.1,8.04142135623731L3.1,9.04142135623731L3.1,10.5L2.9,10.5L2.9,9.1L2.5414213562373096,9.1L2.1,9.54142135623731L2.1,10.45857864376269L2.5414213562373096,10.9L3.4585786437626904,10.9L3.9585786437626904,10.4L4.5,10.4L4.5,10.6L4.04142135623731,10.6L3.5414213562373096,11.1L2.4585786437626904,11.1L1.9,10.54142135623731L1.9,9.45857864376269L2.4585786437626904,8.9z" stroke="none"/><path d="M6.4,2.9L6.4,2.5414213562373096L5.95857864376269,2.1L4.54142135623731,2.1L4.1,2.5414213562373096L4.1,3.5414213562373096L3.6,4.04142135623731L3.6,7.04142135623731L3.0707106781186546,7.570710678118655L2.9292893218813454,7.429289321881345L3.4,6.95857864376269L3.4,3.9585786437626904L3.9,3.4585786437626904L3.9,2.4585786437626904L4.45857864376269,1.9L6.04142135623731,1.9L6.6,2.4585786437626904L6.6,2.9L12,2.9L12,3.1L4.5,3.1L4.5,2.9z" stroke="none"/><path d="M12.04142135623731,5.9L13.04142135623731,6.9L13.95857864376269,6.9L14.929289321881345,5.929289321881345L15.070710678118655,6.070710678118655L14.04142135623731,7.1L12.95857864376269,7.1L12.1,6.24142135623731L12.1,6.95857864376269L12.54142135623731,7.4L19.5,7.4L19.5,7.6L12.45857864376269,7.6L11.9,7.04142135623731L11.9,6.24142135623731L11.54142135623731,6.6L10.04142135623731,6.6L9.070710678118655,7.570710678118655L8.929289321881345,7.429289321881345L9.95857864376269,6.4L11.45857864376269,6.4L11.758578643762691,6.1L10.95857864376269,6.1L10.45857864376269,5.6L9.95857864376269,5.6L8.95857864376269,4.6L7.5,4.6L7.5,4.4L9.04142135623731,4.4L10.04142135623731,5.4L10.54142135623731,5.4L11.04142135623731,5.9z" stroke="none"/><path d="M15.9,10.4L15.9,10.04142135623731L15.45857864376269,9.6L12.95857864376269,9.6L12.45857864376269,9.1L10.5,9.1L10.5,8.9L12.54142135623731,8.9L13.04142135623731,9.4L15.54142135623731,9.4L16.1,9.95857864376269L16.1,10.258578643762691L16.958578643762692,9.4L18.541421356237308,9.4L19.041421356237308,9.9L20.541421356237308,9.9L21.070710678118655,10.429289321881345L20.929289321881345,10.570710678118655L20.458578643762692,10.1L18.958578643762692,10.1L18.458578643762692,9.6L17.041421356237308,9.6L16.24142135623731,10.4L16.541421356237308,10.4L17.541421356237308,11.4L18.541421356237308,11.4L19.041421356237308,11.9L22.5,11.9L22.5,12.1L18.958578643762692,12.1L18.458578643762692,11.6L17.458578643762692,11.6L16.458578643762692,10.6L14.54142135623731,10.6L14.04142135623731,11.1L12.54142135623731,11.1L11.54142135623731,12.1L10.5,12.1L10.5,11.9L11.45857864376269,11.9L12.45857864376269,10.9L13.95857864376269,10.9L14.45857864376269,10.4z" stroke="none"/><path d="M20.9,6L21.1,6L21.1,7.5L20.9,7.5z" stroke="none"/><path d="M6,10.6L6,10.4L7.5,10.4L7.5,10.6z" stroke="none"/><path d="M21.070710678118655,4.570710678118655L20.929289321881345,4.429289321881345L22.429289321881345,2.9292893218813454L22.570710678118655,3.0707106781186546z" stroke="none"/><path d="M10.429289321881345,7.429289321881345L10.570710678118655,7.570710678118655L9.54142135623731,8.6L8.45857864376269,8.6L7.429289321881345,7.570710678118655L7.570710678118655,7.429289321881345L8.54142135623731,8.4L9.45857864376269,8.4z" stroke="none"/><path d="M3,12.1L3,11.9L6,11.9L6,12.1z" stroke="none"/><path d="M14.929289321881345,2.9292893218813454L15.070710678118655,3.0707106781186546L14.1,4.04142135623731L14.1,5.54142135623731L13.570710678118655,6.070710678118655L13.429289321881345,5.929289321881345L13.9,5.45857864376269L13.9,3.9585786437626904z" stroke="none"/><path d="M4.570710678118655,9.070710678118655L4.429289321881345,8.929289321881345L4.9,8.45857864376269L4.9,7.45857864376269L5.4,6.95857864376269L5.4,5.54142135623731L4.429289321881345,4.570710678118655L4.570710678118655,4.429289321881345L5.6,5.45857864376269L5.6,7.04142135623731L5.1,7.54142135623731L5.1,8.54142135623731z" stroke="none"/><path d="M24.1,9L23.9,9L23.9,8.45857864376269L24.4,7.95857864376269L24.4,6.95857864376269L26.929289321881345,4.429289321881345L27.070710678118655,4.570710678118655L24.6,7.04142135623731L24.6,8.04142135623731L24.1,8.54142135623731z" stroke="none"/><path d="M23.929289321881345,5.929289321881345L24.070710678118655,6.070710678118655L23.6,6.54142135623731L23.6,7.04142135623731L23.1,7.54142135623731L23.1,9.45857864376269L23.541421356237308,9.9L26.541421356237308,9.9L27.070710678118655,10.429289321881345L26.929289321881345,10.570710678118655L26.458578643762692,10.1L23.458578643762692,10.1L22.9,9.54142135623731L22.9,7.45857864376269L23.4,6.95857864376269L23.4,6.45857864376269z" stroke="none"/><path d="M7.429289321881345,12.070710678118655L7.570710678118655,11.929289321881345L8.04142135623731,12.4L9.04142135623731,12.4L9.54142135623731,12.9L11.95857864376269,12.9L12.45857864376269,12.4L12.95857864376269,12.4L13.429289321881345,11.929289321881345L13.570710678118655,12.070710678118655L13.04142135623731,12.6L12.54142135623731,12.6L12.04142135623731,13.1L9.45857864376269,13.1L8.95857864376269,12.6L7.95857864376269,12.6z" stroke="none"/><path d="M25.5,9.1L25.5,8.9L27.041421356237308,8.9L28.1,9.95857864376269L28.1,11.04142135623731L27.541421356237308,11.6L26.458578643762692,11.6L25.958578643762692,11.1L22.041421356237308,11.1L21.541421356237308,11.6L19.458578643762692,11.6L18.458578643762692,10.6L18,10.6L18,10.4L18.541421356237308,10.4L19.541421356237308,11.4L21.458578643762692,11.4L21.958578643762692,10.9L26.041421356237308,10.9L26.541421356237308,11.4L27.458578643762692,11.4L27.9,10.95857864376269L27.9,10.04142135623731L26.958578643762692,9.1z" stroke="none"/><path d="M19.570710678118655,4.570710678118655L19.429289321881345,4.429289321881345L21.958578643762692,1.9L24.041421356237308,1.9L25.541421356237308,3.4L27.541421356237308,3.4L28.1,3.9585786437626904L28.1,5.04142135623731L27.070710678118655,6.070710678118655L26.929289321881345,5.929289321881345L27.9,4.95857864376269L27.9,4.04142135623731L27.458578643762692,3.6L25.458578643762692,3.6L23.958578643762692,2.1L22.041421356237308,2.1z" stroke="none"/><path d="M19.570710678118655,3.0707106781186546L19.429289321881345,2.9292893218813454L20.958578643762692,1.4L26.541421356237308,1.4L28.6,3.4585786437626904L28.6,5.54142135623731L28.1,6.04142135623731L28.1,6.54142135623731L27.070710678118655,7.570710678118655L26.929289321881345,7.429289321881345L27.9,6.45857864376269L27.9,5.95857864376269L28.4,5.45857864376269L28.4,3.5414213562373096L26.458578643762692,1.6L21.041421356237308,1.6z" stroke="none"/><path d="M25.5,11.9L25.5,12.1L25.041421356237308,12.1L24.541421356237308,12.6L24.041421356237308,12.6L23.541421356237308,13.1L21.458578643762692,13.1L20.958578643762692,12.6L16.458578643762692,12.6L15.95857864376269,12.1L15,12.1L15,11.9L16.041421356237308,11.9L16.541421356237308,12.4L21.041421356237308,12.4L21.541421356237308,12.9L23.458578643762692,12.9L23.958578643762692,12.4L24.458578643762692,12.4L24.958578643762692,11.9z" stroke="none"/><path d="M6.070710678118655,4.570710678118655L5.929289321881345,4.429289321881345L6.95857864376269,3.4L11.04142135623731,3.4L11.54142135623731,3.9L12.45857864376269,3.9L14.45857864376269,1.9L15.54142135623731,1.9L16.1,2.4585786437626904L16.1,3.9585786437626904L16.570710678118655,4.429289321881345L16.429289321881345,4.570710678118655L15.9,4.04142135623731L15.9,2.5414213562373096L15.45857864376269,2.1L14.54142135623731,2.1L12.54142135623731,4.1L11.45857864376269,4.1L10.95857864376269,3.6L7.04142135623731,3.6z" stroke="none"/><path d="M14.929289321881345,4.570710678118655L15.070710678118655,4.429289321881345L16.041421356237308,5.4L16.958578643762692,5.4L17.4,4.95857864376269L17.4,3.4585786437626904L19.458578643762692,1.4L19.958578643762692,1.4L20.458578643762692,0.9L27.041421356237308,0.9L29.1,2.9585786437626904L29.1,6.54142135623731L28.6,7.04142135623731L28.6,7.54142135623731L27.541421356237308,8.6L26.458578643762692,8.6L25.429289321881345,7.570710678118655L25.570710678118655,7.429289321881345L26.541421356237308,8.4L27.458578643762692,8.4L28.4,7.45857864376269L28.4,6.95857864376269L28.9,6.45857864376269L28.9,3.0414213562373096L26.958578643762692,1.1L20.541421356237308,1.1L20.041421356237308,1.6L19.541421356237308,1.6L17.6,3.5414213562373096L17.6,5.04142135623731L17.041421356237308,5.6L15.95857864376269,5.6z" stroke="none"/></svg>