<svg version="1.1" width="30" height="15" xmlns="http://www.w3.org/2000/svg"><path d="M16.4,5.9L16.4,5.54142135623731L15.9,5.04142135623731L15.9,4.04142135623731L15.45857864376269,3.6L14.54142135623731,3.6L14.04142135623731,4.1L13.04142135623731,4.1L12.54142135623731,4.6L12,4.6L12,4.4L12.45857864376269,4.4L12.95857864376269,3.9L13.95857864376269,3.9L14.45857864376269,3.4L15.54142135623731,3.4L16.1,3.9585786437626904L16.1,4.95857864376269L16.6,5.45857864376269L16.6,5.95857864376269L17.041421356237308,6.4L18.541421356237308,6.4L19.541421356237308,7.4L21,7.4L21,7.6L19.458578643762692,7.6L18.458578643762692,6.6L16.958578643762692,6.6L16.458578643762692,6.1L15,6.1L15,5.9z" stroke="none"/><path d="M24.4,7.45857864376269L24.4,6.95857864376269L25.429289321881345,5.929289321881345L25.570710678118655,6.070710678118655L24.6,7.04142135623731L24.6,7.54142135623731L24.24142135623731,7.9L26.458578643762692,7.9L26.929289321881345,7.429289321881345L27.070710678118655,7.570710678118655L26.541421356237308,8.1L24.041421356237308,8.1L23.541421356237308,8.6L23.041421356237308,8.6L21.541421356237308,10.1L21.041421356237308,10.1L20.541421356237308,10.6L19.5,10.6L19.5,10.4L20.458578643762692,10.4L20.958578643762692,9.9L21.458578643762692,9.9L22.958578643762692,8.4L23.458578643762692,8.4z" stroke="none"/><path d="M25.4,3.4L25.4,3.0414213562373096L24.958578643762692,2.6L23.041421356237308,2.6L22.541421356237308,3.1L21.541421356237308,3.1L21.041421356237308,3.6L19.041421356237308,3.6L18.070710678118655,4.570710678118655L17.929289321881345,4.429289321881345L18.958578643762692,3.4L20.958578643762692,3.4L21.458578643762692,2.9L22.458578643762692,2.9L22.958578643762692,2.4L25.041421356237308,2.4L25.6,2.9585786437626904L25.6,3.4L25.958578643762692,3.4L26.458578643762692,2.9L27,2.9L27,3.1L26.541421356237308,3.1L26.041421356237308,3.6L25.6,3.6L25.6,3.9585786437626904L26.041421356237308,4.4L27,4.4L27,4.6L25.958578643762692,4.6L25.4,4.04142135623731L25.4,3.6L24.958578643762692,3.6L24.458578643762692,3.1L24,3.1L24,2.9L24.541421356237308,2.9L25.041421356237308,3.4z" stroke="none"/><path d="M7.45857864376269,9.4L7.95857864376269,8.9L8.45857864376269,8.9L9.45857864376269,7.9L12.04142135623731,7.9L12.54142135623731,8.4L13.95857864376269,8.4L14.929289321881345,7.429289321881345L15.070710678118655,7.570710678118655L14.04142135623731,8.6L12.45857864376269,8.6L11.95857864376269,8.1L9.54142135623731,8.1L8.54142135623731,9.1L8.04142135623731,9.1L7.6,9.54142135623731L7.6,12L7.4,12L7.4,9.741421356237309L7.04142135623731,10.1L6.54142135623731,10.1L6.070710678118655,10.570710678118655L5.929289321881345,10.429289321881345L6.45857864376269,9.9L6.95857864376269,9.9L7.25857864376269,9.6L6.04142135623731,9.6L5.54142135623731,10.1L3.9585786437626904,10.1L2.9292893218813454,9.070710678118655L3.0707106781186546,8.929289321881345L4.04142135623731,9.9L5.45857864376269,9.9L5.95857864376269,9.4z" stroke="none"/><path d="M4.5,3.1L4.5,2.9L6,2.9L6,3.1z" stroke="none"/><path d="M15,12.1L15,11.9L16.5,11.9L16.5,12.1z" stroke="none"/><path d="M22.4,4.5L22.6,4.5L22.6,6L22.4,6z" stroke="none"/><path d="M16.570710678118655,10.570710678118655L16.429289321881345,10.429289321881345L16.958578643762692,9.9L17.458578643762692,9.9L17.958578643762692,9.4L18.458578643762692,9.4L18.958578643762692,8.9L19.5,8.9L19.5,9.1L19.041421356237308,9.1L18.541421356237308,9.6L18.041421356237308,9.6L17.541421356237308,10.1L17.041421356237308,10.1z" stroke="none"/><path d="M25.429289321881345,9.070710678118655L25.570710678118655,8.929289321881345L26.1,9.45857864376269L26.1,10.45857864376269L26.6,10.95857864376269L26.6,11.45857864376269L27.070710678118655,11.929289321881345L26.929289321881345,12.070710678118655L26.4,11.54142135623731L26.4,11.04142135623731L25.9,10.54142135623731L25.9,9.54142135623731z" stroke="none"/><path d="M7.429289321881345,7.429289321881345L7.570710678118655,7.570710678118655L6.54142135623731,8.6L5.54142135623731,8.6L5.04142135623731,9.1L4.5,9.1L4.5,8.9L4.95857864376269,8.9L5.45857864376269,8.4L6.45857864376269,8.4z" stroke="none"/><path d="M25.429289321881345,12.070710678118655L25.570710678118655,11.929289321881345L26.541421356237308,12.9L27.458578643762692,12.9L27.9,12.45857864376269L27.9,11.04142135623731L27.4,10.54142135623731L27.4,9.54142135623731L26.929289321881345,9.070710678118655L27.070710678118655,8.929289321881345L27.6,9.45857864376269L27.6,10.45857864376269L28.1,10.95857864376269L28.1,12.54142135623731L27.541421356237308,13.1L26.458578643762692,13.1z" stroke="none"/><path d="M18,12.1L18,11.9L22.5,11.9L22.5,12.1z" stroke="none"/><path d="M19.5,4.6L19.5,4.4L20.458578643762692,4.4L20.958578643762692,3.9L21.458578643762692,3.9L21.958578643762692,3.4L23.041421356237308,3.4L24.070710678118655,4.429289321881345L23.929289321881345,4.570710678118655L22.958578643762692,3.6L22.041421356237308,3.6L21.541421356237308,4.1L21.041421356237308,4.1L20.541421356237308,4.6z" stroke="none"/><path d="M9,3.1L9,2.9L13.5,2.9L13.5,3.1z" stroke="none"/><path d="M7.429289321881345,4.429289321881345L7.570710678118655,4.570710678118655L6.04142135623731,6.1L5.54142135623731,6.1L4.04142135623731,7.6L3.0414213562373096,7.6L2.1,8.54142135623731L2.1,9.45857864376269L4.54142135623731,11.9L5.04142135623731,11.9L5.54142135623731,12.4L6.54142135623731,12.4L7.04142135623731,12.9L7.95857864376269,12.9L9.4,11.45857864376269L9.4,9.95857864376269L10.429289321881345,8.929289321881345L10.570710678118655,9.070710678118655L9.6,10.04142135623731L9.6,11.54142135623731L8.04142135623731,13.1L6.95857864376269,13.1L6.45857864376269,12.6L5.45857864376269,12.6L4.95857864376269,12.1L4.45857864376269,12.1L1.9,9.54142135623731L1.9,8.45857864376269L2.9585786437626904,7.4L3.9585786437626904,7.4L5.45857864376269,5.9L5.95857864376269,5.9z" stroke="none"/><path d="M22.429289321881345,10.570710678118655L22.570710678118655,10.429289321881345L23.6,11.45857864376269L23.6,12.54142135623731L23.041421356237308,13.1L14.45857864376269,13.1L13.9,12.54142135623731L13.9,11.45857864376269L16.429289321881345,8.929289321881345L16.570710678118655,9.070710678118655L14.1,11.54142135623731L14.1,12.45857864376269L14.54142135623731,12.9L22.958578643762692,12.9L23.4,12.45857864376269L23.4,11.54142135623731z" stroke="none"/><path d="M13.5,7.4L13.5,7.6L10.45857864376269,7.6L9.95857864376269,7.1L8.95857864376269,7.1L8.45857864376269,6.6L7.04142135623731,6.6L6.070710678118655,7.570710678118655L5.929289321881345,7.429289321881345L6.95857864376269,6.4L8.54142135623731,6.4L9.04142135623731,6.9L10.04142135623731,6.9L10.54142135623731,7.4z" stroke="none"/><path d="M13.570710678118655,10.570710678118655L13.429289321881345,10.429289321881345L15.95857864376269,7.9L20.041421356237308,7.9L21.070710678118655,8.929289321881345L20.929289321881345,9.070710678118655L19.958578643762692,8.1L16.041421356237308,8.1z" stroke="none"/><path d="M10.429289321881345,10.570710678118655L10.570710678118655,10.429289321881345L13.54142135623731,13.4L27.958578643762692,13.4L28.4,12.95857864376269L28.4,8.04142135623731L27.9,7.54142135623731L27.9,7.04142135623731L25.958578643762692,5.1L25.041421356237308,5.1L23.041421356237308,7.1L21.958578643762692,7.1L21.458578643762692,6.6L19.958578643762692,6.6L19.429289321881345,6.070710678118655L19.570710678118655,5.929289321881345L20.041421356237308,6.4L21.541421356237308,6.4L22.041421356237308,6.9L22.958578643762692,6.9L24.958578643762692,4.9L26.041421356237308,4.9L28.1,6.95857864376269L28.1,7.45857864376269L28.6,7.95857864376269L28.6,13.04142135623731L28.041421356237308,13.6L13.45857864376269,13.6z" stroke="none"/><path d="M2.9292893218813454,3.0707106781186546L3.0707106781186546,2.9292893218813454L4.04142135623731,3.9L6.45857864376269,3.9L6.95857864376269,3.4L8.04142135623731,3.4L8.54142135623731,3.9L9.04142135623731,3.9L9.54142135623731,4.4L10.04142135623731,4.4L10.54142135623731,4.9L11.04142135623731,4.9L11.54142135623731,5.4L13.45857864376269,5.4L14.45857864376269,4.4L15,4.4L15,4.6L14.54142135623731,4.6L13.54142135623731,5.6L11.45857864376269,5.6L10.95857864376269,5.1L10.45857864376269,5.1L9.95857864376269,4.6L9.45857864376269,4.6L8.95857864376269,4.1L8.45857864376269,4.1L7.95857864376269,3.6L7.04142135623731,3.6L6.54142135623731,4.1L3.9585786437626904,4.1z" stroke="none"/></svg>