<svg version="1.1" width="30" height="15" xmlns="http://www.w3.org/2000/svg"><path d="M7.4,7.4L7.4,6L7.6,6L7.6,7.4L7.95857864376269,7.4L8.4,6.95857864376269L8.4,6.45857864376269L8.929289321881345,5.929289321881345L9.070710678118655,6.070710678118655L8.6,6.54142135623731L8.6,7.04142135623731L8.04142135623731,7.6L7.04142135623731,7.6L6.54142135623731,8.1L5.54142135623731,8.1L5.1,8.54142135623731L5.1,9.45857864376269L6.070710678118655,10.429289321881345L5.929289321881345,10.570710678118655L4.9,9.54142135623731L4.9,8.45857864376269L5.45857864376269,7.9L6.45857864376269,7.9L6.95857864376269,7.4z" stroke="none"/><path d="M14.04142135623731,5.4L15.54142135623731,5.4L16.041421356237308,5.9L16.5,5.9L16.5,6.1L15.95857864376269,6.1L15.45857864376269,5.6L14.1,5.6L14.1,7.04142135623731L13.570710678118655,7.570710678118655L13.429289321881345,7.429289321881345L13.9,6.95857864376269L13.9,5.54142135623731L13.4,5.04142135623731L13.4,4.54142135623731L11.929289321881345,3.0707106781186546L12.070710678118655,2.9292893218813454L13.6,4.45857864376269L13.6,4.95857864376269z" stroke="none"/><path d="M19.9,7.4L19.9,7.04142135623731L19.458578643762692,6.6L19.041421356237308,6.6L18.541421356237308,7.1L17.541421356237308,7.1L17.1,7.54142135623731L17.1,8.54142135623731L16.6,9.04142135623731L16.6,10.5L16.4,10.5L16.4,8.95857864376269L16.9,8.45857864376269L16.9,7.45857864376269L17.458578643762692,6.9L18.458578643762692,6.9L18.958578643762692,6.4L19.541421356237308,6.4L20.1,6.95857864376269L20.1,7.4L24.958578643762692,7.4L26.458578643762692,5.9L27,5.9L27,6.1L26.541421356237308,6.1L25.041421356237308,7.6L20.1,7.6L20.1,8.54142135623731L19.570710678118655,9.070710678118655L19.429289321881345,8.929289321881345L19.9,8.45857864376269L19.9,7.6L18,7.6L18,7.4z" stroke="none"/><path d="M6.9,11.4L6.9,10.95857864376269L7.45857864376269,10.4L9.54142135623731,10.4L10.04142135623731,10.9L11.04142135623731,10.9L12.070710678118655,11.929289321881345L11.929289321881345,12.070710678118655L10.95857864376269,11.1L9.95857864376269,11.1L9.45857864376269,10.6L7.54142135623731,10.6L7.1,11.04142135623731L7.1,11.4L8.54142135623731,11.4L9.070710678118655,11.929289321881345L8.929289321881345,12.070710678118655L8.45857864376269,11.6L7.1,11.6L7.1,12.04142135623731L6.04142135623731,13.1L2.9585786437626904,13.1L2.4,12.54142135623731L2.4,9.45857864376269L2.9292893218813454,8.929289321881345L3.0707106781186546,9.070710678118655L2.6,9.54142135623731L2.6,12.45857864376269L3.0414213562373096,12.9L5.95857864376269,12.9L6.9,11.95857864376269L6.9,11.6L4.54142135623731,11.6L4.04142135623731,12.1L3,12.1L3,11.9L3.9585786437626904,11.9L4.45857864376269,11.4z" stroke="none"/><path d="M21,4.4L21,4.6L19.5,4.6L19.5,4.4z" stroke="none"/><path d="M6,9.1L6,8.9L7.5,8.9L7.5,9.1z" stroke="none"/><path d="M25.570710678118655,12.070710678118655L25.429289321881345,11.929289321881345L26.929289321881345,10.429289321881345L27.070710678118655,10.570710678118655z" stroke="none"/><path d="M23.9,3L24.1,3L24.1,6L23.9,6z" stroke="none"/><path d="M14.929289321881345,8.929289321881345L15.070710678118655,9.070710678118655L14.1,10.04142135623731L14.1,10.95857864376269L15.070710678118655,11.929289321881345L14.929289321881345,12.070710678118655L13.9,11.04142135623731L13.9,9.95857864376269z" stroke="none"/><path d="M12.1,7.5L11.9,7.5L11.9,4.54142135623731L10.9,3.5414213562373096L10.9,2.4585786437626904L11.45857864376269,1.9L12.54142135623731,1.9L15.070710678118655,4.429289321881345L14.929289321881345,4.570710678118655L12.45857864376269,2.1L11.54142135623731,2.1L11.1,2.5414213562373096L11.1,3.4585786437626904L12.1,4.45857864376269z" stroke="none"/><path d="M14.929289321881345,3.0707106781186546L15.070710678118655,2.9292893218813454L18.070710678118655,5.929289321881345L17.929289321881345,6.070710678118655z" stroke="none"/><path d="M19.5,10.6L19.5,10.4L24,10.4L24,10.6z" stroke="none"/><path d="M18,11.9L18,12.1L16.541421356237308,12.1L15.54142135623731,13.1L14.45857864376269,13.1L13.429289321881345,12.070710678118655L13.570710678118655,11.929289321881345L14.54142135623731,12.9L15.45857864376269,12.9L16.458578643762692,11.9z" stroke="none"/><path d="M21,3.1L21,2.9L21.958578643762692,2.9L22.458578643762692,2.4L22.958578643762692,2.4L23.458578643762692,1.9L24.541421356237308,1.9L25.570710678118655,2.9292893218813454L25.429289321881345,3.0707106781186546L24.458578643762692,2.1L23.541421356237308,2.1L23.041421356237308,2.6L22.541421356237308,2.6L22.041421356237308,3.1z" stroke="none"/><path d="M14.929289321881345,10.570710678118655L15.070710678118655,10.429289321881345L16.041421356237308,11.4L16.958578643762692,11.4L17.458578643762692,10.9L18.541421356237308,10.9L19.1,11.45857864376269L19.1,12.54142135623731L18.541421356237308,13.1L16.541421356237308,13.1L16.041421356237308,13.6L13.95857864376269,13.6L13.45857864376269,13.1L11.45857864376269,13.1L10.429289321881345,12.070710678118655L10.570710678118655,11.929289321881345L11.54142135623731,12.9L13.54142135623731,12.9L14.04142135623731,13.4L15.95857864376269,13.4L16.458578643762692,12.9L18.458578643762692,12.9L18.9,12.45857864376269L18.9,11.54142135623731L18.458578643762692,11.1L17.541421356237308,11.1L17.041421356237308,11.6L15.95857864376269,11.6z" stroke="none"/><path d="M3.0707106781186546,3.0707106781186546L2.9292893218813454,2.9292893218813454L3.9585786437626904,1.9L6.54142135623731,1.9L7.04142135623731,2.4L7.54142135623731,2.4L8.04142135623731,2.9L9,2.9L9,3.1L7.95857864376269,3.1L7.45857864376269,2.6L6.95857864376269,2.6L6.45857864376269,2.1L4.04142135623731,2.1z" stroke="none"/><path d="M26.929289321881345,4.570710678118655L27.070710678118655,4.429289321881345L28.1,5.45857864376269L28.1,6.54142135623731L27.541421356237308,7.1L27.041421356237308,7.1L26.541421356237308,7.6L26.041421356237308,7.6L25.541421356237308,8.1L24.541421356237308,8.1L24.041421356237308,8.6L23.541421356237308,8.6L23.041421356237308,9.1L22.5,9.1L22.5,8.9L22.958578643762692,8.9L23.458578643762692,8.4L23.958578643762692,8.4L24.458578643762692,7.9L25.458578643762692,7.9L25.958578643762692,7.4L26.458578643762692,7.4L26.958578643762692,6.9L27.458578643762692,6.9L27.9,6.45857864376269L27.9,5.54142135623731z" stroke="none"/><path d="M10.570710678118655,7.570710678118655L10.429289321881345,7.429289321881345L11.4,6.45857864376269L11.4,5.04142135623731L10.4,4.04142135623731L10.4,1.9585786437626904L10.95857864376269,1.4L16.041421356237308,1.4L16.541421356237308,1.9L17.041421356237308,1.9L18.070710678118655,2.9292893218813454L17.929289321881345,3.0707106781186546L16.958578643762692,2.1L16.458578643762692,2.1L15.95857864376269,1.6L11.04142135623731,1.6L10.6,2.0414213562373096L10.6,3.9585786437626904L11.6,4.95857864376269L11.6,6.54142135623731z" stroke="none"/><path d="M16.429289321881345,3.0707106781186546L16.570710678118655,2.9292893218813454L17.541421356237308,3.9L18.458578643762692,3.9L18.9,3.4585786437626904L18.9,2.5414213562373096L18.458578643762692,2.1L17.958578643762692,2.1L17.458578643762692,1.6L16.958578643762692,1.6L16.458578643762692,1.1L10.54142135623731,1.1L10.1,1.5414213562373096L10.1,3.5414213562373096L9.54142135623731,4.1L7.95857864376269,4.1L7.45857864376269,3.6L6.95857864376269,3.6L6.45857864376269,3.1L6,3.1L6,2.9L6.54142135623731,2.9L7.04142135623731,3.4L7.54142135623731,3.4L8.04142135623731,3.9L9.45857864376269,3.9L9.9,3.4585786437626904L9.9,1.4585786437626904L10.45857864376269,0.9L16.541421356237308,0.9L17.041421356237308,1.4L17.541421356237308,1.4L18.041421356237308,1.9L18.541421356237308,1.9L19.1,2.4585786437626904L19.1,3.5414213562373096L18.541421356237308,4.1L17.458578643762692,4.1z" stroke="none"/><path d="M10.570710678118655,5.929289321881345L10.429289321881345,6.070710678118655L9.45857864376269,5.1L7.04142135623731,5.1L4.04142135623731,8.1L2.5414213562373096,8.1L2.1,8.54142135623731L2.1,12.95857864376269L2.5414213562373096,13.4L12.04142135623731,13.4L12.54142135623731,13.9L19.958578643762692,13.9L20.958578643762692,12.9L22.458578643762692,12.9L22.958578643762692,12.4L23.458578643762692,12.4L24.9,10.95857864376269L24.9,10.04142135623731L24.458578643762692,9.6L23.541421356237308,9.6L23.041421356237308,10.1L21.958578643762692,10.1L20.929289321881345,9.070710678118655L21.070710678118655,8.929289321881345L22.041421356237308,9.9L22.958578643762692,9.9L23.458578643762692,9.4L24.541421356237308,9.4L25.1,9.95857864376269L25.1,11.04142135623731L23.541421356237308,12.6L23.041421356237308,12.6L22.541421356237308,13.1L21.041421356237308,13.1L20.041421356237308,14.1L12.45857864376269,14.1L11.95857864376269,13.6L2.4585786437626904,13.6L1.9,13.04142135623731L1.9,8.45857864376269L2.4585786437626904,7.9L3.9585786437626904,7.9L6.95857864376269,4.9L9.54142135623731,4.9z" stroke="none"/></svg>