<svg version="1.1" width="30" height="15" xmlns="http://www.w3.org/2000/svg"><path d="M17.958578643762692,6.4L18.458578643762692,5.9L19.5,5.9L19.5,6.1L18.541421356237308,6.1L18.041421356237308,6.6L14.54142135623731,6.6L13.570710678118655,7.570710678118655L13.429289321881345,7.429289321881345L14.258578643762691,6.6L11.54142135623731,6.6L10.54142135623731,7.6L9,7.6L9,7.4L10.45857864376269,7.4L11.45857864376269,6.4z" stroke="none"/><path d="M9,2.9L9,3.1L7.54142135623731,3.1L6.6,4.04142135623731L6.6,4.95857864376269L7.04142135623731,5.4L9.54142135623731,5.4L10.04142135623731,5.9L10.5,5.9L10.5,6.1L9.95857864376269,6.1L9.45857864376269,5.6L6.95857864376269,5.6L6.4,5.04142135623731L6.4,3.9585786437626904L7.25857864376269,3.1L3,3.1L3,2.9z" stroke="none"/><path d="M14.9,10.4L14.9,10.04142135623731L14.45857864376269,9.6L14.04142135623731,9.6L13.54142135623731,10.1L13.04142135623731,10.1L12.6,10.54142135623731L12.6,11.54142135623731L12.070710678118655,12.070710678118655L11.929289321881345,11.929289321881345L12.4,11.45857864376269L12.4,10.45857864376269L12.95857864376269,9.9L13.45857864376269,9.9L13.95857864376269,9.4L14.54142135623731,9.4L15.1,9.95857864376269L15.1,10.258578643762691L16.429289321881345,8.929289321881345L16.570710678118655,9.070710678118655L15.241421356237309,10.4L19.5,10.4L19.5,10.6L13.5,10.6L13.5,10.4z" stroke="none"/><path d="M13.9,4.4L13.9,3.9585786437626904L14.45857864376269,3.4L16.458578643762692,3.4L16.958578643762692,2.9L18,2.9L18,3.1L17.041421356237308,3.1L16.541421356237308,3.6L14.54142135623731,3.6L14.1,4.04142135623731L14.1,4.4L15.04142135623731,4.4L16.041421356237308,5.4L18.458578643762692,5.4L18.958578643762692,4.9L20.041421356237308,4.9L20.6,5.45857864376269L20.6,6.54142135623731L20.041421356237308,7.1L16.541421356237308,7.1L16.041421356237308,7.6L15.04142135623731,7.6L14.04142135623731,8.6L12.95857864376269,8.6L11.929289321881345,7.570710678118655L12.070710678118655,7.429289321881345L13.04142135623731,8.4L13.95857864376269,8.4L14.95857864376269,7.4L15.95857864376269,7.4L16.458578643762692,6.9L19.958578643762692,6.9L20.4,6.45857864376269L20.4,5.54142135623731L19.958578643762692,5.1L19.041421356237308,5.1L18.541421356237308,5.6L15.95857864376269,5.6L14.95857864376269,4.6L14.1,4.6L14.1,5.04142135623731L13.54142135623731,5.6L12.45857864376269,5.6L11.45857864376269,4.6L7.5,4.6L7.5,4.4L11.54142135623731,4.4L12.54142135623731,5.4L13.45857864376269,5.4L13.9,4.95857864376269L13.9,4.6L13.45857864376269,4.6L12.9,4.04142135623731L12.9,3.4585786437626904L13.45857864376269,2.9L15.95857864376269,2.9L16.458578643762692,2.4L18.541421356237308,2.4L19.041421356237308,2.9L19.5,2.9L19.5,3.1L18.958578643762692,3.1L18.458578643762692,2.6L16.541421356237308,2.6L16.041421356237308,3.1L13.54142135623731,3.1L13.1,3.5414213562373096L13.1,3.9585786437626904L13.54142135623731,4.4z" stroke="none"/><path d="M6,5.9L6,6.1L4.5,6.1L4.5,5.9z" stroke="none"/><path d="M7.5,9.1L7.5,8.9L10.5,8.9L10.5,9.1z" stroke="none"/><path d="M19.5,9.1L19.5,8.9L20.541421356237308,8.9L21.041421356237308,9.4L21.541421356237308,9.4L22.570710678118655,10.429289321881345L22.429289321881345,10.570710678118655L21.458578643762692,9.6L20.958578643762692,9.6L20.458578643762692,9.1z" stroke="none"/><path d="M20.929289321881345,10.570710678118655L21.070710678118655,10.429289321881345L22.041421356237308,11.4L24.458578643762692,11.4L24.9,10.95857864376269L24.9,10.04142135623731L23.929289321881345,9.070710678118655L24.070710678118655,8.929289321881345L25.1,9.95857864376269L25.1,11.04142135623731L24.541421356237308,11.6L21.958578643762692,11.6z" stroke="none"/><path d="M24.070710678118655,10.429289321881345L23.929289321881345,10.570710678118655L22.9,9.54142135623731L22.9,8.45857864376269L23.458578643762692,7.9L23.958578643762692,7.9L24.458578643762692,7.4L25.5,7.4L25.5,7.6L24.541421356237308,7.6L24.041421356237308,8.1L23.541421356237308,8.1L23.1,8.54142135623731L23.1,9.45857864376269z" stroke="none"/><path d="M18.070710678118655,9.070710678118655L17.929289321881345,8.929289321881345L18.958578643762692,7.9L19.958578643762692,7.9L20.458578643762692,7.4L21,7.4L21,7.6L20.541421356237308,7.6L20.041421356237308,8.1L19.041421356237308,8.1z" stroke="none"/><path d="M3.0707106781186546,11.929289321881345L2.9292893218813454,12.070710678118655L1.9,11.04142135623731L1.9,8.45857864376269L2.9292893218813454,7.429289321881345L3.0707106781186546,7.570710678118655L2.1,8.54142135623731L2.1,10.95857864376269z" stroke="none"/><path d="M7.6,12L7.4,12L7.4,11.54142135623731L6.9,11.04142135623731L6.9,10.04142135623731L5.9,9.04142135623731L5.9,7.5L6.1,7.5L6.1,8.95857864376269L7.1,9.95857864376269L7.1,10.95857864376269L7.6,11.45857864376269z" stroke="none"/><path d="M10.570710678118655,12.070710678118655L10.429289321881345,11.929289321881345L11.4,10.95857864376269L11.4,8.54142135623731L10.95857864376269,8.1L10.04142135623731,8.1L9.54142135623731,8.6L8.45857864376269,8.6L7.429289321881345,7.570710678118655L7.570710678118655,7.429289321881345L8.54142135623731,8.4L9.45857864376269,8.4L9.95857864376269,7.9L11.04142135623731,7.9L11.6,8.45857864376269L11.6,11.04142135623731z" stroke="none"/><path d="M8.929289321881345,11.929289321881345L9.070710678118655,12.070710678118655L8.04142135623731,13.1L6.95857864376269,13.1L5.4,11.54142135623731L5.4,11.04142135623731L4.9,10.54142135623731L4.9,9.54142135623731L4.429289321881345,9.070710678118655L4.570710678118655,8.929289321881345L5.1,9.45857864376269L5.1,10.45857864376269L5.6,10.95857864376269L5.6,11.45857864376269L7.04142135623731,12.9L7.95857864376269,12.9z" stroke="none"/><path d="M12,3.1L12,2.9L12.45857864376269,2.9L12.95857864376269,2.4L15.45857864376269,2.4L15.95857864376269,1.9L20.041421356237308,1.9L20.6,2.4585786437626904L20.6,3.5414213562373096L20.041421356237308,4.1L19.041421356237308,4.1L18.541421356237308,4.6L18,4.6L18,4.4L18.458578643762692,4.4L18.958578643762692,3.9L19.958578643762692,3.9L20.4,3.4585786437626904L20.4,2.5414213562373096L19.958578643762692,2.1L16.041421356237308,2.1L15.54142135623731,2.6L13.04142135623731,2.6L12.54142135623731,3.1z" stroke="none"/><path d="M26.9,9L27.1,9L27.1,9.54142135623731L26.6,10.04142135623731L26.6,10.54142135623731L25.041421356237308,12.1L19.5,12.1L19.5,11.9L24.958578643762692,11.9L26.4,10.45857864376269L26.4,9.95857864376269L26.9,9.45857864376269z" stroke="none"/><path d="M26.929289321881345,11.929289321881345L27.070710678118655,12.070710678118655L26.541421356237308,12.6L23.541421356237308,12.6L23.041421356237308,13.1L18.958578643762692,13.1L17.929289321881345,12.070710678118655L18.070710678118655,11.929289321881345L19.041421356237308,12.9L22.958578643762692,12.9L23.458578643762692,12.4L26.458578643762692,12.4z" stroke="none"/><path d="M2.9292893218813454,10.570710678118655L3.0707106781186546,10.429289321881345L4.04142135623731,11.4L4.54142135623731,11.4L6.54142135623731,13.4L9.45857864376269,13.4L9.95857864376269,12.9L12.45857864376269,12.9L13.429289321881345,11.929289321881345L13.570710678118655,12.070710678118655L12.54142135623731,13.1L10.04142135623731,13.1L9.54142135623731,13.6L6.45857864376269,13.6L4.45857864376269,11.6L3.9585786437626904,11.6z" stroke="none"/><path d="M3.0707106781186546,9.070710678118655L2.9292893218813454,8.929289321881345L3.9,7.95857864376269L3.9,7.04142135623731L3.4585786437626904,6.6L2.5414213562373096,6.6L1.6,7.54142135623731L1.6,11.45857864376269L2.1,11.95857864376269L2.1,12.45857864376269L2.5414213562373096,12.9L4.54142135623731,12.9L5.04142135623731,13.4L5.54142135623731,13.4L6.04142135623731,13.9L9.95857864376269,13.9L10.45857864376269,13.4L12.95857864376269,13.4L13.45857864376269,12.9L13.95857864376269,12.9L14.929289321881345,11.929289321881345L15.070710678118655,12.070710678118655L14.04142135623731,13.1L13.54142135623731,13.1L13.04142135623731,13.6L10.54142135623731,13.6L10.04142135623731,14.1L5.95857864376269,14.1L5.45857864376269,13.6L4.95857864376269,13.6L4.45857864376269,13.1L2.4585786437626904,13.1L1.9,12.54142135623731L1.9,12.04142135623731L1.4,11.54142135623731L1.4,7.45857864376269L2.4585786437626904,6.4L3.5414213562373096,6.4L4.1,6.95857864376269L4.1,8.04142135623731z" stroke="none"/><path d="M10.570710678118655,3.0707106781186546L10.429289321881345,2.9292893218813454L11.45857864376269,1.9L14.45857864376269,1.9L14.95857864376269,1.4L20.541421356237308,1.4L21.1,1.9585786437626904L21.1,4.45857864376269L21.6,4.95857864376269L21.6,5.95857864376269L22.6,6.95857864376269L22.6,7.5L22.4,7.5L22.4,7.04142135623731L21.4,6.04142135623731L21.4,5.04142135623731L20.9,4.54142135623731L20.9,2.0414213562373096L20.458578643762692,1.6L15.04142135623731,1.6L14.54142135623731,2.1L11.54142135623731,2.1z" stroke="none"/></svg>