<svg version="1.1" width="30" height="15" xmlns="http://www.w3.org/2000/svg"><path d="M15.54142135623731,9.4L16.041421356237308,9.9L16.958578643762692,9.9L17.929289321881345,8.929289321881345L18.070710678118655,9.070710678118655L17.041421356237308,10.1L15.95857864376269,10.1L15.45857864376269,9.6L15.1,9.6L15.1,9.95857864376269L15.54142135623731,10.4L18,10.4L18,10.6L15.45857864376269,10.6L14.9,10.04142135623731L14.9,9.6L11.95857864376269,9.6L11.45857864376269,9.1L10.5,9.1L10.5,8.9L11.54142135623731,8.9L12.04142135623731,9.4z" stroke="none"/><path d="M16.041421356237308,5.9L17.541421356237308,5.9L18.041421356237308,6.4L19.041421356237308,6.4L19.541421356237308,6.9L22.041421356237308,6.9L22.570710678118655,7.429289321881345L22.429289321881345,7.570710678118655L21.958578643762692,7.1L19.458578643762692,7.1L18.958578643762692,6.6L17.958578643762692,6.6L17.458578643762692,6.1L15.54142135623731,6.1L15.04142135623731,6.6L14.04142135623731,6.6L13.04142135623731,7.6L12,7.6L12,7.4L12.95857864376269,7.4L13.95857864376269,6.4L14.95857864376269,6.4L15.45857864376269,5.9L15.758578643762691,5.9L13.9,4.04142135623731L13.9,3.5414213562373096L13.429289321881345,3.0707106781186546L13.570710678118655,2.9292893218813454L14.1,3.4585786437626904L14.1,3.9585786437626904z" stroke="none"/><path d="M9.95857864376269,4.9L10.9,3.9585786437626904L10.9,3.4585786437626904L11.9,2.4585786437626904L11.9,1.9585786437626904L12.45857864376269,1.4L15.04142135623731,1.4L15.54142135623731,1.9L17.041421356237308,1.9L18.070710678118655,2.9292893218813454L17.929289321881345,3.0707106781186546L16.958578643762692,2.1L15.45857864376269,2.1L14.95857864376269,1.6L12.54142135623731,1.6L12.1,2.0414213562373096L12.1,2.5414213562373096L11.1,3.5414213562373096L11.1,4.04142135623731L10.1,5.04142135623731L10.1,6.04142135623731L9.54142135623731,6.6L9.04142135623731,6.6L8.04142135623731,7.6L6,7.6L6,7.4L7.95857864376269,7.4L8.95857864376269,6.4L9.45857864376269,6.4L9.9,5.95857864376269L9.9,5.24142135623731L9.070710678118655,6.070710678118655L8.929289321881345,5.929289321881345L9.758578643762691,5.1L7.95857864376269,5.1L7.429289321881345,4.570710678118655L7.570710678118655,4.429289321881345L8.04142135623731,4.9z" stroke="none"/><path d="M21.4,6.4L21.4,4.45857864376269L21.958578643762692,3.9L23.041421356237308,3.9L24.6,5.45857864376269L24.6,5.95857864376269L26.1,7.45857864376269L26.1,7.95857864376269L27.070710678118655,8.929289321881345L26.929289321881345,9.070710678118655L25.9,8.04142135623731L25.9,7.54142135623731L24.4,6.04142135623731L24.4,5.54142135623731L22.958578643762692,4.1L22.041421356237308,4.1L21.6,4.54142135623731L21.6,6.25857864376269L21.9,5.95857864376269L21.9,4.95857864376269L22.429289321881345,4.429289321881345L22.570710678118655,4.570710678118655L22.1,5.04142135623731L22.1,6.04142135623731L21.74142135623731,6.4L23.041421356237308,6.4L23.6,6.95857864376269L23.6,8.04142135623731L22.570710678118655,9.070710678118655L22.429289321881345,8.929289321881345L23.4,7.95857864376269L23.4,7.04142135623731L22.958578643762692,6.6L19.958578643762692,6.6L19.458578643762692,6.1L18.458578643762692,6.1L16.458578643762692,4.1L15.95857864376269,4.1L13.95857864376269,2.1L13.04142135623731,2.1L12.6,2.5414213562373096L12.6,3.0414213562373096L11.6,4.04142135623731L11.6,5.54142135623731L11.1,6.04142135623731L11.1,7.95857864376269L11.54142135623731,8.4L15.04142135623731,8.4L15.54142135623731,8.9L16.5,8.9L16.5,9.1L15.45857864376269,9.1L14.95857864376269,8.6L11.45857864376269,8.6L10.9,8.04142135623731L10.9,5.95857864376269L11.4,5.45857864376269L11.4,3.9585786437626904L12.4,2.9585786437626904L12.4,2.4585786437626904L12.95857864376269,1.9L14.04142135623731,1.9L16.041421356237308,3.9L16.541421356237308,3.9L18.541421356237308,5.9L19.541421356237308,5.9L20.041421356237308,6.4z" stroke="none"/><path d="M3.1,9L2.9,9L2.9,7.5L3.1,7.5z" stroke="none"/><path d="M9,8.9L9,9.1L7.5,9.1L7.5,8.9z" stroke="none"/><path d="M7.5,12.1L7.5,11.9L9,11.9L9,12.1z" stroke="none"/><path d="M26.9,10.5L27.1,10.5L27.1,12L26.9,12z" stroke="none"/><path d="M6,2.9L6,3.1L4.5,3.1L4.5,2.9z" stroke="none"/><path d="M10.429289321881345,10.570710678118655L10.570710678118655,10.429289321881345L12.070710678118655,11.929289321881345L11.929289321881345,12.070710678118655z" stroke="none"/><path d="M4.429289321881345,8.929289321881345L4.570710678118655,9.070710678118655L3.0707106781186546,10.570710678118655L2.9292893218813454,10.429289321881345z" stroke="none"/><path d="M24.070710678118655,11.929289321881345L23.929289321881345,12.070710678118655L22.429289321881345,10.570710678118655L22.570710678118655,10.429289321881345z" stroke="none"/><path d="M4.429289321881345,4.429289321881345L4.570710678118655,4.570710678118655L3.0707106781186546,6.070710678118655L2.9292893218813454,5.929289321881345z" stroke="none"/><path d="M10.570710678118655,11.929289321881345L10.429289321881345,12.070710678118655L9.45857864376269,11.1L7.04142135623731,11.1L6.070710678118655,12.070710678118655L5.929289321881345,11.929289321881345L6.95857864376269,10.9L9.54142135623731,10.9z" stroke="none"/><path d="M22.429289321881345,12.070710678118655L22.570710678118655,11.929289321881345L23.541421356237308,12.9L27.458578643762692,12.9L27.9,12.45857864376269L27.9,8.54142135623731L26.929289321881345,7.570710678118655L27.070710678118655,7.429289321881345L28.1,8.45857864376269L28.1,12.54142135623731L27.541421356237308,13.1L23.458578643762692,13.1z" stroke="none"/><path d="M17.929289321881345,7.570710678118655L18.070710678118655,7.429289321881345L19.1,8.45857864376269L19.1,11.04142135623731L18.541421356237308,11.6L17.458578643762692,11.6L16.958578643762692,11.1L12.95857864376269,11.1L12.45857864376269,10.6L12,10.6L12,10.4L12.54142135623731,10.4L13.04142135623731,10.9L17.041421356237308,10.9L17.541421356237308,11.4L18.458578643762692,11.4L18.9,10.95857864376269L18.9,8.54142135623731z" stroke="none"/><path d="M25.5,4.4L25.5,4.6L24.958578643762692,4.6L24.458578643762692,4.1L23.958578643762692,4.1L23.458578643762692,3.6L21.541421356237308,3.6L21.1,4.04142135623731L21.1,4.54142135623731L20.041421356237308,5.6L18.958578643762692,5.6L16.429289321881345,3.0707106781186546L16.570710678118655,2.9292893218813454L19.041421356237308,5.4L19.958578643762692,5.4L20.9,4.45857864376269L20.9,3.9585786437626904L21.458578643762692,3.4L23.541421356237308,3.4L24.041421356237308,3.9L24.541421356237308,3.9L25.041421356237308,4.4z" stroke="none"/><path d="M19.570710678118655,2.9292893218813454L19.429289321881345,3.0707106781186546L18.458578643762692,2.1L17.958578643762692,2.1L16.958578643762692,1.1L12.04142135623731,1.1L11.04142135623731,2.1L10.54142135623731,2.1L9.54142135623731,3.1L9,3.1L9,2.9L9.45857864376269,2.9L10.45857864376269,1.9L10.95857864376269,1.9L11.95857864376269,0.9L17.041421356237308,0.9L18.041421356237308,1.9L18.541421356237308,1.9z" stroke="none"/><path d="M16.5,11.9L16.5,12.1L14.54142135623731,12.1L14.04142135623731,12.6L13.04142135623731,12.6L12.54142135623731,13.1L5.45857864376269,13.1L4.9,12.54142135623731L4.9,11.45857864376269L5.929289321881345,10.429289321881345L6.070710678118655,10.570710678118655L5.1,11.54142135623731L5.1,12.45857864376269L5.54142135623731,12.9L12.45857864376269,12.9L12.95857864376269,12.4L13.95857864376269,12.4L14.45857864376269,11.9z" stroke="none"/><path d="M19.570710678118655,4.570710678118655L19.429289321881345,4.429289321881345L20.4,3.4585786437626904L20.4,2.5414213562373096L19.958578643762692,2.1L19.458578643762692,2.1L18.458578643762692,1.1L17.958578643762692,1.1L17.458578643762692,0.6L11.04142135623731,0.6L10.54142135623731,1.1L9.54142135623731,1.1L6.6,4.04142135623731L6.6,4.95857864376269L7.570710678118655,5.929289321881345L7.429289321881345,6.070710678118655L6.4,5.04142135623731L6.4,3.9585786437626904L9.45857864376269,0.9L10.45857864376269,0.9L10.95857864376269,0.4L17.541421356237308,0.4L18.041421356237308,0.9L18.541421356237308,0.9L19.541421356237308,1.9L20.041421356237308,1.9L20.6,2.4585786437626904L20.6,3.5414213562373096z" stroke="none"/></svg>