<svg version="1.1" width="30" height="15" xmlns="http://www.w3.org/2000/svg"><path d="M8.54142135623731,5.9L9.04142135623731,6.4L9.54142135623731,6.4L10.54142135623731,7.4L12,7.4L12,7.6L10.45857864376269,7.6L9.45857864376269,6.6L8.95857864376269,6.6L8.45857864376269,6.1L7.6,6.1L7.6,7.5L7.4,7.5L7.4,6.1L6.45857864376269,6.1L5.95857864376269,5.6L3.9585786437626904,5.6L2.9292893218813454,4.570710678118655L3.0707106781186546,4.429289321881345L4.04142135623731,5.4L6.04142135623731,5.4L6.54142135623731,5.9z" stroke="none"/><path d="M10.4,9.45857864376269L11.45857864376269,8.4L12.54142135623731,8.4L13.1,8.95857864376269L13.1,9.95857864376269L13.570710678118655,10.429289321881345L13.429289321881345,10.570710678118655L12.9,10.04142135623731L12.9,9.04142135623731L12.45857864376269,8.6L11.54142135623731,8.6L10.6,9.54142135623731L10.6,10.258578643762691L11.929289321881345,8.929289321881345L12.070710678118655,9.070710678118655L10.6,10.54142135623731L10.6,12L10.4,12z" stroke="none"/><path d="M5.9,8.95857864376269L5.9,7.5L6.1,7.5L6.1,8.9L9,8.9L9,9.1L6.24142135623731,9.1L7.570710678118655,10.429289321881345L7.429289321881345,10.570710678118655L6,9.14142135623731L3.0707106781186546,12.070710678118655L2.9292893218813454,11.929289321881345z" stroke="none"/><path d="M10.4,3.4L10.4,2.9585786437626904L10.95857864376269,2.4L12.54142135623731,2.4L13.04142135623731,2.9L15,2.9L15,3.1L12.95857864376269,3.1L12.45857864376269,2.6L11.04142135623731,2.6L10.6,3.0414213562373096L10.6,3.4L11.04142135623731,3.4L11.54142135623731,3.9L12.54142135623731,3.9L13.04142135623731,4.4L13.5,4.4L13.5,4.6L12.95857864376269,4.6L12.45857864376269,4.1L11.45857864376269,4.1L10.95857864376269,3.6L10.6,3.6L10.6,4.04142135623731L10.04142135623731,4.6L6,4.6L6,4.4L9.95857864376269,4.4L10.4,3.9585786437626904L10.4,3.6L9.45857864376269,3.6L8.95857864376269,3.1L7.5,3.1L7.5,2.9L9.04142135623731,2.9L9.54142135623731,3.4z" stroke="none"/><path d="M22.5,4.4L22.5,4.6L21,4.6L21,4.4z" stroke="none"/><path d="M22.5,12.1L22.5,11.9L24,11.9L24,12.1z" stroke="none"/><path d="M16.429289321881345,2.9292893218813454L16.570710678118655,3.0707106781186546L15.070710678118655,4.570710678118655L14.929289321881345,4.429289321881345z" stroke="none"/><path d="M17.929289321881345,7.570710678118655L18.070710678118655,7.429289321881345L19.570710678118655,8.929289321881345L19.429289321881345,9.070710678118655z" stroke="none"/><path d="M24.070710678118655,4.429289321881345L23.929289321881345,4.570710678118655L22.429289321881345,3.0707106781186546L22.570710678118655,2.9292893218813454z" stroke="none"/><path d="M21.070710678118655,12.070710678118655L20.929289321881345,11.929289321881345L22.429289321881345,10.429289321881345L22.570710678118655,10.570710678118655z" stroke="none"/><path d="M27.1,12L26.9,12L26.9,9L27.1,9z" stroke="none"/><path d="M24,8.9L24,9.1L23.041421356237308,9.1L22.541421356237308,9.6L22.041421356237308,9.6L21.070710678118655,10.570710678118655L20.929289321881345,10.429289321881345L21.958578643762692,9.4L22.458578643762692,9.4L22.958578643762692,8.9z" stroke="none"/><path d="M5.929289321881345,10.570710678118655L6.070710678118655,10.429289321881345L7.04142135623731,11.4L7.95857864376269,11.4L9.9,9.45857864376269L9.9,8.54142135623731L8.929289321881345,7.570710678118655L9.070710678118655,7.429289321881345L10.1,8.45857864376269L10.1,9.54142135623731L8.04142135623731,11.6L6.95857864376269,11.6z" stroke="none"/><path d="M25.6,10.5L25.4,10.5L25.4,8.95857864376269L26.4,7.95857864376269L26.4,7.04142135623731L25.429289321881345,6.070710678118655L25.570710678118655,5.929289321881345L26.6,6.95857864376269L26.6,8.04142135623731L25.6,9.04142135623731z" stroke="none"/><path d="M25.570710678118655,11.929289321881345L25.429289321881345,12.070710678118655L24.4,11.04142135623731L24.4,9.95857864376269L24.9,9.45857864376269L24.9,8.54142135623731L23.929289321881345,7.570710678118655L24.070710678118655,7.429289321881345L25.1,8.45857864376269L25.1,9.54142135623731L24.6,10.04142135623731L24.6,10.95857864376269z" stroke="none"/><path d="M22.429289321881345,7.429289321881345L22.570710678118655,7.570710678118655L20.1,10.04142135623731L20.1,11.04142135623731L19.6,11.54142135623731L19.6,12L19.4,12L19.4,11.45857864376269L19.9,10.95857864376269L19.9,9.95857864376269z" stroke="none"/><path d="M27,4.4L27,4.6L25.541421356237308,4.6L24.041421356237308,6.1L21,6.1L21,5.9L23.958578643762692,5.9L25.458578643762692,4.4z" stroke="none"/><path d="M10.5,6.1L10.5,5.9L14.45857864376269,5.9L14.95857864376269,5.4L15.45857864376269,5.4L17.4,3.4585786437626904L17.4,2.5414213562373096L16.958578643762692,2.1L7.04142135623731,2.1L4.570710678118655,4.570710678118655L4.429289321881345,4.429289321881345L6.95857864376269,1.9L17.041421356237308,1.9L17.6,2.4585786437626904L17.6,3.5414213562373096L15.54142135623731,5.6L15.04142135623731,5.6L14.54142135623731,6.1z" stroke="none"/><path d="M2.9292893218813454,10.429289321881345L3.0707106781186546,10.570710678118655L2.1,11.54142135623731L2.1,12.45857864376269L2.5414213562373096,12.9L10.95857864376269,12.9L11.4,12.45857864376269L11.4,10.95857864376269L11.929289321881345,10.429289321881345L12.070710678118655,10.570710678118655L11.6,11.04142135623731L11.6,12.54142135623731L11.04142135623731,13.1L2.4585786437626904,13.1L1.9,12.54142135623731L1.9,11.45857864376269z" stroke="none"/><path d="M13.570710678118655,12.070710678118655L13.429289321881345,11.929289321881345L14.4,10.95857864376269L14.4,10.45857864376269L16.4,8.45857864376269L16.4,7.95857864376269L16.9,7.45857864376269L16.9,6.95857864376269L17.458578643762692,6.4L20.041421356237308,6.4L20.541421356237308,6.9L21.458578643762692,6.9L21.958578643762692,6.4L24.541421356237308,6.4L25.570710678118655,7.429289321881345L25.429289321881345,7.570710678118655L24.458578643762692,6.6L22.041421356237308,6.6L21.541421356237308,7.1L20.458578643762692,7.1L19.958578643762692,6.6L17.541421356237308,6.6L17.1,7.04142135623731L17.1,7.54142135623731L16.6,8.04142135623731L16.6,8.54142135623731L14.6,10.54142135623731L14.6,11.04142135623731z" stroke="none"/></svg>