<svg version="1.1" width="30" height="15" xmlns="http://www.w3.org/2000/svg"><path d="M24.458578643762692,4.9L24.958578643762692,4.4L25.5,4.4L25.5,4.6L25.041421356237308,4.6L24.541421356237308,5.1L24.1,5.1L24.1,5.95857864376269L25.041421356237308,6.9L25.958578643762692,6.9L26.929289321881345,5.929289321881345L27.070710678118655,6.070710678118655L26.041421356237308,7.1L24.958578643762692,7.1L23.9,6.04142135623731L23.9,5.1L23.458578643762692,5.1L22.958578643762692,4.6L22.5,4.6L22.5,4.4L23.041421356237308,4.4L23.541421356237308,4.9z" stroke="none"/><path d="M10.54142135623731,5.9L13.5,5.9L13.5,6.1L10.54142135623731,6.1L9.54142135623731,7.1L8.45857864376269,7.1L7.95857864376269,6.6L4.95857864376269,6.6L4.429289321881345,6.070710678118655L4.570710678118655,5.929289321881345L5.04142135623731,6.4L8.04142135623731,6.4L8.54142135623731,6.9L9.45857864376269,6.9L10.35857864376269,6L8.929289321881345,4.570710678118655L9.070710678118655,4.429289321881345z" stroke="none"/><path d="M16.9,8.4L16.9,6.95857864376269L17.458578643762692,6.4L18.458578643762692,6.4L18.958578643762692,5.9L22.5,5.9L22.5,6.1L19.041421356237308,6.1L18.541421356237308,6.6L17.541421356237308,6.6L17.1,7.04142135623731L17.1,8.4L17.541421356237308,8.4L18.041421356237308,8.9L18.541421356237308,8.9L19.541421356237308,9.9L20.041421356237308,9.9L20.541421356237308,10.4L21,10.4L21,10.6L20.458578643762692,10.6L19.958578643762692,10.1L19.458578643762692,10.1L18.458578643762692,9.1L17.958578643762692,9.1L17.458578643762692,8.6L17.1,8.6L17.1,10.04142135623731L16.570710678118655,10.570710678118655L16.429289321881345,10.429289321881345L16.9,9.95857864376269L16.9,8.6L13.95857864376269,8.6L12.95857864376269,7.6L10.5,7.6L10.5,7.4L13.04142135623731,7.4L14.04142135623731,8.4z" stroke="none"/><path d="M22.041421356237308,9.4L23.041421356237308,9.4L25.570710678118655,11.929289321881345L25.429289321881345,12.070710678118655L22.958578643762692,9.6L22.24142135623731,9.6L22.6,9.95857864376269L22.6,10.45857864376269L24.070710678118655,11.929289321881345L23.929289321881345,12.070710678118655L22.4,10.54142135623731L22.4,10.04142135623731L21.958578643762692,9.6L20.458578643762692,9.6L18.958578643762692,8.1L18.458578643762692,8.1L17.929289321881345,7.570710678118655L18.070710678118655,7.429289321881345L18.541421356237308,7.9L19.041421356237308,7.9L20.541421356237308,9.4L21.75857864376269,9.4L21.458578643762692,9.1L20.958578643762692,9.1L19.429289321881345,7.570710678118655L19.570710678118655,7.429289321881345L21.041421356237308,8.9L21.541421356237308,8.9z" stroke="none"/><path d="M11.9,9L12.1,9L12.1,10.5L11.9,10.5z" stroke="none"/><path d="M27,2.9L27,3.1L25.5,3.1L25.5,2.9z" stroke="none"/><path d="M15.070710678118655,4.570710678118655L14.929289321881345,4.429289321881345L16.429289321881345,2.9292893218813454L16.570710678118655,3.0707106781186546z" stroke="none"/><path d="M19.429289321881345,3.0707106781186546L19.570710678118655,2.9292893218813454L21.070710678118655,4.429289321881345L20.929289321881345,4.570710678118655z" stroke="none"/><path d="M6.1,10.5L5.9,10.5L5.9,7.5L6.1,7.5z" stroke="none"/><path d="M13.5,4.4L13.5,4.6L10.5,4.6L10.5,4.4z" stroke="none"/><path d="M24.070710678118655,3.0707106781186546L23.929289321881345,2.9292893218813454L24.958578643762692,1.9L27.541421356237308,1.9L28.1,2.4585786437626904L28.1,3.5414213562373096L25.570710678118655,6.070710678118655L25.429289321881345,5.929289321881345L27.9,3.4585786437626904L27.9,2.5414213562373096L27.458578643762692,2.1L25.041421356237308,2.1z" stroke="none"/><path d="M18.1,4.5L17.9,4.5L17.9,3.0414213562373096L16.958578643762692,2.1L16.041421356237308,2.1L15.070710678118655,3.0707106781186546L14.929289321881345,2.9292893218813454L15.95857864376269,1.9L17.041421356237308,1.9L18.1,2.9585786437626904z" stroke="none"/><path d="M4.429289321881345,10.570710678118655L4.570710678118655,10.429289321881345L5.54142135623731,11.4L6.45857864376269,11.4L6.9,10.95857864376269L6.9,8.45857864376269L7.4,7.95857864376269L7.4,7.5L7.6,7.5L7.6,8.04142135623731L7.1,8.54142135623731L7.1,11.04142135623731L6.54142135623731,11.6L5.45857864376269,11.6z" stroke="none"/><path d="M9.070710678118655,5.929289321881345L8.929289321881345,6.070710678118655L7.9,5.04142135623731L7.9,3.9585786437626904L9.95857864376269,1.9L11.04142135623731,1.9L12.070710678118655,2.9292893218813454L11.929289321881345,3.0707106781186546L10.95857864376269,2.1L10.04142135623731,2.1L8.1,4.04142135623731L8.1,4.95857864376269z" stroke="none"/><path d="M10.429289321881345,3.0707106781186546L10.570710678118655,2.9292893218813454L11.54142135623731,3.9L12.45857864376269,3.9L12.9,3.4585786437626904L12.9,2.5414213562373096L12.45857864376269,2.1L11.95857864376269,2.1L11.45857864376269,1.6L9.54142135623731,1.6L8.54142135623731,2.6L7.04142135623731,2.6L6.54142135623731,3.1L6,3.1L6,2.9L6.45857864376269,2.9L6.95857864376269,2.4L8.45857864376269,2.4L9.45857864376269,1.4L11.54142135623731,1.4L12.04142135623731,1.9L12.54142135623731,1.9L13.1,2.4585786437626904L13.1,3.5414213562373096L12.54142135623731,4.1L11.45857864376269,4.1z" stroke="none"/><path d="M4.429289321881345,2.9292893218813454L4.570710678118655,3.0707106781186546L3.6,4.04142135623731L3.6,6.45857864376269L4.570710678118655,7.429289321881345L4.429289321881345,7.570710678118655L3.4,6.54142135623731L3.4,3.9585786437626904z" stroke="none"/><path d="M8.929289321881345,9.070710678118655L9.070710678118655,8.929289321881345L11.54142135623731,11.4L12.45857864376269,11.4L13.429289321881345,10.429289321881345L13.570710678118655,10.570710678118655L12.54142135623731,11.6L11.45857864376269,11.6z" stroke="none"/><path d="M10.570710678118655,8.929289321881345L10.429289321881345,9.070710678118655L9.45857864376269,8.1L8.54142135623731,8.1L8.1,8.54142135623731L8.1,11.04142135623731L7.04142135623731,12.1L4.95857864376269,12.1L4.45857864376269,11.6L3.9585786437626904,11.6L3.4,11.04142135623731L3.4,8.04142135623731L2.9292893218813454,7.570710678118655L3.0707106781186546,7.429289321881345L3.6,7.95857864376269L3.6,10.95857864376269L4.04142135623731,11.4L4.54142135623731,11.4L5.04142135623731,11.9L6.95857864376269,11.9L7.9,10.95857864376269L7.9,8.45857864376269L8.45857864376269,7.9L9.54142135623731,7.9z" stroke="none"/><path d="M25.429289321881345,9.070710678118655L25.570710678118655,8.929289321881345L26.6,9.95857864376269L26.6,12.54142135623731L26.041421356237308,13.1L20.958578643762692,13.1L20.458578643762692,12.6L17.458578643762692,12.6L16.458578643762692,11.6L15.95857864376269,11.6L14.929289321881345,10.570710678118655L15.070710678118655,10.429289321881345L16.041421356237308,11.4L16.541421356237308,11.4L17.541421356237308,12.4L20.541421356237308,12.4L21.041421356237308,12.9L25.958578643762692,12.9L26.4,12.45857864376269L26.4,10.04142135623731z" stroke="none"/><path d="M25.570710678118655,10.429289321881345L25.429289321881345,10.570710678118655L24.4,9.54142135623731L24.4,8.45857864376269L25.458578643762692,7.4L26.458578643762692,7.4L26.958578643762692,6.9L27.458578643762692,6.9L27.9,6.45857864376269L27.9,4.45857864376269L28.4,3.9585786437626904L28.4,2.0414213562373096L27.958578643762692,1.6L20.041421356237308,1.6L19.541421356237308,2.1L19.041421356237308,2.1L18.6,2.5414213562373096L18.6,3.4585786437626904L19.1,3.9585786437626904L19.1,5.04142135623731L18.041421356237308,6.1L17.041421356237308,6.1L15.54142135623731,7.6L15,7.6L15,7.4L15.45857864376269,7.4L16.958578643762692,5.9L17.958578643762692,5.9L18.9,4.95857864376269L18.9,4.04142135623731L18.4,3.5414213562373096L18.4,2.4585786437626904L18.958578643762692,1.9L19.458578643762692,1.9L19.958578643762692,1.4L28.041421356237308,1.4L28.6,1.9585786437626904L28.6,4.04142135623731L28.1,4.54142135623731L28.1,6.54142135623731L27.541421356237308,7.1L27.041421356237308,7.1L26.541421356237308,7.6L25.541421356237308,7.6L24.6,8.54142135623731L24.6,9.45857864376269z" stroke="none"/></svg>