<svg version="1.1" width="30" height="15" xmlns="http://www.w3.org/2000/svg"><path d="M26.9,7.9L26.9,6L27.1,6L27.1,8.54142135623731L26.6,9.04142135623731L26.6,9.54142135623731L25.570710678118655,10.570710678118655L25.429289321881345,10.429289321881345L26.4,9.45857864376269L26.4,8.95857864376269L26.9,8.45857864376269L26.9,8.1L26.458578643762692,8.1L25.958578643762692,7.6L25.5,7.6L25.5,7.4L26.041421356237308,7.4L26.541421356237308,7.9z" stroke="none"/><path d="M16.458578643762692,10.4L17.929289321881345,8.929289321881345L18.070710678118655,9.070710678118655L16.541421356237308,10.6L16.1,10.6L16.1,10.95857864376269L16.541421356237308,11.4L19.958578643762692,11.4L20.929289321881345,10.429289321881345L21.070710678118655,10.570710678118655L20.041421356237308,11.6L16.458578643762692,11.6L15.9,11.04142135623731L15.9,10.6L11.04142135623731,10.6L10.54142135623731,11.1L10.04142135623731,11.1L9.070710678118655,12.070710678118655L8.929289321881345,11.929289321881345L9.95857864376269,10.9L10.45857864376269,10.9L10.95857864376269,10.4z" stroke="none"/><path d="M7.4,3.9L7.4,3.5414213562373096L6.95857864376269,3.1L4.5,3.1L4.5,2.9L7.04142135623731,2.9L7.6,3.4585786437626904L7.6,3.9L7.95857864376269,3.9L8.45857864376269,3.4L10.45857864376269,3.4L10.95857864376269,2.9L15,2.9L15,3.1L11.04142135623731,3.1L10.54142135623731,3.6L8.54142135623731,3.6L8.04142135623731,4.1L7.6,4.1L7.6,6L7.4,6L7.4,4.1L6.04142135623731,4.1L5.54142135623731,4.6L4.5,4.6L4.5,4.4L5.45857864376269,4.4L5.95857864376269,3.9z" stroke="none"/><path d="M17.9,5.9L17.9,5.45857864376269L18.458578643762692,4.9L19.541421356237308,4.9L20.041421356237308,5.4L21.458578643762692,5.4L22.429289321881345,4.429289321881345L22.570710678118655,4.570710678118655L21.541421356237308,5.6L19.958578643762692,5.6L19.458578643762692,5.1L18.541421356237308,5.1L18.1,5.54142135623731L18.1,5.9L22.5,5.9L22.5,6.1L18.1,6.1L18.1,6.54142135623731L16.541421356237308,8.1L14.54142135623731,8.1L13.570710678118655,9.070710678118655L13.429289321881345,8.929289321881345L14.45857864376269,7.9L16.458578643762692,7.9L17.9,6.45857864376269L17.9,6.1L16.458578643762692,6.1L14.95857864376269,4.6L13.5,4.6L13.5,4.4L15.04142135623731,4.4L16.541421356237308,5.9z" stroke="none"/><path d="M3.1,12L2.9,12L2.9,10.5L3.1,10.5z" stroke="none"/><path d="M4.429289321881345,5.929289321881345L4.570710678118655,6.070710678118655L3.0707106781186546,7.570710678118655L2.9292893218813454,7.429289321881345z" stroke="none"/><path d="M23.929289321881345,5.929289321881345L24.070710678118655,6.070710678118655L23.1,7.04142135623731L23.1,7.95857864376269L24.070710678118655,8.929289321881345L23.929289321881345,9.070710678118655L22.9,8.04142135623731L22.9,6.95857864376269z" stroke="none"/><path d="M12,4.4L12,4.6L9,4.6L9,4.4z" stroke="none"/><path d="M24.070710678118655,4.429289321881345L23.929289321881345,4.570710678118655L22.958578643762692,3.6L21.958578643762692,3.6L21.458578643762692,3.1L21,3.1L21,2.9L21.541421356237308,2.9L22.041421356237308,3.4L23.041421356237308,3.4z" stroke="none"/><path d="M24,2.9L24,3.1L22.958578643762692,3.1L21.958578643762692,2.1L20.541421356237308,2.1L20.1,2.5414213562373096L20.1,3.4585786437626904L21.070710678118655,4.429289321881345L20.929289321881345,4.570710678118655L19.9,3.5414213562373096L19.9,2.4585786437626904L20.458578643762692,1.9L22.041421356237308,1.9L23.041421356237308,2.9z" stroke="none"/><path d="M9.070710678118655,9.070710678118655L8.929289321881345,8.929289321881345L11.929289321881345,5.929289321881345L12.070710678118655,6.070710678118655z" stroke="none"/><path d="M13.429289321881345,5.929289321881345L13.570710678118655,6.070710678118655L10.570710678118655,9.070710678118655L10.429289321881345,8.929289321881345z" stroke="none"/><path d="M9,7.4L9,7.6L4.5,7.6L4.5,7.4z" stroke="none"/><path d="M3,9.1L3,8.9L7.5,8.9L7.5,9.1z" stroke="none"/><path d="M15,9.1L15,8.9L15.95857864376269,8.9L16.458578643762692,8.4L16.958578643762692,8.4L17.458578643762692,7.9L18.541421356237308,7.9L19.1,8.45857864376269L19.1,9.95857864376269L19.570710678118655,10.429289321881345L19.429289321881345,10.570710678118655L18.9,10.04142135623731L18.9,8.54142135623731L18.458578643762692,8.1L17.541421356237308,8.1L17.041421356237308,8.6L16.541421356237308,8.6L16.041421356237308,9.1z" stroke="none"/><path d="M10.429289321881345,11.929289321881345L10.570710678118655,12.070710678118655L9.54142135623731,13.1L8.45857864376269,13.1L5.929289321881345,10.570710678118655L6.070710678118655,10.429289321881345L8.54142135623731,12.9L9.45857864376269,12.9z" stroke="none"/><path d="M21,11.9L21,12.1L13.5,12.1L13.5,11.9z" stroke="none"/><path d="M24.070710678118655,7.570710678118655L23.929289321881345,7.429289321881345L24.9,6.45857864376269L24.9,2.5414213562373096L24.458578643762692,2.1L22.958578643762692,2.1L22.458578643762692,1.6L20.041421356237308,1.6L17.541421356237308,4.1L17.041421356237308,4.1L16.570710678118655,4.570710678118655L16.429289321881345,4.429289321881345L16.958578643762692,3.9L17.458578643762692,3.9L19.958578643762692,1.4L22.541421356237308,1.4L23.041421356237308,1.9L24.541421356237308,1.9L25.1,2.4585786437626904L25.1,6.54142135623731z" stroke="none"/><path d="M27.070710678118655,4.429289321881345L26.929289321881345,4.570710678118655L25.9,3.5414213562373096L25.9,3.0414213562373096L25.4,2.5414213562373096L25.4,2.0414213562373096L24.958578643762692,1.6L23.458578643762692,1.6L22.958578643762692,1.1L19.541421356237308,1.1L18.041421356237308,2.6L17.041421356237308,2.6L16.570710678118655,3.0707106781186546L16.429289321881345,2.9292893218813454L16.958578643762692,2.4L17.958578643762692,2.4L19.458578643762692,0.9L23.041421356237308,0.9L23.541421356237308,1.4L25.041421356237308,1.4L25.6,1.9585786437626904L25.6,2.4585786437626904L26.1,2.9585786437626904L26.1,3.4585786437626904z" stroke="none"/><path d="M25.429289321881345,8.929289321881345L25.570710678118655,9.070710678118655L21.541421356237308,13.1L11.04142135623731,13.1L10.54142135623731,13.6L7.95857864376269,13.6L5.95857864376269,11.6L5.45857864376269,11.6L4.9,11.04142135623731L4.9,9.95857864376269L5.45857864376269,9.4L6.54142135623731,9.4L7.04142135623731,9.9L10.95857864376269,9.9L13.429289321881345,7.429289321881345L13.570710678118655,7.570710678118655L11.04142135623731,10.1L6.95857864376269,10.1L6.45857864376269,9.6L5.54142135623731,9.6L5.1,10.04142135623731L5.1,10.95857864376269L5.54142135623731,11.4L6.04142135623731,11.4L8.04142135623731,13.4L10.45857864376269,13.4L10.95857864376269,12.9L21.458578643762692,12.9z" stroke="none"/></svg>