<svg version="1.1" width="30" height="15" xmlns="http://www.w3.org/2000/svg"><path d="M23.9,7.45857864376269L23.9,6L24.1,6L24.1,7.45857864376269L27.070710678118655,10.429289321881345L26.929289321881345,10.570710678118655L24,7.641421356237309L23.041421356237308,8.6L21.958578643762692,8.6L21.458578643762692,8.1L20.958578643762692,8.1L20.458578643762692,7.6L19.458578643762692,7.6L17.929289321881345,6.070710678118655L18.070710678118655,5.929289321881345L19.541421356237308,7.4L20.541421356237308,7.4L21.041421356237308,7.9L21.541421356237308,7.9L22.041421356237308,8.4L22.958578643762692,8.4z" stroke="none"/><path d="M24,4.358578643762691L24.958578643762692,3.4L27.541421356237308,3.4L28.1,3.9585786437626904L28.1,5.04142135623731L27.6,5.54142135623731L27.6,6.54142135623731L27.1,7.04142135623731L27.1,7.5L26.9,7.5L26.9,6.95857864376269L27.4,6.45857864376269L27.4,5.45857864376269L27.9,4.95857864376269L27.9,4.04142135623731L27.458578643762692,3.6L25.041421356237308,3.6L22.570710678118655,6.070710678118655L22.429289321881345,5.929289321881345L23.85857864376269,4.5L22.429289321881345,3.0707106781186546L22.570710678118655,2.9292893218813454z" stroke="none"/><path d="M11.4,6.75857864376269L11.4,6.45857864376269L11.95857864376269,5.9L13.45857864376269,5.9L14.4,4.95857864376269L14.4,4.04142135623731L13.95857864376269,3.6L12.54142135623731,3.6L12.04142135623731,4.1L8.45857864376269,4.1L7.95857864376269,3.6L5.54142135623731,3.6L4.570710678118655,4.570710678118655L4.429289321881345,4.429289321881345L5.45857864376269,3.4L8.04142135623731,3.4L8.54142135623731,3.9L11.95857864376269,3.9L12.45857864376269,3.4L14.04142135623731,3.4L14.6,3.9585786437626904L14.6,5.04142135623731L13.54142135623731,6.1L12.04142135623731,6.1L11.6,6.54142135623731L11.6,6.9L12.54142135623731,6.9L13.04142135623731,7.4L13.5,7.4L13.5,7.6L12.95857864376269,7.6L12.45857864376269,7.1L11.6,7.1L11.6,7.45857864376269L12.04142135623731,7.9L12.54142135623731,7.9L13.570710678118655,8.929289321881345L13.429289321881345,9.070710678118655L12.45857864376269,8.1L11.95857864376269,8.1L11.4,7.54142135623731L11.4,7.04142135623731L10.429289321881345,6.070710678118655L10.570710678118655,5.929289321881345z" stroke="none"/><path d="M8.9,6.4L8.9,5.95857864376269L9.95857864376269,4.9L10.95857864376269,4.9L11.45857864376269,4.4L13.5,4.4L13.5,4.6L11.54142135623731,4.6L11.04142135623731,5.1L10.04142135623731,5.1L9.1,6.04142135623731L9.1,6.45857864376269L10.1,7.45857864376269L10.1,8.45857864376269L10.570710678118655,8.929289321881345L10.429289321881345,9.070710678118655L9.9,8.54142135623731L9.9,7.54142135623731L9.1,6.74142135623731L9.1,7.04142135623731L8.54142135623731,7.6L4.5,7.6L4.5,7.4L8.45857864376269,7.4L8.9,6.95857864376269L8.9,6.6L8.45857864376269,6.6L7.95857864376269,6.1L7.5,6.1L7.5,5.9L8.04142135623731,5.9L8.54142135623731,6.4z" stroke="none"/><path d="M16.5,7.4L16.5,7.6L15,7.6L15,7.4z" stroke="none"/><path d="M25.6,6L25.4,6L25.4,4.5L25.6,4.5z" stroke="none"/><path d="M6.070710678118655,6.070710678118655L5.929289321881345,5.929289321881345L7.429289321881345,4.429289321881345L7.570710678118655,4.570710678118655z" stroke="none"/><path d="M20.929289321881345,4.429289321881345L21.070710678118655,4.570710678118655L19.570710678118655,6.070710678118655L19.429289321881345,5.929289321881345z" stroke="none"/><path d="M16.6,12L16.4,12L16.4,9L16.6,9z" stroke="none"/><path d="M5.929289321881345,11.929289321881345L6.070710678118655,12.070710678118655L5.04142135623731,13.1L3.9585786437626904,13.1L2.9292893218813454,12.070710678118655L3.0707106781186546,11.929289321881345L4.04142135623731,12.9L4.95857864376269,12.9z" stroke="none"/><path d="M9,2.9L9,3.1L5.04142135623731,3.1L4.54142135623731,3.6L4.04142135623731,3.6L3.6,4.04142135623731L3.6,4.95857864376269L4.04142135623731,5.4L4.95857864376269,5.4L5.929289321881345,4.429289321881345L6.070710678118655,4.570710678118655L5.04142135623731,5.6L3.9585786437626904,5.6L3.4,5.04142135623731L3.4,3.9585786437626904L3.9585786437626904,3.4L4.45857864376269,3.4L4.95857864376269,2.9z" stroke="none"/><path d="M18.070710678118655,8.929289321881345L17.929289321881345,9.070710678118655L17.4,8.54142135623731L17.4,7.04142135623731L16.429289321881345,6.070710678118655L16.570710678118655,5.929289321881345L17.6,6.95857864376269L17.6,8.45857864376269z" stroke="none"/><path d="M14.929289321881345,8.929289321881345L15.070710678118655,9.070710678118655L14.04142135623731,10.1L13.04142135623731,10.1L12.54142135623731,10.6L12,10.6L12,10.4L12.45857864376269,10.4L12.95857864376269,9.9L13.95857864376269,9.9z" stroke="none"/><path d="M16.4,3L16.6,3L16.6,3.5414213562373096L16.1,4.04142135623731L16.1,4.54142135623731L15.6,5.04142135623731L15.6,5.54142135623731L15.070710678118655,6.070710678118655L14.929289321881345,5.929289321881345L15.4,5.45857864376269L15.4,4.95857864376269L15.9,4.45857864376269L15.9,3.9585786437626904L16.4,3.4585786437626904z" stroke="none"/><path d="M25.5,11.9L25.5,12.1L23.958578643762692,12.1L22.458578643762692,10.6L21,10.6L21,10.4L22.541421356237308,10.4L24.041421356237308,11.9z" stroke="none"/><path d="M18,3.1L18,2.9L20.541421356237308,2.9L21.041421356237308,3.4L21.541421356237308,3.4L22.1,3.9585786437626904L22.1,5.04142135623731L21.6,5.54142135623731L21.6,6.45857864376269L22.570710678118655,7.429289321881345L22.429289321881345,7.570710678118655L21.4,6.54142135623731L21.4,5.45857864376269L21.9,4.95857864376269L21.9,4.04142135623731L21.458578643762692,3.6L20.958578643762692,3.6L20.458578643762692,3.1z" stroke="none"/><path d="M26.929289321881345,4.429289321881345L27.070710678118655,4.570710678118655L26.6,5.04142135623731L26.6,6.54142135623731L26.1,7.04142135623731L26.1,7.95857864376269L28.1,9.95857864376269L28.1,11.04142135623731L27.541421356237308,11.6L26.458578643762692,11.6L25.958578643762692,11.1L23.958578643762692,11.1L22.958578643762692,10.1L21.958578643762692,10.1L20.929289321881345,9.070710678118655L21.070710678118655,8.929289321881345L22.041421356237308,9.9L23.041421356237308,9.9L24.041421356237308,10.9L26.041421356237308,10.9L26.541421356237308,11.4L27.458578643762692,11.4L27.9,10.95857864376269L27.9,10.04142135623731L25.9,8.04142135623731L25.9,6.95857864376269L26.4,6.45857864376269L26.4,4.95857864376269z" stroke="none"/><path d="M21,11.9L21,12.1L19.541421356237308,12.1L19.041421356237308,12.6L17.541421356237308,12.6L17.041421356237308,13.1L15.45857864376269,13.1L14.95857864376269,12.6L13.95857864376269,12.6L13.429289321881345,12.070710678118655L13.570710678118655,11.929289321881345L14.04142135623731,12.4L15.04142135623731,12.4L15.54142135623731,12.9L16.958578643762692,12.9L17.458578643762692,12.4L18.958578643762692,12.4L19.458578643762692,11.9z" stroke="none"/><path d="M4.5,10.6L4.5,10.4L5.04142135623731,10.4L5.54142135623731,10.9L6.54142135623731,10.9L7.04142135623731,11.4L11.04142135623731,11.4L11.54142135623731,11.9L12,11.9L12,12.1L11.45857864376269,12.1L10.95857864376269,11.6L6.95857864376269,11.6L6.45857864376269,11.1L5.45857864376269,11.1L4.95857864376269,10.6z" stroke="none"/><path d="M4.570710678118655,11.929289321881345L4.429289321881345,12.070710678118655L3.4,11.04142135623731L3.4,9.95857864376269L3.9585786437626904,9.4L9.54142135623731,9.4L10.04142135623731,9.9L10.95857864376269,9.9L11.929289321881345,8.929289321881345L12.070710678118655,9.070710678118655L11.04142135623731,10.1L9.95857864376269,10.1L9.45857864376269,9.6L4.04142135623731,9.6L3.6,10.04142135623731L3.6,10.95857864376269z" stroke="none"/></svg>