<svg version="1.1" width="30" height="15" xmlns="http://www.w3.org/2000/svg"><path d="M10.45857864376269,10.4L11.45857864376269,9.4L14.04142135623731,9.4L14.54142135623731,9.9L15.45857864376269,9.9L16.429289321881345,8.929289321881345L16.570710678118655,9.070710678118655L15.54142135623731,10.1L14.45857864376269,10.1L13.95857864376269,9.6L11.54142135623731,9.6L10.6,10.54142135623731L10.6,12L10.4,12L10.4,10.6L9.04142135623731,10.6L8.04142135623731,11.6L6.95857864376269,11.6L6.45857864376269,11.1L5.95857864376269,11.1L5.45857864376269,10.6L4.5,10.6L4.5,10.4L5.54142135623731,10.4L6.04142135623731,10.9L6.54142135623731,10.9L7.04142135623731,11.4L7.95857864376269,11.4L8.95857864376269,10.4z" stroke="none"/><path d="M9.04142135623731,8.4L14.54142135623731,8.4L15.070710678118655,8.929289321881345L14.929289321881345,9.070710678118655L14.45857864376269,8.6L9.04142135623731,8.6L8.6,9.04142135623731L8.6,9.54142135623731L7.570710678118655,10.570710678118655L7.429289321881345,10.429289321881345L8.4,9.45857864376269L8.4,8.95857864376269L8.85857864376269,8.5L8.45857864376269,8.1L7.45857864376269,8.1L5.95857864376269,6.6L3.4585786437626904,6.6L2.9292893218813454,6.070710678118655L3.0707106781186546,5.929289321881345L3.5414213562373096,6.4L6.04142135623731,6.4L7.54142135623731,7.9L8.54142135623731,7.9z" stroke="none"/><path d="M7.9,4.4L7.9,3.5414213562373096L7.429289321881345,3.0707106781186546L7.570710678118655,2.9292893218813454L8.1,3.4585786437626904L8.1,4.4L10.5,4.4L10.5,4.6L8.1,4.6L8.1,4.95857864376269L10.04142135623731,6.9L11.54142135623731,6.9L12.070710678118655,7.429289321881345L11.929289321881345,7.570710678118655L11.45857864376269,7.1L9.95857864376269,7.1L7.9,5.04142135623731L7.9,4.6L6.54142135623731,4.6L5.54142135623731,5.6L3.9585786437626904,5.6L2.9292893218813454,4.570710678118655L3.0707106781186546,4.429289321881345L4.04142135623731,5.4L5.45857864376269,5.4L6.45857864376269,4.4z" stroke="none"/><path d="M17.9,8.758578643762691L17.9,8.45857864376269L18.4,7.95857864376269L18.4,6.95857864376269L18.958578643762692,6.4L20.041421356237308,6.4L20.541421356237308,6.9L21.458578643762692,6.9L21.958578643762692,6.4L23.041421356237308,6.4L24.070710678118655,7.429289321881345L23.929289321881345,7.570710678118655L22.958578643762692,6.6L22.041421356237308,6.6L21.541421356237308,7.1L20.458578643762692,7.1L19.958578643762692,6.6L19.041421356237308,6.6L18.6,7.04142135623731L18.6,8.04142135623731L18.1,8.54142135623731L18.1,8.9L18.541421356237308,8.9L19.1,9.45857864376269L19.1,10.54142135623731L18.6,11.04142135623731L18.6,12.54142135623731L18.041421356237308,13.1L16.958578643762692,13.1L16.458578643762692,12.6L15.95857864376269,12.6L13.95857864376269,10.6L13.5,10.6L13.5,10.4L14.04142135623731,10.4L16.041421356237308,12.4L16.541421356237308,12.4L17.041421356237308,12.9L17.958578643762692,12.9L18.4,12.45857864376269L18.4,10.95857864376269L18.9,10.45857864376269L18.9,9.54142135623731L18.458578643762692,9.1L18.1,9.1L18.1,12L17.9,12L17.9,9.04142135623731L16.958578643762692,8.1L15.45857864376269,8.1L14.95857864376269,7.6L13.5,7.6L13.5,7.4L15.04142135623731,7.4L15.54142135623731,7.9L17.041421356237308,7.9z" stroke="none"/><path d="M7.5,8.9L7.5,9.1L6,9.1L6,8.9z" stroke="none"/><path d="M4.570710678118655,4.570710678118655L4.429289321881345,4.429289321881345L5.929289321881345,2.9292893218813454L6.070710678118655,3.0707106781186546z" stroke="none"/><path d="M22.5,11.9L22.5,12.1L19.5,12.1L19.5,11.9z" stroke="none"/><path d="M15,3.1L15,2.9L18,2.9L18,3.1z" stroke="none"/><path d="M9,3.1L9,2.9L12,2.9L12,3.1z" stroke="none"/><path d="M25.6,9L25.4,9L25.4,6L25.6,6z" stroke="none"/><path d="M6,11.9L6,12.1L3,12.1L3,11.9z" stroke="none"/><path d="M21,6.1L21,5.9L21.458578643762692,5.9L22.458578643762692,4.9L22.958578643762692,4.9L23.458578643762692,4.4L24,4.4L24,4.6L23.541421356237308,4.6L23.041421356237308,5.1L22.541421356237308,5.1L21.541421356237308,6.1z" stroke="none"/><path d="M24.070710678118655,2.9292893218813454L23.929289321881345,3.0707106781186546L22.958578643762692,2.1L22.041421356237308,2.1L21.541421356237308,2.6L21.041421356237308,2.6L20.541421356237308,3.1L19.5,3.1L19.5,2.9L20.458578643762692,2.9L20.958578643762692,2.4L21.458578643762692,2.4L21.958578643762692,1.9L23.041421356237308,1.9z" stroke="none"/><path d="M26.9,7.5L27.1,7.5L27.1,8.54142135623731L26.6,9.04142135623731L26.6,9.54142135623731L26.041421356237308,10.1L24.958578643762692,10.1L22.429289321881345,7.570710678118655L22.570710678118655,7.429289321881345L25.041421356237308,9.9L25.958578643762692,9.9L26.4,9.45857864376269L26.4,8.95857864376269L26.9,8.45857864376269z" stroke="none"/><path d="M25.570710678118655,11.929289321881345L25.429289321881345,12.070710678118655L24.458578643762692,11.1L23.458578643762692,11.1L22.958578643762692,10.6L22.458578643762692,10.6L20.929289321881345,9.070710678118655L21.070710678118655,8.929289321881345L22.541421356237308,10.4L23.041421356237308,10.4L23.541421356237308,10.9L24.541421356237308,10.9z" stroke="none"/><path d="M19.5,7.6L19.5,7.4L21.041421356237308,7.4L23.041421356237308,9.4L23.541421356237308,9.4L24.541421356237308,10.4L26.458578643762692,10.4L26.9,9.95857864376269L26.9,9.45857864376269L27.9,8.45857864376269L27.9,7.04142135623731L25.4,4.54142135623731L25.4,4.04142135623731L24.9,3.5414213562373096L24.9,2.5414213562373096L23.958578643762692,1.6L15.54142135623731,1.6L15.04142135623731,2.1L14.54142135623731,2.1L14.1,2.5414213562373096L14.1,5.54142135623731L13.570710678118655,6.070710678118655L13.429289321881345,5.929289321881345L13.9,5.45857864376269L13.9,2.4585786437626904L14.45857864376269,1.9L14.95857864376269,1.9L15.45857864376269,1.4L24.041421356237308,1.4L25.1,2.4585786437626904L25.1,3.4585786437626904L25.6,3.9585786437626904L25.6,4.45857864376269L28.1,6.95857864376269L28.1,8.54142135623731L27.1,9.54142135623731L27.1,10.04142135623731L26.541421356237308,10.6L24.458578643762692,10.6L23.458578643762692,9.6L22.958578643762692,9.6L20.958578643762692,7.6z" stroke="none"/><path d="M22.5,2.9L22.5,3.1L22.041421356237308,3.1L21.541421356237308,3.6L20.541421356237308,3.6L19.541421356237308,4.6L16.5,4.6L16.5,4.4L19.458578643762692,4.4L20.458578643762692,3.4L21.458578643762692,3.4L21.958578643762692,2.9z" stroke="none"/><path d="M4.5,7.4L4.5,7.6L3.9585786437626904,7.6L3.4585786437626904,7.1L2.4585786437626904,7.1L1.9,6.54142135623731L1.9,3.9585786437626904L2.9585786437626904,2.9L3.4585786437626904,2.9L3.9585786437626904,2.4L4.95857864376269,2.4L5.45857864376269,1.9L12.54142135623731,1.9L13.1,2.4585786437626904L13.1,3.5414213562373096L12.070710678118655,4.570710678118655L11.929289321881345,4.429289321881345L12.9,3.4585786437626904L12.9,2.5414213562373096L12.45857864376269,2.1L5.54142135623731,2.1L5.04142135623731,2.6L4.04142135623731,2.6L3.5414213562373096,3.1L3.0414213562373096,3.1L2.1,4.04142135623731L2.1,6.45857864376269L2.5414213562373096,6.9L3.5414213562373096,6.9L4.04142135623731,7.4z" stroke="none"/><path d="M3.1,10.5L2.9,10.5L2.9,8.54142135623731L1.4,7.04142135623731L1.4,3.4585786437626904L2.4585786437626904,2.4L2.9585786437626904,2.4L3.4585786437626904,1.9L4.45857864376269,1.9L4.95857864376269,1.4L13.04142135623731,1.4L13.6,1.9585786437626904L13.6,4.04142135623731L13.1,4.54142135623731L13.1,5.04142135623731L12.54142135623731,5.6L11.54142135623731,5.6L11.04142135623731,6.1L10.5,6.1L10.5,5.9L10.95857864376269,5.9L11.45857864376269,5.4L12.45857864376269,5.4L12.9,4.95857864376269L12.9,4.45857864376269L13.4,3.9585786437626904L13.4,2.0414213562373096L12.95857864376269,1.6L5.04142135623731,1.6L4.54142135623731,2.1L3.5414213562373096,2.1L3.0414213562373096,2.6L2.5414213562373096,2.6L1.6,3.5414213562373096L1.6,6.95857864376269L3.1,8.45857864376269z" stroke="none"/><path d="M11.929289321881345,10.570710678118655L12.070710678118655,10.429289321881345L13.04142135623731,11.4L13.54142135623731,11.4L14.54142135623731,12.4L15.04142135623731,12.4L15.54142135623731,12.9L16.041421356237308,12.9L16.541421356237308,13.4L21.958578643762692,13.4L22.458578643762692,12.9L22.958578643762692,12.9L23.929289321881345,11.929289321881345L24.070710678118655,12.070710678118655L23.041421356237308,13.1L22.541421356237308,13.1L22.041421356237308,13.6L16.458578643762692,13.6L15.95857864376269,13.1L15.45857864376269,13.1L14.95857864376269,12.6L14.45857864376269,12.6L13.45857864376269,11.6L12.95857864376269,11.6z" stroke="none"/></svg>