<svg version="1.1" width="30" height="15" xmlns="http://www.w3.org/2000/svg"><path d="M14.5,8.35857864376269L14.9,7.95857864376269L14.9,7.45857864376269L15.95857864376269,6.4L17.041421356237308,6.4L18.070710678118655,7.429289321881345L17.929289321881345,7.570710678118655L16.958578643762692,6.6L16.041421356237308,6.6L15.1,7.54142135623731L15.1,8.04142135623731L14.04142135623731,9.1L13.54142135623731,9.1L12.070710678118655,10.570710678118655L11.929289321881345,10.429289321881345L13.45857864376269,8.9L13.95857864376269,8.9L14.35857864376269,8.5L13.429289321881345,7.570710678118655L13.570710678118655,7.429289321881345z" stroke="none"/><path d="M10.429289321881345,2.9292893218813454L10.570710678118655,3.0707106781186546L9.14142135623731,4.5L10.570710678118655,5.929289321881345L10.429289321881345,6.070710678118655L9,4.641421356237309L6.54142135623731,7.1L6.04142135623731,7.1L5.54142135623731,7.6L4.5,7.6L4.5,7.4L5.45857864376269,7.4L5.95857864376269,6.9L6.45857864376269,6.9z" stroke="none"/><path d="M5.9,8.9L5.9,8.45857864376269L6.45857864376269,7.9L8.04142135623731,7.9L9.1,8.95857864376269L9.1,9.54142135623731L8.54142135623731,10.1L7.95857864376269,10.1L7.4,9.54142135623731L7.4,9.04142135623731L6.95857864376269,8.6L3.9585786437626904,8.6L3.4,8.04142135623731L3.4,6.95857864376269L3.9585786437626904,6.4L5.45857864376269,6.4L5.929289321881345,5.929289321881345L6.070710678118655,6.070710678118655L5.54142135623731,6.6L4.04142135623731,6.6L3.6,7.04142135623731L3.6,7.95857864376269L4.04142135623731,8.4L7.04142135623731,8.4L7.6,8.95857864376269L7.6,9.45857864376269L8.04142135623731,9.9L8.45857864376269,9.9L8.9,9.45857864376269L8.9,9.04142135623731L7.95857864376269,8.1L6.54142135623731,8.1L6.1,8.54142135623731L6.1,8.9L6.54142135623731,8.9L7.1,9.45857864376269L7.1,9.95857864376269L7.570710678118655,10.429289321881345L7.429289321881345,10.570710678118655L6.9,10.04142135623731L6.9,9.54142135623731L6.45857864376269,9.1L6.1,9.1L6.1,10.5L5.9,10.5L5.9,9.1L5.54142135623731,9.1L5.1,9.54142135623731L5.1,10.04142135623731L4.570710678118655,10.570710678118655L4.429289321881345,10.429289321881345L4.9,9.95857864376269L4.9,9.45857864376269L5.45857864376269,8.9z" stroke="none"/><path d="M19.4,9.4L19.4,7.5L19.6,7.5L19.6,9.4L20.041421356237308,9.4L20.541421356237308,9.9L22.958578643762692,9.9L23.458578643762692,9.4L25.541421356237308,9.4L26.041421356237308,9.9L26.541421356237308,9.9L27.070710678118655,10.429289321881345L26.929289321881345,10.570710678118655L26.458578643762692,10.1L25.958578643762692,10.1L25.458578643762692,9.6L23.541421356237308,9.6L23.041421356237308,10.1L20.458578643762692,10.1L19.958578643762692,9.6L19.541421356237308,9.6L18.6,10.54142135623731L18.6,11.54142135623731L18.070710678118655,12.070710678118655L17.929289321881345,11.929289321881345L18.4,11.45857864376269L18.4,10.45857864376269L19.25857864376269,9.6L17.458578643762692,9.6L16.958578643762692,9.1L16.5,9.1L16.5,8.9L17.041421356237308,8.9L17.541421356237308,9.4z" stroke="none"/><path d="M25.570710678118655,11.929289321881345L25.429289321881345,12.070710678118655L23.929289321881345,10.570710678118655L24.070710678118655,10.429289321881345z" stroke="none"/><path d="M15.070710678118655,12.070710678118655L14.929289321881345,11.929289321881345L16.429289321881345,10.429289321881345L16.570710678118655,10.570710678118655z" stroke="none"/><path d="M20.929289321881345,3.0707106781186546L21.070710678118655,2.9292893218813454L21.6,3.4585786437626904L21.6,4.45857864376269L22.1,4.95857864376269L22.1,5.45857864376269L22.570710678118655,5.929289321881345L22.429289321881345,6.070710678118655L21.9,5.54142135623731L21.9,5.04142135623731L21.4,4.54142135623731L21.4,3.5414213562373096z" stroke="none"/><path d="M21,12.1L21,11.9L24.041421356237308,11.9L25.041421356237308,12.9L25.958578643762692,12.9L27.9,10.95857864376269L27.9,10.04142135623731L27.458578643762692,9.6L26.458578643762692,9.6L25.958578643762692,9.1L22.5,9.1L22.5,8.9L26.041421356237308,8.9L26.541421356237308,9.4L27.541421356237308,9.4L28.1,9.95857864376269L28.1,11.04142135623731L26.041421356237308,13.1L24.958578643762692,13.1L23.958578643762692,12.1z" stroke="none"/><path d="M3,3.1L3,2.9L4.54142135623731,2.9L6.04142135623731,4.4L7.5,4.4L7.5,4.6L5.95857864376269,4.6L4.45857864376269,3.1z" stroke="none"/><path d="M11.929289321881345,8.929289321881345L12.070710678118655,9.070710678118655L11.1,10.04142135623731L11.1,10.95857864376269L11.54142135623731,11.4L12.45857864376269,11.4L16.429289321881345,7.429289321881345L16.570710678118655,7.570710678118655L12.54142135623731,11.6L11.45857864376269,11.6L10.9,11.04142135623731L10.9,9.95857864376269z" stroke="none"/><path d="M19.570710678118655,3.0707106781186546L19.429289321881345,2.9292893218813454L20.458578643762692,1.9L21.541421356237308,1.9L22.1,2.4585786437626904L22.1,3.4585786437626904L22.6,3.9585786437626904L22.6,4.45857864376269L24.070710678118655,5.929289321881345L23.929289321881345,6.070710678118655L22.4,4.54142135623731L22.4,4.04142135623731L21.9,3.5414213562373096L21.9,2.5414213562373096L21.458578643762692,2.1L20.541421356237308,2.1z" stroke="none"/><path d="M18,5.9L18,6.1L12,6.1L12,5.9z" stroke="none"/><path d="M21,7.6L21,7.4L27,7.4L27,7.6z" stroke="none"/><path d="M2.9,6L3.1,6L3.1,10.45857864376269L4.04142135623731,11.4L7.95857864376269,11.4L9.4,9.95857864376269L9.4,8.04142135623731L8.929289321881345,7.570710678118655L9.070710678118655,7.429289321881345L9.6,7.95857864376269L9.6,10.04142135623731L8.04142135623731,11.6L3.9585786437626904,11.6L2.9,10.54142135623731z" stroke="none"/><path d="M6,3.1L6,2.9L8.95857864376269,2.9L9.95857864376269,1.9L11.04142135623731,1.9L11.6,2.4585786437626904L11.6,3.9585786437626904L12.070710678118655,4.429289321881345L11.929289321881345,4.570710678118655L11.4,4.04142135623731L11.4,2.5414213562373096L10.95857864376269,2.1L10.04142135623731,2.1L9.04142135623731,3.1z" stroke="none"/><path d="M26.929289321881345,6.070710678118655L27.070710678118655,5.929289321881345L28.1,6.95857864376269L28.1,8.04142135623731L27.541421356237308,8.6L23.458578643762692,8.6L22.958578643762692,8.1L22.041421356237308,8.1L21.070710678118655,9.070710678118655L20.929289321881345,8.929289321881345L21.958578643762692,7.9L23.041421356237308,7.9L23.541421356237308,8.4L27.458578643762692,8.4L27.9,7.95857864376269L27.9,7.04142135623731z" stroke="none"/><path d="M8.929289321881345,6.070710678118655L9.070710678118655,5.929289321881345L10.1,6.95857864376269L10.1,10.54142135623731L8.54142135623731,12.1L3.4585786437626904,12.1L2.4,11.04142135623731L2.4,7.04142135623731L1.9,6.54142135623731L1.9,2.4585786437626904L2.4585786437626904,1.9L7.95857864376269,1.9L8.45857864376269,1.4L12.54142135623731,1.4L13.04142135623731,1.9L14.04142135623731,1.9L15.070710678118655,2.9292893218813454L14.929289321881345,3.0707106781186546L13.95857864376269,2.1L12.95857864376269,2.1L12.45857864376269,1.6L8.54142135623731,1.6L8.04142135623731,2.1L2.5414213562373096,2.1L2.1,2.5414213562373096L2.1,6.45857864376269L2.6,6.95857864376269L2.6,10.95857864376269L3.5414213562373096,11.9L8.45857864376269,11.9L9.9,10.45857864376269L9.9,7.04142135623731z" stroke="none"/><path d="M21.070710678118655,5.929289321881345L20.929289321881345,6.070710678118655L19.958578643762692,5.1L16.458578643762692,5.1L15.95857864376269,4.6L14.95857864376269,4.6L13.429289321881345,3.0707106781186546L13.570710678118655,2.9292893218813454L15.04142135623731,4.4L16.041421356237308,4.4L16.541421356237308,4.9L20.041421356237308,4.9z" stroke="none"/><path d="M16.5,3.1L16.5,2.9L17.458578643762692,2.9L17.958578643762692,2.4L18.458578643762692,2.4L18.958578643762692,1.9L19.458578643762692,1.9L19.958578643762692,1.4L25.041421356237308,1.4L26.541421356237308,2.9L27,2.9L27,3.1L26.458578643762692,3.1L24.958578643762692,1.6L20.041421356237308,1.6L19.541421356237308,2.1L19.041421356237308,2.1L18.541421356237308,2.6L18.041421356237308,2.6L17.541421356237308,3.1z" stroke="none"/><path d="M11.929289321881345,7.429289321881345L12.070710678118655,7.570710678118655L11.1,8.54142135623731L11.1,9.04142135623731L10.6,9.54142135623731L10.6,11.45857864376269L11.04142135623731,11.9L12.54142135623731,11.9L13.04142135623731,12.4L13.54142135623731,12.4L14.04142135623731,12.9L23.541421356237308,12.9L24.041421356237308,13.4L26.458578643762692,13.4L28.4,11.45857864376269L28.4,6.54142135623731L27.9,6.04142135623731L27.9,5.54142135623731L25.958578643762692,3.6L24.958578643762692,3.6L24.458578643762692,3.1L24,3.1L24,2.9L24.541421356237308,2.9L25.041421356237308,3.4L26.041421356237308,3.4L28.1,5.45857864376269L28.1,5.95857864376269L28.6,6.45857864376269L28.6,11.54142135623731L26.541421356237308,13.6L23.958578643762692,13.6L23.458578643762692,13.1L13.95857864376269,13.1L13.45857864376269,12.6L12.95857864376269,12.6L12.45857864376269,12.1L10.95857864376269,12.1L10.4,11.54142135623731L10.4,9.45857864376269L10.9,8.95857864376269L10.9,8.45857864376269z" stroke="none"/></svg>