<svg version="1.1" width="30" height="15" xmlns="http://www.w3.org/2000/svg"><path d="M21,8.9L21,9.1L19.6,9.1L19.6,10.5L19.4,10.5L19.4,9.1L19.041421356237308,9.1L18.6,9.54142135623731L18.6,9.95857864376269L19.1,10.45857864376269L19.1,10.95857864376269L19.6,11.45857864376269L19.6,12L19.4,12L19.4,11.54142135623731L18.9,11.04142135623731L18.9,10.54142135623731L18.4,10.04142135623731L18.4,9.45857864376269L18.958578643762692,8.9z" stroke="none"/><path d="M19.4,7.9L19.4,7.45857864376269L19.958578643762692,6.9L21.541421356237308,6.9L24.541421356237308,9.9L25.041421356237308,9.9L25.570710678118655,10.429289321881345L25.429289321881345,10.570710678118655L24.958578643762692,10.1L24.458578643762692,10.1L21.458578643762692,7.1L20.041421356237308,7.1L19.6,7.54142135623731L19.6,7.9L19.958578643762692,7.9L20.458578643762692,7.4L21,7.4L21,7.6L20.541421356237308,7.6L20.041421356237308,8.1L16.041421356237308,8.1L15.54142135623731,8.6L14.54142135623731,8.6L14.04142135623731,9.1L13.5,9.1L13.5,8.9L13.95857864376269,8.9L14.45857864376269,8.4L15.45857864376269,8.4L15.95857864376269,7.9z" stroke="none"/><path d="M11.9,7.4L11.9,6.45857864376269L12.45857864376269,5.9L15,5.9L15,6.1L12.54142135623731,6.1L12.1,6.54142135623731L12.1,7.25857864376269L12.95857864376269,6.4L14.04142135623731,6.4L15.070710678118655,7.429289321881345L14.929289321881345,7.570710678118655L13.95857864376269,6.6L13.04142135623731,6.6L12.1,7.54142135623731L12.1,8.04142135623731L11.6,8.54142135623731L11.6,9.54142135623731L11.04142135623731,10.1L9.95857864376269,10.1L9.45857864376269,9.6L8.54142135623731,9.6L8.04142135623731,10.1L6.95857864376269,10.1L6.45857864376269,9.6L4.04142135623731,9.6L3.0707106781186546,10.570710678118655L2.9292893218813454,10.429289321881345L3.9585786437626904,9.4L6.54142135623731,9.4L7.04142135623731,9.9L7.95857864376269,9.9L8.45857864376269,9.4L9.54142135623731,9.4L10.04142135623731,9.9L10.95857864376269,9.9L11.4,9.45857864376269L11.4,8.45857864376269L11.9,7.95857864376269L11.9,7.6L10.5,7.6L10.5,7.4z" stroke="none"/><path d="M21.4,10.4L21.4,9.95857864376269L21.958578643762692,9.4L22.541421356237308,9.4L24.041421356237308,10.9L24.541421356237308,10.9L25.041421356237308,11.4L25.958578643762692,11.4L26.4,10.95857864376269L26.4,9.04142135623731L25.4,8.04142135623731L25.4,7.5L25.6,7.5L25.6,7.95857864376269L26.6,8.95857864376269L26.6,11.04142135623731L26.041421356237308,11.6L24.958578643762692,11.6L24.458578643762692,11.1L23.958578643762692,11.1L22.458578643762692,9.6L22.041421356237308,9.6L21.6,10.04142135623731L21.6,10.4L22.041421356237308,10.4L22.541421356237308,10.9L23.041421356237308,10.9L24.070710678118655,11.929289321881345L23.929289321881345,12.070710678118655L22.958578643762692,11.1L22.458578643762692,11.1L21.958578643762692,10.6L21.6,10.6L21.6,11.54142135623731L21.070710678118655,12.070710678118655L20.929289321881345,11.929289321881345L21.4,11.45857864376269L21.4,10.6L21.041421356237308,10.6L20.6,11.04142135623731L20.6,12.54142135623731L20.041421356237308,13.1L18.958578643762692,13.1L16.429289321881345,10.570710678118655L16.570710678118655,10.429289321881345L19.041421356237308,12.9L19.958578643762692,12.9L20.4,12.45857864376269L20.4,10.95857864376269L20.958578643762692,10.4z" stroke="none"/><path d="M11.929289321881345,4.429289321881345L12.070710678118655,4.570710678118655L10.570710678118655,6.070710678118655L10.429289321881345,5.929289321881345z" stroke="none"/><path d="M16.5,8.9L16.5,9.1L16.041421356237308,9.1L15.04142135623731,10.1L12.95857864376269,10.1L12.4,9.54142135623731L12.4,8.45857864376269L13.429289321881345,7.429289321881345L13.570710678118655,7.570710678118655L12.6,8.54142135623731L12.6,9.45857864376269L13.04142135623731,9.9L14.95857864376269,9.9L15.95857864376269,8.9z" stroke="none"/><path d="M12,10.6L12,10.4L12.54142135623731,10.4L13.04142135623731,10.9L13.54142135623731,10.9L14.04142135623731,11.4L14.54142135623731,11.4L15.070710678118655,11.929289321881345L14.929289321881345,12.070710678118655L14.45857864376269,11.6L13.95857864376269,11.6L13.45857864376269,11.1L12.95857864376269,11.1L12.45857864376269,10.6z" stroke="none"/><path d="M25.429289321881345,2.9292893218813454L25.570710678118655,3.0707106781186546L25.041421356237308,3.6L24.041421356237308,3.6L23.041421356237308,4.6L22.5,4.6L22.5,4.4L22.958578643762692,4.4L23.958578643762692,3.4L24.958578643762692,3.4z" stroke="none"/><path d="M15,4.4L15,4.6L13.45857864376269,4.6L12.45857864376269,3.6L11.54142135623731,3.6L10.570710678118655,4.570710678118655L10.429289321881345,4.429289321881345L11.45857864376269,3.4L12.54142135623731,3.4L13.54142135623731,4.4z" stroke="none"/><path d="M4.5,10.6L4.5,10.4L9,10.4L9,10.6z" stroke="none"/><path d="M3,9.1L3,8.9L7.5,8.9L7.5,9.1z" stroke="none"/><path d="M19.5,4.6L19.5,4.4L21.041421356237308,4.4L22.541421356237308,5.9L24,5.9L24,6.1L22.458578643762692,6.1L20.958578643762692,4.6z" stroke="none"/><path d="M9,2.9L9,3.1L7.54142135623731,3.1L6.04142135623731,4.6L4.5,4.6L4.5,4.4L5.95857864376269,4.4L7.45857864376269,2.9z" stroke="none"/><path d="M7.5,7.4L7.5,7.6L4.45857864376269,7.6L3.4,6.54142135623731L3.4,5.04142135623731L2.9292893218813454,4.570710678118655L3.0707106781186546,4.429289321881345L3.6,4.95857864376269L3.6,6.45857864376269L4.54142135623731,7.4z" stroke="none"/><path d="M26.9,7.5L27.1,7.5L27.1,11.54142135623731L26.541421356237308,12.1L26.041421356237308,12.1L25.041421356237308,13.1L23.458578643762692,13.1L22.429289321881345,12.070710678118655L22.570710678118655,11.929289321881345L23.541421356237308,12.9L24.958578643762692,12.9L25.958578643762692,11.9L26.458578643762692,11.9L26.9,11.45857864376269z" stroke="none"/><path d="M4.5,6.1L4.5,5.9L7.04142135623731,5.9L7.54142135623731,6.4L8.04142135623731,6.4L10.570710678118655,8.929289321881345L10.429289321881345,9.070710678118655L7.95857864376269,6.6L7.45857864376269,6.6L6.95857864376269,6.1z" stroke="none"/><path d="M19.5,3.1L19.5,2.9L23.958578643762692,2.9L24.958578643762692,1.9L26.041421356237308,1.9L26.6,2.4585786437626904L26.6,3.4585786437626904L27.1,3.9585786437626904L27.1,4.5L26.9,4.5L26.9,4.04142135623731L26.4,3.5414213562373096L26.4,2.5414213562373096L25.958578643762692,2.1L25.041421356237308,2.1L24.041421356237308,3.1z" stroke="none"/><path d="M12,11.9L12,12.1L3.4585786437626904,12.1L2.9585786437626904,11.6L2.4585786437626904,11.6L1.9,11.04142135623731L1.9,8.45857864376269L2.9292893218813454,7.429289321881345L3.0707106781186546,7.570710678118655L2.1,8.54142135623731L2.1,10.95857864376269L2.5414213562373096,11.4L3.0414213562373096,11.4L3.5414213562373096,11.9z" stroke="none"/><path d="M9.070710678118655,4.570710678118655L8.929289321881345,4.429289321881345L9.95857864376269,3.4L10.45857864376269,3.4L10.95857864376269,2.9L13.04142135623731,2.9L13.54142135623731,3.4L15.54142135623731,3.4L17.541421356237308,5.4L19.041421356237308,5.4L19.570710678118655,5.929289321881345L19.429289321881345,6.070710678118655L18.958578643762692,5.6L17.458578643762692,5.6L15.45857864376269,3.6L13.45857864376269,3.6L12.95857864376269,3.1L11.04142135623731,3.1L10.54142135623731,3.6L10.04142135623731,3.6z" stroke="none"/><path d="M18.070710678118655,4.429289321881345L17.929289321881345,4.570710678118655L17.458578643762692,4.1L16.958578643762692,4.1L15.95857864376269,3.1L13.95857864376269,3.1L13.45857864376269,2.6L9.95857864376269,2.6L9.45857864376269,2.1L8.04142135623731,2.1L7.54142135623731,2.6L7.04142135623731,2.6L6.54142135623731,3.1L6,3.1L6,2.9L6.45857864376269,2.9L6.95857864376269,2.4L7.45857864376269,2.4L7.95857864376269,1.9L9.54142135623731,1.9L10.04142135623731,2.4L13.54142135623731,2.4L14.04142135623731,2.9L16.041421356237308,2.9L17.041421356237308,3.9L17.541421356237308,3.9z" stroke="none"/></svg>