<svg version="1.1" width="30" height="15" xmlns="http://www.w3.org/2000/svg"><path d="M8.9,2.9585786437626904L8.9,2.4585786437626904L9.45857864376269,1.9L10.54142135623731,1.9L11.1,2.4585786437626904L11.1,4.04142135623731L10.570710678118655,4.570710678118655L10.429289321881345,4.429289321881345L10.9,3.9585786437626904L10.9,2.5414213562373096L10.45857864376269,2.1L9.54142135623731,2.1L9.1,2.5414213562373096L9.1,2.9L10.5,2.9L10.5,3.1L9.04142135623731,3.1L8.04142135623731,4.1L7.04142135623731,4.1L6.54142135623731,4.6L6,4.6L6,4.4L6.45857864376269,4.4L6.95857864376269,3.9L7.95857864376269,3.9z" stroke="none"/><path d="M13.95857864376269,5.9L14.45857864376269,5.4L15.45857864376269,5.4L15.9,4.95857864376269L15.9,4.04142135623731L14.929289321881345,3.0707106781186546L15.070710678118655,2.9292893218813454L16.1,3.9585786437626904L16.1,5.04142135623731L15.54142135623731,5.6L14.54142135623731,5.6L14.241421356237309,5.9L15.95857864376269,5.9L16.4,5.45857864376269L16.4,4.45857864376269L17.458578643762692,3.4L18.541421356237308,3.4L19.570710678118655,4.429289321881345L19.429289321881345,4.570710678118655L18.458578643762692,3.6L17.541421356237308,3.6L16.6,4.54142135623731L16.6,5.54142135623731L16.041421356237308,6.1L13.45857864376269,6.1L12.45857864376269,5.1L11.54142135623731,5.1L10.04142135623731,6.6L9.54142135623731,6.6L9.04142135623731,7.1L8.54142135623731,7.1L8.04142135623731,7.6L7.5,7.6L7.5,7.4L7.95857864376269,7.4L8.45857864376269,6.9L8.95857864376269,6.9L9.45857864376269,6.4L9.95857864376269,6.4L11.45857864376269,4.9L12.54142135623731,4.9L13.54142135623731,5.9z" stroke="none"/><path d="M14.4,9.4L14.4,9.04142135623731L13.45857864376269,8.1L12.45857864376269,8.1L11.929289321881345,7.570710678118655L12.070710678118655,7.429289321881345L12.54142135623731,7.9L13.54142135623731,7.9L14.6,8.95857864376269L14.6,10.95857864376269L15.1,11.45857864376269L15.1,12L14.9,12L14.9,11.54142135623731L14.4,11.04142135623731L14.4,9.741421356237309L13.570710678118655,10.570710678118655L13.429289321881345,10.429289321881345L14.258578643762691,9.6L13.54142135623731,9.6L13.1,10.04142135623731L13.1,11.45857864376269L13.570710678118655,11.929289321881345L13.429289321881345,12.070710678118655L12.9,11.54142135623731L12.9,9.95857864376269L13.45857864376269,9.4z" stroke="none"/><path d="M22.958578643762692,8.9L23.458578643762692,8.4L23.958578643762692,8.4L24.958578643762692,7.4L25.5,7.4L25.5,7.6L25.041421356237308,7.6L24.041421356237308,8.6L23.541421356237308,8.6L23.24142135623731,8.9L24.041421356237308,8.9L25.1,9.95857864376269L25.1,10.45857864376269L25.6,10.95857864376269L25.6,12L25.4,12L25.4,11.04142135623731L24.9,10.54142135623731L24.9,10.04142135623731L23.958578643762692,9.1L23.24142135623731,9.1L23.6,9.45857864376269L23.6,9.95857864376269L24.070710678118655,10.429289321881345L23.929289321881345,10.570710678118655L23.4,10.04142135623731L23.4,9.54142135623731L22.958578643762692,9.1L20.458578643762692,9.1L19.958578643762692,8.6L19.458578643762692,8.6L18.458578643762692,7.6L18,7.6L18,7.4L18.541421356237308,7.4L19.541421356237308,8.4L20.041421356237308,8.4L20.541421356237308,8.9z" stroke="none"/><path d="M15,4.4L15,4.6L13.5,4.6L13.5,4.4z" stroke="none"/><path d="M19.570710678118655,5.929289321881345L19.429289321881345,6.070710678118655L17.929289321881345,4.570710678118655L18.070710678118655,4.429289321881345z" stroke="none"/><path d="M22.429289321881345,5.929289321881345L22.570710678118655,6.070710678118655L21.070710678118655,7.570710678118655L20.929289321881345,7.429289321881345z" stroke="none"/><path d="M4.6,12L4.4,12L4.4,9L4.6,9z" stroke="none"/><path d="M2.9292893218813454,12.070710678118655L3.0707106781186546,11.929289321881345L4.04142135623731,12.9L4.95857864376269,12.9L5.929289321881345,11.929289321881345L6.070710678118655,12.070710678118655L5.04142135623731,13.1L3.9585786437626904,13.1z" stroke="none"/><path d="M7.5,9.1L7.5,8.9L10.5,8.9L10.5,9.1z" stroke="none"/><path d="M6,2.9L6,3.1L3,3.1L3,2.9z" stroke="none"/><path d="M22.429289321881345,12.070710678118655L22.570710678118655,11.929289321881345L23.541421356237308,12.9L25.958578643762692,12.9L26.4,12.45857864376269L26.4,10.54142135623731L25.9,10.04142135623731L25.9,9.54142135623731L25.429289321881345,9.070710678118655L25.570710678118655,8.929289321881345L26.1,9.45857864376269L26.1,9.95857864376269L26.6,10.45857864376269L26.6,12.54142135623731L26.041421356237308,13.1L23.458578643762692,13.1z" stroke="none"/><path d="M4.429289321881345,4.570710678118655L4.570710678118655,4.429289321881345L5.54142135623731,5.4L6.45857864376269,5.4L6.95857864376269,4.9L8.45857864376269,4.9L8.929289321881345,4.429289321881345L9.070710678118655,4.570710678118655L8.54142135623731,5.1L7.04142135623731,5.1L6.54142135623731,5.6L5.45857864376269,5.6z" stroke="none"/><path d="M3.0707106781186546,4.429289321881345L2.9292893218813454,4.570710678118655L1.9,3.5414213562373096L1.9,2.4585786437626904L2.4585786437626904,1.9L6.54142135623731,1.9L7.570710678118655,2.9292893218813454L7.429289321881345,3.0707106781186546L6.45857864376269,2.1L2.5414213562373096,2.1L2.1,2.5414213562373096L2.1,3.4585786437626904z" stroke="none"/><path d="M27,5.9L27,6.1L26.541421356237308,6.1L26.041421356237308,6.6L25.041421356237308,6.6L24.041421356237308,7.6L22.5,7.6L22.5,7.4L23.958578643762692,7.4L24.958578643762692,6.4L25.958578643762692,6.4L26.458578643762692,5.9z" stroke="none"/><path d="M7.429289321881345,5.929289321881345L7.570710678118655,6.070710678118655L6.6,7.04142135623731L6.6,9.45857864376269L7.04142135623731,9.9L11.04142135623731,9.9L11.54142135623731,10.4L12,10.4L12,10.6L11.45857864376269,10.6L10.95857864376269,10.1L6.95857864376269,10.1L6.4,9.54142135623731L6.4,6.95857864376269z" stroke="none"/><path d="M16.5,10.6L16.5,10.4L22.541421356237308,10.4L24.070710678118655,11.929289321881345L23.929289321881345,12.070710678118655L22.458578643762692,10.6z" stroke="none"/><path d="M19.5,11.9L19.5,12.1L18.041421356237308,12.1L17.541421356237308,12.6L16.041421356237308,12.6L15.54142135623731,13.1L12.45857864376269,13.1L11.95857864376269,12.6L10.95857864376269,12.6L10.429289321881345,12.070710678118655L10.570710678118655,11.929289321881345L11.04142135623731,12.4L12.04142135623731,12.4L12.54142135623731,12.9L15.45857864376269,12.9L15.95857864376269,12.4L17.458578643762692,12.4L17.958578643762692,11.9z" stroke="none"/><path d="M3,7.6L3,7.4L4.04142135623731,7.4L4.54142135623731,7.9L5.04142135623731,7.9L5.6,8.45857864376269L5.6,8.95857864376269L6.1,9.45857864376269L6.1,9.95857864376269L6.54142135623731,10.4L7.04142135623731,10.4L9.04142135623731,12.4L9.54142135623731,12.4L10.04142135623731,12.9L11.54142135623731,12.9L12.04142135623731,13.4L18.458578643762692,13.4L18.958578643762692,12.9L19.958578643762692,12.9L20.4,12.45857864376269L20.4,11.54142135623731L19.958578643762692,11.1L17.541421356237308,11.1L17.041421356237308,11.6L15.95857864376269,11.6L14.9,10.54142135623731L14.9,8.54142135623731L12.45857864376269,6.1L12,6.1L12,5.9L12.54142135623731,5.9L15.1,8.45857864376269L15.1,10.45857864376269L16.041421356237308,11.4L16.958578643762692,11.4L17.458578643762692,10.9L20.041421356237308,10.9L20.6,11.45857864376269L20.6,12.54142135623731L20.041421356237308,13.1L19.041421356237308,13.1L18.541421356237308,13.6L11.95857864376269,13.6L11.45857864376269,13.1L9.95857864376269,13.1L9.45857864376269,12.6L8.95857864376269,12.6L6.95857864376269,10.6L6.45857864376269,10.6L5.9,10.04142135623731L5.9,9.54142135623731L5.4,9.04142135623731L5.4,8.54142135623731L4.95857864376269,8.1L4.45857864376269,8.1L3.9585786437626904,7.6z" stroke="none"/><path d="M17.929289321881345,6.070710678118655L18.070710678118655,5.929289321881345L19.041421356237308,6.9L19.958578643762692,6.9L21.958578643762692,4.9L27.541421356237308,4.9L28.1,5.45857864376269L28.1,7.54142135623731L27.6,8.04142135623731L27.6,8.54142135623731L27.070710678118655,9.070710678118655L26.929289321881345,8.929289321881345L27.4,8.45857864376269L27.4,7.95857864376269L27.9,7.45857864376269L27.9,5.54142135623731L27.458578643762692,5.1L22.041421356237308,5.1L20.041421356237308,7.1L18.958578643762692,7.1z" stroke="none"/></svg>