<svg version="1.1" width="30" height="15" xmlns="http://www.w3.org/2000/svg"><path d="M23,8.35857864376269L23.929289321881345,7.429289321881345L24.070710678118655,7.570710678118655L23.24142135623731,8.4L24.458578643762692,8.4L24.958578643762692,7.9L26.041421356237308,7.9L27.070710678118655,8.929289321881345L26.929289321881345,9.070710678118655L25.958578643762692,8.1L25.041421356237308,8.1L24.541421356237308,8.6L22.958578643762692,8.6L22.4,8.04142135623731L22.4,7.54142135623731L20.929289321881345,6.070710678118655L21.070710678118655,5.929289321881345L22.6,7.45857864376269L22.6,7.95857864376269z" stroke="none"/><path d="M19.458578643762692,11.4L20.458578643762692,10.4L21,10.4L21,10.6L20.541421356237308,10.6L19.541421356237308,11.6L19.1,11.6L19.1,11.95857864376269L19.541421356237308,12.4L20.458578643762692,12.4L20.958578643762692,11.9L22.5,11.9L22.5,12.1L21.041421356237308,12.1L20.541421356237308,12.6L19.458578643762692,12.6L18.9,12.04142135623731L18.9,11.6L17.458578643762692,11.6L16.958578643762692,11.1L13.04142135623731,11.1L12.070710678118655,12.070710678118655L11.929289321881345,11.929289321881345L12.95857864376269,10.9L17.041421356237308,10.9L17.541421356237308,11.4z" stroke="none"/><path d="M11.9,7.9L11.9,7.45857864376269L12.45857864376269,6.9L15.45857864376269,6.9L16.429289321881345,5.929289321881345L16.570710678118655,6.070710678118655L15.54142135623731,7.1L12.54142135623731,7.1L12.1,7.54142135623731L12.1,7.9L12.45857864376269,7.9L12.95857864376269,7.4L13.5,7.4L13.5,7.6L13.04142135623731,7.6L12.54142135623731,8.1L12.1,8.1L12.1,8.45857864376269L12.54142135623731,8.9L13.5,8.9L13.5,9.1L12.45857864376269,9.1L11.9,8.54142135623731L11.9,8.1L11.54142135623731,8.1L9.070710678118655,10.570710678118655L8.929289321881345,10.429289321881345L11.45857864376269,7.9z" stroke="none"/><path d="M11.4,4.4L11.4,3.9585786437626904L11.95857864376269,3.4L12.45857864376269,3.4L12.95857864376269,2.9L13.5,2.9L13.5,3.1L13.04142135623731,3.1L12.54142135623731,3.6L12.04142135623731,3.6L11.6,4.04142135623731L11.6,4.4L12.04142135623731,4.4L13.570710678118655,5.929289321881345L13.429289321881345,6.070710678118655L11.95857864376269,4.6L11.6,4.6L11.6,5.04142135623731L11.04142135623731,5.6L8.54142135623731,5.6L8.04142135623731,6.1L4.5,6.1L4.5,5.9L7.95857864376269,5.9L8.45857864376269,5.4L10.95857864376269,5.4L11.4,4.95857864376269L11.4,4.6L10.95857864376269,4.6L10.4,4.04142135623731L10.4,3.4585786437626904L11.95857864376269,1.9L13.54142135623731,1.9L14.1,2.4585786437626904L14.1,3.4585786437626904L15.070710678118655,4.429289321881345L14.929289321881345,4.570710678118655L13.9,3.5414213562373096L13.9,2.5414213562373096L13.45857864376269,2.1L12.04142135623731,2.1L10.6,3.5414213562373096L10.6,3.9585786437626904L11.04142135623731,4.4z" stroke="none"/><path d="M4.429289321881345,10.570710678118655L4.570710678118655,10.429289321881345L6.070710678118655,11.929289321881345L5.929289321881345,12.070710678118655z" stroke="none"/><path d="M6,2.9L6,3.1L3,3.1L3,2.9z" stroke="none"/><path d="M6.070710678118655,10.429289321881345L5.929289321881345,10.570710678118655L4.95857864376269,9.6L4.04142135623731,9.6L3.0707106781186546,10.570710678118655L2.9292893218813454,10.429289321881345L3.9585786437626904,9.4L5.04142135623731,9.4z" stroke="none"/><path d="M25.6,12L25.4,12L25.4,9L25.6,9z" stroke="none"/><path d="M5.929289321881345,7.570710678118655L6.070710678118655,7.429289321881345L6.54142135623731,7.9L7.54142135623731,7.9L8.54142135623731,8.9L9,8.9L9,9.1L8.45857864376269,9.1L7.45857864376269,8.1L6.45857864376269,8.1z" stroke="none"/><path d="M18.070710678118655,9.070710678118655L17.929289321881345,8.929289321881345L18.4,8.45857864376269L18.4,7.45857864376269L18.9,6.95857864376269L18.9,6.45857864376269L19.429289321881345,5.929289321881345L19.570710678118655,6.070710678118655L19.1,6.54142135623731L19.1,7.04142135623731L18.6,7.54142135623731L18.6,8.54142135623731z" stroke="none"/><path d="M26.9,3L27.1,3L27.1,7.5L26.9,7.5z" stroke="none"/><path d="M18,10.6L18,10.4L19.458578643762692,10.4L20.458578643762692,9.4L21.541421356237308,9.4L22.570710678118655,10.429289321881345L22.429289321881345,10.570710678118655L21.458578643762692,9.6L20.541421356237308,9.6L19.541421356237308,10.6z" stroke="none"/><path d="M15,11.9L15,12.1L14.54142135623731,12.1L14.04142135623731,12.6L13.04142135623731,12.6L12.54142135623731,13.1L11.45857864376269,13.1L10.9,12.54142135623731L10.9,11.45857864376269L11.95857864376269,10.4L12.45857864376269,10.4L12.95857864376269,9.9L13.95857864376269,9.9L16.429289321881345,7.429289321881345L16.570710678118655,7.570710678118655L14.04142135623731,10.1L13.04142135623731,10.1L12.54142135623731,10.6L12.04142135623731,10.6L11.1,11.54142135623731L11.1,12.45857864376269L11.54142135623731,12.9L12.45857864376269,12.9L12.95857864376269,12.4L13.95857864376269,12.4L14.45857864376269,11.9z" stroke="none"/><path d="M24.070710678118655,11.929289321881345L23.929289321881345,12.070710678118655L23.4,11.54142135623731L23.4,10.04142135623731L22.458578643762692,9.1L19.5,9.1L19.5,8.9L22.541421356237308,8.9L23.6,9.95857864376269L23.6,11.45857864376269z" stroke="none"/><path d="M19.429289321881345,3.0707106781186546L19.570710678118655,2.9292893218813454L20.041421356237308,3.4L20.541421356237308,3.4L21.541421356237308,4.4L22.541421356237308,4.4L24.070710678118655,5.929289321881345L23.929289321881345,6.070710678118655L22.458578643762692,4.6L21.458578643762692,4.6L20.458578643762692,3.6L19.958578643762692,3.6z" stroke="none"/><path d="M9.070710678118655,3.0707106781186546L8.929289321881345,2.9292893218813454L9.45857864376269,2.4L9.95857864376269,2.4L10.95857864376269,1.4L14.04142135623731,1.4L14.6,1.9585786437626904L14.6,2.4585786437626904L15.070710678118655,2.9292893218813454L14.929289321881345,3.0707106781186546L14.4,2.5414213562373096L14.4,2.0414213562373096L13.95857864376269,1.6L11.04142135623731,1.6L10.04142135623731,2.6L9.54142135623731,2.6z" stroke="none"/><path d="M18.1,4.5L17.9,4.5L17.9,2.9585786437626904L18.958578643762692,1.9L20.041421356237308,1.9L21.541421356237308,3.4L22.041421356237308,3.4L22.541421356237308,3.9L23.041421356237308,3.9L23.541421356237308,4.4L24,4.4L24,4.6L23.458578643762692,4.6L22.958578643762692,4.1L22.458578643762692,4.1L21.958578643762692,3.6L21.458578643762692,3.6L19.958578643762692,2.1L19.041421356237308,2.1L18.1,3.0414213562373096z" stroke="none"/><path d="M15.070710678118655,6.070710678118655L14.929289321881345,5.929289321881345L15.9,4.95857864376269L15.9,2.5414213562373096L14.45857864376269,1.1L10.54142135623731,1.1L9.54142135623731,2.1L8.54142135623731,2.1L6.54142135623731,4.1L5.04142135623731,4.1L3.6,5.54142135623731L3.6,6.45857864376269L4.04142135623731,6.9L4.95857864376269,6.9L5.45857864376269,6.4L7.04142135623731,6.4L7.54142135623731,6.9L8.04142135623731,6.9L8.54142135623731,7.4L9,7.4L9,7.6L8.45857864376269,7.6L7.95857864376269,7.1L7.45857864376269,7.1L6.95857864376269,6.6L5.54142135623731,6.6L5.04142135623731,7.1L3.9585786437626904,7.1L3.4,6.54142135623731L3.4,5.45857864376269L4.95857864376269,3.9L6.45857864376269,3.9L8.45857864376269,1.9L9.45857864376269,1.9L10.45857864376269,0.9L14.54142135623731,0.9L16.1,2.4585786437626904L16.1,5.04142135623731z" stroke="none"/><path d="M7.5,12.1L7.5,11.9L9.04142135623731,11.9L9.54142135623731,12.4L10.04142135623731,12.4L11.04142135623731,13.4L14.45857864376269,13.4L14.95857864376269,12.9L15.45857864376269,12.9L16.429289321881345,11.929289321881345L16.570710678118655,12.070710678118655L15.54142135623731,13.1L15.04142135623731,13.1L14.54142135623731,13.6L10.95857864376269,13.6L9.95857864376269,12.6L9.45857864376269,12.6L8.95857864376269,12.1z" stroke="none"/><path d="M10.429289321881345,10.429289321881345L10.570710678118655,10.570710678118655L9.54142135623731,11.6L8.45857864376269,11.6L4.95857864376269,8.1L4.45857864376269,8.1L3.9585786437626904,7.6L3.4585786437626904,7.6L2.9,7.04142135623731L2.9,5.04142135623731L1.9,4.04142135623731L1.9,2.4585786437626904L2.4585786437626904,1.9L4.95857864376269,1.9L5.45857864376269,1.4L5.95857864376269,1.4L6.45857864376269,0.9L6.95857864376269,0.9L7.45857864376269,0.4L15.04142135623731,0.4L16.6,1.9585786437626904L16.6,3.4585786437626904L17.1,3.9585786437626904L17.1,4.95857864376269L17.541421356237308,5.4L18.458578643762692,5.4L18.958578643762692,4.9L21.541421356237308,4.9L22.570710678118655,5.929289321881345L22.429289321881345,6.070710678118655L21.458578643762692,5.1L19.041421356237308,5.1L18.541421356237308,5.6L17.458578643762692,5.6L16.9,5.04142135623731L16.9,4.04142135623731L16.4,3.5414213562373096L16.4,2.0414213562373096L14.95857864376269,0.6L7.54142135623731,0.6L7.04142135623731,1.1L6.54142135623731,1.1L6.04142135623731,1.6L5.54142135623731,1.6L5.04142135623731,2.1L2.5414213562373096,2.1L2.1,2.5414213562373096L2.1,3.9585786437626904L3.1,4.95857864376269L3.1,6.95857864376269L3.5414213562373096,7.4L4.04142135623731,7.4L4.54142135623731,7.9L5.04142135623731,7.9L8.54142135623731,11.4L9.45857864376269,11.4z" stroke="none"/></svg>