<svg version="1.1" width="30" height="15" xmlns="http://www.w3.org/2000/svg"><path d="M11.45857864376269,7.9L11.95857864376269,7.4L12.45857864376269,7.4L12.95857864376269,6.9L13.95857864376269,6.9L14.929289321881345,5.929289321881345L15.070710678118655,6.070710678118655L14.04142135623731,7.1L13.04142135623731,7.1L12.54142135623731,7.6L12.04142135623731,7.6L11.54142135623731,8.1L9.741421356237309,8.1L10.570710678118655,8.929289321881345L10.429289321881345,9.070710678118655L9.45857864376269,8.1L6.54142135623731,8.1L4.04142135623731,10.6L3,10.6L3,10.4L3.9585786437626904,10.4L6.45857864376269,7.9z" stroke="none"/><path d="M18.4,4.45857864376269L18.4,3.5414213562373096L17.929289321881345,3.0707106781186546L18.070710678118655,2.9292893218813454L18.6,3.4585786437626904L18.6,4.4L18.958578643762692,4.4L20.458578643762692,2.9L21,2.9L21,3.1L20.541421356237308,3.1L19.041421356237308,4.6L18.541421356237308,4.6L17.6,5.54142135623731L17.6,6.54142135623731L16.570710678118655,7.570710678118655L16.429289321881345,7.429289321881345L17.4,6.45857864376269L17.4,5.45857864376269z" stroke="none"/><path d="M9.54142135623731,9.4L10.04142135623731,9.9L10.95857864376269,9.9L11.45857864376269,9.4L13.95857864376269,9.4L14.45857864376269,8.9L15,8.9L15,9.1L14.54142135623731,9.1L14.04142135623731,9.6L11.54142135623731,9.6L11.04142135623731,10.1L9.95857864376269,10.1L9.45857864376269,9.6L8.6,9.6L8.6,10.54142135623731L7.54142135623731,11.6L7.04142135623731,11.6L6.54142135623731,12.1L3,12.1L3,11.9L6.45857864376269,11.9L6.95857864376269,11.4L7.45857864376269,11.4L8.4,10.45857864376269L8.4,9.741421356237309L7.570710678118655,10.570710678118655L7.429289321881345,10.429289321881345L8.258578643762691,9.6L7.54142135623731,9.6L7.04142135623731,10.1L6.54142135623731,10.1L6.070710678118655,10.570710678118655L5.929289321881345,10.429289321881345L6.45857864376269,9.9L6.95857864376269,9.9L7.45857864376269,9.4z" stroke="none"/><path d="M19.4,5.45857864376269L19.4,4.95857864376269L20.458578643762692,3.9L21.458578643762692,3.9L21.9,3.4585786437626904L21.9,2.5414213562373096L21.458578643762692,2.1L17.541421356237308,2.1L13.570710678118655,6.070710678118655L13.429289321881345,5.929289321881345L17.458578643762692,1.9L21.541421356237308,1.9L22.1,2.4585786437626904L22.1,3.5414213562373096L21.541421356237308,4.1L20.541421356237308,4.1L19.6,5.04142135623731L19.6,5.4L23.541421356237308,5.4L24.070710678118655,5.929289321881345L23.929289321881345,6.070710678118655L23.458578643762692,5.6L19.6,5.6L19.6,5.95857864376269L20.041421356237308,6.4L24.458578643762692,6.4L24.9,5.95857864376269L24.9,5.45857864376269L25.4,4.95857864376269L25.4,4.5L25.6,4.5L25.6,5.04142135623731L25.1,5.54142135623731L25.1,6.04142135623731L24.541421356237308,6.6L19.958578643762692,6.6L19.4,6.04142135623731L19.4,5.74142135623731L17.6,7.54142135623731L17.6,8.04142135623731L17.041421356237308,8.6L15.95857864376269,8.6L15.4,8.04142135623731L15.4,6.95857864376269L16.429289321881345,5.929289321881345L16.570710678118655,6.070710678118655L15.6,7.04142135623731L15.6,7.95857864376269L16.041421356237308,8.4L16.958578643762692,8.4L17.4,7.95857864376269L17.4,7.45857864376269z" stroke="none"/><path d="M25.6,10.5L25.4,10.5L25.4,9L25.6,9z" stroke="none"/><path d="M4.4,4.5L4.6,4.5L4.6,6L4.4,6z" stroke="none"/><path d="M11.929289321881345,10.570710678118655L12.070710678118655,10.429289321881345L13.570710678118655,11.929289321881345L13.429289321881345,12.070710678118655z" stroke="none"/><path d="M9,5.9L9,6.1L6,6.1L6,5.9z" stroke="none"/><path d="M17.929289321881345,12.070710678118655L18.070710678118655,11.929289321881345L19.041421356237308,12.9L19.958578643762692,12.9L20.929289321881345,11.929289321881345L21.070710678118655,12.070710678118655L20.041421356237308,13.1L18.958578643762692,13.1z" stroke="none"/><path d="M6.070710678118655,4.429289321881345L5.929289321881345,4.570710678118655L4.95857864376269,3.6L4.04142135623731,3.6L3.6,4.04142135623731L3.6,6.45857864376269L4.570710678118655,7.429289321881345L4.429289321881345,7.570710678118655L3.4,6.54142135623731L3.4,3.9585786437626904L3.9585786437626904,3.4L5.04142135623731,3.4z" stroke="none"/><path d="M22.5,7.6L22.5,7.4L24.458578643762692,7.4L25.4,6.45857864376269L25.4,5.95857864376269L26.4,4.95857864376269L26.4,4.04142135623731L25.958578643762692,3.6L25.041421356237308,3.6L24.070710678118655,4.570710678118655L23.929289321881345,4.429289321881345L24.958578643762692,3.4L26.041421356237308,3.4L26.6,3.9585786437626904L26.6,5.04142135623731L25.6,6.04142135623731L25.6,6.54142135623731L24.541421356237308,7.6z" stroke="none"/><path d="M22.5,10.4L22.5,10.6L21.541421356237308,10.6L21.041421356237308,11.1L20.541421356237308,11.1L19.570710678118655,12.070710678118655L19.429289321881345,11.929289321881345L20.458578643762692,10.9L20.958578643762692,10.9L21.458578643762692,10.4z" stroke="none"/><path d="M24,12.1L24,11.9L26.458578643762692,11.9L26.958578643762692,11.4L27.458578643762692,11.4L27.9,10.95857864376269L27.9,10.04142135623731L26.929289321881345,9.070710678118655L27.070710678118655,8.929289321881345L28.1,9.95857864376269L28.1,11.04142135623731L27.541421356237308,11.6L27.041421356237308,11.6L26.541421356237308,12.1z" stroke="none"/><path d="M24,3.1L24,2.9L26.541421356237308,2.9L27.1,3.4585786437626904L27.1,6L26.9,6L26.9,3.5414213562373096L26.458578643762692,3.1z" stroke="none"/><path d="M3.1,7.5L2.9,7.5L2.9,3.4585786437626904L3.4585786437626904,2.9L4.45857864376269,2.9L5.45857864376269,1.9L6.54142135623731,1.9L7.570710678118655,2.9292893218813454L7.429289321881345,3.0707106781186546L6.45857864376269,2.1L5.54142135623731,2.1L4.54142135623731,3.1L3.5414213562373096,3.1L3.1,3.5414213562373096z" stroke="none"/><path d="M5.929289321881345,3.0707106781186546L6.070710678118655,2.9292893218813454L7.04142135623731,3.9L7.95857864376269,3.9L8.45857864376269,3.4L9.54142135623731,3.4L12.070710678118655,5.929289321881345L11.929289321881345,6.070710678118655L9.45857864376269,3.6L8.54142135623731,3.6L8.04142135623731,4.1L6.95857864376269,4.1z" stroke="none"/><path d="M13.570710678118655,4.570710678118655L13.429289321881345,4.429289321881345L16.458578643762692,1.4L26.041421356237308,1.4L27.6,2.9585786437626904L27.6,4.95857864376269L28.1,5.45857864376269L28.1,6.54142135623731L27.541421356237308,7.1L27.041421356237308,7.1L26.541421356237308,7.6L26.041421356237308,7.6L25.541421356237308,8.1L23.541421356237308,8.1L23.041421356237308,8.6L20.958578643762692,8.6L20.458578643762692,8.1L19.958578643762692,8.1L19.429289321881345,7.570710678118655L19.570710678118655,7.429289321881345L20.041421356237308,7.9L20.541421356237308,7.9L21.041421356237308,8.4L22.958578643762692,8.4L23.458578643762692,7.9L25.458578643762692,7.9L25.958578643762692,7.4L26.458578643762692,7.4L26.958578643762692,6.9L27.458578643762692,6.9L27.9,6.45857864376269L27.9,5.54142135623731L27.4,5.04142135623731L27.4,3.0414213562373096L25.958578643762692,1.6L16.541421356237308,1.6z" stroke="none"/><path d="M26.929289321881345,10.429289321881345L27.070710678118655,10.570710678118655L26.041421356237308,11.6L24.958578643762692,11.6L22.958578643762692,9.6L21.541421356237308,9.6L21.041421356237308,10.1L20.541421356237308,10.1L20.041421356237308,10.6L19.5,10.6L19.5,10.4L19.958578643762692,10.4L20.458578643762692,9.9L20.958578643762692,9.9L21.458578643762692,9.4L23.041421356237308,9.4L25.041421356237308,11.4L25.958578643762692,11.4z" stroke="none"/><path d="M16.429289321881345,10.429289321881345L16.570710678118655,10.570710678118655L14.04142135623731,13.1L10.45857864376269,13.1L9.45857864376269,12.1L9,12.1L9,11.9L9.54142135623731,11.9L10.54142135623731,12.9L13.95857864376269,12.9z" stroke="none"/><path d="M19.429289321881345,8.929289321881345L19.570710678118655,9.070710678118655L17.041421356237308,11.6L16.541421356237308,11.6L14.54142135623731,13.6L3.4585786437626904,13.6L2.9585786437626904,13.1L2.4585786437626904,13.1L1.9,12.54142135623731L1.9,9.95857864376269L2.9585786437626904,8.9L3.4585786437626904,8.9L3.9585786437626904,8.4L4.95857864376269,8.4L5.95857864376269,7.4L8.95857864376269,7.4L9.9,6.45857864376269L9.9,5.54142135623731L8.929289321881345,4.570710678118655L9.070710678118655,4.429289321881345L10.1,5.45857864376269L10.1,6.54142135623731L9.04142135623731,7.6L6.04142135623731,7.6L5.04142135623731,8.6L4.04142135623731,8.6L3.5414213562373096,9.1L3.0414213562373096,9.1L2.1,10.04142135623731L2.1,12.45857864376269L2.5414213562373096,12.9L3.0414213562373096,12.9L3.5414213562373096,13.4L14.45857864376269,13.4L16.458578643762692,11.4L16.958578643762692,11.4z" stroke="none"/></svg>