<svg version="1.1" width="30" height="15" xmlns="http://www.w3.org/2000/svg"><path d="M21.9,4.45857864376269L21.9,3.4585786437626904L22.429289321881345,2.9292893218813454L22.570710678118655,3.0707106781186546L22.1,3.5414213562373096L22.1,4.4L27,4.4L27,4.6L22.041421356237308,4.6L21.541421356237308,5.1L20.541421356237308,5.1L20.041421356237308,5.6L17.958578643762692,5.6L16.958578643762692,4.6L16.5,4.6L16.5,4.4L17.041421356237308,4.4L18.041421356237308,5.4L19.958578643762692,5.4L20.458578643762692,4.9L21.458578643762692,4.9z" stroke="none"/><path d="M12.95857864376269,4.9L15.95857864376269,1.9L19.541421356237308,1.9L20.541421356237308,2.9L21,2.9L21,3.1L20.458578643762692,3.1L19.458578643762692,2.1L16.041421356237308,2.1L13.1,5.04142135623731L13.1,5.54142135623731L12.54142135623731,6.1L12.04142135623731,6.1L11.04142135623731,7.1L10.54142135623731,7.1L10.04142135623731,7.6L9,7.6L9,7.4L9.95857864376269,7.4L10.45857864376269,6.9L10.95857864376269,6.9L11.95857864376269,5.9L12.45857864376269,5.9L12.9,5.45857864376269L12.9,5.1L9.45857864376269,5.1L8.929289321881345,4.570710678118655L9.070710678118655,4.429289321881345L9.54142135623731,4.9z" stroke="none"/><path d="M24.5,6.858578643762691L25.429289321881345,5.929289321881345L25.570710678118655,6.070710678118655L24.74142135623731,6.9L25.458578643762692,6.9L26.458578643762692,5.9L27,5.9L27,6.1L26.541421356237308,6.1L25.541421356237308,7.1L24.6,7.1L24.6,7.45857864376269L25.541421356237308,8.4L26.041421356237308,8.4L26.541421356237308,8.9L27,8.9L27,9.1L26.458578643762692,9.1L25.958578643762692,8.6L25.458578643762692,8.6L24.4,7.54142135623731L24.4,7.04142135623731L23.958578643762692,6.6L22.958578643762692,6.6L22.429289321881345,6.070710678118655L22.570710678118655,5.929289321881345L23.041421356237308,6.4L24.041421356237308,6.4z" stroke="none"/><path d="M16.541421356237308,9.9L17.041421356237308,9.9L17.541421356237308,10.4L18,10.4L18,10.6L17.458578643762692,10.6L16.958578643762692,10.1L16.6,10.1L16.6,10.45857864376269L17.041421356237308,10.9L19.041421356237308,10.9L19.541421356237308,11.4L20.541421356237308,11.4L21.041421356237308,11.9L22.5,11.9L22.5,12.1L20.958578643762692,12.1L20.458578643762692,11.6L19.458578643762692,11.6L18.958578643762692,11.1L16.958578643762692,11.1L16.4,10.54142135623731L16.4,10.1L11.04142135623731,10.1L10.570710678118655,10.570710678118655L10.429289321881345,10.429289321881345L10.95857864376269,9.9L16.25857864376269,9.9L15.4,9.04142135623731L15.4,8.04142135623731L14.929289321881345,7.570710678118655L15.070710678118655,7.429289321881345L15.6,7.95857864376269L15.6,8.95857864376269z" stroke="none"/><path d="M4.4,4.5L4.6,4.5L4.6,6L4.4,6z" stroke="none"/><path d="M8.929289321881345,2.9292893218813454L9.070710678118655,3.0707106781186546L7.570710678118655,4.570710678118655L7.429289321881345,4.429289321881345z" stroke="none"/><path d="M20.929289321881345,7.570710678118655L21.070710678118655,7.429289321881345L22.570710678118655,8.929289321881345L22.429289321881345,9.070710678118655z" stroke="none"/><path d="M5.9,9L6.1,9L6.1,12L5.9,12z" stroke="none"/><path d="M6.070710678118655,4.429289321881345L5.929289321881345,4.570710678118655L4.95857864376269,3.6L4.04142135623731,3.6L3.0707106781186546,4.570710678118655L2.9292893218813454,4.429289321881345L3.9585786437626904,3.4L5.04142135623731,3.4z" stroke="none"/><path d="M5.929289321881345,5.929289321881345L6.070710678118655,6.070710678118655L5.04142135623731,7.1L3.9585786437626904,7.1L2.9292893218813454,6.070710678118655L3.0707106781186546,5.929289321881345L4.04142135623731,6.9L4.95857864376269,6.9z" stroke="none"/><path d="M16.429289321881345,3.0707106781186546L16.570710678118655,2.9292893218813454L17.041421356237308,3.4L18.041421356237308,3.4L19.041421356237308,4.4L19.5,4.4L19.5,4.6L18.958578643762692,4.6L17.958578643762692,3.6L16.958578643762692,3.6z" stroke="none"/><path d="M20.929289321881345,9.070710678118655L21.070710678118655,8.929289321881345L22.041421356237308,9.9L23.041421356237308,9.9L23.541421356237308,10.4L24,10.4L24,10.6L23.458578643762692,10.6L22.958578643762692,10.1L21.958578643762692,10.1z" stroke="none"/><path d="M3.0707106781186546,12.070710678118655L2.9292893218813454,11.929289321881345L3.9,10.95857864376269L3.9,9.45857864376269L4.429289321881345,8.929289321881345L4.570710678118655,9.070710678118655L4.1,9.54142135623731L4.1,11.04142135623731z" stroke="none"/><path d="M14.929289321881345,4.570710678118655L15.070710678118655,4.429289321881345L18.070710678118655,7.429289321881345L17.929289321881345,7.570710678118655z" stroke="none"/><path d="M3.0707106781186546,10.570710678118655L2.9292893218813454,10.429289321881345L3.4,9.95857864376269L3.4,8.45857864376269L3.9585786437626904,7.9L6.54142135623731,7.9L7.1,8.45857864376269L7.1,9.95857864376269L7.570710678118655,10.429289321881345L7.429289321881345,10.570710678118655L6.9,10.04142135623731L6.9,8.54142135623731L6.45857864376269,8.1L4.04142135623731,8.1L3.6,8.54142135623731L3.6,10.04142135623731z" stroke="none"/><path d="M16.5,11.9L16.5,12.1L12,12.1L12,11.9z" stroke="none"/><path d="M3,7.6L3,7.4L5.45857864376269,7.4L5.95857864376269,6.9L6.45857864376269,6.9L7.429289321881345,5.929289321881345L7.570710678118655,6.070710678118655L6.54142135623731,7.1L6.04142135623731,7.1L5.54142135623731,7.6z" stroke="none"/><path d="M10.570710678118655,2.9292893218813454L10.429289321881345,3.0707106781186546L9.45857864376269,2.1L4.04142135623731,2.1L2.1,4.04142135623731L2.1,12.45857864376269L2.5414213562373096,12.9L6.45857864376269,12.9L8.4,10.95857864376269L8.4,10.45857864376269L8.9,9.95857864376269L8.9,9.45857864376269L9.4,8.95857864376269L9.4,8.45857864376269L9.95857864376269,7.9L10.45857864376269,7.9L10.95857864376269,7.4L11.95857864376269,7.4L12.95857864376269,6.4L15.54142135623731,6.4L16.570710678118655,7.429289321881345L16.429289321881345,7.570710678118655L15.45857864376269,6.6L13.04142135623731,6.6L12.04142135623731,7.6L11.04142135623731,7.6L10.54142135623731,8.1L10.04142135623731,8.1L9.6,8.54142135623731L9.6,9.04142135623731L9.1,9.54142135623731L9.1,10.04142135623731L8.6,10.54142135623731L8.6,11.04142135623731L6.54142135623731,13.1L2.4585786437626904,13.1L1.9,12.54142135623731L1.9,3.9585786437626904L3.9585786437626904,1.9L9.54142135623731,1.9z" stroke="none"/><path d="M18,12.1L18,11.9L19.541421356237308,11.9L20.041421356237308,12.4L21.041421356237308,12.4L21.541421356237308,12.9L22.958578643762692,12.9L25.429289321881345,10.429289321881345L25.570710678118655,10.570710678118655L23.041421356237308,13.1L21.458578643762692,13.1L20.958578643762692,12.6L19.958578643762692,12.6L19.458578643762692,12.1z" stroke="none"/><path d="M10.429289321881345,8.929289321881345L10.570710678118655,9.070710678118655L9.6,10.04142135623731L9.6,10.95857864376269L11.54142135623731,12.9L20.541421356237308,12.9L21.041421356237308,13.4L23.458578643762692,13.4L25.458578643762692,11.4L25.958578643762692,11.4L26.4,10.95857864376269L26.4,10.04142135623731L25.458578643762692,9.1L24.958578643762692,9.1L24.458578643762692,8.6L23.958578643762692,8.6L22.458578643762692,7.1L21.958578643762692,7.1L21.458578643762692,6.6L20.541421356237308,6.6L20.1,7.04142135623731L20.1,7.54142135623731L19.6,8.04142135623731L19.6,9L19.4,9L19.4,7.95857864376269L19.9,7.45857864376269L19.9,6.95857864376269L20.458578643762692,6.4L21.541421356237308,6.4L22.041421356237308,6.9L22.541421356237308,6.9L24.041421356237308,8.4L24.541421356237308,8.4L25.041421356237308,8.9L25.541421356237308,8.9L26.6,9.95857864376269L26.6,11.04142135623731L26.041421356237308,11.6L25.541421356237308,11.6L23.541421356237308,13.6L20.958578643762692,13.6L20.458578643762692,13.1L11.45857864376269,13.1L9.4,11.04142135623731L9.4,9.95857864376269z" stroke="none"/></svg>