<svg version="1.1" width="30" height="15" xmlns="http://www.w3.org/2000/svg"><path d="M13.04142135623731,9.9L16.958578643762692,9.9L17.929289321881345,8.929289321881345L18.070710678118655,9.070710678118655L17.041421356237308,10.1L12.54142135623731,10.1L11.54142135623731,11.1L11.04142135623731,11.1L10.04142135623731,12.1L9,12.1L9,11.9L9.95857864376269,11.9L10.95857864376269,10.9L11.45857864376269,10.9L12.45857864376269,9.9L12.758578643762691,9.9L11.929289321881345,9.070710678118655L12.070710678118655,8.929289321881345z" stroke="none"/><path d="M5.4,9.95857864376269L5.4,7.95857864376269L5.929289321881345,7.429289321881345L6.070710678118655,7.570710678118655L5.6,8.04142135623731L5.6,9.9L7.04142135623731,9.9L7.570710678118655,10.429289321881345L7.429289321881345,10.570710678118655L6.95857864376269,10.1L5.54142135623731,10.1L5.04142135623731,10.6L4.54142135623731,10.6L3.0707106781186546,12.070710678118655L2.9292893218813454,11.929289321881345L4.45857864376269,10.4L4.95857864376269,10.4z" stroke="none"/><path d="M13.4,4.45857864376269L13.4,3L13.6,3L13.6,4.4L15,4.4L15,4.6L13.6,4.6L13.6,4.95857864376269L14.1,5.45857864376269L14.1,6.45857864376269L14.54142135623731,6.9L17.458578643762692,6.9L17.958578643762692,6.4L18.958578643762692,6.4L19.429289321881345,5.929289321881345L19.570710678118655,6.070710678118655L19.041421356237308,6.6L18.041421356237308,6.6L17.541421356237308,7.1L14.45857864376269,7.1L13.9,6.54142135623731L13.9,5.54142135623731L13.4,5.04142135623731L13.4,4.74142135623731L12.54142135623731,5.6L11.54142135623731,5.6L11.04142135623731,6.1L10.5,6.1L10.5,5.9L10.95857864376269,5.9L11.45857864376269,5.4L12.45857864376269,5.4z" stroke="none"/><path d="M8.4,6.4L8.4,6.04142135623731L7.95857864376269,5.6L3.9585786437626904,5.6L2.9292893218813454,4.570710678118655L3.0707106781186546,4.429289321881345L4.04142135623731,5.4L8.04142135623731,5.4L8.6,5.95857864376269L8.6,6.45857864376269L9.1,6.95857864376269L9.1,7.45857864376269L10.570710678118655,8.929289321881345L10.429289321881345,9.070710678118655L8.9,7.54142135623731L8.9,7.04142135623731L8.6,6.74142135623731L8.6,7.95857864376269L9.6,8.95857864376269L9.6,9.45857864376269L10.04142135623731,9.9L10.45857864376269,9.9L10.9,9.45857864376269L10.9,8.45857864376269L11.45857864376269,7.9L13.54142135623731,7.9L14.54142135623731,8.9L15,8.9L15,9.1L14.45857864376269,9.1L13.45857864376269,8.1L11.54142135623731,8.1L11.1,8.54142135623731L11.1,9.54142135623731L10.54142135623731,10.1L9.95857864376269,10.1L9.4,9.54142135623731L9.4,9.04142135623731L8.4,8.04142135623731L8.4,6.6L5.95857864376269,6.6L5.45857864376269,6.1L4.5,6.1L4.5,5.9L5.54142135623731,5.9L6.04142135623731,6.4z" stroke="none"/><path d="M10.5,4.6L10.5,4.4L12,4.4L12,4.6z" stroke="none"/><path d="M9.1,4.5L8.9,4.5L8.9,3L9.1,3z" stroke="none"/><path d="M24.1,9L23.9,9L23.9,7.5L24.1,7.5z" stroke="none"/><path d="M24,4.6L24,4.4L27,4.4L27,4.6z" stroke="none"/><path d="M2.9,7.5L3.1,7.5L3.1,10.5L2.9,10.5z" stroke="none"/><path d="M4.6,9L4.4,9L4.4,8.04142135623731L3.9,7.54142135623731L3.9,7.04142135623731L3.4585786437626904,6.6L2.5414213562373096,6.6L2.1,7.04142135623731L2.1,12.45857864376269L2.5414213562373096,12.9L5.45857864376269,12.9L6.45857864376269,11.9L7.45857864376269,11.9L8.4,10.95857864376269L8.4,9.04142135623731L7.9,8.54142135623731L7.9,8.04142135623731L7.429289321881345,7.570710678118655L7.570710678118655,7.429289321881345L8.1,7.95857864376269L8.1,8.45857864376269L8.6,8.95857864376269L8.6,11.04142135623731L7.54142135623731,12.1L6.54142135623731,12.1L5.54142135623731,13.1L2.4585786437626904,13.1L1.9,12.54142135623731L1.9,6.95857864376269L2.4585786437626904,6.4L3.5414213562373096,6.4L4.1,6.95857864376269L4.1,7.45857864376269L4.6,7.95857864376269z" stroke="none"/><path d="M19.5,4.6L19.5,4.4L20.541421356237308,4.4L21.041421356237308,4.9L21.541421356237308,4.9L22.570710678118655,5.929289321881345L22.429289321881345,6.070710678118655L21.458578643762692,5.1L20.958578643762692,5.1L20.458578643762692,4.6z" stroke="none"/><path d="M18.070710678118655,4.570710678118655L17.929289321881345,4.429289321881345L18.958578643762692,3.4L19.958578643762692,3.4L20.458578643762692,2.9L21,2.9L21,3.1L20.541421356237308,3.1L20.041421356237308,3.6L19.041421356237308,3.6z" stroke="none"/><path d="M10.5,3.1L10.5,2.9L10.95857864376269,2.9L11.45857864376269,2.4L11.95857864376269,2.4L12.45857864376269,1.9L14.04142135623731,1.9L15.070710678118655,2.9292893218813454L14.929289321881345,3.0707106781186546L13.95857864376269,2.1L12.54142135623731,2.1L12.04142135623731,2.6L11.54142135623731,2.6L11.04142135623731,3.1z" stroke="none"/><path d="M27.070710678118655,11.929289321881345L26.929289321881345,12.070710678118655L26.458578643762692,11.6L24.958578643762692,11.6L22.429289321881345,9.070710678118655L22.570710678118655,8.929289321881345L25.041421356237308,11.4L26.541421356237308,11.4z" stroke="none"/><path d="M25.6,10.5L25.4,10.5L25.4,7.54142135623731L24.458578643762692,6.6L23.541421356237308,6.6L23.041421356237308,7.1L21.958578643762692,7.1L20.929289321881345,6.070710678118655L21.070710678118655,5.929289321881345L22.041421356237308,6.9L22.958578643762692,6.9L23.458578643762692,6.4L24.541421356237308,6.4L25.6,7.45857864376269z" stroke="none"/><path d="M22.5,12.1L22.5,11.9L25.541421356237308,11.9L26.541421356237308,12.9L27.458578643762692,12.9L27.9,12.45857864376269L27.9,9.04142135623731L27.4,8.54142135623731L27.4,8.04142135623731L26.929289321881345,7.570710678118655L27.070710678118655,7.429289321881345L27.6,7.95857864376269L27.6,8.45857864376269L28.1,8.95857864376269L28.1,12.54142135623731L27.541421356237308,13.1L26.458578643762692,13.1L25.458578643762692,12.1z" stroke="none"/><path d="M15.070710678118655,6.070710678118655L14.929289321881345,5.929289321881345L18.458578643762692,2.4L19.958578643762692,2.4L20.458578643762692,1.9L21.541421356237308,1.9L22.1,2.4585786437626904L22.1,3.4585786437626904L22.6,3.9585786437626904L22.6,4.45857864376269L23.541421356237308,5.4L24.541421356237308,5.4L25.041421356237308,5.9L25.5,5.9L25.5,6.1L24.958578643762692,6.1L24.458578643762692,5.6L23.458578643762692,5.6L22.4,4.54142135623731L22.4,4.04142135623731L21.9,3.5414213562373096L21.9,2.5414213562373096L21.458578643762692,2.1L20.541421356237308,2.1L20.041421356237308,2.6L18.541421356237308,2.6z" stroke="none"/><path d="M21,7.4L21,7.6L10.5,7.6L10.5,7.4z" stroke="none"/><path d="M16.570710678118655,9.070710678118655L16.429289321881345,8.929289321881345L17.458578643762692,7.9L18.541421356237308,7.9L21.1,10.45857864376269L21.1,10.95857864376269L21.6,11.45857864376269L21.6,12.45857864376269L22.041421356237308,12.9L24.541421356237308,12.9L25.041421356237308,13.4L27.958578643762692,13.4L28.4,12.95857864376269L28.4,7.54142135623731L27.458578643762692,6.6L26.541421356237308,6.6L26.1,7.04142135623731L26.1,8.45857864376269L26.6,8.95857864376269L26.6,9.45857864376269L27.1,9.95857864376269L27.1,10.5L26.9,10.5L26.9,10.04142135623731L26.4,9.54142135623731L26.4,9.04142135623731L25.9,8.54142135623731L25.9,6.95857864376269L26.458578643762692,6.4L27.541421356237308,6.4L28.6,7.45857864376269L28.6,13.04142135623731L28.041421356237308,13.6L24.958578643762692,13.6L24.458578643762692,13.1L21.958578643762692,13.1L21.4,12.54142135623731L21.4,11.54142135623731L20.9,11.04142135623731L20.9,10.54142135623731L18.458578643762692,8.1L17.541421356237308,8.1z" stroke="none"/><path d="M4.570710678118655,4.570710678118655L4.429289321881345,4.429289321881345L5.95857864376269,2.9L6.45857864376269,2.9L6.95857864376269,2.4L7.45857864376269,2.4L7.95857864376269,1.9L11.45857864376269,1.9L11.95857864376269,1.4L14.54142135623731,1.4L15.04142135623731,1.9L15.54142135623731,1.9L16.570710678118655,2.9292893218813454L16.429289321881345,3.0707106781186546L15.45857864376269,2.1L14.95857864376269,2.1L14.45857864376269,1.6L12.04142135623731,1.6L11.54142135623731,2.1L8.04142135623731,2.1L7.54142135623731,2.6L7.04142135623731,2.6L6.54142135623731,3.1L6.04142135623731,3.1z" stroke="none"/></svg>