<svg version="1.1" width="30" height="15" xmlns="http://www.w3.org/2000/svg"><path d="M4.45857864376269,10.4L5.45857864376269,9.4L6.54142135623731,9.4L7.570710678118655,10.429289321881345L7.429289321881345,10.570710678118655L6.45857864376269,9.6L5.54142135623731,9.6L4.6,10.54142135623731L4.6,12L4.4,12L4.4,10.6L3,10.6L3,10.4z" stroke="none"/><path d="M24.041421356237308,6.4L25.041421356237308,7.4L25.5,7.4L25.5,7.6L24.958578643762692,7.6L23.958578643762692,6.6L23.6,6.6L23.6,8.45857864376269L24.070710678118655,8.929289321881345L23.929289321881345,9.070710678118655L23.4,8.54142135623731L23.4,6.6L18.958578643762692,6.6L18.458578643762692,6.1L18,6.1L18,5.9L18.541421356237308,5.9L19.041421356237308,6.4z" stroke="none"/><path d="M10.45857864376269,5.9L13.429289321881345,2.9292893218813454L13.570710678118655,3.0707106781186546L10.741421356237309,5.9L11.95857864376269,5.9L13.45857864376269,4.4L15,4.4L15,4.6L13.54142135623731,4.6L12.04142135623731,6.1L10.6,6.1L10.6,7.5L10.4,7.5L10.4,6.1L10.04142135623731,6.1L7.54142135623731,8.6L3.9585786437626904,8.6L2.9292893218813454,7.570710678118655L3.0707106781186546,7.429289321881345L4.04142135623731,8.4L7.45857864376269,8.4L9.95857864376269,5.9z" stroke="none"/><path d="M7.54142135623731,4.9L7.95857864376269,4.9L8.45857864376269,4.4L9,4.4L9,4.6L8.54142135623731,4.6L8.04142135623731,5.1L7.6,5.1L7.6,6.04142135623731L6.070710678118655,7.570710678118655L5.929289321881345,7.429289321881345L7.4,5.95857864376269L7.4,5.24142135623731L7.04142135623731,5.6L6.54142135623731,5.6L6.070710678118655,6.070710678118655L5.929289321881345,5.929289321881345L6.45857864376269,5.4L6.95857864376269,5.4L7.358578643762691,5L6.9,4.54142135623731L6.9,4.04142135623731L6.45857864376269,3.6L5.45857864376269,3.6L4.95857864376269,3.1L3,3.1L3,2.9L5.04142135623731,2.9L5.54142135623731,3.4L6.54142135623731,3.4L7.1,3.9585786437626904L7.1,4.45857864376269z" stroke="none"/><path d="M26.9,7.5L27.1,7.5L27.1,9L26.9,9z" stroke="none"/><path d="M13.5,7.6L13.5,7.4L15,7.4L15,7.6z" stroke="none"/><path d="M19.5,7.6L19.5,7.4L21,7.4L21,7.6z" stroke="none"/><path d="M24.1,4.5L23.9,4.5L23.9,3L24.1,3z" stroke="none"/><path d="M13.429289321881345,10.429289321881345L13.570710678118655,10.570710678118655L12.070710678118655,12.070710678118655L11.929289321881345,11.929289321881345z" stroke="none"/><path d="M2.9292893218813454,6.070710678118655L3.0707106781186546,5.929289321881345L4.570710678118655,7.429289321881345L4.429289321881345,7.570710678118655z" stroke="none"/><path d="M22.429289321881345,7.429289321881345L22.570710678118655,7.570710678118655L21.6,8.54142135623731L21.6,9.45857864376269L22.570710678118655,10.429289321881345L22.429289321881345,10.570710678118655L21.4,9.54142135623731L21.4,8.45857864376269z" stroke="none"/><path d="M7.5,3.1L7.5,2.9L8.54142135623731,2.9L9.04142135623731,3.4L9.54142135623731,3.4L10.570710678118655,4.429289321881345L10.429289321881345,4.570710678118655L9.45857864376269,3.6L8.95857864376269,3.6L8.45857864376269,3.1z" stroke="none"/><path d="M23.929289321881345,11.929289321881345L24.070710678118655,12.070710678118655L23.041421356237308,13.1L21.458578643762692,13.1L20.958578643762692,12.6L20.458578643762692,12.6L19.958578643762692,12.1L18,12.1L18,11.9L20.041421356237308,11.9L20.541421356237308,12.4L21.041421356237308,12.4L21.541421356237308,12.9L22.958578643762692,12.9z" stroke="none"/><path d="M22.5,11.9L22.5,12.1L21.458578643762692,12.1L18.958578643762692,9.6L18.458578643762692,9.6L17.958578643762692,9.1L16.5,9.1L16.5,8.9L18.041421356237308,8.9L18.541421356237308,9.4L19.041421356237308,9.4L21.541421356237308,11.9z" stroke="none"/><path d="M21,4.4L21,4.6L19.541421356237308,4.6L19.041421356237308,5.1L17.541421356237308,5.1L17.1,5.54142135623731L17.1,6.04142135623731L16.6,6.54142135623731L16.6,7.04142135623731L16.1,7.54142135623731L16.1,8.04142135623731L15.070710678118655,9.070710678118655L14.929289321881345,8.929289321881345L15.9,7.95857864376269L15.9,7.45857864376269L16.4,6.95857864376269L16.4,6.45857864376269L16.9,5.95857864376269L16.9,5.45857864376269L17.458578643762692,4.9L18.958578643762692,4.9L19.458578643762692,4.4z" stroke="none"/><path d="M5.929289321881345,10.570710678118655L6.070710678118655,10.429289321881345L7.04142135623731,11.4L7.95857864376269,11.4L9.95857864376269,9.4L14.04142135623731,9.4L15.070710678118655,10.429289321881345L14.929289321881345,10.570710678118655L13.95857864376269,9.6L10.04142135623731,9.6L8.04142135623731,11.6L6.95857864376269,11.6z" stroke="none"/><path d="M25.429289321881345,4.429289321881345L25.570710678118655,4.570710678118655L24.541421356237308,5.6L23.458578643762692,5.6L21.458578643762692,3.6L18.041421356237308,3.6L17.541421356237308,4.1L17.041421356237308,4.1L16.570710678118655,4.570710678118655L16.429289321881345,4.429289321881345L16.958578643762692,3.9L17.458578643762692,3.9L17.958578643762692,3.4L21.541421356237308,3.4L23.541421356237308,5.4L24.458578643762692,5.4z" stroke="none"/><path d="M6,4.4L6,4.6L2.9585786437626904,4.6L1.9,3.5414213562373096L1.9,2.4585786437626904L2.4585786437626904,1.9L14.54142135623731,1.9L15.54142135623731,2.9L16.5,2.9L16.5,3.1L15.45857864376269,3.1L14.45857864376269,2.1L2.5414213562373096,2.1L2.1,2.5414213562373096L2.1,3.4585786437626904L3.0414213562373096,4.4z" stroke="none"/><path d="M10.4,10.5L10.6,10.5L10.6,10.95857864376269L11.1,11.45857864376269L11.1,12.45857864376269L11.54142135623731,12.9L20.541421356237308,12.9L21.041421356237308,13.4L23.458578643762692,13.4L23.958578643762692,12.9L24.458578643762692,12.9L24.9,12.45857864376269L24.9,11.54142135623731L22.429289321881345,9.070710678118655L22.570710678118655,8.929289321881345L25.1,11.45857864376269L25.1,12.54142135623731L24.541421356237308,13.1L24.041421356237308,13.1L23.541421356237308,13.6L20.958578643762692,13.6L20.458578643762692,13.1L11.45857864376269,13.1L10.9,12.54142135623731L10.9,11.54142135623731L10.4,11.04142135623731z" stroke="none"/><path d="M3,9.1L3,8.9L9.45857864376269,8.9L9.95857864376269,8.4L10.95857864376269,8.4L12.95857864376269,6.4L13.95857864376269,6.4L14.45857864376269,5.9L15,5.9L15,6.1L14.54142135623731,6.1L14.04142135623731,6.6L13.04142135623731,6.6L11.04142135623731,8.6L10.04142135623731,8.6L9.54142135623731,9.1z" stroke="none"/></svg>