<svg version="1.1" width="30" height="15" xmlns="http://www.w3.org/2000/svg"><path d="M6.9,9.758578643762691L6.9,8.45857864376269L7.4,7.95857864376269L7.4,7.5L7.6,7.5L7.6,8.04142135623731L7.1,8.54142135623731L7.1,10.04142135623731L6.6,10.54142135623731L6.6,11.04142135623731L6.1,11.54142135623731L6.1,12L5.9,12L5.9,11.45857864376269L6.4,10.95857864376269L6.4,10.45857864376269L6.858578643762691,10L5.929289321881345,9.070710678118655L6.070710678118655,8.929289321881345z" stroke="none"/><path d="M8.4,8.45857864376269L8.4,6.45857864376269L8.929289321881345,5.929289321881345L9.070710678118655,6.070710678118655L8.6,6.54142135623731L8.6,8.4L10.04142135623731,8.4L10.570710678118655,8.929289321881345L10.429289321881345,9.070710678118655L9.95857864376269,8.6L8.54142135623731,8.6L8.1,9.04142135623731L8.1,9.54142135623731L7.1,10.54142135623731L7.1,12.54142135623731L6.54142135623731,13.1L5.45857864376269,13.1L4.9,12.54142135623731L4.9,9.54142135623731L4.429289321881345,9.070710678118655L4.570710678118655,8.929289321881345L5.1,9.45857864376269L5.1,12.45857864376269L5.54142135623731,12.9L6.45857864376269,12.9L6.9,12.45857864376269L6.9,10.45857864376269L7.9,9.45857864376269L7.9,8.95857864376269z" stroke="none"/><path d="M23.9,2.9L23.9,2.5414213562373096L23.458578643762692,2.1L21.041421356237308,2.1L20.041421356237308,3.1L16.5,3.1L16.5,2.9L19.958578643762692,2.9L20.958578643762692,1.9L23.541421356237308,1.9L24.1,2.4585786437626904L24.1,2.9L27,2.9L27,3.1L24.1,3.1L24.1,3.4585786437626904L24.541421356237308,3.9L26.541421356237308,3.9L27.070710678118655,4.429289321881345L26.929289321881345,4.570710678118655L26.458578643762692,4.1L24.458578643762692,4.1L23.9,3.5414213562373096L23.9,3.1L22.5,3.1L22.5,2.9z" stroke="none"/><path d="M4.9,2.9L4.9,2.4585786437626904L5.45857864376269,1.9L6.04142135623731,1.9L7.04142135623731,2.9L7.5,2.9L7.5,3.1L6.95857864376269,3.1L5.95857864376269,2.1L5.54142135623731,2.1L5.1,2.5414213562373096L5.1,2.9L5.54142135623731,2.9L6.1,3.4585786437626904L6.1,4.5L5.9,4.5L5.9,3.5414213562373096L5.45857864376269,3.1L5.1,3.1L5.1,4.04142135623731L4.570710678118655,4.570710678118655L4.429289321881345,4.429289321881345L4.9,3.9585786437626904L4.9,3.1L4.54142135623731,3.1L4.1,3.5414213562373096L4.1,4.04142135623731L3.6,4.54142135623731L3.6,5.04142135623731L3.1,5.54142135623731L3.1,6L2.9,6L2.9,5.45857864376269L3.4,4.95857864376269L3.4,4.45857864376269L3.9,3.9585786437626904L3.9,3.4585786437626904L4.45857864376269,2.9z" stroke="none"/><path d="M25.5,12.1L25.5,11.9L27,11.9L27,12.1z" stroke="none"/><path d="M13.4,3L13.6,3L13.6,4.5L13.4,4.5z" stroke="none"/><path d="M21,12.1L21,11.9L24,11.9L24,12.1z" stroke="none"/><path d="M22.429289321881345,7.570710678118655L22.570710678118655,7.429289321881345L23.6,8.45857864376269L23.6,9.54142135623731L22.570710678118655,10.570710678118655L22.429289321881345,10.429289321881345L23.4,9.45857864376269L23.4,8.54142135623731z" stroke="none"/><path d="M13.6,12L13.4,12L13.4,9L13.6,9z" stroke="none"/><path d="M9.070710678118655,10.570710678118655L8.929289321881345,10.429289321881345L9.45857864376269,9.9L10.95857864376269,9.9L11.4,9.45857864376269L11.4,8.54142135623731L10.429289321881345,7.570710678118655L10.570710678118655,7.429289321881345L11.6,8.45857864376269L11.6,9.54142135623731L11.04142135623731,10.1L9.54142135623731,10.1z" stroke="none"/><path d="M21,4.4L21,4.6L16.5,4.6L16.5,4.4z" stroke="none"/><path d="M13.429289321881345,7.570710678118655L13.570710678118655,7.429289321881345L14.6,8.45857864376269L14.6,9.54142135623731L14.1,10.04142135623731L14.1,10.95857864376269L15.070710678118655,11.929289321881345L14.929289321881345,12.070710678118655L13.9,11.04142135623731L13.9,9.95857864376269L14.4,9.45857864376269L14.4,8.54142135623731z" stroke="none"/><path d="M3.0707106781186546,3.0707106781186546L2.9292893218813454,2.9292893218813454L3.4585786437626904,2.4L3.9585786437626904,2.4L4.95857864376269,1.4L6.54142135623731,1.4L7.04142135623731,1.9L8.04142135623731,1.9L8.6,2.4585786437626904L8.6,3.4585786437626904L9.1,3.9585786437626904L9.1,4.5L8.9,4.5L8.9,4.04142135623731L8.4,3.5414213562373096L8.4,2.5414213562373096L7.95857864376269,2.1L6.95857864376269,2.1L6.45857864376269,1.6L5.04142135623731,1.6L4.04142135623731,2.6L3.5414213562373096,2.6z" stroke="none"/><path d="M14.929289321881345,6.070710678118655L15.070710678118655,5.929289321881345L16.041421356237308,6.9L17.041421356237308,6.9L17.541421356237308,7.4L19.041421356237308,7.4L20.041421356237308,8.4L20.541421356237308,8.4L21.070710678118655,8.929289321881345L20.929289321881345,9.070710678118655L20.458578643762692,8.6L19.958578643762692,8.6L18.958578643762692,7.6L17.458578643762692,7.6L16.958578643762692,7.1L15.95857864376269,7.1z" stroke="none"/><path d="M23.9,7.5L24.1,7.5L24.1,10.54142135623731L23.041421356237308,11.6L21.958578643762692,11.6L21.458578643762692,11.1L20.041421356237308,11.1L19.541421356237308,11.6L18.541421356237308,11.6L18.070710678118655,12.070710678118655L17.929289321881345,11.929289321881345L18.458578643762692,11.4L19.458578643762692,11.4L19.958578643762692,10.9L21.541421356237308,10.9L22.041421356237308,11.4L22.958578643762692,11.4L23.9,10.45857864376269z" stroke="none"/><path d="M24,5.9L24,6.1L16.5,6.1L16.5,5.9z" stroke="none"/><path d="M13.429289321881345,5.929289321881345L13.570710678118655,6.070710678118655L12.6,7.04142135623731L12.6,9.04142135623731L12.1,9.54142135623731L12.1,10.04142135623731L8.54142135623731,13.6L4.95857864376269,13.6L4.4,13.04142135623731L4.4,11.04142135623731L3.4,10.04142135623731L3.4,8.45857864376269L3.9585786437626904,7.9L4.95857864376269,7.9L5.45857864376269,7.4L6,7.4L6,7.6L5.54142135623731,7.6L5.04142135623731,8.1L4.04142135623731,8.1L3.6,8.54142135623731L3.6,9.95857864376269L4.6,10.95857864376269L4.6,12.95857864376269L5.04142135623731,13.4L8.45857864376269,13.4L11.9,9.95857864376269L11.9,9.45857864376269L12.4,8.95857864376269L12.4,6.95857864376269z" stroke="none"/><path d="M25.5,10.6L25.5,10.4L27.041421356237308,10.4L28.1,11.45857864376269L28.1,12.54142135623731L27.541421356237308,13.1L17.458578643762692,13.1L16.9,12.54142135623731L16.9,9.54142135623731L16.429289321881345,9.070710678118655L16.570710678118655,8.929289321881345L17.1,9.45857864376269L17.1,12.45857864376269L17.541421356237308,12.9L27.458578643762692,12.9L27.9,12.45857864376269L27.9,11.54142135623731L26.958578643762692,10.6z" stroke="none"/><path d="M5.929289321881345,5.929289321881345L6.070710678118655,6.070710678118655L5.54142135623731,6.6L4.54142135623731,6.6L3.1,8.04142135623731L3.1,12.45857864376269L4.54142135623731,13.9L13.95857864376269,13.9L14.45857864376269,13.4L14.95857864376269,13.4L15.9,12.45857864376269L15.9,11.54142135623731L14.929289321881345,10.570710678118655L15.070710678118655,10.429289321881345L16.1,11.45857864376269L16.1,12.54142135623731L15.04142135623731,13.6L14.54142135623731,13.6L14.04142135623731,14.1L4.45857864376269,14.1L2.9,12.54142135623731L2.9,7.95857864376269L4.45857864376269,6.4L5.45857864376269,6.4z" stroke="none"/><path d="M12.070710678118655,5.929289321881345L11.929289321881345,6.070710678118655L9.4,3.5414213562373096L9.4,2.5414213562373096L7.95857864376269,1.1L4.54142135623731,1.1L4.04142135623731,1.6L3.0414213562373096,1.6L2.1,2.5414213562373096L2.1,11.45857864376269L2.6,11.95857864376269L2.6,12.95857864376269L4.04142135623731,14.4L14.45857864376269,14.4L14.95857864376269,13.9L15.45857864376269,13.9L16.4,12.95857864376269L16.4,11.04142135623731L15.9,10.54142135623731L15.9,10.04142135623731L15.4,9.54142135623731L15.4,8.45857864376269L15.95857864376269,7.9L17.541421356237308,7.9L18.041421356237308,8.4L18.541421356237308,8.4L19.041421356237308,8.9L19.541421356237308,8.9L20.541421356237308,9.9L21.458578643762692,9.9L22.429289321881345,8.929289321881345L22.570710678118655,9.070710678118655L21.541421356237308,10.1L20.458578643762692,10.1L19.458578643762692,9.1L18.958578643762692,9.1L18.458578643762692,8.6L17.958578643762692,8.6L17.458578643762692,8.1L16.041421356237308,8.1L15.6,8.54142135623731L15.6,9.45857864376269L16.1,9.95857864376269L16.1,10.45857864376269L16.6,10.95857864376269L16.6,13.04142135623731L15.54142135623731,14.1L15.04142135623731,14.1L14.54142135623731,14.6L3.9585786437626904,14.6L2.4,13.04142135623731L2.4,12.04142135623731L1.9,11.54142135623731L1.9,2.4585786437626904L2.9585786437626904,1.4L3.9585786437626904,1.4L4.45857864376269,0.9L8.04142135623731,0.9L9.6,2.4585786437626904L9.6,3.4585786437626904z" stroke="none"/></svg>