<svg version="1.1" width="30" height="15" xmlns="http://www.w3.org/2000/svg"><path d="M24,8.9L24,9.1L21.1,9.1L21.1,9.45857864376269L21.6,9.95857864376269L21.6,10.95857864376269L22.541421356237308,11.9L24,11.9L24,12.1L22.458578643762692,12.1L21.4,11.04142135623731L21.4,10.04142135623731L20.9,9.54142135623731L20.9,9.1L19.5,9.1L19.5,8.9z" stroke="none"/><path d="M10.95857864376269,4.9L12.54142135623731,4.9L13.04142135623731,5.4L14.04142135623731,5.4L14.54142135623731,5.9L18,5.9L18,6.1L14.45857864376269,6.1L13.95857864376269,5.6L12.95857864376269,5.6L12.45857864376269,5.1L11.241421356237309,5.1L13.570710678118655,7.429289321881345L13.429289321881345,7.570710678118655L11,5.141421356237309L9.54142135623731,6.6L8.54142135623731,6.6L7.570710678118655,7.570710678118655L7.429289321881345,7.429289321881345L8.45857864376269,6.4L9.45857864376269,6.4z" stroke="none"/><path d="M13.9,1.9L13.9,1.4585786437626904L14.45857864376269,0.9L15.04142135623731,0.9L15.6,1.4585786437626904L15.6,1.9585786437626904L16.1,2.4585786437626904L16.1,2.9585786437626904L16.6,3.4585786437626904L16.6,4.5L16.4,4.5L16.4,3.5414213562373096L15.9,3.0414213562373096L15.9,2.5414213562373096L15.4,2.0414213562373096L15.4,1.5414213562373096L14.95857864376269,1.1L14.54142135623731,1.1L14.1,1.5414213562373096L14.1,1.9L14.54142135623731,1.9L15.1,2.4585786437626904L15.1,4.5L14.9,4.5L14.9,2.5414213562373096L14.45857864376269,2.1L14.1,2.1L14.1,3.0414213562373096L13.6,3.5414213562373096L13.6,4.5L13.4,4.5L13.4,3.4585786437626904L13.9,2.9585786437626904L13.9,2.1L13.45857864376269,2.1L12.9,1.5414213562373096L12.9,0.9585786437626904L13.45857864376269,0.4L15.54142135623731,0.4L16.541421356237308,1.4L17.541421356237308,1.4L18.041421356237308,1.9L18.541421356237308,1.9L19.570710678118655,2.9292893218813454L19.429289321881345,3.0707106781186546L18.458578643762692,2.1L17.958578643762692,2.1L17.458578643762692,1.6L16.458578643762692,1.6L15.45857864376269,0.6L13.54142135623731,0.6L13.1,1.0414213562373096L13.1,1.4585786437626904L13.54142135623731,1.9z" stroke="none"/><path d="M6.95857864376269,8.9L7.45857864376269,8.4L7.95857864376269,8.4L8.45857864376269,7.9L12.54142135623731,7.9L13.04142135623731,8.4L13.95857864376269,8.4L14.929289321881345,7.429289321881345L15.070710678118655,7.570710678118655L14.04142135623731,8.6L12.95857864376269,8.6L12.45857864376269,8.1L8.54142135623731,8.1L8.04142135623731,8.6L7.54142135623731,8.6L7.141421356237309,9L7.54142135623731,9.4L8.04142135623731,9.4L10.570710678118655,11.929289321881345L10.429289321881345,12.070710678118655L7.95857864376269,9.6L7.45857864376269,9.6L7,9.14142135623731L6.6,9.54142135623731L6.6,10.95857864376269L7.570710678118655,11.929289321881345L7.429289321881345,12.070710678118655L6.4,11.04142135623731L6.4,9.45857864376269L6.75857864376269,9.1L6.04142135623731,9.1L5.04142135623731,10.1L4.54142135623731,10.1L4.04142135623731,10.6L3,10.6L3,10.4L3.9585786437626904,10.4L4.45857864376269,9.9L4.95857864376269,9.9L5.95857864376269,8.9z" stroke="none"/><path d="M26.9,4.5L27.1,4.5L27.1,6L26.9,6z" stroke="none"/><path d="M7.429289321881345,10.570710678118655L7.570710678118655,10.429289321881345L9.070710678118655,11.929289321881345L8.929289321881345,12.070710678118655z" stroke="none"/><path d="M5.929289321881345,3.0707106781186546L6.070710678118655,2.9292893218813454L7.570710678118655,4.429289321881345L7.429289321881345,4.570710678118655z" stroke="none"/><path d="M2.9292893218813454,7.570710678118655L3.0707106781186546,7.429289321881345L4.570710678118655,8.929289321881345L4.429289321881345,9.070710678118655z" stroke="none"/><path d="M25.429289321881345,7.570710678118655L25.570710678118655,7.429289321881345L27.070710678118655,8.929289321881345L26.929289321881345,9.070710678118655z" stroke="none"/><path d="M13.570710678118655,12.070710678118655L13.429289321881345,11.929289321881345L13.95857864376269,11.4L14.45857864376269,11.4L14.95857864376269,10.9L15.45857864376269,10.9L15.95857864376269,10.4L16.5,10.4L16.5,10.6L16.041421356237308,10.6L15.54142135623731,11.1L15.04142135623731,11.1L14.54142135623731,11.6L14.04142135623731,11.6z" stroke="none"/><path d="M6.070710678118655,7.429289321881345L5.929289321881345,7.570710678118655L4.95857864376269,6.6L2.5414213562373096,6.6L2.1,7.04142135623731L2.1,10.95857864376269L2.5414213562373096,11.4L5.04142135623731,11.4L6.54142135623731,12.9L10.95857864376269,12.9L11.4,12.45857864376269L11.4,11.54142135623731L8.929289321881345,9.070710678118655L9.070710678118655,8.929289321881345L11.6,11.45857864376269L11.6,12.54142135623731L11.04142135623731,13.1L6.45857864376269,13.1L4.95857864376269,11.6L2.4585786437626904,11.6L1.9,11.04142135623731L1.9,6.95857864376269L2.4585786437626904,6.4L5.04142135623731,6.4z" stroke="none"/><path d="M9.070710678118655,4.429289321881345L8.929289321881345,4.570710678118655L6.45857864376269,2.1L5.54142135623731,2.1L5.1,2.5414213562373096L5.1,3.5414213562373096L4.6,4.04142135623731L4.6,4.5L4.4,4.5L4.4,3.9585786437626904L4.9,3.4585786437626904L4.9,2.4585786437626904L5.45857864376269,1.9L6.54142135623731,1.9z" stroke="none"/><path d="M27.070710678118655,11.929289321881345L26.929289321881345,12.070710678118655L25.958578643762692,11.1L24.458578643762692,11.1L23.958578643762692,10.6L22.5,10.6L22.5,10.4L24.041421356237308,10.4L24.541421356237308,10.9L26.041421356237308,10.9z" stroke="none"/><path d="M17.929289321881345,3.0707106781186546L18.070710678118655,2.9292893218813454L19.041421356237308,3.9L20.541421356237308,3.9L21.041421356237308,4.4L22.5,4.4L22.5,4.6L20.958578643762692,4.6L20.458578643762692,4.1L18.958578643762692,4.1z" stroke="none"/><path d="M11.929289321881345,2.9292893218813454L12.070710678118655,3.0707106781186546L9.54142135623731,5.6L9.04142135623731,5.6L8.54142135623731,6.1L7.5,6.1L7.5,5.9L8.45857864376269,5.9L8.95857864376269,5.4L9.45857864376269,5.4z" stroke="none"/><path d="M23.9,3L24.1,3L24.1,3.5414213562373096L23.6,4.04142135623731L23.6,5.04142135623731L21.070710678118655,7.570710678118655L20.929289321881345,7.429289321881345L23.4,4.95857864376269L23.4,3.9585786437626904L23.9,3.4585786437626904z" stroke="none"/><path d="M6,5.9L6,6.1L2.0414213562373096,6.1L1.6,6.54142135623731L1.6,11.45857864376269L2.0414213562373096,11.9L4.54142135623731,11.9L6.04142135623731,13.4L11.45857864376269,13.4L11.9,12.95857864376269L11.9,9L12.1,9L12.1,13.04142135623731L11.54142135623731,13.6L5.95857864376269,13.6L4.45857864376269,12.1L1.9585786437626904,12.1L1.4,11.54142135623731L1.4,6.45857864376269L1.9585786437626904,5.9z" stroke="none"/><path d="M25.429289321881345,11.929289321881345L25.570710678118655,12.070710678118655L24.541421356237308,13.1L23.458578643762692,13.1L22.958578643762692,12.6L21.458578643762692,12.6L18.4,9.54142135623731L18.4,8.45857864376269L19.429289321881345,7.429289321881345L19.570710678118655,7.570710678118655L18.6,8.54142135623731L18.6,9.45857864376269L21.541421356237308,12.4L23.041421356237308,12.4L23.541421356237308,12.9L24.458578643762692,12.9z" stroke="none"/><path d="M25.429289321881345,9.070710678118655L25.570710678118655,8.929289321881345L28.1,11.45857864376269L28.1,12.54142135623731L27.541421356237308,13.1L26.041421356237308,13.1L25.541421356237308,13.6L21.958578643762692,13.6L21.458578643762692,13.1L20.958578643762692,13.1L17.9,10.04142135623731L17.9,7.5L18.1,7.5L18.1,9.95857864376269L21.041421356237308,12.9L21.541421356237308,12.9L22.041421356237308,13.4L25.458578643762692,13.4L25.958578643762692,12.9L27.458578643762692,12.9L27.9,12.45857864376269L27.9,11.54142135623731z" stroke="none"/><path d="M24,6.1L24,5.9L25.541421356237308,5.9L28.1,8.45857864376269L28.1,10.45857864376269L28.6,10.95857864376269L28.6,13.04142135623731L28.041421356237308,13.6L26.541421356237308,13.6L26.041421356237308,14.1L21.458578643762692,14.1L20.958578643762692,13.6L20.458578643762692,13.6L17.4,10.54142135623731L17.4,10.04142135623731L16.958578643762692,9.6L15.45857864376269,9.6L14.929289321881345,9.070710678118655L15.070710678118655,8.929289321881345L15.54142135623731,9.4L17.041421356237308,9.4L17.6,9.95857864376269L17.6,10.45857864376269L20.541421356237308,13.4L21.041421356237308,13.4L21.541421356237308,13.9L25.958578643762692,13.9L26.458578643762692,13.4L27.958578643762692,13.4L28.4,12.95857864376269L28.4,11.04142135623731L27.9,10.54142135623731L27.9,8.54142135623731L25.458578643762692,6.1z" stroke="none"/></svg>