<svg version="1.1" width="30" height="15" xmlns="http://www.w3.org/2000/svg"><path d="M9.5,6.858578643762691L10.429289321881345,5.929289321881345L10.570710678118655,6.070710678118655L9.64142135623731,7L10.04142135623731,7.4L10.54142135623731,7.4L12.070710678118655,8.929289321881345L11.929289321881345,9.070710678118655L10.45857864376269,7.6L9.95857864376269,7.6L8.9,6.54142135623731L8.9,6.04142135623731L7.95857864376269,5.1L7.04142135623731,5.1L6.070710678118655,6.070710678118655L5.929289321881345,5.929289321881345L6.95857864376269,4.9L8.04142135623731,4.9L9.1,5.95857864376269L9.1,6.45857864376269z" stroke="none"/><path d="M26.4,7.9L26.4,6.95857864376269L26.9,6.45857864376269L26.9,6L27.1,6L27.1,6.54142135623731L26.6,7.04142135623731L26.6,9.95857864376269L27.070710678118655,10.429289321881345L26.929289321881345,10.570710678118655L26.4,10.04142135623731L26.4,8.1L25.041421356237308,8.1L24.070710678118655,9.070710678118655L23.929289321881345,8.929289321881345L24.958578643762692,7.9z" stroke="none"/><path d="M18.041421356237308,11.9L19.5,11.9L19.5,12.1L18.1,12.1L18.1,12.45857864376269L18.541421356237308,12.9L18.958578643762692,12.9L19.458578643762692,12.4L19.958578643762692,12.4L20.458578643762692,11.9L21,11.9L21,12.1L20.541421356237308,12.1L20.041421356237308,12.6L19.541421356237308,12.6L19.041421356237308,13.1L18.458578643762692,13.1L17.9,12.54142135623731L17.9,12.1L16.958578643762692,12.1L15.95857864376269,11.1L13.54142135623731,11.1L13.04142135623731,11.6L12.54142135623731,11.6L12.070710678118655,12.070710678118655L11.929289321881345,11.929289321881345L12.45857864376269,11.4L12.95857864376269,11.4L13.45857864376269,10.9L16.041421356237308,10.9L17.041421356237308,11.9L17.75857864376269,11.9L16.9,11.04142135623731L16.9,9.95857864376269L17.458578643762692,9.4L20.041421356237308,9.4L21.041421356237308,10.4L22.5,10.4L22.5,10.6L20.958578643762692,10.6L19.958578643762692,9.6L17.541421356237308,9.6L17.1,10.04142135623731L17.1,10.95857864376269z" stroke="none"/><path d="M11.9,5.4L11.9,5.04142135623731L10.95857864376269,4.1L7.54142135623731,4.1L7.04142135623731,4.6L6.54142135623731,4.6L6.04142135623731,5.1L5.54142135623731,5.1L5.1,5.54142135623731L5.1,6.45857864376269L5.54142135623731,6.9L6.54142135623731,6.9L7.04142135623731,7.4L7.5,7.4L7.5,7.6L6.95857864376269,7.6L6.45857864376269,7.1L5.45857864376269,7.1L4.9,6.54142135623731L4.9,5.45857864376269L5.45857864376269,4.9L5.95857864376269,4.9L6.45857864376269,4.4L6.95857864376269,4.4L7.45857864376269,3.9L11.04142135623731,3.9L12.1,4.95857864376269L12.1,5.25857864376269L13.45857864376269,3.9L13.95857864376269,3.9L14.929289321881345,2.9292893218813454L15.070710678118655,3.0707106781186546L14.04142135623731,4.1L13.54142135623731,4.1L12.14142135623731,5.5L12.54142135623731,5.9L13.04142135623731,5.9L13.54142135623731,6.4L14.04142135623731,6.4L14.54142135623731,6.9L15.54142135623731,6.9L16.041421356237308,7.4L18,7.4L18,7.6L15.95857864376269,7.6L15.45857864376269,7.1L14.45857864376269,7.1L13.95857864376269,6.6L13.45857864376269,6.6L12.95857864376269,6.1L12.45857864376269,6.1L11.95857864376269,5.6L11.45857864376269,5.6L10.95857864376269,5.1L9.95857864376269,5.1L9.45857864376269,4.6L9,4.6L9,4.4L9.54142135623731,4.4L10.04142135623731,4.9L11.04142135623731,4.9L11.54142135623731,5.4z" stroke="none"/><path d="M24.070710678118655,4.429289321881345L23.929289321881345,4.570710678118655L22.429289321881345,3.0707106781186546L22.570710678118655,2.9292893218813454z" stroke="none"/><path d="M9.070710678118655,11.929289321881345L8.929289321881345,12.070710678118655L7.429289321881345,10.570710678118655L7.570710678118655,10.429289321881345z" stroke="none"/><path d="M2.9292893218813454,10.570710678118655L3.0707106781186546,10.429289321881345L4.570710678118655,11.929289321881345L4.429289321881345,12.070710678118655z" stroke="none"/><path d="M14.929289321881345,12.070710678118655L15.070710678118655,11.929289321881345L15.54142135623731,12.4L16.041421356237308,12.4L16.541421356237308,12.9L17.541421356237308,12.9L18.041421356237308,13.4L20.958578643762692,13.4L21.9,12.45857864376269L21.9,11.54142135623731L21.458578643762692,11.1L18.458578643762692,11.1L17.929289321881345,10.570710678118655L18.070710678118655,10.429289321881345L18.541421356237308,10.9L21.541421356237308,10.9L22.1,11.45857864376269L22.1,12.54142135623731L21.041421356237308,13.6L17.958578643762692,13.6L17.458578643762692,13.1L16.458578643762692,13.1L15.95857864376269,12.6L15.45857864376269,12.6z" stroke="none"/><path d="M4.4,3L4.6,3L4.6,3.5414213562373096L4.1,4.04142135623731L4.1,4.54142135623731L3.6,5.04142135623731L3.6,5.54142135623731L3.0707106781186546,6.070710678118655L2.9292893218813454,5.929289321881345L3.4,5.45857864376269L3.4,4.95857864376269L3.9,4.45857864376269L3.9,3.9585786437626904L4.4,3.4585786437626904z" stroke="none"/><path d="M24.070710678118655,12.070710678118655L23.929289321881345,11.929289321881345L24.4,11.45857864376269L24.4,10.45857864376269L24.9,9.95857864376269L24.9,9.45857864376269L25.429289321881345,8.929289321881345L25.570710678118655,9.070710678118655L25.1,9.54142135623731L25.1,10.04142135623731L24.6,10.54142135623731L24.6,11.54142135623731z" stroke="none"/><path d="M7.570710678118655,11.929289321881345L7.429289321881345,12.070710678118655L4.429289321881345,9.070710678118655L4.570710678118655,8.929289321881345z" stroke="none"/><path d="M13.5,2.9L13.5,3.1L9,3.1L9,2.9z" stroke="none"/><path d="M24.070710678118655,2.9292893218813454L23.929289321881345,3.0707106781186546L22.958578643762692,2.1L22.041421356237308,2.1L21.6,2.5414213562373096L21.6,5.45857864376269L22.1,5.95857864376269L22.1,6.95857864376269L22.570710678118655,7.429289321881345L22.429289321881345,7.570710678118655L21.9,7.04142135623731L21.9,6.04142135623731L21.4,5.54142135623731L21.4,2.4585786437626904L21.958578643762692,1.9L23.041421356237308,1.9z" stroke="none"/><path d="M6.070710678118655,11.929289321881345L5.929289321881345,12.070710678118655L3.4,9.54142135623731L3.4,8.54142135623731L2.9,8.04142135623731L2.9,7.5L3.1,7.5L3.1,7.95857864376269L3.6,8.45857864376269L3.6,9.45857864376269z" stroke="none"/><path d="M18,4.6L18,4.4L19.458578643762692,4.4L20.9,2.9585786437626904L20.9,1.9585786437626904L21.458578643762692,1.4L24.041421356237308,1.4L25.1,2.4585786437626904L25.1,5.04142135623731L24.070710678118655,6.070710678118655L23.929289321881345,5.929289321881345L24.9,4.95857864376269L24.9,2.5414213562373096L23.958578643762692,1.6L21.541421356237308,1.6L21.1,2.0414213562373096L21.1,3.0414213562373096L19.541421356237308,4.6z" stroke="none"/><path d="M15.070710678118655,6.070710678118655L14.929289321881345,5.929289321881345L15.4,5.45857864376269L15.4,3.9585786437626904L15.9,3.4585786437626904L15.9,2.5414213562373096L15.45857864376269,2.1L8.54142135623731,2.1L7.04142135623731,3.6L6.04142135623731,3.6L4.6,5.04142135623731L4.6,6.95857864376269L6.04142135623731,8.4L7.95857864376269,8.4L8.4,7.95857864376269L8.4,7.04142135623731L7.429289321881345,6.070710678118655L7.570710678118655,5.929289321881345L8.6,6.95857864376269L8.6,8.04142135623731L8.04142135623731,8.6L5.95857864376269,8.6L4.4,7.04142135623731L4.4,4.95857864376269L5.95857864376269,3.4L6.95857864376269,3.4L8.45857864376269,1.9L15.54142135623731,1.9L16.1,2.4585786437626904L16.1,3.5414213562373096L15.6,4.04142135623731L15.6,5.54142135623731z" stroke="none"/><path d="M8.9,9L9.1,9L9.1,9.95857864376269L10.6,11.45857864376269L10.6,11.95857864376269L11.54142135623731,12.9L15.54142135623731,12.9L16.041421356237308,13.4L16.541421356237308,13.4L17.041421356237308,13.9L21.458578643762692,13.9L22.4,12.95857864376269L22.4,11.95857864376269L23.4,10.95857864376269L23.4,10.04142135623731L22.958578643762692,9.6L20.958578643762692,9.6L20.458578643762692,9.1L16.5,9.1L16.5,8.9L20.541421356237308,8.9L21.041421356237308,9.4L23.041421356237308,9.4L23.6,9.95857864376269L23.6,11.04142135623731L22.6,12.04142135623731L22.6,13.04142135623731L21.541421356237308,14.1L16.958578643762692,14.1L16.458578643762692,13.6L15.95857864376269,13.6L15.45857864376269,13.1L11.45857864376269,13.1L10.4,12.04142135623731L10.4,11.54142135623731L8.9,10.04142135623731z" stroke="none"/><path d="M19.570710678118655,3.0707106781186546L19.429289321881345,2.9292893218813454L20.4,1.9585786437626904L20.4,1.4585786437626904L20.958578643762692,0.9L24.541421356237308,0.9L26.041421356237308,2.4L26.541421356237308,2.4L27.070710678118655,2.9292893218813454L26.929289321881345,3.0707106781186546L26.458578643762692,2.6L25.958578643762692,2.6L24.458578643762692,1.1L21.041421356237308,1.1L20.6,1.5414213562373096L20.6,2.0414213562373096z" stroke="none"/><path d="M25.570710678118655,6.070710678118655L25.429289321881345,5.929289321881345L27.9,3.4585786437626904L27.9,2.5414213562373096L26.458578643762692,1.1L25.958578643762692,1.1L25.458578643762692,0.6L20.541421356237308,0.6L18.070710678118655,3.0707106781186546L17.929289321881345,2.9292893218813454L20.458578643762692,0.4L25.541421356237308,0.4L26.041421356237308,0.9L26.541421356237308,0.9L28.1,2.4585786437626904L28.1,3.5414213562373096z" stroke="none"/><path d="M23.929289321881345,7.429289321881345L24.070710678118655,7.570710678118655L23.041421356237308,8.6L17.458578643762692,8.6L16.958578643762692,8.1L16.041421356237308,8.1L15.04142135623731,9.1L14.54142135623731,9.1L13.54142135623731,10.1L13.04142135623731,10.1L12.54142135623731,10.6L12,10.6L12,10.4L12.45857864376269,10.4L12.95857864376269,9.9L13.45857864376269,9.9L14.45857864376269,8.9L14.95857864376269,8.9L15.95857864376269,7.9L17.041421356237308,7.9L17.541421356237308,8.4L22.958578643762692,8.4z" stroke="none"/></svg>