<svg version="1.1" width="30" height="15" xmlns="http://www.w3.org/2000/svg"><path d="M15.9,2.4585786437626904L16.458578643762692,1.9L17.041421356237308,1.9L19.570710678118655,4.429289321881345L19.429289321881345,4.570710678118655L16.958578643762692,2.1L16.541421356237308,2.1L16.1,2.5414213562373096L16.1,2.9L16.541421356237308,2.9L17.1,3.4585786437626904L17.1,3.9585786437626904L17.6,4.45857864376269L17.6,4.95857864376269L18.1,5.45857864376269L18.1,6L17.9,6L17.9,5.54142135623731L17.4,5.04142135623731L17.4,4.54142135623731L16.9,4.04142135623731L16.9,3.5414213562373096L16.458578643762692,3.1L16.1,3.1L16.1,3.9585786437626904L16.570710678118655,4.429289321881345L16.429289321881345,4.570710678118655L15.9,4.04142135623731z" stroke="none"/><path d="M5.45857864376269,7.4L5.95857864376269,7.4L6.95857864376269,6.4L11.04142135623731,6.4L12.070710678118655,7.429289321881345L11.929289321881345,7.570710678118655L10.95857864376269,6.6L7.04142135623731,6.6L6.04142135623731,7.6L5.54142135623731,7.6L5.1,8.04142135623731L5.1,10.95857864376269L6.070710678118655,11.929289321881345L5.929289321881345,12.070710678118655L4.9,11.04142135623731L4.9,8.241421356237309L4.6,8.54142135623731L4.6,9.04142135623731L3.0707106781186546,10.570710678118655L2.9292893218813454,10.429289321881345L4.4,8.95857864376269L4.4,8.45857864376269z" stroke="none"/><path d="M9.9,1.9585786437626904L10.45857864376269,1.4L13.04142135623731,1.4L14.1,2.4585786437626904L14.1,7.04142135623731L13.570710678118655,7.570710678118655L13.429289321881345,7.429289321881345L13.9,6.95857864376269L13.9,2.5414213562373096L12.95857864376269,1.6L10.54142135623731,1.6L10.1,2.0414213562373096L10.1,2.7585786437626902L10.45857864376269,2.4L10.95857864376269,2.4L11.45857864376269,1.9L12.54142135623731,1.9L13.570710678118655,2.9292893218813454L13.429289321881345,3.0707106781186546L12.45857864376269,2.1L11.54142135623731,2.1L11.04142135623731,2.6L10.54142135623731,2.6L10.241421356237309,2.9L10.54142135623731,2.9L11.1,3.4585786437626904L11.1,4.95857864376269L13.1,6.95857864376269L13.1,8.04142135623731L12.54142135623731,8.6L11.45857864376269,8.6L10.429289321881345,7.570710678118655L10.570710678118655,7.429289321881345L11.54142135623731,8.4L12.45857864376269,8.4L12.9,7.95857864376269L12.9,7.04142135623731L10.9,5.04142135623731L10.9,3.5414213562373096L10.45857864376269,3.1L10.1,3.1L10.1,3.9585786437626904L10.570710678118655,4.429289321881345L10.429289321881345,4.570710678118655L9.9,4.04142135623731z" stroke="none"/><path d="M18.458578643762692,8.4L19.429289321881345,7.429289321881345L19.570710678118655,7.570710678118655L18.541421356237308,8.6L17.24142135623731,8.6L17.6,8.95857864376269L17.6,9.95857864376269L18.070710678118655,10.429289321881345L17.929289321881345,10.570710678118655L17.4,10.04142135623731L17.4,9.04142135623731L17.1,8.741421356237309L17.1,10.45857864376269L17.6,10.95857864376269L17.6,11.45857864376269L18.070710678118655,11.929289321881345L17.929289321881345,12.070710678118655L17.4,11.54142135623731L17.4,11.04142135623731L16.9,10.54142135623731L16.9,8.6L16.541421356237308,8.6L16.1,9.04142135623731L16.1,10.95857864376269L17.541421356237308,12.4L20.041421356237308,12.4L20.541421356237308,12.9L22.958578643762692,12.9L23.929289321881345,11.929289321881345L24.070710678118655,12.070710678118655L23.041421356237308,13.1L20.458578643762692,13.1L19.958578643762692,12.6L17.458578643762692,12.6L15.9,11.04142135623731L15.9,8.95857864376269L16.458578643762692,8.4z" stroke="none"/><path d="M24,4.6L24,4.4L25.5,4.4L25.5,4.6z" stroke="none"/><path d="M7.5,7.6L7.5,7.4L9,7.4L9,7.6z" stroke="none"/><path d="M27.1,7.5L26.9,7.5L26.9,6L27.1,6z" stroke="none"/><path d="M11.9,3L12.1,3L12.1,4.5L11.9,4.5z" stroke="none"/><path d="M27.070710678118655,4.429289321881345L26.929289321881345,4.570710678118655L25.429289321881345,3.0707106781186546L25.570710678118655,2.9292893218813454z" stroke="none"/><path d="M4.570710678118655,6.070710678118655L4.429289321881345,5.929289321881345L5.929289321881345,4.429289321881345L6.070710678118655,4.570710678118655z" stroke="none"/><path d="M15.070710678118655,10.429289321881345L14.929289321881345,10.570710678118655L13.95857864376269,9.6L13.04142135623731,9.6L12.070710678118655,10.570710678118655L11.929289321881345,10.429289321881345L12.95857864376269,9.4L14.04142135623731,9.4z" stroke="none"/><path d="M5.929289321881345,10.570710678118655L6.070710678118655,10.429289321881345L7.1,11.45857864376269L7.1,12.54142135623731L6.54142135623731,13.1L5.45857864376269,13.1L4.95857864376269,12.6L3.9585786437626904,12.6L3.4585786437626904,12.1L3,12.1L3,11.9L3.5414213562373096,11.9L4.04142135623731,12.4L5.04142135623731,12.4L5.54142135623731,12.9L6.45857864376269,12.9L6.9,12.45857864376269L6.9,11.54142135623731z" stroke="none"/><path d="M18.070710678118655,7.429289321881345L17.929289321881345,7.570710678118655L15.4,5.04142135623731L15.4,1.9585786437626904L15.95857864376269,1.4L17.541421356237308,1.4L19.541421356237308,3.4L20.041421356237308,3.4L20.6,3.9585786437626904L20.6,5.45857864376269L21.070710678118655,5.929289321881345L20.929289321881345,6.070710678118655L20.4,5.54142135623731L20.4,4.04142135623731L19.958578643762692,3.6L19.458578643762692,3.6L17.458578643762692,1.6L16.041421356237308,1.6L15.6,2.0414213562373096L15.6,4.95857864376269z" stroke="none"/><path d="M3.0707106781186546,7.570710678118655L2.9292893218813454,7.429289321881345L3.4,6.95857864376269L3.4,5.45857864376269L4.429289321881345,4.429289321881345L4.570710678118655,4.570710678118655L3.6,5.54142135623731L3.6,7.04142135623731z" stroke="none"/><path d="M10.5,12.1L10.5,11.9L11.45857864376269,11.9L11.95857864376269,11.4L12.45857864376269,11.4L13.429289321881345,10.429289321881345L13.570710678118655,10.570710678118655L12.54142135623731,11.6L12.04142135623731,11.6L11.54142135623731,12.1z" stroke="none"/><path d="M9.070710678118655,11.929289321881345L8.929289321881345,12.070710678118655L5.929289321881345,9.070710678118655L6.070710678118655,8.929289321881345z" stroke="none"/><path d="M25.4,6L25.6,6L25.6,6.54142135623731L25.1,7.04142135623731L25.1,8.04142135623731L24.1,9.04142135623731L24.1,10.5L23.9,10.5L23.9,8.95857864376269L24.9,7.95857864376269L24.9,6.95857864376269L25.4,6.45857864376269z" stroke="none"/><path d="M22.6,12L22.4,12L22.4,9.95857864376269L22.9,9.45857864376269L22.9,8.95857864376269L23.4,8.45857864376269L23.4,7.95857864376269L23.929289321881345,7.429289321881345L24.070710678118655,7.570710678118655L23.6,8.04142135623731L23.6,8.54142135623731L23.1,9.04142135623731L23.1,9.54142135623731L22.6,10.04142135623731z" stroke="none"/><path d="M10.5,9.1L10.5,8.9L13.45857864376269,8.9L14.4,7.95857864376269L14.4,6.45857864376269L14.9,5.95857864376269L14.9,1.4585786437626904L15.45857864376269,0.9L18.041421356237308,0.9L19.041421356237308,1.9L19.541421356237308,1.9L21.1,3.4585786437626904L21.1,3.9585786437626904L22.1,4.95857864376269L22.1,6.54142135623731L21.541421356237308,7.1L20.458578643762692,7.1L19.429289321881345,6.070710678118655L19.570710678118655,5.929289321881345L20.541421356237308,6.9L21.458578643762692,6.9L21.9,6.45857864376269L21.9,5.04142135623731L20.9,4.04142135623731L20.9,3.5414213562373096L19.458578643762692,2.1L18.958578643762692,2.1L17.958578643762692,1.1L15.54142135623731,1.1L15.1,1.5414213562373096L15.1,6.04142135623731L14.6,6.54142135623731L14.6,8.04142135623731L13.54142135623731,9.1z" stroke="none"/><path d="M25.4,10.5L25.6,10.5L25.6,12.04142135623731L24.041421356237308,13.6L15.95857864376269,13.6L15.45857864376269,13.1L14.95857864376269,13.1L14.45857864376269,12.6L13.95857864376269,12.6L13.429289321881345,12.070710678118655L13.570710678118655,11.929289321881345L14.04142135623731,12.4L14.54142135623731,12.4L15.04142135623731,12.9L15.54142135623731,12.9L16.041421356237308,13.4L23.958578643762692,13.4L25.4,11.95857864376269z" stroke="none"/></svg>