<svg version="1.1" width="30" height="15" xmlns="http://www.w3.org/2000/svg"><path d="M24,2.9L24,3.1L19.6,3.1L19.6,4.5L19.4,4.5L19.4,3.1L15,3.1L15,2.9z" stroke="none"/><path d="M22.958578643762692,6.4L23.4,5.95857864376269L23.4,4.95857864376269L23.929289321881345,4.429289321881345L24.070710678118655,4.570710678118655L23.6,5.04142135623731L23.6,6.04142135623731L23.24142135623731,6.4L23.541421356237308,6.4L24.041421356237308,6.9L24.541421356237308,6.9L25.041421356237308,7.4L25.5,7.4L25.5,7.6L24.958578643762692,7.6L24.458578643762692,7.1L23.958578643762692,7.1L23.458578643762692,6.6L22.041421356237308,6.6L21.541421356237308,7.1L20.041421356237308,7.1L19.570710678118655,7.570710678118655L19.429289321881345,7.429289321881345L19.958578643762692,6.9L21.458578643762692,6.9L21.958578643762692,6.4z" stroke="none"/><path d="M11.9,7.4L11.9,7.04142135623731L11.45857864376269,6.6L8.54142135623731,6.6L8.04142135623731,7.1L7.04142135623731,7.1L6.54142135623731,7.6L6,7.6L6,7.4L6.45857864376269,7.4L6.95857864376269,6.9L7.95857864376269,6.9L8.45857864376269,6.4L11.54142135623731,6.4L12.1,6.95857864376269L12.1,7.4L13.45857864376269,7.4L14.95857864376269,5.9L16.5,5.9L16.5,6.1L15.04142135623731,6.1L13.54142135623731,7.6L12.1,7.6L12.1,9L11.9,9L11.9,7.6L10.5,7.6L10.5,7.4z" stroke="none"/><path d="M20.9,8.9L20.9,8.45857864376269L22.458578643762692,6.9L23.041421356237308,6.9L23.6,7.45857864376269L23.6,8.04142135623731L23.041421356237308,8.6L18.958578643762692,8.6L18.458578643762692,8.1L16.958578643762692,8.1L16.429289321881345,7.570710678118655L16.570710678118655,7.429289321881345L17.041421356237308,7.9L18.541421356237308,7.9L19.041421356237308,8.4L22.958578643762692,8.4L23.4,7.95857864376269L23.4,7.54142135623731L22.958578643762692,7.1L22.541421356237308,7.1L21.1,8.54142135623731L21.1,8.9L25.5,8.9L25.5,9.1L21.1,9.1L21.1,10.5L20.9,10.5L20.9,9.1L20.541421356237308,9.1L20.1,9.54142135623731L20.1,9.95857864376269L20.6,10.45857864376269L20.6,10.95857864376269L21.1,11.45857864376269L21.1,12L20.9,12L20.9,11.54142135623731L20.4,11.04142135623731L20.4,10.54142135623731L19.9,10.04142135623731L19.9,9.45857864376269L20.458578643762692,8.9z" stroke="none"/><path d="M9,8.9L9,9.1L7.5,9.1L7.5,8.9z" stroke="none"/><path d="M20.9,4.5L21.1,4.5L21.1,6L20.9,6z" stroke="none"/><path d="M25.570710678118655,4.570710678118655L25.429289321881345,4.429289321881345L26.929289321881345,2.9292893218813454L27.070710678118655,3.0707106781186546z" stroke="none"/><path d="M12.070710678118655,4.429289321881345L11.929289321881345,4.570710678118655L10.429289321881345,3.0707106781186546L10.570710678118655,2.9292893218813454z" stroke="none"/><path d="M13.6,6L13.4,6L13.4,3L13.6,3z" stroke="none"/><path d="M27.1,6L26.9,6L26.9,4.45857864376269L27.9,3.4585786437626904L27.9,2.5414213562373096L27.458578643762692,2.1L26.541421356237308,2.1L25.570710678118655,3.0707106781186546L25.429289321881345,2.9292893218813454L26.458578643762692,1.9L27.541421356237308,1.9L28.1,2.4585786437626904L28.1,3.5414213562373096L27.1,4.54142135623731z" stroke="none"/><path d="M5.929289321881345,5.929289321881345L6.070710678118655,6.070710678118655L5.1,7.04142135623731L5.1,7.95857864376269L5.54142135623731,8.4L6.45857864376269,8.4L6.95857864376269,7.9L7.95857864376269,7.9L8.45857864376269,7.4L9,7.4L9,7.6L8.54142135623731,7.6L8.04142135623731,8.1L7.04142135623731,8.1L6.54142135623731,8.6L5.45857864376269,8.6L4.9,8.04142135623731L4.9,6.95857864376269z" stroke="none"/><path d="M5.929289321881345,10.429289321881345L6.070710678118655,10.570710678118655L5.54142135623731,11.1L4.54142135623731,11.1L3.5414213562373096,12.1L3,12.1L3,11.9L3.4585786437626904,11.9L4.45857864376269,10.9L5.45857864376269,10.9z" stroke="none"/><path d="M7.570710678118655,5.929289321881345L7.429289321881345,6.070710678118655L6.45857864376269,5.1L5.54142135623731,5.1L5.1,5.54142135623731L5.1,6.04142135623731L4.6,6.54142135623731L4.6,8.45857864376269L5.04142135623731,8.9L6.04142135623731,8.9L7.04142135623731,9.9L8.04142135623731,9.9L8.54142135623731,10.4L9,10.4L9,10.6L8.45857864376269,10.6L7.95857864376269,10.1L6.95857864376269,10.1L5.95857864376269,9.1L4.95857864376269,9.1L4.4,8.54142135623731L4.4,6.45857864376269L4.9,5.95857864376269L4.9,5.45857864376269L5.45857864376269,4.9L6.54142135623731,4.9z" stroke="none"/><path d="M4.5,4.6L4.5,4.4L10.5,4.4L10.5,4.6z" stroke="none"/><path d="M6,12.1L6,11.9L12,11.9L12,12.1z" stroke="none"/><path d="M4.5,3.1L4.5,2.9L8.45857864376269,2.9L8.95857864376269,2.4L9.45857864376269,2.4L9.95857864376269,1.9L11.04142135623731,1.9L12.070710678118655,2.9292893218813454L11.929289321881345,3.0707106781186546L10.95857864376269,2.1L10.04142135623731,2.1L9.54142135623731,2.6L9.04142135623731,2.6L8.54142135623731,3.1z" stroke="none"/><path d="M25.5,10.4L25.5,10.6L24.541421356237308,10.6L24.041421356237308,11.1L23.541421356237308,11.1L21.541421356237308,13.1L20.458578643762692,13.1L19.9,12.54142135623731L19.9,12.04142135623731L19.4,11.54142135623731L19.4,10.54142135623731L17.929289321881345,9.070710678118655L18.070710678118655,8.929289321881345L19.6,10.45857864376269L19.6,11.45857864376269L20.1,11.95857864376269L20.1,12.45857864376269L20.541421356237308,12.9L21.458578643762692,12.9L23.458578643762692,10.9L23.958578643762692,10.9L24.458578643762692,10.4z" stroke="none"/><path d="M16.429289321881345,10.570710678118655L16.570710678118655,10.429289321881345L19.041421356237308,12.9L19.541421356237308,12.9L20.041421356237308,13.4L21.958578643762692,13.4L23.458578643762692,11.9L24,11.9L24,12.1L23.541421356237308,12.1L22.041421356237308,13.6L19.958578643762692,13.6L19.458578643762692,13.1L18.958578643762692,13.1z" stroke="none"/><path d="M16.5,12.1L16.5,11.9L17.041421356237308,11.9L18.541421356237308,13.4L19.041421356237308,13.4L19.541421356237308,13.9L24.458578643762692,13.9L26.458578643762692,11.9L27,11.9L27,12.1L26.541421356237308,12.1L24.541421356237308,14.1L19.458578643762692,14.1L18.958578643762692,13.6L18.458578643762692,13.6L16.958578643762692,12.1z" stroke="none"/><path d="M25.429289321881345,6.070710678118655L25.570710678118655,5.929289321881345L26.6,6.95857864376269L26.6,8.95857864376269L27.6,9.95857864376269L27.6,10.45857864376269L28.1,10.95857864376269L28.1,12.54142135623731L27.541421356237308,13.1L27.041421356237308,13.1L25.541421356237308,14.6L18.458578643762692,14.6L17.958578643762692,14.1L17.458578643762692,14.1L16.458578643762692,13.1L15.95857864376269,13.1L15.4,12.54142135623731L15.4,11.54142135623731L13.9,10.04142135623731L13.9,9.54142135623731L13.429289321881345,9.070710678118655L13.570710678118655,8.929289321881345L14.1,9.45857864376269L14.1,9.95857864376269L15.6,11.45857864376269L15.6,12.45857864376269L16.041421356237308,12.9L16.541421356237308,12.9L17.541421356237308,13.9L18.041421356237308,13.9L18.541421356237308,14.4L25.458578643762692,14.4L26.958578643762692,12.9L27.458578643762692,12.9L27.9,12.45857864376269L27.9,11.04142135623731L27.4,10.54142135623731L27.4,10.04142135623731L26.4,9.04142135623731L26.4,7.04142135623731z" stroke="none"/></svg>