<svg version="1.1" width="30" height="15" xmlns="http://www.w3.org/2000/svg"><path d="M23.541421356237308,9.4L24.1,9.95857864376269L24.1,10.45857864376269L25.570710678118655,11.929289321881345L25.429289321881345,12.070710678118655L23.9,10.54142135623731L23.9,10.04142135623731L23.5,9.64142135623731L22.570710678118655,10.570710678118655L22.429289321881345,10.429289321881345L23.25857864376269,9.6L21.958578643762692,9.6L21.458578643762692,9.1L20.958578643762692,9.1L19.429289321881345,7.570710678118655L19.570710678118655,7.429289321881345L21.041421356237308,8.9L21.541421356237308,8.9L22.041421356237308,9.4z" stroke="none"/><path d="M14.9,9.9L14.9,9.54142135623731L14.4,9.04142135623731L14.4,8.54142135623731L13.95857864376269,8.1L13.45857864376269,8.1L12.95857864376269,7.6L12,7.6L12,7.4L13.04142135623731,7.4L13.54142135623731,7.9L14.04142135623731,7.9L14.6,8.45857864376269L14.6,8.95857864376269L15.1,9.45857864376269L15.1,12L14.9,12L14.9,10.1L14.54142135623731,10.1L14.04142135623731,10.6L13.5,10.6L13.5,10.4L13.95857864376269,10.4L14.45857864376269,9.9z" stroke="none"/><path d="M1.9,8.54142135623731L1.9,7.45857864376269L2.4,6.95857864376269L2.4,6.45857864376269L2.9292893218813454,5.929289321881345L3.0707106781186546,6.070710678118655L2.6,6.54142135623731L2.6,7.04142135623731L2.1,7.54142135623731L2.1,8.258578643762691L2.9292893218813454,7.429289321881345L3.0707106781186546,7.570710678118655L2.2414213562373098,8.4L2.9585786437626904,8.4L3.9,7.45857864376269L3.9,6.95857864376269L4.4,6.45857864376269L4.4,6L4.6,6L4.6,6.54142135623731L4.1,7.04142135623731L4.1,7.54142135623731L3.0414213562373096,8.6L2.2414213562373098,8.6L2.6,8.95857864376269L2.6,9.45857864376269L3.1,9.95857864376269L3.1,10.5L2.9,10.5L2.9,10.04142135623731L2.4,9.54142135623731L2.4,9.04142135623731z" stroke="none"/><path d="M20.541421356237308,10.4L21.041421356237308,10.4L22.041421356237308,11.4L22.541421356237308,11.4L23.041421356237308,11.9L24,11.9L24,12.1L22.958578643762692,12.1L22.458578643762692,11.6L21.958578643762692,11.6L20.958578643762692,10.6L20.6,10.6L20.6,11.45857864376269L21.070710678118655,11.929289321881345L20.929289321881345,12.070710678118655L20.4,11.54142135623731L20.4,10.6L16.5,10.6L16.5,10.4L20.25857864376269,10.4L19.9,10.04142135623731L19.9,9.54142135623731L18.4,8.04142135623731L18.4,6.95857864376269L18.958578643762692,6.4L20.041421356237308,6.4L21.070710678118655,7.429289321881345L20.929289321881345,7.570710678118655L19.958578643762692,6.6L19.041421356237308,6.6L18.6,7.04142135623731L18.6,7.95857864376269L20.1,9.45857864376269L20.1,9.95857864376269z" stroke="none"/><path d="M15.1,7.5L14.9,7.5L14.9,6L15.1,6z" stroke="none"/><path d="M7.6,12L7.4,12L7.4,10.5L7.6,10.5z" stroke="none"/><path d="M3.0707106781186546,12.070710678118655L2.9292893218813454,11.929289321881345L4.429289321881345,10.429289321881345L4.570710678118655,10.570710678118655z" stroke="none"/><path d="M18.070710678118655,4.429289321881345L17.929289321881345,4.570710678118655L16.429289321881345,3.0707106781186546L16.570710678118655,2.9292893218813454z" stroke="none"/><path d="M5.9,7.5L6.1,7.5L6.1,10.5L5.9,10.5z" stroke="none"/><path d="M8.929289321881345,2.9292893218813454L9.070710678118655,3.0707106781186546L8.6,3.5414213562373096L8.6,5.04142135623731L7.570710678118655,6.070710678118655L7.429289321881345,5.929289321881345L8.4,4.95857864376269L8.4,3.4585786437626904z" stroke="none"/><path d="M13.429289321881345,8.929289321881345L13.570710678118655,9.070710678118655L12.6,10.04142135623731L12.6,10.95857864376269L14.54142135623731,12.9L15.45857864376269,12.9L15.9,12.45857864376269L15.9,11.54142135623731L15.4,11.04142135623731L15.4,8.95857864376269L16.4,7.95857864376269L16.4,7.5L16.6,7.5L16.6,8.04142135623731L15.6,9.04142135623731L15.6,10.95857864376269L16.1,11.45857864376269L16.1,12.54142135623731L15.54142135623731,13.1L14.45857864376269,13.1L12.4,11.04142135623731L12.4,9.95857864376269z" stroke="none"/><path d="M8.929289321881345,6.070710678118655L9.070710678118655,5.929289321881345L10.04142135623731,6.9L10.95857864376269,6.9L11.45857864376269,6.4L12.45857864376269,6.4L12.95857864376269,5.9L13.5,5.9L13.5,6.1L13.04142135623731,6.1L12.54142135623731,6.6L11.54142135623731,6.6L11.04142135623731,7.1L9.95857864376269,7.1z" stroke="none"/><path d="M7.429289321881345,4.429289321881345L7.570710678118655,4.570710678118655L6.54142135623731,5.6L5.45857864376269,5.6L4.95857864376269,5.1L4.45857864376269,5.1L3.9585786437626904,4.6L3,4.6L3,4.4L4.04142135623731,4.4L4.54142135623731,4.9L5.04142135623731,4.9L5.54142135623731,5.4L6.45857864376269,5.4z" stroke="none"/><path d="M20.929289321881345,2.9292893218813454L21.070710678118655,3.0707106781186546L18.541421356237308,5.6L18.041421356237308,5.6L17.541421356237308,6.1L16.5,6.1L16.5,5.9L17.458578643762692,5.9L17.958578643762692,5.4L18.458578643762692,5.4z" stroke="none"/><path d="M19.429289321881345,12.070710678118655L19.570710678118655,11.929289321881345L20.541421356237308,12.9L25.958578643762692,12.9L26.4,12.45857864376269L26.4,11.54142135623731L22.429289321881345,7.570710678118655L22.570710678118655,7.429289321881345L26.6,11.45857864376269L26.6,12.54142135623731L26.041421356237308,13.1L20.458578643762692,13.1z" stroke="none"/><path d="M10.4,9L10.6,9L10.6,9.54142135623731L10.1,10.04142135623731L10.1,10.54142135623731L8.6,12.04142135623731L8.6,12.54142135623731L8.04142135623731,13.1L2.4585786437626904,13.1L1.9,12.54142135623731L1.9,9.54142135623731L1.4,9.04142135623731L1.4,5.45857864376269L1.9,4.95857864376269L1.9,3.9585786437626904L2.4585786437626904,3.4L4.54142135623731,3.4L5.54142135623731,4.4L6,4.4L6,4.6L5.45857864376269,4.6L4.45857864376269,3.6L2.5414213562373096,3.6L2.1,4.04142135623731L2.1,5.04142135623731L1.6,5.54142135623731L1.6,8.95857864376269L2.1,9.45857864376269L2.1,12.45857864376269L2.5414213562373096,12.9L7.95857864376269,12.9L8.4,12.45857864376269L8.4,11.95857864376269L9.9,10.45857864376269L9.9,9.95857864376269L10.4,9.45857864376269z" stroke="none"/><path d="M18.070710678118655,2.9292893218813454L17.929289321881345,3.0707106781186546L16.958578643762692,2.1L16.041421356237308,2.1L12.54142135623731,5.6L11.04142135623731,5.6L10.570710678118655,6.070710678118655L10.429289321881345,5.929289321881345L10.95857864376269,5.4L12.45857864376269,5.4L15.95857864376269,1.9L17.041421356237308,1.9z" stroke="none"/><path d="M27,4.4L27,4.6L24.541421356237308,4.6L24.041421356237308,5.1L23.541421356237308,5.1L23.041421356237308,5.6L21.541421356237308,5.6L21.041421356237308,6.1L18.541421356237308,6.1L18.1,6.54142135623731L18.1,9L17.9,9L17.9,6.45857864376269L18.458578643762692,5.9L20.958578643762692,5.9L21.458578643762692,5.4L22.958578643762692,5.4L23.458578643762692,4.9L23.958578643762692,4.9L24.458578643762692,4.4z" stroke="none"/><path d="M7.5,7.6L7.5,7.4L10.04142135623731,7.4L10.54142135623731,7.9L11.04142135623731,7.9L11.6,8.45857864376269L11.6,10.95857864376269L14.04142135623731,13.4L15.95857864376269,13.4L17.458578643762692,11.9L18,11.9L18,12.1L17.541421356237308,12.1L16.041421356237308,13.6L13.95857864376269,13.6L11.4,11.04142135623731L11.4,8.54142135623731L10.95857864376269,8.1L10.45857864376269,8.1L9.95857864376269,7.6z" stroke="none"/><path d="M24,2.9L24,3.1L23.458578643762692,3.1L22.958578643762692,2.6L21.958578643762692,2.6L21.458578643762692,2.1L18.958578643762692,2.1L18.458578643762692,1.6L15.54142135623731,1.6L12.54142135623731,4.6L12,4.6L12,4.4L12.45857864376269,4.4L15.45857864376269,1.4L18.541421356237308,1.4L19.041421356237308,1.9L21.541421356237308,1.9L22.041421356237308,2.4L23.041421356237308,2.4L23.541421356237308,2.9z" stroke="none"/></svg>