<svg version="1.1" width="105" height="15" xmlns="http://www.w3.org/2000/svg"><path d="M87.90714285714284,9.807142857142857L87.90714285714284,10.235714285714284L88.12142857142855,10.235714285714284L88.12142857142855,10.45L88.54999999999998,10.45L88.54999999999998,12L88.44999999999999,12L88.44999999999999,10.55L88.02142857142856,10.55L88.02142857142856,10.335714285714285L87.80714285714285,10.335714285714285L87.80714285714285,9.907142857142858L86.40714285714284,9.907142857142858L86.40714285714284,10.021428571428569L87.04999999999998,10.021428571428569L87.04999999999998,10.235714285714284L87.2642857142857,10.235714285714284L87.2642857142857,10.45L87.47857142857141,10.45L87.47857142857141,10.664285714285715L87.69285714285714,10.664285714285715L87.69285714285714,10.878571428571426L87.90714285714284,10.878571428571426L87.90714285714284,11.307142857142857L88.12142857142855,11.307142857142857L88.12142857142855,11.735714285714284L88.33571428571427,11.735714285714284L88.33571428571427,12.164285714285715L98.73571428571428,12.164285714285715L98.73571428571428,11.95L98.99999999999999,11.95L98.99999999999999,12.05L98.83571428571427,12.05L98.83571428571427,12.264285714285716L88.23571428571428,12.264285714285716L88.23571428571428,11.835714285714285L88.02142857142856,11.835714285714285L88.02142857142856,11.407142857142858L87.80714285714285,11.407142857142858L87.80714285714285,10.978571428571428L87.59285714285714,10.978571428571428L87.59285714285714,10.764285714285716L87.37857142857142,10.764285714285716L87.37857142857142,10.55L87.16428571428571,10.55L87.16428571428571,10.335714285714285L86.94999999999999,10.335714285714285L86.94999999999999,10.12142857142857L86.30714285714285,10.12142857142857L86.30714285714285,9.907142857142858L78.47857142857141,9.907142857142858L78.47857142857141,10.12142857142857L78.2642857142857,10.12142857142857L78.2642857142857,10.335714285714285L78.04999999999998,10.335714285714285L78.04999999999998,12L77.94999999999999,12L77.94999999999999,10.235714285714284L78.16428571428571,10.235714285714284L78.16428571428571,10.021428571428569L78.37857142857142,10.021428571428569L78.37857142857142,9.807142857142857z" stroke="none"/><path d="M16.335714285714285,1.6642857142857144L16.335714285714285,1.8785714285714286L16.978571428571428,1.8785714285714286L16.978571428571428,2.3071428571428574L17.192857142857143,2.3071428571428574L17.192857142857143,2.521428571428572L18.478571428571428,2.521428571428572L18.478571428571428,2.7357142857142858L18.90714285714286,2.7357142857142858L18.90714285714286,2.95L19.5,2.95L19.5,3.05L18.807142857142857,3.05L18.807142857142857,2.8357142857142854L18.378571428571426,2.8357142857142854L18.378571428571426,2.6214285714285714L17.09285714285714,2.6214285714285714L17.09285714285714,2.407142857142857L16.878571428571426,2.407142857142857L16.878571428571426,1.9785714285714286L16.235714285714284,1.9785714285714286L16.235714285714284,1.7642857142857145L15.907142857142858,1.7642857142857145L15.907142857142858,1.8785714285714286L16.12142857142857,1.8785714285714286L16.12142857142857,2.092857142857143L16.764285714285716,2.092857142857143L16.764285714285716,2.521428571428572L16.978571428571428,2.521428571428572L16.978571428571428,2.7357142857142858L18.264285714285716,2.7357142857142858L18.264285714285716,2.95L18.692857142857143,2.95L18.692857142857143,3.1642857142857146L24.90714285714286,3.1642857142857146L24.90714285714286,3.3785714285714286L26.40714285714286,3.3785714285714286L26.40714285714286,4.021428571428571L26.62142857142857,4.021428571428571L26.62142857142857,4.235714285714286L27.05,4.235714285714286L27.05,4.878571428571429L28.335714285714285,4.878571428571429L28.335714285714285,5.307142857142857L29.192857142857143,5.307142857142857L29.192857142857143,5.735714285714286L29.835714285714285,5.735714285714286L29.835714285714285,5.95L30,5.95L30,6.05L29.735714285714284,6.05L29.735714285714284,5.835714285714285L29.09285714285714,5.835714285714285L29.09285714285714,5.407142857142857L28.235714285714284,5.407142857142857L28.235714285714284,4.978571428571429L26.95,4.978571428571429L26.95,4.335714285714285L26.52142857142857,4.335714285714285L26.52142857142857,4.121428571428571L26.307142857142857,4.121428571428571L26.307142857142857,3.478571428571428L24.807142857142857,3.478571428571428L24.807142857142857,3.2642857142857142L18.59285714285714,3.2642857142857142L18.59285714285714,3.05L18.164285714285715,3.05L18.164285714285715,2.8357142857142854L16.878571428571426,2.8357142857142854L16.878571428571426,2.6214285714285714L16.664285714285715,2.6214285714285714L16.664285714285715,2.1928571428571426L16.02142857142857,2.1928571428571426L16.02142857142857,1.9785714285714286L15.807142857142857,1.9785714285714286L15.807142857142857,1.7642857142857145L7.121428571428571,1.7642857142857145L7.121428571428571,2.407142857142857L6.264285714285714,2.407142857142857L6.264285714285714,2.6214285714285714L5.621428571428571,2.6214285714285714L5.621428571428571,2.8357142857142854L5.407142857142857,2.8357142857142854L5.407142857142857,3.05L4.5,3.05L4.5,2.95L5.307142857142857,2.95L5.307142857142857,2.7357142857142858L5.521428571428571,2.7357142857142858L5.521428571428571,2.521428571428572L6.164285714285715,2.521428571428572L6.164285714285715,2.3071428571428574L7.021428571428571,2.3071428571428574L7.021428571428571,1.6642857142857144z" stroke="none"/><path d="M89.73571428571428,1.6642857142857144L89.73571428571428,1.45L97.12142857142855,1.45L97.12142857142855,1.6642857142857144L97.7642857142857,1.6642857142857144L97.7642857142857,1.8785714285714286L97.97857142857141,1.8785714285714286L97.97857142857141,2.092857142857143L98.19285714285712,2.092857142857143L98.19285714285712,2.3071428571428574L98.83571428571427,2.3071428571428574L98.83571428571427,2.95L98.99999999999999,2.95L98.99999999999999,3.05L98.73571428571428,3.05L98.73571428571428,2.407142857142857L98.09285714285713,2.407142857142857L98.09285714285713,2.1928571428571426L97.87857142857142,2.1928571428571426L97.87857142857142,1.9785714285714286L97.66428571428571,1.9785714285714286L97.66428571428571,1.7642857142857145L97.02142857142856,1.7642857142857145L97.02142857142856,1.55L89.83571428571427,1.55L89.83571428571427,1.6642857142857144L90.2642857142857,1.6642857142857144L90.2642857142857,1.8785714285714286L90.47857142857141,1.8785714285714286L90.47857142857141,2.092857142857143L90.69285714285714,2.092857142857143L90.69285714285714,2.7357142857142858L91.33571428571427,2.7357142857142858L91.33571428571427,2.95L91.54999999999998,2.95L91.54999999999998,3.1642857142857146L91.7642857142857,3.1642857142857146L91.7642857142857,3.3785714285714286L91.97857142857141,3.3785714285714286L91.97857142857141,3.592857142857143L92.19285714285712,3.592857142857143L92.19285714285712,3.8071428571428574L92.62142857142855,3.8071428571428574L92.62142857142855,4.021428571428571L93.04999999999998,4.021428571428571L93.04999999999998,4.664285714285715L93.47857142857141,4.664285714285715L93.47857142857141,4.878571428571429L93.69285714285712,4.878571428571429L93.69285714285712,5.0928571428571425L93.90714285714284,5.0928571428571425L93.90714285714284,5.307142857142857L94.12142857142855,5.307142857142857L94.12142857142855,5.521428571428571L94.33571428571427,5.521428571428571L94.33571428571427,5.735714285714286L94.54999999999998,5.735714285714286L94.54999999999998,6L94.44999999999999,6L94.44999999999999,5.835714285714285L94.23571428571428,5.835714285714285L94.23571428571428,5.621428571428571L94.02142857142856,5.621428571428571L94.02142857142856,5.407142857142857L93.80714285714285,5.407142857142857L93.80714285714285,5.192857142857142L93.59285714285713,5.192857142857142L93.59285714285713,4.978571428571429L93.37857142857142,4.978571428571429L93.37857142857142,4.764285714285714L92.94999999999999,4.764285714285714L92.94999999999999,4.121428571428571L92.52142857142856,4.121428571428571L92.52142857142856,3.907142857142857L92.09285714285713,3.907142857142857L92.09285714285713,3.6928571428571426L91.87857142857142,3.6928571428571426L91.87857142857142,3.478571428571428L91.66428571428571,3.478571428571428L91.66428571428571,3.2642857142857142L91.44999999999999,3.2642857142857142L91.44999999999999,3.05L91.23571428571428,3.05L91.23571428571428,2.8357142857142854L90.59285714285714,2.8357142857142854L90.59285714285714,2.1928571428571426L90.37857142857142,2.1928571428571426L90.37857142857142,1.9785714285714286L90.16428571428571,1.9785714285714286L90.16428571428571,1.7642857142857145L82.7642857142857,1.7642857142857145L82.7642857142857,3.05L82.49999999999999,3.05L82.49999999999999,2.95L82.66428571428571,2.95L82.66428571428571,1.6642857142857144z" stroke="none"/><path d="M82.66428571428571,1.2357142857142858L82.66428571428571,1.1214285714285717L78.04999999999998,1.1214285714285717L78.04999999999998,1.3357142857142859L77.19285714285714,1.3357142857142859L77.19285714285714,1.55L76.97857142857141,1.55L76.97857142857141,1.7642857142857145L76.33571428571427,1.7642857142857145L76.33571428571427,1.9785714285714286L76.12142857142855,1.9785714285714286L76.12142857142855,2.1928571428571426L75.04999999999998,2.1928571428571426L75.04999999999998,2.8357142857142854L74.62142857142855,2.8357142857142854L74.62142857142855,3.05L73.49999999999999,3.05L73.49999999999999,2.95L74.52142857142856,2.95L74.52142857142856,2.7357142857142858L74.94999999999999,2.7357142857142858L74.94999999999999,2.092857142857143L76.02142857142856,2.092857142857143L76.02142857142856,1.8785714285714286L76.23571428571428,1.8785714285714286L76.23571428571428,1.6642857142857144L76.87857142857142,1.6642857142857144L76.87857142857142,1.45L77.09285714285714,1.45L77.09285714285714,1.2357142857142858L77.94999999999999,1.2357142857142858L77.94999999999999,1.0214285714285716L82.7642857142857,1.0214285714285716L82.7642857142857,1.55L82.54999999999998,1.55L82.54999999999998,2.407142857142857L82.33571428571427,2.407142857142857L82.33571428571427,2.6214285714285714L82.12142857142855,2.6214285714285714L82.12142857142855,3.3785714285714286L89.09285714285714,3.3785714285714286L89.09285714285714,3.1642857142857146L89.94999999999999,3.1642857142857146L89.94999999999999,3L90.04999999999998,3L90.04999999999998,3.2642857142857142L89.19285714285714,3.2642857142857142L89.19285714285714,3.478571428571428L82.02142857142856,3.478571428571428L82.02142857142856,2.521428571428572L82.23571428571428,2.521428571428572L82.23571428571428,2.3071428571428574L82.44999999999999,2.3071428571428574L82.44999999999999,1.45L82.66428571428571,1.45L82.66428571428571,1.3357142857142859L82.33571428571427,1.3357142857142859L82.33571428571427,1.55L82.12142857142855,1.55L82.12142857142855,1.9785714285714286L81.90714285714284,1.9785714285714286L81.90714285714284,3.592857142857143L89.19285714285714,3.592857142857143L89.19285714285714,3.8071428571428574L90.04999999999998,3.8071428571428574L90.04999999999998,4.021428571428571L90.69285714285714,4.021428571428571L90.69285714285714,4.235714285714286L91.12142857142855,4.235714285714286L91.12142857142855,4.45L91.49999999999999,4.45L91.49999999999999,4.55L91.02142857142856,4.55L91.02142857142856,4.335714285714285L90.59285714285714,4.335714285714285L90.59285714285714,4.121428571428571L89.94999999999999,4.121428571428571L89.94999999999999,3.907142857142857L89.09285714285714,3.907142857142857L89.09285714285714,3.6928571428571426L81.80714285714285,3.6928571428571426L81.80714285714285,1.8785714285714286L82.02142857142856,1.8785714285714286L82.02142857142856,1.45L82.23571428571428,1.45L82.23571428571428,1.2357142857142858z" stroke="none"/><path d="M77.94999999999999,3.3785714285714286L77.94999999999999,3.1642857142857146L80.83571428571427,3.1642857142857146L80.83571428571427,3.592857142857143L81.69285714285714,3.592857142857143L81.69285714285714,3.8071428571428574L84.69285714285714,3.8071428571428574L84.69285714285714,4.021428571428571L88.33571428571427,4.021428571428571L88.33571428571427,4.235714285714286L88.54999999999998,4.235714285714286L88.54999999999998,4.45L89.19285714285714,4.45L89.19285714285714,4.664285714285715L91.12142857142855,4.664285714285715L91.12142857142855,4.878571428571429L92.83571428571427,4.878571428571429L92.83571428571427,5.307142857142857L93.04999999999998,5.307142857142857L93.04999999999998,5.521428571428571L93.2642857142857,5.521428571428571L93.2642857142857,5.95L93.90714285714284,5.95L93.90714285714284,6.378571428571428L96.59285714285713,6.378571428571428L96.59285714285713,6.164285714285715L97.44999999999999,6.164285714285715L97.44999999999999,5.0928571428571425L98.52142857142856,5.0928571428571425L98.52142857142856,4.45L98.99999999999999,4.45L98.99999999999999,4.55L98.62142857142855,4.55L98.62142857142855,5.192857142857142L97.54999999999998,5.192857142857142L97.54999999999998,6.264285714285714L96.69285714285712,6.264285714285714L96.69285714285712,6.478571428571428L93.80714285714285,6.478571428571428L93.80714285714285,6.05L93.16428571428571,6.05L93.16428571428571,5.621428571428571L92.94999999999999,5.621428571428571L92.94999999999999,5.407142857142857L92.73571428571428,5.407142857142857L92.73571428571428,4.978571428571429L91.02142857142856,4.978571428571429L91.02142857142856,4.764285714285714L89.09285714285714,4.764285714285714L89.09285714285714,4.55L88.44999999999999,4.55L88.44999999999999,4.335714285714285L88.23571428571428,4.335714285714285L88.23571428571428,4.121428571428571L84.59285714285714,4.121428571428571L84.59285714285714,3.907142857142857L81.59285714285714,3.907142857142857L81.59285714285714,3.6928571428571426L80.73571428571428,3.6928571428571426L80.73571428571428,3.2642857142857142L78.04999999999998,3.2642857142857142L78.04999999999998,3.3785714285714286L78.69285714285714,3.3785714285714286L78.69285714285714,3.592857142857143L78.90714285714284,3.592857142857143L78.90714285714284,4.45L79.49999999999999,4.45L79.49999999999999,4.55L78.80714285714285,4.55L78.80714285714285,3.6928571428571426L78.59285714285714,3.6928571428571426L78.59285714285714,3.478571428571428L78.04999999999998,3.478571428571428L78.04999999999998,4.235714285714286L78.2642857142857,4.235714285714286L78.2642857142857,4.664285714285715L86.19285714285714,4.664285714285715L86.19285714285714,4.878571428571429L86.40714285714284,4.878571428571429L86.40714285714284,5.307142857142857L87.2642857142857,5.307142857142857L87.2642857142857,5.95L88.12142857142855,5.95L88.12142857142855,6.164285714285715L88.54999999999998,6.164285714285715L88.54999999999998,6.378571428571428L88.7642857142857,6.378571428571428L88.7642857142857,6.807142857142857L89.62142857142855,6.807142857142857L89.62142857142855,7.021428571428571L89.83571428571427,7.021428571428571L89.83571428571427,7.235714285714286L90.04999999999998,7.235714285714286L90.04999999999998,7.664285714285715L90.47857142857141,7.664285714285715L90.47857142857141,8.092857142857142L90.69285714285714,8.092857142857142L90.69285714285714,8.735714285714284L91.33571428571427,8.735714285714284L91.33571428571427,8.95L91.49999999999999,8.95L91.49999999999999,9.05L91.23571428571428,9.05L91.23571428571428,8.835714285714285L90.59285714285714,8.835714285714285L90.59285714285714,8.192857142857143L90.37857142857142,8.192857142857143L90.37857142857142,7.764285714285714L89.94999999999999,7.764285714285714L89.94999999999999,7.335714285714285L89.73571428571428,7.335714285714285L89.73571428571428,7.121428571428571L89.52142857142856,7.121428571428571L89.52142857142856,6.907142857142857L88.66428571428571,6.907142857142857L88.66428571428571,6.478571428571428L88.44999999999999,6.478571428571428L88.44999999999999,6.264285714285714L88.02142857142856,6.264285714285714L88.02142857142856,6.05L87.16428571428571,6.05L87.16428571428571,5.407142857142857L86.30714285714285,5.407142857142857L86.30714285714285,4.978571428571429L86.09285714285714,4.978571428571429L86.09285714285714,4.764285714285714L78.16428571428571,4.764285714285714L78.16428571428571,4.335714285714285L77.94999999999999,4.335714285714285L77.94999999999999,3.478571428571428L72.2642857142857,3.478571428571428L72.2642857142857,3.6928571428571426L72.04999999999998,3.6928571428571426L72.04999999999998,3.907142857142857L71.83571428571427,3.907142857142857L71.83571428571427,4.121428571428571L69.2642857142857,4.121428571428571L69.2642857142857,4.335714285714285L69.04999999999998,4.335714285714285L69.04999999999998,4.55L66.47857142857141,4.55L66.47857142857141,4.978571428571429L52.66428571428572,4.978571428571429L52.66428571428572,4.764285714285714L51.378571428571426,4.764285714285714L51.378571428571426,4.55L51,4.55L51,4.45L51.47857142857142,4.45L51.47857142857142,4.664285714285715L52.76428571428571,4.664285714285715L52.76428571428571,4.878571428571429L66.37857142857142,4.878571428571429L66.37857142857142,4.45L68.94999999999999,4.45L68.94999999999999,4.235714285714286L69.16428571428571,4.235714285714286L69.16428571428571,4.021428571428571L71.73571428571428,4.021428571428571L71.73571428571428,3.8071428571428574L71.94999999999999,3.8071428571428574L71.94999999999999,3.592857142857143L72.16428571428571,3.592857142857143L72.16428571428571,3.3785714285714286z" stroke="none"/><path d="M20.307142857142857,4.878571428571429L20.307142857142857,4.664285714285715L23.09285714285714,4.664285714285715L23.09285714285714,4.45L23.95,4.45L23.95,4.235714285714286L25.764285714285716,4.235714285714286L25.764285714285716,4.664285714285715L26.192857142857143,4.664285714285715L26.192857142857143,4.878571428571429L26.40714285714286,4.878571428571429L26.40714285714286,5.0928571428571425L27.692857142857143,5.0928571428571425L27.692857142857143,5.307142857142857L28.12142857142857,5.307142857142857L28.12142857142857,5.521428571428571L28.335714285714285,5.521428571428571L28.335714285714285,5.735714285714286L28.978571428571428,5.735714285714286L28.978571428571428,5.95L29.192857142857143,5.95L29.192857142857143,6.164285714285715L29.62142857142857,6.164285714285715L29.62142857142857,6.378571428571428L33.90714285714285,6.378571428571428L33.90714285714285,6.5928571428571425L35.192857142857136,6.5928571428571425L35.192857142857136,6.807142857142857L35.40714285714285,6.807142857142857L35.40714285714285,7.235714285714286L35.62142857142857,7.235714285714286L35.62142857142857,7.45L36,7.45L36,7.55L35.52142857142857,7.55L35.52142857142857,7.335714285714285L35.30714285714286,7.335714285714285L35.30714285714286,6.907142857142857L35.09285714285714,6.907142857142857L35.09285714285714,6.692857142857142L33.80714285714286,6.692857142857142L33.80714285714286,6.478571428571428L29.52142857142857,6.478571428571428L29.52142857142857,6.264285714285714L29.09285714285714,6.264285714285714L29.09285714285714,6.05L28.878571428571426,6.05L28.878571428571426,5.835714285714285L28.235714285714284,5.835714285714285L28.235714285714284,5.621428571428571L28.02142857142857,5.621428571428571L28.02142857142857,5.407142857142857L27.59285714285714,5.407142857142857L27.59285714285714,5.192857142857142L26.307142857142857,5.192857142857142L26.307142857142857,4.978571428571429L26.09285714285714,4.978571428571429L26.09285714285714,4.764285714285714L25.664285714285715,4.764285714285714L25.664285714285715,4.335714285714285L24.05,4.335714285714285L24.05,4.55L23.192857142857143,4.55L23.192857142857143,4.764285714285714L20.40714285714286,4.764285714285714L20.40714285714286,4.878571428571429L23.307142857142857,4.878571428571429L23.307142857142857,4.664285714285715L24.378571428571426,4.664285714285715L24.378571428571426,4.45L25.5,4.45L25.5,4.55L24.478571428571428,4.55L24.478571428571428,4.764285714285714L23.40714285714286,4.764285714285714L23.40714285714286,4.978571428571429L20.40714285714286,4.978571428571429L20.40714285714286,6.692857142857142L19.978571428571428,6.692857142857142L19.978571428571428,6.907142857142857L19.764285714285716,6.907142857142857L19.764285714285716,8.407142857142858L19.55,8.407142857142858L19.55,9L19.45,9L19.45,8.307142857142857L19.664285714285715,8.307142857142857L19.664285714285715,6.807142857142857L19.878571428571426,6.807142857142857L19.878571428571426,6.5928571428571425L20.307142857142857,6.5928571428571425L20.307142857142857,4.978571428571429L17.192857142857143,4.978571428571429L17.192857142857143,5.192857142857142L16.55,5.192857142857142L16.55,5.621428571428571L13.335714285714285,5.621428571428571L13.335714285714285,5.835714285714285L11.62142857142857,5.835714285714285L11.62142857142857,6.05L11.192857142857143,6.05L11.192857142857143,6.907142857142857L10.978571428571428,6.907142857142857L10.978571428571428,7.55L9,7.55L9,7.45L10.878571428571426,7.45L10.878571428571426,6.807142857142857L11.092857142857142,6.807142857142857L11.092857142857142,5.95L11.521428571428569,5.95L11.521428571428569,5.735714285714286L13.235714285714284,5.735714285714286L13.235714285714284,5.521428571428571L16.45,5.521428571428571L16.45,5.0928571428571425L17.09285714285714,5.0928571428571425L17.09285714285714,4.878571428571429z" stroke="none"/><path d="M48.80714285714286,2.95L48.80714285714286,2.7357142857142858L55.12142857142857,2.7357142857142858L55.12142857142857,3.3785714285714286L65.19285714285714,3.3785714285714286L65.19285714285714,3.8071428571428574L65.40714285714284,3.8071428571428574L65.40714285714284,4.021428571428571L65.83571428571427,4.021428571428571L65.83571428571427,4.45L65.99999999999999,4.45L65.99999999999999,4.55L65.73571428571428,4.55L65.73571428571428,4.121428571428571L65.30714285714285,4.121428571428571L65.30714285714285,3.907142857142857L65.09285714285714,3.907142857142857L65.09285714285714,3.478571428571428L55.02142857142857,3.478571428571428L55.02142857142857,2.8357142857142854L48.90714285714285,2.8357142857142854L48.90714285714285,2.95L54.05,2.95L54.05,3.1642857142857146L54.26428571428571,3.1642857142857146L54.26428571428571,3.3785714285714286L54.692857142857136,3.3785714285714286L54.692857142857136,4.021428571428571L54.90714285714285,4.021428571428571L54.90714285714285,4.45L55.5,4.45L55.5,4.55L54.80714285714286,4.55L54.80714285714286,4.121428571428571L54.59285714285714,4.121428571428571L54.59285714285714,3.478571428571428L54.16428571428572,3.478571428571428L54.16428571428572,3.2642857142857142L53.95,3.2642857142857142L53.95,3.05L48.90714285714285,3.05L48.90714285714285,4.021428571428571L49.33571428571428,4.021428571428571L49.33571428571428,4.235714285714286L49.76428571428571,4.235714285714286L49.76428571428571,4.45L50.62142857142857,4.45L50.62142857142857,4.878571428571429L50.83571428571428,4.878571428571429L50.83571428571428,5.0928571428571425L51.05,5.0928571428571425L51.05,5.521428571428571L52.12142857142857,5.521428571428571L52.12142857142857,5.735714285714286L52.97857142857142,5.735714285714286L52.97857142857142,6.164285714285715L53.40714285714285,6.164285714285715L53.40714285714285,7.235714285714286L53.83571428571428,7.235714285714286L53.83571428571428,7.45L54,7.45L54,7.55L53.73571428571429,7.55L53.73571428571429,7.335714285714285L53.30714285714286,7.335714285714285L53.30714285714286,6.264285714285714L52.878571428571426,6.264285714285714L52.878571428571426,5.835714285714285L52.02142857142857,5.835714285714285L52.02142857142857,5.621428571428571L50.95,5.621428571428571L50.95,5.192857142857142L50.73571428571429,5.192857142857142L50.73571428571429,4.978571428571429L50.52142857142857,4.978571428571429L50.52142857142857,4.55L49.66428571428572,4.55L49.66428571428572,4.335714285714285L49.23571428571429,4.335714285714285L49.23571428571429,4.121428571428571L48.80714285714286,4.121428571428571L48.80714285714286,3.05L40.97857142857143,3.05L40.97857142857143,3.478571428571428L29.40714285714286,3.478571428571428L29.40714285714286,3.907142857142857L28.764285714285716,3.907142857142857L28.764285714285716,4.335714285714285L28.55,4.335714285714285L28.55,4.5L28.45,4.5L28.45,4.235714285714286L28.664285714285715,4.235714285714286L28.664285714285715,3.8071428571428574L29.307142857142857,3.8071428571428574L29.307142857142857,3.3785714285714286L40.87857142857143,3.3785714285714286L40.87857142857143,2.95z" stroke="none"/><path d="M62.30714285714286,5.307142857142857L62.30714285714286,5.0928571428571425L82.7642857142857,5.0928571428571425L82.7642857142857,5.307142857142857L83.40714285714284,5.307142857142857L83.40714285714284,5.521428571428571L83.62142857142855,5.521428571428571L83.62142857142855,5.735714285714286L84.47857142857141,5.735714285714286L84.47857142857141,5.95L85.49999999999999,5.95L85.49999999999999,6.05L84.37857142857142,6.05L84.37857142857142,5.835714285714285L83.52142857142856,5.835714285714285L83.52142857142856,5.621428571428571L83.30714285714285,5.621428571428571L83.30714285714285,5.407142857142857L82.66428571428571,5.407142857142857L82.66428571428571,5.192857142857142L62.40714285714285,5.192857142857142L62.40714285714285,5.307142857142857L75.69285714285714,5.307142857142857L75.69285714285714,5.521428571428571L75.90714285714284,5.521428571428571L75.90714285714284,5.735714285714286L76.33571428571427,5.735714285714286L76.33571428571427,5.95L76.7642857142857,5.95L76.7642857142857,6.378571428571428L77.19285714285714,6.378571428571428L77.19285714285714,6.807142857142857L77.40714285714284,6.807142857142857L77.40714285714284,7.235714285714286L78.69285714285714,7.235714285714286L78.69285714285714,7.45L79.49999999999999,7.45L79.49999999999999,7.55L78.59285714285714,7.55L78.59285714285714,7.335714285714285L77.30714285714285,7.335714285714285L77.30714285714285,6.907142857142857L77.09285714285714,6.907142857142857L77.09285714285714,6.478571428571428L76.66428571428571,6.478571428571428L76.66428571428571,6.05L76.23571428571428,6.05L76.23571428571428,5.835714285714285L75.80714285714285,5.835714285714285L75.80714285714285,5.621428571428571L75.59285714285714,5.621428571428571L75.59285714285714,5.407142857142857L62.40714285714285,5.407142857142857L62.40714285714285,5.621428571428571L59.192857142857136,5.621428571428571L59.192857142857136,5.835714285714285L58.55,5.835714285714285L58.55,6.05L58.33571428571428,6.05L58.33571428571428,6.264285714285714L57.692857142857136,6.264285714285714L57.692857142857136,6.478571428571428L57.47857142857142,6.478571428571428L57.47857142857142,6.907142857142857L57.26428571428571,6.907142857142857L57.26428571428571,7.121428571428571L55.55,7.121428571428571L55.55,7.55L55.12142857142857,7.55L55.12142857142857,7.764285714285714L54.90714285714285,7.764285714285714L54.90714285714285,8.192857142857143L45.05,8.192857142857143L45.05,8.835714285714285L44.83571428571428,8.835714285714285L44.83571428571428,9.05L44.62142857142857,9.05L44.62142857142857,9.264285714285716L43.97857142857143,9.264285714285716L43.97857142857143,10.335714285714285L43.55,10.335714285714285L43.55,10.5L43.45,10.5L43.45,10.235714285714284L43.87857142857143,10.235714285714284L43.87857142857143,9.164285714285715L44.52142857142857,9.164285714285715L44.52142857142857,8.95L44.73571428571429,8.95L44.73571428571429,8.735714285714284L44.95,8.735714285714284L44.95,8.092857142857142L54.80714285714286,8.092857142857142L54.80714285714286,7.664285714285715L55.02142857142857,7.664285714285715L55.02142857142857,7.45L55.45,7.45L55.45,7.021428571428571L57.16428571428572,7.021428571428571L57.16428571428572,6.807142857142857L57.378571428571426,6.807142857142857L57.378571428571426,6.378571428571428L57.59285714285714,6.378571428571428L57.59285714285714,6.164285714285715L58.23571428571429,6.164285714285715L58.23571428571429,5.95L58.45,5.95L58.45,5.735714285714286L59.09285714285714,5.735714285714286L59.09285714285714,5.521428571428571L62.30714285714286,5.521428571428571L62.30714285714286,5.407142857142857L58.76428571428571,5.407142857142857L58.76428571428571,5.621428571428571L58.33571428571428,5.621428571428571L58.33571428571428,5.835714285714285L57.47857142857142,5.835714285714285L57.47857142857142,6.05L57.26428571428571,6.05L57.26428571428571,6.692857142857142L57.05,6.692857142857142L57.05,6.907142857142857L54.692857142857136,6.907142857142857L54.692857142857136,7.978571428571428L50.09285714285714,7.978571428571428L50.09285714285714,6.264285714285714L49.66428571428572,6.264285714285714L49.66428571428572,6.05L49.5,6.05L49.5,5.95L49.76428571428571,5.95L49.76428571428571,6.164285714285715L50.192857142857136,6.164285714285715L50.192857142857136,7.878571428571428L54.59285714285714,7.878571428571428L54.59285714285714,6.807142857142857L56.95,6.807142857142857L56.95,6.5928571428571425L57.16428571428572,6.5928571428571425L57.16428571428572,5.95L57.378571428571426,5.95L57.378571428571426,5.735714285714286L58.23571428571429,5.735714285714286L58.23571428571429,5.521428571428571L58.66428571428572,5.521428571428571L58.66428571428572,5.307142857142857z" stroke="none"/><path d="M6,3.05L6,2.95L7.5,2.95L7.5,3.05z" stroke="none"/><path d="M55.5,10.55L55.5,10.45L57.378571428571426,10.45L57.378571428571426,9.807142857142857L57.59285714285714,9.807142857142857L57.59285714285714,9.592857142857142L58.23571428571429,9.592857142857142L58.23571428571429,9.378571428571426L58.45,9.378571428571426L58.45,9L58.55,9L58.55,9.478571428571428L58.33571428571428,9.478571428571428L58.33571428571428,9.692857142857143L57.692857142857136,9.692857142857143L57.692857142857136,9.907142857142858L57.47857142857142,9.907142857142858L57.47857142857142,10.55z" stroke="none"/><path d="M82.49999999999999,10.45L82.49999999999999,10.55L81.04999999999998,10.55L81.04999999999998,11.192857142857143L79.97857142857141,11.192857142857143L79.97857142857141,11.407142857142858L79.7642857142857,11.407142857142858L79.7642857142857,11.835714285714285L79.54999999999998,11.835714285714285L79.54999999999998,12.05L78.47857142857141,12.05L78.47857142857141,12.478571428571428L77.52142857142856,12.478571428571428L77.52142857142856,10.021428571428569L77.94999999999999,10.021428571428569L77.94999999999999,9.807142857142857L78.16428571428571,9.807142857142857L78.16428571428571,9.592857142857142L78.80714285714285,9.592857142857142L78.80714285714285,9.378571428571426L79.23571428571428,9.378571428571426L79.23571428571428,8.95L79.49999999999999,8.95L79.49999999999999,9.05L79.33571428571427,9.05L79.33571428571427,9.478571428571428L78.90714285714284,9.478571428571428L78.90714285714284,9.692857142857143L78.2642857142857,9.692857142857143L78.2642857142857,9.907142857142858L78.04999999999998,9.907142857142858L78.04999999999998,10.12142857142857L77.62142857142855,10.12142857142857L77.62142857142855,12.378571428571426L78.37857142857142,12.378571428571426L78.37857142857142,11.95L79.44999999999999,11.95L79.44999999999999,11.735714285714284L79.66428571428571,11.735714285714284L79.66428571428571,11.307142857142857L79.87857142857142,11.307142857142857L79.87857142857142,11.092857142857142L80.94999999999999,11.092857142857142L80.94999999999999,10.45z" stroke="none"/><path d="M36.05,12L35.95,12L35.95,11.092857142857142L36.16428571428572,11.092857142857142L36.16428571428572,10.664285714285715L36.80714285714286,10.664285714285715L36.80714285714286,10.021428571428569L37.23571428571429,10.021428571428569L37.23571428571429,9.807142857142857L37.45,9.807142857142857L37.45,9.592857142857142L38.73571428571429,9.592857142857142L38.73571428571429,9.378571428571426L38.95,9.378571428571426L38.95,9L39.05,9L39.05,9.478571428571428L38.83571428571428,9.478571428571428L38.83571428571428,9.692857142857143L37.55,9.692857142857143L37.55,9.907142857142858L37.33571428571428,9.907142857142858L37.33571428571428,10.12142857142857L36.90714285714285,10.12142857142857L36.90714285714285,10.764285714285716L36.26428571428571,10.764285714285716L36.26428571428571,11.192857142857143L36.05,11.192857142857143z" stroke="none"/><path d="M100.54999999999998,10.5L100.44999999999999,10.5L100.44999999999999,6L100.54999999999998,6z" stroke="none"/><path d="M31.5,8.95L31.5,9.05L29.09285714285714,9.05L29.09285714285714,8.407142857142858L27.378571428571426,8.407142857142858L27.378571428571426,8.192857142857143L27.164285714285715,8.192857142857143L27.164285714285715,7.55L27,7.55L27,7.45L27.264285714285716,7.45L27.264285714285716,8.092857142857142L27.478571428571428,8.092857142857142L27.478571428571428,8.307142857142857L29.192857142857143,8.307142857142857L29.192857142857143,8.95z" stroke="none"/><path d="M4.5,9.05L4.5,8.95L4.764285714285714,8.95L4.764285714285714,9.164285714285715L5.407142857142857,9.164285714285715L5.407142857142857,9.378571428571426L5.621428571428571,9.378571428571426L5.621428571428571,9.592857142857142L6.264285714285714,9.592857142857142L6.264285714285714,10.021428571428569L6.692857142857142,10.021428571428569L6.692857142857142,10.235714285714284L6.907142857142857,10.235714285714284L6.907142857142857,10.45L7.121428571428571,10.45L7.121428571428571,10.664285714285715L7.335714285714285,10.664285714285715L7.335714285714285,10.878571428571426L7.764285714285714,10.878571428571426L7.764285714285714,11.307142857142857L8.192857142857143,11.307142857142857L8.192857142857143,11.521428571428569L8.835714285714285,11.521428571428569L8.835714285714285,11.95L9,11.95L9,12.05L8.735714285714284,12.05L8.735714285714284,11.62142857142857L8.092857142857142,11.62142857142857L8.092857142857142,11.407142857142858L7.664285714285715,11.407142857142858L7.664285714285715,10.978571428571428L7.235714285714286,10.978571428571428L7.235714285714286,10.764285714285716L7.021428571428571,10.764285714285716L7.021428571428571,10.55L6.807142857142857,10.55L6.807142857142857,10.335714285714285L6.5928571428571425,10.335714285714285L6.5928571428571425,10.12142857142857L6.164285714285715,10.12142857142857L6.164285714285715,9.692857142857143L5.521428571428571,9.692857142857143L5.521428571428571,9.478571428571428L5.307142857142857,9.478571428571428L5.307142857142857,9.264285714285716L4.664285714285715,9.264285714285716L4.664285714285715,9.05z" stroke="none"/><path d="M24,12.05L24,11.95L30,11.95L30,12.05z" stroke="none"/><path d="M15,5.95L15,6.05L13.764285714285716,6.05L13.764285714285716,7.335714285714285L12.264285714285716,7.335714285714285L12.264285714285716,7.55L11.835714285714285,7.55L11.835714285714285,7.764285714285714L9.478571428571428,7.764285714285714L9.478571428571428,7.978571428571428L8.521428571428569,7.978571428571428L8.521428571428569,6.5928571428571425L8.735714285714284,6.5928571428571425L8.735714285714284,6.378571428571428L8.95,6.378571428571428L8.95,6L9.05,6L9.05,6.478571428571428L8.835714285714285,6.478571428571428L8.835714285714285,6.692857142857142L8.62142857142857,6.692857142857142L8.62142857142857,7.878571428571428L9.378571428571426,7.878571428571428L9.378571428571426,7.664285714285715L11.735714285714284,7.664285714285715L11.735714285714284,7.45L12.164285714285715,7.45L12.164285714285715,7.235714285714286L13.664285714285715,7.235714285714286L13.664285714285715,5.95z" stroke="none"/><path d="M69.04999999999998,10.5L68.94999999999999,10.5L68.94999999999999,9.907142857142858L68.30714285714285,9.907142857142858L68.30714285714285,9.692857142857143L68.09285714285714,9.692857142857143L68.09285714285714,9.478571428571428L67.66428571428571,9.478571428571428L67.66428571428571,8.407142857142858L67.44999999999999,8.407142857142858L67.44999999999999,7.978571428571428L66.37857142857142,7.978571428571428L66.37857142857142,7.764285714285714L65.94999999999999,7.764285714285714L65.94999999999999,7.335714285714285L65.73571428571428,7.335714285714285L65.73571428571428,7.121428571428571L65.09285714285714,7.121428571428571L65.09285714285714,6.907142857142857L64.23571428571428,6.907142857142857L64.23571428571428,6.692857142857142L63.80714285714286,6.692857142857142L63.80714285714286,6.478571428571428L63.59285714285714,6.478571428571428L63.59285714285714,6.05L63,6.05L63,5.95L63.692857142857136,5.95L63.692857142857136,6.378571428571428L63.90714285714285,6.378571428571428L63.90714285714285,6.5928571428571425L64.33571428571427,6.5928571428571425L64.33571428571427,6.807142857142857L65.19285714285714,6.807142857142857L65.19285714285714,7.021428571428571L65.83571428571427,7.021428571428571L65.83571428571427,7.235714285714286L66.04999999999998,7.235714285714286L66.04999999999998,7.664285714285715L66.47857142857141,7.664285714285715L66.47857142857141,7.878571428571428L67.54999999999998,7.878571428571428L67.54999999999998,8.307142857142857L67.7642857142857,8.307142857142857L67.7642857142857,9.378571428571426L68.19285714285714,9.378571428571426L68.19285714285714,9.592857142857142L68.40714285714284,9.592857142857142L68.40714285714284,9.807142857142857L69.04999999999998,9.807142857142857z" stroke="none"/><path d="M31.5,4.55L31.5,4.45L39,4.45L39,4.55z" stroke="none"/><path d="M91.49999999999999,7.55L91.49999999999999,7.45L96.59285714285713,7.45L96.59285714285713,7.235714285714286L97.02142857142856,7.235714285714286L97.02142857142856,7.021428571428571L97.44999999999999,7.021428571428571L97.44999999999999,6.807142857142857L97.66428571428571,6.807142857142857L97.66428571428571,6.378571428571428L98.52142857142856,6.378571428571428L98.52142857142856,6.164285714285715L98.94999999999999,6.164285714285715L98.94999999999999,6L99.04999999999998,6L99.04999999999998,6.264285714285714L98.62142857142855,6.264285714285714L98.62142857142855,6.478571428571428L97.7642857142857,6.478571428571428L97.7642857142857,6.907142857142857L97.54999999999998,6.907142857142857L97.54999999999998,7.121428571428571L97.12142857142855,7.121428571428571L97.12142857142855,7.335714285714285L96.69285714285712,7.335714285714285L96.69285714285712,7.55z" stroke="none"/><path d="M27,9.05L27,8.95L28.978571428571428,8.95L28.978571428571428,9.164285714285715L31.12142857142857,9.164285714285715L31.12142857142857,9.378571428571426L34.66428571428572,9.378571428571426L34.66428571428572,9.164285714285715L34.87857142857143,9.164285714285715L34.87857142857143,8.95L36,8.95L36,9.05L34.97857142857143,9.05L34.97857142857143,9.264285714285716L34.76428571428571,9.264285714285716L34.76428571428571,9.478571428571428L31.02142857142857,9.478571428571428L31.02142857142857,9.264285714285716L28.878571428571426,9.264285714285716L28.878571428571426,9.05z" stroke="none"/><path d="M71.99999999999999,7.55L71.99999999999999,7.45L78.2642857142857,7.45L78.2642857142857,7.664285714285715L79.12142857142855,7.664285714285715L79.12142857142855,7.878571428571428L82.23571428571428,7.878571428571428L82.23571428571428,7.45L82.49999999999999,7.45L82.49999999999999,7.55L82.33571428571427,7.55L82.33571428571427,7.978571428571428L79.02142857142856,7.978571428571428L79.02142857142856,7.764285714285714L78.16428571428571,7.764285714285714L78.16428571428571,7.55z" stroke="none"/><path d="M4.55,10.5L4.45,10.5L4.45,9.478571428571428L4.021428571428571,9.478571428571428L4.021428571428571,8.521428571428569L14.735714285714284,8.521428571428569L14.735714285714284,7.45L15,7.45L15,7.55L14.835714285714285,7.55L14.835714285714285,8.62142857142857L4.121428571428571,8.62142857142857L4.121428571428571,9.378571428571426L4.55,9.378571428571426z" stroke="none"/><path d="M101.99999999999999,11.95L101.99999999999999,12.05L99.59285714285713,12.05L99.59285714285713,11.835714285714285L99.37857142857142,11.835714285714285L99.37857142857142,11.62142857142857L92.30714285714285,11.62142857142857L92.30714285714285,11.407142857142858L90.80714285714285,11.407142857142858L90.80714285714285,10.978571428571428L90.37857142857142,10.978571428571428L90.37857142857142,10.764285714285716L89.94999999999999,10.764285714285716L89.94999999999999,10.5L90.04999999999998,10.5L90.04999999999998,10.664285714285715L90.47857142857141,10.664285714285715L90.47857142857141,10.878571428571426L90.90714285714284,10.878571428571426L90.90714285714284,11.307142857142857L92.40714285714284,11.307142857142857L92.40714285714284,11.521428571428569L99.47857142857141,11.521428571428569L99.47857142857141,11.735714285714284L99.69285714285712,11.735714285714284L99.69285714285712,11.95z" stroke="none"/><path d="M51,5.95L51,6.05L50.09285714285714,6.05L50.09285714285714,5.621428571428571L46.12142857142857,5.621428571428571L46.12142857142857,6.264285714285714L45.90714285714285,6.264285714285714L45.90714285714285,6.692857142857142L45.47857142857143,6.692857142857142L45.47857142857143,6.907142857142857L44.62142857142857,6.907142857142857L44.62142857142857,7.121428571428571L44.40714285714285,7.121428571428571L44.40714285714285,7.55L43.97857142857143,7.55L43.97857142857143,7.764285714285714L43.76428571428571,7.764285714285714L43.76428571428571,8.835714285714285L43.55,8.835714285714285L43.55,9.478571428571428L43.12142857142857,9.478571428571428L43.12142857142857,10.878571428571426L62.73571428571429,10.878571428571426L62.73571428571429,10.664285714285715L62.95,10.664285714285715L62.95,10.5L63.05,10.5L63.05,10.764285714285716L62.83571428571428,10.764285714285716L62.83571428571428,10.978571428571428L43.02142857142857,10.978571428571428L43.02142857142857,9.378571428571426L43.45,9.378571428571426L43.45,8.735714285714284L43.66428571428572,8.735714285714284L43.66428571428572,7.664285714285715L43.87857142857143,7.664285714285715L43.87857142857143,7.45L44.30714285714286,7.45L44.30714285714286,7.021428571428571L44.52142857142857,7.021428571428571L44.52142857142857,6.807142857142857L45.37857142857143,6.807142857142857L45.37857142857143,6.5928571428571425L45.80714285714286,6.5928571428571425L45.80714285714286,6.164285714285715L46.02142857142857,6.164285714285715L46.02142857142857,5.521428571428571L50.192857142857136,5.521428571428571L50.192857142857136,5.95z" stroke="none"/><path d="M10.5,9.05L10.5,8.95L17.621428571428574,8.95L17.621428571428574,9.378571428571426L23.307142857142857,9.378571428571426L23.307142857142857,9.164285714285715L23.735714285714284,9.164285714285715L23.735714285714284,8.95L24,8.95L24,9.05L23.835714285714285,9.05L23.835714285714285,9.264285714285716L23.40714285714286,9.264285714285716L23.40714285714286,9.478571428571428L17.521428571428572,9.478571428571428L17.521428571428572,9.05z" stroke="none"/><path d="M21,10.55L21,10.45L23.09285714285714,10.45L23.09285714285714,10.021428571428569L23.307142857142857,10.021428571428569L23.307142857142857,9.807142857142857L24.378571428571426,9.807142857142857L24.378571428571426,9.592857142857142L24.59285714285714,9.592857142857142L24.59285714285714,9.378571428571426L24.807142857142857,9.378571428571426L24.807142857142857,8.95L25.02142857142857,8.95L25.02142857142857,8.735714285714284L25.235714285714284,8.735714285714284L25.235714285714284,8.521428571428569L25.45,8.521428571428569L25.45,8.307142857142857L25.664285714285715,8.307142857142857L25.664285714285715,8.092857142857142L25.878571428571426,8.092857142857142L25.878571428571426,7.878571428571428L26.09285714285714,7.878571428571428L26.09285714285714,7.235714285714286L26.52142857142857,7.235714285714286L26.52142857142857,7.021428571428571L32.40714285714285,7.021428571428571L32.40714285714285,7.235714285714286L33.05,7.235714285714286L33.05,7.45L34.5,7.45L34.5,7.55L32.95,7.55L32.95,7.335714285714285L32.30714285714286,7.335714285714285L32.30714285714286,7.121428571428571L26.62142857142857,7.121428571428571L26.62142857142857,7.335714285714285L26.192857142857143,7.335714285714285L26.192857142857143,7.978571428571428L25.978571428571428,7.978571428571428L25.978571428571428,8.192857142857143L25.764285714285716,8.192857142857143L25.764285714285716,8.407142857142858L25.55,8.407142857142858L25.55,8.62142857142857L25.335714285714285,8.62142857142857L25.335714285714285,8.835714285714285L25.12142857142857,8.835714285714285L25.12142857142857,9.05L24.90714285714286,9.05L24.90714285714286,9.478571428571428L24.692857142857143,9.478571428571428L24.692857142857143,9.692857142857143L24.478571428571428,9.692857142857143L24.478571428571428,9.907142857142858L23.40714285714286,9.907142857142858L23.40714285714286,10.12142857142857L23.192857142857143,10.12142857142857L23.192857142857143,10.55z" stroke="none"/><path d="M42,10.45L42,10.55L41.62142857142857,10.55L41.62142857142857,10.764285714285716L40.97857142857143,10.764285714285716L40.97857142857143,10.978571428571428L37.12142857142857,10.978571428571428L37.12142857142857,11.192857142857143L36.692857142857136,11.192857142857143L36.692857142857136,11.835714285714285L36.47857142857143,11.835714285714285L36.47857142857143,12.478571428571428L30.59285714285714,12.478571428571428L30.59285714285714,12.264285714285716L30.378571428571426,12.264285714285716L30.378571428571426,11.62142857142857L28.45,11.62142857142857L28.45,11.407142857142858L28.235714285714284,11.407142857142858L28.235714285714284,11.192857142857143L26.95,11.192857142857143L26.95,10.5L27.05,10.5L27.05,11.092857142857142L28.335714285714285,11.092857142857142L28.335714285714285,11.307142857142857L28.55,11.307142857142857L28.55,11.521428571428569L30.478571428571428,11.521428571428569L30.478571428571428,12.164285714285715L30.692857142857143,12.164285714285715L30.692857142857143,12.378571428571426L36.37857142857143,12.378571428571426L36.37857142857143,11.735714285714284L36.59285714285714,11.735714285714284L36.59285714285714,11.092857142857142L37.02142857142857,11.092857142857142L37.02142857142857,10.878571428571426L40.87857142857143,10.878571428571426L40.87857142857143,10.664285714285715L41.52142857142857,10.664285714285715L41.52142857142857,10.45z" stroke="none"/><path d="M40.5,3.05L40.5,2.95L40.66428571428572,2.95L40.66428571428572,2.7357142857142858L48.59285714285714,2.7357142857142858L48.59285714285714,2.521428571428572L55.33571428571428,2.521428571428572L55.33571428571428,2.95L55.5,2.95L55.5,3.05L55.23571428571429,3.05L55.23571428571429,2.6214285714285714L48.692857142857136,2.6214285714285714L48.692857142857136,2.8357142857142854L40.76428571428571,2.8357142857142854L40.76428571428571,3.05z" stroke="none"/><path d="M70.49999999999999,4.55L70.49999999999999,4.45L77.83571428571427,4.45L77.83571428571427,4.664285714285715L78.04999999999998,4.664285714285715L78.04999999999998,4.878571428571429L84.69285714285714,4.878571428571429L84.69285714285714,5.0928571428571425L84.90714285714284,5.0928571428571425L84.90714285714284,5.307142857142857L85.33571428571427,5.307142857142857L85.33571428571427,5.521428571428571L85.97857142857141,5.521428571428571L85.97857142857141,7.121428571428571L85.7642857142857,7.121428571428571L85.7642857142857,7.335714285714285L85.54999999999998,7.335714285714285L85.54999999999998,7.5L85.44999999999999,7.5L85.44999999999999,7.235714285714286L85.66428571428571,7.235714285714286L85.66428571428571,7.021428571428571L85.87857142857142,7.021428571428571L85.87857142857142,5.621428571428571L85.23571428571428,5.621428571428571L85.23571428571428,5.407142857142857L84.80714285714285,5.407142857142857L84.80714285714285,5.192857142857142L84.59285714285714,5.192857142857142L84.59285714285714,4.978571428571429L77.94999999999999,4.978571428571429L77.94999999999999,4.764285714285714L77.73571428571428,4.764285714285714L77.73571428571428,4.55z" stroke="none"/><path d="M61.5,10.55L61.5,10.45L62.30714285714286,10.45L62.30714285714286,10.021428571428569L66.69285714285714,10.021428571428569L66.69285714285714,10.45L68.62142857142855,10.45L68.62142857142855,10.878571428571426L76.23571428571428,10.878571428571426L76.23571428571428,10.664285714285715L76.87857142857142,10.664285714285715L76.87857142857142,10.45L77.09285714285714,10.45L77.09285714285714,9.807142857142857L77.30714285714285,9.807142857142857L77.30714285714285,9.592857142857142L77.52142857142856,9.592857142857142L77.52142857142856,9.378571428571426L77.94999999999999,9.378571428571426L77.94999999999999,9.164285714285715L79.02142857142856,9.164285714285715L79.02142857142856,8.521428571428569L82.12142857142855,8.521428571428569L82.12142857142855,8.735714285714284L82.54999999999998,8.735714285714284L82.54999999999998,9L82.44999999999999,9L82.44999999999999,8.835714285714285L82.02142857142856,8.835714285714285L82.02142857142856,8.62142857142857L79.12142857142855,8.62142857142857L79.12142857142855,9.264285714285716L78.04999999999998,9.264285714285716L78.04999999999998,9.478571428571428L77.62142857142855,9.478571428571428L77.62142857142855,9.692857142857143L77.40714285714284,9.692857142857143L77.40714285714284,9.907142857142858L77.19285714285714,9.907142857142858L77.19285714285714,10.55L76.97857142857141,10.55L76.97857142857141,10.764285714285716L76.33571428571427,10.764285714285716L76.33571428571427,10.978571428571428L68.52142857142856,10.978571428571428L68.52142857142856,10.55L66.59285714285714,10.55L66.59285714285714,10.12142857142857L62.40714285714285,10.12142857142857L62.40714285714285,10.55z" stroke="none"/><path d="M4.55,4.5L4.45,4.5L4.45,3.478571428571428L4.021428571428571,3.478571428571428L4.021428571428571,2.521428571428572L4.878571428571429,2.521428571428572L4.878571428571429,2.3071428571428574L5.95,2.3071428571428574L5.95,2.092857142857143L6.5928571428571425,2.092857142857143L6.5928571428571425,1.45L23.835714285714285,1.45L23.835714285714285,1.6642857142857144L24.05,1.6642857142857144L24.05,1.8785714285714286L24.478571428571428,1.8785714285714286L24.478571428571428,2.092857142857143L24.692857142857143,2.092857142857143L24.692857142857143,2.521428571428572L24.90714285714286,2.521428571428572L24.90714285714286,2.7357142857142858L25.12142857142857,2.7357142857142858L25.12142857142857,2.95L25.5,2.95L25.5,3.05L25.02142857142857,3.05L25.02142857142857,2.8357142857142854L24.807142857142857,2.8357142857142854L24.807142857142857,2.6214285714285714L24.59285714285714,2.6214285714285714L24.59285714285714,2.1928571428571426L24.378571428571426,2.1928571428571426L24.378571428571426,1.9785714285714286L23.95,1.9785714285714286L23.95,1.7642857142857145L23.735714285714284,1.7642857142857145L23.735714285714284,1.55L6.692857142857142,1.55L6.692857142857142,2.1928571428571426L6.05,2.1928571428571426L6.05,2.407142857142857L4.978571428571429,2.407142857142857L4.978571428571429,2.6214285714285714L4.121428571428571,2.6214285714285714L4.121428571428571,3.3785714285714286L4.55,3.3785714285714286z" stroke="none"/><path d="M2.95,7.5L3.05,7.5L3.05,10.021428571428569L3.2642857142857142,10.021428571428569L3.2642857142857142,10.235714285714284L3.478571428571428,10.235714285714284L3.478571428571428,10.45L4.121428571428571,10.45L4.121428571428571,10.878571428571426L6.907142857142857,10.878571428571426L6.907142857142857,11.092857142857142L7.335714285714285,11.092857142857142L7.335714285714285,11.307142857142857L7.55,11.307142857142857L7.55,11.521428571428569L7.978571428571428,11.521428571428569L7.978571428571428,11.735714285714284L8.62142857142857,11.735714285714284L8.62142857142857,12.378571428571426L22.235714285714284,12.378571428571426L22.235714285714284,12.164285714285715L22.664285714285715,12.164285714285715L22.664285714285715,11.735714285714284L23.09285714285714,11.735714285714284L23.09285714285714,11.307142857142857L23.307142857142857,11.307142857142857L23.307142857142857,11.092857142857142L23.735714285714284,11.092857142857142L23.735714285714284,10.45L24,10.45L24,10.55L23.835714285714285,10.55L23.835714285714285,11.192857142857143L23.40714285714286,11.192857142857143L23.40714285714286,11.407142857142858L23.192857142857143,11.407142857142858L23.192857142857143,11.835714285714285L22.764285714285716,11.835714285714285L22.764285714285716,12.264285714285716L22.335714285714285,12.264285714285716L22.335714285714285,12.478571428571428L8.521428571428569,12.478571428571428L8.521428571428569,11.835714285714285L7.878571428571428,11.835714285714285L7.878571428571428,11.62142857142857L7.45,11.62142857142857L7.45,11.407142857142858L7.235714285714286,11.407142857142858L7.235714285714286,11.192857142857143L6.807142857142857,11.192857142857143L6.807142857142857,10.978571428571428L4.021428571428571,10.978571428571428L4.021428571428571,10.55L3.3785714285714286,10.55L3.3785714285714286,10.335714285714285L3.1642857142857146,10.335714285714285L3.1642857142857146,10.12142857142857L2.95,10.12142857142857z" stroke="none"/><path d="M58.5,3.05L58.5,2.95L72.80714285714285,2.95L72.80714285714285,2.521428571428572L73.23571428571428,2.521428571428572L73.23571428571428,2.3071428571428574L73.44999999999999,2.3071428571428574L73.44999999999999,1.8785714285714286L75.59285714285714,1.8785714285714286L75.59285714285714,1.6642857142857144L75.80714285714285,1.6642857142857144L75.80714285714285,1.45L76.66428571428571,1.45L76.66428571428571,1.2357142857142858L76.87857142857142,1.2357142857142858L76.87857142857142,1.0214285714285716L77.73571428571428,1.0214285714285716L77.73571428571428,0.8071428571428572L97.12142857142855,0.8071428571428572L97.12142857142855,1.2357142857142858L98.19285714285712,1.2357142857142858L98.19285714285712,1.6642857142857144L98.83571428571427,1.6642857142857144L98.83571428571427,2.092857142857143L99.04999999999998,2.092857142857143L99.04999999999998,2.521428571428572L99.47857142857141,2.521428571428572L99.47857142857141,6.478571428571428L98.83571428571427,6.478571428571428L98.83571428571427,6.692857142857142L98.19285714285712,6.692857142857142L98.19285714285712,6.907142857142857L97.97857142857141,6.907142857142857L97.97857142857141,7.121428571428571L97.7642857142857,7.121428571428571L97.7642857142857,7.335714285714285L97.54999999999998,7.335714285714285L97.54999999999998,7.55L96.90714285714284,7.55L96.90714285714284,7.764285714285714L93.2642857142857,7.764285714285714L93.2642857142857,7.978571428571428L93.04999999999998,7.978571428571428L93.04999999999998,8.192857142857143L92.83571428571427,8.192857142857143L92.83571428571427,8.62142857142857L92.19285714285712,8.62142857142857L92.19285714285712,8.835714285714285L91.97857142857141,8.835714285714285L91.97857142857141,9.478571428571428L84.80714285714285,9.478571428571428L84.80714285714285,9.05L84.59285714285714,9.05L84.59285714285714,8.835714285714285L84.16428571428571,8.835714285714285L84.16428571428571,8.62142857142857L83.73571428571428,8.62142857142857L83.73571428571428,8.192857142857143L83.52142857142856,8.192857142857143L83.52142857142856,7.764285714285714L83.30714285714285,7.764285714285714L83.30714285714285,7.121428571428571L82.02142857142856,7.121428571428571L82.02142857142856,6.907142857142857L81.80714285714285,6.907142857142857L81.80714285714285,6.478571428571428L81.59285714285714,6.478571428571428L81.59285714285714,6.264285714285714L81.37857142857142,6.264285714285714L81.37857142857142,6.05L80.99999999999999,6.05L80.99999999999999,5.95L81.47857142857141,5.95L81.47857142857141,6.164285714285715L81.69285714285714,6.164285714285715L81.69285714285714,6.378571428571428L81.90714285714284,6.378571428571428L81.90714285714284,6.807142857142857L82.12142857142855,6.807142857142857L82.12142857142855,7.021428571428571L83.40714285714284,7.021428571428571L83.40714285714284,7.664285714285715L83.62142857142855,7.664285714285715L83.62142857142855,8.092857142857142L83.83571428571427,8.092857142857142L83.83571428571427,8.521428571428569L84.2642857142857,8.521428571428569L84.2642857142857,8.735714285714284L84.69285714285714,8.735714285714284L84.69285714285714,8.95L84.90714285714284,8.95L84.90714285714284,9.378571428571426L91.87857142857142,9.378571428571426L91.87857142857142,8.735714285714284L92.09285714285713,8.735714285714284L92.09285714285713,8.521428571428569L92.73571428571428,8.521428571428569L92.73571428571428,8.092857142857142L92.94999999999999,8.092857142857142L92.94999999999999,7.878571428571428L93.16428571428571,7.878571428571428L93.16428571428571,7.664285714285715L96.80714285714285,7.664285714285715L96.80714285714285,7.45L97.44999999999999,7.45L97.44999999999999,7.235714285714286L97.66428571428571,7.235714285714286L97.66428571428571,7.021428571428571L97.87857142857142,7.021428571428571L97.87857142857142,6.807142857142857L98.09285714285713,6.807142857142857L98.09285714285713,6.5928571428571425L98.73571428571428,6.5928571428571425L98.73571428571428,6.378571428571428L99.37857142857142,6.378571428571428L99.37857142857142,2.6214285714285714L98.94999999999999,2.6214285714285714L98.94999999999999,2.1928571428571426L98.73571428571428,2.1928571428571426L98.73571428571428,1.7642857142857145L98.09285714285713,1.7642857142857145L98.09285714285713,1.3357142857142859L97.02142857142856,1.3357142857142859L97.02142857142856,0.9071428571428573L77.83571428571427,0.9071428571428573L77.83571428571427,1.1214285714285717L76.97857142857141,1.1214285714285717L76.97857142857141,1.3357142857142859L76.7642857142857,1.3357142857142859L76.7642857142857,1.55L75.90714285714284,1.55L75.90714285714284,1.7642857142857145L75.69285714285714,1.7642857142857145L75.69285714285714,1.9785714285714286L73.54999999999998,1.9785714285714286L73.54999999999998,2.407142857142857L73.33571428571427,2.407142857142857L73.33571428571427,2.6214285714285714L72.90714285714284,2.6214285714285714L72.90714285714284,3.05z" stroke="none"/><path d="M40.55,10.5L40.45,10.5L40.45,8.835714285714285L40.02142857142857,8.835714285714285L40.02142857142857,8.62142857142857L37.55,8.62142857142857L37.55,8.835714285714285L37.33571428571428,8.835714285714285L37.33571428571428,9.05L37.12142857142857,9.05L37.12142857142857,9.264285714285716L36.90714285714285,9.264285714285716L36.90714285714285,9.692857142857143L25.12142857142857,9.692857142857143L25.12142857142857,10.12142857142857L23.62142857142857,10.12142857142857L23.62142857142857,10.55L23.40714285714286,10.55L23.40714285714286,10.764285714285716L21.90714285714286,10.764285714285716L21.90714285714286,10.978571428571428L17.40714285714286,10.978571428571428L17.40714285714286,11.62142857142857L17.192857142857143,11.62142857142857L17.192857142857143,11.835714285714285L16.764285714285716,11.835714285714285L16.764285714285716,12.05L16.5,12.05L16.5,11.95L16.664285714285715,11.95L16.664285714285715,11.735714285714284L17.09285714285714,11.735714285714284L17.09285714285714,11.521428571428569L17.307142857142857,11.521428571428569L17.307142857142857,10.878571428571426L21.807142857142857,10.878571428571426L21.807142857142857,10.664285714285715L23.307142857142857,10.664285714285715L23.307142857142857,10.45L23.52142857142857,10.45L23.52142857142857,10.021428571428569L25.02142857142857,10.021428571428569L25.02142857142857,9.592857142857142L36.80714285714286,9.592857142857142L36.80714285714286,9.164285714285715L37.02142857142857,9.164285714285715L37.02142857142857,8.95L37.23571428571429,8.95L37.23571428571429,8.735714285714284L37.45,8.735714285714284L37.45,8.521428571428569L40.12142857142857,8.521428571428569L40.12142857142857,8.735714285714284L40.55,8.735714285714284z" stroke="none"/><path d="M34.5,10.45L34.5,10.55L28.02142857142857,10.55L28.02142857142857,10.335714285714285L27.378571428571426,10.335714285714285L27.378571428571426,10.12142857142857L25.335714285714285,10.12142857142857L25.335714285714285,10.335714285714285L24.478571428571428,10.335714285714285L24.478571428571428,10.978571428571428L24.264285714285716,10.978571428571428L24.264285714285716,11.407142857142858L24.05,11.407142857142858L24.05,11.62142857142857L23.62142857142857,11.62142857142857L23.62142857142857,12.05L23.192857142857143,12.05L23.192857142857143,12.478571428571428L22.764285714285716,12.478571428571428L22.764285714285716,12.692857142857143L6.378571428571428,12.692857142857143L6.378571428571428,12.478571428571428L6.164285714285715,12.478571428571428L6.164285714285715,12.264285714285716L5.735714285714286,12.264285714285716L5.735714285714286,11.835714285714285L5.521428571428571,11.835714285714285L5.521428571428571,11.62142857142857L4.878571428571429,11.62142857142857L4.878571428571429,11.407142857142858L4.235714285714286,11.407142857142858L4.235714285714286,11.192857142857143L2.95,11.192857142857143L2.95,10.978571428571428L2.7357142857142858,10.978571428571428L2.7357142857142858,8.62142857142857L2.521428571428572,8.62142857142857L2.521428571428572,7.021428571428571L5.407142857142857,7.021428571428571L5.407142857142857,7.235714285714286L5.835714285714285,7.235714285714286L5.835714285714285,7.45L6,7.45L6,7.55L5.735714285714286,7.55L5.735714285714286,7.335714285714285L5.307142857142857,7.335714285714285L5.307142857142857,7.121428571428571L2.6214285714285714,7.121428571428571L2.6214285714285714,8.521428571428569L2.8357142857142854,8.521428571428569L2.8357142857142854,10.878571428571426L3.05,10.878571428571426L3.05,11.092857142857142L4.335714285714285,11.092857142857142L4.335714285714285,11.307142857142857L4.978571428571429,11.307142857142857L4.978571428571429,11.521428571428569L5.621428571428571,11.521428571428569L5.621428571428571,11.735714285714284L5.835714285714285,11.735714285714284L5.835714285714285,12.164285714285715L6.264285714285714,12.164285714285715L6.264285714285714,12.378571428571426L6.478571428571428,12.378571428571426L6.478571428571428,12.592857142857142L22.664285714285715,12.592857142857142L22.664285714285715,12.378571428571426L23.09285714285714,12.378571428571426L23.09285714285714,11.95L23.52142857142857,11.95L23.52142857142857,11.521428571428569L23.95,11.521428571428569L23.95,11.307142857142857L24.164285714285715,11.307142857142857L24.164285714285715,10.878571428571426L24.378571428571426,10.878571428571426L24.378571428571426,10.235714285714284L25.235714285714284,10.235714285714284L25.235714285714284,10.021428571428569L27.478571428571428,10.021428571428569L27.478571428571428,10.235714285714284L28.12142857142857,10.235714285714284L28.12142857142857,10.45z" stroke="none"/><path d="M31.5,3.05L31.5,2.95L40.02142857142857,2.95L40.02142857142857,2.521428571428572L47.73571428571429,2.521428571428572L47.73571428571429,2.3071428571428574L71.94999999999999,2.3071428571428574L71.94999999999999,2.092857142857143L72.80714285714285,2.092857142857143L72.80714285714285,1.8785714285714286L73.23571428571428,1.8785714285714286L73.23571428571428,1.6642857142857144L75.37857142857142,1.6642857142857144L75.37857142857142,1.2357142857142858L76.44999999999999,1.2357142857142858L76.44999999999999,0.8071428571428572L76.87857142857142,0.8071428571428572L76.87857142857142,0.592857142857143L98.40714285714284,0.592857142857143L98.40714285714284,0.8071428571428572L98.62142857142855,0.8071428571428572L98.62142857142855,1.0214285714285716L99.04999999999998,1.0214285714285716L99.04999999999998,1.8785714285714286L99.2642857142857,1.8785714285714286L99.2642857142857,2.3071428571428574L99.69285714285712,2.3071428571428574L99.69285714285712,6.692857142857142L99.04999999999998,6.692857142857142L99.04999999999998,6.907142857142857L98.83571428571427,6.907142857142857L98.83571428571427,7.335714285714285L98.62142857142855,7.335714285714285L98.62142857142855,7.55L97.7642857142857,7.55L97.7642857142857,7.764285714285714L97.12142857142855,7.764285714285714L97.12142857142855,7.978571428571428L93.69285714285712,7.978571428571428L93.69285714285712,8.192857142857143L93.2642857142857,8.192857142857143L93.2642857142857,8.62142857142857L93.04999999999998,8.62142857142857L93.04999999999998,8.835714285714285L92.83571428571427,8.835714285714285L92.83571428571427,9.05L92.19285714285712,9.05L92.19285714285712,9.692857142857143L83.30714285714285,9.692857142857143L83.30714285714285,8.835714285714285L83.09285714285714,8.835714285714285L83.09285714285714,8.62142857142857L82.23571428571428,8.62142857142857L82.23571428571428,8.407142857142858L69.16428571428571,8.407142857142858L69.16428571428571,8.192857142857143L68.94999999999999,8.192857142857143L68.94999999999999,7.978571428571428L67.87857142857142,7.978571428571428L67.87857142857142,7.764285714285714L67.02142857142856,7.764285714285714L67.02142857142856,7.55L66.59285714285714,7.55L66.59285714285714,7.335714285714285L66.37857142857142,7.335714285714285L66.37857142857142,7.121428571428571L66.16428571428571,7.121428571428571L66.16428571428571,6.907142857142857L65.52142857142856,6.907142857142857L65.52142857142856,6.692857142857142L64.44999999999999,6.692857142857142L64.44999999999999,6.478571428571428L64.23571428571428,6.478571428571428L64.23571428571428,6.05L64.02142857142857,6.05L64.02142857142857,5.621428571428571L62.62142857142857,5.621428571428571L62.62142857142857,7.235714285714286L63.05,7.235714285714286L63.05,7.5L62.95,7.5L62.95,7.335714285714285L62.52142857142857,7.335714285714285L62.52142857142857,5.521428571428571L64.12142857142857,5.521428571428571L64.12142857142857,5.95L64.33571428571427,5.95L64.33571428571427,6.378571428571428L64.54999999999998,6.378571428571428L64.54999999999998,6.5928571428571425L65.62142857142855,6.5928571428571425L65.62142857142855,6.807142857142857L66.2642857142857,6.807142857142857L66.2642857142857,7.021428571428571L66.47857142857141,7.021428571428571L66.47857142857141,7.235714285714286L66.69285714285714,7.235714285714286L66.69285714285714,7.45L67.12142857142855,7.45L67.12142857142855,7.664285714285715L67.97857142857141,7.664285714285715L67.97857142857141,7.878571428571428L69.04999999999998,7.878571428571428L69.04999999999998,8.092857142857142L69.2642857142857,8.092857142857142L69.2642857142857,8.307142857142857L82.33571428571427,8.307142857142857L82.33571428571427,8.521428571428569L83.19285714285714,8.521428571428569L83.19285714285714,8.735714285714284L83.40714285714284,8.735714285714284L83.40714285714284,9.592857142857142L92.09285714285713,9.592857142857142L92.09285714285713,8.95L92.73571428571428,8.95L92.73571428571428,8.735714285714284L92.94999999999999,8.735714285714284L92.94999999999999,8.521428571428569L93.16428571428571,8.521428571428569L93.16428571428571,8.092857142857142L93.59285714285713,8.092857142857142L93.59285714285713,7.878571428571428L97.02142857142856,7.878571428571428L97.02142857142856,7.664285714285715L97.66428571428571,7.664285714285715L97.66428571428571,7.45L98.52142857142856,7.45L98.52142857142856,7.235714285714286L98.73571428571428,7.235714285714286L98.73571428571428,6.807142857142857L98.94999999999999,6.807142857142857L98.94999999999999,6.5928571428571425L99.59285714285713,6.5928571428571425L99.59285714285713,2.407142857142857L99.16428571428571,2.407142857142857L99.16428571428571,1.9785714285714286L98.94999999999999,1.9785714285714286L98.94999999999999,1.1214285714285717L98.52142857142856,1.1214285714285717L98.52142857142856,0.9071428571428573L98.30714285714285,0.9071428571428573L98.30714285714285,0.6928571428571431L76.97857142857141,0.6928571428571431L76.97857142857141,0.9071428571428573L76.54999999999998,0.9071428571428573L76.54999999999998,1.3357142857142859L75.47857142857141,1.3357142857142859L75.47857142857141,1.7642857142857145L73.33571428571427,1.7642857142857145L73.33571428571427,1.9785714285714286L72.90714285714284,1.9785714285714286L72.90714285714284,2.1928571428571426L72.04999999999998,2.1928571428571426L72.04999999999998,2.407142857142857L47.83571428571428,2.407142857142857L47.83571428571428,2.6214285714285714L40.12142857142857,2.6214285714285714L40.12142857142857,3.05z" stroke="none"/><path d="M6,5.95L6,6.05L3.2642857142857142,6.05L3.2642857142857142,6.692857142857142L2.407142857142857,6.692857142857142L2.407142857142857,11.092857142857142L2.8357142857142854,11.092857142857142L2.8357142857142854,11.307142857142857L4.121428571428571,11.307142857142857L4.121428571428571,11.95L4.335714285714285,11.95L4.335714285714285,12.164285714285715L4.55,12.164285714285715L4.55,12.378571428571426L5.192857142857142,12.378571428571426L5.192857142857142,12.592857142857142L6.264285714285714,12.592857142857142L6.264285714285714,12.807142857142857L38.73571428571429,12.807142857142857L38.73571428571429,12.378571428571426L39.16428571428572,12.378571428571426L39.16428571428572,12.164285714285715L39.37857142857143,12.164285714285715L39.37857142857143,11.735714285714284L39.59285714285714,11.735714285714284L39.59285714285714,11.521428571428569L41.09285714285714,11.521428571428569L41.09285714285714,11.092857142857142L41.95,11.092857142857142L41.95,10.878571428571426L42.37857142857143,10.878571428571426L42.37857142857143,6.378571428571428L42.59285714285714,6.378571428571428L42.59285714285714,6.164285714285715L43.23571428571429,6.164285714285715L43.23571428571429,5.735714285714286L44.30714285714286,5.735714285714286L44.30714285714286,5.521428571428571L44.52142857142857,5.521428571428571L44.52142857142857,5.307142857142857L44.73571428571429,5.307142857142857L44.73571428571429,4.45L45,4.45L45,4.55L44.83571428571428,4.55L44.83571428571428,5.407142857142857L44.62142857142857,5.407142857142857L44.62142857142857,5.621428571428571L44.40714285714285,5.621428571428571L44.40714285714285,5.835714285714285L43.33571428571428,5.835714285714285L43.33571428571428,6.264285714285714L42.692857142857136,6.264285714285714L42.692857142857136,6.478571428571428L42.47857142857143,6.478571428571428L42.47857142857143,10.978571428571428L42.05,10.978571428571428L42.05,11.192857142857143L41.192857142857136,11.192857142857143L41.192857142857136,11.62142857142857L39.692857142857136,11.62142857142857L39.692857142857136,11.835714285714285L39.47857142857143,11.835714285714285L39.47857142857143,12.264285714285716L39.26428571428571,12.264285714285716L39.26428571428571,12.478571428571428L38.83571428571428,12.478571428571428L38.83571428571428,12.907142857142858L6.164285714285715,12.907142857142858L6.164285714285715,12.692857142857143L5.0928571428571425,12.692857142857143L5.0928571428571425,12.478571428571428L4.45,12.478571428571428L4.45,12.264285714285716L4.235714285714286,12.264285714285716L4.235714285714286,12.05L4.021428571428571,12.05L4.021428571428571,11.407142857142858L2.7357142857142858,11.407142857142858L2.7357142857142858,11.192857142857143L2.3071428571428574,11.192857142857143L2.3071428571428574,6.5928571428571425L3.1642857142857146,6.5928571428571425L3.1642857142857146,5.95z" stroke="none"/><path d="M60,11.95L60,12.05L50.192857142857136,12.05L50.192857142857136,12.264285714285716L49.97857142857142,12.264285714285716L49.97857142857142,12.478571428571428L40.97857142857143,12.478571428571428L40.97857142857143,12.907142857142858L40.76428571428571,12.907142857142858L40.76428571428571,13.12142857142857L3.8071428571428574,13.12142857142857L3.8071428571428574,12.264285714285716L3.1642857142857146,12.264285714285716L3.1642857142857146,11.835714285714285L2.7357142857142858,11.835714285714285L2.7357142857142858,11.62142857142857L2.521428571428572,11.62142857142857L2.521428571428572,11.407142857142858L2.092857142857143,11.407142857142858L2.092857142857143,6.378571428571428L2.521428571428572,6.378571428571428L2.521428571428572,6.164285714285715L2.7357142857142858,6.164285714285715L2.7357142857142858,5.735714285714286L5.0928571428571425,5.735714285714286L5.0928571428571425,5.521428571428571L6.478571428571428,5.521428571428571L6.478571428571428,6.5928571428571425L6.907142857142857,6.5928571428571425L6.907142857142857,6.807142857142857L7.335714285714285,6.807142857142857L7.335714285714285,8.092857142857142L10.664285714285715,8.092857142857142L10.664285714285715,7.878571428571428L14.092857142857142,7.878571428571428L14.092857142857142,7.235714285714286L14.307142857142857,7.235714285714286L14.307142857142857,7.021428571428571L16.12142857142857,7.021428571428571L16.12142857142857,7.235714285714286L16.335714285714285,7.235714285714286L16.335714285714285,7.664285714285715L16.55,7.664285714285715L16.55,7.878571428571428L16.764285714285716,7.878571428571428L16.764285714285716,8.307142857142857L16.978571428571428,8.307142857142857L16.978571428571428,8.521428571428569L17.192857142857143,8.521428571428569L17.192857142857143,8.735714285714284L18.05,8.735714285714284L18.05,9L17.95,9L17.95,8.835714285714285L17.09285714285714,8.835714285714285L17.09285714285714,8.62142857142857L16.878571428571426,8.62142857142857L16.878571428571426,8.407142857142858L16.664285714285715,8.407142857142858L16.664285714285715,7.978571428571428L16.45,7.978571428571428L16.45,7.764285714285714L16.235714285714284,7.764285714285714L16.235714285714284,7.335714285714285L16.02142857142857,7.335714285714285L16.02142857142857,7.121428571428571L14.407142857142858,7.121428571428571L14.407142857142858,7.335714285714285L14.192857142857143,7.335714285714285L14.192857142857143,7.978571428571428L10.764285714285716,7.978571428571428L10.764285714285716,8.192857142857143L7.235714285714286,8.192857142857143L7.235714285714286,6.907142857142857L6.807142857142857,6.907142857142857L6.807142857142857,6.692857142857142L6.378571428571428,6.692857142857142L6.378571428571428,5.621428571428571L5.192857142857142,5.621428571428571L5.192857142857142,5.835714285714285L2.8357142857142854,5.835714285714285L2.8357142857142854,6.264285714285714L2.6214285714285714,6.264285714285714L2.6214285714285714,6.478571428571428L2.1928571428571426,6.478571428571428L2.1928571428571426,11.307142857142857L2.6214285714285714,11.307142857142857L2.6214285714285714,11.521428571428569L2.8357142857142854,11.521428571428569L2.8357142857142854,11.735714285714284L3.2642857142857142,11.735714285714284L3.2642857142857142,12.164285714285715L3.907142857142857,12.164285714285715L3.907142857142857,13.021428571428569L40.66428571428572,13.021428571428569L40.66428571428572,12.807142857142857L40.87857142857143,12.807142857142857L40.87857142857143,12.378571428571426L49.878571428571426,12.378571428571426L49.878571428571426,12.164285714285715L50.09285714285714,12.164285714285715L50.09285714285714,11.95z" stroke="none"/><path d="M49.5,12.05L49.5,11.95L49.878571428571426,11.95L49.878571428571426,11.735714285714284L59.52142857142857,11.735714285714284L59.52142857142857,11.521428571428569L65.83571428571427,11.521428571428569L65.83571428571427,11.735714285714284L77.19285714285714,11.735714285714284L77.19285714285714,12.164285714285715L77.40714285714284,12.164285714285715L77.40714285714284,12.592857142857142L101.94999999999999,12.592857142857142L101.94999999999999,12.378571428571426L102.37857142857142,12.378571428571426L102.37857142857142,11.407142857142858L101.94999999999999,11.407142857142858L101.94999999999999,11.192857142857143L101.73571428571428,11.192857142857143L101.73571428571428,10.978571428571428L99.37857142857142,10.978571428571428L99.37857142857142,10.764285714285716L98.94999999999999,10.764285714285716L98.94999999999999,10.5L99.04999999999998,10.5L99.04999999999998,10.664285714285715L99.47857142857141,10.664285714285715L99.47857142857141,10.878571428571426L101.83571428571427,10.878571428571426L101.83571428571427,11.092857142857142L102.04999999999998,11.092857142857142L102.04999999999998,11.307142857142857L102.47857142857141,11.307142857142857L102.47857142857141,12.478571428571428L102.04999999999998,12.478571428571428L102.04999999999998,12.692857142857143L77.30714285714285,12.692857142857143L77.30714285714285,12.264285714285716L77.09285714285714,12.264285714285716L77.09285714285714,11.835714285714285L65.73571428571428,11.835714285714285L65.73571428571428,11.62142857142857L59.62142857142857,11.62142857142857L59.62142857142857,11.835714285714285L49.97857142857142,11.835714285714285L49.97857142857142,12.05z" stroke="none"/></svg>