<svg version="1.1" width="105" height="15" xmlns="http://www.w3.org/2000/svg"><path d="M16.878571428571426,5.307142857142857L16.878571428571426,4.45L18,4.45L18,4.55L16.978571428571428,4.55L16.978571428571428,5.407142857142857L14.407142857142858,5.407142857142857L14.407142857142858,6.05L14.192857142857143,6.05L14.192857142857143,6.264285714285714L13.764285714285716,6.264285714285714L13.764285714285716,6.478571428571428L13.55,6.478571428571428L13.55,7.5L13.45,7.5L13.45,6.378571428571428L13.664285714285715,6.378571428571428L13.664285714285715,6.164285714285715L14.092857142857142,6.164285714285715L14.092857142857142,5.95L14.307142857142857,5.95L14.307142857142857,5.407142857142857L13.664285714285715,5.407142857142857L13.664285714285715,5.192857142857142L13.021428571428569,5.192857142857142L13.021428571428569,4.55L12,4.55L12,4.45L13.12142857142857,4.45L13.12142857142857,5.0928571428571425L13.764285714285716,5.0928571428571425L13.764285714285716,5.307142857142857z" stroke="none"/><path d="M28.878571428571426,7.45L28.878571428571426,6.907142857142857L28.02142857142857,6.907142857142857L28.02142857142857,6.478571428571428L27.807142857142857,6.478571428571428L27.807142857142857,6.264285714285714L27.164285714285715,6.264285714285714L27.164285714285715,6.05L27,6.05L27,5.95L27.264285714285716,5.95L27.264285714285716,6.164285714285715L27.90714285714286,6.164285714285715L27.90714285714286,6.378571428571428L28.12142857142857,6.378571428571428L28.12142857142857,6.807142857142857L28.978571428571428,6.807142857142857L28.978571428571428,7.45L40.97857142857143,7.45L40.97857142857143,7.664285714285715L41.192857142857136,7.664285714285715L41.192857142857136,8.307142857142857L41.40714285714285,8.307142857142857L41.40714285714285,9.807142857142857L41.83571428571428,9.807142857142857L41.83571428571428,10.45L43.5,10.45L43.5,10.55L41.73571428571429,10.55L41.73571428571429,9.907142857142858L41.30714285714286,9.907142857142858L41.30714285714286,8.407142857142858L41.09285714285714,8.407142857142858L41.09285714285714,7.764285714285714L40.87857142857143,7.764285714285714L40.87857142857143,7.55L17.735714285714284,7.55L17.735714285714284,7.335714285714285L17.521428571428572,7.335714285714285L17.521428571428572,7.121428571428571L17.307142857142857,7.121428571428571L17.307142857142857,6.907142857142857L16.664285714285715,6.907142857142857L16.664285714285715,6.692857142857142L16.45,6.692857142857142L16.45,6L16.55,6L16.55,6.5928571428571425L16.764285714285716,6.5928571428571425L16.764285714285716,6.807142857142857L17.40714285714286,6.807142857142857L17.40714285714286,7.021428571428571L17.621428571428574,7.021428571428571L17.621428571428574,7.235714285714286L17.835714285714285,7.235714285714286L17.835714285714285,7.45z" stroke="none"/><path d="M64.02142857142857,8.95L64.02142857142857,8.521428571428569L71.52142857142856,8.521428571428569L71.52142857142856,7.45L71.99999999999999,7.45L71.99999999999999,7.55L71.62142857142855,7.55L71.62142857142855,8.62142857142857L64.12142857142857,8.62142857142857L64.12142857142857,9.05L60.47857142857142,9.05L60.47857142857142,11.407142857142858L60.26428571428571,11.407142857142858L60.26428571428571,11.62142857142857L60.05,11.62142857142857L60.05,12L59.95,12L59.95,11.521428571428569L60.16428571428572,11.521428571428569L60.16428571428572,11.307142857142857L60.378571428571426,11.307142857142857L60.378571428571426,9.05L50.73571428571429,9.05L50.73571428571429,8.835714285714285L50.09285714285714,8.835714285714285L50.09285714285714,8.192857142857143L49.878571428571426,8.192857142857143L49.878571428571426,7.764285714285714L49.45,7.764285714285714L49.45,7.5L49.55,7.5L49.55,7.664285714285715L49.97857142857142,7.664285714285715L49.97857142857142,8.092857142857142L50.192857142857136,8.092857142857142L50.192857142857136,8.735714285714284L50.83571428571428,8.735714285714284L50.83571428571428,8.95z" stroke="none"/><path d="M15.378571428571426,7.235714285714286L15.907142857142858,7.235714285714286L15.907142857142858,7.664285714285715L16.12142857142857,7.664285714285715L16.12142857142857,7.878571428571428L24.478571428571428,7.878571428571428L24.478571428571428,8.95L24.692857142857143,8.95L24.692857142857143,9.378571428571426L24.90714285714286,9.378571428571426L24.90714285714286,10.021428571428569L25.335714285714285,10.021428571428569L25.335714285714285,10.235714285714284L25.55,10.235714285714284L25.55,10.5L25.45,10.5L25.45,10.335714285714285L25.235714285714284,10.335714285714285L25.235714285714284,10.12142857142857L24.807142857142857,10.12142857142857L24.807142857142857,9.478571428571428L24.59285714285714,9.478571428571428L24.59285714285714,9.05L24.378571428571426,9.05L24.378571428571426,7.978571428571428L16.02142857142857,7.978571428571428L16.02142857142857,7.764285714285714L15.807142857142857,7.764285714285714L15.807142857142857,7.335714285714285L15.478571428571428,7.335714285714285L15.478571428571428,7.45L15.692857142857143,7.45L15.692857142857143,8.192857142857143L11.521428571428569,8.192857142857143L11.521428571428569,7.978571428571428L10.878571428571426,7.978571428571428L10.878571428571426,7.121428571428571L10.45,7.121428571428571L10.45,6.907142857142857L10.235714285714284,6.907142857142857L10.235714285714284,6.478571428571428L9.807142857142857,6.478571428571428L9.807142857142857,6.264285714285714L9.378571428571426,6.264285714285714L9.378571428571426,6.05L9,6.05L9,5.95L9.478571428571428,5.95L9.478571428571428,6.164285714285715L9.907142857142858,6.164285714285715L9.907142857142858,6.378571428571428L10.335714285714285,6.378571428571428L10.335714285714285,6.807142857142857L10.55,6.807142857142857L10.55,7.021428571428571L10.978571428571428,7.021428571428571L10.978571428571428,7.878571428571428L11.62142857142857,7.878571428571428L11.62142857142857,8.092857142857142L15.592857142857142,8.092857142857142L15.592857142857142,7.55L15.478571428571428,7.55L15.478571428571428,7.978571428571428L13.021428571428569,7.978571428571428L13.021428571428569,6.478571428571428L12.592857142857142,6.478571428571428L12.592857142857142,6.05L12,6.05L12,5.95L12.692857142857143,5.95L12.692857142857143,6.378571428571428L13.12142857142857,6.378571428571428L13.12142857142857,7.878571428571428L15.378571428571426,7.878571428571428z" stroke="none"/><path d="M56.09285714285714,8.092857142857142L56.09285714285714,7.664285714285715L56.30714285714286,7.664285714285715L56.30714285714286,7.235714285714286L70.66428571428571,7.235714285714286L70.66428571428571,7.021428571428571L72.47857142857141,7.021428571428571L72.47857142857141,7.978571428571428L72.2642857142857,7.978571428571428L72.2642857142857,8.407142857142858L72.04999999999998,8.407142857142858L72.04999999999998,8.62142857142857L71.83571428571427,8.62142857142857L71.83571428571427,8.835714285714285L69.69285714285714,8.835714285714285L69.69285714285714,9.05L67.49999999999999,9.05L67.49999999999999,8.95L69.59285714285714,8.95L69.59285714285714,8.735714285714284L71.73571428571428,8.735714285714284L71.73571428571428,8.521428571428569L71.94999999999999,8.521428571428569L71.94999999999999,8.307142857142857L72.16428571428571,8.307142857142857L72.16428571428571,7.878571428571428L72.37857142857142,7.878571428571428L72.37857142857142,7.121428571428571L70.7642857142857,7.121428571428571L70.7642857142857,7.335714285714285L56.40714285714285,7.335714285714285L56.40714285714285,7.764285714285714L56.192857142857136,7.764285714285714L56.192857142857136,8.092857142857142L56.30714285714286,8.092857142857142L56.30714285714286,7.878571428571428L56.52142857142857,7.878571428571428L56.52142857142857,7.45L57,7.45L57,7.55L56.62142857142857,7.55L56.62142857142857,7.978571428571428L56.40714285714285,7.978571428571428L56.40714285714285,8.192857142857143L56.192857142857136,8.192857142857143L56.192857142857136,8.407142857142858L50.95,8.407142857142858L50.95,8.192857142857143L50.52142857142857,8.192857142857143L50.52142857142857,7.764285714285714L50.09285714285714,7.764285714285714L50.09285714285714,7.335714285714285L49.878571428571426,7.335714285714285L49.878571428571426,7.121428571428571L29.09285714285714,7.121428571428571L29.09285714285714,6.692857142857142L28.45,6.692857142857142L28.45,6L28.55,6L28.55,6.5928571428571425L29.192857142857143,6.5928571428571425L29.192857142857143,7.021428571428571L49.97857142857142,7.021428571428571L49.97857142857142,7.235714285714286L50.192857142857136,7.235714285714286L50.192857142857136,7.664285714285715L50.62142857142857,7.664285714285715L50.62142857142857,8.092857142857142L51.05,8.092857142857142L51.05,8.307142857142857L56.09285714285714,8.307142857142857L56.09285714285714,8.192857142857143L55.878571428571426,8.192857142857143L55.878571428571426,7.235714285714286L56.09285714285714,7.235714285714286L56.09285714285714,7.021428571428571L70.02142857142856,7.021428571428571L70.02142857142856,6.807142857142857L72.69285714285714,6.807142857142857L72.69285714285714,10.12142857142857L72.2642857142857,10.12142857142857L72.2642857142857,10.55L71.99999999999999,10.55L71.99999999999999,10.45L72.16428571428571,10.45L72.16428571428571,10.021428571428569L72.59285714285714,10.021428571428569L72.59285714285714,6.907142857142857L70.12142857142855,6.907142857142857L70.12142857142855,7.121428571428571L56.192857142857136,7.121428571428571L56.192857142857136,7.335714285714285L55.97857142857142,7.335714285714285L55.97857142857142,8.092857142857142z" stroke="none"/><path d="M18.59285714285714,4.45L18.59285714285714,4.335714285714285L18.378571428571426,4.335714285714285L18.378571428571426,4.121428571428571L13.664285714285715,4.121428571428571L13.664285714285715,3.907142857142857L13.45,3.907142857142857L13.45,3L13.55,3L13.55,3.8071428571428574L13.764285714285716,3.8071428571428574L13.764285714285716,4.021428571428571L18.478571428571428,4.021428571428571L18.478571428571428,4.235714285714286L18.692857142857143,4.235714285714286L18.692857142857143,4.45L20.307142857142857,4.45L20.307142857142857,3.592857142857143L20.735714285714284,3.592857142857143L20.735714285714284,3.1642857142857146L20.95,3.1642857142857146L20.95,3L21.05,3L21.05,3.2642857142857142L20.835714285714285,3.2642857142857142L20.835714285714285,3.6928571428571426L20.40714285714286,3.6928571428571426L20.40714285714286,4.55L18.692857142857143,4.55L18.692857142857143,4.664285714285715L20.521428571428572,4.664285714285715L20.521428571428572,4.021428571428571L20.735714285714284,4.021428571428571L20.735714285714284,3.8071428571428574L21.164285714285715,3.8071428571428574L21.164285714285715,2.8357142857142854L6.478571428571428,2.8357142857142854L6.478571428571428,3.478571428571428L6.264285714285714,3.478571428571428L6.264285714285714,3.6928571428571426L5.835714285714285,3.6928571428571426L5.835714285714285,3.907142857142857L5.407142857142857,3.907142857142857L5.407142857142857,5.192857142857142L4.55,5.192857142857142L4.55,5.621428571428571L3.907142857142857,5.621428571428571L3.907142857142857,5.835714285714285L3.6928571428571426,5.835714285714285L3.6928571428571426,6.692857142857142L3.478571428571428,6.692857142857142L3.478571428571428,7.121428571428571L3.05,7.121428571428571L3.05,7.5L2.95,7.5L2.95,7.021428571428571L3.3785714285714286,7.021428571428571L3.3785714285714286,6.5928571428571425L3.592857142857143,6.5928571428571425L3.592857142857143,5.735714285714286L3.8071428571428574,5.735714285714286L3.8071428571428574,5.521428571428571L4.45,5.521428571428571L4.45,5.0928571428571425L5.307142857142857,5.0928571428571425L5.307142857142857,3.8071428571428574L5.735714285714286,3.8071428571428574L5.735714285714286,3.592857142857143L6.164285714285715,3.592857142857143L6.164285714285715,3.3785714285714286L6.378571428571428,3.3785714285714286L6.378571428571428,2.7357142857142858L21.264285714285716,2.7357142857142858L21.264285714285716,3.907142857142857L20.835714285714285,3.907142857142857L20.835714285714285,4.121428571428571L20.621428571428574,4.121428571428571L20.621428571428574,4.764285714285714L18.59285714285714,4.764285714285714L18.59285714285714,4.55L18.478571428571428,4.55L18.478571428571428,4.878571428571429L34.02142857142857,4.878571428571429L34.02142857142857,4.45L36,4.45L36,4.55L34.12142857142857,4.55L34.12142857142857,4.978571428571429L18.378571428571426,4.978571428571429L18.378571428571426,4.45z" stroke="none"/><path d="M69.59285714285714,4.021428571428571L69.59285714285714,3.907142857142857L43.33571428571428,3.907142857142857L43.33571428571428,4.335714285714285L43.12142857142857,4.335714285714285L43.12142857142857,4.55L42,4.55L42,4.45L43.02142857142857,4.45L43.02142857142857,4.235714285714286L43.23571428571429,4.235714285714286L43.23571428571429,3.8071428571428574L69.69285714285714,3.8071428571428574L69.69285714285714,4.021428571428571L81.59285714285714,4.021428571428571L81.59285714285714,3.8071428571428574L83.09285714285714,3.8071428571428574L83.09285714285714,3.592857142857143L83.52142857142856,3.592857142857143L83.52142857142856,3.3785714285714286L83.94999999999999,3.3785714285714286L83.94999999999999,3L84.04999999999998,3L84.04999999999998,3.478571428571428L83.62142857142855,3.478571428571428L83.62142857142855,3.6928571428571426L83.19285714285714,3.6928571428571426L83.19285714285714,3.907142857142857L81.69285714285714,3.907142857142857L81.69285714285714,4.121428571428571L69.69285714285714,4.121428571428571L69.69285714285714,4.235714285714286L80.40714285714284,4.235714285714286L80.40714285714284,4.664285714285715L80.62142857142855,4.664285714285715L80.62142857142855,4.878571428571429L84.80714285714285,4.878571428571429L84.80714285714285,4.664285714285715L88.23571428571428,4.664285714285715L88.23571428571428,4.45L88.49999999999999,4.45L88.49999999999999,4.55L88.33571428571427,4.55L88.33571428571427,4.764285714285714L84.90714285714284,4.764285714285714L84.90714285714284,4.978571428571429L80.52142857142856,4.978571428571429L80.52142857142856,4.764285714285714L80.30714285714285,4.764285714285714L80.30714285714285,4.335714285714285L69.59285714285714,4.335714285714285L69.59285714285714,4.121428571428571L65.19285714285714,4.121428571428571L65.19285714285714,4.55L64.49999999999999,4.55L64.49999999999999,4.45L65.09285714285714,4.45L65.09285714285714,4.021428571428571z" stroke="none"/><path d="M35.52142857142857,10.021428571428569L35.52142857142857,9.907142857142858L31.235714285714284,9.907142857142858L31.235714285714284,9.478571428571428L31.02142857142857,9.478571428571428L31.02142857142857,8.835714285714285L29.835714285714285,8.835714285714285L29.835714285714285,10.335714285714285L27.90714285714286,10.335714285714285L27.90714285714286,10.55L25.978571428571428,10.55L25.978571428571428,10.978571428571428L22.335714285714285,10.978571428571428L22.335714285714285,11.407142857142858L21.264285714285716,11.407142857142858L21.264285714285716,12.05L21,12.05L21,11.95L21.164285714285715,11.95L21.164285714285715,11.307142857142857L22.235714285714284,11.307142857142857L22.235714285714284,10.878571428571426L25.878571428571426,10.878571428571426L25.878571428571426,10.45L27.807142857142857,10.45L27.807142857142857,10.235714285714284L29.735714285714284,10.235714285714284L29.735714285714284,8.735714285714284L31.12142857142857,8.735714285714284L31.12142857142857,9.378571428571426L31.335714285714285,9.378571428571426L31.335714285714285,9.807142857142857L35.62142857142857,9.807142857142857L35.62142857142857,10.021428571428569L41.62142857142857,10.021428571428569L41.62142857142857,10.664285714285715L43.12142857142857,10.664285714285715L43.12142857142857,10.878571428571426L43.87857142857143,10.878571428571426L43.87857142857143,8.62142857142857L43.45,8.62142857142857L43.45,8.407142857142858L43.02142857142857,8.407142857142858L43.02142857142857,7.978571428571428L42.59285714285714,7.978571428571428L42.59285714285714,7.764285714285714L41.95,7.764285714285714L41.95,7.5L42.05,7.5L42.05,7.664285714285715L42.692857142857136,7.664285714285715L42.692857142857136,7.878571428571428L43.12142857142857,7.878571428571428L43.12142857142857,8.307142857142857L43.55,8.307142857142857L43.55,8.521428571428569L43.97857142857143,8.521428571428569L43.97857142857143,10.978571428571428L43.02142857142857,10.978571428571428L43.02142857142857,10.764285714285716L41.52142857142857,10.764285714285716L41.52142857142857,10.12142857142857L35.62142857142857,10.12142857142857L35.62142857142857,10.235714285714284L40.76428571428571,10.235714285714284L40.76428571428571,10.664285714285715L40.97857142857143,10.664285714285715L40.97857142857143,10.878571428571426L42.90714285714285,10.878571428571426L42.90714285714285,11.092857142857142L49.33571428571428,11.092857142857142L49.33571428571428,11.95L49.5,11.95L49.5,12.05L49.23571428571429,12.05L49.23571428571429,11.192857142857143L42.80714285714286,11.192857142857143L42.80714285714286,10.978571428571428L40.87857142857143,10.978571428571428L40.87857142857143,10.764285714285716L40.66428571428572,10.764285714285716L40.66428571428572,10.335714285714285L35.52142857142857,10.335714285714285L35.52142857142857,10.12142857142857L30.59285714285714,10.12142857142857L30.59285714285714,9.692857142857143L30.164285714285715,9.692857142857143L30.164285714285715,9.478571428571428L29.95,9.478571428571428L29.95,9L30.05,9L30.05,9.378571428571426L30.264285714285716,9.378571428571426L30.264285714285716,9.592857142857142L30.692857142857143,9.592857142857142L30.692857142857143,10.021428571428569z" stroke="none"/><path d="M7.45,9L7.55,9L7.55,10.5L7.45,10.5z" stroke="none"/><path d="M94.44999999999999,10.5L94.54999999999998,10.5L94.54999999999998,11.192857142857143L93.2642857142857,11.192857142857143L93.2642857142857,11.835714285714285L93.04999999999998,11.835714285714285L93.04999999999998,12L92.94999999999999,12L92.94999999999999,11.735714285714284L93.16428571428571,11.735714285714284L93.16428571428571,11.092857142857142L94.44999999999999,11.092857142857142z" stroke="none"/><path d="M67.49999999999999,4.55L67.49999999999999,4.45L67.7642857142857,4.45L67.7642857142857,4.664285714285715L68.40714285714284,4.664285714285715L68.40714285714284,4.878571428571429L68.62142857142855,4.878571428571429L68.62142857142855,5.0928571428571425L68.83571428571427,5.0928571428571425L68.83571428571427,5.307142857142857L69.04999999999998,5.307142857142857L69.04999999999998,5.521428571428571L69.69285714285714,5.521428571428571L69.69285714285714,5.735714285714286L70.33571428571427,5.735714285714286L70.33571428571427,5.95L70.49999999999999,5.95L70.49999999999999,6.05L70.23571428571428,6.05L70.23571428571428,5.835714285714285L69.59285714285714,5.835714285714285L69.59285714285714,5.621428571428571L68.94999999999999,5.621428571428571L68.94999999999999,5.407142857142857L68.73571428571428,5.407142857142857L68.73571428571428,5.192857142857142L68.52142857142856,5.192857142857142L68.52142857142856,4.978571428571429L68.30714285714285,4.978571428571429L68.30714285714285,4.764285714285714L67.66428571428571,4.764285714285714L67.66428571428571,4.55z" stroke="none"/><path d="M19.55,12L19.45,12L19.45,11.407142857142858L18.164285714285715,11.407142857142858L18.164285714285715,11.192857142857143L17.95,11.192857142857143L17.95,10.764285714285716L17.521428571428572,10.764285714285716L17.521428571428572,10.55L17.09285714285714,10.55L17.09285714285714,10.12142857142857L16.878571428571426,10.12142857142857L16.878571428571426,9.264285714285716L16.664285714285715,9.264285714285716L16.664285714285715,9.05L16.5,9.05L16.5,8.95L16.764285714285716,8.95L16.764285714285716,9.164285714285715L16.978571428571428,9.164285714285715L16.978571428571428,10.021428571428569L17.192857142857143,10.021428571428569L17.192857142857143,10.45L17.621428571428574,10.45L17.621428571428574,10.664285714285715L18.05,10.664285714285715L18.05,11.092857142857142L18.264285714285716,11.092857142857142L18.264285714285716,11.307142857142857L19.55,11.307142857142857z" stroke="none"/><path d="M55.5,11.95L55.5,12.05L53.09285714285714,12.05L53.09285714285714,11.407142857142858L51.80714285714286,11.407142857142858L51.80714285714286,10.764285714285716L50.95,10.764285714285716L50.95,10.5L51.05,10.5L51.05,10.664285714285715L51.90714285714285,10.664285714285715L51.90714285714285,11.307142857142857L53.192857142857136,11.307142857142857L53.192857142857136,11.95z" stroke="none"/><path d="M25.5,4.55L25.5,4.45L29.735714285714284,4.45L29.735714285714284,3.3785714285714286L29.95,3.3785714285714286L29.95,3L30.05,3L30.05,3.478571428571428L29.835714285714285,3.478571428571428L29.835714285714285,4.55z" stroke="none"/><path d="M91.49999999999999,10.45L91.49999999999999,10.55L89.73571428571428,10.55L89.73571428571428,10.12142857142857L89.52142857142856,10.12142857142857L89.52142857142856,9.907142857142858L89.30714285714285,9.907142857142858L89.30714285714285,9.264285714285716L89.09285714285714,9.264285714285716L89.09285714285714,9.05L88.87857142857142,9.05L88.87857142857142,8.62142857142857L88.44999999999999,8.62142857142857L88.44999999999999,7.978571428571428L88.02142857142856,7.978571428571428L88.02142857142856,7.764285714285714L87.37857142857142,7.764285714285714L87.37857142857142,7.55L86.99999999999999,7.55L86.99999999999999,7.45L87.47857142857141,7.45L87.47857142857141,7.664285714285715L88.12142857142855,7.664285714285715L88.12142857142855,7.878571428571428L88.54999999999998,7.878571428571428L88.54999999999998,8.521428571428569L88.97857142857141,8.521428571428569L88.97857142857141,8.95L89.19285714285714,8.95L89.19285714285714,9.164285714285715L89.40714285714284,9.164285714285715L89.40714285714284,9.807142857142857L89.62142857142855,9.807142857142857L89.62142857142855,10.021428571428569L89.83571428571427,10.021428571428569L89.83571428571427,10.45z" stroke="none"/><path d="M88.54999999999998,9L88.44999999999999,9L88.44999999999999,8.835714285714285L88.23571428571428,8.835714285714285L88.23571428571428,8.407142857142858L88.02142857142856,8.407142857142858L88.02142857142856,8.192857142857143L87.80714285714285,8.192857142857143L87.80714285714285,7.978571428571428L86.52142857142856,7.978571428571428L86.52142857142856,7.021428571428571L87.16428571428571,7.021428571428571L87.16428571428571,6.378571428571428L87.80714285714285,6.378571428571428L87.80714285714285,5.95L88.44999999999999,5.95L88.44999999999999,4.878571428571429L88.87857142857142,4.878571428571429L88.87857142857142,4.121428571428571L84.90714285714284,4.121428571428571L84.90714285714284,4.335714285714285L84.69285714285714,4.335714285714285L84.69285714285714,4.55L83.99999999999999,4.55L83.99999999999999,4.45L84.59285714285714,4.45L84.59285714285714,4.235714285714286L84.80714285714285,4.235714285714286L84.80714285714285,4.021428571428571L88.97857142857141,4.021428571428571L88.97857142857141,4.978571428571429L88.54999999999998,4.978571428571429L88.54999999999998,6.05L87.90714285714284,6.05L87.90714285714284,6.478571428571428L87.2642857142857,6.478571428571428L87.2642857142857,7.121428571428571L86.62142857142855,7.121428571428571L86.62142857142855,7.878571428571428L87.90714285714284,7.878571428571428L87.90714285714284,8.092857142857142L88.12142857142855,8.092857142857142L88.12142857142855,8.307142857142857L88.33571428571427,8.307142857142857L88.33571428571427,8.735714285714284L88.54999999999998,8.735714285714284z" stroke="none"/><path d="M7.45,4.5L7.55,4.5L7.55,5.835714285714285L6.907142857142857,5.835714285714285L6.907142857142857,6.478571428571428L6.05,6.478571428571428L6.05,6.692857142857142L5.621428571428571,6.692857142857142L5.621428571428571,6.907142857142857L4.764285714285714,6.907142857142857L4.764285714285714,7.764285714285714L4.55,7.764285714285714L4.55,8.192857142857143L3.907142857142857,8.192857142857143L3.907142857142857,8.835714285714285L3.6928571428571426,8.835714285714285L3.6928571428571426,9.05L3,9.05L3,8.95L3.592857142857143,8.95L3.592857142857143,8.735714285714284L3.8071428571428574,8.735714285714284L3.8071428571428574,8.092857142857142L4.45,8.092857142857142L4.45,7.664285714285715L4.664285714285715,7.664285714285715L4.664285714285715,6.807142857142857L5.521428571428571,6.807142857142857L5.521428571428571,6.5928571428571425L5.95,6.5928571428571425L5.95,6.378571428571428L6.807142857142857,6.378571428571428L6.807142857142857,5.735714285714286L7.45,5.735714285714286z" stroke="none"/><path d="M84.04999999999998,12L83.94999999999999,12L83.94999999999999,9.05L83.73571428571428,9.05L83.73571428571428,8.835714285714285L83.30714285714285,8.835714285714285L83.30714285714285,8.407142857142858L82.23571428571428,8.407142857142858L82.23571428571428,7.978571428571428L82.02142857142856,7.978571428571428L82.02142857142856,7.764285714285714L80.09285714285714,7.764285714285714L80.09285714285714,7.55L79.49999999999999,7.55L79.49999999999999,7.45L80.19285714285714,7.45L80.19285714285714,7.664285714285715L82.12142857142855,7.664285714285715L82.12142857142855,7.878571428571428L82.33571428571427,7.878571428571428L82.33571428571427,8.307142857142857L83.40714285714284,8.307142857142857L83.40714285714284,8.735714285714284L83.83571428571427,8.735714285714284L83.83571428571427,8.95L84.04999999999998,8.95z" stroke="none"/><path d="M10.5,11.95L10.5,12.05L4.878571428571429,12.05L4.878571428571429,11.835714285714285L4.235714285714286,11.835714285714285L4.235714285714286,10.978571428571428L4.021428571428571,10.978571428571428L4.021428571428571,10.12142857142857L3.8071428571428574,10.12142857142857L3.8071428571428574,9.907142857142858L2.7357142857142858,9.907142857142858L2.7357142857142858,9.478571428571428L2.521428571428572,9.478571428571428L2.521428571428572,6.378571428571428L2.95,6.378571428571428L2.95,4.664285714285715L3.8071428571428574,4.664285714285715L3.8071428571428574,4.235714285714286L4.235714285714286,4.235714285714286L4.235714285714286,4.021428571428571L4.45,4.021428571428571L4.45,3.592857142857143L5.521428571428571,3.592857142857143L5.521428571428571,2.95L5.735714285714286,2.95L5.735714285714286,2.7357142857142858L6.164285714285715,2.7357142857142858L6.164285714285715,2.521428571428572L33.47857142857143,2.521428571428572L33.47857142857143,2.7357142857142858L33.692857142857136,2.7357142857142858L33.692857142857136,2.95L34.12142857142857,2.95L34.12142857142857,3.1642857142857146L34.97857142857143,3.1642857142857146L34.97857142857143,3.3785714285714286L36.26428571428571,3.3785714285714286L36.26428571428571,3.592857142857143L36.47857142857143,3.592857142857143L36.47857142857143,4.978571428571429L34.33571428571428,4.978571428571429L34.33571428571428,5.192857142857142L17.192857142857143,5.192857142857142L17.192857142857143,5.621428571428571L16.12142857142857,5.621428571428571L16.12142857142857,7.235714285714286L16.335714285714285,7.235714285714286L16.335714285714285,7.45L16.5,7.45L16.5,7.55L16.235714285714284,7.55L16.235714285714284,7.335714285714285L16.02142857142857,7.335714285714285L16.02142857142857,5.521428571428571L17.09285714285714,5.521428571428571L17.09285714285714,5.0928571428571425L34.23571428571429,5.0928571428571425L34.23571428571429,4.878571428571429L36.37857142857143,4.878571428571429L36.37857142857143,3.6928571428571426L36.16428571428572,3.6928571428571426L36.16428571428572,3.478571428571428L34.87857142857143,3.478571428571428L34.87857142857143,3.2642857142857142L34.02142857142857,3.2642857142857142L34.02142857142857,3.05L33.59285714285714,3.05L33.59285714285714,2.8357142857142854L33.37857142857143,2.8357142857142854L33.37857142857143,2.6214285714285714L6.264285714285714,2.6214285714285714L6.264285714285714,2.8357142857142854L5.835714285714285,2.8357142857142854L5.835714285714285,3.05L5.621428571428571,3.05L5.621428571428571,3.6928571428571426L4.55,3.6928571428571426L4.55,4.121428571428571L4.335714285714285,4.121428571428571L4.335714285714285,4.335714285714285L3.907142857142857,4.335714285714285L3.907142857142857,4.764285714285714L3.05,4.764285714285714L3.05,6.478571428571428L2.6214285714285714,6.478571428571428L2.6214285714285714,9.378571428571426L2.8357142857142854,9.378571428571426L2.8357142857142854,9.807142857142857L3.907142857142857,9.807142857142857L3.907142857142857,10.021428571428569L4.121428571428571,10.021428571428569L4.121428571428571,10.878571428571426L4.335714285714285,10.878571428571426L4.335714285714285,11.735714285714284L4.978571428571429,11.735714285714284L4.978571428571429,11.95z" stroke="none"/><path d="M36,3.05L36,2.95L43.5,2.95L43.5,3.05z" stroke="none"/><path d="M71.99999999999999,6.05L71.99999999999999,5.95L72.2642857142857,5.95L72.2642857142857,6.164285714285715L72.47857142857141,6.164285714285715L72.47857142857141,6.378571428571428L72.69285714285714,6.378571428571428L72.69285714285714,6.5928571428571425L72.90714285714284,6.5928571428571425L72.90714285714284,10.335714285714285L72.69285714285714,10.335714285714285L72.69285714285714,10.764285714285716L72.47857142857141,10.764285714285716L72.47857142857141,10.978571428571428L65.94999999999999,10.978571428571428L65.94999999999999,10.5L66.04999999999998,10.5L66.04999999999998,10.878571428571426L72.37857142857142,10.878571428571426L72.37857142857142,10.664285714285715L72.59285714285714,10.664285714285715L72.59285714285714,10.235714285714284L72.80714285714285,10.235714285714284L72.80714285714285,6.692857142857142L72.59285714285714,6.692857142857142L72.59285714285714,6.478571428571428L72.37857142857142,6.478571428571428L72.37857142857142,6.264285714285714L72.16428571428571,6.264285714285714L72.16428571428571,6.05z" stroke="none"/><path d="M97.49999999999999,7.45L97.49999999999999,7.55L90.59285714285714,7.55L90.59285714285714,6.05L89.99999999999999,6.05L89.99999999999999,5.95L90.69285714285714,5.95L90.69285714285714,7.45z" stroke="none"/><path d="M82.44999999999999,9L82.54999999999998,9L82.54999999999998,10.878571428571426L82.7642857142857,10.878571428571426L82.7642857142857,11.092857142857142L82.97857142857141,11.092857142857142L82.97857142857141,11.307142857142857L83.19285714285714,11.307142857142857L83.19285714285714,11.521428571428569L83.40714285714284,11.521428571428569L83.40714285714284,11.735714285714284L83.62142857142855,11.735714285714284L83.62142857142855,12.378571428571426L89.52142857142856,12.378571428571426L89.52142857142856,11.735714285714284L89.94999999999999,11.735714285714284L89.94999999999999,11.521428571428569L90.80714285714285,11.521428571428569L90.80714285714285,11.092857142857142L91.44999999999999,11.092857142857142L91.44999999999999,10.878571428571426L91.87857142857142,10.878571428571426L91.87857142857142,8.192857142857143L90.59285714285714,8.192857142857143L90.59285714285714,7.978571428571428L90.16428571428571,7.978571428571428L90.16428571428571,7.55L89.99999999999999,7.55L89.99999999999999,7.45L90.2642857142857,7.45L90.2642857142857,7.878571428571428L90.69285714285714,7.878571428571428L90.69285714285714,8.092857142857142L91.97857142857141,8.092857142857142L91.97857142857141,10.978571428571428L91.54999999999998,10.978571428571428L91.54999999999998,11.192857142857143L90.90714285714284,11.192857142857143L90.90714285714284,11.62142857142857L90.04999999999998,11.62142857142857L90.04999999999998,11.835714285714285L89.62142857142855,11.835714285714285L89.62142857142855,12.478571428571428L83.52142857142856,12.478571428571428L83.52142857142856,11.835714285714285L83.30714285714285,11.835714285714285L83.30714285714285,11.62142857142857L83.09285714285714,11.62142857142857L83.09285714285714,11.407142857142858L82.87857142857142,11.407142857142858L82.87857142857142,11.192857142857143L82.66428571428571,11.192857142857143L82.66428571428571,10.978571428571428L82.44999999999999,10.978571428571428z" stroke="none"/><path d="M13.5,10.45L13.5,10.55L11.735714285714284,10.55L11.735714285714284,10.12142857142857L10.878571428571426,10.12142857142857L10.878571428571426,9.907142857142858L10.664285714285715,9.907142857142858L10.664285714285715,9.478571428571428L8.735714285714284,9.478571428571428L8.735714285714284,9.264285714285716L8.521428571428569,9.264285714285716L8.521428571428569,8.835714285714285L8.092857142857142,8.835714285714285L8.092857142857142,8.62142857142857L5.407142857142857,8.62142857142857L5.407142857142857,8.835714285714285L4.764285714285714,8.835714285714285L4.764285714285714,9.05L4.5,9.05L4.5,8.95L4.664285714285715,8.95L4.664285714285715,8.735714285714284L5.307142857142857,8.735714285714284L5.307142857142857,8.521428571428569L8.192857142857143,8.521428571428569L8.192857142857143,8.735714285714284L8.62142857142857,8.735714285714284L8.62142857142857,9.164285714285715L8.835714285714285,9.164285714285715L8.835714285714285,9.378571428571426L10.764285714285716,9.378571428571426L10.764285714285716,9.807142857142857L10.978571428571428,9.807142857142857L10.978571428571428,10.021428571428569L11.835714285714285,10.021428571428569L11.835714285714285,10.45z" stroke="none"/><path d="M89.99999999999999,4.55L89.99999999999999,4.45L95.19285714285712,4.45L95.19285714285712,4.664285714285715L95.40714285714284,4.664285714285715L95.40714285714284,4.878571428571429L96.2642857142857,4.878571428571429L96.2642857142857,5.735714285714286L96.47857142857141,5.735714285714286L96.47857142857141,5.95L96.90714285714284,5.95L96.90714285714284,6.164285714285715L97.12142857142855,6.164285714285715L97.12142857142855,6.378571428571428L97.54999999999998,6.378571428571428L97.54999999999998,6.5928571428571425L97.97857142857141,6.5928571428571425L97.97857142857141,8.092857142857142L98.19285714285712,8.092857142857142L98.19285714285712,8.307142857142857L98.40714285714284,8.307142857142857L98.40714285714284,8.95L98.99999999999999,8.95L98.99999999999999,9.05L98.30714285714285,9.05L98.30714285714285,8.407142857142858L98.09285714285713,8.407142857142858L98.09285714285713,8.192857142857143L97.87857142857142,8.192857142857143L97.87857142857142,6.692857142857142L97.44999999999999,6.692857142857142L97.44999999999999,6.478571428571428L97.02142857142856,6.478571428571428L97.02142857142856,6.264285714285714L96.80714285714285,6.264285714285714L96.80714285714285,6.05L96.37857142857142,6.05L96.37857142857142,5.835714285714285L96.16428571428571,5.835714285714285L96.16428571428571,4.978571428571429L95.30714285714285,4.978571428571429L95.30714285714285,4.764285714285714L95.09285714285713,4.764285714285714L95.09285714285713,4.55z" stroke="none"/><path d="M55.5,10.45L55.5,10.55L52.66428571428572,10.55L52.66428571428572,10.335714285714285L52.02142857142857,10.335714285714285L52.02142857142857,10.12142857142857L47.73571428571429,10.12142857142857L47.73571428571429,9.907142857142858L47.52142857142857,9.907142857142858L47.52142857142857,9.05L47.30714285714286,9.05L47.30714285714286,8.835714285714285L46.02142857142857,8.835714285714285L46.02142857142857,8.62142857142857L45.59285714285714,8.62142857142857L45.59285714285714,7.55L45,7.55L45,7.45L45.692857142857136,7.45L45.692857142857136,8.521428571428569L46.12142857142857,8.521428571428569L46.12142857142857,8.735714285714284L47.40714285714285,8.735714285714284L47.40714285714285,8.95L47.62142857142857,8.95L47.62142857142857,9.807142857142857L47.83571428571428,9.807142857142857L47.83571428571428,10.021428571428569L52.12142857142857,10.021428571428569L52.12142857142857,10.235714285714284L52.76428571428571,10.235714285714284L52.76428571428571,10.45z" stroke="none"/><path d="M76.49999999999999,5.95L76.49999999999999,6.05L76.33571428571427,6.05L76.33571428571427,6.264285714285714L76.12142857142855,6.264285714285714L76.12142857142855,6.692857142857142L74.19285714285714,6.692857142857142L74.19285714285714,7.335714285714285L73.97857142857141,7.335714285714285L73.97857142857141,7.978571428571428L73.7642857142857,7.978571428571428L73.7642857142857,8.407142857142858L73.54999999999998,8.407142857142858L73.54999999999998,9.692857142857143L73.33571428571427,9.692857142857143L73.33571428571427,10.12142857142857L73.12142857142855,10.12142857142857L73.12142857142855,10.55L72.90714285714284,10.55L72.90714285714284,10.978571428571428L72.69285714285714,10.978571428571428L72.69285714285714,11.192857142857143L65.73571428571428,11.192857142857143L65.73571428571428,10.978571428571428L65.30714285714285,10.978571428571428L65.30714285714285,10.335714285714285L64.87857142857142,10.335714285714285L64.87857142857142,9.05L64.49999999999999,9.05L64.49999999999999,8.95L64.97857142857141,8.95L64.97857142857141,10.235714285714284L65.40714285714284,10.235714285714284L65.40714285714284,10.878571428571426L65.83571428571427,10.878571428571426L65.83571428571427,11.092857142857142L72.59285714285714,11.092857142857142L72.59285714285714,10.878571428571426L72.80714285714285,10.878571428571426L72.80714285714285,10.45L73.02142857142856,10.45L73.02142857142856,10.021428571428569L73.23571428571428,10.021428571428569L73.23571428571428,9.592857142857142L73.44999999999999,9.592857142857142L73.44999999999999,8.307142857142857L73.66428571428571,8.307142857142857L73.66428571428571,7.878571428571428L73.87857142857142,7.878571428571428L73.87857142857142,7.235714285714286L74.09285714285714,7.235714285714286L74.09285714285714,6.5928571428571425L76.02142857142856,6.5928571428571425L76.02142857142856,6.164285714285715L76.23571428571428,6.164285714285715L76.23571428571428,5.95z" stroke="none"/><path d="M94.44999999999999,12L94.54999999999998,12L94.54999999999998,12.264285714285716L93.69285714285712,12.264285714285716L93.69285714285712,12.478571428571428L89.83571428571427,12.478571428571428L89.83571428571427,12.692857142857143L83.30714285714285,12.692857142857143L83.30714285714285,12.264285714285716L83.09285714285714,12.264285714285716L83.09285714285714,11.835714285714285L82.87857142857142,11.835714285714285L82.87857142857142,11.62142857142857L82.66428571428571,11.62142857142857L82.66428571428571,11.407142857142858L82.44999999999999,11.407142857142858L82.44999999999999,11.192857142857143L82.23571428571428,11.192857142857143L82.23571428571428,10.55L82.02142857142856,10.55L82.02142857142856,10.335714285714285L81.80714285714285,10.335714285714285L81.80714285714285,10.12142857142857L80.94999999999999,10.12142857142857L80.94999999999999,9.264285714285716L80.52142857142856,9.264285714285716L80.52142857142856,8.835714285714285L79.87857142857142,8.835714285714285L79.87857142857142,8.192857142857143L79.23571428571428,8.192857142857143L79.23571428571428,7.978571428571428L79.02142857142856,7.978571428571428L79.02142857142856,7.021428571428571L81.47857142857141,7.021428571428571L81.47857142857141,7.235714285714286L82.12142857142855,7.235714285714286L82.12142857142855,7.45L82.49999999999999,7.45L82.49999999999999,7.55L82.02142857142856,7.55L82.02142857142856,7.335714285714285L81.37857142857142,7.335714285714285L81.37857142857142,7.121428571428571L79.12142857142855,7.121428571428571L79.12142857142855,7.878571428571428L79.33571428571427,7.878571428571428L79.33571428571427,8.092857142857142L79.97857142857141,8.092857142857142L79.97857142857141,8.735714285714284L80.62142857142855,8.735714285714284L80.62142857142855,9.164285714285715L81.04999999999998,9.164285714285715L81.04999999999998,10.021428571428569L81.90714285714284,10.021428571428569L81.90714285714284,10.235714285714284L82.12142857142855,10.235714285714284L82.12142857142855,10.45L82.33571428571427,10.45L82.33571428571427,11.092857142857142L82.54999999999998,11.092857142857142L82.54999999999998,11.307142857142857L82.7642857142857,11.307142857142857L82.7642857142857,11.521428571428569L82.97857142857141,11.521428571428569L82.97857142857141,11.735714285714284L83.19285714285714,11.735714285714284L83.19285714285714,12.164285714285715L83.40714285714284,12.164285714285715L83.40714285714284,12.592857142857142L89.73571428571428,12.592857142857142L89.73571428571428,12.378571428571426L93.59285714285713,12.378571428571426L93.59285714285713,12.164285714285715L94.44999999999999,12.164285714285715z" stroke="none"/><path d="M97.49999999999999,2.95L97.49999999999999,3.05L84.59285714285714,3.05L84.59285714285714,2.8357142857142854L84.37857142857142,2.8357142857142854L84.37857142857142,2.6214285714285714L81.47857142857141,2.6214285714285714L81.47857142857141,2.8357142857142854L81.2642857142857,2.8357142857142854L81.2642857142857,3.05L80.99999999999999,3.05L80.99999999999999,2.95L81.16428571428571,2.95L81.16428571428571,2.7357142857142858L81.37857142857142,2.7357142857142858L81.37857142857142,2.521428571428572L84.47857142857141,2.521428571428572L84.47857142857141,2.7357142857142858L84.69285714285714,2.7357142857142858L84.69285714285714,2.95z" stroke="none"/><path d="M3,10.55L3,10.45L3.478571428571428,10.45L3.478571428571428,10.664285714285715L3.907142857142857,10.664285714285715L3.907142857142857,11.307142857142857L4.121428571428571,11.307142857142857L4.121428571428571,11.95L4.764285714285714,11.95L4.764285714285714,12.164285714285715L10.12142857142857,12.164285714285715L10.12142857142857,12.378571428571426L19.878571428571426,12.378571428571426L19.878571428571426,9.592857142857142L20.307142857142857,9.592857142857142L20.307142857142857,9.378571428571426L20.521428571428572,9.378571428571426L20.521428571428572,8.95L21,8.95L21,9.05L20.621428571428574,9.05L20.621428571428574,9.478571428571428L20.40714285714286,9.478571428571428L20.40714285714286,9.692857142857143L19.978571428571428,9.692857142857143L19.978571428571428,12.478571428571428L10.021428571428569,12.478571428571428L10.021428571428569,12.264285714285716L4.664285714285715,12.264285714285716L4.664285714285715,12.05L4.021428571428571,12.05L4.021428571428571,11.407142857142858L3.8071428571428574,11.407142857142858L3.8071428571428574,10.764285714285716L3.3785714285714286,10.764285714285716L3.3785714285714286,10.55z" stroke="none"/><path d="M80.94999999999999,10.5L81.04999999999998,10.5L81.04999999999998,10.878571428571426L81.47857142857141,10.878571428571426L81.47857142857141,11.092857142857142L81.69285714285714,11.092857142857142L81.69285714285714,11.521428571428569L81.90714285714284,11.521428571428569L81.90714285714284,11.735714285714284L82.7642857142857,11.735714285714284L82.7642857142857,12.164285714285715L82.97857142857141,12.164285714285715L82.97857142857141,12.378571428571426L83.19285714285714,12.378571428571426L83.19285714285714,12.807142857142857L98.73571428571428,12.807142857142857L98.73571428571428,12.378571428571426L99.37857142857142,12.378571428571426L99.37857142857142,11.95L99.59285714285713,11.95L99.59285714285713,11.735714285714284L99.80714285714285,11.735714285714284L99.80714285714285,11.521428571428569L100.44999999999999,11.521428571428569L100.44999999999999,11.307142857142857L100.87857142857142,11.307142857142857L100.87857142857142,10.45L101.09285714285713,10.45L101.09285714285713,10.235714285714284L101.52142857142856,10.235714285714284L101.52142857142856,9.164285714285715L101.73571428571428,9.164285714285715L101.73571428571428,8.95L101.99999999999999,8.95L101.99999999999999,9.05L101.83571428571427,9.05L101.83571428571427,9.264285714285716L101.62142857142855,9.264285714285716L101.62142857142855,10.335714285714285L101.19285714285712,10.335714285714285L101.19285714285712,10.55L100.97857142857141,10.55L100.97857142857141,11.407142857142858L100.54999999999998,11.407142857142858L100.54999999999998,11.62142857142857L99.90714285714284,11.62142857142857L99.90714285714284,11.835714285714285L99.69285714285712,11.835714285714285L99.69285714285712,12.05L99.47857142857141,12.05L99.47857142857141,12.478571428571428L98.83571428571427,12.478571428571428L98.83571428571427,12.907142857142858L83.09285714285714,12.907142857142858L83.09285714285714,12.478571428571428L82.87857142857142,12.478571428571428L82.87857142857142,12.264285714285716L82.66428571428571,12.264285714285716L82.66428571428571,11.835714285714285L81.80714285714285,11.835714285714285L81.80714285714285,11.62142857142857L81.59285714285714,11.62142857142857L81.59285714285714,11.192857142857143L81.37857142857142,11.192857142857143L81.37857142857142,10.978571428571428L80.94999999999999,10.978571428571428z" stroke="none"/><path d="M65.99999999999999,11.95L65.99999999999999,12.05L60.90714285714285,12.05L60.90714285714285,12.264285714285716L60.47857142857142,12.264285714285716L60.47857142857142,12.478571428571428L41.52142857142857,12.478571428571428L41.52142857142857,12.264285714285716L40.45,12.264285714285716L40.45,12L40.55,12L40.55,12.164285714285715L41.62142857142857,12.164285714285715L41.62142857142857,12.378571428571426L60.378571428571426,12.378571428571426L60.378571428571426,12.164285714285715L60.80714285714286,12.164285714285715L60.80714285714286,11.95z" stroke="none"/><path d="M68.99999999999999,12.05L68.99999999999999,11.95L82.54999999999998,11.95L82.54999999999998,12.378571428571426L82.7642857142857,12.378571428571426L82.7642857142857,12.807142857142857L82.97857142857141,12.807142857142857L82.97857142857141,13.021428571428569L99.16428571428571,13.021428571428569L99.16428571428571,12.807142857142857L99.59285714285713,12.807142857142857L99.59285714285713,12.378571428571426L100.02142857142856,12.378571428571426L100.02142857142856,12.164285714285715L100.44999999999999,12.164285714285715L100.44999999999999,12L100.54999999999998,12L100.54999999999998,12.264285714285716L100.12142857142855,12.264285714285716L100.12142857142855,12.478571428571428L99.69285714285712,12.478571428571428L99.69285714285712,12.907142857142858L99.2642857142857,12.907142857142858L99.2642857142857,13.12142857142857L82.87857142857142,13.12142857142857L82.87857142857142,12.907142857142858L82.66428571428571,12.907142857142858L82.66428571428571,12.478571428571428L82.44999999999999,12.478571428571428L82.44999999999999,12.05z" stroke="none"/><path d="M48,4.45L48,4.55L43.33571428571428,4.55L43.33571428571428,4.764285714285714L42.47857142857143,4.764285714285714L42.47857142857143,4.978571428571429L41.52142857142857,4.978571428571429L41.52142857142857,4.021428571428571L42.80714285714286,4.021428571428571L42.80714285714286,3.8071428571428574L43.02142857142857,3.8071428571428574L43.02142857142857,3.592857142857143L79.87857142857142,3.592857142857143L79.87857142857142,3.1642857142857146L80.30714285714285,3.1642857142857146L80.30714285714285,2.95L80.52142857142856,2.95L80.52142857142856,2.521428571428572L81.16428571428571,2.521428571428572L81.16428571428571,2.3071428571428574L97.54999999999998,2.3071428571428574L97.54999999999998,2.521428571428572L97.97857142857141,2.521428571428572L97.97857142857141,3.478571428571428L85.97857142857141,3.478571428571428L85.97857142857141,3.6928571428571426L85.54999999999998,3.6928571428571426L85.54999999999998,3.907142857142857L83.40714285714284,3.907142857142857L83.40714285714284,4.121428571428571L81.90714285714284,4.121428571428571L81.90714285714284,4.335714285714285L81.2642857142857,4.335714285714285L81.2642857142857,4.55L80.99999999999999,4.55L80.99999999999999,4.45L81.16428571428571,4.45L81.16428571428571,4.235714285714286L81.80714285714285,4.235714285714286L81.80714285714285,4.021428571428571L83.30714285714285,4.021428571428571L83.30714285714285,3.8071428571428574L85.44999999999999,3.8071428571428574L85.44999999999999,3.592857142857143L85.87857142857142,3.592857142857143L85.87857142857142,3.3785714285714286L97.87857142857142,3.3785714285714286L97.87857142857142,2.6214285714285714L97.44999999999999,2.6214285714285714L97.44999999999999,2.407142857142857L81.2642857142857,2.407142857142857L81.2642857142857,2.6214285714285714L80.62142857142855,2.6214285714285714L80.62142857142855,3.05L80.40714285714284,3.05L80.40714285714284,3.2642857142857142L79.97857142857141,3.2642857142857142L79.97857142857141,3.6928571428571426L43.12142857142857,3.6928571428571426L43.12142857142857,3.907142857142857L42.90714285714285,3.907142857142857L42.90714285714285,4.121428571428571L41.62142857142857,4.121428571428571L41.62142857142857,4.878571428571429L42.37857142857143,4.878571428571429L42.37857142857143,4.664285714285715L43.23571428571429,4.664285714285715L43.23571428571429,4.45z" stroke="none"/><path d="M28.5,12.05L28.5,11.95L39.47857142857143,11.95L39.47857142857143,12.164285714285715L40.12142857142857,12.164285714285715L40.12142857142857,12.378571428571426L41.40714285714285,12.378571428571426L41.40714285714285,12.592857142857142L66.16428571428571,12.592857142857142L66.16428571428571,12.378571428571426L66.37857142857142,12.378571428571426L66.37857142857142,11.62142857142857L62.09285714285714,11.62142857142857L62.09285714285714,10.978571428571428L61.878571428571426,10.978571428571428L61.878571428571426,10.764285714285716L61.66428571428572,10.764285714285716L61.66428571428572,10.55L61.5,10.55L61.5,10.45L61.76428571428571,10.45L61.76428571428571,10.664285714285715L61.97857142857142,10.664285714285715L61.97857142857142,10.878571428571426L62.192857142857136,10.878571428571426L62.192857142857136,11.521428571428569L66.47857142857141,11.521428571428569L66.47857142857141,12.478571428571428L66.2642857142857,12.478571428571428L66.2642857142857,12.692857142857143L41.30714285714286,12.692857142857143L41.30714285714286,12.478571428571428L40.02142857142857,12.478571428571428L40.02142857142857,12.264285714285716L39.37857142857143,12.264285714285716L39.37857142857143,12.05z" stroke="none"/><path d="M10.45,7.5L10.55,7.5L10.55,7.664285714285715L10.764285714285716,7.664285714285715L10.764285714285716,8.307142857142857L21.478571428571428,8.307142857142857L21.478571428571428,10.764285714285716L21.05,10.764285714285716L21.05,10.978571428571428L20.835714285714285,10.978571428571428L20.835714285714285,11.62142857142857L20.621428571428574,11.62142857142857L20.621428571428574,12.478571428571428L20.40714285714286,12.478571428571428L20.40714285714286,12.692857142857143L3.1642857142857146,12.692857142857143L3.1642857142857146,12.478571428571428L2.95,12.478571428571428L2.95,11.835714285714285L2.7357142857142858,11.835714285714285L2.7357142857142858,11.192857142857143L2.521428571428572,11.192857142857143L2.521428571428572,9.692857142857143L2.3071428571428574,9.692857142857143L2.3071428571428574,4.235714285714286L2.521428571428572,4.235714285714286L2.521428571428572,4.021428571428571L3.8071428571428574,4.021428571428571L3.8071428571428574,3.8071428571428574L4.021428571428571,3.8071428571428574L4.021428571428571,3.592857142857143L4.235714285714286,3.592857142857143L4.235714285714286,3.3785714285714286L4.45,3.3785714285714286L4.45,3.1642857142857146L5.307142857142857,3.1642857142857146L5.307142857142857,2.521428571428572L5.95,2.521428571428572L5.95,2.3071428571428574L43.97857142857143,2.3071428571428574L43.97857142857143,3.478571428571428L42.26428571428571,3.478571428571428L42.26428571428571,3.6928571428571426L41.62142857142857,3.6928571428571426L41.62142857142857,3.907142857142857L41.40714285714285,3.907142857142857L41.40714285714285,5.0928571428571425L44.192857142857136,5.0928571428571425L44.192857142857136,5.307142857142857L44.83571428571428,5.307142857142857L44.83571428571428,5.735714285714286L45.05,5.735714285714286L45.05,6L44.95,6L44.95,5.835714285714285L44.73571428571429,5.835714285714285L44.73571428571429,5.407142857142857L44.09285714285714,5.407142857142857L44.09285714285714,5.192857142857142L41.30714285714286,5.192857142857142L41.30714285714286,3.8071428571428574L41.52142857142857,3.8071428571428574L41.52142857142857,3.592857142857143L42.16428571428572,3.592857142857143L42.16428571428572,3.3785714285714286L43.87857142857143,3.3785714285714286L43.87857142857143,2.407142857142857L6.05,2.407142857142857L6.05,2.6214285714285714L5.407142857142857,2.6214285714285714L5.407142857142857,3.2642857142857142L4.55,3.2642857142857142L4.55,3.478571428571428L4.335714285714285,3.478571428571428L4.335714285714285,3.6928571428571426L4.121428571428571,3.6928571428571426L4.121428571428571,3.907142857142857L3.907142857142857,3.907142857142857L3.907142857142857,4.121428571428571L2.6214285714285714,4.121428571428571L2.6214285714285714,4.335714285714285L2.407142857142857,4.335714285714285L2.407142857142857,9.592857142857142L2.6214285714285714,9.592857142857142L2.6214285714285714,11.092857142857142L2.8357142857142854,11.092857142857142L2.8357142857142854,11.735714285714284L3.05,11.735714285714284L3.05,12.378571428571426L3.2642857142857142,12.378571428571426L3.2642857142857142,12.592857142857142L20.307142857142857,12.592857142857142L20.307142857142857,12.378571428571426L20.521428571428572,12.378571428571426L20.521428571428572,11.521428571428569L20.735714285714284,11.521428571428569L20.735714285714284,10.878571428571426L20.95,10.878571428571426L20.95,10.664285714285715L21.378571428571426,10.664285714285715L21.378571428571426,8.407142857142858L10.664285714285715,8.407142857142858L10.664285714285715,7.764285714285714L10.45,7.764285714285714z" stroke="none"/><path d="M95.99999999999999,4.55L95.99999999999999,4.45L97.66428571428571,4.45L97.66428571428571,3.8071428571428574L97.87857142857142,3.8071428571428574L97.87857142857142,3.592857142857143L98.09285714285713,3.592857142857143L98.09285714285713,2.407142857142857L97.87857142857142,2.407142857142857L97.87857142857142,2.1928571428571426L62.40714285714285,2.1928571428571426L62.40714285714285,2.407142857142857L62.192857142857136,2.407142857142857L62.192857142857136,2.8357142857142854L61.97857142857142,2.8357142857142854L61.97857142857142,3.05L61.5,3.05L61.5,2.95L61.878571428571426,2.95L61.878571428571426,2.7357142857142858L62.09285714285714,2.7357142857142858L62.09285714285714,2.3071428571428574L62.30714285714286,2.3071428571428574L62.30714285714286,2.092857142857143L97.97857142857141,2.092857142857143L97.97857142857141,2.3071428571428574L98.19285714285712,2.3071428571428574L98.19285714285712,3.6928571428571426L97.97857142857141,3.6928571428571426L97.97857142857141,3.907142857142857L97.7642857142857,3.907142857142857L97.7642857142857,4.55z" stroke="none"/><path d="M18,6.05L18,5.95L24.378571428571426,5.95L24.378571428571426,5.735714285714286L26.52142857142857,5.735714285714286L26.52142857142857,5.521428571428571L42.692857142857136,5.521428571428571L42.692857142857136,5.735714285714286L42.90714285714285,5.735714285714286L42.90714285714285,5.95L44.62142857142857,5.95L44.62142857142857,6.378571428571428L50.09285714285714,6.378571428571428L50.09285714285714,5.95L50.73571428571429,5.95L50.73571428571429,5.735714285714286L50.95,5.735714285714286L50.95,5.307142857142857L51.378571428571426,5.307142857142857L51.378571428571426,4.664285714285715L51.59285714285714,4.664285714285715L51.59285714285714,4.45L52.5,4.45L52.5,4.55L51.692857142857136,4.55L51.692857142857136,4.764285714285714L51.47857142857142,4.764285714285714L51.47857142857142,5.407142857142857L51.05,5.407142857142857L51.05,5.835714285714285L50.83571428571428,5.835714285714285L50.83571428571428,6.05L50.192857142857136,6.05L50.192857142857136,6.478571428571428L44.52142857142857,6.478571428571428L44.52142857142857,6.05L42.80714285714286,6.05L42.80714285714286,5.835714285714285L42.59285714285714,5.835714285714285L42.59285714285714,5.621428571428571L26.62142857142857,5.621428571428571L26.62142857142857,5.835714285714285L24.478571428571428,5.835714285714285L24.478571428571428,6.05z" stroke="none"/><path d="M49.5,6.05L49.5,5.95L49.66428571428572,5.95L49.66428571428572,5.735714285714286L50.52142857142857,5.735714285714286L50.52142857142857,5.0928571428571425L51.16428571428572,5.0928571428571425L51.16428571428572,4.45L51.378571428571426,4.45L51.378571428571426,4.235714285714286L52.02142857142857,4.235714285714286L52.02142857142857,4.021428571428571L62.192857142857136,4.021428571428571L62.192857142857136,4.664285714285715L62.40714285714285,4.664285714285715L62.40714285714285,4.878571428571429L66.2642857142857,4.878571428571429L66.2642857142857,5.0928571428571425L68.40714285714284,5.0928571428571425L68.40714285714284,5.307142857142857L68.62142857142855,5.307142857142857L68.62142857142855,5.521428571428571L68.83571428571427,5.521428571428571L68.83571428571427,5.735714285714286L69.47857142857141,5.735714285714286L69.47857142857141,5.95L69.90714285714284,5.95L69.90714285714284,6.164285714285715L70.12142857142855,6.164285714285715L70.12142857142855,6.378571428571428L71.30714285714285,6.378571428571428L71.30714285714285,5.95L71.52142857142856,5.95L71.52142857142856,5.521428571428571L76.97857142857141,5.521428571428571L76.97857142857141,7.978571428571428L76.54999999999998,7.978571428571428L76.54999999999998,8.407142857142858L76.33571428571427,8.407142857142858L76.33571428571427,8.835714285714285L76.12142857142855,8.835714285714285L76.12142857142855,9.05L75.2642857142857,9.05L75.2642857142857,9.264285714285716L74.83571428571427,9.264285714285716L74.83571428571427,9.692857142857143L74.62142857142855,9.692857142857143L74.62142857142855,10.55L74.19285714285714,10.55L74.19285714285714,10.764285714285716L73.12142857142855,10.764285714285716L73.12142857142855,11.192857142857143L72.90714285714284,11.192857142857143L72.90714285714284,11.407142857142858L68.83571428571427,11.407142857142858L68.83571428571427,11.62142857142857L68.62142857142855,11.62142857142857L68.62142857142855,12.378571428571426L82.33571428571427,12.378571428571426L82.33571428571427,13.021428571428569L82.7642857142857,13.021428571428569L82.7642857142857,13.235714285714284L99.37857142857142,13.235714285714284L99.37857142857142,13.021428571428569L100.44999999999999,13.021428571428569L100.44999999999999,12.807142857142857L100.66428571428571,12.807142857142857L100.66428571428571,12.378571428571426L100.87857142857142,12.378571428571426L100.87857142857142,12.164285714285715L101.09285714285713,12.164285714285715L101.09285714285713,11.092857142857142L101.52142857142856,11.092857142857142L101.52142857142856,10.45L101.94999999999999,10.45L101.94999999999999,9.807142857142857L102.16428571428571,9.807142857142857L102.16428571428571,9.378571428571426L102.37857142857142,9.378571428571426L102.37857142857142,8.62142857142857L99.69285714285712,8.62142857142857L99.69285714285712,8.835714285714285L99.47857142857141,8.835714285714285L99.47857142857141,9.478571428571428L98.09285714285713,9.478571428571428L98.09285714285713,9.264285714285716L93.59285714285713,9.264285714285716L93.59285714285713,9.05L92.94999999999999,9.05L92.94999999999999,8.835714285714285L92.73571428571428,8.835714285714285L92.73571428571428,8.62142857142857L92.52142857142856,8.62142857142857L92.52142857142856,8.192857142857143L92.30714285714285,8.192857142857143L92.30714285714285,7.978571428571428L90.80714285714285,7.978571428571428L90.80714285714285,7.764285714285714L90.37857142857142,7.764285714285714L90.37857142857142,7.121428571428571L89.62142857142855,7.121428571428571L89.62142857142855,8.307142857142857L89.83571428571427,8.307142857142857L89.83571428571427,8.95L89.99999999999999,8.95L89.99999999999999,9.05L89.73571428571428,9.05L89.73571428571428,8.407142857142858L89.52142857142856,8.407142857142858L89.52142857142856,7.021428571428571L90.47857142857141,7.021428571428571L90.47857142857141,7.664285714285715L90.90714285714284,7.664285714285715L90.90714285714284,7.878571428571428L92.40714285714284,7.878571428571428L92.40714285714284,8.092857142857142L92.62142857142855,8.092857142857142L92.62142857142855,8.521428571428569L92.83571428571427,8.521428571428569L92.83571428571427,8.735714285714284L93.04999999999998,8.735714285714284L93.04999999999998,8.95L93.69285714285712,8.95L93.69285714285712,9.164285714285715L98.19285714285712,9.164285714285715L98.19285714285712,9.378571428571426L99.37857142857142,9.378571428571426L99.37857142857142,8.735714285714284L99.59285714285713,8.735714285714284L99.59285714285713,8.521428571428569L102.47857142857141,8.521428571428569L102.47857142857141,9.478571428571428L102.2642857142857,9.478571428571428L102.2642857142857,9.907142857142858L102.04999999999998,9.907142857142858L102.04999999999998,10.55L101.62142857142855,10.55L101.62142857142855,11.192857142857143L101.19285714285712,11.192857142857143L101.19285714285712,12.264285714285716L100.97857142857141,12.264285714285716L100.97857142857141,12.478571428571428L100.7642857142857,12.478571428571428L100.7642857142857,12.907142857142858L100.54999999999998,12.907142857142858L100.54999999999998,13.12142857142857L99.47857142857141,13.12142857142857L99.47857142857141,13.335714285714285L82.66428571428571,13.335714285714285L82.66428571428571,13.12142857142857L82.23571428571428,13.12142857142857L82.23571428571428,12.478571428571428L68.52142857142856,12.478571428571428L68.52142857142856,11.521428571428569L68.73571428571428,11.521428571428569L68.73571428571428,11.307142857142857L72.80714285714285,11.307142857142857L72.80714285714285,11.092857142857142L73.02142857142856,11.092857142857142L73.02142857142856,10.664285714285715L74.09285714285714,10.664285714285715L74.09285714285714,10.45L74.52142857142856,10.45L74.52142857142856,9.592857142857142L74.73571428571428,9.592857142857142L74.73571428571428,9.164285714285715L75.16428571428571,9.164285714285715L75.16428571428571,8.95L76.02142857142856,8.95L76.02142857142856,8.735714285714284L76.23571428571428,8.735714285714284L76.23571428571428,8.307142857142857L76.44999999999999,8.307142857142857L76.44999999999999,7.878571428571428L76.87857142857142,7.878571428571428L76.87857142857142,5.621428571428571L71.62142857142855,5.621428571428571L71.62142857142855,6.05L71.40714285714284,6.05L71.40714285714284,6.478571428571428L70.02142857142856,6.478571428571428L70.02142857142856,6.264285714285714L69.80714285714285,6.264285714285714L69.80714285714285,6.05L69.37857142857142,6.05L69.37857142857142,5.835714285714285L68.73571428571428,5.835714285714285L68.73571428571428,5.621428571428571L68.52142857142856,5.621428571428571L68.52142857142856,5.407142857142857L68.30714285714285,5.407142857142857L68.30714285714285,5.192857142857142L66.16428571428571,5.192857142857142L66.16428571428571,4.978571428571429L62.30714285714286,4.978571428571429L62.30714285714286,4.764285714285714L62.09285714285714,4.764285714285714L62.09285714285714,4.121428571428571L52.12142857142857,4.121428571428571L52.12142857142857,4.335714285714285L51.47857142857142,4.335714285714285L51.47857142857142,4.55L51.26428571428571,4.55L51.26428571428571,5.192857142857142L50.62142857142857,5.192857142857142L50.62142857142857,5.835714285714285L49.76428571428571,5.835714285714285L49.76428571428571,6.05z" stroke="none"/><path d="M52.5,3.05L52.5,2.95L60.80714285714286,2.95L60.80714285714286,2.7357142857142858L61.02142857142857,2.7357142857142858L61.02142857142857,2.521428571428572L61.878571428571426,2.521428571428572L61.878571428571426,2.092857142857143L62.09285714285714,2.092857142857143L62.09285714285714,1.8785714285714286L98.19285714285712,1.8785714285714286L98.19285714285712,2.092857142857143L98.40714285714284,2.092857142857143L98.40714285714284,5.521428571428571L98.62142857142855,5.521428571428571L98.62142857142855,5.735714285714286L99.04999999999998,5.735714285714286L99.04999999999998,6L98.94999999999999,6L98.94999999999999,5.835714285714285L98.52142857142856,5.835714285714285L98.52142857142856,5.621428571428571L98.30714285714285,5.621428571428571L98.30714285714285,2.1928571428571426L98.09285714285713,2.1928571428571426L98.09285714285713,1.9785714285714286L62.192857142857136,1.9785714285714286L62.192857142857136,2.1928571428571426L61.97857142857142,2.1928571428571426L61.97857142857142,2.6214285714285714L61.12142857142857,2.6214285714285714L61.12142857142857,2.8357142857142854L60.90714285714285,2.8357142857142854L60.90714285714285,3.05z" stroke="none"/><circle cx="13.5" cy="7.5" r="0.25" stroke-width="0" fill="#000" /><circle cx="12" cy="4.5" r="0.25" stroke-width="0" fill="#000" /><circle cx="18" cy="4.5" r="0.25" stroke-width="0" fill="#000" /><circle cx="27" cy="6" r="0.25" stroke-width="0" fill="#000" /><circle cx="16.5" cy="6" r="0.25" stroke-width="0" fill="#000" /><circle cx="43.5" cy="10.5" r="0.25" stroke-width="0" fill="#000" /><circle cx="60" cy="12" r="0.25" stroke-width="0" fill="#000" /><circle cx="49.5" cy="7.5" r="0.25" stroke-width="0" fill="#000" /><circle cx="71.99999999999999" cy="7.5" r="0.25" stroke-width="0" fill="#000" /><circle cx="12" cy="6" r="0.25" stroke-width="0" fill="#000" /><circle cx="9" cy="6" r="0.25" stroke-width="0" fill="#000" /><circle cx="25.5" cy="10.5" r="0.25" stroke-width="0" fill="#000" /><circle cx="57" cy="7.5" r="0.25" stroke-width="0" fill="#000" /><circle cx="67.49999999999999" cy="9" r="0.25" stroke-width="0" fill="#000" /><circle cx="71.99999999999999" cy="10.5" r="0.25" stroke-width="0" fill="#000" /><circle cx="28.5" cy="6" r="0.25" stroke-width="0" fill="#000" /><circle cx="21" cy="3" r="0.25" stroke-width="0" fill="#000" /><circle cx="13.5" cy="3" r="0.25" stroke-width="0" fill="#000" /><circle cx="3" cy="7.5" r="0.25" stroke-width="0" fill="#000" /><circle cx="36" cy="4.5" r="0.25" stroke-width="0" fill="#000" /><circle cx="64.49999999999999" cy="4.5" r="0.25" stroke-width="0" fill="#000" /><circle cx="83.99999999999999" cy="3" r="0.25" stroke-width="0" fill="#000" /><circle cx="88.49999999999999" cy="4.5" r="0.25" stroke-width="0" fill="#000" /><circle cx="42" cy="4.5" r="0.25" stroke-width="0" fill="#000" /><circle cx="30" cy="9" r="0.25" stroke-width="0" fill="#000" /><circle cx="42" cy="7.5" r="0.25" stroke-width="0" fill="#000" /><circle cx="49.5" cy="12" r="0.25" stroke-width="0" fill="#000" /><circle cx="21" cy="12" r="0.25" stroke-width="0" fill="#000" /><circle cx="7.5" cy="9" r="0.25" stroke-width="0" fill="#000" /><circle cx="7.5" cy="10.5" r="0.25" stroke-width="0" fill="#000" /><circle cx="94.49999999999999" cy="10.5" r="0.25" stroke-width="0" fill="#000" /><circle cx="92.99999999999999" cy="12" r="0.25" stroke-width="0" fill="#000" /><circle cx="67.49999999999999" cy="4.5" r="0.25" stroke-width="0" fill="#000" /><circle cx="70.49999999999999" cy="6" r="0.25" stroke-width="0" fill="#000" /><circle cx="19.5" cy="12" r="0.25" stroke-width="0" fill="#000" /><circle cx="16.5" cy="9" r="0.25" stroke-width="0" fill="#000" /><circle cx="55.5" cy="12" r="0.25" stroke-width="0" fill="#000" /><circle cx="51" cy="10.5" r="0.25" stroke-width="0" fill="#000" /><circle cx="25.5" cy="4.5" r="0.25" stroke-width="0" fill="#000" /><circle cx="30" cy="3" r="0.25" stroke-width="0" fill="#000" /><circle cx="91.49999999999999" cy="10.5" r="0.25" stroke-width="0" fill="#000" /><circle cx="86.99999999999999" cy="7.5" r="0.25" stroke-width="0" fill="#000" /><circle cx="88.49999999999999" cy="9" r="0.25" stroke-width="0" fill="#000" /><circle cx="83.99999999999999" cy="4.5" r="0.25" stroke-width="0" fill="#000" /><circle cx="7.5" cy="4.5" r="0.25" stroke-width="0" fill="#000" /><circle cx="3" cy="9" r="0.25" stroke-width="0" fill="#000" /><circle cx="83.99999999999999" cy="12" r="0.25" stroke-width="0" fill="#000" /><circle cx="79.49999999999999" cy="7.5" r="0.25" stroke-width="0" fill="#000" /><circle cx="10.5" cy="12" r="0.25" stroke-width="0" fill="#000" /><circle cx="16.5" cy="7.5" r="0.25" stroke-width="0" fill="#000" /><circle cx="36" cy="3" r="0.25" stroke-width="0" fill="#000" /><circle cx="43.5" cy="3" r="0.25" stroke-width="0" fill="#000" /><circle cx="71.99999999999999" cy="6" r="0.25" stroke-width="0" fill="#000" /><circle cx="65.99999999999999" cy="10.5" r="0.25" stroke-width="0" fill="#000" /><circle cx="97.49999999999999" cy="7.5" r="0.25" stroke-width="0" fill="#000" /><circle cx="89.99999999999999" cy="6" r="0.25" stroke-width="0" fill="#000" /><circle cx="82.49999999999999" cy="9" r="0.25" stroke-width="0" fill="#000" /><circle cx="89.99999999999999" cy="7.5" r="0.25" stroke-width="0" fill="#000" /><circle cx="13.5" cy="10.5" r="0.25" stroke-width="0" fill="#000" /><circle cx="4.5" cy="9" r="0.25" stroke-width="0" fill="#000" /><circle cx="89.99999999999999" cy="4.5" r="0.25" stroke-width="0" fill="#000" /><circle cx="98.99999999999999" cy="9" r="0.25" stroke-width="0" fill="#000" /><circle cx="55.5" cy="10.5" r="0.25" stroke-width="0" fill="#000" /><circle cx="45" cy="7.5" r="0.25" stroke-width="0" fill="#000" /><circle cx="76.49999999999999" cy="6" r="0.25" stroke-width="0" fill="#000" /><circle cx="64.49999999999999" cy="9" r="0.25" stroke-width="0" fill="#000" /><circle cx="94.49999999999999" cy="12" r="0.25" stroke-width="0" fill="#000" /><circle cx="82.49999999999999" cy="7.5" r="0.25" stroke-width="0" fill="#000" /><circle cx="97.49999999999999" cy="3" r="0.25" stroke-width="0" fill="#000" /><circle cx="80.99999999999999" cy="3" r="0.25" stroke-width="0" fill="#000" /><circle cx="3" cy="10.5" r="0.25" stroke-width="0" fill="#000" /><circle cx="21" cy="9" r="0.25" stroke-width="0" fill="#000" /><circle cx="80.99999999999999" cy="10.5" r="0.25" stroke-width="0" fill="#000" /><circle cx="101.99999999999999" cy="9" r="0.25" stroke-width="0" fill="#000" /><circle cx="65.99999999999999" cy="12" r="0.25" stroke-width="0" fill="#000" /><circle cx="40.5" cy="12" r="0.25" stroke-width="0" fill="#000" /><circle cx="68.99999999999999" cy="12" r="0.25" stroke-width="0" fill="#000" /><circle cx="100.49999999999999" cy="12" r="0.25" stroke-width="0" fill="#000" /><circle cx="48" cy="4.5" r="0.25" stroke-width="0" fill="#000" /><circle cx="80.99999999999999" cy="4.5" r="0.25" stroke-width="0" fill="#000" /><circle cx="28.5" cy="12" r="0.25" stroke-width="0" fill="#000" /><circle cx="61.5" cy="10.5" r="0.25" stroke-width="0" fill="#000" /><circle cx="10.5" cy="7.5" r="0.25" stroke-width="0" fill="#000" /><circle cx="45" cy="6" r="0.25" stroke-width="0" fill="#000" /><circle cx="95.99999999999999" cy="4.5" r="0.25" stroke-width="0" fill="#000" /><circle cx="61.5" cy="3" r="0.25" stroke-width="0" fill="#000" /><circle cx="18" cy="6" r="0.25" stroke-width="0" fill="#000" /><circle cx="52.5" cy="4.5" r="0.25" stroke-width="0" fill="#000" /><circle cx="49.5" cy="6" r="0.25" stroke-width="0" fill="#000" /><circle cx="89.99999999999999" cy="9" r="0.25" stroke-width="0" fill="#000" /><circle cx="52.5" cy="3" r="0.25" stroke-width="0" fill="#000" /><circle cx="98.99999999999999" cy="6" r="0.25" stroke-width="0" fill="#000" /><rect x="0" y="0" width="105" height="15" stroke-width="0.2" stroke="#000" fill="none" /></svg>