<svg version="1.1" width="105" height="15" xmlns="http://www.w3.org/2000/svg"><path d="M57.378571428571426,6.378571428571428L57.378571428571426,5.521428571428571L57.59285714285714,5.521428571428571L57.59285714285714,5.0928571428571425L58.45,5.0928571428571425L58.45,4.5L58.55,4.5L58.55,5.192857142857142L57.692857142857136,5.192857142857142L57.692857142857136,5.621428571428571L57.47857142857142,5.621428571428571L57.47857142857142,6.478571428571428L34.97857142857143,6.478571428571428L34.97857142857143,8.192857142857143L33.692857142857136,8.192857142857143L33.692857142857136,8.407142857142858L33.47857142857143,8.407142857142858L33.47857142857143,8.62142857142857L33.26428571428571,8.62142857142857L33.26428571428571,9.05L33,9.05L33,8.95L33.16428571428572,8.95L33.16428571428572,8.521428571428569L33.37857142857143,8.521428571428569L33.37857142857143,8.307142857142857L33.59285714285714,8.307142857142857L33.59285714285714,8.092857142857142L34.87857142857143,8.092857142857142L34.87857142857143,6.478571428571428L21.164285714285715,6.478571428571428L21.164285714285715,6.264285714285714L15.378571428571426,6.264285714285714L15.378571428571426,6.05L13.5,6.05L13.5,5.95L15.478571428571428,5.95L15.478571428571428,6.164285714285715L21.264285714285716,6.164285714285715L21.264285714285716,6.378571428571428z" stroke="none"/><path d="M18.807142857142857,4.45L18.807142857142857,4.335714285714285L12.05,4.335714285714285L12.05,4.5L11.95,4.5L11.95,4.235714285714286L18.90714285714286,4.235714285714286L18.90714285714286,4.45L20.307142857142857,4.45L20.307142857142857,4.021428571428571L28.55,4.021428571428571L28.55,4.235714285714286L28.978571428571428,4.235714285714286L28.978571428571428,4.45L30,4.45L30,4.55L28.878571428571426,4.55L28.878571428571426,4.335714285714285L28.45,4.335714285714285L28.45,4.121428571428571L20.40714285714286,4.121428571428571L20.40714285714286,4.55L15,4.55L15,4.45z" stroke="none"/><path d="M78.59285714285714,9.378571428571426L78.59285714285714,9.164285714285715L79.66428571428571,9.164285714285715L79.66428571428571,8.95L80.09285714285714,8.95L80.09285714285714,8.735714285714284L80.30714285714285,8.735714285714284L80.30714285714285,8.521428571428569L90.04999999999998,8.521428571428569L90.04999999999998,9L89.94999999999999,9L89.94999999999999,8.62142857142857L80.40714285714284,8.62142857142857L80.40714285714284,8.835714285714285L80.19285714285714,8.835714285714285L80.19285714285714,9.05L79.7642857142857,9.05L79.7642857142857,9.264285714285716L78.69285714285714,9.264285714285716L78.69285714285714,9.378571428571426L84.90714285714284,9.378571428571426L84.90714285714284,9.592857142857142L85.12142857142855,9.592857142857142L85.12142857142855,9.807142857142857L85.33571428571427,9.807142857142857L85.33571428571427,10.021428571428569L85.97857142857141,10.021428571428569L85.97857142857141,10.664285714285715L86.62142857142855,10.664285714285715L86.62142857142855,10.878571428571426L86.83571428571427,10.878571428571426L86.83571428571427,11.092857142857142L87.04999999999998,11.092857142857142L87.04999999999998,12L86.94999999999999,12L86.94999999999999,11.192857142857143L86.73571428571428,11.192857142857143L86.73571428571428,10.978571428571428L86.52142857142856,10.978571428571428L86.52142857142856,10.764285714285716L85.87857142857142,10.764285714285716L85.87857142857142,10.12142857142857L85.23571428571428,10.12142857142857L85.23571428571428,9.907142857142858L85.02142857142856,9.907142857142858L85.02142857142856,9.692857142857143L84.80714285714285,9.692857142857143L84.80714285714285,9.478571428571428L62.73571428571429,9.478571428571428L62.73571428571429,8.835714285714285L60.80714285714286,8.835714285714285L60.80714285714286,8.192857142857143L58.66428571428572,8.192857142857143L58.66428571428572,7.764285714285714L58.45,7.764285714285714L58.45,7.5L58.55,7.5L58.55,7.664285714285715L58.76428571428571,7.664285714285715L58.76428571428571,8.092857142857142L60.90714285714285,8.092857142857142L60.90714285714285,8.735714285714284L62.83571428571428,8.735714285714284L62.83571428571428,9.378571428571426z" stroke="none"/><path d="M62.95,8.735714285714284L76.54999999999998,8.735714285714284L76.54999999999998,9L76.44999999999999,9L76.44999999999999,8.835714285714285L63.05,8.835714285714285L63.05,8.95L74.99999999999999,8.95L74.99999999999999,9.05L63.05,9.05L63.05,9.164285714285715L76.66428571428571,9.164285714285715L76.66428571428571,8.62142857142857L61.45,8.62142857142857L61.45,8.407142857142858L61.23571428571429,8.407142857142858L61.23571428571429,7.978571428571428L59.95,7.978571428571428L59.95,7.764285714285714L59.73571428571429,7.764285714285714L59.73571428571429,7.55L59.30714285714286,7.55L59.30714285714286,7.335714285714285L59.09285714285714,7.335714285714285L59.09285714285714,7.121428571428571L38.83571428571428,7.121428571428571L38.83571428571428,7.55L38.62142857142857,7.55L38.62142857142857,7.764285714285714L38.40714285714285,7.764285714285714L38.40714285714285,8.407142857142858L38.192857142857136,8.407142857142858L38.192857142857136,8.62142857142857L37.97857142857143,8.62142857142857L37.97857142857143,8.835714285714285L37.76428571428571,8.835714285714285L37.76428571428571,9.05L37.5,9.05L37.5,8.95L37.66428571428572,8.95L37.66428571428572,8.735714285714284L37.87857142857143,8.735714285714284L37.87857142857143,8.521428571428569L38.09285714285714,8.521428571428569L38.09285714285714,8.307142857142857L38.30714285714286,8.307142857142857L38.30714285714286,7.664285714285715L38.52142857142857,7.664285714285715L38.52142857142857,7.45L38.73571428571429,7.45L38.73571428571429,7.021428571428571L59.192857142857136,7.021428571428571L59.192857142857136,7.235714285714286L59.40714285714285,7.235714285714286L59.40714285714285,7.45L59.83571428571428,7.45L59.83571428571428,7.664285714285715L60.05,7.664285714285715L60.05,7.878571428571428L61.33571428571428,7.878571428571428L61.33571428571428,8.307142857142857L61.55,8.307142857142857L61.55,8.521428571428569L76.7642857142857,8.521428571428569L76.7642857142857,9.264285714285716L62.95,9.264285714285716z" stroke="none"/><path d="M55.66428571428572,4.664285714285715L55.66428571428572,4.45L57.59285714285714,4.45L57.59285714285714,4.235714285714286L57.80714285714286,4.235714285714286L57.80714285714286,4.021428571428571L66.90714285714284,4.021428571428571L66.90714285714284,4.235714285714286L67.33571428571427,4.235714285714286L67.33571428571427,4.45L67.49999999999999,4.45L67.49999999999999,4.55L67.23571428571428,4.55L67.23571428571428,4.335714285714285L66.80714285714285,4.335714285714285L66.80714285714285,4.121428571428571L57.90714285714285,4.121428571428571L57.90714285714285,4.335714285714285L57.692857142857136,4.335714285714285L57.692857142857136,4.55L55.76428571428571,4.55L55.76428571428571,4.664285714285715L55.97857142857142,4.664285714285715L55.97857142857142,5.521428571428571L57.05,5.521428571428571L57.05,5.735714285714286L57.26428571428571,5.735714285714286L57.26428571428571,6.264285714285714L47.95,6.264285714285714L47.95,6L48.05,6L48.05,6.164285714285715L57.16428571428572,6.164285714285715L57.16428571428572,5.835714285714285L56.95,5.835714285714285L56.95,5.621428571428571L55.878571428571426,5.621428571428571L55.878571428571426,4.764285714285714L55.76428571428571,4.764285714285714L55.76428571428571,5.735714285714286L56.62142857142857,5.735714285714286L56.62142857142857,5.95L57,5.95L57,6.05L56.52142857142857,6.05L56.52142857142857,5.835714285714285L55.66428571428572,5.835714285714285L55.66428571428572,4.764285714285714L51.80714285714286,4.764285714285714L51.80714285714286,4.55L51.378571428571426,4.55L51.378571428571426,3.907142857142857L51.16428571428572,3.907142857142857L51.16428571428572,3.478571428571428L50.95,3.478571428571428L50.95,3L51.05,3L51.05,3.3785714285714286L51.26428571428571,3.3785714285714286L51.26428571428571,3.8071428571428574L51.47857142857142,3.8071428571428574L51.47857142857142,4.45L51.90714285714285,4.45L51.90714285714285,4.664285714285715z" stroke="none"/><path d="M35.52142857142857,7.45L35.52142857142857,7.335714285714285L35.192857142857136,7.335714285714285L35.192857142857136,8.407142857142858L34.12142857142857,8.407142857142858L34.12142857142857,8.62142857142857L33.90714285714285,8.62142857142857L33.90714285714285,9.05L33.692857142857136,9.05L33.692857142857136,9.264285714285716L33.47857142857143,9.264285714285716L33.47857142857143,9.478571428571428L32.52142857142857,9.478571428571428L32.52142857142857,8.521428571428569L32.95,8.521428571428569L32.95,7.878571428571428L33.37857142857143,7.878571428571428L33.37857142857143,7.121428571428571L13.45,7.121428571428571L13.45,6.692857142857142L13.235714285714284,6.692857142857142L13.235714285714284,6.478571428571428L13.021428571428569,6.478571428571428L13.021428571428569,5.521428571428571L47.95,5.521428571428571L47.95,5.307142857142857L48.59285714285714,5.307142857142857L48.59285714285714,5.0928571428571425L49.02142857142857,5.0928571428571425L49.02142857142857,4.45L49.5,4.45L49.5,4.55L49.12142857142857,4.55L49.12142857142857,5.192857142857142L48.692857142857136,5.192857142857142L48.692857142857136,5.407142857142857L48.05,5.407142857142857L48.05,5.621428571428571L13.12142857142857,5.621428571428571L13.12142857142857,6.378571428571428L13.335714285714285,6.378571428571428L13.335714285714285,6.5928571428571425L13.55,6.5928571428571425L13.55,7.021428571428571L33.47857142857143,7.021428571428571L33.47857142857143,7.978571428571428L33.05,7.978571428571428L33.05,8.62142857142857L32.62142857142857,8.62142857142857L32.62142857142857,9.378571428571426L33.37857142857143,9.378571428571426L33.37857142857143,9.164285714285715L33.59285714285714,9.164285714285715L33.59285714285714,8.95L33.80714285714286,8.95L33.80714285714286,8.521428571428569L34.02142857142857,8.521428571428569L34.02142857142857,8.307142857142857L35.09285714285714,8.307142857142857L35.09285714285714,7.235714285714286L35.62142857142857,7.235714285714286L35.62142857142857,7.45L36.80714285714286,7.45L36.80714285714286,7.235714285714286L37.87857142857143,7.235714285714286L37.87857142857143,7.021428571428571L38.30714285714286,7.021428571428571L38.30714285714286,6.807142857142857L87.04999999999998,6.807142857142857L87.04999999999998,7.235714285714286L87.90714285714284,7.235714285714286L87.90714285714284,7.664285714285715L88.54999999999998,7.664285714285715L88.54999999999998,7.878571428571428L88.7642857142857,7.878571428571428L88.7642857142857,8.092857142857142L88.97857142857141,8.092857142857142L88.97857142857141,8.307142857142857L90.2642857142857,8.307142857142857L90.2642857142857,8.521428571428569L90.47857142857141,8.521428571428569L90.47857142857141,10.335714285714285L90.2642857142857,10.335714285714285L90.2642857142857,10.55L89.83571428571427,10.55L89.83571428571427,10.764285714285716L89.62142857142855,10.764285714285716L89.62142857142855,10.978571428571428L89.40714285714284,10.978571428571428L89.40714285714284,11.62142857142857L89.19285714285714,11.62142857142857L89.19285714285714,11.835714285714285L88.97857142857141,11.835714285714285L88.97857142857141,12.05L88.54999999999998,12.05L88.54999999999998,12.264285714285716L88.33571428571427,12.264285714285716L88.33571428571427,12.478571428571428L8.735714285714284,12.478571428571428L8.735714285714284,12.05L8.092857142857142,12.05L8.092857142857142,11.835714285714285L7.878571428571428,11.835714285714285L7.878571428571428,11.62142857142857L7.664285714285715,11.62142857142857L7.664285714285715,11.407142857142858L7.021428571428571,11.407142857142858L7.021428571428571,10.764285714285716L6.807142857142857,10.764285714285716L6.807142857142857,10.55L6.164285714285715,10.55L6.164285714285715,10.335714285714285L5.735714285714286,10.335714285714285L5.735714285714286,9.907142857142858L5.521428571428571,9.907142857142858L5.521428571428571,9.478571428571428L5.0928571428571425,9.478571428571428L5.0928571428571425,8.62142857142857L4.664285714285715,8.62142857142857L4.664285714285715,8.407142857142858L4.45,8.407142857142858L4.45,7.5L4.55,7.5L4.55,8.307142857142857L4.764285714285714,8.307142857142857L4.764285714285714,8.521428571428569L5.192857142857142,8.521428571428569L5.192857142857142,9.378571428571426L5.621428571428571,9.378571428571426L5.621428571428571,9.807142857142857L5.835714285714285,9.807142857142857L5.835714285714285,10.235714285714284L6.264285714285714,10.235714285714284L6.264285714285714,10.45L6.907142857142857,10.45L6.907142857142857,10.664285714285715L7.121428571428571,10.664285714285715L7.121428571428571,11.307142857142857L7.764285714285714,11.307142857142857L7.764285714285714,11.521428571428569L7.978571428571428,11.521428571428569L7.978571428571428,11.735714285714284L8.192857142857143,11.735714285714284L8.192857142857143,11.95L8.835714285714285,11.95L8.835714285714285,12.378571428571426L88.23571428571428,12.378571428571426L88.23571428571428,12.164285714285715L88.44999999999999,12.164285714285715L88.44999999999999,11.95L88.87857142857142,11.95L88.87857142857142,11.735714285714284L89.09285714285714,11.735714285714284L89.09285714285714,11.521428571428569L89.30714285714285,11.521428571428569L89.30714285714285,10.878571428571426L89.52142857142856,10.878571428571426L89.52142857142856,10.664285714285715L89.73571428571428,10.664285714285715L89.73571428571428,10.45L90.16428571428571,10.45L90.16428571428571,10.235714285714284L90.37857142857142,10.235714285714284L90.37857142857142,8.62142857142857L90.16428571428571,8.62142857142857L90.16428571428571,8.407142857142858L88.87857142857142,8.407142857142858L88.87857142857142,8.192857142857143L88.66428571428571,8.192857142857143L88.66428571428571,7.978571428571428L88.44999999999999,7.978571428571428L88.44999999999999,7.764285714285714L87.80714285714285,7.764285714285714L87.80714285714285,7.335714285714285L86.94999999999999,7.335714285714285L86.94999999999999,6.907142857142857L38.40714285714285,6.907142857142857L38.40714285714285,7.121428571428571L37.97857142857143,7.121428571428571L37.97857142857143,7.335714285714285L36.90714285714285,7.335714285714285L36.90714285714285,7.55L35.62142857142857,7.55L35.62142857142857,8.95L35.83571428571428,8.95L35.83571428571428,9.164285714285715L36.05,9.164285714285715L36.05,9.378571428571426L40.02142857142857,9.378571428571426L40.02142857142857,9.164285714285715L40.45,9.164285714285715L40.45,9L40.55,9L40.55,9.264285714285716L40.12142857142857,9.264285714285716L40.12142857142857,9.478571428571428L35.95,9.478571428571428L35.95,9.264285714285716L35.73571428571429,9.264285714285716L35.73571428571429,9.05L35.52142857142857,9.05L35.52142857142857,7.55L35.40714285714285,7.55L35.40714285714285,9.164285714285715L35.62142857142857,9.164285714285715L35.62142857142857,9.378571428571426L35.83571428571428,9.378571428571426L35.83571428571428,9.592857142857142L47.73571428571429,9.592857142857142L47.73571428571429,9.378571428571426L47.95,9.378571428571426L47.95,9L48.05,9L48.05,9.478571428571428L47.83571428571428,9.478571428571428L47.83571428571428,9.692857142857143L35.73571428571429,9.692857142857143L35.73571428571429,9.478571428571428L35.52142857142857,9.478571428571428L35.52142857142857,9.264285714285716L35.30714285714286,9.264285714285716L35.30714285714286,7.45z" stroke="none"/><path d="M27.59285714285714,9.164285714285715L27.59285714285714,9.05L15.378571428571426,9.05L15.378571428571426,8.62142857142857L11.521428571428569,8.62142857142857L11.521428571428569,8.192857142857143L10.664285714285715,8.192857142857143L10.664285714285715,7.978571428571428L10.45,7.978571428571428L10.45,7.55L9,7.55L9,7.45L10.55,7.45L10.55,7.878571428571428L10.764285714285716,7.878571428571428L10.764285714285716,8.092857142857142L11.62142857142857,8.092857142857142L11.62142857142857,8.521428571428569L15.478571428571428,8.521428571428569L15.478571428571428,8.95L27.692857142857143,8.95L27.692857142857143,9.164285714285715L31.45,9.164285714285715L31.45,8.735714285714284L31.878571428571426,8.735714285714284L31.878571428571426,8.521428571428569L32.09285714285714,8.521428571428569L32.09285714285714,8.092857142857142L32.30714285714286,8.092857142857142L32.30714285714286,7.878571428571428L32.73571428571429,7.878571428571428L32.73571428571429,7.45L33,7.45L33,7.55L32.83571428571428,7.55L32.83571428571428,7.978571428571428L32.40714285714285,7.978571428571428L32.40714285714285,8.192857142857143L32.192857142857136,8.192857142857143L32.192857142857136,8.62142857142857L31.978571428571428,8.62142857142857L31.978571428571428,8.835714285714285L31.55,8.835714285714285L31.55,9.264285714285716L27.692857142857143,9.264285714285716L27.692857142857143,9.378571428571426L32.192857142857136,9.378571428571426L32.192857142857136,9.592857142857142L35.40714285714285,9.592857142857142L35.40714285714285,9.807142857142857L47.83571428571428,9.807142857142857L47.83571428571428,10.021428571428569L48.692857142857136,10.021428571428569L48.692857142857136,10.235714285714284L49.33571428571428,10.235714285714284L49.33571428571428,10.45L49.5,10.45L49.5,10.55L49.23571428571429,10.55L49.23571428571429,10.335714285714285L48.59285714285714,10.335714285714285L48.59285714285714,10.12142857142857L47.73571428571429,10.12142857142857L47.73571428571429,9.907142857142858L35.30714285714286,9.907142857142858L35.30714285714286,9.692857142857143L32.09285714285714,9.692857142857143L32.09285714285714,9.478571428571428L27.59285714285714,9.478571428571428L27.59285714285714,9.264285714285716L27.264285714285716,9.264285714285716L27.264285714285716,9.478571428571428L26.835714285714285,9.478571428571428L26.835714285714285,9.692857142857143L25.335714285714285,9.692857142857143L25.335714285714285,9.907142857142858L24.90714285714286,9.907142857142858L24.90714285714286,10.12142857142857L24.264285714285716,10.12142857142857L24.264285714285716,10.335714285714285L24.05,10.335714285714285L24.05,10.55L23.40714285714286,10.55L23.40714285714286,10.764285714285716L21.264285714285716,10.764285714285716L21.264285714285716,10.978571428571428L20.621428571428574,10.978571428571428L20.621428571428574,11.192857142857143L19.764285714285716,11.192857142857143L19.764285714285716,11.835714285714285L19.55,11.835714285714285L19.55,12L19.45,12L19.45,11.735714285714284L19.664285714285715,11.735714285714284L19.664285714285715,11.092857142857142L20.521428571428572,11.092857142857142L20.521428571428572,10.878571428571426L21.164285714285715,10.878571428571426L21.164285714285715,10.664285714285715L23.307142857142857,10.664285714285715L23.307142857142857,10.45L23.95,10.45L23.95,10.235714285714284L24.164285714285715,10.235714285714284L24.164285714285715,10.021428571428569L24.807142857142857,10.021428571428569L24.807142857142857,9.807142857142857L25.235714285714284,9.807142857142857L25.235714285714284,9.592857142857142L26.735714285714284,9.592857142857142L26.735714285714284,9.378571428571426L27.164285714285715,9.378571428571426L27.164285714285715,9.164285714285715z" stroke="none"/><path d="M74.94999999999999,5.521428571428571L74.94999999999999,5.407142857142857L70.02142857142856,5.407142857142857L70.02142857142856,4.55L69.80714285714285,4.55L69.80714285714285,4.335714285714285L68.30714285714285,4.335714285714285L68.30714285714285,4.121428571428571L68.09285714285714,4.121428571428571L68.09285714285714,3.907142857142857L67.23571428571428,3.907142857142857L67.23571428571428,3.6928571428571426L63.59285714285714,3.6928571428571426L63.59285714285714,3.2642857142857142L63.378571428571426,3.2642857142857142L63.378571428571426,3.05L63.16428571428572,3.05L63.16428571428572,2.8357142857142854L51.378571428571426,2.8357142857142854L51.378571428571426,2.6214285714285714L49.76428571428571,2.6214285714285714L49.76428571428571,2.8357142857142854L49.55,2.8357142857142854L49.55,3.2642857142857142L48.90714285714285,3.2642857142857142L48.90714285714285,3.478571428571428L48.47857142857142,3.478571428571428L48.47857142857142,3.6928571428571426L48.26428571428571,3.6928571428571426L48.26428571428571,4.335714285714285L48.05,4.335714285714285L48.05,4.5L47.95,4.5L47.95,4.235714285714286L48.16428571428572,4.235714285714286L48.16428571428572,3.592857142857143L48.378571428571426,3.592857142857143L48.378571428571426,3.3785714285714286L48.80714285714286,3.3785714285714286L48.80714285714286,3.1642857142857146L49.45,3.1642857142857146L49.45,2.7357142857142858L49.66428571428572,2.7357142857142858L49.66428571428572,2.521428571428572L51.47857142857142,2.521428571428572L51.47857142857142,2.7357142857142858L63.26428571428571,2.7357142857142858L63.26428571428571,2.95L63.47857142857142,2.95L63.47857142857142,3.1642857142857146L63.692857142857136,3.1642857142857146L63.692857142857136,3.592857142857143L67.33571428571427,3.592857142857143L67.33571428571427,3.8071428571428574L68.19285714285714,3.8071428571428574L68.19285714285714,4.021428571428571L68.40714285714284,4.021428571428571L68.40714285714284,4.235714285714286L69.90714285714284,4.235714285714286L69.90714285714284,4.45L70.12142857142855,4.45L70.12142857142855,5.307142857142857L75.04999999999998,5.307142857142857L75.04999999999998,5.521428571428571L92.40714285714284,5.521428571428571L92.40714285714284,5.735714285714286L92.62142857142855,5.735714285714286L92.62142857142855,6.378571428571428L92.83571428571427,6.378571428571428L92.83571428571427,7.021428571428571L93.04999999999998,7.021428571428571L93.04999999999998,7.5L92.94999999999999,7.5L92.94999999999999,7.121428571428571L92.73571428571428,7.121428571428571L92.73571428571428,6.478571428571428L92.52142857142856,6.478571428571428L92.52142857142856,5.835714285714285L92.30714285714285,5.835714285714285L92.30714285714285,5.621428571428571L75.04999999999998,5.621428571428571L75.04999999999998,5.735714285714286L83.62142857142855,5.735714285714286L83.62142857142855,6.378571428571428L91.97857142857141,6.378571428571428L91.97857142857141,6.5928571428571425L92.40714285714284,6.5928571428571425L92.40714285714284,7.021428571428571L92.62142857142855,7.021428571428571L92.62142857142855,7.45L92.83571428571427,7.45L92.83571428571427,7.664285714285715L95.52142857142856,7.664285714285715L95.52142857142856,7.45L95.99999999999999,7.45L95.99999999999999,7.55L95.62142857142855,7.55L95.62142857142855,7.764285714285714L92.73571428571428,7.764285714285714L92.73571428571428,7.55L92.52142857142856,7.55L92.52142857142856,7.121428571428571L92.30714285714285,7.121428571428571L92.30714285714285,6.692857142857142L91.87857142857142,6.692857142857142L91.87857142857142,6.478571428571428L83.52142857142856,6.478571428571428L83.52142857142856,5.835714285714285L74.94999999999999,5.835714285714285L74.94999999999999,5.621428571428571L69.37857142857142,5.621428571428571L69.37857142857142,4.978571428571429L69.16428571428571,4.978571428571429L69.16428571428571,4.764285714285714L68.09285714285714,4.764285714285714L68.09285714285714,4.55L67.87857142857142,4.55L67.87857142857142,4.121428571428571L67.02142857142856,4.121428571428571L67.02142857142856,3.907142857142857L63.16428571428572,3.907142857142857L63.16428571428572,3.2642857142857142L62.95,3.2642857142857142L62.95,3L63.05,3L63.05,3.1642857142857146L63.26428571428571,3.1642857142857146L63.26428571428571,3.8071428571428574L67.12142857142855,3.8071428571428574L67.12142857142855,4.021428571428571L67.97857142857141,4.021428571428571L67.97857142857141,4.45L68.19285714285714,4.45L68.19285714285714,4.664285714285715L69.2642857142857,4.664285714285715L69.2642857142857,4.878571428571429L69.47857142857141,4.878571428571429L69.47857142857141,5.521428571428571z" stroke="none"/><path d="M99.04999999999998,4.5L98.94999999999999,4.5L98.94999999999999,3L99.04999999999998,3z" stroke="none"/><path d="M57,10.55L57,10.45L57.80714285714286,10.45L57.80714285714286,10.235714285714284L58.02142857142857,10.235714285714284L58.02142857142857,9.807142857142857L58.45,9.807142857142857L58.45,9L58.55,9L58.55,9.907142857142858L58.12142857142857,9.907142857142858L58.12142857142857,10.335714285714285L57.90714285714285,10.335714285714285L57.90714285714285,10.55z" stroke="none"/><path d="M15.05,12L14.95,12L14.95,9L15.05,9z" stroke="none"/><path d="M94.44999999999999,3L94.54999999999998,3L94.54999999999998,6L94.44999999999999,6z" stroke="none"/><path d="M9.05,10.5L8.95,10.5L8.95,9.692857142857143L8.521428571428569,9.692857142857143L8.521428571428569,9.264285714285716L8.307142857142857,9.264285714285716L8.307142857142857,8.62142857142857L8.092857142857142,8.62142857142857L8.092857142857142,8.407142857142858L7.878571428571428,8.407142857142858L7.878571428571428,7.978571428571428L7.664285714285715,7.978571428571428L7.664285714285715,7.764285714285714L7.45,7.764285714285714L7.45,7.5L7.55,7.5L7.55,7.664285714285715L7.764285714285714,7.664285714285715L7.764285714285714,7.878571428571428L7.978571428571428,7.878571428571428L7.978571428571428,8.307142857142857L8.192857142857143,8.307142857142857L8.192857142857143,8.521428571428569L8.407142857142858,8.521428571428569L8.407142857142858,9.164285714285715L8.62142857142857,9.164285714285715L8.62142857142857,9.592857142857142L9.05,9.592857142857142z" stroke="none"/><path d="M95.99999999999999,9.05L95.99999999999999,8.95L96.47857142857141,8.95L96.47857142857141,9.164285714285715L97.12142857142855,9.164285714285715L97.12142857142855,9.378571428571426L97.97857142857141,9.378571428571426L97.97857142857141,9.592857142857142L98.83571428571427,9.592857142857142L98.83571428571427,10.021428571428569L99.04999999999998,10.021428571428569L99.04999999999998,10.5L98.94999999999999,10.5L98.94999999999999,10.12142857142857L98.73571428571428,10.12142857142857L98.73571428571428,9.692857142857143L97.87857142857142,9.692857142857143L97.87857142857142,9.478571428571428L97.02142857142856,9.478571428571428L97.02142857142856,9.264285714285716L96.37857142857142,9.264285714285716L96.37857142857142,9.05z" stroke="none"/><path d="M10.45,3L10.55,3L10.55,5.621428571428571L10.12142857142857,5.621428571428571L10.12142857142857,5.835714285714285L9.907142857142858,5.835714285714285L9.907142857142858,6.05L9,6.05L9,5.95L9.807142857142857,5.95L9.807142857142857,5.735714285714286L10.021428571428569,5.735714285714286L10.021428571428569,5.521428571428571L10.45,5.521428571428571z" stroke="none"/><path d="M13.5,3.05L13.5,2.95L18,2.95L18,3.05z" stroke="none"/><path d="M77.99999999999999,8.95L77.99999999999999,9.05L76.87857142857142,9.05L76.87857142857142,8.407142857142858L75.80714285714285,8.407142857142858L75.80714285714285,7.978571428571428L73.66428571428571,7.978571428571428L73.66428571428571,7.764285714285714L73.44999999999999,7.764285714285714L73.44999999999999,7.5L73.54999999999998,7.5L73.54999999999998,7.664285714285715L73.7642857142857,7.664285714285715L73.7642857142857,7.878571428571428L75.90714285714284,7.878571428571428L75.90714285714284,8.307142857142857L76.97857142857141,8.307142857142857L76.97857142857141,8.95z" stroke="none"/><path d="M80.99999999999999,9.05L80.99999999999999,8.95L86.99999999999999,8.95L86.99999999999999,9.05z" stroke="none"/><path d="M83.99999999999999,6.05L83.99999999999999,5.95L91.49999999999999,5.95L91.49999999999999,6.05z" stroke="none"/><path d="M10.55,10.5L10.45,10.5L10.45,10.12142857142857L10.235714285714284,10.12142857142857L10.235714285714284,9.907142857142858L10.021428571428569,9.907142857142858L10.021428571428569,9.478571428571428L9.592857142857142,9.478571428571428L9.592857142857142,9.264285714285716L9.164285714285715,9.264285714285716L9.164285714285715,8.62142857142857L8.521428571428569,8.62142857142857L8.521428571428569,7.335714285714285L7.878571428571428,7.335714285714285L7.878571428571428,7.121428571428571L5.307142857142857,7.121428571428571L5.307142857142857,6.264285714285714L4.664285714285715,6.264285714285714L4.664285714285715,6.05L4.5,6.05L4.5,5.95L4.764285714285714,5.95L4.764285714285714,6.164285714285715L5.407142857142857,6.164285714285715L5.407142857142857,7.021428571428571L7.978571428571428,7.021428571428571L7.978571428571428,7.235714285714286L8.62142857142857,7.235714285714286L8.62142857142857,8.521428571428569L9.264285714285716,8.521428571428569L9.264285714285716,9.164285714285715L9.692857142857143,9.164285714285715L9.692857142857143,9.378571428571426L10.12142857142857,9.378571428571426L10.12142857142857,9.807142857142857L10.335714285714285,9.807142857142857L10.335714285714285,10.021428571428569L10.55,10.021428571428569z" stroke="none"/><path d="M74.99999999999999,10.55L74.99999999999999,10.45L80.19285714285714,10.45L80.19285714285714,10.664285714285715L80.83571428571427,10.664285714285715L80.83571428571427,10.878571428571426L81.2642857142857,10.878571428571426L81.2642857142857,11.521428571428569L81.69285714285714,11.521428571428569L81.69285714285714,11.95L82.49999999999999,11.95L82.49999999999999,12.05L81.59285714285714,12.05L81.59285714285714,11.62142857142857L81.16428571428571,11.62142857142857L81.16428571428571,10.978571428571428L80.73571428571428,10.978571428571428L80.73571428571428,10.764285714285716L80.09285714285714,10.764285714285716L80.09285714285714,10.55z" stroke="none"/><path d="M43.5,9.05L43.5,8.95L46.66428571428572,8.95L46.66428571428572,8.521428571428569L49.12142857142857,8.521428571428569L49.12142857142857,9.164285714285715L49.33571428571428,9.164285714285715L49.33571428571428,9.592857142857142L49.55,9.592857142857142L49.55,10.021428571428569L49.97857142857142,10.021428571428569L49.97857142857142,10.978571428571428L41.83571428571428,10.978571428571428L41.83571428571428,11.192857142857143L37.76428571428571,11.192857142857143L37.76428571428571,11.407142857142858L37.33571428571428,11.407142857142858L37.33571428571428,11.62142857142857L36.90714285714285,11.62142857142857L36.90714285714285,12.05L36,12.05L36,11.95L36.80714285714286,11.95L36.80714285714286,11.521428571428569L37.23571428571429,11.521428571428569L37.23571428571429,11.307142857142857L37.66428571428572,11.307142857142857L37.66428571428572,11.092857142857142L41.73571428571429,11.092857142857142L41.73571428571429,10.878571428571426L49.878571428571426,10.878571428571426L49.878571428571426,10.12142857142857L49.45,10.12142857142857L49.45,9.692857142857143L49.23571428571429,9.692857142857143L49.23571428571429,9.264285714285716L49.02142857142857,9.264285714285716L49.02142857142857,8.62142857142857L46.76428571428571,8.62142857142857L46.76428571428571,9.05z" stroke="none"/><path d="M90.04999999999998,12L89.94999999999999,12L89.94999999999999,11.521428571428569L90.59285714285714,11.521428571428569L90.59285714285714,11.307142857142857L90.80714285714285,11.307142857142857L90.80714285714285,10.878571428571426L92.30714285714285,10.878571428571426L92.30714285714285,10.664285714285715L92.52142857142856,10.664285714285715L92.52142857142856,9.807142857142857L93.16428571428571,9.807142857142857L93.16428571428571,9.592857142857142L93.59285714285713,9.592857142857142L93.59285714285713,9.378571428571426L94.02142857142856,9.378571428571426L94.02142857142856,9.164285714285715L94.44999999999999,9.164285714285715L94.44999999999999,8.95L95.09285714285713,8.95L95.09285714285713,8.735714285714284L95.30714285714285,8.735714285714284L95.30714285714285,8.521428571428569L97.12142857142855,8.521428571428569L97.12142857142855,8.735714285714284L97.54999999999998,8.735714285714284L97.54999999999998,9L97.44999999999999,9L97.44999999999999,8.835714285714285L97.02142857142856,8.835714285714285L97.02142857142856,8.62142857142857L95.40714285714284,8.62142857142857L95.40714285714284,8.835714285714285L95.19285714285712,8.835714285714285L95.19285714285712,9.05L94.54999999999998,9.05L94.54999999999998,9.264285714285716L94.12142857142855,9.264285714285716L94.12142857142855,9.478571428571428L93.69285714285712,9.478571428571428L93.69285714285712,9.692857142857143L93.2642857142857,9.692857142857143L93.2642857142857,9.907142857142858L92.62142857142855,9.907142857142858L92.62142857142855,10.764285714285716L92.40714285714284,10.764285714285716L92.40714285714284,10.978571428571428L90.90714285714284,10.978571428571428L90.90714285714284,11.407142857142858L90.69285714285714,11.407142857142858L90.69285714285714,11.62142857142857L90.04999999999998,11.62142857142857z" stroke="none"/><path d="M24,2.95L24,3.05L18.90714285714286,3.05L18.90714285714286,3.2642857142857142L18.692857142857143,3.2642857142857142L18.692857142857143,3.478571428571428L12.692857142857143,3.478571428571428L12.692857142857143,3.6928571428571426L12.478571428571428,3.6928571428571426L12.478571428571428,3.907142857142857L12.05,3.907142857142857L12.05,4.121428571428571L11.62142857142857,4.121428571428571L11.62142857142857,5.0928571428571425L12.05,5.0928571428571425L12.05,5.307142857142857L12.264285714285716,5.307142857142857L12.264285714285716,5.521428571428571L12.478571428571428,5.521428571428571L12.478571428571428,6.164285714285715L12.692857142857143,6.164285714285715L12.692857142857143,6.5928571428571425L12.907142857142858,6.5928571428571425L12.907142857142858,7.235714285714286L15.692857142857143,7.235714285714286L15.692857142857143,7.45L16.5,7.45L16.5,7.55L15.592857142857142,7.55L15.592857142857142,7.335714285714285L12.807142857142857,7.335714285714285L12.807142857142857,6.692857142857142L12.592857142857142,6.692857142857142L12.592857142857142,6.264285714285714L12.378571428571426,6.264285714285714L12.378571428571426,5.621428571428571L12.164285714285715,5.621428571428571L12.164285714285715,5.407142857142857L11.95,5.407142857142857L11.95,5.192857142857142L11.521428571428569,5.192857142857142L11.521428571428569,4.021428571428571L11.95,4.021428571428571L11.95,3.8071428571428574L12.378571428571426,3.8071428571428574L12.378571428571426,3.592857142857143L12.592857142857142,3.592857142857143L12.592857142857142,3.3785714285714286L18.59285714285714,3.3785714285714286L18.59285714285714,3.1642857142857146L18.807142857142857,3.1642857142857146L18.807142857142857,2.95z" stroke="none"/><path d="M28.5,6.05L28.5,5.95L37.5,5.95L37.5,6.05z" stroke="none"/><path d="M31.5,3.05L31.5,2.95L32.62142857142857,2.95L32.62142857142857,3.1642857142857146L33.90714285714285,3.1642857142857146L33.90714285714285,3.3785714285714286L39.692857142857136,3.3785714285714286L39.692857142857136,4.021428571428571L40.55,4.021428571428571L40.55,4.5L40.45,4.5L40.45,4.121428571428571L39.59285714285714,4.121428571428571L39.59285714285714,3.478571428571428L33.80714285714286,3.478571428571428L33.80714285714286,3.2642857142857142L32.52142857142857,3.2642857142857142L32.52142857142857,3.05z" stroke="none"/><path d="M77.99999999999999,11.95L77.99999999999999,12.05L70.87857142857142,12.05L70.87857142857142,11.62142857142857L68.73571428571428,11.62142857142857L68.73571428571428,11.407142857142858L67.44999999999999,11.407142857142858L67.44999999999999,10.5L67.54999999999998,10.5L67.54999999999998,11.307142857142857L68.83571428571427,11.307142857142857L68.83571428571427,11.521428571428569L70.97857142857141,11.521428571428569L70.97857142857141,11.95z" stroke="none"/><path d="M27,10.55L27,10.45L39,10.45L39,10.55z" stroke="none"/><path d="M39,12.05L39,11.95L50.09285714285714,11.95L50.09285714285714,11.092857142857142L50.30714285714286,11.092857142857142L50.30714285714286,10.878571428571426L50.73571428571429,10.878571428571426L50.73571428571429,10.45L51,10.45L51,10.55L50.83571428571428,10.55L50.83571428571428,10.978571428571428L50.40714285714285,10.978571428571428L50.40714285714285,11.192857142857143L50.192857142857136,11.192857142857143L50.192857142857136,12.05z" stroke="none"/><path d="M70.49999999999999,11.95L70.49999999999999,12.05L67.23571428571428,12.05L67.23571428571428,11.192857142857143L67.02142857142856,11.192857142857143L67.02142857142856,10.021428571428569L82.54999999999998,10.021428571428569L82.54999999999998,10.45L82.97857142857141,10.45L82.97857142857141,11.307142857142857L83.40714285714284,11.307142857142857L83.40714285714284,11.95L83.99999999999999,11.95L83.99999999999999,12.05L83.30714285714285,12.05L83.30714285714285,11.407142857142858L82.87857142857142,11.407142857142858L82.87857142857142,10.55L82.44999999999999,10.55L82.44999999999999,10.12142857142857L67.12142857142855,10.12142857142857L67.12142857142855,11.092857142857142L67.33571428571427,11.092857142857142L67.33571428571427,11.95z" stroke="none"/><path d="M34.5,2.95L34.5,3.05L32.73571428571429,3.05L32.73571428571429,2.8357142857142854L31.878571428571426,2.8357142857142854L31.878571428571426,2.6214285714285714L31.12142857142857,2.6214285714285714L31.12142857142857,4.335714285714285L30.90714285714286,4.335714285714285L30.90714285714286,4.764285714285714L30.478571428571428,4.764285714285714L30.478571428571428,4.978571428571429L21.164285714285715,4.978571428571429L21.164285714285715,4.55L21,4.55L21,4.45L21.264285714285716,4.45L21.264285714285716,4.878571428571429L30.378571428571426,4.878571428571429L30.378571428571426,4.664285714285715L30.807142857142857,4.664285714285715L30.807142857142857,4.235714285714286L31.02142857142857,4.235714285714286L31.02142857142857,2.521428571428572L31.978571428571428,2.521428571428572L31.978571428571428,2.7357142857142858L32.83571428571428,2.7357142857142858L32.83571428571428,2.95z" stroke="none"/><path d="M70.49999999999999,4.55L70.49999999999999,4.45L71.52142857142856,4.45L71.52142857142856,4.021428571428571L85.02142857142856,4.021428571428571L85.02142857142856,3.1642857142857146L85.44999999999999,3.1642857142857146L85.44999999999999,3L85.54999999999998,3L85.54999999999998,3.2642857142857142L85.12142857142855,3.2642857142857142L85.12142857142855,4.121428571428571L71.62142857142855,4.121428571428571L71.62142857142855,4.55z" stroke="none"/><path d="M12,3.05L12,2.95L13.021428571428569,2.95L13.021428571428569,2.521428571428572L27.692857142857143,2.521428571428572L27.692857142857143,2.7357142857142858L28.55,2.7357142857142858L28.55,3L28.45,3L28.45,2.8357142857142854L27.59285714285714,2.8357142857142854L27.59285714285714,2.6214285714285714L13.12142857142857,2.6214285714285714L13.12142857142857,3.05z" stroke="none"/><path d="M25.5,10.55L25.5,10.45L26.307142857142857,10.45L26.307142857142857,10.235714285714284L26.52142857142857,10.235714285714284L26.52142857142857,10.021428571428569L42.05,10.021428571428569L42.05,10.5L41.95,10.5L41.95,10.12142857142857L26.62142857142857,10.12142857142857L26.62142857142857,10.335714285714285L26.40714285714286,10.335714285714285L26.40714285714286,10.55z" stroke="none"/><path d="M5.95,3L6.05,3L6.05,5.521428571428571L6.907142857142857,5.521428571428571L6.907142857142857,5.95L8.62142857142857,5.95L8.62142857142857,6.378571428571428L11.835714285714285,6.378571428571428L11.835714285714285,6.5928571428571425L12.05,6.5928571428571425L12.05,7.021428571428571L12.264285714285716,7.021428571428571L12.264285714285716,7.235714285714286L12.478571428571428,7.235714285714286L12.478571428571428,7.45L15.264285714285716,7.45L15.264285714285716,7.664285714285715L15.478571428571428,7.664285714285715L15.478571428571428,7.878571428571428L25.02142857142857,7.878571428571428L25.02142857142857,7.664285714285715L25.235714285714284,7.664285714285715L25.235714285714284,7.45L25.5,7.45L25.5,7.55L25.335714285714285,7.55L25.335714285714285,7.764285714285714L25.12142857142857,7.764285714285714L25.12142857142857,7.978571428571428L15.378571428571426,7.978571428571428L15.378571428571426,7.764285714285714L15.164285714285715,7.764285714285714L15.164285714285715,7.55L12.378571428571426,7.55L12.378571428571426,7.335714285714285L12.164285714285715,7.335714285714285L12.164285714285715,7.121428571428571L11.95,7.121428571428571L11.95,6.692857142857142L11.735714285714284,6.692857142857142L11.735714285714284,6.478571428571428L8.521428571428569,6.478571428571428L8.521428571428569,6.05L6.807142857142857,6.05L6.807142857142857,5.621428571428571L5.95,5.621428571428571z" stroke="none"/><path d="M71.99999999999999,4.55L71.99999999999999,4.45L92.40714285714284,4.45L92.40714285714284,4.878571428571429L92.62142857142855,4.878571428571429L92.62142857142855,5.0928571428571425L92.83571428571427,5.0928571428571425L92.83571428571427,5.95L93.04999999999998,5.95L93.04999999999998,6.378571428571428L98.73571428571428,6.378571428571428L98.73571428571428,5.95L98.99999999999999,5.95L98.99999999999999,6.05L98.83571428571427,6.05L98.83571428571427,6.478571428571428L92.94999999999999,6.478571428571428L92.94999999999999,6.05L92.73571428571428,6.05L92.73571428571428,5.192857142857142L92.52142857142856,5.192857142857142L92.52142857142856,4.978571428571429L92.30714285714285,4.978571428571429L92.30714285714285,4.55z" stroke="none"/><path d="M36,4.55L36,4.45L39.692857142857136,4.45L39.692857142857136,4.664285714285715L39.90714285714285,4.664285714285715L39.90714285714285,4.878571428571429L40.87857142857143,4.878571428571429L40.87857142857143,4.121428571428571L40.66428571428572,4.121428571428571L40.66428571428572,3.907142857142857L40.23571428571429,3.907142857142857L40.23571428571429,3.478571428571428L39.80714285714286,3.478571428571428L39.80714285714286,3.2642857142857142L35.30714285714286,3.2642857142857142L35.30714285714286,3.05L34.87857142857143,3.05L34.87857142857143,2.6214285714285714L32.30714285714286,2.6214285714285714L32.30714285714286,2.407142857142857L5.621428571428571,2.407142857142857L5.621428571428571,3.478571428571428L4.335714285714285,3.478571428571428L4.335714285714285,3.6928571428571426L4.121428571428571,3.6928571428571426L4.121428571428571,4.121428571428571L3.907142857142857,4.121428571428571L3.907142857142857,4.335714285714285L3.6928571428571426,4.335714285714285L3.6928571428571426,5.407142857142857L3.2642857142857142,5.407142857142857L3.2642857142857142,5.835714285714285L3.05,5.835714285714285L3.05,6L2.95,6L2.95,5.735714285714286L3.1642857142857146,5.735714285714286L3.1642857142857146,5.307142857142857L3.592857142857143,5.307142857142857L3.592857142857143,4.235714285714286L3.8071428571428574,4.235714285714286L3.8071428571428574,4.021428571428571L4.021428571428571,4.021428571428571L4.021428571428571,3.592857142857143L4.235714285714286,3.592857142857143L4.235714285714286,3.3785714285714286L5.521428571428571,3.3785714285714286L5.521428571428571,2.3071428571428574L32.40714285714285,2.3071428571428574L32.40714285714285,2.521428571428572L34.97857142857143,2.521428571428572L34.97857142857143,2.95L35.40714285714285,2.95L35.40714285714285,3.1642857142857146L39.90714285714285,3.1642857142857146L39.90714285714285,3.3785714285714286L40.33571428571428,3.3785714285714286L40.33571428571428,3.8071428571428574L40.76428571428571,3.8071428571428574L40.76428571428571,4.021428571428571L40.97857142857143,4.021428571428571L40.97857142857143,4.978571428571429L39.80714285714286,4.978571428571429L39.80714285714286,4.764285714285714L39.59285714285714,4.764285714285714L39.59285714285714,4.55z" stroke="none"/><path d="M40.5,2.95L40.5,3.05L35.73571428571429,3.05L35.73571428571429,2.8357142857142854L35.30714285714286,2.8357142857142854L35.30714285714286,2.6214285714285714L35.09285714285714,2.6214285714285714L35.09285714285714,2.407142857142857L32.73571428571429,2.407142857142857L32.73571428571429,2.1928571428571426L5.407142857142857,2.1928571428571426L5.407142857142857,3.2642857142857142L4.121428571428571,3.2642857142857142L4.121428571428571,3.478571428571428L3.907142857142857,3.478571428571428L3.907142857142857,3.6928571428571426L3.478571428571428,3.6928571428571426L3.478571428571428,4.764285714285714L3.05,4.764285714285714L3.05,5.621428571428571L2.6214285714285714,5.621428571428571L2.6214285714285714,6.378571428571428L3.3785714285714286,6.378571428571428L3.3785714285714286,5.735714285714286L3.592857142857143,5.735714285714286L3.592857142857143,5.521428571428571L3.8071428571428574,5.521428571428571L3.8071428571428574,4.878571428571429L4.021428571428571,4.878571428571429L4.021428571428571,4.45L4.5,4.45L4.5,4.55L4.121428571428571,4.55L4.121428571428571,4.978571428571429L3.907142857142857,4.978571428571429L3.907142857142857,5.621428571428571L3.6928571428571426,5.621428571428571L3.6928571428571426,5.835714285714285L3.478571428571428,5.835714285714285L3.478571428571428,6.478571428571428L2.521428571428572,6.478571428571428L2.521428571428572,5.521428571428571L2.95,5.521428571428571L2.95,4.664285714285715L3.3785714285714286,4.664285714285715L3.3785714285714286,3.592857142857143L3.8071428571428574,3.592857142857143L3.8071428571428574,3.3785714285714286L4.021428571428571,3.3785714285714286L4.021428571428571,3.1642857142857146L5.307142857142857,3.1642857142857146L5.307142857142857,2.092857142857143L32.83571428571428,2.092857142857143L32.83571428571428,2.3071428571428574L35.192857142857136,2.3071428571428574L35.192857142857136,2.521428571428572L35.40714285714285,2.521428571428572L35.40714285714285,2.7357142857142858L35.83571428571428,2.7357142857142858L35.83571428571428,2.95z" stroke="none"/><path d="M64.54999999999998,3L64.44999999999999,3L64.44999999999999,2.8357142857142854L63.80714285714286,2.8357142857142854L63.80714285714286,2.6214285714285714L51.59285714285714,2.6214285714285714L51.59285714285714,2.407142857142857L35.30714285714286,2.407142857142857L35.30714285714286,2.1928571428571426L33.16428571428572,2.1928571428571426L33.16428571428572,1.9785714285714286L3.907142857142857,1.9785714285714286L3.907142857142857,2.1928571428571426L3.6928571428571426,2.1928571428571426L3.6928571428571426,3.05L3.478571428571428,3.05L3.478571428571428,3.478571428571428L3.2642857142857142,3.478571428571428L3.2642857142857142,4.335714285714285L3.05,4.335714285714285L3.05,4.55L2.8357142857142854,4.55L2.8357142857142854,5.192857142857142L2.6214285714285714,5.192857142857142L2.6214285714285714,5.407142857142857L2.407142857142857,5.407142857142857L2.407142857142857,6.5928571428571425L3.592857142857143,6.5928571428571425L3.592857142857143,5.95L3.8071428571428574,5.95L3.8071428571428574,5.735714285714286L4.021428571428571,5.735714285714286L4.021428571428571,5.521428571428571L5.835714285714285,5.521428571428571L5.835714285714285,5.735714285714286L6.692857142857142,5.735714285714286L6.692857142857142,6.164285714285715L7.55,6.164285714285715L7.55,6.378571428571428L8.407142857142858,6.378571428571428L8.407142857142858,6.5928571428571425L9.05,6.5928571428571425L9.05,6.807142857142857L9.264285714285716,6.807142857142857L9.264285714285716,7.021428571428571L10.335714285714285,7.021428571428571L10.335714285714285,7.235714285714286L11.407142857142858,7.235714285714286L11.407142857142858,7.664285714285715L14.835714285714285,7.664285714285715L14.835714285714285,7.878571428571428L15.05,7.878571428571428L15.05,8.092857142857142L27.59285714285714,8.092857142857142L27.59285714285714,7.878571428571428L28.235714285714284,7.878571428571428L28.235714285714284,7.45L28.5,7.45L28.5,7.55L28.335714285714285,7.55L28.335714285714285,7.978571428571428L27.692857142857143,7.978571428571428L27.692857142857143,8.192857142857143L14.95,8.192857142857143L14.95,7.978571428571428L14.735714285714284,7.978571428571428L14.735714285714284,7.764285714285714L11.307142857142857,7.764285714285714L11.307142857142857,7.335714285714285L10.235714285714284,7.335714285714285L10.235714285714284,7.121428571428571L9.164285714285715,7.121428571428571L9.164285714285715,6.907142857142857L8.95,6.907142857142857L8.95,6.692857142857142L8.307142857142857,6.692857142857142L8.307142857142857,6.478571428571428L7.45,6.478571428571428L7.45,6.264285714285714L6.5928571428571425,6.264285714285714L6.5928571428571425,5.835714285714285L5.735714285714286,5.835714285714285L5.735714285714286,5.621428571428571L4.121428571428571,5.621428571428571L4.121428571428571,5.835714285714285L3.907142857142857,5.835714285714285L3.907142857142857,6.05L3.6928571428571426,6.05L3.6928571428571426,6.692857142857142L2.3071428571428574,6.692857142857142L2.3071428571428574,5.307142857142857L2.521428571428572,5.307142857142857L2.521428571428572,5.0928571428571425L2.7357142857142858,5.0928571428571425L2.7357142857142858,4.45L2.95,4.45L2.95,4.235714285714286L3.1642857142857146,4.235714285714286L3.1642857142857146,3.3785714285714286L3.3785714285714286,3.3785714285714286L3.3785714285714286,2.95L3.592857142857143,2.95L3.592857142857143,2.092857142857143L3.8071428571428574,2.092857142857143L3.8071428571428574,1.8785714285714286L33.26428571428571,1.8785714285714286L33.26428571428571,2.092857142857143L35.40714285714285,2.092857142857143L35.40714285714285,2.3071428571428574L51.692857142857136,2.3071428571428574L51.692857142857136,2.521428571428572L63.90714285714285,2.521428571428572L63.90714285714285,2.7357142857142858L64.54999999999998,2.7357142857142858z" stroke="none"/><path d="M63,4.55L63,4.45L64.33571428571427,4.45L64.33571428571427,4.878571428571429L64.54999999999998,4.878571428571429L64.54999999999998,5.307142857142857L64.7642857142857,5.307142857142857L64.7642857142857,5.521428571428571L69.2642857142857,5.521428571428571L69.2642857142857,5.735714285714286L74.83571428571427,5.735714285714286L74.83571428571427,5.95L81.04999999999998,5.95L81.04999999999998,6.164285714285715L81.47857142857141,6.164285714285715L81.47857142857141,6.378571428571428L81.90714285714284,6.378571428571428L81.90714285714284,6.5928571428571425L87.2642857142857,6.5928571428571425L87.2642857142857,6.807142857142857L91.97857142857141,6.807142857142857L91.97857142857141,7.235714285714286L92.19285714285712,7.235714285714286L92.19285714285712,7.664285714285715L92.40714285714284,7.664285714285715L92.40714285714284,7.878571428571428L99.2642857142857,7.878571428571428L99.2642857142857,8.521428571428569L99.69285714285712,8.521428571428569L99.69285714285712,8.95L100.49999999999999,8.95L100.49999999999999,9.05L99.59285714285713,9.05L99.59285714285713,8.62142857142857L99.16428571428571,8.62142857142857L99.16428571428571,7.978571428571428L92.30714285714285,7.978571428571428L92.30714285714285,7.764285714285714L92.09285714285713,7.764285714285714L92.09285714285713,7.335714285714285L91.87857142857142,7.335714285714285L91.87857142857142,6.907142857142857L87.16428571428571,6.907142857142857L87.16428571428571,6.692857142857142L81.80714285714285,6.692857142857142L81.80714285714285,6.478571428571428L81.37857142857142,6.478571428571428L81.37857142857142,6.264285714285714L80.94999999999999,6.264285714285714L80.94999999999999,6.05L74.73571428571428,6.05L74.73571428571428,5.835714285714285L69.16428571428571,5.835714285714285L69.16428571428571,5.621428571428571L64.66428571428571,5.621428571428571L64.66428571428571,5.407142857142857L64.44999999999999,5.407142857142857L64.44999999999999,4.978571428571429L64.23571428571428,4.978571428571429L64.23571428571428,4.55z" stroke="none"/></svg>