<svg version="1.1" width="105" height="15" xmlns="http://www.w3.org/2000/svg"><path d="M57.80714285714286,11.95L57.80714285714286,11.735714285714284L72.69285714285714,11.735714285714284L72.69285714285714,11.95L73.49999999999999,11.95L73.49999999999999,12.05L72.59285714285714,12.05L72.59285714285714,11.835714285714285L57.90714285714285,11.835714285714285L57.90714285714285,11.95L58.5,11.95L58.5,12.05L54.59285714285714,12.05L54.59285714285714,11.62142857142857L43.97857142857143,11.62142857142857L43.97857142857143,11.835714285714285L42.47857142857143,11.835714285714285L42.47857142857143,12.05L42,12.05L42,11.95L42.37857142857143,11.95L42.37857142857143,11.735714285714284L43.87857142857143,11.735714285714284L43.87857142857143,11.521428571428569L54.692857142857136,11.521428571428569L54.692857142857136,11.95z" stroke="none"/><path d="M49.45,6.5928571428571425L49.45,6.478571428571428L49.02142857142857,6.478571428571428L49.02142857142857,5.521428571428571L57.05,5.521428571428571L57.05,5.735714285714286L57.26428571428571,5.735714285714286L57.26428571428571,5.95L58.5,5.95L58.5,6.05L57.16428571428572,6.05L57.16428571428572,5.835714285714285L56.95,5.835714285714285L56.95,5.621428571428571L49.12142857142857,5.621428571428571L49.12142857142857,6.378571428571428L49.55,6.378571428571428L49.55,6.5928571428571425L51.47857142857142,6.5928571428571425L51.47857142857142,7.021428571428571L51.692857142857136,7.021428571428571L51.692857142857136,7.235714285714286L52.12142857142857,7.235714285714286L52.12142857142857,7.45L54,7.45L54,7.55L52.02142857142857,7.55L52.02142857142857,7.335714285714285L51.59285714285714,7.335714285714285L51.59285714285714,7.121428571428571L51.378571428571426,7.121428571428571L51.378571428571426,6.692857142857142L36.59285714285714,6.692857142857142L36.59285714285714,6.264285714285714L36.16428571428572,6.264285714285714L36.16428571428572,6.05L36,6.05L36,5.95L36.26428571428571,5.95L36.26428571428571,6.164285714285715L36.692857142857136,6.164285714285715L36.692857142857136,6.5928571428571425z" stroke="none"/><path d="M80.30714285714285,10.45L80.30714285714285,10.235714285714284L80.52142857142856,10.235714285714284L80.52142857142856,9.378571428571426L80.73571428571428,9.378571428571426L80.73571428571428,9.164285714285715L82.02142857142856,9.164285714285715L82.02142857142856,8.95L82.49999999999999,8.95L82.49999999999999,9.05L82.12142857142855,9.05L82.12142857142855,9.264285714285716L80.83571428571427,9.264285714285716L80.83571428571427,9.478571428571428L80.62142857142855,9.478571428571428L80.62142857142855,10.335714285714285L80.40714285714284,10.335714285714285L80.40714285714284,10.55L76.97857142857141,10.55L76.97857142857141,10.664285714285715L89.62142857142855,10.664285714285715L89.62142857142855,10.878571428571426L94.23571428571428,10.878571428571426L94.23571428571428,10.664285714285715L94.44999999999999,10.664285714285715L94.44999999999999,10.5L94.54999999999998,10.5L94.54999999999998,10.764285714285716L94.33571428571427,10.764285714285716L94.33571428571427,10.978571428571428L89.52142857142856,10.978571428571428L89.52142857142856,10.764285714285716L76.87857142857142,10.764285714285716L76.87857142857142,10.55L75.47857142857141,10.55L75.47857142857141,10.764285714285716L75.2642857142857,10.764285714285716L75.2642857142857,10.978571428571428L75.04999999999998,10.978571428571428L75.04999999999998,11.407142857142858L74.83571428571427,11.407142857142858L74.83571428571427,11.62142857142857L74.62142857142855,11.62142857142857L74.62142857142855,11.835714285714285L74.40714285714284,11.835714285714285L74.40714285714284,12.05L74.19285714285714,12.05L74.19285714285714,12.478571428571428L54.80714285714286,12.478571428571428L54.80714285714286,12.264285714285716L53.95,12.264285714285716L53.95,12L54.05,12L54.05,12.164285714285715L54.90714285714285,12.164285714285715L54.90714285714285,12.378571428571426L74.09285714285714,12.378571428571426L74.09285714285714,11.95L74.30714285714285,11.95L74.30714285714285,11.735714285714284L74.52142857142856,11.735714285714284L74.52142857142856,11.521428571428569L74.73571428571428,11.521428571428569L74.73571428571428,11.307142857142857L74.94999999999999,11.307142857142857L74.94999999999999,10.878571428571426L75.16428571428571,10.878571428571426L75.16428571428571,10.664285714285715L75.37857142857142,10.664285714285715L75.37857142857142,10.45z" stroke="none"/><path d="M58.02142857142857,7.45L58.02142857142857,7.021428571428571L83.30714285714285,7.021428571428571L83.30714285714285,6.5928571428571425L83.73571428571428,6.5928571428571425L83.73571428571428,6.378571428571428L83.94999999999999,6.378571428571428L83.94999999999999,6L84.04999999999998,6L84.04999999999998,6.478571428571428L83.83571428571427,6.478571428571428L83.83571428571427,6.692857142857142L83.40714285714284,6.692857142857142L83.40714285714284,7.121428571428571L58.12142857142857,7.121428571428571L58.12142857142857,7.55L57.05,7.55L57.05,7.764285714285714L54.692857142857136,7.764285714285714L54.692857142857136,7.978571428571428L40.55,7.978571428571428L40.55,8.835714285714285L39.90714285714285,8.835714285714285L39.90714285714285,9.05L39.05,9.05L39.05,9.264285714285716L38.62142857142857,9.264285714285716L38.62142857142857,10.12142857142857L38.40714285714285,10.12142857142857L38.40714285714285,10.55L37.5,10.55L37.5,10.45L38.30714285714286,10.45L38.30714285714286,10.021428571428569L38.52142857142857,10.021428571428569L38.52142857142857,9.164285714285715L38.95,9.164285714285715L38.95,8.95L39.80714285714286,8.95L39.80714285714286,8.735714285714284L40.45,8.735714285714284L40.45,7.878571428571428L54.59285714285714,7.878571428571428L54.59285714285714,7.664285714285715L56.95,7.664285714285715L56.95,7.55L54.59285714285714,7.55L54.59285714285714,7.335714285714285L54.378571428571426,7.335714285714285L54.378571428571426,7.121428571428571L52.23571428571429,7.121428571428571L52.23571428571429,6.907142857142857L52.02142857142857,6.907142857142857L52.02142857142857,6.478571428571428L49.66428571428572,6.478571428571428L49.66428571428572,6.05L49.5,6.05L49.5,5.95L49.76428571428571,5.95L49.76428571428571,6.378571428571428L52.12142857142857,6.378571428571428L52.12142857142857,6.807142857142857L52.33571428571428,6.807142857142857L52.33571428571428,7.021428571428571L54.47857142857142,7.021428571428571L54.47857142857142,7.235714285714286L54.692857142857136,7.235714285714286L54.692857142857136,7.45z" stroke="none"/><path d="M23.95,7.45L23.95,7.335714285714285L21.378571428571426,7.335714285714285L21.378571428571426,7.121428571428571L7.55,7.121428571428571L7.55,7.764285714285714L7.121428571428571,7.764285714285714L7.121428571428571,8.192857142857143L6.907142857142857,8.192857142857143L6.907142857142857,8.407142857142858L6.692857142857142,8.407142857142858L6.692857142857142,8.835714285714285L6.478571428571428,8.835714285714285L6.478571428571428,9.05L4.5,9.05L4.5,8.95L6.378571428571428,8.95L6.378571428571428,8.735714285714284L6.5928571428571425,8.735714285714284L6.5928571428571425,8.307142857142857L6.807142857142857,8.307142857142857L6.807142857142857,8.092857142857142L7.021428571428571,8.092857142857142L7.021428571428571,7.664285714285715L7.45,7.664285714285715L7.45,7.021428571428571L21.478571428571428,7.021428571428571L21.478571428571428,7.235714285714286L24.05,7.235714285714286L24.05,7.45L24.164285714285715,7.45L24.164285714285715,6.164285714285715L32.95,6.164285714285715L32.95,5.521428571428571L33.37857142857143,5.521428571428571L33.37857142857143,5.0928571428571425L33.59285714285714,5.0928571428571425L33.59285714285714,4.235714285714286L33.80714285714286,4.235714285714286L33.80714285714286,4.021428571428571L49.33571428571428,4.021428571428571L49.33571428571428,4.235714285714286L49.55,4.235714285714286L49.55,4.5L49.45,4.5L49.45,4.335714285714285L49.23571428571429,4.335714285714285L49.23571428571429,4.121428571428571L33.90714285714285,4.121428571428571L33.90714285714285,4.335714285714285L33.692857142857136,4.335714285714285L33.692857142857136,5.192857142857142L33.47857142857143,5.192857142857142L33.47857142857143,5.621428571428571L33.05,5.621428571428571L33.05,6.264285714285714L24.264285714285716,6.264285714285714L24.264285714285716,7.55L24.05,7.55L24.05,7.764285714285714L22.121428571428574,7.764285714285714L22.121428571428574,7.978571428571428L19.978571428571428,7.978571428571428L19.978571428571428,8.62142857142857L19.764285714285716,8.62142857142857L19.764285714285716,9.05L19.5,9.05L19.5,8.95L19.664285714285715,8.95L19.664285714285715,8.521428571428569L19.878571428571426,8.521428571428569L19.878571428571426,7.878571428571428L22.021428571428572,7.878571428571428L22.021428571428572,7.664285714285715L23.95,7.664285714285715L23.95,7.55L22.5,7.55L22.5,7.45z" stroke="none"/><path d="M83.30714285714285,5.95L83.30714285714285,5.307142857142857L84.69285714285714,5.307142857142857L84.69285714285714,7.121428571428571L84.04999999999998,7.121428571428571L84.04999999999998,7.335714285714285L83.83571428571427,7.335714285714285L83.83571428571427,7.55L82.97857142857141,7.55L82.97857142857141,7.764285714285714L81.16428571428571,7.764285714285714L81.16428571428571,7.55L80.99999999999999,7.55L80.99999999999999,7.45L81.2642857142857,7.45L81.2642857142857,7.664285714285715L82.87857142857142,7.664285714285715L82.87857142857142,7.45L83.73571428571428,7.45L83.73571428571428,7.235714285714286L83.94999999999999,7.235714285714286L83.94999999999999,7.021428571428571L84.59285714285714,7.021428571428571L84.59285714285714,5.407142857142857L83.40714285714284,5.407142857142857L83.40714285714284,5.95L83.52142857142856,5.95L83.52142857142856,5.521428571428571L84.47857142857141,5.521428571428571L84.47857142857141,6.692857142857142L84.2642857142857,6.692857142857142L84.2642857142857,6.907142857142857L83.62142857142855,6.907142857142857L83.62142857142855,7.335714285714285L82.7642857142857,7.335714285714285L82.7642857142857,7.55L82.49999999999999,7.55L82.49999999999999,7.45L82.66428571428571,7.45L82.66428571428571,7.235714285714286L83.52142857142856,7.235714285714286L83.52142857142856,6.807142857142857L84.16428571428571,6.807142857142857L84.16428571428571,6.5928571428571425L84.37857142857142,6.5928571428571425L84.37857142857142,5.621428571428571L83.62142857142855,5.621428571428571L83.62142857142855,6.05L83.40714285714284,6.05L83.40714285714284,6.264285714285714L68.73571428571428,6.264285714285714L68.73571428571428,5.735714285714286L82.66428571428571,5.735714285714286L82.66428571428571,5.521428571428571L82.87857142857142,5.521428571428571L82.87857142857142,5.0928571428571425L100.44999999999999,5.0928571428571425L100.44999999999999,4.664285714285715L100.66428571428571,4.664285714285715L100.66428571428571,4.021428571428571L100.87857142857142,4.021428571428571L100.87857142857142,3.8071428571428574L101.09285714285713,3.8071428571428574L101.09285714285713,3.592857142857143L101.30714285714285,3.592857142857143L101.30714285714285,3.1642857142857146L101.73571428571428,3.1642857142857146L101.73571428571428,2.95L101.99999999999999,2.95L101.99999999999999,3.05L101.83571428571427,3.05L101.83571428571427,3.2642857142857142L101.40714285714284,3.2642857142857142L101.40714285714284,3.6928571428571426L101.19285714285712,3.6928571428571426L101.19285714285712,3.907142857142857L100.97857142857141,3.907142857142857L100.97857142857141,4.121428571428571L100.7642857142857,4.121428571428571L100.7642857142857,4.764285714285714L100.54999999999998,4.764285714285714L100.54999999999998,5.192857142857142L82.97857142857141,5.192857142857142L82.97857142857141,5.621428571428571L82.7642857142857,5.621428571428571L82.7642857142857,5.835714285714285L68.83571428571427,5.835714285714285L68.83571428571427,6.164285714285715L83.30714285714285,6.164285714285715L83.30714285714285,6.05L68.99999999999999,6.05L68.99999999999999,5.95z" stroke="none"/><path d="M55.02142857142857,4.664285714285715L55.02142857142857,4.45L57.16428571428572,4.45L57.16428571428572,4.021428571428571L71.09285714285714,4.021428571428571L71.09285714285714,3.1642857142857146L71.94999999999999,3.1642857142857146L71.94999999999999,3L72.04999999999998,3L72.04999999999998,3.2642857142857142L71.19285714285714,3.2642857142857142L71.19285714285714,4.121428571428571L57.26428571428571,4.121428571428571L57.26428571428571,4.55L55.12142857142857,4.55L55.12142857142857,4.664285714285715L58.12142857142857,4.664285714285715L58.12142857142857,4.878571428571429L65.83571428571427,4.878571428571429L65.83571428571427,5.95L65.99999999999999,5.95L65.99999999999999,6.05L65.73571428571428,6.05L65.73571428571428,4.978571428571429L58.02142857142857,4.978571428571429L58.02142857142857,4.764285714285714L55.12142857142857,4.764285714285714L55.12142857142857,4.978571428571429L50.40714285714285,4.978571428571429L50.40714285714285,5.192857142857142L49.33571428571428,5.192857142857142L49.33571428571428,5.407142857142857L48.90714285714285,5.407142857142857L48.90714285714285,5.835714285714285L48.692857142857136,5.835714285714285L48.692857142857136,6.264285714285714L37.66428571428572,6.264285714285714L37.66428571428572,5.621428571428571L36.16428571428572,5.621428571428571L36.16428571428572,4.978571428571429L35.52142857142857,4.978571428571429L35.52142857142857,4.55L34.5,4.55L34.5,4.45L35.62142857142857,4.45L35.62142857142857,4.878571428571429L36.26428571428571,4.878571428571429L36.26428571428571,5.521428571428571L37.76428571428571,5.521428571428571L37.76428571428571,6.164285714285715L48.59285714285714,6.164285714285715L48.59285714285714,5.735714285714286L48.80714285714286,5.735714285714286L48.80714285714286,5.307142857142857L49.23571428571429,5.307142857142857L49.23571428571429,5.0928571428571425L50.30714285714286,5.0928571428571425L50.30714285714286,4.878571428571429L55.02142857142857,4.878571428571429L55.02142857142857,4.764285714285714L49.97857142857142,4.764285714285714L49.97857142857142,4.978571428571429L48.26428571428571,4.978571428571429L48.26428571428571,6.05L48,6.05L48,5.95L48.16428571428572,5.95L48.16428571428572,4.878571428571429L49.878571428571426,4.878571428571429L49.878571428571426,4.664285714285715z" stroke="none"/><path d="M70.44999999999999,8.95L70.44999999999999,8.735714285714284L81.59285714285714,8.735714285714284L81.59285714285714,8.307142857142857L88.54999999999998,8.307142857142857L88.54999999999998,8.735714285714284L89.19285714285714,8.735714285714284L89.19285714285714,9.378571428571426L89.40714285714284,9.378571428571426L89.40714285714284,9.592857142857142L89.62142857142855,9.592857142857142L89.62142857142855,10.45L89.99999999999999,10.45L89.99999999999999,10.55L89.52142857142856,10.55L89.52142857142856,9.692857142857143L89.30714285714285,9.692857142857143L89.30714285714285,9.478571428571428L89.09285714285714,9.478571428571428L89.09285714285714,8.835714285714285L88.44999999999999,8.835714285714285L88.44999999999999,8.407142857142858L81.69285714285714,8.407142857142858L81.69285714285714,8.835714285714285L70.54999999999998,8.835714285714285L70.54999999999998,8.95L81.80714285714285,8.95L81.80714285714285,8.735714285714284L82.02142857142856,8.735714285714284L82.02142857142856,8.521428571428569L88.33571428571427,8.521428571428569L88.33571428571427,8.95L88.49999999999999,8.95L88.49999999999999,9.05L88.23571428571428,9.05L88.23571428571428,8.62142857142857L82.12142857142855,8.62142857142857L82.12142857142855,8.835714285714285L81.90714285714284,8.835714285714285L81.90714285714284,9.05L70.54999999999998,9.05L70.54999999999998,9.264285714285716L41.95,9.264285714285716L41.95,9L42.05,9L42.05,9.164285714285715L70.44999999999999,9.164285714285715L70.44999999999999,9.05L62.52142857142857,9.05L62.52142857142857,8.62142857142857L62.30714285714286,8.62142857142857L62.30714285714286,8.192857142857143L62.09285714285714,8.192857142857143L62.09285714285714,7.978571428571428L61.878571428571426,7.978571428571428L61.878571428571426,7.764285714285714L61.45,7.764285714285714L61.45,7.5L61.55,7.5L61.55,7.664285714285715L61.97857142857142,7.664285714285715L61.97857142857142,7.878571428571428L62.192857142857136,7.878571428571428L62.192857142857136,8.092857142857142L62.40714285714285,8.092857142857142L62.40714285714285,8.521428571428569L62.62142857142857,8.521428571428569L62.62142857142857,8.95z" stroke="none"/><path d="M36,4.55L36,4.45L37.5,4.45L37.5,4.55z" stroke="none"/><path d="M91.49999999999999,3.05L91.49999999999999,2.95L94.49999999999999,2.95L94.49999999999999,3.05z" stroke="none"/><path d="M4.55,10.5L4.45,10.5L4.45,9.907142857142858L4.021428571428571,9.907142857142858L4.021428571428571,6.5928571428571425L4.235714285714286,6.5928571428571425L4.235714285714286,6.164285714285715L4.45,6.164285714285715L4.45,6L4.55,6L4.55,6.264285714285714L4.335714285714285,6.264285714285714L4.335714285714285,6.692857142857142L4.121428571428571,6.692857142857142L4.121428571428571,9.807142857142857L4.55,9.807142857142857z" stroke="none"/><path d="M77.99999999999999,4.55L77.99999999999999,4.45L80.52142857142856,4.45L80.52142857142856,4.021428571428571L82.54999999999998,4.021428571428571L82.54999999999998,4.5L82.44999999999999,4.5L82.44999999999999,4.121428571428571L80.62142857142855,4.121428571428571L80.62142857142855,4.55z" stroke="none"/><path d="M99.04999999999998,4.5L98.94999999999999,4.5L98.94999999999999,4.021428571428571L99.59285714285713,4.021428571428571L99.59285714285713,3.8071428571428574L100.66428571428571,3.8071428571428574L100.66428571428571,2.95L101.09285714285713,2.95L101.09285714285713,2.521428571428572L102.47857142857141,2.521428571428572L102.47857142857141,4.335714285714285L102.2642857142857,4.335714285714285L102.2642857142857,4.55L102.04999999999998,4.55L102.04999999999998,4.978571428571429L101.19285714285712,4.978571428571429L101.19285714285712,5.192857142857142L100.97857142857141,5.192857142857142L100.97857142857141,5.407142857142857L98.83571428571427,5.407142857142857L98.83571428571427,7.335714285714285L98.40714285714284,7.335714285714285L98.40714285714284,7.764285714285714L98.19285714285712,7.764285714285714L98.19285714285712,7.978571428571428L97.7642857142857,7.978571428571428L97.7642857142857,8.407142857142858L97.54999999999998,8.407142857142858L97.54999999999998,9L97.44999999999999,9L97.44999999999999,8.307142857142857L97.66428571428571,8.307142857142857L97.66428571428571,7.878571428571428L98.09285714285713,7.878571428571428L98.09285714285713,7.664285714285715L98.30714285714285,7.664285714285715L98.30714285714285,7.235714285714286L98.73571428571428,7.235714285714286L98.73571428571428,5.307142857142857L100.87857142857142,5.307142857142857L100.87857142857142,5.0928571428571425L101.09285714285713,5.0928571428571425L101.09285714285713,4.878571428571429L101.94999999999999,4.878571428571429L101.94999999999999,4.45L102.16428571428571,4.45L102.16428571428571,4.235714285714286L102.37857142857142,4.235714285714286L102.37857142857142,2.6214285714285714L101.19285714285712,2.6214285714285714L101.19285714285712,3.05L100.7642857142857,3.05L100.7642857142857,3.907142857142857L99.69285714285712,3.907142857142857L99.69285714285712,4.121428571428571L99.04999999999998,4.121428571428571z" stroke="none"/><path d="M12,8.95L12,9.05L8.192857142857143,9.05L8.192857142857143,9.264285714285716L7.978571428571428,9.264285714285716L7.978571428571428,9.478571428571428L7.55,9.478571428571428L7.55,9.907142857142858L7.335714285714285,9.907142857142858L7.335714285714285,10.12142857142857L6.907142857142857,10.12142857142857L6.907142857142857,10.335714285714285L6.264285714285714,10.335714285714285L6.264285714285714,10.55L5.835714285714285,10.55L5.835714285714285,10.764285714285716L5.192857142857142,10.764285714285716L5.192857142857142,10.978571428571428L4.021428571428571,10.978571428571428L4.021428571428571,10.12142857142857L3.8071428571428574,10.12142857142857L3.8071428571428574,5.735714285714286L4.021428571428571,5.735714285714286L4.021428571428571,5.521428571428571L7.121428571428571,5.521428571428571L7.121428571428571,5.95L7.5,5.95L7.5,6.05L7.021428571428571,6.05L7.021428571428571,5.621428571428571L4.121428571428571,5.621428571428571L4.121428571428571,5.835714285714285L3.907142857142857,5.835714285714285L3.907142857142857,10.021428571428569L4.121428571428571,10.021428571428569L4.121428571428571,10.878571428571426L5.0928571428571425,10.878571428571426L5.0928571428571425,10.664285714285715L5.735714285714286,10.664285714285715L5.735714285714286,10.45L6.164285714285715,10.45L6.164285714285715,10.235714285714284L6.807142857142857,10.235714285714284L6.807142857142857,10.021428571428569L7.235714285714286,10.021428571428569L7.235714285714286,9.807142857142857L7.45,9.807142857142857L7.45,9.378571428571426L7.878571428571428,9.378571428571426L7.878571428571428,9.164285714285715L8.092857142857142,9.164285714285715L8.092857142857142,8.95z" stroke="none"/><path d="M13.5,3.05L13.5,2.95L15.692857142857143,2.95L15.692857142857143,3.1642857142857146L16.12142857142857,3.1642857142857146L16.12142857142857,3.3785714285714286L18.378571428571426,3.3785714285714286L18.378571428571426,3.1642857142857146L18.59285714285714,3.1642857142857146L18.59285714285714,2.95L19.5,2.95L19.5,3.05L18.692857142857143,3.05L18.692857142857143,3.2642857142857142L18.478571428571428,3.2642857142857142L18.478571428571428,3.478571428571428L16.02142857142857,3.478571428571428L16.02142857142857,3.2642857142857142L15.592857142857142,3.2642857142857142L15.592857142857142,3.05z" stroke="none"/><path d="M12,6.05L12,5.95L12.807142857142857,5.95L12.807142857142857,5.735714285714286L13.021428571428569,5.735714285714286L13.021428571428569,5.521428571428571L18.264285714285716,5.521428571428571L18.264285714285716,5.735714285714286L18.90714285714286,5.735714285714286L18.90714285714286,5.95L19.5,5.95L19.5,6.05L18.807142857142857,6.05L18.807142857142857,5.835714285714285L18.164285714285715,5.835714285714285L18.164285714285715,5.621428571428571L13.12142857142857,5.621428571428571L13.12142857142857,5.835714285714285L12.907142857142858,5.835714285714285L12.907142857142858,6.05z" stroke="none"/><path d="M34.5,10.45L34.5,10.55L27,10.55L27,10.45z" stroke="none"/><path d="M10.5,10.55L10.5,10.45L16.664285714285715,10.45L16.664285714285715,10.235714285714284L17.09285714285714,10.235714285714284L17.09285714285714,10.021428571428569L17.307142857142857,10.021428571428569L17.307142857142857,9.592857142857142L17.521428571428572,9.592857142857142L17.521428571428572,9.378571428571426L17.95,9.378571428571426L17.95,9L18.05,9L18.05,9.478571428571428L17.621428571428574,9.478571428571428L17.621428571428574,9.692857142857143L17.40714285714286,9.692857142857143L17.40714285714286,10.12142857142857L17.192857142857143,10.12142857142857L17.192857142857143,10.335714285714285L16.764285714285716,10.335714285714285L16.764285714285716,10.55z" stroke="none"/><path d="M20.95,3L21.05,3L21.05,4.121428571428571L20.835714285714285,4.121428571428571L20.835714285714285,4.55L20.621428571428574,4.55L20.621428571428574,4.978571428571429L20.40714285714286,4.978571428571429L20.40714285714286,5.621428571428571L20.192857142857143,5.621428571428571L20.192857142857143,6.05L19.978571428571428,6.05L19.978571428571428,6.478571428571428L13.45,6.478571428571428L13.45,6L13.55,6L13.55,6.378571428571428L19.878571428571426,6.378571428571428L19.878571428571426,5.95L20.09285714285714,5.95L20.09285714285714,5.521428571428571L20.307142857142857,5.521428571428571L20.307142857142857,4.878571428571429L20.521428571428572,4.878571428571429L20.521428571428572,4.45L20.735714285714284,4.45L20.735714285714284,4.021428571428571L20.95,4.021428571428571z" stroke="none"/><path d="M88.49999999999999,7.55L88.49999999999999,7.45L95.83571428571427,7.45L95.83571428571427,7.878571428571428L96.47857142857141,7.878571428571428L96.47857142857141,8.307142857142857L96.69285714285712,8.307142857142857L96.69285714285712,10.021428571428569L96.90714285714284,10.021428571428569L96.90714285714284,10.235714285714284L97.12142857142855,10.235714285714284L97.12142857142855,10.45L97.49999999999999,10.45L97.49999999999999,10.55L97.02142857142856,10.55L97.02142857142856,10.335714285714285L96.80714285714285,10.335714285714285L96.80714285714285,10.12142857142857L96.59285714285713,10.12142857142857L96.59285714285713,8.407142857142858L96.37857142857142,8.407142857142858L96.37857142857142,7.978571428571428L95.73571428571428,7.978571428571428L95.73571428571428,7.55z" stroke="none"/><path d="M98.99999999999999,8.95L98.99999999999999,9.05L97.97857142857141,9.05L97.97857142857141,9.478571428571428L97.02142857142856,9.478571428571428L97.02142857142856,8.407142857142858L96.80714285714285,8.407142857142858L96.80714285714285,7.764285714285714L95.94999999999999,7.764285714285714L95.94999999999999,7.335714285714285L93.16428571428571,7.335714285714285L93.16428571428571,6.692857142857142L90.59285714285714,6.692857142857142L90.59285714285714,6.478571428571428L89.94999999999999,6.478571428571428L89.94999999999999,6L90.04999999999998,6L90.04999999999998,6.378571428571428L90.69285714285714,6.378571428571428L90.69285714285714,6.5928571428571425L93.2642857142857,6.5928571428571425L93.2642857142857,7.235714285714286L96.04999999999998,7.235714285714286L96.04999999999998,7.664285714285715L96.90714285714284,7.664285714285715L96.90714285714284,8.307142857142857L97.12142857142855,8.307142857142857L97.12142857142855,9.378571428571426L97.87857142857142,9.378571428571426L97.87857142857142,8.95z" stroke="none"/><path d="M31.5,4.45L31.5,4.55L30.478571428571428,4.55L30.478571428571428,4.764285714285714L29.192857142857143,4.764285714285714L29.192857142857143,4.978571428571429L21.90714285714286,4.978571428571429L21.90714285714286,5.192857142857142L21.692857142857143,5.192857142857142L21.692857142857143,5.621428571428571L21.478571428571428,5.621428571428571L21.478571428571428,5.835714285714285L21.264285714285716,5.835714285714285L21.264285714285716,6.05L21,6.05L21,5.95L21.164285714285715,5.95L21.164285714285715,5.735714285714286L21.378571428571426,5.735714285714286L21.378571428571426,5.521428571428571L21.59285714285714,5.521428571428571L21.59285714285714,5.0928571428571425L21.807142857142857,5.0928571428571425L21.807142857142857,4.878571428571429L29.09285714285714,4.878571428571429L29.09285714285714,4.664285714285715L30.378571428571426,4.664285714285715L30.378571428571426,4.45z" stroke="none"/><path d="M16.5,4.55L16.5,4.45L19.45,4.45L19.45,4.021428571428571L19.878571428571426,4.021428571428571L19.878571428571426,3.592857142857143L20.09285714285714,3.592857142857143L20.09285714285714,2.95L20.307142857142857,2.95L20.307142857142857,2.7357142857142858L20.521428571428572,2.7357142857142858L20.521428571428572,2.521428571428572L25.764285714285716,2.521428571428572L25.764285714285716,2.7357142857142858L26.192857142857143,2.7357142857142858L26.192857142857143,2.95L26.40714285714286,2.95L26.40714285714286,3.1642857142857146L26.62142857142857,3.1642857142857146L26.62142857142857,3.3785714285714286L27.478571428571428,3.3785714285714286L27.478571428571428,4.021428571428571L27.692857142857143,4.021428571428571L27.692857142857143,4.235714285714286L27.90714285714286,4.235714285714286L27.90714285714286,4.45L28.5,4.45L28.5,4.55L27.807142857142857,4.55L27.807142857142857,4.335714285714285L27.59285714285714,4.335714285714285L27.59285714285714,4.121428571428571L27.378571428571426,4.121428571428571L27.378571428571426,3.478571428571428L26.52142857142857,3.478571428571428L26.52142857142857,3.2642857142857142L26.307142857142857,3.2642857142857142L26.307142857142857,3.05L26.09285714285714,3.05L26.09285714285714,2.8357142857142854L25.664285714285715,2.8357142857142854L25.664285714285715,2.6214285714285714L20.621428571428574,2.6214285714285714L20.621428571428574,2.8357142857142854L20.40714285714286,2.8357142857142854L20.40714285714286,3.05L20.192857142857143,3.05L20.192857142857143,3.6928571428571426L19.978571428571428,3.6928571428571426L19.978571428571428,4.121428571428571L19.55,4.121428571428571L19.55,4.55z" stroke="none"/><path d="M37.5,8.95L37.5,9.05L34.55,9.05L34.55,9.264285714285716L33.47857142857143,9.264285714285716L33.47857142857143,9.478571428571428L26.192857142857143,9.478571428571428L26.192857142857143,9.692857142857143L25.764285714285716,9.692857142857143L25.764285714285716,10.335714285714285L25.55,10.335714285714285L25.55,10.5L25.45,10.5L25.45,10.235714285714284L25.664285714285715,10.235714285714284L25.664285714285715,9.592857142857142L26.09285714285714,9.592857142857142L26.09285714285714,9.378571428571426L33.37857142857143,9.378571428571426L33.37857142857143,9.164285714285715L34.45,9.164285714285715L34.45,8.95z" stroke="none"/><path d="M34.5,11.95L34.5,12.05L21.59285714285714,12.05L21.59285714285714,11.835714285714285L21.378571428571426,11.835714285714285L21.378571428571426,11.62142857142857L21.164285714285715,11.62142857142857L21.164285714285715,11.407142857142858L20.95,11.407142857142858L20.95,11.192857142857143L19.878571428571426,11.192857142857143L19.878571428571426,10.55L19.45,10.55L19.45,9.907142857142858L19.235714285714284,9.907142857142858L19.235714285714284,9.692857142857143L19.021428571428572,9.692857142857143L19.021428571428572,7.878571428571428L19.664285714285715,7.878571428571428L19.664285714285715,7.664285714285715L20.95,7.664285714285715L20.95,7.5L21.05,7.5L21.05,7.764285714285714L19.764285714285716,7.764285714285714L19.764285714285716,7.978571428571428L19.121428571428574,7.978571428571428L19.121428571428574,9.592857142857142L19.335714285714285,9.592857142857142L19.335714285714285,9.807142857142857L19.55,9.807142857142857L19.55,10.45L19.978571428571428,10.45L19.978571428571428,11.092857142857142L21.05,11.092857142857142L21.05,11.307142857142857L21.264285714285716,11.307142857142857L21.264285714285716,11.521428571428569L21.478571428571428,11.521428571428569L21.478571428571428,11.735714285714284L21.692857142857143,11.735714285714284L21.692857142857143,11.95z" stroke="none"/><path d="M33,4.45L33,4.55L31.878571428571426,4.55L31.878571428571426,4.121428571428571L28.235714285714284,4.121428571428571L28.235714285714284,3.907142857142857L27.59285714285714,3.907142857142857L27.59285714285714,3.2642857142857142L27.164285714285715,3.2642857142857142L27.164285714285715,3.05L26.95,3.05L26.95,2.8357142857142854L26.307142857142857,2.8357142857142854L26.307142857142857,2.6214285714285714L25.878571428571426,2.6214285714285714L25.878571428571426,2.407142857142857L18.478571428571428,2.407142857142857L18.478571428571428,2.6214285714285714L16.764285714285716,2.6214285714285714L16.764285714285716,3.05L16.5,3.05L16.5,2.95L16.664285714285715,2.95L16.664285714285715,2.521428571428572L18.378571428571426,2.521428571428572L18.378571428571426,2.3071428571428574L25.978571428571428,2.3071428571428574L25.978571428571428,2.521428571428572L26.40714285714286,2.521428571428572L26.40714285714286,2.7357142857142858L27.05,2.7357142857142858L27.05,2.95L27.264285714285716,2.95L27.264285714285716,3.1642857142857146L27.692857142857143,3.1642857142857146L27.692857142857143,3.8071428571428574L28.335714285714285,3.8071428571428574L28.335714285714285,4.021428571428571L31.978571428571428,4.021428571428571L31.978571428571428,4.45z" stroke="none"/><path d="M80.99999999999999,4.55L80.99999999999999,4.45L81.69285714285714,4.45L81.69285714285714,4.664285714285715L82.12142857142855,4.664285714285715L82.12142857142855,4.878571428571429L82.87857142857142,4.878571428571429L82.87857142857142,4.235714285714286L90.16428571428571,4.235714285714286L90.16428571428571,4.021428571428571L94.44999999999999,4.021428571428571L94.44999999999999,3.8071428571428574L94.87857142857142,3.8071428571428574L94.87857142857142,3.592857142857143L95.09285714285713,3.592857142857143L95.09285714285713,2.95L97.49999999999999,2.95L97.49999999999999,3.05L95.19285714285712,3.05L95.19285714285712,3.6928571428571426L94.97857142857141,3.6928571428571426L94.97857142857141,3.907142857142857L94.54999999999998,3.907142857142857L94.54999999999998,4.121428571428571L90.2642857142857,4.121428571428571L90.2642857142857,4.335714285714285L82.97857142857141,4.335714285714285L82.97857142857141,4.978571428571429L82.02142857142856,4.978571428571429L82.02142857142856,4.764285714285714L81.59285714285714,4.764285714285714L81.59285714285714,4.55z" stroke="none"/><path d="M63,3.05L63,2.95L71.30714285714285,2.95L71.30714285714285,2.7357142857142858L71.52142857142856,2.7357142857142858L71.52142857142856,2.521428571428572L82.33571428571427,2.521428571428572L82.33571428571427,2.7357142857142858L82.54999999999998,2.7357142857142858L82.54999999999998,3L82.44999999999999,3L82.44999999999999,2.8357142857142854L82.23571428571428,2.8357142857142854L82.23571428571428,2.6214285714285714L71.62142857142855,2.6214285714285714L71.62142857142855,2.8357142857142854L71.40714285714284,2.8357142857142854L71.40714285714284,3.05z" stroke="none"/><path d="M37.5,7.55L37.5,7.45L37.76428571428571,7.45L37.76428571428571,7.878571428571428L37.97857142857143,7.878571428571428L37.97857142857143,9.478571428571428L37.55,9.478571428571428L37.55,9.907142857142858L37.33571428571428,9.907142857142858L37.33571428571428,10.12142857142857L37.12142857142857,10.12142857142857L37.12142857142857,10.878571428571426L59.52142857142857,10.878571428571426L59.52142857142857,10.45L61.5,10.45L61.5,10.55L59.62142857142857,10.55L59.62142857142857,10.978571428571428L37.02142857142857,10.978571428571428L37.02142857142857,10.021428571428569L37.23571428571429,10.021428571428569L37.23571428571429,9.807142857142857L37.45,9.807142857142857L37.45,9.378571428571426L37.87857142857143,9.378571428571426L37.87857142857143,7.978571428571428L37.66428571428572,7.978571428571428L37.66428571428572,7.55z" stroke="none"/><path d="M6,7.55L6,7.45L7.021428571428571,7.45L7.021428571428571,7.235714285714286L7.235714285714286,7.235714285714286L7.235714285714286,6.807142857142857L8.95,6.807142857142857L8.95,6.5928571428571425L9.164285714285715,6.5928571428571425L9.164285714285715,6.378571428571428L9.378571428571426,6.378571428571428L9.378571428571426,5.521428571428571L9.592857142857142,5.521428571428571L9.592857142857142,5.307142857142857L10.021428571428569,5.307142857142857L10.021428571428569,5.0928571428571425L10.235714285714284,5.0928571428571425L10.235714285714284,4.878571428571429L12.164285714285715,4.878571428571429L12.164285714285715,3.3785714285714286L12.378571428571426,3.3785714285714286L12.378571428571426,2.7357142857142858L12.592857142857142,2.7357142857142858L12.592857142857142,2.521428571428572L16.45,2.521428571428572L16.45,2.3071428571428574L18.164285714285715,2.3071428571428574L18.164285714285715,2.092857142857143L26.62142857142857,2.092857142857143L26.62142857142857,2.521428571428572L28.55,2.521428571428572L28.55,2.7357142857142858L29.62142857142857,2.7357142857142858L29.62142857142857,2.95L30,2.95L30,3.05L29.52142857142857,3.05L29.52142857142857,2.8357142857142854L28.45,2.8357142857142854L28.45,2.6214285714285714L26.52142857142857,2.6214285714285714L26.52142857142857,2.1928571428571426L18.264285714285716,2.1928571428571426L18.264285714285716,2.407142857142857L16.55,2.407142857142857L16.55,2.6214285714285714L12.692857142857143,2.6214285714285714L12.692857142857143,2.8357142857142854L12.478571428571428,2.8357142857142854L12.478571428571428,3.478571428571428L12.264285714285716,3.478571428571428L12.264285714285716,4.978571428571429L10.335714285714285,4.978571428571429L10.335714285714285,5.192857142857142L10.12142857142857,5.192857142857142L10.12142857142857,5.407142857142857L9.692857142857143,5.407142857142857L9.692857142857143,5.621428571428571L9.478571428571428,5.621428571428571L9.478571428571428,6.478571428571428L9.264285714285716,6.478571428571428L9.264285714285716,6.692857142857142L9.05,6.692857142857142L9.05,6.907142857142857L7.335714285714285,6.907142857142857L7.335714285714285,7.335714285714285L7.121428571428571,7.335714285714285L7.121428571428571,7.55z" stroke="none"/><path d="M77.99999999999999,12.05L77.99999999999999,11.95L97.87857142857142,11.95L97.87857142857142,11.092857142857142L98.09285714285713,11.092857142857142L98.09285714285713,10.664285714285715L98.52142857142856,10.664285714285715L98.52142857142856,10.45L99.16428571428571,10.45L99.16428571428571,9.807142857142857L100.02142857142856,9.807142857142857L100.02142857142856,9.592857142857142L100.23571428571428,9.592857142857142L100.23571428571428,9.378571428571426L100.44999999999999,9.378571428571426L100.44999999999999,9.164285714285715L100.87857142857142,9.164285714285715L100.87857142857142,8.521428571428569L101.09285714285713,8.521428571428569L101.09285714285713,8.092857142857142L101.30714285714285,8.092857142857142L101.30714285714285,7.878571428571428L101.52142857142856,7.878571428571428L101.52142857142856,7.45L101.99999999999999,7.45L101.99999999999999,7.55L101.62142857142855,7.55L101.62142857142855,7.978571428571428L101.40714285714284,7.978571428571428L101.40714285714284,8.192857142857143L101.19285714285712,8.192857142857143L101.19285714285712,8.62142857142857L100.97857142857141,8.62142857142857L100.97857142857141,9.264285714285716L100.54999999999998,9.264285714285716L100.54999999999998,9.478571428571428L100.33571428571427,9.478571428571428L100.33571428571427,9.692857142857143L100.12142857142855,9.692857142857143L100.12142857142855,9.907142857142858L99.2642857142857,9.907142857142858L99.2642857142857,10.55L98.62142857142855,10.55L98.62142857142855,10.764285714285716L98.19285714285712,10.764285714285716L98.19285714285712,11.192857142857143L97.97857142857141,11.192857142857143L97.97857142857141,12.05z" stroke="none"/><path d="M10.5,3.05L10.5,2.95L11.95,2.95L11.95,2.521428571428572L12.378571428571426,2.521428571428572L12.378571428571426,2.3071428571428574L16.235714285714284,2.3071428571428574L16.235714285714284,2.092857142857143L17.735714285714284,2.092857142857143L17.735714285714284,1.8785714285714286L33.26428571428571,1.8785714285714286L33.26428571428571,2.092857142857143L35.192857142857136,2.092857142857143L35.192857142857136,2.521428571428572L35.40714285714285,2.521428571428572L35.40714285714285,2.95L36,2.95L36,3.05L35.30714285714286,3.05L35.30714285714286,2.6214285714285714L35.09285714285714,2.6214285714285714L35.09285714285714,2.1928571428571426L33.16428571428572,2.1928571428571426L33.16428571428572,1.9785714285714286L17.835714285714285,1.9785714285714286L17.835714285714285,2.1928571428571426L16.335714285714285,2.1928571428571426L16.335714285714285,2.407142857142857L12.478571428571428,2.407142857142857L12.478571428571428,2.6214285714285714L12.05,2.6214285714285714L12.05,3.05z" stroke="none"/><path d="M33,8.95L33,9.05L26.192857142857143,9.05L26.192857142857143,9.264285714285716L25.978571428571428,9.264285714285716L25.978571428571428,9.478571428571428L25.55,9.478571428571428L25.55,9.907142857142858L25.335714285714285,9.907142857142858L25.335714285714285,10.12142857142857L25.12142857142857,10.12142857142857L25.12142857142857,10.878571428571426L36.05,10.878571428571426L36.05,11.092857142857142L61.02142857142857,11.092857142857142L61.02142857142857,10.878571428571426L61.878571428571426,10.878571428571426L61.878571428571426,10.12142857142857L41.95,10.12142857142857L41.95,9.692857142857143L41.52142857142857,9.692857142857143L41.52142857142857,8.521428571428569L57.80714285714286,8.521428571428569L57.80714285714286,7.878571428571428L58.23571428571429,7.878571428571428L58.23571428571429,7.45L58.5,7.45L58.5,7.55L58.33571428571428,7.55L58.33571428571428,7.978571428571428L57.90714285714285,7.978571428571428L57.90714285714285,8.62142857142857L41.62142857142857,8.62142857142857L41.62142857142857,9.592857142857142L42.05,9.592857142857142L42.05,10.021428571428569L61.97857142857142,10.021428571428569L61.97857142857142,10.978571428571428L61.12142857142857,10.978571428571428L61.12142857142857,11.192857142857143L35.95,11.192857142857143L35.95,10.978571428571428L25.02142857142857,10.978571428571428L25.02142857142857,10.021428571428569L25.235714285714284,10.021428571428569L25.235714285714284,9.807142857142857L25.45,9.807142857142857L25.45,9.378571428571426L25.878571428571426,9.378571428571426L25.878571428571426,9.164285714285715L26.09285714285714,9.164285714285715L26.09285714285714,8.95z" stroke="none"/><path d="M4.5,3.05L4.5,2.95L9.807142857142857,2.95L9.807142857142857,2.7357142857142858L10.021428571428569,2.7357142857142858L10.021428571428569,2.521428571428572L11.735714285714284,2.521428571428572L11.735714285714284,2.3071428571428574L12.164285714285715,2.3071428571428574L12.164285714285715,2.092857142857143L15.592857142857142,2.092857142857143L15.592857142857142,1.8785714285714286L17.521428571428572,1.8785714285714286L17.521428571428572,1.6642857142857144L35.83571428571428,1.6642857142857144L35.83571428571428,2.521428571428572L36.47857142857143,2.521428571428572L36.47857142857143,3.478571428571428L31.664285714285715,3.478571428571428L31.664285714285715,3.2642857142857142L31.45,3.2642857142857142L31.45,3L31.55,3L31.55,3.1642857142857146L31.764285714285716,3.1642857142857146L31.764285714285716,3.3785714285714286L36.37857142857143,3.3785714285714286L36.37857142857143,2.6214285714285714L35.73571428571429,2.6214285714285714L35.73571428571429,1.7642857142857145L17.621428571428574,1.7642857142857145L17.621428571428574,1.9785714285714286L15.692857142857143,1.9785714285714286L15.692857142857143,2.1928571428571426L12.264285714285716,2.1928571428571426L12.264285714285716,2.407142857142857L11.835714285714285,2.407142857142857L11.835714285714285,2.6214285714285714L10.12142857142857,2.6214285714285714L10.12142857142857,2.8357142857142854L9.907142857142858,2.8357142857142854L9.907142857142858,3.05z" stroke="none"/><path d="M65.99999999999999,10.45L65.99999999999999,10.55L62.40714285714285,10.55L62.40714285714285,10.978571428571428L62.192857142857136,10.978571428571428L62.192857142857136,11.192857142857143L61.33571428571428,11.192857142857143L61.33571428571428,11.407142857142858L41.62142857142857,11.407142857142858L41.62142857142857,12.378571428571426L54.692857142857136,12.378571428571426L54.692857142857136,12.592857142857142L74.30714285714285,12.592857142857142L74.30714285714285,12.164285714285715L77.30714285714285,12.164285714285715L77.30714285714285,11.735714285714284L77.52142857142856,11.735714285714284L77.52142857142856,11.521428571428569L94.87857142857142,11.521428571428569L94.87857142857142,10.12142857142857L93.80714285714285,10.12142857142857L93.80714285714285,9.478571428571428L93.37857142857142,9.478571428571428L93.37857142857142,9.05L92.99999999999999,9.05L92.99999999999999,8.95L93.47857142857141,8.95L93.47857142857141,9.378571428571426L93.90714285714284,9.378571428571426L93.90714285714284,10.021428571428569L94.97857142857141,10.021428571428569L94.97857142857141,11.62142857142857L77.62142857142855,11.62142857142857L77.62142857142855,11.835714285714285L77.40714285714284,11.835714285714285L77.40714285714284,12.264285714285716L74.40714285714284,12.264285714285716L74.40714285714284,12.692857142857143L54.59285714285714,12.692857142857143L54.59285714285714,12.478571428571428L41.52142857142857,12.478571428571428L41.52142857142857,11.307142857142857L61.23571428571429,11.307142857142857L61.23571428571429,11.092857142857142L62.09285714285714,11.092857142857142L62.09285714285714,10.878571428571426L62.30714285714286,10.878571428571426L62.30714285714286,10.45z" stroke="none"/><path d="M4.5,12.05L4.5,11.95L21.478571428571428,11.95L21.478571428571428,12.164285714285715L34.12142857142857,12.164285714285715L34.12142857142857,12.378571428571426L35.30714285714286,12.378571428571426L35.30714285714286,11.95L36,11.95L36,12.05L35.40714285714285,12.05L35.40714285714285,12.478571428571428L34.02142857142857,12.478571428571428L34.02142857142857,12.264285714285716L21.378571428571426,12.264285714285716L21.378571428571426,12.05z" stroke="none"/><path d="M34.5,7.45L34.5,7.55L27.692857142857143,7.55L27.692857142857143,7.764285714285714L26.192857142857143,7.764285714285714L26.192857142857143,7.978571428571428L25.978571428571428,7.978571428571428L25.978571428571428,8.192857142857143L25.764285714285716,8.192857142857143L25.764285714285716,8.62142857142857L25.55,8.62142857142857L25.55,9.264285714285716L25.335714285714285,9.264285714285716L25.335714285714285,9.478571428571428L25.12142857142857,9.478571428571428L25.12142857142857,9.907142857142858L24.90714285714286,9.907142857142858L24.90714285714286,11.092857142857142L35.83571428571428,11.092857142857142L35.83571428571428,11.307142857142857L36.47857142857143,11.307142857142857L36.47857142857143,12.478571428571428L35.83571428571428,12.478571428571428L35.83571428571428,12.692857142857143L4.021428571428571,12.692857142857143L4.021428571428571,12.478571428571428L3.8071428571428574,12.478571428571428L3.8071428571428574,10.335714285714285L3.592857142857143,10.335714285714285L3.592857142857143,6.478571428571428L3.3785714285714286,6.478571428571428L3.3785714285714286,6.264285714285714L2.95,6.264285714285714L2.95,6L3.05,6L3.05,6.164285714285715L3.478571428571428,6.164285714285715L3.478571428571428,6.378571428571428L3.6928571428571426,6.378571428571428L3.6928571428571426,10.235714285714284L3.907142857142857,10.235714285714284L3.907142857142857,12.378571428571426L4.121428571428571,12.378571428571426L4.121428571428571,12.592857142857142L35.73571428571429,12.592857142857142L35.73571428571429,12.378571428571426L36.37857142857143,12.378571428571426L36.37857142857143,11.407142857142858L35.73571428571429,11.407142857142858L35.73571428571429,11.192857142857143L24.807142857142857,11.192857142857143L24.807142857142857,9.807142857142857L25.02142857142857,9.807142857142857L25.02142857142857,9.378571428571426L25.235714285714284,9.378571428571426L25.235714285714284,9.164285714285715L25.45,9.164285714285715L25.45,8.521428571428569L25.664285714285715,8.521428571428569L25.664285714285715,8.092857142857142L25.878571428571426,8.092857142857142L25.878571428571426,7.878571428571428L26.09285714285714,7.878571428571428L26.09285714285714,7.664285714285715L27.59285714285714,7.664285714285715L27.59285714285714,7.45z" stroke="none"/><path d="M97.49999999999999,7.45L97.49999999999999,7.55L97.23571428571428,7.55L97.23571428571428,7.335714285714285L96.16428571428571,7.335714285714285L96.16428571428571,7.121428571428571L93.59285714285713,7.121428571428571L93.59285714285713,6.907142857142857L93.37857142857142,6.907142857142857L93.37857142857142,6.478571428571428L91.66428571428571,6.478571428571428L91.66428571428571,6.264285714285714L90.37857142857142,6.264285714285714L90.37857142857142,5.621428571428571L88.54999999999998,5.621428571428571L88.54999999999998,6.692857142857142L88.33571428571427,6.692857142857142L88.33571428571427,6.907142857142857L88.12142857142855,6.907142857142857L88.12142857142855,7.878571428571428L94.97857142857141,7.878571428571428L94.97857142857141,8.092857142857142L95.19285714285712,8.092857142857142L95.19285714285712,8.521428571428569L95.40714285714284,8.521428571428569L95.40714285714284,9.164285714285715L96.2642857142857,9.164285714285715L96.2642857142857,10.021428571428569L96.47857142857141,10.021428571428569L96.47857142857141,10.235714285714284L96.69285714285712,10.235714285714284L96.69285714285712,10.45L96.90714285714284,10.45L96.90714285714284,10.664285714285715L97.12142857142855,10.664285714285715L97.12142857142855,10.878571428571426L97.87857142857142,10.878571428571426L97.87857142857142,10.45L98.09285714285713,10.45L98.09285714285713,10.235714285714284L98.73571428571428,10.235714285714284L98.73571428571428,9.807142857142857L98.94999999999999,9.807142857142857L98.94999999999999,9.592857142857142L99.16428571428571,9.592857142857142L99.16428571428571,9.378571428571426L99.37857142857142,9.378571428571426L99.37857142857142,8.521428571428569L99.80714285714285,8.521428571428569L99.80714285714285,8.307142857142857L100.02142857142856,8.307142857142857L100.02142857142856,6.807142857142857L100.87857142857142,6.807142857142857L100.87857142857142,6.5928571428571425L101.09285714285713,6.5928571428571425L101.09285714285713,6.378571428571428L101.30714285714285,6.378571428571428L101.30714285714285,6.164285714285715L101.52142857142856,6.164285714285715L101.52142857142856,5.95L101.94999999999999,5.95L101.94999999999999,5.0928571428571425L102.16428571428571,5.0928571428571425L102.16428571428571,4.664285714285715L102.37857142857142,4.664285714285715L102.37857142857142,4.45L102.59285714285713,4.45L102.59285714285713,2.407142857142857L83.19285714285714,2.407142857142857L83.19285714285714,3.05L82.97857142857141,3.05L82.97857142857141,3.478571428571428L71.83571428571427,3.478571428571428L71.83571428571427,3.6928571428571426L71.62142857142855,3.6928571428571426L71.62142857142855,3.907142857142857L71.40714285714284,3.907142857142857L71.40714285714284,4.335714285714285L63.47857142857142,4.335714285714285L63.47857142857142,4.55L58.5,4.55L58.5,4.45L63.378571428571426,4.45L63.378571428571426,4.235714285714286L71.30714285714285,4.235714285714286L71.30714285714285,3.8071428571428574L71.52142857142856,3.8071428571428574L71.52142857142856,3.592857142857143L71.73571428571428,3.592857142857143L71.73571428571428,3.3785714285714286L82.87857142857142,3.3785714285714286L82.87857142857142,2.95L83.09285714285714,2.95L83.09285714285714,2.3071428571428574L102.69285714285712,2.3071428571428574L102.69285714285712,4.55L102.47857142857141,4.55L102.47857142857141,4.764285714285714L102.2642857142857,4.764285714285714L102.2642857142857,5.192857142857142L102.04999999999998,5.192857142857142L102.04999999999998,6.05L101.62142857142855,6.05L101.62142857142855,6.264285714285714L101.40714285714284,6.264285714285714L101.40714285714284,6.478571428571428L101.19285714285712,6.478571428571428L101.19285714285712,6.692857142857142L100.97857142857141,6.692857142857142L100.97857142857141,6.907142857142857L100.12142857142855,6.907142857142857L100.12142857142855,8.407142857142858L99.90714285714284,8.407142857142858L99.90714285714284,8.62142857142857L99.47857142857141,8.62142857142857L99.47857142857141,9.478571428571428L99.2642857142857,9.478571428571428L99.2642857142857,9.692857142857143L99.04999999999998,9.692857142857143L99.04999999999998,9.907142857142858L98.83571428571427,9.907142857142858L98.83571428571427,10.335714285714285L98.19285714285712,10.335714285714285L98.19285714285712,10.55L97.97857142857141,10.55L97.97857142857141,10.978571428571428L97.02142857142856,10.978571428571428L97.02142857142856,10.764285714285716L96.80714285714285,10.764285714285716L96.80714285714285,10.55L96.59285714285713,10.55L96.59285714285713,10.335714285714285L96.37857142857142,10.335714285714285L96.37857142857142,10.12142857142857L96.16428571428571,10.12142857142857L96.16428571428571,9.264285714285716L95.30714285714285,9.264285714285716L95.30714285714285,8.62142857142857L95.09285714285713,8.62142857142857L95.09285714285713,8.192857142857143L94.87857142857142,8.192857142857143L94.87857142857142,7.978571428571428L88.02142857142856,7.978571428571428L88.02142857142856,6.807142857142857L88.23571428571428,6.807142857142857L88.23571428571428,6.5928571428571425L88.44999999999999,6.5928571428571425L88.44999999999999,5.521428571428571L90.47857142857141,5.521428571428571L90.47857142857141,6.164285714285715L91.7642857142857,6.164285714285715L91.7642857142857,6.378571428571428L93.47857142857141,6.378571428571428L93.47857142857141,6.807142857142857L93.69285714285712,6.807142857142857L93.69285714285712,7.021428571428571L96.2642857142857,7.021428571428571L96.2642857142857,7.235714285714286L97.33571428571427,7.235714285714286L97.33571428571427,7.45z" stroke="none"/><path d="M54,2.95L54,3.05L53.09285714285714,3.05L53.09285714285714,2.8357142857142854L52.878571428571426,2.8357142857142854L52.878571428571426,2.6214285714285714L37.66428571428572,2.6214285714285714L37.66428571428572,2.407142857142857L37.45,2.407142857142857L37.45,1.9785714285714286L36.16428571428572,1.9785714285714286L36.16428571428572,1.7642857142857145L35.95,1.7642857142857145L35.95,1.55L6.05,1.55L6.05,1.9785714285714286L5.407142857142857,1.9785714285714286L5.407142857142857,2.1928571428571426L5.192857142857142,2.1928571428571426L5.192857142857142,2.407142857142857L4.335714285714285,2.407142857142857L4.335714285714285,2.6214285714285714L4.121428571428571,2.6214285714285714L4.121428571428571,3.3785714285714286L5.192857142857142,3.3785714285714286L5.192857142857142,3.8071428571428574L7.121428571428571,3.8071428571428574L7.121428571428571,4.878571428571429L8.192857142857143,4.878571428571429L8.192857142857143,5.0928571428571425L8.407142857142858,5.0928571428571425L8.407142857142858,5.735714285714286L8.62142857142857,5.735714285714286L8.62142857142857,5.95L9,5.95L9,6.05L8.521428571428569,6.05L8.521428571428569,5.835714285714285L8.307142857142857,5.835714285714285L8.307142857142857,5.192857142857142L8.092857142857142,5.192857142857142L8.092857142857142,4.978571428571429L7.021428571428571,4.978571428571429L7.021428571428571,3.907142857142857L5.0928571428571425,3.907142857142857L5.0928571428571425,3.478571428571428L4.021428571428571,3.478571428571428L4.021428571428571,2.521428571428572L4.235714285714286,2.521428571428572L4.235714285714286,2.3071428571428574L5.0928571428571425,2.3071428571428574L5.0928571428571425,2.092857142857143L5.307142857142857,2.092857142857143L5.307142857142857,1.8785714285714286L5.95,1.8785714285714286L5.95,1.45L36.05,1.45L36.05,1.6642857142857144L36.26428571428571,1.6642857142857144L36.26428571428571,1.8785714285714286L37.55,1.8785714285714286L37.55,2.3071428571428574L37.76428571428571,2.3071428571428574L37.76428571428571,2.521428571428572L52.97857142857142,2.521428571428572L52.97857142857142,2.7357142857142858L53.192857142857136,2.7357142857142858L53.192857142857136,2.95z" stroke="none"/><path d="M3.05,7.5L2.95,7.5L2.95,6.478571428571428L2.521428571428572,6.478571428571428L2.521428571428572,1.45L2.7357142857142858,1.45L2.7357142857142858,1.2357142857142858L53.62142857142857,1.2357142857142858L53.62142857142857,1.45L54.05,1.45L54.05,2.092857142857143L54.47857142857142,2.092857142857143L54.47857142857142,3.478571428571428L52.878571428571426,3.478571428571428L52.878571428571426,3.2642857142857142L52.45,3.2642857142857142L52.45,3L52.55,3L52.55,3.1642857142857146L52.97857142857142,3.1642857142857146L52.97857142857142,3.3785714285714286L54.378571428571426,3.3785714285714286L54.378571428571426,2.1928571428571426L53.95,2.1928571428571426L53.95,1.55L53.52142857142857,1.55L53.52142857142857,1.3357142857142859L2.8357142857142854,1.3357142857142859L2.8357142857142854,1.55L2.6214285714285714,1.55L2.6214285714285714,6.378571428571428L3.05,6.378571428571428z" stroke="none"/><circle cx="58.5" cy="12" r="0.25" stroke-width="0" fill="#000" /><circle cx="73.49999999999999" cy="12" r="0.25" stroke-width="0" fill="#000" /><circle cx="42" cy="12" r="0.25" stroke-width="0" fill="#000" /><circle cx="54" cy="7.5" r="0.25" stroke-width="0" fill="#000" /><circle cx="58.5" cy="6" r="0.25" stroke-width="0" fill="#000" /><circle cx="36" cy="6" r="0.25" stroke-width="0" fill="#000" /><circle cx="82.49999999999999" cy="9" r="0.25" stroke-width="0" fill="#000" /><circle cx="94.49999999999999" cy="10.5" r="0.25" stroke-width="0" fill="#000" /><circle cx="54" cy="12" r="0.25" stroke-width="0" fill="#000" /><circle cx="49.5" cy="6" r="0.25" stroke-width="0" fill="#000" /><circle cx="37.5" cy="10.5" r="0.25" stroke-width="0" fill="#000" /><circle cx="83.99999999999999" cy="6" r="0.25" stroke-width="0" fill="#000" /><circle cx="22.5" cy="7.5" r="0.25" stroke-width="0" fill="#000" /><circle cx="19.5" cy="9" r="0.25" stroke-width="0" fill="#000" /><circle cx="4.5" cy="9" r="0.25" stroke-width="0" fill="#000" /><circle cx="49.5" cy="4.5" r="0.25" stroke-width="0" fill="#000" /><circle cx="82.49999999999999" cy="7.5" r="0.25" stroke-width="0" fill="#000" /><circle cx="80.99999999999999" cy="7.5" r="0.25" stroke-width="0" fill="#000" /><circle cx="68.99999999999999" cy="6" r="0.25" stroke-width="0" fill="#000" /><circle cx="101.99999999999999" cy="3" r="0.25" stroke-width="0" fill="#000" /><circle cx="48" cy="6" r="0.25" stroke-width="0" fill="#000" /><circle cx="65.99999999999999" cy="6" r="0.25" stroke-width="0" fill="#000" /><circle cx="71.99999999999999" cy="3" r="0.25" stroke-width="0" fill="#000" /><circle cx="34.5" cy="4.5" r="0.25" stroke-width="0" fill="#000" /><circle cx="61.5" cy="7.5" r="0.25" stroke-width="0" fill="#000" /><circle cx="88.49999999999999" cy="9" r="0.25" stroke-width="0" fill="#000" /><circle cx="89.99999999999999" cy="10.5" r="0.25" stroke-width="0" fill="#000" /><circle cx="42" cy="9" r="0.25" stroke-width="0" fill="#000" /><circle cx="36" cy="4.5" r="0.25" stroke-width="0" fill="#000" /><circle cx="37.5" cy="4.5" r="0.25" stroke-width="0" fill="#000" /><circle cx="91.49999999999999" cy="3" r="0.25" stroke-width="0" fill="#000" /><circle cx="94.49999999999999" cy="3" r="0.25" stroke-width="0" fill="#000" /><circle cx="4.5" cy="10.5" r="0.25" stroke-width="0" fill="#000" /><circle cx="4.5" cy="6" r="0.25" stroke-width="0" fill="#000" /><circle cx="77.99999999999999" cy="4.5" r="0.25" stroke-width="0" fill="#000" /><circle cx="82.49999999999999" cy="4.5" r="0.25" stroke-width="0" fill="#000" /><circle cx="98.99999999999999" cy="4.5" r="0.25" stroke-width="0" fill="#000" /><circle cx="97.49999999999999" cy="9" r="0.25" stroke-width="0" fill="#000" /><circle cx="12" cy="9" r="0.25" stroke-width="0" fill="#000" /><circle cx="7.5" cy="6" r="0.25" stroke-width="0" fill="#000" /><circle cx="13.5" cy="3" r="0.25" stroke-width="0" fill="#000" /><circle cx="19.5" cy="3" r="0.25" stroke-width="0" fill="#000" /><circle cx="12" cy="6" r="0.25" stroke-width="0" fill="#000" /><circle cx="19.5" cy="6" r="0.25" stroke-width="0" fill="#000" /><circle cx="34.5" cy="10.5" r="0.25" stroke-width="0" fill="#000" /><circle cx="27" cy="10.5" r="0.25" stroke-width="0" fill="#000" /><circle cx="10.5" cy="10.5" r="0.25" stroke-width="0" fill="#000" /><circle cx="18" cy="9" r="0.25" stroke-width="0" fill="#000" /><circle cx="21" cy="3" r="0.25" stroke-width="0" fill="#000" /><circle cx="13.5" cy="6" r="0.25" stroke-width="0" fill="#000" /><circle cx="88.49999999999999" cy="7.5" r="0.25" stroke-width="0" fill="#000" /><circle cx="97.49999999999999" cy="10.5" r="0.25" stroke-width="0" fill="#000" /><circle cx="98.99999999999999" cy="9" r="0.25" stroke-width="0" fill="#000" /><circle cx="89.99999999999999" cy="6" r="0.25" stroke-width="0" fill="#000" /><circle cx="31.5" cy="4.5" r="0.25" stroke-width="0" fill="#000" /><circle cx="21" cy="6" r="0.25" stroke-width="0" fill="#000" /><circle cx="16.5" cy="4.5" r="0.25" stroke-width="0" fill="#000" /><circle cx="28.5" cy="4.5" r="0.25" stroke-width="0" fill="#000" /><circle cx="37.5" cy="9" r="0.25" stroke-width="0" fill="#000" /><circle cx="25.5" cy="10.5" r="0.25" stroke-width="0" fill="#000" /><circle cx="34.5" cy="12" r="0.25" stroke-width="0" fill="#000" /><circle cx="21" cy="7.5" r="0.25" stroke-width="0" fill="#000" /><circle cx="33" cy="4.5" r="0.25" stroke-width="0" fill="#000" /><circle cx="16.5" cy="3" r="0.25" stroke-width="0" fill="#000" /><circle cx="80.99999999999999" cy="4.5" r="0.25" stroke-width="0" fill="#000" /><circle cx="97.49999999999999" cy="3" r="0.25" stroke-width="0" fill="#000" /><circle cx="63" cy="3" r="0.25" stroke-width="0" fill="#000" /><circle cx="82.49999999999999" cy="3" r="0.25" stroke-width="0" fill="#000" /><circle cx="37.5" cy="7.5" r="0.25" stroke-width="0" fill="#000" /><circle cx="61.5" cy="10.5" r="0.25" stroke-width="0" fill="#000" /><circle cx="6" cy="7.5" r="0.25" stroke-width="0" fill="#000" /><circle cx="30" cy="3" r="0.25" stroke-width="0" fill="#000" /><circle cx="77.99999999999999" cy="12" r="0.25" stroke-width="0" fill="#000" /><circle cx="101.99999999999999" cy="7.5" r="0.25" stroke-width="0" fill="#000" /><circle cx="10.5" cy="3" r="0.25" stroke-width="0" fill="#000" /><circle cx="36" cy="3" r="0.25" stroke-width="0" fill="#000" /><circle cx="33" cy="9" r="0.25" stroke-width="0" fill="#000" /><circle cx="58.5" cy="7.5" r="0.25" stroke-width="0" fill="#000" /><circle cx="4.5" cy="3" r="0.25" stroke-width="0" fill="#000" /><circle cx="31.5" cy="3" r="0.25" stroke-width="0" fill="#000" /><circle cx="65.99999999999999" cy="10.5" r="0.25" stroke-width="0" fill="#000" /><circle cx="92.99999999999999" cy="9" r="0.25" stroke-width="0" fill="#000" /><circle cx="4.5" cy="12" r="0.25" stroke-width="0" fill="#000" /><circle cx="36" cy="12" r="0.25" stroke-width="0" fill="#000" /><circle cx="34.5" cy="7.5" r="0.25" stroke-width="0" fill="#000" /><circle cx="3" cy="6" r="0.25" stroke-width="0" fill="#000" /><circle cx="97.49999999999999" cy="7.5" r="0.25" stroke-width="0" fill="#000" /><circle cx="58.5" cy="4.5" r="0.25" stroke-width="0" fill="#000" /><circle cx="54" cy="3" r="0.25" stroke-width="0" fill="#000" /><circle cx="9" cy="6" r="0.25" stroke-width="0" fill="#000" /><circle cx="3" cy="7.5" r="0.25" stroke-width="0" fill="#000" /><circle cx="52.5" cy="3" r="0.25" stroke-width="0" fill="#000" /><rect x="0" y="0" width="105" height="15" stroke-width="0.2" stroke="#000" fill="none" /></svg>