<svg version="1.1" width="105" height="15" xmlns="http://www.w3.org/2000/svg"><path d="M30.90714285714286,8.735714285714284L30.90714285714286,9.164285714285715L31.12142857142857,9.164285714285715L31.12142857142857,9.807142857142857L31.55,9.807142857142857L31.55,10.5L31.45,10.5L31.45,9.907142857142858L31.02142857142857,9.907142857142858L31.02142857142857,9.264285714285716L30.807142857142857,9.264285714285716L30.807142857142857,8.835714285714285L26.835714285714285,8.835714285714285L26.835714285714285,8.95L28.55,8.95L28.55,9.164285714285715L28.764285714285716,9.164285714285715L28.764285714285716,9.378571428571426L28.978571428571428,9.378571428571426L28.978571428571428,9.807142857142857L29.192857142857143,9.807142857142857L29.192857142857143,10.021428571428569L29.40714285714286,10.021428571428569L29.40714285714286,10.235714285714284L30.05,10.235714285714284L30.05,10.45L31.335714285714285,10.45L31.335714285714285,10.664285714285715L32.40714285714285,10.664285714285715L32.40714285714285,11.092857142857142L32.62142857142857,11.092857142857142L32.62142857142857,12.378571428571426L46.23571428571429,12.378571428571426L46.23571428571429,12.164285714285715L46.45,12.164285714285715L46.45,12L46.55,12L46.55,12.264285714285716L46.33571428571428,12.264285714285716L46.33571428571428,12.478571428571428L32.52142857142857,12.478571428571428L32.52142857142857,11.192857142857143L32.30714285714286,11.192857142857143L32.30714285714286,10.764285714285716L31.235714285714284,10.764285714285716L31.235714285714284,10.55L29.95,10.55L29.95,10.335714285714285L29.307142857142857,10.335714285714285L29.307142857142857,10.12142857142857L29.09285714285714,10.12142857142857L29.09285714285714,9.907142857142858L28.878571428571426,9.907142857142858L28.878571428571426,9.478571428571428L28.664285714285715,9.478571428571428L28.664285714285715,9.264285714285716L28.45,9.264285714285716L28.45,9.05L26.735714285714284,9.05L26.735714285714284,8.835714285714285L14.835714285714285,8.835714285714285L14.835714285714285,9.05L14.407142857142858,9.05L14.407142857142858,9.264285714285716L13.978571428571428,9.264285714285716L13.978571428571428,9.478571428571428L10.55,9.478571428571428L10.55,10.12142857142857L10.12142857142857,10.12142857142857L10.12142857142857,10.335714285714285L9.692857142857143,10.335714285714285L9.692857142857143,10.55L9,10.55L9,10.45L9.592857142857142,10.45L9.592857142857142,10.235714285714284L10.021428571428569,10.235714285714284L10.021428571428569,10.021428571428569L10.45,10.021428571428569L10.45,9.378571428571426L13.878571428571426,9.378571428571426L13.878571428571426,9.164285714285715L14.307142857142857,9.164285714285715L14.307142857142857,8.95L14.735714285714284,8.95L14.735714285714284,8.735714285714284z" stroke="none"/><path d="M59.62142857142857,7.664285714285715L59.62142857142857,7.878571428571428L62.62142857142857,7.878571428571428L62.62142857142857,8.307142857142857L62.83571428571428,8.307142857142857L62.83571428571428,8.521428571428569L63.05,8.521428571428569L63.05,8.95L63.90714285714285,8.95L63.90714285714285,9.164285714285715L64.12142857142857,9.164285714285715L64.12142857142857,9.378571428571426L71.94999999999999,9.378571428571426L71.94999999999999,8.735714285714284L72.16428571428571,8.735714285714284L72.16428571428571,8.307142857142857L72.37857142857142,8.307142857142857L72.37857142857142,7.878571428571428L72.80714285714285,7.878571428571428L72.80714285714285,7.664285714285715L73.23571428571428,7.664285714285715L73.23571428571428,7.45L73.49999999999999,7.45L73.49999999999999,7.55L73.33571428571427,7.55L73.33571428571427,7.764285714285714L72.90714285714284,7.764285714285714L72.90714285714284,7.978571428571428L72.47857142857141,7.978571428571428L72.47857142857141,8.407142857142858L72.2642857142857,8.407142857142858L72.2642857142857,8.835714285714285L72.04999999999998,8.835714285714285L72.04999999999998,9.478571428571428L64.02142857142857,9.478571428571428L64.02142857142857,9.264285714285716L63.80714285714286,9.264285714285716L63.80714285714286,9.05L62.95,9.05L62.95,8.62142857142857L62.73571428571429,8.62142857142857L62.73571428571429,8.407142857142858L62.52142857142857,8.407142857142858L62.52142857142857,7.978571428571428L59.52142857142857,7.978571428571428L59.52142857142857,7.764285714285714L47.83571428571428,7.764285714285714L47.83571428571428,9.478571428571428L46.33571428571428,9.478571428571428L46.33571428571428,9.692857142857143L46.12142857142857,9.692857142857143L46.12142857142857,9.907142857142858L45.692857142857136,9.907142857142858L45.692857142857136,10.12142857142857L45.47857142857143,10.12142857142857L45.47857142857143,10.335714285714285L45.26428571428571,10.335714285714285L45.26428571428571,10.55L45.05,10.55L45.05,10.764285714285716L38.62142857142857,10.764285714285716L38.62142857142857,10.978571428571428L33.05,10.978571428571428L33.05,12L32.95,12L32.95,10.878571428571426L38.52142857142857,10.878571428571426L38.52142857142857,10.664285714285715L44.95,10.664285714285715L44.95,10.45L45.16428571428572,10.45L45.16428571428572,10.235714285714284L45.37857142857143,10.235714285714284L45.37857142857143,10.021428571428569L45.59285714285714,10.021428571428569L45.59285714285714,9.807142857142857L46.02142857142857,9.807142857142857L46.02142857142857,9.592857142857142L46.23571428571429,9.592857142857142L46.23571428571429,9.378571428571426L47.73571428571429,9.378571428571426L47.73571428571429,7.764285714285714L47.62142857142857,7.764285714285714L47.62142857142857,7.978571428571428L46.97857142857142,7.978571428571428L46.97857142857142,8.192857142857143L45.90714285714285,8.192857142857143L45.90714285714285,8.407142857142858L45.47857142857143,8.407142857142858L45.47857142857143,8.62142857142857L44.83571428571428,8.62142857142857L44.83571428571428,9.05L44.40714285714285,9.05L44.40714285714285,9.692857142857143L44.192857142857136,9.692857142857143L44.192857142857136,9.907142857142858L43.76428571428571,9.907142857142858L43.76428571428571,10.335714285714285L43.55,10.335714285714285L43.55,10.5L43.45,10.5L43.45,10.235714285714284L43.66428571428572,10.235714285714284L43.66428571428572,9.807142857142857L44.09285714285714,9.807142857142857L44.09285714285714,9.592857142857142L44.30714285714286,9.592857142857142L44.30714285714286,8.95L44.73571428571429,8.95L44.73571428571429,8.521428571428569L45.37857142857143,8.521428571428569L45.37857142857143,8.307142857142857L45.80714285714286,8.307142857142857L45.80714285714286,8.092857142857142L46.878571428571426,8.092857142857142L46.878571428571426,7.878571428571428L47.52142857142857,7.878571428571428L47.52142857142857,7.664285714285715z" stroke="none"/><path d="M90.2642857142857,2.7357142857142858L90.2642857142857,2.95L90.90714285714284,2.95L90.90714285714284,3.8071428571428574L91.12142857142855,3.8071428571428574L91.12142857142855,4.021428571428571L92.83571428571427,4.021428571428571L92.83571428571427,4.45L92.99999999999999,4.45L92.99999999999999,4.55L92.73571428571428,4.55L92.73571428571428,4.121428571428571L91.02142857142856,4.121428571428571L91.02142857142856,3.907142857142857L90.80714285714285,3.907142857142857L90.80714285714285,3.05L90.16428571428571,3.05L90.16428571428571,2.8357142857142854L87.2642857142857,2.8357142857142854L87.2642857142857,2.95L90.04999999999998,2.95L90.04999999999998,3.592857142857143L90.2642857142857,3.592857142857143L90.2642857142857,3.8071428571428574L90.47857142857141,3.8071428571428574L90.47857142857141,4.021428571428571L90.69285714285714,4.021428571428571L90.69285714285714,4.235714285714286L92.62142857142855,4.235714285714286L92.62142857142855,4.664285714285715L94.54999999999998,4.664285714285715L94.54999999999998,5.0928571428571425L94.7642857142857,5.0928571428571425L94.7642857142857,5.307142857142857L94.97857142857141,5.307142857142857L94.97857142857141,5.521428571428571L95.40714285714284,5.521428571428571L95.40714285714284,6.5928571428571425L95.62142857142855,6.5928571428571425L95.62142857142855,6.807142857142857L96.04999999999998,6.807142857142857L96.04999999999998,7.021428571428571L97.12142857142855,7.021428571428571L97.12142857142855,7.235714285714286L97.33571428571427,7.235714285714286L97.33571428571427,7.45L98.99999999999999,7.45L98.99999999999999,7.55L97.23571428571428,7.55L97.23571428571428,7.335714285714285L97.02142857142856,7.335714285714285L97.02142857142856,7.121428571428571L95.94999999999999,7.121428571428571L95.94999999999999,6.907142857142857L95.52142857142856,6.907142857142857L95.52142857142856,6.692857142857142L95.30714285714285,6.692857142857142L95.30714285714285,5.621428571428571L94.87857142857142,5.621428571428571L94.87857142857142,5.407142857142857L94.66428571428571,5.407142857142857L94.66428571428571,5.192857142857142L94.44999999999999,5.192857142857142L94.44999999999999,4.764285714285714L92.52142857142856,4.764285714285714L92.52142857142856,4.335714285714285L90.59285714285714,4.335714285714285L90.59285714285714,4.121428571428571L90.37857142857142,4.121428571428571L90.37857142857142,3.907142857142857L90.16428571428571,3.907142857142857L90.16428571428571,3.6928571428571426L89.94999999999999,3.6928571428571426L89.94999999999999,3.05L87.16428571428571,3.05L87.16428571428571,2.8357142857142854L76.54999999999998,2.8357142857142854L76.54999999999998,3L76.44999999999999,3L76.44999999999999,2.7357142857142858z" stroke="none"/><path d="M60.692857142857136,3.8071428571428574L60.692857142857136,4.021428571428571L61.55,4.021428571428571L61.55,4.5L61.45,4.5L61.45,4.121428571428571L60.59285714285714,4.121428571428571L60.59285714285714,3.907142857142857L49.33571428571428,3.907142857142857L49.33571428571428,4.021428571428571L58.76428571428571,4.021428571428571L58.76428571428571,4.235714285714286L59.192857142857136,4.235714285714286L59.192857142857136,4.878571428571429L59.40714285714285,4.878571428571429L59.40714285714285,5.0928571428571425L60.05,5.0928571428571425L60.05,5.307142857142857L60.692857142857136,5.307142857142857L60.692857142857136,5.735714285714286L60.90714285714285,5.735714285714286L60.90714285714285,5.95L61.12142857142857,5.95L61.12142857142857,6.164285714285715L61.55,6.164285714285715L61.55,6.5928571428571425L62.192857142857136,6.5928571428571425L62.192857142857136,7.664285714285715L63.05,7.664285714285715L63.05,8.307142857142857L63.26428571428571,8.307142857142857L63.26428571428571,8.735714285714284L64.12142857142857,8.735714285714284L64.12142857142857,8.95L64.49999999999999,8.95L64.49999999999999,9.05L64.02142857142857,9.05L64.02142857142857,8.835714285714285L63.16428571428572,8.835714285714285L63.16428571428572,8.407142857142858L62.95,8.407142857142858L62.95,7.764285714285714L62.09285714285714,7.764285714285714L62.09285714285714,6.692857142857142L61.45,6.692857142857142L61.45,6.264285714285714L61.02142857142857,6.264285714285714L61.02142857142857,6.05L60.80714285714286,6.05L60.80714285714286,5.835714285714285L60.59285714285714,5.835714285714285L60.59285714285714,5.407142857142857L59.95,5.407142857142857L59.95,5.192857142857142L59.30714285714286,5.192857142857142L59.30714285714286,4.978571428571429L59.09285714285714,4.978571428571429L59.09285714285714,4.335714285714285L58.66428571428572,4.335714285714285L58.66428571428572,4.121428571428571L49.23571428571429,4.121428571428571L49.23571428571429,3.907142857142857L28.978571428571428,3.907142857142857L28.978571428571428,4.121428571428571L28.55,4.121428571428571L28.55,4.5L28.45,4.5L28.45,4.021428571428571L28.878571428571426,4.021428571428571L28.878571428571426,3.8071428571428574z" stroke="none"/><path d="M53.30714285714286,3.3785714285714286L53.30714285714286,3.2642857142857142L47.09285714285714,3.2642857142857142L47.09285714285714,3.05L46.878571428571426,3.05L46.878571428571426,2.6214285714285714L28.55,2.6214285714285714L28.55,2.8357142857142854L27.90714285714286,2.8357142857142854L27.90714285714286,5.0928571428571425L56.62142857142857,5.0928571428571425L56.62142857142857,5.307142857142857L56.83571428571428,5.307142857142857L56.83571428571428,5.735714285714286L57.05,5.735714285714286L57.05,5.95L58.97857142857142,5.95L58.97857142857142,6.164285714285715L59.83571428571428,6.164285714285715L59.83571428571428,6.5928571428571425L60.05,6.5928571428571425L60.05,7.5L59.95,7.5L59.95,6.692857142857142L59.73571428571429,6.692857142857142L59.73571428571429,6.264285714285714L58.878571428571426,6.264285714285714L58.878571428571426,6.05L56.95,6.05L56.95,5.835714285714285L56.73571428571429,5.835714285714285L56.73571428571429,5.407142857142857L56.52142857142857,5.407142857142857L56.52142857142857,5.192857142857142L27.807142857142857,5.192857142857142L27.807142857142857,2.7357142857142858L28.45,2.7357142857142858L28.45,2.521428571428572L46.97857142857142,2.521428571428572L46.97857142857142,2.95L47.192857142857136,2.95L47.192857142857136,3.1642857142857146L53.40714285714285,3.1642857142857146L53.40714285714285,3.3785714285714286L53.52142857142857,3.3785714285714286L53.52142857142857,3.05L48.16428571428572,3.05L48.16428571428572,2.6214285714285714L47.09285714285714,2.6214285714285714L47.09285714285714,2.407142857142857L27.90714285714286,2.407142857142857L27.90714285714286,2.6214285714285714L27.692857142857143,2.6214285714285714L27.692857142857143,5.307142857142857L36.05,5.307142857142857L36.05,6L35.95,6L35.95,5.407142857142857L27.59285714285714,5.407142857142857L27.59285714285714,2.521428571428572L27.807142857142857,2.521428571428572L27.807142857142857,2.3071428571428574L47.192857142857136,2.3071428571428574L47.192857142857136,2.521428571428572L48.26428571428571,2.521428571428572L48.26428571428571,2.95L53.62142857142857,2.95L53.62142857142857,3.478571428571428L53.40714285714285,3.478571428571428L53.40714285714285,3.592857142857143L73.97857142857141,3.592857142857143L73.97857142857141,4.021428571428571L74.83571428571427,4.021428571428571L74.83571428571427,4.235714285714286L75.04999999999998,4.235714285714286L75.04999999999998,4.664285714285715L75.2642857142857,4.664285714285715L75.2642857142857,5.0928571428571425L75.90714285714284,5.0928571428571425L75.90714285714284,5.307142857142857L76.33571428571427,5.307142857142857L76.33571428571427,5.521428571428571L76.54999999999998,5.521428571428571L76.54999999999998,5.95L76.97857142857141,5.95L76.97857142857141,6.164285714285715L77.40714285714284,6.164285714285715L77.40714285714284,6.5928571428571425L77.62142857142855,6.5928571428571425L77.62142857142855,7.235714285714286L78.47857142857141,7.235714285714286L78.47857142857141,7.664285714285715L79.12142857142855,7.664285714285715L79.12142857142855,7.878571428571428L79.87857142857142,7.878571428571428L79.87857142857142,6.907142857142857L79.66428571428571,6.907142857142857L79.66428571428571,6.264285714285714L79.44999999999999,6.264285714285714L79.44999999999999,5.835714285714285L79.23571428571428,5.835714285714285L79.23571428571428,5.621428571428571L79.02142857142856,5.621428571428571L79.02142857142856,5.192857142857142L78.37857142857142,5.192857142857142L78.37857142857142,4.978571428571429L77.94999999999999,4.978571428571429L77.94999999999999,4.5L78.04999999999998,4.5L78.04999999999998,4.878571428571429L78.47857142857141,4.878571428571429L78.47857142857141,5.0928571428571425L79.12142857142855,5.0928571428571425L79.12142857142855,5.521428571428571L79.33571428571427,5.521428571428571L79.33571428571427,5.735714285714286L79.54999999999998,5.735714285714286L79.54999999999998,6.164285714285715L79.7642857142857,6.164285714285715L79.7642857142857,6.807142857142857L79.97857142857141,6.807142857142857L79.97857142857141,7.978571428571428L79.02142857142856,7.978571428571428L79.02142857142856,7.764285714285714L78.37857142857142,7.764285714285714L78.37857142857142,7.335714285714285L77.52142857142856,7.335714285714285L77.52142857142856,6.692857142857142L77.30714285714285,6.692857142857142L77.30714285714285,6.264285714285714L76.87857142857142,6.264285714285714L76.87857142857142,6.05L76.44999999999999,6.05L76.44999999999999,5.621428571428571L76.23571428571428,5.621428571428571L76.23571428571428,5.407142857142857L75.80714285714285,5.407142857142857L75.80714285714285,5.192857142857142L75.16428571428571,5.192857142857142L75.16428571428571,4.764285714285714L74.94999999999999,4.764285714285714L74.94999999999999,4.335714285714285L74.73571428571428,4.335714285714285L74.73571428571428,4.121428571428571L73.87857142857142,4.121428571428571L73.87857142857142,3.6928571428571426L53.30714285714286,3.6928571428571426L53.30714285714286,3.478571428571428L28.764285714285716,3.478571428571428L28.764285714285716,3.907142857142857L28.12142857142857,3.907142857142857L28.12142857142857,4.878571428571429L47.52142857142857,4.878571428571429L47.52142857142857,4.45L48,4.45L48,4.55L47.62142857142857,4.55L47.62142857142857,4.978571428571429L28.02142857142857,4.978571428571429L28.02142857142857,3.8071428571428574L28.664285714285715,3.8071428571428574L28.664285714285715,3.3785714285714286z" stroke="none"/><path d="M15.378571428571426,2.3071428571428574L15.378571428571426,2.1928571428571426L5.835714285714285,2.1928571428571426L5.835714285714285,2.407142857142857L5.621428571428571,2.407142857142857L5.621428571428571,2.6214285714285714L4.978571428571429,2.6214285714285714L4.978571428571429,2.8357142857142854L4.764285714285714,2.8357142857142854L4.764285714285714,3.05L4.5,3.05L4.5,2.95L4.664285714285715,2.95L4.664285714285715,2.7357142857142858L4.878571428571429,2.7357142857142858L4.878571428571429,2.521428571428572L5.521428571428571,2.521428571428572L5.521428571428571,2.3071428571428574L5.735714285714286,2.3071428571428574L5.735714285714286,2.092857142857143L15.478571428571428,2.092857142857143L15.478571428571428,2.3071428571428574L20.192857142857143,2.3071428571428574L20.192857142857143,2.521428571428572L20.621428571428574,2.521428571428572L20.621428571428574,2.95L21,2.95L21,3.05L20.521428571428572,3.05L20.521428571428572,2.6214285714285714L20.09285714285714,2.6214285714285714L20.09285714285714,2.407142857142857L15.478571428571428,2.407142857142857L15.478571428571428,2.521428571428572L19.55,2.521428571428572L19.55,2.7357142857142858L19.764285714285716,2.7357142857142858L19.764285714285716,2.95L20.40714285714286,2.95L20.40714285714286,3.1642857142857146L23.62142857142857,3.1642857142857146L23.62142857142857,3.3785714285714286L25.335714285714285,3.3785714285714286L25.335714285714285,3.592857142857143L25.55,3.592857142857143L25.55,3.8071428571428574L25.764285714285716,3.8071428571428574L25.764285714285716,4.235714285714286L26.192857142857143,4.235714285714286L26.192857142857143,4.45L26.62142857142857,4.45L26.62142857142857,4.878571428571429L27.05,4.878571428571429L27.05,5.307142857142857L27.478571428571428,5.307142857142857L27.478571428571428,5.521428571428571L34.55,5.521428571428571L34.55,5.735714285714286L34.97857142857143,5.735714285714286L34.97857142857143,5.95L35.40714285714285,5.95L35.40714285714285,6.164285714285715L35.62142857142857,6.164285714285715L35.62142857142857,6.378571428571428L35.83571428571428,6.378571428571428L35.83571428571428,6.5928571428571425L37.12142857142857,6.5928571428571425L37.12142857142857,6.807142857142857L37.76428571428571,6.807142857142857L37.76428571428571,7.021428571428571L37.97857142857143,7.021428571428571L37.97857142857143,7.235714285714286L38.62142857142857,7.235714285714286L38.62142857142857,7.45L39,7.45L39,7.55L38.52142857142857,7.55L38.52142857142857,7.335714285714285L37.87857142857143,7.335714285714285L37.87857142857143,7.121428571428571L37.66428571428572,7.121428571428571L37.66428571428572,6.907142857142857L37.02142857142857,6.907142857142857L37.02142857142857,6.692857142857142L35.73571428571429,6.692857142857142L35.73571428571429,6.478571428571428L35.52142857142857,6.478571428571428L35.52142857142857,6.264285714285714L35.30714285714286,6.264285714285714L35.30714285714286,6.05L34.87857142857143,6.05L34.87857142857143,5.835714285714285L34.45,5.835714285714285L34.45,5.621428571428571L27.378571428571426,5.621428571428571L27.378571428571426,5.407142857142857L26.95,5.407142857142857L26.95,4.978571428571429L26.52142857142857,4.978571428571429L26.52142857142857,4.55L26.09285714285714,4.55L26.09285714285714,4.335714285714285L25.664285714285715,4.335714285714285L25.664285714285715,3.907142857142857L25.45,3.907142857142857L25.45,3.6928571428571426L25.235714285714284,3.6928571428571426L25.235714285714284,3.478571428571428L23.52142857142857,3.478571428571428L23.52142857142857,3.2642857142857142L20.307142857142857,3.2642857142857142L20.307142857142857,3.05L19.664285714285715,3.05L19.664285714285715,2.8357142857142854L19.45,2.8357142857142854L19.45,2.6214285714285714L15.378571428571426,2.6214285714285714L15.378571428571426,2.407142857142857L7.335714285714285,2.407142857142857L7.335714285714285,3.05L7.121428571428571,3.05L7.121428571428571,3.2642857142857142L6.907142857142857,3.2642857142857142L6.907142857142857,3.6928571428571426L6.264285714285714,3.6928571428571426L6.264285714285714,4.121428571428571L6.05,4.121428571428571L6.05,4.5L5.95,4.5L5.95,4.021428571428571L6.164285714285715,4.021428571428571L6.164285714285715,3.592857142857143L6.807142857142857,3.592857142857143L6.807142857142857,3.1642857142857146L7.021428571428571,3.1642857142857146L7.021428571428571,2.95L7.235714285714286,2.95L7.235714285714286,2.3071428571428574z" stroke="none"/><path d="M82.02142857142856,1.8785714285714286L82.02142857142856,1.7642857142857145L67.97857142857141,1.7642857142857145L67.97857142857141,1.9785714285714286L67.54999999999998,1.9785714285714286L67.54999999999998,3L67.44999999999999,3L67.44999999999999,1.8785714285714286L67.87857142857142,1.8785714285714286L67.87857142857142,1.6642857142857144L82.12142857142855,1.6642857142857144L82.12142857142855,1.8785714285714286L91.97857142857141,1.8785714285714286L91.97857142857141,2.092857142857143L92.19285714285712,2.092857142857143L92.19285714285712,2.3071428571428574L92.62142857142855,2.3071428571428574L92.62142857142855,2.521428571428572L92.83571428571427,2.521428571428572L92.83571428571427,2.7357142857142858L93.04999999999998,2.7357142857142858L93.04999999999998,3L92.94999999999999,3L92.94999999999999,2.8357142857142854L92.73571428571428,2.8357142857142854L92.73571428571428,2.6214285714285714L92.52142857142856,2.6214285714285714L92.52142857142856,2.407142857142857L92.09285714285713,2.407142857142857L92.09285714285713,2.1928571428571426L91.87857142857142,2.1928571428571426L91.87857142857142,1.9785714285714286L82.12142857142855,1.9785714285714286L82.12142857142855,2.092857142857143L91.54999999999998,2.092857142857143L91.54999999999998,2.3071428571428574L91.7642857142857,2.3071428571428574L91.7642857142857,2.521428571428572L91.97857142857141,2.521428571428572L91.97857142857141,2.95L92.19285714285712,2.95L92.19285714285712,3.1642857142857146L95.19285714285712,3.1642857142857146L95.19285714285712,3.3785714285714286L97.02142857142856,3.3785714285714286L97.02142857142856,3.1642857142857146L97.23571428571428,3.1642857142857146L97.23571428571428,2.95L97.49999999999999,2.95L97.49999999999999,3.05L97.33571428571427,3.05L97.33571428571427,3.2642857142857142L97.12142857142855,3.2642857142857142L97.12142857142855,3.478571428571428L95.09285714285713,3.478571428571428L95.09285714285713,3.2642857142857142L92.09285714285713,3.2642857142857142L92.09285714285713,3.05L91.87857142857142,3.05L91.87857142857142,2.6214285714285714L91.66428571428571,2.6214285714285714L91.66428571428571,2.407142857142857L91.44999999999999,2.407142857142857L91.44999999999999,2.1928571428571426L82.02142857142856,2.1928571428571426L82.02142857142856,1.9785714285714286L76.97857142857141,1.9785714285714286L76.97857142857141,2.1928571428571426L76.7642857142857,2.1928571428571426L76.7642857142857,2.407142857142857L76.33571428571427,2.407142857142857L76.33571428571427,2.6214285714285714L76.12142857142855,2.6214285714285714L76.12142857142855,5.0928571428571425L77.19285714285714,5.0928571428571425L77.19285714285714,5.735714285714286L77.40714285714284,5.735714285714286L77.40714285714284,5.95L77.62142857142855,5.95L77.62142857142855,6.164285714285715L77.83571428571427,6.164285714285715L77.83571428571427,6.5928571428571425L78.47857142857141,6.5928571428571425L78.47857142857141,7.021428571428571L79.33571428571427,7.021428571428571L79.33571428571427,7.235714285714286L79.54999999999998,7.235714285714286L79.54999999999998,7.5L79.44999999999999,7.5L79.44999999999999,7.335714285714285L79.23571428571428,7.335714285714285L79.23571428571428,7.121428571428571L78.37857142857142,7.121428571428571L78.37857142857142,6.692857142857142L77.73571428571428,6.692857142857142L77.73571428571428,6.264285714285714L77.52142857142856,6.264285714285714L77.52142857142856,6.05L77.30714285714285,6.05L77.30714285714285,5.835714285714285L77.09285714285714,5.835714285714285L77.09285714285714,5.192857142857142L76.02142857142856,5.192857142857142L76.02142857142856,2.521428571428572L76.23571428571428,2.521428571428572L76.23571428571428,2.3071428571428574L76.66428571428571,2.3071428571428574L76.66428571428571,2.092857142857143L76.87857142857142,2.092857142857143L76.87857142857142,1.8785714285714286z" stroke="none"/><path d="M20.307142857142857,6.807142857142857L20.307142857142857,6.692857142857142L12.05,6.692857142857142L12.05,6.907142857142857L11.835714285714285,6.907142857142857L11.835714285714285,7.121428571428571L11.62142857142857,7.121428571428571L11.62142857142857,7.335714285714285L11.407142857142858,7.335714285714285L11.407142857142858,7.55L11.192857142857143,7.55L11.192857142857143,7.978571428571428L10.12142857142857,7.978571428571428L10.12142857142857,8.407142857142858L9.692857142857143,8.407142857142858L9.692857142857143,8.62142857142857L9.478571428571428,8.62142857142857L9.478571428571428,8.835714285714285L9.264285714285716,8.835714285714285L9.264285714285716,9.05L9.05,9.05L9.05,9.478571428571428L8.835714285714285,9.478571428571428L8.835714285714285,10.12142857142857L8.62142857142857,10.12142857142857L8.62142857142857,10.878571428571426L9.592857142857142,10.878571428571426L9.592857142857142,10.664285714285715L10.235714285714284,10.664285714285715L10.235714285714284,10.45L10.5,10.45L10.5,10.55L10.335714285714285,10.55L10.335714285714285,10.764285714285716L9.692857142857143,10.764285714285716L9.692857142857143,10.978571428571428L8.521428571428569,10.978571428571428L8.521428571428569,10.021428571428569L8.735714285714284,10.021428571428569L8.735714285714284,9.378571428571426L8.95,9.378571428571426L8.95,8.95L9.164285714285715,8.95L9.164285714285715,8.735714285714284L9.378571428571426,8.735714285714284L9.378571428571426,8.521428571428569L9.592857142857142,8.521428571428569L9.592857142857142,8.307142857142857L10.021428571428569,8.307142857142857L10.021428571428569,7.878571428571428L11.092857142857142,7.878571428571428L11.092857142857142,7.45L11.307142857142857,7.45L11.307142857142857,7.235714285714286L11.521428571428569,7.235714285714286L11.521428571428569,7.021428571428571L11.735714285714284,7.021428571428571L11.735714285714284,6.807142857142857L11.95,6.807142857142857L11.95,6.5928571428571425L20.40714285714286,6.5928571428571425L20.40714285714286,6.807142857142857L28.235714285714284,6.807142857142857L28.235714285714284,6.5928571428571425L28.45,6.5928571428571425L28.45,6L28.55,6L28.55,6.692857142857142L28.335714285714285,6.692857142857142L28.335714285714285,6.907142857142857L20.40714285714286,6.907142857142857L20.40714285714286,7.021428571428571L31.764285714285716,7.021428571428571L31.764285714285716,7.664285714285715L32.83571428571428,7.664285714285715L32.83571428571428,7.878571428571428L33.47857142857143,7.878571428571428L33.47857142857143,8.95L34.33571428571428,8.95L34.33571428571428,9.378571428571426L35.62142857142857,9.378571428571426L35.62142857142857,9.807142857142857L35.83571428571428,9.807142857142857L35.83571428571428,10.235714285714284L36.90714285714285,10.235714285714284L36.90714285714285,10.45L37.5,10.45L37.5,10.55L36.80714285714286,10.55L36.80714285714286,10.335714285714285L35.73571428571429,10.335714285714285L35.73571428571429,9.907142857142858L35.52142857142857,9.907142857142858L35.52142857142857,9.478571428571428L34.23571428571429,9.478571428571428L34.23571428571429,9.05L33.37857142857143,9.05L33.37857142857143,7.978571428571428L32.73571428571429,7.978571428571428L32.73571428571429,7.764285714285714L31.664285714285715,7.764285714285714L31.664285714285715,7.121428571428571L20.307142857142857,7.121428571428571L20.307142857142857,6.907142857142857L16.764285714285716,6.907142857142857L16.764285714285716,7.335714285714285L16.55,7.335714285714285L16.55,7.55L16.12142857142857,7.55L16.12142857142857,7.764285714285714L15.478571428571428,7.764285714285714L15.478571428571428,8.192857142857143L14.62142857142857,8.192857142857143L14.62142857142857,8.835714285714285L13.764285714285716,8.835714285714285L13.764285714285716,9.05L13.5,9.05L13.5,8.95L13.664285714285715,8.95L13.664285714285715,8.735714285714284L14.521428571428569,8.735714285714284L14.521428571428569,8.092857142857142L15.378571428571426,8.092857142857142L15.378571428571426,7.664285714285715L16.02142857142857,7.664285714285715L16.02142857142857,7.45L16.45,7.45L16.45,7.235714285714286L16.664285714285715,7.235714285714286L16.664285714285715,6.807142857142857z" stroke="none"/><path d="M58.5,3.05L58.5,2.95L60,2.95L60,3.05z" stroke="none"/><path d="M73.54999999999998,12L73.44999999999999,12L73.44999999999999,10.5L73.54999999999998,10.5z" stroke="none"/><path d="M46.5,2.95L46.5,3.05L45,3.05L45,2.95z" stroke="none"/><path d="M60,12.05L60,11.95L61.5,11.95L61.5,12.05z" stroke="none"/><path d="M67.49999999999999,10.55L67.49999999999999,10.45L70.49999999999999,10.45L70.49999999999999,10.55z" stroke="none"/><path d="M79.44999999999999,9L79.54999999999998,9L79.54999999999998,9.907142857142858L79.33571428571427,9.907142857142858L79.33571428571427,10.12142857142857L79.12142857142855,10.12142857142857L79.12142857142855,11.307142857142857L79.33571428571427,11.307142857142857L79.33571428571427,11.521428571428569L79.54999999999998,11.521428571428569L79.54999999999998,12L79.44999999999999,12L79.44999999999999,11.62142857142857L79.23571428571428,11.62142857142857L79.23571428571428,11.407142857142858L79.02142857142856,11.407142857142858L79.02142857142856,10.021428571428569L79.23571428571428,10.021428571428569L79.23571428571428,9.807142857142857L79.44999999999999,9.807142857142857z" stroke="none"/><path d="M17.95,3L18.05,3L18.05,5.735714285714286L18.264285714285716,5.735714285714286L18.264285714285716,5.95L19.5,5.95L19.5,6.05L18.164285714285715,6.05L18.164285714285715,5.835714285714285L17.95,5.835714285714285z" stroke="none"/><path d="M21,10.45L21,10.55L20.835714285714285,10.55L20.835714285714285,10.764285714285716L20.40714285714286,10.764285714285716L20.40714285714286,11.192857142857143L19.978571428571428,11.192857142857143L19.978571428571428,11.407142857142858L19.764285714285716,11.407142857142858L19.764285714285716,11.835714285714285L18.264285714285716,11.835714285714285L18.264285714285716,12.05L18,12.05L18,11.95L18.164285714285715,11.95L18.164285714285715,11.735714285714284L19.664285714285715,11.735714285714284L19.664285714285715,11.307142857142857L19.878571428571426,11.307142857142857L19.878571428571426,11.092857142857142L20.307142857142857,11.092857142857142L20.307142857142857,10.664285714285715L20.735714285714284,10.664285714285715L20.735714285714284,10.45z" stroke="none"/><path d="M63,6.05L63,5.95L67.49999999999999,5.95L67.49999999999999,6.05z" stroke="none"/><path d="M5.95,3L6.05,3L6.05,3.907142857142857L5.835714285714285,3.907142857142857L5.835714285714285,4.121428571428571L5.621428571428571,4.121428571428571L5.621428571428571,7.121428571428571L5.407142857142857,7.121428571428571L5.407142857142857,7.335714285714285L5.192857142857142,7.335714285714285L5.192857142857142,7.55L4.5,7.55L4.5,7.45L5.0928571428571425,7.45L5.0928571428571425,7.235714285714286L5.307142857142857,7.235714285714286L5.307142857142857,7.021428571428571L5.521428571428571,7.021428571428571L5.521428571428571,4.021428571428571L5.735714285714286,4.021428571428571L5.735714285714286,3.8071428571428574L5.95,3.8071428571428574z" stroke="none"/><path d="M80.99999999999999,4.55L80.99999999999999,4.45L84.47857142857141,4.45L84.47857142857141,6.164285714285715L85.12142857142855,6.164285714285715L85.12142857142855,7.021428571428571L85.54999999999998,7.021428571428571L85.54999999999998,7.5L85.44999999999999,7.5L85.44999999999999,7.121428571428571L85.02142857142856,7.121428571428571L85.02142857142856,6.264285714285714L84.37857142857142,6.264285714285714L84.37857142857142,4.55z" stroke="none"/><path d="M42,4.45L42,4.55L36,4.55L36,4.45z" stroke="none"/><path d="M95.99999999999999,3.05L95.99999999999999,2.95L96.59285714285713,2.95L96.59285714285713,2.521428571428572L97.97857142857141,2.521428571428572L97.97857142857141,3.3785714285714286L98.40714285714284,3.3785714285714286L98.40714285714284,3.592857142857143L98.83571428571427,3.592857142857143L98.83571428571427,3.8071428571428574L99.04999999999998,3.8071428571428574L99.04999999999998,4.021428571428571L99.2642857142857,4.021428571428571L99.2642857142857,4.235714285714286L99.69285714285712,4.235714285714286L99.69285714285712,4.664285714285715L99.90714285714284,4.664285714285715L99.90714285714284,5.307142857142857L100.33571428571427,5.307142857142857L100.33571428571427,5.521428571428571L100.54999999999998,5.521428571428571L100.54999999999998,5.735714285714286L100.7642857142857,5.735714285714286L100.7642857142857,6.164285714285715L100.97857142857141,6.164285714285715L100.97857142857141,6.807142857142857L101.19285714285712,6.807142857142857L101.19285714285712,7.235714285714286L101.40714285714284,7.235714285714286L101.40714285714284,7.45L101.99999999999999,7.45L101.99999999999999,7.55L101.30714285714285,7.55L101.30714285714285,7.335714285714285L101.09285714285713,7.335714285714285L101.09285714285713,6.907142857142857L100.87857142857142,6.907142857142857L100.87857142857142,6.264285714285714L100.66428571428571,6.264285714285714L100.66428571428571,5.835714285714285L100.44999999999999,5.835714285714285L100.44999999999999,5.621428571428571L100.23571428571428,5.621428571428571L100.23571428571428,5.407142857142857L99.80714285714285,5.407142857142857L99.80714285714285,4.764285714285714L99.59285714285713,4.764285714285714L99.59285714285713,4.335714285714285L99.16428571428571,4.335714285714285L99.16428571428571,4.121428571428571L98.94999999999999,4.121428571428571L98.94999999999999,3.907142857142857L98.73571428571428,3.907142857142857L98.73571428571428,3.6928571428571426L98.30714285714285,3.6928571428571426L98.30714285714285,3.478571428571428L97.87857142857142,3.478571428571428L97.87857142857142,2.6214285714285714L96.69285714285712,2.6214285714285714L96.69285714285712,3.05z" stroke="none"/><path d="M10.5,5.95L10.5,6.05L7.55,6.05L7.55,6.907142857142857L7.335714285714285,6.907142857142857L7.335714285714285,7.121428571428571L6.478571428571428,7.121428571428571L6.478571428571428,7.978571428571428L4.021428571428571,7.978571428571428L4.021428571428571,4.764285714285714L2.95,4.764285714285714L2.95,4.5L3.05,4.5L3.05,4.664285714285715L4.121428571428571,4.664285714285715L4.121428571428571,7.878571428571428L6.378571428571428,7.878571428571428L6.378571428571428,7.021428571428571L7.235714285714286,7.021428571428571L7.235714285714286,6.807142857142857L7.45,6.807142857142857L7.45,5.95z" stroke="none"/><path d="M79.49999999999999,10.55L79.49999999999999,10.45L85.12142857142855,10.45L85.12142857142855,10.664285714285715L85.33571428571427,10.664285714285715L85.33571428571427,11.092857142857142L85.7642857142857,11.092857142857142L85.7642857142857,11.735714285714284L87.04999999999998,11.735714285714284L87.04999999999998,12L86.94999999999999,12L86.94999999999999,11.835714285714285L85.66428571428571,11.835714285714285L85.66428571428571,11.192857142857143L85.23571428571428,11.192857142857143L85.23571428571428,10.764285714285716L85.02142857142856,10.764285714285716L85.02142857142856,10.55z" stroke="none"/><path d="M3,9.05L3,8.95L4.978571428571429,8.95L4.978571428571429,9.807142857142857L5.192857142857142,9.807142857142857L5.192857142857142,10.45L5.835714285714285,10.45L5.835714285714285,10.664285714285715L6.478571428571428,10.664285714285715L6.478571428571428,10.878571428571426L6.907142857142857,10.878571428571426L6.907142857142857,11.092857142857142L9.692857142857143,11.092857142857142L9.692857142857143,11.307142857142857L9.907142857142858,11.307142857142857L9.907142857142858,11.521428571428569L10.55,11.521428571428569L10.55,12L10.45,12L10.45,11.62142857142857L9.807142857142857,11.62142857142857L9.807142857142857,11.407142857142858L9.592857142857142,11.407142857142858L9.592857142857142,11.192857142857143L6.807142857142857,11.192857142857143L6.807142857142857,10.978571428571428L6.378571428571428,10.978571428571428L6.378571428571428,10.764285714285716L5.735714285714286,10.764285714285716L5.735714285714286,10.55L5.0928571428571425,10.55L5.0928571428571425,9.907142857142858L4.878571428571429,9.907142857142858L4.878571428571429,9.05z" stroke="none"/><path d="M88.49999999999999,9.05L88.49999999999999,8.95L89.19285714285714,8.95L89.19285714285714,9.164285714285715L89.62142857142855,9.164285714285715L89.62142857142855,9.378571428571426L98.73571428571428,9.378571428571426L98.73571428571428,9.164285714285715L98.94999999999999,9.164285714285715L98.94999999999999,9L99.04999999999998,9L99.04999999999998,9.264285714285716L98.83571428571427,9.264285714285716L98.83571428571427,9.478571428571428L89.52142857142856,9.478571428571428L89.52142857142856,9.264285714285716L89.09285714285714,9.264285714285716L89.09285714285714,9.05z" stroke="none"/><path d="M16.45,4.5L16.55,4.5L16.55,5.307142857142857L16.764285714285716,5.307142857142857L16.764285714285716,5.521428571428571L17.192857142857143,5.521428571428571L17.192857142857143,5.735714285714286L17.40714285714286,5.735714285714286L17.40714285714286,6.164285714285715L19.121428571428574,6.164285714285715L19.121428571428574,6.378571428571428L26.307142857142857,6.378571428571428L26.307142857142857,6.164285714285715L26.735714285714284,6.164285714285715L26.735714285714284,5.95L27,5.95L27,6.05L26.835714285714285,6.05L26.835714285714285,6.264285714285714L26.40714285714286,6.264285714285714L26.40714285714286,6.478571428571428L19.021428571428572,6.478571428571428L19.021428571428572,6.264285714285714L17.307142857142857,6.264285714285714L17.307142857142857,5.835714285714285L17.09285714285714,5.835714285714285L17.09285714285714,5.621428571428571L16.664285714285715,5.621428571428571L16.664285714285715,5.407142857142857L16.45,5.407142857142857z" stroke="none"/><path d="M6.05,7.5L5.95,7.5L5.95,5.95L6.164285714285715,5.95L6.164285714285715,5.735714285714286L10.021428571428569,5.735714285714286L10.021428571428569,5.521428571428571L14.835714285714285,5.521428571428571L14.835714285714285,5.735714285714286L15.264285714285716,5.735714285714286L15.264285714285716,5.95L16.5,5.95L16.5,6.05L15.164285714285715,6.05L15.164285714285715,5.835714285714285L14.735714285714284,5.835714285714285L14.735714285714284,5.621428571428571L10.12142857142857,5.621428571428571L10.12142857142857,5.835714285714285L6.264285714285714,5.835714285714285L6.264285714285714,6.05L6.05,6.05z" stroke="none"/><path d="M67.49999999999999,7.55L67.49999999999999,7.45L72.59285714285714,7.45L72.59285714285714,7.235714285714286L72.80714285714285,7.235714285714286L72.80714285714285,7.021428571428571L73.97857142857141,7.021428571428571L73.97857142857141,7.978571428571428L73.54999999999998,7.978571428571428L73.54999999999998,8.407142857142858L73.33571428571427,8.407142857142858L73.33571428571427,8.62142857142857L72.69285714285714,8.62142857142857L72.69285714285714,8.835714285714285L72.47857142857141,8.835714285714285L72.47857142857141,9.692857142857143L55.878571428571426,9.692857142857143L55.878571428571426,9.478571428571428L55.66428571428572,9.478571428571428L55.66428571428572,9.264285714285716L55.45,9.264285714285716L55.45,9L55.55,9L55.55,9.164285714285715L55.76428571428571,9.164285714285715L55.76428571428571,9.378571428571426L55.97857142857142,9.378571428571426L55.97857142857142,9.592857142857142L72.37857142857142,9.592857142857142L72.37857142857142,8.735714285714284L72.59285714285714,8.735714285714284L72.59285714285714,8.521428571428569L73.23571428571428,8.521428571428569L73.23571428571428,8.307142857142857L73.44999999999999,8.307142857142857L73.44999999999999,7.878571428571428L73.87857142857142,7.878571428571428L73.87857142857142,7.121428571428571L72.90714285714284,7.121428571428571L72.90714285714284,7.335714285714285L72.69285714285714,7.335714285714285L72.69285714285714,7.55z" stroke="none"/><path d="M76.49999999999999,12.05L76.49999999999999,11.95L77.52142857142856,11.95L77.52142857142856,11.735714285714284L77.73571428571428,11.735714285714284L77.73571428571428,10.878571428571426L77.94999999999999,10.878571428571426L77.94999999999999,10.664285714285715L78.16428571428571,10.664285714285715L78.16428571428571,9.807142857142857L78.37857142857142,9.807142857142857L78.37857142857142,9.164285714285715L78.59285714285714,9.164285714285715L78.59285714285714,8.95L78.80714285714285,8.95L78.80714285714285,8.735714285714284L79.02142857142856,8.735714285714284L79.02142857142856,8.521428571428569L87.37857142857142,8.521428571428569L87.37857142857142,8.307142857142857L87.80714285714285,8.307142857142857L87.80714285714285,7.878571428571428L88.23571428571428,7.878571428571428L88.23571428571428,7.45L88.49999999999999,7.45L88.49999999999999,7.55L88.33571428571427,7.55L88.33571428571427,7.978571428571428L87.90714285714284,7.978571428571428L87.90714285714284,8.407142857142858L87.47857142857141,8.407142857142858L87.47857142857141,8.62142857142857L79.12142857142855,8.62142857142857L79.12142857142855,8.835714285714285L78.90714285714284,8.835714285714285L78.90714285714284,9.05L78.69285714285714,9.05L78.69285714285714,9.264285714285716L78.47857142857141,9.264285714285716L78.47857142857141,9.907142857142858L78.2642857142857,9.907142857142858L78.2642857142857,10.764285714285716L78.04999999999998,10.764285714285716L78.04999999999998,10.978571428571428L77.83571428571427,10.978571428571428L77.83571428571427,11.835714285714285L77.62142857142855,11.835714285714285L77.62142857142855,12.05z" stroke="none"/><path d="M63,11.95L63,12.05L61.878571428571426,12.05L61.878571428571426,11.62142857142857L52.66428571428572,11.62142857142857L52.66428571428572,11.407142857142858L52.23571428571429,11.407142857142858L52.23571428571429,11.192857142857143L51.80714285714286,11.192857142857143L51.80714285714286,9.692857142857143L50.52142857142857,9.692857142857143L50.52142857142857,9.478571428571428L50.30714285714286,9.478571428571428L50.30714285714286,9.05L49.5,9.05L49.5,8.95L50.40714285714285,8.95L50.40714285714285,9.378571428571426L50.62142857142857,9.378571428571426L50.62142857142857,9.592857142857142L51.90714285714285,9.592857142857142L51.90714285714285,11.092857142857142L52.33571428571428,11.092857142857142L52.33571428571428,11.307142857142857L52.76428571428571,11.307142857142857L52.76428571428571,11.521428571428569L61.97857142857142,11.521428571428569L61.97857142857142,11.95z" stroke="none"/><path d="M86.99999999999999,10.55L86.99999999999999,10.45L88.02142857142856,10.45L88.02142857142856,10.021428571428569L101.09285714285713,10.021428571428569L101.09285714285713,9.807142857142857L101.30714285714285,9.807142857142857L101.30714285714285,9.378571428571426L101.73571428571428,9.378571428571426L101.73571428571428,9.164285714285715L101.94999999999999,9.164285714285715L101.94999999999999,9L102.04999999999998,9L102.04999999999998,9.264285714285716L101.83571428571427,9.264285714285716L101.83571428571427,9.478571428571428L101.40714285714284,9.478571428571428L101.40714285714284,9.907142857142858L101.19285714285712,9.907142857142858L101.19285714285712,10.12142857142857L88.12142857142855,10.12142857142857L88.12142857142855,10.55z" stroke="none"/><path d="M90.04999999999998,9L89.94999999999999,9L89.94999999999999,8.407142857142858L89.73571428571428,8.407142857142858L89.73571428571428,7.55L89.30714285714285,7.55L89.30714285714285,7.121428571428571L87.47857142857141,7.121428571428571L87.47857142857141,7.55L87.2642857142857,7.55L87.2642857142857,7.764285714285714L86.40714285714284,7.764285714285714L86.40714285714284,7.978571428571428L80.19285714285714,7.978571428571428L80.19285714285714,8.192857142857143L76.87857142857142,8.192857142857143L76.87857142857142,7.978571428571428L76.66428571428571,7.978571428571428L76.66428571428571,7.121428571428571L76.44999999999999,7.121428571428571L76.44999999999999,6.907142857142857L75.59285714285714,6.907142857142857L75.59285714285714,6.692857142857142L75.37857142857142,6.692857142857142L75.37857142857142,6.264285714285714L75.16428571428571,6.264285714285714L75.16428571428571,5.835714285714285L74.94999999999999,5.835714285714285L74.94999999999999,4.978571428571429L74.52142857142856,4.978571428571429L74.52142857142856,4.764285714285714L73.66428571428571,4.764285714285714L73.66428571428571,4.55L73.49999999999999,4.55L73.49999999999999,4.45L73.7642857142857,4.45L73.7642857142857,4.664285714285715L74.62142857142855,4.664285714285715L74.62142857142855,4.878571428571429L75.04999999999998,4.878571428571429L75.04999999999998,5.735714285714286L75.2642857142857,5.735714285714286L75.2642857142857,6.164285714285715L75.47857142857141,6.164285714285715L75.47857142857141,6.5928571428571425L75.69285714285714,6.5928571428571425L75.69285714285714,6.807142857142857L76.54999999999998,6.807142857142857L76.54999999999998,7.021428571428571L76.7642857142857,7.021428571428571L76.7642857142857,7.878571428571428L76.97857142857141,7.878571428571428L76.97857142857141,8.092857142857142L80.09285714285714,8.092857142857142L80.09285714285714,7.878571428571428L86.30714285714285,7.878571428571428L86.30714285714285,7.664285714285715L87.16428571428571,7.664285714285715L87.16428571428571,7.45L87.37857142857142,7.45L87.37857142857142,7.021428571428571L89.40714285714284,7.021428571428571L89.40714285714284,7.45L89.83571428571427,7.45L89.83571428571427,8.307142857142857L90.04999999999998,8.307142857142857z" stroke="none"/><path d="M9,7.45L9,7.55L6.907142857142857,7.55L6.907142857142857,7.978571428571428L6.692857142857142,7.978571428571428L6.692857142857142,8.192857142857143L3.907142857142857,8.192857142857143L3.907142857142857,8.407142857142858L2.8357142857142854,8.407142857142858L2.8357142857142854,8.62142857142857L2.6214285714285714,8.62142857142857L2.6214285714285714,9.592857142857142L2.8357142857142854,9.592857142857142L2.8357142857142854,9.807142857142857L3.6928571428571426,9.807142857142857L3.6928571428571426,10.021428571428569L4.978571428571429,10.021428571428569L4.978571428571429,10.664285714285715L5.621428571428571,10.664285714285715L5.621428571428571,10.878571428571426L6.264285714285714,10.878571428571426L6.264285714285714,11.092857142857142L6.692857142857142,11.092857142857142L6.692857142857142,11.307142857142857L8.835714285714285,11.307142857142857L8.835714285714285,11.521428571428569L9.692857142857143,11.521428571428569L9.692857142857143,11.735714285714284L9.907142857142858,11.735714285714284L9.907142857142858,12.164285714285715L10.12142857142857,12.164285714285715L10.12142857142857,12.378571428571426L25.664285714285715,12.378571428571426L25.664285714285715,11.95L25.878571428571426,11.95L25.878571428571426,11.735714285714284L26.307142857142857,11.735714285714284L26.307142857142857,11.521428571428569L26.52142857142857,11.521428571428569L26.52142857142857,10.664285714285715L26.95,10.664285714285715L26.95,10.5L27.05,10.5L27.05,10.764285714285716L26.62142857142857,10.764285714285716L26.62142857142857,11.62142857142857L26.40714285714286,11.62142857142857L26.40714285714286,11.835714285714285L25.978571428571428,11.835714285714285L25.978571428571428,12.05L25.764285714285716,12.05L25.764285714285716,12.478571428571428L10.021428571428569,12.478571428571428L10.021428571428569,12.264285714285716L9.807142857142857,12.264285714285716L9.807142857142857,11.835714285714285L9.592857142857142,11.835714285714285L9.592857142857142,11.62142857142857L8.735714285714284,11.62142857142857L8.735714285714284,11.407142857142858L6.5928571428571425,11.407142857142858L6.5928571428571425,11.192857142857143L6.164285714285715,11.192857142857143L6.164285714285715,10.978571428571428L5.521428571428571,10.978571428571428L5.521428571428571,10.764285714285716L4.878571428571429,10.764285714285716L4.878571428571429,10.12142857142857L3.592857142857143,10.12142857142857L3.592857142857143,9.907142857142858L2.7357142857142858,9.907142857142858L2.7357142857142858,9.692857142857143L2.521428571428572,9.692857142857143L2.521428571428572,8.521428571428569L2.7357142857142858,8.521428571428569L2.7357142857142858,8.307142857142857L3.8071428571428574,8.307142857142857L3.8071428571428574,8.092857142857142L6.5928571428571425,8.092857142857142L6.5928571428571425,7.878571428571428L6.807142857142857,7.878571428571428L6.807142857142857,7.45z" stroke="none"/><path d="M100.49999999999999,7.45L100.49999999999999,7.55L100.12142857142855,7.55L100.12142857142855,7.764285714285714L99.47857142857141,7.764285714285714L99.47857142857141,7.978571428571428L90.37857142857142,7.978571428571428L90.37857142857142,7.764285714285714L89.94999999999999,7.764285714285714L89.94999999999999,7.335714285714285L89.73571428571428,7.335714285714285L89.73571428571428,7.121428571428571L89.52142857142856,7.121428571428571L89.52142857142856,6.907142857142857L85.87857142857142,6.907142857142857L85.87857142857142,6.692857142857142L85.66428571428571,6.692857142857142L85.66428571428571,6.478571428571428L85.44999999999999,6.478571428571428L85.44999999999999,5.621428571428571L85.23571428571428,5.621428571428571L85.23571428571428,5.192857142857142L85.02142857142856,5.192857142857142L85.02142857142856,4.55L84.80714285714285,4.55L84.80714285714285,4.335714285714285L81.80714285714285,4.335714285714285L81.80714285714285,4.121428571428571L80.62142857142855,4.121428571428571L80.62142857142855,7.45L80.99999999999999,7.45L80.99999999999999,7.55L80.52142857142856,7.55L80.52142857142856,4.021428571428571L81.90714285714284,4.021428571428571L81.90714285714284,4.235714285714286L84.90714285714284,4.235714285714286L84.90714285714284,4.45L85.12142857142855,4.45L85.12142857142855,5.0928571428571425L85.33571428571427,5.0928571428571425L85.33571428571427,5.521428571428571L85.54999999999998,5.521428571428571L85.54999999999998,6.378571428571428L85.7642857142857,6.378571428571428L85.7642857142857,6.5928571428571425L85.97857142857141,6.5928571428571425L85.97857142857141,6.807142857142857L89.62142857142855,6.807142857142857L89.62142857142855,7.021428571428571L89.83571428571427,7.021428571428571L89.83571428571427,7.235714285714286L90.04999999999998,7.235714285714286L90.04999999999998,7.664285714285715L90.47857142857141,7.664285714285715L90.47857142857141,7.878571428571428L99.37857142857142,7.878571428571428L99.37857142857142,7.664285714285715L100.02142857142856,7.664285714285715L100.02142857142856,7.45z" stroke="none"/><path d="M15,12.05L15,11.95L15.378571428571426,11.95L15.378571428571426,11.735714285714284L17.521428571428572,11.735714285714284L17.521428571428572,11.521428571428569L19.235714285714284,11.521428571428569L19.235714285714284,10.878571428571426L19.878571428571426,10.878571428571426L19.878571428571426,10.664285714285715L20.09285714285714,10.664285714285715L20.09285714285714,10.45L20.521428571428572,10.45L20.521428571428572,10.021428571428569L28.764285714285716,10.021428571428569L28.764285714285716,10.235714285714284L28.978571428571428,10.235714285714284L28.978571428571428,10.45L29.835714285714285,10.45L29.835714285714285,10.664285714285715L30.478571428571428,10.664285714285715L30.478571428571428,10.878571428571426L30.692857142857143,10.878571428571426L30.692857142857143,11.092857142857142L30.90714285714286,11.092857142857142L30.90714285714286,11.521428571428569L31.12142857142857,11.521428571428569L31.12142857142857,11.95L31.55,11.95L31.55,12.164285714285715L31.978571428571428,12.164285714285715L31.978571428571428,12.592857142857142L46.66428571428572,12.592857142857142L46.66428571428572,12.378571428571426L46.878571428571426,12.378571428571426L46.878571428571426,11.62142857142857L38.40714285714285,11.62142857142857L38.40714285714285,11.835714285714285L38.192857142857136,11.835714285714285L38.192857142857136,12.05L37.5,12.05L37.5,11.95L38.09285714285714,11.95L38.09285714285714,11.735714285714284L38.30714285714286,11.735714285714284L38.30714285714286,11.521428571428569L46.97857142857142,11.521428571428569L46.97857142857142,12.478571428571428L46.76428571428571,12.478571428571428L46.76428571428571,12.692857142857143L31.878571428571426,12.692857142857143L31.878571428571426,12.264285714285716L31.45,12.264285714285716L31.45,12.05L31.02142857142857,12.05L31.02142857142857,11.62142857142857L30.807142857142857,11.62142857142857L30.807142857142857,11.192857142857143L30.59285714285714,11.192857142857143L30.59285714285714,10.978571428571428L30.378571428571426,10.978571428571428L30.378571428571426,10.764285714285716L29.735714285714284,10.764285714285716L29.735714285714284,10.55L28.878571428571426,10.55L28.878571428571426,10.335714285714285L28.664285714285715,10.335714285714285L28.664285714285715,10.12142857142857L20.621428571428574,10.12142857142857L20.621428571428574,10.55L20.192857142857143,10.55L20.192857142857143,10.764285714285716L19.978571428571428,10.764285714285716L19.978571428571428,10.978571428571428L19.335714285714285,10.978571428571428L19.335714285714285,11.62142857142857L17.621428571428574,11.62142857142857L17.621428571428574,11.835714285714285L15.478571428571428,11.835714285714285L15.478571428571428,12.05z" stroke="none"/><path d="M88.44999999999999,10.5L88.54999999999998,10.5L88.54999999999998,10.978571428571428L88.33571428571427,10.978571428571428L88.33571428571427,11.192857142857143L88.12142857142855,11.192857142857143L88.12142857142855,11.407142857142858L87.90714285714284,11.407142857142858L87.90714285714284,12.05L87.47857142857141,12.05L87.47857142857141,12.478571428571428L63.59285714285714,12.478571428571428L63.59285714285714,11.835714285714285L63.378571428571426,11.835714285714285L63.378571428571426,11.407142857142858L56.73571428571429,11.407142857142858L56.73571428571429,11.192857142857143L56.52142857142857,11.192857142857143L56.52142857142857,10.55L55.66428571428572,10.55L55.66428571428572,10.12142857142857L55.02142857142857,10.12142857142857L55.02142857142857,9.907142857142858L54.80714285714286,9.907142857142858L54.80714285714286,9.692857142857143L54.378571428571426,9.692857142857143L54.378571428571426,9.264285714285716L54.16428571428572,9.264285714285716L54.16428571428572,9.05L54,9.05L54,8.95L54.26428571428571,8.95L54.26428571428571,9.164285714285715L54.47857142857142,9.164285714285715L54.47857142857142,9.592857142857142L54.90714285714285,9.592857142857142L54.90714285714285,9.807142857142857L55.12142857142857,9.807142857142857L55.12142857142857,10.021428571428569L55.76428571428571,10.021428571428569L55.76428571428571,10.45L56.62142857142857,10.45L56.62142857142857,11.092857142857142L56.83571428571428,11.092857142857142L56.83571428571428,11.307142857142857L63.47857142857142,11.307142857142857L63.47857142857142,11.735714285714284L63.692857142857136,11.735714285714284L63.692857142857136,12.378571428571426L87.37857142857142,12.378571428571426L87.37857142857142,11.95L87.80714285714285,11.95L87.80714285714285,11.307142857142857L88.02142857142856,11.307142857142857L88.02142857142856,11.092857142857142L88.23571428571428,11.092857142857142L88.23571428571428,10.878571428571426L88.44999999999999,10.878571428571426z" stroke="none"/><path d="M95.99999999999999,4.55L95.99999999999999,4.45L96.90714285714284,4.45L96.90714285714284,4.878571428571429L97.12142857142855,4.878571428571429L97.12142857142855,5.0928571428571425L97.54999999999998,5.0928571428571425L97.54999999999998,5.307142857142857L98.40714285714284,5.307142857142857L98.40714285714284,5.735714285714286L98.62142857142855,5.735714285714286L98.62142857142855,6.164285714285715L100.33571428571427,6.164285714285715L100.33571428571427,6.378571428571428L100.7642857142857,6.378571428571428L100.7642857142857,7.021428571428571L100.97857142857141,7.021428571428571L100.97857142857141,7.45L101.19285714285712,7.45L101.19285714285712,7.878571428571428L102.37857142857142,7.878571428571428L102.37857142857142,4.121428571428571L99.37857142857142,4.121428571428571L99.37857142857142,3.907142857142857L99.16428571428571,3.907142857142857L99.16428571428571,3.6928571428571426L98.94999999999999,3.6928571428571426L98.94999999999999,3.478571428571428L98.52142857142856,3.478571428571428L98.52142857142856,3.05L98.09285714285713,3.05L98.09285714285713,2.407142857142857L92.73571428571428,2.407142857142857L92.73571428571428,2.1928571428571426L92.30714285714285,2.1928571428571426L92.30714285714285,1.9785714285714286L92.09285714285713,1.9785714285714286L92.09285714285713,1.7642857142857145L82.23571428571428,1.7642857142857145L82.23571428571428,1.55L63.05,1.55L63.05,1.7642857142857145L62.62142857142857,1.7642857142857145L62.62142857142857,2.407142857142857L62.40714285714285,2.407142857142857L62.40714285714285,2.6214285714285714L61.97857142857142,2.6214285714285714L61.97857142857142,2.8357142857142854L61.55,2.8357142857142854L61.55,3L61.45,3L61.45,2.7357142857142858L61.878571428571426,2.7357142857142858L61.878571428571426,2.521428571428572L62.30714285714286,2.521428571428572L62.30714285714286,2.3071428571428574L62.52142857142857,2.3071428571428574L62.52142857142857,1.6642857142857144L62.95,1.6642857142857144L62.95,1.45L82.33571428571427,1.45L82.33571428571427,1.6642857142857144L92.19285714285712,1.6642857142857144L92.19285714285712,1.8785714285714286L92.40714285714284,1.8785714285714286L92.40714285714284,2.092857142857143L92.83571428571427,2.092857142857143L92.83571428571427,2.3071428571428574L98.19285714285712,2.3071428571428574L98.19285714285712,2.95L98.62142857142855,2.95L98.62142857142855,3.3785714285714286L99.04999999999998,3.3785714285714286L99.04999999999998,3.592857142857143L99.2642857142857,3.592857142857143L99.2642857142857,3.8071428571428574L99.47857142857141,3.8071428571428574L99.47857142857141,4.021428571428571L102.47857142857141,4.021428571428571L102.47857142857141,7.978571428571428L101.09285714285713,7.978571428571428L101.09285714285713,7.55L100.87857142857142,7.55L100.87857142857142,7.121428571428571L100.66428571428571,7.121428571428571L100.66428571428571,6.478571428571428L100.23571428571428,6.478571428571428L100.23571428571428,6.264285714285714L98.52142857142856,6.264285714285714L98.52142857142856,5.835714285714285L98.30714285714285,5.835714285714285L98.30714285714285,5.407142857142857L97.44999999999999,5.407142857142857L97.44999999999999,5.192857142857142L97.02142857142856,5.192857142857142L97.02142857142856,4.978571428571429L96.80714285714285,4.978571428571429L96.80714285714285,4.55z" stroke="none"/><path d="M85.49999999999999,9.05L85.49999999999999,8.95L88.12142857142855,8.95L88.12142857142855,9.378571428571426L88.7642857142857,9.378571428571426L88.7642857142857,9.592857142857142L100.23571428571428,9.592857142857142L100.23571428571428,9.164285714285715L100.66428571428571,9.164285714285715L100.66428571428571,8.95L101.09285714285713,8.95L101.09285714285713,8.735714285714284L101.30714285714285,8.735714285714284L101.30714285714285,8.521428571428569L102.47857142857141,8.521428571428569L102.47857142857141,9.478571428571428L102.04999999999998,9.478571428571428L102.04999999999998,9.692857142857143L101.62142857142855,9.692857142857143L101.62142857142855,10.12142857142857L101.40714285714284,10.12142857142857L101.40714285714284,10.335714285714285L97.33571428571427,10.335714285714285L97.33571428571427,10.764285714285716L88.97857142857141,10.764285714285716L88.97857142857141,10.978571428571428L88.7642857142857,10.978571428571428L88.7642857142857,11.407142857142858L88.54999999999998,11.407142857142858L88.54999999999998,11.62142857142857L88.33571428571427,11.62142857142857L88.33571428571427,12.05L88.12142857142855,12.05L88.12142857142855,12.264285714285716L87.69285714285714,12.264285714285716L87.69285714285714,12.692857142857143L49.878571428571426,12.692857142857143L49.878571428571426,12.264285714285716L49.66428571428572,12.264285714285716L49.66428571428572,12.05L49.5,12.05L49.5,11.95L49.76428571428571,11.95L49.76428571428571,12.164285714285715L49.97857142857142,12.164285714285715L49.97857142857142,12.592857142857142L87.59285714285714,12.592857142857142L87.59285714285714,12.164285714285715L88.02142857142856,12.164285714285715L88.02142857142856,11.95L88.23571428571428,11.95L88.23571428571428,11.521428571428569L88.44999999999999,11.521428571428569L88.44999999999999,11.307142857142857L88.66428571428571,11.307142857142857L88.66428571428571,10.878571428571426L88.87857142857142,10.878571428571426L88.87857142857142,10.664285714285715L97.23571428571428,10.664285714285715L97.23571428571428,10.235714285714284L101.30714285714285,10.235714285714284L101.30714285714285,10.021428571428569L101.52142857142856,10.021428571428569L101.52142857142856,9.592857142857142L101.94999999999999,9.592857142857142L101.94999999999999,9.378571428571426L102.37857142857142,9.378571428571426L102.37857142857142,8.62142857142857L101.40714285714284,8.62142857142857L101.40714285714284,8.835714285714285L101.19285714285712,8.835714285714285L101.19285714285712,9.05L100.7642857142857,9.05L100.7642857142857,9.264285714285716L100.33571428571427,9.264285714285716L100.33571428571427,9.692857142857143L88.66428571428571,9.692857142857143L88.66428571428571,9.478571428571428L88.02142857142856,9.478571428571428L88.02142857142856,9.05z" stroke="none"/><path d="M99.04999999999998,3L98.94999999999999,3L98.94999999999999,2.8357142857142854L98.73571428571428,2.8357142857142854L98.73571428571428,2.6214285714285714L98.52142857142856,2.6214285714285714L98.52142857142856,2.407142857142857L98.30714285714285,2.407142857142857L98.30714285714285,2.1928571428571426L93.16428571428571,2.1928571428571426L93.16428571428571,1.9785714285714286L92.52142857142856,1.9785714285714286L92.52142857142856,1.7642857142857145L92.30714285714285,1.7642857142857145L92.30714285714285,1.55L82.44999999999999,1.55L82.44999999999999,1.3357142857142859L61.55,1.3357142857142859L61.55,1.7642857142857145L59.83571428571428,1.7642857142857145L59.83571428571428,1.9785714285714286L59.40714285714285,1.9785714285714286L59.40714285714285,2.407142857142857L57.47857142857142,2.407142857142857L57.47857142857142,2.6214285714285714L57.05,2.6214285714285714L57.05,3L56.95,3L56.95,2.521428571428572L57.378571428571426,2.521428571428572L57.378571428571426,2.3071428571428574L59.30714285714286,2.3071428571428574L59.30714285714286,1.8785714285714286L59.73571428571429,1.8785714285714286L59.73571428571429,1.6642857142857144L61.45,1.6642857142857144L61.45,1.2357142857142858L82.54999999999998,1.2357142857142858L82.54999999999998,1.45L92.40714285714284,1.45L92.40714285714284,1.6642857142857144L92.62142857142855,1.6642857142857144L92.62142857142855,1.8785714285714286L93.2642857142857,1.8785714285714286L93.2642857142857,2.092857142857143L98.40714285714284,2.092857142857143L98.40714285714284,2.3071428571428574L98.62142857142855,2.3071428571428574L98.62142857142855,2.521428571428572L98.83571428571427,2.521428571428572L98.83571428571427,2.7357142857142858L99.04999999999998,2.7357142857142858z" stroke="none"/><path d="M68.99999999999999,6.05L68.99999999999999,5.95L74.19285714285714,5.95L74.19285714285714,8.192857142857143L73.97857142857141,8.192857142857143L73.97857142857141,8.407142857142858L73.7642857142857,8.407142857142858L73.7642857142857,8.62142857142857L73.54999999999998,8.62142857142857L73.54999999999998,8.835714285714285L73.12142857142855,8.835714285714285L73.12142857142855,9.478571428571428L72.90714285714284,9.478571428571428L72.90714285714284,9.692857142857143L72.69285714285714,9.692857142857143L72.69285714285714,9.907142857142858L55.66428571428572,9.907142857142858L55.66428571428572,9.692857142857143L55.45,9.692857142857143L55.45,9.478571428571428L54.80714285714286,9.478571428571428L54.80714285714286,8.62142857142857L49.12142857142857,8.62142857142857L49.12142857142857,11.62142857142857L48.90714285714285,11.62142857142857L48.90714285714285,11.835714285714285L48.692857142857136,11.835714285714285L48.692857142857136,12.478571428571428L48.47857142857142,12.478571428571428L48.47857142857142,12.692857142857143L48.05,12.692857142857143L48.05,12.907142857142858L4.021428571428571,12.907142857142858L4.021428571428571,12.264285714285716L3.8071428571428574,12.264285714285716L3.8071428571428574,12.05L3.592857142857143,12.05L3.592857142857143,11.835714285714285L3.3785714285714286,11.835714285714285L3.3785714285714286,11.192857142857143L3.1642857142857146,11.192857142857143L3.1642857142857146,10.55L2.95,10.55L2.95,10.335714285714285L2.7357142857142858,10.335714285714285L2.7357142857142858,10.12142857142857L2.521428571428572,10.12142857142857L2.521428571428572,9.907142857142858L2.3071428571428574,9.907142857142858L2.3071428571428574,4.45L2.521428571428572,4.45L2.521428571428572,4.021428571428571L3.592857142857143,4.021428571428571L3.592857142857143,3.8071428571428574L3.8071428571428574,3.8071428571428574L3.8071428571428574,2.7357142857142858L4.021428571428571,2.7357142857142858L4.021428571428571,2.521428571428572L4.664285714285715,2.521428571428572L4.664285714285715,2.3071428571428574L5.307142857142857,2.3071428571428574L5.307142857142857,2.092857142857143L5.521428571428571,2.092857142857143L5.521428571428571,1.8785714285714286L23.62142857142857,1.8785714285714286L23.62142857142857,2.092857142857143L24.05,2.092857142857143L24.05,2.3071428571428574L26.192857142857143,2.3071428571428574L26.192857142857143,2.95L26.40714285714286,2.95L26.40714285714286,3.8071428571428574L26.62142857142857,3.8071428571428574L26.62142857142857,4.235714285714286L26.835714285714285,4.235714285714286L26.835714285714285,4.45L27,4.45L27,4.55L26.735714285714284,4.55L26.735714285714284,4.335714285714285L26.52142857142857,4.335714285714285L26.52142857142857,3.907142857142857L26.307142857142857,3.907142857142857L26.307142857142857,3.05L26.09285714285714,3.05L26.09285714285714,2.407142857142857L23.95,2.407142857142857L23.95,2.1928571428571426L23.52142857142857,2.1928571428571426L23.52142857142857,1.9785714285714286L5.621428571428571,1.9785714285714286L5.621428571428571,2.1928571428571426L5.407142857142857,2.1928571428571426L5.407142857142857,2.407142857142857L4.764285714285714,2.407142857142857L4.764285714285714,2.6214285714285714L4.121428571428571,2.6214285714285714L4.121428571428571,2.8357142857142854L3.907142857142857,2.8357142857142854L3.907142857142857,3.907142857142857L3.6928571428571426,3.907142857142857L3.6928571428571426,4.121428571428571L2.6214285714285714,4.121428571428571L2.6214285714285714,4.55L2.407142857142857,4.55L2.407142857142857,9.807142857142857L2.6214285714285714,9.807142857142857L2.6214285714285714,10.021428571428569L2.8357142857142854,10.021428571428569L2.8357142857142854,10.235714285714284L3.05,10.235714285714284L3.05,10.45L3.2642857142857142,10.45L3.2642857142857142,11.092857142857142L3.478571428571428,11.092857142857142L3.478571428571428,11.735714285714284L3.6928571428571426,11.735714285714284L3.6928571428571426,11.95L3.907142857142857,11.95L3.907142857142857,12.164285714285715L4.121428571428571,12.164285714285715L4.121428571428571,12.807142857142857L47.95,12.807142857142857L47.95,12.592857142857142L48.378571428571426,12.592857142857142L48.378571428571426,12.378571428571426L48.59285714285714,12.378571428571426L48.59285714285714,11.735714285714284L48.80714285714286,11.735714285714284L48.80714285714286,11.521428571428569L49.02142857142857,11.521428571428569L49.02142857142857,8.521428571428569L54.90714285714285,8.521428571428569L54.90714285714285,9.378571428571426L55.55,9.378571428571426L55.55,9.592857142857142L55.76428571428571,9.592857142857142L55.76428571428571,9.807142857142857L72.59285714285714,9.807142857142857L72.59285714285714,9.592857142857142L72.80714285714285,9.592857142857142L72.80714285714285,9.378571428571426L73.02142857142856,9.378571428571426L73.02142857142856,8.735714285714284L73.44999999999999,8.735714285714284L73.44999999999999,8.521428571428569L73.66428571428571,8.521428571428569L73.66428571428571,8.307142857142857L73.87857142857142,8.307142857142857L73.87857142857142,8.092857142857142L74.09285714285714,8.092857142857142L74.09285714285714,6.05z" stroke="none"/></svg>