<svg version="1.1" width="105" height="15" xmlns="http://www.w3.org/2000/svg"><path d="M94.87857142857142,3.6928571428571426L94.66428571428571,3.6928571428571426L94.66428571428571,3.05L94.49999999999999,3.05L94.49999999999999,2.95L94.7642857142857,2.95L94.7642857142857,3.592857142857143L94.97857142857141,3.592857142857143L94.97857142857141,4.878571428571429L95.62142857142855,4.878571428571429L95.62142857142855,5.95L95.99999999999999,5.95L95.99999999999999,6.05L95.52142857142856,6.05L95.52142857142856,4.978571428571429L94.97857142857141,4.978571428571429L94.97857142857141,5.621428571428571L94.7642857142857,5.621428571428571L94.7642857142857,5.835714285714285L94.54999999999998,5.835714285714285L94.54999999999998,6L94.44999999999999,6L94.44999999999999,5.735714285714286L94.66428571428571,5.735714285714286L94.66428571428571,5.521428571428571L94.87857142857142,5.521428571428571z" stroke="none"/><path d="M30,7.45L30,7.55L27.478571428571428,7.55L27.478571428571428,7.664285714285715L34.55,7.664285714285715L34.55,7.878571428571428L35.192857142857136,7.878571428571428L35.192857142857136,8.092857142857142L35.40714285714285,8.092857142857142L35.40714285714285,8.307142857142857L35.83571428571428,8.307142857142857L35.83571428571428,8.735714285714284L36.05,8.735714285714284L36.05,9L35.95,9L35.95,8.835714285714285L35.73571428571429,8.835714285714285L35.73571428571429,8.407142857142858L35.30714285714286,8.407142857142858L35.30714285714286,8.192857142857143L35.09285714285714,8.192857142857143L35.09285714285714,7.978571428571428L34.45,7.978571428571428L34.45,7.764285714285714L27.378571428571426,7.764285714285714L27.378571428571426,7.55L24.59285714285714,7.55L24.59285714285714,7.335714285714285L24.378571428571426,7.335714285714285L24.378571428571426,7.121428571428571L17.521428571428572,7.121428571428571L17.521428571428572,6.907142857142857L17.307142857142857,6.907142857142857L17.307142857142857,6.692857142857142L17.09285714285714,6.692857142857142L17.09285714285714,6.478571428571428L16.664285714285715,6.478571428571428L16.664285714285715,6.264285714285714L16.45,6.264285714285714L16.45,6L16.55,6L16.55,6.164285714285715L16.764285714285716,6.164285714285715L16.764285714285716,6.378571428571428L17.192857142857143,6.378571428571428L17.192857142857143,6.5928571428571425L17.40714285714286,6.5928571428571425L17.40714285714286,6.807142857142857L17.621428571428574,6.807142857142857L17.621428571428574,7.021428571428571L24.478571428571428,7.021428571428571L24.478571428571428,7.235714285714286L24.692857142857143,7.235714285714286L24.692857142857143,7.45z" stroke="none"/><path d="M75.80714285714285,9.378571428571426L75.80714285714285,9.264285714285716L70.23571428571428,9.264285714285716L70.23571428571428,9.05L68.73571428571428,9.05L68.73571428571428,8.62142857142857L68.52142857142856,8.62142857142857L68.52142857142856,8.407142857142858L68.09285714285714,8.407142857142858L68.09285714285714,8.192857142857143L67.66428571428571,8.192857142857143L67.66428571428571,7.764285714285714L67.44999999999999,7.764285714285714L67.44999999999999,7.5L67.54999999999998,7.5L67.54999999999998,7.664285714285715L67.7642857142857,7.664285714285715L67.7642857142857,8.092857142857142L68.19285714285714,8.092857142857142L68.19285714285714,8.307142857142857L68.62142857142855,8.307142857142857L68.62142857142855,8.521428571428569L68.83571428571427,8.521428571428569L68.83571428571427,8.95L70.33571428571427,8.95L70.33571428571427,9.164285714285715L75.90714285714284,9.164285714285715L75.90714285714284,9.378571428571426L85.97857142857141,9.378571428571426L85.97857142857141,9.592857142857142L86.62142857142855,9.592857142857142L86.62142857142855,9.807142857142857L86.83571428571427,9.807142857142857L86.83571428571427,10.45L86.99999999999999,10.45L86.99999999999999,10.55L86.73571428571428,10.55L86.73571428571428,9.907142857142858L86.52142857142856,9.907142857142858L86.52142857142856,9.692857142857143L85.87857142857142,9.692857142857143L85.87857142857142,9.478571428571428L74.19285714285714,9.478571428571428L74.19285714285714,9.907142857142858L73.54999999999998,9.907142857142858L73.54999999999998,10.5L73.44999999999999,10.5L73.44999999999999,9.807142857142857L74.09285714285714,9.807142857142857L74.09285714285714,9.378571428571426z" stroke="none"/><path d="M41.30714285714286,3.8071428571428574L41.30714285714286,3.6928571428571426L26.09285714285714,3.6928571428571426L26.09285714285714,3.2642857142857142L25.45,3.2642857142857142L25.45,3L25.55,3L25.55,3.1642857142857146L26.192857142857143,3.1642857142857146L26.192857142857143,3.592857142857143L41.40714285714285,3.592857142857143L41.40714285714285,3.8071428571428574L62.83571428571428,3.8071428571428574L62.83571428571428,4.235714285714286L63.05,4.235714285714286L63.05,4.5L62.95,4.5L62.95,4.335714285714285L62.73571428571429,4.335714285714285L62.73571428571429,3.907142857142857L37.33571428571428,3.907142857142857L37.33571428571428,4.121428571428571L36.692857142857136,4.121428571428571L36.692857142857136,4.335714285714285L36.26428571428571,4.335714285714285L36.26428571428571,4.55L36,4.55L36,4.45L36.16428571428572,4.45L36.16428571428572,4.235714285714286L36.59285714285714,4.235714285714286L36.59285714285714,4.021428571428571L37.23571428571429,4.021428571428571L37.23571428571429,3.8071428571428574z" stroke="none"/><path d="M26.95,7.021428571428571L26.95,6.807142857142857L27.378571428571426,6.807142857142857L27.378571428571426,6.378571428571428L27.59285714285714,6.378571428571428L27.59285714285714,6.164285714285715L27.807142857142857,6.164285714285715L27.807142857142857,5.95L28.02142857142857,5.95L28.02142857142857,4.878571428571429L28.235714285714284,4.878571428571429L28.235714285714284,4.45L28.5,4.45L28.5,4.55L28.335714285714285,4.55L28.335714285714285,4.978571428571429L28.12142857142857,4.978571428571429L28.12142857142857,6.05L27.90714285714286,6.05L27.90714285714286,6.264285714285714L27.692857142857143,6.264285714285714L27.692857142857143,6.478571428571428L27.478571428571428,6.478571428571428L27.478571428571428,6.907142857142857L27.05,6.907142857142857L27.05,7.021428571428571L28.02142857142857,7.021428571428571L28.02142857142857,6.378571428571428L28.235714285714284,6.378571428571428L28.235714285714284,5.307142857142857L28.45,5.307142857142857L28.45,4.878571428571429L28.664285714285715,4.878571428571429L28.664285714285715,4.335714285714285L9.478571428571428,4.335714285714285L9.478571428571428,4.764285714285714L8.835714285714285,4.764285714285714L8.835714285714285,5.407142857142857L8.62142857142857,5.407142857142857L8.62142857142857,5.621428571428571L7.978571428571428,5.621428571428571L7.978571428571428,5.835714285714285L7.764285714285714,5.835714285714285L7.764285714285714,6.264285714285714L7.121428571428571,6.264285714285714L7.121428571428571,6.478571428571428L6.907142857142857,6.478571428571428L6.907142857142857,6.692857142857142L5.407142857142857,6.692857142857142L5.407142857142857,7.764285714285714L4.978571428571429,7.764285714285714L4.978571428571429,7.978571428571428L4.764285714285714,7.978571428571428L4.764285714285714,8.192857142857143L4.55,8.192857142857143L4.55,8.407142857142858L4.121428571428571,8.407142857142858L4.121428571428571,8.62142857142857L3.2642857142857142,8.62142857142857L3.2642857142857142,8.835714285714285L3.05,8.835714285714285L3.05,9L2.95,9L2.95,8.735714285714284L3.1642857142857146,8.735714285714284L3.1642857142857146,8.521428571428569L4.021428571428571,8.521428571428569L4.021428571428571,8.307142857142857L4.45,8.307142857142857L4.45,8.092857142857142L4.664285714285715,8.092857142857142L4.664285714285715,7.878571428571428L4.878571428571429,7.878571428571428L4.878571428571429,7.664285714285715L5.307142857142857,7.664285714285715L5.307142857142857,6.5928571428571425L6.807142857142857,6.5928571428571425L6.807142857142857,6.378571428571428L7.021428571428571,6.378571428571428L7.021428571428571,6.164285714285715L7.664285714285715,6.164285714285715L7.664285714285715,5.735714285714286L7.878571428571428,5.735714285714286L7.878571428571428,5.521428571428571L8.521428571428569,5.521428571428571L8.521428571428569,5.307142857142857L8.735714285714284,5.307142857142857L8.735714285714284,4.664285714285715L9.378571428571426,4.664285714285715L9.378571428571426,4.235714285714286L28.764285714285716,4.235714285714286L28.764285714285716,4.978571428571429L28.55,4.978571428571429L28.55,5.407142857142857L28.335714285714285,5.407142857142857L28.335714285714285,6.478571428571428L28.12142857142857,6.478571428571428L28.12142857142857,7.121428571428571L27.05,7.121428571428571L27.05,7.235714285714286L29.307142857142857,7.235714285714286L29.307142857142857,7.021428571428571L52.33571428571428,7.021428571428571L52.33571428571428,7.235714285714286L52.55,7.235714285714286L52.55,7.5L52.45,7.5L52.45,7.335714285714285L52.23571428571429,7.335714285714285L52.23571428571429,7.121428571428571L29.40714285714286,7.121428571428571L29.40714285714286,7.335714285714285L26.95,7.335714285714285L26.95,7.121428571428571L24.59285714285714,7.121428571428571L24.59285714285714,6.907142857142857L17.95,6.907142857142857L17.95,6.692857142857142L17.521428571428572,6.692857142857142L17.521428571428572,6.05L17.09285714285714,6.05L17.09285714285714,5.835714285714285L16.878571428571426,5.835714285714285L16.878571428571426,5.621428571428571L16.12142857142857,5.621428571428571L16.12142857142857,6.378571428571428L16.335714285714285,6.378571428571428L16.335714285714285,6.5928571428571425L16.978571428571428,6.5928571428571425L16.978571428571428,6.807142857142857L17.192857142857143,6.807142857142857L17.192857142857143,7.021428571428571L17.40714285714286,7.021428571428571L17.40714285714286,7.235714285714286L23.835714285714285,7.235714285714286L23.835714285714285,7.45L24,7.45L24,7.55L23.735714285714284,7.55L23.735714285714284,7.335714285714285L17.307142857142857,7.335714285714285L17.307142857142857,7.121428571428571L17.09285714285714,7.121428571428571L17.09285714285714,6.907142857142857L16.878571428571426,6.907142857142857L16.878571428571426,6.692857142857142L16.235714285714284,6.692857142857142L16.235714285714284,6.478571428571428L16.02142857142857,6.478571428571428L16.02142857142857,5.521428571428571L16.978571428571428,5.521428571428571L16.978571428571428,5.735714285714286L17.192857142857143,5.735714285714286L17.192857142857143,5.95L17.621428571428574,5.95L17.621428571428574,6.5928571428571425L18.05,6.5928571428571425L18.05,6.807142857142857L24.692857142857143,6.807142857142857L24.692857142857143,7.021428571428571z" stroke="none"/><path d="M86.09285714285714,10.664285714285715L86.09285714285714,10.55L74.19285714285714,10.55L74.19285714285714,10.764285714285716L73.97857142857141,10.764285714285716L73.97857142857141,10.978571428571428L69.47857142857141,10.978571428571428L69.47857142857141,11.192857142857143L69.2642857142857,11.192857142857143L69.2642857142857,11.62142857142857L69.04999999999998,11.62142857142857L69.04999999999998,12.05L67.49999999999999,12.05L67.49999999999999,11.95L68.94999999999999,11.95L68.94999999999999,11.521428571428569L69.16428571428571,11.521428571428569L69.16428571428571,11.092857142857142L69.37857142857142,11.092857142857142L69.37857142857142,10.878571428571426L73.87857142857142,10.878571428571426L73.87857142857142,10.664285714285715L74.09285714285714,10.664285714285715L74.09285714285714,10.45L86.19285714285714,10.45L86.19285714285714,10.664285714285715L86.40714285714284,10.664285714285715L86.40714285714284,10.878571428571426L87.37857142857142,10.878571428571426L87.37857142857142,9.692857142857143L87.16428571428571,9.692857142857143L87.16428571428571,9.478571428571428L86.09285714285714,9.478571428571428L86.09285714285714,9.264285714285716L83.30714285714285,9.264285714285716L83.30714285714285,9.05L82.49999999999999,9.05L82.49999999999999,8.95L83.40714285714284,8.95L83.40714285714284,9.164285714285715L86.19285714285714,9.164285714285715L86.19285714285714,9.378571428571426L87.2642857142857,9.378571428571426L87.2642857142857,9.592857142857142L87.47857142857141,9.592857142857142L87.47857142857141,10.978571428571428L86.30714285714285,10.978571428571428L86.30714285714285,10.764285714285716L86.19285714285714,10.764285714285716L86.19285714285714,11.092857142857142L94.23571428571428,11.092857142857142L94.23571428571428,10.664285714285715L94.44999999999999,10.664285714285715L94.44999999999999,10.5L94.54999999999998,10.5L94.54999999999998,10.764285714285716L94.33571428571427,10.764285714285716L94.33571428571427,11.192857142857143L86.09285714285714,11.192857142857143L86.09285714285714,10.764285714285716L85.97857142857141,10.764285714285716L85.97857142857141,11.307142857142857L98.83571428571427,11.307142857142857L98.83571428571427,11.521428571428569L99.2642857142857,11.521428571428569L99.2642857142857,11.95L100.49999999999999,11.95L100.49999999999999,12.05L99.16428571428571,12.05L99.16428571428571,11.62142857142857L98.73571428571428,11.62142857142857L98.73571428571428,11.407142857142858L85.87857142857142,11.407142857142858L85.87857142857142,10.664285714285715z" stroke="none"/><path d="M38.09285714285714,10.45L38.09285714285714,10.021428571428569L38.30714285714286,10.021428571428569L38.30714285714286,9.807142857142857L41.52142857142857,9.807142857142857L41.52142857142857,9.592857142857142L41.73571428571429,9.592857142857142L41.73571428571429,9.164285714285715L42.59285714285714,9.164285714285715L42.59285714285714,8.95L42.80714285714286,8.95L42.80714285714286,8.521428571428569L43.02142857142857,8.521428571428569L43.02142857142857,8.307142857142857L43.23571428571429,8.307142857142857L43.23571428571429,8.092857142857142L43.45,8.092857142857142L43.45,7.878571428571428L43.66428571428572,7.878571428571428L43.66428571428572,7.664285714285715L43.87857142857143,7.664285714285715L43.87857142857143,7.45L44.09285714285714,7.45L44.09285714285714,7.235714285714286L50.83571428571428,7.235714285714286L50.83571428571428,7.45L51.05,7.45L51.05,8.521428571428569L51.26428571428571,8.521428571428569L51.26428571428571,9.164285714285715L51.692857142857136,9.164285714285715L51.692857142857136,9.378571428571426L51.90714285714285,9.378571428571426L51.90714285714285,9.592857142857142L52.12142857142857,9.592857142857142L52.12142857142857,10.021428571428569L52.33571428571428,10.021428571428569L52.33571428571428,10.45L52.5,10.45L52.5,10.55L52.23571428571429,10.55L52.23571428571429,10.12142857142857L52.02142857142857,10.12142857142857L52.02142857142857,9.692857142857143L51.80714285714286,9.692857142857143L51.80714285714286,9.478571428571428L51.59285714285714,9.478571428571428L51.59285714285714,9.264285714285716L51.16428571428572,9.264285714285716L51.16428571428572,8.62142857142857L50.95,8.62142857142857L50.95,7.55L50.73571428571429,7.55L50.73571428571429,7.335714285714285L44.192857142857136,7.335714285714285L44.192857142857136,7.55L43.97857142857143,7.55L43.97857142857143,7.764285714285714L43.76428571428571,7.764285714285714L43.76428571428571,7.978571428571428L43.55,7.978571428571428L43.55,8.192857142857143L43.33571428571428,8.192857142857143L43.33571428571428,8.407142857142858L43.12142857142857,8.407142857142858L43.12142857142857,8.62142857142857L42.90714285714285,8.62142857142857L42.90714285714285,9.05L42.692857142857136,9.05L42.692857142857136,9.264285714285716L41.83571428571428,9.264285714285716L41.83571428571428,9.692857142857143L41.62142857142857,9.692857142857143L41.62142857142857,9.907142857142858L38.40714285714285,9.907142857142858L38.40714285714285,10.12142857142857L38.192857142857136,10.12142857142857L38.192857142857136,10.45L38.52142857142857,10.45L38.52142857142857,10.021428571428569L41.73571428571429,10.021428571428569L41.73571428571429,9.807142857142857L42.59285714285714,9.807142857142857L42.59285714285714,9.592857142857142L43.23571428571429,9.592857142857142L43.23571428571429,8.95L43.66428571428572,8.95L43.66428571428572,8.735714285714284L43.87857142857143,8.735714285714284L43.87857142857143,8.307142857142857L44.09285714285714,8.307142857142857L44.09285714285714,7.664285714285715L44.30714285714286,7.664285714285715L44.30714285714286,7.45L45,7.45L45,7.55L44.40714285714285,7.55L44.40714285714285,7.764285714285714L44.192857142857136,7.764285714285714L44.192857142857136,8.407142857142858L43.97857142857143,8.407142857142858L43.97857142857143,8.835714285714285L43.76428571428571,8.835714285714285L43.76428571428571,9.05L43.33571428571428,9.05L43.33571428571428,9.692857142857143L42.692857142857136,9.692857142857143L42.692857142857136,9.907142857142858L41.83571428571428,9.907142857142858L41.83571428571428,10.12142857142857L38.62142857142857,10.12142857142857L38.62142857142857,10.55L38.192857142857136,10.55L38.192857142857136,10.764285714285716L37.55,10.764285714285716L37.55,10.978571428571428L36.26428571428571,10.978571428571428L36.26428571428571,11.192857142857143L32.62142857142857,11.192857142857143L32.62142857142857,11.407142857142858L32.40714285714285,11.407142857142858L32.40714285714285,11.835714285714285L32.192857142857136,11.835714285714285L32.192857142857136,12.264285714285716L25.02142857142857,12.264285714285716L25.02142857142857,12.05L24,12.05L24,11.95L25.12142857142857,11.95L25.12142857142857,12.164285714285715L32.09285714285714,12.164285714285715L32.09285714285714,11.735714285714284L32.30714285714286,11.735714285714284L32.30714285714286,11.307142857142857L32.52142857142857,11.307142857142857L32.52142857142857,11.092857142857142L36.16428571428572,11.092857142857142L36.16428571428572,10.878571428571426L37.45,10.878571428571426L37.45,10.664285714285715L38.09285714285714,10.664285714285715L38.09285714285714,10.55L35.40714285714285,10.55L35.40714285714285,10.764285714285716L34.97857142857143,10.764285714285716L34.97857142857143,10.978571428571428L31.764285714285716,10.978571428571428L31.764285714285716,11.835714285714285L31.55,11.835714285714285L31.55,12L31.45,12L31.45,11.735714285714284L31.664285714285715,11.735714285714284L31.664285714285715,10.878571428571426L34.87857142857143,10.878571428571426L34.87857142857143,10.664285714285715L35.30714285714286,10.664285714285715L35.30714285714286,10.45z" stroke="none"/><path d="M56.95,4.45L56.95,4.335714285714285L40.87857142857143,4.335714285714285L40.87857142857143,4.121428571428571L37.76428571428571,4.121428571428571L37.76428571428571,4.55L37.5,4.55L37.5,4.45L37.66428571428572,4.45L37.66428571428572,4.021428571428571L40.97857142857143,4.021428571428571L40.97857142857143,4.235714285714286L57.05,4.235714285714286L57.05,4.45L62.40714285714285,4.45L62.40714285714285,4.664285714285715L62.62142857142857,4.664285714285715L62.62142857142857,4.878571428571429L66.69285714285714,4.878571428571429L66.69285714285714,5.0928571428571425L67.12142857142855,5.0928571428571425L67.12142857142855,5.95L67.49999999999999,5.95L67.49999999999999,6.05L67.02142857142856,6.05L67.02142857142856,5.192857142857142L66.59285714285714,5.192857142857142L66.59285714285714,4.978571428571429L62.52142857142857,4.978571428571429L62.52142857142857,4.764285714285714L62.30714285714286,4.764285714285714L62.30714285714286,4.55L57.05,4.55L57.05,4.664285714285715L61.97857142857142,4.664285714285715L61.97857142857142,4.878571428571429L62.40714285714285,4.878571428571429L62.40714285714285,5.0928571428571425L65.62142857142855,5.0928571428571425L65.62142857142855,5.307142857142857L65.83571428571427,5.307142857142857L65.83571428571427,5.521428571428571L66.2642857142857,5.521428571428571L66.2642857142857,5.735714285714286L66.47857142857141,5.735714285714286L66.47857142857141,6.164285714285715L79.02142857142856,6.164285714285715L79.02142857142856,5.307142857142857L79.23571428571428,5.307142857142857L79.23571428571428,5.0928571428571425L79.44999999999999,5.0928571428571425L79.44999999999999,3L79.54999999999998,3L79.54999999999998,5.192857142857142L79.33571428571427,5.192857142857142L79.33571428571427,5.407142857142857L79.12142857142855,5.407142857142857L79.12142857142855,6.264285714285714L66.37857142857142,6.264285714285714L66.37857142857142,5.835714285714285L66.16428571428571,5.835714285714285L66.16428571428571,5.621428571428571L65.73571428571428,5.621428571428571L65.73571428571428,5.407142857142857L65.52142857142856,5.407142857142857L65.52142857142856,5.192857142857142L62.30714285714286,5.192857142857142L62.30714285714286,4.978571428571429L61.878571428571426,4.978571428571429L61.878571428571426,4.764285714285714L56.95,4.764285714285714L56.95,4.55L43.5,4.55L43.5,4.45z" stroke="none"/><path d="M18,5.95L18,6.05L17.735714285714284,6.05L17.735714285714284,5.835714285714285L17.307142857142857,5.835714285714285L17.307142857142857,5.621428571428571L17.09285714285714,5.621428571428571L17.09285714285714,5.407142857142857L15.907142857142858,5.407142857142857L15.907142857142858,7.021428571428571L16.12142857142857,7.021428571428571L16.12142857142857,7.45L16.5,7.45L16.5,7.55L16.02142857142857,7.55L16.02142857142857,7.121428571428571L15.807142857142857,7.121428571428571L15.807142857142857,5.307142857142857L17.192857142857143,5.307142857142857L17.192857142857143,5.521428571428571L17.40714285714286,5.521428571428571L17.40714285714286,5.735714285714286L17.835714285714285,5.735714285714286L17.835714285714285,5.95z" stroke="none"/><path d="M98.99999999999999,10.55L98.99999999999999,10.45L101.62142857142855,10.45L101.62142857142855,10.878571428571426L101.83571428571427,10.878571428571426L101.83571428571427,11.95L101.99999999999999,11.95L101.99999999999999,12.05L101.73571428571428,12.05L101.73571428571428,10.978571428571428L101.52142857142856,10.978571428571428L101.52142857142856,10.55z" stroke="none"/><path d="M23.95,9L24.05,9L24.05,11.407142857142858L23.835714285714285,11.407142857142858L23.835714285714285,11.62142857142857L21.692857142857143,11.62142857142857L21.692857142857143,11.835714285714285L21.264285714285716,11.835714285714285L21.264285714285716,12.05L21,12.05L21,11.95L21.164285714285715,11.95L21.164285714285715,11.735714285714284L21.59285714285714,11.735714285714284L21.59285714285714,11.521428571428569L23.735714285714284,11.521428571428569L23.735714285714284,11.307142857142857L23.95,11.307142857142857z" stroke="none"/><path d="M6,8.95L6,9.05L4.978571428571429,9.05L4.978571428571429,9.478571428571428L2.521428571428572,9.478571428571428L2.521428571428572,8.521428571428569L2.7357142857142858,8.521428571428569L2.7357142857142858,8.307142857142857L3.592857142857143,8.307142857142857L3.592857142857143,8.092857142857142L4.021428571428571,8.092857142857142L4.021428571428571,7.878571428571428L4.235714285714286,7.878571428571428L4.235714285714286,7.45L4.664285714285715,7.45L4.664285714285715,6.807142857142857L5.0928571428571425,6.807142857142857L5.0928571428571425,6.378571428571428L5.735714285714286,6.378571428571428L5.735714285714286,4.45L6,4.45L6,4.55L5.835714285714285,4.55L5.835714285714285,6.478571428571428L5.192857142857142,6.478571428571428L5.192857142857142,6.907142857142857L4.764285714285714,6.907142857142857L4.764285714285714,7.55L4.335714285714285,7.55L4.335714285714285,7.978571428571428L4.121428571428571,7.978571428571428L4.121428571428571,8.192857142857143L3.6928571428571426,8.192857142857143L3.6928571428571426,8.407142857142858L2.8357142857142854,8.407142857142858L2.8357142857142854,8.62142857142857L2.6214285714285714,8.62142857142857L2.6214285714285714,9.378571428571426L4.878571428571429,9.378571428571426L4.878571428571429,8.95z" stroke="none"/><path d="M30,10.55L30,10.45L34.5,10.45L34.5,10.55z" stroke="none"/><path d="M54,11.95L54,12.05L50.52142857142857,12.05L50.52142857142857,11.407142857142858L50.30714285714286,11.407142857142858L50.30714285714286,11.192857142857143L50.09285714285714,11.192857142857143L50.09285714285714,10.55L49.878571428571426,10.55L49.878571428571426,10.12142857142857L49.66428571428572,10.12142857142857L49.66428571428572,9.264285714285716L49.45,9.264285714285716L49.45,9L49.55,9L49.55,9.164285714285715L49.76428571428571,9.164285714285715L49.76428571428571,10.021428571428569L49.97857142857142,10.021428571428569L49.97857142857142,10.45L50.192857142857136,10.45L50.192857142857136,11.092857142857142L50.40714285714285,11.092857142857142L50.40714285714285,11.307142857142857L50.62142857142857,11.307142857142857L50.62142857142857,11.95z" stroke="none"/><path d="M94.49999999999999,12.05L94.49999999999999,11.95L98.19285714285712,11.95L98.19285714285712,12.164285714285715L100.12142857142855,12.164285714285715L100.12142857142855,12.378571428571426L100.87857142857142,12.378571428571426L100.87857142857142,11.62142857142857L99.37857142857142,11.62142857142857L99.37857142857142,11.407142857142858L98.94999999999999,11.407142857142858L98.94999999999999,11.192857142857143L98.73571428571428,11.192857142857143L98.73571428571428,10.978571428571428L98.52142857142856,10.978571428571428L98.52142857142856,10.764285714285716L96.80714285714285,10.764285714285716L96.80714285714285,10.55L95.09285714285713,10.55L95.09285714285713,10.335714285714285L94.87857142857142,10.335714285714285L94.87857142857142,10.12142857142857L91.44999999999999,10.12142857142857L91.44999999999999,9.907142857142858L91.02142857142856,9.907142857142858L91.02142857142856,9.692857142857143L90.59285714285714,9.692857142857143L90.59285714285714,9.264285714285716L89.94999999999999,9.264285714285716L89.94999999999999,9L90.04999999999998,9L90.04999999999998,9.164285714285715L90.69285714285714,9.164285714285715L90.69285714285714,9.592857142857142L91.12142857142855,9.592857142857142L91.12142857142855,9.807142857142857L91.54999999999998,9.807142857142857L91.54999999999998,10.021428571428569L94.97857142857141,10.021428571428569L94.97857142857141,10.235714285714284L95.19285714285712,10.235714285714284L95.19285714285712,10.45L96.90714285714284,10.45L96.90714285714284,10.664285714285715L98.62142857142855,10.664285714285715L98.62142857142855,10.878571428571426L98.83571428571427,10.878571428571426L98.83571428571427,11.092857142857142L99.04999999999998,11.092857142857142L99.04999999999998,11.307142857142857L99.47857142857141,11.307142857142857L99.47857142857141,11.521428571428569L100.97857142857141,11.521428571428569L100.97857142857141,12.478571428571428L100.02142857142856,12.478571428571428L100.02142857142856,12.264285714285716L98.09285714285713,12.264285714285716L98.09285714285713,12.05z" stroke="none"/><path d="M9.05,12L8.95,12L8.95,11.092857142857142L9.164285714285715,11.092857142857142L9.164285714285715,9.807142857142857L9.592857142857142,9.807142857142857L9.592857142857142,8.95L9.807142857142857,8.95L9.807142857142857,8.735714285714284L10.45,8.735714285714284L10.45,8.521428571428569L12.164285714285715,8.521428571428569L12.164285714285715,8.307142857142857L12.807142857142857,8.307142857142857L12.807142857142857,7.45L13.5,7.45L13.5,7.55L12.907142857142858,7.55L12.907142857142858,8.407142857142858L12.264285714285716,8.407142857142858L12.264285714285716,8.62142857142857L10.55,8.62142857142857L10.55,8.835714285714285L9.907142857142858,8.835714285714285L9.907142857142858,9.05L9.692857142857143,9.05L9.692857142857143,9.907142857142858L9.264285714285716,9.907142857142858L9.264285714285716,11.192857142857143L9.05,11.192857142857143z" stroke="none"/><path d="M18.05,12L17.95,12L17.95,10.12142857142857L17.307142857142857,10.12142857142857L17.307142857142857,9.907142857142858L17.09285714285714,9.907142857142858L17.09285714285714,9.478571428571428L16.878571428571426,9.478571428571428L16.878571428571426,8.62142857142857L16.02142857142857,8.62142857142857L16.02142857142857,7.764285714285714L15.592857142857142,7.764285714285714L15.592857142857142,7.55L13.878571428571426,7.55L13.878571428571426,7.121428571428571L12.264285714285716,7.121428571428571L12.264285714285716,7.335714285714285L12.05,7.335714285714285L12.05,7.5L11.95,7.5L11.95,7.235714285714286L12.164285714285715,7.235714285714286L12.164285714285715,7.021428571428571L13.978571428571428,7.021428571428571L13.978571428571428,7.45L15.692857142857143,7.45L15.692857142857143,7.664285714285715L16.12142857142857,7.664285714285715L16.12142857142857,8.521428571428569L16.978571428571428,8.521428571428569L16.978571428571428,9.378571428571426L17.192857142857143,9.378571428571426L17.192857142857143,9.807142857142857L17.40714285714286,9.807142857142857L17.40714285714286,10.021428571428569L18.05,10.021428571428569z" stroke="none"/><path d="M30,3.05L30,2.95L37.5,2.95L37.5,3.05z" stroke="none"/><path d="M39,10.55L39,10.45L45.16428571428572,10.45L45.16428571428572,10.021428571428569L45.37857142857143,10.021428571428569L45.37857142857143,9.807142857142857L45.80714285714286,9.807142857142857L45.80714285714286,8.95L46.5,8.95L46.5,9.05L45.90714285714285,9.05L45.90714285714285,9.907142857142858L45.47857142857143,9.907142857142858L45.47857142857143,10.12142857142857L45.26428571428571,10.12142857142857L45.26428571428571,10.55z" stroke="none"/><path d="M101.99999999999999,5.95L101.99999999999999,6.05L100.97857142857141,6.05L100.97857142857141,6.264285714285714L99.69285714285712,6.264285714285714L99.69285714285712,6.478571428571428L93.47857142857141,6.478571428571428L93.47857142857141,7.335714285714285L93.04999999999998,7.335714285714285L93.04999999999998,7.5L92.94999999999999,7.5L92.94999999999999,7.235714285714286L93.37857142857142,7.235714285714286L93.37857142857142,6.378571428571428L99.59285714285713,6.378571428571428L99.59285714285713,6.164285714285715L100.87857142857142,6.164285714285715L100.87857142857142,5.95z" stroke="none"/><path d="M82.49999999999999,6.05L82.49999999999999,5.95L91.54999999999998,5.95L91.54999999999998,6.378571428571428L91.7642857142857,6.378571428571428L91.7642857142857,6.807142857142857L91.97857142857141,6.807142857142857L91.97857142857141,7.664285714285715L92.19285714285712,7.664285714285715L92.19285714285712,7.878571428571428L93.04999999999998,7.878571428571428L93.04999999999998,8.092857142857142L93.2642857142857,8.092857142857142L93.2642857142857,8.307142857142857L94.33571428571427,8.307142857142857L94.33571428571427,8.521428571428569L94.54999999999998,8.521428571428569L94.54999999999998,9L94.44999999999999,9L94.44999999999999,8.62142857142857L94.23571428571428,8.62142857142857L94.23571428571428,8.407142857142858L93.16428571428571,8.407142857142858L93.16428571428571,8.192857142857143L92.94999999999999,8.192857142857143L92.94999999999999,7.978571428571428L92.09285714285713,7.978571428571428L92.09285714285713,7.764285714285714L91.87857142857142,7.764285714285714L91.87857142857142,6.907142857142857L91.66428571428571,6.907142857142857L91.66428571428571,6.478571428571428L91.44999999999999,6.478571428571428L91.44999999999999,6.05z" stroke="none"/><path d="M21,9.05L21,8.95L23.52142857142857,8.95L23.52142857142857,8.521428571428569L32.192857142857136,8.521428571428569L32.192857142857136,8.735714285714284L32.83571428571428,8.735714285714284L32.83571428571428,8.95L34.5,8.95L34.5,9.05L32.73571428571429,9.05L32.73571428571429,8.835714285714285L32.09285714285714,8.835714285714285L32.09285714285714,8.62142857142857L23.62142857142857,8.62142857142857L23.62142857142857,9.05z" stroke="none"/><path d="M35.95,7.5L36.05,7.5L36.05,8.521428571428569L36.47857142857143,8.521428571428569L36.47857142857143,9.478571428571428L35.52142857142857,9.478571428571428L35.52142857142857,9.05L34.87857142857143,9.05L34.87857142857143,8.62142857142857L32.30714285714286,8.62142857142857L32.30714285714286,8.407142857142858L21.05,8.407142857142858L21.05,8.62142857142857L20.621428571428574,8.62142857142857L20.621428571428574,9.378571428571426L22.55,9.378571428571426L22.55,10.5L22.45,10.5L22.45,9.478571428571428L20.521428571428572,9.478571428571428L20.521428571428572,8.521428571428569L20.95,8.521428571428569L20.95,8.307142857142857L32.40714285714285,8.307142857142857L32.40714285714285,8.521428571428569L34.97857142857143,8.521428571428569L34.97857142857143,8.95L35.62142857142857,8.95L35.62142857142857,9.378571428571426L36.37857142857143,9.378571428571426L36.37857142857143,8.62142857142857L35.95,8.62142857142857z" stroke="none"/><path d="M73.49999999999999,11.95L73.49999999999999,12.05L69.2642857142857,12.05L69.2642857142857,12.264285714285716L67.97857142857141,12.264285714285716L67.97857142857141,12.478571428571428L61.66428571428572,12.478571428571428L61.66428571428572,12.264285714285716L61.23571428571429,12.264285714285716L61.23571428571429,12.05L60.378571428571426,12.05L60.378571428571426,11.62142857142857L59.95,11.62142857142857L59.95,11.407142857142858L59.73571428571429,11.407142857142858L59.73571428571429,11.192857142857143L58.878571428571426,11.192857142857143L58.878571428571426,10.55L58.5,10.55L58.5,10.45L58.97857142857142,10.45L58.97857142857142,11.092857142857142L59.83571428571428,11.092857142857142L59.83571428571428,11.307142857142857L60.05,11.307142857142857L60.05,11.521428571428569L60.47857142857142,11.521428571428569L60.47857142857142,11.95L61.33571428571428,11.95L61.33571428571428,12.164285714285715L61.76428571428571,12.164285714285715L61.76428571428571,12.378571428571426L67.87857142857142,12.378571428571426L67.87857142857142,12.164285714285715L69.16428571428571,12.164285714285715L69.16428571428571,11.95z" stroke="none"/><path d="M70.49999999999999,7.55L70.49999999999999,7.45L75.90714285714284,7.45L75.90714285714284,7.664285714285715L76.12142857142855,7.664285714285715L76.12142857142855,7.878571428571428L87.69285714285714,7.878571428571428L87.69285714285714,8.307142857142857L88.12142857142855,8.307142857142857L88.12142857142855,8.735714285714284L88.33571428571427,8.735714285714284L88.33571428571427,8.95L88.49999999999999,8.95L88.49999999999999,9.05L88.23571428571428,9.05L88.23571428571428,8.835714285714285L88.02142857142856,8.835714285714285L88.02142857142856,8.407142857142858L87.59285714285714,8.407142857142858L87.59285714285714,7.978571428571428L76.02142857142856,7.978571428571428L76.02142857142856,7.764285714285714L75.80714285714285,7.764285714285714L75.80714285714285,7.55z" stroke="none"/><path d="M55.45,10.5L55.55,10.5L55.55,12.264285714285716L54.47857142857142,12.264285714285716L54.47857142857142,12.478571428571428L38.52142857142857,12.478571428571428L38.52142857142857,12.264285714285716L37.45,12.264285714285716L37.45,12L37.55,12L37.55,12.164285714285715L38.62142857142857,12.164285714285715L38.62142857142857,12.378571428571426L54.378571428571426,12.378571428571426L54.378571428571426,12.164285714285715L55.45,12.164285714285715z" stroke="none"/><path d="M82.44999999999999,3L82.54999999999998,3L82.54999999999998,5.407142857142857L82.12142857142855,5.407142857142857L82.12142857142855,6.378571428571428L89.83571428571427,6.378571428571428L89.83571428571427,6.807142857142857L90.04999999999998,6.807142857142857L90.04999999999998,7.021428571428571L90.47857142857141,7.021428571428571L90.47857142857141,7.45L90.69285714285714,7.45L90.69285714285714,7.664285714285715L90.90714285714284,7.664285714285715L90.90714285714284,7.878571428571428L91.12142857142855,7.878571428571428L91.12142857142855,8.092857142857142L92.83571428571427,8.092857142857142L92.83571428571427,8.307142857142857L93.04999999999998,8.307142857142857L93.04999999999998,8.735714285714284L93.2642857142857,8.735714285714284L93.2642857142857,8.95L93.47857142857141,8.95L93.47857142857141,9.378571428571426L99.59285714285713,9.378571428571426L99.59285714285713,9.164285714285715L100.23571428571428,9.164285714285715L100.23571428571428,8.307142857142857L100.44999999999999,8.307142857142857L100.44999999999999,7.5L100.54999999999998,7.5L100.54999999999998,8.407142857142858L100.33571428571427,8.407142857142858L100.33571428571427,9.264285714285716L99.69285714285712,9.264285714285716L99.69285714285712,9.478571428571428L93.37857142857142,9.478571428571428L93.37857142857142,9.05L93.16428571428571,9.05L93.16428571428571,8.835714285714285L92.94999999999999,8.835714285714285L92.94999999999999,8.407142857142858L92.73571428571428,8.407142857142858L92.73571428571428,8.192857142857143L91.02142857142856,8.192857142857143L91.02142857142856,7.978571428571428L90.80714285714285,7.978571428571428L90.80714285714285,7.764285714285714L90.59285714285714,7.764285714285714L90.59285714285714,7.55L90.37857142857142,7.55L90.37857142857142,7.121428571428571L89.94999999999999,7.121428571428571L89.94999999999999,6.907142857142857L89.73571428571428,6.907142857142857L89.73571428571428,6.478571428571428L82.02142857142856,6.478571428571428L82.02142857142856,5.307142857142857L82.44999999999999,5.307142857142857z" stroke="none"/><path d="M34.5,11.95L34.5,12.05L32.40714285714285,12.05L32.40714285714285,12.478571428571428L15.378571428571426,12.478571428571428L15.378571428571426,12.264285714285716L15.164285714285715,12.264285714285716L15.164285714285715,12.05L14.95,12.05L14.95,11.835714285714285L14.307142857142857,11.835714285714285L14.307142857142857,11.62142857142857L13.878571428571426,11.62142857142857L13.878571428571426,10.978571428571428L13.45,10.978571428571428L13.45,10.5L13.55,10.5L13.55,10.878571428571426L13.978571428571428,10.878571428571426L13.978571428571428,11.521428571428569L14.407142857142858,11.521428571428569L14.407142857142858,11.735714285714284L15.05,11.735714285714284L15.05,11.95L15.264285714285716,11.95L15.264285714285716,12.164285714285715L15.478571428571428,12.164285714285715L15.478571428571428,12.378571428571426L32.30714285714286,12.378571428571426L32.30714285714286,11.95z" stroke="none"/><path d="M54,6.05L54,5.95L57.05,5.95L57.05,6.164285714285715L58.12142857142857,6.164285714285715L58.12142857142857,6.378571428571428L72.2642857142857,6.378571428571428L72.2642857142857,6.5928571428571425L73.97857142857141,6.5928571428571425L73.97857142857141,6.807142857142857L75.47857142857141,6.807142857142857L75.47857142857141,7.021428571428571L76.12142857142855,7.021428571428571L76.12142857142855,7.235714285714286L76.33571428571427,7.235714285714286L76.33571428571427,7.45L76.49999999999999,7.45L76.49999999999999,7.55L76.23571428571428,7.55L76.23571428571428,7.335714285714285L76.02142857142856,7.335714285714285L76.02142857142856,7.121428571428571L75.37857142857142,7.121428571428571L75.37857142857142,6.907142857142857L73.87857142857142,6.907142857142857L73.87857142857142,6.692857142857142L72.16428571428571,6.692857142857142L72.16428571428571,6.478571428571428L58.02142857142857,6.478571428571428L58.02142857142857,6.264285714285714L56.95,6.264285714285714L56.95,6.05z" stroke="none"/><path d="M92.99999999999999,10.45L92.99999999999999,10.55L91.97857142857141,10.55L91.97857142857141,10.978571428571428L91.02142857142856,10.978571428571428L91.02142857142856,10.764285714285716L90.80714285714285,10.764285714285716L90.80714285714285,10.55L90.16428571428571,10.55L90.16428571428571,10.335714285714285L89.94999999999999,10.335714285714285L89.94999999999999,10.12142857142857L88.02142857142856,10.12142857142857L88.02142857142856,9.907142857142858L87.80714285714285,9.907142857142858L87.80714285714285,9.692857142857143L87.59285714285714,9.692857142857143L87.59285714285714,9.478571428571428L87.37857142857142,9.478571428571428L87.37857142857142,9.264285714285716L86.30714285714285,9.264285714285716L86.30714285714285,9.05L83.52142857142856,9.05L83.52142857142856,8.835714285714285L82.87857142857142,8.835714285714285L82.87857142857142,8.62142857142857L70.44999999999999,8.62142857142857L70.44999999999999,8.407142857142858L70.23571428571428,8.407142857142858L70.23571428571428,8.192857142857143L69.16428571428571,8.192857142857143L69.16428571428571,7.978571428571428L68.73571428571428,7.978571428571428L68.73571428571428,7.764285714285714L68.52142857142856,7.764285714285714L68.52142857142856,7.55L67.87857142857142,7.55L67.87857142857142,7.121428571428571L67.12142857142855,7.121428571428571L67.12142857142855,9.164285714285715L67.54999999999998,9.164285714285715L67.54999999999998,9.592857142857142L67.7642857142857,9.592857142857142L67.7642857142857,9.807142857142857L67.97857142857141,9.807142857142857L67.97857142857141,10.021428571428569L68.83571428571427,10.021428571428569L68.83571428571427,10.235714285714284L69.04999999999998,10.235714285714284L69.04999999999998,10.5L68.94999999999999,10.5L68.94999999999999,10.335714285714285L68.73571428571428,10.335714285714285L68.73571428571428,10.12142857142857L67.87857142857142,10.12142857142857L67.87857142857142,9.907142857142858L67.66428571428571,9.907142857142858L67.66428571428571,9.692857142857143L67.44999999999999,9.692857142857143L67.44999999999999,9.264285714285716L67.02142857142856,9.264285714285716L67.02142857142856,7.021428571428571L67.97857142857141,7.021428571428571L67.97857142857141,7.45L68.62142857142855,7.45L68.62142857142855,7.664285714285715L68.83571428571427,7.664285714285715L68.83571428571427,7.878571428571428L69.2642857142857,7.878571428571428L69.2642857142857,8.092857142857142L70.33571428571427,8.092857142857142L70.33571428571427,8.307142857142857L70.54999999999998,8.307142857142857L70.54999999999998,8.521428571428569L82.97857142857141,8.521428571428569L82.97857142857141,8.735714285714284L83.62142857142855,8.735714285714284L83.62142857142855,8.95L86.40714285714284,8.95L86.40714285714284,9.164285714285715L87.47857142857141,9.164285714285715L87.47857142857141,9.378571428571426L87.69285714285714,9.378571428571426L87.69285714285714,9.592857142857142L87.90714285714284,9.592857142857142L87.90714285714284,9.807142857142857L88.12142857142855,9.807142857142857L88.12142857142855,10.021428571428569L90.04999999999998,10.021428571428569L90.04999999999998,10.235714285714284L90.2642857142857,10.235714285714284L90.2642857142857,10.45L90.90714285714284,10.45L90.90714285714284,10.664285714285715L91.12142857142855,10.664285714285715L91.12142857142855,10.878571428571426L91.87857142857142,10.878571428571426L91.87857142857142,10.45z" stroke="none"/><path d="M10.5,7.45L10.5,7.55L8.835714285714285,7.55L8.835714285714285,7.764285714285714L8.62142857142857,7.764285714285714L8.62142857142857,7.978571428571428L8.192857142857143,7.978571428571428L8.192857142857143,8.407142857142858L7.764285714285714,8.407142857142858L7.764285714285714,8.62142857142857L7.55,8.62142857142857L7.55,8.835714285714285L7.335714285714285,8.835714285714285L7.335714285714285,9.05L7.121428571428571,9.05L7.121428571428571,9.264285714285716L6.692857142857142,9.264285714285716L6.692857142857142,9.478571428571428L5.192857142857142,9.478571428571428L5.192857142857142,9.692857142857143L2.3071428571428574,9.692857142857143L2.3071428571428574,7.021428571428571L3.1642857142857146,7.021428571428571L3.1642857142857146,6.807142857142857L3.3785714285714286,6.807142857142857L3.3785714285714286,6.5928571428571425L4.878571428571429,6.5928571428571425L4.878571428571429,6.164285714285715L5.0928571428571425,6.164285714285715L5.0928571428571425,5.307142857142857L5.307142857142857,5.307142857142857L5.307142857142857,4.878571428571429L5.521428571428571,4.878571428571429L5.521428571428571,4.021428571428571L33.47857142857143,4.021428571428571L33.47857142857143,4.235714285714286L34.33571428571428,4.235714285714286L34.33571428571428,4.45L34.5,4.45L34.5,4.55L34.23571428571429,4.55L34.23571428571429,4.335714285714285L33.37857142857143,4.335714285714285L33.37857142857143,4.121428571428571L5.621428571428571,4.121428571428571L5.621428571428571,4.978571428571429L5.407142857142857,4.978571428571429L5.407142857142857,5.407142857142857L5.192857142857142,5.407142857142857L5.192857142857142,6.264285714285714L4.978571428571429,6.264285714285714L4.978571428571429,6.692857142857142L3.478571428571428,6.692857142857142L3.478571428571428,6.907142857142857L3.2642857142857142,6.907142857142857L3.2642857142857142,7.121428571428571L2.407142857142857,7.121428571428571L2.407142857142857,9.592857142857142L5.0928571428571425,9.592857142857142L5.0928571428571425,9.378571428571426L6.5928571428571425,9.378571428571426L6.5928571428571425,9.164285714285715L7.021428571428571,9.164285714285715L7.021428571428571,8.95L7.235714285714286,8.95L7.235714285714286,8.735714285714284L7.45,8.735714285714284L7.45,8.521428571428569L7.664285714285715,8.521428571428569L7.664285714285715,8.307142857142857L8.092857142857142,8.307142857142857L8.092857142857142,7.878571428571428L8.521428571428569,7.878571428571428L8.521428571428569,7.664285714285715L8.735714285714284,7.664285714285715L8.735714285714284,7.45z" stroke="none"/><path d="M85.49999999999999,7.55L85.49999999999999,7.45L88.33571428571427,7.45L88.33571428571427,8.092857142857142L88.54999999999998,8.092857142857142L88.54999999999998,8.307142857142857L88.7642857142857,8.307142857142857L88.7642857142857,8.521428571428569L88.97857142857141,8.521428571428569L88.97857142857141,9.478571428571428L87.80714285714285,9.478571428571428L87.80714285714285,9.264285714285716L87.59285714285714,9.264285714285716L87.59285714285714,9.05L86.52142857142856,9.05L86.52142857142856,8.835714285714285L83.73571428571428,8.835714285714285L83.73571428571428,8.62142857142857L83.52142857142856,8.62142857142857L83.52142857142856,8.407142857142858L70.87857142857142,8.407142857142858L70.87857142857142,8.192857142857143L70.44999999999999,8.192857142857143L70.44999999999999,7.978571428571428L69.37857142857142,7.978571428571428L69.37857142857142,7.764285714285714L68.94999999999999,7.764285714285714L68.94999999999999,7.55L68.73571428571428,7.55L68.73571428571428,7.335714285714285L68.52142857142856,7.335714285714285L68.52142857142856,7.121428571428571L68.30714285714285,7.121428571428571L68.30714285714285,6.907142857142857L53.73571428571429,6.907142857142857L53.73571428571429,6.478571428571428L53.52142857142857,6.478571428571428L53.52142857142857,5.521428571428571L58.12142857142857,5.521428571428571L58.12142857142857,5.735714285714286L58.55,5.735714285714286L58.55,6L58.45,6L58.45,5.835714285714285L58.02142857142857,5.835714285714285L58.02142857142857,5.621428571428571L53.62142857142857,5.621428571428571L53.62142857142857,6.378571428571428L53.83571428571428,6.378571428571428L53.83571428571428,6.807142857142857L68.40714285714284,6.807142857142857L68.40714285714284,7.021428571428571L68.62142857142855,7.021428571428571L68.62142857142855,7.235714285714286L68.83571428571427,7.235714285714286L68.83571428571427,7.45L69.04999999999998,7.45L69.04999999999998,7.664285714285715L69.47857142857141,7.664285714285715L69.47857142857141,7.878571428571428L70.54999999999998,7.878571428571428L70.54999999999998,8.092857142857142L70.97857142857141,8.092857142857142L70.97857142857141,8.307142857142857L83.62142857142855,8.307142857142857L83.62142857142855,8.521428571428569L83.83571428571427,8.521428571428569L83.83571428571427,8.735714285714284L86.62142857142855,8.735714285714284L86.62142857142855,8.95L87.69285714285714,8.95L87.69285714285714,9.164285714285715L87.90714285714284,9.164285714285715L87.90714285714284,9.378571428571426L88.87857142857142,9.378571428571426L88.87857142857142,8.62142857142857L88.66428571428571,8.62142857142857L88.66428571428571,8.407142857142858L88.44999999999999,8.407142857142858L88.44999999999999,8.192857142857143L88.23571428571428,8.192857142857143L88.23571428571428,7.55z" stroke="none"/><path d="M63,5.95L63,6.05L59.95,6.05L59.95,5.835714285714285L58.878571428571426,5.835714285714285L58.878571428571426,5.621428571428571L58.23571428571429,5.621428571428571L58.23571428571429,5.407142857142857L33.26428571428571,5.407142857142857L33.26428571428571,5.621428571428571L33.05,5.621428571428571L33.05,6L32.95,6L32.95,5.521428571428571L33.16428571428572,5.521428571428571L33.16428571428572,5.307142857142857L58.33571428571428,5.307142857142857L58.33571428571428,5.521428571428571L58.97857142857142,5.521428571428571L58.97857142857142,5.735714285714286L60.05,5.735714285714286L60.05,5.95z" stroke="none"/><path d="M60,12.05L60,11.95L60.26428571428571,11.95L60.26428571428571,12.164285714285715L61.12142857142857,12.164285714285715L61.12142857142857,12.378571428571426L61.55,12.378571428571426L61.55,12.592857142857142L89.09285714285714,12.592857142857142L89.09285714285714,12.378571428571426L89.52142857142856,12.378571428571426L89.52142857142856,12.164285714285715L89.94999999999999,12.164285714285715L89.94999999999999,12L90.04999999999998,12L90.04999999999998,12.264285714285716L89.62142857142855,12.264285714285716L89.62142857142855,12.478571428571428L89.19285714285714,12.478571428571428L89.19285714285714,12.692857142857143L61.45,12.692857142857143L61.45,12.478571428571428L61.02142857142857,12.478571428571428L61.02142857142857,12.264285714285716L60.16428571428572,12.264285714285716L60.16428571428572,12.05z" stroke="none"/><path d="M40.5,2.95L40.5,3.05L37.87857142857143,3.05L37.87857142857143,2.6214285714285714L9.692857142857143,2.6214285714285714L9.692857142857143,2.8357142857142854L8.62142857142857,2.8357142857142854L8.62142857142857,3.05L6,3.05L6,2.95L8.521428571428569,2.95L8.521428571428569,2.7357142857142858L9.592857142857142,2.7357142857142858L9.592857142857142,2.521428571428572L37.97857142857143,2.521428571428572L37.97857142857143,2.95z" stroke="none"/><path d="M98.99999999999999,6.05L98.99999999999999,5.95L100.44999999999999,5.95L100.44999999999999,5.735714285714286L101.52142857142856,5.735714285714286L101.52142857142856,5.521428571428571L102.47857142857141,5.521428571428571L102.47857142857141,12.478571428571428L101.19285714285712,12.478571428571428L101.19285714285712,12.692857142857143L89.40714285714284,12.692857142857143L89.40714285714284,12.907142857142858L59.52142857142857,12.907142857142858L59.52142857142857,12.692857142857143L59.30714285714286,12.692857142857143L59.30714285714286,12.478571428571428L58.45,12.478571428571428L58.45,11.192857142857143L58.23571428571429,11.192857142857143L58.23571428571429,10.978571428571428L58.02142857142857,10.978571428571428L58.02142857142857,10.021428571428569L61.55,10.021428571428569L61.55,10.235714285714284L62.62142857142857,10.235714285714284L62.62142857142857,10.45L63,10.45L63,10.55L62.52142857142857,10.55L62.52142857142857,10.335714285714285L61.45,10.335714285714285L61.45,10.12142857142857L58.12142857142857,10.12142857142857L58.12142857142857,10.878571428571426L58.33571428571428,10.878571428571426L58.33571428571428,11.092857142857142L58.55,11.092857142857142L58.55,12.378571428571426L59.40714285714285,12.378571428571426L59.40714285714285,12.592857142857142L59.62142857142857,12.592857142857142L59.62142857142857,12.807142857142857L89.30714285714285,12.807142857142857L89.30714285714285,12.592857142857142L101.09285714285713,12.592857142857142L101.09285714285713,12.378571428571426L102.37857142857142,12.378571428571426L102.37857142857142,5.621428571428571L101.62142857142855,5.621428571428571L101.62142857142855,5.835714285714285L100.54999999999998,5.835714285714285L100.54999999999998,6.05z" stroke="none"/><path d="M3,3.05L3,2.95L4.121428571428571,2.95L4.121428571428571,3.1642857142857146L5.407142857142857,3.1642857142857146L5.407142857142857,3.3785714285714286L25.978571428571428,3.3785714285714286L25.978571428571428,3.8071428571428574L35.40714285714285,3.8071428571428574L35.40714285714285,4.021428571428571L35.62142857142857,4.021428571428571L35.62142857142857,4.878571428571429L40.23571428571429,4.878571428571429L40.23571428571429,4.664285714285715L40.45,4.664285714285715L40.45,4.5L40.55,4.5L40.55,4.764285714285714L40.33571428571428,4.764285714285714L40.33571428571428,4.978571428571429L35.52142857142857,4.978571428571429L35.52142857142857,4.121428571428571L35.30714285714286,4.121428571428571L35.30714285714286,3.907142857142857L25.878571428571426,3.907142857142857L25.878571428571426,3.478571428571428L5.307142857142857,3.478571428571428L5.307142857142857,3.2642857142857142L4.021428571428571,3.2642857142857142L4.021428571428571,3.05z" stroke="none"/><path d="M91.49999999999999,10.45L91.49999999999999,10.55L91.02142857142856,10.55L91.02142857142856,10.335714285714285L90.59285714285714,10.335714285714285L90.59285714285714,10.12142857142857L90.16428571428571,10.12142857142857L90.16428571428571,9.907142857142858L89.94999999999999,9.907142857142858L89.94999999999999,9.692857142857143L89.73571428571428,9.692857142857143L89.73571428571428,9.478571428571428L89.52142857142856,9.478571428571428L89.52142857142856,7.978571428571428L89.09285714285714,7.978571428571428L89.09285714285714,7.55L88.87857142857142,7.55L88.87857142857142,7.335714285714285L85.87857142857142,7.335714285714285L85.87857142857142,7.121428571428571L81.80714285714285,7.121428571428571L81.80714285714285,2.521428571428572L98.19285714285712,2.521428571428572L98.19285714285712,2.7357142857142858L98.40714285714284,2.7357142857142858L98.40714285714284,3.1642857142857146L98.62142857142855,3.1642857142857146L98.62142857142855,3.592857142857143L99.47857142857141,3.592857142857143L99.47857142857141,3.8071428571428574L99.69285714285712,3.8071428571428574L99.69285714285712,4.021428571428571L100.12142857142855,4.021428571428571L100.12142857142855,5.0928571428571425L102.2642857142857,5.0928571428571425L102.2642857142857,5.307142857142857L102.69285714285712,5.307142857142857L102.69285714285712,12.692857142857143L101.40714285714284,12.692857142857143L101.40714285714284,12.907142857142858L89.62142857142855,12.907142857142858L89.62142857142855,13.12142857142857L57.378571428571426,13.12142857142857L57.378571428571426,12.478571428571428L57.16428571428572,12.478571428571428L57.16428571428572,12.264285714285716L56.95,12.264285714285716L56.95,11.407142857142858L56.73571428571429,11.407142857142858L56.73571428571429,10.764285714285716L56.52142857142857,10.764285714285716L56.52142857142857,10.55L56.30714285714286,10.55L56.30714285714286,10.12142857142857L53.09285714285714,10.12142857142857L53.09285714285714,9.692857142857143L52.878571428571426,9.692857142857143L52.878571428571426,9.264285714285716L52.66428571428572,9.264285714285716L52.66428571428572,9.05L52.5,9.05L52.5,8.95L52.76428571428571,8.95L52.76428571428571,9.164285714285715L52.97857142857142,9.164285714285715L52.97857142857142,9.592857142857142L53.192857142857136,9.592857142857142L53.192857142857136,10.021428571428569L56.40714285714285,10.021428571428569L56.40714285714285,10.45L56.62142857142857,10.45L56.62142857142857,10.664285714285715L56.83571428571428,10.664285714285715L56.83571428571428,11.307142857142857L57.05,11.307142857142857L57.05,12.164285714285715L57.26428571428571,12.164285714285715L57.26428571428571,12.378571428571426L57.47857142857142,12.378571428571426L57.47857142857142,13.021428571428569L89.52142857142856,13.021428571428569L89.52142857142856,12.807142857142857L101.30714285714285,12.807142857142857L101.30714285714285,12.592857142857142L102.59285714285713,12.592857142857142L102.59285714285713,5.407142857142857L102.16428571428571,5.407142857142857L102.16428571428571,5.192857142857142L100.02142857142856,5.192857142857142L100.02142857142856,4.121428571428571L99.59285714285713,4.121428571428571L99.59285714285713,3.907142857142857L99.37857142857142,3.907142857142857L99.37857142857142,3.6928571428571426L98.52142857142856,3.6928571428571426L98.52142857142856,3.2642857142857142L98.30714285714285,3.2642857142857142L98.30714285714285,2.8357142857142854L98.09285714285713,2.8357142857142854L98.09285714285713,2.6214285714285714L81.90714285714284,2.6214285714285714L81.90714285714284,7.021428571428571L85.97857142857141,7.021428571428571L85.97857142857141,7.235714285714286L88.97857142857141,7.235714285714286L88.97857142857141,7.45L89.19285714285714,7.45L89.19285714285714,7.878571428571428L89.62142857142855,7.878571428571428L89.62142857142855,9.378571428571426L89.83571428571427,9.378571428571426L89.83571428571427,9.592857142857142L90.04999999999998,9.592857142857142L90.04999999999998,9.807142857142857L90.2642857142857,9.807142857142857L90.2642857142857,10.021428571428569L90.69285714285714,10.021428571428569L90.69285714285714,10.235714285714284L91.12142857142855,10.235714285714284L91.12142857142855,10.45z" stroke="none"/><path d="M48,10.45L48,10.55L45.692857142857136,10.55L45.692857142857136,10.764285714285716L39.47857142857143,10.764285714285716L39.47857142857143,10.978571428571428L39.26428571428571,10.978571428571428L39.26428571428571,11.192857142857143L36.47857142857143,11.192857142857143L36.47857142857143,11.407142857142858L35.40714285714285,11.407142857142858L35.40714285714285,12.05L35.192857142857136,12.05L35.192857142857136,12.264285714285716L34.97857142857143,12.264285714285716L34.97857142857143,12.478571428571428L32.62142857142857,12.478571428571428L32.62142857142857,12.692857142857143L8.521428571428569,12.692857142857143L8.521428571428569,10.878571428571426L8.95,10.878571428571426L8.95,9.592857142857142L9.164285714285715,9.592857142857142L9.164285714285715,8.521428571428569L9.807142857142857,8.521428571428569L9.807142857142857,8.307142857142857L10.45,8.307142857142857L10.45,7.878571428571428L10.878571428571426,7.878571428571428L10.878571428571426,7.121428571428571L6.478571428571428,7.121428571428571L6.478571428571428,7.335714285714285L6.264285714285714,7.335714285714285L6.264285714285714,7.55L6,7.55L6,7.45L6.164285714285715,7.45L6.164285714285715,7.235714285714286L6.378571428571428,7.235714285714286L6.378571428571428,7.021428571428571L10.978571428571428,7.021428571428571L10.978571428571428,7.978571428571428L10.55,7.978571428571428L10.55,8.407142857142858L9.907142857142858,8.407142857142858L9.907142857142858,8.62142857142857L9.264285714285716,8.62142857142857L9.264285714285716,9.692857142857143L9.05,9.692857142857143L9.05,10.978571428571428L8.62142857142857,10.978571428571428L8.62142857142857,12.592857142857142L32.52142857142857,12.592857142857142L32.52142857142857,12.378571428571426L34.87857142857143,12.378571428571426L34.87857142857143,12.164285714285715L35.09285714285714,12.164285714285715L35.09285714285714,11.95L35.30714285714286,11.95L35.30714285714286,11.307142857142857L36.37857142857143,11.307142857142857L36.37857142857143,11.092857142857142L39.16428571428572,11.092857142857142L39.16428571428572,10.878571428571426L39.37857142857143,10.878571428571426L39.37857142857143,10.664285714285715L45.59285714285714,10.664285714285715L45.59285714285714,10.45z" stroke="none"/><path d="M101.99999999999999,4.55L101.99999999999999,4.45L102.69285714285712,4.45L102.69285714285712,4.878571428571429L102.90714285714284,4.878571428571429L102.90714285714284,12.907142857142858L101.83571428571427,12.907142857142858L101.83571428571427,13.12142857142857L89.83571428571427,13.12142857142857L89.83571428571427,13.335714285714285L38.52142857142857,13.335714285714285L38.52142857142857,13.12142857142857L37.45,13.12142857142857L37.45,12.692857142857143L37.02142857142857,12.692857142857143L37.02142857142857,11.521428571428569L46.878571428571426,11.521428571428569L46.878571428571426,11.307142857142857L47.09285714285714,11.307142857142857L47.09285714285714,11.092857142857142L47.30714285714286,11.092857142857142L47.30714285714286,10.878571428571426L48.378571428571426,10.878571428571426L48.378571428571426,8.735714285714284L48.80714285714286,8.735714285714284L48.80714285714286,8.521428571428569L50.62142857142857,8.521428571428569L50.62142857142857,8.95L50.83571428571428,8.95L50.83571428571428,9.592857142857142L51.05,9.592857142857142L51.05,9.807142857142857L51.26428571428571,9.807142857142857L51.26428571428571,10.235714285714284L51.692857142857136,10.235714285714284L51.692857142857136,10.45L51.90714285714285,10.45L51.90714285714285,10.664285714285715L52.12142857142857,10.664285714285715L52.12142857142857,10.878571428571426L52.878571428571426,10.878571428571426L52.878571428571426,10.12142857142857L52.66428571428572,10.12142857142857L52.66428571428572,9.478571428571428L52.02142857142857,9.478571428571428L52.02142857142857,8.521428571428569L53.83571428571428,8.521428571428569L53.83571428571428,8.735714285714284L54.05,8.735714285714284L54.05,9L53.95,9L53.95,8.835714285714285L53.73571428571429,8.835714285714285L53.73571428571429,8.62142857142857L52.12142857142857,8.62142857142857L52.12142857142857,9.378571428571426L52.76428571428571,9.378571428571426L52.76428571428571,10.021428571428569L52.97857142857142,10.021428571428569L52.97857142857142,10.978571428571428L52.02142857142857,10.978571428571428L52.02142857142857,10.764285714285716L51.80714285714286,10.764285714285716L51.80714285714286,10.55L51.59285714285714,10.55L51.59285714285714,10.335714285714285L51.16428571428572,10.335714285714285L51.16428571428572,9.907142857142858L50.95,9.907142857142858L50.95,9.692857142857143L50.73571428571429,9.692857142857143L50.73571428571429,9.05L50.52142857142857,9.05L50.52142857142857,8.62142857142857L48.90714285714285,8.62142857142857L48.90714285714285,8.835714285714285L48.47857142857142,8.835714285714285L48.47857142857142,10.978571428571428L47.40714285714285,10.978571428571428L47.40714285714285,11.192857142857143L47.192857142857136,11.192857142857143L47.192857142857136,11.407142857142858L46.97857142857142,11.407142857142858L46.97857142857142,11.62142857142857L37.12142857142857,11.62142857142857L37.12142857142857,12.592857142857142L37.55,12.592857142857142L37.55,13.021428571428569L38.62142857142857,13.021428571428569L38.62142857142857,13.235714285714284L89.73571428571428,13.235714285714284L89.73571428571428,13.021428571428569L101.73571428571428,13.021428571428569L101.73571428571428,12.807142857142857L102.80714285714285,12.807142857142857L102.80714285714285,4.978571428571429L102.59285714285713,4.978571428571429L102.59285714285713,4.55z" stroke="none"/></svg>