<svg version="1.1" width="105" height="15" xmlns="http://www.w3.org/2000/svg"><path d="M49.66428571428572,8.092857142857142L50.83571428571428,8.092857142857142L50.83571428571428,8.307142857142857L51.05,8.307142857142857L51.05,8.735714285714284L51.26428571428571,8.735714285714284L51.26428571428571,8.95L51.47857142857142,8.95L51.47857142857142,9.378571428571426L51.692857142857136,9.378571428571426L51.692857142857136,9.807142857142857L53.40714285714285,9.807142857142857L53.40714285714285,10.235714285714284L54.47857142857142,10.235714285714284L54.47857142857142,10.45L54.692857142857136,10.45L54.692857142857136,10.664285714285715L55.76428571428571,10.664285714285715L55.76428571428571,11.092857142857142L55.97857142857142,11.092857142857142L55.97857142857142,11.307142857142857L56.40714285714285,11.307142857142857L56.40714285714285,11.95L57,11.95L57,12.05L56.30714285714286,12.05L56.30714285714286,11.407142857142858L55.878571428571426,11.407142857142858L55.878571428571426,11.192857142857143L55.66428571428572,11.192857142857143L55.66428571428572,10.764285714285716L54.59285714285714,10.764285714285716L54.59285714285714,10.55L54.378571428571426,10.55L54.378571428571426,10.335714285714285L53.30714285714286,10.335714285714285L53.30714285714286,9.907142857142858L51.59285714285714,9.907142857142858L51.59285714285714,9.478571428571428L51.378571428571426,9.478571428571428L51.378571428571426,9.05L51.16428571428572,9.05L51.16428571428572,8.835714285714285L50.95,8.835714285714285L50.95,8.407142857142858L50.73571428571429,8.407142857142858L50.73571428571429,8.192857142857143L49.76428571428571,8.192857142857143L49.76428571428571,8.307142857142857L49.97857142857142,8.307142857142857L49.97857142857142,8.521428571428569L50.40714285714285,8.521428571428569L50.40714285714285,8.735714285714284L50.62142857142857,8.735714285714284L50.62142857142857,8.95L51,8.95L51,9.05L50.52142857142857,9.05L50.52142857142857,8.835714285714285L50.30714285714286,8.835714285714285L50.30714285714286,8.62142857142857L49.878571428571426,8.62142857142857L49.878571428571426,8.407142857142858L49.76428571428571,8.407142857142858L49.76428571428571,9.05L49.33571428571428,9.05L49.33571428571428,9.264285714285716L48.90714285714285,9.264285714285716L48.90714285714285,9.478571428571428L48.47857142857142,9.478571428571428L48.47857142857142,9.907142857142858L48.26428571428571,9.907142857142858L48.26428571428571,10.335714285714285L48.05,10.335714285714285L48.05,10.5L47.95,10.5L47.95,10.235714285714284L48.16428571428572,10.235714285714284L48.16428571428572,9.807142857142857L48.378571428571426,9.807142857142857L48.378571428571426,9.378571428571426L48.80714285714286,9.378571428571426L48.80714285714286,9.164285714285715L49.23571428571429,9.164285714285715L49.23571428571429,8.95L49.66428571428572,8.95z" stroke="none"/><path d="M34.12142857142857,7.664285714285715L34.12142857142857,7.878571428571428L47.73571428571429,7.878571428571428L47.73571428571429,7.664285714285715L47.95,7.664285714285715L47.95,7.5L48.05,7.5L48.05,7.764285714285714L47.83571428571428,7.764285714285714L47.83571428571428,7.978571428571428L34.02142857142857,7.978571428571428L34.02142857142857,7.764285714285714L28.764285714285716,7.764285714285714L28.764285714285716,8.835714285714285L28.55,8.835714285714285L28.55,9.05L28.335714285714285,9.05L28.335714285714285,9.478571428571428L27.90714285714286,9.478571428571428L27.90714285714286,9.907142857142858L27.264285714285716,9.907142857142858L27.264285714285716,10.12142857142857L26.40714285714286,10.12142857142857L26.40714285714286,10.335714285714285L25.978571428571428,10.335714285714285L25.978571428571428,10.55L25.5,10.55L25.5,10.45L25.878571428571426,10.45L25.878571428571426,10.235714285714284L26.307142857142857,10.235714285714284L26.307142857142857,10.021428571428569L27.164285714285715,10.021428571428569L27.164285714285715,9.807142857142857L27.807142857142857,9.807142857142857L27.807142857142857,9.378571428571426L28.235714285714284,9.378571428571426L28.235714285714284,8.95L28.45,8.95L28.45,8.735714285714284L28.664285714285715,8.735714285714284L28.664285714285715,7.764285714285714L27.05,7.764285714285714L27.05,8.192857142857143L26.62142857142857,8.192857142857143L26.62142857142857,8.407142857142858L25.12142857142857,8.407142857142858L25.12142857142857,8.62142857142857L24.90714285714286,8.62142857142857L24.90714285714286,8.835714285714285L23.192857142857143,8.835714285714285L23.192857142857143,9.478571428571428L22.978571428571428,9.478571428571428L22.978571428571428,9.692857142857143L22.764285714285716,9.692857142857143L22.764285714285716,9.907142857142858L22.335714285714285,9.907142857142858L22.335714285714285,10.12142857142857L22.121428571428574,10.12142857142857L22.121428571428574,10.764285714285716L21.478571428571428,10.764285714285716L21.478571428571428,10.978571428571428L21.05,10.978571428571428L21.05,11.62142857142857L19.764285714285716,11.62142857142857L19.764285714285716,11.835714285714285L19.55,11.835714285714285L19.55,12L19.45,12L19.45,11.735714285714284L19.664285714285715,11.735714285714284L19.664285714285715,11.521428571428569L20.95,11.521428571428569L20.95,10.878571428571426L21.378571428571426,10.878571428571426L21.378571428571426,10.664285714285715L22.021428571428572,10.664285714285715L22.021428571428572,10.021428571428569L22.235714285714284,10.021428571428569L22.235714285714284,9.807142857142857L22.664285714285715,9.807142857142857L22.664285714285715,9.592857142857142L22.878571428571426,9.592857142857142L22.878571428571426,9.378571428571426L23.09285714285714,9.378571428571426L23.09285714285714,8.735714285714284L24.807142857142857,8.735714285714284L24.807142857142857,8.521428571428569L25.02142857142857,8.521428571428569L25.02142857142857,8.307142857142857L26.52142857142857,8.307142857142857L26.52142857142857,8.092857142857142L26.95,8.092857142857142L26.95,7.664285714285715z" stroke="none"/><path d="M77.73571428571428,5.307142857142857L77.73571428571428,5.0928571428571425L92.83571428571427,5.0928571428571425L92.83571428571427,5.521428571428571L93.04999999999998,5.521428571428571L93.04999999999998,5.735714285714286L93.2642857142857,5.735714285714286L93.2642857142857,5.95L94.49999999999999,5.95L94.49999999999999,6.05L93.16428571428571,6.05L93.16428571428571,5.835714285714285L92.94999999999999,5.835714285714285L92.94999999999999,5.621428571428571L92.73571428571428,5.621428571428571L92.73571428571428,5.192857142857142L77.83571428571427,5.192857142857142L77.83571428571427,5.307142857142857L82.12142857142855,5.307142857142857L82.12142857142855,5.95L82.33571428571427,5.95L82.33571428571427,6.164285714285715L82.7642857142857,6.164285714285715L82.7642857142857,7.021428571428571L82.97857142857141,7.021428571428571L82.97857142857141,7.45L83.19285714285714,7.45L83.19285714285714,7.878571428571428L84.47857142857141,7.878571428571428L84.47857142857141,9.592857142857142L85.12142857142855,9.592857142857142L85.12142857142855,9.807142857142857L85.33571428571427,9.807142857142857L85.33571428571427,10.235714285714284L85.54999999999998,10.235714285714284L85.54999999999998,10.5L85.44999999999999,10.5L85.44999999999999,10.335714285714285L85.23571428571428,10.335714285714285L85.23571428571428,9.907142857142858L85.02142857142856,9.907142857142858L85.02142857142856,9.692857142857143L84.37857142857142,9.692857142857143L84.37857142857142,7.978571428571428L83.09285714285714,7.978571428571428L83.09285714285714,7.55L82.87857142857142,7.55L82.87857142857142,7.121428571428571L82.66428571428571,7.121428571428571L82.66428571428571,6.264285714285714L82.23571428571428,6.264285714285714L82.23571428571428,6.05L82.02142857142856,6.05L82.02142857142856,5.407142857142857L64.33571428571427,5.407142857142857L64.33571428571427,5.621428571428571L62.192857142857136,5.621428571428571L62.192857142857136,5.835714285714285L61.97857142857142,5.835714285714285L61.97857142857142,6.05L60,6.05L60,5.95L61.878571428571426,5.95L61.878571428571426,5.735714285714286L62.09285714285714,5.735714285714286L62.09285714285714,5.521428571428571L64.23571428571428,5.521428571428571L64.23571428571428,5.307142857142857z" stroke="none"/><path d="M46.33571428571428,2.7357142857142858L46.33571428571428,2.95L46.97857142857142,2.95L46.97857142857142,3.592857142857143L47.192857142857136,3.592857142857143L47.192857142857136,4.45L47.83571428571428,4.45L47.83571428571428,4.664285714285715L48.05,4.664285714285715L48.05,5.307142857142857L49.12142857142857,5.307142857142857L49.12142857142857,5.521428571428571L49.55,5.521428571428571L49.55,6L49.45,6L49.45,5.621428571428571L49.02142857142857,5.621428571428571L49.02142857142857,5.407142857142857L47.95,5.407142857142857L47.95,4.764285714285714L47.73571428571429,4.764285714285714L47.73571428571429,4.55L47.09285714285714,4.55L47.09285714285714,3.6928571428571426L46.878571428571426,3.6928571428571426L46.878571428571426,3.05L46.23571428571429,3.05L46.23571428571429,2.8357142857142854L23.40714285714286,2.8357142857142854L23.40714285714286,3.05L20.835714285714285,3.05L20.835714285714285,3.2642857142857142L17.621428571428574,3.2642857142857142L17.621428571428574,3.6928571428571426L16.978571428571428,3.6928571428571426L16.978571428571428,4.121428571428571L16.335714285714285,4.121428571428571L16.335714285714285,4.55L16.12142857142857,4.55L16.12142857142857,5.192857142857142L15.264285714285716,5.192857142857142L15.264285714285716,5.407142857142857L14.407142857142858,5.407142857142857L14.407142857142858,6.05L13.5,6.05L13.5,5.95L14.307142857142857,5.95L14.307142857142857,5.307142857142857L15.164285714285715,5.307142857142857L15.164285714285715,5.0928571428571425L16.02142857142857,5.0928571428571425L16.02142857142857,4.45L16.235714285714284,4.45L16.235714285714284,4.021428571428571L16.878571428571426,4.021428571428571L16.878571428571426,3.592857142857143L17.521428571428572,3.592857142857143L17.521428571428572,3.1642857142857146L20.735714285714284,3.1642857142857146L20.735714285714284,2.95L23.307142857142857,2.95L23.307142857142857,2.8357142857142854L13.55,2.8357142857142854L13.55,3L13.45,3L13.45,2.7357142857142858z" stroke="none"/><path d="M64.44999999999999,3.8071428571428574L64.44999999999999,3.6928571428571426L60.26428571428571,3.6928571428571426L60.26428571428571,4.121428571428571L60.05,4.121428571428571L60.05,4.335714285714285L59.83571428571428,4.335714285714285L59.83571428571428,4.764285714285714L59.62142857142857,4.764285714285714L59.62142857142857,5.407142857142857L59.40714285714285,5.407142857142857L59.40714285714285,7.764285714285714L59.192857142857136,7.764285714285714L59.192857142857136,8.407142857142858L58.97857142857142,8.407142857142858L58.97857142857142,8.62142857142857L58.55,8.62142857142857L58.55,8.835714285714285L58.33571428571428,8.835714285714285L58.33571428571428,9.164285714285715L68.52142857142856,9.164285714285715L68.52142857142856,8.95L69.37857142857142,8.95L69.37857142857142,8.735714285714284L70.02142857142856,8.735714285714284L70.02142857142856,8.521428571428569L79.66428571428571,8.521428571428569L79.66428571428571,8.307142857142857L79.87857142857142,8.307142857142857L79.87857142857142,7.878571428571428L80.30714285714285,7.878571428571428L80.30714285714285,7.021428571428571L80.94999999999999,7.021428571428571L80.94999999999999,6L81.04999999999998,6L81.04999999999998,7.121428571428571L80.40714285714284,7.121428571428571L80.40714285714284,7.978571428571428L79.97857142857141,7.978571428571428L79.97857142857141,8.407142857142858L79.7642857142857,8.407142857142858L79.7642857142857,8.62142857142857L70.12142857142855,8.62142857142857L70.12142857142855,8.835714285714285L69.47857142857141,8.835714285714285L69.47857142857141,9.05L68.62142857142855,9.05L68.62142857142855,9.264285714285716L58.23571428571429,9.264285714285716L58.23571428571429,8.735714285714284L58.45,8.735714285714284L58.45,8.521428571428569L58.878571428571426,8.521428571428569L58.878571428571426,8.307142857142857L59.09285714285714,8.307142857142857L59.09285714285714,7.664285714285715L59.30714285714286,7.664285714285715L59.30714285714286,5.307142857142857L59.52142857142857,5.307142857142857L59.52142857142857,4.664285714285715L59.73571428571429,4.664285714285715L59.73571428571429,4.235714285714286L59.95,4.235714285714286L59.95,4.021428571428571L60.16428571428572,4.021428571428571L60.16428571428572,3.592857142857143L64.54999999999998,3.592857142857143L64.54999999999998,3.8071428571428574L65.83571428571427,3.8071428571428574L65.83571428571427,4.235714285714286L66.04999999999998,4.235714285714286L66.04999999999998,4.45L67.49999999999999,4.45L67.49999999999999,4.55L65.94999999999999,4.55L65.94999999999999,4.335714285714285L65.73571428571428,4.335714285714285L65.73571428571428,3.907142857142857L64.54999999999998,3.907142857142857L64.54999999999998,4.121428571428571L61.97857142857142,4.121428571428571L61.97857142857142,4.335714285714285L61.76428571428571,4.335714285714285L61.76428571428571,4.55L61.12142857142857,4.55L61.12142857142857,4.764285714285714L60.47857142857142,4.764285714285714L60.47857142857142,4.978571428571429L60.05,4.978571428571429L60.05,5.192857142857142L59.83571428571428,5.192857142857142L59.83571428571428,5.621428571428571L59.62142857142857,5.621428571428571L59.62142857142857,8.62142857142857L59.40714285714285,8.62142857142857L59.40714285714285,8.835714285714285L58.97857142857142,8.835714285714285L58.97857142857142,9.05L58.5,9.05L58.5,8.95L58.878571428571426,8.95L58.878571428571426,8.735714285714284L59.30714285714286,8.735714285714284L59.30714285714286,8.521428571428569L59.52142857142857,8.521428571428569L59.52142857142857,5.521428571428571L59.73571428571429,5.521428571428571L59.73571428571429,5.0928571428571425L59.95,5.0928571428571425L59.95,4.878571428571429L60.378571428571426,4.878571428571429L60.378571428571426,4.664285714285715L61.02142857142857,4.664285714285715L61.02142857142857,4.45L61.66428571428572,4.45L61.66428571428572,4.235714285714286L61.878571428571426,4.235714285714286L61.878571428571426,4.021428571428571L64.44999999999999,4.021428571428571L64.44999999999999,3.907142857142857L61.55,3.907142857142857L61.55,4.121428571428571L60.90714285714285,4.121428571428571L60.90714285714285,4.335714285714285L60.692857142857136,4.335714285714285L60.692857142857136,4.55L60,4.55L60,4.45L60.59285714285714,4.45L60.59285714285714,4.235714285714286L60.80714285714286,4.235714285714286L60.80714285714286,4.021428571428571L61.45,4.021428571428571L61.45,3.8071428571428574z" stroke="none"/><path d="M19.45,6.807142857142857L19.45,6.692857142857142L10.12142857142857,6.692857142857142L10.12142857142857,7.55L9,7.55L9,7.45L10.021428571428569,7.45L10.021428571428569,6.5928571428571425L19.55,6.5928571428571425L19.55,6.807142857142857L23.40714285714286,6.807142857142857L23.40714285714286,7.45L24,7.45L24,7.55L23.307142857142857,7.55L23.307142857142857,6.907142857142857L19.55,6.907142857142857L19.55,11.407142857142858L19.121428571428574,11.407142857142858L19.121428571428574,12.378571428571426L40.23571428571429,12.378571428571426L40.23571428571429,12.164285714285715L40.45,12.164285714285715L40.45,12L40.55,12L40.55,12.264285714285716L40.33571428571428,12.264285714285716L40.33571428571428,12.478571428571428L19.021428571428572,12.478571428571428L19.021428571428572,11.307142857142857L19.45,11.307142857142857L19.45,6.907142857142857L16.335714285714285,6.907142857142857L16.335714285714285,7.121428571428571L15.907142857142858,7.121428571428571L15.907142857142858,8.192857142857143L15.478571428571428,8.192857142857143L15.478571428571428,8.407142857142858L15.264285714285716,8.407142857142858L15.264285714285716,8.62142857142857L13.978571428571428,8.62142857142857L13.978571428571428,9.05L13.5,9.05L13.5,8.95L13.878571428571426,8.95L13.878571428571426,8.521428571428569L15.164285714285715,8.521428571428569L15.164285714285715,8.307142857142857L15.378571428571426,8.307142857142857L15.378571428571426,8.092857142857142L15.807142857142857,8.092857142857142L15.807142857142857,7.021428571428571L16.235714285714284,7.021428571428571L16.235714285714284,6.807142857142857z" stroke="none"/><path d="M60.378571428571426,2.95L60.378571428571426,2.7357142857142858L82.33571428571427,2.7357142857142858L82.33571428571427,2.95L82.97857142857141,2.95L82.97857142857141,3.1642857142857146L83.62142857142855,3.1642857142857146L83.62142857142855,3.3785714285714286L84.80714285714285,3.3785714285714286L84.80714285714285,3.1642857142857146L88.44999999999999,3.1642857142857146L88.44999999999999,2.95L89.99999999999999,2.95L89.99999999999999,3.05L88.54999999999998,3.05L88.54999999999998,3.2642857142857142L84.90714285714284,3.2642857142857142L84.90714285714284,3.478571428571428L83.52142857142856,3.478571428571428L83.52142857142856,3.2642857142857142L82.87857142857142,3.2642857142857142L82.87857142857142,3.05L82.23571428571428,3.05L82.23571428571428,2.8357142857142854L60.47857142857142,2.8357142857142854L60.47857142857142,2.95L70.7642857142857,2.95L70.7642857142857,3.1642857142857146L70.97857142857141,3.1642857142857146L70.97857142857141,3.3785714285714286L71.19285714285714,3.3785714285714286L71.19285714285714,4.021428571428571L71.62142857142855,4.021428571428571L71.62142857142855,4.45L71.99999999999999,4.45L71.99999999999999,4.55L71.52142857142856,4.55L71.52142857142856,4.121428571428571L71.09285714285714,4.121428571428571L71.09285714285714,3.478571428571428L70.87857142857142,3.478571428571428L70.87857142857142,3.2642857142857142L70.66428571428571,3.2642857142857142L70.66428571428571,3.05L60.47857142857142,3.05L60.47857142857142,3.2642857142857142L55.76428571428571,3.2642857142857142L55.76428571428571,3.478571428571428L55.33571428571428,3.478571428571428L55.33571428571428,3.6928571428571426L55.12142857142857,3.6928571428571426L55.12142857142857,4.121428571428571L53.83571428571428,4.121428571428571L53.83571428571428,4.55L53.40714285714285,4.55L53.40714285714285,4.764285714285714L53.192857142857136,4.764285714285714L53.192857142857136,4.978571428571429L52.97857142857142,4.978571428571429L52.97857142857142,5.192857142857142L52.55,5.192857142857142L52.55,5.621428571428571L52.33571428571428,5.621428571428571L52.33571428571428,5.835714285714285L51.692857142857136,5.835714285714285L51.692857142857136,6.05L51.05,6.05L51.05,6.264285714285714L50.62142857142857,6.264285714285714L50.62142857142857,6.478571428571428L50.40714285714285,6.478571428571428L50.40714285714285,6.692857142857142L46.55,6.692857142857142L46.55,6.907142857142857L46.33571428571428,6.907142857142857L46.33571428571428,7.121428571428571L46.12142857142857,7.121428571428571L46.12142857142857,7.764285714285714L44.73571428571429,7.764285714285714L44.73571428571429,6.264285714285714L44.09285714285714,6.264285714285714L44.09285714285714,6.05L43.5,6.05L43.5,5.95L44.192857142857136,5.95L44.192857142857136,6.164285714285715L44.83571428571428,6.164285714285715L44.83571428571428,7.664285714285715L46.02142857142857,7.664285714285715L46.02142857142857,7.021428571428571L46.23571428571429,7.021428571428571L46.23571428571429,6.807142857142857L46.45,6.807142857142857L46.45,6.5928571428571425L50.30714285714286,6.5928571428571425L50.30714285714286,6.378571428571428L50.52142857142857,6.378571428571428L50.52142857142857,6.164285714285715L50.95,6.164285714285715L50.95,5.95L51.59285714285714,5.95L51.59285714285714,5.735714285714286L52.23571428571429,5.735714285714286L52.23571428571429,5.521428571428571L52.45,5.521428571428571L52.45,5.0928571428571425L52.878571428571426,5.0928571428571425L52.878571428571426,4.878571428571429L53.09285714285714,4.878571428571429L53.09285714285714,4.664285714285715L53.30714285714286,4.664285714285715L53.30714285714286,4.45L53.73571428571429,4.45L53.73571428571429,4.021428571428571L55.02142857142857,4.021428571428571L55.02142857142857,3.592857142857143L55.23571428571429,3.592857142857143L55.23571428571429,3.3785714285714286L55.66428571428572,3.3785714285714286L55.66428571428572,3.1642857142857146L60.378571428571426,3.1642857142857146L60.378571428571426,3.05L55.33571428571428,3.05L55.33571428571428,3.2642857142857142L54.26428571428571,3.2642857142857142L54.26428571428571,3.907142857142857L53.192857142857136,3.907142857142857L53.192857142857136,4.335714285714285L52.97857142857142,4.335714285714285L52.97857142857142,4.764285714285714L52.76428571428571,4.764285714285714L52.76428571428571,4.978571428571429L52.12142857142857,4.978571428571429L52.12142857142857,5.621428571428571L51.26428571428571,5.621428571428571L51.26428571428571,5.835714285714285L50.83571428571428,5.835714285714285L50.83571428571428,6.05L50.192857142857136,6.05L50.192857142857136,6.478571428571428L45.90714285714285,6.478571428571428L45.90714285714285,6.907142857142857L45.692857142857136,6.907142857142857L45.692857142857136,7.335714285714285L45.26428571428571,7.335714285714285L45.26428571428571,7.55L45,7.55L45,7.45L45.16428571428572,7.45L45.16428571428572,7.235714285714286L45.59285714285714,7.235714285714286L45.59285714285714,6.807142857142857L45.80714285714286,6.807142857142857L45.80714285714286,6.378571428571428L50.09285714285714,6.378571428571428L50.09285714285714,5.95L50.73571428571429,5.95L50.73571428571429,5.735714285714286L51.16428571428572,5.735714285714286L51.16428571428572,5.521428571428571L52.02142857142857,5.521428571428571L52.02142857142857,4.878571428571429L52.66428571428572,4.878571428571429L52.66428571428572,4.664285714285715L52.878571428571426,4.664285714285715L52.878571428571426,4.235714285714286L53.09285714285714,4.235714285714286L53.09285714285714,3.8071428571428574L54.16428571428572,3.8071428571428574L54.16428571428572,3.1642857142857146L55.23571428571429,3.1642857142857146L55.23571428571429,2.95z" stroke="none"/><path d="M64.87857142857142,2.3071428571428574L64.87857142857142,2.092857142857143L91.33571428571427,2.092857142857143L91.33571428571427,2.3071428571428574L91.7642857142857,2.3071428571428574L91.7642857142857,2.521428571428572L91.97857142857141,2.521428571428572L91.97857142857141,3.1642857142857146L92.62142857142855,3.1642857142857146L92.62142857142855,3.3785714285714286L92.83571428571427,3.3785714285714286L92.83571428571427,4.235714285714286L93.2642857142857,4.235714285714286L93.2642857142857,4.45L93.47857142857141,4.45L93.47857142857141,4.664285714285715L94.33571428571427,4.664285714285715L94.33571428571427,5.307142857142857L94.97857142857141,5.307142857142857L94.97857142857141,6.478571428571428L84.90714285714284,6.478571428571428L84.90714285714284,6.692857142857142L84.47857142857141,6.692857142857142L84.47857142857141,7.121428571428571L84.2642857142857,7.121428571428571L84.2642857142857,7.335714285714285L84.04999999999998,7.335714285714285L84.04999999999998,7.5L83.94999999999999,7.5L83.94999999999999,7.235714285714286L84.16428571428571,7.235714285714286L84.16428571428571,7.021428571428571L84.37857142857142,7.021428571428571L84.37857142857142,6.5928571428571425L84.80714285714285,6.5928571428571425L84.80714285714285,6.378571428571428L94.87857142857142,6.378571428571428L94.87857142857142,5.407142857142857L94.23571428571428,5.407142857142857L94.23571428571428,4.764285714285714L93.37857142857142,4.764285714285714L93.37857142857142,4.55L93.16428571428571,4.55L93.16428571428571,4.335714285714285L92.73571428571428,4.335714285714285L92.73571428571428,3.478571428571428L92.52142857142856,3.478571428571428L92.52142857142856,3.2642857142857142L91.87857142857142,3.2642857142857142L91.87857142857142,2.6214285714285714L91.66428571428571,2.6214285714285714L91.66428571428571,2.407142857142857L91.23571428571428,2.407142857142857L91.23571428571428,2.1928571428571426L64.97857142857141,2.1928571428571426L64.97857142857141,2.3071428571428574L82.33571428571427,2.3071428571428574L82.33571428571427,2.521428571428572L82.54999999999998,2.521428571428572L82.54999999999998,2.7357142857142858L83.19285714285714,2.7357142857142858L83.19285714285714,2.95L83.99999999999999,2.95L83.99999999999999,3.05L83.09285714285714,3.05L83.09285714285714,2.8357142857142854L82.44999999999999,2.8357142857142854L82.44999999999999,2.6214285714285714L82.23571428571428,2.6214285714285714L82.23571428571428,2.407142857142857L64.97857142857141,2.407142857142857L64.97857142857141,2.6214285714285714L52.76428571428571,2.6214285714285714L52.76428571428571,2.8357142857142854L51.692857142857136,2.8357142857142854L51.692857142857136,3.05L51.26428571428571,3.05L51.26428571428571,3.2642857142857142L50.40714285714285,3.2642857142857142L50.40714285714285,3.478571428571428L50.192857142857136,3.478571428571428L50.192857142857136,3.907142857142857L49.76428571428571,3.907142857142857L49.76428571428571,4.335714285714285L49.55,4.335714285714285L49.55,4.5L49.45,4.5L49.45,4.235714285714286L49.66428571428572,4.235714285714286L49.66428571428572,3.8071428571428574L50.09285714285714,3.8071428571428574L50.09285714285714,3.3785714285714286L50.30714285714286,3.3785714285714286L50.30714285714286,3.1642857142857146L51.16428571428572,3.1642857142857146L51.16428571428572,2.95L51.59285714285714,2.95L51.59285714285714,2.7357142857142858L52.66428571428572,2.7357142857142858L52.66428571428572,2.521428571428572L64.87857142857142,2.521428571428572L64.87857142857142,2.407142857142857L51.47857142857142,2.407142857142857L51.47857142857142,2.6214285714285714L51.05,2.6214285714285714L51.05,3L50.95,3L50.95,2.521428571428572L51.378571428571426,2.521428571428572L51.378571428571426,2.3071428571428574z" stroke="none"/><path d="M6,2.95L6,3.05L4.5,3.05L4.5,2.95z" stroke="none"/><path d="M94.44999999999999,9L94.54999999999998,9L94.54999999999998,10.5L94.44999999999999,10.5z" stroke="none"/><path d="M17.95,4.5L18.05,4.5L18.05,5.307142857142857L18.264285714285716,5.307142857142857L18.264285714285716,5.521428571428571L19.121428571428574,5.521428571428571L19.121428571428574,5.735714285714286L19.55,5.735714285714286L19.55,6L19.45,6L19.45,5.835714285714285L19.021428571428572,5.835714285714285L19.021428571428572,5.621428571428571L18.164285714285715,5.621428571428571L18.164285714285715,5.407142857142857L17.95,5.407142857142857z" stroke="none"/><path d="M7.5,2.95L7.5,3.05L6.692857142857142,3.05L6.692857142857142,3.907142857142857L6.478571428571428,3.907142857142857L6.478571428571428,4.121428571428571L6.05,4.121428571428571L6.05,4.5L5.95,4.5L5.95,4.021428571428571L6.378571428571428,4.021428571428571L6.378571428571428,3.8071428571428574L6.5928571428571425,3.8071428571428574L6.5928571428571425,2.95z" stroke="none"/><path d="M8.95,9L9.05,9L9.05,9.807142857142857L9.264285714285716,9.807142857142857L9.264285714285716,10.021428571428569L10.12142857142857,10.021428571428569L10.12142857142857,10.235714285714284L10.55,10.235714285714284L10.55,10.5L10.45,10.5L10.45,10.335714285714285L10.021428571428569,10.335714285714285L10.021428571428569,10.12142857142857L9.164285714285715,10.12142857142857L9.164285714285715,9.907142857142858L8.95,9.907142857142858z" stroke="none"/><path d="M39,8.95L39,9.05L38.83571428571428,9.05L38.83571428571428,9.264285714285716L38.40714285714285,9.264285714285716L38.40714285714285,9.692857142857143L37.97857142857143,9.692857142857143L37.97857142857143,9.907142857142858L37.76428571428571,9.907142857142858L37.76428571428571,10.335714285714285L36.26428571428571,10.335714285714285L36.26428571428571,10.55L36,10.55L36,10.45L36.16428571428572,10.45L36.16428571428572,10.235714285714284L37.66428571428572,10.235714285714284L37.66428571428572,9.807142857142857L37.87857142857143,9.807142857142857L37.87857142857143,9.592857142857142L38.30714285714286,9.592857142857142L38.30714285714286,9.164285714285715L38.73571428571429,9.164285714285715L38.73571428571429,8.95z" stroke="none"/><path d="M97.49999999999999,3.05L97.49999999999999,2.95L101.99999999999999,2.95L101.99999999999999,3.05z" stroke="none"/><path d="M92.99999999999999,10.55L92.99999999999999,10.45L93.47857142857141,10.45L93.47857142857141,10.664285714285715L94.12142857142855,10.664285714285715L94.12142857142855,10.878571428571426L95.19285714285712,10.878571428571426L95.19285714285712,11.092857142857142L95.83571428571427,11.092857142857142L95.83571428571427,11.307142857142857L96.2642857142857,11.307142857142857L96.2642857142857,11.521428571428569L96.69285714285712,11.521428571428569L96.69285714285712,11.735714285714284L97.33571428571427,11.735714285714284L97.33571428571427,11.95L97.49999999999999,11.95L97.49999999999999,12.05L97.23571428571428,12.05L97.23571428571428,11.835714285714285L96.59285714285713,11.835714285714285L96.59285714285713,11.62142857142857L96.16428571428571,11.62142857142857L96.16428571428571,11.407142857142858L95.73571428571428,11.407142857142858L95.73571428571428,11.192857142857143L95.09285714285713,11.192857142857143L95.09285714285713,10.978571428571428L94.02142857142856,10.978571428571428L94.02142857142856,10.764285714285716L93.37857142857142,10.764285714285716L93.37857142857142,10.55z" stroke="none"/><path d="M51,11.95L51,12.05L48.80714285714286,12.05L48.80714285714286,11.62142857142857L48.378571428571426,11.62142857142857L48.378571428571426,11.407142857142858L47.73571428571429,11.407142857142858L47.73571428571429,10.978571428571428L47.52142857142857,10.978571428571428L47.52142857142857,8.95L47.73571428571429,8.95L47.73571428571429,8.735714285714284L48.59285714285714,8.735714285714284L48.59285714285714,8.307142857142857L49.02142857142857,8.307142857142857L49.02142857142857,7.878571428571428L51.80714285714286,7.878571428571428L51.80714285714286,7.664285714285715L52.02142857142857,7.664285714285715L52.02142857142857,7.45L52.5,7.45L52.5,7.55L52.12142857142857,7.55L52.12142857142857,7.764285714285714L51.90714285714285,7.764285714285714L51.90714285714285,7.978571428571428L49.12142857142857,7.978571428571428L49.12142857142857,8.407142857142858L48.692857142857136,8.407142857142858L48.692857142857136,8.835714285714285L47.83571428571428,8.835714285714285L47.83571428571428,9.05L47.62142857142857,9.05L47.62142857142857,10.878571428571426L47.83571428571428,10.878571428571426L47.83571428571428,11.307142857142857L48.47857142857142,11.307142857142857L48.47857142857142,11.521428571428569L48.90714285714285,11.521428571428569L48.90714285714285,11.95z" stroke="none"/><path d="M94.49999999999999,3.05L94.49999999999999,2.95L94.7642857142857,2.95L94.7642857142857,3.1642857142857146L95.40714285714284,3.1642857142857146L95.40714285714284,3.3785714285714286L95.62142857142855,3.3785714285714286L95.62142857142855,3.8071428571428574L95.83571428571427,3.8071428571428574L95.83571428571427,4.021428571428571L96.04999999999998,4.021428571428571L96.04999999999998,4.235714285714286L96.2642857142857,4.235714285714286L96.2642857142857,4.878571428571429L97.97857142857141,4.878571428571429L97.97857142857141,5.307142857142857L98.19285714285712,5.307142857142857L98.19285714285712,5.521428571428571L98.40714285714284,5.521428571428571L98.40714285714284,5.735714285714286L98.83571428571427,5.735714285714286L98.83571428571427,5.95L98.99999999999999,5.95L98.99999999999999,6.05L98.73571428571428,6.05L98.73571428571428,5.835714285714285L98.30714285714285,5.835714285714285L98.30714285714285,5.621428571428571L98.09285714285713,5.621428571428571L98.09285714285713,5.407142857142857L97.87857142857142,5.407142857142857L97.87857142857142,4.978571428571429L96.16428571428571,4.978571428571429L96.16428571428571,4.335714285714285L95.94999999999999,4.335714285714285L95.94999999999999,4.121428571428571L95.73571428571428,4.121428571428571L95.73571428571428,3.907142857142857L95.52142857142856,3.907142857142857L95.52142857142856,3.478571428571428L95.30714285714285,3.478571428571428L95.30714285714285,3.2642857142857142L94.66428571428571,3.2642857142857142L94.66428571428571,3.05z" stroke="none"/><path d="M95.99999999999999,7.55L95.99999999999999,7.45L100.44999999999999,7.45L100.44999999999999,7.235714285714286L100.66428571428571,7.235714285714286L100.66428571428571,6.164285714285715L101.52142857142856,6.164285714285715L101.52142857142856,5.95L101.99999999999999,5.95L101.99999999999999,6.05L101.62142857142855,6.05L101.62142857142855,6.264285714285714L100.7642857142857,6.264285714285714L100.7642857142857,7.335714285714285L100.54999999999998,7.335714285714285L100.54999999999998,7.55z" stroke="none"/><path d="M39,6.05L39,5.95L41.30714285714286,5.95L41.30714285714286,5.735714285714286L41.52142857142857,5.735714285714286L41.52142857142857,5.521428571428571L43.23571428571429,5.521428571428571L43.23571428571429,4.878571428571429L44.52142857142857,4.878571428571429L44.52142857142857,4.45L45,4.45L45,4.55L44.62142857142857,4.55L44.62142857142857,4.978571428571429L43.33571428571428,4.978571428571429L43.33571428571428,5.621428571428571L41.62142857142857,5.621428571428571L41.62142857142857,5.835714285714285L41.40714285714285,5.835714285714285L41.40714285714285,6.05z" stroke="none"/><path d="M83.94999999999999,9L84.04999999999998,9L84.04999999999998,9.807142857142857L84.2642857142857,9.807142857142857L84.2642857142857,10.021428571428569L84.47857142857141,10.021428571428569L84.47857142857141,10.235714285714284L84.69285714285714,10.235714285714284L84.69285714285714,10.45L84.90714285714284,10.45L84.90714285714284,10.664285714285715L85.12142857142855,10.664285714285715L85.12142857142855,10.878571428571426L86.09285714285714,10.878571428571426L86.09285714285714,10.664285714285715L90.37857142857142,10.664285714285715L90.37857142857142,10.45L91.49999999999999,10.45L91.49999999999999,10.55L90.47857142857141,10.55L90.47857142857141,10.764285714285716L86.19285714285714,10.764285714285716L86.19285714285714,10.978571428571428L85.02142857142856,10.978571428571428L85.02142857142856,10.764285714285716L84.80714285714285,10.764285714285716L84.80714285714285,10.55L84.59285714285714,10.55L84.59285714285714,10.335714285714285L84.37857142857142,10.335714285714285L84.37857142857142,10.12142857142857L84.16428571428571,10.12142857142857L84.16428571428571,9.907142857142858L83.94999999999999,9.907142857142858z" stroke="none"/><path d="M42,5.95L42,6.05L41.62142857142857,6.05L41.62142857142857,6.264285714285714L40.76428571428571,6.264285714285714L40.76428571428571,6.478571428571428L36.47857142857143,6.478571428571428L36.47857142857143,6.692857142857142L35.83571428571428,6.692857142857142L35.83571428571428,6.907142857142857L35.40714285714285,6.907142857142857L35.40714285714285,7.121428571428571L35.192857142857136,7.121428571428571L35.192857142857136,7.335714285714285L34.55,7.335714285714285L34.55,7.5L34.45,7.5L34.45,7.235714285714286L35.09285714285714,7.235714285714286L35.09285714285714,7.021428571428571L35.30714285714286,7.021428571428571L35.30714285714286,6.807142857142857L35.73571428571429,6.807142857142857L35.73571428571429,6.5928571428571425L36.37857142857143,6.5928571428571425L36.37857142857143,6.378571428571428L40.66428571428572,6.378571428571428L40.66428571428572,6.164285714285715L41.52142857142857,6.164285714285715L41.52142857142857,5.95z" stroke="none"/><path d="M80.99999999999999,12.05L80.99999999999999,11.95L91.23571428571428,11.95L91.23571428571428,11.307142857142857L91.87857142857142,11.307142857142857L91.87857142857142,9.907142857142858L91.23571428571428,9.907142857142858L91.23571428571428,9.478571428571428L91.02142857142856,9.478571428571428L91.02142857142856,8.835714285714285L90.59285714285714,8.835714285714285L90.59285714285714,8.62142857142857L90.37857142857142,8.62142857142857L90.37857142857142,8.407142857142858L90.16428571428571,8.407142857142858L90.16428571428571,8.192857142857143L89.73571428571428,8.192857142857143L89.73571428571428,7.978571428571428L88.87857142857142,7.978571428571428L88.87857142857142,7.55L88.49999999999999,7.55L88.49999999999999,7.45L88.97857142857141,7.45L88.97857142857141,7.878571428571428L89.83571428571427,7.878571428571428L89.83571428571427,8.092857142857142L90.2642857142857,8.092857142857142L90.2642857142857,8.307142857142857L90.47857142857141,8.307142857142857L90.47857142857141,8.521428571428569L90.69285714285714,8.521428571428569L90.69285714285714,8.735714285714284L91.12142857142855,8.735714285714284L91.12142857142855,9.378571428571426L91.33571428571427,9.378571428571426L91.33571428571427,9.807142857142857L91.97857142857141,9.807142857142857L91.97857142857141,11.407142857142858L91.33571428571427,11.407142857142858L91.33571428571427,12.05z" stroke="none"/><path d="M70.49999999999999,11.95L70.49999999999999,12.05L61.5,12.05L61.5,11.95z" stroke="none"/><path d="M64.49999999999999,10.55L64.49999999999999,10.45L70.02142857142856,10.45L70.02142857142856,10.021428571428569L75.37857142857142,10.021428571428569L75.37857142857142,9.592857142857142L75.80714285714285,9.592857142857142L75.80714285714285,9.378571428571426L76.02142857142856,9.378571428571426L76.02142857142856,8.95L76.49999999999999,8.95L76.49999999999999,9.05L76.12142857142855,9.05L76.12142857142855,9.478571428571428L75.90714285714284,9.478571428571428L75.90714285714284,9.692857142857143L75.47857142857141,9.692857142857143L75.47857142857141,10.12142857142857L70.12142857142855,10.12142857142857L70.12142857142855,10.55z" stroke="none"/><path d="M60,7.55L60,7.45L64.02142857142857,7.45L64.02142857142857,7.021428571428571L72.47857142857141,7.021428571428571L72.47857142857141,7.235714285714286L72.90714285714284,7.235714285714286L72.90714285714284,7.45L73.49999999999999,7.45L73.49999999999999,7.55L72.80714285714285,7.55L72.80714285714285,7.335714285714285L72.37857142857142,7.335714285714285L72.37857142857142,7.121428571428571L64.12142857142857,7.121428571428571L64.12142857142857,7.55z" stroke="none"/><path d="M18,10.45L18,10.55L12.05,10.55L12.05,10.764285714285716L11.62142857142857,10.764285714285716L11.62142857142857,10.978571428571428L5.735714285714286,10.978571428571428L5.735714285714286,10.764285714285716L4.664285714285715,10.764285714285716L4.664285714285715,10.55L4.5,10.55L4.5,10.45L4.764285714285714,10.45L4.764285714285714,10.664285714285715L5.835714285714285,10.664285714285715L5.835714285714285,10.878571428571426L11.521428571428569,10.878571428571426L11.521428571428569,10.664285714285715L11.95,10.664285714285715L11.95,10.45z" stroke="none"/><path d="M21,12.05L21,11.95L34.5,11.95L34.5,12.05z" stroke="none"/><path d="M48,2.95L48,3.05L47.09285714285714,3.05L47.09285714285714,2.8357142857142854L46.45,2.8357142857142854L46.45,2.6214285714285714L13.12142857142857,2.6214285714285714L13.12142857142857,6.378571428571428L31.664285714285715,6.378571428571428L31.664285714285715,6.164285714285715L32.09285714285714,6.164285714285715L32.09285714285714,5.95L32.52142857142857,5.95L32.52142857142857,5.735714285714286L32.95,5.735714285714286L32.95,5.307142857142857L34.02142857142857,5.307142857142857L34.02142857142857,5.0928571428571425L34.23571428571429,5.0928571428571425L34.23571428571429,4.878571428571429L34.45,4.878571428571429L34.45,4.5L34.55,4.5L34.55,4.978571428571429L34.33571428571428,4.978571428571429L34.33571428571428,5.192857142857142L34.12142857142857,5.192857142857142L34.12142857142857,5.407142857142857L33.05,5.407142857142857L33.05,5.835714285714285L32.62142857142857,5.835714285714285L32.62142857142857,6.05L32.192857142857136,6.05L32.192857142857136,6.264285714285714L31.764285714285716,6.264285714285714L31.764285714285716,6.478571428571428L13.021428571428569,6.478571428571428L13.021428571428569,2.521428571428572L46.55,2.521428571428572L46.55,2.7357142857142858L47.192857142857136,2.7357142857142858L47.192857142857136,2.95z" stroke="none"/><path d="M54,9.05L54,8.95L57.05,8.95L57.05,9.164285714285715L58.12142857142857,9.164285714285715L58.12142857142857,9.378571428571426L70.23571428571428,9.378571428571426L70.23571428571428,9.164285714285715L70.44999999999999,9.164285714285715L70.44999999999999,9L70.54999999999998,9L70.54999999999998,9.264285714285716L70.33571428571427,9.264285714285716L70.33571428571427,9.478571428571428L58.02142857142857,9.478571428571428L58.02142857142857,9.264285714285716L56.95,9.264285714285716L56.95,9.05z" stroke="none"/><path d="M82.54999999999998,9L82.44999999999999,9L82.44999999999999,7.55L82.23571428571428,7.55L82.23571428571428,7.335714285714285L81.80714285714285,7.335714285714285L81.80714285714285,7.121428571428571L81.59285714285714,7.121428571428571L81.59285714285714,5.835714285714285L81.37857142857142,5.835714285714285L81.37857142857142,5.621428571428571L77.19285714285714,5.621428571428571L77.19285714285714,6.05L75.47857142857141,6.05L75.47857142857141,6.264285714285714L75.2642857142857,6.264285714285714L75.2642857142857,6.478571428571428L75.04999999999998,6.478571428571428L75.04999999999998,6.692857142857142L74.62142857142855,6.692857142857142L74.62142857142855,6.907142857142857L74.40714285714284,6.907142857142857L74.40714285714284,7.121428571428571L74.19285714285714,7.121428571428571L74.19285714285714,7.978571428571428L64.66428571428571,7.978571428571428L64.66428571428571,7.55L64.49999999999999,7.55L64.49999999999999,7.45L64.7642857142857,7.45L64.7642857142857,7.878571428571428L74.09285714285714,7.878571428571428L74.09285714285714,7.021428571428571L74.30714285714285,7.021428571428571L74.30714285714285,6.807142857142857L74.52142857142856,6.807142857142857L74.52142857142856,6.5928571428571425L74.94999999999999,6.5928571428571425L74.94999999999999,6.378571428571428L75.16428571428571,6.378571428571428L75.16428571428571,6.164285714285715L75.37857142857142,6.164285714285715L75.37857142857142,5.95L77.09285714285714,5.95L77.09285714285714,5.521428571428571L81.47857142857141,5.521428571428571L81.47857142857141,5.735714285714286L81.69285714285714,5.735714285714286L81.69285714285714,7.021428571428571L81.90714285714284,7.021428571428571L81.90714285714284,7.235714285714286L82.33571428571427,7.235714285714286L82.33571428571427,7.45L82.54999999999998,7.45z" stroke="none"/><path d="M91.49999999999999,7.55L91.49999999999999,7.45L91.7642857142857,7.45L91.7642857142857,7.878571428571428L91.97857142857141,7.878571428571428L91.97857142857141,8.735714285714284L92.19285714285712,8.735714285714284L92.19285714285712,11.835714285714285L91.97857142857141,11.835714285714285L91.97857142857141,12.05L91.7642857142857,12.05L91.7642857142857,12.264285714285716L83.83571428571427,12.264285714285716L83.83571428571427,12.478571428571428L73.23571428571428,12.478571428571428L73.23571428571428,12.264285714285716L71.94999999999999,12.264285714285716L71.94999999999999,12.05L71.73571428571428,12.05L71.73571428571428,11.835714285714285L71.52142857142856,11.835714285714285L71.52142857142856,11.192857142857143L71.30714285714285,11.192857142857143L71.30714285714285,10.978571428571428L70.87857142857142,10.978571428571428L70.87857142857142,10.55L70.49999999999999,10.55L70.49999999999999,10.45L70.97857142857141,10.45L70.97857142857141,10.878571428571426L71.40714285714284,10.878571428571426L71.40714285714284,11.092857142857142L71.62142857142855,11.092857142857142L71.62142857142855,11.735714285714284L71.83571428571427,11.735714285714284L71.83571428571427,11.95L72.04999999999998,11.95L72.04999999999998,12.164285714285715L73.33571428571427,12.164285714285715L73.33571428571427,12.378571428571426L83.73571428571428,12.378571428571426L83.73571428571428,12.164285714285715L91.66428571428571,12.164285714285715L91.66428571428571,11.95L91.87857142857142,11.95L91.87857142857142,11.735714285714284L92.09285714285713,11.735714285714284L92.09285714285713,8.835714285714285L91.87857142857142,8.835714285714285L91.87857142857142,7.978571428571428L91.66428571428571,7.978571428571428L91.66428571428571,7.55z" stroke="none"/><path d="M40.45,9L40.55,9L40.55,11.092857142857142L40.76428571428571,11.092857142857142L40.76428571428571,11.307142857142857L40.97857142857143,11.307142857142857L40.97857142857143,12.478571428571428L40.55,12.478571428571428L40.55,12.692857142857143L18.807142857142857,12.692857142857143L18.807142857142857,9.692857142857143L17.95,9.692857142857143L17.95,9.05L17.735714285714284,9.05L17.735714285714284,8.835714285714285L17.307142857142857,8.835714285714285L17.307142857142857,8.407142857142858L17.09285714285714,8.407142857142858L17.09285714285714,8.192857142857143L16.878571428571426,8.192857142857143L16.878571428571426,7.978571428571428L16.664285714285715,7.978571428571428L16.664285714285715,7.764285714285714L16.45,7.764285714285714L16.45,7.5L16.55,7.5L16.55,7.664285714285715L16.764285714285716,7.664285714285715L16.764285714285716,7.878571428571428L16.978571428571428,7.878571428571428L16.978571428571428,8.092857142857142L17.192857142857143,8.092857142857142L17.192857142857143,8.307142857142857L17.40714285714286,8.307142857142857L17.40714285714286,8.735714285714284L17.835714285714285,8.735714285714284L17.835714285714285,8.95L18.05,8.95L18.05,9.592857142857142L18.90714285714286,9.592857142857142L18.90714285714286,12.592857142857142L40.45,12.592857142857142L40.45,12.378571428571426L40.87857142857143,12.378571428571426L40.87857142857143,11.407142857142858L40.66428571428572,11.407142857142858L40.66428571428572,11.192857142857143L40.45,11.192857142857143z" stroke="none"/><path d="M83.99999999999999,4.45L83.99999999999999,4.55L72.69285714285714,4.55L72.69285714285714,4.764285714285714L72.47857142857141,4.764285714285714L72.47857142857141,4.978571428571429L70.02142857142856,4.978571428571429L70.02142857142856,4.764285714285714L69.80714285714285,4.764285714285714L69.80714285714285,4.55L68.09285714285714,4.55L68.09285714285714,4.121428571428571L66.16428571428571,4.121428571428571L66.16428571428571,3.6928571428571426L65.94999999999999,3.6928571428571426L65.94999999999999,3.478571428571428L60.05,3.478571428571428L60.05,3.907142857142857L59.192857142857136,3.907142857142857L59.192857142857136,4.121428571428571L58.76428571428571,4.121428571428571L58.76428571428571,4.335714285714285L58.55,4.335714285714285L58.55,4.978571428571429L57.90714285714285,4.978571428571429L57.90714285714285,5.835714285714285L57.05,5.835714285714285L57.05,6L56.95,6L56.95,5.735714285714286L57.80714285714286,5.735714285714286L57.80714285714286,4.878571428571429L58.45,4.878571428571429L58.45,4.235714285714286L58.66428571428572,4.235714285714286L58.66428571428572,4.021428571428571L59.09285714285714,4.021428571428571L59.09285714285714,3.8071428571428574L59.95,3.8071428571428574L59.95,3.3785714285714286L66.04999999999998,3.3785714285714286L66.04999999999998,3.592857142857143L66.2642857142857,3.592857142857143L66.2642857142857,4.021428571428571L68.19285714285714,4.021428571428571L68.19285714285714,4.45L69.90714285714284,4.45L69.90714285714284,4.664285714285715L70.12142857142855,4.664285714285715L70.12142857142855,4.878571428571429L72.37857142857142,4.878571428571429L72.37857142857142,4.664285714285715L72.59285714285714,4.664285714285715L72.59285714285714,4.45z" stroke="none"/><path d="M3,12.05L3,11.95L17.40714285714286,11.95L17.40714285714286,12.164285714285715L17.621428571428574,12.164285714285715L17.621428571428574,12.378571428571426L17.835714285714285,12.378571428571426L17.835714285714285,12.592857142857142L18.478571428571428,12.592857142857142L18.478571428571428,12.807142857142857L41.09285714285714,12.807142857142857L41.09285714285714,8.835714285714285L40.87857142857143,8.835714285714285L40.87857142857143,8.62142857142857L34.55,8.62142857142857L34.55,8.835714285714285L34.33571428571428,8.835714285714285L34.33571428571428,9.05L33,9.05L33,8.95L34.23571428571429,8.95L34.23571428571429,8.735714285714284L34.45,8.735714285714284L34.45,8.521428571428569L40.97857142857143,8.521428571428569L40.97857142857143,8.735714285714284L41.192857142857136,8.735714285714284L41.192857142857136,12.907142857142858L18.378571428571426,12.907142857142858L18.378571428571426,12.692857142857143L17.735714285714284,12.692857142857143L17.735714285714284,12.478571428571428L17.521428571428572,12.478571428571428L17.521428571428572,12.264285714285716L17.307142857142857,12.264285714285716L17.307142857142857,12.05z" stroke="none"/><path d="M63,10.55L63,10.45L63.90714285714285,10.45L63.90714285714285,10.664285714285715L64.12142857142857,10.664285714285715L64.12142857142857,10.878571428571426L70.7642857142857,10.878571428571426L70.7642857142857,11.092857142857142L71.19285714285714,11.092857142857142L71.19285714285714,11.735714285714284L71.40714285714284,11.735714285714284L71.40714285714284,11.95L71.62142857142855,11.95L71.62142857142855,12.378571428571426L73.12142857142855,12.378571428571426L73.12142857142855,12.592857142857142L91.87857142857142,12.592857142857142L91.87857142857142,12.378571428571426L92.09285714285713,12.378571428571426L92.09285714285713,11.95L92.30714285714285,11.95L92.30714285714285,9.378571428571426L92.52142857142856,9.378571428571426L92.52142857142856,9.164285714285715L92.73571428571428,9.164285714285715L92.73571428571428,8.95L92.94999999999999,8.95L92.94999999999999,8.735714285714284L93.37857142857142,8.735714285714284L93.37857142857142,8.521428571428569L95.83571428571427,8.521428571428569L95.83571428571427,8.95L95.99999999999999,8.95L95.99999999999999,9.05L95.73571428571428,9.05L95.73571428571428,8.62142857142857L93.47857142857141,8.62142857142857L93.47857142857141,8.835714285714285L93.04999999999998,8.835714285714285L93.04999999999998,9.05L92.83571428571427,9.05L92.83571428571427,9.264285714285716L92.62142857142855,9.264285714285716L92.62142857142855,9.478571428571428L92.40714285714284,9.478571428571428L92.40714285714284,12.05L92.19285714285712,12.05L92.19285714285712,12.478571428571428L91.97857142857141,12.478571428571428L91.97857142857141,12.692857142857143L73.02142857142856,12.692857142857143L73.02142857142856,12.478571428571428L71.52142857142856,12.478571428571428L71.52142857142856,12.05L71.30714285714285,12.05L71.30714285714285,11.835714285714285L71.09285714285714,11.835714285714285L71.09285714285714,11.192857142857143L70.66428571428571,11.192857142857143L70.66428571428571,10.978571428571428L64.02142857142857,10.978571428571428L64.02142857142857,10.764285714285716L63.80714285714286,10.764285714285716L63.80714285714286,10.55z" stroke="none"/><path d="M94.49999999999999,11.95L94.49999999999999,12.05L92.83571428571427,12.05L92.83571428571427,12.264285714285716L92.62142857142855,12.264285714285716L92.62142857142855,12.478571428571428L92.40714285714284,12.478571428571428L92.40714285714284,12.907142857142858L71.52142857142856,12.907142857142858L71.52142857142856,12.692857142857143L71.09285714285714,12.692857142857143L71.09285714285714,12.264285714285716L70.87857142857142,12.264285714285716L70.87857142857142,11.62142857142857L62.73571428571429,11.62142857142857L62.73571428571429,11.407142857142858L61.878571428571426,11.407142857142858L61.878571428571426,10.978571428571428L61.45,10.978571428571428L61.45,10.5L61.55,10.5L61.55,10.878571428571426L61.97857142857142,10.878571428571426L61.97857142857142,11.307142857142857L62.83571428571428,11.307142857142857L62.83571428571428,11.521428571428569L70.97857142857141,11.521428571428569L70.97857142857141,12.164285714285715L71.19285714285714,12.164285714285715L71.19285714285714,12.592857142857142L71.62142857142855,12.592857142857142L71.62142857142855,12.807142857142857L92.30714285714285,12.807142857142857L92.30714285714285,12.378571428571426L92.52142857142856,12.378571428571426L92.52142857142856,12.164285714285715L92.73571428571428,12.164285714285715L92.73571428571428,11.95z" stroke="none"/><path d="M43.5,11.95L43.5,12.05L42.05,12.05L42.05,12.264285714285716L41.83571428571428,12.264285714285716L41.83571428571428,12.478571428571428L41.62142857142857,12.478571428571428L41.62142857142857,12.907142857142858L41.40714285714285,12.907142857142858L41.40714285714285,13.12142857142857L3.592857142857143,13.12142857142857L3.592857142857143,12.907142857142858L3.3785714285714286,12.907142857142858L3.3785714285714286,12.692857142857143L2.7357142857142858,12.692857142857143L2.7357142857142858,12.478571428571428L2.521428571428572,12.478571428571428L2.521428571428572,11.307142857142857L2.7357142857142858,11.307142857142857L2.7357142857142858,11.092857142857142L3.1642857142857146,11.092857142857142L3.1642857142857146,10.664285714285715L3.592857142857143,10.664285714285715L3.592857142857143,10.021428571428569L7.021428571428571,10.021428571428569L7.021428571428571,9.592857142857142L7.235714285714286,9.592857142857142L7.235714285714286,9.378571428571426L7.45,9.378571428571426L7.45,8.735714285714284L8.521428571428569,8.735714285714284L8.521428571428569,8.521428571428569L9.164285714285715,8.521428571428569L9.164285714285715,8.307142857142857L9.807142857142857,8.307142857142857L9.807142857142857,8.092857142857142L10.235714285714284,8.092857142857142L10.235714285714284,7.664285714285715L10.45,7.664285714285715L10.45,7.5L10.55,7.5L10.55,7.764285714285714L10.335714285714285,7.764285714285714L10.335714285714285,8.192857142857143L9.907142857142858,8.192857142857143L9.907142857142858,8.407142857142858L9.264285714285716,8.407142857142858L9.264285714285716,8.62142857142857L8.62142857142857,8.62142857142857L8.62142857142857,8.835714285714285L7.55,8.835714285714285L7.55,9.478571428571428L7.335714285714285,9.478571428571428L7.335714285714285,9.692857142857143L7.121428571428571,9.692857142857143L7.121428571428571,10.12142857142857L3.6928571428571426,10.12142857142857L3.6928571428571426,10.764285714285716L3.2642857142857142,10.764285714285716L3.2642857142857142,11.192857142857143L2.8357142857142854,11.192857142857143L2.8357142857142854,11.407142857142858L2.6214285714285714,11.407142857142858L2.6214285714285714,12.378571428571426L2.8357142857142854,12.378571428571426L2.8357142857142854,12.592857142857142L3.478571428571428,12.592857142857142L3.478571428571428,12.807142857142857L3.6928571428571426,12.807142857142857L3.6928571428571426,13.021428571428569L41.30714285714286,13.021428571428569L41.30714285714286,12.807142857142857L41.52142857142857,12.807142857142857L41.52142857142857,12.378571428571426L41.73571428571429,12.378571428571426L41.73571428571429,12.164285714285715L41.95,12.164285714285715L41.95,11.95z" stroke="none"/><path d="M22.5,10.55L22.5,10.45L25.12142857142857,10.45L25.12142857142857,10.878571428571426L30.164285714285715,10.878571428571426L30.164285714285715,10.45L30.378571428571426,10.45L30.378571428571426,10.235714285714284L30.59285714285714,10.235714285714284L30.59285714285714,10.021428571428569L31.664285714285715,10.021428571428569L31.664285714285715,9.592857142857142L31.878571428571426,9.592857142857142L31.878571428571426,9.378571428571426L32.09285714285714,9.378571428571426L32.09285714285714,9.164285714285715L32.30714285714286,9.164285714285715L32.30714285714286,8.95L32.52142857142857,8.95L32.52142857142857,8.521428571428569L34.23571428571429,8.521428571428569L34.23571428571429,8.307142857142857L47.95,8.307142857142857L47.95,8.092857142857142L48.16428571428572,8.092857142857142L48.16428571428572,7.878571428571428L48.378571428571426,7.878571428571428L48.378571428571426,7.664285714285715L50.30714285714286,7.664285714285715L50.30714285714286,7.45L50.95,7.45L50.95,7.235714285714286L51.378571428571426,7.235714285714286L51.378571428571426,7.021428571428571L57.16428571428572,7.021428571428571L57.16428571428572,6.807142857142857L57.80714285714286,6.807142857142857L57.80714285714286,6.5928571428571425L58.23571428571429,6.5928571428571425L58.23571428571429,5.95L58.5,5.95L58.5,6.05L58.33571428571428,6.05L58.33571428571428,6.692857142857142L57.90714285714285,6.692857142857142L57.90714285714285,6.907142857142857L57.26428571428571,6.907142857142857L57.26428571428571,7.121428571428571L51.47857142857142,7.121428571428571L51.47857142857142,7.335714285714285L51.05,7.335714285714285L51.05,7.55L50.40714285714285,7.55L50.40714285714285,7.764285714285714L48.47857142857142,7.764285714285714L48.47857142857142,7.978571428571428L48.26428571428571,7.978571428571428L48.26428571428571,8.192857142857143L48.05,8.192857142857143L48.05,8.407142857142858L34.33571428571428,8.407142857142858L34.33571428571428,8.62142857142857L32.62142857142857,8.62142857142857L32.62142857142857,9.05L32.40714285714285,9.05L32.40714285714285,9.264285714285716L32.192857142857136,9.264285714285716L32.192857142857136,9.478571428571428L31.978571428571428,9.478571428571428L31.978571428571428,9.692857142857143L31.764285714285716,9.692857142857143L31.764285714285716,10.12142857142857L30.692857142857143,10.12142857142857L30.692857142857143,10.335714285714285L30.478571428571428,10.335714285714285L30.478571428571428,10.55L30.264285714285716,10.55L30.264285714285716,10.978571428571428L25.02142857142857,10.978571428571428L25.02142857142857,10.55z" stroke="none"/><path d="M5.95,6L6.05,6L6.05,6.264285714285714L5.835714285714285,6.264285714285714L5.835714285714285,7.121428571428571L5.621428571428571,7.121428571428571L5.621428571428571,7.335714285714285L5.192857142857142,7.335714285714285L5.192857142857142,7.55L4.978571428571429,7.55L4.978571428571429,7.978571428571428L4.764285714285714,7.978571428571428L4.764285714285714,8.62142857142857L4.335714285714285,8.62142857142857L4.335714285714285,9.264285714285716L4.121428571428571,9.264285714285716L4.121428571428571,9.907142857142858L3.478571428571428,9.907142857142858L3.478571428571428,10.12142857142857L2.8357142857142854,10.12142857142857L2.8357142857142854,10.764285714285716L2.6214285714285714,10.764285714285716L2.6214285714285714,11.192857142857143L2.407142857142857,11.192857142857143L2.407142857142857,12.592857142857142L2.6214285714285714,12.592857142857142L2.6214285714285714,12.807142857142857L3.2642857142857142,12.807142857142857L3.2642857142857142,13.021428571428569L3.478571428571428,13.021428571428569L3.478571428571428,13.235714285714284L56.73571428571429,13.235714285714284L56.73571428571429,13.021428571428569L56.95,13.021428571428569L56.95,12.592857142857142L57.378571428571426,12.592857142857142L57.378571428571426,11.192857142857143L56.95,11.192857142857143L56.95,10.978571428571428L56.73571428571429,10.978571428571428L56.73571428571429,10.764285714285716L56.09285714285714,10.764285714285716L56.09285714285714,10.55L54.80714285714286,10.55L54.80714285714286,10.335714285714285L54.59285714285714,10.335714285714285L54.59285714285714,10.12142857142857L53.95,10.12142857142857L53.95,9.907142857142858L53.73571428571429,9.907142857142858L53.73571428571429,9.478571428571428L53.52142857142857,9.478571428571428L53.52142857142857,8.307142857142857L54.16428571428572,8.307142857142857L54.16428571428572,8.092857142857142L54.59285714285714,8.092857142857142L54.59285714285714,7.878571428571428L55.23571428571429,7.878571428571428L55.23571428571429,7.664285714285715L55.45,7.664285714285715L55.45,7.5L55.55,7.5L55.55,7.764285714285714L55.33571428571428,7.764285714285714L55.33571428571428,7.978571428571428L54.692857142857136,7.978571428571428L54.692857142857136,8.192857142857143L54.26428571428571,8.192857142857143L54.26428571428571,8.407142857142858L53.62142857142857,8.407142857142858L53.62142857142857,9.378571428571426L53.83571428571428,9.378571428571426L53.83571428571428,9.807142857142857L54.05,9.807142857142857L54.05,10.021428571428569L54.692857142857136,10.021428571428569L54.692857142857136,10.235714285714284L54.90714285714285,10.235714285714284L54.90714285714285,10.45L56.192857142857136,10.45L56.192857142857136,10.664285714285715L56.83571428571428,10.664285714285715L56.83571428571428,10.878571428571426L57.05,10.878571428571426L57.05,11.092857142857142L57.47857142857142,11.092857142857142L57.47857142857142,12.692857142857143L57.05,12.692857142857143L57.05,13.12142857142857L56.83571428571428,13.12142857142857L56.83571428571428,13.335714285714285L3.3785714285714286,13.335714285714285L3.3785714285714286,13.12142857142857L3.1642857142857146,13.12142857142857L3.1642857142857146,12.907142857142858L2.521428571428572,12.907142857142858L2.521428571428572,12.692857142857143L2.3071428571428574,12.692857142857143L2.3071428571428574,11.092857142857142L2.521428571428572,11.092857142857142L2.521428571428572,10.664285714285715L2.7357142857142858,10.664285714285715L2.7357142857142858,10.021428571428569L3.3785714285714286,10.021428571428569L3.3785714285714286,9.807142857142857L4.021428571428571,9.807142857142857L4.021428571428571,9.164285714285715L4.235714285714286,9.164285714285715L4.235714285714286,8.521428571428569L4.664285714285715,8.521428571428569L4.664285714285715,7.878571428571428L4.878571428571429,7.878571428571428L4.878571428571429,7.45L5.0928571428571425,7.45L5.0928571428571425,7.235714285714286L5.521428571428571,7.235714285714286L5.521428571428571,7.021428571428571L5.735714285714286,7.021428571428571L5.735714285714286,6.164285714285715L5.95,6.164285714285715z" stroke="none"/></svg>