<svg version="1.1" width="105" height="15" xmlns="http://www.w3.org/2000/svg"><path d="M28.978571428571428,2.3071428571428574L28.978571428571428,2.7357142857142858L29.192857142857143,2.7357142857142858L29.192857142857143,2.95L30,2.95L30,3.05L29.09285714285714,3.05L29.09285714285714,2.8357142857142854L28.878571428571426,2.8357142857142854L28.878571428571426,2.407142857142857L14.835714285714285,2.407142857142857L14.835714285714285,4.45L15,4.45L15,4.55L14.735714285714284,4.55L14.735714285714284,2.407142857142857L12.05,2.407142857142857L12.05,2.6214285714285714L10.12142857142857,2.6214285714285714L10.12142857142857,2.8357142857142854L9.264285714285716,2.8357142857142854L9.264285714285716,4.121428571428571L8.62142857142857,4.121428571428571L8.62142857142857,4.335714285714285L7.978571428571428,4.335714285714285L7.978571428571428,4.978571428571429L6.907142857142857,4.978571428571429L6.907142857142857,5.407142857142857L6.692857142857142,5.407142857142857L6.692857142857142,5.835714285714285L6.264285714285714,5.835714285714285L6.264285714285714,6.05L6,6.05L6,5.95L6.164285714285715,5.95L6.164285714285715,5.735714285714286L6.5928571428571425,5.735714285714286L6.5928571428571425,5.307142857142857L6.807142857142857,5.307142857142857L6.807142857142857,4.878571428571429L7.878571428571428,4.878571428571429L7.878571428571428,4.235714285714286L8.521428571428569,4.235714285714286L8.521428571428569,4.021428571428571L9.164285714285715,4.021428571428571L9.164285714285715,2.7357142857142858L10.021428571428569,2.7357142857142858L10.021428571428569,2.521428571428572L11.95,2.521428571428572L11.95,2.3071428571428574z" stroke="none"/><path d="M11.307142857142857,5.0928571428571425L15.692857142857143,5.0928571428571425L15.692857142857143,5.307142857142857L15.907142857142858,5.307142857142857L15.907142857142858,5.521428571428571L17.192857142857143,5.521428571428571L17.192857142857143,5.735714285714286L17.621428571428574,5.735714285714286L17.621428571428574,6.378571428571428L17.835714285714285,6.378571428571428L17.835714285714285,7.45L18,7.45L18,7.55L17.735714285714284,7.55L17.735714285714284,6.478571428571428L17.521428571428572,6.478571428571428L17.521428571428572,5.835714285714285L17.09285714285714,5.835714285714285L17.09285714285714,5.621428571428571L15.807142857142857,5.621428571428571L15.807142857142857,5.407142857142857L15.592857142857142,5.407142857142857L15.592857142857142,5.192857142857142L11.407142857142858,5.192857142857142L11.407142857142858,5.307142857142857L13.335714285714285,5.307142857142857L13.335714285714285,5.735714285714286L13.55,5.735714285714286L13.55,6L13.45,6L13.45,5.835714285714285L13.235714285714284,5.835714285714285L13.235714285714284,5.407142857142857L11.407142857142858,5.407142857142857L11.407142857142858,6.478571428571428L10.764285714285716,6.478571428571428L10.764285714285716,6.692857142857142L10.335714285714285,6.692857142857142L10.335714285714285,6.907142857142857L10.12142857142857,6.907142857142857L10.12142857142857,7.978571428571428L9.692857142857143,7.978571428571428L9.692857142857143,8.192857142857143L9.478571428571428,8.192857142857143L9.478571428571428,8.407142857142858L9.264285714285716,8.407142857142858L9.264285714285716,8.835714285714285L9.05,8.835714285714285L9.05,9L8.95,9L8.95,8.735714285714284L9.164285714285715,8.735714285714284L9.164285714285715,8.307142857142857L9.378571428571426,8.307142857142857L9.378571428571426,8.092857142857142L9.592857142857142,8.092857142857142L9.592857142857142,7.878571428571428L10.021428571428569,7.878571428571428L10.021428571428569,6.807142857142857L10.235714285714284,6.807142857142857L10.235714285714284,6.5928571428571425L10.664285714285715,6.5928571428571425L10.664285714285715,6.378571428571428L11.307142857142857,6.378571428571428z" stroke="none"/><path d="M19.121428571428574,5.307142857142857L19.121428571428574,7.878571428571428L49.33571428571428,7.878571428571428L49.33571428571428,8.307142857142857L49.55,8.307142857142857L49.55,9L49.45,9L49.45,8.407142857142858L49.23571428571429,8.407142857142858L49.23571428571429,7.978571428571428L19.021428571428572,7.978571428571428L19.021428571428572,5.407142857142857L18.90714285714286,5.407142857142857L18.90714285714286,6.692857142857142L18.692857142857143,6.692857142857142L18.692857142857143,7.55L18.478571428571428,7.55L18.478571428571428,7.978571428571428L12.264285714285716,7.978571428571428L12.264285714285716,8.192857142857143L12.05,8.192857142857143L12.05,8.407142857142858L11.407142857142858,8.407142857142858L11.407142857142858,8.62142857142857L11.192857142857143,8.62142857142857L11.192857142857143,8.835714285714285L10.764285714285716,8.835714285714285L10.764285714285716,9.05L10.5,9.05L10.5,8.95L10.664285714285715,8.95L10.664285714285715,8.735714285714284L11.092857142857142,8.735714285714284L11.092857142857142,8.521428571428569L11.307142857142857,8.521428571428569L11.307142857142857,8.307142857142857L11.95,8.307142857142857L11.95,8.092857142857142L12.164285714285715,8.092857142857142L12.164285714285715,7.878571428571428L18.378571428571426,7.878571428571428L18.378571428571426,7.45L18.59285714285714,7.45L18.59285714285714,6.5928571428571425L18.807142857142857,6.5928571428571425L18.807142857142857,5.407142857142857L16.02142857142857,5.407142857142857L16.02142857142857,4.978571428571429L10.764285714285716,4.978571428571429L10.764285714285716,5.192857142857142L10.335714285714285,5.192857142857142L10.335714285714285,5.407142857142857L10.12142857142857,5.407142857142857L10.12142857142857,5.621428571428571L9.05,5.621428571428571L9.05,6.05L8.192857142857143,6.05L8.192857142857143,6.264285714285714L7.55,6.264285714285714L7.55,6.478571428571428L4.021428571428571,6.478571428571428L4.021428571428571,6.05L3.592857142857143,6.05L3.592857142857143,5.835714285714285L3.3785714285714286,5.835714285714285L3.3785714285714286,5.621428571428571L3.1642857142857146,5.621428571428571L3.1642857142857146,4.764285714285714L2.95,4.764285714285714L2.95,4.5L3.05,4.5L3.05,4.664285714285715L3.2642857142857142,4.664285714285715L3.2642857142857142,5.521428571428571L3.478571428571428,5.521428571428571L3.478571428571428,5.735714285714286L3.6928571428571426,5.735714285714286L3.6928571428571426,5.95L4.121428571428571,5.95L4.121428571428571,6.378571428571428L7.45,6.378571428571428L7.45,6.164285714285715L8.092857142857142,6.164285714285715L8.092857142857142,5.95L8.95,5.95L8.95,5.521428571428571L10.021428571428569,5.521428571428571L10.021428571428569,5.307142857142857L10.235714285714284,5.307142857142857L10.235714285714284,5.0928571428571425L10.664285714285715,5.0928571428571425L10.664285714285715,4.878571428571429L16.12142857142857,4.878571428571429L16.12142857142857,5.307142857142857z" stroke="none"/><path d="M37.55,4.664285714285715L37.55,4.878571428571429L54.90714285714285,4.878571428571429L54.90714285714285,5.521428571428571L55.33571428571428,5.521428571428571L55.33571428571428,5.735714285714286L55.55,5.735714285714286L55.55,5.95L55.76428571428571,5.95L55.76428571428571,6.164285714285715L56.40714285714285,6.164285714285715L56.40714285714285,6.5928571428571425L57.05,6.5928571428571425L57.05,7.021428571428571L57.47857142857142,7.021428571428571L57.47857142857142,7.664285714285715L57.692857142857136,7.664285714285715L57.692857142857136,7.878571428571428L57.90714285714285,7.878571428571428L57.90714285714285,8.092857142857142L58.33571428571428,8.092857142857142L58.33571428571428,8.307142857142857L58.55,8.307142857142857L58.55,9L58.45,9L58.45,8.407142857142858L58.23571428571429,8.407142857142858L58.23571428571429,8.192857142857143L57.80714285714286,8.192857142857143L57.80714285714286,7.978571428571428L57.59285714285714,7.978571428571428L57.59285714285714,7.764285714285714L57.378571428571426,7.764285714285714L57.378571428571426,7.121428571428571L56.95,7.121428571428571L56.95,6.692857142857142L56.30714285714286,6.692857142857142L56.30714285714286,6.264285714285714L55.66428571428572,6.264285714285714L55.66428571428572,6.05L55.45,6.05L55.45,5.835714285714285L55.23571428571429,5.835714285714285L55.23571428571429,5.621428571428571L54.80714285714286,5.621428571428571L54.80714285714286,4.978571428571429L37.45,4.978571428571429L37.45,4.764285714285714L30.90714285714286,4.764285714285714L30.90714285714286,5.192857142857142L22.978571428571428,5.192857142857142L22.978571428571428,5.407142857142857L22.121428571428574,5.407142857142857L22.121428571428574,5.621428571428571L21.90714285714286,5.621428571428571L21.90714285714286,6.05L21.264285714285716,6.05L21.264285714285716,6.264285714285714L20.835714285714285,6.264285714285714L20.835714285714285,6.478571428571428L19.978571428571428,6.478571428571428L19.978571428571428,7.121428571428571L19.764285714285716,7.121428571428571L19.764285714285716,7.55L19.5,7.55L19.5,7.45L19.664285714285715,7.45L19.664285714285715,7.021428571428571L19.878571428571426,7.021428571428571L19.878571428571426,6.378571428571428L20.735714285714284,6.378571428571428L20.735714285714284,6.164285714285715L21.164285714285715,6.164285714285715L21.164285714285715,5.95L21.807142857142857,5.95L21.807142857142857,5.521428571428571L22.021428571428572,5.521428571428571L22.021428571428572,5.307142857142857L22.878571428571426,5.307142857142857L22.878571428571426,5.0928571428571425L30.807142857142857,5.0928571428571425L30.807142857142857,4.764285714285714L30.692857142857143,4.764285714285714L30.692857142857143,4.978571428571429L23.307142857142857,4.978571428571429L23.307142857142857,4.764285714285714L22.664285714285715,4.764285714285714L22.664285714285715,4.55L21,4.55L21,4.45L22.764285714285716,4.45L22.764285714285716,4.664285714285715L23.40714285714286,4.664285714285715L23.40714285714286,4.878571428571429L30.59285714285714,4.878571428571429L30.59285714285714,4.664285714285715z" stroke="none"/><path d="M68.52142857142856,7.45L68.52142857142856,7.335714285714285L66.37857142857142,7.335714285714285L66.37857142857142,7.121428571428571L60.47857142857142,7.121428571428571L60.47857142857142,7.55L60,7.55L60,7.45L60.378571428571426,7.45L60.378571428571426,7.021428571428571L66.47857142857141,7.021428571428571L66.47857142857141,7.235714285714286L68.62142857142855,7.235714285714286L68.62142857142855,7.45L74.40714285714284,7.45L74.40714285714284,7.664285714285715L74.62142857142855,7.664285714285715L74.62142857142855,7.878571428571428L85.97857142857141,7.878571428571428L85.97857142857141,8.092857142857142L86.19285714285714,8.092857142857142L86.19285714285714,8.307142857142857L86.40714285714284,8.307142857142857L86.40714285714284,8.521428571428569L87.04999999999998,8.521428571428569L87.04999999999998,8.95L87.47857142857141,8.95L87.47857142857141,9.164285714285715L87.69285714285714,9.164285714285715L87.69285714285714,9.807142857142857L87.90714285714284,9.807142857142857L87.90714285714284,10.021428571428569L88.54999999999998,10.021428571428569L88.54999999999998,10.235714285714284L88.7642857142857,10.235714285714284L88.7642857142857,10.45L89.99999999999999,10.45L89.99999999999999,10.55L88.66428571428571,10.55L88.66428571428571,10.335714285714285L88.44999999999999,10.335714285714285L88.44999999999999,10.12142857142857L87.80714285714285,10.12142857142857L87.80714285714285,9.907142857142858L87.59285714285714,9.907142857142858L87.59285714285714,9.264285714285716L87.37857142857142,9.264285714285716L87.37857142857142,9.05L86.94999999999999,9.05L86.94999999999999,8.62142857142857L86.30714285714285,8.62142857142857L86.30714285714285,8.407142857142858L86.09285714285714,8.407142857142858L86.09285714285714,8.192857142857143L85.87857142857142,8.192857142857143L85.87857142857142,7.978571428571428L74.52142857142856,7.978571428571428L74.52142857142856,7.764285714285714L74.30714285714285,7.764285714285714L74.30714285714285,7.55L68.62142857142855,7.55L68.62142857142855,10.235714285714284L68.83571428571427,10.235714285714284L68.83571428571427,10.45L68.99999999999999,10.45L68.99999999999999,10.55L68.73571428571428,10.55L68.73571428571428,10.335714285714285L68.52142857142856,10.335714285714285L68.52142857142856,7.55L66.90714285714284,7.55L66.90714285714284,7.764285714285714L66.69285714285714,7.764285714285714L66.69285714285714,8.192857142857143L66.2642857142857,8.192857142857143L66.2642857142857,8.407142857142858L66.04999999999998,8.407142857142858L66.04999999999998,8.62142857142857L65.83571428571427,8.62142857142857L65.83571428571427,8.835714285714285L65.62142857142855,8.835714285714285L65.62142857142855,9.05L65.40714285714284,9.05L65.40714285714284,9.264285714285716L65.19285714285714,9.264285714285716L65.19285714285714,9.478571428571428L64.7642857142857,9.478571428571428L64.7642857142857,10.335714285714285L64.54999999999998,10.335714285714285L64.54999999999998,10.5L64.44999999999999,10.5L64.44999999999999,10.235714285714284L64.66428571428571,10.235714285714284L64.66428571428571,9.378571428571426L65.09285714285714,9.378571428571426L65.09285714285714,9.164285714285715L65.30714285714285,9.164285714285715L65.30714285714285,8.95L65.52142857142856,8.95L65.52142857142856,8.735714285714284L65.73571428571428,8.735714285714284L65.73571428571428,8.521428571428569L65.94999999999999,8.521428571428569L65.94999999999999,8.307142857142857L66.16428571428571,8.307142857142857L66.16428571428571,8.092857142857142L66.59285714285714,8.092857142857142L66.59285714285714,7.664285714285715L66.80714285714285,7.664285714285715L66.80714285714285,7.45z" stroke="none"/><path d="M59.30714285714286,4.021428571428571L59.30714285714286,3.8071428571428574L78.47857142857141,3.8071428571428574L78.47857142857141,4.235714285714286L78.69285714285714,4.235714285714286L78.69285714285714,4.45L86.62142857142855,4.45L86.62142857142855,4.664285714285715L86.83571428571427,4.664285714285715L86.83571428571427,4.878571428571429L87.2642857142857,4.878571428571429L87.2642857142857,5.521428571428571L88.12142857142855,5.521428571428571L88.12142857142855,6.378571428571428L89.09285714285714,6.378571428571428L89.09285714285714,6.164285714285715L89.52142857142856,6.164285714285715L89.52142857142856,5.95L89.94999999999999,5.95L89.94999999999999,5.735714285714286L90.37857142857142,5.735714285714286L90.37857142857142,5.0928571428571425L91.02142857142856,5.0928571428571425L91.02142857142856,4.45L91.49999999999999,4.45L91.49999999999999,4.55L91.12142857142855,4.55L91.12142857142855,5.192857142857142L90.47857142857141,5.192857142857142L90.47857142857141,5.835714285714285L90.04999999999998,5.835714285714285L90.04999999999998,6.05L89.62142857142855,6.05L89.62142857142855,6.264285714285714L89.19285714285714,6.264285714285714L89.19285714285714,6.478571428571428L88.02142857142856,6.478571428571428L88.02142857142856,5.621428571428571L87.16428571428571,5.621428571428571L87.16428571428571,4.978571428571429L86.73571428571428,4.978571428571429L86.73571428571428,4.764285714285714L86.52142857142856,4.764285714285714L86.52142857142856,4.55L78.59285714285714,4.55L78.59285714285714,4.335714285714285L78.37857142857142,4.335714285714285L78.37857142857142,3.907142857142857L59.40714285714285,3.907142857142857L59.40714285714285,4.021428571428571L59.62142857142857,4.021428571428571L59.62142857142857,9.692857142857143L45.59285714285714,9.692857142857143L45.59285714285714,9.05L45,9.05L45,8.95L45.692857142857136,8.95L45.692857142857136,9.592857142857142L59.52142857142857,9.592857142857142L59.52142857142857,4.121428571428571L59.40714285714285,4.121428571428571L59.40714285714285,8.835714285714285L59.192857142857136,8.835714285714285L59.192857142857136,9.264285714285716L58.97857142857142,9.264285714285716L58.97857142857142,9.478571428571428L58.02142857142857,9.478571428571428L58.02142857142857,8.835714285714285L57.80714285714286,8.835714285714285L57.80714285714286,8.62142857142857L57.59285714285714,8.62142857142857L57.59285714285714,8.192857142857143L57.378571428571426,8.192857142857143L57.378571428571426,7.978571428571428L57.16428571428572,7.978571428571428L57.16428571428572,7.764285714285714L56.95,7.764285714285714L56.95,7.5L57.05,7.5L57.05,7.664285714285715L57.26428571428571,7.664285714285715L57.26428571428571,7.878571428571428L57.47857142857142,7.878571428571428L57.47857142857142,8.092857142857142L57.692857142857136,8.092857142857142L57.692857142857136,8.521428571428569L57.90714285714285,8.521428571428569L57.90714285714285,8.735714285714284L58.12142857142857,8.735714285714284L58.12142857142857,9.378571428571426L58.878571428571426,9.378571428571426L58.878571428571426,9.164285714285715L59.09285714285714,9.164285714285715L59.09285714285714,8.735714285714284L59.30714285714286,8.735714285714284L59.30714285714286,4.121428571428571L53.62142857142857,4.121428571428571L53.62142857142857,4.335714285714285L53.40714285714285,4.335714285714285L53.40714285714285,4.55L52.5,4.55L52.5,4.45L53.30714285714286,4.45L53.30714285714286,4.235714285714286L53.52142857142857,4.235714285714286L53.52142857142857,4.021428571428571z" stroke="none"/><path d="M36.37857142857143,8.521428571428569L36.37857142857143,8.307142857142857L47.83571428571428,8.307142857142857L47.83571428571428,8.521428571428569L48.05,8.521428571428569L48.05,8.95L48.692857142857136,8.95L48.692857142857136,9.164285714285715L49.12142857142857,9.164285714285715L49.12142857142857,9.378571428571426L55.878571428571426,9.378571428571426L55.878571428571426,9.164285714285715L56.95,9.164285714285715L56.95,9L57.05,9L57.05,9.264285714285716L55.97857142857142,9.264285714285716L55.97857142857142,9.478571428571428L49.02142857142857,9.478571428571428L49.02142857142857,9.264285714285716L48.59285714285714,9.264285714285716L48.59285714285714,9.05L47.95,9.05L47.95,8.62142857142857L47.73571428571429,8.62142857142857L47.73571428571429,8.407142857142858L36.47857142857143,8.407142857142858L36.47857142857143,8.521428571428569L43.97857142857143,8.521428571428569L43.97857142857143,8.95L44.62142857142857,8.95L44.62142857142857,9.378571428571426L45.26428571428571,9.378571428571426L45.26428571428571,9.592857142857142L45.47857142857143,9.592857142857142L45.47857142857143,9.807142857142857L46.33571428571428,9.807142857142857L46.33571428571428,10.021428571428569L46.55,10.021428571428569L46.55,10.45L47.192857142857136,10.45L47.192857142857136,11.092857142857142L47.62142857142857,11.092857142857142L47.62142857142857,11.521428571428569L48.692857142857136,11.521428571428569L48.692857142857136,11.735714285714284L49.33571428571428,11.735714285714284L49.33571428571428,11.95L49.5,11.95L49.5,12.05L49.23571428571429,12.05L49.23571428571429,11.835714285714285L48.59285714285714,11.835714285714285L48.59285714285714,11.62142857142857L47.52142857142857,11.62142857142857L47.52142857142857,11.192857142857143L47.09285714285714,11.192857142857143L47.09285714285714,10.55L46.45,10.55L46.45,10.12142857142857L46.23571428571429,10.12142857142857L46.23571428571429,9.907142857142858L45.37857142857143,9.907142857142858L45.37857142857143,9.692857142857143L45.16428571428572,9.692857142857143L45.16428571428572,9.478571428571428L44.52142857142857,9.478571428571428L44.52142857142857,9.05L43.87857142857143,9.05L43.87857142857143,8.62142857142857L36.47857142857143,8.62142857142857L36.47857142857143,9.907142857142858L34.55,9.907142857142858L34.55,10.12142857142857L32.62142857142857,10.12142857142857L32.62142857142857,10.978571428571428L32.192857142857136,10.978571428571428L32.192857142857136,11.407142857142858L31.978571428571428,11.407142857142858L31.978571428571428,12.05L28.5,12.05L28.5,11.95L31.878571428571426,11.95L31.878571428571426,11.307142857142857L32.09285714285714,11.307142857142857L32.09285714285714,10.878571428571426L32.52142857142857,10.878571428571426L32.52142857142857,10.021428571428569L34.45,10.021428571428569L34.45,9.807142857142857L36.37857142857143,9.807142857142857L36.37857142857143,8.62142857142857L20.621428571428574,8.62142857142857L20.621428571428574,9.05L20.192857142857143,9.05L20.192857142857143,9.478571428571428L19.764285714285716,9.478571428571428L19.764285714285716,10.12142857142857L19.55,10.12142857142857L19.55,10.5L19.45,10.5L19.45,10.021428571428569L19.664285714285715,10.021428571428569L19.664285714285715,9.378571428571426L20.09285714285714,9.378571428571426L20.09285714285714,8.95L20.521428571428572,8.95L20.521428571428572,8.521428571428569z" stroke="none"/><path d="M62.95,1.8785714285714286L62.95,1.6642857142857144L85.12142857142855,1.6642857142857144L85.12142857142855,1.8785714285714286L85.33571428571427,1.8785714285714286L85.33571428571427,2.092857142857143L85.54999999999998,2.092857142857143L85.54999999999998,2.521428571428572L85.7642857142857,2.521428571428572L85.7642857142857,2.7357142857142858L85.97857142857141,2.7357142857142858L85.97857142857141,3.1642857142857146L86.19285714285714,3.1642857142857146L86.19285714285714,3.8071428571428574L86.62142857142855,3.8071428571428574L86.62142857142855,4.021428571428571L87.04999999999998,4.021428571428571L87.04999999999998,4.45L87.47857142857141,4.45L87.47857142857141,4.664285714285715L87.69285714285714,4.664285714285715L87.69285714285714,5.307142857142857L88.33571428571427,5.307142857142857L88.33571428571427,5.735714285714286L88.54999999999998,5.735714285714286L88.54999999999998,6L88.44999999999999,6L88.44999999999999,5.835714285714285L88.23571428571428,5.835714285714285L88.23571428571428,5.407142857142857L87.59285714285714,5.407142857142857L87.59285714285714,4.764285714285714L87.37857142857142,4.764285714285714L87.37857142857142,4.55L86.94999999999999,4.55L86.94999999999999,4.121428571428571L86.52142857142856,4.121428571428571L86.52142857142856,3.907142857142857L86.09285714285714,3.907142857142857L86.09285714285714,3.2642857142857142L85.87857142857142,3.2642857142857142L85.87857142857142,2.8357142857142854L85.66428571428571,2.8357142857142854L85.66428571428571,2.6214285714285714L85.44999999999999,2.6214285714285714L85.44999999999999,2.1928571428571426L85.23571428571428,2.1928571428571426L85.23571428571428,1.9785714285714286L85.02142857142856,1.9785714285714286L85.02142857142856,1.7642857142857145L63.05,1.7642857142857145L63.05,1.8785714285714286L82.54999999999998,1.8785714285714286L82.54999999999998,2.092857142857143L83.19285714285714,2.092857142857143L83.19285714285714,2.7357142857142858L84.04999999999998,2.7357142857142858L84.04999999999998,3L83.94999999999999,3L83.94999999999999,2.8357142857142854L83.09285714285714,2.8357142857142854L83.09285714285714,2.1928571428571426L82.44999999999999,2.1928571428571426L82.44999999999999,1.9785714285714286L63.05,1.9785714285714286L63.05,2.1928571428571426L54.90714285714285,2.1928571428571426L54.90714285714285,2.6214285714285714L54.692857142857136,2.6214285714285714L54.692857142857136,2.8357142857142854L52.33571428571428,2.8357142857142854L52.33571428571428,3.05L49.97857142857142,3.05L49.97857142857142,3.2642857142857142L40.55,3.2642857142857142L40.55,3.907142857142857L39.90714285714285,3.907142857142857L39.90714285714285,4.335714285714285L39.47857142857143,4.335714285714285L39.47857142857143,4.55L39,4.55L39,4.45L39.37857142857143,4.45L39.37857142857143,4.235714285714286L39.80714285714286,4.235714285714286L39.80714285714286,3.8071428571428574L40.45,3.8071428571428574L40.45,3.1642857142857146L49.878571428571426,3.1642857142857146L49.878571428571426,2.95L52.23571428571429,2.95L52.23571428571429,2.7357142857142858L54.59285714285714,2.7357142857142858L54.59285714285714,2.521428571428572L54.80714285714286,2.521428571428572L54.80714285714286,2.092857142857143L62.95,2.092857142857143L62.95,1.9785714285714286L49.55,1.9785714285714286L49.55,3L49.45,3L49.45,1.8785714285714286z" stroke="none"/><path d="M95.99999999999999,3.05L95.99999999999999,2.95L97.49999999999999,2.95L97.49999999999999,3.05z" stroke="none"/><path d="M25.55,12L25.45,12L25.45,10.5L25.55,10.5z" stroke="none"/><path d="M34.5,2.95L34.5,3.05L33,3.05L33,2.95z" stroke="none"/><path d="M15,11.95L15,12.05L13.5,12.05L13.5,11.95z" stroke="none"/><path d="M6,4.45L6,4.55L4.5,4.55L4.5,4.45z" stroke="none"/><path d="M7.5,12.05L7.5,11.95L9,11.95L9,12.05z" stroke="none"/><path d="M45.05,10.5L44.95,10.5L44.95,9.692857142857143L44.30714285714286,9.692857142857143L44.30714285714286,9.478571428571428L43.45,9.478571428571428L43.45,9L43.55,9L43.55,9.378571428571426L44.40714285714285,9.378571428571426L44.40714285714285,9.592857142857142L45.05,9.592857142857142z" stroke="none"/><path d="M67.49999999999999,4.55L67.49999999999999,4.45L70.49999999999999,4.45L70.49999999999999,4.55z" stroke="none"/><path d="M102.04999999999998,10.5L101.94999999999999,10.5L101.94999999999999,9.692857142857143L101.52142857142856,9.692857142857143L101.52142857142856,9.264285714285716L101.30714285714285,9.264285714285716L101.30714285714285,8.62142857142857L101.09285714285713,8.62142857142857L101.09285714285713,8.407142857142858L100.87857142857142,8.407142857142858L100.87857142857142,7.978571428571428L100.66428571428571,7.978571428571428L100.66428571428571,7.764285714285714L100.44999999999999,7.764285714285714L100.44999999999999,7.5L100.54999999999998,7.5L100.54999999999998,7.664285714285715L100.7642857142857,7.664285714285715L100.7642857142857,7.878571428571428L100.97857142857141,7.878571428571428L100.97857142857141,8.307142857142857L101.19285714285712,8.307142857142857L101.19285714285712,8.521428571428569L101.40714285714284,8.521428571428569L101.40714285714284,9.164285714285715L101.62142857142855,9.164285714285715L101.62142857142855,9.592857142857142L102.04999999999998,9.592857142857142z" stroke="none"/><path d="M4.5,6.05L4.5,5.95L4.664285714285715,5.95L4.664285714285715,5.307142857142857L5.521428571428571,5.307142857142857L5.521428571428571,5.0928571428571425L6.378571428571428,5.0928571428571425L6.378571428571428,4.878571428571429L6.5928571428571425,4.878571428571429L6.5928571428571425,4.664285714285715L7.45,4.664285714285715L7.45,4.5L7.55,4.5L7.55,4.764285714285714L6.692857142857142,4.764285714285714L6.692857142857142,4.978571428571429L6.478571428571428,4.978571428571429L6.478571428571428,5.192857142857142L5.621428571428571,5.192857142857142L5.621428571428571,5.407142857142857L4.764285714285714,5.407142857142857L4.764285714285714,6.05z" stroke="none"/><path d="M65.99999999999999,7.45L65.99999999999999,7.55L65.83571428571427,7.55L65.83571428571427,7.764285714285714L65.62142857142855,7.764285714285714L65.62142857142855,7.978571428571428L65.40714285714284,7.978571428571428L65.40714285714284,8.835714285714285L64.97857142857141,8.835714285714285L64.97857142857141,9.05L64.54999999999998,9.05L64.54999999999998,9.907142857142858L64.12142857142857,9.907142857142858L64.12142857142857,10.878571428571426L69.37857142857142,10.878571428571426L69.37857142857142,10.45L70.49999999999999,10.45L70.49999999999999,10.55L69.47857142857141,10.55L69.47857142857141,10.978571428571428L64.02142857142857,10.978571428571428L64.02142857142857,9.807142857142857L64.44999999999999,9.807142857142857L64.44999999999999,8.95L64.87857142857142,8.95L64.87857142857142,8.735714285714284L65.30714285714285,8.735714285714284L65.30714285714285,7.878571428571428L65.52142857142856,7.878571428571428L65.52142857142856,7.664285714285715L65.73571428571428,7.664285714285715L65.73571428571428,7.45z" stroke="none"/><path d="M92.99999999999999,10.55L92.99999999999999,10.45L98.19285714285712,10.45L98.19285714285712,10.664285714285715L98.83571428571427,10.664285714285715L98.83571428571427,10.878571428571426L99.2642857142857,10.878571428571426L99.2642857142857,11.092857142857142L99.90714285714284,11.092857142857142L99.90714285714284,11.95L100.49999999999999,11.95L100.49999999999999,12.05L99.80714285714285,12.05L99.80714285714285,11.192857142857143L99.16428571428571,11.192857142857143L99.16428571428571,10.978571428571428L98.73571428571428,10.978571428571428L98.73571428571428,10.764285714285716L98.09285714285713,10.764285714285716L98.09285714285713,10.55z" stroke="none"/><path d="M83.99999999999999,7.45L83.99999999999999,7.55L74.99999999999999,7.55L74.99999999999999,7.45z" stroke="none"/><path d="M18,12.05L18,11.95L24.05,11.95L24.05,12.164285714285715L24.478571428571428,12.164285714285715L24.478571428571428,12.378571428571426L26.735714285714284,12.378571428571426L26.735714285714284,12.164285714285715L26.95,12.164285714285715L26.95,12L27.05,12L27.05,12.264285714285716L26.835714285714285,12.264285714285716L26.835714285714285,12.478571428571428L24.378571428571426,12.478571428571428L24.378571428571426,12.264285714285716L23.95,12.264285714285716L23.95,12.05z" stroke="none"/><path d="M55.5,7.45L55.5,7.55L47.52142857142857,7.55L47.52142857142857,7.335714285714285L47.30714285714286,7.335714285714285L47.30714285714286,6.692857142857142L46.878571428571426,6.692857142857142L46.878571428571426,6.264285714285714L46.66428571428572,6.264285714285714L46.66428571428572,6.05L46.5,6.05L46.5,5.95L46.76428571428571,5.95L46.76428571428571,6.164285714285715L46.97857142857142,6.164285714285715L46.97857142857142,6.5928571428571425L47.40714285714285,6.5928571428571425L47.40714285714285,7.235714285714286L47.62142857142857,7.235714285714286L47.62142857142857,7.45z" stroke="none"/><path d="M85.49999999999999,10.45L85.49999999999999,10.55L71.99999999999999,10.55L71.99999999999999,10.45z" stroke="none"/><path d="M92.99999999999999,8.95L92.99999999999999,9.05L91.97857142857141,9.05L91.97857142857141,9.264285714285716L91.7642857142857,9.264285714285716L91.7642857142857,9.478571428571428L91.54999999999998,9.478571428571428L91.54999999999998,9.907142857142858L91.33571428571427,9.907142857142858L91.33571428571427,10.12142857142857L91.12142857142855,10.12142857142857L91.12142857142855,10.335714285714285L90.90714285714284,10.335714285714285L90.90714285714284,10.55L90.69285714285714,10.55L90.69285714285714,10.764285714285716L90.47857142857141,10.764285714285716L90.47857142857141,10.978571428571428L86.52142857142856,10.978571428571428L86.52142857142856,10.335714285714285L86.30714285714285,10.335714285714285L86.30714285714285,10.12142857142857L80.52142857142856,10.12142857142857L80.52142857142856,9.692857142857143L80.30714285714285,9.692857142857143L80.30714285714285,9.478571428571428L79.87857142857142,9.478571428571428L79.87857142857142,9.264285714285716L79.44999999999999,9.264285714285716L79.44999999999999,9L79.54999999999998,9L79.54999999999998,9.164285714285715L79.97857142857141,9.164285714285715L79.97857142857141,9.378571428571426L80.40714285714284,9.378571428571426L80.40714285714284,9.592857142857142L80.62142857142855,9.592857142857142L80.62142857142855,10.021428571428569L86.40714285714284,10.021428571428569L86.40714285714284,10.235714285714284L86.62142857142855,10.235714285714284L86.62142857142855,10.878571428571426L90.37857142857142,10.878571428571426L90.37857142857142,10.664285714285715L90.59285714285714,10.664285714285715L90.59285714285714,10.45L90.80714285714285,10.45L90.80714285714285,10.235714285714284L91.02142857142856,10.235714285714284L91.02142857142856,10.021428571428569L91.23571428571428,10.021428571428569L91.23571428571428,9.807142857142857L91.44999999999999,9.807142857142857L91.44999999999999,9.378571428571426L91.66428571428571,9.378571428571426L91.66428571428571,9.164285714285715L91.87857142857142,9.164285714285715L91.87857142857142,8.95z" stroke="none"/><path d="M101.99999999999999,2.95L101.99999999999999,3.05L99.04999999999998,3.05L99.04999999999998,3.2642857142857142L97.97857142857141,3.2642857142857142L97.97857142857141,3.478571428571428L89.62142857142855,3.478571428571428L89.62142857142855,3.907142857142857L89.19285714285714,3.907142857142857L89.19285714285714,4.335714285714285L88.54999999999998,4.335714285714285L88.54999999999998,4.5L88.44999999999999,4.5L88.44999999999999,4.235714285714286L89.09285714285714,4.235714285714286L89.09285714285714,3.8071428571428574L89.52142857142856,3.8071428571428574L89.52142857142856,3.3785714285714286L97.87857142857142,3.3785714285714286L97.87857142857142,3.1642857142857146L98.94999999999999,3.1642857142857146L98.94999999999999,2.95z" stroke="none"/><path d="M87.04999999999998,10.5L86.94999999999999,10.5L86.94999999999999,9.478571428571428L86.73571428571428,9.478571428571428L86.73571428571428,9.264285714285716L83.30714285714285,9.264285714285716L83.30714285714285,9.05L80.73571428571428,9.05L80.73571428571428,8.835714285714285L80.52142857142856,8.835714285714285L80.52142857142856,8.62142857142857L74.62142857142855,8.62142857142857L74.62142857142855,9.05L73.49999999999999,9.05L73.49999999999999,8.95L74.52142857142856,8.95L74.52142857142856,8.521428571428569L80.62142857142855,8.521428571428569L80.62142857142855,8.735714285714284L80.83571428571427,8.735714285714284L80.83571428571427,8.95L83.40714285714284,8.95L83.40714285714284,9.164285714285715L86.83571428571427,9.164285714285715L86.83571428571427,9.378571428571426L87.04999999999998,9.378571428571426z" stroke="none"/><path d="M62.95,7.5L63.05,7.5L63.05,11.092857142857142L91.66428571428571,11.092857142857142L91.66428571428571,10.021428571428569L92.09285714285713,10.021428571428569L92.09285714285713,9.592857142857142L92.94999999999999,9.592857142857142L92.94999999999999,9.378571428571426L93.37857142857142,9.378571428571426L93.37857142857142,8.62142857142857L87.37857142857142,8.62142857142857L87.37857142857142,8.192857142857143L86.94999999999999,8.192857142857143L86.94999999999999,7.978571428571428L86.30714285714285,7.978571428571428L86.30714285714285,7.764285714285714L86.09285714285714,7.764285714285714L86.09285714285714,7.55L85.02142857142856,7.55L85.02142857142856,7.335714285714285L84.80714285714285,7.335714285714285L84.80714285714285,7.121428571428571L78.80714285714285,7.121428571428571L78.80714285714285,6.907142857142857L78.16428571428571,6.907142857142857L78.16428571428571,6.478571428571428L77.94999999999999,6.478571428571428L77.94999999999999,6.05L77.73571428571428,6.05L77.73571428571428,5.835714285714285L76.66428571428571,5.835714285714285L76.66428571428571,4.55L76.49999999999999,4.55L76.49999999999999,4.45L76.7642857142857,4.45L76.7642857142857,5.735714285714286L77.83571428571427,5.735714285714286L77.83571428571427,5.95L78.04999999999998,5.95L78.04999999999998,6.378571428571428L78.2642857142857,6.378571428571428L78.2642857142857,6.807142857142857L78.90714285714284,6.807142857142857L78.90714285714284,7.021428571428571L84.90714285714284,7.021428571428571L84.90714285714284,7.235714285714286L85.12142857142855,7.235714285714286L85.12142857142855,7.45L86.19285714285714,7.45L86.19285714285714,7.664285714285715L86.40714285714284,7.664285714285715L86.40714285714284,7.878571428571428L87.04999999999998,7.878571428571428L87.04999999999998,8.092857142857142L87.47857142857141,8.092857142857142L87.47857142857141,8.521428571428569L93.47857142857141,8.521428571428569L93.47857142857141,9.478571428571428L93.04999999999998,9.478571428571428L93.04999999999998,9.692857142857143L92.19285714285712,9.692857142857143L92.19285714285712,10.12142857142857L91.7642857142857,10.12142857142857L91.7642857142857,11.192857142857143L62.95,11.192857142857143z" stroke="none"/><path d="M33,11.95L33,12.05L32.192857142857136,12.05L32.192857142857136,12.264285714285716L28.978571428571428,12.264285714285716L28.978571428571428,12.478571428571428L27.692857142857143,12.478571428571428L27.692857142857143,12.692857142857143L13.021428571428569,12.692857142857143L13.021428571428569,11.835714285714285L12.378571428571426,11.835714285714285L12.378571428571426,10.978571428571428L12.164285714285715,10.978571428571428L12.164285714285715,10.55L11.307142857142857,10.55L11.307142857142857,10.12142857142857L11.092857142857142,10.12142857142857L11.092857142857142,9.907142857142858L10.021428571428569,9.907142857142858L10.021428571428569,8.521428571428569L10.878571428571426,8.521428571428569L10.878571428571426,8.307142857142857L11.092857142857142,8.307142857142857L11.092857142857142,8.092857142857142L11.735714285714284,8.092857142857142L11.735714285714284,7.878571428571428L11.95,7.878571428571428L11.95,7.664285714285715L14.95,7.664285714285715L14.95,7.5L15.05,7.5L15.05,7.764285714285714L12.05,7.764285714285714L12.05,7.978571428571428L11.835714285714285,7.978571428571428L11.835714285714285,8.192857142857143L11.192857142857143,8.192857142857143L11.192857142857143,8.407142857142858L10.978571428571428,8.407142857142858L10.978571428571428,8.62142857142857L10.12142857142857,8.62142857142857L10.12142857142857,9.807142857142857L11.192857142857143,9.807142857142857L11.192857142857143,10.021428571428569L11.407142857142858,10.021428571428569L11.407142857142858,10.45L12.264285714285716,10.45L12.264285714285716,10.878571428571426L12.478571428571428,10.878571428571426L12.478571428571428,11.735714285714284L13.12142857142857,11.735714285714284L13.12142857142857,12.592857142857142L27.59285714285714,12.592857142857142L27.59285714285714,12.378571428571426L28.878571428571426,12.378571428571426L28.878571428571426,12.164285714285715L32.09285714285714,12.164285714285715L32.09285714285714,11.95z" stroke="none"/><path d="M27,3.05L27,2.95L28.978571428571428,2.95L28.978571428571428,3.1642857142857146L29.62142857142857,3.1642857142857146L29.62142857142857,3.3785714285714286L30.378571428571426,3.3785714285714286L30.378571428571426,2.6214285714285714L29.307142857142857,2.6214285714285714L29.307142857142857,2.407142857142857L29.09285714285714,2.407142857142857L29.09285714285714,2.1928571428571426L7.978571428571428,2.1928571428571426L7.978571428571428,2.407142857142857L7.55,2.407142857142857L7.55,3L7.45,3L7.45,2.3071428571428574L7.878571428571428,2.3071428571428574L7.878571428571428,2.092857142857143L29.192857142857143,2.092857142857143L29.192857142857143,2.3071428571428574L29.40714285714286,2.3071428571428574L29.40714285714286,2.521428571428572L30.478571428571428,2.521428571428572L30.478571428571428,3.478571428571428L29.52142857142857,3.478571428571428L29.52142857142857,3.2642857142857142L28.878571428571426,3.2642857142857142L28.878571428571426,3.05z" stroke="none"/><path d="M27,4.55L27,4.45L29.307142857142857,4.45L29.307142857142857,4.021428571428571L30.59285714285714,4.021428571428571L30.59285714285714,2.407142857142857L30.378571428571426,2.407142857142857L30.378571428571426,2.1928571428571426L30.164285714285715,2.1928571428571426L30.164285714285715,1.9785714285714286L5.192857142857142,1.9785714285714286L5.192857142857142,2.407142857142857L4.335714285714285,2.407142857142857L4.335714285714285,2.6214285714285714L3.478571428571428,2.6214285714285714L3.478571428571428,2.8357142857142854L3.2642857142857142,2.8357142857142854L3.2642857142857142,3.05L3.05,3.05L3.05,3.2642857142857142L2.8357142857142854,3.2642857142857142L2.8357142857142854,3.478571428571428L2.6214285714285714,3.478571428571428L2.6214285714285714,5.521428571428571L3.05,5.521428571428571L3.05,6L2.95,6L2.95,5.621428571428571L2.521428571428572,5.621428571428571L2.521428571428572,3.3785714285714286L2.7357142857142858,3.3785714285714286L2.7357142857142858,3.1642857142857146L2.95,3.1642857142857146L2.95,2.95L3.1642857142857146,2.95L3.1642857142857146,2.7357142857142858L3.3785714285714286,2.7357142857142858L3.3785714285714286,2.521428571428572L4.235714285714286,2.521428571428572L4.235714285714286,2.3071428571428574L5.0928571428571425,2.3071428571428574L5.0928571428571425,1.8785714285714286L30.264285714285716,1.8785714285714286L30.264285714285716,2.092857142857143L30.478571428571428,2.092857142857143L30.478571428571428,2.3071428571428574L30.692857142857143,2.3071428571428574L30.692857142857143,4.121428571428571L29.40714285714286,4.121428571428571L29.40714285714286,4.55z" stroke="none"/><path d="M16.5,5.95L16.5,6.05L14.407142857142858,6.05L14.407142857142858,6.478571428571428L11.835714285714285,6.478571428571428L11.835714285714285,6.907142857142857L10.55,6.907142857142857L10.55,7.55L10.335714285714285,7.55L10.335714285714285,8.192857142857143L10.12142857142857,8.192857142857143L10.12142857142857,8.407142857142858L9.907142857142858,8.407142857142858L9.907142857142858,10.45L10.12142857142857,10.45L10.12142857142857,10.664285714285715L10.55,10.664285714285715L10.55,10.878571428571426L11.407142857142858,10.878571428571426L11.407142857142858,11.092857142857142L11.62142857142857,11.092857142857142L11.62142857142857,11.307142857142857L11.835714285714285,11.307142857142857L11.835714285714285,11.521428571428569L12.264285714285716,11.521428571428569L12.264285714285716,11.95L12.692857142857143,11.95L12.692857142857143,12.592857142857142L12.907142857142858,12.592857142857142L12.907142857142858,12.807142857142857L38.95,12.807142857142857L38.95,12.592857142857142L39.16428571428572,12.592857142857142L39.16428571428572,11.735714285714284L39.37857142857143,11.735714285714284L39.37857142857143,11.521428571428569L40.45,11.521428571428569L40.45,11.307142857142857L40.66428571428572,11.307142857142857L40.66428571428572,10.878571428571426L40.87857142857143,10.878571428571426L40.87857142857143,10.664285714285715L41.95,10.664285714285715L41.95,10.5L42.05,10.5L42.05,10.764285714285716L40.97857142857143,10.764285714285716L40.97857142857143,10.978571428571428L40.76428571428571,10.978571428571428L40.76428571428571,11.407142857142858L40.55,11.407142857142858L40.55,11.62142857142857L39.47857142857143,11.62142857142857L39.47857142857143,11.835714285714285L39.26428571428571,11.835714285714285L39.26428571428571,12.692857142857143L39.05,12.692857142857143L39.05,12.907142857142858L12.807142857142857,12.907142857142858L12.807142857142857,12.692857142857143L12.592857142857142,12.692857142857143L12.592857142857142,12.05L12.164285714285715,12.05L12.164285714285715,11.62142857142857L11.735714285714284,11.62142857142857L11.735714285714284,11.407142857142858L11.521428571428569,11.407142857142858L11.521428571428569,11.192857142857143L11.307142857142857,11.192857142857143L11.307142857142857,10.978571428571428L10.45,10.978571428571428L10.45,10.764285714285716L10.021428571428569,10.764285714285716L10.021428571428569,10.55L9.807142857142857,10.55L9.807142857142857,8.307142857142857L10.021428571428569,8.307142857142857L10.021428571428569,8.092857142857142L10.235714285714284,8.092857142857142L10.235714285714284,7.45L10.45,7.45L10.45,6.807142857142857L11.735714285714284,6.807142857142857L11.735714285714284,6.378571428571428L14.307142857142857,6.378571428571428L14.307142857142857,5.95z" stroke="none"/><path d="M64.49999999999999,12.05L64.49999999999999,11.95L86.30714285714285,11.95L86.30714285714285,11.735714285714284L86.52142857142856,11.735714285714284L86.52142857142856,11.521428571428569L92.83571428571427,11.521428571428569L92.83571428571427,11.735714285714284L95.19285714285712,11.735714285714284L95.19285714285712,11.95L95.99999999999999,11.95L95.99999999999999,12.05L95.09285714285713,12.05L95.09285714285713,11.835714285714285L92.73571428571428,11.835714285714285L92.73571428571428,11.62142857142857L86.62142857142855,11.62142857142857L86.62142857142855,11.835714285714285L86.40714285714284,11.835714285714285L86.40714285714284,12.05z" stroke="none"/><path d="M54,12.05L54,11.95L57.05,11.95L57.05,12.164285714285715L58.12142857142857,12.164285714285715L58.12142857142857,12.378571428571426L84.80714285714285,12.378571428571426L84.80714285714285,12.164285714285715L86.73571428571428,12.164285714285715L86.73571428571428,11.95L86.99999999999999,11.95L86.99999999999999,12.05L86.83571428571427,12.05L86.83571428571427,12.264285714285716L84.90714285714284,12.264285714285716L84.90714285714284,12.478571428571428L58.02142857142857,12.478571428571428L58.02142857142857,12.264285714285716L56.95,12.264285714285716L56.95,12.05z" stroke="none"/><path d="M40.5,11.95L40.5,12.05L39.47857142857143,12.05L39.47857142857143,13.12142857142857L10.45,13.12142857142857L10.45,12.264285714285716L9.807142857142857,12.264285714285716L9.807142857142857,11.835714285714285L9.378571428571426,11.835714285714285L9.378571428571426,11.62142857142857L8.95,11.62142857142857L8.95,10.335714285714285L8.521428571428569,10.335714285714285L8.521428571428569,10.12142857142857L8.307142857142857,10.12142857142857L8.307142857142857,9.264285714285716L7.664285714285715,9.264285714285716L7.664285714285715,9.05L7.5,9.05L7.5,8.95L7.764285714285714,8.95L7.764285714285714,9.164285714285715L8.407142857142858,9.164285714285715L8.407142857142858,10.021428571428569L8.62142857142857,10.021428571428569L8.62142857142857,10.235714285714284L9.05,10.235714285714284L9.05,11.521428571428569L9.478571428571428,11.521428571428569L9.478571428571428,11.735714285714284L9.907142857142858,11.735714285714284L9.907142857142858,12.164285714285715L10.55,12.164285714285715L10.55,13.021428571428569L39.37857142857143,13.021428571428569L39.37857142857143,11.95z" stroke="none"/><path d="M94.44999999999999,4.5L94.54999999999998,4.5L94.54999999999998,9.478571428571428L94.33571428571427,9.478571428571428L94.33571428571427,9.692857142857143L93.47857142857141,9.692857142857143L93.47857142857141,9.907142857142858L92.62142857142855,9.907142857142858L92.62142857142855,10.978571428571428L92.40714285714284,10.978571428571428L92.40714285714284,11.192857142857143L92.19285714285712,11.192857142857143L92.19285714285712,11.407142857142858L62.73571428571429,11.407142857142858L62.73571428571429,10.335714285714285L62.52142857142857,10.335714285714285L62.52142857142857,10.12142857142857L62.30714285714286,10.12142857142857L62.30714285714286,9.907142857142858L62.09285714285714,9.907142857142858L62.09285714285714,9.692857142857143L61.66428571428572,9.692857142857143L61.66428571428572,9.05L61.5,9.05L61.5,8.95L61.76428571428571,8.95L61.76428571428571,9.592857142857142L62.192857142857136,9.592857142857142L62.192857142857136,9.807142857142857L62.40714285714285,9.807142857142857L62.40714285714285,10.021428571428569L62.62142857142857,10.021428571428569L62.62142857142857,10.235714285714284L62.83571428571428,10.235714285714284L62.83571428571428,11.307142857142857L92.09285714285713,11.307142857142857L92.09285714285713,11.092857142857142L92.30714285714285,11.092857142857142L92.30714285714285,10.878571428571426L92.52142857142856,10.878571428571426L92.52142857142856,9.807142857142857L93.37857142857142,9.807142857142857L93.37857142857142,9.592857142857142L94.23571428571428,9.592857142857142L94.23571428571428,9.378571428571426L94.44999999999999,9.378571428571426z" stroke="none"/><path d="M58.5,11.95L58.5,12.05L57.16428571428572,12.05L57.16428571428572,11.835714285714285L54.378571428571426,11.835714285714285L54.378571428571426,11.62142857142857L53.62142857142857,11.62142857142857L53.62142857142857,12.378571428571426L57.90714285714285,12.378571428571426L57.90714285714285,12.592857142857142L100.66428571428571,12.592857142857142L100.66428571428571,12.378571428571426L100.87857142857142,12.378571428571426L100.87857142857142,11.62142857142857L100.66428571428571,11.62142857142857L100.66428571428571,11.192857142857143L100.23571428571428,11.192857142857143L100.23571428571428,10.978571428571428L99.59285714285713,10.978571428571428L99.59285714285713,10.764285714285716L99.16428571428571,10.764285714285716L99.16428571428571,10.55L98.30714285714285,10.55L98.30714285714285,10.335714285714285L97.87857142857142,10.335714285714285L97.87857142857142,9.05L97.49999999999999,9.05L97.49999999999999,8.95L97.97857142857141,8.95L97.97857142857141,10.235714285714284L98.40714285714284,10.235714285714284L98.40714285714284,10.45L99.2642857142857,10.45L99.2642857142857,10.664285714285715L99.69285714285712,10.664285714285715L99.69285714285712,10.878571428571426L100.33571428571427,10.878571428571426L100.33571428571427,11.092857142857142L100.7642857142857,11.092857142857142L100.7642857142857,11.521428571428569L100.97857142857141,11.521428571428569L100.97857142857141,12.478571428571428L100.7642857142857,12.478571428571428L100.7642857142857,12.692857142857143L57.80714285714286,12.692857142857143L57.80714285714286,12.478571428571428L53.52142857142857,12.478571428571428L53.52142857142857,11.521428571428569L54.47857142857142,11.521428571428569L54.47857142857142,11.735714285714284L57.26428571428571,11.735714285714284L57.26428571428571,11.95z" stroke="none"/><path d="M30,4.55L30,4.45L38.52142857142857,4.45L38.52142857142857,4.021428571428571L39.37857142857143,4.021428571428571L39.37857142857143,3.592857142857143L39.59285714285714,3.592857142857143L39.59285714285714,3.3785714285714286L39.80714285714286,3.3785714285714286L39.80714285714286,2.95L48.16428571428572,2.95L48.16428571428572,2.7357142857142858L48.378571428571426,2.7357142857142858L48.378571428571426,2.3071428571428574L49.02142857142857,2.3071428571428574L49.02142857142857,1.8785714285714286L49.23571428571429,1.8785714285714286L49.23571428571429,1.6642857142857144L62.73571428571429,1.6642857142857144L62.73571428571429,1.45L85.7642857142857,1.45L85.7642857142857,2.3071428571428574L85.97857142857141,2.3071428571428574L85.97857142857141,2.521428571428572L86.19285714285714,2.521428571428572L86.19285714285714,2.95L86.83571428571427,2.95L86.83571428571427,3.1642857142857146L87.2642857142857,3.1642857142857146L87.2642857142857,3.3785714285714286L87.47857142857141,3.3785714285714286L87.47857142857141,3.8071428571428574L87.90714285714284,3.8071428571428574L87.90714285714284,4.664285714285715L88.12142857142855,4.664285714285715L88.12142857142855,4.878571428571429L90.37857142857142,4.878571428571429L90.37857142857142,4.664285714285715L90.59285714285714,4.664285714285715L90.59285714285714,4.45L90.80714285714285,4.45L90.80714285714285,4.021428571428571L91.97857142857141,4.021428571428571L91.97857142857141,4.978571428571429L91.33571428571427,4.978571428571429L91.33571428571427,5.407142857142857L90.90714285714284,5.407142857142857L90.90714285714284,5.621428571428571L90.69285714285714,5.621428571428571L90.69285714285714,6.05L90.2642857142857,6.05L90.2642857142857,6.264285714285714L89.83571428571427,6.264285714285714L89.83571428571427,6.478571428571428L89.40714285714284,6.478571428571428L89.40714285714284,6.692857142857142L80.09285714285714,6.692857142857142L80.09285714285714,6.478571428571428L79.02142857142856,6.478571428571428L79.02142857142856,6.05L78.80714285714285,6.05L78.80714285714285,5.407142857142857L78.59285714285714,5.407142857142857L78.59285714285714,4.764285714285714L78.37857142857142,4.764285714285714L78.37857142857142,4.55L76.87857142857142,4.55L76.87857142857142,4.121428571428571L75.69285714285714,4.121428571428571L75.69285714285714,4.335714285714285L75.47857142857141,4.335714285714285L75.47857142857141,4.55L74.99999999999999,4.55L74.99999999999999,4.45L75.37857142857142,4.45L75.37857142857142,4.235714285714286L75.59285714285714,4.235714285714286L75.59285714285714,4.021428571428571L76.97857142857141,4.021428571428571L76.97857142857141,4.45L78.47857142857141,4.45L78.47857142857141,4.664285714285715L78.69285714285714,4.664285714285715L78.69285714285714,5.307142857142857L78.90714285714284,5.307142857142857L78.90714285714284,5.95L79.12142857142855,5.95L79.12142857142855,6.378571428571428L80.19285714285714,6.378571428571428L80.19285714285714,6.5928571428571425L89.30714285714285,6.5928571428571425L89.30714285714285,6.378571428571428L89.73571428571428,6.378571428571428L89.73571428571428,6.164285714285715L90.16428571428571,6.164285714285715L90.16428571428571,5.95L90.59285714285714,5.95L90.59285714285714,5.521428571428571L90.80714285714285,5.521428571428571L90.80714285714285,5.307142857142857L91.23571428571428,5.307142857142857L91.23571428571428,4.878571428571429L91.87857142857142,4.878571428571429L91.87857142857142,4.121428571428571L90.90714285714284,4.121428571428571L90.90714285714284,4.55L90.69285714285714,4.55L90.69285714285714,4.764285714285714L90.47857142857141,4.764285714285714L90.47857142857141,4.978571428571429L88.02142857142856,4.978571428571429L88.02142857142856,4.764285714285714L87.80714285714285,4.764285714285714L87.80714285714285,3.907142857142857L87.37857142857142,3.907142857142857L87.37857142857142,3.478571428571428L87.16428571428571,3.478571428571428L87.16428571428571,3.2642857142857142L86.73571428571428,3.2642857142857142L86.73571428571428,3.05L86.09285714285714,3.05L86.09285714285714,2.6214285714285714L85.87857142857142,2.6214285714285714L85.87857142857142,2.407142857142857L85.66428571428571,2.407142857142857L85.66428571428571,1.55L62.83571428571428,1.55L62.83571428571428,1.7642857142857145L49.33571428571428,1.7642857142857145L49.33571428571428,1.9785714285714286L49.12142857142857,1.9785714285714286L49.12142857142857,2.407142857142857L48.47857142857142,2.407142857142857L48.47857142857142,2.8357142857142854L48.26428571428571,2.8357142857142854L48.26428571428571,3.05L39.90714285714285,3.05L39.90714285714285,3.478571428571428L39.692857142857136,3.478571428571428L39.692857142857136,3.6928571428571426L39.47857142857143,3.6928571428571426L39.47857142857143,4.121428571428571L38.62142857142857,4.121428571428571L38.62142857142857,4.55z" stroke="none"/><path d="M53.95,10.5L54.05,10.5L54.05,10.978571428571428L53.62142857142857,10.978571428571428L53.62142857142857,11.192857142857143L53.40714285714285,11.192857142857143L53.40714285714285,12.592857142857142L56.62142857142857,12.592857142857142L56.62142857142857,12.807142857142857L100.87857142857142,12.807142857142857L100.87857142857142,12.592857142857142L101.30714285714285,12.592857142857142L101.30714285714285,11.735714285714284L101.52142857142856,11.735714285714284L101.52142857142856,11.092857142857142L101.73571428571428,11.092857142857142L101.73571428571428,10.878571428571426L102.37857142857142,10.878571428571426L102.37857142857142,7.978571428571428L102.16428571428571,7.978571428571428L102.16428571428571,7.764285714285714L101.94999999999999,7.764285714285714L101.94999999999999,7.5L102.04999999999998,7.5L102.04999999999998,7.664285714285715L102.2642857142857,7.664285714285715L102.2642857142857,7.878571428571428L102.47857142857141,7.878571428571428L102.47857142857141,10.978571428571428L101.83571428571427,10.978571428571428L101.83571428571427,11.192857142857143L101.62142857142855,11.192857142857143L101.62142857142855,11.835714285714285L101.40714285714284,11.835714285714285L101.40714285714284,12.692857142857143L100.97857142857141,12.692857142857143L100.97857142857141,12.907142857142858L56.52142857142857,12.907142857142858L56.52142857142857,12.692857142857143L53.30714285714286,12.692857142857143L53.30714285714286,11.092857142857142L53.52142857142857,11.092857142857142L53.52142857142857,10.878571428571426L53.95,10.878571428571426z" stroke="none"/><path d="M7.45,10.5L7.55,10.5L7.55,11.62142857142857L7.121428571428571,11.62142857142857L7.121428571428571,12.378571428571426L10.12142857142857,12.378571428571426L10.12142857142857,12.807142857142857L10.335714285714285,12.807142857142857L10.335714285714285,13.235714285714284L49.45,13.235714285714284L49.45,13.021428571428569L49.66428571428572,13.021428571428569L49.66428571428572,12.807142857142857L49.878571428571426,12.807142857142857L49.878571428571426,12.592857142857142L50.73571428571429,12.592857142857142L50.73571428571429,12.378571428571426L51.16428571428572,12.378571428571426L51.16428571428572,12.164285714285715L52.02142857142857,12.164285714285715L52.02142857142857,11.521428571428569L52.23571428571429,11.521428571428569L52.23571428571429,10.664285714285715L52.66428571428572,10.664285714285715L52.66428571428572,10.021428571428569L56.83571428571428,10.021428571428569L56.83571428571428,10.45L57,10.45L57,10.55L56.73571428571429,10.55L56.73571428571429,10.12142857142857L52.76428571428571,10.12142857142857L52.76428571428571,10.764285714285716L52.33571428571428,10.764285714285716L52.33571428571428,11.62142857142857L52.12142857142857,11.62142857142857L52.12142857142857,12.264285714285716L51.26428571428571,12.264285714285716L51.26428571428571,12.478571428571428L50.83571428571428,12.478571428571428L50.83571428571428,12.692857142857143L49.97857142857142,12.692857142857143L49.97857142857142,12.907142857142858L49.76428571428571,12.907142857142858L49.76428571428571,13.12142857142857L49.55,13.12142857142857L49.55,13.335714285714285L10.235714285714284,13.335714285714285L10.235714285714284,12.907142857142858L10.021428571428569,12.907142857142858L10.021428571428569,12.478571428571428L7.021428571428571,12.478571428571428L7.021428571428571,11.521428571428569L7.45,11.521428571428569z" stroke="none"/></svg>