<svg version="1.1" width="105" height="15" xmlns="http://www.w3.org/2000/svg"><path d="M49.45,7.5L49.55,7.5L49.55,9.807142857142857L49.97857142857142,9.807142857142857L49.97857142857142,10.021428571428569L50.192857142857136,10.021428571428569L50.192857142857136,10.235714285714284L50.40714285714285,10.235714285714284L50.40714285714285,10.45L51,10.45L51,10.55L50.30714285714286,10.55L50.30714285714286,10.335714285714285L50.09285714285714,10.335714285714285L50.09285714285714,10.12142857142857L49.878571428571426,10.12142857142857L49.878571428571426,9.907142857142858L49.55,9.907142857142858L49.55,10.978571428571428L49.33571428571428,10.978571428571428L49.33571428571428,11.407142857142858L48.692857142857136,11.407142857142858L48.692857142857136,11.62142857142857L48.26428571428571,11.62142857142857L48.26428571428571,12.05L48,12.05L48,11.95L48.16428571428572,11.95L48.16428571428572,11.521428571428569L48.59285714285714,11.521428571428569L48.59285714285714,11.307142857142857L49.23571428571429,11.307142857142857L49.23571428571429,10.878571428571426L49.45,10.878571428571426z" stroke="none"/><path d="M83.30714285714285,8.95L83.30714285714285,8.835714285714285L75.90714285714284,8.835714285714285L75.90714285714284,9.05L75.2642857142857,9.05L75.2642857142857,9.478571428571428L74.19285714285714,9.478571428571428L74.19285714285714,9.692857142857143L73.7642857142857,9.692857142857143L73.7642857142857,10.335714285714285L73.54999999999998,10.335714285714285L73.54999999999998,10.5L73.44999999999999,10.5L73.44999999999999,10.235714285714284L73.66428571428571,10.235714285714284L73.66428571428571,9.592857142857142L74.09285714285714,9.592857142857142L74.09285714285714,9.378571428571426L75.16428571428571,9.378571428571426L75.16428571428571,8.95L75.80714285714285,8.95L75.80714285714285,8.735714285714284L83.40714285714284,8.735714285714284L83.40714285714284,8.95L83.52142857142856,8.95L83.52142857142856,8.521428571428569L94.23571428571428,8.521428571428569L94.23571428571428,8.092857142857142L94.44999999999999,8.092857142857142L94.44999999999999,7.878571428571428L94.87857142857142,7.878571428571428L94.87857142857142,7.235714285714286L95.09285714285713,7.235714285714286L95.09285714285713,7.021428571428571L95.30714285714285,7.021428571428571L95.30714285714285,6.5928571428571425L95.52142857142856,6.5928571428571425L95.52142857142856,6.378571428571428L95.73571428571428,6.378571428571428L95.73571428571428,5.95L95.99999999999999,5.95L95.99999999999999,6.05L95.83571428571427,6.05L95.83571428571427,6.478571428571428L95.62142857142855,6.478571428571428L95.62142857142855,6.692857142857142L95.40714285714284,6.692857142857142L95.40714285714284,7.121428571428571L95.19285714285712,7.121428571428571L95.19285714285712,7.335714285714285L94.97857142857141,7.335714285714285L94.97857142857141,7.978571428571428L94.54999999999998,7.978571428571428L94.54999999999998,8.192857142857143L94.33571428571427,8.192857142857143L94.33571428571427,8.62142857142857L83.62142857142855,8.62142857142857L83.62142857142855,9.05L81.90714285714284,9.05L81.90714285714284,9.264285714285716L81.69285714285714,9.264285714285716L81.69285714285714,10.12142857142857L81.2642857142857,10.12142857142857L81.2642857142857,10.55L80.99999999999999,10.55L80.99999999999999,10.45L81.16428571428571,10.45L81.16428571428571,10.021428571428569L81.59285714285714,10.021428571428569L81.59285714285714,9.164285714285715L81.80714285714285,9.164285714285715L81.80714285714285,8.95z" stroke="none"/><path d="M95.30714285714285,4.45L95.30714285714285,4.021428571428571L95.94999999999999,4.021428571428571L95.94999999999999,3.8071428571428574L96.37857142857142,3.8071428571428574L96.37857142857142,3.592857142857143L96.80714285714285,3.592857142857143L96.80714285714285,3.3785714285714286L97.23571428571428,3.3785714285714286L97.23571428571428,2.95L97.49999999999999,2.95L97.49999999999999,3.05L97.33571428571427,3.05L97.33571428571427,3.478571428571428L96.90714285714284,3.478571428571428L96.90714285714284,3.6928571428571426L96.47857142857141,3.6928571428571426L96.47857142857141,3.907142857142857L96.04999999999998,3.907142857142857L96.04999999999998,4.121428571428571L95.40714285714284,4.121428571428571L95.40714285714284,4.55L92.19285714285712,4.55L92.19285714285712,4.664285714285715L100.44999999999999,4.664285714285715L100.44999999999999,4.5L100.54999999999998,4.5L100.54999999999998,4.764285714285714L92.09285714285713,4.764285714285714L92.09285714285713,4.55L91.97857142857141,4.55L91.97857142857141,4.978571428571429L81.04999999999998,4.978571428571429L81.04999999999998,5.407142857142857L79.7642857142857,5.407142857142857L79.7642857142857,5.835714285714285L78.04999999999998,5.835714285714285L78.04999999999998,6L77.94999999999999,6L77.94999999999999,5.735714285714286L79.66428571428571,5.735714285714286L79.66428571428571,5.307142857142857L80.94999999999999,5.307142857142857L80.94999999999999,4.878571428571429L91.87857142857142,4.878571428571429L91.87857142857142,4.45z" stroke="none"/><path d="M48.692857142857136,5.95L48.692857142857136,6.164285714285715L49.12142857142857,6.164285714285715L49.12142857142857,6.378571428571428L51.378571428571426,6.378571428571428L51.378571428571426,6.164285714285715L51.59285714285714,6.164285714285715L51.59285714285714,5.95L52.5,5.95L52.5,6.05L51.692857142857136,6.05L51.692857142857136,6.264285714285714L51.47857142857142,6.264285714285714L51.47857142857142,6.478571428571428L49.02142857142857,6.478571428571428L49.02142857142857,6.264285714285714L48.59285714285714,6.264285714285714L48.59285714285714,6.05L46.55,6.05L46.55,6.164285714285715L48.47857142857142,6.164285714285715L48.47857142857142,6.378571428571428L48.90714285714285,6.378571428571428L48.90714285714285,6.5928571428571425L58.12142857142857,6.5928571428571425L58.12142857142857,6.807142857142857L59.83571428571428,6.807142857142857L59.83571428571428,7.021428571428571L60.26428571428571,7.021428571428571L60.26428571428571,7.235714285714286L61.55,7.235714285714286L61.55,7.5L61.45,7.5L61.45,7.335714285714285L60.16428571428572,7.335714285714285L60.16428571428572,7.121428571428571L59.73571428571429,7.121428571428571L59.73571428571429,6.907142857142857L58.02142857142857,6.907142857142857L58.02142857142857,6.692857142857142L48.80714285714286,6.692857142857142L48.80714285714286,6.478571428571428L48.378571428571426,6.478571428571428L48.378571428571426,6.264285714285714L46.45,6.264285714285714L46.45,6.05L35.30714285714286,6.05L35.30714285714286,5.835714285714285L34.87857142857143,5.835714285714285L34.87857142857143,5.621428571428571L26.09285714285714,5.621428571428571L26.09285714285714,5.407142857142857L25.878571428571426,5.407142857142857L25.878571428571426,5.192857142857142L25.664285714285715,5.192857142857142L25.664285714285715,4.55L25.5,4.55L25.5,4.45L25.764285714285716,4.45L25.764285714285716,5.0928571428571425L25.978571428571428,5.0928571428571425L25.978571428571428,5.307142857142857L26.192857142857143,5.307142857142857L26.192857142857143,5.521428571428571L34.97857142857143,5.521428571428571L34.97857142857143,5.735714285714286L35.40714285714285,5.735714285714286L35.40714285714285,5.95z" stroke="none"/><path d="M59.09285714285714,5.0928571428571425L59.09285714285714,4.978571428571429L55.02142857142857,4.978571428571429L55.02142857142857,4.55L54.378571428571426,4.55L54.378571428571426,4.335714285714285L39.59285714285714,4.335714285714285L39.59285714285714,3.907142857142857L39.37857142857143,3.907142857142857L39.37857142857143,3.6928571428571426L39.16428571428572,3.6928571428571426L39.16428571428572,3.05L39,3.05L39,2.95L39.26428571428571,2.95L39.26428571428571,3.592857142857143L39.47857142857143,3.592857142857143L39.47857142857143,3.8071428571428574L39.692857142857136,3.8071428571428574L39.692857142857136,4.235714285714286L54.47857142857142,4.235714285714286L54.47857142857142,4.45L55.12142857142857,4.45L55.12142857142857,4.878571428571429L59.192857142857136,4.878571428571429L59.192857142857136,5.0928571428571425L59.83571428571428,5.0928571428571425L59.83571428571428,5.521428571428571L60.05,5.521428571428571L60.05,6L59.95,6L59.95,5.621428571428571L59.73571428571429,5.621428571428571L59.73571428571429,5.192857142857142L59.192857142857136,5.192857142857142L59.192857142857136,5.307142857142857L59.40714285714285,5.307142857142857L59.40714285714285,5.735714285714286L59.62142857142857,5.735714285714286L59.62142857142857,5.95L59.83571428571428,5.95L59.83571428571428,6.164285714285715L77.40714285714284,6.164285714285715L77.40714285714284,6.378571428571428L82.12142857142855,6.378571428571428L82.12142857142855,6.5928571428571425L82.7642857142857,6.5928571428571425L82.7642857142857,6.807142857142857L83.19285714285714,6.807142857142857L83.19285714285714,7.021428571428571L83.40714285714284,7.021428571428571L83.40714285714284,7.235714285714286L83.62142857142855,7.235714285714286L83.62142857142855,7.45L83.99999999999999,7.45L83.99999999999999,7.55L83.52142857142856,7.55L83.52142857142856,7.335714285714285L83.30714285714285,7.335714285714285L83.30714285714285,7.121428571428571L83.09285714285714,7.121428571428571L83.09285714285714,6.907142857142857L82.66428571428571,6.907142857142857L82.66428571428571,6.692857142857142L82.02142857142856,6.692857142857142L82.02142857142856,6.478571428571428L77.30714285714285,6.478571428571428L77.30714285714285,6.264285714285714L59.73571428571429,6.264285714285714L59.73571428571429,6.05L59.52142857142857,6.05L59.52142857142857,5.835714285714285L59.30714285714286,5.835714285714285L59.30714285714286,5.407142857142857L59.09285714285714,5.407142857142857L59.09285714285714,5.192857142857142L54.80714285714286,5.192857142857142L54.80714285714286,4.764285714285714L54.16428571428572,4.764285714285714L54.16428571428572,4.55L54,4.55L54,4.45L54.26428571428571,4.45L54.26428571428571,4.664285714285715L54.90714285714285,4.664285714285715L54.90714285714285,5.0928571428571425z" stroke="none"/><path d="M31.664285714285715,3.1642857142857146L31.664285714285715,2.95L32.30714285714286,2.95L32.30714285714286,2.7357142857142858L37.45,2.7357142857142858L37.45,2.521428571428572L52.33571428571428,2.521428571428572L52.33571428571428,2.95L52.5,2.95L52.5,3.05L52.23571428571429,3.05L52.23571428571429,2.6214285714285714L37.55,2.6214285714285714L37.55,2.8357142857142854L32.40714285714285,2.8357142857142854L32.40714285714285,3.05L31.764285714285716,3.05L31.764285714285716,3.1642857142857146L32.52142857142857,3.1642857142857146L32.52142857142857,2.95L33,2.95L33,3.05L32.62142857142857,3.05L32.62142857142857,3.2642857142857142L31.764285714285716,3.2642857142857142L31.764285714285716,3.3785714285714286L32.192857142857136,3.3785714285714286L32.192857142857136,3.8071428571428574L32.83571428571428,3.8071428571428574L32.83571428571428,4.021428571428571L33.05,4.021428571428571L33.05,4.5L32.95,4.5L32.95,4.121428571428571L32.73571428571429,4.121428571428571L32.73571428571429,3.907142857142857L32.09285714285714,3.907142857142857L32.09285714285714,3.478571428571428L31.664285714285715,3.478571428571428L31.664285714285715,3.2642857142857142L21.478571428571428,3.2642857142857142L21.478571428571428,3.478571428571428L12.164285714285715,3.478571428571428L12.164285714285715,3.2642857142857142L11.95,3.2642857142857142L11.95,3.05L9,3.05L9,2.95L12.05,2.95L12.05,3.1642857142857146L12.264285714285716,3.1642857142857146L12.264285714285716,3.3785714285714286L21.378571428571426,3.3785714285714286L21.378571428571426,3.1642857142857146z" stroke="none"/><path d="M28.02142857142857,11.092857142857142L28.02142857142857,10.878571428571426L33.47857142857143,10.878571428571426L33.47857142857143,11.307142857142857L34.12142857142857,11.307142857142857L34.12142857142857,11.521428571428569L34.33571428571428,11.521428571428569L34.33571428571428,11.735714285714284L34.55,11.735714285714284L34.55,12L34.45,12L34.45,11.835714285714285L34.23571428571429,11.835714285714285L34.23571428571429,11.62142857142857L34.02142857142857,11.62142857142857L34.02142857142857,11.407142857142858L33.37857142857143,11.407142857142858L33.37857142857143,10.978571428571428L28.12142857142857,10.978571428571428L28.12142857142857,11.092857142857142L29.40714285714286,11.092857142857142L29.40714285714286,11.307142857142857L30.478571428571428,11.307142857142857L30.478571428571428,11.521428571428569L30.692857142857143,11.521428571428569L30.692857142857143,11.735714285714284L30.90714285714286,11.735714285714284L30.90714285714286,11.95L31.5,11.95L31.5,12.05L30.807142857142857,12.05L30.807142857142857,11.835714285714285L30.59285714285714,11.835714285714285L30.59285714285714,11.62142857142857L30.378571428571426,11.62142857142857L30.378571428571426,11.407142857142858L29.307142857142857,11.407142857142858L29.307142857142857,11.192857142857143L28.12142857142857,11.192857142857143L28.12142857142857,11.407142857142858L21.90714285714286,11.407142857142858L21.90714285714286,11.62142857142857L21.05,11.62142857142857L21.05,12L20.95,12L20.95,11.521428571428569L21.807142857142857,11.521428571428569L21.807142857142857,11.307142857142857L28.02142857142857,11.307142857142857L28.02142857142857,11.192857142857143L27.807142857142857,11.192857142857143L27.807142857142857,9.907142857142858L26.735714285714284,9.907142857142858L26.735714285714284,9.692857142857143L26.307142857142857,9.692857142857143L26.307142857142857,9.478571428571428L25.878571428571426,9.478571428571428L25.878571428571426,9.05L25.5,9.05L25.5,8.95L25.978571428571428,8.95L25.978571428571428,9.378571428571426L26.40714285714286,9.378571428571426L26.40714285714286,9.592857142857142L26.835714285714285,9.592857142857142L26.835714285714285,9.807142857142857L27.90714285714286,9.807142857142857L27.90714285714286,11.092857142857142z" stroke="none"/><path d="M61.45,10.021428571428569L61.45,9.807142857142857L73.44999999999999,9.807142857142857L73.44999999999999,9.378571428571426L73.87857142857142,9.378571428571426L73.87857142857142,9.164285714285715L74.52142857142856,9.164285714285715L74.52142857142856,8.95L74.94999999999999,8.95L74.94999999999999,8.735714285714284L75.59285714285714,8.735714285714284L75.59285714285714,8.521428571428569L83.30714285714285,8.521428571428569L83.30714285714285,8.307142857142857L93.80714285714285,8.307142857142857L93.80714285714285,7.878571428571428L94.23571428571428,7.878571428571428L94.23571428571428,7.235714285714286L94.66428571428571,7.235714285714286L94.66428571428571,6.378571428571428L94.87857142857142,6.378571428571428L94.87857142857142,6.164285714285715L95.30714285714285,6.164285714285715L95.30714285714285,5.95L95.52142857142856,5.95L95.52142857142856,5.521428571428571L96.47857142857141,5.521428571428571L96.47857142857141,7.764285714285714L95.40714285714284,7.764285714285714L95.40714285714284,7.978571428571428L95.19285714285712,7.978571428571428L95.19285714285712,8.192857142857143L94.7642857142857,8.192857142857143L94.7642857142857,8.835714285714285L85.7642857142857,8.835714285714285L85.7642857142857,9.05L85.49999999999999,9.05L85.49999999999999,8.95L85.66428571428571,8.95L85.66428571428571,8.735714285714284L94.66428571428571,8.735714285714284L94.66428571428571,8.092857142857142L95.09285714285713,8.092857142857142L95.09285714285713,7.878571428571428L95.30714285714285,7.878571428571428L95.30714285714285,7.664285714285715L96.37857142857142,7.664285714285715L96.37857142857142,5.621428571428571L95.62142857142855,5.621428571428571L95.62142857142855,6.05L95.40714285714284,6.05L95.40714285714284,6.264285714285714L94.97857142857141,6.264285714285714L94.97857142857141,6.478571428571428L94.7642857142857,6.478571428571428L94.7642857142857,7.335714285714285L94.33571428571427,7.335714285714285L94.33571428571427,7.978571428571428L93.90714285714284,7.978571428571428L93.90714285714284,8.407142857142858L83.40714285714284,8.407142857142858L83.40714285714284,8.62142857142857L75.69285714285714,8.62142857142857L75.69285714285714,8.835714285714285L75.04999999999998,8.835714285714285L75.04999999999998,9.05L74.62142857142855,9.05L74.62142857142855,9.264285714285716L73.97857142857141,9.264285714285716L73.97857142857141,9.478571428571428L73.54999999999998,9.478571428571428L73.54999999999998,9.907142857142858L61.55,9.907142857142858L61.55,10.021428571428569L72.47857142857141,10.021428571428569L72.47857142857141,10.45L72.90714285714284,10.45L72.90714285714284,10.664285714285715L73.12142857142855,10.664285714285715L73.12142857142855,10.878571428571426L75.37857142857142,10.878571428571426L75.37857142857142,10.664285714285715L75.59285714285714,10.664285714285715L75.59285714285714,10.45L76.49999999999999,10.45L76.49999999999999,10.55L75.69285714285714,10.55L75.69285714285714,10.764285714285716L75.47857142857141,10.764285714285716L75.47857142857141,10.978571428571428L73.02142857142856,10.978571428571428L73.02142857142856,10.764285714285716L72.80714285714285,10.764285714285716L72.80714285714285,10.55L72.37857142857142,10.55L72.37857142857142,10.12142857142857L61.55,10.12142857142857L61.55,10.335714285714285L52.55,10.335714285714285L52.55,10.55L51.47857142857142,10.55L51.47857142857142,10.978571428571428L49.97857142857142,10.978571428571428L49.97857142857142,11.192857142857143L49.76428571428571,11.192857142857143L49.76428571428571,11.62142857142857L49.55,11.62142857142857L49.55,11.835714285714285L49.33571428571428,11.835714285714285L49.33571428571428,12.05L48.692857142857136,12.05L48.692857142857136,12.264285714285716L48.47857142857142,12.264285714285716L48.47857142857142,12.478571428571428L39.16428571428572,12.478571428571428L39.16428571428572,12.264285714285716L38.95,12.264285714285716L38.95,12L39.05,12L39.05,12.164285714285715L39.26428571428571,12.164285714285715L39.26428571428571,12.378571428571426L48.378571428571426,12.378571428571426L48.378571428571426,12.164285714285715L48.59285714285714,12.164285714285715L48.59285714285714,11.95L49.23571428571429,11.95L49.23571428571429,11.735714285714284L49.45,11.735714285714284L49.45,11.521428571428569L49.66428571428572,11.521428571428569L49.66428571428572,11.092857142857142L49.878571428571426,11.092857142857142L49.878571428571426,10.878571428571426L51.378571428571426,10.878571428571426L51.378571428571426,10.45L52.45,10.45L52.45,10.235714285714284L61.45,10.235714285714284L61.45,10.12142857142857L51.80714285714286,10.12142857142857L51.80714285714286,9.692857142857143L51.59285714285714,9.692857142857143L51.59285714285714,9.264285714285716L51.378571428571426,9.264285714285716L51.378571428571426,8.835714285714285L51.16428571428572,8.835714285714285L51.16428571428572,8.407142857142858L50.95,8.407142857142858L50.95,7.978571428571428L50.73571428571429,7.978571428571428L50.73571428571429,7.55L50.52142857142857,7.55L50.52142857142857,7.335714285714285L49.878571428571426,7.335714285714285L49.878571428571426,7.121428571428571L46.55,7.121428571428571L46.55,7.978571428571428L46.33571428571428,7.978571428571428L46.33571428571428,8.192857142857143L45.47857142857143,8.192857142857143L45.47857142857143,8.407142857142858L45.26428571428571,8.407142857142858L45.26428571428571,8.62142857142857L45.05,8.62142857142857L45.05,9L44.95,9L44.95,8.521428571428569L45.16428571428572,8.521428571428569L45.16428571428572,8.307142857142857L45.37857142857143,8.307142857142857L45.37857142857143,8.092857142857142L46.23571428571429,8.092857142857142L46.23571428571429,7.878571428571428L46.45,7.878571428571428L46.45,7.021428571428571L49.97857142857142,7.021428571428571L49.97857142857142,7.235714285714286L50.62142857142857,7.235714285714286L50.62142857142857,7.45L50.83571428571428,7.45L50.83571428571428,7.878571428571428L51.05,7.878571428571428L51.05,8.307142857142857L51.26428571428571,8.307142857142857L51.26428571428571,8.735714285714284L51.47857142857142,8.735714285714284L51.47857142857142,9.164285714285715L51.692857142857136,9.164285714285715L51.692857142857136,9.592857142857142L51.90714285714285,9.592857142857142L51.90714285714285,10.021428571428569z" stroke="none"/><path d="M57,6.05L57,5.95L58.5,5.95L58.5,6.05z" stroke="none"/><path d="M15,10.55L15,10.45L16.5,10.45L16.5,10.55z" stroke="none"/><path d="M22.45,7.5L22.55,7.5L22.55,7.764285714285714L21.90714285714286,7.764285714285714L21.90714285714286,7.978571428571428L21.478571428571428,7.978571428571428L21.478571428571428,8.407142857142858L21.264285714285716,8.407142857142858L21.264285714285716,8.835714285714285L21.05,8.835714285714285L21.05,9L20.95,9L20.95,8.735714285714284L21.164285714285715,8.735714285714284L21.164285714285715,8.307142857142857L21.378571428571426,8.307142857142857L21.378571428571426,7.878571428571428L21.807142857142857,7.878571428571428L21.807142857142857,7.664285714285715L22.45,7.664285714285715z" stroke="none"/><path d="M2.95,4.5L3.05,4.5L3.05,7.5L2.95,7.5z" stroke="none"/><path d="M33,5.95L33,6.05L31.764285714285716,6.05L31.764285714285716,6.264285714285714L31.55,6.264285714285714L31.55,6.478571428571428L30.90714285714286,6.478571428571428L30.90714285714286,7.121428571428571L30.692857142857143,7.121428571428571L30.692857142857143,7.55L30.478571428571428,7.55L30.478571428571428,7.764285714285714L30.264285714285716,7.764285714285714L30.264285714285716,8.62142857142857L30.05,8.62142857142857L30.05,9L29.95,9L29.95,8.521428571428569L30.164285714285715,8.521428571428569L30.164285714285715,7.664285714285715L30.378571428571426,7.664285714285715L30.378571428571426,7.45L30.59285714285714,7.45L30.59285714285714,7.021428571428571L30.807142857142857,7.021428571428571L30.807142857142857,6.378571428571428L31.45,6.378571428571428L31.45,6.164285714285715L31.664285714285715,6.164285714285715L31.664285714285715,5.95z" stroke="none"/><path d="M21,2.95L21,3.05L12.164285714285715,3.05L12.164285714285715,2.8357142857142854L9.378571428571426,2.8357142857142854L9.378571428571426,2.6214285714285714L8.62142857142857,2.6214285714285714L8.62142857142857,3.3785714285714286L11.192857142857143,3.3785714285714286L11.192857142857143,3.592857142857143L19.335714285714285,3.592857142857143L19.335714285714285,4.021428571428571L20.835714285714285,4.021428571428571L20.835714285714285,4.45L21.692857142857143,4.45L21.692857142857143,5.0928571428571425L21.90714285714286,5.0928571428571425L21.90714285714286,5.307142857142857L22.121428571428574,5.307142857142857L22.121428571428574,5.521428571428571L22.764285714285716,5.521428571428571L22.764285714285716,5.95L22.978571428571428,5.95L22.978571428571428,7.235714285714286L24.05,7.235714285714286L24.05,7.5L23.95,7.5L23.95,7.335714285714285L22.878571428571426,7.335714285714285L22.878571428571426,6.05L22.664285714285715,6.05L22.664285714285715,5.621428571428571L22.021428571428572,5.621428571428571L22.021428571428572,5.407142857142857L21.807142857142857,5.407142857142857L21.807142857142857,5.192857142857142L21.59285714285714,5.192857142857142L21.59285714285714,4.55L20.735714285714284,4.55L20.735714285714284,4.121428571428571L19.235714285714284,4.121428571428571L19.235714285714284,3.6928571428571426L11.092857142857142,3.6928571428571426L11.092857142857142,3.478571428571428L8.521428571428569,3.478571428571428L8.521428571428569,2.521428571428572L9.478571428571428,2.521428571428572L9.478571428571428,2.7357142857142858L12.264285714285716,2.7357142857142858L12.264285714285716,2.95z" stroke="none"/><path d="M36,4.45L36,4.55L33.47857142857143,4.55L33.47857142857143,4.978571428571429L26.95,4.978571428571429L26.95,4.764285714285714L26.735714285714284,4.764285714285714L26.735714285714284,4.335714285714285L26.52142857142857,4.335714285714285L26.52142857142857,4.121428571428571L25.12142857142857,4.121428571428571L25.12142857142857,6.164285714285715L25.335714285714285,6.164285714285715L25.335714285714285,6.378571428571428L25.55,6.378571428571428L25.55,6.5928571428571425L25.764285714285716,6.5928571428571425L25.764285714285716,6.807142857142857L26.62142857142857,6.807142857142857L26.62142857142857,7.021428571428571L26.835714285714285,7.021428571428571L26.835714285714285,7.235714285714286L27.05,7.235714285714286L27.05,7.45L27.478571428571428,7.45L27.478571428571428,7.878571428571428L28.55,7.878571428571428L28.55,8.521428571428569L29.192857142857143,8.521428571428569L29.192857142857143,8.95L29.62142857142857,8.95L29.62142857142857,9.378571428571426L38.95,9.378571428571426L38.95,8.95L39.16428571428572,8.95L39.16428571428572,8.735714285714284L39.37857142857143,8.735714285714284L39.37857142857143,8.521428571428569L39.59285714285714,8.521428571428569L39.59285714285714,8.307142857142857L40.02142857142857,8.307142857142857L40.02142857142857,7.878571428571428L40.45,7.878571428571428L40.45,7.5L40.55,7.5L40.55,7.978571428571428L40.12142857142857,7.978571428571428L40.12142857142857,8.407142857142858L39.692857142857136,8.407142857142858L39.692857142857136,8.62142857142857L39.47857142857143,8.62142857142857L39.47857142857143,8.835714285714285L39.26428571428571,8.835714285714285L39.26428571428571,9.05L39.05,9.05L39.05,9.478571428571428L29.52142857142857,9.478571428571428L29.52142857142857,9.05L29.09285714285714,9.05L29.09285714285714,8.62142857142857L28.45,8.62142857142857L28.45,7.978571428571428L27.378571428571426,7.978571428571428L27.378571428571426,7.55L26.95,7.55L26.95,7.335714285714285L26.735714285714284,7.335714285714285L26.735714285714284,7.121428571428571L26.52142857142857,7.121428571428571L26.52142857142857,6.907142857142857L25.664285714285715,6.907142857142857L25.664285714285715,6.692857142857142L25.45,6.692857142857142L25.45,6.478571428571428L25.235714285714284,6.478571428571428L25.235714285714284,6.264285714285714L25.02142857142857,6.264285714285714L25.02142857142857,4.021428571428571L26.62142857142857,4.021428571428571L26.62142857142857,4.235714285714286L26.835714285714285,4.235714285714286L26.835714285714285,4.664285714285715L27.05,4.664285714285715L27.05,4.878571428571429L33.37857142857143,4.878571428571429L33.37857142857143,4.45z" stroke="none"/><path d="M82.49999999999999,3.05L82.49999999999999,2.95L88.49999999999999,2.95L88.49999999999999,3.05z" stroke="none"/><path d="M12,7.45L12,7.55L8.95,7.55L8.95,7.335714285714285L8.735714285714284,7.335714285714285L8.735714285714284,6.907142857142857L8.092857142857142,6.907142857142857L8.092857142857142,6.264285714285714L7.664285714285715,6.264285714285714L7.664285714285715,5.621428571428571L7.235714285714286,5.621428571428571L7.235714285714286,5.407142857142857L6.378571428571428,5.407142857142857L6.378571428571428,5.192857142857142L5.95,5.192857142857142L5.95,4.5L6.05,4.5L6.05,5.0928571428571425L6.478571428571428,5.0928571428571425L6.478571428571428,5.307142857142857L7.335714285714285,5.307142857142857L7.335714285714285,5.521428571428571L7.764285714285714,5.521428571428571L7.764285714285714,6.164285714285715L8.192857142857143,6.164285714285715L8.192857142857143,6.807142857142857L8.835714285714285,6.807142857142857L8.835714285714285,7.235714285714286L9.05,7.235714285714286L9.05,7.45z" stroke="none"/><path d="M12,11.95L12,12.05L9.592857142857142,12.05L9.592857142857142,11.835714285714285L9.378571428571426,11.835714285714285L9.378571428571426,11.407142857142858L7.878571428571428,11.407142857142858L7.878571428571428,11.192857142857143L5.521428571428571,11.192857142857143L5.521428571428571,10.978571428571428L5.307142857142857,10.978571428571428L5.307142857142857,10.764285714285716L4.878571428571429,10.764285714285716L4.878571428571429,10.55L4.5,10.55L4.5,10.45L4.978571428571429,10.45L4.978571428571429,10.664285714285715L5.407142857142857,10.664285714285715L5.407142857142857,10.878571428571426L5.621428571428571,10.878571428571426L5.621428571428571,11.092857142857142L7.978571428571428,11.092857142857142L7.978571428571428,11.307142857142857L9.478571428571428,11.307142857142857L9.478571428571428,11.735714285714284L9.692857142857143,11.735714285714284L9.692857142857143,11.95z" stroke="none"/><path d="M91.49999999999999,10.45L91.49999999999999,10.55L85.66428571428571,10.55L85.66428571428571,10.335714285714285L85.44999999999999,10.335714285714285L85.44999999999999,9.692857142857143L85.23571428571428,9.692857142857143L85.23571428571428,9.478571428571428L84.80714285714285,9.478571428571428L84.80714285714285,9.264285714285716L84.59285714285714,9.264285714285716L84.59285714285714,9.05L83.99999999999999,9.05L83.99999999999999,8.95L84.69285714285714,8.95L84.69285714285714,9.164285714285715L84.90714285714284,9.164285714285715L84.90714285714284,9.378571428571426L85.33571428571427,9.378571428571426L85.33571428571427,9.592857142857142L85.54999999999998,9.592857142857142L85.54999999999998,10.235714285714284L85.7642857142857,10.235714285714284L85.7642857142857,10.45z" stroke="none"/><path d="M67.49999999999999,2.95L67.49999999999999,3.05L64.87857142857142,3.05L64.87857142857142,2.6214285714285714L61.97857142857142,2.6214285714285714L61.97857142857142,2.8357142857142854L61.76428571428571,2.8357142857142854L61.76428571428571,3.05L58.5,3.05L58.5,2.95L61.66428571428572,2.95L61.66428571428572,2.7357142857142858L61.878571428571426,2.7357142857142858L61.878571428571426,2.521428571428572L64.97857142857141,2.521428571428572L64.97857142857141,2.95z" stroke="none"/><path d="M19.5,10.45L19.5,10.55L17.40714285714286,10.55L17.40714285714286,10.764285714285716L16.978571428571428,10.764285714285716L16.978571428571428,10.978571428571428L12.807142857142857,10.978571428571428L12.807142857142857,10.764285714285716L12.592857142857142,10.764285714285716L12.592857142857142,10.55L10.5,10.55L10.5,10.45L12.692857142857143,10.45L12.692857142857143,10.664285714285715L12.907142857142858,10.664285714285715L12.907142857142858,10.878571428571426L16.878571428571426,10.878571428571426L16.878571428571426,10.664285714285715L17.307142857142857,10.664285714285715L17.307142857142857,10.45z" stroke="none"/><path d="M82.49999999999999,10.55L82.49999999999999,10.45L83.19285714285714,10.45L83.19285714285714,10.664285714285715L83.62142857142855,10.664285714285715L83.62142857142855,10.878571428571426L94.23571428571428,10.878571428571426L94.23571428571428,10.664285714285715L94.44999999999999,10.664285714285715L94.44999999999999,10.5L94.54999999999998,10.5L94.54999999999998,10.764285714285716L94.33571428571427,10.764285714285716L94.33571428571427,10.978571428571428L83.52142857142856,10.978571428571428L83.52142857142856,10.764285714285716L83.09285714285714,10.764285714285716L83.09285714285714,10.55z" stroke="none"/><path d="M71.99999999999999,3.05L71.99999999999999,2.95L80.94999999999999,2.95L80.94999999999999,2.7357142857142858L81.37857142857142,2.7357142857142858L81.37857142857142,2.521428571428572L97.97857142857141,2.521428571428572L97.97857142857141,2.95L98.62142857142855,2.95L98.62142857142855,3.1642857142857146L98.83571428571427,3.1642857142857146L98.83571428571427,3.592857142857143L100.7642857142857,3.592857142857143L100.7642857142857,4.021428571428571L100.97857142857141,4.021428571428571L100.97857142857141,4.978571428571429L92.19285714285712,4.978571428571429L92.19285714285712,5.192857142857142L85.54999999999998,5.192857142857142L85.54999999999998,5.407142857142857L84.69285714285714,5.407142857142857L84.69285714285714,5.835714285714285L84.04999999999998,5.835714285714285L84.04999999999998,6L83.94999999999999,6L83.94999999999999,5.735714285714286L84.59285714285714,5.735714285714286L84.59285714285714,5.307142857142857L85.44999999999999,5.307142857142857L85.44999999999999,5.0928571428571425L92.09285714285713,5.0928571428571425L92.09285714285713,4.878571428571429L100.87857142857142,4.878571428571429L100.87857142857142,4.121428571428571L100.66428571428571,4.121428571428571L100.66428571428571,3.6928571428571426L98.73571428571428,3.6928571428571426L98.73571428571428,3.2642857142857142L98.52142857142856,3.2642857142857142L98.52142857142856,3.05L97.87857142857142,3.05L97.87857142857142,2.6214285714285714L81.47857142857141,2.6214285714285714L81.47857142857141,2.8357142857142854L81.04999999999998,2.8357142857142854L81.04999999999998,3.05z" stroke="none"/><path d="M3,3.05L3,2.95L8.192857142857143,2.95L8.192857142857143,3.592857142857143L10.764285714285716,3.592857142857143L10.764285714285716,3.8071428571428574L16.12142857142857,3.8071428571428574L16.12142857142857,4.021428571428571L16.55,4.021428571428571L16.55,4.5L16.45,4.5L16.45,4.121428571428571L16.02142857142857,4.121428571428571L16.02142857142857,3.907142857142857L10.664285714285715,3.907142857142857L10.664285714285715,3.6928571428571426L8.092857142857142,3.6928571428571426L8.092857142857142,3.05z" stroke="none"/><path d="M18,9.05L18,8.95L19.978571428571428,8.95L19.978571428571428,9.164285714285715L20.621428571428574,9.164285714285715L20.621428571428574,9.378571428571426L23.09285714285714,9.378571428571426L23.09285714285714,8.735714285714284L23.95,8.735714285714284L23.95,8.521428571428569L24.378571428571426,8.521428571428569L24.378571428571426,4.235714285714286L24.807142857142857,4.235714285714286L24.807142857142857,3.8071428571428574L30.692857142857143,3.8071428571428574L30.692857142857143,4.45L31.5,4.45L31.5,4.55L30.59285714285714,4.55L30.59285714285714,3.907142857142857L24.90714285714286,3.907142857142857L24.90714285714286,4.335714285714285L24.478571428571428,4.335714285714285L24.478571428571428,8.62142857142857L24.05,8.62142857142857L24.05,8.835714285714285L23.192857142857143,8.835714285714285L23.192857142857143,9.478571428571428L20.521428571428572,9.478571428571428L20.521428571428572,9.264285714285716L19.878571428571426,9.264285714285716L19.878571428571426,9.05z" stroke="none"/><path d="M84.04999999999998,10.5L83.94999999999999,10.5L83.94999999999999,10.335714285714285L82.87857142857142,10.335714285714285L82.87857142857142,10.12142857142857L82.12142857142855,10.12142857142857L82.12142857142855,10.878571428571426L83.40714285714284,10.878571428571426L83.40714285714284,11.092857142857142L98.73571428571428,11.092857142857142L98.73571428571428,10.878571428571426L98.94999999999999,10.878571428571426L98.94999999999999,10.5L99.04999999999998,10.5L99.04999999999998,10.978571428571428L98.83571428571427,10.978571428571428L98.83571428571427,11.192857142857143L83.30714285714285,11.192857142857143L83.30714285714285,10.978571428571428L82.02142857142856,10.978571428571428L82.02142857142856,10.021428571428569L82.97857142857141,10.021428571428569L82.97857142857141,10.235714285714284L84.04999999999998,10.235714285714284z" stroke="none"/><path d="M64.49999999999999,2.95L64.49999999999999,3.05L61.97857142857142,3.05L61.97857142857142,3.2642857142857142L58.97857142857142,3.2642857142857142L58.97857142857142,3.478571428571428L49.878571428571426,3.478571428571428L49.878571428571426,3.2642857142857142L47.73571428571429,3.2642857142857142L47.73571428571429,3.05L46.5,3.05L46.5,2.95L47.83571428571428,2.95L47.83571428571428,3.1642857142857146L49.97857142857142,3.1642857142857146L49.97857142857142,3.3785714285714286L58.878571428571426,3.3785714285714286L58.878571428571426,3.1642857142857146L61.878571428571426,3.1642857142857146L61.878571428571426,2.95z" stroke="none"/><path d="M27,10.45L27,10.55L19.978571428571428,10.55L19.978571428571428,10.978571428571428L17.192857142857143,10.978571428571428L17.192857142857143,11.192857142857143L13.12142857142857,11.192857142857143L13.12142857142857,11.407142857142858L12.907142857142858,11.407142857142858L12.907142857142858,11.835714285714285L12.692857142857143,11.835714285714285L12.692857142857143,12.05L12.478571428571428,12.05L12.478571428571428,12.478571428571428L9.592857142857142,12.478571428571428L9.592857142857142,12.264285714285716L9.164285714285715,12.264285714285716L9.164285714285715,12.05L9,12.05L9,11.95L9.264285714285716,11.95L9.264285714285716,12.164285714285715L9.692857142857143,12.164285714285715L9.692857142857143,12.378571428571426L12.378571428571426,12.378571428571426L12.378571428571426,11.95L12.592857142857142,11.95L12.592857142857142,11.735714285714284L12.807142857142857,11.735714285714284L12.807142857142857,11.307142857142857L13.021428571428569,11.307142857142857L13.021428571428569,11.092857142857142L17.09285714285714,11.092857142857142L17.09285714285714,10.878571428571426L19.878571428571426,10.878571428571426L19.878571428571426,10.45z" stroke="none"/><path d="M74.99999999999999,4.55L74.99999999999999,4.45L90.16428571428571,4.45L90.16428571428571,4.235714285714286L90.59285714285714,4.235714285714286L90.59285714285714,3.8071428571428574L91.02142857142856,3.8071428571428574L91.02142857142856,3.592857142857143L91.66428571428571,3.592857142857143L91.66428571428571,3.3785714285714286L92.73571428571428,3.3785714285714286L92.73571428571428,2.95L92.99999999999999,2.95L92.99999999999999,3.05L92.83571428571427,3.05L92.83571428571427,3.478571428571428L91.7642857142857,3.478571428571428L91.7642857142857,3.6928571428571426L91.12142857142855,3.6928571428571426L91.12142857142855,3.907142857142857L90.69285714285714,3.907142857142857L90.69285714285714,4.335714285714285L90.2642857142857,4.335714285714285L90.2642857142857,4.55z" stroke="none"/><path d="M40.5,3.05L40.5,2.95L45.47857142857143,2.95L45.47857142857143,3.1642857142857146L45.692857142857136,3.1642857142857146L45.692857142857136,3.3785714285714286L49.76428571428571,3.3785714285714286L49.76428571428571,3.592857142857143L67.44999999999999,3.592857142857143L67.44999999999999,3.3785714285714286L67.87857142857142,3.3785714285714286L67.87857142857142,2.6214285714285714L65.09285714285714,2.6214285714285714L65.09285714285714,2.407142857142857L2.6214285714285714,2.407142857142857L2.6214285714285714,3.3785714285714286L7.978571428571428,3.3785714285714286L7.978571428571428,3.8071428571428574L10.55,3.8071428571428574L10.55,4.021428571428571L14.835714285714285,4.021428571428571L14.835714285714285,4.235714285714286L15.05,4.235714285714286L15.05,4.5L14.95,4.5L14.95,4.335714285714285L14.735714285714284,4.335714285714285L14.735714285714284,4.121428571428571L10.45,4.121428571428571L10.45,3.907142857142857L7.878571428571428,3.907142857142857L7.878571428571428,3.478571428571428L2.521428571428572,3.478571428571428L2.521428571428572,2.3071428571428574L65.19285714285714,2.3071428571428574L65.19285714285714,2.521428571428572L67.97857142857141,2.521428571428572L67.97857142857141,3.478571428571428L67.54999999999998,3.478571428571428L67.54999999999998,3.6928571428571426L49.66428571428572,3.6928571428571426L49.66428571428572,3.478571428571428L45.59285714285714,3.478571428571428L45.59285714285714,3.2642857142857142L45.37857142857143,3.2642857142857142L45.37857142857143,3.05z" stroke="none"/><path d="M94.49999999999999,11.95L94.49999999999999,12.05L93.37857142857142,12.05L93.37857142857142,11.62142857142857L69.37857142857142,11.62142857142857L69.37857142857142,10.55L68.99999999999999,10.55L68.99999999999999,10.45L69.47857142857141,10.45L69.47857142857141,11.521428571428569L93.47857142857141,11.521428571428569L93.47857142857141,11.95z" stroke="none"/><path d="M74.99999999999999,10.55L74.99999999999999,10.45L75.37857142857142,10.45L75.37857142857142,10.235714285714284L75.80714285714285,10.235714285714284L75.80714285714285,10.021428571428569L80.62142857142855,10.021428571428569L80.62142857142855,10.878571428571426L81.69285714285714,10.878571428571426L81.69285714285714,11.092857142857142L82.12142857142855,11.092857142857142L82.12142857142855,11.307142857142857L99.16428571428571,11.307142857142857L99.16428571428571,11.092857142857142L99.37857142857142,11.092857142857142L99.37857142857142,6.807142857142857L99.59285714285713,6.807142857142857L99.59285714285713,6.5928571428571425L100.23571428571428,6.5928571428571425L100.23571428571428,6.164285714285715L100.44999999999999,6.164285714285715L100.44999999999999,6L100.54999999999998,6L100.54999999999998,6.264285714285714L100.33571428571427,6.264285714285714L100.33571428571427,6.692857142857142L99.69285714285712,6.692857142857142L99.69285714285712,6.907142857142857L99.47857142857141,6.907142857142857L99.47857142857141,11.192857142857143L99.2642857142857,11.192857142857143L99.2642857142857,11.407142857142858L82.02142857142856,11.407142857142858L82.02142857142856,11.192857142857143L81.59285714285714,11.192857142857143L81.59285714285714,10.978571428571428L80.52142857142856,10.978571428571428L80.52142857142856,10.12142857142857L75.90714285714284,10.12142857142857L75.90714285714284,10.335714285714285L75.47857142857141,10.335714285714285L75.47857142857141,10.55z" stroke="none"/><path d="M7.5,4.55L7.5,4.45L12.05,4.45L12.05,4.664285714285715L12.264285714285716,4.664285714285715L12.264285714285716,4.878571428571429L12.478571428571428,4.878571428571429L12.478571428571428,5.0928571428571425L13.55,5.0928571428571425L13.55,5.307142857142857L13.764285714285716,5.307142857142857L13.764285714285716,5.521428571428571L13.978571428571428,5.521428571428571L13.978571428571428,5.735714285714286L14.192857142857143,5.735714285714286L14.192857142857143,5.95L14.407142857142858,5.95L14.407142857142858,6.378571428571428L14.62142857142857,6.378571428571428L14.62142857142857,6.5928571428571425L15.05,6.5928571428571425L15.05,6.807142857142857L15.264285714285716,6.807142857142857L15.264285714285716,7.021428571428571L15.478571428571428,7.021428571428571L15.478571428571428,7.235714285714286L15.692857142857143,7.235714285714286L15.692857142857143,7.45L16.12142857142857,7.45L16.12142857142857,7.878571428571428L16.335714285714285,7.878571428571428L16.335714285714285,8.092857142857142L16.764285714285716,8.092857142857142L16.764285714285716,8.307142857142857L16.978571428571428,8.307142857142857L16.978571428571428,8.95L17.40714285714286,8.95L17.40714285714286,9.164285714285715L17.621428571428574,9.164285714285715L17.621428571428574,9.378571428571426L19.764285714285716,9.378571428571426L19.764285714285716,9.592857142857142L23.307142857142857,9.592857142857142L23.307142857142857,8.95L25.02142857142857,8.95L25.02142857142857,8.521428571428569L27.90714285714286,8.521428571428569L27.90714285714286,8.735714285714284L28.978571428571428,8.735714285714284L28.978571428571428,9.378571428571426L29.192857142857143,9.378571428571426L29.192857142857143,9.592857142857142L39.37857142857143,9.592857142857142L39.37857142857143,9.164285714285715L40.23571428571429,9.164285714285715L40.23571428571429,8.735714285714284L40.45,8.735714285714284L40.45,8.307142857142857L40.66428571428572,8.307142857142857L40.66428571428572,7.878571428571428L40.87857142857143,7.878571428571428L40.87857142857143,7.121428571428571L34.76428571428571,7.121428571428571L34.76428571428571,7.335714285714285L34.55,7.335714285714285L34.55,7.5L34.45,7.5L34.45,7.235714285714286L34.66428571428572,7.235714285714286L34.66428571428572,7.021428571428571L40.97857142857143,7.021428571428571L40.97857142857143,7.978571428571428L40.76428571428571,7.978571428571428L40.76428571428571,8.407142857142858L40.55,8.407142857142858L40.55,8.835714285714285L40.33571428571428,8.835714285714285L40.33571428571428,9.264285714285716L39.47857142857143,9.264285714285716L39.47857142857143,9.692857142857143L29.09285714285714,9.692857142857143L29.09285714285714,9.478571428571428L28.878571428571426,9.478571428571428L28.878571428571426,8.835714285714285L27.807142857142857,8.835714285714285L27.807142857142857,8.62142857142857L25.12142857142857,8.62142857142857L25.12142857142857,9.05L23.40714285714286,9.05L23.40714285714286,9.692857142857143L19.664285714285715,9.692857142857143L19.664285714285715,9.478571428571428L17.521428571428572,9.478571428571428L17.521428571428572,9.264285714285716L17.307142857142857,9.264285714285716L17.307142857142857,9.05L16.878571428571426,9.05L16.878571428571426,8.407142857142858L16.664285714285715,8.407142857142858L16.664285714285715,8.192857142857143L16.235714285714284,8.192857142857143L16.235714285714284,7.978571428571428L16.02142857142857,7.978571428571428L16.02142857142857,7.55L15.592857142857142,7.55L15.592857142857142,7.335714285714285L15.378571428571426,7.335714285714285L15.378571428571426,7.121428571428571L15.164285714285715,7.121428571428571L15.164285714285715,6.907142857142857L14.95,6.907142857142857L14.95,6.692857142857142L14.521428571428569,6.692857142857142L14.521428571428569,6.478571428571428L14.307142857142857,6.478571428571428L14.307142857142857,6.05L14.092857142857142,6.05L14.092857142857142,5.835714285714285L13.878571428571426,5.835714285714285L13.878571428571426,5.621428571428571L13.664285714285715,5.621428571428571L13.664285714285715,5.407142857142857L13.45,5.407142857142857L13.45,5.192857142857142L12.378571428571426,5.192857142857142L12.378571428571426,4.978571428571429L12.164285714285715,4.978571428571429L12.164285714285715,4.764285714285714L11.95,4.764285714285714L11.95,4.55z" stroke="none"/><path d="M34.5,6.05L34.5,5.95L34.97857142857143,5.95L34.97857142857143,6.164285714285715L44.83571428571428,6.164285714285715L44.83571428571428,6.378571428571428L48.26428571428571,6.378571428571428L48.26428571428571,6.5928571428571425L48.692857142857136,6.5928571428571425L48.692857142857136,6.807142857142857L57.05,6.807142857142857L57.05,7.021428571428571L59.62142857142857,7.021428571428571L59.62142857142857,7.235714285714286L60.05,7.235714285714286L60.05,7.45L60.692857142857136,7.45L60.692857142857136,7.664285714285715L60.90714285714285,7.664285714285715L60.90714285714285,7.878571428571428L67.66428571428571,7.878571428571428L67.66428571428571,7.45L68.99999999999999,7.45L68.99999999999999,7.55L67.7642857142857,7.55L67.7642857142857,7.978571428571428L60.80714285714286,7.978571428571428L60.80714285714286,7.764285714285714L60.59285714285714,7.764285714285714L60.59285714285714,7.55L59.95,7.55L59.95,7.335714285714285L59.52142857142857,7.335714285714285L59.52142857142857,7.121428571428571L56.95,7.121428571428571L56.95,6.907142857142857L48.59285714285714,6.907142857142857L48.59285714285714,6.692857142857142L48.16428571428572,6.692857142857142L48.16428571428572,6.478571428571428L44.73571428571429,6.478571428571428L44.73571428571429,6.264285714285714L34.87857142857143,6.264285714285714L34.87857142857143,6.05z" stroke="none"/><path d="M65.99999999999999,10.45L65.99999999999999,10.55L54.05,10.55L54.05,10.978571428571428L51.692857142857136,10.978571428571428L51.692857142857136,11.192857142857143L50.192857142857136,11.192857142857143L50.192857142857136,11.62142857142857L49.97857142857142,11.62142857142857L49.97857142857142,11.835714285714285L49.76428571428571,11.835714285714285L49.76428571428571,12.05L49.55,12.05L49.55,12.264285714285716L48.90714285714285,12.264285714285716L48.90714285714285,12.478571428571428L48.692857142857136,12.478571428571428L48.692857142857136,12.692857142857143L24.164285714285715,12.692857142857143L24.164285714285715,12.264285714285716L23.95,12.264285714285716L23.95,12L24.05,12L24.05,12.164285714285715L24.264285714285716,12.164285714285715L24.264285714285716,12.592857142857142L48.59285714285714,12.592857142857142L48.59285714285714,12.378571428571426L48.80714285714286,12.378571428571426L48.80714285714286,12.164285714285715L49.45,12.164285714285715L49.45,11.95L49.66428571428572,11.95L49.66428571428572,11.735714285714284L49.878571428571426,11.735714285714284L49.878571428571426,11.521428571428569L50.09285714285714,11.521428571428569L50.09285714285714,11.092857142857142L51.59285714285714,11.092857142857142L51.59285714285714,10.878571428571426L53.95,10.878571428571426L53.95,10.45z" stroke="none"/><path d="M91.49999999999999,4.45L91.49999999999999,4.55L90.47857142857141,4.55L90.47857142857141,4.764285714285714L76.12142857142855,4.764285714285714L76.12142857142855,4.978571428571429L72.80714285714285,4.978571428571429L72.80714285714285,4.764285714285714L72.59285714285714,4.764285714285714L72.59285714285714,3.907142857142857L72.16428571428571,3.907142857142857L72.16428571428571,3.6928571428571426L71.94999999999999,3.6928571428571426L71.94999999999999,3.478571428571428L71.52142857142856,3.478571428571428L71.52142857142856,2.521428571428572L81.16428571428571,2.521428571428572L81.16428571428571,2.3071428571428574L98.62142857142855,2.3071428571428574L98.62142857142855,2.7357142857142858L99.69285714285712,2.7357142857142858L99.69285714285712,2.95L100.12142857142855,2.95L100.12142857142855,3.1642857142857146L100.33571428571427,3.1642857142857146L100.33571428571427,3.3785714285714286L100.97857142857141,3.3785714285714286L100.97857142857141,3.592857142857143L101.19285714285712,3.592857142857143L101.19285714285712,5.192857142857142L92.40714285714284,5.192857142857142L92.40714285714284,5.407142857142857L92.19285714285712,5.407142857142857L92.19285714285712,5.621428571428571L88.33571428571427,5.621428571428571L88.33571428571427,5.835714285714285L88.12142857142855,5.835714285714285L88.12142857142855,6.05L85.97857142857141,6.05L85.97857142857141,6.264285714285714L85.7642857142857,6.264285714285714L85.7642857142857,6.478571428571428L85.54999999999998,6.478571428571428L85.54999999999998,7.121428571428571L85.33571428571427,7.121428571428571L85.33571428571427,7.335714285714285L85.12142857142855,7.335714285714285L85.12142857142855,7.55L84.69285714285714,7.55L84.69285714285714,7.764285714285714L84.47857142857141,7.764285714285714L84.47857142857141,7.978571428571428L74.09285714285714,7.978571428571428L74.09285714285714,7.764285714285714L73.66428571428571,7.764285714285714L73.66428571428571,7.335714285714285L69.37857142857142,7.335714285714285L69.37857142857142,7.121428571428571L61.02142857142857,7.121428571428571L61.02142857142857,6.907142857142857L59.95,6.907142857142857L59.95,6.692857142857142L58.45,6.692857142857142L58.45,6.478571428571428L53.52142857142857,6.478571428571428L53.52142857142857,6.05L53.30714285714286,6.05L53.30714285714286,5.835714285714285L53.09285714285714,5.835714285714285L53.09285714285714,5.621428571428571L49.76428571428571,5.621428571428571L49.76428571428571,5.835714285714285L49.55,5.835714285714285L49.55,6L49.45,6L49.45,5.735714285714286L49.66428571428572,5.735714285714286L49.66428571428572,5.521428571428571L53.192857142857136,5.521428571428571L53.192857142857136,5.735714285714286L53.40714285714285,5.735714285714286L53.40714285714285,5.95L53.62142857142857,5.95L53.62142857142857,6.378571428571428L58.55,6.378571428571428L58.55,6.5928571428571425L60.05,6.5928571428571425L60.05,6.807142857142857L61.12142857142857,6.807142857142857L61.12142857142857,7.021428571428571L69.47857142857141,7.021428571428571L69.47857142857141,7.235714285714286L73.7642857142857,7.235714285714286L73.7642857142857,7.664285714285715L74.19285714285714,7.664285714285715L74.19285714285714,7.878571428571428L84.37857142857142,7.878571428571428L84.37857142857142,7.664285714285715L84.59285714285714,7.664285714285715L84.59285714285714,7.45L85.02142857142856,7.45L85.02142857142856,7.235714285714286L85.23571428571428,7.235714285714286L85.23571428571428,7.021428571428571L85.44999999999999,7.021428571428571L85.44999999999999,6.378571428571428L85.66428571428571,6.378571428571428L85.66428571428571,6.164285714285715L85.87857142857142,6.164285714285715L85.87857142857142,5.95L88.02142857142856,5.95L88.02142857142856,5.735714285714286L88.23571428571428,5.735714285714286L88.23571428571428,5.521428571428571L92.09285714285713,5.521428571428571L92.09285714285713,5.307142857142857L92.30714285714285,5.307142857142857L92.30714285714285,5.0928571428571425L101.09285714285713,5.0928571428571425L101.09285714285713,3.6928571428571426L100.87857142857142,3.6928571428571426L100.87857142857142,3.478571428571428L100.23571428571428,3.478571428571428L100.23571428571428,3.2642857142857142L100.02142857142856,3.2642857142857142L100.02142857142856,3.05L99.59285714285713,3.05L99.59285714285713,2.8357142857142854L98.52142857142856,2.8357142857142854L98.52142857142856,2.407142857142857L81.2642857142857,2.407142857142857L81.2642857142857,2.6214285714285714L71.62142857142855,2.6214285714285714L71.62142857142855,3.3785714285714286L72.04999999999998,3.3785714285714286L72.04999999999998,3.592857142857143L72.2642857142857,3.592857142857143L72.2642857142857,3.8071428571428574L72.69285714285714,3.8071428571428574L72.69285714285714,4.664285714285715L72.90714285714284,4.664285714285715L72.90714285714284,4.878571428571429L76.02142857142856,4.878571428571429L76.02142857142856,4.664285714285715L90.37857142857142,4.664285714285715L90.37857142857142,4.45z" stroke="none"/><path d="M102.04999999999998,12L101.94999999999999,12L101.94999999999999,6.692857142857142L101.73571428571428,6.692857142857142L101.73571428571428,6.478571428571428L101.52142857142856,6.478571428571428L101.52142857142856,6.05L101.30714285714285,6.05L101.30714285714285,5.621428571428571L96.59285714285713,5.621428571428571L96.59285714285713,5.407142857142857L93.04999999999998,5.407142857142857L93.04999999999998,5.621428571428571L92.83571428571427,5.621428571428571L92.83571428571427,5.835714285714285L91.12142857142855,5.835714285714285L91.12142857142855,6.05L89.62142857142855,6.05L89.62142857142855,6.264285714285714L86.19285714285714,6.264285714285714L86.19285714285714,6.907142857142857L85.97857142857141,6.907142857142857L85.97857142857141,7.121428571428571L85.7642857142857,7.121428571428571L85.7642857142857,7.335714285714285L85.54999999999998,7.335714285714285L85.54999999999998,7.55L85.33571428571427,7.55L85.33571428571427,7.764285714285714L84.90714285714284,7.764285714285714L84.90714285714284,7.978571428571428L84.69285714285714,7.978571428571428L84.69285714285714,8.192857142857143L57.692857142857136,8.192857142857143L57.692857142857136,8.835714285714285L57.05,8.835714285714285L57.05,9L56.95,9L56.95,8.735714285714284L57.59285714285714,8.735714285714284L57.59285714285714,8.092857142857142L84.59285714285714,8.092857142857142L84.59285714285714,7.878571428571428L84.80714285714285,7.878571428571428L84.80714285714285,7.664285714285715L85.23571428571428,7.664285714285715L85.23571428571428,7.45L85.44999999999999,7.45L85.44999999999999,7.235714285714286L85.66428571428571,7.235714285714286L85.66428571428571,7.021428571428571L85.87857142857142,7.021428571428571L85.87857142857142,6.807142857142857L86.09285714285714,6.807142857142857L86.09285714285714,6.164285714285715L89.52142857142856,6.164285714285715L89.52142857142856,5.95L91.02142857142856,5.95L91.02142857142856,5.735714285714286L92.73571428571428,5.735714285714286L92.73571428571428,5.521428571428571L92.94999999999999,5.521428571428571L92.94999999999999,5.307142857142857L96.69285714285712,5.307142857142857L96.69285714285712,5.521428571428571L101.40714285714284,5.521428571428571L101.40714285714284,5.95L101.62142857142855,5.95L101.62142857142855,6.378571428571428L101.83571428571427,6.378571428571428L101.83571428571427,6.5928571428571425L102.04999999999998,6.5928571428571425z" stroke="none"/><path d="M92.99999999999999,11.95L92.99999999999999,12.05L49.97857142857142,12.05L49.97857142857142,12.264285714285716L49.76428571428571,12.264285714285716L49.76428571428571,12.478571428571428L49.12142857142857,12.478571428571428L49.12142857142857,12.692857142857143L48.90714285714285,12.692857142857143L48.90714285714285,12.907142857142858L23.95,12.907142857142858L23.95,12.478571428571428L23.52142857142857,12.478571428571428L23.52142857142857,11.521428571428569L30.264285714285716,11.521428571428569L30.264285714285716,11.735714285714284L30.478571428571428,11.735714285714284L30.478571428571428,11.95L30.692857142857143,11.95L30.692857142857143,12.164285714285715L31.12142857142857,12.164285714285715L31.12142857142857,12.378571428571426L37.23571428571429,12.378571428571426L37.23571428571429,11.95L38.52142857142857,11.95L38.52142857142857,11.521428571428569L44.83571428571428,11.521428571428569L44.83571428571428,11.735714285714284L45.05,11.735714285714284L45.05,12L44.95,12L44.95,11.835714285714285L44.73571428571429,11.835714285714285L44.73571428571429,11.62142857142857L38.62142857142857,11.62142857142857L38.62142857142857,12.05L37.33571428571428,12.05L37.33571428571428,12.478571428571428L31.02142857142857,12.478571428571428L31.02142857142857,12.264285714285716L30.59285714285714,12.264285714285716L30.59285714285714,12.05L30.378571428571426,12.05L30.378571428571426,11.835714285714285L30.164285714285715,11.835714285714285L30.164285714285715,11.62142857142857L23.62142857142857,11.62142857142857L23.62142857142857,12.378571428571426L24.05,12.378571428571426L24.05,12.807142857142857L48.80714285714286,12.807142857142857L48.80714285714286,12.592857142857142L49.02142857142857,12.592857142857142L49.02142857142857,12.378571428571426L49.66428571428572,12.378571428571426L49.66428571428572,12.164285714285715L49.878571428571426,12.164285714285715L49.878571428571426,11.95z" stroke="none"/><path d="M7.55,9L7.45,9L7.45,7.978571428571428L7.235714285714286,7.978571428571428L7.235714285714286,7.335714285714285L7.021428571428571,7.335714285714285L7.021428571428571,7.121428571428571L6.5928571428571425,7.121428571428571L6.5928571428571425,6.907142857142857L6.378571428571428,6.907142857142857L6.378571428571428,5.621428571428571L5.735714285714286,5.621428571428571L5.735714285714286,5.192857142857142L5.521428571428571,5.192857142857142L5.521428571428571,4.978571428571429L5.307142857142857,4.978571428571429L5.307142857142857,4.764285714285714L4.021428571428571,4.764285714285714L4.021428571428571,4.335714285714285L3.8071428571428574,4.335714285714285L3.8071428571428574,4.121428571428571L2.7357142857142858,4.121428571428571L2.7357142857142858,3.907142857142857L2.3071428571428574,3.907142857142857L2.3071428571428574,2.092857142857143L68.19285714285714,2.092857142857143L68.19285714285714,3.6928571428571426L67.7642857142857,3.6928571428571426L67.7642857142857,3.907142857142857L56.62142857142857,3.907142857142857L56.62142857142857,4.121428571428571L56.192857142857136,4.121428571428571L56.192857142857136,4.335714285714285L55.55,4.335714285714285L55.55,4.5L55.45,4.5L55.45,4.235714285714286L56.09285714285714,4.235714285714286L56.09285714285714,4.021428571428571L56.52142857142857,4.021428571428571L56.52142857142857,3.8071428571428574L67.66428571428571,3.8071428571428574L67.66428571428571,3.592857142857143L68.09285714285714,3.592857142857143L68.09285714285714,2.1928571428571426L2.407142857142857,2.1928571428571426L2.407142857142857,3.8071428571428574L2.8357142857142854,3.8071428571428574L2.8357142857142854,4.021428571428571L3.907142857142857,4.021428571428571L3.907142857142857,4.235714285714286L4.121428571428571,4.235714285714286L4.121428571428571,4.664285714285715L5.407142857142857,4.664285714285715L5.407142857142857,4.878571428571429L5.621428571428571,4.878571428571429L5.621428571428571,5.0928571428571425L5.835714285714285,5.0928571428571425L5.835714285714285,5.521428571428571L6.478571428571428,5.521428571428571L6.478571428571428,6.807142857142857L6.692857142857142,6.807142857142857L6.692857142857142,7.021428571428571L7.121428571428571,7.021428571428571L7.121428571428571,7.235714285714286L7.335714285714285,7.235714285714286L7.335714285714285,7.878571428571428L7.55,7.878571428571428z" stroke="none"/><path d="M67.49999999999999,4.55L67.49999999999999,4.45L68.09285714285714,4.45L68.09285714285714,3.8071428571428574L68.30714285714285,3.8071428571428574L68.30714285714285,1.9785714285714286L2.1928571428571426,1.9785714285714286L2.1928571428571426,7.664285714285715L2.407142857142857,7.664285714285715L2.407142857142857,7.878571428571428L6.264285714285714,7.878571428571428L6.264285714285714,8.307142857142857L6.692857142857142,8.307142857142857L6.692857142857142,8.95L6.907142857142857,8.95L6.907142857142857,9.164285714285715L7.121428571428571,9.164285714285715L7.121428571428571,9.378571428571426L7.878571428571428,9.378571428571426L7.878571428571428,9.164285714285715L8.521428571428569,9.164285714285715L8.521428571428569,8.735714285714284L10.664285714285715,8.735714285714284L10.664285714285715,8.521428571428569L10.878571428571426,8.521428571428569L10.878571428571426,8.307142857142857L12.164285714285715,8.307142857142857L12.164285714285715,7.878571428571428L12.378571428571426,7.878571428571428L12.378571428571426,7.121428571428571L9.378571428571426,7.121428571428571L9.378571428571426,6.907142857142857L9.164285714285715,6.907142857142857L9.164285714285715,6.692857142857142L8.307142857142857,6.692857142857142L8.307142857142857,5.835714285714285L8.092857142857142,5.835714285714285L8.092857142857142,5.621428571428571L7.878571428571428,5.621428571428571L7.878571428571428,5.407142857142857L7.45,5.407142857142857L7.45,4.978571428571429L7.021428571428571,4.978571428571429L7.021428571428571,4.021428571428571L10.12142857142857,4.021428571428571L10.12142857142857,4.235714285714286L13.764285714285716,4.235714285714286L13.764285714285716,4.45L13.978571428571428,4.45L13.978571428571428,4.664285714285715L14.62142857142857,4.664285714285715L14.62142857142857,4.878571428571429L14.835714285714285,4.878571428571429L14.835714285714285,5.0928571428571425L15.907142857142858,5.0928571428571425L15.907142857142858,5.307142857142857L16.12142857142857,5.307142857142857L16.12142857142857,5.521428571428571L16.335714285714285,5.521428571428571L16.335714285714285,5.735714285714286L16.55,5.735714285714286L16.55,5.95L16.764285714285716,5.95L16.764285714285716,6.378571428571428L16.978571428571428,6.378571428571428L16.978571428571428,6.807142857142857L17.621428571428574,6.807142857142857L17.621428571428574,7.021428571428571L17.835714285714285,7.021428571428571L17.835714285714285,7.235714285714286L18.05,7.235714285714286L18.05,7.5L17.95,7.5L17.95,7.335714285714285L17.735714285714284,7.335714285714285L17.735714285714284,7.121428571428571L17.521428571428572,7.121428571428571L17.521428571428572,6.907142857142857L16.878571428571426,6.907142857142857L16.878571428571426,6.478571428571428L16.664285714285715,6.478571428571428L16.664285714285715,6.05L16.45,6.05L16.45,5.835714285714285L16.235714285714284,5.835714285714285L16.235714285714284,5.621428571428571L16.02142857142857,5.621428571428571L16.02142857142857,5.407142857142857L15.807142857142857,5.407142857142857L15.807142857142857,5.192857142857142L14.735714285714284,5.192857142857142L14.735714285714284,4.978571428571429L14.521428571428569,4.978571428571429L14.521428571428569,4.764285714285714L13.878571428571426,4.764285714285714L13.878571428571426,4.55L13.664285714285715,4.55L13.664285714285715,4.335714285714285L10.021428571428569,4.335714285714285L10.021428571428569,4.121428571428571L7.121428571428571,4.121428571428571L7.121428571428571,4.878571428571429L7.55,4.878571428571429L7.55,5.307142857142857L7.978571428571428,5.307142857142857L7.978571428571428,5.521428571428571L8.192857142857143,5.521428571428571L8.192857142857143,5.735714285714286L8.407142857142858,5.735714285714286L8.407142857142858,6.5928571428571425L9.264285714285716,6.5928571428571425L9.264285714285716,6.807142857142857L9.478571428571428,6.807142857142857L9.478571428571428,7.021428571428571L12.478571428571428,7.021428571428571L12.478571428571428,7.978571428571428L12.264285714285716,7.978571428571428L12.264285714285716,8.407142857142858L10.978571428571428,8.407142857142858L10.978571428571428,8.62142857142857L10.764285714285716,8.62142857142857L10.764285714285716,8.835714285714285L8.62142857142857,8.835714285714285L8.62142857142857,9.264285714285716L7.978571428571428,9.264285714285716L7.978571428571428,9.478571428571428L7.021428571428571,9.478571428571428L7.021428571428571,9.264285714285716L6.807142857142857,9.264285714285716L6.807142857142857,9.05L6.5928571428571425,9.05L6.5928571428571425,8.407142857142858L6.164285714285715,8.407142857142858L6.164285714285715,7.978571428571428L2.3071428571428574,7.978571428571428L2.3071428571428574,7.764285714285714L2.092857142857143,7.764285714285714L2.092857142857143,1.8785714285714286L68.40714285714284,1.8785714285714286L68.40714285714284,3.907142857142857L68.19285714285714,3.907142857142857L68.19285714285714,4.55z" stroke="none"/><circle cx="51" cy="10.5" r="0.25" stroke-width="0" fill="#000" /><circle cx="49.5" cy="7.5" r="0.25" stroke-width="0" fill="#000" /><circle cx="48" cy="12" r="0.25" stroke-width="0" fill="#000" /><circle cx="80.99999999999999" cy="10.5" r="0.25" stroke-width="0" fill="#000" /><circle cx="73.49999999999999" cy="10.5" r="0.25" stroke-width="0" fill="#000" /><circle cx="95.99999999999999" cy="6" r="0.25" stroke-width="0" fill="#000" /><circle cx="97.49999999999999" cy="3" r="0.25" stroke-width="0" fill="#000" /><circle cx="100.49999999999999" cy="4.5" r="0.25" stroke-width="0" fill="#000" /><circle cx="77.99999999999999" cy="6" r="0.25" stroke-width="0" fill="#000" /><circle cx="52.5" cy="6" r="0.25" stroke-width="0" fill="#000" /><circle cx="61.5" cy="7.5" r="0.25" stroke-width="0" fill="#000" /><circle cx="25.5" cy="4.5" r="0.25" stroke-width="0" fill="#000" /><circle cx="60" cy="6" r="0.25" stroke-width="0" fill="#000" /><circle cx="54" cy="4.5" r="0.25" stroke-width="0" fill="#000" /><circle cx="39" cy="3" r="0.25" stroke-width="0" fill="#000" /><circle cx="83.99999999999999" cy="7.5" r="0.25" stroke-width="0" fill="#000" /><circle cx="33" cy="3" r="0.25" stroke-width="0" fill="#000" /><circle cx="33" cy="4.5" r="0.25" stroke-width="0" fill="#000" /><circle cx="52.5" cy="3" r="0.25" stroke-width="0" fill="#000" /><circle cx="9" cy="3" r="0.25" stroke-width="0" fill="#000" /><circle cx="25.5" cy="9" r="0.25" stroke-width="0" fill="#000" /><circle cx="31.5" cy="12" r="0.25" stroke-width="0" fill="#000" /><circle cx="34.5" cy="12" r="0.25" stroke-width="0" fill="#000" /><circle cx="21" cy="12" r="0.25" stroke-width="0" fill="#000" /><circle cx="76.49999999999999" cy="10.5" r="0.25" stroke-width="0" fill="#000" /><circle cx="45" cy="9" r="0.25" stroke-width="0" fill="#000" /><circle cx="39" cy="12" r="0.25" stroke-width="0" fill="#000" /><circle cx="85.49999999999999" cy="9" r="0.25" stroke-width="0" fill="#000" /><circle cx="57" cy="6" r="0.25" stroke-width="0" fill="#000" /><circle cx="58.5" cy="6" r="0.25" stroke-width="0" fill="#000" /><circle cx="15" cy="10.5" r="0.25" stroke-width="0" fill="#000" /><circle cx="16.5" cy="10.5" r="0.25" stroke-width="0" fill="#000" /><circle cx="22.5" cy="7.5" r="0.25" stroke-width="0" fill="#000" /><circle cx="21" cy="9" r="0.25" stroke-width="0" fill="#000" /><circle cx="3" cy="4.5" r="0.25" stroke-width="0" fill="#000" /><circle cx="3" cy="7.5" r="0.25" stroke-width="0" fill="#000" /><circle cx="33" cy="6" r="0.25" stroke-width="0" fill="#000" /><circle cx="30" cy="9" r="0.25" stroke-width="0" fill="#000" /><circle cx="21" cy="3" r="0.25" stroke-width="0" fill="#000" /><circle cx="24" cy="7.5" r="0.25" stroke-width="0" fill="#000" /><circle cx="36" cy="4.5" r="0.25" stroke-width="0" fill="#000" /><circle cx="40.5" cy="7.5" r="0.25" stroke-width="0" fill="#000" /><circle cx="82.49999999999999" cy="3" r="0.25" stroke-width="0" fill="#000" /><circle cx="88.49999999999999" cy="3" r="0.25" stroke-width="0" fill="#000" /><circle cx="12" cy="7.5" r="0.25" stroke-width="0" fill="#000" /><circle cx="6" cy="4.5" r="0.25" stroke-width="0" fill="#000" /><circle cx="12" cy="12" r="0.25" stroke-width="0" fill="#000" /><circle cx="4.5" cy="10.5" r="0.25" stroke-width="0" fill="#000" /><circle cx="91.49999999999999" cy="10.5" r="0.25" stroke-width="0" fill="#000" /><circle cx="83.99999999999999" cy="9" r="0.25" stroke-width="0" fill="#000" /><circle cx="67.49999999999999" cy="3" r="0.25" stroke-width="0" fill="#000" /><circle cx="58.5" cy="3" r="0.25" stroke-width="0" fill="#000" /><circle cx="19.5" cy="10.5" r="0.25" stroke-width="0" fill="#000" /><circle cx="10.5" cy="10.5" r="0.25" stroke-width="0" fill="#000" /><circle cx="82.49999999999999" cy="10.5" r="0.25" stroke-width="0" fill="#000" /><circle cx="94.49999999999999" cy="10.5" r="0.25" stroke-width="0" fill="#000" /><circle cx="71.99999999999999" cy="3" r="0.25" stroke-width="0" fill="#000" /><circle cx="83.99999999999999" cy="6" r="0.25" stroke-width="0" fill="#000" /><circle cx="3" cy="3" r="0.25" stroke-width="0" fill="#000" /><circle cx="16.5" cy="4.5" r="0.25" stroke-width="0" fill="#000" /><circle cx="18" cy="9" r="0.25" stroke-width="0" fill="#000" /><circle cx="31.5" cy="4.5" r="0.25" stroke-width="0" fill="#000" /><circle cx="83.99999999999999" cy="10.5" r="0.25" stroke-width="0" fill="#000" /><circle cx="98.99999999999999" cy="10.5" r="0.25" stroke-width="0" fill="#000" /><circle cx="64.49999999999999" cy="3" r="0.25" stroke-width="0" fill="#000" /><circle cx="46.5" cy="3" r="0.25" stroke-width="0" fill="#000" /><circle cx="27" cy="10.5" r="0.25" stroke-width="0" fill="#000" /><circle cx="9" cy="12" r="0.25" stroke-width="0" fill="#000" /><circle cx="74.99999999999999" cy="4.5" r="0.25" stroke-width="0" fill="#000" /><circle cx="92.99999999999999" cy="3" r="0.25" stroke-width="0" fill="#000" /><circle cx="40.5" cy="3" r="0.25" stroke-width="0" fill="#000" /><circle cx="15" cy="4.5" r="0.25" stroke-width="0" fill="#000" /><circle cx="94.49999999999999" cy="12" r="0.25" stroke-width="0" fill="#000" /><circle cx="68.99999999999999" cy="10.5" r="0.25" stroke-width="0" fill="#000" /><circle cx="74.99999999999999" cy="10.5" r="0.25" stroke-width="0" fill="#000" /><circle cx="100.49999999999999" cy="6" r="0.25" stroke-width="0" fill="#000" /><circle cx="7.5" cy="4.5" r="0.25" stroke-width="0" fill="#000" /><circle cx="34.5" cy="7.5" r="0.25" stroke-width="0" fill="#000" /><circle cx="34.5" cy="6" r="0.25" stroke-width="0" fill="#000" /><circle cx="68.99999999999999" cy="7.5" r="0.25" stroke-width="0" fill="#000" /><circle cx="65.99999999999999" cy="10.5" r="0.25" stroke-width="0" fill="#000" /><circle cx="24" cy="12" r="0.25" stroke-width="0" fill="#000" /><circle cx="91.49999999999999" cy="4.5" r="0.25" stroke-width="0" fill="#000" /><circle cx="49.5" cy="6" r="0.25" stroke-width="0" fill="#000" /><circle cx="101.99999999999999" cy="12" r="0.25" stroke-width="0" fill="#000" /><circle cx="57" cy="9" r="0.25" stroke-width="0" fill="#000" /><circle cx="92.99999999999999" cy="12" r="0.25" stroke-width="0" fill="#000" /><circle cx="45" cy="12" r="0.25" stroke-width="0" fill="#000" /><circle cx="7.5" cy="9" r="0.25" stroke-width="0" fill="#000" /><circle cx="55.5" cy="4.5" r="0.25" stroke-width="0" fill="#000" /><circle cx="67.49999999999999" cy="4.5" r="0.25" stroke-width="0" fill="#000" /><circle cx="18" cy="7.5" r="0.25" stroke-width="0" fill="#000" /><rect x="0" y="0" width="105" height="15" stroke-width="0.2" stroke="#000" fill="none" /></svg>