<svg version="1.1" width="105" height="15" xmlns="http://www.w3.org/2000/svg"><path d="M97.12142857142855,10.45L97.12142857142855,10.878571428571426L98.40714285714284,10.878571428571426L98.40714285714284,11.307142857142857L98.83571428571427,11.307142857142857L98.83571428571427,11.735714285714284L99.04999999999998,11.735714285714284L99.04999999999998,12L98.94999999999999,12L98.94999999999999,11.835714285714285L98.73571428571428,11.835714285714285L98.73571428571428,11.407142857142858L98.30714285714285,11.407142857142858L98.30714285714285,10.978571428571428L97.02142857142856,10.978571428571428L97.02142857142856,10.55L87.47857142857141,10.55L87.47857142857141,11.192857142857143L87.2642857142857,11.192857142857143L87.2642857142857,11.835714285714285L87.04999999999998,11.835714285714285L87.04999999999998,12L86.94999999999999,12L86.94999999999999,11.735714285714284L87.16428571428571,11.735714285714284L87.16428571428571,11.092857142857142L87.37857142857142,11.092857142857142L87.37857142857142,10.55L80.09285714285714,10.55L80.09285714285714,9.478571428571428L79.66428571428571,9.478571428571428L79.66428571428571,9.264285714285716L77.94999999999999,9.264285714285716L77.94999999999999,9.05L77.30714285714285,9.05L77.30714285714285,8.407142857142858L77.09285714285714,8.407142857142858L77.09285714285714,7.978571428571428L76.44999999999999,7.978571428571428L76.44999999999999,7.5L76.54999999999998,7.5L76.54999999999998,7.878571428571428L77.19285714285714,7.878571428571428L77.19285714285714,8.307142857142857L77.40714285714284,8.307142857142857L77.40714285714284,8.95L78.04999999999998,8.95L78.04999999999998,9.164285714285715L79.7642857142857,9.164285714285715L79.7642857142857,9.378571428571426L80.19285714285714,9.378571428571426L80.19285714285714,10.45z" stroke="none"/><path d="M17.621428571428574,7.45L17.621428571428574,7.878571428571428L25.235714285714284,7.878571428571428L25.235714285714284,7.664285714285715L25.45,7.664285714285715L25.45,7.45L27,7.45L27,7.55L25.55,7.55L25.55,7.764285714285714L25.335714285714285,7.764285714285714L25.335714285714285,7.978571428571428L17.521428571428572,7.978571428571428L17.521428571428572,7.55L15.05,7.55L15.05,7.764285714285714L14.407142857142858,7.764285714285714L14.407142857142858,7.978571428571428L13.978571428571428,7.978571428571428L13.978571428571428,8.407142857142858L13.764285714285716,8.407142857142858L13.764285714285716,8.835714285714285L13.55,8.835714285714285L13.55,9L13.45,9L13.45,8.735714285714284L13.664285714285715,8.735714285714284L13.664285714285715,8.307142857142857L13.878571428571426,8.307142857142857L13.878571428571426,7.878571428571428L14.307142857142857,7.878571428571428L14.307142857142857,7.664285714285715L14.95,7.664285714285715L14.95,7.55L5.521428571428571,7.55L5.521428571428571,6.264285714285714L4.45,6.264285714285714L4.45,6L4.55,6L4.55,6.164285714285715L5.621428571428571,6.164285714285715L5.621428571428571,7.45z" stroke="none"/><path d="M71.94999999999999,8.307142857142857L71.94999999999999,6.5928571428571425L72.37857142857142,6.5928571428571425L72.37857142857142,5.95L73.49999999999999,5.95L73.49999999999999,6.05L72.47857142857141,6.05L72.47857142857141,6.692857142857142L72.04999999999998,6.692857142857142L72.04999999999998,8.307142857142857L75.69285714285714,8.307142857142857L75.69285714285714,8.521428571428569L75.90714285714284,8.521428571428569L75.90714285714284,8.95L76.49999999999999,8.95L76.49999999999999,9.05L75.80714285714285,9.05L75.80714285714285,8.62142857142857L75.59285714285714,8.62142857142857L75.59285714285714,8.407142857142858L69.90714285714284,8.407142857142858L69.90714285714284,8.835714285714285L68.83571428571427,8.835714285714285L68.83571428571427,9.264285714285716L68.62142857142855,9.264285714285716L68.62142857142855,9.478571428571428L68.19285714285714,9.478571428571428L68.19285714285714,9.692857142857143L67.97857142857141,9.692857142857143L67.97857142857141,10.12142857142857L66.90714285714284,10.12142857142857L66.90714285714284,10.55L65.99999999999999,10.55L65.99999999999999,10.45L66.80714285714285,10.45L66.80714285714285,10.021428571428569L67.87857142857142,10.021428571428569L67.87857142857142,9.592857142857142L68.09285714285714,9.592857142857142L68.09285714285714,9.378571428571426L68.52142857142856,9.378571428571426L68.52142857142856,9.164285714285715L68.73571428571428,9.164285714285715L68.73571428571428,8.735714285714284L69.80714285714285,8.735714285714284L69.80714285714285,8.307142857142857z" stroke="none"/><path d="M69.80714285714285,5.307142857142857L69.80714285714285,5.0928571428571425L86.40714285714284,5.0928571428571425L86.40714285714284,5.307142857142857L86.62142857142855,5.307142857142857L86.62142857142855,5.521428571428571L86.83571428571427,5.521428571428571L86.83571428571427,5.735714285714286L87.04999999999998,5.735714285714286L87.04999999999998,5.95L88.49999999999999,5.95L88.49999999999999,6.05L86.94999999999999,6.05L86.94999999999999,5.835714285714285L86.73571428571428,5.835714285714285L86.73571428571428,5.621428571428571L86.52142857142856,5.621428571428571L86.52142857142856,5.407142857142857L86.30714285714285,5.407142857142857L86.30714285714285,5.192857142857142L69.90714285714284,5.192857142857142L69.90714285714284,5.307142857142857L78.69285714285714,5.307142857142857L78.69285714285714,5.521428571428571L79.12142857142855,5.521428571428571L79.12142857142855,5.95L79.49999999999999,5.95L79.49999999999999,6.05L79.02142857142856,6.05L79.02142857142856,5.621428571428571L78.59285714285714,5.621428571428571L78.59285714285714,5.407142857142857L42.16428571428572,5.407142857142857L42.16428571428572,5.192857142857142L41.95,5.192857142857142L41.95,4.5L42.05,4.5L42.05,5.0928571428571425L42.26428571428571,5.0928571428571425L42.26428571428571,5.307142857142857z" stroke="none"/><path d="M32.30714285714286,10.45L32.30714285714286,9.478571428571428L31.45,9.478571428571428L31.45,9L31.55,9L31.55,9.378571428571426L32.40714285714285,9.378571428571426L32.40714285714285,10.45L33,10.45L33,10.55L32.40714285714285,10.55L32.40714285714285,10.664285714285715L34.12142857142857,10.664285714285715L34.12142857142857,10.878571428571426L34.76428571428571,10.878571428571426L34.76428571428571,11.092857142857142L34.97857142857143,11.092857142857142L34.97857142857143,11.521428571428569L35.192857142857136,11.521428571428569L35.192857142857136,11.735714285714284L35.40714285714285,11.735714285714284L35.40714285714285,12.164285714285715L35.62142857142857,12.164285714285715L35.62142857142857,12.378571428571426L54.378571428571426,12.378571428571426L54.378571428571426,11.735714285714284L54.80714285714286,11.735714285714284L54.80714285714286,11.521428571428569L55.02142857142857,11.521428571428569L55.02142857142857,11.307142857142857L55.23571428571429,11.307142857142857L55.23571428571429,10.45L55.5,10.45L55.5,10.55L55.33571428571428,10.55L55.33571428571428,11.407142857142858L55.12142857142857,11.407142857142858L55.12142857142857,11.62142857142857L54.90714285714285,11.62142857142857L54.90714285714285,11.835714285714285L54.47857142857142,11.835714285714285L54.47857142857142,12.478571428571428L35.52142857142857,12.478571428571428L35.52142857142857,12.264285714285716L35.30714285714286,12.264285714285716L35.30714285714286,11.835714285714285L35.09285714285714,11.835714285714285L35.09285714285714,11.62142857142857L34.87857142857143,11.62142857142857L34.87857142857143,11.192857142857143L34.66428571428572,11.192857142857143L34.66428571428572,10.978571428571428L34.02142857142857,10.978571428571428L34.02142857142857,10.764285714285716L32.30714285714286,10.764285714285716L32.30714285714286,10.55L29.40714285714286,10.55L29.40714285714286,10.764285714285716L28.978571428571428,10.764285714285716L28.978571428571428,10.978571428571428L10.978571428571428,10.978571428571428L10.978571428571428,11.62142857142857L10.764285714285716,11.62142857142857L10.764285714285716,12.05L10.5,12.05L10.5,11.95L10.664285714285715,11.95L10.664285714285715,11.521428571428569L10.878571428571426,11.521428571428569L10.878571428571426,10.878571428571426L28.878571428571426,10.878571428571426L28.878571428571426,10.664285714285715L29.307142857142857,10.664285714285715L29.307142857142857,10.45z" stroke="none"/><path d="M47.09285714285714,10.664285714285715L47.09285714285714,10.55L46.878571428571426,10.55L46.878571428571426,10.335714285714285L42.692857142857136,10.335714285714285L42.692857142857136,10.55L42.47857142857143,10.55L42.47857142857143,10.978571428571428L36.26428571428571,10.978571428571428L36.26428571428571,11.835714285714285L36.05,11.835714285714285L36.05,12L35.95,12L35.95,11.735714285714284L36.16428571428572,11.735714285714284L36.16428571428572,10.878571428571426L42.37857142857143,10.878571428571426L42.37857142857143,10.45L42.59285714285714,10.45L42.59285714285714,10.235714285714284L46.97857142857142,10.235714285714284L46.97857142857142,10.45L47.192857142857136,10.45L47.192857142857136,10.664285714285715L47.40714285714285,10.664285714285715L47.40714285714285,10.878571428571426L51.59285714285714,10.878571428571426L51.59285714285714,10.021428571428569L51.80714285714286,10.021428571428569L51.80714285714286,9.164285714285715L52.45,9.164285714285715L52.45,9L52.55,9L52.55,9.264285714285716L51.90714285714285,9.264285714285716L51.90714285714285,10.12142857142857L51.692857142857136,10.12142857142857L51.692857142857136,10.978571428571428L47.30714285714286,10.978571428571428L47.30714285714286,10.764285714285716L47.192857142857136,10.764285714285716L47.192857142857136,11.092857142857142L53.40714285714285,11.092857142857142L53.40714285714285,11.521428571428569L54.05,11.521428571428569L54.05,12L53.95,12L53.95,11.62142857142857L53.30714285714286,11.62142857142857L53.30714285714286,11.192857142857143L47.09285714285714,11.192857142857143L47.09285714285714,10.764285714285716L46.45,10.764285714285716L46.45,10.5L46.55,10.5L46.55,10.664285714285715z" stroke="none"/><path d="M80.94999999999999,6.164285714285715L80.94999999999999,6.05L80.19285714285714,6.05L80.19285714285714,6.478571428571428L74.30714285714285,6.478571428571428L74.30714285714285,6.264285714285714L74.09285714285714,6.264285714285714L74.09285714285714,5.835714285714285L73.87857142857142,5.835714285714285L73.87857142857142,5.621428571428571L69.90714285714284,5.621428571428571L69.90714285714284,5.835714285714285L69.69285714285714,5.835714285714285L69.69285714285714,6.05L68.99999999999999,6.05L68.99999999999999,5.95L69.59285714285714,5.95L69.59285714285714,5.735714285714286L69.80714285714285,5.735714285714286L69.80714285714285,5.521428571428571L73.97857142857141,5.521428571428571L73.97857142857141,5.735714285714286L74.19285714285714,5.735714285714286L74.19285714285714,6.164285714285715L74.40714285714284,6.164285714285715L74.40714285714284,6.378571428571428L80.09285714285714,6.378571428571428L80.09285714285714,5.95L81.04999999999998,5.95L81.04999999999998,6.164285714285715L83.19285714285714,6.164285714285715L83.19285714285714,6.378571428571428L88.87857142857142,6.378571428571428L88.87857142857142,5.621428571428571L86.94999999999999,5.621428571428571L86.94999999999999,5.407142857142857L86.73571428571428,5.407142857142857L86.73571428571428,5.192857142857142L86.52142857142856,5.192857142857142L86.52142857142856,4.978571428571429L85.02142857142856,4.978571428571429L85.02142857142856,4.764285714285714L83.09285714285714,4.764285714285714L83.09285714285714,4.55L82.49999999999999,4.55L82.49999999999999,4.45L83.19285714285714,4.45L83.19285714285714,4.664285714285715L85.12142857142855,4.664285714285715L85.12142857142855,4.878571428571429L86.62142857142855,4.878571428571429L86.62142857142855,5.0928571428571425L86.83571428571427,5.0928571428571425L86.83571428571427,5.307142857142857L87.04999999999998,5.307142857142857L87.04999999999998,5.521428571428571L88.97857142857141,5.521428571428571L88.97857142857141,6.478571428571428L83.09285714285714,6.478571428571428L83.09285714285714,6.264285714285714L81.04999999999998,6.264285714285714L81.04999999999998,7.5L80.94999999999999,7.5L80.94999999999999,6.264285714285714L80.83571428571427,6.264285714285714L80.83571428571427,7.664285714285715L90.80714285714285,7.664285714285715L90.80714285714285,7.45L91.49999999999999,7.45L91.49999999999999,7.55L90.90714285714284,7.55L90.90714285714284,7.764285714285714L80.73571428571428,7.764285714285714L80.73571428571428,6.164285714285715z" stroke="none"/><path d="M46.66428571428572,8.521428571428569L46.66428571428572,8.307142857142857L66.59285714285714,8.307142857142857L66.59285714285714,8.092857142857142L67.02142857142856,8.092857142857142L67.02142857142856,7.878571428571428L67.23571428571428,7.878571428571428L67.23571428571428,7.45L67.49999999999999,7.45L67.49999999999999,7.55L67.33571428571427,7.55L67.33571428571427,7.978571428571428L67.12142857142855,7.978571428571428L67.12142857142855,8.192857142857143L66.69285714285714,8.192857142857143L66.69285714285714,8.407142857142858L46.76428571428571,8.407142857142858L46.76428571428571,8.521428571428569L53.62142857142857,8.521428571428569L53.62142857142857,8.735714285714284L53.83571428571428,8.735714285714284L53.83571428571428,8.95L54,8.95L54,9.05L53.73571428571429,9.05L53.73571428571429,8.835714285714285L53.52142857142857,8.835714285714285L53.52142857142857,8.62142857142857L46.76428571428571,8.62142857142857L46.76428571428571,9.378571428571426L47.192857142857136,9.378571428571426L47.192857142857136,9.592857142857142L47.83571428571428,9.592857142857142L47.83571428571428,10.235714285714284L48.05,10.235714285714284L48.05,10.5L47.95,10.5L47.95,10.335714285714285L47.73571428571429,10.335714285714285L47.73571428571429,9.692857142857143L47.09285714285714,9.692857142857143L47.09285714285714,9.478571428571428L46.66428571428572,9.478571428571428L46.66428571428572,8.62142857142857L42.80714285714286,8.62142857142857L42.80714285714286,8.192857142857143L39.16428571428572,8.192857142857143L39.16428571428572,7.978571428571428L27.807142857142857,7.978571428571428L27.807142857142857,7.55L27.59285714285714,7.55L27.59285714285714,7.335714285714285L27.378571428571426,7.335714285714285L27.378571428571426,7.121428571428571L18.264285714285716,7.121428571428571L18.264285714285716,7.335714285714285L18.05,7.335714285714285L18.05,7.5L17.95,7.5L17.95,7.235714285714286L18.164285714285715,7.235714285714286L18.164285714285715,7.021428571428571L27.478571428571428,7.021428571428571L27.478571428571428,7.235714285714286L27.692857142857143,7.235714285714286L27.692857142857143,7.45L27.90714285714286,7.45L27.90714285714286,7.878571428571428L39.26428571428571,7.878571428571428L39.26428571428571,8.092857142857142L42.90714285714285,8.092857142857142L42.90714285714285,8.521428571428569z" stroke="none"/><path d="M89.99999999999999,3.05L89.99999999999999,2.95L91.49999999999999,2.95L91.49999999999999,3.05z" stroke="none"/><path d="M85.49999999999999,5.95L85.49999999999999,6.05L83.99999999999999,6.05L83.99999999999999,5.95z" stroke="none"/><path d="M98.94999999999999,9L99.04999999999998,9L99.04999999999998,9.264285714285716L98.40714285714284,9.264285714285716L98.40714285714284,9.478571428571428L97.97857142857141,9.478571428571428L97.97857142857141,9.907142857142858L97.7642857142857,9.907142857142858L97.7642857142857,10.335714285714285L97.54999999999998,10.335714285714285L97.54999999999998,10.5L97.44999999999999,10.5L97.44999999999999,10.235714285714284L97.66428571428571,10.235714285714284L97.66428571428571,9.807142857142857L97.87857142857142,9.807142857142857L97.87857142857142,9.378571428571426L98.30714285714285,9.378571428571426L98.30714285714285,9.164285714285715L98.94999999999999,9.164285714285715z" stroke="none"/><path d="M10.5,2.95L10.5,3.05L7.5,3.05L7.5,2.95z" stroke="none"/><path d="M55.5,2.95L55.5,3.05L54.692857142857136,3.05L54.692857142857136,3.478571428571428L53.62142857142857,3.478571428571428L53.62142857142857,3.907142857142857L53.40714285714285,3.907142857142857L53.40714285714285,4.335714285714285L52.76428571428571,4.335714285714285L52.76428571428571,4.55L52.5,4.55L52.5,4.45L52.66428571428572,4.45L52.66428571428572,4.235714285714286L53.30714285714286,4.235714285714286L53.30714285714286,3.8071428571428574L53.52142857142857,3.8071428571428574L53.52142857142857,3.3785714285714286L54.59285714285714,3.3785714285714286L54.59285714285714,2.95z" stroke="none"/><path d="M13.5,5.95L13.5,6.05L9,6.05L9,5.95z" stroke="none"/><path d="M7.5,10.45L7.5,10.55L3,10.55L3,10.45z" stroke="none"/><path d="M97.49999999999999,2.95L97.49999999999999,3.05L96.59285714285713,3.05L96.59285714285713,2.8357142857142854L96.37857142857142,2.8357142857142854L96.37857142857142,2.6214285714285714L94.33571428571427,2.6214285714285714L94.33571428571427,2.8357142857142854L94.12142857142855,2.8357142857142854L94.12142857142855,3.05L92.99999999999999,3.05L92.99999999999999,2.95L94.02142857142856,2.95L94.02142857142856,2.7357142857142858L94.23571428571428,2.7357142857142858L94.23571428571428,2.521428571428572L96.47857142857141,2.521428571428572L96.47857142857141,2.7357142857142858L96.69285714285712,2.7357142857142858L96.69285714285712,2.95z" stroke="none"/><path d="M10.5,8.95L10.5,9.05L9.264285714285716,9.05L9.264285714285716,9.264285714285716L8.62142857142857,9.264285714285716L8.62142857142857,10.55L7.978571428571428,10.55L7.978571428571428,10.978571428571428L6.478571428571428,10.978571428571428L6.478571428571428,11.192857142857143L6.264285714285714,11.192857142857143L6.264285714285714,11.407142857142858L6.05,11.407142857142858L6.05,12L5.95,12L5.95,11.307142857142857L6.164285714285715,11.307142857142857L6.164285714285715,11.092857142857142L6.378571428571428,11.092857142857142L6.378571428571428,10.878571428571426L7.878571428571428,10.878571428571426L7.878571428571428,10.45L8.521428571428569,10.45L8.521428571428569,9.164285714285715L9.164285714285715,9.164285714285715L9.164285714285715,8.95z" stroke="none"/><path d="M85.49999999999999,9.05L85.49999999999999,8.95L90.16428571428571,8.95L90.16428571428571,8.735714285714284L90.37857142857142,8.735714285714284L90.37857142857142,8.521428571428569L90.59285714285714,8.521428571428569L90.59285714285714,8.307142857142857L90.80714285714285,8.307142857142857L90.80714285714285,8.092857142857142L91.23571428571428,8.092857142857142L91.23571428571428,7.878571428571428L91.87857142857142,7.878571428571428L91.87857142857142,5.407142857142857L91.66428571428571,5.407142857142857L91.66428571428571,5.192857142857142L91.44999999999999,5.192857142857142L91.44999999999999,4.5L91.54999999999998,4.5L91.54999999999998,5.0928571428571425L91.7642857142857,5.0928571428571425L91.7642857142857,5.307142857142857L91.97857142857141,5.307142857142857L91.97857142857141,7.978571428571428L91.33571428571427,7.978571428571428L91.33571428571427,8.192857142857143L90.90714285714284,8.192857142857143L90.90714285714284,8.407142857142858L90.69285714285714,8.407142857142858L90.69285714285714,8.62142857142857L90.47857142857141,8.62142857142857L90.47857142857141,8.835714285714285L90.2642857142857,8.835714285714285L90.2642857142857,9.05z" stroke="none"/><path d="M64.49999999999999,10.55L64.49999999999999,10.45L65.19285714285714,10.45L65.19285714285714,10.664285714285715L65.62142857142855,10.664285714285715L65.62142857142855,10.878571428571426L68.94999999999999,10.878571428571426L68.94999999999999,10.664285714285715L69.16428571428571,10.664285714285715L69.16428571428571,10.45L71.99999999999999,10.45L71.99999999999999,10.55L69.2642857142857,10.55L69.2642857142857,10.764285714285716L69.04999999999998,10.764285714285716L69.04999999999998,10.978571428571428L65.52142857142856,10.978571428571428L65.52142857142856,10.764285714285716L65.09285714285714,10.764285714285716L65.09285714285714,10.55z" stroke="none"/><path d="M21,10.55L21,10.45L28.5,10.45L28.5,10.55z" stroke="none"/><path d="M42,10.45L42,10.55L34.5,10.55L34.5,10.45z" stroke="none"/><path d="M15,12.05L15,11.95L15.692857142857143,11.95L15.692857142857143,12.164285714285715L16.12142857142857,12.164285714285715L16.12142857142857,12.378571428571426L23.307142857142857,12.378571428571426L23.307142857142857,12.164285714285715L23.52142857142857,12.164285714285715L23.52142857142857,11.95L24,11.95L24,12.05L23.62142857142857,12.05L23.62142857142857,12.264285714285716L23.40714285714286,12.264285714285716L23.40714285714286,12.478571428571428L16.02142857142857,12.478571428571428L16.02142857142857,12.264285714285716L15.592857142857142,12.264285714285716L15.592857142857142,12.05z" stroke="none"/><path d="M51,7.55L51,7.45L63,7.45L63,7.55z" stroke="none"/><path d="M65.99999999999999,2.95L65.99999999999999,3.05L59.62142857142857,3.05L59.62142857142857,3.2642857142857142L58.55,3.2642857142857142L58.55,3.478571428571428L56.83571428571428,3.478571428571428L56.83571428571428,3.6928571428571426L55.12142857142857,3.6928571428571426L55.12142857142857,3.907142857142857L54.90714285714285,3.907142857142857L54.90714285714285,4.335714285714285L54.05,4.335714285714285L54.05,4.5L53.95,4.5L53.95,4.235714285714286L54.80714285714286,4.235714285714286L54.80714285714286,3.8071428571428574L55.02142857142857,3.8071428571428574L55.02142857142857,3.592857142857143L56.73571428571429,3.592857142857143L56.73571428571429,3.3785714285714286L58.45,3.3785714285714286L58.45,3.1642857142857146L59.52142857142857,3.1642857142857146L59.52142857142857,2.95z" stroke="none"/><path d="M64.49999999999999,5.95L64.49999999999999,6.05L56.30714285714286,6.05L56.30714285714286,5.621428571428571L41.95,5.621428571428571L41.95,5.407142857142857L41.73571428571429,5.407142857142857L41.73571428571429,5.192857142857142L41.52142857142857,5.192857142857142L41.52142857142857,4.021428571428571L51.26428571428571,4.021428571428571L51.26428571428571,4.235714285714286L51.47857142857142,4.235714285714286L51.47857142857142,4.45L51.90714285714285,4.45L51.90714285714285,4.664285714285715L52.12142857142857,4.664285714285715L52.12142857142857,4.878571428571429L79.02142857142856,4.878571428571429L79.02142857142856,4.45L79.49999999999999,4.45L79.49999999999999,4.55L79.12142857142855,4.55L79.12142857142855,4.978571428571429L52.02142857142857,4.978571428571429L52.02142857142857,4.764285714285714L51.80714285714286,4.764285714285714L51.80714285714286,4.55L51.378571428571426,4.55L51.378571428571426,4.335714285714285L51.16428571428572,4.335714285714285L51.16428571428572,4.121428571428571L41.62142857142857,4.121428571428571L41.62142857142857,5.0928571428571425L41.83571428571428,5.0928571428571425L41.83571428571428,5.307142857142857L42.05,5.307142857142857L42.05,5.521428571428571L56.40714285714285,5.521428571428571L56.40714285714285,5.95z" stroke="none"/><path d="M73.49999999999999,7.55L73.49999999999999,7.45L75.80714285714285,7.45L75.80714285714285,7.235714285714286L76.02142857142856,7.235714285714286L76.02142857142856,7.021428571428571L79.12142857142855,7.021428571428571L79.12142857142855,7.235714285714286L80.40714285714284,7.235714285714286L80.40714285714284,7.45L80.62142857142855,7.45L80.62142857142855,7.878571428571428L82.33571428571427,7.878571428571428L82.33571428571427,8.092857142857142L83.19285714285714,8.092857142857142L83.19285714285714,8.521428571428569L83.62142857142855,8.521428571428569L83.62142857142855,8.735714285714284L84.2642857142857,8.735714285714284L84.2642857142857,8.95L84.69285714285714,8.95L84.69285714285714,9.164285714285715L85.12142857142855,9.164285714285715L85.12142857142855,9.378571428571426L91.02142857142856,9.378571428571426L91.02142857142856,9.164285714285715L91.23571428571428,9.164285714285715L91.23571428571428,8.735714285714284L91.44999999999999,8.735714285714284L91.44999999999999,8.521428571428569L91.66428571428571,8.521428571428569L91.66428571428571,8.307142857142857L91.87857142857142,8.307142857142857L91.87857142857142,8.092857142857142L92.09285714285713,8.092857142857142L92.09285714285713,6.164285714285715L92.30714285714285,6.164285714285715L92.30714285714285,5.521428571428571L92.94999999999999,5.521428571428571L92.94999999999999,4.5L93.04999999999998,4.5L93.04999999999998,5.621428571428571L92.40714285714284,5.621428571428571L92.40714285714284,6.264285714285714L92.19285714285712,6.264285714285714L92.19285714285712,8.192857142857143L91.97857142857141,8.192857142857143L91.97857142857141,8.407142857142858L91.7642857142857,8.407142857142858L91.7642857142857,8.62142857142857L91.54999999999998,8.62142857142857L91.54999999999998,8.835714285714285L91.33571428571427,8.835714285714285L91.33571428571427,9.264285714285716L91.12142857142855,9.264285714285716L91.12142857142855,9.478571428571428L85.02142857142856,9.478571428571428L85.02142857142856,9.264285714285716L84.59285714285714,9.264285714285716L84.59285714285714,9.05L84.16428571428571,9.05L84.16428571428571,8.835714285714285L83.52142857142856,8.835714285714285L83.52142857142856,8.62142857142857L83.09285714285714,8.62142857142857L83.09285714285714,8.192857142857143L82.23571428571428,8.192857142857143L82.23571428571428,7.978571428571428L80.52142857142856,7.978571428571428L80.52142857142856,7.55L80.30714285714285,7.55L80.30714285714285,7.335714285714285L79.02142857142856,7.335714285714285L79.02142857142856,7.121428571428571L76.12142857142855,7.121428571428571L76.12142857142855,7.335714285714285L75.90714285714284,7.335714285714285L75.90714285714284,7.55z" stroke="none"/><path d="M74.99999999999999,3.05L74.99999999999999,2.95L89.62142857142855,2.95L89.62142857142855,3.3785714285714286L93.47857142857141,3.3785714285714286L93.47857142857141,7.235714285714286L93.69285714285712,7.235714285714286L93.69285714285712,7.45L94.49999999999999,7.45L94.49999999999999,7.55L93.59285714285713,7.55L93.59285714285713,7.335714285714285L93.37857142857142,7.335714285714285L93.37857142857142,3.478571428571428L89.52142857142856,3.478571428571428L89.52142857142856,3.05z" stroke="none"/><path d="M34.5,8.95L34.5,9.05L32.52142857142857,9.05L32.52142857142857,8.835714285714285L32.30714285714286,8.835714285714285L32.30714285714286,8.62142857142857L15.05,8.62142857142857L15.05,9.05L14.192857142857143,9.05L14.192857142857143,9.264285714285716L13.978571428571428,9.264285714285716L13.978571428571428,9.478571428571428L11.95,9.478571428571428L11.95,9.264285714285716L11.521428571428569,9.264285714285716L11.521428571428569,9.05L10.878571428571426,9.05L10.878571428571426,8.62142857142857L5.521428571428571,8.62142857142857L5.521428571428571,7.978571428571428L5.307142857142857,7.978571428571428L5.307142857142857,7.335714285714285L4.878571428571429,7.335714285714285L4.878571428571429,6.907142857142857L4.664285714285715,6.907142857142857L4.664285714285715,6.692857142857142L4.235714285714286,6.692857142857142L4.235714285714286,6.478571428571428L4.021428571428571,6.478571428571428L4.021428571428571,5.521428571428571L39.47857142857143,5.521428571428571L39.47857142857143,5.735714285714286L39.692857142857136,5.735714285714286L39.692857142857136,5.95L39.90714285714285,5.95L39.90714285714285,6.164285714285715L41.62142857142857,6.164285714285715L41.62142857142857,6.378571428571428L55.45,6.378571428571428L55.45,6L55.55,6L55.55,6.478571428571428L41.52142857142857,6.478571428571428L41.52142857142857,6.264285714285714L39.80714285714286,6.264285714285714L39.80714285714286,6.05L39.59285714285714,6.05L39.59285714285714,5.835714285714285L39.37857142857143,5.835714285714285L39.37857142857143,5.621428571428571L4.121428571428571,5.621428571428571L4.121428571428571,6.378571428571428L4.335714285714285,6.378571428571428L4.335714285714285,6.5928571428571425L4.764285714285714,6.5928571428571425L4.764285714285714,6.807142857142857L4.978571428571429,6.807142857142857L4.978571428571429,7.235714285714286L5.407142857142857,7.235714285714286L5.407142857142857,7.878571428571428L5.621428571428571,7.878571428571428L5.621428571428571,8.521428571428569L10.978571428571428,8.521428571428569L10.978571428571428,8.95L11.62142857142857,8.95L11.62142857142857,9.164285714285715L12.05,9.164285714285715L12.05,9.378571428571426L13.878571428571426,9.378571428571426L13.878571428571426,9.164285714285715L14.092857142857142,9.164285714285715L14.092857142857142,8.95L14.95,8.95L14.95,8.521428571428569L32.40714285714285,8.521428571428569L32.40714285714285,8.735714285714284L32.62142857142857,8.735714285714284L32.62142857142857,8.95z" stroke="none"/><path d="M80.99999999999999,9.05L80.99999999999999,8.95L84.04999999999998,8.95L84.04999999999998,9.164285714285715L84.47857142857141,9.164285714285715L84.47857142857141,9.378571428571426L84.90714285714284,9.378571428571426L84.90714285714284,9.592857142857142L97.66428571428571,9.592857142857142L97.66428571428571,8.95L98.09285714285713,8.95L98.09285714285713,8.521428571428569L99.47857142857141,8.521428571428569L99.47857142857141,9.807142857142857L99.69285714285712,9.807142857142857L99.69285714285712,10.235714285714284L101.83571428571427,10.235714285714284L101.83571428571427,11.307142857142857L102.04999999999998,11.307142857142857L102.04999999999998,12L101.94999999999999,12L101.94999999999999,11.407142857142858L101.73571428571428,11.407142857142858L101.73571428571428,10.335714285714285L99.59285714285713,10.335714285714285L99.59285714285713,9.907142857142858L99.37857142857142,9.907142857142858L99.37857142857142,8.62142857142857L98.19285714285712,8.62142857142857L98.19285714285712,9.05L97.7642857142857,9.05L97.7642857142857,9.692857142857143L84.80714285714285,9.692857142857143L84.80714285714285,9.478571428571428L84.37857142857142,9.478571428571428L84.37857142857142,9.264285714285716L83.94999999999999,9.264285714285716L83.94999999999999,9.05z" stroke="none"/><path d="M97.49999999999999,7.55L97.49999999999999,7.45L98.19285714285712,7.45L98.19285714285712,7.878571428571428L98.40714285714284,7.878571428571428L98.40714285714284,8.092857142857142L99.2642857142857,8.092857142857142L99.2642857142857,8.307142857142857L99.69285714285712,8.307142857142857L99.69285714285712,9.378571428571426L100.7642857142857,9.378571428571426L100.7642857142857,10.021428571428569L102.04999999999998,10.021428571428569L102.04999999999998,11.092857142857142L102.2642857142857,11.092857142857142L102.2642857142857,11.307142857142857L102.47857142857141,11.307142857142857L102.47857142857141,12.478571428571428L76.66428571428571,12.478571428571428L76.66428571428571,12.264285714285716L76.44999999999999,12.264285714285716L76.44999999999999,12L76.54999999999998,12L76.54999999999998,12.164285714285715L76.7642857142857,12.164285714285715L76.7642857142857,12.378571428571426L102.37857142857142,12.378571428571426L102.37857142857142,11.407142857142858L102.16428571428571,11.407142857142858L102.16428571428571,11.192857142857143L101.94999999999999,11.192857142857143L101.94999999999999,10.12142857142857L100.66428571428571,10.12142857142857L100.66428571428571,9.478571428571428L99.59285714285713,9.478571428571428L99.59285714285713,8.407142857142858L99.16428571428571,8.407142857142858L99.16428571428571,8.192857142857143L98.30714285714285,8.192857142857143L98.30714285714285,7.978571428571428L98.09285714285713,7.978571428571428L98.09285714285713,7.55z" stroke="none"/><path d="M100.44999999999999,7.5L100.54999999999998,7.5L100.54999999999998,8.735714285714284L100.7642857142857,8.735714285714284L100.7642857142857,9.164285714285715L100.97857142857141,9.164285714285715L100.97857142857141,9.378571428571426L101.40714285714284,9.378571428571426L101.40714285714284,9.592857142857142L102.2642857142857,9.592857142857142L102.2642857142857,10.235714285714284L102.47857142857141,10.235714285714284L102.47857142857141,11.092857142857142L102.69285714285712,11.092857142857142L102.69285714285712,12.692857142857143L76.02142857142856,12.692857142857143L76.02142857142856,11.521428571428569L78.69285714285714,11.521428571428569L78.69285714285714,11.735714285714284L78.90714285714284,11.735714285714284L78.90714285714284,11.95L79.49999999999999,11.95L79.49999999999999,12.05L78.80714285714285,12.05L78.80714285714285,11.835714285714285L78.59285714285714,11.835714285714285L78.59285714285714,11.62142857142857L76.12142857142855,11.62142857142857L76.12142857142855,12.592857142857142L102.59285714285713,12.592857142857142L102.59285714285713,11.192857142857143L102.37857142857142,11.192857142857143L102.37857142857142,10.335714285714285L102.16428571428571,10.335714285714285L102.16428571428571,9.692857142857143L101.30714285714285,9.692857142857143L101.30714285714285,9.478571428571428L100.87857142857142,9.478571428571428L100.87857142857142,9.264285714285716L100.66428571428571,9.264285714285716L100.66428571428571,8.835714285714285L100.44999999999999,8.835714285714285z" stroke="none"/><path d="M27,2.95L27,3.05L13.764285714285716,3.05L13.764285714285716,3.2642857142857142L11.192857142857143,3.2642857142857142L11.192857142857143,3.478571428571428L3.478571428571428,3.478571428571428L3.478571428571428,4.121428571428571L3.05,4.121428571428571L3.05,4.5L2.95,4.5L2.95,4.021428571428571L3.3785714285714286,4.021428571428571L3.3785714285714286,3.3785714285714286L11.092857142857142,3.3785714285714286L11.092857142857142,3.1642857142857146L13.664285714285715,3.1642857142857146L13.664285714285715,2.95z" stroke="none"/><path d="M95.94999999999999,3L96.04999999999998,3L96.04999999999998,3.1642857142857146L96.69285714285712,3.1642857142857146L96.69285714285712,3.3785714285714286L97.87857142857142,3.3785714285714286L97.87857142857142,2.6214285714285714L96.80714285714285,2.6214285714285714L96.80714285714285,2.407142857142857L71.40714285714284,2.407142857142857L71.40714285714284,2.6214285714285714L70.97857142857141,2.6214285714285714L70.97857142857141,2.8357142857142854L70.7642857142857,2.8357142857142854L70.7642857142857,3.05L70.49999999999999,3.05L70.49999999999999,2.95L70.66428571428571,2.95L70.66428571428571,2.7357142857142858L70.87857142857142,2.7357142857142858L70.87857142857142,2.521428571428572L71.30714285714285,2.521428571428572L71.30714285714285,2.3071428571428574L96.90714285714284,2.3071428571428574L96.90714285714284,2.521428571428572L97.97857142857141,2.521428571428572L97.97857142857141,3.478571428571428L96.59285714285713,3.478571428571428L96.59285714285713,3.2642857142857142L95.94999999999999,3.2642857142857142z" stroke="none"/><path d="M64.49999999999999,9.05L64.49999999999999,8.95L67.44999999999999,8.95L67.44999999999999,8.735714285714284L67.87857142857142,8.735714285714284L67.87857142857142,7.121428571428571L39.59285714285714,7.121428571428571L39.59285714285714,6.264285714285714L39.37857142857143,6.264285714285714L39.37857142857143,6.05L39,6.05L39,5.95L39.47857142857143,5.95L39.47857142857143,6.164285714285715L39.692857142857136,6.164285714285715L39.692857142857136,7.021428571428571L67.97857142857141,7.021428571428571L67.97857142857141,8.835714285714285L67.54999999999998,8.835714285714285L67.54999999999998,9.05z" stroke="none"/><path d="M57,10.55L57,10.45L64.12142857142857,10.45L64.12142857142857,10.878571428571426L65.40714285714284,10.878571428571426L65.40714285714284,11.092857142857142L82.7642857142857,11.092857142857142L82.7642857142857,11.307142857142857L82.97857142857141,11.307142857142857L82.97857142857141,11.521428571428569L83.40714285714284,11.521428571428569L83.40714285714284,11.735714285714284L83.62142857142855,11.735714285714284L83.62142857142855,11.95L83.99999999999999,11.95L83.99999999999999,12.05L83.52142857142856,12.05L83.52142857142856,11.835714285714285L83.30714285714285,11.835714285714285L83.30714285714285,11.62142857142857L82.87857142857142,11.62142857142857L82.87857142857142,11.407142857142858L82.66428571428571,11.407142857142858L82.66428571428571,11.192857142857143L65.30714285714285,11.192857142857143L65.30714285714285,10.978571428571428L64.02142857142857,10.978571428571428L64.02142857142857,10.55z" stroke="none"/><path d="M42,5.95L42,6.05L40.02142857142857,6.05L40.02142857142857,5.835714285714285L39.80714285714286,5.835714285714285L39.80714285714286,5.621428571428571L39.59285714285714,5.621428571428571L39.59285714285714,5.407142857142857L3.907142857142857,5.407142857142857L3.907142857142857,7.764285714285714L3.6928571428571426,7.764285714285714L3.6928571428571426,8.407142857142858L3.478571428571428,8.407142857142858L3.478571428571428,8.62142857142857L3.2642857142857142,8.62142857142857L3.2642857142857142,9.907142857142858L2.6214285714285714,9.907142857142858L2.6214285714285714,10.878571428571426L3.907142857142857,10.878571428571426L3.907142857142857,11.092857142857142L5.407142857142857,11.092857142857142L5.407142857142857,12.378571428571426L8.307142857142857,12.378571428571426L8.307142857142857,12.164285714285715L8.521428571428569,12.164285714285715L8.521428571428569,11.95L8.735714285714284,11.95L8.735714285714284,11.735714285714284L9.378571428571426,11.735714285714284L9.378571428571426,11.521428571428569L10.235714285714284,11.521428571428569L10.235714285714284,11.092857142857142L10.45,11.092857142857142L10.45,10.878571428571426L10.664285714285715,10.878571428571426L10.664285714285715,10.664285714285715L13.021428571428569,10.664285714285715L13.021428571428569,10.45L13.5,10.45L13.5,10.55L13.12142857142857,10.55L13.12142857142857,10.764285714285716L10.764285714285716,10.764285714285716L10.764285714285716,10.978571428571428L10.55,10.978571428571428L10.55,11.192857142857143L10.335714285714285,11.192857142857143L10.335714285714285,11.62142857142857L9.478571428571428,11.62142857142857L9.478571428571428,11.835714285714285L8.835714285714285,11.835714285714285L8.835714285714285,12.05L8.62142857142857,12.05L8.62142857142857,12.264285714285716L8.407142857142858,12.264285714285716L8.407142857142858,12.478571428571428L5.307142857142857,12.478571428571428L5.307142857142857,11.192857142857143L3.8071428571428574,11.192857142857143L3.8071428571428574,10.978571428571428L2.521428571428572,10.978571428571428L2.521428571428572,9.807142857142857L3.1642857142857146,9.807142857142857L3.1642857142857146,8.521428571428569L3.3785714285714286,8.521428571428569L3.3785714285714286,8.307142857142857L3.592857142857143,8.307142857142857L3.592857142857143,7.664285714285715L3.8071428571428574,7.664285714285715L3.8071428571428574,5.307142857142857L39.692857142857136,5.307142857142857L39.692857142857136,5.521428571428571L39.90714285714285,5.521428571428571L39.90714285714285,5.735714285714286L40.12142857142857,5.735714285714286L40.12142857142857,5.95z" stroke="none"/><path d="M58.5,12.05L58.5,11.95L60.90714285714285,11.95L60.90714285714285,12.164285714285715L61.12142857142857,12.164285714285715L61.12142857142857,12.378571428571426L75.04999999999998,12.378571428571426L75.04999999999998,12.592857142857142L75.69285714285714,12.592857142857142L75.69285714285714,12.807142857142857L102.80714285714285,12.807142857142857L102.80714285714285,9.692857142857143L102.59285714285713,9.692857142857143L102.59285714285713,9.478571428571428L102.37857142857142,9.478571428571428L102.37857142857142,9.264285714285716L102.16428571428571,9.264285714285716L102.16428571428571,9.05L101.94999999999999,9.05L101.94999999999999,8.407142857142858L101.73571428571428,8.407142857142858L101.73571428571428,7.764285714285714L101.30714285714285,7.764285714285714L101.30714285714285,7.335714285714285L101.09285714285713,7.335714285714285L101.09285714285713,7.121428571428571L96.2642857142857,7.121428571428571L96.2642857142857,7.335714285714285L95.83571428571427,7.335714285714285L95.83571428571427,7.764285714285714L95.62142857142855,7.764285714285714L95.62142857142855,7.978571428571428L94.12142857142855,7.978571428571428L94.12142857142855,8.62142857142857L93.47857142857141,8.62142857142857L93.47857142857141,8.835714285714285L93.04999999999998,8.835714285714285L93.04999999999998,9L92.94999999999999,9L92.94999999999999,8.735714285714284L93.37857142857142,8.735714285714284L93.37857142857142,8.521428571428569L94.02142857142856,8.521428571428569L94.02142857142856,7.878571428571428L95.52142857142856,7.878571428571428L95.52142857142856,7.664285714285715L95.73571428571428,7.664285714285715L95.73571428571428,7.235714285714286L96.16428571428571,7.235714285714286L96.16428571428571,7.021428571428571L101.19285714285712,7.021428571428571L101.19285714285712,7.235714285714286L101.40714285714284,7.235714285714286L101.40714285714284,7.664285714285715L101.83571428571427,7.664285714285715L101.83571428571427,8.307142857142857L102.04999999999998,8.307142857142857L102.04999999999998,8.95L102.2642857142857,8.95L102.2642857142857,9.164285714285715L102.47857142857141,9.164285714285715L102.47857142857141,9.378571428571426L102.69285714285712,9.378571428571426L102.69285714285712,9.592857142857142L102.90714285714284,9.592857142857142L102.90714285714284,12.907142857142858L75.59285714285714,12.907142857142858L75.59285714285714,12.692857142857143L74.94999999999999,12.692857142857143L74.94999999999999,12.478571428571428L61.02142857142857,12.478571428571428L61.02142857142857,12.264285714285716L60.80714285714286,12.264285714285716L60.80714285714286,12.05z" stroke="none"/><path d="M61.5,11.95L61.5,12.05L61.02142857142857,12.05L61.02142857142857,11.835714285714285L58.878571428571426,11.835714285714285L58.878571428571426,11.62142857142857L55.33571428571428,11.62142857142857L55.33571428571428,11.835714285714285L55.12142857142857,11.835714285714285L55.12142857142857,12.05L54.692857142857136,12.05L54.692857142857136,12.692857142857143L26.735714285714284,12.692857142857143L26.735714285714284,12.478571428571428L25.02142857142857,12.478571428571428L25.02142857142857,12.264285714285716L24.807142857142857,12.264285714285716L24.807142857142857,11.62142857142857L17.192857142857143,11.62142857142857L17.192857142857143,11.835714285714285L16.978571428571428,11.835714285714285L16.978571428571428,12.05L16.5,12.05L16.5,11.95L16.878571428571426,11.95L16.878571428571426,11.735714285714284L17.09285714285714,11.735714285714284L17.09285714285714,11.521428571428569L24.90714285714286,11.521428571428569L24.90714285714286,12.164285714285715L25.12142857142857,12.164285714285715L25.12142857142857,12.378571428571426L26.835714285714285,12.378571428571426L26.835714285714285,12.592857142857142L54.59285714285714,12.592857142857142L54.59285714285714,11.95L55.02142857142857,11.95L55.02142857142857,11.735714285714284L55.23571428571429,11.735714285714284L55.23571428571429,11.521428571428569L58.97857142857142,11.521428571428569L58.97857142857142,11.735714285714284L61.12142857142857,11.735714285714284L61.12142857142857,11.95z" stroke="none"/><path d="M9,4.55L9,4.45L35.95,4.45L35.95,4.235714285714286L39.80714285714286,4.235714285714286L39.80714285714286,4.021428571428571L41.30714285714286,4.021428571428571L41.30714285714286,3.8071428571428574L52.878571428571426,3.8071428571428574L52.878571428571426,3.3785714285714286L53.09285714285714,3.3785714285714286L53.09285714285714,3.1642857142857146L53.52142857142857,3.1642857142857146L53.52142857142857,2.95L54,2.95L54,3.05L53.62142857142857,3.05L53.62142857142857,3.2642857142857142L53.192857142857136,3.2642857142857142L53.192857142857136,3.478571428571428L52.97857142857142,3.478571428571428L52.97857142857142,3.907142857142857L41.40714285714285,3.907142857142857L41.40714285714285,4.121428571428571L39.90714285714285,4.121428571428571L39.90714285714285,4.335714285714285L36.05,4.335714285714285L36.05,4.55z" stroke="none"/><path d="M73.54999999999998,4.5L73.44999999999999,4.5L73.44999999999999,4.121428571428571L73.23571428571428,4.121428571428571L73.23571428571428,3.907142857142857L69.37857142857142,3.907142857142857L69.37857142857142,3.6928571428571426L69.16428571428571,3.6928571428571426L69.16428571428571,2.8357142857142854L68.73571428571428,2.8357142857142854L68.73571428571428,2.6214285714285714L29.192857142857143,2.6214285714285714L29.192857142857143,2.8357142857142854L28.764285714285716,2.8357142857142854L28.764285714285716,3.05L28.5,3.05L28.5,2.95L28.664285714285715,2.95L28.664285714285715,2.7357142857142858L29.09285714285714,2.7357142857142858L29.09285714285714,2.521428571428572L68.83571428571427,2.521428571428572L68.83571428571427,2.7357142857142858L69.2642857142857,2.7357142857142858L69.2642857142857,3.592857142857143L69.47857142857141,3.592857142857143L69.47857142857141,3.8071428571428574L73.33571428571427,3.8071428571428574L73.33571428571427,4.021428571428571L73.54999999999998,4.021428571428571z" stroke="none"/><circle cx="86.99999999999999" cy="12" r="0.25" stroke-width="0" fill="#000" /><circle cx="76.49999999999999" cy="7.5" r="0.25" stroke-width="0" fill="#000" /><circle cx="98.99999999999999" cy="12" r="0.25" stroke-width="0" fill="#000" /><circle cx="13.5" cy="9" r="0.25" stroke-width="0" fill="#000" /><circle cx="4.5" cy="6" r="0.25" stroke-width="0" fill="#000" /><circle cx="27" cy="7.5" r="0.25" stroke-width="0" fill="#000" /><circle cx="73.49999999999999" cy="6" r="0.25" stroke-width="0" fill="#000" /><circle cx="76.49999999999999" cy="9" r="0.25" stroke-width="0" fill="#000" /><circle cx="65.99999999999999" cy="10.5" r="0.25" stroke-width="0" fill="#000" /><circle cx="79.49999999999999" cy="6" r="0.25" stroke-width="0" fill="#000" /><circle cx="88.49999999999999" cy="6" r="0.25" stroke-width="0" fill="#000" /><circle cx="42" cy="4.5" r="0.25" stroke-width="0" fill="#000" /><circle cx="33" cy="10.5" r="0.25" stroke-width="0" fill="#000" /><circle cx="31.5" cy="9" r="0.25" stroke-width="0" fill="#000" /><circle cx="10.5" cy="12" r="0.25" stroke-width="0" fill="#000" /><circle cx="55.5" cy="10.5" r="0.25" stroke-width="0" fill="#000" /><circle cx="46.5" cy="10.5" r="0.25" stroke-width="0" fill="#000" /><circle cx="52.5" cy="9" r="0.25" stroke-width="0" fill="#000" /><circle cx="54" cy="12" r="0.25" stroke-width="0" fill="#000" /><circle cx="36" cy="12" r="0.25" stroke-width="0" fill="#000" /><circle cx="80.99999999999999" cy="7.5" r="0.25" stroke-width="0" fill="#000" /><circle cx="82.49999999999999" cy="4.5" r="0.25" stroke-width="0" fill="#000" /><circle cx="91.49999999999999" cy="7.5" r="0.25" stroke-width="0" fill="#000" /><circle cx="68.99999999999999" cy="6" r="0.25" stroke-width="0" fill="#000" /><circle cx="48" cy="10.5" r="0.25" stroke-width="0" fill="#000" /><circle cx="54" cy="9" r="0.25" stroke-width="0" fill="#000" /><circle cx="67.49999999999999" cy="7.5" r="0.25" stroke-width="0" fill="#000" /><circle cx="18" cy="7.5" r="0.25" stroke-width="0" fill="#000" /><circle cx="89.99999999999999" cy="3" r="0.25" stroke-width="0" fill="#000" /><circle cx="91.49999999999999" cy="3" r="0.25" stroke-width="0" fill="#000" /><circle cx="85.49999999999999" cy="6" r="0.25" stroke-width="0" fill="#000" /><circle cx="83.99999999999999" cy="6" r="0.25" stroke-width="0" fill="#000" /><circle cx="98.99999999999999" cy="9" r="0.25" stroke-width="0" fill="#000" /><circle cx="97.49999999999999" cy="10.5" r="0.25" stroke-width="0" fill="#000" /><circle cx="10.5" cy="3" r="0.25" stroke-width="0" fill="#000" /><circle cx="7.5" cy="3" r="0.25" stroke-width="0" fill="#000" /><circle cx="55.5" cy="3" r="0.25" stroke-width="0" fill="#000" /><circle cx="52.5" cy="4.5" r="0.25" stroke-width="0" fill="#000" /><circle cx="13.5" cy="6" r="0.25" stroke-width="0" fill="#000" /><circle cx="9" cy="6" r="0.25" stroke-width="0" fill="#000" /><circle cx="7.5" cy="10.5" r="0.25" stroke-width="0" fill="#000" /><circle cx="3" cy="10.5" r="0.25" stroke-width="0" fill="#000" /><circle cx="97.49999999999999" cy="3" r="0.25" stroke-width="0" fill="#000" /><circle cx="92.99999999999999" cy="3" r="0.25" stroke-width="0" fill="#000" /><circle cx="10.5" cy="9" r="0.25" stroke-width="0" fill="#000" /><circle cx="6" cy="12" r="0.25" stroke-width="0" fill="#000" /><circle cx="85.49999999999999" cy="9" r="0.25" stroke-width="0" fill="#000" /><circle cx="91.49999999999999" cy="4.5" r="0.25" stroke-width="0" fill="#000" /><circle cx="64.49999999999999" cy="10.5" r="0.25" stroke-width="0" fill="#000" /><circle cx="71.99999999999999" cy="10.5" r="0.25" stroke-width="0" fill="#000" /><circle cx="21" cy="10.5" r="0.25" stroke-width="0" fill="#000" /><circle cx="28.5" cy="10.5" r="0.25" stroke-width="0" fill="#000" /><circle cx="42" cy="10.5" r="0.25" stroke-width="0" fill="#000" /><circle cx="34.5" cy="10.5" r="0.25" stroke-width="0" fill="#000" /><circle cx="15" cy="12" r="0.25" stroke-width="0" fill="#000" /><circle cx="24" cy="12" r="0.25" stroke-width="0" fill="#000" /><circle cx="51" cy="7.5" r="0.25" stroke-width="0" fill="#000" /><circle cx="63" cy="7.5" r="0.25" stroke-width="0" fill="#000" /><circle cx="65.99999999999999" cy="3" r="0.25" stroke-width="0" fill="#000" /><circle cx="54" cy="4.5" r="0.25" stroke-width="0" fill="#000" /><circle cx="64.49999999999999" cy="6" r="0.25" stroke-width="0" fill="#000" /><circle cx="79.49999999999999" cy="4.5" r="0.25" stroke-width="0" fill="#000" /><circle cx="73.49999999999999" cy="7.5" r="0.25" stroke-width="0" fill="#000" /><circle cx="92.99999999999999" cy="4.5" r="0.25" stroke-width="0" fill="#000" /><circle cx="74.99999999999999" cy="3" r="0.25" stroke-width="0" fill="#000" /><circle cx="94.49999999999999" cy="7.5" r="0.25" stroke-width="0" fill="#000" /><circle cx="34.5" cy="9" r="0.25" stroke-width="0" fill="#000" /><circle cx="55.5" cy="6" r="0.25" stroke-width="0" fill="#000" /><circle cx="80.99999999999999" cy="9" r="0.25" stroke-width="0" fill="#000" /><circle cx="101.99999999999999" cy="12" r="0.25" stroke-width="0" fill="#000" /><circle cx="97.49999999999999" cy="7.5" r="0.25" stroke-width="0" fill="#000" /><circle cx="76.49999999999999" cy="12" r="0.25" stroke-width="0" fill="#000" /><circle cx="100.49999999999999" cy="7.5" r="0.25" stroke-width="0" fill="#000" /><circle cx="79.49999999999999" cy="12" r="0.25" stroke-width="0" fill="#000" /><circle cx="27" cy="3" r="0.25" stroke-width="0" fill="#000" /><circle cx="3" cy="4.5" r="0.25" stroke-width="0" fill="#000" /><circle cx="95.99999999999999" cy="3" r="0.25" stroke-width="0" fill="#000" /><circle cx="70.49999999999999" cy="3" r="0.25" stroke-width="0" fill="#000" /><circle cx="64.49999999999999" cy="9" r="0.25" stroke-width="0" fill="#000" /><circle cx="39" cy="6" r="0.25" stroke-width="0" fill="#000" /><circle cx="57" cy="10.5" r="0.25" stroke-width="0" fill="#000" /><circle cx="83.99999999999999" cy="12" r="0.25" stroke-width="0" fill="#000" /><circle cx="42" cy="6" r="0.25" stroke-width="0" fill="#000" /><circle cx="13.5" cy="10.5" r="0.25" stroke-width="0" fill="#000" /><circle cx="58.5" cy="12" r="0.25" stroke-width="0" fill="#000" /><circle cx="92.99999999999999" cy="9" r="0.25" stroke-width="0" fill="#000" /><circle cx="61.5" cy="12" r="0.25" stroke-width="0" fill="#000" /><circle cx="16.5" cy="12" r="0.25" stroke-width="0" fill="#000" /><circle cx="9" cy="4.5" r="0.25" stroke-width="0" fill="#000" /><circle cx="54" cy="3" r="0.25" stroke-width="0" fill="#000" /><circle cx="73.49999999999999" cy="4.5" r="0.25" stroke-width="0" fill="#000" /><circle cx="28.5" cy="3" r="0.25" stroke-width="0" fill="#000" /><rect x="0" y="0" width="105" height="15" stroke-width="0.2" stroke="#000" fill="none" /></svg>