<svg version="1.1" width="30" height="15" xmlns="http://www.w3.org/2000/svg"><path d="M19.58284271247462,7.3L22.58284271247462,7.3L24.2,8.91715728752538L24.2,10.5L23.8,10.5L23.8,9.08284271247462L22.41715728752538,7.7L19.7,7.7L19.7,10.5L19.3,10.5L19.3,7.582842712474619L17.91715728752538,6.2L16.5,6.2L16.5,5.8L18.08284271247462,5.8z" stroke="none"/><path d="M10.41715728752538,8.8L11.8,7.417157287525381L11.8,6.082842712474619L10.41715728752538,4.7L7.582842712474619,4.7L6.2,6.082842712474619L6.2,10.5L5.8,10.5L5.8,5.917157287525381L7.417157287525381,4.3L10.58284271247462,4.3L12.2,5.917157287525381L12.2,7.582842712474619L10.98284271247462,8.8L12.08284271247462,8.8L15.08284271247462,11.8L16.5,11.8L16.5,12.2L14.91715728752538,12.2L11.91715728752538,9.2L10.7,9.2L10.7,10.58284271247462L9.14142135623731,12.14142135623731L8.85857864376269,11.85857864376269L10.3,10.41715728752538L10.3,9.2L7.5,9.2L7.5,8.8z" stroke="none"/><path d="M4.5,10.3L4.5,10.7L3,10.7L3,10.3z" stroke="none"/><path d="M22.5,10.3L22.5,10.7L21,10.7L21,10.3z" stroke="none"/><path d="M7.641421356237309,7.641421356237309L7.358578643762691,7.358578643762691L8.85857864376269,5.858578643762691L9.14142135623731,6.141421356237309z" stroke="none"/><path d="M5.858578643762691,2.8585786437626903L6.141421356237309,3.1414213562373097L4.7,4.582842712474619L4.7,6L4.3,6L4.3,4.417157287525381z" stroke="none"/><path d="M17.8,10.5L18.2,10.5L18.2,11.91715728752538L19.58284271247462,13.3L23.91715728752538,13.3L25.3,11.91715728752538L25.3,7.582842712474619L23.85857864376269,6.141421356237309L24.14142135623731,5.858578643762691L25.7,7.417157287525381L25.7,12.08284271247462L24.08284271247462,13.7L19.41715728752538,13.7L17.8,12.08284271247462z" stroke="none"/><path d="M16.64142135623731,10.35857864376269L16.35857864376269,10.64142135623731L13.3,7.582842712474619L13.3,5.917157287525381L14.91715728752538,4.3L19.58284271247462,4.3L21.08284271247462,5.8L22.5,5.8L22.5,6.2L20.91715728752538,6.2L19.41715728752538,4.7L15.08284271247462,4.7L13.7,6.082842712474619L13.7,7.417157287525381z" stroke="none"/><path d="M3.1414213562373097,3.1414213562373097L2.8585786437626903,2.8585786437626903L4.417157287525381,1.3L9.08284271247462,1.3L10.58284271247462,2.8L12,2.8L12,3.2L10.41715728752538,3.2L8.91715728752538,1.7L4.582842712474619,1.7z" stroke="none"/><path d="M15,3.2L15,2.8L24.08284271247462,2.8L27.2,5.917157287525381L27.2,7.5L26.8,7.5L26.8,6.082842712474619L23.91715728752538,3.2z" stroke="none"/></svg>