<svg version="1.1" width="30" height="15" xmlns="http://www.w3.org/2000/svg"><path d="M19.3,4.417157287525381L19.3,3.082842712474619L17.91715728752538,1.7L16.58284271247462,1.7L15.2,3.082842712474619L15.2,4.417157287525381L16.64142135623731,5.858578643762691L16.35857864376269,6.141421356237309L14.8,4.582842712474619L14.8,2.917157287525381L16.41715728752538,1.3L18.08284271247462,1.3L19.7,2.917157287525381L19.7,4.417157287525381L21.2,5.917157287525381L21.2,7.417157287525381L22.58284271247462,8.8L24,8.8L24,9.2L22.41715728752538,9.2L20.8,7.582842712474619L20.8,6.082842712474619L19.5,4.782842712474619L18.2,6.082842712474619L18.2,7.5L17.8,7.5L17.8,5.917157287525381z" stroke="none"/><path d="M7.417157287525381,4.3L13.5,4.3L13.5,4.7L7.9828427124746195,4.7L10.64142135623731,7.358578643762691L10.35857864376269,7.641421356237309L7.7,4.9828427124746195L7.7,7.417157287525381L9.08284271247462,8.8L11.91715728752538,8.8L13.35857864376269,7.358578643762691L13.64142135623731,7.641421356237309L12.08284271247462,9.2L8.91715728752538,9.2L7.3,7.582842712474619L7.3,4.9828427124746195L6.082842712474619,6.2L4.582842712474619,6.2L3.2,7.582842712474619L3.2,9L2.8,9L2.8,7.417157287525381L4.417157287525381,5.8L5.917157287525381,5.8z" stroke="none"/><path d="M4.5,9.2L4.5,8.8L6,8.8L6,9.2z" stroke="none"/><path d="M25.3,4.5L25.7,4.5L25.7,6.082842712474619L24.14142135623731,7.641421356237309L23.85857864376269,7.358578643762691L25.3,5.917157287525381z" stroke="none"/><path d="M15.14142135623731,10.64142135623731L14.85857864376269,10.35857864376269L16.41715728752538,8.8L18,8.8L18,9.2L16.58284271247462,9.2z" stroke="none"/><path d="M27.2,6L26.8,6L26.8,3.082842712474619L25.41715728752538,1.7L24.08284271247462,1.7L22.7,3.082842712474619L22.7,4.5L22.3,4.5L22.3,2.917157287525381L23.91715728752538,1.3L25.58284271247462,1.3L27.2,2.917157287525381z" stroke="none"/><path d="M24,10.3L24,10.7L20.91715728752538,10.7L19.3,9.08284271247462L19.3,7.5L19.7,7.5L19.7,8.91715728752538L21.08284271247462,10.3z" stroke="none"/><path d="M16.5,11.8L16.5,12.2L13.41715728752538,12.2L11.91715728752538,10.7L10.5,10.7L10.5,10.3L12.08284271247462,10.3L13.58284271247462,11.8z" stroke="none"/><path d="M19.35857864376269,12.14142135623731L19.64142135623731,11.85857864376269L21.08284271247462,13.3L23.91715728752538,13.3L25.3,11.91715728752538L25.3,10.5L25.7,10.5L25.7,12.08284271247462L24.08284271247462,13.7L20.91715728752538,13.7z" stroke="none"/><path d="M10.5,2.8L10.5,3.2L6.082842712474619,3.2L4.582842712474619,4.7L3,4.7L3,4.3L4.417157287525381,4.3L5.917157287525381,2.8z" stroke="none"/></svg>