<svg version="1.1" width="30" height="15" xmlns="http://www.w3.org/2000/svg"><path d="M14.91715728752538,2.8L18,2.8L18,3.2L15.08284271247462,3.2L13.782842712474618,4.5L15.08284271247462,5.8L16.5,5.8L16.5,6.2L14.91715728752538,6.2L13.5,4.782842712474619L12.08284271247462,6.2L10.5,6.2L10.5,5.8L11.91715728752538,5.8z" stroke="none"/><path d="M19.3,10.3L19.3,8.91715728752538L20.85857864376269,7.358578643762691L21.14142135623731,7.641421356237309L19.7,9.08284271247462L19.7,10.3L22.5,10.3L22.5,10.7L19.7,10.7L19.7,11.91715728752538L21.08284271247462,13.3L26.91715728752538,13.3L28.3,11.91715728752538L28.3,9.08284271247462L26.85857864376269,7.641421356237309L27.14142135623731,7.358578643762691L28.7,8.91715728752538L28.7,12.08284271247462L27.08284271247462,13.7L20.91715728752538,13.7L19.3,12.08284271247462L19.3,10.7L18.08284271247462,10.7L16.58284271247462,12.2L15,12.2L15,11.8L16.41715728752538,11.8L17.91715728752538,10.3z" stroke="none"/><path d="M25.5,3.2L25.5,2.8L27,2.8L27,3.2z" stroke="none"/><path d="M25.3,4.5L25.7,4.5L25.7,6L25.3,6z" stroke="none"/><path d="M26.85857864376269,10.35857864376269L27.14142135623731,10.64142135623731L25.64142135623731,12.14142135623731L25.35857864376269,11.85857864376269z" stroke="none"/><path d="M2.8585786437626903,3.1414213562373097L3.1414213562373097,2.8585786437626903L4.641421356237309,4.358578643762691L4.358578643762691,4.641421356237309z" stroke="none"/><path d="M6.141421356237309,10.64142135623731L5.858578643762691,10.35857864376269L7.3,8.91715728752538L7.3,6L7.7,6L7.7,9.08284271247462z" stroke="none"/><path d="M7.5,11.8L7.5,12.2L4.417157287525381,12.2L2.8,10.58284271247462L2.8,8.91715728752538L4.417157287525381,7.3L6,7.3L6,7.7L4.582842712474619,7.7L3.2,9.08284271247462L3.2,10.41715728752538L4.582842712474619,11.8z" stroke="none"/><path d="M22.7,9L22.3,9L22.3,6.082842712474619L20.91715728752538,4.7L16.5,4.7L16.5,4.3L21.08284271247462,4.3L22.7,5.917157287525381z" stroke="none"/><path d="M12.2,12L11.8,12L11.8,10.58284271247462L8.8,7.582842712474619L8.8,4.417157287525381L11.91715728752538,1.3L21.08284271247462,1.3L24.2,4.417157287525381L24.2,10.5L23.8,10.5L23.8,4.582842712474619L20.91715728752538,1.7L12.08284271247462,1.7L9.2,4.582842712474619L9.2,7.417157287525381L12.2,10.41715728752538z" stroke="none"/></svg>