<svg version="1.1" width="30" height="15" xmlns="http://www.w3.org/2000/svg"><path d="M5.8,5.917157287525381L7.417157287525381,4.3L9,4.3L9,4.7L7.582842712474619,4.7L6.282842712474619,6L7.582842712474619,7.3L9,7.3L9,7.7L7.417157287525381,7.7L6.2,6.4828427124746195L6.2,8.91715728752538L7.582842712474619,10.3L8.91715728752538,10.3L10.41715728752538,8.8L12,8.8L12,9.2L10.58284271247462,9.2L9.08284271247462,10.7L7.417157287525381,10.7L5.8,9.08284271247462z" stroke="none"/><path d="M22.3,10.3L22.3,9.08284271247462L20.91715728752538,7.7L19.58284271247462,7.7L16.7,10.58284271247462L16.7,12L16.3,12L16.3,10.41715728752538L19.41715728752538,7.3L21.08284271247462,7.3L22.7,8.91715728752538L22.7,10.3L27,10.3L27,10.7L22.982842712474618,10.7L24.08284271247462,11.8L25.5,11.8L25.5,12.2L23.91715728752538,12.2L22.41715728752538,10.7L19.5,10.7L19.5,10.3z" stroke="none"/><path d="M16.7,4.5L16.3,4.5L16.3,3L16.7,3z" stroke="none"/><path d="M22.35857864376269,6.141421356237309L22.64142135623731,5.858578643762691L24.14142135623731,7.358578643762691L23.85857864376269,7.641421356237309z" stroke="none"/><path d="M24,2.8L24,3.2L21,3.2L21,2.8z" stroke="none"/><path d="M13.5,5.8L13.5,6.2L10.5,6.2L10.5,5.8z" stroke="none"/><path d="M9,2.8L9,3.2L6,3.2L6,2.8z" stroke="none"/><path d="M14.85857864376269,8.85857864376269L15.14142135623731,9.14142135623731L13.58284271247462,10.7L12.08284271247462,10.7L10.64142135623731,12.14142135623731L10.35857864376269,11.85857864376269L11.91715728752538,10.3L13.41715728752538,10.3z" stroke="none"/><path d="M18,12.2L18,11.8L21.08284271247462,11.8L22.58284271247462,13.3L26.91715728752538,13.3L28.3,11.91715728752538L28.3,9.08284271247462L26.91715728752538,7.7L25.5,7.7L25.5,7.3L27.08284271247462,7.3L28.7,8.91715728752538L28.7,12.08284271247462L27.08284271247462,13.7L22.41715728752538,13.7L20.91715728752538,12.2z" stroke="none"/><path d="M13.64142135623731,4.358578643762691L13.35857864376269,4.641421356237309L10.41715728752538,1.7L4.582842712474619,1.7L3.2,3.082842712474619L3.2,4.5L2.8,4.5L2.8,2.917157287525381L4.417157287525381,1.3L10.58284271247462,1.3z" stroke="none"/></svg>