<svg version="1.1" width="30" height="15" xmlns="http://www.w3.org/2000/svg"><path d="M13.41715728752538,7.3L16.5,7.3L16.5,7.7L13.7,7.7L13.7,11.91715728752538L15.08284271247462,13.3L17.91715728752538,13.3L19.3,11.91715728752538L19.3,8.91715728752538L20.85857864376269,7.358578643762691L21.14142135623731,7.641421356237309L19.7,9.08284271247462L19.7,12.08284271247462L18.08284271247462,13.7L14.91715728752538,13.7L13.3,12.08284271247462L13.3,7.9828427124746195L12.2,9.08284271247462L12.2,10.58284271247462L10.64142135623731,12.14142135623731L10.35857864376269,11.85857864376269L11.8,10.41715728752538L11.8,8.91715728752538z" stroke="none"/><path d="M22.41715728752538,4.3L25.58284271247462,4.3L27.2,5.917157287525381L27.2,9.08284271247462L25.7,10.58284271247462L25.7,12.08284271247462L24.08284271247462,13.7L22.41715728752538,13.7L20.8,12.08284271247462L20.8,10.5L21.2,10.5L21.2,11.91715728752538L22.58284271247462,13.3L23.91715728752538,13.3L25.3,11.91715728752538L25.3,10.41715728752538L26.8,8.91715728752538L26.8,6.082842712474619L25.41715728752538,4.7L22.982842712474618,4.7L25.64142135623731,7.358578643762691L25.35857864376269,7.641421356237309L22.7,4.9828427124746195L22.7,10.5L22.3,10.5L22.3,4.9828427124746195L21.08284271247462,6.2L19.5,6.2L19.5,5.8L20.91715728752538,5.8z" stroke="none"/><path d="M2.8,6L3.2,6L3.2,7.5L2.8,7.5z" stroke="none"/><path d="M10.5,8.8L10.5,9.2L7.5,9.2L7.5,8.8z" stroke="none"/><path d="M18,10.3L18,10.7L15,10.7L15,10.3z" stroke="none"/><path d="M3.1414213562373097,12.14142135623731L2.8585786437626903,11.85857864376269L4.417157287525381,10.3L6,10.3L6,10.7L4.582842712474619,10.7z" stroke="none"/><path d="M11.85857864376269,4.358578643762691L12.14142135623731,4.641421356237309L10.58284271247462,6.2L7.582842712474619,6.2L6.2,7.582842712474619L6.2,9L5.8,9L5.8,7.417157287525381L7.417157287525381,5.8L10.41715728752538,5.8z" stroke="none"/><path d="M16.64142135623731,3.1414213562373097L16.35857864376269,2.8585786437626903L17.91715728752538,1.3L25.58284271247462,1.3L27.14142135623731,2.8585786437626903L26.85857864376269,3.1414213562373097L25.41715728752538,1.7L18.08284271247462,1.7z" stroke="none"/><path d="M9,7.7L9,7.3L11.91715728752538,7.3L13.41715728752538,5.8L16.41715728752538,5.8L19.35857864376269,2.8585786437626903L19.64142135623731,3.1414213562373097L16.58284271247462,6.2L13.58284271247462,6.2L12.08284271247462,7.7z" stroke="none"/><path d="M3,3.2L3,2.8L13.58284271247462,2.8L15.14142135623731,4.358578643762691L14.85857864376269,4.641421356237309L13.41715728752538,3.2z" stroke="none"/></svg>