<svg version="1.1" width="30" height="15" xmlns="http://www.w3.org/2000/svg"><path d="M13.5,8.8L13.5,9.2L9.2,9.2L9.2,10.41715728752538L10.58284271247462,11.8L11.91715728752538,11.8L13.35857864376269,10.35857864376269L13.64142135623731,10.64142135623731L12.08284271247462,12.2L10.41715728752538,12.2L8.8,10.58284271247462L8.8,9.2L7.582842712474619,9.2L6.082842712474619,10.7L4.582842712474619,10.7L3.1414213562373097,12.14142135623731L2.8585786437626903,11.85857864376269L4.417157287525381,10.3L5.917157287525381,10.3L7.417157287525381,8.8z" stroke="none"/><path d="M13.41715728752538,1.3L18.08284271247462,1.3L21.14142135623731,4.358578643762691L20.85857864376269,4.641421356237309L17.91715728752538,1.7L13.98284271247462,1.7L15.08284271247462,2.8L16.5,2.8L16.5,3.2L14.91715728752538,3.2L13.7,1.982842712474619L13.7,4.417157287525381L15.08284271247462,5.8L25.41715728752538,5.8L26.8,4.417157287525381L26.8,3.082842712474619L25.41715728752538,1.7L24.08284271247462,1.7L22.64142135623731,3.1414213562373097L22.35857864376269,2.8585786437626903L23.91715728752538,1.3L25.58284271247462,1.3L27.2,2.917157287525381L27.2,4.582842712474619L25.58284271247462,6.2L14.91715728752538,6.2L13.3,4.582842712474619L13.3,1.982842712474619L12.2,3.082842712474619L12.2,4.582842712474619L10.64142135623731,6.141421356237309L10.35857864376269,5.858578643762691L11.8,4.417157287525381L11.8,2.917157287525381z" stroke="none"/><path d="M6,7.3L6,7.7L4.5,7.7L4.5,7.3z" stroke="none"/><path d="M22.5,9.2L22.5,8.8L24,8.8L24,9.2z" stroke="none"/><path d="M21.14142135623731,10.35857864376269L20.85857864376269,10.64142135623731L19.3,9.08284271247462L19.3,7.5L19.7,7.5L19.7,8.91715728752538z" stroke="none"/><path d="M10.5,2.8L10.5,3.2L4.5,3.2L4.5,2.8z" stroke="none"/><path d="M18.14142135623731,8.85857864376269L17.85857864376269,9.14142135623731L16.41715728752538,7.7L12,7.7L12,7.3L16.58284271247462,7.3z" stroke="none"/><path d="M21,7.7L21,7.3L25.58284271247462,7.3L27.14142135623731,8.85857864376269L26.85857864376269,9.14142135623731L25.41715728752538,7.7z" stroke="none"/><path d="M14.85857864376269,9.14142135623731L15.14142135623731,8.85857864376269L16.58284271247462,10.3L18.08284271247462,10.3L19.58284271247462,11.8L22.5,11.8L22.5,12.2L19.41715728752538,12.2L17.91715728752538,10.7L16.41715728752538,10.7z" stroke="none"/><path d="M14.85857864376269,11.85857864376269L15.14142135623731,12.14142135623731L13.58284271247462,13.7L8.91715728752538,13.7L7.417157287525381,12.2L6,12.2L6,11.8L7.582842712474619,11.8L9.08284271247462,13.3L13.41715728752538,13.3z" stroke="none"/></svg>