<svg version="1.1" width="30" height="15" xmlns="http://www.w3.org/2000/svg"><path d="M19.58284271247462,1.3L21.14142135623731,2.8585786437626903L20.85857864376269,3.1414213562373097L19.41715728752538,1.7L18.2,1.7L18.2,2.917157287525381L19.64142135623731,4.358578643762691L19.35857864376269,4.641421356237309L17.8,3.082842712474619L17.8,1.7L16.58284271247462,1.7L15.2,3.082842712474619L15.2,4.417157287525381L16.58284271247462,5.8L18,5.8L18,6.2L16.41715728752538,6.2L14.8,4.582842712474619L14.8,2.917157287525381L16.41715728752538,1.3z" stroke="none"/><path d="M11.8,11.8L11.8,10.58284271247462L10.35857864376269,9.14142135623731L10.64142135623731,8.85857864376269L12.2,10.41715728752538L12.2,11.51715728752538L13.41715728752538,10.3L15,10.3L15,10.7L13.58284271247462,10.7L12.48284271247462,11.8L13.58284271247462,11.8L15.08284271247462,13.3L17.91715728752538,13.3L19.3,11.91715728752538L19.3,10.5L19.7,10.5L19.7,12.08284271247462L18.08284271247462,13.7L14.91715728752538,13.7L13.41715728752538,12.2L9,12.2L9,11.8z" stroke="none"/><path d="M4.5,4.7L4.5,4.3L7.5,4.3L7.5,4.7z" stroke="none"/><path d="M24.2,12L23.8,12L23.8,10.41715728752538L25.35857864376269,8.85857864376269L25.64142135623731,9.14142135623731L24.2,10.58284271247462z" stroke="none"/><path d="M16.64142135623731,12.14142135623731L16.35857864376269,11.85857864376269L17.8,10.41715728752538L17.8,9.08284271247462L16.41715728752538,7.7L15.08284271247462,7.7L13.64142135623731,9.14142135623731L13.35857864376269,8.85857864376269L14.91715728752538,7.3L16.58284271247462,7.3L18.2,8.91715728752538L18.2,10.58284271247462z" stroke="none"/><path d="M25.5,4.3L25.5,4.7L21,4.7L21,4.3z" stroke="none"/><path d="M7.3,6L7.7,6L7.7,10.5L7.3,10.5z" stroke="none"/><path d="M21.14142135623731,10.64142135623731L20.85857864376269,10.35857864376269L23.91715728752538,7.3L27.08284271247462,7.3L28.7,8.91715728752538L28.7,10.58284271247462L27.08284271247462,12.2L25.5,12.2L25.5,11.8L26.91715728752538,11.8L28.3,10.41715728752538L28.3,9.08284271247462L26.91715728752538,7.7L24.08284271247462,7.7z" stroke="none"/><path d="M6.2,12L5.8,12L5.8,9.08284271247462L4.358578643762691,7.641421356237309L4.641421356237309,7.358578643762691L6.2,8.91715728752538z" stroke="none"/><path d="M6,5.8L6,6.2L2.917157287525381,6.2L1.3,4.582842712474619L1.3,2.917157287525381L2.917157287525381,1.3L7.582842712474619,1.3L9.2,2.917157287525381L9.2,5.917157287525381L10.64142135623731,7.358578643762691L10.35857864376269,7.641421356237309L8.8,6.082842712474619L8.8,3.082842712474619L7.417157287525381,1.7L3.082842712474619,1.7L1.7,3.082842712474619L1.7,4.417157287525381L3.082842712474619,5.8z" stroke="none"/></svg>