<svg version="1.1" width="30" height="15" xmlns="http://www.w3.org/2000/svg"><path d="M7.417157287525381,2.8L8.91715728752538,1.3L12.08284271247462,1.3L13.7,2.917157287525381L13.7,4.417157287525381L15.14142135623731,5.858578643762691L14.85857864376269,6.141421356237309L13.3,4.582842712474619L13.3,3.082842712474619L11.91715728752538,1.7L9.08284271247462,1.7L7.7,3.082842712474619L7.7,4.582842712474619L6.141421356237309,6.141421356237309L5.858578643762691,5.858578643762691L7.3,4.417157287525381L7.3,3.2L6.082842712474619,3.2L4.641421356237309,4.641421356237309L4.358578643762691,4.358578643762691L5.917157287525381,2.8z" stroke="none"/><path d="M17.8,10.41715728752538L17.8,7.5L18.2,7.5L18.2,10.3L21,10.3L21,10.7L18.2,10.7L18.2,11.91715728752538L19.58284271247462,13.3L25.41715728752538,13.3L26.8,11.91715728752538L26.8,9L27.2,9L27.2,12.08284271247462L25.58284271247462,13.7L19.41715728752538,13.7L17.8,12.08284271247462L17.8,10.98284271247462L16.58284271247462,12.2L15,12.2L15,11.8L16.41715728752538,11.8z" stroke="none"/><path d="M9.14142135623731,11.85857864376269L8.85857864376269,12.14142135623731L7.358578643762691,10.64142135623731L7.641421356237309,10.35857864376269z" stroke="none"/><path d="M18.14142135623731,4.641421356237309L17.85857864376269,4.358578643762691L19.41715728752538,2.8L21,2.8L21,3.2L19.58284271247462,3.2z" stroke="none"/><path d="M13.64142135623731,11.85857864376269L13.35857864376269,12.14142135623731L10.35857864376269,9.14142135623731L10.64142135623731,8.85857864376269z" stroke="none"/><path d="M22.3,7.5L22.7,7.5L22.7,12L22.3,12z" stroke="none"/><path d="M24.2,12L23.8,12L23.8,7.5L24.2,7.5z" stroke="none"/><path d="M11.8,4.5L12.2,4.5L12.2,7.417157287525381L13.58284271247462,8.8L14.91715728752538,8.8L16.3,7.417157287525381L16.3,6L16.7,6L16.7,7.582842712474619L15.08284271247462,9.2L13.41715728752538,9.2L11.8,7.582842712474619z" stroke="none"/><path d="M10.3,3L10.7,3L10.7,4.582842712474619L7.582842712474619,7.7L4.417157287525381,7.7L2.8585786437626903,6.141421356237309L3.1414213562373097,5.858578643762691L4.582842712474619,7.3L7.417157287525381,7.3L10.3,4.417157287525381z" stroke="none"/><path d="M15,3.2L15,2.8L16.41715728752538,2.8L17.91715728752538,1.3L22.58284271247462,1.3L24.2,2.917157287525381L24.2,4.417157287525381L25.7,5.917157287525381L25.7,7.5L25.3,7.5L25.3,6.082842712474619L23.8,4.582842712474619L23.8,3.082842712474619L22.41715728752538,1.7L18.08284271247462,1.7L16.58284271247462,3.2z" stroke="none"/></svg>