<svg version="1.1" width="30" height="15" xmlns="http://www.w3.org/2000/svg"><path d="M15.08284271247462,1.3L16.7,2.917157287525381L16.7,4.5L16.3,4.5L16.3,3.082842712474619L14.91715728752538,1.7L13.7,1.7L13.7,3.082842712474619L12.14142135623731,4.641421356237309L11.85857864376269,4.358578643762691L13.3,2.917157287525381L13.3,1.7L12.08284271247462,1.7L10.7,3.082842712474619L10.7,5.917157287525381L12.14142135623731,7.358578643762691L11.85857864376269,7.641421356237309L10.3,6.082842712474619L10.3,2.917157287525381L11.91715728752538,1.3z" stroke="none"/><path d="M20.8,4.3L20.8,2.917157287525381L22.41715728752538,1.3L24.08284271247462,1.3L27.14142135623731,4.358578643762691L26.85857864376269,4.641421356237309L23.91715728752538,1.7L22.58284271247462,1.7L21.2,3.082842712474619L21.2,4.3L22.58284271247462,4.3L24.2,5.917157287525381L24.2,7.582842712474619L22.58284271247462,9.2L19.41715728752538,9.2L17.91715728752538,7.7L16.5,7.7L16.5,7.3L18.08284271247462,7.3L19.58284271247462,8.8L22.41715728752538,8.8L23.8,7.417157287525381L23.8,6.082842712474619L22.41715728752538,4.7L21.2,4.7L21.2,7.5L20.8,7.5L20.8,4.7L19.58284271247462,4.7L18.14142135623731,6.141421356237309L17.85857864376269,5.858578643762691L19.41715728752538,4.3z" stroke="none"/><path d="M7.5,5.8L7.5,6.2L6,6.2L6,5.8z" stroke="none"/><path d="M2.8,3L3.2,3L3.2,6L2.8,6z" stroke="none"/><path d="M7.641421356237309,8.85857864376269L7.358578643762691,9.14142135623731L5.917157287525381,7.7L4.5,7.7L4.5,7.3L6.082842712474619,7.3z" stroke="none"/><path d="M7.641421356237309,12.14142135623731L7.358578643762691,11.85857864376269L10.35857864376269,8.85857864376269L10.64142135623731,9.14142135623731z" stroke="none"/><path d="M3.2,12L2.8,12L2.8,7.5L3.2,7.5z" stroke="none"/><path d="M16.5,12.2L16.5,11.8L17.91715728752538,11.8L19.41715728752538,10.3L21,10.3L21,10.7L19.58284271247462,10.7L18.08284271247462,12.2z" stroke="none"/><path d="M26.85857864376269,7.358578643762691L27.14142135623731,7.641421356237309L24.08284271247462,10.7L22.5,10.7L22.5,10.3L23.91715728752538,10.3z" stroke="none"/><path d="M4.358578643762691,12.14142135623731L4.641421356237309,11.85857864376269L6.082842712474619,13.3L8.91715728752538,13.3L10.41715728752538,11.8L11.91715728752538,11.8L13.41715728752538,10.3L16.5,10.3L16.5,10.7L13.58284271247462,10.7L12.08284271247462,12.2L10.58284271247462,12.2L9.08284271247462,13.7L5.917157287525381,13.7z" stroke="none"/></svg>