<svg version="1.1" width="30" height="15" xmlns="http://www.w3.org/2000/svg"><path d="M25.3,10.3L25.3,8.91715728752538L26.85857864376269,7.358578643762691L27.14142135623731,7.641421356237309L25.7,9.08284271247462L25.7,12.08284271247462L24.08284271247462,13.7L22.41715728752538,13.7L20.8,12.08284271247462L20.8,8.91715728752538L22.41715728752538,7.3L24,7.3L24,7.7L22.58284271247462,7.7L21.2,9.08284271247462L21.2,11.91715728752538L22.58284271247462,13.3L23.91715728752538,13.3L25.3,11.91715728752538L25.3,10.7L22.5,10.7L22.5,10.3z" stroke="none"/><path d="M9.08284271247462,4.3L10.58284271247462,4.3L12.08284271247462,5.8L13.41715728752538,5.8L14.8,4.417157287525381L14.8,3.082842712474619L13.41715728752538,1.7L4.582842712474619,1.7L3.2,3.082842712474619L3.2,4.417157287525381L4.641421356237309,5.858578643762691L4.358578643762691,6.141421356237309L2.8,4.582842712474619L2.8,2.917157287525381L4.417157287525381,1.3L13.58284271247462,1.3L15.2,2.917157287525381L15.2,4.582842712474619L13.58284271247462,6.2L11.91715728752538,6.2L10.41715728752538,4.7L9.2,4.7L9.2,6.082842712474619L7.641421356237309,7.641421356237309L7.358578643762691,7.358578643762691L8.8,5.917157287525381L8.8,4.7L7.582842712474619,4.7L6.141421356237309,6.141421356237309L5.858578643762691,5.858578643762691L7.417157287525381,4.3L8.51715728752538,4.3L7.417157287525381,3.2L6,3.2L6,2.8L7.582842712474619,2.8z" stroke="none"/><path d="M4.358578643762691,7.641421356237309L4.641421356237309,7.358578643762691L6.141421356237309,8.85857864376269L5.858578643762691,9.14142135623731z" stroke="none"/><path d="M22.5,2.8L22.5,3.2L19.5,3.2L19.5,2.8z" stroke="none"/><path d="M4.7,12L4.3,12L4.3,10.58284271247462L2.8585786437626903,9.14142135623731L3.1414213562373097,8.85857864376269L4.7,10.41715728752538z" stroke="none"/><path d="M16.64142135623731,12.14142135623731L16.35857864376269,11.85857864376269L17.91715728752538,10.3L19.5,10.3L19.5,10.7L18.08284271247462,10.7z" stroke="none"/><path d="M22.64142135623731,6.141421356237309L22.35857864376269,5.858578643762691L25.35857864376269,2.8585786437626903L25.64142135623731,3.1414213562373097z" stroke="none"/><path d="M18,8.8L18,9.2L12,9.2L12,8.8z" stroke="none"/><path d="M19.35857864376269,11.85857864376269L19.64142135623731,12.14142135623731L18.08284271247462,13.7L14.91715728752538,13.7L11.85857864376269,10.64142135623731L12.14142135623731,10.35857864376269L15.08284271247462,13.3L17.91715728752538,13.3z" stroke="none"/><path d="M13.5,7.7L13.5,7.3L14.91715728752538,7.3L16.3,5.917157287525381L16.3,2.917157287525381L17.91715728752538,1.3L27.08284271247462,1.3L28.7,2.917157287525381L28.7,4.582842712474619L27.08284271247462,6.2L25.5,6.2L25.5,5.8L26.91715728752538,5.8L28.3,4.417157287525381L28.3,3.082842712474619L26.91715728752538,1.7L18.08284271247462,1.7L16.7,3.082842712474619L16.7,6.082842712474619L15.08284271247462,7.7z" stroke="none"/></svg>