<svg version="1.1" width="30" height="15" xmlns="http://www.w3.org/2000/svg"><path d="M26.8,10.3L26.8,7.5L27.2,7.5L27.2,12.08284271247462L25.58284271247462,13.7L20.91715728752538,13.7L19.3,12.08284271247462L19.3,9.08284271247462L17.85857864376269,7.641421356237309L18.14142135623731,7.358578643762691L19.7,8.91715728752538L19.7,11.91715728752538L21.08284271247462,13.3L25.41715728752538,13.3L26.8,11.91715728752538L26.8,10.7L24,10.7L24,10.3z" stroke="none"/><path d="M16.5,8.8L16.5,9.2L10.98284271247462,9.2L13.64142135623731,11.85857864376269L13.35857864376269,12.14142135623731L10.7,9.48284271247462L10.7,10.58284271247462L9.08284271247462,12.2L7.417157287525381,12.2L4.358578643762691,9.14142135623731L4.641421356237309,8.85857864376269L7.582842712474619,11.8L8.91715728752538,11.8L10.3,10.41715728752538L10.3,9.2L7.5,9.2L7.5,8.8z" stroke="none"/><path d="M19.35857864376269,4.641421356237309L19.64142135623731,4.358578643762691L21.14142135623731,5.858578643762691L20.85857864376269,6.141421356237309z" stroke="none"/><path d="M25.64142135623731,7.358578643762691L25.35857864376269,7.641421356237309L23.8,6.082842712474619L23.8,2.917157287525381L25.41715728752538,1.3L27.08284271247462,1.3L28.7,2.917157287525381L28.7,4.582842712474619L27.14142135623731,6.141421356237309L26.85857864376269,5.858578643762691L28.3,4.417157287525381L28.3,3.082842712474619L26.91715728752538,1.7L25.58284271247462,1.7L24.2,3.082842712474619L24.2,5.917157287525381z" stroke="none"/><path d="M15.14142135623731,12.14142135623731L14.85857864376269,11.85857864376269L16.41715728752538,10.3L18,10.3L18,10.7L16.58284271247462,10.7z" stroke="none"/><path d="M5.858578643762691,3.1414213562373097L6.141421356237309,2.8585786437626903L7.582842712474619,4.3L9,4.3L9,4.7L7.417157287525381,4.7z" stroke="none"/><path d="M21.2,10.5L20.8,10.5L20.8,8.91715728752538L22.3,7.417157287525381L22.3,6L22.7,6L22.7,7.582842712474619L21.2,9.08284271247462z" stroke="none"/><path d="M18.14142135623731,2.8585786437626903L17.85857864376269,3.1414213562373097L16.41715728752538,1.7L12.08284271247462,1.7L10.58284271247462,3.2L9,3.2L9,2.8L10.41715728752538,2.8L11.91715728752538,1.3L16.58284271247462,1.3z" stroke="none"/><path d="M3,4.7L3,4.3L4.582842712474619,4.3L6.082842712474619,5.8L10.41715728752538,5.8L11.91715728752538,4.3L13.5,4.3L13.5,4.7L12.08284271247462,4.7L10.58284271247462,6.2L5.917157287525381,6.2L4.417157287525381,4.7z" stroke="none"/><path d="M14.8,3L15.2,3L15.2,6.082842712474619L13.58284271247462,7.7L3,7.7L3,7.3L13.41715728752538,7.3L14.8,5.917157287525381z" stroke="none"/></svg>