<svg version="1.1" width="30" height="15" xmlns="http://www.w3.org/2000/svg"><path d="M16.58284271247462,1.3L18.2,2.917157287525381L18.2,4.582842712474619L16.58284271247462,6.2L14.91715728752538,6.2L13.35857864376269,4.641421356237309L13.64142135623731,4.358578643762691L15.08284271247462,5.8L16.41715728752538,5.8L17.8,4.417157287525381L17.8,3.082842712474619L16.41715728752538,1.7L10.58284271247462,1.7L9.08284271247462,3.2L7.5,3.2L7.5,2.8L8.91715728752538,2.8L10.01715728752538,1.7L3.082842712474619,1.7L1.7,3.082842712474619L1.7,4.417157287525381L4.641421356237309,7.358578643762691L4.358578643762691,7.641421356237309L1.3,4.582842712474619L1.3,2.917157287525381L2.917157287525381,1.3z" stroke="none"/><path d="M10.58284271247462,8.8L12.08284271247462,8.8L13.58284271247462,10.3L18,10.3L18,10.7L13.41715728752538,10.7L11.91715728752538,9.2L10.7,9.2L10.7,12.08284271247462L9.08284271247462,13.7L7.417157287525381,13.7L5.8,12.08284271247462L5.8,7.5L6.2,7.5L6.2,11.91715728752538L7.582842712474619,13.3L8.91715728752538,13.3L10.3,11.91715728752538L10.3,9.48284271247462L9.08284271247462,10.7L7.5,10.7L7.5,10.3L8.91715728752538,10.3L10.217157287525382,9L8.91715728752538,7.7L7.5,7.7L7.5,7.3L9.08284271247462,7.3z" stroke="none"/><path d="M6,2.8L6,3.2L4.5,3.2L4.5,2.8z" stroke="none"/><path d="M20.85857864376269,10.64142135623731L21.14142135623731,10.35857864376269L22.64142135623731,11.85857864376269L22.35857864376269,12.14142135623731z" stroke="none"/><path d="M15,11.8L15,12.2L12,12.2L12,11.8z" stroke="none"/><path d="M13.5,2.8L13.5,3.2L12.08284271247462,3.2L10.64142135623731,4.641421356237309L10.35857864376269,4.358578643762691L11.91715728752538,2.8z" stroke="none"/><path d="M24,7.7L24,7.3L25.58284271247462,7.3L27.2,8.91715728752538L27.2,10.5L26.8,10.5L26.8,9.08284271247462L25.41715728752538,7.7z" stroke="none"/><path d="M20.85857864376269,7.641421356237309L21.14142135623731,7.358578643762691L22.58284271247462,8.8L24.08284271247462,8.8L25.64142135623731,10.35857864376269L25.35857864376269,10.64142135623731L23.91715728752538,9.2L22.41715728752538,9.2z" stroke="none"/><path d="M15.14142135623731,9.14142135623731L14.85857864376269,8.85857864376269L16.41715728752538,7.3L17.91715728752538,7.3L20.91715728752538,4.3L22.5,4.3L22.5,4.7L21.08284271247462,4.7L18.08284271247462,7.7L16.58284271247462,7.7z" stroke="none"/><path d="M13.5,7.3L13.5,7.7L11.91715728752538,7.7L10.41715728752538,6.2L7.417157287525381,6.2L5.917157287525381,4.7L4.5,4.7L4.5,4.3L6.082842712474619,4.3L7.582842712474619,5.8L10.58284271247462,5.8L12.08284271247462,7.3z" stroke="none"/></svg>