<svg version="1.1" width="30" height="15" xmlns="http://www.w3.org/2000/svg"><path d="M13.3,10.3L13.3,7.5L13.7,7.5L13.7,10.3L14.91715728752538,10.3L16.3,8.91715728752538L16.3,6L16.7,6L16.7,9.08284271247462L15.08284271247462,10.7L11.91715728752538,10.7L10.41715728752538,9.2L9,9.2L9,8.8L10.58284271247462,8.8L12.08284271247462,10.3z" stroke="none"/><path d="M11.8,4.3L11.8,2.917157287525381L13.41715728752538,1.3L15.08284271247462,1.3L18.2,4.417157287525381L18.2,9L17.8,9L17.8,4.582842712474619L14.91715728752538,1.7L13.58284271247462,1.7L12.2,3.082842712474619L12.2,4.3L15,4.3L15,4.7L12.08284271247462,4.7L10.58284271247462,6.2L9,6.2L9,5.8L10.41715728752538,5.8L11.51715728752538,4.7L6,4.7L6,4.3z" stroke="none"/><path d="M19.7,10.5L19.3,10.5L19.3,9L19.7,9z" stroke="none"/><path d="M24.2,6L23.8,6L23.8,4.5L24.2,4.5z" stroke="none"/><path d="M25.7,7.5L25.3,7.5L25.3,6L25.7,6z" stroke="none"/><path d="M4.5,7.7L4.5,7.3L7.5,7.3L7.5,7.7z" stroke="none"/><path d="M19.35857864376269,6.141421356237309L19.64142135623731,5.858578643762691L21.08284271247462,7.3L22.5,7.3L22.5,7.7L20.91715728752538,7.7z" stroke="none"/><path d="M24,3.2L24,2.8L25.58284271247462,2.8L27.2,4.417157287525381L27.2,7.5L26.8,7.5L26.8,4.582842712474619L25.41715728752538,3.2z" stroke="none"/><path d="M2.8585786437626903,7.358578643762691L3.1414213562373097,7.641421356237309L1.7,9.08284271247462L1.7,10.41715728752538L3.082842712474619,11.8L6,11.8L6,12.2L2.917157287525381,12.2L1.3,10.58284271247462L1.3,8.91715728752538z" stroke="none"/><path d="M4.5,10.7L4.5,10.3L7.582842712474619,10.3L9.08284271247462,11.8L10.5,11.8L10.5,12.2L8.91715728752538,12.2L7.417157287525381,10.7z" stroke="none"/></svg>