<svg version="1.1" width="30" height="15" xmlns="http://www.w3.org/2000/svg"><path d="M24.08284271247462,8.8L27,8.8L27,9.2L24.08284271247462,9.2L22.58284271247462,10.7L19.41715728752538,10.7L17.8,9.08284271247462L17.8,6L18.2,6L18.2,8.91715728752538L19.58284271247462,10.3L22.41715728752538,10.3L23.71715728752538,9L22.3,7.582842712474619L22.3,4.5L22.7,4.5L22.7,7.417157287525381z" stroke="none"/><path d="M11.8,7.3L11.8,5.917157287525381L13.41715728752538,4.3L14.91715728752538,4.3L16.41715728752538,2.8L18.08284271247462,2.8L19.7,4.417157287525381L19.7,7.5L19.3,7.5L19.3,4.582842712474619L17.91715728752538,3.2L16.58284271247462,3.2L15.08284271247462,4.7L13.58284271247462,4.7L12.2,6.082842712474619L12.2,7.3L13.58284271247462,7.3L15.2,8.91715728752538L15.2,10.58284271247462L13.58284271247462,12.2L10.5,12.2L10.5,11.8L13.41715728752538,11.8L14.8,10.41715728752538L14.8,9.08284271247462L13.41715728752538,7.7L12.2,7.7L12.2,10.5L11.8,10.5L11.8,7.7L7.582842712474619,7.7L6.2,9.08284271247462L6.2,10.41715728752538L7.641421356237309,11.85857864376269L7.358578643762691,12.14142135623731L5.8,10.58284271247462L5.8,8.91715728752538L7.417157287525381,7.3z" stroke="none"/><path d="M27,11.8L27,12.2L25.5,12.2L25.5,11.8z" stroke="none"/><path d="M8.8,9L9.2,9L9.2,10.5L8.8,10.5z" stroke="none"/><path d="M4.3,10.5L4.7,10.5L4.7,12L4.3,12z" stroke="none"/><path d="M9,2.8L9,3.2L6,3.2L6,2.8z" stroke="none"/><path d="M5.858578643762691,4.641421356237309L6.141421356237309,4.358578643762691L7.582842712474619,5.8L9,5.8L9,6.2L7.417157287525381,6.2z" stroke="none"/><path d="M26.85857864376269,4.358578643762691L27.14142135623731,4.641421356237309L25.58284271247462,6.2L24,6.2L24,5.8L25.41715728752538,5.8z" stroke="none"/><path d="M24,11.8L24,12.2L17.91715728752538,12.2L16.35857864376269,10.64142135623731L16.64142135623731,10.35857864376269L18.08284271247462,11.8z" stroke="none"/><path d="M21.2,7.5L20.8,7.5L20.8,3.082842712474619L19.41715728752538,1.7L15.08284271247462,1.7L13.58284271247462,3.2L12.08284271247462,3.2L10.58284271247462,4.7L9,4.7L9,4.3L10.41715728752538,4.3L11.91715728752538,2.8L13.41715728752538,2.8L14.91715728752538,1.3L19.58284271247462,1.3L21.2,2.917157287525381z" stroke="none"/></svg>