<svg version="1.1" width="30" height="15" xmlns="http://www.w3.org/2000/svg"><path d="M15.08284271247462,5.8L16.41715728752538,5.8L17.8,4.417157287525381L17.8,3L18.2,3L18.2,4.582842712474619L16.58284271247462,6.2L13.58284271247462,6.2L12.08284271247462,7.7L10.5,7.7L10.5,7.3L11.91715728752538,7.3L13.41715728752538,5.8L14.51715728752538,5.8L13.3,4.582842712474619L13.3,3L13.7,3L13.7,4.417157287525381z" stroke="none"/><path d="M22.41715728752538,1.3L27.08284271247462,1.3L28.7,2.917157287525381L28.7,4.582842712474619L27.08284271247462,6.2L25.41715728752538,6.2L23.85857864376269,4.641421356237309L24.14142135623731,4.358578643762691L25.58284271247462,5.8L26.91715728752538,5.8L28.3,4.417157287525381L28.3,3.082842712474619L26.91715728752538,1.7L22.982842712474618,1.7L24.08284271247462,2.8L25.5,2.8L25.5,3.2L23.91715728752538,3.2L22.7,1.982842712474619L22.7,4.582842712474619L21.14142135623731,6.141421356237309L20.85857864376269,5.858578643762691L22.3,4.417157287525381L22.3,1.982842712474619L21.08284271247462,3.2L19.5,3.2L19.5,2.8L20.91715728752538,2.8z" stroke="none"/><path d="M2.8,4.5L3.2,4.5L3.2,6L2.8,6z" stroke="none"/><path d="M15,3.2L15,2.8L16.5,2.8L16.5,3.2z" stroke="none"/><path d="M27.14142135623731,11.85857864376269L26.85857864376269,12.14142135623731L23.85857864376269,9.14142135623731L24.14142135623731,8.85857864376269z" stroke="none"/><path d="M16.35857864376269,9.14142135623731L16.64142135623731,8.85857864376269L18.08284271247462,10.3L19.58284271247462,10.3L21.08284271247462,11.8L24,11.8L24,12.2L20.91715728752538,12.2L19.41715728752538,10.7L17.91715728752538,10.7z" stroke="none"/><path d="M18,11.8L18,12.2L14.91715728752538,12.2L13.41715728752538,10.7L9,10.7L9,10.3L13.58284271247462,10.3L15.08284271247462,11.8z" stroke="none"/><path d="M12.2,4.5L11.8,4.5L11.8,3.082842712474619L10.41715728752538,1.7L7.582842712474619,1.7L6.082842712474619,3.2L3,3.2L3,2.8L5.917157287525381,2.8L7.417157287525381,1.3L10.58284271247462,1.3L12.2,2.917157287525381z" stroke="none"/><path d="M12,11.8L12,12.2L7.417157287525381,12.2L4.417157287525381,9.2L3,9.2L3,8.8L4.582842712474619,8.8L7.582842712474619,11.8z" stroke="none"/><path d="M10.5,4.3L10.5,4.7L9.08284271247462,4.7L7.7,6.082842712474619L7.7,7.417157287525381L9.08284271247462,8.8L13.41715728752538,8.8L14.91715728752538,7.3L22.5,7.3L22.5,7.7L15.08284271247462,7.7L13.58284271247462,9.2L8.91715728752538,9.2L7.3,7.582842712474619L7.3,5.917157287525381L8.91715728752538,4.3z" stroke="none"/></svg>