<svg version="1.1" width="30" height="15" xmlns="http://www.w3.org/2000/svg"><path d="M16.5,10.3L16.5,10.7L13.7,10.7L13.7,11.91715728752538L15.08284271247462,13.3L17.91715728752538,13.3L19.3,11.91715728752538L19.3,10.5L19.7,10.5L19.7,12.08284271247462L18.08284271247462,13.7L14.91715728752538,13.7L13.3,12.08284271247462L13.3,10.7L9,10.7L9,10.3z" stroke="none"/><path d="M11.8,5.8L11.8,3L12.2,3L12.2,5.8L13.41715728752538,5.8L14.8,4.417157287525381L14.8,3.082842712474619L13.41715728752538,1.7L10.58284271247462,1.7L9.14142135623731,3.1414213562373097L8.85857864376269,2.8585786437626903L10.41715728752538,1.3L13.58284271247462,1.3L15.2,2.917157287525381L15.2,4.582842712474619L13.58284271247462,6.2L12.2,6.2L12.2,7.417157287525381L13.58284271247462,8.8L14.91715728752538,8.8L16.35857864376269,7.358578643762691L16.64142135623731,7.641421356237309L15.08284271247462,9.2L13.41715728752538,9.2L11.8,7.582842712474619L11.8,6.2L10.41715728752538,6.2L8.85857864376269,4.641421356237309L9.14142135623731,4.358578643762691L10.58284271247462,5.8z" stroke="none"/><path d="M16.7,6L16.3,6L16.3,4.5L16.7,4.5z" stroke="none"/><path d="M27.14142135623731,4.358578643762691L26.85857864376269,4.641421356237309L25.35857864376269,3.1414213562373097L25.64142135623731,2.8585786437626903z" stroke="none"/><path d="M4.3,7.5L4.7,7.5L4.7,8.91715728752538L6.2,10.41715728752538L6.2,12.08284271247462L4.582842712474619,13.7L2.917157287525381,13.7L1.3,12.08284271247462L1.3,10.41715728752538L2.8585786437626903,8.85857864376269L3.1414213562373097,9.14142135623731L1.7,10.58284271247462L1.7,11.91715728752538L3.082842712474619,13.3L4.417157287525381,13.3L5.8,11.91715728752538L5.8,10.58284271247462L4.3,9.08284271247462z" stroke="none"/><path d="M3.1414213562373097,7.358578643762691L2.8585786437626903,7.641421356237309L1.3,6.082842712474619L1.3,4.417157287525381L2.917157287525381,2.8L4.582842712474619,2.8L6.2,4.417157287525381L6.2,7.5L5.8,7.5L5.8,4.582842712474619L4.417157287525381,3.2L3.082842712474619,3.2L1.7,4.582842712474619L1.7,5.917157287525381z" stroke="none"/><path d="M21.14142135623731,12.14142135623731L20.85857864376269,11.85857864376269L22.41715728752538,10.3L24,10.3L24,10.7L22.58284271247462,10.7z" stroke="none"/><path d="M17.85857864376269,3.1414213562373097L18.14142135623731,2.8585786437626903L19.58284271247462,4.3L21,4.3L21,4.7L19.41715728752538,4.7z" stroke="none"/><path d="M7.7,12L7.3,12L7.3,7.5L7.7,7.5z" stroke="none"/><path d="M18.2,10.5L17.8,10.5L17.8,8.91715728752538L19.41715728752538,7.3L21.08284271247462,7.3L22.58284271247462,8.8L24,8.8L24,9.2L22.41715728752538,9.2L20.91715728752538,7.7L19.58284271247462,7.7L18.2,9.08284271247462z" stroke="none"/></svg>