<svg version="1.1" width="30" height="15" xmlns="http://www.w3.org/2000/svg"><path d="M6,10.217157287525382L7.3,8.91715728752538L7.3,7.417157287525381L8.91715728752538,5.8L10.5,5.8L10.5,6.2L9.08284271247462,6.2L7.7,7.582842712474619L7.7,9.08284271247462L6.4828427124746195,10.3L15,10.3L15,10.7L5.917157287525381,10.7L4.3,9.08284271247462L4.3,7.582842712474619L2.8585786437626903,6.141421356237309L3.1414213562373097,5.858578643762691L4.7,7.417157287525381L4.7,8.91715728752538z" stroke="none"/><path d="M21.08284271247462,2.8L22.7,4.417157287525381L22.7,7.5L22.3,7.5L22.3,4.582842712474619L20.91715728752538,3.2L19.7,3.2L19.7,7.5L19.3,7.5L19.3,3.482842712474619L18.08284271247462,4.7L16.5,4.7L16.5,4.3L17.91715728752538,4.3L19.017157287525382,3.2L15,3.2L15,2.8z" stroke="none"/><path d="M20.8,6L21.2,6L21.2,7.5L20.8,7.5z" stroke="none"/><path d="M10.5,2.8L10.5,3.2L7.5,3.2L7.5,2.8z" stroke="none"/><path d="M23.8,4.5L24.2,4.5L24.2,7.5L23.8,7.5z" stroke="none"/><path d="M26.85857864376269,4.358578643762691L27.14142135623731,4.641421356237309L25.7,6.082842712474619L25.7,9L25.3,9L25.3,5.917157287525381z" stroke="none"/><path d="M6.2,7.5L5.8,7.5L5.8,6.082842712474619L4.3,4.582842712474619L4.3,2.917157287525381L5.917157287525381,1.3L12.08284271247462,1.3L13.7,2.917157287525381L13.7,6.082842712474619L12.14142135623731,7.641421356237309L11.85857864376269,7.358578643762691L13.3,5.917157287525381L13.3,3.082842712474619L11.91715728752538,1.7L6.082842712474619,1.7L4.7,3.082842712474619L4.7,4.417157287525381L6.2,5.917157287525381z" stroke="none"/><path d="M14.85857864376269,12.14142135623731L15.14142135623731,11.85857864376269L16.58284271247462,13.3L19.41715728752538,13.3L20.8,11.91715728752538L20.8,10.5L21.2,10.5L21.2,12.08284271247462L19.58284271247462,13.7L16.41715728752538,13.7z" stroke="none"/><path d="M21,9.2L21,8.8L22.58284271247462,8.8L25.58284271247462,11.8L26.91715728752538,11.8L28.3,10.41715728752538L28.3,9.08284271247462L26.85857864376269,7.641421356237309L27.14142135623731,7.358578643762691L28.7,8.91715728752538L28.7,10.58284271247462L27.08284271247462,12.2L25.41715728752538,12.2L22.41715728752538,9.2z" stroke="none"/><path d="M9,9.2L9,8.8L16.58284271247462,8.8L18.08284271247462,10.3L19.5,10.3L19.5,10.7L17.91715728752538,10.7L16.41715728752538,9.2z" stroke="none"/></svg>