<svg version="1.1" width="30" height="15" xmlns="http://www.w3.org/2000/svg"><path d="M15.08284271247462,8.8L18,8.8L18,9.2L15.08284271247462,9.2L13.58284271247462,10.7L12,10.7L12,10.3L13.41715728752538,10.3L14.717157287525382,9L13.41715728752538,7.7L7.5,7.7L7.5,7.3L13.58284271247462,7.3z" stroke="none"/><path d="M14.8,4.0171572875253805L14.8,2.917157287525381L16.41715728752538,1.3L19.58284271247462,1.3L21.08284271247462,2.8L22.5,2.8L22.5,3.2L20.91715728752538,3.2L19.41715728752538,1.7L16.58284271247462,1.7L15.2,3.082842712474619L15.2,4.3L16.58284271247462,4.3L18.08284271247462,5.8L19.5,5.8L19.5,6.2L17.91715728752538,6.2L16.41715728752538,4.7L15.08284271247462,4.7L13.58284271247462,6.2L12,6.2L12,5.8L13.41715728752538,5.8L14.717157287525382,4.5L13.41715728752538,3.2L12.08284271247462,3.2L10.7,4.582842712474619L10.7,6L10.3,6L10.3,4.417157287525381L11.91715728752538,2.8L13.58284271247462,2.8z" stroke="none"/><path d="M4.358578643762691,4.641421356237309L4.641421356237309,4.358578643762691L6.141421356237309,5.858578643762691L5.858578643762691,6.141421356237309z" stroke="none"/><path d="M25.5,4.3L25.5,4.7L22.5,4.7L22.5,4.3z" stroke="none"/><path d="M19.5,9.2L19.5,8.8L22.5,8.8L22.5,9.2z" stroke="none"/><path d="M10.35857864376269,11.85857864376269L10.64142135623731,12.14142135623731L9.08284271247462,13.7L7.417157287525381,13.7L5.8,12.08284271247462L5.8,10.41715728752538L7.417157287525381,8.8L12,8.8L12,9.2L7.582842712474619,9.2L6.2,10.58284271247462L6.2,11.91715728752538L7.582842712474619,13.3L8.91715728752538,13.3z" stroke="none"/><path d="M24,7.7L24,7.3L25.58284271247462,7.3L27.2,8.91715728752538L27.2,10.58284271247462L25.58284271247462,12.2L23.91715728752538,12.2L22.35857864376269,10.64142135623731L22.64142135623731,10.35857864376269L24.08284271247462,11.8L25.41715728752538,11.8L26.8,10.41715728752538L26.8,9.08284271247462L25.41715728752538,7.7z" stroke="none"/><path d="M4.7,12L4.3,12L4.3,10.58284271247462L2.8585786437626903,9.14142135623731L3.1414213562373097,8.85857864376269L4.7,10.41715728752538z" stroke="none"/><path d="M25.5,5.8L25.5,6.2L22.58284271247462,6.2L21.14142135623731,7.641421356237309L20.85857864376269,7.358578643762691L22.41715728752538,5.8z" stroke="none"/><path d="M6,2.8L6,3.2L3.082842712474619,3.2L1.7,4.582842712474619L1.7,5.917157287525381L3.1414213562373097,7.358578643762691L2.8585786437626903,7.641421356237309L1.3,6.082842712474619L1.3,4.417157287525381L2.917157287525381,2.8z" stroke="none"/></svg>