<svg version="1.1" width="30" height="15" xmlns="http://www.w3.org/2000/svg"><path d="M13.3,4.417157287525381L14.91715728752538,2.8L16.58284271247462,2.8L18.2,4.417157287525381L18.2,9L17.8,9L17.8,4.582842712474619L16.41715728752538,3.2L15.08284271247462,3.2L13.7,4.582842712474619L13.7,5.8L16.5,5.8L16.5,6.2L13.7,6.2L13.7,7.582842712474619L12.14142135623731,9.14142135623731L11.85857864376269,8.85857864376269L13.3,7.417157287525381z" stroke="none"/><path d="M14.8,10.3L14.8,8.91715728752538L16.35857864376269,7.358578643762691L16.64142135623731,7.641421356237309L15.2,9.08284271247462L15.2,10.41715728752538L16.58284271247462,11.8L19.5,11.8L19.5,12.2L16.41715728752538,12.2L15.2,10.98284271247462L15.2,12.08284271247462L13.58284271247462,13.7L7.417157287525381,13.7L4.3,10.58284271247462L4.3,7.417157287525381L5.8,5.917157287525381L5.8,4.582842712474619L4.417157287525381,3.2L3.082842712474619,3.2L1.7,4.582842712474619L1.7,7.417157287525381L4.582842712474619,10.3L9,10.3L9,10.7L4.417157287525381,10.7L1.3,7.582842712474619L1.3,4.417157287525381L2.917157287525381,2.8L4.582842712474619,2.8L6.2,4.417157287525381L6.2,6.082842712474619L4.7,7.582842712474619L4.7,10.41715728752538L7.582842712474619,13.3L13.41715728752538,13.3L14.8,11.91715728752538L14.8,10.7L13.58284271247462,10.7L12.08284271247462,12.2L10.5,12.2L10.5,11.8L11.91715728752538,11.8L13.41715728752538,10.3z" stroke="none"/><path d="M22.7,7.5L22.3,7.5L22.3,6L22.7,6z" stroke="none"/><path d="M6,9.2L6,8.8L7.5,8.8L7.5,9.2z" stroke="none"/><path d="M27.2,9L26.8,9L26.8,7.5L27.2,7.5z" stroke="none"/><path d="M10.5,7.3L10.5,7.7L9,7.7L9,7.3z" stroke="none"/><path d="M25.5,11.8L25.5,12.2L24,12.2L24,11.8z" stroke="none"/><path d="M21.2,7.5L20.8,7.5L20.8,3L21.2,3z" stroke="none"/><path d="M18,10.7L18,10.3L19.41715728752538,10.3L20.91715728752538,8.8L23.91715728752538,8.8L25.35857864376269,7.358578643762691L25.64142135623731,7.641421356237309L24.08284271247462,9.2L21.08284271247462,9.2L19.58284271247462,10.7z" stroke="none"/><path d="M24.14142135623731,2.8585786437626903L23.85857864376269,3.1414213562373097L22.41715728752538,1.7L13.58284271247462,1.7L12.14142135623731,3.1414213562373097L11.85857864376269,2.8585786437626903L13.41715728752538,1.3L22.58284271247462,1.3z" stroke="none"/></svg>