<svg version="1.1" width="30" height="15" xmlns="http://www.w3.org/2000/svg"><path d="M10.3,8.8L10.3,7.582842712474619L8.91715728752538,6.2L7.582842712474619,6.2L6.2,7.582842712474619L6.2,9L5.8,9L5.8,7.417157287525381L7.417157287525381,5.8L9.08284271247462,5.8L10.7,7.417157287525381L10.7,10.41715728752538L12.14142135623731,11.85857864376269L11.85857864376269,12.14142135623731L10.3,10.58284271247462L10.3,9.2L7.5,9.2L7.5,8.8z" stroke="none"/><path d="M19.3,8.8L19.3,7.582842712474619L17.91715728752538,6.2L15,6.2L15,5.8L18.08284271247462,5.8L19.7,7.417157287525381L19.7,8.8L27,8.8L27,9.2L19.982842712474618,9.2L21.08284271247462,10.3L22.5,10.3L22.5,10.7L20.91715728752538,10.7L19.41715728752538,9.2L18.08284271247462,9.2L16.58284271247462,10.7L15,10.7L15,10.3L16.41715728752538,10.3L17.91715728752538,8.8z" stroke="none"/><path d="M13.7,12L13.3,12L13.3,10.5L13.7,10.5z" stroke="none"/><path d="M27.14142135623731,5.858578643762691L26.85857864376269,6.141421356237309L25.35857864376269,4.641421356237309L25.64142135623731,4.358578643762691z" stroke="none"/><path d="M15,7.3L15,7.7L13.41715728752538,7.7L11.85857864376269,6.141421356237309L12.14142135623731,5.858578643762691L13.58284271247462,7.3z" stroke="none"/><path d="M11.85857864376269,2.8585786437626903L12.14142135623731,3.1414213562373097L10.58284271247462,4.7L7.5,4.7L7.5,4.3L10.41715728752538,4.3z" stroke="none"/><path d="M4.3,9L4.7,9L4.7,10.41715728752538L6.082842712474619,11.8L9,11.8L9,12.2L5.917157287525381,12.2L4.3,10.58284271247462z" stroke="none"/><path d="M2.8585786437626903,2.8585786437626903L3.1414213562373097,3.1414213562373097L1.7,4.582842712474619L1.7,8.91715728752538L3.2,10.41715728752538L3.2,11.91715728752538L4.582842712474619,13.3L25.41715728752538,13.3L28.3,10.41715728752538L28.3,4.582842712474619L26.91715728752538,3.2L14.91715728752538,3.2L13.41715728752538,1.7L10.58284271247462,1.7L9.14142135623731,3.1414213562373097L8.85857864376269,2.8585786437626903L10.41715728752538,1.3L13.58284271247462,1.3L15.08284271247462,2.8L27.08284271247462,2.8L28.7,4.417157287525381L28.7,10.58284271247462L25.58284271247462,13.7L4.417157287525381,13.7L2.8,12.08284271247462L2.8,10.58284271247462L1.3,9.08284271247462L1.3,4.417157287525381z" stroke="none"/><path d="M7.5,2.8L7.5,3.2L6.082842712474619,3.2L4.7,4.582842712474619L4.7,6.082842712474619L3.1414213562373097,7.641421356237309L2.8585786437626903,7.358578643762691L4.3,5.917157287525381L4.3,4.417157287525381L5.917157287525381,2.8z" stroke="none"/><path d="M20.85857864376269,4.641421356237309L21.14142135623731,4.358578643762691L24.08284271247462,7.3L27,7.3L27,7.7L23.91715728752538,7.7z" stroke="none"/></svg>