<svg version="1.1" width="30" height="15" xmlns="http://www.w3.org/2000/svg"><path d="M17.8,5.8L17.8,4.417157287525381L19.41715728752538,2.8L22.58284271247462,2.8L24.2,4.417157287525381L24.2,7.417157287525381L25.64142135623731,8.85857864376269L25.35857864376269,9.14142135623731L23.8,7.582842712474619L23.8,4.582842712474619L22.41715728752538,3.2L19.58284271247462,3.2L18.2,4.582842712474619L18.2,5.8L21,5.8L21,6.2L16.41715728752538,6.2L14.91715728752538,4.7L13.5,4.7L13.5,4.3L15.08284271247462,4.3L16.58284271247462,5.8z" stroke="none"/><path d="M11.8,8.8L11.8,7.417157287525381L13.35857864376269,5.858578643762691L13.64142135623731,6.141421356237309L12.2,7.582842712474619L12.2,12.08284271247462L10.58284271247462,13.7L8.91715728752538,13.7L7.3,12.08284271247462L7.3,10.5L7.7,10.5L7.7,11.91715728752538L9.08284271247462,13.3L10.41715728752538,13.3L11.8,11.91715728752538L11.8,9.48284271247462L10.58284271247462,10.7L9,10.7L9,10.3L10.41715728752538,10.3L11.51715728752538,9.2L10.41715728752538,9.2L8.8,7.582842712474619L8.8,6L9.2,6L9.2,7.417157287525381L10.58284271247462,8.8z" stroke="none"/><path d="M22.5,11.8L22.5,12.2L21,12.2L21,11.8z" stroke="none"/><path d="M22.7,7.5L22.3,7.5L22.3,6L22.7,6z" stroke="none"/><path d="M21,8.8L21,9.2L18,9.2L18,8.8z" stroke="none"/><path d="M14.8,7.5L15.2,7.5L15.2,10.5L14.8,10.5z" stroke="none"/><path d="M25.35857864376269,6.141421356237309L25.64142135623731,5.858578643762691L27.2,7.417157287525381L27.2,9L26.8,9L26.8,7.582842712474619z" stroke="none"/><path d="M4.358578643762691,4.641421356237309L4.641421356237309,4.358578643762691L6.082842712474619,5.8L7.5,5.8L7.5,6.2L5.917157287525381,6.2z" stroke="none"/><path d="M6,3.2L6,2.8L7.582842712474619,2.8L9.08284271247462,4.3L10.5,4.3L10.5,4.7L8.91715728752538,4.7L7.417157287525381,3.2z" stroke="none"/><path d="M15,12.2L15,11.8L16.58284271247462,11.8L18.08284271247462,13.3L25.41715728752538,13.3L28.3,10.41715728752538L28.3,6.082842712474619L23.91715728752538,1.7L4.582842712474619,1.7L3.2,3.082842712474619L3.2,5.917157287525381L6.141421356237309,8.85857864376269L5.858578643762691,9.14142135623731L2.8,6.082842712474619L2.8,2.917157287525381L4.417157287525381,1.3L24.08284271247462,1.3L28.7,5.917157287525381L28.7,10.58284271247462L25.58284271247462,13.7L17.91715728752538,13.7L16.41715728752538,12.2z" stroke="none"/></svg>