<svg version="1.1" width="30" height="15" xmlns="http://www.w3.org/2000/svg"><path d="M10.3,5.8L10.3,4.582842712474619L8.85857864376269,3.1414213562373097L9.14142135623731,2.8585786437626903L10.7,4.417157287525381L10.7,7.582842712474619L9.08284271247462,9.2L7.417157287525381,9.2L5.858578643762691,7.641421356237309L6.141421356237309,7.358578643762691L7.582842712474619,8.8L8.91715728752538,8.8L10.3,7.417157287525381L10.3,6.2L7.5,6.2L7.5,5.8z" stroke="none"/><path d="M20.8,5.8L20.8,4.417157287525381L22.35857864376269,2.8585786437626903L22.64142135623731,3.1414213562373097L21.2,4.582842712474619L21.2,5.8L22.58284271247462,5.8L24.2,7.417157287525381L24.2,9.08284271247462L22.58284271247462,10.7L16.41715728752538,10.7L14.8,9.08284271247462L14.8,7.5L15.2,7.5L15.2,8.91715728752538L16.58284271247462,10.3L22.41715728752538,10.3L23.8,8.91715728752538L23.8,7.582842712474619L22.41715728752538,6.2L21.2,6.2L21.2,7.582842712474619L19.58284271247462,9.2L17.91715728752538,9.2L16.3,7.582842712474619L16.3,6L16.7,6L16.7,7.417157287525381L18.08284271247462,8.8L19.41715728752538,8.8L20.8,7.417157287525381L20.8,6.2L19.41715728752538,6.2L17.85857864376269,4.641421356237309L18.14142135623731,4.358578643762691L19.58284271247462,5.8z" stroke="none"/><path d="M18,2.8L18,3.2L15,3.2L15,2.8z" stroke="none"/><path d="M7.5,11.8L7.5,12.2L4.5,12.2L4.5,11.8z" stroke="none"/><path d="M6.141421356237309,10.35857864376269L5.858578643762691,10.64142135623731L4.3,9.08284271247462L4.3,7.5L4.7,7.5L4.7,8.91715728752538z" stroke="none"/><path d="M4.3,3L4.7,3L4.7,4.417157287525381L6.141421356237309,5.858578643762691L5.858578643762691,6.141421356237309L4.3,4.582842712474619z" stroke="none"/><path d="M25.3,3L25.7,3L25.7,4.417157287525381L27.14142135623731,5.858578643762691L26.85857864376269,6.141421356237309L25.3,4.582842712474619z" stroke="none"/><path d="M7.5,10.7L7.5,10.3L10.41715728752538,10.3L13.35857864376269,7.358578643762691L13.64142135623731,7.641421356237309L10.58284271247462,10.7z" stroke="none"/><path d="M16.5,12.2L16.5,11.8L24,11.8L24,12.2z" stroke="none"/><path d="M13.35857864376269,10.35857864376269L13.64142135623731,10.64142135623731L12.08284271247462,12.2L10.58284271247462,12.2L9.08284271247462,13.7L2.917157287525381,13.7L1.3,12.08284271247462L1.3,2.917157287525381L2.917157287525381,1.3L27.08284271247462,1.3L28.7,2.917157287525381L28.7,7.582842712474619L27.2,9.08284271247462L27.2,10.58284271247462L25.64142135623731,12.14142135623731L25.35857864376269,11.85857864376269L26.8,10.41715728752538L26.8,8.91715728752538L28.3,7.417157287525381L28.3,3.082842712474619L26.91715728752538,1.7L3.082842712474619,1.7L1.7,3.082842712474619L1.7,11.91715728752538L3.082842712474619,13.3L8.91715728752538,13.3L10.41715728752538,11.8L11.91715728752538,11.8z" stroke="none"/></svg>