<svg version="1.1" width="30" height="15" xmlns="http://www.w3.org/2000/svg"><path d="M13.58284271247462,10.3L18,10.3L18,10.7L13.41715728752538,10.7L12.2,9.48284271247462L12.2,11.91715728752538L13.58284271247462,13.3L14.91715728752538,13.3L16.41715728752538,11.8L18,11.8L18,12.2L16.58284271247462,12.2L15.08284271247462,13.7L13.41715728752538,13.7L11.8,12.08284271247462L11.8,9.08284271247462L10.41715728752538,7.7L9,7.7L9,7.3L10.58284271247462,7.3z" stroke="none"/><path d="M18.08284271247462,2.8L19.7,4.417157287525381L19.7,6L19.3,6L19.3,4.582842712474619L17.91715728752538,3.2L13.98284271247462,3.2L15.08284271247462,4.3L16.58284271247462,4.3L18.14142135623731,5.858578643762691L17.85857864376269,6.141421356237309L16.41715728752538,4.7L14.91715728752538,4.7L13.5,3.282842712474619L12.2,4.582842712474619L12.2,6L11.8,6L11.8,4.417157287525381L13.01715728752538,3.2L9,3.2L9,2.8z" stroke="none"/><path d="M20.85857864376269,3.1414213562373097L21.14142135623731,2.8585786437626903L22.64142135623731,4.358578643762691L22.35857864376269,4.641421356237309z" stroke="none"/><path d="M4.641421356237309,7.641421356237309L4.358578643762691,7.358578643762691L5.858578643762691,5.858578643762691L6.141421356237309,6.141421356237309z" stroke="none"/><path d="M5.858578643762691,3.1414213562373097L6.141421356237309,2.8585786437626903L7.582842712474619,4.3L9,4.3L9,4.7L7.417157287525381,4.7z" stroke="none"/><path d="M24.14142135623731,9.14142135623731L23.85857864376269,8.85857864376269L26.85857864376269,5.858578643762691L27.14142135623731,6.141421356237309z" stroke="none"/><path d="M7.3,6L7.7,6L7.7,7.582842712474619L6.082842712474619,9.2L4.5,9.2L4.5,8.8L5.917157287525381,8.8L7.3,7.417157287525381z" stroke="none"/><path d="M15,9.2L15,8.8L20.91715728752538,8.8L23.8,5.917157287525381L23.8,4.417157287525381L25.41715728752538,2.8L27.08284271247462,2.8L28.7,4.417157287525381L28.7,7.582842712474619L25.58284271247462,10.7L22.58284271247462,10.7L21.08284271247462,12.2L19.5,12.2L19.5,11.8L20.91715728752538,11.8L22.41715728752538,10.3L25.41715728752538,10.3L28.3,7.417157287525381L28.3,4.582842712474619L26.91715728752538,3.2L25.58284271247462,3.2L24.2,4.582842712474619L24.2,6.082842712474619L21.08284271247462,9.2z" stroke="none"/><path d="M19.5,7.3L19.5,7.7L16.41715728752538,7.7L14.91715728752538,6.2L13.5,6.2L13.5,5.8L15.08284271247462,5.8L16.58284271247462,7.3z" stroke="none"/><path d="M8.85857864376269,10.35857864376269L9.14142135623731,10.64142135623731L7.582842712474619,12.2L4.417157287525381,12.2L2.8,10.58284271247462L2.8,7.5L3.2,7.5L3.2,10.41715728752538L4.582842712474619,11.8L7.417157287525381,11.8z" stroke="none"/></svg>