<svg version="1.1" width="30" height="15" xmlns="http://www.w3.org/2000/svg"><path d="M7.949282106690083,3.8071428571428574L12.449282106690081,3.8071428571428574L12.663567820975796,4.021428571428571L13.092139249547223,4.021428571428571L13.535355339059327,4.464644660940673L13.464644660940673,4.535355339059327L13.050717893309915,4.121428571428571L12.622146464738488,4.121428571428571L12.407860750452773,3.907142857142857L4.520710678118655,3.907142857142857L4.30642496383294,4.121428571428571L3.449282106690083,4.121428571428571L3.0353553390593273,4.535355339059327L2.9646446609406727,4.464644660940673L3.4078607504527736,4.021428571428571L4.265003607595631,4.021428571428571L4.479289321881345,3.8071428571428574L7.8078607504527735,3.8071428571428574L7.664285714285715,3.6635678209757976L7.664285714285715,3.234996392404369L7.464644660940673,3.0353553390593273L7.535355339059327,2.9646446609406727L7.764285714285714,3.1935750361670596L7.764285714285714,3.622146464738488z" stroke="none"/><path d="M24.663567820975796,4.45L27,4.45L27,4.55L24.692857142857143,4.55L24.692857142857143,4.734996392404369L24.44928210669008,4.978571428571429L24.020710678118654,4.978571428571429L23.592139249547223,5.407142857142857L23.37785353526151,5.407142857142857L22.73499639240437,6.05L22.5,6.05L22.5,5.95L22.69357503616706,5.95L23.336432179024204,5.307142857142857L23.550717893309915,5.307142857142857L23.979289321881346,4.878571428571429L24.407860750452773,4.878571428571429L24.59285714285714,4.69357503616706L24.59285714285714,4.520710678118655L24.378571428571426,4.30642496383294L24.378571428571426,4.092139249547226L24.19357503616706,3.907142857142857L23.979289321881346,3.907142857142857L23.336432179024204,3.2642857142857142L23.12214646473849,3.2642857142857142L22.907860750452773,3.05L22.5,3.05L22.5,2.95L22.94928210669008,2.95L23.163567820975796,3.1642857142857146L23.37785353526151,3.1642857142857146L24.020710678118654,3.8071428571428574L24.23499639240437,3.8071428571428574L24.478571428571428,4.050717893309916L24.478571428571428,4.265003607595631z" stroke="none"/><path d="M16.5,11.95L16.5,12.05L13.978571428571428,12.05L13.978571428571428,12.193575036167061L14.163567820975796,12.378571428571426L15.193575036167061,12.378571428571426L15.407860750452773,12.164285714285715L16.907860750452773,12.164285714285715L17.12214646473849,11.95L18,11.95L18,12.05L17.163567820975796,12.05L16.94928210669008,12.264285714285716L15.449282106690081,12.264285714285716L15.23499639240437,12.478571428571428L14.122146464738488,12.478571428571428L13.878571428571426,12.23499639240437L13.878571428571426,12.05L11.377853535261512,12.05L11.163567820975796,12.264285714285716L9.663567820975796,12.264285714285716L9.449282106690081,12.478571428571428L7.907860750452773,12.478571428571428L7.464644660940673,12.035355339059327L7.535355339059327,11.964644660940673L7.949282106690083,12.378571428571426L9.407860750452773,12.378571428571426L9.622146464738488,12.164285714285715L11.122146464738488,12.164285714285715L11.336432179024204,11.95z" stroke="none"/><path d="M8.092857142857142,6.164285714285715L8.092857142857142,5.979289321881345L8.550717893309915,5.521428571428571L8.979289321881346,5.521428571428571L9.407860750452773,5.0928571428571425L9.622146464738488,5.0928571428571425L10.26500360759563,4.45L10.5,4.45L10.5,4.55L10.306424963832939,4.55L9.663567820975796,5.192857142857142L9.449282106690081,5.192857142857142L9.020710678118654,5.621428571428571L8.592139249547223,5.621428571428571L8.192857142857143,6.020710678118655L8.192857142857143,6.164285714285715L8.377853535261512,6.164285714285715L9.020710678118654,6.807142857142857L9.663567820975796,6.807142857142857L10.306424963832939,7.45L10.5,7.45L10.5,7.55L10.26500360759563,7.55L9.622146464738488,6.907142857142857L8.979289321881346,6.907142857142857L8.336432179024204,6.264285714285714L8.192857142857143,6.264285714285714L8.192857142857143,6.449282106690083L7.949282106690083,6.692857142857142L6.8778535352615116,6.692857142857142L6.663567820975797,6.907142857142857L5.592139249547226,6.907142857142857L5.3778535352615116,7.121428571428571L4.092139249547226,7.121428571428571L3.877853535261512,7.335714285714285L3.234996392404369,7.335714285714285L3.0353553390593273,7.535355339059327L2.9646446609406727,7.464644660940673L3.1935750361670596,7.235714285714286L3.8364321790242024,7.235714285714286L4.050717893309916,7.021428571428571L5.336432179024202,7.021428571428571L5.550717893309916,6.807142857142857L6.622146464738488,6.807142857142857L6.836432179024202,6.5928571428571425L7.907860750452773,6.5928571428571425L8.092857142857142,6.407860750452773L8.092857142857142,6.264285714285714L7.907860750452773,6.264285714285714L7.69357503616706,6.05L7.5,6.05L7.5,5.95L7.734996392404369,5.95L7.949282106690083,6.164285714285715z" stroke="none"/><path d="M20.521428571428572,5.95L20.521428571428572,5.765003607595631L20.735714285714284,5.550717893309916L20.735714285714284,5.122146464738488L20.95,4.907860750452774L20.95,4.265003607595631L21.164285714285715,4.050717893309916L21.164285714285715,3.622146464738488L21.59285714285714,3.1935750361670596L21.59285714285714,2.979289321881345L22.05071789330992,2.521428571428572L24.663567820975796,2.521428571428572L24.87785353526151,2.7357142857142858L25.092139249547223,2.7357142857142858L25.30642496383294,2.95L25.5,2.95L25.5,3.05L25.26500360759563,3.05L25.050717893309915,2.8357142857142854L24.836432179024204,2.8357142857142854L24.62214646473849,2.6214285714285714L22.092139249547227,2.6214285714285714L21.692857142857143,3.020710678118655L21.692857142857143,3.234996392404369L21.264285714285716,3.6635678209757976L21.264285714285716,4.092139249547226L21.05,4.30642496383294L21.05,4.949282106690084L20.835714285714285,5.163567820975797L20.835714285714285,5.592139249547226L20.621428571428574,5.80642496383294L20.621428571428574,5.95L21.663567820975796,5.95L22.092139249547227,6.378571428571428L23.336432179024204,6.378571428571428L23.76500360759563,5.95L24,5.95L24,6.05L23.80642496383294,6.05L23.37785353526151,6.478571428571428L22.05071789330992,6.478571428571428L21.62214646473849,6.05L20.592139249547227,6.05L20.37785353526151,6.264285714285714L19.94928210669008,6.264285714285714L19.30642496383294,6.907142857142857L19.092139249547227,6.907142857142857L18.87785353526151,7.121428571428571L18.663567820975796,7.121428571428571L18.23499639240437,7.55L18,7.55L18,7.45L18.19357503616706,7.45L18.62214646473849,7.021428571428571L18.836432179024204,7.021428571428571L19.05071789330992,6.807142857142857L19.26500360759563,6.807142857142857L19.907860750452773,6.164285714285715L20.336432179024204,6.164285714285715L20.450717893309918,6.05L19.520710678118654,6.05L19.30642496383294,6.264285714285714L19.092139249547227,6.264285714285714L18.87785353526151,6.478571428571428L18.663567820975796,6.478571428571428L18.44928210669008,6.692857142857142L18.020710678118654,6.692857142857142L17.80642496383294,6.907142857142857L17.592139249547227,6.907142857142857L17.37785353526151,7.121428571428571L16.092139249547223,7.121428571428571L15.663567820975796,7.55L15,7.55L15,7.45L15.622146464738488,7.45L16.050717893309915,7.021428571428571L17.336432179024204,7.021428571428571L17.55071789330992,6.807142857142857L17.76500360759563,6.807142857142857L17.979289321881346,6.5928571428571425L18.407860750452773,6.5928571428571425L18.62214646473849,6.378571428571428L18.836432179024204,6.378571428571428L19.05071789330992,6.164285714285715L19.26500360759563,6.164285714285715L19.479289321881346,5.95z" stroke="none"/><path d="M20.521428571428572,9.164285714285715L20.521428571428572,8.979289321881346L21.19357503616706,8.307142857142857L22.05071789330992,8.307142857142857L22.26500360759563,8.092857142857142L23.550717893309915,8.092857142857142L23.76500360759563,7.878571428571428L24.836432179024204,7.878571428571428L25.26500360759563,7.45L25.5,7.45L25.5,7.55L25.30642496383294,7.55L24.87785353526151,7.978571428571428L23.80642496383294,7.978571428571428L23.592139249547223,8.192857142857143L22.30642496383294,8.192857142857143L22.092139249547227,8.407142857142858L21.23499639240437,8.407142857142858L20.621428571428574,9.020710678118654L20.621428571428574,9.164285714285715L24.836432179024204,9.164285714285715L25.050717893309915,8.95L25.5,8.95L25.5,9.05L25.092139249547223,9.05L24.87785353526151,9.264285714285716L20.621428571428574,9.264285714285716L20.621428571428574,9.449282106690081L20.37785353526151,9.692857142857143L19.520710678118654,9.692857142857143L19.092139249547227,10.12142857142857L17.592139249547227,10.12142857142857L16.94928210669008,10.764285714285716L15.193575036167061,10.764285714285716L14.964644660940673,10.535355339059327L15.035355339059327,10.464644660940673L15.23499639240437,10.664285714285715L16.907860750452773,10.664285714285715L17.55071789330992,10.021428571428569L19.05071789330992,10.021428571428569L19.479289321881346,9.592857142857142L20.336432179024204,9.592857142857142L20.521428571428572,9.407860750452773L20.521428571428572,9.264285714285716L19.94928210669008,9.264285714285716L19.73499639240437,9.478571428571428L19.092139249547227,9.478571428571428L18.663567820975796,9.907142857142858L17.37785353526151,9.907142857142858L16.73499639240437,10.55L16.5,10.55L16.5,10.45L16.69357503616706,10.45L17.336432179024204,9.807142857142857L18.62214646473849,9.807142857142857L19.05071789330992,9.378571428571426L19.69357503616706,9.378571428571426L19.907860750452773,9.164285714285715z" stroke="none"/><path d="M22.5,4.55L22.5,4.45L24,4.45L24,4.55z" stroke="none"/><path d="M9.05,10.5L8.95,10.5L8.95,9L9.05,9z" stroke="none"/><path d="M2.95,3L3.05,3L3.05,3.6635678209757976L2.6214285714285714,4.092139249547226L2.6214285714285714,4.907860750452774L2.8064249638329404,5.0928571428571425L3.4078607504527736,5.0928571428571425L3.8364321790242024,4.664285714285715L4.050717893309916,4.664285714285715L4.265003607595631,4.45L4.5,4.45L4.5,4.55L4.30642496383294,4.55L4.092139249547226,4.764285714285714L3.877853535261512,4.764285714285714L3.449282106690083,5.192857142857142L2.765003607595631,5.192857142857142L2.521428571428572,4.949282106690084L2.521428571428572,4.050717893309916L2.95,3.622146464738488z" stroke="none"/><path d="M10.464644660940673,6.035355339059327L10.535355339059327,5.964644660940673L10.978571428571428,6.407860750452773L10.978571428571428,7.949282106690083L10.73499639240437,8.192857142857143L9.622146464738488,8.192857142857143L8.964644660940673,7.535355339059327L9.035355339059327,7.464644660940673L9.663567820975796,8.092857142857142L10.693575036167061,8.092857142857142L10.878571428571426,7.907860750452773L10.878571428571426,6.449282106690083z" stroke="none"/><path d="M12,4.55L12,4.45L12.449282106690081,4.45L12.877853535261512,4.878571428571429L13.907860750452773,4.878571428571429L14.092857142857142,4.69357503616706L14.092857142857142,4.30642496383294L13.907860750452773,4.121428571428571L13.693575036167061,4.121428571428571L13.479289321881346,3.907142857142857L13.050717893309915,3.907142857142857L12.836432179024204,3.6928571428571426L10.26500360759563,3.6928571428571426L10.050717893309915,3.478571428571428L9.836432179024204,3.478571428571428L9.622146464738488,3.2642857142857142L9.193575036167061,3.2642857142857142L8.964644660940673,3.0353553390593273L9.035355339059327,2.9646446609406727L9.23499639240437,3.1642857142857146L9.663567820975796,3.1642857142857146L9.877853535261512,3.3785714285714286L10.092139249547223,3.3785714285714286L10.306424963832939,3.592857142857143L12.877853535261512,3.592857142857143L13.092139249547223,3.8071428571428574L13.520710678118654,3.8071428571428574L13.73499639240437,4.021428571428571L13.949282106690081,4.021428571428571L14.192857142857143,4.265003607595631L14.192857142857143,4.734996392404369L13.949282106690081,4.978571428571429L12.836432179024204,4.978571428571429L12.407860750452773,4.55z" stroke="none"/><path d="M7.464644660940673,10.535355339059327L7.535355339059327,10.464644660940673L7.734996392404369,10.664285714285715L7.949282106690083,10.664285714285715L8.163567820975796,10.878571428571426L9.407860750452773,10.878571428571426L10.021428571428569,10.26500360759563L10.021428571428569,9.836432179024204L10.235714285714284,9.622146464738488L10.235714285714284,9.407860750452773L10.45,9.193575036167061L10.45,9L10.55,9L10.55,9.23499639240437L10.335714285714285,9.449282106690081L10.335714285714285,9.663567820975796L10.12142857142857,9.877853535261512L10.12142857142857,10.306424963832939L9.449282106690081,10.978571428571428L8.122146464738488,10.978571428571428L7.907860750452773,10.764285714285716L7.69357503616706,10.764285714285716z" stroke="none"/><path d="M3.0353553390593273,10.535355339059327L2.9646446609406727,10.464644660940673L3.622146464738488,9.807142857142857L3.8364321790242024,9.807142857142857L4.050717893309916,9.592857142857142L4.479289321881345,9.592857142857142L4.69357503616706,9.378571428571426L4.907860750452774,9.378571428571426L5.122146464738488,9.164285714285715L5.765003607595631,9.164285714285715L5.964644660940673,8.964644660940673L6.035355339059327,9.035355339059327L5.80642496383294,9.264285714285716L5.163567820975797,9.264285714285716L4.949282106690084,9.478571428571428L4.734996392404369,9.478571428571428L4.520710678118655,9.692857142857143L4.092139249547226,9.692857142857143L3.877853535261512,9.907142857142858L3.6635678209757976,9.907142857142858z" stroke="none"/><path d="M11.964644660940673,6.035355339059327L12.035355339059327,5.964644660940673L13.092139249547223,7.021428571428571L13.306424963832939,7.021428571428571L13.520710678118654,7.235714285714286L13.949282106690081,7.235714285714286L14.592139249547223,7.878571428571428L15.622146464738488,7.878571428571428L15.836432179024204,7.664285714285715L16.26500360759563,7.664285714285715L16.46464466094067,7.464644660940673L16.53535533905933,7.535355339059327L16.30642496383294,7.764285714285714L15.877853535261512,7.764285714285714L15.663567820975796,7.978571428571428L14.550717893309915,7.978571428571428L13.907860750452773,7.335714285714285L13.479289321881346,7.335714285714285L13.26500360759563,7.121428571428571L13.050717893309915,7.121428571428571z" stroke="none"/><path d="M27,10.45L27,10.55L26.80642496383294,10.55L26.592139249547223,10.764285714285716L26.37785353526151,10.764285714285716L25.94928210669008,11.192857142857143L25.520710678118654,11.192857142857143L25.092139249547223,11.62142857142857L24.663567820975796,11.62142857142857L24.44928210669008,11.835714285714285L22.94928210669008,11.835714285714285L22.73499639240437,12.05L22.5,12.05L22.5,11.95L22.69357503616706,11.95L22.907860750452773,11.735714285714284L24.407860750452773,11.735714285714284L24.62214646473849,11.521428571428569L25.050717893309915,11.521428571428569L25.479289321881346,11.092857142857142L25.907860750452773,11.092857142857142L26.336432179024204,10.664285714285715L26.550717893309915,10.664285714285715L26.76500360759563,10.45z" stroke="none"/><path d="M26.95,6L27.05,6L27.05,6.234996392404369L26.835714285714285,6.449282106690083L26.835714285714285,6.8778535352615116L26.192857142857143,7.520710678118655L26.192857142857143,9.23499639240437L25.94928210669008,9.478571428571428L25.73499639240437,9.478571428571428L25.092139249547223,10.12142857142857L24.87785353526151,10.12142857142857L24.663567820975796,10.335714285714285L24.44928210669008,10.335714285714285L24.23499639240437,10.55L24,10.55L24,10.45L24.19357503616706,10.45L24.407860750452773,10.235714285714284L24.62214646473849,10.235714285714284L24.836432179024204,10.021428571428569L25.050717893309915,10.021428571428569L25.69357503616706,9.378571428571426L25.907860750452773,9.378571428571426L26.09285714285714,9.193575036167061L26.09285714285714,7.479289321881345L26.735714285714284,6.836432179024202L26.735714285714284,6.407860750452773L26.95,6.19357503616706z" stroke="none"/><path d="M12,10.55L12,10.45L12.449282106690081,10.45L12.877853535261512,10.878571428571426L17.336432179024204,10.878571428571426L17.55071789330992,10.664285714285715L17.76500360759563,10.664285714285715L17.96464466094067,10.464644660940673L18.03535533905933,10.535355339059327L17.80642496383294,10.764285714285716L17.592139249547227,10.764285714285716L17.37785353526151,10.978571428571428L12.836432179024204,10.978571428571428L12.407860750452773,10.55z" stroke="none"/><path d="M3,12.05L3,11.95L6.407860750452773,11.95L6.836432179024202,11.521428571428569L8.76500360759563,11.521428571428569L8.979289321881346,11.307142857142857L9.193575036167061,11.307142857142857L9.407860750452773,11.092857142857142L9.622146464738488,11.092857142857142L10.050717893309915,10.664285714285715L10.26500360759563,10.664285714285715L10.464644660940673,10.464644660940673L10.535355339059327,10.535355339059327L10.306424963832939,10.764285714285716L10.092139249547223,10.764285714285716L9.663567820975796,11.192857142857143L9.449282106690081,11.192857142857143L9.23499639240437,11.407142857142858L9.020710678118654,11.407142857142858L8.806424963832939,11.62142857142857L6.8778535352615116,11.62142857142857L6.449282106690083,12.05z" stroke="none"/><path d="M27.03535533905933,2.9646446609406727L26.96464466094067,3.0353553390593273L26.76500360759563,2.8357142857142854L26.12214646473849,2.8357142857142854L25.907860750452773,2.6214285714285714L25.050717893309915,2.6214285714285714L24.836432179024204,2.407142857142857L20.80642496383294,2.407142857142857L20.192857142857143,3.020710678118655L20.192857142857143,3.234996392404369L19.978571428571428,3.449282106690083L19.978571428571428,3.6635678209757976L19.764285714285716,3.877853535261512L19.764285714285716,4.092139249547226L19.55,4.30642496383294L19.55,4.5L19.45,4.5L19.45,4.265003607595631L19.664285714285715,4.050717893309916L19.664285714285715,3.8364321790242024L19.878571428571426,3.622146464738488L19.878571428571426,3.4078607504527736L20.09285714285714,3.1935750361670596L20.09285714285714,2.979289321881345L20.76500360759563,2.3071428571428574L24.87785353526151,2.3071428571428574L25.092139249547223,2.521428571428572L25.94928210669008,2.521428571428572L26.163567820975796,2.7357142857142858L26.80642496383294,2.7357142857142858z" stroke="none"/><path d="M4.535355339059327,10.535355339059327L4.464644660940673,10.464644660940673L5.122146464738488,9.807142857142857L5.336432179024202,9.807142857142857L5.765003607595631,9.378571428571426L7.050717893309916,9.378571428571426L7.265003607595631,9.164285714285715L7.69357503616706,9.164285714285715L7.907860750452773,8.95L8.122146464738488,8.95L8.550717893309915,8.521428571428569L10.949282106690081,8.521428571428569L12.020710678118654,9.592857142857142L12.23499639240437,9.592857142857142L12.449282106690081,9.807142857142857L12.663567820975796,9.807142857142857L13.306424963832939,10.45L13.5,10.45L13.5,10.55L13.26500360759563,10.55L12.622146464738488,9.907142857142858L12.407860750452773,9.907142857142858L12.193575036167061,9.692857142857143L11.979289321881346,9.692857142857143L10.907860750452773,8.62142857142857L8.592139249547223,8.62142857142857L8.163567820975796,9.05L7.949282106690083,9.05L7.734996392404369,9.264285714285716L7.30642496383294,9.264285714285716L7.092139249547226,9.478571428571428L5.80642496383294,9.478571428571428L5.3778535352615116,9.907142857142858L5.163567820975797,9.907142857142858z" stroke="none"/><path d="M27.05,9L26.95,9L26.95,7.69357503616706L27.164285714285715,7.479289321881345L27.164285714285715,7.265003607595631L27.378571428571426,7.050717893309916L27.378571428571426,5.592139249547226L27.19357503616706,5.407142857142857L26.80642496383294,5.407142857142857L26.592139249547223,5.621428571428571L25.092139249547223,5.621428571428571L24.90714285714286,5.80642496383294L24.90714285714286,6.020710678118655L24.44928210669008,6.478571428571428L23.80642496383294,6.478571428571428L23.592139249547223,6.692857142857142L22.520710678118654,6.692857142857142L22.30642496383294,6.907142857142857L21.663567820975796,6.907142857142857L21.44928210669008,7.121428571428571L21.23499639240437,7.121428571428571L20.37785353526151,7.978571428571428L19.73499639240437,7.978571428571428L19.092139249547227,8.62142857142857L18.663567820975796,8.62142857142857L18.44928210669008,8.835714285714285L18.23499639240437,8.835714285714285L18.03535533905933,9.035355339059327L17.96464466094067,8.964644660940673L18.19357503616706,8.735714285714284L18.407860750452773,8.735714285714284L18.62214646473849,8.521428571428569L19.05071789330992,8.521428571428569L19.69357503616706,7.878571428571428L20.336432179024204,7.878571428571428L21.19357503616706,7.021428571428571L21.407860750452773,7.021428571428571L21.62214646473849,6.807142857142857L22.26500360759563,6.807142857142857L22.479289321881346,6.5928571428571425L23.550717893309915,6.5928571428571425L23.76500360759563,6.378571428571428L24.407860750452773,6.378571428571428L24.807142857142857,5.979289321881345L24.807142857142857,5.765003607595631L25.050717893309915,5.521428571428571L26.550717893309915,5.521428571428571L26.76500360759563,5.307142857142857L27.23499639240437,5.307142857142857L27.478571428571428,5.550717893309916L27.478571428571428,7.092139249547226L27.264285714285716,7.30642496383294L27.264285714285716,7.520710678118655L27.05,7.734996392404369z" stroke="none"/><path d="M6.035355339059327,3.0353553390593273L5.964644660940673,2.9646446609406727L6.19357503616706,2.7357142857142858L6.622146464738488,2.7357142857142858L6.836432179024202,2.521428571428572L14.377853535261512,2.521428571428572L14.592139249547223,2.7357142857142858L14.806424963832939,2.7357142857142858L15.035355339059327,2.9646446609406727L14.964644660940673,3.0353553390593273L14.76500360759563,2.8357142857142854L14.550717893309915,2.8357142857142854L14.336432179024204,2.6214285714285714L6.8778535352615116,2.6214285714285714L6.663567820975797,2.8357142857142854L6.234996392404369,2.8357142857142854z" stroke="none"/><path d="M16.53535533905933,6.035355339059327L16.46464466094067,5.964644660940673L16.69357503616706,5.735714285714286L16.907860750452773,5.735714285714286L17.12214646473849,5.521428571428571L17.336432179024204,5.521428571428571L17.76500360759563,5.0928571428571425L18.19357503616706,5.0928571428571425L19.021428571428572,4.265003607595631L19.021428571428572,4.050717893309916L19.664285714285715,3.4078607504527736L19.664285714285715,3.1935750361670596L19.878571428571426,2.979289321881345L19.878571428571426,2.765003607595631L20.55071789330992,2.092857142857143L27.020710678118654,2.092857142857143L27.478571428571428,2.550717893309917L27.478571428571428,4.69357503616706L27.692857142857143,4.907860750452774L27.692857142857143,9.23499639240437L26.80642496383294,10.12142857142857L26.592139249547223,10.12142857142857L26.37785353526151,10.335714285714285L25.94928210669008,10.335714285714285L25.73499639240437,10.55L25.5,10.55L25.5,10.45L25.69357503616706,10.45L25.907860750452773,10.235714285714284L26.336432179024204,10.235714285714284L26.550717893309915,10.021428571428569L26.76500360759563,10.021428571428569L27.59285714285714,9.193575036167061L27.59285714285714,4.949282106690084L27.378571428571426,4.734996392404369L27.378571428571426,2.5921392495472264L26.979289321881346,2.1928571428571426L20.592139249547227,2.1928571428571426L19.978571428571428,2.8064249638329404L19.978571428571428,3.020710678118655L19.764285714285716,3.234996392404369L19.764285714285716,3.449282106690083L19.121428571428574,4.092139249547226L19.121428571428574,4.30642496383294L18.23499639240437,5.192857142857142L17.80642496383294,5.192857142857142L17.37785353526151,5.621428571428571L17.163567820975796,5.621428571428571L16.94928210669008,5.835714285714285L16.73499639240437,5.835714285714285z" stroke="none"/><path d="M18,4.45L18,4.55L17.592139249547227,4.55L17.163567820975796,4.978571428571429L15.020710678118654,4.978571428571429L14.806424963832939,5.192857142857142L11.76500360759563,5.192857142857142L11.521428571428569,4.949282106690084L11.521428571428569,4.734996392404369L10.907860750452773,4.121428571428571L8.592139249547223,4.121428571428571L8.377853535261512,4.335714285714285L7.734996392404369,4.335714285714285L7.535355339059327,4.535355339059327L7.464644660940673,4.464644660940673L7.69357503616706,4.235714285714286L8.336432179024204,4.235714285714286L8.550717893309915,4.021428571428571L10.949282106690081,4.021428571428571L11.62142857142857,4.69357503616706L11.62142857142857,4.907860750452774L11.806424963832939,5.0928571428571425L14.76500360759563,5.0928571428571425L14.979289321881346,4.878571428571429L17.12214646473849,4.878571428571429L17.55071789330992,4.45z" stroke="none"/><path d="M19.5,10.45L19.5,10.55L19.30642496383294,10.55L19.092139249547227,10.764285714285716L18.87785353526151,10.764285714285716L18.44928210669008,11.192857142857143L10.306424963832939,11.192857142857143L10.092139249547223,11.407142857142858L9.877853535261512,11.407142857142858L9.23499639240437,12.05L9,12.05L9,11.95L9.193575036167061,11.95L9.836432179024204,11.307142857142857L10.050717893309915,11.307142857142857L10.26500360759563,11.092857142857142L18.407860750452773,11.092857142857142L18.836432179024204,10.664285714285715L19.05071789330992,10.664285714285715L19.26500360759563,10.45z" stroke="none"/><path d="M4.535355339059327,5.964644660940673L4.464644660940673,6.035355339059327L3.8364321790242024,5.407142857142857L2.550717893309917,5.407142857142857L2.3071428571428574,5.163567820975797L2.3071428571428574,2.765003607595631L2.550717893309917,2.521428571428572L5.550717893309916,2.521428571428572L5.765003607595631,2.3071428571428574L15.23499639240437,2.3071428571428574L15.478571428571428,2.550717893309917L15.478571428571428,3.6635678209757976L15.264285714285716,3.877853535261512L15.264285714285716,4.30642496383294L15.035355339059327,4.535355339059327L14.964644660940673,4.464644660940673L15.164285714285715,4.265003607595631L15.164285714285715,3.8364321790242024L15.378571428571426,3.622146464738488L15.378571428571426,2.5921392495472264L15.193575036167061,2.407142857142857L5.80642496383294,2.407142857142857L5.592139249547226,2.6214285714285714L2.5921392495472264,2.6214285714285714L2.407142857142857,2.8064249638329404L2.407142857142857,5.122146464738488L2.5921392495472264,5.307142857142857L3.877853535261512,5.307142857142857z" stroke="none"/><path d="M25.5,5.95L25.5,6.05L25.30642496383294,6.05L24.44928210669008,6.907142857142857L22.73499639240437,6.907142857142857L22.520710678118654,7.121428571428571L22.092139249547227,7.121428571428571L21.020710678118654,8.192857142857143L19.94928210669008,8.192857142857143L19.30642496383294,8.835714285714285L19.092139249547227,8.835714285714285L18.44928210669008,9.478571428571428L16.050717893309915,9.478571428571428L15.836432179024204,9.264285714285716L15.193575036167061,9.264285714285716L14.964644660940673,9.035355339059327L15.035355339059327,8.964644660940673L15.23499639240437,9.164285714285715L15.877853535261512,9.164285714285715L16.092139249547223,9.378571428571426L18.407860750452773,9.378571428571426L19.05071789330992,8.735714285714284L19.26500360759563,8.735714285714284L19.907860750452773,8.092857142857142L20.979289321881346,8.092857142857142L22.05071789330992,7.021428571428571L22.479289321881346,7.021428571428571L22.69357503616706,6.807142857142857L24.407860750452773,6.807142857142857L25.26500360759563,5.95z" stroke="none"/><path d="M15,5.95L15,6.05L14.122146464738488,6.05L13.907860750452773,5.835714285714285L13.693575036167061,5.835714285714285L13.479289321881346,5.621428571428571L11.592139249547223,5.621428571428571L11.407142857142858,5.80642496383294L11.407142857142858,7.949282106690083L10.949282106690081,8.407142857142858L5.592139249547226,8.407142857142858L5.3778535352615116,8.62142857142857L5.163567820975797,8.62142857142857L4.734996392404369,9.05L4.5,9.05L4.5,8.95L4.69357503616706,8.95L5.122146464738488,8.521428571428569L5.336432179024202,8.521428571428569L5.550717893309916,8.307142857142857L10.907860750452773,8.307142857142857L11.307142857142857,7.907860750452773L11.307142857142857,5.765003607595631L11.550717893309915,5.521428571428571L13.520710678118654,5.521428571428571L13.73499639240437,5.735714285714286L13.949282106690081,5.735714285714286L14.163567820975796,5.95z" stroke="none"/><path d="M6,7.45L6,7.55L4.520710678118655,7.55L4.30642496383294,7.764285714285714L3.6635678209757976,7.764285714285714L3.449282106690083,7.978571428571428L2.550717893309917,7.978571428571428L2.3071428571428574,7.734996392404369L2.3071428571428574,6.020710678118655L2.092857142857143,5.80642496383294L2.092857142857143,2.550717893309917L2.3364321790242024,2.3071428571428574L3.622146464738488,2.3071428571428574L3.8364321790242024,2.092857142857143L15.449282106690081,2.092857142857143L16.12142857142857,2.765003607595631L16.12142857142857,2.979289321881345L16.335714285714285,3.1935750361670596L16.335714285714285,4.050717893309916L16.55,4.265003607595631L16.55,4.5L16.45,4.5L16.45,4.30642496383294L16.235714285714284,4.092139249547226L16.235714285714284,3.234996392404369L16.02142857142857,3.020710678118655L16.02142857142857,2.8064249638329404L15.407860750452773,2.1928571428571426L3.877853535261512,2.1928571428571426L3.6635678209757976,2.407142857142857L2.377853535261512,2.407142857142857L2.1928571428571426,2.5921392495472264L2.1928571428571426,5.765003607595631L2.407142857142857,5.979289321881345L2.407142857142857,7.69357503616706L2.5921392495472264,7.878571428571428L3.4078607504527736,7.878571428571428L3.622146464738488,7.664285714285715L4.265003607595631,7.664285714285715L4.479289321881345,7.45z" stroke="none"/><path d="M20.95,3L21.05,3L21.05,3.234996392404369L19.978571428571428,4.30642496383294L19.978571428571428,4.949282106690084L19.30642496383294,5.621428571428571L19.092139249547227,5.621428571428571L18.663567820975796,6.05L18.44928210669008,6.05L18.23499639240437,6.264285714285714L17.163567820975796,6.264285714285714L16.94928210669008,6.478571428571428L16.050717893309915,6.478571428571428L15.807142857142857,6.234996392404369L15.807142857142857,6.020710678118655L15.407860750452773,5.621428571428571L13.907860750452773,5.621428571428571L13.693575036167061,5.407142857142857L10.092139249547223,5.407142857142857L9.877853535261512,5.621428571428571L9.663567820975796,5.621428571428571L9.449282106690081,5.835714285714285L9.23499639240437,5.835714285714285L9.035355339059327,6.035355339059327L8.964644660940673,5.964644660940673L9.193575036167061,5.735714285714286L9.407860750452773,5.735714285714286L9.622146464738488,5.521428571428571L9.836432179024204,5.521428571428571L10.050717893309915,5.307142857142857L13.73499639240437,5.307142857142857L13.949282106690081,5.521428571428571L15.449282106690081,5.521428571428571L15.907142857142858,5.979289321881345L15.907142857142858,6.19357503616706L16.092139249547223,6.378571428571428L16.907860750452773,6.378571428571428L17.12214646473849,6.164285714285715L18.19357503616706,6.164285714285715L18.407860750452773,5.95L18.62214646473849,5.95L19.05071789330992,5.521428571428571L19.26500360759563,5.521428571428571L19.878571428571426,4.907860750452774L19.878571428571426,4.265003607595631L20.95,3.1935750361670596z" stroke="none"/></svg>