<svg version="1.1" width="30" height="15" xmlns="http://www.w3.org/2000/svg"><path d="M6.807142857142857,5.979289321881345L7.235714285714286,5.550717893309916L7.235714285714286,5.336432179024202L7.45,5.122146464738488L7.45,4.5L7.55,4.5L7.55,5.163567820975797L7.335714285714285,5.3778535352615116L7.335714285714285,5.592139249547226L6.907142857142857,6.020710678118655L6.907142857142857,6.3078607504527735L7.050717893309916,6.164285714285715L7.265003607595631,6.164285714285715L7.464644660940673,5.964644660940673L7.535355339059327,6.035355339059327L7.30642496383294,6.264285714285714L7.092139249547226,6.264285714285714L6.907142857142857,6.449282106690083L6.907142857142857,6.663567820975797L6.692857142857142,6.8778535352615116L6.692857142857142,7.520710678118655L6.478571428571428,7.734996392404369L6.478571428571428,8.377853535261512L6.264285714285714,8.592139249547223L6.264285714285714,8.806424963832939L6.035355339059327,9.035355339059327L5.964644660940673,8.964644660940673L6.164285714285715,8.76500360759563L6.164285714285715,8.550717893309915L6.378571428571428,8.336432179024204L6.378571428571428,7.69357503616706L6.5928571428571425,7.479289321881345L6.5928571428571425,6.836432179024202L6.807142857142857,6.622146464738488z" stroke="none"/><path d="M21.807142857142857,4.878571428571429L21.807142857142857,4.265003607595631L22.05071789330992,4.021428571428571L24.663567820975796,4.021428571428571L24.87785353526151,4.235714285714286L25.092139249547223,4.235714285714286L25.30642496383294,4.45L27,4.45L27,4.55L25.26500360759563,4.55L25.050717893309915,4.335714285714285L24.836432179024204,4.335714285714285L24.62214646473849,4.121428571428571L22.092139249547227,4.121428571428571L21.90714285714286,4.30642496383294L21.90714285714286,4.907860750452774L22.092139249547227,5.0928571428571425L22.520710678118654,5.0928571428571425L22.94928210669008,5.521428571428571L23.163567820975796,5.521428571428571L23.592139249547223,5.95L24,5.95L24,6.05L23.550717893309915,6.05L23.12214646473849,5.621428571428571L22.907860750452773,5.621428571428571L22.479289321881346,5.192857142857142L22.05071789330992,5.192857142857142L21.836432179024204,4.978571428571429L16.69357503616706,4.978571428571429L16.26500360759563,4.55L15,4.55L15,4.45L16.30642496383294,4.45L16.73499639240437,4.878571428571429z" stroke="none"/><path d="M24.663567820975796,6.378571428571428L25.907860750452773,6.378571428571428L26.336432179024204,5.95L27,5.95L27,6.05L26.37785353526151,6.05L25.94928210669008,6.478571428571428L24.692857142857143,6.478571428571428L24.692857142857143,6.8778535352615116L24.264285714285716,7.30642496383294L24.264285714285716,7.520710678118655L24.05,7.734996392404369L24.05,9L23.95,9L23.95,7.69357503616706L24.164285714285715,7.479289321881345L24.164285714285715,7.265003607595631L24.59285714285714,6.836432179024202L24.59285714285714,6.449282106690083L24.378571428571426,6.234996392404369L24.378571428571426,5.592139249547226L23.979289321881346,5.192857142857142L23.550717893309915,5.192857142857142L22.907860750452773,4.55L22.5,4.55L22.5,4.45L22.94928210669008,4.45L23.592139249547223,5.0928571428571425L24.020710678118654,5.0928571428571425L24.478571428571428,5.550717893309916L24.478571428571428,6.19357503616706z" stroke="none"/><path d="M4.664285714285715,4.45L4.664285714285715,3.6635678209757976L4.45,3.449282106690083L4.45,3L4.55,3L4.55,3.4078607504527736L4.764285714285714,3.622146464738488L4.764285714285714,4.45L6,4.45L6,4.55L4.764285714285714,4.55L4.764285714285714,4.69357503616706L5.192857142857142,5.122146464738488L5.192857142857142,5.336432179024202L5.407142857142857,5.550717893309916L5.407142857142857,5.979289321881345L5.621428571428571,6.19357503616706L5.621428571428571,6.407860750452773L6.05,6.836432179024202L6.05,7.5L5.95,7.5L5.95,6.8778535352615116L5.521428571428571,6.449282106690083L5.521428571428571,6.234996392404369L5.307142857142857,6.020710678118655L5.307142857142857,5.592139249547226L5.0928571428571425,5.3778535352615116L5.0928571428571425,5.163567820975797L4.664285714285715,4.734996392404369L4.664285714285715,4.55L4.479289321881345,4.55L2.9646446609406727,3.0353553390593273L3.0353553390593273,2.9646446609406727L4.520710678118655,4.45z" stroke="none"/><path d="M17.09285714285714,9.164285714285715L17.09285714285714,8.979289321881346L17.336432179024204,8.735714285714284L19.73499639240437,8.735714285714284L19.94928210669008,8.95L21,8.95L21,9.05L19.907860750452773,9.05L19.69357503616706,8.835714285714285L17.37785353526151,8.835714285714285L17.192857142857143,9.020710678118654L17.192857142857143,9.164285714285715L19.05071789330992,9.164285714285715L19.26500360759563,8.95L19.5,8.95L19.5,9.05L19.30642496383294,9.05L19.092139249547227,9.264285714285716L17.163567820975796,9.264285714285716L16.94928210669008,9.478571428571428L16.73499639240437,9.478571428571428L15.907142857142858,10.306424963832939L15.907142857142858,10.520710678118654L15.692857142857143,10.73499639240437L15.692857142857143,11.163567820975796L15.264285714285716,11.592139249547223L15.264285714285716,11.806424963832939L15.035355339059327,12.035355339059327L14.964644660940673,11.964644660940673L15.164285714285715,11.76500360759563L15.164285714285715,11.550717893309915L15.592857142857142,11.122146464738488L15.592857142857142,10.693575036167061L15.807142857142857,10.479289321881346L15.807142857142857,10.26500360759563L16.69357503616706,9.378571428571426L16.907860750452773,9.378571428571426L17.022146464738487,9.264285714285716L15.836432179024204,9.264285714285716L15.407860750452773,8.835714285714285L14.979289321881346,8.835714285714285L13.907860750452773,7.764285714285714L13.693575036167061,7.764285714285714L13.464644660940673,7.535355339059327L13.535355339059327,7.464644660940673L13.73499639240437,7.664285714285715L13.949282106690081,7.664285714285715L15.020710678118654,8.735714285714284L15.449282106690081,8.735714285714284L15.877853535261512,9.164285714285715z" stroke="none"/><path d="M16.02142857142857,8.450717893309914L16.02142857142857,8.163567820975796L14.76500360759563,6.907142857142857L12.877853535261512,6.907142857142857L12.692857142857143,7.092139249547226L12.692857142857143,7.30642496383294L12.05,7.949282106690083L12.05,8.592139249547223L11.835714285714285,8.806424963832939L11.835714285714285,9.020710678118654L10.55,10.306424963832939L10.55,10.5L10.45,10.5L10.45,10.26500360759563L11.735714285714284,8.979289321881346L11.735714285714284,8.76500360759563L11.95,8.550717893309915L11.95,7.907860750452773L12.592857142857142,7.265003607595631L12.592857142857142,7.050717893309916L12.836432179024204,6.807142857142857L14.806424963832939,6.807142857142857L16.12142857142857,8.122146464738488L16.12142857142857,8.450717893309914L17.55071789330992,7.021428571428571L17.76500360759563,7.021428571428571L17.979289321881346,6.807142857142857L18.19357503616706,6.807142857142857L18.836432179024204,6.164285714285715L19.05071789330992,6.164285714285715L19.26500360759563,5.95L19.5,5.95L19.5,6.05L19.30642496383294,6.05L19.092139249547227,6.264285714285714L18.87785353526151,6.264285714285714L18.23499639240437,6.907142857142857L18.020710678118654,6.907142857142857L17.80642496383294,7.121428571428571L17.592139249547227,7.121428571428571L16.192139249547225,8.521428571428569L21.87785353526151,8.521428571428569L22.092139249547227,8.735714285714284L22.30642496383294,8.735714285714284L22.53535533905933,8.964644660940673L22.46464466094067,9.035355339059327L22.26500360759563,8.835714285714285L22.05071789330992,8.835714285714285L21.836432179024204,8.62142857142857L16.050717893309915,8.62142857142857L15.193575036167061,7.764285714285714L14.979289321881346,7.764285714285714L14.550717893309915,7.335714285714285L14.336432179024204,7.335714285714285L14.122146464738488,7.121428571428571L13.092139249547223,7.121428571428571L12.907142857142858,7.30642496383294L12.907142857142858,7.520710678118655L12.264285714285716,8.163567820975796L12.264285714285716,8.806424963832939L12.035355339059327,9.035355339059327L11.964644660940673,8.964644660940673L12.164285714285715,8.76500360759563L12.164285714285715,8.122146464738488L12.807142857142857,7.479289321881345L12.807142857142857,7.265003607595631L13.050717893309915,7.021428571428571L14.163567820975796,7.021428571428571L14.377853535261512,7.235714285714286L14.592139249547223,7.235714285714286L15.020710678118654,7.664285714285715L15.23499639240437,7.664285714285715z" stroke="none"/><path d="M7.55,12L7.45,12L7.45,10.5L7.55,10.5z" stroke="none"/><path d="M25.5,9.05L25.5,8.95L27,8.95L27,9.05z" stroke="none"/><path d="M22.46464466094067,10.464644660940673L22.53535533905933,10.535355339059327L21.03535533905933,12.035355339059327L20.96464466094067,11.964644660940673z" stroke="none"/><path d="M20.96464466094067,6.035355339059327L21.03535533905933,5.964644660940673L22.53535533905933,7.464644660940673L22.46464466094067,7.535355339059327z" stroke="none"/><path d="M19.5,4.45L19.5,4.55L16.69357503616706,4.55L16.479289321881346,4.335714285714285L15.836432179024204,4.335714285714285L15.622146464738488,4.121428571428571L14.592139249547223,4.121428571428571L14.407142857142858,4.30642496383294L14.407142857142858,4.69357503616706L14.592139249547223,4.878571428571429L15.877853535261512,4.878571428571429L16.092139249547223,5.0928571428571425L18.87785353526151,5.0928571428571425L19.092139249547227,5.307142857142857L19.73499639240437,5.307142857142857L19.978571428571428,5.550717893309916L19.978571428571428,6.663567820975797L19.764285714285716,6.8778535352615116L19.764285714285716,7.30642496383294L19.53535533905933,7.535355339059327L19.46464466094067,7.464644660940673L19.664285714285715,7.265003607595631L19.664285714285715,6.836432179024202L19.878571428571426,6.622146464738488L19.878571428571426,5.592139249547226L19.69357503616706,5.407142857142857L19.05071789330992,5.407142857142857L18.836432179024204,5.192857142857142L16.050717893309915,5.192857142857142L15.836432179024204,4.978571428571429L14.550717893309915,4.978571428571429L14.307142857142857,4.734996392404369L14.307142857142857,4.265003607595631L14.550717893309915,4.021428571428571L15.663567820975796,4.021428571428571L15.877853535261512,4.235714285714286L16.520710678118654,4.235714285714286L16.73499639240437,4.45z" stroke="none"/><path d="M12,10.45L12,10.55L11.377853535261512,10.55L10.949282106690081,10.978571428571428L9.407860750452773,10.978571428571428L8.964644660940673,10.535355339059327L9.035355339059327,10.464644660940673L9.449282106690081,10.878571428571426L10.907860750452773,10.878571428571426L11.336432179024204,10.45z" stroke="none"/><path d="M24,3.05L24,2.95L24.87785353526151,2.95L25.092139249547223,3.1642857142857146L25.30642496383294,3.1642857142857146L25.520710678118654,3.3785714285714286L26.592139249547223,3.3785714285714286L26.80642496383294,3.592857142857143L27.020710678118654,3.592857142857143L27.478571428571428,4.050717893309916L27.478571428571428,4.949282106690084L27.020710678118654,5.407142857142857L26.80642496383294,5.407142857142857L26.37785353526151,5.835714285714285L25.94928210669008,5.835714285714285L25.73499639240437,6.05L25.5,6.05L25.5,5.95L25.69357503616706,5.95L25.907860750452773,5.735714285714286L26.336432179024204,5.735714285714286L26.76500360759563,5.307142857142857L26.979289321881346,5.307142857142857L27.378571428571426,4.907860750452774L27.378571428571426,4.092139249547226L26.979289321881346,3.6928571428571426L26.76500360759563,3.6928571428571426L26.550717893309915,3.478571428571428L25.479289321881346,3.478571428571428L25.26500360759563,3.2642857142857142L25.050717893309915,3.2642857142857142L24.836432179024204,3.05z" stroke="none"/><path d="M16.5,10.55L16.5,10.45L16.907860750452773,10.45L17.336432179024204,10.021428571428569L21.836432179024204,10.021428571428569L22.05071789330992,9.807142857142857L22.26500360759563,9.807142857142857L22.479289321881346,9.592857142857142L22.69357503616706,9.592857142857142L22.878571428571426,9.407860750452773L22.878571428571426,8.592139249547223L22.69357503616706,8.407142857142858L19.26500360759563,8.407142857142858L18.62214646473849,7.764285714285714L18.407860750452773,7.764285714285714L18.19357503616706,7.55L18,7.55L18,7.45L18.23499639240437,7.45L18.44928210669008,7.664285714285715L18.663567820975796,7.664285714285715L19.30642496383294,8.307142857142857L22.73499639240437,8.307142857142857L22.978571428571428,8.550717893309915L22.978571428571428,9.449282106690081L22.73499639240437,9.692857142857143L22.520710678118654,9.692857142857143L22.30642496383294,9.907142857142858L22.092139249547227,9.907142857142858L21.87785353526151,10.12142857142857L17.37785353526151,10.12142857142857L16.94928210669008,10.55z" stroke="none"/><path d="M11.964644660940673,5.964644660940673L12.035355339059327,6.035355339059327L11.163567820975796,6.907142857142857L10.73499639240437,6.907142857142857L10.520710678118654,7.121428571428571L10.306424963832939,7.121428571428571L9.877853535261512,7.55L9,7.55L9,7.45L9.836432179024204,7.45L10.26500360759563,7.021428571428571L10.479289321881346,7.021428571428571L10.693575036167061,6.807142857142857L11.122146464738488,6.807142857142857z" stroke="none"/><path d="M2.95,6L3.05,6L3.05,6.19357503616706L3.2642857142857142,6.407860750452773L3.2642857142857142,6.622146464738488L3.478571428571428,6.836432179024202L3.478571428571428,7.050717893309916L3.6928571428571426,7.265003607595631L3.6928571428571426,7.69357503616706L4.335714285714285,8.336432179024204L4.335714285714285,8.76500360759563L4.535355339059327,8.964644660940673L4.464644660940673,9.035355339059327L4.235714285714286,8.806424963832939L4.235714285714286,8.377853535261512L3.592857142857143,7.734996392404369L3.592857142857143,7.30642496383294L3.3785714285714286,7.092139249547226L3.3785714285714286,6.8778535352615116L3.1642857142857146,6.663567820975797L3.1642857142857146,6.449282106690083L2.95,6.234996392404369z" stroke="none"/><path d="M25.46464466094067,7.464644660940673L25.53535533905933,7.535355339059327L25.335714285714285,7.734996392404369L25.335714285714285,8.377853535261512L25.12142857142857,8.592139249547223L25.12142857142857,11.336432179024204L25.335714285714285,11.550717893309915L25.335714285714285,11.76500360759563L25.53535533905933,11.964644660940673L25.46464466094067,12.035355339059327L25.235714285714284,11.806424963832939L25.235714285714284,11.592139249547223L25.02142857142857,11.377853535261512L25.02142857142857,8.550717893309915L25.235714285714284,8.336432179024204L25.235714285714284,7.69357503616706z" stroke="none"/><path d="M7.5,3.05L7.5,2.95L12,2.95L12,3.05z" stroke="none"/><path d="M2.9646446609406727,4.464644660940673L3.0353553390593273,4.535355339059327L2.8357142857142854,4.734996392404369L2.8357142857142854,5.3778535352615116L2.6214285714285714,5.592139249547226L2.6214285714285714,8.122146464738488L2.8357142857142854,8.336432179024204L2.8357142857142854,8.550717893309915L3.05,8.76500360759563L3.05,9L2.95,9L2.95,8.806424963832939L2.7357142857142858,8.592139249547223L2.7357142857142858,8.377853535261512L2.521428571428572,8.163567820975796L2.521428571428572,5.550717893309916L2.7357142857142858,5.336432179024202L2.7357142857142858,4.69357503616706z" stroke="none"/><path d="M7.535355339059327,7.535355339059327L7.464644660940673,7.464644660940673L7.664285714285715,7.265003607595631L7.664285714285715,6.836432179024202L7.878571428571428,6.622146464738488L7.878571428571428,4.092139249547226L7.69357503616706,3.907142857142857L7.265003607595631,3.907142857142857L6.622146464738488,3.2642857142857142L6.407860750452773,3.2642857142857142L6.19357503616706,3.05L6,3.05L6,2.95L6.234996392404369,2.95L6.449282106690083,3.1642857142857146L6.663567820975797,3.1642857142857146L7.30642496383294,3.8071428571428574L7.734996392404369,3.8071428571428574L7.978571428571428,4.050717893309916L7.978571428571428,6.663567820975797L7.764285714285714,6.8778535352615116L7.764285714285714,7.30642496383294z" stroke="none"/><path d="M10.535355339059327,9.035355339059327L10.464644660940673,8.964644660940673L10.664285714285715,8.76500360759563L10.664285714285715,8.122146464738488L12.378571428571426,6.407860750452773L12.378571428571426,2.5921392495472264L12.193575036167061,2.407142857142857L5.80642496383294,2.407142857142857L5.621428571428571,2.5921392495472264L5.621428571428571,3.4078607504527736L5.80642496383294,3.592857142857143L6.020710678118655,3.592857142857143L6.478571428571428,4.050717893309916L6.478571428571428,5.3778535352615116L6.264285714285714,5.592139249547226L6.264285714285714,5.80642496383294L6.035355339059327,6.035355339059327L5.964644660940673,5.964644660940673L6.164285714285715,5.765003607595631L6.164285714285715,5.550717893309916L6.378571428571428,5.336432179024202L6.378571428571428,4.092139249547226L5.979289321881345,3.6928571428571426L5.765003607595631,3.6928571428571426L5.521428571428571,3.449282106690083L5.521428571428571,2.550717893309917L5.765003607595631,2.3071428571428574L12.23499639240437,2.3071428571428574L12.478571428571428,2.550717893309917L12.478571428571428,6.449282106690083L10.764285714285716,8.163567820975796L10.764285714285716,8.806424963832939z" stroke="none"/><path d="M18.03535533905933,5.964644660940673L17.96464466094067,6.035355339059327L17.55071789330992,5.621428571428571L14.76500360759563,5.621428571428571L14.092857142857142,4.949282106690084L14.092857142857142,4.050717893309916L14.336432179024204,3.8071428571428574L18.62214646473849,3.8071428571428574L19.05071789330992,3.3785714285714286L19.26500360759563,3.3785714285714286L19.479289321881346,3.1642857142857146L22.05071789330992,3.1642857142857146L22.26500360759563,2.95L22.5,2.95L22.5,3.05L22.30642496383294,3.05L22.092139249547227,3.2642857142857142L19.520710678118654,3.2642857142857142L19.30642496383294,3.478571428571428L19.092139249547227,3.478571428571428L18.663567820975796,3.907142857142857L14.377853535261512,3.907142857142857L14.192857142857143,4.092139249547226L14.192857142857143,4.907860750452774L14.806424963832939,5.521428571428571L17.592139249547227,5.521428571428571z" stroke="none"/><path d="M25.46464466094067,10.535355339059327L25.53535533905933,10.464644660940673L25.764285714285716,10.693575036167061L25.764285714285716,11.122146464738488L25.978571428571428,11.336432179024204L25.978571428571428,12.449282106690081L25.73499639240437,12.692857142857143L20.979289321881346,12.692857142857143L20.76500360759563,12.478571428571428L20.55071789330992,12.478571428571428L20.307142857142857,12.23499639240437L20.307142857142857,11.806424963832939L19.664285714285715,11.163567820975796L19.664285714285715,10.949282106690081L19.45,10.73499639240437L19.45,10.5L19.55,10.5L19.55,10.693575036167061L19.764285714285716,10.907860750452773L19.764285714285716,11.122146464738488L20.40714285714286,11.76500360759563L20.40714285714286,12.193575036167061L20.592139249547227,12.378571428571426L20.80642496383294,12.378571428571426L21.020710678118654,12.592857142857142L25.69357503616706,12.592857142857142L25.878571428571426,12.407860750452773L25.878571428571426,11.377853535261512L25.664285714285715,11.163567820975796L25.664285714285715,10.73499639240437z" stroke="none"/><path d="M10.5,11.95L10.5,12.05L9.020710678118654,12.05L8.592139249547223,12.478571428571428L5.550717893309916,12.478571428571428L5.336432179024202,12.264285714285716L5.122146464738488,12.264285714285716L4.69357503616706,11.835714285714285L4.479289321881345,11.835714285714285L3.4078607504527736,10.764285714285716L3.1935750361670596,10.764285714285716L2.9646446609406727,10.535355339059327L3.0353553390593273,10.464644660940673L3.234996392404369,10.664285714285715L3.449282106690083,10.664285714285715L4.520710678118655,11.735714285714284L4.734996392404369,11.735714285714284L5.163567820975797,12.164285714285715L5.3778535352615116,12.164285714285715L5.592139249547226,12.378571428571426L8.550717893309915,12.378571428571426L8.979289321881346,11.95z" stroke="none"/><path d="M18,12.05L18,11.95L19.092139249547227,11.95L19.30642496383294,12.164285714285715L19.520710678118654,12.164285714285715L19.73499639240437,12.378571428571426L19.94928210669008,12.378571428571426L20.163567820975796,12.592857142857142L20.592139249547227,12.592857142857142L20.80642496383294,12.807142857142857L25.907860750452773,12.807142857142857L26.09285714285714,12.622146464738488L26.09285714285714,12.407860750452773L26.52142857142857,11.979289321881346L26.52142857142857,11.550717893309915L26.735714285714284,11.336432179024204L26.735714285714284,10.907860750452773L26.95,10.693575036167061L26.95,10.5L27.05,10.5L27.05,10.73499639240437L26.835714285714285,10.949282106690081L26.835714285714285,11.377853535261512L26.62142857142857,11.592139249547223L26.62142857142857,12.020710678118654L26.192857142857143,12.449282106690081L26.192857142857143,12.663567820975796L25.94928210669008,12.907142857142858L20.76500360759563,12.907142857142858L20.55071789330992,12.692857142857143L20.12214646473849,12.692857142857143L19.907860750452773,12.478571428571428L19.69357503616706,12.478571428571428L19.479289321881346,12.264285714285716L19.26500360759563,12.264285714285716L19.05071789330992,12.05z" stroke="none"/><path d="M13.535355339059327,2.9646446609406727L13.464644660940673,3.0353553390593273L13.26500360759563,2.8357142857142854L13.050717893309915,2.8357142857142854L12.407860750452773,2.1928571428571426L3.020710678118655,2.1928571428571426L2.6214285714285714,2.5921392495472264L2.6214285714285714,3.4078607504527736L2.8064249638329404,3.592857142857143L3.020710678118655,3.592857142857143L4.335714285714285,4.907860750452774L4.335714285714285,5.550717893309916L4.55,5.765003607595631L4.55,6L4.45,6L4.45,5.80642496383294L4.235714285714286,5.592139249547226L4.235714285714286,4.949282106690084L2.979289321881345,3.6928571428571426L2.765003607595631,3.6928571428571426L2.521428571428572,3.449282106690083L2.521428571428572,2.550717893309917L2.979289321881345,2.092857142857143L12.449282106690081,2.092857142857143L13.092139249547223,2.7357142857142858L13.306424963832939,2.7357142857142858z" stroke="none"/><path d="M2.9646446609406727,7.535355339059327L3.0353553390593273,7.464644660940673L3.478571428571428,7.907860750452773L3.478571428571428,8.336432179024204L3.6928571428571426,8.550717893309915L3.6928571428571426,8.979289321881346L4.092139249547226,9.378571428571426L6.8778535352615116,9.378571428571426L7.092139249547226,9.592857142857142L7.30642496383294,9.592857142857142L7.734996392404369,10.021428571428569L7.949282106690083,10.021428571428569L8.192857142857143,10.26500360759563L8.192857142857143,10.479289321881346L8.592139249547223,10.878571428571426L9.020710678118654,10.878571428571426L9.23499639240437,11.092857142857142L12.622146464738488,11.092857142857142L13.26500360759563,10.45L13.5,10.45L13.5,10.55L13.306424963832939,10.55L12.663567820975796,11.192857142857143L9.193575036167061,11.192857142857143L8.979289321881346,10.978571428571428L8.550717893309915,10.978571428571428L8.092857142857142,10.520710678118654L8.092857142857142,10.306424963832939L7.907860750452773,10.12142857142857L7.69357503616706,10.12142857142857L7.265003607595631,9.692857142857143L7.050717893309916,9.692857142857143L6.836432179024202,9.478571428571428L4.050717893309916,9.478571428571428L3.592857142857143,9.020710678118654L3.592857142857143,8.592139249547223L3.3785714285714286,8.377853535261512L3.3785714285714286,7.949282106690083z" stroke="none"/><path d="M16.5,5.95L16.5,6.05L14.979289321881346,6.05L14.76500360759563,5.835714285714285L14.550717893309915,5.835714285714285L13.878571428571426,5.163567820975797L13.878571428571426,3.8364321790242024L14.122146464738488,3.592857142857143L18.19357503616706,3.592857142857143L18.407860750452773,3.3785714285714286L18.62214646473849,3.3785714285714286L18.836432179024204,3.1642857142857146L19.05071789330992,3.1642857142857146L19.26500360759563,2.95L21.62214646473849,2.95L22.05071789330992,2.521428571428572L26.37785353526151,2.521428571428572L26.592139249547223,2.7357142857142858L26.80642496383294,2.7357142857142858L27.03535533905933,2.9646446609406727L26.96464466094067,3.0353553390593273L26.76500360759563,2.8357142857142854L26.550717893309915,2.8357142857142854L26.336432179024204,2.6214285714285714L22.092139249547227,2.6214285714285714L21.663567820975796,3.05L19.30642496383294,3.05L19.092139249547227,3.2642857142857142L18.87785353526151,3.2642857142857142L18.663567820975796,3.478571428571428L18.44928210669008,3.478571428571428L18.23499639240437,3.6928571428571426L14.163567820975796,3.6928571428571426L13.978571428571428,3.877853535261512L13.978571428571428,5.122146464738488L14.592139249547223,5.735714285714286L14.806424963832939,5.735714285714286L15.020710678118654,5.95z" stroke="none"/><path d="M6.035355339059327,11.964644660940673L5.964644660940673,12.035355339059327L5.765003607595631,11.835714285714285L5.550717893309916,11.835714285714285L4.265003607595631,10.55L4.050717893309916,10.55L3.8364321790242024,10.335714285714285L3.622146464738488,10.335714285714285L3.4078607504527736,10.12142857142857L2.5921392495472264,10.12142857142857L2.407142857142857,10.306424963832939L2.407142857142857,10.693575036167061L3.449282106690083,11.735714285714284L3.6635678209757976,11.735714285714284L3.877853535261512,11.95L4.092139249547226,11.95L4.30642496383294,12.164285714285715L4.520710678118655,12.164285714285715L4.734996392404369,12.378571428571426L5.163567820975797,12.378571428571426L5.3778535352615116,12.592857142857142L15.193575036167061,12.592857142857142L16.907860750452773,10.878571428571426L17.336432179024204,10.878571428571426L17.76500360759563,10.45L18,10.45L18,10.55L17.80642496383294,10.55L17.37785353526151,10.978571428571428L16.94928210669008,10.978571428571428L15.23499639240437,12.692857142857143L5.336432179024202,12.692857142857143L5.122146464738488,12.478571428571428L4.69357503616706,12.478571428571428L4.479289321881345,12.264285714285716L4.265003607595631,12.264285714285716L4.050717893309916,12.05L3.8364321790242024,12.05L3.622146464738488,11.835714285714285L3.4078607504527736,11.835714285714285L2.3071428571428574,10.73499639240437L2.3071428571428574,10.26500360759563L2.550717893309917,10.021428571428569L3.449282106690083,10.021428571428569L3.6635678209757976,10.235714285714284L3.877853535261512,10.235714285714284L4.092139249547226,10.45L4.30642496383294,10.45L5.592139249547226,11.735714285714284L5.80642496383294,11.735714285714284z" stroke="none"/><path d="M20.96464466094067,7.535355339059327L21.03535533905933,7.464644660940673L21.23499639240437,7.664285714285715L21.663567820975796,7.664285714285715L21.87785353526151,7.878571428571428L22.73499639240437,7.878571428571428L23.192857142857143,8.336432179024204L23.192857142857143,8.550717893309915L23.40714285714286,8.76500360759563L23.40714285714286,9.193575036167061L23.592139249547223,9.378571428571426L24.407860750452773,9.378571428571426L24.59285714285714,9.193575036167061L24.59285714285714,7.69357503616706L24.807142857142857,7.479289321881345L24.807142857142857,7.265003607595631L25.050717893309915,7.021428571428571L26.550717893309915,7.021428571428571L26.76500360759563,6.807142857142857L26.979289321881346,6.807142857142857L27.378571428571426,6.407860750452773L27.378571428571426,5.765003607595631L27.59285714285714,5.550717893309916L27.59285714285714,2.8064249638329404L27.407860750452773,2.6214285714285714L26.979289321881346,2.6214285714285714L26.76500360759563,2.407142857142857L15.877853535261512,2.407142857142857L15.23499639240437,3.05L14.806424963832939,3.05L14.592139249547223,3.2642857142857142L14.377853535261512,3.2642857142857142L14.163567820975796,3.478571428571428L13.949282106690081,3.478571428571428L13.764285714285716,3.6635678209757976L13.764285714285716,4.949282106690084L13.55,5.163567820975797L13.55,5.3778535352615116L13.12142857142857,5.80642496383294L13.12142857142857,6.020710678118655L12.692857142857143,6.449282106690083L12.692857142857143,6.663567820975797L11.835714285714285,7.520710678118655L11.835714285714285,8.377853535261512L11.62142857142857,8.592139249547223L11.62142857142857,8.806424963832939L10.949282106690081,9.478571428571428L10.050717893309915,9.478571428571428L8.521428571428569,7.949282106690083L8.521428571428569,5.765003607595631L8.735714285714284,5.550717893309916L8.735714285714284,4.69357503616706L8.964644660940673,4.464644660940673L9.035355339059327,4.535355339059327L8.835714285714285,4.734996392404369L8.835714285714285,5.592139249547226L8.62142857142857,5.80642496383294L8.62142857142857,7.907860750452773L10.092139249547223,9.378571428571426L10.907860750452773,9.378571428571426L11.521428571428569,8.76500360759563L11.521428571428569,8.550717893309915L11.735714285714284,8.336432179024204L11.735714285714284,7.479289321881345L12.592857142857142,6.622146464738488L12.592857142857142,6.407860750452773L13.021428571428569,5.979289321881345L13.021428571428569,5.765003607595631L13.45,5.336432179024202L13.45,5.122146464738488L13.664285714285715,4.907860750452774L13.664285714285715,3.622146464738488L13.907860750452773,3.3785714285714286L14.122146464738488,3.3785714285714286L14.336432179024204,3.1642857142857146L14.550717893309915,3.1642857142857146L14.76500360759563,2.95L15.193575036167061,2.95L15.836432179024204,2.3071428571428574L26.80642496383294,2.3071428571428574L27.020710678118654,2.521428571428572L27.44928210669008,2.521428571428572L27.692857142857143,2.765003607595631L27.692857142857143,5.592139249547226L27.478571428571428,5.80642496383294L27.478571428571428,6.449282106690083L27.020710678118654,6.907142857142857L26.80642496383294,6.907142857142857L26.592139249547223,7.121428571428571L25.092139249547223,7.121428571428571L24.90714285714286,7.30642496383294L24.90714285714286,7.520710678118655L24.692857142857143,7.734996392404369L24.692857142857143,9.23499639240437L24.44928210669008,9.478571428571428L23.550717893309915,9.478571428571428L23.307142857142857,9.23499639240437L23.307142857142857,8.806424963832939L23.09285714285714,8.592139249547223L23.09285714285714,8.377853535261512L22.69357503616706,7.978571428571428L21.836432179024204,7.978571428571428L21.62214646473849,7.764285714285714L21.19357503616706,7.764285714285714z" stroke="none"/></svg>