<svg version="1.1" width="30" height="15" xmlns="http://www.w3.org/2000/svg"><path d="M9.407860750452773,5.95L11.735714285714284,3.622146464738488L11.735714285714284,3.1935750361670596L11.964644660940673,2.9646446609406727L12.035355339059327,3.0353553390593273L11.835714285714285,3.234996392404369L11.835714285714285,3.6635678209757976L9.478571428571428,6.020710678118655L9.478571428571428,7.092139249547226L9.035355339059327,7.535355339059327L8.964644660940673,7.464644660940673L9.378571428571426,7.050717893309916L9.378571428571426,6.05L9.23499639240437,6.05L7.949282106690083,7.335714285714285L7.734996392404369,7.335714285714285L7.535355339059327,7.535355339059327L7.464644660940673,7.464644660940673L7.69357503616706,7.235714285714286L7.907860750452773,7.235714285714286L9.193575036167061,5.95z" stroke="none"/><path d="M25.69357503616706,5.0928571428571425L25.878571428571426,4.907860750452774L25.878571428571426,4.69357503616706L26.09285714285714,4.479289321881345L26.09285714285714,4.265003607595631L26.307142857142857,4.050717893309916L26.307142857142857,3.8364321790242024L26.735714285714284,3.4078607504527736L26.735714285714284,3.1935750361670596L26.96464466094067,2.9646446609406727L27.03535533905933,3.0353553390593273L26.835714285714285,3.234996392404369L26.835714285714285,3.449282106690083L26.40714285714286,3.877853535261512L26.40714285714286,4.092139249547226L26.192857142857143,4.30642496383294L26.192857142857143,4.520710678118655L25.978571428571428,4.734996392404369L25.978571428571428,4.949282106690084L25.73499639240437,5.192857142857142L25.620710678118655,5.192857142857142L25.73499639240437,5.307142857142857L25.94928210669008,5.307142857142857L26.37785353526151,5.735714285714286L26.80642496383294,5.735714285714286L27.03535533905933,5.964644660940673L26.96464466094067,6.035355339059327L26.76500360759563,5.835714285714285L26.336432179024204,5.835714285714285L25.907860750452773,5.407142857142857L25.69357503616706,5.407142857142857L25.479289321881346,5.192857142857142L25.30642496383294,5.192857142857142L25.092139249547223,5.407142857142857L24.87785353526151,5.407142857142857L24.663567820975796,5.621428571428571L24.44928210669008,5.621428571428571L24.23499639240437,5.835714285714285L22.73499639240437,5.835714285714285L22.53535533905933,6.035355339059327L22.46464466094067,5.964644660940673L22.69357503616706,5.735714285714286L24.19357503616706,5.735714285714286L24.407860750452773,5.521428571428571L24.62214646473849,5.521428571428571L24.836432179024204,5.307142857142857L25.050717893309915,5.307142857142857L25.26500360759563,5.0928571428571425z" stroke="none"/><path d="M11.95,8.307142857142857L11.95,8.163567820975796L11.76500360759563,7.978571428571428L7.050717893309916,7.978571428571428L6.807142857142857,7.734996392404369L6.807142857142857,7.265003607595631L7.021428571428571,7.050717893309916L7.021428571428571,6.836432179024202L7.45,6.407860750452773L7.45,6L7.55,6L7.55,6.449282106690083L7.121428571428571,6.8778535352615116L7.121428571428571,7.092139249547226L6.907142857142857,7.30642496383294L6.907142857142857,7.69357503616706L7.092139249547226,7.878571428571428L11.806424963832939,7.878571428571428L12.05,8.122146464738488L12.05,8.307142857142857L15.663567820975796,8.307142857142857L16.30642496383294,8.95L16.5,8.95L16.5,9.05L16.26500360759563,9.05L15.622146464738488,8.407142857142858L11.806424963832939,8.407142857142858L11.62142857142857,8.592139249547223L11.62142857142857,9.407860750452773L11.835714285714285,9.622146464738488L11.835714285714285,10.050717893309915L12.05,10.26500360759563L12.05,10.5L11.95,10.5L11.95,10.306424963832939L11.735714285714284,10.092139249547223L11.735714285714284,9.663567820975796L11.521428571428569,9.449282106690081L11.521428571428569,8.550717893309915L11.76500360759563,8.307142857142857z" stroke="none"/><path d="M4.45,9.807142857142857L4.45,9.663567820975796L4.265003607595631,9.478571428571428L4.050717893309916,9.478571428571428L3.8071428571428574,9.23499639240437L3.8071428571428574,9.020710678118654L3.592857142857143,8.806424963832939L3.592857142857143,8.592139249547223L3.3785714285714286,8.377853535261512L3.3785714285714286,7.949282106690083L2.9646446609406727,7.535355339059327L3.0353553390593273,7.464644660940673L3.478571428571428,7.907860750452773L3.478571428571428,8.336432179024204L3.6928571428571426,8.550717893309915L3.6928571428571426,8.76500360759563L3.907142857142857,8.979289321881346L3.907142857142857,9.193575036167061L4.092139249547226,9.378571428571426L4.30642496383294,9.378571428571426L4.55,9.622146464738488L4.55,9.807142857142857L4.734996392404369,9.807142857142857L4.949282106690084,10.021428571428569L5.163567820975797,10.021428571428569L5.3778535352615116,10.235714285714284L5.592139249547226,10.235714285714284L5.80642496383294,10.45L6,10.45L6,10.55L5.765003607595631,10.55L5.550717893309916,10.335714285714285L5.336432179024202,10.335714285714285L5.122146464738488,10.12142857142857L4.907860750452774,10.12142857142857L4.69357503616706,9.907142857142858L4.55,9.907142857142858L4.55,10.5L4.45,10.5L4.45,9.907142857142858L4.30642496383294,9.907142857142858L4.121428571428571,10.092139249547223L4.121428571428571,10.26500360759563L4.335714285714285,10.479289321881346L4.335714285714285,10.693575036167061L4.55,10.907860750452773L4.55,12L4.45,12L4.45,10.949282106690081L4.235714285714286,10.73499639240437L4.235714285714286,10.520710678118654L4.021428571428571,10.306424963832939L4.021428571428571,10.050717893309915L4.265003607595631,9.807142857142857z" stroke="none"/><path d="M15.164285714285715,3.8071428571428574L15.164285714285715,3.234996392404369L14.964644660940673,3.0353553390593273L15.035355339059327,2.9646446609406727L15.264285714285716,3.1935750361670596L15.264285714285716,3.8071428571428574L15.622146464738488,3.8071428571428574L16.050717893309915,3.3785714285714286L18.407860750452773,3.3785714285714286L18.62214646473849,3.1642857142857146L20.12214646473849,3.1642857142857146L20.336432179024204,2.95L21,2.95L21,3.05L20.37785353526151,3.05L20.163567820975796,3.2642857142857142L18.663567820975796,3.2642857142857142L18.44928210669008,3.478571428571428L16.092139249547223,3.478571428571428L15.663567820975796,3.907142857142857L15.23499639240437,3.907142857142857L15.020710678118654,4.121428571428571L14.592139249547223,4.121428571428571L13.978571428571428,4.734996392404369L13.978571428571428,4.949282106690084L13.764285714285716,5.163567820975797L13.764285714285716,5.80642496383294L13.535355339059327,6.035355339059327L13.464644660940673,5.964644660940673L13.664285714285715,5.765003607595631L13.664285714285715,5.122146464738488L13.878571428571426,4.907860750452774L13.878571428571426,4.69357503616706L14.550717893309915,4.021428571428571L14.979289321881346,4.021428571428571L15.09357503616706,3.907142857142857L14.163567820975796,3.907142857142857L13.949282106690081,4.121428571428571L13.73499639240437,4.121428571428571L13.520710678118654,4.335714285714285L12.663567820975796,4.335714285714285L12.449282106690081,4.55L12,4.55L12,4.45L12.407860750452773,4.45L12.622146464738488,4.235714285714286L13.479289321881346,4.235714285714286L13.693575036167061,4.021428571428571L13.907860750452773,4.021428571428571L14.122146464738488,3.8071428571428574z" stroke="none"/><path d="M16.664285714285715,8.307142857142857L16.664285714285715,8.122146464738488L16.907860750452773,7.878571428571428L19.94928210669008,7.878571428571428L20.592139249547227,8.521428571428569L21.020710678118654,8.521428571428569L21.264285714285716,8.76500360759563L21.264285714285716,10.306424963832939L21.03535533905933,10.535355339059327L20.96464466094067,10.464644660940673L21.164285714285715,10.26500360759563L21.164285714285715,8.806424963832939L20.979289321881346,8.62142857142857L20.55071789330992,8.62142857142857L19.907860750452773,7.978571428571428L16.94928210669008,7.978571428571428L16.764285714285716,8.163567820975796L16.764285714285716,8.307142857142857L19.73499639240437,8.307142857142857L19.94928210669008,8.521428571428569L20.163567820975796,8.521428571428569L20.592139249547227,8.95L21,8.95L21,9.05L20.55071789330992,9.05L20.12214646473849,8.62142857142857L19.907860750452773,8.62142857142857L19.69357503616706,8.407142857142858L16.83499639240437,8.407142857142858L16.978571428571428,8.550717893309915L16.978571428571428,8.76500360759563L17.192857142857143,8.979289321881346L17.192857142857143,9.23499639240437L16.94928210669008,9.478571428571428L15.622146464738488,9.478571428571428L15.407860750452773,9.264285714285716L15.193575036167061,9.264285714285716L14.964644660940673,9.035355339059327L15.035355339059327,8.964644660940673L15.23499639240437,9.164285714285715L15.449282106690081,9.164285714285715L15.663567820975796,9.378571428571426L16.907860750452773,9.378571428571426L17.09285714285714,9.193575036167061L17.09285714285714,9.020710678118654L16.878571428571426,8.806424963832939L16.878571428571426,8.592139249547223L16.69357503616706,8.407142857142858L16.26500360759563,8.407142857142858L16.050717893309915,8.192857142857143L15.193575036167061,8.192857142857143L14.979289321881346,7.978571428571428L14.550717893309915,7.978571428571428L14.336432179024204,7.764285714285714L13.26500360759563,7.764285714285714L12.836432179024204,7.335714285714285L12.193575036167061,7.335714285714285L11.76500360759563,6.907142857142857L11.550717893309915,6.907142857142857L10.907860750452773,6.264285714285714L10.693575036167061,6.264285714285714L10.464644660940673,6.035355339059327L10.535355339059327,5.964644660940673L10.73499639240437,6.164285714285715L10.949282106690081,6.164285714285715L11.592139249547223,6.807142857142857L11.806424963832939,6.807142857142857L12.23499639240437,7.235714285714286L12.877853535261512,7.235714285714286L13.306424963832939,7.664285714285715L14.377853535261512,7.664285714285715L14.592139249547223,7.878571428571428L15.020710678118654,7.878571428571428L15.23499639240437,8.092857142857142L16.092139249547223,8.092857142857142L16.30642496383294,8.307142857142857z" stroke="none"/><path d="M22.5,3.05L22.5,2.95L24,2.95L24,3.05z" stroke="none"/><path d="M13.55,12L13.45,12L13.45,10.5L13.55,10.5z" stroke="none"/><path d="M15.05,6L14.95,6L14.95,4.5L15.05,4.5z" stroke="none"/><path d="M25.45,3L25.55,3L25.55,4.5L25.45,4.5z" stroke="none"/><path d="M4.464644660940673,2.9646446609406727L4.535355339059327,3.0353553390593273L3.0353553390593273,4.535355339059327L2.9646446609406727,4.464644660940673z" stroke="none"/><path d="M10.464644660940673,10.535355339059327L10.535355339059327,10.464644660940673L12.035355339059327,11.964644660940673L11.964644660940673,12.035355339059327z" stroke="none"/><path d="M7.464644660940673,2.9646446609406727L7.535355339059327,3.0353553390593273L6.035355339059327,4.535355339059327L5.964644660940673,4.464644660940673z" stroke="none"/><path d="M7.535355339059327,10.464644660940673L7.464644660940673,10.535355339059327L5.964644660940673,9.035355339059327L6.035355339059327,8.964644660940673z" stroke="none"/><path d="M27.05,12L26.95,12L26.95,9L27.05,9z" stroke="none"/><path d="M25.53535533905933,11.964644660940673L25.46464466094067,12.035355339059327L25.26500360759563,11.835714285714285L25.050717893309915,11.835714285714285L24.836432179024204,11.62142857142857L22.94928210669008,11.62142857142857L22.53535533905933,12.035355339059327L22.46464466094067,11.964644660940673L22.907860750452773,11.521428571428569L24.87785353526151,11.521428571428569L25.092139249547223,11.735714285714284L25.30642496383294,11.735714285714284z" stroke="none"/><path d="M19.53535533905933,11.964644660940673L19.46464466094067,12.035355339059327L18.836432179024204,11.407142857142858L18.62214646473849,11.407142857142858L18.407860750452773,11.192857142857143L17.979289321881346,11.192857142857143L17.76500360759563,10.978571428571428L17.55071789330992,10.978571428571428L17.336432179024204,10.764285714285716L16.69357503616706,10.764285714285716L16.46464466094067,10.535355339059327L16.53535533905933,10.464644660940673L16.73499639240437,10.664285714285715L17.37785353526151,10.664285714285715L17.592139249547227,10.878571428571426L17.80642496383294,10.878571428571426L18.020710678118654,11.092857142857142L18.44928210669008,11.092857142857142L18.663567820975796,11.307142857142857L18.87785353526151,11.307142857142857z" stroke="none"/><path d="M22.53535533905933,9.035355339059327L22.46464466094067,8.964644660940673L25.46464466094067,5.964644660940673L25.53535533905933,6.035355339059327z" stroke="none"/><path d="M17.96464466094067,9.035355339059327L18.03535533905933,8.964644660940673L21.03535533905933,11.964644660940673L20.96464466094067,12.035355339059327z" stroke="none"/><path d="M16.5,4.55L16.5,4.45L17.12214646473849,4.45L17.336432179024204,4.235714285714286L17.55071789330992,4.235714285714286L17.76500360759563,4.021428571428571L20.37785353526151,4.021428571428571L20.80642496383294,4.45L21,4.45L21,4.55L20.76500360759563,4.55L20.336432179024204,4.121428571428571L17.80642496383294,4.121428571428571L17.592139249547227,4.335714285714285L17.37785353526151,4.335714285714285L17.163567820975796,4.55z" stroke="none"/><path d="M24,11.95L24,12.05L23.37785353526151,12.05L22.94928210669008,12.478571428571428L22.05071789330992,12.478571428571428L21.807142857142857,12.23499639240437L21.807142857142857,8.979289321881346L22.021428571428572,8.76500360759563L22.021428571428572,8.122146464738488L22.235714285714284,7.907860750452773L22.235714285714284,7.69357503616706L22.46464466094067,7.464644660940673L22.53535533905933,7.535355339059327L22.335714285714285,7.734996392404369L22.335714285714285,7.949282106690083L22.121428571428574,8.163567820975796L22.121428571428574,8.806424963832939L21.90714285714286,9.020710678118654L21.90714285714286,12.193575036167061L22.092139249547227,12.378571428571426L22.907860750452773,12.378571428571426L23.336432179024204,11.95z" stroke="none"/><path d="M10.464644660940673,9.035355339059327L10.535355339059327,8.964644660940673L11.407142857142858,9.836432179024204L11.407142857142858,10.693575036167061L11.592139249547223,10.878571428571426L12.407860750452773,10.878571428571426L12.592857142857142,10.693575036167061L12.592857142857142,10.479289321881346L13.050717893309915,10.021428571428569L14.377853535261512,10.021428571428569L14.592139249547223,10.235714285714284L14.806424963832939,10.235714285714284L15.035355339059327,10.464644660940673L14.964644660940673,10.535355339059327L14.76500360759563,10.335714285714285L14.550717893309915,10.335714285714285L14.336432179024204,10.12142857142857L13.092139249547223,10.12142857142857L12.692857142857143,10.520710678118654L12.692857142857143,10.73499639240437L12.449282106690081,10.978571428571428L11.550717893309915,10.978571428571428L11.307142857142857,10.73499639240437L11.307142857142857,9.877853535261512z" stroke="none"/><path d="M8.964644660940673,10.464644660940673L9.035355339059327,10.535355339059327L7.734996392404369,11.835714285714285L7.520710678118655,11.835714285714285L7.092139249547226,12.264285714285716L6.663567820975797,12.264285714285716L6.449282106690083,12.478571428571428L4.050717893309916,12.478571428571428L3.8364321790242024,12.264285714285716L3.1935750361670596,12.264285714285716L2.9646446609406727,12.035355339059327L3.0353553390593273,11.964644660940673L3.234996392404369,12.164285714285715L3.877853535261512,12.164285714285715L4.092139249547226,12.378571428571426L6.407860750452773,12.378571428571426L6.622146464738488,12.164285714285715L7.050717893309916,12.164285714285715L7.479289321881345,11.735714285714284L7.69357503616706,11.735714285714284z" stroke="none"/><path d="M24,4.45L24,4.55L23.550717893309915,4.55L23.12214646473849,4.121428571428571L22.907860750452773,4.121428571428571L22.479289321881346,3.6928571428571426L22.26500360759563,3.6928571428571426L21.807142857142857,3.234996392404369L21.807142857142857,3.020710678118655L21.407860750452773,2.6214285714285714L18.663567820975796,2.6214285714285714L18.44928210669008,2.8357142857142854L18.23499639240437,2.8357142857142854L18.03535533905933,3.0353553390593273L17.96464466094067,2.9646446609406727L18.19357503616706,2.7357142857142858L18.407860750452773,2.7357142857142858L18.62214646473849,2.521428571428572L21.44928210669008,2.521428571428572L21.90714285714286,2.979289321881345L21.90714285714286,3.1935750361670596L22.30642496383294,3.592857142857143L22.520710678118654,3.592857142857143L22.94928210669008,4.021428571428571L23.163567820975796,4.021428571428571L23.592139249547223,4.45z" stroke="none"/><path d="M19.5,4.55L19.5,4.45L19.94928210669008,4.45L20.163567820975796,4.664285714285715L20.37785353526151,4.664285714285715L20.592139249547227,4.878571428571429L24.407860750452773,4.878571428571429L24.59285714285714,4.69357503616706L24.59285714285714,2.8064249638329404L24.407860750452773,2.6214285714285714L22.907860750452773,2.6214285714285714L22.69357503616706,2.407142857142857L14.806424963832939,2.407142857142857L14.592139249547223,2.6214285714285714L14.377853535261512,2.6214285714285714L14.163567820975796,2.8357142857142854L13.73499639240437,2.8357142857142854L13.535355339059327,3.0353553390593273L13.464644660940673,2.9646446609406727L13.693575036167061,2.7357142857142858L14.122146464738488,2.7357142857142858L14.336432179024204,2.521428571428572L14.550717893309915,2.521428571428572L14.76500360759563,2.3071428571428574L22.73499639240437,2.3071428571428574L22.94928210669008,2.521428571428572L24.44928210669008,2.521428571428572L24.692857142857143,2.765003607595631L24.692857142857143,4.734996392404369L24.44928210669008,4.978571428571429L20.55071789330992,4.978571428571429L20.336432179024204,4.764285714285714L20.12214646473849,4.764285714285714L19.907860750452773,4.55z" stroke="none"/><path d="M17.96464466094067,10.535355339059327L18.03535533905933,10.464644660940673L18.23499639240437,10.664285714285715L18.44928210669008,10.664285714285715L18.663567820975796,10.878571428571426L18.87785353526151,10.878571428571426L19.092139249547227,11.092857142857142L19.30642496383294,11.092857142857142L19.520710678118654,11.307142857142857L19.73499639240437,11.307142857142857L19.978571428571428,11.550717893309915L19.978571428571428,11.76500360759563L20.80642496383294,12.592857142857142L25.69357503616706,12.592857142857142L25.878571428571426,12.407860750452773L25.878571428571426,11.592139249547223L24.164285714285715,9.877853535261512L24.164285714285715,9.23499639240437L23.96464466094067,9.035355339059327L24.03535533905933,8.964644660940673L24.264285714285716,9.193575036167061L24.264285714285716,9.836432179024204L25.978571428571428,11.550717893309915L25.978571428571428,12.449282106690081L25.73499639240437,12.692857142857143L20.76500360759563,12.692857142857143L19.878571428571426,11.806424963832939L19.878571428571426,11.592139249547223L19.69357503616706,11.407142857142858L19.479289321881346,11.407142857142858L19.26500360759563,11.192857142857143L19.05071789330992,11.192857142857143L18.836432179024204,10.978571428571428L18.62214646473849,10.978571428571428L18.407860750452773,10.764285714285716L18.19357503616706,10.764285714285716z" stroke="none"/><path d="M10.5,12.05L10.5,11.95L10.949282106690081,11.95L11.377853535261512,12.378571428571426L17.12214646473849,12.378571428571426L17.55071789330992,11.95L18,11.95L18,12.05L17.592139249547227,12.05L17.163567820975796,12.478571428571428L11.336432179024204,12.478571428571428L10.907860750452773,12.05z" stroke="none"/><path d="M12,9.05L12,8.95L13.949282106690081,8.95L14.377853535261512,9.378571428571426L15.23499639240437,9.378571428571426L15.449282106690081,9.592857142857142L17.12214646473849,9.592857142857142L17.307142857142857,9.407860750452773L17.307142857142857,8.76500360759563L17.55071789330992,8.521428571428569L18.44928210669008,8.521428571428569L20.40714285714286,10.479289321881346L20.40714285714286,10.693575036167061L20.592139249547227,10.878571428571426L21.407860750452773,10.878571428571426L21.59285714285714,10.693575036167061L21.59285714285714,9.020710678118654L21.378571428571426,8.806424963832939L21.378571428571426,8.592139249547223L19.664285714285715,6.8778535352615116L19.664285714285715,6.234996392404369L19.46464466094067,6.035355339059327L19.53535533905933,5.964644660940673L19.764285714285716,6.19357503616706L19.764285714285716,6.836432179024202L21.478571428571428,8.550717893309915L21.478571428571428,8.76500360759563L21.692857142857143,8.979289321881346L21.692857142857143,10.73499639240437L21.44928210669008,10.978571428571428L20.55071789330992,10.978571428571428L20.307142857142857,10.73499639240437L20.307142857142857,10.520710678118654L18.407860750452773,8.62142857142857L17.592139249547227,8.62142857142857L17.40714285714286,8.806424963832939L17.40714285714286,9.449282106690081L17.163567820975796,9.692857142857143L15.407860750452773,9.692857142857143L15.193575036167061,9.478571428571428L14.336432179024204,9.478571428571428L13.907860750452773,9.05z" stroke="none"/><path d="M6.035355339059327,12.035355339059327L5.964644660940673,11.964644660940673L6.407860750452773,11.521428571428569L6.622146464738488,11.521428571428569L7.050717893309916,11.092857142857142L7.69357503616706,11.092857142857142L8.307142857142857,10.479289321881346L8.307142857142857,10.26500360759563L8.550717893309915,10.021428571428569L9.449282106690081,10.021428571428569L9.692857142857143,10.26500360759563L9.692857142857143,11.76500360759563L9.907142857142858,11.979289321881346L9.907142857142858,12.193575036167061L10.092139249547223,12.378571428571426L10.949282106690081,12.378571428571426L11.163567820975796,12.592857142857142L18.19357503616706,12.592857142857142L18.378571428571426,12.407860750452773L18.378571428571426,11.592139249547223L18.19357503616706,11.407142857142858L16.30642496383294,11.407142857142858L15.877853535261512,11.835714285714285L15.449282106690081,11.835714285714285L15.23499639240437,12.05L15,12.05L15,11.95L15.193575036167061,11.95L15.407860750452773,11.735714285714284L15.836432179024204,11.735714285714284L16.26500360759563,11.307142857142857L18.23499639240437,11.307142857142857L18.478571428571428,11.550717893309915L18.478571428571428,12.449282106690081L18.23499639240437,12.692857142857143L11.122146464738488,12.692857142857143L10.907860750452773,12.478571428571428L10.050717893309915,12.478571428571428L9.807142857142857,12.23499639240437L9.807142857142857,12.020710678118654L9.592857142857142,11.806424963832939L9.592857142857142,10.306424963832939L9.407860750452773,10.12142857142857L8.592139249547223,10.12142857142857L8.407142857142858,10.306424963832939L8.407142857142858,10.520710678118654L7.734996392404369,11.192857142857143L7.092139249547226,11.192857142857143L6.663567820975797,11.62142857142857L6.449282106690083,11.62142857142857z" stroke="none"/><path d="M4.535355339059327,9.035355339059327L4.464644660940673,8.964644660940673L5.735714285714286,7.69357503616706L5.735714285714286,7.265003607595631L5.95,7.050717893309916L5.95,6.836432179024202L6.164285714285715,6.622146464738488L6.164285714285715,6.407860750452773L7.050717893309916,5.521428571428571L7.479289321881345,5.521428571428571L8.336432179024204,4.664285714285715L8.550717893309915,4.664285714285715L9.407860750452773,3.8071428571428574L9.622146464738488,3.8071428571428574L10.050717893309915,3.3785714285714286L10.26500360759563,3.3785714285714286L10.907860750452773,2.7357142857142858L11.336432179024204,2.7357142857142858L11.550717893309915,2.521428571428572L13.907860750452773,2.521428571428572L14.122146464738488,2.3071428571428574L14.336432179024204,2.3071428571428574L14.550717893309915,2.092857142857143L23.80642496383294,2.092857142857143L24.020710678118654,2.3071428571428574L24.663567820975796,2.3071428571428574L24.90714285714286,2.550717893309917L24.90714285714286,4.949282106690084L24.663567820975796,5.192857142857142L19.520710678118654,5.192857142857142L19.092139249547227,5.621428571428571L18.44928210669008,5.621428571428571L18.020710678118654,6.05L17.592139249547227,6.05L17.37785353526151,6.264285714285714L17.163567820975796,6.264285714285714L16.73499639240437,6.692857142857142L16.30642496383294,6.692857142857142L15.663567820975796,7.335714285714285L15.449282106690081,7.335714285714285L15.23499639240437,7.55L15,7.55L15,7.45L15.193575036167061,7.45L15.407860750452773,7.235714285714286L15.622146464738488,7.235714285714286L16.26500360759563,6.5928571428571425L16.69357503616706,6.5928571428571425L17.12214646473849,6.164285714285715L17.336432179024204,6.164285714285715L17.55071789330992,5.95L17.979289321881346,5.95L18.407860750452773,5.521428571428571L19.05071789330992,5.521428571428571L19.479289321881346,5.0928571428571425L24.62214646473849,5.0928571428571425L24.807142857142857,4.907860750452774L24.807142857142857,2.5921392495472264L24.62214646473849,2.407142857142857L23.979289321881346,2.407142857142857L23.76500360759563,2.1928571428571426L14.592139249547223,2.1928571428571426L14.377853535261512,2.407142857142857L14.163567820975796,2.407142857142857L13.949282106690081,2.6214285714285714L11.592139249547223,2.6214285714285714L11.377853535261512,2.8357142857142854L10.949282106690081,2.8357142857142854L10.306424963832939,3.478571428571428L10.092139249547223,3.478571428571428L9.663567820975796,3.907142857142857L9.449282106690081,3.907142857142857L8.592139249547223,4.764285714285714L8.377853535261512,4.764285714285714L7.520710678118655,5.621428571428571L7.092139249547226,5.621428571428571L6.264285714285714,6.449282106690083L6.264285714285714,6.663567820975797L6.05,6.8778535352615116L6.05,7.092139249547226L5.835714285714285,7.30642496383294L5.835714285714285,7.734996392404369z" stroke="none"/><circle cx="9" cy="7.5" r="0.25" stroke-width="0" fill="#000" /><circle cx="7.5" cy="7.5" r="0.25" stroke-width="0" fill="#000" /><circle cx="12" cy="3" r="0.25" stroke-width="0" fill="#000" /><circle cx="27" cy="6" r="0.25" stroke-width="0" fill="#000" /><circle cx="27" cy="3" r="0.25" stroke-width="0" fill="#000" /><circle cx="22.5" cy="6" r="0.25" stroke-width="0" fill="#000" /><circle cx="12" cy="10.5" r="0.25" stroke-width="0" fill="#000" /><circle cx="16.5" cy="9" r="0.25" stroke-width="0" fill="#000" /><circle cx="7.5" cy="6" r="0.25" stroke-width="0" fill="#000" /><circle cx="4.5" cy="10.5" r="0.25" stroke-width="0" fill="#000" /><circle cx="6" cy="10.5" r="0.25" stroke-width="0" fill="#000" /><circle cx="4.5" cy="12" r="0.25" stroke-width="0" fill="#000" /><circle cx="3" cy="7.5" r="0.25" stroke-width="0" fill="#000" /><circle cx="15" cy="3" r="0.25" stroke-width="0" fill="#000" /><circle cx="13.5" cy="6" r="0.25" stroke-width="0" fill="#000" /><circle cx="12" cy="4.5" r="0.25" stroke-width="0" fill="#000" /><circle cx="21" cy="3" r="0.25" stroke-width="0" fill="#000" /><circle cx="15" cy="9" r="0.25" stroke-width="0" fill="#000" /><circle cx="21" cy="9" r="0.25" stroke-width="0" fill="#000" /><circle cx="21" cy="10.5" r="0.25" stroke-width="0" fill="#000" /><circle cx="10.5" cy="6" r="0.25" stroke-width="0" fill="#000" /><circle cx="22.5" cy="3" r="0.25" stroke-width="0" fill="#000" /><circle cx="24" cy="3" r="0.25" stroke-width="0" fill="#000" /><circle cx="13.5" cy="12" r="0.25" stroke-width="0" fill="#000" /><circle cx="13.5" cy="10.5" r="0.25" stroke-width="0" fill="#000" /><circle cx="15" cy="6" r="0.25" stroke-width="0" fill="#000" /><circle cx="15" cy="4.5" r="0.25" stroke-width="0" fill="#000" /><circle cx="25.5" cy="3" r="0.25" stroke-width="0" fill="#000" /><circle cx="25.5" cy="4.5" r="0.25" stroke-width="0" fill="#000" /><circle cx="4.5" cy="3" r="0.25" stroke-width="0" fill="#000" /><circle cx="3" cy="4.5" r="0.25" stroke-width="0" fill="#000" /><circle cx="10.5" cy="10.5" r="0.25" stroke-width="0" fill="#000" /><circle cx="12" cy="12" r="0.25" stroke-width="0" fill="#000" /><circle cx="7.5" cy="3" r="0.25" stroke-width="0" fill="#000" /><circle cx="6" cy="4.5" r="0.25" stroke-width="0" fill="#000" /><circle cx="7.5" cy="10.5" r="0.25" stroke-width="0" fill="#000" /><circle cx="6" cy="9" r="0.25" stroke-width="0" fill="#000" /><circle cx="27" cy="12" r="0.25" stroke-width="0" fill="#000" /><circle cx="27" cy="9" r="0.25" stroke-width="0" fill="#000" /><circle cx="25.5" cy="12" r="0.25" stroke-width="0" fill="#000" /><circle cx="22.5" cy="12" r="0.25" stroke-width="0" fill="#000" /><circle cx="19.5" cy="12" r="0.25" stroke-width="0" fill="#000" /><circle cx="16.5" cy="10.5" r="0.25" stroke-width="0" fill="#000" /><circle cx="22.5" cy="9" r="0.25" stroke-width="0" fill="#000" /><circle cx="25.5" cy="6" r="0.25" stroke-width="0" fill="#000" /><circle cx="18" cy="9" r="0.25" stroke-width="0" fill="#000" /><circle cx="21" cy="12" r="0.25" stroke-width="0" fill="#000" /><circle cx="16.5" cy="4.5" r="0.25" stroke-width="0" fill="#000" /><circle cx="21" cy="4.5" r="0.25" stroke-width="0" fill="#000" /><circle cx="24" cy="12" r="0.25" stroke-width="0" fill="#000" /><circle cx="22.5" cy="7.5" r="0.25" stroke-width="0" fill="#000" /><circle cx="10.5" cy="9" r="0.25" stroke-width="0" fill="#000" /><circle cx="15" cy="10.5" r="0.25" stroke-width="0" fill="#000" /><circle cx="9" cy="10.5" r="0.25" stroke-width="0" fill="#000" /><circle cx="3" cy="12" r="0.25" stroke-width="0" fill="#000" /><circle cx="24" cy="4.5" r="0.25" stroke-width="0" fill="#000" /><circle cx="18" cy="3" r="0.25" stroke-width="0" fill="#000" /><circle cx="19.5" cy="4.5" r="0.25" stroke-width="0" fill="#000" /><circle cx="13.5" cy="3" r="0.25" stroke-width="0" fill="#000" /><circle cx="18" cy="10.5" r="0.25" stroke-width="0" fill="#000" /><circle cx="24" cy="9" r="0.25" stroke-width="0" fill="#000" /><circle cx="10.5" cy="12" r="0.25" stroke-width="0" fill="#000" /><circle cx="18" cy="12" r="0.25" stroke-width="0" fill="#000" /><circle cx="12" cy="9" r="0.25" stroke-width="0" fill="#000" /><circle cx="19.5" cy="6" r="0.25" stroke-width="0" fill="#000" /><circle cx="6" cy="12" r="0.25" stroke-width="0" fill="#000" /><circle cx="15" cy="12" r="0.25" stroke-width="0" fill="#000" /><circle cx="4.5" cy="9" r="0.25" stroke-width="0" fill="#000" /><circle cx="15" cy="7.5" r="0.25" stroke-width="0" fill="#000" /><rect x="0" y="0" width="30" height="15" stroke-width="0.2" stroke="#000" fill="none" /></svg>