<svg version="1.1" width="30" height="15" xmlns="http://www.w3.org/2000/svg"><path d="M3.592857142857143,7.30642496383294L3.3785714285714286,7.092139249547226L3.3785714285714286,6.663567820975797L2.95,6.234996392404369L2.95,4.5L3.05,4.5L3.05,6.19357503616706L3.478571428571428,6.622146464738488L3.478571428571428,7.050717893309916L3.6928571428571426,7.265003607595631L3.6928571428571426,7.45L3.877853535261512,7.45L4.121428571428571,7.69357503616706L4.121428571428571,8.122146464738488L4.55,8.550717893309915L4.55,9L4.45,9L4.45,8.592139249547223L4.021428571428571,8.163567820975796L4.021428571428571,7.734996392404369L3.8364321790242024,7.55L3.6928571428571426,7.55L3.6928571428571426,7.949282106690083L3.478571428571428,8.163567820975796L3.478571428571428,8.377853535261512L3.05,8.806424963832939L3.05,9L2.95,9L2.95,8.76500360759563L3.3785714285714286,8.336432179024204L3.3785714285714286,8.122146464738488L3.592857142857143,7.907860750452773z" stroke="none"/><path d="M14.979289321881346,8.307142857142857L15.378571428571426,7.907860750452773L15.378571428571426,6.663567820975797L14.95,6.234996392404369L14.95,6L15.05,6L15.05,6.19357503616706L15.478571428571428,6.622146464738488L15.478571428571428,7.949282106690083L15.020710678118654,8.407142857142858L9.478571428571428,8.407142857142858L9.478571428571428,9.449282106690081L9.23499639240437,9.692857142857143L9.020710678118654,9.692857142857143L8.806424963832939,9.907142857142858L7.520710678118655,9.907142857142858L7.30642496383294,10.12142857142857L7.092139249547226,10.12142857142857L6.8778535352615116,10.335714285714285L6.663567820975797,10.335714285714285L6.449282106690083,10.55L6,10.55L6,10.45L6.407860750452773,10.45L6.622146464738488,10.235714285714284L6.836432179024202,10.235714285714284L7.050717893309916,10.021428571428569L7.265003607595631,10.021428571428569L7.479289321881345,9.807142857142857L8.76500360759563,9.807142857142857L8.979289321881346,9.592857142857142L9.193575036167061,9.592857142857142L9.378571428571426,9.407860750452773L9.378571428571426,8.407142857142858L9.020710678118654,8.407142857142858L8.806424963832939,8.62142857142857L8.592139249547223,8.62142857142857L8.163567820975796,9.05L7.5,9.05L7.5,8.95L8.122146464738488,8.95L8.550717893309915,8.521428571428569L8.76500360759563,8.521428571428569L8.979289321881346,8.307142857142857z" stroke="none"/><path d="M12.836432179024204,5.307142857142857L13.021428571428569,5.122146464738488L13.021428571428569,4.69357503616706L13.235714285714284,4.479289321881345L13.235714285714284,4.265003607595631L13.45,4.050717893309916L13.45,3L13.55,3L13.55,4.092139249547226L13.335714285714285,4.30642496383294L13.335714285714285,4.520710678118655L13.12142857142857,4.734996392404369L13.12142857142857,5.163567820975797L12.927853535261512,5.357142857142857L15.035355339059327,7.464644660940673L14.964644660940673,7.535355339059327L12.836432179024204,5.407142857142857L11.592139249547223,5.407142857142857L10.949282106690081,6.05L10.5,6.05L10.5,5.95L10.907860750452773,5.95L11.550717893309915,5.307142857142857z" stroke="none"/><path d="M8.092857142857142,10.45L8.092857142857142,10.306424963832939L7.907860750452773,10.12142857142857L7.734996392404369,10.12142857142857L7.520710678118655,10.335714285714285L7.30642496383294,10.335714285714285L6.8778535352615116,10.764285714285716L6.663567820975797,10.764285714285716L6.449282106690083,10.978571428571428L5.336432179024202,10.978571428571428L4.907860750452774,10.55L4.5,10.55L4.5,10.45L4.949282106690084,10.45L5.3778535352615116,10.878571428571426L6.407860750452773,10.878571428571426L6.622146464738488,10.664285714285715L6.836432179024202,10.664285714285715L7.265003607595631,10.235714285714284L7.479289321881345,10.235714285714284L7.69357503616706,10.021428571428569L7.949282106690083,10.021428571428569L8.192857142857143,10.26500360759563L8.192857142857143,10.45L8.336432179024204,10.45L8.76500360759563,10.021428571428569L9.193575036167061,10.021428571428569L9.622146464738488,9.592857142857142L11.122146464738488,9.592857142857142L11.550717893309915,9.164285714285715L11.76500360759563,9.164285714285715L11.964644660940673,8.964644660940673L12.035355339059327,9.035355339059327L11.806424963832939,9.264285714285716L11.592139249547223,9.264285714285716L11.163567820975796,9.692857142857143L9.663567820975796,9.692857142857143L9.23499639240437,10.12142857142857L8.806424963832939,10.12142857142857L8.377853535261512,10.55L8.192857142857143,10.55L8.192857142857143,10.949282106690081L7.978571428571428,11.163567820975796L7.978571428571428,11.377853535261512L7.55,11.806424963832939L7.55,12L7.45,12L7.45,11.76500360759563L7.878571428571428,11.336432179024204L7.878571428571428,11.122146464738488L8.092857142857142,10.907860750452773L8.092857142857142,10.55L7.5,10.55L7.5,10.45z" stroke="none"/><path d="M18.020710678118654,4.45L18.407860750452773,4.45L19.26500360759563,3.592857142857143L19.479289321881346,3.592857142857143L19.907860750452773,3.1642857142857146L20.12214646473849,3.1642857142857146L20.336432179024204,2.95L21,2.95L21,3.05L20.37785353526151,3.05L20.163567820975796,3.2642857142857142L19.94928210669008,3.2642857142857142L19.520710678118654,3.6928571428571426L19.30642496383294,3.6928571428571426L18.44928210669008,4.55L18.05,4.55L18.05,4.69357503616706L18.23499639240437,4.878571428571429L23.336432179024204,4.878571428571429L23.550717893309915,4.664285714285715L23.76500360759563,4.664285714285715L23.96464466094067,4.464644660940673L24.03535533905933,4.535355339059327L23.80642496383294,4.764285714285714L23.592139249547223,4.764285714285714L23.37785353526151,4.978571428571429L18.19357503616706,4.978571428571429L17.95,4.734996392404369L17.95,4.55L17.55071789330992,4.55L17.12214646473849,4.121428571428571L15.836432179024204,4.121428571428571L15.193575036167061,3.478571428571428L14.979289321881346,3.478571428571428L14.336432179024204,2.8357142857142854L14.122146464738488,2.8357142857142854L13.907860750452773,2.6214285714285714L13.092139249547223,2.6214285714285714L11.407142857142858,4.30642496383294L11.407142857142858,4.520710678118655L10.949282106690081,4.978571428571429L10.73499639240437,4.978571428571429L10.12142857142857,5.592139249547226L10.12142857142857,6.407860750452773L10.306424963832939,6.5928571428571425L10.520710678118654,6.5928571428571425L11.163567820975796,7.235714285714286L11.806424963832939,7.235714285714286L12.035355339059327,7.464644660940673L11.964644660940673,7.535355339059327L11.76500360759563,7.335714285714285L11.122146464738488,7.335714285714285L10.479289321881346,6.692857142857142L10.26500360759563,6.692857142857142L10.021428571428569,6.449282106690083L10.021428571428569,5.550717893309916L10.693575036167061,4.878571428571429L10.907860750452773,4.878571428571429L11.307142857142857,4.479289321881345L11.307142857142857,4.265003607595631L13.050717893309915,2.521428571428572L13.949282106690081,2.521428571428572L14.163567820975796,2.7357142857142858L14.377853535261512,2.7357142857142858L15.020710678118654,3.3785714285714286L15.23499639240437,3.3785714285714286L15.877853535261512,4.021428571428571L17.163567820975796,4.021428571428571L17.592139249547227,4.45L17.879289321881345,4.45L17.336432179024204,3.907142857142857L17.12214646473849,3.907142857142857L16.907860750452773,3.6928571428571426L16.479289321881346,3.6928571428571426L16.26500360759563,3.478571428571428L16.050717893309915,3.478571428571428L15.836432179024204,3.2642857142857142L15.193575036167061,3.2642857142857142L14.964644660940673,3.0353553390593273L15.035355339059327,2.9646446609406727L15.23499639240437,3.1642857142857146L15.877853535261512,3.1642857142857146L16.092139249547223,3.3785714285714286L16.30642496383294,3.3785714285714286L16.520710678118654,3.592857142857143L16.94928210669008,3.592857142857143L17.163567820975796,3.8071428571428574L17.37785353526151,3.8071428571428574z" stroke="none"/><path d="M21.59285714285714,7.30642496383294L21.407860750452773,7.121428571428571L20.76500360759563,7.121428571428571L20.55071789330992,6.907142857142857L18.62214646473849,6.907142857142857L18.407860750452773,6.692857142857142L17.336432179024204,6.692857142857142L16.69357503616706,6.05L16.5,6.05L16.5,5.95L16.73499639240437,5.95L17.37785353526151,6.5928571428571425L18.44928210669008,6.5928571428571425L18.663567820975796,6.807142857142857L20.592139249547227,6.807142857142857L20.80642496383294,7.021428571428571L21.44928210669008,7.021428571428571L21.692857142857143,7.265003607595631L21.692857142857143,7.379289321881346L22.05071789330992,7.021428571428571L23.336432179024204,7.021428571428571L23.550717893309915,6.807142857142857L23.979289321881346,6.807142857142857L24.836432179024204,5.95L25.5,5.95L25.5,6.05L24.87785353526151,6.05L24.020710678118654,6.907142857142857L23.592139249547223,6.907142857142857L23.37785353526151,7.121428571428571L22.092139249547227,7.121428571428571L21.763567820975798,7.45L21.87785353526151,7.45L22.121428571428574,7.69357503616706L22.121428571428574,7.907860750452773L22.30642496383294,8.092857142857142L24.44928210669008,8.092857142857142L24.663567820975796,8.307142857142857L24.87785353526151,8.307142857142857L25.53535533905933,8.964644660940673L25.46464466094067,9.035355339059327L24.836432179024204,8.407142857142858L24.62214646473849,8.407142857142858L24.407860750452773,8.192857142857143L22.26500360759563,8.192857142857143L22.021428571428572,7.949282106690083L22.021428571428572,7.734996392404369L21.836432179024204,7.55L21.692857142857143,7.55L21.692857142857143,7.734996392404369L21.44928210669008,7.978571428571428L20.37785353526151,7.978571428571428L20.163567820975796,8.192857142857143L19.520710678118654,8.192857142857143L19.30642496383294,8.407142857142858L18.663567820975796,8.407142857142858L18.03535533905933,9.035355339059327L17.96464466094067,8.964644660940673L18.62214646473849,8.307142857142857L19.26500360759563,8.307142857142857L19.479289321881346,8.092857142857142L20.12214646473849,8.092857142857142L20.336432179024204,7.878571428571428L21.407860750452773,7.878571428571428L21.59285714285714,7.69357503616706z" stroke="none"/><path d="M24,8.95L24,9.05L22.5,9.05L22.5,8.95z" stroke="none"/><path d="M27,11.95L27,12.05L25.5,12.05L25.5,11.95z" stroke="none"/><path d="M19.5,11.95L19.5,12.05L18,12.05L18,11.95z" stroke="none"/><path d="M11.95,6L12.05,6L12.05,6.622146464738488L12.478571428571428,7.050717893309916L12.478571428571428,7.949282106690083L12.23499639240437,8.192857142857143L11.550717893309915,8.192857142857143L10.693575036167061,7.335714285714285L10.479289321881346,7.335714285714285L9.807142857142857,6.663567820975797L9.807142857142857,5.336432179024202L10.235714285714284,4.907860750452774L10.235714285714284,4.69357503616706L10.464644660940673,4.464644660940673L10.535355339059327,4.535355339059327L10.335714285714285,4.734996392404369L10.335714285714285,4.949282106690084L9.907142857142858,5.3778535352615116L9.907142857142858,6.622146464738488L10.520710678118654,7.235714285714286L10.73499639240437,7.235714285714286L11.592139249547223,8.092857142857142L12.193575036167061,8.092857142857142L12.378571428571426,7.907860750452773L12.378571428571426,7.092139249547226L11.95,6.663567820975797z" stroke="none"/><path d="M6.035355339059327,5.964644660940673L5.964644660940673,6.035355339059327L4.464644660940673,4.535355339059327L4.535355339059327,4.464644660940673z" stroke="none"/><path d="M21,7.45L21,7.55L20.592139249547227,7.55L20.37785353526151,7.764285714285714L20.163567820975796,7.764285714285714L19.94928210669008,7.978571428571428L19.05071789330992,7.978571428571428L18.836432179024204,7.764285714285714L18.62214646473849,7.764285714285714L18.407860750452773,7.55L18,7.55L18,7.45L18.44928210669008,7.45L18.663567820975796,7.664285714285715L18.87785353526151,7.664285714285715L19.092139249547227,7.878571428571428L19.907860750452773,7.878571428571428L20.12214646473849,7.664285714285715L20.336432179024204,7.664285714285715L20.55071789330992,7.45z" stroke="none"/><path d="M22.5,7.55L22.5,7.45L23.550717893309915,7.45L23.979289321881346,7.021428571428571L24.19357503616706,7.021428571428571L24.407860750452773,6.807142857142857L24.836432179024204,6.807142857142857L25.050717893309915,6.5928571428571425L25.69357503616706,6.5928571428571425L25.878571428571426,6.407860750452773L25.878571428571426,5.592139249547226L24.407860750452773,4.121428571428571L22.30642496383294,4.121428571428571L22.092139249547227,4.335714285714285L21.23499639240437,4.335714285714285L21.03535533905933,4.535355339059327L20.96464466094067,4.464644660940673L21.19357503616706,4.235714285714286L22.05071789330992,4.235714285714286L22.26500360759563,4.021428571428571L24.44928210669008,4.021428571428571L25.978571428571428,5.550717893309916L25.978571428571428,6.449282106690083L25.73499639240437,6.692857142857142L25.092139249547223,6.692857142857142L24.87785353526151,6.907142857142857L24.44928210669008,6.907142857142857L24.23499639240437,7.121428571428571L24.020710678118654,7.121428571428571L23.592139249547223,7.55z" stroke="none"/><path d="M16.5,11.95L16.5,12.05L15.407860750452773,12.05L15.193575036167061,11.835714285714285L14.979289321881346,11.835714285714285L13.693575036167061,10.55L13.5,10.55L13.5,10.45L13.73499639240437,10.45L15.020710678118654,11.735714285714284L15.23499639240437,11.735714285714284L15.449282106690081,11.95z" stroke="none"/><path d="M10.464644660940673,2.9646446609406727L10.535355339059327,3.0353553390593273L9.663567820975796,3.907142857142857L9.23499639240437,3.907142857142857L9.020710678118654,4.121428571428571L8.806424963832939,4.121428571428571L8.377853535261512,4.55L7.5,4.55L7.5,4.45L8.336432179024204,4.45L8.76500360759563,4.021428571428571L8.979289321881346,4.021428571428571L9.193575036167061,3.8071428571428574L9.622146464738488,3.8071428571428574z" stroke="none"/><path d="M19.5,5.95L19.5,6.05L17.336432179024204,6.05L16.907860750452773,5.621428571428571L16.092139249547223,5.621428571428571L15.907142857142858,5.80642496383294L15.907142857142858,7.050717893309916L16.12142857142857,7.265003607595631L16.12142857142857,8.122146464738488L16.335714285714285,8.336432179024204L16.335714285714285,8.550717893309915L16.55,8.76500360759563L16.55,9L16.45,9L16.45,8.806424963832939L16.235714285714284,8.592139249547223L16.235714285714284,8.377853535261512L16.02142857142857,8.163567820975796L16.02142857142857,7.30642496383294L15.807142857142857,7.092139249547226L15.807142857142857,5.765003607595631L16.050717893309915,5.521428571428571L16.94928210669008,5.521428571428571L17.37785353526151,5.95z" stroke="none"/><path d="M6.035355339059327,4.464644660940673L5.964644660940673,4.535355339059327L5.550717893309916,4.121428571428571L2.5921392495472264,4.121428571428571L2.407142857142857,4.30642496383294L2.407142857142857,6.407860750452773L2.6214285714285714,6.622146464738488L2.6214285714285714,6.836432179024202L3.05,7.265003607595631L3.05,7.5L2.95,7.5L2.95,7.30642496383294L2.521428571428572,6.8778535352615116L2.521428571428572,6.663567820975797L2.3071428571428574,6.449282106690083L2.3071428571428574,4.265003607595631L2.550717893309917,4.021428571428571L5.592139249547226,4.021428571428571z" stroke="none"/><path d="M4.464644660940673,3.0353553390593273L4.535355339059327,2.9646446609406727L5.163567820975797,3.592857142857143L5.3778535352615116,3.592857142857143L5.592139249547226,3.8071428571428574L5.80642496383294,3.8071428571428574L6.020710678118655,4.021428571428571L6.449282106690083,4.021428571428571L6.907142857142857,4.479289321881345L6.907142857142857,5.122146464738488L7.121428571428571,5.336432179024202L7.121428571428571,5.550717893309916L7.535355339059327,5.964644660940673L7.464644660940673,6.035355339059327L7.021428571428571,5.592139249547226L7.021428571428571,5.3778535352615116L6.807142857142857,5.163567820975797L6.807142857142857,4.520710678118655L6.407860750452773,4.121428571428571L5.979289321881345,4.121428571428571L5.765003607595631,3.907142857142857L5.550717893309916,3.907142857142857L5.336432179024202,3.6928571428571426L5.122146464738488,3.6928571428571426z" stroke="none"/><path d="M4.5,7.55L4.5,7.45L4.69357503616706,7.45L4.907860750452774,7.235714285714286L5.122146464738488,7.235714285714286L5.765003607595631,6.5928571428571425L7.907860750452773,6.5928571428571425L8.336432179024204,6.164285714285715L8.550717893309915,6.164285714285715L8.76500360759563,5.95L9,5.95L9,6.05L8.806424963832939,6.05L8.592139249547223,6.264285714285714L8.377853535261512,6.264285714285714L7.949282106690083,6.692857142857142L5.80642496383294,6.692857142857142L5.163567820975797,7.335714285714285L4.949282106690084,7.335714285714285L4.734996392404369,7.55z" stroke="none"/><path d="M5.964644660940673,8.964644660940673L6.035355339059327,9.035355339059327L5.592139249547226,9.478571428571428L5.163567820975797,9.478571428571428L4.949282106690084,9.692857142857143L4.734996392404369,9.692857142857143L4.520710678118655,9.907142857142858L4.30642496383294,9.907142857142858L4.121428571428571,10.092139249547223L4.121428571428571,10.907860750452773L4.30642496383294,11.092857142857142L5.80642496383294,11.092857142857142L7.092139249547226,12.378571428571426L7.907860750452773,12.378571428571426L8.122146464738488,12.164285714285715L8.336432179024204,12.164285714285715L8.979289321881346,11.521428571428569L9.193575036167061,11.521428571428569L10.26500360759563,10.45L10.5,10.45L10.5,10.55L10.306424963832939,10.55L9.23499639240437,11.62142857142857L9.020710678118654,11.62142857142857L8.377853535261512,12.264285714285716L8.163567820975796,12.264285714285716L7.949282106690083,12.478571428571428L7.050717893309916,12.478571428571428L5.765003607595631,11.192857142857143L4.265003607595631,11.192857142857143L4.021428571428571,10.949282106690081L4.021428571428571,10.050717893309915L4.265003607595631,9.807142857142857L4.479289321881345,9.807142857142857L4.69357503616706,9.592857142857142L4.907860750452774,9.592857142857142L5.122146464738488,9.378571428571426L5.550717893309916,9.378571428571426z" stroke="none"/><path d="M22.5,11.95L22.5,12.05L21.836432179024204,12.05L21.407860750452773,11.62142857142857L19.26500360759563,11.62142857142857L18.19357503616706,10.55L18,10.55L18,10.45L18.23499639240437,10.45L19.30642496383294,11.521428571428569L21.44928210669008,11.521428571428569L21.87785353526151,11.95z" stroke="none"/><path d="M9,8.95L9,9.05L8.592139249547223,9.05L8.377853535261512,9.264285714285716L8.163567820975796,9.264285714285716L7.949282106690083,9.478571428571428L7.050717893309916,9.478571428571428L6.807142857142857,9.23499639240437L6.807142857142857,8.76500360759563L8.979289321881346,6.5928571428571425L9.193575036167061,6.5928571428571425L9.378571428571426,6.407860750452773L9.378571428571426,5.592139249547226L9.193575036167061,5.407142857142857L7.69357503616706,5.407142857142857L7.479289321881345,5.192857142857142L7.265003607595631,5.192857142857142L7.021428571428571,4.949282106690084L7.021428571428571,4.30642496383294L5.550717893309916,2.8357142857142854L5.122146464738488,2.8357142857142854L4.907860750452774,2.6214285714285714L4.092139249547226,2.6214285714285714L3.234996392404369,3.478571428571428L2.8064249638329404,3.478571428571428L2.1928571428571426,4.092139249547226L2.1928571428571426,7.907860750452773L2.6214285714285714,8.336432179024204L2.6214285714285714,9.407860750452773L3.020710678118655,9.807142857142857L3.234996392404369,9.807142857142857L3.478571428571428,10.050717893309915L3.478571428571428,10.479289321881346L3.6928571428571426,10.693575036167061L3.6928571428571426,10.907860750452773L4.092139249547226,11.307142857142857L4.734996392404369,11.307142857142857L4.949282106690084,11.521428571428569L5.163567820975797,11.521428571428569L5.80642496383294,12.164285714285715L6.020710678118655,12.164285714285715L6.234996392404369,12.378571428571426L6.663567820975797,12.378571428571426L6.8778535352615116,12.592857142857142L12.622146464738488,12.592857142857142L12.836432179024204,12.378571428571426L13.050717893309915,12.378571428571426L13.464644660940673,11.964644660940673L13.535355339059327,12.035355339059327L13.092139249547223,12.478571428571428L12.877853535261512,12.478571428571428L12.663567820975796,12.692857142857143L6.836432179024202,12.692857142857143L6.622146464738488,12.478571428571428L6.19357503616706,12.478571428571428L5.979289321881345,12.264285714285716L5.765003607595631,12.264285714285716L5.122146464738488,11.62142857142857L4.907860750452774,11.62142857142857L4.69357503616706,11.407142857142858L4.050717893309916,11.407142857142858L3.592857142857143,10.949282106690081L3.592857142857143,10.73499639240437L3.3785714285714286,10.520710678118654L3.3785714285714286,10.092139249547223L3.1935750361670596,9.907142857142858L2.979289321881345,9.907142857142858L2.521428571428572,9.449282106690081L2.521428571428572,8.377853535261512L2.092857142857143,7.949282106690083L2.092857142857143,4.050717893309916L2.765003607595631,3.3785714285714286L3.1935750361670596,3.3785714285714286L4.050717893309916,2.521428571428572L4.949282106690084,2.521428571428572L5.163567820975797,2.7357142857142858L5.592139249547226,2.7357142857142858L7.121428571428571,4.265003607595631L7.121428571428571,4.907860750452774L7.30642496383294,5.0928571428571425L7.520710678118655,5.0928571428571425L7.734996392404369,5.307142857142857L9.23499639240437,5.307142857142857L9.478571428571428,5.550717893309916L9.478571428571428,6.449282106690083L9.23499639240437,6.692857142857142L9.020710678118654,6.692857142857142L6.907142857142857,8.806424963832939L6.907142857142857,9.193575036167061L7.092139249547226,9.378571428571426L7.907860750452773,9.378571428571426L8.122146464738488,9.164285714285715L8.336432179024204,9.164285714285715L8.550717893309915,8.95z" stroke="none"/><path d="M14.964644660940673,10.535355339059327L15.035355339059327,10.464644660940673L15.23499639240437,10.664285714285715L15.449282106690081,10.664285714285715L15.663567820975796,10.878571428571426L15.877853535261512,10.878571428571426L16.092139249547223,11.092857142857142L16.30642496383294,11.092857142857142L16.520710678118654,11.307142857142857L16.73499639240437,11.307142857142857L17.40714285714286,11.979289321881346L17.40714285714286,12.193575036167061L17.592139249547227,12.378571428571426L20.12214646473849,12.378571428571426L20.336432179024204,12.164285714285715L20.76500360759563,12.164285714285715L20.96464466094067,11.964644660940673L21.03535533905933,12.035355339059327L20.80642496383294,12.264285714285716L20.37785353526151,12.264285714285716L20.163567820975796,12.478571428571428L17.55071789330992,12.478571428571428L17.307142857142857,12.23499639240437L17.307142857142857,12.020710678118654L16.69357503616706,11.407142857142858L16.479289321881346,11.407142857142858L16.26500360759563,11.192857142857143L16.050717893309915,11.192857142857143L15.836432179024204,10.978571428571428L15.622146464738488,10.978571428571428L15.407860750452773,10.764285714285716L15.193575036167061,10.764285714285716z" stroke="none"/><path d="M16.5,4.55L16.5,4.45L17.163567820975796,4.45L17.80642496383294,5.0928571428571425L20.592139249547227,5.0928571428571425L20.80642496383294,5.307142857142857L21.020710678118654,5.307142857142857L21.23499639240437,5.521428571428571L21.663567820975796,5.521428571428571L21.87785353526151,5.735714285714286L22.092139249547227,5.735714285714286L22.30642496383294,5.95L22.5,5.95L22.5,6.05L22.26500360759563,6.05L22.05071789330992,5.835714285714285L21.836432179024204,5.835714285714285L21.62214646473849,5.621428571428571L21.19357503616706,5.621428571428571L20.979289321881346,5.407142857142857L20.76500360759563,5.407142857142857L20.55071789330992,5.192857142857142L17.76500360759563,5.192857142857142L17.12214646473849,4.55z" stroke="none"/><path d="M14.964644660940673,4.535355339059327L15.035355339059327,4.464644660940673L15.23499639240437,4.664285714285715L15.449282106690081,4.664285714285715L15.877853535261512,5.0928571428571425L17.37785353526151,5.0928571428571425L17.592139249547227,5.307142857142857L17.80642496383294,5.307142857142857L18.020710678118654,5.521428571428571L20.163567820975796,5.521428571428571L20.37785353526151,5.735714285714286L20.80642496383294,5.735714285714286L21.03535533905933,5.964644660940673L20.96464466094067,6.035355339059327L20.76500360759563,5.835714285714285L20.336432179024204,5.835714285714285L20.12214646473849,5.621428571428571L17.979289321881346,5.621428571428571L17.76500360759563,5.407142857142857L17.55071789330992,5.407142857142857L17.336432179024204,5.192857142857142L15.836432179024204,5.192857142857142L15.407860750452773,4.764285714285714L15.193575036167061,4.764285714285714z" stroke="none"/><path d="M3.0353553390593273,10.464644660940673L2.9646446609406727,10.535355339059327L2.3071428571428574,9.877853535261512L2.3071428571428574,9.23499639240437L2.092857142857143,9.020710678118654L2.092857142857143,8.377853535261512L1.8785714285714286,8.163567820975796L1.8785714285714286,3.8364321790242024L3.4078607504527736,2.3071428571428574L10.73499639240437,2.3071428571428574L10.978571428571428,2.550717893309917L10.978571428571428,3.449282106690083L10.73499639240437,3.6928571428571426L10.520710678118654,3.6928571428571426L9.907142857142858,4.30642496383294L9.907142857142858,4.520710678118655L9.692857142857143,4.734996392404369L9.692857142857143,6.663567820975797L9.05,7.30642496383294L9.05,7.5L8.95,7.5L8.95,7.265003607595631L9.592857142857142,6.622146464738488L9.592857142857142,4.69357503616706L9.807142857142857,4.479289321881345L9.807142857142857,4.265003607595631L10.479289321881346,3.592857142857143L10.693575036167061,3.592857142857143L10.878571428571426,3.4078607504527736L10.878571428571426,2.5921392495472264L10.693575036167061,2.407142857142857L3.449282106690083,2.407142857142857L1.9785714285714286,3.877853535261512L1.9785714285714286,8.122146464738488L2.1928571428571426,8.336432179024204L2.1928571428571426,8.979289321881346L2.407142857142857,9.193575036167061L2.407142857142857,9.836432179024204z" stroke="none"/><path d="M25.45,3L25.55,3L25.55,4.050717893309916L25.978571428571428,4.479289321881345L25.978571428571428,4.907860750452774L26.192857142857143,5.122146464738488L26.192857142857143,9.23499639240437L25.94928210669008,9.478571428571428L17.55071789330992,9.478571428571428L17.307142857142857,9.23499639240437L17.307142857142857,7.265003607595631L17.55071789330992,7.021428571428571L18.663567820975796,7.021428571428571L18.87785353526151,7.235714285714286L19.092139249547227,7.235714285714286L19.30642496383294,7.45L19.5,7.45L19.5,7.55L19.26500360759563,7.55L19.05071789330992,7.335714285714285L18.836432179024204,7.335714285714285L18.62214646473849,7.121428571428571L17.592139249547227,7.121428571428571L17.40714285714286,7.30642496383294L17.40714285714286,9.193575036167061L17.592139249547227,9.378571428571426L25.907860750452773,9.378571428571426L26.09285714285714,9.193575036167061L26.09285714285714,5.163567820975797L25.878571428571426,4.949282106690084L25.878571428571426,4.520710678118655L25.45,4.092139249547226z" stroke="none"/><path d="M27.03535533905933,2.9646446609406727L26.96464466094067,3.0353553390593273L26.76500360759563,2.8357142857142854L26.550717893309915,2.8357142857142854L26.336432179024204,2.6214285714285714L18.44928210669008,2.6214285714285714L18.23499639240437,2.8357142857142854L18.020710678118654,2.8357142857142854L17.80642496383294,3.05L16.5,3.05L16.5,2.95L17.76500360759563,2.95L17.979289321881346,2.7357142857142858L18.19357503616706,2.7357142857142858L18.407860750452773,2.521428571428572L26.37785353526151,2.521428571428572L26.592139249547223,2.7357142857142858L26.80642496383294,2.7357142857142858z" stroke="none"/><path d="M24,10.45L24,10.55L18.836432179024204,10.55L18.407860750452773,10.12142857142857L13.092139249547223,10.12142857142857L12.877853535261512,10.335714285714285L12.663567820975796,10.335714285714285L12.449282106690081,10.55L12,10.55L12,10.45L12.407860750452773,10.45L12.622146464738488,10.235714285714284L12.836432179024204,10.235714285714284L13.050717893309915,10.021428571428569L18.44928210669008,10.021428571428569L18.87785353526151,10.45z" stroke="none"/><path d="M13.5,9.05L13.5,8.95L15.449282106690081,8.95L15.663567820975796,9.164285714285715L15.877853535261512,9.164285714285715L16.092139249547223,9.378571428571426L16.94928210669008,9.378571428571426L17.163567820975796,9.592857142857142L23.37785353526151,9.592857142857142L23.592139249547223,9.807142857142857L24.020710678118654,9.807142857142857L24.23499639240437,10.021428571428569L24.44928210669008,10.021428571428569L24.663567820975796,10.235714285714284L24.87785353526151,10.235714285714284L25.092139249547223,10.45L25.5,10.45L25.5,10.55L25.050717893309915,10.55L24.836432179024204,10.335714285714285L24.62214646473849,10.335714285714285L24.407860750452773,10.12142857142857L24.19357503616706,10.12142857142857L23.979289321881346,9.907142857142858L23.550717893309915,9.907142857142858L23.336432179024204,9.692857142857143L17.12214646473849,9.692857142857143L16.907860750452773,9.478571428571428L16.050717893309915,9.478571428571428L15.836432179024204,9.264285714285716L15.622146464738488,9.264285714285716L15.407860750452773,9.05z" stroke="none"/></svg>