<svg version="1.1" width="30" height="15" xmlns="http://www.w3.org/2000/svg"><path d="M24.857142857142858,6.357860750452773L25.050717893309915,6.164285714285715L25.26500360759563,6.164285714285715L25.46464466094067,5.964644660940673L25.53535533905933,6.035355339059327L25.30642496383294,6.264285714285714L25.092139249547223,6.264285714285714L24.90714285714286,6.449282106690083L24.90714285714286,6.622146464738488L25.12142857142857,6.836432179024202L25.12142857142857,7.050717893309916L25.335714285714285,7.265003607595631L25.335714285714285,7.479289321881345L25.55,7.69357503616706L25.55,9L25.45,9L25.45,7.734996392404369L25.235714285714284,7.520710678118655L25.235714285714284,7.30642496383294L25.02142857142857,7.092139249547226L25.02142857142857,6.8778535352615116L24.807142857142857,6.663567820975797L24.807142857142857,6.449282106690083L24.59285714285714,6.234996392404369L24.59285714285714,6.020710678118655L24.378571428571426,5.80642496383294L24.378571428571426,5.592139249547226L23.95,5.163567820975797L23.95,4.5L24.05,4.5L24.05,5.122146464738488L24.478571428571428,5.550717893309916L24.478571428571428,5.765003607595631L24.692857142857143,5.979289321881345L24.692857142857143,6.19357503616706z" stroke="none"/><path d="M17.12214646473849,8.092857142857142L17.55071789330992,7.664285714285715L17.76500360759563,7.664285714285715L17.96464466094067,7.464644660940673L18.03535533905933,7.535355339059327L17.80642496383294,7.764285714285714L17.592139249547227,7.764285714285714L17.163567820975796,8.192857142857143L12.020710678118654,8.192857142857143L11.62142857142857,8.592139249547223L11.62142857142857,9.836432179024204L11.835714285714285,10.050717893309915L11.835714285714285,10.26500360759563L12.035355339059327,10.464644660940673L11.964644660940673,10.535355339059327L11.735714285714284,10.306424963832939L11.735714285714284,10.092139249547223L11.521428571428569,9.877853535261512L11.521428571428569,8.550717893309915L11.879289321881345,8.192857142857143L8.76500360759563,8.192857142857143L6.836432179024202,6.264285714285714L6.19357503616706,6.264285714285714L5.964644660940673,6.035355339059327L6.035355339059327,5.964644660940673L6.234996392404369,6.164285714285715L6.8778535352615116,6.164285714285715L8.806424963832939,8.092857142857142z" stroke="none"/><path d="M9.449282106690081,4.45L10.26500360759563,4.45L10.693575036167061,4.021428571428571L10.907860750452773,4.021428571428571L11.122146464738488,3.8071428571428574L11.979289321881346,3.8071428571428574L12.407860750452773,3.3785714285714286L13.050717893309915,3.3785714285714286L13.464644660940673,2.9646446609406727L13.535355339059327,3.0353553390593273L13.092139249547223,3.478571428571428L12.449282106690081,3.478571428571428L12.020710678118654,3.907142857142857L11.163567820975796,3.907142857142857L10.949282106690081,4.121428571428571L10.73499639240437,4.121428571428571L10.306424963832939,4.55L9.549282106690082,4.55L11.407142857142858,6.407860750452773L11.407142857142858,6.622146464738488L11.835714285714285,7.050717893309916L11.835714285714285,7.265003607595631L12.035355339059327,7.464644660940673L11.964644660940673,7.535355339059327L11.735714285714284,7.30642496383294L11.735714285714284,7.092139249547226L11.307142857142857,6.663567820975797L11.307142857142857,6.449282106690083L8.550717893309915,3.6928571428571426L8.336432179024204,3.6928571428571426L8.122146464738488,3.478571428571428L3.622146464738488,3.478571428571428L3.4078607504527736,3.2642857142857142L3.1935750361670596,3.2642857142857142L2.9646446609406727,3.0353553390593273L3.0353553390593273,2.9646446609406727L3.234996392404369,3.1642857142857146L3.449282106690083,3.1642857142857146L3.6635678209757976,3.3785714285714286L8.163567820975796,3.3785714285714286L8.377853535261512,3.592857142857143L8.592139249547223,3.592857142857143z" stroke="none"/><path d="M17.95,9.807142857142857L17.95,9.622146464738488L18.19357503616706,9.378571428571426L22.94928210669008,9.378571428571426L23.163567820975796,9.592857142857142L24.020710678118654,9.592857142857142L24.478571428571428,10.050717893309915L24.478571428571428,10.949282106690081L24.23499639240437,11.192857142857143L23.80642496383294,11.192857142857143L23.163567820975796,11.835714285714285L22.73499639240437,11.835714285714285L22.53535533905933,12.035355339059327L22.46464466094067,11.964644660940673L22.69357503616706,11.735714285714284L23.12214646473849,11.735714285714284L23.76500360759563,11.092857142857142L24.19357503616706,11.092857142857142L24.378571428571426,10.907860750452773L24.378571428571426,10.092139249547223L23.979289321881346,9.692857142857143L23.12214646473849,9.692857142857143L22.907860750452773,9.478571428571428L18.23499639240437,9.478571428571428L18.05,9.663567820975796L18.05,9.807142857142857L18.663567820975796,9.807142857142857L19.30642496383294,10.45L21,10.45L21,10.55L19.26500360759563,10.55L18.62214646473849,9.907142857142858L18.05,9.907142857142858L18.05,10.5L17.95,10.5L17.95,9.907142857142858L17.76500360759563,9.907142857142858L17.521428571428572,9.663567820975796L17.521428571428572,8.550717893309915L17.76500360759563,8.307142857142857L17.979289321881346,8.307142857142857L18.378571428571426,7.907860750452773L18.378571428571426,7.092139249547226L18.19357503616706,6.907142857142857L18.020710678118654,6.907142857142857L17.80642496383294,7.121428571428571L17.592139249547227,7.121428571428571L16.94928210669008,7.764285714285714L16.73499639240437,7.764285714285714L16.520710678118654,7.978571428571428L11.122146464738488,7.978571428571428L10.907860750452773,7.764285714285714L10.693575036167061,7.764285714285714L10.464644660940673,7.535355339059327L10.535355339059327,7.464644660940673L10.73499639240437,7.664285714285715L10.949282106690081,7.664285714285715L11.163567820975796,7.878571428571428L16.479289321881346,7.878571428571428L16.69357503616706,7.664285714285715L16.907860750452773,7.664285714285715L17.55071789330992,7.021428571428571L17.76500360759563,7.021428571428571L17.979289321881346,6.807142857142857L18.23499639240437,6.807142857142857L18.478571428571428,7.050717893309916L18.478571428571428,7.949282106690083L18.020710678118654,8.407142857142858L17.80642496383294,8.407142857142858L17.621428571428574,8.592139249547223L17.621428571428574,9.622146464738488L17.80642496383294,9.807142857142857z" stroke="none"/><path d="M19.664285714285715,11.092857142857142L19.664285714285715,10.949282106690081L19.479289321881346,10.764285714285716L18.663567820975796,10.764285714285716L18.44928210669008,10.978571428571428L17.163567820975796,10.978571428571428L16.94928210669008,11.192857142857143L15.020710678118654,11.192857142857143L14.806424963832939,11.407142857142858L14.592139249547223,11.407142857142858L14.163567820975796,11.835714285714285L13.949282106690081,11.835714285714285L13.73499639240437,12.05L13.5,12.05L13.5,11.95L13.693575036167061,11.95L13.907860750452773,11.735714285714284L14.122146464738488,11.735714285714284L14.550717893309915,11.307142857142857L14.76500360759563,11.307142857142857L14.979289321881346,11.092857142857142L16.907860750452773,11.092857142857142L17.12214646473849,10.878571428571426L18.407860750452773,10.878571428571426L18.62214646473849,10.664285714285715L19.520710678118654,10.664285714285715L19.764285714285716,10.907860750452773L19.764285714285716,11.092857142857142L22.05071789330992,11.092857142857142L22.26500360759563,10.878571428571426L22.907860750452773,10.878571428571426L23.336432179024204,10.45L24,10.45L24,10.55L23.37785353526151,10.55L22.94928210669008,10.978571428571428L22.30642496383294,10.978571428571428L22.092139249547227,11.192857142857143L19.764285714285716,11.192857142857143L19.764285714285716,11.336432179024204L19.94928210669008,11.521428571428569L20.163567820975796,11.521428571428569L20.592139249547227,11.95L21.44928210669008,11.95L21.87785353526151,12.378571428571426L22.907860750452773,12.378571428571426L23.76500360759563,11.521428571428569L23.979289321881346,11.521428571428569L24.19357503616706,11.307142857142857L24.407860750452773,11.307142857142857L25.26500360759563,10.45L25.5,10.45L25.5,10.55L25.30642496383294,10.55L24.44928210669008,11.407142857142858L24.23499639240437,11.407142857142858L24.020710678118654,11.62142857142857L23.80642496383294,11.62142857142857L22.94928210669008,12.478571428571428L21.836432179024204,12.478571428571428L21.407860750452773,12.05L20.55071789330992,12.05L20.12214646473849,11.62142857142857L19.907860750452773,11.62142857142857L19.664285714285715,11.377853535261512L19.664285714285715,11.192857142857143L19.520710678118654,11.192857142857143L19.30642496383294,11.407142857142858L18.87785353526151,11.407142857142858L18.663567820975796,11.62142857142857L17.37785353526151,11.62142857142857L17.163567820975796,11.835714285714285L16.73499639240437,11.835714285714285L16.53535533905933,12.035355339059327L16.46464466094067,11.964644660940673L16.69357503616706,11.735714285714284L17.12214646473849,11.735714285714284L17.336432179024204,11.521428571428569L18.62214646473849,11.521428571428569L18.836432179024204,11.307142857142857L19.26500360759563,11.307142857142857L19.479289321881346,11.092857142857142z" stroke="none"/><path d="M19.45,4.664285714285715L19.45,4.520710678118655L19.26500360759563,4.335714285714285L14.806424963832939,4.335714285714285L14.62142857142857,4.520710678118655L14.62142857142857,5.80642496383294L14.407142857142858,6.020710678118655L14.407142857142858,6.234996392404369L13.764285714285716,6.8778535352615116L13.764285714285716,7.092139249547226L13.55,7.30642496383294L13.55,7.5L13.45,7.5L13.45,7.265003607595631L13.664285714285715,7.050717893309916L13.664285714285715,6.836432179024202L14.307142857142857,6.19357503616706L14.307142857142857,5.979289321881345L14.521428571428569,5.765003607595631L14.521428571428569,4.479289321881345L14.76500360759563,4.235714285714286L19.30642496383294,4.235714285714286L19.55,4.479289321881345L19.55,4.664285714285715L19.69357503616706,4.664285714285715L20.12214646473849,4.235714285714286L20.336432179024204,4.235714285714286L20.979289321881346,3.592857142857143L21.19357503616706,3.592857142857143L21.62214646473849,3.1642857142857146L23.336432179024204,3.1642857142857146L23.550717893309915,2.95L24,2.95L24,3.05L23.592139249547223,3.05L23.37785353526151,3.2642857142857142L21.663567820975796,3.2642857142857142L21.23499639240437,3.6928571428571426L21.020710678118654,3.6928571428571426L20.37785353526151,4.335714285714285L20.163567820975796,4.335714285714285L19.73499639240437,4.764285714285714L19.55,4.764285714285714L19.55,4.907860750452774L19.73499639240437,5.0928571428571425L20.55071789330992,5.0928571428571425L20.76500360759563,4.878571428571429L21.407860750452773,4.878571428571429L21.807142857142857,4.479289321881345L21.807142857142857,4.265003607595631L22.05071789330992,4.021428571428571L24.87785353526151,4.021428571428571L25.092139249547223,4.235714285714286L25.30642496383294,4.235714285714286L25.53535533905933,4.464644660940673L25.46464466094067,4.535355339059327L25.26500360759563,4.335714285714285L25.050717893309915,4.335714285714285L24.836432179024204,4.121428571428571L22.092139249547227,4.121428571428571L21.90714285714286,4.30642496383294L21.90714285714286,4.520710678118655L21.44928210669008,4.978571428571429L20.80642496383294,4.978571428571429L20.592139249547227,5.192857142857142L19.69357503616706,5.192857142857142L19.45,4.949282106690084L19.45,4.764285714285714L15.622146464738488,4.764285714285714L15.407860750452773,4.55L15,4.55L15,4.45L15.449282106690081,4.45L15.663567820975796,4.664285714285715z" stroke="none"/><path d="M27.05,9L26.95,9L26.95,7.5L27.05,7.5z" stroke="none"/><path d="M23.95,7.5L24.05,7.5L24.05,9L23.95,9z" stroke="none"/><path d="M7.55,10.5L7.45,10.5L7.45,9L7.55,9z" stroke="none"/><path d="M20.96464466094067,5.964644660940673L21.03535533905933,6.035355339059327L19.53535533905933,7.535355339059327L19.46464466094067,7.464644660940673z" stroke="none"/><path d="M7.535355339059327,12.035355339059327L7.464644660940673,11.964644660940673L8.964644660940673,10.464644660940673L9.035355339059327,10.535355339059327z" stroke="none"/><path d="M10.5,10.55L10.5,10.45L11.163567820975796,10.45L11.592139249547223,10.878571428571426L12.407860750452773,10.878571428571426L12.592857142857142,10.693575036167061L12.592857142857142,9.877853535261512L12.164285714285715,9.449282106690081L12.164285714285715,9.23499639240437L11.964644660940673,9.035355339059327L12.035355339059327,8.964644660940673L12.264285714285716,9.193575036167061L12.264285714285716,9.407860750452773L12.692857142857143,9.836432179024204L12.692857142857143,10.73499639240437L12.449282106690081,10.978571428571428L11.550717893309915,10.978571428571428L11.122146464738488,10.55z" stroke="none"/><path d="M4.5,2.95L4.5,3.05L4.050717893309916,3.05L3.622146464738488,2.6214285714285714L2.5921392495472264,2.6214285714285714L2.407142857142857,2.8064249638329404L2.407142857142857,3.1935750361670596L2.6214285714285714,3.4078607504527736L2.6214285714285714,3.622146464738488L2.8357142857142854,3.8364321790242024L2.8357142857142854,4.265003607595631L3.0353553390593273,4.464644660940673L2.9646446609406727,4.535355339059327L2.7357142857142858,4.30642496383294L2.7357142857142858,3.877853535261512L2.521428571428572,3.6635678209757976L2.521428571428572,3.449282106690083L2.3071428571428574,3.234996392404369L2.3071428571428574,2.765003607595631L2.550717893309917,2.521428571428572L3.6635678209757976,2.521428571428572L4.092139249547226,2.95z" stroke="none"/><path d="M4.535355339059327,10.464644660940673L4.464644660940673,10.535355339059327L2.9646446609406727,9.035355339059327L3.0353553390593273,8.964644660940673z" stroke="none"/><path d="M9,2.95L9,3.05L6,3.05L6,2.95z" stroke="none"/><path d="M18,11.95L18,12.05L17.592139249547227,12.05L17.37785353526151,12.264285714285716L17.163567820975796,12.264285714285716L16.94928210669008,12.478571428571428L15.407860750452773,12.478571428571428L14.964644660940673,12.035355339059327L15.035355339059327,11.964644660940673L15.449282106690081,12.378571428571426L16.907860750452773,12.378571428571426L17.12214646473849,12.164285714285715L17.336432179024204,12.164285714285715L17.55071789330992,11.95z" stroke="none"/><path d="M21.03535533905933,4.535355339059327L20.96464466094067,4.464644660940673L21.62214646473849,3.8071428571428574L25.73499639240437,3.8071428571428574L25.978571428571428,4.050717893309916L25.978571428571428,9.449282106690081L25.73499639240437,9.692857142857143L24.407860750452773,9.692857142857143L24.19357503616706,9.478571428571428L23.550717893309915,9.478571428571428L22.878571428571426,8.806424963832939L22.878571428571426,8.163567820975796L22.45,7.734996392404369L22.45,7.5L22.55,7.5L22.55,7.69357503616706L22.978571428571428,8.122146464738488L22.978571428571428,8.76500360759563L23.592139249547223,9.378571428571426L24.23499639240437,9.378571428571426L24.44928210669008,9.592857142857142L25.69357503616706,9.592857142857142L25.878571428571426,9.407860750452773L25.878571428571426,4.092139249547226L25.69357503616706,3.907142857142857L21.663567820975796,3.907142857142857z" stroke="none"/><path d="M2.9646446609406727,10.535355339059327L3.0353553390593273,10.464644660940673L3.234996392404369,10.664285714285715L3.449282106690083,10.664285714285715L3.6635678209757976,10.878571428571426L3.877853535261512,10.878571428571426L4.734996392404369,11.735714285714284L5.3778535352615116,11.735714285714284L5.592139249547226,11.95L6,11.95L6,12.05L5.550717893309916,12.05L5.336432179024202,11.835714285714285L4.69357503616706,11.835714285714285L3.8364321790242024,10.978571428571428L3.622146464738488,10.978571428571428L3.4078607504527736,10.764285714285716L3.1935750361670596,10.764285714285716z" stroke="none"/><path d="M6,7.45L6,7.55L5.336432179024202,7.55L4.69357503616706,6.907142857142857L4.265003607595631,6.907142857142857L4.050717893309916,6.692857142857142L3.622146464738488,6.692857142857142L2.9646446609406727,6.035355339059327L3.0353553390593273,5.964644660940673L3.6635678209757976,6.5928571428571425L4.092139249547226,6.5928571428571425L4.30642496383294,6.807142857142857L4.734996392404369,6.807142857142857L5.3778535352615116,7.45z" stroke="none"/><path d="M22.46464466094067,4.464644660940673L22.53535533905933,4.535355339059327L22.30642496383294,4.764285714285714L22.092139249547227,4.764285714285714L21.663567820975796,5.192857142857142L21.44928210669008,5.192857142857142L21.23499639240437,5.407142857142857L20.80642496383294,5.407142857142857L20.37785353526151,5.835714285714285L19.94928210669008,5.835714285714285L19.73499639240437,6.05L19.5,6.05L19.5,5.95L19.69357503616706,5.95L19.907860750452773,5.735714285714286L20.336432179024204,5.735714285714286L20.76500360759563,5.307142857142857L21.19357503616706,5.307142857142857L21.407860750452773,5.0928571428571425L21.62214646473849,5.0928571428571425L22.05071789330992,4.664285714285715L22.26500360759563,4.664285714285715z" stroke="none"/><path d="M15,7.55L15,7.45L16.26500360759563,7.45L16.907860750452773,6.807142857142857L17.55071789330992,6.807142857142857L17.76500360759563,6.5928571428571425L18.44928210669008,6.5928571428571425L18.692857142857143,6.836432179024202L18.692857142857143,8.163567820975796L18.264285714285716,8.592139249547223L18.264285714285716,8.806424963832939L18.03535533905933,9.035355339059327L17.96464466094067,8.964644660940673L18.164285714285715,8.76500360759563L18.164285714285715,8.550717893309915L18.59285714285714,8.122146464738488L18.59285714285714,6.8778535352615116L18.407860750452773,6.692857142857142L17.80642496383294,6.692857142857142L17.592139249547227,6.907142857142857L16.94928210669008,6.907142857142857L16.30642496383294,7.55z" stroke="none"/><path d="M10.5,12.05L10.5,11.95L10.907860750452773,11.95L11.550717893309915,11.307142857142857L11.76500360759563,11.307142857142857L11.979289321881346,11.092857142857142L12.622146464738488,11.092857142857142L12.807142857142857,10.907860750452773L12.807142857142857,10.479289321881346L13.021428571428569,10.26500360759563L13.021428571428569,9.836432179024204L13.235714285714284,9.622146464738488L13.235714285714284,9.407860750452773L13.45,9.193575036167061L13.45,9L13.55,9L13.55,9.23499639240437L13.335714285714285,9.449282106690081L13.335714285714285,9.663567820975796L13.12142857142857,9.877853535261512L13.12142857142857,10.306424963832939L12.907142857142858,10.520710678118654L12.907142857142858,10.949282106690081L12.663567820975796,11.192857142857143L12.020710678118654,11.192857142857143L11.806424963832939,11.407142857142858L11.592139249547223,11.407142857142858L10.949282106690081,12.05z" stroke="none"/><path d="M24,5.95L24,6.05L23.80642496383294,6.05L23.592139249547223,6.264285714285714L23.37785353526151,6.264285714285714L22.94928210669008,6.692857142857142L22.520710678118654,6.692857142857142L21.264285714285716,7.949282106690083L21.264285714285716,8.592139249547223L21.05,8.806424963832939L21.05,9L20.95,9L20.95,8.76500360759563L21.164285714285715,8.550717893309915L21.164285714285715,7.907860750452773L22.479289321881346,6.5928571428571425L22.907860750452773,6.5928571428571425L23.336432179024204,6.164285714285715L23.550717893309915,6.164285714285715L23.76500360759563,5.95z" stroke="none"/><path d="M5.964644660940673,4.464644660940673L6.035355339059327,4.535355339059327L5.835714285714285,4.734996392404369L5.835714285714285,5.3778535352615116L5.621428571428571,5.592139249547226L5.621428571428571,6.407860750452773L5.80642496383294,6.5928571428571425L6.020710678118655,6.5928571428571425L6.478571428571428,7.050717893309916L6.478571428571428,8.163567820975796L6.264285714285714,8.377853535261512L6.264285714285714,8.806424963832939L6.035355339059327,9.035355339059327L5.964644660940673,8.964644660940673L6.164285714285715,8.76500360759563L6.164285714285715,8.336432179024204L6.378571428571428,8.122146464738488L6.378571428571428,7.092139249547226L5.979289321881345,6.692857142857142L5.765003607595631,6.692857142857142L5.521428571428571,6.449282106690083L5.521428571428571,5.550717893309916L5.735714285714286,5.336432179024202L5.735714285714286,4.69357503616706z" stroke="none"/><path d="M7.5,4.45L7.5,4.55L7.050717893309916,4.55L6.622146464738488,4.121428571428571L5.592139249547226,4.121428571428571L5.163567820975797,4.55L4.949282106690084,4.55L4.520710678118655,4.978571428571429L2.550717893309917,4.978571428571429L2.3071428571428574,4.734996392404369L2.3071428571428574,3.6635678209757976L2.092857142857143,3.449282106690083L2.092857142857143,2.550717893309917L2.3364321790242024,2.3071428571428574L11.163567820975796,2.3071428571428574L11.377853535261512,2.521428571428572L11.592139249547223,2.521428571428572L12.035355339059327,2.9646446609406727L11.964644660940673,3.0353553390593273L11.550717893309915,2.6214285714285714L11.336432179024204,2.6214285714285714L11.122146464738488,2.407142857142857L2.377853535261512,2.407142857142857L2.1928571428571426,2.5921392495472264L2.1928571428571426,3.4078607504527736L2.407142857142857,3.622146464738488L2.407142857142857,4.69357503616706L2.5921392495472264,4.878571428571429L4.479289321881345,4.878571428571429L4.907860750452774,4.45L5.122146464738488,4.45L5.550717893309916,4.021428571428571L6.663567820975797,4.021428571428571L7.092139249547226,4.45z" stroke="none"/><path d="M13.55,4.5L13.45,4.5L13.45,4.050717893309916L13.664285714285715,3.8364321790242024L13.664285714285715,3.622146464738488L13.878571428571426,3.4078607504527736L13.878571428571426,2.5921392495472264L13.693575036167061,2.407142857142857L11.76500360759563,2.407142857142857L11.550717893309915,2.1928571428571426L2.1635678209757976,2.1928571428571426L1.9785714285714286,2.377853535261512L1.9785714285714286,3.8364321790242024L2.1928571428571426,4.050717893309916L2.1928571428571426,5.122146464738488L2.407142857142857,5.336432179024202L2.407142857142857,5.765003607595631L2.6214285714285714,5.979289321881345L2.6214285714285714,6.407860750452773L3.020710678118655,6.807142857142857L3.234996392404369,6.807142857142857L5.407142857142857,8.979289321881346L5.407142857142857,9.193575036167061L5.592139249547226,9.378571428571426L6.407860750452773,9.378571428571426L6.807142857142857,8.979289321881346L6.807142857142857,8.76500360759563L7.050717893309916,8.521428571428569L8.163567820975796,8.521428571428569L8.377853535261512,8.735714285714284L8.592139249547223,8.735714285714284L8.806424963832939,8.95L9,8.95L9,9.05L8.76500360759563,9.05L8.550717893309915,8.835714285714285L8.336432179024204,8.835714285714285L8.122146464738488,8.62142857142857L7.092139249547226,8.62142857142857L6.907142857142857,8.806424963832939L6.907142857142857,9.020710678118654L6.449282106690083,9.478571428571428L5.550717893309916,9.478571428571428L5.307142857142857,9.23499639240437L5.307142857142857,9.020710678118654L3.1935750361670596,6.907142857142857L2.979289321881345,6.907142857142857L2.521428571428572,6.449282106690083L2.521428571428572,6.020710678118655L2.3071428571428574,5.80642496383294L2.3071428571428574,5.3778535352615116L2.092857142857143,5.163567820975797L2.092857142857143,4.092139249547226L1.8785714285714286,3.877853535261512L1.8785714285714286,2.3364321790242024L2.122146464738488,2.092857142857143L11.592139249547223,2.092857142857143L11.806424963832939,2.3071428571428574L13.73499639240437,2.3071428571428574L13.978571428571428,2.550717893309917L13.978571428571428,3.449282106690083L13.764285714285716,3.6635678209757976L13.764285714285716,3.877853535261512L13.55,4.092139249547226z" stroke="none"/><path d="M11.964644660940673,4.535355339059327L12.035355339059327,4.464644660940673L12.23499639240437,4.664285714285715L12.449282106690081,4.664285714285715L12.663567820975796,4.878571428571429L13.907860750452773,4.878571428571429L14.092857142857142,4.69357503616706L14.092857142857142,2.377853535261512L13.907860750452773,2.1928571428571426L12.407860750452773,2.1928571428571426L12.193575036167061,1.9785714285714286L1.9492821066900834,1.9785714285714286L1.7642857142857145,2.1635678209757976L1.7642857142857145,5.336432179024202L1.9785714285714286,5.550717893309916L1.9785714285714286,5.765003607595631L2.407142857142857,6.19357503616706L2.407142857142857,6.622146464738488L2.8357142857142854,7.050717893309916L2.8357142857142854,7.265003607595631L3.0353553390593273,7.464644660940673L2.9646446609406727,7.535355339059327L2.7357142857142858,7.30642496383294L2.7357142857142858,7.092139249547226L2.3071428571428574,6.663567820975797L2.3071428571428574,6.234996392404369L1.8785714285714286,5.80642496383294L1.8785714285714286,5.592139249547226L1.6642857142857144,5.3778535352615116L1.6642857142857144,2.122146464738488L1.9078607504527738,1.8785714285714286L12.23499639240437,1.8785714285714286L12.449282106690081,2.092857142857143L13.949282106690081,2.092857142857143L14.192857142857143,2.3364321790242024L14.192857142857143,4.734996392404369L13.949282106690081,4.978571428571429L12.622146464738488,4.978571428571429L12.407860750452773,4.764285714285714L12.193575036167061,4.764285714285714z" stroke="none"/><path d="M5.95,10.5L6.05,10.5L6.05,11.122146464738488L6.478571428571428,11.550717893309915L6.478571428571428,11.76500360759563L7.092139249547226,12.378571428571426L11.550717893309915,12.378571428571426L12.622146464738488,11.307142857142857L12.836432179024204,11.307142857142857L14.550717893309915,9.592857142857142L14.76500360759563,9.592857142857142L14.979289321881346,9.378571428571426L15.193575036167061,9.378571428571426L15.407860750452773,9.164285714285715L16.050717893309915,9.164285714285715L16.26500360759563,8.95L16.5,8.95L16.5,9.05L16.30642496383294,9.05L16.092139249547223,9.264285714285716L15.449282106690081,9.264285714285716L15.23499639240437,9.478571428571428L15.020710678118654,9.478571428571428L14.806424963832939,9.692857142857143L14.592139249547223,9.692857142857143L12.877853535261512,11.407142857142858L12.663567820975796,11.407142857142858L11.592139249547223,12.478571428571428L7.050717893309916,12.478571428571428L6.378571428571428,11.806424963832939L6.378571428571428,11.592139249547223L5.95,11.163567820975796z" stroke="none"/><path d="M16.5,3.05L16.5,2.95L22.907860750452773,2.95L23.12214646473849,2.7357142857142858L23.336432179024204,2.7357142857142858L23.550717893309915,2.521428571428572L24.44928210669008,2.521428571428572L25.30642496383294,3.3785714285714286L25.73499639240437,3.3785714285714286L26.192857142857143,3.8364321790242024L26.192857142857143,4.479289321881345L26.62142857142857,4.907860750452774L26.62142857142857,5.122146464738488L26.835714285714285,5.336432179024202L26.835714285714285,5.550717893309916L27.05,5.765003607595631L27.05,6L26.95,6L26.95,5.80642496383294L26.735714285714284,5.592139249547226L26.735714285714284,5.3778535352615116L26.52142857142857,5.163567820975797L26.52142857142857,4.949282106690084L26.09285714285714,4.520710678118655L26.09285714285714,3.877853535261512L25.69357503616706,3.478571428571428L25.26500360759563,3.478571428571428L24.407860750452773,2.6214285714285714L23.592139249547223,2.6214285714285714L23.37785353526151,2.8357142857142854L23.163567820975796,2.8357142857142854L22.94928210669008,3.05z" stroke="none"/><path d="M4.5,8.95L4.5,9.05L4.050717893309916,9.05L3.622146464738488,8.62142857142857L2.5921392495472264,8.62142857142857L2.407142857142857,8.806424963832939L2.407142857142857,10.26500360759563L2.6214285714285714,10.479289321881346L2.6214285714285714,10.907860750452773L3.6635678209757976,11.95L5.163567820975797,11.95L5.592139249547226,12.378571428571426L6.449282106690083,12.378571428571426L6.663567820975797,12.592857142857142L11.76500360759563,12.592857142857142L12.836432179024204,11.521428571428569L13.907860750452773,11.521428571428569L14.336432179024204,11.092857142857142L14.550717893309915,11.092857142857142L14.76500360759563,10.878571428571426L15.836432179024204,10.878571428571426L16.050717893309915,10.664285714285715L16.26500360759563,10.664285714285715L16.46464466094067,10.464644660940673L16.53535533905933,10.535355339059327L16.30642496383294,10.764285714285716L16.092139249547223,10.764285714285716L15.877853535261512,10.978571428571428L14.806424963832939,10.978571428571428L14.592139249547223,11.192857142857143L14.377853535261512,11.192857142857143L13.949282106690081,11.62142857142857L12.877853535261512,11.62142857142857L11.806424963832939,12.692857142857143L6.622146464738488,12.692857142857143L6.407860750452773,12.478571428571428L5.550717893309916,12.478571428571428L5.122146464738488,12.05L3.622146464738488,12.05L2.521428571428572,10.949282106690081L2.521428571428572,10.520710678118654L2.3071428571428574,10.306424963832939L2.3071428571428574,8.76500360759563L2.550717893309917,8.521428571428569L3.6635678209757976,8.521428571428569L4.092139249547226,8.95z" stroke="none"/></svg>