<svg version="1.1" width="30" height="15" xmlns="http://www.w3.org/2000/svg"><path d="M8.122146464738488,7.45L8.550717893309915,7.021428571428571L11.377853535261512,7.021428571428571L11.592139249547223,7.235714285714286L13.092139249547223,7.235714285714286L13.306424963832939,7.45L13.5,7.45L13.5,7.55L13.26500360759563,7.55L13.050717893309915,7.335714285714285L11.550717893309915,7.335714285714285L11.336432179024204,7.121428571428571L8.592139249547223,7.121428571428571L8.192857142857143,7.520710678118655L8.192857142857143,7.734996392404369L7.949282106690083,7.978571428571428L3.622146464738488,7.978571428571428L3.1935750361670596,7.55L3,7.55L3,7.45L3.234996392404369,7.45L3.6635678209757976,7.878571428571428L7.907860750452773,7.878571428571428L8.092857142857142,7.69357503616706L8.092857142857142,7.55L7.5,7.55L7.5,7.45z" stroke="none"/><path d="M12.807142857142857,3.3785714285714286L12.807142857142857,3.234996392404369L12.407860750452773,2.8357142857142854L10.306424963832939,2.8357142857142854L10.092139249547223,3.05L7.5,3.05L7.5,2.95L10.050717893309915,2.95L10.26500360759563,2.7357142857142858L12.449282106690081,2.7357142857142858L12.907142857142858,3.1935750361670596L12.907142857142858,3.3785714285714286L15.407860750452773,3.3785714285714286L15.836432179024204,2.95L16.26500360759563,2.95L16.479289321881346,2.7357142857142858L17.336432179024204,2.7357142857142858L17.55071789330992,2.521428571428572L19.94928210669008,2.521428571428572L20.192857142857143,2.765003607595631L20.192857142857143,3.6635678209757976L19.764285714285716,4.092139249547226L19.764285714285716,4.30642496383294L19.53535533905933,4.535355339059327L19.46464466094067,4.464644660940673L19.664285714285715,4.265003607595631L19.664285714285715,4.050717893309916L20.09285714285714,3.622146464738488L20.09285714285714,2.8064249638329404L19.907860750452773,2.6214285714285714L17.592139249547227,2.6214285714285714L17.37785353526151,2.8357142857142854L16.520710678118654,2.8357142857142854L16.30642496383294,3.05L15.877853535261512,3.05L15.449282106690081,3.478571428571428L12.622146464738488,3.478571428571428L12.193575036167061,3.05L12,3.05L12,2.95L12.23499639240437,2.95L12.663567820975796,3.3785714285714286z" stroke="none"/><path d="M18.59285714285714,4.265003607595631L18.59285714285714,4.050717893309916L19.235714285714284,3.4078607504527736L19.235714285714284,3.1935750361670596L19.46464466094067,2.9646446609406727L19.53535533905933,3.0353553390593273L19.335714285714285,3.234996392404369L19.335714285714285,3.449282106690083L18.692857142857143,4.092139249547226L18.692857142857143,4.30642496383294L18.49928210669008,4.5L18.663567820975796,4.664285714285715L18.87785353526151,4.664285714285715L19.092139249547227,4.878571428571429L20.12214646473849,4.878571428571429L20.55071789330992,4.45L21,4.45L21,4.55L20.592139249547227,4.55L20.163567820975796,4.978571428571429L19.05071789330992,4.978571428571429L18.836432179024204,4.764285714285714L18.62214646473849,4.764285714285714L18.428571428571427,4.570710678118655L18.020710678118654,4.978571428571429L17.592139249547227,4.978571428571429L17.37785353526151,5.192857142857142L16.520710678118654,5.192857142857142L16.30642496383294,5.407142857142857L15.663567820975796,5.407142857142857L15.035355339059327,6.035355339059327L14.964644660940673,5.964644660940673L15.622146464738488,5.307142857142857L16.26500360759563,5.307142857142857L16.479289321881346,5.0928571428571425L17.336432179024204,5.0928571428571425L17.55071789330992,4.878571428571429L17.979289321881346,4.878571428571429z" stroke="none"/><path d="M9.164285714285715,9.592857142857142L9.164285714285715,7.949282106690083L8.95,7.734996392404369L8.95,7.5L9.05,7.5L9.05,7.69357503616706L9.264285714285716,7.907860750452773L9.264285714285716,9.592857142857142L9.449282106690081,9.592857142857142L9.692857142857143,9.836432179024204L9.692857142857143,10.092139249547223L9.478571428571428,10.306424963832939L9.478571428571428,10.520710678118654L9.23499639240437,10.764285714285716L8.806424963832939,10.764285714285716L8.377853535261512,11.192857142857143L7.949282106690083,11.192857142857143L7.734996392404369,11.407142857142858L7.30642496383294,11.407142857142858L7.121428571428571,11.592139249547223L7.121428571428571,12.407860750452773L7.30642496383294,12.592857142857142L11.76500360759563,12.592857142857142L11.979289321881346,12.378571428571426L12.407860750452773,12.378571428571426L12.836432179024204,11.95L13.693575036167061,11.95L14.336432179024204,11.307142857142857L14.550717893309915,11.307142857142857L14.76500360759563,11.092857142857142L15.193575036167061,11.092857142857142L15.378571428571426,10.907860750452773L15.378571428571426,10.092139249547223L15.164285714285715,9.877853535261512L15.164285714285715,9.23499639240437L14.964644660940673,9.035355339059327L15.035355339059327,8.964644660940673L15.264285714285716,9.193575036167061L15.264285714285716,9.836432179024204L15.478571428571428,10.050717893309915L15.478571428571428,10.949282106690081L15.23499639240437,11.192857142857143L14.806424963832939,11.192857142857143L14.592139249547223,11.407142857142858L14.377853535261512,11.407142857142858L13.73499639240437,12.05L12.877853535261512,12.05L12.449282106690081,12.478571428571428L12.020710678118654,12.478571428571428L11.806424963832939,12.692857142857143L7.265003607595631,12.692857142857143L7.021428571428571,12.449282106690081L7.021428571428571,11.550717893309915L7.265003607595631,11.307142857142857L7.69357503616706,11.307142857142857L7.907860750452773,11.092857142857142L8.336432179024204,11.092857142857142L8.76500360759563,10.664285714285715L9.193575036167061,10.664285714285715L9.378571428571426,10.479289321881346L9.378571428571426,10.26500360759563L9.592857142857142,10.050717893309915L9.592857142857142,9.877853535261512L9.407860750452773,9.692857142857143L9.264285714285716,9.692857142857143L9.264285714285716,10.306424963832939L9.035355339059327,10.535355339059327L8.964644660940673,10.464644660940673L9.164285714285715,10.26500360759563L9.164285714285715,9.692857142857143L9.020710678118654,9.692857142857143L8.592139249547223,10.12142857142857L8.377853535261512,10.12142857142857L8.163567820975796,10.335714285714285L7.949282106690083,10.335714285714285L7.734996392404369,10.55L7.520710678118655,10.55L7.092139249547226,10.978571428571428L6.8778535352615116,10.978571428571428L6.663567820975797,11.192857142857143L6.020710678118655,11.192857142857143L5.80642496383294,11.407142857142858L5.592139249547226,11.407142857142858L4.949282106690084,12.05L4.5,12.05L4.5,11.95L4.907860750452774,11.95L5.550717893309916,11.307142857142857L5.765003607595631,11.307142857142857L5.979289321881345,11.092857142857142L6.622146464738488,11.092857142857142L6.836432179024202,10.878571428571426L7.050717893309916,10.878571428571426L7.479289321881345,10.45L7.69357503616706,10.45L7.907860750452773,10.235714285714284L8.122146464738488,10.235714285714284L8.336432179024204,10.021428571428569L8.550717893309915,10.021428571428569L8.979289321881346,9.592857142857142z" stroke="none"/><path d="M10.021428571428569,9.622146464738488L10.021428571428569,9.407860750452773L10.26500360759563,9.164285714285715L10.693575036167061,9.164285714285715L11.122146464738488,8.735714285714284L12.622146464738488,8.735714285714284L12.836432179024204,8.521428571428569L13.050717893309915,8.521428571428569L13.26500360759563,8.307142857142857L13.479289321881346,8.307142857142857L13.878571428571426,7.907860750452773L13.878571428571426,7.092139249547226L13.693575036167061,6.907142857142857L7.092139249547226,6.907142857142857L6.8778535352615116,7.121428571428571L6.663567820975797,7.121428571428571L6.449282106690083,7.335714285714285L6.234996392404369,7.335714285714285L6.035355339059327,7.535355339059327L5.964644660940673,7.464644660940673L6.19357503616706,7.235714285714286L6.407860750452773,7.235714285714286L6.622146464738488,7.021428571428571L6.836432179024202,7.021428571428571L7.050717893309916,6.807142857142857L13.73499639240437,6.807142857142857L13.978571428571428,7.050717893309916L13.978571428571428,7.949282106690083L13.520710678118654,8.407142857142858L13.306424963832939,8.407142857142858L13.092139249547223,8.62142857142857L12.877853535261512,8.62142857142857L12.663567820975796,8.835714285714285L11.163567820975796,8.835714285714285L10.73499639240437,9.264285714285716L10.306424963832939,9.264285714285716L10.12142857142857,9.449282106690081L10.12142857142857,9.592857142857142L10.693575036167061,9.592857142857142L11.336432179024204,8.95L12,8.95L12,9.05L11.377853535261512,9.05L10.73499639240437,9.692857142857143L10.12142857142857,9.692857142857143L10.12142857142857,9.836432179024204L10.306424963832939,10.021428571428569L14.377853535261512,10.021428571428569L14.592139249547223,10.235714285714284L14.806424963832939,10.235714285714284L15.035355339059327,10.464644660940673L14.964644660940673,10.535355339059327L14.76500360759563,10.335714285714285L14.550717893309915,10.335714285714285L14.336432179024204,10.12142857142857L10.26500360759563,10.12142857142857L10.021428571428569,9.877853535261512L10.021428571428569,9.763567820975798L9.907142857142858,9.877853535261512L9.907142857142858,10.520710678118654L8.806424963832939,11.62142857142857L8.592139249547223,11.62142857142857L8.377853535261512,11.835714285714285L7.734996392404369,11.835714285714285L7.535355339059327,12.035355339059327L7.464644660940673,11.964644660940673L7.69357503616706,11.735714285714284L8.336432179024204,11.735714285714284L8.550717893309915,11.521428571428569L8.76500360759563,11.521428571428569L9.807142857142857,10.479289321881346L9.807142857142857,9.836432179024204z" stroke="none"/><path d="M13.664285714285715,5.879289321881346L13.664285714285715,5.592139249547226L12.836432179024204,4.764285714285714L12.622146464738488,4.764285714285714L12.193575036167061,4.335714285714285L10.949282106690081,4.335714285714285L10.73499639240437,4.55L10.5,4.55L10.5,4.45L10.693575036167061,4.45L10.907860750452773,4.235714285714286L12.23499639240437,4.235714285714286L12.663567820975796,4.664285714285715L12.877853535261512,4.664285714285715L13.764285714285716,5.550717893309916L13.764285714285716,5.95L14.163567820975796,5.95L14.592139249547223,6.378571428571428L16.73499639240437,6.378571428571428L16.94928210669008,6.5928571428571425L18.020710678118654,6.5928571428571425L18.23499639240437,6.807142857142857L18.87785353526151,6.807142857142857L19.092139249547227,7.021428571428571L19.520710678118654,7.021428571428571L19.73499639240437,7.235714285714286L20.163567820975796,7.235714285714286L20.37785353526151,7.45L20.592139249547227,7.45L21.663567820975796,8.521428571428569L21.87785353526151,8.521428571428569L22.092139249547227,8.735714285714284L22.30642496383294,8.735714285714284L22.53535533905933,8.964644660940673L22.46464466094067,9.035355339059327L22.26500360759563,8.835714285714285L22.05071789330992,8.835714285714285L21.836432179024204,8.62142857142857L21.62214646473849,8.62142857142857L20.55071789330992,7.55L20.336432179024204,7.55L20.12214646473849,7.335714285714285L19.69357503616706,7.335714285714285L19.479289321881346,7.121428571428571L19.05071789330992,7.121428571428571L18.836432179024204,6.907142857142857L18.19357503616706,6.907142857142857L17.979289321881346,6.692857142857142L16.907860750452773,6.692857142857142L16.69357503616706,6.478571428571428L14.550717893309915,6.478571428571428L14.122146464738488,6.05L13.520710678118654,6.05L13.306424963832939,6.264285714285714L12.663567820975796,6.264285714285714L12.449282106690081,6.478571428571428L11.122146464738488,6.478571428571428L10.907860750452773,6.264285714285714L10.693575036167061,6.264285714285714L10.464644660940673,6.035355339059327L10.535355339059327,5.964644660940673L10.73499639240437,6.164285714285715L10.949282106690081,6.164285714285715L11.163567820975796,6.378571428571428L12.407860750452773,6.378571428571428L12.622146464738488,6.164285714285715L13.26500360759563,6.164285714285715L13.479289321881346,5.95L13.59357503616706,5.95L13.479289321881346,5.835714285714285L13.26500360759563,5.835714285714285L11.964644660940673,4.535355339059327L12.035355339059327,4.464644660940673L13.306424963832939,5.735714285714286L13.520710678118654,5.735714285714286z" stroke="none"/><path d="M26.95,9L27.05,9L27.05,10.5L26.95,10.5z" stroke="none"/><path d="M19.5,9.05L19.5,8.95L21,8.95L21,9.05z" stroke="none"/><path d="M6,2.95L6,3.05L4.5,3.05L4.5,2.95z" stroke="none"/><path d="M12.05,12L11.95,12L11.95,10.5L12.05,10.5z" stroke="none"/><path d="M24.03535533905933,7.535355339059327L23.96464466094067,7.464644660940673L25.46464466094067,5.964644660940673L25.53535533905933,6.035355339059327z" stroke="none"/><path d="M25.53535533905933,4.535355339059327L25.46464466094067,4.464644660940673L26.96464466094067,2.9646446609406727L27.03535533905933,3.0353553390593273z" stroke="none"/><path d="M7.535355339059327,5.964644660940673L7.464644660940673,6.035355339059327L5.964644660940673,4.535355339059327L6.035355339059327,4.464644660940673z" stroke="none"/><path d="M21,10.55L21,10.45L24,10.45L24,10.55z" stroke="none"/><path d="M24,12.05L24,11.95L24.44928210669008,11.95L24.87785353526151,12.378571428571426L26.12214646473849,12.378571428571426L26.336432179024204,12.164285714285715L26.550717893309915,12.164285714285715L26.76500360759563,11.95L27,11.95L27,12.05L26.80642496383294,12.05L26.592139249547223,12.264285714285716L26.37785353526151,12.264285714285716L26.163567820975796,12.478571428571428L24.836432179024204,12.478571428571428L24.407860750452773,12.05z" stroke="none"/><path d="M22.46464466094067,4.464644660940673L22.53535533905933,4.535355339059327L22.30642496383294,4.764285714285714L22.092139249547227,4.764285714285714L21.87785353526151,4.978571428571429L21.663567820975796,4.978571428571429L20.80642496383294,5.835714285714285L20.163567820975796,5.835714285714285L19.94928210669008,6.05L19.5,6.05L19.5,5.95L19.907860750452773,5.95L20.12214646473849,5.735714285714286L20.76500360759563,5.735714285714286L21.62214646473849,4.878571428571429L21.836432179024204,4.878571428571429L22.05071789330992,4.664285714285715L22.26500360759563,4.664285714285715z" stroke="none"/><path d="M14.964644660940673,7.535355339059327L15.035355339059327,7.464644660940673L15.449282106690081,7.878571428571428L15.877853535261512,7.878571428571428L16.092139249547223,8.092857142857142L16.73499639240437,8.092857142857142L16.94928210669008,8.307142857142857L17.163567820975796,8.307142857142857L17.37785353526151,8.521428571428569L17.80642496383294,8.521428571428569L18.44928210669008,9.164285714285715L18.663567820975796,9.164285714285715L18.87785353526151,9.378571428571426L22.907860750452773,9.378571428571426L23.09285714285714,9.193575036167061L23.09285714285714,9.020710678118654L22.878571428571426,8.806424963832939L22.878571428571426,8.592139249547223L22.69357503616706,8.407142857142858L22.479289321881346,8.407142857142858L22.05071789330992,7.978571428571428L21.836432179024204,7.978571428571428L20.76500360759563,6.907142857142857L19.479289321881346,6.907142857142857L19.26500360759563,6.692857142857142L19.05071789330992,6.692857142857142L18.836432179024204,6.478571428571428L18.62214646473849,6.478571428571428L18.19357503616706,6.05L18,6.05L18,5.95L18.23499639240437,5.95L18.663567820975796,6.378571428571428L18.87785353526151,6.378571428571428L19.092139249547227,6.5928571428571425L19.30642496383294,6.5928571428571425L19.520710678118654,6.807142857142857L20.80642496383294,6.807142857142857L21.87785353526151,7.878571428571428L22.092139249547227,7.878571428571428L22.520710678118654,8.307142857142857L22.73499639240437,8.307142857142857L22.978571428571428,8.550717893309915L22.978571428571428,8.76500360759563L23.192857142857143,8.979289321881346L23.192857142857143,9.23499639240437L22.94928210669008,9.478571428571428L18.836432179024204,9.478571428571428L18.62214646473849,9.264285714285716L18.407860750452773,9.264285714285716L17.76500360759563,8.62142857142857L17.336432179024204,8.62142857142857L17.12214646473849,8.407142857142858L16.907860750452773,8.407142857142858L16.69357503616706,8.192857142857143L16.050717893309915,8.192857142857143L15.836432179024204,7.978571428571428L15.407860750452773,7.978571428571428z" stroke="none"/><path d="M26.96464466094067,7.464644660940673L27.03535533905933,7.535355339059327L26.80642496383294,7.764285714285714L26.592139249547223,7.764285714285714L26.37785353526151,7.978571428571428L26.163567820975796,7.978571428571428L25.94928210669008,8.192857142857143L25.30642496383294,8.192857142857143L25.092139249547223,8.407142857142858L24.87785353526151,8.407142857142858L24.23499639240437,9.05L24,9.05L24,8.95L24.19357503616706,8.95L24.836432179024204,8.307142857142857L25.050717893309915,8.307142857142857L25.26500360759563,8.092857142857142L25.907860750452773,8.092857142857142L26.12214646473849,7.878571428571428L26.336432179024204,7.878571428571428L26.550717893309915,7.664285714285715L26.76500360759563,7.664285714285715z" stroke="none"/><path d="M16.45,9L16.55,9L16.55,9.193575036167061L16.764285714285716,9.407860750452773L16.764285714285716,9.622146464738488L17.192857142857143,10.050717893309915L17.192857142857143,10.479289321881346L17.592139249547227,10.878571428571426L18.23499639240437,10.878571428571426L19.30642496383294,11.95L19.5,11.95L19.5,12.05L19.26500360759563,12.05L18.19357503616706,10.978571428571428L17.55071789330992,10.978571428571428L17.09285714285714,10.520710678118654L17.09285714285714,10.092139249547223L16.664285714285715,9.663567820975796L16.664285714285715,9.449282106690081L16.45,9.23499639240437z" stroke="none"/><path d="M25.5,11.95L25.5,12.05L25.050717893309915,12.05L24.62214646473849,11.62142857142857L23.37785353526151,11.62142857142857L23.163567820975796,11.835714285714285L21.44928210669008,11.835714285714285L21.23499639240437,12.05L21,12.05L21,11.95L21.19357503616706,11.95L21.407860750452773,11.735714285714284L23.12214646473849,11.735714285714284L23.336432179024204,11.521428571428569L24.663567820975796,11.521428571428569L25.092139249547223,11.95z" stroke="none"/><path d="M4.464644660940673,4.464644660940673L4.535355339059327,4.535355339059327L4.335714285714285,4.734996392404369L4.335714285714285,4.949282106690084L3.6928571428571426,5.592139249547226L3.6928571428571426,5.80642496383294L3.478571428571428,6.020710678118655L3.478571428571428,6.234996392404369L2.6214285714285714,7.092139249547226L2.6214285714285714,7.907860750452773L2.8064249638329404,8.092857142857142L5.80642496383294,8.092857142857142L6.234996392404369,8.521428571428569L6.663567820975797,8.521428571428569L6.8778535352615116,8.735714285714284L7.092139249547226,8.735714285714284L7.30642496383294,8.95L7.5,8.95L7.5,9.05L7.265003607595631,9.05L7.050717893309916,8.835714285714285L6.836432179024202,8.835714285714285L6.622146464738488,8.62142857142857L6.19357503616706,8.62142857142857L5.765003607595631,8.192857142857143L2.765003607595631,8.192857142857143L2.521428571428572,7.949282106690083L2.521428571428572,7.050717893309916L3.3785714285714286,6.19357503616706L3.3785714285714286,5.979289321881345L3.592857142857143,5.765003607595631L3.592857142857143,5.550717893309916L4.235714285714286,4.907860750452774L4.235714285714286,4.69357503616706z" stroke="none"/><path d="M19.5,10.55L19.5,10.45L20.12214646473849,10.45L20.76500360759563,9.807142857142857L21.407860750452773,9.807142857142857L21.62214646473849,9.592857142857142L23.12214646473849,9.592857142857142L23.307142857142857,9.407860750452773L23.307142857142857,8.76500360759563L23.550717893309915,8.521428571428569L23.76500360759563,8.521428571428569L24.62214646473849,7.664285714285715L25.26500360759563,7.664285714285715L25.46464466094067,7.464644660940673L25.53535533905933,7.535355339059327L25.30642496383294,7.764285714285714L24.663567820975796,7.764285714285714L23.80642496383294,8.62142857142857L23.592139249547223,8.62142857142857L23.40714285714286,8.806424963832939L23.40714285714286,9.449282106690081L23.163567820975796,9.692857142857143L21.663567820975796,9.692857142857143L21.44928210669008,9.907142857142858L20.80642496383294,9.907142857142858L20.163567820975796,10.55z" stroke="none"/><path d="M25.46464466094067,8.964644660940673L25.53535533905933,9.035355339059327L24.90714285714286,9.663567820975796L24.90714285714286,10.092139249547223L24.692857142857143,10.306424963832939L24.692857142857143,10.73499639240437L24.44928210669008,10.978571428571428L18.62214646473849,10.978571428571428L18.19357503616706,10.55L18,10.55L18,10.45L18.23499639240437,10.45L18.663567820975796,10.878571428571426L24.407860750452773,10.878571428571426L24.59285714285714,10.693575036167061L24.59285714285714,10.26500360759563L24.807142857142857,10.050717893309915L24.807142857142857,9.622146464738488z" stroke="none"/><path d="M5.964644660940673,12.035355339059327L6.035355339059327,11.964644660940673L6.449282106690083,12.378571428571426L6.663567820975797,12.378571428571426L7.092139249547226,12.807142857142857L12.622146464738488,12.807142857142857L13.050717893309915,12.378571428571426L13.479289321881346,12.378571428571426L13.693575036167061,12.164285714285715L13.907860750452773,12.164285714285715L14.550717893309915,11.521428571428569L14.979289321881346,11.521428571428569L15.193575036167061,11.307142857142857L15.407860750452773,11.307142857142857L15.592857142857142,11.122146464738488L15.592857142857142,8.806424963832939L15.407860750452773,8.62142857142857L14.377853535261512,8.62142857142857L14.163567820975796,8.835714285714285L13.949282106690081,8.835714285714285L13.73499639240437,9.05L13.5,9.05L13.5,8.95L13.693575036167061,8.95L13.907860750452773,8.735714285714284L14.122146464738488,8.735714285714284L14.336432179024204,8.521428571428569L15.449282106690081,8.521428571428569L15.692857142857143,8.76500360759563L15.692857142857143,11.163567820975796L15.449282106690081,11.407142857142858L15.23499639240437,11.407142857142858L15.020710678118654,11.62142857142857L14.592139249547223,11.62142857142857L13.949282106690081,12.264285714285716L13.73499639240437,12.264285714285716L13.520710678118654,12.478571428571428L13.092139249547223,12.478571428571428L12.663567820975796,12.907142857142858L7.050717893309916,12.907142857142858L6.622146464738488,12.478571428571428L6.407860750452773,12.478571428571428z" stroke="none"/><path d="M6.035355339059327,5.964644660940673L5.964644660940673,6.035355339059327L5.735714285714286,5.80642496383294L5.735714285714286,5.592139249547226L5.521428571428571,5.3778535352615116L5.521428571428571,4.050717893309916L5.765003607595631,3.8071428571428574L5.979289321881345,3.8071428571428574L6.378571428571428,3.4078607504527736L6.378571428571428,3.1935750361670596L7.050717893309916,2.521428571428572L12.877853535261512,2.521428571428572L13.092139249547223,2.7357142857142858L13.306424963832939,2.7357142857142858L13.535355339059327,2.9646446609406727L13.464644660940673,3.0353553390593273L13.26500360759563,2.8357142857142854L13.050717893309915,2.8357142857142854L12.836432179024204,2.6214285714285714L7.092139249547226,2.6214285714285714L6.478571428571428,3.234996392404369L6.478571428571428,3.449282106690083L6.020710678118655,3.907142857142857L5.80642496383294,3.907142857142857L5.621428571428571,4.092139249547226L5.621428571428571,5.336432179024202L5.835714285714285,5.550717893309916L5.835714285714285,5.765003607595631z" stroke="none"/><path d="M24,2.95L24,3.05L20.979289321881346,3.05L20.55071789330992,2.6214285714285714L20.336432179024204,2.6214285714285714L20.12214646473849,2.407142857142857L16.092139249547223,2.407142857142857L15.663567820975796,2.8357142857142854L15.449282106690081,2.8357142857142854L15.23499639240437,3.05L15,3.05L15,2.95L15.193575036167061,2.95L15.407860750452773,2.7357142857142858L15.622146464738488,2.7357142857142858L16.050717893309915,2.3071428571428574L20.163567820975796,2.3071428571428574L20.37785353526151,2.521428571428572L20.592139249547227,2.521428571428572L21.020710678118654,2.95z" stroke="none"/><path d="M9,6.05L9,5.95L9.23499639240437,5.95L9.449282106690081,6.164285714285715L9.663567820975796,6.164285714285715L10.092139249547223,6.5928571428571425L16.30642496383294,6.5928571428571425L16.520710678118654,6.807142857142857L17.163567820975796,6.807142857142857L17.592139249547227,7.235714285714286L17.80642496383294,7.235714285714286L18.03535533905933,7.464644660940673L17.96464466094067,7.535355339059327L17.76500360759563,7.335714285714285L17.55071789330992,7.335714285714285L17.12214646473849,6.907142857142857L16.479289321881346,6.907142857142857L16.26500360759563,6.692857142857142L10.050717893309915,6.692857142857142L9.622146464738488,6.264285714285714L9.407860750452773,6.264285714285714L9.193575036167061,6.05z" stroke="none"/><path d="M3,3.05L3,2.95L3.449282106690083,2.95L3.6635678209757976,3.1642857142857146L3.877853535261512,3.1642857142857146L4.092139249547226,3.3785714285714286L4.30642496383294,3.3785714285714286L4.978571428571429,4.050717893309916L4.978571428571429,5.336432179024202L5.407142857142857,5.765003607595631L5.407142857142857,6.19357503616706L5.592139249547226,6.378571428571428L7.907860750452773,6.378571428571428L8.307142857142857,5.979289321881345L8.307142857142857,5.765003607595631L8.550717893309915,5.521428571428571L11.377853535261512,5.521428571428571L11.806424963832939,5.95L12,5.95L12,6.05L11.76500360759563,6.05L11.336432179024204,5.621428571428571L8.592139249547223,5.621428571428571L8.407142857142858,5.80642496383294L8.407142857142858,6.020710678118655L7.949282106690083,6.478571428571428L5.550717893309916,6.478571428571428L5.307142857142857,6.234996392404369L5.307142857142857,5.80642496383294L4.878571428571429,5.3778535352615116L4.878571428571429,4.092139249547226L4.265003607595631,3.478571428571428L4.050717893309916,3.478571428571428L3.8364321790242024,3.2642857142857142L3.622146464738488,3.2642857142857142L3.4078607504527736,3.05z" stroke="none"/><path d="M18,2.95L18,3.05L17.163567820975796,3.05L16.94928210669008,3.2642857142857142L16.520710678118654,3.2642857142857142L16.30642496383294,3.478571428571428L15.877853535261512,3.478571428571428L15.663567820975796,3.6928571428571426L9.020710678118654,3.6928571428571426L8.806424963832939,3.907142857142857L8.377853535261512,3.907142857142857L7.949282106690083,4.335714285714285L7.734996392404369,4.335714285714285L7.535355339059327,4.535355339059327L7.464644660940673,4.464644660940673L7.69357503616706,4.235714285714286L7.907860750452773,4.235714285714286L8.336432179024204,3.8071428571428574L8.76500360759563,3.8071428571428574L8.979289321881346,3.592857142857143L15.622146464738488,3.592857142857143L15.836432179024204,3.3785714285714286L16.26500360759563,3.3785714285714286L16.479289321881346,3.1642857142857146L16.907860750452773,3.1642857142857146L17.12214646473849,2.95z" stroke="none"/><path d="M4.45,9L4.55,9L4.55,10.73499639240437L4.335714285714285,10.949282106690081L4.335714285714285,11.377853535261512L4.121428571428571,11.592139249547223L4.121428571428571,12.407860750452773L4.30642496383294,12.592857142857142L6.020710678118655,12.592857142857142L6.449282106690083,13.021428571428569L13.26500360759563,13.021428571428569L13.479289321881346,12.807142857142857L13.907860750452773,12.807142857142857L14.76500360759563,11.95L15,11.95L15,12.05L14.806424963832939,12.05L13.949282106690081,12.907142857142858L13.520710678118654,12.907142857142858L13.306424963832939,13.12142857142857L6.407860750452773,13.12142857142857L5.979289321881345,12.692857142857143L4.265003607595631,12.692857142857143L4.021428571428571,12.449282106690081L4.021428571428571,11.550717893309915L4.235714285714286,11.336432179024204L4.235714285714286,10.907860750452773L4.45,10.693575036167061z" stroke="none"/></svg>