<svg version="1.1" width="30" height="15" xmlns="http://www.w3.org/2000/svg"><path d="M18.663567820975796,7.45L19.5,7.45L19.5,7.55L18.692857142857143,7.55L18.692857142857143,7.734996392404369L18.478571428571428,7.949282106690083L18.478571428571428,8.163567820975796L18.264285714285716,8.377853535261512L18.264285714285716,8.592139249547223L18.05,8.806424963832939L18.05,9L17.95,9L17.95,8.76500360759563L18.164285714285715,8.550717893309915L18.164285714285715,8.336432179024204L18.378571428571426,8.122146464738488L18.378571428571426,7.907860750452773L18.59285714285714,7.69357503616706L18.59285714285714,7.520710678118655L18.378571428571426,7.30642496383294L18.378571428571426,7.092139249547226L18.19357503616706,6.907142857142857L17.979289321881346,6.907142857142857L17.336432179024204,6.264285714285714L17.12214646473849,6.264285714285714L16.907860750452773,6.05L16.5,6.05L16.5,5.95L16.94928210669008,5.95L17.163567820975796,6.164285714285715L17.37785353526151,6.164285714285715L18.020710678118654,6.807142857142857L18.23499639240437,6.807142857142857L18.478571428571428,7.050717893309916L18.478571428571428,7.265003607595631z" stroke="none"/><path d="M5.307142857142857,8.307142857142857L5.307142857142857,8.163567820975796L3.1935750361670596,6.05L3,6.05L3,5.95L3.234996392404369,5.95L5.407142857142857,8.122146464738488L5.407142857142857,8.336432179024204L6.234996392404369,9.164285714285715L6.8778535352615116,9.164285714285715L7.092139249547226,9.378571428571426L7.949282106690083,9.378571428571426L8.163567820975796,9.592857142857142L8.806424963832939,9.592857142857142L9.020710678118654,9.807142857142857L9.449282106690081,9.807142857142857L10.092139249547223,10.45L10.5,10.45L10.5,10.55L10.050717893309915,10.55L9.407860750452773,9.907142857142858L8.979289321881346,9.907142857142858L8.76500360759563,9.692857142857143L8.122146464738488,9.692857142857143L7.907860750452773,9.478571428571428L7.050717893309916,9.478571428571428L6.836432179024202,9.264285714285716L6.19357503616706,9.264285714285716L5.336432179024202,8.407142857142858L5.163567820975797,8.407142857142858L4.949282106690084,8.62142857142857L4.734996392404369,8.62142857142857L4.520710678118655,8.835714285714285L4.30642496383294,8.835714285714285L4.092139249547226,9.05L3,9.05L3,8.95L4.050717893309916,8.95L4.265003607595631,8.735714285714284L4.479289321881345,8.735714285714284L4.69357503616706,8.521428571428569L4.907860750452774,8.521428571428569L5.122146464738488,8.307142857142857z" stroke="none"/><path d="M20.76500360759563,5.307142857142857L20.979289321881346,5.0928571428571425L21.19357503616706,5.0928571428571425L21.407860750452773,4.878571428571429L23.12214646473849,4.878571428571429L23.550717893309915,4.45L24,4.45L24,4.55L23.592139249547223,4.55L23.163567820975796,4.978571428571429L21.44928210669008,4.978571428571429L21.23499639240437,5.192857142857142L21.020710678118654,5.192857142857142L20.80642496383294,5.407142857142857L16.520710678118654,5.407142857142857L16.30642496383294,5.621428571428571L16.092139249547223,5.621428571428571L15.692857142857143,6.020710678118655L15.692857142857143,6.234996392404369L15.449282106690081,6.478571428571428L15.020710678118654,6.478571428571428L13.949282106690081,7.55L13.5,7.55L13.5,7.45L13.907860750452773,7.45L14.979289321881346,6.378571428571428L15.407860750452773,6.378571428571428L15.592857142857142,6.19357503616706L15.592857142857142,5.979289321881345L16.050717893309915,5.521428571428571L16.26500360759563,5.521428571428571L16.379289321881345,5.407142857142857L15.193575036167061,5.407142857142857L14.76500360759563,4.978571428571429L13.693575036167061,4.978571428571429L13.479289321881346,4.764285714285714L13.26500360759563,4.764285714285714L13.050717893309915,4.55L12,4.55L12,4.45L13.092139249547223,4.45L13.306424963832939,4.664285714285715L13.520710678118654,4.664285714285715L13.73499639240437,4.878571428571429L14.806424963832939,4.878571428571429L15.23499639240437,5.307142857142857z" stroke="none"/><path d="M8.307142857142857,10.45L8.307142857142857,10.306424963832939L8.122146464738488,10.12142857142857L4.092139249547226,10.12142857142857L3.877853535261512,10.335714285714285L3.6635678209757976,10.335714285714285L3.449282106690083,10.55L3,10.55L3,10.45L3.4078607504527736,10.45L3.622146464738488,10.235714285714284L3.8364321790242024,10.235714285714284L4.050717893309916,10.021428571428569L8.163567820975796,10.021428571428569L8.407142857142858,10.26500360759563L8.407142857142858,10.45L9,10.45L9,10.55L8.407142857142858,10.55L8.407142857142858,10.693575036167061L8.592139249547223,10.878571428571426L10.907860750452773,10.878571428571426L11.092857142857142,10.693575036167061L11.092857142857142,9.877853535261512L10.664285714285715,9.449282106690081L10.664285714285715,9.23499639240437L10.464644660940673,9.035355339059327L10.535355339059327,8.964644660940673L10.764285714285716,9.193575036167061L10.764285714285716,9.407860750452773L11.192857142857143,9.836432179024204L11.192857142857143,10.73499639240437L10.949282106690081,10.978571428571428L8.550717893309915,10.978571428571428L8.307142857142857,10.73499639240437L8.307142857142857,10.55L8.163567820975796,10.55L7.978571428571428,10.73499639240437L7.978571428571428,10.907860750452773L8.163567820975796,11.092857142857142L10.520710678118654,11.092857142857142L10.73499639240437,11.307142857142857L10.949282106690081,11.307142857142857L11.163567820975796,11.521428571428569L11.377853535261512,11.521428571428569L11.592139249547223,11.735714285714284L11.806424963832939,11.735714285714284L12.035355339059327,11.964644660940673L11.964644660940673,12.035355339059327L11.76500360759563,11.835714285714285L11.550717893309915,11.835714285714285L11.336432179024204,11.62142857142857L11.122146464738488,11.62142857142857L10.907860750452773,11.407142857142858L10.693575036167061,11.407142857142858L10.479289321881346,11.192857142857143L8.122146464738488,11.192857142857143L7.878571428571428,10.949282106690081L7.878571428571428,10.693575036167061L8.122146464738488,10.45z" stroke="none"/><path d="M20.521428571428572,5.022146464738488L20.521428571428572,4.69357503616706L20.76500360759563,4.45L21.19357503616706,4.45L21.407860750452773,4.235714285714286L22.479289321881346,4.235714285714286L22.69357503616706,4.021428571428571L23.12214646473849,4.021428571428571L23.336432179024204,3.8071428571428574L23.550717893309915,3.8071428571428574L23.76500360759563,3.592857142857143L24.44928210669008,3.592857142857143L25.30642496383294,4.45L25.5,4.45L25.5,4.55L25.26500360759563,4.55L24.407860750452773,3.6928571428571426L23.80642496383294,3.6928571428571426L23.592139249547223,3.907142857142857L23.37785353526151,3.907142857142857L23.163567820975796,4.121428571428571L22.73499639240437,4.121428571428571L22.520710678118654,4.335714285714285L21.44928210669008,4.335714285714285L21.23499639240437,4.55L20.80642496383294,4.55L20.621428571428574,4.734996392404369L20.621428571428574,5.022146464738488L20.979289321881346,4.664285714285715L21.62214646473849,4.664285714285715L21.836432179024204,4.45L22.69357503616706,4.45L22.907860750452773,4.235714285714286L23.336432179024204,4.235714285714286L23.550717893309915,4.021428571428571L23.76500360759563,4.021428571428571L23.979289321881346,3.8071428571428574L24.23499639240437,3.8071428571428574L24.478571428571428,4.050717893309916L24.478571428571428,4.949282106690084L24.23499639240437,5.192857142857142L24.020710678118654,5.192857142857142L23.62142857142857,5.592139249547226L23.62142857142857,6.020710678118655L23.192857142857143,6.449282106690083L23.192857142857143,6.663567820975797L22.764285714285716,7.092139249547226L22.764285714285716,7.30642496383294L22.53535533905933,7.535355339059327L22.46464466094067,7.464644660940673L22.664285714285715,7.265003607595631L22.664285714285715,7.050717893309916L23.09285714285714,6.622146464738488L23.09285714285714,6.407860750452773L23.52142857142857,5.979289321881345L23.52142857142857,5.550717893309916L23.979289321881346,5.0928571428571425L24.19357503616706,5.0928571428571425L24.378571428571426,4.907860750452774L24.378571428571426,4.092139249547226L24.19357503616706,3.907142857142857L24.020710678118654,3.907142857142857L23.80642496383294,4.121428571428571L23.592139249547223,4.121428571428571L23.37785353526151,4.335714285714285L22.94928210669008,4.335714285714285L22.73499639240437,4.55L21.87785353526151,4.55L21.663567820975796,4.764285714285714L21.020710678118654,4.764285714285714L20.592139249547227,5.192857142857142L15.407860750452773,5.192857142857142L14.979289321881346,4.764285714285714L13.907860750452773,4.764285714285714L13.693575036167061,4.55L13.479289321881346,4.55L13.26500360759563,4.335714285714285L12.836432179024204,4.335714285714285L12.622146464738488,4.121428571428571L11.592139249547223,4.121428571428571L11.407142857142858,4.30642496383294L11.407142857142858,4.69357503616706L11.592139249547223,4.878571428571429L12.449282106690081,4.878571428571429L12.663567820975796,5.0928571428571425L13.306424963832939,5.0928571428571425L13.520710678118654,5.307142857142857L14.163567820975796,5.307142857142857L14.377853535261512,5.521428571428571L14.592139249547223,5.521428571428571L15.035355339059327,5.964644660940673L14.964644660940673,6.035355339059327L14.550717893309915,5.621428571428571L14.336432179024204,5.621428571428571L14.122146464738488,5.407142857142857L13.479289321881346,5.407142857142857L13.26500360759563,5.192857142857142L12.622146464738488,5.192857142857142L12.407860750452773,4.978571428571429L11.550717893309915,4.978571428571429L11.307142857142857,4.734996392404369L11.307142857142857,4.265003607595631L11.550717893309915,4.021428571428571L12.663567820975796,4.021428571428571L12.877853535261512,4.235714285714286L13.306424963832939,4.235714285714286L13.520710678118654,4.45L13.73499639240437,4.45L13.949282106690081,4.664285714285715L15.020710678118654,4.664285714285715L15.449282106690081,5.0928571428571425L20.450717893309918,5.0928571428571425L20.307142857142857,4.949282106690084L20.307142857142857,4.30642496383294L19.878571428571426,3.877853535261512L19.878571428571426,3.449282106690083L19.46464466094067,3.0353553390593273L19.53535533905933,2.9646446609406727L19.978571428571428,3.4078607504527736L19.978571428571428,3.8364321790242024L20.40714285714286,4.265003607595631L20.40714285714286,4.907860750452774z" stroke="none"/><path d="M21.59285714285714,8.450717893309914L21.59285714285714,8.336432179024204L21.836432179024204,8.092857142857142L22.69357503616706,8.092857142857142L22.907860750452773,7.878571428571428L24.62214646473849,7.878571428571428L24.836432179024204,7.664285714285715L26.12214646473849,7.664285714285715L26.336432179024204,7.45L27,7.45L27,7.55L26.37785353526151,7.55L26.163567820975796,7.764285714285714L24.87785353526151,7.764285714285714L24.663567820975796,7.978571428571428L22.94928210669008,7.978571428571428L22.73499639240437,8.192857142857143L21.87785353526151,8.192857142857143L21.692857142857143,8.377853535261512L21.692857142857143,8.521428571428569L22.94928210669008,8.521428571428569L23.80642496383294,9.378571428571426L24.020710678118654,9.378571428571426L24.87785353526151,10.235714285714284L25.092139249547223,10.235714285714284L25.30642496383294,10.45L25.5,10.45L25.5,10.55L25.26500360759563,10.55L25.050717893309915,10.335714285714285L24.836432179024204,10.335714285714285L23.979289321881346,9.478571428571428L23.76500360759563,9.478571428571428L22.907860750452773,8.62142857142857L20.80642496383294,8.62142857142857L19.94928210669008,9.478571428571428L18.87785353526151,9.478571428571428L18.663567820975796,9.692857142857143L17.37785353526151,9.692857142857143L17.163567820975796,9.907142857142858L16.520710678118654,9.907142857142858L16.30642496383294,10.12142857142857L16.092139249547223,10.12142857142857L15.663567820975796,10.55L15,10.55L15,10.45L15.622146464738488,10.45L16.050717893309915,10.021428571428569L16.26500360759563,10.021428571428569L16.479289321881346,9.807142857142857L17.12214646473849,9.807142857142857L17.336432179024204,9.592857142857142L18.62214646473849,9.592857142857142L18.836432179024204,9.378571428571426L19.907860750452773,9.378571428571426L20.76500360759563,8.521428571428569L21.522146464738487,8.521428571428569L20.09285714285714,7.092139249547226L20.09285714285714,6.8778535352615116L19.45,6.234996392404369L19.45,6L19.55,6L19.55,6.19357503616706L20.192857142857143,6.836432179024202L20.192857142857143,7.050717893309916z" stroke="none"/><path d="M5.95,3L6.05,3L6.05,4.5L5.95,4.5z" stroke="none"/><path d="M24.05,7.5L23.95,7.5L23.95,6L24.05,6z" stroke="none"/><path d="M17.96464466094067,10.535355339059327L18.03535533905933,10.464644660940673L19.53535533905933,11.964644660940673L19.46464466094067,12.035355339059327z" stroke="none"/><path d="M7.535355339059327,7.535355339059327L7.464644660940673,7.464644660940673L8.964644660940673,5.964644660940673L9.035355339059327,6.035355339059327z" stroke="none"/><path d="M3.05,7.5L2.95,7.5L2.95,7.092139249547226L2.521428571428572,6.663567820975797L2.521428571428572,5.550717893309916L2.765003607595631,5.307142857142857L3.234996392404369,5.307142857142857L4.092139249547226,6.164285714285715L4.30642496383294,6.164285714285715L4.520710678118655,6.378571428571428L4.949282106690084,6.378571428571428L6.035355339059327,7.464644660940673L5.964644660940673,7.535355339059327L4.907860750452774,6.478571428571428L4.479289321881345,6.478571428571428L4.265003607595631,6.264285714285714L4.050717893309916,6.264285714285714L3.1935750361670596,5.407142857142857L2.8064249638329404,5.407142857142857L2.6214285714285714,5.592139249547226L2.6214285714285714,6.622146464738488L3.05,7.050717893309916z" stroke="none"/><path d="M9,11.95L9,12.05L6,12.05L6,11.95z" stroke="none"/><path d="M13.464644660940673,5.964644660940673L13.535355339059327,6.035355339059327L13.335714285714285,6.234996392404369L13.335714285714285,6.663567820975797L13.12142857142857,6.8778535352615116L13.12142857142857,7.907860750452773L13.306424963832939,8.092857142857142L15.407860750452773,8.092857142857142L15.836432179024204,7.664285714285715L16.050717893309915,7.664285714285715L16.26500360759563,7.45L16.5,7.45L16.5,7.55L16.30642496383294,7.55L16.092139249547223,7.764285714285714L15.877853535261512,7.764285714285714L15.449282106690081,8.192857142857143L13.26500360759563,8.192857142857143L13.021428571428569,7.949282106690083L13.021428571428569,6.836432179024202L13.235714285714284,6.622146464738488L13.235714285714284,6.19357503616706z" stroke="none"/><path d="M15,7.55L15,7.45L15.193575036167061,7.45L15.407860750452773,7.235714285714286L15.836432179024204,7.235714285714286L16.050717893309915,7.021428571428571L16.94928210669008,7.021428571428571L17.192857142857143,7.265003607595631L17.192857142857143,7.734996392404369L16.94928210669008,7.978571428571428L16.73499639240437,7.978571428571428L16.520710678118654,8.192857142857143L15.877853535261512,8.192857142857143L15.663567820975796,8.407142857142858L13.050717893309915,8.407142857142858L12.807142857142857,8.163567820975796L12.807142857142857,7.949282106690083L12.378571428571426,7.520710678118655L12.378571428571426,7.092139249547226L11.95,6.663567820975797L11.95,6.449282106690083L11.307142857142857,5.80642496383294L11.307142857142857,5.592139249547226L11.092857142857142,5.3778535352615116L11.092857142857142,4.050717893309916L11.336432179024204,3.8071428571428574L17.163567820975796,3.8071428571428574L17.592139249547227,4.235714285714286L17.80642496383294,4.235714285714286L18.03535533905933,4.464644660940673L17.96464466094067,4.535355339059327L17.76500360759563,4.335714285714285L17.55071789330992,4.335714285714285L17.12214646473849,3.907142857142857L11.377853535261512,3.907142857142857L11.192857142857143,4.092139249547226L11.192857142857143,5.336432179024202L11.407142857142858,5.550717893309916L11.407142857142858,5.765003607595631L12.05,6.407860750452773L12.05,6.622146464738488L12.478571428571428,7.050717893309916L12.478571428571428,7.479289321881345L12.907142857142858,7.907860750452773L12.907142857142858,8.122146464738488L13.092139249547223,8.307142857142857L15.622146464738488,8.307142857142857L15.836432179024204,8.092857142857142L16.479289321881346,8.092857142857142L16.69357503616706,7.878571428571428L16.907860750452773,7.878571428571428L17.09285714285714,7.69357503616706L17.09285714285714,7.30642496383294L16.907860750452773,7.121428571428571L16.092139249547223,7.121428571428571L15.877853535261512,7.335714285714285L15.449282106690081,7.335714285714285L15.23499639240437,7.55z" stroke="none"/><path d="M12,2.95L12,3.05L11.592139249547223,3.05L11.163567820975796,3.478571428571428L9.193575036167061,3.478571428571428L8.76500360759563,3.05L7.5,3.05L7.5,2.95L8.806424963832939,2.95L9.23499639240437,3.3785714285714286L11.122146464738488,3.3785714285714286L11.550717893309915,2.95z" stroke="none"/><path d="M26.96464466094067,8.964644660940673L27.03535533905933,9.035355339059327L26.835714285714285,9.23499639240437L26.835714285714285,9.877853535261512L26.192857142857143,10.520710678118654L26.192857142857143,10.73499639240437L25.94928210669008,10.978571428571428L25.050717893309915,10.978571428571428L23.979289321881346,9.907142857142858L23.76500360759563,9.907142857142858L23.550717893309915,9.692857142857143L23.336432179024204,9.692857142857143L22.907860750452773,9.264285714285716L22.69357503616706,9.264285714285716L22.46464466094067,9.035355339059327L22.53535533905933,8.964644660940673L22.73499639240437,9.164285714285715L22.94928210669008,9.164285714285715L23.37785353526151,9.592857142857142L23.592139249547223,9.592857142857142L23.80642496383294,9.807142857142857L24.020710678118654,9.807142857142857L25.092139249547223,10.878571428571426L25.907860750452773,10.878571428571426L26.09285714285714,10.693575036167061L26.09285714285714,10.479289321881346L26.735714285714284,9.836432179024204L26.735714285714284,9.193575036167061z" stroke="none"/><path d="M7.5,4.45L7.5,4.55L7.092139249547226,4.55L6.663567820975797,4.978571428571429L3.622146464738488,4.978571428571429L3.1935750361670596,4.55L3,4.55L3,4.45L3.234996392404369,4.45L3.6635678209757976,4.878571428571429L6.622146464738488,4.878571428571429L7.050717893309916,4.45z" stroke="none"/><path d="M6,6.05L6,5.95L6.622146464738488,5.95L7.050717893309916,5.521428571428571L9.193575036167061,5.521428571428571L9.407860750452773,5.307142857142857L9.622146464738488,5.307142857142857L10.464644660940673,4.464644660940673L10.535355339059327,4.535355339059327L9.663567820975796,5.407142857142857L9.449282106690081,5.407142857142857L9.23499639240437,5.621428571428571L7.092139249547226,5.621428571428571L6.663567820975797,6.05z" stroke="none"/><path d="M5.964644660940673,10.535355339059327L6.035355339059327,10.464644660940673L6.234996392404369,10.664285714285715L6.449282106690083,10.664285714285715L6.663567820975797,10.878571428571426L6.8778535352615116,10.878571428571426L7.092139249547226,11.092857142857142L7.734996392404369,11.092857142857142L7.949282106690083,11.307142857142857L8.806424963832939,11.307142857142857L9.020710678118654,11.521428571428569L9.663567820975796,11.521428571428569L10.092139249547223,11.95L10.5,11.95L10.5,12.05L10.050717893309915,12.05L9.622146464738488,11.62142857142857L8.979289321881346,11.62142857142857L8.76500360759563,11.407142857142858L7.907860750452773,11.407142857142858L7.69357503616706,11.192857142857143L7.050717893309916,11.192857142857143L6.836432179024202,10.978571428571428L6.622146464738488,10.978571428571428L6.407860750452773,10.764285714285716L6.19357503616706,10.764285714285716z" stroke="none"/><path d="M27,11.95L27,12.05L26.336432179024204,12.05L25.907860750452773,11.62142857142857L24.407860750452773,11.62142857142857L24.19357503616706,11.407142857142858L22.907860750452773,11.407142857142858L22.69357503616706,11.192857142857143L22.26500360759563,11.192857142857143L21.62214646473849,10.55L21,10.55L21,10.45L21.663567820975796,10.45L22.30642496383294,11.092857142857142L22.73499639240437,11.092857142857142L22.94928210669008,11.307142857142857L24.23499639240437,11.307142857142857L24.44928210669008,11.521428571428569L25.94928210669008,11.521428571428569L26.37785353526151,11.95z" stroke="none"/><path d="M19.5,8.95L19.5,9.05L18.87785353526151,9.05L18.44928210669008,9.478571428571428L15.23499639240437,9.478571428571428L14.62142857142857,10.092139249547223L14.62142857142857,10.907860750452773L14.806424963832939,11.092857142857142L15.020710678118654,11.092857142857142L15.23499639240437,11.307142857142857L17.37785353526151,11.307142857142857L18.020710678118654,11.95L18.663567820975796,11.95L19.092139249547227,12.378571428571426L20.979289321881346,12.378571428571426L21.19357503616706,12.164285714285715L25.26500360759563,12.164285714285715L25.46464466094067,11.964644660940673L25.53535533905933,12.035355339059327L25.30642496383294,12.264285714285716L21.23499639240437,12.264285714285716L21.020710678118654,12.478571428571428L19.05071789330992,12.478571428571428L18.62214646473849,12.05L17.979289321881346,12.05L17.336432179024204,11.407142857142858L15.193575036167061,11.407142857142858L14.979289321881346,11.192857142857143L14.76500360759563,11.192857142857143L14.521428571428569,10.949282106690081L14.521428571428569,10.050717893309915L15.193575036167061,9.378571428571426L18.407860750452773,9.378571428571426L18.836432179024204,8.95z" stroke="none"/><path d="M25.53535533905933,9.035355339059327L25.46464466094067,8.964644660940673L26.336432179024204,8.092857142857142L27.19357503616706,8.092857142857142L27.378571428571426,7.907860750452773L27.378571428571426,6.020710678118655L26.52142857142857,5.163567820975797L26.52142857142857,4.949282106690084L25.878571428571426,4.30642496383294L25.878571428571426,4.092139249547226L25.479289321881346,3.6928571428571426L24.836432179024204,3.6928571428571426L24.62214646473849,3.478571428571428L22.05071789330992,3.478571428571428L21.836432179024204,3.2642857142857142L21.407860750452773,3.2642857142857142L20.979289321881346,2.8357142857142854L20.55071789330992,2.8357142857142854L20.336432179024204,2.6214285714285714L19.092139249547227,2.6214285714285714L18.90714285714286,2.8064249638329404L18.90714285714286,2.979289321881345L19.121428571428574,3.1935750361670596L19.121428571428574,3.4078607504527736L19.335714285714285,3.622146464738488L19.335714285714285,4.050717893309916L19.55,4.265003607595631L19.55,4.5L19.45,4.5L19.45,4.30642496383294L19.235714285714284,4.092139249547226L19.235714285714284,3.6635678209757976L19.021428571428572,3.449282106690083L19.021428571428572,3.234996392404369L18.807142857142857,3.020710678118655L18.807142857142857,2.765003607595631L19.05071789330992,2.521428571428572L20.37785353526151,2.521428571428572L20.592139249547227,2.7357142857142858L21.020710678118654,2.7357142857142858L21.44928210669008,3.1642857142857146L21.87785353526151,3.1642857142857146L22.092139249547227,3.3785714285714286L24.663567820975796,3.3785714285714286L24.87785353526151,3.592857142857143L25.520710678118654,3.592857142857143L25.978571428571428,4.050717893309916L25.978571428571428,4.265003607595631L26.62142857142857,4.907860750452774L26.62142857142857,5.122146464738488L27.478571428571428,5.979289321881345L27.478571428571428,7.949282106690083L27.23499639240437,8.192857142857143L26.37785353526151,8.192857142857143z" stroke="none"/><path d="M11.95,10.5L12.05,10.5L12.05,11.122146464738488L12.478571428571428,11.550717893309915L12.478571428571428,12.449282106690081L12.23499639240437,12.692857142857143L5.765003607595631,12.692857142857143L4.664285714285715,11.592139249547223L4.664285714285715,10.73499639240437L4.464644660940673,10.535355339059327L4.535355339059327,10.464644660940673L4.764285714285714,10.693575036167061L4.764285714285714,11.550717893309915L5.80642496383294,12.592857142857142L12.193575036167061,12.592857142857142L12.378571428571426,12.407860750452773L12.378571428571426,11.592139249547223L11.95,11.163567820975796z" stroke="none"/><path d="M3,3.05L3,2.95L4.265003607595631,2.95L4.479289321881345,2.7357142857142858L5.336432179024202,2.7357142857142858L5.550717893309916,2.521428571428572L9.449282106690081,2.521428571428572L9.663567820975796,2.7357142857142858L10.092139249547223,2.7357142857142858L10.306424963832939,2.95L10.5,2.95L10.5,3.05L10.26500360759563,3.05L10.050717893309915,2.8357142857142854L9.622146464738488,2.8357142857142854L9.407860750452773,2.6214285714285714L5.592139249547226,2.6214285714285714L5.3778535352615116,2.8357142857142854L4.520710678118655,2.8357142857142854L4.30642496383294,3.05z" stroke="none"/><path d="M7.464644660940673,5.964644660940673L7.535355339059327,6.035355339059327L7.121428571428571,6.449282106690083L7.121428571428571,7.30642496383294L6.907142857142857,7.520710678118655L6.907142857142857,7.69357503616706L7.092139249547226,7.878571428571428L7.907860750452773,7.878571428571428L8.521428571428569,7.265003607595631L8.521428571428569,7.050717893309916L8.979289321881346,6.5928571428571425L9.193575036167061,6.5928571428571425L10.878571428571426,4.907860750452774L10.878571428571426,3.8364321790242024L11.122146464738488,3.592857142857143L14.122146464738488,3.592857142857143L14.76500360759563,2.95L15,2.95L15,3.05L14.806424963832939,3.05L14.163567820975796,3.6928571428571426L11.163567820975796,3.6928571428571426L10.978571428571428,3.877853535261512L10.978571428571428,4.949282106690084L9.23499639240437,6.692857142857142L9.020710678118654,6.692857142857142L8.62142857142857,7.092139249547226L8.62142857142857,7.30642496383294L7.949282106690083,7.978571428571428L7.050717893309916,7.978571428571428L6.807142857142857,7.734996392404369L6.807142857142857,7.479289321881345L7.021428571428571,7.265003607595631L7.021428571428571,6.407860750452773z" stroke="none"/><path d="M27,2.95L27,3.05L21.836432179024204,3.05L21.62214646473849,2.8357142857142854L21.407860750452773,2.8357142857142854L21.19357503616706,2.6214285714285714L20.76500360759563,2.6214285714285714L20.55071789330992,2.407142857142857L18.87785353526151,2.407142857142857L18.44928210669008,2.8357142857142854L18.23499639240437,2.8357142857142854L18.03535533905933,3.0353553390593273L17.96464466094067,2.9646446609406727L18.19357503616706,2.7357142857142858L18.407860750452773,2.7357142857142858L18.836432179024204,2.3071428571428574L20.592139249547227,2.3071428571428574L20.80642496383294,2.521428571428572L21.23499639240437,2.521428571428572L21.44928210669008,2.7357142857142858L21.663567820975796,2.7357142857142858L21.87785353526151,2.95z" stroke="none"/><path d="M9,7.55L9,7.45L9.877853535261512,7.45L10.092139249547223,7.664285714285715L10.520710678118654,7.664285714285715L10.73499639240437,7.878571428571428L10.949282106690081,7.878571428571428L11.163567820975796,8.092857142857142L11.806424963832939,8.092857142857142L12.23499639240437,8.521428571428569L16.26500360759563,8.521428571428569L16.479289321881346,8.307142857142857L16.907860750452773,8.307142857142857L17.76500360759563,7.45L18,7.45L18,7.55L17.80642496383294,7.55L16.94928210669008,8.407142857142858L16.520710678118654,8.407142857142858L16.30642496383294,8.62142857142857L12.193575036167061,8.62142857142857L11.76500360759563,8.192857142857143L11.122146464738488,8.192857142857143L10.907860750452773,7.978571428571428L10.693575036167061,7.978571428571428L10.479289321881346,7.764285714285714L10.050717893309915,7.764285714285714L9.836432179024204,7.55z" stroke="none"/><path d="M16.5,10.55L16.5,10.45L17.12214646473849,10.45L17.55071789330992,10.021428571428569L23.163567820975796,10.021428571428569L23.592139249547223,10.45L23.80642496383294,10.45L24.020710678118654,10.664285714285715L24.23499639240437,10.664285714285715L24.663567820975796,11.092857142857142L27.020710678118654,11.092857142857142L27.478571428571428,11.550717893309915L27.478571428571428,12.449282106690081L27.23499639240437,12.692857142857143L18.62214646473849,12.692857142857143L18.407860750452773,12.478571428571428L17.12214646473849,12.478571428571428L16.69357503616706,12.05L16.26500360759563,12.05L16.050717893309915,11.835714285714285L15.622146464738488,11.835714285714285L15.407860750452773,11.62142857142857L14.76500360759563,11.62142857142857L13.26500360759563,10.12142857142857L12.836432179024204,10.12142857142857L11.979289321881346,9.264285714285716L11.550717893309915,9.264285714285716L10.907860750452773,8.62142857142857L8.592139249547223,8.62142857142857L8.163567820975796,9.05L7.5,9.05L7.5,8.95L8.122146464738488,8.95L8.550717893309915,8.521428571428569L10.949282106690081,8.521428571428569L11.592139249547223,9.164285714285715L12.020710678118654,9.164285714285715L12.877853535261512,10.021428571428569L13.306424963832939,10.021428571428569L14.806424963832939,11.521428571428569L15.449282106690081,11.521428571428569L15.663567820975796,11.735714285714284L16.092139249547223,11.735714285714284L16.30642496383294,11.95L16.73499639240437,11.95L17.163567820975796,12.378571428571426L18.44928210669008,12.378571428571426L18.663567820975796,12.592857142857142L27.19357503616706,12.592857142857142L27.378571428571426,12.407860750452773L27.378571428571426,11.592139249547223L26.979289321881346,11.192857142857143L24.62214646473849,11.192857142857143L24.19357503616706,10.764285714285716L23.979289321881346,10.764285714285716L23.76500360759563,10.55L23.550717893309915,10.55L23.12214646473849,10.12142857142857L17.592139249547227,10.12142857142857L17.163567820975796,10.55z" stroke="none"/><path d="M3,12.05L3,11.95L4.092139249547226,11.95L4.30642496383294,12.164285714285715L4.734996392404369,12.164285714285715L4.949282106690084,12.378571428571426L5.163567820975797,12.378571428571426L5.592139249547226,12.807142857142857L12.407860750452773,12.807142857142857L12.836432179024204,12.378571428571426L13.26500360759563,12.378571428571426L13.479289321881346,12.164285714285715L14.76500360759563,12.164285714285715L14.964644660940673,11.964644660940673L15.035355339059327,12.035355339059327L14.806424963832939,12.264285714285716L13.520710678118654,12.264285714285716L13.306424963832939,12.478571428571428L12.877853535261512,12.478571428571428L12.449282106690081,12.907142857142858L5.550717893309916,12.907142857142858L5.122146464738488,12.478571428571428L4.907860750452774,12.478571428571428L4.69357503616706,12.264285714285716L4.265003607595631,12.264285714285716L4.050717893309916,12.05z" stroke="none"/><path d="M16.5,8.95L16.5,9.05L12.622146464738488,9.05L12.407860750452773,8.835714285714285L11.76500360759563,8.835714285714285L11.336432179024204,8.407142857142858L7.265003607595631,8.407142857142858L7.050717893309916,8.192857142857143L6.836432179024202,8.192857142857143L6.5928571428571425,7.949282106690083L6.5928571428571425,7.520710678118655L6.378571428571428,7.30642496383294L6.378571428571428,7.092139249547226L6.19357503616706,6.907142857142857L5.979289321881345,6.907142857142857L4.69357503616706,5.621428571428571L4.479289321881345,5.621428571428571L4.265003607595631,5.407142857142857L4.050717893309916,5.407142857142857L3.8364321790242024,5.192857142857142L2.765003607595631,5.192857142857142L2.521428571428572,4.949282106690084L2.521428571428572,4.050717893309916L2.765003607595631,3.8071428571428574L3.234996392404369,3.8071428571428574L3.449282106690083,4.021428571428571L3.6635678209757976,4.021428571428571L3.877853535261512,4.235714285714286L4.092139249547226,4.235714285714286L4.30642496383294,4.45L4.5,4.45L4.5,4.55L4.265003607595631,4.55L4.050717893309916,4.335714285714285L3.8364321790242024,4.335714285714285L3.622146464738488,4.121428571428571L3.4078607504527736,4.121428571428571L3.1935750361670596,3.907142857142857L2.8064249638329404,3.907142857142857L2.6214285714285714,4.092139249547226L2.6214285714285714,4.907860750452774L2.8064249638329404,5.0928571428571425L3.877853535261512,5.0928571428571425L4.092139249547226,5.307142857142857L4.30642496383294,5.307142857142857L4.520710678118655,5.521428571428571L4.734996392404369,5.521428571428571L6.020710678118655,6.807142857142857L6.234996392404369,6.807142857142857L6.478571428571428,7.050717893309916L6.478571428571428,7.265003607595631L6.692857142857142,7.479289321881345L6.692857142857142,7.907860750452773L6.8778535352615116,8.092857142857142L7.092139249547226,8.092857142857142L7.30642496383294,8.307142857142857L11.377853535261512,8.307142857142857L11.806424963832939,8.735714285714284L12.449282106690081,8.735714285714284L12.663567820975796,8.95z" stroke="none"/></svg>