<svg version="1.1" width="30" height="15" xmlns="http://www.w3.org/2000/svg"><path d="M6.807142857142857,10.907860750452773L6.807142857142857,10.693575036167061L7.021428571428571,10.479289321881346L7.021428571428571,10.26500360759563L7.235714285714286,10.050717893309915L7.235714285714286,9.836432179024204L7.45,9.622146464738488L7.45,9L7.55,9L7.55,9.663567820975796L7.335714285714285,9.877853535261512L7.335714285714285,10.092139249547223L7.121428571428571,10.306424963832939L7.121428571428571,10.520710678118654L6.907142857142857,10.73499639240437L6.907142857142857,10.878571428571426L7.30642496383294,10.878571428571426L7.520710678118655,11.092857142857142L7.734996392404369,11.092857142857142L8.163567820975796,11.521428571428569L8.377853535261512,11.521428571428569L8.806424963832939,11.95L9,11.95L9,12.05L8.76500360759563,12.05L8.336432179024204,11.62142857142857L8.122146464738488,11.62142857142857L7.69357503616706,11.192857142857143L7.479289321881345,11.192857142857143L7.265003607595631,10.978571428571428L6.8778535352615116,10.978571428571428L6.449282106690083,11.407142857142858L6.020710678118655,11.407142857142858L5.592139249547226,11.835714285714285L5.3778535352615116,11.835714285714285L5.163567820975797,12.05L4.5,12.05L4.5,11.95L5.122146464738488,11.95L5.336432179024202,11.735714285714284L5.550717893309916,11.735714285714284L5.979289321881345,11.307142857142857L6.407860750452773,11.307142857142857z" stroke="none"/><path d="M16.878571428571426,7.878571428571428L16.878571428571426,7.69357503616706L17.09285714285714,7.479289321881345L17.09285714285714,7.265003607595631L17.307142857142857,7.050717893309916L17.307142857142857,6.836432179024202L17.521428571428572,6.622146464738488L17.521428571428572,6.407860750452773L17.96464466094067,5.964644660940673L18.03535533905933,6.035355339059327L17.621428571428574,6.449282106690083L17.621428571428574,6.663567820975797L17.40714285714286,6.8778535352615116L17.40714285714286,7.092139249547226L17.192857142857143,7.30642496383294L17.192857142857143,7.520710678118655L16.978571428571428,7.734996392404369L16.978571428571428,7.878571428571428L21.407860750452773,7.878571428571428L21.836432179024204,7.45L22.5,7.45L22.5,7.55L21.87785353526151,7.55L21.44928210669008,7.978571428571428L16.520710678118654,7.978571428571428L16.30642496383294,8.192857142857143L16.092139249547223,8.192857142857143L15.877853535261512,8.407142857142858L15.663567820975796,8.407142857142858L15.23499639240437,8.835714285714285L14.806424963832939,8.835714285714285L14.592139249547223,9.05L13.949282106690081,9.05L13.73499639240437,9.264285714285716L13.520710678118654,9.264285714285716L13.306424963832939,9.478571428571428L12.020710678118654,9.478571428571428L11.806424963832939,9.692857142857143L11.592139249547223,9.692857142857143L11.163567820975796,10.12142857142857L10.949282106690081,10.12142857142857L10.535355339059327,10.535355339059327L10.464644660940673,10.464644660940673L10.907860750452773,10.021428571428569L11.122146464738488,10.021428571428569L11.550717893309915,9.592857142857142L11.76500360759563,9.592857142857142L11.979289321881346,9.378571428571426L13.26500360759563,9.378571428571426L13.479289321881346,9.164285714285715L13.693575036167061,9.164285714285715L13.907860750452773,8.95L14.550717893309915,8.95L14.76500360759563,8.735714285714284L15.193575036167061,8.735714285714284L15.622146464738488,8.307142857142857L15.836432179024204,8.307142857142857L16.050717893309915,8.092857142857142L16.26500360759563,8.092857142857142L16.479289321881346,7.878571428571428z" stroke="none"/><path d="M17.142857142857142,5.929289321881345L17.55071789330992,5.521428571428571L18.44928210669008,5.521428571428571L19.121428571428574,6.19357503616706L19.121428571428574,6.407860750452773L19.73499639240437,7.021428571428571L20.37785353526151,7.021428571428571L20.80642496383294,7.45L21,7.45L21,7.55L20.76500360759563,7.55L20.336432179024204,7.121428571428571L19.69357503616706,7.121428571428571L19.021428571428572,6.449282106690083L19.021428571428572,6.234996392404369L18.407860750452773,5.621428571428571L17.592139249547227,5.621428571428571L17.192857142857143,6.020710678118655L17.192857142857143,6.234996392404369L16.94928210669008,6.478571428571428L15.836432179024204,6.478571428571428L15.622146464738488,6.264285714285714L15.407860750452773,6.264285714285714L15.193575036167061,6.05L13.5,6.05L13.5,5.95L15.23499639240437,5.95L15.449282106690081,6.164285714285715L15.663567820975796,6.164285714285715L15.877853535261512,6.378571428571428L16.907860750452773,6.378571428571428L17.09285714285714,6.19357503616706L17.09285714285714,6.020710678118655L16.878571428571426,5.80642496383294L16.878571428571426,5.592139249547226L16.69357503616706,5.407142857142857L16.479289321881346,5.407142857142857L16.26500360759563,5.192857142857142L15.836432179024204,5.192857142857142L15.193575036167061,4.55L15,4.55L15,4.45L15.23499639240437,4.45L15.877853535261512,5.0928571428571425L16.30642496383294,5.0928571428571425L16.520710678118654,5.307142857142857L16.73499639240437,5.307142857142857L16.978571428571428,5.550717893309916L16.978571428571428,5.765003607595631z" stroke="none"/><path d="M18.164285714285715,9.807142857142857L18.164285714285715,9.663567820975796L17.979289321881346,9.478571428571428L17.55071789330992,9.478571428571428L17.12214646473849,9.05L16.5,9.05L16.5,8.95L17.163567820975796,8.95L17.592139249547227,9.378571428571426L18.020710678118654,9.378571428571426L18.264285714285716,9.622146464738488L18.264285714285716,9.807142857142857L24.407860750452773,9.807142857142857L25.26500360759563,8.95L25.5,8.95L25.5,9.05L25.30642496383294,9.05L24.44928210669008,9.907142857142858L18.33499639240437,9.907142857142858L18.478571428571428,10.050717893309915L18.478571428571428,10.949282106690081L18.23499639240437,11.192857142857143L16.520710678118654,11.192857142857143L16.30642496383294,11.407142857142858L16.092139249547223,11.407142857142858L15.877853535261512,11.62142857142857L15.663567820975796,11.62142857142857L15.449282106690081,11.835714285714285L15.23499639240437,11.835714285714285L15.035355339059327,12.035355339059327L14.964644660940673,11.964644660940673L15.193575036167061,11.735714285714284L15.407860750452773,11.735714285714284L15.622146464738488,11.521428571428569L15.836432179024204,11.521428571428569L16.050717893309915,11.307142857142857L16.26500360759563,11.307142857142857L16.479289321881346,11.092857142857142L18.19357503616706,11.092857142857142L18.378571428571426,10.907860750452773L18.378571428571426,10.092139249547223L18.19357503616706,9.907142857142858L17.80642496383294,9.907142857142858L17.37785353526151,10.335714285714285L17.163567820975796,10.335714285714285L16.94928210669008,10.55L16.5,10.55L16.5,10.45L16.907860750452773,10.45L17.12214646473849,10.235714285714284L17.336432179024204,10.235714285714284L17.76500360759563,9.807142857142857z" stroke="none"/><path d="M10.021428571428569,4.021428571428571L10.021428571428569,3.8364321790242024L10.26500360759563,3.592857142857143L12.877853535261512,3.592857142857143L13.092139249547223,3.8071428571428574L13.306424963832939,3.8071428571428574L13.520710678118654,4.021428571428571L13.73499639240437,4.021428571428571L15.23499639240437,5.521428571428571L15.663567820975796,5.521428571428571L15.877853535261512,5.735714285714286L16.30642496383294,5.735714285714286L16.53535533905933,5.964644660940673L16.46464466094067,6.035355339059327L16.26500360759563,5.835714285714285L15.836432179024204,5.835714285714285L15.622146464738488,5.621428571428571L15.193575036167061,5.621428571428571L13.693575036167061,4.121428571428571L13.479289321881346,4.121428571428571L13.26500360759563,3.907142857142857L13.050717893309915,3.907142857142857L12.836432179024204,3.6928571428571426L10.306424963832939,3.6928571428571426L10.12142857142857,3.877853535261512L10.12142857142857,4.021428571428571L12.020710678118654,4.021428571428571L12.23499639240437,4.235714285714286L12.663567820975796,4.235714285714286L12.877853535261512,4.45L13.5,4.45L13.5,4.55L12.836432179024204,4.55L12.622146464738488,4.335714285714285L12.193575036167061,4.335714285714285L11.979289321881346,4.121428571428571L10.12142857142857,4.121428571428571L10.12142857142857,4.30642496383294L9.877853535261512,4.55L8.76500360759563,4.55L8.550717893309915,4.335714285714285L8.336432179024204,4.335714285714285L8.122146464738488,4.121428571428571L6.622146464738488,4.121428571428571L6.19357503616706,3.6928571428571426L5.979289321881345,3.6928571428571426L5.765003607595631,3.478571428571428L5.550717893309916,3.478571428571428L5.336432179024202,3.2642857142857142L5.122146464738488,3.2642857142857142L4.907860750452774,3.05L4.5,3.05L4.5,2.95L4.949282106690084,2.95L5.163567820975797,3.1642857142857146L5.3778535352615116,3.1642857142857146L5.592139249547226,3.3785714285714286L5.80642496383294,3.3785714285714286L6.020710678118655,3.592857142857143L6.234996392404369,3.592857142857143L6.663567820975797,4.021428571428571L8.163567820975796,4.021428571428571L8.377853535261512,4.235714285714286L8.592139249547223,4.235714285714286L8.806424963832939,4.45L9.836432179024204,4.45L10.021428571428569,4.265003607595631L10.021428571428569,4.121428571428571L9.407860750452773,4.121428571428571L8.76500360759563,3.478571428571428L6.622146464738488,3.478571428571428L6.19357503616706,3.05L6,3.05L6,2.95L6.234996392404369,2.95L6.663567820975797,3.3785714285714286L8.806424963832939,3.3785714285714286L9.449282106690081,4.021428571428571z" stroke="none"/><path d="M20.521428571428572,5.0928571428571425L20.521428571428572,4.949282106690084L20.336432179024204,4.764285714285714L20.12214646473849,4.764285714285714L19.69357503616706,4.335714285714285L18.62214646473849,4.335714285714285L17.76500360759563,3.478571428571428L16.907860750452773,3.478571428571428L16.46464466094067,3.0353553390593273L16.53535533905933,2.9646446609406727L16.94928210669008,3.3785714285714286L17.80642496383294,3.3785714285714286L18.663567820975796,4.235714285714286L19.73499639240437,4.235714285714286L20.163567820975796,4.664285714285715L20.37785353526151,4.664285714285715L20.621428571428574,4.907860750452774L20.621428571428574,5.0928571428571425L21.23499639240437,5.0928571428571425L21.44928210669008,5.307142857142857L22.092139249547227,5.307142857142857L22.30642496383294,5.521428571428571L23.80642496383294,5.521428571428571L24.020710678118654,5.735714285714286L24.663567820975796,5.735714285714286L24.87785353526151,5.95L25.5,5.95L25.5,6.05L24.836432179024204,6.05L24.62214646473849,5.835714285714285L23.979289321881346,5.835714285714285L23.76500360759563,5.621428571428571L22.26500360759563,5.621428571428571L22.05071789330992,5.407142857142857L21.407860750452773,5.407142857142857L21.19357503616706,5.192857142857142L20.69213924954723,5.192857142857142L22.30642496383294,6.807142857142857L22.73499639240437,6.807142857142857L22.94928210669008,7.021428571428571L23.592139249547223,7.021428571428571L24.03535533905933,7.464644660940673L23.96464466094067,7.535355339059327L23.550717893309915,7.121428571428571L22.907860750452773,7.121428571428571L22.69357503616706,6.907142857142857L22.26500360759563,6.907142857142857L20.55071789330992,5.192857142857142L19.479289321881346,5.192857142857142L19.05071789330992,4.764285714285714L18.62214646473849,4.764285714285714L18.407860750452773,4.55L16.5,4.55L16.5,4.45L18.44928210669008,4.45L18.663567820975796,4.664285714285715L19.092139249547227,4.664285714285715L19.520710678118654,5.0928571428571425z" stroke="none"/><path d="M10.5,12.05L10.5,11.95L12,11.95L12,12.05z" stroke="none"/><path d="M25.5,12.05L25.5,11.95L27,11.95L27,12.05z" stroke="none"/><path d="M10.535355339059327,8.964644660940673L10.464644660940673,9.035355339059327L8.964644660940673,7.535355339059327L9.035355339059327,7.464644660940673z" stroke="none"/><path d="M4.464644660940673,9.035355339059327L4.535355339059327,8.964644660940673L6.035355339059327,10.464644660940673L5.964644660940673,10.535355339059327z" stroke="none"/><path d="M23.96464466094067,2.9646446609406727L24.03535533905933,3.0353553390593273L22.53535533905933,4.535355339059327L22.46464466094067,4.464644660940673z" stroke="none"/><path d="M19.5,8.95L19.5,9.05L18.836432179024204,9.05L18.407860750452773,8.62142857142857L16.092139249547223,8.62142857142857L15.907142857142858,8.806424963832939L15.907142857142858,10.693575036167061L16.092139249547223,10.878571428571426L16.907860750452773,10.878571428571426L17.12214646473849,10.664285714285715L17.76500360759563,10.664285714285715L17.96464466094067,10.464644660940673L18.03535533905933,10.535355339059327L17.80642496383294,10.764285714285716L17.163567820975796,10.764285714285716L16.94928210669008,10.978571428571428L16.050717893309915,10.978571428571428L15.807142857142857,10.73499639240437L15.807142857142857,8.76500360759563L16.050717893309915,8.521428571428569L18.44928210669008,8.521428571428569L18.87785353526151,8.95z" stroke="none"/><path d="M5.964644660940673,4.535355339059327L6.035355339059327,4.464644660940673L7.535355339059327,5.964644660940673L7.464644660940673,6.035355339059327z" stroke="none"/><path d="M19.53535533905933,5.964644660940673L19.46464466094067,6.035355339059327L19.26500360759563,5.835714285714285L19.05071789330992,5.835714285714285L18.62214646473849,5.407142857142857L17.12214646473849,5.407142857142857L16.69357503616706,4.978571428571429L16.050717893309915,4.978571428571429L15.807142857142857,4.734996392404369L15.807142857142857,2.765003607595631L16.050717893309915,2.521428571428572L17.37785353526151,2.521428571428572L18.020710678118654,3.1642857142857146L18.663567820975796,3.1642857142857146L18.87785353526151,3.3785714285714286L19.73499639240437,3.3785714285714286L19.94928210669008,3.592857142857143L20.163567820975796,3.592857142857143L21.44928210669008,4.878571428571429L21.663567820975796,4.878571428571429L21.87785353526151,5.0928571428571425L24.020710678118654,5.0928571428571425L24.23499639240437,5.307142857142857L25.73499639240437,5.307142857142857L25.978571428571428,5.550717893309916L25.978571428571428,6.449282106690083L24.44928210669008,7.978571428571428L23.592139249547223,7.978571428571428L23.37785353526151,8.192857142857143L22.30642496383294,8.192857142857143L21.87785353526151,8.62142857142857L21.663567820975796,8.62142857142857L21.23499639240437,9.05L21,9.05L21,8.95L21.19357503616706,8.95L21.62214646473849,8.521428571428569L21.836432179024204,8.521428571428569L22.26500360759563,8.092857142857142L23.336432179024204,8.092857142857142L23.550717893309915,7.878571428571428L24.407860750452773,7.878571428571428L25.878571428571426,6.407860750452773L25.878571428571426,5.592139249547226L25.69357503616706,5.407142857142857L24.19357503616706,5.407142857142857L23.979289321881346,5.192857142857142L21.836432179024204,5.192857142857142L21.62214646473849,4.978571428571429L21.407860750452773,4.978571428571429L20.12214646473849,3.6928571428571426L19.907860750452773,3.6928571428571426L19.69357503616706,3.478571428571428L18.836432179024204,3.478571428571428L18.62214646473849,3.2642857142857142L17.979289321881346,3.2642857142857142L17.336432179024204,2.6214285714285714L16.092139249547223,2.6214285714285714L15.907142857142858,2.8064249638329404L15.907142857142858,4.69357503616706L16.092139249547223,4.878571428571429L16.73499639240437,4.878571428571429L17.163567820975796,5.307142857142857L18.663567820975796,5.307142857142857L19.092139249547227,5.735714285714286L19.30642496383294,5.735714285714286z" stroke="none"/><path d="M26.96464466094067,2.9646446609406727L27.03535533905933,3.0353553390593273L26.80642496383294,3.2642857142857142L26.592139249547223,3.2642857142857142L26.37785353526151,3.478571428571428L26.163567820975796,3.478571428571428L25.94928210669008,3.6928571428571426L25.30642496383294,3.6928571428571426L25.092139249547223,3.907142857142857L24.87785353526151,3.907142857142857L24.23499639240437,4.55L24,4.55L24,4.45L24.19357503616706,4.45L24.836432179024204,3.8071428571428574L25.050717893309915,3.8071428571428574L25.26500360759563,3.592857142857143L25.907860750452773,3.592857142857143L26.12214646473849,3.3785714285714286L26.336432179024204,3.3785714285714286L26.550717893309915,3.1642857142857146L26.76500360759563,3.1642857142857146z" stroke="none"/><path d="M12,10.45L12,10.55L11.806424963832939,10.55L11.592139249547223,10.764285714285716L11.377853535261512,10.764285714285716L10.949282106690081,11.192857142857143L10.520710678118654,11.192857142857143L9.907142857142858,11.806424963832939L9.907142857142858,12.020710678118654L9.449282106690081,12.478571428571428L8.122146464738488,12.478571428571428L7.907860750452773,12.264285714285716L7.69357503616706,12.264285714285716L7.464644660940673,12.035355339059327L7.535355339059327,11.964644660940673L7.734996392404369,12.164285714285715L7.949282106690083,12.164285714285715L8.163567820975796,12.378571428571426L9.407860750452773,12.378571428571426L9.807142857142857,11.979289321881346L9.807142857142857,11.76500360759563L10.479289321881346,11.092857142857142L10.907860750452773,11.092857142857142L11.336432179024204,10.664285714285715L11.550717893309915,10.664285714285715L11.76500360759563,10.45z" stroke="none"/><path d="M22.45,3L22.55,3L22.55,3.6635678209757976L21.90714285714286,4.30642496383294L21.90714285714286,4.69357503616706L22.092139249547227,4.878571428571429L26.12214646473849,4.878571428571429L26.336432179024204,4.664285714285715L26.76500360759563,4.664285714285715L26.96464466094067,4.464644660940673L27.03535533905933,4.535355339059327L26.80642496383294,4.764285714285714L26.37785353526151,4.764285714285714L26.163567820975796,4.978571428571429L22.05071789330992,4.978571428571429L21.807142857142857,4.734996392404369L21.807142857142857,4.265003607595631L22.45,3.622146464738488z" stroke="none"/><path d="M4.45,6L4.55,6L4.55,6.234996392404369L3.907142857142857,6.8778535352615116L3.907142857142857,7.734996392404369L3.6928571428571426,7.949282106690083L3.6928571428571426,9.663567820975796L3.05,10.306424963832939L3.05,10.5L2.95,10.5L2.95,10.26500360759563L3.592857142857143,9.622146464738488L3.592857142857143,7.907860750452773L3.8071428571428574,7.69357503616706L3.8071428571428574,6.836432179024202L4.45,6.19357503616706z" stroke="none"/><path d="M22.5,12.05L22.5,11.95L23.12214646473849,11.95L23.550717893309915,11.521428571428569L25.479289321881346,11.521428571428569L25.69357503616706,11.307142857142857L26.12214646473849,11.307142857142857L26.96464466094067,10.464644660940673L27.03535533905933,10.535355339059327L26.163567820975796,11.407142857142858L25.73499639240437,11.407142857142858L25.520710678118654,11.62142857142857L23.592139249547223,11.62142857142857L23.163567820975796,12.05z" stroke="none"/><path d="M7.5,7.55L7.5,7.45L8.122146464738488,7.45L8.550717893309915,7.021428571428571L10.479289321881346,7.021428571428571L11.336432179024204,6.164285714285715L11.76500360759563,6.164285714285715L11.964644660940673,5.964644660940673L12.035355339059327,6.035355339059327L11.806424963832939,6.264285714285714L11.377853535261512,6.264285714285714L10.520710678118654,7.121428571428571L8.592139249547223,7.121428571428571L8.163567820975796,7.55z" stroke="none"/><path d="M19.5,3.05L19.5,2.95L21.62214646473849,2.95L22.05071789330992,2.521428571428572L24.87785353526151,2.521428571428572L25.30642496383294,2.95L25.5,2.95L25.5,3.05L25.26500360759563,3.05L24.836432179024204,2.6214285714285714L22.092139249547227,2.6214285714285714L21.663567820975796,3.05z" stroke="none"/><path d="M9,2.95L9,3.05L7.69357503616706,3.05L7.479289321881345,2.8357142857142854L6.836432179024202,2.8357142857142854L6.622146464738488,2.6214285714285714L4.092139249547226,2.6214285714285714L3.907142857142857,2.8064249638329404L3.907142857142857,4.265003607595631L4.121428571428571,4.479289321881345L4.121428571428571,4.907860750452774L4.520710678118655,5.307142857142857L4.734996392404369,5.307142857142857L4.978571428571429,5.550717893309916L4.978571428571429,6.8778535352615116L4.55,7.30642496383294L4.55,7.5L4.45,7.5L4.45,7.265003607595631L4.878571428571429,6.836432179024202L4.878571428571429,5.592139249547226L4.69357503616706,5.407142857142857L4.479289321881345,5.407142857142857L4.021428571428571,4.949282106690084L4.021428571428571,4.520710678118655L3.8071428571428574,4.30642496383294L3.8071428571428574,2.765003607595631L4.050717893309916,2.521428571428572L6.663567820975797,2.521428571428572L6.8778535352615116,2.7357142857142858L7.520710678118655,2.7357142857142858L7.734996392404369,2.95z" stroke="none"/><path d="M24,12.05L24,11.95L24.23499639240437,11.95L24.44928210669008,12.164285714285715L24.663567820975796,12.164285714285715L24.87785353526151,12.378571428571426L27.407860750452773,12.378571428571426L27.59285714285714,12.193575036167061L27.59285714285714,10.949282106690081L27.378571428571426,10.73499639240437L27.378571428571426,10.092139249547223L25.907860750452773,8.62142857142857L22.520710678118654,8.62142857142857L22.092139249547227,9.05L21.87785353526151,9.05L21.44928210669008,9.478571428571428L18.836432179024204,9.478571428571428L18.62214646473849,9.264285714285716L18.407860750452773,9.264285714285716L18.19357503616706,9.05L18,9.05L18,8.95L18.23499639240437,8.95L18.44928210669008,9.164285714285715L18.663567820975796,9.164285714285715L18.87785353526151,9.378571428571426L21.407860750452773,9.378571428571426L21.836432179024204,8.95L22.05071789330992,8.95L22.479289321881346,8.521428571428569L25.94928210669008,8.521428571428569L27.478571428571428,10.050717893309915L27.478571428571428,10.693575036167061L27.692857142857143,10.907860750452773L27.692857142857143,12.23499639240437L27.44928210669008,12.478571428571428L24.836432179024204,12.478571428571428L24.62214646473849,12.264285714285716L24.407860750452773,12.264285714285716L24.19357503616706,12.05z" stroke="none"/><path d="M26.95,7.5L27.05,7.5L27.05,8.336432179024204L27.478571428571428,8.76500360759563L27.478571428571428,8.979289321881346L27.692857142857143,9.193575036167061L27.692857142857143,10.479289321881346L27.90714285714286,10.693575036167061L27.90714285714286,12.449282106690081L27.663567820975796,12.692857142857143L22.26500360759563,12.692857142857143L22.021428571428572,12.449282106690081L22.021428571428572,12.23499639240437L21.807142857142857,12.020710678118654L21.807142857142857,11.806424963832939L21.59285714285714,11.592139249547223L21.59285714285714,11.377853535261512L21.164285714285715,10.949282106690081L21.164285714285715,10.73499639240437L20.96464466094067,10.535355339059327L21.03535533905933,10.464644660940673L21.264285714285716,10.693575036167061L21.264285714285716,10.907860750452773L21.692857142857143,11.336432179024204L21.692857142857143,11.550717893309915L21.90714285714286,11.76500360759563L21.90714285714286,11.979289321881346L22.121428571428574,12.193575036167061L22.121428571428574,12.407860750452773L22.30642496383294,12.592857142857142L27.62214646473849,12.592857142857142L27.807142857142857,12.407860750452773L27.807142857142857,10.73499639240437L27.59285714285714,10.520710678118654L27.59285714285714,9.23499639240437L27.378571428571426,9.020710678118654L27.378571428571426,8.806424963832939L26.95,8.377853535261512z" stroke="none"/><path d="M10.5,5.95L10.5,6.05L10.092139249547223,6.05L9.449282106690081,6.692857142857142L8.163567820975796,6.692857142857142L7.949282106690083,6.907142857142857L7.734996392404369,6.907142857142857L7.520710678118655,7.121428571428571L6.8778535352615116,7.121428571428571L6.663567820975797,7.335714285714285L6.449282106690083,7.335714285714285L6.234996392404369,7.55L5.592139249547226,7.55L5.3778535352615116,7.764285714285714L5.163567820975797,7.764285714285714L4.949282106690084,7.978571428571428L4.734996392404369,7.978571428571428L4.121428571428571,8.592139249547223L4.121428571428571,9.663567820975796L3.6928571428571426,10.092139249547223L3.6928571428571426,10.73499639240437L3.449282106690083,10.978571428571428L2.550717893309917,10.978571428571428L2.3071428571428574,10.73499639240437L2.3071428571428574,8.550717893309915L2.521428571428572,8.336432179024204L2.521428571428572,8.122146464738488L2.7357142857142858,7.907860750452773L2.7357142857142858,7.69357503616706L2.9646446609406727,7.464644660940673L3.0353553390593273,7.535355339059327L2.8357142857142854,7.734996392404369L2.8357142857142854,7.949282106690083L2.6214285714285714,8.163567820975796L2.6214285714285714,8.377853535261512L2.407142857142857,8.592139249547223L2.407142857142857,10.693575036167061L2.5921392495472264,10.878571428571426L3.4078607504527736,10.878571428571426L3.592857142857143,10.693575036167061L3.592857142857143,10.050717893309915L4.021428571428571,9.622146464738488L4.021428571428571,8.550717893309915L4.69357503616706,7.878571428571428L4.907860750452774,7.878571428571428L5.122146464738488,7.664285714285715L5.336432179024202,7.664285714285715L5.550717893309916,7.45L6.19357503616706,7.45L6.407860750452773,7.235714285714286L6.622146464738488,7.235714285714286L6.836432179024202,7.021428571428571L7.479289321881345,7.021428571428571L7.69357503616706,6.807142857142857L7.907860750452773,6.807142857142857L8.122146464738488,6.5928571428571425L9.407860750452773,6.5928571428571425L10.050717893309915,5.95z" stroke="none"/><path d="M16.5,12.05L16.5,11.95L16.69357503616706,11.95L16.907860750452773,11.735714285714284L17.336432179024204,11.735714285714284L17.76500360759563,11.307142857142857L18.836432179024204,11.307142857142857L19.907860750452773,10.235714285714284L20.336432179024204,10.235714285714284L20.55071789330992,10.021428571428569L23.37785353526151,10.021428571428569L23.80642496383294,10.45L24,10.45L24,10.55L23.76500360759563,10.55L23.336432179024204,10.12142857142857L20.592139249547227,10.12142857142857L20.37785353526151,10.335714285714285L19.94928210669008,10.335714285714285L18.87785353526151,11.407142857142858L17.80642496383294,11.407142857142858L17.37785353526151,11.835714285714285L16.94928210669008,11.835714285714285L16.73499639240437,12.05z" stroke="none"/><path d="M2.9646446609406727,12.035355339059327L3.0353553390593273,11.964644660940673L3.449282106690083,12.378571428571426L6.234996392404369,12.378571428571426L6.449282106690083,12.592857142857142L11.336432179024204,12.592857142857142L11.550717893309915,12.378571428571426L12.407860750452773,12.378571428571426L13.235714285714284,11.550717893309915L13.235714285714284,10.693575036167061L13.464644660940673,10.464644660940673L13.535355339059327,10.535355339059327L13.335714285714285,10.73499639240437L13.335714285714285,11.592139249547223L12.449282106690081,12.478571428571428L11.592139249547223,12.478571428571428L11.377853535261512,12.692857142857143L6.407860750452773,12.692857142857143L6.19357503616706,12.478571428571428L3.4078607504527736,12.478571428571428z" stroke="none"/><path d="M4.464644660940673,4.535355339059327L4.535355339059327,4.464644660940673L5.80642496383294,5.735714285714286L6.020710678118655,5.735714285714286L6.234996392404369,5.95L6.449282106690083,5.95L6.663567820975797,6.164285714285715L6.8778535352615116,6.164285714285715L7.092139249547226,6.378571428571428L9.193575036167061,6.378571428571428L10.050717893309915,5.521428571428571L12.449282106690081,5.521428571428571L13.12142857142857,6.19357503616706L13.12142857142857,6.407860750452773L13.520710678118654,6.807142857142857L13.73499639240437,6.807142857142857L13.949282106690081,7.021428571428571L14.377853535261512,7.021428571428571L14.592139249547223,7.235714285714286L14.806424963832939,7.235714285714286L15.035355339059327,7.464644660940673L14.964644660940673,7.535355339059327L14.76500360759563,7.335714285714285L14.550717893309915,7.335714285714285L14.336432179024204,7.121428571428571L13.907860750452773,7.121428571428571L13.693575036167061,6.907142857142857L13.479289321881346,6.907142857142857L13.021428571428569,6.449282106690083L13.021428571428569,6.234996392404369L12.407860750452773,5.621428571428571L10.092139249547223,5.621428571428571L9.23499639240437,6.478571428571428L7.050717893309916,6.478571428571428L6.836432179024202,6.264285714285714L6.622146464738488,6.264285714285714L6.407860750452773,6.05L6.19357503616706,6.05L5.979289321881345,5.835714285714285L5.765003607595631,5.835714285714285z" stroke="none"/><path d="M21,11.95L21,12.05L17.37785353526151,12.05L16.94928210669008,12.478571428571428L13.306424963832939,12.478571428571428L13.092139249547223,12.692857142857143L11.806424963832939,12.692857142857143L11.592139249547223,12.907142857142858L4.265003607595631,12.907142857142858L4.050717893309916,12.692857142857143L2.765003607595631,12.692857142857143L2.521428571428572,12.449282106690081L2.521428571428572,11.550717893309915L2.765003607595631,11.307142857142857L4.907860750452774,11.307142857142857L5.122146464738488,11.092857142857142L6.19357503616706,11.092857142857142L6.378571428571428,10.907860750452773L6.378571428571428,9.407860750452773L6.5928571428571425,9.193575036167061L6.5928571428571425,8.979289321881346L7.050717893309916,8.521428571428569L9.020710678118654,8.521428571428569L9.877853535261512,9.378571428571426L10.907860750452773,9.378571428571426L11.092857142857142,9.193575036167061L11.092857142857142,9.020710678118654L10.878571428571426,8.806424963832939L10.878571428571426,8.163567820975796L10.45,7.734996392404369L10.45,7.5L10.55,7.5L10.55,7.69357503616706L10.978571428571428,8.122146464738488L10.978571428571428,8.76500360759563L11.192857142857143,8.979289321881346L11.192857142857143,9.23499639240437L10.949282106690081,9.478571428571428L9.836432179024204,9.478571428571428L8.979289321881346,8.62142857142857L7.092139249547226,8.62142857142857L6.692857142857142,9.020710678118654L6.692857142857142,9.23499639240437L6.478571428571428,9.449282106690081L6.478571428571428,10.949282106690081L6.234996392404369,11.192857142857143L5.163567820975797,11.192857142857143L4.949282106690084,11.407142857142858L2.8064249638329404,11.407142857142858L2.6214285714285714,11.592139249547223L2.6214285714285714,12.407860750452773L2.8064249638329404,12.592857142857142L4.092139249547226,12.592857142857142L4.30642496383294,12.807142857142857L11.550717893309915,12.807142857142857L11.76500360759563,12.592857142857142L13.050717893309915,12.592857142857142L13.26500360759563,12.378571428571426L16.907860750452773,12.378571428571426L17.336432179024204,11.95z" stroke="none"/><path d="M13.5,3.05L13.5,2.95L14.76500360759563,2.95L14.979289321881346,2.7357142857142858L15.193575036167061,2.7357142857142858L15.622146464738488,2.3071428571428574L27.23499639240437,2.3071428571428574L27.478571428571428,2.550717893309917L27.478571428571428,3.449282106690083L27.23499639240437,3.6928571428571426L27.020710678118654,3.6928571428571426L26.80642496383294,3.907142857142857L26.592139249547223,3.907142857142857L26.163567820975796,4.335714285714285L25.94928210669008,4.335714285714285L25.73499639240437,4.55L25.5,4.55L25.5,4.45L25.69357503616706,4.45L25.907860750452773,4.235714285714286L26.12214646473849,4.235714285714286L26.550717893309915,3.8071428571428574L26.76500360759563,3.8071428571428574L26.979289321881346,3.592857142857143L27.19357503616706,3.592857142857143L27.378571428571426,3.4078607504527736L27.378571428571426,2.5921392495472264L27.19357503616706,2.407142857142857L15.663567820975796,2.407142857142857L15.23499639240437,2.8357142857142854L15.020710678118654,2.8357142857142854L14.806424963832939,3.05z" stroke="none"/></svg>