<svg version="1.1" width="30" height="15" xmlns="http://www.w3.org/2000/svg"><path d="M4.45,8.122146464738488L4.45,7.5L4.55,7.5L4.55,8.092857142857142L4.907860750452774,8.092857142857142L5.336432179024202,7.664285714285715L5.550717893309916,7.664285714285715L5.765003607595631,7.45L6,7.45L6,7.55L5.80642496383294,7.55L5.592139249547226,7.764285714285714L5.3778535352615116,7.764285714285714L4.949282106690084,8.192857142857143L4.520710678118655,8.192857142857143L4.30642496383294,8.407142857142858L4.092139249547226,8.407142857142858L3.6635678209757976,8.835714285714285L3.449282106690083,8.835714285714285L3.234996392404369,9.05L3,9.05L3,8.95L3.1935750361670596,8.95L3.4078607504527736,8.735714285714284L3.622146464738488,8.735714285714284L4.050717893309916,8.307142857142857L4.265003607595631,8.307142857142857z" stroke="none"/><path d="M9.857142857142858,9.357860750452772L10.050717893309915,9.164285714285715L10.26500360759563,9.164285714285715L10.464644660940673,8.964644660940673L10.535355339059327,9.035355339059327L10.306424963832939,9.264285714285716L10.092139249547223,9.264285714285716L9.907142857142858,9.449282106690081L9.907142857142858,9.622146464738488L10.12142857142857,9.836432179024204L10.12142857142857,10.050717893309915L10.335714285714285,10.26500360759563L10.335714285714285,10.479289321881346L10.55,10.693575036167061L10.55,12L10.45,12L10.45,10.73499639240437L10.235714285714284,10.520710678118654L10.235714285714284,10.306424963832939L10.021428571428569,10.092139249547223L10.021428571428569,9.877853535261512L9.807142857142857,9.663567820975796L9.807142857142857,9.449282106690081L9.592857142857142,9.23499639240437L9.592857142857142,9.020710678118654L9.378571428571426,8.806424963832939L9.378571428571426,8.592139249547223L9.164285714285715,8.377853535261512L9.164285714285715,7.949282106690083L8.95,7.734996392404369L8.95,7.5L9.05,7.5L9.05,7.69357503616706L9.264285714285716,7.907860750452773L9.264285714285716,8.336432179024204L9.478571428571428,8.550717893309915L9.478571428571428,8.76500360759563L9.692857142857143,8.979289321881346L9.692857142857143,9.193575036167061z" stroke="none"/><path d="M21.378571428571426,3.8071428571428574L21.378571428571426,3.6635678209757976L21.19357503616706,3.478571428571428L20.979289321881346,3.478571428571428L20.55071789330992,3.05L19.907860750452773,3.05L19.69357503616706,2.8357142857142854L18.44928210669008,2.8357142857142854L18.23499639240437,3.05L18,3.05L18,2.95L18.19357503616706,2.95L18.407860750452773,2.7357142857142858L19.73499639240437,2.7357142857142858L19.94928210669008,2.95L20.592139249547227,2.95L21.020710678118654,3.3785714285714286L21.23499639240437,3.3785714285714286L21.478571428571428,3.622146464738488L21.478571428571428,3.8071428571428574L21.663567820975796,3.8071428571428574L22.092139249547227,4.235714285714286L22.30642496383294,4.235714285714286L22.520710678118654,4.45L22.94928210669008,4.45L23.163567820975796,4.664285714285715L24.44928210669008,4.664285714285715L24.663567820975796,4.878571428571429L25.73499639240437,4.878571428571429L26.80642496383294,5.95L27,5.95L27,6.05L26.76500360759563,6.05L25.69357503616706,4.978571428571429L24.62214646473849,4.978571428571429L24.407860750452773,4.764285714285714L23.12214646473849,4.764285714285714L22.907860750452773,4.55L22.479289321881346,4.55L22.26500360759563,4.335714285714285L22.05071789330992,4.335714285714285L21.62214646473849,3.907142857142857L21.19357503616706,3.907142857142857L20.979289321881346,3.6928571428571426L20.76500360759563,3.6928571428571426L20.336432179024204,3.2642857142857142L19.69357503616706,3.2642857142857142L19.46464466094067,3.0353553390593273L19.53535533905933,2.9646446609406727L19.73499639240437,3.1642857142857146L20.37785353526151,3.1642857142857146L20.80642496383294,3.592857142857143L21.020710678118654,3.592857142857143L21.23499639240437,3.8071428571428574z" stroke="none"/><path d="M7.520710678118655,11.307142857142857L8.377853535261512,12.164285714285715L9.877853535261512,12.164285714285715L10.092139249547223,12.378571428571426L10.907860750452773,12.378571428571426L11.521428571428569,11.76500360759563L11.521428571428569,11.550717893309915L11.735714285714284,11.336432179024204L11.735714285714284,10.693575036167061L11.964644660940673,10.464644660940673L12.035355339059327,10.535355339059327L11.835714285714285,10.73499639240437L11.835714285714285,11.377853535261512L11.62142857142857,11.592139249547223L11.62142857142857,11.806424963832939L10.949282106690081,12.478571428571428L10.050717893309915,12.478571428571428L9.836432179024204,12.264285714285716L8.336432179024204,12.264285714285716L7.479289321881345,11.407142857142858L7.192139249547226,11.407142857142858L7.335714285714285,11.550717893309915L7.335714285714285,11.76500360759563L7.535355339059327,11.964644660940673L7.464644660940673,12.035355339059327L7.235714285714286,11.806424963832939L7.235714285714286,11.592139249547223L7.071428571428571,11.427853535261512L6.8778535352615116,11.62142857142857L6.663567820975797,11.62142857142857L6.234996392404369,12.05L6,12.05L6,11.95L6.19357503616706,11.95L6.622146464738488,11.521428571428569L6.836432179024202,11.521428571428569L6.950717893309917,11.407142857142858L5.80642496383294,11.407142857142858L5.3778535352615116,11.835714285714285L5.163567820975797,11.835714285714285L4.949282106690084,12.05L3,12.05L3,11.95L4.907860750452774,11.95L5.122146464738488,11.735714285714284L5.336432179024202,11.735714285714284L5.765003607595631,11.307142857142857z" stroke="none"/><path d="M22.664285714285715,9.807142857142857L22.664285714285715,9.23499639240437L22.46464466094067,9.035355339059327L22.53535533905933,8.964644660940673L22.764285714285716,9.193575036167061L22.764285714285716,9.807142857142857L23.37785353526151,9.807142857142857L23.592139249547223,10.021428571428569L24.020710678118654,10.021428571428569L24.23499639240437,10.235714285714284L24.663567820975796,10.235714285714284L24.87785353526151,10.45L27,10.45L27,10.55L24.836432179024204,10.55L24.62214646473849,10.335714285714285L24.19357503616706,10.335714285714285L23.979289321881346,10.12142857142857L23.550717893309915,10.12142857142857L23.336432179024204,9.907142857142858L22.83499639240437,9.907142857142858L22.978571428571428,10.050717893309915L22.978571428571428,11.163567820975796L22.764285714285716,11.377853535261512L22.764285714285716,11.592139249547223L22.55,11.806424963832939L22.55,12L22.45,12L22.45,11.76500360759563L22.664285714285715,11.550717893309915L22.664285714285715,11.336432179024204L22.878571428571426,11.122146464738488L22.878571428571426,10.092139249547223L22.69357503616706,9.907142857142858L21.836432179024204,9.907142857142858L21.62214646473849,9.692857142857143L21.407860750452773,9.692857142857143L21.19357503616706,9.478571428571428L20.336432179024204,9.478571428571428L20.12214646473849,9.264285714285716L19.69357503616706,9.264285714285716L19.46464466094067,9.035355339059327L19.53535533905933,8.964644660940673L19.73499639240437,9.164285714285715L20.163567820975796,9.164285714285715L20.37785353526151,9.378571428571426L21.23499639240437,9.378571428571426L21.44928210669008,9.592857142857142L21.663567820975796,9.592857142857142L21.87785353526151,9.807142857142857z" stroke="none"/><path d="M14.092857142857142,5.95L14.092857142857142,5.80642496383294L13.907860750452773,5.621428571428571L13.479289321881346,5.621428571428571L13.26500360759563,5.407142857142857L12.407860750452773,5.407142857142857L12.193575036167061,5.192857142857142L11.979289321881346,5.192857142857142L11.76500360759563,4.978571428571429L11.550717893309915,4.978571428571429L10.050717893309915,3.478571428571428L9.836432179024204,3.478571428571428L9.622146464738488,3.2642857142857142L9.193575036167061,3.2642857142857142L8.964644660940673,3.0353553390593273L9.035355339059327,2.9646446609406727L9.23499639240437,3.1642857142857146L9.663567820975796,3.1642857142857146L9.877853535261512,3.3785714285714286L10.092139249547223,3.3785714285714286L11.592139249547223,4.878571428571429L11.806424963832939,4.878571428571429L12.020710678118654,5.0928571428571425L12.23499639240437,5.0928571428571425L12.449282106690081,5.307142857142857L13.306424963832939,5.307142857142857L13.520710678118654,5.521428571428571L13.949282106690081,5.521428571428571L14.192857142857143,5.765003607595631L14.192857142857143,5.95L18.23499639240437,5.95L18.44928210669008,6.164285714285715L18.87785353526151,6.164285714285715L19.520710678118654,6.807142857142857L20.163567820975796,6.807142857142857L20.80642496383294,7.45L21,7.45L21,7.55L20.76500360759563,7.55L20.12214646473849,6.907142857142857L19.479289321881346,6.907142857142857L18.836432179024204,6.264285714285714L18.407860750452773,6.264285714285714L18.19357503616706,6.05L14.263567820975798,6.05L14.592139249547223,6.378571428571428L15.020710678118654,6.378571428571428L15.23499639240437,6.5928571428571425L15.877853535261512,6.5928571428571425L16.092139249547223,6.807142857142857L16.520710678118654,6.807142857142857L16.73499639240437,7.021428571428571L17.163567820975796,7.021428571428571L17.592139249547227,7.45L18,7.45L18,7.55L17.55071789330992,7.55L17.12214646473849,7.121428571428571L16.69357503616706,7.121428571428571L16.479289321881346,6.907142857142857L16.050717893309915,6.907142857142857L15.836432179024204,6.692857142857142L15.193575036167061,6.692857142857142L14.979289321881346,6.478571428571428L14.550717893309915,6.478571428571428L14.122146464738488,6.05L11.76500360759563,6.05L11.550717893309915,5.835714285714285L11.336432179024204,5.835714285714285L11.122146464738488,5.621428571428571L9.663567820975796,5.621428571428571L9.449282106690081,5.835714285714285L9.23499639240437,5.835714285714285L9.035355339059327,6.035355339059327L8.964644660940673,5.964644660940673L9.193575036167061,5.735714285714286L9.407860750452773,5.735714285714286L9.622146464738488,5.521428571428571L11.163567820975796,5.521428571428571L11.377853535261512,5.735714285714286L11.592139249547223,5.735714285714286L11.806424963832939,5.95z" stroke="none"/><path d="M22.5,3.05L22.5,2.95L24,2.95L24,3.05z" stroke="none"/><path d="M4.5,2.95L4.5,3.05L3,3.05L3,2.95z" stroke="none"/><path d="M7.45,6L7.55,6L7.55,7.5L7.45,7.5z" stroke="none"/><path d="M20.96464466094067,6.035355339059327L21.03535533905933,5.964644660940673L22.53535533905933,7.464644660940673L22.46464466094067,7.535355339059327z" stroke="none"/><path d="M26.96464466094067,2.9646446609406727L27.03535533905933,3.0353553390593273L25.53535533905933,4.535355339059327L25.46464466094067,4.464644660940673z" stroke="none"/><path d="M21,8.95L21,9.05L20.55071789330992,9.05L20.336432179024204,8.835714285714285L20.12214646473849,8.835714285714285L19.907860750452773,8.62142857142857L18.44928210669008,8.62142857142857L18.03535533905933,9.035355339059327L17.96464466094067,8.964644660940673L18.407860750452773,8.521428571428569L19.94928210669008,8.521428571428569L20.163567820975796,8.735714285714284L20.37785353526151,8.735714285714284L20.592139249547227,8.95z" stroke="none"/><path d="M12.035355339059327,8.964644660940673L11.964644660940673,9.035355339059327L10.479289321881346,7.55L10.26500360759563,7.55L10.050717893309915,7.335714285714285L9.622146464738488,7.335714285714285L9.407860750452773,7.121428571428571L8.592139249547223,7.121428571428571L8.407142857142858,7.30642496383294L8.407142857142858,9.622146464738488L8.835714285714285,10.050717893309915L8.835714285714285,10.26500360759563L9.035355339059327,10.464644660940673L8.964644660940673,10.535355339059327L8.735714285714284,10.306424963832939L8.735714285714284,10.092139249547223L8.307142857142857,9.663567820975796L8.307142857142857,7.265003607595631L8.550717893309915,7.021428571428571L9.449282106690081,7.021428571428571L9.663567820975796,7.235714285714286L10.092139249547223,7.235714285714286L10.306424963832939,7.45L10.520710678118654,7.45z" stroke="none"/><path d="M22.45,10.5L22.55,10.5L22.55,10.73499639240437L22.121428571428574,11.163567820975796L22.121428571428574,12.407860750452773L22.30642496383294,12.592857142857142L24.836432179024204,12.592857142857142L25.46464466094067,11.964644660940673L25.53535533905933,12.035355339059327L24.87785353526151,12.692857142857143L22.26500360759563,12.692857142857143L22.021428571428572,12.449282106690081L22.021428571428572,11.122146464738488L22.45,10.693575036167061z" stroke="none"/><path d="M7.45,3L7.55,3L7.55,3.8364321790242024L7.978571428571428,4.265003607595631L7.978571428571428,5.336432179024202L8.192857142857143,5.550717893309916L8.192857142857143,5.979289321881345L8.592139249547223,6.378571428571428L9.407860750452773,6.378571428571428L9.622146464738488,6.164285714285715L10.26500360759563,6.164285714285715L10.464644660940673,5.964644660940673L10.535355339059327,6.035355339059327L10.306424963832939,6.264285714285714L9.663567820975796,6.264285714285714L9.449282106690081,6.478571428571428L8.550717893309915,6.478571428571428L8.092857142857142,6.020710678118655L8.092857142857142,5.592139249547226L7.878571428571428,5.3778535352615116L7.878571428571428,4.30642496383294L7.45,3.877853535261512z" stroke="none"/><path d="M7.5,10.45L7.5,10.55L6.19357503616706,10.55L5.765003607595631,10.12142857142857L4.092139249547226,10.12142857142857L3.877853535261512,10.335714285714285L3.449282106690083,10.335714285714285L3.234996392404369,10.55L3,10.55L3,10.45L3.1935750361670596,10.45L3.4078607504527736,10.235714285714284L3.8364321790242024,10.235714285714284L4.050717893309916,10.021428571428569L5.80642496383294,10.021428571428569L6.234996392404369,10.45z" stroke="none"/><path d="M21,4.45L21,4.55L20.336432179024204,4.55L19.907860750452773,4.121428571428571L18.19357503616706,4.121428571428571L17.521428571428572,3.449282106690083L17.521428571428572,2.550717893309917L17.76500360759563,2.3071428571428574L24.23499639240437,2.3071428571428574L24.87785353526151,2.95L25.5,2.95L25.5,3.05L24.836432179024204,3.05L24.19357503616706,2.407142857142857L17.80642496383294,2.407142857142857L17.621428571428574,2.5921392495472264L17.621428571428574,3.4078607504527736L18.23499639240437,4.021428571428571L19.94928210669008,4.021428571428571L20.37785353526151,4.45z" stroke="none"/><path d="M2.95,4.5L3.05,4.5L3.05,5.3778535352615116L2.6214285714285714,5.80642496383294L2.6214285714285714,7.734996392404369L2.407142857142857,7.949282106690083L2.407142857142857,9.193575036167061L2.5921392495472264,9.378571428571426L3.8364321790242024,9.378571428571426L4.050717893309916,9.164285714285715L4.265003607595631,9.164285714285715L4.464644660940673,8.964644660940673L4.535355339059327,9.035355339059327L4.30642496383294,9.264285714285716L4.092139249547226,9.264285714285716L3.877853535261512,9.478571428571428L2.550717893309917,9.478571428571428L2.3071428571428574,9.23499639240437L2.3071428571428574,7.907860750452773L2.521428571428572,7.69357503616706L2.521428571428572,5.765003607595631L2.95,5.336432179024202z" stroke="none"/><path d="M25.5,9.05L25.5,8.95L25.73499639240437,8.95L26.37785353526151,9.592857142857142L26.80642496383294,9.592857142857142L27.020710678118654,9.807142857142857L27.23499639240437,9.807142857142857L27.478571428571428,10.050717893309915L27.478571428571428,10.949282106690081L25.94928210669008,12.478571428571428L25.520710678118654,12.478571428571428L25.092139249547223,12.907142857142858L22.05071789330992,12.907142857142858L21.407860750452773,12.264285714285716L21.19357503616706,12.264285714285716L20.96464466094067,12.035355339059327L21.03535533905933,11.964644660940673L21.23499639240437,12.164285714285715L21.44928210669008,12.164285714285715L22.092139249547227,12.807142857142857L25.050717893309915,12.807142857142857L25.479289321881346,12.378571428571426L25.907860750452773,12.378571428571426L27.378571428571426,10.907860750452773L27.378571428571426,10.092139249547223L27.19357503616706,9.907142857142858L26.979289321881346,9.907142857142858L26.76500360759563,9.692857142857143L26.336432179024204,9.692857142857143L25.69357503616706,9.05z" stroke="none"/><path d="M24.03535533905933,7.464644660940673L23.96464466094067,7.535355339059327L23.76500360759563,7.335714285714285L23.550717893309915,7.335714285714285L23.336432179024204,7.121428571428571L23.12214646473849,7.121428571428571L21.62214646473849,5.621428571428571L20.76500360759563,5.621428571428571L19.69357503616706,4.55L19.5,4.55L19.5,4.45L19.73499639240437,4.45L20.80642496383294,5.521428571428571L21.663567820975796,5.521428571428571L23.163567820975796,7.021428571428571L23.37785353526151,7.021428571428571L23.592139249547223,7.235714285714286L23.80642496383294,7.235714285714286z" stroke="none"/><path d="M19.5,5.95L19.5,6.05L19.05071789330992,6.05L18.836432179024204,5.835714285714285L18.62214646473849,5.835714285714285L17.76500360759563,4.978571428571429L17.55071789330992,4.978571428571429L17.12214646473849,4.55L16.69357503616706,4.55L16.479289321881346,4.335714285714285L16.26500360759563,4.335714285714285L14.964644660940673,3.0353553390593273L15.035355339059327,2.9646446609406727L16.30642496383294,4.235714285714286L16.520710678118654,4.235714285714286L16.73499639240437,4.45L17.163567820975796,4.45L17.592139249547227,4.878571428571429L17.80642496383294,4.878571428571429L18.663567820975796,5.735714285714286L18.87785353526151,5.735714285714286L19.092139249547227,5.95z" stroke="none"/><path d="M12,12.05L12,11.95L18,11.95L18,12.05z" stroke="none"/><path d="M19.5,10.45L19.5,10.55L19.05071789330992,10.55L18.62214646473849,10.12142857142857L18.407860750452773,10.12142857142857L18.19357503616706,9.907142857142858L17.12214646473849,9.907142857142858L16.907860750452773,9.692857142857143L14.122146464738488,9.692857142857143L13.464644660940673,9.035355339059327L13.535355339059327,8.964644660940673L14.163567820975796,9.592857142857142L16.94928210669008,9.592857142857142L17.163567820975796,9.807142857142857L18.23499639240437,9.807142857142857L18.44928210669008,10.021428571428569L18.663567820975796,10.021428571428569L19.092139249547227,10.45z" stroke="none"/><path d="M12.035355339059327,4.464644660940673L11.964644660940673,4.535355339059327L10.907860750452773,3.478571428571428L10.693575036167061,3.478571428571428L10.050717893309915,2.8357142857142854L9.836432179024204,2.8357142857142854L9.622146464738488,2.6214285714285714L7.092139249547226,2.6214285714285714L6.907142857142857,2.8064249638329404L6.907142857142857,4.734996392404369L6.478571428571428,5.163567820975797L6.478571428571428,8.163567820975796L6.05,8.592139249547223L6.05,9L5.95,9L5.95,8.550717893309915L6.378571428571428,8.122146464738488L6.378571428571428,5.122146464738488L6.807142857142857,4.69357503616706L6.807142857142857,2.765003607595631L7.050717893309916,2.521428571428572L9.663567820975796,2.521428571428572L9.877853535261512,2.7357142857142858L10.092139249547223,2.7357142857142858L10.73499639240437,3.3785714285714286L10.949282106690081,3.3785714285714286z" stroke="none"/><path d="M13.5,2.95L13.5,3.05L11.122146464738488,3.05L10.907860750452773,2.8357142857142854L10.479289321881346,2.8357142857142854L10.26500360759563,2.6214285714285714L10.050717893309915,2.6214285714285714L9.836432179024204,2.407142857142857L6.8778535352615116,2.407142857142857L4.949282106690084,4.335714285714285L4.734996392404369,4.335714285714285L4.535355339059327,4.535355339059327L4.464644660940673,4.464644660940673L4.69357503616706,4.235714285714286L4.907860750452774,4.235714285714286L6.836432179024202,2.3071428571428574L9.877853535261512,2.3071428571428574L10.092139249547223,2.521428571428572L10.306424963832939,2.521428571428572L10.520710678118654,2.7357142857142858L10.949282106690081,2.7357142857142858L11.163567820975796,2.95z" stroke="none"/><path d="M4.535355339059327,5.964644660940673L4.464644660940673,6.035355339059327L4.021428571428571,5.592139249547226L4.021428571428571,5.163567820975797L3.592857142857143,4.734996392404369L3.592857142857143,4.30642496383294L3.4078607504527736,4.121428571428571L2.5921392495472264,4.121428571428571L2.407142857142857,4.30642496383294L2.407142857142857,7.520710678118655L2.1928571428571426,7.734996392404369L2.1928571428571426,9.407860750452773L2.377853535261512,9.592857142857142L5.550717893309916,9.592857142857142L5.765003607595631,9.378571428571426L6.407860750452773,9.378571428571426L7.878571428571428,7.907860750452773L7.878571428571428,7.265003607595631L8.336432179024204,6.807142857142857L12.663567820975796,6.807142857142857L13.092139249547223,7.235714285714286L13.306424963832939,7.235714285714286L13.535355339059327,7.464644660940673L13.464644660940673,7.535355339059327L13.26500360759563,7.335714285714285L13.050717893309915,7.335714285714285L12.622146464738488,6.907142857142857L8.377853535261512,6.907142857142857L7.978571428571428,7.30642496383294L7.978571428571428,7.949282106690083L6.449282106690083,9.478571428571428L5.80642496383294,9.478571428571428L5.592139249547226,9.692857142857143L2.3364321790242024,9.692857142857143L2.092857142857143,9.449282106690081L2.092857142857143,7.69357503616706L2.3071428571428574,7.479289321881345L2.3071428571428574,4.265003607595631L2.550717893309917,4.021428571428571L3.449282106690083,4.021428571428571L3.6928571428571426,4.265003607595631L3.6928571428571426,4.69357503616706L4.121428571428571,5.122146464738488L4.121428571428571,5.550717893309916z" stroke="none"/><path d="M25.45,6L25.55,6L25.55,6.663567820975797L24.692857142857143,7.520710678118655L24.692857142857143,7.734996392404369L24.44928210669008,7.978571428571428L17.80642496383294,7.978571428571428L16.94928210669008,8.835714285714285L16.73499639240437,8.835714285714285L16.53535533905933,9.035355339059327L16.46464466094067,8.964644660940673L16.69357503616706,8.735714285714284L16.907860750452773,8.735714285714284L17.76500360759563,7.878571428571428L24.407860750452773,7.878571428571428L24.59285714285714,7.69357503616706L24.59285714285714,7.479289321881345L25.45,6.622146464738488z" stroke="none"/><path d="M18.03535533905933,4.464644660940673L17.96464466094067,4.535355339059327L17.307142857142857,3.877853535261512L17.307142857142857,2.3364321790242024L17.55071789330992,2.092857142857143L27.020710678118654,2.092857142857143L27.478571428571428,2.550717893309917L27.478571428571428,8.377853535261512L27.264285714285716,8.592139249547223L27.264285714285716,8.806424963832939L27.03535533905933,9.035355339059327L26.96464466094067,8.964644660940673L27.164285714285715,8.76500360759563L27.164285714285715,8.550717893309915L27.378571428571426,8.336432179024204L27.378571428571426,2.5921392495472264L26.979289321881346,2.1928571428571426L17.592139249547227,2.1928571428571426L17.40714285714286,2.377853535261512L17.40714285714286,3.8364321790242024z" stroke="none"/><path d="M4.464644660940673,10.464644660940673L4.535355339059327,10.535355339059327L4.30642496383294,10.764285714285716L4.092139249547226,10.764285714285716L3.877853535261512,10.978571428571428L3.6635678209757976,10.978571428571428L3.449282106690083,11.192857142857143L3.020710678118655,11.192857142857143L2.6214285714285714,11.592139249547223L2.6214285714285714,12.407860750452773L2.8064249638329404,12.592857142857142L17.12214646473849,12.592857142857142L17.336432179024204,12.378571428571426L18.407860750452773,12.378571428571426L19.878571428571426,10.907860750452773L19.878571428571426,10.092139249547223L19.479289321881346,9.692857142857143L19.26500360759563,9.692857142857143L19.05071789330992,9.478571428571428L15.836432179024204,9.478571428571428L15.622146464738488,9.264285714285716L15.193575036167061,9.264285714285716L14.964644660940673,9.035355339059327L15.035355339059327,8.964644660940673L15.23499639240437,9.164285714285715L15.663567820975796,9.164285714285715L15.877853535261512,9.378571428571426L19.092139249547227,9.378571428571426L19.30642496383294,9.592857142857142L19.520710678118654,9.592857142857142L19.978571428571428,10.050717893309915L19.978571428571428,10.949282106690081L18.44928210669008,12.478571428571428L17.37785353526151,12.478571428571428L17.163567820975796,12.692857142857143L2.765003607595631,12.692857142857143L2.521428571428572,12.449282106690081L2.521428571428572,11.550717893309915L2.979289321881345,11.092857142857142L3.4078607504527736,11.092857142857142L3.622146464738488,10.878571428571426L3.8364321790242024,10.878571428571426L4.050717893309916,10.664285714285715L4.265003607595631,10.664285714285715z" stroke="none"/><path d="M24,9.05L24,8.95L24.62214646473849,8.95L25.050717893309915,8.521428571428569L25.94928210669008,8.521428571428569L26.40714285714286,8.979289321881346L26.40714285714286,9.193575036167061L26.592139249547223,9.378571428571426L27.407860750452773,9.378571428571426L27.59285714285714,9.193575036167061L27.59285714285714,2.377853535261512L27.19357503616706,1.9785714285714286L15.877853535261512,1.9785714285714286L15.663567820975796,2.1928571428571426L15.23499639240437,2.1928571428571426L15.020710678118654,2.407142857142857L14.806424963832939,2.407142857142857L14.62142857142857,2.5921392495472264L14.62142857142857,2.8064249638329404L13.764285714285716,3.6635678209757976L13.764285714285716,4.30642496383294L13.535355339059327,4.535355339059327L13.464644660940673,4.464644660940673L13.664285714285715,4.265003607595631L13.664285714285715,3.622146464738488L14.521428571428569,2.765003607595631L14.521428571428569,2.550717893309917L14.76500360759563,2.3071428571428574L14.979289321881346,2.3071428571428574L15.193575036167061,2.092857142857143L15.622146464738488,2.092857142857143L15.836432179024204,1.8785714285714286L27.23499639240437,1.8785714285714286L27.692857142857143,2.3364321790242024L27.692857142857143,9.23499639240437L27.44928210669008,9.478571428571428L26.550717893309915,9.478571428571428L26.307142857142857,9.23499639240437L26.307142857142857,9.020710678118654L25.907860750452773,8.62142857142857L25.092139249547223,8.62142857142857L24.663567820975796,9.05z" stroke="none"/></svg>