<svg version="1.1" width="30" height="15" xmlns="http://www.w3.org/2000/svg"><path d="M17.979289321881346,3.8071428571428574L18.407860750452773,3.3785714285714286L20.12214646473849,3.3785714285714286L20.336432179024204,3.1642857142857146L20.76500360759563,3.1642857142857146L20.96464466094067,2.9646446609406727L21.03535533905933,3.0353553390593273L20.80642496383294,3.2642857142857142L20.37785353526151,3.2642857142857142L20.163567820975796,3.478571428571428L18.44928210669008,3.478571428571428L18.020710678118654,3.907142857142857L17.477853535261513,3.907142857142857L18.03535533905933,4.464644660940673L17.96464466094067,4.535355339059327L17.336432179024204,3.907142857142857L16.30642496383294,3.907142857142857L15.877853535261512,4.335714285714285L15.23499639240437,4.335714285714285L15.020710678118654,4.55L13.5,4.55L13.5,4.45L14.979289321881346,4.45L15.193575036167061,4.235714285714286L15.836432179024204,4.235714285714286L16.26500360759563,3.8071428571428574z" stroke="none"/><path d="M20.95,10.520710678118654L20.735714285714284,10.306424963832939L20.735714285714284,9.877853535261512L20.521428571428572,9.663567820975796L20.521428571428572,7.734996392404369L19.907860750452773,7.121428571428571L19.092139249547227,7.121428571428571L18.478571428571428,7.734996392404369L18.478571428571428,7.949282106690083L18.23499639240437,8.192857142857143L18.020710678118654,8.192857142857143L17.621428571428574,8.592139249547223L17.621428571428574,9.020710678118654L17.40714285714286,9.23499639240437L17.40714285714286,9.449282106690081L16.764285714285716,10.092139249547223L16.764285714285716,10.306424963832939L16.53535533905933,10.535355339059327L16.46464466094067,10.464644660940673L16.664285714285715,10.26500360759563L16.664285714285715,10.050717893309915L17.307142857142857,9.407860750452773L17.307142857142857,9.193575036167061L17.521428571428572,8.979289321881346L17.521428571428572,8.550717893309915L17.979289321881346,8.092857142857142L18.19357503616706,8.092857142857142L18.378571428571426,7.907860750452773L18.378571428571426,7.69357503616706L19.05071789330992,7.021428571428571L19.94928210669008,7.021428571428571L20.621428571428574,7.69357503616706L20.621428571428574,9.622146464738488L20.835714285714285,9.836432179024204L20.835714285714285,10.26500360759563L21.05,10.479289321881346L21.05,10.878571428571426L21.62214646473849,10.878571428571426L22.05071789330992,10.45L22.5,10.45L22.5,10.55L22.092139249547227,10.55L21.663567820975796,10.978571428571428L21.05,10.978571428571428L21.05,11.122146464738488L21.23499639240437,11.307142857142857L22.30642496383294,11.307142857142857L22.520710678118654,11.521428571428569L22.94928210669008,11.521428571428569L23.163567820975796,11.735714285714284L23.80642496383294,11.735714285714284L24.03535533905933,11.964644660940673L23.96464466094067,12.035355339059327L23.76500360759563,11.835714285714285L23.12214646473849,11.835714285714285L22.907860750452773,11.62142857142857L22.479289321881346,11.62142857142857L22.26500360759563,11.407142857142858L21.19357503616706,11.407142857142858L20.95,11.163567820975796z" stroke="none"/><path d="M19.878571428571426,9.378571428571426L19.878571428571426,8.806424963832939L19.664285714285715,8.592139249547223L19.664285714285715,8.377853535261512L19.45,8.163567820975796L19.45,7.5L19.55,7.5L19.55,8.122146464738488L19.764285714285716,8.336432179024204L19.764285714285716,8.550717893309915L19.978571428571428,8.76500360759563L19.978571428571428,9.622146464738488L20.40714285714286,10.050717893309915L20.40714285714286,10.479289321881346L20.621428571428574,10.693575036167061L20.621428571428574,11.122146464738488L21.020710678118654,11.521428571428569L21.23499639240437,11.521428571428569L21.44928210669008,11.735714285714284L22.092139249547227,11.735714285714284L22.30642496383294,11.95L22.5,11.95L22.5,12.05L22.26500360759563,12.05L22.05071789330992,11.835714285714285L21.407860750452773,11.835714285714285L21.19357503616706,11.62142857142857L20.979289321881346,11.62142857142857L20.521428571428572,11.163567820975796L20.521428571428572,10.73499639240437L20.307142857142857,10.520710678118654L20.307142857142857,10.092139249547223L19.878571428571426,9.663567820975796L19.878571428571426,9.478571428571428L19.05071789330992,9.478571428571428L18.62214646473849,9.05L18,9.05L18,8.95L18.663567820975796,8.95L19.092139249547227,9.378571428571426z" stroke="none"/><path d="M11.092857142857142,8.092857142857142L11.092857142857142,7.949282106690083L10.907860750452773,7.764285714285714L10.693575036167061,7.764285714285714L10.479289321881346,7.55L9.836432179024204,7.55L9.622146464738488,7.335714285714285L7.050717893309916,7.335714285714285L6.836432179024202,7.121428571428571L6.407860750452773,7.121428571428571L6.19357503616706,6.907142857142857L5.979289321881345,6.907142857142857L5.521428571428571,6.449282106690083L5.521428571428571,5.550717893309916L5.765003607595631,5.307142857142857L7.907860750452773,5.307142857142857L8.336432179024204,4.878571428571429L8.550717893309915,4.878571428571429L8.979289321881346,4.45L9.407860750452773,4.45L9.622146464738488,4.235714285714286L9.836432179024204,4.235714285714286L10.050717893309915,4.021428571428571L10.949282106690081,4.021428571428571L11.163567820975796,4.235714285714286L11.592139249547223,4.235714285714286L11.806424963832939,4.45L12.449282106690081,4.45L12.877853535261512,4.878571428571429L16.520710678118654,4.878571428571429L17.163567820975796,5.521428571428571L17.37785353526151,5.521428571428571L17.592139249547227,5.735714285714286L17.80642496383294,5.735714285714286L18.03535533905933,5.964644660940673L17.96464466094067,6.035355339059327L17.76500360759563,5.835714285714285L17.55071789330992,5.835714285714285L17.336432179024204,5.621428571428571L17.12214646473849,5.621428571428571L16.479289321881346,4.978571428571429L12.836432179024204,4.978571428571429L12.407860750452773,4.55L11.76500360759563,4.55L11.550717893309915,4.335714285714285L11.122146464738488,4.335714285714285L10.907860750452773,4.121428571428571L10.092139249547223,4.121428571428571L9.877853535261512,4.335714285714285L9.663567820975796,4.335714285714285L9.449282106690081,4.55L9.020710678118654,4.55L8.592139249547223,4.978571428571429L8.377853535261512,4.978571428571429L7.949282106690083,5.407142857142857L5.80642496383294,5.407142857142857L5.621428571428571,5.592139249547226L5.621428571428571,6.407860750452773L6.020710678118655,6.807142857142857L6.234996392404369,6.807142857142857L6.449282106690083,7.021428571428571L6.8778535352615116,7.021428571428571L7.092139249547226,7.235714285714286L9.663567820975796,7.235714285714286L9.877853535261512,7.45L10.520710678118654,7.45L10.73499639240437,7.664285714285715L10.949282106690081,7.664285714285715L11.192857142857143,7.907860750452773L11.192857142857143,8.806424963832939L9.663567820975796,10.335714285714285L9.449282106690081,10.335714285714285L9.23499639240437,10.55L9,10.55L9,10.45L9.193575036167061,10.45L9.407860750452773,10.235714285714284L9.622146464738488,10.235714285714284L11.092857142857142,8.76500360759563L11.092857142857142,8.263567820975798L10.978571428571428,8.377853535261512L10.978571428571428,8.592139249547223L10.535355339059327,9.035355339059327L10.464644660940673,8.964644660940673L10.878571428571426,8.550717893309915L10.878571428571426,8.336432179024204L11.022146464738487,8.192857142857143L10.050717893309915,8.192857142857143L9.836432179024204,7.978571428571428L9.622146464738488,7.978571428571428L9.193575036167061,7.55L7.5,7.55L7.5,7.45L9.23499639240437,7.45L9.663567820975796,7.878571428571428L9.877853535261512,7.878571428571428L10.092139249547223,8.092857142857142z" stroke="none"/><path d="M12.020710678118654,5.95L13.5,5.95L13.5,6.05L12.05,6.05L12.05,6.19357503616706L12.23499639240437,6.378571428571428L13.092139249547223,6.378571428571428L13.306424963832939,6.5928571428571425L15.020710678118654,6.5928571428571425L15.23499639240437,6.807142857142857L16.092139249547223,6.807142857142857L16.30642496383294,7.021428571428571L17.163567820975796,7.021428571428571L17.37785353526151,7.235714285714286L17.592139249547227,7.235714285714286L17.80642496383294,7.45L18,7.45L18,7.55L17.76500360759563,7.55L17.55071789330992,7.335714285714285L17.336432179024204,7.335714285714285L17.12214646473849,7.121428571428571L16.26500360759563,7.121428571428571L16.050717893309915,6.907142857142857L15.193575036167061,6.907142857142857L14.979289321881346,6.692857142857142L13.26500360759563,6.692857142857142L13.050717893309915,6.478571428571428L12.193575036167061,6.478571428571428L11.95,6.234996392404369L11.95,6.05L11.550717893309915,6.05L11.336432179024204,5.835714285714285L11.122146464738488,5.835714285714285L10.907860750452773,5.621428571428571L9.020710678118654,5.621428571428571L8.806424963832939,5.835714285714285L6.8778535352615116,5.835714285714285L6.663567820975797,6.05L6,6.05L6,5.95L6.622146464738488,5.95L6.836432179024202,5.735714285714286L8.76500360759563,5.735714285714286L8.979289321881346,5.521428571428571L10.949282106690081,5.521428571428571L11.163567820975796,5.735714285714286L11.377853535261512,5.735714285714286L11.592139249547223,5.95L11.879289321881345,5.95L10.464644660940673,4.535355339059327L10.535355339059327,4.464644660940673z" stroke="none"/><path d="M17.521428571428572,10.050717893309915L17.521428571428572,9.836432179024204L17.76500360759563,9.592857142857142L18.020710678118654,9.592857142857142L20.163567820975796,11.735714285714284L21.020710678118654,11.735714285714284L21.23499639240437,11.95L21.44928210669008,11.95L21.663567820975796,12.164285714285715L21.87785353526151,12.164285714285715L22.092139249547227,12.378571428571426L24.407860750452773,12.378571428571426L24.59285714285714,12.193575036167061L24.59285714285714,11.979289321881346L24.807142857142857,11.76500360759563L24.807142857142857,11.550717893309915L25.235714285714284,11.122146464738488L25.235714285714284,10.907860750452773L25.45,10.693575036167061L25.45,10.5L25.55,10.5L25.55,10.73499639240437L25.335714285714285,10.949282106690081L25.335714285714285,11.163567820975796L24.90714285714286,11.592139249547223L24.90714285714286,11.806424963832939L24.692857142857143,12.020710678118654L24.692857142857143,12.23499639240437L24.44928210669008,12.478571428571428L22.05071789330992,12.478571428571428L21.836432179024204,12.264285714285716L21.62214646473849,12.264285714285716L21.407860750452773,12.05L21.19357503616706,12.05L20.979289321881346,11.835714285714285L20.12214646473849,11.835714285714285L17.979289321881346,9.692857142857143L17.80642496383294,9.692857142857143L17.621428571428574,9.877853535261512L17.621428571428574,10.021428571428569L17.80642496383294,10.021428571428569L18.05,10.26500360759563L18.05,10.520710678118654L17.835714285714285,10.73499639240437L17.835714285714285,10.949282106690081L17.37785353526151,11.407142857142858L14.806424963832939,11.407142857142858L14.592139249547223,11.62142857142857L14.163567820975796,11.62142857142857L13.73499639240437,12.05L13.5,12.05L13.5,11.95L13.693575036167061,11.95L14.122146464738488,11.521428571428569L14.550717893309915,11.521428571428569L14.76500360759563,11.307142857142857L17.336432179024204,11.307142857142857L17.735714285714284,10.907860750452773L17.735714285714284,10.693575036167061L17.95,10.479289321881346L17.95,10.306424963832939L17.76500360759563,10.12142857142857L17.621428571428574,10.12142857142857L17.621428571428574,10.73499639240437L17.163567820975796,11.192857142857143L15.193575036167061,11.192857142857143L14.735714285714284,10.73499639240437L14.735714285714284,10.26500360759563L15.592857142857142,9.407860750452773L15.592857142857142,8.979289321881346L15.807142857142857,8.76500360759563L15.807142857142857,8.336432179024204L16.235714285714284,7.907860750452773L16.235714285714284,7.69357503616706L16.46464466094067,7.464644660940673L16.53535533905933,7.535355339059327L16.335714285714285,7.734996392404369L16.335714285714285,7.949282106690083L15.907142857142858,8.377853535261512L15.907142857142858,8.806424963832939L15.692857142857143,9.020710678118654L15.692857142857143,9.449282106690081L14.835714285714285,10.306424963832939L14.835714285714285,10.693575036167061L15.23499639240437,11.092857142857142L17.12214646473849,11.092857142857142L17.521428571428572,10.693575036167061L17.521428571428572,10.192139249547225L17.40714285714286,10.306424963832939L17.40714285714286,10.520710678118654L16.94928210669008,10.978571428571428L15.836432179024204,10.978571428571428L15.622146464738488,10.764285714285716L15.193575036167061,10.764285714285716L14.964644660940673,10.535355339059327L15.035355339059327,10.464644660940673L15.23499639240437,10.664285714285715L15.663567820975796,10.664285714285715L15.877853535261512,10.878571428571426L16.907860750452773,10.878571428571426L17.307142857142857,10.479289321881346L17.307142857142857,10.26500360759563z" stroke="none"/><path d="M13.5,8.95L13.5,9.05L12,9.05L12,8.95z" stroke="none"/><path d="M4.5,5.95L4.5,6.05L3,6.05L3,5.95z" stroke="none"/><path d="M19.5,6.05L19.5,5.95L22.5,5.95L22.5,6.05z" stroke="none"/><path d="M6,4.45L6,4.55L3,4.55L3,4.45z" stroke="none"/><path d="M27,7.45L27,7.55L24,7.55L24,7.45z" stroke="none"/><path d="M24,3.05L24,2.95L27,2.95L27,3.05z" stroke="none"/><path d="M26.96464466094067,6.035355339059327L27.03535533905933,5.964644660940673L27.478571428571428,6.407860750452773L27.478571428571428,7.949282106690083L27.23499639240437,8.192857142857143L26.80642496383294,8.192857142857143L26.163567820975796,8.835714285714285L25.94928210669008,8.835714285714285L25.73499639240437,9.05L25.5,9.05L25.5,8.95L25.69357503616706,8.95L25.907860750452773,8.735714285714284L26.12214646473849,8.735714285714284L26.76500360759563,8.092857142857142L27.19357503616706,8.092857142857142L27.378571428571426,7.907860750452773L27.378571428571426,6.449282106690083z" stroke="none"/><path d="M5.95,7.5L6.05,7.5L6.05,7.69357503616706L6.264285714285714,7.907860750452773L6.264285714285714,8.122146464738488L6.478571428571428,8.336432179024204L6.478571428571428,8.550717893309915L6.692857142857142,8.76500360759563L6.692857142857142,9.193575036167061L7.335714285714285,9.836432179024204L7.335714285714285,10.26500360759563L7.535355339059327,10.464644660940673L7.464644660940673,10.535355339059327L7.235714285714286,10.306424963832939L7.235714285714286,9.877853535261512L6.5928571428571425,9.23499639240437L6.5928571428571425,8.806424963832939L6.378571428571428,8.592139249547223L6.378571428571428,8.377853535261512L6.164285714285715,8.163567820975796L6.164285714285715,7.949282106690083L5.95,7.734996392404369z" stroke="none"/><path d="M7.535355339059327,12.035355339059327L7.464644660940673,11.964644660940673L8.122146464738488,11.307142857142857L8.336432179024204,11.307142857142857L8.550717893309915,11.092857142857142L8.979289321881346,11.092857142857142L9.193575036167061,10.878571428571426L9.407860750452773,10.878571428571426L9.622146464738488,10.664285714285715L10.26500360759563,10.664285714285715L10.464644660940673,10.464644660940673L10.535355339059327,10.535355339059327L10.306424963832939,10.764285714285716L9.663567820975796,10.764285714285716L9.449282106690081,10.978571428571428L9.23499639240437,10.978571428571428L9.020710678118654,11.192857142857143L8.592139249547223,11.192857142857143L8.377853535261512,11.407142857142858L8.163567820975796,11.407142857142858z" stroke="none"/><path d="M14.95,7.5L15.05,7.5L15.05,7.949282106690083L14.407142857142858,8.592139249547223L14.407142857142858,9.020710678118654L13.949282106690081,9.478571428571428L13.73499639240437,9.478571428571428L13.520710678118654,9.692857142857143L13.306424963832939,9.692857142857143L13.092139249547223,9.907142857142858L12.877853535261512,9.907142857142858L12.23499639240437,10.55L12,10.55L12,10.45L12.193575036167061,10.45L12.836432179024204,9.807142857142857L13.050717893309915,9.807142857142857L13.26500360759563,9.592857142857142L13.479289321881346,9.592857142857142L13.693575036167061,9.378571428571426L13.907860750452773,9.378571428571426L14.307142857142857,8.979289321881346L14.307142857142857,8.550717893309915L14.95,7.907860750452773z" stroke="none"/><path d="M23.95,6L24.05,6L24.05,6.663567820975797L23.62142857142857,7.092139249547226L23.62142857142857,7.907860750452773L25.092139249547223,9.378571428571426L26.12214646473849,9.378571428571426L26.336432179024204,9.164285714285715L26.76500360759563,9.164285714285715L26.96464466094067,8.964644660940673L27.03535533905933,9.035355339059327L26.80642496383294,9.264285714285716L26.37785353526151,9.264285714285716L26.163567820975796,9.478571428571428L25.050717893309915,9.478571428571428L23.52142857142857,7.949282106690083L23.52142857142857,7.050717893309916L23.95,6.622146464738488z" stroke="none"/><path d="M22.5,4.55L22.5,4.45L23.12214646473849,4.45L23.336432179024204,4.235714285714286L23.550717893309915,4.235714285714286L23.76500360759563,4.021428571428571L26.37785353526151,4.021428571428571L26.80642496383294,4.45L27,4.45L27,4.55L26.76500360759563,4.55L26.336432179024204,4.121428571428571L23.80642496383294,4.121428571428571L23.592139249547223,4.335714285714285L23.37785353526151,4.335714285714285L23.163567820975796,4.55z" stroke="none"/><path d="M16.5,2.95L16.5,3.05L16.092139249547223,3.05L15.663567820975796,3.478571428571428L13.693575036167061,3.478571428571428L13.26500360759563,3.05L12,3.05L12,2.95L13.306424963832939,2.95L13.73499639240437,3.3785714285714286L15.622146464738488,3.3785714285714286L16.050717893309915,2.95z" stroke="none"/><path d="M6.05,9L5.95,9L5.95,8.592139249547223L5.521428571428571,8.163567820975796L5.521428571428571,6.8778535352615116L5.307142857142857,6.663567820975797L5.307142857142857,5.336432179024202L5.550717893309916,5.0928571428571425L6.19357503616706,5.0928571428571425L6.407860750452773,4.878571428571429L6.836432179024202,4.878571428571429L7.265003607595631,4.45L7.5,4.45L7.5,4.55L7.30642496383294,4.55L6.8778535352615116,4.978571428571429L6.449282106690083,4.978571428571429L6.234996392404369,5.192857142857142L5.592139249547226,5.192857142857142L5.407142857142857,5.3778535352615116L5.407142857142857,6.622146464738488L5.621428571428571,6.836432179024202L5.621428571428571,8.122146464738488L6.05,8.550717893309915z" stroke="none"/><path d="M4.5,2.95L4.5,3.05L3.6635678209757976,3.05L2.6214285714285714,4.092139249547226L2.6214285714285714,6.622146464738488L2.8357142857142854,6.836432179024202L2.8357142857142854,7.265003607595631L3.0353553390593273,7.464644660940673L2.9646446609406727,7.535355339059327L2.7357142857142858,7.30642496383294L2.7357142857142858,6.8778535352615116L2.521428571428572,6.663567820975797L2.521428571428572,4.050717893309916L3.622146464738488,2.95z" stroke="none"/><path d="M22.55,9L22.45,9L22.45,7.050717893309916L22.664285714285715,6.836432179024202L22.664285714285715,6.622146464738488L22.878571428571426,6.407860750452773L22.878571428571426,5.592139249547226L22.69357503616706,5.407142857142857L22.05071789330992,5.407142857142857L21.62214646473849,4.978571428571429L21.407860750452773,4.978571428571429L20.96464466094067,4.535355339059327L21.03535533905933,4.464644660940673L21.44928210669008,4.878571428571429L21.663567820975796,4.878571428571429L22.092139249547227,5.307142857142857L22.73499639240437,5.307142857142857L22.978571428571428,5.550717893309916L22.978571428571428,6.449282106690083L22.764285714285716,6.663567820975797L22.764285714285716,6.8778535352615116L22.55,7.092139249547226z" stroke="none"/><path d="M10.535355339059327,12.035355339059327L10.464644660940673,11.964644660940673L10.907860750452773,11.521428571428569L11.336432179024204,11.521428571428569L11.76500360759563,11.092857142857142L12.193575036167061,11.092857142857142L13.479289321881346,9.807142857142857L13.907860750452773,9.807142857142857L14.550717893309915,9.164285714285715L14.76500360759563,9.164285714285715L14.964644660940673,8.964644660940673L15.035355339059327,9.035355339059327L14.806424963832939,9.264285714285716L14.592139249547223,9.264285714285716L13.949282106690081,9.907142857142858L13.520710678118654,9.907142857142858L12.23499639240437,11.192857142857143L11.806424963832939,11.192857142857143L11.377853535261512,11.62142857142857L10.949282106690081,11.62142857142857z" stroke="none"/><path d="M16.46464466094067,6.035355339059327L16.53535533905933,5.964644660940673L16.73499639240437,6.164285714285715L16.94928210669008,6.164285714285715L17.163567820975796,6.378571428571428L19.092139249547227,6.378571428571428L19.30642496383294,6.5928571428571425L19.94928210669008,6.5928571428571425L20.835714285714285,7.479289321881345L20.835714285714285,8.76500360759563L21.03535533905933,8.964644660940673L20.96464466094067,9.035355339059327L20.735714285714284,8.806424963832939L20.735714285714284,7.520710678118655L19.907860750452773,6.692857142857142L19.26500360759563,6.692857142857142L19.05071789330992,6.478571428571428L17.12214646473849,6.478571428571428L16.907860750452773,6.264285714285714L16.69357503616706,6.264285714285714z" stroke="none"/><path d="M8.964644660940673,8.964644660940673L9.035355339059327,9.035355339059327L8.407142857142858,9.663567820975796L8.407142857142858,10.306424963832939L8.192857142857143,10.520710678118654L8.192857142857143,10.73499639240437L7.949282106690083,10.978571428571428L7.050717893309916,10.978571428571428L6.836432179024202,10.764285714285716L5.550717893309916,10.764285714285716L5.122146464738488,10.335714285714285L4.907860750452774,10.335714285714285L4.479289321881345,9.907142857142858L4.265003607595631,9.907142857142858L3.622146464738488,9.264285714285716L3.1935750361670596,9.264285714285716L2.9646446609406727,9.035355339059327L3.0353553390593273,8.964644660940673L3.234996392404369,9.164285714285715L3.6635678209757976,9.164285714285715L4.30642496383294,9.807142857142857L4.520710678118655,9.807142857142857L4.949282106690084,10.235714285714284L5.163567820975797,10.235714285714284L5.592139249547226,10.664285714285715L6.8778535352615116,10.664285714285715L7.092139249547226,10.878571428571426L7.907860750452773,10.878571428571426L8.092857142857142,10.693575036167061L8.092857142857142,10.479289321881346L8.307142857142857,10.26500360759563L8.307142857142857,9.622146464738488z" stroke="none"/><path d="M16.5,4.55L16.5,4.45L17.163567820975796,4.45L17.592139249547227,4.878571428571429L19.26500360759563,4.878571428571429L19.69357503616706,4.45L19.907860750452773,4.45L20.336432179024204,4.021428571428571L21.44928210669008,4.021428571428571L21.90714285714286,4.479289321881345L21.90714285714286,4.69357503616706L22.092139249547227,4.878571428571429L22.520710678118654,4.878571428571429L22.73499639240437,5.0928571428571425L22.94928210669008,5.0928571428571425L23.192857142857143,5.336432179024202L23.192857142857143,7.907860750452773L24.87785353526151,9.592857142857142L25.520710678118654,9.592857142857142L25.978571428571428,10.050717893309915L25.978571428571428,10.949282106690081L25.12142857142857,11.806424963832939L25.12142857142857,12.020710678118654L24.90714285714286,12.23499639240437L24.90714285714286,12.449282106690081L24.663567820975796,12.692857142857143L10.26500360759563,12.692857142857143L10.021428571428569,12.449282106690081L10.021428571428569,11.550717893309915L10.479289321881346,11.092857142857142L10.693575036167061,11.092857142857142L10.878571428571426,10.907860750452773L10.878571428571426,10.050717893309915L11.307142857142857,9.622146464738488L11.307142857142857,7.30642496383294L11.092857142857142,7.092139249547226L11.092857142857142,6.8778535352615116L10.45,6.234996392404369L10.45,6L10.55,6L10.55,6.19357503616706L11.192857142857143,6.836432179024202L11.192857142857143,7.050717893309916L11.407142857142858,7.265003607595631L11.407142857142858,9.663567820975796L10.978571428571428,10.092139249547223L10.978571428571428,10.949282106690081L10.73499639240437,11.192857142857143L10.520710678118654,11.192857142857143L10.12142857142857,11.592139249547223L10.12142857142857,12.407860750452773L10.306424963832939,12.592857142857142L24.62214646473849,12.592857142857142L24.807142857142857,12.407860750452773L24.807142857142857,12.193575036167061L25.02142857142857,11.979289321881346L25.02142857142857,11.76500360759563L25.878571428571426,10.907860750452773L25.878571428571426,10.092139249547223L25.479289321881346,9.692857142857143L24.836432179024204,9.692857142857143L23.09285714285714,7.949282106690083L23.09285714285714,5.3778535352615116L22.907860750452773,5.192857142857142L22.69357503616706,5.192857142857142L22.479289321881346,4.978571428571429L22.05071789330992,4.978571428571429L21.807142857142857,4.734996392404369L21.807142857142857,4.520710678118655L21.407860750452773,4.121428571428571L20.37785353526151,4.121428571428571L19.94928210669008,4.55L19.73499639240437,4.55L19.30642496383294,4.978571428571429L17.55071789330992,4.978571428571429L17.12214646473849,4.55z" stroke="none"/><path d="M25.5,4.55L25.5,4.45L25.94928210669008,4.45L26.163567820975796,4.664285714285715L26.37785353526151,4.664285714285715L26.592139249547223,4.878571428571429L27.407860750452773,4.878571428571429L27.59285714285714,4.69357503616706L27.59285714285714,4.30642496383294L27.407860750452773,4.121428571428571L27.19357503616706,4.121428571428571L26.979289321881346,3.907142857142857L23.550717893309915,3.907142857142857L23.336432179024204,3.6928571428571426L23.12214646473849,3.6928571428571426L22.26500360759563,2.8357142857142854L21.836432179024204,2.8357142857142854L21.62214646473849,2.6214285714285714L20.163567820975796,2.6214285714285714L19.94928210669008,2.8357142857142854L19.73499639240437,2.8357142857142854L19.53535533905933,3.0353553390593273L19.46464466094067,2.9646446609406727L19.69357503616706,2.7357142857142858L19.907860750452773,2.7357142857142858L20.12214646473849,2.521428571428572L21.663567820975796,2.521428571428572L21.87785353526151,2.7357142857142858L22.30642496383294,2.7357142857142858L23.163567820975796,3.592857142857143L23.37785353526151,3.592857142857143L23.592139249547223,3.8071428571428574L27.020710678118654,3.8071428571428574L27.23499639240437,4.021428571428571L27.44928210669008,4.021428571428571L27.692857142857143,4.265003607595631L27.692857142857143,4.734996392404369L27.44928210669008,4.978571428571429L26.550717893309915,4.978571428571429L26.336432179024204,4.764285714285714L26.12214646473849,4.764285714285714L25.907860750452773,4.55z" stroke="none"/><path d="M8.964644660940673,11.964644660940673L9.035355339059327,12.035355339059327L8.806424963832939,12.264285714285716L8.592139249547223,12.264285714285716L8.377853535261512,12.478571428571428L7.050717893309916,12.478571428571428L5.550717893309916,10.978571428571428L5.336432179024202,10.978571428571428L5.122146464738488,10.764285714285716L4.907860750452774,10.764285714285716L4.265003607595631,10.12142857142857L3.8364321790242024,10.12142857142857L3.622146464738488,9.907142857142858L3.1935750361670596,9.907142857142858L2.979289321881345,9.692857142857143L2.765003607595631,9.692857142857143L2.521428571428572,9.449282106690081L2.521428571428572,8.550717893309915L2.765003607595631,8.307142857142857L3.1935750361670596,8.307142857142857L3.8364321790242024,7.664285714285715L4.265003607595631,7.664285714285715L4.464644660940673,7.464644660940673L4.535355339059327,7.535355339059327L4.30642496383294,7.764285714285714L3.877853535261512,7.764285714285714L3.234996392404369,8.407142857142858L2.8064249638329404,8.407142857142858L2.6214285714285714,8.592139249547223L2.6214285714285714,9.407860750452773L2.8064249638329404,9.592857142857142L3.020710678118655,9.592857142857142L3.234996392404369,9.807142857142857L3.6635678209757976,9.807142857142857L3.877853535261512,10.021428571428569L4.30642496383294,10.021428571428569L4.949282106690084,10.664285714285715L5.163567820975797,10.664285714285715L5.3778535352615116,10.878571428571426L5.592139249547226,10.878571428571426L7.092139249547226,12.378571428571426L8.336432179024204,12.378571428571426L8.550717893309915,12.164285714285715L8.76500360759563,12.164285714285715z" stroke="none"/><path d="M7.5,3.05L7.5,2.95L11.122146464738488,2.95L11.550717893309915,2.521428571428572L14.377853535261512,2.521428571428572L14.806424963832939,2.95L15,2.95L15,3.05L14.76500360759563,3.05L14.336432179024204,2.6214285714285714L11.592139249547223,2.6214285714285714L11.163567820975796,3.05z" stroke="none"/><path d="M25.5,6.05L25.5,5.95L25.907860750452773,5.95L26.336432179024204,5.521428571428571L26.550717893309915,5.521428571428571L26.76500360759563,5.307142857142857L26.979289321881346,5.307142857142857L27.19357503616706,5.0928571428571425L27.62214646473849,5.0928571428571425L27.807142857142857,4.907860750452774L27.807142857142857,4.092139249547226L27.62214646473849,3.907142857142857L27.407860750452773,3.907142857142857L27.19357503616706,3.6928571428571426L23.979289321881346,3.6928571428571426L23.76500360759563,3.478571428571428L23.550717893309915,3.478571428571428L22.69357503616706,2.6214285714285714L22.479289321881346,2.6214285714285714L22.26500360759563,2.407142857142857L19.520710678118654,2.407142857142857L19.30642496383294,2.6214285714285714L19.092139249547227,2.6214285714285714L18.87785353526151,2.8357142857142854L18.23499639240437,2.8357142857142854L18.03535533905933,3.0353553390593273L17.96464466094067,2.9646446609406727L18.19357503616706,2.7357142857142858L18.836432179024204,2.7357142857142858L19.05071789330992,2.521428571428572L19.26500360759563,2.521428571428572L19.479289321881346,2.3071428571428574L22.30642496383294,2.3071428571428574L22.520710678118654,2.521428571428572L22.73499639240437,2.521428571428572L23.592139249547223,3.3785714285714286L23.80642496383294,3.3785714285714286L24.020710678118654,3.592857142857143L27.23499639240437,3.592857142857143L27.44928210669008,3.8071428571428574L27.663567820975796,3.8071428571428574L27.90714285714286,4.050717893309916L27.90714285714286,4.949282106690084L27.663567820975796,5.192857142857142L27.23499639240437,5.192857142857142L27.020710678118654,5.407142857142857L26.80642496383294,5.407142857142857L26.592139249547223,5.621428571428571L26.37785353526151,5.621428571428571L25.94928210669008,6.05z" stroke="none"/></svg>