<svg version="1.1" width="30" height="15" xmlns="http://www.w3.org/2000/svg"><path d="M22.092139249547227,6.378571428571428L22.30642496383294,6.5928571428571425L22.520710678118654,6.5928571428571425L22.73499639240437,6.807142857142857L22.94928210669008,6.807142857142857L23.163567820975796,7.021428571428571L26.37785353526151,7.021428571428571L26.592139249547223,7.235714285714286L26.80642496383294,7.235714285714286L27.03535533905933,7.464644660940673L26.96464466094067,7.535355339059327L26.76500360759563,7.335714285714285L26.550717893309915,7.335714285714285L26.336432179024204,7.121428571428571L23.12214646473849,7.121428571428571L22.907860750452773,6.907142857142857L22.69357503616706,6.907142857142857L22.479289321881346,6.692857142857142L22.26500360759563,6.692857142857142L22.05071789330992,6.478571428571428L21.87785353526151,6.478571428571428L21.692857142857143,6.663567820975797L21.692857142857143,6.8778535352615116L21.03535533905933,7.535355339059327L20.96464466094067,7.464644660940673L21.59285714285714,6.836432179024202L21.59285714285714,6.622146464738488L21.736432179024202,6.478571428571428L20.979289321881346,6.478571428571428L20.76500360759563,6.264285714285714L20.55071789330992,6.264285714285714L20.336432179024204,6.05L20.12214646473849,6.05L19.479289321881346,5.407142857142857L19.26500360759563,5.407142857142857L18.62214646473849,4.764285714285714L18.407860750452773,4.764285714285714L18.19357503616706,4.55L18,4.55L18,4.45L18.23499639240437,4.45L18.44928210669008,4.664285714285715L18.663567820975796,4.664285714285715L19.30642496383294,5.307142857142857L19.520710678118654,5.307142857142857L20.163567820975796,5.95L20.37785353526151,5.95L20.592139249547227,6.164285714285715L20.80642496383294,6.164285714285715L21.020710678118654,6.378571428571428z" stroke="none"/><path d="M22.45,8.307142857142857L22.45,8.122146464738488L22.69357503616706,7.878571428571428L22.907860750452773,7.878571428571428L23.12214646473849,7.664285714285715L23.336432179024204,7.664285714285715L23.550717893309915,7.45L24,7.45L24,7.55L23.592139249547223,7.55L23.37785353526151,7.764285714285714L23.163567820975796,7.764285714285714L22.94928210669008,7.978571428571428L22.73499639240437,7.978571428571428L22.55,8.163567820975796L22.55,8.307142857142857L22.73499639240437,8.307142857142857L23.163567820975796,8.735714285714284L23.592139249547223,8.735714285714284L23.80642496383294,8.95L24,8.95L24,9.05L23.76500360759563,9.05L23.550717893309915,8.835714285714285L23.12214646473849,8.835714285714285L22.69357503616706,8.407142857142858L21.020710678118654,8.407142857142858L20.80642496383294,8.62142857142857L20.592139249547227,8.62142857142857L20.37785353526151,8.835714285714285L20.163567820975796,8.835714285714285L19.94928210669008,9.05L19.5,9.05L19.5,8.95L19.907860750452773,8.95L20.12214646473849,8.735714285714284L20.336432179024204,8.735714285714284L20.55071789330992,8.521428571428569L20.76500360759563,8.521428571428569L20.979289321881346,8.307142857142857z" stroke="none"/><path d="M27,10.45L27,10.55L24.90714285714286,10.55L24.90714285714286,10.693575036167061L25.092139249547223,10.878571428571426L25.520710678118654,10.878571428571426L25.94928210669008,11.307142857142857L26.163567820975796,11.307142857142857L26.80642496383294,11.95L27,11.95L27,12.05L26.76500360759563,12.05L26.12214646473849,11.407142857142858L25.907860750452773,11.407142857142858L25.479289321881346,10.978571428571428L25.050717893309915,10.978571428571428L24.807142857142857,10.73499639240437L24.807142857142857,10.55L24.62214646473849,10.55L24.19357503616706,10.12142857142857L23.979289321881346,10.12142857142857L23.336432179024204,9.478571428571428L22.69357503616706,9.478571428571428L22.479289321881346,9.264285714285716L21.836432179024204,9.264285714285716L21.62214646473849,9.05L21,9.05L21,8.95L21.663567820975796,8.95L21.87785353526151,9.164285714285715L22.520710678118654,9.164285714285715L22.73499639240437,9.378571428571426L23.37785353526151,9.378571428571426L24.020710678118654,10.021428571428569L24.23499639240437,10.021428571428569L24.663567820975796,10.45z" stroke="none"/><path d="M6.5928571428571425,8.95L6.5928571428571425,8.806424963832939L6.407860750452773,8.62142857142857L6.234996392404369,8.62142857142857L6.020710678118655,8.835714285714285L5.80642496383294,8.835714285714285L5.592139249547226,9.05L5.3778535352615116,9.05L5.163567820975797,9.264285714285716L4.949282106690084,9.264285714285716L4.520710678118655,9.692857142857143L4.30642496383294,9.692857142857143L4.092139249547226,9.907142857142858L3.877853535261512,9.907142857142858L3.6635678209757976,10.12142857142857L3.449282106690083,10.12142857142857L3.0353553390593273,10.535355339059327L2.9646446609406727,10.464644660940673L3.4078607504527736,10.021428571428569L3.622146464738488,10.021428571428569L3.8364321790242024,9.807142857142857L4.050717893309916,9.807142857142857L4.265003607595631,9.592857142857142L4.479289321881345,9.592857142857142L4.907860750452774,9.164285714285715L5.122146464738488,9.164285714285715L5.336432179024202,8.95L5.550717893309916,8.95L5.765003607595631,8.735714285714284L5.979289321881345,8.735714285714284L6.19357503616706,8.521428571428569L6.449282106690083,8.521428571428569L6.692857142857142,8.76500360759563L6.692857142857142,8.95L6.836432179024202,8.95L8.092857142857142,7.69357503616706L8.092857142857142,7.479289321881345L8.550717893309915,7.021428571428571L9.836432179024204,7.021428571428571L10.26500360759563,6.5928571428571425L12.622146464738488,6.5928571428571425L13.050717893309915,6.164285714285715L13.26500360759563,6.164285714285715L13.464644660940673,5.964644660940673L13.535355339059327,6.035355339059327L13.306424963832939,6.264285714285714L13.092139249547223,6.264285714285714L12.663567820975796,6.692857142857142L10.306424963832939,6.692857142857142L9.877853535261512,7.121428571428571L8.592139249547223,7.121428571428571L8.192857142857143,7.520710678118655L8.192857142857143,7.734996392404369L6.8778535352615116,9.05L6.692857142857142,9.05L6.692857142857142,9.23499639240437L6.449282106690083,9.478571428571428L6.020710678118655,9.478571428571428L5.592139249547226,9.907142857142858L5.3778535352615116,9.907142857142858L4.949282106690084,10.335714285714285L4.734996392404369,10.335714285714285L4.535355339059327,10.535355339059327L4.464644660940673,10.464644660940673L4.69357503616706,10.235714285714284L4.907860750452774,10.235714285714284L5.336432179024202,9.807142857142857L5.550717893309916,9.807142857142857L5.979289321881345,9.378571428571426L6.407860750452773,9.378571428571426L6.5928571428571425,9.193575036167061L6.5928571428571425,9.05L6,9.05L6,8.95z" stroke="none"/><path d="M12.877853535261512,10.878571428571426L13.306424963832939,10.878571428571426L13.520710678118654,11.092857142857142L13.73499639240437,11.092857142857142L14.163567820975796,11.521428571428569L14.377853535261512,11.521428571428569L14.806424963832939,11.95L15,11.95L15,12.05L14.76500360759563,12.05L14.336432179024204,11.62142857142857L14.122146464738488,11.62142857142857L13.693575036167061,11.192857142857143L13.479289321881346,11.192857142857143L13.26500360759563,10.978571428571428L12.836432179024204,10.978571428571428L12.692857142857143,10.83499639240437L12.692857142857143,11.122146464738488L13.092139249547223,11.521428571428569L13.306424963832939,11.521428571428569L13.520710678118654,11.735714285714284L13.73499639240437,11.735714285714284L13.949282106690081,11.95L14.377853535261512,11.95L14.592139249547223,12.164285714285715L16.050717893309915,12.164285714285715L16.26500360759563,11.95L16.5,11.95L16.5,12.05L16.30642496383294,12.05L16.092139249547223,12.264285714285716L14.550717893309915,12.264285714285716L14.336432179024204,12.05L13.907860750452773,12.05L13.693575036167061,11.835714285714285L13.479289321881346,11.835714285714285L13.26500360759563,11.62142857142857L13.050717893309915,11.62142857142857L12.592857142857142,11.163567820975796L12.592857142857142,10.83499639240437L12.449282106690081,10.978571428571428L11.163567820975796,10.978571428571428L10.949282106690081,11.192857142857143L10.73499639240437,11.192857142857143L10.306424963832939,11.62142857142857L10.092139249547223,11.62142857142857L9.877853535261512,11.835714285714285L9.663567820975796,11.835714285714285L9.449282106690081,12.05L9,12.05L9,11.95L9.407860750452773,11.95L9.622146464738488,11.735714285714284L9.836432179024204,11.735714285714284L10.050717893309915,11.521428571428569L10.26500360759563,11.521428571428569L10.693575036167061,11.092857142857142L10.907860750452773,11.092857142857142L11.122146464738488,10.878571428571426L12.407860750452773,10.878571428571426L12.572146464738488,10.714285714285715L12.378571428571426,10.520710678118654L12.378571428571426,10.092139249547223L11.735714285714284,9.449282106690081L11.735714285714284,9.23499639240437L11.307142857142857,8.806424963832939L11.307142857142857,8.377853535261512L10.464644660940673,7.535355339059327L10.535355339059327,7.464644660940673L11.407142857142858,8.336432179024204L11.407142857142858,8.76500360759563L11.835714285714285,9.193575036167061L11.835714285714285,9.407860750452773L12.478571428571428,10.050717893309915L12.478571428571428,10.479289321881346z" stroke="none"/><path d="M11.092857142857142,5.022146464738488L11.092857142857142,4.907860750452774L11.336432179024204,4.664285714285715L12.449282106690081,4.664285714285715L12.663567820975796,4.878571428571429L15.622146464738488,4.878571428571429L15.836432179024204,4.664285714285715L16.26500360759563,4.664285714285715L16.46464466094067,4.464644660940673L16.53535533905933,4.535355339059327L16.30642496383294,4.764285714285714L15.877853535261512,4.764285714285714L15.663567820975796,4.978571428571429L12.622146464738488,4.978571428571429L12.407860750452773,4.764285714285714L11.377853535261512,4.764285714285714L11.192857142857143,4.949282106690084L11.192857142857143,5.0928571428571425L12.449282106690081,5.0928571428571425L12.877853535261512,5.521428571428571L13.949282106690081,5.521428571428571L14.163567820975796,5.735714285714286L14.592139249547223,5.735714285714286L14.806424963832939,5.95L15,5.95L15,6.05L14.76500360759563,6.05L14.550717893309915,5.835714285714285L14.122146464738488,5.835714285714285L13.907860750452773,5.621428571428571L12.836432179024204,5.621428571428571L12.407860750452773,5.192857142857142L10.949282106690081,5.192857142857142L10.73499639240437,5.407142857142857L10.306424963832939,5.407142857142857L9.877853535261512,5.835714285714285L9.449282106690081,5.835714285714285L9.23499639240437,6.05L8.806424963832939,6.05L8.592139249547223,6.264285714285714L8.163567820975796,6.264285714285714L7.734996392404369,6.692857142857142L6.234996392404369,6.692857142857142L6.020710678118655,6.907142857142857L5.3778535352615116,6.907142857142857L4.734996392404369,7.55L4.5,7.55L4.5,7.45L4.69357503616706,7.45L5.336432179024202,6.807142857142857L5.979289321881345,6.807142857142857L6.19357503616706,6.5928571428571425L7.69357503616706,6.5928571428571425L8.122146464738488,6.164285714285715L8.550717893309915,6.164285714285715L8.76500360759563,5.95L9.193575036167061,5.95L9.407860750452773,5.735714285714286L9.836432179024204,5.735714285714286L10.26500360759563,5.307142857142857L10.693575036167061,5.307142857142857L10.907860750452773,5.0928571428571425L11.022146464738487,5.0928571428571425L8.964644660940673,3.0353553390593273L9.035355339059327,2.9646446609406727z" stroke="none"/><path d="M22.45,3L22.55,3L22.55,4.5L22.45,4.5z" stroke="none"/><path d="M10.5,12.05L10.5,11.95L12,11.95L12,12.05z" stroke="none"/><path d="M16.46464466094067,9.035355339059327L16.53535533905933,8.964644660940673L18.03535533905933,10.464644660940673L17.96464466094067,10.535355339059327z" stroke="none"/><path d="M6.035355339059327,12.035355339059327L5.964644660940673,11.964644660940673L7.464644660940673,10.464644660940673L7.535355339059327,10.535355339059327z" stroke="none"/><path d="M24,3.05L24,2.95L27,2.95L27,3.05z" stroke="none"/><path d="M6,7.45L6,7.55L5.592139249547226,7.55L5.3778535352615116,7.764285714285714L5.163567820975797,7.764285714285714L4.949282106690084,7.978571428571428L4.734996392404369,7.978571428571428L4.092139249547226,8.62142857142857L3.449282106690083,8.62142857142857L3.0353553390593273,9.035355339059327L2.9646446609406727,8.964644660940673L3.4078607504527736,8.521428571428569L4.050717893309916,8.521428571428569L4.69357503616706,7.878571428571428L4.907860750452774,7.878571428571428L5.122146464738488,7.664285714285715L5.336432179024202,7.664285714285715L5.550717893309916,7.45z" stroke="none"/><path d="M3.0353553390593273,6.035355339059327L2.9646446609406727,5.964644660940673L4.021428571428571,4.907860750452774L4.021428571428571,4.479289321881345L4.235714285714286,4.265003607595631L4.235714285714286,3.8364321790242024L4.45,3.622146464738488L4.45,3L4.55,3L4.55,3.6635678209757976L4.335714285714285,3.877853535261512L4.335714285714285,4.30642496383294L4.121428571428571,4.520710678118655L4.121428571428571,4.949282106690084z" stroke="none"/><path d="M22.5,6.05L22.5,5.95L22.94928210669008,5.95L23.163567820975796,6.164285714285715L23.37785353526151,6.164285714285715L23.592139249547223,6.378571428571428L26.163567820975796,6.378571428571428L26.37785353526151,6.5928571428571425L27.020710678118654,6.5928571428571425L27.478571428571428,7.050717893309916L27.478571428571428,7.949282106690083L27.23499639240437,8.192857142857143L26.80642496383294,8.192857142857143L26.163567820975796,8.835714285714285L25.94928210669008,8.835714285714285L25.73499639240437,9.05L25.5,9.05L25.5,8.95L25.69357503616706,8.95L25.907860750452773,8.735714285714284L26.12214646473849,8.735714285714284L26.76500360759563,8.092857142857142L27.19357503616706,8.092857142857142L27.378571428571426,7.907860750452773L27.378571428571426,7.092139249547226L26.979289321881346,6.692857142857142L26.336432179024204,6.692857142857142L26.12214646473849,6.478571428571428L23.550717893309915,6.478571428571428L23.336432179024204,6.264285714285714L23.12214646473849,6.264285714285714L22.907860750452773,6.05z" stroke="none"/><path d="M14.964644660940673,9.035355339059327L15.035355339059327,8.964644660940673L16.55,10.479289321881346L16.55,10.907860750452773L16.978571428571428,11.336432179024204L16.978571428571428,12.449282106690081L16.73499639240437,12.692857142857143L8.76500360759563,12.692857142857143L8.521428571428569,12.449282106690081L8.521428571428569,11.550717893309915L8.76500360759563,11.307142857142857L8.979289321881346,11.307142857142857L9.807142857142857,10.479289321881346L9.807142857142857,10.26500360759563L10.235714285714284,9.836432179024204L10.235714285714284,9.407860750452773L10.45,9.193575036167061L10.45,9L10.55,9L10.55,9.23499639240437L10.335714285714285,9.449282106690081L10.335714285714285,9.877853535261512L9.907142857142858,10.306424963832939L9.907142857142858,10.520710678118654L9.020710678118654,11.407142857142858L8.806424963832939,11.407142857142858L8.62142857142857,11.592139249547223L8.62142857142857,12.407860750452773L8.806424963832939,12.592857142857142L16.69357503616706,12.592857142857142L16.878571428571426,12.407860750452773L16.878571428571426,11.377853535261512L16.45,10.949282106690081L16.45,10.520710678118654z" stroke="none"/><path d="M26.95,4.5L27.05,4.5L27.05,5.550717893309916L27.478571428571428,5.979289321881345L27.478571428571428,6.407860750452773L27.692857142857143,6.622146464738488L27.692857142857143,8.163567820975796L27.264285714285716,8.592139249547223L27.264285714285716,8.806424963832939L27.03535533905933,9.035355339059327L26.96464466094067,8.964644660940673L27.164285714285715,8.76500360759563L27.164285714285715,8.550717893309915L27.59285714285714,8.122146464738488L27.59285714285714,6.663567820975797L27.378571428571426,6.449282106690083L27.378571428571426,6.020710678118655L26.95,5.592139249547226z" stroke="none"/><path d="M24,4.45L24,4.55L23.592139249547223,4.55L23.163567820975796,4.978571428571429L20.76500360759563,4.978571428571429L20.55071789330992,4.764285714285714L20.12214646473849,4.764285714285714L19.907860750452773,4.55L19.5,4.55L19.5,4.45L19.94928210669008,4.45L20.163567820975796,4.664285714285715L20.592139249547227,4.664285714285715L20.80642496383294,4.878571428571429L23.12214646473849,4.878571428571429L23.550717893309915,4.45z" stroke="none"/><path d="M19.5,7.45L19.5,7.55L18.23499639240437,7.55L17.80642496383294,7.978571428571428L15.622146464738488,7.978571428571428L15.193575036167061,7.55L15,7.55L15,7.45L15.23499639240437,7.45L15.663567820975796,7.878571428571428L17.76500360759563,7.878571428571428L18.19357503616706,7.45z" stroke="none"/><path d="M10.5,2.95L10.5,3.05L9.836432179024204,3.05L9.407860750452773,2.6214285714285714L8.592139249547223,2.6214285714285714L6.264285714285714,4.949282106690084L6.264285714285714,5.592139249547226L6.05,5.80642496383294L6.05,6L5.95,6L5.95,5.765003607595631L6.164285714285715,5.550717893309916L6.164285714285715,4.907860750452774L8.550717893309915,2.521428571428572L9.449282106690081,2.521428571428572L9.877853535261512,2.95z" stroke="none"/><path d="M3,3.05L3,2.95L3.622146464738488,2.95L4.050717893309916,2.521428571428572L4.949282106690084,2.521428571428572L5.192857142857142,2.765003607595631L5.192857142857142,5.550717893309916L5.407142857142857,5.765003607595631L5.407142857142857,6.19357503616706L5.592139249547226,6.378571428571428L6.622146464738488,6.378571428571428L6.836432179024202,6.164285714285715L7.050717893309916,6.164285714285715L7.265003607595631,5.95L7.5,5.95L7.5,6.05L7.30642496383294,6.05L7.092139249547226,6.264285714285714L6.8778535352615116,6.264285714285714L6.663567820975797,6.478571428571428L5.550717893309916,6.478571428571428L5.307142857142857,6.234996392404369L5.307142857142857,5.80642496383294L5.0928571428571425,5.592139249547226L5.0928571428571425,2.8064249638329404L4.907860750452774,2.6214285714285714L4.092139249547226,2.6214285714285714L3.6635678209757976,3.05z" stroke="none"/><path d="M15.05,10.5L14.95,10.5L14.95,10.092139249547223L14.735714285714284,9.877853535261512L14.735714285714284,9.663567820975796L14.307142857142857,9.23499639240437L14.307142857142857,8.76500360759563L14.550717893309915,8.521428571428569L15.449282106690081,8.521428571428569L16.12142857142857,9.193575036167061L16.12142857142857,9.407860750452773L16.764285714285716,10.050717893309915L16.764285714285716,10.26500360759563L16.978571428571428,10.479289321881346L16.978571428571428,10.907860750452773L17.192857142857143,11.122146464738488L17.192857142857143,12.663567820975796L16.94928210669008,12.907142857142858L8.550717893309915,12.907142857142858L8.307142857142857,12.663567820975796L8.307142857142857,11.336432179024204L8.735714285714284,10.907860750452773L8.735714285714284,10.693575036167061L8.964644660940673,10.464644660940673L9.035355339059327,10.535355339059327L8.835714285714285,10.73499639240437L8.835714285714285,10.949282106690081L8.407142857142858,11.377853535261512L8.407142857142858,12.622146464738488L8.592139249547223,12.807142857142857L16.907860750452773,12.807142857142857L17.09285714285714,12.622146464738488L17.09285714285714,11.163567820975796L16.878571428571426,10.949282106690081L16.878571428571426,10.520710678118654L16.664285714285715,10.306424963832939L16.664285714285715,10.092139249547223L16.02142857142857,9.449282106690081L16.02142857142857,9.23499639240437L15.407860750452773,8.62142857142857L14.592139249547223,8.62142857142857L14.407142857142858,8.806424963832939L14.407142857142858,9.193575036167061L14.835714285714285,9.622146464738488L14.835714285714285,9.836432179024204L15.05,10.050717893309915z" stroke="none"/><path d="M24,11.95L24,12.05L18,12.05L18,11.95z" stroke="none"/><path d="M7.464644660940673,12.035355339059327L7.535355339059327,11.964644660940673L7.978571428571428,12.407860750452773L7.978571428571428,12.622146464738488L8.377853535261512,13.021428571428569L17.12214646473849,13.021428571428569L17.307142857142857,12.836432179024204L17.307142857142857,11.76500360759563L17.55071789330992,11.521428571428569L17.76500360759563,11.521428571428569L18.378571428571426,10.907860750452773L18.378571428571426,10.092139249547223L18.19357503616706,9.907142857142858L17.979289321881346,9.907142857142858L17.09285714285714,9.020710678118654L17.09285714285714,8.806424963832939L16.907860750452773,8.62142857142857L16.26500360759563,8.62142857142857L16.050717893309915,8.407142857142858L14.377853535261512,8.407142857142858L14.192857142857143,8.592139249547223L14.192857142857143,8.806424963832939L13.978571428571428,9.020710678118654L13.978571428571428,9.877853535261512L13.764285714285716,10.092139249547223L13.764285714285716,10.306424963832939L13.535355339059327,10.535355339059327L13.464644660940673,10.464644660940673L13.664285714285715,10.26500360759563L13.664285714285715,10.050717893309915L13.878571428571426,9.836432179024204L13.878571428571426,8.979289321881346L14.092857142857142,8.76500360759563L14.092857142857142,8.550717893309915L14.336432179024204,8.307142857142857L16.092139249547223,8.307142857142857L16.30642496383294,8.521428571428569L16.94928210669008,8.521428571428569L17.192857142857143,8.76500360759563L17.192857142857143,8.979289321881346L18.020710678118654,9.807142857142857L18.23499639240437,9.807142857142857L18.478571428571428,10.050717893309915L18.478571428571428,10.949282106690081L17.80642496383294,11.62142857142857L17.592139249547227,11.62142857142857L17.40714285714286,11.806424963832939L17.40714285714286,12.877853535261512L17.163567820975796,13.12142857142857L8.336432179024204,13.12142857142857L7.878571428571428,12.663567820975796L7.878571428571428,12.449282106690081z" stroke="none"/><path d="M18,9.05L18,8.95L18.663567820975796,8.95L19.092139249547227,9.378571428571426L21.020710678118654,9.378571428571426L21.23499639240437,9.592857142857142L21.87785353526151,9.592857142857142L22.30642496383294,10.021428571428569L22.520710678118654,10.021428571428569L22.94928210669008,10.45L23.37785353526151,10.45L24.478571428571428,11.550717893309915L24.478571428571428,12.449282106690081L24.23499639240437,12.692857142857143L19.092139249547227,12.692857142857143L18.87785353526151,12.907142857142858L18.663567820975796,12.907142857142858L18.23499639240437,13.335714285714285L8.122146464738488,13.335714285714285L7.479289321881345,12.692857142857143L7.265003607595631,12.692857142857143L7.021428571428571,12.449282106690081L7.021428571428571,11.550717893309915L7.265003607595631,11.307142857142857L7.479289321881345,11.307142857142857L8.521428571428569,10.26500360759563L8.521428571428569,10.050717893309915L8.735714285714284,9.836432179024204L8.735714285714284,9.407860750452773L8.95,9.193575036167061L8.95,9L9.05,9L9.05,9.23499639240437L8.835714285714285,9.449282106690081L8.835714285714285,9.877853535261512L8.62142857142857,10.092139249547223L8.62142857142857,10.306424963832939L7.520710678118655,11.407142857142858L7.30642496383294,11.407142857142858L7.121428571428571,11.592139249547223L7.121428571428571,12.407860750452773L7.30642496383294,12.592857142857142L7.520710678118655,12.592857142857142L8.163567820975796,13.235714285714284L18.19357503616706,13.235714285714284L18.62214646473849,12.807142857142857L18.836432179024204,12.807142857142857L19.05071789330992,12.592857142857142L24.19357503616706,12.592857142857142L24.378571428571426,12.407860750452773L24.378571428571426,11.592139249547223L23.336432179024204,10.55L22.907860750452773,10.55L22.479289321881346,10.12142857142857L22.26500360759563,10.12142857142857L21.836432179024204,9.692857142857143L21.19357503616706,9.692857142857143L20.979289321881346,9.478571428571428L19.05071789330992,9.478571428571428L18.62214646473849,9.05z" stroke="none"/><path d="M6,3.05L6,2.95L7.050717893309916,2.95L7.69357503616706,2.3071428571428574L12.449282106690081,2.3071428571428574L12.663567820975796,2.521428571428572L13.520710678118654,2.521428571428572L13.73499639240437,2.7357142857142858L14.806424963832939,2.7357142857142858L15.035355339059327,2.9646446609406727L14.964644660940673,3.0353553390593273L14.76500360759563,2.8357142857142854L13.693575036167061,2.8357142857142854L13.479289321881346,2.6214285714285714L12.622146464738488,2.6214285714285714L12.407860750452773,2.407142857142857L7.734996392404369,2.407142857142857L7.092139249547226,3.05z" stroke="none"/><path d="M22.5,7.45L22.5,7.55L22.30642496383294,7.55L22.092139249547227,7.764285714285714L21.663567820975796,7.764285714285714L21.44928210669008,7.978571428571428L18.23499639240437,7.978571428571428L18.020710678118654,8.192857142857143L14.163567820975796,8.192857142857143L13.764285714285716,8.592139249547223L13.764285714285716,8.806424963832939L13.535355339059327,9.035355339059327L13.464644660940673,8.964644660940673L13.664285714285715,8.76500360759563L13.664285714285715,8.550717893309915L14.122146464738488,8.092857142857142L17.979289321881346,8.092857142857142L18.19357503616706,7.878571428571428L21.407860750452773,7.878571428571428L21.62214646473849,7.664285714285715L22.05071789330992,7.664285714285715L22.26500360759563,7.45z" stroke="none"/><path d="M15.035355339059327,4.535355339059327L14.964644660940673,4.464644660940673L15.164285714285715,4.265003607595631L15.164285714285715,3.8364321790242024L15.378571428571426,3.622146464738488L15.378571428571426,2.5921392495472264L15.193575036167061,2.407142857142857L12.836432179024204,2.407142857142857L12.622146464738488,2.1928571428571426L3.020710678118655,2.1928571428571426L2.6214285714285714,2.5921392495472264L2.6214285714285714,3.8364321790242024L2.8357142857142854,4.050717893309916L2.8357142857142854,4.265003607595631L3.0353553390593273,4.464644660940673L2.9646446609406727,4.535355339059327L2.7357142857142858,4.30642496383294L2.7357142857142858,4.092139249547226L2.521428571428572,3.877853535261512L2.521428571428572,2.550717893309917L2.979289321881345,2.092857142857143L12.663567820975796,2.092857142857143L12.877853535261512,2.3071428571428574L15.23499639240437,2.3071428571428574L15.478571428571428,2.550717893309917L15.478571428571428,3.6635678209757976L15.264285714285716,3.877853535261512L15.264285714285716,4.30642496383294z" stroke="none"/><path d="M12.035355339059327,10.464644660940673L11.964644660940673,10.535355339059327L11.521428571428569,10.092139249547223L11.521428571428569,9.449282106690081L11.092857142857142,9.020710678118654L11.092857142857142,8.806424963832939L10.907860750452773,8.62142857142857L8.592139249547223,8.62142857142857L5.621428571428571,11.592139249547223L5.621428571428571,12.407860750452773L5.80642496383294,12.592857142857142L6.234996392404369,12.592857142857142L6.663567820975797,13.021428571428569L6.8778535352615116,13.021428571428569L7.092139249547226,13.235714285714284L7.734996392404369,13.235714285714284L7.949282106690083,13.45L21.62214646473849,13.45L22.05071789330992,13.021428571428569L26.12214646473849,13.021428571428569L26.550717893309915,12.592857142857142L27.19357503616706,12.592857142857142L27.378571428571426,12.407860750452773L27.378571428571426,8.979289321881346L27.807142857142857,8.550717893309915L27.807142857142857,4.520710678118655L27.407860750452773,4.121428571428571L26.592139249547223,4.121428571428571L24.87785353526151,5.835714285714285L24.44928210669008,5.835714285714285L24.23499639240437,6.05L24,6.05L24,5.95L24.19357503616706,5.95L24.407860750452773,5.735714285714286L24.836432179024204,5.735714285714286L26.550717893309915,4.021428571428571L27.44928210669008,4.021428571428571L27.90714285714286,4.479289321881345L27.90714285714286,8.592139249547223L27.478571428571428,9.020710678118654L27.478571428571428,12.449282106690081L27.23499639240437,12.692857142857143L26.592139249547223,12.692857142857143L26.163567820975796,13.12142857142857L22.092139249547227,13.12142857142857L21.663567820975796,13.55L7.907860750452773,13.55L7.69357503616706,13.335714285714285L7.050717893309916,13.335714285714285L6.836432179024202,13.12142857142857L6.622146464738488,13.12142857142857L6.19357503616706,12.692857142857143L5.765003607595631,12.692857142857143L5.521428571428571,12.449282106690081L5.521428571428571,11.550717893309915L8.550717893309915,8.521428571428569L10.949282106690081,8.521428571428569L11.192857142857143,8.76500360759563L11.192857142857143,8.979289321881346L11.62142857142857,9.407860750452773L11.62142857142857,10.050717893309915z" stroke="none"/><path d="M21,2.95L21,3.05L17.76500360759563,3.05L17.55071789330992,2.8357142857142854L17.336432179024204,2.8357142857142854L17.12214646473849,2.6214285714285714L16.479289321881346,2.6214285714285714L16.26500360759563,2.407142857142857L15.836432179024204,2.407142857142857L15.622146464738488,2.1928571428571426L13.050717893309915,2.1928571428571426L12.836432179024204,1.9785714285714286L2.8064249638329404,1.9785714285714286L2.407142857142857,2.377853535261512L2.407142857142857,10.693575036167061L2.5921392495472264,10.878571428571426L4.907860750452774,10.878571428571426L5.979289321881345,9.807142857142857L6.407860750452773,9.807142857142857L8.76500360759563,7.45L9,7.45L9,7.55L8.806424963832939,7.55L6.449282106690083,9.907142857142858L6.020710678118655,9.907142857142858L4.949282106690084,10.978571428571428L2.550717893309917,10.978571428571428L2.3071428571428574,10.73499639240437L2.3071428571428574,2.3364321790242024L2.765003607595631,1.8785714285714286L12.877853535261512,1.8785714285714286L13.092139249547223,2.092857142857143L15.663567820975796,2.092857142857143L15.877853535261512,2.3071428571428574L16.30642496383294,2.3071428571428574L16.520710678118654,2.521428571428572L17.163567820975796,2.521428571428572L17.37785353526151,2.7357142857142858L17.592139249547227,2.7357142857142858L17.80642496383294,2.95z" stroke="none"/><path d="M4.535355339059327,11.964644660940673L4.464644660940673,12.035355339059327L4.265003607595631,11.835714285714285L4.050717893309916,11.835714285714285L3.8364321790242024,11.62142857142857L3.4078607504527736,11.62142857142857L2.979289321881345,11.192857142857143L2.3364321790242024,11.192857142857143L2.092857142857143,10.949282106690081L2.092857142857143,2.122146464738488L2.550717893309917,1.6642857142857144L17.37785353526151,1.6642857142857144L17.592139249547227,1.8785714285714286L18.23499639240437,1.8785714285714286L18.44928210669008,2.092857142857143L20.80642496383294,2.092857142857143L21.020710678118654,2.3071428571428574L21.23499639240437,2.3071428571428574L21.478571428571428,2.550717893309917L21.478571428571428,3.449282106690083L21.23499639240437,3.6928571428571426L18.020710678118654,3.6928571428571426L17.621428571428574,4.092139249547226L17.621428571428574,5.592139249547226L17.40714285714286,5.80642496383294L17.40714285714286,6.020710678118655L17.192857142857143,6.234996392404369L17.192857142857143,6.449282106690083L16.978571428571428,6.663567820975797L16.978571428571428,6.8778535352615116L16.55,7.30642496383294L16.55,7.5L16.45,7.5L16.45,7.265003607595631L16.878571428571426,6.836432179024202L16.878571428571426,6.622146464738488L17.09285714285714,6.407860750452773L17.09285714285714,6.19357503616706L17.307142857142857,5.979289321881345L17.307142857142857,5.765003607595631L17.521428571428572,5.550717893309916L17.521428571428572,4.050717893309916L17.979289321881346,3.592857142857143L21.19357503616706,3.592857142857143L21.378571428571426,3.4078607504527736L21.378571428571426,2.5921392495472264L21.19357503616706,2.407142857142857L20.979289321881346,2.407142857142857L20.76500360759563,2.1928571428571426L18.407860750452773,2.1928571428571426L18.19357503616706,1.9785714285714286L17.55071789330992,1.9785714285714286L17.336432179024204,1.7642857142857145L2.5921392495472264,1.7642857142857145L2.1928571428571426,2.1635678209757976L2.1928571428571426,10.907860750452773L2.377853535261512,11.092857142857142L3.020710678118655,11.092857142857142L3.449282106690083,11.521428571428569L3.877853535261512,11.521428571428569L4.092139249547226,11.735714285714284L4.30642496383294,11.735714285714284z" stroke="none"/></svg>