<svg version="1.1" width="30" height="15" xmlns="http://www.w3.org/2000/svg"><path d="M7.45,8.307142857142857L7.45,7.5L7.55,7.5L7.55,8.336432179024204L9.449282106690081,10.235714285714284L10.306424963832939,10.235714285714284L10.535355339059327,10.464644660940673L10.464644660940673,10.535355339059327L10.26500360759563,10.335714285714285L9.407860750452773,10.335714285714285L7.479289321881345,8.407142857142858L6.836432179024202,8.407142857142858L6.19357503616706,7.764285714285714L5.122146464738488,7.764285714285714L4.907860750452774,7.55L4.5,7.55L4.5,7.45L4.949282106690084,7.45L5.163567820975797,7.664285714285715L6.234996392404369,7.664285714285715L6.8778535352615116,8.307142857142857z" stroke="none"/><path d="M20.307142857142857,8.979289321881346L20.307142857142857,8.806424963832939L20.09285714285714,8.592139249547223L20.09285714285714,8.377853535261512L19.878571428571426,8.163567820975796L19.878571428571426,7.949282106690083L19.664285714285715,7.734996392404369L19.664285714285715,6.449282106690083L19.45,6.234996392404369L19.45,6L19.55,6L19.55,6.19357503616706L19.764285714285716,6.407860750452773L19.764285714285716,7.69357503616706L19.978571428571428,7.907860750452773L19.978571428571428,8.122146464738488L20.192857142857143,8.336432179024204L20.192857142857143,8.550717893309915L20.40714285714286,8.76500360759563L20.40714285714286,8.979289321881346L21.663567820975796,10.235714285714284L22.092139249547227,10.235714285714284L22.30642496383294,10.45L22.5,10.45L22.5,10.55L22.26500360759563,10.55L22.05071789330992,10.335714285714285L21.62214646473849,10.335714285714285L20.357142857142858,9.070710678118655L20.192857142857143,9.23499639240437L20.192857142857143,9.663567820975796L19.764285714285716,10.092139249547223L19.764285714285716,10.306424963832939L19.53535533905933,10.535355339059327L19.46464466094067,10.464644660940673L19.664285714285715,10.26500360759563L19.664285714285715,10.050717893309915L20.09285714285714,9.622146464738488L20.09285714285714,9.193575036167061z" stroke="none"/><path d="M21.857142857142858,9.357860750452772L22.69357503616706,8.521428571428569L22.907860750452773,8.521428571428569L23.336432179024204,8.092857142857142L24.836432179024204,8.092857142857142L25.46464466094067,7.464644660940673L25.53535533905933,7.535355339059327L24.87785353526151,8.192857142857143L23.37785353526151,8.192857142857143L22.94928210669008,8.62142857142857L22.73499639240437,8.62142857142857L21.927853535261512,9.428571428571427L22.092139249547227,9.592857142857142L22.520710678118654,9.592857142857142L23.40714285714286,10.479289321881346L23.40714285714286,10.693575036167061L24.44928210669008,11.735714285714284L24.87785353526151,11.735714285714284L25.092139249547223,11.95L25.5,11.95L25.5,12.05L25.050717893309915,12.05L24.836432179024204,11.835714285714285L24.407860750452773,11.835714285714285L23.307142857142857,10.73499639240437L23.307142857142857,10.520710678118654L22.479289321881346,9.692857142857143L22.05071789330992,9.692857142857143L21.59285714285714,9.23499639240437L21.59285714285714,9.020710678118654L21.164285714285715,8.592139249547223L21.164285714285715,7.520710678118655L20.95,7.30642496383294L20.95,7.092139249547226L20.735714285714284,6.8778535352615116L20.735714285714284,6.663567820975797L20.09285714285714,6.020710678118655L20.09285714285714,5.80642496383294L19.907860750452773,5.621428571428571L19.092139249547227,5.621428571428571L18.478571428571428,6.234996392404369L18.478571428571428,6.449282106690083L17.80642496383294,7.121428571428571L17.592139249547227,7.121428571428571L17.192857142857143,7.520710678118655L17.192857142857143,7.734996392404369L16.94928210669008,7.978571428571428L16.520710678118654,7.978571428571428L15.663567820975796,8.835714285714285L15.23499639240437,8.835714285714285L15.035355339059327,9.035355339059327L14.964644660940673,8.964644660940673L15.193575036167061,8.735714285714284L15.622146464738488,8.735714285714284L16.479289321881346,7.878571428571428L16.907860750452773,7.878571428571428L17.09285714285714,7.69357503616706L17.09285714285714,7.479289321881345L17.55071789330992,7.021428571428571L17.76500360759563,7.021428571428571L18.378571428571426,6.407860750452773L18.378571428571426,6.19357503616706L19.05071789330992,5.521428571428571L19.94928210669008,5.521428571428571L20.192857142857143,5.765003607595631L20.192857142857143,5.979289321881345L20.835714285714285,6.622146464738488L20.835714285714285,6.836432179024202L21.05,7.050717893309916L21.05,7.265003607595631L21.264285714285716,7.479289321881345L21.264285714285716,8.550717893309915L21.692857142857143,8.979289321881346L21.692857142857143,9.193575036167061z" stroke="none"/><path d="M11.806424963832939,8.521428571428569L12.020710678118654,8.735714285714284L12.23499639240437,8.735714285714284L12.877853535261512,9.378571428571426L13.306424963832939,9.378571428571426L13.73499639240437,9.807142857142857L13.949282106690081,9.807142857142857L14.163567820975796,10.021428571428569L15.449282106690081,10.021428571428569L15.663567820975796,10.235714285714284L16.092139249547223,10.235714285714284L16.30642496383294,10.45L16.5,10.45L16.5,10.55L16.26500360759563,10.55L16.050717893309915,10.335714285714285L15.622146464738488,10.335714285714285L15.407860750452773,10.12142857142857L14.122146464738488,10.12142857142857L13.907860750452773,9.907142857142858L13.693575036167061,9.907142857142858L13.26500360759563,9.478571428571428L12.836432179024204,9.478571428571428L12.193575036167061,8.835714285714285L11.979289321881346,8.835714285714285L11.76500360759563,8.62142857142857L11.263567820975798,8.62142857142857L11.377853535261512,8.735714285714284L11.592139249547223,8.735714285714284L11.806424963832939,8.95L12,8.95L12,9.05L11.76500360759563,9.05L11.550717893309915,8.835714285714285L11.336432179024204,8.835714285714285L11.142857142857142,8.642139249547224L10.949282106690081,8.835714285714285L10.73499639240437,8.835714285714285L10.535355339059327,9.035355339059327L10.464644660940673,8.964644660940673L10.693575036167061,8.735714285714284L10.907860750452773,8.735714285714284L11.022146464738487,8.62142857142857L10.479289321881346,8.62142857142857L10.26500360759563,8.407142857142858L9.836432179024204,8.407142857142858L9.622146464738488,8.192857142857143L8.979289321881346,8.192857142857143L8.76500360759563,7.978571428571428L8.550717893309915,7.978571428571428L8.307142857142857,7.734996392404369L8.307142857142857,7.520710678118655L7.907860750452773,7.121428571428571L7.265003607595631,7.121428571428571L6.407860750452773,6.264285714285714L6.19357503616706,6.264285714285714L5.964644660940673,6.035355339059327L6.035355339059327,5.964644660940673L6.234996392404369,6.164285714285715L6.449282106690083,6.164285714285715L7.30642496383294,7.021428571428571L7.949282106690083,7.021428571428571L8.407142857142858,7.479289321881345L8.407142857142858,7.69357503616706L8.592139249547223,7.878571428571428L8.806424963832939,7.878571428571428L9.020710678118654,8.092857142857142L9.663567820975796,8.092857142857142L9.877853535261512,8.307142857142857L10.306424963832939,8.307142857142857L10.520710678118654,8.521428571428569z" stroke="none"/><path d="M17.592139249547227,3.8071428571428574L17.76500360759563,3.8071428571428574L18.19357503616706,3.3785714285714286L18.62214646473849,3.3785714285714286L18.836432179024204,3.1642857142857146L22.907860750452773,3.1642857142857146L23.12214646473849,2.95L24,2.95L24,3.05L23.163567820975796,3.05L22.94928210669008,3.2642857142857142L18.87785353526151,3.2642857142857142L18.663567820975796,3.478571428571428L18.23499639240437,3.478571428571428L17.80642496383294,3.907142857142857L17.621428571428574,3.907142857142857L17.621428571428574,4.907860750452774L17.835714285714285,5.122146464738488L17.835714285714285,5.336432179024202L18.05,5.550717893309916L18.05,6L17.95,6L17.95,5.592139249547226L17.735714285714284,5.3778535352615116L17.735714285714284,5.163567820975797L17.521428571428572,4.949282106690084L17.521428571428572,3.907142857142857L12.663567820975796,3.907142857142857L12.035355339059327,4.535355339059327L11.964644660940673,4.464644660940673L12.622146464738488,3.8071428571428574L17.450717893309918,3.8071428571428574L17.336432179024204,3.6928571428571426L17.12214646473849,3.6928571428571426L16.46464466094067,3.0353553390593273L16.53535533905933,2.9646446609406727L17.163567820975796,3.592857142857143L17.37785353526151,3.592857142857143z" stroke="none"/><path d="M13.45,6.164285714285715L13.45,4.5L13.55,4.5L13.55,6.164285714285715L13.693575036167061,6.164285714285715L13.878571428571426,5.979289321881345L13.878571428571426,4.520710678118655L13.693575036167061,4.335714285714285L13.306424963832939,4.335714285714285L12.663567820975796,4.978571428571429L11.550717893309915,4.978571428571429L11.307142857142857,4.734996392404369L11.307142857142857,4.265003607595631L11.76500360759563,3.8071428571428574L11.979289321881346,3.8071428571428574L12.193575036167061,3.592857142857143L13.693575036167061,3.592857142857143L14.336432179024204,2.95L15.407860750452773,2.95L15.622146464738488,2.7357142857142858L15.836432179024204,2.7357142857142858L16.050717893309915,2.521428571428572L23.76500360759563,2.521428571428572L23.979289321881346,2.3071428571428574L24.23499639240437,2.3071428571428574L24.478571428571428,2.550717893309917L24.478571428571428,3.449282106690083L24.020710678118654,3.907142857142857L23.80642496383294,3.907142857142857L23.192857142857143,4.520710678118655L23.192857142857143,4.734996392404369L22.520710678118654,5.407142857142857L22.30642496383294,5.407142857142857L21.87785353526151,5.835714285714285L21.44928210669008,5.835714285714285L21.23499639240437,6.05L21,6.05L21,5.95L21.19357503616706,5.95L21.407860750452773,5.735714285714286L21.836432179024204,5.735714285714286L22.26500360759563,5.307142857142857L22.479289321881346,5.307142857142857L23.09285714285714,4.69357503616706L23.09285714285714,4.479289321881345L23.76500360759563,3.8071428571428574L23.979289321881346,3.8071428571428574L24.378571428571426,3.4078607504527736L24.378571428571426,2.5921392495472264L24.19357503616706,2.407142857142857L24.020710678118654,2.407142857142857L23.80642496383294,2.6214285714285714L16.092139249547223,2.6214285714285714L15.877853535261512,2.8357142857142854L15.663567820975796,2.8357142857142854L15.449282106690081,3.05L14.377853535261512,3.05L13.73499639240437,3.6928571428571426L12.23499639240437,3.6928571428571426L12.020710678118654,3.907142857142857L11.806424963832939,3.907142857142857L11.407142857142858,4.30642496383294L11.407142857142858,4.69357503616706L11.592139249547223,4.878571428571429L12.622146464738488,4.878571428571429L13.26500360759563,4.235714285714286L13.73499639240437,4.235714285714286L13.978571428571428,4.479289321881345L13.978571428571428,6.020710678118655L13.73499639240437,6.264285714285714L13.55,6.264285714285714L13.55,6.449282106690083L13.306424963832939,6.692857142857142L13.092139249547223,6.692857142857142L12.877853535261512,6.907142857142857L12.663567820975796,6.907142857142857L12.23499639240437,7.335714285714285L11.806424963832939,7.335714285714285L11.377853535261512,7.764285714285714L9.407860750452773,7.764285714285714L9.193575036167061,7.55L9,7.55L9,7.45L9.23499639240437,7.45L9.449282106690081,7.664285714285715L11.336432179024204,7.664285714285715L11.76500360759563,7.235714285714286L12.193575036167061,7.235714285714286L12.622146464738488,6.807142857142857L12.836432179024204,6.807142857142857L13.050717893309915,6.5928571428571425L13.26500360759563,6.5928571428571425L13.45,6.407860750452773L13.45,6.264285714285714L12.663567820975796,6.264285714285714L12.449282106690081,6.478571428571428L12.23499639240437,6.478571428571428L12.020710678118654,6.692857142857142L11.806424963832939,6.692857142857142L11.592139249547223,6.907142857142857L11.163567820975796,6.907142857142857L10.535355339059327,7.535355339059327L10.464644660940673,7.464644660940673L11.122146464738488,6.807142857142857L11.550717893309915,6.807142857142857L11.76500360759563,6.5928571428571425L11.979289321881346,6.5928571428571425L12.193575036167061,6.378571428571428L12.407860750452773,6.378571428571428L12.622146464738488,6.164285714285715z" stroke="none"/><path d="M16.45,6L16.55,6L16.55,7.5L16.45,7.5z" stroke="none"/><path d="M4.5,12.05L4.5,11.95L6,11.95L6,12.05z" stroke="none"/><path d="M25.53535533905933,6.035355339059327L25.46464466094067,5.964644660940673L26.96464466094067,4.464644660940673L27.03535533905933,4.535355339059327z" stroke="none"/><path d="M13.535355339059327,12.035355339059327L13.464644660940673,11.964644660940673L14.964644660940673,10.464644660940673L15.035355339059327,10.535355339059327z" stroke="none"/><path d="M20.96464466094067,10.464644660940673L21.03535533905933,10.535355339059327L19.53535533905933,12.035355339059327L19.46464466094067,11.964644660940673z" stroke="none"/><path d="M24.03535533905933,10.535355339059327L23.96464466094067,10.464644660940673L25.46464466094067,8.964644660940673L25.53535533905933,9.035355339059327z" stroke="none"/><path d="M8.964644660940673,4.535355339059327L9.035355339059327,4.464644660940673L10.535355339059327,5.964644660940673L10.464644660940673,6.035355339059327z" stroke="none"/><path d="M4.535355339059327,10.464644660940673L4.464644660940673,10.535355339059327L2.9646446609406727,9.035355339059327L3.0353553390593273,8.964644660940673z" stroke="none"/><path d="M7.464644660940673,4.535355339059327L7.535355339059327,4.464644660940673L9.035355339059327,5.964644660940673L8.964644660940673,6.035355339059327z" stroke="none"/><path d="M6,10.45L6,10.55L5.3778535352615116,10.55L4.949282106690084,10.978571428571428L3.4078607504527736,10.978571428571428L2.9646446609406727,10.535355339059327L3.0353553390593273,10.464644660940673L3.449282106690083,10.878571428571426L4.907860750452774,10.878571428571426L5.336432179024202,10.45z" stroke="none"/><path d="M24.05,7.5L23.95,7.5L23.95,4.5L24.05,4.5z" stroke="none"/><path d="M19.5,4.55L19.5,4.45L19.94928210669008,4.45L20.37785353526151,4.878571428571429L21.62214646473849,4.878571428571429L21.836432179024204,4.664285714285715L22.05071789330992,4.664285714285715L22.26500360759563,4.45L22.5,4.45L22.5,4.55L22.30642496383294,4.55L22.092139249547227,4.764285714285714L21.87785353526151,4.764285714285714L21.663567820975796,4.978571428571429L20.336432179024204,4.978571428571429L19.907860750452773,4.55z" stroke="none"/><path d="M9,3.05L9,2.95L12,2.95L12,3.05z" stroke="none"/><path d="M18.03535533905933,4.535355339059327L17.96464466094067,4.464644660940673L18.19357503616706,4.235714285714286L18.62214646473849,4.235714285714286L18.836432179024204,4.021428571428571L20.592139249547227,4.021428571428571L21.03535533905933,4.464644660940673L20.96464466094067,4.535355339059327L20.55071789330992,4.121428571428571L18.87785353526151,4.121428571428571L18.663567820975796,4.335714285714285L18.23499639240437,4.335714285714285z" stroke="none"/><path d="M27.03535533905933,10.464644660940673L26.96464466094067,10.535355339059327L26.52142857142857,10.092139249547223L26.52142857142857,9.449282106690081L26.307142857142857,9.23499639240437L26.307142857142857,9.020710678118654L25.907860750452773,8.62142857142857L24.87785353526151,8.62142857142857L24.663567820975796,8.835714285714285L24.44928210669008,8.835714285714285L24.23499639240437,9.05L24,9.05L24,8.95L24.19357503616706,8.95L24.407860750452773,8.735714285714284L24.62214646473849,8.735714285714284L24.836432179024204,8.521428571428569L25.94928210669008,8.521428571428569L26.40714285714286,8.979289321881346L26.40714285714286,9.193575036167061L26.62142857142857,9.407860750452773L26.62142857142857,10.050717893309915z" stroke="none"/><path d="M3.0353553390593273,6.035355339059327L2.9646446609406727,5.964644660940673L5.964644660940673,2.9646446609406727L6.035355339059327,3.0353553390593273z" stroke="none"/><path d="M4.535355339059327,6.035355339059327L4.464644660940673,5.964644660940673L7.464644660940673,2.9646446609406727L7.535355339059327,3.0353553390593273z" stroke="none"/><path d="M11.964644660940673,10.464644660940673L12.035355339059327,10.535355339059327L11.592139249547223,10.978571428571428L9.836432179024204,10.978571428571428L9.407860750452773,10.55L9.193575036167061,10.55L8.979289321881346,10.335714285714285L8.76500360759563,10.335714285714285L8.550717893309915,10.12142857142857L8.336432179024204,10.12142857142857L8.122146464738488,9.907142857142858L7.69357503616706,9.907142857142858L7.479289321881345,9.692857142857143L7.050717893309916,9.692857142857143L6.836432179024202,9.478571428571428L6.407860750452773,9.478571428571428L6.19357503616706,9.264285714285716L5.979289321881345,9.264285714285716L5.336432179024202,8.62142857142857L4.907860750452774,8.62142857142857L4.479289321881345,8.192857142857143L4.265003607595631,8.192857142857143L4.021428571428571,7.949282106690083L4.021428571428571,7.050717893309916L4.479289321881345,6.5928571428571425L4.69357503616706,6.5928571428571425L5.307142857142857,5.979289321881345L5.307142857142857,5.765003607595631L5.550717893309916,5.521428571428571L7.520710678118655,5.521428571428571L7.734996392404369,5.735714285714286L7.949282106690083,5.735714285714286L8.592139249547223,6.378571428571428L11.336432179024204,6.378571428571428L11.76500360759563,5.95L12,5.95L12,6.05L11.806424963832939,6.05L11.377853535261512,6.478571428571428L8.550717893309915,6.478571428571428L7.907860750452773,5.835714285714285L7.69357503616706,5.835714285714285L7.479289321881345,5.621428571428571L5.592139249547226,5.621428571428571L5.407142857142857,5.80642496383294L5.407142857142857,6.020710678118655L4.734996392404369,6.692857142857142L4.520710678118655,6.692857142857142L4.121428571428571,7.092139249547226L4.121428571428571,7.907860750452773L4.30642496383294,8.092857142857142L4.520710678118655,8.092857142857142L4.949282106690084,8.521428571428569L5.3778535352615116,8.521428571428569L6.020710678118655,9.164285714285715L6.234996392404369,9.164285714285715L6.449282106690083,9.378571428571426L6.8778535352615116,9.378571428571426L7.092139249547226,9.592857142857142L7.520710678118655,9.592857142857142L7.734996392404369,9.807142857142857L8.163567820975796,9.807142857142857L8.377853535261512,10.021428571428569L8.592139249547223,10.021428571428569L8.806424963832939,10.235714285714284L9.020710678118654,10.235714285714284L9.23499639240437,10.45L9.449282106690081,10.45L9.877853535261512,10.878571428571426L11.550717893309915,10.878571428571426z" stroke="none"/><path d="M22.5,12.05L22.5,11.95L23.80642496383294,11.95L24.23499639240437,12.378571428571426L26.12214646473849,12.378571428571426L26.336432179024204,12.164285714285715L26.76500360759563,12.164285714285715L26.96464466094067,11.964644660940673L27.03535533905933,12.035355339059327L26.80642496383294,12.264285714285716L26.37785353526151,12.264285714285716L26.163567820975796,12.478571428571428L24.19357503616706,12.478571428571428L23.76500360759563,12.05z" stroke="none"/><path d="M18,10.45L18,10.55L17.55071789330992,10.55L17.336432179024204,10.335714285714285L17.12214646473849,10.335714285714285L16.69357503616706,9.907142857142858L16.26500360759563,9.907142857142858L16.050717893309915,9.692857142857143L15.193575036167061,9.692857142857143L14.979289321881346,9.478571428571428L14.550717893309915,9.478571428571428L14.307142857142857,9.23499639240437L14.307142857142857,8.806424963832939L13.878571428571426,8.377853535261512L13.878571428571426,8.163567820975796L13.664285714285715,7.949282106690083L13.664285714285715,7.734996392404369L13.464644660940673,7.535355339059327L13.535355339059327,7.464644660940673L13.764285714285716,7.69357503616706L13.764285714285716,7.907860750452773L13.978571428571428,8.122146464738488L13.978571428571428,8.336432179024204L14.407142857142858,8.76500360759563L14.407142857142858,9.193575036167061L14.592139249547223,9.378571428571426L15.020710678118654,9.378571428571426L15.23499639240437,9.592857142857142L16.092139249547223,9.592857142857142L16.30642496383294,9.807142857142857L16.73499639240437,9.807142857142857L17.163567820975796,10.235714285714284L17.37785353526151,10.235714285714284L17.592139249547227,10.45z" stroke="none"/><path d="M26.95,9L27.05,9L27.05,9.622146464738488L27.478571428571428,10.050717893309915L27.478571428571428,12.449282106690081L27.23499639240437,12.692857142857143L19.26500360759563,12.692857142857143L19.021428571428572,12.449282106690081L19.021428571428572,9.836432179024204L19.45,9.407860750452773L19.45,9L19.55,9L19.55,9.449282106690081L19.121428571428574,9.877853535261512L19.121428571428574,12.407860750452773L19.30642496383294,12.592857142857142L27.19357503616706,12.592857142857142L27.378571428571426,12.407860750452773L27.378571428571426,10.092139249547223L26.95,9.663567820975796z" stroke="none"/><path d="M17.95,7.5L18.05,7.5L18.05,9.622146464738488L18.478571428571428,10.050717893309915L18.478571428571428,10.949282106690081L18.23499639240437,11.192857142857143L16.092139249547223,11.192857142857143L15.877853535261512,11.407142857142858L15.449282106690081,11.407142857142858L14.377853535261512,12.478571428571428L11.979289321881346,12.478571428571428L11.336432179024204,11.835714285714285L11.122146464738488,11.835714285714285L10.907860750452773,11.62142857142857L8.76500360759563,11.62142857142857L7.265003607595631,10.12142857142857L6.622146464738488,10.12142857142857L6.407860750452773,9.907142857142858L6.19357503616706,9.907142857142858L5.336432179024202,9.05L5.122146464738488,9.05L4.907860750452774,8.835714285714285L4.69357503616706,8.835714285714285L4.265003607595631,8.407142857142858L4.050717893309916,8.407142857142858L3.8071428571428574,8.163567820975796L3.8071428571428574,5.765003607595631L5.979289321881345,3.592857142857143L6.19357503616706,3.592857142857143L6.807142857142857,2.979289321881345L6.807142857142857,2.765003607595631L7.050717893309916,2.521428571428572L7.949282106690083,2.521428571428572L8.192857142857143,2.765003607595631L8.192857142857143,2.979289321881345L8.592139249547223,3.3785714285714286L8.806424963832939,3.3785714285714286L9.449282106690081,4.021428571428571L10.092139249547223,4.021428571428571L10.535355339059327,4.464644660940673L10.464644660940673,4.535355339059327L10.050717893309915,4.121428571428571L9.407860750452773,4.121428571428571L8.76500360759563,3.478571428571428L8.550717893309915,3.478571428571428L8.092857142857142,3.020710678118655L8.092857142857142,2.8064249638329404L7.907860750452773,2.6214285714285714L7.092139249547226,2.6214285714285714L6.907142857142857,2.8064249638329404L6.907142857142857,3.020710678118655L6.234996392404369,3.6928571428571426L6.020710678118655,3.6928571428571426L3.907142857142857,5.80642496383294L3.907142857142857,8.122146464738488L4.092139249547226,8.307142857142857L4.30642496383294,8.307142857142857L4.734996392404369,8.735714285714284L4.949282106690084,8.735714285714284L5.163567820975797,8.95L5.3778535352615116,8.95L6.234996392404369,9.807142857142857L6.449282106690083,9.807142857142857L6.663567820975797,10.021428571428569L7.30642496383294,10.021428571428569L8.806424963832939,11.521428571428569L10.949282106690081,11.521428571428569L11.163567820975796,11.735714285714284L11.377853535261512,11.735714285714284L12.020710678118654,12.378571428571426L14.336432179024204,12.378571428571426L15.407860750452773,11.307142857142857L15.836432179024204,11.307142857142857L16.050717893309915,11.092857142857142L18.19357503616706,11.092857142857142L18.378571428571426,10.907860750452773L18.378571428571426,10.092139249547223L17.95,9.663567820975796z" stroke="none"/><path d="M26.95,7.5L27.05,7.5L27.05,7.69357503616706L27.264285714285716,7.907860750452773L27.264285714285716,8.122146464738488L27.478571428571428,8.336432179024204L27.478571428571428,9.407860750452773L27.692857142857143,9.622146464738488L27.692857142857143,12.663567820975796L27.44928210669008,12.907142857142858L19.05071789330992,12.907142857142858L18.19357503616706,12.05L18,12.05L18,11.95L18.23499639240437,11.95L19.092139249547227,12.807142857142857L27.407860750452773,12.807142857142857L27.59285714285714,12.622146464738488L27.59285714285714,9.663567820975796L27.378571428571426,9.449282106690081L27.378571428571426,8.377853535261512L27.164285714285715,8.163567820975796L27.164285714285715,7.949282106690083L26.95,7.734996392404369z" stroke="none"/><path d="M10.5,12.05L10.5,11.95L10.73499639240437,11.95L10.949282106690081,12.164285714285715L11.377853535261512,12.164285714285715L11.806424963832939,12.592857142857142L18.23499639240437,12.592857142857142L18.663567820975796,13.021428571428569L27.62214646473849,13.021428571428569L27.807142857142857,12.836432179024204L27.807142857142857,7.734996392404369L27.59285714285714,7.520710678118655L27.59285714285714,7.30642496383294L27.407860750452773,7.121428571428571L25.092139249547223,7.121428571428571L24.90714285714286,7.30642496383294L24.90714285714286,7.520710678118655L24.44928210669008,7.978571428571428L23.12214646473849,7.978571428571428L22.907860750452773,7.764285714285714L22.69357503616706,7.764285714285714L22.46464466094067,7.535355339059327L22.53535533905933,7.464644660940673L22.73499639240437,7.664285714285715L22.94928210669008,7.664285714285715L23.163567820975796,7.878571428571428L24.407860750452773,7.878571428571428L24.807142857142857,7.479289321881345L24.807142857142857,7.265003607595631L25.050717893309915,7.021428571428571L27.44928210669008,7.021428571428571L27.692857142857143,7.265003607595631L27.692857142857143,7.479289321881345L27.90714285714286,7.69357503616706L27.90714285714286,12.877853535261512L27.663567820975796,13.12142857142857L18.62214646473849,13.12142857142857L18.19357503616706,12.692857142857143L11.76500360759563,12.692857142857143L11.336432179024204,12.264285714285716L10.907860750452773,12.264285714285716L10.693575036167061,12.05z" stroke="none"/></svg>