<svg version="1.1" width="30" height="15" xmlns="http://www.w3.org/2000/svg"><path d="M11.95,9.407860750452773L11.95,7.5L12.05,7.5L12.05,9.407860750452773L12.23499639240437,9.592857142857142L12.449282106690081,9.592857142857142L12.663567820975796,9.807142857142857L12.877853535261512,9.807142857142857L13.092139249547223,10.021428571428569L13.73499639240437,10.021428571428569L13.949282106690081,10.235714285714284L14.592139249547223,10.235714285714284L14.806424963832939,10.45L15,10.45L15,10.55L14.76500360759563,10.55L14.550717893309915,10.335714285714285L13.907860750452773,10.335714285714285L13.693575036167061,10.12142857142857L13.050717893309915,10.12142857142857L12.836432179024204,9.907142857142858L12.622146464738488,9.907142857142858L12.407860750452773,9.692857142857143L12.193575036167061,9.692857142857143L12,9.499282106690082L11.806424963832939,9.692857142857143L11.163567820975796,9.692857142857143L10.73499639240437,10.12142857142857L9.877853535261512,10.12142857142857L9.449282106690081,10.55L9,10.55L9,10.45L9.407860750452773,10.45L9.836432179024204,10.021428571428569L10.693575036167061,10.021428571428569L11.122146464738488,9.592857142857142L11.76500360759563,9.592857142857142z" stroke="none"/><path d="M9.807142857142857,11.307142857142857L9.807142857142857,11.122146464738488L10.050717893309915,10.878571428571426L10.73499639240437,10.878571428571426L10.949282106690081,11.092857142857142L12.663567820975796,11.092857142857142L12.877853535261512,11.307142857142857L14.377853535261512,11.307142857142857L15.035355339059327,11.964644660940673L14.964644660940673,12.035355339059327L14.336432179024204,11.407142857142858L12.836432179024204,11.407142857142858L12.622146464738488,11.192857142857143L10.907860750452773,11.192857142857143L10.693575036167061,10.978571428571428L10.092139249547223,10.978571428571428L9.907142857142858,11.163567820975796L9.907142857142858,11.307142857142857L10.73499639240437,11.307142857142857L10.949282106690081,11.521428571428569L11.163567820975796,11.521428571428569L11.377853535261512,11.735714285714284L11.592139249547223,11.735714285714284L11.806424963832939,11.95L12,11.95L12,12.05L11.76500360759563,12.05L11.550717893309915,11.835714285714285L11.336432179024204,11.835714285714285L11.122146464738488,11.62142857142857L10.907860750452773,11.62142857142857L10.693575036167061,11.407142857142858L4.479289321881345,11.407142857142858L4.265003607595631,11.192857142857143L4.050717893309916,11.192857142857143L3.8364321790242024,10.978571428571428L3.4078607504527736,10.978571428571428L2.9646446609406727,10.535355339059327L3.0353553390593273,10.464644660940673L3.449282106690083,10.878571428571426L3.877853535261512,10.878571428571426L4.092139249547226,11.092857142857142L4.30642496383294,11.092857142857142L4.520710678118655,11.307142857142857z" stroke="none"/><path d="M15.807142857142857,10.479289321881346L17.521428571428572,8.76500360759563L17.521428571428572,8.550717893309915L17.735714285714284,8.336432179024204L17.735714285714284,7.907860750452773L17.95,7.69357503616706L17.95,7.5L18.05,7.5L18.05,7.734996392404369L17.835714285714285,7.949282106690083L17.835714285714285,8.377853535261512L17.621428571428574,8.592139249547223L17.621428571428574,8.806424963832939L15.977853535261513,10.45L16.94928210669008,10.45L17.163567820975796,10.664285714285715L17.37785353526151,10.664285714285715L17.592139249547227,10.878571428571426L17.80642496383294,10.878571428571426L18.23499639240437,11.307142857142857L18.44928210669008,11.307142857142857L18.663567820975796,11.521428571428569L18.87785353526151,11.521428571428569L19.30642496383294,11.95L19.5,11.95L19.5,12.05L19.26500360759563,12.05L18.836432179024204,11.62142857142857L18.62214646473849,11.62142857142857L18.407860750452773,11.407142857142858L18.19357503616706,11.407142857142858L17.76500360759563,10.978571428571428L17.55071789330992,10.978571428571428L17.336432179024204,10.764285714285716L17.12214646473849,10.764285714285716L16.907860750452773,10.55L15.907142857142858,10.55L15.907142857142858,11.806424963832939L15.692857142857143,12.020710678118654L15.692857142857143,12.23499639240437L15.449282106690081,12.478571428571428L11.336432179024204,12.478571428571428L11.122146464738488,12.264285714285716L10.693575036167061,12.264285714285716L10.464644660940673,12.035355339059327L10.535355339059327,11.964644660940673L10.73499639240437,12.164285714285715L11.163567820975796,12.164285714285715L11.377853535261512,12.378571428571426L15.407860750452773,12.378571428571426L15.592857142857142,12.193575036167061L15.592857142857142,11.979289321881346L15.807142857142857,11.76500360759563z" stroke="none"/><path d="M11.550717893309915,9.807142857142857L12.23499639240437,9.807142857142857L12.449282106690081,10.021428571428569L12.663567820975796,10.021428571428569L12.877853535261512,10.235714285714284L13.306424963832939,10.235714285714284L13.520710678118654,10.45L13.949282106690081,10.45L14.377853535261512,10.878571428571426L15.407860750452773,10.878571428571426L15.592857142857142,10.693575036167061L15.592857142857142,8.377853535261512L15.164285714285715,7.949282106690083L15.164285714285715,7.734996392404369L14.964644660940673,7.535355339059327L15.035355339059327,7.464644660940673L15.264285714285716,7.69357503616706L15.264285714285716,7.907860750452773L15.692857142857143,8.336432179024204L15.692857142857143,10.73499639240437L15.449282106690081,10.978571428571428L14.336432179024204,10.978571428571428L13.907860750452773,10.55L13.479289321881346,10.55L13.26500360759563,10.335714285714285L12.836432179024204,10.335714285714285L12.622146464738488,10.12142857142857L12.407860750452773,10.12142857142857L12.193575036167061,9.907142857142858L11.692139249547225,9.907142857142858L11.835714285714285,10.050717893309915L11.835714285714285,10.26500360759563L12.035355339059327,10.464644660940673L11.964644660940673,10.535355339059327L11.735714285714284,10.306424963832939L11.735714285714284,10.092139249547223L11.62142857142857,9.977853535261513L11.62142857142857,10.306424963832939L11.377853535261512,10.55L10.949282106690081,10.55L10.73499639240437,10.764285714285716L9.663567820975796,10.764285714285716L9.449282106690081,10.978571428571428L4.69357503616706,10.978571428571428L3.8364321790242024,10.12142857142857L3.1935750361670596,10.12142857142857L2.979289321881345,9.907142857142858L2.8064249638329404,9.907142857142858L2.6214285714285714,10.092139249547223L2.6214285714285714,10.907860750452773L2.8064249638329404,11.092857142857142L3.020710678118655,11.092857142857142L3.449282106690083,11.521428571428569L8.377853535261512,11.521428571428569L8.806424963832939,11.95L9,11.95L9,12.05L8.76500360759563,12.05L8.336432179024204,11.62142857142857L3.4078607504527736,11.62142857142857L2.979289321881345,11.192857142857143L2.765003607595631,11.192857142857143L2.521428571428572,10.949282106690081L2.521428571428572,10.050717893309915L2.765003607595631,9.807142857142857L3.020710678118655,9.807142857142857L3.234996392404369,10.021428571428569L3.877853535261512,10.021428571428569L4.734996392404369,10.878571428571426L9.407860750452773,10.878571428571426L9.622146464738488,10.664285714285715L10.693575036167061,10.664285714285715L10.907860750452773,10.45L11.336432179024204,10.45L11.521428571428569,10.26500360759563L11.521428571428569,9.977853535261513L11.163567820975796,10.335714285714285L10.73499639240437,10.335714285714285L10.535355339059327,10.535355339059327L10.464644660940673,10.464644660940673L10.693575036167061,10.235714285714284L11.122146464738488,10.235714285714284z" stroke="none"/><path d="M23.09285714285714,10.021428571428569L23.09285714285714,9.836432179024204L23.550717893309915,9.378571428571426L23.76500360759563,9.378571428571426L24.19357503616706,8.95L24.407860750452773,8.95L24.62214646473849,8.735714285714284L25.73499639240437,8.735714285714284L25.978571428571428,8.979289321881346L25.978571428571428,9.193575036167061L26.40714285714286,9.622146464738488L26.40714285714286,9.836432179024204L27.03535533905933,10.464644660940673L26.96464466094067,10.535355339059327L26.307142857142857,9.877853535261512L26.307142857142857,9.663567820975796L25.878571428571426,9.23499639240437L25.878571428571426,9.020710678118654L25.69357503616706,8.835714285714285L24.663567820975796,8.835714285714285L24.44928210669008,9.05L24.23499639240437,9.05L23.80642496383294,9.478571428571428L23.592139249547223,9.478571428571428L23.192857142857143,9.877853535261512L23.192857142857143,10.021428571428569L23.550717893309915,10.021428571428569L24.19357503616706,9.378571428571426L24.62214646473849,9.378571428571426L25.050717893309915,8.95L25.5,8.95L25.5,9.05L25.092139249547223,9.05L24.663567820975796,9.478571428571428L24.23499639240437,9.478571428571428L23.592139249547223,10.12142857142857L23.192857142857143,10.12142857142857L23.192857142857143,10.26500360759563L23.40714285714286,10.479289321881346L23.40714285714286,10.693575036167061L24.44928210669008,11.735714285714284L25.30642496383294,11.735714285714284L25.53535533905933,11.964644660940673L25.46464466094067,12.035355339059327L25.26500360759563,11.835714285714285L24.407860750452773,11.835714285714285L23.307142857142857,10.73499639240437L23.307142857142857,10.520710678118654L23.09285714285714,10.306424963832939L23.09285714285714,10.12142857142857L22.907860750452773,10.12142857142857L22.664285714285715,9.877853535261512L22.664285714285715,8.336432179024204L22.878571428571426,8.122146464738488L22.878571428571426,4.092139249547226L22.69357503616706,3.907142857142857L14.163567820975796,3.907142857142857L13.949282106690081,4.121428571428571L13.73499639240437,4.121428571428571L13.520710678118654,4.335714285714285L11.592139249547223,4.335714285714285L11.377853535261512,4.55L11.163567820975796,4.55L10.12142857142857,5.592139249547226L10.12142857142857,6.407860750452773L10.306424963832939,6.5928571428571425L10.73499639240437,6.5928571428571425L10.949282106690081,6.807142857142857L11.806424963832939,6.807142857142857L12.020710678118654,7.021428571428571L12.449282106690081,7.021428571428571L14.163567820975796,8.735714285714284L14.592139249547223,8.735714285714284L14.806424963832939,8.95L15,8.95L15,9.05L14.76500360759563,9.05L14.550717893309915,8.835714285714285L14.122146464738488,8.835714285714285L12.407860750452773,7.121428571428571L11.979289321881346,7.121428571428571L11.76500360759563,6.907142857142857L10.907860750452773,6.907142857142857L10.693575036167061,6.692857142857142L10.26500360759563,6.692857142857142L10.021428571428569,6.449282106690083L10.021428571428569,5.550717893309916L11.122146464738488,4.45L11.336432179024204,4.45L11.550717893309915,4.235714285714286L13.479289321881346,4.235714285714286L13.693575036167061,4.021428571428571L13.907860750452773,4.021428571428571L14.122146464738488,3.8071428571428574L22.73499639240437,3.8071428571428574L22.978571428571428,4.050717893309916L22.978571428571428,8.163567820975796L22.764285714285716,8.377853535261512L22.764285714285716,9.836432179024204L22.94928210669008,10.021428571428569z" stroke="none"/><path d="M17.95,6.164285714285715L17.95,5.979289321881345L18.62214646473849,5.307142857142857L19.479289321881346,5.307142857142857L19.69357503616706,5.0928571428571425L20.12214646473849,5.0928571428571425L20.336432179024204,4.878571428571429L20.55071789330992,4.878571428571429L20.76500360759563,4.664285714285715L21.19357503616706,4.664285714285715L21.407860750452773,4.45L22.5,4.45L22.5,4.55L21.44928210669008,4.55L21.23499639240437,4.764285714285714L20.80642496383294,4.764285714285714L20.592139249547227,4.978571428571429L20.37785353526151,4.978571428571429L20.163567820975796,5.192857142857142L19.73499639240437,5.192857142857142L19.520710678118654,5.407142857142857L18.663567820975796,5.407142857142857L18.05,6.020710678118655L18.05,6.164285714285715L21.836432179024204,6.164285714285715L22.05071789330992,5.95L22.5,5.95L22.5,6.05L22.092139249547227,6.05L21.87785353526151,6.264285714285714L18.020710678118654,6.264285714285714L17.835714285714285,6.449282106690083L17.835714285714285,6.8778535352615116L17.40714285714286,7.30642496383294L17.40714285714286,7.949282106690083L16.978571428571428,8.377853535261512L16.978571428571428,8.592139249547223L16.53535533905933,9.035355339059327L16.46464466094067,8.964644660940673L16.878571428571426,8.550717893309915L16.878571428571426,8.336432179024204L17.307142857142857,7.907860750452773L17.307142857142857,7.265003607595631L17.735714285714284,6.836432179024202L17.735714285714284,6.407860750452773L17.879289321881345,6.264285714285714L15.663567820975796,6.264285714285714L15.449282106690081,6.478571428571428L11.122146464738488,6.478571428571428L10.693575036167061,6.05L10.5,6.05L10.5,5.95L10.73499639240437,5.95L11.163567820975796,6.378571428571428L15.407860750452773,6.378571428571428L15.622146464738488,6.164285714285715z" stroke="none"/><path d="M13.5,6.05L13.5,5.95L15,5.95L15,6.05z" stroke="none"/><path d="M4.5,4.45L4.5,4.55L3,4.55L3,4.45z" stroke="none"/><path d="M25.55,6L25.45,6L25.45,4.5L25.55,4.5z" stroke="none"/><path d="M7.55,6L7.45,6L7.45,4.5L7.55,4.5z" stroke="none"/><path d="M9.05,9L8.95,9L8.95,7.5L9.05,7.5z" stroke="none"/><path d="M21,7.55L21,7.45L22.5,7.45L22.5,7.55z" stroke="none"/><path d="M25.5,10.55L25.5,10.45L25.73499639240437,10.45L25.94928210669008,10.664285714285715L26.163567820975796,10.664285714285715L26.37785353526151,10.878571428571426L27.407860750452773,10.878571428571426L27.59285714285714,10.693575036167061L27.59285714285714,8.377853535261512L27.164285714285715,7.949282106690083L27.164285714285715,7.734996392404369L26.96464466094067,7.535355339059327L27.03535533905933,7.464644660940673L27.264285714285716,7.69357503616706L27.264285714285716,7.907860750452773L27.692857142857143,8.336432179024204L27.692857142857143,10.73499639240437L27.44928210669008,10.978571428571428L26.336432179024204,10.978571428571428L26.12214646473849,10.764285714285716L25.907860750452773,10.764285714285716L25.69357503616706,10.55z" stroke="none"/><path d="M15,4.45L15,4.55L14.592139249547223,4.55L14.377853535261512,4.764285714285714L14.163567820975796,4.764285714285714L13.73499639240437,5.192857142857142L13.092139249547223,5.192857142857142L12.663567820975796,5.621428571428571L12.449282106690081,5.621428571428571L12.035355339059327,6.035355339059327L11.964644660940673,5.964644660940673L12.407860750452773,5.521428571428571L12.622146464738488,5.521428571428571L13.050717893309915,5.0928571428571425L13.693575036167061,5.0928571428571425L14.122146464738488,4.664285714285715L14.336432179024204,4.664285714285715L14.550717893309915,4.45z" stroke="none"/><path d="M7.55,9L7.45,9L7.45,8.76500360759563L7.664285714285715,8.550717893309915L7.664285714285715,8.336432179024204L7.878571428571428,8.122146464738488L7.878571428571428,7.907860750452773L8.092857142857142,7.69357503616706L8.092857142857142,7.479289321881345L8.550717893309915,7.021428571428571L9.877853535261512,7.021428571428571L10.306424963832939,7.45L10.5,7.45L10.5,7.55L10.26500360759563,7.55L9.836432179024204,7.121428571428571L8.592139249547223,7.121428571428571L8.192857142857143,7.520710678118655L8.192857142857143,7.734996392404369L7.978571428571428,7.949282106690083L7.978571428571428,8.163567820975796L7.764285714285714,8.377853535261512L7.764285714285714,8.592139249547223L7.55,8.806424963832939z" stroke="none"/><path d="M5.95,3L6.05,3L6.05,3.234996392404369L5.835714285714285,3.449282106690083L5.835714285714285,3.877853535261512L5.407142857142857,4.30642496383294L5.407142857142857,4.520710678118655L4.949282106690084,4.978571428571429L4.734996392404369,4.978571428571429L4.520710678118655,5.192857142857142L4.30642496383294,5.192857142857142L4.092139249547226,5.407142857142857L3.877853535261512,5.407142857142857L3.234996392404369,6.05L3,6.05L3,5.95L3.1935750361670596,5.95L3.8364321790242024,5.307142857142857L4.050717893309916,5.307142857142857L4.265003607595631,5.0928571428571425L4.479289321881345,5.0928571428571425L4.69357503616706,4.878571428571429L4.907860750452774,4.878571428571429L5.307142857142857,4.479289321881345L5.307142857142857,4.265003607595631L5.735714285714286,3.8364321790242024L5.735714285714286,3.4078607504527736L5.95,3.1935750361670596z" stroke="none"/><path d="M2.9646446609406727,8.964644660940673L3.0353553390593273,9.035355339059327L2.8357142857142854,9.23499639240437L2.8357142857142854,9.449282106690081L2.407142857142857,9.877853535261512L2.407142857142857,11.122146464738488L3.020710678118655,11.735714285714284L5.592139249547226,11.735714285714284L5.80642496383294,11.95L6,11.95L6,12.05L5.765003607595631,12.05L5.550717893309916,11.835714285714285L2.979289321881345,11.835714285714285L2.3071428571428574,11.163567820975796L2.3071428571428574,9.836432179024204L2.7357142857142858,9.407860750452773L2.7357142857142858,9.193575036167061z" stroke="none"/><path d="M8.964644660940673,5.964644660940673L9.035355339059327,6.035355339059327L8.592139249547223,6.478571428571428L7.949282106690083,6.478571428571428L7.30642496383294,7.121428571428571L7.092139249547226,7.121428571428571L6.478571428571428,7.734996392404369L6.478571428571428,8.163567820975796L6.264285714285714,8.377853535261512L6.264285714285714,8.592139249547223L6.05,8.806424963832939L6.05,9L5.95,9L5.95,8.76500360759563L6.164285714285715,8.550717893309915L6.164285714285715,8.336432179024204L6.378571428571428,8.122146464738488L6.378571428571428,7.69357503616706L7.050717893309916,7.021428571428571L7.265003607595631,7.021428571428571L7.907860750452773,6.378571428571428L8.550717893309915,6.378571428571428z" stroke="none"/><path d="M24,10.55L24,10.45L24.663567820975796,10.45L25.092139249547223,10.878571428571426L25.30642496383294,10.878571428571426L25.978571428571428,11.550717893309915L25.978571428571428,12.449282106690081L25.73499639240437,12.692857142857143L25.479289321881346,12.692857142857143L25.26500360759563,12.478571428571428L25.050717893309915,12.478571428571428L24.62214646473849,12.05L23.76500360759563,12.05L23.550717893309915,11.835714285714285L23.12214646473849,11.835714285714285L22.26500360759563,10.978571428571428L21.19357503616706,10.978571428571428L20.979289321881346,10.764285714285716L19.69357503616706,10.764285714285716L19.46464466094067,10.535355339059327L19.53535533905933,10.464644660940673L19.73499639240437,10.664285714285715L21.020710678118654,10.664285714285715L21.23499639240437,10.878571428571426L22.30642496383294,10.878571428571426L23.163567820975796,11.735714285714284L23.592139249547223,11.735714285714284L23.80642496383294,11.95L24.663567820975796,11.95L25.092139249547223,12.378571428571426L25.30642496383294,12.378571428571426L25.520710678118654,12.592857142857142L25.69357503616706,12.592857142857142L25.878571428571426,12.407860750452773L25.878571428571426,11.592139249547223L25.26500360759563,10.978571428571428L25.050717893309915,10.978571428571428L24.62214646473849,10.55z" stroke="none"/><path d="M2.9646446609406727,7.535355339059327L3.0353553390593273,7.464644660940673L4.30642496383294,8.735714285714284L4.520710678118655,8.735714285714284L5.163567820975797,9.378571428571426L6.407860750452773,9.378571428571426L6.5928571428571425,9.193575036167061L6.5928571428571425,8.76500360759563L7.021428571428571,8.336432179024204L7.021428571428571,8.122146464738488L7.45,7.69357503616706L7.45,7.5L7.55,7.5L7.55,7.734996392404369L7.121428571428571,8.163567820975796L7.121428571428571,8.377853535261512L6.692857142857142,8.806424963832939L6.692857142857142,9.23499639240437L6.449282106690083,9.478571428571428L5.122146464738488,9.478571428571428L4.479289321881345,8.835714285714285L4.265003607595631,8.835714285714285z" stroke="none"/><path d="M9,3.05L9,2.95L13.5,2.95L13.5,3.05z" stroke="none"/><path d="M9.035355339059327,4.464644660940673L8.964644660940673,4.535355339059327L7.907860750452773,3.478571428571428L7.69357503616706,3.478571428571428L7.479289321881345,3.2642857142857142L7.050717893309916,3.2642857142857142L6.407860750452773,2.6214285714285714L5.592139249547226,2.6214285714285714L5.3778535352615116,2.8357142857142854L4.949282106690084,2.8357142857142854L4.734996392404369,3.05L4.5,3.05L4.5,2.95L4.69357503616706,2.95L4.907860750452774,2.7357142857142858L5.336432179024202,2.7357142857142858L5.550717893309916,2.521428571428572L6.449282106690083,2.521428571428572L7.092139249547226,3.1642857142857146L7.520710678118655,3.1642857142857146L7.734996392404369,3.3785714285714286L7.949282106690083,3.3785714285714286z" stroke="none"/><path d="M22.5,11.95L22.5,12.05L22.26500360759563,12.05L22.05071789330992,11.835714285714285L21.62214646473849,11.835714285714285L21.407860750452773,11.62142857142857L19.69357503616706,11.62142857142857L19.021428571428572,10.949282106690081L19.021428571428572,10.73499639240437L18.807142857142857,10.520710678118654L18.807142857142857,10.306424963832939L18.164285714285715,9.663567820975796L18.164285714285715,9.449282106690081L17.95,9.23499639240437L17.95,9L18.05,9L18.05,9.193575036167061L18.264285714285716,9.407860750452773L18.264285714285716,9.622146464738488L18.90714285714286,10.26500360759563L18.90714285714286,10.479289321881346L19.121428571428574,10.693575036167061L19.121428571428574,10.907860750452773L19.73499639240437,11.521428571428569L21.44928210669008,11.521428571428569L21.663567820975796,11.735714285714284L22.092139249547227,11.735714285714284L22.30642496383294,11.95z" stroke="none"/><path d="M4.5,7.45L4.5,7.55L4.050717893309916,7.55L3.8364321790242024,7.335714285714285L3.622146464738488,7.335714285714285L3.4078607504527736,7.121428571428571L2.5921392495472264,7.121428571428571L2.407142857142857,7.30642496383294L2.407142857142857,9.020710678118654L2.1928571428571426,9.23499639240437L2.1928571428571426,11.336432179024204L2.8064249638329404,11.95L4.092139249547226,11.95L4.520710678118655,12.378571428571426L6.622146464738488,12.378571428571426L6.836432179024202,12.164285714285715L7.265003607595631,12.164285714285715L7.464644660940673,11.964644660940673L7.535355339059327,12.035355339059327L7.30642496383294,12.264285714285716L6.8778535352615116,12.264285714285716L6.663567820975797,12.478571428571428L4.479289321881345,12.478571428571428L4.050717893309916,12.05L2.765003607595631,12.05L2.092857142857143,11.377853535261512L2.092857142857143,9.193575036167061L2.3071428571428574,8.979289321881346L2.3071428571428574,7.265003607595631L2.550717893309917,7.021428571428571L3.449282106690083,7.021428571428571L3.6635678209757976,7.235714285714286L3.877853535261512,7.235714285714286L4.092139249547226,7.45z" stroke="none"/><path d="M21,12.05L21,11.95L21.23499639240437,11.95L21.44928210669008,12.164285714285715L21.87785353526151,12.164285714285715L22.092139249547227,12.378571428571426L24.44928210669008,12.378571428571426L24.663567820975796,12.592857142857142L24.87785353526151,12.592857142857142L25.092139249547223,12.807142857142857L25.907860750452773,12.807142857142857L27.807142857142857,10.907860750452773L27.807142857142857,7.520710678118655L27.407860750452773,7.121428571428571L25.092139249547223,7.121428571428571L24.87785353526151,7.335714285714285L24.23499639240437,7.335714285714285L24.03535533905933,7.535355339059327L23.96464466094067,7.464644660940673L24.19357503616706,7.235714285714286L24.836432179024204,7.235714285714286L25.050717893309915,7.021428571428571L27.44928210669008,7.021428571428571L27.90714285714286,7.479289321881345L27.90714285714286,10.949282106690081L25.94928210669008,12.907142857142858L25.050717893309915,12.907142857142858L24.836432179024204,12.692857142857143L24.62214646473849,12.692857142857143L24.407860750452773,12.478571428571428L22.05071789330992,12.478571428571428L21.836432179024204,12.264285714285716L21.407860750452773,12.264285714285716L21.19357503616706,12.05z" stroke="none"/><path d="M20.96464466094067,3.0353553390593273L21.03535533905933,2.9646446609406727L21.44928210669008,3.3785714285714286L21.87785353526151,3.3785714285714286L22.092139249547227,3.592857142857143L22.94928210669008,3.592857142857143L23.192857142857143,3.8364321790242024L23.192857142857143,6.622146464738488L23.40714285714286,6.836432179024202L23.40714285714286,7.69357503616706L23.592139249547223,7.878571428571428L24.836432179024204,7.878571428571428L25.26500360759563,7.45L25.5,7.45L25.5,7.55L25.30642496383294,7.55L24.87785353526151,7.978571428571428L23.550717893309915,7.978571428571428L23.307142857142857,7.734996392404369L23.307142857142857,6.8778535352615116L23.09285714285714,6.663567820975797L23.09285714285714,3.877853535261512L22.907860750452773,3.6928571428571426L22.05071789330992,3.6928571428571426L21.836432179024204,3.478571428571428L21.407860750452773,3.478571428571428z" stroke="none"/><path d="M16.53535533905933,3.0353553390593273L16.46464466094067,2.9646446609406727L16.69357503616706,2.7357142857142858L17.12214646473849,2.7357142857142858L17.336432179024204,2.521428571428572L23.163567820975796,2.521428571428572L23.37785353526151,2.7357142857142858L24.23499639240437,2.7357142857142858L24.44928210669008,2.95L25.5,2.95L25.5,3.05L24.407860750452773,3.05L24.19357503616706,2.8357142857142854L23.336432179024204,2.8357142857142854L23.12214646473849,2.6214285714285714L17.37785353526151,2.6214285714285714L17.163567820975796,2.8357142857142854L16.73499639240437,2.8357142857142854z" stroke="none"/><path d="M27.03535533905933,2.9646446609406727L26.96464466094067,3.0353553390593273L26.76500360759563,2.8357142857142854L26.550717893309915,2.8357142857142854L26.336432179024204,2.6214285714285714L24.836432179024204,2.6214285714285714L24.62214646473849,2.407142857142857L16.30642496383294,2.407142857142857L16.12142857142857,2.5921392495472264L16.12142857142857,3.4078607504527736L16.30642496383294,3.592857142857143L17.12214646473849,3.592857142857143L17.336432179024204,3.3785714285714286L17.55071789330992,3.3785714285714286L17.96464466094067,2.9646446609406727L18.03535533905933,3.0353553390593273L17.592139249547227,3.478571428571428L17.37785353526151,3.478571428571428L17.163567820975796,3.6928571428571426L16.26500360759563,3.6928571428571426L16.02142857142857,3.449282106690083L16.02142857142857,2.550717893309917L16.26500360759563,2.3071428571428574L24.663567820975796,2.3071428571428574L24.87785353526151,2.521428571428572L26.37785353526151,2.521428571428572L26.592139249547223,2.7357142857142858L26.80642496383294,2.7357142857142858z" stroke="none"/><path d="M24.03535533905933,6.035355339059327L23.96464466094067,5.964644660940673L24.807142857142857,5.122146464738488L24.807142857142857,4.265003607595631L25.050717893309915,4.021428571428571L26.12214646473849,4.021428571428571L26.550717893309915,3.592857142857143L27.19357503616706,3.592857142857143L27.378571428571426,3.4078607504527736L27.378571428571426,2.5921392495472264L27.19357503616706,2.407142857142857L25.050717893309915,2.407142857142857L24.836432179024204,2.1928571428571426L16.092139249547223,2.1928571428571426L15.449282106690081,2.8357142857142854L15.23499639240437,2.8357142857142854L15.035355339059327,3.0353553390593273L14.964644660940673,2.9646446609406727L15.193575036167061,2.7357142857142858L15.407860750452773,2.7357142857142858L16.050717893309915,2.092857142857143L24.87785353526151,2.092857142857143L25.092139249547223,2.3071428571428574L27.23499639240437,2.3071428571428574L27.478571428571428,2.550717893309917L27.478571428571428,3.449282106690083L27.23499639240437,3.6928571428571426L26.592139249547223,3.6928571428571426L26.163567820975796,4.121428571428571L25.092139249547223,4.121428571428571L24.90714285714286,4.30642496383294L24.90714285714286,5.163567820975797z" stroke="none"/><path d="M6.035355339059327,7.464644660940673L5.964644660940673,7.535355339059327L5.765003607595631,7.335714285714285L5.122146464738488,7.335714285714285L4.907860750452774,7.121428571428571L3.8364321790242024,7.121428571428571L3.622146464738488,6.907142857142857L2.377853535261512,6.907142857142857L2.1928571428571426,7.092139249547226L2.1928571428571426,8.377853535261512L1.9785714285714286,8.592139249547223L1.9785714285714286,11.550717893309915L2.5921392495472264,12.164285714285715L3.449282106690083,12.164285714285715L3.6635678209757976,12.378571428571426L3.877853535261512,12.378571428571426L4.092139249547226,12.592857142857142L15.622146464738488,12.592857142857142L16.26500360759563,11.95L16.5,11.95L16.5,12.05L16.30642496383294,12.05L15.663567820975796,12.692857142857143L4.050717893309916,12.692857142857143L3.8364321790242024,12.478571428571428L3.622146464738488,12.478571428571428L3.4078607504527736,12.264285714285716L2.550717893309917,12.264285714285716L1.8785714285714286,11.592139249547223L1.8785714285714286,8.550717893309915L2.092857142857143,8.336432179024204L2.092857142857143,7.050717893309916L2.3364321790242024,6.807142857142857L3.6635678209757976,6.807142857142857L3.877853535261512,7.021428571428571L4.949282106690084,7.021428571428571L5.163567820975797,7.235714285714286L5.80642496383294,7.235714285714286z" stroke="none"/></svg>