<svg version="1.1" width="30" height="15" xmlns="http://www.w3.org/2000/svg"><path d="M24.857142857142858,9.786432179024203L25.02142857142857,9.622146464738488L25.02142857142857,9.407860750452773L25.46464466094067,8.964644660940673L25.53535533905933,9.035355339059327L25.12142857142857,9.449282106690081L25.12142857142857,9.663567820975796L24.90714285714286,9.877853535261512L24.90714285714286,10.050717893309915L25.12142857142857,10.26500360759563L25.12142857142857,10.479289321881346L25.335714285714285,10.693575036167061L25.335714285714285,10.907860750452773L25.55,11.122146464738488L25.55,12L25.45,12L25.45,11.163567820975796L25.235714285714284,10.949282106690081L25.235714285714284,10.73499639240437L25.02142857142857,10.520710678118654L25.02142857142857,10.306424963832939L24.807142857142857,10.092139249547223L24.807142857142857,9.877853535261512L23.96464466094067,9.035355339059327L24.03535533905933,8.964644660940673z" stroke="none"/><path d="M7.479289321881345,4.878571428571429L7.69357503616706,4.664285714285715L8.122146464738488,4.664285714285715L8.336432179024204,4.45L9,4.45L9,4.55L8.377853535261512,4.55L8.163567820975796,4.764285714285714L7.734996392404369,4.764285714285714L7.520710678118655,4.978571428571429L6.692857142857142,4.978571428571429L6.692857142857142,5.336432179024202L6.907142857142857,5.550717893309916L6.907142857142857,6.19357503616706L7.121428571428571,6.407860750452773L7.121428571428571,6.622146464738488L7.335714285714285,6.836432179024202L7.335714285714285,7.265003607595631L7.535355339059327,7.464644660940673L7.464644660940673,7.535355339059327L7.235714285714286,7.30642496383294L7.235714285714286,6.8778535352615116L7.021428571428571,6.663567820975797L7.021428571428571,6.449282106690083L6.807142857142857,6.234996392404369L6.807142857142857,5.592139249547226L6.5928571428571425,5.3778535352615116L6.5928571428571425,4.978571428571429L5.550717893309916,4.978571428571429L5.307142857142857,4.734996392404369L5.307142857142857,4.520710678118655L4.907860750452774,4.121428571428571L4.69357503616706,4.121428571428571L4.479289321881345,3.907142857142857L4.265003607595631,3.907142857142857L3.622146464738488,3.2642857142857142L3.1935750361670596,3.2642857142857142L2.9646446609406727,3.0353553390593273L3.0353553390593273,2.9646446609406727L3.234996392404369,3.1642857142857146L3.6635678209757976,3.1642857142857146L4.30642496383294,3.8071428571428574L4.520710678118655,3.8071428571428574L4.734996392404369,4.021428571428571L4.949282106690084,4.021428571428571L5.407142857142857,4.479289321881345L5.407142857142857,4.69357503616706L5.592139249547226,4.878571428571429z" stroke="none"/><path d="M20.12214646473849,5.307142857142857L20.55071789330992,4.878571428571429L21.62214646473849,4.878571428571429L22.05071789330992,4.45L22.5,4.45L22.5,4.55L22.092139249547227,4.55L21.663567820975796,4.978571428571429L20.592139249547227,4.978571428571429L20.163567820975796,5.407142857142857L18.977853535261513,5.407142857142857L21.03535533905933,7.464644660940673L20.96464466094067,7.535355339059327L18.836432179024204,5.407142857142857L14.550717893309915,5.407142857142857L14.122146464738488,4.978571428571429L13.907860750452773,4.978571428571429L13.464644660940673,4.535355339059327L13.535355339059327,4.464644660940673L13.949282106690081,4.878571428571429L14.163567820975796,4.878571428571429L14.592139249547223,5.307142857142857z" stroke="none"/><path d="M9.164285714285715,5.521428571428571L9.164285714285715,5.336432179024202L9.407860750452773,5.0928571428571425L10.479289321881346,5.0928571428571425L10.693575036167061,4.878571428571429L10.907860750452773,4.878571428571429L12.193575036167061,3.592857142857143L12.407860750452773,3.592857142857143L12.622146464738488,3.3785714285714286L13.479289321881346,3.3785714285714286L13.693575036167061,3.1642857142857146L13.907860750452773,3.1642857142857146L14.122146464738488,2.95L15,2.95L15,3.05L14.163567820975796,3.05L13.949282106690081,3.2642857142857142L13.73499639240437,3.2642857142857142L13.520710678118654,3.478571428571428L12.663567820975796,3.478571428571428L12.449282106690081,3.6928571428571426L12.23499639240437,3.6928571428571426L10.949282106690081,4.978571428571429L10.73499639240437,4.978571428571429L10.520710678118654,5.192857142857142L9.449282106690081,5.192857142857142L9.264285714285716,5.3778535352615116L9.264285714285716,5.521428571428571L9.877853535261512,5.521428571428571L10.092139249547223,5.735714285714286L10.306424963832939,5.735714285714286L10.535355339059327,5.964644660940673L10.464644660940673,6.035355339059327L10.26500360759563,5.835714285714285L10.050717893309915,5.835714285714285L9.836432179024204,5.621428571428571L9.264285714285716,5.621428571428571L9.264285714285716,5.80642496383294L8.62142857142857,6.449282106690083L8.62142857142857,7.092139249547226L8.192857142857143,7.520710678118655L8.192857142857143,7.734996392404369L7.949282106690083,7.978571428571428L5.122146464738488,7.978571428571428L4.907860750452774,7.764285714285714L4.69357503616706,7.764285714285714L4.464644660940673,7.535355339059327L4.535355339059327,7.464644660940673L4.734996392404369,7.664285714285715L4.949282106690084,7.664285714285715L5.163567820975797,7.878571428571428L7.907860750452773,7.878571428571428L8.092857142857142,7.69357503616706L8.092857142857142,7.479289321881345L8.521428571428569,7.050717893309916L8.521428571428569,6.407860750452773L9.164285714285715,5.765003607595631L9.164285714285715,5.621428571428571L8.163567820975796,5.621428571428571L7.949282106690083,5.835714285714285L7.734996392404369,5.835714285714285L7.535355339059327,6.035355339059327L7.464644660940673,5.964644660940673L7.69357503616706,5.735714285714286L7.907860750452773,5.735714285714286L8.122146464738488,5.521428571428571z" stroke="none"/><path d="M19.021428571428572,10.379289321881345L19.021428571428572,10.092139249547223L18.836432179024204,9.907142857142858L13.050717893309915,9.907142857142858L12.193575036167061,9.05L12,9.05L12,8.95L12.23499639240437,8.95L13.092139249547223,9.807142857142857L18.87785353526151,9.807142857142857L19.121428571428574,10.050717893309915L19.121428571428574,10.45L19.69357503616706,10.45L19.907860750452773,10.235714285714284L20.336432179024204,10.235714285714284L20.55071789330992,10.021428571428569L23.592139249547223,10.021428571428569L24.03535533905933,10.464644660940673L23.96464466094067,10.535355339059327L23.550717893309915,10.12142857142857L20.592139249547227,10.12142857142857L20.37785353526151,10.335714285714285L19.94928210669008,10.335714285714285L19.73499639240437,10.55L19.121428571428574,10.55L19.121428571428574,10.693575036167061L19.30642496383294,10.878571428571426L20.163567820975796,10.878571428571426L20.37785353526151,11.092857142857142L21.663567820975796,11.092857142857142L21.87785353526151,11.307142857142857L22.73499639240437,11.307142857142857L23.37785353526151,11.95L24,11.95L24,12.05L23.336432179024204,12.05L22.69357503616706,11.407142857142858L21.836432179024204,11.407142857142858L21.62214646473849,11.192857142857143L20.336432179024204,11.192857142857143L20.12214646473849,10.978571428571428L19.26500360759563,10.978571428571428L19.021428571428572,10.73499639240437L19.021428571428572,10.520710678118654L18.62214646473849,10.12142857142857L17.37785353526151,10.12142857142857L16.94928210669008,10.55L16.5,10.55L16.5,10.45L16.907860750452773,10.45L17.336432179024204,10.021428571428569L18.663567820975796,10.021428571428569z" stroke="none"/><path d="M17.521428571428572,6.5928571428571425L17.521428571428572,6.449282106690083L17.336432179024204,6.264285714285714L14.979289321881346,6.264285714285714L13.907860750452773,5.192857142857142L13.26500360759563,5.192857142857142L13.021428571428569,4.949282106690084L13.021428571428569,4.050717893309916L13.26500360759563,3.8071428571428574L14.979289321881346,3.8071428571428574L15.378571428571426,3.4078607504527736L15.378571428571426,2.5921392495472264L15.193575036167061,2.407142857142857L14.592139249547223,2.407142857142857L14.377853535261512,2.6214285714285714L13.73499639240437,2.6214285714285714L13.520710678118654,2.8357142857142854L13.306424963832939,2.8357142857142854L12.877853535261512,3.2642857142857142L12.449282106690081,3.2642857142857142L12.23499639240437,3.478571428571428L12.020710678118654,3.478571428571428L11.377853535261512,4.121428571428571L11.163567820975796,4.121428571428571L10.73499639240437,4.55L10.5,4.55L10.5,4.45L10.693575036167061,4.45L11.122146464738488,4.021428571428571L11.336432179024204,4.021428571428571L11.979289321881346,3.3785714285714286L12.193575036167061,3.3785714285714286L12.407860750452773,3.1642857142857146L12.836432179024204,3.1642857142857146L13.26500360759563,2.7357142857142858L13.479289321881346,2.7357142857142858L13.693575036167061,2.521428571428572L14.336432179024204,2.521428571428572L14.550717893309915,2.3071428571428574L15.23499639240437,2.3071428571428574L15.478571428571428,2.550717893309917L15.478571428571428,3.449282106690083L15.020710678118654,3.907142857142857L13.306424963832939,3.907142857142857L13.12142857142857,4.092139249547226L13.12142857142857,4.907860750452774L13.306424963832939,5.0928571428571425L13.949282106690081,5.0928571428571425L15.020710678118654,6.164285714285715L17.37785353526151,6.164285714285715L17.621428571428574,6.407860750452773L17.621428571428574,6.5928571428571425L17.80642496383294,6.5928571428571425L18.44928210669008,7.235714285714286L18.663567820975796,7.235714285714286L19.092139249547227,7.664285714285715L19.30642496383294,7.664285714285715L19.520710678118654,7.878571428571428L21.407860750452773,7.878571428571428L22.878571428571426,6.407860750452773L22.878571428571426,4.092139249547226L22.69357503616706,3.907142857142857L22.520710678118654,3.907142857142857L22.30642496383294,4.121428571428571L22.092139249547227,4.121428571428571L21.87785353526151,4.335714285714285L21.23499639240437,4.335714285714285L21.03535533905933,4.535355339059327L20.96464466094067,4.464644660940673L21.19357503616706,4.235714285714286L21.836432179024204,4.235714285714286L22.05071789330992,4.021428571428571L22.26500360759563,4.021428571428571L22.479289321881346,3.8071428571428574L22.73499639240437,3.8071428571428574L22.978571428571428,4.050717893309916L22.978571428571428,6.449282106690083L21.44928210669008,7.978571428571428L19.479289321881346,7.978571428571428L19.26500360759563,7.764285714285714L19.05071789330992,7.764285714285714L18.62214646473849,7.335714285714285L18.407860750452773,7.335714285714285L17.76500360759563,6.692857142857142L17.621428571428574,6.692857142857142L17.621428571428574,7.30642496383294L16.764285714285716,8.163567820975796L16.764285714285716,8.377853535261512L16.55,8.592139249547223L16.55,9L16.45,9L16.45,8.550717893309915L16.664285714285715,8.336432179024204L16.664285714285715,8.122146464738488L17.521428571428572,7.265003607595631L17.521428571428572,6.692857142857142L17.37785353526151,6.692857142857142L16.55,7.520710678118655L16.55,7.949282106690083L16.335714285714285,8.163567820975796L16.335714285714285,9.193575036167061L16.520710678118654,9.378571428571426L21.19357503616706,9.378571428571426L21.407860750452773,9.164285714285715L22.26500360759563,9.164285714285715L22.46464466094067,8.964644660940673L22.53535533905933,9.035355339059327L22.30642496383294,9.264285714285716L21.44928210669008,9.264285714285716L21.23499639240437,9.478571428571428L16.479289321881346,9.478571428571428L16.235714285714284,9.23499639240437L16.235714285714284,8.122146464738488L16.45,7.907860750452773L16.45,7.479289321881345L17.336432179024204,6.5928571428571425z" stroke="none"/><path d="M4.45,4.5L4.55,4.5L4.55,6L4.45,6z" stroke="none"/><path d="M7.5,3.05L7.5,2.95L9,2.95L9,3.05z" stroke="none"/><path d="M21,10.55L21,10.45L22.5,10.45L22.5,10.55z" stroke="none"/><path d="M21,6.05L21,5.95L22.5,5.95L22.5,6.05z" stroke="none"/><path d="M17.95,10.5L18.05,10.5L18.05,12L17.95,12z" stroke="none"/><path d="M6,10.55L6,10.45L7.5,10.45L7.5,10.55z" stroke="none"/><path d="M25.53535533905933,7.464644660940673L25.46464466094067,7.535355339059327L25.235714285714284,7.30642496383294L25.235714285714284,6.8778535352615116L25.02142857142857,6.663567820975797L25.02142857142857,6.449282106690083L24.59285714285714,6.020710678118655L24.59285714285714,5.80642496383294L23.95,5.163567820975797L23.95,4.5L24.05,4.5L24.05,5.122146464738488L24.692857142857143,5.765003607595631L24.692857142857143,5.979289321881345L25.12142857142857,6.407860750452773L25.12142857142857,6.622146464738488L25.335714285714285,6.836432179024202L25.335714285714285,7.265003607595631z" stroke="none"/><path d="M5.964644660940673,8.964644660940673L6.035355339059327,9.035355339059327L5.835714285714285,9.23499639240437L5.835714285714285,9.663567820975796L5.407142857142857,10.092139249547223L5.407142857142857,10.306424963832939L4.978571428571429,10.73499639240437L4.978571428571429,11.163567820975796L4.764285714285714,11.377853535261512L4.764285714285714,11.806424963832939L4.535355339059327,12.035355339059327L4.464644660940673,11.964644660940673L4.664285714285715,11.76500360759563L4.664285714285715,11.336432179024204L4.878571428571429,11.122146464738488L4.878571428571429,10.693575036167061L5.307142857142857,10.26500360759563L5.307142857142857,10.050717893309915L5.735714285714286,9.622146464738488L5.735714285714286,9.193575036167061z" stroke="none"/><path d="M15,4.55L15,4.45L17.12214646473849,4.45L17.55071789330992,4.021428571428571L21.62214646473849,4.021428571428571L22.05071789330992,3.592857142857143L22.94928210669008,3.592857142857143L23.192857142857143,3.8364321790242024L23.192857142857143,8.377853535261512L22.978571428571428,8.592139249547223L22.978571428571428,9.449282106690081L22.73499639240437,9.692857142857143L15.193575036167061,9.692857142857143L14.979289321881346,9.478571428571428L14.550717893309915,9.478571428571428L12.836432179024204,7.764285714285714L12.193575036167061,7.764285714285714L11.964644660940673,7.535355339059327L12.035355339059327,7.464644660940673L12.23499639240437,7.664285714285715L12.877853535261512,7.664285714285715L14.592139249547223,9.378571428571426L15.020710678118654,9.378571428571426L15.23499639240437,9.592857142857142L22.69357503616706,9.592857142857142L22.878571428571426,9.407860750452773L22.878571428571426,8.550717893309915L23.09285714285714,8.336432179024204L23.09285714285714,3.877853535261512L22.907860750452773,3.6928571428571426L22.092139249547227,3.6928571428571426L21.663567820975796,4.121428571428571L17.592139249547227,4.121428571428571L17.163567820975796,4.55z" stroke="none"/><path d="M27.03535533905933,8.964644660940673L26.96464466094067,9.035355339059327L25.907860750452773,7.978571428571428L25.050717893309915,7.978571428571428L24.807142857142857,7.734996392404369L24.807142857142857,7.520710678118655L24.59285714285714,7.30642496383294L24.59285714285714,7.092139249547226L24.164285714285715,6.663567820975797L24.164285714285715,6.449282106690083L23.95,6.234996392404369L23.95,6L24.05,6L24.05,6.19357503616706L24.264285714285716,6.407860750452773L24.264285714285716,6.622146464738488L24.692857142857143,7.050717893309916L24.692857142857143,7.265003607595631L24.90714285714286,7.479289321881345L24.90714285714286,7.69357503616706L25.092139249547223,7.878571428571428L25.94928210669008,7.878571428571428z" stroke="none"/><path d="M27.05,10.5L26.95,10.5L26.95,10.26500360759563L27.378571428571426,9.836432179024204L27.378571428571426,6.663567820975797L27.164285714285715,6.449282106690083L27.164285714285715,6.234996392404369L26.96464466094067,6.035355339059327L27.03535533905933,5.964644660940673L27.264285714285716,6.19357503616706L27.264285714285716,6.407860750452773L27.478571428571428,6.622146464738488L27.478571428571428,9.877853535261512L27.05,10.306424963832939z" stroke="none"/><path d="M23.96464466094067,2.9646446609406727L24.03535533905933,3.0353553390593273L23.835714285714285,3.234996392404369L23.835714285714285,3.877853535261512L23.62142857142857,4.092139249547226L23.62142857142857,6.622146464738488L23.835714285714285,6.836432179024202L23.835714285714285,7.265003607595631L24.03535533905933,7.464644660940673L23.96464466094067,7.535355339059327L23.735714285714284,7.30642496383294L23.735714285714284,6.8778535352615116L23.52142857142857,6.663567820975797L23.52142857142857,4.050717893309916L23.735714285714284,3.8364321790242024L23.735714285714284,3.1935750361670596z" stroke="none"/><path d="M6.035355339059327,3.0353553390593273L5.964644660940673,2.9646446609406727L6.19357503616706,2.7357142857142858L6.622146464738488,2.7357142857142858L6.836432179024202,2.521428571428572L9.877853535261512,2.521428571428572L10.306424963832939,2.95L10.5,2.95L10.5,3.05L10.26500360759563,3.05L9.836432179024204,2.6214285714285714L6.8778535352615116,2.6214285714285714L6.663567820975797,2.8357142857142854L6.234996392404369,2.8357142857142854z" stroke="none"/><path d="M27.05,7.5L26.95,7.5L26.95,6.8778535352615116L26.52142857142857,6.449282106690083L26.52142857142857,5.550717893309916L26.76500360759563,5.307142857142857L27.23499639240437,5.307142857142857L27.478571428571428,5.550717893309916L27.478571428571428,6.19357503616706L27.692857142857143,6.407860750452773L27.692857142857143,11.163567820975796L27.264285714285716,11.592139249547223L27.264285714285716,11.806424963832939L27.03535533905933,12.035355339059327L26.96464466094067,11.964644660940673L27.164285714285715,11.76500360759563L27.164285714285715,11.550717893309915L27.59285714285714,11.122146464738488L27.59285714285714,6.449282106690083L27.378571428571426,6.234996392404369L27.378571428571426,5.592139249547226L27.19357503616706,5.407142857142857L26.80642496383294,5.407142857142857L26.62142857142857,5.592139249547226L26.62142857142857,6.407860750452773L27.05,6.836432179024202z" stroke="none"/><path d="M15,7.45L15,7.55L13.907860750452773,7.55L13.479289321881346,7.121428571428571L12.407860750452773,7.121428571428571L12.193575036167061,6.907142857142857L11.806424963832939,6.907142857142857L11.62142857142857,7.092139249547226L11.62142857142857,9.407860750452773L12.020710678118654,9.807142857142857L12.23499639240437,9.807142857142857L13.335714285714285,10.907860750452773L13.335714285714285,11.76500360759563L13.535355339059327,11.964644660940673L13.464644660940673,12.035355339059327L13.235714285714284,11.806424963832939L13.235714285714284,10.949282106690081L12.193575036167061,9.907142857142858L11.979289321881346,9.907142857142858L11.521428571428569,9.449282106690081L11.521428571428569,7.050717893309916L11.76500360759563,6.807142857142857L12.23499639240437,6.807142857142857L12.449282106690081,7.021428571428571L13.520710678118654,7.021428571428571L13.949282106690081,7.45z" stroke="none"/><path d="M13.464644660940673,5.964644660940673L13.535355339059327,6.035355339059327L13.306424963832939,6.264285714285714L12.23499639240437,6.264285714285714L11.806424963832939,6.692857142857142L11.592139249547223,6.692857142857142L11.407142857142858,6.8778535352615116L11.407142857142858,9.622146464738488L12.05,10.26500360759563L12.05,10.5L11.95,10.5L11.95,10.306424963832939L11.307142857142857,9.663567820975796L11.307142857142857,6.836432179024202L11.550717893309915,6.5928571428571425L11.76500360759563,6.5928571428571425L12.193575036167061,6.164285714285715L13.26500360759563,6.164285714285715z" stroke="none"/><path d="M6.035355339059327,4.464644660940673L5.964644660940673,4.535355339059327L4.907860750452774,3.478571428571428L4.479289321881345,3.478571428571428L3.8364321790242024,2.8357142857142854L3.622146464738488,2.8357142857142854L3.4078607504527736,2.6214285714285714L2.5921392495472264,2.6214285714285714L2.407142857142857,2.8064249638329404L2.407142857142857,5.336432179024202L3.2642857142857142,6.19357503616706L3.2642857142857142,6.407860750452773L3.478571428571428,6.622146464738488L3.478571428571428,7.050717893309916L3.907142857142857,7.479289321881345L3.907142857142857,7.69357503616706L4.092139249547226,7.878571428571428L4.30642496383294,7.878571428571428L4.520710678118655,8.092857142857142L8.979289321881346,8.092857142857142L9.407860750452773,7.664285714285715L10.050717893309915,7.664285714285715L10.26500360759563,7.45L10.5,7.45L10.5,7.55L10.306424963832939,7.55L10.092139249547223,7.764285714285714L9.449282106690081,7.764285714285714L9.020710678118654,8.192857142857143L4.479289321881345,8.192857142857143L4.265003607595631,7.978571428571428L4.050717893309916,7.978571428571428L3.8071428571428574,7.734996392404369L3.8071428571428574,7.520710678118655L3.3785714285714286,7.092139249547226L3.3785714285714286,6.663567820975797L3.1642857142857146,6.449282106690083L3.1642857142857146,6.234996392404369L2.3071428571428574,5.3778535352615116L2.3071428571428574,2.765003607595631L2.550717893309917,2.521428571428572L3.449282106690083,2.521428571428572L3.6635678209757976,2.7357142857142858L3.877853535261512,2.7357142857142858L4.520710678118655,3.3785714285714286L4.949282106690084,3.3785714285714286z" stroke="none"/><path d="M3.0353553390593273,10.535355339059327L2.9646446609406727,10.464644660940673L3.8364321790242024,9.592857142857142L4.69357503616706,9.592857142857142L4.878571428571429,9.407860750452773L4.878571428571429,9.193575036167061L5.550717893309916,8.521428571428569L6.449282106690083,8.521428571428569L7.734996392404369,9.807142857142857L7.949282106690083,9.807142857142857L8.163567820975796,10.021428571428569L8.377853535261512,10.021428571428569L8.592139249547223,10.235714285714284L8.806424963832939,10.235714285714284L9.035355339059327,10.464644660940673L8.964644660940673,10.535355339059327L8.76500360759563,10.335714285714285L8.550717893309915,10.335714285714285L8.336432179024204,10.12142857142857L8.122146464738488,10.12142857142857L7.907860750452773,9.907142857142858L7.69357503616706,9.907142857142858L6.407860750452773,8.62142857142857L5.592139249547226,8.62142857142857L4.978571428571429,9.23499639240437L4.978571428571429,9.449282106690081L4.734996392404369,9.692857142857143L3.877853535261512,9.692857142857143z" stroke="none"/><path d="M27.03535533905933,4.464644660940673L26.96464466094067,4.535355339059327L26.550717893309915,4.121428571428571L26.12214646473849,4.121428571428571L25.907860750452773,3.907142857142857L25.69357503616706,3.907142857142857L25.479289321881346,3.6928571428571426L25.26500360759563,3.6928571428571426L24.59285714285714,3.020710678118655L24.59285714285714,2.8064249638329404L24.407860750452773,2.6214285714285714L19.092139249547227,2.6214285714285714L18.87785353526151,2.8357142857142854L18.020710678118654,2.8357142857142854L17.37785353526151,3.478571428571428L16.092139249547223,3.478571428571428L15.663567820975796,3.907142857142857L15.449282106690081,3.907142857142857L15.23499639240437,4.121428571428571L14.592139249547223,4.121428571428571L14.407142857142858,4.30642496383294L14.407142857142858,4.69357503616706L14.592139249547223,4.878571428571429L17.336432179024204,4.878571428571429L17.76500360759563,4.45L18,4.45L18,4.55L17.80642496383294,4.55L17.37785353526151,4.978571428571429L14.550717893309915,4.978571428571429L14.307142857142857,4.734996392404369L14.307142857142857,4.265003607595631L14.550717893309915,4.021428571428571L15.193575036167061,4.021428571428571L15.407860750452773,3.8071428571428574L15.622146464738488,3.8071428571428574L16.050717893309915,3.3785714285714286L17.336432179024204,3.3785714285714286L17.979289321881346,2.7357142857142858L18.836432179024204,2.7357142857142858L19.05071789330992,2.521428571428572L24.44928210669008,2.521428571428572L24.692857142857143,2.765003607595631L24.692857142857143,2.979289321881345L25.30642496383294,3.592857142857143L25.520710678118654,3.592857142857143L25.73499639240437,3.8071428571428574L25.94928210669008,3.8071428571428574L26.163567820975796,4.021428571428571L26.592139249547223,4.021428571428571z" stroke="none"/><path d="M25.53535533905933,2.9646446609406727L25.46464466094067,3.0353553390593273L25.26500360759563,2.8357142857142854L25.050717893309915,2.8357142857142854L24.62214646473849,2.407142857142857L18.44928210669008,2.407142857142857L18.23499639240437,2.6214285714285714L17.37785353526151,2.6214285714285714L16.94928210669008,3.05L16.5,3.05L16.5,2.95L16.907860750452773,2.95L17.336432179024204,2.521428571428572L18.19357503616706,2.521428571428572L18.407860750452773,2.3071428571428574L24.663567820975796,2.3071428571428574L25.092139249547223,2.7357142857142858L25.30642496383294,2.7357142857142858z" stroke="none"/><path d="M7.5,12.05L7.5,11.95L12.449282106690081,11.95L12.663567820975796,12.164285714285715L12.877853535261512,12.164285714285715L13.092139249547223,12.378571428571426L15.836432179024204,12.378571428571426L16.26500360759563,11.95L16.5,11.95L16.5,12.05L16.30642496383294,12.05L15.877853535261512,12.478571428571428L13.050717893309915,12.478571428571428L12.836432179024204,12.264285714285716L12.622146464738488,12.264285714285716L12.407860750452773,12.05z" stroke="none"/><path d="M6,12.05L6,11.95L6.449282106690083,11.95L6.8778535352615116,12.378571428571426L12.663567820975796,12.378571428571426L12.877853535261512,12.592857142857142L16.69357503616706,12.592857142857142L16.878571428571426,12.407860750452773L16.878571428571426,11.592139249547223L16.69357503616706,11.407142857142858L15.877853535261512,11.407142857142858L15.663567820975796,11.62142857142857L15.449282106690081,11.62142857142857L15.035355339059327,12.035355339059327L14.964644660940673,11.964644660940673L15.407860750452773,11.521428571428569L15.622146464738488,11.521428571428569L15.836432179024204,11.307142857142857L16.73499639240437,11.307142857142857L16.978571428571428,11.550717893309915L16.978571428571428,12.449282106690081L16.73499639240437,12.692857142857143L12.836432179024204,12.692857142857143L12.622146464738488,12.478571428571428L6.836432179024202,12.478571428571428L6.407860750452773,12.05z" stroke="none"/><path d="M4.535355339059327,9.035355339059327L4.464644660940673,8.964644660940673L4.907860750452774,8.521428571428569L5.122146464738488,8.521428571428569L5.336432179024202,8.307142857142857L10.479289321881346,8.307142857142857L10.878571428571426,7.907860750452773L10.878571428571426,6.836432179024202L11.550717893309915,6.164285714285715L11.76500360759563,6.164285714285715L11.979289321881346,5.95L12.622146464738488,5.95L13.050717893309915,5.521428571428571L13.949282106690081,5.521428571428571L15.478571428571428,7.050717893309916L15.478571428571428,8.163567820975796L15.264285714285716,8.377853535261512L15.264285714285716,8.806424963832939L15.035355339059327,9.035355339059327L14.964644660940673,8.964644660940673L15.164285714285715,8.76500360759563L15.164285714285715,8.336432179024204L15.378571428571426,8.122146464738488L15.378571428571426,7.092139249547226L13.907860750452773,5.621428571428571L13.092139249547223,5.621428571428571L12.663567820975796,6.05L12.020710678118654,6.05L11.806424963832939,6.264285714285714L11.592139249547223,6.264285714285714L10.978571428571428,6.8778535352615116L10.978571428571428,7.949282106690083L10.520710678118654,8.407142857142858L5.3778535352615116,8.407142857142858L5.163567820975797,8.62142857142857L4.949282106690084,8.62142857142857z" stroke="none"/><path d="M22.5,11.95L22.5,12.05L18.87785353526151,12.05L18.44928210669008,12.478571428571428L17.37785353526151,12.478571428571428L16.94928210669008,12.907142857142858L5.979289321881345,12.907142857142858L5.521428571428571,12.449282106690081L5.521428571428571,11.550717893309915L5.765003607595631,11.307142857142857L9.407860750452773,11.307142857142857L10.050717893309915,10.664285714285715L10.26500360759563,10.664285714285715L10.464644660940673,10.464644660940673L10.535355339059327,10.535355339059327L10.306424963832939,10.764285714285716L10.092139249547223,10.764285714285716L9.449282106690081,11.407142857142858L5.80642496383294,11.407142857142858L5.621428571428571,11.592139249547223L5.621428571428571,12.407860750452773L6.020710678118655,12.807142857142857L16.907860750452773,12.807142857142857L17.336432179024204,12.378571428571426L18.407860750452773,12.378571428571426L18.836432179024204,11.95z" stroke="none"/></svg>