<svg version="1.1" width="30" height="15" xmlns="http://www.w3.org/2000/svg"><path d="M13.949282106690081,5.307142857142857L14.76500360759563,5.307142857142857L14.979289321881346,5.0928571428571425L15.193575036167061,5.0928571428571425L15.407860750452773,4.878571428571429L17.12214646473849,4.878571428571429L17.336432179024204,4.664285714285715L19.26500360759563,4.664285714285715L19.46464466094067,4.464644660940673L19.53535533905933,4.535355339059327L19.30642496383294,4.764285714285714L17.37785353526151,4.764285714285714L17.163567820975796,4.978571428571429L15.449282106690081,4.978571428571429L15.23499639240437,5.192857142857142L15.020710678118654,5.192857142857142L14.806424963832939,5.407142857142857L11.806424963832939,5.407142857142857L11.592139249547223,5.621428571428571L11.377853535261512,5.621428571428571L11.163567820975796,5.835714285714285L10.949282106690081,5.835714285714285L9.449282106690081,7.335714285714285L9.23499639240437,7.335714285714285L9.035355339059327,7.535355339059327L8.964644660940673,7.464644660940673L9.193575036167061,7.235714285714286L9.407860750452773,7.235714285714286L10.907860750452773,5.735714285714286L11.122146464738488,5.735714285714286L11.336432179024204,5.521428571428571L11.550717893309915,5.521428571428571L11.76500360759563,5.307142857142857L13.807860750452772,5.307142857142857L13.664285714285715,5.163567820975797L13.664285714285715,4.734996392404369L13.464644660940673,4.535355339059327L13.535355339059327,4.464644660940673L13.764285714285716,4.69357503616706L13.764285714285716,5.122146464738488z" stroke="none"/><path d="M20.163567820975796,8.307142857142857L20.80642496383294,8.95L21,8.95L21,9.05L20.76500360759563,9.05L20.12214646473849,8.407142857142858L16.55,8.407142857142858L16.55,10.5L16.45,10.5L16.45,8.407142857142858L15.836432179024204,8.407142857142858L15.193575036167061,7.764285714285714L14.76500360759563,7.764285714285714L14.336432179024204,7.335714285714285L14.122146464738488,7.335714285714285L13.479289321881346,6.692857142857142L13.050717893309915,6.692857142857142L12.407860750452773,6.05L12,6.05L12,5.95L12.449282106690081,5.95L13.092139249547223,6.5928571428571425L13.520710678118654,6.5928571428571425L14.163567820975796,7.235714285714286L14.377853535261512,7.235714285714286L14.806424963832939,7.664285714285715L15.23499639240437,7.664285714285715L15.877853535261512,8.307142857142857z" stroke="none"/><path d="M8.550717893309915,9.807142857142857L8.76500360759563,9.592857142857142L9.193575036167061,9.592857142857142L10.021428571428569,8.76500360759563L10.021428571428569,8.550717893309915L10.235714285714284,8.336432179024204L10.235714285714284,7.907860750452773L10.45,7.69357503616706L10.45,7.5L10.55,7.5L10.55,7.734996392404369L10.335714285714285,7.949282106690083L10.335714285714285,8.377853535261512L10.12142857142857,8.592139249547223L10.12142857142857,8.806424963832939L9.23499639240437,9.692857142857143L8.806424963832939,9.692857142857143L8.592139249547223,9.907142857142858L8.407142857142858,9.907142857142858L8.407142857142858,10.693575036167061L8.592139249547223,10.878571428571426L11.336432179024204,10.878571428571426L11.550717893309915,10.664285714285715L11.76500360759563,10.664285714285715L11.964644660940673,10.464644660940673L12.035355339059327,10.535355339059327L11.806424963832939,10.764285714285716L11.592139249547223,10.764285714285716L11.377853535261512,10.978571428571428L8.550717893309915,10.978571428571428L8.307142857142857,10.73499639240437L8.307142857142857,9.907142857142858L8.163567820975796,9.907142857142858L7.520710678118655,10.55L7.30642496383294,10.55L7.092139249547226,10.764285714285716L6.663567820975797,10.764285714285716L6.449282106690083,10.978571428571428L5.592139249547226,10.978571428571428L5.3778535352615116,11.192857142857143L4.30642496383294,11.192857142857143L4.092139249547226,11.407142857142858L3.6635678209757976,11.407142857142858L3.0353553390593273,12.035355339059327L2.9646446609406727,11.964644660940673L3.622146464738488,11.307142857142857L4.050717893309916,11.307142857142857L4.265003607595631,11.092857142857142L5.336432179024202,11.092857142857142L5.550717893309916,10.878571428571426L6.407860750452773,10.878571428571426L6.622146464738488,10.664285714285715L7.050717893309916,10.664285714285715L7.265003607595631,10.45L7.479289321881345,10.45L8.122146464738488,9.807142857142857z" stroke="none"/><path d="M22.664285714285715,6.807142857142857L22.664285714285715,6.622146464738488L24.62214646473849,4.664285714285715L24.836432179024204,4.664285714285715L25.050717893309915,4.45L25.5,4.45L25.5,4.55L25.092139249547223,4.55L24.87785353526151,4.764285714285714L24.663567820975796,4.764285714285714L22.764285714285716,6.663567820975797L22.764285714285716,6.807142857142857L22.94928210669008,6.807142857142857L23.192857142857143,7.050717893309916L23.192857142857143,7.520710678118655L22.764285714285716,7.949282106690083L22.764285714285716,8.806424963832939L22.53535533905933,9.035355339059327L22.46464466094067,8.964644660940673L22.664285714285715,8.76500360759563L22.664285714285715,7.907860750452773L23.09285714285714,7.479289321881345L23.09285714285714,7.092139249547226L22.907860750452773,6.907142857142857L22.764285714285716,6.907142857142857L22.764285714285716,7.30642496383294L22.53535533905933,7.535355339059327L22.46464466094067,7.464644660940673L22.664285714285715,7.265003607595631L22.664285714285715,6.907142857142857L22.520710678118654,6.907142857142857L22.30642496383294,7.121428571428571L22.092139249547227,7.121428571428571L21.87785353526151,7.335714285714285L21.663567820975796,7.335714285714285L21.44928210669008,7.55L21,7.55L21,7.45L21.407860750452773,7.45L21.62214646473849,7.235714285714286L21.836432179024204,7.235714285714286L22.05071789330992,7.021428571428571L22.26500360759563,7.021428571428571L22.479289321881346,6.807142857142857z" stroke="none"/><path d="M11.092857142857142,4.021428571428571L11.092857142857142,3.8364321790242024L11.979289321881346,2.95L12.622146464738488,2.95L12.836432179024204,2.7357142857142858L18.020710678118654,2.7357142857142858L19.092139249547227,3.8071428571428574L19.73499639240437,3.8071428571428574L19.978571428571428,4.050717893309916L19.978571428571428,4.949282106690084L19.73499639240437,5.192857142857142L18.020710678118654,5.192857142857142L17.80642496383294,5.407142857142857L17.592139249547227,5.407142857142857L17.163567820975796,5.835714285714285L16.73499639240437,5.835714285714285L16.53535533905933,6.035355339059327L16.46464466094067,5.964644660940673L16.69357503616706,5.735714285714286L17.12214646473849,5.735714285714286L17.55071789330992,5.307142857142857L17.76500360759563,5.307142857142857L17.979289321881346,5.0928571428571425L19.69357503616706,5.0928571428571425L19.878571428571426,4.907860750452774L19.878571428571426,4.092139249547226L19.69357503616706,3.907142857142857L19.05071789330992,3.907142857142857L17.979289321881346,2.8357142857142854L12.877853535261512,2.8357142857142854L12.663567820975796,3.05L12.020710678118654,3.05L11.192857142857143,3.877853535261512L11.192857142857143,4.021428571428571L11.336432179024204,4.021428571428571L12.193575036167061,3.1642857142857146L12.836432179024204,3.1642857142857146L13.050717893309915,2.95L13.5,2.95L13.5,3.05L13.092139249547223,3.05L12.877853535261512,3.2642857142857142L12.23499639240437,3.2642857142857142L11.377853535261512,4.121428571428571L11.163567820975796,4.121428571428571L10.949282106690081,4.335714285714285L10.73499639240437,4.335714285714285L10.535355339059327,4.535355339059327L10.464644660940673,4.464644660940673L10.693575036167061,4.235714285714286L10.907860750452773,4.235714285714286L11.022146464738487,4.121428571428571L5.979289321881345,4.121428571428571L5.765003607595631,3.907142857142857L5.550717893309916,3.907142857142857L4.907860750452774,3.2642857142857142L4.69357503616706,3.2642857142857142L4.464644660940673,3.0353553390593273L4.535355339059327,2.9646446609406727L4.734996392404369,3.1642857142857146L4.949282106690084,3.1642857142857146L5.592139249547226,3.8071428571428574L5.80642496383294,3.8071428571428574L6.020710678118655,4.021428571428571z" stroke="none"/><path d="M15.663567820975796,9.592857142857142L15.907142857142858,9.836432179024204L15.907142857142858,10.050717893309915L16.12142857142857,10.26500360759563L16.12142857142857,10.907860750452773L16.73499639240437,11.521428571428569L16.94928210669008,11.521428571428569L17.37785353526151,11.95L18,11.95L18,12.05L17.336432179024204,12.05L16.907860750452773,11.62142857142857L16.69357503616706,11.62142857142857L16.02142857142857,10.949282106690081L16.02142857142857,10.306424963832939L15.807142857142857,10.092139249547223L15.807142857142857,9.877853535261512L15.692857142857143,9.763567820975798L15.692857142857143,10.907860750452773L16.520710678118654,11.735714285714284L16.73499639240437,11.735714285714284L17.163567820975796,12.164285714285715L18.19357503616706,12.164285714285715L18.378571428571426,11.979289321881346L18.378571428571426,11.122146464738488L18.59285714285714,10.907860750452773L18.59285714285714,10.693575036167061L18.807142857142857,10.479289321881346L18.807142857142857,9.836432179024204L19.45,9.193575036167061L19.45,9L19.55,9L19.55,9.23499639240437L18.90714285714286,9.877853535261512L18.90714285714286,10.520710678118654L18.692857142857143,10.73499639240437L18.692857142857143,10.949282106690081L18.478571428571428,11.163567820975796L18.478571428571428,12.020710678118654L18.23499639240437,12.264285714285716L17.12214646473849,12.264285714285716L16.69357503616706,11.835714285714285L16.479289321881346,11.835714285714285L15.592857142857142,10.949282106690081L15.592857142857142,9.763567820975798L15.449282106690081,9.907142857142858L15.23499639240437,9.907142857142858L15.020710678118654,10.12142857142857L14.806424963832939,10.12142857142857L14.592139249547223,10.335714285714285L14.163567820975796,10.335714285714285L13.949282106690081,10.55L13.5,10.55L13.5,10.45L13.907860750452773,10.45L14.122146464738488,10.235714285714284L14.550717893309915,10.235714285714284L14.76500360759563,10.021428571428569L14.979289321881346,10.021428571428569L15.193575036167061,9.807142857142857L15.407860750452773,9.807142857142857L15.522146464738487,9.692857142857143L14.979289321881346,9.692857142857143L14.336432179024204,9.05L14.122146464738488,9.05L13.693575036167061,8.62142857142857L13.479289321881346,8.62142857142857L12.836432179024204,7.978571428571428L12.407860750452773,7.978571428571428L11.964644660940673,7.535355339059327L12.035355339059327,7.464644660940673L12.449282106690081,7.878571428571428L12.877853535261512,7.878571428571428L13.520710678118654,8.521428571428569L13.73499639240437,8.521428571428569L14.163567820975796,8.95L14.377853535261512,8.95L15.020710678118654,9.592857142857142z" stroke="none"/><path d="M24.05,10.5L23.95,10.5L23.95,9L24.05,9z" stroke="none"/><path d="M19.5,12.05L19.5,11.95L21,11.95L21,12.05z" stroke="none"/><path d="M9,10.55L9,10.45L10.5,10.45L10.5,10.55z" stroke="none"/><path d="M4.45,9L4.55,9L4.55,10.5L4.45,10.5z" stroke="none"/><path d="M25.53535533905933,9.035355339059327L25.46464466094067,8.964644660940673L26.96464466094067,7.464644660940673L27.03535533905933,7.535355339059327z" stroke="none"/><path d="M26.96464466094067,10.464644660940673L27.03535533905933,10.535355339059327L25.53535533905933,12.035355339059327L25.46464466094067,11.964644660940673z" stroke="none"/><path d="M16.5,4.45L16.5,4.55L14.336432179024204,4.55L13.907860750452773,4.121428571428571L13.092139249547223,4.121428571428571L12.692857142857143,4.520710678118655L12.692857142857143,4.734996392404369L12.449282106690081,4.978571428571429L11.377853535261512,4.978571428571429L9.663567820975796,6.692857142857142L9.020710678118654,6.692857142857142L8.62142857142857,7.092139249547226L8.62142857142857,7.907860750452773L8.806424963832939,8.092857142857142L8.979289321881346,8.092857142857142L9.193575036167061,7.878571428571428L9.407860750452773,7.878571428571428L9.807142857142857,7.479289321881345L9.807142857142857,7.265003607595631L10.050717893309915,7.021428571428571L10.949282106690081,7.021428571428571L11.407142857142858,7.479289321881345L11.407142857142858,7.69357503616706L11.835714285714285,8.122146464738488L11.835714285714285,8.336432179024204L12.05,8.550717893309915L12.05,8.76500360759563L12.264285714285716,8.979289321881346L12.264285714285716,9.193575036167061L12.692857142857143,9.622146464738488L12.692857142857143,10.26500360759563L12.907142857142858,10.479289321881346L12.907142857142858,10.693575036167061L13.092139249547223,10.878571428571426L15.020710678118654,10.878571428571426L15.877853535261512,11.735714285714284L16.092139249547223,11.735714285714284L16.30642496383294,11.95L16.520710678118654,11.95L16.94928210669008,12.378571428571426L18.407860750452773,12.378571428571426L19.021428571428572,11.76500360759563L19.021428571428572,11.550717893309915L20.76500360759563,9.807142857142857L20.979289321881346,9.807142857142857L21.378571428571426,9.407860750452773L21.378571428571426,8.592139249547223L21.19357503616706,8.407142857142858L20.76500360759563,8.407142857142858L20.55071789330992,8.192857142857143L16.26500360759563,8.192857142857143L14.336432179024204,6.264285714285714L13.907860750452773,6.264285714285714L13.693575036167061,6.05L13.5,6.05L13.5,5.95L13.73499639240437,5.95L13.949282106690081,6.164285714285715L14.377853535261512,6.164285714285715L16.30642496383294,8.092857142857142L20.592139249547227,8.092857142857142L20.80642496383294,8.307142857142857L21.23499639240437,8.307142857142857L21.478571428571428,8.550717893309915L21.478571428571428,9.449282106690081L21.020710678118654,9.907142857142858L20.80642496383294,9.907142857142858L19.121428571428574,11.592139249547223L19.121428571428574,11.806424963832939L18.44928210669008,12.478571428571428L16.907860750452773,12.478571428571428L16.479289321881346,12.05L16.26500360759563,12.05L16.050717893309915,11.835714285714285L15.836432179024204,11.835714285714285L14.979289321881346,10.978571428571428L13.050717893309915,10.978571428571428L12.807142857142857,10.73499639240437L12.807142857142857,10.520710678118654L12.592857142857142,10.306424963832939L12.592857142857142,9.663567820975796L12.164285714285715,9.23499639240437L12.164285714285715,9.020710678118654L11.95,8.806424963832939L11.95,8.592139249547223L11.735714285714284,8.377853535261512L11.735714285714284,8.163567820975796L11.307142857142857,7.734996392404369L11.307142857142857,7.520710678118655L10.907860750452773,7.121428571428571L10.092139249547223,7.121428571428571L9.907142857142858,7.30642496383294L9.907142857142858,7.520710678118655L9.449282106690081,7.978571428571428L9.23499639240437,7.978571428571428L9.020710678118654,8.192857142857143L8.76500360759563,8.192857142857143L8.521428571428569,7.949282106690083L8.521428571428569,7.050717893309916L8.979289321881346,6.5928571428571425L9.622146464738488,6.5928571428571425L11.336432179024204,4.878571428571429L12.407860750452773,4.878571428571429L12.592857142857142,4.69357503616706L12.592857142857142,4.479289321881345L13.050717893309915,4.021428571428571L13.949282106690081,4.021428571428571L14.377853535261512,4.45z" stroke="none"/><path d="M27.03535533905933,5.964644660940673L26.96464466094067,6.035355339059327L26.52142857142857,5.592139249547226L26.52142857142857,5.163567820975797L26.307142857142857,4.949282106690084L26.307142857142857,4.520710678118655L25.907860750452773,4.121428571428571L24.663567820975796,4.121428571428571L24.44928210669008,4.335714285714285L24.23499639240437,4.335714285714285L24.03535533905933,4.535355339059327L23.96464466094067,4.464644660940673L24.19357503616706,4.235714285714286L24.407860750452773,4.235714285714286L24.62214646473849,4.021428571428571L25.94928210669008,4.021428571428571L26.40714285714286,4.479289321881345L26.40714285714286,4.907860750452774L26.62142857142857,5.122146464738488L26.62142857142857,5.550717893309916z" stroke="none"/><path d="M22.46464466094067,2.9646446609406727L22.53535533905933,3.0353553390593273L22.335714285714285,3.234996392404369L22.335714285714285,3.6635678209757976L21.90714285714286,4.092139249547226L21.90714285714286,4.30642496383294L21.478571428571428,4.734996392404369L21.478571428571428,5.163567820975797L21.264285714285716,5.3778535352615116L21.264285714285716,5.80642496383294L21.03535533905933,6.035355339059327L20.96464466094067,5.964644660940673L21.164285714285715,5.765003607595631L21.164285714285715,5.336432179024202L21.378571428571426,5.122146464738488L21.378571428571426,4.69357503616706L21.807142857142857,4.265003607595631L21.807142857142857,4.050717893309916L22.235714285714284,3.622146464738488L22.235714285714284,3.1935750361670596z" stroke="none"/><path d="M3,9.05L3,8.95L3.1935750361670596,8.95L3.4078607504527736,8.735714285714284L3.8364321790242024,8.735714285714284L4.050717893309916,8.521428571428569L4.949282106690084,8.521428571428569L5.192857142857142,8.76500360759563L5.192857142857142,8.979289321881346L5.621428571428571,9.407860750452773L5.621428571428571,9.622146464738488L5.835714285714285,9.836432179024204L5.835714285714285,10.26500360759563L6.035355339059327,10.464644660940673L5.964644660940673,10.535355339059327L5.735714285714286,10.306424963832939L5.735714285714286,9.877853535261512L5.521428571428571,9.663567820975796L5.521428571428571,9.449282106690081L5.0928571428571425,9.020710678118654L5.0928571428571425,8.806424963832939L4.907860750452774,8.62142857142857L4.092139249547226,8.62142857142857L3.877853535261512,8.835714285714285L3.449282106690083,8.835714285714285L3.234996392404369,9.05z" stroke="none"/><path d="M6.035355339059327,7.535355339059327L5.964644660940673,7.464644660940673L6.836432179024202,6.5928571428571425L7.050717893309916,6.5928571428571425L7.479289321881345,6.164285714285715L7.907860750452773,6.164285714285715L8.122146464738488,5.95L9,5.95L9,6.05L8.163567820975796,6.05L7.949282106690083,6.264285714285714L7.520710678118655,6.264285714285714L7.092139249547226,6.692857142857142L6.8778535352615116,6.692857142857142z" stroke="none"/><path d="M4.55,6L4.45,6L4.45,5.3778535352615116L4.021428571428571,4.949282106690084L4.021428571428571,2.550717893309917L4.265003607595631,2.3071428571428574L6.663567820975797,2.3071428571428574L7.30642496383294,2.95L7.5,2.95L7.5,3.05L7.265003607595631,3.05L6.622146464738488,2.407142857142857L4.30642496383294,2.407142857142857L4.121428571428571,2.5921392495472264L4.121428571428571,4.907860750452774L4.55,5.336432179024202z" stroke="none"/><path d="M9,8.95L9,9.05L8.122146464738488,9.05L7.907860750452773,8.835714285714285L7.69357503616706,8.835714285714285L7.479289321881345,8.62142857142857L6.836432179024202,8.62142857142857L6.622146464738488,8.407142857142858L5.979289321881345,8.407142857142858L5.521428571428571,7.949282106690083L5.521428571428571,6.836432179024202L5.735714285714286,6.622146464738488L5.735714285714286,6.407860750452773L5.95,6.19357503616706L5.95,6L6.05,6L6.05,6.234996392404369L5.835714285714285,6.449282106690083L5.835714285714285,6.663567820975797L5.621428571428571,6.8778535352615116L5.621428571428571,7.907860750452773L6.020710678118655,8.307142857142857L6.663567820975797,8.307142857142857L6.8778535352615116,8.521428571428569L7.520710678118655,8.521428571428569L7.734996392404369,8.735714285714284L7.949282106690083,8.735714285714284L8.163567820975796,8.95z" stroke="none"/><path d="M27.03535533905933,4.464644660940673L26.96464466094067,4.535355339059327L26.336432179024204,3.907142857142857L24.020710678118654,3.907142857142857L23.80642496383294,4.121428571428571L23.163567820975796,4.121428571428571L22.73499639240437,4.55L22.5,4.55L22.5,4.45L22.69357503616706,4.45L23.12214646473849,4.021428571428571L23.76500360759563,4.021428571428571L23.979289321881346,3.8071428571428574L26.37785353526151,3.8071428571428574z" stroke="none"/><path d="M9.035355339059327,12.035355339059327L8.964644660940673,11.964644660940673L9.193575036167061,11.735714285714284L9.622146464738488,11.735714285714284L9.836432179024204,11.521428571428569L12.449282106690081,11.521428571428569L12.663567820975796,11.735714285714284L13.306424963832939,11.735714285714284L13.535355339059327,11.964644660940673L13.464644660940673,12.035355339059327L13.26500360759563,11.835714285714285L12.622146464738488,11.835714285714285L12.407860750452773,11.62142857142857L9.877853535261512,11.62142857142857L9.663567820975796,11.835714285714285L9.23499639240437,11.835714285714285z" stroke="none"/><path d="M2.95,3L3.05,3L3.05,3.4078607504527736L3.478571428571428,3.8364321790242024L3.478571428571428,6.8778535352615116L3.05,7.30642496383294L3.05,7.5L2.95,7.5L2.95,7.265003607595631L3.3785714285714286,6.836432179024202L3.3785714285714286,3.877853535261512L2.95,3.449282106690083z" stroke="none"/><path d="M25.5,7.55L25.5,7.45L25.907860750452773,7.45L26.336432179024204,7.021428571428571L26.550717893309915,7.021428571428571L26.979289321881346,6.5928571428571425L27.19357503616706,6.5928571428571425L27.378571428571426,6.407860750452773L27.378571428571426,4.092139249547226L27.19357503616706,3.907142857142857L26.76500360759563,3.907142857142857L26.550717893309915,3.6928571428571426L24.836432179024204,3.6928571428571426L24.407860750452773,3.2642857142857142L24.19357503616706,3.2642857142857142L23.96464466094067,3.0353553390593273L24.03535533905933,2.9646446609406727L24.23499639240437,3.1642857142857146L24.44928210669008,3.1642857142857146L24.87785353526151,3.592857142857143L26.592139249547223,3.592857142857143L26.80642496383294,3.8071428571428574L27.23499639240437,3.8071428571428574L27.478571428571428,4.050717893309916L27.478571428571428,6.449282106690083L27.23499639240437,6.692857142857142L27.020710678118654,6.692857142857142L26.592139249547223,7.121428571428571L26.37785353526151,7.121428571428571L25.94928210669008,7.55z" stroke="none"/><path d="M27,2.95L27,3.05L25.26500360759563,3.05L25.050717893309915,2.8357142857142854L24.62214646473849,2.8357142857142854L24.407860750452773,2.6214285714285714L22.092139249547227,2.6214285714285714L21.90714285714286,2.8064249638329404L21.90714285714286,3.6635678209757976L21.264285714285716,4.30642496383294L21.264285714285716,4.734996392404369L21.05,4.949282106690084L21.05,5.163567820975797L20.621428571428574,5.592139249547226L20.621428571428574,6.407860750452773L20.80642496383294,6.5928571428571425L21.407860750452773,6.5928571428571425L21.836432179024204,6.164285714285715L22.05071789330992,6.164285714285715L22.26500360759563,5.95L22.5,5.95L22.5,6.05L22.30642496383294,6.05L22.092139249547227,6.264285714285714L21.87785353526151,6.264285714285714L21.44928210669008,6.692857142857142L20.76500360759563,6.692857142857142L20.521428571428572,6.449282106690083L20.521428571428572,5.550717893309916L20.95,5.122146464738488L20.95,4.907860750452774L21.164285714285715,4.69357503616706L21.164285714285715,4.265003607595631L21.807142857142857,3.622146464738488L21.807142857142857,2.765003607595631L22.05071789330992,2.521428571428572L24.44928210669008,2.521428571428572L24.663567820975796,2.7357142857142858L25.092139249547223,2.7357142857142858L25.30642496383294,2.95z" stroke="none"/><path d="M20.95,3L21.05,3L21.05,3.877853535261512L20.621428571428574,4.30642496383294L20.621428571428574,4.734996392404369L20.40714285714286,4.949282106690084L20.40714285714286,7.69357503616706L20.592139249547227,7.878571428571428L20.80642496383294,7.878571428571428L21.020710678118654,8.092857142857142L21.44928210669008,8.092857142857142L21.692857142857143,8.336432179024204L21.692857142857143,8.979289321881346L22.092139249547227,9.378571428571426L22.907860750452773,9.378571428571426L23.09285714285714,9.193575036167061L23.09285714285714,8.979289321881346L25.02142857142857,7.050717893309916L25.02142857142857,6.836432179024202L25.235714285714284,6.622146464738488L25.235714285714284,6.407860750452773L25.45,6.19357503616706L25.45,6L25.55,6L25.55,6.234996392404369L25.335714285714285,6.449282106690083L25.335714285714285,6.663567820975797L25.12142857142857,6.8778535352615116L25.12142857142857,7.092139249547226L23.192857142857143,9.020710678118654L23.192857142857143,9.23499639240437L22.94928210669008,9.478571428571428L22.05071789330992,9.478571428571428L21.59285714285714,9.020710678118654L21.59285714285714,8.377853535261512L21.407860750452773,8.192857142857143L20.979289321881346,8.192857142857143L20.76500360759563,7.978571428571428L20.55071789330992,7.978571428571428L20.307142857142857,7.734996392404369L20.307142857142857,4.907860750452774L20.521428571428572,4.69357503616706L20.521428571428572,4.265003607595631L20.95,3.8364321790242024z" stroke="none"/><path d="M4.464644660940673,4.535355339059327L4.535355339059327,4.464644660940673L4.978571428571429,4.907860750452774L4.978571428571429,6.449282106690083L4.734996392404369,6.692857142857142L4.265003607595631,6.692857142857142L4.021428571428571,6.449282106690083L4.021428571428571,5.3778535352615116L3.8071428571428574,5.163567820975797L3.8071428571428574,2.3364321790242024L4.050717893309916,2.092857142857143L6.8778535352615116,2.092857142857143L7.092139249547226,2.3071428571428574L7.30642496383294,2.3071428571428574L7.520710678118655,2.521428571428572L9.23499639240437,2.521428571428572L9.449282106690081,2.7357142857142858L9.877853535261512,2.7357142857142858L10.092139249547223,2.95L10.5,2.95L10.5,3.05L10.050717893309915,3.05L9.836432179024204,2.8357142857142854L9.407860750452773,2.8357142857142854L9.193575036167061,2.6214285714285714L7.479289321881345,2.6214285714285714L7.265003607595631,2.407142857142857L7.050717893309916,2.407142857142857L6.836432179024202,2.1928571428571426L4.092139249547226,2.1928571428571426L3.907142857142857,2.377853535261512L3.907142857142857,5.122146464738488L4.121428571428571,5.336432179024202L4.121428571428571,6.407860750452773L4.30642496383294,6.5928571428571425L4.69357503616706,6.5928571428571425L4.878571428571429,6.407860750452773L4.878571428571429,4.949282106690084z" stroke="none"/><path d="M19.5,2.95L19.5,3.05L19.05071789330992,3.05L18.836432179024204,2.8357142857142854L18.407860750452773,2.8357142857142854L18.19357503616706,2.6214285714285714L9.836432179024204,2.6214285714285714L9.622146464738488,2.407142857142857L7.907860750452773,2.407142857142857L7.69357503616706,2.1928571428571426L7.479289321881345,2.1928571428571426L7.265003607595631,1.9785714285714286L3.877853535261512,1.9785714285714286L3.6928571428571426,2.1635678209757976L3.6928571428571426,6.407860750452773L4.092139249547226,6.807142857142857L4.907860750452774,6.807142857142857L5.0928571428571425,6.622146464738488L5.0928571428571425,6.407860750452773L5.307142857142857,6.19357503616706L5.307142857142857,5.765003607595631L5.550717893309916,5.521428571428571L8.76500360759563,5.521428571428571L8.979289321881346,5.307142857142857L9.836432179024204,5.307142857142857L10.050717893309915,5.0928571428571425L10.479289321881346,5.0928571428571425L10.693575036167061,4.878571428571429L10.907860750452773,4.878571428571429L11.122146464738488,4.664285714285715L11.550717893309915,4.664285714285715L11.76500360759563,4.45L12,4.45L12,4.55L11.806424963832939,4.55L11.592139249547223,4.764285714285714L11.163567820975796,4.764285714285714L10.949282106690081,4.978571428571429L10.73499639240437,4.978571428571429L10.520710678118654,5.192857142857142L10.092139249547223,5.192857142857142L9.877853535261512,5.407142857142857L9.020710678118654,5.407142857142857L8.806424963832939,5.621428571428571L5.592139249547226,5.621428571428571L5.407142857142857,5.80642496383294L5.407142857142857,6.234996392404369L5.192857142857142,6.449282106690083L5.192857142857142,6.663567820975797L4.949282106690084,6.907142857142857L4.050717893309916,6.907142857142857L3.592857142857143,6.449282106690083L3.592857142857143,2.122146464738488L3.8364321790242024,1.8785714285714286L7.30642496383294,1.8785714285714286L7.520710678118655,2.092857142857143L7.734996392404369,2.092857142857143L7.949282106690083,2.3071428571428574L9.663567820975796,2.3071428571428574L9.877853535261512,2.521428571428572L18.23499639240437,2.521428571428572L18.44928210669008,2.7357142857142858L18.87785353526151,2.7357142857142858L19.092139249547227,2.95z" stroke="none"/><path d="M2.95,10.5L3.05,10.5L3.05,10.949282106690081L2.8357142857142854,11.163567820975796L2.8357142857142854,11.377853535261512L2.6214285714285714,11.592139249547223L2.6214285714285714,12.407860750452773L2.8064249638329404,12.592857142857142L9.407860750452773,12.592857142857142L9.836432179024204,12.164285714285715L10.26500360759563,12.164285714285715L10.464644660940673,11.964644660940673L10.535355339059327,12.035355339059327L10.306424963832939,12.264285714285716L9.877853535261512,12.264285714285716L9.449282106690081,12.692857142857143L2.765003607595631,12.692857142857143L2.521428571428572,12.449282106690081L2.521428571428572,11.550717893309915L2.7357142857142858,11.336432179024204L2.7357142857142858,11.122146464738488L2.95,10.907860750452773z" stroke="none"/><path d="M22.45,10.5L22.55,10.5L22.55,10.949282106690081L22.335714285714285,11.163567820975796L22.335714285714285,11.377853535261512L21.478571428571428,12.23499639240437L21.478571428571428,12.449282106690081L21.23499639240437,12.692857142857143L12.836432179024204,12.692857142857143L12.407860750452773,12.264285714285716L12.193575036167061,12.264285714285716L11.964644660940673,12.035355339059327L12.035355339059327,11.964644660940673L12.23499639240437,12.164285714285715L12.449282106690081,12.164285714285715L12.877853535261512,12.592857142857142L21.19357503616706,12.592857142857142L21.378571428571426,12.407860750452773L21.378571428571426,12.193575036167061L22.235714285714284,11.336432179024204L22.235714285714284,11.122146464738488L22.45,10.907860750452773z" stroke="none"/><path d="M3.05,6L2.95,6L2.95,4.30642496383294L2.7357142857142858,4.092139249547226L2.7357142857142858,3.877853535261512L2.521428571428572,3.6635678209757976L2.521428571428572,2.550717893309917L3.1935750361670596,1.8785714285714286L3.4078607504527736,1.8785714285714286L3.622146464738488,1.6642857142857144L18.87785353526151,1.6642857142857144L19.520710678118654,2.3071428571428574L19.73499639240437,2.3071428571428574L20.192857142857143,2.765003607595631L20.192857142857143,5.163567820975797L19.94928210669008,5.407142857142857L19.30642496383294,5.407142857142857L19.092139249547227,5.621428571428571L18.87785353526151,5.621428571428571L18.44928210669008,6.05L18.23499639240437,6.05L17.80642496383294,6.478571428571428L16.050717893309915,6.478571428571428L15.836432179024204,6.264285714285714L15.193575036167061,6.264285714285714L14.964644660940673,6.035355339059327L15.035355339059327,5.964644660940673L15.23499639240437,6.164285714285715L15.877853535261512,6.164285714285715L16.092139249547223,6.378571428571428L17.76500360759563,6.378571428571428L18.19357503616706,5.95L18.407860750452773,5.95L18.836432179024204,5.521428571428571L19.05071789330992,5.521428571428571L19.26500360759563,5.307142857142857L19.907860750452773,5.307142857142857L20.09285714285714,5.122146464738488L20.09285714285714,2.8064249638329404L19.69357503616706,2.407142857142857L19.479289321881346,2.407142857142857L18.836432179024204,1.7642857142857145L3.6635678209757976,1.7642857142857145L3.449282106690083,1.9785714285714286L3.234996392404369,1.9785714285714286L2.6214285714285714,2.5921392495472264L2.6214285714285714,3.622146464738488L2.8357142857142854,3.8364321790242024L2.8357142857142854,4.050717893309916L3.05,4.265003607595631z" stroke="none"/></svg>