<svg version="1.1" width="30" height="15" xmlns="http://www.w3.org/2000/svg"><path d="M18,5.072146464738488L18.19357503616706,4.878571428571429L18.407860750452773,4.878571428571429L18.62214646473849,4.664285714285715L19.05071789330992,4.664285714285715L19.26500360759563,4.45L19.5,4.45L19.5,4.55L19.30642496383294,4.55L19.092139249547227,4.764285714285714L18.663567820975796,4.764285714285714L18.44928210669008,4.978571428571429L18.23499639240437,4.978571428571429L18.070710678118655,5.142857142857142L18.90714285714286,5.979289321881345L18.90714285714286,6.19357503616706L19.092139249547227,6.378571428571428L19.94928210669008,6.378571428571428L20.163567820975796,6.5928571428571425L20.80642496383294,6.5928571428571425L21.44928210669008,7.235714285714286L21.663567820975796,7.235714285714286L21.87785353526151,7.45L22.5,7.45L22.5,7.55L21.836432179024204,7.55L21.62214646473849,7.335714285714285L21.407860750452773,7.335714285714285L20.76500360759563,6.692857142857142L20.12214646473849,6.692857142857142L19.907860750452773,6.478571428571428L19.05071789330992,6.478571428571428L18.807142857142857,6.234996392404369L18.807142857142857,6.020710678118655L17.76500360759563,4.978571428571429L17.55071789330992,4.978571428571429L17.336432179024204,4.764285714285714L17.12214646473849,4.764285714285714L16.907860750452773,4.55L16.69357503616706,4.55L16.479289321881346,4.335714285714285L15.622146464738488,4.335714285714285L15.407860750452773,4.121428571428571L14.550717893309915,4.121428571428571L13.693575036167061,3.2642857142857142L13.26500360759563,3.2642857142857142L13.050717893309915,3.05L12,3.05L12,2.95L13.092139249547223,2.95L13.306424963832939,3.1642857142857146L13.73499639240437,3.1642857142857146L14.592139249547223,4.021428571428571L15.449282106690081,4.021428571428571L15.663567820975796,4.235714285714286L16.520710678118654,4.235714285714286L16.73499639240437,4.45L16.94928210669008,4.45L17.163567820975796,4.664285714285715L17.37785353526151,4.664285714285715L17.592139249547227,4.878571428571429L17.80642496383294,4.878571428571429z" stroke="none"/><path d="M9.907142857142858,7.479289321881345L9.907142857142858,7.69357503616706L10.092139249547223,7.878571428571428L11.163567820975796,7.878571428571428L11.377853535261512,8.092857142857142L12.877853535261512,8.092857142857142L13.092139249547223,8.307142857142857L13.306424963832939,8.307142857142857L13.949282106690081,8.95L15,8.95L15,9.05L13.907860750452773,9.05L13.26500360759563,8.407142857142858L13.050717893309915,8.407142857142858L12.836432179024204,8.192857142857143L11.336432179024204,8.192857142857143L11.122146464738488,7.978571428571428L10.050717893309915,7.978571428571428L9.807142857142857,7.734996392404369L9.807142857142857,7.620710678118654L8.592139249547223,8.835714285714285L7.949282106690083,8.835714285714285L7.734996392404369,9.05L7.5,9.05L7.5,8.95L7.69357503616706,8.95L7.907860750452773,8.735714285714284L8.550717893309915,8.735714285714284L9.786432179024203,7.5L8.521428571428569,6.234996392404369L8.521428571428569,6.020710678118655L7.878571428571428,5.3778535352615116L7.878571428571428,5.163567820975797L7.664285714285715,4.949282106690084L7.664285714285715,4.734996392404369L7.464644660940673,4.535355339059327L7.535355339059327,4.464644660940673L7.764285714285714,4.69357503616706L7.764285714285714,4.907860750452774L7.978571428571428,5.122146464738488L7.978571428571428,5.336432179024202L8.62142857142857,5.979289321881345L8.62142857142857,6.19357503616706z" stroke="none"/><path d="M9.020710678118654,10.45L9.449282106690081,10.45L9.663567820975796,10.664285714285715L9.877853535261512,10.664285714285715L10.092139249547223,10.878571428571426L14.163567820975796,10.878571428571426L14.377853535261512,11.092857142857142L15.449282106690081,11.092857142857142L16.092139249547223,11.735714285714284L16.30642496383294,11.735714285714284L16.53535533905933,11.964644660940673L16.46464466094067,12.035355339059327L16.26500360759563,11.835714285714285L16.050717893309915,11.835714285714285L15.407860750452773,11.192857142857143L14.336432179024204,11.192857142857143L14.122146464738488,10.978571428571428L10.050717893309915,10.978571428571428L9.836432179024204,10.764285714285716L9.622146464738488,10.764285714285716L9.407860750452773,10.55L8.377853535261512,10.55L7.734996392404369,11.192857142857143L7.092139249547226,11.192857142857143L6.8778535352615116,11.407142857142858L5.80642496383294,11.407142857142858L5.3778535352615116,11.835714285714285L5.163567820975797,11.835714285714285L4.949282106690084,12.05L4.5,12.05L4.5,11.95L4.907860750452774,11.95L5.122146464738488,11.735714285714284L5.336432179024202,11.735714285714284L5.765003607595631,11.307142857142857L6.836432179024202,11.307142857142857L7.050717893309916,11.092857142857142L7.69357503616706,11.092857142857142L8.336432179024204,10.45L8.879289321881345,10.45L8.122146464738488,9.692857142857143L7.265003607595631,9.692857142857143L7.021428571428571,9.449282106690081L7.021428571428571,9.23499639240437L6.378571428571428,8.592139249547223L6.378571428571428,8.163567820975796L5.95,7.734996392404369L5.95,7.5L6.05,7.5L6.05,7.69357503616706L6.478571428571428,8.122146464738488L6.478571428571428,8.550717893309915L7.121428571428571,9.193575036167061L7.121428571428571,9.407860750452773L7.30642496383294,9.592857142857142L8.163567820975796,9.592857142857142z" stroke="none"/><path d="M14.163567820975796,4.664285714285715L14.76500360759563,4.664285714285715L14.964644660940673,4.464644660940673L15.035355339059327,4.535355339059327L14.806424963832939,4.764285714285714L14.192857142857143,4.764285714285714L14.192857142857143,4.907860750452774L15.05,5.765003607595631L15.05,6L14.95,6L14.95,5.80642496383294L14.092857142857142,4.949282106690084L14.092857142857142,4.764285714285714L13.693575036167061,4.764285714285714L13.26500360759563,4.335714285714285L12.836432179024204,4.335714285714285L12.622146464738488,4.121428571428571L7.092139249547226,4.121428571428571L6.907142857142857,4.30642496383294L6.907142857142857,4.907860750452774L7.121428571428571,5.122146464738488L7.121428571428571,5.336432179024202L7.335714285714285,5.550717893309916L7.335714285714285,5.765003607595631L7.535355339059327,5.964644660940673L7.464644660940673,6.035355339059327L7.235714285714286,5.80642496383294L7.235714285714286,5.592139249547226L7.021428571428571,5.3778535352615116L7.021428571428571,5.163567820975797L6.807142857142857,4.949282106690084L6.807142857142857,4.265003607595631L7.050717893309916,4.021428571428571L12.663567820975796,4.021428571428571L12.877853535261512,4.235714285714286L13.306424963832939,4.235714285714286L13.73499639240437,4.664285714285715L14.022146464738487,4.664285714285715L13.479289321881346,4.121428571428571L13.050717893309915,4.121428571428571L12.836432179024204,3.907142857142857L12.407860750452773,3.907142857142857L12.193575036167061,3.6928571428571426L11.76500360759563,3.6928571428571426L11.521428571428569,3.449282106690083L11.521428571428569,2.550717893309917L11.76500360759563,2.3071428571428574L16.73499639240437,2.3071428571428574L16.94928210669008,2.521428571428572L17.163567820975796,2.521428571428572L17.37785353526151,2.7357142857142858L19.30642496383294,2.7357142857142858L19.53535533905933,2.9646446609406727L19.46464466094067,3.0353553390593273L19.26500360759563,2.8357142857142854L17.336432179024204,2.8357142857142854L17.12214646473849,2.6214285714285714L16.907860750452773,2.6214285714285714L16.69357503616706,2.407142857142857L11.806424963832939,2.407142857142857L11.62142857142857,2.5921392495472264L11.62142857142857,3.4078607504527736L11.806424963832939,3.592857142857143L12.23499639240437,3.592857142857143L12.449282106690081,3.8071428571428574L12.877853535261512,3.8071428571428574L13.092139249547223,4.021428571428571L13.520710678118654,4.021428571428571z" stroke="none"/><path d="M22.714285714285715,4.429289321881345L23.52142857142857,3.622146464738488L23.52142857142857,3.4078607504527736L23.96464466094067,2.9646446609406727L24.03535533905933,3.0353553390593273L23.62142857142857,3.449282106690083L23.62142857142857,3.6635678209757976L22.83499639240437,4.45L22.94928210669008,4.45L23.37785353526151,4.878571428571429L23.80642496383294,4.878571428571429L24.020710678118654,5.0928571428571425L24.663567820975796,5.0928571428571425L25.53535533905933,5.964644660940673L25.46464466094067,6.035355339059327L24.62214646473849,5.192857142857142L23.979289321881346,5.192857142857142L23.76500360759563,4.978571428571429L23.336432179024204,4.978571428571429L22.907860750452773,4.55L22.73499639240437,4.55L21.87785353526151,5.407142857142857L21.663567820975796,5.407142857142857L21.03535533905933,6.035355339059327L20.96464466094067,5.964644660940673L21.62214646473849,5.307142857142857L21.836432179024204,5.307142857142857L22.64357503616706,4.5L21.407860750452773,3.2642857142857142L21.19357503616706,3.2642857142857142L20.96464466094067,3.0353553390593273L21.03535533905933,2.9646446609406727L21.23499639240437,3.1642857142857146L21.44928210669008,3.1642857142857146z" stroke="none"/><path d="M22.714285714285715,10.000717893309915L25.050717893309915,7.664285714285715L25.26500360759563,7.664285714285715L25.46464466094067,7.464644660940673L25.53535533905933,7.535355339059327L25.30642496383294,7.764285714285714L25.092139249547223,7.764285714285714L22.78499639240437,10.07142857142857L23.592139249547223,10.878571428571426L25.94928210669008,10.878571428571426L27.03535533905933,11.964644660940673L26.96464466094067,12.035355339059327L25.907860750452773,10.978571428571428L23.550717893309915,10.978571428571428L22.714285714285715,10.142139249547224L21.264285714285716,11.592139249547223L21.264285714285716,11.806424963832939L21.03535533905933,12.035355339059327L20.96464466094067,11.964644660940673L21.164285714285715,11.76500360759563L21.164285714285715,11.550717893309915L22.64357503616706,10.07142857142857L22.479289321881346,9.907142857142858L22.26500360759563,9.907142857142858L22.05071789330992,9.692857142857143L21.836432179024204,9.692857142857143L21.62214646473849,9.478571428571428L19.479289321881346,9.478571428571428L19.26500360759563,9.264285714285716L19.05071789330992,9.264285714285716L18.836432179024204,9.05L18,9.05L18,8.95L18.87785353526151,8.95L19.092139249547227,9.164285714285715L19.30642496383294,9.164285714285715L19.520710678118654,9.378571428571426L21.663567820975796,9.378571428571426L21.87785353526151,9.592857142857142L22.092139249547227,9.592857142857142L22.30642496383294,9.807142857142857L22.520710678118654,9.807142857142857z" stroke="none"/><path d="M22.5,5.95L22.5,6.05L22.30642496383294,6.05L22.092139249547227,6.264285714285714L21.663567820975796,6.264285714285714L21.44928210669008,6.478571428571428L20.55071789330992,6.478571428571428L20.307142857142857,6.234996392404369L20.307142857142857,5.336432179024202L20.95,4.69357503616706L20.95,4.5L21.05,4.5L21.05,4.734996392404369L20.40714285714286,5.3778535352615116L20.40714285714286,6.19357503616706L20.592139249547227,6.378571428571428L21.407860750452773,6.378571428571428L21.62214646473849,6.164285714285715L22.05071789330992,6.164285714285715L22.26500360759563,5.95z" stroke="none"/><path d="M25.46464466094067,3.0353553390593273L25.53535533905933,2.9646446609406727L27.03535533905933,4.464644660940673L26.96464466094067,4.535355339059327z" stroke="none"/><path d="M10.464644660940673,9.035355339059327L10.535355339059327,8.964644660940673L12.035355339059327,10.464644660940673L11.964644660940673,10.535355339059327z" stroke="none"/><path d="M3,3.05L3,2.95L3.449282106690083,2.95L3.877853535261512,3.3785714285714286L5.122146464738488,3.3785714285714286L5.336432179024202,3.1642857142857146L5.550717893309916,3.1642857142857146L5.765003607595631,2.95L6,2.95L6,3.05L5.80642496383294,3.05L5.592139249547226,3.2642857142857142L5.3778535352615116,3.2642857142857142L5.163567820975797,3.478571428571428L3.8364321790242024,3.478571428571428L3.4078607504527736,3.05z" stroke="none"/><path d="M26.95,10.5L27.05,10.5L27.05,11.122146464738488L27.478571428571428,11.550717893309915L27.478571428571428,12.449282106690081L27.23499639240437,12.692857142857143L25.26500360759563,12.692857142857143L25.050717893309915,12.478571428571428L24.62214646473849,12.478571428571428L24.19357503616706,12.05L24,12.05L24,11.95L24.23499639240437,11.95L24.663567820975796,12.378571428571426L25.092139249547223,12.378571428571426L25.30642496383294,12.592857142857142L27.19357503616706,12.592857142857142L27.378571428571426,12.407860750452773L27.378571428571426,11.592139249547223L26.95,11.163567820975796z" stroke="none"/><path d="M6.035355339059327,6.035355339059327L5.964644660940673,5.964644660940673L6.378571428571428,5.550717893309916L6.378571428571428,3.4078607504527736L6.5928571428571425,3.1935750361670596L6.5928571428571425,2.8064249638329404L6.407860750452773,2.6214285714285714L5.592139249547226,2.6214285714285714L5.3778535352615116,2.8357142857142854L5.163567820975797,2.8357142857142854L4.949282106690084,3.05L4.5,3.05L4.5,2.95L4.907860750452774,2.95L5.122146464738488,2.7357142857142858L5.336432179024202,2.7357142857142858L5.550717893309916,2.521428571428572L6.449282106690083,2.521428571428572L6.692857142857142,2.765003607595631L6.692857142857142,3.234996392404369L6.478571428571428,3.449282106690083L6.478571428571428,5.592139249547226z" stroke="none"/><path d="M26.95,9L27.05,9L27.05,9.407860750452773L27.478571428571428,9.836432179024204L27.478571428571428,11.122146464738488L27.692857142857143,11.336432179024204L27.692857142857143,12.663567820975796L27.44928210669008,12.907142857142858L24.407860750452773,12.907142857142858L24.19357503616706,12.692857142857143L23.979289321881346,12.692857142857143L23.76500360759563,12.478571428571428L23.550717893309915,12.478571428571428L23.307142857142857,12.23499639240437L23.307142857142857,11.76500360759563L23.550717893309915,11.521428571428569L24.44928210669008,11.521428571428569L24.663567820975796,11.735714285714284L25.30642496383294,11.735714285714284L25.53535533905933,11.964644660940673L25.46464466094067,12.035355339059327L25.26500360759563,11.835714285714285L24.62214646473849,11.835714285714285L24.407860750452773,11.62142857142857L23.592139249547223,11.62142857142857L23.40714285714286,11.806424963832939L23.40714285714286,12.193575036167061L23.592139249547223,12.378571428571426L23.80642496383294,12.378571428571426L24.020710678118654,12.592857142857142L24.23499639240437,12.592857142857142L24.44928210669008,12.807142857142857L27.407860750452773,12.807142857142857L27.59285714285714,12.622146464738488L27.59285714285714,11.377853535261512L27.378571428571426,11.163567820975796L27.378571428571426,9.877853535261512L26.95,9.449282106690081z" stroke="none"/><path d="M23.95,6L24.05,6L24.05,6.234996392404369L23.835714285714285,6.449282106690083L23.835714285714285,6.8778535352615116L23.40714285714286,7.30642496383294L23.40714285714286,7.520710678118655L22.092139249547227,8.835714285714285L21.44928210669008,8.835714285714285L21.23499639240437,9.05L21,9.05L21,8.95L21.19357503616706,8.95L21.407860750452773,8.735714285714284L22.05071789330992,8.735714285714284L23.307142857142857,7.479289321881345L23.307142857142857,7.265003607595631L23.735714285714284,6.836432179024202L23.735714285714284,6.407860750452773L23.95,6.19357503616706z" stroke="none"/><path d="M15,10.45L15,10.55L14.76500360759563,10.55L14.336432179024204,10.12142857142857L14.122146464738488,10.12142857142857L13.907860750452773,9.907142857142858L13.479289321881346,9.907142857142858L13.050717893309915,9.478571428571428L12.622146464738488,9.478571428571428L12.193575036167061,9.05L11.979289321881346,9.05L11.76500360759563,8.835714285714285L11.550717893309915,8.835714285714285L11.336432179024204,8.62142857142857L10.092139249547223,8.62142857142857L9.907142857142858,8.806424963832939L9.907142857142858,9.622146464738488L10.335714285714285,10.050717893309915L10.335714285714285,10.26500360759563L10.535355339059327,10.464644660940673L10.464644660940673,10.535355339059327L10.235714285714284,10.306424963832939L10.235714285714284,10.092139249547223L9.807142857142857,9.663567820975796L9.807142857142857,8.76500360759563L10.050717893309915,8.521428571428569L11.377853535261512,8.521428571428569L11.592139249547223,8.735714285714284L11.806424963832939,8.735714285714284L12.020710678118654,8.95L12.23499639240437,8.95L12.663567820975796,9.378571428571426L13.092139249547223,9.378571428571426L13.520710678118654,9.807142857142857L13.949282106690081,9.807142857142857L14.163567820975796,10.021428571428569L14.377853535261512,10.021428571428569L14.806424963832939,10.45z" stroke="none"/><path d="M26.96464466094067,5.964644660940673L27.03535533905933,6.035355339059327L26.62142857142857,6.449282106690083L26.62142857142857,6.8778535352615116L26.192857142857143,7.30642496383294L26.192857142857143,8.163567820975796L25.978571428571428,8.377853535261512L25.978571428571428,9.663567820975796L25.55,10.092139249547223L25.55,10.5L25.45,10.5L25.45,10.050717893309915L25.878571428571426,9.622146464738488L25.878571428571426,8.336432179024204L26.09285714285714,8.122146464738488L26.09285714285714,7.265003607595631L26.52142857142857,6.836432179024202L26.52142857142857,6.407860750452773z" stroke="none"/><path d="M22.5,11.95L22.5,12.05L21.87785353526151,12.05L21.44928210669008,12.478571428571428L20.55071789330992,12.478571428571428L18.836432179024204,10.764285714285716L18.19357503616706,10.764285714285716L17.96464466094067,10.535355339059327L18.03535533905933,10.464644660940673L18.23499639240437,10.664285714285715L18.87785353526151,10.664285714285715L20.592139249547227,12.378571428571426L21.407860750452773,12.378571428571426L21.836432179024204,11.95z" stroke="none"/><path d="M9,2.95L9,3.05L8.806424963832939,3.05L8.592139249547223,3.2642857142857142L8.377853535261512,3.2642857142857142L7.949282106690083,3.6928571428571426L7.092139249547226,3.6928571428571426L6.692857142857142,4.092139249547226L6.692857142857142,6.234996392404369L6.449282106690083,6.478571428571428L5.550717893309916,6.478571428571428L5.307142857142857,6.234996392404369L5.307142857142857,5.80642496383294L4.878571428571429,5.3778535352615116L4.878571428571429,5.163567820975797L4.45,4.734996392404369L4.45,4.5L4.55,4.5L4.55,4.69357503616706L4.978571428571429,5.122146464738488L4.978571428571429,5.336432179024202L5.407142857142857,5.765003607595631L5.407142857142857,6.19357503616706L5.592139249547226,6.378571428571428L6.407860750452773,6.378571428571428L6.5928571428571425,6.19357503616706L6.5928571428571425,4.050717893309916L7.050717893309916,3.592857142857143L7.907860750452773,3.592857142857143L8.336432179024204,3.1642857142857146L8.550717893309915,3.1642857142857146L8.76500360759563,2.95z" stroke="none"/><path d="M3,9.05L3,8.95L3.6635678209757976,8.95L4.30642496383294,9.592857142857142L4.734996392404369,9.592857142857142L5.163567820975797,10.021428571428569L6.449282106690083,10.021428571428569L6.8778535352615116,10.45L7.5,10.45L7.5,10.55L6.836432179024202,10.55L6.407860750452773,10.12142857142857L5.122146464738488,10.12142857142857L4.69357503616706,9.692857142857143L4.265003607595631,9.692857142857143L3.622146464738488,9.05z" stroke="none"/><path d="M9,12.05L9,11.95L12.23499639240437,11.95L12.663567820975796,12.378571428571426L16.907860750452773,12.378571428571426L17.09285714285714,12.193575036167061L17.09285714285714,12.020710678118654L16.878571428571426,11.806424963832939L16.878571428571426,11.592139249547223L16.235714285714284,10.949282106690081L16.235714285714284,10.73499639240437L16.02142857142857,10.520710678118654L16.02142857142857,9.877853535261512L15.807142857142857,9.663567820975796L15.807142857142857,9.020710678118654L15.407860750452773,8.62142857142857L14.76500360759563,8.62142857142857L14.550717893309915,8.407142857142858L13.907860750452773,8.407142857142858L13.479289321881346,7.978571428571428L13.050717893309915,7.978571428571428L12.836432179024204,7.764285714285714L12.407860750452773,7.764285714285714L12.193575036167061,7.55L12,7.55L12,7.45L12.23499639240437,7.45L12.449282106690081,7.664285714285715L12.877853535261512,7.664285714285715L13.092139249547223,7.878571428571428L13.520710678118654,7.878571428571428L13.949282106690081,8.307142857142857L14.592139249547223,8.307142857142857L14.806424963832939,8.521428571428569L15.449282106690081,8.521428571428569L15.907142857142858,8.979289321881346L15.907142857142858,9.622146464738488L16.12142857142857,9.836432179024204L16.12142857142857,10.479289321881346L16.335714285714285,10.693575036167061L16.335714285714285,10.907860750452773L16.978571428571428,11.550717893309915L16.978571428571428,11.76500360759563L17.192857142857143,11.979289321881346L17.192857142857143,12.23499639240437L16.94928210669008,12.478571428571428L12.622146464738488,12.478571428571428L12.193575036167061,12.05z" stroke="none"/><path d="M7.5,2.95L7.5,3.05L7.265003607595631,3.05L6.622146464738488,2.407142857142857L2.8064249638329404,2.407142857142857L2.6214285714285714,2.5921392495472264L2.6214285714285714,4.265003607595631L2.8357142857142854,4.479289321881345L2.8357142857142854,5.765003607595631L3.0353553390593273,5.964644660940673L2.9646446609406727,6.035355339059327L2.7357142857142858,5.80642496383294L2.7357142857142858,4.520710678118655L2.521428571428572,4.30642496383294L2.521428571428572,2.550717893309917L2.765003607595631,2.3071428571428574L6.663567820975797,2.3071428571428574L7.30642496383294,2.95z" stroke="none"/><path d="M4.464644660940673,7.464644660940673L4.535355339059327,7.535355339059327L4.30642496383294,7.764285714285714L3.6635678209757976,7.764285714285714L3.449282106690083,7.978571428571428L3.234996392404369,7.978571428571428L2.6214285714285714,8.592139249547223L2.6214285714285714,9.407860750452773L3.05,9.836432179024204L3.05,10.26500360759563L3.2642857142857142,10.479289321881346L3.2642857142857142,10.907860750452773L3.478571428571428,11.122146464738488L3.478571428571428,11.336432179024204L3.6928571428571426,11.550717893309915L3.6928571428571426,11.76500360759563L3.907142857142857,11.979289321881346L3.907142857142857,12.193575036167061L4.092139249547226,12.378571428571426L6.622146464738488,12.378571428571426L6.836432179024202,12.164285714285715L7.265003607595631,12.164285714285715L7.464644660940673,11.964644660940673L7.535355339059327,12.035355339059327L7.30642496383294,12.264285714285716L6.8778535352615116,12.264285714285716L6.663567820975797,12.478571428571428L4.050717893309916,12.478571428571428L3.8071428571428574,12.23499639240437L3.8071428571428574,12.020710678118654L3.592857142857143,11.806424963832939L3.592857142857143,11.592139249547223L3.3785714285714286,11.377853535261512L3.3785714285714286,11.163567820975796L3.1642857142857146,10.949282106690081L3.1642857142857146,10.520710678118654L2.95,10.306424963832939L2.95,9.877853535261512L2.521428571428572,9.449282106690081L2.521428571428572,8.550717893309915L3.1935750361670596,7.878571428571428L3.4078607504527736,7.878571428571428L3.622146464738488,7.664285714285715L4.265003607595631,7.664285714285715z" stroke="none"/><path d="M12,6.05L12,5.95L14.163567820975796,5.95L14.592139249547223,6.378571428571428L17.12214646473849,6.378571428571428L17.55071789330992,5.95L18,5.95L18,6.05L17.592139249547227,6.05L17.163567820975796,6.478571428571428L14.550717893309915,6.478571428571428L14.122146464738488,6.05z" stroke="none"/><path d="M3.0353553390593273,7.535355339059327L2.9646446609406727,7.464644660940673L3.1935750361670596,7.235714285714286L3.4078607504527736,7.235714285714286L3.622146464738488,7.021428571428571L8.592139249547223,7.021428571428571L9.035355339059327,7.464644660940673L8.964644660940673,7.535355339059327L8.550717893309915,7.121428571428571L3.6635678209757976,7.121428571428571L3.449282106690083,7.335714285714285L3.234996392404369,7.335714285714285z" stroke="none"/><path d="M4.5,5.95L4.5,6.05L4.092139249547226,6.05L3.449282106690083,6.692857142857142L3.020710678118655,6.692857142857142L2.6214285714285714,7.092139249547226L2.6214285714285714,7.734996392404369L2.407142857142857,7.949282106690083L2.407142857142857,10.907860750452773L3.6928571428571426,12.193575036167061L3.6928571428571426,12.407860750452773L3.877853535261512,12.592857142857142L17.12214646473849,12.592857142857142L17.307142857142857,12.407860750452773L17.307142857142857,11.806424963832939L17.09285714285714,11.592139249547223L17.09285714285714,11.377853535261512L16.45,10.73499639240437L16.45,10.306424963832939L16.235714285714284,10.092139249547223L16.235714285714284,9.663567820975796L16.02142857142857,9.449282106690081L16.02142857142857,8.806424963832939L15.622146464738488,8.407142857142858L15.407860750452773,8.407142857142858L15.193575036167061,8.192857142857143L14.336432179024204,8.192857142857143L13.907860750452773,7.764285714285714L13.693575036167061,7.764285714285714L13.479289321881346,7.55L12.836432179024204,7.55L12.407860750452773,7.121428571428571L11.592139249547223,7.121428571428571L11.377853535261512,7.335714285714285L10.73499639240437,7.335714285714285L10.535355339059327,7.535355339059327L10.464644660940673,7.464644660940673L10.693575036167061,7.235714285714286L11.336432179024204,7.235714285714286L11.550717893309915,7.021428571428571L12.449282106690081,7.021428571428571L12.877853535261512,7.45L13.520710678118654,7.45L13.73499639240437,7.664285714285715L13.949282106690081,7.664285714285715L14.377853535261512,8.092857142857142L15.23499639240437,8.092857142857142L15.449282106690081,8.307142857142857L15.663567820975796,8.307142857142857L16.12142857142857,8.76500360759563L16.12142857142857,9.407860750452773L16.335714285714285,9.622146464738488L16.335714285714285,10.050717893309915L16.55,10.26500360759563L16.55,10.693575036167061L17.192857142857143,11.336432179024204L17.192857142857143,11.550717893309915L17.40714285714286,11.76500360759563L17.40714285714286,12.449282106690081L17.163567820975796,12.692857142857143L3.8364321790242024,12.692857142857143L3.592857142857143,12.449282106690081L3.592857142857143,12.23499639240437L2.3071428571428574,10.949282106690081L2.3071428571428574,7.907860750452773L2.521428571428572,7.69357503616706L2.521428571428572,7.050717893309916L2.979289321881345,6.5928571428571425L3.4078607504527736,6.5928571428571425L4.050717893309916,5.95z" stroke="none"/><path d="M19.55,6L19.45,6L19.45,5.550717893309916L19.664285714285715,5.336432179024202L19.664285714285715,5.122146464738488L19.878571428571426,4.907860750452774L19.878571428571426,4.050717893309916L20.09285714285714,3.8364321790242024L20.09285714285714,3.622146464738488L20.307142857142857,3.4078607504527736L20.307142857142857,2.765003607595631L20.55071789330992,2.521428571428572L24.44928210669008,2.521428571428572L25.12142857142857,3.1935750361670596L25.12142857142857,3.4078607504527736L25.335714285714285,3.622146464738488L25.335714285714285,4.050717893309916L25.764285714285716,4.479289321881345L25.764285714285716,5.122146464738488L25.978571428571428,5.336432179024202L25.978571428571428,7.949282106690083L24.692857142857143,9.23499639240437L24.692857142857143,9.663567820975796L24.05,10.306424963832939L24.05,10.5L23.95,10.5L23.95,10.26500360759563L24.59285714285714,9.622146464738488L24.59285714285714,9.193575036167061L25.878571428571426,7.907860750452773L25.878571428571426,5.3778535352615116L25.664285714285715,5.163567820975797L25.664285714285715,4.520710678118655L25.235714285714284,4.092139249547226L25.235714285714284,3.6635678209757976L25.02142857142857,3.449282106690083L25.02142857142857,3.234996392404369L24.407860750452773,2.6214285714285714L20.592139249547227,2.6214285714285714L20.40714285714286,2.8064249638329404L20.40714285714286,3.449282106690083L20.192857142857143,3.6635678209757976L20.192857142857143,3.877853535261512L19.978571428571428,4.092139249547226L19.978571428571428,4.949282106690084L19.764285714285716,5.163567820975797L19.764285714285716,5.3778535352615116L19.55,5.592139249547226z" stroke="none"/><path d="M6,12.05L6,11.95L6.407860750452773,11.95L6.622146464738488,11.735714285714284L6.836432179024202,11.735714285714284L7.050717893309916,11.521428571428569L12.663567820975796,11.521428571428569L12.877853535261512,11.735714285714284L13.092139249547223,11.735714285714284L13.306424963832939,11.95L13.5,11.95L13.5,12.05L13.26500360759563,12.05L13.050717893309915,11.835714285714285L12.836432179024204,11.835714285714285L12.622146464738488,11.62142857142857L7.092139249547226,11.62142857142857L6.8778535352615116,11.835714285714285L6.663567820975797,11.835714285714285L6.449282106690083,12.05z" stroke="none"/><path d="M10.535355339059327,3.0353553390593273L10.464644660940673,2.9646446609406727L10.907860750452773,2.521428571428572L11.122146464738488,2.521428571428572L11.550717893309915,2.092857142857143L19.092139249547227,2.092857142857143L19.30642496383294,2.3071428571428574L19.73499639240437,2.3071428571428574L19.978571428571428,2.550717893309917L19.978571428571428,3.449282106690083L19.73499639240437,3.6928571428571426L19.30642496383294,3.6928571428571426L19.092139249547227,3.907142857142857L18.87785353526151,3.907142857142857L18.44928210669008,4.335714285714285L18.23499639240437,4.335714285714285L18.03535533905933,4.535355339059327L17.96464466094067,4.464644660940673L18.19357503616706,4.235714285714286L18.407860750452773,4.235714285714286L18.836432179024204,3.8071428571428574L19.05071789330992,3.8071428571428574L19.26500360759563,3.592857142857143L19.69357503616706,3.592857142857143L19.878571428571426,3.4078607504527736L19.878571428571426,2.5921392495472264L19.69357503616706,2.407142857142857L19.26500360759563,2.407142857142857L19.05071789330992,2.1928571428571426L11.592139249547223,2.1928571428571426L11.163567820975796,2.6214285714285714L10.949282106690081,2.6214285714285714z" stroke="none"/><path d="M19.5,7.45L19.5,7.55L16.050717893309915,7.55L15.622146464738488,7.121428571428571L12.836432179024204,7.121428571428571L12.622146464738488,6.907142857142857L11.979289321881346,6.907142857142857L11.521428571428569,6.449282106690083L11.521428571428569,5.336432179024202L11.735714285714284,5.122146464738488L11.735714285714284,4.907860750452774L11.95,4.69357503616706L11.95,4.5L12.05,4.5L12.05,4.734996392404369L11.835714285714285,4.949282106690084L11.835714285714285,5.163567820975797L11.62142857142857,5.3778535352615116L11.62142857142857,6.407860750452773L12.020710678118654,6.807142857142857L12.663567820975796,6.807142857142857L12.877853535261512,7.021428571428571L15.663567820975796,7.021428571428571L16.092139249547223,7.45z" stroke="none"/><path d="M26.95,3L27.05,3L27.05,3.622146464738488L27.478571428571428,4.050717893309916L27.478571428571428,9.407860750452773L27.692857142857143,9.622146464738488L27.692857142857143,10.693575036167061L27.90714285714286,10.907860750452773L27.90714285714286,12.877853535261512L27.663567820975796,13.12142857142857L20.55071789330992,13.12142857142857L20.336432179024204,12.907142857142858L20.12214646473849,12.907142857142858L18.836432179024204,11.62142857142857L18.62214646473849,11.62142857142857L18.407860750452773,11.407142857142858L17.979289321881346,11.407142857142858L17.521428571428572,10.949282106690081L17.521428571428572,10.306424963832939L17.307142857142857,10.092139249547223L17.307142857142857,9.877853535261512L17.09285714285714,9.663567820975796L17.09285714285714,9.449282106690081L15.193575036167061,7.55L15,7.55L15,7.45L15.23499639240437,7.45L17.192857142857143,9.407860750452773L17.192857142857143,9.622146464738488L17.40714285714286,9.836432179024204L17.40714285714286,10.050717893309915L17.621428571428574,10.26500360759563L17.621428571428574,10.907860750452773L18.020710678118654,11.307142857142857L18.44928210669008,11.307142857142857L18.663567820975796,11.521428571428569L18.87785353526151,11.521428571428569L20.163567820975796,12.807142857142857L20.37785353526151,12.807142857142857L20.592139249547227,13.021428571428569L27.62214646473849,13.021428571428569L27.807142857142857,12.836432179024204L27.807142857142857,10.949282106690081L27.59285714285714,10.73499639240437L27.59285714285714,9.663567820975796L27.378571428571426,9.449282106690081L27.378571428571426,4.092139249547226L26.95,3.6635678209757976z" stroke="none"/></svg>