<svg version="1.1" width="30" height="15" xmlns="http://www.w3.org/2000/svg"><path d="M14.307142857142857,7.45L14.307142857142857,7.265003607595631L14.521428571428569,7.050717893309916L14.521428571428569,6.836432179024202L14.735714285714284,6.622146464738488L14.735714285714284,6.407860750452773L14.95,6.19357503616706L14.95,6L15.05,6L15.05,6.234996392404369L14.835714285714285,6.449282106690083L14.835714285714285,6.663567820975797L14.62142857142857,6.8778535352615116L14.62142857142857,7.092139249547226L14.407142857142858,7.30642496383294L14.407142857142858,9.407860750452773L14.835714285714285,9.836432179024204L14.835714285714285,10.26500360759563L15.035355339059327,10.464644660940673L14.964644660940673,10.535355339059327L14.735714285714284,10.306424963832939L14.735714285714284,9.877853535261512L14.307142857142857,9.449282106690081L14.307142857142857,7.55L14.122146464738488,7.55L13.878571428571426,7.30642496383294L13.878571428571426,6.8778535352615116L13.45,6.449282106690083L13.45,6L13.55,6L13.55,6.407860750452773L13.978571428571428,6.836432179024202L13.978571428571428,7.265003607595631L14.163567820975796,7.45z" stroke="none"/><path d="M19.26500360759563,8.307142857142857L19.69357503616706,7.878571428571428L19.907860750452773,7.878571428571428L20.521428571428572,7.265003607595631L20.521428571428572,7.050717893309916L20.979289321881346,6.5928571428571425L21.62214646473849,6.5928571428571425L22.05071789330992,6.164285714285715L22.26500360759563,6.164285714285715L22.46464466094067,5.964644660940673L22.53535533905933,6.035355339059327L22.30642496383294,6.264285714285714L22.092139249547227,6.264285714285714L21.663567820975796,6.692857142857142L21.020710678118654,6.692857142857142L20.621428571428574,7.092139249547226L20.621428571428574,7.30642496383294L19.94928210669008,7.978571428571428L19.73499639240437,7.978571428571428L19.30642496383294,8.407142857142858L18.478571428571428,8.407142857142858L18.478571428571428,9.449282106690081L18.020710678118654,9.907142857142858L17.37785353526151,9.907142857142858L16.73499639240437,10.55L16.5,10.55L16.5,10.45L16.69357503616706,10.45L17.336432179024204,9.807142857142857L17.979289321881346,9.807142857142857L18.378571428571426,9.407860750452773L18.378571428571426,8.407142857142858L18.020710678118654,8.407142857142858L17.80642496383294,8.62142857142857L17.592139249547227,8.62142857142857L17.163567820975796,9.05L16.5,9.05L16.5,8.95L17.12214646473849,8.95L17.55071789330992,8.521428571428569L17.76500360759563,8.521428571428569L17.979289321881346,8.307142857142857z" stroke="none"/><path d="M8.76500360759563,6.378571428571428L8.979289321881346,6.164285714285715L9.193575036167061,6.164285714285715L9.836432179024204,5.521428571428571L11.550717893309915,5.521428571428571L11.76500360759563,5.307142857142857L13.907860750452773,5.307142857142857L14.122146464738488,5.0928571428571425L14.76500360759563,5.0928571428571425L14.979289321881346,4.878571428571429L15.407860750452773,4.878571428571429L15.622146464738488,4.664285714285715L16.26500360759563,4.664285714285715L16.46464466094067,4.464644660940673L16.53535533905933,4.535355339059327L16.30642496383294,4.764285714285714L15.663567820975796,4.764285714285714L15.449282106690081,4.978571428571429L15.020710678118654,4.978571428571429L14.806424963832939,5.192857142857142L14.163567820975796,5.192857142857142L13.949282106690081,5.407142857142857L11.806424963832939,5.407142857142857L11.592139249547223,5.621428571428571L9.877853535261512,5.621428571428571L9.23499639240437,6.264285714285714L9.020710678118654,6.264285714285714L8.806424963832939,6.478571428571428L8.407142857142858,6.478571428571428L8.407142857142858,6.663567820975797L8.163567820975796,6.907142857142857L7.734996392404369,6.907142857142857L7.520710678118655,7.121428571428571L7.092139249547226,7.121428571428571L5.3778535352615116,8.835714285714285L4.949282106690084,8.835714285714285L4.734996392404369,9.05L4.5,9.05L4.5,8.95L4.69357503616706,8.95L4.907860750452774,8.735714285714284L5.336432179024202,8.735714285714284L7.050717893309916,7.021428571428571L7.479289321881345,7.021428571428571L7.69357503616706,6.807142857142857L8.122146464738488,6.807142857142857L8.307142857142857,6.622146464738488L8.307142857142857,6.478571428571428L5.122146464738488,6.478571428571428L4.69357503616706,6.05L4.5,6.05L4.5,5.95L4.734996392404369,5.95L5.163567820975797,6.378571428571428z" stroke="none"/><path d="M13.664285714285715,8.521428571428569L13.664285714285715,8.163567820975796L13.45,7.949282106690083L13.45,7.5L13.55,7.5L13.55,7.907860750452773L13.764285714285716,8.122146464738488L13.764285714285716,8.521428571428569L13.949282106690081,8.521428571428569L14.192857142857143,8.76500360759563L14.192857142857143,11.336432179024204L14.407142857142858,11.550717893309915L14.407142857142858,12.193575036167061L14.592139249547223,12.378571428571426L19.907860750452773,12.378571428571426L20.521428571428572,11.76500360759563L20.521428571428572,11.336432179024204L20.735714285714284,11.122146464738488L20.735714285714284,10.907860750452773L20.95,10.693575036167061L20.95,10.5L21.05,10.5L21.05,10.73499639240437L20.835714285714285,10.949282106690081L20.835714285714285,11.163567820975796L20.621428571428574,11.377853535261512L20.621428571428574,11.806424963832939L19.94928210669008,12.478571428571428L14.550717893309915,12.478571428571428L14.307142857142857,12.23499639240437L14.307142857142857,11.592139249547223L14.092857142857142,11.377853535261512L14.092857142857142,8.806424963832939L13.907860750452773,8.62142857142857L13.764285714285716,8.62142857142857L13.764285714285716,8.806424963832939L13.335714285714285,9.23499639240437L13.335714285714285,9.663567820975796L13.12142857142857,9.877853535261512L13.12142857142857,10.092139249547223L12.692857142857143,10.520710678118654L12.692857142857143,10.73499639240437L12.449282106690081,10.978571428571428L11.550717893309915,10.978571428571428L10.878571428571426,10.306424963832939L10.878571428571426,10.092139249547223L10.26500360759563,9.478571428571428L10.050717893309915,9.478571428571428L9.836432179024204,9.264285714285716L9.193575036167061,9.264285714285716L8.964644660940673,9.035355339059327L9.035355339059327,8.964644660940673L9.23499639240437,9.164285714285715L9.877853535261512,9.164285714285715L10.092139249547223,9.378571428571426L10.306424963832939,9.378571428571426L10.978571428571428,10.050717893309915L10.978571428571428,10.26500360759563L11.592139249547223,10.878571428571426L12.407860750452773,10.878571428571426L12.592857142857142,10.693575036167061L12.592857142857142,10.479289321881346L13.021428571428569,10.050717893309915L13.021428571428569,9.836432179024204L13.235714285714284,9.622146464738488L13.235714285714284,9.193575036167061L13.664285714285715,8.76500360759563L13.664285714285715,8.62142857142857L13.479289321881346,8.62142857142857L13.26500360759563,8.407142857142858L13.050717893309915,8.407142857142858L12.622146464738488,7.978571428571428L12.407860750452773,7.978571428571428L11.964644660940673,7.535355339059327L12.035355339059327,7.464644660940673L12.449282106690081,7.878571428571428L12.663567820975796,7.878571428571428L13.092139249547223,8.307142857142857L13.306424963832939,8.307142857142857L13.520710678118654,8.521428571428569z" stroke="none"/><path d="M10.664285714285715,9.09357503616706L10.664285714285715,8.806424963832939L9.836432179024204,7.978571428571428L9.622146464738488,7.978571428571428L9.407860750452773,7.764285714285714L9.193575036167061,7.764285714285714L8.979289321881346,7.55L7.907860750452773,7.55L7.69357503616706,7.335714285714285L7.30642496383294,7.335714285714285L7.121428571428571,7.520710678118655L7.121428571428571,10.092139249547223L6.692857142857142,10.520710678118654L6.692857142857142,10.949282106690081L6.478571428571428,11.163567820975796L6.478571428571428,11.377853535261512L6.264285714285714,11.592139249547223L6.264285714285714,11.806424963832939L6.035355339059327,12.035355339059327L5.964644660940673,11.964644660940673L6.164285714285715,11.76500360759563L6.164285714285715,11.550717893309915L6.378571428571428,11.336432179024204L6.378571428571428,11.122146464738488L6.5928571428571425,10.907860750452773L6.5928571428571425,10.479289321881346L7.021428571428571,10.050717893309915L7.021428571428571,7.479289321881345L7.265003607595631,7.235714285714286L7.734996392404369,7.235714285714286L7.949282106690083,7.45L9.020710678118654,7.45L9.23499639240437,7.664285714285715L9.449282106690081,7.664285714285715L9.663567820975796,7.878571428571428L9.877853535261512,7.878571428571428L10.764285714285716,8.76500360759563L10.764285714285716,9.164285714285715L10.907860750452773,9.164285714285715L11.307142857142857,8.76500360759563L11.307142857142857,8.336432179024204L11.521428571428569,8.122146464738488L11.521428571428569,7.050717893309916L13.050717893309915,5.521428571428571L15.449282106690081,5.521428571428571L16.94928210669008,7.021428571428571L17.163567820975796,7.021428571428571L17.37785353526151,7.235714285714286L17.80642496383294,7.235714285714286L18.03535533905933,7.464644660940673L17.96464466094067,7.535355339059327L17.76500360759563,7.335714285714285L17.336432179024204,7.335714285714285L17.12214646473849,7.121428571428571L16.907860750452773,7.121428571428571L15.407860750452773,5.621428571428571L13.092139249547223,5.621428571428571L11.62142857142857,7.092139249547226L11.62142857142857,8.163567820975796L11.407142857142858,8.377853535261512L11.407142857142858,8.806424963832939L10.949282106690081,9.264285714285716L10.83499639240437,9.264285714285716L12.035355339059327,10.464644660940673L11.964644660940673,10.535355339059327L10.479289321881346,9.05L9.836432179024204,9.05L9.407860750452773,8.62142857142857L9.193575036167061,8.62142857142857L8.76500360759563,8.192857142857143L8.122146464738488,8.192857142857143L7.464644660940673,7.535355339059327L7.535355339059327,7.464644660940673L8.163567820975796,8.092857142857142L8.806424963832939,8.092857142857142L9.23499639240437,8.521428571428569L9.449282106690081,8.521428571428569L9.877853535261512,8.95L10.520710678118654,8.95z" stroke="none"/><path d="M21.19357503616706,9.807142857142857L23.336432179024204,7.664285714285715L23.550717893309915,7.664285714285715L23.76500360759563,7.45L24,7.45L24,7.55L23.80642496383294,7.55L23.592139249547223,7.764285714285714L23.37785353526151,7.764285714285714L21.33499639240437,9.807142857142857L21.836432179024204,9.807142857142857L22.26500360759563,9.378571428571426L24.407860750452773,9.378571428571426L24.62214646473849,9.164285714285715L26.336432179024204,9.164285714285715L26.550717893309915,8.95L27,8.95L27,9.05L26.592139249547223,9.05L26.37785353526151,9.264285714285716L24.663567820975796,9.264285714285716L24.44928210669008,9.478571428571428L22.30642496383294,9.478571428571428L21.87785353526151,9.907142857142858L21.23499639240437,9.907142857142858L21.020710678118654,10.12142857142857L20.592139249547227,10.12142857142857L20.40714285714286,10.306424963832939L20.40714285714286,10.520710678118654L20.192857142857143,10.73499639240437L20.192857142857143,11.163567820975796L19.55,11.806424963832939L19.55,12L19.45,12L19.45,11.76500360759563L20.09285714285714,11.122146464738488L20.09285714285714,10.693575036167061L20.307142857142857,10.479289321881346L20.307142857142857,10.26500360759563L20.55071789330992,10.021428571428569L20.979289321881346,10.021428571428569L21.09357503616706,9.907142857142858L20.163567820975796,9.907142857142858L19.73499639240437,10.335714285714285L18.663567820975796,10.335714285714285L18.44928210669008,10.55L17.80642496383294,10.55L16.94928210669008,11.407142857142858L16.30642496383294,11.407142857142858L15.877853535261512,11.835714285714285L15.449282106690081,11.835714285714285L15.23499639240437,12.05L15,12.05L15,11.95L15.193575036167061,11.95L15.407860750452773,11.735714285714284L15.836432179024204,11.735714285714284L16.26500360759563,11.307142857142857L16.907860750452773,11.307142857142857L17.76500360759563,10.45L18.407860750452773,10.45L18.62214646473849,10.235714285714284L19.69357503616706,10.235714285714284L20.12214646473849,9.807142857142857z" stroke="none"/><path d="M10.55,12L10.45,12L10.45,10.5L10.55,10.5z" stroke="none"/><path d="M19.53535533905933,4.535355339059327L19.46464466094067,4.464644660940673L20.96464466094067,2.9646446609406727L21.03535533905933,3.0353553390593273z" stroke="none"/><path d="M25.46464466094067,4.535355339059327L25.53535533905933,4.464644660940673L27.03535533905933,5.964644660940673L26.96464466094067,6.035355339059327z" stroke="none"/><path d="M22.5,12.05L22.5,11.95L22.94928210669008,11.95L23.37785353526151,12.378571428571426L24.62214646473849,12.378571428571426L24.836432179024204,12.164285714285715L25.050717893309915,12.164285714285715L25.26500360759563,11.95L25.5,11.95L25.5,12.05L25.30642496383294,12.05L25.092139249547223,12.264285714285716L24.87785353526151,12.264285714285716L24.663567820975796,12.478571428571428L23.336432179024204,12.478571428571428L22.907860750452773,12.05z" stroke="none"/><path d="M19.46464466094067,2.9646446609406727L19.53535533905933,3.0353553390593273L19.335714285714285,3.234996392404369L19.335714285714285,3.877853535261512L19.121428571428574,4.092139249547226L19.121428571428574,5.122146464738488L19.335714285714285,5.336432179024202L19.335714285714285,5.550717893309916L19.55,5.765003607595631L19.55,6L19.45,6L19.45,5.80642496383294L19.235714285714284,5.592139249547226L19.235714285714284,5.3778535352615116L19.021428571428572,5.163567820975797L19.021428571428572,4.050717893309916L19.235714285714284,3.8364321790242024L19.235714285714284,3.1935750361670596z" stroke="none"/><path d="M22.5,3.05L22.5,2.95L25.5,2.95L25.5,3.05z" stroke="none"/><path d="M8.964644660940673,2.9646446609406727L9.035355339059327,3.0353553390593273L8.163567820975796,3.907142857142857L7.734996392404369,3.907142857142857L7.520710678118655,4.121428571428571L6.663567820975797,4.121428571428571L6.449282106690083,4.335714285714285L6.234996392404369,4.335714285714285L6.035355339059327,4.535355339059327L5.964644660940673,4.464644660940673L6.19357503616706,4.235714285714286L6.407860750452773,4.235714285714286L6.622146464738488,4.021428571428571L7.479289321881345,4.021428571428571L7.69357503616706,3.8071428571428574L8.122146464738488,3.8071428571428574z" stroke="none"/><path d="M16.46464466094067,2.9646446609406727L16.53535533905933,3.0353553390593273L16.30642496383294,3.2642857142857142L16.092139249547223,3.2642857142857142L15.877853535261512,3.478571428571428L15.663567820975796,3.478571428571428L14.806424963832939,4.335714285714285L14.163567820975796,4.335714285714285L13.949282106690081,4.55L13.5,4.55L13.5,4.45L13.907860750452773,4.45L14.122146464738488,4.235714285714286L14.76500360759563,4.235714285714286L15.622146464738488,3.3785714285714286L15.836432179024204,3.3785714285714286L16.050717893309915,3.1642857142857146L16.26500360759563,3.1642857142857146z" stroke="none"/><path d="M2.95,4.5L3.05,4.5L3.05,4.69357503616706L3.2642857142857142,4.907860750452774L3.2642857142857142,5.122146464738488L3.478571428571428,5.336432179024202L3.478571428571428,5.550717893309916L3.6928571428571426,5.765003607595631L3.6928571428571426,6.19357503616706L3.907142857142857,6.407860750452773L3.907142857142857,6.622146464738488L4.335714285714285,7.050717893309916L4.335714285714285,7.265003607595631L4.535355339059327,7.464644660940673L4.464644660940673,7.535355339059327L4.235714285714286,7.30642496383294L4.235714285714286,7.092139249547226L3.8071428571428574,6.663567820975797L3.8071428571428574,6.449282106690083L3.592857142857143,6.234996392404369L3.592857142857143,5.80642496383294L3.3785714285714286,5.592139249547226L3.3785714285714286,5.3778535352615116L3.1642857142857146,5.163567820975797L3.1642857142857146,4.949282106690084L2.95,4.734996392404369z" stroke="none"/><path d="M3.05,12L2.95,12L2.95,11.76500360759563L3.3785714285714286,11.336432179024204L3.3785714285714286,9.23499639240437L2.95,8.806424963832939L2.95,7.5L3.05,7.5L3.05,8.76500360759563L3.478571428571428,9.193575036167061L3.478571428571428,11.377853535261512L3.05,11.806424963832939z" stroke="none"/><path d="M22.45,4.5L22.55,4.5L22.55,4.69357503616706L22.764285714285716,4.907860750452774L22.764285714285716,5.122146464738488L22.978571428571428,5.336432179024202L22.978571428571428,6.449282106690083L22.764285714285716,6.663567820975797L22.764285714285716,6.8778535352615116L22.55,7.092139249547226L22.55,7.30642496383294L21.264285714285716,8.592139249547223L21.264285714285716,8.806424963832939L21.03535533905933,9.035355339059327L20.96464466094067,8.964644660940673L21.164285714285715,8.76500360759563L21.164285714285715,8.550717893309915L22.45,7.265003607595631L22.45,7.050717893309916L22.664285714285715,6.836432179024202L22.664285714285715,6.622146464738488L22.878571428571426,6.407860750452773L22.878571428571426,5.3778535352615116L22.664285714285715,5.163567820975797L22.664285714285715,4.949282106690084L22.45,4.734996392404369z" stroke="none"/><path d="M7.5,4.45L7.5,4.55L7.30642496383294,4.55L7.092139249547226,4.764285714285714L6.663567820975797,4.764285714285714L6.449282106690083,4.978571428571429L4.907860750452774,4.978571428571429L4.69357503616706,4.764285714285714L4.479289321881345,4.764285714285714L4.050717893309916,4.335714285714285L3.8364321790242024,4.335714285714285L3.622146464738488,4.121428571428571L2.5921392495472264,4.121428571428571L2.407142857142857,4.30642496383294L2.407142857142857,5.122146464738488L2.8357142857142854,5.550717893309916L2.8357142857142854,5.765003607595631L3.0353553390593273,5.964644660940673L2.9646446609406727,6.035355339059327L2.7357142857142858,5.80642496383294L2.7357142857142858,5.592139249547226L2.3071428571428574,5.163567820975797L2.3071428571428574,4.265003607595631L2.550717893309917,4.021428571428571L3.6635678209757976,4.021428571428571L3.877853535261512,4.235714285714286L4.092139249547226,4.235714285714286L4.520710678118655,4.664285714285715L4.734996392404369,4.664285714285715L4.949282106690084,4.878571428571429L6.407860750452773,4.878571428571429L6.622146464738488,4.664285714285715L7.050717893309916,4.664285714285715L7.265003607595631,4.45z" stroke="none"/><path d="M21.03535533905933,6.035355339059327L20.96464466094067,5.964644660940673L21.164285714285715,5.765003607595631L21.164285714285715,5.336432179024202L21.59285714285714,4.907860750452774L21.59285714285714,4.479289321881345L22.05071789330992,4.021428571428571L22.94928210669008,4.021428571428571L24.90714285714286,5.979289321881345L24.90714285714286,6.19357503616706L25.12142857142857,6.407860750452773L25.12142857142857,6.622146464738488L25.335714285714285,6.836432179024202L25.335714285714285,7.265003607595631L25.53535533905933,7.464644660940673L25.46464466094067,7.535355339059327L25.235714285714284,7.30642496383294L25.235714285714284,6.8778535352615116L25.02142857142857,6.663567820975797L25.02142857142857,6.449282106690083L24.807142857142857,6.234996392404369L24.807142857142857,6.020710678118655L22.907860750452773,4.121428571428571L22.092139249547227,4.121428571428571L21.692857142857143,4.520710678118655L21.692857142857143,4.949282106690084L21.264285714285716,5.3778535352615116L21.264285714285716,5.80642496383294z" stroke="none"/><path d="M24,9.05L24,8.95L24.407860750452773,8.95L24.62214646473849,8.735714285714284L24.836432179024204,8.735714285714284L25.050717893309915,8.521428571428569L25.26500360759563,8.521428571428569L25.878571428571426,7.907860750452773L25.878571428571426,7.092139249547226L25.664285714285715,6.8778535352615116L25.664285714285715,6.663567820975797L25.235714285714284,6.234996392404369L25.235714285714284,6.020710678118655L23.12214646473849,3.907142857142857L21.87785353526151,3.907142857142857L21.44928210669008,4.335714285714285L21.23499639240437,4.335714285714285L21.03535533905933,4.535355339059327L20.96464466094067,4.464644660940673L21.19357503616706,4.235714285714286L21.407860750452773,4.235714285714286L21.836432179024204,3.8071428571428574L23.163567820975796,3.8071428571428574L25.335714285714285,5.979289321881345L25.335714285714285,6.19357503616706L25.764285714285716,6.622146464738488L25.764285714285716,6.836432179024202L25.978571428571428,7.050717893309916L25.978571428571428,7.949282106690083L25.30642496383294,8.62142857142857L25.092139249547223,8.62142857142857L24.87785353526151,8.835714285714285L24.663567820975796,8.835714285714285L24.44928210669008,9.05z" stroke="none"/><path d="M6.035355339059327,5.964644660940673L5.964644660940673,6.035355339059327L5.550717893309916,5.621428571428571L4.092139249547226,5.621428571428571L3.907142857142857,5.80642496383294L3.907142857142857,5.979289321881345L4.121428571428571,6.19357503616706L4.121428571428571,6.407860750452773L4.30642496383294,6.5928571428571425L4.520710678118655,6.5928571428571425L4.978571428571429,7.050717893309916L4.978571428571429,7.949282106690083L4.734996392404369,8.192857142857143L4.265003607595631,8.192857142857143L3.8071428571428574,7.734996392404369L3.8071428571428574,7.520710678118655L3.4078607504527736,7.121428571428571L2.5921392495472264,7.121428571428571L2.407142857142857,7.30642496383294L2.407142857142857,9.622146464738488L2.8357142857142854,10.050717893309915L2.8357142857142854,10.26500360759563L3.0353553390593273,10.464644660940673L2.9646446609406727,10.535355339059327L2.7357142857142858,10.306424963832939L2.7357142857142858,10.092139249547223L2.3071428571428574,9.663567820975796L2.3071428571428574,7.265003607595631L2.550717893309917,7.021428571428571L3.449282106690083,7.021428571428571L3.907142857142857,7.479289321881345L3.907142857142857,7.69357503616706L4.30642496383294,8.092857142857142L4.69357503616706,8.092857142857142L4.878571428571429,7.907860750452773L4.878571428571429,7.092139249547226L4.479289321881345,6.692857142857142L4.265003607595631,6.692857142857142L4.021428571428571,6.449282106690083L4.021428571428571,6.234996392404369L3.8071428571428574,6.020710678118655L3.8071428571428574,5.765003607595631L4.050717893309916,5.521428571428571L5.592139249547226,5.521428571428571z" stroke="none"/><path d="M13.5,3.05L13.5,2.95L14.122146464738488,2.95L14.550717893309915,2.521428571428572L16.94928210669008,2.521428571428572L17.192857142857143,2.765003607595631L17.192857142857143,4.907860750452774L17.621428571428574,5.336432179024202L17.621428571428574,5.550717893309916L18.03535533905933,5.964644660940673L17.96464466094067,6.035355339059327L17.521428571428572,5.592139249547226L17.521428571428572,5.3778535352615116L17.09285714285714,4.949282106690084L17.09285714285714,2.8064249638329404L16.907860750452773,2.6214285714285714L14.592139249547223,2.6214285714285714L14.163567820975796,3.05z" stroke="none"/><path d="M20.96464466094067,7.464644660940673L21.03535533905933,7.535355339059327L19.092139249547227,9.478571428571428L18.87785353526151,9.478571428571428L18.23499639240437,10.12142857142857L18.020710678118654,10.12142857142857L17.80642496383294,10.335714285714285L17.592139249547227,10.335714285714285L16.94928210669008,10.978571428571428L16.050717893309915,10.978571428571428L15.807142857142857,10.73499639240437L15.807142857142857,10.306424963832939L15.378571428571426,9.877853535261512L15.378571428571426,9.663567820975796L14.95,9.23499639240437L14.95,9L15.05,9L15.05,9.193575036167061L15.478571428571428,9.622146464738488L15.478571428571428,9.836432179024204L15.907142857142858,10.26500360759563L15.907142857142858,10.693575036167061L16.092139249547223,10.878571428571426L16.907860750452773,10.878571428571426L17.55071789330992,10.235714285714284L17.76500360759563,10.235714285714284L17.979289321881346,10.021428571428569L18.19357503616706,10.021428571428569L18.836432179024204,9.378571428571426L19.05071789330992,9.378571428571426z" stroke="none"/><path d="M21.03535533905933,12.035355339059327L20.96464466094067,11.964644660940673L21.19357503616706,11.735714285714284L21.62214646473849,11.735714285714284L21.836432179024204,11.521428571428569L22.479289321881346,11.521428571428569L22.69357503616706,11.307142857142857L22.907860750452773,11.307142857142857L23.12214646473849,11.092857142857142L23.550717893309915,11.092857142857142L23.979289321881346,10.664285714285715L24.62214646473849,10.664285714285715L24.836432179024204,10.45L25.26500360759563,10.45L25.69357503616706,10.021428571428569L26.12214646473849,10.021428571428569L26.336432179024204,9.807142857142857L26.979289321881346,9.807142857142857L27.378571428571426,9.407860750452773L27.378571428571426,8.592139249547223L27.164285714285715,8.377853535261512L27.164285714285715,7.734996392404369L26.96464466094067,7.535355339059327L27.03535533905933,7.464644660940673L27.264285714285716,7.69357503616706L27.264285714285716,8.336432179024204L27.478571428571428,8.550717893309915L27.478571428571428,9.449282106690081L27.020710678118654,9.907142857142858L26.37785353526151,9.907142857142858L26.163567820975796,10.12142857142857L25.73499639240437,10.12142857142857L25.30642496383294,10.55L24.87785353526151,10.55L24.663567820975796,10.764285714285716L24.020710678118654,10.764285714285716L23.592139249547223,11.192857142857143L23.163567820975796,11.192857142857143L22.94928210669008,11.407142857142858L22.73499639240437,11.407142857142858L22.520710678118654,11.62142857142857L21.87785353526151,11.62142857142857L21.663567820975796,11.835714285714285L21.23499639240437,11.835714285714285z" stroke="none"/><path d="M10.5,3.05L10.5,2.95L11.122146464738488,2.95L11.336432179024204,2.7357142857142858L11.550717893309915,2.7357142857142858L11.76500360759563,2.521428571428572L11.979289321881346,2.521428571428572L12.193575036167061,2.3071428571428574L17.163567820975796,2.3071428571428574L17.80642496383294,2.95L18,2.95L18,3.05L17.76500360759563,3.05L17.12214646473849,2.407142857142857L12.23499639240437,2.407142857142857L12.020710678118654,2.6214285714285714L11.806424963832939,2.6214285714285714L11.592139249547223,2.8357142857142854L11.377853535261512,2.8357142857142854L11.163567820975796,3.05z" stroke="none"/><path d="M27.03535533905933,10.535355339059327L26.96464466094067,10.464644660940673L27.59285714285714,9.836432179024204L27.59285714285714,7.30642496383294L26.76500360759563,6.478571428571428L26.550717893309915,6.478571428571428L25.479289321881346,5.407142857142857L25.26500360759563,5.407142857142857L24.836432179024204,4.978571428571429L24.62214646473849,4.978571428571429L23.336432179024204,3.6928571428571426L21.23499639240437,3.6928571428571426L21.020710678118654,3.907142857142857L20.80642496383294,3.907142857142857L20.621428571428574,4.092139249547226L20.621428571428574,5.3778535352615116L20.40714285714286,5.592139249547226L20.40714285714286,5.80642496383294L19.978571428571428,6.234996392404369L19.978571428571428,6.449282106690083L19.764285714285716,6.663567820975797L19.764285714285716,7.30642496383294L19.53535533905933,7.535355339059327L19.46464466094067,7.464644660940673L19.664285714285715,7.265003607595631L19.664285714285715,6.622146464738488L19.878571428571426,6.407860750452773L19.878571428571426,6.19357503616706L20.307142857142857,5.765003607595631L20.307142857142857,5.550717893309916L20.521428571428572,5.336432179024202L20.521428571428572,4.050717893309916L20.76500360759563,3.8071428571428574L20.979289321881346,3.8071428571428574L21.19357503616706,3.592857142857143L23.37785353526151,3.592857142857143L24.663567820975796,4.878571428571429L24.87785353526151,4.878571428571429L25.30642496383294,5.307142857142857L25.520710678118654,5.307142857142857L26.592139249547223,6.378571428571428L26.80642496383294,6.378571428571428L27.692857142857143,7.265003607595631L27.692857142857143,9.877853535261512z" stroke="none"/><path d="M24,12.05L24,11.95L24.407860750452773,11.95L24.62214646473849,11.735714285714284L24.836432179024204,11.735714285714284L25.050717893309915,11.521428571428569L25.94928210669008,11.521428571428569L26.192857142857143,11.76500360759563L26.192857142857143,12.23499639240437L25.94928210669008,12.478571428571428L25.092139249547223,12.478571428571428L24.87785353526151,12.692857142857143L14.336432179024204,12.692857142857143L14.092857142857142,12.449282106690081L14.092857142857142,11.806424963832939L13.664285714285715,11.377853535261512L13.664285714285715,10.949282106690081L13.45,10.73499639240437L13.45,10.5L13.55,10.5L13.55,10.693575036167061L13.764285714285716,10.907860750452773L13.764285714285716,11.336432179024204L14.192857142857143,11.76500360759563L14.192857142857143,12.407860750452773L14.377853535261512,12.592857142857142L24.836432179024204,12.592857142857142L25.050717893309915,12.378571428571426L25.907860750452773,12.378571428571426L26.09285714285714,12.193575036167061L26.09285714285714,11.806424963832939L25.907860750452773,11.62142857142857L25.092139249547223,11.62142857142857L24.87785353526151,11.835714285714285L24.663567820975796,11.835714285714285L24.44928210669008,12.05z" stroke="none"/><path d="M18,8.95L18,9.05L17.80642496383294,9.05L17.592139249547227,9.264285714285716L17.163567820975796,9.264285714285716L16.94928210669008,9.478571428571428L16.050717893309915,9.478571428571428L15.807142857142857,9.23499639240437L15.807142857142857,8.76500360759563L16.050717893309915,8.521428571428569L17.12214646473849,8.521428571428569L17.336432179024204,8.307142857142857L17.55071789330992,8.307142857142857L17.76500360759563,8.092857142857142L18.19357503616706,8.092857142857142L18.378571428571426,7.907860750452773L18.378571428571426,7.092139249547226L17.76500360759563,6.478571428571428L17.55071789330992,6.478571428571428L16.878571428571426,5.80642496383294L16.878571428571426,4.092139249547226L16.69357503616706,3.907142857142857L16.092139249547223,3.907142857142857L15.877853535261512,4.121428571428571L15.663567820975796,4.121428571428571L15.449282106690081,4.335714285714285L15.23499639240437,4.335714285714285L15.020710678118654,4.55L14.592139249547223,4.55L14.377853535261512,4.764285714285714L14.163567820975796,4.764285714285714L13.949282106690081,4.978571428571429L9.663567820975796,4.978571428571429L9.23499639240437,5.407142857142857L8.592139249547223,5.407142857142857L8.377853535261512,5.621428571428571L8.163567820975796,5.621428571428571L7.949282106690083,5.835714285714285L7.734996392404369,5.835714285714285L7.535355339059327,6.035355339059327L7.464644660940673,5.964644660940673L7.69357503616706,5.735714285714286L7.907860750452773,5.735714285714286L8.122146464738488,5.521428571428571L8.336432179024204,5.521428571428571L8.550717893309915,5.307142857142857L9.193575036167061,5.307142857142857L9.622146464738488,4.878571428571429L13.907860750452773,4.878571428571429L14.122146464738488,4.664285714285715L14.336432179024204,4.664285714285715L14.550717893309915,4.45L14.979289321881346,4.45L15.193575036167061,4.235714285714286L15.407860750452773,4.235714285714286L15.622146464738488,4.021428571428571L15.836432179024204,4.021428571428571L16.050717893309915,3.8071428571428574L16.73499639240437,3.8071428571428574L16.978571428571428,4.050717893309916L16.978571428571428,5.765003607595631L17.592139249547227,6.378571428571428L17.80642496383294,6.378571428571428L18.478571428571428,7.050717893309916L18.478571428571428,7.949282106690083L18.23499639240437,8.192857142857143L17.80642496383294,8.192857142857143L17.592139249547227,8.407142857142858L17.37785353526151,8.407142857142858L17.163567820975796,8.62142857142857L16.092139249547223,8.62142857142857L15.907142857142858,8.806424963832939L15.907142857142858,9.193575036167061L16.092139249547223,9.378571428571426L16.907860750452773,9.378571428571426L17.12214646473849,9.164285714285715L17.55071789330992,9.164285714285715L17.76500360759563,8.95z" stroke="none"/><path d="M14.964644660940673,2.9646446609406727L15.035355339059327,3.0353553390593273L14.806424963832939,3.2642857142857142L14.592139249547223,3.2642857142857142L14.377853535261512,3.478571428571428L10.050717893309915,3.478571428571428L9.807142857142857,3.234996392404369L9.807142857142857,2.765003607595631L10.050717893309915,2.521428571428572L11.336432179024204,2.521428571428572L11.76500360759563,2.092857142857143L25.30642496383294,2.092857142857143L25.520710678118654,2.3071428571428574L25.94928210669008,2.3071428571428574L26.163567820975796,2.521428571428572L26.37785353526151,2.521428571428572L26.80642496383294,2.95L27,2.95L27,3.05L26.76500360759563,3.05L26.336432179024204,2.6214285714285714L26.12214646473849,2.6214285714285714L25.907860750452773,2.407142857142857L25.479289321881346,2.407142857142857L25.26500360759563,2.1928571428571426L11.806424963832939,2.1928571428571426L11.377853535261512,2.6214285714285714L10.092139249547223,2.6214285714285714L9.907142857142858,2.8064249638329404L9.907142857142858,3.1935750361670596L10.092139249547223,3.3785714285714286L14.336432179024204,3.3785714285714286L14.550717893309915,3.1642857142857146L14.76500360759563,3.1642857142857146z" stroke="none"/><path d="M18.03535533905933,4.535355339059327L17.96464466094067,4.464644660940673L18.378571428571426,4.050717893309916L18.378571428571426,3.4078607504527736L18.59285714285714,3.1935750361670596L18.59285714285714,2.979289321881345L19.05071789330992,2.521428571428572L21.44928210669008,2.521428571428572L21.90714285714286,2.979289321881345L21.90714285714286,3.1935750361670596L22.092139249547227,3.3785714285714286L25.092139249547223,3.3785714285714286L25.30642496383294,3.592857142857143L25.520710678118654,3.592857142857143L27.478571428571428,5.550717893309916L27.478571428571428,5.765003607595631L27.90714285714286,6.19357503616706L27.90714285714286,10.092139249547223L27.478571428571428,10.520710678118654L27.478571428571428,10.949282106690081L26.835714285714285,11.592139249547223L26.835714285714285,11.806424963832939L26.62142857142857,12.020710678118654L26.62142857142857,12.23499639240437L26.163567820975796,12.692857142857143L25.30642496383294,12.692857142857143L25.092139249547223,12.907142857142858L5.979289321881345,12.907142857142858L5.521428571428571,12.449282106690081L5.521428571428571,10.050717893309915L5.735714285714286,9.836432179024204L5.735714285714286,9.407860750452773L5.95,9.193575036167061L5.95,9L6.05,9L6.05,9.23499639240437L5.835714285714285,9.449282106690081L5.835714285714285,9.877853535261512L5.621428571428571,10.092139249547223L5.621428571428571,12.407860750452773L6.020710678118655,12.807142857142857L25.050717893309915,12.807142857142857L25.26500360759563,12.592857142857142L26.12214646473849,12.592857142857142L26.52142857142857,12.193575036167061L26.52142857142857,11.979289321881346L26.735714285714284,11.76500360759563L26.735714285714284,11.550717893309915L27.378571428571426,10.907860750452773L27.378571428571426,10.479289321881346L27.807142857142857,10.050717893309915L27.807142857142857,6.234996392404369L27.378571428571426,5.80642496383294L27.378571428571426,5.592139249547226L25.479289321881346,3.6928571428571426L25.26500360759563,3.6928571428571426L25.050717893309915,3.478571428571428L22.05071789330992,3.478571428571428L21.807142857142857,3.234996392404369L21.807142857142857,3.020710678118655L21.407860750452773,2.6214285714285714L19.092139249547227,2.6214285714285714L18.692857142857143,3.020710678118655L18.692857142857143,3.234996392404369L18.478571428571428,3.449282106690083L18.478571428571428,4.092139249547226z" stroke="none"/></svg>