<svg version="1.1" width="30" height="15" xmlns="http://www.w3.org/2000/svg"><path d="M14.307142857142857,8.979289321881346L14.735714285714284,8.550717893309915L14.735714285714284,8.336432179024204L14.95,8.122146464738488L14.95,7.5L15.05,7.5L15.05,8.163567820975796L14.835714285714285,8.377853535261512L14.835714285714285,8.592139249547223L14.407142857142858,9.020710678118654L14.407142857142858,9.307860750452772L14.550717893309915,9.164285714285715L14.76500360759563,9.164285714285715L14.964644660940673,8.964644660940673L15.035355339059327,9.035355339059327L14.806424963832939,9.264285714285716L14.592139249547223,9.264285714285716L14.407142857142858,9.449282106690081L14.407142857142858,9.663567820975796L14.192857142857143,9.877853535261512L14.192857142857143,10.520710678118654L13.978571428571428,10.73499639240437L13.978571428571428,11.377853535261512L13.764285714285716,11.592139249547223L13.764285714285716,11.806424963832939L13.535355339059327,12.035355339059327L13.464644660940673,11.964644660940673L13.664285714285715,11.76500360759563L13.664285714285715,11.550717893309915L13.878571428571426,11.336432179024204L13.878571428571426,10.693575036167061L14.092857142857142,10.479289321881346L14.092857142857142,9.836432179024204L14.307142857142857,9.622146464738488z" stroke="none"/><path d="M8.76500360759563,10.45L9.193575036167061,10.021428571428569L9.836432179024204,10.021428571428569L10.050717893309915,9.807142857142857L10.907860750452773,9.807142857142857L11.122146464738488,9.592857142857142L11.979289321881346,9.592857142857142L12.193575036167061,9.378571428571426L12.407860750452773,9.378571428571426L12.622146464738488,9.164285714285715L12.836432179024204,9.164285714285715L13.050717893309915,8.95L13.5,8.95L13.5,9.05L13.092139249547223,9.05L12.877853535261512,9.264285714285716L12.663567820975796,9.264285714285716L12.449282106690081,9.478571428571428L12.23499639240437,9.478571428571428L12.020710678118654,9.692857142857143L11.163567820975796,9.692857142857143L10.949282106690081,9.907142857142858L10.092139249547223,9.907142857142858L9.877853535261512,10.12142857142857L9.23499639240437,10.12142857142857L8.806424963832939,10.55L7.978571428571428,10.55L7.978571428571428,10.73499639240437L7.520710678118655,11.192857142857143L7.092139249547226,11.192857142857143L6.8778535352615116,11.407142857142858L6.234996392404369,11.407142857142858L6.020710678118655,11.62142857142857L5.3778535352615116,11.62142857142857L4.949282106690084,12.05L4.5,12.05L4.5,11.95L4.907860750452774,11.95L5.336432179024202,11.521428571428569L5.979289321881345,11.521428571428569L6.19357503616706,11.307142857142857L6.836432179024202,11.307142857142857L7.050717893309916,11.092857142857142L7.479289321881345,11.092857142857142L7.878571428571428,10.693575036167061L7.878571428571428,10.55L6,10.55L6,10.45z" stroke="none"/><path d="M15.407860750452773,3.3785714285714286L15.622146464738488,3.1642857142857146L15.836432179024204,3.1642857142857146L16.050717893309915,2.95L16.5,2.95L16.5,3.05L16.092139249547223,3.05L15.877853535261512,3.2642857142857142L15.663567820975796,3.2642857142857142L15.449282106690081,3.478571428571428L14.407142857142858,3.478571428571428L14.407142857142858,3.622146464738488L14.592139249547223,3.8071428571428574L15.663567820975796,3.8071428571428574L15.877853535261512,4.021428571428571L16.94928210669008,4.021428571428571L17.163567820975796,4.235714285714286L17.37785353526151,4.235714285714286L17.592139249547227,4.45L18,4.45L18,4.55L17.55071789330992,4.55L17.336432179024204,4.335714285714285L17.12214646473849,4.335714285714285L16.907860750452773,4.121428571428571L15.836432179024204,4.121428571428571L15.622146464738488,3.907142857142857L14.550717893309915,3.907142857142857L14.307142857142857,3.6635678209757976L14.307142857142857,3.478571428571428L10.479289321881346,3.478571428571428L10.26500360759563,3.2642857142857142L9.836432179024204,3.2642857142857142L9.622146464738488,3.05L9,3.05L9,2.95L9.663567820975796,2.95L9.877853535261512,3.1642857142857146L10.306424963832939,3.1642857142857146L10.520710678118654,3.3785714285714286z" stroke="none"/><path d="M6.164285714285715,5.95L6.164285714285715,5.80642496383294L5.336432179024202,4.978571428571429L3.8364321790242024,4.978571428571429L3.622146464738488,4.764285714285714L3.1935750361670596,4.764285714285714L2.9646446609406727,4.535355339059327L3.0353553390593273,4.464644660940673L3.234996392404369,4.664285714285715L3.6635678209757976,4.664285714285715L3.877853535261512,4.878571428571429L5.3778535352615116,4.878571428571429L6.264285714285714,5.765003607595631L6.264285714285714,5.879289321881346L7.021428571428571,5.122146464738488L7.021428571428571,4.907860750452774L7.464644660940673,4.464644660940673L7.535355339059327,4.535355339059327L7.121428571428571,4.949282106690084L7.121428571428571,5.163567820975797L6.284996392404369,6L6.663567820975797,6.378571428571428L8.163567820975796,6.378571428571428L8.377853535261512,6.5928571428571425L8.592139249547223,6.5928571428571425L9.020710678118654,7.021428571428571L9.449282106690081,7.021428571428571L10.73499639240437,8.307142857142857L10.949282106690081,8.307142857142857L11.377853535261512,8.735714285714284L11.592139249547223,8.735714285714284L11.806424963832939,8.95L12,8.95L12,9.05L11.76500360759563,9.05L11.550717893309915,8.835714285714285L11.336432179024204,8.835714285714285L10.907860750452773,8.407142857142858L10.693575036167061,8.407142857142858L9.407860750452773,7.121428571428571L8.979289321881346,7.121428571428571L8.550717893309915,6.692857142857142L8.336432179024204,6.692857142857142L8.122146464738488,6.478571428571428L6.622146464738488,6.478571428571428L6.19357503616706,6.05L3,6.05L3,5.95z" stroke="none"/><path d="M15.592857142857142,7.021428571428571L15.592857142857142,6.8778535352615116L14.76500360759563,6.05L14.336432179024204,6.05L14.122146464738488,5.835714285714285L12.622146464738488,5.835714285714285L12.407860750452773,5.621428571428571L9.449282106690081,5.621428571428571L9.035355339059327,6.035355339059327L8.964644660940673,5.964644660940673L9.407860750452773,5.521428571428571L12.449282106690081,5.521428571428571L12.663567820975796,5.735714285714286L14.163567820975796,5.735714285714286L14.377853535261512,5.95L14.806424963832939,5.95L15.692857142857143,6.836432179024202L15.692857142857143,7.050717893309916L15.907142857142858,7.265003607595631L15.907142857142858,7.69357503616706L17.80642496383294,9.592857142857142L18.44928210669008,9.592857142857142L19.092139249547227,10.235714285714284L19.30642496383294,10.235714285714284L19.53535533905933,10.464644660940673L19.46464466094067,10.535355339059327L19.26500360759563,10.335714285714285L19.05071789330992,10.335714285714285L18.407860750452773,9.692857142857143L17.76500360759563,9.692857142857143L15.807142857142857,7.734996392404369L15.807142857142857,7.30642496383294L15.692857142857143,7.192139249547226L15.692857142857143,7.907860750452773L17.592139249547227,9.807142857142857L17.80642496383294,9.807142857142857L18.23499639240437,10.235714285714284L18.663567820975796,10.235714285714284L19.092139249547227,10.664285714285715L19.69357503616706,10.664285714285715L19.878571428571426,10.479289321881346L19.878571428571426,8.76500360759563L20.09285714285714,8.550717893309915L20.09285714285714,8.122146464738488L20.307142857142857,7.907860750452773L20.307142857142857,7.479289321881345L20.735714285714284,7.050717893309916L20.735714285714284,6.19357503616706L20.96464466094067,5.964644660940673L21.03535533905933,6.035355339059327L20.835714285714285,6.234996392404369L20.835714285714285,7.092139249547226L20.40714285714286,7.520710678118655L20.40714285714286,7.949282106690083L20.192857142857143,8.163567820975796L20.192857142857143,8.592139249547223L19.978571428571428,8.806424963832939L19.978571428571428,10.520710678118654L19.73499639240437,10.764285714285716L19.05071789330992,10.764285714285716L18.62214646473849,10.335714285714285L18.19357503616706,10.335714285714285L17.76500360759563,9.907142857142858L17.55071789330992,9.907142857142858L15.592857142857142,7.949282106690083L15.592857142857142,7.121428571428571L15.407860750452773,7.121428571428571L14.550717893309915,6.264285714285714L14.122146464738488,6.264285714285714L13.907860750452773,6.05L13.5,6.05L13.5,5.95L13.949282106690081,5.95L14.163567820975796,6.164285714285715L14.592139249547223,6.164285714285715L15.449282106690081,7.021428571428571z" stroke="none"/><path d="M15.592857142857142,4.664285714285715L15.592857142857142,4.520710678118655L15.407860750452773,4.335714285714285L9.622146464738488,4.335714285714285L9.193575036167061,3.907142857142857L8.76500360759563,3.907142857142857L8.122146464738488,3.2642857142857142L7.907860750452773,3.2642857142857142L7.69357503616706,3.05L7.5,3.05L7.5,2.95L7.734996392404369,2.95L7.949282106690083,3.1642857142857146L8.163567820975796,3.1642857142857146L8.806424963832939,3.8071428571428574L9.23499639240437,3.8071428571428574L9.663567820975796,4.235714285714286L15.449282106690081,4.235714285714286L15.692857142857143,4.479289321881345L15.692857142857143,4.664285714285715L15.877853535261512,4.664285714285715L16.30642496383294,5.0928571428571425L16.520710678118654,5.0928571428571425L16.73499639240437,5.307142857142857L16.94928210669008,5.307142857142857L17.163567820975796,5.521428571428571L17.37785353526151,5.521428571428571L17.592139249547227,5.735714285714286L18.23499639240437,5.735714285714286L18.44928210669008,5.95L19.5,5.95L19.5,6.05L18.407860750452773,6.05L18.19357503616706,5.835714285714285L17.55071789330992,5.835714285714285L17.336432179024204,5.621428571428571L17.12214646473849,5.621428571428571L16.907860750452773,5.407142857142857L16.69357503616706,5.407142857142857L16.479289321881346,5.192857142857142L16.26500360759563,5.192857142857142L15.836432179024204,4.764285714285714L15.692857142857143,4.764285714285714L15.692857142857143,4.907860750452774L15.907142857142858,5.122146464738488L15.907142857142858,5.336432179024202L16.12142857142857,5.550717893309916L16.12142857142857,5.765003607595631L16.335714285714285,5.979289321881345L16.335714285714285,7.265003607595631L16.53535533905933,7.464644660940673L16.46464466094067,7.535355339059327L16.235714285714284,7.30642496383294L16.235714285714284,6.020710678118655L16.02142857142857,5.80642496383294L16.02142857142857,5.592139249547226L15.807142857142857,5.3778535352615116L15.807142857142857,5.163567820975797L15.592857142857142,4.949282106690084L15.592857142857142,4.764285714285714L15.449282106690081,4.764285714285714L15.264285714285716,4.949282106690084L15.264285714285716,5.122146464738488L15.692857142857143,5.550717893309916L15.692857142857143,5.765003607595631L15.907142857142858,5.979289321881345L15.907142857142858,6.622146464738488L16.12142857142857,6.836432179024202L16.12142857142857,7.479289321881345L16.30642496383294,7.664285714285715L17.979289321881346,7.664285714285715L18.62214646473849,7.021428571428571L18.836432179024204,7.021428571428571L19.664285714285715,6.19357503616706L19.664285714285715,3.234996392404369L19.46464466094067,3.0353553390593273L19.53535533905933,2.9646446609406727L19.764285714285716,3.1935750361670596L19.764285714285716,6.234996392404369L18.87785353526151,7.121428571428571L18.663567820975796,7.121428571428571L18.020710678118654,7.764285714285714L16.26500360759563,7.764285714285714L16.02142857142857,7.520710678118655L16.02142857142857,6.8778535352615116L15.807142857142857,6.663567820975797L15.807142857142857,6.020710678118655L15.592857142857142,5.80642496383294L15.592857142857142,5.592139249547226L15.164285714285715,5.163567820975797L15.164285714285715,4.907860750452774L15.407860750452773,4.664285714285715z" stroke="none"/><path d="M6,11.95L6,12.05L5.80642496383294,12.05L5.3778535352615116,12.478571428571428L4.050717893309916,12.478571428571428L3.8071428571428574,12.23499639240437L3.8071428571428574,11.979289321881346L4.021428571428571,11.76500360759563L4.021428571428571,11.336432179024204L4.45,10.907860750452773L4.45,10.5L4.55,10.5L4.55,10.949282106690081L4.121428571428571,11.377853535261512L4.121428571428571,11.806424963832939L3.907142857142857,12.020710678118654L3.907142857142857,12.193575036167061L4.092139249547226,12.378571428571426L5.336432179024202,12.378571428571426L5.765003607595631,11.95z" stroke="none"/><path d="M27.03535533905933,7.464644660940673L26.96464466094067,7.535355339059327L25.46464466094067,6.035355339059327L25.53535533905933,5.964644660940673z" stroke="none"/><path d="M13.535355339059327,7.464644660940673L13.464644660940673,7.535355339059327L11.964644660940673,6.035355339059327L12.035355339059327,5.964644660940673z" stroke="none"/><path d="M15,2.95L15,3.05L12,3.05L12,2.95z" stroke="none"/><path d="M22.5,3.05L22.5,2.95L25.5,2.95L25.5,3.05z" stroke="none"/><path d="M4.5,4.55L4.5,4.45L5.336432179024202,4.45L5.550717893309916,4.235714285714286L5.979289321881345,4.235714285714286L6.19357503616706,4.021428571428571L7.050717893309916,4.021428571428571L7.265003607595631,3.8071428571428574L7.734996392404369,3.8071428571428574L7.978571428571428,4.050717893309916L7.978571428571428,5.3778535352615116L7.55,5.80642496383294L7.55,6L7.45,6L7.45,5.765003607595631L7.878571428571428,5.336432179024202L7.878571428571428,4.092139249547226L7.69357503616706,3.907142857142857L7.30642496383294,3.907142857142857L7.092139249547226,4.121428571428571L6.234996392404369,4.121428571428571L6.020710678118655,4.335714285714285L5.592139249547226,4.335714285714285L5.3778535352615116,4.55z" stroke="none"/><path d="M19.53535533905933,12.035355339059327L19.46464466094067,11.964644660940673L19.878571428571426,11.550717893309915L19.878571428571426,10.907860750452773L20.09285714285714,10.693575036167061L20.09285714285714,8.979289321881346L20.307142857142857,8.76500360759563L20.307142857142857,8.550717893309915L20.521428571428572,8.336432179024204L20.521428571428572,7.69357503616706L20.95,7.265003607595631L20.95,6.836432179024202L21.59285714285714,6.19357503616706L21.59285714285714,5.80642496383294L21.407860750452773,5.621428571428571L20.592139249547227,5.621428571428571L19.978571428571428,6.234996392404369L19.978571428571428,6.449282106690083L18.264285714285716,8.163567820975796L18.264285714285716,8.592139249547223L18.05,8.806424963832939L18.05,9L17.95,9L17.95,8.76500360759563L18.164285714285715,8.550717893309915L18.164285714285715,8.122146464738488L19.878571428571426,6.407860750452773L19.878571428571426,6.19357503616706L20.55071789330992,5.521428571428571L21.44928210669008,5.521428571428571L21.692857142857143,5.765003607595631L21.692857142857143,6.234996392404369L21.05,6.8778535352615116L21.05,7.30642496383294L20.621428571428574,7.734996392404369L20.621428571428574,8.377853535261512L20.40714285714286,8.592139249547223L20.40714285714286,8.806424963832939L20.192857142857143,9.020710678118654L20.192857142857143,10.73499639240437L19.978571428571428,10.949282106690081L19.978571428571428,11.592139249547223z" stroke="none"/><path d="M22.46464466094067,10.535355339059327L22.53535533905933,10.464644660940673L22.73499639240437,10.664285714285715L22.94928210669008,10.664285714285715L23.163567820975796,10.878571428571426L23.37785353526151,10.878571428571426L23.592139249547223,11.092857142857142L23.80642496383294,11.092857142857142L24.020710678118654,11.307142857142857L24.23499639240437,11.307142857142857L24.663567820975796,11.735714285714284L25.30642496383294,11.735714285714284L25.53535533905933,11.964644660940673L25.46464466094067,12.035355339059327L25.26500360759563,11.835714285714285L24.62214646473849,11.835714285714285L24.19357503616706,11.407142857142858L23.979289321881346,11.407142857142858L23.76500360759563,11.192857142857143L23.550717893309915,11.192857142857143L23.336432179024204,10.978571428571428L23.12214646473849,10.978571428571428L22.907860750452773,10.764285714285716L22.69357503616706,10.764285714285716z" stroke="none"/><path d="M25.53535533905933,8.964644660940673L25.46464466094067,9.035355339059327L22.46464466094067,6.035355339059327L22.53535533905933,5.964644660940673z" stroke="none"/><path d="M27.03535533905933,8.964644660940673L26.96464466094067,9.035355339059327L25.907860750452773,7.978571428571428L25.050717893309915,7.978571428571428L24.807142857142857,7.734996392404369L24.807142857142857,7.520710678118655L24.59285714285714,7.30642496383294L24.59285714285714,7.092139249547226L24.164285714285715,6.663567820975797L24.164285714285715,6.234996392404369L23.96464466094067,6.035355339059327L24.03535533905933,5.964644660940673L24.264285714285716,6.19357503616706L24.264285714285716,6.622146464738488L24.692857142857143,7.050717893309916L24.692857142857143,7.265003607595631L24.90714285714286,7.479289321881345L24.90714285714286,7.69357503616706L25.092139249547223,7.878571428571428L25.94928210669008,7.878571428571428z" stroke="none"/><path d="M24.03535533905933,11.964644660940673L23.96464466094067,12.035355339059327L23.336432179024204,11.407142857142858L23.12214646473849,11.407142857142858L22.69357503616706,10.978571428571428L22.05071789330992,10.978571428571428L21.807142857142857,10.73499639240437L21.807142857142857,10.306424963832939L21.164285714285715,9.663567820975796L21.164285714285715,9.449282106690081L20.95,9.23499639240437L20.95,9L21.05,9L21.05,9.193575036167061L21.264285714285716,9.407860750452773L21.264285714285716,9.622146464738488L21.90714285714286,10.26500360759563L21.90714285714286,10.693575036167061L22.092139249547227,10.878571428571426L22.73499639240437,10.878571428571426L23.163567820975796,11.307142857142857L23.37785353526151,11.307142857142857z" stroke="none"/><path d="M10.464644660940673,6.035355339059327L10.535355339059327,5.964644660940673L12.23499639240437,7.664285714285715L12.663567820975796,7.664285714285715L12.877853535261512,7.878571428571428L13.306424963832939,7.878571428571428L13.978571428571428,8.550717893309915L13.978571428571428,9.449282106690081L13.73499639240437,9.692857142857143L12.449282106690081,9.692857142857143L12.23499639240437,9.907142857142858L11.806424963832939,9.907142857142858L11.592139249547223,10.12142857142857L11.163567820975796,10.12142857142857L10.949282106690081,10.335714285714285L10.73499639240437,10.335714285714285L10.535355339059327,10.535355339059327L10.464644660940673,10.464644660940673L10.693575036167061,10.235714285714284L10.907860750452773,10.235714285714284L11.122146464738488,10.021428571428569L11.550717893309915,10.021428571428569L11.76500360759563,9.807142857142857L12.193575036167061,9.807142857142857L12.407860750452773,9.592857142857142L13.693575036167061,9.592857142857142L13.878571428571426,9.407860750452773L13.878571428571426,8.592139249547223L13.26500360759563,7.978571428571428L12.836432179024204,7.978571428571428L12.622146464738488,7.764285714285714L12.193575036167061,7.764285714285714z" stroke="none"/><path d="M18,12.05L18,11.95L18.44928210669008,11.95L18.87785353526151,12.378571428571426L20.336432179024204,12.378571428571426L20.55071789330992,12.164285714285715L22.05071789330992,12.164285714285715L22.26500360759563,11.95L22.5,11.95L22.5,12.05L22.30642496383294,12.05L22.092139249547227,12.264285714285716L20.592139249547227,12.264285714285716L20.37785353526151,12.478571428571428L18.836432179024204,12.478571428571428L18.407860750452773,12.05z" stroke="none"/><path d="M25.53535533905933,7.464644660940673L25.46464466094067,7.535355339059327L24.59285714285714,6.663567820975797L24.59285714285714,5.80642496383294L24.407860750452773,5.621428571428571L22.69357503616706,5.621428571428571L22.479289321881346,5.407142857142857L22.26500360759563,5.407142857142857L22.05071789330992,5.192857142857142L21.836432179024204,5.192857142857142L21.62214646473849,4.978571428571429L21.407860750452773,4.978571428571429L20.96464466094067,4.535355339059327L21.03535533905933,4.464644660940673L21.44928210669008,4.878571428571429L21.663567820975796,4.878571428571429L21.87785353526151,5.0928571428571425L22.092139249547227,5.0928571428571425L22.30642496383294,5.307142857142857L22.520710678118654,5.307142857142857L22.73499639240437,5.521428571428571L24.44928210669008,5.521428571428571L24.692857142857143,5.765003607595631L24.692857142857143,6.622146464738488z" stroke="none"/><path d="M18,3.05L18,2.95L18.19357503616706,2.95L18.407860750452773,2.7357142857142858L18.836432179024204,2.7357142857142858L19.05071789330992,2.521428571428572L19.94928210669008,2.521428571428572L20.192857142857143,2.765003607595631L20.192857142857143,2.979289321881345L20.592139249547227,3.3785714285714286L21.23499639240437,3.3785714285714286L21.663567820975796,3.8071428571428574L21.87785353526151,3.8071428571428574L22.092139249547227,4.021428571428571L22.30642496383294,4.021428571428571L22.520710678118654,4.235714285714286L23.80642496383294,4.235714285714286L24.03535533905933,4.464644660940673L23.96464466094067,4.535355339059327L23.76500360759563,4.335714285714285L22.479289321881346,4.335714285714285L22.26500360759563,4.121428571428571L22.05071789330992,4.121428571428571L21.836432179024204,3.907142857142857L21.62214646473849,3.907142857142857L21.19357503616706,3.478571428571428L20.55071789330992,3.478571428571428L20.09285714285714,3.020710678118655L20.09285714285714,2.8064249638329404L19.907860750452773,2.6214285714285714L19.092139249547227,2.6214285714285714L18.87785353526151,2.8357142857142854L18.44928210669008,2.8357142857142854L18.23499639240437,3.05z" stroke="none"/><path d="M7.5,12.05L7.5,11.95L7.907860750452773,11.95L8.336432179024204,11.521428571428569L8.550717893309915,11.521428571428569L8.76500360759563,11.307142857142857L9.622146464738488,11.307142857142857L9.836432179024204,11.092857142857142L12.622146464738488,11.092857142857142L13.26500360759563,10.45L13.5,10.45L13.5,10.55L13.306424963832939,10.55L12.663567820975796,11.192857142857143L9.877853535261512,11.192857142857143L9.663567820975796,11.407142857142858L8.806424963832939,11.407142857142858L8.592139249547223,11.62142857142857L8.377853535261512,11.62142857142857L7.949282106690083,12.05z" stroke="none"/><path d="M27.03535533905933,5.964644660940673L26.96464466094067,6.035355339059327L25.479289321881346,4.55L24.836432179024204,4.55L24.407860750452773,4.121428571428571L22.69357503616706,4.121428571428571L21.836432179024204,3.2642857142857142L21.19357503616706,3.2642857142857142L20.96464466094067,3.0353553390593273L21.03535533905933,2.9646446609406727L21.23499639240437,3.1642857142857146L21.87785353526151,3.1642857142857146L22.73499639240437,4.021428571428571L24.44928210669008,4.021428571428571L24.87785353526151,4.45L25.520710678118654,4.45z" stroke="none"/><path d="M9.035355339059327,4.464644660940673L8.964644660940673,4.535355339059327L8.550717893309915,4.121428571428571L8.336432179024204,4.121428571428571L7.907860750452773,3.6928571428571426L7.265003607595631,3.6928571428571426L7.021428571428571,3.449282106690083L7.021428571428571,2.550717893309917L7.265003607595631,2.3071428571428574L16.520710678118654,2.3071428571428574L16.73499639240437,2.521428571428572L16.94928210669008,2.521428571428572L17.40714285714286,2.979289321881345L17.40714285714286,3.1935750361670596L18.020710678118654,3.8071428571428574L18.23499639240437,3.8071428571428574L18.478571428571428,4.050717893309916L18.478571428571428,4.949282106690084L18.23499639240437,5.192857142857142L17.76500360759563,5.192857142857142L17.55071789330992,4.978571428571429L17.12214646473849,4.978571428571429L16.907860750452773,4.764285714285714L16.69357503616706,4.764285714285714L16.46464466094067,4.535355339059327L16.53535533905933,4.464644660940673L16.73499639240437,4.664285714285715L16.94928210669008,4.664285714285715L17.163567820975796,4.878571428571429L17.592139249547227,4.878571428571429L17.80642496383294,5.0928571428571425L18.19357503616706,5.0928571428571425L18.378571428571426,4.907860750452774L18.378571428571426,4.092139249547226L18.19357503616706,3.907142857142857L17.979289321881346,3.907142857142857L17.307142857142857,3.234996392404369L17.307142857142857,3.020710678118655L16.907860750452773,2.6214285714285714L16.69357503616706,2.6214285714285714L16.479289321881346,2.407142857142857L7.30642496383294,2.407142857142857L7.121428571428571,2.5921392495472264L7.121428571428571,3.4078607504527736L7.30642496383294,3.592857142857143L7.949282106690083,3.592857142857143L8.377853535261512,4.021428571428571L8.592139249547223,4.021428571428571z" stroke="none"/><path d="M9.035355339059327,7.464644660940673L8.964644660940673,7.535355339059327L8.76500360759563,7.335714285714285L8.550717893309915,7.335714285714285L8.336432179024204,7.121428571428571L3.4078607504527736,7.121428571428571L2.979289321881345,6.692857142857142L2.765003607595631,6.692857142857142L2.521428571428572,6.449282106690083L2.521428571428572,3.8364321790242024L2.7357142857142858,3.622146464738488L2.7357142857142858,3.1935750361670596L2.9646446609406727,2.9646446609406727L3.0353553390593273,3.0353553390593273L2.8357142857142854,3.234996392404369L2.8357142857142854,3.6635678209757976L2.6214285714285714,3.877853535261512L2.6214285714285714,6.407860750452773L2.8064249638329404,6.5928571428571425L3.020710678118655,6.5928571428571425L3.449282106690083,7.021428571428571L8.377853535261512,7.021428571428571L8.592139249547223,7.235714285714286L8.806424963832939,7.235714285714286z" stroke="none"/><path d="M16.46464466094067,12.035355339059327L16.53535533905933,11.964644660940673L16.73499639240437,12.164285714285715L17.163567820975796,12.164285714285715L17.37785353526151,12.378571428571426L17.592139249547227,12.378571428571426L17.80642496383294,12.592857142857142L25.69357503616706,12.592857142857142L25.878571428571426,12.407860750452773L25.878571428571426,11.592139249547223L25.26500360759563,10.978571428571428L24.62214646473849,10.978571428571428L24.19357503616706,10.55L24,10.55L24,10.45L24.23499639240437,10.45L24.663567820975796,10.878571428571426L25.30642496383294,10.878571428571426L25.978571428571428,11.550717893309915L25.978571428571428,12.449282106690081L25.73499639240437,12.692857142857143L17.76500360759563,12.692857142857143L17.55071789330992,12.478571428571428L17.336432179024204,12.478571428571428L17.12214646473849,12.264285714285716L16.69357503616706,12.264285714285716z" stroke="none"/><path d="M12,10.45L12,10.55L11.592139249547223,10.55L11.377853535261512,10.764285714285716L11.163567820975796,10.764285714285716L10.949282106690081,10.978571428571428L8.806424963832939,10.978571428571428L8.377853535261512,11.407142857142858L8.163567820975796,11.407142857142858L7.949282106690083,11.62142857142857L7.092139249547226,11.62142857142857L6.907142857142857,11.806424963832939L6.907142857142857,12.020710678118654L6.449282106690083,12.478571428571428L6.020710678118655,12.478571428571428L5.80642496383294,12.692857142857143L3.8364321790242024,12.692857142857143L3.592857142857143,12.449282106690081L3.592857142857143,10.050717893309915L4.235714285714286,9.407860750452773L4.235714285714286,9.193575036167061L4.464644660940673,8.964644660940673L4.535355339059327,9.035355339059327L4.335714285714285,9.23499639240437L4.335714285714285,9.449282106690081L3.6928571428571426,10.092139249547223L3.6928571428571426,12.407860750452773L3.877853535261512,12.592857142857142L5.765003607595631,12.592857142857142L5.979289321881345,12.378571428571426L6.407860750452773,12.378571428571426L6.807142857142857,11.979289321881346L6.807142857142857,11.76500360759563L7.050717893309916,11.521428571428569L7.907860750452773,11.521428571428569L8.122146464738488,11.307142857142857L8.336432179024204,11.307142857142857L8.76500360759563,10.878571428571426L10.907860750452773,10.878571428571426L11.122146464738488,10.664285714285715L11.336432179024204,10.664285714285715L11.550717893309915,10.45z" stroke="none"/><path d="M14.964644660940673,10.535355339059327L15.035355339059327,10.464644660940673L15.478571428571428,10.907860750452773L15.478571428571428,11.336432179024204L15.907142857142858,11.76500360759563L15.907142857142858,12.193575036167061L16.092139249547223,12.378571428571426L16.520710678118654,12.378571428571426L16.73499639240437,12.592857142857142L17.37785353526151,12.592857142857142L17.592139249547227,12.807142857142857L25.907860750452773,12.807142857142857L26.09285714285714,12.622146464738488L26.09285714285714,11.377853535261512L22.45,7.734996392404369L22.45,7.5L22.55,7.5L22.55,7.69357503616706L26.192857142857143,11.336432179024204L26.192857142857143,12.663567820975796L25.94928210669008,12.907142857142858L17.55071789330992,12.907142857142858L17.336432179024204,12.692857142857143L16.69357503616706,12.692857142857143L16.479289321881346,12.478571428571428L16.050717893309915,12.478571428571428L15.807142857142857,12.23499639240437L15.807142857142857,11.806424963832939L15.378571428571426,11.377853535261512L15.378571428571426,10.949282106690081z" stroke="none"/><path d="M7.5,7.45L7.5,7.55L6.663567820975797,7.55L6.449282106690083,7.764285714285714L5.592139249547226,7.764285714285714L5.163567820975797,8.192857142857143L4.520710678118655,8.192857142857143L4.121428571428571,8.592139249547223L4.121428571428571,9.23499639240437L3.478571428571428,9.877853535261512L3.478571428571428,12.622146464738488L3.6635678209757976,12.807142857142857L13.479289321881346,12.807142857142857L13.878571428571426,12.407860750452773L13.878571428571426,11.76500360759563L14.092857142857142,11.550717893309915L14.092857142857142,11.122146464738488L14.307142857142857,10.907860750452773L14.307142857142857,10.26500360759563L14.550717893309915,10.021428571428569L15.449282106690081,10.021428571428569L15.663567820975796,10.235714285714284L16.30642496383294,10.235714285714284L16.53535533905933,10.464644660940673L16.46464466094067,10.535355339059327L16.26500360759563,10.335714285714285L15.622146464738488,10.335714285714285L15.407860750452773,10.12142857142857L14.592139249547223,10.12142857142857L14.407142857142858,10.306424963832939L14.407142857142858,10.949282106690081L14.192857142857143,11.163567820975796L14.192857142857143,11.592139249547223L13.978571428571428,11.806424963832939L13.978571428571428,12.449282106690081L13.520710678118654,12.907142857142858L3.622146464738488,12.907142857142858L3.3785714285714286,12.663567820975796L3.3785714285714286,9.836432179024204L4.021428571428571,9.193575036167061L4.021428571428571,8.550717893309915L4.479289321881345,8.092857142857142L5.122146464738488,8.092857142857142L5.550717893309916,7.664285714285715L6.407860750452773,7.664285714285715L6.622146464738488,7.45z" stroke="none"/><path d="M14.964644660940673,11.964644660940673L15.035355339059327,12.035355339059327L14.592139249547223,12.478571428571428L14.377853535261512,12.478571428571428L13.73499639240437,13.12142857142857L3.4078607504527736,13.12142857142857L3.1642857142857146,12.877853535261512L3.1642857142857146,10.949282106690081L2.95,10.73499639240437L2.95,10.5L3.05,10.5L3.05,10.693575036167061L3.2642857142857142,10.907860750452773L3.2642857142857142,12.836432179024204L3.449282106690083,13.021428571428569L13.693575036167061,13.021428571428569L14.336432179024204,12.378571428571426L14.550717893309915,12.378571428571426z" stroke="none"/></svg>