<svg version="1.1" width="30" height="15" xmlns="http://www.w3.org/2000/svg"><path d="M14.95,8.307142857142857L14.95,8.163567820975796L14.76500360759563,7.978571428571428L14.550717893309915,7.978571428571428L14.092857142857142,7.520710678118655L14.092857142857142,7.30642496383294L13.907860750452773,7.121428571428571L12.407860750452773,7.121428571428571L12.193575036167061,6.907142857142857L11.979289321881346,6.907142857142857L11.550717893309915,6.478571428571428L11.336432179024204,6.478571428571428L10.907860750452773,6.05L10.5,6.05L10.5,5.95L10.949282106690081,5.95L11.377853535261512,6.378571428571428L11.592139249547223,6.378571428571428L12.020710678118654,6.807142857142857L12.23499639240437,6.807142857142857L12.449282106690081,7.021428571428571L13.949282106690081,7.021428571428571L14.192857142857143,7.265003607595631L14.192857142857143,7.479289321881345L14.592139249547223,7.878571428571428L14.806424963832939,7.878571428571428L15.05,8.122146464738488L15.05,8.336432179024204L16.092139249547223,9.378571428571426L19.092139249547227,9.378571428571426L19.30642496383294,9.592857142857142L19.520710678118654,9.592857142857142L19.94928210669008,10.021428571428569L20.37785353526151,10.021428571428569L20.80642496383294,10.45L21,10.45L21,10.55L20.76500360759563,10.55L20.336432179024204,10.12142857142857L19.907860750452773,10.12142857142857L19.479289321881346,9.692857142857143L19.26500360759563,9.692857142857143L19.05071789330992,9.478571428571428L16.050717893309915,9.478571428571428L14.979289321881346,8.407142857142858L14.806424963832939,8.407142857142858L14.377853535261512,8.835714285714285L13.949282106690081,8.835714285714285L13.73499639240437,9.05L13.5,9.05L13.5,8.95L13.693575036167061,8.95L13.907860750452773,8.735714285714284L14.336432179024204,8.735714285714284L14.76500360759563,8.307142857142857z" stroke="none"/><path d="M24.663567820975796,10.45L24.87785353526151,10.45L25.12142857142857,10.693575036167061L25.12142857142857,10.907860750452773L25.73499639240437,11.521428571428569L25.94928210669008,11.521428571428569L26.163567820975796,11.735714285714284L26.37785353526151,11.735714285714284L26.592139249547223,11.95L27,11.95L27,12.05L26.550717893309915,12.05L26.336432179024204,11.835714285714285L26.12214646473849,11.835714285714285L25.907860750452773,11.62142857142857L25.69357503616706,11.62142857142857L25.02142857142857,10.949282106690081L25.02142857142857,10.73499639240437L24.836432179024204,10.55L24.692857142857143,10.55L24.692857142857143,10.693575036167061L24.90714285714286,10.907860750452773L24.90714285714286,11.122146464738488L25.12142857142857,11.336432179024204L25.12142857142857,11.550717893309915L25.53535533905933,11.964644660940673L25.46464466094067,12.035355339059327L25.02142857142857,11.592139249547223L25.02142857142857,11.377853535261512L24.807142857142857,11.163567820975796L24.807142857142857,10.949282106690081L24.59285714285714,10.73499639240437L24.59285714285714,10.520710678118654L24.378571428571426,10.306424963832939L24.378571428571426,10.092139249547223L22.907860750452773,8.62142857142857L22.479289321881346,8.62142857142857L22.26500360759563,8.407142857142858L22.05071789330992,8.407142857142858L21.19357503616706,7.55L21,7.55L21,7.45L21.23499639240437,7.45L22.092139249547227,8.307142857142857L22.30642496383294,8.307142857142857L22.520710678118654,8.521428571428569L22.94928210669008,8.521428571428569L24.478571428571428,10.050717893309915L24.478571428571428,10.26500360759563z" stroke="none"/><path d="M11.092857142857142,10.306424963832939L10.907860750452773,10.12142857142857L10.092139249547223,10.12142857142857L9.23499639240437,10.978571428571428L8.592139249547223,10.978571428571428L8.377853535261512,11.192857142857143L7.30642496383294,11.192857142857143L6.663567820975797,11.835714285714285L6.449282106690083,11.835714285714285L6.234996392404369,12.05L6,12.05L6,11.95L6.19357503616706,11.95L6.407860750452773,11.735714285714284L6.622146464738488,11.735714285714284L7.265003607595631,11.092857142857142L8.336432179024204,11.092857142857142L8.550717893309915,10.878571428571426L9.193575036167061,10.878571428571426L10.050717893309915,10.021428571428569L10.949282106690081,10.021428571428569L11.192857142857143,10.26500360759563L11.192857142857143,10.379289321881345L12.193575036167061,9.378571428571426L12.407860750452773,9.378571428571426L13.021428571428569,8.76500360759563L13.021428571428569,8.550717893309915L13.235714285714284,8.336432179024204L13.235714285714284,7.907860750452773L13.45,7.69357503616706L13.45,7.5L13.55,7.5L13.55,7.734996392404369L13.335714285714285,7.949282106690083L13.335714285714285,8.377853535261512L13.12142857142857,8.592139249547223L13.12142857142857,8.806424963832939L12.449282106690081,9.478571428571428L12.23499639240437,9.478571428571428L11.192857142857143,10.520710678118654L11.192857142857143,10.693575036167061L11.407142857142858,10.907860750452773L11.407142857142858,11.122146464738488L11.62142857142857,11.336432179024204L11.62142857142857,11.550717893309915L12.035355339059327,11.964644660940673L11.964644660940673,12.035355339059327L11.521428571428569,11.592139249547223L11.521428571428569,11.377853535261512L11.307142857142857,11.163567820975796L11.307142857142857,10.949282106690081L11.092857142857142,10.73499639240437z" stroke="none"/><path d="M18.23499639240437,4.664285714285715L20.37785353526151,4.664285714285715L20.592139249547227,4.878571428571429L23.336432179024204,4.878571428571429L23.550717893309915,4.664285714285715L23.76500360759563,4.664285714285715L23.96464466094067,4.464644660940673L24.03535533905933,4.535355339059327L23.80642496383294,4.764285714285714L23.592139249547223,4.764285714285714L23.37785353526151,4.978571428571429L20.55071789330992,4.978571428571429L20.336432179024204,4.764285714285714L18.264285714285716,4.764285714285714L18.264285714285716,5.80642496383294L18.03535533905933,6.035355339059327L17.96464466094067,5.964644660940673L18.164285714285715,5.765003607595631L18.164285714285715,4.764285714285714L17.80642496383294,4.764285714285714L17.37785353526151,5.192857142857142L17.163567820975796,5.192857142857142L16.94928210669008,5.407142857142857L16.092139249547223,5.407142857142857L15.877853535261512,5.621428571428571L15.663567820975796,5.621428571428571L15.449282106690081,5.835714285714285L15.23499639240437,5.835714285714285L15.035355339059327,6.035355339059327L14.964644660940673,5.964644660940673L15.193575036167061,5.735714285714286L15.407860750452773,5.735714285714286L15.622146464738488,5.521428571428571L15.836432179024204,5.521428571428571L16.050717893309915,5.307142857142857L16.907860750452773,5.307142857142857L17.12214646473849,5.0928571428571425L17.336432179024204,5.0928571428571425L17.76500360759563,4.664285714285715L18.09357503616706,4.664285714285715L16.46464466094067,3.0353553390593273L16.53535533905933,2.9646446609406727z" stroke="none"/><path d="M8.092857142857142,6.5928571428571425L8.092857142857142,6.407860750452773L8.76500360759563,5.735714285714286L9.622146464738488,5.735714285714286L9.836432179024204,5.521428571428571L11.76500360759563,5.521428571428571L12.193575036167061,5.0928571428571425L12.836432179024204,5.0928571428571425L13.464644660940673,4.464644660940673L13.535355339059327,4.535355339059327L12.877853535261512,5.192857142857142L12.23499639240437,5.192857142857142L11.806424963832939,5.621428571428571L9.877853535261512,5.621428571428571L9.663567820975796,5.835714285714285L8.806424963832939,5.835714285714285L8.192857142857143,6.449282106690083L8.192857142857143,6.5928571428571425L8.377853535261512,6.5928571428571425L9.020710678118654,7.235714285714286L9.663567820975796,7.235714285714286L9.877853535261512,7.45L10.5,7.45L10.5,7.55L9.836432179024204,7.55L9.622146464738488,7.335714285714285L8.979289321881346,7.335714285714285L8.336432179024204,6.692857142857142L8.192857142857143,6.692857142857142L8.192857142857143,6.8778535352615116L7.092139249547226,7.978571428571428L6.663567820975797,7.978571428571428L6.020710678118655,8.62142857142857L5.163567820975797,8.62142857142857L4.734996392404369,9.05L4.5,9.05L4.5,8.95L4.69357503616706,8.95L5.122146464738488,8.521428571428569L5.979289321881345,8.521428571428569L6.622146464738488,7.878571428571428L7.050717893309916,7.878571428571428L8.092857142857142,6.836432179024202L8.092857142857142,6.692857142857142L5.122146464738488,6.692857142857142L4.464644660940673,6.035355339059327L4.535355339059327,5.964644660940673L5.163567820975797,6.5928571428571425z" stroke="none"/><path d="M14.521428571428569,4.664285714285715L14.521428571428569,4.520710678118655L14.336432179024204,4.335714285714285L14.122146464738488,4.335714285714285L13.907860750452773,4.121428571428571L12.193575036167061,4.121428571428571L11.979289321881346,3.907142857142857L9.836432179024204,3.907142857142857L8.964644660940673,3.0353553390593273L9.035355339059327,2.9646446609406727L9.877853535261512,3.8071428571428574L12.020710678118654,3.8071428571428574L12.23499639240437,4.021428571428571L13.949282106690081,4.021428571428571L14.163567820975796,4.235714285714286L14.377853535261512,4.235714285714286L14.62142857142857,4.479289321881345L14.62142857142857,4.59357503616706L15.164285714285715,4.050717893309916L15.164285714285715,3.8364321790242024L15.378571428571426,3.622146464738488L15.378571428571426,3.4078607504527736L15.807142857142857,2.979289321881345L15.807142857142857,2.765003607595631L16.050717893309915,2.521428571428572L17.37785353526151,2.521428571428572L17.592139249547227,2.7357142857142858L17.80642496383294,2.7357142857142858L18.03535533905933,2.9646446609406727L17.96464466094067,3.0353553390593273L17.76500360759563,2.8357142857142854L17.55071789330992,2.8357142857142854L17.336432179024204,2.6214285714285714L16.092139249547223,2.6214285714285714L15.907142857142858,2.8064249638329404L15.907142857142858,3.020710678118655L15.478571428571428,3.449282106690083L15.478571428571428,3.6635678209757976L15.264285714285716,3.877853535261512L15.264285714285716,4.092139249547226L14.62142857142857,4.734996392404369L14.62142857142857,6.407860750452773L14.806424963832939,6.5928571428571425L16.94928210669008,6.5928571428571425L17.37785353526151,7.021428571428571L18.44928210669008,7.021428571428571L18.663567820975796,7.235714285714286L19.092139249547227,7.235714285714286L19.30642496383294,7.45L19.5,7.45L19.5,7.55L19.26500360759563,7.55L19.05071789330992,7.335714285714285L18.62214646473849,7.335714285714285L18.407860750452773,7.121428571428571L17.336432179024204,7.121428571428571L16.907860750452773,6.692857142857142L14.76500360759563,6.692857142857142L14.521428571428569,6.449282106690083L14.521428571428569,4.764285714285714L14.163567820975796,4.764285714285714L13.520710678118654,5.407142857142857L12.877853535261512,5.407142857142857L12.449282106690081,5.835714285714285L12.23499639240437,5.835714285714285L12.035355339059327,6.035355339059327L11.964644660940673,5.964644660940673L12.193575036167061,5.735714285714286L12.407860750452773,5.735714285714286L12.836432179024204,5.307142857142857L13.479289321881346,5.307142857142857L14.122146464738488,4.664285714285715z" stroke="none"/><path d="M24,7.55L24,7.45L25.5,7.45L25.5,7.55z" stroke="none"/><path d="M25.53535533905933,4.535355339059327L25.46464466094067,4.464644660940673L26.96464466094067,2.9646446609406727L27.03535533905933,3.0353553390593273z" stroke="none"/><path d="M20.96464466094067,3.0353553390593273L21.03535533905933,2.9646446609406727L22.53535533905933,4.464644660940673L22.46464466094067,4.535355339059327z" stroke="none"/><path d="M27.03535533905933,5.964644660940673L26.96464466094067,6.035355339059327L26.76500360759563,5.835714285714285L26.550717893309915,5.835714285714285L26.336432179024204,5.621428571428571L24.44928210669008,5.621428571428571L24.03535533905933,6.035355339059327L23.96464466094067,5.964644660940673L24.407860750452773,5.521428571428571L26.37785353526151,5.521428571428571L26.592139249547223,5.735714285714286L26.80642496383294,5.735714285714286z" stroke="none"/><path d="M7.5,12.05L7.5,11.95L7.949282106690083,11.95L8.377853535261512,12.378571428571426L9.622146464738488,12.378571428571426L9.836432179024204,12.164285714285715L10.050717893309915,12.164285714285715L10.26500360759563,11.95L10.5,11.95L10.5,12.05L10.306424963832939,12.05L10.092139249547223,12.264285714285716L9.877853535261512,12.264285714285716L9.663567820975796,12.478571428571428L8.336432179024204,12.478571428571428L7.907860750452773,12.05z" stroke="none"/><path d="M22.5,8.95L22.5,9.05L21.836432179024204,9.05L20.979289321881346,8.192857142857143L20.76500360759563,8.192857142857143L20.521428571428572,7.949282106690083L20.521428571428572,7.734996392404369L20.307142857142857,7.520710678118655L20.307142857142857,7.265003607595631L20.55071789330992,7.021428571428571L21.44928210669008,7.021428571428571L22.520710678118654,8.092857142857142L22.73499639240437,8.092857142857142L22.94928210669008,8.307142857142857L23.163567820975796,8.307142857142857L25.30642496383294,10.45L25.5,10.45L25.5,10.55L25.26500360759563,10.55L23.12214646473849,8.407142857142858L22.907860750452773,8.407142857142858L22.69357503616706,8.192857142857143L22.479289321881346,8.192857142857143L21.407860750452773,7.121428571428571L20.592139249547227,7.121428571428571L20.40714285714286,7.30642496383294L20.40714285714286,7.479289321881345L20.621428571428574,7.69357503616706L20.621428571428574,7.907860750452773L20.80642496383294,8.092857142857142L21.020710678118654,8.092857142857142L21.87785353526151,8.95z" stroke="none"/><path d="M19.5,10.55L19.5,10.45L19.94928210669008,10.45L20.37785353526151,10.878571428571426L21.407860750452773,10.878571428571426L21.59285714285714,10.693575036167061L21.59285714285714,10.306424963832939L21.407860750452773,10.12142857142857L21.19357503616706,10.12142857142857L20.979289321881346,9.907142857142858L20.12214646473849,9.907142857142858L19.479289321881346,9.264285714285716L16.907860750452773,9.264285714285716L16.69357503616706,9.05L16.5,9.05L16.5,8.95L16.73499639240437,8.95L16.94928210669008,9.164285714285715L19.520710678118654,9.164285714285715L20.163567820975796,9.807142857142857L21.020710678118654,9.807142857142857L21.23499639240437,10.021428571428569L21.44928210669008,10.021428571428569L21.692857142857143,10.26500360759563L21.692857142857143,10.73499639240437L21.44928210669008,10.978571428571428L20.336432179024204,10.978571428571428L19.907860750452773,10.55z" stroke="none"/><path d="M2.9646446609406727,4.535355339059327L3.0353553390593273,4.464644660940673L3.234996392404369,4.664285714285715L3.449282106690083,4.664285714285715L3.6635678209757976,4.878571428571429L3.877853535261512,4.878571428571429L4.092139249547226,5.0928571428571425L4.30642496383294,5.0928571428571425L4.520710678118655,5.307142857142857L4.734996392404369,5.307142857142857L5.163567820975797,5.735714285714286L5.80642496383294,5.735714285714286L6.035355339059327,5.964644660940673L5.964644660940673,6.035355339059327L5.765003607595631,5.835714285714285L5.122146464738488,5.835714285714285L4.69357503616706,5.407142857142857L4.479289321881345,5.407142857142857L4.265003607595631,5.192857142857142L4.050717893309916,5.192857142857142L3.8364321790242024,4.978571428571429L3.622146464738488,4.978571428571429L3.4078607504527736,4.764285714285714L3.1935750361670596,4.764285714285714z" stroke="none"/><path d="M6,4.45L6,4.55L5.550717893309916,4.55L5.336432179024202,4.335714285714285L5.122146464738488,4.335714285714285L4.907860750452774,4.121428571428571L2.5921392495472264,4.121428571428571L2.407142857142857,4.30642496383294L2.407142857142857,4.479289321881345L2.6214285714285714,4.69357503616706L2.6214285714285714,4.907860750452774L3.478571428571428,5.765003607595631L3.478571428571428,6.19357503616706L4.335714285714285,7.050717893309916L4.335714285714285,7.265003607595631L4.535355339059327,7.464644660940673L4.464644660940673,7.535355339059327L4.235714285714286,7.30642496383294L4.235714285714286,7.092139249547226L3.3785714285714286,6.234996392404369L3.3785714285714286,5.80642496383294L2.521428571428572,4.949282106690084L2.521428571428572,4.734996392404369L2.3071428571428574,4.520710678118655L2.3071428571428574,4.265003607595631L2.550717893309917,4.021428571428571L4.949282106690084,4.021428571428571L5.163567820975797,4.235714285714286L5.3778535352615116,4.235714285714286L5.592139249547226,4.45z" stroke="none"/><path d="M6,2.95L6,3.05L4.520710678118655,3.05L4.30642496383294,3.2642857142857142L4.092139249547226,3.2642857142857142L3.6635678209757976,3.6928571428571426L3.449282106690083,3.6928571428571426L3.234996392404369,3.907142857142857L2.377853535261512,3.907142857142857L2.1928571428571426,4.092139249547226L2.1928571428571426,5.122146464738488L2.6214285714285714,5.550717893309916L2.6214285714285714,6.19357503616706L3.478571428571428,7.050717893309916L3.478571428571428,7.265003607595631L4.092139249547226,7.878571428571428L4.907860750452774,7.878571428571428L5.122146464738488,7.664285714285715L5.765003607595631,7.664285714285715L5.964644660940673,7.464644660940673L6.035355339059327,7.535355339059327L5.80642496383294,7.764285714285714L5.163567820975797,7.764285714285714L4.949282106690084,7.978571428571428L4.050717893309916,7.978571428571428L3.3785714285714286,7.30642496383294L3.3785714285714286,7.092139249547226L2.521428571428572,6.234996392404369L2.521428571428572,5.592139249547226L2.092857142857143,5.163567820975797L2.092857142857143,4.050717893309916L2.3364321790242024,3.8071428571428574L3.1935750361670596,3.8071428571428574L3.4078607504527736,3.592857142857143L3.622146464738488,3.592857142857143L4.050717893309916,3.1642857142857146L4.265003607595631,3.1642857142857146L4.479289321881345,2.95z" stroke="none"/><path d="M9,8.95L9,9.05L8.377853535261512,9.05L7.949282106690083,9.478571428571428L6.449282106690083,9.478571428571428L6.234996392404369,9.692857142857143L5.80642496383294,9.692857142857143L4.949282106690084,10.55L4.5,10.55L4.5,10.45L4.907860750452774,10.45L5.765003607595631,9.592857142857142L6.19357503616706,9.592857142857142L6.407860750452773,9.378571428571426L7.907860750452773,9.378571428571426L8.336432179024204,8.95z" stroke="none"/><path d="M9.035355339059327,12.035355339059327L8.964644660940673,11.964644660940673L9.193575036167061,11.735714285714284L9.622146464738488,11.735714285714284L9.836432179024204,11.521428571428569L10.949282106690081,11.521428571428569L11.192857142857143,11.76500360759563L11.192857142857143,12.23499639240437L10.73499639240437,12.692857142857143L5.765003607595631,12.692857142857143L4.265003607595631,11.192857142857143L3.8364321790242024,11.192857142857143L3.4078607504527736,10.764285714285716L3.1935750361670596,10.764285714285716L2.9646446609406727,10.535355339059327L3.0353553390593273,10.464644660940673L3.234996392404369,10.664285714285715L3.449282106690083,10.664285714285715L3.877853535261512,11.092857142857142L4.30642496383294,11.092857142857142L5.80642496383294,12.592857142857142L10.693575036167061,12.592857142857142L11.092857142857142,12.193575036167061L11.092857142857142,11.806424963832939L10.907860750452773,11.62142857142857L9.877853535261512,11.62142857142857L9.663567820975796,11.835714285714285L9.23499639240437,11.835714285714285z" stroke="none"/><path d="M10.464644660940673,10.535355339059327L10.535355339059327,10.464644660940673L11.192857142857143,11.122146464738488L11.192857142857143,11.336432179024204L11.407142857142858,11.550717893309915L11.407142857142858,12.193575036167061L11.592139249547223,12.378571428571426L15.622146464738488,12.378571428571426L15.836432179024204,12.164285714285715L16.050717893309915,12.164285714285715L16.26500360759563,11.95L16.5,11.95L16.5,12.05L16.30642496383294,12.05L16.092139249547223,12.264285714285716L15.877853535261512,12.264285714285716L15.663567820975796,12.478571428571428L11.550717893309915,12.478571428571428L11.307142857142857,12.23499639240437L11.307142857142857,11.592139249547223L11.092857142857142,11.377853535261512L11.092857142857142,11.163567820975796z" stroke="none"/><path d="M27.03535533905933,10.464644660940673L26.96464466094067,10.535355339059327L26.12214646473849,9.692857142857143L25.69357503616706,9.692857142857143L24.62214646473849,8.62142857142857L24.407860750452773,8.62142857142857L24.19357503616706,8.407142857142858L23.979289321881346,8.407142857142858L23.52142857142857,7.949282106690083L23.52142857142857,7.520710678118655L23.307142857142857,7.30642496383294L23.307142857142857,7.092139249547226L22.45,6.234996392404369L22.45,6L22.55,6L22.55,6.19357503616706L23.40714285714286,7.050717893309916L23.40714285714286,7.265003607595631L23.62142857142857,7.479289321881345L23.62142857142857,7.907860750452773L24.020710678118654,8.307142857142857L24.23499639240437,8.307142857142857L24.44928210669008,8.521428571428569L24.663567820975796,8.521428571428569L25.73499639240437,9.592857142857142L26.163567820975796,9.592857142857142z" stroke="none"/><path d="M4.5,4.55L4.5,4.45L5.163567820975797,4.45L5.592139249547226,4.878571428571429L11.336432179024204,4.878571428571429L11.76500360759563,4.45L12,4.45L12,4.55L11.806424963832939,4.55L11.377853535261512,4.978571428571429L5.550717893309916,4.978571428571429L5.122146464738488,4.55z" stroke="none"/><path d="M27,4.45L27,4.55L26.80642496383294,4.55L26.592139249547223,4.764285714285714L26.163567820975796,4.764285714285714L25.94928210669008,4.978571428571429L24.020710678118654,4.978571428571429L23.80642496383294,5.192857142857142L20.592139249547227,5.192857142857142L19.73499639240437,6.05L19.5,6.05L19.5,5.95L19.69357503616706,5.95L20.55071789330992,5.0928571428571425L23.76500360759563,5.0928571428571425L23.979289321881346,4.878571428571429L25.907860750452773,4.878571428571429L26.12214646473849,4.664285714285715L26.550717893309915,4.664285714285715L26.76500360759563,4.45z" stroke="none"/><path d="M13.5,3.05L13.5,2.95L14.122146464738488,2.95L14.550717893309915,2.521428571428572L15.622146464738488,2.521428571428572L15.836432179024204,2.3071428571428574L18.020710678118654,2.3071428571428574L18.23499639240437,2.521428571428572L18.663567820975796,2.521428571428572L19.30642496383294,3.1642857142857146L19.520710678118654,3.1642857142857146L20.163567820975796,3.8071428571428574L20.37785353526151,3.8071428571428574L21.03535533905933,4.464644660940673L20.96464466094067,4.535355339059327L20.336432179024204,3.907142857142857L20.12214646473849,3.907142857142857L19.479289321881346,3.2642857142857142L19.26500360759563,3.2642857142857142L18.62214646473849,2.6214285714285714L18.19357503616706,2.6214285714285714L17.979289321881346,2.407142857142857L15.877853535261512,2.407142857142857L15.663567820975796,2.6214285714285714L14.592139249547223,2.6214285714285714L14.163567820975796,3.05z" stroke="none"/><path d="M25.5,5.95L25.5,6.05L25.30642496383294,6.05L25.092139249547223,6.264285714285714L24.663567820975796,6.264285714285714L24.44928210669008,6.478571428571428L23.550717893309915,6.478571428571428L23.09285714285714,6.020710678118655L23.09285714285714,5.80642496383294L22.907860750452773,5.621428571428571L22.092139249547227,5.621428571428571L21.663567820975796,6.05L21.44928210669008,6.05L20.80642496383294,6.692857142857142L20.592139249547227,6.692857142857142L20.192857142857143,7.092139249547226L20.192857142857143,7.69357503616706L20.40714285714286,7.907860750452773L20.40714285714286,8.122146464738488L21.692857142857143,9.407860750452773L21.692857142857143,9.622146464738488L21.90714285714286,9.836432179024204L21.90714285714286,10.949282106690081L21.663567820975796,11.192857142857143L19.907860750452773,11.192857142857143L19.69357503616706,10.978571428571428L18.62214646473849,10.978571428571428L18.19357503616706,10.55L18,10.55L18,10.45L18.23499639240437,10.45L18.663567820975796,10.878571428571426L19.73499639240437,10.878571428571426L19.94928210669008,11.092857142857142L21.62214646473849,11.092857142857142L21.807142857142857,10.907860750452773L21.807142857142857,9.877853535261512L21.59285714285714,9.663567820975796L21.59285714285714,9.449282106690081L20.307142857142857,8.163567820975796L20.307142857142857,7.949282106690083L20.09285714285714,7.734996392404369L20.09285714285714,7.050717893309916L20.55071789330992,6.5928571428571425L20.76500360759563,6.5928571428571425L21.407860750452773,5.95L21.62214646473849,5.95L22.05071789330992,5.521428571428571L22.94928210669008,5.521428571428571L23.192857142857143,5.765003607595631L23.192857142857143,5.979289321881345L23.592139249547223,6.378571428571428L24.407860750452773,6.378571428571428L24.62214646473849,6.164285714285715L25.050717893309915,6.164285714285715L25.26500360759563,5.95z" stroke="none"/><path d="M24,10.45L24,10.55L23.592139249547223,10.55L23.37785353526151,10.764285714285716L23.163567820975796,10.764285714285716L22.520710678118654,11.407142857142858L16.050717893309915,11.407142857142858L15.407860750452773,10.764285714285716L15.193575036167061,10.764285714285716L14.964644660940673,10.535355339059327L15.035355339059327,10.464644660940673L15.23499639240437,10.664285714285715L15.449282106690081,10.664285714285715L16.092139249547223,11.307142857142857L22.479289321881346,11.307142857142857L23.12214646473849,10.664285714285715L23.336432179024204,10.664285714285715L23.550717893309915,10.45z" stroke="none"/><path d="M22.5,11.95L22.5,12.05L19.05071789330992,12.05L18.836432179024204,11.835714285714285L18.62214646473849,11.835714285714285L18.407860750452773,11.62142857142857L15.193575036167061,11.62142857142857L14.550717893309915,10.978571428571428L14.122146464738488,10.978571428571428L13.693575036167061,10.55L13.5,10.55L13.5,10.45L13.73499639240437,10.45L14.163567820975796,10.878571428571426L14.592139249547223,10.878571428571426L15.23499639240437,11.521428571428569L18.44928210669008,11.521428571428569L18.663567820975796,11.735714285714284L18.87785353526151,11.735714285714284L19.092139249547227,11.95z" stroke="none"/><path d="M24,3.05L24,2.95L24.407860750452773,2.95L24.62214646473849,2.7357142857142858L24.836432179024204,2.7357142857142858L25.050717893309915,2.521428571428572L27.44928210669008,2.521428571428572L27.692857142857143,2.765003607595631L27.692857142857143,4.734996392404369L27.44928210669008,4.978571428571429L26.80642496383294,4.978571428571429L26.592139249547223,5.192857142857142L24.44928210669008,5.192857142857142L24.23499639240437,5.407142857142857L21.87785353526151,5.407142857142857L21.44928210669008,5.835714285714285L21.23499639240437,5.835714285714285L21.020710678118654,6.05L20.80642496383294,6.05L19.978571428571428,6.8778535352615116L19.978571428571428,7.949282106690083L19.73499639240437,8.192857142857143L15.836432179024204,8.192857142857143L15.193575036167061,7.55L15,7.55L15,7.45L15.23499639240437,7.45L15.877853535261512,8.092857142857142L19.69357503616706,8.092857142857142L19.878571428571426,7.907860750452773L19.878571428571426,6.836432179024202L20.76500360759563,5.95L20.979289321881346,5.95L21.19357503616706,5.735714285714286L21.407860750452773,5.735714285714286L21.836432179024204,5.307142857142857L24.19357503616706,5.307142857142857L24.407860750452773,5.0928571428571425L26.550717893309915,5.0928571428571425L26.76500360759563,4.878571428571429L27.407860750452773,4.878571428571429L27.59285714285714,4.69357503616706L27.59285714285714,2.8064249638329404L27.407860750452773,2.6214285714285714L25.092139249547223,2.6214285714285714L24.87785353526151,2.8357142857142854L24.663567820975796,2.8357142857142854L24.44928210669008,3.05z" stroke="none"/><path d="M14.964644660940673,2.9646446609406727L15.035355339059327,3.0353553390593273L14.806424963832939,3.2642857142857142L14.592139249547223,3.2642857142857142L14.377853535261512,3.478571428571428L13.050717893309915,3.478571428571428L12.807142857142857,3.234996392404369L12.807142857142857,2.765003607595631L13.050717893309915,2.521428571428572L13.26500360759563,2.521428571428572L13.479289321881346,2.3071428571428574L15.407860750452773,2.3071428571428574L15.622146464738488,2.092857142857143L20.592139249547227,2.092857142857143L20.80642496383294,2.3071428571428574L21.020710678118654,2.3071428571428574L21.23499639240437,2.521428571428572L21.44928210669008,2.521428571428572L21.87785353526151,2.95L22.092139249547227,2.95L22.30642496383294,3.1642857142857146L23.37785353526151,3.1642857142857146L23.592139249547223,3.3785714285714286L24.836432179024204,3.3785714285714286L25.050717893309915,3.1642857142857146L25.26500360759563,3.1642857142857146L25.46464466094067,2.9646446609406727L25.53535533905933,3.0353553390593273L25.30642496383294,3.2642857142857142L25.092139249547223,3.2642857142857142L24.87785353526151,3.478571428571428L23.550717893309915,3.478571428571428L23.336432179024204,3.2642857142857142L22.26500360759563,3.2642857142857142L22.05071789330992,3.05L21.836432179024204,3.05L21.407860750452773,2.6214285714285714L21.19357503616706,2.6214285714285714L20.979289321881346,2.407142857142857L20.76500360759563,2.407142857142857L20.55071789330992,2.1928571428571426L15.663567820975796,2.1928571428571426L15.449282106690081,2.407142857142857L13.520710678118654,2.407142857142857L13.306424963832939,2.6214285714285714L13.092139249547223,2.6214285714285714L12.907142857142858,2.8064249638329404L12.907142857142858,3.1935750361670596L13.092139249547223,3.3785714285714286L14.336432179024204,3.3785714285714286L14.550717893309915,3.1642857142857146L14.76500360759563,3.1642857142857146z" stroke="none"/><path d="M18,11.95L18,12.05L17.37785353526151,12.05L16.94928210669008,12.478571428571428L16.30642496383294,12.478571428571428L16.092139249547223,12.692857142857143L11.592139249547223,12.692857142857143L11.377853535261512,12.907142857142858L5.550717893309916,12.907142857142858L5.122146464738488,12.478571428571428L4.69357503616706,12.478571428571428L3.622146464738488,11.407142857142858L3.1935750361670596,11.407142857142858L2.979289321881345,11.192857142857143L2.765003607595631,11.192857142857143L2.521428571428572,10.949282106690081L2.521428571428572,10.050717893309915L2.765003607595631,9.807142857142857L4.907860750452774,9.807142857142857L5.336432179024202,9.378571428571426L5.550717893309916,9.378571428571426L5.765003607595631,9.164285714285715L7.265003607595631,9.164285714285715L7.464644660940673,8.964644660940673L7.535355339059327,9.035355339059327L7.30642496383294,9.264285714285716L5.80642496383294,9.264285714285716L5.592139249547226,9.478571428571428L5.3778535352615116,9.478571428571428L4.949282106690084,9.907142857142858L2.8064249638329404,9.907142857142858L2.6214285714285714,10.092139249547223L2.6214285714285714,10.907860750452773L2.8064249638329404,11.092857142857142L3.020710678118655,11.092857142857142L3.234996392404369,11.307142857142857L3.6635678209757976,11.307142857142857L4.734996392404369,12.378571428571426L5.163567820975797,12.378571428571426L5.592139249547226,12.807142857142857L11.336432179024204,12.807142857142857L11.550717893309915,12.592857142857142L16.050717893309915,12.592857142857142L16.26500360759563,12.378571428571426L16.907860750452773,12.378571428571426L17.336432179024204,11.95z" stroke="none"/><path d="M12,8.95L12,9.05L10.479289321881346,9.05L10.26500360759563,8.835714285714285L9.622146464738488,8.835714285714285L9.407860750452773,8.62142857142857L6.449282106690083,8.62142857142857L6.020710678118655,9.05L5.592139249547226,9.05L5.3778535352615116,9.264285714285716L5.163567820975797,9.264285714285716L4.949282106690084,9.478571428571428L3.020710678118655,9.478571428571428L2.8064249638329404,9.692857142857143L2.5921392495472264,9.692857142857143L2.407142857142857,9.877853535261512L2.407142857142857,11.122146464738488L2.5921392495472264,11.307142857142857L2.8064249638329404,11.307142857142857L3.234996392404369,11.735714285714284L3.449282106690083,11.735714285714284L4.30642496383294,12.592857142857142L4.520710678118655,12.592857142857142L4.734996392404369,12.807142857142857L4.949282106690084,12.807142857142857L5.163567820975797,13.021428571428569L15.193575036167061,13.021428571428569L15.407860750452773,12.807142857142857L16.479289321881346,12.807142857142857L16.69357503616706,12.592857142857142L23.336432179024204,12.592857142857142L23.96464466094067,11.964644660940673L24.03535533905933,12.035355339059327L23.37785353526151,12.692857142857143L16.73499639240437,12.692857142857143L16.520710678118654,12.907142857142858L15.449282106690081,12.907142857142858L15.23499639240437,13.12142857142857L5.122146464738488,13.12142857142857L4.907860750452774,12.907142857142858L4.69357503616706,12.907142857142858L4.479289321881345,12.692857142857143L4.265003607595631,12.692857142857143L3.4078607504527736,11.835714285714285L3.1935750361670596,11.835714285714285L2.765003607595631,11.407142857142858L2.550717893309917,11.407142857142858L2.3071428571428574,11.163567820975796L2.3071428571428574,9.836432179024204L2.550717893309917,9.592857142857142L2.765003607595631,9.592857142857142L2.979289321881345,9.378571428571426L4.907860750452774,9.378571428571426L5.122146464738488,9.164285714285715L5.336432179024202,9.164285714285715L5.550717893309916,8.95L5.979289321881345,8.95L6.407860750452773,8.521428571428569L9.449282106690081,8.521428571428569L9.663567820975796,8.735714285714284L10.306424963832939,8.735714285714284L10.520710678118654,8.95z" stroke="none"/></svg>