<svg version="1.1" width="30" height="15" xmlns="http://www.w3.org/2000/svg"><path d="M7.092139249547226,4.45L7.30642496383294,4.664285714285715L7.520710678118655,4.664285714285715L7.949282106690083,5.0928571428571425L8.163567820975796,5.0928571428571425L9.020710678118654,5.95L9.23499639240437,5.95L9.449282106690081,6.164285714285715L9.877853535261512,6.164285714285715L10.092139249547223,6.378571428571428L10.907860750452773,6.378571428571428L11.307142857142857,5.979289321881345L11.307142857142857,5.765003607595631L11.521428571428569,5.550717893309916L11.521428571428569,5.336432179024202L11.735714285714284,5.122146464738488L11.735714285714284,4.907860750452774L11.95,4.69357503616706L11.95,4.5L12.05,4.5L12.05,4.734996392404369L11.835714285714285,4.949282106690084L11.835714285714285,5.163567820975797L11.62142857142857,5.3778535352615116L11.62142857142857,5.592139249547226L11.407142857142858,5.80642496383294L11.407142857142858,6.020710678118655L10.949282106690081,6.478571428571428L10.050717893309915,6.478571428571428L9.836432179024204,6.264285714285714L9.407860750452773,6.264285714285714L9.193575036167061,6.05L8.979289321881346,6.05L8.122146464738488,5.192857142857142L7.907860750452773,5.192857142857142L7.479289321881345,4.764285714285714L7.265003607595631,4.764285714285714L7.050717893309916,4.55L6.907142857142857,4.55L6.907142857142857,4.734996392404369L6.663567820975797,4.978571428571429L5.550717893309916,4.978571428571429L5.336432179024202,4.764285714285714L4.050717893309916,4.764285714285714L3.8364321790242024,4.55L3,4.55L3,4.45L3.877853535261512,4.45L4.092139249547226,4.664285714285715L5.3778535352615116,4.664285714285715L5.592139249547226,4.878571428571429L6.622146464738488,4.878571428571429L6.807142857142857,4.69357503616706L6.807142857142857,4.55L6,4.55L6,4.45z" stroke="none"/><path d="M8.357142857142858,3.7864321790242026L8.521428571428569,3.622146464738488L8.521428571428569,3.4078607504527736L8.964644660940673,2.9646446609406727L9.035355339059327,3.0353553390593273L8.62142857142857,3.449282106690083L8.62142857142857,3.6635678209757976L8.407142857142858,3.877853535261512L8.407142857142858,4.69357503616706L9.020710678118654,5.307142857142857L9.877853535261512,5.307142857142857L10.535355339059327,5.964644660940673L10.464644660940673,6.035355339059327L9.836432179024204,5.407142857142857L8.979289321881346,5.407142857142857L8.307142857142857,4.734996392404369L8.307142857142857,3.877853535261512L8.122146464738488,3.6928571428571426L7.907860750452773,3.6928571428571426L7.69357503616706,3.478571428571428L7.479289321881345,3.478571428571428L7.265003607595631,3.2642857142857142L6.836432179024202,3.2642857142857142L6.622146464738488,3.05L6,3.05L6,2.95L6.663567820975797,2.95L6.8778535352615116,3.1642857142857146L7.30642496383294,3.1642857142857146L7.520710678118655,3.3785714285714286L7.734996392404369,3.3785714285714286L7.949282106690083,3.592857142857143L8.163567820975796,3.592857142857143z" stroke="none"/><path d="M6.407860750452773,6.378571428571428L6.836432179024202,5.95L7.5,5.95L7.5,6.05L6.8778535352615116,6.05L6.449282106690083,6.478571428571428L5.477853535261511,6.478571428571428L5.835714285714285,6.836432179024202L5.835714285714285,7.265003607595631L6.035355339059327,7.464644660940673L5.964644660940673,7.535355339059327L5.735714285714286,7.30642496383294L5.735714285714286,6.8778535352615116L5.336432179024202,6.478571428571428L4.907860750452774,6.478571428571428L4.69357503616706,6.264285714285714L4.265003607595631,6.264285714285714L4.050717893309916,6.05L3,6.05L3,5.95L4.092139249547226,5.95L4.30642496383294,6.164285714285715L4.734996392404369,6.164285714285715L4.949282106690084,6.378571428571428z" stroke="none"/><path d="M19.73499639240437,5.0928571428571425L24.020710678118654,5.0928571428571425L25.092139249547223,6.164285714285715L26.163567820975796,6.164285714285715L26.37785353526151,6.378571428571428L27.407860750452773,6.378571428571428L27.59285714285714,6.19357503616706L27.59285714285714,5.80642496383294L27.164285714285715,5.3778535352615116L27.164285714285715,4.949282106690084L26.95,4.734996392404369L26.95,4.5L27.05,4.5L27.05,4.69357503616706L27.264285714285716,4.907860750452774L27.264285714285716,5.336432179024202L27.692857142857143,5.765003607595631L27.692857142857143,6.234996392404369L27.44928210669008,6.478571428571428L26.336432179024204,6.478571428571428L26.12214646473849,6.264285714285714L25.050717893309915,6.264285714285714L23.979289321881346,5.192857142857142L19.73499639240437,5.192857142857142L19.55,5.3778535352615116L19.55,5.592139249547226L18.90714285714286,6.234996392404369L18.90714285714286,6.663567820975797L18.03535533905933,7.535355339059327L17.96464466094067,7.464644660940673L18.807142857142857,6.622146464738488L18.807142857142857,6.19357503616706L19.45,5.550717893309916L19.45,5.336432179024202L19.59357503616706,5.192857142857142L19.092139249547227,5.192857142857142L18.87785353526151,5.407142857142857L18.44928210669008,5.407142857142857L18.23499639240437,5.621428571428571L17.37785353526151,5.621428571428571L17.163567820975796,5.835714285714285L16.73499639240437,5.835714285714285L16.53535533905933,6.035355339059327L16.46464466094067,5.964644660940673L16.69357503616706,5.735714285714286L17.12214646473849,5.735714285714286L17.336432179024204,5.521428571428571L18.19357503616706,5.521428571428571L18.407860750452773,5.307142857142857L18.836432179024204,5.307142857142857L19.05071789330992,5.0928571428571425L19.59357503616706,5.0928571428571425L19.479289321881346,4.978571428571429L19.05071789330992,4.978571428571429L18.59285714285714,4.520710678118655L18.59285714285714,4.30642496383294L18.164285714285715,3.877853535261512L18.164285714285715,3.234996392404369L17.96464466094067,3.0353553390593273L18.03535533905933,2.9646446609406727L18.264285714285716,3.1935750361670596L18.264285714285716,3.8364321790242024L18.692857142857143,4.265003607595631L18.692857142857143,4.479289321881345L19.092139249547227,4.878571428571429L19.520710678118654,4.878571428571429z" stroke="none"/><path d="M21.164285714285715,6.5928571428571425L21.164285714285715,6.449282106690083L20.979289321881346,6.264285714285714L20.80642496383294,6.264285714285714L19.30642496383294,7.764285714285714L18.87785353526151,7.764285714285714L18.663567820975796,7.978571428571428L17.55071789330992,7.978571428571428L17.09285714285714,7.520710678118655L17.09285714285714,7.30642496383294L16.479289321881346,6.692857142857142L16.26500360759563,6.692857142857142L16.02142857142857,6.449282106690083L16.02142857142857,6.234996392404369L15.407860750452773,5.621428571428571L14.979289321881346,5.621428571428571L14.76500360759563,5.407142857142857L14.550717893309915,5.407142857142857L13.907860750452773,4.764285714285714L13.693575036167061,4.764285714285714L13.464644660940673,4.535355339059327L13.535355339059327,4.464644660940673L13.73499639240437,4.664285714285715L13.949282106690081,4.664285714285715L14.592139249547223,5.307142857142857L14.806424963832939,5.307142857142857L15.020710678118654,5.521428571428571L15.449282106690081,5.521428571428571L16.12142857142857,6.19357503616706L16.12142857142857,6.407860750452773L16.30642496383294,6.5928571428571425L16.520710678118654,6.5928571428571425L17.192857142857143,7.265003607595631L17.192857142857143,7.479289321881345L17.592139249547227,7.878571428571428L18.62214646473849,7.878571428571428L18.836432179024204,7.664285714285715L19.26500360759563,7.664285714285715L20.76500360759563,6.164285714285715L21.020710678118654,6.164285714285715L21.264285714285716,6.407860750452773L21.264285714285716,6.5928571428571425L21.836432179024204,6.5928571428571425L22.479289321881346,5.95L24,5.95L24,6.05L22.520710678118654,6.05L21.87785353526151,6.692857142857142L21.264285714285716,6.692857142857142L21.264285714285716,6.836432179024202L21.44928210669008,7.021428571428571L23.163567820975796,7.021428571428571L23.37785353526151,7.235714285714286L23.592139249547223,7.235714285714286L23.80642496383294,7.45L24,7.45L24,7.55L23.76500360759563,7.55L23.550717893309915,7.335714285714285L23.336432179024204,7.335714285714285L23.12214646473849,7.121428571428571L21.407860750452773,7.121428571428571L21.164285714285715,6.8778535352615116L21.164285714285715,6.692857142857142L21.020710678118654,6.692857142857142L20.835714285714285,6.8778535352615116L20.835714285714285,7.050717893309916L22.30642496383294,8.521428571428569L22.520710678118654,8.521428571428569L22.73499639240437,8.735714285714284L23.592139249547223,8.735714285714284L23.80642496383294,8.95L24,8.95L24,9.05L23.76500360759563,9.05L23.550717893309915,8.835714285714285L22.69357503616706,8.835714285714285L22.479289321881346,8.62142857142857L22.26500360759563,8.62142857142857L20.735714285714284,7.092139249547226L20.735714285714284,6.836432179024202L20.979289321881346,6.5928571428571425z" stroke="none"/><path d="M22.45,4.45L22.45,4.265003607595631L22.69357503616706,4.021428571428571L23.336432179024204,4.021428571428571L23.550717893309915,3.8071428571428574L23.76500360759563,3.8071428571428574L23.979289321881346,3.592857142857143L24.19357503616706,3.592857142857143L24.407860750452773,3.3785714285714286L25.907860750452773,3.3785714285714286L26.336432179024204,2.95L27,2.95L27,3.05L26.37785353526151,3.05L25.94928210669008,3.478571428571428L24.44928210669008,3.478571428571428L24.23499639240437,3.6928571428571426L24.020710678118654,3.6928571428571426L23.80642496383294,3.907142857142857L23.592139249547223,3.907142857142857L23.37785353526151,4.121428571428571L22.73499639240437,4.121428571428571L22.55,4.30642496383294L22.55,4.45L22.94928210669008,4.45L23.37785353526151,4.878571428571429L25.73499639240437,4.878571428571429L26.163567820975796,5.307142857142857L26.37785353526151,5.307142857142857L27.03535533905933,5.964644660940673L26.96464466094067,6.035355339059327L26.336432179024204,5.407142857142857L26.12214646473849,5.407142857142857L25.69357503616706,4.978571428571429L23.336432179024204,4.978571428571429L22.907860750452773,4.55L22.55,4.55L22.55,4.734996392404369L22.30642496383294,4.978571428571429L21.19357503616706,4.978571428571429L20.979289321881346,4.764285714285714L19.26500360759563,4.764285714285714L19.021428571428572,4.520710678118655L19.021428571428572,3.449282106690083L18.807142857142857,3.234996392404369L18.807142857142857,3.020710678118655L18.407860750452773,2.6214285714285714L17.592139249547227,2.6214285714285714L16.978571428571428,3.234996392404369L16.978571428571428,3.877853535261512L16.55,4.30642496383294L16.55,4.5L16.45,4.5L16.45,4.265003607595631L16.878571428571426,3.8364321790242024L16.878571428571426,3.1935750361670596L17.55071789330992,2.521428571428572L18.44928210669008,2.521428571428572L18.90714285714286,2.979289321881345L18.90714285714286,3.1935750361670596L19.121428571428574,3.4078607504527736L19.121428571428574,4.479289321881345L19.30642496383294,4.664285714285715L21.020710678118654,4.664285714285715L21.23499639240437,4.878571428571429L22.26500360759563,4.878571428571429L22.45,4.69357503616706L22.45,4.55L19.5,4.55L19.5,4.45z" stroke="none"/><path d="M7.5,11.95L7.5,12.05L6,12.05L6,11.95z" stroke="none"/><path d="M24,3.05L24,2.95L25.5,2.95L25.5,3.05z" stroke="none"/><path d="M22.5,10.45L22.5,10.55L21,10.55L21,10.45z" stroke="none"/><path d="M26.96464466094067,7.464644660940673L27.03535533905933,7.535355339059327L25.53535533905933,9.035355339059327L25.46464466094067,8.964644660940673z" stroke="none"/><path d="M15.035355339059327,10.464644660940673L14.964644660940673,10.535355339059327L13.464644660940673,9.035355339059327L13.535355339059327,8.964644660940673z" stroke="none"/><path d="M16.45,3L16.55,3L16.55,3.6635678209757976L16.12142857142857,4.092139249547226L16.12142857142857,4.907860750452774L16.30642496383294,5.0928571428571425L17.12214646473849,5.0928571428571425L17.76500360759563,4.45L18,4.45L18,4.55L17.80642496383294,4.55L17.163567820975796,5.192857142857142L16.26500360759563,5.192857142857142L16.02142857142857,4.949282106690084L16.02142857142857,4.050717893309916L16.45,3.622146464738488z" stroke="none"/><path d="M22.5,3.05L22.5,2.95L22.69357503616706,2.95L23.12214646473849,2.521428571428572L27.44928210669008,2.521428571428572L27.692857142857143,2.765003607595631L27.692857142857143,3.234996392404369L27.44928210669008,3.478571428571428L27.23499639240437,3.478571428571428L27.020710678118654,3.6928571428571426L25.94928210669008,3.6928571428571426L25.73499639240437,3.907142857142857L25.30642496383294,3.907142857142857L25.092139249547223,4.121428571428571L24.663567820975796,4.121428571428571L24.23499639240437,4.55L24,4.55L24,4.45L24.19357503616706,4.45L24.62214646473849,4.021428571428571L25.050717893309915,4.021428571428571L25.26500360759563,3.8071428571428574L25.69357503616706,3.8071428571428574L25.907860750452773,3.592857142857143L26.979289321881346,3.592857142857143L27.19357503616706,3.3785714285714286L27.407860750452773,3.3785714285714286L27.59285714285714,3.1935750361670596L27.59285714285714,2.8064249638329404L27.407860750452773,2.6214285714285714L23.163567820975796,2.6214285714285714L22.73499639240437,3.05z" stroke="none"/><path d="M13.535355339059327,7.535355339059327L13.464644660940673,7.464644660940673L14.964644660940673,5.964644660940673L15.035355339059327,6.035355339059327z" stroke="none"/><path d="M6,9.05L6,8.95L6.622146464738488,8.95L6.836432179024202,8.735714285714284L7.050717893309916,8.735714285714284L7.265003607595631,8.521428571428569L7.479289321881345,8.521428571428569L7.69357503616706,8.307142857142857L7.907860750452773,8.307142857142857L8.76500360759563,7.45L9,7.45L9,7.55L8.806424963832939,7.55L7.949282106690083,8.407142857142858L7.734996392404369,8.407142857142858L7.520710678118655,8.62142857142857L7.30642496383294,8.62142857142857L7.092139249547226,8.835714285714285L6.8778535352615116,8.835714285714285L6.663567820975797,9.05z" stroke="none"/><path d="M2.9646446609406727,2.9646446609406727L3.0353553390593273,3.0353553390593273L2.8357142857142854,3.234996392404369L2.8357142857142854,3.877853535261512L2.6214285714285714,4.092139249547226L2.6214285714285714,6.836432179024202L2.8357142857142854,7.050717893309916L2.8357142857142854,7.265003607595631L3.0353553390593273,7.464644660940673L2.9646446609406727,7.535355339059327L2.7357142857142858,7.30642496383294L2.7357142857142858,7.092139249547226L2.521428571428572,6.8778535352615116L2.521428571428572,4.050717893309916L2.7357142857142858,3.8364321790242024L2.7357142857142858,3.1935750361670596z" stroke="none"/><path d="M13.5,10.45L13.5,10.55L12.193575036167061,10.55L11.550717893309915,9.907142857142858L10.050717893309915,9.907142857142858L9.407860750452773,9.264285714285716L9.193575036167061,9.264285714285716L8.964644660940673,9.035355339059327L9.035355339059327,8.964644660940673L9.23499639240437,9.164285714285715L9.449282106690081,9.164285714285715L10.092139249547223,9.807142857142857L11.592139249547223,9.807142857142857L12.23499639240437,10.45z" stroke="none"/><path d="M6,6.05L6,5.95L6.407860750452773,5.95L6.622146464738488,5.735714285714286L6.836432179024202,5.735714285714286L7.050717893309916,5.521428571428571L7.949282106690083,5.521428571428571L9.478571428571428,7.050717893309916L9.478571428571428,7.949282106690083L9.020710678118654,8.407142857142858L8.806424963832939,8.407142857142858L8.407142857142858,8.806424963832939L8.407142857142858,9.020710678118654L7.764285714285714,9.663567820975796L7.764285714285714,10.092139249547223L7.55,10.306424963832939L7.55,10.5L7.45,10.5L7.45,10.26500360759563L7.664285714285715,10.050717893309915L7.664285714285715,9.622146464738488L8.307142857142857,8.979289321881346L8.307142857142857,8.76500360759563L8.76500360759563,8.307142857142857L8.979289321881346,8.307142857142857L9.378571428571426,7.907860750452773L9.378571428571426,7.092139249547226L7.907860750452773,5.621428571428571L7.092139249547226,5.621428571428571L6.8778535352615116,5.835714285714285L6.663567820975797,5.835714285714285L6.449282106690083,6.05z" stroke="none"/><path d="M9,11.95L9,12.05L8.336432179024204,12.05L7.907860750452773,11.62142857142857L5.979289321881345,11.62142857142857L5.765003607595631,11.407142857142858L5.336432179024202,11.407142857142858L4.464644660940673,10.535355339059327L4.535355339059327,10.464644660940673L5.3778535352615116,11.307142857142857L5.80642496383294,11.307142857142857L6.020710678118655,11.521428571428569L7.949282106690083,11.521428571428569L8.377853535261512,11.95z" stroke="none"/><path d="M13.464644660940673,2.9646446609406727L13.535355339059327,3.0353553390593273L13.335714285714285,3.234996392404369L13.335714285714285,3.877853535261512L13.12142857142857,4.092139249547226L13.12142857142857,5.592139249547226L12.907142857142858,5.80642496383294L12.907142857142858,6.020710678118655L12.692857142857143,6.234996392404369L12.692857142857143,6.8778535352615116L12.035355339059327,7.535355339059327L11.964644660940673,7.464644660940673L12.592857142857142,6.836432179024202L12.592857142857142,6.19357503616706L12.807142857142857,5.979289321881345L12.807142857142857,5.765003607595631L13.021428571428569,5.550717893309916L13.021428571428569,4.050717893309916L13.235714285714284,3.8364321790242024L13.235714285714284,3.1935750361670596z" stroke="none"/><path d="M25.55,12L25.45,12L25.45,11.806424963832939L25.235714285714284,11.592139249547223L25.235714285714284,11.377853535261512L25.02142857142857,11.163567820975796L25.02142857142857,9.23499639240437L24.407860750452773,8.62142857142857L24.19357503616706,8.62142857142857L23.550717893309915,7.978571428571428L23.336432179024204,7.978571428571428L22.907860750452773,7.55L22.5,7.55L22.5,7.45L22.94928210669008,7.45L23.37785353526151,7.878571428571428L23.592139249547223,7.878571428571428L24.23499639240437,8.521428571428569L24.44928210669008,8.521428571428569L25.12142857142857,9.193575036167061L25.12142857142857,11.122146464738488L25.335714285714285,11.336432179024204L25.335714285714285,11.550717893309915L25.55,11.76500360759563z" stroke="none"/><path d="M16.5,7.45L16.5,7.55L14.592139249547223,7.55L14.377853535261512,7.764285714285714L14.163567820975796,7.764285714285714L13.949282106690081,7.978571428571428L11.336432179024204,7.978571428571428L11.122146464738488,7.764285714285714L10.693575036167061,7.764285714285714L10.464644660940673,7.535355339059327L10.535355339059327,7.464644660940673L10.73499639240437,7.664285714285715L11.163567820975796,7.664285714285715L11.377853535261512,7.878571428571428L13.907860750452773,7.878571428571428L14.122146464738488,7.664285714285715L14.336432179024204,7.664285714285715L14.550717893309915,7.45z" stroke="none"/><path d="M19.5,10.55L19.5,10.45L19.94928210669008,10.45L20.37785353526151,10.878571428571426L20.592139249547227,10.878571428571426L20.80642496383294,11.092857142857142L22.092139249547227,11.092857142857142L22.30642496383294,11.307142857142857L22.94928210669008,11.307142857142857L23.592139249547223,11.95L24.44928210669008,11.95L24.87785353526151,12.378571428571426L25.907860750452773,12.378571428571426L26.09285714285714,12.193575036167061L26.09285714285714,11.377853535261512L25.664285714285715,10.949282106690081L25.664285714285715,10.73499639240437L25.46464466094067,10.535355339059327L25.53535533905933,10.464644660940673L25.764285714285716,10.693575036167061L25.764285714285716,10.907860750452773L26.192857142857143,11.336432179024204L26.192857142857143,12.23499639240437L25.94928210669008,12.478571428571428L24.836432179024204,12.478571428571428L24.407860750452773,12.05L23.550717893309915,12.05L22.907860750452773,11.407142857142858L22.26500360759563,11.407142857142858L22.05071789330992,11.192857142857143L20.76500360759563,11.192857142857143L20.55071789330992,10.978571428571428L20.336432179024204,10.978571428571428L19.907860750452773,10.55z" stroke="none"/><path d="M12,9.05L12,8.95L12.622146464738488,8.95L13.050717893309915,8.521428571428569L15.23499639240437,8.521428571428569L15.449282106690081,8.735714285714284L16.092139249547223,8.735714285714284L17.592139249547227,10.235714285714284L17.80642496383294,10.235714285714284L18.03535533905933,10.464644660940673L17.96464466094067,10.535355339059327L17.76500360759563,10.335714285714285L17.55071789330992,10.335714285714285L16.050717893309915,8.835714285714285L15.407860750452773,8.835714285714285L15.193575036167061,8.62142857142857L13.092139249547223,8.62142857142857L12.663567820975796,9.05z" stroke="none"/><path d="M20.96464466094067,8.964644660940673L21.03535533905933,9.035355339059327L20.37785353526151,9.692857142857143L19.94928210669008,9.692857142857143L19.73499639240437,9.907142857142858L19.30642496383294,9.907142857142858L19.121428571428574,10.092139249547223L19.121428571428574,10.907860750452773L19.30642496383294,11.092857142857142L20.163567820975796,11.092857142857142L20.37785353526151,11.307142857142857L21.663567820975796,11.307142857142857L21.87785353526151,11.521428571428569L22.73499639240437,11.521428571428569L23.37785353526151,12.164285714285715L24.23499639240437,12.164285714285715L24.663567820975796,12.592857142857142L26.12214646473849,12.592857142857142L26.307142857142857,12.407860750452773L26.307142857142857,9.836432179024204L26.735714285714284,9.407860750452773L26.735714285714284,9.193575036167061L26.95,8.979289321881346L26.95,8.550717893309915L27.59285714285714,7.907860750452773L27.59285714285714,6.836432179024202L27.807142857142857,6.622146464738488L27.807142857142857,5.163567820975797L27.59285714285714,4.949282106690084L27.59285714285714,4.30642496383294L27.407860750452773,4.121428571428571L26.37785353526151,4.121428571428571L26.163567820975796,4.335714285714285L25.94928210669008,4.335714285714285L25.73499639240437,4.55L25.5,4.55L25.5,4.45L25.69357503616706,4.45L25.907860750452773,4.235714285714286L26.12214646473849,4.235714285714286L26.336432179024204,4.021428571428571L27.44928210669008,4.021428571428571L27.692857142857143,4.265003607595631L27.692857142857143,4.907860750452774L27.90714285714286,5.122146464738488L27.90714285714286,6.663567820975797L27.692857142857143,6.8778535352615116L27.692857142857143,7.949282106690083L27.05,8.592139249547223L27.05,9.020710678118654L26.835714285714285,9.23499639240437L26.835714285714285,9.449282106690081L26.40714285714286,9.877853535261512L26.40714285714286,12.449282106690081L26.163567820975796,12.692857142857143L24.62214646473849,12.692857142857143L24.19357503616706,12.264285714285716L23.336432179024204,12.264285714285716L22.69357503616706,11.62142857142857L21.836432179024204,11.62142857142857L21.62214646473849,11.407142857142858L20.336432179024204,11.407142857142858L20.12214646473849,11.192857142857143L19.26500360759563,11.192857142857143L19.021428571428572,10.949282106690081L19.021428571428572,10.050717893309915L19.26500360759563,9.807142857142857L19.69357503616706,9.807142857142857L19.907860750452773,9.592857142857142L20.336432179024204,9.592857142857142z" stroke="none"/><path d="M10.5,9.05L10.5,8.95L10.73499639240437,8.95L10.949282106690081,9.164285714285715L11.163567820975796,9.164285714285715L11.377853535261512,9.378571428571426L13.306424963832939,9.378571428571426L13.978571428571428,10.050717893309915L13.978571428571428,10.949282106690081L13.73499639240437,11.192857142857143L11.163567820975796,11.192857142857143L10.73499639240437,11.62142857142857L10.520710678118654,11.62142857142857L10.092139249547223,12.05L9.877853535261512,12.05L9.449282106690081,12.478571428571428L4.050717893309916,12.478571428571428L3.8364321790242024,12.264285714285716L3.1935750361670596,12.264285714285716L2.9646446609406727,12.035355339059327L3.0353553390593273,11.964644660940673L3.234996392404369,12.164285714285715L3.877853535261512,12.164285714285715L4.092139249547226,12.378571428571426L9.407860750452773,12.378571428571426L9.836432179024204,11.95L10.050717893309915,11.95L10.479289321881346,11.521428571428569L10.693575036167061,11.521428571428569L11.122146464738488,11.092857142857142L13.693575036167061,11.092857142857142L13.878571428571426,10.907860750452773L13.878571428571426,10.092139249547223L13.26500360759563,9.478571428571428L11.336432179024204,9.478571428571428L11.122146464738488,9.264285714285716L10.907860750452773,9.264285714285716L10.693575036167061,9.05z" stroke="none"/><path d="M15,11.95L15,12.05L10.949282106690081,12.05L10.73499639240437,12.264285714285716L10.520710678118654,12.264285714285716L10.306424963832939,12.478571428571428L10.092139249547223,12.478571428571428L9.877853535261512,12.692857142857143L2.765003607595631,12.692857142857143L2.521428571428572,12.449282106690081L2.521428571428572,11.550717893309915L2.765003607595631,11.307142857142857L3.449282106690083,11.307142857142857L3.877853535261512,11.735714285714284L4.092139249547226,11.735714285714284L4.30642496383294,11.95L4.5,11.95L4.5,12.05L4.265003607595631,12.05L4.050717893309916,11.835714285714285L3.8364321790242024,11.835714285714285L3.4078607504527736,11.407142857142858L2.8064249638329404,11.407142857142858L2.6214285714285714,11.592139249547223L2.6214285714285714,12.407860750452773L2.8064249638329404,12.592857142857142L9.836432179024204,12.592857142857142L10.050717893309915,12.378571428571426L10.26500360759563,12.378571428571426L10.479289321881346,12.164285714285715L10.693575036167061,12.164285714285715L10.907860750452773,11.95z" stroke="none"/><path d="M21,11.95L21,12.05L16.30642496383294,12.05L16.092139249547223,12.264285714285716L15.877853535261512,12.264285714285716L15.663567820975796,12.478571428571428L10.949282106690081,12.478571428571428L10.73499639240437,12.692857142857143L10.306424963832939,12.692857142857143L10.092139249547223,12.907142857142858L2.550717893309917,12.907142857142858L2.3071428571428574,12.663567820975796L2.3071428571428574,11.336432179024204L2.765003607595631,10.878571428571426L2.979289321881345,10.878571428571426L3.4078607504527736,10.45L3.622146464738488,10.45L4.050717893309916,10.021428571428569L5.592139249547226,10.021428571428569L5.80642496383294,10.235714285714284L6.020710678118655,10.235714285714284L6.234996392404369,10.45L6.449282106690083,10.45L6.663567820975797,10.664285714285715L6.8778535352615116,10.664285714285715L7.092139249547226,10.878571428571426L10.050717893309915,10.878571428571426L10.464644660940673,10.464644660940673L10.535355339059327,10.535355339059327L10.092139249547223,10.978571428571428L7.050717893309916,10.978571428571428L6.836432179024202,10.764285714285716L6.622146464738488,10.764285714285716L6.407860750452773,10.55L6.19357503616706,10.55L5.979289321881345,10.335714285714285L5.765003607595631,10.335714285714285L5.550717893309916,10.12142857142857L4.092139249547226,10.12142857142857L3.6635678209757976,10.55L3.449282106690083,10.55L3.020710678118655,10.978571428571428L2.8064249638329404,10.978571428571428L2.407142857142857,11.377853535261512L2.407142857142857,12.622146464738488L2.5921392495472264,12.807142857142857L10.050717893309915,12.807142857142857L10.26500360759563,12.592857142857142L10.693575036167061,12.592857142857142L10.907860750452773,12.378571428571426L15.622146464738488,12.378571428571426L15.836432179024204,12.164285714285715L16.050717893309915,12.164285714285715L16.26500360759563,11.95z" stroke="none"/><path d="M7.5,7.45L7.5,7.55L7.092139249547226,7.55L6.020710678118655,8.62142857142857L5.592139249547226,8.62142857142857L4.30642496383294,9.907142857142858L3.877853535261512,9.907142857142858L3.449282106690083,10.335714285714285L3.234996392404369,10.335714285714285L3.020710678118655,10.55L2.8064249638329404,10.55L2.1928571428571426,11.163567820975796L2.1928571428571426,12.836432179024204L2.377853535261512,13.021428571428569L18.836432179024204,13.021428571428569L19.05071789330992,12.807142857142857L19.69357503616706,12.807142857142857L19.907860750452773,12.592857142857142L20.55071789330992,12.592857142857142L20.76500360759563,12.378571428571426L21.407860750452773,12.378571428571426L21.59285714285714,12.193575036167061L21.59285714285714,11.806424963832939L21.407860750452773,11.62142857142857L19.26500360759563,11.62142857142857L18.59285714285714,10.949282106690081L18.59285714285714,10.73499639240437L18.378571428571426,10.520710678118654L18.378571428571426,9.449282106690081L17.96464466094067,9.035355339059327L18.03535533905933,8.964644660940673L18.478571428571428,9.407860750452773L18.478571428571428,10.479289321881346L18.692857142857143,10.693575036167061L18.692857142857143,10.907860750452773L19.30642496383294,11.521428571428569L21.44928210669008,11.521428571428569L21.692857142857143,11.76500360759563L21.692857142857143,12.23499639240437L21.44928210669008,12.478571428571428L20.80642496383294,12.478571428571428L20.592139249547227,12.692857142857143L19.94928210669008,12.692857142857143L19.73499639240437,12.907142857142858L19.092139249547227,12.907142857142858L18.87785353526151,13.12142857142857L2.3364321790242024,13.12142857142857L2.092857142857143,12.877853535261512L2.092857142857143,11.122146464738488L2.765003607595631,10.45L2.979289321881345,10.45L3.1935750361670596,10.235714285714284L3.4078607504527736,10.235714285714284L3.8364321790242024,9.807142857142857L4.265003607595631,9.807142857142857L5.550717893309916,8.521428571428569L5.979289321881345,8.521428571428569L7.050717893309916,7.45z" stroke="none"/><path d="M9,4.55L9,4.45L10.693575036167061,4.45L11.122146464738488,4.021428571428571L12.449282106690081,4.021428571428571L12.692857142857143,4.265003607595631L12.692857142857143,5.163567820975797L11.163567820975796,6.692857142857142L10.73499639240437,6.692857142857142L10.520710678118654,6.907142857142857L10.306424963832939,6.907142857142857L10.12142857142857,7.092139249547226L10.12142857142857,7.907860750452773L10.306424963832939,8.092857142857142L14.377853535261512,8.092857142857142L14.592139249547223,8.307142857142857L17.37785353526151,8.307142857142857L17.592139249547227,8.521428571428569L18.44928210669008,8.521428571428569L18.663567820975796,8.735714285714284L19.092139249547227,8.735714285714284L19.30642496383294,8.95L19.5,8.95L19.5,9.05L19.26500360759563,9.05L19.05071789330992,8.835714285714285L18.62214646473849,8.835714285714285L18.407860750452773,8.62142857142857L17.55071789330992,8.62142857142857L17.336432179024204,8.407142857142858L14.550717893309915,8.407142857142858L14.336432179024204,8.192857142857143L10.26500360759563,8.192857142857143L10.021428571428569,7.949282106690083L10.021428571428569,7.050717893309916L10.26500360759563,6.807142857142857L10.479289321881346,6.807142857142857L10.693575036167061,6.5928571428571425L11.122146464738488,6.5928571428571425L12.592857142857142,5.122146464738488L12.592857142857142,4.30642496383294L12.407860750452773,4.121428571428571L11.163567820975796,4.121428571428571L10.73499639240437,4.55z" stroke="none"/></svg>