<svg version="1.1" width="30" height="15" xmlns="http://www.w3.org/2000/svg"><path d="M21.59285714285714,10.878571428571426L21.59285714285714,10.764285714285716L21.164285714285715,10.764285714285716L21.164285714285715,10.55L21,10.55L21,10.45L21.264285714285716,10.45L21.264285714285716,10.664285714285715L21.692857142857143,10.664285714285715L21.692857142857143,10.878571428571426L25.978571428571428,10.878571428571426L25.978571428571428,11.092857142857142L26.192857142857143,11.092857142857142L26.192857142857143,11.521428571428569L26.40714285714286,11.521428571428569L26.40714285714286,11.735714285714284L26.835714285714285,11.735714285714284L26.835714285714285,11.95L27,11.95L27,12.05L26.735714285714284,12.05L26.735714285714284,11.835714285714285L26.307142857142857,11.835714285714285L26.307142857142857,11.62142857142857L26.09285714285714,11.62142857142857L26.09285714285714,11.192857142857143L25.878571428571426,11.192857142857143L25.878571428571426,10.978571428571428L16.664285714285715,10.978571428571428L16.664285714285715,10.55L16.5,10.55L16.5,10.45L16.764285714285716,10.45L16.764285714285716,10.878571428571426z" stroke="none"/><path d="M9.807142857142857,6.807142857142857L9.807142857142857,6.692857142857142L3.8071428571428574,6.692857142857142L3.8071428571428574,6.478571428571428L2.95,6.478571428571428L2.95,6L3.05,6L3.05,6.378571428571428L3.907142857142857,6.378571428571428L3.907142857142857,6.5928571428571425L9.907142857142858,6.5928571428571425L9.907142857142858,6.807142857142857L11.735714285714284,6.807142857142857L11.735714285714284,6.164285714285715L11.95,6.164285714285715L11.95,6L12.05,6L12.05,6.264285714285714L11.835714285714285,6.264285714285714L11.835714285714285,6.907142857142857L8.62142857142857,6.907142857142857L8.62142857142857,7.878571428571428L14.407142857142858,7.878571428571428L14.407142857142858,8.735714285714284L14.62142857142857,8.735714285714284L14.62142857142857,8.95L15,8.95L15,9.05L14.521428571428569,9.05L14.521428571428569,8.835714285714285L14.307142857142857,8.835714285714285L14.307142857142857,7.978571428571428L8.521428571428569,7.978571428571428L8.521428571428569,6.807142857142857z" stroke="none"/><path d="M12.592857142857142,6.378571428571428L12.592857142857142,5.621428571428571L10.021428571428569,5.621428571428571L10.021428571428569,5.407142857142857L9.592857142857142,5.407142857142857L9.592857142857142,5.192857142857142L9.164285714285715,5.192857142857142L9.164285714285715,4.55L9,4.55L9,4.45L9.264285714285716,4.45L9.264285714285716,5.0928571428571425L9.692857142857143,5.0928571428571425L9.692857142857143,5.307142857142857L10.12142857142857,5.307142857142857L10.12142857142857,5.521428571428571L12.692857142857143,5.521428571428571L12.692857142857143,6.378571428571428L18.478571428571428,6.378571428571428L18.478571428571428,6.5928571428571425L18.692857142857143,6.5928571428571425L18.692857142857143,6.807142857142857L19.121428571428574,6.807142857142857L19.121428571428574,7.021428571428571L19.335714285714285,7.021428571428571L19.335714285714285,7.45L19.5,7.45L19.5,7.55L19.235714285714284,7.55L19.235714285714284,7.121428571428571L19.021428571428572,7.121428571428571L19.021428571428572,6.907142857142857L18.59285714285714,6.907142857142857L18.59285714285714,6.692857142857142L18.378571428571426,6.692857142857142L18.378571428571426,6.478571428571428L12.264285714285716,6.478571428571428L12.264285714285716,6.692857142857142L12.05,6.692857142857142L12.05,7.121428571428571L9.05,7.121428571428571L9.05,7.5L8.95,7.5L8.95,7.021428571428571L11.95,7.021428571428571L11.95,6.5928571428571425L12.164285714285715,6.5928571428571425L12.164285714285715,6.378571428571428z" stroke="none"/><path d="M9.592857142857142,4.45L9.592857142857142,4.335714285714285L9.378571428571426,4.335714285714285L9.378571428571426,4.121428571428571L8.62142857142857,4.121428571428571L8.62142857142857,5.95L9,5.95L9,6.05L8.521428571428569,6.05L8.521428571428569,4.021428571428571L9.478571428571428,4.021428571428571L9.478571428571428,4.235714285714286L9.692857142857143,4.235714285714286L9.692857142857143,4.45L9.807142857142857,4.45L9.807142857142857,4.121428571428571L9.592857142857142,4.121428571428571L9.592857142857142,3.907142857142857L8.407142857142858,3.907142857142857L8.407142857142858,4.121428571428571L6.907142857142857,4.121428571428571L6.907142857142857,4.55L6.692857142857142,4.55L6.692857142857142,4.764285714285714L6.478571428571428,4.764285714285714L6.478571428571428,4.978571428571429L6.264285714285714,4.978571428571429L6.264285714285714,5.192857142857142L6.05,5.192857142857142L6.05,6L5.95,6L5.95,5.0928571428571425L6.164285714285715,5.0928571428571425L6.164285714285715,4.878571428571429L6.378571428571428,4.878571428571429L6.378571428571428,4.664285714285715L6.5928571428571425,4.664285714285715L6.5928571428571425,4.45L6.807142857142857,4.45L6.807142857142857,4.021428571428571L8.307142857142857,4.021428571428571L8.307142857142857,3.8071428571428574L9.692857142857143,3.8071428571428574L9.692857142857143,4.021428571428571L9.907142857142858,4.021428571428571L9.907142857142858,4.55L9.692857142857143,4.55L9.692857142857143,4.664285714285715L10.021428571428569,4.664285714285715L10.021428571428569,3.907142857142857L9.807142857142857,3.907142857142857L9.807142857142857,3.6928571428571426L4.45,3.6928571428571426L4.45,3L4.55,3L4.55,3.592857142857143L9.907142857142858,3.592857142857143L9.907142857142858,3.8071428571428574L10.12142857142857,3.8071428571428574L10.12142857142857,4.764285714285714L9.592857142857142,4.764285714285714L9.592857142857142,4.55L9.478571428571428,4.55L9.478571428571428,4.878571428571429L13.664285714285715,4.878571428571429L13.664285714285715,4.45L14.307142857142857,4.45L14.307142857142857,4.235714285714286L14.735714285714284,4.235714285714286L14.735714285714284,4.021428571428571L14.95,4.021428571428571L14.95,3.8071428571428574L15.164285714285715,3.8071428571428574L15.164285714285715,3.3785714285714286L15.592857142857142,3.3785714285714286L15.592857142857142,3.1642857142857146L16.02142857142857,3.1642857142857146L16.02142857142857,2.95L16.5,2.95L16.5,3.05L16.12142857142857,3.05L16.12142857142857,3.2642857142857142L15.692857142857143,3.2642857142857142L15.692857142857143,3.478571428571428L15.264285714285716,3.478571428571428L15.264285714285716,3.907142857142857L15.05,3.907142857142857L15.05,4.121428571428571L14.835714285714285,4.121428571428571L14.835714285714285,4.335714285714285L14.407142857142858,4.335714285714285L14.407142857142858,4.55L13.764285714285716,4.55L13.764285714285716,4.978571428571429L9.378571428571426,4.978571428571429L9.378571428571426,4.45z" stroke="none"/><path d="M6.5928571428571425,10.45L6.5928571428571425,10.235714285714284L8.092857142857142,10.235714285714284L8.092857142857142,10.021428571428569L11.735714285714284,10.021428571428569L11.735714285714284,8.95L12,8.95L12,9.05L11.835714285714285,9.05L11.835714285714285,10.12142857142857L8.192857142857143,10.12142857142857L8.192857142857143,10.335714285714285L6.692857142857142,10.335714285714285L6.692857142857142,10.45L6.907142857142857,10.45L6.907142857142857,10.664285714285715L7.764285714285714,10.664285714285715L7.764285714285714,11.092857142857142L8.407142857142858,11.092857142857142L8.407142857142858,11.307142857142857L8.835714285714285,11.307142857142857L8.835714285714285,11.95L9,11.95L9,12.05L8.735714285714284,12.05L8.735714285714284,11.407142857142858L8.307142857142857,11.407142857142858L8.307142857142857,11.192857142857143L7.664285714285715,11.192857142857143L7.664285714285715,10.764285714285716L6.807142857142857,10.764285714285716L6.807142857142857,10.55L6.692857142857142,10.55L6.692857142857142,10.764285714285716L5.407142857142857,10.764285714285716L5.407142857142857,10.978571428571428L4.978571428571429,10.978571428571428L4.978571428571429,11.192857142857143L4.764285714285714,11.192857142857143L4.764285714285714,11.407142857142858L4.55,11.407142857142858L4.55,11.62142857142857L3.2642857142857142,11.62142857142857L3.2642857142857142,12.05L3,12.05L3,11.95L3.1642857142857146,11.95L3.1642857142857146,11.521428571428569L4.45,11.521428571428569L4.45,11.307142857142857L4.664285714285715,11.307142857142857L4.664285714285715,11.092857142857142L4.878571428571429,11.092857142857142L4.878571428571429,10.878571428571426L5.307142857142857,10.878571428571426L5.307142857142857,10.664285714285715L6.5928571428571425,10.664285714285715L6.5928571428571425,10.55L5.95,10.55L5.95,10.335714285714285L4.021428571428571,10.335714285714285L4.021428571428571,10.12142857142857L3.592857142857143,10.12142857142857L3.592857142857143,9.478571428571428L3.3785714285714286,9.478571428571428L3.3785714285714286,9.264285714285716L2.95,9.264285714285716L2.95,9L3.05,9L3.05,9.164285714285715L3.478571428571428,9.164285714285715L3.478571428571428,9.378571428571426L3.6928571428571426,9.378571428571426L3.6928571428571426,10.021428571428569L4.121428571428571,10.021428571428569L4.121428571428571,10.235714285714284L6.05,10.235714285714284L6.05,10.45z" stroke="none"/><path d="M12.592857142857142,10.45L12.592857142857142,10.235714285714284L15.378571428571426,10.235714285714284L15.378571428571426,10.021428571428569L15.592857142857142,10.021428571428569L15.592857142857142,9.807142857142857L17.307142857142857,9.807142857142857L17.307142857142857,9.378571428571426L17.521428571428572,9.378571428571426L17.521428571428572,9.164285714285715L17.735714285714284,9.164285714285715L17.735714285714284,8.95L18,8.95L18,9.05L17.835714285714285,9.05L17.835714285714285,9.264285714285716L17.621428571428574,9.264285714285716L17.621428571428574,9.478571428571428L17.40714285714286,9.478571428571428L17.40714285714286,9.907142857142858L15.692857142857143,9.907142857142858L15.692857142857143,10.12142857142857L15.478571428571428,10.12142857142857L15.478571428571428,10.335714285714285L12.692857142857143,10.335714285714285L12.692857142857143,10.45L15.592857142857142,10.45L15.592857142857142,10.235714285714284L15.807142857142857,10.235714285714284L15.807142857142857,10.021428571428569L17.835714285714285,10.021428571428569L17.835714285714285,10.235714285714284L18.05,10.235714285714284L18.05,10.5L17.95,10.5L17.95,10.335714285714285L17.735714285714284,10.335714285714285L17.735714285714284,10.12142857142857L15.907142857142858,10.12142857142857L15.907142857142858,10.335714285714285L15.692857142857143,10.335714285714285L15.692857142857143,10.55L12.692857142857143,10.55L12.692857142857143,10.764285714285716L11.192857142857143,10.764285714285716L11.192857142857143,10.978571428571428L10.55,10.978571428571428L10.55,11.192857142857143L10.335714285714285,11.192857142857143L10.335714285714285,11.407142857142858L10.12142857142857,11.407142857142858L10.12142857142857,12.05L9.907142857142858,12.05L9.907142857142858,12.264285714285716L9.478571428571428,12.264285714285716L9.478571428571428,12.478571428571428L6.378571428571428,12.478571428571428L6.378571428571428,12.05L6,12.05L6,11.95L6.478571428571428,11.95L6.478571428571428,12.378571428571426L9.378571428571426,12.378571428571426L9.378571428571426,12.164285714285715L9.807142857142857,12.164285714285715L9.807142857142857,11.95L10.021428571428569,11.95L10.021428571428569,11.307142857142857L10.235714285714284,11.307142857142857L10.235714285714284,11.092857142857142L10.45,11.092857142857142L10.45,10.878571428571426L11.092857142857142,10.878571428571426L11.092857142857142,10.664285714285715L12.592857142857142,10.664285714285715L12.592857142857142,10.55L9,10.55L9,10.45z" stroke="none"/><path d="M22.45,4.5L22.55,4.5L22.55,6L22.45,6z" stroke="none"/><path d="M21,11.95L21,12.05L19.5,12.05L19.5,11.95z" stroke="none"/><path d="M3,4.55L3,4.45L3.6928571428571426,4.45L3.6928571428571426,4.664285714285715L4.121428571428571,4.664285714285715L4.121428571428571,4.878571428571429L5.735714285714286,4.878571428571429L5.735714285714286,4.664285714285715L5.95,4.664285714285715L5.95,4.5L6.05,4.5L6.05,4.764285714285714L5.835714285714285,4.764285714285714L5.835714285714285,4.978571428571429L4.021428571428571,4.978571428571429L4.021428571428571,4.764285714285714L3.592857142857143,4.764285714285714L3.592857142857143,4.55z" stroke="none"/><path d="M7.45,4.5L7.55,4.5L7.55,5.621428571428571L7.335714285714285,5.621428571428571L7.335714285714285,5.835714285714285L7.121428571428571,5.835714285714285L7.121428571428571,6.264285714285714L6.907142857142857,6.264285714285714L6.907142857142857,6.478571428571428L4.021428571428571,6.478571428571428L4.021428571428571,6.264285714285714L3.592857142857143,6.264285714285714L3.592857142857143,6.05L3.3785714285714286,6.05L3.3785714285714286,5.621428571428571L2.521428571428572,5.621428571428571L2.521428571428572,4.021428571428571L3.6928571428571426,4.021428571428571L3.6928571428571426,4.235714285714286L4.335714285714285,4.235714285714286L4.335714285714285,4.45L4.5,4.45L4.5,4.55L4.235714285714286,4.55L4.235714285714286,4.335714285714285L3.592857142857143,4.335714285714285L3.592857142857143,4.121428571428571L2.6214285714285714,4.121428571428571L2.6214285714285714,5.521428571428571L3.478571428571428,5.521428571428571L3.478571428571428,5.95L3.6928571428571426,5.95L3.6928571428571426,6.164285714285715L4.121428571428571,6.164285714285715L4.121428571428571,6.378571428571428L6.807142857142857,6.378571428571428L6.807142857142857,6.164285714285715L7.021428571428571,6.164285714285715L7.021428571428571,5.735714285714286L7.235714285714286,5.735714285714286L7.235714285714286,5.521428571428571L7.45,5.521428571428571z" stroke="none"/><path d="M3.05,10.5L2.95,10.5L2.95,9.692857142857143L2.7357142857142858,9.692857142857143L2.7357142857142858,9.478571428571428L2.521428571428572,9.478571428571428L2.521428571428572,7.45L3,7.45L3,7.55L2.6214285714285714,7.55L2.6214285714285714,9.378571428571426L2.8357142857142854,9.378571428571426L2.8357142857142854,9.592857142857142L3.05,9.592857142857142z" stroke="none"/><path d="M10.5,9.05L10.5,8.95L11.307142857142857,8.95L11.307142857142857,8.735714285714284L11.521428571428569,8.735714285714284L11.521428571428569,8.521428571428569L12.692857142857143,8.521428571428569L12.692857142857143,8.735714285714284L13.55,8.735714285714284L13.55,9L13.45,9L13.45,8.835714285714285L12.592857142857142,8.835714285714285L12.592857142857142,8.62142857142857L11.62142857142857,8.62142857142857L11.62142857142857,8.835714285714285L11.407142857142858,8.835714285714285L11.407142857142858,9.05z" stroke="none"/><path d="M19.5,8.95L19.5,9.05L18.59285714285714,9.05L18.59285714285714,8.835714285714285L18.378571428571426,8.835714285714285L18.378571428571426,8.62142857142857L17.40714285714286,8.62142857142857L17.40714285714286,8.835714285714285L17.192857142857143,8.835714285714285L17.192857142857143,9.05L16.5,9.05L16.5,8.95L17.09285714285714,8.95L17.09285714285714,8.735714285714284L17.307142857142857,8.735714285714284L17.307142857142857,8.521428571428569L18.478571428571428,8.521428571428569L18.478571428571428,8.735714285714284L18.692857142857143,8.735714285714284L18.692857142857143,8.95z" stroke="none"/><path d="M12,12.05L12,11.95L12.807142857142857,11.95L12.807142857142857,11.735714285714284L13.021428571428569,11.735714285714284L13.021428571428569,11.521428571428569L15.05,11.521428571428569L15.05,12L14.95,12L14.95,11.62142857142857L13.12142857142857,11.62142857142857L13.12142857142857,11.835714285714285L12.907142857142858,11.835714285714285L12.907142857142858,12.05z" stroke="none"/><path d="M19.55,6L19.45,6L19.45,5.407142857142857L19.235714285714284,5.407142857142857L19.235714285714284,4.121428571428571L18.807142857142857,4.121428571428571L18.807142857142857,3.6928571428571426L18.378571428571426,3.6928571428571426L18.378571428571426,3.478571428571428L18.164285714285715,3.478571428571428L18.164285714285715,3.2642857142857142L17.95,3.2642857142857142L17.95,3L18.05,3L18.05,3.1642857142857146L18.264285714285716,3.1642857142857146L18.264285714285716,3.3785714285714286L18.478571428571428,3.3785714285714286L18.478571428571428,3.592857142857143L18.90714285714286,3.592857142857143L18.90714285714286,4.021428571428571L19.335714285714285,4.021428571428571L19.335714285714285,5.307142857142857L19.55,5.307142857142857z" stroke="none"/><path d="M25.45,6L25.55,6L25.55,6.378571428571428L25.764285714285716,6.378571428571428L25.764285714285716,6.807142857142857L25.978571428571428,6.807142857142857L25.978571428571428,7.878571428571428L26.192857142857143,7.878571428571428L26.192857142857143,8.092857142857142L26.62142857142857,8.092857142857142L26.62142857142857,8.521428571428569L26.835714285714285,8.521428571428569L26.835714285714285,8.735714285714284L27.05,8.735714285714284L27.05,9L26.95,9L26.95,8.835714285714285L26.735714285714284,8.835714285714285L26.735714285714284,8.62142857142857L26.52142857142857,8.62142857142857L26.52142857142857,8.192857142857143L26.09285714285714,8.192857142857143L26.09285714285714,7.978571428571428L25.878571428571426,7.978571428571428L25.878571428571426,6.907142857142857L25.664285714285715,6.907142857142857L25.664285714285715,6.478571428571428L25.45,6.478571428571428z" stroke="none"/><path d="M24,3.05L24,2.95L25.55,2.95L25.55,3.1642857142857146L26.192857142857143,3.1642857142857146L26.192857142857143,4.021428571428571L26.835714285714285,4.021428571428571L26.835714285714285,4.235714285714286L27.05,4.235714285714286L27.05,4.5L26.95,4.5L26.95,4.335714285714285L26.735714285714284,4.335714285714285L26.735714285714284,4.121428571428571L26.09285714285714,4.121428571428571L26.09285714285714,3.2642857142857142L25.45,3.2642857142857142L25.45,3.05z" stroke="none"/><path d="M16.5,7.55L16.5,7.45L18.264285714285716,7.45L18.264285714285716,7.664285714285715L18.478571428571428,7.664285714285715L18.478571428571428,7.878571428571428L18.692857142857143,7.878571428571428L18.692857142857143,8.092857142857142L19.978571428571428,8.092857142857142L19.978571428571428,10.12142857142857L19.764285714285716,10.12142857142857L19.764285714285716,10.55L19.5,10.55L19.5,10.45L19.664285714285715,10.45L19.664285714285715,10.021428571428569L19.878571428571426,10.021428571428569L19.878571428571426,8.192857142857143L18.59285714285714,8.192857142857143L18.59285714285714,7.978571428571428L18.378571428571426,7.978571428571428L18.378571428571426,7.764285714285714L18.164285714285715,7.764285714285714L18.164285714285715,7.55z" stroke="none"/><path d="M25.55,7.5L25.45,7.5L25.45,6.907142857142857L25.235714285714284,6.907142857142857L25.235714285714284,6.478571428571428L25.02142857142857,6.478571428571428L25.02142857142857,5.521428571428571L26.09285714285714,5.521428571428571L26.09285714285714,5.307142857142857L26.735714285714284,5.307142857142857L26.735714285714284,5.0928571428571425L27.164285714285715,5.0928571428571425L27.164285714285715,4.878571428571429L27.378571428571426,4.878571428571429L27.378571428571426,3.2642857142857142L27.164285714285715,3.2642857142857142L27.164285714285715,3.05L27,3.05L27,2.95L27.264285714285716,2.95L27.264285714285716,3.1642857142857146L27.478571428571428,3.1642857142857146L27.478571428571428,4.978571428571429L27.264285714285716,4.978571428571429L27.264285714285716,5.192857142857142L26.835714285714285,5.192857142857142L26.835714285714285,5.407142857142857L26.192857142857143,5.407142857142857L26.192857142857143,5.621428571428571L25.12142857142857,5.621428571428571L25.12142857142857,6.378571428571428L25.335714285714285,6.378571428571428L25.335714285714285,6.807142857142857L25.55,6.807142857142857z" stroke="none"/><path d="M22.55,9L22.45,9L22.45,6.807142857142857L22.878571428571426,6.807142857142857L22.878571428571426,5.95L23.09285714285714,5.95L23.09285714285714,5.307142857142857L23.52142857142857,5.307142857142857L23.52142857142857,5.0928571428571425L23.735714285714284,5.0928571428571425L23.735714285714284,4.45L24,4.45L24,4.55L23.835714285714285,4.55L23.835714285714285,5.192857142857142L23.62142857142857,5.192857142857142L23.62142857142857,5.407142857142857L23.192857142857143,5.407142857142857L23.192857142857143,6.05L22.978571428571428,6.05L22.978571428571428,6.907142857142857L22.55,6.907142857142857z" stroke="none"/><path d="M23.95,7.5L24.05,7.5L24.05,9.592857142857142L24.264285714285716,9.592857142857142L24.264285714285716,9.807142857142857L24.692857142857143,9.807142857142857L24.692857142857143,10.021428571428569L25.55,10.021428571428569L25.55,10.664285714285715L26.192857142857143,10.664285714285715L26.192857142857143,10.878571428571426L26.40714285714286,10.878571428571426L26.40714285714286,11.307142857142857L26.62142857142857,11.307142857142857L26.62142857142857,11.521428571428569L27.478571428571428,11.521428571428569L27.478571428571428,12.478571428571428L26.307142857142857,12.478571428571428L26.307142857142857,12.264285714285716L25.878571428571426,12.264285714285716L25.878571428571426,12.05L25.5,12.05L25.5,11.95L25.978571428571428,11.95L25.978571428571428,12.164285714285715L26.40714285714286,12.164285714285715L26.40714285714286,12.378571428571426L27.378571428571426,12.378571428571426L27.378571428571426,11.62142857142857L26.52142857142857,11.62142857142857L26.52142857142857,11.407142857142858L26.307142857142857,11.407142857142858L26.307142857142857,10.978571428571428L26.09285714285714,10.978571428571428L26.09285714285714,10.764285714285716L25.45,10.764285714285716L25.45,10.12142857142857L24.59285714285714,10.12142857142857L24.59285714285714,9.907142857142858L24.164285714285715,9.907142857142858L24.164285714285715,9.692857142857143L23.95,9.692857142857143z" stroke="none"/><path d="M21,2.95L21,3.05L18.59285714285714,3.05L18.59285714285714,2.6214285714285714L17.621428571428574,2.6214285714285714L17.621428571428574,5.835714285714285L16.764285714285716,5.835714285714285L16.764285714285716,6.05L16.5,6.05L16.5,5.95L16.664285714285715,5.95L16.664285714285715,5.735714285714286L17.521428571428572,5.735714285714286L17.521428571428572,2.521428571428572L18.692857142857143,2.521428571428572L18.692857142857143,2.95z" stroke="none"/><path d="M27.05,10.5L26.95,10.5L26.95,10.12142857142857L26.735714285714284,10.12142857142857L26.735714285714284,9.907142857142858L26.52142857142857,9.907142857142858L26.52142857142857,9.692857142857143L25.878571428571426,9.692857142857143L25.878571428571426,9.478571428571428L25.664285714285715,9.478571428571428L25.664285714285715,8.407142857142858L25.235714285714284,8.407142857142858L25.235714285714284,8.192857142857143L25.02142857142857,8.192857142857143L25.02142857142857,7.335714285714285L24.807142857142857,7.335714285714285L24.807142857142857,6.478571428571428L24.378571428571426,6.478571428571428L24.378571428571426,6.264285714285714L23.95,6.264285714285714L23.95,6L24.05,6L24.05,6.164285714285715L24.478571428571428,6.164285714285715L24.478571428571428,6.378571428571428L24.90714285714286,6.378571428571428L24.90714285714286,7.235714285714286L25.12142857142857,7.235714285714286L25.12142857142857,8.092857142857142L25.335714285714285,8.092857142857142L25.335714285714285,8.307142857142857L25.764285714285716,8.307142857142857L25.764285714285716,9.378571428571426L25.978571428571428,9.378571428571426L25.978571428571428,9.592857142857142L26.62142857142857,9.592857142857142L26.62142857142857,9.807142857142857L26.835714285714285,9.807142857142857L26.835714285714285,10.021428571428569L27.05,10.021428571428569z" stroke="none"/><path d="M26.95,7.5L27.05,7.5L27.05,8.092857142857142L27.264285714285716,8.092857142857142L27.264285714285716,8.307142857142857L27.478571428571428,8.307142857142857L27.478571428571428,11.092857142857142L27.692857142857143,11.092857142857142L27.692857142857143,12.692857142857143L23.09285714285714,12.692857142857143L23.09285714285714,12.05L22.5,12.05L22.5,11.95L23.192857142857143,11.95L23.192857142857143,12.592857142857142L27.59285714285714,12.592857142857142L27.59285714285714,11.192857142857143L27.378571428571426,11.192857142857143L27.378571428571426,8.407142857142858L27.164285714285715,8.407142857142858L27.164285714285715,8.192857142857143L26.95,8.192857142857143z" stroke="none"/><path d="M12,7.55L12,7.45L14.62142857142857,7.45L14.62142857142857,7.664285714285715L14.835714285714285,7.664285714285715L14.835714285714285,7.878571428571428L15.05,7.878571428571428L15.05,8.307142857142857L15.478571428571428,8.307142857142857L15.478571428571428,9.478571428571428L13.878571428571426,9.478571428571428L13.878571428571426,8.62142857142857L12.807142857142857,8.62142857142857L12.807142857142857,8.407142857142858L5.0928571428571425,8.407142857142858L5.0928571428571425,7.978571428571428L4.664285714285715,7.978571428571428L4.664285714285715,7.764285714285714L4.45,7.764285714285714L4.45,7.5L4.55,7.5L4.55,7.664285714285715L4.764285714285714,7.664285714285715L4.764285714285714,7.878571428571428L5.192857142857142,7.878571428571428L5.192857142857142,8.307142857142857L12.907142857142858,8.307142857142857L12.907142857142858,8.521428571428569L13.978571428571428,8.521428571428569L13.978571428571428,9.378571428571426L15.378571428571426,9.378571428571426L15.378571428571426,8.407142857142858L14.95,8.407142857142858L14.95,7.978571428571428L14.735714285714284,7.978571428571428L14.735714285714284,7.764285714285714L14.521428571428569,7.764285714285714L14.521428571428569,7.55z" stroke="none"/><path d="M6,7.45L6,7.55L4.878571428571429,7.55L4.878571428571429,7.121428571428571L3.592857142857143,7.121428571428571L3.592857142857143,6.907142857142857L2.7357142857142858,6.907142857142857L2.7357142857142858,6.478571428571428L2.521428571428572,6.478571428571428L2.521428571428572,6.264285714285714L2.3071428571428574,6.264285714285714L2.3071428571428574,2.95L2.521428571428572,2.95L2.521428571428572,2.7357142857142858L4.021428571428571,2.7357142857142858L4.021428571428571,2.521428571428572L12.907142857142858,2.521428571428572L12.907142857142858,2.7357142857142858L13.12142857142857,2.7357142857142858L13.12142857142857,2.95L13.5,2.95L13.5,3.05L13.021428571428569,3.05L13.021428571428569,2.8357142857142854L12.807142857142857,2.8357142857142854L12.807142857142857,2.6214285714285714L4.121428571428571,2.6214285714285714L4.121428571428571,2.8357142857142854L2.6214285714285714,2.8357142857142854L2.6214285714285714,3.05L2.407142857142857,3.05L2.407142857142857,6.164285714285715L2.6214285714285714,6.164285714285715L2.6214285714285714,6.378571428571428L2.8357142857142854,6.378571428571428L2.8357142857142854,6.807142857142857L3.6928571428571426,6.807142857142857L3.6928571428571426,7.021428571428571L4.978571428571429,7.021428571428571L4.978571428571429,7.45z" stroke="none"/><path d="M21.05,4.5L20.95,4.5L20.95,4.235714285714286L21.164285714285715,4.235714285714286L21.164285714285715,3.8071428571428574L21.378571428571426,3.8071428571428574L21.378571428571426,2.6214285714285714L19.235714285714284,2.6214285714285714L19.235714285714284,2.407142857142857L15.692857142857143,2.407142857142857L15.692857142857143,2.6214285714285714L15.478571428571428,2.6214285714285714L15.478571428571428,3.05L15.05,3.05L15.05,3.478571428571428L14.407142857142858,3.478571428571428L14.407142857142858,4.121428571428571L12.264285714285716,4.121428571428571L12.264285714285716,4.55L12,4.55L12,4.45L12.164285714285715,4.45L12.164285714285715,4.021428571428571L14.307142857142857,4.021428571428571L14.307142857142857,3.3785714285714286L14.95,3.3785714285714286L14.95,2.95L15.378571428571426,2.95L15.378571428571426,2.521428571428572L15.592857142857142,2.521428571428572L15.592857142857142,2.3071428571428574L19.335714285714285,2.3071428571428574L19.335714285714285,2.521428571428572L21.478571428571428,2.521428571428572L21.478571428571428,3.907142857142857L21.264285714285716,3.907142857142857L21.264285714285716,4.335714285714285L21.05,4.335714285714285z" stroke="none"/><path d="M17.95,4.5L18.05,4.5L18.05,5.735714285714286L18.264285714285716,5.735714285714286L18.264285714285716,5.95L18.692857142857143,5.95L18.692857142857143,6.378571428571428L20.735714285714284,6.378571428571428L20.735714285714284,5.307142857142857L20.95,5.307142857142857L20.95,5.0928571428571425L21.164285714285715,5.0928571428571425L21.164285714285715,4.878571428571429L21.378571428571426,4.878571428571429L21.378571428571426,4.235714285714286L21.59285714285714,4.235714285714286L21.59285714285714,2.407142857142857L20.307142857142857,2.407142857142857L20.307142857142857,2.1928571428571426L14.835714285714285,2.1928571428571426L14.835714285714285,2.407142857142857L14.62142857142857,2.407142857142857L14.62142857142857,2.8357142857142854L14.407142857142858,2.8357142857142854L14.407142857142858,3.2642857142857142L14.192857142857143,3.2642857142857142L14.192857142857143,3.478571428571428L10.021428571428569,3.478571428571428L10.021428571428569,3.2642857142857142L9.164285714285715,3.2642857142857142L9.164285714285715,3.05L9,3.05L9,2.95L9.264285714285716,2.95L9.264285714285716,3.1642857142857146L10.12142857142857,3.1642857142857146L10.12142857142857,3.3785714285714286L14.092857142857142,3.3785714285714286L14.092857142857142,3.1642857142857146L14.307142857142857,3.1642857142857146L14.307142857142857,2.7357142857142858L14.521428571428569,2.7357142857142858L14.521428571428569,2.3071428571428574L14.735714285714284,2.3071428571428574L14.735714285714284,2.092857142857143L20.40714285714286,2.092857142857143L20.40714285714286,2.3071428571428574L21.692857142857143,2.3071428571428574L21.692857142857143,4.335714285714285L21.478571428571428,4.335714285714285L21.478571428571428,4.978571428571429L21.264285714285716,4.978571428571429L21.264285714285716,5.192857142857142L21.05,5.192857142857142L21.05,5.407142857142857L20.835714285714285,5.407142857142857L20.835714285714285,6.478571428571428L18.59285714285714,6.478571428571428L18.59285714285714,6.05L18.164285714285715,6.05L18.164285714285715,5.835714285714285L17.95,5.835714285714285z" stroke="none"/><path d="M24.05,10.5L23.95,10.5L23.95,9.907142857142858L23.735714285714284,9.907142857142858L23.735714285714284,8.192857142857143L23.52142857142857,8.192857142857143L23.52142857142857,5.521428571428571L23.735714285714284,5.521428571428571L23.735714285714284,5.307142857142857L23.95,5.307142857142857L23.95,5.0928571428571425L24.378571428571426,5.0928571428571425L24.378571428571426,3.6928571428571426L23.52142857142857,3.6928571428571426L23.52142857142857,2.521428571428572L27.478571428571428,2.521428571428572L27.478571428571428,2.95L27.692857142857143,2.95L27.692857142857143,10.878571428571426L27.90714285714286,10.878571428571426L27.90714285714286,12.907142857142858L16.02142857142857,12.907142857142858L16.02142857142857,12.478571428571428L14.307142857142857,12.478571428571428L14.307142857142857,12.05L13.5,12.05L13.5,11.95L14.407142857142858,11.95L14.407142857142858,12.378571428571426L16.12142857142857,12.378571428571426L16.12142857142857,12.807142857142857L27.807142857142857,12.807142857142857L27.807142857142857,10.978571428571428L27.59285714285714,10.978571428571428L27.59285714285714,3.05L27.378571428571426,3.05L27.378571428571426,2.6214285714285714L23.62142857142857,2.6214285714285714L23.62142857142857,3.592857142857143L24.478571428571428,3.592857142857143L24.478571428571428,5.192857142857142L24.05,5.192857142857142L24.05,5.407142857142857L23.835714285714285,5.407142857142857L23.835714285714285,5.621428571428571L23.62142857142857,5.621428571428571L23.62142857142857,8.092857142857142L23.835714285714285,8.092857142857142L23.835714285714285,9.807142857142857L24.05,9.807142857142857z" stroke="none"/><path d="M22.55,10.5L22.45,10.5L22.45,9.907142857142858L22.235714285714284,9.907142857142858L22.235714285714284,9.692857142857143L22.021428571428572,9.692857142857143L22.021428571428572,2.95L22.235714285714284,2.95L22.235714285714284,2.7357142857142858L22.45,2.7357142857142858L22.45,2.521428571428572L22.878571428571426,2.521428571428572L22.878571428571426,2.3071428571428574L27.90714285714286,2.3071428571428574L27.90714285714286,10.45L28.12142857142857,10.45L28.12142857142857,13.12142857142857L12.378571428571426,13.12142857142857L12.378571428571426,12.907142857142858L12.164285714285715,12.907142857142858L12.164285714285715,12.692857142857143L11.307142857142857,12.692857142857143L11.307142857142857,12.478571428571428L10.664285714285715,12.478571428571428L10.664285714285715,12.264285714285716L10.45,12.264285714285716L10.45,12L10.55,12L10.55,12.164285714285715L10.764285714285716,12.164285714285715L10.764285714285716,12.378571428571426L11.407142857142858,12.378571428571426L11.407142857142858,12.592857142857142L12.264285714285716,12.592857142857142L12.264285714285716,12.807142857142857L12.478571428571428,12.807142857142857L12.478571428571428,13.021428571428569L28.02142857142857,13.021428571428569L28.02142857142857,10.55L27.807142857142857,10.55L27.807142857142857,2.407142857142857L22.978571428571428,2.407142857142857L22.978571428571428,2.6214285714285714L22.55,2.6214285714285714L22.55,2.8357142857142854L22.335714285714285,2.8357142857142854L22.335714285714285,3.05L22.121428571428574,3.05L22.121428571428574,9.592857142857142L22.335714285714285,9.592857142857142L22.335714285714285,9.807142857142857L22.55,9.807142857142857z" stroke="none"/></svg>