<svg version="1.1" width="30" height="15" xmlns="http://www.w3.org/2000/svg"><path d="M14.95,9.807142857142857L14.95,9.378571428571426L15.592857142857142,9.378571428571426L15.592857142857142,9.164285714285715L15.807142857142857,9.164285714285715L15.807142857142857,8.735714285714284L16.02142857142857,8.735714285714284L16.02142857142857,8.521428571428569L16.45,8.521428571428569L16.45,8.307142857142857L16.664285714285715,8.307142857142857L16.664285714285715,7.664285714285715L17.307142857142857,7.664285714285715L17.307142857142857,7.45L18,7.45L18,7.55L17.40714285714286,7.55L17.40714285714286,7.764285714285714L16.764285714285716,7.764285714285714L16.764285714285716,8.407142857142858L16.55,8.407142857142858L16.55,8.62142857142857L16.12142857142857,8.62142857142857L16.12142857142857,8.835714285714285L15.907142857142858,8.835714285714285L15.907142857142858,9.264285714285716L15.692857142857143,9.264285714285716L15.692857142857143,9.478571428571428L15.05,9.478571428571428L15.05,9.907142857142858L12.478571428571428,9.907142857142858L12.478571428571428,10.235714285714284L12.692857142857143,10.235714285714284L12.692857142857143,10.45L12.907142857142858,10.45L12.907142857142858,10.664285714285715L13.12142857142857,10.664285714285715L13.12142857142857,11.092857142857142L13.335714285714285,11.092857142857142L13.335714285714285,11.307142857142857L13.55,11.307142857142857L13.55,12L13.45,12L13.45,11.407142857142858L13.235714285714284,11.407142857142858L13.235714285714284,11.192857142857143L13.021428571428569,11.192857142857143L13.021428571428569,10.764285714285716L12.807142857142857,10.764285714285716L12.807142857142857,10.55L12.592857142857142,10.55L12.592857142857142,10.335714285714285L12.378571428571426,10.335714285714285L12.378571428571426,9.907142857142858L6.478571428571428,9.907142857142858L6.478571428571428,10.12142857142857L6.05,10.12142857142857L6.05,10.5L5.95,10.5L5.95,10.021428571428569L6.378571428571428,10.021428571428569L6.378571428571428,9.807142857142857z" stroke="none"/><path d="M18.807142857142857,7.45L18.807142857142857,7.021428571428571L20.735714285714284,7.021428571428571L20.735714285714284,6.164285714285715L20.95,6.164285714285715L20.95,6L21.05,6L21.05,6.264285714285714L20.835714285714285,6.264285714285714L20.835714285714285,7.121428571428571L18.90714285714286,7.121428571428571L18.90714285714286,7.55L18.692857142857143,7.55L18.692857142857143,8.835714285714285L18.478571428571428,8.835714285714285L18.478571428571428,9.692857142857143L18.264285714285716,9.692857142857143L18.264285714285716,10.12142857142857L17.835714285714285,10.12142857142857L17.835714285714285,10.335714285714285L16.978571428571428,10.335714285714285L16.978571428571428,10.55L16.5,10.55L16.5,10.45L16.878571428571426,10.45L16.878571428571426,10.235714285714284L17.735714285714284,10.235714285714284L17.735714285714284,10.021428571428569L18.164285714285715,10.021428571428569L18.164285714285715,9.592857142857142L18.378571428571426,9.592857142857142L18.378571428571426,8.735714285714284L18.59285714285714,8.735714285714284L18.59285714285714,7.55L18.378571428571426,7.55L18.378571428571426,7.121428571428571L16.664285714285715,7.121428571428571L16.664285714285715,6.264285714285714L16.45,6.264285714285714L16.45,6L16.55,6L16.55,6.164285714285715L16.764285714285716,6.164285714285715L16.764285714285716,7.021428571428571L18.478571428571428,7.021428571428571L18.478571428571428,7.45z" stroke="none"/><path d="M20.307142857142857,5.307142857142857L20.307142857142857,4.021428571428571L20.521428571428572,4.021428571428571L20.521428571428572,3.1642857142857146L21.59285714285714,3.1642857142857146L21.59285714285714,2.95L22.5,2.95L22.5,3.05L21.692857142857143,3.05L21.692857142857143,3.2642857142857142L20.621428571428574,3.2642857142857142L20.621428571428574,4.121428571428571L20.40714285714286,4.121428571428571L20.40714285714286,5.307142857142857L21.692857142857143,5.307142857142857L21.692857142857143,5.521428571428571L22.978571428571428,5.521428571428571L22.978571428571428,5.95L24,5.95L24,6.05L22.878571428571426,6.05L22.878571428571426,5.621428571428571L21.59285714285714,5.621428571428571L21.59285714285714,5.407142857142857L15.692857142857143,5.407142857142857L15.692857142857143,5.621428571428571L15.478571428571428,5.621428571428571L15.478571428571428,6.264285714285714L15.264285714285716,6.264285714285714L15.264285714285716,6.907142857142857L15.05,6.907142857142857L15.05,7.5L14.95,7.5L14.95,6.807142857142857L15.164285714285715,6.807142857142857L15.164285714285715,6.164285714285715L15.378571428571426,6.164285714285715L15.378571428571426,5.521428571428571L15.592857142857142,5.521428571428571L15.592857142857142,5.307142857142857z" stroke="none"/><path d="M12.592857142857142,3.592857142857143L12.592857142857142,3.3785714285714286L15.378571428571426,3.3785714285714286L15.378571428571426,3.1642857142857146L15.807142857142857,3.1642857142857146L15.807142857142857,2.95L16.02142857142857,2.95L16.02142857142857,2.7357142857142858L16.764285714285716,2.7357142857142858L16.764285714285716,4.335714285714285L16.55,4.335714285714285L16.55,4.5L16.45,4.5L16.45,4.235714285714286L16.664285714285715,4.235714285714286L16.664285714285715,2.8357142857142854L16.12142857142857,2.8357142857142854L16.12142857142857,3.05L15.907142857142858,3.05L15.907142857142858,3.2642857142857142L15.478571428571428,3.2642857142857142L15.478571428571428,3.478571428571428L12.692857142857143,3.478571428571428L12.692857142857143,3.592857142857143L15.807142857142857,3.592857142857143L15.807142857142857,3.3785714285714286L16.45,3.3785714285714286L16.45,3L16.55,3L16.55,3.478571428571428L15.907142857142858,3.478571428571428L15.907142857142858,3.6928571428571426L12.692857142857143,3.6928571428571426L12.692857142857143,3.907142857142857L12.264285714285716,3.907142857142857L12.264285714285716,4.121428571428571L12.05,4.121428571428571L12.05,4.5L11.95,4.5L11.95,4.021428571428571L12.164285714285715,4.021428571428571L12.164285714285715,3.8071428571428574L12.592857142857142,3.8071428571428574L12.592857142857142,3.6928571428571426L8.95,3.6928571428571426L8.95,3.478571428571428L7.235714285714286,3.478571428571428L7.235714285714286,3.2642857142857142L6.807142857142857,3.2642857142857142L6.807142857142857,3.05L6,3.05L6,2.95L6.907142857142857,2.95L6.907142857142857,3.1642857142857146L7.335714285714285,3.1642857142857146L7.335714285714285,3.3785714285714286L9.05,3.3785714285714286L9.05,3.592857142857143z" stroke="none"/><path d="M6.5928571428571425,5.95L6.5928571428571425,4.978571428571429L6.378571428571428,4.978571428571429L6.378571428571428,4.764285714285714L5.95,4.764285714285714L5.95,4.5L6.05,4.5L6.05,4.664285714285715L6.478571428571428,4.664285714285715L6.478571428571428,4.878571428571429L6.692857142857142,4.878571428571429L6.692857142857142,5.95L6.807142857142857,5.95L6.807142857142857,5.735714285714286L7.021428571428571,5.735714285714286L7.021428571428571,5.521428571428571L9.692857142857143,5.521428571428571L9.692857142857143,5.735714285714286L9.907142857142858,5.735714285714286L9.907142857142858,5.95L10.5,5.95L10.5,6.05L9.807142857142857,6.05L9.807142857142857,5.835714285714285L9.592857142857142,5.835714285714285L9.592857142857142,5.621428571428571L7.121428571428571,5.621428571428571L7.121428571428571,5.835714285714285L6.907142857142857,5.835714285714285L6.907142857142857,6.05L6.692857142857142,6.05L6.692857142857142,8.62142857142857L6.05,8.62142857142857L6.05,9L5.95,9L5.95,8.521428571428569L6.5928571428571425,8.521428571428569L6.5928571428571425,6.05L6.378571428571428,6.05L6.378571428571428,5.621428571428571L4.664285714285715,5.621428571428571L4.664285714285715,5.407142857142857L3.8071428571428574,5.407142857142857L3.8071428571428574,5.192857142857142L3.3785714285714286,5.192857142857142L3.3785714285714286,4.978571428571429L3.1642857142857146,4.978571428571429L3.1642857142857146,4.764285714285714L2.95,4.764285714285714L2.95,4.5L3.05,4.5L3.05,4.664285714285715L3.2642857142857142,4.664285714285715L3.2642857142857142,4.878571428571429L3.478571428571428,4.878571428571429L3.478571428571428,5.0928571428571425L3.907142857142857,5.0928571428571425L3.907142857142857,5.307142857142857L4.764285714285714,5.307142857142857L4.764285714285714,5.521428571428571L6.478571428571428,5.521428571428571L6.478571428571428,5.95z" stroke="none"/><path d="M10.021428571428569,10.664285714285715L10.021428571428569,10.55L7.878571428571428,10.55L7.878571428571428,10.335714285714285L6.478571428571428,10.335714285714285L6.478571428571428,10.978571428571428L5.521428571428571,10.978571428571428L5.521428571428571,9.592857142857142L6.807142857142857,9.592857142857142L6.807142857142857,9.164285714285715L7.021428571428571,9.164285714285715L7.021428571428571,8.95L7.5,8.95L7.5,9.05L7.121428571428571,9.05L7.121428571428571,9.264285714285716L6.907142857142857,9.264285714285716L6.907142857142857,9.692857142857143L5.621428571428571,9.692857142857143L5.621428571428571,10.878571428571426L6.378571428571428,10.878571428571426L6.378571428571428,10.235714285714284L7.978571428571428,10.235714285714284L7.978571428571428,10.45L10.12142857142857,10.45L10.12142857142857,10.664285714285715L12.264285714285716,10.664285714285715L12.264285714285716,11.307142857142857L12.478571428571428,11.307142857142857L12.478571428571428,11.735714285714284L12.692857142857143,11.735714285714284L12.692857142857143,12.164285714285715L12.907142857142858,12.164285714285715L12.907142857142858,12.378571428571426L16.02142857142857,12.378571428571426L16.02142857142857,11.95L16.5,11.95L16.5,12.05L16.12142857142857,12.05L16.12142857142857,12.478571428571428L12.807142857142857,12.478571428571428L12.807142857142857,12.264285714285716L12.592857142857142,12.264285714285716L12.592857142857142,11.835714285714285L12.378571428571426,11.835714285714285L12.378571428571426,11.407142857142858L12.164285714285715,11.407142857142858L12.164285714285715,10.764285714285716L10.12142857142857,10.764285714285716L10.12142857142857,11.192857142857143L9.907142857142858,11.192857142857143L9.907142857142858,11.407142857142858L9.264285714285716,11.407142857142858L9.264285714285716,11.62142857142857L9.05,11.62142857142857L9.05,12L8.95,12L8.95,11.521428571428569L9.164285714285715,11.521428571428569L9.164285714285715,11.307142857142857L9.807142857142857,11.307142857142857L9.807142857142857,11.092857142857142L10.021428571428569,11.092857142857142L10.021428571428569,10.764285714285716L7.45,10.764285714285716L7.45,10.5L7.55,10.5L7.55,10.664285714285715z" stroke="none"/><path d="M24,9.05L24,8.95L24.807142857142857,8.95L24.807142857142857,8.735714285714284L25.02142857142857,8.735714285714284L25.02142857142857,8.307142857142857L25.45,8.307142857142857L25.45,7.5L25.55,7.5L25.55,8.407142857142858L25.12142857142857,8.407142857142858L25.12142857142857,8.835714285714285L24.90714285714286,8.835714285714285L24.90714285714286,9.05z" stroke="none"/><path d="M4.45,10.5L4.55,10.5L4.55,11.092857142857142L5.192857142857142,11.092857142857142L5.192857142857142,11.521428571428569L5.621428571428571,11.521428571428569L5.621428571428571,11.735714285714284L6.05,11.735714285714284L6.05,12L5.95,12L5.95,11.835714285714285L5.521428571428571,11.835714285714285L5.521428571428571,11.62142857142857L5.0928571428571425,11.62142857142857L5.0928571428571425,11.192857142857143L4.45,11.192857142857143z" stroke="none"/><path d="M27,7.55L27,7.45L27.164285714285715,7.45L27.164285714285715,6.378571428571428L27.378571428571426,6.378571428571428L27.378571428571426,5.407142857142857L27.164285714285715,5.407142857142857L27.164285714285715,4.978571428571429L26.95,4.978571428571429L26.95,4.5L27.05,4.5L27.05,4.878571428571429L27.264285714285716,4.878571428571429L27.264285714285716,5.307142857142857L27.478571428571428,5.307142857142857L27.478571428571428,6.478571428571428L27.264285714285716,6.478571428571428L27.264285714285716,7.55z" stroke="none"/><path d="M22.5,12.05L22.5,11.95L23.307142857142857,11.95L23.307142857142857,11.735714285714284L23.52142857142857,11.735714285714284L23.52142857142857,11.521428571428569L25.55,11.521428571428569L25.55,12L25.45,12L25.45,11.62142857142857L23.62142857142857,11.62142857142857L23.62142857142857,11.835714285714285L23.40714285714286,11.835714285714285L23.40714285714286,12.05z" stroke="none"/><path d="M27,5.95L27,6.05L26.52142857142857,6.05L26.52142857142857,5.835714285714285L26.307142857142857,5.835714285714285L26.307142857142857,4.55L26.09285714285714,4.55L26.09285714285714,3.907142857142857L25.878571428571426,3.907142857142857L25.878571428571426,3.478571428571428L25.664285714285715,3.478571428571428L25.664285714285715,3.2642857142857142L25.45,3.2642857142857142L25.45,3L25.55,3L25.55,3.1642857142857146L25.764285714285716,3.1642857142857146L25.764285714285716,3.3785714285714286L25.978571428571428,3.3785714285714286L25.978571428571428,3.8071428571428574L26.192857142857143,3.8071428571428574L26.192857142857143,4.45L26.40714285714286,4.45L26.40714285714286,5.735714285714286L26.62142857142857,5.735714285714286L26.62142857142857,5.95z" stroke="none"/><path d="M9.05,9L8.95,9L8.95,8.192857142857143L8.521428571428569,8.192857142857143L8.521428571428569,7.764285714285714L8.307142857142857,7.764285714285714L8.307142857142857,7.121428571428571L8.092857142857142,7.121428571428571L8.092857142857142,6.907142857142857L7.664285714285715,6.907142857142857L7.664285714285715,6.264285714285714L7.45,6.264285714285714L7.45,6L7.55,6L7.55,6.164285714285715L7.764285714285714,6.164285714285715L7.764285714285714,6.807142857142857L8.192857142857143,6.807142857142857L8.192857142857143,7.021428571428571L8.407142857142858,7.021428571428571L8.407142857142858,7.664285714285715L8.62142857142857,7.664285714285715L8.62142857142857,8.092857142857142L9.05,8.092857142857142z" stroke="none"/><path d="M6,5.95L6,6.05L4.664285714285715,6.05L4.664285714285715,5.835714285714285L4.021428571428571,5.835714285714285L4.021428571428571,5.621428571428571L3.592857142857143,5.621428571428571L3.592857142857143,5.407142857142857L2.95,5.407142857142857L2.95,4.978571428571429L2.521428571428572,4.978571428571429L2.521428571428572,2.95L3,2.95L3,3.05L2.6214285714285714,3.05L2.6214285714285714,4.878571428571429L3.05,4.878571428571429L3.05,5.307142857142857L3.6928571428571426,5.307142857142857L3.6928571428571426,5.521428571428571L4.121428571428571,5.521428571428571L4.121428571428571,5.735714285714286L4.764285714285714,5.735714285714286L4.764285714285714,5.95z" stroke="none"/><path d="M9,6.05L9,5.95L9.692857142857143,5.95L9.692857142857143,6.164285714285715L10.12142857142857,6.164285714285715L10.12142857142857,6.378571428571428L10.878571428571426,6.378571428571428L10.878571428571426,6.164285714285715L11.307142857142857,6.164285714285715L11.307142857142857,5.735714285714286L11.521428571428569,5.735714285714286L11.521428571428569,5.521428571428571L12.378571428571426,5.521428571428571L12.378571428571426,5.307142857142857L12.592857142857142,5.307142857142857L12.592857142857142,4.878571428571429L13.021428571428569,4.878571428571429L13.021428571428569,4.664285714285715L13.235714285714284,4.664285714285715L13.235714285714284,4.45L13.5,4.45L13.5,4.55L13.335714285714285,4.55L13.335714285714285,4.764285714285714L13.12142857142857,4.764285714285714L13.12142857142857,4.978571428571429L12.692857142857143,4.978571428571429L12.692857142857143,5.407142857142857L12.478571428571428,5.407142857142857L12.478571428571428,5.621428571428571L11.62142857142857,5.621428571428571L11.62142857142857,5.835714285714285L11.407142857142858,5.835714285714285L11.407142857142858,6.264285714285714L10.978571428571428,6.264285714285714L10.978571428571428,6.478571428571428L10.021428571428569,6.478571428571428L10.021428571428569,6.264285714285714L9.592857142857142,6.264285714285714L9.592857142857142,6.05z" stroke="none"/><path d="M22.55,9L22.45,9L22.45,8.092857142857142L22.664285714285715,8.092857142857142L22.664285714285715,7.878571428571428L23.09285714285714,7.878571428571428L23.09285714285714,7.664285714285715L23.307142857142857,7.664285714285715L23.307142857142857,7.021428571428571L23.52142857142857,7.021428571428571L23.52142857142857,6.5928571428571425L23.735714285714284,6.5928571428571425L23.735714285714284,6.378571428571428L24.378571428571426,6.378571428571428L24.378571428571426,4.764285714285714L23.95,4.764285714285714L23.95,4.5L24.05,4.5L24.05,4.664285714285715L24.478571428571428,4.664285714285715L24.478571428571428,6.478571428571428L23.835714285714285,6.478571428571428L23.835714285714285,6.692857142857142L23.62142857142857,6.692857142857142L23.62142857142857,7.121428571428571L23.40714285714286,7.121428571428571L23.40714285714286,7.764285714285714L23.192857142857143,7.764285714285714L23.192857142857143,7.978571428571428L22.764285714285716,7.978571428571428L22.764285714285716,8.192857142857143L22.55,8.192857142857143z" stroke="none"/><path d="M4.5,2.95L4.5,3.05L4.021428571428571,3.05L4.021428571428571,2.8357142857142854L3.3785714285714286,2.8357142857142854L3.3785714285714286,2.6214285714285714L2.407142857142857,2.6214285714285714L2.407142857142857,5.521428571428571L3.05,5.521428571428571L3.05,5.95L4.335714285714285,5.95L4.335714285714285,6.164285714285715L4.55,6.164285714285715L4.55,6.807142857142857L5.407142857142857,6.807142857142857L5.407142857142857,7.45L6,7.45L6,7.55L5.307142857142857,7.55L5.307142857142857,6.907142857142857L4.45,6.907142857142857L4.45,6.264285714285714L4.235714285714286,6.264285714285714L4.235714285714286,6.05L2.95,6.05L2.95,5.621428571428571L2.3071428571428574,5.621428571428571L2.3071428571428574,2.521428571428572L3.478571428571428,2.521428571428572L3.478571428571428,2.7357142857142858L4.121428571428571,2.7357142857142858L4.121428571428571,2.95z" stroke="none"/><path d="M27,8.95L27,9.05L25.12142857142857,9.05L25.12142857142857,9.264285714285716L24.90714285714286,9.264285714285716L24.90714285714286,9.478571428571428L22.021428571428572,9.478571428571428L22.021428571428572,6.378571428571428L22.45,6.378571428571428L22.45,6L22.55,6L22.55,6.478571428571428L22.121428571428574,6.478571428571428L22.121428571428574,9.378571428571426L24.807142857142857,9.378571428571426L24.807142857142857,9.164285714285715L25.02142857142857,9.164285714285715L25.02142857142857,8.95z" stroke="none"/><path d="M24,2.95L24,3.05L23.09285714285714,3.05L23.09285714285714,2.8357142857142854L22.878571428571426,2.8357142857142854L22.878571428571426,2.6214285714285714L19.55,2.6214285714285714L19.55,2.8357142857142854L19.335714285714285,2.8357142857142854L19.335714285714285,3.05L18,3.05L18,2.95L19.235714285714284,2.95L19.235714285714284,2.7357142857142858L19.45,2.7357142857142858L19.45,2.521428571428572L22.978571428571428,2.521428571428572L22.978571428571428,2.7357142857142858L23.192857142857143,2.7357142857142858L23.192857142857143,2.95z" stroke="none"/><path d="M18,12.05L18,11.95L21.05,11.95L21.05,12.164285714285715L22.121428571428574,12.164285714285715L22.121428571428574,12.378571428571426L23.307142857142857,12.378571428571426L23.307142857142857,12.164285714285715L23.95,12.164285714285715L23.95,12L24.05,12L24.05,12.264285714285716L23.40714285714286,12.264285714285716L23.40714285714286,12.478571428571428L22.021428571428572,12.478571428571428L22.021428571428572,12.264285714285716L20.95,12.264285714285716L20.95,12.05z" stroke="none"/><path d="M10.5,2.95L10.5,3.05L8.307142857142857,3.05L8.307142857142857,2.8357142857142854L6.378571428571428,2.8357142857142854L6.378571428571428,2.6214285714285714L5.621428571428571,2.6214285714285714L5.621428571428571,4.121428571428571L5.407142857142857,4.121428571428571L5.407142857142857,4.55L4.5,4.55L4.5,4.45L5.307142857142857,4.45L5.307142857142857,4.021428571428571L5.521428571428571,4.021428571428571L5.521428571428571,2.521428571428572L6.478571428571428,2.521428571428572L6.478571428571428,2.7357142857142858L8.407142857142858,2.7357142857142858L8.407142857142858,2.95z" stroke="none"/><path d="M21,10.55L21,10.45L26.09285714285714,10.45L26.09285714285714,10.235714285714284L26.307142857142857,10.235714285714284L26.307142857142857,10.021428571428569L26.735714285714284,10.021428571428569L26.735714285714284,9.807142857142857L26.95,9.807142857142857L26.95,9.592857142857142L27.164285714285715,9.592857142857142L27.164285714285715,9.378571428571426L27.378571428571426,9.378571428571426L27.378571428571426,8.62142857142857L27.164285714285715,8.62142857142857L27.164285714285715,8.192857142857143L26.52142857142857,8.192857142857143L26.52142857142857,6.692857142857142L26.307142857142857,6.692857142857142L26.307142857142857,6.264285714285714L25.45,6.264285714285714L25.45,6L25.55,6L25.55,6.164285714285715L26.40714285714286,6.164285714285715L26.40714285714286,6.5928571428571425L26.62142857142857,6.5928571428571425L26.62142857142857,8.092857142857142L27.264285714285716,8.092857142857142L27.264285714285716,8.521428571428569L27.478571428571428,8.521428571428569L27.478571428571428,9.478571428571428L27.264285714285716,9.478571428571428L27.264285714285716,9.692857142857143L27.05,9.692857142857143L27.05,9.907142857142858L26.835714285714285,9.907142857142858L26.835714285714285,10.12142857142857L26.40714285714286,10.12142857142857L26.40714285714286,10.335714285714285L26.192857142857143,10.335714285714285L26.192857142857143,10.55z" stroke="none"/><path d="M13.55,7.5L13.45,7.5L13.45,5.0928571428571425L13.664285714285715,5.0928571428571425L13.664285714285715,4.878571428571429L13.878571428571426,4.878571428571429L13.878571428571426,4.121428571428571L12.907142857142858,4.121428571428571L12.907142857142858,4.55L12.478571428571428,4.55L12.478571428571428,4.978571428571429L8.092857142857142,4.978571428571429L8.092857142857142,4.764285714285714L7.45,4.764285714285714L7.45,4.5L7.55,4.5L7.55,4.664285714285715L8.192857142857143,4.664285714285715L8.192857142857143,4.878571428571429L12.378571428571426,4.878571428571429L12.378571428571426,4.45L12.807142857142857,4.45L12.807142857142857,4.021428571428571L13.978571428571428,4.021428571428571L13.978571428571428,4.978571428571429L13.764285714285716,4.978571428571429L13.764285714285716,5.192857142857142L13.55,5.192857142857142z" stroke="none"/><path d="M12,6.05L12,5.95L12.264285714285716,5.95L12.264285714285716,6.164285714285715L12.478571428571428,6.164285714285715L12.478571428571428,6.5928571428571425L12.692857142857143,6.5928571428571425L12.692857142857143,7.021428571428571L12.907142857142858,7.021428571428571L12.907142857142858,7.664285714285715L13.12142857142857,7.664285714285715L13.12142857142857,7.878571428571428L15.378571428571426,7.878571428571428L15.378571428571426,7.664285714285715L15.592857142857142,7.664285714285715L15.592857142857142,7.235714285714286L15.807142857142857,7.235714285714286L15.807142857142857,5.95L16.02142857142857,5.95L16.02142857142857,5.521428571428571L21.478571428571428,5.521428571428571L21.478571428571428,6.478571428571428L21.264285714285716,6.478571428571428L21.264285714285716,7.121428571428571L21.05,7.121428571428571L21.05,7.335714285714285L19.55,7.335714285714285L19.55,7.5L19.45,7.5L19.45,7.235714285714286L20.95,7.235714285714286L20.95,7.021428571428571L21.164285714285715,7.021428571428571L21.164285714285715,6.378571428571428L21.378571428571426,6.378571428571428L21.378571428571426,5.621428571428571L16.12142857142857,5.621428571428571L16.12142857142857,6.05L15.907142857142858,6.05L15.907142857142858,7.335714285714285L15.692857142857143,7.335714285714285L15.692857142857143,7.764285714285714L15.478571428571428,7.764285714285714L15.478571428571428,7.978571428571428L13.021428571428569,7.978571428571428L13.021428571428569,7.764285714285714L12.807142857142857,7.764285714285714L12.807142857142857,7.121428571428571L12.592857142857142,7.121428571428571L12.592857142857142,6.692857142857142L12.378571428571426,6.692857142857142L12.378571428571426,6.264285714285714L12.164285714285715,6.264285714285714L12.164285714285715,6.05z" stroke="none"/><path d="M19.5,10.55L19.5,10.45L19.978571428571428,10.45L19.978571428571428,10.664285714285715L20.621428571428574,10.664285714285715L20.621428571428574,10.878571428571426L26.192857142857143,10.878571428571426L26.192857142857143,11.092857142857142L26.40714285714286,11.092857142857142L26.40714285714286,11.307142857142857L26.835714285714285,11.307142857142857L26.835714285714285,11.735714285714284L27.05,11.735714285714284L27.05,12L26.95,12L26.95,11.835714285714285L26.735714285714284,11.835714285714285L26.735714285714284,11.407142857142858L26.307142857142857,11.407142857142858L26.307142857142857,11.192857142857143L26.09285714285714,11.192857142857143L26.09285714285714,10.978571428571428L20.521428571428572,10.978571428571428L20.521428571428572,10.764285714285716L19.878571428571426,10.764285714285716L19.878571428571426,10.55z" stroke="none"/><path d="M26.95,10.5L27.05,10.5L27.05,11.521428571428569L27.478571428571428,11.521428571428569L27.478571428571428,12.478571428571428L26.52142857142857,12.478571428571428L26.52142857142857,12.264285714285716L26.09285714285714,12.264285714285716L26.09285714285714,11.407142857142858L19.878571428571426,11.407142857142858L19.878571428571426,11.192857142857143L19.664285714285715,11.192857142857143L19.664285714285715,10.978571428571428L19.021428571428572,10.978571428571428L19.021428571428572,8.95L19.5,8.95L19.5,9.05L19.121428571428574,9.05L19.121428571428574,10.878571428571426L19.764285714285716,10.878571428571426L19.764285714285716,11.092857142857142L19.978571428571428,11.092857142857142L19.978571428571428,11.307142857142857L26.192857142857143,11.307142857142857L26.192857142857143,12.164285714285715L26.62142857142857,12.164285714285715L26.62142857142857,12.378571428571426L27.378571428571426,12.378571428571426L27.378571428571426,11.62142857142857L26.95,11.62142857142857z" stroke="none"/><path d="M7.45,7.5L7.55,7.5L7.55,8.192857142857143L7.335714285714285,8.192857142857143L7.335714285714285,8.62142857142857L7.121428571428571,8.62142857142857L7.121428571428571,8.835714285714285L6.692857142857142,8.835714285714285L6.692857142857142,9.478571428571428L5.407142857142857,9.478571428571428L5.407142857142857,11.092857142857142L7.335714285714285,11.092857142857142L7.335714285714285,11.307142857142857L7.55,11.307142857142857L7.55,11.521428571428569L7.978571428571428,11.521428571428569L7.978571428571428,12.378571428571426L12.692857142857143,12.378571428571426L12.692857142857143,12.592857142857142L16.878571428571426,12.592857142857142L16.878571428571426,11.407142857142858L16.664285714285715,11.407142857142858L16.664285714285715,11.192857142857143L15.807142857142857,11.192857142857143L15.807142857142857,10.978571428571428L15.164285714285715,10.978571428571428L15.164285714285715,10.764285714285716L14.95,10.764285714285716L14.95,10.5L15.05,10.5L15.05,10.664285714285715L15.264285714285716,10.664285714285715L15.264285714285716,10.878571428571426L15.907142857142858,10.878571428571426L15.907142857142858,11.092857142857142L16.764285714285716,11.092857142857142L16.764285714285716,11.307142857142857L16.978571428571428,11.307142857142857L16.978571428571428,12.692857142857143L12.592857142857142,12.692857142857143L12.592857142857142,12.478571428571428L7.878571428571428,12.478571428571428L7.878571428571428,11.62142857142857L7.45,11.62142857142857L7.45,11.407142857142858L7.235714285714286,11.407142857142858L7.235714285714286,11.192857142857143L5.307142857142857,11.192857142857143L5.307142857142857,9.378571428571426L6.5928571428571425,9.378571428571426L6.5928571428571425,8.735714285714284L7.021428571428571,8.735714285714284L7.021428571428571,8.521428571428569L7.235714285714286,8.521428571428569L7.235714285714286,8.092857142857142L7.45,8.092857142857142z" stroke="none"/><path d="M3.05,7.5L2.95,7.5L2.95,6.264285714285714L2.3071428571428574,6.264285714285714L2.3071428571428574,6.05L2.092857142857143,6.05L2.092857142857143,2.3071428571428574L12.05,2.3071428571428574L12.05,3L11.95,3L11.95,2.407142857142857L2.1928571428571426,2.407142857142857L2.1928571428571426,5.95L2.407142857142857,5.95L2.407142857142857,6.164285714285715L3.05,6.164285714285715z" stroke="none"/><path d="M13.5,10.55L13.5,10.45L14.092857142857142,10.45L14.092857142857142,10.021428571428569L15.478571428571428,10.021428571428569L15.478571428571428,10.45L16.12142857142857,10.45L16.12142857142857,10.878571428571426L16.978571428571428,10.878571428571426L16.978571428571428,11.092857142857142L17.192857142857143,11.092857142857142L17.192857142857143,12.907142857142858L5.521428571428571,12.907142857142858L5.521428571428571,12.478571428571428L4.664285714285715,12.478571428571428L4.664285714285715,12.264285714285716L4.021428571428571,12.264285714285716L4.021428571428571,12.05L3,12.05L3,11.95L4.121428571428571,11.95L4.121428571428571,12.164285714285715L4.764285714285714,12.164285714285715L4.764285714285714,12.378571428571426L5.621428571428571,12.378571428571426L5.621428571428571,12.807142857142857L17.09285714285714,12.807142857142857L17.09285714285714,11.192857142857143L16.878571428571426,11.192857142857143L16.878571428571426,10.978571428571428L16.02142857142857,10.978571428571428L16.02142857142857,10.55L15.378571428571426,10.55L15.378571428571426,10.12142857142857L14.192857142857143,10.12142857142857L14.192857142857143,10.55z" stroke="none"/><path d="M4.5,7.45L4.5,7.55L3.6928571428571426,7.55L3.6928571428571426,7.764285714285714L3.478571428571428,7.764285714285714L3.478571428571428,7.978571428571428L2.521428571428572,7.978571428571428L2.521428571428572,6.692857142857142L2.092857142857143,6.692857142857142L2.092857142857143,6.264285714285714L1.8785714285714286,6.264285714285714L1.8785714285714286,2.092857142857143L14.192857142857143,2.092857142857143L14.192857142857143,2.521428571428572L14.407142857142858,2.521428571428572L14.407142857142858,2.95L15,2.95L15,3.05L14.307142857142857,3.05L14.307142857142857,2.6214285714285714L14.092857142857142,2.6214285714285714L14.092857142857142,2.1928571428571426L1.9785714285714286,2.1928571428571426L1.9785714285714286,6.164285714285715L2.1928571428571426,6.164285714285715L2.1928571428571426,6.5928571428571425L2.6214285714285714,6.5928571428571425L2.6214285714285714,7.878571428571428L3.3785714285714286,7.878571428571428L3.3785714285714286,7.664285714285715L3.592857142857143,7.664285714285715L3.592857142857143,7.45z" stroke="none"/><path d="M15,4.55L15,4.45L16.12142857142857,4.45L16.12142857142857,4.878571428571429L16.878571428571426,4.878571428571429L16.878571428571426,2.6214285714285714L14.95,2.6214285714285714L14.95,2.1928571428571426L14.521428571428569,2.1928571428571426L14.521428571428569,1.9785714285714286L1.7642857142857145,1.9785714285714286L1.7642857142857145,7.878571428571428L2.407142857142857,7.878571428571428L2.407142857142857,8.307142857142857L2.8357142857142854,8.307142857142857L2.8357142857142854,8.95L3,8.95L3,9.05L2.7357142857142858,9.05L2.7357142857142858,8.407142857142858L2.3071428571428574,8.407142857142858L2.3071428571428574,7.978571428571428L1.6642857142857144,7.978571428571428L1.6642857142857144,1.8785714285714286L14.62142857142857,1.8785714285714286L14.62142857142857,2.092857142857143L15.05,2.092857142857143L15.05,2.521428571428572L16.978571428571428,2.521428571428572L16.978571428571428,4.978571428571429L16.02142857142857,4.978571428571429L16.02142857142857,4.55z" stroke="none"/></svg>