<svg version="1.1" width="30" height="15" xmlns="http://www.w3.org/2000/svg"><path d="M14.95,3.8071428571428574L14.95,3L15.05,3L15.05,3.8071428571428574L16.335714285714285,3.8071428571428574L16.335714285714285,4.021428571428571L16.55,4.021428571428571L16.55,4.5L16.45,4.5L16.45,4.121428571428571L16.235714285714284,4.121428571428571L16.235714285714284,3.907142857142857L13.978571428571428,3.907142857142857L13.978571428571428,4.121428571428571L13.764285714285716,4.121428571428571L13.764285714285716,4.335714285714285L13.55,4.335714285714285L13.55,4.5L13.45,4.5L13.45,4.235714285714286L13.664285714285715,4.235714285714286L13.664285714285715,4.021428571428571L13.878571428571426,4.021428571428571L13.878571428571426,3.8071428571428574z" stroke="none"/><path d="M8.092857142857142,4.335714285714285L7.878571428571428,4.335714285714285L7.878571428571428,4.121428571428571L5.621428571428571,4.121428571428571L5.621428571428571,4.764285714285714L4.978571428571429,4.764285714285714L4.978571428571429,4.978571428571429L3.907142857142857,4.978571428571429L3.907142857142857,5.192857142857142L3.2642857142857142,5.192857142857142L3.2642857142857142,5.621428571428571L3.05,5.621428571428571L3.05,6L2.95,6L2.95,5.521428571428571L3.1642857142857146,5.521428571428571L3.1642857142857146,5.0928571428571425L3.8071428571428574,5.0928571428571425L3.8071428571428574,4.878571428571429L4.878571428571429,4.878571428571429L4.878571428571429,4.664285714285715L5.521428571428571,4.664285714285715L5.521428571428571,4.021428571428571L7.978571428571428,4.021428571428571L7.978571428571428,4.235714285714286L8.192857142857143,4.235714285714286L8.192857142857143,6.378571428571428L8.521428571428569,6.378571428571428L8.521428571428569,5.95L9,5.95L9,6.05L8.62142857142857,6.05L8.62142857142857,6.478571428571428L8.192857142857143,6.478571428571428L8.192857142857143,6.5928571428571425L11.407142857142858,6.5928571428571425L11.407142857142858,7.021428571428571L11.62142857142857,7.021428571428571L11.62142857142857,7.45L12,7.45L12,7.55L11.521428571428569,7.55L11.521428571428569,7.121428571428571L11.307142857142857,7.121428571428571L11.307142857142857,6.692857142857142L8.092857142857142,6.692857142857142z" stroke="none"/><path d="M5.95,4.5L6.05,4.5L6.05,5.95L6.164285714285715,5.95L6.164285714285715,4.878571428571429L6.807142857142857,4.878571428571429L6.807142857142857,4.45L7.5,4.45L7.5,4.55L6.907142857142857,4.55L6.907142857142857,4.978571428571429L6.264285714285714,4.978571428571429L6.264285714285714,6.05L6.05,6.05L6.05,7.121428571428571L5.621428571428571,7.121428571428571L5.621428571428571,8.835714285714285L4.764285714285714,8.835714285714285L4.764285714285714,9.05L4.5,9.05L4.5,8.95L4.664285714285715,8.95L4.664285714285715,8.735714285714284L5.521428571428571,8.735714285714284L5.521428571428571,7.021428571428571L5.95,7.021428571428571z" stroke="none"/><path d="M5.95,8.092857142857142L5.95,7.5L6.05,7.5L6.05,8.092857142857142L7.878571428571428,8.092857142857142L7.878571428571428,7.664285714285715L8.092857142857142,7.664285714285715L8.092857142857142,7.45L9,7.45L9,7.55L8.192857142857143,7.55L8.192857142857143,7.764285714285714L7.978571428571428,7.764285714285714L7.978571428571428,8.192857142857143L6.05,8.192857142857143L6.05,9L5.95,9L5.95,8.192857142857143L5.835714285714285,8.192857142857143L5.835714285714285,9.05L4.978571428571429,9.05L4.978571428571429,9.478571428571428L3.8071428571428574,9.478571428571428L3.8071428571428574,9.264285714285716L3.592857142857143,9.264285714285716L3.592857142857143,9.05L3,9.05L3,8.95L3.6928571428571426,8.95L3.6928571428571426,9.164285714285715L3.907142857142857,9.164285714285715L3.907142857142857,9.378571428571426L4.878571428571429,9.378571428571426L4.878571428571429,8.95L5.735714285714286,8.95L5.735714285714286,8.092857142857142z" stroke="none"/><path d="M15.592857142857142,7.021428571428571L15.592857142857142,6.692857142857142L15.378571428571426,6.692857142857142L15.378571428571426,6.264285714285714L14.95,6.264285714285714L14.95,6L15.05,6L15.05,6.164285714285715L15.478571428571428,6.164285714285715L15.478571428571428,6.5928571428571425L15.692857142857143,6.5928571428571425L15.692857142857143,7.021428571428571L15.807142857142857,7.021428571428571L15.807142857142857,6.05L15.592857142857142,6.05L15.592857142857142,5.621428571428571L12.592857142857142,5.621428571428571L12.592857142857142,5.407142857142857L12.164285714285715,5.407142857142857L12.164285714285715,4.764285714285714L11.95,4.764285714285714L11.95,4.5L12.05,4.5L12.05,4.664285714285715L12.264285714285716,4.664285714285715L12.264285714285716,5.307142857142857L12.692857142857143,5.307142857142857L12.692857142857143,5.521428571428571L15.692857142857143,5.521428571428571L15.692857142857143,5.95L15.907142857142858,5.95L15.907142857142858,7.121428571428571L15.692857142857143,7.121428571428571L15.692857142857143,7.235714285714286L15.907142857142858,7.235714285714286L15.907142857142858,7.664285714285715L16.12142857142857,7.664285714285715L16.12142857142857,7.878571428571428L21.05,7.878571428571428L21.05,8.092857142857142L21.692857142857143,8.092857142857142L21.692857142857143,8.307142857142857L22.121428571428574,8.307142857142857L22.121428571428574,8.735714285714284L22.335714285714285,8.735714285714284L22.335714285714285,8.95L22.5,8.95L22.5,9.05L22.235714285714284,9.05L22.235714285714284,8.835714285714285L22.021428571428572,8.835714285714285L22.021428571428572,8.407142857142858L21.59285714285714,8.407142857142858L21.59285714285714,8.192857142857143L20.95,8.192857142857143L20.95,7.978571428571428L16.02142857142857,7.978571428571428L16.02142857142857,7.764285714285714L15.807142857142857,7.764285714285714L15.807142857142857,7.335714285714285L15.592857142857142,7.335714285714285L15.592857142857142,7.121428571428571L15.05,7.121428571428571L15.05,7.55L14.62142857142857,7.55L14.62142857142857,7.764285714285714L14.407142857142858,7.764285714285714L14.407142857142858,7.978571428571428L13.978571428571428,7.978571428571428L13.978571428571428,8.407142857142858L13.764285714285716,8.407142857142858L13.764285714285716,8.62142857142857L13.55,8.62142857142857L13.55,9L13.45,9L13.45,8.521428571428569L13.664285714285715,8.521428571428569L13.664285714285715,8.307142857142857L13.878571428571426,8.307142857142857L13.878571428571426,7.878571428571428L14.307142857142857,7.878571428571428L14.307142857142857,7.664285714285715L14.521428571428569,7.664285714285715L14.521428571428569,7.45L14.95,7.45L14.95,7.021428571428571z" stroke="none"/><path d="M16.664285714285715,3.8071428571428574L16.664285714285715,3.592857142857143L17.307142857142857,3.592857142857143L17.307142857142857,3.3785714285714286L18.378571428571426,3.3785714285714286L18.378571428571426,3.1642857142857146L18.59285714285714,3.1642857142857146L18.59285714285714,2.95L18.807142857142857,2.95L18.807142857142857,2.7357142857142858L19.764285714285716,2.7357142857142858L19.764285714285716,2.95L19.978571428571428,2.95L19.978571428571428,3.8071428571428574L20.40714285714286,3.8071428571428574L20.40714285714286,4.235714285714286L20.621428571428574,4.235714285714286L20.621428571428574,4.45L21,4.45L21,4.55L20.521428571428572,4.55L20.521428571428572,4.335714285714285L20.307142857142857,4.335714285714285L20.307142857142857,3.907142857142857L19.878571428571426,3.907142857142857L19.878571428571426,3.05L19.664285714285715,3.05L19.664285714285715,2.8357142857142854L18.90714285714286,2.8357142857142854L18.90714285714286,3.05L18.692857142857143,3.05L18.692857142857143,3.2642857142857142L18.478571428571428,3.2642857142857142L18.478571428571428,3.478571428571428L17.40714285714286,3.478571428571428L17.40714285714286,3.6928571428571426L16.764285714285716,3.6928571428571426L16.764285714285716,3.8071428571428574L18.164285714285715,3.8071428571428574L18.164285714285715,3.592857142857143L19.235714285714284,3.592857142857143L19.235714285714284,2.95L19.5,2.95L19.5,3.05L19.335714285714285,3.05L19.335714285714285,3.6928571428571426L18.264285714285716,3.6928571428571426L18.264285714285716,3.907142857142857L16.764285714285716,3.907142857142857L16.764285714285716,4.021428571428571L16.978571428571428,4.021428571428571L16.978571428571428,6.05L16.5,6.05L16.5,5.95L16.878571428571426,5.95L16.878571428571426,4.121428571428571L16.664285714285715,4.121428571428571L16.664285714285715,3.907142857142857L16.45,3.907142857142857L16.45,3.6928571428571426L16.235714285714284,3.6928571428571426L16.235714285714284,3.478571428571428L16.02142857142857,3.478571428571428L16.02142857142857,2.6214285714285714L11.62142857142857,2.6214285714285714L11.62142857142857,2.8357142857142854L11.407142857142858,2.8357142857142854L11.407142857142858,3.05L10.5,3.05L10.5,2.95L11.307142857142857,2.95L11.307142857142857,2.7357142857142858L11.521428571428569,2.7357142857142858L11.521428571428569,2.521428571428572L16.12142857142857,2.521428571428572L16.12142857142857,3.3785714285714286L16.335714285714285,3.3785714285714286L16.335714285714285,3.592857142857143L16.55,3.592857142857143L16.55,3.8071428571428574z" stroke="none"/><path d="M7.45,6L7.55,6L7.55,7.5L7.45,7.5z" stroke="none"/><path d="M6,3.05L6,2.95L7.5,2.95L7.5,3.05z" stroke="none"/><path d="M19.55,6L19.45,6L19.45,4.5L19.55,4.5z" stroke="none"/><path d="M9.05,4.5L8.95,4.5L8.95,3L9.05,3z" stroke="none"/><path d="M22.5,11.95L22.5,12.05L19.5,12.05L19.5,11.95z" stroke="none"/><path d="M22.5,10.55L22.5,10.45L23.307142857142857,10.45L23.307142857142857,10.235714285714284L23.52142857142857,10.235714285714284L23.52142857142857,10.021428571428569L25.55,10.021428571428569L25.55,10.5L25.45,10.5L25.45,10.12142857142857L23.62142857142857,10.12142857142857L23.62142857142857,10.335714285714285L23.40714285714286,10.335714285714285L23.40714285714286,10.55z" stroke="none"/><path d="M19.5,7.55L19.5,7.45L20.307142857142857,7.45L20.307142857142857,7.021428571428571L21.90714285714286,7.021428571428571L21.90714285714286,7.235714285714286L22.121428571428574,7.235714285714286L22.121428571428574,7.45L22.5,7.45L22.5,7.55L22.021428571428572,7.55L22.021428571428572,7.335714285714285L21.807142857142857,7.335714285714285L21.807142857142857,7.121428571428571L20.40714285714286,7.121428571428571L20.40714285714286,7.55z" stroke="none"/><path d="M13.5,5.95L13.5,6.05L11.95,6.05L11.95,5.621428571428571L11.735714285714284,5.621428571428571L11.735714285714284,5.407142857142857L11.521428571428569,5.407142857142857L11.521428571428569,4.021428571428571L12.692857142857143,4.021428571428571L12.692857142857143,4.45L13.12142857142857,4.45L13.12142857142857,4.878571428571429L15.478571428571428,4.878571428571429L15.478571428571428,5.0928571428571425L15.692857142857143,5.0928571428571425L15.692857142857143,5.307142857142857L15.907142857142858,5.307142857142857L15.907142857142858,5.735714285714286L16.12142857142857,5.735714285714286L16.12142857142857,7.235714285714286L16.55,7.235714285714286L16.55,7.5L16.45,7.5L16.45,7.335714285714285L16.02142857142857,7.335714285714285L16.02142857142857,5.835714285714285L15.807142857142857,5.835714285714285L15.807142857142857,5.407142857142857L15.592857142857142,5.407142857142857L15.592857142857142,5.192857142857142L15.378571428571426,5.192857142857142L15.378571428571426,4.978571428571429L13.021428571428569,4.978571428571429L13.021428571428569,4.55L12.592857142857142,4.55L12.592857142857142,4.121428571428571L11.62142857142857,4.121428571428571L11.62142857142857,5.307142857142857L11.835714285714285,5.307142857142857L11.835714285714285,5.521428571428571L12.05,5.521428571428571L12.05,5.95z" stroke="none"/><path d="M10.5,8.95L10.5,9.05L10.12142857142857,9.05L10.12142857142857,9.478571428571428L8.407142857142858,9.478571428571428L8.407142857142858,9.907142857142858L8.192857142857143,9.907142857142858L8.192857142857143,10.55L7.5,10.55L7.5,10.45L8.092857142857142,10.45L8.092857142857142,9.807142857142857L8.307142857142857,9.807142857142857L8.307142857142857,9.378571428571426L10.021428571428569,9.378571428571426L10.021428571428569,8.95z" stroke="none"/><path d="M10.55,12L10.45,12L10.45,11.521428571428569L10.664285714285715,11.521428571428569L10.664285714285715,11.092857142857142L10.878571428571426,11.092857142857142L10.878571428571426,10.021428571428569L11.092857142857142,10.021428571428569L11.092857142857142,9.807142857142857L11.735714285714284,9.807142857142857L11.735714285714284,9.378571428571426L11.95,9.378571428571426L11.95,9L12.05,9L12.05,9.478571428571428L11.835714285714285,9.478571428571428L11.835714285714285,9.907142857142858L11.192857142857143,9.907142857142858L11.192857142857143,10.12142857142857L10.978571428571428,10.12142857142857L10.978571428571428,11.192857142857143L10.764285714285716,11.192857142857143L10.764285714285716,11.62142857142857L10.55,11.62142857142857z" stroke="none"/><path d="M3.05,12L2.95,12L2.95,10.764285714285716L2.7357142857142858,10.764285714285716L2.7357142857142858,10.335714285714285L2.521428571428572,10.335714285714285L2.521428571428572,8.521428571428569L3.8071428571428574,8.521428571428569L3.8071428571428574,8.092857142857142L4.45,8.092857142857142L4.45,7.5L4.55,7.5L4.55,8.192857142857143L3.907142857142857,8.192857142857143L3.907142857142857,8.62142857142857L2.6214285714285714,8.62142857142857L2.6214285714285714,10.235714285714284L2.8357142857142854,10.235714285714284L2.8357142857142854,10.664285714285715L3.05,10.664285714285715z" stroke="none"/><path d="M27,2.95L27,3.05L24.692857142857143,3.05L24.692857142857143,3.478571428571428L24.478571428571428,3.478571428571428L24.478571428571428,3.907142857142857L24.05,3.907142857142857L24.05,4.121428571428571L23.62142857142857,4.121428571428571L23.62142857142857,4.764285714285714L23.40714285714286,4.764285714285714L23.40714285714286,5.407142857142857L22.764285714285716,5.407142857142857L22.764285714285716,5.835714285714285L22.55,5.835714285714285L22.55,6L22.45,6L22.45,5.735714285714286L22.664285714285715,5.735714285714286L22.664285714285715,5.307142857142857L23.307142857142857,5.307142857142857L23.307142857142857,4.664285714285715L23.52142857142857,4.664285714285715L23.52142857142857,4.021428571428571L23.95,4.021428571428571L23.95,3.8071428571428574L24.378571428571426,3.8071428571428574L24.378571428571426,3.3785714285714286L24.59285714285714,3.3785714285714286L24.59285714285714,2.95z" stroke="none"/><path d="M4.5,4.55L4.5,4.45L5.0928571428571425,4.45L5.0928571428571425,4.021428571428571L5.307142857142857,4.021428571428571L5.307142857142857,3.8071428571428574L8.192857142857143,3.8071428571428574L8.192857142857143,4.021428571428571L8.407142857142858,4.021428571428571L8.407142857142858,4.664285714285715L8.62142857142857,4.664285714285715L8.62142857142857,4.878571428571429L10.335714285714285,4.878571428571429L10.335714285714285,5.0928571428571425L10.55,5.0928571428571425L10.55,5.521428571428571L11.62142857142857,5.521428571428571L11.62142857142857,6.164285714285715L12.05,6.164285714285715L12.05,6.5928571428571425L12.478571428571428,6.5928571428571425L12.478571428571428,7.978571428571428L10.55,7.978571428571428L10.55,8.192857142857143L10.335714285714285,8.192857142857143L10.335714285714285,8.407142857142858L7.764285714285714,8.407142857142858L7.764285714285714,8.835714285714285L7.55,8.835714285714285L7.55,9L7.45,9L7.45,8.735714285714284L7.664285714285715,8.735714285714284L7.664285714285715,8.307142857142857L10.235714285714284,8.307142857142857L10.235714285714284,8.092857142857142L10.45,8.092857142857142L10.45,7.878571428571428L12.378571428571426,7.878571428571428L12.378571428571426,6.692857142857142L11.95,6.692857142857142L11.95,6.264285714285714L11.521428571428569,6.264285714285714L11.521428571428569,5.621428571428571L10.45,5.621428571428571L10.45,5.192857142857142L10.235714285714284,5.192857142857142L10.235714285714284,4.978571428571429L8.521428571428569,4.978571428571429L8.521428571428569,4.764285714285714L8.307142857142857,4.764285714285714L8.307142857142857,4.121428571428571L8.092857142857142,4.121428571428571L8.092857142857142,3.907142857142857L5.407142857142857,3.907142857142857L5.407142857142857,4.121428571428571L5.192857142857142,4.121428571428571L5.192857142857142,4.55z" stroke="none"/><path d="M10.5,10.45L10.5,10.55L10.12142857142857,10.55L10.12142857142857,10.764285714285716L9.478571428571428,10.764285714285716L9.478571428571428,10.978571428571428L5.0928571428571425,10.978571428571428L5.0928571428571425,10.764285714285716L4.878571428571429,10.764285714285716L4.878571428571429,10.55L4.5,10.55L4.5,10.45L4.978571428571429,10.45L4.978571428571429,10.664285714285715L5.192857142857142,10.664285714285715L5.192857142857142,10.878571428571426L9.378571428571426,10.878571428571426L9.378571428571426,10.664285714285715L10.021428571428569,10.664285714285715L10.021428571428569,10.45z" stroke="none"/><path d="M15,9.05L15,8.95L20.835714285714285,8.95L20.835714285714285,10.235714285714284L21.05,10.235714285714284L21.05,10.5L20.95,10.5L20.95,10.335714285714285L20.735714285714284,10.335714285714285L20.735714285714284,9.05z" stroke="none"/><path d="M12,10.55L12,10.45L16.55,10.45L16.55,10.664285714285715L16.978571428571428,10.664285714285715L16.978571428571428,10.878571428571426L17.192857142857143,10.878571428571426L17.192857142857143,11.307142857142857L17.40714285714286,11.307142857142857L17.40714285714286,11.735714285714284L17.835714285714285,11.735714285714284L17.835714285714285,11.95L18,11.95L18,12.05L17.735714285714284,12.05L17.735714285714284,11.835714285714285L17.307142857142857,11.835714285714285L17.307142857142857,11.407142857142858L17.09285714285714,11.407142857142858L17.09285714285714,10.978571428571428L16.878571428571426,10.978571428571428L16.878571428571426,10.764285714285716L16.45,10.764285714285716L16.45,10.55z" stroke="none"/><path d="M21,7.55L21,7.45L21.264285714285716,7.45L21.264285714285716,7.664285714285715L21.478571428571428,7.664285714285715L21.478571428571428,7.878571428571428L22.121428571428574,7.878571428571428L22.121428571428574,8.092857142857142L22.764285714285716,8.092857142857142L22.764285714285716,8.307142857142857L22.978571428571428,8.307142857142857L22.978571428571428,9.592857142857142L24.05,9.592857142857142L24.05,9.807142857142857L25.764285714285716,9.807142857142857L25.764285714285716,10.021428571428569L25.978571428571428,10.021428571428569L25.978571428571428,10.235714285714284L26.192857142857143,10.235714285714284L26.192857142857143,11.092857142857142L26.62142857142857,11.092857142857142L26.62142857142857,11.307142857142857L26.835714285714285,11.307142857142857L26.835714285714285,11.521428571428569L27.05,11.521428571428569L27.05,12L26.95,12L26.95,11.62142857142857L26.735714285714284,11.62142857142857L26.735714285714284,11.407142857142858L26.52142857142857,11.407142857142858L26.52142857142857,11.192857142857143L26.09285714285714,11.192857142857143L26.09285714285714,10.335714285714285L25.878571428571426,10.335714285714285L25.878571428571426,10.12142857142857L25.664285714285715,10.12142857142857L25.664285714285715,9.907142857142858L23.95,9.907142857142858L23.95,9.692857142857143L22.878571428571426,9.692857142857143L22.878571428571426,8.407142857142858L22.664285714285715,8.407142857142858L22.664285714285715,8.192857142857143L22.021428571428572,8.192857142857143L22.021428571428572,7.978571428571428L21.378571428571426,7.978571428571428L21.378571428571426,7.764285714285714L21.164285714285715,7.764285714285714L21.164285714285715,7.55z" stroke="none"/><path d="M6,12.05L6,11.95L9.05,11.95L9.05,12.164285714285715L10.12142857142857,12.164285714285715L10.12142857142857,12.378571428571426L14.092857142857142,12.378571428571426L14.092857142857142,12.164285714285715L14.95,12.164285714285715L14.95,12L15.05,12L15.05,12.264285714285716L14.192857142857143,12.264285714285716L14.192857142857143,12.478571428571428L10.021428571428569,12.478571428571428L10.021428571428569,12.264285714285716L8.95,12.264285714285716L8.95,12.05z" stroke="none"/><path d="M27,4.45L27,4.55L26.192857142857143,4.55L26.192857142857143,4.764285714285714L25.978571428571428,4.764285714285714L25.978571428571428,4.978571428571429L25.12142857142857,4.978571428571429L25.12142857142857,5.192857142857142L24.90714285714286,5.192857142857142L24.90714285714286,5.407142857142857L24.692857142857143,5.407142857142857L24.692857142857143,5.621428571428571L23.835714285714285,5.621428571428571L23.835714285714285,5.835714285714285L23.40714285714286,5.835714285714285L23.40714285714286,6.264285714285714L22.978571428571428,6.264285714285714L22.978571428571428,6.478571428571428L18.90714285714286,6.478571428571428L18.90714285714286,6.907142857142857L18.692857142857143,6.907142857142857L18.692857142857143,7.335714285714285L18.05,7.335714285714285L18.05,7.5L17.95,7.5L17.95,7.235714285714286L18.59285714285714,7.235714285714286L18.59285714285714,6.807142857142857L18.807142857142857,6.807142857142857L18.807142857142857,6.378571428571428L22.878571428571426,6.378571428571428L22.878571428571426,6.164285714285715L23.307142857142857,6.164285714285715L23.307142857142857,5.735714285714286L23.735714285714284,5.735714285714286L23.735714285714284,5.521428571428571L24.59285714285714,5.521428571428571L24.59285714285714,5.307142857142857L24.807142857142857,5.307142857142857L24.807142857142857,5.0928571428571425L25.02142857142857,5.0928571428571425L25.02142857142857,4.878571428571429L25.878571428571426,4.878571428571429L25.878571428571426,4.664285714285715L26.09285714285714,4.664285714285715L26.09285714285714,4.45z" stroke="none"/><path d="M3.05,7.5L2.95,7.5L2.95,7.335714285714285L2.7357142857142858,7.335714285714285L2.7357142857142858,7.121428571428571L2.521428571428572,7.121428571428571L2.521428571428572,5.521428571428571L2.7357142857142858,5.521428571428571L2.7357142857142858,5.307142857142857L2.95,5.307142857142857L2.95,4.878571428571429L3.592857142857143,4.878571428571429L3.592857142857143,4.664285714285715L4.021428571428571,4.664285714285715L4.021428571428571,4.021428571428571L4.878571428571429,4.021428571428571L4.878571428571429,3.8071428571428574L5.0928571428571425,3.8071428571428574L5.0928571428571425,3.592857142857143L6.807142857142857,3.592857142857143L6.807142857142857,3.3785714285714286L7.878571428571428,3.3785714285714286L7.878571428571428,2.7357142857142858L8.092857142857142,2.7357142857142858L8.092857142857142,2.521428571428572L9.478571428571428,2.521428571428572L9.478571428571428,2.7357142857142858L9.692857142857143,2.7357142857142858L9.692857142857143,3.1642857142857146L9.907142857142858,3.1642857142857146L9.907142857142858,3.3785714285714286L11.521428571428569,3.3785714285714286L11.521428571428569,2.95L12,2.95L12,3.05L11.62142857142857,3.05L11.62142857142857,3.478571428571428L9.807142857142857,3.478571428571428L9.807142857142857,3.2642857142857142L9.592857142857142,3.2642857142857142L9.592857142857142,2.8357142857142854L9.378571428571426,2.8357142857142854L9.378571428571426,2.6214285714285714L8.192857142857143,2.6214285714285714L8.192857142857143,2.8357142857142854L7.978571428571428,2.8357142857142854L7.978571428571428,3.478571428571428L6.907142857142857,3.478571428571428L6.907142857142857,3.6928571428571426L5.192857142857142,3.6928571428571426L5.192857142857142,3.907142857142857L4.978571428571429,3.907142857142857L4.978571428571429,4.121428571428571L4.121428571428571,4.121428571428571L4.121428571428571,4.764285714285714L3.6928571428571426,4.764285714285714L3.6928571428571426,4.978571428571429L3.05,4.978571428571429L3.05,5.407142857142857L2.8357142857142854,5.407142857142857L2.8357142857142854,5.621428571428571L2.6214285714285714,5.621428571428571L2.6214285714285714,7.021428571428571L2.8357142857142854,7.021428571428571L2.8357142857142854,7.235714285714286L3.05,7.235714285714286z" stroke="none"/><path d="M13.5,12.05L13.5,11.95L14.092857142857142,11.95L14.092857142857142,11.735714285714284L14.521428571428569,11.735714285714284L14.521428571428569,11.521428571428569L16.764285714285716,11.521428571428569L16.764285714285716,11.95L16.978571428571428,11.95L16.978571428571428,12.164285714285715L17.621428571428574,12.164285714285715L17.621428571428574,12.378571428571426L27.378571428571426,12.378571428571426L27.378571428571426,10.764285714285716L27.164285714285715,10.764285714285716L27.164285714285715,10.55L26.95,10.55L26.95,10.12142857142857L26.52142857142857,10.12142857142857L26.52142857142857,9.907142857142858L26.307142857142857,9.907142857142858L26.307142857142857,9.692857142857143L25.878571428571426,9.692857142857143L25.878571428571426,9.478571428571428L25.235714285714284,9.478571428571428L25.235714285714284,9.264285714285716L24.59285714285714,9.264285714285716L24.59285714285714,9.05L24.378571428571426,9.05L24.378571428571426,7.764285714285714L23.95,7.764285714285714L23.95,7.5L24.05,7.5L24.05,7.664285714285715L24.478571428571428,7.664285714285715L24.478571428571428,8.95L24.692857142857143,8.95L24.692857142857143,9.164285714285715L25.335714285714285,9.164285714285715L25.335714285714285,9.378571428571426L25.978571428571428,9.378571428571426L25.978571428571428,9.592857142857142L26.40714285714286,9.592857142857142L26.40714285714286,9.807142857142857L26.62142857142857,9.807142857142857L26.62142857142857,10.021428571428569L27.05,10.021428571428569L27.05,10.45L27.264285714285716,10.45L27.264285714285716,10.664285714285715L27.478571428571428,10.664285714285715L27.478571428571428,12.478571428571428L17.521428571428572,12.478571428571428L17.521428571428572,12.264285714285716L16.878571428571426,12.264285714285716L16.878571428571426,12.05L16.664285714285715,12.05L16.664285714285715,11.62142857142857L14.62142857142857,11.62142857142857L14.62142857142857,11.835714285714285L14.192857142857143,11.835714285714285L14.192857142857143,12.05z" stroke="none"/><path d="M12.05,12L11.95,12L11.95,11.192857142857143L11.735714285714284,11.192857142857143L11.735714285714284,10.978571428571428L11.521428571428569,10.978571428571428L11.521428571428569,10.021428571428569L20.40714285714286,10.021428571428569L20.40714285714286,10.664285714285715L20.621428571428574,10.664285714285715L20.621428571428574,10.878571428571426L23.307142857142857,10.878571428571426L23.307142857142857,10.664285714285715L23.52142857142857,10.664285714285715L23.52142857142857,10.45L24,10.45L24,10.55L23.62142857142857,10.55L23.62142857142857,10.764285714285716L23.40714285714286,10.764285714285716L23.40714285714286,10.978571428571428L20.521428571428572,10.978571428571428L20.521428571428572,10.764285714285716L20.307142857142857,10.764285714285716L20.307142857142857,10.12142857142857L11.62142857142857,10.12142857142857L11.62142857142857,10.878571428571426L11.835714285714285,10.878571428571426L11.835714285714285,11.092857142857142L12.05,11.092857142857142z" stroke="none"/><path d="M4.45,6L4.55,6L4.55,6.264285714285714L4.121428571428571,6.264285714285714L4.121428571428571,6.692857142857142L3.6928571428571426,6.692857142857142L3.6928571428571426,7.764285714285714L3.478571428571428,7.764285714285714L3.478571428571428,7.978571428571428L2.521428571428572,7.978571428571428L2.521428571428572,7.335714285714285L2.3071428571428574,7.335714285714285L2.3071428571428574,4.021428571428571L2.521428571428572,4.021428571428571L2.521428571428572,3.8071428571428574L4.664285714285715,3.8071428571428574L4.664285714285715,3.592857142857143L4.878571428571429,3.592857142857143L4.878571428571429,3.3785714285714286L5.521428571428571,3.3785714285714286L5.521428571428571,2.521428571428572L7.45,2.521428571428572L7.45,2.3071428571428574L16.335714285714285,2.3071428571428574L16.335714285714285,2.7357142857142858L16.55,2.7357142857142858L16.55,3L16.45,3L16.45,2.8357142857142854L16.235714285714284,2.8357142857142854L16.235714285714284,2.407142857142857L7.55,2.407142857142857L7.55,2.6214285714285714L5.621428571428571,2.6214285714285714L5.621428571428571,3.478571428571428L4.978571428571429,3.478571428571428L4.978571428571429,3.6928571428571426L4.764285714285714,3.6928571428571426L4.764285714285714,3.907142857142857L2.6214285714285714,3.907142857142857L2.6214285714285714,4.121428571428571L2.407142857142857,4.121428571428571L2.407142857142857,7.235714285714286L2.6214285714285714,7.235714285714286L2.6214285714285714,7.878571428571428L3.3785714285714286,7.878571428571428L3.3785714285714286,7.664285714285715L3.592857142857143,7.664285714285715L3.592857142857143,6.5928571428571425L4.021428571428571,6.5928571428571425L4.021428571428571,6.164285714285715L4.45,6.164285714285715z" stroke="none"/><path d="M9,10.55L9,10.45L9.378571428571426,10.45L9.378571428571426,10.021428571428569L9.592857142857142,10.021428571428569L9.592857142857142,9.807142857142857L10.878571428571426,9.807142857142857L10.878571428571426,8.62142857142857L8.62142857142857,8.62142857142857L8.62142857142857,8.835714285714285L8.407142857142858,8.835714285714285L8.407142857142858,9.05L8.192857142857143,9.05L8.192857142857143,9.478571428571428L5.621428571428571,9.478571428571428L5.621428571428571,9.692857142857143L4.335714285714285,9.692857142857143L4.335714285714285,9.907142857142858L4.121428571428571,9.907142857142858L4.121428571428571,12.05L3.6928571428571426,12.05L3.6928571428571426,12.264285714285716L3.478571428571428,12.264285714285716L3.478571428571428,12.478571428571428L2.521428571428572,12.478571428571428L2.521428571428572,10.764285714285716L2.3071428571428574,10.764285714285716L2.3071428571428574,7.978571428571428L2.092857142857143,7.978571428571428L2.092857142857143,3.8071428571428574L2.3071428571428574,3.8071428571428574L2.3071428571428574,3.592857142857143L3.8071428571428574,3.592857142857143L3.8071428571428574,3.3785714285714286L4.235714285714286,3.3785714285714286L4.235714285714286,2.95L5.0928571428571425,2.95L5.0928571428571425,2.521428571428572L5.307142857142857,2.521428571428572L5.307142857142857,2.3071428571428574L6.5928571428571425,2.3071428571428574L6.5928571428571425,2.092857142857143L19.335714285714285,2.092857142857143L19.335714285714285,2.3071428571428574L19.978571428571428,2.3071428571428574L19.978571428571428,2.521428571428572L20.192857142857143,2.521428571428572L20.192857142857143,3.592857142857143L21.264285714285716,3.592857142857143L21.264285714285716,4.021428571428571L21.478571428571428,4.021428571428571L21.478571428571428,5.835714285714285L21.05,5.835714285714285L21.05,6L20.95,6L20.95,5.735714285714286L21.378571428571426,5.735714285714286L21.378571428571426,4.121428571428571L21.164285714285715,4.121428571428571L21.164285714285715,3.6928571428571426L20.09285714285714,3.6928571428571426L20.09285714285714,2.6214285714285714L19.878571428571426,2.6214285714285714L19.878571428571426,2.407142857142857L19.235714285714284,2.407142857142857L19.235714285714284,2.1928571428571426L6.692857142857142,2.1928571428571426L6.692857142857142,2.407142857142857L5.407142857142857,2.407142857142857L5.407142857142857,2.6214285714285714L5.192857142857142,2.6214285714285714L5.192857142857142,3.05L4.335714285714285,3.05L4.335714285714285,3.478571428571428L3.907142857142857,3.478571428571428L3.907142857142857,3.6928571428571426L2.407142857142857,3.6928571428571426L2.407142857142857,3.907142857142857L2.1928571428571426,3.907142857142857L2.1928571428571426,7.878571428571428L2.407142857142857,7.878571428571428L2.407142857142857,10.664285714285715L2.6214285714285714,10.664285714285715L2.6214285714285714,12.378571428571426L3.3785714285714286,12.378571428571426L3.3785714285714286,12.164285714285715L3.592857142857143,12.164285714285715L3.592857142857143,11.95L4.021428571428571,11.95L4.021428571428571,9.807142857142857L4.235714285714286,9.807142857142857L4.235714285714286,9.592857142857142L5.521428571428571,9.592857142857142L5.521428571428571,9.378571428571426L8.092857142857142,9.378571428571426L8.092857142857142,8.95L8.307142857142857,8.95L8.307142857142857,8.735714285714284L8.521428571428569,8.735714285714284L8.521428571428569,8.521428571428569L10.978571428571428,8.521428571428569L10.978571428571428,9.907142857142858L9.692857142857143,9.907142857142858L9.692857142857143,10.12142857142857L9.478571428571428,10.12142857142857L9.478571428571428,10.55z" stroke="none"/></svg>