<svg version="1.1" width="30" height="15" xmlns="http://www.w3.org/2000/svg"><path d="M7.664285714285715,9.378571428571426L7.664285714285715,8.95L7.878571428571428,8.95L7.878571428571428,8.521428571428569L8.092857142857142,8.521428571428569L8.092857142857142,7.664285714285715L8.95,7.664285714285715L8.95,7.5L9.05,7.5L9.05,7.764285714285714L8.192857142857143,7.764285714285714L8.192857142857143,8.62142857142857L7.978571428571428,8.62142857142857L7.978571428571428,9.05L7.764285714285714,9.05L7.764285714285714,9.478571428571428L7.55,9.478571428571428L7.55,10.5L7.45,10.5L7.45,9.478571428571428L7.335714285714285,9.478571428571428L7.335714285714285,10.12142857142857L6.907142857142857,10.12142857142857L6.907142857142857,10.335714285714285L6.478571428571428,10.335714285714285L6.478571428571428,10.55L6,10.55L6,10.45L6.378571428571428,10.45L6.378571428571428,10.235714285714284L6.807142857142857,10.235714285714284L6.807142857142857,10.021428571428569L7.235714285714286,10.021428571428569L7.235714285714286,9.378571428571426z" stroke="none"/><path d="M6.807142857142857,8.95L6.807142857142857,8.735714285714284L7.235714285714286,8.735714285714284L7.235714285714286,8.521428571428569L7.45,8.521428571428569L7.45,8.307142857142857L7.664285714285715,8.307142857142857L7.664285714285715,8.092857142857142L7.878571428571428,8.092857142857142L7.878571428571428,7.45L8.521428571428569,7.45L8.521428571428569,7.021428571428571L9.478571428571428,7.021428571428571L9.478571428571428,8.092857142857142L9.692857142857143,8.092857142857142L9.692857142857143,8.307142857142857L10.335714285714285,8.307142857142857L10.335714285714285,8.735714285714284L10.55,8.735714285714284L10.55,9L10.45,9L10.45,8.835714285714285L10.235714285714284,8.835714285714285L10.235714285714284,8.407142857142858L9.592857142857142,8.407142857142858L9.592857142857142,8.192857142857143L9.378571428571426,8.192857142857143L9.378571428571426,7.121428571428571L8.62142857142857,7.121428571428571L8.62142857142857,7.55L7.978571428571428,7.55L7.978571428571428,8.192857142857143L7.764285714285714,8.192857142857143L7.764285714285714,8.407142857142858L7.55,8.407142857142858L7.55,8.62142857142857L7.335714285714285,8.62142857142857L7.335714285714285,8.835714285714285L6.907142857142857,8.835714285714285L6.907142857142857,9.05L6.692857142857142,9.05L6.692857142857142,9.692857142857143L6.05,9.692857142857143L6.05,9.907142857142858L4.55,9.907142857142858L4.55,10.5L4.45,10.5L4.45,9.807142857142857L5.95,9.807142857142857L5.95,9.592857142857142L6.5928571428571425,9.592857142857142L6.5928571428571425,9.05L6.378571428571428,9.05L6.378571428571428,8.62142857142857L5.0928571428571425,8.62142857142857L5.0928571428571425,8.407142857142858L4.664285714285715,8.407142857142858L4.664285714285715,8.192857142857143L4.45,8.192857142857143L4.45,7.5L4.55,7.5L4.55,8.092857142857142L4.764285714285714,8.092857142857142L4.764285714285714,8.307142857142857L5.192857142857142,8.307142857142857L5.192857142857142,8.521428571428569L6.478571428571428,8.521428571428569L6.478571428571428,8.95z" stroke="none"/><path d="M14.95,10.45L14.95,10.335714285714285L13.878571428571426,10.335714285714285L13.878571428571426,10.12142857142857L11.62142857142857,10.12142857142857L11.62142857142857,10.335714285714285L11.407142857142858,10.335714285714285L11.407142857142858,10.55L10.5,10.55L10.5,10.45L11.307142857142857,10.45L11.307142857142857,10.235714285714284L11.521428571428569,10.235714285714284L11.521428571428569,10.021428571428569L13.978571428571428,10.021428571428569L13.978571428571428,10.235714285714284L15.05,10.235714285714284L15.05,10.45L19.878571428571426,10.45L19.878571428571426,10.235714285714284L20.307142857142857,10.235714285714284L20.307142857142857,10.021428571428569L22.021428571428572,10.021428571428569L22.021428571428572,9.807142857142857L22.235714285714284,9.807142857142857L22.235714285714284,8.95L22.5,8.95L22.5,9.05L22.335714285714285,9.05L22.335714285714285,9.907142857142858L22.121428571428574,9.907142857142858L22.121428571428574,10.12142857142857L20.40714285714286,10.12142857142857L20.40714285714286,10.335714285714285L19.978571428571428,10.335714285714285L19.978571428571428,10.55L14.192857142857143,10.55L14.192857142857143,10.978571428571428L13.12142857142857,10.978571428571428L13.12142857142857,11.407142857142858L12.907142857142858,11.407142857142858L12.907142857142858,11.835714285714285L12.264285714285716,11.835714285714285L12.264285714285716,12.05L12,12.05L12,11.95L12.164285714285715,11.95L12.164285714285715,11.735714285714284L12.807142857142857,11.735714285714284L12.807142857142857,11.307142857142857L13.021428571428569,11.307142857142857L13.021428571428569,10.878571428571426L14.092857142857142,10.878571428571426L14.092857142857142,10.45z" stroke="none"/><path d="M7.45,5.0928571428571425L7.45,3.907142857142857L7.021428571428571,3.907142857142857L7.021428571428571,3.478571428571428L6.5928571428571425,3.478571428571428L6.5928571428571425,3.2642857142857142L6.378571428571428,3.2642857142857142L6.378571428571428,3.05L6,3.05L6,2.95L6.478571428571428,2.95L6.478571428571428,3.1642857142857146L6.692857142857142,3.1642857142857146L6.692857142857142,3.3785714285714286L7.121428571428571,3.3785714285714286L7.121428571428571,3.8071428571428574L7.55,3.8071428571428574L7.55,5.0928571428571425L8.62142857142857,5.0928571428571425L8.62142857142857,5.307142857142857L8.835714285714285,5.307142857142857L8.835714285714285,5.521428571428571L9.05,5.521428571428571L9.05,6L8.95,6L8.95,5.621428571428571L8.735714285714284,5.621428571428571L8.735714285714284,5.407142857142857L8.521428571428569,5.407142857142857L8.521428571428569,5.192857142857142L7.55,5.192857142857142L7.55,5.307142857142857L7.978571428571428,5.307142857142857L7.978571428571428,5.521428571428571L8.192857142857143,5.521428571428571L8.192857142857143,5.95L8.62142857142857,5.95L8.62142857142857,6.164285714285715L10.12142857142857,6.164285714285715L10.12142857142857,6.378571428571428L11.092857142857142,6.378571428571428L11.092857142857142,6.164285714285715L11.307142857142857,6.164285714285715L11.307142857142857,5.95L12,5.95L12,6.05L11.407142857142858,6.05L11.407142857142858,6.264285714285714L11.192857142857143,6.264285714285714L11.192857142857143,6.478571428571428L10.021428571428569,6.478571428571428L10.021428571428569,6.264285714285714L8.521428571428569,6.264285714285714L8.521428571428569,6.05L8.092857142857142,6.05L8.092857142857142,5.621428571428571L7.878571428571428,5.621428571428571L7.878571428571428,5.407142857142857L7.45,5.407142857142857L7.45,5.192857142857142L3.907142857142857,5.192857142857142L3.907142857142857,5.407142857142857L3.6928571428571426,5.407142857142857L3.6928571428571426,5.835714285714285L3.478571428571428,5.835714285714285L3.478571428571428,6.05L3,6.05L3,5.95L3.3785714285714286,5.95L3.3785714285714286,5.735714285714286L3.592857142857143,5.735714285714286L3.592857142857143,5.307142857142857L3.8071428571428574,5.307142857142857L3.8071428571428574,5.0928571428571425z" stroke="none"/><path d="M24.164285714285715,7.021428571428571L24.164285714285715,6.807142857142857L26.09285714285714,6.807142857142857L26.09285714285714,6.5928571428571425L26.307142857142857,6.5928571428571425L26.307142857142857,5.307142857142857L26.735714285714284,5.307142857142857L26.735714285714284,4.45L27,4.45L27,4.55L26.835714285714285,4.55L26.835714285714285,5.407142857142857L26.40714285714286,5.407142857142857L26.40714285714286,6.692857142857142L26.192857142857143,6.692857142857142L26.192857142857143,6.907142857142857L24.264285714285716,6.907142857142857L24.264285714285716,7.021428571428571L26.62142857142857,7.021428571428571L26.62142857142857,7.235714285714286L27.05,7.235714285714286L27.05,7.5L26.95,7.5L26.95,7.335714285714285L26.52142857142857,7.335714285714285L26.52142857142857,7.121428571428571L24.264285714285716,7.121428571428571L24.264285714285716,7.335714285714285L23.192857142857143,7.335714285714285L23.192857142857143,7.764285714285714L22.978571428571428,7.764285714285714L22.978571428571428,7.978571428571428L21.692857142857143,7.978571428571428L21.692857142857143,8.192857142857143L21.478571428571428,8.192857142857143L21.478571428571428,8.62142857142857L21.264285714285716,8.62142857142857L21.264285714285716,8.835714285714285L21.05,8.835714285714285L21.05,9L20.95,9L20.95,8.735714285714284L21.164285714285715,8.735714285714284L21.164285714285715,8.521428571428569L21.378571428571426,8.521428571428569L21.378571428571426,8.092857142857142L21.59285714285714,8.092857142857142L21.59285714285714,7.878571428571428L22.878571428571426,7.878571428571428L22.878571428571426,7.664285714285715L23.09285714285714,7.664285714285715L23.09285714285714,7.235714285714286L24.164285714285715,7.235714285714286L24.164285714285715,7.121428571428571L22.978571428571428,7.121428571428571L22.978571428571428,7.335714285714285L22.55,7.335714285714285L22.55,7.5L22.45,7.5L22.45,7.235714285714286L22.878571428571426,7.235714285714286L22.878571428571426,7.021428571428571z" stroke="none"/><path d="M12.592857142857142,5.0928571428571425L12.592857142857142,3.6928571428571426L12.378571428571426,3.6928571428571426L12.378571428571426,3.05L12,3.05L12,2.95L12.478571428571428,2.95L12.478571428571428,3.592857142857143L12.692857142857143,3.592857142857143L12.692857142857143,5.0928571428571425L13.45,5.0928571428571425L13.45,4.878571428571429L13.878571428571426,4.878571428571429L13.878571428571426,4.235714285714286L14.092857142857142,4.235714285714286L14.092857142857142,3.3785714285714286L16.878571428571426,3.3785714285714286L16.878571428571426,3.1642857142857146L17.307142857142857,3.1642857142857146L17.307142857142857,2.95L18,2.95L18,3.05L17.40714285714286,3.05L17.40714285714286,3.2642857142857142L16.978571428571428,3.2642857142857142L16.978571428571428,3.478571428571428L14.192857142857143,3.478571428571428L14.192857142857143,4.335714285714285L13.978571428571428,4.335714285714285L13.978571428571428,4.978571428571429L13.55,4.978571428571429L13.55,5.192857142857142L12.692857142857143,5.192857142857142L12.692857142857143,6.378571428571428L12.907142857142858,6.378571428571428L12.907142857142858,6.5928571428571425L13.12142857142857,6.5928571428571425L13.12142857142857,6.807142857142857L13.335714285714285,6.807142857142857L13.335714285714285,7.235714285714286L13.55,7.235714285714286L13.55,7.5L13.45,7.5L13.45,7.335714285714285L13.235714285714284,7.335714285714285L13.235714285714284,6.907142857142857L13.021428571428569,6.907142857142857L13.021428571428569,6.692857142857142L12.807142857142857,6.692857142857142L12.807142857142857,6.478571428571428L12.592857142857142,6.478571428571428L12.592857142857142,5.192857142857142L12.478571428571428,5.192857142857142L12.478571428571428,6.478571428571428L12.264285714285716,6.478571428571428L12.264285714285716,6.692857142857142L7.978571428571428,6.692857142857142L7.978571428571428,7.121428571428571L7.764285714285714,7.121428571428571L7.764285714285714,7.55L7.5,7.55L7.5,7.45L7.664285714285715,7.45L7.664285714285715,7.021428571428571L7.878571428571428,7.021428571428571L7.878571428571428,6.5928571428571425L12.164285714285715,6.5928571428571425L12.164285714285715,6.378571428571428L12.378571428571426,6.378571428571428L12.378571428571426,5.0928571428571425z" stroke="none"/><path d="M18.05,6L17.95,6L17.95,4.5L18.05,4.5z" stroke="none"/><path d="M19.45,6L19.55,6L19.55,6.907142857142857L18.692857142857143,6.907142857142857L18.692857142857143,7.121428571428571L18.264285714285716,7.121428571428571L18.264285714285716,7.335714285714285L18.05,7.335714285714285L18.05,7.5L17.95,7.5L17.95,7.235714285714286L18.164285714285715,7.235714285714286L18.164285714285715,7.021428571428571L18.59285714285714,7.021428571428571L18.59285714285714,6.807142857142857L19.45,6.807142857142857z" stroke="none"/><path d="M26.95,9L27.05,9L27.05,9.907142857142858L26.835714285714285,9.907142857142858L26.835714285714285,10.12142857142857L26.62142857142857,10.12142857142857L26.62142857142857,11.307142857142857L26.835714285714285,11.307142857142857L26.835714285714285,11.521428571428569L27.05,11.521428571428569L27.05,12L26.95,12L26.95,11.62142857142857L26.735714285714284,11.62142857142857L26.735714285714284,11.407142857142858L26.52142857142857,11.407142857142858L26.52142857142857,10.021428571428569L26.735714285714284,10.021428571428569L26.735714285714284,9.807142857142857L26.95,9.807142857142857z" stroke="none"/><path d="M16.5,2.95L16.5,3.05L13.5,3.05L13.5,2.95z" stroke="none"/><path d="M27.05,10.5L26.95,10.5L26.95,10.235714285714284L27.164285714285715,10.235714285714284L27.164285714285715,9.378571428571426L27.378571428571426,9.378571428571426L27.378571428571426,8.62142857142857L26.62142857142857,8.62142857142857L26.62142857142857,8.835714285714285L26.40714285714286,8.835714285714285L26.40714285714286,9.478571428571428L26.192857142857143,9.478571428571428L26.192857142857143,9.692857142857143L25.764285714285716,9.692857142857143L25.764285714285716,9.907142857142858L25.12142857142857,9.907142857142858L25.12142857142857,10.335714285714285L24.692857142857143,10.335714285714285L24.692857142857143,10.55L24,10.55L24,10.45L24.59285714285714,10.45L24.59285714285714,10.235714285714284L25.02142857142857,10.235714285714284L25.02142857142857,9.807142857142857L25.664285714285715,9.807142857142857L25.664285714285715,9.592857142857142L26.09285714285714,9.592857142857142L26.09285714285714,9.378571428571426L26.307142857142857,9.378571428571426L26.307142857142857,8.735714285714284L26.52142857142857,8.735714285714284L26.52142857142857,8.521428571428569L27.478571428571428,8.521428571428569L27.478571428571428,9.478571428571428L27.264285714285716,9.478571428571428L27.264285714285716,10.335714285714285L27.05,10.335714285714285z" stroke="none"/><path d="M16.45,4.5L16.55,4.5L16.55,5.407142857142857L16.335714285714285,5.407142857142857L16.335714285714285,5.621428571428571L16.12142857142857,5.621428571428571L16.12142857142857,6.807142857142857L16.335714285714285,6.807142857142857L16.335714285714285,7.021428571428571L16.55,7.021428571428571L16.55,7.5L16.45,7.5L16.45,7.121428571428571L16.235714285714284,7.121428571428571L16.235714285714284,6.907142857142857L16.02142857142857,6.907142857142857L16.02142857142857,5.521428571428571L16.235714285714284,5.521428571428571L16.235714285714284,5.307142857142857L16.45,5.307142857142857z" stroke="none"/><path d="M24,5.95L24,6.05L23.192857142857143,6.05L23.192857142857143,6.478571428571428L21.692857142857143,6.478571428571428L21.692857142857143,6.907142857142857L21.05,6.907142857142857L21.05,7.5L20.95,7.5L20.95,6.807142857142857L21.59285714285714,6.807142857142857L21.59285714285714,6.378571428571428L23.09285714285714,6.378571428571428L23.09285714285714,5.95z" stroke="none"/><path d="M22.55,6L22.45,6L22.45,4.45L22.664285714285715,4.45L22.664285714285715,4.021428571428571L23.09285714285714,4.021428571428571L23.09285714285714,3.8071428571428574L23.307142857142857,3.8071428571428574L23.307142857142857,3.592857142857143L23.52142857142857,3.592857142857143L23.52142857142857,3.3785714285714286L23.735714285714284,3.3785714285714286L23.735714285714284,2.95L24,2.95L24,3.05L23.835714285714285,3.05L23.835714285714285,3.478571428571428L23.62142857142857,3.478571428571428L23.62142857142857,3.6928571428571426L23.40714285714286,3.6928571428571426L23.40714285714286,3.907142857142857L23.192857142857143,3.907142857142857L23.192857142857143,4.121428571428571L22.764285714285716,4.121428571428571L22.764285714285716,4.55L22.55,4.55z" stroke="none"/><path d="M15.05,9L14.95,9L14.95,8.521428571428569L15.164285714285715,8.521428571428569L15.164285714285715,8.307142857142857L15.807142857142857,8.307142857142857L15.807142857142857,8.092857142857142L16.664285714285715,8.092857142857142L16.664285714285715,7.878571428571428L16.878571428571426,7.878571428571428L16.878571428571426,6.478571428571428L16.664285714285715,6.478571428571428L16.664285714285715,6.264285714285714L16.45,6.264285714285714L16.45,6L16.55,6L16.55,6.164285714285715L16.764285714285716,6.164285714285715L16.764285714285716,6.378571428571428L16.978571428571428,6.378571428571428L16.978571428571428,7.978571428571428L16.764285714285716,7.978571428571428L16.764285714285716,8.192857142857143L15.907142857142858,8.192857142857143L15.907142857142858,8.407142857142858L15.264285714285716,8.407142857142858L15.264285714285716,8.62142857142857L15.05,8.62142857142857z" stroke="none"/><path d="M9,2.95L9,3.05L7.664285714285715,3.05L7.664285714285715,2.8357142857142854L6.378571428571428,2.8357142857142854L6.378571428571428,2.6214285714285714L4.978571428571429,2.6214285714285714L4.978571428571429,3.05L4.5,3.05L4.5,2.95L4.878571428571429,2.95L4.878571428571429,2.521428571428572L6.478571428571428,2.521428571428572L6.478571428571428,2.7357142857142858L7.764285714285714,2.7357142857142858L7.764285714285714,2.95z" stroke="none"/><path d="M25.5,2.95L25.5,3.05L25.235714285714284,3.05L25.235714285714284,2.8357142857142854L24.59285714285714,2.8357142857142854L24.59285714285714,2.6214285714285714L23.192857142857143,2.6214285714285714L23.192857142857143,2.8357142857142854L22.764285714285716,2.8357142857142854L22.764285714285716,3.2642857142857142L22.121428571428574,3.2642857142857142L22.121428571428574,3.478571428571428L21.478571428571428,3.478571428571428L21.478571428571428,3.6928571428571426L21.05,3.6928571428571426L21.05,4.5L20.95,4.5L20.95,3.592857142857143L21.378571428571426,3.592857142857143L21.378571428571426,3.3785714285714286L22.021428571428572,3.3785714285714286L22.021428571428572,3.1642857142857146L22.664285714285715,3.1642857142857146L22.664285714285715,2.7357142857142858L23.09285714285714,2.7357142857142858L23.09285714285714,2.521428571428572L24.692857142857143,2.521428571428572L24.692857142857143,2.7357142857142858L25.335714285714285,2.7357142857142858L25.335714285714285,2.95z" stroke="none"/><path d="M21,3.05L21,2.95L21.807142857142857,2.95L21.807142857142857,2.7357142857142858L22.021428571428572,2.7357142857142858L22.021428571428572,2.521428571428572L22.664285714285715,2.521428571428572L22.664285714285715,2.3071428571428574L25.978571428571428,2.3071428571428574L25.978571428571428,5.621428571428571L25.764285714285716,5.621428571428571L25.764285714285716,5.835714285714285L25.55,5.835714285714285L25.55,6L25.45,6L25.45,5.735714285714286L25.664285714285715,5.735714285714286L25.664285714285715,5.521428571428571L25.878571428571426,5.521428571428571L25.878571428571426,2.407142857142857L22.764285714285716,2.407142857142857L22.764285714285716,2.6214285714285714L22.121428571428574,2.6214285714285714L22.121428571428574,2.8357142857142854L21.90714285714286,2.8357142857142854L21.90714285714286,3.05z" stroke="none"/><path d="M6,8.95L6,9.05L5.407142857142857,9.05L5.407142857142857,9.264285714285716L5.192857142857142,9.264285714285716L5.192857142857142,9.692857142857143L4.335714285714285,9.692857142857143L4.335714285714285,9.907142857142858L4.121428571428571,9.907142857142858L4.121428571428571,10.878571428571426L9.164285714285715,10.878571428571426L9.164285714285715,10.45L9.807142857142857,10.45L9.807142857142857,9.378571428571426L10.878571428571426,9.378571428571426L10.878571428571426,9.164285714285715L11.307142857142857,9.164285714285715L11.307142857142857,8.95L12,8.95L12,9.05L11.407142857142858,9.05L11.407142857142858,9.264285714285716L10.978571428571428,9.264285714285716L10.978571428571428,9.478571428571428L9.907142857142858,9.478571428571428L9.907142857142858,10.55L9.264285714285716,10.55L9.264285714285716,10.978571428571428L4.021428571428571,10.978571428571428L4.021428571428571,9.807142857142857L4.235714285714286,9.807142857142857L4.235714285714286,9.592857142857142L5.0928571428571425,9.592857142857142L5.0928571428571425,9.164285714285715L5.307142857142857,9.164285714285715L5.307142857142857,8.95z" stroke="none"/><path d="M19.55,4.5L19.45,4.5L19.45,4.121428571428571L19.021428571428572,4.121428571428571L19.021428571428572,2.8357142857142854L18.807142857142857,2.8357142857142854L18.807142857142857,2.6214285714285714L11.62142857142857,2.6214285714285714L11.62142857142857,4.45L12,4.45L12,4.55L11.521428571428569,4.55L11.521428571428569,2.521428571428572L18.90714285714286,2.521428571428572L18.90714285714286,2.7357142857142858L19.121428571428574,2.7357142857142858L19.121428571428574,4.021428571428571L19.55,4.021428571428571z" stroke="none"/><path d="M19.55,9L19.45,9L19.45,8.735714285714284L19.664285714285715,8.735714285714284L19.664285714285715,8.521428571428569L20.09285714285714,8.521428571428569L20.09285714285714,8.307142857142857L20.735714285714284,8.307142857142857L20.735714285714284,7.878571428571428L21.378571428571426,7.878571428571428L21.378571428571426,7.664285714285715L21.59285714285714,7.664285714285715L21.59285714285714,7.45L21.807142857142857,7.45L21.807142857142857,7.235714285714286L22.021428571428572,7.235714285714286L22.021428571428572,7.021428571428571L22.45,7.021428571428571L22.45,6.807142857142857L22.878571428571426,6.807142857142857L22.878571428571426,6.5928571428571425L24.378571428571426,6.5928571428571425L24.378571428571426,5.0928571428571425L25.02142857142857,5.0928571428571425L25.02142857142857,4.45L25.5,4.45L25.5,4.55L25.12142857142857,4.55L25.12142857142857,5.192857142857142L24.478571428571428,5.192857142857142L24.478571428571428,6.692857142857142L22.978571428571428,6.692857142857142L22.978571428571428,6.907142857142857L22.55,6.907142857142857L22.55,7.121428571428571L22.121428571428574,7.121428571428571L22.121428571428574,7.335714285714285L21.90714285714286,7.335714285714285L21.90714285714286,7.55L21.692857142857143,7.55L21.692857142857143,7.764285714285714L21.478571428571428,7.764285714285714L21.478571428571428,7.978571428571428L20.835714285714285,7.978571428571428L20.835714285714285,8.407142857142858L20.192857142857143,8.407142857142858L20.192857142857143,8.62142857142857L19.764285714285716,8.62142857142857L19.764285714285716,8.835714285714285L19.55,8.835714285714285z" stroke="none"/><path d="M3.05,4.5L2.95,4.5L2.95,3.592857142857143L3.1642857142857146,3.592857142857143L3.1642857142857146,3.1642857142857146L3.3785714285714286,3.1642857142857146L3.3785714285714286,2.7357142857142858L3.592857142857143,2.7357142857142858L3.592857142857143,2.521428571428572L4.45,2.521428571428572L4.45,2.3071428571428574L9.264285714285716,2.3071428571428574L9.264285714285716,2.521428571428572L9.478571428571428,2.521428571428572L9.478571428571428,5.307142857142857L10.12142857142857,5.307142857142857L10.12142857142857,5.735714285714286L10.335714285714285,5.735714285714286L10.335714285714285,5.95L10.5,5.95L10.5,6.05L10.235714285714284,6.05L10.235714285714284,5.835714285714285L10.021428571428569,5.835714285714285L10.021428571428569,5.407142857142857L9.378571428571426,5.407142857142857L9.378571428571426,2.6214285714285714L9.164285714285715,2.6214285714285714L9.164285714285715,2.407142857142857L4.55,2.407142857142857L4.55,2.6214285714285714L3.6928571428571426,2.6214285714285714L3.6928571428571426,2.8357142857142854L3.478571428571428,2.8357142857142854L3.478571428571428,3.2642857142857142L3.2642857142857142,3.2642857142857142L3.2642857142857142,3.6928571428571426L3.05,3.6928571428571426z" stroke="none"/><path d="M6,7.45L6,7.55L5.0928571428571425,7.55L5.0928571428571425,7.121428571428571L4.121428571428571,7.121428571428571L4.121428571428571,9.692857142857143L3.907142857142857,9.692857142857143L3.907142857142857,11.092857142857142L9.378571428571426,11.092857142857142L9.378571428571426,10.878571428571426L10.021428571428569,10.878571428571426L10.021428571428569,10.021428571428569L11.092857142857142,10.021428571428569L11.092857142857142,9.807142857142857L11.95,9.807142857142857L11.95,9.378571428571426L12.378571428571426,9.378571428571426L12.378571428571426,8.735714285714284L13.021428571428569,8.735714285714284L13.021428571428569,8.307142857142857L13.235714285714284,8.307142857142857L13.235714285714284,7.878571428571428L13.878571428571426,7.878571428571428L13.878571428571426,6.478571428571428L13.664285714285715,6.478571428571428L13.664285714285715,6.264285714285714L13.45,6.264285714285714L13.45,6L13.55,6L13.55,6.164285714285715L13.764285714285716,6.164285714285715L13.764285714285716,6.378571428571428L13.978571428571428,6.378571428571428L13.978571428571428,7.978571428571428L13.335714285714285,7.978571428571428L13.335714285714285,8.407142857142858L13.12142857142857,8.407142857142858L13.12142857142857,8.835714285714285L12.478571428571428,8.835714285714285L12.478571428571428,9.478571428571428L12.05,9.478571428571428L12.05,9.907142857142858L11.192857142857143,9.907142857142858L11.192857142857143,10.12142857142857L10.12142857142857,10.12142857142857L10.12142857142857,10.978571428571428L9.478571428571428,10.978571428571428L9.478571428571428,11.192857142857143L3.8071428571428574,11.192857142857143L3.8071428571428574,9.592857142857142L4.021428571428571,9.592857142857142L4.021428571428571,7.021428571428571L5.192857142857142,7.021428571428571L5.192857142857142,7.45z" stroke="none"/><path d="M21,10.45L21,10.55L20.621428571428574,10.55L20.621428571428574,10.764285714285716L18.264285714285716,10.764285714285716L18.264285714285716,10.978571428571428L15.264285714285716,10.978571428571428L15.264285714285716,11.192857142857143L14.62142857142857,11.192857142857143L14.62142857142857,11.407142857142858L13.764285714285716,11.407142857142858L13.764285714285716,12.05L13.5,12.05L13.5,11.95L13.664285714285715,11.95L13.664285714285715,11.307142857142857L14.521428571428569,11.307142857142857L14.521428571428569,11.092857142857142L15.164285714285715,11.092857142857142L15.164285714285715,10.878571428571426L18.164285714285715,10.878571428571426L18.164285714285715,10.664285714285715L20.521428571428572,10.664285714285715L20.521428571428572,10.45z" stroke="none"/><path d="M18,12.05L18,11.95L23.735714285714284,11.95L23.735714285714284,11.735714285714284L23.95,11.735714285714284L23.95,11.521428571428569L24.164285714285715,11.521428571428569L24.164285714285715,11.307142857142857L24.59285714285714,11.307142857142857L24.59285714285714,10.878571428571426L24.807142857142857,10.878571428571426L24.807142857142857,10.45L25.5,10.45L25.5,10.55L24.90714285714286,10.55L24.90714285714286,10.978571428571428L24.692857142857143,10.978571428571428L24.692857142857143,11.407142857142858L24.264285714285716,11.407142857142858L24.264285714285716,11.62142857142857L24.05,11.62142857142857L24.05,11.835714285714285L23.835714285714285,11.835714285714285L23.835714285714285,12.05z" stroke="none"/><path d="M14.95,6L15.05,6L15.05,6.264285714285714L14.835714285714285,6.264285714285714L14.835714285714285,6.478571428571428L14.62142857142857,6.478571428571428L14.62142857142857,9.378571428571426L21.807142857142857,9.378571428571426L21.807142857142857,9.164285714285715L22.021428571428572,9.164285714285715L22.021428571428572,8.521428571428569L22.978571428571428,8.521428571428569L22.978571428571428,10.12142857142857L22.764285714285716,10.12142857142857L22.764285714285716,10.335714285714285L22.55,10.335714285714285L22.55,10.5L22.45,10.5L22.45,10.235714285714284L22.664285714285715,10.235714285714284L22.664285714285715,10.021428571428569L22.878571428571426,10.021428571428569L22.878571428571426,8.62142857142857L22.121428571428574,8.62142857142857L22.121428571428574,9.264285714285716L21.90714285714286,9.264285714285716L21.90714285714286,9.478571428571428L14.521428571428569,9.478571428571428L14.521428571428569,6.378571428571428L14.735714285714284,6.378571428571428L14.735714285714284,6.164285714285715L14.95,6.164285714285715z" stroke="none"/><path d="M27.05,3L26.95,3L26.95,2.6214285714285714L26.307142857142857,2.6214285714285714L26.307142857142857,2.1928571428571426L21.05,2.1928571428571426L21.05,2.6214285714285714L20.621428571428574,2.6214285714285714L20.621428571428574,6.907142857142857L20.40714285714286,6.907142857142857L20.40714285714286,7.121428571428571L19.978571428571428,7.121428571428571L19.978571428571428,7.335714285714285L19.55,7.335714285714285L19.55,7.5L19.45,7.5L19.45,7.235714285714286L19.878571428571426,7.235714285714286L19.878571428571426,7.021428571428571L20.307142857142857,7.021428571428571L20.307142857142857,6.807142857142857L20.521428571428572,6.807142857142857L20.521428571428572,2.521428571428572L20.95,2.521428571428572L20.95,2.092857142857143L26.40714285714286,2.092857142857143L26.40714285714286,2.521428571428572L27.05,2.521428571428572z" stroke="none"/><path d="M7.5,12.05L7.5,11.95L10.55,11.95L10.55,12.164285714285715L11.62142857142857,12.164285714285715L11.62142857142857,12.378571428571426L16.45,12.378571428571426L16.45,12L16.55,12L16.55,12.478571428571428L11.521428571428569,12.478571428571428L11.521428571428569,12.264285714285716L10.45,12.264285714285716L10.45,12.05z" stroke="none"/><path d="M6,4.45L6,4.55L5.192857142857142,4.55L5.192857142857142,4.764285714285714L3.478571428571428,4.764285714285714L3.478571428571428,4.978571428571429L2.521428571428572,4.978571428571429L2.521428571428572,2.95L3.1642857142857146,2.95L3.1642857142857146,2.521428571428572L3.3785714285714286,2.521428571428572L3.3785714285714286,2.3071428571428574L4.235714285714286,2.3071428571428574L4.235714285714286,2.092857142857143L18.90714285714286,2.092857142857143L18.90714285714286,2.3071428571428574L19.121428571428574,2.3071428571428574L19.121428571428574,2.521428571428572L19.335714285714285,2.521428571428572L19.335714285714285,3.8071428571428574L19.764285714285716,3.8071428571428574L19.764285714285716,4.021428571428571L19.978571428571428,4.021428571428571L19.978571428571428,4.978571428571429L18.378571428571426,4.978571428571429L18.378571428571426,4.121428571428571L16.12142857142857,4.121428571428571L16.12142857142857,4.978571428571429L15.907142857142858,4.978571428571429L15.907142857142858,6.264285714285714L15.692857142857143,6.264285714285714L15.692857142857143,6.692857142857142L15.264285714285716,6.692857142857142L15.264285714285716,7.335714285714285L15.05,7.335714285714285L15.05,7.5L14.95,7.5L14.95,7.235714285714286L15.164285714285715,7.235714285714286L15.164285714285715,6.5928571428571425L15.592857142857142,6.5928571428571425L15.592857142857142,6.164285714285715L15.807142857142857,6.164285714285715L15.807142857142857,4.878571428571429L16.02142857142857,4.878571428571429L16.02142857142857,4.021428571428571L18.478571428571428,4.021428571428571L18.478571428571428,4.878571428571429L19.878571428571426,4.878571428571429L19.878571428571426,4.121428571428571L19.664285714285715,4.121428571428571L19.664285714285715,3.907142857142857L19.235714285714284,3.907142857142857L19.235714285714284,2.6214285714285714L19.021428571428572,2.6214285714285714L19.021428571428572,2.407142857142857L18.807142857142857,2.407142857142857L18.807142857142857,2.1928571428571426L4.335714285714285,2.1928571428571426L4.335714285714285,2.407142857142857L3.478571428571428,2.407142857142857L3.478571428571428,2.6214285714285714L3.2642857142857142,2.6214285714285714L3.2642857142857142,3.05L2.6214285714285714,3.05L2.6214285714285714,4.878571428571429L3.3785714285714286,4.878571428571429L3.3785714285714286,4.664285714285715L5.0928571428571425,4.664285714285715L5.0928571428571425,4.45z" stroke="none"/><path d="M25.5,8.95L25.5,9.05L25.12142857142857,9.05L25.12142857142857,9.478571428571428L23.835714285714285,9.478571428571428L23.835714285714285,9.692857142857143L23.62142857142857,9.692857142857143L23.62142857142857,9.907142857142858L23.40714285714286,9.907142857142858L23.40714285714286,10.12142857142857L23.192857142857143,10.12142857142857L23.192857142857143,10.335714285714285L22.978571428571428,10.335714285714285L22.978571428571428,10.978571428571428L18.478571428571428,10.978571428571428L18.478571428571428,11.192857142857143L18.05,11.192857142857143L18.05,11.62142857142857L17.621428571428574,11.62142857142857L17.621428571428574,12.478571428571428L17.40714285714286,12.478571428571428L17.40714285714286,12.692857142857143L7.021428571428571,12.692857142857143L7.021428571428571,11.521428571428569L11.95,11.521428571428569L11.95,10.878571428571426L12.807142857142857,10.878571428571426L12.807142857142857,10.45L13.5,10.45L13.5,10.55L12.907142857142858,10.55L12.907142857142858,10.978571428571428L12.05,10.978571428571428L12.05,11.62142857142857L7.121428571428571,11.62142857142857L7.121428571428571,12.592857142857142L17.307142857142857,12.592857142857142L17.307142857142857,12.378571428571426L17.521428571428572,12.378571428571426L17.521428571428572,11.521428571428569L17.95,11.521428571428569L17.95,11.092857142857142L18.378571428571426,11.092857142857142L18.378571428571426,10.878571428571426L22.878571428571426,10.878571428571426L22.878571428571426,10.235714285714284L23.09285714285714,10.235714285714284L23.09285714285714,10.021428571428569L23.307142857142857,10.021428571428569L23.307142857142857,9.807142857142857L23.52142857142857,9.807142857142857L23.52142857142857,9.592857142857142L23.735714285714284,9.592857142857142L23.735714285714284,9.378571428571426L25.02142857142857,9.378571428571426L25.02142857142857,8.95z" stroke="none"/></svg>