<svg version="1.1" width="30" height="15" xmlns="http://www.w3.org/2000/svg"><path d="M15.807142857142857,8.092857142857142L17.521428571428572,8.092857142857142L17.521428571428572,6.807142857142857L17.735714285714284,6.807142857142857L17.735714285714284,6.164285714285715L17.95,6.164285714285715L17.95,6L18.05,6L18.05,6.264285714285714L17.835714285714285,6.264285714285714L17.835714285714285,6.907142857142857L17.621428571428574,6.907142857142857L17.621428571428574,8.192857142857143L15.907142857142858,8.192857142857143L15.907142857142858,8.307142857142857L16.335714285714285,8.307142857142857L16.335714285714285,8.735714285714284L16.55,8.735714285714284L16.55,9L16.45,9L16.45,8.835714285714285L16.235714285714284,8.835714285714285L16.235714285714284,8.407142857142858L15.907142857142858,8.407142857142858L15.907142857142858,8.62142857142857L14.62142857142857,8.62142857142857L14.62142857142857,9.05L14.192857142857143,9.05L14.192857142857143,9.692857142857143L13.978571428571428,9.692857142857143L13.978571428571428,10.335714285714285L13.764285714285716,10.335714285714285L13.764285714285716,10.55L13.5,10.55L13.5,10.45L13.664285714285715,10.45L13.664285714285715,10.235714285714284L13.878571428571426,10.235714285714284L13.878571428571426,9.592857142857142L14.092857142857142,9.592857142857142L14.092857142857142,8.95L14.521428571428569,8.95L14.521428571428569,8.521428571428569L15.807142857142857,8.521428571428569z" stroke="none"/><path d="M20.307142857142857,5.95L20.307142857142857,5.735714285714286L20.521428571428572,5.735714285714286L20.521428571428572,5.521428571428571L20.735714285714284,5.521428571428571L20.735714285714284,5.307142857142857L21.378571428571426,5.307142857142857L21.378571428571426,5.0928571428571425L22.235714285714284,5.0928571428571425L22.235714285714284,4.878571428571429L22.45,4.878571428571429L22.45,4.5L22.55,4.5L22.55,4.978571428571429L22.335714285714285,4.978571428571429L22.335714285714285,5.192857142857142L21.478571428571428,5.192857142857142L21.478571428571428,5.407142857142857L20.835714285714285,5.407142857142857L20.835714285714285,5.621428571428571L20.621428571428574,5.621428571428571L20.621428571428574,5.835714285714285L20.40714285714286,5.835714285714285L20.40714285714286,5.95L24.164285714285715,5.95L24.164285714285715,5.735714285714286L24.378571428571426,5.735714285714286L24.378571428571426,4.878571428571429L24.59285714285714,4.878571428571429L24.59285714285714,4.664285714285715L25.235714285714284,4.664285714285715L25.235714285714284,4.45L25.5,4.45L25.5,4.55L25.335714285714285,4.55L25.335714285714285,4.764285714285714L24.692857142857143,4.764285714285714L24.692857142857143,4.978571428571429L24.478571428571428,4.978571428571429L24.478571428571428,5.835714285714285L24.264285714285716,5.835714285714285L24.264285714285716,6.05L18.378571428571426,6.05L18.378571428571426,5.621428571428571L16.12142857142857,5.621428571428571L16.12142857142857,5.835714285714285L15.907142857142858,5.835714285714285L15.907142857142858,6.05L15.692857142857143,6.05L15.692857142857143,6.264285714285714L15.264285714285716,6.264285714285714L15.264285714285716,6.692857142857142L15.05,6.692857142857142L15.05,6.907142857142857L14.835714285714285,6.907142857142857L14.835714285714285,7.121428571428571L14.407142857142858,7.121428571428571L14.407142857142858,7.335714285714285L13.978571428571428,7.335714285714285L13.978571428571428,7.978571428571428L13.764285714285716,7.978571428571428L13.764285714285716,9.05L13.5,9.05L13.5,8.95L13.664285714285715,8.95L13.664285714285715,7.878571428571428L13.878571428571426,7.878571428571428L13.878571428571426,7.235714285714286L14.307142857142857,7.235714285714286L14.307142857142857,7.021428571428571L14.735714285714284,7.021428571428571L14.735714285714284,6.807142857142857L14.95,6.807142857142857L14.95,6.5928571428571425L15.164285714285715,6.5928571428571425L15.164285714285715,6.164285714285715L15.592857142857142,6.164285714285715L15.592857142857142,5.95L15.807142857142857,5.95L15.807142857142857,5.735714285714286L16.02142857142857,5.735714285714286L16.02142857142857,5.521428571428571L18.478571428571428,5.521428571428571L18.478571428571428,5.95z" stroke="none"/><path d="M8.307142857142857,8.95L8.307142857142857,8.521428571428569L9.592857142857142,8.521428571428569L9.592857142857142,8.307142857142857L9.807142857142857,8.307142857142857L9.807142857142857,8.092857142857142L10.021428571428569,8.092857142857142L10.021428571428569,7.878571428571428L10.235714285714284,7.878571428571428L10.235714285714284,7.664285714285715L10.45,7.664285714285715L10.45,7.5L10.55,7.5L10.55,7.764285714285714L10.335714285714285,7.764285714285714L10.335714285714285,7.978571428571428L10.12142857142857,7.978571428571428L10.12142857142857,8.192857142857143L9.907142857142858,8.192857142857143L9.907142857142858,8.407142857142858L9.692857142857143,8.407142857142858L9.692857142857143,8.62142857142857L8.407142857142858,8.62142857142857L8.407142857142858,9.05L6.05,9.05L6.05,9.692857142857143L5.835714285714285,9.692857142857143L5.835714285714285,9.907142857142858L5.621428571428571,9.907142857142858L5.621428571428571,11.192857142857143L4.978571428571429,11.192857142857143L4.978571428571429,11.407142857142858L4.764285714285714,11.407142857142858L4.764285714285714,11.835714285714285L4.55,11.835714285714285L4.55,12L4.45,12L4.45,11.735714285714284L4.664285714285715,11.735714285714284L4.664285714285715,11.307142857142857L4.878571428571429,11.307142857142857L4.878571428571429,11.092857142857142L5.521428571428571,11.092857142857142L5.521428571428571,9.807142857142857L5.735714285714286,9.807142857142857L5.735714285714286,9.592857142857142L5.95,9.592857142857142L5.95,9.05L4.45,9.05L4.45,8.62142857142857L3.592857142857143,8.62142857142857L3.592857142857143,8.192857142857143L3.3785714285714286,8.192857142857143L3.3785714285714286,7.978571428571428L3.1642857142857146,7.978571428571428L3.1642857142857146,7.764285714285714L2.95,7.764285714285714L2.95,7.5L3.05,7.5L3.05,7.664285714285715L3.2642857142857142,7.664285714285715L3.2642857142857142,7.878571428571428L3.478571428571428,7.878571428571428L3.478571428571428,8.092857142857142L3.6928571428571426,8.092857142857142L3.6928571428571426,8.521428571428569L4.55,8.521428571428569L4.55,8.95z" stroke="none"/><path d="M14.092857142857142,6.164285714285715L14.092857142857142,4.664285714285715L14.307142857142857,4.664285714285715L14.307142857142857,4.45L15,4.45L15,4.55L14.407142857142858,4.55L14.407142857142858,4.764285714285714L14.192857142857143,4.764285714285714L14.192857142857143,6.164285714285715L14.95,6.164285714285715L14.95,5.95L15.378571428571426,5.95L15.378571428571426,5.521428571428571L15.807142857142857,5.521428571428571L15.807142857142857,5.307142857142857L20.521428571428572,5.307142857142857L20.521428571428572,4.878571428571429L21.378571428571426,4.878571428571429L21.378571428571426,4.664285714285715L21.59285714285714,4.664285714285715L21.59285714285714,4.45L21.807142857142857,4.45L21.807142857142857,4.021428571428571L25.978571428571428,4.021428571428571L25.978571428571428,4.978571428571429L25.764285714285716,4.978571428571429L25.764285714285716,5.192857142857142L25.12142857142857,5.192857142857142L25.12142857142857,6.264285714285714L20.621428571428574,6.264285714285714L20.621428571428574,6.478571428571428L20.192857142857143,6.478571428571428L20.192857142857143,6.907142857142857L19.764285714285716,6.907142857142857L19.764285714285716,7.335714285714285L19.335714285714285,7.335714285714285L19.335714285714285,7.978571428571428L19.121428571428574,7.978571428571428L19.121428571428574,8.192857142857143L18.478571428571428,8.192857142857143L18.478571428571428,8.62142857142857L18.264285714285716,8.62142857142857L18.264285714285716,8.835714285714285L18.05,8.835714285714285L18.05,9L17.95,9L17.95,8.735714285714284L18.164285714285715,8.735714285714284L18.164285714285715,8.521428571428569L18.378571428571426,8.521428571428569L18.378571428571426,8.092857142857142L19.021428571428572,8.092857142857142L19.021428571428572,7.878571428571428L19.235714285714284,7.878571428571428L19.235714285714284,7.235714285714286L19.664285714285715,7.235714285714286L19.664285714285715,6.807142857142857L20.09285714285714,6.807142857142857L20.09285714285714,6.378571428571428L20.521428571428572,6.378571428571428L20.521428571428572,6.164285714285715L25.02142857142857,6.164285714285715L25.02142857142857,5.0928571428571425L25.664285714285715,5.0928571428571425L25.664285714285715,4.878571428571429L25.878571428571426,4.878571428571429L25.878571428571426,4.121428571428571L21.90714285714286,4.121428571428571L21.90714285714286,4.55L21.692857142857143,4.55L21.692857142857143,4.764285714285714L21.478571428571428,4.764285714285714L21.478571428571428,4.978571428571429L20.621428571428574,4.978571428571429L20.621428571428574,5.407142857142857L15.907142857142858,5.407142857142857L15.907142857142858,5.621428571428571L15.478571428571428,5.621428571428571L15.478571428571428,6.05L15.05,6.05L15.05,6.264285714285714L14.192857142857143,6.264285714285714L14.192857142857143,6.692857142857142L13.55,6.692857142857142L13.55,7.5L13.45,7.5L13.45,6.5928571428571425L14.092857142857142,6.5928571428571425L14.092857142857142,6.264285714285714L13.878571428571426,6.264285714285714L13.878571428571426,5.621428571428571L11.521428571428569,5.621428571428571L11.521428571428569,4.55L10.5,4.55L10.5,4.45L11.62142857142857,4.45L11.62142857142857,5.521428571428571L13.978571428571428,5.521428571428571L13.978571428571428,6.164285714285715z" stroke="none"/><path d="M10.45,10.021428571428569L10.45,9.807142857142857L10.664285714285715,9.807142857142857L10.664285714285715,9.592857142857142L10.878571428571426,9.592857142857142L10.878571428571426,9.378571428571426L11.092857142857142,9.378571428571426L11.092857142857142,9.164285714285715L11.307142857142857,9.164285714285715L11.307142857142857,8.95L11.521428571428569,8.95L11.521428571428569,8.735714285714284L12.264285714285716,8.735714285714284L12.264285714285716,9.807142857142857L12.478571428571428,9.807142857142857L12.478571428571428,10.664285714285715L12.692857142857143,10.664285714285715L12.692857142857143,10.878571428571426L13.335714285714285,10.878571428571426L13.335714285714285,11.95L13.5,11.95L13.5,12.05L13.235714285714284,12.05L13.235714285714284,10.978571428571428L12.592857142857142,10.978571428571428L12.592857142857142,10.764285714285716L12.378571428571426,10.764285714285716L12.378571428571426,9.907142857142858L12.164285714285715,9.907142857142858L12.164285714285715,8.835714285714285L11.62142857142857,8.835714285714285L11.62142857142857,9.05L11.407142857142858,9.05L11.407142857142858,9.264285714285716L11.192857142857143,9.264285714285716L11.192857142857143,9.478571428571428L10.978571428571428,9.478571428571428L10.978571428571428,9.692857142857143L10.764285714285716,9.692857142857143L10.764285714285716,9.907142857142858L10.55,9.907142857142858L10.55,10.021428571428569L11.521428571428569,10.021428571428569L11.521428571428569,9.378571428571426L11.95,9.378571428571426L11.95,9L12.05,9L12.05,9.478571428571428L11.62142857142857,9.478571428571428L11.62142857142857,10.12142857142857L10.55,10.12142857142857L10.55,10.335714285714285L9.378571428571426,10.335714285714285L9.378571428571426,10.12142857142857L8.407142857142858,10.12142857142857L8.407142857142858,10.335714285714285L8.192857142857143,10.335714285714285L8.192857142857143,10.55L7.5,10.55L7.5,10.45L8.092857142857142,10.45L8.092857142857142,10.235714285714284L8.307142857142857,10.235714285714284L8.307142857142857,10.021428571428569L9.478571428571428,10.021428571428569L9.478571428571428,10.235714285714284L10.45,10.235714285714284L10.45,10.12142857142857L10.235714285714284,10.12142857142857L10.235714285714284,9.264285714285716L10.021428571428569,9.264285714285716L10.021428571428569,9.05L9,9.05L9,8.95L10.12142857142857,8.95L10.12142857142857,9.164285714285715L10.335714285714285,9.164285714285715L10.335714285714285,10.021428571428569z" stroke="none"/><path d="M18.59285714285714,10.45L18.59285714285714,10.235714285714284L19.235714285714284,10.235714285714284L19.235714285714284,10.021428571428569L19.878571428571426,10.021428571428569L19.878571428571426,9.807142857142857L23.307142857142857,9.807142857142857L23.307142857142857,9.592857142857142L23.735714285714284,9.592857142857142L23.735714285714284,9.164285714285715L23.95,9.164285714285715L23.95,9L24.05,9L24.05,9.264285714285716L23.835714285714285,9.264285714285716L23.835714285714285,9.692857142857143L23.40714285714286,9.692857142857143L23.40714285714286,9.907142857142858L19.978571428571428,9.907142857142858L19.978571428571428,10.12142857142857L19.335714285714285,10.12142857142857L19.335714285714285,10.335714285714285L18.692857142857143,10.335714285714285L18.692857142857143,10.45L19.45,10.45L19.45,10.235714285714284L20.09285714285714,10.235714285714284L20.09285714285714,10.021428571428569L22.55,10.021428571428569L22.55,10.5L22.45,10.5L22.45,10.12142857142857L20.192857142857143,10.12142857142857L20.192857142857143,10.335714285714285L19.55,10.335714285714285L19.55,10.55L18.692857142857143,10.55L18.692857142857143,11.835714285714285L16.55,11.835714285714285L16.55,12L16.45,12L16.45,11.735714285714284L18.59285714285714,11.735714285714284L18.59285714285714,10.55L18.478571428571428,10.55L18.478571428571428,11.407142857142858L18.264285714285716,11.407142857142858L18.264285714285716,11.62142857142857L15.907142857142858,11.62142857142857L15.907142857142858,11.835714285714285L14.62142857142857,11.835714285714285L14.62142857142857,12.478571428571428L12.807142857142857,12.478571428571428L12.807142857142857,12.264285714285716L12.592857142857142,12.264285714285716L12.592857142857142,11.192857142857143L12.164285714285715,11.192857142857143L12.164285714285715,10.55L12,10.55L12,10.45L12.264285714285716,10.45L12.264285714285716,11.092857142857142L12.692857142857143,11.092857142857142L12.692857142857143,12.164285714285715L12.907142857142858,12.164285714285715L12.907142857142858,12.378571428571426L14.521428571428569,12.378571428571426L14.521428571428569,11.735714285714284L15.807142857142857,11.735714285714284L15.807142857142857,11.521428571428569L18.164285714285715,11.521428571428569L18.164285714285715,11.307142857142857L18.378571428571426,11.307142857142857L18.378571428571426,10.45z" stroke="none"/><path d="M3.05,10.5L2.95,10.5L2.95,9L3.05,9z" stroke="none"/><path d="M7.5,7.55L7.5,7.45L9,7.45L9,7.55z" stroke="none"/><path d="M4.5,3.05L4.5,2.95L6,2.95L6,3.05z" stroke="none"/><path d="M4.45,4.5L4.55,4.5L4.55,6L4.45,6z" stroke="none"/><path d="M6.05,12L5.95,12L5.95,10.5L6.05,10.5z" stroke="none"/><path d="M12,7.45L12,7.55L11.735714285714284,7.55L11.735714285714284,6.478571428571428L10.664285714285715,6.478571428571428L10.664285714285715,6.264285714285714L10.45,6.264285714285714L10.45,6L10.55,6L10.55,6.164285714285715L10.764285714285716,6.164285714285715L10.764285714285716,6.378571428571428L11.835714285714285,6.378571428571428L11.835714285714285,7.45z" stroke="none"/><path d="M6,5.95L6,6.05L5.192857142857142,6.05L5.192857142857142,6.907142857142857L4.978571428571429,6.907142857142857L4.978571428571429,7.121428571428571L4.55,7.121428571428571L4.55,7.5L4.45,7.5L4.45,7.021428571428571L4.878571428571429,7.021428571428571L4.878571428571429,6.807142857142857L5.0928571428571425,6.807142857142857L5.0928571428571425,5.95z" stroke="none"/><path d="M7.45,3L7.55,3L7.55,6L7.45,6z" stroke="none"/><path d="M18,4.55L18,4.45L19.878571428571426,4.45L19.878571428571426,3.8071428571428574L20.09285714285714,3.8071428571428574L20.09285714285714,3.592857142857143L20.307142857142857,3.592857142857143L20.307142857142857,3.3785714285714286L20.95,3.3785714285714286L20.95,3L21.05,3L21.05,3.478571428571428L20.40714285714286,3.478571428571428L20.40714285714286,3.6928571428571426L20.192857142857143,3.6928571428571426L20.192857142857143,3.907142857142857L19.978571428571428,3.907142857142857L19.978571428571428,4.55z" stroke="none"/><path d="M16.55,10.5L16.45,10.5L16.45,10.021428571428569L16.664285714285715,10.021428571428569L16.664285714285715,9.592857142857142L16.878571428571426,9.592857142857142L16.878571428571426,8.735714285714284L17.307142857142857,8.735714285714284L17.307142857142857,8.521428571428569L17.521428571428572,8.521428571428569L17.521428571428572,8.307142857142857L17.735714285714284,8.307142857142857L17.735714285714284,7.45L18,7.45L18,7.55L17.835714285714285,7.55L17.835714285714285,8.407142857142858L17.621428571428574,8.407142857142858L17.621428571428574,8.62142857142857L17.40714285714286,8.62142857142857L17.40714285714286,8.835714285714285L16.978571428571428,8.835714285714285L16.978571428571428,9.692857142857143L16.764285714285716,9.692857142857143L16.764285714285716,10.12142857142857L16.55,10.12142857142857z" stroke="none"/><path d="M22.5,3.05L22.5,2.95L26.192857142857143,2.95L26.192857142857143,5.835714285714285L25.978571428571428,5.835714285714285L25.978571428571428,6.05L25.5,6.05L25.5,5.95L25.878571428571426,5.95L25.878571428571426,5.735714285714286L26.09285714285714,5.735714285714286L26.09285714285714,3.05z" stroke="none"/><path d="M21,7.55L21,7.45L23.52142857142857,7.45L23.52142857142857,7.021428571428571L25.55,7.021428571428571L25.55,7.5L25.45,7.5L25.45,7.121428571428571L23.62142857142857,7.121428571428571L23.62142857142857,7.55z" stroke="none"/><path d="M27,10.45L27,10.55L25.12142857142857,10.55L25.12142857142857,10.764285714285716L24.90714285714286,10.764285714285716L24.90714285714286,10.978571428571428L24.478571428571428,10.978571428571428L24.478571428571428,11.192857142857143L24.264285714285716,11.192857142857143L24.264285714285716,11.407142857142858L24.05,11.407142857142858L24.05,11.62142857142857L23.40714285714286,11.62142857142857L23.40714285714286,11.835714285714285L22.55,11.835714285714285L22.55,12L22.45,12L22.45,11.735714285714284L23.307142857142857,11.735714285714284L23.307142857142857,11.521428571428569L23.95,11.521428571428569L23.95,11.307142857142857L24.164285714285715,11.307142857142857L24.164285714285715,11.092857142857142L24.378571428571426,11.092857142857142L24.378571428571426,10.878571428571426L24.807142857142857,10.878571428571426L24.807142857142857,10.664285714285715L25.02142857142857,10.664285714285715L25.02142857142857,10.45z" stroke="none"/><path d="M9,4.55L9,4.45L9.264285714285716,4.45L9.264285714285716,4.878571428571429L9.692857142857143,4.878571428571429L9.692857142857143,5.0928571428571425L9.907142857142858,5.0928571428571425L9.907142857142858,5.307142857142857L10.12142857142857,5.307142857142857L10.12142857142857,6.378571428571428L10.55,6.378571428571428L10.55,6.5928571428571425L11.407142857142858,6.5928571428571425L11.407142857142858,6.807142857142857L11.62142857142857,6.807142857142857L11.62142857142857,7.878571428571428L12.378571428571426,7.878571428571428L12.378571428571426,6.807142857142857L12.592857142857142,6.807142857142857L12.592857142857142,6.378571428571428L13.235714285714284,6.378571428571428L13.235714285714284,6.164285714285715L13.45,6.164285714285715L13.45,6L13.55,6L13.55,6.264285714285714L13.335714285714285,6.264285714285714L13.335714285714285,6.478571428571428L12.692857142857143,6.478571428571428L12.692857142857143,6.907142857142857L12.478571428571428,6.907142857142857L12.478571428571428,7.978571428571428L11.521428571428569,7.978571428571428L11.521428571428569,6.907142857142857L11.307142857142857,6.907142857142857L11.307142857142857,6.692857142857142L10.45,6.692857142857142L10.45,6.478571428571428L10.021428571428569,6.478571428571428L10.021428571428569,5.407142857142857L9.807142857142857,5.407142857142857L9.807142857142857,5.192857142857142L9.592857142857142,5.192857142857142L9.592857142857142,4.978571428571429L9.164285714285715,4.978571428571429L9.164285714285715,4.55z" stroke="none"/><path d="M15,10.55L15,10.45L15.692857142857143,10.45L15.692857142857143,10.664285714285715L16.12142857142857,10.664285714285715L16.12142857142857,10.878571428571426L16.878571428571426,10.878571428571426L16.878571428571426,10.45L17.95,10.45L17.95,10.235714285714284L18.378571428571426,10.235714285714284L18.378571428571426,10.021428571428569L18.59285714285714,10.021428571428569L18.59285714285714,9.807142857142857L19.45,9.807142857142857L19.45,9.592857142857142L23.09285714285714,9.592857142857142L23.09285714285714,9.164285714285715L23.307142857142857,9.164285714285715L23.307142857142857,8.735714285714284L23.52142857142857,8.735714285714284L23.52142857142857,8.521428571428569L24.478571428571428,8.521428571428569L24.478571428571428,10.335714285714285L24.264285714285716,10.335714285714285L24.264285714285716,10.978571428571428L21.378571428571426,10.978571428571428L21.378571428571426,10.764285714285716L21.164285714285715,10.764285714285716L21.164285714285715,10.55L21,10.55L21,10.45L21.264285714285716,10.45L21.264285714285716,10.664285714285715L21.478571428571428,10.664285714285715L21.478571428571428,10.878571428571426L24.164285714285715,10.878571428571426L24.164285714285715,10.235714285714284L24.378571428571426,10.235714285714284L24.378571428571426,8.62142857142857L23.62142857142857,8.62142857142857L23.62142857142857,8.835714285714285L23.40714285714286,8.835714285714285L23.40714285714286,9.264285714285716L23.192857142857143,9.264285714285716L23.192857142857143,9.692857142857143L19.55,9.692857142857143L19.55,9.907142857142858L18.692857142857143,9.907142857142858L18.692857142857143,10.12142857142857L18.478571428571428,10.12142857142857L18.478571428571428,10.335714285714285L18.05,10.335714285714285L18.05,10.55L16.978571428571428,10.55L16.978571428571428,10.978571428571428L16.02142857142857,10.978571428571428L16.02142857142857,10.764285714285716L15.592857142857142,10.764285714285716L15.592857142857142,10.55z" stroke="none"/><path d="M19.5,12.05L19.5,11.95L20.192857142857143,11.95L20.192857142857143,12.164285714285715L20.621428571428574,12.164285714285715L20.621428571428574,12.378571428571426L24.807142857142857,12.378571428571426L24.807142857142857,11.95L25.5,11.95L25.5,12.05L24.90714285714286,12.05L24.90714285714286,12.478571428571428L20.521428571428572,12.478571428571428L20.521428571428572,12.264285714285716L20.09285714285714,12.264285714285716L20.09285714285714,12.05z" stroke="none"/><path d="M21.05,4.5L20.95,4.5L20.95,3.592857142857143L21.164285714285715,3.592857142857143L21.164285714285715,3.3785714285714286L21.378571428571426,3.3785714285714286L21.378571428571426,3.1642857142857146L21.59285714285714,3.1642857142857146L21.59285714285714,2.95L21.807142857142857,2.95L21.807142857142857,2.521428571428572L26.192857142857143,2.521428571428572L26.192857142857143,2.7357142857142858L26.40714285714286,2.7357142857142858L26.40714285714286,7.021428571428571L26.62142857142857,7.021428571428571L26.62142857142857,7.45L27,7.45L27,7.55L26.52142857142857,7.55L26.52142857142857,7.121428571428571L26.307142857142857,7.121428571428571L26.307142857142857,2.8357142857142854L26.09285714285714,2.8357142857142854L26.09285714285714,2.6214285714285714L21.90714285714286,2.6214285714285714L21.90714285714286,3.05L21.692857142857143,3.05L21.692857142857143,3.2642857142857142L21.478571428571428,3.2642857142857142L21.478571428571428,3.478571428571428L21.264285714285716,3.478571428571428L21.264285714285716,3.6928571428571426L21.05,3.6928571428571426z" stroke="none"/><path d="M9,3.05L9,2.95L11.521428571428569,2.95L11.521428571428569,2.521428571428572L16.12142857142857,2.521428571428572L16.12142857142857,2.7357142857142858L17.40714285714286,2.7357142857142858L17.40714285714286,2.95L18,2.95L18,3.05L17.307142857142857,3.05L17.307142857142857,2.8357142857142854L16.02142857142857,2.8357142857142854L16.02142857142857,2.6214285714285714L11.62142857142857,2.6214285714285714L11.62142857142857,3.05z" stroke="none"/><path d="M3,3.05L3,2.95L3.8071428571428574,2.95L3.8071428571428574,2.7357142857142858L4.021428571428571,2.7357142857142858L4.021428571428571,2.521428571428572L8.407142857142858,2.521428571428572L8.407142857142858,2.95L8.62142857142857,2.95L8.62142857142857,3.3785714285714286L11.95,3.3785714285714286L11.95,3L12.05,3L12.05,3.478571428571428L8.521428571428569,3.478571428571428L8.521428571428569,3.05L8.307142857142857,3.05L8.307142857142857,2.6214285714285714L4.121428571428571,2.6214285714285714L4.121428571428571,2.8357142857142854L3.907142857142857,2.8357142857142854L3.907142857142857,3.05z" stroke="none"/><path d="M3,4.55L3,4.45L4.021428571428571,4.45L4.021428571428571,4.021428571428571L4.978571428571429,4.021428571428571L4.978571428571429,4.878571428571429L5.192857142857142,4.878571428571429L5.192857142857142,5.0928571428571425L6.692857142857142,5.0928571428571425L6.692857142857142,5.95L6.907142857142857,5.95L6.907142857142857,6.378571428571428L7.878571428571428,6.378571428571428L7.878571428571428,4.021428571428571L9.478571428571428,4.021428571428571L9.478571428571428,4.235714285714286L9.692857142857143,4.235714285714286L9.692857142857143,4.45L9.907142857142858,4.45L9.907142857142858,4.878571428571429L10.764285714285716,4.878571428571429L10.764285714285716,5.0928571428571425L10.978571428571428,5.0928571428571425L10.978571428571428,5.521428571428571L11.192857142857143,5.521428571428571L11.192857142857143,5.735714285714286L11.835714285714285,5.735714285714286L11.835714285714285,5.95L12,5.95L12,6.05L11.735714285714284,6.05L11.735714285714284,5.835714285714285L11.092857142857142,5.835714285714285L11.092857142857142,5.621428571428571L10.878571428571426,5.621428571428571L10.878571428571426,5.192857142857142L10.664285714285715,5.192857142857142L10.664285714285715,4.978571428571429L9.807142857142857,4.978571428571429L9.807142857142857,4.55L9.592857142857142,4.55L9.592857142857142,4.335714285714285L9.378571428571426,4.335714285714285L9.378571428571426,4.121428571428571L7.978571428571428,4.121428571428571L7.978571428571428,6.478571428571428L6.807142857142857,6.478571428571428L6.807142857142857,6.05L6.5928571428571425,6.05L6.5928571428571425,5.192857142857142L5.0928571428571425,5.192857142857142L5.0928571428571425,4.978571428571429L4.878571428571429,4.978571428571429L4.878571428571429,4.121428571428571L4.121428571428571,4.121428571428571L4.121428571428571,4.55z" stroke="none"/><path d="M19.5,2.95L19.5,3.05L18.378571428571426,3.05L18.378571428571426,2.6214285714285714L16.235714285714284,2.6214285714285714L16.235714285714284,2.407142857142857L2.6214285714285714,2.407142857142857L2.6214285714285714,4.878571428571429L3.05,4.878571428571429L3.05,5.307142857142857L3.2642857142857142,5.307142857142857L3.2642857142857142,6.164285714285715L3.478571428571428,6.164285714285715L3.478571428571428,6.378571428571428L4.878571428571429,6.378571428571428L4.878571428571429,5.735714285714286L5.521428571428571,5.735714285714286L5.521428571428571,5.521428571428571L6.478571428571428,5.521428571428571L6.478571428571428,6.5928571428571425L8.092857142857142,6.5928571428571425L8.092857142857142,6.378571428571428L8.521428571428569,6.378571428571428L8.521428571428569,6.164285714285715L8.95,6.164285714285715L8.95,6L9.05,6L9.05,6.264285714285714L8.62142857142857,6.264285714285714L8.62142857142857,6.478571428571428L8.192857142857143,6.478571428571428L8.192857142857143,6.692857142857142L6.378571428571428,6.692857142857142L6.378571428571428,5.621428571428571L5.621428571428571,5.621428571428571L5.621428571428571,5.835714285714285L4.978571428571429,5.835714285714285L4.978571428571429,6.478571428571428L3.3785714285714286,6.478571428571428L3.3785714285714286,6.264285714285714L3.1642857142857146,6.264285714285714L3.1642857142857146,5.407142857142857L2.95,5.407142857142857L2.95,4.978571428571429L2.521428571428572,4.978571428571429L2.521428571428572,2.3071428571428574L16.335714285714285,2.3071428571428574L16.335714285714285,2.521428571428572L18.478571428571428,2.521428571428572L18.478571428571428,2.95z" stroke="none"/><path d="M9,12.05L9,11.95L12.05,11.95L12.05,12.378571428571426L12.692857142857143,12.378571428571426L12.692857142857143,12.592857142857142L16.45,12.592857142857142L16.45,12.378571428571426L16.878571428571426,12.378571428571426L16.878571428571426,11.95L19.021428571428572,11.95L19.021428571428572,11.521428571428569L20.40714285714286,11.521428571428569L20.40714285714286,11.95L21,11.95L21,12.05L20.307142857142857,12.05L20.307142857142857,11.62142857142857L19.121428571428574,11.62142857142857L19.121428571428574,12.05L16.978571428571428,12.05L16.978571428571428,12.478571428571428L16.55,12.478571428571428L16.55,12.692857142857143L12.592857142857142,12.692857142857143L12.592857142857142,12.478571428571428L11.95,12.478571428571428L11.95,12.05z" stroke="none"/><path d="M8.95,10.5L9.05,10.5L9.05,11.407142857142858L8.835714285714285,11.407142857142858L8.835714285714285,11.62142857142857L8.62142857142857,11.62142857142857L8.62142857142857,12.378571428571426L11.407142857142858,12.378571428571426L11.407142857142858,12.807142857142857L25.878571428571426,12.807142857142857L25.878571428571426,12.592857142857142L26.307142857142857,12.592857142857142L26.307142857142857,11.95L26.52142857142857,11.95L26.52142857142857,11.307142857142857L26.95,11.307142857142857L26.95,10.878571428571426L27.378571428571426,10.878571428571426L27.378571428571426,10.12142857142857L25.664285714285715,10.12142857142857L25.664285714285715,9.907142857142858L25.235714285714284,9.907142857142858L25.235714285714284,9.692857142857143L25.02142857142857,9.692857142857143L25.02142857142857,9.264285714285716L24.807142857142857,9.264285714285716L24.807142857142857,8.62142857142857L24.59285714285714,8.62142857142857L24.59285714285714,8.407142857142858L21.264285714285716,8.407142857142858L21.264285714285716,8.62142857142857L21.05,8.62142857142857L21.05,9L20.95,9L20.95,8.521428571428569L21.164285714285715,8.521428571428569L21.164285714285715,8.307142857142857L24.692857142857143,8.307142857142857L24.692857142857143,8.521428571428569L24.90714285714286,8.521428571428569L24.90714285714286,9.164285714285715L25.12142857142857,9.164285714285715L25.12142857142857,9.592857142857142L25.335714285714285,9.592857142857142L25.335714285714285,9.807142857142857L25.764285714285716,9.807142857142857L25.764285714285716,10.021428571428569L27.478571428571428,10.021428571428569L27.478571428571428,10.978571428571428L27.05,10.978571428571428L27.05,11.407142857142858L26.62142857142857,11.407142857142858L26.62142857142857,12.05L26.40714285714286,12.05L26.40714285714286,12.692857142857143L25.978571428571428,12.692857142857143L25.978571428571428,12.907142857142858L11.307142857142857,12.907142857142858L11.307142857142857,12.478571428571428L8.521428571428569,12.478571428571428L8.521428571428569,11.521428571428569L8.735714285714284,11.521428571428569L8.735714285714284,11.307142857142857L8.95,11.307142857142857z" stroke="none"/><path d="M24,7.55L24,7.45L24.692857142857143,7.45L24.692857142857143,7.878571428571428L27.378571428571426,7.878571428571428L27.378571428571426,3.907142857142857L27.164285714285715,3.907142857142857L27.164285714285715,3.6928571428571426L26.95,3.6928571428571426L26.95,3.2642857142857142L26.735714285714284,3.2642857142857142L26.735714285714284,2.8357142857142854L26.52142857142857,2.8357142857142854L26.52142857142857,2.6214285714285714L26.307142857142857,2.6214285714285714L26.307142857142857,2.407142857142857L20.621428571428574,2.407142857142857L20.621428571428574,3.2642857142857142L20.192857142857143,3.2642857142857142L20.192857142857143,3.478571428571428L12.478571428571428,3.478571428571428L12.478571428571428,3.6928571428571426L12.264285714285716,3.6928571428571426L12.264285714285716,4.335714285714285L12.05,4.335714285714285L12.05,4.5L11.95,4.5L11.95,4.235714285714286L12.164285714285715,4.235714285714286L12.164285714285715,3.592857142857143L12.378571428571426,3.592857142857143L12.378571428571426,3.3785714285714286L20.09285714285714,3.3785714285714286L20.09285714285714,3.1642857142857146L20.521428571428572,3.1642857142857146L20.521428571428572,2.3071428571428574L26.40714285714286,2.3071428571428574L26.40714285714286,2.521428571428572L26.62142857142857,2.521428571428572L26.62142857142857,2.7357142857142858L26.835714285714285,2.7357142857142858L26.835714285714285,3.1642857142857146L27.05,3.1642857142857146L27.05,3.592857142857143L27.264285714285716,3.592857142857143L27.264285714285716,3.8071428571428574L27.478571428571428,3.8071428571428574L27.478571428571428,7.978571428571428L24.59285714285714,7.978571428571428L24.59285714285714,7.55z" stroke="none"/></svg>