<svg version="1.1" width="30" height="15" xmlns="http://www.w3.org/2000/svg"><path d="M12.807142857142857,6.378571428571428L12.807142857142857,4.45L13.5,4.45L13.5,4.55L12.907142857142858,4.55L12.907142857142858,8.95L13.5,8.95L13.5,9.05L12.807142857142857,9.05L12.807142857142857,6.478571428571428L12.378571428571426,6.478571428571428L12.378571428571426,6.05L12,6.05L12,5.95L12.478571428571428,5.95L12.478571428571428,6.378571428571428z" stroke="none"/><path d="M22.45,3.6928571428571426L22.235714285714284,3.6928571428571426L22.235714285714284,3.478571428571428L18.807142857142857,3.478571428571428L18.807142857142857,3.2642857142857142L18.59285714285714,3.2642857142857142L18.59285714285714,3.05L18,3.05L18,2.95L18.692857142857143,2.95L18.692857142857143,3.1642857142857146L18.90714285714286,3.1642857142857146L18.90714285714286,3.3785714285714286L22.335714285714285,3.3785714285714286L22.335714285714285,3.592857142857143L22.55,3.592857142857143L22.55,4.878571428571429L25.55,4.878571428571429L25.55,5.0928571428571425L25.764285714285716,5.0928571428571425L25.764285714285716,5.307142857142857L25.978571428571428,5.307142857142857L25.978571428571428,5.521428571428571L26.62142857142857,5.521428571428571L26.62142857142857,5.735714285714286L26.835714285714285,5.735714285714286L26.835714285714285,5.95L27,5.95L27,6.05L26.735714285714284,6.05L26.735714285714284,5.835714285714285L26.52142857142857,5.835714285714285L26.52142857142857,5.621428571428571L25.878571428571426,5.621428571428571L25.878571428571426,5.407142857142857L25.664285714285715,5.407142857142857L25.664285714285715,5.192857142857142L25.45,5.192857142857142L25.45,4.978571428571429L22.55,4.978571428571429L22.55,6L22.45,6z" stroke="none"/><path d="M11.307142857142857,5.307142857142857L11.307142857142857,4.664285714285715L11.521428571428569,4.664285714285715L11.521428571428569,4.235714285714286L12.164285714285715,4.235714285714286L12.164285714285715,4.021428571428571L13.978571428571428,4.021428571428571L13.978571428571428,5.735714285714286L14.192857142857143,5.735714285714286L14.192857142857143,5.95L14.407142857142858,5.95L14.407142857142858,6.164285714285715L14.62142857142857,6.164285714285715L14.62142857142857,6.5928571428571425L15.05,6.5928571428571425L15.05,7.5L14.95,7.5L14.95,6.692857142857142L14.521428571428569,6.692857142857142L14.521428571428569,6.264285714285714L14.307142857142857,6.264285714285714L14.307142857142857,6.05L14.092857142857142,6.05L14.092857142857142,5.835714285714285L13.878571428571426,5.835714285714285L13.878571428571426,4.121428571428571L12.264285714285716,4.121428571428571L12.264285714285716,4.335714285714285L11.62142857142857,4.335714285714285L11.62142857142857,4.764285714285714L11.407142857142858,4.764285714285714L11.407142857142858,5.407142857142857L7.55,5.407142857142857L7.55,5.621428571428571L3.2642857142857142,5.621428571428571L3.2642857142857142,6.05L3,6.05L3,5.95L3.1642857142857146,5.95L3.1642857142857146,5.521428571428571L7.45,5.521428571428571L7.45,5.407142857142857L5.95,5.407142857142857L5.95,5.192857142857142L5.521428571428571,5.192857142857142L5.521428571428571,4.55L5.307142857142857,4.55L5.307142857142857,4.335714285714285L4.878571428571429,4.335714285714285L4.878571428571429,4.121428571428571L4.664285714285715,4.121428571428571L4.664285714285715,3.2642857142857142L4.45,3.2642857142857142L4.45,3L4.55,3L4.55,3.1642857142857146L4.764285714285714,3.1642857142857146L4.764285714285714,4.021428571428571L4.978571428571429,4.021428571428571L4.978571428571429,4.235714285714286L5.407142857142857,4.235714285714286L5.407142857142857,4.45L5.621428571428571,4.45L5.621428571428571,5.0928571428571425L6.05,5.0928571428571425L6.05,5.307142857142857z" stroke="none"/><path d="M11.092857142857142,7.664285714285715L11.092857142857142,7.45L11.521428571428569,7.45L11.521428571428569,7.235714285714286L12.264285714285716,7.235714285714286L12.264285714285716,7.978571428571428L11.62142857142857,7.978571428571428L11.62142857142857,8.192857142857143L8.835714285714285,8.192857142857143L8.835714285714285,8.62142857142857L8.62142857142857,8.62142857142857L8.62142857142857,10.335714285714285L8.407142857142858,10.335714285714285L8.407142857142858,10.55L7.764285714285714,10.55L7.764285714285714,10.764285714285716L7.55,10.764285714285716L7.55,10.978571428571428L7.121428571428571,10.978571428571428L7.121428571428571,12.378571428571426L11.521428571428569,12.378571428571426L11.521428571428569,11.521428571428569L11.735714285714284,11.521428571428569L11.735714285714284,11.307142857142857L12.164285714285715,11.307142857142857L12.164285714285715,10.878571428571426L14.092857142857142,10.878571428571426L14.092857142857142,10.664285714285715L16.02142857142857,10.664285714285715L16.02142857142857,10.45L16.5,10.45L16.5,10.55L16.12142857142857,10.55L16.12142857142857,10.764285714285716L14.192857142857143,10.764285714285716L14.192857142857143,10.978571428571428L12.264285714285716,10.978571428571428L12.264285714285716,11.407142857142858L11.835714285714285,11.407142857142858L11.835714285714285,11.62142857142857L11.62142857142857,11.62142857142857L11.62142857142857,12.478571428571428L7.021428571428571,12.478571428571428L7.021428571428571,10.878571428571426L7.45,10.878571428571426L7.45,10.664285714285715L7.664285714285715,10.664285714285715L7.664285714285715,10.45L8.307142857142857,10.45L8.307142857142857,10.235714285714284L8.521428571428569,10.235714285714284L8.521428571428569,8.521428571428569L8.735714285714284,8.521428571428569L8.735714285714284,8.092857142857142L11.521428571428569,8.092857142857142L11.521428571428569,7.878571428571428L12.164285714285715,7.878571428571428L12.164285714285715,7.335714285714285L11.62142857142857,7.335714285714285L11.62142857142857,7.55L11.192857142857143,7.55L11.192857142857143,7.664285714285715L11.735714285714284,7.664285714285715L11.735714285714284,7.45L12,7.45L12,7.55L11.835714285714285,7.55L11.835714285714285,7.764285714285714L11.192857142857143,7.764285714285714L11.192857142857143,7.978571428571428L8.092857142857142,7.978571428571428L8.092857142857142,7.55L7.5,7.55L7.5,7.45L8.192857142857143,7.45L8.192857142857143,7.878571428571428L11.092857142857142,7.878571428571428L11.092857142857142,7.764285714285714L10.878571428571426,7.764285714285714L10.878571428571426,7.121428571428571L9.807142857142857,7.121428571428571L9.807142857142857,6.264285714285714L9.592857142857142,6.264285714285714L9.592857142857142,6.05L9,6.05L9,5.95L9.692857142857143,5.95L9.692857142857143,6.164285714285715L9.907142857142858,6.164285714285715L9.907142857142858,7.021428571428571L10.978571428571428,7.021428571428571L10.978571428571428,7.664285714285715z" stroke="none"/><path d="M11.95,10.45L11.95,9L12.05,9L12.05,10.45L13.664285714285715,10.45L13.664285714285715,10.235714285714284L14.735714285714284,10.235714285714284L14.735714285714284,10.021428571428569L18.478571428571428,10.021428571428569L18.478571428571428,10.664285714285715L18.90714285714286,10.664285714285715L18.90714285714286,10.878571428571426L21.378571428571426,10.878571428571426L21.378571428571426,9.692857142857143L21.164285714285715,9.692857142857143L21.164285714285715,9.478571428571428L20.307142857142857,9.478571428571428L20.307142857142857,9.264285714285716L19.664285714285715,9.264285714285716L19.664285714285715,9.05L19.5,9.05L19.5,8.95L19.764285714285716,8.95L19.764285714285716,9.164285714285715L20.40714285714286,9.164285714285715L20.40714285714286,9.378571428571426L21.264285714285716,9.378571428571426L21.264285714285716,9.592857142857142L21.478571428571428,9.592857142857142L21.478571428571428,10.978571428571428L18.807142857142857,10.978571428571428L18.807142857142857,10.764285714285716L18.378571428571426,10.764285714285716L18.378571428571426,10.12142857142857L14.835714285714285,10.12142857142857L14.835714285714285,10.335714285714285L13.764285714285716,10.335714285714285L13.764285714285716,10.55L12.05,10.55L12.05,10.978571428571428L11.407142857142858,10.978571428571428L11.407142857142858,11.192857142857143L10.55,11.192857142857143L10.55,11.407142857142858L10.335714285714285,11.407142857142858L10.335714285714285,11.62142857142857L10.12142857142857,11.62142857142857L10.12142857142857,11.835714285714285L9.907142857142858,11.835714285714285L9.907142857142858,12.05L9.264285714285716,12.05L9.264285714285716,12.264285714285716L7.45,12.264285714285716L7.45,12L7.55,12L7.55,12.164285714285715L9.164285714285715,12.164285714285715L9.164285714285715,11.95L9.807142857142857,11.95L9.807142857142857,11.735714285714284L10.021428571428569,11.735714285714284L10.021428571428569,11.521428571428569L10.235714285714284,11.521428571428569L10.235714285714284,11.307142857142857L10.45,11.307142857142857L10.45,11.092857142857142L11.307142857142857,11.092857142857142L11.307142857142857,10.878571428571426L11.95,10.878571428571426L11.95,10.55L11.835714285714285,10.55L11.835714285714285,10.764285714285716L10.978571428571428,10.764285714285716L10.978571428571428,10.978571428571428L9.692857142857143,10.978571428571428L9.692857142857143,11.62142857142857L9.05,11.62142857142857L9.05,12L8.95,12L8.95,11.521428571428569L9.592857142857142,11.521428571428569L9.592857142857142,10.878571428571426L10.878571428571426,10.878571428571426L10.878571428571426,10.664285714285715L11.735714285714284,10.664285714285715L11.735714285714284,10.45z" stroke="none"/><path d="M14.95,9.592857142857142L14.95,9.378571428571426L20.192857142857143,9.378571428571426L20.192857142857143,9.592857142857142L20.40714285714286,9.592857142857142L20.40714285714286,9.807142857142857L20.621428571428574,9.807142857142857L20.621428571428574,10.021428571428569L20.835714285714285,10.021428571428569L20.835714285714285,10.235714285714284L21.05,10.235714285714284L21.05,10.5L20.95,10.5L20.95,10.335714285714285L20.735714285714284,10.335714285714285L20.735714285714284,10.12142857142857L20.521428571428572,10.12142857142857L20.521428571428572,9.907142857142858L20.307142857142857,9.907142857142858L20.307142857142857,9.692857142857143L20.09285714285714,9.692857142857143L20.09285714285714,9.478571428571428L15.05,9.478571428571428L15.05,9.592857142857142L18.692857142857143,9.592857142857142L18.692857142857143,10.021428571428569L19.335714285714285,10.021428571428569L19.335714285714285,10.45L19.5,10.45L19.5,10.55L19.235714285714284,10.55L19.235714285714284,10.12142857142857L18.59285714285714,10.12142857142857L18.59285714285714,9.692857142857143L15.05,9.692857142857143L15.05,9.907142857142858L12.807142857142857,9.907142857142858L12.807142857142857,9.692857142857143L12.592857142857142,9.692857142857143L12.592857142857142,9.478571428571428L12.378571428571426,9.478571428571428L12.378571428571426,8.62142857142857L9.907142857142858,8.62142857142857L9.907142857142858,8.835714285714285L9.478571428571428,8.835714285714285L9.478571428571428,9.05L9,9.05L9,8.95L9.378571428571426,8.95L9.378571428571426,8.735714285714284L9.807142857142857,8.735714285714284L9.807142857142857,8.521428571428569L12.478571428571428,8.521428571428569L12.478571428571428,9.378571428571426L12.692857142857143,9.378571428571426L12.692857142857143,9.592857142857142L12.907142857142858,9.592857142857142L12.907142857142858,9.807142857142857L14.95,9.807142857142857L14.95,9.692857142857143L13.021428571428569,9.692857142857143L13.021428571428569,9.264285714285716L12.592857142857142,9.264285714285716L12.592857142857142,7.335714285714285L12.378571428571426,7.335714285714285L12.378571428571426,6.907142857142857L11.307142857142857,6.907142857142857L11.307142857142857,6.478571428571428L10.878571428571426,6.478571428571428L10.878571428571426,6.264285714285714L10.664285714285715,6.264285714285714L10.664285714285715,6.05L10.021428571428569,6.05L10.021428571428569,5.835714285714285L9.592857142857142,5.835714285714285L9.592857142857142,5.621428571428571L8.62142857142857,5.621428571428571L8.62142857142857,6.807142857142857L9.264285714285716,6.807142857142857L9.264285714285716,7.021428571428571L9.692857142857143,7.021428571428571L9.692857142857143,7.235714285714286L9.907142857142858,7.235714285714286L9.907142857142858,7.45L10.5,7.45L10.5,7.55L9.807142857142857,7.55L9.807142857142857,7.335714285714285L9.592857142857142,7.335714285714285L9.592857142857142,7.121428571428571L9.164285714285715,7.121428571428571L9.164285714285715,6.907142857142857L8.521428571428569,6.907142857142857L8.521428571428569,5.521428571428571L9.692857142857143,5.521428571428571L9.692857142857143,5.735714285714286L10.12142857142857,5.735714285714286L10.12142857142857,5.95L10.764285714285716,5.95L10.764285714285716,6.164285714285715L10.978571428571428,6.164285714285715L10.978571428571428,6.378571428571428L11.407142857142858,6.378571428571428L11.407142857142858,6.807142857142857L12.478571428571428,6.807142857142857L12.478571428571428,7.235714285714286L12.692857142857143,7.235714285714286L12.692857142857143,9.164285714285715L13.12142857142857,9.164285714285715L13.12142857142857,9.592857142857142z" stroke="none"/><path d="M9,10.55L9,10.45L10.5,10.45L10.5,10.55z" stroke="none"/><path d="M16.5,8.95L16.5,9.05L15,9.05L15,8.95z" stroke="none"/><path d="M25.45,7.5L25.55,7.5L25.55,9L25.45,9z" stroke="none"/><path d="M24.05,12L23.95,12L23.95,10.5L24.05,10.5z" stroke="none"/><path d="M3,12.05L3,11.95L6,11.95L6,12.05z" stroke="none"/><path d="M4.45,7.5L4.55,7.5L4.55,10.021428571428569L5.407142857142857,10.021428571428569L5.407142857142857,10.235714285714284L5.621428571428571,10.235714285714284L5.621428571428571,10.45L6,10.45L6,10.55L5.521428571428571,10.55L5.521428571428571,10.335714285714285L5.307142857142857,10.335714285714285L5.307142857142857,10.12142857142857L4.45,10.12142857142857z" stroke="none"/><path d="M3,10.55L3,10.45L5.407142857142857,10.45L5.407142857142857,10.878571428571426L6.378571428571428,10.878571428571426L6.378571428571428,9.05L6,9.05L6,8.95L6.478571428571428,8.95L6.478571428571428,10.978571428571428L5.307142857142857,10.978571428571428L5.307142857142857,10.55z" stroke="none"/><path d="M12,2.95L12,3.05L11.192857142857143,3.05L11.192857142857143,3.478571428571428L10.12142857142857,3.478571428571428L10.12142857142857,3.907142857142857L9.907142857142858,3.907142857142857L9.907142857142858,4.335714285714285L9.264285714285716,4.335714285714285L9.264285714285716,4.55L9,4.55L9,4.45L9.164285714285715,4.45L9.164285714285715,4.235714285714286L9.807142857142857,4.235714285714286L9.807142857142857,3.8071428571428574L10.021428571428569,3.8071428571428574L10.021428571428569,3.3785714285714286L11.092857142857142,3.3785714285714286L11.092857142857142,2.95z" stroke="none"/><path d="M4.5,4.45L4.5,4.55L3.907142857142857,4.55L3.907142857142857,4.764285714285714L3.6928571428571426,4.764285714285714L3.6928571428571426,4.978571428571429L3.478571428571428,4.978571428571429L3.478571428571428,5.192857142857142L2.8357142857142854,5.192857142857142L2.8357142857142854,5.621428571428571L2.6214285714285714,5.621428571428571L2.6214285714285714,6.378571428571428L7.021428571428571,6.378571428571428L7.021428571428571,6.164285714285715L7.45,6.164285714285715L7.45,6L7.55,6L7.55,6.264285714285714L7.121428571428571,6.264285714285714L7.121428571428571,6.478571428571428L2.521428571428572,6.478571428571428L2.521428571428572,5.521428571428571L2.7357142857142858,5.521428571428571L2.7357142857142858,5.0928571428571425L3.3785714285714286,5.0928571428571425L3.3785714285714286,4.878571428571429L3.592857142857143,4.878571428571429L3.592857142857143,4.664285714285715L3.8071428571428574,4.664285714285715L3.8071428571428574,4.45z" stroke="none"/><path d="M26.95,4.5L27.05,4.5L27.05,5.307142857142857L27.478571428571428,5.307142857142857L27.478571428571428,6.478571428571428L25.12142857142857,6.478571428571428L25.12142857142857,6.692857142857142L24.90714285714286,6.692857142857142L24.90714285714286,7.121428571428571L24.692857142857143,7.121428571428571L24.692857142857143,7.55L24,7.55L24,7.45L24.59285714285714,7.45L24.59285714285714,7.021428571428571L24.807142857142857,7.021428571428571L24.807142857142857,6.5928571428571425L25.02142857142857,6.5928571428571425L25.02142857142857,6.378571428571428L27.378571428571426,6.378571428571428L27.378571428571426,5.407142857142857L26.95,5.407142857142857z" stroke="none"/><path d="M19.5,12.05L19.5,11.95L20.307142857142857,11.95L20.307142857142857,11.735714285714284L20.521428571428572,11.735714285714284L20.521428571428572,11.521428571428569L21.378571428571426,11.521428571428569L21.378571428571426,11.307142857142857L21.59285714285714,11.307142857142857L21.59285714285714,10.45L21.807142857142857,10.45L21.807142857142857,9.592857142857142L22.021428571428572,9.592857142857142L22.021428571428572,9.164285714285715L22.45,9.164285714285715L22.45,9L22.55,9L22.55,9.264285714285716L22.121428571428574,9.264285714285716L22.121428571428574,9.692857142857143L21.90714285714286,9.692857142857143L21.90714285714286,10.55L21.692857142857143,10.55L21.692857142857143,11.407142857142858L21.478571428571428,11.407142857142858L21.478571428571428,11.62142857142857L20.621428571428574,11.62142857142857L20.621428571428574,11.835714285714285L20.40714285714286,11.835714285714285L20.40714285714286,12.05z" stroke="none"/><path d="M16.5,12.05L16.5,11.95L18.692857142857143,11.95L18.692857142857143,12.164285714285715L19.121428571428574,12.164285714285715L19.121428571428574,12.378571428571426L20.735714285714284,12.378571428571426L20.735714285714284,12.164285714285715L20.95,12.164285714285715L20.95,12L21.05,12L21.05,12.264285714285716L20.835714285714285,12.264285714285716L20.835714285714285,12.478571428571428L19.021428571428572,12.478571428571428L19.021428571428572,12.264285714285716L18.59285714285714,12.264285714285716L18.59285714285714,12.05z" stroke="none"/><path d="M21,4.55L21,4.45L21.264285714285716,4.45L21.264285714285716,4.664285714285715L21.478571428571428,4.664285714285715L21.478571428571428,5.0928571428571425L21.692857142857143,5.0928571428571425L21.692857142857143,5.307142857142857L21.90714285714286,5.307142857142857L21.90714285714286,5.95L22.121428571428574,5.95L22.121428571428574,6.378571428571428L24.378571428571426,6.378571428571428L24.378571428571426,6.164285714285715L25.45,6.164285714285715L25.45,6L25.55,6L25.55,6.264285714285714L24.478571428571428,6.264285714285714L24.478571428571428,6.478571428571428L22.021428571428572,6.478571428571428L22.021428571428572,6.05L21.807142857142857,6.05L21.807142857142857,5.407142857142857L21.59285714285714,5.407142857142857L21.59285714285714,5.192857142857142L21.378571428571426,5.192857142857142L21.378571428571426,4.764285714285714L21.164285714285715,4.764285714285714L21.164285714285715,4.55z" stroke="none"/><path d="M18,10.45L18,10.55L17.621428571428574,10.55L17.621428571428574,10.764285714285716L17.192857142857143,10.764285714285716L17.192857142857143,10.978571428571428L16.978571428571428,10.978571428571428L16.978571428571428,11.192857142857143L16.764285714285716,11.192857142857143L16.764285714285716,11.407142857142858L16.335714285714285,11.407142857142858L16.335714285714285,11.62142857142857L16.12142857142857,11.62142857142857L16.12142857142857,12.378571428571426L18.692857142857143,12.378571428571426L18.692857142857143,12.592857142857142L21.378571428571426,12.592857142857142L21.378571428571426,12.164285714285715L21.807142857142857,12.164285714285715L21.807142857142857,11.95L22.5,11.95L22.5,12.05L21.90714285714286,12.05L21.90714285714286,12.264285714285716L21.478571428571428,12.264285714285716L21.478571428571428,12.692857142857143L18.59285714285714,12.692857142857143L18.59285714285714,12.478571428571428L16.02142857142857,12.478571428571428L16.02142857142857,11.521428571428569L16.235714285714284,11.521428571428569L16.235714285714284,11.307142857142857L16.664285714285715,11.307142857142857L16.664285714285715,11.092857142857142L16.878571428571426,11.092857142857142L16.878571428571426,10.878571428571426L17.09285714285714,10.878571428571426L17.09285714285714,10.664285714285715L17.521428571428572,10.664285714285715L17.521428571428572,10.45z" stroke="none"/><path d="M22.5,7.45L22.5,7.55L20.95,7.55L20.95,5.835714285714285L20.735714285714284,5.835714285714285L20.735714285714284,5.621428571428571L19.664285714285715,5.621428571428571L19.664285714285715,5.407142857142857L19.021428571428572,5.407142857142857L19.021428571428572,5.192857142857142L18.164285714285715,5.192857142857142L18.164285714285715,4.335714285714285L17.735714285714284,4.335714285714285L17.735714285714284,3.6928571428571426L17.521428571428572,3.6928571428571426L17.521428571428572,2.521428571428572L19.335714285714285,2.521428571428572L19.335714285714285,2.95L19.5,2.95L19.5,3.05L19.235714285714284,3.05L19.235714285714284,2.6214285714285714L17.621428571428574,2.6214285714285714L17.621428571428574,3.592857142857143L17.835714285714285,3.592857142857143L17.835714285714285,4.235714285714286L18.264285714285716,4.235714285714286L18.264285714285716,5.0928571428571425L19.121428571428574,5.0928571428571425L19.121428571428574,5.307142857142857L19.764285714285716,5.307142857142857L19.764285714285716,5.521428571428571L20.835714285714285,5.521428571428571L20.835714285714285,5.735714285714286L21.05,5.735714285714286L21.05,7.45z" stroke="none"/><path d="M6,7.45L6,7.55L5.735714285714286,7.55L5.735714285714286,7.335714285714285L5.521428571428571,7.335714285714285L5.521428571428571,7.121428571428571L3.1642857142857146,7.121428571428571L3.1642857142857146,6.907142857142857L2.95,6.907142857142857L2.95,6.692857142857142L2.3071428571428574,6.692857142857142L2.3071428571428574,3.1642857142857146L2.521428571428572,3.1642857142857146L2.521428571428572,2.95L3,2.95L3,3.05L2.6214285714285714,3.05L2.6214285714285714,3.2642857142857142L2.407142857142857,3.2642857142857142L2.407142857142857,6.5928571428571425L3.05,6.5928571428571425L3.05,6.807142857142857L3.2642857142857142,6.807142857142857L3.2642857142857142,7.021428571428571L5.621428571428571,7.021428571428571L5.621428571428571,7.235714285714286L5.835714285714285,7.235714285714286L5.835714285714285,7.45z" stroke="none"/><path d="M10.55,3L10.45,3L10.45,2.7357142857142858L11.307142857142857,2.7357142857142858L11.307142857142857,2.521428571428572L13.764285714285716,2.521428571428572L13.764285714285716,2.7357142857142858L13.978571428571428,2.7357142857142858L13.978571428571428,3.1642857142857146L14.192857142857143,3.1642857142857146L14.192857142857143,4.878571428571429L14.407142857142858,4.878571428571429L14.407142857142858,5.0928571428571425L14.62142857142857,5.0928571428571425L14.62142857142857,5.307142857142857L14.835714285714285,5.307142857142857L14.835714285714285,5.735714285714286L15.05,5.735714285714286L15.05,6L14.95,6L14.95,5.835714285714285L14.735714285714284,5.835714285714285L14.735714285714284,5.407142857142857L14.521428571428569,5.407142857142857L14.521428571428569,5.192857142857142L14.307142857142857,5.192857142857142L14.307142857142857,4.978571428571429L14.092857142857142,4.978571428571429L14.092857142857142,3.2642857142857142L13.878571428571426,3.2642857142857142L13.878571428571426,2.8357142857142854L13.664285714285715,2.8357142857142854L13.664285714285715,2.6214285714285714L11.407142857142858,2.6214285714285714L11.407142857142858,2.8357142857142854L10.55,2.8357142857142854z" stroke="none"/><path d="M19.55,7.5L19.45,7.5L19.45,6.478571428571428L18.59285714285714,6.478571428571428L18.59285714285714,6.264285714285714L18.378571428571426,6.264285714285714L18.378571428571426,6.05L18.164285714285715,6.05L18.164285714285715,5.407142857142857L17.95,5.407142857142857L17.95,4.764285714285714L17.521428571428572,4.764285714285714L17.521428571428572,4.335714285714285L17.307142857142857,4.335714285714285L17.307142857142857,2.3071428571428574L21.692857142857143,2.3071428571428574L21.692857142857143,2.521428571428572L22.121428571428574,2.521428571428572L22.121428571428574,2.7357142857142858L22.335714285714285,2.7357142857142858L22.335714285714285,2.95L22.5,2.95L22.5,3.05L22.235714285714284,3.05L22.235714285714284,2.8357142857142854L22.021428571428572,2.8357142857142854L22.021428571428572,2.6214285714285714L21.59285714285714,2.6214285714285714L21.59285714285714,2.407142857142857L17.40714285714286,2.407142857142857L17.40714285714286,4.235714285714286L17.621428571428574,4.235714285714286L17.621428571428574,4.664285714285715L18.05,4.664285714285715L18.05,5.307142857142857L18.264285714285716,5.307142857142857L18.264285714285716,5.95L18.478571428571428,5.95L18.478571428571428,6.164285714285715L18.692857142857143,6.164285714285715L18.692857142857143,6.378571428571428L19.55,6.378571428571428z" stroke="none"/><path d="M19.5,6.05L19.5,5.95L20.192857142857143,5.95L20.192857142857143,6.378571428571428L20.40714285714286,6.378571428571428L20.40714285714286,6.5928571428571425L20.621428571428574,6.5928571428571425L20.621428571428574,7.021428571428571L20.835714285714285,7.021428571428571L20.835714285714285,7.664285714285715L22.121428571428574,7.664285714285715L22.121428571428574,7.878571428571428L24.807142857142857,7.878571428571428L24.807142857142857,7.235714285714286L25.02142857142857,7.235714285714286L25.02142857142857,7.021428571428571L26.62142857142857,7.021428571428571L26.62142857142857,7.235714285714286L27.05,7.235714285714286L27.05,7.5L26.95,7.5L26.95,7.335714285714285L26.52142857142857,7.335714285714285L26.52142857142857,7.121428571428571L25.12142857142857,7.121428571428571L25.12142857142857,7.335714285714285L24.90714285714286,7.335714285714285L24.90714285714286,7.978571428571428L22.021428571428572,7.978571428571428L22.021428571428572,7.764285714285714L20.735714285714284,7.764285714285714L20.735714285714284,7.121428571428571L20.521428571428572,7.121428571428571L20.521428571428572,6.692857142857142L20.307142857142857,6.692857142857142L20.307142857142857,6.478571428571428L20.09285714285714,6.478571428571428L20.09285714285714,6.05z" stroke="none"/><path d="M25.55,12L25.45,12L25.45,10.978571428571428L25.02142857142857,10.978571428571428L25.02142857142857,9.907142857142858L23.95,9.907142857142858L23.95,9.692857142857143L23.307142857142857,9.692857142857143L23.307142857142857,8.835714285714285L22.878571428571426,8.835714285714285L22.878571428571426,8.62142857142857L18.807142857142857,8.62142857142857L18.807142857142857,8.407142857142858L18.59285714285714,8.407142857142858L18.59285714285714,7.978571428571428L18.164285714285715,7.978571428571428L18.164285714285715,7.55L18,7.55L18,7.45L18.264285714285716,7.45L18.264285714285716,7.878571428571428L18.692857142857143,7.878571428571428L18.692857142857143,8.307142857142857L18.90714285714286,8.307142857142857L18.90714285714286,8.521428571428569L22.978571428571428,8.521428571428569L22.978571428571428,8.735714285714284L23.40714285714286,8.735714285714284L23.40714285714286,9.592857142857142L24.05,9.592857142857142L24.05,9.807142857142857L25.12142857142857,9.807142857142857L25.12142857142857,10.878571428571426L25.55,10.878571428571426z" stroke="none"/><path d="M15.05,4.5L14.95,4.5L14.95,3.907142857142857L14.735714285714284,3.907142857142857L14.735714285714284,3.6928571428571426L14.521428571428569,3.6928571428571426L14.521428571428569,3.478571428571428L14.307142857142857,3.478571428571428L14.307142857142857,2.8357142857142854L14.092857142857142,2.8357142857142854L14.092857142857142,2.6214285714285714L13.878571428571426,2.6214285714285714L13.878571428571426,2.407142857142857L6.907142857142857,2.407142857142857L6.907142857142857,2.6214285714285714L6.692857142857142,2.6214285714285714L6.692857142857142,3.478571428571428L6.478571428571428,3.478571428571428L6.478571428571428,3.6928571428571426L6.264285714285714,3.6928571428571426L6.264285714285714,4.55L6,4.55L6,4.45L6.164285714285715,4.45L6.164285714285715,3.592857142857143L6.378571428571428,3.592857142857143L6.378571428571428,3.3785714285714286L6.5928571428571425,3.3785714285714286L6.5928571428571425,2.521428571428572L6.807142857142857,2.521428571428572L6.807142857142857,2.3071428571428574L13.978571428571428,2.3071428571428574L13.978571428571428,2.521428571428572L14.192857142857143,2.521428571428572L14.192857142857143,2.7357142857142858L14.407142857142858,2.7357142857142858L14.407142857142858,3.3785714285714286L14.62142857142857,3.3785714285714286L14.62142857142857,3.592857142857143L14.835714285714285,3.592857142857143L14.835714285714285,3.8071428571428574L15.05,3.8071428571428574z" stroke="none"/><path d="M16.5,6.05L16.5,5.95L16.978571428571428,5.95L16.978571428571428,6.164285714285715L17.621428571428574,6.164285714285715L17.621428571428574,6.378571428571428L17.835714285714285,6.378571428571428L17.835714285714285,6.5928571428571425L18.05,6.5928571428571425L18.05,6.807142857142857L18.264285714285716,6.807142857142857L18.264285714285716,7.021428571428571L18.478571428571428,7.021428571428571L18.478571428571428,7.45L18.90714285714286,7.45L18.90714285714286,7.664285714285715L19.121428571428574,7.664285714285715L19.121428571428574,7.878571428571428L21.90714285714286,7.878571428571428L21.90714285714286,8.092857142857142L23.192857142857143,8.092857142857142L23.192857142857143,8.307142857142857L23.62142857142857,8.307142857142857L23.62142857142857,8.521428571428569L23.835714285714285,8.521428571428569L23.835714285714285,8.95L24.05,8.95L24.05,9.164285714285715L24.478571428571428,9.164285714285715L24.478571428571428,9.378571428571426L25.12142857142857,9.378571428571426L25.12142857142857,9.592857142857142L25.335714285714285,9.592857142857142L25.335714285714285,10.45L25.5,10.45L25.5,10.55L25.235714285714284,10.55L25.235714285714284,9.692857142857143L25.02142857142857,9.692857142857143L25.02142857142857,9.478571428571428L24.378571428571426,9.478571428571428L24.378571428571426,9.264285714285716L23.95,9.264285714285716L23.95,9.05L23.735714285714284,9.05L23.735714285714284,8.62142857142857L23.52142857142857,8.62142857142857L23.52142857142857,8.407142857142858L23.09285714285714,8.407142857142858L23.09285714285714,8.192857142857143L21.807142857142857,8.192857142857143L21.807142857142857,7.978571428571428L19.021428571428572,7.978571428571428L19.021428571428572,7.764285714285714L18.807142857142857,7.764285714285714L18.807142857142857,7.55L18.378571428571426,7.55L18.378571428571426,7.121428571428571L18.164285714285715,7.121428571428571L18.164285714285715,6.907142857142857L17.95,6.907142857142857L17.95,6.692857142857142L17.735714285714284,6.692857142857142L17.735714285714284,6.478571428571428L17.521428571428572,6.478571428571428L17.521428571428572,6.264285714285714L16.878571428571426,6.264285714285714L16.878571428571426,6.05z" stroke="none"/><path d="M16.55,4.5L16.45,4.5L16.45,3.3785714285714286L16.664285714285715,3.3785714285714286L16.664285714285715,2.95L16.878571428571426,2.95L16.878571428571426,2.3071428571428574L17.09285714285714,2.3071428571428574L17.09285714285714,2.092857142857143L26.40714285714286,2.092857142857143L26.40714285714286,2.3071428571428574L26.62142857142857,2.3071428571428574L26.62142857142857,2.7357142857142858L26.835714285714285,2.7357142857142858L26.835714285714285,2.95L27,2.95L27,3.05L26.735714285714284,3.05L26.735714285714284,2.8357142857142854L26.52142857142857,2.8357142857142854L26.52142857142857,2.407142857142857L26.307142857142857,2.407142857142857L26.307142857142857,2.1928571428571426L17.192857142857143,2.1928571428571426L17.192857142857143,2.407142857142857L16.978571428571428,2.407142857142857L16.978571428571428,3.05L16.764285714285716,3.05L16.764285714285716,3.478571428571428L16.55,3.478571428571428z" stroke="none"/><path d="M15,2.95L15,3.05L14.521428571428569,3.05L14.521428571428569,2.1928571428571426L4.121428571428571,2.1928571428571426L4.121428571428571,3.478571428571428L3.6928571428571426,3.478571428571428L3.6928571428571426,3.6928571428571426L3.478571428571428,3.6928571428571426L3.478571428571428,3.907142857142857L3.2642857142857142,3.907142857142857L3.2642857142857142,4.55L3,4.55L3,4.45L3.1642857142857146,4.45L3.1642857142857146,3.8071428571428574L3.3785714285714286,3.8071428571428574L3.3785714285714286,3.592857142857143L3.592857142857143,3.592857142857143L3.592857142857143,3.3785714285714286L4.021428571428571,3.3785714285714286L4.021428571428571,2.092857142857143L14.62142857142857,2.092857142857143L14.62142857142857,2.95z" stroke="none"/></svg>