<svg version="1.1" width="30" height="15" xmlns="http://www.w3.org/2000/svg"><path d="M14.092857142857142,10.764285714285716L13.664285714285715,10.764285714285716L13.664285714285715,10.55L13.5,10.55L13.5,10.45L13.764285714285716,10.45L13.764285714285716,10.664285714285715L14.192857142857143,10.664285714285715L14.192857142857143,10.878571428571426L14.307142857142857,10.878571428571426L14.307142857142857,10.664285714285715L14.521428571428569,10.664285714285715L14.521428571428569,10.45L15,10.45L15,10.55L14.62142857142857,10.55L14.62142857142857,10.764285714285716L14.407142857142858,10.764285714285716L14.407142857142858,10.978571428571428L14.192857142857143,10.978571428571428L14.192857142857143,11.407142857142858L13.764285714285716,11.407142857142858L13.764285714285716,11.835714285714285L13.55,11.835714285714285L13.55,12L13.45,12L13.45,11.735714285714284L13.664285714285715,11.735714285714284L13.664285714285715,11.307142857142857L14.092857142857142,11.307142857142857z" stroke="none"/><path d="M15.807142857142857,4.45L15.807142857142857,3.05L15,3.05L15,2.95L15.907142857142858,2.95L15.907142857142858,4.45L16.02142857142857,4.45L16.02142857142857,4.021428571428571L21.264285714285716,4.021428571428571L21.264285714285716,4.235714285714286L21.692857142857143,4.235714285714286L21.692857142857143,4.45L22.5,4.45L22.5,4.55L21.59285714285714,4.55L21.59285714285714,4.335714285714285L21.164285714285715,4.335714285714285L21.164285714285715,4.121428571428571L16.12142857142857,4.121428571428571L16.12142857142857,4.55L12.05,4.55L12.05,4.764285714285714L11.835714285714285,4.764285714285714L11.835714285714285,4.978571428571429L10.978571428571428,4.978571428571429L10.978571428571428,5.192857142857142L10.764285714285716,5.192857142857142L10.764285714285716,5.621428571428571L10.55,5.621428571428571L10.55,6L10.45,6L10.45,5.521428571428571L10.664285714285715,5.521428571428571L10.664285714285715,5.0928571428571425L10.878571428571426,5.0928571428571425L10.878571428571426,4.878571428571429L11.735714285714284,4.878571428571429L11.735714285714284,4.664285714285715L11.95,4.664285714285715L11.95,4.45z" stroke="none"/><path d="M14.307142857142857,7.45L14.307142857142857,7.235714285714286L16.02142857142857,7.235714285714286L16.02142857142857,7.021428571428571L17.09285714285714,7.021428571428571L17.09285714285714,6.807142857142857L17.521428571428572,6.807142857142857L17.521428571428572,5.735714285714286L17.95,5.735714285714286L17.95,5.307142857142857L18.164285714285715,5.307142857142857L18.164285714285715,5.0928571428571425L18.378571428571426,5.0928571428571425L18.378571428571426,4.664285714285715L18.59285714285714,4.664285714285715L18.59285714285714,4.45L19.5,4.45L19.5,4.55L18.692857142857143,4.55L18.692857142857143,4.764285714285714L18.478571428571428,4.764285714285714L18.478571428571428,5.192857142857142L18.264285714285716,5.192857142857142L18.264285714285716,5.407142857142857L18.05,5.407142857142857L18.05,5.835714285714285L17.621428571428574,5.835714285714285L17.621428571428574,6.907142857142857L17.192857142857143,6.907142857142857L17.192857142857143,7.121428571428571L16.12142857142857,7.121428571428571L16.12142857142857,7.335714285714285L14.407142857142858,7.335714285714285L14.407142857142858,7.45L15.907142857142858,7.45L15.907142857142858,7.878571428571428L16.335714285714285,7.878571428571428L16.335714285714285,8.521428571428569L16.55,8.521428571428569L16.55,9L16.45,9L16.45,8.62142857142857L16.235714285714284,8.62142857142857L16.235714285714284,7.978571428571428L15.807142857142857,7.978571428571428L15.807142857142857,7.55L12.478571428571428,7.55L12.478571428571428,7.978571428571428L8.407142857142858,7.978571428571428L8.407142857142858,8.192857142857143L8.192857142857143,8.192857142857143L8.192857142857143,8.62142857142857L7.55,8.62142857142857L7.55,9L7.45,9L7.45,8.521428571428569L8.092857142857142,8.521428571428569L8.092857142857142,8.092857142857142L8.307142857142857,8.092857142857142L8.307142857142857,7.878571428571428L12.378571428571426,7.878571428571428L12.378571428571426,7.45z" stroke="none"/><path d="M13.021428571428569,9.592857142857142L13.021428571428569,9.378571428571426L13.235714285714284,9.378571428571426L13.235714285714284,8.95L13.5,8.95L13.5,9.05L13.335714285714285,9.05L13.335714285714285,9.478571428571428L13.12142857142857,9.478571428571428L13.12142857142857,9.592857142857142L16.45,9.592857142857142L16.45,9.378571428571426L16.878571428571426,9.378571428571426L16.878571428571426,8.521428571428569L17.09285714285714,8.521428571428569L17.09285714285714,8.307142857142857L17.307142857142857,8.307142857142857L17.307142857142857,8.092857142857142L17.521428571428572,8.092857142857142L17.521428571428572,7.45L18,7.45L18,7.55L17.621428571428574,7.55L17.621428571428574,8.192857142857143L17.40714285714286,8.192857142857143L17.40714285714286,8.407142857142858L17.192857142857143,8.407142857142858L17.192857142857143,8.62142857142857L16.978571428571428,8.62142857142857L16.978571428571428,9.478571428571428L16.55,9.478571428571428L16.55,9.692857142857143L13.12142857142857,9.692857142857143L13.12142857142857,10.978571428571428L12.907142857142858,10.978571428571428L12.907142857142858,11.192857142857143L12.478571428571428,11.192857142857143L12.478571428571428,11.62142857142857L12.05,11.62142857142857L12.05,12L11.95,12L11.95,11.521428571428569L12.378571428571426,11.521428571428569L12.378571428571426,11.092857142857142L12.807142857142857,11.092857142857142L12.807142857142857,10.878571428571426L13.021428571428569,10.878571428571426L13.021428571428569,9.692857142857143L11.735714285714284,9.692857142857143L11.735714285714284,9.478571428571428L11.521428571428569,9.478571428571428L11.521428571428569,9.05L11.307142857142857,9.05L11.307142857142857,8.835714285714285L10.878571428571426,8.835714285714285L10.878571428571426,8.62142857142857L10.12142857142857,8.62142857142857L10.12142857142857,9.264285714285716L9.692857142857143,9.264285714285716L9.692857142857143,9.692857142857143L9.478571428571428,9.692857142857143L9.478571428571428,9.907142857142858L9.264285714285716,9.907142857142858L9.264285714285716,10.12142857142857L9.05,10.12142857142857L9.05,10.5L8.95,10.5L8.95,10.021428571428569L9.164285714285715,10.021428571428569L9.164285714285715,9.807142857142857L9.378571428571426,9.807142857142857L9.378571428571426,9.592857142857142L9.592857142857142,9.592857142857142L9.592857142857142,9.164285714285715L10.021428571428569,9.164285714285715L10.021428571428569,8.521428571428569L10.978571428571428,8.521428571428569L10.978571428571428,8.735714285714284L11.407142857142858,8.735714285714284L11.407142857142858,8.95L11.62142857142857,8.95L11.62142857142857,9.378571428571426L11.835714285714285,9.378571428571426L11.835714285714285,9.592857142857142z" stroke="none"/><path d="M7.45,11.092857142857142L7.45,10.978571428571428L6.264285714285714,10.978571428571428L6.264285714285714,11.192857142857143L6.05,11.192857142857143L6.05,11.407142857142858L5.835714285714285,11.407142857142858L5.835714285714285,12.05L4.5,12.05L4.5,11.95L5.735714285714286,11.95L5.735714285714286,11.307142857142857L5.95,11.307142857142857L5.95,11.092857142857142L6.164285714285715,11.092857142857142L6.164285714285715,10.878571428571426L7.55,10.878571428571426L7.55,11.092857142857142L8.62142857142857,11.092857142857142L8.62142857142857,11.307142857142857L8.835714285714285,11.307142857142857L8.835714285714285,11.521428571428569L9.05,11.521428571428569L9.05,12L8.95,12L8.95,11.62142857142857L8.735714285714284,11.62142857142857L8.735714285714284,11.407142857142858L8.521428571428569,11.407142857142858L8.521428571428569,11.192857142857143L7.55,11.192857142857143L7.55,11.307142857142857L8.192857142857143,11.307142857142857L8.192857142857143,11.521428571428569L8.62142857142857,11.521428571428569L8.62142857142857,11.735714285714284L8.835714285714285,11.735714285714284L8.835714285714285,12.164285714285715L9.164285714285715,12.164285714285715L9.164285714285715,11.092857142857142L9.378571428571426,11.092857142857142L9.378571428571426,10.021428571428569L9.807142857142857,10.021428571428569L9.807142857142857,9.807142857142857L10.021428571428569,9.807142857142857L10.021428571428569,9.592857142857142L10.235714285714284,9.592857142857142L10.235714285714284,8.95L10.5,8.95L10.5,9.05L10.335714285714285,9.05L10.335714285714285,9.692857142857143L10.12142857142857,9.692857142857143L10.12142857142857,9.907142857142858L9.907142857142858,9.907142857142858L9.907142857142858,10.12142857142857L9.478571428571428,10.12142857142857L9.478571428571428,11.192857142857143L9.264285714285716,11.192857142857143L9.264285714285716,12.264285714285716L8.735714285714284,12.264285714285716L8.735714285714284,11.835714285714285L8.521428571428569,11.835714285714285L8.521428571428569,11.62142857142857L8.092857142857142,11.62142857142857L8.092857142857142,11.407142857142858L7.45,11.407142857142858L7.45,11.192857142857143L6.692857142857142,11.192857142857143L6.692857142857142,11.407142857142858L6.478571428571428,11.407142857142858L6.478571428571428,11.62142857142857L6.05,11.62142857142857L6.05,12L5.95,12L5.95,11.521428571428569L6.378571428571428,11.521428571428569L6.378571428571428,11.307142857142857L6.5928571428571425,11.307142857142857L6.5928571428571425,11.092857142857142z" stroke="none"/><path d="M23.95,9.592857142857142L23.95,9.478571428571428L21.378571428571426,9.478571428571428L21.378571428571426,7.978571428571428L21.164285714285715,7.978571428571428L21.164285714285715,7.764285714285714L20.95,7.764285714285714L20.95,7.5L21.05,7.5L21.05,7.664285714285715L21.264285714285716,7.664285714285715L21.264285714285716,7.878571428571428L21.478571428571428,7.878571428571428L21.478571428571428,9.378571428571426L24.05,9.378571428571426L24.05,9.592857142857142L25.235714285714284,9.592857142857142L25.235714285714284,9.378571428571426L26.735714285714284,9.378571428571426L26.735714285714284,9.164285714285715L26.95,9.164285714285715L26.95,9L27.05,9L27.05,9.264285714285716L26.835714285714285,9.264285714285716L26.835714285714285,9.478571428571428L25.335714285714285,9.478571428571428L25.335714285714285,9.692857142857143L24.05,9.692857142857143L24.05,9.807142857142857L24.264285714285716,9.807142857142857L24.264285714285716,10.021428571428569L24.478571428571428,10.021428571428569L24.478571428571428,10.664285714285715L24.692857142857143,10.664285714285715L24.692857142857143,10.878571428571426L25.12142857142857,10.878571428571426L25.12142857142857,11.092857142857142L25.335714285714285,11.092857142857142L25.335714285714285,11.307142857142857L25.764285714285716,11.307142857142857L25.764285714285716,11.521428571428569L26.192857142857143,11.521428571428569L26.192857142857143,11.735714285714284L26.835714285714285,11.735714285714284L26.835714285714285,11.95L27,11.95L27,12.05L26.735714285714284,12.05L26.735714285714284,11.835714285714285L26.09285714285714,11.835714285714285L26.09285714285714,11.62142857142857L25.664285714285715,11.62142857142857L25.664285714285715,11.407142857142858L25.235714285714284,11.407142857142858L25.235714285714284,11.192857142857143L25.02142857142857,11.192857142857143L25.02142857142857,10.978571428571428L24.59285714285714,10.978571428571428L24.59285714285714,10.764285714285716L24.378571428571426,10.764285714285716L24.378571428571426,10.12142857142857L24.164285714285715,10.12142857142857L24.164285714285715,9.907142857142858L23.95,9.907142857142858L23.95,9.692857142857143L20.95,9.692857142857143L20.95,9L21.05,9L21.05,9.592857142857142z" stroke="none"/><path d="M16.45,4.5L16.55,4.5L16.55,6L16.45,6z" stroke="none"/><path d="M10.55,4.5L10.45,4.5L10.45,3.8071428571428574L10.664285714285715,3.8071428571428574L10.664285714285715,3.592857142857143L11.307142857142857,3.592857142857143L11.307142857142857,3.3785714285714286L11.735714285714284,3.3785714285714286L11.735714285714284,3.1642857142857146L11.95,3.1642857142857146L11.95,3L12.05,3L12.05,3.2642857142857142L11.835714285714285,3.2642857142857142L11.835714285714285,3.478571428571428L11.407142857142858,3.478571428571428L11.407142857142858,3.6928571428571426L10.764285714285716,3.6928571428571426L10.764285714285716,3.907142857142857L10.55,3.907142857142857z" stroke="none"/><path d="M22.45,10.5L22.55,10.5L22.55,11.092857142857142L22.764285714285716,11.092857142857142L22.764285714285716,11.307142857142857L23.40714285714286,11.307142857142857L23.40714285714286,11.735714285714284L23.835714285714285,11.735714285714284L23.835714285714285,11.95L24,11.95L24,12.05L23.735714285714284,12.05L23.735714285714284,11.835714285714285L23.307142857142857,11.835714285714285L23.307142857142857,11.407142857142858L22.664285714285715,11.407142857142858L22.664285714285715,11.192857142857143L22.45,11.192857142857143z" stroke="none"/><path d="M19.55,12L19.45,12L19.45,11.192857142857143L18.807142857142857,11.192857142857143L18.807142857142857,10.764285714285716L18.59285714285714,10.764285714285716L18.59285714285714,10.55L18,10.55L18,10.45L18.692857142857143,10.45L18.692857142857143,10.664285714285715L18.90714285714286,10.664285714285715L18.90714285714286,11.092857142857142L19.55,11.092857142857142z" stroke="none"/><path d="M19.55,7.5L19.45,7.5L19.45,7.021428571428571L20.09285714285714,7.021428571428571L20.09285714285714,6.807142857142857L20.521428571428572,6.807142857142857L20.521428571428572,6.378571428571428L20.95,6.378571428571428L20.95,6L21.05,6L21.05,6.478571428571428L20.621428571428574,6.478571428571428L20.621428571428574,6.907142857142857L20.192857142857143,6.907142857142857L20.192857142857143,7.121428571428571L19.55,7.121428571428571z" stroke="none"/><path d="M25.5,11.95L25.5,12.05L24.807142857142857,12.05L24.807142857142857,11.835714285714285L24.378571428571426,11.835714285714285L24.378571428571426,11.407142857142858L24.164285714285715,11.407142857142858L24.164285714285715,10.764285714285716L23.95,10.764285714285716L23.95,10.5L24.05,10.5L24.05,10.664285714285715L24.264285714285716,10.664285714285715L24.264285714285716,11.307142857142857L24.478571428571428,11.307142857142857L24.478571428571428,11.735714285714284L24.90714285714286,11.735714285714284L24.90714285714286,11.95z" stroke="none"/><path d="M7.5,6.05L7.5,5.95L7.664285714285715,5.95L7.664285714285715,4.878571428571429L7.878571428571428,4.878571428571429L7.878571428571428,3.907142857142857L7.664285714285715,3.907142857142857L7.664285714285715,3.478571428571428L7.45,3.478571428571428L7.45,3L7.55,3L7.55,3.3785714285714286L7.764285714285714,3.3785714285714286L7.764285714285714,3.8071428571428574L7.978571428571428,3.8071428571428574L7.978571428571428,4.978571428571429L7.764285714285714,4.978571428571429L7.764285714285714,6.05z" stroke="none"/><path d="M6,4.45L6,4.55L3.6928571428571426,4.55L3.6928571428571426,4.978571428571429L3.478571428571428,4.978571428571429L3.478571428571428,5.192857142857142L3.2642857142857142,5.192857142857142L3.2642857142857142,5.835714285714285L3.05,5.835714285714285L3.05,6L2.95,6L2.95,5.735714285714286L3.1642857142857146,5.735714285714286L3.1642857142857146,5.0928571428571425L3.3785714285714286,5.0928571428571425L3.3785714285714286,4.878571428571429L3.592857142857143,4.878571428571429L3.592857142857143,4.45z" stroke="none"/><path d="M4.55,6L4.45,6L4.45,5.521428571428571L4.878571428571429,5.521428571428571L4.878571428571429,5.307142857142857L5.0928571428571425,5.307142857142857L5.0928571428571425,5.0928571428571425L5.521428571428571,5.0928571428571425L5.521428571428571,4.878571428571429L6.378571428571428,4.878571428571429L6.378571428571428,3.478571428571428L6.164285714285715,3.478571428571428L6.164285714285715,3.2642857142857142L5.95,3.2642857142857142L5.95,3L6.05,3L6.05,3.1642857142857146L6.264285714285714,3.1642857142857146L6.264285714285714,3.3785714285714286L6.478571428571428,3.3785714285714286L6.478571428571428,4.978571428571429L5.621428571428571,4.978571428571429L5.621428571428571,5.192857142857142L5.192857142857142,5.192857142857142L5.192857142857142,5.407142857142857L4.978571428571429,5.407142857142857L4.978571428571429,5.621428571428571L4.55,5.621428571428571z" stroke="none"/><path d="M26.95,6L27.05,6L27.05,7.121428571428571L26.62142857142857,7.121428571428571L26.62142857142857,7.764285714285714L26.40714285714286,7.764285714285714L26.40714285714286,7.978571428571428L24.90714285714286,7.978571428571428L24.90714285714286,8.835714285714285L24.264285714285716,8.835714285714285L24.264285714285716,9.05L24,9.05L24,8.95L24.164285714285715,8.95L24.164285714285715,8.735714285714284L24.807142857142857,8.735714285714284L24.807142857142857,7.878571428571428L26.307142857142857,7.878571428571428L26.307142857142857,7.664285714285715L26.52142857142857,7.664285714285715L26.52142857142857,7.021428571428571L26.95,7.021428571428571z" stroke="none"/><path d="M26.95,3L27.05,3L27.05,4.55L26.835714285714285,4.55L26.835714285714285,4.978571428571429L26.40714285714286,4.978571428571429L26.40714285714286,5.192857142857142L26.192857142857143,5.192857142857142L26.192857142857143,5.407142857142857L25.12142857142857,5.407142857142857L25.12142857142857,5.621428571428571L24.05,5.621428571428571L24.05,6L23.95,6L23.95,5.521428571428571L25.02142857142857,5.521428571428571L25.02142857142857,5.307142857142857L26.09285714285714,5.307142857142857L26.09285714285714,5.0928571428571425L26.307142857142857,5.0928571428571425L26.307142857142857,4.878571428571429L26.735714285714284,4.878571428571429L26.735714285714284,4.45L26.95,4.45z" stroke="none"/><path d="M3.05,7.5L2.95,7.5L2.95,6.907142857142857L2.521428571428572,6.907142857142857L2.521428571428572,3.1642857142857146L2.95,3.1642857142857146L2.95,3L3.05,3L3.05,3.2642857142857142L2.6214285714285714,3.2642857142857142L2.6214285714285714,6.807142857142857L3.05,6.807142857142857z" stroke="none"/><path d="M7.45,4.5L7.55,4.5L7.55,5.192857142857142L7.121428571428571,5.192857142857142L7.121428571428571,6.378571428571428L10.878571428571426,6.378571428571428L10.878571428571426,6.164285714285715L11.092857142857142,6.164285714285715L11.092857142857142,5.95L12,5.95L12,6.05L11.192857142857143,6.05L11.192857142857143,6.264285714285714L10.978571428571428,6.264285714285714L10.978571428571428,6.478571428571428L7.021428571428571,6.478571428571428L7.021428571428571,5.0928571428571425L7.45,5.0928571428571425z" stroke="none"/><path d="M25.5,2.95L25.5,3.05L24.692857142857143,3.05L24.692857142857143,3.2642857142857142L24.478571428571428,3.2642857142857142L24.478571428571428,5.407142857142857L23.835714285714285,5.407142857142857L23.835714285714285,5.621428571428571L23.62142857142857,5.621428571428571L23.62142857142857,7.45L24,7.45L24,7.55L23.52142857142857,7.55L23.52142857142857,5.521428571428571L23.735714285714284,5.521428571428571L23.735714285714284,5.307142857142857L24.378571428571426,5.307142857142857L24.378571428571426,3.1642857142857146L24.59285714285714,3.1642857142857146L24.59285714285714,2.95z" stroke="none"/><path d="M18,3.05L18,2.95L18.264285714285716,2.95L18.264285714285716,3.1642857142857146L19.121428571428574,3.1642857142857146L19.121428571428574,3.3785714285714286L22.121428571428574,3.3785714285714286L22.121428571428574,3.8071428571428574L22.335714285714285,3.8071428571428574L22.335714285714285,4.021428571428571L22.978571428571428,4.021428571428571L22.978571428571428,4.978571428571429L19.55,4.978571428571429L19.55,5.192857142857142L18.90714285714286,5.192857142857142L18.90714285714286,5.407142857142857L18.692857142857143,5.407142857142857L18.692857142857143,6.05L18.264285714285716,6.05L18.264285714285716,6.264285714285714L18.05,6.264285714285714L18.05,6.692857142857142L17.835714285714285,6.692857142857142L17.835714285714285,7.121428571428571L17.40714285714286,7.121428571428571L17.40714285714286,7.335714285714285L17.192857142857143,7.335714285714285L17.192857142857143,7.55L16.5,7.55L16.5,7.45L17.09285714285714,7.45L17.09285714285714,7.235714285714286L17.307142857142857,7.235714285714286L17.307142857142857,7.021428571428571L17.735714285714284,7.021428571428571L17.735714285714284,6.5928571428571425L17.95,6.5928571428571425L17.95,6.164285714285715L18.164285714285715,6.164285714285715L18.164285714285715,5.95L18.59285714285714,5.95L18.59285714285714,5.307142857142857L18.807142857142857,5.307142857142857L18.807142857142857,5.0928571428571425L19.45,5.0928571428571425L19.45,4.878571428571429L22.878571428571426,4.878571428571429L22.878571428571426,4.121428571428571L22.235714285714284,4.121428571428571L22.235714285714284,3.907142857142857L22.021428571428572,3.907142857142857L22.021428571428572,3.478571428571428L19.021428571428572,3.478571428571428L19.021428571428572,3.2642857142857142L18.164285714285715,3.2642857142857142L18.164285714285715,3.05z" stroke="none"/><path d="M6,9.05L6,8.95L6.692857142857142,8.95L6.692857142857142,9.164285714285715L7.121428571428571,9.164285714285715L7.121428571428571,9.378571428571426L8.95,9.378571428571426L8.95,9.164285714285715L9.164285714285715,9.164285714285715L9.164285714285715,8.735714285714284L9.378571428571426,8.735714285714284L9.378571428571426,8.521428571428569L9.807142857142857,8.521428571428569L9.807142857142857,8.307142857142857L11.835714285714285,8.307142857142857L11.835714285714285,8.735714285714284L12.05,8.735714285714284L12.05,9L11.95,9L11.95,8.835714285714285L11.735714285714284,8.835714285714285L11.735714285714284,8.407142857142858L9.907142857142858,8.407142857142858L9.907142857142858,8.62142857142857L9.478571428571428,8.62142857142857L9.478571428571428,8.835714285714285L9.264285714285716,8.835714285714285L9.264285714285716,9.264285714285716L9.05,9.264285714285716L9.05,9.478571428571428L7.021428571428571,9.478571428571428L7.021428571428571,9.264285714285716L6.5928571428571425,9.264285714285716L6.5928571428571425,9.05z" stroke="none"/><path d="M24,2.95L24,3.05L19.878571428571426,3.05L19.878571428571426,2.6214285714285714L7.121428571428571,2.6214285714285714L7.121428571428571,4.764285714285714L6.907142857142857,4.764285714285714L6.907142857142857,6.5928571428571425L16.878571428571426,6.5928571428571425L16.878571428571426,5.521428571428571L17.307142857142857,5.521428571428571L17.307142857142857,5.307142857142857L17.521428571428572,5.307142857142857L17.521428571428572,4.878571428571429L17.735714285714284,4.878571428571429L17.735714285714284,4.45L18,4.45L18,4.55L17.835714285714285,4.55L17.835714285714285,4.978571428571429L17.621428571428574,4.978571428571429L17.621428571428574,5.407142857142857L17.40714285714286,5.407142857142857L17.40714285714286,5.621428571428571L16.978571428571428,5.621428571428571L16.978571428571428,6.692857142857142L6.807142857142857,6.692857142857142L6.807142857142857,4.664285714285715L7.021428571428571,4.664285714285715L7.021428571428571,2.521428571428572L19.978571428571428,2.521428571428572L19.978571428571428,2.95z" stroke="none"/><path d="M26.95,10.5L27.05,10.5L27.05,11.307142857142857L27.264285714285716,11.307142857142857L27.264285714285716,11.521428571428569L27.478571428571428,11.521428571428569L27.478571428571428,12.478571428571428L22.021428571428572,12.478571428571428L22.021428571428572,12.264285714285716L21.807142857142857,12.264285714285716L21.807142857142857,12.05L21,12.05L21,11.95L21.90714285714286,11.95L21.90714285714286,12.164285714285715L22.121428571428574,12.164285714285715L22.121428571428574,12.378571428571426L27.378571428571426,12.378571428571426L27.378571428571426,11.62142857142857L27.164285714285715,11.62142857142857L27.164285714285715,11.407142857142858L26.95,11.407142857142858z" stroke="none"/><path d="M19.5,3.05L19.5,2.95L19.764285714285716,2.95L19.764285714285716,3.1642857142857146L22.764285714285716,3.1642857142857146L22.764285714285716,3.592857142857143L22.978571428571428,3.592857142857143L22.978571428571428,3.8071428571428574L23.192857142857143,3.8071428571428574L23.192857142857143,7.235714285714286L23.40714285714286,7.235714285714286L23.40714285714286,7.664285714285715L23.62142857142857,7.664285714285715L23.62142857142857,7.878571428571428L24.59285714285714,7.878571428571428L24.59285714285714,7.664285714285715L24.807142857142857,7.664285714285715L24.807142857142857,7.45L25.5,7.45L25.5,7.55L24.90714285714286,7.55L24.90714285714286,7.764285714285714L24.692857142857143,7.764285714285714L24.692857142857143,7.978571428571428L23.52142857142857,7.978571428571428L23.52142857142857,7.764285714285714L23.307142857142857,7.764285714285714L23.307142857142857,7.335714285714285L23.09285714285714,7.335714285714285L23.09285714285714,3.907142857142857L22.878571428571426,3.907142857142857L22.878571428571426,3.6928571428571426L22.664285714285715,3.6928571428571426L22.664285714285715,3.2642857142857142L19.664285714285715,3.2642857142857142L19.664285714285715,3.05z" stroke="none"/><path d="M10.5,11.95L10.5,12.05L9.478571428571428,12.05L9.478571428571428,12.478571428571428L4.021428571428571,12.478571428571428L4.021428571428571,11.407142857142858L3.592857142857143,11.407142857142858L3.592857142857143,11.192857142857143L3.3785714285714286,11.192857142857143L3.3785714285714286,10.978571428571428L2.95,10.978571428571428L2.95,10.5L3.05,10.5L3.05,10.878571428571426L3.478571428571428,10.878571428571426L3.478571428571428,11.092857142857142L3.6928571428571426,11.092857142857142L3.6928571428571426,11.307142857142857L4.121428571428571,11.307142857142857L4.121428571428571,12.378571428571426L9.378571428571426,12.378571428571426L9.378571428571426,11.95z" stroke="none"/><path d="M26.95,7.5L27.05,7.5L27.05,8.521428571428569L27.478571428571428,8.521428571428569L27.478571428571428,10.878571428571426L27.692857142857143,10.878571428571426L27.692857142857143,12.692857142857143L20.735714285714284,12.692857142857143L20.735714285714284,12.478571428571428L20.521428571428572,12.478571428571428L20.521428571428572,10.764285714285716L19.45,10.764285714285716L19.45,10.5L19.55,10.5L19.55,10.664285714285715L20.621428571428574,10.664285714285715L20.621428571428574,12.378571428571426L20.835714285714285,12.378571428571426L20.835714285714285,12.592857142857142L27.59285714285714,12.592857142857142L27.59285714285714,10.978571428571428L27.378571428571426,10.978571428571428L27.378571428571426,8.62142857142857L26.95,8.62142857142857z" stroke="none"/><path d="M4.55,10.5L4.45,10.5L4.45,9.164285714285715L4.664285714285715,9.164285714285715L4.664285714285715,8.735714285714284L5.521428571428571,8.735714285714284L5.521428571428571,8.521428571428569L6.378571428571428,8.521428571428569L6.378571428571428,8.307142857142857L7.664285714285715,8.307142857142857L7.664285714285715,8.092857142857142L7.878571428571428,8.092857142857142L7.878571428571428,7.878571428571428L8.092857142857142,7.878571428571428L8.092857142857142,7.664285714285715L11.735714285714284,7.664285714285715L11.735714285714284,7.45L12,7.45L12,7.55L11.835714285714285,7.55L11.835714285714285,7.764285714285714L8.192857142857143,7.764285714285714L8.192857142857143,7.978571428571428L7.978571428571428,7.978571428571428L7.978571428571428,8.192857142857143L7.764285714285714,8.192857142857143L7.764285714285714,8.407142857142858L6.478571428571428,8.407142857142858L6.478571428571428,8.62142857142857L5.621428571428571,8.62142857142857L5.621428571428571,8.835714285714285L4.764285714285714,8.835714285714285L4.764285714285714,9.264285714285716L4.55,9.264285714285716z" stroke="none"/><path d="M25.5,4.55L25.5,4.45L25.664285714285715,4.45L25.664285714285715,4.235714285714286L25.878571428571426,4.235714285714286L25.878571428571426,3.1642857142857146L26.09285714285714,3.1642857142857146L26.09285714285714,2.95L26.307142857142857,2.95L26.307142857142857,2.7357142857142858L26.52142857142857,2.7357142857142858L26.52142857142857,2.521428571428572L27.478571428571428,2.521428571428572L27.478571428571428,8.307142857142857L27.692857142857143,8.307142857142857L27.692857142857143,9.807142857142857L27.90714285714286,9.807142857142857L27.90714285714286,12.907142857142858L20.521428571428572,12.907142857142858L20.521428571428572,12.692857142857143L20.09285714285714,12.692857142857143L20.09285714285714,10.978571428571428L19.021428571428572,10.978571428571428L19.021428571428572,10.55L18.807142857142857,10.55L18.807142857142857,9.907142857142858L18.59285714285714,9.907142857142858L18.59285714285714,9.692857142857143L18.164285714285715,9.692857142857143L18.164285714285715,9.264285714285716L17.95,9.264285714285716L17.95,9L18.05,9L18.05,9.164285714285715L18.264285714285716,9.164285714285715L18.264285714285716,9.592857142857142L18.692857142857143,9.592857142857142L18.692857142857143,9.807142857142857L18.90714285714286,9.807142857142857L18.90714285714286,10.45L19.121428571428574,10.45L19.121428571428574,10.878571428571426L20.192857142857143,10.878571428571426L20.192857142857143,12.592857142857142L20.621428571428574,12.592857142857142L20.621428571428574,12.807142857142857L27.807142857142857,12.807142857142857L27.807142857142857,9.907142857142858L27.59285714285714,9.907142857142858L27.59285714285714,8.407142857142858L27.378571428571426,8.407142857142858L27.378571428571426,2.6214285714285714L26.62142857142857,2.6214285714285714L26.62142857142857,2.8357142857142854L26.40714285714286,2.8357142857142854L26.40714285714286,3.05L26.192857142857143,3.05L26.192857142857143,3.2642857142857142L25.978571428571428,3.2642857142857142L25.978571428571428,4.335714285714285L25.764285714285716,4.335714285714285L25.764285714285716,4.55z" stroke="none"/><path d="M12,10.45L12,10.55L11.62142857142857,10.55L11.62142857142857,12.378571428571426L14.95,12.378571428571426L14.95,12.164285714285715L15.378571428571426,12.164285714285715L15.378571428571426,11.95L15.592857142857142,11.95L15.592857142857142,11.735714285714284L16.664285714285715,11.735714285714284L16.664285714285715,11.521428571428569L16.878571428571426,11.521428571428569L16.878571428571426,10.021428571428569L17.09285714285714,10.021428571428569L17.09285714285714,8.95L17.307142857142857,8.95L17.307142857142857,8.735714285714284L17.521428571428572,8.735714285714284L17.521428571428572,8.521428571428569L19.45,8.521428571428569L19.45,7.878571428571428L20.09285714285714,7.878571428571428L20.09285714285714,7.664285714285715L20.307142857142857,7.664285714285715L20.307142857142857,7.021428571428571L22.021428571428572,7.021428571428571L22.021428571428572,6.807142857142857L22.235714285714284,6.807142857142857L22.235714285714284,5.95L22.5,5.95L22.5,6.05L22.335714285714285,6.05L22.335714285714285,6.907142857142857L22.121428571428574,6.907142857142857L22.121428571428574,7.121428571428571L20.40714285714286,7.121428571428571L20.40714285714286,7.764285714285714L20.192857142857143,7.764285714285714L20.192857142857143,7.978571428571428L19.55,7.978571428571428L19.55,8.62142857142857L17.621428571428574,8.62142857142857L17.621428571428574,8.835714285714285L17.40714285714286,8.835714285714285L17.40714285714286,9.05L17.192857142857143,9.05L17.192857142857143,10.12142857142857L16.978571428571428,10.12142857142857L16.978571428571428,11.62142857142857L16.764285714285716,11.62142857142857L16.764285714285716,11.835714285714285L15.692857142857143,11.835714285714285L15.692857142857143,12.05L15.478571428571428,12.05L15.478571428571428,12.264285714285716L15.05,12.264285714285716L15.05,12.478571428571428L11.521428571428569,12.478571428571428L11.521428571428569,10.45z" stroke="none"/></svg>