<svg version="1.1" width="30" height="15" xmlns="http://www.w3.org/2000/svg"><path d="M6.264285714285714,7.235714285714286L6.264285714285714,7.45L6.478571428571428,7.45L6.478571428571428,7.664285714285715L6.907142857142857,7.664285714285715L6.907142857142857,8.521428571428569L7.121428571428571,8.521428571428569L7.121428571428571,8.735714285714284L7.335714285714285,8.735714285714284L7.335714285714285,8.95L7.5,8.95L7.5,9.05L7.235714285714286,9.05L7.235714285714286,8.835714285714285L7.021428571428571,8.835714285714285L7.021428571428571,8.62142857142857L6.807142857142857,8.62142857142857L6.807142857142857,7.764285714285714L6.378571428571428,7.764285714285714L6.378571428571428,7.55L6.164285714285715,7.55L6.164285714285715,7.335714285714285L5.192857142857142,7.335714285714285L5.192857142857142,8.307142857142857L5.835714285714285,8.307142857142857L5.835714285714285,8.521428571428569L6.05,8.521428571428569L6.05,8.735714285714284L6.264285714285714,8.735714285714284L6.264285714285714,8.95L6.478571428571428,8.95L6.478571428571428,9.164285714285715L6.907142857142857,9.164285714285715L6.907142857142857,9.378571428571426L7.121428571428571,9.378571428571426L7.121428571428571,9.592857142857142L7.764285714285714,9.592857142857142L7.764285714285714,10.021428571428569L7.978571428571428,10.021428571428569L7.978571428571428,10.878571428571426L8.192857142857143,10.878571428571426L8.192857142857143,11.307142857142857L8.62142857142857,11.307142857142857L8.62142857142857,11.735714285714284L8.835714285714285,11.735714285714284L8.835714285714285,11.95L9,11.95L9,12.05L8.735714285714284,12.05L8.735714285714284,11.835714285714285L8.521428571428569,11.835714285714285L8.521428571428569,11.407142857142858L8.092857142857142,11.407142857142858L8.092857142857142,10.978571428571428L7.878571428571428,10.978571428571428L7.878571428571428,10.12142857142857L7.664285714285715,10.12142857142857L7.664285714285715,9.692857142857143L7.021428571428571,9.692857142857143L7.021428571428571,9.478571428571428L6.807142857142857,9.478571428571428L6.807142857142857,9.264285714285716L6.378571428571428,9.264285714285716L6.378571428571428,9.05L6.164285714285715,9.05L6.164285714285715,8.835714285714285L5.95,8.835714285714285L5.95,8.62142857142857L5.735714285714286,8.62142857142857L5.735714285714286,8.407142857142858L5.0928571428571425,8.407142857142858L5.0928571428571425,7.335714285714285L4.55,7.335714285714285L4.55,7.5L4.45,7.5L4.45,7.235714285714286z" stroke="none"/><path d="M12.807142857142857,4.235714285714286L12.807142857142857,4.021428571428571L15.692857142857143,4.021428571428571L15.692857142857143,4.45L16.5,4.45L16.5,4.55L15.592857142857142,4.55L15.592857142857142,4.121428571428571L12.907142857142858,4.121428571428571L12.907142857142858,4.335714285714285L12.264285714285716,4.335714285714285L12.264285714285716,4.664285714285715L12.692857142857143,4.664285714285715L12.692857142857143,4.878571428571429L12.907142857142858,4.878571428571429L12.907142857142858,5.307142857142857L13.12142857142857,5.307142857142857L13.12142857142857,5.521428571428571L13.55,5.521428571428571L13.55,6L13.45,6L13.45,5.621428571428571L13.021428571428569,5.621428571428571L13.021428571428569,5.407142857142857L12.807142857142857,5.407142857142857L12.807142857142857,4.978571428571429L12.592857142857142,4.978571428571429L12.592857142857142,4.764285714285714L12.164285714285715,4.764285714285714L12.164285714285715,4.335714285714285L12.05,4.335714285714285L12.05,8.092857142857142L12.478571428571428,8.092857142857142L12.478571428571428,8.307142857142857L13.12142857142857,8.307142857142857L13.12142857142857,8.735714285714284L13.335714285714285,8.735714285714284L13.335714285714285,8.95L13.5,8.95L13.5,9.05L13.235714285714284,9.05L13.235714285714284,8.835714285714285L13.021428571428569,8.835714285714285L13.021428571428569,8.407142857142858L12.378571428571426,8.407142857142858L12.378571428571426,8.192857142857143L11.95,8.192857142857143L11.95,4.235714285714286z" stroke="none"/><path d="M11.735714285714284,5.307142857142857L11.735714285714284,4.021428571428571L12.592857142857142,4.021428571428571L12.592857142857142,3.8071428571428574L16.978571428571428,3.8071428571428574L16.978571428571428,6.5928571428571425L17.40714285714286,6.5928571428571425L17.40714285714286,6.807142857142857L17.835714285714285,6.807142857142857L17.835714285714285,7.021428571428571L18.05,7.021428571428571L18.05,7.5L17.95,7.5L17.95,7.121428571428571L17.735714285714284,7.121428571428571L17.735714285714284,6.907142857142857L17.307142857142857,6.907142857142857L17.307142857142857,6.692857142857142L16.878571428571426,6.692857142857142L16.878571428571426,3.907142857142857L12.692857142857143,3.907142857142857L12.692857142857143,4.121428571428571L11.835714285714285,4.121428571428571L11.835714285714285,8.307142857142857L12.264285714285716,8.307142857142857L12.264285714285716,8.521428571428569L12.907142857142858,8.521428571428569L12.907142857142858,8.95L13.12142857142857,8.95L13.12142857142857,9.378571428571426L15.164285714285715,9.378571428571426L15.164285714285715,8.735714285714284L15.378571428571426,8.735714285714284L15.378571428571426,8.521428571428569L15.592857142857142,8.521428571428569L15.592857142857142,8.307142857142857L15.807142857142857,8.307142857142857L15.807142857142857,8.092857142857142L16.02142857142857,8.092857142857142L16.02142857142857,7.878571428571428L16.45,7.878571428571428L16.45,7.5L16.55,7.5L16.55,7.978571428571428L16.12142857142857,7.978571428571428L16.12142857142857,8.192857142857143L15.907142857142858,8.192857142857143L15.907142857142858,8.407142857142858L15.692857142857143,8.407142857142858L15.692857142857143,8.62142857142857L15.478571428571428,8.62142857142857L15.478571428571428,8.835714285714285L15.264285714285716,8.835714285714285L15.264285714285716,9.478571428571428L13.021428571428569,9.478571428571428L13.021428571428569,9.05L12.807142857142857,9.05L12.807142857142857,8.62142857142857L12.164285714285715,8.62142857142857L12.164285714285715,8.407142857142858L11.735714285714284,8.407142857142858L11.735714285714284,5.407142857142857L11.62142857142857,5.407142857142857L11.62142857142857,5.621428571428571L10.335714285714285,5.621428571428571L10.335714285714285,5.835714285714285L9.478571428571428,5.835714285714285L9.478571428571428,6.478571428571428L8.835714285714285,6.478571428571428L8.835714285714285,6.692857142857142L8.192857142857143,6.692857142857142L8.192857142857143,6.907142857142857L7.978571428571428,6.907142857142857L7.978571428571428,7.121428571428571L7.764285714285714,7.121428571428571L7.764285714285714,7.55L7.5,7.55L7.5,7.45L7.664285714285715,7.45L7.664285714285715,7.021428571428571L7.878571428571428,7.021428571428571L7.878571428571428,6.807142857142857L8.092857142857142,6.807142857142857L8.092857142857142,6.5928571428571425L8.735714285714284,6.5928571428571425L8.735714285714284,6.378571428571428L9.378571428571426,6.378571428571428L9.378571428571426,5.735714285714286L10.235714285714284,5.735714285714286L10.235714285714284,5.521428571428571L11.521428571428569,5.521428571428571L11.521428571428569,5.307142857142857z" stroke="none"/><path d="M16.02142857142857,2.3071428571428574L16.02142857142857,2.092857142857143L16.764285714285716,2.092857142857143L16.764285714285716,2.3071428571428574L16.978571428571428,2.3071428571428574L16.978571428571428,2.95L17.40714285714286,2.95L17.40714285714286,3.1642857142857146L17.621428571428574,3.1642857142857146L17.621428571428574,3.592857142857143L17.835714285714285,3.592857142857143L17.835714285714285,3.8071428571428574L18.478571428571428,3.8071428571428574L18.478571428571428,4.235714285714286L19.55,4.235714285714286L19.55,4.5L19.45,4.5L19.45,4.335714285714285L18.378571428571426,4.335714285714285L18.378571428571426,3.907142857142857L17.735714285714284,3.907142857142857L17.735714285714284,3.6928571428571426L17.521428571428572,3.6928571428571426L17.521428571428572,3.2642857142857142L17.307142857142857,3.2642857142857142L17.307142857142857,3.05L16.878571428571426,3.05L16.878571428571426,2.407142857142857L16.664285714285715,2.407142857142857L16.664285714285715,2.1928571428571426L16.12142857142857,2.1928571428571426L16.12142857142857,2.3071428571428574L16.55,2.3071428571428574L16.55,2.7357142857142858L16.764285714285716,2.7357142857142858L16.764285714285716,3.592857142857143L17.192857142857143,3.592857142857143L17.192857142857143,4.235714285714286L17.621428571428574,4.235714285714286L17.621428571428574,4.45L18,4.45L18,4.55L17.521428571428572,4.55L17.521428571428572,4.335714285714285L17.09285714285714,4.335714285714285L17.09285714285714,3.6928571428571426L16.664285714285715,3.6928571428571426L16.664285714285715,2.8357142857142854L16.45,2.8357142857142854L16.45,2.407142857142857L16.12142857142857,2.407142857142857L16.12142857142857,2.521428571428572L16.335714285714285,2.521428571428572L16.335714285714285,2.95L16.5,2.95L16.5,3.05L16.235714285714284,3.05L16.235714285714284,2.6214285714285714L16.02142857142857,2.6214285714285714L16.02142857142857,2.407142857142857L15.807142857142857,2.407142857142857L15.807142857142857,1.8785714285714286L16.978571428571428,1.8785714285714286L16.978571428571428,2.092857142857143L17.192857142857143,2.092857142857143L17.192857142857143,2.3071428571428574L17.40714285714286,2.3071428571428574L17.40714285714286,2.521428571428572L17.835714285714285,2.521428571428572L17.835714285714285,2.95L18.05,2.95L18.05,3.1642857142857146L18.692857142857143,3.1642857142857146L18.692857142857143,3.3785714285714286L18.90714285714286,3.3785714285714286L18.90714285714286,3.592857142857143L19.335714285714285,3.592857142857143L19.335714285714285,3.8071428571428574L19.764285714285716,3.8071428571428574L19.764285714285716,6.478571428571428L19.55,6.478571428571428L19.55,7.5L19.45,7.5L19.45,6.378571428571428L19.664285714285715,6.378571428571428L19.664285714285715,3.907142857142857L19.235714285714284,3.907142857142857L19.235714285714284,3.6928571428571426L18.807142857142857,3.6928571428571426L18.807142857142857,3.478571428571428L18.59285714285714,3.478571428571428L18.59285714285714,3.2642857142857142L17.95,3.2642857142857142L17.95,3.05L17.735714285714284,3.05L17.735714285714284,2.6214285714285714L17.307142857142857,2.6214285714285714L17.307142857142857,2.407142857142857L17.09285714285714,2.407142857142857L17.09285714285714,2.1928571428571426L16.878571428571426,2.1928571428571426L16.878571428571426,1.9785714285714286L15.907142857142858,1.9785714285714286L15.907142857142858,2.3071428571428574z" stroke="none"/><path d="M20.521428571428572,6.807142857142857L20.521428571428572,6.5928571428571425L25.978571428571428,6.5928571428571425L25.978571428571428,7.021428571428571L26.192857142857143,7.021428571428571L26.192857142857143,7.235714285714286L26.835714285714285,7.235714285714286L26.835714285714285,7.45L27.05,7.45L27.05,7.878571428571428L27.264285714285716,7.878571428571428L27.264285714285716,10.978571428571428L27.05,10.978571428571428L27.05,11.192857142857143L26.40714285714286,11.192857142857143L26.40714285714286,11.407142857142858L26.192857142857143,11.407142857142858L26.192857142857143,11.835714285714285L25.764285714285716,11.835714285714285L25.764285714285716,12.05L25.5,12.05L25.5,11.95L25.664285714285715,11.95L25.664285714285715,11.735714285714284L26.09285714285714,11.735714285714284L26.09285714285714,11.307142857142857L26.307142857142857,11.307142857142857L26.307142857142857,11.092857142857142L26.95,11.092857142857142L26.95,10.878571428571426L27.164285714285715,10.878571428571426L27.164285714285715,7.978571428571428L26.95,7.978571428571428L26.95,7.55L26.735714285714284,7.55L26.735714285714284,7.335714285714285L26.09285714285714,7.335714285714285L26.09285714285714,7.121428571428571L25.878571428571426,7.121428571428571L25.878571428571426,6.692857142857142L20.621428571428574,6.692857142857142L20.621428571428574,6.807142857142857L25.12142857142857,6.807142857142857L25.12142857142857,7.021428571428571L25.335714285714285,7.021428571428571L25.335714285714285,7.235714285714286L25.55,7.235714285714286L25.55,7.45L25.764285714285716,7.45L25.764285714285716,7.878571428571428L26.835714285714285,7.878571428571428L26.835714285714285,8.307142857142857L27.05,8.307142857142857L27.05,9L26.95,9L26.95,8.407142857142858L26.735714285714284,8.407142857142858L26.735714285714284,7.978571428571428L25.664285714285715,7.978571428571428L25.664285714285715,7.55L25.45,7.55L25.45,7.335714285714285L25.235714285714284,7.335714285714285L25.235714285714284,7.121428571428571L25.02142857142857,7.121428571428571L25.02142857142857,6.907142857142857L20.621428571428574,6.907142857142857L20.621428571428574,7.021428571428571L20.835714285714285,7.021428571428571L20.835714285714285,7.45L21,7.45L21,7.55L20.735714285714284,7.55L20.735714285714284,7.121428571428571L20.521428571428572,7.121428571428571L20.521428571428572,6.907142857142857L20.40714285714286,6.907142857142857L20.40714285714286,7.978571428571428L19.55,7.978571428571428L19.55,8.192857142857143L18.90714285714286,8.192857142857143L18.90714285714286,8.407142857142858L18.478571428571428,8.407142857142858L18.478571428571428,8.62142857142857L18.05,8.62142857142857L18.05,9L17.95,9L17.95,8.521428571428569L18.378571428571426,8.521428571428569L18.378571428571426,8.307142857142857L18.807142857142857,8.307142857142857L18.807142857142857,8.092857142857142L19.45,8.092857142857142L19.45,7.878571428571428L20.307142857142857,7.878571428571428L20.307142857142857,6.807142857142857z" stroke="none"/><path d="M3.8071428571428574,5.95L3.8071428571428574,5.735714285714286L4.021428571428571,5.735714285714286L4.021428571428571,5.521428571428571L8.62142857142857,5.521428571428571L8.62142857142857,5.95L9,5.95L9,6.05L8.521428571428569,6.05L8.521428571428569,5.621428571428571L4.121428571428571,5.621428571428571L4.121428571428571,5.835714285714285L3.907142857142857,5.835714285714285L3.907142857142857,5.95L4.121428571428571,5.95L4.121428571428571,9.907142857142858L3.6928571428571426,9.907142857142858L3.6928571428571426,10.12142857142857L3.478571428571428,10.12142857142857L3.478571428571428,10.55L3,10.55L3,10.45L3.3785714285714286,10.45L3.3785714285714286,10.021428571428569L3.592857142857143,10.021428571428569L3.592857142857143,9.807142857142857L4.021428571428571,9.807142857142857L4.021428571428571,6.05L3.907142857142857,6.05L3.907142857142857,7.335714285714285L3.478571428571428,7.335714285714285L3.478571428571428,7.55L3,7.55L3,7.45L3.3785714285714286,7.45L3.3785714285714286,7.235714285714286L3.8071428571428574,7.235714285714286L3.8071428571428574,6.05L3.592857142857143,6.05L3.592857142857143,5.521428571428571L3.8071428571428574,5.521428571428571L3.8071428571428574,5.307142857142857L8.835714285714285,5.307142857142857L8.835714285714285,5.521428571428571L9.05,5.521428571428571L9.05,5.735714285714286L9.264285714285716,5.735714285714286L9.264285714285716,6.264285714285714L7.55,6.264285714285714L7.55,7.121428571428571L7.121428571428571,7.121428571428571L7.121428571428571,7.878571428571428L8.192857142857143,7.878571428571428L8.192857142857143,8.092857142857142L8.62142857142857,8.092857142857142L8.62142857142857,8.307142857142857L9.05,8.307142857142857L9.05,9L8.95,9L8.95,8.407142857142858L8.521428571428569,8.407142857142858L8.521428571428569,8.192857142857143L8.092857142857142,8.192857142857143L8.092857142857142,7.978571428571428L7.021428571428571,7.978571428571428L7.021428571428571,7.021428571428571L7.45,7.021428571428571L7.45,6.164285714285715L9.164285714285715,6.164285714285715L9.164285714285715,5.835714285714285L8.95,5.835714285714285L8.95,5.621428571428571L8.735714285714284,5.621428571428571L8.735714285714284,5.407142857142857L3.907142857142857,5.407142857142857L3.907142857142857,5.621428571428571L3.6928571428571426,5.621428571428571L3.6928571428571426,5.95z" stroke="none"/><path d="M4.5,11.95L4.5,12.05L3,12.05L3,11.95z" stroke="none"/><path d="M19.5,12.05L19.5,11.95L21,11.95L21,12.05z" stroke="none"/><path d="M16.5,10.55L16.5,10.45L18,10.45L18,10.55z" stroke="none"/><path d="M6,5.95L6,6.05L4.5,6.05L4.5,5.95z" stroke="none"/><path d="M6,10.55L6,10.45L7.5,10.45L7.5,10.55z" stroke="none"/><path d="M10.55,9L10.45,9L10.45,7.5L10.55,7.5z" stroke="none"/><path d="M19.5,3.05L19.5,2.95L21,2.95L21,3.05z" stroke="none"/><path d="M4.5,4.45L4.5,4.55L3.907142857142857,4.55L3.907142857142857,4.764285714285714L3.6928571428571426,4.764285714285714L3.6928571428571426,5.407142857142857L3.478571428571428,5.407142857142857L3.478571428571428,5.835714285714285L3.05,5.835714285714285L3.05,6L2.95,6L2.95,5.735714285714286L3.3785714285714286,5.735714285714286L3.3785714285714286,5.307142857142857L3.592857142857143,5.307142857142857L3.592857142857143,4.664285714285715L3.8071428571428574,4.664285714285715L3.8071428571428574,4.45z" stroke="none"/><path d="M20.95,4.5L21.05,4.5L21.05,4.878571428571429L21.90714285714286,4.878571428571429L21.90714285714286,5.0928571428571425L22.121428571428574,5.0928571428571425L22.121428571428574,5.307142857142857L22.335714285714285,5.307142857142857L22.335714285714285,5.95L22.5,5.95L22.5,6.05L22.235714285714284,6.05L22.235714285714284,5.407142857142857L22.021428571428572,5.407142857142857L22.021428571428572,5.192857142857142L21.807142857142857,5.192857142857142L21.807142857142857,4.978571428571429L20.95,4.978571428571429z" stroke="none"/><path d="M23.95,4.5L24.05,4.5L24.05,5.0928571428571425L24.264285714285716,5.0928571428571425L24.264285714285716,5.307142857142857L24.90714285714286,5.307142857142857L24.90714285714286,5.735714285714286L25.335714285714285,5.735714285714286L25.335714285714285,5.95L25.5,5.95L25.5,6.05L25.235714285714284,6.05L25.235714285714284,5.835714285714285L24.807142857142857,5.835714285714285L24.807142857142857,5.407142857142857L24.164285714285715,5.407142857142857L24.164285714285715,5.192857142857142L23.95,5.192857142857142z" stroke="none"/><path d="M23.95,3L24.05,3L24.05,3.907142857142857L23.192857142857143,3.907142857142857L23.192857142857143,4.121428571428571L22.764285714285716,4.121428571428571L22.764285714285716,4.335714285714285L22.55,4.335714285714285L22.55,4.5L22.45,4.5L22.45,4.235714285714286L22.664285714285715,4.235714285714286L22.664285714285715,4.021428571428571L23.09285714285714,4.021428571428571L23.09285714285714,3.8071428571428574L23.95,3.8071428571428574z" stroke="none"/><path d="M16.45,9L16.55,9L16.55,9.907142857142858L16.335714285714285,9.907142857142858L16.335714285714285,10.12142857142857L16.12142857142857,10.12142857142857L16.12142857142857,11.092857142857142L16.335714285714285,11.092857142857142L16.335714285714285,11.307142857142857L16.55,11.307142857142857L16.55,12L16.45,12L16.45,11.407142857142858L16.235714285714284,11.407142857142858L16.235714285714284,11.192857142857143L16.02142857142857,11.192857142857143L16.02142857142857,10.021428571428569L16.235714285714284,10.021428571428569L16.235714285714284,9.807142857142857L16.45,9.807142857142857z" stroke="none"/><path d="M26.95,6L27.05,6L27.05,7.235714285714286L27.264285714285716,7.235714285714286L27.264285714285716,7.664285714285715L27.478571428571428,7.664285714285715L27.478571428571428,11.192857142857143L27.264285714285716,11.192857142857143L27.264285714285716,11.62142857142857L26.40714285714286,11.62142857142857L26.40714285714286,12.05L25.978571428571428,12.05L25.978571428571428,12.478571428571428L25.02142857142857,12.478571428571428L25.02142857142857,9.05L24.378571428571426,9.05L24.378571428571426,7.55L24,7.55L24,7.45L24.478571428571428,7.45L24.478571428571428,8.95L25.12142857142857,8.95L25.12142857142857,12.378571428571426L25.878571428571426,12.378571428571426L25.878571428571426,11.95L26.307142857142857,11.95L26.307142857142857,11.521428571428569L27.164285714285715,11.521428571428569L27.164285714285715,11.092857142857142L27.378571428571426,11.092857142857142L27.378571428571426,7.764285714285714L27.164285714285715,7.764285714285714L27.164285714285715,7.335714285714285L26.95,7.335714285714285z" stroke="none"/><path d="M25.55,10.5L25.45,10.5L25.45,8.407142857142858L25.235714285714284,8.407142857142858L25.235714285714284,8.192857142857143L25.02142857142857,8.192857142857143L25.02142857142857,7.978571428571428L24.807142857142857,7.978571428571428L24.807142857142857,7.55L24.59285714285714,7.55L24.59285714285714,7.335714285714285L24.378571428571426,7.335714285714285L24.378571428571426,7.121428571428571L23.62142857142857,7.121428571428571L23.62142857142857,9.05L22.5,9.05L22.5,8.95L23.52142857142857,8.95L23.52142857142857,7.021428571428571L24.478571428571428,7.021428571428571L24.478571428571428,7.235714285714286L24.692857142857143,7.235714285714286L24.692857142857143,7.45L24.90714285714286,7.45L24.90714285714286,7.878571428571428L25.12142857142857,7.878571428571428L25.12142857142857,8.092857142857142L25.335714285714285,8.092857142857142L25.335714285714285,8.307142857142857L25.55,8.307142857142857z" stroke="none"/><path d="M25.5,4.45L25.5,4.55L25.235714285714284,4.55L25.235714285714284,3.907142857142857L24.807142857142857,3.907142857142857L24.807142857142857,3.478571428571428L24.59285714285714,3.478571428571428L24.59285714285714,2.6214285714285714L22.764285714285716,2.6214285714285714L22.764285714285716,2.8357142857142854L22.55,2.8357142857142854L22.55,3L22.45,3L22.45,2.7357142857142858L22.664285714285715,2.7357142857142858L22.664285714285715,2.521428571428572L24.692857142857143,2.521428571428572L24.692857142857143,3.3785714285714286L24.90714285714286,3.3785714285714286L24.90714285714286,3.8071428571428574L25.335714285714285,3.8071428571428574L25.335714285714285,4.45z" stroke="none"/><path d="M10.55,10.5L10.45,10.5L10.45,9.692857142857143L10.021428571428569,9.692857142857143L10.021428571428569,8.192857142857143L9.164285714285715,8.192857142857143L9.164285714285715,7.55L9,7.55L9,7.45L9.264285714285716,7.45L9.264285714285716,8.092857142857142L10.12142857142857,8.092857142857142L10.12142857142857,9.592857142857142L10.55,9.592857142857142z" stroke="none"/><path d="M3,3.05L3,2.95L4.55,2.95L4.55,3.1642857142857146L4.764285714285714,3.1642857142857146L4.764285714285714,3.3785714285714286L5.407142857142857,3.3785714285714286L5.407142857142857,3.8071428571428574L5.621428571428571,3.8071428571428574L5.621428571428571,4.021428571428571L6.05,4.021428571428571L6.05,4.5L5.95,4.5L5.95,4.121428571428571L5.521428571428571,4.121428571428571L5.521428571428571,3.907142857142857L5.307142857142857,3.907142857142857L5.307142857142857,3.478571428571428L4.664285714285715,3.478571428571428L4.664285714285715,3.2642857142857142L4.45,3.2642857142857142L4.45,3.05z" stroke="none"/><path d="M22.5,12.05L22.5,11.95L24.05,11.95L24.05,12.164285714285715L24.692857142857143,12.164285714285715L24.692857142857143,12.378571428571426L24.90714285714286,12.378571428571426L24.90714285714286,12.592857142857142L26.735714285714284,12.592857142857142L26.735714285714284,12.164285714285715L26.95,12.164285714285715L26.95,12L27.05,12L27.05,12.264285714285716L26.835714285714285,12.264285714285716L26.835714285714285,12.692857142857143L24.807142857142857,12.692857142857143L24.807142857142857,12.478571428571428L24.59285714285714,12.478571428571428L24.59285714285714,12.264285714285716L23.95,12.264285714285716L23.95,12.05z" stroke="none"/><path d="M19.45,9L19.55,9L19.55,9.907142857142858L19.121428571428574,9.907142857142858L19.121428571428574,10.764285714285716L18.692857142857143,10.764285714285716L18.692857142857143,10.978571428571428L17.621428571428574,10.978571428571428L17.621428571428574,11.192857142857143L17.40714285714286,11.192857142857143L17.40714285714286,11.407142857142858L17.192857142857143,11.407142857142858L17.192857142857143,12.478571428571428L14.95,12.478571428571428L14.95,12L15.05,12L15.05,12.378571428571426L17.09285714285714,12.378571428571426L17.09285714285714,11.307142857142857L17.307142857142857,11.307142857142857L17.307142857142857,11.092857142857142L17.521428571428572,11.092857142857142L17.521428571428572,10.878571428571426L18.59285714285714,10.878571428571426L18.59285714285714,10.664285714285715L19.021428571428572,10.664285714285715L19.021428571428572,9.807142857142857L19.45,9.807142857142857z" stroke="none"/><path d="M7.5,4.45L7.5,4.55L6.478571428571428,4.55L6.478571428571428,4.978571428571429L5.521428571428571,4.978571428571429L5.521428571428571,4.764285714285714L5.307142857142857,4.764285714285714L5.307142857142857,4.335714285714285L4.878571428571429,4.335714285714285L4.878571428571429,4.121428571428571L3.907142857142857,4.121428571428571L3.907142857142857,4.335714285714285L3.6928571428571426,4.335714285714285L3.6928571428571426,4.55L3.478571428571428,4.55L3.478571428571428,5.192857142857142L3.2642857142857142,5.192857142857142L3.2642857142857142,5.407142857142857L3.05,5.407142857142857L3.05,5.621428571428571L2.6214285714285714,5.621428571428571L2.6214285714285714,10.878571428571426L7.764285714285714,10.878571428571426L7.764285714285714,11.307142857142857L7.978571428571428,11.307142857142857L7.978571428571428,11.521428571428569L8.192857142857143,11.521428571428569L8.192857142857143,11.735714285714284L8.407142857142858,11.735714285714284L8.407142857142858,12.378571428571426L12.164285714285715,12.378571428571426L12.164285714285715,11.521428571428569L14.307142857142857,11.521428571428569L14.307142857142857,11.307142857142857L14.521428571428569,11.307142857142857L14.521428571428569,11.092857142857142L14.95,11.092857142857142L14.95,9.807142857142857L15.378571428571426,9.807142857142857L15.378571428571426,8.95L15.807142857142857,8.95L15.807142857142857,8.521428571428569L16.664285714285715,8.521428571428569L16.664285714285715,8.307142857142857L16.878571428571426,8.307142857142857L16.878571428571426,7.121428571428571L15.164285714285715,7.121428571428571L15.164285714285715,6.907142857142857L14.95,6.907142857142857L14.95,6.692857142857142L14.735714285714284,6.692857142857142L14.735714285714284,5.835714285714285L14.307142857142857,5.835714285714285L14.307142857142857,5.192857142857142L14.092857142857142,5.192857142857142L14.092857142857142,4.764285714285714L13.664285714285715,4.764285714285714L13.664285714285715,4.55L13.5,4.55L13.5,4.45L13.764285714285716,4.45L13.764285714285716,4.664285714285715L14.192857142857143,4.664285714285715L14.192857142857143,5.0928571428571425L14.407142857142858,5.0928571428571425L14.407142857142858,5.735714285714286L14.835714285714285,5.735714285714286L14.835714285714285,6.5928571428571425L15.05,6.5928571428571425L15.05,6.807142857142857L15.264285714285716,6.807142857142857L15.264285714285716,7.021428571428571L16.978571428571428,7.021428571428571L16.978571428571428,8.407142857142858L16.764285714285716,8.407142857142858L16.764285714285716,8.62142857142857L15.907142857142858,8.62142857142857L15.907142857142858,9.05L15.478571428571428,9.05L15.478571428571428,9.907142857142858L15.05,9.907142857142858L15.05,11.192857142857143L14.62142857142857,11.192857142857143L14.62142857142857,11.407142857142858L14.407142857142858,11.407142857142858L14.407142857142858,11.62142857142857L12.264285714285716,11.62142857142857L12.264285714285716,12.478571428571428L8.307142857142857,12.478571428571428L8.307142857142857,11.835714285714285L8.092857142857142,11.835714285714285L8.092857142857142,11.62142857142857L7.878571428571428,11.62142857142857L7.878571428571428,11.407142857142858L7.664285714285715,11.407142857142858L7.664285714285715,10.978571428571428L2.521428571428572,10.978571428571428L2.521428571428572,5.521428571428571L2.95,5.521428571428571L2.95,5.307142857142857L3.1642857142857146,5.307142857142857L3.1642857142857146,5.0928571428571425L3.3785714285714286,5.0928571428571425L3.3785714285714286,4.45L3.592857142857143,4.45L3.592857142857143,4.235714285714286L3.8071428571428574,4.235714285714286L3.8071428571428574,4.021428571428571L4.978571428571429,4.021428571428571L4.978571428571429,4.235714285714286L5.407142857142857,4.235714285714286L5.407142857142857,4.664285714285715L5.621428571428571,4.664285714285715L5.621428571428571,4.878571428571429L6.378571428571428,4.878571428571429L6.378571428571428,4.45z" stroke="none"/><path d="M9,2.95L9,3.05L7.664285714285715,3.05L7.664285714285715,2.8357142857142854L6.378571428571428,2.8357142857142854L6.378571428571428,2.6214285714285714L2.6214285714285714,2.6214285714285714L2.6214285714285714,4.021428571428571L3.05,4.021428571428571L3.05,4.5L2.95,4.5L2.95,4.121428571428571L2.521428571428572,4.121428571428571L2.521428571428572,2.521428571428572L6.478571428571428,2.521428571428572L6.478571428571428,2.7357142857142858L7.764285714285714,2.7357142857142858L7.764285714285714,2.95z" stroke="none"/><path d="M26.95,3L27.05,3L27.05,4.764285714285714L26.835714285714285,4.764285714285714L26.835714285714285,5.407142857142857L26.62142857142857,5.407142857142857L26.62142857142857,5.621428571428571L26.40714285714286,5.621428571428571L26.40714285714286,5.835714285714285L26.192857142857143,5.835714285714285L26.192857142857143,6.05L25.978571428571428,6.05L25.978571428571428,6.478571428571428L20.95,6.478571428571428L20.95,6L21.05,6L21.05,6.378571428571428L25.878571428571426,6.378571428571428L25.878571428571426,5.95L26.09285714285714,5.95L26.09285714285714,5.735714285714286L26.307142857142857,5.735714285714286L26.307142857142857,5.521428571428571L26.52142857142857,5.521428571428571L26.52142857142857,5.307142857142857L26.735714285714284,5.307142857142857L26.735714285714284,4.664285714285715L26.95,4.664285714285715z" stroke="none"/><path d="M22.5,10.45L22.5,10.55L19.55,10.55L19.55,10.764285714285716L19.335714285714285,10.764285714285716L19.335714285714285,10.978571428571428L19.121428571428574,10.978571428571428L19.121428571428574,11.192857142857143L17.835714285714285,11.192857142857143L17.835714285714285,11.835714285714285L17.40714285714286,11.835714285714285L17.40714285714286,12.692857142857143L13.878571428571426,12.692857142857143L13.878571428571426,12.264285714285716L13.664285714285715,12.264285714285716L13.664285714285715,12.05L13.5,12.05L13.5,11.95L13.764285714285716,11.95L13.764285714285716,12.164285714285715L13.978571428571428,12.164285714285715L13.978571428571428,12.592857142857142L17.307142857142857,12.592857142857142L17.307142857142857,11.735714285714284L17.735714285714284,11.735714285714284L17.735714285714284,11.092857142857142L19.021428571428572,11.092857142857142L19.021428571428572,10.878571428571426L19.235714285714284,10.878571428571426L19.235714285714284,10.664285714285715L19.45,10.664285714285715L19.45,10.45z" stroke="none"/><path d="M6,3.05L6,2.95L6.478571428571428,2.95L6.478571428571428,3.1642857142857146L8.62142857142857,3.1642857142857146L8.62142857142857,3.3785714285714286L13.664285714285715,3.3785714285714286L13.664285714285715,2.7357142857142858L14.092857142857142,2.7357142857142858L14.092857142857142,2.3071428571428574L14.95,2.3071428571428574L14.95,2.092857142857143L15.164285714285715,2.092857142857143L15.164285714285715,1.8785714285714286L15.378571428571426,1.8785714285714286L15.378571428571426,1.6642857142857144L27.05,1.6642857142857144L27.05,2.521428571428572L27.478571428571428,2.521428571428572L27.478571428571428,7.235714285714286L27.692857142857143,7.235714285714286L27.692857142857143,12.692857142857143L27.05,12.692857142857143L27.05,12.907142857142858L22.235714285714284,12.907142857142858L22.235714285714284,12.478571428571428L22.021428571428572,12.478571428571428L22.021428571428572,11.521428571428569L22.235714285714284,11.521428571428569L22.235714285714284,11.092857142857142L22.664285714285715,11.092857142857142L22.664285714285715,10.878571428571426L22.878571428571426,10.878571428571426L22.878571428571426,10.12142857142857L22.021428571428572,10.12142857142857L22.021428571428572,9.907142857142858L21.807142857142857,9.907142857142858L21.807142857142857,9.478571428571428L21.378571428571426,9.478571428571428L21.378571428571426,9.264285714285716L20.95,9.264285714285716L20.95,9.05L20.307142857142857,9.05L20.307142857142857,8.62142857142857L18.692857142857143,8.62142857142857L18.692857142857143,9.05L18.478571428571428,9.05L18.478571428571428,9.478571428571428L17.521428571428572,9.478571428571428L17.521428571428572,8.307142857142857L17.735714285714284,8.307142857142857L17.735714285714284,8.092857142857142L18.164285714285715,8.092857142857142L18.164285714285715,7.878571428571428L18.378571428571426,7.878571428571428L18.378571428571426,6.692857142857142L18.164285714285715,6.692857142857142L18.164285714285715,6.05L18,6.05L18,5.95L18.264285714285716,5.95L18.264285714285716,6.5928571428571425L18.478571428571428,6.5928571428571425L18.478571428571428,7.978571428571428L18.264285714285716,7.978571428571428L18.264285714285716,8.192857142857143L17.835714285714285,8.192857142857143L17.835714285714285,8.407142857142858L17.621428571428574,8.407142857142858L17.621428571428574,9.378571428571426L18.378571428571426,9.378571428571426L18.378571428571426,8.95L18.59285714285714,8.95L18.59285714285714,8.521428571428569L20.40714285714286,8.521428571428569L20.40714285714286,8.95L21.05,8.95L21.05,9.164285714285715L21.478571428571428,9.164285714285715L21.478571428571428,9.378571428571426L21.90714285714286,9.378571428571426L21.90714285714286,9.807142857142857L22.121428571428574,9.807142857142857L22.121428571428574,10.021428571428569L22.978571428571428,10.021428571428569L22.978571428571428,10.978571428571428L22.764285714285716,10.978571428571428L22.764285714285716,11.192857142857143L22.335714285714285,11.192857142857143L22.335714285714285,11.62142857142857L22.121428571428574,11.62142857142857L22.121428571428574,12.378571428571426L22.335714285714285,12.378571428571426L22.335714285714285,12.807142857142857L26.95,12.807142857142857L26.95,12.592857142857142L27.59285714285714,12.592857142857142L27.59285714285714,7.335714285714285L27.378571428571426,7.335714285714285L27.378571428571426,2.6214285714285714L26.95,2.6214285714285714L26.95,1.7642857142857145L15.478571428571428,1.7642857142857145L15.478571428571428,1.9785714285714286L15.264285714285716,1.9785714285714286L15.264285714285716,2.1928571428571426L15.05,2.1928571428571426L15.05,2.407142857142857L14.192857142857143,2.407142857142857L14.192857142857143,2.8357142857142854L13.764285714285716,2.8357142857142854L13.764285714285716,3.478571428571428L8.521428571428569,3.478571428571428L8.521428571428569,3.2642857142857142L6.378571428571428,3.2642857142857142L6.378571428571428,3.05z" stroke="none"/></svg>