<svg version="1.1" width="30" height="15" xmlns="http://www.w3.org/2000/svg"><path d="M8.092857142857142,4.45L8.092857142857142,4.335714285714285L6.478571428571428,4.335714285714285L6.478571428571428,4.55L6,4.55L6,4.45L6.378571428571428,4.45L6.378571428571428,4.235714285714286L8.192857142857143,4.235714285714286L8.192857142857143,4.45L10.5,4.45L10.5,4.55L7.5,4.55L7.5,4.45z" stroke="none"/><path d="M14.307142857142857,8.95L14.307142857142857,8.407142857142858L14.092857142857142,8.407142857142858L14.092857142857142,7.978571428571428L13.45,7.978571428571428L13.45,7.5L13.55,7.5L13.55,7.878571428571428L14.192857142857143,7.878571428571428L14.192857142857143,8.307142857142857L14.407142857142858,8.307142857142857L14.407142857142858,8.95L15.907142857142858,8.95L15.907142857142858,9.164285714285715L16.12142857142857,9.164285714285715L16.12142857142857,9.378571428571426L19.335714285714285,9.378571428571426L19.335714285714285,9.807142857142857L19.55,9.807142857142857L19.55,10.5L19.45,10.5L19.45,9.907142857142858L19.235714285714284,9.907142857142858L19.235714285714284,9.478571428571428L16.02142857142857,9.478571428571428L16.02142857142857,9.264285714285716L15.807142857142857,9.264285714285716L15.807142857142857,9.05L13.878571428571426,9.05L13.878571428571426,8.62142857142857L11.62142857142857,8.62142857142857L11.62142857142857,9.05L10.5,9.05L10.5,8.95L11.521428571428569,8.95L11.521428571428569,8.521428571428569L13.978571428571428,8.521428571428569L13.978571428571428,8.95z" stroke="none"/><path d="M9.378571428571426,10.45L9.378571428571426,10.021428571428569L9.592857142857142,10.021428571428569L9.592857142857142,9.807142857142857L9.807142857142857,9.807142857142857L9.807142857142857,9.164285714285715L10.021428571428569,9.164285714285715L10.021428571428569,8.521428571428569L10.878571428571426,8.521428571428569L10.878571428571426,8.307142857142857L12.378571428571426,8.307142857142857L12.378571428571426,7.235714285714286L12.592857142857142,7.235714285714286L12.592857142857142,7.021428571428571L14.192857142857143,7.021428571428571L14.192857142857143,7.235714285714286L14.407142857142858,7.235714285714286L14.407142857142858,7.45L14.62142857142857,7.45L14.62142857142857,7.878571428571428L16.12142857142857,7.878571428571428L16.12142857142857,8.092857142857142L16.335714285714285,8.092857142857142L16.335714285714285,8.521428571428569L16.55,8.521428571428569L16.55,9L16.45,9L16.45,8.62142857142857L16.235714285714284,8.62142857142857L16.235714285714284,8.192857142857143L16.02142857142857,8.192857142857143L16.02142857142857,7.978571428571428L14.521428571428569,7.978571428571428L14.521428571428569,7.55L14.307142857142857,7.55L14.307142857142857,7.335714285714285L14.092857142857142,7.335714285714285L14.092857142857142,7.121428571428571L12.692857142857143,7.121428571428571L12.692857142857143,7.335714285714285L12.478571428571428,7.335714285714285L12.478571428571428,8.407142857142858L10.978571428571428,8.407142857142858L10.978571428571428,8.62142857142857L10.12142857142857,8.62142857142857L10.12142857142857,9.264285714285716L9.907142857142858,9.264285714285716L9.907142857142858,9.907142857142858L9.692857142857143,9.907142857142858L9.692857142857143,10.12142857142857L9.478571428571428,10.12142857142857L9.478571428571428,10.764285714285716L6.907142857142857,10.764285714285716L6.907142857142857,10.978571428571428L5.192857142857142,10.978571428571428L5.192857142857142,11.835714285714285L4.978571428571429,11.835714285714285L4.978571428571429,12.05L4.5,12.05L4.5,11.95L4.878571428571429,11.95L4.878571428571429,11.735714285714284L5.0928571428571425,11.735714285714284L5.0928571428571425,10.878571428571426L6.807142857142857,10.878571428571426L6.807142857142857,10.664285714285715L9.378571428571426,10.664285714285715L9.378571428571426,10.55L7.5,10.55L7.5,10.45z" stroke="none"/><path d="M20.09285714285714,5.0928571428571425L20.09285714285714,4.45L20.307142857142857,4.45L20.307142857142857,4.235714285714286L21.90714285714286,4.235714285714286L21.90714285714286,4.45L22.5,4.45L22.5,4.55L21.807142857142857,4.55L21.807142857142857,4.335714285714285L20.40714285714286,4.335714285714285L20.40714285714286,4.55L20.192857142857143,4.55L20.192857142857143,5.0928571428571425L20.307142857142857,5.0928571428571425L20.307142857142857,4.878571428571429L20.521428571428572,4.878571428571429L20.521428571428572,4.45L21,4.45L21,4.55L20.621428571428574,4.55L20.621428571428574,4.978571428571429L20.40714285714286,4.978571428571429L20.40714285714286,5.192857142857142L20.192857142857143,5.192857142857142L20.192857142857143,6.478571428571428L19.55,6.478571428571428L19.55,7.5L19.45,7.5L19.45,6.378571428571428L20.09285714285714,6.378571428571428L20.09285714285714,5.192857142857142L18.164285714285715,5.192857142857142L18.164285714285715,4.55L18,4.55L18,4.45L18.264285714285716,4.45L18.264285714285716,5.0928571428571425z" stroke="none"/><path d="M8.95,8.092857142857142L8.95,7.878571428571428L9.807142857142857,7.878571428571428L9.807142857142857,7.664285714285715L10.235714285714284,7.664285714285715L10.235714285714284,7.45L10.45,7.45L10.45,7.235714285714286L11.092857142857142,7.235714285714286L11.092857142857142,7.021428571428571L11.95,7.021428571428571L11.95,6.807142857142857L15.05,6.807142857142857L15.05,7.5L14.95,7.5L14.95,6.907142857142857L12.05,6.907142857142857L12.05,7.121428571428571L11.192857142857143,7.121428571428571L11.192857142857143,7.335714285714285L10.55,7.335714285714285L10.55,7.55L10.335714285714285,7.55L10.335714285714285,7.764285714285714L9.907142857142858,7.764285714285714L9.907142857142858,7.978571428571428L9.05,7.978571428571428L9.05,8.092857142857142L11.521428571428569,8.092857142857142L11.521428571428569,7.45L12,7.45L12,7.55L11.62142857142857,7.55L11.62142857142857,8.192857142857143L9.05,8.192857142857143L9.05,9.692857142857143L8.835714285714285,9.692857142857143L8.835714285714285,9.907142857142858L7.764285714285714,9.907142857142858L7.764285714285714,10.12142857142857L6.692857142857142,10.12142857142857L6.692857142857142,10.55L6.478571428571428,10.55L6.478571428571428,10.764285714285716L5.735714285714286,10.764285714285716L5.735714285714286,7.764285714285714L5.521428571428571,7.764285714285714L5.521428571428571,7.55L5.0928571428571425,7.55L5.0928571428571425,7.121428571428571L4.235714285714286,7.121428571428571L4.235714285714286,6.692857142857142L4.021428571428571,6.692857142857142L4.021428571428571,6.478571428571428L3.8071428571428574,6.478571428571428L3.8071428571428574,6.264285714285714L3.1642857142857146,6.264285714285714L3.1642857142857146,6.05L3,6.05L3,5.95L3.2642857142857142,5.95L3.2642857142857142,6.164285714285715L3.907142857142857,6.164285714285715L3.907142857142857,6.378571428571428L4.121428571428571,6.378571428571428L4.121428571428571,6.5928571428571425L4.335714285714285,6.5928571428571425L4.335714285714285,7.021428571428571L5.192857142857142,7.021428571428571L5.192857142857142,7.45L5.621428571428571,7.45L5.621428571428571,7.664285714285715L5.835714285714285,7.664285714285715L5.835714285714285,10.664285714285715L6.378571428571428,10.664285714285715L6.378571428571428,10.45L6.5928571428571425,10.45L6.5928571428571425,10.021428571428569L7.664285714285715,10.021428571428569L7.664285714285715,9.807142857142857L8.735714285714284,9.807142857142857L8.735714285714284,9.592857142857142L8.95,9.592857142857142L8.95,8.192857142857143L7.764285714285714,8.192857142857143L7.764285714285714,8.407142857142858L7.335714285714285,8.407142857142858L7.335714285714285,8.62142857142857L7.121428571428571,8.62142857142857L7.121428571428571,9.264285714285716L6.907142857142857,9.264285714285716L6.907142857142857,9.478571428571428L6.692857142857142,9.478571428571428L6.692857142857142,9.907142857142858L6.478571428571428,9.907142857142858L6.478571428571428,10.12142857142857L6.264285714285714,10.12142857142857L6.264285714285714,10.335714285714285L6.05,10.335714285714285L6.05,10.5L5.95,10.5L5.95,10.235714285714284L6.164285714285715,10.235714285714284L6.164285714285715,10.021428571428569L6.378571428571428,10.021428571428569L6.378571428571428,9.807142857142857L6.5928571428571425,9.807142857142857L6.5928571428571425,9.378571428571426L6.807142857142857,9.378571428571426L6.807142857142857,9.164285714285715L7.021428571428571,9.164285714285715L7.021428571428571,8.521428571428569L7.235714285714286,8.521428571428569L7.235714285714286,8.307142857142857L7.664285714285715,8.307142857142857L7.664285714285715,8.092857142857142z" stroke="none"/><path d="M16.664285714285715,4.664285714285715L16.664285714285715,3.478571428571428L14.521428571428569,3.478571428571428L14.521428571428569,3.2642857142857142L13.664285714285715,3.2642857142857142L13.664285714285715,3.05L13.5,3.05L13.5,2.95L13.764285714285716,2.95L13.764285714285716,3.1642857142857146L14.62142857142857,3.1642857142857146L14.62142857142857,3.3785714285714286L16.764285714285716,3.3785714285714286L16.764285714285716,4.664285714285715L16.978571428571428,4.664285714285715L16.978571428571428,4.878571428571429L17.40714285714286,4.878571428571429L17.40714285714286,5.0928571428571425L18.05,5.0928571428571425L18.05,5.307142857142857L19.121428571428574,5.307142857142857L19.121428571428574,5.735714285714286L19.335714285714285,5.735714285714286L19.335714285714285,5.95L19.5,5.95L19.5,6.05L19.235714285714284,6.05L19.235714285714284,5.835714285714285L19.021428571428572,5.835714285714285L19.021428571428572,5.407142857142857L17.95,5.407142857142857L17.95,5.192857142857142L17.307142857142857,5.192857142857142L17.307142857142857,4.978571428571429L16.878571428571426,4.978571428571429L16.878571428571426,4.764285714285714L16.764285714285716,4.764285714285714L16.764285714285716,5.0928571428571425L17.192857142857143,5.0928571428571425L17.192857142857143,5.307142857142857L17.835714285714285,5.307142857142857L17.835714285714285,5.95L18.90714285714286,5.95L18.90714285714286,6.807142857142857L19.121428571428574,6.807142857142857L19.121428571428574,7.878571428571428L21.378571428571426,7.878571428571428L21.378571428571426,7.45L22.021428571428572,7.45L22.021428571428572,6.164285714285715L22.235714285714284,6.164285714285715L22.235714285714284,5.95L22.5,5.95L22.5,6.05L22.335714285714285,6.05L22.335714285714285,6.264285714285714L22.121428571428574,6.264285714285714L22.121428571428574,7.55L21.478571428571428,7.55L21.478571428571428,7.978571428571428L19.021428571428572,7.978571428571428L19.021428571428572,6.907142857142857L18.807142857142857,6.907142857142857L18.807142857142857,6.05L17.735714285714284,6.05L17.735714285714284,5.407142857142857L17.09285714285714,5.407142857142857L17.09285714285714,5.192857142857142L16.664285714285715,5.192857142857142L16.664285714285715,4.764285714285714L15.692857142857143,4.764285714285714L15.692857142857143,4.978571428571429L13.021428571428569,4.978571428571429L13.021428571428569,4.764285714285714L12.807142857142857,4.764285714285714L12.807142857142857,4.55L12,4.55L12,4.45L12.907142857142858,4.45L12.907142857142858,4.664285714285715L13.12142857142857,4.664285714285715L13.12142857142857,4.878571428571429L15.592857142857142,4.878571428571429L15.592857142857142,4.664285714285715z" stroke="none"/><path d="M8.95,6L9.05,6L9.05,7.5L8.95,7.5z" stroke="none"/><path d="M24,4.55L24,4.45L25.5,4.45L25.5,4.55z" stroke="none"/><path d="M25.45,7.5L25.55,7.5L25.55,7.878571428571428L26.40714285714286,7.878571428571428L26.40714285714286,8.092857142857142L26.62142857142857,8.092857142857142L26.62142857142857,8.307142857142857L26.835714285714285,8.307142857142857L26.835714285714285,8.95L27,8.95L27,9.05L26.735714285714284,9.05L26.735714285714284,8.407142857142858L26.52142857142857,8.407142857142858L26.52142857142857,8.192857142857143L26.307142857142857,8.192857142857143L26.307142857142857,7.978571428571428L25.45,7.978571428571428z" stroke="none"/><path d="M27.05,10.5L26.95,10.5L26.95,9.692857142857143L26.307142857142857,9.692857142857143L26.307142857142857,9.264285714285716L26.09285714285714,9.264285714285716L26.09285714285714,9.05L25.5,9.05L25.5,8.95L26.192857142857143,8.95L26.192857142857143,9.164285714285715L26.40714285714286,9.164285714285715L26.40714285714286,9.592857142857142L27.05,9.592857142857142z" stroke="none"/><path d="M21,3.05L21,2.95L21.807142857142857,2.95L21.807142857142857,2.7357142857142858L22.021428571428572,2.7357142857142858L22.021428571428572,2.521428571428572L24.05,2.521428571428572L24.05,3L23.95,3L23.95,2.6214285714285714L22.121428571428574,2.6214285714285714L22.121428571428574,2.8357142857142854L21.90714285714286,2.8357142857142854L21.90714285714286,3.05z" stroke="none"/><path d="M22.5,12.05L22.5,11.95L25.5,11.95L25.5,12.05z" stroke="none"/><path d="M19.5,9.05L19.5,8.95L19.978571428571428,8.95L19.978571428571428,9.164285714285715L20.40714285714286,9.164285714285715L20.40714285714286,9.378571428571426L21.90714285714286,9.378571428571426L21.90714285714286,10.235714285714284L22.335714285714285,10.235714285714284L22.335714285714285,10.45L22.5,10.45L22.5,10.55L22.235714285714284,10.55L22.235714285714284,10.335714285714285L21.807142857142857,10.335714285714285L21.807142857142857,9.478571428571428L20.307142857142857,9.478571428571428L20.307142857142857,9.264285714285716L19.878571428571426,9.264285714285716L19.878571428571426,9.05z" stroke="none"/><path d="M9,2.95L9,3.05L8.192857142857143,3.05L8.192857142857143,3.2642857142857142L7.335714285714285,3.2642857142857142L7.335714285714285,3.6928571428571426L6.692857142857142,3.6928571428571426L6.692857142857142,3.907142857142857L6.05,3.907142857142857L6.05,4.121428571428571L5.621428571428571,4.121428571428571L5.621428571428571,5.307142857142857L6.05,5.307142857142857L6.05,6L5.95,6L5.95,5.407142857142857L5.521428571428571,5.407142857142857L5.521428571428571,4.021428571428571L5.95,4.021428571428571L5.95,3.8071428571428574L6.5928571428571425,3.8071428571428574L6.5928571428571425,3.592857142857143L7.235714285714286,3.592857142857143L7.235714285714286,3.1642857142857146L8.092857142857142,3.1642857142857146L8.092857142857142,2.95z" stroke="none"/><path d="M11.95,3L12.05,3L12.05,3.2642857142857142L11.835714285714285,3.2642857142857142L11.835714285714285,4.121428571428571L11.62142857142857,4.121428571428571L11.62142857142857,4.878571428571429L12.907142857142858,4.878571428571429L12.907142857142858,5.0928571428571425L13.764285714285716,5.0928571428571425L13.764285714285716,5.521428571428571L14.407142857142858,5.521428571428571L14.407142857142858,5.95L15,5.95L15,6.05L14.307142857142857,6.05L14.307142857142857,5.621428571428571L13.664285714285715,5.621428571428571L13.664285714285715,5.192857142857142L12.807142857142857,5.192857142857142L12.807142857142857,4.978571428571429L11.521428571428569,4.978571428571429L11.521428571428569,4.021428571428571L11.735714285714284,4.021428571428571L11.735714285714284,3.1642857142857146L11.95,3.1642857142857146z" stroke="none"/><path d="M18,3.05L18,2.95L18.692857142857143,2.95L18.692857142857143,3.1642857142857146L19.121428571428574,3.1642857142857146L19.121428571428574,3.3785714285714286L21.807142857142857,3.3785714285714286L21.807142857142857,3.1642857142857146L22.021428571428572,3.1642857142857146L22.021428571428572,2.95L22.5,2.95L22.5,3.05L22.121428571428574,3.05L22.121428571428574,3.2642857142857142L21.90714285714286,3.2642857142857142L21.90714285714286,3.478571428571428L19.021428571428572,3.478571428571428L19.021428571428572,3.2642857142857142L18.59285714285714,3.2642857142857142L18.59285714285714,3.05z" stroke="none"/><path d="M21,12.05L21,11.95L21.692857142857143,11.95L21.692857142857143,12.164285714285715L22.121428571428574,12.164285714285715L22.121428571428574,12.378571428571426L26.735714285714284,12.378571428571426L26.735714285714284,12.164285714285715L26.95,12.164285714285715L26.95,12L27.05,12L27.05,12.264285714285716L26.835714285714285,12.264285714285716L26.835714285714285,12.478571428571428L22.021428571428572,12.478571428571428L22.021428571428572,12.264285714285716L21.59285714285714,12.264285714285716L21.59285714285714,12.05z" stroke="none"/><path d="M21,7.55L21,7.45L21.164285714285715,7.45L21.164285714285715,6.5928571428571425L21.378571428571426,6.5928571428571425L21.378571428571426,5.95L21.59285714285714,5.95L21.59285714285714,5.521428571428571L24.05,5.521428571428571L24.05,5.735714285714286L25.978571428571428,5.735714285714286L25.978571428571428,5.95L27,5.95L27,6.05L25.878571428571426,6.05L25.878571428571426,5.835714285714285L23.95,5.835714285714285L23.95,5.621428571428571L21.692857142857143,5.621428571428571L21.692857142857143,6.05L21.478571428571428,6.05L21.478571428571428,6.692857142857142L21.264285714285716,6.692857142857142L21.264285714285716,7.55z" stroke="none"/><path d="M13.5,9.05L13.5,8.95L13.764285714285716,8.95L13.764285714285716,9.164285714285715L15.692857142857143,9.164285714285715L15.692857142857143,9.378571428571426L15.907142857142858,9.378571428571426L15.907142857142858,9.592857142857142L17.40714285714286,9.592857142857142L17.40714285714286,9.807142857142857L17.621428571428574,9.807142857142857L17.621428571428574,10.45L17.835714285714285,10.45L17.835714285714285,10.878571428571426L22.878571428571426,10.878571428571426L22.878571428571426,9.264285714285716L20.95,9.264285714285716L20.95,9L21.05,9L21.05,9.164285714285715L22.978571428571428,9.164285714285715L22.978571428571428,10.978571428571428L17.735714285714284,10.978571428571428L17.735714285714284,10.55L17.521428571428572,10.55L17.521428571428572,9.907142857142858L17.307142857142857,9.907142857142858L17.307142857142857,9.692857142857143L15.807142857142857,9.692857142857143L15.807142857142857,9.478571428571428L15.592857142857142,9.478571428571428L15.592857142857142,9.264285714285716L13.664285714285715,9.264285714285716L13.664285714285715,9.05z" stroke="none"/><path d="M19.55,4.5L19.45,4.5L19.45,4.235714285714286L19.878571428571426,4.235714285714286L19.878571428571426,4.021428571428571L26.307142857142857,4.021428571428571L26.307142857142857,3.8071428571428574L26.52142857142857,3.8071428571428574L26.52142857142857,3.3785714285714286L26.735714285714284,3.3785714285714286L26.735714285714284,3.1642857142857146L26.95,3.1642857142857146L26.95,3L27.05,3L27.05,3.2642857142857142L26.835714285714285,3.2642857142857142L26.835714285714285,3.478571428571428L26.62142857142857,3.478571428571428L26.62142857142857,3.907142857142857L26.40714285714286,3.907142857142857L26.40714285714286,4.121428571428571L19.978571428571428,4.121428571428571L19.978571428571428,4.335714285714285L19.55,4.335714285714285z" stroke="none"/><path d="M13.5,4.45L13.5,4.55L13.021428571428569,4.55L13.021428571428569,4.335714285714285L12.807142857142857,4.335714285714285L12.807142857142857,3.6928571428571426L12.592857142857142,3.6928571428571426L12.592857142857142,2.6214285714285714L6.692857142857142,2.6214285714285714L6.692857142857142,3.05L6,3.05L6,2.95L6.5928571428571425,2.95L6.5928571428571425,2.521428571428572L12.692857142857143,2.521428571428572L12.692857142857143,3.592857142857143L12.907142857142858,3.592857142857143L12.907142857142858,4.235714285714286L13.12142857142857,4.235714285714286L13.12142857142857,4.45z" stroke="none"/><path d="M10.5,10.45L10.5,10.55L10.335714285714285,10.55L10.335714285714285,10.764285714285716L9.692857142857143,10.764285714285716L9.692857142857143,10.978571428571428L7.121428571428571,10.978571428571428L7.121428571428571,11.192857142857143L6.692857142857142,11.192857142857143L6.692857142857142,11.407142857142858L6.478571428571428,11.407142857142858L6.478571428571428,11.835714285714285L6.264285714285714,11.835714285714285L6.264285714285714,12.05L5.835714285714285,12.05L5.835714285714285,12.478571428571428L3.3785714285714286,12.478571428571428L3.3785714285714286,12.264285714285716L2.95,12.264285714285716L2.95,12L3.05,12L3.05,12.164285714285715L3.478571428571428,12.164285714285715L3.478571428571428,12.378571428571426L5.735714285714286,12.378571428571426L5.735714285714286,11.95L6.164285714285715,11.95L6.164285714285715,11.735714285714284L6.378571428571428,11.735714285714284L6.378571428571428,11.307142857142857L6.5928571428571425,11.307142857142857L6.5928571428571425,11.092857142857142L7.021428571428571,11.092857142857142L7.021428571428571,10.878571428571426L9.592857142857142,10.878571428571426L9.592857142857142,10.664285714285715L10.235714285714284,10.664285714285715L10.235714285714284,10.45z" stroke="none"/><path d="M10.5,3.05L10.5,2.95L10.764285714285716,2.95L10.764285714285716,3.1642857142857146L10.978571428571428,3.1642857142857146L10.978571428571428,4.978571428571429L9.264285714285716,4.978571428571429L9.264285714285716,5.192857142857142L8.192857142857143,5.192857142857142L8.192857142857143,5.835714285714285L6.692857142857142,5.835714285714285L6.692857142857142,6.478571428571428L4.878571428571429,6.478571428571428L4.878571428571429,6.05L3.3785714285714286,6.05L3.3785714285714286,5.621428571428571L2.6214285714285714,5.621428571428571L2.6214285714285714,7.235714285714286L2.8357142857142854,7.235714285714286L2.8357142857142854,7.45L3,7.45L3,7.55L2.7357142857142858,7.55L2.7357142857142858,7.335714285714285L2.521428571428572,7.335714285714285L2.521428571428572,5.521428571428571L3.478571428571428,5.521428571428571L3.478571428571428,5.95L4.978571428571429,5.95L4.978571428571429,6.378571428571428L6.5928571428571425,6.378571428571428L6.5928571428571425,5.735714285714286L8.092857142857142,5.735714285714286L8.092857142857142,5.0928571428571425L9.164285714285715,5.0928571428571425L9.164285714285715,4.878571428571429L10.878571428571426,4.878571428571429L10.878571428571426,3.2642857142857142L10.664285714285715,3.2642857142857142L10.664285714285715,3.05z" stroke="none"/><path d="M19.5,3.05L19.5,2.95L20.09285714285714,2.95L20.09285714285714,2.521428571428572L21.378571428571426,2.521428571428572L21.378571428571426,2.3071428571428574L27.264285714285716,2.3071428571428574L27.264285714285716,2.521428571428572L27.478571428571428,2.521428571428572L27.478571428571428,7.335714285714285L27.264285714285716,7.335714285714285L27.264285714285716,7.55L27,7.55L27,7.45L27.164285714285715,7.45L27.164285714285715,7.235714285714286L27.378571428571426,7.235714285714286L27.378571428571426,2.6214285714285714L27.164285714285715,2.6214285714285714L27.164285714285715,2.407142857142857L21.478571428571428,2.407142857142857L21.478571428571428,2.6214285714285714L20.192857142857143,2.6214285714285714L20.192857142857143,3.05z" stroke="none"/><path d="M25.5,2.95L25.5,3.05L25.12142857142857,3.05L25.12142857142857,3.2642857142857142L24.478571428571428,3.2642857142857142L24.478571428571428,3.478571428571428L22.335714285714285,3.478571428571428L22.335714285714285,3.6928571428571426L18.807142857142857,3.6928571428571426L18.807142857142857,3.478571428571428L17.521428571428572,3.478571428571428L17.521428571428572,3.05L16.5,3.05L16.5,2.95L17.621428571428574,2.95L17.621428571428574,3.3785714285714286L18.90714285714286,3.3785714285714286L18.90714285714286,3.592857142857143L22.235714285714284,3.592857142857143L22.235714285714284,3.3785714285714286L24.378571428571426,3.3785714285714286L24.378571428571426,3.1642857142857146L25.02142857142857,3.1642857142857146L25.02142857142857,2.95z" stroke="none"/><path d="M7.5,12.05L7.5,11.95L14.521428571428569,11.95L14.521428571428569,11.521428571428569L23.09285714285714,11.521428571428569L23.09285714285714,9.05L21.378571428571426,9.05L21.378571428571426,8.62142857142857L17.735714285714284,8.62142857142857L17.735714285714284,8.407142857142858L16.664285714285715,8.407142857142858L16.664285714285715,7.55L16.5,7.55L16.5,7.45L16.764285714285716,7.45L16.764285714285716,8.307142857142857L17.835714285714285,8.307142857142857L17.835714285714285,8.521428571428569L21.478571428571428,8.521428571428569L21.478571428571428,8.95L23.192857142857143,8.95L23.192857142857143,11.62142857142857L14.62142857142857,11.62142857142857L14.62142857142857,12.05z" stroke="none"/><path d="M4.55,4.5L4.45,4.5L4.45,3.8071428571428574L4.664285714285715,3.8071428571428574L4.664285714285715,3.592857142857143L5.0928571428571425,3.592857142857143L5.0928571428571425,3.3785714285714286L5.521428571428571,3.3785714285714286L5.521428571428571,2.521428571428572L5.95,2.521428571428572L5.95,2.3071428571428574L12.907142857142858,2.3071428571428574L12.907142857142858,3.3785714285714286L14.407142857142858,3.3785714285714286L14.407142857142858,4.021428571428571L14.62142857142857,4.021428571428571L14.62142857142857,4.235714285714286L14.835714285714285,4.235714285714286L14.835714285714285,4.45L15,4.45L15,4.55L14.735714285714284,4.55L14.735714285714284,4.335714285714285L14.521428571428569,4.335714285714285L14.521428571428569,4.121428571428571L14.307142857142857,4.121428571428571L14.307142857142857,3.478571428571428L12.807142857142857,3.478571428571428L12.807142857142857,2.407142857142857L6.05,2.407142857142857L6.05,2.6214285714285714L5.621428571428571,2.6214285714285714L5.621428571428571,3.478571428571428L5.192857142857142,3.478571428571428L5.192857142857142,3.6928571428571426L4.764285714285714,3.6928571428571426L4.764285714285714,3.907142857142857L4.55,3.907142857142857z" stroke="none"/><path d="M13.5,6.05L13.5,5.95L14.192857142857143,5.95L14.192857142857143,6.164285714285715L14.62142857142857,6.164285714285715L14.62142857142857,6.378571428571428L17.835714285714285,6.378571428571428L17.835714285714285,6.5928571428571425L18.05,6.5928571428571425L18.05,7.021428571428571L18.264285714285716,7.021428571428571L18.264285714285716,7.235714285714286L18.478571428571428,7.235714285714286L18.478571428571428,7.45L18.692857142857143,7.45L18.692857142857143,7.664285714285715L18.90714285714286,7.664285714285715L18.90714285714286,8.092857142857142L24.378571428571426,8.092857142857142L24.378571428571426,7.878571428571428L24.807142857142857,7.878571428571428L24.807142857142857,7.664285714285715L25.02142857142857,7.664285714285715L25.02142857142857,7.021428571428571L26.40714285714286,7.021428571428571L26.40714285714286,7.664285714285715L26.62142857142857,7.664285714285715L26.62142857142857,7.878571428571428L27.59285714285714,7.878571428571428L27.59285714285714,2.407142857142857L27.378571428571426,2.407142857142857L27.378571428571426,2.1928571428571426L5.192857142857142,2.1928571428571426L5.192857142857142,2.8357142857142854L3.6928571428571426,2.8357142857142854L3.6928571428571426,3.05L3,3.05L3,2.95L3.592857142857143,2.95L3.592857142857143,2.7357142857142858L5.0928571428571425,2.7357142857142858L5.0928571428571425,2.092857142857143L27.478571428571428,2.092857142857143L27.478571428571428,2.3071428571428574L27.692857142857143,2.3071428571428574L27.692857142857143,7.978571428571428L26.52142857142857,7.978571428571428L26.52142857142857,7.764285714285714L26.307142857142857,7.764285714285714L26.307142857142857,7.121428571428571L25.12142857142857,7.121428571428571L25.12142857142857,7.764285714285714L24.90714285714286,7.764285714285714L24.90714285714286,7.978571428571428L24.478571428571428,7.978571428571428L24.478571428571428,8.192857142857143L18.807142857142857,8.192857142857143L18.807142857142857,7.764285714285714L18.59285714285714,7.764285714285714L18.59285714285714,7.55L18.378571428571426,7.55L18.378571428571426,7.335714285714285L18.164285714285715,7.335714285714285L18.164285714285715,7.121428571428571L17.95,7.121428571428571L17.95,6.692857142857142L17.735714285714284,6.692857142857142L17.735714285714284,6.478571428571428L14.521428571428569,6.478571428571428L14.521428571428569,6.264285714285714L14.092857142857142,6.264285714285714L14.092857142857142,6.05z" stroke="none"/><path d="M2.95,10.5L3.05,10.5L3.05,11.62142857142857L2.6214285714285714,11.62142857142857L2.6214285714285714,12.378571428571426L3.05,12.378571428571426L3.05,12.592857142857142L14.735714285714284,12.592857142857142L14.735714285714284,12.378571428571426L14.95,12.378571428571426L14.95,12L15.05,12L15.05,12.478571428571428L14.835714285714285,12.478571428571428L14.835714285714285,12.692857142857143L2.95,12.692857142857143L2.95,12.478571428571428L2.521428571428572,12.478571428571428L2.521428571428572,11.521428571428569L2.95,11.521428571428569z" stroke="none"/><path d="M16.5,11.95L16.5,12.05L15.692857142857143,12.05L15.692857142857143,12.692857142857143L15.05,12.692857142857143L15.05,12.907142857142858L2.3071428571428574,12.907142857142858L2.3071428571428574,10.664285714285715L2.521428571428572,10.664285714285715L2.521428571428572,10.021428571428569L3.8071428571428574,10.021428571428569L3.8071428571428574,9.164285714285715L4.235714285714286,9.164285714285715L4.235714285714286,7.878571428571428L4.45,7.878571428571428L4.45,7.5L4.55,7.5L4.55,7.978571428571428L4.335714285714285,7.978571428571428L4.335714285714285,9.264285714285716L3.907142857142857,9.264285714285716L3.907142857142857,10.12142857142857L2.6214285714285714,10.12142857142857L2.6214285714285714,10.764285714285716L2.407142857142857,10.764285714285716L2.407142857142857,12.807142857142857L14.95,12.807142857142857L14.95,12.592857142857142L15.592857142857142,12.592857142857142L15.592857142857142,11.95z" stroke="none"/></svg>