<svg version="1.1" width="30" height="15" xmlns="http://www.w3.org/2000/svg"><path d="M17.521428571428572,5.307142857142857L17.521428571428572,4.664285714285715L17.95,4.664285714285715L17.95,4.5L18.05,4.5L18.05,4.764285714285714L17.621428571428574,4.764285714285714L17.621428571428574,5.407142857142857L16.978571428571428,5.407142857142857L16.978571428571428,7.335714285714285L16.764285714285716,7.335714285714285L16.764285714285716,7.55L16.5,7.55L16.5,7.45L16.664285714285715,7.45L16.664285714285715,7.235714285714286L16.878571428571426,7.235714285714286L16.878571428571426,5.407142857142857L16.664285714285715,5.407142857142857L16.664285714285715,5.192857142857142L16.45,5.192857142857142L16.45,4.5L16.55,4.5L16.55,5.0928571428571425L16.764285714285716,5.0928571428571425L16.764285714285716,5.307142857142857z" stroke="none"/><path d="M7.021428571428571,4.878571428571429L7.021428571428571,4.45L7.5,4.45L7.5,4.55L7.121428571428571,4.55L7.121428571428571,4.978571428571429L6.478571428571428,4.978571428571429L6.478571428571428,5.95L6.907142857142857,5.95L6.907142857142857,6.164285714285715L7.121428571428571,6.164285714285715L7.121428571428571,7.021428571428571L7.335714285714285,7.021428571428571L7.335714285714285,7.235714285714286L7.55,7.235714285714286L7.55,7.5L7.45,7.5L7.45,7.335714285714285L7.235714285714286,7.335714285714285L7.235714285714286,7.121428571428571L7.021428571428571,7.121428571428571L7.021428571428571,6.264285714285714L6.807142857142857,6.264285714285714L6.807142857142857,6.05L6.378571428571428,6.05L6.378571428571428,4.978571428571429L5.521428571428571,4.978571428571429L5.521428571428571,4.764285714285714L5.307142857142857,4.764285714285714L5.307142857142857,4.55L5.0928571428571425,4.55L5.0928571428571425,4.121428571428571L4.664285714285715,4.121428571428571L4.664285714285715,3.2642857142857142L4.45,3.2642857142857142L4.45,3L4.55,3L4.55,3.1642857142857146L4.764285714285714,3.1642857142857146L4.764285714285714,4.021428571428571L5.192857142857142,4.021428571428571L5.192857142857142,4.45L5.407142857142857,4.45L5.407142857142857,4.664285714285715L5.621428571428571,4.664285714285715L5.621428571428571,4.878571428571429z" stroke="none"/><path d="M19.878571428571426,10.878571428571426L19.878571428571426,10.021428571428569L20.09285714285714,10.021428571428569L20.09285714285714,9.807142857142857L20.735714285714284,9.807142857142857L20.735714285714284,9.378571428571426L21.807142857142857,9.378571428571426L21.807142857142857,9.164285714285715L22.45,9.164285714285715L22.45,9L22.55,9L22.55,9.264285714285716L21.90714285714286,9.264285714285716L21.90714285714286,9.478571428571428L20.835714285714285,9.478571428571428L20.835714285714285,9.907142857142858L20.192857142857143,9.907142857142858L20.192857142857143,10.12142857142857L19.978571428571428,10.12142857142857L19.978571428571428,10.978571428571428L15.05,10.978571428571428L15.05,11.192857142857143L13.335714285714285,11.192857142857143L13.335714285714285,11.407142857142858L13.12142857142857,11.407142857142858L13.12142857142857,11.62142857142857L12.907142857142858,11.62142857142857L12.907142857142858,12.05L12.692857142857143,12.05L12.692857142857143,12.264285714285716L10.45,12.264285714285716L10.45,12L10.55,12L10.55,12.164285714285715L12.592857142857142,12.164285714285715L12.592857142857142,11.95L12.807142857142857,11.95L12.807142857142857,11.521428571428569L13.021428571428569,11.521428571428569L13.021428571428569,11.307142857142857L13.235714285714284,11.307142857142857L13.235714285714284,11.092857142857142L14.95,11.092857142857142L14.95,10.978571428571428L12.264285714285716,10.978571428571428L12.264285714285716,11.407142857142858L12.05,11.407142857142858L12.05,12L11.95,12L11.95,11.307142857142857L12.164285714285715,11.307142857142857L12.164285714285715,10.878571428571426z" stroke="none"/><path d="M9.592857142857142,4.664285714285715L9.592857142857142,4.45L10.021428571428569,4.45L10.021428571428569,4.235714285714286L10.878571428571426,4.235714285714286L10.878571428571426,4.021428571428571L12.592857142857142,4.021428571428571L12.592857142857142,3.3785714285714286L12.807142857142857,3.3785714285714286L12.807142857142857,3.1642857142857146L13.021428571428569,3.1642857142857146L13.021428571428569,2.95L13.5,2.95L13.5,3.05L13.12142857142857,3.05L13.12142857142857,3.2642857142857142L12.907142857142858,3.2642857142857142L12.907142857142858,3.478571428571428L12.692857142857143,3.478571428571428L12.692857142857143,4.121428571428571L10.978571428571428,4.121428571428571L10.978571428571428,4.335714285714285L10.12142857142857,4.335714285714285L10.12142857142857,4.55L9.692857142857143,4.55L9.692857142857143,4.664285714285715L10.235714285714284,4.664285714285715L10.235714285714284,4.45L10.5,4.45L10.5,4.55L10.335714285714285,4.55L10.335714285714285,4.764285714285714L9.692857142857143,4.764285714285714L9.692857142857143,6.264285714285714L9.478571428571428,6.264285714285714L9.478571428571428,6.478571428571428L8.62142857142857,6.478571428571428L8.62142857142857,6.692857142857142L8.407142857142858,6.692857142857142L8.407142857142858,7.121428571428571L8.192857142857143,7.121428571428571L8.192857142857143,7.764285714285714L7.978571428571428,7.764285714285714L7.978571428571428,7.978571428571428L6.807142857142857,7.978571428571428L6.807142857142857,7.121428571428571L6.164285714285715,7.121428571428571L6.164285714285715,6.05L6,6.05L6,5.95L6.264285714285714,5.95L6.264285714285714,7.021428571428571L6.907142857142857,7.021428571428571L6.907142857142857,7.878571428571428L7.878571428571428,7.878571428571428L7.878571428571428,7.664285714285715L8.092857142857142,7.664285714285715L8.092857142857142,7.021428571428571L8.307142857142857,7.021428571428571L8.307142857142857,6.5928571428571425L8.521428571428569,6.5928571428571425L8.521428571428569,6.378571428571428L9.378571428571426,6.378571428571428L9.378571428571426,6.164285714285715L9.592857142857142,6.164285714285715L9.592857142857142,4.764285714285714L9.478571428571428,4.764285714285714L9.478571428571428,4.978571428571429L8.192857142857143,4.978571428571429L8.192857142857143,5.192857142857142L7.978571428571428,5.192857142857142L7.978571428571428,5.407142857142857L7.764285714285714,5.407142857142857L7.764285714285714,5.621428571428571L7.55,5.621428571428571L7.55,6L7.45,6L7.45,5.521428571428571L7.664285714285715,5.521428571428571L7.664285714285715,5.307142857142857L7.878571428571428,5.307142857142857L7.878571428571428,5.0928571428571425L8.092857142857142,5.0928571428571425L8.092857142857142,4.878571428571429L9.378571428571426,4.878571428571429L9.378571428571426,4.664285714285715z" stroke="none"/><path d="M4.664285714285715,9.592857142857142L4.664285714285715,9.378571428571426L4.878571428571429,9.378571428571426L4.878571428571429,7.664285714285715L5.307142857142857,7.664285714285715L5.307142857142857,7.45L6,7.45L6,7.55L5.407142857142857,7.55L5.407142857142857,7.764285714285714L4.978571428571429,7.764285714285714L4.978571428571429,9.478571428571428L4.764285714285714,9.478571428571428L4.764285714285714,9.592857142857142L5.407142857142857,9.592857142857142L5.407142857142857,9.807142857142857L6.05,9.807142857142857L6.05,10.021428571428569L6.478571428571428,10.021428571428569L6.478571428571428,10.235714285714284L6.907142857142857,10.235714285714284L6.907142857142857,10.45L7.5,10.45L7.5,10.55L6.807142857142857,10.55L6.807142857142857,10.335714285714285L6.378571428571428,10.335714285714285L6.378571428571428,10.12142857142857L5.95,10.12142857142857L5.95,9.907142857142858L5.307142857142857,9.907142857142858L5.307142857142857,9.692857142857143L4.764285714285714,9.692857142857143L4.764285714285714,10.55L3.907142857142857,10.55L3.907142857142857,10.978571428571428L3.6928571428571426,10.978571428571428L3.6928571428571426,11.407142857142858L3.05,11.407142857142858L3.05,12L2.95,12L2.95,11.307142857142857L3.592857142857143,11.307142857142857L3.592857142857143,10.878571428571426L3.8071428571428574,10.878571428571426L3.8071428571428574,10.45L4.664285714285715,10.45L4.664285714285715,9.692857142857143L4.235714285714286,9.692857142857143L4.235714285714286,9.478571428571428L3.592857142857143,9.478571428571428L3.592857142857143,9.264285714285716L2.95,9.264285714285716L2.95,9L3.05,9L3.05,9.164285714285715L3.6928571428571426,9.164285714285715L3.6928571428571426,9.378571428571426L4.335714285714285,9.378571428571426L4.335714285714285,9.592857142857142z" stroke="none"/><path d="M20.521428571428572,3.8071428571428574L20.521428571428572,3.6928571428571426L15.807142857142857,3.6928571428571426L15.807142857142857,3.05L15,3.05L15,2.95L15.907142857142858,2.95L15.907142857142858,3.592857142857143L20.621428571428574,3.592857142857143L20.621428571428574,3.8071428571428574L22.021428571428572,3.8071428571428574L22.021428571428572,3.592857142857143L22.878571428571426,3.592857142857143L22.878571428571426,3.3785714285714286L23.735714285714284,3.3785714285714286L23.735714285714284,3.1642857142857146L23.95,3.1642857142857146L23.95,3L24.05,3L24.05,3.2642857142857142L23.835714285714285,3.2642857142857142L23.835714285714285,3.478571428571428L22.978571428571428,3.478571428571428L22.978571428571428,3.6928571428571426L22.121428571428574,3.6928571428571426L22.121428571428574,3.907142857142857L20.621428571428574,3.907142857142857L20.621428571428574,4.021428571428571L25.12142857142857,4.021428571428571L25.12142857142857,4.235714285714286L25.55,4.235714285714286L25.55,4.5L25.45,4.5L25.45,4.335714285714285L25.02142857142857,4.335714285714285L25.02142857142857,4.121428571428571L20.521428571428572,4.121428571428571L20.521428571428572,3.907142857142857L20.40714285714286,3.907142857142857L20.40714285714286,4.764285714285714L19.978571428571428,4.764285714285714L19.978571428571428,4.978571428571429L18.90714285714286,4.978571428571429L18.90714285714286,5.192857142857142L18.478571428571428,5.192857142857142L18.478571428571428,5.407142857142857L18.264285714285716,5.407142857142857L18.264285714285716,6.05L18,6.05L18,5.95L18.164285714285715,5.95L18.164285714285715,5.307142857142857L18.378571428571426,5.307142857142857L18.378571428571426,5.0928571428571425L18.807142857142857,5.0928571428571425L18.807142857142857,4.878571428571429L19.878571428571426,4.878571428571429L19.878571428571426,4.664285714285715L20.307142857142857,4.664285714285715L20.307142857142857,3.8071428571428574z" stroke="none"/><path d="M16.45,9L16.55,9L16.55,10.5L16.45,10.5z" stroke="none"/><path d="M13.45,12L13.55,12L13.55,12.264285714285716L13.335714285714285,12.264285714285716L13.335714285714285,12.478571428571428L10.021428571428569,12.478571428571428L10.021428571428569,11.521428571428569L10.45,11.521428571428569L10.45,10.45L11.521428571428569,10.45L11.521428571428569,10.021428571428569L11.95,10.021428571428569L11.95,9.807142857142857L12.164285714285715,9.807142857142857L12.164285714285715,9.378571428571426L12.807142857142857,9.378571428571426L12.807142857142857,9.164285714285715L13.45,9.164285714285715L13.45,9L13.55,9L13.55,9.264285714285716L12.907142857142858,9.264285714285716L12.907142857142858,9.478571428571428L12.264285714285716,9.478571428571428L12.264285714285716,9.907142857142858L12.05,9.907142857142858L12.05,10.12142857142857L11.62142857142857,10.12142857142857L11.62142857142857,10.55L10.55,10.55L10.55,11.62142857142857L10.12142857142857,11.62142857142857L10.12142857142857,12.378571428571426L13.235714285714284,12.378571428571426L13.235714285714284,12.164285714285715L13.45,12.164285714285715z" stroke="none"/><path d="M24.05,10.5L23.95,10.5L23.95,7.5L24.05,7.5z" stroke="none"/><path d="M25.5,2.95L25.5,3.05L24.59285714285714,3.05L24.59285714285714,2.8357142857142854L24.378571428571426,2.8357142857142854L24.378571428571426,2.6214285714285714L23.40714285714286,2.6214285714285714L23.40714285714286,2.8357142857142854L22.978571428571428,2.8357142857142854L22.978571428571428,3.05L22.5,3.05L22.5,2.95L22.878571428571426,2.95L22.878571428571426,2.7357142857142858L23.307142857142857,2.7357142857142858L23.307142857142857,2.521428571428572L24.478571428571428,2.521428571428572L24.478571428571428,2.7357142857142858L24.692857142857143,2.7357142857142858L24.692857142857143,2.95z" stroke="none"/><path d="M25.5,10.45L25.5,10.55L24.692857142857143,10.55L24.692857142857143,10.978571428571428L24.264285714285716,10.978571428571428L24.264285714285716,11.192857142857143L22.978571428571428,11.192857142857143L22.978571428571428,11.407142857142858L22.55,11.407142857142858L22.55,12L22.45,12L22.45,11.307142857142857L22.878571428571426,11.307142857142857L22.878571428571426,11.092857142857142L24.164285714285715,11.092857142857142L24.164285714285715,10.878571428571426L24.59285714285714,10.878571428571426L24.59285714285714,10.45z" stroke="none"/><path d="M21.05,9L20.95,9L20.95,8.735714285714284L21.164285714285715,8.735714285714284L21.164285714285715,8.521428571428569L22.978571428571428,8.521428571428569L22.978571428571428,9.478571428571428L22.121428571428574,9.478571428571428L22.121428571428574,9.692857142857143L21.05,9.692857142857143L21.05,10.12142857142857L20.40714285714286,10.12142857142857L20.40714285714286,11.192857142857143L18.90714285714286,11.192857142857143L18.90714285714286,11.407142857142858L18.692857142857143,11.407142857142858L18.692857142857143,11.62142857142857L18.05,11.62142857142857L18.05,12L17.95,12L17.95,11.521428571428569L18.59285714285714,11.521428571428569L18.59285714285714,11.307142857142857L18.807142857142857,11.307142857142857L18.807142857142857,11.092857142857142L20.307142857142857,11.092857142857142L20.307142857142857,10.021428571428569L20.95,10.021428571428569L20.95,9.592857142857142L22.021428571428572,9.592857142857142L22.021428571428572,9.378571428571426L22.878571428571426,9.378571428571426L22.878571428571426,8.62142857142857L21.264285714285716,8.62142857142857L21.264285714285716,8.835714285714285L21.05,8.835714285714285z" stroke="none"/><path d="M7.5,2.95L7.5,3.05L5.0928571428571425,3.05L5.0928571428571425,2.6214285714285714L4.121428571428571,2.6214285714285714L4.121428571428571,5.735714285714286L4.55,5.735714285714286L4.55,6L4.45,6L4.45,5.835714285714285L4.021428571428571,5.835714285714285L4.021428571428571,2.521428571428572L5.192857142857142,2.521428571428572L5.192857142857142,2.95z" stroke="none"/><path d="M16.5,2.95L16.5,3.05L16.02142857142857,3.05L16.02142857142857,2.8357142857142854L15.592857142857142,2.8357142857142854L15.592857142857142,2.6214285714285714L13.12142857142857,2.6214285714285714L13.12142857142857,2.8357142857142854L12.907142857142858,2.8357142857142854L12.907142857142858,3.05L12,3.05L12,2.95L12.807142857142857,2.95L12.807142857142857,2.7357142857142858L13.021428571428569,2.7357142857142858L13.021428571428569,2.521428571428572L15.692857142857143,2.521428571428572L15.692857142857143,2.7357142857142858L16.12142857142857,2.7357142857142858L16.12142857142857,2.95z" stroke="none"/><path d="M25.5,5.95L25.5,6.05L24.59285714285714,6.05L24.59285714285714,5.835714285714285L24.378571428571426,5.835714285714285L24.378571428571426,5.621428571428571L22.335714285714285,5.621428571428571L22.335714285714285,5.835714285714285L22.121428571428574,5.835714285714285L22.121428571428574,6.05L21,6.05L21,5.95L22.021428571428572,5.95L22.021428571428572,5.735714285714286L22.235714285714284,5.735714285714286L22.235714285714284,5.521428571428571L24.478571428571428,5.521428571428571L24.478571428571428,5.735714285714286L24.692857142857143,5.735714285714286L24.692857142857143,5.95z" stroke="none"/><path d="M2.95,3L3.05,3L3.05,5.621428571428571L2.6214285714285714,5.621428571428571L2.6214285714285714,7.021428571428571L3.05,7.021428571428571L3.05,7.5L2.95,7.5L2.95,7.121428571428571L2.521428571428572,7.121428571428571L2.521428571428572,5.521428571428571L2.95,5.521428571428571z" stroke="none"/><path d="M25.55,9L25.45,9L25.45,7.978571428571428L25.235714285714284,7.978571428571428L25.235714285714284,7.764285714285714L25.02142857142857,7.764285714285714L25.02142857142857,7.55L24.59285714285714,7.55L24.59285714285714,7.121428571428571L21.90714285714286,7.121428571428571L21.90714285714286,7.335714285714285L21.478571428571428,7.335714285714285L21.478571428571428,7.55L21,7.55L21,7.45L21.378571428571426,7.45L21.378571428571426,7.235714285714286L21.807142857142857,7.235714285714286L21.807142857142857,7.021428571428571L24.692857142857143,7.021428571428571L24.692857142857143,7.45L25.12142857142857,7.45L25.12142857142857,7.664285714285715L25.335714285714285,7.664285714285715L25.335714285714285,7.878571428571428L25.55,7.878571428571428z" stroke="none"/><path d="M9,2.95L9,3.05L7.878571428571428,3.05L7.878571428571428,2.6214285714285714L6.5928571428571425,2.6214285714285714L6.5928571428571425,2.407142857142857L3.907142857142857,2.407142857142857L3.907142857142857,6.378571428571428L4.878571428571429,6.378571428571428L4.878571428571429,4.978571428571429L4.664285714285715,4.978571428571429L4.664285714285715,4.55L4.5,4.55L4.5,4.45L4.764285714285714,4.45L4.764285714285714,4.878571428571429L4.978571428571429,4.878571428571429L4.978571428571429,6.478571428571428L3.8071428571428574,6.478571428571428L3.8071428571428574,2.3071428571428574L6.692857142857142,2.3071428571428574L6.692857142857142,2.521428571428572L7.978571428571428,2.521428571428572L7.978571428571428,2.95z" stroke="none"/><path d="M19.5,7.45L19.5,7.55L19.121428571428574,7.55L19.121428571428574,7.764285714285714L17.40714285714286,7.764285714285714L17.40714285714286,7.978571428571428L16.02142857142857,7.978571428571428L16.02142857142857,7.55L15.807142857142857,7.55L15.807142857142857,7.335714285714285L15.592857142857142,7.335714285714285L15.592857142857142,7.121428571428571L15.378571428571426,7.121428571428571L15.378571428571426,6.907142857142857L15.164285714285715,6.907142857142857L15.164285714285715,6.692857142857142L14.95,6.692857142857142L14.95,6L15.05,6L15.05,6.5928571428571425L15.264285714285716,6.5928571428571425L15.264285714285716,6.807142857142857L15.478571428571428,6.807142857142857L15.478571428571428,7.021428571428571L15.692857142857143,7.021428571428571L15.692857142857143,7.235714285714286L15.907142857142858,7.235714285714286L15.907142857142858,7.45L16.12142857142857,7.45L16.12142857142857,7.878571428571428L17.307142857142857,7.878571428571428L17.307142857142857,7.664285714285715L19.021428571428572,7.664285714285715L19.021428571428572,7.45z" stroke="none"/><path d="M27.05,9L26.95,9L26.95,8.192857142857143L25.878571428571426,8.192857142857143L25.878571428571426,7.978571428571428L25.664285714285715,7.978571428571428L25.664285714285715,7.764285714285714L25.45,7.764285714285714L25.45,7.335714285714285L25.235714285714284,7.335714285714285L25.235714285714284,6.907142857142857L20.621428571428574,6.907142857142857L20.621428571428574,7.878571428571428L21.807142857142857,7.878571428571428L21.807142857142857,7.664285714285715L22.235714285714284,7.664285714285715L22.235714285714284,7.45L22.5,7.45L22.5,7.55L22.335714285714285,7.55L22.335714285714285,7.764285714285714L21.90714285714286,7.764285714285714L21.90714285714286,7.978571428571428L20.521428571428572,7.978571428571428L20.521428571428572,6.807142857142857L25.335714285714285,6.807142857142857L25.335714285714285,7.235714285714286L25.55,7.235714285714286L25.55,7.664285714285715L25.764285714285716,7.664285714285715L25.764285714285716,7.878571428571428L25.978571428571428,7.878571428571428L25.978571428571428,8.092857142857142L27.05,8.092857142857142z" stroke="none"/><path d="M27.05,10.5L26.95,10.5L26.95,9.378571428571426L27.378571428571426,9.378571428571426L27.378571428571426,8.192857142857143L27.164285714285715,8.192857142857143L27.164285714285715,7.978571428571428L26.52142857142857,7.978571428571428L26.52142857142857,7.335714285714285L26.09285714285714,7.335714285714285L26.09285714285714,6.692857142857142L24.378571428571426,6.692857142857142L24.378571428571426,6.05L24,6.05L24,5.95L24.478571428571428,5.95L24.478571428571428,6.5928571428571425L26.192857142857143,6.5928571428571425L26.192857142857143,7.235714285714286L26.62142857142857,7.235714285714286L26.62142857142857,7.878571428571428L27.264285714285716,7.878571428571428L27.264285714285716,8.092857142857142L27.478571428571428,8.092857142857142L27.478571428571428,9.478571428571428L27.05,9.478571428571428z" stroke="none"/><path d="M11.95,4.5L12.05,4.5L12.05,7.335714285714285L11.192857142857143,7.335714285714285L11.192857142857143,7.55L10.978571428571428,7.55L10.978571428571428,7.764285714285714L10.55,7.764285714285714L10.55,8.192857142857143L9.478571428571428,8.192857142857143L9.478571428571428,8.835714285714285L9.264285714285716,8.835714285714285L9.264285714285716,9.05L9,9.05L9,8.95L9.164285714285715,8.95L9.164285714285715,8.735714285714284L9.378571428571426,8.735714285714284L9.378571428571426,8.092857142857142L10.45,8.092857142857142L10.45,7.664285714285715L10.878571428571426,7.664285714285715L10.878571428571426,7.45L11.092857142857142,7.45L11.092857142857142,7.235714285714286L11.95,7.235714285714286z" stroke="none"/><path d="M4.55,9L4.45,9L4.45,7.335714285714285L3.8071428571428574,7.335714285714285L3.8071428571428574,7.121428571428571L3.592857142857143,7.121428571428571L3.592857142857143,2.092857142857143L9.478571428571428,2.092857142857143L9.478571428571428,4.121428571428571L9.264285714285716,4.121428571428571L9.264285714285716,4.335714285714285L9.05,4.335714285714285L9.05,4.5L8.95,4.5L8.95,4.235714285714286L9.164285714285715,4.235714285714286L9.164285714285715,4.021428571428571L9.378571428571426,4.021428571428571L9.378571428571426,2.1928571428571426L3.6928571428571426,2.1928571428571426L3.6928571428571426,7.021428571428571L3.907142857142857,7.021428571428571L3.907142857142857,7.235714285714286L4.55,7.235714285714286z" stroke="none"/><path d="M22.5,4.45L22.5,4.55L21.692857142857143,4.55L21.692857142857143,4.978571428571429L20.835714285714285,4.978571428571429L20.835714285714285,5.192857142857142L20.621428571428574,5.192857142857142L20.621428571428574,6.05L20.40714285714286,6.05L20.40714285714286,7.121428571428571L20.192857142857143,7.121428571428571L20.192857142857143,7.764285714285714L19.978571428571428,7.764285714285714L19.978571428571428,7.978571428571428L19.335714285714285,7.978571428571428L19.335714285714285,8.62142857142857L18.478571428571428,8.62142857142857L18.478571428571428,8.835714285714285L18.05,8.835714285714285L18.05,9L17.95,9L17.95,8.735714285714284L18.378571428571426,8.735714285714284L18.378571428571426,8.521428571428569L19.235714285714284,8.521428571428569L19.235714285714284,7.878571428571428L19.878571428571426,7.878571428571428L19.878571428571426,7.664285714285715L20.09285714285714,7.664285714285715L20.09285714285714,7.021428571428571L20.307142857142857,7.021428571428571L20.307142857142857,5.95L20.521428571428572,5.95L20.521428571428572,5.0928571428571425L20.735714285714284,5.0928571428571425L20.735714285714284,4.878571428571429L21.59285714285714,4.878571428571429L21.59285714285714,4.45z" stroke="none"/><path d="M10.55,3L10.45,3L10.45,1.9785714285714286L3.478571428571428,1.9785714285714286L3.478571428571428,5.621428571428571L3.2642857142857142,5.621428571428571L3.2642857142857142,5.835714285714285L3.05,5.835714285714285L3.05,6L2.95,6L2.95,5.735714285714286L3.1642857142857146,5.735714285714286L3.1642857142857146,5.521428571428571L3.3785714285714286,5.521428571428571L3.3785714285714286,1.8785714285714286L10.55,1.8785714285714286z" stroke="none"/><path d="M19.5,3.05L19.5,2.95L21.378571428571426,2.95L21.378571428571426,2.7357142857142858L22.021428571428572,2.7357142857142858L22.021428571428572,2.521428571428572L22.664285714285715,2.521428571428572L22.664285714285715,2.3071428571428574L25.764285714285716,2.3071428571428574L25.764285714285716,2.521428571428572L25.978571428571428,2.521428571428572L25.978571428571428,5.735714285714286L26.192857142857143,5.735714285714286L26.192857142857143,5.95L26.40714285714286,5.95L26.40714285714286,6.807142857142857L26.835714285714285,6.807142857142857L26.835714285714285,7.021428571428571L27.05,7.021428571428571L27.05,7.5L26.95,7.5L26.95,7.121428571428571L26.735714285714284,7.121428571428571L26.735714285714284,6.907142857142857L26.307142857142857,6.907142857142857L26.307142857142857,6.05L26.09285714285714,6.05L26.09285714285714,5.835714285714285L25.878571428571426,5.835714285714285L25.878571428571426,2.6214285714285714L25.664285714285715,2.6214285714285714L25.664285714285715,2.407142857142857L22.764285714285716,2.407142857142857L22.764285714285716,2.6214285714285714L22.121428571428574,2.6214285714285714L22.121428571428574,2.8357142857142854L21.478571428571428,2.8357142857142854L21.478571428571428,3.05z" stroke="none"/><path d="M9,10.55L9,10.45L10.235714285714284,10.45L10.235714285714284,10.235714285714284L10.45,10.235714285714284L10.45,10.021428571428569L10.664285714285715,10.021428571428569L10.664285714285715,9.807142857142857L10.878571428571426,9.807142857142857L10.878571428571426,9.164285714285715L11.307142857142857,9.164285714285715L11.307142857142857,8.95L11.95,8.95L11.95,8.735714285714284L12.164285714285715,8.735714285714284L12.164285714285715,8.521428571428569L16.978571428571428,8.521428571428569L16.978571428571428,10.235714285714284L17.835714285714285,10.235714285714284L17.835714285714285,10.45L18,10.45L18,10.55L17.735714285714284,10.55L17.735714285714284,10.335714285714285L16.878571428571426,10.335714285714285L16.878571428571426,8.62142857142857L12.264285714285716,8.62142857142857L12.264285714285716,8.835714285714285L12.05,8.835714285714285L12.05,9.05L11.407142857142858,9.05L11.407142857142858,9.264285714285716L10.978571428571428,9.264285714285716L10.978571428571428,9.907142857142858L10.764285714285716,9.907142857142858L10.764285714285716,10.12142857142857L10.55,10.12142857142857L10.55,10.335714285714285L10.335714285714285,10.335714285714285L10.335714285714285,10.55z" stroke="none"/><path d="M21,4.45L21,4.55L20.835714285714285,4.55L20.835714285714285,4.764285714285714L20.621428571428574,4.764285714285714L20.621428571428574,4.978571428571429L20.40714285714286,4.978571428571429L20.40714285714286,5.407142857142857L19.978571428571428,5.407142857142857L19.978571428571428,6.05L19.764285714285716,6.05L19.764285714285716,6.264285714285714L19.335714285714285,6.264285714285714L19.335714285714285,6.478571428571428L17.521428571428572,6.478571428571428L17.521428571428572,5.521428571428571L17.95,5.521428571428571L17.95,5.0928571428571425L18.164285714285715,5.0928571428571425L18.164285714285715,4.878571428571429L18.378571428571426,4.878571428571429L18.378571428571426,4.121428571428571L15.264285714285716,4.121428571428571L15.264285714285716,4.764285714285714L14.835714285714285,4.764285714285714L14.835714285714285,5.192857142857142L14.407142857142858,5.192857142857142L14.407142857142858,5.621428571428571L14.192857142857143,5.621428571428571L14.192857142857143,6.478571428571428L13.978571428571428,6.478571428571428L13.978571428571428,6.692857142857142L13.335714285714285,6.692857142857142L13.335714285714285,6.907142857142857L12.907142857142858,6.907142857142857L12.907142857142858,7.121428571428571L12.692857142857143,7.121428571428571L12.692857142857143,7.335714285714285L12.478571428571428,7.335714285714285L12.478571428571428,7.55L11.62142857142857,7.55L11.62142857142857,7.764285714285714L11.407142857142858,7.764285714285714L11.407142857142858,8.62142857142857L10.764285714285716,8.62142857142857L10.764285714285716,9.05L10.5,9.05L10.5,8.95L10.664285714285715,8.95L10.664285714285715,8.521428571428569L11.307142857142857,8.521428571428569L11.307142857142857,7.664285714285715L11.521428571428569,7.664285714285715L11.521428571428569,7.45L12.378571428571426,7.45L12.378571428571426,7.235714285714286L12.592857142857142,7.235714285714286L12.592857142857142,7.021428571428571L12.807142857142857,7.021428571428571L12.807142857142857,6.807142857142857L13.235714285714284,6.807142857142857L13.235714285714284,6.5928571428571425L13.878571428571426,6.5928571428571425L13.878571428571426,6.378571428571428L14.092857142857142,6.378571428571428L14.092857142857142,5.521428571428571L14.307142857142857,5.521428571428571L14.307142857142857,5.0928571428571425L14.735714285714284,5.0928571428571425L14.735714285714284,4.664285714285715L15.164285714285715,4.664285714285715L15.164285714285715,4.021428571428571L18.478571428571428,4.021428571428571L18.478571428571428,4.978571428571429L18.264285714285716,4.978571428571429L18.264285714285716,5.192857142857142L18.05,5.192857142857142L18.05,5.621428571428571L17.621428571428574,5.621428571428571L17.621428571428574,6.378571428571428L19.235714285714284,6.378571428571428L19.235714285714284,6.164285714285715L19.664285714285715,6.164285714285715L19.664285714285715,5.95L19.878571428571426,5.95L19.878571428571426,5.307142857142857L20.307142857142857,5.307142857142857L20.307142857142857,4.878571428571429L20.521428571428572,4.878571428571429L20.521428571428572,4.664285714285715L20.735714285714284,4.664285714285715L20.735714285714284,4.45z" stroke="none"/><path d="M8.95,7.5L9.05,7.5L9.05,8.192857142857143L8.835714285714285,8.192857142857143L8.835714285714285,8.407142857142858L8.62142857142857,8.407142857142858L8.62142857142857,11.092857142857142L8.835714285714285,11.092857142857142L8.835714285714285,11.307142857142857L9.264285714285716,11.307142857142857L9.264285714285716,11.521428571428569L9.692857142857143,11.521428571428569L9.692857142857143,11.95L9.907142857142858,11.95L9.907142857142858,12.592857142857142L19.45,12.592857142857142L19.45,12L19.55,12L19.55,12.692857142857143L9.807142857142857,12.692857142857143L9.807142857142857,12.05L9.592857142857142,12.05L9.592857142857142,11.62142857142857L9.164285714285715,11.62142857142857L9.164285714285715,11.407142857142858L8.735714285714284,11.407142857142858L8.735714285714284,11.192857142857143L8.521428571428569,11.192857142857143L8.521428571428569,8.307142857142857L8.735714285714284,8.307142857142857L8.735714285714284,8.092857142857142L8.95,8.092857142857142z" stroke="none"/><path d="M7.45,9L7.55,9L7.55,9.807142857142857L7.764285714285714,9.807142857142857L7.764285714285714,10.021428571428569L7.978571428571428,10.021428571428569L7.978571428571428,11.735714285714284L8.192857142857143,11.735714285714284L8.192857142857143,11.95L9.05,11.95L9.05,12.164285714285715L9.478571428571428,12.164285714285715L9.478571428571428,12.592857142857142L9.692857142857143,12.592857142857142L9.692857142857143,12.807142857142857L19.664285714285715,12.807142857142857L19.664285714285715,12.592857142857142L19.878571428571426,12.592857142857142L19.878571428571426,12.378571428571426L20.09285714285714,12.378571428571426L20.09285714285714,11.521428571428569L20.95,11.521428571428569L20.95,11.307142857142857L21.59285714285714,11.307142857142857L21.59285714285714,10.878571428571426L22.021428571428572,10.878571428571426L22.021428571428572,10.664285714285715L22.45,10.664285714285715L22.45,10.45L22.664285714285715,10.45L22.664285714285715,10.021428571428569L22.878571428571426,10.021428571428569L22.878571428571426,9.807142857142857L23.09285714285714,9.807142857142857L23.09285714285714,8.407142857142858L20.835714285714285,8.407142857142858L20.835714285714285,8.62142857142857L20.621428571428574,8.62142857142857L20.621428571428574,9.478571428571428L20.40714285714286,9.478571428571428L20.40714285714286,9.692857142857143L19.978571428571428,9.692857142857143L19.978571428571428,9.907142857142858L19.764285714285716,9.907142857142858L19.764285714285716,10.55L19.5,10.55L19.5,10.45L19.664285714285715,10.45L19.664285714285715,9.807142857142857L19.878571428571426,9.807142857142857L19.878571428571426,9.592857142857142L20.307142857142857,9.592857142857142L20.307142857142857,9.378571428571426L20.521428571428572,9.378571428571426L20.521428571428572,8.521428571428569L20.735714285714284,8.521428571428569L20.735714285714284,8.307142857142857L23.192857142857143,8.307142857142857L23.192857142857143,9.907142857142858L22.978571428571428,9.907142857142858L22.978571428571428,10.12142857142857L22.764285714285716,10.12142857142857L22.764285714285716,10.55L22.55,10.55L22.55,10.764285714285716L22.121428571428574,10.764285714285716L22.121428571428574,10.978571428571428L21.692857142857143,10.978571428571428L21.692857142857143,11.407142857142858L21.05,11.407142857142858L21.05,11.62142857142857L20.192857142857143,11.62142857142857L20.192857142857143,12.478571428571428L19.978571428571428,12.478571428571428L19.978571428571428,12.692857142857143L19.764285714285716,12.692857142857143L19.764285714285716,12.907142857142858L9.592857142857142,12.907142857142858L9.592857142857142,12.692857142857143L9.378571428571426,12.692857142857143L9.378571428571426,12.264285714285716L8.95,12.264285714285716L8.95,12.05L8.092857142857142,12.05L8.092857142857142,11.835714285714285L7.878571428571428,11.835714285714285L7.878571428571428,10.12142857142857L7.664285714285715,10.12142857142857L7.664285714285715,9.907142857142858L7.45,9.907142857142858z" stroke="none"/></svg>