<svg version="1.1" width="30" height="15" xmlns="http://www.w3.org/2000/svg"><path d="M17.307142857142857,2.7357142857142858L17.307142857142857,2.521428571428572L25.12142857142857,2.521428571428572L25.12142857142857,2.95L25.5,2.95L25.5,3.05L25.02142857142857,3.05L25.02142857142857,2.6214285714285714L17.40714285714286,2.6214285714285714L17.40714285714286,2.8357142857142854L17.192857142857143,2.8357142857142854L17.192857142857143,4.121428571428571L16.978571428571428,4.121428571428571L16.978571428571428,4.55L16.5,4.55L16.5,4.45L16.878571428571426,4.45L16.878571428571426,4.021428571428571L17.09285714285714,4.021428571428571L17.09285714285714,2.8357142857142854L16.978571428571428,2.8357142857142854L16.978571428571428,3.6928571428571426L16.764285714285716,3.6928571428571426L16.764285714285716,3.907142857142857L16.55,3.907142857142857L16.55,4.121428571428571L16.335714285714285,4.121428571428571L16.335714285714285,5.407142857142857L16.12142857142857,5.407142857142857L16.12142857142857,7.121428571428571L15.907142857142858,7.121428571428571L15.907142857142858,7.335714285714285L15.264285714285716,7.335714285714285L15.264285714285716,7.55L15,7.55L15,7.45L15.164285714285715,7.45L15.164285714285715,7.235714285714286L15.807142857142857,7.235714285714286L15.807142857142857,7.021428571428571L16.02142857142857,7.021428571428571L16.02142857142857,5.307142857142857L16.235714285714284,5.307142857142857L16.235714285714284,4.021428571428571L16.45,4.021428571428571L16.45,3.8071428571428574L16.664285714285715,3.8071428571428574L16.664285714285715,3.592857142857143L16.878571428571426,3.592857142857143L16.878571428571426,2.7357142857142858z" stroke="none"/><path d="M2.6214285714285714,4.664285714285715L2.6214285714285714,4.878571428571429L4.335714285714285,4.878571428571429L4.335714285714285,5.307142857142857L4.55,5.307142857142857L4.55,6L4.45,6L4.45,5.407142857142857L4.235714285714286,5.407142857142857L4.235714285714286,4.978571428571429L2.521428571428572,4.978571428571429L2.521428571428572,4.764285714285714L2.407142857142857,4.764285714285714L2.407142857142857,5.0928571428571425L3.2642857142857142,5.0928571428571425L3.2642857142857142,5.521428571428571L3.907142857142857,5.521428571428571L3.907142857142857,5.735714285714286L4.121428571428571,5.735714285714286L4.121428571428571,6.164285714285715L5.735714285714286,6.164285714285715L5.735714285714286,5.95L6,5.95L6,6.05L5.835714285714285,6.05L5.835714285714285,6.264285714285714L4.021428571428571,6.264285714285714L4.021428571428571,5.835714285714285L3.8071428571428574,5.835714285714285L3.8071428571428574,5.621428571428571L3.1642857142857146,5.621428571428571L3.1642857142857146,5.192857142857142L2.3071428571428574,5.192857142857142L2.3071428571428574,4.764285714285714L2.1928571428571426,4.764285714285714L2.1928571428571426,8.735714285714284L2.6214285714285714,8.735714285714284L2.6214285714285714,8.95L3,8.95L3,9.05L2.521428571428572,9.05L2.521428571428572,8.835714285714285L2.092857142857143,8.835714285714285L2.092857142857143,4.664285714285715z" stroke="none"/><path d="M6.5928571428571425,5.95L8.735714285714284,5.95L8.735714285714284,5.735714285714286L10.764285714285716,5.735714285714286L10.764285714285716,6.5928571428571425L10.978571428571428,6.5928571428571425L10.978571428571428,8.307142857142857L11.192857142857143,8.307142857142857L11.192857142857143,8.735714285714284L12.05,8.735714285714284L12.05,9L11.95,9L11.95,8.835714285714285L11.092857142857142,8.835714285714285L11.092857142857142,8.407142857142858L10.878571428571426,8.407142857142858L10.878571428571426,6.692857142857142L10.664285714285715,6.692857142857142L10.664285714285715,5.835714285714285L8.835714285714285,5.835714285714285L8.835714285714285,6.05L6.692857142857142,6.05L6.692857142857142,6.164285714285715L9.592857142857142,6.164285714285715L9.592857142857142,5.95L10.5,5.95L10.5,6.05L9.692857142857143,6.05L9.692857142857143,6.264285714285714L6.692857142857142,6.264285714285714L6.692857142857142,9.05L5.407142857142857,9.05L5.407142857142857,9.264285714285716L5.192857142857142,9.264285714285716L5.192857142857142,9.478571428571428L4.55,9.478571428571428L4.55,9.692857142857143L4.335714285714285,9.692857142857143L4.335714285714285,10.12142857142857L3.907142857142857,10.12142857142857L3.907142857142857,10.335714285714285L3.478571428571428,10.335714285714285L3.478571428571428,10.55L3,10.55L3,10.45L3.3785714285714286,10.45L3.3785714285714286,10.235714285714284L3.8071428571428574,10.235714285714284L3.8071428571428574,10.021428571428569L4.235714285714286,10.021428571428569L4.235714285714286,9.592857142857142L4.45,9.592857142857142L4.45,9.378571428571426L5.0928571428571425,9.378571428571426L5.0928571428571425,9.164285714285715L5.307142857142857,9.164285714285715L5.307142857142857,8.95L6.5928571428571425,8.95z" stroke="none"/><path d="M21.807142857142857,5.521428571428571L21.807142857142857,5.307142857142857L27.264285714285716,5.307142857142857L27.264285714285716,8.521428571428569L27.478571428571428,8.521428571428569L27.478571428571428,10.335714285714285L27.05,10.335714285714285L27.05,10.5L26.95,10.5L26.95,10.235714285714284L27.378571428571426,10.235714285714284L27.378571428571426,8.62142857142857L27.164285714285715,8.62142857142857L27.164285714285715,5.407142857142857L21.90714285714286,5.407142857142857L21.90714285714286,5.521428571428571L25.978571428571428,5.521428571428571L25.978571428571428,7.021428571428571L26.40714285714286,7.021428571428571L26.40714285714286,7.235714285714286L26.62142857142857,7.235714285714286L26.62142857142857,7.45L27,7.45L27,7.55L26.52142857142857,7.55L26.52142857142857,7.335714285714285L26.307142857142857,7.335714285714285L26.307142857142857,7.121428571428571L25.878571428571426,7.121428571428571L25.878571428571426,5.621428571428571L21.90714285714286,5.621428571428571L21.90714285714286,6.907142857142857L21.264285714285716,6.907142857142857L21.264285714285716,7.335714285714285L21.05,7.335714285714285L21.05,7.5L20.95,7.5L20.95,7.235714285714286L21.164285714285715,7.235714285714286L21.164285714285715,6.807142857142857L21.807142857142857,6.807142857142857L21.807142857142857,5.621428571428571L21.478571428571428,5.621428571428571L21.478571428571428,5.835714285714285L21.05,5.835714285714285L21.05,6L20.95,6L20.95,5.735714285714286L21.378571428571426,5.735714285714286L21.378571428571426,5.521428571428571z" stroke="none"/><path d="M12.807142857142857,8.95L12.807142857142857,8.735714285714284L13.021428571428569,8.735714285714284L13.021428571428569,8.521428571428569L15.478571428571428,8.521428571428569L15.478571428571428,8.95L15.692857142857143,8.95L15.692857142857143,10.021428571428569L16.55,10.021428571428569L16.55,10.5L16.45,10.5L16.45,10.12142857142857L15.592857142857142,10.12142857142857L15.592857142857142,9.05L15.378571428571426,9.05L15.378571428571426,8.62142857142857L13.12142857142857,8.62142857142857L13.12142857142857,8.835714285714285L12.907142857142858,8.835714285714285L12.907142857142858,8.95L13.12142857142857,8.95L13.12142857142857,9.378571428571426L13.55,9.378571428571426L13.55,9.592857142857142L13.764285714285716,9.592857142857142L13.764285714285716,9.807142857142857L13.978571428571428,9.807142857142857L13.978571428571428,10.45L14.192857142857143,10.45L14.192857142857143,10.664285714285715L14.407142857142858,10.664285714285715L14.407142857142858,11.735714285714284L14.835714285714285,11.735714285714284L14.835714285714285,11.95L15,11.95L15,12.05L14.735714285714284,12.05L14.735714285714284,11.835714285714285L14.307142857142857,11.835714285714285L14.307142857142857,10.764285714285716L14.092857142857142,10.764285714285716L14.092857142857142,10.55L13.878571428571426,10.55L13.878571428571426,9.907142857142858L13.664285714285715,9.907142857142858L13.664285714285715,9.692857142857143L13.45,9.692857142857143L13.45,9.478571428571428L13.021428571428569,9.478571428571428L13.021428571428569,9.05L12.907142857142858,9.05L12.907142857142858,9.692857142857143L12.478571428571428,9.692857142857143L12.478571428571428,10.12142857142857L11.835714285714285,10.12142857142857L11.835714285714285,10.335714285714285L11.62142857142857,10.335714285714285L11.62142857142857,10.55L10.5,10.55L10.5,10.45L11.521428571428569,10.45L11.521428571428569,10.235714285714284L11.735714285714284,10.235714285714284L11.735714285714284,10.021428571428569L12.378571428571426,10.021428571428569L12.378571428571426,9.592857142857142L12.807142857142857,9.592857142857142L12.807142857142857,9.05L12.592857142857142,9.05L12.592857142857142,8.521428571428569L12.807142857142857,8.521428571428569L12.807142857142857,8.307142857142857L15.907142857142858,8.307142857142857L15.907142857142858,9.164285714285715L16.335714285714285,9.164285714285715L16.335714285714285,9.807142857142857L16.764285714285716,9.807142857142857L16.764285714285716,10.664285714285715L16.978571428571428,10.664285714285715L16.978571428571428,11.307142857142857L17.835714285714285,11.307142857142857L17.835714285714285,11.95L18,11.95L18,12.05L17.735714285714284,12.05L17.735714285714284,11.407142857142858L16.878571428571426,11.407142857142858L16.878571428571426,10.764285714285716L16.664285714285715,10.764285714285716L16.664285714285715,9.907142857142858L16.235714285714284,9.907142857142858L16.235714285714284,9.264285714285716L15.807142857142857,9.264285714285716L15.807142857142857,8.407142857142858L12.907142857142858,8.407142857142858L12.907142857142858,8.62142857142857L12.692857142857143,8.62142857142857L12.692857142857143,8.95z" stroke="none"/><path d="M8.95,1.45L8.95,1.2357142857142858L12.907142857142858,1.2357142857142858L12.907142857142858,1.45L13.12142857142857,1.45L13.12142857142857,2.092857142857143L13.55,2.092857142857143L13.55,2.7357142857142858L13.978571428571428,2.7357142857142858L13.978571428571428,3.592857142857143L14.192857142857143,3.592857142857143L14.192857142857143,3.8071428571428574L14.407142857142858,3.8071428571428574L14.407142857142858,4.235714285714286L14.835714285714285,4.235714285714286L14.835714285714285,4.45L15,4.45L15,4.55L14.735714285714284,4.55L14.735714285714284,4.335714285714285L14.307142857142857,4.335714285714285L14.307142857142857,3.907142857142857L14.092857142857142,3.907142857142857L14.092857142857142,3.6928571428571426L13.878571428571426,3.6928571428571426L13.878571428571426,2.8357142857142854L13.45,2.8357142857142854L13.45,2.1928571428571426L13.021428571428569,2.1928571428571426L13.021428571428569,1.55L12.807142857142857,1.55L12.807142857142857,1.3357142857142859L9.05,1.3357142857142859L9.05,1.45L12.692857142857143,1.45L12.692857142857143,1.8785714285714286L12.907142857142858,1.8785714285714286L12.907142857142858,2.3071428571428574L13.335714285714285,2.3071428571428574L13.335714285714285,2.95L13.5,2.95L13.5,3.05L13.235714285714284,3.05L13.235714285714284,2.407142857142857L12.807142857142857,2.407142857142857L12.807142857142857,1.9785714285714286L12.592857142857142,1.9785714285714286L12.592857142857142,1.55L9.05,1.55L9.05,1.8785714285714286L10.335714285714285,1.8785714285714286L10.335714285714285,2.3071428571428574L10.55,2.3071428571428574L10.55,2.521428571428572L10.764285714285716,2.521428571428572L10.764285714285716,3.1642857142857146L11.407142857142858,3.1642857142857146L11.407142857142858,3.592857142857143L11.62142857142857,3.592857142857143L11.62142857142857,4.021428571428571L11.835714285714285,4.021428571428571L11.835714285714285,4.235714285714286L12.05,4.235714285714286L12.05,4.5L11.95,4.5L11.95,4.335714285714285L11.735714285714284,4.335714285714285L11.735714285714284,4.121428571428571L11.521428571428569,4.121428571428571L11.521428571428569,3.6928571428571426L11.307142857142857,3.6928571428571426L11.307142857142857,3.2642857142857142L10.664285714285715,3.2642857142857142L10.664285714285715,2.6214285714285714L10.45,2.6214285714285714L10.45,2.407142857142857L10.235714285714284,2.407142857142857L10.235714285714284,1.9785714285714286L8.95,1.9785714285714286L8.95,1.55L7.335714285714285,1.55L7.335714285714285,1.7642857142857145L6.264285714285714,1.7642857142857145L6.264285714285714,2.407142857142857L4.764285714285714,2.407142857142857L4.764285714285714,2.8357142857142854L4.55,2.8357142857142854L4.55,3L4.45,3L4.45,2.7357142857142858L4.664285714285715,2.7357142857142858L4.664285714285715,2.3071428571428574L6.164285714285715,2.3071428571428574L6.164285714285715,1.6642857142857144L7.235714285714286,1.6642857142857144L7.235714285714286,1.45z" stroke="none"/><path d="M3,4.55L3,4.45L5.192857142857142,4.45L5.192857142857142,5.0928571428571425L5.407142857142857,5.0928571428571425L5.407142857142857,5.307142857142857L6.478571428571428,5.307142857142857L6.478571428571428,6.478571428571428L3.1642857142857146,6.478571428571428L3.1642857142857146,6.264285714285714L2.95,6.264285714285714L2.95,6L3.05,6L3.05,6.164285714285715L3.2642857142857142,6.164285714285715L3.2642857142857142,6.378571428571428L6.378571428571428,6.378571428571428L6.378571428571428,5.407142857142857L5.307142857142857,5.407142857142857L5.307142857142857,5.192857142857142L5.0928571428571425,5.192857142857142L5.0928571428571425,4.55z" stroke="none"/><path d="M25.5,10.45L25.5,10.55L24,10.55L24,10.45z" stroke="none"/><path d="M13.5,5.95L13.5,6.05L12,6.05L12,5.95z" stroke="none"/><path d="M4.5,10.45L4.5,10.55L3.6928571428571426,10.55L3.6928571428571426,10.764285714285716L3.478571428571428,10.764285714285716L3.478571428571428,10.978571428571428L2.521428571428572,10.978571428571428L2.521428571428572,10.021428571428569L3.1642857142857146,10.021428571428569L3.1642857142857146,9.807142857142857L3.3785714285714286,9.807142857142857L3.3785714285714286,9.592857142857142L3.592857142857143,9.592857142857142L3.592857142857143,9.378571428571426L4.235714285714286,9.378571428571426L4.235714285714286,9.164285714285715L4.45,9.164285714285715L4.45,9L4.55,9L4.55,9.264285714285716L4.335714285714285,9.264285714285716L4.335714285714285,9.478571428571428L3.6928571428571426,9.478571428571428L3.6928571428571426,9.692857142857143L3.478571428571428,9.692857142857143L3.478571428571428,9.907142857142858L3.2642857142857142,9.907142857142858L3.2642857142857142,10.12142857142857L2.6214285714285714,10.12142857142857L2.6214285714285714,10.878571428571426L3.3785714285714286,10.878571428571426L3.3785714285714286,10.664285714285715L3.592857142857143,10.664285714285715L3.592857142857143,10.45z" stroke="none"/><path d="M9,11.95L9,12.05L8.092857142857142,12.05L8.092857142857142,11.192857142857143L7.664285714285715,11.192857142857143L7.664285714285715,10.764285714285716L7.45,10.764285714285716L7.45,10.5L7.55,10.5L7.55,10.664285714285715L7.764285714285714,10.664285714285715L7.764285714285714,11.092857142857142L8.192857142857143,11.092857142857142L8.192857142857143,11.95z" stroke="none"/><path d="M27.05,9L26.95,9L26.95,8.192857142857143L26.735714285714284,8.192857142857143L26.735714285714284,7.978571428571428L26.307142857142857,7.978571428571428L26.307142857142857,7.764285714285714L25.664285714285715,7.764285714285714L25.664285714285715,7.55L25.5,7.55L25.5,7.45L25.764285714285716,7.45L25.764285714285716,7.664285714285715L26.40714285714286,7.664285714285715L26.40714285714286,7.878571428571428L26.835714285714285,7.878571428571428L26.835714285714285,8.092857142857142L27.05,8.092857142857142z" stroke="none"/><path d="M19.5,4.45L19.5,4.55L18.807142857142857,4.55L18.807142857142857,4.335714285714285L18.378571428571426,4.335714285714285L18.378571428571426,3.907142857142857L18.164285714285715,3.907142857142857L18.164285714285715,3.2642857142857142L17.95,3.2642857142857142L17.95,3L18.05,3L18.05,3.1642857142857146L18.264285714285716,3.1642857142857146L18.264285714285716,3.8071428571428574L18.478571428571428,3.8071428571428574L18.478571428571428,4.235714285714286L18.90714285714286,4.235714285714286L18.90714285714286,4.45z" stroke="none"/><path d="M22.55,9L22.45,9L22.45,8.407142857142858L22.021428571428572,8.407142857142858L22.021428571428572,6.807142857142857L22.235714285714284,6.807142857142857L22.235714285714284,6.378571428571428L22.45,6.378571428571428L22.45,6L22.55,6L22.55,6.478571428571428L22.335714285714285,6.478571428571428L22.335714285714285,6.907142857142857L22.121428571428574,6.907142857142857L22.121428571428574,8.307142857142857L22.55,8.307142857142857z" stroke="none"/><path d="M16.45,3L16.55,3L16.55,3.6928571428571426L16.335714285714285,3.6928571428571426L16.335714285714285,3.907142857142857L16.12142857142857,3.907142857142857L16.12142857142857,4.764285714285714L15.907142857142858,4.764285714285714L15.907142857142858,6.05L15.692857142857143,6.05L15.692857142857143,6.478571428571428L15.264285714285716,6.478571428571428L15.264285714285716,6.907142857142857L14.62142857142857,6.907142857142857L14.62142857142857,7.878571428571428L15.592857142857142,7.878571428571428L15.592857142857142,7.664285714285715L15.807142857142857,7.664285714285715L15.807142857142857,7.45L16.02142857142857,7.45L16.02142857142857,7.235714285714286L16.235714285714284,7.235714285714286L16.235714285714284,6.5928571428571425L16.45,6.5928571428571425L16.45,6L16.55,6L16.55,6.692857142857142L16.335714285714285,6.692857142857142L16.335714285714285,7.335714285714285L16.12142857142857,7.335714285714285L16.12142857142857,7.55L15.907142857142858,7.55L15.907142857142858,7.764285714285714L15.692857142857143,7.764285714285714L15.692857142857143,7.978571428571428L14.521428571428569,7.978571428571428L14.521428571428569,6.807142857142857L15.164285714285715,6.807142857142857L15.164285714285715,6.378571428571428L15.592857142857142,6.378571428571428L15.592857142857142,5.95L15.807142857142857,5.95L15.807142857142857,4.664285714285715L16.02142857142857,4.664285714285715L16.02142857142857,3.8071428571428574L16.235714285714284,3.8071428571428574L16.235714285714284,3.592857142857143L16.45,3.592857142857143z" stroke="none"/><path d="M18,10.55L18,10.45L18.807142857142857,10.45L18.807142857142857,10.235714285714284L19.021428571428572,10.235714285714284L19.021428571428572,10.021428571428569L21.05,10.021428571428569L21.05,10.5L20.95,10.5L20.95,10.12142857142857L19.121428571428574,10.12142857142857L19.121428571428574,10.335714285714285L18.90714285714286,10.335714285714285L18.90714285714286,10.55z" stroke="none"/><path d="M22.45,7.5L22.55,7.5L22.55,8.092857142857142L22.764285714285716,8.092857142857142L22.764285714285716,8.521428571428569L22.978571428571428,8.521428571428569L22.978571428571428,9.478571428571428L20.09285714285714,9.478571428571428L20.09285714285714,9.05L19.5,9.05L19.5,8.95L20.192857142857143,8.95L20.192857142857143,9.378571428571426L22.878571428571426,9.378571428571426L22.878571428571426,8.62142857142857L22.664285714285715,8.62142857142857L22.664285714285715,8.192857142857143L22.45,8.192857142857143z" stroke="none"/><path d="M22.55,12L22.45,12L22.45,11.307142857142857L23.09285714285714,11.307142857142857L23.09285714285714,10.021428571428569L24.59285714285714,10.021428571428569L24.59285714285714,9.378571428571426L25.235714285714284,9.378571428571426L25.235714285714284,8.95L25.5,8.95L25.5,9.05L25.335714285714285,9.05L25.335714285714285,9.478571428571428L24.692857142857143,9.478571428571428L24.692857142857143,10.12142857142857L23.192857142857143,10.12142857142857L23.192857142857143,11.407142857142858L22.55,11.407142857142858z" stroke="none"/><path d="M8.95,3L9.05,3L9.05,4.235714285714286L9.264285714285716,4.235714285714286L9.264285714285716,4.45L9.478571428571428,4.45L9.478571428571428,5.0928571428571425L10.335714285714285,5.0928571428571425L10.335714285714285,5.307142857142857L10.978571428571428,5.307142857142857L10.978571428571428,6.378571428571428L11.192857142857143,6.378571428571428L11.192857142857143,7.45L11.62142857142857,7.45L11.62142857142857,7.664285714285715L11.835714285714285,7.664285714285715L11.835714285714285,7.878571428571428L12.05,7.878571428571428L12.05,8.521428571428569L12.478571428571428,8.521428571428569L12.478571428571428,9.478571428571428L11.092857142857142,9.478571428571428L11.092857142857142,9.264285714285716L10.878571428571426,9.264285714285716L10.878571428571426,9.05L10.664285714285715,9.05L10.664285714285715,8.192857142857143L10.021428571428569,8.192857142857143L10.021428571428569,7.764285714285714L9.592857142857142,7.764285714285714L9.592857142857142,7.55L9,7.55L9,7.45L9.692857142857143,7.45L9.692857142857143,7.664285714285715L10.12142857142857,7.664285714285715L10.12142857142857,8.092857142857142L10.764285714285716,8.092857142857142L10.764285714285716,8.95L10.978571428571428,8.95L10.978571428571428,9.164285714285715L11.192857142857143,9.164285714285715L11.192857142857143,9.378571428571426L12.378571428571426,9.378571428571426L12.378571428571426,8.62142857142857L11.95,8.62142857142857L11.95,7.978571428571428L11.735714285714284,7.978571428571428L11.735714285714284,7.764285714285714L11.521428571428569,7.764285714285714L11.521428571428569,7.55L11.092857142857142,7.55L11.092857142857142,6.478571428571428L10.878571428571426,6.478571428571428L10.878571428571426,5.407142857142857L10.235714285714284,5.407142857142857L10.235714285714284,5.192857142857142L9.378571428571426,5.192857142857142L9.378571428571426,4.55L9.164285714285715,4.55L9.164285714285715,4.335714285714285L8.95,4.335714285714285z" stroke="none"/><path d="M21,4.55L21,4.45L25.5,4.45L25.5,4.55z" stroke="none"/><path d="M19.5,10.55L19.5,10.45L20.192857142857143,10.45L20.192857142857143,10.664285714285715L20.621428571428574,10.664285714285715L20.621428571428574,10.878571428571426L21.378571428571426,10.878571428571426L21.378571428571426,10.021428571428569L21.59285714285714,10.021428571428569L21.59285714285714,9.807142857142857L23.307142857142857,9.807142857142857L23.307142857142857,9.592857142857142L23.735714285714284,9.592857142857142L23.735714285714284,9.164285714285715L23.95,9.164285714285715L23.95,9L24.05,9L24.05,9.264285714285716L23.835714285714285,9.264285714285716L23.835714285714285,9.692857142857143L23.40714285714286,9.692857142857143L23.40714285714286,9.907142857142858L21.692857142857143,9.907142857142858L21.692857142857143,10.12142857142857L21.478571428571428,10.12142857142857L21.478571428571428,10.978571428571428L20.521428571428572,10.978571428571428L20.521428571428572,10.764285714285716L20.09285714285714,10.764285714285716L20.09285714285714,10.55z" stroke="none"/><path d="M4.5,11.95L4.5,12.05L2.521428571428572,12.05L2.521428571428572,11.835714285714285L2.3071428571428574,11.835714285714285L2.3071428571428574,9.807142857142857L2.95,9.807142857142857L2.95,9.592857142857142L3.1642857142857146,9.592857142857142L3.1642857142857146,9.378571428571426L3.3785714285714286,9.378571428571426L3.3785714285714286,7.764285714285714L2.95,7.764285714285714L2.95,7.5L3.05,7.5L3.05,7.664285714285715L3.478571428571428,7.664285714285715L3.478571428571428,9.478571428571428L3.2642857142857142,9.478571428571428L3.2642857142857142,9.692857142857143L3.05,9.692857142857143L3.05,9.907142857142858L2.407142857142857,9.907142857142858L2.407142857142857,11.735714285714284L2.6214285714285714,11.735714285714284L2.6214285714285714,11.95z" stroke="none"/><path d="M7.45,12L7.55,12L7.55,12.164285714285715L8.62142857142857,12.164285714285715L8.62142857142857,12.378571428571426L15.378571428571426,12.378571428571426L15.378571428571426,10.764285714285716L15.164285714285715,10.764285714285716L15.164285714285715,10.12142857142857L14.95,10.12142857142857L14.95,9.907142857142858L14.307142857142857,9.907142857142858L14.307142857142857,9.478571428571428L14.092857142857142,9.478571428571428L14.092857142857142,9.264285714285716L13.45,9.264285714285716L13.45,9L13.55,9L13.55,9.164285714285715L14.192857142857143,9.164285714285715L14.192857142857143,9.378571428571426L14.407142857142858,9.378571428571426L14.407142857142858,9.807142857142857L15.05,9.807142857142857L15.05,10.021428571428569L15.264285714285716,10.021428571428569L15.264285714285716,10.664285714285715L15.478571428571428,10.664285714285715L15.478571428571428,12.478571428571428L8.521428571428569,12.478571428571428L8.521428571428569,12.264285714285716L7.45,12.264285714285716z" stroke="none"/><path d="M7.45,9L7.55,9L7.55,9.164285714285715L7.978571428571428,9.164285714285715L7.978571428571428,9.807142857142857L8.192857142857143,9.807142857142857L8.192857142857143,10.235714285714284L8.407142857142858,10.235714285714284L8.407142857142858,10.45L9.907142857142858,10.45L9.907142857142858,10.878571428571426L12.907142857142858,10.878571428571426L12.907142857142858,11.307142857142857L13.12142857142857,11.307142857142857L13.12142857142857,11.735714285714284L13.55,11.735714285714284L13.55,12L13.45,12L13.45,11.835714285714285L13.021428571428569,11.835714285714285L13.021428571428569,11.407142857142858L12.807142857142857,11.407142857142858L12.807142857142857,10.978571428571428L9.807142857142857,10.978571428571428L9.807142857142857,10.55L8.307142857142857,10.55L8.307142857142857,10.335714285714285L8.092857142857142,10.335714285714285L8.092857142857142,9.907142857142858L7.878571428571428,9.907142857142858L7.878571428571428,9.264285714285716L7.45,9.264285714285716z" stroke="none"/><path d="M18.05,7.5L17.95,7.5L17.95,6.5928571428571425L18.378571428571426,6.5928571428571425L18.378571428571426,5.735714285714286L18.59285714285714,5.735714285714286L18.59285714285714,5.307142857142857L19.021428571428572,5.307142857142857L19.021428571428572,5.0928571428571425L19.45,5.0928571428571425L19.45,4.878571428571429L19.878571428571426,4.878571428571429L19.878571428571426,4.021428571428571L22.878571428571426,4.021428571428571L22.878571428571426,3.8071428571428574L23.09285714285714,3.8071428571428574L23.09285714285714,3.592857142857143L23.307142857142857,3.592857142857143L23.307142857142857,3.3785714285714286L23.52142857142857,3.3785714285714286L23.52142857142857,3.1642857142857146L23.95,3.1642857142857146L23.95,3L24.05,3L24.05,3.2642857142857142L23.62142857142857,3.2642857142857142L23.62142857142857,3.478571428571428L23.40714285714286,3.478571428571428L23.40714285714286,3.6928571428571426L23.192857142857143,3.6928571428571426L23.192857142857143,3.907142857142857L22.978571428571428,3.907142857142857L22.978571428571428,4.121428571428571L19.978571428571428,4.121428571428571L19.978571428571428,4.978571428571429L19.55,4.978571428571429L19.55,5.192857142857142L19.121428571428574,5.192857142857142L19.121428571428574,5.407142857142857L18.692857142857143,5.407142857142857L18.692857142857143,5.835714285714285L18.478571428571428,5.835714285714285L18.478571428571428,6.692857142857142L18.05,6.692857142857142z" stroke="none"/><path d="M19.5,7.45L19.5,7.55L18.478571428571428,7.55L18.478571428571428,7.978571428571428L16.12142857142857,7.978571428571428L16.12142857142857,8.192857142857143L14.307142857142857,8.192857142857143L14.307142857142857,6.05L14.092857142857142,6.05L14.092857142857142,5.621428571428571L13.664285714285715,5.621428571428571L13.664285714285715,4.55L13.45,4.55L13.45,4.335714285714285L13.235714285714284,4.335714285714285L13.235714285714284,3.6928571428571426L12.807142857142857,3.6928571428571426L12.807142857142857,3.2642857142857142L12.164285714285715,3.2642857142857142L12.164285714285715,3.05L12,3.05L12,2.95L12.264285714285716,2.95L12.264285714285716,3.1642857142857146L12.907142857142858,3.1642857142857146L12.907142857142858,3.592857142857143L13.335714285714285,3.592857142857143L13.335714285714285,4.235714285714286L13.55,4.235714285714286L13.55,4.45L13.764285714285716,4.45L13.764285714285716,5.521428571428571L14.192857142857143,5.521428571428571L14.192857142857143,5.95L14.407142857142858,5.95L14.407142857142858,8.092857142857142L16.02142857142857,8.092857142857142L16.02142857142857,7.878571428571428L18.378571428571426,7.878571428571428L18.378571428571426,7.45z" stroke="none"/><path d="M27,11.95L27,12.05L23.40714285714286,12.05L23.40714285714286,12.264285714285716L22.978571428571428,12.264285714285716L22.978571428571428,12.478571428571428L16.878571428571426,12.478571428571428L16.878571428571426,12.264285714285716L16.45,12.264285714285716L16.45,12L16.55,12L16.55,12.164285714285715L16.978571428571428,12.164285714285715L16.978571428571428,12.378571428571426L22.878571428571426,12.378571428571426L22.878571428571426,12.164285714285715L23.307142857142857,12.164285714285715L23.307142857142857,11.95z" stroke="none"/><path d="M10.5,11.95L10.5,12.05L9.378571428571426,12.05L9.378571428571426,11.62142857142857L8.95,11.62142857142857L8.95,11.407142857142858L8.307142857142857,11.407142857142858L8.307142857142857,10.764285714285716L8.092857142857142,10.764285714285716L8.092857142857142,10.55L7.878571428571428,10.55L7.878571428571428,10.12142857142857L7.121428571428571,10.12142857142857L7.121428571428571,12.378571428571426L8.407142857142858,12.378571428571426L8.407142857142858,12.592857142857142L26.95,12.592857142857142L26.95,12.378571428571426L27.378571428571426,12.378571428571426L27.378571428571426,10.978571428571428L26.52142857142857,10.978571428571428L26.52142857142857,9.05L26.307142857142857,9.05L26.307142857142857,8.835714285714285L25.878571428571426,8.835714285714285L25.878571428571426,8.62142857142857L23.62142857142857,8.62142857142857L23.62142857142857,9.264285714285716L23.40714285714286,9.264285714285716L23.40714285714286,9.478571428571428L23.192857142857143,9.478571428571428L23.192857142857143,9.692857142857143L17.621428571428574,9.692857142857143L17.621428571428574,10.878571428571426L18.05,10.878571428571426L18.05,11.092857142857142L18.692857142857143,11.092857142857142L18.692857142857143,11.307142857142857L20.192857142857143,11.307142857142857L20.192857142857143,11.521428571428569L20.40714285714286,11.521428571428569L20.40714285714286,11.735714285714284L21.05,11.735714285714284L21.05,12L20.95,12L20.95,11.835714285714285L20.307142857142857,11.835714285714285L20.307142857142857,11.62142857142857L20.09285714285714,11.62142857142857L20.09285714285714,11.407142857142858L18.59285714285714,11.407142857142858L18.59285714285714,11.192857142857143L17.95,11.192857142857143L17.95,10.978571428571428L17.521428571428572,10.978571428571428L17.521428571428572,9.592857142857142L23.09285714285714,9.592857142857142L23.09285714285714,9.378571428571426L23.307142857142857,9.378571428571426L23.307142857142857,9.164285714285715L23.52142857142857,9.164285714285715L23.52142857142857,8.521428571428569L25.978571428571428,8.521428571428569L25.978571428571428,8.735714285714284L26.40714285714286,8.735714285714284L26.40714285714286,8.95L26.62142857142857,8.95L26.62142857142857,10.878571428571426L27.478571428571428,10.878571428571426L27.478571428571428,12.478571428571428L27.05,12.478571428571428L27.05,12.692857142857143L8.307142857142857,12.692857142857143L8.307142857142857,12.478571428571428L7.021428571428571,12.478571428571428L7.021428571428571,10.021428571428569L7.978571428571428,10.021428571428569L7.978571428571428,10.45L8.192857142857143,10.45L8.192857142857143,10.664285714285715L8.407142857142858,10.664285714285715L8.407142857142858,11.307142857142857L9.05,11.307142857142857L9.05,11.521428571428569L9.478571428571428,11.521428571428569L9.478571428571428,11.95z" stroke="none"/><path d="M21.05,9L20.95,9L20.95,8.192857142857143L20.735714285714284,8.192857142857143L20.735714285714284,7.978571428571428L20.521428571428572,7.978571428571428L20.521428571428572,5.521428571428571L20.95,5.521428571428571L20.95,5.307142857142857L21.378571428571426,5.307142857142857L21.378571428571426,5.0928571428571425L27.478571428571428,5.0928571428571425L27.478571428571428,8.307142857142857L27.692857142857143,8.307142857142857L27.692857142857143,12.907142857142858L7.45,12.907142857142858L7.45,12.692857142857143L6.807142857142857,12.692857142857143L6.807142857142857,8.735714285714284L7.021428571428571,8.735714285714284L7.021428571428571,8.521428571428569L7.878571428571428,8.521428571428569L7.878571428571428,7.664285714285715L8.092857142857142,7.664285714285715L8.092857142857142,7.45L8.307142857142857,7.45L8.307142857142857,7.235714285714286L8.521428571428569,7.235714285714286L8.521428571428569,7.021428571428571L10.335714285714285,7.021428571428571L10.335714285714285,7.235714285714286L10.55,7.235714285714286L10.55,7.5L10.45,7.5L10.45,7.335714285714285L10.235714285714284,7.335714285714285L10.235714285714284,7.121428571428571L8.62142857142857,7.121428571428571L8.62142857142857,7.335714285714285L8.407142857142858,7.335714285714285L8.407142857142858,7.55L8.192857142857143,7.55L8.192857142857143,7.764285714285714L7.978571428571428,7.764285714285714L7.978571428571428,8.62142857142857L7.121428571428571,8.62142857142857L7.121428571428571,8.835714285714285L6.907142857142857,8.835714285714285L6.907142857142857,12.592857142857142L7.55,12.592857142857142L7.55,12.807142857142857L27.59285714285714,12.807142857142857L27.59285714285714,8.407142857142858L27.378571428571426,8.407142857142858L27.378571428571426,5.192857142857142L21.478571428571428,5.192857142857142L21.478571428571428,5.407142857142857L21.05,5.407142857142857L21.05,5.621428571428571L20.621428571428574,5.621428571428571L20.621428571428574,7.878571428571428L20.835714285714285,7.878571428571428L20.835714285714285,8.092857142857142L21.05,8.092857142857142z" stroke="none"/><path d="M3,3.05L3,2.95L3.8071428571428574,2.95L3.8071428571428574,2.7357142857142858L4.021428571428571,2.7357142857142858L4.021428571428571,2.521428571428572L4.45,2.521428571428572L4.45,2.092857142857143L5.735714285714286,2.092857142857143L5.735714285714286,1.6642857142857144L5.95,1.6642857142857144L5.95,1.45L7.021428571428571,1.45L7.021428571428571,1.2357142857142858L8.092857142857142,1.2357142857142858L8.092857142857142,1.0214285714285716L13.335714285714285,1.0214285714285716L13.335714285714285,1.6642857142857144L13.764285714285716,1.6642857142857144L13.764285714285716,1.8785714285714286L14.192857142857143,1.8785714285714286L14.192857142857143,2.092857142857143L14.62142857142857,2.092857142857143L14.62142857142857,2.3071428571428574L14.835714285714285,2.3071428571428574L14.835714285714285,2.95L15,2.95L15,3.05L14.735714285714284,3.05L14.735714285714284,2.407142857142857L14.521428571428569,2.407142857142857L14.521428571428569,2.1928571428571426L14.092857142857142,2.1928571428571426L14.092857142857142,1.9785714285714286L13.664285714285715,1.9785714285714286L13.664285714285715,1.7642857142857145L13.235714285714284,1.7642857142857145L13.235714285714284,1.1214285714285717L8.192857142857143,1.1214285714285717L8.192857142857143,1.3357142857142859L7.121428571428571,1.3357142857142859L7.121428571428571,1.55L6.05,1.55L6.05,1.7642857142857145L5.835714285714285,1.7642857142857145L5.835714285714285,2.1928571428571426L4.55,2.1928571428571426L4.55,2.6214285714285714L4.121428571428571,2.6214285714285714L4.121428571428571,2.8357142857142854L3.907142857142857,2.8357142857142854L3.907142857142857,3.05z" stroke="none"/></svg>