<svg version="1.1" width="30" height="15" xmlns="http://www.w3.org/2000/svg"><path d="M18.807142857142857,8.95L18.807142857142857,8.735714285714284L20.307142857142857,8.735714285714284L20.307142857142857,8.521428571428569L22.021428571428572,8.521428571428569L22.021428571428572,8.307142857142857L23.307142857142857,8.307142857142857L23.307142857142857,8.092857142857142L23.52142857142857,8.092857142857142L23.52142857142857,7.878571428571428L23.735714285714284,7.878571428571428L23.735714285714284,7.664285714285715L23.95,7.664285714285715L23.95,7.5L24.05,7.5L24.05,7.764285714285714L23.835714285714285,7.764285714285714L23.835714285714285,7.978571428571428L23.62142857142857,7.978571428571428L23.62142857142857,8.192857142857143L23.40714285714286,8.192857142857143L23.40714285714286,8.407142857142858L22.121428571428574,8.407142857142858L22.121428571428574,8.62142857142857L20.40714285714286,8.62142857142857L20.40714285714286,8.835714285714285L18.90714285714286,8.835714285714285L18.90714285714286,8.95L19.5,8.95L19.5,9.05L18.692857142857143,9.05L18.692857142857143,9.264285714285716L18.478571428571428,9.264285714285716L18.478571428571428,9.478571428571428L16.12142857142857,9.478571428571428L16.12142857142857,9.692857142857143L14.407142857142858,9.692857142857143L14.407142857142858,9.907142857142858L13.764285714285716,9.907142857142858L13.764285714285716,10.12142857142857L13.55,10.12142857142857L13.55,10.5L13.45,10.5L13.45,10.021428571428569L13.664285714285715,10.021428571428569L13.664285714285715,9.807142857142857L14.307142857142857,9.807142857142857L14.307142857142857,9.592857142857142L16.02142857142857,9.592857142857142L16.02142857142857,9.378571428571426L18.378571428571426,9.378571428571426L18.378571428571426,9.164285714285715L18.59285714285714,9.164285714285715L18.59285714285714,8.95z" stroke="none"/><path d="M9.378571428571426,5.95L9.378571428571426,3.6928571428571426L9.164285714285715,3.6928571428571426L9.164285714285715,3.478571428571428L8.95,3.478571428571428L8.95,3L9.05,3L9.05,3.3785714285714286L9.264285714285716,3.3785714285714286L9.264285714285716,3.592857142857143L9.478571428571428,3.592857142857143L9.478571428571428,6.164285714285715L9.907142857142858,6.164285714285715L9.907142857142858,6.378571428571428L12.478571428571428,6.378571428571428L12.478571428571428,6.5928571428571425L13.55,6.5928571428571425L13.55,6.807142857142857L13.978571428571428,6.807142857142857L13.978571428571428,7.235714285714286L14.407142857142858,7.235714285714286L14.407142857142858,7.45L15,7.45L15,7.55L14.307142857142857,7.55L14.307142857142857,7.335714285714285L13.878571428571426,7.335714285714285L13.878571428571426,6.907142857142857L13.45,6.907142857142857L13.45,6.692857142857142L12.378571428571426,6.692857142857142L12.378571428571426,6.478571428571428L9.807142857142857,6.478571428571428L9.807142857142857,6.264285714285714L9.378571428571426,6.264285714285714L9.378571428571426,6.05L8.192857142857143,6.05L8.192857142857143,6.264285714285714L7.978571428571428,6.264285714285714L7.978571428571428,6.478571428571428L6.692857142857142,6.478571428571428L6.692857142857142,6.692857142857142L6.264285714285714,6.692857142857142L6.264285714285714,6.907142857142857L5.407142857142857,6.907142857142857L5.407142857142857,7.335714285714285L4.55,7.335714285714285L4.55,7.5L4.45,7.5L4.45,7.235714285714286L5.307142857142857,7.235714285714286L5.307142857142857,6.807142857142857L6.164285714285715,6.807142857142857L6.164285714285715,6.5928571428571425L6.5928571428571425,6.5928571428571425L6.5928571428571425,6.378571428571428L7.878571428571428,6.378571428571428L7.878571428571428,6.164285714285715L8.092857142857142,6.164285714285715L8.092857142857142,5.95z" stroke="none"/><path d="M20.95,4.45L20.95,4.235714285714286L22.45,4.235714285714286L22.45,4.021428571428571L22.664285714285715,4.021428571428571L22.664285714285715,3.3785714285714286L23.52142857142857,3.3785714285714286L23.52142857142857,2.95L23.735714285714284,2.95L23.735714285714284,2.7357142857142858L25.55,2.7357142857142858L25.55,3L25.45,3L25.45,2.8357142857142854L23.835714285714285,2.8357142857142854L23.835714285714285,3.05L23.62142857142857,3.05L23.62142857142857,3.478571428571428L22.764285714285716,3.478571428571428L22.764285714285716,4.121428571428571L22.55,4.121428571428571L22.55,4.335714285714285L21.05,4.335714285714285L21.05,4.45L22.878571428571426,4.45L22.878571428571426,3.8071428571428574L23.09285714285714,3.8071428571428574L23.09285714285714,3.592857142857143L23.735714285714284,3.592857142857143L23.735714285714284,3.3785714285714286L23.95,3.3785714285714286L23.95,3L24.05,3L24.05,3.478571428571428L23.835714285714285,3.478571428571428L23.835714285714285,3.6928571428571426L23.192857142857143,3.6928571428571426L23.192857142857143,3.907142857142857L22.978571428571428,3.907142857142857L22.978571428571428,4.55L17.621428571428574,4.55L17.621428571428574,4.764285714285714L16.55,4.764285714285714L16.55,5.192857142857142L16.12142857142857,5.192857142857142L16.12142857142857,5.621428571428571L15.692857142857143,5.621428571428571L15.692857142857143,7.121428571428571L15.478571428571428,7.121428571428571L15.478571428571428,7.978571428571428L14.307142857142857,7.978571428571428L14.307142857142857,7.764285714285714L13.878571428571426,7.764285714285714L13.878571428571426,7.55L13.5,7.55L13.5,7.45L13.978571428571428,7.45L13.978571428571428,7.664285714285715L14.407142857142858,7.664285714285715L14.407142857142858,7.878571428571428L15.378571428571426,7.878571428571428L15.378571428571426,7.021428571428571L15.592857142857142,7.021428571428571L15.592857142857142,5.521428571428571L16.02142857142857,5.521428571428571L16.02142857142857,5.0928571428571425L16.45,5.0928571428571425L16.45,4.664285714285715L17.521428571428572,4.664285714285715L17.521428571428572,4.45z" stroke="none"/><path d="M22.664285714285715,9.164285714285715L22.664285714285715,8.95L23.307142857142857,8.95L23.307142857142857,8.735714285714284L24.807142857142857,8.735714285714284L24.807142857142857,8.521428571428569L26.09285714285714,8.521428571428569L26.09285714285714,8.307142857142857L26.307142857142857,8.307142857142857L26.307142857142857,7.878571428571428L26.52142857142857,7.878571428571428L26.52142857142857,7.664285714285715L26.735714285714284,7.664285714285715L26.735714285714284,7.45L27,7.45L27,7.55L26.835714285714285,7.55L26.835714285714285,7.764285714285714L26.62142857142857,7.764285714285714L26.62142857142857,7.978571428571428L26.40714285714286,7.978571428571428L26.40714285714286,8.407142857142858L26.192857142857143,8.407142857142858L26.192857142857143,8.62142857142857L24.90714285714286,8.62142857142857L24.90714285714286,8.835714285714285L23.40714285714286,8.835714285714285L23.40714285714286,9.05L22.764285714285716,9.05L22.764285714285716,9.164285714285715L23.52142857142857,9.164285714285715L23.52142857142857,8.95L24,8.95L24,9.05L23.62142857142857,9.05L23.62142857142857,9.264285714285716L22.764285714285716,9.264285714285716L22.764285714285716,9.807142857142857L22.978571428571428,9.807142857142857L22.978571428571428,11.092857142857142L23.835714285714285,11.092857142857142L23.835714285714285,11.307142857142857L24.05,11.307142857142857L24.05,11.735714285714284L24.478571428571428,11.735714285714284L24.478571428571428,11.95L25.5,11.95L25.5,12.05L24.378571428571426,12.05L24.378571428571426,11.835714285714285L23.95,11.835714285714285L23.95,11.407142857142858L23.735714285714284,11.407142857142858L23.735714285714284,11.192857142857143L22.878571428571426,11.192857142857143L22.878571428571426,9.907142857142858L22.664285714285715,9.907142857142858L22.664285714285715,9.264285714285716L22.45,9.264285714285716L22.45,8.735714285714284L22.878571428571426,8.735714285714284L22.878571428571426,8.521428571428569L23.52142857142857,8.521428571428569L23.52142857142857,8.307142857142857L23.95,8.307142857142857L23.95,7.878571428571428L24.378571428571426,7.878571428571428L24.378571428571426,7.121428571428571L21.478571428571428,7.121428571428571L21.478571428571428,7.978571428571428L17.192857142857143,7.978571428571428L17.192857142857143,8.192857142857143L15.907142857142858,8.192857142857143L15.907142857142858,8.407142857142858L15.692857142857143,8.407142857142858L15.692857142857143,8.835714285714285L15.478571428571428,8.835714285714285L15.478571428571428,9.05L15,9.05L15,8.95L15.378571428571426,8.95L15.378571428571426,8.735714285714284L15.592857142857142,8.735714285714284L15.592857142857142,8.307142857142857L15.807142857142857,8.307142857142857L15.807142857142857,8.092857142857142L17.09285714285714,8.092857142857142L17.09285714285714,7.878571428571428L21.378571428571426,7.878571428571428L21.378571428571426,7.021428571428571L24.478571428571428,7.021428571428571L24.478571428571428,7.978571428571428L24.05,7.978571428571428L24.05,8.407142857142858L23.62142857142857,8.407142857142858L23.62142857142857,8.62142857142857L22.978571428571428,8.62142857142857L22.978571428571428,8.835714285714285L22.55,8.835714285714285L22.55,9.164285714285715z" stroke="none"/><path d="M11.521428571428569,10.664285714285715L11.521428571428569,10.55L9.592857142857142,10.55L9.592857142857142,10.335714285714285L8.835714285714285,10.335714285714285L8.835714285714285,10.55L8.407142857142858,10.55L8.407142857142858,10.978571428571428L6.907142857142857,10.978571428571428L6.907142857142857,11.835714285714285L6.264285714285714,11.835714285714285L6.264285714285714,12.05L6,12.05L6,11.95L6.164285714285715,11.95L6.164285714285715,11.735714285714284L6.807142857142857,11.735714285714284L6.807142857142857,10.878571428571426L8.307142857142857,10.878571428571426L8.307142857142857,10.45L8.735714285714284,10.45L8.735714285714284,10.235714285714284L9.692857142857143,10.235714285714284L9.692857142857143,10.45L11.62142857142857,10.45L11.62142857142857,10.664285714285715L12.592857142857142,10.664285714285715L12.592857142857142,10.45L13.021428571428569,10.45L13.021428571428569,10.021428571428569L13.235714285714284,10.021428571428569L13.235714285714284,9.807142857142857L13.45,9.807142857142857L13.45,9.592857142857142L14.092857142857142,9.592857142857142L14.092857142857142,9.378571428571426L15.807142857142857,9.378571428571426L15.807142857142857,9.164285714285715L17.95,9.164285714285715L17.95,9L18.05,9L18.05,9.264285714285716L15.907142857142858,9.264285714285716L15.907142857142858,9.478571428571428L14.192857142857143,9.478571428571428L14.192857142857143,9.692857142857143L13.55,9.692857142857143L13.55,9.907142857142858L13.335714285714285,9.907142857142858L13.335714285714285,10.12142857142857L13.12142857142857,10.12142857142857L13.12142857142857,10.55L12.692857142857143,10.55L12.692857142857143,10.764285714285716L11.62142857142857,10.764285714285716L11.62142857142857,10.878571428571426L12.05,10.878571428571426L12.05,11.307142857142857L12.478571428571428,11.307142857142857L12.478571428571428,11.521428571428569L12.692857142857143,11.521428571428569L12.692857142857143,11.735714285714284L12.907142857142858,11.735714285714284L12.907142857142858,11.95L13.5,11.95L13.5,12.05L12.807142857142857,12.05L12.807142857142857,11.835714285714285L12.592857142857142,11.835714285714285L12.592857142857142,11.62142857142857L12.378571428571426,11.62142857142857L12.378571428571426,11.407142857142858L11.95,11.407142857142858L11.95,10.978571428571428L11.521428571428569,10.978571428571428L11.521428571428569,10.764285714285716L8.95,10.764285714285716L8.95,10.5L9.05,10.5L9.05,10.664285714285715z" stroke="none"/><path d="M16.02142857142857,6.164285714285715L16.02142857142857,5.95L19.5,5.95L19.5,6.05L16.12142857142857,6.05L16.12142857142857,6.164285714285715L22.021428571428572,6.164285714285715L22.021428571428572,5.521428571428571L22.664285714285715,5.521428571428571L22.664285714285715,5.0928571428571425L22.878571428571426,5.0928571428571425L22.878571428571426,4.664285714285715L23.09285714285714,4.664285714285715L23.09285714285714,4.45L23.307142857142857,4.45L23.307142857142857,4.235714285714286L23.735714285714284,4.235714285714286L23.735714285714284,3.8071428571428574L24.164285714285715,3.8071428571428574L24.164285714285715,3.592857142857143L25.02142857142857,3.592857142857143L25.02142857142857,3.3785714285714286L25.878571428571426,3.3785714285714286L25.878571428571426,2.6214285714285714L15.264285714285716,2.6214285714285714L15.264285714285716,2.8357142857142854L14.62142857142857,2.8357142857142854L14.62142857142857,3.05L14.407142857142858,3.05L14.407142857142858,4.121428571428571L14.192857142857143,4.121428571428571L14.192857142857143,4.55L13.5,4.55L13.5,4.45L14.092857142857142,4.45L14.092857142857142,4.021428571428571L14.307142857142857,4.021428571428571L14.307142857142857,2.95L14.521428571428569,2.95L14.521428571428569,2.7357142857142858L15.164285714285715,2.7357142857142858L15.164285714285715,2.521428571428572L25.978571428571428,2.521428571428572L25.978571428571428,3.478571428571428L25.12142857142857,3.478571428571428L25.12142857142857,3.6928571428571426L24.264285714285716,3.6928571428571426L24.264285714285716,3.907142857142857L23.835714285714285,3.907142857142857L23.835714285714285,4.335714285714285L23.40714285714286,4.335714285714285L23.40714285714286,4.55L23.192857142857143,4.55L23.192857142857143,4.764285714285714L22.978571428571428,4.764285714285714L22.978571428571428,5.192857142857142L22.764285714285716,5.192857142857142L22.764285714285716,5.621428571428571L22.121428571428574,5.621428571428571L22.121428571428574,6.264285714285714L16.12142857142857,6.264285714285714L16.12142857142857,6.378571428571428L19.335714285714285,6.378571428571428L19.335714285714285,6.5928571428571425L19.55,6.5928571428571425L19.55,6.807142857142857L20.621428571428574,6.807142857142857L20.621428571428574,7.021428571428571L20.835714285714285,7.021428571428571L20.835714285714285,7.235714285714286L21.05,7.235714285714286L21.05,7.5L20.95,7.5L20.95,7.335714285714285L20.735714285714284,7.335714285714285L20.735714285714284,7.121428571428571L20.521428571428572,7.121428571428571L20.521428571428572,6.907142857142857L19.45,6.907142857142857L19.45,6.692857142857142L19.235714285714284,6.692857142857142L19.235714285714284,6.478571428571428L16.02142857142857,6.478571428571428L16.02142857142857,6.264285714285714L15.907142857142858,6.264285714285714L15.907142857142858,7.335714285714285L15.692857142857143,7.335714285714285L15.692857142857143,8.192857142857143L10.664285714285715,8.192857142857143L10.664285714285715,7.55L10.5,7.55L10.5,7.45L10.764285714285716,7.45L10.764285714285716,8.092857142857142L15.592857142857142,8.092857142857142L15.592857142857142,7.235714285714286L15.807142857142857,7.235714285714286L15.807142857142857,6.164285714285715z" stroke="none"/><path d="M3,12.05L3,11.95L4.5,11.95L4.5,12.05z" stroke="none"/><path d="M7.5,9.05L7.5,8.95L9,8.95L9,9.05z" stroke="none"/><path d="M5.95,9L6.05,9L6.05,9.592857142857142L6.264285714285714,9.592857142857142L6.264285714285714,9.807142857142857L6.907142857142857,9.807142857142857L6.907142857142857,10.235714285714284L7.335714285714285,10.235714285714284L7.335714285714285,10.45L7.5,10.45L7.5,10.55L7.235714285714286,10.55L7.235714285714286,10.335714285714285L6.807142857142857,10.335714285714285L6.807142857142857,9.907142857142858L6.164285714285715,9.907142857142858L6.164285714285715,9.692857142857143L5.95,9.692857142857143z" stroke="none"/><path d="M10.5,6.05L10.5,5.95L11.307142857142857,5.95L11.307142857142857,5.0928571428571425L11.521428571428569,5.0928571428571425L11.521428571428569,4.878571428571429L11.95,4.878571428571429L11.95,4.5L12.05,4.5L12.05,4.978571428571429L11.62142857142857,4.978571428571429L11.62142857142857,5.192857142857142L11.407142857142858,5.192857142857142L11.407142857142858,6.05z" stroke="none"/><path d="M22.45,10.5L22.55,10.5L22.55,11.192857142857143L21.90714285714286,11.192857142857143L21.90714285714286,11.62142857142857L21.264285714285716,11.62142857142857L21.264285714285716,11.835714285714285L21.05,11.835714285714285L21.05,12L20.95,12L20.95,11.735714285714284L21.164285714285715,11.735714285714284L21.164285714285715,11.521428571428569L21.807142857142857,11.521428571428569L21.807142857142857,11.092857142857142L22.45,11.092857142857142z" stroke="none"/><path d="M25.55,7.5L25.45,7.5L25.45,6.907142857142857L24.807142857142857,6.907142857142857L24.807142857142857,6.478571428571428L24.164285714285715,6.478571428571428L24.164285714285715,6.264285714285714L23.95,6.264285714285714L23.95,6L24.05,6L24.05,6.164285714285715L24.264285714285716,6.164285714285715L24.264285714285716,6.378571428571428L24.90714285714286,6.378571428571428L24.90714285714286,6.807142857142857L25.55,6.807142857142857z" stroke="none"/><path d="M27,8.95L27,9.05L26.192857142857143,9.05L26.192857142857143,9.907142857142858L25.978571428571428,9.907142857142858L25.978571428571428,10.12142857142857L25.55,10.12142857142857L25.55,10.5L25.45,10.5L25.45,10.021428571428569L25.878571428571426,10.021428571428569L25.878571428571426,9.807142857142857L26.09285714285714,9.807142857142857L26.09285714285714,8.95z" stroke="none"/><path d="M25.45,4.5L25.55,4.5L25.55,5.307142857142857L25.764285714285716,5.307142857142857L25.764285714285716,5.521428571428571L26.62142857142857,5.521428571428571L26.62142857142857,5.735714285714286L27.05,5.735714285714286L27.05,6L26.95,6L26.95,5.835714285714285L26.52142857142857,5.835714285714285L26.52142857142857,5.621428571428571L25.664285714285715,5.621428571428571L25.664285714285715,5.407142857142857L25.45,5.407142857142857z" stroke="none"/><path d="M3,10.55L3,10.45L3.1642857142857146,10.45L3.1642857142857146,9.378571428571426L3.3785714285714286,9.378571428571426L3.3785714285714286,8.407142857142858L3.1642857142857146,8.407142857142858L3.1642857142857146,7.978571428571428L2.95,7.978571428571428L2.95,7.5L3.05,7.5L3.05,7.878571428571428L3.2642857142857142,7.878571428571428L3.2642857142857142,8.307142857142857L3.478571428571428,8.307142857142857L3.478571428571428,9.478571428571428L3.2642857142857142,9.478571428571428L3.2642857142857142,10.55z" stroke="none"/><path d="M10.5,11.95L10.5,12.05L7.978571428571428,12.05L7.978571428571428,12.478571428571428L5.521428571428571,12.478571428571428L5.521428571428571,8.521428571428569L10.335714285714285,8.521428571428569L10.335714285714285,8.735714285714284L10.55,8.735714285714284L10.55,9L10.45,9L10.45,8.835714285714285L10.235714285714284,8.835714285714285L10.235714285714284,8.62142857142857L5.621428571428571,8.62142857142857L5.621428571428571,12.378571428571426L7.878571428571428,12.378571428571426L7.878571428571428,11.95z" stroke="none"/><path d="M10.5,2.95L10.5,3.05L9.592857142857142,3.05L9.592857142857142,2.8357142857142854L9.378571428571426,2.8357142857142854L9.378571428571426,2.6214285714285714L8.407142857142858,2.6214285714285714L8.407142857142858,2.8357142857142854L8.192857142857143,2.8357142857142854L8.192857142857143,3.05L7.5,3.05L7.5,2.95L8.092857142857142,2.95L8.092857142857142,2.7357142857142858L8.307142857142857,2.7357142857142858L8.307142857142857,2.521428571428572L9.478571428571428,2.521428571428572L9.478571428571428,2.7357142857142858L9.692857142857143,2.7357142857142858L9.692857142857143,2.95z" stroke="none"/><path d="M7.55,4.5L7.45,4.5L7.45,3.907142857142857L7.235714285714286,3.907142857142857L7.235714285714286,3.6928571428571426L7.021428571428571,3.6928571428571426L7.021428571428571,2.521428571428572L7.664285714285715,2.521428571428572L7.664285714285715,2.3071428571428574L10.978571428571428,2.3071428571428574L10.978571428571428,3.907142857142857L10.764285714285716,3.907142857142857L10.764285714285716,4.121428571428571L10.55,4.121428571428571L10.55,4.5L10.45,4.5L10.45,4.021428571428571L10.664285714285715,4.021428571428571L10.664285714285715,3.8071428571428574L10.878571428571426,3.8071428571428574L10.878571428571426,2.407142857142857L7.764285714285714,2.407142857142857L7.764285714285714,2.6214285714285714L7.121428571428571,2.6214285714285714L7.121428571428571,3.592857142857143L7.335714285714285,3.592857142857143L7.335714285714285,3.8071428571428574L7.55,3.8071428571428574z" stroke="none"/><path d="M6,6.05L6,5.95L6.164285714285715,5.95L6.164285714285715,4.878571428571429L6.378571428571428,4.878571428571429L6.378571428571428,3.907142857142857L6.164285714285715,3.907142857142857L6.164285714285715,3.478571428571428L5.95,3.478571428571428L5.95,3L6.05,3L6.05,3.3785714285714286L6.264285714285714,3.3785714285714286L6.264285714285714,3.8071428571428574L6.478571428571428,3.8071428571428574L6.478571428571428,4.978571428571429L6.264285714285714,4.978571428571429L6.264285714285714,6.05z" stroke="none"/><path d="M5.95,4.5L6.05,4.5L6.05,5.192857142857142L5.621428571428571,5.192857142857142L5.621428571428571,6.692857142857142L5.192857142857142,6.692857142857142L5.192857142857142,6.907142857142857L4.335714285714285,6.907142857142857L4.335714285714285,7.121428571428571L4.121428571428571,7.121428571428571L4.121428571428571,7.878571428571428L7.235714285714286,7.878571428571428L7.235714285714286,7.664285714285715L7.45,7.664285714285715L7.45,7.5L7.55,7.5L7.55,7.764285714285714L7.335714285714285,7.764285714285714L7.335714285714285,7.978571428571428L4.021428571428571,7.978571428571428L4.021428571428571,7.021428571428571L4.235714285714286,7.021428571428571L4.235714285714286,6.807142857142857L5.0928571428571425,6.807142857142857L5.0928571428571425,6.5928571428571425L5.521428571428571,6.5928571428571425L5.521428571428571,5.0928571428571425L5.95,5.0928571428571425z" stroke="none"/><path d="M22.5,6.05L22.5,5.95L23.307142857142857,5.95L23.307142857142857,5.521428571428571L25.55,5.521428571428571L25.55,5.735714285714286L25.978571428571428,5.735714285714286L25.978571428571428,5.95L26.192857142857143,5.95L26.192857142857143,6.164285714285715L26.40714285714286,6.164285714285715L26.40714285714286,6.378571428571428L27.05,6.378571428571428L27.05,6.5928571428571425L27.264285714285716,6.5928571428571425L27.264285714285716,7.021428571428571L27.478571428571428,7.021428571428571L27.478571428571428,8.407142857142858L27.264285714285716,8.407142857142858L27.264285714285716,8.62142857142857L26.40714285714286,8.62142857142857L26.40714285714286,8.835714285714285L25.55,8.835714285714285L25.55,9L25.45,9L25.45,8.735714285714284L26.307142857142857,8.735714285714284L26.307142857142857,8.521428571428569L27.164285714285715,8.521428571428569L27.164285714285715,8.307142857142857L27.378571428571426,8.307142857142857L27.378571428571426,7.121428571428571L27.164285714285715,7.121428571428571L27.164285714285715,6.692857142857142L26.95,6.692857142857142L26.95,6.478571428571428L26.307142857142857,6.478571428571428L26.307142857142857,6.264285714285714L26.09285714285714,6.264285714285714L26.09285714285714,6.05L25.878571428571426,6.05L25.878571428571426,5.835714285714285L25.45,5.835714285714285L25.45,5.621428571428571L23.40714285714286,5.621428571428571L23.40714285714286,6.05z" stroke="none"/><path d="M7.55,12L7.45,12L7.45,11.735714285714284L9.807142857142857,11.735714285714284L9.807142857142857,11.521428571428569L10.978571428571428,11.521428571428569L10.978571428571428,12.478571428571428L8.192857142857143,12.478571428571428L8.192857142857143,12.692857142857143L5.307142857142857,12.692857142857143L5.307142857142857,9.692857142857143L4.45,9.692857142857143L4.45,9L4.55,9L4.55,9.592857142857142L5.407142857142857,9.592857142857142L5.407142857142857,12.592857142857142L8.092857142857142,12.592857142857142L8.092857142857142,12.378571428571426L10.878571428571426,12.378571428571426L10.878571428571426,11.62142857142857L9.907142857142858,11.62142857142857L9.907142857142858,11.835714285714285L7.55,11.835714285714285z" stroke="none"/><path d="M2.95,4.5L3.05,4.5L3.05,7.121428571428571L2.6214285714285714,7.121428571428571L2.6214285714285714,8.092857142857142L3.05,8.092857142857142L3.05,9L2.95,9L2.95,8.192857142857143L2.521428571428572,8.192857142857143L2.521428571428572,7.021428571428571L2.95,7.021428571428571z" stroke="none"/><path d="M12,12.05L12,11.95L12.264285714285716,11.95L12.264285714285716,12.164285714285715L13.12142857142857,12.164285714285715L13.12142857142857,12.378571428571426L15.378571428571426,12.378571428571426L15.378571428571426,12.164285714285715L16.02142857142857,12.164285714285715L16.02142857142857,11.95L16.5,11.95L16.5,12.05L16.12142857142857,12.05L16.12142857142857,12.264285714285716L15.478571428571428,12.264285714285716L15.478571428571428,12.478571428571428L13.021428571428569,12.478571428571428L13.021428571428569,12.264285714285716L12.164285714285715,12.264285714285716L12.164285714285715,12.05z" stroke="none"/><path d="M19.5,12.05L19.5,11.95L19.978571428571428,11.95L19.978571428571428,12.378571428571426L25.878571428571426,12.378571428571426L25.878571428571426,11.62142857142857L24.807142857142857,11.62142857142857L24.807142857142857,11.407142857142858L24.378571428571426,11.407142857142858L24.378571428571426,10.978571428571428L23.95,10.978571428571428L23.95,10.5L24.05,10.5L24.05,10.878571428571426L24.478571428571428,10.878571428571426L24.478571428571428,11.307142857142857L24.90714285714286,11.307142857142857L24.90714285714286,11.521428571428569L25.978571428571428,11.521428571428569L25.978571428571428,12.478571428571428L19.878571428571426,12.478571428571428L19.878571428571426,12.05z" stroke="none"/><path d="M8.95,7.5L9.05,7.5L9.05,7.978571428571428L8.192857142857143,7.978571428571428L8.192857142857143,8.192857142857143L3.8071428571428574,8.192857142857143L3.8071428571428574,4.664285714285715L4.021428571428571,4.664285714285715L4.021428571428571,4.45L4.5,4.45L4.5,4.55L4.121428571428571,4.55L4.121428571428571,4.764285714285714L3.907142857142857,4.764285714285714L3.907142857142857,8.092857142857142L8.092857142857142,8.092857142857142L8.092857142857142,7.878571428571428L8.95,7.878571428571428z" stroke="none"/><path d="M13.5,8.95L13.5,9.05L11.735714285714284,9.05L11.735714285714284,8.835714285714285L11.092857142857142,8.835714285714285L11.092857142857142,8.62142857142857L10.878571428571426,8.62142857142857L10.878571428571426,8.407142857142858L4.121428571428571,8.407142857142858L4.121428571428571,10.878571428571426L4.335714285714285,10.878571428571426L4.335714285714285,11.092857142857142L4.55,11.092857142857142L4.55,11.307142857142857L4.764285714285714,11.307142857142857L4.764285714285714,11.521428571428569L4.978571428571429,11.521428571428569L4.978571428571429,12.592857142857142L5.192857142857142,12.592857142857142L5.192857142857142,12.807142857142857L17.735714285714284,12.807142857142857L17.735714285714284,12.378571428571426L17.95,12.378571428571426L17.95,12L18.05,12L18.05,12.478571428571428L17.835714285714285,12.478571428571428L17.835714285714285,12.907142857142858L5.0928571428571425,12.907142857142858L5.0928571428571425,12.692857142857143L4.878571428571429,12.692857142857143L4.878571428571429,11.62142857142857L4.664285714285715,11.62142857142857L4.664285714285715,11.407142857142858L4.45,11.407142857142858L4.45,11.192857142857143L4.235714285714286,11.192857142857143L4.235714285714286,10.978571428571428L4.021428571428571,10.978571428571428L4.021428571428571,8.307142857142857L10.978571428571428,8.307142857142857L10.978571428571428,8.521428571428569L11.192857142857143,8.521428571428569L11.192857142857143,8.735714285714284L11.835714285714285,8.735714285714284L11.835714285714285,8.95z" stroke="none"/><path d="M13.45,3L13.55,3L13.55,4.121428571428571L13.12142857142857,4.121428571428571L13.12142857142857,4.878571428571429L15.807142857142857,4.878571428571429L15.807142857142857,4.664285714285715L16.235714285714284,4.664285714285715L16.235714285714284,4.235714285714286L17.521428571428572,4.235714285714286L17.521428571428572,3.8071428571428574L17.735714285714284,3.8071428571428574L17.735714285714284,3.592857142857143L18.378571428571426,3.592857142857143L18.378571428571426,3.3785714285714286L18.807142857142857,3.3785714285714286L18.807142857142857,2.95L19.5,2.95L19.5,3.05L18.90714285714286,3.05L18.90714285714286,3.478571428571428L18.478571428571428,3.478571428571428L18.478571428571428,3.6928571428571426L17.835714285714285,3.6928571428571426L17.835714285714285,3.907142857142857L17.621428571428574,3.907142857142857L17.621428571428574,4.335714285714285L16.335714285714285,4.335714285714285L16.335714285714285,4.764285714285714L15.907142857142858,4.764285714285714L15.907142857142858,4.978571428571429L13.021428571428569,4.978571428571429L13.021428571428569,4.021428571428571L13.45,4.021428571428571z" stroke="none"/><path d="M20.95,9L21.05,9L21.05,9.692857142857143L20.835714285714285,9.692857142857143L20.835714285714285,10.12142857142857L20.621428571428574,10.12142857142857L20.621428571428574,10.335714285714285L20.192857142857143,10.335714285714285L20.192857142857143,10.764285714285716L19.978571428571428,10.764285714285716L19.978571428571428,10.978571428571428L19.121428571428574,10.978571428571428L19.121428571428574,12.378571428571426L19.55,12.378571428571426L19.55,12.592857142857142L26.09285714285714,12.592857142857142L26.09285714285714,12.378571428571426L26.95,12.378571428571426L26.95,12L27.05,12L27.05,12.478571428571428L26.192857142857143,12.478571428571428L26.192857142857143,12.692857142857143L19.45,12.692857142857143L19.45,12.478571428571428L19.021428571428572,12.478571428571428L19.021428571428572,10.878571428571426L19.878571428571426,10.878571428571426L19.878571428571426,10.664285714285715L20.09285714285714,10.664285714285715L20.09285714285714,10.235714285714284L20.521428571428572,10.235714285714284L20.521428571428572,10.021428571428569L20.735714285714284,10.021428571428569L20.735714285714284,9.592857142857142L20.95,9.592857142857142z" stroke="none"/><path d="M7.55,6L7.45,6L7.45,4.978571428571429L7.021428571428571,4.978571428571429L7.021428571428571,4.121428571428571L6.807142857142857,4.121428571428571L6.807142857142857,3.2642857142857142L6.5928571428571425,3.2642857142857142L6.5928571428571425,2.6214285714285714L4.978571428571429,2.6214285714285714L4.978571428571429,2.8357142857142854L4.764285714285714,2.8357142857142854L4.764285714285714,3.05L4.335714285714285,3.05L4.335714285714285,3.2642857142857142L4.121428571428571,3.2642857142857142L4.121428571428571,3.6928571428571426L3.6928571428571426,3.6928571428571426L3.6928571428571426,10.764285714285716L3.478571428571428,10.764285714285716L3.478571428571428,10.978571428571428L2.6214285714285714,10.978571428571428L2.6214285714285714,12.592857142857142L2.8357142857142854,12.592857142857142L2.8357142857142854,12.807142857142857L4.978571428571429,12.807142857142857L4.978571428571429,13.021428571428569L17.95,13.021428571428569L17.95,12.807142857142857L18.164285714285715,12.807142857142857L18.164285714285715,12.378571428571426L18.378571428571426,12.378571428571426L18.378571428571426,11.092857142857142L18.807142857142857,11.092857142857142L18.807142857142857,10.664285714285715L19.45,10.664285714285715L19.45,10.5L19.55,10.5L19.55,10.764285714285716L18.90714285714286,10.764285714285716L18.90714285714286,11.192857142857143L18.478571428571428,11.192857142857143L18.478571428571428,12.478571428571428L18.264285714285716,12.478571428571428L18.264285714285716,12.907142857142858L18.05,12.907142857142858L18.05,13.12142857142857L4.878571428571429,13.12142857142857L4.878571428571429,12.907142857142858L2.7357142857142858,12.907142857142858L2.7357142857142858,12.692857142857143L2.521428571428572,12.692857142857143L2.521428571428572,10.878571428571426L3.3785714285714286,10.878571428571426L3.3785714285714286,10.664285714285715L3.592857142857143,10.664285714285715L3.592857142857143,3.592857142857143L4.021428571428571,3.592857142857143L4.021428571428571,3.1642857142857146L4.235714285714286,3.1642857142857146L4.235714285714286,2.95L4.664285714285715,2.95L4.664285714285715,2.7357142857142858L4.878571428571429,2.7357142857142858L4.878571428571429,2.521428571428572L6.692857142857142,2.521428571428572L6.692857142857142,3.1642857142857146L6.907142857142857,3.1642857142857146L6.907142857142857,4.021428571428571L7.121428571428571,4.021428571428571L7.121428571428571,4.878571428571429L7.55,4.878571428571429z" stroke="none"/></svg>