<svg version="1.1" width="30" height="15" xmlns="http://www.w3.org/2000/svg"><path d="M18,8.95L18,9.05L17.40714285714286,9.05L17.40714285714286,9.164285714285715L18.90714285714286,9.164285714285715L18.90714285714286,9.378571428571426L19.335714285714285,9.378571428571426L19.335714285714285,9.592857142857142L19.55,9.592857142857142L19.55,9.807142857142857L19.764285714285716,9.807142857142857L19.764285714285716,10.021428571428569L20.621428571428574,10.021428571428569L20.621428571428574,10.235714285714284L20.835714285714285,10.235714285714284L20.835714285714285,10.45L21,10.45L21,10.55L20.735714285714284,10.55L20.735714285714284,10.335714285714285L20.521428571428572,10.335714285714285L20.521428571428572,10.12142857142857L19.664285714285715,10.12142857142857L19.664285714285715,9.907142857142858L19.45,9.907142857142858L19.45,9.692857142857143L19.235714285714284,9.692857142857143L19.235714285714284,9.478571428571428L18.807142857142857,9.478571428571428L18.807142857142857,9.264285714285716L17.307142857142857,9.264285714285716L17.307142857142857,9.05L16.664285714285715,9.05L16.664285714285715,8.835714285714285L16.45,8.835714285714285L16.45,8.62142857142857L16.235714285714284,8.62142857142857L16.235714285714284,8.407142857142858L15.164285714285715,8.407142857142858L15.164285714285715,8.192857142857143L14.307142857142857,8.192857142857143L14.307142857142857,7.978571428571428L13.664285714285715,7.978571428571428L13.664285714285715,7.55L13.5,7.55L13.5,7.45L13.764285714285716,7.45L13.764285714285716,7.878571428571428L14.407142857142858,7.878571428571428L14.407142857142858,8.092857142857142L15.264285714285716,8.092857142857142L15.264285714285716,8.307142857142857L16.335714285714285,8.307142857142857L16.335714285714285,8.521428571428569L16.55,8.521428571428569L16.55,8.735714285714284L16.764285714285716,8.735714285714284L16.764285714285716,8.95z" stroke="none"/><path d="M23.09285714285714,6.378571428571428L23.09285714285714,6.264285714285714L22.664285714285715,6.264285714285714L22.664285714285715,6.05L22.5,6.05L22.5,5.95L22.764285714285716,5.95L22.764285714285716,6.164285714285715L23.192857142857143,6.164285714285715L23.192857142857143,7.878571428571428L24.478571428571428,7.878571428571428L24.478571428571428,8.307142857142857L24.692857142857143,8.307142857142857L24.692857142857143,8.521428571428569L25.12142857142857,8.521428571428569L25.12142857142857,8.735714285714284L25.335714285714285,8.735714285714284L25.335714285714285,8.95L25.5,8.95L25.5,9.05L25.235714285714284,9.05L25.235714285714284,8.835714285714285L25.02142857142857,8.835714285714285L25.02142857142857,8.62142857142857L24.59285714285714,8.62142857142857L24.59285714285714,8.407142857142858L24.378571428571426,8.407142857142858L24.378571428571426,7.978571428571428L23.09285714285714,7.978571428571428L23.09285714285714,6.478571428571428L22.235714285714284,6.478571428571428L22.235714285714284,4.978571428571429L22.021428571428572,4.978571428571429L22.021428571428572,4.55L21,4.55L21,4.45L22.121428571428574,4.45L22.121428571428574,4.878571428571429L22.335714285714285,4.878571428571429L22.335714285714285,6.378571428571428z" stroke="none"/><path d="M22.5,10.45L22.5,10.55L21.692857142857143,10.55L21.692857142857143,10.978571428571428L21.264285714285716,10.978571428571428L21.264285714285716,11.835714285714285L21.05,11.835714285714285L21.05,12L20.95,12L20.95,11.735714285714284L21.164285714285715,11.735714285714284L21.164285714285715,10.878571428571426L21.59285714285714,10.878571428571426L21.59285714285714,10.55L21.378571428571426,10.55L21.378571428571426,9.907142857142858L20.95,9.907142857142858L20.95,9L21.05,9L21.05,9.807142857142857L21.478571428571428,9.807142857142857L21.478571428571428,10.45z" stroke="none"/><path d="M20.307142857142857,10.664285714285715L20.307142857142857,10.55L20.09285714285714,10.55L20.09285714285714,10.335714285714285L18.05,10.335714285714285L18.05,10.5L17.95,10.5L17.95,10.235714285714284L20.192857142857143,10.235714285714284L20.192857142857143,10.45L20.40714285714286,10.45L20.40714285714286,10.664285714285715L20.621428571428574,10.664285714285715L20.621428571428574,12.378571428571426L24.164285714285715,12.378571428571426L24.164285714285715,11.521428571428569L24.378571428571426,11.521428571428569L24.378571428571426,11.307142857142857L24.59285714285714,11.307142857142857L24.59285714285714,11.092857142857142L25.02142857142857,11.092857142857142L25.02142857142857,10.45L25.5,10.45L25.5,10.55L25.12142857142857,10.55L25.12142857142857,11.192857142857143L24.692857142857143,11.192857142857143L24.692857142857143,11.407142857142858L24.478571428571428,11.407142857142858L24.478571428571428,11.62142857142857L24.264285714285716,11.62142857142857L24.264285714285716,12.478571428571428L20.521428571428572,12.478571428571428L20.521428571428572,10.764285714285716L20.40714285714286,10.764285714285716L20.40714285714286,11.835714285714285L19.978571428571428,11.835714285714285L19.978571428571428,12.05L19.5,12.05L19.5,11.95L19.878571428571426,11.95L19.878571428571426,11.735714285714284L20.307142857142857,11.735714285714284L20.307142857142857,10.764285714285716L19.45,10.764285714285716L19.45,10.5L19.55,10.5L19.55,10.664285714285715z" stroke="none"/><path d="M15.592857142857142,4.45L15.592857142857142,4.235714285714286L16.02142857142857,4.235714285714286L16.02142857142857,3.592857142857143L16.235714285714284,3.592857142857143L16.235714285714284,3.3785714285714286L16.45,3.3785714285714286L16.45,3L16.55,3L16.55,3.478571428571428L16.335714285714285,3.478571428571428L16.335714285714285,3.6928571428571426L16.12142857142857,3.6928571428571426L16.12142857142857,4.335714285714285L15.692857142857143,4.335714285714285L15.692857142857143,4.45L18,4.45L18,4.55L15.692857142857143,4.55L15.692857142857143,4.664285714285715L18.164285714285715,4.664285714285715L18.164285714285715,3.2642857142857142L17.95,3.2642857142857142L17.95,3L18.05,3L18.05,3.1642857142857146L18.264285714285716,3.1642857142857146L18.264285714285716,4.764285714285714L15.592857142857142,4.764285714285714L15.592857142857142,4.55L11.192857142857143,4.55L11.192857142857143,4.764285714285714L10.978571428571428,4.764285714285714L10.978571428571428,4.978571428571429L10.55,4.978571428571429L10.55,5.192857142857142L10.335714285714285,5.192857142857142L10.335714285714285,5.407142857142857L10.12142857142857,5.407142857142857L10.12142857142857,7.235714285714286L10.335714285714285,7.235714285714286L10.335714285714285,7.45L10.5,7.45L10.5,7.55L10.235714285714284,7.55L10.235714285714284,7.335714285714285L10.021428571428569,7.335714285714285L10.021428571428569,5.307142857142857L10.235714285714284,5.307142857142857L10.235714285714284,5.0928571428571425L10.45,5.0928571428571425L10.45,4.878571428571429L10.878571428571426,4.878571428571429L10.878571428571426,4.664285714285715L11.092857142857142,4.664285714285715L11.092857142857142,4.45z" stroke="none"/><path d="M12.592857142857142,8.092857142857142L12.592857142857142,7.878571428571428L12.807142857142857,7.878571428571428L12.807142857142857,7.235714285714286L13.021428571428569,7.235714285714286L13.021428571428569,7.021428571428571L14.735714285714284,7.021428571428571L14.735714285714284,6.807142857142857L16.235714285714284,6.807142857142857L16.235714285714284,6.378571428571428L16.45,6.378571428571428L16.45,6L16.55,6L16.55,6.478571428571428L16.335714285714285,6.478571428571428L16.335714285714285,6.907142857142857L14.835714285714285,6.907142857142857L14.835714285714285,7.121428571428571L13.12142857142857,7.121428571428571L13.12142857142857,7.335714285714285L12.907142857142858,7.335714285714285L12.907142857142858,7.978571428571428L12.692857142857143,7.978571428571428L12.692857142857143,8.092857142857142L13.12142857142857,8.092857142857142L13.12142857142857,8.307142857142857L13.335714285714285,8.307142857142857L13.335714285714285,8.521428571428569L13.55,8.521428571428569L13.55,8.735714285714284L13.764285714285716,8.735714285714284L13.764285714285716,10.764285714285716L12.478571428571428,10.764285714285716L12.478571428571428,10.978571428571428L11.307142857142857,10.978571428571428L11.307142857142857,10.764285714285716L10.45,10.764285714285716L10.45,10.5L10.55,10.5L10.55,10.664285714285715L11.407142857142858,10.664285714285715L11.407142857142858,10.878571428571426L12.378571428571426,10.878571428571426L12.378571428571426,10.664285714285715L13.664285714285715,10.664285714285715L13.664285714285715,8.835714285714285L13.45,8.835714285714285L13.45,8.62142857142857L13.235714285714284,8.62142857142857L13.235714285714284,8.407142857142858L13.021428571428569,8.407142857142858L13.021428571428569,8.192857142857143L12.692857142857143,8.192857142857143L12.692857142857143,8.735714285714284L12.907142857142858,8.735714285714284L12.907142857142858,8.95L13.55,8.95L13.55,10.5L13.45,10.5L13.45,9.05L12.807142857142857,9.05L12.807142857142857,8.835714285714285L12.592857142857142,8.835714285714285L12.592857142857142,8.192857142857143L12.378571428571426,8.192857142857143L12.378571428571426,7.978571428571428L11.521428571428569,7.978571428571428L11.521428571428569,7.55L11.307142857142857,7.55L11.307142857142857,6.907142857142857L10.878571428571426,6.907142857142857L10.878571428571426,6.478571428571428L10.45,6.478571428571428L10.45,6L10.55,6L10.55,6.378571428571428L10.978571428571428,6.378571428571428L10.978571428571428,6.807142857142857L11.407142857142858,6.807142857142857L11.407142857142858,7.45L11.62142857142857,7.45L11.62142857142857,7.878571428571428L12.478571428571428,7.878571428571428L12.478571428571428,8.092857142857142z" stroke="none"/><path d="M4.5,3.05L4.5,2.95L6,2.95L6,3.05z" stroke="none"/><path d="M24,10.55L24,10.45L24.807142857142857,10.45L24.807142857142857,10.021428571428569L25.978571428571428,10.021428571428569L25.978571428571428,11.62142857142857L25.764285714285716,11.62142857142857L25.764285714285716,11.835714285714285L25.55,11.835714285714285L25.55,12L25.45,12L25.45,11.735714285714284L25.664285714285715,11.735714285714284L25.664285714285715,11.521428571428569L25.878571428571426,11.521428571428569L25.878571428571426,10.12142857142857L24.90714285714286,10.12142857142857L24.90714285714286,10.55z" stroke="none"/><path d="M25.45,3L25.55,3L25.55,3.6928571428571426L24.264285714285716,3.6928571428571426L24.264285714285716,4.335714285714285L24.05,4.335714285714285L24.05,4.5L23.95,4.5L23.95,4.235714285714286L24.164285714285715,4.235714285714286L24.164285714285715,3.592857142857143L25.45,3.592857142857143z" stroke="none"/><path d="M26.95,3L27.05,3L27.05,3.907142857142857L26.192857142857143,3.907142857142857L26.192857142857143,4.121428571428571L25.764285714285716,4.121428571428571L25.764285714285716,4.55L25.5,4.55L25.5,4.45L25.664285714285715,4.45L25.664285714285715,4.021428571428571L26.09285714285714,4.021428571428571L26.09285714285714,3.8071428571428574L26.95,3.8071428571428574z" stroke="none"/><path d="M2.95,4.5L3.05,4.5L3.05,5.0928571428571425L3.2642857142857142,5.0928571428571425L3.2642857142857142,5.307142857142857L3.907142857142857,5.307142857142857L3.907142857142857,5.735714285714286L4.335714285714285,5.735714285714286L4.335714285714285,5.95L4.5,5.95L4.5,6.05L4.235714285714286,6.05L4.235714285714286,5.835714285714285L3.8071428571428574,5.835714285714285L3.8071428571428574,5.407142857142857L3.1642857142857146,5.407142857142857L3.1642857142857146,5.192857142857142L2.95,5.192857142857142z" stroke="none"/><path d="M13.5,11.95L13.5,12.05L10.878571428571426,12.05L10.878571428571426,11.62142857142857L10.45,11.62142857142857L10.45,11.192857142857143L10.021428571428569,11.192857142857143L10.021428571428569,10.021428571428569L11.62142857142857,10.021428571428569L11.62142857142857,10.235714285714284L11.835714285714285,10.235714285714284L11.835714285714285,10.45L12,10.45L12,10.55L11.735714285714284,10.55L11.735714285714284,10.335714285714285L11.521428571428569,10.335714285714285L11.521428571428569,10.12142857142857L10.12142857142857,10.12142857142857L10.12142857142857,11.092857142857142L10.55,11.092857142857142L10.55,11.521428571428569L10.978571428571428,11.521428571428569L10.978571428571428,11.95z" stroke="none"/><path d="M6.05,12L5.95,12L5.95,9L6.05,9z" stroke="none"/><path d="M10.5,4.45L10.5,4.55L10.335714285714285,4.55L10.335714285714285,4.764285714285714L9.907142857142858,4.764285714285714L9.907142857142858,6.05L9.478571428571428,6.05L9.478571428571428,6.907142857142857L9.264285714285716,6.907142857142857L9.264285714285716,7.55L9,7.55L9,7.45L9.164285714285715,7.45L9.164285714285715,6.807142857142857L9.378571428571426,6.807142857142857L9.378571428571426,5.95L9.807142857142857,5.95L9.807142857142857,4.664285714285715L10.235714285714284,4.664285714285715L10.235714285714284,4.45z" stroke="none"/><path d="M24.05,7.5L23.95,7.5L23.95,5.621428571428571L23.735714285714284,5.621428571428571L23.735714285714284,5.407142857142857L23.307142857142857,5.407142857142857L23.307142857142857,4.764285714285714L22.664285714285715,4.764285714285714L22.664285714285715,4.55L22.5,4.55L22.5,4.45L22.764285714285716,4.45L22.764285714285716,4.664285714285715L23.40714285714286,4.664285714285715L23.40714285714286,5.307142857142857L23.835714285714285,5.307142857142857L23.835714285714285,5.521428571428571L24.05,5.521428571428571z" stroke="none"/><path d="M25.45,6L25.55,6L25.55,6.5928571428571425L25.764285714285716,6.5928571428571425L25.764285714285716,6.807142857142857L25.978571428571428,6.807142857142857L25.978571428571428,9.478571428571428L23.52142857142857,9.478571428571428L23.52142857142857,9.264285714285716L23.307142857142857,9.264285714285716L23.307142857142857,9.05L22.878571428571426,9.05L22.878571428571426,7.978571428571428L22.664285714285715,7.978571428571428L22.664285714285715,7.55L22.5,7.55L22.5,7.45L22.764285714285716,7.45L22.764285714285716,7.878571428571428L22.978571428571428,7.878571428571428L22.978571428571428,8.95L23.40714285714286,8.95L23.40714285714286,9.164285714285715L23.62142857142857,9.164285714285715L23.62142857142857,9.378571428571426L25.878571428571426,9.378571428571426L25.878571428571426,6.907142857142857L25.664285714285715,6.907142857142857L25.664285714285715,6.692857142857142L25.45,6.692857142857142z" stroke="none"/><path d="M26.95,4.5L27.05,4.5L27.05,5.192857142857142L26.40714285714286,5.192857142857142L26.40714285714286,5.407142857142857L25.335714285714285,5.407142857142857L25.335714285714285,5.621428571428571L25.12142857142857,5.621428571428571L25.12142857142857,6.378571428571428L25.335714285714285,6.378571428571428L25.335714285714285,7.45L25.5,7.45L25.5,7.55L25.235714285714284,7.55L25.235714285714284,6.478571428571428L25.02142857142857,6.478571428571428L25.02142857142857,5.521428571428571L25.235714285714284,5.521428571428571L25.235714285714284,5.307142857142857L26.307142857142857,5.307142857142857L26.307142857142857,5.0928571428571425L26.95,5.0928571428571425z" stroke="none"/><path d="M16.5,7.55L16.5,7.45L17.09285714285714,7.45L17.09285714285714,6.807142857142857L17.307142857142857,6.807142857142857L17.307142857142857,6.378571428571428L17.521428571428572,6.378571428571428L17.521428571428572,5.95L17.95,5.95L17.95,5.735714285714286L18.59285714285714,5.735714285714286L18.59285714285714,4.664285714285715L18.807142857142857,4.664285714285715L18.807142857142857,4.45L19.5,4.45L19.5,4.55L18.90714285714286,4.55L18.90714285714286,4.764285714285714L18.692857142857143,4.764285714285714L18.692857142857143,5.835714285714285L18.05,5.835714285714285L18.05,6.05L17.621428571428574,6.05L17.621428571428574,6.478571428571428L17.40714285714286,6.478571428571428L17.40714285714286,6.907142857142857L17.192857142857143,6.907142857142857L17.192857142857143,7.55z" stroke="none"/><path d="M4.5,4.55L4.5,4.45L5.192857142857142,4.45L5.192857142857142,4.664285714285715L5.621428571428571,4.664285714285715L5.621428571428571,4.878571428571429L8.521428571428569,4.878571428571429L8.521428571428569,4.664285714285715L8.735714285714284,4.664285714285715L8.735714285714284,4.45L9,4.45L9,4.55L8.835714285714285,4.55L8.835714285714285,4.764285714285714L8.62142857142857,4.764285714285714L8.62142857142857,4.978571428571429L5.521428571428571,4.978571428571429L5.521428571428571,4.764285714285714L5.0928571428571425,4.764285714285714L5.0928571428571425,4.55z" stroke="none"/><path d="M7.55,4.5L7.45,4.5L7.45,3.907142857142857L7.235714285714286,3.907142857142857L7.235714285714286,3.478571428571428L3.8071428571428574,3.478571428571428L3.8071428571428574,3.2642857142857142L2.95,3.2642857142857142L2.95,3L3.05,3L3.05,3.1642857142857146L3.907142857142857,3.1642857142857146L3.907142857142857,3.3785714285714286L7.335714285714285,3.3785714285714286L7.335714285714285,3.8071428571428574L7.55,3.8071428571428574z" stroke="none"/><path d="M12,7.55L12,7.45L12.378571428571426,7.45L12.378571428571426,7.021428571428571L12.592857142857142,7.021428571428571L12.592857142857142,6.807142857142857L14.521428571428569,6.807142857142857L14.521428571428569,6.5928571428571425L14.95,6.5928571428571425L14.95,5.95L15.807142857142857,5.95L15.807142857142857,5.521428571428571L17.09285714285714,5.521428571428571L17.09285714285714,5.307142857142857L17.735714285714284,5.307142857142857L17.735714285714284,4.878571428571429L18.378571428571426,4.878571428571429L18.378571428571426,2.6214285714285714L16.12142857142857,2.6214285714285714L16.12142857142857,3.478571428571428L10.55,3.478571428571428L10.55,3.6928571428571426L10.335714285714285,3.6928571428571426L10.335714285714285,3.907142857142857L10.12142857142857,3.907142857142857L10.12142857142857,4.55L9.692857142857143,4.55L9.692857142857143,5.192857142857142L8.192857142857143,5.192857142857142L8.192857142857143,5.621428571428571L7.978571428571428,5.621428571428571L7.978571428571428,6.05L7.5,6.05L7.5,5.95L7.878571428571428,5.95L7.878571428571428,5.521428571428571L8.092857142857142,5.521428571428571L8.092857142857142,5.0928571428571425L9.592857142857142,5.0928571428571425L9.592857142857142,4.45L10.021428571428569,4.45L10.021428571428569,3.8071428571428574L10.235714285714284,3.8071428571428574L10.235714285714284,3.592857142857143L10.45,3.592857142857143L10.45,3.3785714285714286L16.02142857142857,3.3785714285714286L16.02142857142857,2.521428571428572L18.478571428571428,2.521428571428572L18.478571428571428,4.978571428571429L17.835714285714285,4.978571428571429L17.835714285714285,5.407142857142857L17.192857142857143,5.407142857142857L17.192857142857143,5.621428571428571L15.907142857142858,5.621428571428571L15.907142857142858,6.05L15.05,6.05L15.05,6.692857142857142L14.62142857142857,6.692857142857142L14.62142857142857,6.907142857142857L12.692857142857143,6.907142857142857L12.692857142857143,7.121428571428571L12.478571428571428,7.121428571428571L12.478571428571428,7.55z" stroke="none"/><path d="M9.05,12L8.95,12L8.95,11.835714285714285L8.735714285714284,11.835714285714285L8.735714285714284,11.62142857142857L8.092857142857142,11.62142857142857L8.092857142857142,10.335714285714285L7.878571428571428,10.335714285714285L7.878571428571428,9.907142857142858L7.664285714285715,9.907142857142858L7.664285714285715,9.478571428571428L7.45,9.478571428571428L7.45,9.05L7.235714285714286,9.05L7.235714285714286,8.62142857142857L7.021428571428571,8.62142857142857L7.021428571428571,8.407142857142858L6.807142857142857,8.407142857142858L6.807142857142857,7.978571428571428L6.164285714285715,7.978571428571428L6.164285714285715,7.55L6,7.55L6,7.45L6.264285714285714,7.45L6.264285714285714,7.878571428571428L6.907142857142857,7.878571428571428L6.907142857142857,8.307142857142857L7.121428571428571,8.307142857142857L7.121428571428571,8.521428571428569L7.335714285714285,8.521428571428569L7.335714285714285,8.95L7.55,8.95L7.55,9.378571428571426L7.764285714285714,9.378571428571426L7.764285714285714,9.807142857142857L7.978571428571428,9.807142857142857L7.978571428571428,10.235714285714284L8.192857142857143,10.235714285714284L8.192857142857143,11.521428571428569L8.835714285714285,11.521428571428569L8.835714285714285,11.735714285714284L9.05,11.735714285714284z" stroke="none"/><path d="M3,9.05L3,8.95L4.021428571428571,8.95L4.021428571428571,8.521428571428569L4.878571428571429,8.521428571428569L4.878571428571429,8.307142857142857L5.0928571428571425,8.307142857142857L5.0928571428571425,7.45L5.307142857142857,7.45L5.307142857142857,7.235714285714286L5.521428571428571,7.235714285714286L5.521428571428571,7.021428571428571L7.764285714285714,7.021428571428571L7.764285714285714,7.45L8.407142857142858,7.45L8.407142857142858,7.664285714285715L8.62142857142857,7.664285714285715L8.62142857142857,7.878571428571428L9.05,7.878571428571428L9.05,8.092857142857142L9.264285714285716,8.092857142857142L9.264285714285716,8.521428571428569L9.692857142857143,8.521428571428569L9.692857142857143,8.735714285714284L10.12142857142857,8.735714285714284L10.12142857142857,8.95L10.5,8.95L10.5,9.05L10.021428571428569,9.05L10.021428571428569,8.835714285714285L9.592857142857142,8.835714285714285L9.592857142857142,8.62142857142857L9.164285714285715,8.62142857142857L9.164285714285715,8.192857142857143L8.95,8.192857142857143L8.95,7.978571428571428L8.521428571428569,7.978571428571428L8.521428571428569,7.764285714285714L8.307142857142857,7.764285714285714L8.307142857142857,7.55L7.664285714285715,7.55L7.664285714285715,7.121428571428571L5.621428571428571,7.121428571428571L5.621428571428571,7.335714285714285L5.407142857142857,7.335714285714285L5.407142857142857,7.55L5.192857142857142,7.55L5.192857142857142,8.407142857142858L4.978571428571429,8.407142857142858L4.978571428571429,8.62142857142857L4.121428571428571,8.62142857142857L4.121428571428571,9.05z" stroke="none"/><path d="M7.5,12.05L7.5,11.95L8.62142857142857,11.95L8.62142857142857,12.378571428571426L13.878571428571426,12.378571428571426L13.878571428571426,12.164285714285715L14.307142857142857,12.164285714285715L14.307142857142857,11.95L15,11.95L15,12.05L14.407142857142858,12.05L14.407142857142858,12.264285714285716L13.978571428571428,12.264285714285716L13.978571428571428,12.478571428571428L8.521428571428569,12.478571428571428L8.521428571428569,12.05z" stroke="none"/><path d="M6,4.45L6,4.55L5.307142857142857,4.55L5.307142857142857,4.121428571428571L2.7357142857142858,4.121428571428571L2.7357142857142858,3.478571428571428L2.521428571428572,3.478571428571428L2.521428571428572,2.521428571428572L12.907142857142858,2.521428571428572L12.907142857142858,2.7357142857142858L13.55,2.7357142857142858L13.55,3L13.45,3L13.45,2.8357142857142854L12.807142857142857,2.8357142857142854L12.807142857142857,2.6214285714285714L2.6214285714285714,2.6214285714285714L2.6214285714285714,3.3785714285714286L2.8357142857142854,3.3785714285714286L2.8357142857142854,4.021428571428571L5.407142857142857,4.021428571428571L5.407142857142857,4.45z" stroke="none"/><path d="M9,5.95L9,6.05L8.192857142857143,6.05L8.192857142857143,6.264285714285714L7.978571428571428,6.264285714285714L7.978571428571428,6.478571428571428L4.021428571428571,6.478571428571428L4.021428571428571,6.05L3.3785714285714286,6.05L3.3785714285714286,5.835714285714285L3.1642857142857146,5.835714285714285L3.1642857142857146,5.621428571428571L2.95,5.621428571428571L2.95,5.407142857142857L2.7357142857142858,5.407142857142857L2.7357142857142858,4.978571428571429L2.521428571428572,4.978571428571429L2.521428571428572,3.6928571428571426L2.3071428571428574,3.6928571428571426L2.3071428571428574,2.3071428571428574L18.692857142857143,2.3071428571428574L18.692857142857143,3.592857142857143L19.55,3.592857142857143L19.55,4.021428571428571L19.978571428571428,4.021428571428571L19.978571428571428,5.835714285714285L19.55,5.835714285714285L19.55,6.264285714285714L19.121428571428574,6.264285714285714L19.121428571428574,6.478571428571428L18.90714285714286,6.478571428571428L18.90714285714286,6.692857142857142L18.692857142857143,6.692857142857142L18.692857142857143,7.121428571428571L18.05,7.121428571428571L18.05,7.5L17.95,7.5L17.95,7.021428571428571L18.59285714285714,7.021428571428571L18.59285714285714,6.5928571428571425L18.807142857142857,6.5928571428571425L18.807142857142857,6.378571428571428L19.021428571428572,6.378571428571428L19.021428571428572,6.164285714285715L19.45,6.164285714285715L19.45,5.735714285714286L19.878571428571426,5.735714285714286L19.878571428571426,4.121428571428571L19.45,4.121428571428571L19.45,3.6928571428571426L18.59285714285714,3.6928571428571426L18.59285714285714,2.407142857142857L2.407142857142857,2.407142857142857L2.407142857142857,3.592857142857143L2.6214285714285714,3.592857142857143L2.6214285714285714,4.878571428571429L2.8357142857142854,4.878571428571429L2.8357142857142854,5.307142857142857L3.05,5.307142857142857L3.05,5.521428571428571L3.2642857142857142,5.521428571428571L3.2642857142857142,5.735714285714286L3.478571428571428,5.735714285714286L3.478571428571428,5.95L4.121428571428571,5.95L4.121428571428571,6.378571428571428L7.878571428571428,6.378571428571428L7.878571428571428,6.164285714285715L8.092857142857142,6.164285714285715L8.092857142857142,5.95z" stroke="none"/><path d="M16.45,10.5L16.55,10.5L16.55,11.192857142857143L16.12142857142857,11.192857142857143L16.12142857142857,11.62142857142857L15.478571428571428,11.62142857142857L15.478571428571428,12.478571428571428L14.407142857142858,12.478571428571428L14.407142857142858,12.692857142857143L5.735714285714286,12.692857142857143L5.735714285714286,12.478571428571428L5.521428571428571,12.478571428571428L5.521428571428571,11.407142857142858L4.664285714285715,11.407142857142858L4.664285714285715,10.978571428571428L4.45,10.978571428571428L4.45,10.5L4.55,10.5L4.55,10.878571428571426L4.764285714285714,10.878571428571426L4.764285714285714,11.307142857142857L5.621428571428571,11.307142857142857L5.621428571428571,12.378571428571426L5.835714285714285,12.378571428571426L5.835714285714285,12.592857142857142L14.307142857142857,12.592857142857142L14.307142857142857,12.378571428571426L15.378571428571426,12.378571428571426L15.378571428571426,11.521428571428569L16.02142857142857,11.521428571428569L16.02142857142857,11.092857142857142L16.45,11.092857142857142z" stroke="none"/><path d="M16.5,11.95L16.5,12.05L16.12142857142857,12.05L16.12142857142857,12.264285714285716L15.692857142857143,12.264285714285716L15.692857142857143,12.692857142857143L14.62142857142857,12.692857142857143L14.62142857142857,12.907142857142858L5.0928571428571425,12.907142857142858L5.0928571428571425,12.264285714285716L4.878571428571429,12.264285714285716L4.878571428571429,12.05L4.5,12.05L4.5,11.95L4.978571428571429,11.95L4.978571428571429,12.164285714285715L5.192857142857142,12.164285714285715L5.192857142857142,12.807142857142857L14.521428571428569,12.807142857142857L14.521428571428569,12.592857142857142L15.592857142857142,12.592857142857142L15.592857142857142,12.164285714285715L16.02142857142857,12.164285714285715L16.02142857142857,11.95z" stroke="none"/><path d="M26.95,7.5L27.05,7.5L27.05,11.407142857142858L26.835714285714285,11.407142857142858L26.835714285714285,11.62142857142857L26.62142857142857,11.62142857142857L26.62142857142857,12.264285714285716L25.978571428571428,12.264285714285716L25.978571428571428,12.478571428571428L24.692857142857143,12.478571428571428L24.692857142857143,12.692857142857143L18.807142857142857,12.692857142857143L18.807142857142857,12.264285714285716L18.164285714285715,12.264285714285716L18.164285714285715,11.62142857142857L17.95,11.62142857142857L17.95,11.192857142857143L17.521428571428572,11.192857142857143L17.521428571428572,10.978571428571428L17.307142857142857,10.978571428571428L17.307142857142857,10.764285714285716L16.878571428571426,10.764285714285716L16.878571428571426,10.12142857142857L16.45,10.12142857142857L16.45,9.907142857142858L15.807142857142857,9.907142857142858L15.807142857142857,9.264285714285716L14.95,9.264285714285716L14.95,9L15.05,9L15.05,9.164285714285715L15.907142857142858,9.164285714285715L15.907142857142858,9.807142857142857L16.55,9.807142857142857L16.55,10.021428571428569L16.978571428571428,10.021428571428569L16.978571428571428,10.664285714285715L17.40714285714286,10.664285714285715L17.40714285714286,10.878571428571426L17.621428571428574,10.878571428571426L17.621428571428574,11.092857142857142L18.05,11.092857142857142L18.05,11.521428571428569L18.264285714285716,11.521428571428569L18.264285714285716,12.164285714285715L18.90714285714286,12.164285714285715L18.90714285714286,12.592857142857142L24.59285714285714,12.592857142857142L24.59285714285714,12.378571428571426L25.878571428571426,12.378571428571426L25.878571428571426,12.164285714285715L26.52142857142857,12.164285714285715L26.52142857142857,11.521428571428569L26.735714285714284,11.521428571428569L26.735714285714284,11.307142857142857L26.95,11.307142857142857z" stroke="none"/><path d="M7.55,10.5L7.45,10.5L7.45,9.692857142857143L7.235714285714286,9.692857142857143L7.235714285714286,9.478571428571428L6.378571428571428,9.478571428571428L6.378571428571428,8.62142857142857L5.621428571428571,8.62142857142857L5.621428571428571,9.05L4.764285714285714,9.05L4.764285714285714,9.264285714285716L3.478571428571428,9.264285714285716L3.478571428571428,9.478571428571428L2.521428571428572,9.478571428571428L2.521428571428572,5.407142857142857L2.3071428571428574,5.407142857142857L2.3071428571428574,5.192857142857142L2.092857142857143,5.192857142857142L2.092857142857143,2.092857142857143L18.90714285714286,2.092857142857143L18.90714285714286,3.3785714285714286L19.764285714285716,3.3785714285714286L19.764285714285716,3.8071428571428574L20.192857142857143,3.8071428571428574L20.192857142857143,6.692857142857142L19.978571428571428,6.692857142857142L19.978571428571428,7.335714285714285L19.764285714285716,7.335714285714285L19.764285714285716,7.55L19.5,7.55L19.5,7.45L19.664285714285715,7.45L19.664285714285715,7.235714285714286L19.878571428571426,7.235714285714286L19.878571428571426,6.5928571428571425L20.09285714285714,6.5928571428571425L20.09285714285714,3.907142857142857L19.664285714285715,3.907142857142857L19.664285714285715,3.478571428571428L18.807142857142857,3.478571428571428L18.807142857142857,2.1928571428571426L2.1928571428571426,2.1928571428571426L2.1928571428571426,5.0928571428571425L2.407142857142857,5.0928571428571425L2.407142857142857,5.307142857142857L2.6214285714285714,5.307142857142857L2.6214285714285714,9.378571428571426L3.3785714285714286,9.378571428571426L3.3785714285714286,9.164285714285715L4.664285714285715,9.164285714285715L4.664285714285715,8.95L5.521428571428571,8.95L5.521428571428571,8.521428571428569L6.478571428571428,8.521428571428569L6.478571428571428,9.378571428571426L7.335714285714285,9.378571428571426L7.335714285714285,9.592857142857142L7.55,9.592857142857142z" stroke="none"/></svg>