<svg version="1.1" width="30" height="15" xmlns="http://www.w3.org/2000/svg"><path d="M7.021428571428571,3.3785714285714286L7.021428571428571,3.1642857142857146L7.235714285714286,3.1642857142857146L7.235714285714286,2.95L7.5,2.95L7.5,3.05L7.335714285714285,3.05L7.335714285714285,3.2642857142857142L7.121428571428571,3.2642857142857142L7.121428571428571,3.478571428571428L6.907142857142857,3.478571428571428L6.907142857142857,3.592857142857143L10.235714285714284,3.592857142857143L10.235714285714284,3.1642857142857146L10.45,3.1642857142857146L10.45,3L10.55,3L10.55,3.2642857142857142L10.335714285714285,3.2642857142857142L10.335714285714285,3.6928571428571426L6.807142857142857,3.6928571428571426L6.807142857142857,3.478571428571428L3.2642857142857142,3.478571428571428L3.2642857142857142,4.335714285714285L3.05,4.335714285714285L3.05,4.5L2.95,4.5L2.95,4.235714285714286L3.1642857142857146,4.235714285714286L3.1642857142857146,3.3785714285714286z" stroke="none"/><path d="M22.664285714285715,6.5928571428571425L22.664285714285715,6.378571428571428L23.95,6.378571428571428L23.95,6L24.05,6L24.05,6.478571428571428L22.764285714285716,6.478571428571428L22.764285714285716,6.692857142857142L19.55,6.692857142857142L19.55,6.907142857142857L18.264285714285716,6.907142857142857L18.264285714285716,7.121428571428571L17.192857142857143,7.121428571428571L17.192857142857143,7.335714285714285L16.764285714285716,7.335714285714285L16.764285714285716,7.55L16.5,7.55L16.5,7.45L16.664285714285715,7.45L16.664285714285715,7.235714285714286L17.09285714285714,7.235714285714286L17.09285714285714,7.021428571428571L18.164285714285715,7.021428571428571L18.164285714285715,6.807142857142857L19.45,6.807142857142857L19.45,6.692857142857142L19.021428571428572,6.692857142857142L19.021428571428572,6.478571428571428L18.807142857142857,6.478571428571428L18.807142857142857,6.264285714285714L18.164285714285715,6.264285714285714L18.164285714285715,6.05L18,6.05L18,5.95L18.264285714285716,5.95L18.264285714285716,6.164285714285715L18.90714285714286,6.164285714285715L18.90714285714286,6.378571428571428L19.121428571428574,6.378571428571428L19.121428571428574,6.5928571428571425z" stroke="none"/><path d="M8.092857142857142,10.45L8.092857142857142,9.907142857142858L7.664285714285715,9.907142857142858L7.664285714285715,9.692857142857143L7.45,9.692857142857143L7.45,9.05L6.5928571428571425,9.05L6.5928571428571425,8.835714285714285L6.378571428571428,8.835714285714285L6.378571428571428,7.764285714285714L5.95,7.764285714285714L5.95,7.5L6.05,7.5L6.05,7.664285714285715L6.478571428571428,7.664285714285715L6.478571428571428,8.735714285714284L6.692857142857142,8.735714285714284L6.692857142857142,8.95L7.55,8.95L7.55,9.592857142857142L7.764285714285714,9.592857142857142L7.764285714285714,9.807142857142857L8.192857142857143,9.807142857142857L8.192857142857143,10.45L12.478571428571428,10.45L12.478571428571428,11.092857142857142L12.692857142857143,11.092857142857142L12.692857142857143,11.307142857142857L13.335714285714285,11.307142857142857L13.335714285714285,11.521428571428569L14.192857142857143,11.521428571428569L14.192857142857143,11.735714285714284L14.407142857142858,11.735714285714284L14.407142857142858,11.95L15,11.95L15,12.05L14.307142857142857,12.05L14.307142857142857,11.835714285714285L14.092857142857142,11.835714285714285L14.092857142857142,11.62142857142857L13.235714285714284,11.62142857142857L13.235714285714284,11.407142857142858L12.592857142857142,11.407142857142858L12.592857142857142,11.192857142857143L12.378571428571426,11.192857142857143L12.378571428571426,10.55L7.978571428571428,10.55L7.978571428571428,10.978571428571428L3.2642857142857142,10.978571428571428L3.2642857142857142,11.407142857142858L3.05,11.407142857142858L3.05,12L2.95,12L2.95,11.307142857142857L3.1642857142857146,11.307142857142857L3.1642857142857146,10.878571428571426L7.878571428571428,10.878571428571426L7.878571428571428,10.45z" stroke="none"/><path d="M21.59285714285714,10.664285714285715L21.59285714285714,9.164285714285715L21.807142857142857,9.164285714285715L21.807142857142857,8.95L22.5,8.95L22.5,9.05L21.90714285714286,9.05L21.90714285714286,9.264285714285716L21.692857142857143,9.264285714285716L21.692857142857143,10.664285714285715L21.90714285714286,10.664285714285715L21.90714285714286,10.878571428571426L24.59285714285714,10.878571428571426L24.59285714285714,10.664285714285715L25.02142857142857,10.664285714285715L25.02142857142857,10.45L25.5,10.45L25.5,10.55L25.12142857142857,10.55L25.12142857142857,10.764285714285716L24.692857142857143,10.764285714285716L24.692857142857143,10.978571428571428L21.807142857142857,10.978571428571428L21.807142857142857,10.764285714285716L21.692857142857143,10.764285714285716L21.692857142857143,11.092857142857142L24.692857142857143,11.092857142857142L24.692857142857143,11.521428571428569L25.55,11.521428571428569L25.55,12L25.45,12L25.45,11.62142857142857L24.59285714285714,11.62142857142857L24.59285714285714,11.192857142857143L21.59285714285714,11.192857142857143L21.59285714285714,10.764285714285716L21.264285714285716,10.764285714285716L21.264285714285716,10.978571428571428L20.621428571428574,10.978571428571428L20.621428571428574,11.192857142857143L19.55,11.192857142857143L19.55,11.407142857142858L19.335714285714285,11.407142857142858L19.335714285714285,11.62142857142857L19.121428571428574,11.62142857142857L19.121428571428574,11.835714285714285L17.621428571428574,11.835714285714285L17.621428571428574,12.478571428571428L16.335714285714285,12.478571428571428L16.335714285714285,12.692857142857143L10.45,12.692857142857143L10.45,12.478571428571428L10.021428571428569,12.478571428571428L10.021428571428569,11.521428571428569L11.835714285714285,11.521428571428569L11.835714285714285,11.735714285714284L13.55,11.735714285714284L13.55,12L13.45,12L13.45,11.835714285714285L11.735714285714284,11.835714285714285L11.735714285714284,11.62142857142857L10.12142857142857,11.62142857142857L10.12142857142857,12.378571428571426L10.55,12.378571428571426L10.55,12.592857142857142L16.235714285714284,12.592857142857142L16.235714285714284,12.378571428571426L17.521428571428572,12.378571428571426L17.521428571428572,11.735714285714284L19.021428571428572,11.735714285714284L19.021428571428572,11.521428571428569L19.235714285714284,11.521428571428569L19.235714285714284,11.307142857142857L19.45,11.307142857142857L19.45,11.092857142857142L20.521428571428572,11.092857142857142L20.521428571428572,10.878571428571426L21.164285714285715,10.878571428571426L21.164285714285715,10.664285714285715z" stroke="none"/><path d="M14.092857142857142,7.45L14.092857142857142,6.907142857142857L13.664285714285715,6.907142857142857L13.664285714285715,6.692857142857142L13.45,6.692857142857142L13.45,6.478571428571428L13.235714285714284,6.478571428571428L13.235714285714284,6.264285714285714L13.021428571428569,6.264285714285714L13.021428571428569,6.05L12.807142857142857,6.05L12.807142857142857,5.835714285714285L11.835714285714285,5.835714285714285L11.835714285714285,6.692857142857142L11.192857142857143,6.692857142857142L11.192857142857143,6.907142857142857L10.978571428571428,6.907142857142857L10.978571428571428,7.121428571428571L9.692857142857143,7.121428571428571L9.692857142857143,7.335714285714285L9.264285714285716,7.335714285714285L9.264285714285716,7.55L9,7.55L9,7.45L9.164285714285715,7.45L9.164285714285715,7.235714285714286L9.592857142857142,7.235714285714286L9.592857142857142,7.021428571428571L10.878571428571426,7.021428571428571L10.878571428571426,6.807142857142857L11.092857142857142,6.807142857142857L11.092857142857142,6.5928571428571425L11.735714285714284,6.5928571428571425L11.735714285714284,5.735714285714286L12.907142857142858,5.735714285714286L12.907142857142858,5.95L13.12142857142857,5.95L13.12142857142857,6.164285714285715L13.335714285714285,6.164285714285715L13.335714285714285,6.378571428571428L13.55,6.378571428571428L13.55,6.5928571428571425L13.764285714285716,6.5928571428571425L13.764285714285716,6.807142857142857L14.192857142857143,6.807142857142857L14.192857142857143,7.45L14.307142857142857,7.45L14.307142857142857,7.021428571428571L14.521428571428569,7.021428571428571L14.521428571428569,6.5928571428571425L14.735714285714284,6.5928571428571425L14.735714285714284,6.378571428571428L14.95,6.378571428571428L14.95,5.95L15.164285714285715,5.95L15.164285714285715,5.521428571428571L19.335714285714285,5.521428571428571L19.335714285714285,5.735714285714286L19.55,5.735714285714286L19.55,6L19.45,6L19.45,5.835714285714285L19.235714285714284,5.835714285714285L19.235714285714284,5.621428571428571L15.264285714285716,5.621428571428571L15.264285714285716,6.05L15.05,6.05L15.05,6.478571428571428L14.835714285714285,6.478571428571428L14.835714285714285,6.692857142857142L14.62142857142857,6.692857142857142L14.62142857142857,7.121428571428571L14.407142857142858,7.121428571428571L14.407142857142858,7.55L14.192857142857143,7.55L14.192857142857143,10.235714285714284L14.407142857142858,10.235714285714284L14.407142857142858,10.45L15,10.45L15,10.55L14.307142857142857,10.55L14.307142857142857,10.335714285714285L14.092857142857142,10.335714285714285L14.092857142857142,7.55L13.878571428571426,7.55L13.878571428571426,7.121428571428571L12.164285714285715,7.121428571428571L12.164285714285715,6.264285714285714L11.95,6.264285714285714L11.95,6L12.05,6L12.05,6.164285714285715L12.264285714285716,6.164285714285715L12.264285714285716,7.021428571428571L13.978571428571428,7.021428571428571L13.978571428571428,7.45z" stroke="none"/><path d="M16.664285714285715,9.592857142857142L16.664285714285715,9.378571428571426L20.521428571428572,9.378571428571426L20.521428571428572,8.95L20.735714285714284,8.95L20.735714285714284,8.735714285714284L22.021428571428572,8.735714285714284L22.021428571428572,8.521428571428569L22.978571428571428,8.521428571428569L22.978571428571428,9.478571428571428L22.764285714285716,9.478571428571428L22.764285714285716,9.692857142857143L22.55,9.692857142857143L22.55,10.5L22.45,10.5L22.45,9.592857142857142L22.664285714285715,9.592857142857142L22.664285714285715,9.378571428571426L22.878571428571426,9.378571428571426L22.878571428571426,8.62142857142857L22.121428571428574,8.62142857142857L22.121428571428574,8.835714285714285L20.835714285714285,8.835714285714285L20.835714285714285,9.05L20.621428571428574,9.05L20.621428571428574,9.478571428571428L16.764285714285716,9.478571428571428L16.764285714285716,9.592857142857142L20.735714285714284,9.592857142857142L20.735714285714284,9.164285714285715L20.95,9.164285714285715L20.95,9L21.05,9L21.05,9.264285714285716L20.835714285714285,9.264285714285716L20.835714285714285,9.692857142857143L16.764285714285716,9.692857142857143L16.764285714285716,11.407142857142858L16.335714285714285,11.407142857142858L16.335714285714285,11.62142857142857L16.12142857142857,11.62142857142857L16.12142857142857,11.835714285714285L15.907142857142858,11.835714285714285L15.907142857142858,12.05L15.692857142857143,12.05L15.692857142857143,12.264285714285716L15.478571428571428,12.264285714285716L15.478571428571428,12.478571428571428L10.664285714285715,12.478571428571428L10.664285714285715,12.264285714285716L10.45,12.264285714285716L10.45,12L10.55,12L10.55,12.164285714285715L10.764285714285716,12.164285714285715L10.764285714285716,12.378571428571426L15.378571428571426,12.378571428571426L15.378571428571426,12.164285714285715L15.592857142857142,12.164285714285715L15.592857142857142,11.95L15.807142857142857,11.95L15.807142857142857,11.735714285714284L16.02142857142857,11.735714285714284L16.02142857142857,11.521428571428569L16.235714285714284,11.521428571428569L16.235714285714284,11.307142857142857L16.664285714285715,11.307142857142857L16.664285714285715,9.692857142857143L16.55,9.692857142857143L16.55,9.907142857142858L16.335714285714285,9.907142857142858L16.335714285714285,10.12142857142857L16.12142857142857,10.12142857142857L16.12142857142857,10.335714285714285L15.692857142857143,10.335714285714285L15.692857142857143,10.978571428571428L14.307142857142857,10.978571428571428L14.307142857142857,10.764285714285716L13.878571428571426,10.764285714285716L13.878571428571426,8.62142857142857L13.664285714285715,8.62142857142857L13.664285714285715,7.764285714285714L13.45,7.764285714285714L13.45,7.5L13.55,7.5L13.55,7.664285714285715L13.764285714285716,7.664285714285715L13.764285714285716,8.521428571428569L13.978571428571428,8.521428571428569L13.978571428571428,10.664285714285715L14.407142857142858,10.664285714285715L14.407142857142858,10.878571428571426L15.592857142857142,10.878571428571426L15.592857142857142,10.235714285714284L16.02142857142857,10.235714285714284L16.02142857142857,10.021428571428569L16.235714285714284,10.021428571428569L16.235714285714284,9.807142857142857L16.45,9.807142857142857L16.45,9.592857142857142z" stroke="none"/><path d="M21,3.05L21,2.95L22.5,2.95L22.5,3.05z" stroke="none"/><path d="M19.5,4.45L19.5,4.55L18,4.55L18,4.45z" stroke="none"/><path d="M21,7.55L21,7.45L22.878571428571426,7.45L22.878571428571426,7.235714285714286L23.09285714285714,7.235714285714286L23.09285714285714,6.807142857142857L23.52142857142857,6.807142857142857L23.52142857142857,6.5928571428571425L24.164285714285715,6.5928571428571425L24.164285714285715,6.378571428571428L24.378571428571426,6.378571428571428L24.378571428571426,5.621428571428571L21.05,5.621428571428571L21.05,6L20.95,6L20.95,5.521428571428571L24.478571428571428,5.521428571428571L24.478571428571428,6.478571428571428L24.264285714285716,6.478571428571428L24.264285714285716,6.692857142857142L23.62142857142857,6.692857142857142L23.62142857142857,6.907142857142857L23.192857142857143,6.907142857142857L23.192857142857143,7.335714285714285L22.978571428571428,7.335714285714285L22.978571428571428,7.55z" stroke="none"/><path d="M26.95,4.5L27.05,4.5L27.05,6L26.95,6z" stroke="none"/><path d="M26.95,9L27.05,9L27.05,10.5L26.95,10.5z" stroke="none"/><path d="M18,3.05L18,2.95L19.5,2.95L19.5,3.05z" stroke="none"/><path d="M25.45,6L25.55,6L25.55,6.692857142857142L24.90714285714286,6.692857142857142L24.90714285714286,7.121428571428571L24.478571428571428,7.121428571428571L24.478571428571428,7.335714285714285L24.264285714285716,7.335714285714285L24.264285714285716,7.55L24,7.55L24,7.45L24.164285714285715,7.45L24.164285714285715,7.235714285714286L24.378571428571426,7.235714285714286L24.378571428571426,7.021428571428571L24.807142857142857,7.021428571428571L24.807142857142857,6.5928571428571425L25.45,6.5928571428571425z" stroke="none"/><path d="M21,4.55L21,4.45L24,4.45L24,4.55z" stroke="none"/><path d="M9,4.55L9,4.45L10.45,4.45L10.45,3.3785714285714286L11.307142857142857,3.3785714285714286L11.307142857142857,3.1642857142857146L11.735714285714284,3.1642857142857146L11.735714285714284,2.95L12,2.95L12,3.05L11.835714285714285,3.05L11.835714285714285,3.2642857142857142L11.407142857142858,3.2642857142857142L11.407142857142858,3.478571428571428L10.55,3.478571428571428L10.55,4.55z" stroke="none"/><path d="M4.45,4.5L4.55,4.5L4.55,7.121428571428571L3.907142857142857,7.121428571428571L3.907142857142857,7.335714285714285L3.6928571428571426,7.335714285714285L3.6928571428571426,7.55L3,7.55L3,7.45L3.592857142857143,7.45L3.592857142857143,7.235714285714286L3.8071428571428574,7.235714285714286L3.8071428571428574,7.021428571428571L4.45,7.021428571428571z" stroke="none"/><path d="M16.5,12.05L16.5,11.95L17.307142857142857,11.95L17.307142857142857,11.521428571428569L18.164285714285715,11.521428571428569L18.164285714285715,11.307142857142857L19.021428571428572,11.307142857142857L19.021428571428572,11.092857142857142L19.235714285714284,11.092857142857142L19.235714285714284,10.664285714285715L19.45,10.664285714285715L19.45,10.5L19.55,10.5L19.55,10.764285714285716L19.335714285714285,10.764285714285716L19.335714285714285,11.192857142857143L19.121428571428574,11.192857142857143L19.121428571428574,11.407142857142858L18.264285714285716,11.407142857142858L18.264285714285716,11.62142857142857L17.40714285714286,11.62142857142857L17.40714285714286,12.05z" stroke="none"/><path d="M27.05,12L26.95,12L26.95,11.407142857142858L26.52142857142857,11.407142857142858L26.52142857142857,10.335714285714285L26.307142857142857,10.335714285714285L26.307142857142857,10.12142857142857L26.09285714285714,10.12142857142857L26.09285714285714,9.907142857142858L25.235714285714284,9.907142857142858L25.235714285714284,9.692857142857143L25.02142857142857,9.692857142857143L25.02142857142857,9.478571428571428L24.59285714285714,9.478571428571428L24.59285714285714,9.264285714285716L23.95,9.264285714285716L23.95,9L24.05,9L24.05,9.164285714285715L24.692857142857143,9.164285714285715L24.692857142857143,9.378571428571426L25.12142857142857,9.378571428571426L25.12142857142857,9.592857142857142L25.335714285714285,9.592857142857142L25.335714285714285,9.807142857142857L26.192857142857143,9.807142857142857L26.192857142857143,10.021428571428569L26.40714285714286,10.021428571428569L26.40714285714286,10.235714285714284L26.62142857142857,10.235714285714284L26.62142857142857,11.307142857142857L27.05,11.307142857142857z" stroke="none"/><path d="M6.05,9L5.95,9L5.95,8.192857142857143L5.521428571428571,8.192857142857143L5.521428571428571,5.521428571428571L5.735714285714286,5.521428571428571L5.735714285714286,5.307142857142857L5.95,5.307142857142857L5.95,4.5L6.05,4.5L6.05,5.407142857142857L5.835714285714285,5.407142857142857L5.835714285714285,5.621428571428571L5.621428571428571,5.621428571428571L5.621428571428571,8.092857142857142L6.05,8.092857142857142z" stroke="none"/><path d="M27,7.55L27,7.45L27.164285714285715,7.45L27.164285714285715,6.378571428571428L27.378571428571426,6.378571428571428L27.378571428571426,3.05L27,3.05L27,2.95L27.478571428571428,2.95L27.478571428571428,6.478571428571428L27.264285714285716,6.478571428571428L27.264285714285716,7.55z" stroke="none"/><path d="M7.5,10.45L7.5,10.55L7.235714285714286,10.55L7.235714285714286,10.335714285714285L7.021428571428571,10.335714285714285L7.021428571428571,10.12142857142857L6.5928571428571425,10.12142857142857L6.5928571428571425,9.907142857142858L6.164285714285715,9.907142857142858L6.164285714285715,9.692857142857143L5.95,9.692857142857143L5.95,9.478571428571428L5.521428571428571,9.478571428571428L5.521428571428571,8.62142857142857L5.307142857142857,8.62142857142857L5.307142857142857,5.0928571428571425L5.521428571428571,5.0928571428571425L5.521428571428571,4.021428571428571L6.478571428571428,4.021428571428571L6.478571428571428,5.621428571428571L6.05,5.621428571428571L6.05,6L5.95,6L5.95,5.521428571428571L6.378571428571428,5.521428571428571L6.378571428571428,4.121428571428571L5.621428571428571,4.121428571428571L5.621428571428571,5.192857142857142L5.407142857142857,5.192857142857142L5.407142857142857,8.521428571428569L5.621428571428571,8.521428571428569L5.621428571428571,9.378571428571426L6.05,9.378571428571426L6.05,9.592857142857142L6.264285714285714,9.592857142857142L6.264285714285714,9.807142857142857L6.692857142857142,9.807142857142857L6.692857142857142,10.021428571428569L7.121428571428571,10.021428571428569L7.121428571428571,10.235714285714284L7.335714285714285,10.235714285714284L7.335714285714285,10.45z" stroke="none"/><path d="M6,10.45L6,10.55L5.735714285714286,10.55L5.735714285714286,10.12142857142857L5.307142857142857,10.12142857142857L5.307142857142857,8.835714285714285L5.0928571428571425,8.835714285714285L5.0928571428571425,4.021428571428571L5.307142857142857,4.021428571428571L5.307142857142857,3.8071428571428574L7.55,3.8071428571428574L7.55,4.021428571428571L7.978571428571428,4.021428571428571L7.978571428571428,4.45L8.192857142857143,4.45L8.192857142857143,4.878571428571429L8.407142857142858,4.878571428571429L8.407142857142858,5.0928571428571425L8.835714285714285,5.0928571428571425L8.835714285714285,5.735714285714286L9.05,5.735714285714286L9.05,6L8.95,6L8.95,5.835714285714285L8.735714285714284,5.835714285714285L8.735714285714284,5.192857142857142L8.307142857142857,5.192857142857142L8.307142857142857,4.978571428571429L8.092857142857142,4.978571428571429L8.092857142857142,4.55L7.878571428571428,4.55L7.878571428571428,4.121428571428571L7.45,4.121428571428571L7.45,3.907142857142857L5.407142857142857,3.907142857142857L5.407142857142857,4.121428571428571L5.192857142857142,4.121428571428571L5.192857142857142,8.735714285714284L5.407142857142857,8.735714285714284L5.407142857142857,10.021428571428569L5.835714285714285,10.021428571428569L5.835714285714285,10.45z" stroke="none"/><path d="M7.55,7.5L7.45,7.5L7.45,7.021428571428571L8.307142857142857,7.021428571428571L8.307142857142857,6.807142857142857L10.45,6.807142857142857L10.45,6.378571428571428L10.664285714285715,6.378571428571428L10.664285714285715,5.95L11.307142857142857,5.95L11.307142857142857,5.735714285714286L11.521428571428569,5.735714285714286L11.521428571428569,5.521428571428571L14.95,5.521428571428571L14.95,5.307142857142857L24.692857142857143,5.307142857142857L24.692857142857143,6.692857142857142L24.478571428571428,6.692857142857142L24.478571428571428,6.907142857142857L23.835714285714285,6.907142857142857L23.835714285714285,7.121428571428571L23.40714285714286,7.121428571428571L23.40714285714286,7.55L23.192857142857143,7.55L23.192857142857143,7.764285714285714L21.478571428571428,7.764285714285714L21.478571428571428,7.978571428571428L16.02142857142857,7.978571428571428L16.02142857142857,7.764285714285714L14.95,7.764285714285714L14.95,7.5L15.05,7.5L15.05,7.664285714285715L16.12142857142857,7.664285714285715L16.12142857142857,7.878571428571428L21.378571428571426,7.878571428571428L21.378571428571426,7.664285714285715L23.09285714285714,7.664285714285715L23.09285714285714,7.45L23.307142857142857,7.45L23.307142857142857,7.021428571428571L23.735714285714284,7.021428571428571L23.735714285714284,6.807142857142857L24.378571428571426,6.807142857142857L24.378571428571426,6.5928571428571425L24.59285714285714,6.5928571428571425L24.59285714285714,5.407142857142857L15.05,5.407142857142857L15.05,5.621428571428571L11.62142857142857,5.621428571428571L11.62142857142857,5.835714285714285L11.407142857142858,5.835714285714285L11.407142857142858,6.05L10.764285714285716,6.05L10.764285714285716,6.478571428571428L10.55,6.478571428571428L10.55,6.907142857142857L8.407142857142858,6.907142857142857L8.407142857142858,7.121428571428571L7.55,7.121428571428571z" stroke="none"/><path d="M25.5,4.55L25.5,4.45L25.978571428571428,4.45L25.978571428571428,6.692857142857142L25.764285714285716,6.692857142857142L25.764285714285716,6.907142857142857L25.55,6.907142857142857L25.55,7.121428571428571L25.12142857142857,7.121428571428571L25.12142857142857,7.335714285714285L24.692857142857143,7.335714285714285L24.692857142857143,7.764285714285714L24.478571428571428,7.764285714285714L24.478571428571428,7.978571428571428L22.121428571428574,7.978571428571428L22.121428571428574,8.192857142857143L18.692857142857143,8.192857142857143L18.692857142857143,8.835714285714285L18.05,8.835714285714285L18.05,9L17.95,9L17.95,8.735714285714284L18.59285714285714,8.735714285714284L18.59285714285714,8.092857142857142L22.021428571428572,8.092857142857142L22.021428571428572,7.878571428571428L24.378571428571426,7.878571428571428L24.378571428571426,7.664285714285715L24.59285714285714,7.664285714285715L24.59285714285714,7.235714285714286L25.02142857142857,7.235714285714286L25.02142857142857,7.021428571428571L25.45,7.021428571428571L25.45,6.807142857142857L25.664285714285715,6.807142857142857L25.664285714285715,6.5928571428571425L25.878571428571426,6.5928571428571425L25.878571428571426,4.55z" stroke="none"/><path d="M13.55,4.5L13.45,4.5L13.45,3.907142857142857L13.235714285714284,3.907142857142857L13.235714285714284,3.6928571428571426L13.021428571428569,3.6928571428571426L13.021428571428569,3.05L12.807142857142857,3.05L12.807142857142857,2.8357142857142854L12.592857142857142,2.8357142857142854L12.592857142857142,2.6214285714285714L6.05,2.6214285714285714L6.05,2.8357142857142854L5.192857142857142,2.8357142857142854L5.192857142857142,3.05L4.5,3.05L4.5,2.95L5.0928571428571425,2.95L5.0928571428571425,2.7357142857142858L5.95,2.7357142857142858L5.95,2.521428571428572L12.692857142857143,2.521428571428572L12.692857142857143,2.7357142857142858L12.907142857142858,2.7357142857142858L12.907142857142858,2.95L13.12142857142857,2.95L13.12142857142857,3.592857142857143L13.335714285714285,3.592857142857143L13.335714285714285,3.8071428571428574L13.55,3.8071428571428574z" stroke="none"/><path d="M16.5,2.95L16.5,3.05L16.335714285714285,3.05L16.335714285714285,3.478571428571428L15.692857142857143,3.478571428571428L15.692857142857143,3.6928571428571426L15.478571428571428,3.6928571428571426L15.478571428571428,3.907142857142857L15.264285714285716,3.907142857142857L15.264285714285716,4.121428571428571L15.05,4.121428571428571L15.05,4.335714285714285L14.835714285714285,4.335714285714285L14.835714285714285,4.55L14.192857142857143,4.55L14.192857142857143,4.978571428571429L9.907142857142858,4.978571428571429L9.907142857142858,5.192857142857142L9.692857142857143,5.192857142857142L9.692857142857143,5.407142857142857L9.478571428571428,5.407142857142857L9.478571428571428,6.478571428571428L8.521428571428569,6.478571428571428L8.521428571428569,6.264285714285714L8.307142857142857,6.264285714285714L8.307142857142857,5.835714285714285L7.878571428571428,5.835714285714285L7.878571428571428,5.192857142857142L7.45,5.192857142857142L7.45,4.5L7.55,4.5L7.55,5.0928571428571425L7.978571428571428,5.0928571428571425L7.978571428571428,5.735714285714286L8.407142857142858,5.735714285714286L8.407142857142858,6.164285714285715L8.62142857142857,6.164285714285715L8.62142857142857,6.378571428571428L9.378571428571426,6.378571428571428L9.378571428571426,5.307142857142857L9.592857142857142,5.307142857142857L9.592857142857142,5.0928571428571425L9.807142857142857,5.0928571428571425L9.807142857142857,4.878571428571429L14.092857142857142,4.878571428571429L14.092857142857142,4.45L14.735714285714284,4.45L14.735714285714284,4.235714285714286L14.95,4.235714285714286L14.95,4.021428571428571L15.164285714285715,4.021428571428571L15.164285714285715,3.8071428571428574L15.378571428571426,3.8071428571428574L15.378571428571426,3.592857142857143L15.592857142857142,3.592857142857143L15.592857142857142,3.3785714285714286L16.235714285714284,3.3785714285714286L16.235714285714284,2.95z" stroke="none"/><path d="M25.55,9L25.45,9L25.45,7.235714285714286L25.664285714285715,7.235714285714286L25.664285714285715,7.021428571428571L25.878571428571426,7.021428571428571L25.878571428571426,6.807142857142857L26.09285714285714,6.807142857142857L26.09285714285714,4.121428571428571L17.621428571428574,4.121428571428571L17.621428571428574,4.335714285714285L17.40714285714286,4.335714285714285L17.40714285714286,4.55L16.5,4.55L16.5,4.45L17.307142857142857,4.45L17.307142857142857,4.235714285714286L17.521428571428572,4.235714285714286L17.521428571428572,4.021428571428571L26.192857142857143,4.021428571428571L26.192857142857143,6.907142857142857L25.978571428571428,6.907142857142857L25.978571428571428,7.121428571428571L25.764285714285716,7.121428571428571L25.764285714285716,7.335714285714285L25.55,7.335714285714285z" stroke="none"/><path d="M24,10.55L24,10.45L24.378571428571426,10.45L24.378571428571426,10.235714285714284L24.59285714285714,10.235714285714284L24.59285714285714,10.021428571428569L25.978571428571428,10.021428571428569L25.978571428571428,11.735714285714284L26.40714285714286,11.735714285714284L26.40714285714286,12.164285714285715L26.62142857142857,12.164285714285715L26.62142857142857,12.378571428571426L27.378571428571426,12.378571428571426L27.378571428571426,8.62142857142857L26.95,8.62142857142857L26.95,8.407142857142858L26.735714285714284,8.407142857142858L26.735714285714284,7.978571428571428L26.52142857142857,7.978571428571428L26.52142857142857,3.907142857142857L15.692857142857143,3.907142857142857L15.692857142857143,4.335714285714285L15.478571428571428,4.335714285714285L15.478571428571428,4.55L15.264285714285716,4.55L15.264285714285716,4.764285714285714L15.05,4.764285714285714L15.05,4.978571428571429L14.835714285714285,4.978571428571429L14.835714285714285,5.192857142857142L11.407142857142858,5.192857142857142L11.407142857142858,5.407142857142857L10.764285714285716,5.407142857142857L10.764285714285716,5.835714285714285L10.55,5.835714285714285L10.55,6.264285714285714L10.12142857142857,6.264285714285714L10.12142857142857,6.478571428571428L9.692857142857143,6.478571428571428L9.692857142857143,6.692857142857142L7.335714285714285,6.692857142857142L7.335714285714285,6.907142857142857L7.121428571428571,6.907142857142857L7.121428571428571,7.878571428571428L9.478571428571428,7.878571428571428L9.478571428571428,8.092857142857142L10.978571428571428,8.092857142857142L10.978571428571428,8.307142857142857L11.192857142857143,8.307142857142857L11.192857142857143,9.807142857142857L13.335714285714285,9.807142857142857L13.335714285714285,10.45L13.5,10.45L13.5,10.55L13.235714285714284,10.55L13.235714285714284,9.907142857142858L11.092857142857142,9.907142857142858L11.092857142857142,8.407142857142858L10.878571428571426,8.407142857142858L10.878571428571426,8.192857142857143L9.378571428571426,8.192857142857143L9.378571428571426,7.978571428571428L7.021428571428571,7.978571428571428L7.021428571428571,6.807142857142857L7.235714285714286,6.807142857142857L7.235714285714286,6.5928571428571425L9.592857142857142,6.5928571428571425L9.592857142857142,6.378571428571428L10.021428571428569,6.378571428571428L10.021428571428569,6.164285714285715L10.45,6.164285714285715L10.45,5.735714285714286L10.664285714285715,5.735714285714286L10.664285714285715,5.307142857142857L11.307142857142857,5.307142857142857L11.307142857142857,5.0928571428571425L14.735714285714284,5.0928571428571425L14.735714285714284,4.878571428571429L14.95,4.878571428571429L14.95,4.664285714285715L15.164285714285715,4.664285714285715L15.164285714285715,4.45L15.378571428571426,4.45L15.378571428571426,4.235714285714286L15.592857142857142,4.235714285714286L15.592857142857142,3.8071428571428574L26.62142857142857,3.8071428571428574L26.62142857142857,7.878571428571428L26.835714285714285,7.878571428571428L26.835714285714285,8.307142857142857L27.05,8.307142857142857L27.05,8.521428571428569L27.478571428571428,8.521428571428569L27.478571428571428,12.478571428571428L26.52142857142857,12.478571428571428L26.52142857142857,12.264285714285716L26.307142857142857,12.264285714285716L26.307142857142857,11.835714285714285L25.878571428571426,11.835714285714285L25.878571428571426,10.12142857142857L24.692857142857143,10.12142857142857L24.692857142857143,10.335714285714285L24.478571428571428,10.335714285714285L24.478571428571428,10.55z" stroke="none"/><path d="M13.55,3L13.45,3L13.45,2.8357142857142854L13.235714285714284,2.8357142857142854L13.235714285714284,2.6214285714285714L13.021428571428569,2.6214285714285714L13.021428571428569,2.407142857142857L4.121428571428571,2.407142857142857L4.121428571428571,2.6214285714285714L3.6928571428571426,2.6214285714285714L3.6928571428571426,3.05L3.05,3.05L3.05,3.907142857142857L2.6214285714285714,3.907142857142857L2.6214285714285714,5.735714285714286L2.8357142857142854,5.735714285714286L2.8357142857142854,5.95L3,5.95L3,6.05L2.7357142857142858,6.05L2.7357142857142858,5.835714285714285L2.521428571428572,5.835714285714285L2.521428571428572,3.8071428571428574L2.95,3.8071428571428574L2.95,2.95L3.592857142857143,2.95L3.592857142857143,2.521428571428572L4.021428571428571,2.521428571428572L4.021428571428571,2.3071428571428574L13.12142857142857,2.3071428571428574L13.12142857142857,2.521428571428572L13.335714285714285,2.521428571428572L13.335714285714285,2.7357142857142858L13.55,2.7357142857142858z" stroke="none"/><path d="M4.45,7.5L4.55,7.5L4.55,7.764285714285714L3.478571428571428,7.764285714285714L3.478571428571428,7.978571428571428L2.521428571428572,7.978571428571428L2.521428571428572,6.05L2.3071428571428574,6.05L2.3071428571428574,3.592857142857143L2.521428571428572,3.592857142857143L2.521428571428572,2.95L2.7357142857142858,2.95L2.7357142857142858,2.7357142857142858L3.1642857142857146,2.7357142857142858L3.1642857142857146,2.521428571428572L3.3785714285714286,2.521428571428572L3.3785714285714286,2.3071428571428574L3.8071428571428574,2.3071428571428574L3.8071428571428574,2.092857142857143L14.62142857142857,2.092857142857143L14.62142857142857,2.3071428571428574L14.835714285714285,2.3071428571428574L14.835714285714285,2.521428571428572L15.05,2.521428571428572L15.05,3L14.95,3L14.95,2.6214285714285714L14.735714285714284,2.6214285714285714L14.735714285714284,2.407142857142857L14.521428571428569,2.407142857142857L14.521428571428569,2.1928571428571426L3.907142857142857,2.1928571428571426L3.907142857142857,2.407142857142857L3.478571428571428,2.407142857142857L3.478571428571428,2.6214285714285714L3.2642857142857142,2.6214285714285714L3.2642857142857142,2.8357142857142854L2.8357142857142854,2.8357142857142854L2.8357142857142854,3.05L2.6214285714285714,3.05L2.6214285714285714,3.6928571428571426L2.407142857142857,3.6928571428571426L2.407142857142857,5.95L2.6214285714285714,5.95L2.6214285714285714,7.878571428571428L3.3785714285714286,7.878571428571428L3.3785714285714286,7.664285714285715L4.45,7.664285714285715z" stroke="none"/></svg>