<svg version="1.1" width="30" height="15" xmlns="http://www.w3.org/2000/svg"><path d="M21.378571428571426,6.378571428571428L21.378571428571426,6.164285714285715L22.021428571428572,6.164285714285715L22.021428571428572,5.95L22.235714285714284,5.95L22.235714285714284,5.521428571428571L22.45,5.521428571428571L22.45,5.307142857142857L23.307142857142857,5.307142857142857L23.307142857142857,5.0928571428571425L23.735714285714284,5.0928571428571425L23.735714285714284,4.664285714285715L23.95,4.664285714285715L23.95,4.5L24.05,4.5L24.05,4.764285714285714L23.835714285714285,4.764285714285714L23.835714285714285,5.192857142857142L23.40714285714286,5.192857142857142L23.40714285714286,5.407142857142857L22.55,5.407142857142857L22.55,5.621428571428571L22.335714285714285,5.621428571428571L22.335714285714285,6.05L22.121428571428574,6.05L22.121428571428574,6.264285714285714L21.478571428571428,6.264285714285714L21.478571428571428,6.478571428571428L18.90714285714286,6.478571428571428L18.90714285714286,7.55L18.692857142857143,7.55L18.692857142857143,7.764285714285714L18.478571428571428,7.764285714285714L18.478571428571428,7.978571428571428L17.192857142857143,7.978571428571428L17.192857142857143,8.192857142857143L15.907142857142858,8.192857142857143L15.907142857142858,8.407142857142858L15.692857142857143,8.407142857142858L15.692857142857143,8.62142857142857L15.264285714285716,8.62142857142857L15.264285714285716,9.05L15,9.05L15,8.95L15.164285714285715,8.95L15.164285714285715,8.521428571428569L15.592857142857142,8.521428571428569L15.592857142857142,8.307142857142857L15.807142857142857,8.307142857142857L15.807142857142857,8.092857142857142L17.09285714285714,8.092857142857142L17.09285714285714,7.878571428571428L18.378571428571426,7.878571428571428L18.378571428571426,7.664285714285715L18.59285714285714,7.664285714285715L18.59285714285714,7.45L18.807142857142857,7.45L18.807142857142857,6.478571428571428L18.378571428571426,6.478571428571428L18.378571428571426,6.05L18,6.05L18,5.95L18.478571428571428,5.95L18.478571428571428,6.378571428571428z" stroke="none"/><path d="M6.378571428571428,5.307142857142857L6.378571428571428,5.0928571428571425L7.45,5.0928571428571425L7.45,4.878571428571429L7.664285714285715,4.878571428571429L7.664285714285715,4.664285714285715L7.878571428571428,4.664285714285715L7.878571428571428,4.45L8.307142857142857,4.45L8.307142857142857,4.235714285714286L8.521428571428569,4.235714285714286L8.521428571428569,2.95L9,2.95L9,3.05L8.62142857142857,3.05L8.62142857142857,4.335714285714285L8.407142857142858,4.335714285714285L8.407142857142858,4.55L7.978571428571428,4.55L7.978571428571428,4.764285714285714L7.764285714285714,4.764285714285714L7.764285714285714,4.978571428571429L7.55,4.978571428571429L7.55,5.192857142857142L6.478571428571428,5.192857142857142L6.478571428571428,5.307142857142857L6.907142857142857,5.307142857142857L6.907142857142857,5.735714285714286L7.335714285714285,5.735714285714286L7.335714285714285,5.95L7.5,5.95L7.5,6.05L7.235714285714286,6.05L7.235714285714286,5.835714285714285L6.807142857142857,5.835714285714285L6.807142857142857,5.407142857142857L5.835714285714285,5.407142857142857L5.835714285714285,5.621428571428571L5.621428571428571,5.621428571428571L5.621428571428571,5.835714285714285L4.978571428571429,5.835714285714285L4.978571428571429,6.05L4.764285714285714,6.05L4.764285714285714,6.264285714285714L4.121428571428571,6.264285714285714L4.121428571428571,6.478571428571428L3.907142857142857,6.478571428571428L3.907142857142857,6.692857142857142L3.6928571428571426,6.692857142857142L3.6928571428571426,7.121428571428571L3.2642857142857142,7.121428571428571L3.2642857142857142,7.55L3,7.55L3,7.45L3.1642857142857146,7.45L3.1642857142857146,7.021428571428571L3.592857142857143,7.021428571428571L3.592857142857143,6.5928571428571425L3.8071428571428574,6.5928571428571425L3.8071428571428574,6.378571428571428L4.021428571428571,6.378571428571428L4.021428571428571,6.164285714285715L4.664285714285715,6.164285714285715L4.664285714285715,5.95L4.878571428571429,5.95L4.878571428571429,5.735714285714286L5.521428571428571,5.735714285714286L5.521428571428571,5.521428571428571L5.735714285714286,5.521428571428571L5.735714285714286,5.307142857142857z" stroke="none"/><path d="M14.95,5.835714285714285L14.735714285714284,5.835714285714285L14.735714285714284,5.407142857142857L14.092857142857142,5.407142857142857L14.092857142857142,5.192857142857142L13.45,5.192857142857142L13.45,4.978571428571429L12.807142857142857,4.978571428571429L12.807142857142857,3.907142857142857L12.164285714285715,3.907142857142857L12.164285714285715,3.478571428571428L11.95,3.478571428571428L11.95,3L12.05,3L12.05,3.3785714285714286L12.264285714285716,3.3785714285714286L12.264285714285716,3.8071428571428574L12.907142857142858,3.8071428571428574L12.907142857142858,4.878571428571429L13.55,4.878571428571429L13.55,5.0928571428571425L14.192857142857143,5.0928571428571425L14.192857142857143,5.307142857142857L14.835714285714285,5.307142857142857L14.835714285714285,5.735714285714286L15.05,5.735714285714286L15.05,5.95L17.621428571428574,5.95L17.621428571428574,6.5928571428571425L17.835714285714285,6.5928571428571425L17.835714285714285,7.45L18,7.45L18,7.55L17.735714285714284,7.55L17.735714285714284,6.692857142857142L17.521428571428572,6.692857142857142L17.521428571428572,6.05L15.05,6.05L15.05,7.5L14.95,7.5z" stroke="none"/><path d="M15.592857142857142,4.45L15.592857142857142,4.235714285714286L17.09285714285714,4.235714285714286L17.09285714285714,4.021428571428571L18.378571428571426,4.021428571428571L18.378571428571426,3.1642857142857146L19.235714285714284,3.1642857142857146L19.235714285714284,2.95L19.5,2.95L19.5,3.05L19.335714285714285,3.05L19.335714285714285,3.2642857142857142L18.478571428571428,3.2642857142857142L18.478571428571428,4.121428571428571L17.192857142857143,4.121428571428571L17.192857142857143,4.335714285714285L15.692857142857143,4.335714285714285L15.692857142857143,4.45L16.5,4.45L16.5,4.55L15.692857142857143,4.55L15.692857142857143,4.764285714285714L13.878571428571426,4.764285714285714L13.878571428571426,3.907142857142857L13.235714285714284,3.907142857142857L13.235714285714284,3.478571428571428L13.021428571428569,3.478571428571428L13.021428571428569,3.2642857142857142L12.807142857142857,3.2642857142857142L12.807142857142857,2.8357142857142854L12.592857142857142,2.8357142857142854L12.592857142857142,2.6214285714285714L11.62142857142857,2.6214285714285714L11.62142857142857,5.407142857142857L11.192857142857143,5.407142857142857L11.192857142857143,5.621428571428571L10.55,5.621428571428571L10.55,6L10.45,6L10.45,5.521428571428571L11.092857142857142,5.521428571428571L11.092857142857142,5.307142857142857L11.521428571428569,5.307142857142857L11.521428571428569,2.521428571428572L12.692857142857143,2.521428571428572L12.692857142857143,2.7357142857142858L12.907142857142858,2.7357142857142858L12.907142857142858,3.1642857142857146L13.12142857142857,3.1642857142857146L13.12142857142857,3.3785714285714286L13.335714285714285,3.3785714285714286L13.335714285714285,3.8071428571428574L13.978571428571428,3.8071428571428574L13.978571428571428,4.664285714285715L15.592857142857142,4.664285714285715L15.592857142857142,4.55L15,4.55L15,4.45z" stroke="none"/><path d="M11.092857142857142,10.45L11.092857142857142,8.62142857142857L10.878571428571426,8.62142857142857L10.878571428571426,8.407142857142858L10.45,8.407142857142858L10.45,7.5L10.55,7.5L10.55,8.307142857142857L10.978571428571428,8.307142857142857L10.978571428571428,8.521428571428569L11.192857142857143,8.521428571428569L11.192857142857143,10.45L12.05,10.45L12.05,10.878571428571426L12.478571428571428,10.878571428571426L12.478571428571428,11.735714285714284L12.692857142857143,11.735714285714284L12.692857142857143,11.95L13.5,11.95L13.5,12.05L12.592857142857142,12.05L12.592857142857142,11.835714285714285L12.378571428571426,11.835714285714285L12.378571428571426,10.978571428571428L11.95,10.978571428571428L11.95,10.55L11.192857142857143,10.55L11.192857142857143,12.164285714285715L15.592857142857142,12.164285714285715L15.592857142857142,11.95L16.5,11.95L16.5,12.05L15.692857142857143,12.05L15.692857142857143,12.264285714285716L11.092857142857142,12.264285714285716L11.092857142857142,10.55L10.978571428571428,10.55L10.978571428571428,10.978571428571428L5.307142857142857,10.978571428571428L5.307142857142857,10.764285714285716L5.0928571428571425,10.764285714285716L5.0928571428571425,10.55L4.5,10.55L4.5,10.45L5.192857142857142,10.45L5.192857142857142,10.664285714285715L5.407142857142857,10.664285714285715L5.407142857142857,10.878571428571426L10.878571428571426,10.878571428571426L10.878571428571426,10.45z" stroke="none"/><path d="M19.021428571428572,7.664285714285715L19.021428571428572,7.45L19.235714285714284,7.45L19.235714285714284,7.235714285714286L19.664285714285715,7.235714285714286L19.664285714285715,7.021428571428571L19.878571428571426,7.021428571428571L19.878571428571426,6.807142857142857L20.09285714285714,6.807142857142857L20.09285714285714,6.5928571428571425L21.807142857142857,6.5928571428571425L21.807142857142857,6.378571428571428L22.878571428571426,6.378571428571428L22.878571428571426,5.95L23.09285714285714,5.95L23.09285714285714,5.735714285714286L24.264285714285716,5.735714285714286L24.264285714285716,6.378571428571428L24.478571428571428,6.378571428571428L24.478571428571428,6.5928571428571425L25.12142857142857,6.5928571428571425L25.12142857142857,6.807142857142857L25.335714285714285,6.807142857142857L25.335714285714285,7.235714285714286L25.55,7.235714285714286L25.55,7.5L25.45,7.5L25.45,7.335714285714285L25.235714285714284,7.335714285714285L25.235714285714284,6.907142857142857L25.02142857142857,6.907142857142857L25.02142857142857,6.692857142857142L24.378571428571426,6.692857142857142L24.378571428571426,6.478571428571428L24.164285714285715,6.478571428571428L24.164285714285715,5.835714285714285L23.192857142857143,5.835714285714285L23.192857142857143,6.05L22.978571428571428,6.05L22.978571428571428,6.478571428571428L21.90714285714286,6.478571428571428L21.90714285714286,6.692857142857142L20.192857142857143,6.692857142857142L20.192857142857143,6.907142857142857L19.978571428571428,6.907142857142857L19.978571428571428,7.121428571428571L19.764285714285716,7.121428571428571L19.764285714285716,7.335714285714285L19.335714285714285,7.335714285714285L19.335714285714285,7.55L19.121428571428574,7.55L19.121428571428574,7.664285714285715L19.878571428571426,7.664285714285715L19.878571428571426,7.235714285714286L20.09285714285714,7.235714285714286L20.09285714285714,7.021428571428571L21.807142857142857,7.021428571428571L21.807142857142857,6.807142857142857L22.235714285714284,6.807142857142857L22.235714285714284,6.5928571428571425L23.307142857142857,6.5928571428571425L23.307142857142857,6.378571428571428L23.52142857142857,6.378571428571428L23.52142857142857,6.164285714285715L23.95,6.164285714285715L23.95,6L24.05,6L24.05,6.264285714285714L23.62142857142857,6.264285714285714L23.62142857142857,6.478571428571428L23.40714285714286,6.478571428571428L23.40714285714286,6.692857142857142L22.335714285714285,6.692857142857142L22.335714285714285,6.907142857142857L21.90714285714286,6.907142857142857L21.90714285714286,7.121428571428571L20.192857142857143,7.121428571428571L20.192857142857143,7.335714285714285L19.978571428571428,7.335714285714285L19.978571428571428,7.764285714285714L19.121428571428574,7.764285714285714L19.121428571428574,8.407142857142858L17.621428571428574,8.407142857142858L17.621428571428574,8.62142857142857L17.192857142857143,8.62142857142857L17.192857142857143,8.835714285714285L16.978571428571428,8.835714285714285L16.978571428571428,9.264285714285716L16.12142857142857,9.264285714285716L16.12142857142857,9.478571428571428L15.692857142857143,9.478571428571428L15.692857142857143,9.692857142857143L14.192857142857143,9.692857142857143L14.192857142857143,9.907142857142858L13.978571428571428,9.907142857142858L13.978571428571428,10.12142857142857L13.764285714285716,10.12142857142857L13.764285714285716,10.335714285714285L13.55,10.335714285714285L13.55,10.5L13.45,10.5L13.45,10.235714285714284L13.664285714285715,10.235714285714284L13.664285714285715,10.021428571428569L13.878571428571426,10.021428571428569L13.878571428571426,9.807142857142857L14.092857142857142,9.807142857142857L14.092857142857142,9.592857142857142L15.592857142857142,9.592857142857142L15.592857142857142,9.378571428571426L16.02142857142857,9.378571428571426L16.02142857142857,9.164285714285715L16.878571428571426,9.164285714285715L16.878571428571426,8.735714285714284L17.09285714285714,8.735714285714284L17.09285714285714,8.521428571428569L17.521428571428572,8.521428571428569L17.521428571428572,8.307142857142857L19.021428571428572,8.307142857142857L19.021428571428572,7.764285714285714L18.90714285714286,7.764285714285714L18.90714285714286,8.192857142857143L17.40714285714286,8.192857142857143L17.40714285714286,8.407142857142858L16.55,8.407142857142858L16.55,9.05L15.692857142857143,9.05L15.692857142857143,9.264285714285716L15.478571428571428,9.264285714285716L15.478571428571428,9.478571428571428L14.521428571428569,9.478571428571428L14.521428571428569,8.835714285714285L13.878571428571426,8.835714285714285L13.878571428571426,8.192857142857143L13.664285714285715,8.192857142857143L13.664285714285715,7.978571428571428L13.45,7.978571428571428L13.45,7.5L13.55,7.5L13.55,7.878571428571428L13.764285714285716,7.878571428571428L13.764285714285716,8.092857142857142L13.978571428571428,8.092857142857142L13.978571428571428,8.735714285714284L14.62142857142857,8.735714285714284L14.62142857142857,9.378571428571426L15.378571428571426,9.378571428571426L15.378571428571426,9.164285714285715L15.592857142857142,9.164285714285715L15.592857142857142,8.95L16.45,8.95L16.45,8.307142857142857L17.307142857142857,8.307142857142857L17.307142857142857,8.092857142857142L18.807142857142857,8.092857142857142L18.807142857142857,7.664285714285715z" stroke="none"/><path d="M6,11.95L6,12.05L4.5,12.05L4.5,11.95z" stroke="none"/><path d="M2.95,3L3.05,3L3.05,4.5L2.95,4.5z" stroke="none"/><path d="M19.5,12.05L19.5,11.95L21,11.95L21,12.05z" stroke="none"/><path d="M6,10.55L6,10.45L7.5,10.45L7.5,10.55z" stroke="none"/><path d="M25.55,10.5L25.45,10.5L25.45,9.692857142857143L24.807142857142857,9.692857142857143L24.807142857142857,9.264285714285716L24.59285714285714,9.264285714285716L24.59285714285714,9.05L24,9.05L24,8.95L24.692857142857143,8.95L24.692857142857143,9.164285714285715L24.90714285714286,9.164285714285715L24.90714285714286,9.592857142857142L25.55,9.592857142857142z" stroke="none"/><path d="M18,3.05L18,2.95L18.59285714285714,2.95L18.59285714285714,2.7357142857142858L19.021428571428572,2.7357142857142858L19.021428571428572,2.521428571428572L20.621428571428574,2.521428571428572L20.621428571428574,2.95L21,2.95L21,3.05L20.521428571428572,3.05L20.521428571428572,2.6214285714285714L19.121428571428574,2.6214285714285714L19.121428571428574,2.8357142857142854L18.692857142857143,2.8357142857142854L18.692857142857143,3.05z" stroke="none"/><path d="M25.55,6L25.45,6L25.45,4.664285714285715L25.664285714285715,4.664285714285715L25.664285714285715,4.021428571428571L26.09285714285714,4.021428571428571L26.09285714285714,3.592857142857143L26.307142857142857,3.592857142857143L26.307142857142857,3.3785714285714286L26.735714285714284,3.3785714285714286L26.735714285714284,2.95L27,2.95L27,3.05L26.835714285714285,3.05L26.835714285714285,3.478571428571428L26.40714285714286,3.478571428571428L26.40714285714286,3.6928571428571426L26.192857142857143,3.6928571428571426L26.192857142857143,4.121428571428571L25.764285714285716,4.121428571428571L25.764285714285716,4.764285714285714L25.55,4.764285714285714z" stroke="none"/><path d="M10.55,9L10.45,9L10.45,8.62142857142857L10.235714285714284,8.62142857142857L10.235714285714284,8.407142857142858L10.021428571428569,8.407142857142858L10.021428571428569,7.021428571428571L10.878571428571426,7.021428571428571L10.878571428571426,6.5928571428571425L11.307142857142857,6.5928571428571425L11.307142857142857,6.378571428571428L12.592857142857142,6.378571428571428L12.592857142857142,6.164285714285715L13.45,6.164285714285715L13.45,6L13.55,6L13.55,6.264285714285714L12.692857142857143,6.264285714285714L12.692857142857143,6.478571428571428L11.407142857142858,6.478571428571428L11.407142857142858,6.692857142857142L10.978571428571428,6.692857142857142L10.978571428571428,7.121428571428571L10.12142857142857,7.121428571428571L10.12142857142857,8.307142857142857L10.335714285714285,8.307142857142857L10.335714285714285,8.521428571428569L10.55,8.521428571428569z" stroke="none"/><path d="M26.95,6L27.05,6L27.05,7.978571428571428L22.664285714285715,7.978571428571428L22.664285714285715,7.764285714285714L22.45,7.764285714285714L22.45,7.5L22.55,7.5L22.55,7.664285714285715L22.764285714285716,7.664285714285715L22.764285714285716,7.878571428571428L26.95,7.878571428571428z" stroke="none"/><path d="M12,7.55L12,7.45L12.378571428571426,7.45L12.378571428571426,7.235714285714286L12.807142857142857,7.235714285714286L12.807142857142857,7.021428571428571L13.664285714285715,7.021428571428571L13.664285714285715,6.5928571428571425L13.878571428571426,6.5928571428571425L13.878571428571426,5.621428571428571L11.835714285714285,5.621428571428571L11.835714285714285,6.05L11.62142857142857,6.05L11.62142857142857,6.264285714285714L11.192857142857143,6.264285714285714L11.192857142857143,6.478571428571428L10.021428571428569,6.478571428571428L10.021428571428569,4.021428571428571L10.45,4.021428571428571L10.45,3.8071428571428574L10.664285714285715,3.8071428571428574L10.664285714285715,3.592857142857143L10.878571428571426,3.592857142857143L10.878571428571426,3.3785714285714286L11.307142857142857,3.3785714285714286L11.307142857142857,2.3071428571428574L13.12142857142857,2.3071428571428574L13.12142857142857,2.521428571428572L13.335714285714285,2.521428571428572L13.335714285714285,2.95L13.5,2.95L13.5,3.05L13.235714285714284,3.05L13.235714285714284,2.6214285714285714L13.021428571428569,2.6214285714285714L13.021428571428569,2.407142857142857L11.407142857142858,2.407142857142857L11.407142857142858,3.478571428571428L10.978571428571428,3.478571428571428L10.978571428571428,3.6928571428571426L10.764285714285716,3.6928571428571426L10.764285714285716,3.907142857142857L10.55,3.907142857142857L10.55,4.121428571428571L10.12142857142857,4.121428571428571L10.12142857142857,6.378571428571428L11.092857142857142,6.378571428571428L11.092857142857142,6.164285714285715L11.521428571428569,6.164285714285715L11.521428571428569,5.95L11.735714285714284,5.95L11.735714285714284,5.521428571428571L13.978571428571428,5.521428571428571L13.978571428571428,6.692857142857142L13.764285714285716,6.692857142857142L13.764285714285716,7.121428571428571L12.907142857142858,7.121428571428571L12.907142857142858,7.335714285714285L12.478571428571428,7.335714285714285L12.478571428571428,7.55z" stroke="none"/><path d="M3.05,12L2.95,12L2.95,8.092857142857142L3.1642857142857146,8.092857142857142L3.1642857142857146,7.878571428571428L3.592857142857143,7.878571428571428L3.592857142857143,7.664285714285715L4.021428571428571,7.664285714285715L4.021428571428571,7.45L4.5,7.45L4.5,7.55L4.121428571428571,7.55L4.121428571428571,7.764285714285714L3.6928571428571426,7.764285714285714L3.6928571428571426,7.978571428571428L3.2642857142857142,7.978571428571428L3.2642857142857142,8.192857142857143L3.05,8.192857142857143z" stroke="none"/><path d="M22.5,9.05L22.5,8.95L22.764285714285716,8.95L22.764285714285716,9.164285714285715L23.62142857142857,9.164285714285715L23.62142857142857,9.378571428571426L24.692857142857143,9.378571428571426L24.692857142857143,9.807142857142857L24.90714285714286,9.807142857142857L24.90714285714286,10.235714285714284L25.12142857142857,10.235714285714284L25.12142857142857,10.878571428571426L25.978571428571428,10.878571428571426L25.978571428571428,11.092857142857142L26.40714285714286,11.092857142857142L26.40714285714286,11.521428571428569L26.62142857142857,11.521428571428569L26.62142857142857,11.95L27,11.95L27,12.05L26.52142857142857,12.05L26.52142857142857,11.62142857142857L26.307142857142857,11.62142857142857L26.307142857142857,11.192857142857143L25.878571428571426,11.192857142857143L25.878571428571426,10.978571428571428L25.02142857142857,10.978571428571428L25.02142857142857,10.335714285714285L24.807142857142857,10.335714285714285L24.807142857142857,9.907142857142858L24.59285714285714,9.907142857142858L24.59285714285714,9.478571428571428L23.52142857142857,9.478571428571428L23.52142857142857,9.264285714285716L22.664285714285715,9.264285714285716L22.664285714285715,9.05z" stroke="none"/><path d="M9.05,9L8.95,9L8.95,3.8071428571428574L9.378571428571426,3.8071428571428574L9.378571428571426,2.6214285714285714L7.121428571428571,2.6214285714285714L7.121428571428571,3.05L6.692857142857142,3.05L6.692857142857142,3.478571428571428L6.478571428571428,3.478571428571428L6.478571428571428,3.6928571428571426L6.264285714285714,3.6928571428571426L6.264285714285714,4.335714285714285L6.05,4.335714285714285L6.05,4.5L5.95,4.5L5.95,4.235714285714286L6.164285714285715,4.235714285714286L6.164285714285715,3.592857142857143L6.378571428571428,3.592857142857143L6.378571428571428,3.3785714285714286L6.5928571428571425,3.3785714285714286L6.5928571428571425,2.95L7.021428571428571,2.95L7.021428571428571,2.521428571428572L9.478571428571428,2.521428571428572L9.478571428571428,3.907142857142857L9.05,3.907142857142857z" stroke="none"/><path d="M18.05,12L17.95,12L17.95,11.735714285714284L18.164285714285715,11.735714285714284L18.164285714285715,11.307142857142857L18.378571428571426,11.307142857142857L18.378571428571426,10.664285714285715L18.59285714285714,10.664285714285715L18.59285714285714,10.235714285714284L18.807142857142857,10.235714285714284L18.807142857142857,9.807142857142857L19.021428571428572,9.807142857142857L19.021428571428572,9.592857142857142L19.45,9.592857142857142L19.45,9.378571428571426L19.878571428571426,9.378571428571426L19.878571428571426,8.95L20.09285714285714,8.95L20.09285714285714,8.735714285714284L20.307142857142857,8.735714285714284L20.307142857142857,8.521428571428569L20.521428571428572,8.521428571428569L20.521428571428572,7.664285714285715L20.735714285714284,7.664285714285715L20.735714285714284,7.45L21,7.45L21,7.55L20.835714285714285,7.55L20.835714285714285,7.764285714285714L20.621428571428574,7.764285714285714L20.621428571428574,8.62142857142857L20.40714285714286,8.62142857142857L20.40714285714286,8.835714285714285L20.192857142857143,8.835714285714285L20.192857142857143,9.05L19.978571428571428,9.05L19.978571428571428,9.478571428571428L19.55,9.478571428571428L19.55,9.692857142857143L19.121428571428574,9.692857142857143L19.121428571428574,9.907142857142858L18.90714285714286,9.907142857142858L18.90714285714286,10.335714285714285L18.692857142857143,10.335714285714285L18.692857142857143,10.764285714285716L18.478571428571428,10.764285714285716L18.478571428571428,11.407142857142858L18.264285714285716,11.407142857142858L18.264285714285716,11.835714285714285L18.05,11.835714285714285z" stroke="none"/><path d="M25.45,3L25.55,3L25.55,3.478571428571428L25.335714285714285,3.478571428571428L25.335714285714285,3.6928571428571426L25.12142857142857,3.6928571428571426L25.12142857142857,3.907142857142857L23.192857142857143,3.907142857142857L23.192857142857143,4.335714285714285L22.764285714285716,4.335714285714285L22.764285714285716,4.55L21.692857142857143,4.55L21.692857142857143,5.407142857142857L21.264285714285716,5.407142857142857L21.264285714285716,5.835714285714285L21.05,5.835714285714285L21.05,6L20.95,6L20.95,5.735714285714286L21.164285714285715,5.735714285714286L21.164285714285715,5.307142857142857L21.59285714285714,5.307142857142857L21.59285714285714,4.45L22.664285714285715,4.45L22.664285714285715,4.235714285714286L23.09285714285714,4.235714285714286L23.09285714285714,3.8071428571428574L25.02142857142857,3.8071428571428574L25.02142857142857,3.592857142857143L25.235714285714284,3.592857142857143L25.235714285714284,3.3785714285714286L25.45,3.3785714285714286z" stroke="none"/><path d="M25.5,8.95L25.5,9.05L25.235714285714284,9.05L25.235714285714284,8.835714285714285L24.59285714285714,8.835714285714285L24.59285714285714,8.62142857142857L21.692857142857143,8.62142857142857L21.692857142857143,8.835714285714285L21.478571428571428,8.835714285714285L21.478571428571428,9.05L21.05,9.05L21.05,9.264285714285716L20.835714285714285,9.264285714285716L20.835714285714285,9.478571428571428L20.192857142857143,9.478571428571428L20.192857142857143,9.692857142857143L19.978571428571428,9.692857142857143L19.978571428571428,10.55L19.764285714285716,10.55L19.764285714285716,11.407142857142858L19.121428571428574,11.407142857142858L19.121428571428574,12.05L18.692857142857143,12.05L18.692857142857143,12.264285714285716L18.478571428571428,12.264285714285716L18.478571428571428,12.478571428571428L17.521428571428572,12.478571428571428L17.521428571428572,10.45L17.735714285714284,10.45L17.735714285714284,9.592857142857142L18.807142857142857,9.592857142857142L18.807142857142857,9.378571428571426L19.235714285714284,9.378571428571426L19.235714285714284,8.95L19.5,8.95L19.5,9.05L19.335714285714285,9.05L19.335714285714285,9.478571428571428L18.90714285714286,9.478571428571428L18.90714285714286,9.692857142857143L17.835714285714285,9.692857142857143L17.835714285714285,10.55L17.621428571428574,10.55L17.621428571428574,12.378571428571426L18.378571428571426,12.378571428571426L18.378571428571426,12.164285714285715L18.59285714285714,12.164285714285715L18.59285714285714,11.95L19.021428571428572,11.95L19.021428571428572,11.307142857142857L19.664285714285715,11.307142857142857L19.664285714285715,10.45L19.878571428571426,10.45L19.878571428571426,9.592857142857142L20.09285714285714,9.592857142857142L20.09285714285714,9.378571428571426L20.735714285714284,9.378571428571426L20.735714285714284,9.164285714285715L20.95,9.164285714285715L20.95,8.95L21.378571428571426,8.95L21.378571428571426,8.735714285714284L21.59285714285714,8.735714285714284L21.59285714285714,8.521428571428569L24.692857142857143,8.521428571428569L24.692857142857143,8.735714285714284L25.335714285714285,8.735714285714284L25.335714285714285,8.95z" stroke="none"/><path d="M10.5,12.05L10.5,11.95L10.764285714285716,11.95L10.764285714285716,12.164285714285715L10.978571428571428,12.164285714285715L10.978571428571428,12.378571428571426L16.878571428571426,12.378571428571426L16.878571428571426,10.764285714285716L16.664285714285715,10.764285714285716L16.664285714285715,10.55L16.5,10.55L16.5,10.45L16.764285714285716,10.45L16.764285714285716,10.664285714285715L16.978571428571428,10.664285714285715L16.978571428571428,12.478571428571428L10.878571428571426,12.478571428571428L10.878571428571426,12.264285714285716L10.664285714285715,12.264285714285716L10.664285714285715,12.05z" stroke="none"/><path d="M6,6.05L6,5.95L6.478571428571428,5.95L6.478571428571428,6.5928571428571425L6.692857142857142,6.5928571428571425L6.692857142857142,6.807142857142857L6.907142857142857,6.807142857142857L6.907142857142857,7.235714285714286L7.121428571428571,7.235714285714286L7.121428571428571,7.664285714285715L7.55,7.664285714285715L7.55,8.735714285714284L7.978571428571428,8.735714285714284L7.978571428571428,9.164285714285715L8.407142857142858,9.164285714285715L8.407142857142858,9.378571428571426L9.478571428571428,9.378571428571426L9.478571428571428,9.592857142857142L9.692857142857143,9.592857142857142L9.692857142857143,9.807142857142857L10.335714285714285,9.807142857142857L10.335714285714285,10.45L10.5,10.45L10.5,10.55L10.235714285714284,10.55L10.235714285714284,9.907142857142858L9.592857142857142,9.907142857142858L9.592857142857142,9.692857142857143L9.378571428571426,9.692857142857143L9.378571428571426,9.478571428571428L8.307142857142857,9.478571428571428L8.307142857142857,9.264285714285716L7.878571428571428,9.264285714285716L7.878571428571428,8.835714285714285L7.45,8.835714285714285L7.45,7.764285714285714L7.021428571428571,7.764285714285714L7.021428571428571,7.335714285714285L6.807142857142857,7.335714285714285L6.807142857142857,6.907142857142857L6.5928571428571425,6.907142857142857L6.5928571428571425,6.692857142857142L6.378571428571428,6.692857142857142L6.378571428571428,6.05z" stroke="none"/><path d="M15,2.95L15,3.05L14.092857142857142,3.05L14.092857142857142,2.8357142857142854L13.878571428571426,2.8357142857142854L13.878571428571426,2.6214285714285714L13.664285714285715,2.6214285714285714L13.664285714285715,2.407142857142857L13.235714285714284,2.407142857142857L13.235714285714284,2.1928571428571426L6.907142857142857,2.1928571428571426L6.907142857142857,2.8357142857142854L6.478571428571428,2.8357142857142854L6.478571428571428,3.2642857142857142L6.05,3.2642857142857142L6.05,3.907142857142857L5.835714285714285,3.907142857142857L5.835714285714285,4.121428571428571L5.621428571428571,4.121428571428571L5.621428571428571,4.878571428571429L6.378571428571428,4.878571428571429L6.378571428571428,4.664285714285715L6.807142857142857,4.664285714285715L6.807142857142857,3.8071428571428574L7.021428571428571,3.8071428571428574L7.021428571428571,3.592857142857143L7.235714285714286,3.592857142857143L7.235714285714286,2.95L7.5,2.95L7.5,3.05L7.335714285714285,3.05L7.335714285714285,3.6928571428571426L7.121428571428571,3.6928571428571426L7.121428571428571,3.907142857142857L6.907142857142857,3.907142857142857L6.907142857142857,4.764285714285714L6.478571428571428,4.764285714285714L6.478571428571428,4.978571428571429L5.521428571428571,4.978571428571429L5.521428571428571,4.021428571428571L5.735714285714286,4.021428571428571L5.735714285714286,3.8071428571428574L5.95,3.8071428571428574L5.95,3.1642857142857146L6.378571428571428,3.1642857142857146L6.378571428571428,2.7357142857142858L6.807142857142857,2.7357142857142858L6.807142857142857,2.092857142857143L13.335714285714285,2.092857142857143L13.335714285714285,2.3071428571428574L13.764285714285716,2.3071428571428574L13.764285714285716,2.521428571428572L13.978571428571428,2.521428571428572L13.978571428571428,2.7357142857142858L14.192857142857143,2.7357142857142858L14.192857142857143,2.95z" stroke="none"/><path d="M13.45,9L13.55,9L13.55,10.12142857142857L13.12142857142857,10.12142857142857L13.12142857142857,10.878571428571426L15.378571428571426,10.878571428571426L15.378571428571426,10.45L16.02142857142857,10.45L16.02142857142857,10.021428571428569L16.978571428571428,10.021428571428569L16.978571428571428,10.45L17.192857142857143,10.45L17.192857142857143,12.692857142857143L7.878571428571428,12.692857142857143L7.878571428571428,12.264285714285716L7.664285714285715,12.264285714285716L7.664285714285715,12.05L7.45,12.05L7.45,11.835714285714285L7.021428571428571,11.835714285714285L7.021428571428571,11.62142857142857L4.878571428571429,11.62142857142857L4.878571428571429,11.192857142857143L4.45,11.192857142857143L4.45,10.978571428571428L4.021428571428571,10.978571428571428L4.021428571428571,8.95L4.235714285714286,8.95L4.235714285714286,8.521428571428569L4.878571428571429,8.521428571428569L4.878571428571429,8.092857142857142L5.0928571428571425,8.092857142857142L5.0928571428571425,7.878571428571428L5.521428571428571,7.878571428571428L5.521428571428571,7.45L6,7.45L6,7.55L5.621428571428571,7.55L5.621428571428571,7.978571428571428L5.192857142857142,7.978571428571428L5.192857142857142,8.192857142857143L4.978571428571429,8.192857142857143L4.978571428571429,8.62142857142857L4.335714285714285,8.62142857142857L4.335714285714285,9.05L4.121428571428571,9.05L4.121428571428571,10.878571428571426L4.55,10.878571428571426L4.55,11.092857142857142L4.978571428571429,11.092857142857142L4.978571428571429,11.521428571428569L7.121428571428571,11.521428571428569L7.121428571428571,11.735714285714284L7.55,11.735714285714284L7.55,11.95L7.764285714285714,11.95L7.764285714285714,12.164285714285715L7.978571428571428,12.164285714285715L7.978571428571428,12.592857142857142L17.09285714285714,12.592857142857142L17.09285714285714,10.55L16.878571428571426,10.55L16.878571428571426,10.12142857142857L16.12142857142857,10.12142857142857L16.12142857142857,10.55L15.478571428571428,10.55L15.478571428571428,10.978571428571428L13.021428571428569,10.978571428571428L13.021428571428569,10.021428571428569L13.45,10.021428571428569z" stroke="none"/><path d="M22.5,11.95L22.5,12.05L22.335714285714285,12.05L22.335714285714285,12.478571428571428L18.90714285714286,12.478571428571428L18.90714285714286,12.692857142857143L17.307142857142857,12.692857142857143L17.307142857142857,10.335714285714285L17.09285714285714,10.335714285714285L17.09285714285714,9.907142857142858L15.264285714285716,9.907142857142858L15.264285714285716,10.335714285714285L15.05,10.335714285714285L15.05,10.5L14.95,10.5L14.95,10.235714285714284L15.164285714285715,10.235714285714284L15.164285714285715,9.807142857142857L17.192857142857143,9.807142857142857L17.192857142857143,10.235714285714284L17.40714285714286,10.235714285714284L17.40714285714286,12.592857142857142L18.807142857142857,12.592857142857142L18.807142857142857,12.378571428571426L22.235714285714284,12.378571428571426L22.235714285714284,11.95z" stroke="none"/><path d="M27.05,4.5L26.95,4.5L26.95,3.3785714285714286L27.378571428571426,3.3785714285714286L27.378571428571426,2.6214285714285714L22.55,2.6214285714285714L22.55,2.8357142857142854L22.335714285714285,2.8357142857142854L22.335714285714285,3.2642857142857142L21.90714285714286,3.2642857142857142L21.90714285714286,3.478571428571428L21.264285714285716,3.478571428571428L21.264285714285716,3.6928571428571426L19.55,3.6928571428571426L19.55,3.907142857142857L19.335714285714285,3.907142857142857L19.335714285714285,4.335714285714285L18.478571428571428,4.335714285714285L18.478571428571428,4.55L18,4.55L18,4.45L18.378571428571426,4.45L18.378571428571426,4.235714285714286L19.235714285714284,4.235714285714286L19.235714285714284,3.8071428571428574L19.45,3.8071428571428574L19.45,3.592857142857143L21.164285714285715,3.592857142857143L21.164285714285715,3.3785714285714286L21.807142857142857,3.3785714285714286L21.807142857142857,3.1642857142857146L22.235714285714284,3.1642857142857146L22.235714285714284,2.7357142857142858L22.45,2.7357142857142858L22.45,2.521428571428572L27.478571428571428,2.521428571428572L27.478571428571428,3.478571428571428L27.05,3.478571428571428z" stroke="none"/><path d="M13.45,4.5L13.55,4.5L13.55,4.664285714285715L13.764285714285716,4.664285714285715L13.764285714285716,4.878571428571429L21.164285714285715,4.878571428571429L21.164285714285715,4.235714285714286L22.45,4.235714285714286L22.45,4.021428571428571L22.664285714285715,4.021428571428571L22.664285714285715,3.8071428571428574L22.878571428571426,3.8071428571428574L22.878571428571426,3.592857142857143L23.307142857142857,3.592857142857143L23.307142857142857,3.3785714285714286L23.52142857142857,3.3785714285714286L23.52142857142857,3.1642857142857146L23.95,3.1642857142857146L23.95,3L24.05,3L24.05,3.2642857142857142L23.62142857142857,3.2642857142857142L23.62142857142857,3.478571428571428L23.40714285714286,3.478571428571428L23.40714285714286,3.6928571428571426L22.978571428571428,3.6928571428571426L22.978571428571428,3.907142857142857L22.764285714285716,3.907142857142857L22.764285714285716,4.121428571428571L22.55,4.121428571428571L22.55,4.335714285714285L21.264285714285716,4.335714285714285L21.264285714285716,4.978571428571429L13.664285714285715,4.978571428571429L13.664285714285715,4.764285714285714L13.45,4.764285714285714z" stroke="none"/><path d="M9,10.45L9,10.55L8.307142857142857,10.55L8.307142857142857,10.12142857142857L7.664285714285715,10.12142857142857L7.664285714285715,9.907142857142858L7.235714285714286,9.907142857142858L7.235714285714286,7.978571428571428L6.5928571428571425,7.978571428571428L6.5928571428571425,7.764285714285714L6.378571428571428,7.764285714285714L6.378571428571428,7.121428571428571L5.621428571428571,7.121428571428571L5.621428571428571,7.335714285714285L5.407142857142857,7.335714285714285L5.407142857142857,7.55L4.978571428571429,7.55L4.978571428571429,7.978571428571428L4.121428571428571,7.978571428571428L4.121428571428571,8.192857142857143L3.907142857142857,8.192857142857143L3.907142857142857,11.95L4.121428571428571,11.95L4.121428571428571,12.378571428571426L7.335714285714285,12.378571428571426L7.335714285714285,12.807142857142857L22.664285714285715,12.807142857142857L22.664285714285715,12.378571428571426L22.878571428571426,12.378571428571426L22.878571428571426,11.62142857142857L21.164285714285715,11.62142857142857L21.164285714285715,10.764285714285716L20.95,10.764285714285716L20.95,10.5L21.05,10.5L21.05,10.664285714285715L21.264285714285716,10.664285714285715L21.264285714285716,11.521428571428569L22.978571428571428,11.521428571428569L22.978571428571428,12.478571428571428L22.764285714285716,12.478571428571428L22.764285714285716,12.907142857142858L7.235714285714286,12.907142857142858L7.235714285714286,12.478571428571428L4.021428571428571,12.478571428571428L4.021428571428571,12.05L3.8071428571428574,12.05L3.8071428571428574,8.092857142857142L4.021428571428571,8.092857142857142L4.021428571428571,7.878571428571428L4.878571428571429,7.878571428571428L4.878571428571429,7.45L5.307142857142857,7.45L5.307142857142857,7.235714285714286L5.521428571428571,7.235714285714286L5.521428571428571,7.021428571428571L6.478571428571428,7.021428571428571L6.478571428571428,7.664285714285715L6.692857142857142,7.664285714285715L6.692857142857142,7.878571428571428L7.335714285714285,7.878571428571428L7.335714285714285,9.807142857142857L7.764285714285714,9.807142857142857L7.764285714285714,10.021428571428569L8.407142857142858,10.021428571428569L8.407142857142858,10.45z" stroke="none"/></svg>