<svg version="1.1" width="30" height="15" xmlns="http://www.w3.org/2000/svg"><path d="M23.95,9.807142857142857L23.95,7.5L24.05,7.5L24.05,10.021428571428569L24.478571428571428,10.021428571428569L24.478571428571428,10.878571428571426L24.90714285714286,10.878571428571426L24.90714285714286,11.307142857142857L25.12142857142857,11.307142857142857L25.12142857142857,11.521428571428569L25.55,11.521428571428569L25.55,12L25.45,12L25.45,11.62142857142857L25.02142857142857,11.62142857142857L25.02142857142857,11.407142857142858L24.807142857142857,11.407142857142858L24.807142857142857,10.978571428571428L24.378571428571426,10.978571428571428L24.378571428571426,10.12142857142857L23.95,10.12142857142857L23.95,9.907142857142858L23.62142857142857,9.907142857142858L23.62142857142857,10.12142857142857L23.40714285714286,10.12142857142857L23.40714285714286,10.335714285714285L22.978571428571428,10.335714285714285L22.978571428571428,10.55L22.5,10.55L22.5,10.45L22.878571428571426,10.45L22.878571428571426,10.235714285714284L23.307142857142857,10.235714285714284L23.307142857142857,10.021428571428569L23.52142857142857,10.021428571428569L23.52142857142857,9.807142857142857z" stroke="none"/><path d="M19.5,10.45L19.5,10.55L16.978571428571428,10.55L16.978571428571428,11.307142857142857L17.192857142857143,11.307142857142857L17.192857142857143,11.521428571428569L18.05,11.521428571428569L18.05,12L17.95,12L17.95,11.62142857142857L17.09285714285714,11.62142857142857L17.09285714285714,11.407142857142858L16.878571428571426,11.407142857142858L16.878571428571426,10.55L16.235714285714284,10.55L16.235714285714284,10.335714285714285L15.592857142857142,10.335714285714285L15.592857142857142,9.907142857142858L14.092857142857142,9.907142857142858L14.092857142857142,9.478571428571428L13.664285714285715,9.478571428571428L13.664285714285715,9.264285714285716L13.45,9.264285714285716L13.45,9L13.55,9L13.55,9.164285714285715L13.764285714285716,9.164285714285715L13.764285714285716,9.378571428571426L14.192857142857143,9.378571428571426L14.192857142857143,9.807142857142857L15.692857142857143,9.807142857142857L15.692857142857143,10.235714285714284L16.335714285714285,10.235714285714284L16.335714285714285,10.45z" stroke="none"/><path d="M21.807142857142857,5.95L21.807142857142857,5.735714285714286L22.021428571428572,5.735714285714286L22.021428571428572,5.521428571428571L22.878571428571426,5.521428571428571L22.878571428571426,5.307142857142857L23.52142857142857,5.307142857142857L23.52142857142857,5.0928571428571425L23.735714285714284,5.0928571428571425L23.735714285714284,4.664285714285715L23.95,4.664285714285715L23.95,4.5L24.05,4.5L24.05,4.764285714285714L23.835714285714285,4.764285714285714L23.835714285714285,5.192857142857142L23.62142857142857,5.192857142857142L23.62142857142857,5.407142857142857L22.978571428571428,5.407142857142857L22.978571428571428,5.621428571428571L22.121428571428574,5.621428571428571L22.121428571428574,5.835714285714285L21.90714285714286,5.835714285714285L21.90714285714286,6.05L21.478571428571428,6.05L21.478571428571428,6.164285714285715L22.121428571428574,6.164285714285715L22.121428571428574,6.378571428571428L24.478571428571428,6.378571428571428L24.478571428571428,8.307142857142857L25.12142857142857,8.307142857142857L25.12142857142857,8.735714285714284L25.55,8.735714285714284L25.55,9L25.45,9L25.45,8.835714285714285L25.02142857142857,8.835714285714285L25.02142857142857,8.407142857142858L24.378571428571426,8.407142857142858L24.378571428571426,6.478571428571428L22.021428571428572,6.478571428571428L22.021428571428572,6.264285714285714L21.378571428571426,6.264285714285714L21.378571428571426,6.05L20.09285714285714,6.05L20.09285714285714,5.835714285714285L19.878571428571426,5.835714285714285L19.878571428571426,5.621428571428571L16.664285714285715,5.621428571428571L16.664285714285715,5.192857142857142L15.592857142857142,5.192857142857142L15.592857142857142,4.978571428571429L15.164285714285715,4.978571428571429L15.164285714285715,4.55L15,4.55L15,4.45L15.264285714285716,4.45L15.264285714285716,4.878571428571429L15.692857142857143,4.878571428571429L15.692857142857143,5.0928571428571425L16.764285714285716,5.0928571428571425L16.764285714285716,5.521428571428571L19.978571428571428,5.521428571428571L19.978571428571428,5.735714285714286L20.192857142857143,5.735714285714286L20.192857142857143,5.95z" stroke="none"/><path d="M8.521428571428569,9.592857142857142L8.521428571428569,8.62142857142857L8.307142857142857,8.62142857142857L8.307142857142857,8.407142857142858L8.092857142857142,8.407142857142858L8.092857142857142,8.192857142857143L7.878571428571428,8.192857142857143L7.878571428571428,7.55L7.5,7.55L7.5,7.45L7.978571428571428,7.45L7.978571428571428,8.092857142857142L8.192857142857143,8.092857142857142L8.192857142857143,8.307142857142857L8.407142857142858,8.307142857142857L8.407142857142858,8.521428571428569L8.62142857142857,8.521428571428569L8.62142857142857,9.592857142857142L12.907142857142858,9.592857142857142L12.907142857142858,9.807142857142857L13.335714285714285,9.807142857142857L13.335714285714285,10.021428571428569L13.764285714285716,10.021428571428569L13.764285714285716,10.235714285714284L13.978571428571428,10.235714285714284L13.978571428571428,10.45L15,10.45L15,10.55L13.878571428571426,10.55L13.878571428571426,10.335714285714285L13.664285714285715,10.335714285714285L13.664285714285715,10.12142857142857L13.235714285714284,10.12142857142857L13.235714285714284,9.907142857142858L12.807142857142857,9.907142857142858L12.807142857142857,9.692857142857143L8.62142857142857,9.692857142857143L8.62142857142857,9.907142857142858L6.05,9.907142857142858L6.05,10.12142857142857L5.621428571428571,10.12142857142857L5.621428571428571,10.764285714285716L5.407142857142857,10.764285714285716L5.407142857142857,10.978571428571428L5.192857142857142,10.978571428571428L5.192857142857142,11.407142857142858L4.978571428571429,11.407142857142858L4.978571428571429,11.835714285714285L4.764285714285714,11.835714285714285L4.764285714285714,12.05L4.5,12.05L4.5,11.95L4.664285714285715,11.95L4.664285714285715,11.735714285714284L4.878571428571429,11.735714285714284L4.878571428571429,11.307142857142857L5.0928571428571425,11.307142857142857L5.0928571428571425,10.878571428571426L5.307142857142857,10.878571428571426L5.307142857142857,10.664285714285715L5.521428571428571,10.664285714285715L5.521428571428571,10.021428571428569L5.95,10.021428571428569L5.95,9.807142857142857L8.521428571428569,9.807142857142857L8.521428571428569,9.692857142857143L7.878571428571428,9.692857142857143L7.878571428571428,9.478571428571428L7.664285714285715,9.478571428571428L7.664285714285715,9.264285714285716L7.45,9.264285714285716L7.45,9L7.55,9L7.55,9.164285714285715L7.764285714285714,9.164285714285715L7.764285714285714,9.378571428571426L7.978571428571428,9.378571428571426L7.978571428571428,9.592857142857142z" stroke="none"/><path d="M14.092857142857142,5.521428571428571L14.092857142857142,5.192857142857142L13.878571428571426,5.192857142857142L13.878571428571426,4.764285714285714L13.45,4.764285714285714L13.45,4.5L13.55,4.5L13.55,4.664285714285715L13.978571428571428,4.664285714285715L13.978571428571428,5.0928571428571425L14.192857142857143,5.0928571428571425L14.192857142857143,5.521428571428571L14.307142857142857,5.521428571428571L14.307142857142857,4.021428571428571L19.335714285714285,4.021428571428571L19.335714285714285,4.235714285714286L19.55,4.235714285714286L19.55,4.5L19.45,4.5L19.45,4.335714285714285L19.235714285714284,4.335714285714285L19.235714285714284,4.121428571428571L14.407142857142858,4.121428571428571L14.407142857142858,5.621428571428571L14.192857142857143,5.621428571428571L14.192857142857143,6.692857142857142L13.978571428571428,6.692857142857142L13.978571428571428,7.121428571428571L13.12142857142857,7.121428571428571L13.12142857142857,8.192857142857143L12.264285714285716,8.192857142857143L12.264285714285716,9.05L12,9.05L12,8.95L12.164285714285715,8.95L12.164285714285715,8.092857142857142L13.021428571428569,8.092857142857142L13.021428571428569,7.021428571428571L13.878571428571426,7.021428571428571L13.878571428571426,6.5928571428571425L14.092857142857142,6.5928571428571425L14.092857142857142,5.621428571428571L13.021428571428569,5.621428571428571L13.021428571428569,5.192857142857142L12.807142857142857,5.192857142857142L12.807142857142857,4.55L12,4.55L12,4.45L12.907142857142858,4.45L12.907142857142858,5.0928571428571425L13.12142857142857,5.0928571428571425L13.12142857142857,5.521428571428571z" stroke="none"/><path d="M14.521428571428569,8.521428571428569L14.521428571428569,7.978571428571428L14.092857142857142,7.978571428571428L14.092857142857142,7.764285714285714L13.878571428571426,7.764285714285714L13.878571428571426,7.55L13.664285714285715,7.55L13.664285714285715,7.335714285714285L13.335714285714285,7.335714285714285L13.335714285714285,8.407142857142858L12.907142857142858,8.407142857142858L12.907142857142858,8.62142857142857L12.692857142857143,8.62142857142857L12.692857142857143,9.05L12.478571428571428,9.05L12.478571428571428,9.478571428571428L11.521428571428569,9.478571428571428L11.521428571428569,7.978571428571428L10.021428571428569,7.978571428571428L10.021428571428569,7.764285714285714L8.95,7.764285714285714L8.95,7.5L9.05,7.5L9.05,7.664285714285715L10.12142857142857,7.664285714285715L10.12142857142857,7.878571428571428L11.62142857142857,7.878571428571428L11.62142857142857,9.378571428571426L12.378571428571426,9.378571428571426L12.378571428571426,8.95L12.592857142857142,8.95L12.592857142857142,8.521428571428569L12.807142857142857,8.521428571428569L12.807142857142857,8.307142857142857L13.235714285714284,8.307142857142857L13.235714285714284,7.235714285714286L13.764285714285716,7.235714285714286L13.764285714285716,7.45L13.978571428571428,7.45L13.978571428571428,7.664285714285715L14.192857142857143,7.664285714285715L14.192857142857143,7.878571428571428L14.62142857142857,7.878571428571428L14.62142857142857,8.521428571428569L19.021428571428572,8.521428571428569L19.021428571428572,7.878571428571428L19.235714285714284,7.878571428571428L19.235714285714284,7.664285714285715L19.45,7.664285714285715L19.45,7.5L19.55,7.5L19.55,7.764285714285714L19.335714285714285,7.764285714285714L19.335714285714285,7.978571428571428L19.121428571428574,7.978571428571428L19.121428571428574,8.62142857142857L14.62142857142857,8.62142857142857L14.62142857142857,8.835714285714285L14.092857142857142,8.835714285714285L14.092857142857142,8.62142857142857L13.12142857142857,8.62142857142857L13.12142857142857,9.378571428571426L13.335714285714285,9.378571428571426L13.335714285714285,9.592857142857142L13.978571428571428,9.592857142857142L13.978571428571428,10.021428571428569L15.478571428571428,10.021428571428569L15.478571428571428,10.878571428571426L15.692857142857143,10.878571428571426L15.692857142857143,11.092857142857142L15.907142857142858,11.092857142857142L15.907142857142858,11.521428571428569L16.335714285714285,11.521428571428569L16.335714285714285,11.95L16.5,11.95L16.5,12.05L16.235714285714284,12.05L16.235714285714284,11.62142857142857L15.807142857142857,11.62142857142857L15.807142857142857,11.192857142857143L15.592857142857142,11.192857142857143L15.592857142857142,10.978571428571428L15.378571428571426,10.978571428571428L15.378571428571426,10.12142857142857L13.878571428571426,10.12142857142857L13.878571428571426,9.692857142857143L13.235714285714284,9.692857142857143L13.235714285714284,9.478571428571428L13.021428571428569,9.478571428571428L13.021428571428569,8.521428571428569L14.192857142857143,8.521428571428569L14.192857142857143,8.735714285714284L14.521428571428569,8.735714285714284L14.521428571428569,8.62142857142857L14.307142857142857,8.62142857142857L14.307142857142857,8.192857142857143L13.45,8.192857142857143L13.45,7.5L13.55,7.5L13.55,8.092857142857142L14.407142857142858,8.092857142857142L14.407142857142858,8.521428571428569z" stroke="none"/><path d="M27,10.45L27,10.55L25.5,10.55L25.5,10.45z" stroke="none"/><path d="M22.45,9L22.55,9L22.55,9.692857142857143L21.264285714285716,9.692857142857143L21.264285714285716,10.335714285714285L21.05,10.335714285714285L21.05,10.5L20.95,10.5L20.95,10.235714285714284L21.164285714285715,10.235714285714284L21.164285714285715,9.592857142857142L22.45,9.592857142857142z" stroke="none"/><path d="M6,10.55L6,10.45L6.478571428571428,10.45L6.478571428571428,10.664285714285715L7.121428571428571,10.664285714285715L7.121428571428571,10.878571428571426L8.521428571428569,10.878571428571426L8.521428571428569,10.45L9,10.45L9,10.55L8.62142857142857,10.55L8.62142857142857,10.978571428571428L7.021428571428571,10.978571428571428L7.021428571428571,10.764285714285716L6.378571428571428,10.764285714285716L6.378571428571428,10.55z" stroke="none"/><path d="M3,4.55L3,4.45L6,4.45L6,4.55z" stroke="none"/><path d="M10.55,6L10.45,6L10.45,3L10.55,3z" stroke="none"/><path d="M4.5,3.05L4.5,2.95L5.307142857142857,2.95L5.307142857142857,2.7357142857142858L5.521428571428571,2.7357142857142858L5.521428571428571,2.521428571428572L7.55,2.521428571428572L7.55,3L7.45,3L7.45,2.6214285714285714L5.621428571428571,2.6214285714285714L5.621428571428571,2.8357142857142854L5.407142857142857,2.8357142857142854L5.407142857142857,3.05z" stroke="none"/><path d="M21,2.95L21,3.05L20.09285714285714,3.05L20.09285714285714,2.8357142857142854L19.878571428571426,2.8357142857142854L19.878571428571426,2.6214285714285714L19.121428571428574,2.6214285714285714L19.121428571428574,2.8357142857142854L18.90714285714286,2.8357142857142854L18.90714285714286,3.05L18,3.05L18,2.95L18.807142857142857,2.95L18.807142857142857,2.7357142857142858L19.021428571428572,2.7357142857142858L19.021428571428572,2.521428571428572L19.978571428571428,2.521428571428572L19.978571428571428,2.7357142857142858L20.192857142857143,2.7357142857142858L20.192857142857143,2.95z" stroke="none"/><path d="M25.5,2.95L25.5,3.05L22.5,3.05L22.5,2.95z" stroke="none"/><path d="M25.5,4.45L25.5,4.55L24.59285714285714,4.55L24.59285714285714,4.335714285714285L24.378571428571426,4.335714285714285L24.378571428571426,4.121428571428571L23.40714285714286,4.121428571428571L23.40714285714286,4.335714285714285L22.978571428571428,4.335714285714285L22.978571428571428,4.55L22.5,4.55L22.5,4.45L22.878571428571426,4.45L22.878571428571426,4.235714285714286L23.307142857142857,4.235714285714286L23.307142857142857,4.021428571428571L24.478571428571428,4.021428571428571L24.478571428571428,4.235714285714286L24.692857142857143,4.235714285714286L24.692857142857143,4.45z" stroke="none"/><path d="M19.5,2.95L19.5,3.05L19.121428571428574,3.05L19.121428571428574,3.2642857142857142L18.478571428571428,3.2642857142857142L18.478571428571428,3.478571428571428L17.307142857142857,3.478571428571428L17.307142857142857,3.2642857142857142L17.09285714285714,3.2642857142857142L17.09285714285714,3.05L16.5,3.05L16.5,2.95L17.192857142857143,2.95L17.192857142857143,3.1642857142857146L17.40714285714286,3.1642857142857146L17.40714285714286,3.3785714285714286L18.378571428571426,3.3785714285714286L18.378571428571426,3.1642857142857146L19.021428571428572,3.1642857142857146L19.021428571428572,2.95z" stroke="none"/><path d="M21.05,12L20.95,12L20.95,11.192857142857143L20.521428571428572,11.192857142857143L20.521428571428572,9.478571428571428L20.09285714285714,9.478571428571428L20.09285714285714,9.264285714285716L19.878571428571426,9.264285714285716L19.878571428571426,9.05L19.5,9.05L19.5,8.95L19.978571428571428,8.95L19.978571428571428,9.164285714285715L20.192857142857143,9.164285714285715L20.192857142857143,9.378571428571426L20.621428571428574,9.378571428571426L20.621428571428574,11.092857142857142L21.05,11.092857142857142z" stroke="none"/><path d="M23.95,10.5L24.05,10.5L24.05,11.95L24.264285714285716,11.95L24.264285714285716,12.164285714285715L25.12142857142857,12.164285714285715L25.12142857142857,12.378571428571426L25.878571428571426,12.378571428571426L25.878571428571426,12.164285714285715L26.09285714285714,12.164285714285715L26.09285714285714,11.95L27,11.95L27,12.05L26.192857142857143,12.05L26.192857142857143,12.264285714285716L25.978571428571428,12.264285714285716L25.978571428571428,12.478571428571428L25.02142857142857,12.478571428571428L25.02142857142857,12.264285714285716L24.164285714285715,12.264285714285716L24.164285714285715,12.05L23.95,12.05z" stroke="none"/><path d="M6.05,7.5L5.95,7.5L5.95,5.307142857142857L6.164285714285715,5.307142857142857L6.164285714285715,4.878571428571429L6.378571428571428,4.878571428571429L6.378571428571428,3.907142857142857L6.164285714285715,3.907142857142857L6.164285714285715,3.478571428571428L5.95,3.478571428571428L5.95,3L6.05,3L6.05,3.3785714285714286L6.264285714285714,3.3785714285714286L6.264285714285714,3.8071428571428574L6.478571428571428,3.8071428571428574L6.478571428571428,4.978571428571429L6.264285714285714,4.978571428571429L6.264285714285714,5.407142857142857L6.05,5.407142857142857z" stroke="none"/><path d="M8.95,6L9.05,6L9.05,6.264285714285714L8.835714285714285,6.264285714285714L8.835714285714285,6.478571428571428L8.407142857142858,6.478571428571428L8.407142857142858,6.692857142857142L7.335714285714285,6.692857142857142L7.335714285714285,7.121428571428571L7.121428571428571,7.121428571428571L7.121428571428571,8.835714285714285L6.907142857142857,8.835714285714285L6.907142857142857,9.05L6.264285714285714,9.05L6.264285714285714,9.264285714285716L5.835714285714285,9.264285714285716L5.835714285714285,9.478571428571428L5.621428571428571,9.478571428571428L5.621428571428571,9.692857142857143L5.407142857142857,9.692857142857143L5.407142857142857,10.55L5.192857142857142,10.55L5.192857142857142,10.764285714285716L4.978571428571429,10.764285714285716L4.978571428571429,10.978571428571428L4.764285714285714,10.978571428571428L4.764285714285714,11.192857142857143L4.121428571428571,11.192857142857143L4.121428571428571,12.378571428571426L8.521428571428569,12.378571428571426L8.521428571428569,11.092857142857142L8.735714285714284,11.092857142857142L8.735714285714284,10.878571428571426L9.378571428571426,10.878571428571426L9.378571428571426,10.12142857142857L7.764285714285714,10.12142857142857L7.764285714285714,10.55L7.5,10.55L7.5,10.45L7.664285714285715,10.45L7.664285714285715,10.021428571428569L9.478571428571428,10.021428571428569L9.478571428571428,10.978571428571428L8.835714285714285,10.978571428571428L8.835714285714285,11.192857142857143L8.62142857142857,11.192857142857143L8.62142857142857,12.478571428571428L4.021428571428571,12.478571428571428L4.021428571428571,11.092857142857142L4.664285714285715,11.092857142857142L4.664285714285715,10.878571428571426L4.878571428571429,10.878571428571426L4.878571428571429,10.664285714285715L5.0928571428571425,10.664285714285715L5.0928571428571425,10.45L5.307142857142857,10.45L5.307142857142857,9.592857142857142L5.521428571428571,9.592857142857142L5.521428571428571,9.378571428571426L5.735714285714286,9.378571428571426L5.735714285714286,9.164285714285715L6.164285714285715,9.164285714285715L6.164285714285715,8.95L6.807142857142857,8.95L6.807142857142857,8.735714285714284L7.021428571428571,8.735714285714284L7.021428571428571,7.021428571428571L7.235714285714286,7.021428571428571L7.235714285714286,6.5928571428571425L8.307142857142857,6.5928571428571425L8.307142857142857,6.378571428571428L8.735714285714284,6.378571428571428L8.735714285714284,6.164285714285715L8.95,6.164285714285715z" stroke="none"/><path d="M4.5,9.05L4.5,8.95L5.0928571428571425,8.95L5.0928571428571425,8.735714285714284L5.307142857142857,8.735714285714284L5.307142857142857,8.307142857142857L6.164285714285715,8.307142857142857L6.164285714285715,7.878571428571428L6.378571428571428,7.878571428571428L6.378571428571428,5.307142857142857L6.807142857142857,5.307142857142857L6.807142857142857,4.878571428571429L7.021428571428571,4.878571428571429L7.021428571428571,4.664285714285715L7.45,4.664285714285715L7.45,4.5L7.55,4.5L7.55,4.764285714285714L7.121428571428571,4.764285714285714L7.121428571428571,4.978571428571429L6.907142857142857,4.978571428571429L6.907142857142857,5.407142857142857L6.478571428571428,5.407142857142857L6.478571428571428,7.978571428571428L6.264285714285714,7.978571428571428L6.264285714285714,8.407142857142858L5.407142857142857,8.407142857142858L5.407142857142857,8.835714285714285L5.192857142857142,8.835714285714285L5.192857142857142,9.05z" stroke="none"/><path d="M22.5,6.05L22.5,5.95L24.692857142857143,5.95L24.692857142857143,6.807142857142857L25.12142857142857,6.807142857142857L25.12142857142857,7.021428571428571L25.764285714285716,7.021428571428571L25.764285714285716,7.235714285714286L26.192857142857143,7.235714285714286L26.192857142857143,7.45L26.40714285714286,7.45L26.40714285714286,7.878571428571428L26.62142857142857,7.878571428571428L26.62142857142857,8.092857142857142L26.835714285714285,8.092857142857142L26.835714285714285,8.735714285714284L27.05,8.735714285714284L27.05,9L26.95,9L26.95,8.835714285714285L26.735714285714284,8.835714285714285L26.735714285714284,8.192857142857143L26.52142857142857,8.192857142857143L26.52142857142857,7.978571428571428L26.307142857142857,7.978571428571428L26.307142857142857,7.55L26.09285714285714,7.55L26.09285714285714,7.335714285714285L25.664285714285715,7.335714285714285L25.664285714285715,7.121428571428571L25.02142857142857,7.121428571428571L25.02142857142857,6.907142857142857L24.59285714285714,6.907142857142857L24.59285714285714,6.05z" stroke="none"/><path d="M13.5,2.95L13.5,3.05L13.12142857142857,3.05L13.12142857142857,3.2642857142857142L12.907142857142858,3.2642857142857142L12.907142857142858,3.478571428571428L12.692857142857143,3.478571428571428L12.692857142857143,3.6928571428571426L11.835714285714285,3.6928571428571426L11.835714285714285,4.121428571428571L11.62142857142857,4.121428571428571L11.62142857142857,5.835714285714285L11.407142857142858,5.835714285714285L11.407142857142858,6.264285714285714L10.978571428571428,6.264285714285714L10.978571428571428,6.478571428571428L10.764285714285716,6.478571428571428L10.764285714285716,7.121428571428571L10.55,7.121428571428571L10.55,7.5L10.45,7.5L10.45,7.021428571428571L10.664285714285715,7.021428571428571L10.664285714285715,6.378571428571428L10.878571428571426,6.378571428571428L10.878571428571426,6.164285714285715L11.307142857142857,6.164285714285715L11.307142857142857,5.735714285714286L11.521428571428569,5.735714285714286L11.521428571428569,4.021428571428571L11.735714285714284,4.021428571428571L11.735714285714284,3.592857142857143L12.592857142857142,3.592857142857143L12.592857142857142,3.3785714285714286L12.807142857142857,3.3785714285714286L12.807142857142857,3.1642857142857146L13.021428571428569,3.1642857142857146L13.021428571428569,2.95z" stroke="none"/><path d="M18,4.55L18,4.45L18.478571428571428,4.45L18.478571428571428,4.664285714285715L18.90714285714286,4.664285714285715L18.90714285714286,4.878571428571429L19.878571428571426,4.878571428571429L19.878571428571426,4.121428571428571L19.45,4.121428571428571L19.45,3.907142857142857L14.521428571428569,3.907142857142857L14.521428571428569,2.6214285714285714L12.478571428571428,2.6214285714285714L12.478571428571428,2.8357142857142854L12.264285714285716,2.8357142857142854L12.264285714285716,3.05L12,3.05L12,2.95L12.164285714285715,2.95L12.164285714285715,2.7357142857142858L12.378571428571426,2.7357142857142858L12.378571428571426,2.521428571428572L14.62142857142857,2.521428571428572L14.62142857142857,3.8071428571428574L19.55,3.8071428571428574L19.55,4.021428571428571L19.978571428571428,4.021428571428571L19.978571428571428,4.978571428571429L18.807142857142857,4.978571428571429L18.807142857142857,4.764285714285714L18.378571428571426,4.764285714285714L18.378571428571426,4.55z" stroke="none"/><path d="M21,4.55L21,4.45L21.59285714285714,4.45L21.59285714285714,4.235714285714286L21.807142857142857,4.235714285714286L21.807142857142857,4.021428571428571L22.878571428571426,4.021428571428571L22.878571428571426,3.8071428571428574L25.764285714285716,3.8071428571428574L25.764285714285716,4.021428571428571L25.978571428571428,4.021428571428571L25.978571428571428,5.735714285714286L26.40714285714286,5.735714285714286L26.40714285714286,7.021428571428571L26.62142857142857,7.021428571428571L26.62142857142857,7.45L27,7.45L27,7.55L26.52142857142857,7.55L26.52142857142857,7.121428571428571L26.307142857142857,7.121428571428571L26.307142857142857,5.835714285714285L25.878571428571426,5.835714285714285L25.878571428571426,4.121428571428571L25.664285714285715,4.121428571428571L25.664285714285715,3.907142857142857L22.978571428571428,3.907142857142857L22.978571428571428,4.121428571428571L21.90714285714286,4.121428571428571L21.90714285714286,4.335714285714285L21.692857142857143,4.335714285714285L21.692857142857143,4.55z" stroke="none"/><path d="M10.45,12L10.55,12L10.55,12.264285714285716L9.264285714285716,12.264285714285716L9.264285714285716,12.478571428571428L8.835714285714285,12.478571428571428L8.835714285714285,12.692857142857143L3.1642857142857146,12.692857142857143L3.1642857142857146,12.264285714285716L2.95,12.264285714285716L2.95,12L3.05,12L3.05,12.164285714285715L3.2642857142857142,12.164285714285715L3.2642857142857142,12.592857142857142L8.735714285714284,12.592857142857142L8.735714285714284,12.378571428571426L9.164285714285715,12.378571428571426L9.164285714285715,12.164285714285715L10.45,12.164285714285715z" stroke="none"/><path d="M10.5,10.55L10.5,10.45L13.335714285714285,10.45L13.335714285714285,10.664285714285715L13.55,10.664285714285715L13.55,10.878571428571426L14.407142857142858,10.878571428571426L14.407142857142858,11.092857142857142L15.05,11.092857142857142L15.05,11.521428571428569L15.264285714285716,11.521428571428569L15.264285714285716,11.735714285714284L15.478571428571428,11.735714285714284L15.478571428571428,12.164285714285715L15.692857142857143,12.164285714285715L15.692857142857143,12.378571428571426L18.378571428571426,12.378571428571426L18.378571428571426,11.735714285714284L18.807142857142857,11.735714285714284L18.807142857142857,10.878571428571426L19.878571428571426,10.878571428571426L19.878571428571426,10.12142857142857L19.021428571428572,10.12142857142857L19.021428571428572,9.907142857142858L18.164285714285715,9.907142857142858L18.164285714285715,9.05L18,9.05L18,8.95L18.264285714285716,8.95L18.264285714285716,9.807142857142857L19.121428571428574,9.807142857142857L19.121428571428574,10.021428571428569L19.978571428571428,10.021428571428569L19.978571428571428,10.978571428571428L18.90714285714286,10.978571428571428L18.90714285714286,11.835714285714285L18.478571428571428,11.835714285714285L18.478571428571428,12.478571428571428L15.592857142857142,12.478571428571428L15.592857142857142,12.264285714285716L15.378571428571426,12.264285714285716L15.378571428571426,11.835714285714285L15.164285714285715,11.835714285714285L15.164285714285715,11.62142857142857L14.95,11.62142857142857L14.95,11.192857142857143L14.307142857142857,11.192857142857143L14.307142857142857,10.978571428571428L13.45,10.978571428571428L13.45,10.764285714285716L13.235714285714284,10.764285714285716L13.235714285714284,10.55z" stroke="none"/><path d="M27.05,6L26.95,6L26.95,5.835714285714285L26.52142857142857,5.835714285714285L26.52142857142857,4.55L26.307142857142857,4.55L26.307142857142857,4.121428571428571L26.09285714285714,4.121428571428571L26.09285714285714,3.907142857142857L25.878571428571426,3.907142857142857L25.878571428571426,3.6928571428571426L20.835714285714285,3.6928571428571426L20.835714285714285,3.907142857142857L20.621428571428574,3.907142857142857L20.621428571428574,4.121428571428571L20.40714285714286,4.121428571428571L20.40714285714286,4.978571428571429L20.192857142857143,4.978571428571429L20.192857142857143,5.192857142857142L18.59285714285714,5.192857142857142L18.59285714285714,4.978571428571429L17.307142857142857,4.978571428571429L17.307142857142857,4.764285714285714L16.878571428571426,4.764285714285714L16.878571428571426,4.55L16.5,4.55L16.5,4.45L16.978571428571428,4.45L16.978571428571428,4.664285714285715L17.40714285714286,4.664285714285715L17.40714285714286,4.878571428571429L18.692857142857143,4.878571428571429L18.692857142857143,5.0928571428571425L20.09285714285714,5.0928571428571425L20.09285714285714,4.878571428571429L20.307142857142857,4.878571428571429L20.307142857142857,4.021428571428571L20.521428571428572,4.021428571428571L20.521428571428572,3.8071428571428574L20.735714285714284,3.8071428571428574L20.735714285714284,3.592857142857143L25.978571428571428,3.592857142857143L25.978571428571428,3.8071428571428574L26.192857142857143,3.8071428571428574L26.192857142857143,4.021428571428571L26.40714285714286,4.021428571428571L26.40714285714286,4.45L26.62142857142857,4.45L26.62142857142857,5.735714285714286L27.05,5.735714285714286z" stroke="none"/><path d="M19.5,6.05L19.5,5.95L19.978571428571428,5.95L19.978571428571428,6.164285714285715L20.40714285714286,6.164285714285715L20.40714285714286,6.5928571428571425L20.835714285714285,6.5928571428571425L20.835714285714285,6.807142857142857L21.264285714285716,6.807142857142857L21.264285714285716,7.235714285714286L21.478571428571428,7.235714285714286L21.478571428571428,7.878571428571428L21.90714285714286,7.878571428571428L21.90714285714286,8.092857142857142L22.335714285714285,8.092857142857142L22.335714285714285,8.307142857142857L22.978571428571428,8.307142857142857L22.978571428571428,9.692857142857143L22.764285714285716,9.692857142857143L22.764285714285716,9.907142857142858L22.55,9.907142857142858L22.55,10.12142857142857L22.121428571428574,10.12142857142857L22.121428571428574,12.478571428571428L18.90714285714286,12.478571428571428L18.90714285714286,12.692857142857143L9.264285714285716,12.692857142857143L9.264285714285716,12.907142857142858L2.7357142857142858,12.907142857142858L2.7357142857142858,12.478571428571428L2.521428571428572,12.478571428571428L2.521428571428572,11.521428571428569L3.1642857142857146,11.521428571428569L3.1642857142857146,11.092857142857142L3.3785714285714286,11.092857142857142L3.3785714285714286,10.45L4.021428571428571,10.45L4.021428571428571,10.235714285714284L4.235714285714286,10.235714285714284L4.235714285714286,9.592857142857142L4.45,9.592857142857142L4.45,9.378571428571426L5.0928571428571425,9.378571428571426L5.0928571428571425,9.164285714285715L5.521428571428571,9.164285714285715L5.521428571428571,8.95L5.95,8.95L5.95,8.735714285714284L6.378571428571428,8.735714285714284L6.378571428571428,8.307142857142857L6.5928571428571425,8.307142857142857L6.5928571428571425,6.5928571428571425L7.021428571428571,6.5928571428571425L7.021428571428571,6.378571428571428L7.664285714285715,6.378571428571428L7.664285714285715,6.164285714285715L8.092857142857142,6.164285714285715L8.092857142857142,5.521428571428571L8.307142857142857,5.521428571428571L8.307142857142857,4.878571428571429L8.521428571428569,4.878571428571429L8.521428571428569,4.664285714285715L8.735714285714284,4.664285714285715L8.735714285714284,4.45L9,4.45L9,4.55L8.835714285714285,4.55L8.835714285714285,4.764285714285714L8.62142857142857,4.764285714285714L8.62142857142857,4.978571428571429L8.407142857142858,4.978571428571429L8.407142857142858,5.621428571428571L8.192857142857143,5.621428571428571L8.192857142857143,6.264285714285714L7.764285714285714,6.264285714285714L7.764285714285714,6.478571428571428L7.121428571428571,6.478571428571428L7.121428571428571,6.692857142857142L6.692857142857142,6.692857142857142L6.692857142857142,8.407142857142858L6.478571428571428,8.407142857142858L6.478571428571428,8.835714285714285L6.05,8.835714285714285L6.05,9.05L5.621428571428571,9.05L5.621428571428571,9.264285714285716L5.192857142857142,9.264285714285716L5.192857142857142,9.478571428571428L4.55,9.478571428571428L4.55,9.692857142857143L4.335714285714285,9.692857142857143L4.335714285714285,10.335714285714285L4.121428571428571,10.335714285714285L4.121428571428571,10.55L3.478571428571428,10.55L3.478571428571428,11.192857142857143L3.2642857142857142,11.192857142857143L3.2642857142857142,11.62142857142857L2.6214285714285714,11.62142857142857L2.6214285714285714,12.378571428571426L2.8357142857142854,12.378571428571426L2.8357142857142854,12.807142857142857L9.164285714285715,12.807142857142857L9.164285714285715,12.592857142857142L18.807142857142857,12.592857142857142L18.807142857142857,12.378571428571426L22.021428571428572,12.378571428571426L22.021428571428572,10.021428571428569L22.45,10.021428571428569L22.45,9.807142857142857L22.664285714285715,9.807142857142857L22.664285714285715,9.592857142857142L22.878571428571426,9.592857142857142L22.878571428571426,8.407142857142858L22.235714285714284,8.407142857142858L22.235714285714284,8.192857142857143L21.807142857142857,8.192857142857143L21.807142857142857,7.978571428571428L21.378571428571426,7.978571428571428L21.378571428571426,7.335714285714285L21.164285714285715,7.335714285714285L21.164285714285715,6.907142857142857L20.735714285714284,6.907142857142857L20.735714285714284,6.692857142857142L20.307142857142857,6.692857142857142L20.307142857142857,6.264285714285714L19.878571428571426,6.264285714285714L19.878571428571426,6.05z" stroke="none"/><path d="M15.05,3L14.95,3L14.95,2.6214285714285714L14.735714285714284,2.6214285714285714L14.735714285714284,2.407142857142857L4.335714285714285,2.407142857142857L4.335714285714285,2.6214285714285714L4.121428571428571,2.6214285714285714L4.121428571428571,2.8357142857142854L3.6928571428571426,2.8357142857142854L3.6928571428571426,3.05L3.478571428571428,3.05L3.478571428571428,3.2642857142857142L3.2642857142857142,3.2642857142857142L3.2642857142857142,3.478571428571428L3.05,3.478571428571428L3.05,3.907142857142857L2.8357142857142854,3.907142857142857L2.8357142857142854,4.121428571428571L2.6214285714285714,4.121428571428571L2.6214285714285714,5.307142857142857L2.8357142857142854,5.307142857142857L2.8357142857142854,6.378571428571428L3.478571428571428,6.378571428571428L3.478571428571428,6.807142857142857L3.907142857142857,6.807142857142857L3.907142857142857,7.235714285714286L4.335714285714285,7.235714285714286L4.335714285714285,7.45L4.5,7.45L4.5,7.55L4.235714285714286,7.55L4.235714285714286,7.335714285714285L3.8071428571428574,7.335714285714285L3.8071428571428574,6.907142857142857L3.3785714285714286,6.907142857142857L3.3785714285714286,6.478571428571428L2.7357142857142858,6.478571428571428L2.7357142857142858,5.407142857142857L2.521428571428572,5.407142857142857L2.521428571428572,4.021428571428571L2.7357142857142858,4.021428571428571L2.7357142857142858,3.8071428571428574L2.95,3.8071428571428574L2.95,3.3785714285714286L3.1642857142857146,3.3785714285714286L3.1642857142857146,3.1642857142857146L3.3785714285714286,3.1642857142857146L3.3785714285714286,2.95L3.592857142857143,2.95L3.592857142857143,2.7357142857142858L4.021428571428571,2.7357142857142858L4.021428571428571,2.521428571428572L4.235714285714286,2.521428571428572L4.235714285714286,2.3071428571428574L14.835714285714285,2.3071428571428574L14.835714285714285,2.521428571428572L15.05,2.521428571428572z" stroke="none"/></svg>