<svg version="1.1" width="30" height="15" xmlns="http://www.w3.org/2000/svg"><path d="M23.40714285714286,11.092857142857142L23.40714285714286,11.521428571428569L24.05,11.521428571428569L24.05,12L23.95,12L23.95,11.62142857142857L23.307142857142857,11.62142857142857L23.307142857142857,11.192857142857143L19.55,11.192857142857143L19.55,12L19.45,12L19.45,11.192857142857143L19.235714285714284,11.192857142857143L19.235714285714284,10.978571428571428L19.021428571428572,10.978571428571428L19.021428571428572,10.12142857142857L17.09285714285714,10.12142857142857L17.09285714285714,9.907142857142858L16.235714285714284,9.907142857142858L16.235714285714284,9.692857142857143L15.807142857142857,9.692857142857143L15.807142857142857,9.478571428571428L15.378571428571426,9.478571428571428L15.378571428571426,9.264285714285716L14.95,9.264285714285716L14.95,9L15.05,9L15.05,9.164285714285715L15.478571428571428,9.164285714285715L15.478571428571428,9.378571428571426L15.907142857142858,9.378571428571426L15.907142857142858,9.592857142857142L16.335714285714285,9.592857142857142L16.335714285714285,9.807142857142857L17.192857142857143,9.807142857142857L17.192857142857143,10.021428571428569L19.121428571428574,10.021428571428569L19.121428571428574,10.878571428571426L19.335714285714285,10.878571428571426L19.335714285714285,11.092857142857142z" stroke="none"/><path d="M13.45,9.807142857142857L13.45,9.592857142857142L13.878571428571426,9.592857142857142L13.878571428571426,8.735714285714284L14.521428571428569,8.735714285714284L14.521428571428569,8.521428571428569L17.40714285714286,8.521428571428569L17.40714285714286,8.735714285714284L17.621428571428574,8.735714285714284L17.621428571428574,8.95L19.5,8.95L19.5,9.05L17.521428571428572,9.05L17.521428571428572,8.835714285714285L17.307142857142857,8.835714285714285L17.307142857142857,8.62142857142857L14.62142857142857,8.62142857142857L14.62142857142857,8.835714285714285L13.978571428571428,8.835714285714285L13.978571428571428,9.692857142857143L13.55,9.692857142857143L13.55,9.907142857142858L12.907142857142858,9.907142857142858L12.907142857142858,10.12142857142857L12.478571428571428,10.12142857142857L12.478571428571428,10.55L12,10.55L12,10.45L12.378571428571426,10.45L12.378571428571426,10.021428571428569L12.807142857142857,10.021428571428569L12.807142857142857,9.907142857142858L7.764285714285714,9.907142857142858L7.764285714285714,10.12142857142857L7.55,10.12142857142857L7.55,10.5L7.45,10.5L7.45,10.021428571428569L7.664285714285715,10.021428571428569L7.664285714285715,9.807142857142857z" stroke="none"/><path d="M12.378571428571426,4.45L12.378571428571426,3.907142857142857L12.164285714285715,3.907142857142857L12.164285714285715,3.2642857142857142L11.95,3.2642857142857142L11.95,3L12.05,3L12.05,3.1642857142857146L12.264285714285716,3.1642857142857146L12.264285714285716,3.8071428571428574L12.478571428571428,3.8071428571428574L12.478571428571428,4.45L15.164285714285715,4.45L15.164285714285715,4.021428571428571L15.378571428571426,4.021428571428571L15.378571428571426,3.592857142857143L15.592857142857142,3.592857142857143L15.592857142857142,3.3785714285714286L16.02142857142857,3.3785714285714286L16.02142857142857,3.1642857142857146L16.235714285714284,3.1642857142857146L16.235714285714284,2.95L16.5,2.95L16.5,3.05L16.335714285714285,3.05L16.335714285714285,3.2642857142857142L16.12142857142857,3.2642857142857142L16.12142857142857,3.478571428571428L15.692857142857143,3.478571428571428L15.692857142857143,3.6928571428571426L15.478571428571428,3.6928571428571426L15.478571428571428,4.121428571428571L15.264285714285716,4.121428571428571L15.264285714285716,4.55L11.192857142857143,4.55L11.192857142857143,4.764285714285714L10.978571428571428,4.764285714285714L10.978571428571428,4.978571428571429L10.764285714285716,4.978571428571429L10.764285714285716,5.192857142857142L10.55,5.192857142857142L10.55,5.407142857142857L10.335714285714285,5.407142857142857L10.335714285714285,5.621428571428571L10.12142857142857,5.621428571428571L10.12142857142857,5.835714285714285L9.907142857142858,5.835714285714285L9.907142857142858,6.478571428571428L9.478571428571428,6.478571428571428L9.478571428571428,7.335714285714285L9.05,7.335714285714285L9.05,7.5L8.95,7.5L8.95,7.235714285714286L9.378571428571426,7.235714285714286L9.378571428571426,6.378571428571428L9.807142857142857,6.378571428571428L9.807142857142857,5.735714285714286L10.021428571428569,5.735714285714286L10.021428571428569,5.521428571428571L10.235714285714284,5.521428571428571L10.235714285714284,5.307142857142857L10.45,5.307142857142857L10.45,5.0928571428571425L10.664285714285715,5.0928571428571425L10.664285714285715,4.878571428571429L10.878571428571426,4.878571428571429L10.878571428571426,4.664285714285715L11.092857142857142,4.664285714285715L11.092857142857142,4.45z" stroke="none"/><path d="M5.521428571428571,11.092857142857142L5.521428571428571,10.878571428571426L5.735714285714286,10.878571428571426L5.735714285714286,10.45L6,10.45L6,10.55L5.835714285714285,10.55L5.835714285714285,10.978571428571428L5.621428571428571,10.978571428571428L5.621428571428571,11.092857142857142L8.407142857142858,11.092857142857142L8.407142857142858,11.735714285714284L8.835714285714285,11.735714285714284L8.835714285714285,11.95L9,11.95L9,12.05L8.735714285714284,12.05L8.735714285714284,11.835714285714285L8.307142857142857,11.835714285714285L8.307142857142857,11.192857142857143L5.621428571428571,11.192857142857143L5.621428571428571,11.62142857142857L5.407142857142857,11.62142857142857L5.407142857142857,11.835714285714285L4.978571428571429,11.835714285714285L4.978571428571429,12.05L4.5,12.05L4.5,11.95L4.878571428571429,11.95L4.878571428571429,11.735714285714284L5.307142857142857,11.735714285714284L5.307142857142857,11.521428571428569L5.521428571428571,11.521428571428569L5.521428571428571,11.192857142857143L3.8071428571428574,11.192857142857143L3.8071428571428574,10.978571428571428L3.592857142857143,10.978571428571428L3.592857142857143,10.764285714285716L3.1642857142857146,10.764285714285716L3.1642857142857146,10.55L3,10.55L3,10.45L3.2642857142857142,10.45L3.2642857142857142,10.664285714285715L3.6928571428571426,10.664285714285715L3.6928571428571426,10.878571428571426L3.907142857142857,10.878571428571426L3.907142857142857,11.092857142857142z" stroke="none"/><path d="M8.95,8.092857142857142L8.95,7.878571428571428L9.378571428571426,7.878571428571428L9.378571428571426,7.45L9.592857142857142,7.45L9.592857142857142,7.235714285714286L9.807142857142857,7.235714285714286L9.807142857142857,6.5928571428571425L10.021428571428569,6.5928571428571425L10.021428571428569,6.164285714285715L10.45,6.164285714285715L10.45,6L10.55,6L10.55,6.264285714285714L10.12142857142857,6.264285714285714L10.12142857142857,6.692857142857142L9.907142857142858,6.692857142857142L9.907142857142858,7.335714285714285L9.692857142857143,7.335714285714285L9.692857142857143,7.55L9.478571428571428,7.55L9.478571428571428,7.978571428571428L9.05,7.978571428571428L9.05,8.092857142857142L9.264285714285716,8.092857142857142L9.264285714285716,9.05L8.192857142857143,9.05L8.192857142857143,9.264285714285716L7.55,9.264285714285716L7.55,9.478571428571428L7.335714285714285,9.478571428571428L7.335714285714285,9.692857142857143L7.121428571428571,9.692857142857143L7.121428571428571,10.878571428571426L13.021428571428569,10.878571428571426L13.021428571428569,10.664285714285715L13.45,10.664285714285715L13.45,10.5L13.55,10.5L13.55,10.764285714285716L13.12142857142857,10.764285714285716L13.12142857142857,10.978571428571428L7.021428571428571,10.978571428571428L7.021428571428571,9.592857142857142L7.235714285714286,9.592857142857142L7.235714285714286,9.378571428571426L7.45,9.378571428571426L7.45,9.164285714285715L8.092857142857142,9.164285714285715L8.092857142857142,8.95L9.164285714285715,8.95L9.164285714285715,8.192857142857143L9.05,8.192857142857143L9.05,8.62142857142857L8.835714285714285,8.62142857142857L8.835714285714285,8.835714285714285L7.764285714285714,8.835714285714285L7.764285714285714,9.05L7.5,9.05L7.5,8.95L7.664285714285715,8.95L7.664285714285715,8.735714285714284L8.735714285714284,8.735714285714284L8.735714285714284,8.521428571428569L8.95,8.521428571428569L8.95,8.192857142857143L4.664285714285715,8.192857142857143L4.664285714285715,7.764285714285714L4.45,7.764285714285714L4.45,7.5L4.55,7.5L4.55,7.664285714285715L4.764285714285714,7.664285714285715L4.764285714285714,8.092857142857142z" stroke="none"/><path d="M19.021428571428572,6.5928571428571425L19.021428571428572,6.378571428571428L20.09285714285714,6.378571428571428L20.09285714285714,6.164285714285715L20.307142857142857,6.164285714285715L20.307142857142857,5.735714285714286L21.164285714285715,5.735714285714286L21.164285714285715,5.521428571428571L21.378571428571426,5.521428571428571L21.378571428571426,5.307142857142857L21.59285714285714,5.307142857142857L21.59285714285714,5.0928571428571425L24.164285714285715,5.0928571428571425L24.164285714285715,4.878571428571429L25.45,4.878571428571429L25.45,4.5L25.55,4.5L25.55,4.978571428571429L24.264285714285716,4.978571428571429L24.264285714285716,5.192857142857142L21.692857142857143,5.192857142857142L21.692857142857143,5.407142857142857L21.478571428571428,5.407142857142857L21.478571428571428,5.621428571428571L21.264285714285716,5.621428571428571L21.264285714285716,5.835714285714285L20.40714285714286,5.835714285714285L20.40714285714286,6.264285714285714L20.192857142857143,6.264285714285714L20.192857142857143,6.478571428571428L19.121428571428574,6.478571428571428L19.121428571428574,6.5928571428571425L22.664285714285715,6.5928571428571425L22.664285714285715,6.164285714285715L22.878571428571426,6.164285714285715L22.878571428571426,5.95L24,5.95L24,6.05L22.978571428571428,6.05L22.978571428571428,6.264285714285714L22.764285714285716,6.264285714285714L22.764285714285716,6.692857142857142L19.121428571428574,6.692857142857142L19.121428571428574,6.907142857142857L18.05,6.907142857142857L18.05,7.121428571428571L17.192857142857143,7.121428571428571L17.192857142857143,7.335714285714285L16.978571428571428,7.335714285714285L16.978571428571428,7.55L15.05,7.55L15.05,7.978571428571428L14.407142857142858,7.978571428571428L14.407142857142858,8.192857142857143L13.978571428571428,8.192857142857143L13.978571428571428,8.62142857142857L13.764285714285716,8.62142857142857L13.764285714285716,9.05L13.5,9.05L13.5,8.95L13.664285714285715,8.95L13.664285714285715,8.521428571428569L13.878571428571426,8.521428571428569L13.878571428571426,8.092857142857142L14.307142857142857,8.092857142857142L14.307142857142857,7.878571428571428L14.95,7.878571428571428L14.95,7.45L16.878571428571426,7.45L16.878571428571426,7.235714285714286L17.09285714285714,7.235714285714286L17.09285714285714,7.021428571428571L17.95,7.021428571428571L17.95,6.807142857142857L19.021428571428572,6.807142857142857L19.021428571428572,6.692857142857142L13.764285714285716,6.692857142857142L13.764285714285716,6.907142857142857L13.55,6.907142857142857L13.55,7.5L13.45,7.5L13.45,6.807142857142857L13.664285714285715,6.807142857142857L13.664285714285715,6.5928571428571425z" stroke="none"/><path d="M27,2.95L27,3.05L25.5,3.05L25.5,2.95z" stroke="none"/><path d="M7.5,11.95L7.5,12.05L6,12.05L6,11.95z" stroke="none"/><path d="M22.5,11.95L22.5,12.05L21,12.05L21,11.95z" stroke="none"/><path d="M27.05,6L26.95,6L26.95,4.5L27.05,4.5z" stroke="none"/><path d="M4.45,6L4.55,6L4.55,6.907142857142857L3.6928571428571426,6.907142857142857L3.6928571428571426,7.121428571428571L3.2642857142857142,7.121428571428571L3.2642857142857142,7.335714285714285L3.05,7.335714285714285L3.05,7.5L2.95,7.5L2.95,7.235714285714286L3.1642857142857146,7.235714285714286L3.1642857142857146,7.021428571428571L3.592857142857143,7.021428571428571L3.592857142857143,6.807142857142857L4.45,6.807142857142857z" stroke="none"/><path d="M4.45,3L4.55,3L4.55,3.2642857142857142L3.907142857142857,3.2642857142857142L3.907142857142857,3.478571428571428L3.478571428571428,3.478571428571428L3.478571428571428,3.907142857142857L3.2642857142857142,3.907142857142857L3.2642857142857142,4.335714285714285L3.05,4.335714285714285L3.05,4.5L2.95,4.5L2.95,4.235714285714286L3.1642857142857146,4.235714285714286L3.1642857142857146,3.8071428571428574L3.3785714285714286,3.8071428571428574L3.3785714285714286,3.3785714285714286L3.8071428571428574,3.3785714285714286L3.8071428571428574,3.1642857142857146L4.45,3.1642857142857146z" stroke="none"/><path d="M25.5,8.95L25.5,9.05L22.5,9.05L22.5,8.95z" stroke="none"/><path d="M7.5,3.05L7.5,2.95L9.05,2.95L9.05,3.1642857142857146L9.264285714285716,3.1642857142857146L9.264285714285716,3.592857142857143L9.478571428571428,3.592857142857143L9.478571428571428,3.8071428571428574L9.907142857142858,3.8071428571428574L9.907142857142858,4.021428571428571L10.12142857142857,4.021428571428571L10.12142857142857,4.235714285714286L10.335714285714285,4.235714285714286L10.335714285714285,4.45L10.5,4.45L10.5,4.55L10.235714285714284,4.55L10.235714285714284,4.335714285714285L10.021428571428569,4.335714285714285L10.021428571428569,4.121428571428571L9.807142857142857,4.121428571428571L9.807142857142857,3.907142857142857L9.378571428571426,3.907142857142857L9.378571428571426,3.6928571428571426L9.164285714285715,3.6928571428571426L9.164285714285715,3.2642857142857142L8.95,3.2642857142857142L8.95,3.05z" stroke="none"/><path d="M22.55,10.5L22.45,10.5L22.45,9.692857142857143L22.021428571428572,9.692857142857143L22.021428571428572,8.521428571428569L23.307142857142857,8.521428571428569L23.307142857142857,8.092857142857142L23.735714285714284,8.092857142857142L23.735714285714284,7.664285714285715L23.95,7.664285714285715L23.95,7.5L24.05,7.5L24.05,7.764285714285714L23.835714285714285,7.764285714285714L23.835714285714285,8.192857142857143L23.40714285714286,8.192857142857143L23.40714285714286,8.62142857142857L22.121428571428574,8.62142857142857L22.121428571428574,9.592857142857142L22.55,9.592857142857142z" stroke="none"/><path d="M3.05,12L2.95,12L2.95,11.192857142857143L2.7357142857142858,11.192857142857143L2.7357142857142858,10.978571428571428L2.521428571428572,10.978571428571428L2.521428571428572,10.021428571428569L5.735714285714286,10.021428571428569L5.735714285714286,9.378571428571426L5.95,9.378571428571426L5.95,9L6.05,9L6.05,9.478571428571428L5.835714285714285,9.478571428571428L5.835714285714285,10.12142857142857L2.6214285714285714,10.12142857142857L2.6214285714285714,10.878571428571426L2.8357142857142854,10.878571428571426L2.8357142857142854,11.092857142857142L3.05,11.092857142857142z" stroke="none"/><path d="M25.55,12L25.45,12L25.45,9.807142857142857L25.664285714285715,9.807142857142857L25.664285714285715,9.378571428571426L25.878571428571426,9.378571428571426L25.878571428571426,8.407142857142858L25.664285714285715,8.407142857142858L25.664285714285715,7.978571428571428L25.45,7.978571428571428L25.45,7.5L25.55,7.5L25.55,7.878571428571428L25.764285714285716,7.878571428571428L25.764285714285716,8.307142857142857L25.978571428571428,8.307142857142857L25.978571428571428,9.478571428571428L25.764285714285716,9.478571428571428L25.764285714285716,9.907142857142858L25.55,9.907142857142858z" stroke="none"/><path d="M3,6.05L3,5.95L3.8071428571428574,5.95L3.8071428571428574,5.735714285714286L4.021428571428571,5.735714285714286L4.021428571428571,5.521428571428571L6.692857142857142,5.521428571428571L6.692857142857142,5.735714285714286L6.907142857142857,5.735714285714286L6.907142857142857,5.95L7.5,5.95L7.5,6.05L6.807142857142857,6.05L6.807142857142857,5.835714285714285L6.5928571428571425,5.835714285714285L6.5928571428571425,5.621428571428571L4.121428571428571,5.621428571428571L4.121428571428571,5.835714285714285L3.907142857142857,5.835714285714285L3.907142857142857,6.05z" stroke="none"/><path d="M15,2.95L15,3.05L12.378571428571426,3.05L12.378571428571426,2.6214285714285714L10.764285714285716,2.6214285714285714L10.764285714285716,2.8357142857142854L10.55,2.8357142857142854L10.55,3L10.45,3L10.45,2.7357142857142858L10.664285714285715,2.7357142857142858L10.664285714285715,2.521428571428572L12.478571428571428,2.521428571428572L12.478571428571428,2.95z" stroke="none"/><path d="M24,3.05L24,2.95L24.478571428571428,2.95L24.478571428571428,3.1642857142857146L24.90714285714286,3.1642857142857146L24.90714285714286,3.3785714285714286L25.335714285714285,3.3785714285714286L25.335714285714285,3.592857142857143L25.55,3.592857142857143L25.55,4.021428571428571L25.978571428571428,4.021428571428571L25.978571428571428,4.978571428571429L25.764285714285716,4.978571428571429L25.764285714285716,5.192857142857142L24.692857142857143,5.192857142857142L24.692857142857143,5.835714285714285L24.478571428571428,5.835714285714285L24.478571428571428,6.478571428571428L23.40714285714286,6.478571428571428L23.40714285714286,6.907142857142857L23.192857142857143,6.907142857142857L23.192857142857143,7.335714285714285L22.55,7.335714285714285L22.55,7.5L22.45,7.5L22.45,7.235714285714286L23.09285714285714,7.235714285714286L23.09285714285714,6.807142857142857L23.307142857142857,6.807142857142857L23.307142857142857,6.378571428571428L24.378571428571426,6.378571428571428L24.378571428571426,5.735714285714286L24.59285714285714,5.735714285714286L24.59285714285714,5.0928571428571425L25.664285714285715,5.0928571428571425L25.664285714285715,4.878571428571429L25.878571428571426,4.878571428571429L25.878571428571426,4.121428571428571L25.45,4.121428571428571L25.45,3.6928571428571426L25.235714285714284,3.6928571428571426L25.235714285714284,3.478571428571428L24.807142857142857,3.478571428571428L24.807142857142857,3.2642857142857142L24.378571428571426,3.2642857142857142L24.378571428571426,3.05z" stroke="none"/><path d="M10.45,12L10.55,12L10.55,12.264285714285716L9.478571428571428,12.264285714285716L9.478571428571428,12.478571428571428L2.521428571428572,12.478571428571428L2.521428571428572,11.192857142857143L2.3071428571428574,11.192857142857143L2.3071428571428574,9.807142857142857L2.95,9.807142857142857L2.95,8.521428571428569L3.1642857142857146,8.521428571428569L3.1642857142857146,8.092857142857142L3.3785714285714286,8.092857142857142L3.3785714285714286,7.235714285714286L3.8071428571428574,7.235714285714286L3.8071428571428574,7.021428571428571L5.192857142857142,7.021428571428571L5.192857142857142,7.235714285714286L7.55,7.235714285714286L7.55,7.5L7.45,7.5L7.45,7.335714285714285L5.0928571428571425,7.335714285714285L5.0928571428571425,7.121428571428571L3.907142857142857,7.121428571428571L3.907142857142857,7.335714285714285L3.478571428571428,7.335714285714285L3.478571428571428,8.192857142857143L3.2642857142857142,8.192857142857143L3.2642857142857142,8.62142857142857L3.05,8.62142857142857L3.05,9.907142857142858L2.407142857142857,9.907142857142858L2.407142857142857,11.092857142857142L2.6214285714285714,11.092857142857142L2.6214285714285714,12.378571428571426L9.378571428571426,12.378571428571426L9.378571428571426,12.164285714285715L10.45,12.164285714285715z" stroke="none"/><path d="M10.5,7.55L10.5,7.45L11.092857142857142,7.45L11.092857142857142,7.235714285714286L11.307142857142857,7.235714285714286L11.307142857142857,6.5928571428571425L12.164285714285715,6.5928571428571425L12.164285714285715,6.164285714285715L12.378571428571426,6.164285714285715L12.378571428571426,5.735714285714286L13.021428571428569,5.735714285714286L13.021428571428569,5.521428571428571L14.092857142857142,5.521428571428571L14.092857142857142,5.307142857142857L14.307142857142857,5.307142857142857L14.307142857142857,5.0928571428571425L14.735714285714284,5.0928571428571425L14.735714285714284,4.664285714285715L15.378571428571426,4.664285714285715L15.378571428571426,4.235714285714286L16.02142857142857,4.235714285714286L16.02142857142857,4.021428571428571L16.664285714285715,4.021428571428571L16.664285714285715,3.592857142857143L16.878571428571426,3.592857142857143L16.878571428571426,2.6214285714285714L12.807142857142857,2.6214285714285714L12.807142857142857,2.407142857142857L7.335714285714285,2.407142857142857L7.335714285714285,2.6214285714285714L7.121428571428571,2.6214285714285714L7.121428571428571,3.6928571428571426L6.692857142857142,3.6928571428571426L6.692857142857142,4.335714285714285L6.264285714285714,4.335714285714285L6.264285714285714,4.55L6,4.55L6,4.45L6.164285714285715,4.45L6.164285714285715,4.235714285714286L6.5928571428571425,4.235714285714286L6.5928571428571425,3.592857142857143L7.021428571428571,3.592857142857143L7.021428571428571,2.521428571428572L7.235714285714286,2.521428571428572L7.235714285714286,2.3071428571428574L12.907142857142858,2.3071428571428574L12.907142857142858,2.521428571428572L16.978571428571428,2.521428571428572L16.978571428571428,3.6928571428571426L16.764285714285716,3.6928571428571426L16.764285714285716,4.121428571428571L16.12142857142857,4.121428571428571L16.12142857142857,4.335714285714285L15.478571428571428,4.335714285714285L15.478571428571428,4.764285714285714L14.835714285714285,4.764285714285714L14.835714285714285,5.192857142857142L14.407142857142858,5.192857142857142L14.407142857142858,5.407142857142857L14.192857142857143,5.407142857142857L14.192857142857143,5.621428571428571L13.12142857142857,5.621428571428571L13.12142857142857,5.835714285714285L12.478571428571428,5.835714285714285L12.478571428571428,6.264285714285714L12.264285714285716,6.264285714285714L12.264285714285716,6.692857142857142L11.407142857142858,6.692857142857142L11.407142857142858,7.335714285714285L11.192857142857143,7.335714285714285L11.192857142857143,7.55z" stroke="none"/><path d="M24,4.45L24,4.55L22.978571428571428,4.55L22.978571428571428,4.764285714285714L21.692857142857143,4.764285714285714L21.692857142857143,4.978571428571429L18.90714285714286,4.978571428571429L18.90714285714286,5.192857142857142L18.692857142857143,5.192857142857142L18.692857142857143,5.621428571428571L18.478571428571428,5.621428571428571L18.478571428571428,5.835714285714285L18.05,5.835714285714285L18.05,6L17.95,6L17.95,5.735714285714286L18.378571428571426,5.735714285714286L18.378571428571426,5.521428571428571L18.59285714285714,5.521428571428571L18.59285714285714,5.0928571428571425L18.807142857142857,5.0928571428571425L18.807142857142857,4.878571428571429L21.59285714285714,4.878571428571429L21.59285714285714,4.664285714285715L22.878571428571426,4.664285714285715L22.878571428571426,4.45z" stroke="none"/><path d="M22.5,2.95L22.5,3.05L22.121428571428574,3.05L22.121428571428574,3.2642857142857142L21.478571428571428,3.2642857142857142L21.478571428571428,3.478571428571428L18.478571428571428,3.478571428571428L18.478571428571428,3.907142857142857L18.264285714285716,3.907142857142857L18.264285714285716,4.121428571428571L17.40714285714286,4.121428571428571L17.40714285714286,4.335714285714285L16.55,4.335714285714285L16.55,4.5L16.45,4.5L16.45,4.235714285714286L17.307142857142857,4.235714285714286L17.307142857142857,4.021428571428571L18.164285714285715,4.021428571428571L18.164285714285715,3.8071428571428574L18.378571428571426,3.8071428571428574L18.378571428571426,3.3785714285714286L21.378571428571426,3.3785714285714286L21.378571428571426,3.1642857142857146L22.021428571428572,3.1642857142857146L22.021428571428572,2.95z" stroke="none"/><path d="M27.05,10.5L26.95,10.5L26.95,8.407142857142858L26.735714285714284,8.407142857142858L26.735714285714284,8.192857142857143L26.52142857142857,8.192857142857143L26.52142857142857,7.978571428571428L26.307142857142857,7.978571428571428L26.307142857142857,7.764285714285714L25.878571428571426,7.764285714285714L25.878571428571426,7.121428571428571L23.62142857142857,7.121428571428571L23.62142857142857,7.764285714285714L23.192857142857143,7.764285714285714L23.192857142857143,7.978571428571428L22.335714285714285,7.978571428571428L22.335714285714285,8.192857142857143L21.692857142857143,8.192857142857143L21.692857142857143,8.835714285714285L21.264285714285716,8.835714285714285L21.264285714285716,9.05L21,9.05L21,8.95L21.164285714285715,8.95L21.164285714285715,8.735714285714284L21.59285714285714,8.735714285714284L21.59285714285714,8.092857142857142L22.235714285714284,8.092857142857142L22.235714285714284,7.878571428571428L23.09285714285714,7.878571428571428L23.09285714285714,7.664285714285715L23.52142857142857,7.664285714285715L23.52142857142857,7.021428571428571L25.978571428571428,7.021428571428571L25.978571428571428,7.664285714285715L26.40714285714286,7.664285714285715L26.40714285714286,7.878571428571428L26.62142857142857,7.878571428571428L26.62142857142857,8.092857142857142L26.835714285714285,8.092857142857142L26.835714285714285,8.307142857142857L27.05,8.307142857142857z" stroke="none"/><path d="M21.05,3L20.95,3L20.95,2.521428571428572L22.978571428571428,2.521428571428572L22.978571428571428,3.478571428571428L21.692857142857143,3.478571428571428L21.692857142857143,3.6928571428571426L20.40714285714286,3.6928571428571426L20.40714285714286,3.907142857142857L18.90714285714286,3.907142857142857L18.90714285714286,4.121428571428571L18.478571428571428,4.121428571428571L18.478571428571428,4.335714285714285L17.621428571428574,4.335714285714285L17.621428571428574,4.55L17.192857142857143,4.55L17.192857142857143,4.764285714285714L16.978571428571428,4.764285714285714L16.978571428571428,4.978571428571429L16.12142857142857,4.978571428571429L16.12142857142857,5.192857142857142L15.478571428571428,5.192857142857142L15.478571428571428,5.407142857142857L14.62142857142857,5.407142857142857L14.62142857142857,5.835714285714285L14.407142857142858,5.835714285714285L14.407142857142858,6.05L13.5,6.05L13.5,5.95L14.307142857142857,5.95L14.307142857142857,5.735714285714286L14.521428571428569,5.735714285714286L14.521428571428569,5.307142857142857L15.378571428571426,5.307142857142857L15.378571428571426,5.0928571428571425L16.02142857142857,5.0928571428571425L16.02142857142857,4.878571428571429L16.878571428571426,4.878571428571429L16.878571428571426,4.664285714285715L17.09285714285714,4.664285714285715L17.09285714285714,4.45L17.521428571428572,4.45L17.521428571428572,4.235714285714286L18.378571428571426,4.235714285714286L18.378571428571426,4.021428571428571L18.807142857142857,4.021428571428571L18.807142857142857,3.8071428571428574L20.307142857142857,3.8071428571428574L20.307142857142857,3.592857142857143L21.59285714285714,3.592857142857143L21.59285714285714,3.3785714285714286L22.878571428571426,3.3785714285714286L22.878571428571426,2.6214285714285714L21.05,2.6214285714285714z" stroke="none"/><path d="M19.5,10.55L19.5,10.45L21.90714285714286,10.45L21.90714285714286,10.878571428571426L23.62142857142857,10.878571428571426L23.62142857142857,11.307142857142857L24.264285714285716,11.307142857142857L24.264285714285716,11.521428571428569L25.12142857142857,11.521428571428569L25.12142857142857,12.378571428571426L25.878571428571426,12.378571428571426L25.878571428571426,11.307142857142857L26.52142857142857,11.307142857142857L26.52142857142857,11.092857142857142L27.164285714285715,11.092857142857142L27.164285714285715,10.878571428571426L27.378571428571426,10.878571428571426L27.378571428571426,8.407142857142858L27.164285714285715,8.407142857142858L27.164285714285715,8.192857142857143L26.95,8.192857142857143L26.95,7.5L27.05,7.5L27.05,8.092857142857142L27.264285714285716,8.092857142857142L27.264285714285716,8.307142857142857L27.478571428571428,8.307142857142857L27.478571428571428,10.978571428571428L27.264285714285716,10.978571428571428L27.264285714285716,11.192857142857143L26.62142857142857,11.192857142857143L26.62142857142857,11.407142857142858L25.978571428571428,11.407142857142858L25.978571428571428,12.478571428571428L25.02142857142857,12.478571428571428L25.02142857142857,11.62142857142857L24.164285714285715,11.62142857142857L24.164285714285715,11.407142857142858L23.52142857142857,11.407142857142858L23.52142857142857,10.978571428571428L21.807142857142857,10.978571428571428L21.807142857142857,10.55z" stroke="none"/><path d="M6,6.05L6,5.95L6.692857142857142,5.95L6.692857142857142,6.164285714285715L7.121428571428571,6.164285714285715L7.121428571428571,6.378571428571428L7.878571428571428,6.378571428571428L7.878571428571428,5.407142857142857L3.05,5.407142857142857L3.05,5.621428571428571L2.6214285714285714,5.621428571428571L2.6214285714285714,9.478571428571428L2.1928571428571426,9.478571428571428L2.1928571428571426,11.735714285714284L2.407142857142857,11.735714285714284L2.407142857142857,12.592857142857142L14.95,12.592857142857142L14.95,12.378571428571426L15.164285714285715,12.378571428571426L15.164285714285715,11.95L15.378571428571426,11.95L15.378571428571426,11.735714285714284L15.807142857142857,11.735714285714284L15.807142857142857,11.521428571428569L16.02142857142857,11.521428571428569L16.02142857142857,10.878571428571426L16.235714285714284,10.878571428571426L16.235714285714284,10.45L16.5,10.45L16.5,10.55L16.335714285714285,10.55L16.335714285714285,10.978571428571428L16.12142857142857,10.978571428571428L16.12142857142857,11.62142857142857L15.907142857142858,11.62142857142857L15.907142857142858,11.835714285714285L15.478571428571428,11.835714285714285L15.478571428571428,12.05L15.264285714285716,12.05L15.264285714285716,12.478571428571428L15.05,12.478571428571428L15.05,12.692857142857143L2.3071428571428574,12.692857142857143L2.3071428571428574,11.835714285714285L2.092857142857143,11.835714285714285L2.092857142857143,9.378571428571426L2.521428571428572,9.378571428571426L2.521428571428572,5.521428571428571L2.95,5.521428571428571L2.95,5.307142857142857L7.978571428571428,5.307142857142857L7.978571428571428,6.478571428571428L7.021428571428571,6.478571428571428L7.021428571428571,6.264285714285714L6.5928571428571425,6.264285714285714L6.5928571428571425,6.05z" stroke="none"/><path d="M9,5.95L9,6.05L8.735714285714284,6.05L8.735714285714284,5.621428571428571L8.521428571428569,5.621428571428571L8.521428571428569,5.407142857142857L8.092857142857142,5.407142857142857L8.092857142857142,5.192857142857142L5.95,5.192857142857142L5.95,4.978571428571429L5.521428571428571,4.978571428571429L5.521428571428571,4.021428571428571L5.735714285714286,4.021428571428571L5.735714285714286,3.592857142857143L6.378571428571428,3.592857142857143L6.378571428571428,3.1642857142857146L6.5928571428571425,3.1642857142857146L6.5928571428571425,2.7357142857142858L6.807142857142857,2.7357142857142858L6.807142857142857,2.3071428571428574L7.021428571428571,2.3071428571428574L7.021428571428571,2.092857142857143L23.192857142857143,2.092857142857143L23.192857142857143,3.907142857142857L22.55,3.907142857142857L22.55,4.121428571428571L22.335714285714285,4.121428571428571L22.335714285714285,4.335714285714285L21.264285714285716,4.335714285714285L21.264285714285716,4.55L21,4.55L21,4.45L21.164285714285715,4.45L21.164285714285715,4.235714285714286L22.235714285714284,4.235714285714286L22.235714285714284,4.021428571428571L22.45,4.021428571428571L22.45,3.8071428571428574L23.09285714285714,3.8071428571428574L23.09285714285714,2.1928571428571426L7.121428571428571,2.1928571428571426L7.121428571428571,2.407142857142857L6.907142857142857,2.407142857142857L6.907142857142857,2.8357142857142854L6.692857142857142,2.8357142857142854L6.692857142857142,3.2642857142857142L6.478571428571428,3.2642857142857142L6.478571428571428,3.6928571428571426L5.835714285714285,3.6928571428571426L5.835714285714285,4.121428571428571L5.621428571428571,4.121428571428571L5.621428571428571,4.878571428571429L6.05,4.878571428571429L6.05,5.0928571428571425L8.192857142857143,5.0928571428571425L8.192857142857143,5.307142857142857L8.62142857142857,5.307142857142857L8.62142857142857,5.521428571428571L8.835714285714285,5.521428571428571L8.835714285714285,5.95z" stroke="none"/><path d="M27,11.95L27,12.05L26.62142857142857,12.05L26.62142857142857,12.692857142857143L19.235714285714284,12.692857142857143L19.235714285714284,12.478571428571428L19.021428571428572,12.478571428571428L19.021428571428572,11.407142857142858L18.807142857142857,11.407142857142858L18.807142857142857,11.192857142857143L18.59285714285714,11.192857142857143L18.59285714285714,10.978571428571428L17.95,10.978571428571428L17.95,10.764285714285716L17.735714285714284,10.764285714285716L17.735714285714284,10.335714285714285L16.878571428571426,10.335714285714285L16.878571428571426,10.12142857142857L15.264285714285716,10.12142857142857L15.264285714285716,10.335714285714285L15.05,10.335714285714285L15.05,10.5L14.95,10.5L14.95,10.235714285714284L15.164285714285715,10.235714285714284L15.164285714285715,10.021428571428569L16.978571428571428,10.021428571428569L16.978571428571428,10.235714285714284L17.835714285714285,10.235714285714284L17.835714285714285,10.664285714285715L18.05,10.664285714285715L18.05,10.878571428571426L18.692857142857143,10.878571428571426L18.692857142857143,11.092857142857142L18.90714285714286,11.092857142857142L18.90714285714286,11.307142857142857L19.121428571428574,11.307142857142857L19.121428571428574,12.378571428571426L19.335714285714285,12.378571428571426L19.335714285714285,12.592857142857142L26.52142857142857,12.592857142857142L26.52142857142857,11.95z" stroke="none"/></svg>