<svg version="1.1" width="30" height="15" xmlns="http://www.w3.org/2000/svg"><path d="M17.521428571428572,9.378571428571426L17.521428571428572,8.95L18,8.95L18,9.05L17.621428571428574,9.05L17.621428571428574,9.478571428571428L15.907142857142858,9.478571428571428L15.907142857142858,9.592857142857142L17.735714285714284,9.592857142857142L17.735714285714284,9.378571428571426L17.95,9.378571428571426L17.95,9.164285714285715L18.378571428571426,9.164285714285715L18.378571428571426,8.95L19.5,8.95L19.5,9.05L18.478571428571428,9.05L18.478571428571428,9.264285714285716L18.05,9.264285714285716L18.05,9.478571428571428L17.835714285714285,9.478571428571428L17.835714285714285,9.692857142857143L15.807142857142857,9.692857142857143L15.807142857142857,9.478571428571428L15.264285714285716,9.478571428571428L15.264285714285716,9.692857142857143L14.62142857142857,9.692857142857143L14.62142857142857,10.12142857142857L13.12142857142857,10.12142857142857L13.12142857142857,10.335714285714285L12.907142857142858,10.335714285714285L12.907142857142858,10.55L12.692857142857143,10.55L12.692857142857143,10.978571428571428L10.664285714285715,10.978571428571428L10.664285714285715,10.764285714285716L10.45,10.764285714285716L10.45,10.5L10.55,10.5L10.55,10.664285714285715L10.764285714285716,10.664285714285715L10.764285714285716,10.878571428571426L12.592857142857142,10.878571428571426L12.592857142857142,10.45L12.807142857142857,10.45L12.807142857142857,10.235714285714284L13.021428571428569,10.235714285714284L13.021428571428569,10.021428571428569L14.521428571428569,10.021428571428569L14.521428571428569,9.592857142857142L15.164285714285715,9.592857142857142L15.164285714285715,9.378571428571426z" stroke="none"/><path d="M23.62142857142857,10.45L23.62142857142857,10.878571428571426L26.52142857142857,10.878571428571426L26.52142857142857,10.45L27,10.45L27,10.55L26.62142857142857,10.55L26.62142857142857,10.978571428571428L23.52142857142857,10.978571428571428L23.52142857142857,10.55L23.40714285714286,10.55L23.40714285714286,11.092857142857142L26.40714285714286,11.092857142857142L26.40714285714286,11.307142857142857L26.62142857142857,11.307142857142857L26.62142857142857,11.95L27,11.95L27,12.05L26.52142857142857,12.05L26.52142857142857,11.407142857142858L26.307142857142857,11.407142857142858L26.307142857142857,11.192857142857143L23.307142857142857,11.192857142857143L23.307142857142857,10.55L23.09285714285714,10.55L23.09285714285714,10.335714285714285L22.878571428571426,10.335714285714285L22.878571428571426,10.12142857142857L20.735714285714284,10.12142857142857L20.735714285714284,9.692857142857143L20.307142857142857,9.692857142857143L20.307142857142857,9.478571428571428L20.09285714285714,9.478571428571428L20.09285714285714,9.264285714285716L19.878571428571426,9.264285714285716L19.878571428571426,8.62142857142857L16.764285714285716,8.62142857142857L16.764285714285716,8.835714285714285L16.55,8.835714285714285L16.55,9L16.45,9L16.45,8.735714285714284L16.664285714285715,8.735714285714284L16.664285714285715,8.521428571428569L19.978571428571428,8.521428571428569L19.978571428571428,9.164285714285715L20.192857142857143,9.164285714285715L20.192857142857143,9.378571428571426L20.40714285714286,9.378571428571426L20.40714285714286,9.592857142857142L20.835714285714285,9.592857142857142L20.835714285714285,10.021428571428569L22.978571428571428,10.021428571428569L22.978571428571428,10.235714285714284L23.192857142857143,10.235714285714284L23.192857142857143,10.45z" stroke="none"/><path d="M21.378571428571426,7.878571428571428L21.378571428571426,7.235714285714286L22.021428571428572,7.235714285714286L22.021428571428572,7.021428571428571L22.664285714285715,7.021428571428571L22.664285714285715,6.807142857142857L23.09285714285714,6.807142857142857L23.09285714285714,6.5928571428571425L23.307142857142857,6.5928571428571425L23.307142857142857,6.378571428571428L23.52142857142857,6.378571428571428L23.52142857142857,6.164285714285715L23.735714285714284,6.164285714285715L23.735714285714284,5.95L24,5.95L24,6.05L23.835714285714285,6.05L23.835714285714285,6.264285714285714L23.62142857142857,6.264285714285714L23.62142857142857,6.478571428571428L23.40714285714286,6.478571428571428L23.40714285714286,6.692857142857142L23.192857142857143,6.692857142857142L23.192857142857143,6.907142857142857L22.764285714285716,6.907142857142857L22.764285714285716,7.121428571428571L22.121428571428574,7.121428571428571L22.121428571428574,7.335714285714285L21.478571428571428,7.335714285714285L21.478571428571428,7.978571428571428L15.907142857142858,7.978571428571428L15.907142857142858,8.407142857142858L15.692857142857143,8.407142857142858L15.692857142857143,8.62142857142857L15.478571428571428,8.62142857142857L15.478571428571428,9.05L15.264285714285716,9.05L15.264285714285716,9.264285714285716L15.05,9.264285714285716L15.05,9.478571428571428L14.407142857142858,9.478571428571428L14.407142857142858,9.692857142857143L14.192857142857143,9.692857142857143L14.192857142857143,9.907142857142858L12.692857142857143,9.907142857142858L12.692857142857143,10.12142857142857L12.264285714285716,10.12142857142857L12.264285714285716,10.335714285714285L12.05,10.335714285714285L12.05,10.5L11.95,10.5L11.95,10.235714285714284L12.164285714285715,10.235714285714284L12.164285714285715,10.021428571428569L12.592857142857142,10.021428571428569L12.592857142857142,9.807142857142857L14.092857142857142,9.807142857142857L14.092857142857142,9.592857142857142L14.307142857142857,9.592857142857142L14.307142857142857,9.378571428571426L14.95,9.378571428571426L14.95,9.164285714285715L15.164285714285715,9.164285714285715L15.164285714285715,8.95L15.378571428571426,8.95L15.378571428571426,8.521428571428569L15.592857142857142,8.521428571428569L15.592857142857142,8.307142857142857L15.807142857142857,8.307142857142857L15.807142857142857,7.978571428571428L12.378571428571426,7.978571428571428L12.378571428571426,7.55L12,7.55L12,7.45L12.478571428571428,7.45L12.478571428571428,7.878571428571428z" stroke="none"/><path d="M17.95,4.021428571428571L17.95,3L18.05,3L18.05,4.021428571428571L20.621428571428574,4.021428571428571L20.621428571428574,4.235714285714286L20.835714285714285,4.235714285714286L20.835714285714285,4.664285714285715L22.121428571428574,4.664285714285715L22.121428571428574,4.878571428571429L22.878571428571426,4.878571428571429L22.878571428571426,4.235714285714286L23.307142857142857,4.235714285714286L23.307142857142857,4.021428571428571L23.735714285714284,4.021428571428571L23.735714285714284,3.8071428571428574L24.59285714285714,3.8071428571428574L24.59285714285714,3.592857142857143L25.02142857142857,3.592857142857143L25.02142857142857,3.3785714285714286L25.878571428571426,3.3785714285714286L25.878571428571426,2.6214285714285714L24.264285714285716,2.6214285714285714L24.264285714285716,2.8357142857142854L24.05,2.8357142857142854L24.05,3L23.95,3L23.95,2.7357142857142858L24.164285714285715,2.7357142857142858L24.164285714285715,2.521428571428572L25.978571428571428,2.521428571428572L25.978571428571428,3.478571428571428L25.12142857142857,3.478571428571428L25.12142857142857,3.6928571428571426L24.692857142857143,3.6928571428571426L24.692857142857143,3.907142857142857L23.835714285714285,3.907142857142857L23.835714285714285,4.121428571428571L23.40714285714286,4.121428571428571L23.40714285714286,4.335714285714285L22.978571428571428,4.335714285714285L22.978571428571428,4.978571428571429L22.021428571428572,4.978571428571429L22.021428571428572,4.764285714285714L20.735714285714284,4.764285714285714L20.735714285714284,4.335714285714285L20.521428571428572,4.335714285714285L20.521428571428572,4.121428571428571L18.05,4.121428571428571L18.05,4.335714285714285L17.192857142857143,4.335714285714285L17.192857142857143,4.55L15.907142857142858,4.55L15.907142857142858,4.764285714285714L15.692857142857143,4.764285714285714L15.692857142857143,5.192857142857142L15.264285714285716,5.192857142857142L15.264285714285716,6.05L15,6.05L15,5.95L15.164285714285715,5.95L15.164285714285715,5.0928571428571425L15.592857142857142,5.0928571428571425L15.592857142857142,4.664285714285715L15.807142857142857,4.664285714285715L15.807142857142857,4.45L17.09285714285714,4.45L17.09285714285714,4.235714285714286L17.95,4.235714285714286L17.95,4.121428571428571L16.978571428571428,4.121428571428571L16.978571428571428,4.335714285714285L15.692857142857143,4.335714285714285L15.692857142857143,4.55L15,4.55L15,4.45L15.592857142857142,4.45L15.592857142857142,4.235714285714286L16.878571428571426,4.235714285714286L16.878571428571426,4.021428571428571z" stroke="none"/><path d="M20.95,3.1642857142857146L20.95,3.05L20.09285714285714,3.05L20.09285714285714,2.8357142857142854L18.378571428571426,2.8357142857142854L18.378571428571426,2.6214285714285714L17.40714285714286,2.6214285714285714L17.40714285714286,2.8357142857142854L17.192857142857143,2.8357142857142854L17.192857142857143,3.05L16.5,3.05L16.5,2.95L17.09285714285714,2.95L17.09285714285714,2.7357142857142858L17.307142857142857,2.7357142857142858L17.307142857142857,2.521428571428572L18.478571428571428,2.521428571428572L18.478571428571428,2.7357142857142858L20.192857142857143,2.7357142857142858L20.192857142857143,2.95L21.05,2.95L21.05,3.1642857142857146L22.121428571428574,3.1642857142857146L22.121428571428574,3.3785714285714286L24.807142857142857,3.3785714285714286L24.807142857142857,3.1642857142857146L25.02142857142857,3.1642857142857146L25.02142857142857,2.95L25.5,2.95L25.5,3.05L25.12142857142857,3.05L25.12142857142857,3.2642857142857142L24.90714285714286,3.2642857142857142L24.90714285714286,3.478571428571428L22.021428571428572,3.478571428571428L22.021428571428572,3.2642857142857142L21.05,3.2642857142857142L21.05,3.8071428571428574L21.478571428571428,3.8071428571428574L21.478571428571428,4.235714285714286L21.692857142857143,4.235714285714286L21.692857142857143,4.45L22.5,4.45L22.5,4.55L21.59285714285714,4.55L21.59285714285714,4.335714285714285L21.378571428571426,4.335714285714285L21.378571428571426,3.907142857142857L20.95,3.907142857142857L20.95,3.2642857142857142L19.664285714285715,3.2642857142857142L19.664285714285715,3.05L19.5,3.05L19.5,2.95L19.764285714285716,2.95L19.764285714285716,3.1642857142857146z" stroke="none"/><path d="M7.021428571428571,5.95L7.021428571428571,5.521428571428571L7.45,5.521428571428571L7.45,5.0928571428571425L7.664285714285715,5.0928571428571425L7.664285714285715,4.878571428571429L7.878571428571428,4.878571428571429L7.878571428571428,4.235714285714286L10.335714285714285,4.235714285714286L10.335714285714285,4.45L10.5,4.45L10.5,4.55L10.235714285714284,4.55L10.235714285714284,4.335714285714285L7.978571428571428,4.335714285714285L7.978571428571428,4.978571428571429L7.764285714285714,4.978571428571429L7.764285714285714,5.192857142857142L7.55,5.192857142857142L7.55,5.621428571428571L7.121428571428571,5.621428571428571L7.121428571428571,5.95L7.235714285714286,5.95L7.235714285714286,5.735714285714286L7.664285714285715,5.735714285714286L7.664285714285715,5.307142857142857L8.092857142857142,5.307142857142857L8.092857142857142,5.0928571428571425L8.521428571428569,5.0928571428571425L8.521428571428569,4.878571428571429L8.735714285714284,4.878571428571429L8.735714285714284,4.45L9,4.45L9,4.55L8.835714285714285,4.55L8.835714285714285,4.978571428571429L8.62142857142857,4.978571428571429L8.62142857142857,5.192857142857142L8.192857142857143,5.192857142857142L8.192857142857143,5.407142857142857L7.764285714285714,5.407142857142857L7.764285714285714,5.835714285714285L7.335714285714285,5.835714285714285L7.335714285714285,6.05L7.121428571428571,6.05L7.121428571428571,7.978571428571428L6.264285714285714,7.978571428571428L6.264285714285714,8.407142857142858L6.05,8.407142857142858L6.05,9L5.95,9L5.95,8.307142857142857L6.164285714285715,8.307142857142857L6.164285714285715,7.878571428571428L7.021428571428571,7.878571428571428L7.021428571428571,6.05L6.907142857142857,6.05L6.907142857142857,6.264285714285714L6.478571428571428,6.264285714285714L6.478571428571428,6.478571428571428L3.3785714285714286,6.478571428571428L3.3785714285714286,6.05L3,6.05L3,5.95L3.478571428571428,5.95L3.478571428571428,6.378571428571428L6.378571428571428,6.378571428571428L6.378571428571428,6.164285714285715L6.807142857142857,6.164285714285715L6.807142857142857,5.95z" stroke="none"/><path d="M7.5,4.45L7.5,4.55L6,4.55L6,4.45z" stroke="none"/><path d="M9,10.45L9,10.55L7.5,10.55L7.5,10.45z" stroke="none"/><path d="M9,7.55L9,7.45L10.5,7.45L10.5,7.55z" stroke="none"/><path d="M5.95,3L6.05,3L6.05,3.907142857142857L5.835714285714285,3.907142857142857L5.835714285714285,4.121428571428571L5.621428571428571,4.121428571428571L5.621428571428571,5.0928571428571425L5.835714285714285,5.0928571428571425L5.835714285714285,5.307142857142857L6.05,5.307142857142857L6.05,6L5.95,6L5.95,5.407142857142857L5.735714285714286,5.407142857142857L5.735714285714286,5.192857142857142L5.521428571428571,5.192857142857142L5.521428571428571,4.021428571428571L5.735714285714286,4.021428571428571L5.735714285714286,3.8071428571428574L5.95,3.8071428571428574z" stroke="none"/><path d="M21,10.45L21,10.55L18,10.55L18,10.45z" stroke="none"/><path d="M7.5,11.95L7.5,12.05L7.235714285714286,12.05L7.235714285714286,11.835714285714285L6.5928571428571425,11.835714285714285L6.5928571428571425,11.407142857142858L6.378571428571428,11.407142857142858L6.378571428571428,10.978571428571428L4.878571428571429,10.978571428571428L4.878571428571429,10.55L4.5,10.55L4.5,10.45L4.978571428571429,10.45L4.978571428571429,10.878571428571426L6.478571428571428,10.878571428571426L6.478571428571428,11.307142857142857L6.692857142857142,11.307142857142857L6.692857142857142,11.735714285714284L7.335714285714285,11.735714285714284L7.335714285714285,11.95z" stroke="none"/><path d="M13.5,8.95L13.5,9.05L11.835714285714285,9.05L11.835714285714285,9.478571428571428L11.407142857142858,9.478571428571428L11.407142857142858,9.692857142857143L10.978571428571428,9.692857142857143L10.978571428571428,9.907142857142858L10.764285714285716,9.907142857142858L10.764285714285716,10.12142857142857L10.12142857142857,10.12142857142857L10.12142857142857,10.878571428571426L10.335714285714285,10.878571428571426L10.335714285714285,11.092857142857142L10.55,11.092857142857142L10.55,11.307142857142857L10.764285714285716,11.307142857142857L10.764285714285716,11.521428571428569L11.192857142857143,11.521428571428569L11.192857142857143,11.735714285714284L11.835714285714285,11.735714285714284L11.835714285714285,11.95L12,11.95L12,12.05L11.735714285714284,12.05L11.735714285714284,11.835714285714285L11.092857142857142,11.835714285714285L11.092857142857142,11.62142857142857L10.664285714285715,11.62142857142857L10.664285714285715,11.407142857142858L10.45,11.407142857142858L10.45,11.192857142857143L10.235714285714284,11.192857142857143L10.235714285714284,10.978571428571428L10.021428571428569,10.978571428571428L10.021428571428569,10.021428571428569L10.664285714285715,10.021428571428569L10.664285714285715,9.807142857142857L10.878571428571426,9.807142857142857L10.878571428571426,9.592857142857142L11.307142857142857,9.592857142857142L11.307142857142857,9.378571428571426L11.735714285714284,9.378571428571426L11.735714285714284,8.95z" stroke="none"/><path d="M22.5,7.55L22.5,7.45L27,7.45L27,7.55z" stroke="none"/><path d="M3.05,12L2.95,12L2.95,9.807142857142857L3.1642857142857146,9.807142857142857L3.1642857142857146,9.378571428571426L3.3785714285714286,9.378571428571426L3.3785714285714286,7.978571428571428L2.95,7.978571428571428L2.95,7.5L3.05,7.5L3.05,7.878571428571428L3.478571428571428,7.878571428571428L3.478571428571428,9.478571428571428L3.2642857142857142,9.478571428571428L3.2642857142857142,9.907142857142858L3.05,9.907142857142858z" stroke="none"/><path d="M22.5,3.05L22.5,2.95L22.878571428571426,2.95L22.878571428571426,2.7357142857142858L23.52142857142857,2.7357142857142858L23.52142857142857,2.521428571428572L23.735714285714284,2.521428571428572L23.735714285714284,2.3071428571428574L26.192857142857143,2.3071428571428574L26.192857142857143,3.6928571428571426L25.55,3.6928571428571426L25.55,3.907142857142857L25.12142857142857,3.907142857142857L25.12142857142857,4.121428571428571L24.264285714285716,4.121428571428571L24.264285714285716,4.55L23.62142857142857,4.55L23.62142857142857,4.764285714285714L23.40714285714286,4.764285714285714L23.40714285714286,5.192857142857142L23.192857142857143,5.192857142857142L23.192857142857143,5.407142857142857L22.978571428571428,5.407142857142857L22.978571428571428,6.692857142857142L22.55,6.692857142857142L22.55,6.907142857142857L21.264285714285716,6.907142857142857L21.264285714285716,7.335714285714285L21.05,7.335714285714285L21.05,7.5L20.95,7.5L20.95,7.235714285714286L21.164285714285715,7.235714285714286L21.164285714285715,6.807142857142857L22.45,6.807142857142857L22.45,6.5928571428571425L22.878571428571426,6.5928571428571425L22.878571428571426,5.307142857142857L23.09285714285714,5.307142857142857L23.09285714285714,5.0928571428571425L23.307142857142857,5.0928571428571425L23.307142857142857,4.664285714285715L23.52142857142857,4.664285714285715L23.52142857142857,4.45L24.164285714285715,4.45L24.164285714285715,4.021428571428571L25.02142857142857,4.021428571428571L25.02142857142857,3.8071428571428574L25.45,3.8071428571428574L25.45,3.592857142857143L26.09285714285714,3.592857142857143L26.09285714285714,2.407142857142857L23.835714285714285,2.407142857142857L23.835714285714285,2.6214285714285714L23.62142857142857,2.6214285714285714L23.62142857142857,2.8357142857142854L22.978571428571428,2.8357142857142854L22.978571428571428,3.05z" stroke="none"/><path d="M3.05,9L2.95,9L2.95,8.62142857142857L2.7357142857142858,8.62142857142857L2.7357142857142858,7.978571428571428L2.521428571428572,7.978571428571428L2.521428571428572,5.521428571428571L4.021428571428571,5.521428571428571L4.021428571428571,4.878571428571429L4.235714285714286,4.878571428571429L4.235714285714286,4.664285714285715L4.45,4.664285714285715L4.45,4.5L4.55,4.5L4.55,4.764285714285714L4.335714285714285,4.764285714285714L4.335714285714285,4.978571428571429L4.121428571428571,4.978571428571429L4.121428571428571,5.621428571428571L2.6214285714285714,5.621428571428571L2.6214285714285714,7.878571428571428L2.8357142857142854,7.878571428571428L2.8357142857142854,8.521428571428569L3.05,8.521428571428569z" stroke="none"/><path d="M7.45,7.5L7.55,7.5L7.55,8.62142857142857L7.121428571428571,8.62142857142857L7.121428571428571,11.521428571428569L7.978571428571428,11.521428571428569L7.978571428571428,12.478571428571428L6.164285714285715,12.478571428571428L6.164285714285715,12.264285714285716L5.95,12.264285714285716L5.95,12L6.05,12L6.05,12.164285714285715L6.264285714285714,12.164285714285715L6.264285714285714,12.378571428571426L7.878571428571428,12.378571428571426L7.878571428571428,11.62142857142857L7.021428571428571,11.62142857142857L7.021428571428571,8.521428571428569L7.45,8.521428571428569z" stroke="none"/><path d="M24,10.55L24,10.45L26.09285714285714,10.45L26.09285714285714,10.235714285714284L26.52142857142857,10.235714285714284L26.52142857142857,10.021428571428569L27.478571428571428,10.021428571428569L27.478571428571428,12.478571428571428L20.735714285714284,12.478571428571428L20.735714285714284,12.264285714285716L19.45,12.264285714285716L19.45,12L19.55,12L19.55,12.164285714285715L20.835714285714285,12.164285714285715L20.835714285714285,12.378571428571426L27.378571428571426,12.378571428571426L27.378571428571426,10.12142857142857L26.62142857142857,10.12142857142857L26.62142857142857,10.335714285714285L26.192857142857143,10.335714285714285L26.192857142857143,10.55z" stroke="none"/><path d="M4.5,3.05L4.5,2.95L5.307142857142857,2.95L5.307142857142857,2.7357142857142858L5.521428571428571,2.7357142857142858L5.521428571428571,2.521428571428572L10.12142857142857,2.521428571428572L10.12142857142857,2.7357142857142858L10.335714285714285,2.7357142857142858L10.335714285714285,2.95L10.5,2.95L10.5,3.05L10.235714285714284,3.05L10.235714285714284,2.8357142857142854L10.021428571428569,2.8357142857142854L10.021428571428569,2.6214285714285714L5.621428571428571,2.6214285714285714L5.621428571428571,2.8357142857142854L5.407142857142857,2.8357142857142854L5.407142857142857,3.05z" stroke="none"/><path d="M19.5,7.45L19.5,7.55L17.735714285714284,7.55L17.735714285714284,7.335714285714285L17.521428571428572,7.335714285714285L17.521428571428572,7.121428571428571L13.878571428571426,7.121428571428571L13.878571428571426,6.692857142857142L13.664285714285715,6.692857142857142L13.664285714285715,6.264285714285714L13.45,6.264285714285714L13.45,5.192857142857142L13.235714285714284,5.192857142857142L13.235714285714284,4.978571428571429L12.378571428571426,4.978571428571429L12.378571428571426,4.764285714285714L11.95,4.764285714285714L11.95,4.5L12.05,4.5L12.05,4.664285714285715L12.478571428571428,4.664285714285715L12.478571428571428,4.878571428571429L13.335714285714285,4.878571428571429L13.335714285714285,5.0928571428571425L13.55,5.0928571428571425L13.55,6.164285714285715L13.764285714285716,6.164285714285715L13.764285714285716,6.5928571428571425L13.978571428571428,6.5928571428571425L13.978571428571428,7.021428571428571L17.621428571428574,7.021428571428571L17.621428571428574,7.235714285714286L17.835714285714285,7.235714285714286L17.835714285714285,7.45z" stroke="none"/><path d="M7.5,9.05L7.5,8.95L10.021428571428569,8.95L10.021428571428569,8.735714285714284L10.235714285714284,8.735714285714284L10.235714285714284,8.521428571428569L10.45,8.521428571428569L10.45,8.307142857142857L10.664285714285715,8.307142857142857L10.664285714285715,7.878571428571428L10.878571428571426,7.878571428571428L10.878571428571426,7.664285714285715L11.092857142857142,7.664285714285715L11.092857142857142,7.021428571428571L13.55,7.021428571428571L13.55,7.235714285714286L16.55,7.235714285714286L16.55,7.5L16.45,7.5L16.45,7.335714285714285L13.45,7.335714285714285L13.45,7.121428571428571L11.192857142857143,7.121428571428571L11.192857142857143,7.764285714285714L10.978571428571428,7.764285714285714L10.978571428571428,7.978571428571428L10.764285714285716,7.978571428571428L10.764285714285716,8.407142857142858L10.55,8.407142857142858L10.55,8.62142857142857L10.335714285714285,8.62142857142857L10.335714285714285,8.835714285714285L10.12142857142857,8.835714285714285L10.12142857142857,9.05z" stroke="none"/><path d="M3.05,4.5L2.95,4.5L2.95,3.3785714285714286L3.1642857142857146,3.3785714285714286L3.1642857142857146,3.1642857142857146L3.8071428571428574,3.1642857142857146L3.8071428571428574,2.95L4.021428571428571,2.95L4.021428571428571,2.521428571428572L5.0928571428571425,2.521428571428572L5.0928571428571425,2.3071428571428574L11.62142857142857,2.3071428571428574L11.62142857142857,2.521428571428572L12.05,2.521428571428572L12.05,3L11.95,3L11.95,2.6214285714285714L11.521428571428569,2.6214285714285714L11.521428571428569,2.407142857142857L5.192857142857142,2.407142857142857L5.192857142857142,2.6214285714285714L4.121428571428571,2.6214285714285714L4.121428571428571,3.05L3.907142857142857,3.05L3.907142857142857,3.2642857142857142L3.2642857142857142,3.2642857142857142L3.2642857142857142,3.478571428571428L3.05,3.478571428571428z" stroke="none"/><path d="M4.55,6L4.45,6L4.45,5.0928571428571425L4.664285714285715,5.0928571428571425L4.664285714285715,4.878571428571429L4.878571428571429,4.878571428571429L4.878571428571429,4.121428571428571L3.6928571428571426,4.121428571428571L3.6928571428571426,4.764285714285714L3.478571428571428,4.764285714285714L3.478571428571428,4.978571428571429L2.521428571428572,4.978571428571429L2.521428571428572,3.8071428571428574L2.7357142857142858,3.8071428571428574L2.7357142857142858,3.1642857142857146L2.95,3.1642857142857146L2.95,2.95L3.592857142857143,2.95L3.592857142857143,2.521428571428572L3.8071428571428574,2.521428571428572L3.8071428571428574,2.3071428571428574L4.664285714285715,2.3071428571428574L4.664285714285715,2.092857142857143L12.478571428571428,2.092857142857143L12.478571428571428,2.7357142857142858L12.907142857142858,2.7357142857142858L12.907142857142858,2.95L13.5,2.95L13.5,3.05L12.807142857142857,3.05L12.807142857142857,2.8357142857142854L12.378571428571426,2.8357142857142854L12.378571428571426,2.1928571428571426L4.764285714285714,2.1928571428571426L4.764285714285714,2.407142857142857L3.907142857142857,2.407142857142857L3.907142857142857,2.6214285714285714L3.6928571428571426,2.6214285714285714L3.6928571428571426,3.05L3.05,3.05L3.05,3.2642857142857142L2.8357142857142854,3.2642857142857142L2.8357142857142854,3.907142857142857L2.6214285714285714,3.907142857142857L2.6214285714285714,4.878571428571429L3.3785714285714286,4.878571428571429L3.3785714285714286,4.664285714285715L3.592857142857143,4.664285714285715L3.592857142857143,4.021428571428571L4.978571428571429,4.021428571428571L4.978571428571429,4.978571428571429L4.764285714285714,4.978571428571429L4.764285714285714,5.192857142857142L4.55,5.192857142857142z" stroke="none"/><path d="M25.5,11.95L25.5,12.05L20.09285714285714,12.05L20.09285714285714,11.835714285714285L19.878571428571426,11.835714285714285L19.878571428571426,11.62142857142857L15.264285714285716,11.62142857142857L15.264285714285716,11.835714285714285L15.05,11.835714285714285L15.05,12L14.95,12L14.95,11.735714285714284L15.164285714285715,11.735714285714284L15.164285714285715,11.521428571428569L19.978571428571428,11.521428571428569L19.978571428571428,11.735714285714284L20.192857142857143,11.735714285714284L20.192857142857143,11.95z" stroke="none"/><path d="M16.5,12.05L16.5,11.95L18.90714285714286,11.95L18.90714285714286,12.164285714285715L19.121428571428574,12.164285714285715L19.121428571428574,12.378571428571426L20.621428571428574,12.378571428571426L20.621428571428574,12.592857142857142L27.59285714285714,12.592857142857142L27.59285714285714,9.907142857142858L27.164285714285715,9.907142857142858L27.164285714285715,9.05L27,9.05L27,8.95L27.264285714285716,8.95L27.264285714285716,9.807142857142857L27.692857142857143,9.807142857142857L27.692857142857143,12.692857142857143L20.521428571428572,12.692857142857143L20.521428571428572,12.478571428571428L19.021428571428572,12.478571428571428L19.021428571428572,12.264285714285716L18.807142857142857,12.264285714285716L18.807142857142857,12.05z" stroke="none"/><path d="M26.95,6L27.05,6L27.05,6.5928571428571425L27.264285714285716,6.5928571428571425L27.264285714285716,6.807142857142857L27.478571428571428,6.807142857142857L27.478571428571428,9.378571428571426L27.90714285714286,9.378571428571426L27.90714285714286,12.907142857142858L15.592857142857142,12.907142857142858L15.592857142857142,12.692857142857143L14.95,12.692857142857143L14.95,12.478571428571428L14.521428571428569,12.478571428571428L14.521428571428569,11.521428571428569L14.95,11.521428571428569L14.95,11.307142857142857L16.235714285714284,11.307142857142857L16.235714285714284,10.664285714285715L16.45,10.664285714285715L16.45,10.5L16.55,10.5L16.55,10.764285714285716L16.335714285714285,10.764285714285716L16.335714285714285,11.407142857142858L15.05,11.407142857142858L15.05,11.62142857142857L14.62142857142857,11.62142857142857L14.62142857142857,12.378571428571426L15.05,12.378571428571426L15.05,12.592857142857142L15.692857142857143,12.592857142857142L15.692857142857143,12.807142857142857L27.807142857142857,12.807142857142857L27.807142857142857,9.478571428571428L27.378571428571426,9.478571428571428L27.378571428571426,6.907142857142857L27.164285714285715,6.907142857142857L27.164285714285715,6.692857142857142L26.95,6.692857142857142z" stroke="none"/><path d="M15.05,3L14.95,3L14.95,2.6214285714285714L13.45,2.6214285714285714L13.45,2.1928571428571426L12.592857142857142,2.1928571428571426L12.592857142857142,1.9785714285714286L3.6928571428571426,1.9785714285714286L3.6928571428571426,2.1928571428571426L3.478571428571428,2.1928571428571426L3.478571428571428,2.8357142857142854L2.8357142857142854,2.8357142857142854L2.8357142857142854,3.05L2.6214285714285714,3.05L2.6214285714285714,3.6928571428571426L2.407142857142857,3.6928571428571426L2.407142857142857,12.378571428571426L3.3785714285714286,12.378571428571426L3.3785714285714286,10.235714285714284L3.592857142857143,10.235714285714284L3.592857142857143,9.164285714285715L4.021428571428571,9.164285714285715L4.021428571428571,7.878571428571428L4.45,7.878571428571428L4.45,7.5L4.55,7.5L4.55,7.978571428571428L4.121428571428571,7.978571428571428L4.121428571428571,9.264285714285716L3.6928571428571426,9.264285714285716L3.6928571428571426,10.335714285714285L3.478571428571428,10.335714285714285L3.478571428571428,12.478571428571428L2.3071428571428574,12.478571428571428L2.3071428571428574,3.592857142857143L2.521428571428572,3.592857142857143L2.521428571428572,2.95L2.7357142857142858,2.95L2.7357142857142858,2.7357142857142858L3.3785714285714286,2.7357142857142858L3.3785714285714286,2.092857142857143L3.592857142857143,2.092857142857143L3.592857142857143,1.8785714285714286L12.692857142857143,1.8785714285714286L12.692857142857143,2.092857142857143L13.55,2.092857142857143L13.55,2.521428571428572L15.05,2.521428571428572z" stroke="none"/><path d="M5.95,7.5L6.05,7.5L6.05,7.764285714285714L5.407142857142857,7.764285714285714L5.407142857142857,8.62142857142857L5.192857142857142,8.62142857142857L5.192857142857142,9.05L4.335714285714285,9.05L4.335714285714285,10.12142857142857L4.121428571428571,10.12142857142857L4.121428571428571,12.478571428571428L3.907142857142857,12.478571428571428L3.907142857142857,12.692857142857143L2.092857142857143,12.692857142857143L2.092857142857143,3.1642857142857146L2.3071428571428574,3.1642857142857146L2.3071428571428574,2.7357142857142858L2.521428571428572,2.7357142857142858L2.521428571428572,2.521428571428572L3.1642857142857146,2.521428571428572L3.1642857142857146,1.8785714285714286L3.3785714285714286,1.8785714285714286L3.3785714285714286,1.6642857142857144L14.835714285714285,1.6642857142857144L14.835714285714285,2.3071428571428574L15.264285714285716,2.3071428571428574L15.264285714285716,2.521428571428572L15.478571428571428,2.521428571428572L15.478571428571428,3.478571428571428L15.264285714285716,3.478571428571428L15.264285714285716,3.907142857142857L14.835714285714285,3.907142857142857L14.835714285714285,4.121428571428571L14.62142857142857,4.121428571428571L14.62142857142857,6.378571428571428L17.95,6.378571428571428L17.95,6L18.05,6L18.05,6.478571428571428L14.521428571428569,6.478571428571428L14.521428571428569,4.021428571428571L14.735714285714284,4.021428571428571L14.735714285714284,3.8071428571428574L15.164285714285715,3.8071428571428574L15.164285714285715,3.3785714285714286L15.378571428571426,3.3785714285714286L15.378571428571426,2.6214285714285714L15.164285714285715,2.6214285714285714L15.164285714285715,2.407142857142857L14.735714285714284,2.407142857142857L14.735714285714284,1.7642857142857145L3.478571428571428,1.7642857142857145L3.478571428571428,1.9785714285714286L3.2642857142857142,1.9785714285714286L3.2642857142857142,2.6214285714285714L2.6214285714285714,2.6214285714285714L2.6214285714285714,2.8357142857142854L2.407142857142857,2.8357142857142854L2.407142857142857,3.2642857142857142L2.1928571428571426,3.2642857142857142L2.1928571428571426,12.592857142857142L3.8071428571428574,12.592857142857142L3.8071428571428574,12.378571428571426L4.021428571428571,12.378571428571426L4.021428571428571,10.021428571428569L4.235714285714286,10.021428571428569L4.235714285714286,8.95L5.0928571428571425,8.95L5.0928571428571425,8.521428571428569L5.307142857142857,8.521428571428569L5.307142857142857,7.664285714285715L5.95,7.664285714285715z" stroke="none"/><path d="M10.5,12.05L10.5,11.95L11.62142857142857,11.95L11.62142857142857,12.378571428571426L13.45,12.378571428571426L13.45,12.164285714285715L13.664285714285715,12.164285714285715L13.664285714285715,11.95L14.092857142857142,11.95L14.092857142857142,11.521428571428569L14.307142857142857,11.521428571428569L14.307142857142857,11.307142857142857L14.735714285714284,11.307142857142857L14.735714285714284,11.092857142857142L15.378571428571426,11.092857142857142L15.378571428571426,10.664285714285715L15.592857142857142,10.664285714285715L15.592857142857142,10.45L15.807142857142857,10.45L15.807142857142857,10.021428571428569L16.978571428571428,10.021428571428569L16.978571428571428,10.878571428571426L22.235714285714284,10.878571428571426L22.235714285714284,10.664285714285715L22.45,10.664285714285715L22.45,10.5L22.55,10.5L22.55,10.764285714285716L22.335714285714285,10.764285714285716L22.335714285714285,10.978571428571428L16.878571428571426,10.978571428571428L16.878571428571426,10.12142857142857L15.907142857142858,10.12142857142857L15.907142857142858,10.55L15.692857142857143,10.55L15.692857142857143,10.764285714285716L15.478571428571428,10.764285714285716L15.478571428571428,11.192857142857143L14.835714285714285,11.192857142857143L14.835714285714285,11.407142857142858L14.407142857142858,11.407142857142858L14.407142857142858,11.62142857142857L14.192857142857143,11.62142857142857L14.192857142857143,12.05L13.764285714285716,12.05L13.764285714285716,12.264285714285716L13.55,12.264285714285716L13.55,12.478571428571428L11.521428571428569,12.478571428571428L11.521428571428569,12.05z" stroke="none"/></svg>