<svg version="1.1" width="30" height="15" xmlns="http://www.w3.org/2000/svg"><path d="M6.807142857142857,8.95L6.807142857142857,8.307142857142857L7.664285714285715,8.307142857142857L7.664285714285715,8.092857142857142L8.735714285714284,8.092857142857142L8.735714285714284,7.664285714285715L8.95,7.664285714285715L8.95,7.5L9.05,7.5L9.05,7.764285714285714L8.835714285714285,7.764285714285714L8.835714285714285,8.192857142857143L7.764285714285714,8.192857142857143L7.764285714285714,8.407142857142858L6.907142857142857,8.407142857142858L6.907142857142857,8.95L7.121428571428571,8.95L7.121428571428571,9.378571428571426L8.735714285714284,9.378571428571426L8.735714285714284,8.95L9,8.95L9,9.05L8.835714285714285,9.05L8.835714285714285,9.478571428571428L7.021428571428571,9.478571428571428L7.021428571428571,9.05L5.407142857142857,9.05L5.407142857142857,9.264285714285716L5.192857142857142,9.264285714285716L5.192857142857142,9.478571428571428L3.6928571428571426,9.478571428571428L3.6928571428571426,9.692857142857143L3.478571428571428,9.692857142857143L3.478571428571428,10.12142857142857L3.2642857142857142,10.12142857142857L3.2642857142857142,10.55L3,10.55L3,10.45L3.1642857142857146,10.45L3.1642857142857146,10.021428571428569L3.3785714285714286,10.021428571428569L3.3785714285714286,9.592857142857142L3.592857142857143,9.592857142857142L3.592857142857143,9.378571428571426L5.0928571428571425,9.378571428571426L5.0928571428571425,9.164285714285715L5.307142857142857,9.164285714285715L5.307142857142857,8.95z" stroke="none"/><path d="M15.592857142857142,7.978571428571428L15.378571428571426,7.978571428571428L15.378571428571426,7.55L15,7.55L15,7.45L15.478571428571428,7.45L15.478571428571428,7.878571428571428L15.692857142857143,7.878571428571428L15.692857142857143,10.45L17.192857142857143,10.45L17.192857142857143,10.664285714285715L17.621428571428574,10.664285714285715L17.621428571428574,10.878571428571426L18.478571428571428,10.878571428571426L18.478571428571428,11.092857142857142L18.692857142857143,11.092857142857142L18.692857142857143,11.307142857142857L19.335714285714285,11.307142857142857L19.335714285714285,11.95L19.5,11.95L19.5,12.05L19.235714285714284,12.05L19.235714285714284,11.407142857142858L18.59285714285714,11.407142857142858L18.59285714285714,11.192857142857143L18.378571428571426,11.192857142857143L18.378571428571426,10.978571428571428L17.521428571428572,10.978571428571428L17.521428571428572,10.764285714285716L17.09285714285714,10.764285714285716L17.09285714285714,10.55L15.692857142857143,10.55L15.692857142857143,10.764285714285716L15.478571428571428,10.764285714285716L15.478571428571428,10.978571428571428L10.764285714285716,10.978571428571428L10.764285714285716,11.407142857142858L10.55,11.407142857142858L10.55,12L10.45,12L10.45,11.307142857142857L10.664285714285715,11.307142857142857L10.664285714285715,10.878571428571426L15.378571428571426,10.878571428571426L15.378571428571426,10.664285714285715L15.592857142857142,10.664285714285715z" stroke="none"/><path d="M26.95,7.878571428571428L26.95,7.5L27.05,7.5L27.05,7.978571428571428L23.40714285714286,7.978571428571428L23.40714285714286,9.164285714285715L23.62142857142857,9.164285714285715L23.62142857142857,9.378571428571426L24.05,9.378571428571426L24.05,9.807142857142857L24.692857142857143,9.807142857142857L24.692857142857143,10.235714285714284L25.335714285714285,10.235714285714284L25.335714285714285,10.45L25.5,10.45L25.5,10.55L25.235714285714284,10.55L25.235714285714284,10.335714285714285L24.59285714285714,10.335714285714285L24.59285714285714,9.907142857142858L23.95,9.907142857142858L23.95,9.478571428571428L23.52142857142857,9.478571428571428L23.52142857142857,9.264285714285716L23.307142857142857,9.264285714285716L23.307142857142857,7.978571428571428L22.021428571428572,7.978571428571428L22.021428571428572,7.764285714285714L21.59285714285714,7.764285714285714L21.59285714285714,7.335714285714285L21.378571428571426,7.335714285714285L21.378571428571426,6.907142857142857L18.59285714285714,6.907142857142857L18.59285714285714,6.692857142857142L18.164285714285715,6.692857142857142L18.164285714285715,6.05L18,6.05L18,5.95L18.264285714285716,5.95L18.264285714285716,6.5928571428571425L18.692857142857143,6.5928571428571425L18.692857142857143,6.807142857142857L21.478571428571428,6.807142857142857L21.478571428571428,7.235714285714286L21.692857142857143,7.235714285714286L21.692857142857143,7.664285714285715L22.121428571428574,7.664285714285715L22.121428571428574,7.878571428571428z" stroke="none"/><path d="M4.021428571428571,5.307142857142857L4.021428571428571,5.192857142857142L3.05,5.192857142857142L3.05,5.407142857142857L2.8357142857142854,5.407142857142857L2.8357142857142854,7.235714285714286L3.05,7.235714285714286L3.05,7.5L2.95,7.5L2.95,7.335714285714285L2.7357142857142858,7.335714285714285L2.7357142857142858,5.307142857142857L2.95,5.307142857142857L2.95,5.0928571428571425L4.121428571428571,5.0928571428571425L4.121428571428571,5.307142857142857L4.235714285714286,5.307142857142857L4.235714285714286,5.0928571428571425L4.664285714285715,5.0928571428571425L4.664285714285715,4.878571428571429L4.878571428571429,4.878571428571429L4.878571428571429,4.45L5.0928571428571425,4.45L5.0928571428571425,4.235714285714286L5.307142857142857,4.235714285714286L5.307142857142857,4.021428571428571L5.95,4.021428571428571L5.95,3L6.05,3L6.05,4.121428571428571L5.407142857142857,4.121428571428571L5.407142857142857,4.335714285714285L5.192857142857142,4.335714285714285L5.192857142857142,4.55L4.978571428571429,4.55L4.978571428571429,4.978571428571429L4.764285714285714,4.978571428571429L4.764285714285714,5.192857142857142L4.335714285714285,5.192857142857142L4.335714285714285,5.407142857142857L4.121428571428571,5.407142857142857L4.121428571428571,5.521428571428571L4.335714285714285,5.521428571428571L4.335714285714285,5.95L4.5,5.95L4.5,6.05L4.235714285714286,6.05L4.235714285714286,5.621428571428571L4.021428571428571,5.621428571428571L4.021428571428571,5.407142857142857L3.6928571428571426,5.407142857142857L3.6928571428571426,5.621428571428571L3.2642857142857142,5.621428571428571L3.2642857142857142,6.05L3,6.05L3,5.95L3.1642857142857146,5.95L3.1642857142857146,5.521428571428571L3.592857142857143,5.521428571428571L3.592857142857143,5.307142857142857z" stroke="none"/><path d="M17.521428571428572,4.664285714285715L17.521428571428572,3.3785714285714286L17.735714285714284,3.3785714285714286L17.735714285714284,2.95L18,2.95L18,3.05L17.835714285714285,3.05L17.835714285714285,3.478571428571428L17.621428571428574,3.478571428571428L17.621428571428574,4.664285714285715L19.121428571428574,4.664285714285715L19.121428571428574,4.878571428571429L22.978571428571428,4.878571428571429L22.978571428571428,5.0928571428571425L23.192857142857143,5.0928571428571425L23.192857142857143,5.521428571428571L23.62142857142857,5.521428571428571L23.62142857142857,5.735714285714286L23.835714285714285,5.735714285714286L23.835714285714285,5.95L24,5.95L24,6.05L23.735714285714284,6.05L23.735714285714284,5.835714285714285L23.52142857142857,5.835714285714285L23.52142857142857,5.621428571428571L23.09285714285714,5.621428571428571L23.09285714285714,5.192857142857142L22.878571428571426,5.192857142857142L22.878571428571426,4.978571428571429L19.021428571428572,4.978571428571429L19.021428571428572,4.764285714285714L17.621428571428574,4.764285714285714L17.621428571428574,4.978571428571429L15.592857142857142,4.978571428571429L15.592857142857142,4.121428571428571L14.62142857142857,4.121428571428571L14.62142857142857,4.978571428571429L14.407142857142858,4.978571428571429L14.407142857142858,5.621428571428571L12.478571428571428,5.621428571428571L12.478571428571428,6.05L12,6.05L12,5.95L12.378571428571426,5.95L12.378571428571426,5.521428571428571L14.307142857142857,5.521428571428571L14.307142857142857,4.878571428571429L14.521428571428569,4.878571428571429L14.521428571428569,4.021428571428571L15.692857142857143,4.021428571428571L15.692857142857143,4.878571428571429L17.521428571428572,4.878571428571429L17.521428571428572,4.764285714285714L16.45,4.764285714285714L16.45,4.5L16.55,4.5L16.55,4.664285714285715z" stroke="none"/><path d="M12.164285714285715,6.5928571428571425L12.164285714285715,6.378571428571428L14.521428571428569,6.378571428571428L14.521428571428569,5.307142857142857L14.735714285714284,5.307142857142857L14.735714285714284,4.45L15,4.45L15,4.55L14.835714285714285,4.55L14.835714285714285,5.407142857142857L14.62142857142857,5.407142857142857L14.62142857142857,6.478571428571428L12.264285714285716,6.478571428571428L12.264285714285716,6.5928571428571425L12.478571428571428,6.5928571428571425L12.478571428571428,7.235714285714286L12.692857142857143,7.235714285714286L12.692857142857143,7.45L12.907142857142858,7.45L12.907142857142858,7.664285714285715L13.12142857142857,7.664285714285715L13.12142857142857,7.878571428571428L13.335714285714285,7.878571428571428L13.335714285714285,8.092857142857142L13.55,8.092857142857142L13.55,8.521428571428569L13.764285714285716,8.521428571428569L13.764285714285716,9.264285714285716L12.478571428571428,9.264285714285716L12.478571428571428,9.478571428571428L11.521428571428569,9.478571428571428L11.521428571428569,9.264285714285716L10.45,9.264285714285716L10.45,9L10.55,9L10.55,9.164285714285715L11.62142857142857,9.164285714285715L11.62142857142857,9.378571428571426L12.378571428571426,9.378571428571426L12.378571428571426,9.164285714285715L13.664285714285715,9.164285714285715L13.664285714285715,8.62142857142857L13.45,8.62142857142857L13.45,8.192857142857143L13.235714285714284,8.192857142857143L13.235714285714284,7.978571428571428L13.021428571428569,7.978571428571428L13.021428571428569,7.764285714285714L12.807142857142857,7.764285714285714L12.807142857142857,7.55L12.592857142857142,7.55L12.592857142857142,7.335714285714285L12.378571428571426,7.335714285714285L12.378571428571426,6.692857142857142L12.264285714285716,6.692857142857142L12.264285714285716,8.092857142857142L12.478571428571428,8.092857142857142L12.478571428571428,8.307142857142857L12.692857142857143,8.307142857142857L12.692857142857143,8.521428571428569L12.907142857142858,8.521428571428569L12.907142857142858,8.95L13.5,8.95L13.5,9.05L12.807142857142857,9.05L12.807142857142857,8.62142857142857L12.592857142857142,8.62142857142857L12.592857142857142,8.407142857142858L12.378571428571426,8.407142857142858L12.378571428571426,8.192857142857143L12.164285714285715,8.192857142857143L12.164285714285715,6.692857142857142L11.521428571428569,6.692857142857142L11.521428571428569,6.478571428571428L11.307142857142857,6.478571428571428L11.307142857142857,6.264285714285714L11.092857142857142,6.264285714285714L11.092857142857142,5.621428571428571L10.878571428571426,5.621428571428571L10.878571428571426,5.407142857142857L10.664285714285715,5.407142857142857L10.664285714285715,5.192857142857142L10.45,5.192857142857142L10.45,4.5L10.55,4.5L10.55,5.0928571428571425L10.764285714285716,5.0928571428571425L10.764285714285716,5.307142857142857L10.978571428571428,5.307142857142857L10.978571428571428,5.521428571428571L11.192857142857143,5.521428571428571L11.192857142857143,6.164285714285715L11.407142857142858,6.164285714285715L11.407142857142858,6.378571428571428L11.62142857142857,6.378571428571428L11.62142857142857,6.5928571428571425z" stroke="none"/><path d="M21,10.45L21,10.55L19.5,10.55L19.5,10.45z" stroke="none"/><path d="M9,11.95L9,12.05L7.5,12.05L7.5,11.95z" stroke="none"/><path d="M6.05,12L5.95,12L5.95,10.5L6.05,10.5z" stroke="none"/><path d="M18,8.95L18,9.05L16.5,9.05L16.5,8.95z" stroke="none"/><path d="M24,9.05L24,8.95L24.807142857142857,8.95L24.807142857142857,8.735714285714284L25.02142857142857,8.735714285714284L25.02142857142857,8.521428571428569L27.378571428571426,8.521428571428569L27.378571428571426,7.121428571428571L26.192857142857143,7.121428571428571L26.192857142857143,7.335714285714285L25.55,7.335714285714285L25.55,7.5L25.45,7.5L25.45,7.235714285714286L26.09285714285714,7.235714285714286L26.09285714285714,7.021428571428571L27.478571428571428,7.021428571428571L27.478571428571428,8.62142857142857L25.12142857142857,8.62142857142857L25.12142857142857,8.835714285714285L24.90714285714286,8.835714285714285L24.90714285714286,9.05z" stroke="none"/><path d="M9.05,4.5L8.95,4.5L8.95,4.021428571428571L9.592857142857142,4.021428571428571L9.592857142857142,3.8071428571428574L10.021428571428569,3.8071428571428574L10.021428571428569,3.3785714285714286L10.45,3.3785714285714286L10.45,3L10.55,3L10.55,3.478571428571428L10.12142857142857,3.478571428571428L10.12142857142857,3.907142857142857L9.692857142857143,3.907142857142857L9.692857142857143,4.121428571428571L9.05,4.121428571428571z" stroke="none"/><path d="M25.5,2.95L25.5,3.05L24.59285714285714,3.05L24.59285714285714,2.8357142857142854L24.378571428571426,2.8357142857142854L24.378571428571426,2.6214285714285714L23.62142857142857,2.6214285714285714L23.62142857142857,2.8357142857142854L23.40714285714286,2.8357142857142854L23.40714285714286,3.05L22.5,3.05L22.5,2.95L23.307142857142857,2.95L23.307142857142857,2.7357142857142858L23.52142857142857,2.7357142857142858L23.52142857142857,2.521428571428572L24.478571428571428,2.521428571428572L24.478571428571428,2.7357142857142858L24.692857142857143,2.7357142857142858L24.692857142857143,2.95z" stroke="none"/><path d="M12.05,4.5L11.95,4.5L11.95,4.335714285714285L11.521428571428569,4.335714285714285L11.521428571428569,4.121428571428571L10.12142857142857,4.121428571428571L10.12142857142857,7.235714285714286L10.55,7.235714285714286L10.55,7.5L10.45,7.5L10.45,7.335714285714285L10.021428571428569,7.335714285714285L10.021428571428569,4.021428571428571L11.62142857142857,4.021428571428571L11.62142857142857,4.235714285714286L12.05,4.235714285714286z" stroke="none"/><path d="M7.45,6L7.55,6L7.55,7.335714285714285L7.121428571428571,7.335714285714285L7.121428571428571,7.55L6.692857142857142,7.55L6.692857142857142,8.62142857142857L4.978571428571429,8.62142857142857L4.978571428571429,8.835714285714285L4.764285714285714,8.835714285714285L4.764285714285714,9.05L4.5,9.05L4.5,8.95L4.664285714285715,8.95L4.664285714285715,8.735714285714284L4.878571428571429,8.735714285714284L4.878571428571429,8.521428571428569L6.5928571428571425,8.521428571428569L6.5928571428571425,7.45L7.021428571428571,7.45L7.021428571428571,7.235714285714286L7.45,7.235714285714286z" stroke="none"/><path d="M7.5,9.05L7.5,8.95L8.307142857142857,8.95L8.307142857142857,8.521428571428569L11.62142857142857,8.521428571428569L11.62142857142857,8.95L12,8.95L12,9.05L11.521428571428569,9.05L11.521428571428569,8.62142857142857L8.407142857142858,8.62142857142857L8.407142857142858,9.05z" stroke="none"/><path d="M24,2.95L24,3.05L23.62142857142857,3.05L23.62142857142857,3.2642857142857142L22.978571428571428,3.2642857142857142L22.978571428571428,3.478571428571428L20.09285714285714,3.478571428571428L20.09285714285714,3.2642857142857142L19.664285714285715,3.2642857142857142L19.664285714285715,3.05L19.5,3.05L19.5,2.95L19.764285714285716,2.95L19.764285714285716,3.1642857142857146L20.192857142857143,3.1642857142857146L20.192857142857143,3.3785714285714286L22.878571428571426,3.3785714285714286L22.878571428571426,3.1642857142857146L23.52142857142857,3.1642857142857146L23.52142857142857,2.95z" stroke="none"/><path d="M19.5,7.45L19.5,7.55L18.164285714285715,7.55L18.164285714285715,7.335714285714285L17.307142857142857,7.335714285714285L17.307142857142857,7.121428571428571L14.62142857142857,7.121428571428571L14.62142857142857,8.307142857142857L14.835714285714285,8.307142857142857L14.835714285714285,8.735714285714284L15.05,8.735714285714284L15.05,9L14.95,9L14.95,8.835714285714285L14.735714285714284,8.835714285714285L14.735714285714284,8.407142857142858L14.521428571428569,8.407142857142858L14.521428571428569,7.021428571428571L17.40714285714286,7.021428571428571L17.40714285714286,7.235714285714286L18.264285714285716,7.235714285714286L18.264285714285716,7.45z" stroke="none"/><path d="M18,10.55L18,10.45L18.478571428571428,10.45L18.478571428571428,10.664285714285715L19.121428571428574,10.664285714285715L19.121428571428574,10.878571428571426L21.90714285714286,10.878571428571426L21.90714285714286,11.735714285714284L22.121428571428574,11.735714285714284L22.121428571428574,11.95L22.5,11.95L22.5,12.05L22.021428571428572,12.05L22.021428571428572,11.835714285714285L21.807142857142857,11.835714285714285L21.807142857142857,10.978571428571428L19.021428571428572,10.978571428571428L19.021428571428572,10.764285714285716L18.378571428571426,10.764285714285716L18.378571428571426,10.55z" stroke="none"/><path d="M4.5,4.45L4.5,4.55L3.907142857142857,4.55L3.907142857142857,4.764285714285714L3.05,4.764285714285714L3.05,4.978571428571429L2.8357142857142854,4.978571428571429L2.8357142857142854,5.192857142857142L2.6214285714285714,5.192857142857142L2.6214285714285714,8.092857142857142L2.8357142857142854,8.092857142857142L2.8357142857142854,8.307142857142857L3.05,8.307142857142857L3.05,9L2.95,9L2.95,8.407142857142858L2.7357142857142858,8.407142857142858L2.7357142857142858,8.192857142857143L2.521428571428572,8.192857142857143L2.521428571428572,5.0928571428571425L2.7357142857142858,5.0928571428571425L2.7357142857142858,4.878571428571429L2.95,4.878571428571429L2.95,4.664285714285715L3.8071428571428574,4.664285714285715L3.8071428571428574,4.45z" stroke="none"/><path d="M16.5,12.05L16.5,11.95L19.121428571428574,11.95L19.121428571428574,12.378571428571426L22.878571428571426,12.378571428571426L22.878571428571426,10.978571428571428L22.45,10.978571428571428L22.45,10.5L22.55,10.5L22.55,10.878571428571426L22.978571428571428,10.878571428571426L22.978571428571428,12.478571428571428L19.021428571428572,12.478571428571428L19.021428571428572,12.05z" stroke="none"/><path d="M27,2.95L27,3.05L26.62142857142857,3.05L26.62142857142857,3.2642857142857142L25.978571428571428,3.2642857142857142L25.978571428571428,3.478571428571428L23.192857142857143,3.478571428571428L23.192857142857143,3.6928571428571426L21.264285714285716,3.6928571428571426L21.264285714285716,3.907142857142857L21.05,3.907142857142857L21.05,4.121428571428571L19.764285714285716,4.121428571428571L19.764285714285716,4.55L19.5,4.55L19.5,4.45L19.664285714285715,4.45L19.664285714285715,4.021428571428571L20.95,4.021428571428571L20.95,3.8071428571428574L21.164285714285715,3.8071428571428574L21.164285714285715,3.592857142857143L23.09285714285714,3.592857142857143L23.09285714285714,3.3785714285714286L25.878571428571426,3.3785714285714286L25.878571428571426,3.1642857142857146L26.52142857142857,3.1642857142857146L26.52142857142857,2.95z" stroke="none"/><path d="M7.5,10.55L7.5,10.45L12.807142857142857,10.45L12.807142857142857,9.807142857142857L13.235714285714284,9.807142857142857L13.235714285714284,9.592857142857142L13.45,9.592857142857142L13.45,9.378571428571426L13.878571428571426,9.378571428571426L13.878571428571426,6.5928571428571425L14.735714285714284,6.5928571428571425L14.735714285714284,5.95L15,5.95L15,6.05L14.835714285714285,6.05L14.835714285714285,6.692857142857142L13.978571428571428,6.692857142857142L13.978571428571428,9.478571428571428L13.55,9.478571428571428L13.55,9.692857142857143L13.335714285714285,9.692857142857143L13.335714285714285,9.907142857142858L12.907142857142858,9.907142857142858L12.907142857142858,10.55z" stroke="none"/><path d="M12,3.05L12,2.95L14.521428571428569,2.95L14.521428571428569,2.521428571428572L19.978571428571428,2.521428571428572L19.978571428571428,2.95L21,2.95L21,3.05L19.878571428571426,3.05L19.878571428571426,2.6214285714285714L14.62142857142857,2.6214285714285714L14.62142857142857,3.05z" stroke="none"/><path d="M24,4.55L24,4.45L25.45,4.45L25.45,4.235714285714286L25.664285714285715,4.235714285714286L25.664285714285715,4.021428571428571L25.878571428571426,4.021428571428571L25.878571428571426,3.8071428571428574L27.164285714285715,3.8071428571428574L27.164285714285715,3.592857142857143L27.378571428571426,3.592857142857143L27.378571428571426,2.6214285714285714L25.235714285714284,2.6214285714285714L25.235714285714284,2.407142857142857L12.05,2.407142857142857L12.05,2.6214285714285714L11.62142857142857,2.6214285714285714L11.62142857142857,3.3785714285714286L14.521428571428569,3.3785714285714286L14.521428571428569,3.1642857142857146L14.95,3.1642857142857146L14.95,3L15.05,3L15.05,3.2642857142857142L14.62142857142857,3.2642857142857142L14.62142857142857,3.478571428571428L11.521428571428569,3.478571428571428L11.521428571428569,2.521428571428572L11.95,2.521428571428572L11.95,2.3071428571428574L25.335714285714285,2.3071428571428574L25.335714285714285,2.521428571428572L27.478571428571428,2.521428571428572L27.478571428571428,3.6928571428571426L27.264285714285716,3.6928571428571426L27.264285714285716,3.907142857142857L25.978571428571428,3.907142857142857L25.978571428571428,4.121428571428571L25.764285714285716,4.121428571428571L25.764285714285716,4.335714285714285L25.55,4.335714285714285L25.55,4.55z" stroke="none"/><path d="M15,10.45L15,10.55L14.521428571428569,10.55L14.521428571428569,8.835714285714285L14.307142857142857,8.835714285714285L14.307142857142857,6.807142857142857L16.878571428571426,6.807142857142857L16.878571428571426,6.5928571428571425L17.09285714285714,6.5928571428571425L17.09285714285714,5.735714285714286L17.307142857142857,5.735714285714286L17.307142857142857,5.521428571428571L22.121428571428574,5.521428571428571L22.121428571428574,5.735714285714286L22.55,5.735714285714286L22.55,5.95L22.978571428571428,5.95L22.978571428571428,6.164285714285715L23.192857142857143,6.164285714285715L23.192857142857143,6.807142857142857L23.835714285714285,6.807142857142857L23.835714285714285,7.235714285714286L24.05,7.235714285714286L24.05,7.5L23.95,7.5L23.95,7.335714285714285L23.735714285714284,7.335714285714285L23.735714285714284,6.907142857142857L23.09285714285714,6.907142857142857L23.09285714285714,6.264285714285714L22.878571428571426,6.264285714285714L22.878571428571426,6.05L22.45,6.05L22.45,5.835714285714285L22.021428571428572,5.835714285714285L22.021428571428572,5.621428571428571L17.40714285714286,5.621428571428571L17.40714285714286,5.835714285714285L17.192857142857143,5.835714285714285L17.192857142857143,6.692857142857142L16.978571428571428,6.692857142857142L16.978571428571428,6.907142857142857L14.407142857142858,6.907142857142857L14.407142857142858,8.735714285714284L14.62142857142857,8.735714285714284L14.62142857142857,10.45z" stroke="none"/><path d="M4.55,7.5L4.45,7.5L4.45,6.5928571428571425L4.664285714285715,6.5928571428571425L4.664285714285715,6.378571428571428L4.878571428571429,6.378571428571428L4.878571428571429,5.735714285714286L5.307142857142857,5.735714285714286L5.307142857142857,4.878571428571429L7.878571428571428,4.878571428571429L7.878571428571428,4.021428571428571L8.521428571428569,4.021428571428571L8.521428571428569,3.592857142857143L8.735714285714284,3.592857142857143L8.735714285714284,3.3785714285714286L8.95,3.3785714285714286L8.95,3.1642857142857146L9.164285714285715,3.1642857142857146L9.164285714285715,2.7357142857142858L10.021428571428569,2.7357142857142858L10.021428571428569,2.521428571428572L10.978571428571428,2.521428571428572L10.978571428571428,3.3785714285714286L11.407142857142858,3.3785714285714286L11.407142857142858,3.592857142857143L13.335714285714285,3.592857142857143L13.335714285714285,4.021428571428571L13.55,4.021428571428571L13.55,4.5L13.45,4.5L13.45,4.121428571428571L13.235714285714284,4.121428571428571L13.235714285714284,3.6928571428571426L11.307142857142857,3.6928571428571426L11.307142857142857,3.478571428571428L10.878571428571426,3.478571428571428L10.878571428571426,2.6214285714285714L10.12142857142857,2.6214285714285714L10.12142857142857,2.8357142857142854L9.264285714285716,2.8357142857142854L9.264285714285716,3.2642857142857142L9.05,3.2642857142857142L9.05,3.478571428571428L8.835714285714285,3.478571428571428L8.835714285714285,3.6928571428571426L8.62142857142857,3.6928571428571426L8.62142857142857,4.121428571428571L7.978571428571428,4.121428571428571L7.978571428571428,4.978571428571429L5.407142857142857,4.978571428571429L5.407142857142857,5.835714285714285L4.978571428571429,5.835714285714285L4.978571428571429,6.478571428571428L4.764285714285714,6.478571428571428L4.764285714285714,6.692857142857142L4.55,6.692857142857142z" stroke="none"/><path d="M13.5,10.45L13.5,10.55L13.335714285714285,10.55L13.335714285714285,10.764285714285716L7.978571428571428,10.764285714285716L7.978571428571428,10.978571428571428L7.335714285714285,10.978571428571428L7.335714285714285,11.407142857142858L7.121428571428571,11.407142857142858L7.121428571428571,11.835714285714285L6.692857142857142,11.835714285714285L6.692857142857142,12.05L6.478571428571428,12.05L6.478571428571428,12.478571428571428L3.592857142857143,12.478571428571428L3.592857142857143,12.05L3,12.05L3,11.95L3.6928571428571426,11.95L3.6928571428571426,12.378571428571426L6.378571428571428,12.378571428571426L6.378571428571428,11.95L6.5928571428571425,11.95L6.5928571428571425,11.735714285714284L7.021428571428571,11.735714285714284L7.021428571428571,11.307142857142857L7.235714285714286,11.307142857142857L7.235714285714286,10.878571428571426L7.878571428571428,10.878571428571426L7.878571428571428,10.664285714285715L13.235714285714284,10.664285714285715L13.235714285714284,10.45z" stroke="none"/><path d="M16.5,7.55L16.5,7.45L18.05,7.45L18.05,7.664285714285715L19.121428571428574,7.664285714285715L19.121428571428574,7.878571428571428L19.55,7.878571428571428L19.55,8.092857142857142L19.764285714285716,8.092857142857142L19.764285714285716,8.307142857142857L20.835714285714285,8.307142857142857L20.835714285714285,8.521428571428569L21.05,8.521428571428569L21.05,8.735714285714284L21.692857142857143,8.735714285714284L21.692857142857143,9.164285714285715L22.121428571428574,9.164285714285715L22.121428571428574,9.378571428571426L22.764285714285716,9.378571428571426L22.764285714285716,9.592857142857142L23.40714285714286,9.592857142857142L23.40714285714286,9.807142857142857L23.62142857142857,9.807142857142857L23.62142857142857,10.021428571428569L24.264285714285716,10.021428571428569L24.264285714285716,10.235714285714284L24.478571428571428,10.235714285714284L24.478571428571428,10.45L24.692857142857143,10.45L24.692857142857143,10.664285714285715L25.12142857142857,10.664285714285715L25.12142857142857,10.878571428571426L26.735714285714284,10.878571428571426L26.735714285714284,10.45L27,10.45L27,10.55L26.835714285714285,10.55L26.835714285714285,10.978571428571428L25.02142857142857,10.978571428571428L25.02142857142857,10.764285714285716L24.59285714285714,10.764285714285716L24.59285714285714,10.55L24.378571428571426,10.55L24.378571428571426,10.335714285714285L24.164285714285715,10.335714285714285L24.164285714285715,10.12142857142857L23.52142857142857,10.12142857142857L23.52142857142857,9.907142857142858L23.307142857142857,9.907142857142858L23.307142857142857,9.692857142857143L22.664285714285715,9.692857142857143L22.664285714285715,9.478571428571428L22.021428571428572,9.478571428571428L22.021428571428572,9.264285714285716L21.59285714285714,9.264285714285716L21.59285714285714,8.835714285714285L20.95,8.835714285714285L20.95,8.62142857142857L20.735714285714284,8.62142857142857L20.735714285714284,8.407142857142858L19.664285714285715,8.407142857142858L19.664285714285715,8.192857142857143L19.45,8.192857142857143L19.45,7.978571428571428L19.021428571428572,7.978571428571428L19.021428571428572,7.764285714285714L17.95,7.764285714285714L17.95,7.55z" stroke="none"/><path d="M25.5,9.05L25.5,8.95L26.62142857142857,8.95L26.62142857142857,9.164285714285715L26.835714285714285,9.164285714285715L26.835714285714285,9.378571428571426L27.478571428571428,9.378571428571426L27.478571428571428,10.978571428571428L27.05,10.978571428571428L27.05,11.192857142857143L24.264285714285716,11.192857142857143L24.264285714285716,11.407142857142858L24.05,11.407142857142858L24.05,11.835714285714285L23.835714285714285,11.835714285714285L23.835714285714285,12.264285714285716L23.62142857142857,12.264285714285716L23.62142857142857,12.692857142857143L13.45,12.692857142857143L13.45,12L13.55,12L13.55,12.592857142857142L23.52142857142857,12.592857142857142L23.52142857142857,12.164285714285715L23.735714285714284,12.164285714285715L23.735714285714284,11.735714285714284L23.95,11.735714285714284L23.95,11.307142857142857L24.164285714285715,11.307142857142857L24.164285714285715,11.092857142857142L26.95,11.092857142857142L26.95,10.878571428571426L27.378571428571426,10.878571428571426L27.378571428571426,9.478571428571428L26.735714285714284,9.478571428571428L26.735714285714284,9.264285714285716L26.52142857142857,9.264285714285716L26.52142857142857,9.05z" stroke="none"/></svg>