<svg version="1.1" width="30" height="15" xmlns="http://www.w3.org/2000/svg"><path d="M19.55,11.307142857142857L19.55,12L19.45,12L19.45,11.407142857142858L13.55,11.407142857142858L13.55,12L13.45,12L13.45,11.407142857142858L8.521428571428569,11.407142857142858L8.521428571428569,11.192857142857143L8.092857142857142,11.192857142857143L8.092857142857142,10.978571428571428L7.664285714285715,10.978571428571428L7.664285714285715,10.55L7.5,10.55L7.5,10.45L7.764285714285714,10.45L7.764285714285714,10.878571428571426L8.192857142857143,10.878571428571426L8.192857142857143,11.092857142857142L8.62142857142857,11.092857142857142L8.62142857142857,11.307142857142857z" stroke="none"/><path d="M7.878571428571428,3.6928571428571426L7.664285714285715,3.6928571428571426L7.664285714285715,3.05L7.5,3.05L7.5,2.95L7.764285714285714,2.95L7.764285714285714,3.592857142857143L7.978571428571428,3.592857142857143L7.978571428571428,4.878571428571429L8.62142857142857,4.878571428571429L8.62142857142857,5.95L9,5.95L9,6.05L8.521428571428569,6.05L8.521428571428569,4.978571428571429L7.978571428571428,4.978571428571429L7.978571428571428,5.621428571428571L7.764285714285714,5.621428571428571L7.764285714285714,5.835714285714285L7.55,5.835714285714285L7.55,6L7.45,6L7.45,5.735714285714286L7.664285714285715,5.735714285714286L7.664285714285715,5.521428571428571L7.878571428571428,5.521428571428571z" stroke="none"/><path d="M15.807142857142857,6.378571428571428L15.807142857142857,5.95L16.02142857142857,5.95L16.02142857142857,5.521428571428571L16.235714285714284,5.521428571428571L16.235714285714284,4.664285714285715L16.45,4.664285714285715L16.45,4.5L16.55,4.5L16.55,4.764285714285714L16.335714285714285,4.764285714285714L16.335714285714285,5.621428571428571L16.12142857142857,5.621428571428571L16.12142857142857,6.05L15.907142857142858,6.05L15.907142857142858,6.478571428571428L12.907142857142858,6.478571428571428L12.907142857142858,6.907142857142857L12.692857142857143,6.907142857142857L12.692857142857143,7.121428571428571L12.478571428571428,7.121428571428571L12.478571428571428,7.55L12,7.55L12,7.45L12.378571428571426,7.45L12.378571428571426,7.021428571428571L12.592857142857142,7.021428571428571L12.592857142857142,6.807142857142857L12.807142857142857,6.807142857142857L12.807142857142857,6.478571428571428L12.05,6.478571428571428L12.05,6.692857142857142L11.407142857142858,6.692857142857142L11.407142857142858,6.907142857142857L10.978571428571428,6.907142857142857L10.978571428571428,7.121428571428571L10.764285714285716,7.121428571428571L10.764285714285716,7.55L10.5,7.55L10.5,7.45L10.664285714285715,7.45L10.664285714285715,7.021428571428571L10.878571428571426,7.021428571428571L10.878571428571426,6.807142857142857L11.307142857142857,6.807142857142857L11.307142857142857,6.5928571428571425L11.95,6.5928571428571425L11.95,6.378571428571428z" stroke="none"/><path d="M5.95,6.5928571428571425L5.95,6L6.05,6L6.05,6.5928571428571425L9.592857142857142,6.5928571428571425L9.592857142857142,6.378571428571428L9.807142857142857,6.378571428571428L9.807142857142857,6.164285714285715L10.021428571428569,6.164285714285715L10.021428571428569,5.521428571428571L11.192857142857143,5.521428571428571L11.192857142857143,5.735714285714286L11.835714285714285,5.735714285714286L11.835714285714285,5.95L12,5.95L12,6.05L11.735714285714284,6.05L11.735714285714284,5.835714285714285L11.092857142857142,5.835714285714285L11.092857142857142,5.621428571428571L10.12142857142857,5.621428571428571L10.12142857142857,6.264285714285714L9.907142857142858,6.264285714285714L9.907142857142858,6.478571428571428L9.692857142857143,6.478571428571428L9.692857142857143,6.692857142857142L6.05,6.692857142857142L6.05,8.192857142857143L4.978571428571429,8.192857142857143L4.978571428571429,8.407142857142858L4.764285714285714,8.407142857142858L4.764285714285714,8.835714285714285L3.05,8.835714285714285L3.05,9L2.95,9L2.95,8.735714285714284L4.664285714285715,8.735714285714284L4.664285714285715,8.307142857142857L4.878571428571429,8.307142857142857L4.878571428571429,8.092857142857142L5.95,8.092857142857142L5.95,6.692857142857142L5.735714285714286,6.692857142857142L5.735714285714286,5.192857142857142L4.235714285714286,5.192857142857142L4.235714285714286,4.978571428571429L3.1642857142857146,4.978571428571429L3.1642857142857146,4.764285714285714L2.95,4.764285714285714L2.95,4.5L3.05,4.5L3.05,4.664285714285715L3.2642857142857142,4.664285714285715L3.2642857142857142,4.878571428571429L4.335714285714285,4.878571428571429L4.335714285714285,5.0928571428571425L5.835714285714285,5.0928571428571425L5.835714285714285,6.5928571428571425z" stroke="none"/><path d="M13.021428571428569,7.664285714285715L13.021428571428569,7.45L17.307142857142857,7.45L17.307142857142857,6.378571428571428L17.521428571428572,6.378571428571428L17.521428571428572,5.95L18,5.95L18,6.05L17.621428571428574,6.05L17.621428571428574,6.478571428571428L17.40714285714286,6.478571428571428L17.40714285714286,7.55L13.12142857142857,7.55L13.12142857142857,7.664285714285715L17.40714285714286,7.664285714285715L17.40714285714286,7.878571428571428L17.621428571428574,7.878571428571428L17.621428571428574,8.092857142857142L18.05,8.092857142857142L18.05,9L17.95,9L17.95,8.192857142857143L17.521428571428572,8.192857142857143L17.521428571428572,7.978571428571428L17.307142857142857,7.978571428571428L17.307142857142857,7.764285714285714L13.12142857142857,7.764285714285714L13.12142857142857,7.978571428571428L12.907142857142858,7.978571428571428L12.907142857142858,8.192857142857143L8.407142857142858,8.192857142857143L8.407142857142858,9.05L8.192857142857143,9.05L8.192857142857143,9.264285714285716L7.978571428571428,9.264285714285716L7.978571428571428,9.692857142857143L7.764285714285714,9.692857142857143L7.764285714285714,9.907142857142858L6.907142857142857,9.907142857142858L6.907142857142857,10.12142857142857L6.692857142857142,10.12142857142857L6.692857142857142,10.335714285714285L6.05,10.335714285714285L6.05,10.5L5.95,10.5L5.95,10.235714285714284L6.5928571428571425,10.235714285714284L6.5928571428571425,10.021428571428569L6.807142857142857,10.021428571428569L6.807142857142857,9.807142857142857L7.664285714285715,9.807142857142857L7.664285714285715,9.592857142857142L7.878571428571428,9.592857142857142L7.878571428571428,9.164285714285715L8.092857142857142,9.164285714285715L8.092857142857142,8.95L8.307142857142857,8.95L8.307142857142857,8.092857142857142L12.807142857142857,8.092857142857142L12.807142857142857,7.878571428571428L13.021428571428569,7.878571428571428L13.021428571428569,7.764285714285714L12.692857142857143,7.764285714285714L12.692857142857143,7.978571428571428L10.021428571428569,7.978571428571428L10.021428571428569,6.807142857142857L10.235714285714284,6.807142857142857L10.235714285714284,6.164285714285715L10.45,6.164285714285715L10.45,6L10.55,6L10.55,6.264285714285714L10.335714285714285,6.264285714285714L10.335714285714285,6.907142857142857L10.12142857142857,6.907142857142857L10.12142857142857,7.878571428571428L12.592857142857142,7.878571428571428L12.592857142857142,7.664285714285715z" stroke="none"/><path d="M23.52142857142857,9.592857142857142L23.52142857142857,9.378571428571426L24.378571428571426,9.378571428571426L24.378571428571426,9.164285714285715L24.807142857142857,9.164285714285715L24.807142857142857,8.95L25.02142857142857,8.95L25.02142857142857,8.307142857142857L25.45,8.307142857142857L25.45,8.092857142857142L25.878571428571426,8.092857142857142L25.878571428571426,7.664285714285715L26.09285714285714,7.664285714285715L26.09285714285714,7.45L26.52142857142857,7.45L26.52142857142857,7.235714285714286L27.264285714285716,7.235714285714286L27.264285714285716,10.021428571428569L27.478571428571428,10.021428571428569L27.478571428571428,11.835714285714285L27.264285714285716,11.835714285714285L27.264285714285716,12.05L27,12.05L27,11.95L27.164285714285715,11.95L27.164285714285715,11.735714285714284L27.378571428571426,11.735714285714284L27.378571428571426,10.12142857142857L27.164285714285715,10.12142857142857L27.164285714285715,7.335714285714285L26.62142857142857,7.335714285714285L26.62142857142857,7.55L26.192857142857143,7.55L26.192857142857143,7.764285714285714L25.978571428571428,7.764285714285714L25.978571428571428,8.192857142857143L25.55,8.192857142857143L25.55,8.407142857142858L25.12142857142857,8.407142857142858L25.12142857142857,9.05L24.90714285714286,9.05L24.90714285714286,9.264285714285716L24.478571428571428,9.264285714285716L24.478571428571428,9.478571428571428L23.62142857142857,9.478571428571428L23.62142857142857,9.592857142857142L24.807142857142857,9.592857142857142L24.807142857142857,9.378571428571426L25.02142857142857,9.378571428571426L25.02142857142857,9.164285714285715L25.45,9.164285714285715L25.45,8.735714285714284L25.664285714285715,8.735714285714284L25.664285714285715,8.307142857142857L26.09285714285714,8.307142857142857L26.09285714285714,8.092857142857142L26.307142857142857,8.092857142857142L26.307142857142857,7.878571428571428L26.735714285714284,7.878571428571428L26.735714285714284,7.45L27,7.45L27,7.55L26.835714285714285,7.55L26.835714285714285,7.978571428571428L26.40714285714286,7.978571428571428L26.40714285714286,8.192857142857143L26.192857142857143,8.192857142857143L26.192857142857143,8.407142857142858L25.764285714285716,8.407142857142858L25.764285714285716,8.835714285714285L25.55,8.835714285714285L25.55,9.264285714285716L25.12142857142857,9.264285714285716L25.12142857142857,9.478571428571428L24.90714285714286,9.478571428571428L24.90714285714286,9.692857142857143L23.62142857142857,9.692857142857143L23.62142857142857,10.978571428571428L22.55,10.978571428571428L22.55,11.192857142857143L21.90714285714286,11.192857142857143L21.90714285714286,11.62142857142857L21.478571428571428,11.62142857142857L21.478571428571428,12.05L21,12.05L21,11.95L21.378571428571426,11.95L21.378571428571426,11.521428571428569L21.807142857142857,11.521428571428569L21.807142857142857,11.092857142857142L22.45,11.092857142857142L22.45,10.878571428571426L23.52142857142857,10.878571428571426L23.52142857142857,9.692857142857143L20.735714285714284,9.692857142857143L20.735714285714284,9.478571428571428L20.521428571428572,9.478571428571428L20.521428571428572,8.62142857142857L20.307142857142857,8.62142857142857L20.307142857142857,8.407142857142858L19.878571428571426,8.407142857142858L19.878571428571426,7.764285714285714L19.664285714285715,7.764285714285714L19.664285714285715,7.55L19.5,7.55L19.5,7.45L19.764285714285716,7.45L19.764285714285716,7.664285714285715L19.978571428571428,7.664285714285715L19.978571428571428,8.307142857142857L20.40714285714286,8.307142857142857L20.40714285714286,8.521428571428569L20.621428571428574,8.521428571428569L20.621428571428574,9.378571428571426L20.835714285714285,9.378571428571426L20.835714285714285,9.592857142857142z" stroke="none"/><path d="M17.95,3L18.05,3L18.05,3.3785714285714286L18.90714285714286,3.3785714285714286L18.90714285714286,3.592857142857143L19.121428571428574,3.592857142857143L19.121428571428574,3.8071428571428574L19.335714285714285,3.8071428571428574L19.335714285714285,4.45L19.5,4.45L19.5,4.55L19.235714285714284,4.55L19.235714285714284,3.907142857142857L19.021428571428572,3.907142857142857L19.021428571428572,3.6928571428571426L18.807142857142857,3.6928571428571426L18.807142857142857,3.478571428571428L17.95,3.478571428571428z" stroke="none"/><path d="M13.55,10.5L13.45,10.5L13.45,9.692857142857143L12.807142857142857,9.692857142857143L12.807142857142857,9.264285714285716L12.592857142857142,9.264285714285716L12.592857142857142,9.05L12,9.05L12,8.95L12.692857142857143,8.95L12.692857142857143,9.164285714285715L12.907142857142858,9.164285714285715L12.907142857142858,9.592857142857142L13.55,9.592857142857142z" stroke="none"/><path d="M25.5,5.95L25.5,6.05L25.235714285714284,6.05L25.235714285714284,5.835714285714285L24.378571428571426,5.835714285714285L24.378571428571426,5.621428571428571L23.307142857142857,5.621428571428571L23.307142857142857,5.407142857142857L23.09285714285714,5.407142857142857L23.09285714285714,4.978571428571429L22.664285714285715,4.978571428571429L22.664285714285715,4.55L22.5,4.55L22.5,4.45L22.764285714285716,4.45L22.764285714285716,4.878571428571429L23.192857142857143,4.878571428571429L23.192857142857143,5.307142857142857L23.40714285714286,5.307142857142857L23.40714285714286,5.521428571428571L24.478571428571428,5.521428571428571L24.478571428571428,5.735714285714286L25.335714285714285,5.735714285714286L25.335714285714285,5.95z" stroke="none"/><path d="M9,9.05L9,8.95L11.521428571428569,8.95L11.521428571428569,8.521428571428569L12.907142857142858,8.521428571428569L12.907142857142858,8.735714285714284L13.55,8.735714285714284L13.55,9L13.45,9L13.45,8.835714285714285L12.807142857142857,8.835714285714285L12.807142857142857,8.62142857142857L11.62142857142857,8.62142857142857L11.62142857142857,9.05z" stroke="none"/><path d="M3.05,10.5L2.95,10.5L2.95,9.692857142857143L2.7357142857142858,9.692857142857143L2.7357142857142858,9.478571428571428L2.521428571428572,9.478571428571428L2.521428571428572,6.164285714285715L4.235714285714286,6.164285714285715L4.235714285714286,5.95L4.5,5.95L4.5,6.05L4.335714285714285,6.05L4.335714285714285,6.264285714285714L2.6214285714285714,6.264285714285714L2.6214285714285714,9.378571428571426L2.8357142857142854,9.378571428571426L2.8357142857142854,9.592857142857142L3.05,9.592857142857142z" stroke="none"/><path d="M10.5,11.95L10.5,12.05L6.164285714285715,12.05L6.164285714285715,11.835714285714285L5.521428571428571,11.835714285714285L5.521428571428571,9.807142857142857L5.95,9.807142857142857L5.95,9.164285714285715L6.5928571428571425,9.164285714285715L6.5928571428571425,8.735714285714284L6.807142857142857,8.735714285714284L6.807142857142857,8.521428571428569L7.021428571428571,8.521428571428569L7.021428571428571,8.307142857142857L7.235714285714286,8.307142857142857L7.235714285714286,8.092857142857142L7.45,8.092857142857142L7.45,7.878571428571428L8.521428571428569,7.878571428571428L8.521428571428569,7.664285714285715L8.735714285714284,7.664285714285715L8.735714285714284,7.45L9,7.45L9,7.55L8.835714285714285,7.55L8.835714285714285,7.764285714285714L8.62142857142857,7.764285714285714L8.62142857142857,7.978571428571428L7.55,7.978571428571428L7.55,8.192857142857143L7.335714285714285,8.192857142857143L7.335714285714285,8.407142857142858L7.121428571428571,8.407142857142858L7.121428571428571,8.62142857142857L6.907142857142857,8.62142857142857L6.907142857142857,8.835714285714285L6.692857142857142,8.835714285714285L6.692857142857142,9.264285714285716L6.05,9.264285714285716L6.05,9.907142857142858L5.621428571428571,9.907142857142858L5.621428571428571,11.735714285714284L6.264285714285714,11.735714285714284L6.264285714285714,11.95z" stroke="none"/><path d="M25.5,7.45L25.5,7.55L22.55,7.55L22.55,7.978571428571428L22.121428571428574,7.978571428571428L22.121428571428574,8.407142857142858L21.90714285714286,8.407142857142858L21.90714285714286,8.62142857142857L21.478571428571428,8.62142857142857L21.478571428571428,9.05L21,9.05L21,8.95L21.378571428571426,8.95L21.378571428571426,8.521428571428569L21.807142857142857,8.521428571428569L21.807142857142857,8.307142857142857L22.021428571428572,8.307142857142857L22.021428571428572,7.878571428571428L22.45,7.878571428571428L22.45,7.45z" stroke="none"/><path d="M22.5,11.95L22.5,12.05L21.692857142857143,12.05L21.692857142857143,12.264285714285716L21.478571428571428,12.264285714285716L21.478571428571428,12.478571428571428L20.521428571428572,12.478571428571428L20.521428571428572,11.62142857142857L19.664285714285715,11.62142857142857L19.664285714285715,11.192857142857143L18.59285714285714,11.192857142857143L18.59285714285714,10.55L18,10.55L18,10.45L18.692857142857143,10.45L18.692857142857143,11.092857142857142L19.764285714285716,11.092857142857142L19.764285714285716,11.521428571428569L20.621428571428574,11.521428571428569L20.621428571428574,12.378571428571426L21.378571428571426,12.378571428571426L21.378571428571426,12.164285714285715L21.59285714285714,12.164285714285715L21.59285714285714,11.95z" stroke="none"/><path d="M4.45,4.5L4.55,4.5L4.55,4.664285714285715L6.264285714285714,4.664285714285715L6.264285714285714,5.521428571428571L6.478571428571428,5.521428571428571L6.478571428571428,6.378571428571428L9.378571428571426,6.378571428571428L9.378571428571426,5.0928571428571425L9.592857142857142,5.0928571428571425L9.592857142857142,4.878571428571429L10.021428571428569,4.878571428571429L10.021428571428569,4.664285714285715L10.235714285714284,4.664285714285715L10.235714285714284,4.45L10.5,4.45L10.5,4.55L10.335714285714285,4.55L10.335714285714285,4.764285714285714L10.12142857142857,4.764285714285714L10.12142857142857,4.978571428571429L9.692857142857143,4.978571428571429L9.692857142857143,5.192857142857142L9.478571428571428,5.192857142857142L9.478571428571428,6.478571428571428L6.378571428571428,6.478571428571428L6.378571428571428,5.621428571428571L6.164285714285715,5.621428571428571L6.164285714285715,4.764285714285714L4.45,4.764285714285714z" stroke="none"/><path d="M12,4.55L12,4.45L12.807142857142857,4.45L12.807142857142857,4.235714285714286L13.021428571428569,4.235714285714286L13.021428571428569,4.021428571428571L17.192857142857143,4.021428571428571L17.192857142857143,4.235714285714286L17.40714285714286,4.235714285714286L17.40714285714286,4.45L18,4.45L18,4.55L17.307142857142857,4.55L17.307142857142857,4.335714285714285L17.09285714285714,4.335714285714285L17.09285714285714,4.121428571428571L13.12142857142857,4.121428571428571L13.12142857142857,4.335714285714285L12.907142857142858,4.335714285714285L12.907142857142858,4.55z" stroke="none"/><path d="M13.5,3.05L13.5,2.95L17.521428571428572,2.95L17.521428571428572,2.521428571428572L19.335714285714285,2.521428571428572L19.335714285714285,2.7357142857142858L19.55,2.7357142857142858L19.55,3L19.45,3L19.45,2.8357142857142854L19.235714285714284,2.8357142857142854L19.235714285714284,2.6214285714285714L17.621428571428574,2.6214285714285714L17.621428571428574,3.05z" stroke="none"/><path d="M3,3.05L3,2.95L3.8071428571428574,2.95L3.8071428571428574,2.7357142857142858L4.021428571428571,2.7357142857142858L4.021428571428571,2.521428571428572L7.978571428571428,2.521428571428572L7.978571428571428,2.7357142857142858L8.192857142857143,2.7357142857142858L8.192857142857143,2.95L9,2.95L9,3.05L8.092857142857142,3.05L8.092857142857142,2.8357142857142854L7.878571428571428,2.8357142857142854L7.878571428571428,2.6214285714285714L4.121428571428571,2.6214285714285714L4.121428571428571,2.8357142857142854L3.907142857142857,2.8357142857142854L3.907142857142857,3.05z" stroke="none"/><path d="M4.5,2.95L4.5,3.05L4.121428571428571,3.05L4.121428571428571,3.2642857142857142L3.907142857142857,3.2642857142857142L3.907142857142857,3.478571428571428L2.521428571428572,3.478571428571428L2.521428571428572,2.521428571428572L3.8071428571428574,2.521428571428572L3.8071428571428574,2.3071428571428574L9.692857142857143,2.3071428571428574L9.692857142857143,2.521428571428572L10.55,2.521428571428572L10.55,3L10.45,3L10.45,2.6214285714285714L9.592857142857142,2.6214285714285714L9.592857142857142,2.407142857142857L3.907142857142857,2.407142857142857L3.907142857142857,2.6214285714285714L2.6214285714285714,2.6214285714285714L2.6214285714285714,3.3785714285714286L3.8071428571428574,3.3785714285714286L3.8071428571428574,3.1642857142857146L4.021428571428571,3.1642857142857146L4.021428571428571,2.95z" stroke="none"/><path d="M21,6.05L21,5.95L24.90714285714286,5.95L24.90714285714286,6.378571428571428L25.878571428571426,6.378571428571428L25.878571428571426,5.521428571428571L26.09285714285714,5.521428571428571L26.09285714285714,5.307142857142857L26.307142857142857,5.307142857142857L26.307142857142857,5.0928571428571425L26.52142857142857,5.0928571428571425L26.52142857142857,4.664285714285715L26.95,4.664285714285715L26.95,4.5L27.05,4.5L27.05,4.764285714285714L26.62142857142857,4.764285714285714L26.62142857142857,5.192857142857142L26.40714285714286,5.192857142857142L26.40714285714286,5.407142857142857L26.192857142857143,5.407142857142857L26.192857142857143,5.621428571428571L25.978571428571428,5.621428571428571L25.978571428571428,6.478571428571428L24.807142857142857,6.478571428571428L24.807142857142857,6.05z" stroke="none"/><path d="M19.5,5.95L19.5,6.05L19.235714285714284,6.05L19.235714285714284,5.621428571428571L19.021428571428572,5.621428571428571L19.021428571428572,4.121428571428571L17.307142857142857,4.121428571428571L17.307142857142857,3.907142857142857L11.835714285714285,3.907142857142857L11.835714285714285,4.121428571428571L11.62142857142857,4.121428571428571L11.62142857142857,4.878571428571429L13.235714285714284,4.878571428571429L13.235714285714284,4.664285714285715L13.45,4.664285714285715L13.45,4.5L13.55,4.5L13.55,4.764285714285714L13.335714285714285,4.764285714285714L13.335714285714285,4.978571428571429L11.521428571428569,4.978571428571429L11.521428571428569,4.021428571428571L11.735714285714284,4.021428571428571L11.735714285714284,3.8071428571428574L17.40714285714286,3.8071428571428574L17.40714285714286,4.021428571428571L19.121428571428574,4.021428571428571L19.121428571428574,5.521428571428571L19.335714285714285,5.521428571428571L19.335714285714285,5.95z" stroke="none"/><path d="M21,4.45L21,4.55L20.835714285714285,4.55L20.835714285714285,5.621428571428571L20.621428571428574,5.621428571428571L20.621428571428574,6.692857142857142L19.764285714285716,6.692857142857142L19.764285714285716,6.907142857142857L19.55,6.907142857142857L19.55,7.121428571428571L19.121428571428574,7.121428571428571L19.121428571428574,9.478571428571428L17.307142857142857,9.478571428571428L17.307142857142857,9.264285714285716L16.664285714285715,9.264285714285716L16.664285714285715,9.05L16.5,9.05L16.5,8.95L16.764285714285716,8.95L16.764285714285716,9.164285714285715L17.40714285714286,9.164285714285715L17.40714285714286,9.378571428571426L19.021428571428572,9.378571428571426L19.021428571428572,7.021428571428571L19.45,7.021428571428571L19.45,6.807142857142857L19.664285714285715,6.807142857142857L19.664285714285715,6.5928571428571425L20.521428571428572,6.5928571428571425L20.521428571428572,5.521428571428571L20.735714285714284,5.521428571428571L20.735714285714284,4.45z" stroke="none"/><path d="M21,7.55L21,7.45L22.235714285714284,7.45L22.235714285714284,7.235714285714286L25.02142857142857,7.235714285714286L25.02142857142857,6.807142857142857L25.664285714285715,6.807142857142857L25.664285714285715,6.5928571428571425L26.09285714285714,6.5928571428571425L26.09285714285714,5.95L26.307142857142857,5.95L26.307142857142857,5.735714285714286L26.52142857142857,5.735714285714286L26.52142857142857,5.307142857142857L26.735714285714284,5.307142857142857L26.735714285714284,5.0928571428571425L27.164285714285715,5.0928571428571425L27.164285714285715,4.878571428571429L27.378571428571426,4.878571428571429L27.378571428571426,3.05L27,3.05L27,2.95L27.478571428571428,2.95L27.478571428571428,4.978571428571429L27.264285714285716,4.978571428571429L27.264285714285716,5.192857142857142L26.835714285714285,5.192857142857142L26.835714285714285,5.407142857142857L26.62142857142857,5.407142857142857L26.62142857142857,5.835714285714285L26.40714285714286,5.835714285714285L26.40714285714286,6.05L26.192857142857143,6.05L26.192857142857143,6.692857142857142L25.764285714285716,6.692857142857142L25.764285714285716,6.907142857142857L25.12142857142857,6.907142857142857L25.12142857142857,7.335714285714285L22.335714285714285,7.335714285714285L22.335714285714285,7.55z" stroke="none"/><path d="M27,6.05L27,5.95L27.164285714285715,5.95L27.164285714285715,5.735714285714286L27.378571428571426,5.735714285714286L27.378571428571426,5.0928571428571425L27.59285714285714,5.0928571428571425L27.59285714285714,2.6214285714285714L21.264285714285716,2.6214285714285714L21.264285714285716,3.478571428571428L20.835714285714285,3.478571428571428L20.835714285714285,4.121428571428571L20.621428571428574,4.121428571428571L20.621428571428574,4.764285714285714L20.40714285714286,4.764285714285714L20.40714285714286,6.05L20.192857142857143,6.05L20.192857142857143,6.478571428571428L18.90714285714286,6.478571428571428L18.90714285714286,7.121428571428571L18.692857142857143,7.121428571428571L18.692857142857143,7.335714285714285L18.264285714285716,7.335714285714285L18.264285714285716,7.55L18,7.55L18,7.45L18.164285714285715,7.45L18.164285714285715,7.235714285714286L18.59285714285714,7.235714285714286L18.59285714285714,7.021428571428571L18.807142857142857,7.021428571428571L18.807142857142857,6.378571428571428L20.09285714285714,6.378571428571428L20.09285714285714,5.95L20.307142857142857,5.95L20.307142857142857,4.664285714285715L20.521428571428572,4.664285714285715L20.521428571428572,4.021428571428571L20.735714285714284,4.021428571428571L20.735714285714284,3.3785714285714286L21.164285714285715,3.3785714285714286L21.164285714285715,2.521428571428572L27.692857142857143,2.521428571428572L27.692857142857143,5.192857142857142L27.478571428571428,5.192857142857142L27.478571428571428,5.835714285714285L27.264285714285716,5.835714285714285L27.264285714285716,6.05z" stroke="none"/><path d="M6,2.95L6,3.05L5.621428571428571,3.05L5.621428571428571,3.478571428571428L4.55,3.478571428571428L4.55,3.6928571428571426L2.3071428571428574,3.6928571428571426L2.3071428571428574,2.3071428571428574L3.592857142857143,2.3071428571428574L3.592857142857143,2.092857142857143L10.764285714285716,2.092857142857143L10.764285714285716,2.521428571428572L10.978571428571428,2.521428571428572L10.978571428571428,4.664285714285715L11.407142857142858,4.664285714285715L11.407142857142858,5.0928571428571425L13.978571428571428,5.0928571428571425L13.978571428571428,5.521428571428571L14.62142857142857,5.521428571428571L14.62142857142857,5.95L15,5.95L15,6.05L14.521428571428569,6.05L14.521428571428569,5.621428571428571L13.878571428571426,5.621428571428571L13.878571428571426,5.192857142857142L11.307142857142857,5.192857142857142L11.307142857142857,4.764285714285714L10.878571428571426,4.764285714285714L10.878571428571426,2.6214285714285714L10.664285714285715,2.6214285714285714L10.664285714285715,2.1928571428571426L3.6928571428571426,2.1928571428571426L3.6928571428571426,2.407142857142857L2.407142857142857,2.407142857142857L2.407142857142857,3.592857142857143L4.45,3.592857142857143L4.45,3.3785714285714286L5.521428571428571,3.3785714285714286L5.521428571428571,2.95z" stroke="none"/><path d="M12.05,3L11.95,3L11.95,2.8357142857142854L11.735714285714284,2.8357142857142854L11.735714285714284,2.1928571428571426L10.878571428571426,2.1928571428571426L10.878571428571426,1.9785714285714286L2.1928571428571426,1.9785714285714286L2.1928571428571426,4.664285714285715L2.407142857142857,4.664285714285715L2.407142857142857,4.878571428571429L2.6214285714285714,4.878571428571429L2.6214285714285714,5.0928571428571425L4.121428571428571,5.0928571428571425L4.121428571428571,5.307142857142857L4.764285714285714,5.307142857142857L4.764285714285714,5.521428571428571L4.978571428571429,5.521428571428571L4.978571428571429,6.478571428571428L3.6928571428571426,6.478571428571428L3.6928571428571426,6.692857142857142L3.478571428571428,6.692857142857142L3.478571428571428,7.121428571428571L3.2642857142857142,7.121428571428571L3.2642857142857142,7.55L3,7.55L3,7.45L3.1642857142857146,7.45L3.1642857142857146,7.021428571428571L3.3785714285714286,7.021428571428571L3.3785714285714286,6.5928571428571425L3.592857142857143,6.5928571428571425L3.592857142857143,6.378571428571428L4.878571428571429,6.378571428571428L4.878571428571429,5.621428571428571L4.664285714285715,5.621428571428571L4.664285714285715,5.407142857142857L4.021428571428571,5.407142857142857L4.021428571428571,5.192857142857142L2.521428571428572,5.192857142857142L2.521428571428572,4.978571428571429L2.3071428571428574,4.978571428571429L2.3071428571428574,4.764285714285714L2.092857142857143,4.764285714285714L2.092857142857143,1.8785714285714286L10.978571428571428,1.8785714285714286L10.978571428571428,2.092857142857143L11.835714285714285,2.092857142857143L11.835714285714285,2.7357142857142858L12.05,2.7357142857142858z" stroke="none"/><path d="M4.5,12.05L4.5,11.95L5.621428571428571,11.95L5.621428571428571,12.164285714285715L10.12142857142857,12.164285714285715L10.12142857142857,12.378571428571426L10.878571428571426,12.378571428571426L10.878571428571426,11.62142857142857L7.45,11.62142857142857L7.45,10.978571428571428L7.021428571428571,10.978571428571428L7.021428571428571,10.021428571428569L11.192857142857143,10.021428571428569L11.192857142857143,10.235714285714284L11.407142857142858,10.235714285714284L11.407142857142858,10.45L12.478571428571428,10.45L12.478571428571428,10.664285714285715L12.692857142857143,10.664285714285715L12.692857142857143,10.878571428571426L14.521428571428569,10.878571428571426L14.521428571428569,10.45L15,10.45L15,10.55L14.62142857142857,10.55L14.62142857142857,10.978571428571428L12.592857142857142,10.978571428571428L12.592857142857142,10.764285714285716L12.378571428571426,10.764285714285716L12.378571428571426,10.55L11.307142857142857,10.55L11.307142857142857,10.335714285714285L11.092857142857142,10.335714285714285L11.092857142857142,10.12142857142857L7.121428571428571,10.12142857142857L7.121428571428571,10.878571428571426L7.55,10.878571428571426L7.55,11.521428571428569L10.978571428571428,11.521428571428569L10.978571428571428,12.478571428571428L10.021428571428569,12.478571428571428L10.021428571428569,12.264285714285716L5.521428571428571,12.264285714285716L5.521428571428571,12.05z" stroke="none"/><path d="M16.5,12.05L16.5,11.95L19.121428571428574,11.95L19.121428571428574,12.378571428571426L20.40714285714286,12.378571428571426L20.40714285714286,12.592857142857142L25.235714285714284,12.592857142857142L25.235714285714284,12.164285714285715L25.45,12.164285714285715L25.45,11.95L25.878571428571426,11.95L25.878571428571426,11.521428571428569L26.307142857142857,11.521428571428569L26.307142857142857,10.878571428571426L26.52142857142857,10.878571428571426L26.52142857142857,10.45L27,10.45L27,10.55L26.62142857142857,10.55L26.62142857142857,10.978571428571428L26.40714285714286,10.978571428571428L26.40714285714286,11.62142857142857L25.978571428571428,11.62142857142857L25.978571428571428,12.05L25.55,12.05L25.55,12.264285714285716L25.335714285714285,12.264285714285716L25.335714285714285,12.692857142857143L20.307142857142857,12.692857142857143L20.307142857142857,12.478571428571428L19.021428571428572,12.478571428571428L19.021428571428572,12.05z" stroke="none"/><path d="M22.5,10.45L22.5,10.55L18.807142857142857,10.55L18.807142857142857,10.335714285714285L18.378571428571426,10.335714285714285L18.378571428571426,10.12142857142857L17.621428571428574,10.12142857142857L17.621428571428574,10.335714285714285L17.40714285714286,10.335714285714285L17.40714285714286,10.978571428571428L15.05,10.978571428571428L15.05,11.192857142857143L10.664285714285715,11.192857142857143L10.664285714285715,10.764285714285716L10.45,10.764285714285716L10.45,10.5L10.55,10.5L10.55,10.664285714285715L10.764285714285716,10.664285714285715L10.764285714285716,11.092857142857142L14.95,11.092857142857142L14.95,10.878571428571426L17.307142857142857,10.878571428571426L17.307142857142857,10.235714285714284L17.521428571428572,10.235714285714284L17.521428571428572,10.021428571428569L18.478571428571428,10.021428571428569L18.478571428571428,10.235714285714284L18.90714285714286,10.235714285714284L18.90714285714286,10.45z" stroke="none"/><path d="M3,12.05L3,11.95L3.6928571428571426,11.95L3.6928571428571426,12.164285714285715L4.121428571428571,12.164285714285715L4.121428571428571,12.378571428571426L9.907142857142858,12.378571428571426L9.907142857142858,12.592857142857142L14.307142857142857,12.592857142857142L14.307142857142857,12.164285714285715L14.95,12.164285714285715L14.95,12L15.05,12L15.05,12.264285714285716L14.407142857142858,12.264285714285716L14.407142857142858,12.692857142857143L9.807142857142857,12.692857142857143L9.807142857142857,12.478571428571428L4.021428571428571,12.478571428571428L4.021428571428571,12.264285714285716L3.592857142857143,12.264285714285716L3.592857142857143,12.05z" stroke="none"/></svg>