<svg version="1.1" width="30" height="15" xmlns="http://www.w3.org/2000/svg"><path d="M23.95,10.878571428571426L23.95,10.5L24.05,10.5L24.05,10.978571428571428L20.40714285714286,10.978571428571428L20.40714285714286,11.735714285714284L20.621428571428574,11.735714285714284L20.621428571428574,11.95L21,11.95L21,12.05L20.521428571428572,12.05L20.521428571428572,11.835714285714285L20.307142857142857,11.835714285714285L20.307142857142857,10.978571428571428L17.307142857142857,10.978571428571428L17.307142857142857,10.764285714285716L16.664285714285715,10.764285714285716L16.664285714285715,10.55L16.5,10.55L16.5,10.45L16.764285714285716,10.45L16.764285714285716,10.664285714285715L17.40714285714286,10.664285714285715L17.40714285714286,10.878571428571426z" stroke="none"/><path d="M25.235714285714284,3.592857142857143L25.235714285714284,3.3785714285714286L26.735714285714284,3.3785714285714286L26.735714285714284,3.1642857142857146L26.95,3.1642857142857146L26.95,3L27.05,3L27.05,3.2642857142857142L26.835714285714285,3.2642857142857142L26.835714285714285,3.478571428571428L25.335714285714285,3.478571428571428L25.335714285714285,3.6928571428571426L24.05,3.6928571428571426L24.05,3.8071428571428574L25.764285714285716,3.8071428571428574L25.764285714285716,4.021428571428571L26.192857142857143,4.021428571428571L26.192857142857143,4.235714285714286L26.40714285714286,4.235714285714286L26.40714285714286,4.45L27,4.45L27,4.55L26.307142857142857,4.55L26.307142857142857,4.335714285714285L26.09285714285714,4.335714285714285L26.09285714285714,4.121428571428571L25.664285714285715,4.121428571428571L25.664285714285715,3.907142857142857L23.95,3.907142857142857L23.95,3.6928571428571426L18.59285714285714,3.6928571428571426L18.59285714285714,3.478571428571428L18.378571428571426,3.478571428571428L18.378571428571426,3.2642857142857142L18.164285714285715,3.2642857142857142L18.164285714285715,3.05L18,3.05L18,2.95L18.264285714285716,2.95L18.264285714285716,3.1642857142857146L18.478571428571428,3.1642857142857146L18.478571428571428,3.3785714285714286L18.692857142857143,3.3785714285714286L18.692857142857143,3.592857142857143z" stroke="none"/><path d="M11.95,7.45L11.95,7.335714285714285L11.735714285714284,7.335714285714285L11.735714285714284,7.121428571428571L10.45,7.121428571428571L10.45,6.692857142857142L9.807142857142857,6.692857142857142L9.807142857142857,6.478571428571428L9.378571428571426,6.478571428571428L9.378571428571426,5.407142857142857L8.092857142857142,5.407142857142857L8.092857142857142,5.192857142857142L7.45,5.192857142857142L7.45,4.5L7.55,4.5L7.55,5.0928571428571425L8.192857142857143,5.0928571428571425L8.192857142857143,5.307142857142857L9.478571428571428,5.307142857142857L9.478571428571428,6.378571428571428L9.907142857142858,6.378571428571428L9.907142857142858,6.5928571428571425L10.55,6.5928571428571425L10.55,7.021428571428571L11.835714285714285,7.021428571428571L11.835714285714285,7.235714285714286L12.05,7.235714285714286L12.05,7.45L12.692857142857143,7.45L12.692857142857143,7.664285714285715L13.12142857142857,7.664285714285715L13.12142857142857,7.878571428571428L16.978571428571428,7.878571428571428L16.978571428571428,8.092857142857142L18.692857142857143,8.092857142857142L18.692857142857143,8.307142857142857L18.90714285714286,8.307142857142857L18.90714285714286,8.521428571428569L19.121428571428574,8.521428571428569L19.121428571428574,8.735714285714284L19.335714285714285,8.735714285714284L19.335714285714285,8.95L19.5,8.95L19.5,9.05L19.235714285714284,9.05L19.235714285714284,8.835714285714285L19.021428571428572,8.835714285714285L19.021428571428572,8.62142857142857L18.807142857142857,8.62142857142857L18.807142857142857,8.407142857142858L18.59285714285714,8.407142857142858L18.59285714285714,8.192857142857143L16.878571428571426,8.192857142857143L16.878571428571426,7.978571428571428L13.021428571428569,7.978571428571428L13.021428571428569,7.764285714285714L12.592857142857142,7.764285714285714L12.592857142857142,7.55L11.835714285714285,7.55L11.835714285714285,7.764285714285714L11.407142857142858,7.764285714285714L11.407142857142858,7.978571428571428L11.192857142857143,7.978571428571428L11.192857142857143,8.192857142857143L10.978571428571428,8.192857142857143L10.978571428571428,8.62142857142857L9.692857142857143,8.62142857142857L9.692857142857143,8.835714285714285L9.478571428571428,8.835714285714285L9.478571428571428,9.05L9,9.05L9,8.95L9.378571428571426,8.95L9.378571428571426,8.735714285714284L9.592857142857142,8.735714285714284L9.592857142857142,8.521428571428569L10.878571428571426,8.521428571428569L10.878571428571426,8.092857142857142L11.092857142857142,8.092857142857142L11.092857142857142,7.878571428571428L11.307142857142857,7.878571428571428L11.307142857142857,7.664285714285715L11.735714285714284,7.664285714285715L11.735714285714284,7.45z" stroke="none"/><path d="M4.664285714285715,6.5928571428571425L4.664285714285715,6.264285714285714L4.45,6.264285714285714L4.45,6L4.55,6L4.55,6.164285714285715L4.764285714285714,6.164285714285715L4.764285714285714,6.5928571428571425L6.478571428571428,6.5928571428571425L6.478571428571428,6.807142857142857L6.907142857142857,6.807142857142857L6.907142857142857,7.021428571428571L7.55,7.021428571428571L7.55,7.5L7.45,7.5L7.45,7.121428571428571L6.807142857142857,7.121428571428571L6.807142857142857,6.907142857142857L6.378571428571428,6.907142857142857L6.378571428571428,6.692857142857142L4.764285714285714,6.692857142857142L4.764285714285714,7.021428571428571L4.978571428571429,7.021428571428571L4.978571428571429,8.407142857142858L4.764285714285714,8.407142857142858L4.764285714285714,8.62142857142857L4.55,8.62142857142857L4.55,9L4.45,9L4.45,8.521428571428569L4.664285714285715,8.521428571428569L4.664285714285715,8.307142857142857L4.878571428571429,8.307142857142857L4.878571428571429,7.121428571428571L4.664285714285715,7.121428571428571L4.664285714285715,6.692857142857142L4.45,6.692857142857142L4.45,6.478571428571428L4.235714285714286,6.478571428571428L4.235714285714286,5.407142857142857L4.021428571428571,5.407142857142857L4.021428571428571,4.764285714285714L3.3785714285714286,4.764285714285714L3.3785714285714286,4.55L3,4.55L3,4.45L3.478571428571428,4.45L3.478571428571428,4.664285714285715L4.121428571428571,4.664285714285715L4.121428571428571,5.307142857142857L4.335714285714285,5.307142857142857L4.335714285714285,6.378571428571428L4.55,6.378571428571428L4.55,6.5928571428571425z" stroke="none"/><path d="M18.164285714285715,9.164285714285715L18.164285714285715,9.05L16.764285714285716,9.05L16.764285714285716,9.264285714285716L16.55,9.264285714285716L16.55,9.478571428571428L16.12142857142857,9.478571428571428L16.12142857142857,9.692857142857143L15.907142857142858,9.692857142857143L15.907142857142858,11.735714285714284L16.12142857142857,11.735714285714284L16.12142857142857,11.95L16.335714285714285,11.95L16.335714285714285,12.164285714285715L20.621428571428574,12.164285714285715L20.621428571428574,12.378571428571426L21.378571428571426,12.378571428571426L21.378571428571426,12.164285714285715L22.021428571428572,12.164285714285715L22.021428571428572,11.95L22.878571428571426,11.95L22.878571428571426,11.735714285714284L23.307142857142857,11.735714285714284L23.307142857142857,11.521428571428569L23.52142857142857,11.521428571428569L23.52142857142857,11.307142857142857L24.164285714285715,11.307142857142857L24.164285714285715,11.092857142857142L24.807142857142857,11.092857142857142L24.807142857142857,10.45L25.5,10.45L25.5,10.55L24.90714285714286,10.55L24.90714285714286,11.192857142857143L24.264285714285716,11.192857142857143L24.264285714285716,11.407142857142858L23.62142857142857,11.407142857142858L23.62142857142857,11.62142857142857L23.40714285714286,11.62142857142857L23.40714285714286,11.835714285714285L22.978571428571428,11.835714285714285L22.978571428571428,12.05L22.121428571428574,12.05L22.121428571428574,12.264285714285716L21.478571428571428,12.264285714285716L21.478571428571428,12.478571428571428L20.521428571428572,12.478571428571428L20.521428571428572,12.264285714285716L16.235714285714284,12.264285714285716L16.235714285714284,12.05L16.02142857142857,12.05L16.02142857142857,11.835714285714285L15.807142857142857,11.835714285714285L15.807142857142857,9.592857142857142L16.02142857142857,9.592857142857142L16.02142857142857,9.378571428571426L16.45,9.378571428571426L16.45,9.164285714285715L16.664285714285715,9.164285714285715L16.664285714285715,8.95L18.264285714285716,8.95L18.264285714285716,9.164285714285715L19.121428571428574,9.164285714285715L19.121428571428574,9.378571428571426L19.878571428571426,9.378571428571426L19.878571428571426,8.407142857142858L19.664285714285715,8.407142857142858L19.664285714285715,8.192857142857143L19.021428571428572,8.192857142857143L19.021428571428572,7.978571428571428L17.95,7.978571428571428L17.95,7.5L18.05,7.5L18.05,7.878571428571428L19.121428571428574,7.878571428571428L19.121428571428574,8.092857142857142L19.764285714285716,8.092857142857142L19.764285714285716,8.307142857142857L19.978571428571428,8.307142857142857L19.978571428571428,9.478571428571428L19.021428571428572,9.478571428571428L19.021428571428572,9.264285714285716L18.264285714285716,9.264285714285716L18.264285714285716,9.378571428571426L18.90714285714286,9.378571428571426L18.90714285714286,9.592857142857142L20.09285714285714,9.592857142857142L20.09285714285714,8.192857142857143L19.878571428571426,8.192857142857143L19.878571428571426,7.978571428571428L19.45,7.978571428571428L19.45,7.764285714285714L18.59285714285714,7.764285714285714L18.59285714285714,7.55L18.164285714285715,7.55L18.164285714285715,7.335714285714285L15.264285714285716,7.335714285714285L15.264285714285716,7.55L13.5,7.55L13.5,7.45L15.164285714285715,7.45L15.164285714285715,7.235714285714286L18.264285714285716,7.235714285714286L18.264285714285716,7.45L18.692857142857143,7.45L18.692857142857143,7.664285714285715L19.55,7.664285714285715L19.55,7.878571428571428L19.978571428571428,7.878571428571428L19.978571428571428,8.092857142857142L20.192857142857143,8.092857142857142L20.192857142857143,9.692857142857143L18.807142857142857,9.692857142857143L18.807142857142857,9.478571428571428L18.164285714285715,9.478571428571428L18.164285714285715,9.264285714285716L17.192857142857143,9.264285714285716L17.192857142857143,9.478571428571428L16.978571428571428,9.478571428571428L16.978571428571428,9.692857142857143L16.55,9.692857142857143L16.55,10.12142857142857L16.12142857142857,10.12142857142857L16.12142857142857,11.521428571428569L16.335714285714285,11.521428571428569L16.335714285714285,11.735714285714284L16.55,11.735714285714284L16.55,12L16.45,12L16.45,11.835714285714285L16.235714285714284,11.835714285714285L16.235714285714284,11.62142857142857L16.02142857142857,11.62142857142857L16.02142857142857,10.021428571428569L16.45,10.021428571428569L16.45,9.592857142857142L16.878571428571426,9.592857142857142L16.878571428571426,9.378571428571426L17.09285714285714,9.378571428571426L17.09285714285714,9.164285714285715z" stroke="none"/><path d="M13.45,3.592857142857143L13.45,3.3785714285714286L16.664285714285715,3.3785714285714286L16.664285714285715,3.1642857142857146L17.09285714285714,3.1642857142857146L17.09285714285714,2.95L17.307142857142857,2.95L17.307142857142857,2.7357142857142858L17.521428571428572,2.7357142857142858L17.521428571428572,2.521428571428572L18.90714285714286,2.521428571428572L18.90714285714286,2.7357142857142858L19.121428571428574,2.7357142857142858L19.121428571428574,2.95L19.5,2.95L19.5,3.05L19.021428571428572,3.05L19.021428571428572,2.8357142857142854L18.807142857142857,2.8357142857142854L18.807142857142857,2.6214285714285714L17.621428571428574,2.6214285714285714L17.621428571428574,2.8357142857142854L17.40714285714286,2.8357142857142854L17.40714285714286,3.05L17.192857142857143,3.05L17.192857142857143,3.2642857142857142L16.764285714285716,3.2642857142857142L16.764285714285716,3.478571428571428L13.55,3.478571428571428L13.55,3.592857142857143L16.12142857142857,3.592857142857143L16.12142857142857,3.8071428571428574L16.335714285714285,3.8071428571428574L16.335714285714285,4.235714285714286L16.55,4.235714285714286L16.55,4.5L16.45,4.5L16.45,4.335714285714285L16.235714285714284,4.335714285714285L16.235714285714284,3.907142857142857L16.02142857142857,3.907142857142857L16.02142857142857,3.6928571428571426L13.55,3.6928571428571426L13.55,3.907142857142857L9.478571428571428,3.907142857142857L9.478571428571428,4.121428571428571L9.05,4.121428571428571L9.05,4.5L8.95,4.5L8.95,4.021428571428571L9.378571428571426,4.021428571428571L9.378571428571426,3.8071428571428574L13.45,3.8071428571428574L13.45,3.6928571428571426L9.378571428571426,3.6928571428571426L9.378571428571426,3.2642857142857142L8.95,3.2642857142857142L8.95,3L9.05,3L9.05,3.1642857142857146L9.478571428571428,3.1642857142857146L9.478571428571428,3.592857142857143z" stroke="none"/><path d="M27,7.45L27,7.55L25.5,7.55L25.5,7.45z" stroke="none"/><path d="M22.5,10.45L22.5,10.55L21,10.55L21,10.45z" stroke="none"/><path d="M20.95,6L21.05,6L21.05,6.907142857142857L20.835714285714285,6.907142857142857L20.835714285714285,7.121428571428571L20.621428571428574,7.121428571428571L20.621428571428574,8.307142857142857L20.835714285714285,8.307142857142857L20.835714285714285,8.521428571428569L21.05,8.521428571428569L21.05,9L20.95,9L20.95,8.62142857142857L20.735714285714284,8.62142857142857L20.735714285714284,8.407142857142858L20.521428571428572,8.407142857142858L20.521428571428572,7.021428571428571L20.735714285714284,7.021428571428571L20.735714285714284,6.807142857142857L20.95,6.807142857142857z" stroke="none"/><path d="M12,9.05L12,8.95L15,8.95L15,9.05z" stroke="none"/><path d="M21,4.55L21,4.45L22.55,4.45L22.55,4.664285714285715L22.764285714285716,4.664285714285715L22.764285714285716,4.878571428571429L23.40714285714286,4.878571428571429L23.40714285714286,5.307142857142857L23.62142857142857,5.307142857142857L23.62142857142857,5.521428571428571L23.835714285714285,5.521428571428571L23.835714285714285,5.95L24,5.95L24,6.05L23.735714285714284,6.05L23.735714285714284,5.621428571428571L23.52142857142857,5.621428571428571L23.52142857142857,5.407142857142857L23.307142857142857,5.407142857142857L23.307142857142857,4.978571428571429L22.664285714285715,4.978571428571429L22.664285714285715,4.764285714285714L22.45,4.764285714285714L22.45,4.55z" stroke="none"/><path d="M22.5,3.05L22.5,2.95L23.52142857142857,2.95L23.52142857142857,2.521428571428572L27.478571428571428,2.521428571428572L27.478571428571428,4.978571428571429L23.52142857142857,4.978571428571429L23.52142857142857,4.764285714285714L23.307142857142857,4.764285714285714L23.307142857142857,4.335714285714285L21.378571428571426,4.335714285714285L21.378571428571426,4.121428571428571L19.978571428571428,4.121428571428571L19.978571428571428,4.335714285714285L19.55,4.335714285714285L19.55,4.5L19.45,4.5L19.45,4.235714285714286L19.878571428571426,4.235714285714286L19.878571428571426,4.021428571428571L21.478571428571428,4.021428571428571L21.478571428571428,4.235714285714286L23.40714285714286,4.235714285714286L23.40714285714286,4.664285714285715L23.62142857142857,4.664285714285715L23.62142857142857,4.878571428571429L27.378571428571426,4.878571428571429L27.378571428571426,2.6214285714285714L23.62142857142857,2.6214285714285714L23.62142857142857,3.05z" stroke="none"/><path d="M22.5,6.05L22.5,5.95L23.62142857142857,5.95L23.62142857142857,6.378571428571428L24.807142857142857,6.378571428571428L24.807142857142857,5.735714285714286L25.664285714285715,5.735714285714286L25.664285714285715,5.307142857142857L27.378571428571426,5.307142857142857L27.378571428571426,5.0928571428571425L27.59285714285714,5.0928571428571425L27.59285714285714,2.407142857142857L21.692857142857143,2.407142857142857L21.692857142857143,2.8357142857142854L21.05,2.8357142857142854L21.05,3L20.95,3L20.95,2.7357142857142858L21.59285714285714,2.7357142857142858L21.59285714285714,2.3071428571428574L27.692857142857143,2.3071428571428574L27.692857142857143,5.192857142857142L27.478571428571428,5.192857142857142L27.478571428571428,5.407142857142857L25.764285714285716,5.407142857142857L25.764285714285716,5.835714285714285L24.90714285714286,5.835714285714285L24.90714285714286,6.478571428571428L23.52142857142857,6.478571428571428L23.52142857142857,6.05z" stroke="none"/><path d="M13.5,2.95L13.5,3.05L9.378571428571426,3.05L9.378571428571426,2.6214285714285714L8.62142857142857,2.6214285714285714L8.62142857142857,4.878571428571429L13.978571428571428,4.878571428571429L13.978571428571428,5.307142857142857L15.05,5.307142857142857L15.05,6L14.95,6L14.95,5.407142857142857L13.878571428571426,5.407142857142857L13.878571428571426,4.978571428571429L8.521428571428569,4.978571428571429L8.521428571428569,2.521428571428572L9.478571428571428,2.521428571428572L9.478571428571428,2.95z" stroke="none"/><path d="M6.05,10.5L5.95,10.5L5.95,9.907142857142858L5.307142857142857,9.907142857142858L5.307142857142857,9.692857142857143L4.664285714285715,9.692857142857143L4.664285714285715,9.478571428571428L4.021428571428571,9.478571428571428L4.021428571428571,8.307142857142857L4.235714285714286,8.307142857142857L4.235714285714286,7.664285714285715L4.45,7.664285714285715L4.45,7.5L4.55,7.5L4.55,7.764285714285714L4.335714285714285,7.764285714285714L4.335714285714285,8.407142857142858L4.121428571428571,8.407142857142858L4.121428571428571,9.378571428571426L4.764285714285714,9.378571428571426L4.764285714285714,9.592857142857142L5.407142857142857,9.592857142857142L5.407142857142857,9.807142857142857L6.05,9.807142857142857z" stroke="none"/><path d="M2.95,3L3.05,3L3.05,3.592857142857143L3.2642857142857142,3.592857142857143L3.2642857142857142,3.8071428571428574L3.6928571428571426,3.8071428571428574L3.6928571428571426,4.235714285714286L4.55,4.235714285714286L4.55,4.45L4.764285714285714,4.45L4.764285714285714,4.664285714285715L5.407142857142857,4.664285714285715L5.407142857142857,5.521428571428571L5.621428571428571,5.521428571428571L5.621428571428571,5.735714285714286L5.835714285714285,5.735714285714286L5.835714285714285,5.95L6,5.95L6,6.05L5.735714285714286,6.05L5.735714285714286,5.835714285714285L5.521428571428571,5.835714285714285L5.521428571428571,5.621428571428571L5.307142857142857,5.621428571428571L5.307142857142857,4.764285714285714L4.664285714285715,4.764285714285714L4.664285714285715,4.55L4.45,4.55L4.45,4.335714285714285L3.592857142857143,4.335714285714285L3.592857142857143,3.907142857142857L3.1642857142857146,3.907142857142857L3.1642857142857146,3.6928571428571426L2.95,3.6928571428571426z" stroke="none"/><path d="M2.95,6L3.05,6L3.05,6.907142857142857L2.8357142857142854,6.907142857142857L2.8357142857142854,7.121428571428571L2.6214285714285714,7.121428571428571L2.6214285714285714,10.021428571428569L3.05,10.021428571428569L3.05,10.5L2.95,10.5L2.95,10.12142857142857L2.521428571428572,10.12142857142857L2.521428571428572,7.021428571428571L2.7357142857142858,7.021428571428571L2.7357142857142858,6.807142857142857L2.95,6.807142857142857z" stroke="none"/><path d="M4.5,12.05L4.5,11.95L10.5,11.95L10.5,12.05z" stroke="none"/><path d="M24.05,4.5L23.95,4.5L23.95,4.335714285714285L23.735714285714284,4.335714285714285L23.735714285714284,4.121428571428571L21.59285714285714,4.121428571428571L21.59285714285714,3.907142857142857L18.692857142857143,3.907142857142857L18.692857142857143,4.121428571428571L18.478571428571428,4.121428571428571L18.478571428571428,4.335714285714285L18.264285714285716,4.335714285714285L18.264285714285716,4.55L18,4.55L18,4.45L18.164285714285715,4.45L18.164285714285715,4.235714285714286L18.378571428571426,4.235714285714286L18.378571428571426,4.021428571428571L18.59285714285714,4.021428571428571L18.59285714285714,3.8071428571428574L21.692857142857143,3.8071428571428574L21.692857142857143,4.021428571428571L23.835714285714285,4.021428571428571L23.835714285714285,4.235714285714286L24.05,4.235714285714286z" stroke="none"/><path d="M22.5,7.55L22.5,7.45L23.835714285714285,7.45L23.835714285714285,7.878571428571428L24.05,7.878571428571428L24.05,8.092857142857142L24.264285714285716,8.092857142857142L24.264285714285716,8.307142857142857L24.478571428571428,8.307142857142857L24.478571428571428,8.521428571428569L24.692857142857143,8.521428571428569L24.692857142857143,8.735714285714284L24.90714285714286,8.735714285714284L24.90714285714286,8.95L25.12142857142857,8.95L25.12142857142857,9.592857142857142L25.55,9.592857142857142L25.55,9.807142857142857L25.764285714285716,9.807142857142857L25.764285714285716,10.021428571428569L25.978571428571428,10.021428571428569L25.978571428571428,10.45L26.192857142857143,10.45L26.192857142857143,10.878571428571426L26.40714285714286,10.878571428571426L26.40714285714286,11.092857142857142L26.62142857142857,11.092857142857142L26.62142857142857,11.735714285714284L27.05,11.735714285714284L27.05,12L26.95,12L26.95,11.835714285714285L26.52142857142857,11.835714285714285L26.52142857142857,11.192857142857143L26.307142857142857,11.192857142857143L26.307142857142857,10.978571428571428L26.09285714285714,10.978571428571428L26.09285714285714,10.55L25.878571428571426,10.55L25.878571428571426,10.12142857142857L25.664285714285715,10.12142857142857L25.664285714285715,9.907142857142858L25.45,9.907142857142858L25.45,9.692857142857143L25.02142857142857,9.692857142857143L25.02142857142857,9.05L24.807142857142857,9.05L24.807142857142857,8.835714285714285L24.59285714285714,8.835714285714285L24.59285714285714,8.62142857142857L24.378571428571426,8.62142857142857L24.378571428571426,8.407142857142858L24.164285714285715,8.407142857142858L24.164285714285715,8.192857142857143L23.95,8.192857142857143L23.95,7.978571428571428L23.735714285714284,7.978571428571428L23.735714285714284,7.55z" stroke="none"/><path d="M8.95,7.5L9.05,7.5L9.05,8.407142857142858L8.62142857142857,8.407142857142858L8.62142857142857,10.12142857142857L7.121428571428571,10.12142857142857L7.121428571428571,10.335714285714285L6.907142857142857,10.335714285714285L6.907142857142857,10.764285714285716L6.692857142857142,10.764285714285716L6.692857142857142,10.978571428571428L4.335714285714285,10.978571428571428L4.335714285714285,11.62142857142857L3.2642857142857142,11.62142857142857L3.2642857142857142,12.05L3,12.05L3,11.95L3.1642857142857146,11.95L3.1642857142857146,11.521428571428569L4.235714285714286,11.521428571428569L4.235714285714286,10.878571428571426L6.5928571428571425,10.878571428571426L6.5928571428571425,10.664285714285715L6.807142857142857,10.664285714285715L6.807142857142857,10.235714285714284L7.021428571428571,10.235714285714284L7.021428571428571,10.021428571428569L8.521428571428569,10.021428571428569L8.521428571428569,8.307142857142857L8.95,8.307142857142857z" stroke="none"/><path d="M7.5,10.55L7.5,10.45L10.235714285714284,10.45L10.235714285714284,10.235714285714284L10.664285714285715,10.235714285714284L10.664285714285715,10.021428571428569L14.62142857142857,10.021428571428569L14.62142857142857,10.235714285714284L15.05,10.235714285714284L15.05,10.5L14.95,10.5L14.95,10.335714285714285L14.521428571428569,10.335714285714285L14.521428571428569,10.12142857142857L10.764285714285716,10.12142857142857L10.764285714285716,10.335714285714285L10.335714285714285,10.335714285714285L10.335714285714285,10.55z" stroke="none"/><path d="M4.5,3.05L4.5,2.95L5.407142857142857,2.95L5.407142857142857,3.1642857142857146L5.621428571428571,3.1642857142857146L5.621428571428571,3.3785714285714286L5.835714285714285,3.3785714285714286L5.835714285714285,3.592857142857143L6.05,3.592857142857143L6.05,3.8071428571428574L6.264285714285714,3.8071428571428574L6.264285714285714,4.021428571428571L6.478571428571428,4.021428571428571L6.478571428571428,4.878571428571429L6.692857142857142,4.878571428571429L6.692857142857142,5.0928571428571425L6.907142857142857,5.0928571428571425L6.907142857142857,5.307142857142857L7.335714285714285,5.307142857142857L7.335714285714285,5.521428571428571L7.978571428571428,5.521428571428571L7.978571428571428,5.735714285714286L8.192857142857143,5.735714285714286L8.192857142857143,5.95L8.62142857142857,5.95L8.62142857142857,6.5928571428571425L9.692857142857143,6.5928571428571425L9.692857142857143,7.021428571428571L9.907142857142858,7.021428571428571L9.907142857142858,7.235714285714286L10.12142857142857,7.235714285714286L10.12142857142857,7.45L10.5,7.45L10.5,7.55L10.021428571428569,7.55L10.021428571428569,7.335714285714285L9.807142857142857,7.335714285714285L9.807142857142857,7.121428571428571L9.592857142857142,7.121428571428571L9.592857142857142,6.692857142857142L8.521428571428569,6.692857142857142L8.521428571428569,6.05L8.092857142857142,6.05L8.092857142857142,5.835714285714285L7.878571428571428,5.835714285714285L7.878571428571428,5.621428571428571L7.235714285714286,5.621428571428571L7.235714285714286,5.407142857142857L6.807142857142857,5.407142857142857L6.807142857142857,5.192857142857142L6.5928571428571425,5.192857142857142L6.5928571428571425,4.978571428571429L6.378571428571428,4.978571428571429L6.378571428571428,4.121428571428571L6.164285714285715,4.121428571428571L6.164285714285715,3.907142857142857L5.95,3.907142857142857L5.95,3.6928571428571426L5.735714285714286,3.6928571428571426L5.735714285714286,3.478571428571428L5.521428571428571,3.478571428571428L5.521428571428571,3.2642857142857142L5.307142857142857,3.2642857142857142L5.307142857142857,3.05z" stroke="none"/><path d="M11.95,10.5L12.05,10.5L12.05,11.407142857142858L11.835714285714285,11.407142857142858L11.835714285714285,11.62142857142857L11.407142857142858,11.62142857142857L11.407142857142858,11.835714285714285L11.192857142857143,11.835714285714285L11.192857142857143,12.478571428571428L2.521428571428572,12.478571428571428L2.521428571428572,11.521428571428569L2.95,11.521428571428569L2.95,11.307142857142857L3.8071428571428574,11.307142857142857L3.8071428571428574,10.664285714285715L4.45,10.664285714285715L4.45,10.5L4.55,10.5L4.55,10.764285714285716L3.907142857142857,10.764285714285716L3.907142857142857,11.407142857142858L3.05,11.407142857142858L3.05,11.62142857142857L2.6214285714285714,11.62142857142857L2.6214285714285714,12.378571428571426L11.092857142857142,12.378571428571426L11.092857142857142,11.735714285714284L11.307142857142857,11.735714285714284L11.307142857142857,11.521428571428569L11.735714285714284,11.521428571428569L11.735714285714284,11.307142857142857L11.95,11.307142857142857z" stroke="none"/><path d="M19.5,10.55L19.5,10.45L20.307142857142857,10.45L20.307142857142857,10.021428571428569L21.164285714285715,10.021428571428569L21.164285714285715,9.807142857142857L21.378571428571426,9.807142857142857L21.378571428571426,7.664285714285715L21.59285714285714,7.664285714285715L21.59285714285714,7.45L22.021428571428572,7.45L22.021428571428572,7.021428571428571L24.692857142857143,7.021428571428571L24.692857142857143,7.235714285714286L25.12142857142857,7.235714285714286L25.12142857142857,7.878571428571428L26.192857142857143,7.878571428571428L26.192857142857143,8.307142857142857L26.40714285714286,8.307142857142857L26.40714285714286,8.521428571428569L26.835714285714285,8.521428571428569L26.835714285714285,8.95L27,8.95L27,9.05L26.735714285714284,9.05L26.735714285714284,8.62142857142857L26.307142857142857,8.62142857142857L26.307142857142857,8.407142857142858L26.09285714285714,8.407142857142858L26.09285714285714,7.978571428571428L25.02142857142857,7.978571428571428L25.02142857142857,7.335714285714285L24.59285714285714,7.335714285714285L24.59285714285714,7.121428571428571L22.121428571428574,7.121428571428571L22.121428571428574,7.55L21.692857142857143,7.55L21.692857142857143,7.764285714285714L21.478571428571428,7.764285714285714L21.478571428571428,9.907142857142858L21.264285714285716,9.907142857142858L21.264285714285716,10.12142857142857L20.40714285714286,10.12142857142857L20.40714285714286,10.55z" stroke="none"/><path d="M13.5,5.95L13.5,6.05L12.378571428571426,6.05L12.378571428571426,5.621428571428571L11.307142857142857,5.621428571428571L11.307142857142857,5.192857142857142L8.307142857142857,5.192857142857142L8.307142857142857,4.121428571428571L8.092857142857142,4.121428571428571L8.092857142857142,3.907142857142857L7.45,3.907142857142857L7.45,3.478571428571428L6.164285714285715,3.478571428571428L6.164285714285715,2.8357142857142854L5.0928571428571425,2.8357142857142854L5.0928571428571425,2.6214285714285714L4.121428571428571,2.6214285714285714L4.121428571428571,3.3785714285714286L4.978571428571429,3.3785714285714286L4.978571428571429,3.592857142857143L5.192857142857142,3.592857142857143L5.192857142857142,4.235714285714286L6.05,4.235714285714286L6.05,4.5L5.95,4.5L5.95,4.335714285714285L5.0928571428571425,4.335714285714285L5.0928571428571425,3.6928571428571426L4.878571428571429,3.6928571428571426L4.878571428571429,3.478571428571428L4.021428571428571,3.478571428571428L4.021428571428571,2.521428571428572L5.192857142857142,2.521428571428572L5.192857142857142,2.7357142857142858L6.264285714285714,2.7357142857142858L6.264285714285714,3.3785714285714286L7.55,3.3785714285714286L7.55,3.8071428571428574L8.192857142857143,3.8071428571428574L8.192857142857143,4.021428571428571L8.407142857142858,4.021428571428571L8.407142857142858,5.0928571428571425L11.407142857142858,5.0928571428571425L11.407142857142858,5.521428571428571L12.478571428571428,5.521428571428571L12.478571428571428,5.95z" stroke="none"/><path d="M13.5,12.05L13.5,11.95L15.692857142857143,11.95L15.692857142857143,12.164285714285715L16.12142857142857,12.164285714285715L16.12142857142857,12.378571428571426L20.192857142857143,12.378571428571426L20.192857142857143,12.592857142857142L27.378571428571426,12.592857142857142L27.378571428571426,7.121428571428571L24.807142857142857,7.121428571428571L24.807142857142857,6.907142857142857L21.264285714285716,6.907142857142857L21.264285714285716,7.55L21,7.55L21,7.45L21.164285714285715,7.45L21.164285714285715,6.807142857142857L24.90714285714286,6.807142857142857L24.90714285714286,7.021428571428571L27.478571428571428,7.021428571428571L27.478571428571428,12.692857142857143L20.09285714285714,12.692857142857143L20.09285714285714,12.478571428571428L16.02142857142857,12.478571428571428L16.02142857142857,12.264285714285716L15.592857142857142,12.264285714285716L15.592857142857142,12.05z" stroke="none"/><path d="M15,3.05L15,2.95L16.878571428571426,2.95L16.878571428571426,2.521428571428572L17.307142857142857,2.521428571428572L17.307142857142857,2.3071428571428574L19.764285714285716,2.3071428571428574L19.764285714285716,2.521428571428572L20.192857142857143,2.521428571428572L20.192857142857143,2.7357142857142858L20.621428571428574,2.7357142857142858L20.621428571428574,3.3785714285714286L23.735714285714284,3.3785714285714286L23.735714285714284,2.95L24,2.95L24,3.05L23.835714285714285,3.05L23.835714285714285,3.478571428571428L20.521428571428572,3.478571428571428L20.521428571428572,2.8357142857142854L20.09285714285714,2.8357142857142854L20.09285714285714,2.6214285714285714L19.664285714285715,2.6214285714285714L19.664285714285715,2.407142857142857L17.40714285714286,2.407142857142857L17.40714285714286,2.6214285714285714L16.978571428571428,2.6214285714285714L16.978571428571428,3.05z" stroke="none"/><path d="M11.95,6L12.05,6L12.05,6.164285714285715L13.12142857142857,6.164285714285715L13.12142857142857,6.378571428571428L19.878571428571426,6.378571428571428L19.878571428571426,6.164285714285715L20.09285714285714,6.164285714285715L20.09285714285714,5.95L20.307142857142857,5.95L20.307142857142857,5.521428571428571L21.478571428571428,5.521428571428571L21.478571428571428,5.735714285714286L21.692857142857143,5.735714285714286L21.692857142857143,5.95L22.121428571428574,5.95L22.121428571428574,6.378571428571428L23.40714285714286,6.378571428571428L23.40714285714286,6.5928571428571425L27.378571428571426,6.5928571428571425L27.378571428571426,5.735714285714286L27.59285714285714,5.735714285714286L27.59285714285714,5.521428571428571L27.807142857142857,5.521428571428571L27.807142857142857,2.1928571428571426L4.335714285714285,2.1928571428571426L4.335714285714285,2.407142857142857L3.478571428571428,2.407142857142857L3.478571428571428,2.6214285714285714L2.6214285714285714,2.6214285714285714L2.6214285714285714,5.307142857142857L3.05,5.307142857142857L3.05,5.521428571428571L3.478571428571428,5.521428571428571L3.478571428571428,7.121428571428571L3.2642857142857142,7.121428571428571L3.2642857142857142,7.335714285714285L3.05,7.335714285714285L3.05,7.5L2.95,7.5L2.95,7.235714285714286L3.1642857142857146,7.235714285714286L3.1642857142857146,7.021428571428571L3.3785714285714286,7.021428571428571L3.3785714285714286,5.621428571428571L2.95,5.621428571428571L2.95,5.407142857142857L2.521428571428572,5.407142857142857L2.521428571428572,2.521428571428572L3.3785714285714286,2.521428571428572L3.3785714285714286,2.3071428571428574L4.235714285714286,2.3071428571428574L4.235714285714286,2.092857142857143L27.90714285714286,2.092857142857143L27.90714285714286,5.621428571428571L27.692857142857143,5.621428571428571L27.692857142857143,5.835714285714285L27.478571428571428,5.835714285714285L27.478571428571428,6.692857142857142L23.307142857142857,6.692857142857142L23.307142857142857,6.478571428571428L22.021428571428572,6.478571428571428L22.021428571428572,6.05L21.59285714285714,6.05L21.59285714285714,5.835714285714285L21.378571428571426,5.835714285714285L21.378571428571426,5.621428571428571L20.40714285714286,5.621428571428571L20.40714285714286,6.05L20.192857142857143,6.05L20.192857142857143,6.264285714285714L19.978571428571428,6.264285714285714L19.978571428571428,6.478571428571428L13.021428571428569,6.478571428571428L13.021428571428569,6.264285714285714L11.95,6.264285714285714z" stroke="none"/><path d="M13.45,10.5L13.55,10.5L13.55,11.407142857142858L13.335714285714285,11.407142857142858L13.335714285714285,11.62142857142857L13.12142857142857,11.62142857142857L13.12142857142857,12.692857142857143L2.3071428571428574,12.692857142857143L2.3071428571428574,11.092857142857142L3.3785714285714286,11.092857142857142L3.3785714285714286,9.264285714285716L3.1642857142857146,9.264285714285716L3.1642857142857146,9.05L3,9.05L3,8.95L3.2642857142857142,8.95L3.2642857142857142,9.164285714285715L3.478571428571428,9.164285714285715L3.478571428571428,11.192857142857143L2.407142857142857,11.192857142857143L2.407142857142857,12.592857142857142L13.021428571428569,12.592857142857142L13.021428571428569,11.521428571428569L13.235714285714284,11.521428571428569L13.235714285714284,11.307142857142857L13.45,11.307142857142857z" stroke="none"/></svg>