<svg version="1.1" width="30" height="15" xmlns="http://www.w3.org/2000/svg"><path d="M20.95,9.807142857142857L20.95,9.592857142857142L21.164285714285715,9.592857142857142L21.164285714285715,9.378571428571426L21.378571428571426,9.378571428571426L21.378571428571426,8.307142857142857L22.235714285714284,8.307142857142857L22.235714285714284,7.664285714285715L22.45,7.664285714285715L22.45,7.5L22.55,7.5L22.55,7.764285714285714L22.335714285714285,7.764285714285714L22.335714285714285,8.407142857142858L21.478571428571428,8.407142857142858L21.478571428571428,9.478571428571428L21.264285714285716,9.478571428571428L21.264285714285716,9.692857142857143L21.05,9.692857142857143L21.05,10.5L20.95,10.5L20.95,9.907142857142858L20.835714285714285,9.907142857142858L20.835714285714285,11.192857142857143L20.40714285714286,11.192857142857143L20.40714285714286,11.835714285714285L19.764285714285716,11.835714285714285L19.764285714285716,12.05L19.5,12.05L19.5,11.95L19.664285714285715,11.95L19.664285714285715,11.735714285714284L20.307142857142857,11.735714285714284L20.307142857142857,11.092857142857142L20.735714285714284,11.092857142857142L20.735714285714284,9.807142857142857z" stroke="none"/><path d="M10.45,9.592857142857142L10.45,9L10.55,9L10.55,9.592857142857142L16.45,9.592857142857142L16.45,9L16.55,9L16.55,9.692857142857143L7.335714285714285,9.692857142857143L7.335714285714285,9.907142857142858L5.835714285714285,9.907142857142858L5.835714285714285,10.12142857142857L5.621428571428571,10.12142857142857L5.621428571428571,10.55L4.5,10.55L4.5,10.45L5.521428571428571,10.45L5.521428571428571,10.021428571428569L5.735714285714286,10.021428571428569L5.735714285714286,9.807142857142857L7.235714285714286,9.807142857142857L7.235714285714286,9.592857142857142z" stroke="none"/><path d="M21.807142857142857,4.878571428571429L21.807142857142857,3.592857142857143L22.021428571428572,3.592857142857143L22.021428571428572,3.3785714285714286L23.307142857142857,3.3785714285714286L23.307142857142857,3.1642857142857146L23.52142857142857,3.1642857142857146L23.52142857142857,2.95L24,2.95L24,3.05L23.62142857142857,3.05L23.62142857142857,3.2642857142857142L23.40714285714286,3.2642857142857142L23.40714285714286,3.478571428571428L22.121428571428574,3.478571428571428L22.121428571428574,3.6928571428571426L21.90714285714286,3.6928571428571426L21.90714285714286,4.878571428571429L23.835714285714285,4.878571428571429L23.835714285714285,5.521428571428571L24.05,5.521428571428571L24.05,5.735714285714286L25.12142857142857,5.735714285714286L25.12142857142857,5.95L25.5,5.95L25.5,6.05L25.02142857142857,6.05L25.02142857142857,5.835714285714285L23.95,5.835714285714285L23.95,5.621428571428571L23.735714285714284,5.621428571428571L23.735714285714284,4.978571428571429L18.478571428571428,4.978571428571429L18.478571428571428,5.192857142857142L17.835714285714285,5.192857142857142L17.835714285714285,5.407142857142857L17.621428571428574,5.407142857142857L17.621428571428574,5.621428571428571L16.764285714285716,5.621428571428571L16.764285714285716,5.835714285714285L16.55,5.835714285714285L16.55,6L16.45,6L16.45,5.735714285714286L16.664285714285715,5.735714285714286L16.664285714285715,5.521428571428571L17.521428571428572,5.521428571428571L17.521428571428572,5.307142857142857L17.735714285714284,5.307142857142857L17.735714285714284,5.0928571428571425L18.378571428571426,5.0928571428571425L18.378571428571426,4.878571428571429z" stroke="none"/><path d="M5.95,5.0928571428571425L5.95,4.5L6.05,4.5L6.05,5.0928571428571425L8.092857142857142,5.0928571428571425L8.092857142857142,4.45L8.307142857142857,4.45L8.307142857142857,4.021428571428571L8.521428571428569,4.021428571428571L8.521428571428569,3.8071428571428574L9.164285714285715,3.8071428571428574L9.164285714285715,3.592857142857143L9.378571428571426,3.592857142857143L9.378571428571426,3.3785714285714286L9.807142857142857,3.3785714285714286L9.807142857142857,3.1642857142857146L10.021428571428569,3.1642857142857146L10.021428571428569,2.95L10.5,2.95L10.5,3.05L10.12142857142857,3.05L10.12142857142857,3.2642857142857142L9.907142857142858,3.2642857142857142L9.907142857142858,3.478571428571428L9.478571428571428,3.478571428571428L9.478571428571428,3.6928571428571426L9.264285714285716,3.6928571428571426L9.264285714285716,3.907142857142857L8.62142857142857,3.907142857142857L8.62142857142857,4.121428571428571L8.407142857142858,4.121428571428571L8.407142857142858,4.55L8.192857142857143,4.55L8.192857142857143,5.192857142857142L6.05,5.192857142857142L6.05,6.692857142857142L5.407142857142857,6.692857142857142L5.407142857142857,6.907142857142857L4.978571428571429,6.907142857142857L4.978571428571429,7.121428571428571L4.764285714285714,7.121428571428571L4.764285714285714,7.55L4.5,7.55L4.5,7.45L4.664285714285715,7.45L4.664285714285715,7.021428571428571L4.878571428571429,7.021428571428571L4.878571428571429,6.807142857142857L5.307142857142857,6.807142857142857L5.307142857142857,6.5928571428571425L5.95,6.5928571428571425L5.95,5.192857142857142L4.764285714285714,5.192857142857142L4.764285714285714,5.407142857142857L4.335714285714285,5.407142857142857L4.335714285714285,5.621428571428571L3.907142857142857,5.621428571428571L3.907142857142857,5.835714285714285L3.478571428571428,5.835714285714285L3.478571428571428,6.05L3,6.05L3,5.95L3.3785714285714286,5.95L3.3785714285714286,5.735714285714286L3.8071428571428574,5.735714285714286L3.8071428571428574,5.521428571428571L4.235714285714286,5.521428571428571L4.235714285714286,5.307142857142857L4.664285714285715,5.307142857142857L4.664285714285715,5.0928571428571425z" stroke="none"/><path d="M13.45,6.5928571428571425L13.45,6.378571428571428L16.02142857142857,6.378571428571428L16.02142857142857,5.521428571428571L16.45,5.521428571428571L16.45,5.307142857142857L17.09285714285714,5.307142857142857L17.09285714285714,5.0928571428571425L17.307142857142857,5.0928571428571425L17.307142857142857,4.878571428571429L18.164285714285715,4.878571428571429L18.164285714285715,4.664285714285715L20.95,4.664285714285715L20.95,4.5L21.05,4.5L21.05,4.764285714285714L18.264285714285716,4.764285714285714L18.264285714285716,4.978571428571429L17.40714285714286,4.978571428571429L17.40714285714286,5.192857142857142L17.192857142857143,5.192857142857142L17.192857142857143,5.407142857142857L16.55,5.407142857142857L16.55,5.621428571428571L16.12142857142857,5.621428571428571L16.12142857142857,6.478571428571428L13.55,6.478571428571428L13.55,6.5928571428571425L13.764285714285716,6.5928571428571425L13.764285714285716,9.264285714285716L11.092857142857142,9.264285714285716L11.092857142857142,9.05L10.878571428571426,9.05L10.878571428571426,8.62142857142857L9.907142857142858,8.62142857142857L9.907142857142858,8.835714285714285L9.692857142857143,8.835714285714285L9.692857142857143,9.05L9,9.05L9,8.95L9.592857142857142,8.95L9.592857142857142,8.735714285714284L9.807142857142857,8.735714285714284L9.807142857142857,8.521428571428569L10.978571428571428,8.521428571428569L10.978571428571428,8.95L11.192857142857143,8.95L11.192857142857143,9.164285714285715L13.664285714285715,9.164285714285715L13.664285714285715,6.692857142857142L13.55,6.692857142857142L13.55,9L13.45,9L13.45,6.692857142857142L11.521428571428569,6.692857142857142L11.521428571428569,6.05L11.092857142857142,6.05L11.092857142857142,4.55L10.5,4.55L10.5,4.45L11.192857142857143,4.45L11.192857142857143,5.95L11.62142857142857,5.95L11.62142857142857,6.5928571428571425z" stroke="none"/><path d="M19.45,10.021428571428569L19.45,9.264285714285716L18.807142857142857,9.264285714285716L18.807142857142857,9.05L18.59285714285714,9.05L18.59285714285714,7.764285714285714L18.164285714285715,7.764285714285714L18.164285714285715,7.55L18,7.55L18,7.45L18.264285714285716,7.45L18.264285714285716,7.664285714285715L18.692857142857143,7.664285714285715L18.692857142857143,8.95L18.90714285714286,8.95L18.90714285714286,9.164285714285715L19.55,9.164285714285715L19.55,10.021428571428569L19.664285714285715,10.021428571428569L19.664285714285715,8.192857142857143L19.45,8.192857142857143L19.45,7.978571428571428L19.235714285714284,7.978571428571428L19.235714285714284,7.335714285714285L17.835714285714285,7.335714285714285L17.835714285714285,9.478571428571428L17.621428571428574,9.478571428571428L17.621428571428574,10.12142857142857L17.40714285714286,10.12142857142857L17.40714285714286,10.335714285714285L17.192857142857143,10.335714285714285L17.192857142857143,10.764285714285716L16.978571428571428,10.764285714285716L16.978571428571428,10.978571428571428L15.907142857142858,10.978571428571428L15.907142857142858,11.192857142857143L14.835714285714285,11.192857142857143L14.835714285714285,11.407142857142858L13.764285714285716,11.407142857142858L13.764285714285716,11.62142857142857L13.55,11.62142857142857L13.55,12L13.45,12L13.45,11.521428571428569L13.664285714285715,11.521428571428569L13.664285714285715,11.307142857142857L14.735714285714284,11.307142857142857L14.735714285714284,11.092857142857142L15.807142857142857,11.092857142857142L15.807142857142857,10.878571428571426L16.878571428571426,10.878571428571426L16.878571428571426,10.664285714285715L17.09285714285714,10.664285714285715L17.09285714285714,10.235714285714284L17.307142857142857,10.235714285714284L17.307142857142857,10.021428571428569L17.521428571428572,10.021428571428569L17.521428571428572,9.378571428571426L17.735714285714284,9.378571428571426L17.735714285714284,7.235714285714286L19.335714285714285,7.235714285714286L19.335714285714285,7.878571428571428L19.55,7.878571428571428L19.55,8.092857142857142L19.764285714285716,8.092857142857142L19.764285714285716,10.12142857142857L19.55,10.12142857142857L19.55,11.407142857142858L19.335714285714285,11.407142857142858L19.335714285714285,11.62142857142857L19.121428571428574,11.62142857142857L19.121428571428574,12.378571428571426L21.59285714285714,12.378571428571426L21.59285714285714,11.95L21.807142857142857,11.95L21.807142857142857,11.307142857142857L22.235714285714284,11.307142857142857L22.235714285714284,10.45L22.5,10.45L22.5,10.55L22.335714285714285,10.55L22.335714285714285,11.407142857142858L21.90714285714286,11.407142857142858L21.90714285714286,12.05L21.692857142857143,12.05L21.692857142857143,12.478571428571428L19.021428571428572,12.478571428571428L19.021428571428572,11.521428571428569L19.235714285714284,11.521428571428569L19.235714285714284,11.307142857142857L19.45,11.307142857142857L19.45,10.12142857142857L19.335714285714285,10.12142857142857L19.335714285714285,11.192857142857143L18.90714285714286,11.192857142857143L18.90714285714286,12.592857142857142L22.45,12.592857142857142L22.45,12.378571428571426L23.09285714285714,12.378571428571426L23.09285714285714,11.95L23.307142857142857,11.95L23.307142857142857,11.521428571428569L23.52142857142857,11.521428571428569L23.52142857142857,11.307142857142857L23.735714285714284,11.307142857142857L23.735714285714284,10.45L24,10.45L24,10.55L23.835714285714285,10.55L23.835714285714285,11.407142857142858L23.62142857142857,11.407142857142858L23.62142857142857,11.62142857142857L23.40714285714286,11.62142857142857L23.40714285714286,12.05L23.192857142857143,12.05L23.192857142857143,12.478571428571428L22.55,12.478571428571428L22.55,12.692857142857143L18.807142857142857,12.692857142857143L18.807142857142857,11.092857142857142L19.235714285714284,11.092857142857142L19.235714285714284,10.021428571428569z" stroke="none"/><path d="M21.05,9L20.95,9L20.95,8.735714285714284L21.164285714285715,8.735714285714284L21.164285714285715,8.092857142857142L21.378571428571426,8.092857142857142L21.378571428571426,7.664285714285715L21.59285714285714,7.664285714285715L21.59285714285714,7.45L21.807142857142857,7.45L21.807142857142857,7.021428571428571L22.978571428571428,7.021428571428571L22.978571428571428,8.835714285714285L22.55,8.835714285714285L22.55,9L22.45,9L22.45,8.735714285714284L22.878571428571426,8.735714285714284L22.878571428571426,7.121428571428571L21.90714285714286,7.121428571428571L21.90714285714286,7.55L21.692857142857143,7.55L21.692857142857143,7.764285714285714L21.478571428571428,7.764285714285714L21.478571428571428,8.192857142857143L21.264285714285716,8.192857142857143L21.264285714285716,8.835714285714285L21.05,8.835714285714285z" stroke="none"/><path d="M6,11.95L6,12.05L4.5,12.05L4.5,11.95z" stroke="none"/><path d="M27,11.95L27,12.05L25.5,12.05L25.5,11.95z" stroke="none"/><path d="M16.5,11.95L16.5,12.05L13.978571428571428,12.05L13.978571428571428,12.478571428571428L13.021428571428569,12.478571428571428L13.021428571428569,11.521428571428569L13.235714285714284,11.521428571428569L13.235714285714284,11.307142857142857L13.45,11.307142857142857L13.45,11.092857142857142L14.521428571428569,11.092857142857142L14.521428571428569,10.45L15,10.45L15,10.55L14.62142857142857,10.55L14.62142857142857,11.192857142857143L13.55,11.192857142857143L13.55,11.407142857142858L13.335714285714285,11.407142857142858L13.335714285714285,11.62142857142857L13.12142857142857,11.62142857142857L13.12142857142857,12.378571428571426L13.878571428571426,12.378571428571426L13.878571428571426,11.95z" stroke="none"/><path d="M15,2.95L15,3.05L14.192857142857143,3.05L14.192857142857143,3.907142857142857L13.978571428571428,3.907142857142857L13.978571428571428,4.121428571428571L13.55,4.121428571428571L13.55,4.5L13.45,4.5L13.45,4.021428571428571L13.878571428571426,4.021428571428571L13.878571428571426,3.8071428571428574L14.092857142857142,3.8071428571428574L14.092857142857142,2.95z" stroke="none"/><path d="M10.45,10.5L10.55,10.5L10.55,11.307142857142857L10.764285714285716,11.307142857142857L10.764285714285716,11.521428571428569L11.192857142857143,11.521428571428569L11.192857142857143,11.735714285714284L12.05,11.735714285714284L12.05,12L11.95,12L11.95,11.835714285714285L11.092857142857142,11.835714285714285L11.092857142857142,11.62142857142857L10.664285714285715,11.62142857142857L10.664285714285715,11.407142857142858L10.45,11.407142857142858z" stroke="none"/><path d="M27,5.95L27,6.05L26.62142857142857,6.05L26.62142857142857,6.264285714285714L25.978571428571428,6.264285714285714L25.978571428571428,6.478571428571428L22.878571428571426,6.478571428571428L22.878571428571426,6.264285714285714L22.45,6.264285714285714L22.45,6L22.55,6L22.55,6.164285714285715L22.978571428571428,6.164285714285715L22.978571428571428,6.378571428571428L25.878571428571426,6.378571428571428L25.878571428571426,6.164285714285715L26.52142857142857,6.164285714285715L26.52142857142857,5.95z" stroke="none"/><path d="M21,7.55L21,7.45L21.378571428571426,7.45L21.378571428571426,7.235714285714286L21.59285714285714,7.235714285714286L21.59285714285714,6.807142857142857L24.90714285714286,6.807142857142857L24.90714285714286,7.021428571428571L25.335714285714285,7.021428571428571L25.335714285714285,7.235714285714286L25.55,7.235714285714286L25.55,7.5L25.45,7.5L25.45,7.335714285714285L25.235714285714284,7.335714285714285L25.235714285714284,7.121428571428571L24.807142857142857,7.121428571428571L24.807142857142857,6.907142857142857L21.692857142857143,6.907142857142857L21.692857142857143,7.335714285714285L21.478571428571428,7.335714285714285L21.478571428571428,7.55z" stroke="none"/><path d="M21,3.05L21,2.95L22.664285714285715,2.95L22.664285714285715,2.7357142857142858L23.52142857142857,2.7357142857142858L23.52142857142857,2.521428571428572L24.478571428571428,2.521428571428572L24.478571428571428,4.021428571428571L24.692857142857143,4.021428571428571L24.692857142857143,4.235714285714286L25.12142857142857,4.235714285714286L25.12142857142857,4.45L25.5,4.45L25.5,4.55L25.02142857142857,4.55L25.02142857142857,4.335714285714285L24.59285714285714,4.335714285714285L24.59285714285714,4.121428571428571L24.378571428571426,4.121428571428571L24.378571428571426,2.6214285714285714L23.62142857142857,2.6214285714285714L23.62142857142857,2.8357142857142854L22.764285714285716,2.8357142857142854L22.764285714285716,3.05z" stroke="none"/><path d="M7.55,7.5L7.45,7.5L7.45,6.5928571428571425L7.664285714285715,6.5928571428571425L7.664285714285715,6.164285714285715L8.092857142857142,6.164285714285715L8.092857142857142,5.95L8.307142857142857,5.95L8.307142857142857,4.664285714285715L8.521428571428569,4.664285714285715L8.521428571428569,4.45L8.735714285714284,4.45L8.735714285714284,4.235714285714286L9.378571428571426,4.235714285714286L9.378571428571426,4.021428571428571L9.592857142857142,4.021428571428571L9.592857142857142,3.8071428571428574L10.021428571428569,3.8071428571428574L10.021428571428569,3.592857142857143L10.664285714285715,3.592857142857143L10.664285714285715,3.3785714285714286L10.878571428571426,3.3785714285714286L10.878571428571426,2.6214285714285714L9.264285714285716,2.6214285714285714L9.264285714285716,3.05L9,3.05L9,2.95L9.164285714285715,2.95L9.164285714285715,2.521428571428572L10.978571428571428,2.521428571428572L10.978571428571428,3.478571428571428L10.764285714285716,3.478571428571428L10.764285714285716,3.6928571428571426L10.12142857142857,3.6928571428571426L10.12142857142857,3.907142857142857L9.692857142857143,3.907142857142857L9.692857142857143,4.121428571428571L9.478571428571428,4.121428571428571L9.478571428571428,4.335714285714285L8.835714285714285,4.335714285714285L8.835714285714285,4.55L8.62142857142857,4.55L8.62142857142857,4.764285714285714L8.407142857142858,4.764285714285714L8.407142857142858,6.05L8.192857142857143,6.05L8.192857142857143,6.264285714285714L7.764285714285714,6.264285714285714L7.764285714285714,6.692857142857142L7.55,6.692857142857142z" stroke="none"/><path d="M22.55,12L22.45,12L22.45,11.521428571428569L22.664285714285715,11.521428571428569L22.664285714285715,11.092857142857142L22.878571428571426,11.092857142857142L22.878571428571426,10.235714285714284L23.307142857142857,10.235714285714284L23.307142857142857,10.021428571428569L25.664285714285715,10.021428571428569L25.664285714285715,9.807142857142857L25.878571428571426,9.807142857142857L25.878571428571426,9.592857142857142L26.307142857142857,9.592857142857142L26.307142857142857,9.164285714285715L26.52142857142857,9.164285714285715L26.52142857142857,8.95L27,8.95L27,9.05L26.62142857142857,9.05L26.62142857142857,9.264285714285716L26.40714285714286,9.264285714285716L26.40714285714286,9.692857142857143L25.978571428571428,9.692857142857143L25.978571428571428,9.907142857142858L25.764285714285716,9.907142857142858L25.764285714285716,10.12142857142857L23.40714285714286,10.12142857142857L23.40714285714286,10.335714285714285L22.978571428571428,10.335714285714285L22.978571428571428,11.192857142857143L22.764285714285716,11.192857142857143L22.764285714285716,11.62142857142857L22.55,11.62142857142857z" stroke="none"/><path d="M12,7.45L12,7.55L11.62142857142857,7.55L11.62142857142857,7.764285714285714L10.978571428571428,7.764285714285714L10.978571428571428,7.978571428571428L6.807142857142857,7.978571428571428L6.807142857142857,7.764285714285714L6.5928571428571425,7.764285714285714L6.5928571428571425,7.55L6,7.55L6,7.45L6.692857142857142,7.45L6.692857142857142,7.664285714285715L6.907142857142857,7.664285714285715L6.907142857142857,7.878571428571428L10.878571428571426,7.878571428571428L10.878571428571426,7.664285714285715L11.521428571428569,7.664285714285715L11.521428571428569,7.45z" stroke="none"/><path d="M16.5,10.45L16.5,10.55L16.02142857142857,10.55L16.02142857142857,10.335714285714285L15.807142857142857,10.335714285714285L15.807142857142857,10.12142857142857L14.62142857142857,10.12142857142857L14.62142857142857,10.335714285714285L14.407142857142858,10.335714285714285L14.407142857142858,10.764285714285716L14.192857142857143,10.764285714285716L14.192857142857143,10.978571428571428L13.335714285714285,10.978571428571428L13.335714285714285,11.192857142857143L13.12142857142857,11.192857142857143L13.12142857142857,11.407142857142858L12.907142857142858,11.407142857142858L12.907142857142858,12.05L12.692857142857143,12.05L12.692857142857143,12.478571428571428L10.664285714285715,12.478571428571428L10.664285714285715,12.05L10.5,12.05L10.5,11.95L10.764285714285716,11.95L10.764285714285716,12.378571428571426L12.592857142857142,12.378571428571426L12.592857142857142,11.95L12.807142857142857,11.95L12.807142857142857,11.307142857142857L13.021428571428569,11.307142857142857L13.021428571428569,11.092857142857142L13.235714285714284,11.092857142857142L13.235714285714284,10.878571428571426L14.092857142857142,10.878571428571426L14.092857142857142,10.664285714285715L14.307142857142857,10.664285714285715L14.307142857142857,10.235714285714284L14.521428571428569,10.235714285714284L14.521428571428569,10.021428571428569L15.907142857142858,10.021428571428569L15.907142857142858,10.235714285714284L16.12142857142857,10.235714285714284L16.12142857142857,10.45z" stroke="none"/><path d="M9.05,12L8.95,12L8.95,11.092857142857142L9.164285714285715,11.092857142857142L9.164285714285715,10.235714285714284L10.021428571428569,10.235714285714284L10.021428571428569,10.021428571428569L14.307142857142857,10.021428571428569L14.307142857142857,9.807142857142857L16.664285714285715,9.807142857142857L16.664285714285715,9.378571428571426L16.878571428571426,9.378571428571426L16.878571428571426,8.62142857142857L15.907142857142858,8.62142857142857L15.907142857142858,8.835714285714285L15.05,8.835714285714285L15.05,9L14.95,9L14.95,8.735714285714284L15.807142857142857,8.735714285714284L15.807142857142857,8.521428571428569L16.978571428571428,8.521428571428569L16.978571428571428,9.478571428571428L16.764285714285716,9.478571428571428L16.764285714285716,9.907142857142858L14.407142857142858,9.907142857142858L14.407142857142858,10.12142857142857L10.12142857142857,10.12142857142857L10.12142857142857,10.335714285714285L9.264285714285716,10.335714285714285L9.264285714285716,11.192857142857143L9.05,11.192857142857143z" stroke="none"/><path d="M6,3.05L6,2.95L7.021428571428571,2.95L7.021428571428571,2.521428571428572L8.95,2.521428571428572L8.95,2.3071428571428574L11.192857142857143,2.3071428571428574L11.192857142857143,4.021428571428571L11.407142857142858,4.021428571428571L11.407142857142858,5.307142857142857L11.835714285714285,5.307142857142857L11.835714285714285,5.521428571428571L12.05,5.521428571428571L12.05,6L11.95,6L11.95,5.621428571428571L11.735714285714284,5.621428571428571L11.735714285714284,5.407142857142857L11.307142857142857,5.407142857142857L11.307142857142857,4.121428571428571L11.092857142857142,4.121428571428571L11.092857142857142,2.407142857142857L9.05,2.407142857142857L9.05,2.6214285714285714L7.121428571428571,2.6214285714285714L7.121428571428571,3.05z" stroke="none"/><path d="M19.5,3.05L19.5,2.95L20.307142857142857,2.95L20.307142857142857,2.7357142857142858L20.521428571428572,2.7357142857142858L20.521428571428572,2.521428571428572L23.307142857142857,2.521428571428572L23.307142857142857,2.3071428571428574L25.978571428571428,2.3071428571428574L25.978571428571428,2.521428571428572L26.192857142857143,2.521428571428572L26.192857142857143,2.7357142857142858L27.05,2.7357142857142858L27.05,3L26.95,3L26.95,2.8357142857142854L26.09285714285714,2.8357142857142854L26.09285714285714,2.6214285714285714L25.878571428571426,2.6214285714285714L25.878571428571426,2.407142857142857L23.40714285714286,2.407142857142857L23.40714285714286,2.6214285714285714L20.621428571428574,2.6214285714285714L20.621428571428574,2.8357142857142854L20.40714285714286,2.8357142857142854L20.40714285714286,3.05z" stroke="none"/><path d="M21.05,12L20.95,12L20.95,10.878571428571426L21.378571428571426,10.878571428571426L21.378571428571426,10.664285714285715L21.59285714285714,10.664285714285715L21.59285714285714,10.235714285714284L22.021428571428572,10.235714285714284L22.021428571428572,10.021428571428569L23.09285714285714,10.021428571428569L23.09285714285714,9.378571428571426L24.164285714285715,9.378571428571426L24.164285714285715,8.95L25.02142857142857,8.95L25.02142857142857,8.307142857142857L25.664285714285715,8.307142857142857L25.664285714285715,8.092857142857142L25.878571428571426,8.092857142857142L25.878571428571426,7.878571428571428L26.09285714285714,7.878571428571428L26.09285714285714,7.664285714285715L26.307142857142857,7.664285714285715L26.307142857142857,7.45L27,7.45L27,7.55L26.40714285714286,7.55L26.40714285714286,7.764285714285714L26.192857142857143,7.764285714285714L26.192857142857143,7.978571428571428L25.978571428571428,7.978571428571428L25.978571428571428,8.192857142857143L25.764285714285716,8.192857142857143L25.764285714285716,8.407142857142858L25.12142857142857,8.407142857142858L25.12142857142857,9.05L24.264285714285716,9.05L24.264285714285716,9.478571428571428L23.192857142857143,9.478571428571428L23.192857142857143,10.12142857142857L22.121428571428574,10.12142857142857L22.121428571428574,10.335714285714285L21.692857142857143,10.335714285714285L21.692857142857143,10.764285714285716L21.478571428571428,10.764285714285716L21.478571428571428,10.978571428571428L21.05,10.978571428571428z" stroke="none"/><path d="M2.95,4.5L3.05,4.5L3.05,5.192857142857142L2.8357142857142854,5.192857142857142L2.8357142857142854,5.407142857142857L2.6214285714285714,5.407142857142857L2.6214285714285714,6.5928571428571425L2.8357142857142854,6.5928571428571425L2.8357142857142854,6.807142857142857L3.05,6.807142857142857L3.05,7.021428571428571L3.478571428571428,7.021428571428571L3.478571428571428,7.45L4.121428571428571,7.45L4.121428571428571,7.878571428571428L4.335714285714285,7.878571428571428L4.335714285714285,8.092857142857142L12.378571428571426,8.092857142857142L12.378571428571426,7.121428571428571L10.764285714285716,7.121428571428571L10.764285714285716,7.55L10.5,7.55L10.5,7.45L10.664285714285715,7.45L10.664285714285715,7.021428571428571L12.478571428571428,7.021428571428571L12.478571428571428,8.192857142857143L4.235714285714286,8.192857142857143L4.235714285714286,7.978571428571428L4.021428571428571,7.978571428571428L4.021428571428571,7.55L3.3785714285714286,7.55L3.3785714285714286,7.121428571428571L2.95,7.121428571428571L2.95,6.907142857142857L2.7357142857142858,6.907142857142857L2.7357142857142858,6.692857142857142L2.521428571428572,6.692857142857142L2.521428571428572,5.307142857142857L2.7357142857142858,5.307142857142857L2.7357142857142858,5.0928571428571425L2.95,5.0928571428571425z" stroke="none"/><path d="M3,3.05L3,2.95L5.521428571428571,2.95L5.521428571428571,2.521428571428572L6.5928571428571425,2.521428571428572L6.5928571428571425,2.3071428571428574L8.735714285714284,2.3071428571428574L8.735714285714284,2.092857142857143L11.407142857142858,2.092857142857143L11.407142857142858,2.7357142857142858L11.835714285714285,2.7357142857142858L11.835714285714285,2.95L12,2.95L12,3.05L11.735714285714284,3.05L11.735714285714284,2.8357142857142854L11.307142857142857,2.8357142857142854L11.307142857142857,2.1928571428571426L8.835714285714285,2.1928571428571426L8.835714285714285,2.407142857142857L6.692857142857142,2.407142857142857L6.692857142857142,2.6214285714285714L5.621428571428571,2.6214285714285714L5.621428571428571,3.05z" stroke="none"/><path d="M7.45,3L7.55,3L7.55,3.2642857142857142L6.692857142857142,3.2642857142857142L6.692857142857142,3.478571428571428L2.521428571428572,3.478571428571428L2.521428571428572,2.521428571428572L3.8071428571428574,2.521428571428572L3.8071428571428574,2.3071428571428574L6.164285714285715,2.3071428571428574L6.164285714285715,2.092857142857143L8.521428571428569,2.092857142857143L8.521428571428569,1.8785714285714286L15.478571428571428,1.8785714285714286L15.478571428571428,2.092857142857143L15.692857142857143,2.092857142857143L15.692857142857143,2.3071428571428574L15.907142857142858,2.3071428571428574L15.907142857142858,2.7357142857142858L16.12142857142857,2.7357142857142858L16.12142857142857,2.95L16.5,2.95L16.5,3.05L16.02142857142857,3.05L16.02142857142857,2.8357142857142854L15.807142857142857,2.8357142857142854L15.807142857142857,2.407142857142857L15.592857142857142,2.407142857142857L15.592857142857142,2.1928571428571426L15.378571428571426,2.1928571428571426L15.378571428571426,1.9785714285714286L8.62142857142857,1.9785714285714286L8.62142857142857,2.1928571428571426L6.264285714285714,2.1928571428571426L6.264285714285714,2.407142857142857L3.907142857142857,2.407142857142857L3.907142857142857,2.6214285714285714L2.6214285714285714,2.6214285714285714L2.6214285714285714,3.3785714285714286L6.5928571428571425,3.3785714285714286L6.5928571428571425,3.1642857142857146L7.45,3.1642857142857146z" stroke="none"/><path d="M19.5,6.05L19.5,5.95L22.121428571428574,5.95L22.121428571428574,6.378571428571428L22.764285714285716,6.378571428571428L22.764285714285716,6.5928571428571425L27.05,6.5928571428571425L27.05,6.807142857142857L27.264285714285716,6.807142857142857L27.264285714285716,7.021428571428571L27.478571428571428,7.021428571428571L27.478571428571428,9.478571428571428L27.264285714285716,9.478571428571428L27.264285714285716,9.907142857142858L26.62142857142857,9.907142857142858L26.62142857142857,10.335714285714285L25.55,10.335714285714285L25.55,10.55L25.12142857142857,10.55L25.12142857142857,10.764285714285716L24.692857142857143,10.764285714285716L24.692857142857143,10.978571428571428L24.478571428571428,10.978571428571428L24.478571428571428,11.62142857142857L24.264285714285716,11.62142857142857L24.264285714285716,12.264285714285716L24.05,12.264285714285716L24.05,12.478571428571428L23.835714285714285,12.478571428571428L23.835714285714285,12.692857142857143L22.764285714285716,12.692857142857143L22.764285714285716,12.907142857142858L7.45,12.907142857142858L7.45,12.692857142857143L7.235714285714286,12.692857142857143L7.235714285714286,12.478571428571428L7.021428571428571,12.478571428571428L7.021428571428571,12.264285714285716L6.807142857142857,12.264285714285716L6.807142857142857,12.05L6.5928571428571425,12.05L6.5928571428571425,11.835714285714285L6.378571428571428,11.835714285714285L6.378571428571428,11.62142857142857L4.45,11.62142857142857L4.45,11.192857142857143L4.235714285714286,11.192857142857143L4.235714285714286,10.978571428571428L4.021428571428571,10.978571428571428L4.021428571428571,10.021428571428569L5.307142857142857,10.021428571428569L5.307142857142857,9.807142857142857L5.521428571428571,9.807142857142857L5.521428571428571,9.592857142857142L6.807142857142857,9.592857142857142L6.807142857142857,9.378571428571426L7.878571428571428,9.378571428571426L7.878571428571428,8.735714285714284L8.307142857142857,8.735714285714284L8.307142857142857,8.521428571428569L9.592857142857142,8.521428571428569L9.592857142857142,8.307142857142857L12.592857142857142,8.307142857142857L12.592857142857142,6.907142857142857L9.378571428571426,6.907142857142857L9.378571428571426,6.692857142857142L9.164285714285715,6.692857142857142L9.164285714285715,6.264285714285714L8.95,6.264285714285714L8.95,6L9.05,6L9.05,6.164285714285715L9.264285714285716,6.164285714285715L9.264285714285716,6.5928571428571425L9.478571428571428,6.5928571428571425L9.478571428571428,6.807142857142857L12.692857142857143,6.807142857142857L12.692857142857143,8.407142857142858L9.692857142857143,8.407142857142858L9.692857142857143,8.62142857142857L8.407142857142858,8.62142857142857L8.407142857142858,8.835714285714285L7.978571428571428,8.835714285714285L7.978571428571428,9.478571428571428L6.907142857142857,9.478571428571428L6.907142857142857,9.692857142857143L5.621428571428571,9.692857142857143L5.621428571428571,9.907142857142858L5.407142857142857,9.907142857142858L5.407142857142857,10.12142857142857L4.121428571428571,10.12142857142857L4.121428571428571,10.878571428571426L4.335714285714285,10.878571428571426L4.335714285714285,11.092857142857142L4.55,11.092857142857142L4.55,11.521428571428569L6.478571428571428,11.521428571428569L6.478571428571428,11.735714285714284L6.692857142857142,11.735714285714284L6.692857142857142,11.95L6.907142857142857,11.95L6.907142857142857,12.164285714285715L7.121428571428571,12.164285714285715L7.121428571428571,12.378571428571426L7.335714285714285,12.378571428571426L7.335714285714285,12.592857142857142L7.55,12.592857142857142L7.55,12.807142857142857L22.664285714285715,12.807142857142857L22.664285714285715,12.592857142857142L23.735714285714284,12.592857142857142L23.735714285714284,12.378571428571426L23.95,12.378571428571426L23.95,12.164285714285715L24.164285714285715,12.164285714285715L24.164285714285715,11.521428571428569L24.378571428571426,11.521428571428569L24.378571428571426,10.878571428571426L24.59285714285714,10.878571428571426L24.59285714285714,10.664285714285715L25.02142857142857,10.664285714285715L25.02142857142857,10.45L25.45,10.45L25.45,10.235714285714284L26.52142857142857,10.235714285714284L26.52142857142857,9.807142857142857L27.164285714285715,9.807142857142857L27.164285714285715,9.378571428571426L27.378571428571426,9.378571428571426L27.378571428571426,7.121428571428571L27.164285714285715,7.121428571428571L27.164285714285715,6.907142857142857L26.95,6.907142857142857L26.95,6.692857142857142L22.664285714285715,6.692857142857142L22.664285714285715,6.478571428571428L22.021428571428572,6.478571428571428L22.021428571428572,6.05z" stroke="none"/><path d="M3,7.45L3,7.55L2.521428571428572,7.55L2.521428571428572,7.335714285714285L2.3071428571428574,7.335714285714285L2.3071428571428574,2.3071428571428574L3.3785714285714286,2.3071428571428574L3.3785714285714286,2.092857142857143L5.95,2.092857142857143L5.95,1.8785714285714286L7.878571428571428,1.8785714285714286L7.878571428571428,1.6642857142857144L15.692857142857143,1.6642857142857144L15.692857142857143,1.8785714285714286L15.907142857142858,1.8785714285714286L15.907142857142858,2.092857142857143L16.55,2.092857142857143L16.55,2.3071428571428574L16.978571428571428,2.3071428571428574L16.978571428571428,3.478571428571428L16.02142857142857,3.478571428571428L16.02142857142857,3.2642857142857142L15.807142857142857,3.2642857142857142L15.807142857142857,3.05L15.592857142857142,3.05L15.592857142857142,2.6214285714285714L13.764285714285716,2.6214285714285714L13.764285714285716,3.05L13.5,3.05L13.5,2.95L13.664285714285715,2.95L13.664285714285715,2.521428571428572L15.692857142857143,2.521428571428572L15.692857142857143,2.95L15.907142857142858,2.95L15.907142857142858,3.1642857142857146L16.12142857142857,3.1642857142857146L16.12142857142857,3.3785714285714286L16.878571428571426,3.3785714285714286L16.878571428571426,2.407142857142857L16.45,2.407142857142857L16.45,2.1928571428571426L15.807142857142857,2.1928571428571426L15.807142857142857,1.9785714285714286L15.592857142857142,1.9785714285714286L15.592857142857142,1.7642857142857145L7.978571428571428,1.7642857142857145L7.978571428571428,1.9785714285714286L6.05,1.9785714285714286L6.05,2.1928571428571426L3.478571428571428,2.1928571428571426L3.478571428571428,2.407142857142857L2.407142857142857,2.407142857142857L2.407142857142857,7.235714285714286L2.6214285714285714,7.235714285714286L2.6214285714285714,7.45z" stroke="none"/><path d="M12,4.55L12,4.45L12.692857142857143,4.45L12.692857142857143,4.664285714285715L13.12142857142857,4.664285714285715L13.12142857142857,4.878571428571429L15.592857142857142,4.878571428571429L15.592857142857142,4.664285714285715L15.807142857142857,4.664285714285715L15.807142857142857,4.235714285714286L17.95,4.235714285714286L17.95,4.021428571428571L18.164285714285715,4.021428571428571L18.164285714285715,3.8071428571428574L18.378571428571426,3.8071428571428574L18.378571428571426,3.592857142857143L18.59285714285714,3.592857142857143L18.59285714285714,2.95L18.807142857142857,2.95L18.807142857142857,2.521428571428572L20.307142857142857,2.521428571428572L20.307142857142857,2.3071428571428574L23.09285714285714,2.3071428571428574L23.09285714285714,2.092857142857143L27.264285714285716,2.092857142857143L27.264285714285716,2.3071428571428574L27.478571428571428,2.3071428571428574L27.478571428571428,3.6928571428571426L27.264285714285716,3.6928571428571426L27.264285714285716,4.121428571428571L27.05,4.121428571428571L27.05,4.335714285714285L26.835714285714285,4.335714285714285L26.835714285714285,4.55L26.62142857142857,4.55L26.62142857142857,4.764285714285714L25.978571428571428,4.764285714285714L25.978571428571428,4.978571428571429L24.807142857142857,4.978571428571429L24.807142857142857,4.764285714285714L24.59285714285714,4.764285714285714L24.59285714285714,4.55L24,4.55L24,4.45L24.692857142857143,4.45L24.692857142857143,4.664285714285715L24.90714285714286,4.664285714285715L24.90714285714286,4.878571428571429L25.878571428571426,4.878571428571429L25.878571428571426,4.664285714285715L26.52142857142857,4.664285714285715L26.52142857142857,4.45L26.735714285714284,4.45L26.735714285714284,4.235714285714286L26.95,4.235714285714286L26.95,4.021428571428571L27.164285714285715,4.021428571428571L27.164285714285715,3.592857142857143L27.378571428571426,3.592857142857143L27.378571428571426,2.407142857142857L27.164285714285715,2.407142857142857L27.164285714285715,2.1928571428571426L23.192857142857143,2.1928571428571426L23.192857142857143,2.407142857142857L20.40714285714286,2.407142857142857L20.40714285714286,2.6214285714285714L18.90714285714286,2.6214285714285714L18.90714285714286,3.05L18.692857142857143,3.05L18.692857142857143,3.6928571428571426L18.478571428571428,3.6928571428571426L18.478571428571428,3.907142857142857L18.264285714285716,3.907142857142857L18.264285714285716,4.121428571428571L18.05,4.121428571428571L18.05,4.335714285714285L15.907142857142858,4.335714285714285L15.907142857142858,4.764285714285714L15.692857142857143,4.764285714285714L15.692857142857143,4.978571428571429L13.021428571428569,4.978571428571429L13.021428571428569,4.764285714285714L12.592857142857142,4.764285714285714L12.592857142857142,4.55z" stroke="none"/><path d="M6,10.55L6,10.45L7.335714285714285,10.45L7.335714285714285,11.092857142857142L7.55,11.092857142857142L7.55,11.307142857142857L7.764285714285714,11.307142857142857L7.764285714285714,11.735714285714284L7.978571428571428,11.735714285714284L7.978571428571428,11.95L8.407142857142858,11.95L8.407142857142858,12.378571428571426L10.55,12.378571428571426L10.55,12.592857142857142L16.878571428571426,12.592857142857142L16.878571428571426,11.307142857142857L17.09285714285714,11.307142857142857L17.09285714285714,11.092857142857142L17.307142857142857,11.092857142857142L17.307142857142857,10.664285714285715L17.521428571428572,10.664285714285715L17.521428571428572,10.45L18,10.45L18,10.55L17.621428571428574,10.55L17.621428571428574,10.764285714285716L17.40714285714286,10.764285714285716L17.40714285714286,11.192857142857143L17.192857142857143,11.192857142857143L17.192857142857143,11.407142857142858L16.978571428571428,11.407142857142858L16.978571428571428,12.692857142857143L10.45,12.692857142857143L10.45,12.478571428571428L8.307142857142857,12.478571428571428L8.307142857142857,12.05L7.878571428571428,12.05L7.878571428571428,11.835714285714285L7.664285714285715,11.835714285714285L7.664285714285715,11.407142857142858L7.45,11.407142857142858L7.45,11.192857142857143L7.235714285714286,11.192857142857143L7.235714285714286,10.55z" stroke="none"/></svg>