<svg version="1.1" width="30" height="15" xmlns="http://www.w3.org/2000/svg"><path d="M21.807142857142857,7.878571428571428L21.807142857142857,7.021428571428571L22.45,7.021428571428571L22.45,6.5928571428571425L22.664285714285715,6.5928571428571425L22.664285714285715,6.378571428571428L22.878571428571426,6.378571428571428L22.878571428571426,6.164285714285715L23.52142857142857,6.164285714285715L23.52142857142857,5.95L24,5.95L24,6.05L23.62142857142857,6.05L23.62142857142857,6.264285714285714L22.978571428571428,6.264285714285714L22.978571428571428,6.478571428571428L22.764285714285716,6.478571428571428L22.764285714285716,6.692857142857142L22.55,6.692857142857142L22.55,7.121428571428571L21.90714285714286,7.121428571428571L21.90714285714286,7.978571428571428L20.40714285714286,7.978571428571428L20.40714285714286,8.407142857142858L20.192857142857143,8.407142857142858L20.192857142857143,8.62142857142857L19.978571428571428,8.62142857142857L19.978571428571428,9.05L19.5,9.05L19.5,8.95L19.878571428571426,8.95L19.878571428571426,8.521428571428569L20.09285714285714,8.521428571428569L20.09285714285714,8.307142857142857L20.307142857142857,8.307142857142857L20.307142857142857,7.978571428571428L19.978571428571428,7.978571428571428L19.978571428571428,8.192857142857143L19.55,8.192857142857143L19.55,8.62142857142857L19.335714285714285,8.62142857142857L19.335714285714285,9.05L18,9.05L18,8.95L19.235714285714284,8.95L19.235714285714284,8.521428571428569L19.45,8.521428571428569L19.45,8.092857142857142L19.878571428571426,8.092857142857142L19.878571428571426,7.878571428571428z" stroke="none"/><path d="M23.09285714285714,11.307142857142857L23.09285714285714,11.092857142857142L23.307142857142857,11.092857142857142L23.307142857142857,10.878571428571426L23.735714285714284,10.878571428571426L23.735714285714284,10.45L24,10.45L24,10.55L23.835714285714285,10.55L23.835714285714285,10.978571428571428L23.40714285714286,10.978571428571428L23.40714285714286,11.192857142857143L23.192857142857143,11.192857142857143L23.192857142857143,11.407142857142858L22.978571428571428,11.407142857142858L22.978571428571428,11.521428571428569L25.335714285714285,11.521428571428569L25.335714285714285,11.95L25.5,11.95L25.5,12.05L25.235714285714284,12.05L25.235714285714284,11.62142857142857L22.878571428571426,11.62142857142857L22.878571428571426,11.407142857142858L21.478571428571428,11.407142857142858L21.478571428571428,11.62142857142857L20.40714285714286,11.62142857142857L20.40714285714286,11.835714285714285L20.192857142857143,11.835714285714285L20.192857142857143,12.05L19.5,12.05L19.5,11.95L20.09285714285714,11.95L20.09285714285714,11.735714285714284L20.307142857142857,11.735714285714284L20.307142857142857,11.521428571428569L21.378571428571426,11.521428571428569L21.378571428571426,11.307142857142857z" stroke="none"/><path d="M10.45,8.521428571428569L11.092857142857142,8.521428571428569L11.092857142857142,8.307142857142857L11.307142857142857,8.307142857142857L11.307142857142857,8.092857142857142L11.521428571428569,8.092857142857142L11.521428571428569,7.878571428571428L11.95,7.878571428571428L11.95,7.5L12.05,7.5L12.05,7.978571428571428L11.62142857142857,7.978571428571428L11.62142857142857,8.192857142857143L11.407142857142858,8.192857142857143L11.407142857142858,8.407142857142858L11.192857142857143,8.407142857142858L11.192857142857143,8.62142857142857L10.55,8.62142857142857L10.55,8.95L11.521428571428569,8.95L11.521428571428569,8.307142857142857L12.378571428571426,8.307142857142857L12.378571428571426,7.878571428571428L12.592857142857142,7.878571428571428L12.592857142857142,7.664285714285715L14.95,7.664285714285715L14.95,7.5L15.05,7.5L15.05,7.764285714285714L12.692857142857143,7.764285714285714L12.692857142857143,7.978571428571428L12.478571428571428,7.978571428571428L12.478571428571428,8.407142857142858L11.62142857142857,8.407142857142858L11.62142857142857,9.05L10.55,9.05L10.55,10.764285714285716L7.978571428571428,10.764285714285716L7.978571428571428,10.978571428571428L7.764285714285714,10.978571428571428L7.764285714285714,11.192857142857143L7.55,11.192857142857143L7.55,11.62142857142857L5.835714285714285,11.62142857142857L5.835714285714285,11.835714285714285L4.55,11.835714285714285L4.55,12L4.45,12L4.45,11.735714285714284L5.735714285714286,11.735714285714284L5.735714285714286,11.521428571428569L7.45,11.521428571428569L7.45,11.092857142857142L7.664285714285715,11.092857142857142L7.664285714285715,10.878571428571426L7.878571428571428,10.878571428571426L7.878571428571428,10.664285714285715L10.45,10.664285714285715z" stroke="none"/><path d="M13.021428571428569,11.092857142857142L13.021428571428569,10.664285714285715L14.092857142857142,10.664285714285715L14.092857142857142,10.45L15,10.45L15,10.55L14.192857142857143,10.55L14.192857142857143,10.764285714285716L13.12142857142857,10.764285714285716L13.12142857142857,11.092857142857142L16.55,11.092857142857142L16.55,11.307142857142857L16.764285714285716,11.307142857142857L16.764285714285716,11.521428571428569L16.978571428571428,11.521428571428569L16.978571428571428,11.95L18,11.95L18,12.05L16.878571428571426,12.05L16.878571428571426,11.62142857142857L16.664285714285715,11.62142857142857L16.664285714285715,11.407142857142858L16.45,11.407142857142858L16.45,11.192857142857143L13.12142857142857,11.192857142857143L13.12142857142857,11.95L13.5,11.95L13.5,12.05L13.021428571428569,12.05L13.021428571428569,11.192857142857143L9.478571428571428,11.192857142857143L9.478571428571428,11.407142857142858L9.264285714285716,11.407142857142858L9.264285714285716,12.05L8.835714285714285,12.05L8.835714285714285,12.264285714285716L8.407142857142858,12.264285714285716L8.407142857142858,12.478571428571428L4.021428571428571,12.478571428571428L4.021428571428571,11.521428571428569L5.521428571428571,11.521428571428569L5.521428571428571,11.092857142857142L5.735714285714286,11.092857142857142L5.735714285714286,10.45L6,10.45L6,10.55L5.835714285714285,10.55L5.835714285714285,11.192857142857143L5.621428571428571,11.192857142857143L5.621428571428571,11.62142857142857L4.121428571428571,11.62142857142857L4.121428571428571,12.378571428571426L8.307142857142857,12.378571428571426L8.307142857142857,12.164285714285715L8.735714285714284,12.164285714285715L8.735714285714284,11.95L9.164285714285715,11.95L9.164285714285715,11.307142857142857L9.378571428571426,11.307142857142857L9.378571428571426,11.092857142857142z" stroke="none"/><path d="M20.09285714285714,4.45L20.09285714285714,4.121428571428571L18.478571428571428,4.121428571428571L18.478571428571428,4.335714285714285L18.264285714285716,4.335714285714285L18.264285714285716,4.55L18,4.55L18,4.45L18.164285714285715,4.45L18.164285714285715,4.235714285714286L18.378571428571426,4.235714285714286L18.378571428571426,4.021428571428571L20.192857142857143,4.021428571428571L20.192857142857143,4.45L20.307142857142857,4.45L20.307142857142857,3.907142857142857L17.521428571428572,3.907142857142857L17.521428571428572,3.05L16.5,3.05L16.5,2.95L17.621428571428574,2.95L17.621428571428574,3.8071428571428574L20.40714285714286,3.8071428571428574L20.40714285714286,4.55L20.192857142857143,4.55L20.192857142857143,4.664285714285715L23.62142857142857,4.664285714285715L23.62142857142857,4.878571428571429L25.02142857142857,4.878571428571429L25.02142857142857,4.45L25.5,4.45L25.5,4.55L25.12142857142857,4.55L25.12142857142857,4.978571428571429L23.52142857142857,4.978571428571429L23.52142857142857,4.764285714285714L20.09285714285714,4.764285714285714L20.09285714285714,4.55L19.978571428571428,4.55L19.978571428571428,4.978571428571429L19.335714285714285,4.978571428571429L19.335714285714285,5.192857142857142L18.90714285714286,5.192857142857142L18.90714285714286,5.407142857142857L18.692857142857143,5.407142857142857L18.692857142857143,5.621428571428571L18.478571428571428,5.621428571428571L18.478571428571428,6.05L18,6.05L18,5.95L18.378571428571426,5.95L18.378571428571426,5.521428571428571L18.59285714285714,5.521428571428571L18.59285714285714,5.307142857142857L18.807142857142857,5.307142857142857L18.807142857142857,5.0928571428571425L19.235714285714284,5.0928571428571425L19.235714285714284,4.878571428571429L19.878571428571426,4.878571428571429L19.878571428571426,4.45z" stroke="none"/><path d="M7.45,4.664285714285715L7.45,3.592857142857143L7.664285714285715,3.592857142857143L7.664285714285715,3.3785714285714286L8.307142857142857,3.3785714285714286L8.307142857142857,2.95L8.521428571428569,2.95L8.521428571428569,2.7357142857142858L15.05,2.7357142857142858L15.05,3L14.95,3L14.95,2.8357142857142854L8.62142857142857,2.8357142857142854L8.62142857142857,3.05L8.407142857142858,3.05L8.407142857142858,3.478571428571428L7.764285714285714,3.478571428571428L7.764285714285714,3.6928571428571426L7.55,3.6928571428571426L7.55,4.664285714285715L7.878571428571428,4.664285714285715L7.878571428571428,4.235714285714286L8.521428571428569,4.235714285714286L8.521428571428569,3.8071428571428574L8.735714285714284,3.8071428571428574L8.735714285714284,3.1642857142857146L8.95,3.1642857142857146L8.95,3L9.05,3L9.05,3.2642857142857142L8.835714285714285,3.2642857142857142L8.835714285714285,3.907142857142857L8.62142857142857,3.907142857142857L8.62142857142857,4.335714285714285L7.978571428571428,4.335714285714285L7.978571428571428,4.764285714285714L7.55,4.764285714285714L7.55,4.978571428571429L7.121428571428571,4.978571428571429L7.121428571428571,5.192857142857142L4.55,5.192857142857142L4.55,5.407142857142857L4.335714285714285,5.407142857142857L4.335714285714285,5.621428571428571L4.121428571428571,5.621428571428571L4.121428571428571,5.835714285714285L3.907142857142857,5.835714285714285L3.907142857142857,6.478571428571428L3.6928571428571426,6.478571428571428L3.6928571428571426,6.692857142857142L3.478571428571428,6.692857142857142L3.478571428571428,6.907142857142857L3.2642857142857142,6.907142857142857L3.2642857142857142,7.335714285714285L3.05,7.335714285714285L3.05,7.5L2.95,7.5L2.95,7.235714285714286L3.1642857142857146,7.235714285714286L3.1642857142857146,6.807142857142857L3.3785714285714286,6.807142857142857L3.3785714285714286,6.5928571428571425L3.592857142857143,6.5928571428571425L3.592857142857143,6.378571428571428L3.8071428571428574,6.378571428571428L3.8071428571428574,5.735714285714286L4.021428571428571,5.735714285714286L4.021428571428571,5.521428571428571L4.235714285714286,5.521428571428571L4.235714285714286,5.307142857142857L4.45,5.307142857142857L4.45,5.0928571428571425L7.021428571428571,5.0928571428571425L7.021428571428571,4.878571428571429L7.45,4.878571428571429L7.45,4.764285714285714L6.478571428571428,4.764285714285714L6.478571428571428,4.978571428571429L3.907142857142857,4.978571428571429L3.907142857142857,5.192857142857142L3.6928571428571426,5.192857142857142L3.6928571428571426,5.407142857142857L3.2642857142857142,5.407142857142857L3.2642857142857142,5.835714285714285L3.05,5.835714285714285L3.05,6L2.95,6L2.95,5.735714285714286L3.1642857142857146,5.735714285714286L3.1642857142857146,5.307142857142857L3.592857142857143,5.307142857142857L3.592857142857143,5.0928571428571425L3.8071428571428574,5.0928571428571425L3.8071428571428574,4.878571428571429L6.378571428571428,4.878571428571429L6.378571428571428,4.664285714285715z" stroke="none"/><path d="M3.05,10.5L2.95,10.5L2.95,9L3.05,9z" stroke="none"/><path d="M22.45,9L22.55,9L22.55,9.264285714285716L21.90714285714286,9.264285714285716L21.90714285714286,9.478571428571428L21.478571428571428,9.478571428571428L21.478571428571428,9.907142857142858L21.264285714285716,9.907142857142858L21.264285714285716,10.335714285714285L21.05,10.335714285714285L21.05,10.5L20.95,10.5L20.95,10.235714285714284L21.164285714285715,10.235714285714284L21.164285714285715,9.807142857142857L21.378571428571426,9.807142857142857L21.378571428571426,9.378571428571426L21.807142857142857,9.378571428571426L21.807142857142857,9.164285714285715L22.45,9.164285714285715z" stroke="none"/><path d="M22.5,5.95L22.5,6.05L19.5,6.05L19.5,5.95z" stroke="none"/><path d="M7.5,9.05L7.5,8.95L7.664285714285715,8.95L7.664285714285715,7.878571428571428L7.878571428571428,7.878571428571428L7.878571428571428,6.907142857142857L7.664285714285715,6.907142857142857L7.664285714285715,6.478571428571428L7.45,6.478571428571428L7.45,6L7.55,6L7.55,6.378571428571428L7.764285714285714,6.378571428571428L7.764285714285714,6.807142857142857L7.978571428571428,6.807142857142857L7.978571428571428,7.978571428571428L7.764285714285714,7.978571428571428L7.764285714285714,9.05z" stroke="none"/><path d="M26.95,4.5L27.05,4.5L27.05,7.5L26.95,7.5z" stroke="none"/><path d="M4.55,9L4.45,9L4.45,6L4.55,6z" stroke="none"/><path d="M7.55,7.5L7.45,7.5L7.45,6.692857142857142L7.235714285714286,6.692857142857142L7.235714285714286,6.478571428571428L7.021428571428571,6.478571428571428L7.021428571428571,5.521428571428571L9.907142857142858,5.521428571428571L9.907142857142858,5.735714285714286L10.55,5.735714285714286L10.55,6L10.45,6L10.45,5.835714285714285L9.807142857142857,5.835714285714285L9.807142857142857,5.621428571428571L7.121428571428571,5.621428571428571L7.121428571428571,6.378571428571428L7.335714285714285,6.378571428571428L7.335714285714285,6.5928571428571425L7.55,6.5928571428571425z" stroke="none"/><path d="M24,4.55L24,4.45L24.164285714285715,4.45L24.164285714285715,4.235714285714286L25.02142857142857,4.235714285714286L25.02142857142857,4.021428571428571L26.09285714285714,4.021428571428571L26.09285714285714,3.592857142857143L26.307142857142857,3.592857142857143L26.307142857142857,3.3785714285714286L26.735714285714284,3.3785714285714286L26.735714285714284,3.1642857142857146L26.95,3.1642857142857146L26.95,3L27.05,3L27.05,3.2642857142857142L26.835714285714285,3.2642857142857142L26.835714285714285,3.478571428571428L26.40714285714286,3.478571428571428L26.40714285714286,3.6928571428571426L26.192857142857143,3.6928571428571426L26.192857142857143,4.121428571428571L25.12142857142857,4.121428571428571L25.12142857142857,4.335714285714285L24.264285714285716,4.335714285714285L24.264285714285716,4.55z" stroke="none"/><path d="M6,9.05L6,8.95L6.478571428571428,8.95L6.478571428571428,9.164285714285715L6.692857142857142,9.164285714285715L6.692857142857142,9.378571428571426L7.878571428571428,9.378571428571426L7.878571428571428,9.164285714285715L8.307142857142857,9.164285714285715L8.307142857142857,8.735714285714284L9.378571428571426,8.735714285714284L9.378571428571426,8.521428571428569L9.592857142857142,8.521428571428569L9.592857142857142,8.307142857142857L9.807142857142857,8.307142857142857L9.807142857142857,8.092857142857142L10.235714285714284,8.092857142857142L10.235714285714284,7.45L10.5,7.45L10.5,7.55L10.335714285714285,7.55L10.335714285714285,8.192857142857143L9.907142857142858,8.192857142857143L9.907142857142858,8.407142857142858L9.692857142857143,8.407142857142858L9.692857142857143,8.62142857142857L9.478571428571428,8.62142857142857L9.478571428571428,8.835714285714285L8.407142857142858,8.835714285714285L8.407142857142858,9.264285714285716L7.978571428571428,9.264285714285716L7.978571428571428,9.478571428571428L6.5928571428571425,9.478571428571428L6.5928571428571425,9.264285714285716L6.378571428571428,9.264285714285716L6.378571428571428,9.05z" stroke="none"/><path d="M21,2.95L21,3.05L19.878571428571426,3.05L19.878571428571426,2.6214285714285714L16.12142857142857,2.6214285714285714L16.12142857142857,4.021428571428571L16.335714285714285,4.021428571428571L16.335714285714285,4.235714285714286L16.55,4.235714285714286L16.55,4.5L16.45,4.5L16.45,4.335714285714285L16.235714285714284,4.335714285714285L16.235714285714284,4.121428571428571L16.02142857142857,4.121428571428571L16.02142857142857,2.521428571428572L19.978571428571428,2.521428571428572L19.978571428571428,2.95z" stroke="none"/><path d="M24,3.05L24,2.95L26.52142857142857,2.95L26.52142857142857,2.521428571428572L27.478571428571428,2.521428571428572L27.478571428571428,3.6928571428571426L26.62142857142857,3.6928571428571426L26.62142857142857,5.621428571428571L25.978571428571428,5.621428571428571L25.978571428571428,6.264285714285714L25.335714285714285,6.264285714285714L25.335714285714285,6.478571428571428L23.192857142857143,6.478571428571428L23.192857142857143,6.692857142857142L22.978571428571428,6.692857142857142L22.978571428571428,6.907142857142857L22.764285714285716,6.907142857142857L22.764285714285716,7.55L22.5,7.55L22.5,7.45L22.664285714285715,7.45L22.664285714285715,6.807142857142857L22.878571428571426,6.807142857142857L22.878571428571426,6.5928571428571425L23.09285714285714,6.5928571428571425L23.09285714285714,6.378571428571428L25.235714285714284,6.378571428571428L25.235714285714284,6.164285714285715L25.878571428571426,6.164285714285715L25.878571428571426,5.521428571428571L26.52142857142857,5.521428571428571L26.52142857142857,3.592857142857143L27.378571428571426,3.592857142857143L27.378571428571426,2.6214285714285714L26.62142857142857,2.6214285714285714L26.62142857142857,3.05z" stroke="none"/><path d="M3,4.55L3,4.45L5.307142857142857,4.45L5.307142857142857,4.021428571428571L5.735714285714286,4.021428571428571L5.735714285714286,3.3785714285714286L6.807142857142857,3.3785714285714286L6.807142857142857,3.1642857142857146L7.235714285714286,3.1642857142857146L7.235714285714286,2.95L7.5,2.95L7.5,3.05L7.335714285714285,3.05L7.335714285714285,3.2642857142857142L6.907142857142857,3.2642857142857142L6.907142857142857,3.478571428571428L5.835714285714285,3.478571428571428L5.835714285714285,4.121428571428571L5.407142857142857,4.121428571428571L5.407142857142857,4.55z" stroke="none"/><path d="M16.5,11.95L16.5,12.05L14.192857142857143,12.05L14.192857142857143,12.478571428571428L11.307142857142857,12.478571428571428L11.307142857142857,12.264285714285716L10.45,12.264285714285716L10.45,12L10.55,12L10.55,12.164285714285715L11.407142857142858,12.164285714285715L11.407142857142858,12.378571428571426L14.092857142857142,12.378571428571426L14.092857142857142,11.95z" stroke="none"/><path d="M15,4.45L15,4.55L14.62142857142857,4.55L14.62142857142857,4.764285714285714L13.978571428571428,4.764285714285714L13.978571428571428,4.978571428571429L12.264285714285716,4.978571428571429L12.264285714285716,5.192857142857142L11.835714285714285,5.192857142857142L11.835714285714285,5.407142857142857L11.62142857142857,5.407142857142857L11.62142857142857,5.835714285714285L11.407142857142858,5.835714285714285L11.407142857142858,6.05L11.192857142857143,6.05L11.192857142857143,6.478571428571428L9.164285714285715,6.478571428571428L9.164285714285715,6.05L9,6.05L9,5.95L9.264285714285716,5.95L9.264285714285716,6.378571428571428L11.092857142857142,6.378571428571428L11.092857142857142,5.95L11.307142857142857,5.95L11.307142857142857,5.735714285714286L11.521428571428569,5.735714285714286L11.521428571428569,5.307142857142857L11.735714285714284,5.307142857142857L11.735714285714284,5.0928571428571425L12.164285714285715,5.0928571428571425L12.164285714285715,4.878571428571429L13.878571428571426,4.878571428571429L13.878571428571426,4.664285714285715L14.521428571428569,4.664285714285715L14.521428571428569,4.45z" stroke="none"/><path d="M24,7.55L24,7.45L26.40714285714286,7.45L26.40714285714286,7.878571428571428L27.378571428571426,7.878571428571428L27.378571428571426,4.021428571428571L27.59285714285714,4.021428571428571L27.59285714285714,2.407142857142857L22.121428571428574,2.407142857142857L22.121428571428574,3.05L21.692857142857143,3.05L21.692857142857143,3.2642857142857142L21.478571428571428,3.2642857142857142L21.478571428571428,3.478571428571428L20.09285714285714,3.478571428571428L20.09285714285714,3.2642857142857142L19.664285714285715,3.2642857142857142L19.664285714285715,3.05L19.5,3.05L19.5,2.95L19.764285714285716,2.95L19.764285714285716,3.1642857142857146L20.192857142857143,3.1642857142857146L20.192857142857143,3.3785714285714286L21.378571428571426,3.3785714285714286L21.378571428571426,3.1642857142857146L21.59285714285714,3.1642857142857146L21.59285714285714,2.95L22.021428571428572,2.95L22.021428571428572,2.3071428571428574L27.692857142857143,2.3071428571428574L27.692857142857143,4.121428571428571L27.478571428571428,4.121428571428571L27.478571428571428,7.978571428571428L26.307142857142857,7.978571428571428L26.307142857142857,7.55z" stroke="none"/><path d="M6,3.05L6,2.95L6.164285714285715,2.95L6.164285714285715,2.7357142857142858L6.5928571428571425,2.7357142857142858L6.5928571428571425,2.521428571428572L15.478571428571428,2.521428571428572L15.478571428571428,4.978571428571429L15.264285714285716,4.978571428571429L15.264285714285716,5.192857142857142L12.907142857142858,5.192857142857142L12.907142857142858,5.621428571428571L12.264285714285716,5.621428571428571L12.264285714285716,6.05L12,6.05L12,5.95L12.164285714285715,5.95L12.164285714285715,5.521428571428571L12.807142857142857,5.521428571428571L12.807142857142857,5.0928571428571425L15.164285714285715,5.0928571428571425L15.164285714285715,4.878571428571429L15.378571428571426,4.878571428571429L15.378571428571426,2.6214285714285714L6.692857142857142,2.6214285714285714L6.692857142857142,2.8357142857142854L6.264285714285714,2.8357142857142854L6.264285714285714,3.05z" stroke="none"/><path d="M27,10.45L27,10.55L24.378571428571426,10.55L24.378571428571426,10.12142857142857L23.62142857142857,10.12142857142857L23.62142857142857,10.335714285714285L23.40714285714286,10.335714285714285L23.40714285714286,10.764285714285716L22.764285714285716,10.764285714285716L22.764285714285716,10.978571428571428L19.878571428571426,10.978571428571428L19.878571428571426,10.764285714285716L19.45,10.764285714285716L19.45,10.5L19.55,10.5L19.55,10.664285714285715L19.978571428571428,10.664285714285715L19.978571428571428,10.878571428571426L22.664285714285715,10.878571428571426L22.664285714285715,10.664285714285715L23.307142857142857,10.664285714285715L23.307142857142857,10.235714285714284L23.52142857142857,10.235714285714284L23.52142857142857,10.021428571428569L24.478571428571428,10.021428571428569L24.478571428571428,10.45z" stroke="none"/><path d="M13.5,9.05L13.5,8.95L14.092857142857142,8.95L14.092857142857142,8.735714285714284L14.307142857142857,8.735714285714284L14.307142857142857,8.521428571428569L14.95,8.521428571428569L14.95,8.307142857142857L15.164285714285715,8.307142857142857L15.164285714285715,7.878571428571428L15.378571428571426,7.878571428571428L15.378571428571426,5.95L16.45,5.95L16.45,5.521428571428571L17.09285714285714,5.521428571428571L17.09285714285714,5.307142857142857L17.307142857142857,5.307142857142857L17.307142857142857,5.0928571428571425L18.378571428571426,5.0928571428571425L18.378571428571426,4.878571428571429L18.807142857142857,4.878571428571429L18.807142857142857,4.664285714285715L19.45,4.664285714285715L19.45,4.5L19.55,4.5L19.55,4.764285714285714L18.90714285714286,4.764285714285714L18.90714285714286,4.978571428571429L18.478571428571428,4.978571428571429L18.478571428571428,5.192857142857142L17.40714285714286,5.192857142857142L17.40714285714286,5.407142857142857L17.192857142857143,5.407142857142857L17.192857142857143,5.621428571428571L16.55,5.621428571428571L16.55,6.05L15.478571428571428,6.05L15.478571428571428,7.978571428571428L15.264285714285716,7.978571428571428L15.264285714285716,8.407142857142858L15.05,8.407142857142858L15.05,8.62142857142857L14.407142857142858,8.62142857142857L14.407142857142858,8.835714285714285L14.192857142857143,8.835714285714285L14.192857142857143,9.05z" stroke="none"/><path d="M7.55,12L7.45,12L7.45,11.735714285714284L7.664285714285715,11.735714285714284L7.664285714285715,11.521428571428569L8.092857142857142,11.521428571428569L8.092857142857142,11.307142857142857L8.735714285714284,11.307142857142857L8.735714285714284,11.092857142857142L9.164285714285715,11.092857142857142L9.164285714285715,10.878571428571426L12.592857142857142,10.878571428571426L12.592857142857142,10.45L13.878571428571426,10.45L13.878571428571426,10.235714285714284L14.521428571428569,10.235714285714284L14.521428571428569,9.164285714285715L14.735714285714284,9.164285714285715L14.735714285714284,8.95L15,8.95L15,9.05L14.835714285714285,9.05L14.835714285714285,9.264285714285716L14.62142857142857,9.264285714285716L14.62142857142857,10.335714285714285L13.978571428571428,10.335714285714285L13.978571428571428,10.55L12.692857142857143,10.55L12.692857142857143,10.978571428571428L9.264285714285716,10.978571428571428L9.264285714285716,11.192857142857143L8.835714285714285,11.192857142857143L8.835714285714285,11.407142857142858L8.192857142857143,11.407142857142858L8.192857142857143,11.62142857142857L7.764285714285714,11.62142857142857L7.764285714285714,11.835714285714285L7.55,11.835714285714285z" stroke="none"/><path d="M21,11.95L21,12.05L20.835714285714285,12.05L20.835714285714285,12.264285714285716L19.978571428571428,12.264285714285716L19.978571428571428,12.478571428571428L16.978571428571428,12.478571428571428L16.978571428571428,12.692857142857143L10.021428571428569,12.692857142857143L10.021428571428569,11.521428571428569L11.62142857142857,11.521428571428569L11.62142857142857,11.735714285714284L11.835714285714285,11.735714285714284L11.835714285714285,11.95L12,11.95L12,12.05L11.735714285714284,12.05L11.735714285714284,11.835714285714285L11.521428571428569,11.835714285714285L11.521428571428569,11.62142857142857L10.12142857142857,11.62142857142857L10.12142857142857,12.592857142857142L16.878571428571426,12.592857142857142L16.878571428571426,12.378571428571426L19.878571428571426,12.378571428571426L19.878571428571426,12.164285714285715L20.735714285714284,12.164285714285715L20.735714285714284,11.95z" stroke="none"/><path d="M6,4.45L6,4.55L5.835714285714285,4.55L5.835714285714285,4.764285714285714L3.6928571428571426,4.764285714285714L3.6928571428571426,4.978571428571429L2.521428571428572,4.978571428571429L2.521428571428572,4.021428571428571L5.0928571428571425,4.021428571428571L5.0928571428571425,2.7357142857142858L5.521428571428571,2.7357142857142858L5.521428571428571,2.521428571428572L6.378571428571428,2.521428571428572L6.378571428571428,2.3071428571428574L15.692857142857143,2.3071428571428574L15.692857142857143,5.407142857142857L15.478571428571428,5.407142857142857L15.478571428571428,5.835714285714285L15.264285714285716,5.835714285714285L15.264285714285716,6.05L15,6.05L15,5.95L15.164285714285715,5.95L15.164285714285715,5.735714285714286L15.378571428571426,5.735714285714286L15.378571428571426,5.307142857142857L15.592857142857142,5.307142857142857L15.592857142857142,2.407142857142857L6.478571428571428,2.407142857142857L6.478571428571428,2.6214285714285714L5.621428571428571,2.6214285714285714L5.621428571428571,2.8357142857142854L5.192857142857142,2.8357142857142854L5.192857142857142,4.121428571428571L2.6214285714285714,4.121428571428571L2.6214285714285714,4.878571428571429L3.592857142857143,4.878571428571429L3.592857142857143,4.664285714285715L5.735714285714286,4.664285714285715L5.735714285714286,4.45z" stroke="none"/><path d="M16.5,10.55L16.5,10.45L18.807142857142857,10.45L18.807142857142857,10.235714285714284L19.021428571428572,10.235714285714284L19.021428571428572,9.807142857142857L20.735714285714284,9.807142857142857L20.735714285714284,9.164285714285715L20.95,9.164285714285715L20.95,8.95L21.59285714285714,8.95L21.59285714285714,8.735714285714284L22.021428571428572,8.735714285714284L22.021428571428572,8.521428571428569L26.835714285714285,8.521428571428569L26.835714285714285,8.735714285714284L27.05,8.735714285714284L27.05,9L26.95,9L26.95,8.835714285714285L26.735714285714284,8.835714285714285L26.735714285714284,8.62142857142857L22.121428571428574,8.62142857142857L22.121428571428574,8.835714285714285L21.692857142857143,8.835714285714285L21.692857142857143,9.05L21.05,9.05L21.05,9.264285714285716L20.835714285714285,9.264285714285716L20.835714285714285,9.907142857142858L19.121428571428574,9.907142857142858L19.121428571428574,10.335714285714285L18.90714285714286,10.335714285714285L18.90714285714286,10.55z" stroke="none"/><path d="M13.5,4.45L13.5,4.55L8.407142857142858,4.55L8.407142857142858,4.764285714285714L8.192857142857143,4.764285714285714L8.192857142857143,4.978571428571429L7.764285714285714,4.978571428571429L7.764285714285714,5.192857142857142L7.55,5.192857142857142L7.55,5.407142857142857L6.907142857142857,5.407142857142857L6.907142857142857,6.692857142857142L6.478571428571428,6.692857142857142L6.478571428571428,6.907142857142857L6.264285714285714,6.907142857142857L6.264285714285714,7.978571428571428L6.05,7.978571428571428L6.05,8.407142857142858L5.621428571428571,8.407142857142858L5.621428571428571,10.55L4.978571428571429,10.55L4.978571428571429,10.978571428571428L4.335714285714285,10.978571428571428L4.335714285714285,11.192857142857143L3.907142857142857,11.192857142857143L3.907142857142857,12.592857142857142L9.692857142857143,12.592857142857142L9.692857142857143,12.807142857142857L26.307142857142857,12.807142857142857L26.307142857142857,12.592857142857142L26.52142857142857,12.592857142857142L26.52142857142857,12.164285714285715L26.95,12.164285714285715L26.95,11.95L27.164285714285715,11.95L27.164285714285715,11.735714285714284L27.378571428571426,11.735714285714284L27.378571428571426,10.12142857142857L25.235714285714284,10.12142857142857L25.235714285714284,9.692857142857143L25.02142857142857,9.692857142857143L25.02142857142857,9.264285714285716L24.807142857142857,9.264285714285716L24.807142857142857,9.05L24,9.05L24,8.95L24.90714285714286,8.95L24.90714285714286,9.164285714285715L25.12142857142857,9.164285714285715L25.12142857142857,9.592857142857142L25.335714285714285,9.592857142857142L25.335714285714285,10.021428571428569L27.478571428571428,10.021428571428569L27.478571428571428,11.835714285714285L27.264285714285716,11.835714285714285L27.264285714285716,12.05L27.05,12.05L27.05,12.264285714285716L26.62142857142857,12.264285714285716L26.62142857142857,12.692857142857143L26.40714285714286,12.692857142857143L26.40714285714286,12.907142857142858L9.592857142857142,12.907142857142858L9.592857142857142,12.692857142857143L3.8071428571428574,12.692857142857143L3.8071428571428574,11.092857142857142L4.235714285714286,11.092857142857142L4.235714285714286,10.878571428571426L4.878571428571429,10.878571428571426L4.878571428571429,10.45L5.521428571428571,10.45L5.521428571428571,8.307142857142857L5.95,8.307142857142857L5.95,7.878571428571428L6.164285714285715,7.878571428571428L6.164285714285715,6.807142857142857L6.378571428571428,6.807142857142857L6.378571428571428,6.5928571428571425L6.807142857142857,6.5928571428571425L6.807142857142857,5.307142857142857L7.45,5.307142857142857L7.45,5.0928571428571425L7.664285714285715,5.0928571428571425L7.664285714285715,4.878571428571429L8.092857142857142,4.878571428571429L8.092857142857142,4.664285714285715L8.307142857142857,4.664285714285715L8.307142857142857,4.45z" stroke="none"/><path d="M4.5,10.45L4.5,10.55L4.121428571428571,10.55L4.121428571428571,10.978571428571428L3.6928571428571426,10.978571428571428L3.6928571428571426,12.807142857142857L9.264285714285716,12.807142857142857L9.264285714285716,13.021428571428569L26.95,13.021428571428569L26.95,12.592857142857142L27.59285714285714,12.592857142857142L27.59285714285714,8.835714285714285L27.378571428571426,8.835714285714285L27.378571428571426,8.62142857142857L26.95,8.62142857142857L26.95,8.407142857142858L20.835714285714285,8.407142857142858L20.835714285714285,8.62142857142857L20.621428571428574,8.62142857142857L20.621428571428574,8.835714285714285L20.40714285714286,8.835714285714285L20.40714285714286,9.05L20.192857142857143,9.05L20.192857142857143,9.478571428571428L17.521428571428572,9.478571428571428L17.521428571428572,7.978571428571428L17.307142857142857,7.978571428571428L17.307142857142857,7.764285714285714L16.45,7.764285714285714L16.45,7.5L16.55,7.5L16.55,7.664285714285715L17.40714285714286,7.664285714285715L17.40714285714286,7.878571428571428L17.621428571428574,7.878571428571428L17.621428571428574,9.378571428571426L20.09285714285714,9.378571428571426L20.09285714285714,8.95L20.307142857142857,8.95L20.307142857142857,8.735714285714284L20.521428571428572,8.735714285714284L20.521428571428572,8.521428571428569L20.735714285714284,8.521428571428569L20.735714285714284,8.307142857142857L27.05,8.307142857142857L27.05,8.521428571428569L27.478571428571428,8.521428571428569L27.478571428571428,8.735714285714284L27.692857142857143,8.735714285714284L27.692857142857143,12.692857142857143L27.05,12.692857142857143L27.05,13.12142857142857L9.164285714285715,13.12142857142857L9.164285714285715,12.907142857142858L3.592857142857143,12.907142857142858L3.592857142857143,10.878571428571426L4.021428571428571,10.878571428571426L4.021428571428571,10.45z" stroke="none"/></svg>