<svg version="1.1" width="30" height="15" xmlns="http://www.w3.org/2000/svg"><path d="M9.378571428571426,10.45L9.378571428571426,10.235714285714284L12.164285714285715,10.235714285714284L12.164285714285715,10.021428571428569L13.664285714285715,10.021428571428569L13.664285714285715,9.807142857142857L13.878571428571426,9.807142857142857L13.878571428571426,9.592857142857142L14.092857142857142,9.592857142857142L14.092857142857142,9.378571428571426L14.307142857142857,9.378571428571426L14.307142857142857,9.164285714285715L14.735714285714284,9.164285714285715L14.735714285714284,8.95L15,8.95L15,9.05L14.835714285714285,9.05L14.835714285714285,9.264285714285716L14.407142857142858,9.264285714285716L14.407142857142858,9.478571428571428L14.192857142857143,9.478571428571428L14.192857142857143,9.692857142857143L13.978571428571428,9.692857142857143L13.978571428571428,9.907142857142858L13.764285714285716,9.907142857142858L13.764285714285716,10.12142857142857L12.264285714285716,10.12142857142857L12.264285714285716,10.335714285714285L9.478571428571428,10.335714285714285L9.478571428571428,10.45L10.5,10.45L10.5,10.55L8.192857142857143,10.55L8.192857142857143,10.764285714285716L7.978571428571428,10.764285714285716L7.978571428571428,10.978571428571428L6.478571428571428,10.978571428571428L6.478571428571428,11.192857142857143L6.264285714285714,11.192857142857143L6.264285714285714,11.407142857142858L5.835714285714285,11.407142857142858L5.835714285714285,11.62142857142857L4.121428571428571,11.62142857142857L4.121428571428571,11.835714285714285L3.478571428571428,11.835714285714285L3.478571428571428,12.05L3,12.05L3,11.95L3.3785714285714286,11.95L3.3785714285714286,11.735714285714284L4.021428571428571,11.735714285714284L4.021428571428571,11.521428571428569L5.735714285714286,11.521428571428569L5.735714285714286,11.307142857142857L6.164285714285715,11.307142857142857L6.164285714285715,11.092857142857142L6.378571428571428,11.092857142857142L6.378571428571428,10.878571428571426L7.878571428571428,10.878571428571426L7.878571428571428,10.664285714285715L8.092857142857142,10.664285714285715L8.092857142857142,10.45z" stroke="none"/><path d="M15.692857142857143,4.45L15.692857142857143,4.664285714285715L16.12142857142857,4.664285714285715L16.12142857142857,4.878571428571429L19.021428571428572,4.878571428571429L19.021428571428572,4.664285714285715L19.45,4.664285714285715L19.45,4.5L19.55,4.5L19.55,4.764285714285714L19.121428571428574,4.764285714285714L19.121428571428574,4.978571428571429L16.02142857142857,4.978571428571429L16.02142857142857,4.764285714285714L15.592857142857142,4.764285714285714L15.592857142857142,4.55L15.05,4.55L15.05,4.764285714285714L12.807142857142857,4.764285714285714L12.807142857142857,4.55L12,4.55L12,4.45L12.907142857142858,4.45L12.907142857142858,4.664285714285715L14.95,4.664285714285715L14.95,4.55L13.5,4.55L13.5,4.45z" stroke="none"/><path d="M9.807142857142857,4.121428571428571L8.092857142857142,4.121428571428571L8.092857142857142,3.907142857142857L7.664285714285715,3.907142857142857L7.664285714285715,3.478571428571428L7.235714285714286,3.478571428571428L7.235714285714286,3.2642857142857142L6.5928571428571425,3.2642857142857142L6.5928571428571425,3.05L6,3.05L6,2.95L6.692857142857142,2.95L6.692857142857142,3.1642857142857146L7.335714285714285,3.1642857142857146L7.335714285714285,3.3785714285714286L7.764285714285714,3.3785714285714286L7.764285714285714,3.8071428571428574L8.192857142857143,3.8071428571428574L8.192857142857143,4.021428571428571L9.907142857142858,4.021428571428571L9.907142857142858,5.307142857142857L13.12142857142857,5.307142857142857L13.12142857142857,5.521428571428571L13.978571428571428,5.521428571428571L13.978571428571428,5.735714285714286L14.192857142857143,5.735714285714286L14.192857142857143,5.95L15,5.95L15,6.05L14.092857142857142,6.05L14.092857142857142,5.835714285714285L13.878571428571426,5.835714285714285L13.878571428571426,5.621428571428571L13.021428571428569,5.621428571428571L13.021428571428569,5.407142857142857L9.907142857142858,5.407142857142857L9.907142857142858,7.55L9,7.55L9,7.45L9.807142857142857,7.45z" stroke="none"/><path d="M17.09285714285714,8.521428571428569L17.09285714285714,7.878571428571428L17.307142857142857,7.878571428571428L17.307142857142857,7.664285714285715L17.521428571428572,7.664285714285715L17.521428571428572,7.45L18,7.45L18,7.55L17.621428571428574,7.55L17.621428571428574,7.764285714285714L17.40714285714286,7.764285714285714L17.40714285714286,7.978571428571428L17.192857142857143,7.978571428571428L17.192857142857143,8.521428571428569L18.164285714285715,8.521428571428569L18.164285714285715,7.335714285714285L14.092857142857142,7.335714285714285L14.092857142857142,7.121428571428571L13.878571428571426,7.121428571428571L13.878571428571426,6.907142857142857L13.664285714285715,6.907142857142857L13.664285714285715,6.264285714285714L13.45,6.264285714285714L13.45,6L13.55,6L13.55,6.164285714285715L13.764285714285716,6.164285714285715L13.764285714285716,6.807142857142857L13.978571428571428,6.807142857142857L13.978571428571428,7.021428571428571L14.192857142857143,7.021428571428571L14.192857142857143,7.235714285714286L18.264285714285716,7.235714285714286L18.264285714285716,8.62142857142857L17.192857142857143,8.62142857142857L17.192857142857143,10.45L17.40714285714286,10.45L17.40714285714286,10.664285714285715L17.621428571428574,10.664285714285715L17.621428571428574,10.878571428571426L22.021428571428572,10.878571428571426L22.021428571428572,10.45L22.5,10.45L22.5,10.55L22.121428571428574,10.55L22.121428571428574,10.978571428571428L17.521428571428572,10.978571428571428L17.521428571428572,10.764285714285716L17.307142857142857,10.764285714285716L17.307142857142857,10.55L17.09285714285714,10.55L17.09285714285714,8.62142857142857L16.12142857142857,8.62142857142857L16.12142857142857,8.835714285714285L15.907142857142858,8.835714285714285L15.907142857142858,10.335714285714285L15.264285714285716,10.335714285714285L15.264285714285716,10.55L15,10.55L15,10.45L15.164285714285715,10.45L15.164285714285715,10.235714285714284L15.807142857142857,10.235714285714284L15.807142857142857,8.735714285714284L16.02142857142857,8.735714285714284L16.02142857142857,8.521428571428569z" stroke="none"/><path d="M8.95,5.95L8.95,4.5L9.05,4.5L9.05,5.95L9.164285714285715,5.95L9.164285714285715,4.335714285714285L7.878571428571428,4.335714285714285L7.878571428571428,4.121428571428571L6.164285714285715,4.121428571428571L6.164285714285715,3.907142857142857L5.95,3.907142857142857L5.95,3.6928571428571426L5.735714285714286,3.6928571428571426L5.735714285714286,3.478571428571428L5.521428571428571,3.478571428571428L5.521428571428571,2.521428571428572L13.55,2.521428571428572L13.55,3.1642857142857146L15.478571428571428,3.1642857142857146L15.478571428571428,3.3785714285714286L15.692857142857143,3.3785714285714286L15.692857142857143,3.592857142857143L15.907142857142858,3.592857142857143L15.907142857142858,3.8071428571428574L16.12142857142857,3.8071428571428574L16.12142857142857,4.235714285714286L16.55,4.235714285714286L16.55,4.5L16.45,4.5L16.45,4.335714285714285L16.02142857142857,4.335714285714285L16.02142857142857,3.907142857142857L15.807142857142857,3.907142857142857L15.807142857142857,3.6928571428571426L15.592857142857142,3.6928571428571426L15.592857142857142,3.478571428571428L15.378571428571426,3.478571428571428L15.378571428571426,3.2642857142857142L13.45,3.2642857142857142L13.45,2.6214285714285714L5.621428571428571,2.6214285714285714L5.621428571428571,3.3785714285714286L5.835714285714285,3.3785714285714286L5.835714285714285,3.592857142857143L6.05,3.592857142857143L6.05,3.8071428571428574L6.264285714285714,3.8071428571428574L6.264285714285714,4.021428571428571L7.978571428571428,4.021428571428571L7.978571428571428,4.235714285714286L9.264285714285716,4.235714285714286L9.264285714285716,6.05L9.05,6.05L9.05,6.264285714285714L8.192857142857143,6.264285714285714L8.192857142857143,6.478571428571428L7.764285714285714,6.478571428571428L7.764285714285714,6.692857142857142L6.907142857142857,6.692857142857142L6.907142857142857,6.907142857142857L6.692857142857142,6.907142857142857L6.692857142857142,7.121428571428571L6.478571428571428,7.121428571428571L6.478571428571428,7.55L6.264285714285714,7.55L6.264285714285714,7.764285714285714L4.878571428571429,7.764285714285714L4.878571428571429,7.55L4.5,7.55L4.5,7.45L4.978571428571429,7.45L4.978571428571429,7.664285714285715L6.164285714285715,7.664285714285715L6.164285714285715,7.45L6.378571428571428,7.45L6.378571428571428,7.021428571428571L6.5928571428571425,7.021428571428571L6.5928571428571425,6.807142857142857L6.807142857142857,6.807142857142857L6.807142857142857,6.5928571428571425L7.664285714285715,6.5928571428571425L7.664285714285715,6.378571428571428L8.092857142857142,6.378571428571428L8.092857142857142,6.164285714285715L8.95,6.164285714285715L8.95,6.05L6.907142857142857,6.05L6.907142857142857,6.478571428571428L6.692857142857142,6.478571428571428L6.692857142857142,6.692857142857142L6.264285714285714,6.692857142857142L6.264285714285714,7.335714285714285L6.05,7.335714285714285L6.05,7.5L5.95,7.5L5.95,7.235714285714286L6.164285714285715,7.235714285714286L6.164285714285715,6.5928571428571425L6.5928571428571425,6.5928571428571425L6.5928571428571425,6.378571428571428L6.807142857142857,6.378571428571428L6.807142857142857,5.95z" stroke="none"/><path d="M20.307142857142857,9.164285714285715L20.307142857142857,8.95L20.521428571428572,8.95L20.521428571428572,8.521428571428569L24.807142857142857,8.521428571428569L24.807142857142857,7.878571428571428L25.45,7.878571428571428L25.45,7.5L25.55,7.5L25.55,7.978571428571428L24.90714285714286,7.978571428571428L24.90714285714286,8.62142857142857L20.621428571428574,8.62142857142857L20.621428571428574,9.05L20.40714285714286,9.05L20.40714285714286,9.164285714285715L20.621428571428574,9.164285714285715L20.621428571428574,9.378571428571426L25.45,9.378571428571426L25.45,9L25.55,9L25.55,9.478571428571428L20.521428571428572,9.478571428571428L20.521428571428572,9.264285714285716L20.40714285714286,9.264285714285716L20.40714285714286,9.592857142857142L21.478571428571428,9.592857142857142L21.478571428571428,9.807142857142857L22.764285714285716,9.807142857142857L22.764285714285716,10.021428571428569L22.978571428571428,10.021428571428569L22.978571428571428,10.978571428571428L22.335714285714285,10.978571428571428L22.335714285714285,11.192857142857143L14.092857142857142,11.192857142857143L14.092857142857142,10.978571428571428L13.878571428571426,10.978571428571428L13.878571428571426,10.764285714285716L13.45,10.764285714285716L13.45,10.5L13.55,10.5L13.55,10.664285714285715L13.978571428571428,10.664285714285715L13.978571428571428,10.878571428571426L14.192857142857143,10.878571428571426L14.192857142857143,11.092857142857142L22.235714285714284,11.092857142857142L22.235714285714284,10.878571428571426L22.878571428571426,10.878571428571426L22.878571428571426,10.12142857142857L22.664285714285715,10.12142857142857L22.664285714285715,9.907142857142858L21.378571428571426,9.907142857142858L21.378571428571426,9.692857142857143L20.307142857142857,9.692857142857143L20.307142857142857,9.264285714285716L19.978571428571428,9.264285714285716L19.978571428571428,9.478571428571428L19.55,9.478571428571428L19.55,10.12142857142857L18.05,10.12142857142857L18.05,10.5L17.95,10.5L17.95,10.021428571428569L19.45,10.021428571428569L19.45,9.378571428571426L19.878571428571426,9.378571428571426L19.878571428571426,9.164285714285715z" stroke="none"/><path d="M21,9.05L21,8.95L22.5,8.95L22.5,9.05z" stroke="none"/><path d="M7.45,9L7.55,9L7.55,10.5L7.45,10.5z" stroke="none"/><path d="M23.95,10.5L24.05,10.5L24.05,11.092857142857142L24.264285714285716,11.092857142857142L24.264285714285716,11.307142857142857L24.90714285714286,11.307142857142857L24.90714285714286,11.735714285714284L25.335714285714285,11.735714285714284L25.335714285714285,11.95L25.5,11.95L25.5,12.05L25.235714285714284,12.05L25.235714285714284,11.835714285714285L24.807142857142857,11.835714285714285L24.807142857142857,11.407142857142858L24.164285714285715,11.407142857142858L24.164285714285715,11.192857142857143L23.95,11.192857142857143z" stroke="none"/><path d="M22.5,5.95L22.5,6.05L21.692857142857143,6.05L21.692857142857143,6.907142857142857L21.478571428571428,6.907142857142857L21.478571428571428,7.121428571428571L21.05,7.121428571428571L21.05,7.5L20.95,7.5L20.95,7.021428571428571L21.378571428571426,7.021428571428571L21.378571428571426,6.807142857142857L21.59285714285714,6.807142857142857L21.59285714285714,5.95z" stroke="none"/><path d="M21,4.45L21,4.55L20.09285714285714,4.55L20.09285714285714,4.335714285714285L19.878571428571426,4.335714285714285L19.878571428571426,4.121428571428571L18.90714285714286,4.121428571428571L18.90714285714286,4.335714285714285L18.692857142857143,4.335714285714285L18.692857142857143,4.55L18,4.55L18,4.45L18.59285714285714,4.45L18.59285714285714,4.235714285714286L18.807142857142857,4.235714285714286L18.807142857142857,4.021428571428571L19.978571428571428,4.021428571428571L19.978571428571428,4.235714285714286L20.192857142857143,4.235714285714286L20.192857142857143,4.45z" stroke="none"/><path d="M27.05,10.5L26.95,10.5L26.95,7.5L27.05,7.5z" stroke="none"/><path d="M3,7.55L3,7.45L3.1642857142857146,7.45L3.1642857142857146,6.378571428571428L3.3785714285714286,6.378571428571428L3.3785714285714286,5.407142857142857L3.1642857142857146,5.407142857142857L3.1642857142857146,4.978571428571429L2.95,4.978571428571429L2.95,4.5L3.05,4.5L3.05,4.878571428571429L3.2642857142857142,4.878571428571429L3.2642857142857142,5.307142857142857L3.478571428571428,5.307142857142857L3.478571428571428,6.478571428571428L3.2642857142857142,6.478571428571428L3.2642857142857142,7.55z" stroke="none"/><path d="M19.5,9.05L19.5,8.95L19.878571428571426,8.95L19.878571428571426,8.521428571428569L20.307142857142857,8.521428571428569L20.307142857142857,8.307142857142857L24.164285714285715,8.307142857142857L24.164285714285715,7.664285714285715L24.807142857142857,7.664285714285715L24.807142857142857,7.235714285714286L25.02142857142857,7.235714285714286L25.02142857142857,7.021428571428571L25.978571428571428,7.021428571428571L25.978571428571428,9.907142857142858L24.90714285714286,9.907142857142858L24.90714285714286,10.12142857142857L23.62142857142857,10.12142857142857L23.62142857142857,10.55L23.40714285714286,10.55L23.40714285714286,11.407142857142858L18.264285714285716,11.407142857142858L18.264285714285716,11.62142857142857L18.05,11.62142857142857L18.05,12L17.95,12L17.95,11.521428571428569L18.164285714285715,11.521428571428569L18.164285714285715,11.307142857142857L23.307142857142857,11.307142857142857L23.307142857142857,10.45L23.52142857142857,10.45L23.52142857142857,10.021428571428569L24.807142857142857,10.021428571428569L24.807142857142857,9.807142857142857L25.878571428571426,9.807142857142857L25.878571428571426,7.121428571428571L25.12142857142857,7.121428571428571L25.12142857142857,7.335714285714285L24.90714285714286,7.335714285714285L24.90714285714286,7.764285714285714L24.264285714285716,7.764285714285714L24.264285714285716,8.407142857142858L20.40714285714286,8.407142857142858L20.40714285714286,8.62142857142857L19.978571428571428,8.62142857142857L19.978571428571428,9.05z" stroke="none"/><path d="M13.5,8.95L13.5,9.05L13.235714285714284,9.05L13.235714285714284,8.835714285714285L12.164285714285715,8.835714285714285L12.164285714285715,8.407142857142858L11.521428571428569,8.407142857142858L11.521428571428569,8.192857142857143L10.878571428571426,8.192857142857143L10.878571428571426,7.978571428571428L10.664285714285715,7.978571428571428L10.664285714285715,7.764285714285714L10.45,7.764285714285714L10.45,7.5L10.55,7.5L10.55,7.664285714285715L10.764285714285716,7.664285714285715L10.764285714285716,7.878571428571428L10.978571428571428,7.878571428571428L10.978571428571428,8.092857142857142L11.62142857142857,8.092857142857142L11.62142857142857,8.307142857142857L12.264285714285716,8.307142857142857L12.264285714285716,8.735714285714284L13.335714285714285,8.735714285714284L13.335714285714285,8.95z" stroke="none"/><path d="M4.5,6.05L4.5,5.95L4.664285714285715,5.95L4.664285714285715,5.735714285714286L4.878571428571429,5.735714285714286L4.878571428571429,5.0928571428571425L5.735714285714286,5.0928571428571425L5.735714285714286,4.878571428571429L6.807142857142857,4.878571428571429L6.807142857142857,4.664285714285715L7.235714285714286,4.664285714285715L7.235714285714286,4.45L7.5,4.45L7.5,4.55L7.335714285714285,4.55L7.335714285714285,4.764285714285714L6.907142857142857,4.764285714285714L6.907142857142857,4.978571428571429L5.835714285714285,4.978571428571429L5.835714285714285,5.192857142857142L4.978571428571429,5.192857142857142L4.978571428571429,5.835714285714285L4.764285714285714,5.835714285714285L4.764285714285714,6.05z" stroke="none"/><path d="M9.05,9L8.95,9L8.95,8.307142857142857L9.164285714285715,8.307142857142857L9.164285714285715,7.878571428571428L9.807142857142857,7.878571428571428L9.807142857142857,7.664285714285715L10.021428571428569,7.664285714285715L10.021428571428569,7.021428571428571L11.192857142857143,7.021428571428571L11.192857142857143,7.235714285714286L12.05,7.235714285714286L12.05,7.5L11.95,7.5L11.95,7.335714285714285L11.092857142857142,7.335714285714285L11.092857142857142,7.121428571428571L10.12142857142857,7.121428571428571L10.12142857142857,7.764285714285714L9.907142857142858,7.764285714285714L9.907142857142858,7.978571428571428L9.264285714285716,7.978571428571428L9.264285714285716,8.407142857142858L9.05,8.407142857142858z" stroke="none"/><path d="M2.95,6L3.05,6L3.05,6.692857142857142L2.8357142857142854,6.692857142857142L2.8357142857142854,7.121428571428571L2.6214285714285714,7.121428571428571L2.6214285714285714,7.878571428571428L3.478571428571428,7.878571428571428L3.478571428571428,8.092857142857142L5.621428571428571,8.092857142857142L5.621428571428571,8.307142857142857L5.835714285714285,8.307142857142857L5.835714285714285,8.95L6,8.95L6,9.05L5.735714285714286,9.05L5.735714285714286,8.407142857142858L5.521428571428571,8.407142857142858L5.521428571428571,8.192857142857143L3.3785714285714286,8.192857142857143L3.3785714285714286,7.978571428571428L2.521428571428572,7.978571428571428L2.521428571428572,7.021428571428571L2.7357142857142858,7.021428571428571L2.7357142857142858,6.5928571428571425L2.95,6.5928571428571425z" stroke="none"/><path d="M21,5.95L21,6.05L20.835714285714285,6.05L20.835714285714285,6.478571428571428L20.40714285714286,6.478571428571428L20.40714285714286,6.692857142857142L20.192857142857143,6.692857142857142L20.192857142857143,7.335714285714285L19.55,7.335714285714285L19.55,7.55L18.90714285714286,7.55L18.90714285714286,7.764285714285714L18.692857142857143,7.764285714285714L18.692857142857143,7.978571428571428L18.478571428571428,7.978571428571428L18.478571428571428,8.835714285714285L18.264285714285716,8.835714285714285L18.264285714285716,9.05L18,9.05L18,8.95L18.164285714285715,8.95L18.164285714285715,8.735714285714284L18.378571428571426,8.735714285714284L18.378571428571426,7.878571428571428L18.59285714285714,7.878571428571428L18.59285714285714,7.664285714285715L18.807142857142857,7.664285714285715L18.807142857142857,7.45L19.45,7.45L19.45,7.235714285714286L20.09285714285714,7.235714285714286L20.09285714285714,6.5928571428571425L20.307142857142857,6.5928571428571425L20.307142857142857,6.378571428571428L20.735714285714284,6.378571428571428L20.735714285714284,5.95z" stroke="none"/><path d="M19.5,11.95L19.5,12.05L19.121428571428574,12.05L19.121428571428574,12.264285714285716L18.478571428571428,12.264285714285716L18.478571428571428,12.478571428571428L15.164285714285715,12.478571428571428L15.164285714285715,12.05L15,12.05L15,11.95L15.264285714285716,11.95L15.264285714285716,12.378571428571426L18.378571428571426,12.378571428571426L18.378571428571426,12.164285714285715L19.021428571428572,12.164285714285715L19.021428571428572,11.95z" stroke="none"/><path d="M25.45,10.5L25.55,10.5L25.55,11.307142857142857L25.978571428571428,11.307142857142857L25.978571428571428,12.478571428571428L21.807142857142857,12.478571428571428L21.807142857142857,12.264285714285716L21.59285714285714,12.264285714285716L21.59285714285714,12.05L21,12.05L21,11.95L21.692857142857143,11.95L21.692857142857143,12.164285714285715L21.90714285714286,12.164285714285715L21.90714285714286,12.378571428571426L25.878571428571426,12.378571428571426L25.878571428571426,11.407142857142858L25.45,11.407142857142858z" stroke="none"/><path d="M7.45,7.5L7.55,7.5L7.55,8.192857142857143L7.335714285714285,8.192857142857143L7.335714285714285,8.407142857142858L7.121428571428571,8.407142857142858L7.121428571428571,9.478571428571428L5.835714285714285,9.478571428571428L5.835714285714285,9.692857142857143L5.192857142857142,9.692857142857143L5.192857142857142,9.907142857142858L4.764285714285714,9.907142857142858L4.764285714285714,10.12142857142857L4.55,10.12142857142857L4.55,10.55L4.335714285714285,10.55L4.335714285714285,10.764285714285716L3.907142857142857,10.764285714285716L3.907142857142857,10.978571428571428L3.6928571428571426,10.978571428571428L3.6928571428571426,11.192857142857143L2.8357142857142854,11.192857142857143L2.8357142857142854,11.407142857142858L2.6214285714285714,11.407142857142858L2.6214285714285714,12.378571428571426L4.021428571428571,12.378571428571426L4.021428571428571,12.164285714285715L4.235714285714286,12.164285714285715L4.235714285714286,11.95L4.5,11.95L4.5,12.05L4.335714285714285,12.05L4.335714285714285,12.264285714285716L4.121428571428571,12.264285714285716L4.121428571428571,12.478571428571428L2.521428571428572,12.478571428571428L2.521428571428572,11.307142857142857L2.7357142857142858,11.307142857142857L2.7357142857142858,11.092857142857142L3.592857142857143,11.092857142857142L3.592857142857143,10.878571428571426L3.8071428571428574,10.878571428571426L3.8071428571428574,10.664285714285715L4.235714285714286,10.664285714285715L4.235714285714286,10.45L4.45,10.45L4.45,10.021428571428569L4.664285714285715,10.021428571428569L4.664285714285715,9.807142857142857L5.0928571428571425,9.807142857142857L5.0928571428571425,9.592857142857142L5.735714285714286,9.592857142857142L5.735714285714286,9.378571428571426L7.021428571428571,9.378571428571426L7.021428571428571,8.307142857142857L7.235714285714286,8.307142857142857L7.235714285714286,8.092857142857142L7.45,8.092857142857142z" stroke="none"/><path d="M22.5,2.95L22.5,3.05L19.878571428571426,3.05L19.878571428571426,2.6214285714285714L17.621428571428574,2.6214285714285714L17.621428571428574,2.8357142857142854L17.40714285714286,2.8357142857142854L17.40714285714286,3.05L16.5,3.05L16.5,2.95L17.307142857142857,2.95L17.307142857142857,2.7357142857142858L17.521428571428572,2.7357142857142858L17.521428571428572,2.521428571428572L19.978571428571428,2.521428571428572L19.978571428571428,2.95z" stroke="none"/><path d="M25.5,4.45L25.5,4.55L22.664285714285715,4.55L22.664285714285715,4.335714285714285L22.021428571428572,4.335714285714285L22.021428571428572,4.121428571428571L20.09285714285714,4.121428571428571L20.09285714285714,3.907142857142857L19.878571428571426,3.907142857142857L19.878571428571426,3.6928571428571426L19.664285714285715,3.6928571428571426L19.664285714285715,3.05L19.5,3.05L19.5,2.95L19.764285714285716,2.95L19.764285714285716,3.592857142857143L19.978571428571428,3.592857142857143L19.978571428571428,3.8071428571428574L20.192857142857143,3.8071428571428574L20.192857142857143,4.021428571428571L22.121428571428574,4.021428571428571L22.121428571428574,4.235714285714286L22.764285714285716,4.235714285714286L22.764285714285716,4.45z" stroke="none"/><path d="M10.45,3L10.55,3L10.55,3.3785714285714286L10.764285714285716,3.3785714285714286L10.764285714285716,3.592857142857143L10.978571428571428,3.592857142857143L10.978571428571428,4.45L11.407142857142858,4.45L11.407142857142858,4.664285714285715L11.62142857142857,4.664285714285715L11.62142857142857,4.878571428571429L15.907142857142858,4.878571428571429L15.907142857142858,5.0928571428571425L25.664285714285715,5.0928571428571425L25.664285714285715,4.878571428571429L25.878571428571426,4.878571428571429L25.878571428571426,4.121428571428571L24.59285714285714,4.121428571428571L24.59285714285714,3.907142857142857L24.378571428571426,3.907142857142857L24.378571428571426,3.6928571428571426L23.735714285714284,3.6928571428571426L23.735714285714284,3.2642857142857142L23.52142857142857,3.2642857142857142L23.52142857142857,3.05L23.307142857142857,3.05L23.307142857142857,2.8357142857142854L22.878571428571426,2.8357142857142854L22.878571428571426,2.6214285714285714L20.09285714285714,2.6214285714285714L20.09285714285714,2.407142857142857L16.335714285714285,2.407142857142857L16.335714285714285,2.6214285714285714L16.12142857142857,2.6214285714285714L16.12142857142857,3.3785714285714286L17.09285714285714,3.3785714285714286L17.09285714285714,3.1642857142857146L17.521428571428572,3.1642857142857146L17.521428571428572,2.95L18,2.95L18,3.05L17.621428571428574,3.05L17.621428571428574,3.2642857142857142L17.192857142857143,3.2642857142857142L17.192857142857143,3.478571428571428L16.02142857142857,3.478571428571428L16.02142857142857,2.521428571428572L16.235714285714284,2.521428571428572L16.235714285714284,2.3071428571428574L20.192857142857143,2.3071428571428574L20.192857142857143,2.521428571428572L22.978571428571428,2.521428571428572L22.978571428571428,2.7357142857142858L23.40714285714286,2.7357142857142858L23.40714285714286,2.95L23.62142857142857,2.95L23.62142857142857,3.1642857142857146L23.835714285714285,3.1642857142857146L23.835714285714285,3.592857142857143L24.478571428571428,3.592857142857143L24.478571428571428,3.8071428571428574L24.692857142857143,3.8071428571428574L24.692857142857143,4.021428571428571L25.978571428571428,4.021428571428571L25.978571428571428,4.978571428571429L25.764285714285716,4.978571428571429L25.764285714285716,5.192857142857142L15.807142857142857,5.192857142857142L15.807142857142857,4.978571428571429L11.521428571428569,4.978571428571429L11.521428571428569,4.764285714285714L11.307142857142857,4.764285714285714L11.307142857142857,4.55L10.878571428571426,4.55L10.878571428571426,3.6928571428571426L10.664285714285715,3.6928571428571426L10.664285714285715,3.478571428571428L10.45,3.478571428571428z" stroke="none"/><path d="M10.5,11.95L10.5,12.05L5.192857142857142,12.05L5.192857142857142,12.478571428571428L4.335714285714285,12.478571428571428L4.335714285714285,12.692857142857143L2.3071428571428574,12.692857142857143L2.3071428571428574,10.878571428571426L2.521428571428572,10.878571428571426L2.521428571428572,10.45L3,10.45L3,10.55L2.6214285714285714,10.55L2.6214285714285714,10.978571428571428L2.407142857142857,10.978571428571428L2.407142857142857,12.592857142857142L4.235714285714286,12.592857142857142L4.235714285714286,12.378571428571426L5.0928571428571425,12.378571428571426L5.0928571428571425,11.95z" stroke="none"/><path d="M18,6.05L18,5.95L20.307142857142857,5.95L20.307142857142857,5.735714285714286L20.521428571428572,5.735714285714286L20.521428571428572,5.521428571428571L26.735714285714284,5.521428571428571L26.735714285714284,4.45L27,4.45L27,4.55L26.835714285714285,4.55L26.835714285714285,5.621428571428571L20.621428571428574,5.621428571428571L20.621428571428574,5.835714285714285L20.40714285714286,5.835714285714285L20.40714285714286,6.05z" stroke="none"/><path d="M12,12.05L12,11.95L14.192857142857143,11.95L14.192857142857143,12.164285714285715L14.62142857142857,12.164285714285715L14.62142857142857,12.378571428571426L15.05,12.378571428571426L15.05,12.592857142857142L19.664285714285715,12.592857142857142L19.664285714285715,12.378571428571426L19.878571428571426,12.378571428571426L19.878571428571426,11.735714285714284L20.09285714285714,11.735714285714284L20.09285714285714,11.521428571428569L22.121428571428574,11.521428571428569L22.121428571428574,11.735714285714284L22.335714285714285,11.735714285714284L22.335714285714285,11.95L22.5,11.95L22.5,12.05L22.235714285714284,12.05L22.235714285714284,11.835714285714285L22.021428571428572,11.835714285714285L22.021428571428572,11.62142857142857L20.192857142857143,11.62142857142857L20.192857142857143,11.835714285714285L19.978571428571428,11.835714285714285L19.978571428571428,12.478571428571428L19.764285714285716,12.478571428571428L19.764285714285716,12.692857142857143L14.95,12.692857142857143L14.95,12.478571428571428L14.521428571428569,12.478571428571428L14.521428571428569,12.264285714285716L14.092857142857142,12.264285714285716L14.092857142857142,12.05z" stroke="none"/><path d="M16.5,10.45L16.5,10.55L15.692857142857143,10.55L15.692857142857143,10.764285714285716L15.478571428571428,10.764285714285716L15.478571428571428,10.978571428571428L14.521428571428569,10.978571428571428L14.521428571428569,10.021428571428569L15.164285714285715,10.021428571428569L15.164285714285715,9.807142857142857L15.378571428571426,9.807142857142857L15.378571428571426,8.62142857142857L14.62142857142857,8.62142857142857L14.62142857142857,9.05L14.192857142857143,9.05L14.192857142857143,9.264285714285716L13.978571428571428,9.264285714285716L13.978571428571428,9.478571428571428L8.521428571428569,9.478571428571428L8.521428571428569,7.121428571428571L7.121428571428571,7.121428571428571L7.121428571428571,7.978571428571428L4.021428571428571,7.978571428571428L4.021428571428571,7.021428571428571L4.664285714285715,7.021428571428571L4.664285714285715,6.807142857142857L4.878571428571429,6.807142857142857L4.878571428571429,6.5928571428571425L5.521428571428571,6.5928571428571425L5.521428571428571,5.95L6,5.95L6,6.05L5.621428571428571,6.05L5.621428571428571,6.692857142857142L4.978571428571429,6.692857142857142L4.978571428571429,6.907142857142857L4.764285714285714,6.907142857142857L4.764285714285714,7.121428571428571L4.121428571428571,7.121428571428571L4.121428571428571,7.878571428571428L7.021428571428571,7.878571428571428L7.021428571428571,7.021428571428571L8.62142857142857,7.021428571428571L8.62142857142857,9.378571428571426L13.878571428571426,9.378571428571426L13.878571428571426,9.164285714285715L14.092857142857142,9.164285714285715L14.092857142857142,8.95L14.521428571428569,8.95L14.521428571428569,8.521428571428569L15.478571428571428,8.521428571428569L15.478571428571428,9.907142857142858L15.264285714285716,9.907142857142858L15.264285714285716,10.12142857142857L14.62142857142857,10.12142857142857L14.62142857142857,10.878571428571426L15.378571428571426,10.878571428571426L15.378571428571426,10.664285714285715L15.592857142857142,10.664285714285715L15.592857142857142,10.45z" stroke="none"/><path d="M4.55,4.5L4.45,4.5L4.45,3.592857142857143L4.664285714285715,3.592857142857143L4.664285714285715,2.7357142857142858L4.878571428571429,2.7357142857142858L4.878571428571429,2.3071428571428574L16.02142857142857,2.3071428571428574L16.02142857142857,2.092857142857143L25.12142857142857,2.092857142857143L25.12142857142857,2.3071428571428574L25.55,2.3071428571428574L25.55,2.521428571428572L25.978571428571428,2.521428571428572L25.978571428571428,2.7357142857142858L26.192857142857143,2.7357142857142858L26.192857142857143,5.192857142857142L25.978571428571428,5.192857142857142L25.978571428571428,5.407142857142857L17.40714285714286,5.407142857142857L17.40714285714286,5.621428571428571L16.764285714285716,5.621428571428571L16.764285714285716,5.835714285714285L16.55,5.835714285714285L16.55,6L16.45,6L16.45,5.735714285714286L16.664285714285715,5.735714285714286L16.664285714285715,5.521428571428571L17.307142857142857,5.521428571428571L17.307142857142857,5.307142857142857L25.878571428571426,5.307142857142857L25.878571428571426,5.0928571428571425L26.09285714285714,5.0928571428571425L26.09285714285714,2.8357142857142854L25.878571428571426,2.8357142857142854L25.878571428571426,2.6214285714285714L25.45,2.6214285714285714L25.45,2.407142857142857L25.02142857142857,2.407142857142857L25.02142857142857,2.1928571428571426L16.12142857142857,2.1928571428571426L16.12142857142857,2.407142857142857L4.978571428571429,2.407142857142857L4.978571428571429,2.8357142857142854L4.764285714285714,2.8357142857142854L4.764285714285714,3.6928571428571426L4.55,3.6928571428571426z" stroke="none"/></svg>