<svg version="1.1" width="30" height="15" xmlns="http://www.w3.org/2000/svg"><path d="M10.45,5.0928571428571425L10.45,4.5L10.55,4.5L10.55,5.0928571428571425L12.378571428571426,5.0928571428571425L12.378571428571426,4.664285714285715L12.592857142857142,4.664285714285715L12.592857142857142,4.45L13.5,4.45L13.5,4.55L12.692857142857143,4.55L12.692857142857143,4.764285714285714L12.478571428571428,4.764285714285714L12.478571428571428,5.192857142857142L7.764285714285714,5.192857142857142L7.764285714285714,5.835714285714285L7.55,5.835714285714285L7.55,6L7.45,6L7.45,5.735714285714286L7.664285714285715,5.735714285714286L7.664285714285715,5.0928571428571425z" stroke="none"/><path d="M25.45,8.95L25.45,8.092857142857142L25.664285714285715,8.092857142857142L25.664285714285715,7.878571428571428L25.878571428571426,7.878571428571428L25.878571428571426,7.664285714285715L26.307142857142857,7.664285714285715L26.307142857142857,7.45L27,7.45L27,7.55L26.40714285714286,7.55L26.40714285714286,7.764285714285714L25.978571428571428,7.764285714285714L25.978571428571428,7.978571428571428L25.764285714285716,7.978571428571428L25.764285714285716,8.192857142857143L25.55,8.192857142857143L25.55,10.5L25.45,10.5L25.45,9.05L24,9.05L24,8.95z" stroke="none"/><path d="M15.807142857142857,4.878571428571429L15.807142857142857,3.6928571428571426L14.735714285714284,3.6928571428571426L14.735714285714284,3.478571428571428L14.092857142857142,3.478571428571428L14.092857142857142,3.2642857142857142L13.45,3.2642857142857142L13.45,3L13.55,3L13.55,3.1642857142857146L14.192857142857143,3.1642857142857146L14.192857142857143,3.3785714285714286L14.835714285714285,3.3785714285714286L14.835714285714285,3.592857142857143L15.907142857142858,3.592857142857143L15.907142857142858,4.878571428571429L20.40714285714286,4.878571428571429L20.40714285714286,5.307142857142857L21.692857142857143,5.307142857142857L21.692857142857143,5.521428571428571L22.121428571428574,5.521428571428571L22.121428571428574,5.735714285714286L22.335714285714285,5.735714285714286L22.335714285714285,5.95L22.5,5.95L22.5,6.05L22.235714285714284,6.05L22.235714285714284,5.835714285714285L22.021428571428572,5.835714285714285L22.021428571428572,5.621428571428571L21.59285714285714,5.621428571428571L21.59285714285714,5.407142857142857L20.307142857142857,5.407142857142857L20.307142857142857,4.978571428571429L12.692857142857143,4.978571428571429L12.692857142857143,5.407142857142857L12.05,5.407142857142857L12.05,6L11.95,6L11.95,5.307142857142857L12.592857142857142,5.307142857142857L12.592857142857142,4.878571428571429z" stroke="none"/><path d="M18.59285714285714,8.95L18.59285714285714,8.835714285714285L17.40714285714286,8.835714285714285L17.40714285714286,9.05L15.692857142857143,9.05L15.692857142857143,9.478571428571428L14.092857142857142,9.478571428571428L14.092857142857142,9.264285714285716L13.878571428571426,9.264285714285716L13.878571428571426,8.62142857142857L13.664285714285715,8.62142857142857L13.664285714285715,7.764285714285714L13.45,7.764285714285714L13.45,7.5L13.55,7.5L13.55,7.664285714285715L13.764285714285716,7.664285714285715L13.764285714285716,8.521428571428569L13.978571428571428,8.521428571428569L13.978571428571428,9.164285714285715L14.192857142857143,9.164285714285715L14.192857142857143,9.378571428571426L15.592857142857142,9.378571428571426L15.592857142857142,8.95L17.307142857142857,8.95L17.307142857142857,8.735714285714284L18.692857142857143,8.735714285714284L18.692857142857143,8.95L20.95,8.95L20.95,8.735714285714284L21.807142857142857,8.735714285714284L21.807142857142857,8.521428571428569L22.235714285714284,8.521428571428569L22.235714285714284,7.664285714285715L22.45,7.664285714285715L22.45,7.5L22.55,7.5L22.55,7.764285714285714L22.335714285714285,7.764285714285714L22.335714285714285,8.62142857142857L21.90714285714286,8.62142857142857L21.90714285714286,8.835714285714285L21.05,8.835714285714285L21.05,9.05L18.692857142857143,9.05L18.692857142857143,9.378571428571426L19.764285714285716,9.378571428571426L19.764285714285716,10.021428571428569L19.978571428571428,10.021428571428569L19.978571428571428,11.092857142857142L20.192857142857143,11.092857142857142L20.192857142857143,11.307142857142857L20.40714285714286,11.307142857142857L20.40714285714286,11.735714285714284L20.835714285714285,11.735714285714284L20.835714285714285,11.95L21,11.95L21,12.05L20.735714285714284,12.05L20.735714285714284,11.835714285714285L20.307142857142857,11.835714285714285L20.307142857142857,11.407142857142858L20.09285714285714,11.407142857142858L20.09285714285714,11.192857142857143L19.878571428571426,11.192857142857143L19.878571428571426,10.12142857142857L19.664285714285715,10.12142857142857L19.664285714285715,9.478571428571428L18.59285714285714,9.478571428571428L18.59285714285714,9.05L18,9.05L18,8.95z" stroke="none"/><path d="M20.521428571428572,3.592857142857143L20.521428571428572,3.3785714285714286L20.735714285714284,3.3785714285714286L20.735714285714284,2.95L21,2.95L21,3.05L20.835714285714285,3.05L20.835714285714285,3.478571428571428L20.621428571428574,3.478571428571428L20.621428571428574,3.592857142857143L21.05,3.592857142857143L21.05,4.235714285714286L21.478571428571428,4.235714285714286L21.478571428571428,4.45L21.90714285714286,4.45L21.90714285714286,4.878571428571429L22.335714285714285,4.878571428571429L22.335714285714285,5.0928571428571425L22.978571428571428,5.0928571428571425L22.978571428571428,6.478571428571428L17.307142857142857,6.478571428571428L17.307142857142857,6.264285714285714L16.45,6.264285714285714L16.45,6L16.55,6L16.55,6.164285714285715L17.40714285714286,6.164285714285715L17.40714285714286,6.378571428571428L22.878571428571426,6.378571428571428L22.878571428571426,5.192857142857142L22.235714285714284,5.192857142857142L22.235714285714284,4.978571428571429L21.807142857142857,4.978571428571429L21.807142857142857,4.55L21.378571428571426,4.55L21.378571428571426,4.335714285714285L20.95,4.335714285714285L20.95,3.6928571428571426L20.621428571428574,3.6928571428571426L20.621428571428574,3.907142857142857L19.878571428571426,3.907142857142857L19.878571428571426,3.478571428571428L19.235714285714284,3.478571428571428L19.235714285714284,2.7357142857142858L24.90714285714286,2.7357142857142858L24.90714285714286,2.95L25.5,2.95L25.5,3.05L24.807142857142857,3.05L24.807142857142857,2.8357142857142854L19.335714285714285,2.8357142857142854L19.335714285714285,3.3785714285714286L19.978571428571428,3.3785714285714286L19.978571428571428,3.8071428571428574L20.521428571428572,3.8071428571428574L20.521428571428572,3.6928571428571426L20.307142857142857,3.6928571428571426L20.307142857142857,3.2642857142857142L19.664285714285715,3.2642857142857142L19.664285714285715,3.05L19.5,3.05L19.5,2.95L19.764285714285716,2.95L19.764285714285716,3.1642857142857146L20.40714285714286,3.1642857142857146L20.40714285714286,3.592857142857143z" stroke="none"/><path d="M11.95,6.807142857142857L11.95,6.692857142857142L11.735714285714284,6.692857142857142L11.735714285714284,6.478571428571428L11.307142857142857,6.478571428571428L11.307142857142857,6.264285714285714L11.092857142857142,6.264285714285714L11.092857142857142,6.05L10.5,6.05L10.5,5.95L11.192857142857143,5.95L11.192857142857143,6.164285714285715L11.407142857142858,6.164285714285715L11.407142857142858,6.378571428571428L11.835714285714285,6.378571428571428L11.835714285714285,6.5928571428571425L12.05,6.5928571428571425L12.05,6.807142857142857L13.978571428571428,6.807142857142857L13.978571428571428,8.092857142857142L14.192857142857143,8.092857142857142L14.192857142857143,8.307142857142857L14.835714285714285,8.307142857142857L14.835714285714285,8.95L15,8.95L15,9.05L14.735714285714284,9.05L14.735714285714284,8.407142857142858L14.092857142857142,8.407142857142858L14.092857142857142,8.192857142857143L13.878571428571426,8.192857142857143L13.878571428571426,6.907142857142857L12.05,6.907142857142857L12.05,7.121428571428571L8.835714285714285,7.121428571428571L8.835714285714285,7.335714285714285L8.62142857142857,7.335714285714285L8.62142857142857,7.55L8.192857142857143,7.55L8.192857142857143,7.764285714285714L7.978571428571428,7.764285714285714L7.978571428571428,8.62142857142857L7.764285714285714,8.62142857142857L7.764285714285714,8.835714285714285L7.55,8.835714285714285L7.55,9L7.45,9L7.45,8.735714285714284L7.664285714285715,8.735714285714284L7.664285714285715,8.521428571428569L7.878571428571428,8.521428571428569L7.878571428571428,7.664285714285715L8.092857142857142,7.664285714285715L8.092857142857142,7.45L8.521428571428569,7.45L8.521428571428569,7.235714285714286L8.735714285714284,7.235714285714286L8.735714285714284,7.021428571428571L11.95,7.021428571428571L11.95,6.907142857142857L7.235714285714286,6.907142857142857L7.235714285714286,6.692857142857142L7.021428571428571,6.692857142857142L7.021428571428571,5.307142857142857L7.235714285714286,5.307142857142857L7.235714285714286,5.0928571428571425L7.45,5.0928571428571425L7.45,4.878571428571429L9.378571428571426,4.878571428571429L9.378571428571426,4.664285714285715L9.592857142857142,4.664285714285715L9.592857142857142,4.45L10.021428571428569,4.45L10.021428571428569,4.021428571428571L14.192857142857143,4.021428571428571L14.192857142857143,4.235714285714286L15.05,4.235714285714286L15.05,4.5L14.95,4.5L14.95,4.335714285714285L14.092857142857142,4.335714285714285L14.092857142857142,4.121428571428571L10.12142857142857,4.121428571428571L10.12142857142857,4.55L9.692857142857143,4.55L9.692857142857143,4.764285714285714L9.478571428571428,4.764285714285714L9.478571428571428,4.978571428571429L7.55,4.978571428571429L7.55,5.192857142857142L7.335714285714285,5.192857142857142L7.335714285714285,5.407142857142857L7.121428571428571,5.407142857142857L7.121428571428571,6.5928571428571425L7.335714285714285,6.5928571428571425L7.335714285714285,6.807142857142857z" stroke="none"/><path d="M9,4.45L9,4.55L7.5,4.55L7.5,4.45z" stroke="none"/><path d="M26.95,10.5L27.05,10.5L27.05,12L26.95,12z" stroke="none"/><path d="M13.5,8.95L13.5,9.05L13.235714285714284,9.05L13.235714285714284,8.62142857142857L13.021428571428569,8.62142857142857L13.021428571428569,8.192857142857143L11.95,8.192857142857143L11.95,7.5L12.05,7.5L12.05,8.092857142857142L13.12142857142857,8.092857142857142L13.12142857142857,8.521428571428569L13.335714285714285,8.521428571428569L13.335714285714285,8.95z" stroke="none"/><path d="M19.45,10.5L19.55,10.5L19.55,11.192857142857143L18.90714285714286,11.192857142857143L18.90714285714286,11.62142857142857L18.264285714285716,11.62142857142857L18.264285714285716,11.835714285714285L18.05,11.835714285714285L18.05,12L17.95,12L17.95,11.735714285714284L18.164285714285715,11.735714285714284L18.164285714285715,11.521428571428569L18.807142857142857,11.521428571428569L18.807142857142857,11.092857142857142L19.45,11.092857142857142z" stroke="none"/><path d="M25.55,7.5L25.45,7.5L25.45,4.5L25.55,4.5z" stroke="none"/><path d="M24,10.45L24,10.55L21,10.55L21,10.45z" stroke="none"/><path d="M12,11.95L12,12.05L11.092857142857142,12.05L11.092857142857142,11.835714285714285L10.878571428571426,11.835714285714285L10.878571428571426,11.62142857142857L10.12142857142857,11.62142857142857L10.12142857142857,11.835714285714285L9.907142857142858,11.835714285714285L9.907142857142858,12.05L9,12.05L9,11.95L9.807142857142857,11.95L9.807142857142857,11.735714285714284L10.021428571428569,11.735714285714284L10.021428571428569,11.521428571428569L10.978571428571428,11.521428571428569L10.978571428571428,11.735714285714284L11.192857142857143,11.735714285714284L11.192857142857143,11.95z" stroke="none"/><path d="M13.5,10.55L13.5,10.45L15.05,10.45L15.05,10.664285714285715L15.264285714285716,10.664285714285715L15.264285714285716,10.878571428571426L15.907142857142858,10.878571428571426L15.907142857142858,11.307142857142857L16.12142857142857,11.307142857142857L16.12142857142857,11.521428571428569L16.335714285714285,11.521428571428569L16.335714285714285,11.95L16.5,11.95L16.5,12.05L16.235714285714284,12.05L16.235714285714284,11.62142857142857L16.02142857142857,11.62142857142857L16.02142857142857,11.407142857142858L15.807142857142857,11.407142857142858L15.807142857142857,10.978571428571428L15.164285714285715,10.978571428571428L15.164285714285715,10.764285714285716L14.95,10.764285714285716L14.95,10.55z" stroke="none"/><path d="M3,4.55L3,4.45L5.307142857142857,4.45L5.307142857142857,3.8071428571428574L5.521428571428571,3.8071428571428574L5.521428571428571,3.592857142857143L5.735714285714286,3.592857142857143L5.735714285714286,2.95L6,2.95L6,3.05L5.835714285714285,3.05L5.835714285714285,3.6928571428571426L5.621428571428571,3.6928571428571426L5.621428571428571,3.907142857142857L5.407142857142857,3.907142857142857L5.407142857142857,4.55z" stroke="none"/><path d="M4.55,9L4.45,9L4.45,8.521428571428569L4.664285714285715,8.521428571428569L4.664285714285715,8.092857142857142L4.878571428571429,8.092857142857142L4.878571428571429,7.021428571428571L5.0928571428571425,7.021428571428571L5.0928571428571425,6.807142857142857L5.521428571428571,6.807142857142857L5.521428571428571,6.164285714285715L5.735714285714286,6.164285714285715L5.735714285714286,5.95L6,5.95L6,6.05L5.835714285714285,6.05L5.835714285714285,6.264285714285714L5.621428571428571,6.264285714285714L5.621428571428571,6.907142857142857L5.192857142857142,6.907142857142857L5.192857142857142,7.121428571428571L4.978571428571429,7.121428571428571L4.978571428571429,8.192857142857143L4.764285714285714,8.192857142857143L4.764285714285714,8.62142857142857L4.55,8.62142857142857z" stroke="none"/><path d="M5.95,7.5L6.05,7.5L6.05,8.95L6.264285714285714,8.95L6.264285714285714,9.378571428571426L6.692857142857142,9.378571428571426L6.692857142857142,9.592857142857142L7.121428571428571,9.592857142857142L7.121428571428571,10.021428571428569L7.335714285714285,10.021428571428569L7.335714285714285,10.235714285714284L7.55,10.235714285714284L7.55,10.5L7.45,10.5L7.45,10.335714285714285L7.235714285714286,10.335714285714285L7.235714285714286,10.12142857142857L7.021428571428571,10.12142857142857L7.021428571428571,9.692857142857143L6.5928571428571425,9.692857142857143L6.5928571428571425,9.478571428571428L6.164285714285715,9.478571428571428L6.164285714285715,9.05L5.95,9.05z" stroke="none"/><path d="M11.95,9L12.05,9L12.05,10.45L12.692857142857143,10.45L12.692857142857143,10.878571428571426L14.62142857142857,10.878571428571426L14.62142857142857,11.735714285714284L14.835714285714285,11.735714285714284L14.835714285714285,11.95L15,11.95L15,12.05L14.735714285714284,12.05L14.735714285714284,11.835714285714285L14.521428571428569,11.835714285714285L14.521428571428569,10.978571428571428L12.592857142857142,10.978571428571428L12.592857142857142,10.55L11.95,10.55z" stroke="none"/><path d="M2.95,3L3.05,3L3.05,3.907142857142857L2.8357142857142854,3.907142857142857L2.8357142857142854,4.121428571428571L2.6214285714285714,4.121428571428571L2.6214285714285714,6.807142857142857L2.8357142857142854,6.807142857142857L2.8357142857142854,7.021428571428571L3.05,7.021428571428571L3.05,7.5L2.95,7.5L2.95,7.121428571428571L2.7357142857142858,7.121428571428571L2.7357142857142858,6.907142857142857L2.521428571428572,6.907142857142857L2.521428571428572,4.021428571428571L2.7357142857142858,4.021428571428571L2.7357142857142858,3.8071428571428574L2.95,3.8071428571428574z" stroke="none"/><path d="M16.5,2.95L16.5,3.05L14.092857142857142,3.05L14.092857142857142,2.8357142857142854L13.878571428571426,2.8357142857142854L13.878571428571426,2.6214285714285714L12.907142857142858,2.6214285714285714L12.907142857142858,2.8357142857142854L12.264285714285716,2.8357142857142854L12.264285714285716,3.05L12,3.05L12,2.95L12.164285714285715,2.95L12.164285714285715,2.7357142857142858L12.807142857142857,2.7357142857142858L12.807142857142857,2.521428571428572L13.978571428571428,2.521428571428572L13.978571428571428,2.7357142857142858L14.192857142857143,2.7357142857142858L14.192857142857143,2.95z" stroke="none"/><path d="M18,3.05L18,2.95L18.378571428571426,2.95L18.378571428571426,2.521428571428572L25.978571428571428,2.521428571428572L25.978571428571428,3.6928571428571426L24.90714285714286,3.6928571428571426L24.90714285714286,3.907142857142857L23.835714285714285,3.907142857142857L23.835714285714285,4.121428571428571L22.978571428571428,4.121428571428571L22.978571428571428,4.335714285714285L22.55,4.335714285714285L22.55,4.5L22.45,4.5L22.45,4.235714285714286L22.878571428571426,4.235714285714286L22.878571428571426,4.021428571428571L23.735714285714284,4.021428571428571L23.735714285714284,3.8071428571428574L24.807142857142857,3.8071428571428574L24.807142857142857,3.592857142857143L25.878571428571426,3.592857142857143L25.878571428571426,2.6214285714285714L18.478571428571428,2.6214285714285714L18.478571428571428,3.05z" stroke="none"/><path d="M7.45,7.5L7.55,7.5L7.55,7.978571428571428L7.335714285714285,7.978571428571428L7.335714285714285,8.407142857142858L7.121428571428571,8.407142857142858L7.121428571428571,9.378571428571426L7.978571428571428,9.378571428571426L7.978571428571428,11.735714285714284L8.192857142857143,11.735714285714284L8.192857142857143,12.378571428571426L10.235714285714284,12.378571428571426L10.235714285714284,12.164285714285715L10.45,12.164285714285715L10.45,12L10.55,12L10.55,12.264285714285716L10.335714285714285,12.264285714285716L10.335714285714285,12.478571428571428L8.092857142857142,12.478571428571428L8.092857142857142,11.835714285714285L7.878571428571428,11.835714285714285L7.878571428571428,9.478571428571428L7.021428571428571,9.478571428571428L7.021428571428571,8.307142857142857L7.235714285714286,8.307142857142857L7.235714285714286,7.878571428571428L7.45,7.878571428571428z" stroke="none"/><path d="M10.55,10.5L10.45,10.5L10.45,10.021428571428569L10.664285714285715,10.021428571428569L10.664285714285715,9.807142857142857L11.092857142857142,9.807142857142857L11.092857142857142,9.164285714285715L11.307142857142857,9.164285714285715L11.307142857142857,8.735714285714284L11.521428571428569,8.735714285714284L11.521428571428569,8.521428571428569L12.907142857142858,8.521428571428569L12.907142857142858,8.735714285714284L13.12142857142857,8.735714285714284L13.12142857142857,9.378571428571426L13.978571428571428,9.378571428571426L13.978571428571428,9.592857142857142L16.12142857142857,9.592857142857142L16.12142857142857,9.807142857142857L16.335714285714285,9.807142857142857L16.335714285714285,10.021428571428569L16.55,10.021428571428569L16.55,10.5L16.45,10.5L16.45,10.12142857142857L16.235714285714284,10.12142857142857L16.235714285714284,9.907142857142858L16.02142857142857,9.907142857142858L16.02142857142857,9.692857142857143L13.878571428571426,9.692857142857143L13.878571428571426,9.478571428571428L13.021428571428569,9.478571428571428L13.021428571428569,8.835714285714285L12.807142857142857,8.835714285714285L12.807142857142857,8.62142857142857L11.62142857142857,8.62142857142857L11.62142857142857,8.835714285714285L11.407142857142858,8.835714285714285L11.407142857142858,9.264285714285716L11.192857142857143,9.264285714285716L11.192857142857143,9.907142857142858L10.764285714285716,9.907142857142858L10.764285714285716,10.12142857142857L10.55,10.12142857142857z" stroke="none"/><path d="M7.5,12.05L7.5,11.95L7.978571428571428,11.95L7.978571428571428,12.592857142857142L10.664285714285715,12.592857142857142L10.664285714285715,12.378571428571426L12.378571428571426,12.378571428571426L12.378571428571426,12.164285714285715L13.021428571428569,12.164285714285715L13.021428571428569,11.95L13.5,11.95L13.5,12.05L13.12142857142857,12.05L13.12142857142857,12.264285714285716L12.478571428571428,12.264285714285716L12.478571428571428,12.478571428571428L10.764285714285716,12.478571428571428L10.764285714285716,12.692857142857143L7.878571428571428,12.692857142857143L7.878571428571428,12.05z" stroke="none"/><path d="M16.55,4.5L16.45,4.5L16.45,3.3785714285714286L16.878571428571426,3.3785714285714286L16.878571428571426,2.6214285714285714L15.592857142857142,2.6214285714285714L15.592857142857142,2.407142857142857L12.478571428571428,2.407142857142857L12.478571428571428,2.6214285714285714L11.192857142857143,2.6214285714285714L11.192857142857143,3.05L10.5,3.05L10.5,2.95L11.092857142857142,2.95L11.092857142857142,2.521428571428572L12.378571428571426,2.521428571428572L12.378571428571426,2.3071428571428574L15.692857142857143,2.3071428571428574L15.692857142857143,2.521428571428572L16.978571428571428,2.521428571428572L16.978571428571428,3.478571428571428L16.55,3.478571428571428z" stroke="none"/><path d="M4.45,10.5L4.55,10.5L4.55,10.878571428571426L4.764285714285714,10.878571428571426L4.764285714285714,11.307142857142857L5.192857142857142,11.307142857142857L5.192857142857142,11.521428571428569L5.407142857142857,11.521428571428569L5.407142857142857,11.735714285714284L5.621428571428571,11.735714285714284L5.621428571428571,12.164285714285715L6.907142857142857,12.164285714285715L6.907142857142857,12.378571428571426L7.335714285714285,12.378571428571426L7.335714285714285,12.592857142857142L7.55,12.592857142857142L7.55,12.807142857142857L13.45,12.807142857142857L13.45,12.592857142857142L13.664285714285715,12.592857142857142L13.664285714285715,12.378571428571426L13.878571428571426,12.378571428571426L13.878571428571426,11.62142857142857L11.307142857142857,11.62142857142857L11.307142857142857,11.407142857142858L10.878571428571426,11.407142857142858L10.878571428571426,11.192857142857143L10.235714285714284,11.192857142857143L10.235714285714284,10.978571428571428L10.021428571428569,10.978571428571428L10.021428571428569,7.664285714285715L10.235714285714284,7.664285714285715L10.235714285714284,7.45L10.5,7.45L10.5,7.55L10.335714285714285,7.55L10.335714285714285,7.764285714285714L10.12142857142857,7.764285714285714L10.12142857142857,10.878571428571426L10.335714285714285,10.878571428571426L10.335714285714285,11.092857142857142L10.978571428571428,11.092857142857142L10.978571428571428,11.307142857142857L11.407142857142858,11.307142857142857L11.407142857142858,11.521428571428569L13.978571428571428,11.521428571428569L13.978571428571428,12.478571428571428L13.764285714285716,12.478571428571428L13.764285714285716,12.692857142857143L13.55,12.692857142857143L13.55,12.907142857142858L7.45,12.907142857142858L7.45,12.692857142857143L7.235714285714286,12.692857142857143L7.235714285714286,12.478571428571428L6.807142857142857,12.478571428571428L6.807142857142857,12.264285714285716L5.521428571428571,12.264285714285716L5.521428571428571,11.835714285714285L5.307142857142857,11.835714285714285L5.307142857142857,11.62142857142857L5.0928571428571425,11.62142857142857L5.0928571428571425,11.407142857142858L4.664285714285715,11.407142857142858L4.664285714285715,10.978571428571428L4.45,10.978571428571428z" stroke="none"/><path d="M4.45,7.5L4.55,7.5L4.55,8.407142857142858L4.335714285714285,8.407142857142858L4.335714285714285,8.62142857142857L4.121428571428571,8.62142857142857L4.121428571428571,11.521428571428569L4.55,11.521428571428569L4.55,11.735714285714284L4.764285714285714,11.735714285714284L4.764285714285714,11.95L5.192857142857142,11.95L5.192857142857142,12.164285714285715L5.407142857142857,12.164285714285715L5.407142857142857,12.378571428571426L6.05,12.378571428571426L6.05,12.592857142857142L6.264285714285714,12.592857142857142L6.264285714285714,12.807142857142857L7.335714285714285,12.807142857142857L7.335714285714285,13.021428571428569L20.307142857142857,13.021428571428569L20.307142857142857,12.807142857142857L20.95,12.807142857142857L20.95,12.592857142857142L21.378571428571426,12.592857142857142L21.378571428571426,11.407142857142858L20.735714285714284,11.407142857142858L20.735714285714284,11.192857142857143L20.521428571428572,11.192857142857143L20.521428571428572,10.021428571428569L21.378571428571426,10.021428571428569L21.378571428571426,9.807142857142857L22.021428571428572,9.807142857142857L22.021428571428572,9.378571428571426L22.45,9.378571428571426L22.45,8.521428571428569L22.664285714285715,8.521428571428569L22.664285714285715,8.307142857142857L22.878571428571426,8.307142857142857L22.878571428571426,7.121428571428571L15.264285714285716,7.121428571428571L15.264285714285716,7.335714285714285L15.05,7.335714285714285L15.05,7.5L14.95,7.5L14.95,7.235714285714286L15.164285714285715,7.235714285714286L15.164285714285715,7.021428571428571L22.978571428571428,7.021428571428571L22.978571428571428,8.407142857142858L22.764285714285716,8.407142857142858L22.764285714285716,8.62142857142857L22.55,8.62142857142857L22.55,9.478571428571428L22.121428571428574,9.478571428571428L22.121428571428574,9.907142857142858L21.478571428571428,9.907142857142858L21.478571428571428,10.12142857142857L20.621428571428574,10.12142857142857L20.621428571428574,11.092857142857142L20.835714285714285,11.092857142857142L20.835714285714285,11.307142857142857L21.478571428571428,11.307142857142857L21.478571428571428,12.692857142857143L21.05,12.692857142857143L21.05,12.907142857142858L20.40714285714286,12.907142857142858L20.40714285714286,13.12142857142857L7.235714285714286,13.12142857142857L7.235714285714286,12.907142857142858L6.164285714285715,12.907142857142858L6.164285714285715,12.692857142857143L5.95,12.692857142857143L5.95,12.478571428571428L5.307142857142857,12.478571428571428L5.307142857142857,12.264285714285716L5.0928571428571425,12.264285714285716L5.0928571428571425,12.05L4.664285714285715,12.05L4.664285714285715,11.835714285714285L4.45,11.835714285714285L4.45,11.62142857142857L4.021428571428571,11.62142857142857L4.021428571428571,8.521428571428569L4.235714285714286,8.521428571428569L4.235714285714286,8.307142857142857L4.45,8.307142857142857z" stroke="none"/><path d="M19.5,4.45L19.5,4.55L18.378571428571426,4.55L18.378571428571426,4.335714285714285L17.95,4.335714285714285L17.95,4.121428571428571L17.735714285714284,4.121428571428571L17.735714285714284,3.907142857142857L17.521428571428572,3.907142857142857L17.521428571428572,2.8357142857142854L17.307142857142857,2.8357142857142854L17.307142857142857,2.6214285714285714L17.09285714285714,2.6214285714285714L17.09285714285714,2.407142857142857L15.807142857142857,2.407142857142857L15.807142857142857,2.1928571428571426L9.478571428571428,2.1928571428571426L9.478571428571428,2.6214285714285714L9.05,2.6214285714285714L9.05,3L8.95,3L8.95,2.521428571428572L9.378571428571426,2.521428571428572L9.378571428571426,2.092857142857143L15.907142857142858,2.092857142857143L15.907142857142858,2.3071428571428574L17.192857142857143,2.3071428571428574L17.192857142857143,2.521428571428572L17.40714285714286,2.521428571428572L17.40714285714286,2.7357142857142858L17.621428571428574,2.7357142857142858L17.621428571428574,3.8071428571428574L17.835714285714285,3.8071428571428574L17.835714285714285,4.021428571428571L18.05,4.021428571428571L18.05,4.235714285714286L18.478571428571428,4.235714285714286L18.478571428571428,4.45z" stroke="none"/><path d="M7.5,3.05L7.5,2.95L8.092857142857142,2.95L8.092857142857142,2.521428571428572L8.735714285714284,2.521428571428572L8.735714285714284,2.3071428571428574L9.164285714285715,2.3071428571428574L9.164285714285715,1.8785714285714286L25.978571428571428,1.8785714285714286L25.978571428571428,2.092857142857143L26.192857142857143,2.092857142857143L26.192857142857143,3.907142857142857L25.12142857142857,3.907142857142857L25.12142857142857,4.121428571428571L24.692857142857143,4.121428571428571L24.692857142857143,4.978571428571429L24.264285714285716,4.978571428571429L24.264285714285716,5.192857142857142L24.05,5.192857142857142L24.05,5.621428571428571L23.835714285714285,5.621428571428571L23.835714285714285,5.835714285714285L23.62142857142857,5.835714285714285L23.62142857142857,6.05L23.40714285714286,6.05L23.40714285714286,6.264285714285714L23.192857142857143,6.264285714285714L23.192857142857143,6.692857142857142L16.02142857142857,6.692857142857142L16.02142857142857,5.521428571428571L17.192857142857143,5.521428571428571L17.192857142857143,5.735714285714286L18.05,5.735714285714286L18.05,6L17.95,6L17.95,5.835714285714285L17.09285714285714,5.835714285714285L17.09285714285714,5.621428571428571L16.12142857142857,5.621428571428571L16.12142857142857,6.5928571428571425L23.09285714285714,6.5928571428571425L23.09285714285714,6.164285714285715L23.307142857142857,6.164285714285715L23.307142857142857,5.95L23.52142857142857,5.95L23.52142857142857,5.735714285714286L23.735714285714284,5.735714285714286L23.735714285714284,5.521428571428571L23.95,5.521428571428571L23.95,5.0928571428571425L24.164285714285715,5.0928571428571425L24.164285714285715,4.878571428571429L24.59285714285714,4.878571428571429L24.59285714285714,4.021428571428571L25.02142857142857,4.021428571428571L25.02142857142857,3.8071428571428574L26.09285714285714,3.8071428571428574L26.09285714285714,2.1928571428571426L25.878571428571426,2.1928571428571426L25.878571428571426,1.9785714285714286L9.264285714285716,1.9785714285714286L9.264285714285716,2.407142857142857L8.835714285714285,2.407142857142857L8.835714285714285,2.6214285714285714L8.192857142857143,2.6214285714285714L8.192857142857143,3.05z" stroke="none"/><path d="M6,10.45L6,10.55L5.521428571428571,10.55L5.521428571428571,7.021428571428571L6.164285714285715,7.021428571428571L6.164285714285715,6.5928571428571425L6.378571428571428,6.5928571428571425L6.378571428571428,5.621428571428571L4.764285714285714,5.621428571428571L4.764285714285714,6.264285714285714L4.55,6.264285714285714L4.55,6.692857142857142L4.335714285714285,6.692857142857142L4.335714285714285,6.907142857142857L4.121428571428571,6.907142857142857L4.121428571428571,8.407142857142858L3.907142857142857,8.407142857142858L3.907142857142857,12.378571428571426L5.192857142857142,12.378571428571426L5.192857142857142,12.592857142857142L5.621428571428571,12.592857142857142L5.621428571428571,12.807142857142857L6.05,12.807142857142857L6.05,13.021428571428569L7.121428571428571,13.021428571428569L7.121428571428571,13.235714285714284L22.021428571428572,13.235714285714284L22.021428571428572,13.021428571428569L22.45,13.021428571428569L22.45,12.592857142857142L22.664285714285715,12.592857142857142L22.664285714285715,11.95L23.09285714285714,11.95L23.09285714285714,11.735714285714284L23.735714285714284,11.735714285714284L23.735714285714284,11.307142857142857L23.95,11.307142857142857L23.95,11.092857142857142L24.378571428571426,11.092857142857142L24.378571428571426,10.12142857142857L23.95,10.12142857142857L23.95,9.478571428571428L23.52142857142857,9.478571428571428L23.52142857142857,7.978571428571428L23.307142857142857,7.978571428571428L23.307142857142857,7.764285714285714L23.09285714285714,7.764285714285714L23.09285714285714,6.907142857142857L14.62142857142857,6.907142857142857L14.62142857142857,7.878571428571428L17.521428571428572,7.878571428571428L17.521428571428572,7.45L18,7.45L18,7.55L17.621428571428574,7.55L17.621428571428574,7.978571428571428L14.521428571428569,7.978571428571428L14.521428571428569,6.807142857142857L23.192857142857143,6.807142857142857L23.192857142857143,7.664285714285715L23.40714285714286,7.664285714285715L23.40714285714286,7.878571428571428L23.62142857142857,7.878571428571428L23.62142857142857,9.378571428571426L24.05,9.378571428571426L24.05,10.021428571428569L24.478571428571428,10.021428571428569L24.478571428571428,11.192857142857143L24.05,11.192857142857143L24.05,11.407142857142858L23.835714285714285,11.407142857142858L23.835714285714285,11.835714285714285L23.192857142857143,11.835714285714285L23.192857142857143,12.05L22.764285714285716,12.05L22.764285714285716,12.692857142857143L22.55,12.692857142857143L22.55,13.12142857142857L22.121428571428574,13.12142857142857L22.121428571428574,13.335714285714285L7.021428571428571,13.335714285714285L7.021428571428571,13.12142857142857L5.95,13.12142857142857L5.95,12.907142857142858L5.521428571428571,12.907142857142858L5.521428571428571,12.692857142857143L5.0928571428571425,12.692857142857143L5.0928571428571425,12.478571428571428L3.8071428571428574,12.478571428571428L3.8071428571428574,8.307142857142857L4.021428571428571,8.307142857142857L4.021428571428571,6.807142857142857L4.235714285714286,6.807142857142857L4.235714285714286,6.5928571428571425L4.45,6.5928571428571425L4.45,6.164285714285715L4.664285714285715,6.164285714285715L4.664285714285715,5.521428571428571L6.478571428571428,5.521428571428571L6.478571428571428,6.692857142857142L6.264285714285714,6.692857142857142L6.264285714285714,7.121428571428571L5.621428571428571,7.121428571428571L5.621428571428571,10.45z" stroke="none"/></svg>