<svg version="1.1" width="30" height="15" xmlns="http://www.w3.org/2000/svg"><path d="M17.09285714285714,9.807142857142857L17.09285714285714,9.592857142857142L17.307142857142857,9.592857142857142L17.307142857142857,9.378571428571426L17.735714285714284,9.378571428571426L17.735714285714284,8.95L18,8.95L18,9.05L17.835714285714285,9.05L17.835714285714285,9.478571428571428L17.40714285714286,9.478571428571428L17.40714285714286,9.692857142857143L17.192857142857143,9.692857142857143L17.192857142857143,9.907142857142858L16.978571428571428,9.907142857142858L16.978571428571428,10.021428571428569L19.764285714285716,10.021428571428569L19.764285714285716,10.235714285714284L21.264285714285716,10.235714285714284L21.264285714285716,10.45L22.5,10.45L22.5,10.55L21.164285714285715,10.55L21.164285714285715,10.335714285714285L19.664285714285715,10.335714285714285L19.664285714285715,10.12142857142857L16.878571428571426,10.12142857142857L16.878571428571426,9.907142857142858L13.764285714285716,9.907142857142858L13.764285714285716,10.12142857142857L11.62142857142857,10.12142857142857L11.62142857142857,10.335714285714285L10.978571428571428,10.335714285714285L10.978571428571428,10.55L10.5,10.55L10.5,10.45L10.878571428571426,10.45L10.878571428571426,10.235714285714284L11.521428571428569,10.235714285714284L11.521428571428569,10.021428571428569L13.664285714285715,10.021428571428569L13.664285714285715,9.807142857142857z" stroke="none"/><path d="M9.807142857142857,5.95L9.807142857142857,4.664285714285715L10.021428571428569,4.664285714285715L10.021428571428569,4.45L10.5,4.45L10.5,4.55L10.12142857142857,4.55L10.12142857142857,4.764285714285714L9.907142857142858,4.764285714285714L9.907142857142858,5.95L11.521428571428569,5.95L11.521428571428569,5.521428571428571L12.592857142857142,5.521428571428571L12.592857142857142,5.0928571428571425L12.807142857142857,5.0928571428571425L12.807142857142857,4.878571428571429L13.021428571428569,4.878571428571429L13.021428571428569,4.664285714285715L13.235714285714284,4.664285714285715L13.235714285714284,4.45L13.5,4.45L13.5,4.55L13.335714285714285,4.55L13.335714285714285,4.764285714285714L13.12142857142857,4.764285714285714L13.12142857142857,4.978571428571429L12.907142857142858,4.978571428571429L12.907142857142858,5.192857142857142L12.692857142857143,5.192857142857142L12.692857142857143,5.621428571428571L11.62142857142857,5.621428571428571L11.62142857142857,6.05L9.692857142857143,6.05L9.692857142857143,6.478571428571428L7.978571428571428,6.478571428571428L7.978571428571428,6.692857142857142L7.764285714285714,6.692857142857142L7.764285714285714,7.121428571428571L7.55,7.121428571428571L7.55,7.335714285714285L6.907142857142857,7.335714285714285L6.907142857142857,7.55L6.692857142857142,7.55L6.692857142857142,7.764285714285714L6.478571428571428,7.764285714285714L6.478571428571428,7.978571428571428L6.264285714285714,7.978571428571428L6.264285714285714,8.62142857142857L6.05,8.62142857142857L6.05,9L5.95,9L5.95,8.521428571428569L6.164285714285715,8.521428571428569L6.164285714285715,7.878571428571428L6.378571428571428,7.878571428571428L6.378571428571428,7.664285714285715L6.5928571428571425,7.664285714285715L6.5928571428571425,7.45L6.807142857142857,7.45L6.807142857142857,7.235714285714286L7.45,7.235714285714286L7.45,7.021428571428571L7.664285714285715,7.021428571428571L7.664285714285715,6.5928571428571425L7.878571428571428,6.5928571428571425L7.878571428571428,6.378571428571428L9.592857142857142,6.378571428571428L9.592857142857142,5.95z" stroke="none"/><path d="M6.807142857142857,4.878571428571429L6.807142857142857,4.764285714285714L3.592857142857143,4.764285714285714L3.592857142857143,3.478571428571428L2.95,3.478571428571428L2.95,3L3.05,3L3.05,3.3785714285714286L3.6928571428571426,3.3785714285714286L3.6928571428571426,4.664285714285715L6.907142857142857,4.664285714285715L6.907142857142857,4.878571428571429L9.378571428571426,4.878571428571429L9.378571428571426,4.45L9.592857142857142,4.45L9.592857142857142,4.021428571428571L13.978571428571428,4.021428571428571L13.978571428571428,5.621428571428571L13.764285714285716,5.621428571428571L13.764285714285716,6.05L13.5,6.05L13.5,5.95L13.664285714285715,5.95L13.664285714285715,5.521428571428571L13.878571428571426,5.521428571428571L13.878571428571426,4.121428571428571L9.692857142857143,4.121428571428571L9.692857142857143,4.55L9.478571428571428,4.55L9.478571428571428,4.978571428571429L6.692857142857142,4.978571428571429L6.692857142857142,5.192857142857142L6.05,5.192857142857142L6.05,5.407142857142857L5.407142857142857,5.407142857142857L5.407142857142857,5.621428571428571L4.978571428571429,5.621428571428571L4.978571428571429,6.05L4.5,6.05L4.5,5.95L4.878571428571429,5.95L4.878571428571429,5.521428571428571L5.307142857142857,5.521428571428571L5.307142857142857,5.307142857142857L5.95,5.307142857142857L5.95,5.0928571428571425L6.5928571428571425,5.0928571428571425L6.5928571428571425,4.878571428571429z" stroke="none"/><path d="M18.164285714285715,4.021428571428571L18.164285714285715,3.05L18,3.05L18,2.95L18.264285714285716,2.95L18.264285714285716,4.021428571428571L18.478571428571428,4.021428571428571L18.478571428571428,4.235714285714286L18.692857142857143,4.235714285714286L18.692857142857143,5.0928571428571425L19.335714285714285,5.0928571428571425L19.335714285714285,5.735714285714286L19.55,5.735714285714286L19.55,6L19.45,6L19.45,5.835714285714285L19.235714285714284,5.835714285714285L19.235714285714284,5.192857142857142L18.59285714285714,5.192857142857142L18.59285714285714,4.335714285714285L18.378571428571426,4.335714285714285L18.378571428571426,4.121428571428571L18.264285714285716,4.121428571428571L18.264285714285716,4.335714285714285L17.192857142857143,4.335714285714285L17.192857142857143,4.55L16.978571428571428,4.55L16.978571428571428,4.978571428571429L14.95,4.978571428571429L14.95,4.5L15.05,4.5L15.05,4.878571428571429L16.878571428571426,4.878571428571429L16.878571428571426,4.45L17.09285714285714,4.45L17.09285714285714,4.235714285714286L18.164285714285715,4.235714285714286L18.164285714285715,4.121428571428571L17.95,4.121428571428571L17.95,3.2642857142857142L17.735714285714284,3.2642857142857142L17.735714285714284,2.7357142857142858L21.05,2.7357142857142858L21.05,3L20.95,3L20.95,2.8357142857142854L17.835714285714285,2.8357142857142854L17.835714285714285,3.1642857142857146L18.05,3.1642857142857146L18.05,4.021428571428571z" stroke="none"/><path d="M14.95,3.8071428571428574L14.95,3.592857142857143L17.307142857142857,3.592857142857143L17.307142857142857,2.7357142857142858L17.521428571428572,2.7357142857142858L17.521428571428572,2.521428571428572L21.478571428571428,2.521428571428572L21.478571428571428,5.621428571428571L21.264285714285716,5.621428571428571L21.264285714285716,5.835714285714285L21.05,5.835714285714285L21.05,6L20.95,6L20.95,5.735714285714286L21.164285714285715,5.735714285714286L21.164285714285715,5.521428571428571L21.378571428571426,5.521428571428571L21.378571428571426,2.6214285714285714L17.621428571428574,2.6214285714285714L17.621428571428574,2.8357142857142854L17.40714285714286,2.8357142857142854L17.40714285714286,3.6928571428571426L15.05,3.6928571428571426L15.05,3.8071428571428574L15.692857142857143,3.8071428571428574L15.692857142857143,4.021428571428571L15.907142857142858,4.021428571428571L15.907142857142858,4.235714285714286L16.12142857142857,4.235714285714286L16.12142857142857,4.45L16.5,4.45L16.5,4.55L16.02142857142857,4.55L16.02142857142857,4.335714285714285L15.807142857142857,4.335714285714285L15.807142857142857,4.121428571428571L15.592857142857142,4.121428571428571L15.592857142857142,3.907142857142857L15.05,3.907142857142857L15.05,4.121428571428571L14.307142857142857,4.121428571428571L14.307142857142857,3.907142857142857L10.664285714285715,3.907142857142857L10.664285714285715,3.05L10.5,3.05L10.5,2.95L10.764285714285716,2.95L10.764285714285716,3.8071428571428574L14.407142857142858,3.8071428571428574L14.407142857142858,4.021428571428571L14.95,4.021428571428571L14.95,3.907142857142857L14.735714285714284,3.907142857142857L14.735714285714284,3.6928571428571426L13.878571428571426,3.6928571428571426L13.878571428571426,3.05L12,3.05L12,2.95L13.978571428571428,2.95L13.978571428571428,3.592857142857143L14.835714285714285,3.592857142857143L14.835714285714285,3.8071428571428574z" stroke="none"/><path d="M17.521428571428572,10.45L17.521428571428572,10.235714285714284L19.55,10.235714285714284L19.55,10.45L21.05,10.45L21.05,10.664285714285715L22.121428571428574,10.664285714285715L22.121428571428574,10.878571428571426L23.40714285714286,10.878571428571426L23.40714285714286,11.092857142857142L23.62142857142857,11.092857142857142L23.62142857142857,11.521428571428569L23.835714285714285,11.521428571428569L23.835714285714285,11.735714285714284L24.05,11.735714285714284L24.05,12L23.95,12L23.95,11.835714285714285L23.735714285714284,11.835714285714285L23.735714285714284,11.62142857142857L23.52142857142857,11.62142857142857L23.52142857142857,11.192857142857143L23.307142857142857,11.192857142857143L23.307142857142857,10.978571428571428L22.021428571428572,10.978571428571428L22.021428571428572,10.764285714285716L20.95,10.764285714285716L20.95,10.55L19.45,10.55L19.45,10.335714285714285L17.621428571428574,10.335714285714285L17.621428571428574,10.45L18.90714285714286,10.45L18.90714285714286,10.878571428571426L19.121428571428574,10.878571428571426L19.121428571428574,11.092857142857142L19.55,11.092857142857142L19.55,11.307142857142857L20.621428571428574,11.307142857142857L20.621428571428574,11.521428571428569L20.835714285714285,11.521428571428569L20.835714285714285,11.95L21,11.95L21,12.05L20.735714285714284,12.05L20.735714285714284,11.62142857142857L20.521428571428572,11.62142857142857L20.521428571428572,11.407142857142858L19.45,11.407142857142858L19.45,11.192857142857143L19.021428571428572,11.192857142857143L19.021428571428572,10.978571428571428L18.807142857142857,10.978571428571428L18.807142857142857,10.55L17.621428571428574,10.55L17.621428571428574,10.764285714285716L17.40714285714286,10.764285714285716L17.40714285714286,11.192857142857143L9.807142857142857,11.192857142857143L9.807142857142857,9.807142857142857L10.021428571428569,9.807142857142857L10.021428571428569,9.378571428571426L11.307142857142857,9.378571428571426L11.307142857142857,8.95L12,8.95L12,9.05L11.407142857142858,9.05L11.407142857142858,9.478571428571428L10.12142857142857,9.478571428571428L10.12142857142857,9.907142857142858L9.907142857142858,9.907142857142858L9.907142857142858,11.092857142857142L17.307142857142857,11.092857142857142L17.307142857142857,10.664285714285715L17.521428571428572,10.664285714285715L17.521428571428572,10.55L17.192857142857143,10.55L17.192857142857143,10.764285714285716L16.978571428571428,10.764285714285716L16.978571428571428,10.978571428571428L10.021428571428569,10.978571428571428L10.021428571428569,10.021428571428569L10.878571428571426,10.021428571428569L10.878571428571426,9.807142857142857L11.307142857142857,9.807142857142857L11.307142857142857,9.592857142857142L11.521428571428569,9.592857142857142L11.521428571428569,9.378571428571426L13.235714285714284,9.378571428571426L13.235714285714284,8.95L13.5,8.95L13.5,9.05L13.335714285714285,9.05L13.335714285714285,9.478571428571428L11.62142857142857,9.478571428571428L11.62142857142857,9.692857142857143L11.407142857142858,9.692857142857143L11.407142857142858,9.907142857142858L10.978571428571428,9.907142857142858L10.978571428571428,10.12142857142857L10.12142857142857,10.12142857142857L10.12142857142857,10.878571428571426L16.878571428571426,10.878571428571426L16.878571428571426,10.664285714285715L17.09285714285714,10.664285714285715L17.09285714285714,10.45z" stroke="none"/><path d="M27.05,12L26.95,12L26.95,10.5L27.05,10.5z" stroke="none"/><path d="M8.95,3L9.05,3L9.05,4.5L8.95,4.5z" stroke="none"/><path d="M23.95,9L24.05,9L24.05,10.5L23.95,10.5z" stroke="none"/><path d="M4.5,10.55L4.5,10.45L6,10.45L6,10.55z" stroke="none"/><path d="M24,4.55L24,4.45L25.5,4.45L25.5,4.55z" stroke="none"/><path d="M3,9.05L3,8.95L4.5,8.95L4.5,9.05z" stroke="none"/><path d="M20.95,7.5L21.05,7.5L21.05,8.407142857142858L20.192857142857143,8.407142857142858L20.192857142857143,8.62142857142857L19.764285714285716,8.62142857142857L19.764285714285716,8.835714285714285L19.55,8.835714285714285L19.55,9L19.45,9L19.45,8.735714285714284L19.664285714285715,8.735714285714284L19.664285714285715,8.521428571428569L20.09285714285714,8.521428571428569L20.09285714285714,8.307142857142857L20.95,8.307142857142857z" stroke="none"/><path d="M10.5,11.95L10.5,12.05L7.5,12.05L7.5,11.95z" stroke="none"/><path d="M23.95,6L24.05,6L24.05,6.692857142857142L23.835714285714285,6.692857142857142L23.835714285714285,6.907142857142857L23.62142857142857,6.907142857142857L23.62142857142857,8.835714285714285L22.978571428571428,8.835714285714285L22.978571428571428,9.05L22.5,9.05L22.5,8.95L22.878571428571426,8.95L22.878571428571426,8.735714285714284L23.52142857142857,8.735714285714284L23.52142857142857,6.807142857142857L23.735714285714284,6.807142857142857L23.735714285714284,6.5928571428571425L23.95,6.5928571428571425z" stroke="none"/><path d="M5.95,6L6.05,6L6.05,8.192857142857143L5.835714285714285,8.192857142857143L5.835714285714285,8.62142857142857L5.621428571428571,8.62142857142857L5.621428571428571,9.378571428571426L7.021428571428571,9.378571428571426L7.021428571428571,8.95L7.5,8.95L7.5,9.05L7.121428571428571,9.05L7.121428571428571,9.478571428571428L5.521428571428571,9.478571428571428L5.521428571428571,8.521428571428569L5.735714285714286,8.521428571428569L5.735714285714286,8.092857142857142L5.95,8.092857142857142z" stroke="none"/><path d="M12,10.55L12,10.45L16.5,10.45L16.5,10.55z" stroke="none"/><path d="M27,7.45L27,7.55L26.307142857142857,7.55L26.307142857142857,7.121428571428571L26.09285714285714,7.121428571428571L26.09285714285714,6.692857142857142L25.235714285714284,6.692857142857142L25.235714285714284,6.264285714285714L25.02142857142857,6.264285714285714L25.02142857142857,6.05L24.378571428571426,6.05L24.378571428571426,5.621428571428571L23.62142857142857,5.621428571428571L23.62142857142857,6.478571428571428L23.40714285714286,6.478571428571428L23.40714285714286,6.907142857142857L23.192857142857143,6.907142857142857L23.192857142857143,7.55L22.5,7.55L22.5,7.45L23.09285714285714,7.45L23.09285714285714,6.807142857142857L23.307142857142857,6.807142857142857L23.307142857142857,6.378571428571428L23.52142857142857,6.378571428571428L23.52142857142857,5.521428571428571L24.478571428571428,5.521428571428571L24.478571428571428,5.95L25.12142857142857,5.95L25.12142857142857,6.164285714285715L25.335714285714285,6.164285714285715L25.335714285714285,6.5928571428571425L26.192857142857143,6.5928571428571425L26.192857142857143,7.021428571428571L26.40714285714286,7.021428571428571L26.40714285714286,7.45z" stroke="none"/><path d="M3.05,6L2.95,6L2.95,4.978571428571429L2.7357142857142858,4.978571428571429L2.7357142857142858,4.764285714285714L2.521428571428572,4.764285714285714L2.521428571428572,2.521428571428572L5.621428571428571,2.521428571428572L5.621428571428571,2.7357142857142858L6.05,2.7357142857142858L6.05,3.3785714285714286L6.264285714285714,3.3785714285714286L6.264285714285714,3.592857142857143L7.335714285714285,3.592857142857143L7.335714285714285,4.021428571428571L7.55,4.021428571428571L7.55,4.5L7.45,4.5L7.45,4.121428571428571L7.235714285714286,4.121428571428571L7.235714285714286,3.6928571428571426L6.164285714285715,3.6928571428571426L6.164285714285715,3.478571428571428L5.95,3.478571428571428L5.95,2.8357142857142854L5.521428571428571,2.8357142857142854L5.521428571428571,2.6214285714285714L2.6214285714285714,2.6214285714285714L2.6214285714285714,4.664285714285715L2.8357142857142854,4.664285714285715L2.8357142857142854,4.878571428571429L3.05,4.878571428571429z" stroke="none"/><path d="M27.05,9L26.95,9L26.95,8.735714285714284L27.164285714285715,8.735714285714284L27.164285714285715,7.878571428571428L27.378571428571426,7.878571428571428L27.378571428571426,7.121428571428571L26.95,7.121428571428571L26.95,6.692857142857142L26.307142857142857,6.692857142857142L26.307142857142857,6.478571428571428L25.664285714285715,6.478571428571428L25.664285714285715,6.05L25.235714285714284,6.05L25.235714285714284,5.835714285714285L24.807142857142857,5.835714285714285L24.807142857142857,5.407142857142857L23.40714285714286,5.407142857142857L23.40714285714286,5.621428571428571L22.978571428571428,5.621428571428571L22.978571428571428,5.835714285714285L22.55,5.835714285714285L22.55,6L22.45,6L22.45,5.735714285714286L22.878571428571426,5.735714285714286L22.878571428571426,5.521428571428571L23.307142857142857,5.521428571428571L23.307142857142857,5.307142857142857L24.90714285714286,5.307142857142857L24.90714285714286,5.735714285714286L25.335714285714285,5.735714285714286L25.335714285714285,5.95L25.764285714285716,5.95L25.764285714285716,6.378571428571428L26.40714285714286,6.378571428571428L26.40714285714286,6.5928571428571425L27.05,6.5928571428571425L27.05,7.021428571428571L27.478571428571428,7.021428571428571L27.478571428571428,7.978571428571428L27.264285714285716,7.978571428571428L27.264285714285716,8.835714285714285L27.05,8.835714285714285z" stroke="none"/><path d="M27,5.95L27,6.05L26.09285714285714,6.05L26.09285714285714,5.835714285714285L25.664285714285715,5.835714285714285L25.664285714285715,5.621428571428571L25.02142857142857,5.621428571428571L25.02142857142857,5.192857142857142L22.335714285714285,5.192857142857142L22.335714285714285,5.621428571428571L22.121428571428574,5.621428571428571L22.121428571428574,8.835714285714285L21.692857142857143,8.835714285714285L21.692857142857143,9.05L21,9.05L21,8.95L21.59285714285714,8.95L21.59285714285714,8.735714285714284L22.021428571428572,8.735714285714284L22.021428571428572,5.521428571428571L22.235714285714284,5.521428571428571L22.235714285714284,5.0928571428571425L25.12142857142857,5.0928571428571425L25.12142857142857,5.521428571428571L25.764285714285716,5.521428571428571L25.764285714285716,5.735714285714286L26.192857142857143,5.735714285714286L26.192857142857143,5.95z" stroke="none"/><path d="M9,9.05L9,8.95L10.235714285714284,8.95L10.235714285714284,8.735714285714284L11.092857142857142,8.735714285714284L11.092857142857142,8.521428571428569L12.807142857142857,8.521428571428569L12.807142857142857,7.664285714285715L13.45,7.664285714285715L13.45,7.235714285714286L13.878571428571426,7.235714285714286L13.878571428571426,6.5928571428571425L14.092857142857142,6.5928571428571425L14.092857142857142,6.378571428571428L14.307142857142857,6.378571428571428L14.307142857142857,6.164285714285715L14.95,6.164285714285715L14.95,6L15.05,6L15.05,6.264285714285714L14.407142857142858,6.264285714285714L14.407142857142858,6.478571428571428L14.192857142857143,6.478571428571428L14.192857142857143,6.692857142857142L13.978571428571428,6.692857142857142L13.978571428571428,7.335714285714285L13.55,7.335714285714285L13.55,7.764285714285714L12.907142857142858,7.764285714285714L12.907142857142858,8.62142857142857L11.192857142857143,8.62142857142857L11.192857142857143,8.835714285714285L10.335714285714285,8.835714285714285L10.335714285714285,9.05z" stroke="none"/><path d="M12,7.45L12,7.55L9.478571428571428,7.55L9.478571428571428,7.978571428571428L9.264285714285716,7.978571428571428L9.264285714285716,8.407142857142858L9.05,8.407142857142858L9.05,8.62142857142857L8.62142857142857,8.62142857142857L8.62142857142857,10.12142857142857L8.192857142857143,10.12142857142857L8.192857142857143,10.978571428571428L7.764285714285714,10.978571428571428L7.764285714285714,11.407142857142858L6.692857142857142,11.407142857142858L6.692857142857142,11.835714285714285L6.05,11.835714285714285L6.05,12L5.95,12L5.95,11.735714285714284L6.5928571428571425,11.735714285714284L6.5928571428571425,11.307142857142857L7.664285714285715,11.307142857142857L7.664285714285715,10.878571428571426L8.092857142857142,10.878571428571426L8.092857142857142,10.021428571428569L8.521428571428569,10.021428571428569L8.521428571428569,8.521428571428569L8.95,8.521428571428569L8.95,8.307142857142857L9.164285714285715,8.307142857142857L9.164285714285715,7.878571428571428L9.378571428571426,7.878571428571428L9.378571428571426,7.45z" stroke="none"/><path d="M3,10.55L3,10.45L4.021428571428571,10.45L4.021428571428571,10.021428571428569L7.45,10.021428571428569L7.45,9.807142857142857L7.878571428571428,9.807142857142857L7.878571428571428,9.164285714285715L8.092857142857142,9.164285714285715L8.092857142857142,8.307142857142857L8.307142857142857,8.307142857142857L8.307142857142857,8.092857142857142L8.735714285714284,8.092857142857142L8.735714285714284,7.235714285714286L11.092857142857142,7.235714285714286L11.092857142857142,6.807142857142857L11.735714285714284,6.807142857142857L11.735714285714284,5.95L12,5.95L12,6.05L11.835714285714285,6.05L11.835714285714285,6.907142857142857L11.192857142857143,6.907142857142857L11.192857142857143,7.335714285714285L8.835714285714285,7.335714285714285L8.835714285714285,8.192857142857143L8.407142857142858,8.192857142857143L8.407142857142858,8.407142857142858L8.192857142857143,8.407142857142858L8.192857142857143,9.264285714285716L7.978571428571428,9.264285714285716L7.978571428571428,9.907142857142858L7.55,9.907142857142858L7.55,10.12142857142857L4.121428571428571,10.12142857142857L4.121428571428571,10.55z" stroke="none"/><path d="M15,11.95L15,12.05L12.907142857142858,12.05L12.907142857142858,12.264285714285716L12.478571428571428,12.264285714285716L12.478571428571428,12.478571428571428L4.878571428571429,12.478571428571428L4.878571428571429,12.05L4.5,12.05L4.5,11.95L4.978571428571429,11.95L4.978571428571429,12.378571428571426L12.378571428571426,12.378571428571426L12.378571428571426,12.164285714285715L12.807142857142857,12.164285714285715L12.807142857142857,11.95z" stroke="none"/><path d="M9,5.95L9,6.05L8.521428571428569,6.05L8.521428571428569,5.835714285714285L6.5928571428571425,5.835714285714285L6.5928571428571425,5.621428571428571L5.621428571428571,5.621428571428571L5.621428571428571,6.264285714285714L4.978571428571429,6.264285714285714L4.978571428571429,6.478571428571428L2.521428571428572,6.478571428571428L2.521428571428572,4.978571428571429L2.3071428571428574,4.978571428571429L2.3071428571428574,2.3071428571428574L21.692857142857143,2.3071428571428574L21.692857142857143,6.478571428571428L20.521428571428572,6.478571428571428L20.521428571428572,4.764285714285714L19.45,4.764285714285714L19.45,4.5L19.55,4.5L19.55,4.664285714285715L20.621428571428574,4.664285714285715L20.621428571428574,6.378571428571428L21.59285714285714,6.378571428571428L21.59285714285714,2.407142857142857L2.407142857142857,2.407142857142857L2.407142857142857,4.878571428571429L2.6214285714285714,4.878571428571429L2.6214285714285714,6.378571428571428L4.878571428571429,6.378571428571428L4.878571428571429,6.164285714285715L5.521428571428571,6.164285714285715L5.521428571428571,5.521428571428571L6.692857142857142,5.521428571428571L6.692857142857142,5.735714285714286L8.62142857142857,5.735714285714286L8.62142857142857,5.95z" stroke="none"/><path d="M18,11.95L18,12.05L15.478571428571428,12.05L15.478571428571428,12.478571428571428L12.907142857142858,12.478571428571428L12.907142857142858,12.692857142857143L4.021428571428571,12.692857142857143L4.021428571428571,11.521428571428569L5.521428571428571,11.521428571428569L5.521428571428571,11.307142857142857L6.378571428571428,11.307142857142857L6.378571428571428,11.092857142857142L7.45,11.092857142857142L7.45,10.5L7.55,10.5L7.55,11.192857142857143L6.478571428571428,11.192857142857143L6.478571428571428,11.407142857142858L5.621428571428571,11.407142857142858L5.621428571428571,11.62142857142857L4.121428571428571,11.62142857142857L4.121428571428571,12.592857142857142L12.807142857142857,12.592857142857142L12.807142857142857,12.378571428571426L15.378571428571426,12.378571428571426L15.378571428571426,11.95z" stroke="none"/><path d="M8.95,10.5L9.05,10.5L9.05,10.664285714285715L9.264285714285716,10.664285714285715L9.264285714285716,11.307142857142857L19.121428571428574,11.307142857142857L19.121428571428574,11.521428571428569L19.764285714285716,11.521428571428569L19.764285714285716,11.735714285714284L19.978571428571428,11.735714285714284L19.978571428571428,11.95L20.621428571428574,11.95L20.621428571428574,12.378571428571426L24.378571428571426,12.378571428571426L24.378571428571426,11.62142857142857L23.95,11.62142857142857L23.95,10.978571428571428L23.52142857142857,10.978571428571428L23.52142857142857,10.764285714285716L23.307142857142857,10.764285714285716L23.307142857142857,10.12142857142857L19.878571428571426,10.12142857142857L19.878571428571426,9.907142857142858L19.235714285714284,9.907142857142858L19.235714285714284,9.478571428571428L19.021428571428572,9.478571428571428L19.021428571428572,7.664285714285715L19.45,7.664285714285715L19.45,7.5L19.55,7.5L19.55,7.764285714285714L19.121428571428574,7.764285714285714L19.121428571428574,9.378571428571426L19.335714285714285,9.378571428571426L19.335714285714285,9.807142857142857L19.978571428571428,9.807142857142857L19.978571428571428,10.021428571428569L23.40714285714286,10.021428571428569L23.40714285714286,10.664285714285715L23.62142857142857,10.664285714285715L23.62142857142857,10.878571428571426L24.05,10.878571428571426L24.05,11.521428571428569L24.478571428571428,11.521428571428569L24.478571428571428,12.478571428571428L20.521428571428572,12.478571428571428L20.521428571428572,12.05L19.878571428571426,12.05L19.878571428571426,11.835714285714285L19.664285714285715,11.835714285714285L19.664285714285715,11.62142857142857L19.021428571428572,11.62142857142857L19.021428571428572,11.407142857142858L9.164285714285715,11.407142857142858L9.164285714285715,10.764285714285716L8.95,10.764285714285716z" stroke="none"/><path d="M27,4.45L27,4.55L26.62142857142857,4.55L26.62142857142857,4.764285714285714L25.978571428571428,4.764285714285714L25.978571428571428,4.978571428571429L22.121428571428574,4.978571428571429L22.121428571428574,5.407142857142857L21.90714285714286,5.407142857142857L21.90714285714286,6.692857142857142L16.55,6.692857142857142L16.55,7.121428571428571L16.335714285714285,7.121428571428571L16.335714285714285,7.335714285714285L15.05,7.335714285714285L15.05,7.5L14.95,7.5L14.95,7.235714285714286L16.235714285714284,7.235714285714286L16.235714285714284,7.021428571428571L16.45,7.021428571428571L16.45,6.5928571428571425L21.807142857142857,6.5928571428571425L21.807142857142857,5.307142857142857L22.021428571428572,5.307142857142857L22.021428571428572,4.878571428571429L25.878571428571426,4.878571428571429L25.878571428571426,4.664285714285715L26.52142857142857,4.664285714285715L26.52142857142857,4.45z" stroke="none"/><path d="M23.95,7.5L24.05,7.5L24.05,7.664285714285715L24.264285714285716,7.664285714285715L24.264285714285716,7.878571428571428L24.478571428571428,7.878571428571428L24.478571428571428,10.664285714285715L24.692857142857143,10.664285714285715L24.692857142857143,12.692857142857143L20.09285714285714,12.692857142857143L20.09285714285714,12.478571428571428L19.021428571428572,12.478571428571428L19.021428571428572,12.264285714285716L18.807142857142857,12.264285714285716L18.807142857142857,11.62142857142857L12.692857142857143,11.62142857142857L12.692857142857143,11.835714285714285L12.05,11.835714285714285L12.05,12L11.95,12L11.95,11.735714285714284L12.592857142857142,11.735714285714284L12.592857142857142,11.521428571428569L18.90714285714286,11.521428571428569L18.90714285714286,12.164285714285715L19.121428571428574,12.164285714285715L19.121428571428574,12.378571428571426L20.192857142857143,12.378571428571426L20.192857142857143,12.592857142857142L24.59285714285714,12.592857142857142L24.59285714285714,10.764285714285716L24.378571428571426,10.764285714285716L24.378571428571426,7.978571428571428L24.164285714285715,7.978571428571428L24.164285714285715,7.764285714285714L23.95,7.764285714285714z" stroke="none"/></svg>