<svg version="1.1" width="30" height="15" xmlns="http://www.w3.org/2000/svg"><path d="M22.021428571428572,11.307142857142857L22.021428571428572,11.092857142857142L22.235714285714284,11.092857142857142L22.235714285714284,10.878571428571426L22.45,10.878571428571426L22.45,10.5L22.55,10.5L22.55,10.978571428571428L22.335714285714285,10.978571428571428L22.335714285714285,11.192857142857143L22.121428571428574,11.192857142857143L22.121428571428574,11.407142857142858L16.55,11.407142857142858L16.55,12L16.45,12L16.45,11.407142857142858L13.55,11.407142857142858L13.55,11.62142857142857L11.62142857142857,11.62142857142857L11.62142857142857,11.835714285714285L10.55,11.835714285714285L10.55,12L10.45,12L10.45,11.735714285714284L11.521428571428569,11.735714285714284L11.521428571428569,11.521428571428569L13.45,11.521428571428569L13.45,11.307142857142857z" stroke="none"/><path d="M13.878571428571426,9.378571428571426L13.878571428571426,9.264285714285716L13.021428571428569,9.264285714285716L13.021428571428569,8.835714285714285L11.192857142857143,8.835714285714285L11.192857142857143,9.05L10.5,9.05L10.5,8.95L11.092857142857142,8.95L11.092857142857142,8.735714285714284L13.12142857142857,8.735714285714284L13.12142857142857,9.164285714285715L13.978571428571428,9.164285714285715L13.978571428571428,9.378571428571426L17.192857142857143,9.378571428571426L17.192857142857143,9.592857142857142L17.40714285714286,9.592857142857142L17.40714285714286,9.807142857142857L17.835714285714285,9.807142857142857L17.835714285714285,10.021428571428569L18.05,10.021428571428569L18.05,10.235714285714284L19.335714285714285,10.235714285714284L19.335714285714285,10.45L19.5,10.45L19.5,10.55L19.235714285714284,10.55L19.235714285714284,10.335714285714285L17.95,10.335714285714285L17.95,10.12142857142857L17.735714285714284,10.12142857142857L17.735714285714284,9.907142857142858L17.307142857142857,9.907142857142858L17.307142857142857,9.692857142857143L17.09285714285714,9.692857142857143L17.09285714285714,9.478571428571428L11.95,9.478571428571428L11.95,9L12.05,9L12.05,9.378571428571426z" stroke="none"/><path d="M14.521428571428569,7.878571428571428L14.521428571428569,7.45L15,7.45L15,7.55L14.62142857142857,7.55L14.62142857142857,7.978571428571428L12.05,7.978571428571428L12.05,8.092857142857142L15.05,8.092857142857142L15.05,9L14.95,9L14.95,8.192857142857143L11.95,8.192857142857143L11.95,7.978571428571428L7.235714285714286,7.978571428571428L7.235714285714286,7.55L6,7.55L6,7.45L7.335714285714285,7.45L7.335714285714285,7.878571428571428z" stroke="none"/><path d="M22.664285714285715,8.307142857142857L22.664285714285715,7.764285714285714L22.45,7.764285714285714L22.45,7.5L22.55,7.5L22.55,7.664285714285715L22.764285714285716,7.664285714285715L22.764285714285716,8.307142857142857L23.192857142857143,8.307142857142857L23.192857142857143,8.521428571428569L23.40714285714286,8.521428571428569L23.40714285714286,8.735714285714284L24.05,8.735714285714284L24.05,8.95L24.264285714285716,8.95L24.264285714285716,9.164285714285715L24.478571428571428,9.164285714285715L24.478571428571428,9.592857142857142L24.692857142857143,9.592857142857142L24.692857142857143,10.021428571428569L25.55,10.021428571428569L25.55,10.5L25.45,10.5L25.45,10.12142857142857L24.59285714285714,10.12142857142857L24.59285714285714,9.692857142857143L24.378571428571426,9.692857142857143L24.378571428571426,9.264285714285716L24.164285714285715,9.264285714285716L24.164285714285715,9.05L23.95,9.05L23.95,8.835714285714285L23.307142857142857,8.835714285714285L23.307142857142857,8.62142857142857L23.09285714285714,8.62142857142857L23.09285714285714,8.407142857142858L22.764285714285716,8.407142857142858L22.764285714285716,8.521428571428569L22.978571428571428,8.521428571428569L22.978571428571428,10.235714285714284L23.62142857142857,10.235714285714284L23.62142857142857,10.45L24,10.45L24,10.55L23.52142857142857,10.55L23.52142857142857,10.335714285714285L22.878571428571426,10.335714285714285L22.878571428571426,8.62142857142857L22.664285714285715,8.62142857142857L22.664285714285715,8.407142857142858L20.95,8.407142857142858L20.95,7.978571428571428L20.307142857142857,7.978571428571428L20.307142857142857,6.692857142857142L19.664285714285715,6.692857142857142L19.664285714285715,6.264285714285714L19.45,6.264285714285714L19.45,6L19.55,6L19.55,6.164285714285715L19.764285714285716,6.164285714285715L19.764285714285716,6.5928571428571425L20.40714285714286,6.5928571428571425L20.40714285714286,7.878571428571428L21.05,7.878571428571428L21.05,8.307142857142857z" stroke="none"/><path d="M10.664285714285715,5.95L10.664285714285715,4.55L10.5,4.55L10.5,4.45L10.764285714285716,4.45L10.764285714285716,5.95L13.664285714285715,5.95L13.664285714285715,5.735714285714286L14.092857142857142,5.735714285714286L14.092857142857142,5.0928571428571425L14.735714285714284,5.0928571428571425L14.735714285714284,4.45L15,4.45L15,4.55L14.835714285714285,4.55L14.835714285714285,5.192857142857142L14.192857142857143,5.192857142857142L14.192857142857143,5.835714285714285L13.764285714285716,5.835714285714285L13.764285714285716,6.05L10.764285714285716,6.05L10.764285714285716,6.264285714285714L6.05,6.264285714285714L6.05,6.907142857142857L5.835714285714285,6.907142857142857L5.835714285714285,7.121428571428571L5.621428571428571,7.121428571428571L5.621428571428571,7.878571428571428L6.907142857142857,7.878571428571428L6.907142857142857,8.092857142857142L7.55,8.092857142857142L7.55,8.307142857142857L8.835714285714285,8.307142857142857L8.835714285714285,8.521428571428569L9.05,8.521428571428569L9.05,9L8.95,9L8.95,8.62142857142857L8.735714285714284,8.62142857142857L8.735714285714284,8.407142857142858L7.45,8.407142857142858L7.45,8.192857142857143L6.807142857142857,8.192857142857143L6.807142857142857,7.978571428571428L5.521428571428571,7.978571428571428L5.521428571428571,7.021428571428571L5.735714285714286,7.021428571428571L5.735714285714286,6.807142857142857L5.95,6.807142857142857L5.95,6.164285714285715L10.664285714285715,6.164285714285715L10.664285714285715,6.05L9,6.05L9,5.95z" stroke="none"/><path d="M23.09285714285714,5.0928571428571425L23.09285714285714,3.478571428571428L22.664285714285715,3.478571428571428L22.664285714285715,3.2642857142857142L22.45,3.2642857142857142L22.45,3L22.55,3L22.55,3.1642857142857146L22.764285714285716,3.1642857142857146L22.764285714285716,3.3785714285714286L23.192857142857143,3.3785714285714286L23.192857142857143,5.0928571428571425L25.764285714285716,5.0928571428571425L25.764285714285716,5.307142857142857L25.978571428571428,5.307142857142857L25.978571428571428,6.5928571428571425L26.192857142857143,6.5928571428571425L26.192857142857143,7.021428571428571L26.40714285714286,7.021428571428571L26.40714285714286,7.235714285714286L27.05,7.235714285714286L27.05,7.5L26.95,7.5L26.95,7.335714285714285L26.307142857142857,7.335714285714285L26.307142857142857,7.121428571428571L26.09285714285714,7.121428571428571L26.09285714285714,6.692857142857142L25.878571428571426,6.692857142857142L25.878571428571426,5.407142857142857L25.664285714285715,5.407142857142857L25.664285714285715,5.192857142857142L23.192857142857143,5.192857142857142L23.192857142857143,7.021428571428571L23.62142857142857,7.021428571428571L23.62142857142857,7.45L24,7.45L24,7.55L23.52142857142857,7.55L23.52142857142857,7.121428571428571L23.09285714285714,7.121428571428571L23.09285714285714,5.192857142857142L22.878571428571426,5.192857142857142L22.878571428571426,4.978571428571429L22.235714285714284,4.978571428571429L22.235714285714284,4.764285714285714L20.521428571428572,4.764285714285714L20.521428571428572,4.335714285714285L20.09285714285714,4.335714285714285L20.09285714285714,4.121428571428571L19.878571428571426,4.121428571428571L19.878571428571426,3.907142857142857L19.664285714285715,3.907142857142857L19.664285714285715,3.2642857142857142L19.45,3.2642857142857142L19.45,3L19.55,3L19.55,3.1642857142857146L19.764285714285716,3.1642857142857146L19.764285714285716,3.8071428571428574L19.978571428571428,3.8071428571428574L19.978571428571428,4.021428571428571L20.192857142857143,4.021428571428571L20.192857142857143,4.235714285714286L20.621428571428574,4.235714285714286L20.621428571428574,4.664285714285715L22.335714285714285,4.664285714285715L22.335714285714285,4.878571428571429L22.978571428571428,4.878571428571429L22.978571428571428,5.0928571428571425z" stroke="none"/><path d="M25.5,4.45L25.5,4.55L24,4.55L24,4.45z" stroke="none"/><path d="M6,4.55L6,4.45L7.5,4.45L7.5,4.55z" stroke="none"/><path d="M16.5,2.95L16.5,3.05L15,3.05L15,2.95z" stroke="none"/><path d="M27,8.95L27,9.05L25.5,9.05L25.5,8.95z" stroke="none"/><path d="M4.55,10.5L4.45,10.5L4.45,9.692857142857143L3.8071428571428574,9.692857142857143L3.8071428571428574,9.264285714285716L3.592857142857143,9.264285714285716L3.592857142857143,9.05L3,9.05L3,8.95L3.6928571428571426,8.95L3.6928571428571426,9.164285714285715L3.907142857142857,9.164285714285715L3.907142857142857,9.592857142857142L4.55,9.592857142857142z" stroke="none"/><path d="M4.45,7.5L4.55,7.5L4.55,8.092857142857142L4.764285714285714,8.092857142857142L4.764285714285714,8.521428571428569L5.835714285714285,8.521428571428569L5.835714285714285,8.95L6,8.95L6,9.05L5.735714285714286,9.05L5.735714285714286,8.62142857142857L4.664285714285715,8.62142857142857L4.664285714285715,8.192857142857143L4.45,8.192857142857143z" stroke="none"/><path d="M22.5,8.95L22.5,9.05L19.5,9.05L19.5,8.95z" stroke="none"/><path d="M9,2.95L9,3.05L6,3.05L6,2.95z" stroke="none"/><path d="M4.55,9L4.45,9L4.45,8.407142857142858L4.235714285714286,8.407142857142858L4.235714285714286,7.978571428571428L4.021428571428571,7.978571428571428L4.021428571428571,5.521428571428571L4.235714285714286,5.521428571428571L4.235714285714286,5.0928571428571425L4.45,5.0928571428571425L4.45,4.5L4.55,4.5L4.55,5.192857142857142L4.335714285714285,5.192857142857142L4.335714285714285,5.621428571428571L4.121428571428571,5.621428571428571L4.121428571428571,7.878571428571428L4.335714285714285,7.878571428571428L4.335714285714285,8.307142857142857L4.55,8.307142857142857z" stroke="none"/><path d="M27.05,10.5L26.95,10.5L26.95,9.692857142857143L25.235714285714284,9.692857142857143L25.235714285714284,9.478571428571428L25.02142857142857,9.478571428571428L25.02142857142857,6.378571428571428L25.235714285714284,6.378571428571428L25.235714285714284,6.164285714285715L25.45,6.164285714285715L25.45,6L25.55,6L25.55,6.264285714285714L25.335714285714285,6.264285714285714L25.335714285714285,6.478571428571428L25.12142857142857,6.478571428571428L25.12142857142857,9.378571428571426L25.335714285714285,9.378571428571426L25.335714285714285,9.592857142857142L27.05,9.592857142857142z" stroke="none"/><path d="M13.5,10.55L13.5,10.45L15.907142857142858,10.45L15.907142857142858,10.664285714285715L16.12142857142857,10.664285714285715L16.12142857142857,10.878571428571426L19.878571428571426,10.878571428571426L19.878571428571426,9.907142857142858L19.021428571428572,9.907142857142858L19.021428571428572,7.978571428571428L18.164285714285715,7.978571428571428L18.164285714285715,7.55L18,7.55L18,7.45L18.264285714285716,7.45L18.264285714285716,7.878571428571428L19.121428571428574,7.878571428571428L19.121428571428574,9.807142857142857L19.978571428571428,9.807142857142857L19.978571428571428,10.978571428571428L16.02142857142857,10.978571428571428L16.02142857142857,10.764285714285716L15.807142857142857,10.764285714285716L15.807142857142857,10.55z" stroke="none"/><path d="M3,12.05L3,11.95L4.021428571428571,11.95L4.021428571428571,11.521428571428569L5.0928571428571425,11.521428571428569L5.0928571428571425,11.307142857142857L5.521428571428571,11.307142857142857L5.521428571428571,11.092857142857142L5.735714285714286,11.092857142857142L5.735714285714286,10.878571428571426L8.092857142857142,10.878571428571426L8.092857142857142,10.664285714285715L8.735714285714284,10.664285714285715L8.735714285714284,10.45L9,10.45L9,10.55L8.835714285714285,10.55L8.835714285714285,10.764285714285716L8.192857142857143,10.764285714285716L8.192857142857143,10.978571428571428L5.835714285714285,10.978571428571428L5.835714285714285,11.192857142857143L5.621428571428571,11.192857142857143L5.621428571428571,11.407142857142858L5.192857142857142,11.407142857142858L5.192857142857142,11.62142857142857L4.121428571428571,11.62142857142857L4.121428571428571,12.05z" stroke="none"/><path d="M10.5,3.05L10.5,2.95L10.978571428571428,2.95L10.978571428571428,3.1642857142857146L11.62142857142857,3.1642857142857146L11.62142857142857,3.3785714285714286L16.335714285714285,3.3785714285714286L16.335714285714285,3.8071428571428574L16.55,3.8071428571428574L16.55,4.5L16.45,4.5L16.45,3.907142857142857L16.235714285714284,3.907142857142857L16.235714285714284,3.478571428571428L11.521428571428569,3.478571428571428L11.521428571428569,3.2642857142857142L10.878571428571426,3.2642857142857142L10.878571428571426,3.05z" stroke="none"/><path d="M13.55,7.5L13.45,7.5L13.45,7.021428571428571L15.164285714285715,7.021428571428571L15.164285714285715,6.807142857142857L15.592857142857142,6.807142857142857L15.592857142857142,6.5928571428571425L16.02142857142857,6.5928571428571425L16.02142857142857,6.378571428571428L16.235714285714284,6.378571428571428L16.235714285714284,5.521428571428571L16.878571428571426,5.521428571428571L16.878571428571426,3.8071428571428574L17.09285714285714,3.8071428571428574L17.09285714285714,3.592857142857143L17.521428571428572,3.592857142857143L17.521428571428572,2.95L18,2.95L18,3.05L17.621428571428574,3.05L17.621428571428574,3.6928571428571426L17.192857142857143,3.6928571428571426L17.192857142857143,3.907142857142857L16.978571428571428,3.907142857142857L16.978571428571428,5.621428571428571L16.335714285714285,5.621428571428571L16.335714285714285,6.478571428571428L16.12142857142857,6.478571428571428L16.12142857142857,6.692857142857142L15.692857142857143,6.692857142857142L15.692857142857143,6.907142857142857L15.264285714285716,6.907142857142857L15.264285714285716,7.121428571428571L13.55,7.121428571428571z" stroke="none"/><path d="M25.55,12L25.45,12L25.45,10.878571428571426L25.878571428571426,10.878571428571426L25.878571428571426,9.907142857142858L24.807142857142857,9.907142857142858L24.807142857142857,9.478571428571428L24.59285714285714,9.478571428571428L24.59285714285714,8.62142857142857L23.735714285714284,8.62142857142857L23.735714285714284,8.192857142857143L22.878571428571426,8.192857142857143L22.878571428571426,7.121428571428571L21.264285714285716,7.121428571428571L21.264285714285716,7.335714285714285L21.05,7.335714285714285L21.05,7.5L20.95,7.5L20.95,7.235714285714286L21.164285714285715,7.235714285714286L21.164285714285715,7.021428571428571L22.978571428571428,7.021428571428571L22.978571428571428,8.092857142857142L23.835714285714285,8.092857142857142L23.835714285714285,8.521428571428569L24.692857142857143,8.521428571428569L24.692857142857143,9.378571428571426L24.90714285714286,9.378571428571426L24.90714285714286,9.807142857142857L25.978571428571428,9.807142857142857L25.978571428571428,10.978571428571428L25.55,10.978571428571428z" stroke="none"/><path d="M25.5,7.55L25.5,7.45L26.192857142857143,7.45L26.192857142857143,7.878571428571428L26.62142857142857,7.878571428571428L26.62142857142857,8.521428571428569L27.478571428571428,8.521428571428569L27.478571428571428,10.978571428571428L26.62142857142857,10.978571428571428L26.62142857142857,11.835714285714285L26.40714285714286,11.835714285714285L26.40714285714286,12.05L26.192857142857143,12.05L26.192857142857143,12.264285714285716L25.978571428571428,12.264285714285716L25.978571428571428,12.478571428571428L21.164285714285715,12.478571428571428L21.164285714285715,12.264285714285716L19.45,12.264285714285716L19.45,12L19.55,12L19.55,12.164285714285715L21.264285714285716,12.164285714285715L21.264285714285716,12.378571428571426L25.878571428571426,12.378571428571426L25.878571428571426,12.164285714285715L26.09285714285714,12.164285714285715L26.09285714285714,11.95L26.307142857142857,11.95L26.307142857142857,11.735714285714284L26.52142857142857,11.735714285714284L26.52142857142857,10.878571428571426L27.378571428571426,10.878571428571426L27.378571428571426,8.62142857142857L26.52142857142857,8.62142857142857L26.52142857142857,7.978571428571428L26.09285714285714,7.978571428571428L26.09285714285714,7.55z" stroke="none"/><path d="M12,11.95L12,12.05L11.407142857142858,12.05L11.407142857142858,12.264285714285716L10.978571428571428,12.264285714285716L10.978571428571428,12.478571428571428L5.95,12.478571428571428L5.95,12.264285714285716L5.735714285714286,12.264285714285716L5.735714285714286,12.05L4.5,12.05L4.5,11.95L5.835714285714285,11.95L5.835714285714285,12.164285714285715L6.05,12.164285714285715L6.05,12.378571428571426L10.878571428571426,12.378571428571426L10.878571428571426,12.164285714285715L11.307142857142857,12.164285714285715L11.307142857142857,11.95z" stroke="none"/><path d="M10.5,10.45L10.5,10.55L9.592857142857142,10.55L9.592857142857142,10.335714285714285L9.378571428571426,10.335714285714285L9.378571428571426,10.12142857142857L5.307142857142857,10.12142857142857L5.307142857142857,9.907142857142858L5.0928571428571425,9.907142857142858L5.0928571428571425,9.692857142857143L4.878571428571429,9.692857142857143L4.878571428571429,9.478571428571428L4.021428571428571,9.478571428571428L4.021428571428571,8.62142857142857L3.8071428571428574,8.62142857142857L3.8071428571428574,7.764285714285714L3.592857142857143,7.764285714285714L3.592857142857143,7.335714285714285L3.3785714285714286,7.335714285714285L3.3785714285714286,6.692857142857142L2.95,6.692857142857142L2.95,6L3.05,6L3.05,6.5928571428571425L3.478571428571428,6.5928571428571425L3.478571428571428,7.235714285714286L3.6928571428571426,7.235714285714286L3.6928571428571426,7.664285714285715L3.907142857142857,7.664285714285715L3.907142857142857,8.521428571428569L4.121428571428571,8.521428571428569L4.121428571428571,9.378571428571426L4.978571428571429,9.378571428571426L4.978571428571429,9.592857142857142L5.192857142857142,9.592857142857142L5.192857142857142,9.807142857142857L5.407142857142857,9.807142857142857L5.407142857142857,10.021428571428569L9.478571428571428,10.021428571428569L9.478571428571428,10.235714285714284L9.692857142857143,10.235714285714284L9.692857142857143,10.45z" stroke="none"/><path d="M12,3.05L12,2.95L13.235714285714284,2.95L13.235714285714284,2.7357142857142858L13.878571428571426,2.7357142857142858L13.878571428571426,2.521428571428572L18.478571428571428,2.521428571428572L18.478571428571428,6.5928571428571425L19.335714285714285,6.5928571428571425L19.335714285714285,7.235714285714286L19.55,7.235714285714286L19.55,7.5L19.45,7.5L19.45,7.335714285714285L19.235714285714284,7.335714285714285L19.235714285714284,6.692857142857142L18.378571428571426,6.692857142857142L18.378571428571426,2.6214285714285714L13.978571428571428,2.6214285714285714L13.978571428571428,2.8357142857142854L13.335714285714285,2.8357142857142854L13.335714285714285,3.05z" stroke="none"/><path d="M13.5,4.45L13.5,4.55L11.092857142857142,4.55L11.092857142857142,4.335714285714285L10.878571428571426,4.335714285714285L10.878571428571426,4.121428571428571L10.45,4.121428571428571L10.45,3.6928571428571426L10.235714285714284,3.6928571428571426L10.235714285714284,3.478571428571428L10.021428571428569,3.478571428571428L10.021428571428569,2.521428571428572L13.664285714285715,2.521428571428572L13.664285714285715,2.3071428571428574L18.692857142857143,2.3071428571428574L18.692857142857143,4.878571428571429L21.90714285714286,4.878571428571429L21.90714285714286,5.521428571428571L22.55,5.521428571428571L22.55,6L22.45,6L22.45,5.621428571428571L21.807142857142857,5.621428571428571L21.807142857142857,4.978571428571429L18.59285714285714,4.978571428571429L18.59285714285714,2.407142857142857L13.764285714285716,2.407142857142857L13.764285714285716,2.6214285714285714L10.12142857142857,2.6214285714285714L10.12142857142857,3.3785714285714286L10.335714285714285,3.3785714285714286L10.335714285714285,3.592857142857143L10.55,3.592857142857143L10.55,4.021428571428571L10.978571428571428,4.021428571428571L10.978571428571428,4.235714285714286L11.192857142857143,4.235714285714286L11.192857142857143,4.45z" stroke="none"/><path d="M15,11.95L15,12.05L12.692857142857143,12.05L12.692857142857143,12.264285714285716L12.478571428571428,12.264285714285716L12.478571428571428,12.478571428571428L11.407142857142858,12.478571428571428L11.407142857142858,12.692857142857143L2.521428571428572,12.692857142857143L2.521428571428572,11.307142857142857L4.878571428571429,11.307142857142857L4.878571428571429,10.878571428571426L5.521428571428571,10.878571428571426L5.521428571428571,10.664285714285715L5.95,10.664285714285715L5.95,10.5L6.05,10.5L6.05,10.764285714285716L5.621428571428571,10.764285714285716L5.621428571428571,10.978571428571428L4.978571428571429,10.978571428571428L4.978571428571429,11.407142857142858L2.6214285714285714,11.407142857142858L2.6214285714285714,12.592857142857142L11.307142857142857,12.592857142857142L11.307142857142857,12.378571428571426L12.378571428571426,12.378571428571426L12.378571428571426,12.164285714285715L12.592857142857142,12.164285714285715L12.592857142857142,11.95z" stroke="none"/><path d="M9.05,4.5L8.95,4.5L8.95,4.021428571428571L9.378571428571426,4.021428571428571L9.378571428571426,3.592857142857143L9.592857142857142,3.592857142857143L9.592857142857142,2.95L9.807142857142857,2.95L9.807142857142857,2.3071428571428574L13.45,2.3071428571428574L13.45,2.092857142857143L18.90714285714286,2.092857142857143L18.90714285714286,4.021428571428571L19.335714285714285,4.021428571428571L19.335714285714285,4.45L19.5,4.45L19.5,4.55L19.235714285714284,4.55L19.235714285714284,4.121428571428571L18.807142857142857,4.121428571428571L18.807142857142857,2.1928571428571426L13.55,2.1928571428571426L13.55,2.407142857142857L9.907142857142858,2.407142857142857L9.907142857142858,3.05L9.692857142857143,3.05L9.692857142857143,3.6928571428571426L9.478571428571428,3.6928571428571426L9.478571428571428,4.121428571428571L9.05,4.121428571428571z" stroke="none"/><path d="M27,12.05L27,11.95L27.164285714285715,11.95L27.164285714285715,11.521428571428569L27.378571428571426,11.521428571428569L27.378571428571426,11.307142857142857L27.59285714285714,11.307142857142857L27.59285714285714,6.907142857142857L27.164285714285715,6.907142857142857L27.164285714285715,6.264285714285714L26.95,6.264285714285714L26.95,5.835714285714285L26.735714285714284,5.835714285714285L26.735714285714284,5.621428571428571L26.09285714285714,5.621428571428571L26.09285714285714,4.335714285714285L25.878571428571426,4.335714285714285L25.878571428571426,4.121428571428571L24.807142857142857,4.121428571428571L24.807142857142857,3.907142857142857L24.164285714285715,3.907142857142857L24.164285714285715,3.6928571428571426L23.735714285714284,3.6928571428571426L23.735714285714284,3.478571428571428L23.52142857142857,3.478571428571428L23.52142857142857,3.2642857142857142L23.307142857142857,3.2642857142857142L23.307142857142857,2.8357142857142854L22.878571428571426,2.8357142857142854L22.878571428571426,2.6214285714285714L19.235714285714284,2.6214285714285714L19.235714285714284,2.1928571428571426L19.021428571428572,2.1928571428571426L19.021428571428572,1.9785714285714286L9.692857142857143,1.9785714285714286L9.692857142857143,2.8357142857142854L9.478571428571428,2.8357142857142854L9.478571428571428,3.478571428571428L8.835714285714285,3.478571428571428L8.835714285714285,3.6928571428571426L8.62142857142857,3.6928571428571426L8.62142857142857,4.978571428571429L8.407142857142858,4.978571428571429L8.407142857142858,5.192857142857142L6.478571428571428,5.192857142857142L6.478571428571428,5.407142857142857L6.264285714285714,5.407142857142857L6.264285714285714,5.621428571428571L6.05,5.621428571428571L6.05,6.05L5.621428571428571,6.05L5.621428571428571,6.907142857142857L5.407142857142857,6.907142857142857L5.407142857142857,8.092857142857142L6.692857142857142,8.092857142857142L6.692857142857142,8.307142857142857L6.907142857142857,8.307142857142857L6.907142857142857,8.521428571428569L7.764285714285714,8.521428571428569L7.764285714285714,8.735714285714284L7.978571428571428,8.735714285714284L7.978571428571428,8.95L8.407142857142858,8.95L8.407142857142858,9.378571428571426L11.835714285714285,9.378571428571426L11.835714285714285,9.592857142857142L15.692857142857143,9.592857142857142L15.692857142857143,9.807142857142857L16.12142857142857,9.807142857142857L16.12142857142857,10.021428571428569L16.335714285714285,10.021428571428569L16.335714285714285,10.235714285714284L16.55,10.235714285714284L16.55,10.5L16.45,10.5L16.45,10.335714285714285L16.235714285714284,10.335714285714285L16.235714285714284,10.12142857142857L16.02142857142857,10.12142857142857L16.02142857142857,9.907142857142858L15.592857142857142,9.907142857142858L15.592857142857142,9.692857142857143L11.735714285714284,9.692857142857143L11.735714285714284,9.478571428571428L8.307142857142857,9.478571428571428L8.307142857142857,9.05L7.878571428571428,9.05L7.878571428571428,8.835714285714285L7.664285714285715,8.835714285714285L7.664285714285715,8.62142857142857L6.807142857142857,8.62142857142857L6.807142857142857,8.407142857142858L6.5928571428571425,8.407142857142858L6.5928571428571425,8.192857142857143L5.307142857142857,8.192857142857143L5.307142857142857,6.807142857142857L5.521428571428571,6.807142857142857L5.521428571428571,5.95L5.95,5.95L5.95,5.521428571428571L6.164285714285715,5.521428571428571L6.164285714285715,5.307142857142857L6.378571428571428,5.307142857142857L6.378571428571428,5.0928571428571425L8.307142857142857,5.0928571428571425L8.307142857142857,4.878571428571429L8.521428571428569,4.878571428571429L8.521428571428569,3.592857142857143L8.735714285714284,3.592857142857143L8.735714285714284,3.3785714285714286L9.378571428571426,3.3785714285714286L9.378571428571426,2.7357142857142858L9.592857142857142,2.7357142857142858L9.592857142857142,1.8785714285714286L19.121428571428574,1.8785714285714286L19.121428571428574,2.092857142857143L19.335714285714285,2.092857142857143L19.335714285714285,2.521428571428572L22.978571428571428,2.521428571428572L22.978571428571428,2.7357142857142858L23.40714285714286,2.7357142857142858L23.40714285714286,3.1642857142857146L23.62142857142857,3.1642857142857146L23.62142857142857,3.3785714285714286L23.835714285714285,3.3785714285714286L23.835714285714285,3.592857142857143L24.264285714285716,3.592857142857143L24.264285714285716,3.8071428571428574L24.90714285714286,3.8071428571428574L24.90714285714286,4.021428571428571L25.978571428571428,4.021428571428571L25.978571428571428,4.235714285714286L26.192857142857143,4.235714285714286L26.192857142857143,5.521428571428571L26.835714285714285,5.521428571428571L26.835714285714285,5.735714285714286L27.05,5.735714285714286L27.05,6.164285714285715L27.264285714285716,6.164285714285715L27.264285714285716,6.807142857142857L27.692857142857143,6.807142857142857L27.692857142857143,11.407142857142858L27.478571428571428,11.407142857142858L27.478571428571428,11.62142857142857L27.264285714285716,11.62142857142857L27.264285714285716,12.05z" stroke="none"/><path d="M12,10.45L12,10.55L11.092857142857142,10.55L11.092857142857142,10.335714285714285L10.878571428571426,10.335714285714285L10.878571428571426,10.12142857142857L9.807142857142857,10.12142857142857L9.807142857142857,9.907142857142858L7.235714285714286,9.907142857142858L7.235714285714286,9.692857142857143L7.021428571428571,9.692857142857143L7.021428571428571,9.05L6.5928571428571425,9.05L6.5928571428571425,8.62142857142857L6.378571428571428,8.62142857142857L6.378571428571428,8.407142857142858L5.0928571428571425,8.407142857142858L5.0928571428571425,4.335714285714285L4.878571428571429,4.335714285714285L4.878571428571429,4.121428571428571L3.478571428571428,4.121428571428571L3.478571428571428,4.978571428571429L3.05,4.978571428571429L3.05,5.192857142857142L2.8357142857142854,5.192857142857142L2.8357142857142854,5.407142857142857L2.6214285714285714,5.407142857142857L2.6214285714285714,10.978571428571428L2.407142857142857,10.978571428571428L2.407142857142857,12.807142857142857L14.735714285714284,12.807142857142857L14.735714285714284,12.378571428571426L19.021428571428572,12.378571428571426L19.021428571428572,11.521428571428569L21.478571428571428,11.521428571428569L21.478571428571428,11.735714285714284L22.335714285714285,11.735714285714284L22.335714285714285,11.95L22.5,11.95L22.5,12.05L22.235714285714284,12.05L22.235714285714284,11.835714285714285L21.378571428571426,11.835714285714285L21.378571428571426,11.62142857142857L19.121428571428574,11.62142857142857L19.121428571428574,12.478571428571428L14.835714285714285,12.478571428571428L14.835714285714285,12.907142857142858L2.3071428571428574,12.907142857142858L2.3071428571428574,10.878571428571426L2.521428571428572,10.878571428571426L2.521428571428572,5.307142857142857L2.7357142857142858,5.307142857142857L2.7357142857142858,5.0928571428571425L2.95,5.0928571428571425L2.95,4.878571428571429L3.3785714285714286,4.878571428571429L3.3785714285714286,4.021428571428571L4.978571428571429,4.021428571428571L4.978571428571429,4.235714285714286L5.192857142857142,4.235714285714286L5.192857142857142,8.307142857142857L6.478571428571428,8.307142857142857L6.478571428571428,8.521428571428569L6.692857142857142,8.521428571428569L6.692857142857142,8.95L7.121428571428571,8.95L7.121428571428571,9.592857142857142L7.335714285714285,9.592857142857142L7.335714285714285,9.807142857142857L9.907142857142858,9.807142857142857L9.907142857142858,10.021428571428569L10.978571428571428,10.021428571428569L10.978571428571428,10.235714285714284L11.192857142857143,10.235714285714284L11.192857142857143,10.45z" stroke="none"/></svg>