<svg version="1.1" width="30" height="15" xmlns="http://www.w3.org/2000/svg"><path d="M10.45,5.307142857142857L10.45,4.5L10.55,4.5L10.55,5.307142857142857L16.12142857142857,5.307142857142857L16.12142857142857,5.521428571428571L16.55,5.521428571428571L16.55,6L16.45,6L16.45,5.621428571428571L16.02142857142857,5.621428571428571L16.02142857142857,5.407142857142857L7.55,5.407142857142857L7.55,5.621428571428571L5.407142857142857,5.621428571428571L5.407142857142857,5.835714285714285L4.55,5.835714285714285L4.55,6L4.45,6L4.45,5.735714285714286L5.307142857142857,5.735714285714286L5.307142857142857,5.521428571428571L7.45,5.521428571428571L7.45,5.307142857142857z" stroke="none"/><path d="M4.235714285714286,5.307142857142857L4.235714285714286,5.0928571428571425L4.45,5.0928571428571425L4.45,4.664285714285715L4.664285714285715,4.664285714285715L4.664285714285715,4.45L6,4.45L6,4.55L4.764285714285714,4.55L4.764285714285714,4.764285714285714L4.55,4.764285714285714L4.55,5.192857142857142L4.335714285714285,5.192857142857142L4.335714285714285,5.407142857142857L3.907142857142857,5.407142857142857L3.907142857142857,6.478571428571428L3.6928571428571426,6.478571428571428L3.6928571428571426,6.907142857142857L3.478571428571428,6.907142857142857L3.478571428571428,7.55L3,7.55L3,7.45L3.3785714285714286,7.45L3.3785714285714286,6.807142857142857L3.592857142857143,6.807142857142857L3.592857142857143,6.378571428571428L3.8071428571428574,6.378571428571428L3.8071428571428574,5.407142857142857L3.1642857142857146,5.407142857142857L3.1642857142857146,5.192857142857142L2.95,5.192857142857142L2.95,4.5L3.05,4.5L3.05,5.0928571428571425L3.2642857142857142,5.0928571428571425L3.2642857142857142,5.307142857142857z" stroke="none"/><path d="M11.092857142857142,9.378571428571426L11.092857142857142,8.092857142857142L11.521428571428569,8.092857142857142L11.521428571428569,7.878571428571428L11.95,7.878571428571428L11.95,7.5L12.05,7.5L12.05,7.978571428571428L11.62142857142857,7.978571428571428L11.62142857142857,8.192857142857143L11.192857142857143,8.192857142857143L11.192857142857143,9.378571428571426L15.692857142857143,9.378571428571426L15.692857142857143,9.592857142857142L15.907142857142858,9.592857142857142L15.907142857142858,10.45L16.12142857142857,10.45L16.12142857142857,10.878571428571426L16.335714285714285,10.878571428571426L16.335714285714285,11.092857142857142L16.55,11.092857142857142L16.55,12L16.45,12L16.45,11.192857142857143L16.235714285714284,11.192857142857143L16.235714285714284,10.978571428571428L16.02142857142857,10.978571428571428L16.02142857142857,10.55L15.807142857142857,10.55L15.807142857142857,9.692857142857143L15.592857142857142,9.692857142857143L15.592857142857142,9.478571428571428L5.307142857142857,9.478571428571428L5.307142857142857,9.264285714285716L5.0928571428571425,9.264285714285716L5.0928571428571425,9.05L4.5,9.05L4.5,8.95L5.192857142857142,8.95L5.192857142857142,9.164285714285715L5.407142857142857,9.164285714285715L5.407142857142857,9.378571428571426z" stroke="none"/><path d="M8.95,11.092857142857142L8.95,10.5L9.05,10.5L9.05,11.092857142857142L13.235714285714284,11.092857142857142L13.235714285714284,10.664285714285715L13.45,10.664285714285715L13.45,10.5L13.55,10.5L13.55,10.764285714285716L13.335714285714285,10.764285714285716L13.335714285714285,11.192857142857143L9.05,11.192857142857143L9.05,11.407142857142858L7.335714285714285,11.407142857142858L7.335714285714285,11.62142857142857L7.121428571428571,11.62142857142857L7.121428571428571,11.835714285714285L6.692857142857142,11.835714285714285L6.692857142857142,12.05L6,12.05L6,11.95L6.5928571428571425,11.95L6.5928571428571425,11.735714285714284L7.021428571428571,11.735714285714284L7.021428571428571,11.521428571428569L7.235714285714286,11.521428571428569L7.235714285714286,11.307142857142857L8.95,11.307142857142857L8.95,11.192857142857143L7.664285714285715,11.192857142857143L7.664285714285715,10.55L7.5,10.55L7.5,10.45L7.764285714285714,10.45L7.764285714285714,11.092857142857142z" stroke="none"/><path d="M8.95,4.021428571428571L8.95,3.6928571428571426L8.735714285714284,3.6928571428571426L8.735714285714284,3.478571428571428L8.307142857142857,3.478571428571428L8.307142857142857,3.2642857142857142L7.664285714285715,3.2642857142857142L7.664285714285715,3.05L7.5,3.05L7.5,2.95L7.764285714285714,2.95L7.764285714285714,3.1642857142857146L8.407142857142858,3.1642857142857146L8.407142857142858,3.3785714285714286L8.835714285714285,3.3785714285714286L8.835714285714285,3.592857142857143L9.05,3.592857142857143L9.05,4.021428571428571L9.164285714285715,4.021428571428571L9.164285714285715,3.8071428571428574L9.807142857142857,3.8071428571428574L9.807142857142857,2.95L10.5,2.95L10.5,3.05L9.907142857142858,3.05L9.907142857142858,3.907142857142857L9.264285714285716,3.907142857142857L9.264285714285716,4.121428571428571L9.05,4.121428571428571L9.05,4.235714285714286L10.021428571428569,4.235714285714286L10.021428571428569,4.021428571428571L11.307142857142857,4.021428571428571L11.307142857142857,3.592857142857143L11.521428571428569,3.592857142857143L11.521428571428569,2.95L12,2.95L12,3.05L11.62142857142857,3.05L11.62142857142857,3.6928571428571426L11.407142857142858,3.6928571428571426L11.407142857142858,4.121428571428571L10.12142857142857,4.121428571428571L10.12142857142857,4.335714285714285L8.95,4.335714285714285L8.95,4.121428571428571L7.55,4.121428571428571L7.55,4.335714285714285L7.335714285714285,4.335714285714285L7.335714285714285,4.55L7.121428571428571,4.55L7.121428571428571,4.764285714285714L6.478571428571428,4.764285714285714L6.478571428571428,4.978571428571429L5.407142857142857,4.978571428571429L5.407142857142857,5.192857142857142L4.764285714285714,5.192857142857142L4.764285714285714,5.621428571428571L4.121428571428571,5.621428571428571L4.121428571428571,6.378571428571428L4.978571428571429,6.378571428571428L4.978571428571429,6.807142857142857L5.835714285714285,6.807142857142857L5.835714285714285,7.021428571428571L6.05,7.021428571428571L6.05,7.5L5.95,7.5L5.95,7.121428571428571L5.735714285714286,7.121428571428571L5.735714285714286,6.907142857142857L4.878571428571429,6.907142857142857L4.878571428571429,6.478571428571428L4.021428571428571,6.478571428571428L4.021428571428571,5.521428571428571L4.664285714285715,5.521428571428571L4.664285714285715,5.0928571428571425L5.307142857142857,5.0928571428571425L5.307142857142857,4.878571428571429L6.378571428571428,4.878571428571429L6.378571428571428,4.664285714285715L7.021428571428571,4.664285714285715L7.021428571428571,4.45L7.235714285714286,4.45L7.235714285714286,4.235714285714286L7.45,4.235714285714286L7.45,4.021428571428571z" stroke="none"/><path d="M20.521428571428572,5.0928571428571425L20.521428571428572,4.335714285714285L20.09285714285714,4.335714285714285L20.09285714285714,3.478571428571428L19.878571428571426,3.478571428571428L19.878571428571426,3.2642857142857142L19.45,3.2642857142857142L19.45,3L19.55,3L19.55,3.1642857142857146L19.978571428571428,3.1642857142857146L19.978571428571428,3.3785714285714286L20.192857142857143,3.3785714285714286L20.192857142857143,4.235714285714286L20.621428571428574,4.235714285714286L20.621428571428574,5.0928571428571425L22.335714285714285,5.0928571428571425L22.335714285714285,5.307142857142857L22.978571428571428,5.307142857142857L22.978571428571428,5.735714285714286L23.192857142857143,5.735714285714286L23.192857142857143,6.164285714285715L23.62142857142857,6.164285714285715L23.62142857142857,6.378571428571428L24.692857142857143,6.378571428571428L24.692857142857143,6.5928571428571425L24.90714285714286,6.5928571428571425L24.90714285714286,6.807142857142857L25.12142857142857,6.807142857142857L25.12142857142857,7.235714285714286L25.335714285714285,7.235714285714286L25.335714285714285,7.45L25.5,7.45L25.5,7.55L25.235714285714284,7.55L25.235714285714284,7.335714285714285L25.02142857142857,7.335714285714285L25.02142857142857,6.907142857142857L24.807142857142857,6.907142857142857L24.807142857142857,6.692857142857142L24.59285714285714,6.692857142857142L24.59285714285714,6.478571428571428L23.52142857142857,6.478571428571428L23.52142857142857,6.264285714285714L23.09285714285714,6.264285714285714L23.09285714285714,5.835714285714285L22.878571428571426,5.835714285714285L22.878571428571426,5.407142857142857L22.235714285714284,5.407142857142857L22.235714285714284,5.192857142857142L20.621428571428574,5.192857142857142L20.621428571428574,7.235714285714286L21.05,7.235714285714286L21.05,7.5L20.95,7.5L20.95,7.335714285714285L20.521428571428572,7.335714285714285L20.521428571428572,5.192857142857142L18.378571428571426,5.192857142857142L18.378571428571426,4.978571428571429L18.164285714285715,4.978571428571429L18.164285714285715,4.55L17.521428571428572,4.55L17.521428571428572,4.335714285714285L17.09285714285714,4.335714285714285L17.09285714285714,4.121428571428571L16.878571428571426,4.121428571428571L16.878571428571426,3.6928571428571426L16.664285714285715,3.6928571428571426L16.664285714285715,3.05L16.5,3.05L16.5,2.95L16.764285714285716,2.95L16.764285714285716,3.592857142857143L16.978571428571428,3.592857142857143L16.978571428571428,4.021428571428571L17.192857142857143,4.021428571428571L17.192857142857143,4.235714285714286L17.621428571428574,4.235714285714286L17.621428571428574,4.45L18.264285714285716,4.45L18.264285714285716,4.878571428571429L18.478571428571428,4.878571428571429L18.478571428571428,5.0928571428571425z" stroke="none"/><path d="M27,10.45L27,10.55L25.5,10.55L25.5,10.45z" stroke="none"/><path d="M19.5,7.55L19.5,7.45L19.978571428571428,7.45L19.978571428571428,7.664285714285715L20.40714285714286,7.664285714285715L20.40714285714286,7.878571428571428L21.378571428571426,7.878571428571428L21.378571428571426,6.478571428571428L21.164285714285715,6.478571428571428L21.164285714285715,6.264285714285714L20.95,6.264285714285714L20.95,6L21.05,6L21.05,6.164285714285715L21.264285714285716,6.164285714285715L21.264285714285716,6.378571428571428L21.478571428571428,6.378571428571428L21.478571428571428,7.978571428571428L20.307142857142857,7.978571428571428L20.307142857142857,7.764285714285714L19.878571428571426,7.764285714285714L19.878571428571426,7.55z" stroke="none"/><path d="M18,2.95L18,3.05L17.521428571428572,3.05L17.521428571428572,2.6214285714285714L16.12142857142857,2.6214285714285714L16.12142857142857,4.021428571428571L16.335714285714285,4.021428571428571L16.335714285714285,4.45L16.5,4.45L16.5,4.55L16.235714285714284,4.55L16.235714285714284,4.121428571428571L16.02142857142857,4.121428571428571L16.02142857142857,2.521428571428572L17.621428571428574,2.521428571428572L17.621428571428574,2.95z" stroke="none"/><path d="M7.5,7.55L7.5,7.45L8.307142857142857,7.45L8.307142857142857,7.235714285714286L8.521428571428569,7.235714285714286L8.521428571428569,7.021428571428571L10.55,7.021428571428571L10.55,7.5L10.45,7.5L10.45,7.121428571428571L8.62142857142857,7.121428571428571L8.62142857142857,7.335714285714285L8.407142857142858,7.335714285714285L8.407142857142858,7.55z" stroke="none"/><path d="M7.5,9.05L7.5,8.95L10.5,8.95L10.5,9.05z" stroke="none"/><path d="M12,5.95L12,6.05L11.835714285714285,6.05L11.835714285714285,6.478571428571428L11.62142857142857,6.478571428571428L11.62142857142857,6.907142857142857L11.192857142857143,6.907142857142857L11.192857142857143,7.121428571428571L10.978571428571428,7.121428571428571L10.978571428571428,7.978571428571428L9.164285714285715,7.978571428571428L9.164285714285715,7.764285714285714L8.95,7.764285714285714L8.95,7.5L9.05,7.5L9.05,7.664285714285715L9.264285714285716,7.664285714285715L9.264285714285716,7.878571428571428L10.878571428571426,7.878571428571428L10.878571428571426,7.021428571428571L11.092857142857142,7.021428571428571L11.092857142857142,6.807142857142857L11.521428571428569,6.807142857142857L11.521428571428569,6.378571428571428L11.735714285714284,6.378571428571428L11.735714285714284,5.95z" stroke="none"/><path d="M4.45,10.5L4.55,10.5L4.55,11.95L4.764285714285714,11.95L4.764285714285714,12.164285714285715L4.978571428571429,12.164285714285715L4.978571428571429,12.378571428571426L7.235714285714286,12.378571428571426L7.235714285714286,12.164285714285715L7.45,12.164285714285715L7.45,12L7.55,12L7.55,12.264285714285716L7.335714285714285,12.264285714285716L7.335714285714285,12.478571428571428L4.878571428571429,12.478571428571428L4.878571428571429,12.264285714285716L4.664285714285715,12.264285714285716L4.664285714285715,12.05L4.45,12.05z" stroke="none"/><path d="M14.95,10.5L15.05,10.5L15.05,11.95L15.264285714285716,11.95L15.264285714285716,12.164285714285715L15.692857142857143,12.164285714285715L15.692857142857143,12.378571428571426L18.378571428571426,12.378571428571426L18.378571428571426,11.735714285714284L18.59285714285714,11.735714285714284L18.59285714285714,11.092857142857142L18.807142857142857,11.092857142857142L18.807142857142857,10.878571428571426L19.021428571428572,10.878571428571426L19.021428571428572,10.664285714285715L19.235714285714284,10.664285714285715L19.235714285714284,10.45L19.5,10.45L19.5,10.55L19.335714285714285,10.55L19.335714285714285,10.764285714285716L19.121428571428574,10.764285714285716L19.121428571428574,10.978571428571428L18.90714285714286,10.978571428571428L18.90714285714286,11.192857142857143L18.692857142857143,11.192857142857143L18.692857142857143,11.835714285714285L18.478571428571428,11.835714285714285L18.478571428571428,12.478571428571428L15.592857142857142,12.478571428571428L15.592857142857142,12.264285714285716L15.164285714285715,12.264285714285716L15.164285714285715,12.05L14.95,12.05z" stroke="none"/><path d="M4.5,2.95L4.5,3.05L3.907142857142857,3.05L3.907142857142857,3.478571428571428L3.6928571428571426,3.478571428571428L3.6928571428571426,4.121428571428571L2.6214285714285714,4.121428571428571L2.6214285714285714,7.878571428571428L4.235714285714286,7.878571428571428L4.235714285714286,7.45L4.5,7.45L4.5,7.55L4.335714285714285,7.55L4.335714285714285,7.978571428571428L2.521428571428572,7.978571428571428L2.521428571428572,4.021428571428571L3.592857142857143,4.021428571428571L3.592857142857143,3.3785714285714286L3.8071428571428574,3.3785714285714286L3.8071428571428574,2.95z" stroke="none"/><path d="M24,6.05L24,5.95L24.90714285714286,5.95L24.90714285714286,6.164285714285715L25.12142857142857,6.164285714285715L25.12142857142857,6.378571428571428L25.335714285714285,6.378571428571428L25.335714285714285,6.5928571428571425L25.55,6.5928571428571425L25.55,6.807142857142857L25.764285714285716,6.807142857142857L25.764285714285716,7.021428571428571L25.978571428571428,7.021428571428571L25.978571428571428,8.835714285714285L25.764285714285716,8.835714285714285L25.764285714285716,9.264285714285716L25.12142857142857,9.264285714285716L25.12142857142857,10.335714285714285L24.264285714285716,10.335714285714285L24.264285714285716,10.55L24,10.55L24,10.45L24.164285714285715,10.45L24.164285714285715,10.235714285714284L25.02142857142857,10.235714285714284L25.02142857142857,9.164285714285715L25.664285714285715,9.164285714285715L25.664285714285715,8.735714285714284L25.878571428571426,8.735714285714284L25.878571428571426,7.121428571428571L25.664285714285715,7.121428571428571L25.664285714285715,6.907142857142857L25.45,6.907142857142857L25.45,6.692857142857142L25.235714285714284,6.692857142857142L25.235714285714284,6.478571428571428L25.02142857142857,6.478571428571428L25.02142857142857,6.264285714285714L24.807142857142857,6.264285714285714L24.807142857142857,6.05z" stroke="none"/><path d="M22.45,6L22.55,6L22.55,7.121428571428571L22.335714285714285,7.121428571428571L22.335714285714285,7.764285714285714L21.90714285714286,7.764285714285714L21.90714285714286,8.192857142857143L19.45,8.192857142857143L19.45,7.978571428571428L19.021428571428572,7.978571428571428L19.021428571428572,6.692857142857142L18.59285714285714,6.692857142857142L18.59285714285714,6.478571428571428L18.378571428571426,6.478571428571428L18.378571428571426,6.264285714285714L18.164285714285715,6.264285714285714L18.164285714285715,6.05L18,6.05L18,5.95L18.264285714285716,5.95L18.264285714285716,6.164285714285715L18.478571428571428,6.164285714285715L18.478571428571428,6.378571428571428L18.692857142857143,6.378571428571428L18.692857142857143,6.5928571428571425L19.121428571428574,6.5928571428571425L19.121428571428574,7.878571428571428L19.55,7.878571428571428L19.55,8.092857142857142L21.807142857142857,8.092857142857142L21.807142857142857,7.664285714285715L22.235714285714284,7.664285714285715L22.235714285714284,7.021428571428571L22.45,7.021428571428571z" stroke="none"/><path d="M10.5,10.45L10.5,10.55L9.592857142857142,10.55L9.592857142857142,10.12142857142857L4.235714285714286,10.12142857142857L4.235714285714286,9.907142857142858L4.021428571428571,9.907142857142858L4.021428571428571,8.521428571428569L5.621428571428571,8.521428571428569L5.621428571428571,8.735714285714284L6.05,8.735714285714284L6.05,9L5.95,9L5.95,8.835714285714285L5.521428571428571,8.835714285714285L5.521428571428571,8.62142857142857L4.121428571428571,8.62142857142857L4.121428571428571,9.807142857142857L4.335714285714285,9.807142857142857L4.335714285714285,10.021428571428569L9.692857142857143,10.021428571428569L9.692857142857143,10.45z" stroke="none"/><path d="M27.05,7.5L26.95,7.5L26.95,4.55L25.878571428571426,4.55L25.878571428571426,4.121428571428571L25.664285714285715,4.121428571428571L25.664285714285715,3.6928571428571426L25.235714285714284,3.6928571428571426L25.235714285714284,3.478571428571428L24.807142857142857,3.478571428571428L24.807142857142857,3.2642857142857142L24.164285714285715,3.2642857142857142L24.164285714285715,3.05L24,3.05L24,2.95L24.264285714285716,2.95L24.264285714285716,3.1642857142857146L24.90714285714286,3.1642857142857146L24.90714285714286,3.3785714285714286L25.335714285714285,3.3785714285714286L25.335714285714285,3.592857142857143L25.764285714285716,3.592857142857143L25.764285714285716,4.021428571428571L25.978571428571428,4.021428571428571L25.978571428571428,4.45L27.05,4.45z" stroke="none"/><path d="M23.95,4.5L24.05,4.5L24.05,4.664285714285715L24.478571428571428,4.664285714285715L24.478571428571428,4.878571428571429L24.692857142857143,4.878571428571429L24.692857142857143,5.307142857142857L25.335714285714285,5.307142857142857L25.335714285714285,5.521428571428571L25.978571428571428,5.521428571428571L25.978571428571428,6.807142857142857L26.192857142857143,6.807142857142857L26.192857142857143,8.521428571428569L26.62142857142857,8.521428571428569L26.62142857142857,8.735714285714284L26.835714285714285,8.735714285714284L26.835714285714285,8.95L27,8.95L27,9.05L26.735714285714284,9.05L26.735714285714284,8.835714285714285L26.52142857142857,8.835714285714285L26.52142857142857,8.62142857142857L26.09285714285714,8.62142857142857L26.09285714285714,6.907142857142857L25.878571428571426,6.907142857142857L25.878571428571426,5.621428571428571L25.235714285714284,5.621428571428571L25.235714285714284,5.407142857142857L24.59285714285714,5.407142857142857L24.59285714285714,4.978571428571429L24.378571428571426,4.978571428571429L24.378571428571426,4.764285714285714L23.95,4.764285714285714z" stroke="none"/><path d="M22.5,11.95L22.5,12.05L21.378571428571426,12.05L21.378571428571426,11.835714285714285L20.95,11.835714285714285L20.95,11.407142857142858L20.735714285714284,11.407142857142858L20.735714285714284,11.192857142857143L20.521428571428572,11.192857142857143L20.521428571428572,10.978571428571428L20.307142857142857,10.978571428571428L20.307142857142857,10.335714285714285L20.09285714285714,10.335714285714285L20.09285714285714,10.12142857142857L18.90714285714286,10.12142857142857L18.90714285714286,10.335714285714285L16.764285714285716,10.335714285714285L16.764285714285716,10.55L16.5,10.55L16.5,10.45L16.664285714285715,10.45L16.664285714285715,10.235714285714284L18.807142857142857,10.235714285714284L18.807142857142857,10.021428571428569L20.192857142857143,10.021428571428569L20.192857142857143,10.235714285714284L20.40714285714286,10.235714285714284L20.40714285714286,10.878571428571426L20.621428571428574,10.878571428571426L20.621428571428574,11.092857142857142L20.835714285714285,11.092857142857142L20.835714285714285,11.307142857142857L21.05,11.307142857142857L21.05,11.735714285714284L21.478571428571428,11.735714285714284L21.478571428571428,11.95z" stroke="none"/><path d="M19.5,8.95L19.5,9.05L19.121428571428574,9.05L19.121428571428574,9.264285714285716L18.478571428571428,9.264285714285716L18.478571428571428,9.478571428571428L15.807142857142857,9.478571428571428L15.807142857142857,9.264285714285716L15.164285714285715,9.264285714285716L15.164285714285715,9.05L12,9.05L12,8.95L15.264285714285716,8.95L15.264285714285716,9.164285714285715L15.907142857142858,9.164285714285715L15.907142857142858,9.378571428571426L18.378571428571426,9.378571428571426L18.378571428571426,9.164285714285715L19.021428571428572,9.164285714285715L19.021428571428572,8.95z" stroke="none"/><path d="M22.5,4.45L22.5,4.55L20.735714285714284,4.55L20.735714285714284,4.121428571428571L20.521428571428572,4.121428571428571L20.521428571428572,3.478571428571428L20.307142857142857,3.478571428571428L20.307142857142857,3.2642857142857142L20.09285714285714,3.2642857142857142L20.09285714285714,3.05L19.878571428571426,3.05L19.878571428571426,2.6214285714285714L18.164285714285715,2.6214285714285714L18.164285714285715,2.407142857142857L13.978571428571428,2.407142857142857L13.978571428571428,3.6928571428571426L13.764285714285716,3.6928571428571426L13.764285714285716,3.907142857142857L13.55,3.907142857142857L13.55,4.5L13.45,4.5L13.45,3.8071428571428574L13.664285714285715,3.8071428571428574L13.664285714285715,3.592857142857143L13.878571428571426,3.592857142857143L13.878571428571426,2.3071428571428574L18.264285714285716,2.3071428571428574L18.264285714285716,2.521428571428572L19.978571428571428,2.521428571428572L19.978571428571428,2.95L20.192857142857143,2.95L20.192857142857143,3.1642857142857146L20.40714285714286,3.1642857142857146L20.40714285714286,3.3785714285714286L20.621428571428574,3.3785714285714286L20.621428571428574,4.021428571428571L20.835714285714285,4.021428571428571L20.835714285714285,4.45z" stroke="none"/><path d="M6,3.05L6,2.95L6.807142857142857,2.95L6.807142857142857,2.7357142857142858L7.021428571428571,2.7357142857142858L7.021428571428571,2.521428571428572L12.478571428571428,2.521428571428572L12.478571428571428,3.592857142857143L12.692857142857143,3.592857142857143L12.692857142857143,4.021428571428571L12.907142857142858,4.021428571428571L12.907142857142858,4.878571428571429L14.307142857142857,4.878571428571429L14.307142857142857,4.45L14.521428571428569,4.45L14.521428571428569,3.592857142857143L14.735714285714284,3.592857142857143L14.735714285714284,2.95L15,2.95L15,3.05L14.835714285714285,3.05L14.835714285714285,3.6928571428571426L14.62142857142857,3.6928571428571426L14.62142857142857,4.55L14.407142857142858,4.55L14.407142857142858,4.978571428571429L12.807142857142857,4.978571428571429L12.807142857142857,4.121428571428571L12.592857142857142,4.121428571428571L12.592857142857142,3.6928571428571426L12.378571428571426,3.6928571428571426L12.378571428571426,2.6214285714285714L7.121428571428571,2.6214285714285714L7.121428571428571,2.8357142857142854L6.907142857142857,2.8357142857142854L6.907142857142857,3.05z" stroke="none"/><path d="M19.5,11.95L19.5,12.05L18.90714285714286,12.05L18.90714285714286,12.692857142857143L8.95,12.692857142857143L8.95,12L9.05,12L9.05,12.592857142857142L18.807142857142857,12.592857142857142L18.807142857142857,11.95z" stroke="none"/><path d="M24,8.95L24,9.05L20.95,9.05L20.95,8.835714285714285L19.878571428571426,8.835714285714285L19.878571428571426,8.62142857142857L17.09285714285714,8.62142857142857L17.09285714285714,8.407142857142858L14.735714285714284,8.407142857142858L14.735714285714284,8.192857142857143L14.521428571428569,8.192857142857143L14.521428571428569,7.978571428571428L14.307142857142857,7.978571428571428L14.307142857142857,7.764285714285714L13.45,7.764285714285714L13.45,7.5L13.55,7.5L13.55,7.664285714285715L14.407142857142858,7.664285714285715L14.407142857142858,7.878571428571428L14.62142857142857,7.878571428571428L14.62142857142857,8.092857142857142L14.835714285714285,8.092857142857142L14.835714285714285,8.307142857142857L17.192857142857143,8.307142857142857L17.192857142857143,8.521428571428569L19.978571428571428,8.521428571428569L19.978571428571428,8.735714285714284L21.05,8.735714285714284L21.05,8.95z" stroke="none"/><path d="M25.5,5.95L25.5,6.05L25.02142857142857,6.05L25.02142857142857,5.835714285714285L24.378571428571426,5.835714285714285L24.378571428571426,5.407142857142857L24.164285714285715,5.407142857142857L24.164285714285715,5.192857142857142L23.735714285714284,5.192857142857142L23.735714285714284,4.978571428571429L23.52142857142857,4.978571428571429L23.52142857142857,4.021428571428571L25.335714285714285,4.021428571428571L25.335714285714285,4.45L25.764285714285716,4.45L25.764285714285716,4.664285714285715L26.192857142857143,4.664285714285715L26.192857142857143,6.164285714285715L26.40714285714286,6.164285714285715L26.40714285714286,7.45L26.62142857142857,7.45L26.62142857142857,7.878571428571428L26.835714285714285,7.878571428571428L26.835714285714285,8.521428571428569L27.478571428571428,8.521428571428569L27.478571428571428,10.978571428571428L23.52142857142857,10.978571428571428L23.52142857142857,9.592857142857142L24.164285714285715,9.592857142857142L24.164285714285715,9.378571428571426L24.378571428571426,9.378571428571426L24.378571428571426,8.62142857142857L20.09285714285714,8.62142857142857L20.09285714285714,8.407142857142858L17.307142857142857,8.407142857142858L17.307142857142857,8.192857142857143L15.592857142857142,8.192857142857143L15.592857142857142,7.978571428571428L15.378571428571426,7.978571428571428L15.378571428571426,7.55L15.164285714285715,7.55L15.164285714285715,7.121428571428571L14.307142857142857,7.121428571428571L14.307142857142857,6.692857142857142L14.092857142857142,6.692857142857142L14.092857142857142,6.264285714285714L13.664285714285715,6.264285714285714L13.664285714285715,6.05L13.5,6.05L13.5,5.95L13.764285714285716,5.95L13.764285714285716,6.164285714285715L14.192857142857143,6.164285714285715L14.192857142857143,6.5928571428571425L14.407142857142858,6.5928571428571425L14.407142857142858,7.021428571428571L15.264285714285716,7.021428571428571L15.264285714285716,7.45L15.478571428571428,7.45L15.478571428571428,7.878571428571428L15.692857142857143,7.878571428571428L15.692857142857143,8.092857142857142L17.40714285714286,8.092857142857142L17.40714285714286,8.307142857142857L20.192857142857143,8.307142857142857L20.192857142857143,8.521428571428569L24.478571428571428,8.521428571428569L24.478571428571428,9.478571428571428L24.264285714285716,9.478571428571428L24.264285714285716,9.692857142857143L23.62142857142857,9.692857142857143L23.62142857142857,10.878571428571426L27.378571428571426,10.878571428571426L27.378571428571426,8.62142857142857L26.735714285714284,8.62142857142857L26.735714285714284,7.978571428571428L26.52142857142857,7.978571428571428L26.52142857142857,7.55L26.307142857142857,7.55L26.307142857142857,6.264285714285714L26.09285714285714,6.264285714285714L26.09285714285714,4.764285714285714L25.664285714285715,4.764285714285714L25.664285714285715,4.55L25.235714285714284,4.55L25.235714285714284,4.121428571428571L23.62142857142857,4.121428571428571L23.62142857142857,4.878571428571429L23.835714285714285,4.878571428571429L23.835714285714285,5.0928571428571425L24.264285714285716,5.0928571428571425L24.264285714285716,5.307142857142857L24.478571428571428,5.307142857142857L24.478571428571428,5.735714285714286L25.12142857142857,5.735714285714286L25.12142857142857,5.95z" stroke="none"/><path d="M10.5,11.95L10.5,12.05L9.807142857142857,12.05L9.807142857142857,11.835714285714285L9.378571428571426,11.835714285714285L9.378571428571426,11.62142857142857L8.62142857142857,11.62142857142857L8.62142857142857,12.592857142857142L8.835714285714285,12.592857142857142L8.835714285714285,12.807142857142857L21.59285714285714,12.807142857142857L21.59285714285714,12.592857142857142L22.235714285714284,12.592857142857142L22.235714285714284,12.378571428571426L22.878571428571426,12.378571428571426L22.878571428571426,11.62142857142857L22.664285714285715,11.62142857142857L22.664285714285715,10.55L22.5,10.55L22.5,10.45L22.764285714285716,10.45L22.764285714285716,11.521428571428569L22.978571428571428,11.521428571428569L22.978571428571428,12.478571428571428L22.335714285714285,12.478571428571428L22.335714285714285,12.692857142857143L21.692857142857143,12.692857142857143L21.692857142857143,12.907142857142858L8.735714285714284,12.907142857142858L8.735714285714284,12.692857142857143L8.521428571428569,12.692857142857143L8.521428571428569,11.521428571428569L9.478571428571428,11.521428571428569L9.478571428571428,11.735714285714284L9.907142857142858,11.735714285714284L9.907142857142858,11.95z" stroke="none"/><path d="M18,8.95L18,9.05L15.378571428571426,9.05L15.378571428571426,8.835714285714285L14.307142857142857,8.835714285714285L14.307142857142857,8.62142857142857L13.664285714285715,8.62142857142857L13.664285714285715,8.407142857142858L13.45,8.407142857142858L13.45,8.192857142857143L13.021428571428569,8.192857142857143L13.021428571428569,6.264285714285714L12.807142857142857,6.264285714285714L12.807142857142857,5.835714285714285L12.378571428571426,5.835714285714285L12.378571428571426,5.621428571428571L8.835714285714285,5.621428571428571L8.835714285714285,5.835714285714285L6.05,5.835714285714285L6.05,6L5.95,6L5.95,5.735714285714286L8.735714285714284,5.735714285714286L8.735714285714284,5.521428571428571L12.478571428571428,5.521428571428571L12.478571428571428,5.735714285714286L12.907142857142858,5.735714285714286L12.907142857142858,6.164285714285715L13.12142857142857,6.164285714285715L13.12142857142857,8.092857142857142L13.55,8.092857142857142L13.55,8.307142857142857L13.764285714285716,8.307142857142857L13.764285714285716,8.521428571428569L14.407142857142858,8.521428571428569L14.407142857142858,8.735714285714284L15.478571428571428,8.735714285714284L15.478571428571428,8.95z" stroke="none"/><path d="M22.5,2.95L22.5,3.05L21.378571428571426,3.05L21.378571428571426,2.6214285714285714L20.307142857142857,2.6214285714285714L20.307142857142857,2.407142857142857L19.021428571428572,2.407142857142857L19.021428571428572,2.1928571428571426L3.05,2.1928571428571426L3.05,2.6214285714285714L2.8357142857142854,2.6214285714285714L2.8357142857142854,3.05L2.6214285714285714,3.05L2.6214285714285714,3.907142857142857L2.407142857142857,3.907142857142857L2.407142857142857,8.092857142857142L5.95,8.092857142857142L5.95,7.878571428571428L6.378571428571428,7.878571428571428L6.378571428571428,7.021428571428571L8.307142857142857,7.021428571428571L8.307142857142857,6.807142857142857L9.378571428571426,6.807142857142857L9.378571428571426,6.5928571428571425L10.235714285714284,6.5928571428571425L10.235714285714284,5.95L10.5,5.95L10.5,6.05L10.335714285714285,6.05L10.335714285714285,6.692857142857142L9.478571428571428,6.692857142857142L9.478571428571428,6.907142857142857L8.407142857142858,6.907142857142857L8.407142857142858,7.121428571428571L6.478571428571428,7.121428571428571L6.478571428571428,7.978571428571428L6.05,7.978571428571428L6.05,8.192857142857143L2.3071428571428574,8.192857142857143L2.3071428571428574,3.8071428571428574L2.521428571428572,3.8071428571428574L2.521428571428572,2.95L2.7357142857142858,2.95L2.7357142857142858,2.521428571428572L2.95,2.521428571428572L2.95,2.092857142857143L19.121428571428574,2.092857142857143L19.121428571428574,2.3071428571428574L20.40714285714286,2.3071428571428574L20.40714285714286,2.521428571428572L21.478571428571428,2.521428571428572L21.478571428571428,2.95z" stroke="none"/></svg>