<svg version="1.1" width="105" height="15" xmlns="http://www.w3.org/2000/svg"><path d="M94.5,4.3L94.5,4.7L91.7,4.7L91.7,5.8L94.5,5.8L94.5,6.2L91.3,6.2L91.3,4.7L89.8,4.7L89.8,3.2L81,3.2L81,2.8L90.2,2.8L90.2,4.3z" stroke="none"/><path d="M37.3,5.8L37.3,2.8L40.5,2.8L40.5,3.2L37.7,3.2L37.7,6.2L34.7,6.2L34.7,7.3L43.3,7.3L43.3,5.8L46.5,5.8L46.5,6.2L43.7,6.2L43.7,7.7L34.3,7.7L34.3,6.2L15,6.2L15,5.8z" stroke="none"/><path d="M44.8,8.8L44.8,7.3L54,7.3L54,7.7L45.2,7.7L45.2,8.8L46.7,8.8L46.7,10.3L48,10.3L48,10.7L46.3,10.7L46.3,9.2L45.2,9.2L45.2,11.8L53.8,11.8L53.8,10.3L61.5,10.3L61.5,10.7L54.2,10.7L54.2,12.2L44.8,12.2L44.8,9.2L25.7,9.2L25.7,10.7L22.7,10.7L22.7,12.2L21,12.2L21,11.8L22.3,11.8L22.3,10.3L25.3,10.3L25.3,8.8z" stroke="none"/><path d="M77.8,4.3L77.8,3.2L60.2,3.2L60.2,4.7L56.8,4.7L56.8,3.2L55.5,3.2L55.5,2.8L57.2,2.8L57.2,4.3L59.8,4.3L59.8,2.8L78.2,2.8L78.2,4.3L88.5,4.3L88.5,4.7L78.2,4.7L78.2,5.8L90.2,5.8L90.2,7.3L101.8,7.3L101.8,6L102.2,6L102.2,7.7L89.8,7.7L89.8,6.2L77.8,6.2L77.8,4.7L69,4.7L69,4.3z" stroke="none"/><path d="M68.8,9L69.2,9L69.2,10.5L68.8,10.5z" stroke="none"/><path d="M19.5,4.7L19.5,4.3L21,4.3L21,4.7z" stroke="none"/><path d="M6.2,12L5.8,12L5.8,10.7L4.5,10.7L4.5,10.3L6.2,10.3z" stroke="none"/><path d="M30,10.7L30,10.3L33,10.3L33,10.7z" stroke="none"/><path d="M94.5,9.2L94.5,8.8L97.5,8.8L97.5,9.2z" stroke="none"/><path d="M31.5,4.7L31.5,4.3L32.8,4.3L32.8,2.8L34.5,2.8L34.5,3.2L33.2,3.2L33.2,4.7z" stroke="none"/><path d="M96,3.2L96,2.8L99.2,2.8L99.2,4.5L98.8,4.5L98.8,3.2z" stroke="none"/><path d="M51,4.7L51,4.3L54.2,4.3L54.2,6L53.8,6L53.8,4.7z" stroke="none"/><path d="M73.5,5.8L73.5,6.2L67.3,6.2L67.3,4.7L64.5,4.7L64.5,4.3L67.7,4.3L67.7,5.8z" stroke="none"/><path d="M85.5,10.3L85.5,10.7L83.8,10.7L83.8,9.2L77.8,9.2L77.8,7.7L76.5,7.7L76.5,7.3L78.2,7.3L78.2,8.8L84.2,8.8L84.2,10.3z" stroke="none"/><path d="M65.8,6L66.2,6L66.2,7.3L75.2,7.3L75.2,10.3L81.2,10.3L81.2,11.8L86.8,11.8L86.8,9.2L85.3,9.2L85.3,7.7L79.5,7.7L79.5,7.3L85.7,7.3L85.7,8.8L87.2,8.8L87.2,12.2L80.8,12.2L80.8,10.7L74.8,10.7L74.8,7.7L65.8,7.7z" stroke="none"/><path d="M30,4.3L30,4.7L26.8,4.7L26.8,3.2L13.7,3.2L13.7,6.2L12.2,6.2L12.2,9.2L10.5,9.2L10.5,8.8L11.8,8.8L11.8,5.8L13.3,5.8L13.3,2.8L27.2,2.8L27.2,4.3z" stroke="none"/><path d="M93,10.3L93,10.7L90.2,10.7L90.2,12.2L88.7,12.2L88.7,13.7L67.3,13.7L67.3,12.2L61.5,12.2L61.5,11.8L67.7,11.8L67.7,13.3L88.3,13.3L88.3,11.8L89.8,11.8L89.8,10.3z" stroke="none"/><path d="M58.5,11.8L58.5,12.2L55.7,12.2L55.7,13.7L19.3,13.7L19.3,10.3L20.8,10.3L20.8,8.8L24,8.8L24,9.2L21.2,9.2L21.2,10.7L19.7,10.7L19.7,13.3L55.3,13.3L55.3,11.8z" stroke="none"/><path d="M45,2.8L45,3.2L41.8,3.2L41.8,1.7L9.2,1.7L9.2,3.2L7.5,3.2L7.5,2.8L8.8,2.8L8.8,1.3L42.2,1.3L42.2,2.8z" stroke="none"/><path d="M97.5,6.2L97.5,5.8L100.3,5.8L100.3,1.7L58.7,1.7L58.7,3L58.3,3L58.3,1.3L100.7,1.3L100.7,6.2z" stroke="none"/></svg>