<svg version="1.1" width="105" height="15" xmlns="http://www.w3.org/2000/svg"><path d="M95.8,8.8L95.8,7.3L102,7.3L102,7.7L96.2,7.7L96.2,8.8L97.7,8.8L97.7,10.3L99,10.3L99,10.7L97.3,10.7L97.3,9.2L88.7,9.2L88.7,10.7L87,10.7L87,10.3L88.3,10.3L88.3,8.8z" stroke="none"/><path d="M49.3,10.3L49.3,8.8L69.2,8.8L69.2,10.3L70.5,10.3L70.5,10.7L68.8,10.7L68.8,9.2L49.7,9.2L49.7,10.7L43.7,10.7L43.7,12.2L26.8,12.2L26.8,10.7L23.8,10.7L23.8,9L24.2,9L24.2,10.3L27.2,10.3L27.2,11.8L43.3,11.8L43.3,10.7L31.3,10.7L31.3,9.2L28.3,9.2L28.3,7.7L27,7.7L27,7.3L28.7,7.3L28.7,8.8L31.7,8.8L31.7,10.3z" stroke="none"/><path d="M19.3,4.3L19.3,3.2L10.7,3.2L10.7,6.2L4.5,6.2L4.5,5.8L10.3,5.8L10.3,2.8L19.7,2.8L19.7,4.3L39.2,4.3L39.2,5.8L40.7,5.8L40.7,9L40.3,9L40.3,6.2L38.8,6.2L38.8,4.7L19.7,4.7L19.7,5.8L21.2,5.8L21.2,7.5L20.8,7.5L20.8,6.2L19.3,6.2L19.3,4.7L18.2,4.7L18.2,6.2L16.7,6.2L16.7,9L16.3,9L16.3,5.8L17.8,5.8L17.8,4.3z" stroke="none"/><path d="M74.8,4.3L74.8,2.8L90.2,2.8L90.2,4.3L97.7,4.3L97.7,6L97.3,6L97.3,4.7L89.8,4.7L89.8,3.2L75.2,3.2L75.2,4.3L85.7,4.3L85.7,5.8L88.7,5.8L88.7,7.5L88.3,7.5L88.3,6.2L85.3,6.2L85.3,4.7L75.2,4.7L75.2,6.2L61.7,6.2L61.7,7.7L60,7.7L60,7.3L61.3,7.3L61.3,5.8L74.8,5.8L74.8,4.7L62.8,4.7L62.8,3.2L61.5,3.2L61.5,2.8L63.2,2.8L63.2,4.3z" stroke="none"/><path d="M78.2,7.5L77.8,7.5L77.8,6L78.2,6z" stroke="none"/><path d="M82.3,6L82.7,6L82.7,7.3L84,7.3L84,7.7L82.3,7.7z" stroke="none"/><path d="M93,5.8L93,6.2L90,6.2L90,5.8z" stroke="none"/><path d="M100.5,2.8L100.5,3.2L97.5,3.2L97.5,2.8z" stroke="none"/><path d="M45.2,6L44.8,6L44.8,2.8L46.5,2.8L46.5,3.2L45.2,3.2z" stroke="none"/><path d="M37.3,6L37.7,6L37.7,7.7L34.7,7.7L34.7,9L34.3,9L34.3,7.3L37.3,7.3z" stroke="none"/><path d="M57,5.8L57,6.2L51,6.2L51,5.8z" stroke="none"/><path d="M84,10.7L84,10.3L85.7,10.3L85.7,11.8L89.8,11.8L89.8,10.3L93,10.3L93,10.7L90.2,10.7L90.2,12.2L85.3,12.2L85.3,10.7z" stroke="none"/><path d="M54,12.2L54,11.8L56.8,11.8L56.8,10.3L63,10.3L63,10.7L57.2,10.7L57.2,12.2z" stroke="none"/><path d="M76.5,7.3L76.5,7.7L64.5,7.7L64.5,7.3z" stroke="none"/><path d="M79.3,6L79.7,6L79.7,9.2L73.7,9.2L73.7,12.2L67.3,12.2L67.3,10.7L66,10.7L66,10.3L67.7,10.3L67.7,11.8L73.3,11.8L73.3,8.8L79.3,8.8z" stroke="none"/><path d="M7.5,12.2L7.5,11.8L22.5,11.8L22.5,12.2z" stroke="none"/><path d="M45,7.3L45,7.7L43.3,7.7L43.3,4.7L41.8,4.7L41.8,3.2L20.8,3.2L20.8,1.7L4.7,1.7L4.7,4.7L3.2,4.7L3.2,7.3L13.7,7.3L13.7,10.3L17.8,10.3L17.8,7.5L18.2,7.5L18.2,10.7L13.3,10.7L13.3,7.7L2.8,7.7L2.8,4.3L4.3,4.3L4.3,1.3L21.2,1.3L21.2,2.8L42.2,2.8L42.2,4.3L43.7,4.3L43.7,7.3z" stroke="none"/><path d="M58.5,12.2L58.5,11.8L64.7,11.8L64.7,13.3L79.3,13.3L79.3,11.8L80.8,11.8L80.8,10.3L82.3,10.3L82.3,8.8L87,8.8L87,9.2L82.7,9.2L82.7,10.7L81.2,10.7L81.2,12.2L79.7,12.2L79.7,13.7L64.3,13.7L64.3,12.2z" stroke="none"/><path d="M12,8.8L12,9.2L7.7,9.2L7.7,10.7L6.2,10.7L6.2,13.3L47.8,13.3L47.8,11.8L52.3,11.8L52.3,10.5L52.7,10.5L52.7,12.2L48.2,12.2L48.2,13.7L5.8,13.7L5.8,10.3L7.3,10.3L7.3,8.8z" stroke="none"/><path d="M100.5,10.7L100.5,10.3L103.3,10.3L103.3,3.2L101.8,3.2L101.8,1.7L60.2,1.7L60.2,6.2L58.7,6.2L58.7,7.7L54,7.7L54,7.3L58.3,7.3L58.3,5.8L59.8,5.8L59.8,1.3L102.2,1.3L102.2,2.8L103.7,2.8L103.7,10.7z" stroke="none"/></svg>