<svg version="1.1" width="105" height="15" xmlns="http://www.w3.org/2000/svg"><path d="M28.5,4.3L28.5,4.7L25.7,4.7L25.7,5.8L27.2,5.8L27.2,7.3L42,7.3L42,7.7L26.8,7.7L26.8,6.2L25.3,6.2L25.3,4.7L22.3,4.7L22.3,3.2L6.2,3.2L6.2,4.5L5.8,4.5L5.8,2.8L22.7,2.8L22.7,4.3z" stroke="none"/><path d="M37.3,4.3L37.3,3.2L31.7,3.2L31.7,4.5L31.3,4.5L31.3,2.8L37.7,2.8L37.7,4.3L50.8,4.3L50.8,3L51.2,3L51.2,4.7L33.2,4.7L33.2,6L32.8,6L32.8,4.3z" stroke="none"/><path d="M83.8,5.8L83.8,2.8L93.2,2.8L93.2,4.3L100.5,4.3L100.5,4.7L92.8,4.7L92.8,3.2L84.2,3.2L84.2,5.8L85.3,5.8L85.3,4.3L91.5,4.3L91.5,4.7L85.7,4.7L85.7,6.2L84.2,6.2L84.2,7.7L81.2,7.7L81.2,9.2L79.5,9.2L79.5,8.8L80.8,8.8L80.8,7.3L83.8,7.3L83.8,6.2L76.7,6.2L76.7,7.7L75.2,7.7L75.2,9L74.8,9L74.8,7.3L76.3,7.3L76.3,5.8z" stroke="none"/><path d="M46.3,7.3L46.3,5.8L52.3,5.8L52.3,1.7L30.2,1.7L30.2,6.2L28.5,6.2L28.5,5.8L29.8,5.8L29.8,1.3L52.7,1.3L52.7,6.2L46.7,6.2L46.7,7.3L54.2,7.3L54.2,9L53.8,9L53.8,7.7L46.7,7.7L46.7,8.8L52.7,8.8L52.7,10.3L65.8,10.3L65.8,8.8L69,8.8L69,9.2L66.2,9.2L66.2,10.7L52.3,10.7L52.3,9.2L46.3,9.2L46.3,7.7L43.7,7.7L43.7,9.2L36.2,9.2L36.2,10.5L35.8,10.5L35.8,8.8L43.3,8.8L43.3,7.3z" stroke="none"/><path d="M102,11.8L102,12.2L100.3,12.2L100.3,10.5L100.7,10.5L100.7,11.8z" stroke="none"/><path d="M25.5,12.2L25.5,11.8L30,11.8L30,12.2z" stroke="none"/><path d="M18,7.3L18,7.7L12.2,7.7L12.2,9L11.8,9L11.8,7.3z" stroke="none"/><path d="M12,6.2L12,5.8L19.7,5.8L19.7,9.2L18.2,9.2L18.2,10.5L17.8,10.5L17.8,8.8L19.3,8.8L19.3,6.2z" stroke="none"/><path d="M76.5,10.3L76.5,10.7L73.3,10.7L73.3,9.2L71.8,9.2L71.8,6.2L70.5,6.2L70.5,5.8L72.2,5.8L72.2,8.8L73.7,8.8L73.7,10.3z" stroke="none"/><path d="M10.7,7.5L10.3,7.5L10.3,4.3L19.5,4.3L19.5,4.7L10.7,4.7z" stroke="none"/><path d="M94.7,12L94.3,12L94.3,10.7L85.7,10.7L85.7,12.2L84,12.2L84,11.8L85.3,11.8L85.3,10.3L94.7,10.3z" stroke="none"/><path d="M51,10.3L51,10.7L39.2,10.7L39.2,12L38.8,12L38.8,10.3z" stroke="none"/><path d="M69,11.8L69,12.2L55.5,12.2L55.5,11.8z" stroke="none"/><path d="M100.5,3.2L100.5,2.8L102.2,2.8L102.2,6.2L87,6.2L87,5.8L101.8,5.8L101.8,3.2z" stroke="none"/><path d="M102.2,10.5L101.8,10.5L101.8,9.2L99.2,9.2L99.2,13.7L86.8,13.7L86.8,12L87.2,12L87.2,13.3L98.8,13.3L98.8,8.8L102.2,8.8z" stroke="none"/><path d="M94.7,3L94.3,3L94.3,1.7L82.7,1.7L82.7,3.2L79.7,3.2L79.7,4.7L78,4.7L78,4.3L79.3,4.3L79.3,2.8L82.3,2.8L82.3,1.3L94.7,1.3z" stroke="none"/><path d="M55.5,4.7L55.5,4.3L73.7,4.3L73.7,7.5L73.3,7.5L73.3,4.7z" stroke="none"/><path d="M2.8,4.5L3.2,4.5L3.2,7.3L4.7,7.3L4.7,8.8L10.7,8.8L10.7,10.3L15.2,10.3L15.2,11.8L19.3,11.8L19.3,10.3L20.8,10.3L20.8,7.5L21.2,7.5L21.2,10.7L19.7,10.7L19.7,12.2L14.8,12.2L14.8,10.7L10.3,10.7L10.3,9.2L4.3,9.2L4.3,7.7L2.8,7.7z" stroke="none"/><path d="M61.5,6.2L61.5,5.8L69.2,5.8L69.2,7.3L70.7,7.3L70.7,10.3L72.2,10.3L72.2,11.8L80.8,11.8L80.8,10.3L82.3,10.3L82.3,8.8L88.5,8.8L88.5,9.2L82.7,9.2L82.7,10.7L81.2,10.7L81.2,12.2L71.8,12.2L71.8,10.7L70.3,10.7L70.3,7.7L68.8,7.7L68.8,6.2z" stroke="none"/><path d="M9,7.3L9,7.7L5.8,7.7L5.8,6.2L4.3,6.2L4.3,3.2L1.7,3.2L1.7,8.8L3.2,8.8L3.2,10.3L9.2,10.3L9.2,11.8L13.7,11.8L13.7,13.3L44.8,13.3L44.8,12L45.2,12L45.2,13.7L13.3,13.7L13.3,12.2L8.8,12.2L8.8,10.7L2.8,10.7L2.8,9.2L1.3,9.2L1.3,2.8L4.7,2.8L4.7,5.8L6.2,5.8L6.2,7.3z" stroke="none"/></svg>