<svg version="1.1" width="105" height="15" xmlns="http://www.w3.org/2000/svg"><path d="M93.2,10.3L93.2,11.8L100.5,11.8L100.5,12.2L92.8,12.2L92.8,10.7L90.2,10.7L90.2,12.2L87,12.2L87,11.8L89.8,11.8L89.8,10.7L83.8,10.7L83.8,9.2L82.5,9.2L82.5,8.8L84.2,8.8L84.2,10.3z" stroke="none"/><path d="M53.8,8.8L53.8,7.3L62.8,7.3L62.8,5.8L69.2,5.8L69.2,7.5L68.8,7.5L68.8,6.2L63.2,6.2L63.2,7.7L54.2,7.7L54.2,8.8L64.3,8.8L64.3,7.3L66,7.3L66,7.7L64.7,7.7L64.7,9.2L52.7,9.2L52.7,10.7L28.7,10.7L28.7,12.2L24,12.2L24,11.8L28.3,11.8L28.3,10.3L52.3,10.3L52.3,8.8z" stroke="none"/><path d="M74.8,8.8L74.8,7.7L71.8,7.7L71.8,4.7L54.2,4.7L54.2,6.2L52.7,6.2L52.7,7.7L51.2,7.7L51.2,9L50.8,9L50.8,7.3L52.3,7.3L52.3,5.8L53.8,5.8L53.8,4.3L72.2,4.3L72.2,7.3L75.2,7.3L75.2,8.8L79.3,8.8L79.3,7.3L90.2,7.3L90.2,8.8L99,8.8L99,9.2L89.8,9.2L89.8,7.7L79.7,7.7L79.7,9.2L75.2,9.2L75.2,12L74.8,12L74.8,9.2L73.7,9.2L73.7,10.7L70.7,10.7L70.7,12.2L69,12.2L69,11.8L70.3,11.8L70.3,10.3L73.3,10.3L73.3,8.8z" stroke="none"/><path d="M25.3,7.3L25.3,6.2L10.7,6.2L10.7,7.7L9.2,7.7L9.2,9.2L7.7,9.2L7.7,10.7L6,10.7L6,10.3L7.3,10.3L7.3,8.8L8.8,8.8L8.8,7.3L10.3,7.3L10.3,5.8L25.7,5.8L25.7,7.3L43.3,7.3L43.3,6L43.7,6L43.7,7.7L25.7,7.7L25.7,8.8L44.8,8.8L44.8,6L45.2,6L45.2,9.2L25.3,9.2L25.3,7.7L12,7.7L12,7.3z" stroke="none"/><path d="M6.2,6L5.8,6L5.8,4.7L4.5,4.7L4.5,4.3L6.2,4.3z" stroke="none"/><path d="M69.2,10.5L68.8,10.5L68.8,8.8L72,8.8L72,9.2L69.2,9.2z" stroke="none"/><path d="M81.2,4.5L80.8,4.5L80.8,3.2L78,3.2L78,2.8L81.2,2.8z" stroke="none"/><path d="M95.8,3L96.2,3L96.2,4.3L97.7,4.3L97.7,6L97.3,6L97.3,4.7L95.8,4.7z" stroke="none"/><path d="M15.2,12L14.8,12L14.8,8.8L16.5,8.8L16.5,9.2L15.2,9.2z" stroke="none"/><path d="M97.5,7.7L97.5,7.3L100.7,7.3L100.7,10.7L94.5,10.7L94.5,10.3L100.3,10.3L100.3,7.7z" stroke="none"/><path d="M31.7,4.5L31.3,4.5L31.3,3.2L25.5,3.2L25.5,2.8L31.7,2.8z" stroke="none"/><path d="M10.5,9.2L10.5,8.8L12.2,8.8L12.2,10.3L13.7,10.3L13.7,13.3L16.3,13.3L16.3,12L16.7,12L16.7,13.7L13.3,13.7L13.3,10.7L11.8,10.7L11.8,9.2z" stroke="none"/><path d="M91.7,7.5L91.3,7.5L91.3,6.2L85.3,6.2L85.3,4.7L84,4.7L84,4.3L85.7,4.3L85.7,5.8L91.7,5.8z" stroke="none"/><path d="M63,3.2L63,2.8L72,2.8L72,3.2z" stroke="none"/><path d="M51,12.2L51,11.8L61.5,11.8L61.5,12.2z" stroke="none"/><path d="M33,11.8L33,12.2L30.2,12.2L30.2,13.7L22.3,13.7L22.3,9L22.7,9L22.7,13.3L29.8,13.3L29.8,11.8z" stroke="none"/><path d="M77.8,10.5L78.2,10.5L78.2,12.2L76.7,12.2L76.7,13.7L65.8,13.7L65.8,12.2L64.3,12.2L64.3,10.7L60,10.7L60,10.3L64.7,10.3L64.7,11.8L66.2,11.8L66.2,13.3L76.3,13.3L76.3,11.8L77.8,11.8z" stroke="none"/><path d="M7.7,7.5L7.3,7.5L7.3,5.8L8.8,5.8L8.8,4.3L30,4.3L30,4.7L9.2,4.7L9.2,6.2L7.7,6.2z" stroke="none"/><path d="M39,5.8L39,6.2L35.8,6.2L35.8,4.7L32.8,4.7L32.8,1.7L16.7,1.7L16.7,3.2L15,3.2L15,2.8L16.3,2.8L16.3,1.3L33.2,1.3L33.2,4.3L36.2,4.3L36.2,5.8z" stroke="none"/><path d="M99.2,4.5L98.8,4.5L98.8,3.2L97.3,3.2L97.3,1.7L61.7,1.7L61.7,3L61.3,3L61.3,1.3L97.7,1.3L97.7,2.8L99.2,2.8z" stroke="none"/></svg>