<svg version="1.1" width="105" height="15" xmlns="http://www.w3.org/2000/svg"><path d="M28.3,7.3L28.3,6L28.7,6L28.7,7.7L21.2,7.7L21.2,10.5L20.8,10.5L20.8,7.7L16.7,7.7L16.7,9.2L15.2,9.2L15.2,10.7L13.5,10.7L13.5,10.3L14.8,10.3L14.8,8.8L16.3,8.8L16.3,7.3z" stroke="none"/><path d="M23.8,5.8L23.8,4.7L17.8,4.7L17.8,3.2L13.7,3.2L13.7,7.7L12,7.7L12,7.3L13.3,7.3L13.3,2.8L18.2,2.8L18.2,4.3L24.2,4.3L24.2,5.8L26.8,5.8L26.8,4.3L28.3,4.3L28.3,2.8L31.3,2.8L31.3,1.3L45.2,1.3L45.2,3L44.8,3L44.8,1.7L31.7,1.7L31.7,3.2L28.7,3.2L28.7,4.7L27.2,4.7L27.2,6.2L16.3,6.2L16.3,4.7L15,4.7L15,4.3L16.7,4.3L16.7,5.8z" stroke="none"/><path d="M82.3,2.8L82.3,1.3L96.2,1.3L96.2,4.5L95.8,4.5L95.8,1.7L82.7,1.7L82.7,2.8L84.2,2.8L84.2,4.3L85.7,4.3L85.7,6L85.3,6L85.3,4.7L83.8,4.7L83.8,3.2L82.7,3.2L82.7,5.8L84.2,5.8L84.2,7.3L92.8,7.3L92.8,5.8L96,5.8L96,6.2L93.2,6.2L93.2,7.7L83.8,7.7L83.8,6.2L82.3,6.2L82.3,3.2L76.7,3.2L76.7,4.7L73.7,4.7L73.7,6.2L70.7,6.2L70.7,7.7L66.2,7.7L66.2,9.2L56.8,9.2L56.8,7.7L55.5,7.7L55.5,7.3L57.2,7.3L57.2,8.8L65.8,8.8L65.8,7.3L70.3,7.3L70.3,5.8L73.3,5.8L73.3,4.3L76.3,4.3L76.3,2.8z" stroke="none"/><path d="M47.8,4.3L47.8,2.8L61.7,2.8L61.7,4.3L64.7,4.3L64.7,5.8L67.5,5.8L67.5,6.2L64.3,6.2L64.3,4.7L61.3,4.7L61.3,3.2L48.2,3.2L48.2,4.3L57.2,4.3L57.2,5.8L58.7,5.8L58.7,7.3L60,7.3L60,7.7L58.3,7.7L58.3,6.2L56.8,6.2L56.8,4.7L48.2,4.7L48.2,6.2L42.2,6.2L42.2,7.7L34.7,7.7L34.7,9.2L22.7,9.2L22.7,12.2L11.8,12.2L11.8,10.7L10.3,10.7L10.3,2.8L11.8,2.8L11.8,1.3L24.2,1.3L24.2,3L23.8,3L23.8,1.7L12.2,1.7L12.2,3.2L10.7,3.2L10.7,10.3L12.2,10.3L12.2,11.8L22.3,11.8L22.3,8.8L34.3,8.8L34.3,7.3L41.8,7.3L41.8,5.8L47.8,5.8L47.8,4.7L39.2,4.7L39.2,6L38.8,6L38.8,4.3z" stroke="none"/><path d="M72.2,4.5L71.8,4.5L71.8,3L72.2,3z" stroke="none"/><path d="M4.3,10.5L4.7,10.5L4.7,11.8L6,11.8L6,12.2L4.3,12.2z" stroke="none"/><path d="M95.8,10.5L96.2,10.5L96.2,12.2L94.5,12.2L94.5,11.8L95.8,11.8z" stroke="none"/><path d="M91.3,9L91.7,9L91.7,12L91.3,12z" stroke="none"/><path d="M69,10.3L69,10.7L66,10.7L66,10.3z" stroke="none"/><path d="M32.8,3L33.2,3L33.2,4.7L30,4.7L30,4.3L32.8,4.3z" stroke="none"/><path d="M65.8,3L66.2,3L66.2,4.3L69.2,4.3L69.2,6L68.8,6L68.8,4.7L65.8,4.7z" stroke="none"/><path d="M2.8,12L3.2,12L3.2,13.3L7.3,13.3L7.3,12L7.7,12L7.7,13.7L2.8,13.7z" stroke="none"/><path d="M85.5,8.8L85.5,9.2L80.8,9.2L80.8,7.7L78,7.7L78,7.3L81.2,7.3L81.2,8.8z" stroke="none"/><path d="M78,10.3L78,10.7L75.2,10.7L75.2,12.2L69,12.2L69,11.8L74.8,11.8L74.8,10.3z" stroke="none"/><path d="M81,5.8L81,6.2L76.7,6.2L76.7,7.7L73.7,7.7L73.7,10.7L72,10.7L72,10.3L73.3,10.3L73.3,7.3L76.3,7.3L76.3,5.8z" stroke="none"/><path d="M34.5,11.8L34.5,12.2L24,12.2L24,11.8z" stroke="none"/><path d="M36,9.2L36,8.8L49.3,8.8L49.3,5.8L51,5.8L51,6.2L49.7,6.2L49.7,9.2z" stroke="none"/><path d="M63,11.8L63,12.2L58.7,12.2L58.7,13.7L44.8,13.7L44.8,12L45.2,12L45.2,13.3L58.3,13.3L58.3,11.8z" stroke="none"/><path d="M90,8.8L90,9.2L88.7,9.2L88.7,10.7L79.7,10.7L79.7,12.2L76.7,12.2L76.7,13.7L65.8,13.7L65.8,12.2L64.3,12.2L64.3,10.7L55.7,10.7L55.7,12.2L54,12.2L54,11.8L55.3,11.8L55.3,10.3L64.7,10.3L64.7,11.8L66.2,11.8L66.2,13.3L76.3,13.3L76.3,11.8L79.3,11.8L79.3,10.3L88.3,10.3L88.3,8.8z" stroke="none"/><path d="M55.5,5.8L55.5,6.2L54.2,6.2L54.2,9.2L52.7,9.2L52.7,10.7L37.7,10.7L37.7,12.2L36.2,12.2L36.2,13.7L10.3,13.7L10.3,12.2L8.8,12.2L8.8,3L9.2,3L9.2,11.8L10.7,11.8L10.7,13.3L35.8,13.3L35.8,11.8L37.3,11.8L37.3,10.3L52.3,10.3L52.3,8.8L53.8,8.8L53.8,5.8z" stroke="none"/></svg>