<svg version="1.1" width="105" height="15" xmlns="http://www.w3.org/2000/svg"><path d="M35.8,10.3L35.8,9.2L21.2,9.2L21.2,10.7L18,10.7L18,10.3L20.8,10.3L20.8,8.8L36.2,8.8L36.2,10.3L60.2,10.3L60.2,12L59.8,12L59.8,10.7L30,10.7L30,10.3z" stroke="none"/><path d="M74.8,4.3L74.8,2.8L82.7,2.8L82.7,4.3L85.7,4.3L85.7,5.8L87,5.8L87,6.2L85.3,6.2L85.3,4.7L82.3,4.7L82.3,3.2L75.2,3.2L75.2,4.3L76.7,4.3L76.7,5.8L82.7,5.8L82.7,7.3L85.5,7.3L85.5,7.7L82.3,7.7L82.3,6.2L76.3,6.2L76.3,4.7L67.3,4.7L67.3,3.2L54,3.2L54,2.8L67.7,2.8L67.7,4.3z" stroke="none"/><path d="M40.3,7.3L40.3,5.8L41.8,5.8L41.8,4.3L46.7,4.3L46.7,5.8L48.2,5.8L48.2,7.3L49.7,7.3L49.7,8.8L61.5,8.8L61.5,9.2L49.3,9.2L49.3,7.7L47.8,7.7L47.8,6.2L46.3,6.2L46.3,4.7L42.2,4.7L42.2,6.2L40.7,6.2L40.7,7.3L43.3,7.3L43.3,6L43.7,6L43.7,7.7L40.7,7.7L40.7,8.8L44.8,8.8L44.8,7.5L45.2,7.5L45.2,9.2L40.3,9.2L40.3,7.7L22.5,7.7L22.5,7.3z" stroke="none"/><path d="M67.3,7.3L67.3,6.2L54.2,6.2L54.2,7.7L52.5,7.7L52.5,7.3L53.8,7.3L53.8,5.8L67.7,5.8L67.7,7.3L76.7,7.3L76.7,8.8L79.5,8.8L79.5,9.2L76.3,9.2L76.3,7.7L67.7,7.7L67.7,8.8L75.2,8.8L75.2,10.3L83.8,10.3L83.8,8.8L87,8.8L87,9.2L84.2,9.2L84.2,10.7L74.8,10.7L74.8,9.2L67.3,9.2L67.3,7.7L55.5,7.7L55.5,7.3z" stroke="none"/><path d="M5.8,4.5L6.2,4.5L6.2,6L5.8,6z" stroke="none"/><path d="M15,6.2L15,5.8L19.5,5.8L19.5,6.2z" stroke="none"/><path d="M100.5,8.8L100.5,9.2L95.8,9.2L95.8,7.5L96.2,7.5L96.2,8.8z" stroke="none"/><path d="M10.7,12L10.3,12L10.3,10.7L7.3,10.7L7.3,9.2L6,9.2L6,8.8L7.7,8.8L7.7,10.3L10.7,10.3z" stroke="none"/><path d="M40.5,2.8L40.5,3.2L34.5,3.2L34.5,2.8z" stroke="none"/><path d="M58.5,11.8L58.5,12.2L52.5,12.2L52.5,11.8z" stroke="none"/><path d="M90,6.2L90,5.8L99.2,5.8L99.2,7.5L98.8,7.5L98.8,6.2z" stroke="none"/><path d="M51.2,7.5L50.8,7.5L50.8,6.2L49.3,6.2L49.3,4.7L47.8,4.7L47.8,3.2L43.3,3.2L43.3,1.7L33.2,1.7L33.2,4.3L40.5,4.3L40.5,4.7L32.8,4.7L32.8,1.3L43.7,1.3L43.7,2.8L48.2,2.8L48.2,4.3L49.7,4.3L49.7,5.8L51.2,5.8z" stroke="none"/><path d="M15,12.2L15,11.8L27,11.8L27,12.2z" stroke="none"/><path d="M99,2.8L99,3.2L84,3.2L84,2.8z" stroke="none"/><path d="M13.3,10.5L13.7,10.5L13.7,13.3L28.3,13.3L28.3,12L28.7,12L28.7,13.7L13.3,13.7z" stroke="none"/><path d="M4.3,6L4.7,6L4.7,7.3L19.5,7.3L19.5,7.7L4.3,7.7z" stroke="none"/><path d="M19.5,8.8L19.5,9.2L12.2,9.2L12.2,13.7L4.3,13.7L4.3,10.7L3,10.7L3,10.3L4.7,10.3L4.7,13.3L11.8,13.3L11.8,8.8z" stroke="none"/><path d="M7.5,6.2L7.5,5.8L13.3,5.8L13.3,4.3L25.3,4.3L25.3,2.8L30,2.8L30,3.2L25.7,3.2L25.7,4.7L13.7,4.7L13.7,6.2z" stroke="none"/><path d="M90,4.7L90,4.3L100.3,4.3L100.3,1.7L52.7,1.7L52.7,4.3L66,4.3L66,4.7L52.3,4.7L52.3,1.3L100.7,1.3L100.7,4.7z" stroke="none"/><path d="M33,12.2L33,11.8L49.7,11.8L49.7,13.3L82.3,13.3L82.3,12L82.7,12L82.7,13.7L49.3,13.7L49.3,12.2z" stroke="none"/></svg>