<svg version="1.1" width="105" height="15" xmlns="http://www.w3.org/2000/svg"><path d="M38.8,4.3L38.8,3.2L30.2,3.2L30.2,4.7L27.2,4.7L27.2,6.2L21,6.2L21,5.8L26.8,5.8L26.8,4.3L29.8,4.3L29.8,2.8L39.2,2.8L39.2,4.3L45.2,4.3L45.2,5.8L47.8,5.8L47.8,4.3L55.3,4.3L55.3,2.8L64.5,2.8L64.5,3.2L55.7,3.2L55.7,4.7L48.2,4.7L48.2,6.2L44.8,6.2L44.8,4.7L36.2,4.7L36.2,6L35.8,6L35.8,4.3z" stroke="none"/><path d="M82.7,8.8L82.7,10.3L84.2,10.3L84.2,11.8L85.5,11.8L85.5,12.2L83.8,12.2L83.8,10.7L82.3,10.7L82.3,9.2L67.7,9.2L67.7,10.7L59.8,10.7L59.8,9.2L58.5,9.2L58.5,8.8L60.2,8.8L60.2,10.3L67.3,10.3L67.3,9.2L62.8,9.2L62.8,7.7L60,7.7L60,7.3L63.2,7.3L63.2,8.8z" stroke="none"/><path d="M14.8,5.8L14.8,4.3L16.3,4.3L16.3,3L16.7,3L16.7,4.7L15.2,4.7L15.2,5.8L18,5.8L18,6.2L15.2,6.2L15.2,7.3L27,7.3L27,7.7L14.8,7.7L14.8,6.2L8.8,6.2L8.8,4.7L3,4.7L3,4.3L9.2,4.3L9.2,5.8z" stroke="none"/><path d="M85.3,8.8L85.3,7.3L90.2,7.3L90.2,10.3L99.2,10.3L99.2,11.8L102,11.8L102,12.2L98.8,12.2L98.8,10.7L89.8,10.7L89.8,7.7L85.7,7.7L85.7,8.8L88.7,8.8L88.7,11.8L90,11.8L90,12.2L88.3,12.2L88.3,9.2L85.7,9.2L85.7,10.3L87.2,10.3L87.2,13.7L73.3,13.7L73.3,12.2L70.5,12.2L70.5,11.8L73.7,11.8L73.7,13.3L86.8,13.3L86.8,10.7L85.3,10.7L85.3,9.2L83.8,9.2L83.8,7.7L79.5,7.7L79.5,7.3L84.2,7.3L84.2,8.8z" stroke="none"/><path d="M52.5,2.8L52.5,3.2L51,3.2L51,2.8z" stroke="none"/><path d="M83.8,3L84.2,3L84.2,4.3L85.5,4.3L85.5,4.7L83.8,4.7z" stroke="none"/><path d="M54,5.8L54,6.2L52.7,6.2L52.7,7.7L51,7.7L51,7.3L52.3,7.3L52.3,5.8z" stroke="none"/><path d="M58.3,6L58.7,6L58.7,7.7L57.2,7.7L57.2,10.7L55.5,10.7L55.5,10.3L56.8,10.3L56.8,7.3L58.3,7.3z" stroke="none"/><path d="M72,3.2L72,2.8L76.7,2.8L76.7,4.3L78,4.3L78,4.7L76.3,4.7L76.3,3.2z" stroke="none"/><path d="M97.5,5.8L97.5,6.2L94.3,6.2L94.3,4.7L90,4.7L90,4.3L94.7,4.3L94.7,5.8z" stroke="none"/><path d="M7.5,5.8L7.5,6.2L1.3,6.2L1.3,2.8L15,2.8L15,3.2L1.7,3.2L1.7,5.8z" stroke="none"/><path d="M42,2.8L42,3.2L40.3,3.2L40.3,1.7L28.7,1.7L28.7,3L28.3,3L28.3,1.3L40.7,1.3L40.7,2.8z" stroke="none"/><path d="M61.5,4.7L61.5,4.3L65.8,4.3L65.8,1.7L49.7,1.7L49.7,3.2L46.7,3.2L46.7,4.5L46.3,4.5L46.3,2.8L49.3,2.8L49.3,1.3L66.2,1.3L66.2,4.7z" stroke="none"/><path d="M46.5,11.8L46.5,12.2L32.8,12.2L32.8,10.7L31.5,10.7L31.5,10.3L33.2,10.3L33.2,11.8z" stroke="none"/><path d="M10.3,9L10.7,9L10.7,10.3L12.2,10.3L12.2,11.8L25.5,11.8L25.5,12.2L11.8,12.2L11.8,10.7L10.3,10.7z" stroke="none"/><path d="M91.7,9L91.3,9L91.3,6.2L73.3,6.2L73.3,4.7L72,4.7L72,4.3L73.7,4.3L73.7,5.8L91.7,5.8z" stroke="none"/><path d="M13.5,10.7L13.5,10.3L26.8,10.3L26.8,8.8L28.3,8.8L28.3,7.3L39,7.3L39,7.7L28.7,7.7L28.7,9.2L27.2,9.2L27.2,10.7z" stroke="none"/><path d="M93,7.7L93,7.3L98.8,7.3L98.8,4.7L95.8,4.7L95.8,3.2L88.3,3.2L88.3,1.7L70.7,1.7L70.7,6.2L64.7,6.2L64.7,7.5L64.3,7.5L64.3,5.8L70.3,5.8L70.3,1.3L88.7,1.3L88.7,2.8L96.2,2.8L96.2,4.3L99.2,4.3L99.2,7.7z" stroke="none"/><path d="M12.2,9L11.8,9L11.8,7.7L9.2,7.7L9.2,11.8L10.7,11.8L10.7,13.3L47.8,13.3L47.8,10.7L46.3,10.7L46.3,9L46.7,9L46.7,10.3L48.2,10.3L48.2,13.7L10.3,13.7L10.3,12.2L8.8,12.2L8.8,7.3L12.2,7.3z" stroke="none"/><path d="M30,9.2L30,8.8L44.8,8.8L44.8,7.3L49.7,7.3L49.7,8.8L54.2,8.8L54.2,11.8L68.8,11.8L68.8,10.3L79.5,10.3L79.5,10.7L69.2,10.7L69.2,12.2L53.8,12.2L53.8,9.2L49.3,9.2L49.3,7.7L45.2,7.7L45.2,9.2z" stroke="none"/></svg>