<svg version="1.1" width="105" height="15" xmlns="http://www.w3.org/2000/svg"><path d="M85.7,10.3L85.7,11.8L99,11.8L99,12.2L85.3,12.2L85.3,10.7L81.2,10.7L81.2,12.2L71.8,12.2L71.8,10.7L69,10.7L69,10.3L72.2,10.3L72.2,11.8L80.8,11.8L80.8,10.7L74.8,10.7L74.8,9L75.2,9L75.2,10.3z" stroke="none"/><path d="M76.7,2.8L76.7,5.8L80.8,5.8L80.8,4.5L81.2,4.5L81.2,6.2L76.3,6.2L76.3,3.2L51.2,3.2L51.2,4.7L35.8,4.7L35.8,3.2L34.5,3.2L34.5,2.8L36.2,2.8L36.2,4.3L50.8,4.3L50.8,3.2L37.5,3.2L37.5,2.8z" stroke="none"/><path d="M41.8,10.3L41.8,8.8L60.2,8.8L60.2,10.5L59.8,10.5L59.8,9.2L42.2,9.2L42.2,10.3L45,10.3L45,10.7L42.2,10.7L42.2,11.8L45,11.8L45,12.2L41.8,12.2L41.8,10.7L22.3,10.7L22.3,9.2L21,9.2L21,8.8L22.7,8.8L22.7,10.3z" stroke="none"/><path d="M31.3,2.8L31.3,1.7L25.7,1.7L25.7,3.2L21.2,3.2L21.2,4.7L19.5,4.7L19.5,4.3L20.8,4.3L20.8,2.8L25.3,2.8L25.3,1.3L31.7,1.3L31.7,2.8L33.2,2.8L33.2,4.3L34.7,4.3L34.7,5.8L61.3,5.8L61.3,4.3L66,4.3L66,4.7L61.7,4.7L61.7,6.2L34.3,6.2L34.3,4.7L32.8,4.7L32.8,3.2L31.7,3.2L31.7,7.7L30.2,7.7L30.2,9.2L24,9.2L24,8.8L29.8,8.8L29.8,7.3L31.3,7.3L31.3,3.2L28.7,3.2L28.7,6.2L27.2,6.2L27.2,7.7L24,7.7L24,7.3L26.8,7.3L26.8,5.8L28.3,5.8L28.3,2.8z" stroke="none"/><path d="M46.3,10.5L46.7,10.5L46.7,12L46.3,12z" stroke="none"/><path d="M19.5,12.2L19.5,11.8L22.5,11.8L22.5,12.2z" stroke="none"/><path d="M15,11.8L15,12.2L12,12.2L12,11.8z" stroke="none"/><path d="M6,6.2L6,5.8L7.7,5.8L7.7,7.3L9.2,7.3L9.2,9L8.8,9L8.8,7.7L7.3,7.7L7.3,6.2z" stroke="none"/><path d="M37.5,7.3L37.5,7.7L32.8,7.7L32.8,6L33.2,6L33.2,7.3z" stroke="none"/><path d="M96.2,7.5L95.8,7.5L95.8,3.2L94.5,3.2L94.5,2.8L96.2,2.8z" stroke="none"/><path d="M93,9.2L93,8.8L101.8,8.8L101.8,7.5L102.2,7.5L102.2,9.2z" stroke="none"/><path d="M19.5,8.8L19.5,9.2L10.7,9.2L10.7,10.5L10.3,10.5L10.3,8.8z" stroke="none"/><path d="M6,7.3L6,7.7L4.3,7.7L4.3,4.3L9.2,4.3L9.2,5.8L15.2,5.8L15.2,7.3L16.5,7.3L16.5,7.7L14.8,7.7L14.8,6.2L8.8,6.2L8.8,4.7L4.7,4.7L4.7,7.3z" stroke="none"/><path d="M50.8,12L51.2,12L51.2,13.3L61.3,13.3L61.3,11.8L63,11.8L63,12.2L61.7,12.2L61.7,13.7L50.8,13.7z" stroke="none"/><path d="M81,3.2L81,2.8L91.7,2.8L91.7,4.3L94.5,4.3L94.5,4.7L91.3,4.7L91.3,3.2z" stroke="none"/><path d="M26.8,3L27.2,3L27.2,4.7L24.2,4.7L24.2,6.2L16.3,6.2L16.3,4.7L10.5,4.7L10.5,4.3L16.7,4.3L16.7,5.8L23.8,5.8L23.8,4.3L26.8,4.3z" stroke="none"/><path d="M100.7,4.5L100.3,4.5L100.3,3.2L98.8,3.2L98.8,1.7L79.7,1.7L79.7,4.5L79.3,4.5L79.3,1.3L99.2,1.3L99.2,2.8L100.7,2.8z" stroke="none"/><path d="M63,6.2L63,5.8L75.2,5.8L75.2,7.3L82.3,7.3L82.3,4.3L85.5,4.3L85.5,4.7L82.7,4.7L82.7,7.7L74.8,7.7L74.8,6.2z" stroke="none"/><path d="M88.5,10.7L88.5,10.3L100.7,10.3L100.7,13.7L68.8,13.7L68.8,12.2L64.3,12.2L64.3,10.7L62.8,10.7L62.8,9.2L61.3,9.2L61.3,7.7L43.5,7.7L43.5,7.3L61.7,7.3L61.7,8.8L63.2,8.8L63.2,10.3L64.7,10.3L64.7,11.8L69.2,11.8L69.2,13.3L100.3,13.3L100.3,10.7z" stroke="none"/><path d="M4.5,9.2L4.5,8.8L6.2,8.8L6.2,11.8L9.2,11.8L9.2,13.3L47.8,13.3L47.8,11.8L49.3,11.8L49.3,10.3L54.2,10.3L54.2,12L53.8,12L53.8,10.7L49.7,10.7L49.7,12.2L48.2,12.2L48.2,13.7L8.8,13.7L8.8,12.2L5.8,12.2L5.8,9.2z" stroke="none"/></svg>