<svg version="1.1" width="105" height="15" xmlns="http://www.w3.org/2000/svg"><path d="M80.8,5.8L80.8,4.3L82.5,4.3L82.5,4.7L81.2,4.7L81.2,6.2L79.7,6.2L79.7,7.3L93,7.3L93,7.7L79.3,7.7L79.3,6.2L69.2,6.2L69.2,7.5L68.8,7.5L68.8,5.8z" stroke="none"/><path d="M49.7,1.3L49.7,2.8L51.2,2.8L51.2,4.3L52.5,4.3L52.5,4.7L50.8,4.7L50.8,3.2L49.3,3.2L49.3,1.7L28.7,1.7L28.7,2.8L30.2,2.8L30.2,4.5L29.8,4.5L29.8,3.2L28.3,3.2L28.3,1.7L7.7,1.7L7.7,3.2L6.2,3.2L6.2,4.7L4.7,4.7L4.7,6.2L3,6.2L3,5.8L4.3,5.8L4.3,4.3L5.8,4.3L5.8,2.8L7.3,2.8L7.3,1.3z" stroke="none"/><path d="M73.3,8.8L73.3,7.7L70.7,7.7L70.7,9.2L54,9.2L54,8.8L70.3,8.8L70.3,7.3L73.7,7.3L73.7,8.8L79.7,8.8L79.7,10.5L79.3,10.5L79.3,9.2L73.7,9.2L73.7,10.3L75.2,10.3L75.2,12L74.8,12L74.8,10.7L73.3,10.7L73.3,9.2L72.2,9.2L72.2,11.8L73.7,11.8L73.7,13.3L83.8,13.3L83.8,11.8L85.3,11.8L85.3,10.5L85.7,10.5L85.7,12.2L84.2,12.2L84.2,13.7L73.3,13.7L73.3,12.2L71.8,12.2L71.8,8.8z" stroke="none"/><path d="M22.3,10.3L22.3,9.2L6.2,9.2L6.2,12.2L3,12.2L3,11.8L5.8,11.8L5.8,8.8L22.7,8.8L22.7,10.3L39.2,10.3L39.2,12L38.8,12L38.8,10.7L22.7,10.7L22.7,11.8L36.2,11.8L36.2,13.3L40.3,13.3L40.3,7.3L42,7.3L42,7.7L40.7,7.7L40.7,13.7L35.8,13.7L35.8,12.2L22.3,12.2L22.3,10.7L16.7,10.7L16.7,12.2L10.5,12.2L10.5,11.8L16.3,11.8L16.3,10.3z" stroke="none"/><path d="M28.7,9L28.3,9L28.3,7.3L30,7.3L30,7.7L28.7,7.7z" stroke="none"/><path d="M39,3.2L39,2.8L42,2.8L42,3.2z" stroke="none"/><path d="M25.3,3L25.7,3L25.7,6L25.3,6z" stroke="none"/><path d="M12,3.2L12,2.8L13.7,2.8L13.7,4.3L15,4.3L15,4.7L13.3,4.7L13.3,3.2z" stroke="none"/><path d="M13.5,10.3L13.5,10.7L9,10.7L9,10.3z" stroke="none"/><path d="M99.2,10.5L98.8,10.5L98.8,8.8L100.3,8.8L100.3,7.3L101.8,7.3L101.8,6L102.2,6L102.2,7.7L100.7,7.7L100.7,9.2L99.2,9.2z" stroke="none"/><path d="M96,2.8L96,3.2L90.2,3.2L90.2,4.5L89.8,4.5L89.8,2.8z" stroke="none"/><path d="M10.5,7.3L10.5,7.7L4.7,7.7L4.7,9.2L3,9.2L3,8.8L4.3,8.8L4.3,7.3z" stroke="none"/><path d="M13.5,7.7L13.5,7.3L22.5,7.3L22.5,7.7z" stroke="none"/><path d="M73.5,3.2L73.5,2.8L74.8,2.8L74.8,1.3L82.7,1.3L82.7,2.8L84.2,2.8L84.2,6.2L82.5,6.2L82.5,5.8L83.8,5.8L83.8,3.2L82.3,3.2L82.3,1.7L75.2,1.7L75.2,3.2z" stroke="none"/><path d="M90,12.2L90,11.8L91.7,11.8L91.7,13.3L95.8,13.3L95.8,11.8L100.3,11.8L100.3,10.5L100.7,10.5L100.7,12.2L96.2,12.2L96.2,13.7L91.3,13.7L91.3,12.2z" stroke="none"/><path d="M94.5,11.8L94.5,12.2L92.8,12.2L92.8,10.7L86.8,10.7L86.8,9.2L81.2,9.2L81.2,12.2L77.8,12.2L77.8,10.5L78.2,10.5L78.2,11.8L80.8,11.8L80.8,8.8L87.2,8.8L87.2,10.3L93.2,10.3L93.2,11.8z" stroke="none"/><path d="M7.5,6.2L7.5,5.8L22.3,5.8L22.3,4.3L23.8,4.3L23.8,3L24.2,3L24.2,4.7L22.7,4.7L22.7,6.2z" stroke="none"/><path d="M55.5,7.3L55.5,7.7L44.8,7.7L44.8,6.2L36.2,6.2L36.2,7.7L33.2,7.7L33.2,9L32.8,9L32.8,7.3L35.8,7.3L35.8,5.8L45.2,5.8L45.2,7.3z" stroke="none"/><path d="M54,4.7L54,4.3L58.3,4.3L58.3,2.8L72.2,2.8L72.2,4.3L77.8,4.3L77.8,2.8L79.5,2.8L79.5,3.2L78.2,3.2L78.2,4.7L71.8,4.7L71.8,3.2L58.7,3.2L58.7,4.7z" stroke="none"/><path d="M28.3,4.5L28.7,4.5L28.7,5.8L34.3,5.8L34.3,4.3L46.7,4.3L46.7,5.8L59.8,5.8L59.8,4.5L60.2,4.5L60.2,6.2L46.3,6.2L46.3,4.7L34.7,4.7L34.7,6.2L28.3,6.2z" stroke="none"/></svg>