<svg version="1.1" width="105" height="15" xmlns="http://www.w3.org/2000/svg"><path d="M82.3,4.3L82.3,2.8L93.2,2.8L93.2,4.5L92.8,4.5L92.8,3.2L82.7,3.2L82.7,4.3L85.7,4.3L85.7,6L85.3,6L85.3,4.7L81.2,4.7L81.2,6.2L70.7,6.2L70.7,7.5L70.3,7.5L70.3,5.8L80.8,5.8L80.8,4.3z" stroke="none"/><path d="M69.2,7.3L69.2,8.8L75.2,8.8L75.2,10.3L82.5,10.3L82.5,10.7L74.8,10.7L74.8,9.2L68.8,9.2L68.8,7.7L67.7,7.7L67.7,9.2L61.5,9.2L61.5,8.8L67.3,8.8L67.3,7.7L64.3,7.7L64.3,6.2L63,6.2L63,5.8L64.7,5.8L64.7,7.3z" stroke="none"/><path d="M32.8,2.8L32.8,1.3L51.2,1.3L51.2,2.8L54.2,2.8L54.2,4.5L53.8,4.5L53.8,3.2L50.8,3.2L50.8,1.7L33.2,1.7L33.2,2.8L36,2.8L36,3.2L33.2,3.2L33.2,4.3L46.3,4.3L46.3,3L46.7,3L46.7,4.7L32.8,4.7L32.8,3.2L31.3,3.2L31.3,1.7L6.2,1.7L6.2,3L5.8,3L5.8,1.3L31.7,1.3L31.7,2.8z" stroke="none"/><path d="M61.3,2.8L61.3,1.3L72.2,1.3L72.2,3L71.8,3L71.8,1.7L61.7,1.7L61.7,2.8L64.7,2.8L64.7,4.5L64.3,4.5L64.3,3.2L61.7,3.2L61.7,6.2L60.2,6.2L60.2,10.3L70.7,10.3L70.7,11.8L85.3,11.8L85.3,10.3L89.8,10.3L89.8,8.8L92.8,8.8L92.8,5.8L94.3,5.8L94.3,1.7L81.2,1.7L81.2,3.2L79.7,3.2L79.7,4.5L79.3,4.5L79.3,2.8L80.8,2.8L80.8,1.3L94.7,1.3L94.7,6.2L93.2,6.2L93.2,9.2L90.2,9.2L90.2,10.7L85.7,10.7L85.7,12.2L70.3,12.2L70.3,10.7L59.8,10.7L59.8,5.8L61.3,5.8L61.3,3.2L58.7,3.2L58.7,6.2L30.2,6.2L30.2,7.5L29.8,7.5L29.8,5.8L58.3,5.8L58.3,2.8z" stroke="none"/><path d="M42,2.8L42,3.2L40.5,3.2L40.5,2.8z" stroke="none"/><path d="M69,4.3L69,4.7L66,4.7L66,4.3z" stroke="none"/><path d="M4.7,6L4.3,6L4.3,3.2L3,3.2L3,2.8L4.7,2.8z" stroke="none"/><path d="M43.5,10.7L43.5,10.3L46.3,10.3L46.3,8.8L48,8.8L48,9.2L46.7,9.2L46.7,10.7z" stroke="none"/><path d="M86.8,6L87.2,6L87.2,7.7L82.5,7.7L82.5,7.3L86.8,7.3z" stroke="none"/><path d="M21.2,12L20.8,12L20.8,8.8L25.3,8.8L25.3,7.5L25.7,7.5L25.7,9.2L21.2,9.2z" stroke="none"/><path d="M9,3.2L9,2.8L16.5,2.8L16.5,3.2z" stroke="none"/><path d="M19.5,4.3L19.5,4.7L13.7,4.7L13.7,6.2L12,6.2L12,5.8L13.3,5.8L13.3,4.3z" stroke="none"/><path d="M30,2.8L30,3.2L21,3.2L21,2.8z" stroke="none"/><path d="M96,10.3L96,10.7L91.7,10.7L91.7,12.2L87,12.2L87,11.8L91.3,11.8L91.3,10.3z" stroke="none"/><path d="M27,11.8L27,12.2L24.2,12.2L24.2,13.7L17.8,13.7L17.8,10.7L16.3,10.7L16.3,9L16.7,9L16.7,10.3L18.2,10.3L18.2,13.3L23.8,13.3L23.8,11.8z" stroke="none"/><path d="M27.2,10.5L26.8,10.5L26.8,6.2L16.5,6.2L16.5,5.8L27.2,5.8z" stroke="none"/><path d="M19.7,12L19.3,12L19.3,9.2L17.8,9.2L17.8,7.7L9,7.7L9,7.3L18.2,7.3L18.2,8.8L19.7,8.8z" stroke="none"/><path d="M76.5,9.2L76.5,8.8L88.3,8.8L88.3,4.5L88.7,4.5L88.7,9.2z" stroke="none"/><path d="M37.5,8.8L37.5,9.2L36.2,9.2L36.2,10.7L28.3,10.7L28.3,4.7L22.5,4.7L22.5,4.3L28.7,4.3L28.7,10.3L35.8,10.3L35.8,8.8z" stroke="none"/><path d="M69,11.8L69,12.2L41.8,12.2L41.8,9.2L38.8,9.2L38.8,7.7L34.7,7.7L34.7,9L34.3,9L34.3,7.3L39.2,7.3L39.2,8.8L42.2,8.8L42.2,11.8z" stroke="none"/></svg>