<svg version="1.1" width="105" height="15" xmlns="http://www.w3.org/2000/svg"><path d="M79.3,8.8L79.3,7.7L77.8,7.7L77.8,6.2L76.5,6.2L76.5,5.8L78.2,5.8L78.2,7.3L79.7,7.3L79.7,8.8L81.2,8.8L81.2,10.3L82.7,10.3L82.7,11.8L100.3,11.8L100.3,10.3L102,10.3L102,10.7L100.7,10.7L100.7,12.2L82.3,12.2L82.3,10.7L80.8,10.7L80.8,9.2L73.7,9.2L73.7,10.7L72,10.7L72,10.3L73.3,10.3L73.3,8.8z" stroke="none"/><path d="M58.3,4.3L58.3,3.2L51.2,3.2L51.2,4.7L48,4.7L48,4.3L50.8,4.3L50.8,2.8L58.7,2.8L58.7,4.3L71.8,4.3L71.8,2.8L76.5,2.8L76.5,3.2L72.2,3.2L72.2,4.7L54.2,4.7L54.2,6L53.8,6L53.8,4.3z" stroke="none"/><path d="M25.3,7.3L25.3,5.8L31.3,5.8L31.3,4.3L45,4.3L45,4.7L31.7,4.7L31.7,6.2L25.7,6.2L25.7,7.3L30.2,7.3L30.2,9L29.8,9L29.8,7.7L25.7,7.7L25.7,9.2L21.2,9.2L21.2,10.7L16.7,10.7L16.7,12.2L13.3,12.2L13.3,9L13.7,9L13.7,11.8L16.3,11.8L16.3,10.3L20.8,10.3L20.8,8.8L25.3,8.8L25.3,7.7L15,7.7L15,7.3z" stroke="none"/><path d="M50.8,7.3L50.8,6.2L46.3,6.2L46.3,3.2L25.7,3.2L25.7,4.7L24,4.7L24,4.3L25.3,4.3L25.3,2.8L46.7,2.8L46.7,5.8L51.2,5.8L51.2,7.3L66.2,7.3L66.2,8.8L67.5,8.8L67.5,9.2L65.8,9.2L65.8,7.7L51.2,7.7L51.2,8.8L64.7,8.8L64.7,10.3L68.8,10.3L68.8,9L69.2,9L69.2,10.7L64.3,10.7L64.3,9.2L50.8,9.2L50.8,7.7L43.7,7.7L43.7,9L43.3,9L43.3,7.3z" stroke="none"/><path d="M84,10.7L84,10.3L85.5,10.3L85.5,10.7z" stroke="none"/><path d="M15.2,10.5L14.8,10.5L14.8,8.8L16.5,8.8L16.5,9.2L15.2,9.2z" stroke="none"/><path d="M85.5,7.3L85.5,7.7L82.5,7.7L82.5,7.3z" stroke="none"/><path d="M75,10.7L75,10.3L76.7,10.3L76.7,11.8L78,11.8L78,12.2L76.3,12.2L76.3,10.7z" stroke="none"/><path d="M8.8,4.5L9.2,4.5L9.2,7.3L10.7,7.3L10.7,9L10.3,9L10.3,7.7L8.8,7.7z" stroke="none"/><path d="M5.8,4.5L6.2,4.5L6.2,7.3L7.7,7.3L7.7,9L7.3,9L7.3,7.7L5.8,7.7z" stroke="none"/><path d="M83.8,3L84.2,3L84.2,4.3L89.8,4.3L89.8,3L90.2,3L90.2,4.7L83.8,4.7z" stroke="none"/><path d="M40.5,10.3L40.5,10.7L35.8,10.7L35.8,9.2L34.5,9.2L34.5,8.8L36.2,8.8L36.2,10.3z" stroke="none"/><path d="M34.5,6.2L34.5,5.8L37.7,5.8L37.7,7.3L40.7,7.3L40.7,9L40.3,9L40.3,7.7L37.3,7.7L37.3,6.2z" stroke="none"/><path d="M94.5,3.2L94.5,2.8L96.2,2.8L96.2,4.3L99.2,4.3L99.2,5.8L100.7,5.8L100.7,7.5L100.3,7.5L100.3,6.2L98.8,6.2L98.8,4.7L95.8,4.7L95.8,3.2z" stroke="none"/><path d="M85.5,3.2L85.5,2.8L88.3,2.8L88.3,1.3L97.7,1.3L97.7,3L97.3,3L97.3,1.7L88.7,1.7L88.7,3.2z" stroke="none"/><path d="M39,12.2L39,11.8L53.8,11.8L53.8,10.3L55.5,10.3L55.5,10.7L54.2,10.7L54.2,12.2z" stroke="none"/><path d="M99,7.3L99,7.7L87.2,7.7L87.2,9.2L82.5,9.2L82.5,8.8L86.8,8.8L86.8,7.3z" stroke="none"/><path d="M3,10.7L3,10.3L11.8,10.3L11.8,7.3L13.3,7.3L13.3,5.8L22.5,5.8L22.5,6.2L13.7,6.2L13.7,7.7L12.2,7.7L12.2,10.7z" stroke="none"/><path d="M37.3,12L37.7,12L37.7,13.3L67.3,13.3L67.3,11.8L70.3,11.8L70.3,8.8L71.8,8.8L71.8,7.3L76.5,7.3L76.5,7.7L72.2,7.7L72.2,9.2L70.7,9.2L70.7,12.2L67.7,12.2L67.7,13.7L37.3,13.7z" stroke="none"/><path d="M28.5,8.8L28.5,9.2L27.2,9.2L27.2,10.7L24.2,10.7L24.2,12.2L18.2,12.2L18.2,13.7L1.3,13.7L1.3,7.3L2.8,7.3L2.8,4.3L4.3,4.3L4.3,2.8L23.8,2.8L23.8,1.3L78.2,1.3L78.2,4.7L73.5,4.7L73.5,4.3L77.8,4.3L77.8,1.7L24.2,1.7L24.2,3.2L4.7,3.2L4.7,4.7L3.2,4.7L3.2,7.7L1.7,7.7L1.7,13.3L17.8,13.3L17.8,11.8L23.8,11.8L23.8,10.3L26.8,10.3L26.8,8.8z" stroke="none"/></svg>