<svg version="1.1" width="105" height="15" xmlns="http://www.w3.org/2000/svg"><path d="M71.8,8.8L71.8,5.8L73.3,5.8L73.3,4.5L73.7,4.5L73.7,6.2L72.2,6.2L72.2,8.8L75,8.8L75,9.2L70.3,9.2L70.3,7.7L68.8,7.7L68.8,4.5L69.2,4.5L69.2,7.3L70.7,7.3L70.7,8.8z" stroke="none"/><path d="M98.8,10.3L98.8,8.8L100.3,8.8L100.3,7.3L102,7.3L102,7.7L100.7,7.7L100.7,9.2L99.2,9.2L99.2,10.7L85.7,10.7L85.7,13.7L74.8,13.7L74.8,12.2L72,12.2L72,11.8L75.2,11.8L75.2,13.3L85.3,13.3L85.3,10.7L84.2,10.7L84.2,12.2L78,12.2L78,11.8L83.8,11.8L83.8,10.3z" stroke="none"/><path d="M34.3,2.8L34.3,1.3L37.7,1.3L37.7,2.8L40.7,2.8L40.7,4.3L42.2,4.3L42.2,7.3L49.5,7.3L49.5,7.7L41.8,7.7L41.8,4.7L40.3,4.7L40.3,3.2L37.3,3.2L37.3,1.7L34.7,1.7L34.7,2.8L36.2,2.8L36.2,6L35.8,6L35.8,3.2L34.7,3.2L34.7,6L34.3,6L34.3,3.2L21.2,3.2L21.2,6.2L19.5,6.2L19.5,5.8L20.8,5.8L20.8,2.8z" stroke="none"/><path d="M14.8,8.8L14.8,7.7L9.2,7.7L9.2,9.2L7.7,9.2L7.7,10.5L7.3,10.5L7.3,8.8L8.8,8.8L8.8,7.3L15.2,7.3L15.2,8.8L16.3,8.8L16.3,6.2L7.7,6.2L7.7,7.5L7.3,7.5L7.3,5.8L16.7,5.8L16.7,9.2L15.2,9.2L15.2,10.3L31.3,10.3L31.3,8.8L34.3,8.8L34.3,7.5L34.7,7.5L34.7,9.2L31.7,9.2L31.7,10.7L14.8,10.7L14.8,9.2L10.7,9.2L10.7,10.7L9,10.7L9,10.3L10.3,10.3L10.3,8.8z" stroke="none"/><path d="M91.3,4.5L91.7,4.5L91.7,7.5L91.3,7.5z" stroke="none"/><path d="M22.5,6.2L22.5,5.8L25.5,5.8L25.5,6.2z" stroke="none"/><path d="M96.2,9L95.8,9L95.8,6.2L94.5,6.2L94.5,5.8L96.2,5.8z" stroke="none"/><path d="M29.8,4.5L30.2,4.5L30.2,9L29.8,9z" stroke="none"/><path d="M87,4.3L87,4.7L82.7,4.7L82.7,6L82.3,6L82.3,4.3z" stroke="none"/><path d="M61.5,3.2L61.5,2.8L66.2,2.8L66.2,4.3L67.5,4.3L67.5,4.7L65.8,4.7L65.8,3.2z" stroke="none"/><path d="M63,4.3L63,4.7L60.2,4.7L60.2,6.2L58.7,6.2L58.7,7.7L57,7.7L57,7.3L58.3,7.3L58.3,5.8L59.8,5.8L59.8,4.3z" stroke="none"/><path d="M2.8,9L3.2,9L3.2,10.3L6.2,10.3L6.2,11.8L10.5,11.8L10.5,12.2L5.8,12.2L5.8,10.7L2.8,10.7z" stroke="none"/><path d="M79.7,9L79.3,9L79.3,3.2L72.2,3.2L72.2,4.7L70.7,4.7L70.7,6L70.3,6L70.3,4.3L71.8,4.3L71.8,2.8L79.7,2.8z" stroke="none"/><path d="M37.5,7.7L37.5,7.3L40.7,7.3L40.7,8.8L42.2,8.8L42.2,11.8L46.5,11.8L46.5,12.2L41.8,12.2L41.8,9.2L40.3,9.2L40.3,7.7z" stroke="none"/><path d="M19.5,12.2L19.5,11.8L34.3,11.8L34.3,10.3L35.8,10.3L35.8,7.5L36.2,7.5L36.2,10.7L34.7,10.7L34.7,12.2z" stroke="none"/><path d="M10.5,4.7L10.5,4.3L18.2,4.3L18.2,7.3L26.8,7.3L26.8,4.3L28.5,4.3L28.5,4.7L27.2,4.7L27.2,7.7L17.8,7.7L17.8,4.7z" stroke="none"/><path d="M62.8,6L63.2,6L63.2,9.2L55.3,9.2L55.3,5.8L56.8,5.8L56.8,1.3L81.2,1.3L81.2,9L80.8,9L80.8,1.7L57.2,1.7L57.2,6.2L55.7,6.2L55.7,8.8L62.8,8.8z" stroke="none"/><path d="M102,5.8L102,6.2L97.3,6.2L97.3,4.7L93.2,4.7L93.2,9.2L82.7,9.2L82.7,10.5L82.3,10.5L82.3,8.8L92.8,8.8L92.8,4.3L97.7,4.3L97.7,5.8z" stroke="none"/><path d="M55.5,12.2L55.5,11.8L70.3,11.8L70.3,10.3L81,10.3L81,10.7L70.7,10.7L70.7,12.2z" stroke="none"/><path d="M12,10.7L12,10.3L13.7,10.3L13.7,11.8L18.2,11.8L18.2,13.3L52.3,13.3L52.3,11.8L53.8,11.8L53.8,10.3L57,10.3L57,10.7L54.2,10.7L54.2,12.2L52.7,12.2L52.7,13.7L17.8,13.7L17.8,12.2L13.3,12.2L13.3,10.7z" stroke="none"/></svg>