<svg version="1.1" width="105" height="15" xmlns="http://www.w3.org/2000/svg"><path d="M97.5,4.3L97.5,4.7L93.2,4.7L93.2,5.8L101.8,5.8L101.8,4.5L102.2,4.5L102.2,6.2L92.8,6.2L92.8,4.7L88.3,4.7L88.3,3.2L79.7,3.2L79.7,4.5L79.3,4.5L79.3,2.8L88.7,2.8L88.7,4.3z" stroke="none"/><path d="M67.5,11.8L67.5,12.2L52.7,12.2L52.7,13.7L44.8,13.7L44.8,12L45.2,12L45.2,13.3L52.3,13.3L52.3,12.2L50.8,12.2L50.8,10.7L49.3,10.7L49.3,9.2L48,9.2L48,8.8L49.7,8.8L49.7,10.3L51.2,10.3L51.2,11.8z" stroke="none"/><path d="M31.3,2.8L31.3,1.3L49.7,1.3L49.7,2.8L51,2.8L51,3.2L49.3,3.2L49.3,1.7L31.7,1.7L31.7,2.8L34.5,2.8L34.5,3.2L31.7,3.2L31.7,4.3L40.5,4.3L40.5,4.7L31.3,4.7L31.3,3.2L10.5,3.2L10.5,2.8z" stroke="none"/><path d="M61.3,7.3L61.3,5.8L62.8,5.8L62.8,4.3L69.2,4.3L69.2,5.8L70.7,5.8L70.7,10.5L70.3,10.5L70.3,6.2L68.8,6.2L68.8,4.7L63.2,4.7L63.2,6.2L61.7,6.2L61.7,7.3L64.5,7.3L64.5,7.7L61.7,7.7L61.7,8.8L68.8,8.8L68.8,7.5L69.2,7.5L69.2,9.2L61.3,9.2L61.3,7.7L54.2,7.7L54.2,9.2L52.5,9.2L52.5,8.8L53.8,8.8L53.8,7.3z" stroke="none"/><path d="M66,5.8L66,6.2L64.5,6.2L64.5,5.8z" stroke="none"/><path d="M19.5,10.7L19.5,10.3L20.8,10.3L20.8,8.8L22.5,8.8L22.5,9.2L21.2,9.2L21.2,10.7z" stroke="none"/><path d="M102,11.8L102,12.2L97.5,12.2L97.5,11.8z" stroke="none"/><path d="M12,9.2L12,8.8L13.3,8.8L13.3,7.3L16.7,7.3L16.7,9L16.3,9L16.3,7.7L13.7,7.7L13.7,9.2z" stroke="none"/><path d="M14.8,9L15.2,9L15.2,10.3L17.8,10.3L17.8,4.7L16.5,4.7L16.5,4.3L18.2,4.3L18.2,10.7L14.8,10.7z" stroke="none"/><path d="M83.8,4.5L84.2,4.5L84.2,5.8L85.7,5.8L85.7,7.3L88.7,7.3L88.7,9L88.3,9L88.3,7.7L85.3,7.7L85.3,6.2L83.8,6.2z" stroke="none"/><path d="M78,9.2L78,8.8L87.2,8.8L87.2,10.3L89.8,10.3L89.8,7.5L90.2,7.5L90.2,10.7L86.8,10.7L86.8,9.2z" stroke="none"/><path d="M33,10.7L33,10.3L46.7,10.3L46.7,11.8L49.5,11.8L49.5,12.2L46.3,12.2L46.3,10.7z" stroke="none"/><path d="M82.3,4.5L82.7,4.5L82.7,6.2L77.8,6.2L77.8,1.3L97.7,1.3L97.7,2.8L99.2,2.8L99.2,4.3L100.5,4.3L100.5,4.7L98.8,4.7L98.8,3.2L97.3,3.2L97.3,1.7L78.2,1.7L78.2,5.8L82.3,5.8z" stroke="none"/><path d="M97.5,8.8L97.5,9.2L91.7,9.2L91.7,12.2L80.8,12.2L80.8,10.7L74.8,10.7L74.8,7.5L75.2,7.5L75.2,10.3L81.2,10.3L81.2,11.8L91.3,11.8L91.3,8.8z" stroke="none"/><path d="M60,2.8L60,3.2L52.7,3.2L52.7,4.7L42.2,4.7L42.2,6.2L36,6.2L36,5.8L41.8,5.8L41.8,4.3L52.3,4.3L52.3,2.8z" stroke="none"/><path d="M49.5,6.2L49.5,5.8L58.3,5.8L58.3,4.3L61.3,4.3L61.3,2.8L73.7,2.8L73.7,4.3L75.2,4.3L75.2,5.8L76.5,5.8L76.5,6.2L74.8,6.2L74.8,4.7L73.3,4.7L73.3,3.2L61.7,3.2L61.7,4.7L58.7,4.7L58.7,6.2z" stroke="none"/><path d="M52.5,7.3L52.5,7.7L47.8,7.7L47.8,6.2L43.7,6.2L43.7,7.7L22.5,7.7L22.5,7.3L43.3,7.3L43.3,5.8L48.2,5.8L48.2,7.3z" stroke="none"/><path d="M87,6.2L87,5.8L91.7,5.8L91.7,7.3L99.2,7.3L99.2,10.7L94.7,10.7L94.7,13.7L70.3,13.7L70.3,12.2L68.8,12.2L68.8,10.7L57,10.7L57,10.3L69.2,10.3L69.2,11.8L70.7,11.8L70.7,13.3L94.3,13.3L94.3,10.3L98.8,10.3L98.8,7.7L91.3,7.7L91.3,6.2z" stroke="none"/><path d="M7.5,9.2L7.5,8.8L9.2,8.8L9.2,10.3L13.7,10.3L13.7,11.8L31.3,11.8L31.3,8.8L44.8,8.8L44.8,7.3L46.5,7.3L46.5,7.7L45.2,7.7L45.2,9.2L31.7,9.2L31.7,12.2L13.3,12.2L13.3,10.7L8.8,10.7L8.8,9.2z" stroke="none"/><path d="M3,12.2L3,11.8L7.7,11.8L7.7,13.3L37.3,13.3L37.3,11.8L43.5,11.8L43.5,12.2L37.7,12.2L37.7,13.7L7.3,13.7L7.3,12.2z" stroke="none"/></svg>