<svg version="1.1" width="105" height="15" xmlns="http://www.w3.org/2000/svg"><path d="M91.3,11.8L91.3,10.7L81.2,10.7L81.2,12L80.8,12L80.8,10.3L91.7,10.3L91.7,11.8L102,11.8L102,12.2L88.5,12.2L88.5,11.8z" stroke="none"/><path d="M61.5,2.8L61.5,3.2L51.2,3.2L51.2,4.3L62.8,4.3L62.8,3L63.2,3L63.2,4.7L50.8,4.7L50.8,3.2L33.2,3.2L33.2,4.7L31.5,4.7L31.5,4.3L32.8,4.3L32.8,2.8z" stroke="none"/><path d="M28.3,4.3L28.3,3.2L25.3,3.2L25.3,1.7L19.7,1.7L19.7,4.7L18.2,4.7L18.2,9L17.8,9L17.8,4.3L19.3,4.3L19.3,1.3L25.7,1.3L25.7,2.8L28.7,2.8L28.7,4.3L29.8,4.3L29.8,2.8L31.3,2.8L31.3,1.3L64.7,1.3L64.7,6.2L60.2,6.2L60.2,9.2L55.5,9.2L55.5,8.8L59.8,8.8L59.8,5.8L64.3,5.8L64.3,1.7L31.7,1.7L31.7,3.2L30.2,3.2L30.2,4.7L28.7,4.7L28.7,5.8L30.2,5.8L30.2,7.5L29.8,7.5L29.8,6.2L28.3,6.2L28.3,4.7L24.2,4.7L24.2,6.2L19.5,6.2L19.5,5.8L23.8,5.8L23.8,4.3z" stroke="none"/><path d="M80.8,5.8L80.8,4.7L76.7,4.7L76.7,6.2L75.2,6.2L75.2,7.5L74.8,7.5L74.8,5.8L76.3,5.8L76.3,4.3L81.2,4.3L81.2,5.8L82.3,5.8L82.3,3.2L72,3.2L72,2.8L82.7,2.8L82.7,6.2L81.2,6.2L81.2,7.3L98.8,7.3L98.8,5.8L100.5,5.8L100.5,6.2L99.2,6.2L99.2,7.7L80.8,7.7L80.8,6.2L78.2,6.2L78.2,7.7L76.5,7.7L76.5,7.3L77.8,7.3L77.8,5.8z" stroke="none"/><path d="M67.5,4.3L67.5,4.7L66,4.7L66,4.3z" stroke="none"/><path d="M32.8,7.5L33.2,7.5L33.2,9.2L31.5,9.2L31.5,8.8L32.8,8.8z" stroke="none"/><path d="M20.8,3L21.2,3L21.2,4.3L22.5,4.3L22.5,4.7L20.8,4.7z" stroke="none"/><path d="M37.3,9L37.7,9L37.7,12L37.3,12z" stroke="none"/><path d="M53.8,6L54.2,6L54.2,9.2L52.5,9.2L52.5,8.8L53.8,8.8z" stroke="none"/><path d="M28.7,12L28.3,12L28.3,10.7L25.3,10.7L25.3,9L25.7,9L25.7,10.3L28.7,10.3z" stroke="none"/><path d="M16.5,4.3L16.5,4.7L13.3,4.7L13.3,3.2L12,3.2L12,2.8L13.7,2.8L13.7,4.3z" stroke="none"/><path d="M51.2,12L50.8,12L50.8,9.2L46.3,9.2L46.3,7.7L43.5,7.7L43.5,7.3L46.7,7.3L46.7,8.8L51.2,8.8z" stroke="none"/><path d="M40.5,12.2L40.5,11.8L47.8,11.8L47.8,10.3L49.5,10.3L49.5,10.7L48.2,10.7L48.2,12.2z" stroke="none"/><path d="M19.5,12.2L19.5,11.8L27.2,11.8L27.2,13.3L31.3,13.3L31.3,12L31.7,12L31.7,13.7L26.8,13.7L26.8,12.2z" stroke="none"/><path d="M16.5,11.8L16.5,12.2L4.5,12.2L4.5,11.8z" stroke="none"/><path d="M91.7,6L91.3,6L91.3,4.7L88.3,4.7L88.3,3.2L86.8,3.2L86.8,1.7L70.7,1.7L70.7,5.8L72.2,5.8L72.2,7.3L73.7,7.3L73.7,8.8L79.5,8.8L79.5,9.2L73.3,9.2L73.3,7.7L71.8,7.7L71.8,6.2L70.3,6.2L70.3,1.3L87.2,1.3L87.2,2.8L88.7,2.8L88.7,4.3L91.7,4.3z" stroke="none"/><path d="M96,4.7L96,4.3L102.2,4.3L102.2,7.7L100.7,7.7L100.7,9.2L81,9.2L81,8.8L100.3,8.8L100.3,7.3L101.8,7.3L101.8,4.7z" stroke="none"/><path d="M69,11.8L69,12.2L52.7,12.2L52.7,13.7L38.8,13.7L38.8,10.5L39.2,10.5L39.2,13.3L52.3,13.3L52.3,11.8z" stroke="none"/><path d="M94.7,6L94.3,6L94.3,2.8L103.7,2.8L103.7,13.7L73.3,13.7L73.3,12.2L70.3,12.2L70.3,10.7L61.5,10.7L61.5,10.3L70.7,10.3L70.7,11.8L73.7,11.8L73.7,13.3L103.3,13.3L103.3,3.2L94.7,3.2z" stroke="none"/><path d="M7.5,10.7L7.5,10.3L23.8,10.3L23.8,7.3L28.7,7.3L28.7,8.8L30.2,8.8L30.2,10.3L34.3,10.3L34.3,8.8L35.8,8.8L35.8,7.3L40.3,7.3L40.3,5.8L49.7,5.8L49.7,7.3L51,7.3L51,7.7L49.3,7.7L49.3,6.2L40.7,6.2L40.7,7.7L36.2,7.7L36.2,9.2L34.7,9.2L34.7,10.7L29.8,10.7L29.8,9.2L28.3,9.2L28.3,7.7L24.2,7.7L24.2,10.7z" stroke="none"/></svg>