<svg version="1.1" width="105" height="15" xmlns="http://www.w3.org/2000/svg"><path d="M85.5,11.8L85.5,12.2L67.7,12.2L67.7,13.7L46.3,13.7L46.3,12.2L45,12.2L45,11.8L46.7,11.8L46.7,13.3L67.3,13.3L67.3,12.2L64.5,12.2L64.5,11.8z" stroke="none"/><path d="M68.8,4.3L68.8,3.2L58.5,3.2L58.5,2.8L69.2,2.8L69.2,4.3L87.2,4.3L87.2,6L86.8,6L86.8,4.7L63,4.7L63,4.3z" stroke="none"/><path d="M67.3,7.3L67.3,5.8L82.7,5.8L82.7,7.3L84.2,7.3L84.2,8.8L87,8.8L87,9.2L83.8,9.2L83.8,7.7L82.3,7.7L82.3,6.2L67.7,6.2L67.7,7.3L73.5,7.3L73.5,7.7L67.7,7.7L67.7,9.2L55.3,9.2L55.3,7.7L51,7.7L51,7.3L55.7,7.3L55.7,8.8L67.3,8.8L67.3,7.7L60,7.7L60,7.3z" stroke="none"/><path d="M40.3,7.3L40.3,5.8L43.3,5.8L43.3,4.3L48.2,4.3L48.2,5.8L49.7,5.8L49.7,8.8L54.2,8.8L54.2,10.3L55.5,10.3L55.5,10.7L53.8,10.7L53.8,9.2L49.3,9.2L49.3,6.2L47.8,6.2L47.8,4.7L43.7,4.7L43.7,6.2L40.7,6.2L40.7,7.3L44.8,7.3L44.8,5.8L46.5,5.8L46.5,6.2L45.2,6.2L45.2,7.7L40.7,7.7L40.7,8.8L48.2,8.8L48.2,10.5L47.8,10.5L47.8,9.2L40.3,9.2L40.3,7.7L16.3,7.7L16.3,6.2L15,6.2L15,5.8L16.7,5.8L16.7,7.3z" stroke="none"/><path d="M25.5,2.8L25.5,3.2L24,3.2L24,2.8z" stroke="none"/><path d="M31.5,12.2L31.5,11.8L33,11.8L33,12.2z" stroke="none"/><path d="M7.3,4.5L7.7,4.5L7.7,6.2L6,6.2L6,5.8L7.3,5.8z" stroke="none"/><path d="M11.8,4.5L12.2,4.5L12.2,7.7L10.5,7.7L10.5,7.3L11.8,7.3z" stroke="none"/><path d="M21,10.3L21,10.7L16.3,10.7L16.3,9.2L14.8,9.2L14.8,7.7L13.3,7.7L13.3,4.3L18.2,4.3L18.2,5.8L19.5,5.8L19.5,6.2L17.8,6.2L17.8,4.7L13.7,4.7L13.7,7.3L15.2,7.3L15.2,8.8L16.7,8.8L16.7,10.3z" stroke="none"/><path d="M91.5,9.2L91.5,8.8L95.8,8.8L95.8,4.3L97.5,4.3L97.5,4.7L96.2,4.7L96.2,9.2z" stroke="none"/><path d="M30,3.2L30,2.8L31.3,2.8L31.3,1.3L37.7,1.3L37.7,4.5L37.3,4.5L37.3,1.7L31.7,1.7L31.7,3.2z" stroke="none"/><path d="M30.2,12L29.8,12L29.8,10.3L39,10.3L39,10.7L30.2,10.7z" stroke="none"/><path d="M36,2.8L36,3.2L33.2,3.2L33.2,4.7L27,4.7L27,4.3L32.8,4.3L32.8,2.8z" stroke="none"/><path d="M88.3,4.5L88.7,4.5L88.7,10.3L97.3,10.3L97.3,9L97.7,9L97.7,10.7L88.3,10.7z" stroke="none"/><path d="M48,12.2L48,11.8L60,11.8L60,12.2z" stroke="none"/><path d="M75,7.7L75,7.3L78.2,7.3L78.2,8.8L82.7,8.8L82.7,10.3L87.2,10.3L87.2,11.8L98.8,11.8L98.8,3.2L71.8,3.2L71.8,1.7L57.2,1.7L57.2,4.3L60.2,4.3L60.2,5.8L61.5,5.8L61.5,6.2L59.8,6.2L59.8,4.7L56.8,4.7L56.8,1.3L72.2,1.3L72.2,2.8L99.2,2.8L99.2,12.2L86.8,12.2L86.8,10.7L82.3,10.7L82.3,9.2L77.8,9.2L77.8,7.7z" stroke="none"/><path d="M9,6.2L9,5.8L10.3,5.8L10.3,2.8L16.3,2.8L16.3,1.3L21.2,1.3L21.2,2.8L22.7,2.8L22.7,4.5L22.3,4.5L22.3,3.2L20.8,3.2L20.8,1.7L16.7,1.7L16.7,3.2L10.7,3.2L10.7,6.2z" stroke="none"/><path d="M19.3,3L19.7,3L19.7,4.3L21.2,4.3L21.2,5.8L34.3,5.8L34.3,4.3L36,4.3L36,4.7L34.7,4.7L34.7,6.2L20.8,6.2L20.8,4.7L19.3,4.7z" stroke="none"/><path d="M6,9.2L6,8.8L10.7,8.8L10.7,10.3L15.2,10.3L15.2,11.8L22.3,11.8L22.3,10.3L25.7,10.3L25.7,12L25.3,12L25.3,10.7L22.7,10.7L22.7,12.2L14.8,12.2L14.8,10.7L10.3,10.7L10.3,9.2z" stroke="none"/><path d="M23.8,12L24.2,12L24.2,13.7L4.3,13.7L4.3,9.2L2.8,9.2L2.8,7.5L3.2,7.5L3.2,8.8L4.7,8.8L4.7,13.3L23.8,13.3z" stroke="none"/></svg>