<svg version="1.1" width="105" height="15" xmlns="http://www.w3.org/2000/svg"><path d="M64.3,2.8L64.3,1.3L75.2,1.3L75.2,4.3L79.7,4.3L79.7,5.8L85.5,5.8L85.5,6.2L79.3,6.2L79.3,4.7L74.8,4.7L74.8,1.7L64.7,1.7L64.7,2.8L70.5,2.8L70.5,3.2L61.3,3.2L61.3,1.7L45.2,1.7L45.2,3.2L37.5,3.2L37.5,2.8L44.8,2.8L44.8,1.3L61.7,1.3L61.7,2.8z" stroke="none"/><path d="M97.5,8.8L97.5,9.2L75.2,9.2L75.2,10.7L67.7,10.7L67.7,12.2L62.8,12.2L62.8,10.5L63.2,10.5L63.2,11.8L67.3,11.8L67.3,10.3L74.8,10.3L74.8,9.2L67.5,9.2L67.5,8.8z" stroke="none"/><path d="M46.3,5.8L46.3,2.8L54.2,2.8L54.2,4.3L55.7,4.3L55.7,6L55.3,6L55.3,4.7L53.8,4.7L53.8,3.2L46.7,3.2L46.7,5.8L47.8,5.8L47.8,4.3L49.5,4.3L49.5,4.7L48.2,4.7L48.2,6.2L46.7,6.2L46.7,7.3L51.2,7.3L51.2,8.8L54,8.8L54,9.2L50.8,9.2L50.8,7.7L46.3,7.7L46.3,6.2L30,6.2L30,5.8z" stroke="none"/><path d="M26.8,10.3L26.8,8.8L28.3,8.8L28.3,7.3L40.7,7.3L40.7,8.8L49.7,8.8L49.7,10.3L55.3,10.3L55.3,7.7L54,7.7L54,7.3L55.7,7.3L55.7,10.7L49.3,10.7L49.3,9.2L40.3,9.2L40.3,7.7L28.7,7.7L28.7,9.2L27.2,9.2L27.2,10.3L29.8,10.3L29.8,8.8L33.2,8.8L33.2,10.3L36,10.3L36,10.7L32.8,10.7L32.8,9.2L30.2,9.2L30.2,10.7L27.2,10.7L27.2,12.2L7.3,12.2L7.3,10.7L6,10.7L6,10.3L7.7,10.3L7.7,11.8L26.8,11.8L26.8,10.7L12,10.7L12,10.3z" stroke="none"/><path d="M2.8,10.5L3.2,10.5L3.2,12L2.8,12z" stroke="none"/><path d="M31.3,10.5L31.7,10.5L31.7,11.8L33,11.8L33,12.2L31.3,12.2z" stroke="none"/><path d="M59.8,3L60.2,3L60.2,6L59.8,6z" stroke="none"/><path d="M81,10.7L81,10.3L84,10.3L84,10.7z" stroke="none"/><path d="M26.8,3L27.2,3L27.2,7.5L26.8,7.5z" stroke="none"/><path d="M96,10.7L96,10.3L98.8,10.3L98.8,8.8L100.5,8.8L100.5,9.2L99.2,9.2L99.2,10.7z" stroke="none"/><path d="M94.3,10.5L94.7,10.5L94.7,11.8L99,11.8L99,12.2L94.3,12.2z" stroke="none"/><path d="M25.5,4.3L25.5,4.7L24.2,4.7L24.2,6.2L21.2,6.2L21.2,7.5L20.8,7.5L20.8,5.8L23.8,5.8L23.8,4.3z" stroke="none"/><path d="M73.5,5.8L73.5,6.2L66,6.2L66,5.8z" stroke="none"/><path d="M79.5,7.7L79.5,7.3L86.8,7.3L86.8,2.8L88.5,2.8L88.5,3.2L87.2,3.2L87.2,7.7z" stroke="none"/><path d="M57,4.7L57,4.3L58.7,4.3L58.7,7.3L62.8,7.3L62.8,5.8L64.3,5.8L64.3,4.3L69,4.3L69,4.7L64.7,4.7L64.7,6.2L63.2,6.2L63.2,7.7L58.3,7.7L58.3,4.7z" stroke="none"/><path d="M10.5,3.2L10.5,2.8L13.7,2.8L13.7,4.3L18.2,4.3L18.2,7.3L19.7,7.3L19.7,8.8L23.8,8.8L23.8,7.3L25.3,7.3L25.3,6L25.7,6L25.7,7.7L24.2,7.7L24.2,9.2L19.3,9.2L19.3,7.7L17.8,7.7L17.8,4.7L13.3,4.7L13.3,3.2z" stroke="none"/><path d="M85.7,4.5L85.3,4.5L85.3,1.3L99.2,1.3L99.2,4.3L100.7,4.3L100.7,5.8L102.2,5.8L102.2,9L101.8,9L101.8,6.2L100.3,6.2L100.3,4.7L98.8,4.7L98.8,1.7L85.7,1.7z" stroke="none"/><path d="M34.5,9.2L34.5,8.8L37.7,8.8L37.7,12.2L36.2,12.2L36.2,13.7L1.3,13.7L1.3,7.3L4.3,7.3L4.3,4.3L7.5,4.3L7.5,4.7L4.7,4.7L4.7,7.7L1.7,7.7L1.7,13.3L35.8,13.3L35.8,11.8L37.3,11.8L37.3,9.2z" stroke="none"/><path d="M4.5,9.2L4.5,8.8L7.3,8.8L7.3,5.8L8.8,5.8L8.8,1.3L34.7,1.3L34.7,2.8L36.2,2.8L36.2,4.5L35.8,4.5L35.8,3.2L34.3,3.2L34.3,1.7L9.2,1.7L9.2,6.2L7.7,6.2L7.7,9.2z" stroke="none"/><path d="M101.8,10.5L102.2,10.5L102.2,12.2L100.7,12.2L100.7,13.7L61.3,13.7L61.3,8.8L64.7,8.8L64.7,10.3L66,10.3L66,10.7L64.3,10.7L64.3,9.2L61.7,9.2L61.7,13.3L100.3,13.3L100.3,11.8L101.8,11.8z" stroke="none"/></svg>