<svg version="1.1" width="105" height="15" xmlns="http://www.w3.org/2000/svg"><path d="M52.3,5.8L52.3,4.3L58.7,4.3L58.7,5.8L60.2,5.8L60.2,7.3L61.5,7.3L61.5,7.7L59.8,7.7L59.8,6.2L58.3,6.2L58.3,4.7L52.7,4.7L52.7,5.8L57,5.8L57,6.2L45,6.2L45,5.8z" stroke="none"/><path d="M55.5,7.3L55.5,7.7L42.2,7.7L42.2,8.8L57.2,8.8L57.2,10.3L58.5,10.3L58.5,10.7L56.8,10.7L56.8,9.2L41.8,9.2L41.8,7.7L11.8,7.7L11.8,6L12.2,6L12.2,7.3z" stroke="none"/><path d="M29.8,10.3L29.8,8.8L40.7,8.8L40.7,10.3L45,10.3L45,10.7L40.3,10.7L40.3,9.2L30.2,9.2L30.2,10.3L33,10.3L33,10.7L30.2,10.7L30.2,12.2L24,12.2L24,11.8L29.8,11.8L29.8,10.7L27,10.7L27,10.3z" stroke="none"/><path d="M28.3,4.3L28.3,3.2L25.5,3.2L25.5,2.8L28.7,2.8L28.7,4.3L29.8,4.3L29.8,1.7L12.2,1.7L12.2,3.2L10.7,3.2L10.7,6.2L7.7,6.2L7.7,7.5L7.3,7.5L7.3,5.8L10.3,5.8L10.3,2.8L11.8,2.8L11.8,1.3L30.2,1.3L30.2,4.7L28.7,4.7L28.7,5.8L43.3,5.8L43.3,4.3L50.8,4.3L50.8,2.8L55.5,2.8L55.5,3.2L51.2,3.2L51.2,4.7L43.7,4.7L43.7,6.2L28.3,6.2L28.3,4.7L27.2,4.7L27.2,6.2L22.5,6.2L22.5,5.8L26.8,5.8L26.8,4.3z" stroke="none"/><path d="M79.5,6.2L79.5,5.8L81,5.8L81,6.2z" stroke="none"/><path d="M101.8,4.5L102.2,4.5L102.2,6L101.8,6z" stroke="none"/><path d="M88.5,4.3L88.5,4.7L86.8,4.7L86.8,3L87.2,3L87.2,4.3z" stroke="none"/><path d="M13.5,10.7L13.5,10.3L14.8,10.3L14.8,8.8L16.5,8.8L16.5,9.2L15.2,9.2L15.2,10.7z" stroke="none"/><path d="M23.8,9L24.2,9L24.2,10.7L22.7,10.7L22.7,12.2L21,12.2L21,11.8L22.3,11.8L22.3,10.3L23.8,10.3z" stroke="none"/><path d="M7.5,8.8L7.5,9.2L5.8,9.2L5.8,4.3L7.5,4.3L7.5,4.7L6.2,4.7L6.2,8.8z" stroke="none"/><path d="M75,4.3L75,4.7L70.5,4.7L70.5,4.3z" stroke="none"/><path d="M70.3,6L70.7,6L70.7,7.7L67.3,7.7L67.3,4.7L66,4.7L66,4.3L67.7,4.3L67.7,7.3L70.3,7.3z" stroke="none"/><path d="M8.8,7.5L9.2,7.5L9.2,10.3L12.2,10.3L12.2,11.8L15,11.8L15,12.2L11.8,12.2L11.8,10.7L8.8,10.7z" stroke="none"/><path d="M85.5,10.7L85.5,10.3L86.8,10.3L86.8,8.8L89.8,8.8L89.8,7.3L93,7.3L93,7.7L90.2,7.7L90.2,9.2L87.2,9.2L87.2,10.7z" stroke="none"/><path d="M69.2,6L68.8,6L68.8,2.8L76.7,2.8L76.7,8.8L78,8.8L78,9.2L76.3,9.2L76.3,3.2L69.2,3.2z" stroke="none"/><path d="M90,12.2L90,11.8L97.3,11.8L97.3,10.3L100.3,10.3L100.3,9L100.7,9L100.7,10.7L97.7,10.7L97.7,12.2z" stroke="none"/><path d="M74.8,6L75.2,6L75.2,10.3L79.3,10.3L79.3,8.8L80.8,8.8L80.8,7.3L82.3,7.3L82.3,1.3L88.7,1.3L88.7,3L88.3,3L88.3,1.7L82.7,1.7L82.7,7.7L81.2,7.7L81.2,9.2L79.7,9.2L79.7,10.7L74.8,10.7z" stroke="none"/><path d="M97.5,2.8L97.5,3.2L94.7,3.2L94.7,4.7L90.2,4.7L90.2,6.2L84.2,6.2L84.2,12.2L70.3,12.2L70.3,10.7L68.8,10.7L68.8,9.2L65.8,9.2L65.8,6.2L64.3,6.2L64.3,2.8L65.8,2.8L65.8,1.3L78.2,1.3L78.2,7.5L77.8,7.5L77.8,1.7L66.2,1.7L66.2,3.2L64.7,3.2L64.7,5.8L66.2,5.8L66.2,8.8L69.2,8.8L69.2,10.3L70.7,10.3L70.7,11.8L83.8,11.8L83.8,5.8L89.8,5.8L89.8,4.3L94.3,4.3L94.3,2.8z" stroke="none"/><path d="M66,10.7L66,10.3L67.7,10.3L67.7,13.3L98.8,13.3L98.8,12L99.2,12L99.2,13.7L67.3,13.7L67.3,10.7z" stroke="none"/><path d="M6,2.8L6,3.2L4.7,3.2L4.7,10.3L7.7,10.3L7.7,11.8L10.7,11.8L10.7,13.3L59.8,13.3L59.8,10.3L62.8,10.3L62.8,6.2L61.3,6.2L61.3,4.7L59.8,4.7L59.8,3.2L56.8,3.2L56.8,1.7L43.7,1.7L43.7,3.2L42.2,3.2L42.2,4.5L41.8,4.5L41.8,2.8L43.3,2.8L43.3,1.3L57.2,1.3L57.2,2.8L60.2,2.8L60.2,4.3L61.7,4.3L61.7,5.8L63.2,5.8L63.2,10.7L60.2,10.7L60.2,13.7L10.3,13.7L10.3,12.2L7.3,12.2L7.3,10.7L4.3,10.7L4.3,2.8z" stroke="none"/><circle cx="57" cy="6" r="0.25" stroke-width="0" fill="#000" /><circle cx="45" cy="6" r="0.25" stroke-width="0" fill="#000" /><circle cx="61.5" cy="7.5" r="0.25" stroke-width="0" fill="#000" /><circle cx="55.5" cy="7.5" r="0.25" stroke-width="0" fill="#000" /><circle cx="58.5" cy="10.5" r="0.25" stroke-width="0" fill="#000" /><circle cx="12" cy="6" r="0.25" stroke-width="0" fill="#000" /><circle cx="27" cy="10.5" r="0.25" stroke-width="0" fill="#000" /><circle cx="33" cy="10.5" r="0.25" stroke-width="0" fill="#000" /><circle cx="24" cy="12" r="0.25" stroke-width="0" fill="#000" /><circle cx="45" cy="10.5" r="0.25" stroke-width="0" fill="#000" /><circle cx="25.5" cy="3" r="0.25" stroke-width="0" fill="#000" /><circle cx="22.5" cy="6" r="0.25" stroke-width="0" fill="#000" /><circle cx="7.5" cy="7.5" r="0.25" stroke-width="0" fill="#000" /><circle cx="55.5" cy="3" r="0.25" stroke-width="0" fill="#000" /><circle cx="79.5" cy="6" r="0.25" stroke-width="0" fill="#000" /><circle cx="81" cy="6" r="0.25" stroke-width="0" fill="#000" /><circle cx="102" cy="4.5" r="0.25" stroke-width="0" fill="#000" /><circle cx="102" cy="6" r="0.25" stroke-width="0" fill="#000" /><circle cx="88.5" cy="4.5" r="0.25" stroke-width="0" fill="#000" /><circle cx="87" cy="3" r="0.25" stroke-width="0" fill="#000" /><circle cx="13.5" cy="10.5" r="0.25" stroke-width="0" fill="#000" /><circle cx="16.5" cy="9" r="0.25" stroke-width="0" fill="#000" /><circle cx="24" cy="9" r="0.25" stroke-width="0" fill="#000" /><circle cx="21" cy="12" r="0.25" stroke-width="0" fill="#000" /><circle cx="7.5" cy="9" r="0.25" stroke-width="0" fill="#000" /><circle cx="7.5" cy="4.5" r="0.25" stroke-width="0" fill="#000" /><circle cx="75" cy="4.5" r="0.25" stroke-width="0" fill="#000" /><circle cx="70.5" cy="4.5" r="0.25" stroke-width="0" fill="#000" /><circle cx="70.5" cy="6" r="0.25" stroke-width="0" fill="#000" /><circle cx="66" cy="4.5" r="0.25" stroke-width="0" fill="#000" /><circle cx="9" cy="7.5" r="0.25" stroke-width="0" fill="#000" /><circle cx="15" cy="12" r="0.25" stroke-width="0" fill="#000" /><circle cx="85.5" cy="10.5" r="0.25" stroke-width="0" fill="#000" /><circle cx="93" cy="7.5" r="0.25" stroke-width="0" fill="#000" /><circle cx="69" cy="6" r="0.25" stroke-width="0" fill="#000" /><circle cx="78" cy="9" r="0.25" stroke-width="0" fill="#000" /><circle cx="90" cy="12" r="0.25" stroke-width="0" fill="#000" /><circle cx="100.5" cy="9" r="0.25" stroke-width="0" fill="#000" /><circle cx="75" cy="6" r="0.25" stroke-width="0" fill="#000" /><circle cx="88.5" cy="3" r="0.25" stroke-width="0" fill="#000" /><circle cx="97.5" cy="3" r="0.25" stroke-width="0" fill="#000" /><circle cx="78" cy="7.5" r="0.25" stroke-width="0" fill="#000" /><circle cx="66" cy="10.5" r="0.25" stroke-width="0" fill="#000" /><circle cx="99" cy="12" r="0.25" stroke-width="0" fill="#000" /><circle cx="6" cy="3" r="0.25" stroke-width="0" fill="#000" /><circle cx="42" cy="4.5" r="0.25" stroke-width="0" fill="#000" /><rect x="0" y="0" width="105" height="15" stroke-width="0.8" stroke="#000" fill="none" /></svg>