<svg version="1.1" width="105" height="15" xmlns="http://www.w3.org/2000/svg"><path d="M89.8,5.8L89.8,3.2L88.5,3.2L88.5,2.8L90.2,2.8L90.2,5.8L94.5,5.8L94.5,6.2L87,6.2L87,5.8z" stroke="none"/><path d="M81,7.3L81,7.7L75.2,7.7L75.2,8.8L91.7,8.8L91.7,10.3L93.2,10.3L93.2,11.8L94.5,11.8L94.5,12.2L92.8,12.2L92.8,10.7L91.3,10.7L91.3,9.2L74.8,9.2L74.8,7.7L73.7,7.7L73.7,9.2L57.2,9.2L57.2,10.7L49.5,10.7L49.5,10.3L56.8,10.3L56.8,8.8L73.3,8.8L73.3,7.3z" stroke="none"/><path d="M34.3,7.3L34.3,6.2L27.2,6.2L27.2,7.7L25.5,7.7L25.5,7.3L26.8,7.3L26.8,5.8L34.7,5.8L34.7,7.3L54,7.3L54,7.7L34.7,7.7L34.7,9.2L33.2,9.2L33.2,10.7L25.5,10.7L25.5,10.3L32.8,10.3L32.8,8.8L34.3,8.8L34.3,7.7L31.7,7.7L31.7,9L31.3,9L31.3,7.3z" stroke="none"/><path d="M53.8,4.3L53.8,2.8L70.7,2.8L70.7,7.3L72,7.3L72,7.7L70.3,7.7L70.3,3.2L54.2,3.2L54.2,4.3L61.7,4.3L61.7,7.3L64.5,7.3L64.5,7.7L61.3,7.7L61.3,4.7L54.2,4.7L54.2,6.2L37.5,6.2L37.5,5.8L53.8,5.8L53.8,4.7L42,4.7L42,4.3z" stroke="none"/><path d="M75,4.3L75,4.7L73.5,4.7L73.5,4.3z" stroke="none"/><path d="M5.8,6L6.2,6L6.2,7.3L7.5,7.3L7.5,7.7L5.8,7.7z" stroke="none"/><path d="M72.2,6L71.8,6L71.8,3L72.2,3z" stroke="none"/><path d="M85.5,11.8L85.5,12.2L82.5,12.2L82.5,11.8z" stroke="none"/><path d="M75,10.7L75,10.3L76.7,10.3L76.7,11.8L78,11.8L78,12.2L76.3,12.2L76.3,10.7z" stroke="none"/><path d="M88.5,12.2L88.5,11.8L91.7,11.8L91.7,13.3L95.8,13.3L95.8,10.7L94.3,10.7L94.3,9.2L92.8,9.2L92.8,7.7L87,7.7L87,7.3L93.2,7.3L93.2,8.8L94.7,8.8L94.7,10.3L96.2,10.3L96.2,13.7L91.3,13.7L91.3,12.2z" stroke="none"/><path d="M49.5,9.2L49.5,8.8L55.5,8.8L55.5,9.2z" stroke="none"/><path d="M7.5,4.7L7.5,4.3L13.7,4.3L13.7,7.3L15,7.3L15,7.7L13.3,7.7L13.3,4.7z" stroke="none"/><path d="M67.5,11.8L67.5,12.2L58.3,12.2L58.3,10.5L58.7,10.5L58.7,11.8z" stroke="none"/><path d="M93,4.7L93,4.3L97.7,4.3L97.7,5.8L99.2,5.8L99.2,7.3L102,7.3L102,7.7L98.8,7.7L98.8,6.2L97.3,6.2L97.3,4.7z" stroke="none"/><path d="M19.5,4.3L19.5,4.7L16.7,4.7L16.7,9.2L11.8,9.2L11.8,7.7L8.8,7.7L8.8,6L9.2,6L9.2,7.3L12.2,7.3L12.2,8.8L16.3,8.8L16.3,4.3z" stroke="none"/><path d="M18,12.2L18,11.8L22.3,11.8L22.3,8.8L28.3,8.8L28.3,7.3L30,7.3L30,7.7L28.7,7.7L28.7,9.2L22.7,9.2L22.7,12.2z" stroke="none"/><path d="M19.5,10.3L19.5,10.7L4.5,10.7L4.5,10.3z" stroke="none"/><path d="M4.5,3.2L4.5,2.8L21.2,2.8L21.2,6L20.8,6L20.8,3.2z" stroke="none"/><path d="M84,5.8L84,6.2L79.3,6.2L79.3,4.7L76.3,4.7L76.3,3.2L74.8,3.2L74.8,1.7L3.2,1.7L3.2,11.8L16.7,11.8L16.7,13.3L68.8,13.3L68.8,10.7L64.5,10.7L64.5,10.3L69.2,10.3L69.2,13.7L16.3,13.7L16.3,12.2L2.8,12.2L2.8,1.3L75.2,1.3L75.2,2.8L76.7,2.8L76.7,4.3L79.7,4.3L79.7,5.8z" stroke="none"/><path d="M57,11.8L57,12.2L25.5,12.2L25.5,11.8z" stroke="none"/></svg>