<svg version="1.1" width="105" height="15" xmlns="http://www.w3.org/2000/svg"><path d="M85.5,2.8L85.5,3.2L82.7,3.2L82.7,4.3L87.2,4.3L87.2,6L86.8,6L86.8,4.7L82.3,4.7L82.3,3.2L81.2,3.2L81.2,4.7L79.7,4.7L79.7,6.2L75.2,6.2L75.2,7.5L74.8,7.5L74.8,5.8L79.3,5.8L79.3,4.3L80.8,4.3L80.8,2.8z" stroke="none"/><path d="M61.3,7.3L61.3,5.8L66.2,5.8L66.2,7.3L67.7,7.3L67.7,8.8L72,8.8L72,9.2L67.3,9.2L67.3,7.7L65.8,7.7L65.8,6.2L61.7,6.2L61.7,7.3L63.2,7.3L63.2,8.8L64.5,8.8L64.5,9.2L62.8,9.2L62.8,7.7L55.3,7.7L55.3,6.2L52.3,6.2L52.3,4.7L49.5,4.7L49.5,4.3L52.7,4.3L52.7,5.8L55.7,5.8L55.7,7.3z" stroke="none"/><path d="M25.3,7.3L25.3,4.3L42.2,4.3L42.2,5.8L43.7,5.8L43.7,7.3L45.2,7.3L45.2,9L44.8,9L44.8,7.7L43.3,7.7L43.3,6.2L41.8,6.2L41.8,4.7L25.7,4.7L25.7,7.3L26.8,7.3L26.8,5.8L31.5,5.8L31.5,6.2L27.2,6.2L27.2,7.7L25.7,7.7L25.7,9.2L22.7,9.2L22.7,10.5L22.3,10.5L22.3,8.8L25.3,8.8L25.3,7.7L10.5,7.7L10.5,7.3z" stroke="none"/><path d="M55.3,10.3L55.3,8.8L61.7,8.8L61.7,10.3L64.7,10.3L64.7,11.8L82.5,11.8L82.5,12.2L64.3,12.2L64.3,10.7L61.3,10.7L61.3,9.2L55.7,9.2L55.7,10.3L57.2,10.3L57.2,13.7L38.8,13.7L38.8,12L39.2,12L39.2,13.3L56.8,13.3L56.8,10.7L55.7,10.7L55.7,12.2L43.5,12.2L43.5,11.8L55.3,11.8L55.3,10.7L51,10.7L51,10.3z" stroke="none"/><path d="M99.2,10.5L98.8,10.5L98.8,9L99.2,9z" stroke="none"/><path d="M94.3,9L94.7,9L94.7,12L94.3,12z" stroke="none"/><path d="M9,7.3L9,7.7L6,7.7L6,7.3z" stroke="none"/><path d="M28.5,12.2L28.5,11.8L29.8,11.8L29.8,10.3L31.5,10.3L31.5,10.7L30.2,10.7L30.2,12.2z" stroke="none"/><path d="M98.8,3L99.2,3L99.2,4.3L100.7,4.3L100.7,5.8L102,5.8L102,6.2L100.3,6.2L100.3,4.7L98.8,4.7z" stroke="none"/><path d="M57,4.7L57,4.3L61.5,4.3L61.5,4.7z" stroke="none"/><path d="M18,4.3L18,4.7L7.7,4.7L7.7,6.2L4.7,6.2L4.7,8.8L16.5,8.8L16.5,9.2L4.3,9.2L4.3,5.8L7.3,5.8L7.3,4.3z" stroke="none"/><path d="M12,10.7L12,10.3L18,10.3L18,10.7z" stroke="none"/><path d="M99,5.8L99,6.2L96.2,6.2L96.2,7.7L93.2,7.7L93.2,9L92.8,9L92.8,7.3L95.8,7.3L95.8,5.8z" stroke="none"/><path d="M28.3,7.5L28.7,7.5L28.7,9.2L27.2,9.2L27.2,10.7L24.2,10.7L24.2,12.2L20.8,12.2L20.8,10.5L21.2,10.5L21.2,11.8L23.8,11.8L23.8,10.3L26.8,10.3L26.8,8.8L28.3,8.8z" stroke="none"/><path d="M91.5,5.8L91.5,6.2L88.7,6.2L88.7,7.7L84.2,7.7L84.2,9.2L82.5,9.2L82.5,8.8L83.8,8.8L83.8,7.3L88.3,7.3L88.3,5.8z" stroke="none"/><path d="M16.5,11.8L16.5,12.2L12.2,12.2L12.2,13.7L7.3,13.7L7.3,12.2L4.5,12.2L4.5,11.8L7.7,11.8L7.7,13.3L11.8,13.3L11.8,11.8z" stroke="none"/><path d="M6,3.2L6,2.8L27,2.8L27,3.2z" stroke="none"/><path d="M66,10.7L66,10.3L91.7,10.3L91.7,11.8L93.2,11.8L93.2,13.3L97.3,13.3L97.3,10.5L97.7,10.5L97.7,13.7L92.8,13.7L92.8,12.2L91.3,12.2L91.3,10.7z" stroke="none"/><path d="M84,5.8L84,6.2L81.2,6.2L81.2,7.7L76.7,7.7L76.7,9.2L73.3,9.2L73.3,7.7L68.8,7.7L68.8,6.2L67.3,6.2L67.3,4.7L62.8,4.7L62.8,3.2L48.2,3.2L48.2,5.8L51.2,5.8L51.2,7.3L52.7,7.3L52.7,9L52.3,9L52.3,7.7L50.8,7.7L50.8,6.2L47.8,6.2L47.8,2.8L63.2,2.8L63.2,4.3L67.7,4.3L67.7,5.8L69.2,5.8L69.2,7.3L73.7,7.3L73.7,8.8L76.3,8.8L76.3,7.3L80.8,7.3L80.8,5.8z" stroke="none"/><path d="M9.2,12L8.8,12L8.8,10.7L2.8,10.7L2.8,2.8L4.3,2.8L4.3,1.3L46.7,1.3L46.7,10.7L43.3,10.7L43.3,9.2L42,9.2L42,8.8L43.7,8.8L43.7,10.3L46.3,10.3L46.3,1.7L4.7,1.7L4.7,3.2L3.2,3.2L3.2,10.3L9.2,10.3z" stroke="none"/><circle cx="85.5" cy="3" r="0.25" stroke-width="0" fill="#000" /><circle cx="87" cy="6" r="0.25" stroke-width="0" fill="#000" /><circle cx="75" cy="7.5" r="0.25" stroke-width="0" fill="#000" /><circle cx="64.5" cy="9" r="0.25" stroke-width="0" fill="#000" /><circle cx="72" cy="9" r="0.25" stroke-width="0" fill="#000" /><circle cx="49.5" cy="4.5" r="0.25" stroke-width="0" fill="#000" /><circle cx="22.5" cy="10.5" r="0.25" stroke-width="0" fill="#000" /><circle cx="31.5" cy="6" r="0.25" stroke-width="0" fill="#000" /><circle cx="10.5" cy="7.5" r="0.25" stroke-width="0" fill="#000" /><circle cx="45" cy="9" r="0.25" stroke-width="0" fill="#000" /><circle cx="51" cy="10.5" r="0.25" stroke-width="0" fill="#000" /><circle cx="43.5" cy="12" r="0.25" stroke-width="0" fill="#000" /><circle cx="39" cy="12" r="0.25" stroke-width="0" fill="#000" /><circle cx="82.5" cy="12" r="0.25" stroke-width="0" fill="#000" /><circle cx="99" cy="10.5" r="0.25" stroke-width="0" fill="#000" /><circle cx="99" cy="9" r="0.25" stroke-width="0" fill="#000" /><circle cx="94.5" cy="9" r="0.25" stroke-width="0" fill="#000" /><circle cx="94.5" cy="12" r="0.25" stroke-width="0" fill="#000" /><circle cx="9" cy="7.5" r="0.25" stroke-width="0" fill="#000" /><circle cx="6" cy="7.5" r="0.25" stroke-width="0" fill="#000" /><circle cx="28.5" cy="12" r="0.25" stroke-width="0" fill="#000" /><circle cx="31.5" cy="10.5" r="0.25" stroke-width="0" fill="#000" /><circle cx="99" cy="3" r="0.25" stroke-width="0" fill="#000" /><circle cx="102" cy="6" r="0.25" stroke-width="0" fill="#000" /><circle cx="57" cy="4.5" r="0.25" stroke-width="0" fill="#000" /><circle cx="61.5" cy="4.5" r="0.25" stroke-width="0" fill="#000" /><circle cx="18" cy="4.5" r="0.25" stroke-width="0" fill="#000" /><circle cx="16.5" cy="9" r="0.25" stroke-width="0" fill="#000" /><circle cx="12" cy="10.5" r="0.25" stroke-width="0" fill="#000" /><circle cx="18" cy="10.5" r="0.25" stroke-width="0" fill="#000" /><circle cx="99" cy="6" r="0.25" stroke-width="0" fill="#000" /><circle cx="93" cy="9" r="0.25" stroke-width="0" fill="#000" /><circle cx="28.5" cy="7.5" r="0.25" stroke-width="0" fill="#000" /><circle cx="21" cy="10.5" r="0.25" stroke-width="0" fill="#000" /><circle cx="91.5" cy="6" r="0.25" stroke-width="0" fill="#000" /><circle cx="82.5" cy="9" r="0.25" stroke-width="0" fill="#000" /><circle cx="16.5" cy="12" r="0.25" stroke-width="0" fill="#000" /><circle cx="4.5" cy="12" r="0.25" stroke-width="0" fill="#000" /><circle cx="6" cy="3" r="0.25" stroke-width="0" fill="#000" /><circle cx="27" cy="3" r="0.25" stroke-width="0" fill="#000" /><circle cx="66" cy="10.5" r="0.25" stroke-width="0" fill="#000" /><circle cx="97.5" cy="10.5" r="0.25" stroke-width="0" fill="#000" /><circle cx="84" cy="6" r="0.25" stroke-width="0" fill="#000" /><circle cx="52.5" cy="9" r="0.25" stroke-width="0" fill="#000" /><circle cx="9" cy="12" r="0.25" stroke-width="0" fill="#000" /><circle cx="42" cy="9" r="0.25" stroke-width="0" fill="#000" /><rect x="0" y="0" width="105" height="15" stroke-width="0.8" stroke="#000" fill="none" /></svg>