<svg version="1.1" width="105" height="15" xmlns="http://www.w3.org/2000/svg"><path d="M79.5,5.8L79.5,6.2L76.7,6.2L76.7,7.3L99,7.3L99,7.7L76.3,7.7L76.3,6.2L74.8,6.2L74.8,4.7L68.8,4.7L68.8,3.2L51,3.2L51,2.8L69.2,2.8L69.2,4.3L75.2,4.3L75.2,5.8z" stroke="none"/><path d="M79.3,10.3L79.3,9.2L76.5,9.2L76.5,8.8L79.7,8.8L79.7,10.3L88.7,10.3L88.7,11.8L97.5,11.8L97.5,12.2L88.3,12.2L88.3,10.7L60,10.7L60,10.3z" stroke="none"/><path d="M40.3,2.8L40.3,1.3L46.7,1.3L46.7,2.8L49.7,2.8L49.7,6L49.3,6L49.3,3.2L46.3,3.2L46.3,1.7L40.7,1.7L40.7,2.8L45,2.8L45,3.2L40.7,3.2L40.7,4.3L48.2,4.3L48.2,6L47.8,6L47.8,4.7L40.3,4.7L40.3,3.2L30.2,3.2L30.2,4.7L28.7,4.7L28.7,6.2L19.5,6.2L19.5,5.8L28.3,5.8L28.3,4.3L29.8,4.3L29.8,2.8z" stroke="none"/><path d="M37.3,10.3L37.3,8.8L46.3,8.8L46.3,7.3L48,7.3L48,7.7L46.7,7.7L46.7,9.2L37.7,9.2L37.7,10.3L43.5,10.3L43.5,10.7L37.7,10.7L37.7,11.8L54,11.8L54,12.2L37.3,12.2L37.3,10.7L25.3,10.7L25.3,9.2L9,9.2L9,8.8L25.7,8.8L25.7,10.3z" stroke="none"/><path d="M9.2,6L8.8,6L8.8,4.5L9.2,4.5z" stroke="none"/><path d="M5.8,4.5L6.2,4.5L6.2,6L5.8,6z" stroke="none"/><path d="M52.5,10.3L52.5,10.7L48,10.7L48,10.3z" stroke="none"/><path d="M72,11.8L72,12.2L58.3,12.2L58.3,8.8L68.8,8.8L68.8,7.5L69.2,7.5L69.2,9.2L58.7,9.2L58.7,11.8z" stroke="none"/><path d="M93,10.3L93,10.7L89.8,10.7L89.8,9.2L85.5,9.2L85.5,8.8L90.2,8.8L90.2,10.3z" stroke="none"/><path d="M7.7,7.5L7.3,7.5L7.3,2.8L13.7,2.8L13.7,4.3L15,4.3L15,4.7L13.3,4.7L13.3,3.2L7.7,3.2z" stroke="none"/><path d="M30,11.8L30,12.2L21,12.2L21,11.8z" stroke="none"/><path d="M4.5,12.2L4.5,11.8L13.5,11.8L13.5,12.2z" stroke="none"/><path d="M102.2,12L101.8,12L101.8,10.7L98.8,10.7L98.8,9.2L93,9.2L93,8.8L99.2,8.8L99.2,10.3L102.2,10.3z" stroke="none"/><path d="M18,2.8L18,3.2L16.7,3.2L16.7,6.2L10.7,6.2L10.7,7.7L9,7.7L9,7.3L10.3,7.3L10.3,5.8L16.3,5.8L16.3,2.8z" stroke="none"/><path d="M27,9.2L27,8.8L35.8,8.8L35.8,7.3L37.5,7.3L37.5,7.7L36.2,7.7L36.2,9.2z" stroke="none"/><path d="M87,6.2L87,5.8L100.7,5.8L100.7,7.3L102.2,7.3L102.2,8.8L103.7,8.8L103.7,13.7L56.8,13.7L56.8,7.3L64.3,7.3L64.3,5.8L73.5,5.8L73.5,6.2L64.7,6.2L64.7,7.7L57.2,7.7L57.2,13.3L103.3,13.3L103.3,9.2L101.8,9.2L101.8,7.7L100.3,7.7L100.3,6.2z" stroke="none"/><path d="M90,2.8L90,3.2L76.5,3.2L76.5,2.8z" stroke="none"/><path d="M82.5,4.7L82.5,4.3L101.8,4.3L101.8,3L102.2,3L102.2,4.7z" stroke="none"/><path d="M4.3,6L4.7,6L4.7,7.3L6.2,7.3L6.2,8.8L7.7,8.8L7.7,10.3L24,10.3L24,10.7L7.3,10.7L7.3,9.2L5.8,9.2L5.8,7.7L4.3,7.7z" stroke="none"/><path d="M40.5,5.8L40.5,6.2L31.7,6.2L31.7,7.7L17.8,7.7L17.8,4.3L19.3,4.3L19.3,1.7L6.2,1.7L6.2,3.2L4.7,3.2L4.7,4.7L3.2,4.7L3.2,13.3L55.3,13.3L55.3,5.8L61.3,5.8L61.3,4.3L66,4.3L66,4.7L61.7,4.7L61.7,6.2L55.7,6.2L55.7,13.7L2.8,13.7L2.8,4.3L4.3,4.3L4.3,2.8L5.8,2.8L5.8,1.3L19.7,1.3L19.7,4.7L18.2,4.7L18.2,7.3L31.3,7.3L31.3,5.8z" stroke="none"/></svg>