<svg version="1.1" width="105" height="15" xmlns="http://www.w3.org/2000/svg"><path d="M80.8,11.8L80.8,7.7L79.5,7.7L79.5,7.3L81.2,7.3L81.2,12.2L79.7,12.2L79.7,13.3L88.3,13.3L88.3,11.8L90,11.8L90,12.2L88.7,12.2L88.7,13.7L79.3,13.7L79.3,12.2L76.7,12.2L76.7,13.7L70.3,13.7L70.3,12L70.7,12L70.7,13.3L76.3,13.3L76.3,11.8z" stroke="none"/><path d="M23.8,7.3L23.8,5.8L37.5,5.8L37.5,6.2L24.2,6.2L24.2,7.3L25.7,7.3L25.7,8.8L28.7,8.8L28.7,10.3L31.5,10.3L31.5,10.7L28.3,10.7L28.3,9.2L25.3,9.2L25.3,7.7L10.7,7.7L10.7,9.2L4.5,9.2L4.5,8.8L10.3,8.8L10.3,7.3z" stroke="none"/><path d="M43.3,7.3L43.3,4.5L43.7,4.5L43.7,7.3L55.3,7.3L55.3,5.8L58.5,5.8L58.5,6.2L55.7,6.2L55.7,7.7L43.7,7.7L43.7,9.2L34.3,9.2L34.3,7.5L34.7,7.5L34.7,8.8L43.3,8.8L43.3,7.7L41.8,7.7L41.8,6.2L40.5,6.2L40.5,5.8L42.2,5.8L42.2,7.3z" stroke="none"/><path d="M55.3,10.3L55.3,8.8L62.8,8.8L62.8,7.3L69.2,7.3L69.2,8.8L73.7,8.8L73.7,10.3L79.3,10.3L79.3,9L79.7,9L79.7,10.7L73.3,10.7L73.3,9.2L68.8,9.2L68.8,7.7L63.2,7.7L63.2,9.2L55.7,9.2L55.7,10.3L64.3,10.3L64.3,8.8L67.7,8.8L67.7,10.3L72.2,10.3L72.2,12L71.8,12L71.8,10.7L67.3,10.7L67.3,9.2L64.7,9.2L64.7,10.7L55.7,10.7L55.7,12.2L45.2,12.2L45.2,13.7L31.3,13.7L31.3,12L31.7,12L31.7,13.3L44.8,13.3L44.8,11.8L55.3,11.8L55.3,10.7L43.7,10.7L43.7,12L43.3,12L43.3,10.3z" stroke="none"/><path d="M17.8,3L18.2,3L18.2,4.3L19.5,4.3L19.5,4.7L17.8,4.7z" stroke="none"/><path d="M36.2,12L35.8,12L35.8,10.7L34.5,10.7L34.5,10.3L36.2,10.3z" stroke="none"/><path d="M46.3,3L46.7,3L46.7,4.3L48.2,4.3L48.2,6L47.8,6L47.8,4.7L46.3,4.7z" stroke="none"/><path d="M67.7,6L67.3,6L67.3,4.7L65.8,4.7L65.8,3.2L64.5,3.2L64.5,2.8L66.2,2.8L66.2,4.3L67.7,4.3z" stroke="none"/><path d="M77.8,4.5L78.2,4.5L78.2,9L77.8,9z" stroke="none"/><path d="M85.7,9L85.3,9L85.3,4.7L84,4.7L84,4.3L85.7,4.3z" stroke="none"/><path d="M100.3,6L100.7,6L100.7,7.7L99.2,7.7L99.2,9.2L97.7,9.2L97.7,10.5L97.3,10.5L97.3,8.8L98.8,8.8L98.8,7.3L100.3,7.3z" stroke="none"/><path d="M99,11.8L99,12.2L95.8,12.2L95.8,9.2L94.3,9.2L94.3,7.7L93,7.7L93,7.3L94.7,7.3L94.7,8.8L96.2,8.8L96.2,11.8z" stroke="none"/><path d="M19.5,3.2L19.5,2.8L27,2.8L27,3.2z" stroke="none"/><path d="M84,12.2L84,11.8L86.8,11.8L86.8,10.3L91.5,10.3L91.5,10.7L87.2,10.7L87.2,12.2z" stroke="none"/><path d="M58.5,12.2L58.5,11.8L65.8,11.8L65.8,10.5L66.2,10.5L66.2,12.2z" stroke="none"/><path d="M97.5,2.8L97.5,3.2L88.7,3.2L88.7,4.7L87,4.7L87,4.3L88.3,4.3L88.3,2.8z" stroke="none"/><path d="M82.5,5.8L82.5,6.2L80.8,6.2L80.8,3.2L75.2,3.2L75.2,6.2L73.7,6.2L73.7,7.7L72,7.7L72,7.3L73.3,7.3L73.3,5.8L74.8,5.8L74.8,2.8L81.2,2.8L81.2,5.8z" stroke="none"/><path d="M91.7,7.5L91.3,7.5L91.3,5.8L98.8,5.8L98.8,1.7L63.2,1.7L63.2,3.2L61.7,3.2L61.7,7.7L60,7.7L60,7.3L61.3,7.3L61.3,2.8L62.8,2.8L62.8,1.3L99.2,1.3L99.2,6.2L91.7,6.2z" stroke="none"/><path d="M3,6.2L3,5.8L22.3,5.8L22.3,4.3L36,4.3L36,4.7L22.7,4.7L22.7,6.2z" stroke="none"/><path d="M9,7.3L9,7.7L1.3,7.7L1.3,4.3L10.3,4.3L10.3,2.8L11.8,2.8L11.8,1.3L48.2,1.3L48.2,2.8L49.7,2.8L49.7,4.3L51.2,4.3L51.2,6L50.8,6L50.8,4.7L49.3,4.7L49.3,3.2L47.8,3.2L47.8,1.7L12.2,1.7L12.2,3.2L10.7,3.2L10.7,4.7L1.7,4.7L1.7,7.3z" stroke="none"/></svg>