<svg version="1.1" width="105" height="15" xmlns="http://www.w3.org/2000/svg"><path d="M68.8,2.8L68.8,1.3L91.7,1.3L91.7,3L91.3,3L91.3,1.7L69.2,1.7L69.2,2.8L70.7,2.8L70.7,4.3L72,4.3L72,4.7L70.3,4.7L70.3,3.2L43.5,3.2L43.5,2.8z" stroke="none"/><path d="M74.8,4.3L74.8,2.8L84.2,2.8L84.2,4.3L85.5,4.3L85.5,4.7L83.8,4.7L83.8,3.2L75.2,3.2L75.2,4.3L82.7,4.3L82.7,6L82.3,6L82.3,4.7L73.7,4.7L73.7,6.2L58.3,6.2L58.3,4.7L55.5,4.7L55.5,4.3L58.7,4.3L58.7,5.8L73.3,5.8L73.3,4.3z" stroke="none"/><path d="M77.8,8.8L77.8,7.3L94.5,7.3L94.5,7.7L78.2,7.7L78.2,8.8L79.7,8.8L79.7,10.3L91.5,10.3L91.5,10.7L79.3,10.7L79.3,9.2L78.2,9.2L78.2,12L77.8,12L77.8,9.2L67.7,9.2L67.7,10.7L53.8,10.7L53.8,9.2L49.3,9.2L49.3,7.5L49.7,7.5L49.7,8.8L54.2,8.8L54.2,10.3L67.3,10.3L67.3,8.8z" stroke="none"/><path d="M38.8,7.3L38.8,4.3L46.7,4.3L46.7,5.8L52.7,5.8L52.7,7.3L55.7,7.3L55.7,8.8L61.5,8.8L61.5,9.2L55.3,9.2L55.3,7.7L52.3,7.7L52.3,6.2L46.3,6.2L46.3,4.7L39.2,4.7L39.2,7.3L40.3,7.3L40.3,5.8L42,5.8L42,6.2L40.7,6.2L40.7,7.7L39.2,7.7L39.2,9.2L36.2,9.2L36.2,10.7L26.8,10.7L26.8,9.2L25.5,9.2L25.5,8.8L27.2,8.8L27.2,10.3L35.8,10.3L35.8,8.8L38.8,8.8L38.8,7.7L34.7,7.7L34.7,9.2L33,9.2L33,8.8L34.3,8.8L34.3,7.3z" stroke="none"/><path d="M99,8.8L99,9.2L97.5,9.2L97.5,8.8z" stroke="none"/><path d="M41.8,7.5L42.2,7.5L42.2,9L41.8,9z" stroke="none"/><path d="M6.2,12L5.8,12L5.8,10.3L7.3,10.3L7.3,9L7.7,9L7.7,10.7L6.2,10.7z" stroke="none"/><path d="M75,10.3L75,10.7L70.5,10.7L70.5,10.3z" stroke="none"/><path d="M14.8,3L15.2,3L15.2,4.7L11.8,4.7L11.8,3.2L10.5,3.2L10.5,2.8L12.2,2.8L12.2,4.3L14.8,4.3z" stroke="none"/><path d="M94.5,6.2L94.5,5.8L98.8,5.8L98.8,4.3L100.5,4.3L100.5,4.7L99.2,4.7L99.2,6.2z" stroke="none"/><path d="M36,4.3L36,4.7L33.2,4.7L33.2,7.7L30.2,7.7L30.2,9.2L28.5,9.2L28.5,8.8L29.8,8.8L29.8,7.3L32.8,7.3L32.8,4.3z" stroke="none"/><path d="M66,8.8L66,9.2L62.8,9.2L62.8,7.7L56.8,7.7L56.8,6L57.2,6L57.2,7.3L63.2,7.3L63.2,8.8z" stroke="none"/><path d="M81,12.2L81,11.8L91.5,11.8L91.5,12.2z" stroke="none"/><path d="M3,6.2L3,5.8L5.8,5.8L5.8,4.3L7.3,4.3L7.3,2.8L8.8,2.8L8.8,1.3L13.7,1.3L13.7,3L13.3,3L13.3,1.7L9.2,1.7L9.2,3.2L7.7,3.2L7.7,4.7L6.2,4.7L6.2,6.2z" stroke="none"/><path d="M28.5,2.8L28.5,3.2L16.7,3.2L16.7,7.5L16.3,7.5L16.3,2.8z" stroke="none"/><path d="M34.5,6.2L34.5,5.8L37.3,5.8L37.3,3.2L30.2,3.2L30.2,4.7L22.7,4.7L22.7,7.7L18.2,7.7L18.2,10.5L17.8,10.5L17.8,7.3L22.3,7.3L22.3,4.3L29.8,4.3L29.8,2.8L37.7,2.8L37.7,6.2z" stroke="none"/><path d="M100.7,9L100.3,9L100.3,7.7L96.2,7.7L96.2,9.2L81,9.2L81,8.8L95.8,8.8L95.8,7.3L100.7,7.3z" stroke="none"/><path d="M42,11.8L42,12.2L13.5,12.2L13.5,11.8z" stroke="none"/><path d="M4.5,7.7L4.5,7.3L10.7,7.3L10.7,8.8L12.2,8.8L12.2,13.3L43.3,13.3L43.3,10.7L40.5,10.7L40.5,10.3L43.7,10.3L43.7,13.7L11.8,13.7L11.8,9.2L10.3,9.2L10.3,7.7z" stroke="none"/><path d="M57,12.2L57,11.8L73.7,11.8L73.7,13.3L95.8,13.3L95.8,11.8L98.8,11.8L98.8,10.3L100.5,10.3L100.5,10.7L99.2,10.7L99.2,12.2L96.2,12.2L96.2,13.7L73.3,13.7L73.3,12.2z" stroke="none"/></svg>