<svg version="1.1" width="105" height="15" xmlns="http://www.w3.org/2000/svg"><path d="M34.5,2.8L34.5,3.2L31.7,3.2L31.7,6L31.3,6L31.3,3.2L28.5,3.2L28.5,2.8z" stroke="none"/><path d="M20.8,7.3L20.8,5.8L22.5,5.8L22.5,6.2L21.2,6.2L21.2,7.7L19.7,7.7L19.7,8.8L27.2,8.8L27.2,10.3L34.5,10.3L34.5,10.7L26.8,10.7L26.8,9.2L19.3,9.2L19.3,7.7L9,7.7L9,7.3z" stroke="none"/><path d="M76.3,7.3L76.3,6.2L73.7,6.2L73.7,7.7L60.2,7.7L60.2,9L59.8,9L59.8,7.3L73.3,7.3L73.3,5.8L76.7,5.8L76.7,7.3L91.7,7.3L91.7,8.8L95.8,8.8L95.8,7.3L97.5,7.3L97.5,7.7L96.2,7.7L96.2,9.2L91.3,9.2L91.3,7.7L76.7,7.7L76.7,10.5L76.3,10.5L76.3,7.7L75.2,7.7L75.2,11.8L76.5,11.8L76.5,12.2L74.8,12.2L74.8,7.3z" stroke="none"/><path d="M34.3,5.8L34.3,4.3L35.8,4.3L35.8,2.8L39.2,2.8L39.2,4.3L40.7,4.3L40.7,5.8L45,5.8L45,6.2L40.3,6.2L40.3,4.7L38.8,4.7L38.8,3.2L36.2,3.2L36.2,4.7L34.7,4.7L34.7,5.8L37.3,5.8L37.3,4.5L37.7,4.5L37.7,6.2L34.7,6.2L34.7,7.3L42,7.3L42,7.7L34.3,7.7L34.3,6.2L33.2,6.2L33.2,7.7L26.8,7.7L26.8,6.2L23.8,6.2L23.8,4.7L15.2,4.7L15.2,6.2L6.2,6.2L6.2,7.7L4.5,7.7L4.5,7.3L5.8,7.3L5.8,5.8L14.8,5.8L14.8,4.3L24.2,4.3L24.2,5.8L27.2,5.8L27.2,7.3L32.8,7.3L32.8,5.8z" stroke="none"/><path d="M6,8.8L6,9.2L4.5,9.2L4.5,8.8z" stroke="none"/><path d="M63,4.3L63,4.7L61.5,4.7L61.5,4.3z" stroke="none"/><path d="M48.2,6L47.8,6L47.8,4.3L49.5,4.3L49.5,4.7L48.2,4.7z" stroke="none"/><path d="M92.8,3L93.2,3L93.2,4.3L94.7,4.3L94.7,7.7L93,7.7L93,7.3L94.3,7.3L94.3,4.7L92.8,4.7z" stroke="none"/><path d="M101.8,3L102.2,3L102.2,4.7L99.2,4.7L99.2,6.2L96,6.2L96,5.8L98.8,5.8L98.8,4.3L101.8,4.3z" stroke="none"/><path d="M100.5,2.8L100.5,3.2L94.3,3.2L94.3,1.7L91.7,1.7L91.7,5.8L93,5.8L93,6.2L91.3,6.2L91.3,1.3L94.7,1.3L94.7,2.8z" stroke="none"/><path d="M46.5,12.2L46.5,11.8L55.5,11.8L55.5,12.2z" stroke="none"/><path d="M69,10.3L69,10.7L58.3,10.7L58.3,5.8L60,5.8L60,6.2L58.7,6.2L58.7,10.3z" stroke="none"/><path d="M28.5,9.2L28.5,8.8L36.2,8.8L36.2,10.3L39,10.3L39,10.7L35.8,10.7L35.8,9.2z" stroke="none"/><path d="M89.8,9L90.2,9L90.2,10.3L97.3,10.3L97.3,8.8L100.3,8.8L100.3,7.5L100.7,7.5L100.7,9.2L97.7,9.2L97.7,10.7L89.8,10.7z" stroke="none"/><path d="M88.5,4.3L88.5,4.7L80.8,4.7L80.8,3.2L73.7,3.2L73.7,4.7L72.2,4.7L72.2,6L71.8,6L71.8,4.3L73.3,4.3L73.3,2.8L81.2,2.8L81.2,4.3z" stroke="none"/><path d="M85.5,10.7L85.5,10.3L88.7,10.3L88.7,11.8L98.8,11.8L98.8,10.3L101.8,10.3L101.8,9L102.2,9L102.2,10.7L99.2,10.7L99.2,12.2L88.3,12.2L88.3,10.7z" stroke="none"/><path d="M7.5,3.2L7.5,2.8L25.7,2.8L25.7,4.3L27,4.3L27,4.7L25.3,4.7L25.3,3.2z" stroke="none"/><path d="M61.5,11.8L61.5,12.2L56.8,12.2L56.8,10.7L40.3,10.7L40.3,9.2L37.5,9.2L37.5,8.8L40.7,8.8L40.7,10.3L57.2,10.3L57.2,11.8z" stroke="none"/><path d="M79.3,9L79.7,9L79.7,10.7L78.2,10.7L78.2,13.7L5.8,13.7L5.8,12.2L2.8,12.2L2.8,5.8L4.3,5.8L4.3,4.3L5.8,4.3L5.8,1.3L40.7,1.3L40.7,2.8L42.2,2.8L42.2,4.3L46.7,4.3L46.7,8.8L49.5,8.8L49.5,9.2L46.3,9.2L46.3,4.7L41.8,4.7L41.8,3.2L40.3,3.2L40.3,1.7L6.2,1.7L6.2,4.7L4.7,4.7L4.7,6.2L3.2,6.2L3.2,11.8L6.2,11.8L6.2,13.3L77.8,13.3L77.8,10.3L79.3,10.3z" stroke="none"/><path d="M46.5,3.2L46.5,2.8L71.8,2.8L71.8,1.3L90.2,1.3L90.2,6.2L79.3,6.2L79.3,4.5L79.7,4.5L79.7,5.8L89.8,5.8L89.8,1.7L72.2,1.7L72.2,3.2z" stroke="none"/></svg>