<svg version="1.1" width="105" height="15" xmlns="http://www.w3.org/2000/svg"><path d="M94.7,2.8L94.7,4.3L96.2,4.3L96.2,7.3L99,7.3L99,7.7L95.8,7.7L95.8,4.7L94.3,4.7L94.3,3.2L93.2,3.2L93.2,4.7L90,4.7L90,4.3L92.8,4.3L92.8,3.2L88.5,3.2L88.5,2.8z" stroke="none"/><path d="M76.3,8.8L76.3,7.3L82.5,7.3L82.5,7.7L76.7,7.7L76.7,9.2L60.2,9.2L60.2,11.8L63,11.8L63,12.2L59.8,12.2L59.8,9.2L40.5,9.2L40.5,8.8z" stroke="none"/><path d="M28.3,8.8L28.3,7.7L14.8,7.7L14.8,6.2L13.5,6.2L13.5,5.8L15.2,5.8L15.2,7.3L28.7,7.3L28.7,8.8L39.2,8.8L39.2,10.3L58.7,10.3L58.7,13.3L64.3,13.3L64.3,10.7L63,10.7L63,10.3L64.7,10.3L64.7,13.7L58.3,13.7L58.3,10.7L38.8,10.7L38.8,9.2L28.7,9.2L28.7,10.7L19.5,10.7L19.5,10.3L28.3,10.3L28.3,9.2L21,9.2L21,8.8z" stroke="none"/><path d="M85.3,7.3L85.3,6.2L73.5,6.2L73.5,5.8L85.7,5.8L85.7,7.3L94.3,7.3L94.3,6L94.7,6L94.7,7.7L85.7,7.7L85.7,8.8L99.2,8.8L99.2,10.5L98.8,10.5L98.8,9.2L85.3,9.2L85.3,7.7L84.2,7.7L84.2,9.2L78.2,9.2L78.2,10.5L77.8,10.5L77.8,8.8L83.8,8.8L83.8,7.3z" stroke="none"/><path d="M85.5,2.8L85.5,3.2L84,3.2L84,2.8z" stroke="none"/><path d="M11.8,3L12.2,3L12.2,4.5L11.8,4.5z" stroke="none"/><path d="M16.5,6.2L16.5,5.8L18,5.8L18,6.2z" stroke="none"/><path d="M72.2,6L71.8,6L71.8,4.3L73.5,4.3L73.5,4.7L72.2,4.7z" stroke="none"/><path d="M4.5,10.7L4.5,10.3L8.8,10.3L8.8,8.8L10.5,8.8L10.5,9.2L9.2,9.2L9.2,10.7z" stroke="none"/><path d="M43.5,11.8L43.5,12.2L36,12.2L36,11.8z" stroke="none"/><path d="M88.5,12.2L88.5,11.8L95.8,11.8L95.8,10.5L96.2,10.5L96.2,12.2z" stroke="none"/><path d="M55.5,3.2L55.5,2.8L63.2,2.8L63.2,4.3L64.5,4.3L64.5,4.7L62.8,4.7L62.8,3.2z" stroke="none"/><path d="M54,7.3L54,7.7L44.8,7.7L44.8,6.2L39,6.2L39,5.8L45.2,5.8L45.2,7.3z" stroke="none"/><path d="M12,10.7L12,10.3L18.2,10.3L18.2,11.8L27,11.8L27,12.2L17.8,12.2L17.8,10.7z" stroke="none"/><path d="M55.7,7.5L55.3,7.5L55.3,6.2L46.3,6.2L46.3,4.7L40.5,4.7L40.5,4.3L46.7,4.3L46.7,5.8L55.7,5.8z" stroke="none"/><path d="M49.5,4.3L49.5,4.7L47.8,4.7L47.8,3.2L33,3.2L33,2.8L48.2,2.8L48.2,4.3z" stroke="none"/><path d="M61.5,6.2L61.5,5.8L65.8,5.8L65.8,4.3L70.3,4.3L70.3,2.8L80.8,2.8L80.8,1.3L97.7,1.3L97.7,2.8L99.2,2.8L99.2,4.3L100.7,4.3L100.7,12.2L97.7,12.2L97.7,13.7L82.3,13.7L82.3,12.2L79.3,12.2L79.3,10.5L79.7,10.5L79.7,11.8L82.7,11.8L82.7,13.3L97.3,13.3L97.3,11.8L100.3,11.8L100.3,4.7L98.8,4.7L98.8,3.2L97.3,3.2L97.3,1.7L81.2,1.7L81.2,3.2L70.7,3.2L70.7,4.7L66.2,4.7L66.2,6.2z" stroke="none"/><path d="M9,3.2L9,2.8L10.3,2.8L10.3,1.3L30.2,1.3L30.2,3L29.8,3L29.8,1.7L10.7,1.7L10.7,3.2z" stroke="none"/><path d="M22.5,6.2L22.5,5.8L34.7,5.8L34.7,7.3L43.5,7.3L43.5,7.7L34.3,7.7L34.3,6.2z" stroke="none"/><path d="M67.3,6L67.7,6L67.7,7.7L58.3,7.7L58.3,6.2L56.8,6.2L56.8,4.7L52.3,4.7L52.3,3.2L49.3,3.2L49.3,1.7L31.7,1.7L31.7,4.7L17.8,4.7L17.8,3L18.2,3L18.2,4.3L31.3,4.3L31.3,1.3L49.7,1.3L49.7,2.8L52.7,2.8L52.7,4.3L57.2,4.3L57.2,5.8L58.7,5.8L58.7,7.3L67.3,7.3z" stroke="none"/></svg>