<svg version="1.1" width="105" height="15" xmlns="http://www.w3.org/2000/svg"><path d="M76.3,11.8L76.3,10.3L81,10.3L81,10.7L76.7,10.7L76.7,12.2L58.7,12.2L58.7,13.7L40.3,13.7L40.3,12.2L35.8,12.2L35.8,10.7L34.5,10.7L34.5,10.3L36.2,10.3L36.2,11.8L40.7,11.8L40.7,13.3L58.3,13.3L58.3,12.2L55.5,12.2L55.5,11.8z" stroke="none"/><path d="M73.3,5.8L73.3,4.5L73.7,4.5L73.7,6.2L70.7,6.2L70.7,7.3L82.5,7.3L82.5,7.7L70.3,7.7L70.3,6.2L61.7,6.2L61.7,7.5L61.3,7.5L61.3,5.8z" stroke="none"/><path d="M41.8,5.8L41.8,4.7L34.5,4.7L34.5,4.3L42.2,4.3L42.2,5.8L45,5.8L45,6.2L42.2,6.2L42.2,7.3L58.3,7.3L58.3,6L58.7,6L58.7,7.7L41.8,7.7L41.8,6.2L40.7,6.2L40.7,7.7L39,7.7L39,7.3L40.3,7.3L40.3,5.8z" stroke="none"/><path d="M32.8,7.3L32.8,2.8L45.2,2.8L45.2,4.3L51.2,4.3L51.2,5.8L56.8,5.8L56.8,4.3L60.2,4.3L60.2,9.2L58.7,9.2L58.7,10.7L52.5,10.7L52.5,10.3L58.3,10.3L58.3,8.8L59.8,8.8L59.8,4.7L57.2,4.7L57.2,6.2L50.8,6.2L50.8,4.7L44.8,4.7L44.8,3.2L33.2,3.2L33.2,7.3L34.7,7.3L34.7,8.8L49.5,8.8L49.5,9.2L34.3,9.2L34.3,7.7L33.2,7.7L33.2,9.2L31.7,9.2L31.7,10.7L12,10.7L12,10.3L31.3,10.3L31.3,8.8L32.8,8.8L32.8,7.7L22.3,7.7L22.3,6.2L19.5,6.2L19.5,5.8L22.7,5.8L22.7,7.3z" stroke="none"/><path d="M30,12.2L30,11.8L31.5,11.8L31.5,12.2z" stroke="none"/><path d="M57,2.8L57,3.2L55.7,3.2L55.7,4.5L55.3,4.5L55.3,2.8z" stroke="none"/><path d="M3,8.8L3,9.2L1.3,9.2L1.3,5.8L3,5.8L3,6.2L1.7,6.2L1.7,8.8z" stroke="none"/><path d="M69,2.8L69,3.2L64.7,3.2L64.7,4.5L64.3,4.5L64.3,2.8z" stroke="none"/><path d="M3,7.7L3,7.3L7.7,7.3L7.7,8.8L9,8.8L9,9.2L7.3,9.2L7.3,7.7z" stroke="none"/><path d="M91.5,10.7L91.5,10.3L94.3,10.3L94.3,7.3L95.8,7.3L95.8,6L96.2,6L96.2,7.7L94.7,7.7L94.7,10.7z" stroke="none"/><path d="M9,5.8L9,6.2L4.3,6.2L4.3,3.2L3,3.2L3,2.8L4.7,2.8L4.7,5.8z" stroke="none"/><path d="M82.5,5.8L82.5,6.2L75,6.2L75,5.8z" stroke="none"/><path d="M88.5,7.7L88.5,7.3L91.3,7.3L91.3,2.8L96,2.8L96,3.2L91.7,3.2L91.7,7.7z" stroke="none"/><path d="M30,2.8L30,3.2L16.7,3.2L16.7,7.3L21,7.3L21,7.7L16.3,7.7L16.3,2.8z" stroke="none"/><path d="M18.2,6L17.8,6L17.8,4.3L27.2,4.3L27.2,5.8L28.5,5.8L28.5,6.2L26.8,6.2L26.8,4.7L18.2,4.7z" stroke="none"/><path d="M87,12.2L87,11.8L97.3,11.8L97.3,10.5L97.7,10.5L97.7,12.2z" stroke="none"/><path d="M45,12.2L45,11.8L47.8,11.8L47.8,10.3L50.8,10.3L50.8,8.8L57,8.8L57,9.2L51.2,9.2L51.2,10.7L48.2,10.7L48.2,12.2z" stroke="none"/><path d="M34.3,12L34.7,12L34.7,13.7L23.8,13.7L23.8,12.2L21,12.2L21,11.8L24.2,11.8L24.2,13.3L34.3,13.3z" stroke="none"/><path d="M85.3,9L85.7,9L85.7,13.3L98.8,13.3L98.8,10.3L102,10.3L102,10.7L99.2,10.7L99.2,13.7L85.3,13.7z" stroke="none"/><path d="M73.5,9.2L73.5,8.8L83.8,8.8L83.8,4.7L74.8,4.7L74.8,3.2L70.3,3.2L70.3,1.7L15.2,1.7L15.2,8.8L28.5,8.8L28.5,9.2L14.8,9.2L14.8,1.3L70.7,1.3L70.7,2.8L75.2,2.8L75.2,4.3L84.2,4.3L84.2,9.2z" stroke="none"/></svg>