<svg version="1.1" width="105" height="15" xmlns="http://www.w3.org/2000/svg"><path d="M46.3,2.8L46.3,1.7L34.7,1.7L34.7,4.5L34.3,4.5L34.3,1.3L46.7,1.3L46.7,2.8L64.5,2.8L64.5,3.2L42.2,3.2L42.2,4.5L41.8,4.5L41.8,2.8z" stroke="none"/><path d="M52.7,5.8L52.7,9L52.3,9L52.3,6.2L25.7,6.2L25.7,7.7L5.8,7.7L5.8,6.2L4.5,6.2L4.5,5.8L6.2,5.8L6.2,7.3L25.3,7.3L25.3,6.2L22.3,6.2L22.3,4.7L19.5,4.7L19.5,4.3L22.7,4.3L22.7,5.8z" stroke="none"/><path d="M71.8,8.8L71.8,7.3L79.5,7.3L79.5,7.7L72.2,7.7L72.2,8.8L76.7,8.8L76.7,10.3L78,10.3L78,10.7L76.3,10.7L76.3,9.2L72.2,9.2L72.2,10.3L75.2,10.3L75.2,11.8L85.5,11.8L85.5,12.2L74.8,12.2L74.8,10.7L71.8,10.7L71.8,9.2L70.7,9.2L70.7,10.7L69.2,10.7L69.2,12.2L52.3,12.2L52.3,10.7L46.5,10.7L46.5,10.3L52.7,10.3L52.7,11.8L68.8,11.8L68.8,10.3L70.3,10.3L70.3,8.8z" stroke="none"/><path d="M65.8,7.3L65.8,5.8L76.3,5.8L76.3,4.3L85.7,4.3L85.7,5.8L96,5.8L96,6.2L85.3,6.2L85.3,4.7L76.7,4.7L76.7,6.2L66.2,6.2L66.2,7.3L67.7,7.3L67.7,10.7L56.8,10.7L56.8,9.2L53.8,9.2L53.8,7.5L54.2,7.5L54.2,8.8L57.2,8.8L57.2,10.3L67.3,10.3L67.3,7.7L66.2,7.7L66.2,9.2L58.5,9.2L58.5,8.8L65.8,8.8L65.8,7.7L62.8,7.7L62.8,6.2L59.8,6.2L59.8,4.5L60.2,4.5L60.2,5.8L63.2,5.8L63.2,7.3z" stroke="none"/><path d="M9,6.2L9,5.8L10.5,5.8L10.5,6.2z" stroke="none"/><path d="M70.7,4.5L70.3,4.5L70.3,2.8L72,2.8L72,3.2L70.7,3.2z" stroke="none"/><path d="M33,7.7L33,7.3L36.2,7.3L36.2,9L35.8,9L35.8,7.7z" stroke="none"/><path d="M100.3,6L100.7,6L100.7,8.8L102,8.8L102,9.2L100.3,9.2z" stroke="none"/><path d="M7.5,12.2L7.5,11.8L12,11.8L12,12.2z" stroke="none"/><path d="M67.5,4.3L67.5,4.7L63,4.7L63,4.3z" stroke="none"/><path d="M28.5,9.2L28.5,8.8L34.5,8.8L34.5,9.2z" stroke="none"/><path d="M49.5,8.8L49.5,9.2L43.7,9.2L43.7,12.2L42,12.2L42,11.8L43.3,11.8L43.3,8.8z" stroke="none"/><path d="M90,4.7L90,4.3L97.7,4.3L97.7,7.7L80.8,7.7L80.8,6.2L79.5,6.2L79.5,5.8L81.2,5.8L81.2,7.3L97.3,7.3L97.3,4.7z" stroke="none"/><path d="M9,4.7L9,4.3L18.2,4.3L18.2,5.8L21,5.8L21,6.2L17.8,6.2L17.8,4.7z" stroke="none"/><path d="M96,8.8L96,9.2L82.5,9.2L82.5,8.8z" stroke="none"/><path d="M100.5,4.3L100.5,4.7L98.8,4.7L98.8,3.2L85.5,3.2L85.5,2.8L99.2,2.8L99.2,4.3z" stroke="none"/><path d="M27,11.8L27,12.2L17.8,12.2L17.8,10.7L7.5,10.7L7.5,10.3L18.2,10.3L18.2,11.8z" stroke="none"/><path d="M7.7,6L7.3,6L7.3,2.8L30,2.8L30,3.2L7.7,3.2z" stroke="none"/><path d="M28.5,10.3L28.5,10.7L19.3,10.7L19.3,9.2L4.5,9.2L4.5,8.8L19.7,8.8L19.7,10.3z" stroke="none"/><path d="M28.5,4.7L28.5,4.3L31.3,4.3L31.3,1.7L6.2,1.7L6.2,4.7L3.2,4.7L3.2,10.3L6.2,10.3L6.2,13.3L98.8,13.3L98.8,11.8L100.3,11.8L100.3,10.3L103.3,10.3L103.3,4.7L101.8,4.7L101.8,3.2L100.3,3.2L100.3,1.7L76.7,1.7L76.7,3L76.3,3L76.3,1.3L100.7,1.3L100.7,2.8L102.2,2.8L102.2,4.3L103.7,4.3L103.7,10.7L100.7,10.7L100.7,12.2L99.2,12.2L99.2,13.7L5.8,13.7L5.8,10.7L2.8,10.7L2.8,4.3L5.8,4.3L5.8,1.3L31.7,1.3L31.7,4.7z" stroke="none"/></svg>