<svg version="1.1" width="105" height="15" xmlns="http://www.w3.org/2000/svg"><path d="M58.3,8.8L58.3,6.2L57,6.2L57,5.8L58.7,5.8L58.7,8.8L69.2,8.8L69.2,10.3L70.5,10.3L70.5,10.7L68.8,10.7L68.8,9.2L49.7,9.2L49.7,10.7L48,10.7L48,10.3L49.3,10.3L49.3,8.8z" stroke="none"/><path d="M61.3,4.3L61.3,2.8L72.2,2.8L72.2,4.5L71.8,4.5L71.8,3.2L61.7,3.2L61.7,4.3L70.7,4.3L70.7,7.5L70.3,7.5L70.3,4.7L53.8,4.7L53.8,3.2L45,3.2L45,2.8L54.2,2.8L54.2,4.3z" stroke="none"/><path d="M41.8,8.8L41.8,7.7L39,7.7L39,7.3L42.2,7.3L42.2,8.8L47.8,8.8L47.8,7.5L48.2,7.5L48.2,9.2L42.2,9.2L42.2,10.3L46.7,10.3L46.7,11.8L64.5,11.8L64.5,12.2L46.3,12.2L46.3,10.7L41.8,10.7L41.8,9.2L39.2,9.2L39.2,10.7L28.7,10.7L28.7,12.2L14.8,12.2L14.8,9L15.2,9L15.2,11.8L28.3,11.8L28.3,10.3L38.8,10.3L38.8,8.8z" stroke="none"/><path d="M31.3,5.8L31.3,4.3L48,4.3L48,4.7L31.7,4.7L31.7,5.8L46.7,5.8L46.7,7.5L46.3,7.5L46.3,6.2L31.7,6.2L31.7,7.7L30.2,7.7L30.2,9.2L27.2,9.2L27.2,10.7L22.3,10.7L22.3,9.2L20.8,9.2L20.8,7.7L19.3,7.7L19.3,6.2L6,6.2L6,5.8L19.7,5.8L19.7,7.3L21.2,7.3L21.2,8.8L22.7,8.8L22.7,10.3L26.8,10.3L26.8,8.8L29.8,8.8L29.8,7.3L31.3,7.3L31.3,6.2L28.7,6.2L28.7,7.7L25.7,7.7L25.7,9L25.3,9L25.3,7.3L28.3,7.3L28.3,5.8z" stroke="none"/><path d="M96.2,9L95.8,9L95.8,7.3L97.5,7.3L97.5,7.7L96.2,7.7z" stroke="none"/><path d="M101.8,9L102.2,9L102.2,12L101.8,12z" stroke="none"/><path d="M16.7,10.5L16.3,10.5L16.3,7.3L18,7.3L18,7.7L16.7,7.7z" stroke="none"/><path d="M5.8,9L6.2,9L6.2,10.3L7.7,10.3L7.7,11.8L9,11.8L9,12.2L7.3,12.2L7.3,10.7L5.8,10.7z" stroke="none"/><path d="M91.5,12.2L91.5,11.8L95.8,11.8L95.8,10.5L96.2,10.5L96.2,12.2z" stroke="none"/><path d="M12,7.3L12,7.7L9.2,7.7L9.2,9.2L7.5,9.2L7.5,8.8L8.8,8.8L8.8,7.3z" stroke="none"/><path d="M93.2,7.5L92.8,7.5L92.8,4.7L89.8,4.7L89.8,3L90.2,3L90.2,4.3L93.2,4.3z" stroke="none"/><path d="M90,7.7L90,7.3L91.7,7.3L91.7,8.8L94.7,8.8L94.7,10.5L94.3,10.5L94.3,9.2L91.3,9.2L91.3,7.7z" stroke="none"/><path d="M87.2,10.5L86.8,10.5L86.8,9.2L85.3,9.2L85.3,6.2L84,6.2L84,5.8L85.7,5.8L85.7,8.8L87.2,8.8z" stroke="none"/><path d="M79.5,2.8L79.5,3.2L78.2,3.2L78.2,4.7L73.7,4.7L73.7,6.2L72,6.2L72,5.8L73.3,5.8L73.3,4.3L77.8,4.3L77.8,2.8z" stroke="none"/><path d="M87,11.8L87,12.2L76.3,12.2L76.3,10.5L76.7,10.5L76.7,11.8z" stroke="none"/><path d="M88.5,4.3L88.5,4.7L81.2,4.7L81.2,6.2L78.2,6.2L78.2,7.7L76.5,7.7L76.5,7.3L77.8,7.3L77.8,5.8L80.8,5.8L80.8,4.3z" stroke="none"/><path d="M6,3.2L6,2.8L21,2.8L21,3.2z" stroke="none"/><path d="M19.5,4.7L19.5,4.3L28.3,4.3L28.3,2.8L42,2.8L42,3.2L28.7,3.2L28.7,4.7z" stroke="none"/><path d="M58.5,3.2L58.5,2.8L59.8,2.8L59.8,1.3L97.7,1.3L97.7,2.8L99.2,2.8L99.2,13.7L89.8,13.7L89.8,9.2L88.3,9.2L88.3,5.8L91.5,5.8L91.5,6.2L88.7,6.2L88.7,8.8L90.2,8.8L90.2,13.3L98.8,13.3L98.8,3.2L97.3,3.2L97.3,1.7L60.2,1.7L60.2,3.2z" stroke="none"/><path d="M30,12.2L30,11.8L43.7,11.8L43.7,13.3L68.8,13.3L68.8,11.8L71.8,11.8L71.8,7.3L75,7.3L75,7.7L72.2,7.7L72.2,12.2L69.2,12.2L69.2,13.7L43.3,13.7L43.3,12.2z" stroke="none"/></svg>