<svg version="1.1" width="105" height="15" xmlns="http://www.w3.org/2000/svg"><path d="M85.3,10.3L85.3,7.5L85.7,7.5L85.7,10.3L92.8,10.3L92.8,8.8L94.3,8.8L94.3,7.3L97.5,7.3L97.5,7.7L94.7,7.7L94.7,9.2L93.2,9.2L93.2,10.7L79.7,10.7L79.7,12L79.3,12L79.3,10.3z" stroke="none"/><path d="M34.3,11.8L34.3,10.7L29.8,10.7L29.8,9.2L28.5,9.2L28.5,8.8L30.2,8.8L30.2,10.3L34.7,10.3L34.7,11.8L39,11.8L39,12.2L31.5,12.2L31.5,11.8z" stroke="none"/><path d="M70.3,4.3L70.3,3.2L57.2,3.2L57.2,4.7L49.5,4.7L49.5,4.3L56.8,4.3L56.8,2.8L70.7,2.8L70.7,4.3L80.8,4.3L80.8,3L81.2,3L81.2,4.7L70.7,4.7L70.7,5.8L72.2,5.8L72.2,7.5L71.8,7.5L71.8,6.2L70.3,6.2L70.3,4.7L69.2,4.7L69.2,7.3L70.7,7.3L70.7,8.8L74.8,8.8L74.8,7.3L81,7.3L81,7.7L75.2,7.7L75.2,9.2L70.3,9.2L70.3,7.7L68.8,7.7L68.8,4.3z" stroke="none"/><path d="M35.8,5.8L35.8,4.7L31.3,4.7L31.3,3.2L16.7,3.2L16.7,4.7L12,4.7L12,4.3L16.3,4.3L16.3,2.8L31.7,2.8L31.7,4.3L36.2,4.3L36.2,5.8L46.5,5.8L46.5,6.2L36.2,6.2L36.2,7.3L50.8,7.3L50.8,5.8L58.7,5.8L58.7,7.5L58.3,7.5L58.3,6.2L51.2,6.2L51.2,7.7L35.8,7.7L35.8,6.2L31.7,6.2L31.7,7.5L31.3,7.5L31.3,5.8z" stroke="none"/><path d="M76.5,3.2L76.5,2.8L78,2.8L78,3.2z" stroke="none"/><path d="M97.5,12.2L97.5,11.8L100.5,11.8L100.5,12.2z" stroke="none"/><path d="M17.8,7.5L18.2,7.5L18.2,10.7L16.5,10.7L16.5,10.3L17.8,10.3z" stroke="none"/><path d="M52.5,7.7L52.5,7.3L57,7.3L57,7.7z" stroke="none"/><path d="M12.2,10.5L11.8,10.5L11.8,6.2L10.5,6.2L10.5,5.8L12.2,5.8z" stroke="none"/><path d="M88.5,9.2L88.5,8.8L91.3,8.8L91.3,5.8L92.8,5.8L92.8,4.5L93.2,4.5L93.2,6.2L91.7,6.2L91.7,9.2z" stroke="none"/><path d="M34.5,9.2L34.5,8.8L42,8.8L42,9.2z" stroke="none"/><path d="M88.5,6.2L88.5,5.8L89.8,5.8L89.8,4.3L91.3,4.3L91.3,2.8L94.7,2.8L94.7,4.3L97.7,4.3L97.7,5.8L99.2,5.8L99.2,9.2L97.5,9.2L97.5,8.8L98.8,8.8L98.8,6.2L97.3,6.2L97.3,4.7L94.3,4.7L94.3,3.2L91.7,3.2L91.7,4.7L90.2,4.7L90.2,6.2z" stroke="none"/><path d="M42,3.2L42,2.8L54,2.8L54,3.2z" stroke="none"/><path d="M75,10.3L75,10.7L64.7,10.7L64.7,12.2L63,12.2L63,11.8L64.3,11.8L64.3,10.3z" stroke="none"/><path d="M18,6.2L18,5.8L26.8,5.8L26.8,4.3L30,4.3L30,4.7L27.2,4.7L27.2,6.2z" stroke="none"/><path d="M33,3.2L33,2.8L39.2,2.8L39.2,4.3L45,4.3L45,4.7L38.8,4.7L38.8,3.2z" stroke="none"/><path d="M76.3,12L76.7,12L76.7,13.3L88.3,13.3L88.3,11.8L90,11.8L90,12.2L88.7,12.2L88.7,13.7L76.3,13.7z" stroke="none"/><path d="M6,10.7L6,10.3L9.2,10.3L9.2,11.8L19.5,11.8L19.5,12.2L8.8,12.2L8.8,10.7z" stroke="none"/><path d="M57,10.3L57,10.7L37.5,10.7L37.5,10.3z" stroke="none"/><path d="M88.5,7.3L88.5,7.7L86.8,7.7L86.8,6.2L82.3,6.2L82.3,1.7L13.7,1.7L13.7,3.2L9.2,3.2L9.2,4.7L7.7,4.7L7.7,6.2L4.7,6.2L4.7,11.8L6.2,11.8L6.2,13.3L58.3,13.3L58.3,9L58.7,9L58.7,13.7L5.8,13.7L5.8,12.2L4.3,12.2L4.3,5.8L7.3,5.8L7.3,4.3L8.8,4.3L8.8,2.8L13.3,2.8L13.3,1.3L82.7,1.3L82.7,5.8L87.2,5.8L87.2,7.3z" stroke="none"/></svg>