<svg version="1.1" width="105" height="15" xmlns="http://www.w3.org/2000/svg"><path d="M17.8,7.3L17.8,6.2L13.5,6.2L13.5,5.8L18.2,5.8L18.2,10.5L17.8,10.5L17.8,7.7L15,7.7L15,7.3z" stroke="none"/><path d="M19.3,4.3L19.3,3.2L16.5,3.2L16.5,2.8L19.7,2.8L19.7,4.3L29.8,4.3L29.8,3L30.2,3L30.2,4.7L10.7,4.7L10.7,7.5L10.3,7.5L10.3,4.3z" stroke="none"/><path d="M50.8,2.8L50.8,1.3L70.7,1.3L70.7,4.5L70.3,4.5L70.3,1.7L51.2,1.7L51.2,2.8L54,2.8L54,3.2L51.2,3.2L51.2,4.7L36,4.7L36,4.3L50.8,4.3L50.8,3.2L46.5,3.2L46.5,2.8z" stroke="none"/><path d="M91.3,7.3L91.3,5.8L92.8,5.8L92.8,4.5L93.2,4.5L93.2,6.2L91.7,6.2L91.7,7.3L97.7,7.3L97.7,8.8L100.5,8.8L100.5,9.2L97.3,9.2L97.3,7.7L91.7,7.7L91.7,9.2L88.5,9.2L88.5,8.8L91.3,8.8L91.3,7.7L88.3,7.7L88.3,6.2L82.7,6.2L82.7,7.7L79.5,7.7L79.5,7.3L82.3,7.3L82.3,5.8L88.7,5.8L88.7,7.3z" stroke="none"/><path d="M67.5,4.3L67.5,4.7L66,4.7L66,4.3z" stroke="none"/><path d="M12,3.2L12,2.8L15,2.8L15,3.2z" stroke="none"/><path d="M46.5,10.7L46.5,10.3L47.8,10.3L47.8,8.8L49.3,8.8L49.3,7.3L51,7.3L51,7.7L49.7,7.7L49.7,9.2L48.2,9.2L48.2,10.7z" stroke="none"/><path d="M13.5,8.8L13.5,9.2L9.2,9.2L9.2,10.7L4.5,10.7L4.5,10.3L8.8,10.3L8.8,8.8z" stroke="none"/><path d="M24,3.2L24,2.8L28.3,2.8L28.3,1.3L31.7,1.3L31.7,5.8L33.2,5.8L33.2,7.5L32.8,7.5L32.8,6.2L31.3,6.2L31.3,1.7L28.7,1.7L28.7,3.2z" stroke="none"/><path d="M22.5,10.7L22.5,10.3L33,10.3L33,10.7z" stroke="none"/><path d="M102,7.3L102,7.7L98.8,7.7L98.8,6.2L97.3,6.2L97.3,4.7L94.3,4.7L94.3,3.2L91.7,3.2L91.7,4.5L91.3,4.5L91.3,2.8L94.7,2.8L94.7,4.3L97.7,4.3L97.7,5.8L99.2,5.8L99.2,7.3z" stroke="none"/><path d="M87,12.2L87,11.8L99,11.8L99,12.2z" stroke="none"/><path d="M43.5,7.3L43.5,7.7L40.7,7.7L40.7,9.2L39.2,9.2L39.2,10.7L37.7,10.7L37.7,12.2L31.5,12.2L31.5,11.8L37.3,11.8L37.3,10.3L38.8,10.3L38.8,8.8L40.3,8.8L40.3,7.3z" stroke="none"/><path d="M54,6.2L54,5.8L63.2,5.8L63.2,7.3L67.7,7.3L67.7,8.8L69,8.8L69,9.2L67.3,9.2L67.3,7.7L62.8,7.7L62.8,6.2z" stroke="none"/><path d="M86.8,9L87.2,9L87.2,10.3L101.8,10.3L101.8,8.8L103.3,8.8L103.3,6.2L102,6.2L102,5.8L103.7,5.8L103.7,9.2L102.2,9.2L102.2,10.7L86.8,10.7z" stroke="none"/><path d="M63,12.2L63,11.8L82.3,11.8L82.3,10.3L83.8,10.3L83.8,8.8L85.3,8.8L85.3,7.5L85.7,7.5L85.7,9.2L84.2,9.2L84.2,10.7L82.7,10.7L82.7,12.2z" stroke="none"/><path d="M30,8.8L30,9.2L19.7,9.2L19.7,12.2L6,12.2L6,11.8L19.3,11.8L19.3,8.8z" stroke="none"/><path d="M43.5,10.7L43.5,10.3L45.2,10.3L45.2,11.8L56.8,11.8L56.8,10.3L69,10.3L69,10.7L57.2,10.7L57.2,12.2L44.8,12.2L44.8,10.7z" stroke="none"/><path d="M64.5,6.2L64.5,5.8L79.3,5.8L79.3,1.3L96.2,1.3L96.2,3L95.8,3L95.8,1.7L79.7,1.7L79.7,6.2z" stroke="none"/><path d="M10.5,2.8L10.5,3.2L9.2,3.2L9.2,6.2L4.7,6.2L4.7,7.7L3.2,7.7L3.2,11.8L4.7,11.8L4.7,13.3L41.8,13.3L41.8,8.8L46.3,8.8L46.3,7.3L47.8,7.3L47.8,5.8L52.3,5.8L52.3,4.3L55.5,4.3L55.5,4.7L52.7,4.7L52.7,6.2L48.2,6.2L48.2,7.7L46.7,7.7L46.7,9.2L42.2,9.2L42.2,13.7L4.3,13.7L4.3,12.2L2.8,12.2L2.8,7.3L4.3,7.3L4.3,5.8L8.8,5.8L8.8,2.8z" stroke="none"/></svg>