<svg version="1.1" width="105" height="15" xmlns="http://www.w3.org/2000/svg"><path d="M72,2.8L72,3.2L69.2,3.2L69.2,4.3L88.5,4.3L88.5,4.7L68.8,4.7L68.8,3.2L51.2,3.2L51.2,4.5L50.8,4.5L50.8,2.8z" stroke="none"/><path d="M94.7,7.3L94.7,8.8L96,8.8L96,9.2L94.3,9.2L94.3,7.7L78.2,7.7L78.2,9.2L70.5,9.2L70.5,8.8L77.8,8.8L77.8,7.7L70.3,7.7L70.3,6L70.7,6L70.7,7.3z" stroke="none"/><path d="M19.3,10.3L19.3,9.2L9,9.2L9,8.8L19.7,8.8L19.7,10.3L36.2,10.3L36.2,11.8L46.3,11.8L46.3,10.3L48,10.3L48,10.7L46.7,10.7L46.7,12.2L35.8,12.2L35.8,10.7L19.7,10.7L19.7,12.2L7.5,12.2L7.5,11.8L19.3,11.8L19.3,10.7L16.5,10.7L16.5,10.3z" stroke="none"/><path d="M56.8,8.8L56.8,7.3L61.3,7.3L61.3,5.8L63,5.8L63,6.2L61.7,6.2L61.7,7.7L57.2,7.7L57.2,8.8L60.2,8.8L60.2,10.3L61.5,10.3L61.5,10.7L59.8,10.7L59.8,9.2L57.2,9.2L57.2,10.3L58.7,10.3L58.7,11.8L64.3,11.8L64.3,10.3L66,10.3L66,10.7L64.7,10.7L64.7,12.2L58.3,12.2L58.3,10.7L56.8,10.7L56.8,9.2L37.7,9.2L37.7,10.5L37.3,10.5L37.3,8.8z" stroke="none"/><path d="M76.5,11.8L76.5,12.2L73.5,12.2L73.5,11.8z" stroke="none"/><path d="M42,3.2L42,2.8L43.7,2.8L43.7,4.3L45,4.3L45,4.7L43.3,4.7L43.3,3.2z" stroke="none"/><path d="M21,2.8L21,3.2L19.7,3.2L19.7,6L19.3,6L19.3,2.8z" stroke="none"/><path d="M100.3,10.5L100.7,10.5L100.7,12.2L97.5,12.2L97.5,11.8L100.3,11.8z" stroke="none"/><path d="M28.5,4.7L28.5,4.3L34.3,4.3L34.3,3L34.7,3L34.7,4.7z" stroke="none"/><path d="M99.2,10.5L98.8,10.5L98.8,9.2L97.3,9.2L97.3,7.7L95.8,7.7L95.8,6.2L94.5,6.2L94.5,5.8L96.2,5.8L96.2,7.3L97.7,7.3L97.7,8.8L99.2,8.8z" stroke="none"/><path d="M10.5,10.3L10.5,10.7L7.3,10.7L7.3,7.3L13.3,7.3L13.3,5.8L15,5.8L15,6.2L13.7,6.2L13.7,7.7L7.7,7.7L7.7,10.3z" stroke="none"/><path d="M9,4.3L9,4.7L7.7,4.7L7.7,6.2L3.2,6.2L3.2,9L2.8,9L2.8,5.8L7.3,5.8L7.3,4.3z" stroke="none"/><path d="M17.8,4.5L18.2,4.5L18.2,7.3L25.5,7.3L25.5,7.7L17.8,7.7z" stroke="none"/><path d="M42,4.3L42,4.7L40.7,4.7L40.7,6.2L34.7,6.2L34.7,9.2L31.5,9.2L31.5,8.8L34.3,8.8L34.3,5.8L40.3,5.8L40.3,4.3z" stroke="none"/><path d="M33,2.8L33,3.2L22.7,3.2L22.7,4.7L21,4.7L21,4.3L22.3,4.3L22.3,2.8z" stroke="none"/><path d="M45,6.2L45,5.8L59.8,5.8L59.8,4.3L64.5,4.3L64.5,4.7L60.2,4.7L60.2,6.2z" stroke="none"/><path d="M67.3,6L67.7,6L67.7,10.3L70.7,10.3L70.7,11.8L72.2,11.8L72.2,13.3L101.8,13.3L101.8,7.7L100.3,7.7L100.3,6.2L97.3,6.2L97.3,4.7L89.8,4.7L89.8,3.2L73.3,3.2L73.3,1.7L46.7,1.7L46.7,4.5L46.3,4.5L46.3,1.3L73.7,1.3L73.7,2.8L90.2,2.8L90.2,4.3L97.7,4.3L97.7,5.8L100.7,5.8L100.7,7.3L102.2,7.3L102.2,13.7L71.8,13.7L71.8,12.2L70.3,12.2L70.3,10.7L67.3,10.7z" stroke="none"/><path d="M97.5,10.3L97.5,10.7L72,10.7L72,10.3z" stroke="none"/><path d="M45.2,3L44.8,3L44.8,1.7L16.7,1.7L16.7,3.2L13.7,3.2L13.7,4.7L10.5,4.7L10.5,4.3L13.3,4.3L13.3,2.8L16.3,2.8L16.3,1.3L45.2,1.3z" stroke="none"/><path d="M54,10.3L54,10.7L49.7,10.7L49.7,12.2L48.2,12.2L48.2,13.7L5.8,13.7L5.8,9L6.2,9L6.2,13.3L47.8,13.3L47.8,11.8L49.3,11.8L49.3,10.3z" stroke="none"/></svg>