<svg version="1.1" width="105" height="15" xmlns="http://www.w3.org/2000/svg"><path d="M37.5,2.8L37.5,3.2L31.7,3.2L31.7,4.3L33.2,4.3L33.2,6L32.8,6L32.8,4.7L31.3,4.7L31.3,3.2L21.2,3.2L21.2,4.5L20.8,4.5L20.8,2.8z" stroke="none"/><path d="M64.3,7.3L64.3,5.8L76.5,5.8L76.5,6.2L64.7,6.2L64.7,7.3L76.7,7.3L76.7,9L76.3,9L76.3,7.7L48.2,7.7L48.2,9.2L42,9.2L42,8.8L47.8,8.8L47.8,7.3z" stroke="none"/><path d="M83.8,7.3L83.8,4.5L84.2,4.5L84.2,7.3L91.7,7.3L91.7,8.8L99,8.8L99,9.2L91.3,9.2L91.3,7.7L84.2,7.7L84.2,10.7L73.3,10.7L73.3,9.2L69,9.2L69,8.8L73.7,8.8L73.7,10.3L83.8,10.3L83.8,7.7L82.7,7.7L82.7,9.2L81,9.2L81,8.8L82.3,8.8L82.3,7.3z" stroke="none"/><path d="M23.8,8.8L23.8,7.7L17.8,7.7L17.8,6.2L7.7,6.2L7.7,7.7L6.2,7.7L6.2,9L5.8,9L5.8,7.3L7.3,7.3L7.3,5.8L18.2,5.8L18.2,7.3L24.2,7.3L24.2,8.8L40.7,8.8L40.7,10.3L53.8,10.3L53.8,9L54.2,9L54.2,10.7L40.3,10.7L40.3,9.2L24.2,9.2L24.2,10.7L22.7,10.7L22.7,12.2L19.5,12.2L19.5,11.8L22.3,11.8L22.3,10.3L23.8,10.3L23.8,9.2L21,9.2L21,8.8z" stroke="none"/><path d="M45.2,7.5L44.8,7.5L44.8,6.2L43.5,6.2L43.5,5.8L45.2,5.8z" stroke="none"/><path d="M13.7,10.5L13.3,10.5L13.3,8.8L15,8.8L15,9.2L13.7,9.2z" stroke="none"/><path d="M24.2,6L23.8,6L23.8,4.7L22.5,4.7L22.5,4.3L24.2,4.3z" stroke="none"/><path d="M88.5,3.2L88.5,2.8L90.2,2.8L90.2,4.3L91.5,4.3L91.5,4.7L89.8,4.7L89.8,3.2z" stroke="none"/><path d="M16.7,12L16.3,12L16.3,7.7L13.5,7.7L13.5,7.3L16.7,7.3z" stroke="none"/><path d="M87,12.2L87,11.8L89.8,11.8L89.8,10.3L93,10.3L93,10.7L90.2,10.7L90.2,12.2z" stroke="none"/><path d="M40.7,6L40.3,6L40.3,2.8L48,2.8L48,3.2L40.7,3.2z" stroke="none"/><path d="M10.5,10.7L10.5,10.3L12.2,10.3L12.2,11.8L13.7,11.8L13.7,13.3L17.8,13.3L17.8,10.3L21,10.3L21,10.7L18.2,10.7L18.2,13.7L13.3,13.7L13.3,12.2L11.8,12.2L11.8,10.7z" stroke="none"/><path d="M28.5,4.7L28.5,4.3L30.2,4.3L30.2,5.8L31.7,5.8L31.7,7.3L41.8,7.3L41.8,4.5L42.2,4.5L42.2,7.7L31.3,7.7L31.3,6.2L29.8,6.2L29.8,4.7z" stroke="none"/><path d="M69,2.8L69,3.2L51,3.2L51,2.8z" stroke="none"/><path d="M78,11.8L78,12.2L75.2,12.2L75.2,13.7L70.3,13.7L70.3,12.2L65.8,12.2L65.8,10.7L60,10.7L60,10.3L66.2,10.3L66.2,11.8L70.7,11.8L70.7,13.3L74.8,13.3L74.8,11.8z" stroke="none"/><path d="M82.5,12.2L82.5,11.8L84.2,11.8L84.2,13.3L98.8,13.3L98.8,11.8L100.3,11.8L100.3,8.8L102,8.8L102,9.2L100.7,9.2L100.7,12.2L99.2,12.2L99.2,13.7L83.8,13.7L83.8,12.2z" stroke="none"/><path d="M64.5,4.7L64.5,4.3L80.8,4.3L80.8,2.8L87.2,2.8L87.2,4.3L88.7,4.3L88.7,5.8L93.2,5.8L93.2,7.5L92.8,7.5L92.8,6.2L88.3,6.2L88.3,4.7L86.8,4.7L86.8,3.2L81.2,3.2L81.2,4.7z" stroke="none"/><path d="M36,4.7L36,4.3L38.8,4.3L38.8,1.7L6.2,1.7L6.2,4.7L4.7,4.7L4.7,10.3L7.3,10.3L7.3,9L7.7,9L7.7,10.7L4.3,10.7L4.3,4.3L5.8,4.3L5.8,1.3L39.2,1.3L39.2,4.7z" stroke="none"/><path d="M37.5,10.7L37.5,10.3L39.2,10.3L39.2,11.8L58.3,11.8L58.3,8.8L67.7,8.8L67.7,10.3L72.2,10.3L72.2,11.8L73.5,11.8L73.5,12.2L71.8,12.2L71.8,10.7L67.3,10.7L67.3,9.2L58.7,9.2L58.7,12.2L38.8,12.2L38.8,10.7z" stroke="none"/><path d="M54,5.8L54,6.2L50.8,6.2L50.8,4.7L49.3,4.7L49.3,1.3L94.7,1.3L94.7,3L94.3,3L94.3,1.7L49.7,1.7L49.7,4.3L51.2,4.3L51.2,5.8z" stroke="none"/></svg>