<svg version="1.1" width="105" height="15" xmlns="http://www.w3.org/2000/svg"><path d="M38.8,10.3L38.8,8.8L40.3,8.8L40.3,7.3L51.2,7.3L51.2,8.8L52.5,8.8L52.5,9.2L50.8,9.2L50.8,7.7L40.7,7.7L40.7,9.2L39.2,9.2L39.2,10.3L42.2,10.3L42.2,12L41.8,12L41.8,10.7L28.3,10.7L28.3,9.2L27,9.2L27,8.8L28.7,8.8L28.7,10.3z" stroke="none"/><path d="M58.3,8.8L58.3,7.7L56.8,7.7L56.8,6.2L39.2,6.2L39.2,7.5L38.8,7.5L38.8,5.8L57.2,5.8L57.2,7.3L58.7,7.3L58.7,8.8L79.7,8.8L79.7,10.3L81.2,10.3L81.2,12L80.8,12L80.8,10.7L79.3,10.7L79.3,9.2L55.3,9.2L55.3,7.5L55.7,7.5L55.7,8.8z" stroke="none"/><path d="M19.3,11.8L19.3,10.3L27.2,10.3L27.2,11.8L28.5,11.8L28.5,12.2L26.8,12.2L26.8,10.7L19.7,10.7L19.7,11.8L22.5,11.8L22.5,12.2L19.7,12.2L19.7,13.3L23.8,13.3L23.8,11.8L25.5,11.8L25.5,12.2L24.2,12.2L24.2,13.7L19.3,13.7L19.3,12.2L16.3,12.2L16.3,10.7L6,10.7L6,10.3L16.7,10.3L16.7,11.8z" stroke="none"/><path d="M88.3,10.3L88.3,8.8L94.5,8.8L94.5,9.2L88.7,9.2L88.7,10.3L91.5,10.3L91.5,10.7L88.7,10.7L88.7,11.8L98.8,11.8L98.8,10.5L99.2,10.5L99.2,12.2L88.3,12.2L88.3,10.7L82.7,10.7L82.7,13.7L79.3,13.7L79.3,12.2L76.5,12.2L76.5,11.8L79.7,11.8L79.7,13.3L82.3,13.3L82.3,10.3z" stroke="none"/><path d="M61.3,10.5L61.7,10.5L61.7,12L61.3,12z" stroke="none"/><path d="M35.8,4.5L36.2,4.5L36.2,7.3L37.5,7.3L37.5,7.7L35.8,7.7z" stroke="none"/><path d="M60,3.2L60,2.8L61.7,2.8L61.7,4.3L63.2,4.3L63.2,6L62.8,6L62.8,4.7L61.3,4.7L61.3,3.2z" stroke="none"/><path d="M28.5,7.3L28.5,7.7L24,7.7L24,7.3z" stroke="none"/><path d="M16.5,3.2L16.5,2.8L19.7,2.8L19.7,4.3L21,4.3L21,4.7L19.3,4.7L19.3,3.2z" stroke="none"/><path d="M15,11.8L15,12.2L4.3,12.2L4.3,8.8L17.8,8.8L17.8,7.3L19.5,7.3L19.5,7.7L18.2,7.7L18.2,9.2L4.7,9.2L4.7,11.8z" stroke="none"/><path d="M6,6.2L6,5.8L13.5,5.8L13.5,6.2z" stroke="none"/><path d="M4.5,3.2L4.5,2.8L13.5,2.8L13.5,3.2z" stroke="none"/><path d="M25.5,4.7L25.5,4.3L34.3,4.3L34.3,2.8L36,2.8L36,3.2L34.7,3.2L34.7,4.7z" stroke="none"/><path d="M54,10.3L54,10.7L43.3,10.7L43.3,9.2L42,9.2L42,8.8L43.7,8.8L43.7,10.3z" stroke="none"/><path d="M84,6.2L84,5.8L93.2,5.8L93.2,7.3L96.2,7.3L96.2,9L95.8,9L95.8,7.7L92.8,7.7L92.8,6.2z" stroke="none"/><path d="M85.5,8.8L85.5,9.2L80.8,9.2L80.8,7.7L70.5,7.7L70.5,7.3L81.2,7.3L81.2,8.8z" stroke="none"/><path d="M43.5,12.2L43.5,11.8L60.2,11.8L60.2,13.3L62.8,13.3L62.8,11.8L64.3,11.8L64.3,10.3L66,10.3L66,10.7L64.7,10.7L64.7,12.2L63.2,12.2L63.2,13.7L59.8,13.7L59.8,12.2z" stroke="none"/><path d="M58.5,6.2L58.5,5.8L61.7,5.8L61.7,7.3L68.8,7.3L68.8,5.8L82.3,5.8L82.3,4.3L85.5,4.3L85.5,4.7L82.7,4.7L82.7,6.2L69.2,6.2L69.2,7.7L61.3,7.7L61.3,6.2z" stroke="none"/><path d="M66,6.2L66,5.8L67.3,5.8L67.3,4.3L80.8,4.3L80.8,2.8L96.2,2.8L96.2,4.3L97.7,4.3L97.7,10.7L93,10.7L93,10.3L97.3,10.3L97.3,4.7L95.8,4.7L95.8,3.2L81.2,3.2L81.2,4.7L67.7,4.7L67.7,6.2z" stroke="none"/><path d="M60,4.3L60,4.7L37.3,4.7L37.3,1.7L27.2,1.7L27.2,3.2L24.2,3.2L24.2,4.7L22.7,4.7L22.7,6.2L21.2,6.2L21.2,9.2L19.5,9.2L19.5,8.8L20.8,8.8L20.8,5.8L22.3,5.8L22.3,4.3L23.8,4.3L23.8,2.8L26.8,2.8L26.8,1.3L37.7,1.3L37.7,4.3z" stroke="none"/></svg>