<svg version="1.1" width="105" height="15" xmlns="http://www.w3.org/2000/svg"><path d="M74.8,4.3L74.8,3.2L69.2,3.2L69.2,4.7L67.5,4.7L67.5,4.3L68.8,4.3L68.8,2.8L75.2,2.8L75.2,4.3L76.3,4.3L76.3,1.3L87.2,1.3L87.2,2.8L88.7,2.8L88.7,4.3L91.5,4.3L91.5,4.7L88.3,4.7L88.3,3.2L86.8,3.2L86.8,1.7L76.7,1.7L76.7,4.7L70.5,4.7L70.5,4.3z" stroke="none"/><path d="M87.2,4.3L87.2,5.8L102.2,5.8L102.2,7.5L101.8,7.5L101.8,6.2L86.8,6.2L86.8,4.7L82.7,4.7L82.7,6.2L69,6.2L69,5.8L82.3,5.8L82.3,4.7L77.8,4.7L77.8,3L78.2,3L78.2,4.3z" stroke="none"/><path d="M76.3,11.8L76.3,10.7L48.2,10.7L48.2,12L47.8,12L47.8,10.3L76.7,10.3L76.7,11.8L84,11.8L84,12.2L76.7,12.2L76.7,13.3L92.8,13.3L92.8,11.8L94.5,11.8L94.5,12.2L93.2,12.2L93.2,13.7L76.3,13.7L76.3,12.2L73.5,12.2L73.5,11.8z" stroke="none"/><path d="M43.3,7.3L43.3,5.8L44.8,5.8L44.8,4.3L48.2,4.3L48.2,5.8L64.7,5.8L64.7,7.5L64.3,7.5L64.3,6.2L47.8,6.2L47.8,4.7L45.2,4.7L45.2,6.2L43.7,6.2L43.7,7.3L46.3,7.3L46.3,6L46.7,6L46.7,7.7L43.7,7.7L43.7,8.8L46.7,8.8L46.7,10.5L46.3,10.5L46.3,9.2L43.3,9.2L43.3,7.7L37.7,7.7L37.7,9.2L17.8,9.2L17.8,7.7L16.5,7.7L16.5,7.3L18.2,7.3L18.2,8.8L37.3,8.8L37.3,7.3z" stroke="none"/><path d="M31.5,12.2L31.5,11.8L33,11.8L33,12.2z" stroke="none"/><path d="M69,11.8L69,12.2L67.5,12.2L67.5,11.8z" stroke="none"/><path d="M21.2,7.5L20.8,7.5L20.8,5.8L22.5,5.8L22.5,6.2L21.2,6.2z" stroke="none"/><path d="M87,10.3L87,10.7L84,10.7L84,10.3z" stroke="none"/><path d="M93,3.2L93,2.8L96,2.8L96,3.2z" stroke="none"/><path d="M15.2,6L14.8,6L14.8,3.2L13.5,3.2L13.5,2.8L15.2,2.8z" stroke="none"/><path d="M10.5,10.3L10.5,10.7L7.7,10.7L7.7,12L7.3,12L7.3,10.3z" stroke="none"/><path d="M55.5,4.7L55.5,4.3L66.2,4.3L66.2,9.2L48,9.2L48,8.8L65.8,8.8L65.8,4.7z" stroke="none"/><path d="M27,7.7L27,7.3L36,7.3L36,7.7z" stroke="none"/><path d="M5.8,10.5L6.2,10.5L6.2,13.3L22.3,13.3L22.3,11.8L24,11.8L24,12.2L22.7,12.2L22.7,13.7L5.8,13.7z" stroke="none"/><path d="M43.5,4.3L43.5,4.7L25.7,4.7L25.7,6L25.3,6L25.3,4.3z" stroke="none"/><path d="M70.5,9.2L70.5,8.8L73.3,8.8L73.3,7.3L91.5,7.3L91.5,7.7L73.7,7.7L73.7,9.2z" stroke="none"/><path d="M49.3,12L49.7,12L49.7,13.7L29.8,13.7L29.8,12.2L27,12.2L27,11.8L30.2,11.8L30.2,13.3L49.3,13.3z" stroke="none"/><path d="M75,9.2L75,8.8L97.3,8.8L97.3,7.3L100.5,7.3L100.5,7.7L97.7,7.7L97.7,9.2z" stroke="none"/><path d="M18,6.2L18,5.8L19.3,5.8L19.3,4.3L20.8,4.3L20.8,2.8L49.7,2.8L49.7,4.5L49.3,4.5L49.3,3.2L21.2,3.2L21.2,4.7L19.7,4.7L19.7,6.2z" stroke="none"/><path d="M3,7.7L3,7.3L15.2,7.3L15.2,8.8L16.7,8.8L16.7,10.3L34.5,10.3L34.5,10.7L16.3,10.7L16.3,9.2L14.8,9.2L14.8,7.7z" stroke="none"/></svg>